<?xml version="1.0" standalone="no"?>
<!DOCTYPE svg PUBLIC "-//W3C//DTD SVG 1.1//EN" "http://www.w3.org/Graphics/SVG/1.1/DTD/svg11.dtd" >
<svg xmlns="http://www.w3.org/2000/svg" xmlns:xlink="http://www.w3.org/1999/xlink" version="1.1" viewBox="-10 0 266 256">
   <path fill="currentColor"
d="M137 148v10t-1 10t-3 9t-6 8q-5 6 -11.5 13t-13.5 14t-14.5 13t-14.5 10q-1 0 -4 1.5t-7 2.5t-7 2.5t-4 3.5q-1 0 -1.5 2t-0.5 3q11 0 22 -5.5t21 -13t19 -16.5l16 -16q3 -3 4.5 -4t2.5 -1.5t2.5 -2t3.5 -4.5q5 -6 6 -15t1 -16t-2.5 -12.5t-6 -11t-6 -11t-2.5 -12.5
q0 -2 0.5 -3.5t3.5 -2.5q15 1 31.5 0t31.5 -5q1 0 1.5 -1t0.5 -2t-0.5 -2.5t-1.5 -1.5h-2l-2 0.5l-4 1t-4 0.5h-3t-4.5 0.5t-8.5 0.5q-4 0 -7.5 -0.5t-5.5 -0.5q-2 2 -5.5 2h-5.5h-3t-5 -0.5t-5 -1.5t-2 -3v-64h18q1 0 2.5 4.5t4 10.5t6 14t8.5 14t10.5 10.5t13.5 4.5
q0 -2 -1 -3.5t-2 -2l-2 -1t-2 -2.5q-4 -4 -9 -10.5t-9.5 -13t-8 -13t-3.5 -12.5q0 -3 1.5 -3.5t5.5 -1.5q1 0 3.5 -0.5t5.5 -0.5t5.5 -0.5t3.5 -0.5v-1v-1q0 -2 -0.5 -3.5t-2.5 -1.5q-6 0 -12.5 1t-12.5 2.5t-12 2.5t-12 1q-4 0 -11.5 0.5t-16.5 0.5t-16.5 -0.5t-11.5 -0.5
l-1 2v1v1l1 1q12 2 23.5 2t22.5 1q1 0 1.5 1l0.5 1q2 11 2 23v23v4q0 3 -0.5 5.5t-0.5 4.5v2l-1 4l-70 3q-1 0 -3 1t-2 3l2 1.5t3 1.5h72q0 3 -0.5 7t-0.5 8t0.5 7.5t3.5 6.5q0 1 1.5 3t3.5 3.5t3.5 3.5t2.5 2v2zM163 122q0 9 4 21t10 23.5t14 20.5t16 13q1 0 1.5 -1t0.5 -2
t-0.5 -1.5l-0.5 -0.5q-7 -13 -14.5 -25t-14.5 -26q-2 -3 -3 -7t-2.5 -8t-4 -7.5t-4.5 -5.5q-2 1 -2 3v3zM52 192v5q3 0 5.5 -0.5t4.5 -1.5t4 -2.5t4 -3.5q7 -5 11.5 -10.5t8 -11.5t6 -13t5.5 -15v0q0 -2 -0.5 -4t-1.5 -4t-1.5 -4t-1.5 -2v-0.5t-1 -0.5l-0.5 0.5l-0.5 0.5
l-0.5 0.5l-0.5 0.5q-1 9 -4.5 19t-8.5 19t-12 16.5t-16 11.5zM65 89v1q1 0 1.5 0.5l0.5 0.5v0.5t1 0.5q5 0 9 -3t7 -6.5t5.5 -8t4.5 -7.5v-30q0 -1 -1.5 -3.5t-2.5 -2.5q-3 1 -3.5 6.5t-1 12.5t-1.5 14t-4 11q-1 1 -3 2.5t-5 4t-5 4.5t-2 3z" />
</svg>
