<?xml version="1.0" standalone="no"?>
<!DOCTYPE svg PUBLIC "-//W3C//DTD SVG 1.1//EN" "http://www.w3.org/Graphics/SVG/1.1/DTD/svg11.dtd" >
<svg xmlns="http://www.w3.org/2000/svg" xmlns:xlink="http://www.w3.org/1999/xlink" version="1.1" viewBox="-10 0 266 256">
   <path fill="currentColor"
d="M123 246q0 3 0.5 4t2.5 1t4 -1.5t3.5 -4t2 -5t0.5 -3.5v-1v-5t-0.5 -9t-0.5 -9v-5v-2t0.5 -2t0.5 -2v-2v-4.5t-0.5 -8t-0.5 -8v-4.5v-2t-0.5 -5t-0.5 -5v-4v-4q0 -2 0.5 -4.5t0.5 -4.5v-4q1 -2 5.5 -3.5t9.5 -2t10 -0.5h7q3 0 5.5 2.5t2.5 5.5v47q-1 1 -1.5 3t-0.5 3v0.5
v1.5q0 2 1 3.5t1 3.5q0 7 -1.5 14t-1.5 13q0 2 0.5 3t3.5 1q2 0 4.5 -2.5t3.5 -4.5q0 -7 0.5 -12.5t0.5 -10.5v-10v-11v-8q0 -3 -0.5 -10.5t-1 -16t-0.5 -16.5t-1 -11q-2 -1 -2.5 -2.5l-1 -3l-1 -3t-1.5 -3.5q-2 -2 -4.5 -4l-5 -4t-4 -4.5t-1.5 -5.5q0 -5 3.5 -8.5t7.5 -6.5
t7 -6t3 -7q0 -2 -1 -2.5t-3 -2.5l-1 -1q-2 0 -6.5 4.5t-9 9.5t-7.5 10.5t-3 7.5q0 9 3 14t7 8t7.5 5t3.5 6v2.5t-2 1.5h-34q-2 0 -2.5 -3t-0.5 -5q0 -5 1.5 -11.5t1.5 -12.5q0 -4 -1 -8.5t-1 -8.5q0 -5 0.5 -8.5t1.5 -9.5q6 1 11.5 -0.5t10.5 -4.5q6 -2 9 -6t4 -8.5t1 -9.5
v-11v-4v-4l-2 -3h-1h-2h-2.5t-3.5 2q0 1 0.5 4t0.5 6t-0.5 6.5t-0.5 4.5v3.5t-1 5.5t-2.5 5t-3.5 2h-19v-42l-2.5 -2t-3.5 -2h-1q-2 0 -3 1t-1 3v2q0 1 0.5 6.5t0.5 11.5t0.5 11t0.5 7v1q0 3 -1.5 4.5t-3.5 2t-4.5 1t-4.5 0.5h-3q-3 0 -4 -1q-7 -4 -9 -11t-2.5 -13.5t-2 -11
t-5.5 -4.5q-3 0 -4.5 1.5t-1.5 4.5v0q0 1 0.5 2l0.5 1q0 1 0.5 4l1 6l1 6t0.5 4q0 2 1 5t2.5 6t4 5.5t6.5 2.5h25l3 1v6q0 15 -1 30t-1 30q-1 2 -3.5 2.5t-5.5 0.5h-5.5h-3.5h-9q-4 0 -8 -2q-1 0 -1 -1v-1q0 -4 2.5 -8t6 -8t6 -8.5t2.5 -8.5q0 -5 -3 -10t-7.5 -9.5t-10 -7
t-9.5 -3.5q-1 0 -2.5 1.5t-1.5 2.5q0 3 3.5 6.5t8.5 7.5t9.5 7.5t6.5 5.5q-7 5 -11 11.5t-6.5 13.5t-4.5 14t-5 15v65q0 1 0.5 3.5t1 5.5t1 6.5t0.5 5.5q1 2 2 2.5t3 0.5q3 0 5 -2t2 -5q0 -6 -2.5 -10t-2.5 -10v-67l4 -3q8 0 16 -1.5t16 -1.5h1h2t2 0.5t1 1.5v87
q-1 6 -1 9.5v8.5z" />
</svg>
