<?xml version="1.0" standalone="no"?>
<!DOCTYPE svg PUBLIC "-//W3C//DTD SVG 1.1//EN" "http://www.w3.org/Graphics/SVG/1.1/DTD/svg11.dtd" >
<svg xmlns="http://www.w3.org/2000/svg" xmlns:xlink="http://www.w3.org/1999/xlink" version="1.1" viewBox="-10 0 266 256">
   <path fill="currentColor"
d="M111 178q1 1 3 4t4.5 6.5t4.5 6.5t2 4q2 3 3.5 6t2.5 6.5t3 7t4 5.5l2.5 2.5t3 3.5t2.5 3.5l1 1.5q4 4 7.5 8.5t10.5 4.5h1q1 0 3.5 -0.5t2.5 -2.5q0 -3 -3 -7t-7 -7.5t-7.5 -7l-5.5 -5.5q-4 -5 -8.5 -12t-8 -15t-6 -15.5t-2.5 -13.5q0 -9 3.5 -17.5t9 -16l11 -15
t9.5 -15.5v-4.5v-4.5q0 -13 -5 -19t-12 -9t-16 -4t-17 -5q-4 -1 -6 -7t-3.5 -12.5t-3.5 -11.5t-5 -5h-1l-1 2q0 1 -0.5 3.5t-0.5 3.5q0 5 1.5 11.5t4.5 12.5t7.5 10.5t10.5 6.5t12.5 2.5t12 2t9 5.5t3.5 13q0 6 -2.5 11.5t-6 10.5t-7.5 10t-7 9q-4 6 -6 12.5t-7 12.5v23z
" />
</svg>
