<?xml version="1.0" standalone="no"?>
<!DOCTYPE svg PUBLIC "-//W3C//DTD SVG 1.1//EN" "http://www.w3.org/Graphics/SVG/1.1/DTD/svg11.dtd" >
<svg xmlns="http://www.w3.org/2000/svg" xmlns:xlink="http://www.w3.org/1999/xlink" version="1.1" viewBox="-10 0 266 256">
   <path fill="currentColor"
d="M121 249q0 1 0.5 1t0.5 1h1h1q0 -1 0.5 -1t0.5 -1v-2.5v-2.5q0 -9 -2 -17t-2 -16v-11t1 -11l4 -4t5 -3l17 -3q3 0 5 -3t3.5 -6.5t2 -7t0.5 -6.5q0 -5 -1.5 -7.5t-5.5 -5.5h-13q-1 -1 -2.5 -1.5l-1.5 -0.5v-22l4 -4l24 -3v-1v0v-1l-0.5 -1l-0.5 -1h-21q-2 0 -3.5 -2
t-1.5 -3l0.5 -3t1 -7t1.5 -7t3 -3h23q1 0 1 -1.5v-2.5v-1t-1 -1l-27 -3v-17h35q1 0 1.5 2.5l0.5 2.5q0 11 -1.5 21.5t-1.5 20.5q0 13 1 24.5t3 23.5t4.5 24t3.5 24q1 2 2 6.5t2.5 8.5t3 7.5t3.5 3.5v-0.5t1 -0.5l1 -1l1 -1v-1q0 -4 -1.5 -6t-2.5 -6v-2t-0.5 -3.5t-0.5 -3.5
v-2q0 -1 -1 -3.5t-1.5 -5.5t-1.5 -6l-1 -3q-1 -11 -2.5 -21t-2.5 -19.5t-1 -19.5v-21q0 -20 1 -39.5t1 -39.5l0.5 -2t0 -4t-1 -3.5t-1.5 -1.5v0.5v0.5q-1 0 -2 1l-1 1q-1 2 -1.5 6.5t-1 9.5t-1 9.5t-1.5 5.5q0 1 -0.5 2.5t-0.5 2t-0.5 1l-0.5 0.5h-34v-41q0 -2 -1 -2.5
t-2 -0.5t-2.5 4t-2 10.5t-1 14.5t-1 15t-0.5 13.5v10.5l-4 3h-24l-1 1t-2 1q0 1 -0.5 1.5l-0.5 0.5v1v0q0 1 0.5 1.5l0.5 0.5h30q1 0 1.5 1t0 2.5l-0.5 1.5q0 5 -0.5 9t-0.5 10h-4.5h-6t-6.5 0.5t-5 0.5h-1t-2.5 0.5l-3 1t-1.5 1.5v1v0q0 1 0.5 1.5t1.5 0.5h28v26q0 2 -2 2
t-4 0.5t-4 1.5t-2 3t2 2h3h3.5t3.5 -2h4h4h5t5 0.5t4 2t2 4.5q0 8 -2 12t-5.5 5.5t-8.5 2t-11 1.5q-1 0 -3 1t-3 1l-1 2l-2 4t-1.5 4l-0.5 2q0 1 -0.5 2.5t-0.5 3.5v4v2v3v4t0.5 3.5l0.5 1.5q0 2 1 7t2.5 10.5t2.5 10.5t2 7zM75 175q-3 5 -3.5 9.5t-2.5 10.5q-1 3 -3 6.5
t-4 7.5t-3 8t-1 7q4 0 7 -4t4 -7q1 -1 2 -4t2.5 -6.5t2.5 -6.5t2 -4t1.5 -3t0.5 -3q8 -32 10 -65.5t2 -66.5v-8.5t-0.5 -10.5t-3 -8.5t-8.5 -3.5q0 3 0.5 6.5t1.5 6.5v7v9.5v10.5v6v19q0 9 -0.5 17.5l-1 17t-1.5 18.5q0 1 -0.5 3t-0.5 3q-1 1 -1 5.5t-0.5 8.5l-1 8t-0.5 6z
" />
</svg>
