<?xml version="1.0" standalone="no"?>
<!DOCTYPE svg PUBLIC "-//W3C//DTD SVG 1.1//EN" "http://www.w3.org/Graphics/SVG/1.1/DTD/svg11.dtd" >
<svg xmlns="http://www.w3.org/2000/svg" xmlns:xlink="http://www.w3.org/1999/xlink" version="1.1" viewBox="-10 0 266 256">
   <path fill="currentColor"
d="M136 169h20q3 0 4 2.5t1 4.5q0 1 0.5 4.5l1 7l1 7t0.5 4.5q2 8 5.5 15t8.5 13.5t10.5 12.5t10.5 11h2q1 0 2.5 -0.5t1.5 -2.5v-1q-2 -4 -4 -7t-4.5 -6t-5.5 -6t-5 -7q-6 -10 -10.5 -22t-4.5 -25v-3v-3q5 -4 10 -5t10 -2.5t7.5 -5.5t2.5 -13q0 -7 -2 -11t-5 -5.5t-6.5 -2
t-7.5 -0.5q-3 0 -5.5 -0.5t-3.5 -1.5q-1 -4 -2 -6.5t-1.5 -4.5t-2.5 -3.5l-6 -4.5l-1 -1q-1 0 -1.5 1.5t-0.5 2.5q0 2 0.5 4t1.5 3.5t2 3.5t1 4q0 4 -1 6t-3 2t-4.5 -0.5t-4.5 0.5q-1 0 -3 1t-2 0q-2 0 -3 -1.5t-2.5 -3.5t-2 -4t0.5 -3q-2 -1 -5 -2t-6 -1q0 4 2 8v35
q0 4 -1.5 6.5t-3.5 5.5t-4 5.5t-2 5.5q6 0 11 -3.5t9 -7.5zM84 148v6v7v7v3q0 1 0.5 4l1 6l1 6l0.5 3l3 15t6 20t9 17.5t11 7.5q0 -4 -1.5 -8t-4 -7.5l-5 -7t-3.5 -8.5q-8 -32 -8 -66q0 -24 3 -47.5t9 -47.5v-1v-1q0 -6 -1.5 -9.5t-4 -5t-6.5 -3t-8 -2.5q-2 -1 -6 -2
t-8.5 -2.5t-8.5 -2.5t-6 -2q-2 0 -2.5 -0.5t-0.5 -1v-0.5h-3t-3 1t-1 3q0 3 2.5 5t6.5 3.5t7.5 3t5.5 4.5v14q0 19 -1 37t-1 37q-2 3 -3.5 10t-3 15.5t-2.5 16.5t-2 12q-1 1 -2.5 5.5t-3.5 9t-3.5 8.5t-2.5 6v2v2t2 1q7 -6 12.5 -17t9 -24.5t6 -28.5t3.5 -29t1.5 -26.5
t0.5 -21.5q0 -6 -1 -11.5t-1 -11.5v-3v-2q1 0 2 -0.5t2 -0.5v0h1q2 0 6 0.5l4 0.5q1 0 1.5 1l0.5 1v2.5v3.5v4v2q0 13 -2.5 25t-4.5 24q0 1 -0.5 3t-1 4.5t-1 4.5t-0.5 3v5v7v7v5zM137 155q0 -1 0.5 -4t1.5 -6.5t2 -6t2 -2.5h18v21q0 3 -2 4t-5 1.5t-6 0t-5 -0.5q-4 0 -5 -1
t-1 -6zM169 149v-3.5t0.5 -4.5t1.5 -4t3 -3h6q3 0 5.5 0.5t5.5 1.5v2.5v2.5q0 7 -4.5 10.5t-11.5 3.5h-4l-1 -2t-1 -3v0v-1zM159 79q7 0 13 4.5t12.5 9.5t14 9.5t16.5 4.5q0 -2 -3.5 -5t-8.5 -6.5t-11 -7t-11 -7t-9 -6t-4 -5.5q-1 -3 1.5 -5.5t6 -5t6.5 -5.5t3 -7t-3 -6
t-6 -3.5t-6.5 -3t-5.5 -5.5v-4v-5.5t-1 -4.5t-4 -2q-2 0 -3.5 3t-2.5 7t-2 7.5t-2 5t-2.5 5t-4 6.5t-4.5 6t-2 4q-6 7 -12 11.5t-12 10.5q1 0 1.5 1l0.5 1h1h1q1 -1 4.5 -2l3.5 -1q1 -1 3.5 -2.5t4.5 -3.5l4 -4l3 -3h4q2 0 5.5 1.5t2.5 5.5q0 1 -1.5 3t-3.5 4l-3.5 3.5
t-1.5 2.5l-32 15l-1 1.5t-1 2.5t2 1h3h2q7 -3 12.5 -5.5t10 -5t9.5 -6t10 -9.5h1.5h1.5zM149 57q0 -1 1 -4t2.5 -6t4 -5.5t4.5 -2.5q3 1 5.5 3t2.5 5q0 6 -4 9.5t-7 7.5h-2q-7 0 -7 -7z" />
</svg>
