<?xml version="1.0" standalone="no"?>
<!DOCTYPE svg PUBLIC "-//W3C//DTD SVG 1.1//EN" "http://www.w3.org/Graphics/SVG/1.1/DTD/svg11.dtd" >
<svg xmlns="http://www.w3.org/2000/svg" xmlns:xlink="http://www.w3.org/1999/xlink" version="1.1" viewBox="-10 0 266 256">
   <path fill="currentColor"
d="M90 246q0 2 1.5 3.5t3.5 1.5t3.5 -1.5t1.5 -4v-4.5v-4q0 -14 -2.5 -27.5t-2.5 -27.5q0 -26 2 -51t1 -51q2 -4 3 -9t1.5 -10t0.5 -10v-10t-5 -7.5t-12 -4.5t-14 -2.5t-10 -0.5q-2 0 -5 0.5t-4 0.5l-0.5 0.5l-1.5 1.5v0q0 3 2.5 4.5t5.5 2t5.5 1t3.5 0.5v6q0 7 -1.5 13
t-1.5 12q0 3 -0.5 9.5t-1 13.5t-1 13.5t-0.5 8.5q-2 3 -2 6v6v6t-2 5v10t-0.5 15t-0.5 15v10v4q0 3 -0.5 7.5t-0.5 9.5v7v5t0.5 8.5t0.5 7.5v6q0 1 1 1.5t3 0.5q4 0 5 -4t1 -7q0 -9 -1 -18t-1 -18v-4v-4.5v-4.5v-2l2 -3q-1 -2 -1 -7v-11v-10t1 -7q0 -1 0.5 -4l1 -6l1 -6
t0.5 -4q2 -19 3 -38t4 -38q0 -1 0.5 -3l0.5 -2q1 -2 3 -2h5q5 0 6 4t1 9q0 29 -1.5 57.5t-1.5 57.5q0 17 1 34.5t1 34.5v2l-0.5 1.5t-1 2.5t-0.5 1.5v1.5zM117 117q0 12 -0.5 25t3 24.5t11 19t23.5 7.5q10 0 18 -0.5t13.5 -2.5t9 -7.5t5.5 -16.5q2 -6 2.5 -11l1 -10t0.5 -9
v-11v-4v-4.5v-5.5v-3q-1 -2 -2 -4.5t-1 -6t-0.5 -6.5t-1.5 -6q-3 -9 -4.5 -14.5t-5 -8.5t-9.5 -4t-16 0q-2 0 -2 -2v-2q0 -10 1.5 -19t1.5 -19q0 -6 -7 -6q-1 0 -2.5 1.5t-1.5 3.5v43l-1.5 1t-2.5 1l-2.5 0.5t-5 0.5t-4.5 0.5t-3 0.5q-7 1 -10.5 8t-5.5 16t-2 17.5v13.5z
M138 180v0q2 -2 4 -6.5l4 -9t4.5 -9t3.5 -5.5q0 -1 0.5 -2.5t1 -3.5t1.5 -3t2 -1q2 0 4 2.5t4.5 6t5.5 8.5t5.5 9t4 7.5t1.5 4.5t-2 2.5t-4 2l-4 1l-2 0.5h-30l-1.5 -1t-2.5 -2v0v-1zM125 120v-5v-8.5v-8.5v-5l1.5 -2t2.5 -3v0q4 0 8.5 5.5t8.5 13t6.5 14.5t2.5 10q0 1 -3 8
t-7 14.5t-8 13.5l-4 6q-2 0 -3 -2t-1 -3q-1 -2 -1.5 -5t-1 -6.5t-1 -6.5t-0.5 -4v-3v-8v-8v-7zM164 126v-1l10 -22t11 -21q1 0 1.5 -0.5l0.5 -0.5q1 0 2.5 2t2.5 4t1.5 4l0.5 2v63q0 2 -1 5t-3 5q-2 -1 -6.5 -7.5t-9 -13.5t-7.5 -13zM132 74q0 -3 4.5 -4.5t10.5 -2l12 -1
t9 -0.5h4q4 0 5 1q1 0 3.5 1t1.5 4q0 2 -3 8.5t-7 13.5t-7.5 12.5t-5.5 5.5q-1 0 -3.5 -2.5t-5.5 -6.5t-6.5 -9t-6 -9t-4 -7t-1.5 -4z" />
</svg>
