<?xml version="1.0" standalone="no"?>
<!DOCTYPE svg PUBLIC "-//W3C//DTD SVG 1.1//EN" "http://www.w3.org/Graphics/SVG/1.1/DTD/svg11.dtd" >
<svg xmlns="http://www.w3.org/2000/svg" xmlns:xlink="http://www.w3.org/1999/xlink" version="1.1" viewBox="-10 0 266 256">
   <path fill="currentColor"
d="M89 158v2q0 4 0.5 9.5t0.5 11t0.5 10t0.5 5.5q0 6 0.5 14t2 16.5t4.5 15.5t7 9q2 0 3 -2t1 -3q0 -9 -2.5 -15.5t-4.5 -14.5q-5 -26 -5 -53q0 -13 2 -26t4.5 -25.5l5 -25t2.5 -25.5q0 -3 -0.5 -6.5t-1.5 -6.5l-3.5 -3t-9 -7t-11.5 -9t-11 -9t-8.5 -6.5t-4.5 -2.5l-1 0.5
t-2 1.5v0q0 5 2.5 8.5t6.5 7t8 6.5t6 5v3q0 4 -2 8t-3 8q-3 13 -5 24.5t-4.5 22.5t-5.5 22t-8 24q-1 3 -3.5 8t-5.5 10t-5 9.5t-2 6.5t0.5 3t1.5 1q6 0 11 -6.5t9 -16t8 -21t7 -22t5 -19t2 -11.5q1 -10 2 -20.5t3 -20.5q1 -4 2 -5.5t4 -1.5q4 0 6 2.5t3 6.5v12q0 20 -3.5 40
t-5.5 39q-1 2 -1.5 3.5l-1 3t-0.5 2.5v3zM169 175q0 9 2 18t5 16.5t7.5 15t10.5 15.5q1 2 2 4.5t4 2.5q4 0 4 -4v-3q-2 -4 -4 -9.5t-4.5 -10.5t-4.5 -9.5t-4 -7.5q-5 -11 -6.5 -24t-1.5 -24q0 -6 1.5 -10.5t3.5 -7t4.5 -4.5t5 -4.5t4 -6.5t1.5 -11q0 -4 -0.5 -7t-1.5 -7
q-1 -2 -3.5 -4.5t-5.5 -5t-6.5 -4.5t-6.5 -2h-1l-0.5 0.5t-0.5 1.5q0 2 2.5 5t5.5 6.5t5.5 7.5t2.5 8q0 2 -0.5 4.5t-1.5 5t-2.5 5t-4.5 2.5l-0.5 -0.5l-0.5 -0.5q-1 0 -2 -3.5t-1 -4.5l-0.5 -1.5l-1 -3l-1 -3l-0.5 -1.5q-3 -4 -6 -7t-7 -5.5l-8 -5t-7 -4.5h-3h-2t-2 2
q4 5 9.5 8.5t10 7.5t8 9t3.5 12q0 3 -1 5.5t-4 2.5q-6 0 -12 -2.5t-11.5 -6t-10 -8l-8.5 -8.5h-4q0 8 5.5 14t13.5 10t17 6t15 2q0 1 1 3.5l1 2.5v1q0 7 -1 13.5t-1 13.5zM193 38q3 0 5.5 6t4.5 13t5 13t9 6q1 0 1.5 -1.5t0.5 -2.5l-0.5 -1t-0.5 -2q-1 -1 -2.5 -4.5t-4 -8
t-4 -8t-2.5 -5.5q-1 -1 -1.5 -3.5l-1 -5t-2 -4t-4.5 -1.5q-6 0 -9.5 2.5t-5.5 6t-3 8t-1.5 8t-1.5 6t-4 2.5q-2 0 -3.5 -1.5t-2 -3.5l-1 -4t-0.5 -3v-4t-0.5 -6t-0.5 -5.5v-4.5l-4 -5h-1.5h-2.5q-9 0 -14 5t-8.5 12t-5.5 15t-4 14v1v2q4 0 7 -3t5 -7.5t3.5 -9l3 -9t3.5 -7.5
t5 -3q4 0 5.5 2.5t2 6.5t1 8.5t1.5 8t3.5 6t8.5 2.5t8.5 -4.5t3 -10.5t2.5 -11t7 -5z" />
</svg>
