<?xml version="1.0" standalone="no"?>
<!DOCTYPE svg PUBLIC "-//W3C//DTD SVG 1.1//EN" "http://www.w3.org/Graphics/SVG/1.1/DTD/svg11.dtd" >
<svg xmlns="http://www.w3.org/2000/svg" xmlns:xlink="http://www.w3.org/1999/xlink" version="1.1" viewBox="-10 0 266 256">
   <path fill="currentColor"
d="M193 244q0 2 1 4.5t4 2.5q2 0 4 -2.5t3 -5t1.5 -5t0.5 -3.5v-40q-1 -1 -1.5 -3l-0.5 -2v-4v-6v-6v-3q0 -2 -0.5 -6.5l-1 -9l-1 -9t-1.5 -5.5q-2 -3 -6 -6l-8 -6t-6.5 -6.5t-2.5 -8.5v-1v-2q5 -5 9 -8t8 -4t7.5 -2t5.5 -3.5t3.5 -6.5t1.5 -12q0 -6 -1.5 -12.5t-6.5 -10.5
q-3 -1 -7.5 -1.5t-9 -1.5t-9 -1.5t-7.5 -0.5h-1q-1 0 -3.5 0.5t-3.5 0.5v2q0 3 2.5 3.5t6 1t6 3t2.5 9.5v7.5v7t-0.5 7.5t-1.5 8q-4 4 -7 8.5t-3 10.5q0 7 2.5 10.5t5.5 5.5t6.5 3.5t6.5 5.5q2 4 3.5 9.5t2 11t0.5 11.5v11q0 3 -0.5 6t-0.5 6v1v4.5t0.5 8t0.5 8.5v5v2
q0 4 -1.5 9t-1.5 10zM75 235q0 2 1 4.5t4 2.5q2 0 3 -1t2 -4v-2v-4v-3v-3q0 -7 -1 -13.5t-1 -14.5q0 -2 0.5 -3l1.5 -3q2 -27 2 -54.5t1 -54.5q1 -12 2.5 -23t1.5 -22q0 -5 -3 -8.5t-7 -4.5q-2 0 -6 -1t-7.5 -1.5t-7.5 -1t-7 -0.5t-6.5 1t-3.5 5q0 2 2 2.5t4.5 0.5t4.5 1
t2 4q0 1 -0.5 2.5l-0.5 1.5v1.5t-0.5 3t-0.5 2.5v2q-1 3 -2 9.5t-1.5 13t-1.5 11.5t-1 6q-2 29 -4 59t-2 59v21q-1 3 1 3.5t4 0.5h2q2 0 3 -2q2 -24 2.5 -48.5t1 -48.5t2.5 -48.5t7 -47.5q2 -2 4 -2h5q1 0 3.5 -0.5t3.5 2.5v12q0 21 -1 42t-2.5 42t-2.5 42t-1 43v19z
M103 141l0.5 2l1 4t0.5 4v2q1 7 1 13t2.5 10.5t7 7t12.5 2.5q3 0 6.5 -1t6.5 -3t4.5 -5t1.5 -6v-2v-7t-0.5 -10.5t-0.5 -10.5v-7l-2 -2l-2 -2v0q-4 0 -4.5 3t-0.5 7t-0.5 7t-2.5 3h-19l-1 -1.5t-2 -2.5v0v-1v-0.5v-0.5l0.5 -1t0.5 -2t0.5 -2l0.5 -1q0 -2 -1.5 -4t-3.5 -2v0
v0q-1 0 -1.5 1l-0.5 1q-1 1 -2.5 4zM112 165q0 -1 1 -2.5t2 -2.5q1 0 3.5 -0.5t4.5 -1t4.5 -1t3.5 -0.5l1 -0.5l1 -0.5q2 0 4 1t2 3v1v1q0 1 -0.5 2.5t-1 3.5t-1 3.5t-0.5 2.5q-1 0 -3 0.5t-2 1.5h-1q-3 0 -6 -0.5t-5.5 -1.5t-4.5 -3t-2 -6zM128 106q4 0 7 2.5t6.5 5.5l7 6
t7.5 3v-10q-1 -1 -4 -2.5t-6 -3.5t-6 -3.5t-4 -2.5t-2.5 -2t-1.5 -2v-24q0 -1 -1 -3t-2 -2l-5 5v23q0 3 -4.5 5.5t-10 5t-10 6t-4.5 8.5q5 0 9.5 -2.5t8 -5.5t7.5 -5t8 -2zM188 80v-4v-3.5t0.5 -5l1 -5t0.5 -3.5h2h3h2h2.5t2.5 1t1 2v23q0 1 -1 2t-2.5 2t-3 1h-2.5
q-4 0 -5 -3t-1 -7zM132 57q2 0 5.5 2t6.5 4.5l6 5t4 4.5h8q0 -5 -3 -8.5t-7 -6.5t-8.5 -5t-7.5 -5v-33l-1 -0.5t-1 -1.5h-1h-1q0 1 -2 3l-3 3q0 3 0.5 8t0 10t-1.5 9.5t-4 7.5q-1 1 -5.5 2t-8.5 2.5t-7.5 3.5t-3.5 5q0 2 3 2q4 0 8 -1.5t7.5 -4t7.5 -4.5t9 -2z" />
</svg>
