<?xml version="1.0" standalone="no"?>
<!DOCTYPE svg PUBLIC "-//W3C//DTD SVG 1.1//EN" "http://www.w3.org/Graphics/SVG/1.1/DTD/svg11.dtd" >
<svg xmlns="http://www.w3.org/2000/svg" xmlns:xlink="http://www.w3.org/1999/xlink" version="1.1" viewBox="-10 0 266 256">
   <path fill="currentColor"
d="M80 248q0 2 1.5 2.5t2.5 0.5q4 0 7 -3.5t3 -7.5v-1q-1 0 -1.5 -2t-0.5 -3t-0.5 -5.5t-1 -9.5t-1 -9.5t-1.5 -5.5q0 -1 -0.5 -2.5t-0.5 -2.5q0 -2 0.5 -7t0.5 -11v-11v-7v-4t-0.5 -8t-0.5 -8v-5v-4v-9v-9v-7v-5v-6v-6v-3l1 -3h2t4 -0.5l4 -1t4 -0.5h2h4h2.5h3.5q-1 9 3 16
t12 11q-1 1 -1 3t1 3v1t0.5 2t0.5 2v1v5t-1 6t-2.5 5.5t-3.5 2.5q-1 0 -2.5 -0.5t-3.5 -0.5t-3 -1t-1 -2v-21q0 -2 -2.5 -4t-4.5 -2t-3 2t-1 4v4.5v4.5q0 9 2 13.5t5 7t6.5 3t6 1t5 2t2.5 5.5t-3 5.5t-6.5 2.5t-7.5 1h-7l-1.5 1.5l-1.5 1.5v1q0 2 2 2.5t4 0.5q3 0 6.5 -1
t6.5 -1q4 0 6 1.5t2 6.5l-0.5 2l-1 4t-1 3.5t-1.5 1.5h-23l-0.5 1t-1 1.5t-1 2l-0.5 1.5q0 1 0.5 1.5l0.5 0.5h25l0.5 3t1.5 5v0.5v0.5q0 5 -5 6t-11 1.5t-11 1t-5 3.5v0.5v0.5l1.5 1.5t2.5 1.5h14q3 0 11 0.5t16 0t14 -2t6 -5.5q0 -1 -0.5 -3t-1.5 -2h-18q-2 0 -3 -3t-1 -4
q0 -4 4 -5.5t8 -2t7 -1.5t2 -4q-2 -3 -3 -4t-3 -1q-4 0 -7 1t-7 1v-5v-4t1 -4l2 -4q7 0 10.5 -1t3.5 -8h-14q-2 0 -2.5 -1.5t-0.5 -2.5q0 -4 1.5 -6t4 -3t6 -2t6 -3.5t4 -6.5t1.5 -12v-6.5t-2 -6.5q-5 0 -6 3.5t-1 8.5t-0.5 9.5t-3.5 5.5q-1 0 -4 -0.5l-3 -0.5q0 -5 -1 -9
t-1 -9t1.5 -7.5t3 -4.5t4 -4t5.5 -5q0 -8 2 -12.5t4.5 -7t5.5 -3.5t5.5 -1t4 -0.5t1.5 -2.5q0 -3 -2 -3.5t-4.5 -0.5h-4.5t-2 -3q0 -5 2 -8.5t2 -9.5q0 -1 -0.5 -4.5t-0.5 -4.5q0 -2 -1.5 -3.5t-4.5 -1.5h-1l-1 0.5t-2 0.5q-1 9 -1.5 18t0.5 18q-1 0 -1.5 1l-0.5 1h-1
q-3 0 -3.5 -2.5t-0.5 -4.5q0 -12 0.5 -23.5t0.5 -23.5q0 -3 -0.5 -4.5t-3.5 -1.5q-1 0 -3.5 0.5t-2.5 3.5v54q0 3 -2 3h-4q-4 0 -4.5 -1t-0.5 -5q0 -9 1 -18t1 -18v-2q-1 -1 -1.5 -4t-0.5 -4h-3q-1 0 -3 0.5t-2 2.5v51q-5 0 -7 -0.5t-5 -4.5q0 -3 0.5 -8.5t-0.5 -10.5
t-3 -8.5t-8 -3.5q0 7 1.5 13t1.5 13v10l-3 1.5t-3 0.5t-2.5 -1t-2.5 -3v-7q0 -9 2 -16.5t2 -15.5q0 -6 -4 -9.5t-10 -4.5t-12 -1h-10h-8l-0.5 1l-0.5 1v1q0 3 2 3.5t5 1t5.5 1t2.5 4.5q0 5 -0.5 10.5t-1 11.5t-1 11.5t-0.5 9.5q-2 32 -3 64t-1 65v40q1 2 2 2.5t3 0.5
t3.5 -1.5t2 -3t1 -4t0.5 -3.5q-1 -50 -1 -101t6 -101q0 -2 1 -2h2h2t2 2v19v20q0 3 -0.5 10.5t-0.5 16.5t-0.5 17t-0.5 11q0 1 -1 4.5t-1 4.5v0v1q0 19 2.5 39.5t2.5 40.5v1q0 1 -0.5 3l-0.5 2v1v1v4t0.5 6.5t0.5 7v4.5zM195 241q1 3 2.5 4t4.5 1t4 -2t1 -4v-2q0 -1 -0.5 -2
t-0.5 -2.5t-0.5 -2.5t-0.5 -2q-2 -18 -3 -36t-4 -36q0 -6 -1.5 -11.5t-1.5 -11.5q0 -5 2 -10l4 -10t4 -10.5t2 -10.5q0 -3 -1 -5.5t-3 -5t-4 -4t-5 -1.5v0q-1 1 -1.5 4l-0.5 3v1q0 4 2.5 8t2.5 8t-3 7.5t-6 6.5q0 -4 -2 -7t-4.5 -6t-6 -4.5t-7.5 -1.5q-3 0 -3 4v0v1
q3 3 6 5.5t5.5 5.5t4 6.5t1.5 7.5q0 3 -3 4t-6 2.5t-6 4t-3 7.5q3 0 5 -1t3.5 -2t3.5 -2t4 -1q3 0 4.5 4t2.5 8.5t1 8.5v6v0l-0.5 1l-0.5 1h-3t-4.5 0.5t-4.5 1t-3 0.5h-2.5t-3 0.5t-3 0.5h-1.5l-1 1l-1 1q0 1 1 2l1 1q6 2 13 2.5t13 -0.5q2 2 3 5.5t1.5 7.5t0.5 7.5t1 6.5
v7t0.5 11t0.5 11.5v7.5zM122 92q0 -4 1.5 -6t4 -3t5.5 -1.5t6 -0.5q4 0 5 3t1 6q0 2 -1.5 4t-4 3.5t-5 2.5t-5.5 1q-1 0 -2 -1t-2 -2.5l-2 -3l-1 -1.5v-1z" />
</svg>
