<?xml version="1.0" standalone="no"?>
<!DOCTYPE svg PUBLIC "-//W3C//DTD SVG 1.1//EN" "http://www.w3.org/Graphics/SVG/1.1/DTD/svg11.dtd" >
<svg xmlns="http://www.w3.org/2000/svg" xmlns:xlink="http://www.w3.org/1999/xlink" version="1.1" viewBox="-10 0 266 256">
   <path fill="currentColor"
d="M83 175v13v13.5t2 12.5t5 12q1 0 2.5 2.5t4.5 4.5t5.5 4t4.5 2h40l21 -8q6 -2 8.5 -9t4.5 -16.5t2.5 -18t0.5 -13.5v-3q0 -3 -0.5 -6t-0.5 -5v-4q-1 -4 -3.5 -8t-5.5 -8t-6.5 -6.5t-8.5 -2.5h-45q-9 0 -15 4t-9.5 10.5t-5 14.5t-1.5 15zM108 226l-1.5 -3t-0.5 -3
q0 -1 4 -5l9 -9t9.5 -9t5.5 -4q2 0 6.5 3.5t9.5 7.5t9 8t4 5q0 3 -4.5 5t-10.5 3.5t-12 2t-8 0.5q-6 0 -10 -0.5t-10 -1.5zM95 185v-3q1 -3 1.5 -8t0.5 -9.5v-7.5v-3l2 -2q3 3 7.5 6.5t8.5 8t7 9t3 8.5v2v2l-3 3l-4.5 4.5l-4.5 4.5l-3 3q-1 0 -2.5 1.5t-3 2.5t-3 2.5
t-2.5 1.5l-0.5 -0.5t-1.5 -0.5v-4t-0.5 -7t-0.5 -7t-1 -4v-3zM145 183q0 -3 2 -7.5t5.5 -9t7.5 -8.5t7 -6h1v0q2 7 2 10.5v10.5q0 2 0.5 7.5t0 10.5t-1.5 9.5t-4 6.5q-1 -1 -2 -2.5t-2.5 -3t-3 -2.5t-1.5 -2q-1 0 -2 -2.5t-2 -2.5l-7 -8v0v-1zM105 148v-1q0 -1 1.5 -1.5
t3.5 -1l4 -1t4 -0.5l3 -0.5t6.5 -1t7.5 -0.5h6h3h4t6 0.5t5.5 1t2.5 2.5q0 3 -3.5 7.5t-8.5 9t-9.5 8t-7.5 3.5h-2.5h-1.5zM45 132q0 3 1.5 3h3.5q4 0 7.5 -1.5t7 -3.5t6.5 -4t7 -4q11 -8 17.5 -15t10.5 -15.5t5 -19t1 -24.5v-4.5t-1 -7.5t-2.5 -7.5t-4.5 -3.5q-1 0 -1 0.5
v0.5q-1 0 -2.5 1.5t-1.5 2.5v50q0 1 -2 4t-4.5 7t-5 7.5t-2.5 4.5q-3 3 -9.5 7.5t-13.5 9.5t-12 8.5zM150 91q3 11 9.5 17t15.5 9t19 4t18 1q0 -5 -3.5 -7.5t-8.5 -4t-10 -2.5t-8 -3q-5 -4 -10 -8.5t-9 -8.5q0 -1 -1.5 -2.5t-2.5 -3.5t-1.5 -3.5t-0.5 -2.5v-43l-2 -1.5
t-3 -1.5v0q-2 0 -3 1t-1.5 2.5t-0.5 3v3.5v4q0 3 0.5 10t1 14.5t1 14t0.5 8.5z" />
</svg>
