<?xml version="1.0" standalone="no"?>
<!DOCTYPE svg PUBLIC "-//W3C//DTD SVG 1.1//EN" "http://www.w3.org/Graphics/SVG/1.1/DTD/svg11.dtd" >
<svg xmlns="http://www.w3.org/2000/svg" xmlns:xlink="http://www.w3.org/1999/xlink" version="1.1" viewBox="-10 0 266 256">
   <path fill="currentColor"
d="M77 249q0 2 2 2h2q2 0 4 -1t2 -4v-29q0 -8 4 -10.5t9.5 -4t11.5 -3t10 -6.5q1 -1 1.5 -2l0.5 -1q0 -1 -1 -1.5t-2 -0.5h-1l-9 4.5t-9 2.5h-1l-2 -0.5l-2 -0.5q1 -4 3 -7.5t5.5 -6.5t6.5 -5.5t5 -4.5v-5q-4 0 -8 3t-7 7t-6.5 8t-5.5 7h-2q-4 0 -5 -2.5t-1 -5.5t1.5 -6.5
t3.5 -6.5t4.5 -5.5t3.5 -4.5q3 -4 6 -5.5t6.5 -2t7.5 -0.5h8q2 0 3 0.5t2 2.5v27q0 1 0.5 3t1.5 3v63q2 0 4.5 -0.5t3.5 -3.5v-11q0 -18 -1.5 -35t-1.5 -35v-12q0 -1 0.5 -1.5l0.5 -0.5q7 -1 13 -1h13q8 0 16.5 0.5t17.5 0.5q1 0 2 -1.5t1 -3.5t-4 -4t-6 -2h-3.5t-3.5 1
t-8.5 1t-13 0.5t-12.5 1t-8 0.5h-3q-2 0 -2.5 -1t-0.5 -3q0 -3 3 -4.5t7.5 -2.5t9.5 -1.5t10 -2.5t8 -6t3 -10v-1v-2.5t-0.5 -3.5t-0.5 -3.5v-2.5q-2 -3 -6 -3q-1 0 -2 0.5t-1 1.5q0 7 -0.5 12.5t-3 9t-7 5t-12.5 1.5h-6l-2 -2v-13q0 -1 1.5 -1.5t3.5 -2l4 -3t2 -3.5
q0 -1 0.5 -3t1 -4.5t1 -4.5t0.5 -3q1 -1 3.5 -2t3.5 -2q21 1 41 -1q1 -1 1.5 -2t0.5 -2q0 -5 -6 -5q-4 0 -8.5 1t-8.5 1h-3h-3q-2 -2 -2.5 -3.5t-0.5 -3.5q0 -3 0.5 -5t1.5 -5q-2 -3 -5 -3h-1l-1.5 1t-1.5 2v15q0 2 -3 3.5t-4 1.5l-1.5 -0.5t-2.5 -1.5q-1 0 -1.5 -0.5
l-0.5 -0.5v-26h-1h-2t-2 0.5t-1 1.5v28h-19l-0.5 -0.5l-0.5 -0.5q-1 -1 -1.5 -2.5t-0.5 -2.5v-24q0 -1 -1 -1h-2h-2t-1 3v27l-1 0.5l-1 0.5h-3h-3h-1.5h-1.5l-1 -3v-15q0 -1 -0.5 -2t-1 -1.5l-1 -1l-0.5 -0.5q-4 0 -5 2t-1 5q0 4 1 6.5t1 6.5v2t-2 2q-1 0 -4.5 0.5l-7 1
t-6.5 0.5h-5h-3h-3.5t-3 1t-1.5 3q0 3 3 4h2h3q10 0 20.5 -2t20.5 -2h3t2 1l3 19q0 2 2 2.5t4.5 1.5t4.5 3.5t2 8.5q0 2 -0.5 3t-1.5 2h-9q-9 0 -13.5 -2t-6.5 -5t-2.5 -7t-0.5 -7t-1.5 -5t-4.5 -2t-3 1.5v3.5q0 11 2.5 18t7 10t12.5 3t19 -1q2 2 2.5 3.5t0.5 3.5
q0 1 -0.5 2.5t-2.5 0.5q-10 0 -18 1.5t-17 1.5q-6 0 -12 -0.5t-11 -0.5q-3 0 -4.5 0.5t-2.5 3.5q-1 2 0 3t2 1.5t3 1t3 0.5q5 0 10.5 -1t11.5 -1q0 4 -2.5 7t-5.5 6.5t-5.5 7t-2.5 8.5q0 3 1.5 5t3.5 4l3.5 3.5t1.5 4.5v1v0l-0.5 1.5t-1.5 3t-1.5 2.5t-0.5 2q-3 7 -3 15.5
v16.5v3.5v3.5zM178 241l2 2l2 2h1q1 0 2.5 -1.5t2 -3.5l1 -4t0.5 -3q0 -4 -1.5 -8l-3 -8l-3 -8t-1.5 -9q0 -2 1 -4.5t2.5 -4.5t2 -4t0.5 -5q0 -5 -2 -10t-6 -8.5t-9 -5t-10 -1.5q0 3 3 5.5t6.5 5t6.5 5.5t3 8q0 3 -1 5.5t-4 2.5t-5 -3t-5 -6.5t-6.5 -6t-7.5 -2.5h-2.5
t-1.5 2q2 2 5.5 4t6.5 4.5t5.5 5t2.5 5.5q0 4 -2 5t-5 1q-4 0 -8.5 -2.5t-8.5 -2.5q0 3 1.5 5t4.5 3.5t6 2t5 0.5q3 0 5.5 -1t5.5 -1t5 5.5t2.5 12t1 12.5t0.5 9zM118 94q0 -3 1.5 -5t4 -3t5.5 -1h6h3t3 1v3v3q0 6 -2.5 8.5t-9.5 2.5q-5 0 -8 -2t-3 -7zM63 43q0 1 1 2t2.5 1
h3.5h2h10.5t13 -1t11.5 -3.5t5 -7.5q1 -1 1 -4v-6t0.5 -6t0.5 -4q-1 -4 -2 -5t-4 -1h-2.5h-1.5l-0.5 1t-1.5 2v0v1q1 1 1 4t0.5 5.5t1 5.5t0.5 4q-2 4 -7 5t-8 2h-4.5h-7.5h-6.5h-4.5l-2 2l-2 2v1zM148 36q2 3 5 4.5t6 1.5h36q2 0 2.5 -1.5t0.5 -2.5q0 -2 -1.5 -3t-3 -1.5
t-3.5 -1t-3 -0.5q-5 0 -9.5 1.5t-9.5 1.5q-6 0 -9 -2t-4 -5t-0.5 -6.5t0 -7t-2 -5.5t-6.5 -2q0 7 0.5 15t1.5 14z" />
</svg>
