<?xml version="1.0" standalone="no"?>
<!DOCTYPE svg PUBLIC "-//W3C//DTD SVG 1.1//EN" "http://www.w3.org/Graphics/SVG/1.1/DTD/svg11.dtd" >
<svg xmlns="http://www.w3.org/2000/svg" xmlns:xlink="http://www.w3.org/1999/xlink" version="1.1" viewBox="-10 0 266 256">
   <path fill="currentColor"
d="M55 247q0 2 1 3.5t2 1.5t1 -0.5v-0.5l8 -7l0.5 -4t0.5 -10.5v-14.5t0.5 -16t0.5 -15.5v-12.5v-8v-14v-14v-8q0 -3 0.5 -11t1 -16.5t1 -16.5t0.5 -11q1 -4 1 -9.5v-11.5q0 -7 0.5 -12t3.5 -6q5 -5 12.5 -7t15.5 -2.5t16 -0.5h15h11t16 0.5t14.5 2.5t6.5 7l0.5 3t0.5 6.5
t0.5 6.5t0.5 4l0.5 2l0.5 2v4q0 7 -0.5 13.5t-0.5 12.5v2q0 4 0.5 12.5t1 19.5t1 23t1 23t0.5 19.5v13.5q1 0 1.5 3t0.5 4v4q0 2 0.5 6.5t1 10t1 10.5t0.5 7h2h1q4 0 5 -2.5t1 -5.5l-0.5 -2l-0.5 -2q-4 -25 -5.5 -49.5t-2.5 -49t-1 -49v-49.5q0 -10 -6 -15.5t-16 -5.5h-67
q-1 0 -4.5 0.5l-7 1l-7 1t-4.5 0.5q-11 3 -15 11t-5.5 19t-1 21.5t0.5 17.5q-4 40 -5 80t-1 80zM108 247q0 3 4 3q3 0 5 -3.5t2 -6.5v-2v-5v-6v-2q0 -2 0.5 -7.5t0.5 -12.5t0.5 -15t0.5 -15v-12.5v-7.5v-28q1 -3 3 -3h4t4.5 0.5t4.5 2.5q1 22 1.5 44t1.5 44q0 1 0.5 2.5
t1.5 2.5v19l0.5 1.5l0.5 1.5h1h1l5 -5v-4v-4q0 -8 -2 -17t-2 -18q0 -6 3 -9t8 -3t7.5 1.5t3.5 4t1.5 6.5t0.5 9v5.5t0.5 9.5t1 9.5t0.5 6.5h0.5h0.5q4 0 5 -5v-4v-3v-11.5t-0.5 -15.5t-3 -13.5t-7.5 -5.5h-22v-21l1 -3q7 -1 12.5 -2t9 -3.5t5.5 -7.5t2 -12q0 -3 -3 -3
t-4 2.5t-1.5 6t-2.5 6.5t-7 4l-2 -0.5t-4 -0.5h-4h-2v-17l1.5 -1.5t3.5 -2.5q7 -7 9.5 -17t2.5 -19v-9t-0.5 -8.5l-1 -9t-1.5 -10.5q-1 -5 -4.5 -7t-8 -2.5t-9 -0.5h-8.5h-7t-6.5 0.5t-6.5 2l-7 3.5q-1 0 -2 1l-2 2t-1.5 2.5l-0.5 1.5v42q2 2 2 5t-0.5 6t-0.5 6.5t2 5.5
q1 2 3 3l4 2t4 2.5t3 3.5v3v3v3t-0.5 4.5t-1.5 4t-3 1.5h-14q-1 0 -1.5 -3t-1.5 -7t-2 -7.5t-3 -3.5q-3 0 -3 1.5v3.5l0.5 4l1 8t1.5 7.5t2 3.5h22l2 2q1 2 1 2.5v2.5q0 7 -1 10t-4 4t-7 1.5t-10 1.5q-1 1 -2 1.5l-1 0.5q-4 5 -5 11.5t-1 13.5t0.5 14t0.5 11h7q0 -4 0.5 -9
t0.5 -10.5t0.5 -11t1.5 -9.5q0 -3 2 -5t4 -2h2.5t4 0.5t4.5 0.5h3v4v7v6v4v4t-0.5 6.5t-0.5 7v4.5l-2.5 10t-1.5 11zM105 104v-3q0 -2 2 -2q11 -2 20 -2.5t18 -0.5h6q1 0 1.5 0.5t0.5 1.5q0 7 -3 10.5t-7 5.5t-9 2h-11h-7.5t-5.5 -1t-3.5 -3.5t-1.5 -7.5zM104 75
q11 -1 21.5 -3t21.5 -2h3t3 2v5q0 3 -0.5 6t-2.5 4q-3 1 -8 1.5t-11.5 1t-11.5 0.5t-7 1h-4h-3q-1 0 -1 -2v-14zM102 60q0 -5 3.5 -8t9 -4.5t10.5 -2t8 -0.5h7q4 0 6.5 1t4.5 3t2 6v4t-2 4q-6 0 -10.5 0.5t-8.5 0.5h-8h-9h-3h-3h-3h-2q-1 0 -1.5 -1.5l-0.5 -1.5v-1z" />
</svg>
