<?xml version="1.0" standalone="no"?>
<!DOCTYPE svg PUBLIC "-//W3C//DTD SVG 1.1//EN" "http://www.w3.org/Graphics/SVG/1.1/DTD/svg11.dtd" >
<svg xmlns="http://www.w3.org/2000/svg" xmlns:xlink="http://www.w3.org/1999/xlink" version="1.1" viewBox="-10 0 266 256">
   <path fill="currentColor"
d="M53 215q-1 2 -2.5 7t-3 10.5l-3 11t-1.5 8.5q4 0 7 -3.5t5 -8.5t3.5 -12t3 -13.5t2.5 -12t2 -8.5q1 -5 2.5 -10.5t1.5 -10.5v-1l-1 -3l-1 -3q0 -1 1 -2.5t1 -2.5t0.5 -4t1.5 -4v-30q0 -16 -1 -33t-1 -34v-9q0 -4 1 -8t3 -7t7 -4q1 0 4 -1t6.5 -1.5t6.5 -1.5t4 -1l4 -0.5
t9.5 -1l11 -1t9.5 -0.5v0q11 0 23.5 0.5t23.5 2.5q3 2 4.5 5.5t1.5 7.5v119v4t0.5 7t0.5 7t1 5q0 3 0.5 8.5t1.5 11.5t1.5 11t0.5 7q1 4 2 10t3 12t5 10t9 4q0 -5 -2 -8.5t-3 -8.5q0 -1 -0.5 -5.5t-1.5 -9.5t-1.5 -9.5t-0.5 -5.5q-1 -1 -2 -4.5t-2 -4.5q0 -3 -0.5 -10
t-1 -15t-1 -15.5t-0.5 -9.5v-20q0 -18 1 -35.5t1 -35.5v-4v-8v-7v-5q1 -8 -4.5 -12.5t-12.5 -6.5h-5h-9h-9h-5h-8h-8.5h-8.5h-4h-3t-6 0.5l-6 1t-4 0.5q-5 0 -12.5 1t-14.5 3t-12.5 5.5t-6.5 10.5q-2 7 -2 12.5v13.5v4v4.5v4.5v2l0.5 2t0.5 4.5t0.5 4l0.5 1.5q0 2 -0.5 9.5
t-0.5 15.5t-0.5 15t-0.5 9q0 5 0.5 10.5t0.5 11.5t-0.5 12t-3.5 10zM128 163q0 1 0.5 3.5t0.5 5.5t0.5 6t0.5 4q0 2 1 8t2 13.5t2.5 15.5t4 15t5 11t6.5 4q3 0 3 -3q0 -4 -2.5 -8t-3.5 -8q-4 -12 -6 -25.5t-2 -26.5v-3v-4.5v-4.5v-3q1 -1 2 -1.5l1 -0.5q3 0 6.5 5t7 12.5
t7 16t7.5 15.5t7.5 12t6.5 5q1 0 2 -0.5t1 -1.5t-2.5 -6.5t-6 -13.5t-8 -16.5t-8 -16.5t-6 -13t-3.5 -6q-3 -3 -6.5 -4.5t-5.5 -4.5q0 -7 0.5 -15.5t-1 -16.5t-5 -15.5t-10.5 -12.5v-1v-1q0 -2 4 -3.5t9.5 -2t12.5 -1t13 -1t10 -1t4 -2.5l-0.5 -0.5l-0.5 -0.5
q0 -1 -0.5 -2.5l-0.5 -1.5h-28q0 -6 1 -10.5t4 -10.5q1 -2 3.5 -2.5t5 -0.5t4.5 -1t2 -3v-1l-0.5 -0.5l-0.5 -0.5q-1 0 -3.5 -0.5t-4.5 -0.5h-5h-3q-17 0 -32 3t-31 4q-2 1 -2.5 2.5t-0.5 2.5h24q1 0 2 2t1.5 4.5t0.5 5v3.5q0 3 -0.5 5t-2.5 5q-1 0 -4.5 0.5l-7 1t-6.5 1
t-4 0.5q-2 0 -4 1t-3 2l0.5 0.5t1.5 0.5q3 2 8 2.5t9.5 0.5t8.5 -0.5t7 -0.5l2 2v1q0 5 -3 9.5t-7 8t-9 7t-9 7t-7 6.5t-3 7q6 0 12.5 -5t12 -10.5l10.5 -10.5t7 -5q4 0 4.5 3.5t0.5 6.5q0 5 -3.5 10t-8.5 10t-11 9t-11 8t-8.5 6.5t-3.5 3.5v2l0.5 0.5t1.5 0.5v0q4 0 6 -1
t3.5 -2.5t3.5 -3t4 -2.5l2 -1t4 -2.5t3.5 -2t2.5 -1.5q1 0 2.5 -2t3.5 -4l3.5 -3.5l2.5 -2.5q0 -1 2 -1.5t3 -0.5l0.5 0.5t0.5 1.5q1 1 1.5 3.5l0.5 2.5v6q0 2 -0.5 4t-2 4t-4.5 3q-7 6 -12.5 12t-10 13.5t-8.5 15.5l-8 16q-1 2 -2.5 4t-3 4.5t-2.5 5t-1 5.5q0 1 1 1h2
q2 0 6 -5t8 -12.5t8.5 -16.5t8.5 -16.5t8 -13t6 -5.5q1 0 1.5 0.5t0.5 1.5zM117 49q0 -1 2 -2.5t3 -1.5h18q3 0 3.5 1t0.5 2q0 10 -3.5 16t-13.5 6q-1 0 -2.5 -3t-3 -6.5l-3 -7t-1.5 -4.5z" />
</svg>
