<?xml version="1.0" standalone="no"?>
<!DOCTYPE svg PUBLIC "-//W3C//DTD SVG 1.1//EN" "http://www.w3.org/Graphics/SVG/1.1/DTD/svg11.dtd" >
<svg xmlns="http://www.w3.org/2000/svg" xmlns:xlink="http://www.w3.org/1999/xlink" version="1.1" viewBox="-10 0 266 256">
   <path fill="currentColor"
d="M195 34v13v20v24v24v20v14q0 1 0.5 4.5t0.5 7.5t0.5 8t0.5 5v7.5t0.5 15.5t1.5 18.5t3 17.5t3.5 13t4.5 5q2 0 2 -2v-3q0 -7 -1 -15t-2 -16.5t-2.5 -16.5t-3.5 -16v-153q0 -6 -3 -10t-9 -4h-1q-13 2 -25.5 3.5t-26.5 1.5q-12 0 -23.5 -1.5t-23.5 -1.5h-17q-4 1 -10.5 3
t-8.5 7v17q0 18 1 35.5t1 36.5v8t-0.5 10t-0.5 9v4v8.5t-1 14.5t-1.5 15t-0.5 11q-1 6 -2.5 12l-3 12t-2.5 11.5t-1 10.5q5 0 7.5 -3t4 -7t2 -9t0.5 -9l7 -71q1 -2 1 -5.5t-0.5 -7t-0.5 -7t3 -5.5v-4v-7.5v-6.5v-5q0 -12 -1 -24t-1 -25v-14q2 -3 4.5 -5t5.5 -2h22
q10 0 19.5 1t19.5 1q9 0 17.5 -1t17.5 -1h15q3 0 5.5 3t2.5 6zM155 235l1 2.5t2 2.5t2.5 -3.5t2.5 -9t2.5 -12t2 -12.5t1 -10t1.5 -6q0 -3 2.5 -8l5 -10t4.5 -9.5t2 -6.5h-3t-3 1h-1t-2 0.5t-2 0.5h-1q-3 0 -5 -3.5t-2 -6.5v-4t0.5 -8t1 -7.5t1.5 -4.5l15 -3v-1
q0 -2 -2 -3.5t-4.5 -2t-5.5 -0.5h-3q1 -13 0.5 -26t-2.5 -26v-4t-0.5 -4.5t-1.5 -4t-3 -1.5q0 2 -0.5 8.5t-0.5 13.5v13.5v8.5q0 1 -0.5 3t-0.5 4.5t-0.5 5t-0.5 3.5l0.5 3t1.5 3q-1 1 -2 1.5t-2 0.5l-2 0.5t-4 0.5t-4 0.5t-3 0.5l-0.5 0.5l-0.5 0.5v1v1q0 2 1 2h12l0.5 0.5
l0.5 0.5q1 1 1.5 2.5l0.5 1.5v22q0 5 -3 6.5t-7 1.5t-7 -1t-7 -1q0 3 1 5t3 4l4 4t3 4q4 7 6 15t3.5 16.5t1.5 17.5q0 8 -1 16zM73 208q0 2 2 3.5t3 1.5h48q1 0 2 -1.5t2 -1.5v-1.5v-0.5q0 -2 -3.5 -2.5t-8 -0.5t-8.5 -1t-4 -5l0.5 -1l1 -2t0.5 -2v-2v-11q1 -2 3.5 -2.5
t4.5 -1.5l4 -2t2 -3v-2q-1 0 -3.5 0.5t-5 0t-4 -1.5t-1.5 -4q0 -4 1.5 -10t3.5 -11.5t5 -11t5 -9.5q1 -2 2.5 -2.5t2.5 -1.5l2 -2t1 -3q-12 0 -21 0.5t-20 1.5q-1 1 -4.5 1.5t-4.5 2.5q5 2 8.5 7.5t5.5 12t2.5 13t0.5 11.5v4.5t-3 2.5h-17l-0.5 1t-1.5 2v1v0l1.5 1.5
l0.5 0.5h17q2 0 3 2.5t1.5 5.5t0.5 6v3v4v3l-3 5h-23l-0.5 0.5l-0.5 0.5v1zM155 174v-3.5v-3.5q2 -4 7 -4h8q0 2 -0.5 6.5t-2 8.5t-3.5 6.5t-4 2.5q-3 0 -4 -1.5t-1 -3.5v-5v-3zM96 130q0 -3 2.5 -4.5t5.5 -2.5t6 -1h5q0 2 -1 5.5t-2.5 7t-4 6t-4.5 2.5t-3.5 -1t-2 -3
t-1 -4.5t-0.5 -4.5zM84 94q2 3 3.5 6t3.5 5q2 -1 2 -2v-2q0 -4 -1 -7t-1 -7q0 -9 2 -17t2 -16q0 -2 -0.5 -5.5t-1.5 -7t-3 -5.5t-6 -2v3q0 5 2 9.5t2 9.5q0 8 -2 14t-2 14v10zM103 74v7t0.5 8t2 7.5t4.5 4.5q1 0 1.5 -1t0.5 -2q0 -6 -1 -11.5t-1 -11.5t1.5 -11t1.5 -10v-6
t-1 -5.5t-2.5 -4t-5.5 -1.5q0 3 1 5.5t1 5.5q0 7 -1.5 13t-1.5 13zM123 79q0 3 0.5 7t2 7.5t4 6t5.5 2.5q0 -6 -2 -11.5t-2 -12.5t2 -14t2 -14q0 -3 -0.5 -6t-1.5 -5.5t-3 -4.5t-6 -2q0 1 0.5 3.5t0.5 3.5l0.5 3t0.5 4q0 8 -1.5 16.5t-1.5 16.5z" />
</svg>
