<?xml version="1.0" standalone="no"?>
<!DOCTYPE svg PUBLIC "-//W3C//DTD SVG 1.1//EN" "http://www.w3.org/Graphics/SVG/1.1/DTD/svg11.dtd" >
<svg xmlns="http://www.w3.org/2000/svg" xmlns:xlink="http://www.w3.org/1999/xlink" version="1.1" viewBox="-10 0 266 256">
   <path fill="currentColor"
d="M79 101q0 16 -3.5 31.5t-9.5 30.5q-1 1 -1.5 3t-1 3.5t-1 2.5l-0.5 1v45q0 2 1.5 4t2.5 4t2.5 3.5l2.5 2.5q5 6 11 9t12.5 4.5t13.5 2t15 0.5q14 0 28.5 -1t26 -6t18.5 -15t7 -28q0 -13 -4.5 -26.5t-9.5 -26.5q-1 -3 -2.5 -7t-1.5 -7v-43l0.5 -2t0.5 -3l0.5 -2t0.5 -4
t0.5 -4t0.5 -3q2 -5 5 -10t5.5 -9.5t4.5 -9.5t2 -11h-6q-3 0 -5 3q-10 20 -15.5 41t-5.5 44v1.5t0.5 3.5l1 4l0.5 2v3v2t-2 2h-3t-4.5 0.5t-4.5 0.5h-3h-4h-7h-7h-4q0 -3 0.5 -6t0.5 -7t-0.5 -8t-1.5 -7v-70q1 0 1.5 -2.5t0.5 -3.5q0 -2 -2.5 -4.5t-4.5 -2.5t-4.5 2.5
t-2.5 4.5v55q2 3 2.5 8.5t1 12t0.5 12.5v10v3v3l-4 3l-2 0.5t-5.5 0.5t-6.5 0.5t-5 0.5h-9h-8q-1 0 -1.5 -1.5t-0.5 -2.5q0 -4 1 -8.5t3 -8.5v-4v-5v-6v-3q0 -4 -0.5 -10.5t-1.5 -14.5t-3 -16t-5 -14.5t-7.5 -10.5t-10.5 -4q-4 0 -4.5 0.5t-0.5 4.5t2.5 8t6 7.5t6.5 7t5 8.5
q2 7 2.5 15.5t0.5 16.5zM74 207q0 -2 6.5 -3.5t14 -2t15.5 -0.5h10q4 0 6 2t2.5 5.5t0.5 7v7.5v2v4t-0.5 3.5t-0.5 2.5q0 3 -2.5 3h-5.5q-6 0 -14 -2t-15 -5.5t-12 -9.5t-5 -14zM138 209q0 -4 1.5 -8t6.5 -4q10 -1 18 -2t16 -1q6 0 9.5 2.5t3.5 8.5q0 9 -4.5 15t-11.5 10
t-15 5.5t-16 1.5q-3 0 -4.5 -0.5t-1.5 -2v-3.5v-6v-2.5t-0.5 -5.5t-1 -5t-0.5 -3zM73 181q0 -2 0.5 -6l1 -8t2 -7t3.5 -5q10 -2 21 -3.5t21 -1.5q3 0 4 3t1 5v2v4.5v5.5v4v3v4.5v4.5v3q-12 2 -20.5 2h-19.5h-11l-2 -2l-0.5 -3.5t-0.5 -4.5zM136 158q0 -2 0.5 -4l0.5 -2l1 -2
q2 0 5.5 -0.5t7.5 -1t7.5 -1t4.5 -0.5l1.5 -0.5t2.5 -0.5t2.5 -0.5l1.5 -0.5q5 1 8.5 5t5.5 9t2.5 10.5t0.5 9.5q0 2 -0.5 3t-1.5 2q-11 2 -22 3t-21 1q-4 0 -5.5 -3.5t-1.5 -8.5v-10.5v-7.5z" />
</svg>
