<?xml version="1.0" standalone="no"?>
<!DOCTYPE svg PUBLIC "-//W3C//DTD SVG 1.1//EN" "http://www.w3.org/Graphics/SVG/1.1/DTD/svg11.dtd" >
<svg xmlns="http://www.w3.org/2000/svg" xmlns:xlink="http://www.w3.org/1999/xlink" version="1.1" viewBox="-10 0 266 256">
   <path fill="currentColor"
d="M70 246q1 1 2.5 2t2.5 1t2.5 -0.5t2.5 -1.5v-9t0.5 -14t1 -17t0.5 -17t0.5 -14t0.5 -10v-5l2 -16t1 -16v-1t-0.5 -2l-1 -2t-0.5 -2v-1v0v0q1 -4 1 -10v-14.5t0.5 -13.5t2.5 -8h2.5h5t5 -0.5t2.5 -2.5t0.5 -5l0.5 -3h-16v-36q0 -2 2.5 -2.5t5.5 -1t6 -2t3 -4.5t-1.5 -3.5
t-3.5 -0.5h-1.5h-1.5q-2 0 -7 0.5t-11 1t-11 1t-7 1.5q-2 0 -3.5 1t-1.5 4l0.5 1.5t1.5 1.5h17l2 2v2v4q0 8 -0.5 15t-1.5 16q-1 3 -5 3h-8.5t-8 0.5t-3.5 5.5q0 3 1 3.5t5 0.5q3 0 7 -0.5t8 -0.5l1.5 -0.5t2.5 1.5v6q0 11 -0.5 21.5t-1.5 22.5v5q0 21 -1.5 42.5t-1.5 43.5
v27zM130 163q0 1 -0.5 2.5t-1.5 3.5t-1.5 3.5t-0.5 2.5q-1 18 -1 37.5v37.5q3 0 6 -2t5 -5q-1 -9 -0.5 -17t1 -15t1.5 -14.5t1 -16.5l2 -2t3 -1.5t3.5 -1.5t2.5 -2q9 -12 16 -25.5t15 -26.5q2 -3 2.5 -3.5t2.5 -0.5t4 1.5t3.5 3.5t2.5 4.5t1 4.5v2q-6 21 -16 40t-20 37
q-2 3 -4.5 6.5t-4.5 7l-4 7t-2 7.5q6 0 10.5 -4t7.5 -9t5.5 -11t5.5 -11l2 -3.5l4 -7l4 -7t2 -4.5q1 -1 2.5 -4l3 -6t2.5 -6t2 -4q0 -1 1.5 -5t3 -8.5t2.5 -8t2 -5.5v-1q0 -8 -2.5 -13.5t-6 -10.5t-8 -9.5t-8.5 -10.5v-2v-1q0 -7 3.5 -11.5t7.5 -8.5t7.5 -8.5t3.5 -11.5
q0 -2 -1.5 -2.5t-2.5 -0.5q-4 0 -8.5 6t-9 13.5t-7.5 15t-3 11.5l0.5 3l0.5 3q2 2 4 4.5t2 6.5v1v0q-1 1 -2 3l-2 4t-2.5 4t-1.5 3q-1 1 -3 5t-5 9t-6 11t-6 11t-5.5 8t-3.5 3t-1.5 -1.5t-0.5 -2.5q0 -10 0.5 -20t1.5 -20v-13.5t0.5 -16.5t0.5 -13.5v-5.5l2 -2l20 -5
q2 0 2 -3v-3h-22v-36q0 -3 3 -3.5t6.5 -1t6.5 -1.5t3 -4t-2 -4t-5 -1h-3q-2 0 -6.5 0.5t-10 1t-10 1t-6.5 0.5q-2 1 -3.5 2t-1.5 3q0 1 0.5 2t1.5 2q1 0 2.5 -0.5t3.5 -0.5q1 0 2.5 0.5t2.5 0.5t2 0.5l1 0.5v40h-17q-1 0 -1.5 1.5t-0.5 2.5t0.5 2t1.5 2h2.5h3.5h4h2
q1 0 2 0.5t2 0.5v3v4.5v4.5v3q0 16 -1 32.5t-1 33.5v1l0.5 1t0.5 2.5t0.5 3z" />
</svg>
