<?xml version="1.0" standalone="no"?>
<!DOCTYPE svg PUBLIC "-//W3C//DTD SVG 1.1//EN" "http://www.w3.org/Graphics/SVG/1.1/DTD/svg11.dtd" >
<svg xmlns="http://www.w3.org/2000/svg" xmlns:xlink="http://www.w3.org/1999/xlink" version="1.1" viewBox="-10 0 266 256">
   <path fill="currentColor"
d="M189 190q-2 6 -4.5 12t-4.5 13v3t-0.5 6l-1 6t-1.5 4q-2 5 -3.5 8.5t-1.5 8.5q7 0 11 -4.5t6 -11t3.5 -13.5t2.5 -12q4 -22 7.5 -44t3.5 -44v-17q-2 -4 -8 -6l-12 -4t-10 -4.5t-4 -6.5q0 -14 3.5 -26t8.5 -24v-2q0 -2 -3 -4t-5 -2h-2.5t-1.5 1q-3 7 -5.5 15.5t-3.5 17
l-2 17t-1 14.5q1 2 2.5 3l3 2t2.5 2t1 3q0 1 -0.5 2t-0.5 2l-12 47q-3 2 -4 6t-1 8v8q0 5 -1 8l-4 10l-4 10t-3.5 10.5t-1.5 10.5q0 2 0.5 3.5t3.5 1.5q4 0 7.5 -9t6.5 -22.5t6.5 -29.5t7 -29.5t7.5 -22.5t9 -9q6 0 10 4.5t4 10.5v2v3.5t-0.5 5t-0.5 5v2.5q-1 3 -2 10.5
t-2.5 15.5t-2.5 15t-2 10zM63 155h-1h-2t-2 0.5t-1 1.5v54q0 3 1 5t3 3.5t4.5 2.5t5.5 1h34q3 0 7 -3.5t5 -6.5q0 -2 1 -7.5t2 -11.5t1.5 -11t0.5 -8v-8v-8q0 -2 -1.5 -2h-2.5q-3 0 -3.5 0.5t-0.5 3.5q-1 0 -1.5 2.5l-1 5l-1 5t-0.5 3.5q-1 1 -2.5 1.5t-3.5 0.5
q-5 0 -8 -1.5t-3 -6.5t0.5 -9t1.5 -10q3 -5 7.5 -6.5t9.5 -1.5q4 0 8.5 0.5t8 -1.5t5.5 -6.5t2 -14.5v-6q0 -3 -0.5 -6.5t-1 -6.5t-1.5 -5q-4 -5 -9 -7t-8.5 -4.5t-6.5 -6t-3 -10.5q0 -1 0.5 -2.5t0.5 -2.5l3 -4h26q2 0 3.5 -2t1.5 -4q0 -1 -0.5 -2t-3.5 -1h-23
q-3 0 -4.5 -2t-1.5 -4v-2l2 -18q1 -1 2 -1.5t2 -0.5l2.5 -0.5t5 -0.5h4.5h3q2 -1 2 -3v-3t-1 -3t-4 -1t-11.5 0.5t-17.5 1t-17 2t-9 2.5q-7 5 -10.5 12.5t-4.5 16t-1 17v15.5v12.5t1 12.5t5 10.5t11 5.5h14h11t11 -1q0 -1 0.5 -1.5l0.5 -0.5q0 -2 -2 -4t-4 -2h-27
q-4 0 -6 -5t-2.5 -11t-0.5 -11.5v-7.5v-12q1 -2 4 -2.5t6.5 -1t6.5 0l3 0.5h5h4l2 2v4.5v7.5v7.5t2 6.5q1 0 4 1.5l6 3l6 3t4 2.5q3 1 4.5 4.5t1.5 8v8.5v7v8l-35 3l-2 2.5t-3 4.5l-1 1.5l-1 1.5v30h-12l-3 -4v-18q0 -1 -1 -1.5t-2 -0.5h-2h-1zM67 197v-7q2 -2 6 -3t8.5 -1
h9h7.5h7q1 2 3 4t2 4q0 9 -4 15t-14 6q-6 0 -10.5 -0.5t-8 -2.5t-5 -5.5t-1.5 -9.5zM71 50q-2 -1 -2 -2v-2q0 -11 6.5 -15.5t15.5 -4.5h4h3q2 4 2 8.5v8.5v4v3l-2 2h-7h-10t-10 -2z" />
</svg>
