<?xml version="1.0" standalone="no"?>
<!DOCTYPE svg PUBLIC "-//W3C//DTD SVG 1.1//EN" "http://www.w3.org/Graphics/SVG/1.1/DTD/svg11.dtd" >
<svg xmlns="http://www.w3.org/2000/svg" xmlns:xlink="http://www.w3.org/1999/xlink" version="1.1" viewBox="-10 0 266 256">
   <path fill="currentColor"
d="M98 249l1.5 1.5t1.5 0.5t2.5 -0.5t1.5 -1.5v-60q0 -1 2.5 -2t6 -1.5t6.5 -0.5h4v43q0 3 0.5 6t1.5 5.5t3 4.5t5 2q0 -7 -2 -13.5t-2 -13.5q0 -8 2 -16t2 -16q0 -1 -0.5 -4.5t-0.5 -4.5q0 -4 -2 -5.5t-6 -1.5q-2 0 -4 0.5t-4 1.5t-4.5 2t-4.5 1h-1h-1v-5.5t-0.5 -7.5
t-0.5 -7.5v-5.5v-3q0 -11 0.5 -23t2.5 -23q4 -5 9.5 -9t11.5 -6l19 -21v0v0v-1q0 -1 -0.5 -1.5t-1.5 -0.5h-1q-3 0 -6.5 3.5l-8.5 8.5t-11 8.5t-13 3.5v-18l1 -0.5l1 -0.5q4 -4 7.5 -7l7 -6t7 -6.5l7.5 -7.5v-1v-1q0 -1 -0.5 -2t-2.5 -1h-1l-2 2t-4.5 3.5t-4.5 3.5t-3 2
q-2 2 -4 4.5t-5 2.5v0q-2 0 -2 -1q-1 -1 -2 -3t-1 -3v-34q-3 0 -5 2q0 1 -0.5 3.5t-0.5 5t-0.5 5t-0.5 3.5v4v6q0 2 0.5 5t0.5 4h-6q-1 -1 -2.5 -3t-3.5 -4t-4.5 -3.5t-4.5 -1.5v0l-2 2v1v1l1.5 2.5l3 5t3 4.5t2.5 3q1 2 3.5 3t4.5 2.5t4 3.5t2 5v1q0 1 -0.5 3t-0.5 4.5
t-0.5 4.5t-0.5 3t-0.5 1.5l-0.5 0.5h-1q-6 0 -10.5 -4.5t-9 -9.5t-9.5 -9.5t-11 -4.5q0 6 3 10.5t8 8.5t10.5 7t10 6.5t8 7t3.5 7.5q0 3 -3 5.5t-6.5 4.5t-7.5 4t-6 5q-7 9 -9.5 20.5t-3 24t0 25t-0.5 23.5q-1 6 -3 11t-2 11q0 4 3 4q2 0 4 -3t3 -6.5t2 -7.5t1 -6l3 -69
q1 -12 6.5 -21.5t16.5 -12.5v7.5t0.5 12t0.5 12v7.5v90zM190 162v7.5v9.5t-1 9.5t-3 7.5q0 1 -2 4t-4 5.5t-4 5.5t-3 4q-3 3 -8 7t-10.5 8t-9.5 7.5t-4 6.5q7 0 14.5 -3.5t13.5 -9t11.5 -11.5t10.5 -12q3 -4 5 -9.5t3 -11.5t1 -12v-11v-15.5t-1 -13t-2.5 -12.5t-3.5 -13
q-2 -5 -5 -9t-5.5 -8t-4.5 -8.5t-2 -10.5q0 -7 1.5 -14t4.5 -14q0 -1 1 -2.5t2 -4l2 -5t1 -4.5v-1l-0.5 -0.5t-1.5 -0.5h-1v0l-2 1q-8 12 -12 23.5t-4 26.5q0 4 1 7l2 6l2 6t1 6q0 14 -2.5 27t-6 25.5t-9 24.5t-10.5 24v0v1q0 1 0.5 1.5l0.5 0.5q7 -5 13 -16t11 -23.5t8 -25
t4 -20.5h3l0.5 1.5l1 3l1 3t0.5 2.5v2.5t0.5 3.5t0.5 3.5v2.5v3t0.5 4.5t0.5 5.5v4zM137 143q-2 0 -6 1.5t-7.5 3.5t-6 5t-2.5 6q2 0 6 -0.5t8.5 -2t7.5 -4t3 -5.5q0 -1 -0.5 -2.5t-2.5 -1.5zM142 120q-3 0 -7.5 1t-8.5 3t-7 4.5t-3 6.5q4 0 8 -1t8 -2.5t7 -4.5t3 -7z
M142 97q-5 0 -8.5 1.5t-8.5 3.5q-1 2 -4 3.5t-3 2.5v4q3 0 7 -0.5t8 -2.5t6.5 -5t2.5 -7z" />
</svg>
