<?xml version="1.0" standalone="no"?>
<!DOCTYPE svg PUBLIC "-//W3C//DTD SVG 1.1//EN" "http://www.w3.org/Graphics/SVG/1.1/DTD/svg11.dtd" >
<svg xmlns="http://www.w3.org/2000/svg" xmlns:xlink="http://www.w3.org/1999/xlink" version="1.1" viewBox="-10 0 266 256">
   <path fill="currentColor"
d="M166 230v18l0.5 0.5l0.5 0.5h1q2 0 5 -2.5t3 -4.5l5 -58q2 -2 2 -5.5v-5.5q0 -5 0.5 -12.5t1 -14.5t1 -12l0.5 -5l1 -2h2.5h2.5h2h3.5t2.5 1t1 2q0 23 -1 45t-5 45v1q0 3 0.5 5.5t3.5 2.5t4.5 -2t2.5 -6q5 -29 5.5 -58.5t0.5 -58.5v-6q-3 -6 -9 -6v22q0 3 -2.5 4.5
t-5.5 1.5q-2 0 -4 -0.5t-4 -2.5v-3.5t-0.5 -5.5t-0.5 -5.5v-3.5v-2v-2q-1 -4 -3.5 -7t-4.5 -5.5t-4 -5.5t-2 -8q0 -8 5 -12t11 -6t11.5 -2.5t5.5 -3.5v-1q-1 -1 -3 -2.5t-4 -1.5q-3 0 -9 2t-12 5t-10 7t-4 8v18q5 7 9.5 14.5t4.5 16.5v4q0 3 -2 5h-4q-5 0 -7 -2t-3 -4
t-0.5 -5t0 -5.5t-2 -4t-4.5 -1.5h-1l-0.5 0.5l-0.5 0.5q1 23 -1 47t-4 46q-3 3 -3.5 8.5t-0.5 9.5q0 1 0.5 3.5l0.5 2.5q0 2 1 2h2q2 0 3 -1.5t2 -3.5q0 -1 0.5 -6.5t1.5 -11t1.5 -10.5t0.5 -7q0 -1 0.5 -3t1.5 -2v-5.5v-7.5v-8.5v-5.5l0.5 -3l0.5 -3v-1.5v-3.5v-3v-2
q2 -2 4 -2.5t4.5 0t5 0.5h3.5q0 16 -1.5 30.5t-2.5 30.5q0 2 -0.5 8.5t-1.5 13t-2 12.5t-2 7zM50 238q0 4 3 4q2 0 4 -1l4 -2t4 -2.5t2 -2.5q1 -2 4 -6.5t6 -9.5t5.5 -9.5t3.5 -5.5t1.5 -3.5t1.5 -4.5t2.5 -3.5t2.5 -1.5q2 0 4 2t3.5 5t2.5 6t2 4t2 3l2 4t1.5 3.5t0.5 2.5
q2 3 2.5 6t1.5 5.5t3 4t6 1.5q3 0 5 -1t2 -4q0 -4 -2.5 -7.5l-5 -7t-5.5 -6.5l-5 -5q-3 -5 -6 -10.5t-4.5 -11.5t-2.5 -12t-1 -12v-2t0.5 -4.5t0.5 -4.5v-3t0.5 -3.5t0.5 -5.5t-0.5 -6t-0.5 -4l2 -1l36 -3l2 -2l-4 -3h-1.5h-3.5h-4h-4q-19 0 -37.5 1t-38.5 1l-2 2l-2 2v1
q0 3 3.5 3.5t5.5 0.5q8 0 16.5 -1.5t17.5 -1.5q2 0 3.5 1t1.5 3v43q0 7 -5.5 15.5t-13 17t-14.5 17t-9 14.5v0.5v0.5zM119 192q0 1 1 2.5t3 1.5t4.5 -2t2.5 -4v-3q0 -1 -0.5 -5.5t-0.5 -9.5t-0.5 -9.5t-0.5 -5.5v-4t-0.5 -6.5t-2 -6t-4.5 -2.5q-2 0 -3 2t-1 3v3q0 3 0.5 9.5
t0.5 13.5t0.5 13.5t0.5 9.5zM62 190v3t3 2t5 -2.5t3 -5.5t1 -6.5t1 -6.5l-2 -31q0 -2 -1.5 -2.5t-2.5 -0.5h-2t-1 1q-1 12 -2.5 24.5t-1.5 24.5zM55 33q0 6 1.5 13t1.5 14v6v9v10v5q0 5 2.5 7.5t6.5 4t8.5 2t8.5 0.5h4.5t2.5 -3t-3 -3.5t-6.5 -1t-7 -1.5t-5.5 -4
q-1 -1 -1.5 -3.5t-0.5 -5.5t0.5 -5t0.5 -3q1 0 3.5 -1t3.5 0q4 1 4.5 4t2 6t4.5 5.5t11 2.5q9 0 12.5 -2.5t5.5 -6.5t4 -7t8 -3t6 7q0 8 -1.5 11.5t-4.5 4.5t-7 2t-8 5l2 2h5q8 0 13 -1.5t7 -9.5q0 -2 0.5 -7t1 -11t1 -12.5t1 -12.5t0.5 -11t1 -7v-2q0 -3 -2 -5.5t-5 -2.5
t-3 4t0.5 9t-0.5 9t-8 4q-4 0 -5 -1.5t-1.5 -4t-1 -6t-1.5 -5.5q-1 -3 -3 -4.5t-4 -2.5t-4 -2.5t-3 -3.5t-1 -3t-0.5 -2.5t-1 -2t-2.5 -0.5q-3 0 -3.5 1.5t-0.5 4t-0.5 5t-1.5 3.5q-2 3 -4.5 5t-4.5 4t-3.5 5t-1.5 6q0 1 -2 1h-2q-6 0 -7 -3t-1 -6t-0.5 -6t-5.5 -3t-5 6z
M90 82q0 -4 1.5 -7.5t3.5 -6.5h1q2 0 3 1.5t2 3.5t1.5 4t0.5 4q0 3 -1.5 3.5t-4.5 0.5q-2 0 -4.5 -0.5t-2.5 -2.5zM103 58q0 -4 2.5 -6.5l5.5 -5.5q1 0 1.5 1.5t1 2.5t0.5 2.5v1.5v2t-0.5 4t-0.5 4t-1 2q0 2 -0.5 3t-2.5 1t-3 -1.5l-2 -3t-1 -4v-3.5zM84 58v-3.5v-3t1 -3
t3 -1.5q4 0 5 3t1 6t-1.5 7t-5.5 4q-1 0 -1.5 -1t-1 -2.5t-0.5 -3.5v-2zM119 63q0 -5 1.5 -6.5t5.5 -1.5t5.5 0.5t1.5 3.5q0 4 -3 5.5t-7 1.5q-3 0 -3.5 -0.5t-0.5 -2.5zM67 58q0 -6 7 -6q4 0 4 1.5v4.5v5.5t-4 1.5q-7 0 -7 -7zM92 37q0 -4 4 -5.5t6 -1.5q3 0 3.5 2t0.5 4
q0 3 -1.5 6t-4.5 3t-5.5 -2.5t-2.5 -5.5z" />
</svg>
