<?xml version="1.0" standalone="no"?>
<!DOCTYPE svg PUBLIC "-//W3C//DTD SVG 1.1//EN" "http://www.w3.org/Graphics/SVG/1.1/DTD/svg11.dtd" >
<svg xmlns="http://www.w3.org/2000/svg" xmlns:xlink="http://www.w3.org/1999/xlink" version="1.1" viewBox="-10 0 266 256">
   <path fill="currentColor"
d="M71 218v2v6t0.5 9t0.5 9.5v6.5h2q2 0 3 -1.5t2 -3.5q1 -9 1.5 -18t1.5 -17.5t2.5 -17.5t5.5 -17q1 -5 4 -9.5t5.5 -9t4 -9t1.5 -9.5q0 -8 -2 -13.5t-5.5 -11t-5.5 -11.5t-2 -15v-2t1 -3q2 0 6.5 -0.5t9.5 -2t8.5 -2.5t3.5 -2v0q0 -1 -0.5 -1.5l-0.5 -0.5l-22 -3
q-1 0 -1.5 -2t-0.5 -3q0 -5 1.5 -10l3 -10t2.5 -10t1 -11q0 -3 -1 -7t-6 -4h-1l-1 1t-2 1l-4 4l-6 6l-6 6l-4 4q-1 0 -3 2t-4.5 3.5t-4.5 3t-2 2.5q-2 1 -3 2.5t-1 3.5q5 0 9.5 -2.5t8.5 -6t7.5 -6t7.5 -2.5q0 9 -1 16.5t-2 17.5q-1 3 -6 3.5t-11 0.5q-5 0 -9.5 0.5
t-4.5 3.5v1q0 1 1 2.5l1 1.5h25l1 2q0 5 0.5 10t1 9t1 8.5t2.5 9.5q1 3 2.5 5t3.5 4t3.5 4.5t1.5 5.5q0 5 -2.5 10t-5.5 10.5t-6.5 10.5t-4.5 8q-1 4 -2.5 9t-2 10.5t-1 10t-0.5 8.5zM189 158q0 7 -4 16t-10 17.5t-12.5 16t-11.5 12.5q-3 2 -10 6t-15 8.5t-14 9.5t-6 8
q4 0 8.5 -1.5t8.5 -4t7.5 -5t7.5 -4.5q12 -7 24 -16t21 -20t15 -24.5t6 -28.5t-4.5 -24.5t-11.5 -14.5t-15 -7.5t-15 -4.5t-11.5 -3.5t-4.5 -5.5q0 -6 4 -8t10 -2.5t13 -0.5t13 -1.5t10 -6.5t4 -15q0 -6 -4.5 -8.5t-10.5 -4t-12 -1.5t-9 -1q-1 0 -4 -1l-6 -2l-6 -2t-4 -1
q-4 -1 -6 -4.5l-4 -7t-3.5 -6t-3.5 -2.5t-2 2v4q0 11 4.5 17t11 8.5t14.5 3.5t15 2t11.5 2.5t4.5 6.5t-4 6.5t-9 2.5t-11.5 1t-11.5 2t-9 7t-4 13q0 4 2.5 6t2.5 6q0 1 -1 3t-2.5 3.5t-3 3.5t-2.5 3l-13 12v2q6 0 11 -3.5t9.5 -7l9 -7t10.5 -3.5q2 0 4.5 1t2.5 4t-1.5 5
t-4 4.5l-4.5 4.5t-2 4l-3.5 3.5l-5.5 5.5l-5.5 5.5t-3.5 2.5q-1 2 -3.5 3t-4.5 2.5t-3.5 3t-2.5 4.5h2h1q8 0 16 -6.5t15 -14.5t12.5 -14.5t8.5 -6.5q4 0 8 2.5t4 6.5q0 3 -3.5 8t-8 10t-8.5 9.5t-6 6.5l-3 3t-4 3.5t-3.5 3.5t-2.5 3q-5 4 -11 8t-12 7t-12.5 6.5t-12.5 7.5
q-2 1 -2 4h4l37 -18q2 -4 7 -6t8 -3l33 -33h0.5h0.5h0.5h0.5l0.5 1l0.5 1v7z" />
</svg>
