<?xml version="1.0" standalone="no"?>
<!DOCTYPE svg PUBLIC "-//W3C//DTD SVG 1.1//EN" "http://www.w3.org/Graphics/SVG/1.1/DTD/svg11.dtd" >
<svg xmlns="http://www.w3.org/2000/svg" xmlns:xlink="http://www.w3.org/1999/xlink" version="1.1" viewBox="-10 0 266 256">
   <path fill="currentColor"
d="M121 247q0 1 1 3t3 1q3 0 4.5 -2t2.5 -4t1 -5v-5v-4.5t0.5 -7.5t0.5 -7.5v-4.5q2 -2 5 -3.5t6 -2t6 -0.5h5q12 -2 19.5 -6.5t11 -11.5t5.5 -16t3 -20q1 -12 2 -23.5t1 -24.5q0 -16 -0.5 -27t-4.5 -18t-13 -11.5t-27 -8.5q-1 0 -3.5 -0.5t-5.5 -1t-5.5 -1.5t-4.5 -1
q0 -1 -1.5 -1.5l-1.5 -0.5l-3 -21q0 -1 -1.5 -1h-2.5q-2 0 -2.5 0.5t-0.5 3.5q0 2 -0.5 5l-1 6t-0.5 6v4q-1 0 -3 0.5t-3 0.5q-2 0 -4.5 -0.5t-4.5 -1.5q-18 4 -27.5 15t-14 25t-5.5 30t-1 30v18.5t2 20t7 18t14 12.5q1 1 5 1t8.5 0.5t8.5 1t5 0.5h2q3 0 4.5 -1t1.5 -4
q0 -1 -0.5 -1.5l-0.5 -0.5q-3 0 -7 -1t-8.5 -1.5t-8.5 -1.5t-7 -2q-6 -2 -9.5 -11.5t-4.5 -21t-1.5 -23t-0.5 -17.5v-4q0 -2 0.5 -4.5t0.5 -3.5v-2q0 -2 0.5 -7t1.5 -10.5t2 -10.5t2 -7l1.5 -2.5t1.5 -3.5l0.5 -1t1 -3t1 -3t0.5 -2q3 -4 9.5 -7t14.5 -4t15 -1.5t11 -0.5h2
q2 0 5.5 0.5l7 1t6 1t3.5 0.5q12 2 19.5 6t11 10t4 14.5t0.5 21.5q0 8 -0.5 20t-2 24.5t-4 24.5t-7.5 20q-1 3 -4 4.5t-6 2.5t-6.5 1t-6.5 1q-2 1 -6 2t-7.5 2t-6.5 1.5l-3 0.5l-4 9q-1 8 -2 18t-1 18zM122 179v14l0.5 0.5t1.5 0.5v0h1q3 -1 4 -3.5t1 -5.5t0.5 -5.5
t2.5 -2.5h23l1 -1.5t2 -2.5q1 0 2 -2l1 -2v-21q0 -1 -2 -1.5l-2 -0.5q-2 0 -3 1t-3.5 2l-5 2t-6.5 1q-6 0 -8 -1t-2 -7v-2v-2q6 -1 11 -1q4 0 7.5 -1t6 -4t6.5 -10v-1q0 -2 -2 -4t-4.5 -3.5t-5 -2.5t-4.5 -1h-13h-11t-11.5 1.5t-9 4.5t-3.5 10q0 1 0.5 3.5l0.5 2.5
q1 3 3.5 4t6 1.5t6.5 0.5h5q1 0 1.5 1t0.5 2v2v2v2v2l-1 1l-1 1h-32q-1 0 -1.5 1.5t-0.5 2.5q0 2 1 2.5t2.5 0.5h3h2.5q5 0 10 -1t10 -1h7q1 3 1 4.5v3.5v3l-37 3q-1 0 -1.5 1t-0.5 2l0.5 0.5t1.5 0.5h34zM131 165q0 -2 0.5 -4t2.5 -3h4h3q5 0 6.5 0.5t2.5 1t1.5 2t2.5 2.5
q-1 3 -2.5 4t-3.5 1.5t-3.5 0.5h-4.5h-7q-2 0 -2 -2.5v-2.5zM106 126v-4q6 -3 11.5 -4.5t11.5 -1.5q2 0 5.5 0.5t6.5 1t5 2.5t2 6q0 1 -1.5 4t-2.5 3h-34q-1 0 -2 -1t-1.5 -2t-0.5 -2v-2zM127 74h-7t-10 0.5t-8.5 2.5t-3.5 5v15q0 2 4.5 3t10 1.5t10.5 1l5 0.5h7t7.5 -1
t6.5 -2.5t5 -4.5q1 0 1 -2v-3q0 -5 -3 -8t-7 -4.5t-9 -2.5t-9 -1zM103 89q0 -3 3 -4t5 -3h28q3 0 4.5 2.5t1.5 4.5q0 3 -0.5 5t-3.5 3h-11q-2 0 -6.5 0.5t-9 0t-8 -2.5t-3.5 -6zM88 64q0 3 3 3q9 0 18.5 -1.5t17.5 -1.5q7 0 14 0.5t13 0.5h10l1 -1t2 -1v-1v0v-1l-0.5 -0.5
l-1.5 -1.5q-10 -1 -21.5 -2t-22.5 -1v0v0q-1 0 -3 1l-2 1q-2 0 -5.5 0.5t-7.5 1l-8 1t-5 0.5q-2 1 -2 1.5v1.5z" />
</svg>
