<?xml version="1.0" standalone="no"?>
<!DOCTYPE svg PUBLIC "-//W3C//DTD SVG 1.1//EN" "http://www.w3.org/Graphics/SVG/1.1/DTD/svg11.dtd" >
<svg xmlns="http://www.w3.org/2000/svg" xmlns:xlink="http://www.w3.org/1999/xlink" version="1.1" viewBox="-10 0 266 256">
   <path fill="currentColor"
d="M108 192q-6 2 -8.5 4t-6.5 8q-1 1 -3.5 5t-5.5 9t-5.5 9t-3.5 5q-2 3 -5 5t-6 4.5t-5 5t-2 6.5q7 0 13 -4t11 -10t9 -12.5t8 -11.5q1 -3 2.5 -5.5t3 -4.5t4 -3.5t5.5 -1.5h18t13.5 -2t8.5 -7.5t3 -16.5q0 -1 -1.5 -2.5t-3 -2.5t-3.5 -2t-3 -2h-7t-10.5 -0.5t-10.5 -0.5
h-7q-12 -1 -17 -13q0 -1 -0.5 -3l-1 -4t-1.5 -3.5t-2 -2.5q-2 0 -2 2v2q0 6 1.5 11.5t1.5 11.5q2 3 5 4.5t6 2.5t6.5 1.5t6.5 0.5q5 0 10 -1t11 -1h4h4l3 2v12q0 1 -0.5 1.5t-1.5 0.5l-2.5 0.5t-3.5 1.5q-1 0 -5.5 0.5t-9 0.5t-9 0.5t-5.5 0.5zM169 111q0 11 2 24.5t6 27
t10 26t15 19.5q2 -1 2.5 -2t0.5 -3v-1v-1q-1 -1 -2.5 -3.5l-3 -5l-3 -5t-1.5 -3.5q-1 -1 -2 -2.5t-1 -2.5q-6 -15 -9 -32.5t-3 -34.5q0 -6 1 -11l2 -10t2 -10.5t1 -10.5q0 -7 -2 -11t-6 -6t-9 -2.5t-12 -0.5q-2 0 -7 -0.5t-10 -0.5q-6 0 -11 0.5t-7 0.5q0 -1 -0.5 -4
t-0.5 -6t-0.5 -5.5t-1.5 -3.5l-19 -19l-3 -1t-4 -2h-1v0q-1 1 -2 1.5l-1 0.5v1v0l7 7t7 9t5.5 9.5t2.5 8.5q0 3 -1.5 4.5t-4 2t-5 0t-4.5 -0.5q-5 0 -9.5 -0.5t-9.5 -0.5q-2 0 -3 1t-2 3q4 2 7 3t6.5 2t7.5 1h9l0.5 0.5l0.5 0.5v0.5v0.5q0 3 -1.5 6t-4.5 6l-5.5 5.5
t-3.5 4.5q-1 1 -2.5 3t-3 4.5t-3 4.5l-1.5 2q-5 8 -7.5 17t-5.5 18q-2 3 -3.5 5.5t-3.5 5t-3.5 5.5t-1.5 7h2l1.5 -1.5l3.5 -3.5t4 -4.5t4 -3.5q3 -4 5.5 -8.5t4 -9t3.5 -9.5t4 -9q0 -1 1 -3.5t2 -3.5q8 -11 16 -21.5t15 -21.5h18h17t16 1q1 0 2 1l1 1v8v8v6t-0.5 6.5
t-0.5 8.5q0 1 -0.5 2.5t-1 4t-1 4t-0.5 2.5zM100 132q0 2 1.5 5.5t3 6.5t4.5 5.5t6 2.5h25q5 0 8 -4t5 -9t2.5 -10t0.5 -8q0 -6 -4 -9.5t-8.5 -5.5t-8 -3.5t-3.5 -3.5v-3t1 -2h17l3 -3q0 -1 -0.5 -1.5l-0.5 -0.5q-1 0 -3.5 -0.5t-3.5 -0.5h-1q-2 0 -4.5 0.5t-4.5 0.5h-2
q-1 -1 -1.5 -2.5t-1 -3.5t-2 -4t-5.5 -4q0 1 -0.5 5t-0.5 5v3.5t0.5 5t0.5 5v3.5q-12 2 -17.5 10t-5.5 20zM110 133q0 -1 0.5 -2t1.5 -2q8 1 16 -0.5t16 -1.5h1l1 1l1 1l-2 12q-1 1 -4 1.5t-7 1.5t-7 1h-3q-5 0 -9.5 -3t-4.5 -9zM112 119q0 -3 1.5 -4.5t4.5 -3t6 -2t5 -0.5
q4 0 6.5 1t7.5 2q1 1 2 3t1 3v1q0 1 -4 1.5t-8.5 1t-9.5 0.5h-6h-2h-3t-1 -1v-2z" />
</svg>
