<?xml version="1.0" standalone="no"?>
<!DOCTYPE svg PUBLIC "-//W3C//DTD SVG 1.1//EN" "http://www.w3.org/Graphics/SVG/1.1/DTD/svg11.dtd" >
<svg xmlns="http://www.w3.org/2000/svg" xmlns:xlink="http://www.w3.org/1999/xlink" version="1.1" viewBox="-10 0 266 256">
   <path fill="currentColor"
d="M116 13q-7 0 -15 0.5t-14 0.5q-9 0 -15.5 1.5t-12.5 4.5l-10 9q-7 14 -5 28q2 17 -2 30l2 106q1 7 1.5 13t0.5 12q0 13 9 22q5 3 10 4.5t10 2t10.5 0.5t9.5 1l73 2q5 0 9.5 0.5t10.5 0.5q10 0 17 -4q2 -5 -2 -7t-8 -2q0 -3 0.5 -9t0.5 -13q0 -8 -0.5 -14t-0.5 -10v-18
l11 -11q8 -14 7 -30q-2 -17 -15 -27l-24 -8l1 -32q5 -1 17 0t20 -3q2 -10 -15 -8q-4 1 -7.5 1h-6.5q-6 0 -8 -1q-1 -1 -1 -11q0 -9 -3 -15q-6 1 -6.5 4t-0.5 8v42v14q-2 0 -9 1q-8 0 -12 2q-1 6 2.5 7.5t8.5 1.5t10.5 0.5t10.5 0.5q12 0 20 8q4 11 6 22q1 13 -7 21
q-3 -1 -4 -4l-2 -6t-2.5 -6t-3.5 -6q-5 -1 -10 -3t-10 -3q-13 -2 -22 3q0 8 14 8t22 5l4 8l1 9l-8 1q-4 1 -8 1h-9q-8 0 -14 4q1 8 14 8h10q6 0 9 -1l8 -1l1 12q1 11 1 24q0 12 3 23l1 1h-31l-72 -1q-5 0 -8.5 -0.5t-6.5 -1t-6 -2t-6 -4.5q-6 -17 -4 -36q1 -17 -2 -35v-55
l2 -46q2 1 4 1h4h5q2 0 3 1l-1 40q-1 11 -1.5 22.5t-1.5 23.5q-3 25 1 46q0 5 0.5 8.5t0.5 7.5q-1 7 3 15h6q3 -4 2 -17q0 -7 -0.5 -12t-0.5 -8q-1 -22 -0.5 -44t2.5 -44l1 -38l12 2l2 9v35v22q-3 15 -2 34q0 10 0.5 18.5t2.5 15.5q1 8 1.5 17t4.5 17l8 -3l-5 -43l2 -86
q0 -4 0.5 -9.5t0.5 -11.5q0 -14 -5 -21q-7 -7 -23 -7q-3 0 -7 0.5t-7 0.5h-12q1 -2 1.5 -4.5t1 -5.5t2 -5.5t3.5 -3.5q8 -4 18 -4q4 1 9 0.5t9 -1.5l74 -1q4 0 8.5 0.5t9.5 0.5q4 0 7.5 -1t6.5 -3q1 -8 -7 -8h-13h-69zM130 29l-4 3l-1 146v24q0 8 1 13t3 8l4 -1q2 -3 2.5 -8
t0.5 -12q0 -6 -0.5 -12t-0.5 -10v-106q1 -2 1 -4.5v-5.5v-14q0 -17 -6 -21z" />
</svg>
