<?xml version="1.0" standalone="no"?>
<!DOCTYPE svg PUBLIC "-//W3C//DTD SVG 1.1//EN" "http://www.w3.org/Graphics/SVG/1.1/DTD/svg11.dtd" >
<svg xmlns="http://www.w3.org/2000/svg" xmlns:xlink="http://www.w3.org/1999/xlink" version="1.1" viewBox="-10 0 266 256">
   <path fill="currentColor"
d="M52 214q2 2 2 4.5t0.5 4.5t0.5 4.5t2 4.5q5 6 13 9t16.5 4t17.5 1h17h6.5t9.5 0.5t9 0.5t5 1q7 0 14.5 1.5t15.5 1.5q3 0 5.5 -1t4.5 -2l2 -6t1.5 -6t1 -6.5t0.5 -5.5t-0.5 -4.5t-1 -5.5t-2.5 -5t-4 -2h-27l-4 -3q-1 0 -5 0.5t-8 0.5t-8 -0.5t-6 -0.5h-7.5t-11.5 -1
t-11.5 -2t-5.5 -3q-2 -4 -2 -6.5v-6.5v-7v-7.5t0.5 -7t1.5 -8.5q-1 -3 1 -3h3h4h4t6 0.5t6 0.5h4q3 -1 3.5 1.5t0.5 3.5q0 5 -2 10t-5 10t-5 10t-2 10h6l1 -1l2 -2t1.5 -2.5t1.5 -2.5t2.5 -6.5t3.5 -11.5t4 -10.5t3 -4.5q4 -2 6.5 -2h6.5h6q3 2 4.5 9t2.5 14.5t3 13.5t6 6
q3 0 4 -2.5t1 -4.5q0 -8 -3 -16.5t-5 -14.5v-3q0 -1 2.5 -1.5t3.5 -0.5h19q2 -1 3 -2.5t1 -3.5v-1q-1 0 -2 -1l-2 -2h-4h-4h-6t-6 2l-45 -1h-5l-30 -1l-0.5 -1.5t-0.5 -2.5l0.5 -1.5t0.5 -2.5q0 -5 0.5 -13t1 -15.5t1 -12.5l0.5 -5l3 -3h15v30q2 3 3 5.5t2 4.5t2.5 3.5
t6.5 2.5h3h4.5h4.5h3h10.5t10.5 -0.5t9.5 -3t7.5 -7.5q0 -1 0.5 -4l1 -6t1 -5.5t0.5 -3.5v-3v-4v-5v-3t0.5 -2.5l0.5 -1.5h18q1 0 1.5 -1.5t0.5 -2.5q0 -2 -2 -3t-4.5 -1.5t-5 0t-3.5 -0.5q-3 0 -4 -2.5t-1.5 -5t-1.5 -4.5t-4 -2q-2 0 -2.5 2.5t-0.5 5.5t-0.5 5.5t-2.5 2.5
h-50q0 -1 -0.5 -3.5l-1 -5t-1.5 -4t-3 -1.5h-2.5t-1.5 1v11l-3 4h-13q-1 0 -1 -2.5v-3.5q0 -5 0.5 -8.5t2.5 -5.5t5 -3.5t8 -2.5h4h6h6h4q11 0 22.5 1t23.5 1q4 0 8 -0.5t7 -2.5q3 -6 3.5 -9t0.5 -9q0 -5 -2.5 -8t-6 -4.5t-8.5 -1.5h-9q-2 0 -7.5 -0.5t-13 -0.5h-16
t-16 -0.5t-13.5 -0.5h-8h-1h-2l-2.5 0.5t-4.5 1t-4.5 1l-2.5 0.5h-2h-4h-4h-1q-6 3 -9 8.5t-4 12t-1 13.5q0 6 -1 11q0 2 -0.5 8.5t-1 15t-1 18.5t-1 19t-1 15.5t-0.5 8.5v2v5.5v5.5v5v4v5v6v3q1 3 1.5 6.5t0.5 7.5v7v5zM138 230v-3.5v-5t1 -4t3 -1.5h41v22h-38q-3 0 -5 -3
t-2 -5zM74 225q0 -5 2.5 -8t5.5 -5t7.5 -2.5t8.5 -0.5h7.5t11 1t10 3t4.5 5l-0.5 1l-0.5 1v3t-0.5 4t-0.5 3.5v2.5q-2 3 -5 3.5t-6 0.5q-4 0 -11 -0.5t-14.5 -1.5t-13 -3.5t-5.5 -6.5zM61 166v-4t0.5 -6.5t0.5 -5.5v-5q0 -1 1.5 -3.5t2.5 -2.5h16q2 0 2 2v3q0 15 -1 28
t-1 28l-16 16l-3 -5v-3t-0.5 -7t-0.5 -8v-6v-3q0 -3 -0.5 -6t-0.5 -7v-5zM63 121v-3.5v-2.5q0 -3 1 -11t1.5 -17.5t1.5 -17.5t1 -12q0 -1 0.5 -4t1 -5.5t2 -4.5t3.5 -2q4 0 6.5 2t4.5 4.5t3.5 6t1.5 6.5q0 2 -0.5 7.5t-1 13t-1.5 16.5t-1.5 16t-1.5 11.5l-1 4.5h-18l-3 -3
v-2v-3zM138 125v-1q0 -3 3 -6t5 -3q4 0 8 1.5t4 5.5t-1.5 4h-5.5h-6t-7 -1zM159 109q0 -5 4 -8.5t9 -3.5h2q1 4 1 7v6t-1 5.5t-4 2.5q-4 0 -7.5 -2.5t-3.5 -6.5zM124 104v-4.5t3 -2.5q2 0 4 1t3.5 2t3.5 2.5t2 2.5q1 2 -0.5 4t-3 3.5t-4 2t-3.5 0.5h-2h-1q-2 -4 -2 -6v-5z
M135 89v-0.5v-0.5q4 -2 9 -2h9h5.5h5.5l0.5 0.5l1.5 1.5v0q0 2 -2.5 4.5t-5.5 4t-6 2.5t-4 1.5t-3.5 -1t-4.5 -3.5t-3.5 -4t-1.5 -3zM148 35q0 -3 1.5 -4.5t3.5 -1.5t7.5 -0.5t11.5 0t11 2.5t5 7q0 3 -2.5 6t-5.5 4h-10h-8t-7 -1t-5 -4t-2 -8zM82 34q0 -2 3 -3t4 -1
q12 -3 26 -2.5t26 0.5q0 8 -1 12t-4 5.5t-8 1t-13 -0.5h-15q-2 0 -5 -1.5t-5.5 -3t-5 -3.5t-2.5 -4z" />
</svg>
