<?xml version="1.0" standalone="no"?>
<!DOCTYPE svg PUBLIC "-//W3C//DTD SVG 1.1//EN" "http://www.w3.org/Graphics/SVG/1.1/DTD/svg11.dtd" >
<svg xmlns="http://www.w3.org/2000/svg" xmlns:xlink="http://www.w3.org/1999/xlink" version="1.1" viewBox="-10 0 266 256">
   <path fill="currentColor"
d="M78 222v4q1 1 1.5 4.5t2 7.5t2.5 7.5t1 5.5h2h2q2 0 3 -0.5t1 -2.5q0 -11 -2.5 -21.5t-2.5 -20.5v-2v-4t0.5 -3.5t0.5 -2.5q3 -5 9.5 -7.5t13 -5.5t11 -8t4.5 -14q0 -2 -2 -2q-3 0 -5.5 3t-5 6.5t-5.5 6.5t-7 3q-2 0 -3.5 -0.5t-1.5 -3.5q0 -4 2 -7.5t5 -7.5t5.5 -7.5
t2.5 -6.5q0 -2 -3 -2q-5 0 -7.5 2.5t-4.5 6.5t-3 9t-2.5 9t-4 7t-5.5 3t-5 -2l-4 -4v-2.5v-2.5q0 -7 2 -11.5t7 -11.5v-1v-1l-1 -0.5l-1 -0.5h-1q-3 0 -6.5 3.5t-6.5 8.5t-4.5 10t-1.5 7q0 4 3 7t7 4.5t7 4t3 7.5q0 7 -1 14.5t-1 14.5zM140 158v6q1 0 2 2t3 5t4 5l0.5 0.5
t0.5 1.5q2 1 4.5 2.5l2.5 1.5h18q3 0 4.5 4.5t2.5 11.5t2 15t1.5 15.5t1 12.5t0.5 6l0.5 0.5t1.5 0.5q3 0 5 -4v-4t0.5 -6t0.5 -6v-4v-2q0 -10 -1.5 -21.5t-6.5 -19.5q3 -4 5.5 -6t4.5 -4.5t3.5 -5.5t1.5 -8q0 -4 -2 -7.5t-5.5 -6t-7.5 -4.5t-8 -2q-1 0 -1.5 1l-0.5 1
q2 3 4.5 5t4.5 4t3 4.5t1 6.5t-0.5 5.5t-4.5 1.5h-2.5t-2.5 -2q-7 -9 -13.5 -14t-16.5 -11v0v0h-1v0q-1 0 -1.5 0.5t-0.5 1.5l21 21q1 1 1.5 2t1 2.5t1 2.5t0.5 2v1q0 2 -2 2h-4q-6 0 -9 -2.5t-5.5 -5.5t-4.5 -5.5t-7 -2.5zM48 124q3 0 9.5 0.5t13.5 0.5t13.5 0.5t8.5 0.5h5
h4l104 -9q2 0 3 -1.5t1 -3.5l-3 -1h-62v-22q0 -4 5.5 -6.5t12.5 -3.5t13.5 -1.5t8.5 -0.5t2 -1v-2q0 -3 -1.5 -4t-5.5 -1h-10q-11 0 -18 2.5t-10.5 7.5t-4.5 13t0 19l-3 3q-1 0 -4.5 0.5t-9 1t-8.5 0.5h-3q-3 0 -4.5 -2.5t-2.5 -6t-0.5 -7t0.5 -5.5v-10.5t1 -10.5t4 -9t8 -6
q1 0 4.5 -1t7 -1.5t6.5 -1.5t4 -1q2 0 6 -1t9 -1.5t9 -1t6 -1.5q4 -3 5.5 -7.5t1.5 -9.5t-3 -8t-6.5 -4.5t-8.5 -2t-9 -0.5h-10q-1 0 -3.5 0.5t-5.5 1t-6 0.5h-3h-3t-4.5 -0.5t-4 -0.5t-2.5 -1l-1 -0.5t-2 -1.5t-2 -1.5l-1 -0.5q0 -1 -1 -1h-1q-2 0 -3.5 1t-1.5 3q0 6 3 8
t7 3h3h4h4h3q8 0 16 -0.5t16 -0.5q6 0 9.5 2t3.5 8l-0.5 2t-0.5 3q-4 2 -10 3.5t-12 2t-12 0.5h-11q-10 5 -15 12.5t-6.5 17t-1.5 20v19.5h-2.5t-3.5 0.5t-3.5 0.5h-2.5h-1h-2h-5t-8.5 -0.5t-8 -0.5h-5.5q-5 -1 -5 3q0 3 3 5z" />
</svg>
