<?xml version="1.0" standalone="no"?>
<!DOCTYPE svg PUBLIC "-//W3C//DTD SVG 1.1//EN" "http://www.w3.org/Graphics/SVG/1.1/DTD/svg11.dtd" >
<svg xmlns="http://www.w3.org/2000/svg" xmlns:xlink="http://www.w3.org/1999/xlink" version="1.1" viewBox="-10 0 266 256">
   <path fill="currentColor"
d="M120 249l2 2v0q2 0 3 -1.5l2 -3t1.5 -3.5t0.5 -3v-7v-11v-11.5v-7.5t0.5 -6t0.5 -7.5t0.5 -6l0.5 -2.5l23 -3q2 0 2 -2.5v-2.5h-21l-1 -1t-2 -1q-3 -3 -3 -7v-1q0 -1 0.5 -2.5t0.5 -3.5t0.5 -3.5t0.5 -2.5q1 -2 1.5 -2.5t2.5 -0.5q5 0 10 2.5t11 6.5t12 9t12 9t11 6.5
t9 2.5t4 -3l-0.5 -0.5t-0.5 -1.5q-3 -4 -9.5 -8.5t-14.5 -8.5l-16 -8t-15 -8.5t-12 -9.5t-5 -10v-2q0 -2 0.5 -3t3.5 -3h1v0l4 2q2 2 7.5 4.5t11 5.5t10 5.5l4.5 2.5q2 0 4 1t4 2.5t4 2.5t5 1l0.5 -0.5l0.5 -0.5q0 -3 -2 -5t-5 -4t-6 -3.5t-4 -2.5q-1 0 -2 -1t-2 -2.5
t-2.5 -2.5t-1.5 -2q-2 -1 -7.5 -3t-12 -4.5t-11 -5t-4.5 -4.5v-18q0 -3 1.5 -4t3.5 -1q4 0 6 4.5t3 9.5t2 9t4 4q2 0 7.5 -5.5t11 -12t10 -13.5t4.5 -9q-9 0 -18 2.5t-19 2.5h-14q-1 -1 -1 -2v-2q0 -5 1.5 -7.5t4 -4l5 -3t4.5 -4.5t5 -7t6 -8.5t5 -8.5t2 -8h-3l-4 4t-6 6.5
t-6 6.5t-4 5t-4 4t-5 2h-1.5h-0.5q-1 -1 -2.5 -3l-3 -4l-3 -4t-2.5 -3l-2.5 -2.5l-1.5 -1.5l-32 -16v-1q-1 0 -1 1q-1 0 -2 0.5l-1 0.5v1q0 1 5.5 4.5t12 8.5t12 11.5t5.5 14.5q-9 0 -15.5 -0.5t-15.5 -2.5q-3 0 -5.5 -1l-5 -2t-5 -1.5t-6.5 -0.5v4l1.5 0.5t3 1.5l3 2t2.5 2
q1 0 2.5 0.5t2.5 0.5q2 1 5 1.5l6 1t5.5 1.5l2.5 1h5t6.5 0.5t6.5 0.5h5q2 1 3 2t1 3q0 5 -2 6.5t-5 2t-6.5 0.5t-7.5 1q-1 0 -3 0.5t-3 0.5v0h-1h-4.5t-5 -0.5t-4.5 -0.5h-2q-1 0 -2 -0.5t-3 -0.5t-3 -0.5l-1 -0.5q-2 0 -4.5 1.5t-3.5 3.5q1 0 2.5 2t2.5 2q2 2 5.5 7
t6.5 9.5t5.5 8.5t3.5 4l0.5 -0.5l0.5 -0.5l18 -26q2 -4 5.5 -3.5t7.5 0.5v21l-2.5 2t-6 4.5t-8 5.5t-8 5.5t-6.5 4l-3 1.5l-16 17q-4 1 -7 4t-3 7q3 0 7 -2t5 -3t4.5 -3.5t7.5 -5.5t7 -6t4 -3l1.5 -1t3 -1.5t2.5 -1t2 -1.5q2 -1 5 -5t7 -4q3 0 3.5 3.5t0.5 5.5q0 5 -1.5 6
l-4.5 3q-5 3 -9.5 8t-9.5 9q-1 0 -4.5 2.5t-8 5.5t-9.5 6t-9.5 6t-7 5t-3.5 3q0 1 -0.5 4t-0.5 4q2 0 6.5 -2.5t11 -6.5t13.5 -9t13 -9.5t11 -8.5t7 -6h0.5h0.5q1 0 2.5 1.5t1.5 2.5v22q-2 1 -5 1t-6.5 0.5t-6.5 1t-5 0.5q-1 1 -3.5 1.5t-2.5 2.5v1q2 0 6 0.5t5 0.5h1.5
t3 -0.5t2.5 -0.5h2h4.5h4.5v7v11v11v7v6t0.5 10t0.5 9.5v6.5zM84 92q0 -1 1 -2l1 -1l1 -2h1v0h1l2 2l1 1q0 1 -1 2.5t-2 2.5h-1h-1q0 -1 -1.5 -2zM150 84q0 -2 2 -3t4 -1q3 0 4.5 0.5t1.5 2.5q0 3 -2 6t-5 3q-2 0 -3.5 -3t-1.5 -5z" />
</svg>
