<?xml version="1.0" standalone="no"?>
<!DOCTYPE svg PUBLIC "-//W3C//DTD SVG 1.1//EN" "http://www.w3.org/Graphics/SVG/1.1/DTD/svg11.dtd" >
<svg xmlns="http://www.w3.org/2000/svg" xmlns:xlink="http://www.w3.org/1999/xlink" version="1.1" viewBox="-10 0 266 256">
   <path fill="currentColor"
d="M195 248q1 2 3 2h3q0 -3 -2.5 -8t-6.5 -10t-7.5 -10t-5.5 -7l-2.5 -2.5t-2.5 -3.5t-2 -3t-2 -1l-2 -1l-4 -2l-4 -2l-2 -1q-1 -1 -3 -2l-2 -1h-21q-3 0 -9.5 -0.5t-14.5 -1t-14.5 -1t-9.5 -0.5q-7 -6 -10.5 -16.5t-5 -22t-1.5 -23t-1 -19.5q0 -1 -0.5 -8t-1 -15.5
t-1 -15.5t-0.5 -8v-5t-1 -3.5t-2 -2.5t-4 -1q0 28 1.5 56t0.5 56q1 0 1.5 1.5l0.5 1.5q0 1 0.5 4t1.5 6.5t1.5 7t1.5 4.5q1 6 7 8.5t13.5 4t14.5 1.5h12q8 0 15.5 -1t15.5 -1h2l0.5 0.5l1 1t3.5 1.5q7 4 13 9t11.5 10t10 11.5t10.5 12.5zM87 116q0 13 1.5 24t6 19t14 12.5
t25.5 4.5q12 0 20.5 -5.5t13.5 -13.5t7 -18t2 -21v-6.5t-0.5 -10t-1.5 -10t-3 -6.5q-2 -4 -6 -6t-9 -2.5t-9.5 -1t-8.5 -1t-6 -1t-2 -2.5v-16l1 -1l1.5 -0.5t4 -0.5t5 -0.5t3.5 -0.5h26l3 -3l-1 -2l-43 -3v-29l-4 -3q-1 1 -1.5 2l-1.5 3q-2 14 -2.5 29t-2.5 29q0 2 -2 2.5
t-4.5 1t-5 0.5t-4.5 1q-9 6 -12.5 16t-3.5 20zM108 156v-3v-0.5t1 -0.5t2 -1t3.5 -2.5t5 -3.5t4.5 -4t3 -2h2q2 0 6 2.5t7.5 6t6.5 7.5t3 7q0 2 -1 2.5t-5 0.5h-30q-3 0 -5.5 -3.5t-2.5 -5.5zM130 128q-5 0 -7.5 3t-5.5 7t-6 7t-7 3q-3 0 -4.5 -1t-2 -3.5t-0.5 -4.5v-4v-3.5
v-3.5q1 -2 5.5 -5.5t10.5 -7.5t11 -7t7 -3q4 0 7 1.5t6 3.5t5.5 5t5.5 5l1 0.5t2 0.5q1 1 4 3t4 2v8v5.5t-1 7t-2.5 6t-4.5 3.5q-2 -2 -6 -6.5t-8.5 -9.5t-8.5 -8.5t-5 -3.5zM95 112q0 -8 3.5 -13.5t9 -9t12.5 -5t14 -1.5q9 0 15.5 1t10.5 4t6 8.5t2 15.5q0 4 -5 4
q-3 0 -6.5 -3t-7 -6.5t-8 -6.5t-9.5 -3t-9.5 3t-8.5 7t-8 7t-8 3q-2 0 -2.5 -1t-0.5 -4z" />
</svg>
