<?xml version="1.0" standalone="no"?>
<!DOCTYPE svg PUBLIC "-//W3C//DTD SVG 1.1//EN" "http://www.w3.org/Graphics/SVG/1.1/DTD/svg11.dtd" >
<svg xmlns="http://www.w3.org/2000/svg" xmlns:xlink="http://www.w3.org/1999/xlink" version="1.1" viewBox="-10 0 266 256">
   <path fill="currentColor"
d="M196 246q0 2 1.5 2h2.5q3 0 5 -2t3 -6v-16v-14t-0.5 -19t-2 -20.5t-4 -19.5t-7 -16t-10.5 -9q-8 -3 -16 -5t-16 -6q0 -1 -0.5 -2t-1.5 -1h-1h-1q-2 -3 -2.5 -5t-0.5 -5q0 -9 3 -13.5t7.5 -6.5t10.5 -2t12 -0.5t12 -2.5t10.5 -7t7.5 -14t3 -24q0 -7 -3 -10.5t-7.5 -5.5
t-10 -2.5t-9.5 -0.5h-9.5h-9t-9.5 0.5t-11 1.5q-1 1 -1.5 2.5t-0.5 3.5t3.5 3.5t4.5 1.5h3h3h4h3l1 2v7v15t-1 16q-4 4 -8.5 6t-8 4.5t-6.5 6t-3 10.5v2q0 2 0.5 5t0.5 6.5t0.5 7t0.5 4.5q5 6 9.5 9t9.5 4.5t9.5 2.5t9 2.5t9 4t8.5 8.5q2 11 2.5 23.5t0.5 25v25.5q0 12 1 23
zM101 238q0 2 1 5t4 3t4.5 -4t2.5 -10t1.5 -13t0.5 -14v-12v-7q0 -6 0.5 -13.5t0.5 -15t-1 -14.5t-3 -13q-3 -7 -8 -9.5t-11 -3.5t-12.5 -1.5t-11.5 -1.5t-8 -4.5t-3 -11.5q0 -10 5 -14.5t12.5 -6.5t16.5 -2q8 0 14 -1q7 -1 10.5 -5.5t5 -10.5t1.5 -13v-13q0 -3 -1 -6
t-3 -5.5t-4.5 -4.5t-4.5 -3h-4h-6.5h-6.5h-4h-18t-19 2l-0.5 2.5t-0.5 3.5v0v1q0 3 3 3.5t5 0.5q3 0 5.5 -1t5.5 -1q2 0 3 1.5t1 4.5q0 2 0.5 7.5t0 12t-2 12t-4.5 6.5q-7 2 -11 4.5t-6 6t-3 9t-1 13.5v3t0.5 4t0.5 4v3q2 7 7.5 10.5t12 4t14 -0.5t13.5 -1q5 1 6.5 6t2 10.5
t0 11.5t-0.5 10l0.5 3.5t0.5 7.5t0.5 7.5t0.5 4.5v3v4q0 11 -2 21.5t-2 20.5zM172 59v-2.5v-3.5v-4v-3q0 -6 0.5 -10t2 -7t4.5 -4t9 -1h3h3l5 6v1t0.5 2.5t0.5 2.5v2q0 4 -0.5 9t-2.5 9.5t-5 7.5t-8 3q-4 0 -7 -1.5t-5 -6.5zM84 54q0 -4 0.5 -7.5t0.5 -7t0.5 -7t1.5 -8.5h2
t4 -0.5t4 -0.5h3q9 0 11 5t2 14q0 12 -6 17.5t-16 5.5h-4q-3 -2 -3 -6v-5z" />
</svg>
