<?xml version="1.0" standalone="no"?>
<!DOCTYPE svg PUBLIC "-//W3C//DTD SVG 1.1//EN" "http://www.w3.org/Graphics/SVG/1.1/DTD/svg11.dtd" >
<svg xmlns="http://www.w3.org/2000/svg" xmlns:xlink="http://www.w3.org/1999/xlink" version="1.1" viewBox="-10 0 266 256">
   <path fill="currentColor"
d="M143 147h1q0 1 0.5 1.5l0.5 0.5l3 100h6v-95q0 -3 1 -5t4 -2q8 0 13.5 5t8.5 12t4 15t1 14q0 2 0.5 7t0.5 11t0.5 11t0.5 7l0.5 1.5t0.5 2.5h1h1q0 -1 1 -1.5l1 -0.5q0 -1 0.5 -4t0.5 -6.5t0.5 -6t0.5 -3.5v-4v-16t-1.5 -15.5t-5 -14.5t-10.5 -12q-1 -1 -5.5 -2.5
t-9 -3.5t-8 -4t-3.5 -4v-2v-1v-3t0.5 -4t0.5 -4t1 -3q6 -1 11 -5l10 -8h1h1q4 0 7 2t5.5 4.5l5 5t6.5 2.5q1 0 2 -0.5t1 -1.5t-0.5 -2t-0.5 -2l-3 -3l-4.5 -4.5l-5 -5l-2.5 -2.5l-2 -2.5t-4 -5.5t-3.5 -5.5t-2.5 -2.5l-0.5 0.5l-0.5 0.5q0 4 -1.5 8.5t-4.5 8.5t-7 7t-8 3
v-47q6 0 11.5 2t11.5 4.5t11.5 4.5t11.5 2h3h3q0 -3 -3.5 -5t-8.5 -4t-11 -4.5t-11.5 -4.5t-10 -4t-6.5 -4t-2.5 -4.5l-1 -5t-1.5 -5t-3 -4.5q-3 5 -3.5 8t-1 5.5t-1.5 5t-7 5.5q-2 2 -8 6t-12.5 8.5t-11 8.5t-4.5 5v1l1 2q1 -1 3.5 -2.5l5 -3l5 -3t3.5 -1.5q0 -1 2 -1.5
t4.5 -2t4.5 -2.5l2 -1q3 -2 4 -3t2 -1.5t1.5 -0.5h3.5h2t2 1v46q-4 -2 -8 -4.5t-7 -5.5t-5 -7t-3 -10h-1h-1q0 1 -0.5 1.5l-0.5 0.5q-1 7 -4 12.5t-6.5 10t-6 9t-2.5 10.5v2q1 0 3 -2t4 -4.5t4 -4.5l2 -2l4 -6t5 -3t6 1.5t6 3.5t5.5 4t5.5 3v17q0 2 -2.5 3.5t-5.5 2.5l-6 2
t-4 2q-9 8 -13 18.5t-5 21.5t0 23t1 22q3 0 4.5 -6.5t2.5 -15.5t1.5 -20t3 -20.5t7.5 -16t15 -6.5zM75 100q0 24 -2 47.5t-8 45.5q-1 4 -3.5 8.5l-5 9t-4.5 9t-2 8.5q6 0 11 -6t8 -14.5t5.5 -17t3.5 -12.5q0 -3 1 -9t1.5 -13t1.5 -13.5t1 -9.5q0 -5 -0.5 -12t2.5 -13v-65
q0 -2 1 -4t3 -4t4.5 -3.5t4.5 -1.5q1 0 4 -0.5t6.5 -1.5t6.5 -1.5t4 -0.5h4t6 -0.5t6 -0.5h4q3 0 11 -0.5t17.5 -1t17.5 -0.5h11l1.5 -1.5t0.5 -2.5v-0.5v-0.5l-10 -2h-80q-9 0 -15.5 3.5t-11 8.5t-6.5 12.5t-2 15.5q0 11 1 22t1 22z" />
</svg>
