<?xml version="1.0" standalone="no"?>
<!DOCTYPE svg PUBLIC "-//W3C//DTD SVG 1.1//EN" "http://www.w3.org/Graphics/SVG/1.1/DTD/svg11.dtd" >
<svg xmlns="http://www.w3.org/2000/svg" xmlns:xlink="http://www.w3.org/1999/xlink" version="1.1" viewBox="-10 0 266 256">
   <path fill="currentColor"
d="M184 197v3.5t0.5 5t1 4.5t0.5 3q1 2 2 8.5t2.5 12.5t3.5 11t5 5t4.5 -2t1.5 -5q0 -6 -2 -11.5l-4 -11t-3.5 -11t-1.5 -11.5q0 -4 1.5 -8.5t3 -8.5l3 -8t1.5 -9t-1.5 -11.5t-5.5 -9.5q-12 -3 -23.5 -3.5t-23.5 -0.5q0 5 3.5 7t8.5 2.5t11 0t11 0.5t8 4t3 11v4v5.5
t-1.5 4.5t-3.5 2t-3.5 -2t-3 -4.5t-3 -4.5t-2.5 -3h-9h-4h-6t-5 1.5t-2 4.5q0 2 0.5 2.5t2.5 0.5q3 0 6 -0.5t7 -0.5q5 0 9 3.5t4 8.5q0 2 -2 3.5t-5.5 2.5t-6.5 2t-4 2q-1 0 -3 0.5l-4 1t-4 0.5t-3 1v1v1q0 3 1 3.5t4 0.5q4 0 8.5 -1t8 -2.5l7 -3t5.5 -1.5h2zM49 239
q0 2 0.5 3.5t2.5 1.5q3 0 4.5 -3l2.5 -5l4 -107q2 -6 2 -14v-17.5v-19.5t1 -18.5t4 -15t8 -9.5q4 -2 9 -2.5t10.5 -1t10.5 -0.5h10q1 0 5 -0.5t8.5 -1.5t8.5 -1.5t5 -0.5h11.5h17.5h16.5h10.5q2 -2 2 -4q0 -3 -2.5 -5t-5.5 -2q-26 0 -54.5 2.5t-54.5 5.5q-1 1 -3.5 1.5
t-5.5 1t-5.5 1.5t-3.5 1q-6 5 -8.5 10t-3.5 10.5t-0.5 11.5t0.5 13q0 1 -0.5 4.5t-0.5 7t-0.5 6.5t-0.5 4v31q-1 28 -3 56t-2 56zM129 235v4.5t3 1.5t5 -2t2 -4v-89v-6.5t-1 -7.5t-3 -7t-5 -4h-5h-5h-9t-9 0.5t-7 3t-5 7.5q0 3 -0.5 5.5t-1.5 5.5q-3 22 -5.5 45t-2.5 46
q0 4 0.5 4.5t4.5 0.5t4.5 -3.5t0.5 -7.5q1 -2 1 -7.5t0.5 -11.5t0.5 -11.5v-7.5h37v1t0.5 3t0.5 4v4v5t-0.5 9t-0.5 9v5v2v3zM92 175v-1q0 -2 1 -5.5t1.5 -6l0.5 -2.5l2 -2l2.5 -0.5t6.5 -1l8 -1t7 -0.5h1.5h2.5h1.5h2.5q0 1 0.5 2.5t0.5 2.5v4t0.5 6.5t0.5 7.5v4
q-6 0 -11 -1t-10 -1q-3 0 -5.5 1t-4.5 1q-3 0 -5.5 -2t-2.5 -5zM96 143q0 -5 2 -7.5t5 -4t6.5 -2t8.5 -0.5q6 0 9 3.5t3 11.5q0 2 -4.5 3t-10 1.5t-10.5 0.5h-5q-3 0 -3.5 -1.5t-0.5 -4.5zM168 121q5 1 8.5 1.5t6.5 1t6.5 0.5h6.5h7q2 -1 2.5 -2.5t0.5 -3.5t-2.5 -3t-6.5 -1
t-8.5 0.5t-8.5 -0.5t-6.5 -3t-2.5 -7t2.5 -7t6.5 -3t8 -1.5t8 -2.5t6.5 -6t2.5 -12q0 -3 -0.5 -6t-2 -6t-3.5 -4.5t-5 -1.5q-6 0 -11.5 1t-10.5 1q-2 0 -3.5 -0.5t-1.5 -3.5v-12l-1.5 -0.5t-1.5 -1.5q-1 0 -3 -0.5l-2 -0.5q-1 0 -2 5t-1.5 11.5t-0.5 12.5t-1 8q-1 8 -4 14
t-5 13l0.5 0.5t1.5 0.5v0q2 0 4 -2t4 -5.5t3.5 -6.5t2.5 -4q0 -1 0.5 -3.5t1.5 -5t1.5 -4.5t0.5 -2.5t0.5 -2t1.5 -1.5q6 -1 11 -1.5t10 -0.5h3.5t2.5 2v3v3v6t-3 5q-7 1 -12.5 3t-9 5.5t-5.5 9t-2 13.5v1.5v0.5l3 3zM80 101v2.5t2 1.5h1l3 -0.5l3 -0.5q2 0 7.5 -1
t11.5 -1.5t11.5 -1t7.5 -1.5q10 -2 13.5 -9t3.5 -17q0 -7 -1.5 -13.5t-9.5 -10.5h-3h-3.5h-4.5h-2h-10t-14.5 1t-13 3t-5.5 5v0v1q1 0 3 1.5t3 1.5h1h2q1 0 3 -0.5t4 -1.5t4 -1h3q1 -1 5 -1t8 -0.5t7.5 -0.5h4.5q8 2 8 9v2v1q-7 3 -15 3t-15 1h-22q-1 1 -2 2.5t-1 3.5v1
q4 2 6 2h5q8 0 16 -1.5t17 -1.5h8q1 0 2.5 2t2.5 3q1 2 -1.5 3.5t-6.5 3t-9.5 2.5t-10 1.5t-8.5 1t-5 0.5h-3h-4h-3h-3q-1 1 -1 2.5v2.5z" />
</svg>
