<?xml version="1.0" standalone="no"?>
<!DOCTYPE svg PUBLIC "-//W3C//DTD SVG 1.1//EN" "http://www.w3.org/Graphics/SVG/1.1/DTD/svg11.dtd" >
<svg xmlns="http://www.w3.org/2000/svg" xmlns:xlink="http://www.w3.org/1999/xlink" version="1.1" viewBox="-10 0 266 256">
   <path fill="currentColor"
d="M108 237q0 4 2.5 8t7.5 6h4h4q6 0 10.5 -1.5t8 -4.5t7 -7t8.5 -8q3 -3 7.5 -3.5t9.5 -0.5t8.5 -1t3.5 -5q0 -1 -0.5 -2t-1.5 -2h-8q-2 0 -6 0.5t-8 1.5t-7.5 2.5t-5.5 3.5l-1 1.5l-2 3l-2 3l-1 1.5q-4 4 -9.5 6.5t-12.5 2.5q-3 0 -5 -1.5t-2 -4.5l0.5 -0.5t0.5 -1.5
q4 -6 10 -10t11 -10v-0.5v-1.5q0 -2 -1 -5t-4 -4h-5q-6 0 -12 1.5t-12 1.5q-5 0 -8.5 -1.5t-3.5 -7.5q0 -3 1 -4t4 -2q1 -1 5.5 -1.5t9 -1.5t8.5 -1.5t5 -0.5h2q2 -1 3.5 -1.5l1.5 -0.5v-10l15 -3l18 -18v-5h-6q-4 6 -10 11.5t-15 5.5q-2 0 -5.5 -1.5t-3.5 -3.5t3.5 -5l7 -6
t7 -5t4.5 -2h27l1 1.5t2 2.5q2 2 3.5 5.5t2.5 7.5t2 7.5t1 6.5q1 2 4.5 2.5t5.5 0.5q0 -3 -0.5 -7.5t-1.5 -9t-2.5 -8.5t-3.5 -7q-1 -1 -2 -2.5t-2.5 -2.5t-2.5 -2l-1 -1h-29q-3 0 -3 -3q0 -1 3 -1.5t7.5 -1t9.5 -1.5t9.5 -4t7.5 -8.5t3 -14.5q0 -3 -1 -5t-1 -4
q0 -3 1.5 -5.5l3 -5t2.5 -6.5t1 -10q3 -2 5 -6.5t2 -8.5q0 -7 -3.5 -11t-9 -5.5t-12 -2t-11.5 -0.5q-2 0 -5.5 0.5l-3.5 0.5l-3 3l3 2l29 4q1 0 3.5 1.5t2.5 3.5q0 3 -1.5 3.5t-3.5 0.5q-7 0 -14 -2t-14 -2h-4q-2 0 -3 1l-3 3l2 1q1 0 4 0.5t7 1t7 1t5 0.5l1.5 0.5t3.5 0.5
t3.5 1t1.5 3l-0.5 1t-0.5 2h-3t-4 0.5t-4 0.5h-3h-2h-4h-4h-2q-2 0 -5 1t-3 4l1 0.5l1 0.5l1.5 1l1.5 1h30v13l-1 1.5t-2 1.5h-1q-9 0 -18 -0.5t-19 -0.5q-9 0 -18.5 0.5t-18.5 0.5q-2 0 -3 -1t-1 -2.5v-3v-3.5t0.5 -4t3.5 -2h3t2 1h23q4 0 5.5 -2t1.5 -5h-36q2 -2 7 -5
t10 -5t9.5 -4l4.5 -2q0 -2 -2.5 -3t-3.5 -1q-7 0 -13 3t-13 3q0 -8 5 -10.5t10.5 -3t10 -1.5t4.5 -4q0 -2 -1 -2.5t-2 -0.5q-2 0 -8 1t-12 2.5t-10 4.5t-4 7v42q3 1 3.5 2.5t0.5 3.5q0 4 -1 7.5t-1 7.5q0 7 2.5 11.5t6.5 6.5t9 2.5t9 1t7 0.5t4 2l-0.5 2l-0.5 2h-31l-1 -1
t-1.5 -2.5t-1.5 -3t-2 -2.5l-0.5 0.5t-0.5 1.5v1v2v3v1q-1 3 -3.5 3h-5.5t-5.5 0.5t-2.5 3.5v0.5v0.5l1.5 1l1.5 1h2.5t3.5 0.5t4 0.5h3l0.5 0.5l0.5 0.5q0 3 -2 6t-4 5l-4 4t-2 5q0 1 0.5 2t1.5 1q5 0 7.5 -2t3.5 -5t1.5 -6.5t2.5 -6.5t6 -5t12 -2h4t3 3q0 2 -1.5 3.5
t-3.5 3t-3.5 3t-1.5 4.5q0 4 3 7t5 6q0 4 -3 5t-7.5 1t-10 0.5t-9.5 2t-7 4.5t-3 10q0 2 0.5 5t1.5 5.5t3 4t6 1.5h17q4 -2 7 -2h7q0 4 -3 7t-7 5.5t-7 6t-3 7.5zM54 236q0 2 1.5 3t3.5 1t3.5 -1t2.5 -3t2 -4.5t1 -3.5l2 -36v-4q0 -5 0.5 -14.5t1 -21.5t1 -25t1 -25t1 -21
t0.5 -14q0 -2 0.5 -7.5t1 -11.5t1.5 -11t3 -7t6.5 -3t9.5 -2t10 -1.5t7 -0.5h73q1 1 5 1.5t6 0.5h2q5 0 5 -5q0 -3 -2.5 -4t-5 -1.5t-5.5 -0.5h-3h-3h-5h-6h-5h-4h-6h-5h-3q-3 1 -12.5 1t-20 0.5t-19.5 1t-13 1.5q-11 1 -16 9t-6.5 19t-0.5 22t1 19q-2 32 -3 64.5t-4 64.5
q-2 5 -3 10t-1 10zM146 201q0 2 1 4.5t4 2.5h24q2 0 3.5 -2t2.5 -5t1.5 -5.5t0.5 -4.5q0 -4 -2.5 -7.5t-6.5 -3.5h-29q-2 0 -4 1t-2 3t1.5 3t4 1h4.5h2h4t7 0.5t7 0.5h5q1 1 1 2v3q0 3 -1.5 5t-4 2.5t-5.5 1t-5 0.5q-3 0 -6 -1t-7 -1zM122 123v-3l1.5 -1t3.5 -2l4 -2t3 -1
l3 -0.5t5 -0.5q1 0 3.5 0.5t3.5 0.5q3 1 4.5 2t1.5 4q0 2 -1 2.5t-2.5 1t-3.5 0.5h-3h-11t-12 -1zM155 108q2 -1 4.5 -2.5t5.5 -3t6 -2t5 -0.5h1l1 1.5l1 1.5v1q0 4 -2 8t-6 4q-5 0 -9 -2.5t-7 -5.5zM105 108q0 -4 1.5 -6t5.5 -2q2 0 3 0.5t4 1.5q1 0 2.5 1t3 1.5t2.5 1
l1 0.5v2l-1.5 1t-3 1.5t-3.5 1.5l-4 2h-1.5h-2.5q-3 0 -5 -1.5t-2 -4.5zM125 96l1 -2h4h5h13.5t13.5 2v0q0 2 -1.5 2.5t-2.5 1t-2.5 0.5h-1.5q-1 0 -2 1t-2.5 1.5t-3 1.5l-1.5 1h-1q-5 0 -10.5 -2.5t-8.5 -6.5z" />
</svg>
