<?xml version="1.0" standalone="no"?>
<!DOCTYPE svg PUBLIC "-//W3C//DTD SVG 1.1//EN" "http://www.w3.org/Graphics/SVG/1.1/DTD/svg11.dtd" >
<svg xmlns="http://www.w3.org/2000/svg" xmlns:xlink="http://www.w3.org/1999/xlink" version="1.1" viewBox="-10 0 266 256">
   <path fill="currentColor"
d="M57 244q1 3 2.5 3.5t3.5 0.5t3.5 -1.5t1.5 -4.5v-4t-1 -5v-56q1 -3 2 -12t2.5 -18.5t4 -16.5t5.5 -7q4 0 7 1t6.5 2l7 2t7.5 1q2 0 5 -1t3 -3q0 -3 -4 -5q-5 -1 -8.5 -1t-7 -1t-7 -2.5t-7.5 -3.5v-1.5v-1.5q0 -3 1.5 -6.5t3.5 -7t4.5 -7t4.5 -5.5q2 -3 4.5 -4.5t4.5 -3
t3.5 -3.5t1.5 -6q-7 0 -11.5 4t-8.5 9t-7 10.5t-6 9.5h-1h-1q-4 0 -6 -3t-3.5 -6.5t-2.5 -7.5t-1 -7q0 -12 4 -19t10.5 -11.5t15 -8t17.5 -7.5v-1.5v-0.5v-2t-1 -1t-3.5 -0.5t-3.5 -0.5q-9 0 -17.5 4.5t-15.5 11t-11 15.5t-4 18v7t1 8t2 7.5t3 6.5q2 1 4 3t3.5 4l3 4t1.5 5
l-1 0.5l-1 0.5q-2 6 -3.5 14t-3.5 13q-3 20 -4.5 38.5t-1.5 38.5v22zM187 244q0 1 0.5 1.5l0.5 0.5q1 0 2.5 1l1.5 1q2 -1 3 -2.5t2 -3.5t1 -4v-4q0 -21 -1 -43.5t-4 -43.5q-1 -8 -3.5 -15.5t-2.5 -15.5q0 -4 1.5 -6t3.5 -5q4 -9 6.5 -17.5t2.5 -18.5q0 -6 -0.5 -10.5
t-2.5 -12.5q-1 -2 -2.5 -4t-4.5 -3.5l-5 -2.5t-4 -1q-4 -2 -8.5 -4t-9.5 -3.5t-10 -2.5t-10 -1h-2t-1 3q0 2 3.5 3.5t8.5 3t11.5 3.5t12.5 5t10 7.5t5 11.5q0 1 0.5 3t0.5 4.5v4.5v2q0 2 -0.5 6.5t-2 8.5t-3.5 7.5t-5 3.5q-1 0 -3.5 -2.5l-6.5 -6.5t-9 -8.5t-9.5 -8t-9 -6
t-8.5 -2.5q-2 0 -3 0.5t-1 2.5l0.5 1l0.5 1q1 1 3.5 2.5t5.5 3.5l6 4t4 3q2 2 6 4t7 5.5t5.5 7t2.5 6.5q0 2 -0.5 3t-1.5 2t-3 1.5t-4 1.5t-4.5 1.5t-3.5 0.5l-2 0.5t-4.5 1t-4.5 1t-3 0.5q-1 1 -3 2t-2 3v0v0l0.5 0.5l1.5 1.5h7q4 0 8 -1t7.5 -2.5t7 -2.5t5.5 -1q3 0 5 6.5
t3.5 14.5t2 15.5t0.5 10.5q0 1 0.5 4t0.5 6.5t0.5 6.5t0.5 4v55z" />
</svg>
