<?xml version="1.0" standalone="no"?>
<!DOCTYPE svg PUBLIC "-//W3C//DTD SVG 1.1//EN" "http://www.w3.org/Graphics/SVG/1.1/DTD/svg11.dtd" >
<svg xmlns="http://www.w3.org/2000/svg" xmlns:xlink="http://www.w3.org/1999/xlink" version="1.1" viewBox="-10 0 266 256">
   <path fill="currentColor"
d="M163 170q1 2 2.5 8.5t3.5 13.5t4 13.5t3 9.5t2 9t3 12t4 10t5 4t4.5 -3t1.5 -5q-3 -15 -8.5 -31t-10.5 -30q-1 -4 -4 -9t-3 -9q0 -3 3 -5.5t6.5 -6t6 -8.5t2.5 -12q0 -12 -5.5 -18t-14 -8.5t-18.5 -3t-20 -0.5h-5q-3 0 -7 0.5t-7 0.5h-5q-3 1 -7.5 0.5t-9.5 0t-8.5 1.5
t-3.5 5q0 2 0.5 3t3.5 2h5q14 0 27.5 -1.5t27.5 -1.5h22q8 1 11 7.5t3 13.5q0 2 -0.5 4.5t-2 5t-3.5 4.5t-4 2q-4 0 -6 -2.5t-4 -5.5t-5.5 -6t-9.5 -3h-4h-6h-7h-3h-6h-6h-6.5h-2.5h-10q-6 0 -13 1t-12 3t-5 5q0 4 1 4.5t5 0.5q5 0 10.5 -1.5t10.5 -1.5h60q2 0 3 1t2 3
t1.5 4l0.5 2v3q0 2 -2 2q-5 2 -10.5 4t-11.5 1l-52 8q-2 0 -2.5 1.5t-0.5 3.5q0 4 4 4h1l16 -2t15.5 -2l15 -2t16.5 -3q3 -1 6.5 -3t7.5 -2q2 0 3 1.5t2 3.5zM66 43q3 11 8 23.5l9 22.5q1 2 3.5 2.5t4.5 0.5t3 -1t1 -3q0 -5 -2.5 -10.5t-5.5 -11t-5.5 -11.5t-2.5 -12
q0 -4 2 -7t5 -5t6.5 -3t7.5 -1q3 0 6 4t5 10t4 13t4 12.5t5 9.5t7 4q2 0 3.5 -1t1.5 -3q0 -5 -2.5 -10t-5.5 -10t-6 -10.5t-4 -10.5v0q0 -5 1 -7.5t3.5 -3.5t6.5 -1h8q3 0 4.5 0.5t3.5 3.5q6 11 10 22.5t11 21.5q2 2 3.5 5.5t3.5 7t5 5.5t7 2h4t2 -3t-2.5 -7.5t-6.5 -10
t-9 -11.5t-9 -11.5t-6.5 -11t-2.5 -9.5v-2.5v-1.5q3 -1 9 -1.5t13 -1.5t11.5 -2.5t4.5 -4.5t-2 -3.5t-5 -0.5q-16 0 -31.5 2t-31.5 4q-6 1 -15.5 1t-19 2.5t-16 7t-6.5 14.5v3z" />
</svg>
