<?xml version="1.0" standalone="no"?>
<!DOCTYPE svg PUBLIC "-//W3C//DTD SVG 1.1//EN" "http://www.w3.org/Graphics/SVG/1.1/DTD/svg11.dtd" >
<svg xmlns="http://www.w3.org/2000/svg" xmlns:xlink="http://www.w3.org/1999/xlink" version="1.1" viewBox="-10 0 266 256">
   <path fill="currentColor"
d="M178 18q-5 12 -5 30v17q0 4 0.5 7t0.5 6v7v6.5t-1 6t-4 4.5q-2 2 -5.5 3t-7 1.5t-7 0.5t-6.5 -1h-39q-23 0 -34 9q-5 8 -6 18t-1 19v75q0 5 -1 10t-2 12q-3 13 0 19h5q3 -3 5 -15q1 -6 1.5 -10.5t1.5 -7.5l1 -77v-18q0 -10 3 -17q3 -4 13 -5q4 -1 9 -1h7q8 1 17 1h21
q22 -1 35 -12q5 -11 6 -32v-35v-12q-1 -7 -7 -9zM67 20q-3 3 -3.5 8t-0.5 9v11v7.5t1 7.5q0 16 6 24q11 4 30 4q18 1 32 0h11q3 0 6 -0.5t5 -2.5q-1 -6 -7 -7h-12h-41h-9q-5 0 -9 -3l-2 -9h17h44h10q6 0 9 -4q-1 -6 -7 -6q-4 -1 -7 -1h-5l-61 -1v-13h17h44h10q6 0 9 -3
q0 -6 -3.5 -7t-8.5 0h-37l-31 -1q-2 -3 -1 -8t-6 -5zM174 117q-1 1 -1.5 3t-1 4.5t-1 4l-0.5 1.5h-17h-44h-10q-5 0 -8 3q-1 7 5 7q7 1 12 0l62 1v14h-17h-44h-10q-5 0 -8 3q-1 6 5 7q3 0 6 0.5t6 0.5h62q0 10 -6 12q-7 1 -14 0h-43h-9q-4 0 -7 3v4q5 3 11 3h11q7 0 15 0.5
t18 0.5q19 0 30 -7q4 -11 5 -24.5t0 -25.5v-5q0 -4 -1.5 -7t-5.5 -3zM104 194l-4 3q-1 7 4 7q6 1 10 0h27q15 1 25 9q1 1 1.5 3t1 4.5t0.5 4.5t-1 3l-20 -6l-48 -1h-11q-5 0 -9 2q-1 6 6 8h6q3 0 6 -1h34q19 1 32 8q-10 7 -22 7h-12t-12 1q-5 1 -9.5 0.5t-8.5 1.5v6q4 2 8 2
h10h12q4 0 8 -0.5t8 -0.5q17 -1 25 -8q6 3 10.5 9t9.5 11q4 3 7 0q1 -7 -8 -16q-9 -8 -13 -14v-12q1 -8 -2 -17q-2 -5 -8 -7.5t-11 -3.5q-13 -2 -26 -2.5t-26 -0.5z" />
</svg>
