<?xml version="1.0" standalone="no"?>
<!DOCTYPE svg PUBLIC "-//W3C//DTD SVG 1.1//EN" "http://www.w3.org/Graphics/SVG/1.1/DTD/svg11.dtd" >
<svg xmlns="http://www.w3.org/2000/svg" xmlns:xlink="http://www.w3.org/1999/xlink" version="1.1" viewBox="-10 0 266 256">
   <path fill="currentColor"
d="M190 207q1 4 2 11.5l2 15t2.5 13.5t4.5 6q2 0 3 -0.5t2 -3.5q0 -1 0.5 -4t0.5 -4q0 -6 -1.5 -13t-3 -13.5t-2.5 -13t-2 -12.5v-10q0 -6 -0.5 -11t-1.5 -10t-4 -10t-7.5 -6.5t-8.5 -3.5t-6.5 -4.5t-2.5 -9.5q0 -6 2.5 -10.5t6.5 -7t9 -5t9 -5.5t6.5 -7.5t2.5 -11.5
q0 -4 -0.5 -8.5t-1.5 -9.5t-3 -9t-6 -5h-3h-3h-4h-2q-8 0 -13.5 0.5t-12.5 2.5q-1 1 -2 2.5t-2 1.5v1v1l1.5 1.5l0.5 0.5h13l2 3v13v15q0 6 -2 14q-1 4 -2 6.5t-2.5 5.5t-2.5 6.5t-1 7.5q0 7 4 11t9 7t9.5 6.5t5.5 10.5zM96 202q2 2 4.5 3.5t5.5 1.5h5h5h11q5 -1 7.5 -7
t3.5 -12.5t1 -13.5v-12v-5t-0.5 -6.5t-1.5 -6t-3 -4.5q-3 2 -3.5 5.5t-0.5 7.5t-1 6.5t-5 2.5h-22v-14q0 -1 -1 -1.5t-2 -0.5h-1q-1 0 -2 2t-2 3v17v16.5t2 17.5zM102 183q0 -1 0.5 -3.5l0.5 -2.5q0 -1 1.5 -2.5t3.5 -1.5h20v8q0 5 -1 8.5t-3.5 6.5t-7.5 3q-14 0 -14 -16z
M50 62v1q0 2 0.5 8.5t1 14t1 14.5t0.5 8v10.5t1 13t4 11t10 3.5q6 -1 13 -3.5t13 -6.5t11.5 -9t10.5 -10v0h1q4 0 7 3t6 6.5t7 6.5t10 3q0 -6 -3 -10t-7 -7l-8 -6t-7 -7v-21v-2.5t-1 -3l-2 -3t-2 -1.5h-1v1q-2 6 -2 11.5t-0.5 10t-2.5 9t-7 8.5q-3 2 -4.5 4t-5.5 2
q-2 0 -2.5 -1t-0.5 -5q0 -1 -0.5 -4t-0.5 -6t-0.5 -5t-0.5 -3q1 -3 4.5 -8t8.5 -9.5t10 -8t8 -3.5q4 0 7.5 3t6 6t6 6t7.5 3q0 -6 -2 -9.5t-5.5 -7t-8 -6t-7.5 -6.5q2 -8 2.5 -16.5t0.5 -16.5q0 -3 -1.5 -7.5t-4.5 -4.5q-1 0 -2 0.5t-2 1.5q-1 10 -1.5 20.5t-1.5 19.5
l-22 22l-1 -2q0 -1 0.5 -4.5t0 -7t-1.5 -6t-4 -2.5h-2t-1 2v20q0 3 -3.5 5t-6.5 2v0v0q-2 -1 -6 -1.5l-4 -0.5q-1 0 -2 -1l-1 -1v-20q0 -2 -2 -2.5t-3 -0.5q-3 0 -4 1.5t-1 4.5zM61 108v-2v-5.5t0.5 -4.5t1.5 -2h18v34q0 5 -3 6.5t-7 1.5t-6 -3.5t-3 -7.5t-1 -9v-8zM175 86
l1 -3t1 -4l-0.5 -2.5t-0.5 -5.5t-0.5 -5.5l-0.5 -2.5q0 -6 3.5 -6.5t7.5 -0.5q2 0 4 2t3 5t1.5 6.5t0.5 5.5q0 5 -4 10t-9 5q-2 0 -4 -0.5t-3 -3.5z" />
</svg>
