<?xml version="1.0" standalone="no"?>
<!DOCTYPE svg PUBLIC "-//W3C//DTD SVG 1.1//EN" "http://www.w3.org/Graphics/SVG/1.1/DTD/svg11.dtd" >
<svg xmlns="http://www.w3.org/2000/svg" xmlns:xlink="http://www.w3.org/1999/xlink" version="1.1" viewBox="-10 0 266 256">
   <path fill="currentColor"
d="M193 247q1 1 2 1.5t2 0.5h1q2 0 4 -1.5t3 -3.5q1 -8 1.5 -16.5t0.5 -17.5v-18v-16v-11v-14v-13v-6q-1 -12 -2 -19t-5 -10.5t-11.5 -4t-19.5 0.5q-3 -1 -3.5 -3t-0.5 -4v-17.5t4 -17.5q1 -4 4 -4.5t6 -0.5t5 -1t2 -6q-10 0 -15.5 0.5t-8.5 4t-3.5 9t-1.5 15.5v4v7v6v4
q-1 4 -3.5 5t-5 1.5t-5.5 1.5l-6 2q-4 4 -6.5 11t-4 15t-2 16t-0.5 13v5v7v8v4t-0.5 4.5t-0.5 8.5t-0.5 10.5t-1 10t-0.5 8.5v5v2q0 1 0.5 3t2.5 2t3.5 -1.5t1.5 -3.5v-4v-3q0 -2 0.5 -6.5t0.5 -8.5t0.5 -7.5t0.5 -4.5q2 -19 2.5 -39.5t2.5 -39.5q0 -2 2 -4l4 -4q5 -2 9 -3
t8.5 -1.5t8.5 -0.5h9h3h4h5h3q2 1 3 2.5t1 3.5t0.5 4t0.5 3v3v6.5v7.5v6q0 23 -1 45.5t-1 45.5q-1 3 -1.5 5t-0.5 5v3zM50 130v30v27.5t0.5 27t0.5 29.5q1 0 2 0.5t2 0.5l1.5 -0.5l1.5 -0.5q1 0 1.5 -3t0.5 -4v-10v-16.5v-15.5v-11q0 -21 -1 -41.5t-1 -41.5v-8t1.5 -12.5
t4 -11.5t7.5 -5q4 0 4.5 3.5t0.5 6.5q0 2 0.5 7.5t0.5 12.5t0.5 13t0.5 8v57v6t0.5 11t0.5 11v6v2q0 4 -0.5 6.5t-0.5 5.5q0 2 0.5 3t2.5 1t3 -0.5t2 -2.5v-10v-15v-14v-10q0 -24 -1 -47.5t-1 -46.5v-24q2 -3 3 -7.5t3 -9t4.5 -8t5.5 -3.5q4 0 7.5 3.5t3.5 7.5q0 3 -1 7
t-2.5 8.5t-3 8.5t-1.5 8q-3 10 -3.5 21t-0.5 22q0 7 1 13t1 12q0 5 -1 10.5t-1 10.5q0 19 0.5 40t3.5 41q0 2 1.5 2h2.5q3 0 3.5 -2.5t0.5 -5.5q0 -27 -1.5 -54t-1.5 -54v-20v-7t0.5 -11t0.5 -11v-7q4 -7 6.5 -15t2.5 -16t-2.5 -12.5t-6.5 -7t-10 -3t-13 -0.5h-14h-14
q-3 2 -3 5q0 2 1 3.5t3 1.5q6 0 10.5 -0.5t10.5 -0.5q2 0 4.5 1t3.5 3q-2 9 -8 14.5t-12.5 10t-11.5 9t-6 12.5v56zM149 196q0 2 1.5 3.5t4 2.5t5 1.5t4.5 0.5q11 0 15.5 -4.5t5.5 -12t0.5 -16.5t-0.5 -17q1 -5 1.5 -10t0.5 -11v-1q-1 -1 -2 -3.5t-1 -3.5h-1h-1
q0 1 -1.5 1.5l-1.5 0.5v13q-1 1 -1.5 2t-0.5 2h-3.5t-5 0.5l-5 1l-2.5 0.5q-1 0 -3.5 -0.5l-2.5 -0.5v-16q0 -2 -2 -2h-2h-2q-1 4 -1.5 7.5t-0.5 6v6.5v6v11v10t0.5 10t1.5 12zM155 191q-1 -8 -1 -12.5v-10.5v-7.5t1 -6.5q1 0 3 -0.5t4 -0.5t4 -0.5t3 -0.5h2q8 0 8 8v0
q-1 6 -1 12t-1 11t-4 8t-10 3q-5 0 -8 -3zM175 79v1v0l1 1l1 1h6q6 0 10.5 -2.5t7 -6.5t3.5 -9.5t1 -12.5v-3v-3.5t-0.5 -6t-1 -6t-0.5 -4.5l-2.5 -2.5t-3.5 -2l-4 -1t-3 -0.5h-39q-6 0 -9.5 2t-5 5.5t-2 7.5t-0.5 9q0 3 -0.5 8.5t0 11.5t2.5 10t6 4q0 -7 -1 -15.5t-1 -16.5
t2.5 -12t6.5 -5.5t10 -1t13 0.5h3h4h5h3q3 1 5.5 2.5t2.5 4.5v1v6.5t-0.5 9l-1 9t-0.5 6.5q-1 2 -4 3l-6 2t-5.5 2t-2.5 3z" />
</svg>
