<?xml version="1.0" standalone="no"?>
<!DOCTYPE svg PUBLIC "-//W3C//DTD SVG 1.1//EN" "http://www.w3.org/Graphics/SVG/1.1/DTD/svg11.dtd" >
<svg xmlns="http://www.w3.org/2000/svg" xmlns:xlink="http://www.w3.org/1999/xlink" version="1.1" viewBox="-10 0 266 256">
   <path fill="currentColor"
d="M84 243q0 1 1 3t3 3h17h17h10h16t18.5 -0.5t18.5 -0.5t16 -0.5t11 -0.5q2 -1 2.5 -2t0.5 -3v-3t-1 -2h-7q-11 0 -22.5 1.5t-22.5 1.5q-1 0 -4 -1t-3 -3v-52l0.5 -1t1.5 -1t3.5 -1.5t3.5 -1.5h43v-2.5t-0.5 -2.5t-1.5 -2.5t-2 -1.5h-48v-21q0 -1 0.5 -1.5t1.5 -0.5
q2 -2 6 -7t8.5 -10t8.5 -9t5 -4q5 0 7.5 4t4.5 9.5t4 10t6 4.5h1l2.5 -2.5l1.5 -1.5q0 -4 -3.5 -9.5t-8.5 -11t-10 -9.5t-8 -4h-1h-1q-3 4 -5.5 8t-5 7.5t-5.5 6.5t-7 6q-2 -1 -3 -3t-1 -4v-1q0 -1 0.5 -4t0.5 -6t0.5 -6t0.5 -4v-1v-1q0 -3 -1 -4.5t-1 -4.5t2.5 -5.5t5.5 -4
l6 -3t4 -2.5q3 -2 4.5 -4.5t3.5 -4.5t4 -3.5t6 -1.5t6 3.5t3.5 7t4 6.5t6.5 3q2 0 3.5 -0.5t1.5 -2.5q0 -3 -3.5 -8.5t-8 -10.5t-8.5 -9t-6 -4h-1l-3.5 3.5t-5.5 6t-5.5 6t-3.5 4.5q-1 0 -2 1.5t-2.5 2.5t-2.5 2t-2 1h-0.5h-0.5q-4 0 -4 -2v-5q0 -15 4 -22.5t11 -12t16 -8
t19 -9.5v-1v-1q0 -3 -1.5 -4.5t-4.5 -1.5h-1h-1l-1 0.5t-2 1.5t-2.5 1.5l-1.5 0.5q-5 2 -11 4.5t-12 5.5t-10.5 8t-6.5 12q-3 31 -4 63t0 63q-12 2 -24 2.5t-24 -0.5q-2 1 -3 2.5t-1 3.5q0 1 0.5 2.5t2.5 1.5h6q11 0 21.5 -1t21.5 -1v54l-3 3h-57l-1 1t-1 2v1zM86 147
q0 1 1.5 1.5t2.5 0.5q4 0 6.5 -4.5l5 -9t5.5 -8.5t7 -4q2 0 4.5 2.5t5 5.5t4.5 6.5t4 5.5h2q1 0 2 -0.5t1 -2.5q0 -3 -1 -6t-3 -5.5t-4.5 -5t-3.5 -4.5l-2.5 -2.5t-3 -3.5t-3 -3.5l-2.5 -2.5q-1 1 -5.5 6.5t-9.5 12t-9 13t-4 8.5zM44 46q-1 0 -1.5 0.5t-0.5 1.5v71q0 7 1 11
t4 6.5t7 3.5t9 1q4 0 7.5 -1t7 -2.5t6 -4.5t2.5 -8v-38l2 -3v-34q0 -5 -3 -6t-6 -1v34h-28v-23q0 -2 -2.5 -5t-4.5 -3zM49 100v-6q0 -5 2 -7q7 -1 14 -1.5t14 -0.5v5v8v7.5v5.5q0 5 -1 10t-6 8h-3.5h-3.5q-7 0 -10 -2t-4.5 -6.5t-1.5 -9.5v-11zM119 53q-4 0 -8.5 3.5t-8 8
t-6 10t-2.5 9.5q4 0 7 -2.5t5.5 -5.5t5.5 -6t7 -3q1 0 1.5 0.5t1.5 0.5l12 13q0 1 0.5 1h0.5q2 0 3.5 -1t0.5 -4q0 -2 -2.5 -6t-6 -8t-6.5 -7t-5 -3z" />
</svg>
