<?xml version="1.0" standalone="no"?>
<!DOCTYPE svg PUBLIC "-//W3C//DTD SVG 1.1//EN" "http://www.w3.org/Graphics/SVG/1.1/DTD/svg11.dtd" >
<svg xmlns="http://www.w3.org/2000/svg" xmlns:xlink="http://www.w3.org/1999/xlink" version="1.1" viewBox="-10 0 266 256">
   <path fill="currentColor"
d="M50 247q0 4 4 4t6.5 -2.5t3.5 -6t1.5 -7.5t0.5 -7v-7v-12v-12v-7q0 -4 0.5 -13t0.5 -20.5v-24t0.5 -24t0.5 -20.5v-13l4 -1t9 -2.5t9.5 -2.5t5.5 -2q5 -2 6.5 -5t2 -5.5l1 -5t2 -4.5t5.5 -3t12 -1h11q1 1 1.5 4.5t1.5 7.5l2 8t4 4l35 5l2 2v2.5t0.5 6t0.5 5.5
q2 15 1.5 30t0.5 30q0 2 0.5 7t1 12t1 14.5t1 14t0.5 11.5t1 7v7.5t0.5 11.5t2 10.5t4.5 4.5t5 -3t2 -6v-1.5t-2 -1.5q-2 -19 -3.5 -40.5t-4.5 -40.5v-3.5t-0.5 -5t-0.5 -4.5v-3v-9v-15v-15v-9t-0.5 -8t-0.5 -12.5t-0.5 -12.5t-0.5 -9l-1.5 -2t-3.5 -4.5t-3 -2.5
q-3 -1 -8 -2t-11.5 -1t-12.5 -0.5t-11.5 -1t-8.5 -1.5t-3 -4v-17q0 -1 -1.5 -1.5l-1.5 -0.5h-1h-1l-1.5 0.5t-1.5 1.5q-1 0 -1.5 0.5l-0.5 0.5v19q0 3 -4 3.5t-10 1t-13 0.5t-13 1.5t-11 4t-5 7.5q-1 2 -1 7.5t-1 11.5t-1 11.5t-1 7.5v1q0 6 1 12t1 12q0 27 -1 54l-2 54
q0 4 -1.5 7.5t-2.5 6.5t-2 5.5t-1 5.5zM92 217q1 3 5.5 4.5t6.5 2.5h4h4.5h5.5h3h11t11.5 -0.5t9.5 -3.5t7 -9q0 -2 0.5 -5.5t1 -8t1 -8.5t0.5 -5v-2v-2q0 -3 -1.5 -5.5t-5.5 -2.5q-1 0 -1 1q-1 0 -2 0.5l-1 0.5v10h-11v-28l0.5 -2t1 -4.5t1.5 -4.5t3 -2q4 0 5.5 3t2.5 6.5
t2.5 6t5.5 2.5h2.5t1.5 -1q1 -3 -0.5 -6t-3.5 -5.5t-3.5 -5.5t-1.5 -5q0 -4 1.5 -5.5t4 -2.5t4 -2.5t1.5 -4.5h-14q-2 0 -2.5 -2.5l-1 -5t0 -5l0.5 -2.5v-3v-3l4 -3h18l0.5 -0.5l0.5 -0.5v-1v-1q-1 -1 -5 -2t-7.5 -2t-6.5 -2.5t-3 -4.5q0 -1 1 -3l1 -2v-1v-1q0 -2 -1 -3.5
t-3 -1.5q-3 0 -3.5 2t-1.5 4.5t-2.5 4.5t-6.5 2h-4t-3 -1q0 -1 -0.5 -3t-0.5 -4t-0.5 -3.5t-0.5 -2.5q-1 -1 -2 -3t-2 -2q-3 0 -3.5 1.5t-0.5 4v5.5t-1 5.5t-4 4t-8 1.5h-1q0 -4 -3.5 -8t-8.5 -4q0 4 1.5 6.5t1.5 5.5q0 4 -3 5t-6.5 1.5t-6 1t-2.5 3.5q0 2 2 2h3
q3 0 5.5 -1.5t5.5 -1.5t3 1.5v3.5q0 6 -1 11t-2 11l-1.5 1.5t-1.5 0.5q-4 0 -6.5 -1.5t-6.5 -1.5h-3t-2 2q0 3 3 4l6 2t6 2.5t3 4.5t-2.5 5.5t-5.5 4.5t-5.5 4.5t-2.5 5.5q0 1 1.5 1h2.5q4 0 6 -2.5t3.5 -5.5t3.5 -5.5t5 -2.5q4 0 6.5 6t4 13t2 12.5t2.5 5.5t3 -3t1 -5
q0 -12 -5 -24q-1 -2 -2.5 -4.5t-3 -4.5t-3 -4.5t-1.5 -4.5l0.5 -1t0.5 -2t0.5 -5.5t1 -9.5t0.5 -9t1 -6q1 -3 4 -4t6.5 -1.5t6.5 -0.5h6q3 0 7.5 -0.5t7.5 1.5q0 8 0.5 18t0.5 19q0 4 -2 7t-4 5.5t-4 5.5t-2 6v31q-9 0 -17.5 0.5t-17.5 0.5q-3 0 -4 -2t-1 -4t-0.5 -3.5
t-2.5 -1.5h-2t-1 2v0.5v0.5q0 2 0.5 7.5t1.5 11.5t1.5 11.5t1.5 7.5zM94 200q0 -3 4 -4t9.5 -2t12.5 -1.5t12.5 -0.5h9.5h4h6q1 0 1 1.5v2.5q0 2 -0.5 5.5t-2.5 6.5t-4.5 5t-6.5 2h-30q-3 0 -5.5 -1.5t-4.5 -3.5t-3.5 -5t-1.5 -5zM97 45q0 7 -2.5 11t-6.5 6t-9 2.5t-11 0.5
q0 -7 2.5 -10.5t7 -6t9.5 -3t10 -0.5zM145 50v-2.5v-1.5l3 -1h27q2 0 3 1.5t2 4t1.5 5l0.5 2.5q0 2 -1 3.5t-3 2.5h-6q-3 0 -8 -0.5t-9 -2t-7 -4.5t-3 -7z" />
</svg>
