<?xml version="1.0" standalone="no"?>
<!DOCTYPE svg PUBLIC "-//W3C//DTD SVG 1.1//EN" "http://www.w3.org/Graphics/SVG/1.1/DTD/svg11.dtd" >
<svg xmlns="http://www.w3.org/2000/svg" xmlns:xlink="http://www.w3.org/1999/xlink" version="1.1" viewBox="-10 0 266 256">
   <path fill="currentColor"
d="M94 185q1 0 2.5 1.5l2.5 2.5t2.5 2t3 2.5t2.5 3t2 1.5q2 5 4.5 12.5t4.5 16t4 15.5t6 9q1 -1 2.5 -7t3 -13t2.5 -14t3 -11q0 -1 1.5 -4.5t3.5 -7.5t4 -7.5t2 -4.5l0.5 -2t1.5 -2h-4h-4q-2 0 -7 0.5t-11 1t-11 1t-6 0.5h-1h-1q-1 0 -2 -0.5t-2.5 -0.5t-2.5 -1t-1 -2v-1
q0 -1 1.5 -2l1.5 -1q3 -2 7 -7l8 -10t7 -8.5t5 -3.5q1 0 3 1.5t3.5 4t3 4.5t2.5 3q4 5 9.5 8t12.5 6q0 4 1.5 11t4 14.5t5.5 15.5t7 14.5t8 10.5t7 4q2 0 2.5 -1t0.5 -3q0 -1 -1.5 -3.5t-4.5 -5.5t-5 -6t-3 -5q-6 -12 -10.5 -26t-4.5 -28q0 -9 3 -17.5t3 -17.5q0 -4 -1.5 -7
t-3 -5.5l-3 -5t-1.5 -4.5q0 -5 3.5 -12t7.5 -14.5t7 -14t3 -9.5q0 -2 -1 -2.5t-3 -0.5t-7.5 0.5t-11.5 1.5t-11 2.5t-6 3.5q2 4 4 8.5t4.5 8.5t4.5 8.5t2 8.5v2t-0.5 2.5t-1 2.5t-2.5 1h-23q-3 0 -3.5 -1t-0.5 -3v-1t1 -2q0 -2 0.5 -7.5t1 -12t0.5 -12t1 -7.5q0 -1 2 -3
l4.5 -4.5l4.5 -4.5l3 -3q2 0 5.5 -0.5t8 -1t8.5 -1t5 -0.5h6t8 -0.5t7 -1t3 -3.5q0 -2 -2.5 -2.5t-4.5 -0.5q-33 0 -65 2.5t-65 3.5v6q12 0 24 -1t24 -1q3 0 6 2t4.5 6t2.5 7.5t1 6.5v38q0 1 -1 2.5t-2 2.5q-6 0 -12 1.5t-11 1.5q-3 0 -3.5 -2t-0.5 -4q0 -3 1 -7.5t2.5 -9
t3 -8.5t3 -7t2.5 -3.5l2 -1t1 -1.5v-4h-9q-2 0 -7 0.5t-10.5 1t-10.5 0.5h-7v0.5v0.5v1l1 1t1 2l2 2.5t4.5 5t4 5t2.5 3.5l1.5 3.5t3 7.5l3 8t1.5 5l1 1t1 2v0.5v0.5v1v1q-6 6 -9.5 11.5t-3.5 13.5q0 7 1.5 13.5t1.5 12.5q0 17 -3 31.5t-11 28.5q-1 3 -3.5 5l-5 4t-4 4
t-1.5 5q0 2 1 2.5t2 0.5q6 0 10 -4.5t7.5 -11t6.5 -14.5t5 -15t3.5 -11.5t3.5 -4.5zM112 189v-1v-1q1 0 4 -1t4 -1h4h6h7h4q0 2 -2 6t-4 8.5t-4.5 9t-4.5 5.5q-1 -1 -3.5 -4.5t-5 -7.5t-4 -8t-1.5 -5zM91 166v-4.5t-0.5 -7t-0.5 -7v-5.5l-0.5 -1.5t-0.5 -2.5q0 -7 4 -12
t9.5 -7.5t12 -4t11.5 -1.5q0 1 0.5 4.5t0 7t-1.5 6.5t-4 3h-17q-1 0 -3 1.5t-2 3.5v0q1 2 3.5 2h5.5h4h3t1.5 1.5t0.5 2.5q0 3 -1.5 5.5t-3.5 4.5l-3 3l-4.5 4.5l-4.5 4.5t-2 3h-2h-1q-1 0 -2.5 -0.5t-1.5 -3.5zM139 141q0 -3 2 -3.5t4 -0.5t4 -1t2 -5h-18v-19h23q4 0 6 2
t3 4.5t1 6v5.5q0 6 -0.5 12t-1.5 12q0 1 -0.5 4.5l-0.5 3.5h-7l-2 -2l-4.5 -4.5l-5 -5t-3.5 -4.5q-2 -2 -2 -5zM83 73q0 -1 1.5 -2t3 -1.5t3 -0.5h3.5q1 0 2.5 0.5t1.5 3.5l-0.5 2.5t-1.5 5t-2 4.5t-2 2h-1l-1 -2q-1 0 -2 -2t-2 -3.5l-2 -3t-1 -2.5v-1zM158 67v-2q0 -2 1 -2
h16q0 2 -0.5 4.5t-2 5t-3.5 4.5t-4 2t-3 -1.5l-2 -3t-1.5 -4t-0.5 -3.5zM124 42h17q0 5 -3.5 6t-6.5 1h-5q-2 -3 -2 -7zM82 12q-2 1 -2.5 2.5t-0.5 2.5h79l13 -2l0.5 -1t0.5 -2l-0.5 -0.5l-0.5 -0.5q-7 -2 -13.5 -2h-13.5h-16q-3 0 -9.5 0.5t-14 1t-14 1t-8.5 0.5z" />
</svg>
