<?xml version="1.0" standalone="no"?>
<!DOCTYPE svg PUBLIC "-//W3C//DTD SVG 1.1//EN" "http://www.w3.org/Graphics/SVG/1.1/DTD/svg11.dtd" >
<svg xmlns="http://www.w3.org/2000/svg" xmlns:xlink="http://www.w3.org/1999/xlink" version="1.1" viewBox="-10 0 266 256">
   <path fill="currentColor"
d="M43 136q0 11 3 21.5t8 18.5q6 12 14 18.5t17.5 9.5t20 3.5t22.5 0.5h5h8h8h5q10 -2 18 -4.5t15.5 -7t13 -11t8.5 -16.5q0 -1 1 -3t1.5 -3.5l1 -3l0.5 -1.5v-47q0 -10 -4.5 -18t-12 -14.5t-16.5 -11t-19 -7.5t-19.5 -4.5t-17.5 -1.5q-18 0 -32.5 6t-25.5 16.5t-17 26
t-6 33.5zM79 181q0 -3 1.5 -6t3.5 -5l4 -4t4 -5q6 -6 8 -15t2 -17q0 -7 -2.5 -16.5t-7.5 -16.5l-1.5 -1.5t-2.5 -3.5l-2 -4t-1 -3q0 -5 4.5 -7.5t10.5 -4.5t12 -3t7 -1q3 0 5.5 3.5t2.5 6.5q0 6 -1 12.5t-1 13.5q0 15 0.5 30t1.5 29q0 7 2 13t2 13q0 3 -1.5 5.5t-4.5 4.5
h-3.5h-3.5q-3 0 -9 -2t-13 -4.5t-12 -5.5t-5 -6zM140 180q-1 0 -1.5 -0.5t-0.5 -1.5t0.5 -3.5t1.5 -3.5v-56q-2 -9 -3 -18.5t-1 -18.5v-8q0 -2 3 -2h3t7 1t13 3t12.5 4.5t5.5 5.5t-3.5 7t-8.5 10.5t-8.5 14t-3.5 17.5q0 7 1 12t3 9.5t5 9t8 9.5l1.5 2t3.5 4t3.5 4.5t2.5 3.5
q-4 3 -8 5t-9 3.5t-9.5 2.5t-8.5 1q-1 0 -2.5 -0.5t-3 -0.5t-2.5 -1t-1 -2v-13zM167 132q0 -18 9 -34q1 -1 2 -2.5t2.5 -3t2 -2.5t1.5 -1h3l1 2t2.5 4t2.5 3q5 11 6 22t1 22q0 6 -0.5 9.5t-1.5 7t-2.5 7.5t-4.5 8l-1.5 1.5l-0.5 0.5h-1q-3 0 -7 -5.5t-7 -13t-5 -14.5t-2 -11
zM60 132v0v-6.5t0.5 -7t0.5 -6v-2.5q1 -2 2 -5.5t2.5 -7t3.5 -6t5 -2.5q4 0 5 4l12 33v2.5v2.5q0 3 -1.5 10t-4.5 13.5t-6 11.5t-7 5q-5 0 -7.5 -5t-3.5 -12t-1 -13v-9z" />
</svg>
