<?xml version="1.0" standalone="no"?>
<!DOCTYPE svg PUBLIC "-//W3C//DTD SVG 1.1//EN" "http://www.w3.org/Graphics/SVG/1.1/DTD/svg11.dtd" >
<svg xmlns="http://www.w3.org/2000/svg" xmlns:xlink="http://www.w3.org/1999/xlink" version="1.1" viewBox="-10 0 266 256">
   <path fill="currentColor"
d="M85 243q1 4 1.5 5.5t2.5 1.5q4 0 5.5 -2t2.5 -4.5t1.5 -5.5t0.5 -5q0 -14 -1 -28t-1 -28v-11q0 -2 1 -3t3 -1.5t3.5 -0.5h1.5h3h6h5h3q2 0 5.5 -0.5t8 -1t8.5 -1t6 -0.5q4 0 4 -5q0 -3 -3 -4.5t-5 -1.5q-7 0 -15.5 2t-16.5 2h-3t-4 -0.5t-3 -0.5h-2l-3 -1q0 -1 -0.5 -2
t-0.5 -2q0 -7 6.5 -10.5t14.5 -5t16.5 -1t12.5 0.5h9q3 1 5 6.5t3 13.5t1.5 17t1 17.5t0.5 16v11.5q0 6 -1 11.5t-1 11.5v4q0 4 1 5q0 3 2.5 3.5t4.5 0.5t5 -1t3 -4v-37q-3 -6 -4 -12.5t-1 -12.5v-12q0 -7 -1 -13t-1.5 -12t-2 -11.5t-5.5 -9t-12 -3.5h-2q-3 0 -8 0.5t-9.5 1
t-8.5 0.5h-5q-5 1 -10.5 1.5t-10.5 2t-8.5 5t-5.5 10.5q-2 5 -2.5 10.5t-0.5 11t-0.5 11t-1.5 10.5v1q0 16 1 30t1 29zM45 107q0 2 0.5 3t2.5 2h6q11 0 21.5 -3t21.5 -4q21 -1 41.5 -1.5t41.5 -1.5h3.5t5.5 -0.5t5.5 -0.5h3.5t3 -1l4 -2t3 -2t1 -3q0 -3 -2.5 -3h-4.5
q-14 0 -28.5 1.5t-28.5 1.5h-5l-3 -3v-12l5 -4q9 0 16 -1t11.5 -4t6.5 -8.5t2 -16.5v-10t-1 -11q-1 0 -2 -1t-1 -2h-1q-1 0 -3 1t-2 2v17t-1.5 13.5t-7 8.5t-15.5 3q-3 0 -5 -1t-2 -5v-42q0 -6 -6 -6q-2 0 -4 1t-2 4v35q1 2 1 4v4v3.5t-3 2.5h-5q-13 0 -19 -3t-9 -7.5
t-4 -10t-1.5 -10t-1.5 -8t-6 -3.5q-2 0 -3 2.5t-1 4.5v3v1t0.5 2.5t0.5 2.5v1q2 8 2.5 13.5t3 9.5t7 6.5t13.5 3.5q1 0 4.5 0.5t7 0.5h7h4.5q4 2 4.5 6t0.5 7q0 6 -6.5 8.5t-15.5 3t-19.5 0t-20 -0.5t-15.5 2t-6 7z" />
</svg>
