<?xml version="1.0" standalone="no"?>
<!DOCTYPE svg PUBLIC "-//W3C//DTD SVG 1.1//EN" "http://www.w3.org/Graphics/SVG/1.1/DTD/svg11.dtd" >
<svg xmlns="http://www.w3.org/2000/svg" xmlns:xlink="http://www.w3.org/1999/xlink" version="1.1" viewBox="-10 0 266 256">
   <path fill="currentColor"
d="M132 195q0 1 0.5 6t2 11t3.5 13t4 12.5t4 9.5t4 4t5 -2t3 -4t-1 -4t-2.5 -4l-3 -4t-2.5 -4q-3 -7 -4.5 -17.5t-1.5 -18.5q0 -3 1 -7t3 -7t5 -5t7 -2h2q6 10 11 22t9 23q1 2 2.5 6.5t3.5 8.5t5 7t6 3q2 0 4 -1t2 -4t-2.5 -6.5t-3.5 -5.5q-2 -4 -6.5 -11.5t-9 -15.5
t-7.5 -15t-3 -11q0 -3 2.5 -4t5.5 -2t5.5 -3t3.5 -6q0 -3 -1 -5t-2 -3.5t-2 -3.5t-1 -5q0 -1 2 -4.5t4.5 -7.5t4.5 -8.5t3 -9.5v-21v-12q0 -5 -0.5 -9.5t-0.5 -9.5t-1 -12q-1 -8 -4 -11t-8 -4t-11 -1h-13h-12q-6 2 -10 6.5t-6 10.5t-3 13.5t-1 14.5v13v10q0 16 1.5 24.5
t6.5 12t14 4t25 -0.5q1 3 2 6.5t1 6.5q0 5 -3.5 7.5t-8.5 4t-11 3t-11 5t-8 9t-3 15.5zM51 164q0 2 0.5 4t3.5 3q9 -2 17.5 -3.5t17.5 -1.5q2 0 6 -0.5l8 -1t6.5 -2t2.5 -4.5q0 -1 -0.5 -2t-2.5 -1h-17q-2 0 -3 -1.5t-1 -2.5v-19v-18q0 -3 0.5 -8t1 -9t1 -7.5l0.5 -3.5l3 -3
h3t6 -0.5t5.5 -2t2.5 -3.5t-1.5 -3.5t-3.5 -1.5h-3h-4.5t-4.5 0.5t-3 0.5q0 -12 1.5 -24t1.5 -24q0 -5 -1 -8.5t-7 -3.5h-2.5t-2.5 2v49q0 2 -0.5 5t-2.5 5h-6.5t-9 0.5t-8 1.5t-3.5 4q0 4 2.5 5t5.5 1q6 0 11 -2t11 -2q0 18 -0.5 36.5t-2.5 36.5q-2 4 -6.5 4.5t-9 0t-8.5 0
t-4 4.5zM141 129q-2 -1 -3 -3.5l-2 -5t-1 -5v-4.5v-2t1 -2q2 0 6 -0.5t9 -1t9 -1t6 -0.5h10h10q1 2 1 3v2q0 7 -2.5 11.5t-7.5 7t-10.5 3.5t-11.5 1q-1 0 -3 -0.5l-4 -1l-4 -1t-3 -0.5zM181 70h2q0 1 1.5 1.5l1.5 0.5v23l-3 3h-48v-20q0 -2 3 -3t8 -2t11 -1.5t11 -0.5
t9 -0.5zM136 61q0 -7 2.5 -11.5t6.5 -7t9 -3.5t11 -1h12q3 1 4.5 3.5t2.5 5t1.5 6t0.5 5.5q0 5 -5 6.5t-11.5 2t-13 0t-9.5 -0.5h-4q-1 0 -3 -0.5t-3 -1.5t-1 -3z" />
</svg>
