<?xml version="1.0" standalone="no"?>
<!DOCTYPE svg PUBLIC "-//W3C//DTD SVG 1.1//EN" "http://www.w3.org/Graphics/SVG/1.1/DTD/svg11.dtd" >
<svg xmlns="http://www.w3.org/2000/svg" xmlns:xlink="http://www.w3.org/1999/xlink" version="1.1" viewBox="-10 0 266 256">
   <path fill="currentColor"
d="M199 248q1 1 2.5 2t2.5 1q4 0 5 -2.5t1 -5.5q0 -1 -1 -7.5t-3 -13.5t-4 -13.5t-5 -7.5q-3 -2 -9.5 -2.5t-13 -1.5t-11.5 -3.5t-5 -9.5q0 -8 3.5 -12t9.5 -6.5t12 -4.5t12 -6t9.5 -12.5t3.5 -23.5q0 -19 -1 -37.5t-3 -36.5q-2 -7 -4 -11.5t-6 -7t-9 -3t-12 -0.5h-2h-6
t-9 0.5t-9 0.5h-6l-1.5 3t-0.5 2q0 2 0.5 2.5t3.5 0.5l2 0.5t4 0.5t3.5 0.5t2.5 0.5l2 1q0 7 1.5 14.5t1.5 14.5q0 2 -1 4.5t-5 2.5q-5 0 -6.5 -4t-2 -9t-1.5 -9t-4 -4q-2 0 -3 1.5t-1 3.5q0 3 0.5 7t1.5 8t3 7.5t5 5.5l2 0.5l4 1t4 0.5t2 1l0.5 0.5t1.5 0.5q0 8 1.5 16.5
t1.5 16.5q0 2 -1.5 2.5t-4.5 0.5q-5 0 -6 -3.5t-1 -7.5t0.5 -7.5t-3.5 -3.5q-1 0 -1.5 0.5l-1.5 1.5v4v4q0 10 2.5 14.5t6 6t6.5 2t4 2.5v4.5t0.5 7.5t0.5 7.5v4.5v1v1q-7 7 -10.5 14t-3.5 17q0 8 3 11.5t7.5 4.5t10 0.5t10.5 0.5t9 4t6 10q0 2 0.5 4t1 4.5t1 4t0.5 2.5v2v4
v5v3zM54 206v2.5t1 1.5h6h8t13.5 -1t15 -1.5t14 -1.5t10.5 -2t4 -2t-0.5 -3t-1.5 -2h-22q-2 0 -3 -2t-1.5 -5t-0.5 -6v-4q0 -3 2 -5t4.5 -2.5t6 -1t6.5 -0.5l1.5 -1t1.5 -2v-1v-1q0 -1 -1.5 -2l-1.5 -1h-17l-0.5 -3.5t-1.5 -5.5v-2.5t-0.5 -3.5t-0.5 -4v-3l-0.5 -1t-1 -2.5
t-1 -2.5t-1.5 -1h-1l-0.5 0.5l-0.5 0.5v27l-4 3l-21 3q-1 0 -2 1.5t-2 1.5v1q0 2 3 3t5 1q4 0 8.5 -1.5t9.5 -1.5h1.5t1.5 1v21q0 1 -2 3t-3 2h-27q-2 0 -3 2.5t-1 3.5zM171 131q7 -2 11 -5t5.5 -7t1.5 -10v-13q0 -3 -0.5 -5t-3.5 -2l-0.5 0.5t-1.5 0.5v3t-0.5 4t-0.5 4v3
q-1 2 -1 4.5t-1 4.5t-2 3.5t-3 1.5h-3q-1 0 -1 -1q-1 -2 -1 -6.5t-1 -9.5t-1 -9.5t-1 -6.5v-1q0 -4 2.5 -5.5t5.5 -3t5.5 -3t2.5 -4.5v-22q-1 0 -2 -0.5t-2 -0.5t-1.5 0.5t-0.5 2.5q0 1 -0.5 3t-0.5 4.5t-0.5 5t-0.5 3.5l-3 3v0q-2 0 -3.5 -2t-2 -5t-0.5 -5v-2v-4.5v-6.5
t-0.5 -6t-0.5 -4h5h6.5t6.5 0.5t5 1.5q3 1 5 5t3 8t1 8v7q0 2 0.5 5.5t0.5 7.5t0.5 7.5t0.5 4.5v2v6v6v5v3v6v6v3q-2 6 -2.5 10.5t-2 7.5t-4 5.5t-8.5 4.5q-3 2 -5.5 2h-5.5v-23zM54 149q0 2 0.5 2.5t1.5 0.5q9 0 12.5 -4t5 -11t1 -14.5t0.5 -14t3.5 -11t10.5 -4.5
q4 0 6.5 0.5t4.5 4.5q0 5 -0.5 13t0.5 15.5t5 13t12 5.5q2 0 4.5 -0.5t2.5 -3.5t-2.5 -4t-6 -3t-6.5 -6.5t-3 -15.5q0 -2 1 -3.5t4 -1.5q2 0 4.5 1.5t5 3.5t4.5 3.5t5 1.5t4 -3t1 -5q0 -3 -3 -4t-5 -3l-7 -3.5t-10.5 -6t-10.5 -6t-6 -4.5q-3 0 -3.5 -2.5t-0.5 -4.5
q0 -5 2 -6.5t5.5 -2t6.5 -1t5 -3.5q2 -2 3 -7t2 -10.5t1 -10.5v-8q0 -4 -1.5 -5t-4.5 -1t-4 2.5t-1 7t0.5 9t0 9t-3 7t-7.5 2.5h-2.5t-0.5 -3v-33q-1 -4 -1.5 -7.5t-4.5 -3.5q-2 0 -3 0.5t-1 3.5v28l1 2l1 2v2q0 1 -0.5 3l-1 4t-1.5 3t-2 1q-6 0 -9 -4t-4.5 -9.5t-1 -11.5
t0.5 -10q-1 0 -2.5 -2t-2.5 -2v0h-1q-1 0 -2 1t-1 2v8v8t0.5 10.5t2.5 9.5t6 6q3 2 6.5 2.5t6.5 1.5t4.5 3t1.5 6q0 3 -1.5 5.5t-4 4t-4.5 3.5l-4 4q-2 1 -4.5 3.5l-6 6l-6.5 6.5l-4 4t-1 2v3q0 1 0.5 2t1.5 1q3 0 5 -1.5t4 -3.5l4 -4t5 -2v4v6v6v4l-0.5 2t-0.5 3
q-1 2 -3 3.5t-4 2.5t-3 2.5t-1 3.5z" />
</svg>
