<?xml version="1.0" standalone="no"?>
<!DOCTYPE svg PUBLIC "-//W3C//DTD SVG 1.1//EN" "http://www.w3.org/Graphics/SVG/1.1/DTD/svg11.dtd" >
<svg xmlns="http://www.w3.org/2000/svg" xmlns:xlink="http://www.w3.org/1999/xlink" version="1.1" viewBox="-10 0 266 256">
   <path fill="currentColor"
d="M177 203q3 0 5.5 3.5t4.5 9t3.5 11.5t3.5 11.5t3.5 9t4.5 3.5t5 -1.5t2 -4.5v-1q-2 -5 -4.5 -10t-4.5 -10q-1 -1 -2.5 -5t-3.5 -8t-3.5 -7.5t-1.5 -4.5v0v-1q5 -6 7 -12t2 -13q0 -9 -6.5 -14.5t-15.5 -5.5h-4q-3 0 -10.5 0.5t-16 1t-16 0.5h-10.5q-2 1 -2 1.5v1.5v2t2 1
h62q4 0 6 3.5t2 6.5v3t-0.5 4t-0.5 3.5t-1 2.5q-1 3 -4 3q-2 0 -3.5 -1.5t-4 -3t-5.5 -3t-7 -1.5h-5h-7t-10.5 0.5t-10.5 0.5h-7t-3 0.5t-1 2.5t1.5 3.5t3.5 1.5h1q1 0 4.5 -0.5t8 -1t8 -1t4.5 -0.5h2h3h3h3q0 1 2 1t4.5 0.5t4.5 2t2 5.5v2t-1 2q-15 1 -29.5 3t-29.5 4
q-1 1 -1.5 2t-0.5 2v1q3 2 5 2h5q7 0 14 -1.5t13.5 -3t13.5 -2.5t14 -1zM42 153q0 4 2 5q0 1 2 1h2q13 0 27 -3t28 -4q2 0 2.5 -1t0.5 -2q0 -2 -1 -3h-11t-11 -2q-1 0 -1.5 -0.5t-0.5 -1.5v-5v-5v-6v-4q0 -2 0.5 -7t0.5 -10t0.5 -10t0.5 -7q1 -2 4 -2.5l6 -1t6 -0.5t6 -2v-1
v-1q0 -2 -0.5 -3t-2.5 -1h-18l-3 -2v-2v-3q0 -12 1.5 -23t1.5 -22v-10q0 -2 -1.5 -2h-2.5q-4 0 -5 2t-2 6v46v2.5t-0.5 3t-0.5 3v2.5t-0.5 2t-1.5 1h-22l-0.5 1.5t-0.5 2.5v1v2t1 1t3 0.5t3 0.5q4 0 7.5 -1t6.5 -1q4 0 4.5 3.5t0.5 7.5v3v6t-0.5 8.5t-0.5 8.5v6q-1 0 -1.5 2
l-0.5 2q0 1 0.5 2t0.5 2t0.5 2l0.5 1v2q0 2 -0.5 3t-2.5 1l-25 3q-2 1 -2 2v1zM155 111v9q0 7 0.5 14t1 12t3.5 5l0.5 -0.5l0.5 -0.5l1 -0.5l1 -0.5v-38q0 -2 3 -2h3q5 0 7.5 4t4 9t1.5 10t1 7q0 1 1 2t2 1v0.5v0.5q2 0 3 -1.5t1.5 -3.5t0.5 -4v-3q0 -3 -1 -7.5t-3 -9
t-4.5 -7.5t-6.5 -4l-1.5 -0.5t-3 -0.5t-3 -0.5l-1.5 -0.5q-3 -1 -4 -2.5t-1 -3.5t1 -4.5t4 -2.5h19q5 0 7.5 5.5t4.5 11.5t5 11t8 5q0 -5 0.5 -9t-2.5 -7q0 -1 -2 -3.5t-3.5 -5l-3 -5t-2.5 -3.5q-3 -4 -9 -5t-12 -1t-10.5 -1.5t-4.5 -5.5q0 -5 2.5 -8t5.5 -5.5t7.5 -3.5
t8.5 -3v0v0q5 0 8.5 3t6 6.5t5 6.5t5.5 3t4 -2t1 -4q0 -4 -2.5 -7t-6 -5.5t-7.5 -4t-6 -4.5q0 -1 0.5 -3.5t0.5 -5.5t-0.5 -5.5t-2.5 -4.5q-4 -5 -12 -7.5t-17.5 -3.5t-19 -1.5t-14.5 -0.5h-3h-3.5t-3 1t-1.5 2q0 3 2.5 4t6 1h6h3.5q2 0 7.5 0.5t12 1t12 1t7.5 0.5
q4 0 6.5 3t2.5 7v5.5t-4 2.5h-2l-1.5 -0.5t-2.5 -1t-2.5 -1l-1.5 -0.5q-6 -1 -11 -2t-9 -1t-8.5 -0.5t-9.5 -0.5q-8 0 -14.5 0.5t-14.5 1.5v2v1.5t2 1.5q8 0 15.5 -0.5t14.5 0l14 1t15 1.5q2 0 6 0.5t4 3.5t-3 4.5l-5 2.5l-51 3v1v0q1 1 2 2.5t2 1.5h36l0.5 1t0.5 2v3v1v5.5
t-3 4.5q-11 1 -18 2.5t-11 5.5t-6.5 11.5t-5.5 18.5v3q0 3 0.5 4t2.5 1q3 0 4 -2t1 -4q1 -1 1 -3t0.5 -4.5t1 -4.5l0.5 -2q1 -1 2 -3.5t2.5 -5t2.5 -5t1 -3.5q4 -3 10 -3.5t11 -0.5h1.5t1.5 1v15q-6 0 -10 3.5t-7.5 9t-5 11t-1.5 10.5q0 2 0.5 3t2.5 1q3 0 5 -2t2.5 -5.5
t0.5 -7.5t1 -7.5t3 -6t6 -2.5h1t2 1z" />
</svg>
