<?xml version="1.0" standalone="no"?>
<!DOCTYPE svg PUBLIC "-//W3C//DTD SVG 1.1//EN" "http://www.w3.org/Graphics/SVG/1.1/DTD/svg11.dtd" >
<svg xmlns="http://www.w3.org/2000/svg" xmlns:xlink="http://www.w3.org/1999/xlink" version="1.1" viewBox="-10 0 266 256">
   <path fill="currentColor"
d="M155 240v2q0 1 0.5 4.5t0.5 4.5h1h1q3 0 4 -0.5t2 -2.5q1 -8 1.5 -16t-0.5 -15q1 -3 3 -5q8 -1 16 -1.5t16 -0.5q4 -1 4 -4q0 -2 -1.5 -2.5l-3 -1t-3 0t-2.5 0.5q-5 0 -10 0.5t-10 0.5h-7q-2 0 -2 -3v-3q0 -4 2 -6t5 -3t7 -1h7t5 -1t2 -3v-1.5t-2 -1.5h-27v-5t1 -5
t2.5 -4t5.5 -2h21q2 0 2.5 -0.5t0.5 -1.5v-2.5t-1 -1.5h-20q0 -6 2 -9t4.5 -4.5t5 -2.5t5 -3t4.5 -6t2 -12q0 -7 -2.5 -11.5t-6.5 -6.5t-9 -3t-12 -1h-8q-4 0 -8 0.5l-8 1t-10 2.5q-4 1 -6 3t-2.5 5.5t-0.5 6.5v6q0 8 1.5 11.5t3.5 5.5t5 3t5 2.5t3.5 4.5t1.5 10h-23
q-1 0 -1.5 0.5t-0.5 1.5t1.5 3t3.5 2l2.5 -1t3.5 -1h1v0q2 0 5 0.5t6.5 0.5t7 0.5t4.5 0.5v13l-3 3h-24q-3 0 -3 1.5v2.5q0 3 0.5 3.5t2.5 0.5q7 0 12.5 -1.5t12.5 -1.5h1l0.5 1l0.5 1v2.5v2.5v3v3l-0.5 1.5l-0.5 1.5l-35 3v1v1q0 3 2 4.5t4 1.5q8 0 15 -1.5t15 -1.5
q0 8 -0.5 13.5t-0.5 12.5zM148 148q0 -1 1 -1h2.5t3.5 -0.5t4.5 -0.5t2.5 -1h3q3 0 3 3q0 4 -1.5 8.5t-6.5 4.5q-1 0 -3 -2l-4 -4t-3.5 -4.5zM50 155q0 4 1.5 4.5t4.5 0.5q11 0 22.5 -1.5t23.5 -2.5q1 0 4.5 -1t4.5 -3q0 -1 -0.5 -2.5t-1.5 -1.5h-18l-0.5 -1l-1 -2t-1 -2.5
l-0.5 -1.5v-45q1 0 4 -0.5l6 -1t5.5 -1t4.5 -0.5q1 0 2.5 -1.5t1.5 -2.5v-1l-1 -1.5t-2 -1.5v0q-4 0 -7 1t-7 1l-2.5 -0.5t-3.5 -0.5t-1 -1v-3q0 -10 1 -21t1 -22v-4q0 -2 -0.5 -5.5t-0.5 -5.5v-4q0 -2 -2 -5.5t-4 -3.5q-4 0 -5 2t-1 5q0 12 1 24t1 25v18l-3 3l-28 3v5h29
v51q0 3 -4 3.5t-9.5 0.5t-9.5 0.5t-4 3.5zM133 131q0 -2 0.5 -3t2.5 -1h53q0 6 -4.5 9t-10.5 3l-2.5 0.5t-6 0.5t-7 0.5t-5.5 0.5h-1q-2 0 -5.5 -0.5t-6.5 -1.5t-5 -3t-2 -5zM133 115q0 -3 4 -5t9 -2.5t9.5 -0.5h5.5h12t12 1l0.5 0.5l1.5 1.5q0 1 1.5 4.5t2.5 4.5l-4 1h-47
q-7 0 -7 -5zM133 77q0 4 1.5 7t5.5 6h12q5 0 10.5 -0.5t10.5 -2t8.5 -5t3.5 -9.5v-7q-4 -5 -10.5 -5.5t-12.5 -0.5q-5 0 -10 0.5t-9 2t-7 5t-3 9.5zM139 78q0 -4 3 -6.5t6.5 -3.5t7.5 -1.5t7 -0.5h5h5q2 2 2.5 3.5t0.5 3.5q0 5 -2.5 7t-6 3t-7 0.5t-6.5 -0.5h-11
q-3 -1 -3.5 -2t-0.5 -3zM109 66q1 2 1.5 2h1.5q3 0 6.5 -2t6.5 -5t6 -5.5t5 -4.5q5 -3 11 -5t11 -4q5 1 12 3.5t12 6.5q2 2 4 4.5t3.5 4.5t4 3t5.5 1q2 0 4.5 -1t2.5 -5t-5.5 -7.5t-13.5 -6t-15.5 -6t-10.5 -7.5v-2.5v-4.5v-5v-3q0 -2 -2 -5t-4 -3q-3 0 -4 3t-1 6v1l0.5 1.5
t0.5 3t0.5 2.5t0.5 2q0 5 -2.5 8t-6.5 5t-8 3.5t-8 3.5q-5 3 -10 8t-8 10z" />
</svg>
