<?xml version="1.0" standalone="no"?>
<!DOCTYPE svg PUBLIC "-//W3C//DTD SVG 1.1//EN" "http://www.w3.org/Graphics/SVG/1.1/DTD/svg11.dtd" >
<svg xmlns="http://www.w3.org/2000/svg" xmlns:xlink="http://www.w3.org/1999/xlink" version="1.1" viewBox="-10 0 266 256">
   <path fill="currentColor"
d="M67 249l0.5 0.5l1.5 1.5v0h1l1.5 -1.5l0.5 -0.5q2 -24 5 -48.5t7 -48.5q2 -4 4 -9l4 -10t5 -9l6 -8q4 -4 9.5 -7.5t10.5 -7t9 -8.5t4 -11q0 -8 -2.5 -13t-6.5 -9t-8.5 -6l-9 -4t-7 -3t-3.5 -3q0 -3 -0.5 -8t-2 -9.5t-4 -8t-6.5 -3.5q0 4 1 8t1 8q0 10 -3.5 18.5
t-9.5 15.5t-13.5 13t-15.5 9l-1.5 0.5l-3 1t-3.5 1.5t-2 3l2 2l2 1.5t3 1.5h1q4 0 7.5 -2t6.5 -5t6 -5t7 -2h3q7 5 13 11.5t11 13.5q-5 8 -10.5 15t-10.5 15q-4 8 -6.5 20.5t-3 25.5t-0.5 26v21v17zM158 129v115q0 1 1 4t3 3t3 -2t1 -4q0 -39 1.5 -77.5t0.5 -78.5l4 -16h3h4
t4 0.5t3.5 1.5t2.5 3v3.5t0.5 5t0.5 5.5v4q1 0 1 1v2q0 8 -1 16t-1 16q0 13 1 25t3 23t6.5 22t10.5 23q1 3 2.5 5t4.5 2h3q-4 -13 -7.5 -24t-6.5 -22.5t-5 -23.5t-2 -25q0 -11 2 -21.5t2 -21.5q0 -12 -1.5 -17.5t-5.5 -8t-10.5 -3t-15.5 -0.5v-4v-6v-7v-5l-0.5 -3t-0.5 -6
t-0.5 -6t-0.5 -5v-2v-3.5t-1 -4t-2 -2.5h-1h-1l-1.5 1.5l-1.5 1.5v11v16v19v19v16.5v10.5q0 2 -0.5 5t-0.5 7t-0.5 7t-0.5 5zM82 76v0v-1q0 -1 2.5 -4t5.5 -6.5t5.5 -6.5t3.5 -3q4 0 8.5 2.5t8 6.5t6 8.5t2.5 9.5q0 2 -2.5 5t-6 6.5t-7 6t-4.5 2.5h-1l-2 -2l-1 -1.5t-1.5 -3
t-1.5 -3l-1 -1.5l-3 -3t-4 -4.5t-4 -4.5z" />
</svg>
