<?xml version="1.0" standalone="no"?>
<!DOCTYPE svg PUBLIC "-//W3C//DTD SVG 1.1//EN" "http://www.w3.org/Graphics/SVG/1.1/DTD/svg11.dtd" >
<svg xmlns="http://www.w3.org/2000/svg" xmlns:xlink="http://www.w3.org/1999/xlink" version="1.1" viewBox="-10 0 266 256">
   <path fill="currentColor"
d="M140 185q5 0 7.5 5t3.5 11.5t1 13t2 10.5q0 1 1.5 3t3.5 4.5t3.5 4t1.5 2.5q3 4 6.5 8t9.5 4v-4q-5 -5 -10 -11.5t-8.5 -14t-5.5 -15t-2 -14.5q0 -4 4.5 -5t10.5 -2t12 -1.5t9 -2.5l-2 -3h-50q-2 0 -2 -2v-3v-2t2 -2q15 0 25 -6t14 -21h-1.5h-0.5q-2 0 -1.5 1t-1.5 3
l-2 2l-2.5 2.5l-2.5 2.5l-1 1q-4 2 -10 3.5t-10 1.5h-4t-2 -3v-12q0 -1 4 -2t9.5 -3.5t9.5 -8t4 -15.5q0 -4 -2 -4q-1 0 -2.5 3.5t-3.5 7.5t-5.5 7.5t-9.5 3.5q-2 0 -3.5 -0.5t-1.5 -3.5v-24l-2 -2q-1 0 -1.5 0.5t-0.5 1.5q-1 0 -1.5 2t-1 3.5t-0.5 3.5v2v3.5v5t0.5 4.5
t0.5 3q-9 0 -13.5 -1t-6.5 -3t-2.5 -4t-1 -4.5t-1.5 -5t-4 -4.5l-0.5 2.5t-1.5 3.5v1q0 1 0.5 4.5t2 7t3.5 7t4 3.5l18 3q2 1 2 2.5v2.5v3t-0.5 4t-1 3.5t-2.5 1.5h-18q-3 0 -4.5 -2.5t-2 -5.5t-2 -5.5t-4.5 -3.5v3v3q0 7 2.5 11t7 6.5t10 3t11.5 0.5q1 1 1.5 2.5t0.5 2.5
q0 3 -2.5 4.5t-4.5 2.5h-5t-8 0.5t-7.5 0.5h-5.5q-2 1 -4 1.5t-2 3.5q0 1 0.5 1.5l0.5 0.5h5q5 0 9.5 -1t9.5 -1h3t3 2v2.5v1.5q0 15 -6 28.5t-17 23.5v4q6 0 10.5 -3.5t8 -9t5.5 -11.5t4 -11q1 -5 1 -10t1 -9t4 -7t9 -3zM61 176q-2 3 -3.5 7.5t-3.5 9t-3.5 9.5t-2.5 8
q-1 4 -3 6.5t-4 5.5t-3.5 6t-1.5 7q6 0 9.5 -5t5.5 -9q5 -11 9 -21t7.5 -20t5.5 -20.5t3 -21.5v-6v-8v-9v-5t0.5 -4l1 -6t1 -5.5t0.5 -3.5q5 -6 12.5 -9.5t16 -5t17 -1.5h15.5q8 0 18 1t19 4q5 1 7.5 4.5t3 8t0.5 9.5v9q1 7 2.5 16.5t3.5 20.5t4.5 22.5t6 21.5t7.5 17t9 10
q1 -1 1 -1.5v-2.5q0 -3 -2.5 -9.5t-5.5 -13.5l-6 -14t-3 -12q-2 -19 -4 -37.5t-4 -37.5q-1 -5 -3.5 -10.5t-6.5 -9.5l-6 -2t-6 -1t-6 -0.5t-5 -1.5h-4h-6.5h-6.5h-3q-25 0 -40 2.5t-23 8t-11 14.5t-4 21t-1.5 28t-3.5 36zM102 96h4.5h7.5h7.5h4.5l1.5 0.5t3 0.5t2.5 0.5
t2 0.5v0h9t11.5 -1t10 -2t6.5 -4l-3 -2h-18q-13 0 -25 0.5t-24 1.5q-1 1 -1.5 2t-0.5 2l0.5 0.5t1.5 0.5zM121 42q-2 0 -8.5 2t-14.5 5t-17 6.5t-16 7t-11.5 6.5t-4.5 6h9q7 -4 14.5 -8.5t16 -8.5t16.5 -6.5t16 -3.5h7.5h11.5h11.5h7.5q4 -1 7 -2.5t5 -3t3 -4.5t1 -8
q0 -3 -0.5 -6t-1.5 -5.5t-3 -5t-5 -3.5h-12q-20 0 -40.5 6.5t-38.5 16.5q0 1 -1.5 2t-1.5 2t1 1h2q6 0 11.5 -2t10.5 -5t10.5 -5.5t11.5 -2.5q2 0 3 1.5t1.5 3t0.5 3.5v3v4t-2 4zM133 38v-13q0 -2 2 -3t4.5 -1.5t5 -0.5h3.5q3 0 6 0.5t6 2t4.5 3.5t1.5 6q0 2 -1 4t-4 2h-28z
" />
</svg>
