<?xml version="1.0" standalone="no"?>
<!DOCTYPE svg PUBLIC "-//W3C//DTD SVG 1.1//EN" "http://www.w3.org/Graphics/SVG/1.1/DTD/svg11.dtd" >
<svg xmlns="http://www.w3.org/2000/svg" xmlns:xlink="http://www.w3.org/1999/xlink" version="1.1" viewBox="-10 0 266 256">
   <path fill="currentColor"
d="M95 201v1v5.5t0.5 7t0.5 6v2.5q1 3 2 7t2.5 8t3.5 7.5t5 4.5l1 -1.5t2 -1.5v-1q0 -3 -1 -6t-2.5 -5.5t-3 -5.5t-1.5 -6l-0.5 -2t-0.5 -5t-0.5 -6t-0.5 -5v-1v-2q1 -3 3 -10t4.5 -14.5t4.5 -14.5t2 -10q1 -3 2.5 -8t1.5 -9q0 -3 -1 -5.5t-2.5 -5.5t-2.5 -6t-1 -6
q0 -2 3 -4.5t6 -6t6 -7.5t3 -9q0 -9 -3.5 -17.5t-7.5 -15.5q1 -1 4.5 -2t7 -2.5t6 -3t2.5 -4.5q-6 0 -12 1.5t-11.5 2.5t-11 2.5t-11.5 1.5v-29q0 -3 -3.5 -5.5t-5.5 -2.5q0 10 1 19t1 18q0 4 -2.5 6.5t-6 4.5t-7 4.5t-6.5 6.5q0 1 -1 3t-2 3.5t-1.5 3l-0.5 1.5v21q3 5 4 8
t2.5 5.5t3.5 5.5t6 6v1.5v1.5t-2 4.5t-4.5 7.5t-5.5 7.5t-4 6.5q-1 7 -2 15.5t-1 16.5q0 3 0.5 10t2 14.5t3 13t3.5 5.5h1l0.5 -1l0.5 -1v-8q0 -7 -0.5 -13.5t-0.5 -14.5v-7t1 -11l2 -12t2.5 -11t4 -8.5t4.5 -3.5q4 0 6 2t5 2h1h2q-1 -2 -2.5 -3.5t-2.5 -3l-2 -3t-1 -3.5
q0 -3 1.5 -5.5t3.5 -4.5t5 -3t5 -1q3 0 5 3t2.5 7t0.5 9v6v5q0 2 -2 7.5t-4 11.5t-4 11t-2 7l-0.5 2t-1 4.5l-1 5t-0.5 3.5v1zM138 137v1v0q0 3 1 8t2 10.5t1.5 10t0.5 5.5t1.5 8t3.5 15.5t3.5 17t2.5 12.5q0 3 1.5 6.5t4.5 5.5l2 -2l1 -1v-1v0v-0.5v-0.5q0 -1 -1 -4.5
t-2 -4.5l-9 -63l-3 -10v-42q0 -2 1 -4.5t2.5 -5.5t3.5 -5t5 -2q2 0 4 8t4.5 19.5t6 25t7 25t8 19t8.5 7.5q2 0 2 -3q0 -4 -2.5 -7.5t-3.5 -6.5l-2.5 -5l-3 -6t-2.5 -5.5t-1 -3.5l-0.5 -2.5t-1 -5.5t-1 -6.5t-0.5 -5.5v-1q0 -1 -1 -2.5t-1.5 -3.5t-1.5 -3.5t-1 -2.5
q0 -2 -1.5 -6.5t-2.5 -10t-2.5 -10t-1.5 -7.5l-6 -12l19 -21v-1q0 -2 -0.5 -3t-2.5 -1v0q-10 10 -17.5 18.5t-13 18t-8 21t-2.5 26.5zM70 83q0 -3 1 -5.5t3 -4.5t4 -3.5t4 -2.5l0.5 -0.5l0.5 -0.5q2 0 4 5t4.5 12t5 13.5t4.5 10.5q-1 2 -3 4.5t-4.5 5t-5.5 4t-5 1.5
q-4 0 -7 -5.5t-4 -12t-1.5 -13t-0.5 -8.5zM95 66q0 -3 2 -4.5t4.5 -3t5 -2t4.5 -0.5q3 0 5.5 3.5t3.5 8t1 9v6.5v6t-1 6t-3 5t-5 2q-4 0 -7 -4.5t-5.5 -11t-3.5 -12.5t-1 -8z" />
</svg>
