<?xml version="1.0" standalone="no"?>
<!DOCTYPE svg PUBLIC "-//W3C//DTD SVG 1.1//EN" "http://www.w3.org/Graphics/SVG/1.1/DTD/svg11.dtd" >
<svg xmlns="http://www.w3.org/2000/svg" xmlns:xlink="http://www.w3.org/1999/xlink" version="1.1" viewBox="-10 0 266 256">
   <path fill="currentColor"
d="M155 184q0 9 -1.5 17.5t-2.5 16.5t-2.5 16.5t-1.5 16.5q4 0 6 -2t3 -5q4 -16 5 -30.5t2 -31.5q0 -3 4.5 -5.5t7.5 -2.5q2 0 3.5 0.5t2.5 3.5q1 8 1.5 17.5t1.5 18.5q0 2 0.5 6t1 9t1 9t0.5 6q1 2 2 3.5t4 1.5h2.5t1.5 -2v-2.5v-4.5q0 -6 -1 -12.5t-3 -13t-3 -13t-1 -12.5
v-5t3 -2q2 0 3.5 1t2.5 2t2.5 1.5t3.5 0.5h4t2 -3t-2.5 -5.5t-6.5 -4t-8 -2.5t-6 -1q-2 -1 -6 -2.5l-4 -1.5v-16l10 -2t9 -2.5t6.5 -4.5t2.5 -9q0 -3 -0.5 -6.5t-2 -6t-4 -4.5t-6.5 -2h-29l-0.5 -0.5l-1 -1t-1.5 -2l-1 -1.5v-23l1 -1l1 -1q1 0 2.5 -0.5t2.5 -1.5h1
q3 0 6.5 2t7 3.5t7 3.5t7.5 2t4.5 -1.5t0.5 -4.5v-3.5t-3 -2.5q-14 -4 -30.5 -7t-31.5 -5q-2 0 -2 -2v-3q0 -5 3.5 -6.5t7.5 -2.5t9.5 -1.5t10 -2.5t7.5 -6t3 -11q0 -6 -2.5 -9.5t-6.5 -5.5t-9 -2.5t-9 -0.5q-2 0 -6 -0.5t-9 -1t-9.5 -0.5h-5.5q-2 0 -6.5 1l-9 2l-9 2
t-6.5 2t-3 2.5t-1.5 4t-0.5 5.5v4q0 7 3.5 11t8.5 6t11 2.5t11 1t8.5 1t3.5 3.5q0 2 -0.5 5t-2.5 3l-62 16q-2 0 -3.5 1.5t-1.5 3.5t1 2.5t3 0.5q5 0 10 -1.5t10 -2.5t10.5 -2.5t10.5 -1.5v16q0 8 -4 15h-13.5t-12.5 1t-11.5 3.5t-10.5 7.5v4v3q0 8 3.5 12.5t9 6.5t11.5 3
t12 1q2 0 2 2v3q0 4 -3 6.5t-8 4t-10.5 3t-10 3t-7.5 3.5t-3 6q0 2 1.5 2h2.5q3 0 5.5 -1t4 -3t4 -3t4.5 -1q1 0 1.5 0.5t0.5 1.5v1.5t0.5 3t1 3.5t0.5 3v1v1l-0.5 1l-1 2t-0.5 2v2t-0.5 5.5t-1 10t-1 10t-0.5 5.5q-2 1 -3 4t-1 5q0 3 4 3t6.5 -5t3.5 -12t1 -13.5v-9.5
q0 -2 0.5 -5t0.5 -7.5t0.5 -8t0.5 -4.5q1 -5 5 -6t8 -1h2.5t2.5 2q2 7 2.5 16t1 17.5l1 17t1.5 16.5q1 1 2 1h2q6 0 6 -5q0 -7 -1.5 -13.5t-2.5 -13t-2.5 -13.5t-1.5 -13v-3t3 0l1.5 0.5t3.5 1t3.5 1l1.5 0.5h1.5h1.5h4t1 -3q-1 -5 -6.5 -7t-11 -3.5t-10.5 -4t-5 -8.5
q0 -3 4 -5t9.5 -3.5t10.5 -3.5t7 -5v-4v-3q0 -9 -4.5 -14.5t-12.5 -7.5q0 -1 0.5 -4t1 -6.5t1 -6.5t0.5 -4v-5t0.5 -5.5t1.5 -4.5t4 -2h30l1.5 2.5l1.5 2.5v4.5t0.5 7t0.5 7v4.5v3q0 3 -2 4.5t-4.5 3t-4.5 4t-2 7.5q0 10 5.5 16t15.5 6q1 0 3 -1t3 -1h1q2 0 2.5 1t1 2.5
t0 3.5t-0.5 3q0 5 -2 8t-5.5 4.5t-7 2.5l-7 2t-6 3.5t-2.5 6.5q4 0 8 -1t8 -1zM66 131q3 0 4.5 1.5t2.5 4t1.5 5t0.5 5.5v2v2q-1 0 -3 -0.5l-4 -1t-4 -1.5t-2 -2v-14q0 -1 2 -1h2zM79 124q9 0 14.5 6t5.5 16q0 3 -3 4t-6 1h-4q-2 -7 -4.5 -13t-2.5 -14zM101 131q0 -4 1 -4.5
t5 -0.5h2h2l1.5 1t2.5 2.5t2.5 2.5t1.5 2v1v1q0 4 -2 7t-5 3q-6 0 -8.5 -5t-2.5 -10zM145 133q0 -3 1.5 -7t5.5 -4h1q1 4 3.5 10t2.5 11q-5 0 -9.5 -2t-4.5 -8zM163 129q0 -4 0.5 -6.5t4.5 -2.5q7 0 9 5.5t2 11.5q0 4 -1 4.5t-4 0.5h-5q-4 -4 -5 -6.5t-1 -6.5zM184 122
q5 0 10 2.5t5 8.5q0 3 -2 4.5t-4 1.5q-3 0 -4.5 -1.5t-3 -4.5t-1.5 -6v-5zM91 36q0 -4 2 -7.5t7 -3.5q2 0 3 0.5l3 1.5q0 1 0.5 2.5t1 3.5t1 3.5t0.5 2.5t1.5 3.5t1.5 3.5q0 2 -2 2.5t-3 0.5q-7 0 -11.5 -3t-4.5 -10zM114 28v-2.5t2 -1.5h16l2 3t4 6.5t3.5 6.5t1.5 4
q0 2 -0.5 2.5t-2.5 0.5h-19l-1 -1t-1.5 -2.5t-1.5 -3.5t-1 -3q-2 -4 -2 -9zM145 28q0 -2 0.5 -3t3.5 -1q6 0 11 1.5t5 8.5q0 10 -10 10q-2 0 -4 -1.5t-3.5 -4t-2 -5.5t-0.5 -5z" />
</svg>
