<?xml version="1.0" standalone="no"?>
<!DOCTYPE svg PUBLIC "-//W3C//DTD SVG 1.1//EN" "http://www.w3.org/Graphics/SVG/1.1/DTD/svg11.dtd" >
<svg xmlns="http://www.w3.org/2000/svg" xmlns:xlink="http://www.w3.org/1999/xlink" version="1.1" viewBox="-10 0 266 256">
   <path fill="currentColor"
d="M101 232q2 3 4.5 6t3.5 7l0.5 2.5t0.5 3.5h1.5h1.5q2 0 4 -0.5t2 -2.5v-3t-1 -3q-1 -1 -2 -4t-2.5 -6.5t-3 -6.5t-1.5 -4q-5 -13 -8.5 -27.5t-3.5 -28.5v-9t1 -9q1 -5 3.5 -8.5l5 -7t4 -7.5t1.5 -9t-2 -8t-4.5 -6.5t-5 -6.5t-2.5 -8v-2q4 -2 7.5 -4.5t6 -5t4.5 -6.5t2 -9
t-1 -9.5t-1 -9.5q0 -2 1 -2.5t2 -1.5t2 -1.5t1 -2.5q0 -1 -0.5 -2t-2.5 -1q-1 1 -3 1t-5 0.5t-5 1t-3 0.5h-2h-4.5t-4.5 -1q1 -3 1 -7t-0.5 -7.5t-2 -6t-5.5 -2.5v29l-0.5 0.5t-1.5 0.5q-4 2 -6.5 3t-5 2.5t-4.5 3.5l-6 6v5v5q0 5 1.5 10t3 9.5l3 9t1.5 9.5v1
q-11 15 -14.5 32t-3.5 36q4 0 6 -4.5t3 -11t1.5 -13.5t2 -13.5t3 -11t4.5 -4.5h1l7 8h0.5h0.5q2 0 3 -1.5t1 -2.5v-2q0 -1 -1 -2.5t-2 -3.5t-2 -3.5t-1 -2.5q1 -4 4.5 -5.5t7.5 -3.5q3 2 5 5t3.5 7t2.5 7.5t1 7.5q0 6 -2 11.5t-4.5 10.5t-5 11t-2.5 14t1.5 16.5t3.5 16t4 16
t3 16.5zM194 243q0 2 1.5 4t3.5 2q3 0 4 -2t1 -4v-2v-1l-1 -2.5t-1.5 -5t-1.5 -4.5t-1 -3q-2 -10 -4 -21t-5 -22q0 -3 -1.5 -7t-3 -8.5t-2.5 -8.5t-1 -8q0 -1 1 -2.5t2.5 -2.5l3 -2t1.5 -2q3 -4 4 -9.5t1 -9.5q0 -8 -5 -12.5t-13 -5.5q-2 -1 -7.5 -2t-11.5 -2t-11 -1.5
t-7 -0.5h-3q-1 0 -2 0.5t-1 2.5t4 3.5t10 2t13 1t13 2t10 4.5t4 9q0 1 -0.5 4.5t-1.5 6.5t-2.5 5.5t-4.5 2.5v0h-1q-2 -2 -4.5 -5t-6 -5.5t-7 -4t-7.5 -1.5h-25q-4 0 -5 2t-1 4h33q1 0 3.5 1.5t4.5 3t3.5 3.5t1.5 4q0 3 -1 4t-3 2q-10 1 -21 2t-21 1q-2 1 -2.5 1.5t-0.5 2.5
q0 3 3 3q7 0 15 -0.5t15 -0.5q5 -1 10 -3.5t11 -2.5l0.5 0.5l0.5 0.5q4 7 5 13t3 14q0 1 0.5 3t1.5 5t1.5 5.5l0.5 2.5q1 3 2 9.5t2 14t2 14t2 8.5zM138 73q0 6 6 9.5t13.5 5.5t15 2.5t10.5 1.5q4 0 7 1.5t7 1.5h3.5t1.5 -2q0 -4 -4 -5.5t-10.5 -2t-14 -1t-14 -2t-11 -4.5
t-4.5 -9t4 -8.5t10 -3.5t12.5 -0.5t12.5 0t9.5 -2t3.5 -6.5v-16l-0.5 -0.5l-0.5 -0.5q-1 -1 -3.5 -2l-2.5 -1h-37l-3 -2v-3t-0.5 -6t-2 -5t-3.5 -2h-1.5t-1.5 1q1 7 0.5 15t-3.5 14l-1 1.5t-2.5 3.5t-2 3.5l-0.5 1.5l2 2l6 -8t7 -7q8 -1 17.5 -2t17.5 -1q4 0 6 2t2 6
q0 5 -3.5 7t-9.5 2h-12.5t-12 1.5t-9.5 6.5t-4 14zM71 60v-8q0 -2 2 -3.5t4 -1.5h4h3q0 8 3 16.5t3 17.5q0 5 -3.5 8t-7.5 3q-3 0 -4.5 -4t-2.5 -9.5t-1 -10.5v-8zM92 49q0 -4 2 -6.5t6 -2.5q3 0 5.5 2.5t3.5 6.5t1 8v6q0 4 -2.5 7.5t-6.5 3.5q-3 0 -4.5 -3t-2.5 -7.5
t-1.5 -8.5t-0.5 -6z" />
</svg>
