<?xml version="1.0" standalone="no"?>
<!DOCTYPE svg PUBLIC "-//W3C//DTD SVG 1.1//EN" "http://www.w3.org/Graphics/SVG/1.1/DTD/svg11.dtd" >
<svg xmlns="http://www.w3.org/2000/svg" xmlns:xlink="http://www.w3.org/1999/xlink" version="1.1" viewBox="-10 0 266 256">
   <path fill="currentColor"
d="M159 202q0 3 1.5 10.5t4.5 15.5t7 14.5t8 6.5q3 0 5 -1t2 -4v-2q-3 -5 -6 -9.5t-5 -9t-4 -9.5t-3 -12v-2.5v-3.5q0 -7 3.5 -13.5t7.5 -12.5t7 -12t3 -13v-3.5t-1 -3.5q-1 -1 -3 -4t-4.5 -6.5t-4.5 -6.5t-3 -4t-1 -2t-1 -1v-1q0 -2 3 -4t7 -5t7 -7.5t3 -12.5
q0 -5 -1.5 -9.5t-1.5 -9.5q0 -3 2 -3.5l4 -1l4 -1t2 -2.5v-2t-2 -1h-37q-2 0 -2 -2v-2q0 -9 1.5 -17t1.5 -15q0 -3 -1 -4.5t-3 -1.5t-4 1t-2 4v20l-1 2t-1 3v0v1l0.5 1t0.5 2.5t0.5 2.5t0.5 2v1q0 3 -2 4l-5 2.5t-6.5 3t-6 4.5t-4.5 7.5t-2 12.5q0 5 1.5 10.5t3 10.5l3 10
t1.5 9q0 2 -1 5l-2 6t-2.5 6.5t-1.5 5.5q-3 12 -3.5 25t-0.5 26v5v8.5v8.5v5q1 2 2 3.5t3 1.5q3 0 4 -2.5t1 -5.5q0 -6 -0.5 -13t-2.5 -13q0 -15 1.5 -28.5t2.5 -28.5q1 0 2.5 -0.5t2.5 -0.5v0h1l6.5 6.5t7.5 3.5h3t1 -2v-1q-1 -1 -3.5 -3t-5 -5t-4.5 -6t-2 -6q0 -2 2 -3.5
t5 -3t6 -2t5 -0.5t4.5 3.5t5.5 8t5 9.5t2 7q0 5 -2.5 9.5t-5.5 8.5l-6 8t-4 9q-2 4 -2.5 10t-0.5 11zM55 236q0 2 0.5 3.5t3.5 1.5q2 0 4 -2t2 -4v-10q0 -26 -0.5 -52.5t-0.5 -52.5q0 -3 3.5 -4.5t8 -2.5t9 -1h7.5h2t1 2t0.5 5t1 7t1 7.5t1.5 6.5v90q-2 5 -2 12l3.5 -0.5
l3.5 -0.5q1 0 1.5 -1l0.5 -1v-45v-45q0 -2 -0.5 -8t-0.5 -13t-0.5 -13t-0.5 -8t0.5 -6t0 -9t-0.5 -9t-1 -6q-1 -3 -4.5 -4.5t-6.5 -2.5t-5.5 -2.5t-1.5 -4.5l2 -17l1 -0.5t2 -0.5q0 -1 2 -1t4.5 -0.5t5 -0.5h2.5q1 0 3 -2t2 -3l-0.5 -1.5l-0.5 -1.5h-21q0 -4 0.5 -8t0.5 -8
q0 -2 -1 -4.5t-4 -2.5q-1 0 -3.5 1t-2.5 2v49q0 3 -1.5 3.5t-3.5 1.5t-4.5 1.5t-5 3t-4 6.5t-2.5 10q-1 18 -1 33v31v15v1.5t0.5 3.5t0.5 3.5v1.5v2t-0.5 2t-0.5 2.5v1.5v2q0 5 0.5 11t0.5 12t-0.5 11.5t-0.5 12.5zM134 85v-10q1 -1 2.5 -3t4 -3.5t4.5 -3t3 -1.5q3 0 5 3
q1 10 3.5 19t2.5 18v4v2l-17 8q-4 -8 -6 -16t-2 -17zM65 98q0 -12 4 -16.5t16 -4.5h6q1 0 2.5 2t1.5 4v21q0 1 -2.5 1.5t-4.5 0.5h-2h-4h-4h-3h-2h-2.5h-2.5h-1l-2 -2v-2.5v-3.5zM161 70q0 -1 0.5 -3.5t0.5 -3.5l1.5 -0.5t3.5 -0.5t3.5 -0.5l1.5 -0.5h3q2 0 4 3t2.5 7.5t1 8
t0.5 5.5v9q-2 2 -5.5 4.5t-7.5 2.5q-2 0 -4 -4t-3 -9t-1.5 -10t-0.5 -8z" />
</svg>
