<?xml version="1.0" standalone="no"?>
<!DOCTYPE svg PUBLIC "-//W3C//DTD SVG 1.1//EN" "http://www.w3.org/Graphics/SVG/1.1/DTD/svg11.dtd" >
<svg xmlns="http://www.w3.org/2000/svg" xmlns:xlink="http://www.w3.org/1999/xlink" version="1.1" viewBox="-10 0 266 256">
   <path fill="currentColor"
d="M93 198q0 2 1 6.5t2.5 10.5t3 12.5t4 11.5t4.5 8.5t5 3.5q2 0 3 -2t1 -4q0 -7 -3.5 -12t-6.5 -10q-3 -8 -4.5 -14t-1.5 -14q0 -2 0.5 -5t1 -6.5t1.5 -6t3 -4.5q2 -3 4 -5.5t2 -6.5q0 -5 -2 -8.5t-4.5 -6.5t-5 -6.5t-2.5 -8.5v-3q2 0 6 -1.5t7.5 -4t6.5 -5t3 -6.5l-0.5 -2
l-1 -4t-1 -3.5t-0.5 -2.5v-3q0 -2 0.5 -3.5t2 -2.5t2.5 -2.5t1 -2.5q0 -2 -1 -2.5t-2 -0.5q-6 0 -12 2.5t-12 2.5q-3 0 -3.5 -1.5l-1 -3l-1 -3t-2.5 -1.5t-2 0.5t-1 2.5q-3 8 -7 10t-8 2.5t-8 1.5t-7 7v9q0 6 1 9.5t2 6.5t2 6.5t3 8.5v1v2q0 5 -2.5 8.5t-3.5 8.5
q-3 10 -4.5 22.5t-1.5 23.5q0 2 1 3.5t3 1.5v0q1 -2 2 -7t2.5 -12l3 -14t3 -13t3 -9.5t3.5 -1.5l9 6h1t1.5 -1t0.5 -2v-1v-2q0 -1 -1 -1.5t-2 -1.5l-2 -2l-1 -1v-1q0 -1 1 -3t2.5 -3.5t3 -2.5t2.5 -1h1q6 5 10 10t4 12q0 3 -1 6t-2.5 5t-3 4.5t-2.5 5.5q-2 4 -2 8v8z
M163 176q0 4 1.5 7t4 5.5t5.5 4.5l6 4q3 3 5 8t3 10.5t1 11.5t0.5 11t1.5 8t3 3h0.5h0.5l2 -1t2 -2v-8v-10.5t-1 -14t-3 -13t-5 -8.5q-1 0 -3 -1.5t-5 -3.5t-5 -3.5t-3 -1.5q-1 -1 -1.5 -2t-0.5 -3q0 -4 2.5 -6t6 -3.5t7.5 -2.5t7.5 -3.5t6 -6t2.5 -10.5t-4.5 -9.5
t-9.5 -3.5t-9 -2.5t-4 -7.5q0 -2 1.5 -3t4 -1.5l5 -1t4.5 -1.5q3 -3 5 -7.5t4 -8.5q0 -1 -0.5 -4.5t-0.5 -6.5q0 -4 0.5 -7.5t0.5 -4.5v-1.5v-3t0.5 -2.5t0.5 -2v-1v-2v-5.5t-0.5 -9.5t-0.5 -9.5v-5.5q-1 -1 -2.5 -1.5t-2.5 -0.5t-2.5 1.5t-1.5 2.5t0.5 3.5t0.5 3.5v2.5v2.5
q-4 0 -7.5 -1t-7 -2.5t-6 -4.5t-2.5 -8t3.5 -7t8 -3t9.5 -1h8q1 0 1.5 -1t0.5 -2q0 -5 -3 -5q-13 0 -27 2.5t-26 5.5q-2 2 -4.5 4t-4.5 4q-1 8 -1 14.5v15.5q0 11 0.5 22.5t4.5 22.5q0 2 2 4.5l4 5t4 4.5t2 3q0 6 -4 9.5t-9 6.5t-9 6t-4 5t0.5 2.5t1.5 0.5q7 0 12.5 -5
t10.5 -11t8.5 -11t6.5 -5t3.5 1.5t0.5 4t0.5 5t1.5 3.5q2 1 5.5 2.5t7 3.5t6 4t2.5 4q0 5 -2 7.5t-5.5 4t-7.5 2.5t-7.5 3t-5.5 4.5t-2 7.5zM65 114q0 -3 1.5 -6t4 -5.5t5.5 -3.5t6 -1h2t2 1q0 1 0.5 4l1 6t0.5 6t1 4q0 1 0.5 2.5t0.5 2.5t-2 4t-4.5 5.5t-5 4t-4.5 1.5
t-3.5 -3t-3 -7.5t-2 -8.5t-0.5 -6zM95 105v-3v-3q2 -3 4 -3.5t5 -0.5q6 0 6.5 3t0.5 8t-2 9t-8 4q-3 0 -4 -1.5t-1.5 -4t-0.5 -4.5v-4zM147 102v-2t1 -2q2 0 7 -0.5t10.5 -0.5t10.5 -0.5t7 -0.5h2q2 0 3.5 1.5t1.5 3.5q0 4 -4 6.5t-9.5 3.5t-11 1.5t-8.5 0.5q-4 0 -7 -3
t-3 -8zM142 83q0 -4 6 -6t13.5 -3t14.5 -1h9h4q3 0 4 2v4v4t-1.5 4t-3 3t-4.5 0q-2 0 -7 0.5t-11.5 0.5h-11.5h-7h-1q-3 0 -3.5 -3t-0.5 -5zM107 61q-2 0 -4.5 1t-6 1.5t-6.5 1t-4 1.5q-1 0 -2.5 0.5l-3 1l-3 1t-2.5 0.5h-2.5t-5 1t-4.5 1.5t-3 1.5q0 1 -0.5 3.5t-0.5 3.5
q3 0 11.5 -2t18 -4.5t18.5 -5.5t13 -5q1 -1 1.5 -3.5t0.5 -3.5q-4 0 -8 1t-7 4zM142 64l0.5 -1t1.5 -2t4 -3.5t6 -4.5t6.5 -4t6.5 -2t6.5 1.5t6.5 3.5t5 5t2 6v1v2q-9 1 -18.5 2t-19.5 1q-2 0 -4.5 -0.5t-2.5 -4.5zM60 53v0l2 2l1 1q2 0 6.5 -1t9.5 -2.5t9.5 -2.5t6.5 -1
l1.5 -0.5t3.5 -0.5t3.5 -0.5l1.5 -0.5q1 0 3.5 -0.5l5 -1t4.5 -1.5t2 -2q0 -2 -1.5 -3t-3.5 -1h-2q-1 0 -3 1t-4.5 1.5t-5 1.5l-2.5 1q-3 0 -9 0.5t-12.5 1.5t-11.5 3t-5 5zM142 47q0 -4 1 -8t2.5 -7t4.5 -4.5t7 -1.5h2.5h2.5l0.5 2l0.5 2v1v1q0 3 -1.5 6.5t-4 6t-5.5 4.5
t-6 2q-2 0 -3 -1t-1 -3zM60 30q0 3 1.5 3.5t4.5 0.5q6 0 13 -1.5t13.5 -3.5t13 -3.5t13.5 -2.5q0 -1 1 -2t2 -1v-1q0 -2 -1.5 -4t-4.5 -2q-1 0 -5.5 1.5t-10 2.5t-9.5 2.5t-5 1.5q-2 1 -5.5 2l-3.5 1q-1 0 -3.5 0.5t-5.5 0.5t-5.5 1.5t-2.5 3.5z" />
</svg>
