<?xml version="1.0" standalone="no"?>
<!DOCTYPE svg PUBLIC "-//W3C//DTD SVG 1.1//EN" "http://www.w3.org/Graphics/SVG/1.1/DTD/svg11.dtd" >
<svg xmlns="http://www.w3.org/2000/svg" xmlns:xlink="http://www.w3.org/1999/xlink" version="1.1" viewBox="-10 0 266 256">
   <path fill="currentColor"
d="M125 220q0 6 3.5 11.5t8.5 10t11.5 7t12.5 2.5q0 -4 -3 -7.5t-6.5 -7t-7.5 -6.5t-7 -6l-0.5 -2.5t-0.5 -3.5v-1q0 -4 2 -7t4.5 -6t4.5 -6t2 -6q0 -6 -3.5 -8.5t-8 -4.5t-8 -3.5t-3.5 -5.5q0 -1 3.5 -2t7.5 -2t7.5 -2.5t5.5 -4.5q1 -1 1.5 -3.5t1 -5.5t0.5 -5v-3
q2 -3 6.5 -4.5t6.5 -1.5v-5h-49q-2 0 -2 -2t-0.5 -4.5t-1 -4.5t-3.5 -2h-1v0l-3 14l-4 4h-9.5t-10.5 1.5t-8.5 4t-3.5 9.5q0 4 1 7.5t2.5 7t2.5 6.5t1 7v3q-5 8 -9 17t-7 19l-1 2l-5 18q0 1 0.5 3.5t0.5 3.5q1 0 1.5 0.5l0.5 0.5q5 0 8.5 -5.5t5.5 -13.5t3.5 -16t3.5 -12
q0 -1 1 -2.5t1.5 -3t1 -2.5l0.5 -1h2l9 9h1h2q2 0 3 -0.5t1 -2.5t-1 -4t-3 -4t-3 -4t-1 -4t2 -4t5 -3l6 -2t5 -1h2q2 0 2 1q0 4 3.5 6.5t8.5 4t8.5 4t3.5 6.5t-2.5 7l-5 6t-5 6.5t-1.5 8.5zM191 248q1 2 2.5 2h2.5q4 0 4.5 -3.5t0.5 -7.5q0 -8 -0.5 -15.5t-1.5 -14.5l-2 -14
t-2 -15q-2 -14 -3 -28.5t-2 -28.5q0 -3 -1.5 -6t-1.5 -7q0 -3 1.5 -6t3.5 -6.5l4 -7t2 -7.5t-3.5 -6.5t-6.5 -2.5h-16h-17h-4t-4 0.5t-3.5 0.5h-1.5v5h42l0.5 1.5t0.5 2.5t-0.5 5t-0.5 5q-6 0 -13 -0.5t-14 -0.5h-7t-8 2v0.5v0.5q0 3 3 3h24q4 0 4.5 1t0.5 3q0 3 -2.5 4.5
t-6 1.5h-8h-8t-6 1.5t-2.5 5.5q9 0 17 -1t16 -1h3l10 80q1 3 1.5 8t1 10.5t0.5 11.5v8v3.5t0.5 5t0.5 4.5v3zM80 156q0 -5 2 -8t5 -4.5t7 -1.5h9q2 0 4 2t3 4.5t1.5 5.5t0.5 5t-2 3.5t-4.5 2t-5 0.5t-4.5 1l-1.5 0.5t-3 1.5t-3 1.5t-1.5 1.5h-1q-2 0 -3 -2t-1.5 -4t-1 -4.5
t-0.5 -4.5zM116 146q0 -3 1 -5t5 -2h20q1 0 1.5 3t0.5 5v2q0 3 -1.5 5.5t-3.5 3.5t-5 1.5t-5 0.5h-4t-3 -1q-3 -2 -4.5 -6t-1.5 -7zM55 109q0 3 1.5 3h4.5q16 0 30.5 -2t31.5 -1q2 0 2.5 -1t0.5 -2q0 -2 -0.5 -3t-2.5 -1h-22q-1 0 -1.5 -1.5t-0.5 -2.5q0 -4 3 -5.5t7 -2.5
t7.5 -0.5t5.5 0.5q0 -1 0.5 -2t0.5 -2l-0.5 -0.5l-0.5 -0.5h-5h-5h-2h-4h-2h-2h-8.5t-13.5 0.5t-13.5 0.5h-8.5v2v1v2.5t2 1.5h1h4.5t7.5 -0.5t7.5 -1t4.5 -0.5l3 2v9l-3 3h-29q-1 0 -1 1.5v2.5zM59 36q0 9 1 17t4 13t8.5 8t15.5 3q8 0 14.5 -0.5t15.5 -2.5q5 -1 7.5 -6.5
t4 -13t1.5 -14.5v-11t-2.5 -7t-6 -5t-7.5 -2.5t-7 -0.5q-4 0 -4 4q0 3 2.5 3.5t6 1t6.5 1t3 4.5q0 1 -0.5 2t-1.5 1l-20 4l4 4h14q2 0 2 3v3v2q0 3 -2 3h-14l-3 3l1 3h15q1 0 1 2v3q0 3 -3 5t-7 2.5t-8 0.5h-6h-6q-4 0 -7 -0.5t-5.5 -2t-4.5 -5.5l3 -3l14 -3v-6h-19
q-1 0 -1 -1.5v-2.5q0 -3 2.5 -3.5t4.5 -0.5q1 0 3 -0.5t4.5 -0.5t4.5 -0.5t3 -0.5v-6h-3h-5.5h-4.5h-3q-3 0 -3.5 -1t-0.5 -3q0 -3 2.5 -4t5 -1.5t5 -1.5t2.5 -3q0 -4 -3 -4q-7 0 -12.5 2.5t-9.5 7.5l-0.5 2t-0.5 4v3v2zM150 47q0 6 2.5 9t7 4.5t9.5 1t10 -0.5h4h5h4.5h3.5
q2 0 2 -2.5v-3.5h-37q-1 0 -2 -2.5l-1 -2.5v0v-1t1.5 -3.5t3.5 -2.5h30q2 0 3 -1.5t2 -4t1.5 -4.5t0.5 -3q0 -5 -2.5 -7t-6 -2.5t-7.5 -0.5h-6q-5 0 -9 1t-10 1h-6q0 -1 -0.5 -2t-2 -2.5l-2.5 -2.5t-2 -1l-1.5 4.5t-3 10.5t-3 11.5t-1.5 6.5t0.5 2t1.5 1q2 0 4 -2t2 -4
q1 -1 1 -2.5t0.5 -4t1 -4t0.5 -2.5q3 -2 6 -2.5t6.5 -0.5h7h5.5h12q2 1 2.5 2t0.5 3q0 3 -2.5 4t-7 1h-9.5t-9 0.5t-7 2.5t-3 6z" />
</svg>
