<?xml version="1.0" standalone="no"?>
<!DOCTYPE svg PUBLIC "-//W3C//DTD SVG 1.1//EN" "http://www.w3.org/Graphics/SVG/1.1/DTD/svg11.dtd" >
<svg xmlns="http://www.w3.org/2000/svg" xmlns:xlink="http://www.w3.org/1999/xlink" version="1.1" viewBox="-10 0 266 256">
   <path fill="currentColor"
d="M122 216q0 2 2.5 8t6 12t8 10.5t7.5 4.5q4 0 4 -4t-2.5 -8t-5 -7.5t-5 -7.5t-2.5 -9q0 -4 2.5 -7.5t5 -6.5t4.5 -6t2 -8q0 -4 -2.5 -6t-6 -4.5t-6.5 -4.5t-3 -6v-3q1 0 2.5 -0.5t3.5 -1.5l4 -2t2.5 -1.5t1.5 -2t1 -2.5v-17q3 -1 3.5 -3.5t0.5 -4.5q-7 0 -12.5 1t-11.5 1
q-4 0 -4.5 -2.5t-0.5 -6t-1 -6t-4 -2.5q-1 0 -3.5 2t-2.5 3v15l-2 1q-4 0 -8.5 1t-8 3t-6 5t-2.5 8q0 3 2 6.5t3.5 7l3 7t1.5 6.5v1l-1 1.5l-2 3l-2 3l-1 1.5q0 1 -0.5 2t-1.5 1q-4 12 -6.5 24.5t-2.5 25.5q0 3 1 5.5t4 2.5h1l1.5 -0.5l1.5 -0.5q0 -1 0.5 -2.5t0.5 -3.5
t0.5 -4l0.5 -2v-3v-4v-4v-2t0.5 -6.5t1.5 -10.5t3 -9t5 -4v0q1 0 1.5 1t1.5 2t2 1.5t1 1.5h1h1q1 0 3 -1.5t2 -3.5l-2 -4t-2 -3.5l-2 -3t-1 -3.5t1.5 -4t3.5 -3.5t4.5 -2t3.5 -0.5q2 0 6 2t7.5 5t6.5 6t3 5q0 5 -3 8l-6 6t-5.5 6t-2.5 8zM174 220q0 1 0.5 3.5t1.5 5.5
t1.5 5.5t0.5 3.5q2 5 4.5 9t7.5 4q4 0 4 -3t-1.5 -5.5l-3 -5l-3 -5t-1.5 -4.5q-3 -10 -5.5 -19t-5 -18.5t-4 -19t-1.5 -19.5q0 -11 3 -18.5t7 -14t8 -13.5t8 -16q3 -8 4 -17t1 -18q0 -18 -9 -26.5t-27 -8.5h-6.5t-11 0.5t-10 2t-4.5 4.5q0 2 1 3t4 1l0.5 2t0.5 4.5t0.5 4.5
l0.5 2q0 1 -0.5 2.5t0.5 2.5q0 2 1.5 2.5l3 1l3 1t2.5 1.5v6q0 1 0.5 3.5t0 5.5t-1.5 4.5t-3 1.5v0q-1 0 -1.5 -2.5l-1 -5t-1 -4t-1.5 -1.5q-4 0 -4.5 2.5t-0.5 4.5q0 4 2 7t4.5 5t4.5 5t2 7t-1 7t-1 7v5q0 1 0.5 1.5t1.5 0.5v0q2 0 3 -1.5l2 -3t1.5 -3.5t0.5 -3t0.5 -3
t0.5 -5q0 -2 -0.5 -4.5l-0.5 -2.5q2 -4 5.5 -4.5t6.5 -2t6 -6t3 -16.5q-6 0 -8 2.5t-2 6t-0.5 6t-4.5 2.5q-3 0 -3.5 -1t-0.5 -4q0 -4 0.5 -7.5t0.5 -8.5q2 -2 5 -3q8 -2 10.5 -5t3.5 -6t1.5 -5.5t2.5 -3.5q2 0 4 2.5l2 2.5q1 5 2.5 10t1.5 9q0 11 -3 20.5t-7.5 19
t-9.5 18.5t-9 18l-2 1q0 1 -0.5 3.5t-0.5 5.5t-0.5 5t-0.5 3v2v1q1 3 1.5 8t1.5 10.5t1.5 9.5t0.5 6q1 2 2 7t2.5 10t3 9.5t3.5 5.5zM96 155q0 -6 2.5 -9.5t9.5 -3.5q3 0 3.5 1.5l1.5 4.5v2.5t0.5 3.5t0.5 4v3q-1 1 -2.5 2t-3.5 2t-4 1.5t-3 0.5q-2 0 -3 -1.5t-1.5 -3
t-0.5 -3.5v-4zM120 149v-1q1 -1 1.5 -4.5t0.5 -4.5q1 0 4 -0.5t3 -1.5h1q4 0 5 3.5t1 7.5q0 3 -2.5 5.5t-6.5 2.5q-3 0 -5 -2t-2 -5zM94 104v17q0 1 2 1h3q2 0 2.5 -0.5t0.5 -3.5v-3v-4v-4.5v-2.5q1 0 3.5 -1t5.5 -1.5t5.5 -1t3.5 -1.5q2 0 2.5 -0.5t0.5 -2.5q0 -3 -2.5 -4
t-5.5 -1q-2 0 -5 2t-6 2q-2 0 -2 -2v-4v-4h2.5h4t4.5 -0.5t3 -0.5t3 -0.5t3 -2.5q-1 -3 -2.5 -4t-3.5 -1h-4t-4 -1v-4v-3.5t0.5 -3t1 -2.5t2.5 -1t4 0.5t3.5 1.5l3 2t3.5 1q1 0 1.5 -1t0.5 -2q0 -6 -4.5 -8.5t-9.5 -4t-9.5 -3.5t-4.5 -8q0 -3 2 -4.5t5 -1.5q4 0 8 2t8 2h3
t2 -2q0 -3 -3 -5.5t-7 -4t-8.5 -2t-6.5 -0.5q-1 -1 -1.5 -2.5t-0.5 -3.5t-1 -3.5t-3 -1.5t-2.5 1.5t-1 4t-0.5 4.5v2q-4 1 -9 2t-9.5 3.5t-7 5.5t-2.5 7q3 0 6 -1t5.5 -2.5t5 -2.5t5.5 -1q4 0 4 1.5v4.5q0 4 -4 7.5t-9 6t-10.5 4.5t-8.5 4q-1 0 -2 2.5t-1 3.5v0q0 3 1.5 3
h3.5t4.5 -1.5t4.5 -3.5t4 -3t5 -1q2 0 4 1.5t3.5 4t2.5 5t1 4.5l-0.5 0.5t-1.5 0.5h-3t-4.5 0.5t-4.5 1t-3 0.5q-5 1 -5 4q0 1 0.5 2t1.5 2h6q4 0 7 -1t6 -1q1 0 2.5 0.5t1.5 2.5q0 3 -2 4.5t-5 2t-7 1t-7 0.5t-5 1t-2 4q0 2 2 2h4q6 0 11.5 -0.5t11.5 -0.5zM90 59
q0 -2 2 -5t5 -2q5 0 6 1.5t1 4.5t-1.5 6t-3.5 6h-0.5h-1.5t-2 -1t-2.5 -3t-2 -3.5t-0.5 -3.5zM148 31h1q2 0 2 1v14q-1 0 -3.5 -0.5t-2.5 -2.5v-11l1 -0.5t2 -0.5v0zM167 29q3 0 3.5 1.5t0.5 3.5q0 5 -3 9t-9 4v-5q0 -4 1 -6.5t2.5 -4.5t4.5 -2z" />
</svg>
