<?xml version="1.0" standalone="no"?>
<!DOCTYPE svg PUBLIC "-//W3C//DTD SVG 1.1//EN" "http://www.w3.org/Graphics/SVG/1.1/DTD/svg11.dtd" >
<svg xmlns="http://www.w3.org/2000/svg" xmlns:xlink="http://www.w3.org/1999/xlink" version="1.1" viewBox="-10 0 266 256">
   <path fill="currentColor"
d="M160 241q0 4 1 7t4 3t4 -1.5t1.5 -3.5t0.5 -5v-4q0 -7 -1 -14.5t-1 -15.5v-12q1 -2 4 -2.5t7.5 -1t9 -1.5t8.5 -4.5t6.5 -10.5t2.5 -18v-3.5v-3.5q-1 -1 -2 -1.5t-2 -0.5q-2 0 -3 2t-1.5 4.5t-0.5 4.5v3t-0.5 3t-1 4.5t-1 4.5t-0.5 3q-3 4 -7 6t-8.5 2.5t-9.5 0.5h-10
q-10 0 -15.5 -2.5t-8 -7t-3.5 -9.5t-1 -9t-1 -7t-4 -3q-2 0 -3 2.5t-1 4.5v2v1.5t0.5 1t0.5 2.5q2 7 4 13.5t5.5 11t9.5 6.5t16 1l1 1v3.5v4.5v5.5v3.5l0.5 1t0.5 2.5t0.5 2.5l0.5 1q0 1 -0.5 4t-0.5 6.5t-0.5 6.5t-0.5 4v1zM80 206v19q0 2 0.5 5t1 6.5t2 6t3.5 2.5h2.5
t1.5 -2v-5q0 -12 -1.5 -23.5t-1.5 -23.5v-2q0 -2 0.5 -5.5t0.5 -7t0.5 -6l0.5 -2.5q0 -1 1 -4l2.5 -7.5l3 -9t2.5 -6.5q1 -4 3.5 -6.5t3.5 -5.5v-4.5v-4.5q0 -5 -1.5 -9.5t-3 -7.5t-3 -5.5t-1.5 -5.5t2.5 -5t5.5 -3.5t5 -5t2 -9.5t-2 -10.5t-2 -7.5v0q1 -1 3 -1.5t4.5 -1.5
t4 -2.5t1.5 -3.5t-1 -3t-2 -1q-4 0 -7 1.5t-6 2.5l-6 2t-6 1q-1 0 -2 -0.5t-1 -1.5t-0.5 -4l-0.5 -3q0 -5 1 -9.5t1 -8.5q0 -3 -2 -3.5t-4 -0.5t-3 1t-1.5 3t-0.5 3.5v3.5q0 5 1 10t1 10v3q-4 1 -6.5 2l-5 2t-4.5 2.5t-5 3.5q-1 0 -1.5 0.5t-0.5 1.5v22l1 2t2 4.5t2.5 5
t2.5 3.5q0 1 1.5 2.5t1.5 2.5v0.5v0.5v1.5v0.5l-1 1.5l-2 3l-2 3l-1 1.5q-3 6 -5.5 14l-5 16t-3.5 16.5t-1 15.5q0 6 6 6h0.5h0.5l3 -8l7 -41q1 -9 5 -14.5t13 -5.5q0 -3 -1 -5t-1 -5t2.5 -3.5t4.5 -0.5q3 0 5 2.5t3.5 6t2 7t0.5 5.5q0 5 -2 10t-5 9.5t-5.5 9.5t-4.5 10
q-3 11 -3 23v24zM145 166q0 3 0.5 5t4.5 3h5h5q7 0 12 -0.5t11 -3.5q1 -2 1.5 -4.5t0.5 -3.5q0 -4 -2 -6t-4.5 -2.5t-5.5 -0.5h-6h-8t-7 1.5t-5 4t-2 7.5zM153 163q0 -1 0.5 -2.5t2.5 -1.5h19q2 0 2 1v2q0 2 -1 3t-3 2t-4 1h-3h-3.5h-4.5t-3.5 -1.5t-1.5 -3.5zM135 123v8
t1 5.5t2.5 4.5t5.5 5h13h16.5t11 -2t7 -7t2.5 -16q0 -4 -1.5 -7t-4 -4.5t-6 -1.5h-7.5h-8.5t-7 0.5t-7.5 1t-10 1.5t-6.5 4.5t-0.5 7.5zM144 134v-2t1 -2q2 0 7.5 -0.5t11.5 -1t11.5 -0.5t7.5 -1h1q2 0 2 2v3q0 2 -0.5 3.5t-2.5 2.5q-7 1 -12 1h-12h-11q-2 0 -3 -1t-1 -4z
M141 123q0 -2 1 -4t3 -4q8 -1 12.5 -2t10.5 -1q5 0 9.5 1t8.5 4v1v0q0 1 -1 2.5l-1 1.5h-37q-1 0 -2.5 1t-2.5 1q0 1 -0.5 0zM132 58v4v6.5t0.5 9.5t1.5 9.5t2 7.5t3 4q6 1 13 1h12h14t14 -3q2 -1 3 -4.5t1.5 -7t0 -7t-0.5 -5.5v-11t-1 -10q-1 -4 -6.5 -5t-11 -1t-10 -1
t-4.5 -5v-1v-1q1 -1 2.5 -3.5t2.5 -2.5h16l3 -4q-1 -4 -3.5 -3.5t-5.5 0.5h-3t-4.5 -0.5t-4.5 -0.5h-3v-11l-1 -1l-2 -2v0h-1t-3 1t-2 3v31l-1 0.5t-2 0.5l-2.5 1t-5 1.5t-4.5 1t-3 1.5q-3 2 -3.5 3.5t-0.5 3.5zM68 70q0 -2 1 -4t2.5 -3.5l3 -3t3.5 -1.5t3.5 1.5t1.5 3.5
q1 1 1.5 4.5t1.5 7t1.5 7t0.5 5.5v1q0 2 -1.5 3.5t-3 2t-3.5 1.5l-2 1q-4 -2 -5.5 -5t-2.5 -7t-1.5 -7.5t-0.5 -6.5zM146 92q0 -2 2 -4t5 -4t5.5 -4t3.5 -2q2 0 4.5 2.5t4.5 3.5l2 2l2 2l2 2l1 1v2l-3 0.5t-6.5 1t-7.5 1t-5 0.5h-2.5h-3t-3 -1t-1.5 -3zM154 89q0 3 1.5 3.5
t3.5 0.5q3 0 5.5 -1.5t2.5 -5.5h-3t-4 0.5l-4 1t-2 1.5zM168 73q-1 -1 1.5 -4t5.5 -5.5t6 -4.5t5 -2q1 0 2.5 1.5t1.5 2.5v23q0 2 -0.5 2.5t-2.5 0.5t-5 -1.5t-6 -4t-5.5 -4.5t-2.5 -4zM137 70q0 -1 0.5 -2.5t1 -2.5t1.5 -2t2 0q1 0 2 1t1 2q1 0 2 0.5t2.5 1.5t3 1.5
l1.5 0.5v1v1v1.5t-1 1.5q-2 1 -5 4t-5 4.5l-2 1.5h-2v-1t-0.5 -3t-0.5 -4v-4l-0.5 -1.5zM91 62v-4v-3q1 -1 2.5 -2t2.5 -1q2 0 4 2.5t3 5.5l2 6t1 4q0 2 -1 4t-3 3.5t-3.5 2.5t-3.5 1t-3 -2.5t-1 -5.5v-6.5v-4.5zM181 69v7h4v-1v-3t-1 -2t-2 -1h-1zM144 69v6h2
q0 -1 -0.5 -3.5t-1.5 -2.5zM148 57q0 -3 3 -3h21q4 0 4 3q0 1 -2 3t-4 3.5t-4.5 2.5t-3.5 1q-2 0 -4.5 -1t-4.5 -2.5t-3.5 -3.5t-1.5 -3zM159 56q-4 0 -4 4h11q0 -3 -3 -3.5t-4 -0.5z" />
</svg>
