<?xml version="1.0" standalone="no"?>
<!DOCTYPE svg PUBLIC "-//W3C//DTD SVG 1.1//EN" "http://www.w3.org/Graphics/SVG/1.1/DTD/svg11.dtd" >
<svg xmlns="http://www.w3.org/2000/svg" xmlns:xlink="http://www.w3.org/1999/xlink" version="1.1" viewBox="-10 0 266 256">
   <path fill="currentColor"
d="M134 123v3v2.5v2.5v1q-1 11 -3 24t-5.5 26t-8 25t-11.5 21q-2 3 -5.5 5.5t-7 5.5t-6 5.5t-2.5 6.5q9 0 17 -6t13.5 -15t9.5 -19t6 -17q0 -2 1 -5.5t2 -8t2 -8t1 -5.5q0 -1 0.5 -3t0.5 -4t0.5 -4t1.5 -4q0 -1 0.5 -5l1 -8l1 -8t0.5 -5q1 -1 1.5 -3.5t0.5 -3.5q1 -2 5.5 -3
t10 -2.5t12.5 -4t12.5 -7t9 -12.5t3.5 -21v-7v-5.5t-0.5 -5t-0.5 -6.5q-1 -2 -1.5 -4t-1 -4.5t-0.5 -4v-1.5l-2 -2q-3 1 -3 2.5v3.5q0 7 1.5 14t1.5 14q0 10 -3 18t-8.5 14t-13.5 9.5t-17 3.5h-5l-1 -0.5l-1 -0.5v-45l3.5 -1t7 -3.5t7 -6.5t3.5 -9q0 -7 -1 -12t-3 -8.5
t-6.5 -5t-11.5 -1.5h-3h-2q-1 0 -3.5 0.5t-5.5 1.5t-6.5 1.5t-4.5 1.5q-3 0 -4 1.5t-1.5 3.5t-0.5 4.5v4.5l-0.5 1.5t-0.5 3t-0.5 3l-0.5 1.5q1 5 3.5 8.5t5.5 5.5q1 1 5 2.5t7 3t4 1.5l1 38q1 8 -6 8q-16 0 -24 -6t-11.5 -16t-4.5 -21.5t-2 -23.5q0 -1 -1 -1h-2q-2 0 -3 1
t0 3v14v8.5v9t0.5 8.5t2.5 8q3 6 8.5 11t12 7.5t14 3.5t14.5 0l1 2v2v3zM165 170q0 9 0.5 14t2 9t4.5 8t9 10q2 2 4 5t4.5 6t5.5 5t6 2q1 0 1.5 -1.5t0.5 -2.5v-1.5v-1.5q-7 -6 -12.5 -12t-9.5 -13t-6.5 -14.5t-2.5 -17.5q0 -8 2 -16t2 -16v-3t-1 -3q-3 1 -4.5 5t-3 9
t-2 9.5t-0.5 6.5v13zM53 210v1l0.5 0.5t0.5 1.5h1h1l1.5 -1t3 -1.5t3 -1.5l1.5 -1q9 -5 17 -11.5t14 -14.5t9.5 -17.5t3.5 -20.5q0 -1 0.5 -3.5t0 -5t-1.5 -4.5t-3 -2h-1l-1 1l-2 2q-1 7 -2 16t-4 17t-7.5 15t-11.5 12q0 1 -3 2.5t-6 3.5t-6 3.5l-3 1.5q-2 1 -3.5 3t-1.5 4z
M120 31l5 -5l2 -0.5t4.5 -1t5.5 -1t5 -0.5h1q6 0 9.5 3.5t3.5 9.5q0 9 -5 14.5t-15 5.5h-3.5t-5.5 -1t-5 -2t-2 -3v-19z" />
</svg>
