<?xml version="1.0" standalone="no"?>
<!DOCTYPE svg PUBLIC "-//W3C//DTD SVG 1.1//EN" "http://www.w3.org/Graphics/SVG/1.1/DTD/svg11.dtd" >
<svg xmlns="http://www.w3.org/2000/svg" xmlns:xlink="http://www.w3.org/1999/xlink" version="1.1" viewBox="-10 0 266 256">
   <path fill="currentColor"
d="M86 203q0 19 8.5 30t26.5 11q6 0 12 -0.5t11.5 -2.5t9.5 -6.5t8 -10.5q2 -6 4 -14t2 -14q0 -8 -4 -14.5t-10 -10.5t-13 -6t-13 -2q-8 0 -16 3t-14 8t-9 12.5t-3 16.5zM92 202q0 -7 3 -12.5t8 -9.5t11 -6.5t11 -2.5q14 0 23 6.5t9 22.5q0 11 -2.5 18t-7 11.5t-12 6
t-16.5 1.5q-7 0 -12 -3.5t-8.5 -8.5t-5 -11.5t-1.5 -11.5zM118 201q0 4 2.5 5.5t5.5 1.5t6.5 -2.5t3.5 -6.5q0 -2 -3 -2.5t-5 -0.5h-3t-3.5 0.5t-2.5 1.5t-1 3zM50 179v1l0.5 1l0.5 1h1q3 0 6 -2t6 -5t5.5 -6t3.5 -4q0 -2 2.5 -5t5 -7t5 -7.5t3.5 -5.5q1 -8 3 -12.5
t4.5 -7.5t7 -5.5t9.5 -7.5q7 -5 11 -12.5t7 -16.5q0 -1 -1 -2t-1 -2h-1h-1l-0.5 0.5t-0.5 1.5q-1 1 -2 3l-2.5 5t-3.5 5l-2 2q-1 2 -2.5 4t-3.5 4l-3.5 3.5l-1.5 1.5h-5v-18.5t-3 -16.5q-1 -3 -5 -5l-8 -4t-7 -5t-3 -9q0 -3 2.5 -6t5.5 -5t6.5 -3t6.5 -1q7 0 11 3t4 10
q0 6 -2 10.5t-2 10.5q3 0 5.5 -2t4.5 -5.5t3 -7t1 -6.5q0 -6 -2.5 -10t-6 -6.5t-8 -4t-9.5 -1.5q-13 0 -21 7.5t-8 21.5q0 7 4 10.5t9 6.5t9.5 6t4.5 7v25q0 1 -1.5 1h-2.5q-6 0 -10.5 -4.5t-8 -10t-6.5 -10t-6 -4.5v0h-1l-0.5 0.5t-0.5 1.5v0q0 7 4.5 14t10.5 12.5t11 10
t5 7.5q0 6 -4 14t-10 15.5t-12 14.5t-10 11v0zM167 127q0 5 -2 8.5l-4 7t-3.5 6.5t-1.5 7q6 0 9 -4t5.5 -9.5t3.5 -11t2 -10.5q1 -2 5.5 -3.5t10.5 -4.5t10.5 -9.5t4.5 -19.5v-3.5v-2.5l-3 -2q-3 3 -4 8.5t-2.5 11t-5 9.5t-9.5 4q-3 0 -4 -2.5t-1.5 -6.5l-1 -8t-2.5 -5
q-2 -4 -5.5 -7.5t-6.5 -7.5t-5 -8.5t-2 -9.5q0 -9 6.5 -12.5t14.5 -3.5t10 2t2 10q0 1 -0.5 3.5t-0.5 3.5q-1 1 -3.5 4t-2.5 5v2l0.5 0.5t1.5 0.5q6 -3 10 -6.5t4 -11.5q0 -10 -5 -16t-14 -6q-7 0 -12.5 1.5t-9.5 4.5t-6.5 8.5t-2.5 12.5q0 8 4 13.5t8.5 11t8 11t3.5 13.5
v6.5t-4 3.5q-6 0 -10 -4.5t-7 -9.5t-5 -9t-6 -4v1v1q0 1 0.5 3t1.5 2q0 2 1.5 5t2.5 6t2 5.5l1 2.5q2 3 5 4l6 2t5.5 2.5t2.5 4.5z" />
</svg>
