<?xml version="1.0" standalone="no"?>
<!DOCTYPE svg PUBLIC "-//W3C//DTD SVG 1.1//EN" "http://www.w3.org/Graphics/SVG/1.1/DTD/svg11.dtd" >
<svg xmlns="http://www.w3.org/2000/svg" xmlns:xlink="http://www.w3.org/1999/xlink" version="1.1" viewBox="-10 0 266 256">
   <path fill="currentColor"
d="M200 164l1 85q0 2 2 2h2q3 0 5 -2t2 -4q0 -22 -1 -43.5t-1 -43.5v-8v-12t-0.5 -18t-0.5 -21.5t-0.5 -21.5t-0.5 -18v-12q-1 0 -1 -1.5t-1 -3t-1.5 -3t-2.5 -1.5q-6 -3 -14.5 -4t-16.5 -1.5t-16 -0.5h-15l-4 -2v-18q0 -1 -2 -2l-2 -1h-1q-6 0 -7 3t-0.5 7l1 8t-2.5 6
q-15 -1 -31 1t-30 5q-5 5 -7 9.5t-2 9t-0.5 9.5t-2.5 11v105q2 8 2 17v17v4v6.5v6.5v4q-1 1 -1.5 3.5l-0.5 2.5v1q0 2 1.5 3t3.5 1q3 0 4 -2t1.5 -4.5t1 -5.5t0.5 -4q0 -30 -2 -59.5t-2 -59.5v-12q0 -1 0.5 -2.5t0.5 -3.5t0.5 -3.5t0.5 -2.5q0 -5 -0.5 -12t0 -13.5t3.5 -12
t10 -6.5q10 -3 20.5 -4.5t21.5 -2.5h24h24q11 4 18.5 4.5t12 2.5t6.5 7.5t2 19.5v3q0 3 -0.5 6l-1 6t-2.5 3q-4 0 -6 -3t-3 -7.5t-1.5 -8.5t-0.5 -5q-4 -5 -10 -7.5t-13 -3.5t-14 -1h-13h-8l-1.5 1.5t-0.5 1.5t0.5 2.5t1.5 1.5l42 3q3 0 4.5 2t2.5 4t1 5v4q-6 0 -12.5 -0.5
t-12.5 -2t-12.5 -2t-13.5 -0.5h-7l-3 3v0v1q0 1 0.5 1.5t1.5 0.5q2 1 6.5 1t10.5 0.5l12 1t11 1t8 2t3 3.5v3q0 2 -1 2h-49v4l29 5l0.5 1l0.5 1q0 4 -3.5 6.5t-8 4l-9 3t-7.5 3.5q-2 1 -5 3.5l-3 2.5v4q5 0 9 -2t8 -4.5t8 -4.5t9 -2v12q0 2 -6 4.5t-12.5 5t-12 5t-5.5 5.5
q0 2 1 2.5t2 0.5q6 0 10 -3t8 -5q1 -1 3 -1.5l4 -1t3 -1t2 -0.5l3 2v2v2q0 5 -0.5 8.5t-1.5 8.5q-2 1 -6.5 1.5t-9 0.5t-7.5 1t-3 3t0.5 3t3.5 0h7h10h11h7q3 1 6 1.5t5.5 1.5t4.5 3.5t2 5.5t-1 6t-4 3q-2 0 -4 -1.5t-4 -1.5q-4 -1 -7 -1.5t-5 -0.5h-6h-7h-14l-4 2l-4 2
q1 1 3 1.5t4.5 1t4.5 0.5h3h25q3 1 5 3t5 3q-3 2 -11 4l-16 4l-14 3.5l-6 1.5q0 4 3.5 4.5t5.5 0.5q5 0 9.5 -1.5l9 -3t8.5 -2.5t9 -1v0q1 0 2.5 0.5t1.5 1.5q2 2 4 7.5l4 11t3.5 9.5t4.5 4q2 0 3.5 -0.5t1.5 -3.5q0 -5 -1.5 -9t-3.5 -8.5t-3.5 -8.5t-1.5 -9t2 -9.5t2 -9.5
q0 -7 -2.5 -11.5t-6 -6.5t-7.5 -3t-7.5 -1.5t-5.5 -1t-2 -2.5v-3v-2.5t0.5 -3.5t0.5 -4v-3q1 0 2 -1t1 -2h1v0q4 0 7 2t6.5 4.5t6.5 4.5t6 2q1 0 2.5 -0.5t1.5 -2.5q-4 -5 -9.5 -8t-11 -5.5t-9.5 -5.5t-4 -7q0 -3 0.5 -5.5t4.5 -2.5t7.5 2t7 5t6.5 5.5t6 2.5q2 0 2 -1.5
v-3.5q0 -3 -2.5 -5t-5.5 -3q-2 -2 -6 -4t-7.5 -3.5t-6 -3t-3.5 -1.5h-1v-7q1 0 3.5 -0.5l5 -1l5 -1t4.5 -1.5t5.5 -3.5t6.5 -2.5h2q1 0 3.5 0.5t4 1l3 1l1.5 0.5v62v5zM75 235q0 2 1 5t3 3q1 0 3.5 -2.5t2.5 -4.5v-146l1 -20q1 -2 2 -2h2q3 0 6 3.5t3 6.5v25v24v8t-0.5 12.5
t-0.5 12.5v8v5.5t0.5 10t0.5 10v6.5t0.5 8.5t0.5 13.5v13v9q2 0 4 -1t2 -4v-153l-2 -19q0 -2 -5 -4.5t-11 -5t-12 -4t-8 -1.5q0 1 1.5 2.5t3.5 3l4 3t3 3.5v9q0 10 -1.5 19t-1.5 19q-1 17 -1.5 33.5t-0.5 32.5v7v11v10.5v6.5q1 1 1.5 4t0.5 4v2q0 3 -1 6.5t-1 6.5z" />
</svg>
