<?xml version="1.0" standalone="no"?>
<!DOCTYPE svg PUBLIC "-//W3C//DTD SVG 1.1//EN" "http://www.w3.org/Graphics/SVG/1.1/DTD/svg11.dtd" >
<svg xmlns="http://www.w3.org/2000/svg" xmlns:xlink="http://www.w3.org/1999/xlink" version="1.1" viewBox="-10 0 266 256">
   <path fill="currentColor"
d="M67 248l0.5 1t1.5 2v0q8 0 14 -6.5t9.5 -15.5t5.5 -18t2 -15v-4.5t-1 -4.5t-2 -3.5t-4 -1.5l-0.5 0.5t-0.5 1.5q1 6 0 14t-3 16t-6 15.5t-8 11.5q-1 1 -2 1.5t-2.5 1.5t-2.5 2t-1 2zM123 245q1 2 1.5 4t3.5 2q2 0 2.5 -0.5t0.5 -2.5q0 -1 0.5 -3t1 -4.5l1 -5t0.5 -3.5v-1
v-1l-0.5 -1t-0.5 -2q0 -13 -2 -26.5t-2 -26.5q0 -1 0.5 -1.5l1.5 -1.5q15 -3 31 -4l32 -2q1 -1 1.5 -3.5t0.5 -3.5q-13 0 -24 1.5t-24 0.5q-2 2 -4.5 2h-5.5h-2h-2t-2 -1t-1 -2v-16l2 -2h4t10 -0.5t9 -0.5h2.5h2.5t2 -0.5t1 -2.5v-2h-7h-8t-8.5 -0.5t-7.5 -2.5l-3 -1v-14
q0 -1 -1 -1.5l-1 -0.5q-1 0 -2 -0.5t-1 -1.5q-2 5 -3 11t-1 12v12t1 11q-1 1 -1.5 2.5t-1.5 1.5q-14 0 -28.5 0.5t-28.5 1.5q-2 0 -4 1t-2 4l3 1h60l0.5 0.5t0.5 1.5q3 10 3 22.5v22.5v5v8v8.5v5.5zM154 182q0 9 1 16t3.5 13t6 12t8.5 12q4 4 7.5 8.5t9.5 4.5q1 0 2 -0.5
t2 -1.5q-10 -9 -17 -22t-12 -25q-1 -4 -2 -7t-1.5 -5.5t-2 -5t-3.5 -5.5l-2 1v2.5v2.5zM58 137q0 2 2 1.5t3 -0.5q5 0 10.5 -1.5t10.5 -4t9 -6.5t7 -8q1 -1 1.5 -3.5t1.5 -4.5t2.5 -3.5t3.5 -2.5q3 -1 6 -1.5t6.5 -0.5h6.5h6h4.5h4.5q1 2 4 4.5t6 5.5l5.5 5.5l3.5 3.5
q3 3 7.5 5t9 3.5t9.5 2.5t9 2v0q2 0 2.5 -1t0.5 -2q0 -2 -3.5 -4t-8 -4t-10.5 -4.5t-11 -5.5t-8 -5.5t-3 -5.5v-1q1 -3 4 -4.5t6.5 -4.5t7 -6.5t5.5 -9.5q1 -2 1.5 -5.5t0.5 -6.5v-7v-5v-14q-3 -9 -8.5 -13.5t-13 -7t-16 -2.5h-16.5q-9 0 -18.5 2t-18.5 6q-6 3 -9.5 7
t-5 9.5t-1.5 12t-1 13.5v4v4l1 2l1 2v3t0.5 4t0.5 4v2q2 3 5 5t6.5 4t5.5 3.5t2 4.5q0 8 -5 12t-12 7t-13 5t-7 6zM108 94v-1l17 -20q0 -1 3.5 1t6.5 5.5t6 7.5t3 6v1l-1 1q-4 2 -10 1.5t-10 -0.5h-3h-4h-4h-3l-0.5 -0.5l-0.5 -0.5v-1zM82 69q0 -4 3.5 -6t8.5 -4t9.5 -4
t7.5 -5q3 -5 4 -10t2 -9t4 -6t9 -2h4t3 1q0 1 0.5 2t0.5 2.5t0.5 2.5l0.5 1q1 3 2 6.5t2.5 7.5t4 7t5.5 4q1 1 3.5 2t5.5 2t4.5 2.5t1.5 3.5t-1 6t-3 8t-4.5 6.5t-4.5 2.5q-3 0 -7 -4.5t-8 -10.5t-8 -11.5t-7 -7.5q-2 1 -2.5 2.5t-1.5 3t-1.5 3.5t-0.5 3q-3 4 -5 7.5
t-4.5 6.5t-5 5.5t-6.5 5.5h-0.5h-0.5q-4 0 -6.5 -2.5t-4.5 -6.5t-3 -8t-1 -7zM145 30q0 -3 2.5 -3.5t4.5 -0.5q4 0 8 1.5t7 5t4.5 7.5t1.5 8t-1 6.5t-5 2.5t-8 -2.5t-7 -7t-5 -9.5t-2 -8zM82 48q0 -4 2 -8t5 -7t7 -5t8 -2h4t3 3q-3 9 -8.5 16.5t-15.5 10.5q-1 -2 -3 -3.5
t-2 -4.5z" />
</svg>
