<?xml version="1.0" standalone="no"?>
<!DOCTYPE svg PUBLIC "-//W3C//DTD SVG 1.1//EN" "http://www.w3.org/Graphics/SVG/1.1/DTD/svg11.dtd" >
<svg xmlns="http://www.w3.org/2000/svg" xmlns:xlink="http://www.w3.org/1999/xlink" version="1.1" viewBox="-10 0 266 256">
   <path fill="currentColor"
d="M144 159v46t2 46h7q0 -24 1 -47t0 -47q4 -5 12 -5.5t16.5 -0.5t16.5 -0.5t11 -5.5l-2 -2h-3h-6q-12 0 -23 1t-23 1v-25q0 -3 -3 -4.5t-5 -1.5v31l-1 1l-1 1q-4 1 -8 1.5t-8.5 1t-8.5 0.5h-6h-4t-6.5 0.5t-7.5 0.5h-4v4l2 0.5t4.5 1t5 0.5h3.5h3h3q8 0 14.5 -1t14.5 -1
q1 0 3 0.5t1 3.5zM95 227v4q6 0 10 -3.5t7 -9.5t5 -13t3.5 -13.5t2 -12.5t0.5 -10q-4 0 -7 6t-5 14t-4 15.5t-3 10.5q-1 1 -2 2.5t-2.5 3.5t-2.5 3.5t-2 2.5zM169 165q0 7 4 17t9.5 19.5t12.5 16.5t14 7h3.5t1.5 -2q0 -1 -2.5 -3.5t-5 -4.5l-5 -4t-3.5 -3q-7 -10 -14 -21
t-13 -22h-2zM43 201q0 1 1 1.5t2 0.5h2q7 -6 14 -17t12.5 -24t9.5 -26t4 -21v-3v-3v-4v-3q1 -1 1.5 -4.5t2 -7.5t2.5 -8t1 -5q4 -6 13 -9.5t19.5 -5.5t22 -3t21 -1.5t16.5 -2t8 -3.5q2 -6 2 -10.5v-9.5v-13q-1 -2 -2.5 -4.5t-3.5 -2.5h-1q-2 1 -2.5 3.5t-1 4.5t-0.5 4v2
l-3 2q-27 -1 -54 0.5t-54 5.5v1v1q0 3 2 3.5t4 0.5q23 0 45.5 -3t44.5 -3h14q0 1 0.5 2t0.5 2v0q0 2 -1.5 5t-3.5 3l-66 11q-6 2 -12.5 3t-12.5 5q-4 2 -6.5 10t-3.5 17t-2 17t-1 12q-3 16 -9.5 32.5t-12.5 30.5q-2 1 -4 3t-4 4.5t-3 5t-1 4.5zM127 123q-3 5 -5 10.5
t-2 11.5q3 0 4.5 -1.5t3 -3.5t2.5 -4.5t1 -4.5t-1 -4.5t-3 -3.5zM164 126q0 6 4 10t11 4q0 -6 -4.5 -10.5l-8.5 -8.5q-1 1 -1.5 2t-0.5 3zM152 75h-1l-2 2q-3 7 -5 11.5t-7 10.5q-2 3 -6.5 6l-9 6t-8 6.5t-3.5 7.5q7 0 12.5 -4t10.5 -9t9.5 -9t10.5 -4h5q9 10 18 16t22 6
q3 0 4.5 -0.5t1.5 -2.5v-1l-1 -1q-15 -2 -26 -10.5t-21 -19.5v-2.5t-0.5 -3.5t-1.5 -3.5t-2 -1.5zM105 97v0v0q0 1 1 1.5l1 0.5q3 -1 6.5 -2.5t6 -3.5t4.5 -5t2 -6v-4.5t-3 -2.5q-2 0 -3 1.5t-2 3.5t-1.5 3.5t-1 2l-2 2t-3 3.5t-3 3t-2.5 2v0.5v0.5zM174 72q0 5 2.5 9.5
t6.5 7.5t9 4.5t10 1.5q0 -5 -3 -7l-6 -4q0 -1 -2.5 -2.5t-5 -3.5t-4.5 -3.5t-3 -2.5h-4z" />
</svg>
