<?xml version="1.0" standalone="no"?>
<!DOCTYPE svg PUBLIC "-//W3C//DTD SVG 1.1//EN" "http://www.w3.org/Graphics/SVG/1.1/DTD/svg11.dtd" >
<svg xmlns="http://www.w3.org/2000/svg" xmlns:xlink="http://www.w3.org/1999/xlink" version="1.1" viewBox="-10 0 266 256">
   <path fill="currentColor"
d="M104 229v6q0 3 0.5 6.5t2 6.5t3.5 3q5 0 6.5 -4t1.5 -8q0 -1 -1 -3.5l-1 -2.5v-60q-2 -3 -2 -7v-8v-5v-4q0 -4 0.5 -13.5t1 -20.5t1 -20.5t1.5 -13.5q0 -2 1.5 -3.5t4 -2l5 -1t3.5 -0.5q3 0 8.5 -0.5l11 -1t10.5 -1t7 -0.5h27q3 -2 3 -5q0 -2 -0.5 -3t-2.5 0h-2
q-1 0 -3 -0.5t-3 -0.5h-2q-18 0 -34.5 2t-33.5 5q-4 2 -6.5 5.5t-3.5 7.5t-1.5 8t-0.5 8t1 6.5t1 7.5v8q0 1 -1 3.5t-1 3.5l1 2t1 3v54q-3 10 -3.5 21.5t-0.5 21.5zM47 117v129l0.5 0.5t1.5 0.5q0 1 1 1.5t2 0.5q2 0 4 -1t2 -4v-112q1 -5 1.5 -9t0.5 -8v-9.5v-9.5
q0 -9 2 -16t3 -16q4 -6 15 -9t25 -3.5t28 -0.5q15 0 27.5 -1.5t20 -5.5t7.5 -12q0 -4 -0.5 -7.5t-1.5 -6.5t-4 -5t-8 -2q-25 0 -51 2.5t-52 4.5q-4 0 -6.5 0.5t-4.5 1.5t-3 3.5t-1 6.5q12 0 24.5 -1.5t25 -2.5t24.5 -2t24 -1h4h7h6h4q2 2 2 4v3q0 6 -4.5 8t-9.5 3
q-24 0 -45 1.5t-44 5.5h-3t-4 0.5t-4 0.5h-3q-6 5 -8 13.5t-2 18t-0.5 19.5t-2.5 17zM90 147q0 16 -1.5 31t-6.5 30q-1 5 -3 10t-4 9t-3.5 9t-1.5 10q7 0 10.5 -6t6 -14.5t4.5 -16.5t4 -13q0 -7 0.5 -14t0.5 -13t0.5 -12.5t0.5 -13.5q0 -4 -0.5 -7.5t-1.5 -6t-3.5 -4.5
t-7.5 -2q-7 0 -10.5 6t-5.5 14t-2 16v13v14l1 1l1 1q0 1 1.5 1.5l1.5 0.5q2 -1 3.5 -4t1.5 -5v-4.5v-7.5v-7.5v-4.5v-5t1 -7t2.5 -7t4.5 -3t5 2q0 1 0.5 5t0.5 5zM132 219q0 4 1.5 7t4 4.5t5.5 2.5t7 1q2 1 7 1t10.5 0.5t10 1t5.5 0.5q1 1 3 1h4h4t4 -1q2 -1 2.5 -2t0.5 -2
q0 -2 -1.5 -4t-3.5 -2h-21q-2 0 -3.5 -1.5t-2 -3.5t-0.5 -4v-4q0 -4 2.5 -6.5t6.5 -3.5t8 -1h9l3 -3v-29q-5 0 -7 2.5t-3 6.5t-0.5 8t0.5 7q-3 1 -5 1h-5h-2.5t-3 -0.5l-3 -1t-1.5 -1.5v-23q0 -1 -1.5 -1.5t-2.5 -0.5t-2.5 0.5t-1.5 1.5v51q0 2 -3 3.5t-4 1.5q-6 0 -8.5 -3
t-3 -7.5t0 -10t0.5 -10t-0.5 -8t-3.5 -3.5t-4.5 3.5t-1.5 6.5q0 2 1 4t1 4v3l-0.5 2.5t-0.5 4.5t-0.5 4.5zM138 166q0 1 1 1.5l1 0.5h1q3 0 4 -3t1 -5q0 -6 -0.5 -12t-0.5 -11q0 -2 0.5 -3t1.5 -1h1q1 1 2 2.5l1 1.5l3 20l2 1l3 -3v-2v-3q0 -14 -5 -26q0 -2 -1 -2.5
t-2.5 -0.5t-2 -0.5t-0.5 -3.5t1.5 -4.5t4 -3.5t4 -4.5t1.5 -7.5v-6q0 -1 -2 -2.5t-3 -1.5l-1.5 1.5t-1.5 2.5t-0.5 5.5t-0.5 5.5h-4v-2.5v-2.5v-2.5t-0.5 -4t-0.5 -4v-2.5q-5 -3 -12 -3h-2t-2 1q1 1 4 3t4 2q0 1 0.5 1.5l0.5 0.5v16q0 1 -0.5 1.5l-0.5 0.5h-1
q-3 0 -3.5 -2.5t-0.5 -5.5t-0.5 -5.5t-2.5 -2.5q-3 0 -3.5 2.5t-0.5 4.5q0 6 2.5 9t4.5 5t4 2.5t2 2.5q0 3 -1 4.5t-3.5 3.5t-4.5 3l-4 2q-2 2 -3 5.5t-1 7v7.5v5v4.5t3 2.5l1.5 -1l1.5 -1q0 -1 0.5 -3.5t1 -5.5t1 -5.5t0.5 -3.5q1 -1 1 -3t0.5 -4t1.5 -3.5t3 -1.5
q1 0 1.5 3.5t1.5 7.5t1 8v6v5v1t-0.5 2l-1 2zM180 133q3 2 3 6.5v9.5t0.5 9t3.5 4h1v0l1.5 -1.5l0.5 -0.5v-25q0 -4 3 -4q1 0 2.5 1t2.5 3l3 22l1 1l1 1q2 0 3 -1.5t1.5 -3.5t1 -3.5t0.5 -2.5q0 -8 -1.5 -14t-8.5 -10q0 -1 -1.5 -1.5l-3 -1t-2.5 -1l-1 -0.5q0 -3 2.5 -5.5
l5 -5t5 -6t2.5 -8.5v-3v-3.5t-1 -3t-2 -1.5q-3 0 -4.5 2.5t-2 6t-0.5 5.5v4q0 2 -1 2h-2h-0.5h-1.5q0 -4 -1 -9t-2 -9q0 -1 -1 -2.5l-1 -1.5h-11q-1 0 -1 1.5v2.5v1q8 -1 8 7q0 1 -0.5 2.5t-0.5 3t-0.5 3.5l-0.5 2q0 1 -0.5 1.5t-1.5 0.5q-2 0 -3.5 -1.5t-2.5 -4t-2 -4.5
t-3 -3v2v3q0 5 2.5 7.5t5 4.5t5 3.5t2.5 4.5q0 2 -2.5 5.5t-6 8t-6 10t-2.5 11.5q0 2 2 3.5t3 1.5l1 -0.5l1 -0.5q1 -2 1.5 -5.5t1 -7.5t1.5 -7t4 -5zM69 105q0 2 2 2h3q6 0 9.5 -2.5t6 -7t3.5 -9.5t1 -9q0 -3 -1.5 -6.5t-3.5 -6t-5 -4.5t-6 -2q0 4 1 7t2.5 5.5l3 5t1.5 6.5
t-3 6.5t-6 4.5t-5.5 4t-2.5 6z" />
</svg>
