<?xml version="1.0" standalone="no"?>
<!DOCTYPE svg PUBLIC "-//W3C//DTD SVG 1.1//EN" "http://www.w3.org/Graphics/SVG/1.1/DTD/svg11.dtd" >
<svg xmlns="http://www.w3.org/2000/svg" xmlns:xlink="http://www.w3.org/1999/xlink" version="1.1" viewBox="-10 0 266 256">
   <path fill="currentColor"
d="M141 134q0 1 0.5 2.5t0.5 3.5t0.5 4l0.5 2q1 9 1.5 18.5t1.5 18.5t3 18t5 18q1 3 3 8l4 10t5.5 9t8.5 4q7 0 7 -6q0 -2 -2 -5.5t-4 -7.5t-4.5 -7.5t-3.5 -4.5q-5 -12 -9 -25t-6 -25q0 -1 -0.5 -4.5t-0.5 -6.5v-7v-4v-11t0.5 -12t2 -11.5t4.5 -10.5h0.5h0.5q3 0 7.5 3.5
t9.5 7.5t11.5 7t13.5 3t7 -6q0 -2 -3 -4t-7.5 -4t-9.5 -4t-9.5 -4t-8 -4.5t-3.5 -5.5q0 -6 5.5 -10t12 -8t11.5 -7.5t5 -7.5t-1 -4.5t-4 -0.5h-2q-2 0 -2 1q-2 1 -5 3.5t-6.5 5.5t-6.5 6t-5 4q-3 3 -5 5.5t-7 2.5q-2 0 -3.5 -1t-2 -3t-0.5 -4v-4q0 -8 3.5 -14t8.5 -10.5
t11.5 -8.5t12.5 -8q3 -3 5 -4t3 -2t1.5 -3.5t0.5 -6.5q-2 0 -6.5 2t-10 5t-11 6.5t-10.5 7.5t-8.5 7t-3.5 5q-2 7 -3 11t-1 10q0 4 1 7.5t2.5 7.5t2.5 7.5t1 7.5q0 3 -1 4t-2 4q-1 1 -1.5 5l-1 8t-1.5 7.5t-1 5.5l-1 2zM80 244q0 2 0.5 3t2.5 1q5 0 8 -3.5t5 -8.5t3 -10
t2 -9q0 -1 1 -6t2 -10.5t2 -10.5t2 -7v-3t0.5 -6t0.5 -5.5v-3.5l0.5 -1.5l1 -3l1 -3t0.5 -2.5v-1t0.5 -3t0.5 -4v-3q0 -9 -1.5 -17t-1.5 -17v-2q0 -2 0.5 -4t0.5 -4v-3q3 -4 5.5 -8.5t3.5 -8.5t1.5 -9t0.5 -11v-8.5t-2 -7.5q-1 -3 -5 -6.5t-9.5 -7t-12 -6.5t-13 -5.5t-11 -4
t-7.5 -1.5q-4 0 -5 0.5t-1 4.5q0 3 4 5t10.5 4t14 4.5t13.5 7.5t10.5 11.5t4.5 16.5v1q0 2 -0.5 3.5t-0.5 2.5v2q0 1 -1 2.5l-2 3t-2 2.5t-3 1l-2.5 -2.5t-6.5 -6t-8.5 -7.5t-9.5 -7.5t-10 -6t-9 -2.5q-3 0 -5 2t-2 5q0 2 3 4t8 4t11 4.5t10.5 5.5t8 7t3.5 9q0 1 -0.5 2
t-1.5 1q-1 1 -3.5 2t-6 2t-6 2t-3.5 1q-4 1 -8.5 1t-8.5 1t-7 3.5t-3 7.5q8 0 17 -1t16 -2q6 -4 10 -6t10 -2q0 3 0.5 10t0.5 15v15v9q-1 18 -5 37.5t-9 36.5q-2 4 -4.5 7t-2.5 8z" />
</svg>
