<?xml version="1.0" standalone="no"?>
<!DOCTYPE svg PUBLIC "-//W3C//DTD SVG 1.1//EN" "http://www.w3.org/Graphics/SVG/1.1/DTD/svg11.dtd" >
<svg xmlns="http://www.w3.org/2000/svg" xmlns:xlink="http://www.w3.org/1999/xlink" version="1.1" viewBox="-10 0 266 256">
   <path fill="currentColor"
d="M50 246q0 2 2.5 2.5t4.5 0.5q8 0 17 -3.5t16.5 -9.5t12.5 -14t6 -17q0 -1 0.5 -4t0.5 -6t0.5 -6t0.5 -4q2 -19 2.5 -37.5t1.5 -37.5q1 -3 4 -4t6.5 -1h6.5h5h10q2 1 2 2v3q0 9 -1 17.5t-1 17.5q0 11 0.5 22t2.5 21v2q3 10 5 20.5t6 19t11.5 14t20.5 5.5h4.5h2.5l5 -5
l-5 -5h-19q-1 0 -2 -1l-2.5 -2.5t-3 -3.5t-2.5 -3q-5 -7 -8 -16t-5 -19.5t-2.5 -21t-0.5 -18.5v-6v-5v-9.5t0.5 -10.5t0.5 -9v-4l2 -3h30q4 0 5 -0.5t1 -3.5q0 -5 -6 -5h-53q-1 0 -2 -2.5l-1 -2.5v-3.5t0.5 -5t1 -5.5t1.5 -4q9 -1 18 -2.5t17 -3.5l0.5 -1l0.5 -1
q2 -2 3.5 -5.5l1.5 -3.5v-38l-0.5 -0.5l-0.5 -0.5q-1 -1 -2 -1.5t-2 -0.5q0 1 -1.5 2l-1.5 1v35q0 3 -3 5t-7.5 3.5t-9 2t-5.5 0.5h-3.5h-3.5q0 -1 -1.5 -2.5t-1.5 -2.5v-42q0 -3 -1.5 -5.5t-4.5 -2.5t-3 3v52q0 1 -2 1h-2q-6 0 -10.5 -0.5t-9.5 -0.5l-2 -2l-1 -1
q0 -1 -1 -3t-2 -4.5t-1.5 -4t-0.5 -2.5v-4.5v-7.5v-7.5v-4.5q0 -3 -1.5 -5.5t-5.5 -2.5v0q-2 1 -3 3t-1 4v1q1 0 1.5 2l0.5 2l3 34q1 5 5.5 7.5t10.5 3.5t12 0.5t9 -0.5v24h-55q-1 0 -1.5 1.5t-0.5 2.5q0 3 2.5 4t4.5 1q8 0 16 -1t15 -1q0 21 0.5 42t-3.5 41q0 1 -0.5 2
l-0.5 1v4.5t-0.5 6t-0.5 6.5t-1 5q0 2 -0.5 3t-1.5 2t-2.5 1.5t-2.5 2.5q-1 0 -3 2t-4 4.5t-4 4.5t-3 2q-2 2 -6.5 2.5t-9 0.5t-8 1.5t-3.5 6.5z" />
</svg>
