<?xml version="1.0" standalone="no"?>
<!DOCTYPE svg PUBLIC "-//W3C//DTD SVG 1.1//EN" "http://www.w3.org/Graphics/SVG/1.1/DTD/svg11.dtd" >
<svg xmlns="http://www.w3.org/2000/svg" xmlns:xlink="http://www.w3.org/1999/xlink" version="1.1" viewBox="-10 0 266 256">
   <path fill="currentColor"
d="M104 249q0 2 1 2h3q4 0 9.5 -4.5t10.5 -12t10 -17t9 -18t6 -15.5t2 -10q0 -8 -4 -14t-8.5 -12t-8.5 -12t-4 -14q0 -5 1.5 -8.5t3 -7.5t2.5 -7.5t1 -7.5t-3 -4t-5.5 4.5t-3.5 10t-1.5 11t-0.5 7.5q0 6 1.5 12t1.5 11q0 3 -4 9t-9 13t-10.5 13t-7.5 9q-3 5 -7.5 9t-8.5 8
t-6.5 9t-2.5 10q3 0 6.5 -2.5t5.5 -5.5q6 -7 11.5 -15t11.5 -16t12.5 -15.5t13.5 -13.5h3q3 0 7 4t4 7v21q-6 10 -10 18.5t-11 18.5q-2 3 -5.5 6.5t-7 6.5t-6 6.5t-2.5 5.5zM90 203q1 0 1 1q0 2 -1 2t-1 -2q0 -1 1 -1zM165 101q0 22 3.5 41.5t13.5 38.5q1 3 2 5.5t2.5 5.5
t3.5 4.5t6 1.5q2 0 3 -1.5t1 -3.5q0 -4 -3.5 -7t-5.5 -6q-3 -3 -6 -9t-6 -12.5t-5 -13t-2 -9.5v-38q0 -1 -2 -1.5l-2 -0.5q-3 0 -3 1.5v3.5zM57 191q0 1 0.5 1.5l1.5 1.5q5 -2 9.5 -7t8.5 -12.5t7 -16.5t5 -18t3 -16t1 -12v-11l-2 -2l-1 -1l-0.5 -0.5l-0.5 -0.5q-2 0 -3 2.5
t-1 5.5v5.5v3.5t-0.5 3.5t-0.5 5t-0.5 5t-0.5 3.5q0 7 -1.5 12t-4.5 12q-1 3 -4 8.5t-6.5 11t-6.5 10t-3 6.5zM88 61v23q0 3 0.5 3.5t2.5 0.5h2t1 -1q2 -3 2.5 -6.5t0.5 -7.5q0 -3 -0.5 -6.5t-0.5 -5.5q3 0 7 -0.5t7.5 -1.5t6 -3.5t2.5 -6.5v-26l-0.5 -0.5t-0.5 -1.5h-1h-1
q0 1 -1.5 1.5l-1.5 0.5v4t-0.5 6t-0.5 6v4q-1 4 -2.5 6.5t-6.5 2.5h-2q-1 0 -2.5 -0.5t-1.5 -1.5v-38h-3h-3l-0.5 0.5l-0.5 0.5v37l-2 3l-1 0.5t-2 0.5t-3.5 -0.5t-4.5 -1.5t-3.5 -2.5t-1.5 -3.5v-25l-1.5 -0.5t-2.5 -0.5l-0.5 0.5t-1.5 0.5q0 1 -0.5 2l-0.5 1v23
q0 5 2.5 7.5t6 4t7.5 2t7 0.5zM139 22v5v6q0 4 0.5 7t0.5 4q0 9 3 12t7 4t7 1t3 3v20l1 1l2 2h1h1q0 -1 1.5 -2.5t1.5 -2.5v-17l1 -0.5t1.5 -0.5t3 -0.5t3.5 -1.5h1.5h3t3 -0.5l1.5 -0.5q3 -1 5 -5t3 -8.5t1.5 -9t0.5 -6.5t-0.5 -5t-2.5 -3q-4 0 -4.5 2.5t-1 5.5t-0.5 7
t-1.5 7.5t-5 5.5t-9.5 2v-37q0 -3 -1.5 -4.5t-4.5 -1.5v0q-1 0 -1.5 2l-0.5 2v5.5v8.5v8v6q0 4 -1.5 8t-6.5 4q-1 0 -2.5 -0.5t-3.5 -1t-3 -2t-1 -2.5v-25l-1 -0.5t-2 -0.5t-2 -0.5z" />
</svg>
