<?xml version="1.0" standalone="no"?>
<!DOCTYPE svg PUBLIC "-//W3C//DTD SVG 1.1//EN" "http://www.w3.org/Graphics/SVG/1.1/DTD/svg11.dtd" >
<svg xmlns="http://www.w3.org/2000/svg" xmlns:xlink="http://www.w3.org/1999/xlink" version="1.1" viewBox="-10 0 266 256">
   <path fill="currentColor"
d="M80 218q4 6 9.5 8.5t12.5 3.5t14 1h11h5h6h5h2q1 0 4 -0.5t6.5 -1t7.5 -1t6 -1.5q6 -1 9 -5t4.5 -10t1.5 -12v-12v-8t-0.5 -7.5t-2 -7t-3.5 -8.5h-1v0q-2 3 -2 6.5v6.5q0 2 -0.5 7t-1 11t-1 11t-0.5 7l-2 4t-3 2q-3 0 -6.5 -3.5t-7.5 -8.5t-8 -11t-7.5 -12t-5.5 -11
t-3 -7v-4v-5v-5v-4v-6.5t-0.5 -9t-1 -8.5t-0.5 -5q0 -2 -1 -5.5t-4 -3.5h-1q-2 14 -2 25t-0.5 21.5t-3.5 21.5t-10 23q-2 2 -3.5 5l-3 6t-3.5 5t-5 3v-1q-2 -11 -4.5 -20.5t-3.5 -20.5q-1 -3 -1.5 -6t-4.5 -3h-1q0 1 -0.5 1.5t-1.5 0.5v1q0 6 0.5 12.5t1.5 13.5t2 14.5
t3 12.5zM101 218l-0.5 -0.5l-0.5 -0.5v-1q0 -1 1.5 -4t4.5 -6.5t6.5 -8t6.5 -8t5 -5.5t3 -2v0q2 1 5.5 5t8 8.5t8 8.5t5.5 6q0 1 1 2.5t2 2.5v1q0 2 -1 3t-3 2t-3.5 1h-2.5h-2h-4.5h-5.5h-4h-15t-15 -4zM165 52q2 12 3 24l2 24t3 24t7 23q3 7 8 14l10 14q2 3 3.5 5.5t3.5 5
t4.5 4t6.5 1.5v-6q-10 -9 -16.5 -21.5t-11 -26.5t-7 -28.5t-3.5 -28.5q0 -7 -1 -15t-3 -14t-7 -10t-15 -3q-1 0 -3 0.5t-4.5 1t-4.5 1t-3 1.5q-2 0 -2.5 5.5t-0.5 12t-0.5 12.5t-1.5 8h-5q-1 0 -3.5 0.5t-5 0t-4.5 -1t-3 -2.5q-1 -10 -0.5 -16.5t-0.5 -11.5t-5 -7t-14 -2
q-5 0 -8.5 2t-6 6t-3.5 8.5t-1 8.5q0 5 1 9.5t1 9.5q0 2 -0.5 5l-0.5 3q0 1 -0.5 3t-1.5 4.5t-1.5 4.5l-0.5 2q-2 6 -2.5 11.5t-1.5 11t-2.5 11t-3.5 10.5t-5.5 9.5t-6 9.5t-4.5 10t-2 10h6q1 -2 2.5 -5.5t2.5 -5.5l2.5 -2t2.5 -3q2 -2 4 -6.5t4 -8.5l4 -8t4 -5
q0 -8 2 -15.5t4 -14.5t4 -14.5t2 -15.5q0 -4 -1 -7.5t-1 -7.5q0 -3 0.5 -6.5t2 -7t3.5 -5.5t6 -2h1q1 0 3 0.5t2 1.5q1 7 2.5 15t2.5 16q1 2 3.5 3.5t5 1.5h5.5h4t5 0.5t6 -0.5t5 -2.5t2 -4.5v-21q0 -6 5 -9t9 -3q3 0 5.5 1.5t3.5 3.5z" />
</svg>
