<?xml version="1.0" standalone="no"?>
<!DOCTYPE svg PUBLIC "-//W3C//DTD SVG 1.1//EN" "http://www.w3.org/Graphics/SVG/1.1/DTD/svg11.dtd" >
<svg xmlns="http://www.w3.org/2000/svg" xmlns:xlink="http://www.w3.org/1999/xlink" version="1.1" viewBox="-10 0 266 256">
   <path fill="currentColor"
d="M161 245q-1 1 1 3t4 2q7 0 13.5 -3.5t13 -9t11.5 -11t8 -10.5q2 -3 2 -5.5v-5.5q0 -5 -3 -10t-9 -5q-5 0 -10.5 1.5t-10.5 3t-9.5 2.5t-8.5 1q-6 0 -8 -3t-3 -7.5t-1 -10v-11t-1 -9.5t-4 -5l-4 3v3v4q0 3 0.5 10.5t2 15.5t3.5 14t6 6h12l30 -10h0.5h1.5q3 0 5.5 1.5
t2.5 5.5t-2 7.5t-4.5 7t-6 6t-6.5 3.5q-1 1 -4.5 3t-7 3.5t-7 3.5t-4.5 2l-2 2t-1 2zM124 235q0 4 0.5 6.5t4.5 2.5l1.5 -0.5l1.5 -0.5q0 -1 0.5 -3t0.5 -4t0.5 -4t0.5 -3v-1q0 -27 -2 -54.5t-2 -55.5v-7v-11q0 -5 0.5 -10t0.5 -7q0 -9 2.5 -15t7 -9.5t11 -5t15.5 -1.5
q3 0 3 3t-0.5 7t-0.5 8v4q0 1 0.5 3t0.5 3t0.5 4t0.5 7q0 3 -0.5 6.5t-0.5 4.5q1 1 2 1.5t2 0.5q2 0 3.5 -2.5t1.5 -4.5q0 -9 -1 -17.5t-1 -17.5v-8q5 -4 8.5 -4.5t7 -2t5 -5t1.5 -13.5v-6t-2 -5q0 -1 -1 -2.5t-2.5 -2.5t-2 -1.5t-1.5 -0.5h-56q-1 0 -2.5 0.5t-3 2t-2.5 3
l-1 1.5v1q1 1 1.5 2t0.5 2h3h3h4h3q8 0 17 -1t18 -1q5 0 8.5 1t3.5 7q0 4 -1.5 6.5t-5.5 6.5q-1 0 -4.5 0.5t-8 1t-8.5 1t-5 0.5q-3 0 -6.5 1t-7.5 2t-7.5 3t-5.5 4q-1 2 -1.5 5.5l-1 7t-0.5 6.5v4q-1 4 -1.5 10l-1 12l-1 12t-0.5 11q0 20 3 39t3 38q0 9 -1 17.5t-1 17.5z
M44 181l1 1.5t2 2.5t2.5 2t2.5 1h37q3 0 6.5 -1.5t6.5 -4.5t5 -6.5t2 -6.5v-83q-1 -2 -1.5 -3.5t-0.5 -2.5v-3v-4t-0.5 -6t-0.5 -9t-0.5 -9t-0.5 -6q-1 -2 -2 -3.5t-4 -1.5q-2 0 -3 2t-1 4q0 18 2.5 35.5t4.5 34.5v2q0 3 -0.5 10.5t-1 15.5t-1 14l-0.5 6h-2l-1.5 -1l-3 -2
t-3 -3t-2.5 -2q0 -1 -1 -2l-2 -2l-2 -2t-2 -1v-14v-20.5t-0.5 -24.5t-0.5 -24.5v-20.5v-13v-14l-2.5 -2.5t-3.5 -1.5t-3 1.5t-2 3.5t-1 3.5v3.5q0 11 1.5 22.5t1.5 22.5q0 1 -0.5 3.5t-0.5 3.5v71q0 1 -2 3t-4 3.5t-4.5 2.5t-4.5 1h-1h-1q0 -1 -0.5 -4.5t-0.5 -7t-0.5 -6.5
t-0.5 -5v-9v-16v-18.5v-18v-15.5v-10q-1 -1 -1 -2q-1 -1 -2.5 -1.5l-1.5 -0.5q-2 1 -3.5 4t-1.5 5v91q0 1 1 3.5t1 3.5v6.5t0.5 9.5t1 9t0.5 6zM161 172q1 6 6 7.5t10 1.5q6 0 8.5 -2t4.5 -5t3 -5.5t3 -3t4.5 -1.5l5 -2t4 -3t1.5 -5v-30q0 -2 -2 -2h-3q-3 0 -4 2.5t-1 6.5
q0 3 0.5 7.5t0.5 8.5t-1 6t-4 2q-5 0 -5.5 -3t-1.5 -7v-23l-0.5 -1t-1 -2.5t-1.5 -3t-2 -1.5h-1q-1 0 -2 1.5t-2 2.5v2.5v3.5q0 8 1 16t1 16v4t-0.5 6t-2 5t-4.5 2q-2 0 -4.5 -3.5t-3.5 -5.5q-1 -10 -1.5 -20.5t0.5 -21.5q-1 -1 -2.5 -1.5t-2.5 -0.5q-3 0 -3.5 3.5t-0.5 5.5
v4q0 2 0.5 7.5t1 12t1 12t1.5 7.5zM55 174q0 -4 2.5 -5t4.5 -4q1 0 2.5 -1.5t3.5 -3t3.5 -3t1.5 -2.5h2l15 16l0.5 0.5l0.5 0.5q0 3 -4 6h-7h-5.5t-8.5 -1t-7.5 -1.5t-3.5 -1.5zM140 100q0 2 1.5 3t3.5 1q1 0 4.5 -1t6.5 -2.5t5 -3.5t1 -6l-1.5 -0.5l-1.5 -0.5h-1h-1l-17 8
v2zM186 89q0 3 2 6t5.5 5t6.5 3.5t6 1.5q0 -10 -5.5 -13t-14.5 -3zM144 76q0 4 3 4q1 0 3.5 -1l5 -2t4.5 -2.5t2 -2.5q0 -2 -2 -2.5t-3 -0.5q-4 0 -6.5 1t-6.5 4v1.5v0.5zM184 67q0 5 3 7t7 3t8.5 1.5t7.5 0.5q0 -5 -3 -7t-7 -3.5t-8.5 -1.5h-7.5z" />
</svg>
