<?xml version="1.0" standalone="no"?>
<!DOCTYPE svg PUBLIC "-//W3C//DTD SVG 1.1//EN" "http://www.w3.org/Graphics/SVG/1.1/DTD/svg11.dtd" >
<svg xmlns="http://www.w3.org/2000/svg" xmlns:xlink="http://www.w3.org/1999/xlink" version="1.1" viewBox="-10 0 266 256">
   <path fill="currentColor"
d="M123 243q0 1 1 4.5t4 3.5t5.5 -2.5t2.5 -5.5v-4v-6v-5.5v-3.5q0 -2 1 -3t2.5 -1.5t3 -0.5h1.5h47q2 0 2.5 -2t0.5 -3v-2.5t-1 -1.5q-1 0 -3 -0.5t-4 -0.5h-3h-3q-9 0 -18 1t-19 1h-2h-3t-3.5 -1t-1.5 -2t1 -2.5t2 -2.5q7 0 13.5 -0.5t11.5 -2.5t7.5 -7t2.5 -14l-0.5 -2
t-0.5 -3q-1 -1 -1.5 -2t-2.5 -1q-3 0 -4 3t-2 7t-2 7.5t-3 4.5q-1 0 -4 0.5t-4 0.5h-3t-4 -0.5t-3 -1.5t-1 -3t2 -2.5t4 -2t4 -5.5t3 -12l3 -2h2.5t6 -0.5t7 -0.5h6.5h3h5h5.5h3.5q3 0 3.5 -2t0.5 -4q0 -3 -0.5 -4t-3.5 -2q-1 0 -2.5 0.5t-1.5 1.5q-31 2 -60.5 5t-60.5 2
q-3 1 -3.5 2.5t-0.5 4.5v2t1 1q1 1 4 1h3q5 0 9 -1.5t9 -1.5h4h6.5h6h3.5v14l16 3l0.5 1.5t1.5 2.5v2q0 1 -0.5 2t-1.5 1h-19q-1 0 -3 -2t-2 -3v-3q0 -2 -0.5 -5t-2 -5.5t-3.5 -2.5q-3 0 -4 2t-1 5q0 2 0.5 6t2 7.5t4.5 6t7 2.5h21q2 0 2 2v2q0 3 -1.5 3.5t-3.5 1.5h-12.5
h-13.5t-14 0.5t-13 1.5q-3 -1 -3 0.5v3.5t1 4t4 2h1q11 -1 23.5 -3t24.5 -2q4 0 5.5 1t1.5 4q0 5 -1.5 9.5t-1.5 9.5zM117 176q-1 -1 -1.5 -2t-0.5 -3t2 -3t4.5 -1h5h3.5h7q2 1 2 2.5v1.5q0 5 -2.5 5.5t-6.5 0.5h-6.5t-6.5 -1zM88 145q0 1 0.5 2t1.5 1h9q16 0 33 -1t33 -2
q1 0 2.5 -1t1.5 -2v-1v0l-0.5 -0.5t-0.5 -1.5h-24h-14q-6 0 -12 0.5t-12.5 0.5t-14.5 1q-1 0 -2 1.5t-1 2.5zM98 126q4 5 9 8t11 3h2l1 -0.5t2.5 -0.5t2.5 -0.5l1 -0.5q1 0 3 0.5t3 1.5h1v0q2 -1 5.5 -2t7.5 -1.5t7.5 -1.5t4.5 -1q3 -1 5.5 -3.5t4 -5.5t2.5 -6.5t1 -6.5v-34
l-2 -1l-2 -1h-1q-2 0 -3.5 1.5t-2.5 4t-2.5 4t-4.5 1.5h-3h-1v-0.5t-1 -0.5q-1 -1 -3 -2t-4.5 -2.5t-4.5 -2.5t-3 -2v-5q1 0 4.5 -0.5t4.5 -0.5t5 -1t7.5 -2.5t7 -2.5t5.5 -1q3 -2 5 -5.5t2.5 -7.5t1 -8.5t0.5 -8.5t-1 -6.5t-7 -2.5q-2 0 -2.5 4t-0.5 9.5t-1.5 9.5t-6.5 4
t-7 -2.5t-5 -5.5q-4 -5 -6.5 -8t-3.5 -6t-1 -7t1 -10l-3 -1.5t-2 -0.5t-3 0.5t-2 1.5v20q0 2 -2.5 5t-6.5 5.5t-8 4t-6 1.5h-2t-2 -1v-19q0 -2 -2 -2.5t-3 -0.5q-4 0 -5 2.5t-1 5.5v1.5v2.5l0.5 1t1 3t1 3l0.5 1q2 8 4 12t5.5 7t9 4t13.5 2l0.5 0.5l0.5 0.5v0.5v0.5
q0 2 -1.5 4t-2.5 3t-3 2t-4 2.5t-3.5 2l-1.5 0.5h-4q0 -1 -0.5 -3t-1.5 -3.5t-2.5 -2.5t-2.5 -1h-2t-1 1v8q0 11 1 22t3 21zM105 122q0 -2 1.5 -3t3.5 -1q2 -1 8.5 -1.5l13 -1t13 -1.5t8.5 -1h2q1 0 3.5 0.5t2.5 2.5q0 3 -3 5t-6.5 3t-6.5 1.5t-5 0.5l-2 0.5t-4 0.5h-4h-4
h-3h-5q-2 0 -4 -0.5t-3 -0.5q-2 0 -4 -0.5t-2 -3.5zM104 105v-2q15 -1 28.5 -2t28.5 -1v2.5v3.5q-1 0 -1.5 0.5l-0.5 0.5q-3 1 -10 1t-15 0.5t-14.5 1t-9.5 0.5h-3q-2 0 -2.5 -1.5t-0.5 -3.5zM114 91q3 -3 7.5 -6.5t9.5 -3.5h2l14 7v5h-31zM117 53q0 -2 2 -4l4 -4t4.5 -3.5
t3.5 -1.5q2 0 4.5 1.5t5 3.5t4 4.5t1.5 4.5t-1.5 3t-4 1.5t-5 0.5h-3.5h-4.5t-5 -0.5t-4 -2t-1.5 -3.5z" />
</svg>
