<?xml version="1.0" standalone="no"?>
<!DOCTYPE svg PUBLIC "-//W3C//DTD SVG 1.1//EN" "http://www.w3.org/Graphics/SVG/1.1/DTD/svg11.dtd" >
<svg xmlns="http://www.w3.org/2000/svg" xmlns:xlink="http://www.w3.org/1999/xlink" version="1.1" viewBox="-10 0 266 256">
   <path fill="currentColor"
d="M158 244q0 2 2 4t4 2q5 0 7 -4t2 -7v-5v-9v-9v-5t0.5 -4.5t0.5 -7.5t0.5 -7.5t0.5 -4.5t2.5 -1t6 -1t7.5 -2.5t7 -5.5t5.5 -10t2.5 -15v-4.5v-4.5t-1.5 -1h-2.5q-4 0 -5 2.5t-1.5 6.5t-1 8.5t-2.5 8.5t-6 7t-12 3q-7 0 -13.5 -0.5t-13.5 -1.5q-4 -1 -5 -3.5t-1.5 -6
t0 -7.5t0 -7.5t-1.5 -6t-4 -2.5q-2 0 -2.5 2.5t-0.5 4.5v6.5t1 12t3.5 11.5t7.5 5h18q1 0 1.5 2l0.5 2q0 14 -3 27.5t-3 27.5zM50 169q2 5 6 7t9 3t10 0.5t9 -0.5q15 0 21.5 -5.5t8.5 -14.5t1.5 -20.5t-0.5 -22.5q1 -11 1.5 -21t0.5 -21v-21q0 -2 -1.5 -3.5t-4.5 -1.5v0
l-1 1l-1 1v4.5t-0.5 7.5t-0.5 7.5v4.5v5v10v9v5q0 3 -0.5 9.5t-1 14t-2 13t-3.5 5.5q-3 0 -5 -3t-4 -6.5t-3 -7.5t-1 -6v-14q0 -19 2.5 -37t2.5 -36v-8q-2 -2 -3 -3.5t-4 -1.5q-2 0 -3 1.5t-2 3.5q1 24 0 46.5t-3 45.5q0 4 -1.5 9.5t-4 10t-6 7.5t-8.5 3q0 -7 -0.5 -14.5
t-0.5 -14.5q0 -13 2.5 -26t2.5 -27v-3.5v-5.5t-1 -5t-4 -2q-1 0 -2.5 1t-2.5 3t-1.5 4t-0.5 4v3v7v5v4q0 2 -0.5 7.5t-0.5 12t-0.5 12t-0.5 7.5v17q0 9 0.5 15.5t1.5 15.5zM61 163q0 -1 3.5 -5t7.5 -8.5t7.5 -7.5l3.5 -3q2 0 5 2.5t6 6.5t5 8t2 5q0 2 -1.5 4.5t-3.5 2.5h-31
l-1.5 -1.5l-2.5 -2.5v-1zM152 155q0 5 2.5 9t8.5 4q8 0 14 -4t6 -12q0 -6 -4 -8t-9 -2q-4 0 -7 0.5t-5.5 2t-4 4t-1.5 6.5zM160 154q0 -4 2 -5t6 -1q2 0 4 0.5t3 4.5q0 2 -1 3.5t-2.5 2l-3 1t-2.5 0.5q-3 0 -4.5 -1.5t-1.5 -4.5zM137 108q0 14 6 20t20 6q7 0 12 -0.5t9 -2
t7.5 -5.5t6.5 -10v-1v-7.5t-0.5 -9t-3 -7.5t-6.5 -4h-3h-4.5h-4.5h-2h-13.5t-12 2t-8.5 6.5t-3 12.5zM142 110q0 -6 2 -9t5.5 -4.5t8.5 -1.5h9q2 0 5.5 -0.5t7 0t6 1.5t2.5 4q0 8 -1 13t-3.5 8t-7 4.5t-12.5 1.5q-9 0 -15.5 -3.5t-6.5 -13.5zM153 108q0 6 3.5 9t9.5 3
q5 0 8.5 -2.5t3.5 -8.5q0 -4 -3 -7t-7 -3q-2 0 -4.5 0.5t-5 1.5t-4 3t-1.5 4zM161 109q0 -1 1.5 -2t3.5 -1v0q1 1 2.5 2t1.5 2q0 2 -1.5 2.5t-2.5 0.5q-5 0 -5 -4zM147 73q1 0 3 0.5t5 1t5 1t3 0.5h3q4 0 8 -0.5t7 -2t5 -5t2 -8.5q0 -4 -1.5 -6t-4 -3t-5.5 -1h-6
q-6 0 -10.5 0.5t-8 2t-5.5 5t-2 9.5v3t2 3zM169 55q5 0 6.5 1.5t1.5 5.5q0 1 -0.5 2.5l-0.5 1.5q-2 2 -5 2.5l-6 1t-6.5 0t-5.5 -0.5q0 -14 16 -14zM129 42q0 5 3 5l1 -0.5l1 -0.5q1 0 5.5 -1t9.5 -2.5t9.5 -2.5t6.5 -1q0 -1 2 -1h3q7 0 13 1.5t13 3.5q1 1 4 1.5t4 0.5
q5 0 5 -3t-1.5 -5t-3.5 -3q-1 -1 -4.5 -1t-7.5 -0.5t-7.5 -1t-4.5 -0.5q-6 -1 -8.5 -2.5t-3.5 -4t-1 -4.5v-4t-1 -3.5t-4 -1.5h-2q-1 0 -2.5 0.5t-1.5 1.5v18l-3 1q-1 0 -4 1l-6 2t-6.5 2t-4.5 2q-3 0 -3 0.5v2.5z" />
</svg>
