<?xml version="1.0" standalone="no"?>
<!DOCTYPE svg PUBLIC "-//W3C//DTD SVG 1.1//EN" "http://www.w3.org/Graphics/SVG/1.1/DTD/svg11.dtd" >
<svg xmlns="http://www.w3.org/2000/svg" xmlns:xlink="http://www.w3.org/1999/xlink" version="1.1" viewBox="-10 0 266 256">
   <path fill="currentColor"
d="M73 253h11q0 -25 -1 -49.5t-1 -49.5q0 -6 0.5 -11.5t0.5 -11.5q0 -16 -0.5 -32t-0.5 -32q1 0 4 -0.5t5 -0.5q1 1 2.5 6t2.5 11t1 12v8q1 9 1 22.5t0.5 26.5t1 25.5t1 19.5t0.5 8l3 4l3 -4l0.5 -3.5t0.5 -8.5v-9v-8v-26q0 -13 -0.5 -25t-1 -24.5t-0.5 -26.5q-1 -1 -2 -3
l-2 -4t-2 -3.5t-1 -2.5l-0.5 -1t-1.5 -1t-3.5 -0.5t-5.5 -1t-5.5 -2t-2.5 -3.5q0 -8 1.5 -16.5t1.5 -16.5q0 -3 -1.5 -4.5t-4.5 -1.5q-2 0 -3.5 2t-2.5 4.5t-1 6v5.5q0 5 1 10t1 10t-2 6.5t-4.5 2t-5.5 0.5t-5 3q-4 3 -6 8t-3 11t-1.5 11.5t-0.5 9.5v104q0 2 2 2h3
q2 0 4 -1.5t2 -4.5v-75l-0.5 -1.5t-1 -3.5t-0.5 -3.5v-1.5v-1v-1q0 -2 0.5 -6.5t1 -10t1 -10t0.5 -6.5q2 -3 2.5 -5.5t1.5 -5t3 -4.5t5 -2l1 1l1 1v2.5t0.5 3l1 3t0.5 2.5v5.5t0.5 7t0.5 6v3.5v152zM135 189q0 11 -0.5 21t1.5 17t8 11t19 4h8t11.5 -1.5t9.5 -4t4 -7.5v-66
l-0.5 -1l-0.5 -1h-1h-1q-1 1 -3 2t-2 2v18l-1.5 0.5t-3.5 0.5t-4 0.5t-3 0.5h-3h-5h-5.5h-4.5h-2.5h-3.5h-3.5h-1.5l-4 -2v-17h-2.5t-4.5 1l-0.5 0.5t-0.5 1.5v20zM143 225v-29q3 0 8.5 -0.5t11.5 -1t11.5 -1.5t8.5 -1h1q1 0 2.5 2t1.5 4v27l-2.5 1.5t-4.5 2.5q-1 0 -3 1
l-2 1h-28zM153 81q2 0 3 3t1 4v33q0 4 -5.5 8.5t-12.5 9.5t-12.5 10t-5.5 11h5l2 -1t4 -3t4.5 -3.5t3.5 -2.5l5 -5t6.5 -6t7 -5t7.5 -2t9.5 2.5t11 6t10.5 7t8 6.5h2h2q3 0 4.5 -0.5t1.5 -3.5q0 -2 -1.5 -3.5t-4 -2.5t-5 -1.5t-3.5 -1.5q-5 -4 -8.5 -7.5t-9.5 -6.5
q-2 -1 -4 -1.5l-4 -1l-4 -1t-2 -2.5t-0.5 -6.5t-0.5 -10t-0.5 -10t-0.5 -6.5v-4q0 -3 0.5 -4t3.5 -1q5 0 8.5 2.5t7 6t8.5 6t12 2.5q0 -5 -4 -9.5t-10 -8.5t-12 -7t-11 -5l-1.5 -1l-1.5 -1v-43q0 -1 -1 -2l-2 -2h-0.5h-0.5h-1q-1 1 -4 2.5l-3 1.5v45q0 1 -2 2.5t-3 3.5
q-7 6 -15 11t-16 11q-1 1 -1 1.5v1.5q0 3 1.5 3.5t3.5 0.5h3.5t3.5 -2q1 -1 4 -3.5t6.5 -5.5t7 -5.5t4.5 -3.5h1z" />
</svg>
