<?xml version="1.0" standalone="no"?>
<!DOCTYPE svg PUBLIC "-//W3C//DTD SVG 1.1//EN" "http://www.w3.org/Graphics/SVG/1.1/DTD/svg11.dtd" >
<svg xmlns="http://www.w3.org/2000/svg" xmlns:xlink="http://www.w3.org/1999/xlink" version="1.1" viewBox="-10 0 266 256">
   <path fill="currentColor"
d="M159 150q2 0 3 0.5t1 2.5v99q4 0 6.5 -2.5t3 -6t1 -7.5t0.5 -7q0 -11 -1 -21t-1 -21v-17q0 -10 2 -18q0 -2 2 -2h2q4 0 6 2t2.5 4.5t1 5.5t1.5 5l4 33q-3 7 -3 15.5t-2 16.5q-1 2 0.5 2.5t3.5 0.5q4 0 6 -3.5t2 -7.5v-4t0.5 -6t0.5 -6v-4q0 -13 -1 -27t-4 -27l-0.5 -1.5
t-1.5 -1.5q-2 -2 -5.5 -3l-7 -2t-5.5 -2.5t-2 -5.5v-2v-2.5t0.5 -4t0.5 -4v-2.5v-1v0q0 -1 -0.5 -2l-0.5 -1h-10l-0.5 1.5t-0.5 2.5v19q-1 0 -3 1t-4 2.5t-3.5 2.5t-2.5 2l-1.5 1t-1.5 2q-5 8 -8.5 19t-5 22.5t-2 23t-0.5 20.5q6 0 8.5 -4t3 -10t0 -12t-0.5 -10t1 -8.5
t2 -9.5t2 -9.5t1 -7.5q2 -5 3.5 -9t7.5 -4zM79 243q0 3 3 3t5 -2t3 -5q-1 -23 0.5 -46t1.5 -46l1 -1.5t2 -1.5v0q5 0 7.5 4.5t4.5 11t3 12.5t1 9v51q-1 2 0.5 2.5t3.5 0.5q1 0 2 -1t1.5 -3l1 -4t0.5 -3v-4v-6v-6v-4v-5v-6v-6v-3t-0.5 -5t-1.5 -9t-1.5 -10t-1.5 -8v-2
t-0.5 -2.5l-1 -3t-1.5 -2.5q-2 -1 -5.5 -2.5t-6.5 -2.5t-5.5 -3t-2.5 -5v-2l1 -9h6q4 0 7 -0.5t6 -2t5 -3.5q0 -1 0.5 -3t0.5 -4.5t0.5 -4t0.5 -2.5v-3q0 -4 -2 -6t-4.5 -3.5t-6 -2t-6 -1.5t-4 -3t-1.5 -6q0 -3 2.5 -4.5t6 -2t7 -1.5t4.5 -3q2 -2 3.5 -6.5t2.5 -9t1.5 -9
t0.5 -7.5v-3.5t-1 -2.5h-4q-1 0 -3 -0.5t-3 1.5q0 4 -0.5 8l-1 8t-2.5 8t-4 7h-1h-1q-6 0 -6 -5q0 -7 1 -13.5t1 -13.5v-4.5v-5.5q-1 -2 -3 -2.5t-4 -0.5q-3 0 -4 2.5t-1 5.5v2q0 1 0.5 5t0.5 8.5t0.5 8.5t0.5 5l1 1q0 5 -3 7t-7 2q-5 0 -7 -3.5t-3 -8.5t-1 -10v-7
q-1 -2 -2.5 -3t-3.5 -1v0q-1 1 -3 2.5t-2 2.5v10q0 8 0.5 13t3 8t8 4.5t13.5 1.5q5 3 5 9q0 2 -0.5 3t-2.5 2q-7 1 -12 2.5t-9 4t-6 6.5t-2 11q0 6 2.5 8.5t6 4t7 1.5t7 0.5t6 1.5t2.5 4q0 6 -4 9t-8.5 4t-9.5 2.5t-7 6.5q-1 2 -2 4.5l-2 5t-1.5 4t-0.5 2.5v69q0 2 1 2.5
t3 0.5t3.5 -1t3.5 -4q-1 -15 -1 -32.5t2 -33.5q0 -3 1.5 -6l3 -6t4 -5t6.5 -2q1 0 3 1t1 4v5v7.5v7.5v5q0 17 -1.5 34t-1.5 34zM68 102q0 -11 13 -11q1 0 3 1t2 3v14q0 1 -3 2t-5 1q-5 0 -7.5 -2t-2.5 -8zM95 109v-3v-4v-3t0.5 -4t1.5 -3.5t3 -1.5q4 0 6 2.5t2 5.5
q0 4 -2.5 8t-7.5 4h-2t-1 -1zM172 105q0 1 0.5 2.5t1.5 1.5h1q2 -1 5.5 -2.5t6.5 -3.5t5.5 -4t3.5 -4l9 -20q0 -1 0.5 -3t0.5 -3q0 -5 -4 -8.5t-9.5 -5.5t-12 -3.5t-11.5 -2.5t-9 -1.5t-4 -2.5q0 -3 2 -6t5 -6l6 -6l5 -5v-1v-1q0 -2 -1 -4t-4 -2q-2 0 -6.5 4.5t-9 9.5
t-8 10.5t-3.5 8.5q0 4 2 5.5t5.5 2.5l7 2t4.5 4l-0.5 1t-1.5 2q-4 6 -9.5 12.5t-10.5 11.5q-1 2 -4 4.5t-4 3.5q1 2 3 2h3q7 0 13 -6t11 -13t9.5 -12.5t8.5 -5.5q2 0 4.5 0.5t4.5 2t3.5 3.5t1.5 4q0 8 -3.5 12.5t-7.5 8t-7 6.5t-3 7z" />
</svg>
