<?xml version="1.0" standalone="no"?>
<!DOCTYPE svg PUBLIC "-//W3C//DTD SVG 1.1//EN" "http://www.w3.org/Graphics/SVG/1.1/DTD/svg11.dtd" >
<svg xmlns="http://www.w3.org/2000/svg" xmlns:xlink="http://www.w3.org/1999/xlink" version="1.1" viewBox="-10 0 266 256">
   <path fill="currentColor"
d="M82 24l-11 12q-6 15 -4 27t0 26q-2 11 -4 24.5t-3 29.5q-1 15 -1.5 28.5t0.5 26.5l3 49q7 -12 6 -26q-2 -14 0 -31q0 -17 0.5 -34t4.5 -33l4 -26q3 -4 10 -3q3 1 6 1h7l25 -14q-6 1 -10.5 1.5t-8.5 0.5q-8 1 -18 -5q2 -10 15 -20t22 -13l-1 -3q-12 3 -23 6.5t-20 12.5
l-4 -1q1 -12 13 -24q12 -11 24 -13q-3 -3 -8 -3q-4 -1 -24 4zM153 19l-15 1l21 7l20 19l3.5 10.5t-2.5 8.5l-26 -18l-17 -5l28 30q2 10 -11 9q-7 -1 -12 -1.5t-8 -0.5q14 11 24 10q11 0 20 4q10 36 10 80q-1 11 -1 21v20v40q5 -12 8 -28t4 -37q0 -21 -0.5 -37.5t-1.5 -29.5
l-8 -41l8 -15q1 -7 -1 -15q-2 -10 -6 -15q-7 -9 -16 -12q-5 -1 -10 -2.5t-11 -2.5zM133 96q-9 1 -18 3t-15 7q10 4 23 2q12 -2 24 4q1 7 -11 10q-6 1 -10.5 2t-7.5 2q-7 2 -12 5t-10 7t-9.5 9t-9.5 10l30 -19l15 -2q-1 9 -9 13q-8 5 -17 20l-4 20q-2 15 3 29.5t13 26.5
q3 -9 0 -16q-3 -6 -6 -15q-2 -14 0.5 -27t10.5 -24q9 3 9 11v16q3 22 10 40.5t20 37.5h6q-1 -2 -2.5 -6.5t-4.5 -11.5q-7 -13 -11 -24q-2 -5 -4 -13t-4 -20q-3 -22 2 -32q10 2 28 64l8 5l-8 -34l-8 -33q-10 -14 -21 -17q-3 -13 7 -15q10 -3 18 -14q3 -15 -5 -16
q-3 -1 -8 -2.5t-12 -2.5z" />
</svg>
