<?xml version="1.0" standalone="no"?>
<!DOCTYPE svg PUBLIC "-//W3C//DTD SVG 1.1//EN" "http://www.w3.org/Graphics/SVG/1.1/DTD/svg11.dtd" >
<svg xmlns="http://www.w3.org/2000/svg" xmlns:xlink="http://www.w3.org/1999/xlink" version="1.1" viewBox="-10 0 266 256">
   <path fill="currentColor"
d="M161 203q4 0 7.5 6t7 14t7.5 16t9 11h2.5h2.5q2 0 5.5 -0.5t3.5 -3.5q0 -2 -3 -6t-7 -9.5t-8.5 -11.5t-9 -11.5t-7 -11.5t-2.5 -10v-43q0 -3 6 -4.5t13.5 -2t15.5 -1t11 -1.5l0.5 -0.5l0.5 -0.5q0 -2 -2 -3t-4 -1.5t-5 -0.5h-3h-2t-4 0.5t-4 0.5t-3 1q-1 0 -3 0.5l-2 0.5
q-15 2 -31 3.5t-31 -0.5l-1.5 3t-0.5 3q0 3 3 3q8 0 15 -2t14 -2q2 0 4 0.5t3 3.5v12v9t-0.5 8t-0.5 8.5t-1 11.5l-8 12l-8 12t-8.5 12t-10.5 10q-1 1 -2.5 3t-2.5 2l3 3q1 1 2 0.5t2.5 -1t3.5 -1t2 -1.5q11 -7 17.5 -18t11.5 -22h2zM69 243q0 2 1 2h2q4 0 6 -2.5t2 -5.5
t0.5 -9.5t0.5 -13.5t0.5 -13.5t0.5 -8.5v-11v-16v-18v-19v-16v-11q0 -1 0.5 -2.5t0.5 -3.5t0.5 -3.5t0.5 -2.5v-7v-10v-11v-7q0 -1 1.5 -3t3.5 -2q3 0 4.5 2t2.5 4.5t1.5 5.5t1.5 5v8.5t0.5 13.5t0.5 13v8v6q0 12 -1.5 24.5t-1.5 24.5q0 2 0.5 3.5t2.5 2.5q3 -1 4.5 -3.5
t2 -5t0.5 -5.5v-5v-24v-28q0 -2 -0.5 -8.5t-0.5 -14t-0.5 -14.5t-0.5 -9q-2 -6 -5.5 -7.5t-6.5 -2t-5.5 -2t-2.5 -6.5v-4q0 -1 0.5 -3l1 -4t0.5 -4v-2q0 -2 -1 -4.5t-3 -2.5q-3 0 -4.5 1.5t-2 4l-1 5t-0.5 4.5v17q-2 1 -4 1.5t-4 0.5t-4.5 0.5t-3.5 2.5q-5 4 -7.5 14.5
t-3.5 22t-1.5 22.5t-1.5 18q0 6 -1.5 12.5t-1.5 13.5v2v2.5t0.5 3.5t1 3.5t0.5 2.5h3h3q1 0 2 -2q0 -3 0.5 -12t1 -21.5t2 -26t3 -25t4.5 -18.5t8 -7q2 0 3 0.5t1 2.5q0 31 -2 60.5t-1 59.5q-2 5 -2.5 11l-1 12t-0.5 12v11v4q0 3 0.5 6.5t0.5 6.5v4zM186 168q0 3 1.5 10.5
t4 14.5t5.5 13t8 6q2 0 3.5 -1t1.5 -4v-4l-1 -1q-1 -1 -2 -4t-2.5 -5.5t-2.5 -5t-2 -2.5q0 -2 -0.5 -6.5t-1.5 -9t-2 -8t-3 -3.5q-5 0 -6.5 2.5t-0.5 7.5zM139 160q-2 0 -3.5 3t-3.5 8.5t-4 11.5t-3.5 12l-2.5 10t-1 6q8 0 12 -5.5t6 -13t2.5 -15.5t0.5 -13q0 -4 -3 -4z
M149 113l3 1.5l3 1.5q1 0 2.5 0.5t3 0.5t3 0.5l1.5 0.5q10 0 14.5 -3.5t6.5 -9.5t1.5 -13t-0.5 -14v-17t-1 -17l-4 -2t-3.5 -1.5t-3 -1.5t-1.5 -3v-18q0 -1 -1.5 -1.5t-3 -0.5t-3 -0.5l-1.5 -0.5v24l-1.5 1t-3.5 1q-7 3 -9.5 7t-3.5 13v7.5v11.5v11.5v7.5t-0.5 5.5t-1.5 3.5
h-13q-1 0 -1 -1.5t-0.5 -3t-0.5 -3.5v-1q0 -3 1.5 -4.5t3 -2.5t3 -1.5t1.5 -2.5t-1.5 -3t-3.5 -1.5t-3.5 -1t-1.5 -3.5q0 -4 2 -6t4 -3.5t4 -2t2 -2.5v-1v-1q-1 0 -2.5 -0.5l-3 -1l-3 -1t-2.5 -1.5l-0.5 -0.5l-0.5 -0.5v-7v-7l0.5 -2t0.5 -3q0 -3 -0.5 -4t-3.5 -1
q-2 0 -4 1.5t-2 3.5v50q1 5 1 10q0 4 1 8t3.5 6.5t8.5 2.5h2.5h2.5l1.5 -0.5l3 -1l3 -1t2.5 -0.5zM190 109q1 2 3 3t3 1q6 0 9.5 -2.5t6.5 -7.5q0 -2 0.5 -5t0.5 -6.5t0.5 -6.5t0.5 -4v-2v-3q0 -2 -0.5 -8.5t-0.5 -14t-0.5 -14t-0.5 -8.5q-1 -2 -2 -3.5t-3 -1.5t-3.5 1.5
t-1.5 3.5q0 5 2 10t2 10q0 3 -2 4.5l-4 3t-3.5 2.5t-1.5 4q0 1 1.5 2l3 2l3 2t1.5 3v0q-1 4 -2.5 6t-3.5 3t-3 2t-1 2q0 2 1 2.5t2.5 0.5t3 1t1.5 3q0 5 -1 6.5t-3 2.5l-4 2t-4 4zM157 106q0 -3 2 -6.5t6 -3.5t5.5 3.5t1.5 6.5v2.5t-2 2.5h-11q-2 0 -2 -2v-3zM170 82
q0 -2 0.5 -4t1.5 -4.5t2.5 -4.5t3.5 -2l0.5 0.5l0.5 0.5q1 4 1 6.5v6.5v4v4t-0.5 3.5t-2.5 2.5q-3 -3 -5 -6t-2 -7zM152 74v-1q0 -1 0.5 -1.5t1.5 -0.5h1q2 0 3 3t1 4t-0.5 3l-1 4t-1 3.5t-1.5 1.5l-0.5 -0.5l-0.5 -0.5l-0.5 -2.5t-0.5 -5t-0.5 -4.5t-0.5 -3v0zM155 54v-3
l1.5 -0.5t3 -1.5l3 -2t2.5 -1h2h3t2 2v1.5v2.5q0 3 -1.5 7t-5.5 4h-1v0z" />
</svg>
