<?xml version="1.0" standalone="no"?>
<!DOCTYPE svg PUBLIC "-//W3C//DTD SVG 1.1//EN" "http://www.w3.org/Graphics/SVG/1.1/DTD/svg11.dtd" >
<svg xmlns="http://www.w3.org/2000/svg" xmlns:xlink="http://www.w3.org/1999/xlink" version="1.1" viewBox="-10 0 266 256">
   <path fill="currentColor"
d="M77 250l1.5 0.5l1.5 0.5h1q3 0 5 -2t3 -4q-1 -10 -0.5 -20.5t1.5 -21t1.5 -21.5t0.5 -21q0 -2 4.5 -3.5t10.5 -3t11.5 -2.5t7.5 -1t4 1t5 1q6 0 11.5 -2t11.5 -2q3 0 4 3t1 6l-0.5 3.5t-0.5 7t-0.5 7t-0.5 4.5v6v7q0 3 0.5 10.5t0.5 15.5t0.5 15.5t0.5 10.5h1.5h1.5
q3 0 5 -1.5t2.5 -3.5t1 -5t0.5 -5q0 -19 -3 -38.5t-3 -39.5q0 -1 0.5 -2t3.5 -1h34q1 0 2 -2.5l1 -2.5v-1q0 -3 -2 -4.5t-5 -1.5t-5 1t-5 3h-24v-25l26 -4l0.5 -1t1.5 -2v-1v-1q-1 0 -1.5 -1t-0.5 -2h-4q-5 0 -8.5 1t-8.5 1t-5 -5q0 -2 1 -3l2 -2t2 -1.5t2 -2.5
q5 -5 9.5 -11t8.5 -12t7 -13t3 -14q0 -4 -0.5 -6.5t-3.5 -4.5q-2 -1 -6.5 -1.5t-9 -1.5t-9 -1.5t-6.5 -1.5q-4 -1 -9.5 -3t-10.5 -2q-2 0 -2.5 1t-0.5 3t1 3t3 2t3 2.5t1 3.5q0 6 -3.5 12.5t-7.5 13.5t-7.5 13t-3.5 12q0 3 3 3q4 0 7 -4t6 -10.5t5 -13.5t5 -13t6.5 -10
t7.5 -4q2 0 5.5 0.5t6.5 2t5 3.5t2 5q0 7 -3.5 14t-8.5 14t-10.5 13.5t-9.5 10.5q-2 3 -3 5.5t-3 4.5q-2 0 -6 0.5l-8 1t-7 2t-3 5.5h30v23l-3 3l-3 0.5t-7.5 1t-9 0.5h-7.5q-8 1 -17 2.5t-17 1.5l-0.5 -1l-0.5 -1v-25l1 -2h4t6 -0.5t5.5 -0.5h3.5q3 -1 3.5 -1.5t0.5 -2.5
q0 -1 -0.5 -3t-2.5 -2h-21q-1 0 -1.5 -0.5t-0.5 -1.5l0.5 -2t1.5 -3q3 -4 5.5 -7.5t5.5 -7t5.5 -8t4.5 -10.5q2 -3 4 -7.5t3.5 -9t2.5 -9t1 -7.5v-1.5v-2.5q-4 -3 -12.5 -6.5t-18.5 -6t-19 -4.5t-14 -2q-1 0 -1 1l-1 1l-2 2v0.5v0.5q0 4 3.5 4.5t7.5 1t7.5 2t3.5 6.5
q0 3 -1.5 6.5t-3.5 6.5l-2.5 5l-3.5 7t-3.5 7.5t-2.5 4.5q-4 3 -6.5 8.5t-2.5 10.5q7 0 12 -4.5t8.5 -10.5t6 -13.5t5 -14t5.5 -11t8 -4.5q2 0 5 0.5t5 2t3.5 3.5t1.5 5v2.5v1.5q-1 2 -3.5 7.5t-5 11.5t-5 11l-3.5 7q-1 3 -3.5 5.5l-5 5l-5 5t-3.5 4.5q0 1 1 2t1 2v1v2h-4.5
t-6 0.5t-6.5 1t-4 0.5q-2 0 -5 0.5t-3 4.5l0.5 1.5t1.5 1.5h25q1 0 2 2l0.5 1.5l0.5 1.5v20l-3 5h-29q-1 0 -3 2t-2 3q0 2 1.5 4t3.5 2q7 0 13 -2t13 -2h2q2 0 3 2v6q0 18 -2 36t-2 36q-1 2 -1 4.5v4.5v2v3z" />
</svg>
