<?xml version="1.0" standalone="no"?>
<!DOCTYPE svg PUBLIC "-//W3C//DTD SVG 1.1//EN" "http://www.w3.org/Graphics/SVG/1.1/DTD/svg11.dtd" >
<svg xmlns="http://www.w3.org/2000/svg" xmlns:xlink="http://www.w3.org/1999/xlink" version="1.1" viewBox="-10 0 266 256">
   <path fill="currentColor"
d="M123 215v1q0 2 0.5 6t0.5 8t0.5 7l0.5 3v1.5t1 3t1.5 3t1.5 1.5q2 0 3 -1.5t2 -2.5q0 -7 -0.5 -14t-0.5 -15t0.5 -15.5t1.5 -14.5q2 -5 6 -8.5t8 -7.5t6.5 -9t2.5 -14q0 -6 -1 -10t-3 -8t-6 -7.5t-9 -7.5v-3l16 -13q2 -2 2 -6v-5q0 -9 -4.5 -15.5t-9.5 -11.5t-9 -8.5
t-4 -5.5q0 -4 1 -7.5t1 -8.5t-0.5 -9t-6.5 -8h-1h-1q-1 0 -2 0.5t-1 1.5q0 4 0.5 7t0.5 7q0 9 -3.5 15.5t-8 12t-8 11.5t-3.5 14q0 7 3.5 11.5t8 8.5t8.5 6.5t4 5.5l-0.5 1l-0.5 1l-19 17q-1 1 -2 3t-1.5 4t-0.5 4v4q0 10 3.5 18t14.5 13l1.5 0.5t2.5 1l2 1l1 0.5q1 1 1.5 4
t0.5 6.5v7.5v6t-1 4t-1 5zM109 151q0 -9 6 -17t13 -13q1 0 2 -0.5l1 -0.5q5 0 8.5 3t6 7t3.5 9t1 8q0 4 -1.5 8.5t-4.5 9t-7 7t-10 2.5q-4 0 -7.5 -2.5t-6 -6t-3.5 -7.5t-1 -7zM109 83q0 -3 0.5 -7.5t2.5 -8.5t4.5 -7t7.5 -3t9 3.5t7.5 8t5.5 9.5t2 8q0 2 -1.5 5.5t-4 6.5
t-5.5 5t-6 2q-4 0 -8 -2.5t-7 -5.5t-5 -7t-2 -7z" />
</svg>
