<?xml version="1.0" standalone="no"?>
<!DOCTYPE svg PUBLIC "-//W3C//DTD SVG 1.1//EN" "http://www.w3.org/Graphics/SVG/1.1/DTD/svg11.dtd" >
<svg xmlns="http://www.w3.org/2000/svg" xmlns:xlink="http://www.w3.org/1999/xlink" version="1.1" viewBox="-10 0 266 256">
   <path fill="currentColor"
d="M67 232q0 2 0.5 5t1.5 6.5t3 5.5t4 2q3 -1 3.5 -3t0.5 -4q0 -6 -1 -12t-1 -12v-3.5t0.5 -5.5t1.5 -5t3 -2q3 0 5 1t4.5 2.5t5.5 2.5t5 1q1 0 3.5 -0.5t3.5 -0.5l0.5 -1t0.5 -2v0v-1l-0.5 -0.5t-0.5 -1.5q-3 0 -6.5 -0.5t-7.5 -1.5t-6.5 -3t-2.5 -6t2.5 -6.5t5.5 -5
t6 -5.5t3 -7q-3 0 -6.5 1.5t-6 3.5t-5 5t-4.5 5h-4q0 -6 -0.5 -12.5t1.5 -11.5q1 -3 4.5 -6t7.5 -6t7 -5t3 -3q0 -4 -4 -4h-3t-3 1q-5 4 -9.5 8t-7.5 9t-5 10.5t-2 12.5v1q1 4 3.5 8.5t2.5 8.5v1q0 1 -1.5 5t-2.5 6q0 2 -0.5 5t-0.5 6.5t-0.5 6.5t-0.5 5v2zM111 183v0.5v0.5
l0.5 0.5t1.5 0.5h12l1 1q1 1 1.5 2.5l0.5 1.5v52l1 1l2 2v0q3 0 4.5 -2t1.5 -5v-2q0 -2 -0.5 -7.5t-0.5 -12t-0.5 -12.5t-0.5 -7v-2v-1q0 -1 0.5 -4t1.5 -4h3t4 -0.5t3.5 -1.5t1.5 -3v-1v-1q-3 0 -7.5 -0.5t-6.5 -3.5v-7v-2v-4.5t0.5 -5t1.5 -2.5h12l0.5 -0.5l1.5 -1.5v0v-1
q-1 -1 -1.5 -2.5l-0.5 -1.5h-12q-2 0 -2 -1.5v-2.5q0 -3 3 -7.5t6.5 -9t7 -8.5t4.5 -7q2 -2 3 -2h2q4 0 8 2t7.5 4.5t7.5 4.5t7 2q6 0 6 -6q0 -3 -2.5 -4.5t-4.5 -2.5q-1 0 -4.5 -1l-7 -2t-7 -1.5t-4.5 -1.5q-8 -2 -14.5 -5t-14.5 -5q-1 0 -3.5 -2t-2.5 -3v-12l2.5 -1
l2.5 -1h1q5 0 12 2t14 5t13.5 6.5t12.5 5.5h1q2 0 4 -1t2 -4t-4.5 -5.5t-11.5 -4.5t-15.5 -4t-15.5 -4t-11.5 -3.5t-4.5 -3.5v-2t1 -3q7 0 14.5 -0.5t14 -3t11 -7t4.5 -13.5q0 -10 -5.5 -14.5t-13.5 -6t-17.5 -1.5h-16.5h-16t-17 2.5t-13.5 7.5t-5.5 14q0 8 4 11.5t9.5 5.5
t11.5 2.5t11.5 1t9 1.5t3.5 4q0 4 -4 7t-10 5.5t-12 4.5t-10 3q-1 1 -4 1.5t-6 1.5l-6 2t-4 1q-3 2 -3 5q0 2 1.5 3t3.5 1q7 0 13.5 -3t13 -6.5l13 -7t13.5 -3.5v13l-1.5 1t-1.5 2q-15 7 -30 14.5t-29 13.5q-1 0 -2 1t-1 2v1q0 3 1 3.5t3 0.5h1.5h1.5q10 -5 19.5 -10
t18.5 -11q4 2 8.5 5.5t8 7.5t5.5 9t2 10v3.5v3.5q-1 2 -3.5 2h-5.5q-2 0 -4 0.5t-2 2.5v0v0q0 1 1 1.5l1 0.5h12l1 3v2v3v7.5t-1 8.5q-1 0 -3.5 0.5l-5 1t-4 1t-1.5 2.5zM185 198q1 2 1.5 5.5t1 7.5t1 7.5t1 5t0.5 4t0.5 4.5t1.5 3.5t3 1.5t3 -1t1 -2.5v-3v-2.5q0 -6 -1 -11
l-2 -10t-2.5 -10t-2.5 -11v-13t-1 -13.5t-4 -11.5t-11 -8q-3 -1 -4.5 -2.5t-5.5 -1.5q-1 0 -3 0.5t-3 2.5q2 2 4 3t4 1.5t4 1.5t4 3q3 4 6 9t3 11q0 2 -1 4.5t-5 2.5t-9 -2.5t-10 -2.5h-3t-1 2q1 3 5 4l8 2t7 2.5t3 5.5t-3.5 7t-8 5.5t-9 4.5t-6.5 3v3l2 0.5t3 0.5
q4 0 7.5 -2t7 -5t6.5 -5.5t5 -2.5v1q1 0 2 1zM113 105q0 -1 1.5 -3t4.5 -3.5t5.5 -2t3.5 -0.5q2 0 6 0.5t7.5 2.5t6.5 4t3 5q0 1 -2 4.5t-5 6.5t-6 5.5t-5 2.5h-1l-9 -9l-2.5 -2.5l-3.5 -3.5t-3 -3.5t-1 -3.5zM115 20h22v31h-22v-31zM85 33v-2.5v-3.5q3 -3 7 -4.5t9 -1.5
q2 0 3.5 1t1.5 4v16q0 2 -2.5 5t-4.5 3q-3 0 -6 -1.5t-4.5 -4t-2.5 -5.5t-1 -6zM146 48v-27l3 -1h1.5t3.5 0.5t4.5 1t4.5 1.5q4 1 5.5 5t1.5 8q0 8 -5.5 11t-12.5 3h-2.5h-2.5z" />
</svg>
