<?xml version="1.0" standalone="no"?>
<!DOCTYPE svg PUBLIC "-//W3C//DTD SVG 1.1//EN" "http://www.w3.org/Graphics/SVG/1.1/DTD/svg11.dtd" >
<svg xmlns="http://www.w3.org/2000/svg" xmlns:xlink="http://www.w3.org/1999/xlink" version="1.1" viewBox="-10 0 266 256">
   <path fill="currentColor"
d="M98 248q1 2 2.5 2.5t3.5 0.5t3.5 -0.5t2.5 -2.5q-1 -2 -0.5 -7t0.5 -11t0.5 -12.5t1.5 -12t2.5 -9.5t3.5 -6t9 -5t14 -6.5t12.5 -7t5.5 -5.5v-19q-2 -3 -2.5 -5.5l-1 -5t-2.5 -4t-8 -1.5h-2h-7.5t-11 0.5t-10.5 0.5h-8q-4 1 -6.5 -0.5t-2.5 -5.5v-3t0.5 -4t1.5 -3.5
t2 -2.5q2 0 6 -0.5t9 -1t9 -1t6 -0.5t4.5 -0.5t5.5 -1t5.5 -1.5t4.5 -2q2 -3 2 -6q0 -4 1 -7q1 -4 2 -7t1 -7q0 -5 -1.5 -10t-1.5 -9q0 -1 -0.5 -1.5t-1.5 -0.5v0h-1q-1 0 -2.5 1.5l-1.5 1.5v12l-3 3h-3.5t-8 0.5t-9.5 0.5h-9h-6h-7q-1 0 -1 -1v-2v-1q0 -3 0.5 -6.5t0.5 -7
v-6v-2.5h23l2 -3l-3 -4h-20l-1.5 -1.5l-1.5 -1.5v-2v-6.5t3 -5.5q3 0 6.5 -0.5t6.5 -1t4.5 -2.5t1.5 -6q-15 0 -29 1t-29 3q-1 1 -1.5 2l-0.5 1l0.5 1t1.5 1l1.5 0.5l1.5 0.5h21q4 0 4.5 3.5t0.5 6.5t-2 5.5t-4 2.5q-1 0 -4 0.5t-6 0.5t-6 0.5t-4 0.5l-3 3q2 2 4 3.5t5 1.5
t6.5 -1t7.5 -1q2 0 3.5 0.5t1.5 2.5v20q0 1 -1.5 1.5t-3 1.5l-3 2t-1.5 3q0 1 0.5 1.5l1.5 1.5h7q12 0 24 -1.5t24 -1.5h3t3 1v2.5v2.5q0 3 -0.5 5.5t-4.5 3.5q-10 2 -22 4t-22 3q-4 2 -5 4.5t-1.5 5.5t-0.5 6v6v9q3 6 9 6q8 0 16 -1t16 -1h3h4.5h4.5h3q1 2 2 4.5t1 4.5
q0 9 -4.5 13.5t-11 7.5l-13 6t-10.5 9q-8 12 -10 25t-2 27v11zM141 47h18q2 0 3.5 2t1.5 3v18q0 1 1.5 1.5t2.5 0.5t3 -0.5t2 -3.5v-19q0 -2 3.5 -2h8t8 -1t3.5 -3v-2t-1 -1h-18q-3 0 -4 -2.5t-1 -4.5q0 -8 3.5 -10t8.5 -2t8.5 -0.5t3.5 -4.5q0 -2 -1 -2h-2h-3q-3 0 -10 0.5
t-15.5 1t-15.5 1t-10 0.5v1v1l1 1t1 2h8t7.5 1t5.5 3t2 7q0 6 -3 7t-7 1t-8 -0.5t-7 2.5l-2 1z" />
</svg>
