<?xml version="1.0" standalone="no"?>
<!DOCTYPE svg PUBLIC "-//W3C//DTD SVG 1.1//EN" "http://www.w3.org/Graphics/SVG/1.1/DTD/svg11.dtd" >
<svg xmlns="http://www.w3.org/2000/svg" xmlns:xlink="http://www.w3.org/1999/xlink" version="1.1" viewBox="-10 0 266 256">
   <path fill="currentColor"
d="M133 245q0 2 1 4t3 2h1l3 -3l2 -2l10 -30l3 -2t5 -4q5 -4 9.5 -7t11.5 -6q1 0 3.5 -1t2.5 -2q1 0 2.5 -1.5t2.5 -3l2 -3l1 -1.5q2 -3 2 -6v-6t0.5 -5.5t2.5 -4.5v-11.5t0.5 -17.5t1 -17.5t0.5 -11.5v-5q0 -5 -2.5 -9t-6 -6t-8 -2.5t-9.5 -0.5t-10 0.5t-10 0.5t-6.5 -3
t-1.5 -7q0 -7 3 -9.5t7.5 -3.5t10 -1.5t10 -2t8 -5.5t3.5 -11q0 -2 0.5 -5t1 -7t0.5 -7.5v-4.5v-1q0 -3 -2.5 -3.5t-3.5 -0.5q-3 0 -4.5 2t-2 4.5t-0.5 5t-1 2.5h-33l-0.5 1t-0.5 3h-0.5h-0.5q0 1 0.5 1h0.5l1 2q1 0 2 1l1 1h31l0.5 1.5t1.5 2.5v0.5v1.5q0 2 -2 5t-5 4
l-26 4q-3 1 -5 3t-3 4.5t-1 5v4.5q0 10 4.5 15.5t14.5 5.5q5 0 10.5 -1t10.5 -1q4 0 7 2.5t4 5.5q1 10 2.5 20.5t1.5 19.5v3l-1 2l-1 2v4t-0.5 6.5t-1 6.5l-0.5 3q0 7 -2.5 11.5t-6 7.5t-7.5 5.5t-10 5.5q-3 3 -8 6t-8 7q-2 4 -4 8.5t-4.5 9.5t-4.5 9.5t-3 8.5v2zM81 205
q-1 11 -4 20.5t-3 20.5h9l1 -3q1 -2 1.5 -5.5t1 -7.5t1 -7.5t0.5 -4.5q1 -6 3.5 -11t6 -9.5t8 -8t8.5 -7.5q3 -7 4.5 -14.5t2 -16t0.5 -16v-15.5v-8q0 -4 -0.5 -9t-0.5 -9.5t-1 -8.5q-3 -2 -7 -2.5l-8 -1t-8 0t-6 0.5q-5 -2 -5.5 -4.5t-0.5 -5.5v-3v-3q4 -4 9 -5t10.5 -2
t10.5 -2t6 -5q1 -8 1.5 -13t0.5 -13v-8q-1 -3 -4 -4t-5 -1v5v3.5t-0.5 2.5l-1.5 3l-2 2h-39q-2 0 -2.5 2t-0.5 4v1.5t1 1.5h33q0 -1 2.5 -1.5t3.5 -0.5q3 1 3.5 3.5t0.5 3.5v2.5v1.5q-1 1 -2 1.5t-2 0.5l-2 0.5t-4.5 0.5h-5t-2.5 1q-11 2 -15.5 9t-4.5 18q0 6 4 9t9 3.5
t11 0.5h10l4 3l-2 2t-2 1q-13 8 -25 16t-25 16v0.5v0.5q0 2 1.5 3.5t3.5 1.5q7 -1 12.5 -5.5t11 -9.5t11 -9t13.5 -4q4 0 4 4q0 1 -3 4.5t-8.5 7.5t-11.5 8.5t-11.5 8t-10 6t-5.5 3.5q-1 0 -1 2v1q0 3 1 4t4 1q5 0 10.5 -4.5t10.5 -10t11 -10t12 -4.5v13l-1 1l-2 2t-2.5 2
t-2.5 1q-1 1 -2 1.5l-1 0.5q-2 2 -6.5 6t-9.5 8.5t-10 8.5t-7 5q-1 1 -3 2.5t-4 2.5t-3.5 2.5t-1.5 3.5t1.5 3.5t3.5 1.5h1q1 -1 3.5 -2l2.5 -1q2 -2 6.5 -6t9.5 -9l9 -9l6 -6q1 0 2 -1.5t2.5 -2.5l3 -2t2.5 -2h1q1 0 1.5 1t0.5 2q0 8 -2 13t-6 9.5l-8 9t-8 9.5l-1.5 3l-1 2
t-1.5 2t-3 2zM131 180q0 2 1.5 3t3.5 1q1 0 5.5 -2t10 -5t11.5 -7t11 -7.5t8.5 -6.5t3.5 -5h-2.5t-3 0.5t-3 0.5h-2.5l-6 3t-8.5 5t-10 6.5t-9.5 6.5t-7 5zM178 124q-3 0 -9.5 2.5t-13 6.5t-11.5 8.5t-5 8.5q2 0 9 -2.5t14.5 -6t13.5 -7.5t6 -7t-4 -3zM134 118q0 3 2 3.5
t5 0.5v0l36 -17q2 -1 2 -3v-4q-6 0 -11.5 2t-11 5l-11 6t-10.5 5q0 1 -0.5 1.5z" />
</svg>
