<?xml version="1.0" standalone="no"?>
<!DOCTYPE svg PUBLIC "-//W3C//DTD SVG 1.1//EN" "http://www.w3.org/Graphics/SVG/1.1/DTD/svg11.dtd" >
<svg xmlns="http://www.w3.org/2000/svg" xmlns:xlink="http://www.w3.org/1999/xlink" version="1.1" viewBox="-10 0 266 256">
   <path fill="currentColor"
d="M183 220q2 3 3.5 8.5t4 10.5t5.5 8.5t8 3.5q2 0 3 -0.5t2 -2.5q0 -1 -1.5 -3.5t-3 -4.5t-3 -3.5l-2.5 -2.5q-5 -11 -8 -23.5t-4 -25t-1.5 -25.5t-1.5 -24v-7q0 -3 1 -5.5t1 -5.5v-2q0 -1 -0.5 -3t-0.5 -4.5t-0.5 -5l-0.5 -2.5q-2 -4 -6 -5.5t-8 -1.5h-7.5t-6.5 -1t-5 -4
t-2 -10v-3.5v-3.5q2 0 8 -1t12 -1.5t11.5 -0.5t8.5 -1q2 0 5.5 -0.5l3.5 -0.5v-7q-15 0 -28.5 1.5t-27.5 1.5q-2 0 -3.5 -0.5t-3.5 -1.5v-4q0 -7 1 -14t1 -14q1 0 6 -1t10 -1.5t9.5 -1.5t6.5 -1h1.5h2.5q2 0 4 1t5 1h1q0 -1 1 -2t2 -1v-0.5v-0.5q0 -2 -2.5 -3t-4.5 -1
l-41 -2q-1 1 -3 1.5t-4.5 1t-4.5 1t-3 0.5h-7.5t-10.5 1t-9 2.5t-4 5.5h32q2 0 3 3.5t1 4.5q0 3 -2 5t-4 2h-6.5t-7.5 -0.5t-7 -0.5h-6q-3 -1 -4.5 -4t-2.5 -7.5t-2 -8.5t-1 -5q-1 0 -2 -1.5l-1 -1.5q-2 -1 -3 1t-1.5 4t-0.5 4v3q0 6 3 12t8 9q2 3 8.5 3h13.5t12 1.5t5 6.5
v0q0 1 -1 2.5t-2 2.5q-3 0 -10 0.5t-15 1.5t-16.5 2t-15.5 2t-11.5 2t-4.5 3t1 3h7q9 0 16.5 -1t16.5 -1v0q1 0 4 1t3 3q0 3 -2 5.5t-3 4.5q-2 0 -5 1.5t-6.5 2.5l-7 2t-4.5 1.5t-3.5 2l-5 3t-4 3.5t-1.5 4v66q-1 3 -2 7.5t-1 8.5v9v9q-1 7 -4 14t-3 15q5 0 8 -5t4.5 -12.5
t2 -16.5t1 -17.5t1.5 -15.5t2 -10v-51l2 -2t3 -2q5 -3 9.5 -4.5t8 -2t6.5 -1.5t5 -3t3 -6.5t1 -11.5q1 -2 5.5 -3t9.5 -1.5t10 -0.5h7h1t2.5 0.5t1.5 1.5v20l2 2t3 2q4 3 9 3h9t7 2.5t4 8.5q0 14 -0.5 27.5t0 26.5t2.5 26.5t6 26.5zM114 170q0 1 -0.5 3.5t-0.5 5.5t0.5 5.5
t0.5 3.5q0 4 0.5 10t2 12t4.5 10.5t9 4.5l-0.5 -3t-0.5 -4l-1.5 -2.5t-1.5 -3.5q-2 -7 -3.5 -17t-1.5 -19v-5q0 -1 1 -2l1 -1h12q3 0 5.5 6t3.5 13.5t1.5 14t1.5 8.5q1 0 2 1.5t2.5 3t3 2.5t2.5 1v1h1q1 0 2 -0.5t1 -2.5q0 -4 -2.5 -8t-3.5 -8t-1.5 -10t-1.5 -12t-3 -11
t-6 -8h-3t-4.5 -0.5t-5 -0.5t-3.5 -1q-2 0 -3.5 -2t-0.5 -4q0 -2 4 -3.5t8.5 -3t8 -3.5t3.5 -6q0 -3 -1.5 -4.5l-3.5 -3.5t-4.5 -3.5t-3.5 -2.5q1 0 4 -0.5t6 -0.5t5.5 -0.5t4.5 -0.5q1 0 3.5 -1t2.5 -3v0l-1.5 -1.5l-0.5 -0.5q-13 -2 -26 -2h-26h-5h-7h-5h-3l-1 2
q1 3 4.5 4t7.5 1.5l8 1t7 1.5q-1 1 -2.5 1.5t-3 1.5t-2.5 2t-1 2q0 3 3 3q2 0 4 -1t4 -3l3.5 -3.5l2.5 -2.5h4q1 0 2.5 1.5l3.5 3.5t3.5 4t1.5 3v1v0q-1 1 -2.5 3l-1.5 2l-25 9v3h3h3.5t3 1t1.5 3t-1.5 3t-4 1.5l-5 1t-3.5 1.5q-3 2 -5 5.5t-3.5 7.5t-2 8t-0.5 7v7
q0 3 0.5 6l1 6t1 5.5l0.5 2.5h5q0 -7 -1 -13.5t-1 -13.5q0 -5 2 -10.5t6 -8.5q1 -1 3.5 -2l2.5 -1z" />
</svg>
