<?xml version="1.0" standalone="no"?>
<!DOCTYPE svg PUBLIC "-//W3C//DTD SVG 1.1//EN" "http://www.w3.org/Graphics/SVG/1.1/DTD/svg11.dtd" >
<svg xmlns="http://www.w3.org/2000/svg" xmlns:xlink="http://www.w3.org/1999/xlink" version="1.1" viewBox="-10 0 266 256">
   <path fill="currentColor"
d="M72 197q0 4 2 12.5t4.5 17.5t6 16t6.5 7q4 0 5 -2t1 -5q0 -1 -1.5 -5.5t-3.5 -9.5l-4 -10t-4 -7v-12q0 -9 2 -18.5t5 -17.5q0 -1 1.5 -4.5l3 -7t3 -7.5t1.5 -6q0 -4 -1.5 -8t-4 -7.5l-5 -7t-5.5 -6.5v-1v-1q0 -4 2.5 -6t5.5 -3.5t5.5 -3.5t2.5 -5q0 -2 -2.5 -2h-3.5
q-4 0 -6.5 1.5t-4.5 3.5t-4 4.5t-3 5.5q-6 7 -10.5 14t-8 14.5t-5.5 15t-2 17.5v9t1 11q1 1 1.5 1h1.5q3 0 5 -1v-26q0 -5 1.5 -10t4 -10t5 -9.5t4.5 -9.5h2h1q4 0 6 3t3.5 7t2 8t0.5 7v1q-2 4 -5 11t-5.5 14.5t-4.5 15t-2 12.5zM109 237q0 1 1.5 2.5t2.5 1.5h2
q6 -5 11 -11.5t9 -14t7 -15t6 -14.5q2 -3 2.5 -6t1.5 -6l2 -6t4 -5q3 2 5 6t3 8.5t2 9.5t2 8q1 4 4.5 11.5t8 15t10 13.5t10.5 6q3 0 4 -1.5t1 -3.5q0 -1 -3.5 -6t-8 -11t-8.5 -12t-6 -10q-2 -2 -2.5 -6.5t-2 -8.5t-3 -7.5t-4.5 -5.5q-2 -7 -5 -16t-3 -16q0 -2 1.5 -2.5
t3.5 -1t4 -0.5h3q4 0 7 2t5 5t3 6.5t2 6.5q0 1 1 5t1.5 8.5t1 8t1.5 5.5h1h2q2 0 4 -1.5t2 -4.5q0 -4 -1.5 -12.5t-4 -16t-7 -13.5t-10.5 -6q-1 0 -4 -0.5t-6 -0.5t-6 -0.5t-4 -0.5l-1 -1q0 -1 -0.5 -2.5t-0.5 -2.5q0 -10 2.5 -13.5t6.5 -4.5t8.5 -0.5t8 0t6 -3.5t2.5 -12
q0 -4 -1 -7.5t-2 -7.5h-32v-18l2 -2l1.5 -0.5t3.5 -1t4.5 -0.5t3.5 -1h7t7.5 -0.5l7 -1t6.5 -2.5v-0.5v-1.5q0 -2 -2 -4h-3.5h-3.5q-7 0 -13.5 1.5t-13.5 1.5h-1.5h-2.5l-1.5 -0.5t-1.5 -1.5v-25l-0.5 -0.5t-0.5 -1.5q-1 0 -3 -0.5l-2 -0.5l-1.5 0.5l-1.5 0.5q-2 15 -2 29
l-39 4q0 1 -0.5 2t-1.5 1v1q0 2 2 2.5t3 0.5q8 0 16 -1t16 -1q2 0 3.5 1t2 3t0.5 4v5v5q-1 1 -3.5 3t-4.5 2h-27q-6 0 -6 5q0 3 2 3h2.5h3.5q7 0 15 -1.5t15 -1.5q2 0 2.5 0.5l2.5 2.5v6q0 4 -1 6.5t-6 4.5h-3.5t-6 0.5t-6 0.5h-3.5q-2 0 -4.5 1t-4.5 2.5t-3.5 4t-1.5 4.5v5
t1 9t3 8.5t5 3.5h30q0 18 -7 35t-17 32q-2 3 -2 6.5t-2 7.5q-2 2 -4 4.5t-4.5 5t-4 5.5t-1.5 6zM121 118q0 -2 1 -4.5t2 -4t3 -3t3 -1.5h22v19l-2 2h-1.5t-3.5 0.5t-4 0.5h-3h-3h-3q-5 0 -8 -2.5t-3 -6.5zM161 86v-2v-3.5t1 -3t2 -1.5h19v9t-1.5 4.5t-4 2.5t-7.5 1h-6
q-3 -1 -3 -3v-4zM50 82q0 3 2.5 3.5t4.5 0.5q5 0 10.5 -3t11 -6.5t10 -8t6.5 -8.5l2 -2v-4v-4q0 -5 -3 -11.5t-8 -12t-10.5 -9.5t-11.5 -4q-4 0 -4.5 1t-0.5 5v3q1 1 3.5 1.5t3.5 1.5q3 3 7 5.5t7 5t5.5 6t2.5 7.5q0 9 -5 13t-11 7t-12.5 5.5t-9.5 7.5z" />
</svg>
