<?xml version="1.0" standalone="no"?>
<!DOCTYPE svg PUBLIC "-//W3C//DTD SVG 1.1//EN" "http://www.w3.org/Graphics/SVG/1.1/DTD/svg11.dtd" >
<svg xmlns="http://www.w3.org/2000/svg" xmlns:xlink="http://www.w3.org/1999/xlink" version="1.1" viewBox="-10 0 266 256">
   <path fill="currentColor"
d="M57 149q0 9 3.5 14t9 8t12 4.5t12.5 2.5t10 2.5t5 4.5q1 1 1.5 3.5t1.5 5.5t2 5.5l1 2.5q3 6 9.5 14.5t14.5 16.5t17 13.5t18 5.5h4q3 0 3 -3q0 -1 -3.5 -4t-9 -8t-12 -10.5t-12.5 -11.5t-9.5 -10.5t-4.5 -7.5q1 -1 3.5 -3t5 -4.5t5 -4.5t3.5 -3l1.5 -1t2.5 -1
q12 -1 21.5 -3.5t16 -7t9.5 -12.5t3 -21q0 -5 -1.5 -11.5t-5.5 -11.5t-10 -9t-13 -4q0 3 1.5 5.5t3.5 4.5l4.5 4.5l4.5 4.5q3 4 3 10v11v10q-3 4 -6.5 8t-7 7t-8 5t-11.5 2v-1t-0.5 -3t-0.5 -3v-2l1 -3t1.5 -6t1 -5.5t0.5 -3.5v-5t-0.5 -8.5l-1 -9t-0.5 -6.5t-1.5 -5
t-3.5 -5.5t-4.5 -4.5t-5.5 -2q0 5 1 9t2.5 8t3 8.5t1.5 8.5t-1.5 13t-4 18t-7 16t-9.5 7h-1q-13 -17 -13 -39q0 -6 1.5 -12t3 -11.5t2.5 -11.5t1 -12q-1 0 -3.5 0.5t-2.5 2.5q-7 17 -8.5 32.5t-1.5 33.5q0 2 -1.5 2h-2.5q-3 0 -5 -0.5t-5 -1.5q-3 -2 -6.5 -4.5t-7 -6
t-5.5 -7t-2 -7.5q0 -7 3.5 -13.5t8 -12.5t8 -12t3.5 -10h-4q-1 0 -2 1t-2.5 2t-3 3t-2.5 2q-4 4 -8 9.5t-7 11t-5 11.5t-2 12zM44 80l0.5 1l0.5 1l16 2h6h11h12h9h13h16h15h8q1 -1 7.5 -1t14 -0.5t15.5 -1.5t12 -1h2t4 -0.5t3.5 -1.5t1.5 -2q0 -2 -2 -3l-4 -2t-4.5 -1h-2.5
h-20q-10 0 -19 1t-18 1q-3 0 -3.5 -2t-0.5 -4q0 -9 2 -18.5t2 -18.5q0 -1 4 -1.5t10 -1t12.5 -1t12.5 -1t10.5 -2t5.5 -3.5q-3 -4 -6 -4h-5q-24 0 -47.5 1.5t-46.5 2.5q-2 0 -5 0.5t-6 0.5t-6 0.5t-4 0.5t-1.5 0.5l-0.5 0.5v1q0 2 3 3t5 1h47q1 0 3 1.5t2 3.5v0q0 1 -0.5 2
t-1.5 2v25v2.5t-0.5 3.5t-1.5 3.5t-4 1.5q-2 0 -9 0.5t-15 1t-15 1t-9 0.5h-3h-6h-5h-3h-4q-1 0 -3 0.5t-3 1.5t-1 3z" />
</svg>
