<?xml version="1.0" standalone="no"?>
<!DOCTYPE svg PUBLIC "-//W3C//DTD SVG 1.1//EN" "http://www.w3.org/Graphics/SVG/1.1/DTD/svg11.dtd" >
<svg xmlns="http://www.w3.org/2000/svg" xmlns:xlink="http://www.w3.org/1999/xlink" version="1.1" viewBox="-10 0 266 256">
   <path fill="currentColor"
d="M75 168q0 12 6 18.5t19 8.5h2h3h3h2q3 1 5.5 4.5t3.5 7.5l2 8t3 7t5 6l6 6l6 6l5 5q1 2 2 3l1.5 1.5t2 1t4.5 0.5q2 0 4.5 -1t2.5 -4q0 -2 -5 -5.5t-11 -8t-11 -9.5t-5 -11q0 -4 3 -8t6 -6q8 0 16 -1t13.5 -4t9 -9t3.5 -16q0 -8 -4.5 -12t-9.5 -6.5t-9.5 -4.5t-4.5 -8
v-15q0 -2 -1.5 -2.5t-2.5 -0.5h-1.5t-1.5 1v7q0 8 2 13t4.5 8t5.5 5t5.5 4t4 5t1.5 8q0 10 -5.5 15.5t-15.5 5.5q-3 0 -4 -2.5t-1 -4.5q0 -5 1 -9t1 -8v-4v-4q-1 -1 -1.5 -3t-2.5 -2h-1q-2 3 -3 6.5t-1 7t0.5 7.5t-0.5 7q0 2 -1 4.5t-2.5 5t-3 4.5t-1.5 3l-2 2h-1
q-1 0 -2 -1.5l-2 -3t-1.5 -3l-0.5 -1.5q0 -1 -0.5 -4t-1 -6.5t-1 -6.5t-0.5 -5v-2.5v-4.5v-4v-3l-2 -2t-2 -1t-2.5 0.5l-1.5 0.5q-1 2 -1 6v5q0 5 1 9.5t1 9.5q0 3 -1.5 3.5t-4.5 0.5q-4 0 -7.5 -1.5t-6.5 -3.5t-5.5 -5.5t-2.5 -7.5q0 -7 4.5 -11t9.5 -7t9.5 -7.5t4.5 -12.5
q0 -4 -1 -7t-5 -5q-2 1 -2.5 3.5t-0.5 5.5t0.5 6t-0.5 4q-2 5 -6.5 7t-8.5 4t-7.5 5.5t-3.5 12.5zM74 131q0 2 1 3t3 1q4 0 7 -4t5.5 -10.5t4.5 -14t3 -14.5t1.5 -12.5t0.5 -8.5h-9l-1 3q1 15 -2.5 29t-13.5 26v2zM172 130q0 1 2 2t3 1q2 0 3.5 -1.5t1.5 -3.5v-0.5v-0.5
q-7 -12 -12.5 -26t-6.5 -28l-3 -3q-4 1 -4 3v4q0 14 5 27.5t11 25.5zM124 97v18q0 8 2 17h2q2 0 3.5 -1.5t2 -3.5t0.5 -4.5v-4.5q0 -7 -0.5 -14t-0.5 -14q0 -10 3 -14.5t7.5 -7t10 -3.5t10 -2t8 -4t3.5 -10q0 -5 -5 -8t-11.5 -4.5t-13 -1.5t-9.5 -1q-5 -1 -8.5 -4t-6 -6.5
t-4.5 -6.5t-4 -3q-3 0 -4 0.5t-1 3.5t1 5l2 4l2 4t1 4q0 3 -3.5 6t-8.5 5.5l-9 4.5t-5 5l0.5 1t1.5 1l1.5 0.5t2.5 0.5q5 0 9 -3t7.5 -6l7 -6t8.5 -3q3 0 9 0.5l12 1t10.5 2.5t4.5 6t-2.5 5.5t-6.5 2.5t-8.5 2t-8.5 2.5t-7.5 5t-4.5 9.5v19z" />
</svg>
