<?xml version="1.0" standalone="no"?>
<!DOCTYPE svg PUBLIC "-//W3C//DTD SVG 1.1//EN" "http://www.w3.org/Graphics/SVG/1.1/DTD/svg11.dtd" >
<svg xmlns="http://www.w3.org/2000/svg" xmlns:xlink="http://www.w3.org/1999/xlink" version="1.1" viewBox="-10 0 266 256">
   <path fill="currentColor"
d="M119 209q4 5 9 12t11 13t12.5 10.5t13.5 4.5q2 0 3.5 -1t1.5 -3t-2.5 -4.5t-6.5 -4.5t-8.5 -4.5t-8 -5t-6.5 -6t-3 -6.5q0 -6 4 -10.5t7 -7.5q9 0 16.5 -0.5t12.5 -2.5t8 -7.5t3 -16.5q0 -3 -0.5 -5.5t-0.5 -5t-0.5 -5t-1.5 -6.5q-3 -4 -8 -6.5t-10.5 -4.5t-9.5 -5t-4 -6
v-3t1 -2h3h4h3h3h3h4.5h3.5h2h1.5t3.5 0.5t3.5 0.5h1.5q5 0 6.5 -2.5t1.5 -6.5h-71h-3t-4 0.5l-4 1t-3 0.5t-8 -0.5t-15 -1t-15 -0.5h-8h-3.5h-3.5q0 4 1 7.5t6 3.5h1q2 0 7 -0.5t11 -1t11.5 -1t6.5 -0.5h3h3t3 1q1 1 1 2v2q0 6 -3 8.5t-7.5 4.5t-9.5 3.5t-9.5 4t-7.5 7.5
t-3 13q0 10 3.5 16.5t9 10t12.5 4t16 -0.5q3 3 4 6t2 7zM116 152q-1 -2 -1.5 -2h-1.5q-2 0 -2.5 1.5t-1 4t-0.5 4.5v3q0 7 1.5 13t1.5 13q-5 0 -10.5 -0.5t-10 -3t-7.5 -6.5t-3 -11t2 -10.5t5 -6t7 -3.5t8.5 -2.5t8 -3.5t6.5 -6q0 -1 0.5 -3.5t1 -5.5t1 -5t1.5 -2h20l1 3
t2.5 6.5t4.5 7.5t7 5q3 1 7 3t7 4t5 5.5t2 8.5q0 9 -2 14t-6 8t-9.5 3.5t-13.5 0.5q0 -7 1 -13t1 -12v-5t-1 -6h-1h-1l-1 1t-2 1v4.5t-0.5 7.5t-0.5 7.5v4.5q-1 2 -1.5 6t-2 8t-3.5 7t-5 3t-5 -4t-3.5 -8.5t-2.5 -9t-1.5 -6t-0.5 -4.5t-0.5 -7t-0.5 -7.5v-4.5zM93 55v5v6v5
v3q0 2 1 6t2.5 8t4 7t6.5 3h42q5 0 8.5 -2t5.5 -5.5t3.5 -7.5t2.5 -8v-3v-5v-4v-4q0 -12 -1.5 -20.5t-5.5 -13.5t-11.5 -7.5t-20.5 -2.5q-6 0 -12 0.5t-11.5 3t-9 7t-4.5 11.5v4v5v6v3zM101 67q0 -4 3 -6q10 1 20 -0.5t21 -1.5h2h4h4.5h2.5q2 1 2 3v3q0 3 -1 7.5t-2.5 9
t-4.5 7t-7 2.5h-34q-3 0 -5 -3.5t-3 -7.5t-1.5 -8t-0.5 -5zM102 52q0 -1 -0.5 -2t-0.5 -2q0 -2 0.5 -4.5t1.5 -5.5t2.5 -5.5t3.5 -3.5q5 -2 12.5 -3.5t13.5 -1.5q11 0 18 5t7 18q0 1 -0.5 2l-1.5 3q-2 0 -6.5 -0.5t-9.5 -0.5q-6 0 -10.5 0.5t-6.5 0.5h-1.5h-3t-3 0.5
l-1.5 0.5h-1h-2q-1 0 -2.5 -0.5t-3 -0.5h-3h-2.5z" />
</svg>
