<?xml version="1.0" standalone="no"?>
<!DOCTYPE svg PUBLIC "-//W3C//DTD SVG 1.1//EN" "http://www.w3.org/Graphics/SVG/1.1/DTD/svg11.dtd" >
<svg xmlns="http://www.w3.org/2000/svg" xmlns:xlink="http://www.w3.org/1999/xlink" version="1.1" viewBox="-10 0 266 256">
   <path fill="currentColor"
d="M190 246l2 3q2 1 3.5 -5t2 -13.5t0.5 -15.5v-10q0 -1 -0.5 -4.5t-0.5 -7.5t-1 -7.5t-1 -5.5q-3 -7 -9 -11t-12 -6.5t-10.5 -4.5t-4.5 -6t3 -7t7.5 -5t10 -4t10 -5.5t7.5 -9t3 -14.5q0 -2 -1.5 -6t-3.5 -7t-5 -5.5t-6 -2.5h-33q-2 -2 -5 -4t-5 -4q-1 0 -2.5 1.5t-1.5 2.5
q0 3 2.5 5t6 4t7 4.5t3.5 6.5v4t0.5 8.5t0.5 9v7.5v2v3l-1.5 1.5l-3 3t-3 3.5l-1.5 2v2.5v3.5q0 7 2 10.5t5 5.5t7 3l8 2t7.5 3t6.5 6q3 3 3.5 8l1 10t0 10t0.5 9v5.5t0.5 8t0.5 8.5v5zM92 150q1 4 1.5 9.5t0.5 11.5q0 5 -0.5 10.5t0.5 8.5q0 3 0.5 11t1.5 16.5t1.5 16
t0.5 10.5h7q0 -14 -1 -28.5t-1 -28.5v-8q6 -6 10.5 -13.5t8.5 -14.5q3 -1 7 -3t7.5 -5.5t5.5 -7.5t2 -9t-1 -11t-4 -9l-20 -22h-4v4q4 3 7 7l6 8t4.5 8.5t1.5 9.5v5.5t-1 7t-3 5.5t-5 2h-1h-1v-4t-0.5 -6.5t-0.5 -7v-4.5t-0.5 -3.5t-1.5 -5t-2.5 -4.5t-3.5 -2v0
q-1 0 -1.5 0.5t-0.5 1.5v0q0 7 1 13t1 12q0 9 -2 18.5t-9 15.5l-2 -2v-52q0 -2 -1 -2h-2t-2 4.5t-1.5 10l-1 11t-1.5 8.5q-3 -1 -5.5 -3t-4 -4.5t-2.5 -5.5t-1 -7q0 -6 2.5 -11.5t5.5 -10t5.5 -8t2.5 -7.5q0 -3 -3 -3t-3 2t-2 3q0 1 -2 4t-4.5 6.5t-4.5 6.5t-3 4
q-2 4 -2.5 8.5t-0.5 9.5q0 6 2 9t5 5.5t7 4t8 4.5zM172 96q3 0 6.5 0.5t6 1.5t4 4t1.5 7q0 5 -2 9t-6 7t-8.5 4.5t-8.5 1.5v-34l2.5 -0.5t4.5 -0.5zM48 84v4q8 0 15 -4t13 -10t11.5 -12.5t10.5 -11.5l5.5 -5.5l7.5 -7.5t8 -7.5t6 -5.5l1 -0.5t2 -0.5h1v0q1 0 2 0.5t2 1.5
l1.5 1.5l1.5 1.5q6 4 14.5 12t18 16t19.5 13.5t18 5.5h2.5t0.5 -3q0 -1 -4 -4t-10.5 -7.5t-14 -10t-14.5 -10.5t-12.5 -9.5t-6.5 -6.5q-1 0 -3 -3t-2.5 -3.5t-2 -1.5t-3.5 -2l-4 -2t-3 -1q-6 2 -11.5 6t-10.5 9.5t-9.5 11t-8.5 10.5q-9 10 -19.5 20t-21.5 16zM106 63l3 4h4
t8 0.5t8 0.5h6h5t8.5 -1t7.5 -2t3 -2q0 -2 -1.5 -3.5t-2.5 -1.5h-1.5h-0.5q-2 0 -8.5 0.5t-13 0.5t-12.5 0.5t-8 0.5t-3 1z" />
</svg>
