<?xml version="1.0" standalone="no"?>
<!DOCTYPE svg PUBLIC "-//W3C//DTD SVG 1.1//EN" "http://www.w3.org/Graphics/SVG/1.1/DTD/svg11.dtd" >
<svg xmlns="http://www.w3.org/2000/svg" xmlns:xlink="http://www.w3.org/1999/xlink" version="1.1" viewBox="-10 0 266 256">
   <path fill="currentColor"
d="M176 224l17 24l1 0.5l1 0.5q3 0 4 -2t1 -4v-3l-17 -28q-3 -1 -4 -4t-2 -6.5t-1 -7.5v-6q0 -6 1.5 -9.5t3.5 -6.5t4.5 -6.5t5.5 -7.5q2 -5 4 -9.5t4 -8.5q2 -5 3 -11.5t1.5 -14t0.5 -14.5v-13v-18q0 -2 -1 -8t-1.5 -12.5t-0.5 -12t-1 -7.5q0 -6 -6 -9t-13 -4t-14.5 -1.5
t-10.5 -0.5h-14q-1 1 -4 2.5t-4 2.5l3 3h4h5q3 0 5.5 0.5t4.5 2.5v19v19q0 2 -1 6t-4 4t-5 -4.5t-2.5 -9.5t-0.5 -10v-7q0 -1 -0.5 -1.5l-0.5 -0.5q-1 0 -2.5 -1l-1.5 -1q-3 1 -3 3v4q0 7 1 14t2 13q1 3 2.5 4l3 2t4 1t3.5 1q1 0 1.5 1l0.5 1v6q0 12 -0.5 22t-1.5 23
q0 1 -1 1h-2q-3 0 -4.5 -1.5t-2.5 -4t-1 -5v-5.5v-1l0.5 -2.5t0.5 -4.5t0.5 -4.5l0.5 -2.5v-3q0 -1 -0.5 -2.5t-2.5 -1.5t-3.5 1.5t-1.5 3v4.5v3q0 3 -0.5 7t0 8.5t1.5 8.5t3 6t4 2.5t3.5 1.5t3 2.5t1.5 3.5v4t-2 4q0 9 -0.5 19t-3 19.5t-6 19t-8.5 16.5q1 2 2 2h2
q4 0 7.5 -5.5t6 -14t4 -18.5t3 -19.5t2 -16.5t0.5 -10q1 -3 3 -4.5t5 -2.5t5.5 -1.5t4.5 -2.5q3 -4 4.5 -9.5t2 -11t0.5 -11v-9.5h-1h-2.5t-2.5 0.5t-1 1.5q0 9 -1.5 15l-3.5 14q0 1 -1.5 3.5t-3.5 2.5q0 1 -2 0t-3 -1q0 -1 -0.5 -5t-0.5 -8.5v-8.5v-5q0 -2 0.5 -5l1 -6
l1 -6t0.5 -4q13 -6 18 -13.5t5 -21.5v-4q0 -2 -1 -3q0 -2 -1 -2h-2q-3 0 -4 2.5t-1 6t-0.5 8t-1 8t-2.5 6t-6 2.5q-1 0 -2.5 -0.5t-1.5 -3.5v-3.5v-4.5v-5v-3v-14.5t2 -14.5h3h3q6 0 9 0.5t5.5 2.5t4.5 5t5 8q1 9 1 16t0.5 13.5t0.5 13.5v14v16t-2 16q-3 9 -7 17t-8 15.5
t-7.5 16t-3.5 18.5q0 4 1 7.5t2.5 6.5t2.5 6.5t2 7.5zM49 132q0 12 2.5 22t12.5 18q2 2 5.5 3.5t5.5 4.5q3 9 6.5 17.5t7 17.5t8 17t10.5 16h3q2 0 4 -1t2 -4v-0.5v-0.5q-2 -4 -6 -10t-8 -12.5t-7 -13t-3 -11.5q0 -2 2 -6t4.5 -7.5t6 -6.5t5.5 -5q9 -7 14 -14t5 -18
q0 -8 -2 -17t-5 -16q-1 -4 -3.5 -7t-5 -6.5t-4 -7t-1.5 -7.5q0 -5 3 -7t7 -3.5t7 -3t3 -5.5h-26l-3 -3v-30q0 -2 4 -3t8.5 -1.5t8.5 -2t4 -4.5q0 -2 -1 -2.5t-3 -0.5h-9t-13 0.5t-14.5 1t-14.5 1.5t-11.5 3t-5.5 4l4 3h4q6 0 12.5 -1t12.5 -1h2t2 2v32q0 3 -5 4t-11.5 1.5
t-13.5 0t-10 -0.5q-1 0 -1 1v2v2t1 1h20l0.5 1l0.5 1l0.5 1.5t1 3.5t1 3.5t0.5 2.5v1v1q0 1 -0.5 2t-1.5 2.5t-1.5 2.5l-0.5 1q-1 0 -2.5 2t-3.5 4.5t-3.5 4t-1.5 2.5q-5 7 -7 14t-2 15zM81 145q0 -1 0.5 -5t0.5 -9t0.5 -9t0.5 -5v-2q0 -2 -1 -4t-3 -2q-1 0 -2.5 2t-1.5 3
v54q-7 0 -10.5 -5t-4.5 -11.5t-1 -13.5v-11q0 -8 3.5 -14.5t7.5 -11t7 -8t3 -5.5v-17q0 -2 2 -3t5 -1.5t5.5 -0.5h3.5h3.5t2.5 3v22q4 6 7.5 11.5t6 11t4 11.5t1.5 13q0 10 -4.5 16t-11.5 12l-2 -2t-1 -2v0q0 -11 0.5 -21t0.5 -20v-7l-0.5 -1l-0.5 -1h-1h-1l-2.5 2.5
l-1.5 1.5v51q0 1 -1 4t-2.5 6t-3 5.5t-2.5 2.5t-1.5 -1.5t-1.5 -3.5t-1 -4v-2v-2q0 -1 -0.5 -5t-0.5 -8.5t-0.5 -8.5t-0.5 -5z" />
</svg>
