<?xml version="1.0" standalone="no"?>
<!DOCTYPE svg PUBLIC "-//W3C//DTD SVG 1.1//EN" "http://www.w3.org/Graphics/SVG/1.1/DTD/svg11.dtd" >
<svg xmlns="http://www.w3.org/2000/svg" xmlns:xlink="http://www.w3.org/1999/xlink" version="1.1" viewBox="-10 0 266 256">
   <path fill="currentColor"
d="M40 237q0 3 1 4.5t3 2.5t4.5 1.5t3.5 0.5q20 0 40 -1t39.5 -2.5t39.5 -2.5t40 0q0 -1 1.5 -1.5t2.5 -1.5l2 -2t0 -3q-1 -4 -2 -4.5t-4 -0.5q-6 0 -12 0.5t-12 0.5q0 -13 2.5 -26.5t7.5 -25.5q0 -1 0.5 -3.5t1.5 -2.5q2 -18 4 -35.5t2 -36.5q0 -4 -1.5 -7t-4 -5t-6 -4
t-5.5 -4h-29q-3 0 -4.5 -3t-1.5 -6q0 -2 2 -4t5 -3.5t6 -2.5t5 -1h29q3 1 3.5 -1t0.5 -3q0 -3 -1.5 -4.5t-3.5 -2.5t-4 -1.5t-4 -0.5h-3q-2 0 -7 1t-11 2.5t-11 2.5t-7 2q-5 1 -7 5.5t-2 10.5v0v1l0.5 2t0.5 4.5t0.5 4.5l0.5 2v1q0 15 -0.5 31t-2 32t-5 31.5t-9.5 29.5
q-1 0 -1 1v2q0 5 5 5q3 0 5.5 -3.5t4.5 -6.5q0 -1 0.5 -4t1.5 -6.5t1.5 -6.5t1.5 -4q0 -2 1.5 -2h3.5q4 0 8.5 1t9.5 1q2 0 3.5 -0.5t2.5 -3.5l-0.5 -1.5t-1.5 -2.5q-1 -2 -4.5 -3t-7 -1.5t-6.5 -0.5h-4l-2 -2v-2.5v-3.5v-5.5v-3.5q0 -1 0.5 -2.5t1.5 -1.5h34q2 0 2 1.5v2.5
v0.5v1.5t-1 4t-1.5 7t-1.5 7.5l-1 3.5q-1 4 -1.5 12.5t-2.5 16.5t-5 14t-8 6q-2 1 -7.5 1t-12 0.5t-12 0.5h-6.5h-14h-12h-5.5t-6.5 -0.5t-5 -0.5t-2 -1l-4 -3v-21l1.5 -1.5l2.5 -2.5q3 -2 5.5 -4.5t4.5 -5t4 -5.5t3 -8q1 -2 1 -3.5t0.5 -2.5t0.5 -2t1 -3q12 0 18 -7.5
t8.5 -18t2 -22t-0.5 -20.5t-2.5 -12.5t-6 -4.5t-6.5 -1.5t-4 -2.5v-2.5v-4.5v-3v-3v-7q0 -4 0.5 -9t1.5 -9.5t3 -4.5h13l3 -0.5l6 -1t6 -0.5h3q4 0 12 -0.5t17.5 -0.5h18.5h12q0 -1 -0.5 -4.5t-0.5 -4.5l-0.5 -1t-1.5 -1h-4h-6.5h-6.5h-4q-17 0 -34 1t-34 2.5t-34 2t-34 0.5
q-1 0 -1.5 2t-0.5 3q0 3 2 4.5t4 1.5q5 0 8.5 -1t7.5 -1q1 0 4 0.5t4 0.5q2 0 2 1v3v3q0 2 -0.5 5l-1 6t-0.5 5.5v2.5q-1 4 -3.5 6t-5.5 4t-6.5 3.5t-5.5 3.5q-4 5 -6.5 11t-4.5 12.5t-2.5 13.5t-0.5 13q0 7 0.5 12.5t2.5 10t5.5 8.5t9.5 6q3 2 5 2t5 2v6v5q0 5 -0.5 13
t-0.5 15t-0.5 12.5l-0.5 5.5l-3 3h-3.5h-5.5h-5h-3q-3 1 -5 2.5t-2 4.5zM79 185v-11q0 -19 2 -36.5t2 -35.5q0 -3 -1 -5.5t-4 -2.5q-4 0 -5.5 4.5t-1.5 11.5v14.5v14.5t-1 11.5t-5 4.5q-3 0 -4.5 -1.5t-3 -3.5t-2.5 -4.5t-1 -3.5v-13q0 -7 0.5 -13.5t2 -13t5 -12t9.5 -9.5
q1 -1 3.5 -2t4.5 -2l4 -2t3 -4t1 -9t0.5 -12.5t3 -11t7.5 -4.5q1 0 2 0.5t2 1.5q-1 10 -1 22t2 23q2 4 5 5.5t6.5 2.5t6 4.5t2.5 11.5q0 2 -0.5 6.5t-1 10t-1.5 11.5t-2.5 11t-4 8t-5.5 3t-4 -2t-1 -4q0 -12 1 -22.5t1 -21.5v-7q-1 -3 -2.5 -3.5t-3.5 -0.5h-1h-1
q0 3 -0.5 11t-1 16.5t-0.5 16.5v11q0 4 -0.5 9.5t-1.5 11.5t-3.5 11t-6.5 6q-1 0 -2 -1t-2 -1zM152 134q0 -9 4 -12t9.5 -4t9.5 -2t4 -6q0 -2 -2.5 -3t-3.5 -1q-6 0 -10.5 2t-10.5 2v-22h31q0 1 1.5 1.5t3 2.5t2.5 2l1 2v4q0 2 0.5 5t0.5 6v3v5t-0.5 5.5t-0.5 5.5v2v2
t-0.5 3.5l-1 3t-2.5 1.5t-4.5 -1t-4.5 -1q-5 0 -10 1t-10 1h-2.5h-1.5l-2 -2v-3v-3z" />
</svg>
