<?xml version="1.0" standalone="no"?>
<!DOCTYPE svg PUBLIC "-//W3C//DTD SVG 1.1//EN" "http://www.w3.org/Graphics/SVG/1.1/DTD/svg11.dtd" >
<svg xmlns="http://www.w3.org/2000/svg" xmlns:xlink="http://www.w3.org/1999/xlink" version="1.1" viewBox="-10 0 266 256">
   <path fill="currentColor"
d="M67 246q0 1 1 2t2 1q1 1 2.5 0t2.5 -2.5t2 -3.5t1 -3q0 -2 -0.5 -7t-0.5 -11t-0.5 -11.5t-0.5 -7.5v-2.5v-3.5v-2.5v-1.5q0 -2 0.5 -7t1 -10.5t1 -10.5t0.5 -7q2 -4 4 -6.5t4 -4.5t5 -4.5t6 -5.5q2 -1 3 -3.5t2.5 -5t2.5 -5t2 -2.5q2 -1 5 -1.5t7 -0.5h6h5h2q3 0 5.5 0.5
t4.5 0.5h3q2 0 3 2.5t1.5 5t1.5 4.5t3 4l1.5 0.5t3 1.5t3 1.5t2.5 0.5q4 4 7.5 8.5t5 10l3 11t1.5 11.5v2.5v3.5v3t1 3q1 12 2 26t0 27q1 2 1.5 2h1.5q2 0 2.5 -0.5t0.5 -2.5v-4v-6v-6v-4v-6v-6v-5.5v-2.5q0 -3 -0.5 -8.5t-1 -12t-1 -12.5t-0.5 -8q-1 -4 -2 -7.5t-2.5 -6.5
t-4 -6t-5.5 -7q-2 -2 -5 -3.5t-6.5 -2.5t-5.5 -3t-2 -6v-2q3 -3 6 -5.5t5.5 -6t4 -7t1.5 -7.5v-61q0 -2 -2 -2h-2h-3t-2 2q1 3 1.5 5t0.5 5q0 2 -1.5 6t-5.5 4q-2 0 -6.5 -3t-9 -6.5t-8 -7t-3.5 -6.5v-3t2 -3q1 0 4 -0.5t6.5 -0.5t7 -0.5t4.5 -0.5h13h2t3.5 -0.5t2.5 -1.5
t1 -2v-2t-2 -1h-2h-5h-5h-2h-5h-4h-4h-2q-1 0 -3.5 0.5t-5.5 1t-5.5 1t-3.5 0.5q-8 1 -17 0.5t-16.5 1t-12 6.5t-4.5 16v54q0 6 2.5 10.5t6.5 7.5t7 5t3 5q0 5 -3 8.5t-7.5 6t-8.5 5.5t-5 7q-2 4 -3 11.5t-2 15.5t-1 16v12v3v2.5t0.5 3.5t0.5 4v2q0 1 -0.5 3.5l-0.5 2.5v10
v9zM114 205q2 2 2 4.5t1 5.5t4 9t7 11.5t8 10t8 4.5q3 0 3 -1.5v-3.5t-2 -5.5t-4.5 -7.5t-4.5 -7.5t-3 -5.5q3 -7 9 -11t13 -7.5t11.5 -8t4 -12t-2.5 -12t-5 -7t-6 -4.5t-5.5 -4t-4.5 -5.5t-1 -8.5h-1.5h-0.5h-2t-1 1v14q0 1 3.5 3t8 5t8.5 8t4 12q0 4 -4.5 7.5t-8.5 3.5h-3
t-2 -2v-11.5t-1 -10.5q-1 -1 -2 -1.5t-2 -0.5l-0.5 0.5t-0.5 1.5v16q0 2 -0.5 6t-1.5 7.5t-3 6.5t-6 3q-3 0 -4.5 -2t-2 -5t-1 -5.5l-0.5 -2.5q0 -2 -0.5 -5t-0.5 -6q0 -4 0.5 -7t0.5 -5q-1 -1 -3 -1q-3 0 -4 1t-1.5 3l-1 4t-0.5 3q0 2 1 4.5t1 4.5t-1.5 3.5t-3.5 1.5
q-8 0 -11 -4.5t-3 -10.5q0 -7 3.5 -11.5t7.5 -7.5t7.5 -7t3.5 -11q0 -2 -0.5 -3.5t-3.5 -1.5h-1.5h-0.5l-3 11q-5 4 -8.5 7.5t-6.5 7t-4.5 8t-1.5 10.5q0 5 2.5 9t6 7t8.5 5t10 3zM90 102v-1v-1l8 -1h44q3 -2 5.5 -2h5.5h2h3q2 0 2 1.5v2.5q0 3 -1.5 5t-4 3.5t-5.5 2t-5 0.5
h-44q-4 0 -7 -3t-3 -7zM86 84q0 -4 2 -5.5t5.5 -2t6.5 -0.5h6h3h7h8h6h4h7.5h7.5h5t5.5 1.5t3.5 4.5v1v1l-0.5 2.5t-1.5 2.5q-2 1 -8 1t-12.5 0.5t-12 0.5h-8.5h-13h-14q-3 -1 -5 -2.5t-2 -4.5zM86 66q0 -3 4.5 -6.5t10.5 -6l12 -5t8 -2.5h1q2 1 6.5 1.5l4.5 0.5l27 12
q2 1 3.5 3.5t1.5 3.5t-1.5 1.5t-2.5 1.5v0q-5 0 -9 -0.5t-9 -0.5q-12 0 -24 0.5t-24 0.5h-2.5t-3 -0.5t-2.5 -1.5t-1 -2zM87 46q0 -13 7 -17.5t20 -4.5h1h2.5t2 0.5l0.5 0.5v12l-3 2t-5 3q-1 0 -4 1.5t-6.5 3t-7 2.5t-4.5 2h-1q-2 0 -2 -1.5v-3.5z" />
</svg>
