<?xml version="1.0" standalone="no"?>
<!DOCTYPE svg PUBLIC "-//W3C//DTD SVG 1.1//EN" "http://www.w3.org/Graphics/SVG/1.1/DTD/svg11.dtd" >
<svg xmlns="http://www.w3.org/2000/svg" xmlns:xlink="http://www.w3.org/1999/xlink" version="1.1" viewBox="-10 0 266 256">
   <path fill="currentColor"
d="M147 246q0 3 2 3.5t4 1.5h1q4 0 10.5 -6t12.5 -14t10.5 -16t4.5 -12q0 -8 -4 -10.5t-9 -3.5t-9.5 -2.5t-4.5 -6.5q0 -4 2 -5.5t5 -2.5q4 -2 9 -2.5t10 -0.5h10h8q3 -2 3 -6v-1l-0.5 -0.5t-1.5 -0.5h-5h-5.5t-5.5 1t-10.5 1t-16 0.5t-16 1t-10.5 1.5h-2q-1 0 -2 -1t-1 -2
t1.5 -3t3 -4.5t2.5 -5.5t1 -7v-3.5v-3.5l-0.5 -0.5l-0.5 -0.5l-0.5 -0.5l-0.5 -0.5q-1 0 -3 4.5t-4 10t-3.5 10.5t-1.5 7l-1.5 0.5l-1.5 0.5q-1 0 -2.5 0.5t-3.5 0.5t-4 0.5l-2 0.5v2q0 3 0.5 3.5t3.5 0.5q9 0 17.5 -1.5t17.5 -1.5h0.5h0.5l2 1t2 2l-0.5 2t-0.5 3v2v2
q0 6 4 7.5t8.5 2t8.5 2t4 6.5q0 6 -4 12t-9.5 12t-11.5 11t-11 8v0.5v0.5zM67 241q0 2 2 3t4 1q3 0 4 -3.5t1 -6.5q0 -7 -1 -14.5t-1 -15.5v-9l0.5 -1t1 -1.5t2 -1.5t3 -3t3 -3t1.5 -2q3 -4 4.5 -9t2.5 -9q1 -1 1.5 -2t0.5 -2q2 -1 4 -3.5t4 -5.5t4 -5.5t3 -5.5q5 -9 6 -21
t1 -23v-7.5t-2 -6.5l-12 -25v-1v-1q1 -4 2.5 -8.5t2.5 -10t2 -10.5t1 -10q0 -2 -1 -3t-3 -1t-3.5 3t-3 8t-2.5 11t-1.5 11t-1 9.5t-0.5 6.5q0 3 2 6.5t4.5 7t4.5 7.5t3 9v8v13t-1.5 13.5t-4 12.5t-8.5 10l-2 -1v-2v-3q0 -9 1 -17.5t1 -18.5v-17q0 -2 -1 -2.5t-2 -0.5h-2
t-1 2v9.5v14.5v14v10l-0.5 2.5t-0.5 5.5t-0.5 5.5t-0.5 3.5q0 2 -0.5 6t-1.5 8t-3 6.5t-5 2.5t-4 -2v-4v-6v-7v-4q0 -15 2 -30.5t2 -29.5q0 -3 -0.5 -5t-3.5 -2t-3.5 1t-0.5 2v3v4l-0.5 3t-0.5 6t-0.5 5.5t-0.5 3.5v26q0 1 -0.5 1.5l-0.5 0.5q-1 0 -2 1t-2 1q-3 -2 -5 -6
t-2.5 -8.5t0 -9.5t0.5 -8v-9t0.5 -7.5t1.5 -7.5t3 -10q2 -1 5 -3.5t6 -6t5 -7t2 -7.5v-36q0 -2 -1.5 -5t-4.5 -3q-1 0 -2 0.5t-1 1.5v36q0 4 -1.5 7t-4 5.5t-5.5 5t-5 5.5q-3 3 -4 8.5t-3 9.5q0 2 -0.5 5.5t-0.5 7.5t-0.5 7.5t-0.5 4.5v4q0 6 2 11.5t1 10.5l9 15
q4 1 5.5 3.5t4.5 5.5v10t0.5 15t0.5 15.5v10.5v8q0 4 -0.5 8t-0.5 8zM161 154v2.5t2 1.5t4 -4t3.5 -9l3 -10t4.5 -7l2 -1t4 -1.5t4 -1.5t2 -2q10 -6 13 -14t5 -20v-3.5v-5.5q0 -7 -1.5 -13.5t-4.5 -11.5t-8.5 -8.5t-12.5 -3.5q-1 0 -3 -0.5t-4 -0.5t-3.5 -0.5l-1.5 -0.5v-24
q0 -1 -2.5 -2t-3.5 -1q-1 -1 -2.5 0l-1.5 1v23l-1 0.5t-2 1.5q-9 3 -14.5 6.5t-8.5 9t-4 13t-1 17.5q0 6 1.5 14t4.5 15t8.5 11.5t13.5 4.5h3t2 -2v-1v0l-0.5 -0.5l-1 -1t-2.5 -1.5t-4.5 -2.5t-4.5 -2.5l-2 -1q-4 -2 -6 -6.5t-2.5 -9.5l-1 -10t-0.5 -8q0 -7 1 -14t4.5 -12.5
t8.5 -9t13 -3.5h1q1 0 2.5 0.5t2.5 0.5l1.5 1l1.5 1q8 3 13.5 5t8.5 6t3.5 9.5t0.5 14.5q0 16 -7 26t-22 18q-4 6 -6 13t-2 14zM183 139q0 2 1 5t2.5 5.5t4 5t4.5 2.5q1 0 2 -2t1 -3l-1.5 -3t-4 -6.5t-4.5 -6.5l-2 -3q-3 2 -3 6zM170 63q-2 0 -5 0.5t-6.5 2t-6 3.5t-2.5 5
v24q0 3 2 5t4 3t5 1h5q5 0 8 -1t5 -3t2.5 -5.5t1.5 -7.5v-3t0.5 -5t0.5 -5v-3l-1.5 -4t-2.5 -5q-2 -2 -5 -2h-5zM156 92v-2.5t2 -1.5h18q0 7 -1.5 10t-8.5 3q-4 0 -7 -2t-3 -7zM158 78q0 -1 0.5 -4t2.5 -3h13q0 7 -2 9t-8 2h-4.5t-1.5 -4z" />
</svg>
