<?xml version="1.0" standalone="no"?>
<!DOCTYPE svg PUBLIC "-//W3C//DTD SVG 1.1//EN" "http://www.w3.org/Graphics/SVG/1.1/DTD/svg11.dtd" >
<svg xmlns="http://www.w3.org/2000/svg" xmlns:xlink="http://www.w3.org/1999/xlink" version="1.1" viewBox="-10 0 266 256">
   <path fill="currentColor"
d="M85 185q0 8 1.5 13t4.5 7.5t8 3t12 1.5q2 0 4.5 3t5 8t5.5 10t6 9.5t6 7.5t7 3q2 0 3.5 -0.5t1.5 -3.5v-2q-5 -5 -8.5 -10.5t-8.5 -10.5q0 -1 -0.5 -1.5t-0.5 -1.5l5 -11q7 -1 12.5 -2.5t9.5 -4.5t6.5 -8t2.5 -12q0 -8 -4 -13.5t-8.5 -9t-8.5 -7.5t-4 -8q0 -1 0.5 -4
t2.5 -3h19q0 -5 -1.5 -6t-5.5 -1q-17 0 -32 2t-32 4q-3 0 -5.5 -0.5t-6.5 1.5q-1 1 -3 2.5l-4 3t-3.5 3.5t-1.5 4v24.5t-0.5 22.5l-1 22t-0.5 23q0 2 0.5 4t3.5 2q2 0 4 -1.5t2 -3.5v-73q0 -15 7 -22t21 -7l0.5 2.5t0.5 4.5v4v2q-1 4 -4 6.5t-7 5.5t-7.5 7t-3.5 11zM165 117
q4 0 4.5 3.5t0.5 6.5q5 25 7 50t5 50v3t0.5 5t0.5 5.5v3.5v2.5v2.5q0 1 1 1.5t2 0.5t3 -1t2 -4v-4v-5v-6v-4q0 -1 -0.5 -4.5t-1.5 -7t-1.5 -7t-0.5 -4.5q-1 -11 -2 -22.5l-2 -23t-3 -23t-5 -22.5v-1v-1q7 -5 9 -11t2 -16v-9q-2 -7 -7 -9t-10 -2.5t-8.5 0t-3.5 -2.5v-13
q0 -2 4.5 -1.5t10 0.5t10 -1.5t4.5 -8.5q-6 0 -12.5 1t-12.5 1q-4 0 -4 -6q0 -3 0.5 -6.5t0.5 -6.5t-1 -5.5t-4 -2.5q-4 0 -5.5 3.5t-1.5 6.5q0 8 0.5 16t0.5 16v7l-1 3q-3 0 -6 0.5t-5 1.5t-3.5 3t-1.5 5q7 0 13.5 -1t13.5 -1q4 0 8 0.5t7 1.5t5 3.5t2 7.5q0 4 -0.5 8
t-5.5 6q-10 -11 -26 -11h-4h-3.5t-4.5 0.5t-3.5 0.5h-1.5l-2 3l2 3l28 3q3 0 6 2.5t3 5.5v1h-1q-4 3 -9 4.5l-10 3l-10 3t-9 4.5l2 2q1 0 2.5 0.5t2.5 0.5q4 0 8 -1.5l8 -3t7.5 -2.5t6.5 -1zM118 176q0 -1 -1 -1h-2h-2.5t-1.5 1v27q-9 0 -14 -5.5t-5 -14.5q0 -5 3.5 -8.5
t7.5 -6.5l1 -0.5t2.5 -1t2.5 -1l1 -0.5q2 -1 3.5 -4t2 -6.5t0.5 -6.5t-1 -5q1 -2 3 -3t4.5 -1.5t5 -0.5h4.5h2h2l1 2q0 1 0.5 2.5t0.5 3.5t0.5 4l0.5 2q1 6 4.5 9t7.5 6t7 6t3 10q0 8 -4 12.5t-11 4.5q-4 0 -5 -0.5t-1 -5.5q0 -4 1.5 -7.5t1.5 -8.5v0l-2.5 -2.5l-2 -2t-2 0
t-2.5 0.5q0 1 0.5 3.5t0.5 5.5v4v3q0 2 -0.5 4t-0.5 4.5t-0.5 4l-0.5 1.5q0 1 -0.5 2t-1.5 2.5t-2.5 2.5t-2.5 1q-2 0 -3.5 -3t-2.5 -6t-1.5 -6.5t-0.5 -4.5v-3.5v-4.5v-4.5v-3.5zM89 80q0 4 -2.5 6t-5.5 4t-6.5 3.5t-4.5 4.5q-3 3 -4 7.5t-1.5 9t-0.5 9v8.5q6 0 7.5 -2.5
t2 -6.5t0.5 -8.5t1 -8.5q2 -3 4 -6.5t6 -3.5h2t1 2l3 28q0 1 1 1h1q1 0 2 -0.5t1 -2.5v-28q0 -1 1.5 -2t2.5 -1q4 0 6.5 5.5t3.5 11.5t2 11t2 5h2.5t1.5 -2v-6v-8.5t-1 -9.5q-1 -4 -4.5 -6.5t-7 -4.5t-6.5 -3.5t-3 -5.5q0 -3 3 -4t7 -2.5t7.5 -5t3.5 -11.5v-6q-1 -1 -1.5 -1
h-1.5q-2 0 -2.5 2.5t-1.5 5.5t-3 6t-7 3h-2t-2 -2v-15q0 -1 3 -2.5t7 -2.5t7.5 -2.5t3.5 -4.5v-18l-1.5 -1t-3.5 -1q-2 -1 -2.5 2.5t-1 8t-2.5 8t-7 3.5v0q-1 0 -2 -0.5t-1 -1.5v-25q0 -1 -1 -2.5t-3 -1.5q-3 0 -4.5 2.5t-1.5 5.5q0 4 1 7.5t1 7.5v2v3l-3 3t-3 2
q-2 0 -4.5 -3t-2.5 -5v-1q0 -1 1 -2.5l1 -1.5q-1 -2 -2.5 -4.5t-3.5 -2.5t-3 1t-2 3v0q0 10 3 14.5t7.5 6t8 2t3.5 1.5q0 4 0.5 7.5t0.5 6.5q0 6 -5 6t-7 -3t-2.5 -6t-1.5 -5.5t-4 -2.5t-3 3q0 7 1 10.5t3.5 6t6.5 3t9 1.5q1 0 2 1l1 1v1z" />
</svg>
