<?xml version="1.0" standalone="no"?>
<!DOCTYPE svg PUBLIC "-//W3C//DTD SVG 1.1//EN" "http://www.w3.org/Graphics/SVG/1.1/DTD/svg11.dtd" >
<svg xmlns="http://www.w3.org/2000/svg" xmlns:xlink="http://www.w3.org/1999/xlink" version="1.1" viewBox="-10 0 266 256">
   <path fill="currentColor"
d="M105 191q0 10 3 19.5t12 16.5l12 8t13 7.5t14.5 5.5t15.5 2q0 -3 -6 -6t-13.5 -6t-15 -7t-11.5 -9l15 -14q11 -2 20.5 -4.5t19.5 -7.5q0 -1 1.5 -4.5t1.5 -4.5v-0.5v-1.5q0 -4 -2 -8t-5.5 -7l-7 -6t-6.5 -6q-1 -1 -2 -3t-2 -3.5t-2 -2.5t-3 -2q-1 1 -1 3v2q0 5 3 9
t6.5 7.5t6 7.5t2.5 9q0 4 -2 6.5t-5 4.5t-6.5 3.5t-7.5 1.5q-2 0 -3.5 -0.5t-1.5 -2.5q0 -4 1.5 -7.5t1.5 -6.5t-0.5 -7t-2.5 -8t-4.5 -7t-6.5 -3q0 3 0.5 6.5t1.5 6.5t2 6.5t1 7.5q0 9 -4 17t-12 14q-4 -1 -6.5 -4.5t-4.5 -7.5t-2.5 -8.5t-0.5 -7.5q0 -6 1.5 -11t1.5 -10
v-3q0 -2 -3 -2v0q-4 5 -5.5 13t-1.5 15zM67 185q0 6 2.5 10.5t6.5 7.5t9.5 4.5t10.5 1.5q0 -4 -2.5 -5.5t-6 -3.5t-6.5 -4.5t-3 -8.5t3 -10.5t6.5 -8.5t6.5 -8t3 -9q0 -2 -1.5 -3.5t-3.5 -1.5h-0.5h-0.5q0 4 -2.5 8.5t-6.5 9.5t-8 9t-7 6v3v3zM129 119q0 5 2.5 8t6 5t8 3
t7.5 2q5 1 10.5 3.5t11.5 5t12 4.5t11 2v-5q-8 -2 -14 -5.5t-13 -6.5q-8 -3 -16.5 -5t-15.5 -7v-1.5v-1.5v-2.5t0.5 -1.5t1.5 -1.5t3 -2.5q3 -2 4.5 -4l3 -4t3 -4.5t3.5 -5.5q1 -1 2.5 -1h2.5h2.5t2.5 1q0 1 1 1.5l1 0.5v12q4 1 6 5t4.5 7.5t6 6t11.5 2.5q0 -1 -2.5 -3.5
t-5.5 -6t-5.5 -7t-3.5 -7.5q-1 -2 -0.5 -5t1 -4.5t0.5 -2.5h11l-0.5 -1.5t-0.5 -2.5q-1 0 -2 -0.5l-1 -0.5h-4.5h-6.5h-6h-4q-7 -1 -12 -2.5t-8.5 -4.5t-7.5 -6.5t-9 -7.5q0 -1 -1.5 -1.5l-1.5 -0.5q-1 0 -1.5 1.5l-0.5 1.5q0 4 3.5 7.5t8 7.5t8 7.5t3.5 5.5q0 4 -3 6.5
t-7 4t-7 4.5t-3 8zM57 116q0 5 2.5 8.5t6 6t7.5 4t8 1.5v-4l-12 -12v-9l1 -1t2.5 -1.5l3 -1t2.5 -1.5h2h1q6 0 8.5 3t6 6.5t7.5 6.5t11 3h2.5t1.5 -2q-2 -3 -5.5 -4.5l-7 -3t-6 -4t-2.5 -7.5q0 -2 1.5 -3t3.5 -2.5t3.5 -3.5t1.5 -6q0 -1 -0.5 -2.5l-1 -3t-1.5 -2.5t-3 -1h-1
l-3 14q0 3 -3.5 3.5t-8 1t-9.5 1t-9 2.5t-7 5t-3 9zM64 60q0 9 6.5 14t16.5 5q13 0 22 -6.5t9 -19.5q0 -4 -2 -7t-5 -6t-6.5 -5t-6.5 -3v-17q0 -1 -2 -1.5t-3 -0.5q-3 0 -4.5 2t-2 5t-0.5 6v6q-3 4 -7 6t-7.5 3.5t-5.5 5.5t-2 13zM73 58q0 -7 5 -12t14 -5q2 0 5 1t6 2.5t5 4
t2 5.5q0 9 -6 14t-14 5t-12.5 -4t-4.5 -11zM130 44q0 1 2.5 5t5.5 8t6.5 7.5t5.5 3.5q1 0 3 0.5t5 0.5t5.5 0.5l2.5 0.5h1.5t3 0.5t2.5 0.5h1h1.5t3 -1t3 -1.5t1.5 -1.5h-0.5h-0.5q0 -1 -0.5 -1.5l-0.5 -0.5h-4h-6t-6 -0.5t-4 -0.5q-3 -1 -5 -2t-3.5 -2.5l-3 -3t-4.5 -3.5
q-1 -1 -3 -2.5t-3.5 -3t-3 -2.5l-1.5 -1h-4zM84 56q0 1 0.5 2l1.5 3h4q3 0 5 -1t2 -6q0 -1 -3 -1.5t-4 -0.5q-2 0 -4 1t-2 3zM157 47l14 2t15 1h4l2 -2q-1 -2 -6 -3.5t-10.5 -2.5t-11 -2.5t-7.5 -3.5q-4 -3 -6.5 -7t-5.5 -7.5t-7 -6.5t-9 -3h-1q-1 0 -1.5 0.5l-0.5 0.5v1v1
l0.5 0.5t1.5 0.5q1 1 3.5 3l2.5 2l1 0.5t1 1.5q2 3 4 6.5t4.5 7t5.5 6t7 4.5z" />
</svg>
