<?xml version="1.0" standalone="no"?>
<!DOCTYPE svg PUBLIC "-//W3C//DTD SVG 1.1//EN" "http://www.w3.org/Graphics/SVG/1.1/DTD/svg11.dtd" >
<svg xmlns="http://www.w3.org/2000/svg" xmlns:xlink="http://www.w3.org/1999/xlink" version="1.1" viewBox="-10 0 266 256">
   <path fill="currentColor"
d="M162 246q1 2 2 3t3 1t3.5 -1t1.5 -3v-38q0 -4 1.5 -6.5t4 -5t5 -4.5t4.5 -4q5 -6 9 -13t6 -14q0 -7 0.5 -12t1 -9.5t0.5 -9.5v-11v-10q0 -7 -1 -12.5t-3.5 -10.5t-7.5 -8q-5 -1 -12 -1.5t-12 0.5l-1.5 -3t-0.5 -2q0 -3 1 -6.5t2.5 -6.5t3.5 -5.5t5 -2.5h27q2 0 2.5 -0.5
t0.5 -2.5v-1.5t-2 -1.5h-23q-3 0 -3 -1v-3q0 -4 1.5 -7t3 -6.5t3 -6.5t1.5 -5q0 -3 -2 -4t-4 -1q-5 0 -7 6.5t-4 14.5t-4.5 16t-6.5 11q-4 -2 -5.5 -6t-2.5 -9.5t-1.5 -10.5t-2 -9.5t-4 -7.5t-7.5 -3q0 5 1.5 8t2.5 6.5t2.5 6.5t1.5 6t-2 4t-5.5 1.5t-7 0t-7 -0.5t-5.5 1
t-2 3v1q1 0 2 1.5l1 1.5q2 0 4.5 -0.5t6 -0.5t6.5 -0.5t4 -0.5h2q2 0 3.5 2.5t3.5 6t3 6.5t1 4v0q0 1 -1.5 3t-2.5 2t-3.5 0.5t-5.5 0.5h-5.5t-3.5 1l-1 0.5t-2 0.5v0v1v0v1l0.5 0.5t1.5 0.5q4 1 8.5 1.5t9.5 0.5t9.5 -0.5t7.5 -0.5q1 0 4 0.5l6 1t6 0.5h4q3 1 5 4t2 6v32
q2 3 2 5v5v9.5t-0.5 11.5t-2.5 10.5t-6 6.5l-5 -4v-2.5t-0.5 -6t-0.5 -7v-5.5v-53q-1 -2 -2 -2h-2q-2 0 -3 2t-1.5 4t-1.5 4t-4 2q-4 0 -5 -2t-1 -5v-5.5t-3 -2.5q-2 0 -2.5 2t-1 4.5t-0.5 4.5v3q0 5 0.5 9t0.5 10q-1 3 -3 4t-5 1h-1q-2 0 -3 -0.5l-2 -1t-1 -1.5v-27
q0 -1 -1 -1.5l-1 -0.5h-2.5h-2.5v57q0 2 -1.5 7l-3 10t-2 9.5t-0.5 7.5v3t3 1q2 0 3.5 -1.5t2.5 -4t1.5 -4.5t1 -3t0.5 -3.5t0.5 -5.5t0.5 -5.5v-3.5q2 -2 6 -1.5t6 0.5v38l0.5 1t1.5 1v0v0q2 0 3 -1.5t1.5 -3.5t0.5 -3.5v-2.5q0 -2 0.5 -5.5t0.5 -8.5q0 -4 -0.5 -8.5
t-0.5 -5.5q2 -3 3 -4t5 -1t6 3t3 7t1 8.5v7.5q0 1 -1 4t-3 6t-4 5.5t-3 3.5q-2 9 -2 15.5v14.5v15zM70 237l1.5 1t2.5 1q3 0 3.5 -1.5t1.5 -3.5q2 -12 2 -24q0 -13 -1 -24q2 -2 5 -3.5t6 -5.5q3 -5 3.5 -8.5t1.5 -6.5t3.5 -6t9.5 -8q2 -12 3.5 -24t1.5 -24v-5v-7t-0.5 -6
t-0.5 -5q-1 -4 -3 -8t-4 -7.5t-3.5 -7t-1.5 -7.5q0 -7 2 -14t2 -13q0 -3 -0.5 -3.5t-2.5 -0.5h-2t-2 2q-3 6 -4 14.5t-1 15.5q0 3 1 6t3 6t3.5 5.5t1.5 4.5q4 9 4.5 20t0.5 20q0 2 -0.5 8t-1.5 12t-2.5 11t-3.5 5h-1l-0.5 -1t-0.5 -2v-55v-2q0 -2 -0.5 -4.5t-1.5 -4t-3 -1.5
q-1 0 -1.5 0.5l-1.5 1.5v10q0 11 1 22t1 22v9q0 6 -1 12.5t-2.5 11.5t-5.5 5q-2 0 -2.5 -2.5t-0.5 -3.5v-24q0 -15 0.5 -29.5t0.5 -30.5q0 -2 -1 -3.5t-3 -1.5h-1.5h-0.5l-1 7v58q0 3 -0.5 6t-4.5 3q-2 0 -4 -1.5t-2.5 -4.5l-1 -6t-0.5 -4q-1 -1 -1 -4.5v-7.5v-7v-5v-7.5
v-9.5t0.5 -10t1.5 -8q0 -1 2 -3.5t4 -4.5t3.5 -4t2.5 -3q2 -3 4.5 -5t2.5 -6v-7q0 -6 -0.5 -11t-3 -9t-6.5 -4q-3 0 -3 4v1v1q0 1 0.5 3.5t1.5 5.5t1.5 5.5t0.5 3.5q-1 5 -3.5 9t-5.5 7.5t-5.5 7.5t-4.5 9q-1 6 -1 12v11.5t-0.5 11t-0.5 11.5v10q0 5 1 10.5t3.5 9.5t7.5 7
q2 0 3.5 0.5t2.5 1t1.5 1t1.5 3.5v10q0 11 -0.5 21.5t-0.5 22.5v4v6v6v4zM138 137q0 -2 2.5 -2.5t3.5 -0.5h2.5t3 0.5t2.5 1.5t1 2q0 6 -1.5 10t-7.5 4h-2t-2 -1zM159 143q0 -4 1 -6.5t6 -2.5h2q3 0 3 2v12q0 2 -3 2.5t-4 0.5q-3 0 -4 -2.5t-1 -5.5zM161 117q0 -3 1.5 -3
h3.5q3 0 5 1t2 4q0 4 -3 6t-6 2q-1 0 -2 -1t-1 -3v-4v-2z" />
</svg>
