<?xml version="1.0" standalone="no"?>
<!DOCTYPE svg PUBLIC "-//W3C//DTD SVG 1.1//EN" "http://www.w3.org/Graphics/SVG/1.1/DTD/svg11.dtd" >
<svg xmlns="http://www.w3.org/2000/svg" xmlns:xlink="http://www.w3.org/1999/xlink" version="1.1" viewBox="-10 0 266 256">
   <path fill="currentColor"
d="M151 201q1 8 2.5 14.5t4.5 12t8 10t13 8.5q3 2 5.5 3.5t6.5 1.5q3 0 5 -1.5t2 -4.5l-0.5 -0.5t-0.5 -1.5q-2 -1 -6.5 -2.5t-10 -3.5t-9 -4.5t-3.5 -5.5v-1l1 -1.5l2 -3t2 -2.5t1 -2l1 -1.5t1.5 -3.5t1 -3.5t1.5 -1.5q0 -1 0.5 -1.5l0.5 -0.5l3 -1t3 -2q10 -5 14 -13.5
t4 -19.5q0 -4 -0.5 -8.5l-1 -9t-2 -8.5t-3.5 -7q-1 -3 -4 -4.5t-5.5 -3t-5 -3.5t-2.5 -5v-2.5v-3.5v-4.5v-2.5t-1.5 -2l-1.5 -1h-1h-1q-1 0 -1.5 1.5t-1 3.5t-0.5 3v2q0 1 0.5 3t1 4.5l1 5l0.5 2.5q2 2 3.5 3t3.5 1.5t3.5 1.5t2.5 2q4 7 6 12t2 13v1v1q0 1 -0.5 4t-0.5 6
t-0.5 6t-0.5 4q-2 5 -5 8t-8 3q0 -1 0.5 -6t0.5 -10v-10v-6v-3t-0.5 -4t-1.5 -3.5t-3 -1.5h-2t-1 1v4.5v4.5q0 6 1 11t1 10t-0.5 10t-2 10t-4 9.5t-6.5 7.5q-3 -2 -3.5 -6t-1.5 -8v-2.5t-0.5 -5t-0.5 -4.5v-3q0 -2 -0.5 -8t-0.5 -12v-13v-8h-0.5h-0.5l-1 0.5t-2 1.5
q0 9 -1 20.5t0 21.5q-1 0 -1.5 1l-0.5 1h-0.5h-0.5q-4 0 -7 -3.5t-4 -8t-1.5 -9t-0.5 -6.5v-5.5v-5t1 -5t2 -4.5q0 -1 2 -2.5t3.5 -3.5t3.5 -4l2 -2q1 -2 1 -4t0.5 -4.5t0.5 -5.5v-3v-9q0 -2 -1 -2.5t-3 -0.5v0h-1q-1 2 -1.5 5t-0.5 7v6v4q-1 4 -3.5 6t-5 4.5t-4.5 5t-2 6.5
v31q0 4 2 7.5t5.5 5.5t7 3.5t7.5 2.5zM88 229q1 2 1.5 2h1.5q2 0 3 -0.5t2 -2.5v-16q0 -16 -1 -32.5t-1 -32.5v-2v-4v-3v-2q0 -1 1 -1.5l1 -0.5q2 -1 5.5 -1.5l7 -1t6.5 -0.5h4t1 -1v-1q0 -2 -3 -2.5t-4 -0.5q-15 0 -29 1t-29 1q-1 0 -2 0.5t-1.5 2t-0.5 2.5v2h32q1 0 1 1
t1 1.5t1.5 1.5l0.5 1v2v5v4v3v6t0.5 11t0.5 11v7v8v12v12.5v7.5zM54 226q0 1 0.5 2.5t1.5 1.5q3 0 5 -2t3.5 -5t2.5 -6t1 -4q0 -2 1 -6.5t1.5 -9t1 -8.5t1.5 -5v-3v-5v-6v-5v-4v-5.5v-5.5v-4q-1 -2 -2 -3t-3 -1q-1 0 -2 0.5l-1 0.5q0 8 0.5 15.5t0 14.5t-1.5 14t-2 15
q-1 3 -2.5 6t-2.5 6l-2 6t-1 6zM110 199q1 2 1 6t0.5 8t2 7t3.5 3h1l0.5 -0.5l0.5 -0.5q1 -1 1 -3v-4q0 -5 -1.5 -9.5t-2.5 -9.5q-1 -7 -2 -13.5t-1 -12.5v-12v-14q-1 -1 -2 -1.5t-3 -0.5q-1 2 -1 4.5v5.5q0 11 1 24t2 23zM200 119l1.5 1.5t2.5 0.5t3 -2.5t1 -4.5
q0 -6 -3 -11.5t-6.5 -10.5t-6.5 -9t-3 -6v-1q2 -2 3.5 -3t2 -1.5t1 -1.5t1.5 -4q0 -1 0.5 -4.5t0.5 -6.5t0.5 -6t0.5 -4v-1v-1l-1.5 -2t-1.5 -3l-0.5 -0.5t-1.5 -0.5q-14 -5 -29 -5.5t-30 -0.5q0 2 1 3.5t4 2.5l35 3q9 1 11 6t2 10v5q0 2 -0.5 4t-1.5 3.5t-4 1.5q-2 0 -4 -1
l-4 -2l-4 -2l-4 -2q-7 -3 -13 -5t-13 -2h-7q-1 1 -1 2v2q0 2 5.5 3.5t13 3t14 4t9.5 5.5q-2 4 -9.5 5.5t-15 2.5t-13.5 2t-6 4q0 1 0.5 2t1.5 1t4 -0.5t6.5 -1t6.5 -1t5 -0.5q3 -1 6.5 -2t6.5 -2.5t6.5 -2.5t6.5 -1l1.5 0.5l1.5 0.5q7 8 11.5 16.5t5.5 19.5zM57 110v0.5v0.5
q0 1 0.5 1.5l0.5 0.5h7q11 0 22 -1.5t21 -1.5l3 -2q1 -2 -0.5 -2.5l-3 -1t-3 -0.5h-2.5q-10 0 -21 0.5t-21 2.5l-1.5 1t-1.5 2v0v0zM54 71q0 7 2.5 11t6.5 6.5t9.5 3t11.5 0.5q9 0 15 -2.5t14 -5.5q0 -1 0.5 -2.5t1 -3.5t1 -3.5t0.5 -2.5v-1v-2q0 -2 -1 -4t-4 -2h-1.5h-1.5
q0 3 -1 7t-2.5 7.5t-4 6t-7.5 2.5q-1 0 -2 -0.5t-1 -1.5v-29q0 -2 4 -2.5t8.5 -3t8.5 -7t4 -13.5q0 -3 -1 -3.5t-4 -0.5h-2h-1q0 1 -0.5 5t-1.5 5q0 1 -0.5 3t-1.5 3.5t-1.5 2.5l-0.5 1h-10l-1 -4v-3v-3v-6v-4q0 -1 0.5 -3.5l0.5 -2.5q0 -3 -1.5 -5.5t-4.5 -2.5
q-2 0 -3.5 1.5t-1.5 3.5q0 5 1 9.5t1 9.5v8q-1 2 -2 2.5t-3 0.5q-5 0 -7 -2t-3 -5t-1.5 -6t-0.5 -7q-1 0 -3.5 -1t-3.5 -2v0q-2 0 -2.5 1.5t-0.5 3.5q0 9 1.5 13.5t4 6.5t5.5 2t6 0.5t5 1t3 3.5q2 4 2 10.5v10.5v7q-1 1 -2.5 1.5t-2.5 0.5q-7 0 -9 -3t-3 -6.5t-2 -6.5t-6 -3
q-3 0 -3 1.5v3.5z" />
</svg>
