<?xml version="1.0" standalone="no"?>
<!DOCTYPE svg PUBLIC "-//W3C//DTD SVG 1.1//EN" "http://www.w3.org/Graphics/SVG/1.1/DTD/svg11.dtd" >
<svg xmlns="http://www.w3.org/2000/svg" xmlns:xlink="http://www.w3.org/1999/xlink" version="1.1" viewBox="-10 0 266 256">
   <path fill="currentColor"
d="M105 207q3 0 5.5 3.5t5 7.5t5.5 8t6 7l1.5 0.5t2.5 1.5t2.5 2l1.5 1l4 4l4 4t4.5 3.5t5.5 1.5q2 0 3.5 -1.5t1.5 -3.5q0 -3 -4.5 -5.5t-10 -5.5t-10 -6.5t-4.5 -7.5q0 -3 1 -5t4 -4q5 -1 11.5 -1.5t11.5 -2.5t8.5 -6t3.5 -11q0 -6 -3.5 -8.5t-8.5 -4.5t-9 -4t-4 -8
q0 -2 2 -4t4 -4.5t4 -6t2 -8.5q0 -4 -1.5 -8t-4 -6.5t-6 -4.5t-7.5 -2q-6 0 -14 -0.5t-16 1.5t-13.5 6.5t-5.5 13.5q0 8 3 13t9 10q0 6 -5 8t-10 3.5t-9.5 5t-4.5 11.5t6 11.5t13 3.5q4 0 7.5 -1t7.5 -1zM174 122q2 15 3.5 29.5t2 28.5t1 28.5t1.5 29.5q0 4 0.5 5t2.5 1
q3 0 4 -2t1 -5q0 -22 -1 -45t-3 -45q0 -3 -0.5 -8.5t-2 -11.5t-3.5 -10.5t-6 -4.5l-40 -4q-1 0 -2.5 -1.5l-2.5 -2.5v-2q0 -1 0.5 -1.5l1.5 -1.5q7 1 13.5 0.5t12 -3t8.5 -7t3 -12.5l1 -2l25 -2l0.5 -1.5t1.5 -1.5v-1v-0.5v-0.5l-0.5 -1t-1.5 -2h-7q-7 0 -12.5 1.5
t-11.5 1.5h-3q-1 0 -1.5 -1.5t-0.5 -2.5l0.5 -3t1.5 -4l0.5 -0.5l0.5 -0.5q12 0 16.5 -7t4.5 -18v-3.5v-2.5q0 -1 -1.5 -1.5t-2.5 -0.5q-4 0 -5 4t-1 8t-0.5 8t-3.5 4h-4h-4v-29q0 -3 -1 -4.5t-3 -1.5t-3.5 1t-1.5 3t1 3.5t1 2.5v1v0q0 1 -0.5 3.5l-0.5 2.5q0 1 -0.5 3.5
t-0.5 5.5q0 2 0.5 4.5t0.5 3.5q-1 2 -3 2.5t-4 0.5q-3 0 -5 -2t-2.5 -5.5t-0.5 -6.5t1 -6q-1 -1 -1.5 -1h-1.5q-2 0 -3 1t-1 3q0 8 1.5 12.5t3.5 7t5 3t5 1l4 1t2 1.5v10l-2 2h-3h-4h-8t-4.5 -1.5t-2.5 -4.5t-1 -8q-1 -1 -2 -1.5l-1 -0.5q-2 0 -3 2t-1.5 4.5t0 5l0.5 2.5
l-2 2t-2 1h-19l-0.5 -2.5t-0.5 -3.5q1 -1 1.5 -5t0.5 -6q2 0 4.5 -0.5t5.5 -1.5t4.5 -3.5t1.5 -5.5v-17q-4 0 -5 2.5t-1.5 6t-1 7.5t-4.5 5l-1 -0.5t-2 -0.5q-2 -2 -2 -4.5t-1 -5.5v-17q1 -2 -0.5 -2.5t-2.5 -0.5q-2 0 -3 0.5t-2 2.5v3.5v3.5q0 4 1 7.5t1 7.5q0 3 -1.5 4.5
t-4.5 1.5q-5 0 -8 -4q0 -1 -0.5 -2.5t-1 -3.5l-1 -4l-0.5 -2q0 -1 -1 -3t-3 -2v0l-2 2l-1 1v7v7q1 6 4.5 8.5t7.5 3.5t7.5 1t3.5 1v13h-30v9q6 0 11.5 -1t10.5 -1q3 0 4.5 2t2 4.5t0.5 5.5v5l3 2q0 1 5 2t7 1h3.5h4.5h5.5h3.5l0.5 0.5t0.5 1.5l0.5 1.5t1 2.5t1 2.5l0.5 1.5
q1 2 4.5 3.5t8.5 2t10.5 0.5t10.5 0.5t9.5 2t6.5 4.5zM113 183q-1 -1 -1.5 -1h-1.5h-1.5t-1.5 1v3t-0.5 4t-0.5 3.5v2.5q-1 2 -2.5 3t-3 1.5t-4 0.5h-3.5q-6 0 -9 -2.5t-3 -7.5q0 -4 2.5 -6t5.5 -3t7 -2t6.5 -2.5t4 -4t-0.5 -7.5q3 -2 6.5 -2.5t7.5 -1t8 0t7 -0.5h1l1 2.5
t2.5 5t3 5.5t3.5 4q1 1 4 2t5.5 2.5t5 4t2.5 4.5q0 3 -2.5 6.5t-4.5 3.5h-15l-2 -2v-5t-0.5 -6.5t-1.5 -6t-3 -4.5h-1q-2 0 -2 1.5v2.5q0 3 1.5 6t1.5 6q0 6 -3 11.5t-7 8.5h-0.5h-0.5q-2 0 -3.5 -2t-2.5 -4.5t-2 -5.5t-1 -5v-2t-0.5 -4.5t-0.5 -4.5v-3zM99 151v-1v-2
q3 0 7 -0.5t7.5 -0.5h7h6.5h3h6h6h4q1 1 1 1.5v1.5q0 3 -2.5 4.5t-5.5 2.5h-6t-8.5 0.5t-8.5 0.5h-6h-4q-3 0 -5 -1.5t-2 -5.5zM96 138q3 -4 8 -6t10.5 -2.5t10.5 -0.5h10h3q1 0 2.5 0.5t3 1.5t2.5 1.5l1 0.5v8h-47l-1.5 -1t-2.5 -2zM93 81q0 -2 1.5 -3t3.5 -1h20l2 1v2.5
t0.5 5.5t0.5 5v1v1h-7.5t-9 -1t-8 -3.5t-3.5 -7.5zM128 78l1 -1l2.5 -0.5t5.5 -0.5t6.5 -0.5t5.5 -0.5h5h4q2 1 2 2v2q0 4 -2.5 6.5t-6 4t-7.5 2t-8 0.5h-2t-2.5 -0.5t-2.5 -1.5t-1 -2v-10z" />
</svg>
