<?xml version="1.0" standalone="no"?>
<!DOCTYPE svg PUBLIC "-//W3C//DTD SVG 1.1//EN" "http://www.w3.org/Graphics/SVG/1.1/DTD/svg11.dtd" >
<svg xmlns="http://www.w3.org/2000/svg" xmlns:xlink="http://www.w3.org/1999/xlink" version="1.1" viewBox="-10 0 266 256">
   <path fill="currentColor"
d="M116 242q0 3 1 5.5t4 2.5l0.5 -0.5t0.5 -1.5q1 0 2 -2l1 -2q2 -17 2.5 -33t2.5 -32q1 -3 3 -4t4.5 -1.5t4.5 -1.5t4 -4t3 -7.5t1 -13.5v-3q0 -3 -0.5 -4.5t-1.5 -3t-4 -1.5v0q-1 1 -1.5 2t-0.5 3v3.5v2.5q-1 1 -3 1.5t-4 0.5l-1.5 -0.5t-2.5 -0.5q0 -1 -2 -4.5t-2 -4.5
v-1q0 -2 4 -6t9 -8t9.5 -7.5t6.5 -3.5l4.5 2.5t10 6t9.5 7t4 5.5q0 1 -0.5 3.5l-1 5t-2 5t-2.5 2.5q-3 0 -4.5 -1t-2.5 -3.5t-1.5 -4.5t-0.5 -4h-5v32q0 3 1.5 5t4.5 3.5t6 2t5 0.5v66q0 5 3 5q1 0 3 -1t2 -2v-65q0 -1 2.5 -1t5 -0.5t5.5 -1.5t4 -3v-2.5v-1.5h-14
q-2 0 -2.5 -1t-0.5 -2.5v-2.5v-2v-4t1 -3h3.5h4.5h5.5h3.5q3 0 4 -1t1 -3q0 -3 -1 -3.5t-4 -0.5h-3h-5h-4h-3q-3 -2 -2 -5.5t1 -6.5q1 0 3 0.5t3.5 0.5t2.5 -0.5t1 -2.5q0 -3 -3 -5.5t-7.5 -5.5t-9.5 -5.5t-9.5 -5t-7.5 -4.5t-3 -3v-33q0 -1 1 -1h1q5 0 9 3t8 7t7.5 7t8.5 3
q4 0 4 -3t-5 -7t-11.5 -8t-12.5 -8t-9 -7v-7q0 -8 1 -17t1 -17q0 -3 -1.5 -5t-4.5 -2q-1 0 -2 0.5t-1 1.5t-0.5 4l-0.5 3q0 2 0.5 4.5l0.5 2.5v2t0.5 3t0.5 3v2v5t-0.5 6.5t-1 6.5t-1.5 6q-1 0 -2.5 1t-3.5 2.5t-3.5 2.5t-2.5 1q-3 2 -7 4.5t-7.5 6l-6.5 6.5t-3 7
q6 0 10.5 -3.5t9 -8t9 -8t8.5 -3.5q0 9 -0.5 16.5t-0.5 17.5q-1 5 -8.5 10.5t-15 10t-13.5 8.5t-6 7v0q1 2 2.5 2.5t3 0.5h3.5h2q1 2 1 3v3t-3 3t-6.5 1.5t-7 1.5t-3.5 2q0 2 2.5 3t3.5 1q3 0 5.5 -1.5t5.5 -1.5h2q1 3 1 5v4q0 4 -1.5 6t-5 2.5t-6.5 0.5h-6t-5 0.5t-2 3.5
q0 2 1 2.5t3 0.5q4 0 8 -1t7 -1t4.5 0.5t1.5 3.5q0 15 -2.5 29.5t-2.5 28.5zM62 239v2.5t3 2.5q1 0 2 -0.5t1 -1.5q2 -1 3 -3t1 -4t-0.5 -4.5t-0.5 -4.5l0.5 -4t0.5 -7.5t0.5 -7.5l0.5 -4v-6v-8v-9v-6t1.5 -4t3.5 -3.5t3.5 -3t2.5 -3.5l0.5 -1.5l1 -3l1 -3t0.5 -2.5
q2 -3 4.5 -5t4.5 -4t4 -4.5t2 -6.5q0 -1 1 -6t1.5 -10.5t1 -10.5t1.5 -8v-1q0 -3 -0.5 -8.5l-1 -11t-1.5 -10.5t-2 -8q-1 -4 -2.5 -5.5l-3 -3t-2.5 -4.5t-1 -9q0 -4 1 -8t1 -8q-5 0 -7.5 1.5t-2.5 6.5q0 8 2 17t6 16l1.5 2t1.5 3q3 9 3 19v19v7t-0.5 6t-1 6.5t-1.5 8.5
l-0.5 0.5t-1.5 0.5v0q-2 0 -3 -2.5t-1 -3.5v-49q0 -1 -1.5 -1h-1.5h-2t-1 1v55q0 1 -0.5 5t-2 8.5t-3 7.5t-3.5 3v0h-1l-0.5 -0.5l-0.5 -0.5v-60q0 -1 0.5 -5t0.5 -5v-2q0 -2 -1 -4t-3 -3l-4 3v64h-5l-1 -1.5t-1.5 -3.5t-1.5 -4.5t-1 -4.5q0 -1 -1 -4.5t-1 -4.5v-18v-17
q0 -8 4 -16q2 -6 5.5 -10t5.5 -8t3.5 -8.5t1.5 -13.5v-8q-1 -2 -2 -2h-3h-2.5t-1.5 2v20q0 3 -2 6.5t-5 7l-6 7t-4 6.5t-1 7t-0.5 8t0 7.5t0.5 6.5v19q0 8 1 18q1 4 4 7.5t6 6.5t6 5.5t3 5.5q0 20 -2.5 40t-2.5 41zM170 163v-4t2 -4h4q4 0 5.5 0.5t1.5 5.5q0 3 -0.5 5
t-1.5 5h-2q-3 0 -6 -2.5t-3 -5.5zM130 164q0 -5 1 -7.5t6 -2.5h4l0.5 1t0.5 2q0 4 -1.5 7.5t-6.5 3.5q-2 0 -3 -0.5t-1 -3.5zM170 95l5 5t7 6t7.5 4.5t6.5 1.5v0q1 0 2 -1t1 -2h0.5t0.5 -1h-1q0 -1 -1 -2t-2 -1q-1 -1 -4 -2.5t-6 -3.5t-6 -3.5t-4 -1.5l-1 -0.5l-1 -0.5
q-1 0 -2.5 0.5t-1.5 1.5zM139 92q-2 2 -4.5 4t-5.5 4.5t-5 5t-2 5.5q3 0 6.5 -1t6.5 -3.5t5 -5.5t2 -7q0 -1 -1 -2h-1h-1zM121 64v1.5t1 1.5l1.5 -0.5t1.5 -1.5q10 -6 14 -14t4 -20q0 -2 -1 -4.5t-4 -2.5v0q-1 0 -2 1.5t-2 1.5q2 12 -1 20t-12 15v2zM176 34q0 12 4.5 19
t14.5 14v0q3 0 4.5 -1.5t1.5 -4.5t-2.5 -5t-5.5 -3t-6 -3t-3 -5v-4t-0.5 -6t-1 -5.5t-0.5 -3.5h-1h-1q-4 0 -4 3v5z" />
</svg>
