<?xml version="1.0" standalone="no"?>
<!DOCTYPE svg PUBLIC "-//W3C//DTD SVG 1.1//EN" "http://www.w3.org/Graphics/SVG/1.1/DTD/svg11.dtd" >
<svg xmlns="http://www.w3.org/2000/svg" xmlns:xlink="http://www.w3.org/1999/xlink" version="1.1" viewBox="-10 0 266 256">
   <path fill="currentColor"
d="M143 246q0 5 4 5q3 0 5 -2t2 -4v-12.5v-13.5t0.5 -14t1.5 -13q2 -3 5.5 -3h6.5h3h2l3 3q1 15 3.5 28.5t3.5 28.5q0 1 1 1.5t3 0.5t4.5 -1.5t2.5 -4.5v-1v-1q0 -1 -0.5 -3t-1.5 -4t-1.5 -4l-0.5 -2q0 -1 -0.5 -5t-1 -9.5t-1.5 -11.5t-1 -9v-1q0 -3 3 -6.5t5 -6.5
q2 -5 2.5 -10t0.5 -10v-17.5t-2.5 -13t-8.5 -8.5t-17 -3q-12 0 -19 1.5t-10.5 6t-4.5 12t-1 20.5v3.5t0.5 5.5t0.5 5.5t1 4.5q0 2 1.5 3.5t3.5 3t3.5 3.5t1.5 4q0 3 -0.5 10.5t-0.5 16t-0.5 16t-1.5 10.5v1zM71 248q1 1 2 1h2q2 0 4.5 -1t2.5 -3v-54q0 -1 2 -3t3.5 -4
t3.5 -3.5t2 -2.5q2 -2 2.5 -4.5t1 -5.5t0.5 -6t1 -5l3 -3t4.5 -4t4 -4t2.5 -3q2 -2 2.5 -6t0.5 -5v-5v-7v-7v-5v-21t-1 -20q-3 -4 -6 -7.5t-5 -6.5t-3.5 -7t-1.5 -9q0 -4 1 -6.5t1 -6.5q0 -3 -0.5 -5t-3.5 -2q-2 0 -4 1.5t-2 3.5v24q0 4 2.5 7t5 5.5l5 5t3.5 6.5
q1 11 1.5 23t0.5 23v17q-1 3 -3 6.5t-5 3.5q-1 0 -2 -2t-1 -3q0 -17 -1.5 -33t-1.5 -32h-2.5t-2.5 2v6q0 15 0.5 29t0.5 29v4v7.5v7.5v4q0 3 -1 7t-6 4h-0.5h-0.5l-0.5 -1.5l-0.5 -1.5v-6v-8t-0.5 -8t-1.5 -7v-44q2 -4 2 -7v-7v-2t-0.5 -4l-1 -4t-2.5 -2t-4 1.5t-2 3.5v72
l-1 1q-1 1 -3 -0.5t-4 -2.5q-3 -5 -4.5 -11.5t-2 -13t0 -13.5t0.5 -13v-4v-6v-6v-4q2 -7 6.5 -10t9.5 -8l6 -6v-29q0 -2 -2.5 -4t-4.5 -2t-3 3t-1 5q0 4 1 7.5t1 7.5q0 5 -1.5 8.5t-4 6t-5.5 5t-5.5 6t-4 9t-1.5 13.5v7q0 2 0.5 8.5t1 14t1 14t0.5 9.5q2 7 5.5 10.5t7.5 6.5
t6.5 7.5t2.5 12.5q0 11 -1 21.5t-1 22.5v27zM143 173q0 -1 1 -2l1 -1q8 -2 16.5 -2.5t16.5 -0.5h2.5t3 1t2.5 2t1 2q0 2 -2 4.5t-4 2.5q-1 1 -4.5 1.5t-7 0.5t-7 0.5t-5.5 1.5v0q-4 0 -9 -2.5t-5 -7.5zM143 154v-3q0 -3 2 -3q6 -1 9.5 -1t7.5 -0.5t7.5 -0.5h7.5h7l3 3t2 3
t-1 2.5t-2 2.5l-2 2l-1 1h-38l-1 -0.5l-1 -0.5v-2v-3zM167 127h3t4.5 0.5t5 0.5t3.5 1q1 0 2 2t1 3q0 2 -2 3t-3 1q-8 1 -18.5 1.5t-18.5 0.5q0 -4 2 -7t5.5 -4t7.5 -1.5t8 -0.5zM157 86q0 3 -1 4t-2.5 2l-3 2l-4.5 3l-4.5 4.5t-7.5 8t-7.5 8t-3.5 4.5h5q2 0 5 -1.5t5.5 -4
t4.5 -5t3 -3.5t3 -2.5t4.5 -3.5t4.5 -3.5t3 -1.5h1q4 0 10 3.5t12 8.5t11.5 8.5t8.5 3.5q2 0 3.5 -0.5t1.5 -2.5t-0.5 -4.5t-2.5 -4.5q-9 -4 -19 -7.5t-18 -9.5l-2.5 -2.5t-1.5 -2.5v-32q1 0 2 -1.5t2 -2.5l-1 -2t-1 -3v-5v-5l1 -2l1 -2q0 -1 -1 -3l-1 -2v-1.5t0.5 -2.5
l1 -2t0.5 -2v-2q0 -4 -1.5 -4.5t-4.5 -0.5q-1 0 -4 0.5t-3 3.5v38q2 4 2 9.5v9.5v3v3q0 3 -0.5 4.5t-0.5 2.5zM126 81q3 6 6.5 8.5t10.5 2.5v0v0q1 0 3.5 -1.5t3.5 -1.5v-1q0 -2 -2 -2.5t-4.5 -1t-5.5 -0.5t-4 -1v-4q0 -5 2 -6t5 -1.5t5 -1t2 -2.5q0 -3 -2.5 -3.5t-5.5 -0.5
t-5.5 -1t-2.5 -5q0 -2 0.5 -3t3.5 -3l2 0.5t4 0.5t3.5 -0.5t2.5 -0.5q2 0 3.5 -1t1.5 -4l-0.5 -1t-1.5 -1h-17q-1 0 -1.5 -2t-1 -5t-1.5 -5.5t-4 -2.5t-4 3t-1 5q0 1 1 3.5l1 2.5q0 2 0.5 7.5t1 11.5t1 11t0.5 7zM173 86q0 1 0.5 1.5l1.5 1.5h2.5h3.5q5 0 9.5 -1.5t7.5 -6.5
q2 -9 2 -16.5v-17.5v-17q-1 -2 -3 -1.5t-3 0.5h-4q0 6 -1.5 9.5t-3.5 5.5t-4.5 2t-4.5 0.5t-3.5 1.5t-1.5 4h18q1 0 1.5 2.5t0.5 3.5q0 3 -2.5 4t-5 1.5l-5 1t-3.5 2.5q0 2 2 3t4.5 1.5t4.5 0.5h3v4v1.5t-0.5 3t-1.5 1.5h-12q-1 0 -1.5 1.5t-0.5 2.5z" />
</svg>
