<?xml version="1.0" standalone="no"?>
<!DOCTYPE svg PUBLIC "-//W3C//DTD SVG 1.1//EN" "http://www.w3.org/Graphics/SVG/1.1/DTD/svg11.dtd" >
<svg xmlns="http://www.w3.org/2000/svg" xmlns:xlink="http://www.w3.org/1999/xlink" version="1.1" viewBox="-10 0 266 256">
   <path fill="currentColor"
d="M116 214q3 2 4 4t1.5 4l1 4t2.5 4q4 6 8.5 10.5l8.5 8.5q2 1 2.5 1.5t2.5 0.5t3 -1t1 -3q0 -3 -2 -5.5t-4.5 -4t-4.5 -4t-2 -6.5t2 -6.5t5.5 -4t7.5 -2t7.5 -1.5t5.5 -3.5t2 -6.5q0 -6 -2.5 -10t-6 -6.5t-6 -5t-2.5 -4.5q0 -4 2 -6t5.5 -3.5t7 -2t6.5 -0.5h1t1 1
q2 9 3 17l2 16t1.5 16.5t1.5 17.5q-1 3 0.5 3h2.5q3 0 3.5 -0.5t0.5 -3.5q0 -14 -1 -28.5t-3 -28.5q-1 -4 -2 -7.5t-1 -7.5q0 -3 2 -5.5t2 -5.5q0 -7 -2.5 -12t-7 -8t-10 -4.5t-12.5 -1.5h-2h-2.5t-3 1t-1.5 2t1 2.5t2 1.5q4 0 9 0.5t9.5 2t7.5 4.5t3 9q0 1 -1 1.5t-2 0.5
h-3q0 -1 -2.5 -2l-2.5 -1q-3 -1 -6 -1.5t-6 -0.5h-6.5h-5.5l0.5 2.5t1.5 2.5h17q3 0 4.5 3t1.5 6q0 5 -6 5h-19l-0.5 0.5l-0.5 0.5v1v1l0.5 2l0.5 2q0 1 0.5 3t0.5 4t0.5 4l0.5 2q1 2 4 4t5.5 3.5t4.5 4t2 5.5t-0.5 4.5t-2 2.5t-3.5 2l-4 2h-1h-1q-2 -1 -2.5 -3.5l-1 -5
t-0.5 -4.5v-3l-3 -3q-4 1 -4 6q0 4 0.5 8.5t-0.5 8t-6 3.5q-4 0 -5 -4t-1 -9t-1 -9t-5 -4q-1 0 -2 0.5t-1 2.5v3v4t0.5 4t0.5 3h-7t-5 -0.5t-3.5 -2.5t-1.5 -7v-4t2 -4q2 -1 5.5 -2t6.5 -2t5.5 -3t2.5 -5t-0.5 -5.5t-0.5 -5.5v-1l0.5 -1t0.5 -2v0v-1v0l-0.5 -0.5l-0.5 -0.5
h-25q-1 0 -1.5 -0.5t-0.5 -1.5v-1v0v0q4 -4 8.5 -6t9 -3.5t7.5 -3t3 -4.5h-3h-4t-4.5 0.5l-2.5 0.5q-3 0 -5 1t-4.5 2.5t-4.5 2.5t-5 1v0q-1 0 -1.5 -2l-0.5 -2q0 -5 3 -8.5t7.5 -6t9.5 -3.5t9 -3v-1q0 -3 -1.5 -3h-3.5q-5 0 -10.5 2t-10.5 5.5t-8.5 8t-3.5 9.5q0 4 1.5 7
t1.5 7q0 2 -0.5 5.5l-1 7t-1.5 6.5t-2 4q-1 13 -1.5 22.5t-0.5 20.5v8q0 3 2 7l0.5 0.5t1.5 0.5q2 0 4 -2.5t2 -5.5v-2.5t-1 -3.5v-19v-18v-6t1.5 -8t3 -7t4.5 -3t5.5 1t4.5 1h1v0q1 0 3 -1t3 -1q3 0 4.5 2.5t1.5 5.5q0 4 -3 5.5t-7 3t-7.5 5t-3.5 11.5q0 11 5 14t17 1z
M61 116q0 2 0.5 5.5t3.5 3.5t5 -4q1 -14 2 -27.5t2 -27.5v-5v-6t0.5 -6t2.5 -5t6 -4t8.5 -3t8.5 -1.5t8 -1.5q1 0 4 -0.5t6.5 -1t6.5 -1t4 -0.5h4h8h12q5 0 10.5 0.5t7.5 2.5q1 1 2.5 2t2.5 2.5t2 2l1 0.5l8 80l1.5 3t1.5 1q3 0 5 -4v-2.5v-2.5q0 -10 -1 -19.5t-2.5 -19
t-2.5 -19.5t0 -20q-1 -4 -3.5 -7.5t-8.5 -3.5l-43 -3v-12h-2.5h-3.5q-1 1 -2.5 1t-1.5 1v11q0 2 -3.5 2.5t-9.5 0.5t-13 1t-13.5 3t-11 6t-6.5 11q0 3 -0.5 10.5t-1.5 16.5t-1.5 17t-1.5 11v1t-0.5 2.5t-0.5 2.5v1v5zM77 107l0.5 1t0.5 2h3h3q10 0 19 -1t20 -2l0.5 -1
l0.5 -1q0 -1 -0.5 -2.5t-1.5 -1.5h-15q0 -1 -0.5 -3t-0.5 -3q1 -2 3 -2.5l4 -1t3.5 -1.5t1.5 -4h-9q-2 0 -6.5 0.5t-9 0.5t-9 0.5t-6.5 0.5v2q0 1 0.5 2.5t1.5 1.5h17q1 0 1 1t1 2v0q0 5 -3.5 6t-7.5 1h-7.5t-3.5 3zM134 106q0 2 2 2q10 0 20 -1t20 -1v-5h-4t-4.5 -0.5
t-4.5 -1.5t-3 -2q1 -3 3 -4t4.5 -2t4 -2t1.5 -3t-3 -2h-2h-2.5t-5.5 0.5t-5.5 0.5h-3.5h-4h-6t-5.5 1t-2.5 3q0 1 0.5 2t1.5 1h15l1 1.5t2 1.5l-0.5 2t-1.5 3l-0.5 1l-0.5 1h-14l-1 1.5l-1 1.5v1zM78 73q0 1 0.5 2t1.5 1h7q5 0 9 -0.5l8 -1l8 -1t9 -0.5q1 0 2.5 -1t1.5 -3
v-2t-2 -1h-14q-1 0 -1.5 -2t-0.5 -3q0 -4 2.5 -5t5.5 -1.5t5.5 -1t2.5 -3.5l-0.5 -0.5l-0.5 -0.5h-5q-9 0 -18 1t-18 1q0 1 1 3t2 2h15v12q0 1 -3.5 1.5t-7 0.5t-7 1t-3.5 2zM135 69q0 3 1.5 3h3.5h5h6t8.5 -0.5l9 -1t5.5 -0.5t1.5 -1l0.5 -1q0 -1 -0.5 -2t-1.5 -1h-14
q-1 0 -1.5 -1t-0.5 -2v-2q0 -3 2.5 -4.5t5.5 -1.5t5.5 -0.5t2.5 -2.5t-2 -2h-3h-5h-5.5t-9 0.5t-8.5 0.5h-6v1v1t0.5 2.5t2.5 1.5h10q2 0 2 2v3v2v2q-1 0 -2 0.5l-1 0.5q-1 0 -2.5 0.5t-3.5 0.5t-3.5 0.5t-2.5 0.5v0v1z" />
</svg>
