<?xml version="1.0" standalone="no"?>
<!DOCTYPE svg PUBLIC "-//W3C//DTD SVG 1.1//EN" "http://www.w3.org/Graphics/SVG/1.1/DTD/svg11.dtd" >
<svg xmlns="http://www.w3.org/2000/svg" xmlns:xlink="http://www.w3.org/1999/xlink" version="1.1" viewBox="-10 0 266 256">
   <path fill="currentColor"
d="M89 199v48q0 2 1 2.5t2 0.5q4 0 5 -3.5t1 -6.5v-3q0 -2 -0.5 -7t-0.5 -11t-0.5 -11.5t-0.5 -7.5q1 -3 3 -4t5.5 -1.5t7.5 0t7 0.5t5.5 -1t2.5 -3q0 -1 -0.5 -2t-1.5 -2q-2 0 -7 1t-9.5 0.5t-7.5 -2.5t-3 -6q0 -5 3.5 -6.5t7.5 -2t8 -0.5t4 -4l-0.5 -1.5t-1.5 -1.5h-18
l-1 -0.5l-1 -0.5v-1v-1l0.5 -2t2 -4.5t2.5 -3.5h3h4.5t4.5 -0.5t3 -0.5t2.5 -1t1.5 -3v0q0 -2 -1 -2h-14q-1 0 -1 -2v-2q0 -2 2.5 -4.5l5.5 -5.5t6 -7.5t3 -12.5q0 -13 -7 -17.5t-20 -4.5h-1h-5.5t-7.5 0.5t-6.5 0.5h-3.5t-4 0.5t-6 1.5t-5.5 3t-2.5 5v21q0 1 0.5 2t1.5 2.5
t1.5 3t1.5 2.5q1 2 4.5 2.5l7 1t6 2t2.5 5.5q0 3 -3 4t-6.5 1.5t-7 0.5h-5.5v0.5v1.5l0.5 2t1.5 2h22q4 0 4.5 2t0.5 4q0 1 -0.5 4t-2.5 3h-24q-2 0 -3 1t-1.5 2.5l-1 3t-0.5 2.5q7 0 14 -1t14 -1q4 0 6 2.5t2 6.5v5q0 1 -0.5 2l-0.5 1h-38q-2 0 -2 2v2q0 2 0.5 3.5t2.5 2.5
h3h3q8 0 15.5 -0.5t15.5 -0.5zM130 166v11.5t1.5 6t4.5 5t7 6.5q3 2 4.5 5.5t3 7.5t3 7t1.5 5q1 2 1.5 5t1.5 4l3 3t4 4.5t4 4.5l3 3q1 0 4 2t4 2q3 0 4.5 -1.5t1.5 -3.5v-1v-2q-2 -2 -5 -4.5t-6 -6t-6 -6.5t-4 -6q-1 0 -1 -1v0h1q0 -2 1.5 -5t3.5 -5.5t3.5 -5t3.5 -3.5
q0 -1 1 -1t3 -0.5t3 -1t2 -0.5q0 -1 1 -1.5t2 -0.5q3 -2 4.5 -5.5t4.5 -5.5v-30l-1 -1.5t-2.5 -4t-2.5 -3.5q-3 -4 -6 -5t-5 -1.5t-3.5 -3t-1.5 -9.5v-5.5t2 -4.5h5q4 0 7 2t4.5 4.5t3.5 5t5 2.5q2 0 4 -1t2 -3q0 -3 -2 -5t-4 -4.5t-3.5 -4.5t-1.5 -5q0 -5 2.5 -9.5
t2.5 -10.5q0 -7 -3.5 -10.5t-8.5 -5t-11 -1.5h-11q-1 -1 -1.5 -2.5t-0.5 -3.5q0 -5 2.5 -7.5t6 -3.5t7.5 -0.5t7.5 0.5t5.5 -1t2 -4t-1 -3.5t-3 -0.5q-5 0 -10 1t-10 1q-1 0 -3.5 -0.5t-2.5 -2.5v-19l-1.5 -1.5l-1.5 -1.5h-1v0h-0.5h-0.5q-1 0 -2.5 1t-2.5 2q-1 12 -1.5 24
t0.5 24l-2 1q-4 0 -9 0.5t-10 1.5v2v1.5t1 1.5h14h14l2.5 -1l2.5 -1q5 0 9.5 0.5t7.5 2t4.5 4.5t1.5 8q0 3 -0.5 4.5t-2.5 1.5q-4 0 -7.5 -1t-7 -2.5t-7.5 -2.5t-9 -1h-11t-12 2q-1 0 -1.5 0.5t-0.5 1.5v0v1q1 2 3.5 2.5t4.5 0.5h1h2t2.5 -0.5t3 -0.5h1.5h3h5t10 1t9 2t4 4
v0q-11 5 -22 6t-22 1q-1 0 -2 1t-1 2v1q0 1 1 1.5t2.5 1t2.5 1.5t1 2v19q-4 4 -7.5 8t-5.5 9v10zM152 175q0 -1 1 -3.5l1 -2.5v-3v-4v-4v-3q-1 -2 -1.5 -2h-1.5q-3 0 -4 2t-1 4v24l-1 1.5t-2 1.5q-2 0 -3.5 -2.5t-2.5 -6.5t-1 -8v-5q0 -5 2.5 -9t5.5 -7.5t5.5 -6t2.5 -5.5
v-2v-2t-0.5 -4t-0.5 -3.5v-2.5v-1q0 -2 1.5 -3t4 -1.5t4.5 -0.5h4h2.5h1.5l1 3v19q0 2 3.5 3t7 4t6.5 8t3 13q0 4 -0.5 7.5t-2 7t-4 6t-6.5 2.5v-28q0 -2 -1.5 -3.5t-3.5 -1.5t-3 2t-1 5v1v2.5t0.5 2.5l0.5 1v4v6q0 8 -1 13.5t-5 12.5h-2q-2 0 -3.5 -4t-3 -9.5t-2 -10.5
t-0.5 -7zM87 139l0.5 -0.5t1.5 -0.5q1 -1 4.5 -1h4.5v4q0 2 -0.5 4.5t-1.5 4.5t-3 2t-3 -1.5t-1.5 -4t-1 -4.5t-0.5 -3zM67 118v-1l2 -1q12 -1 23 -1.5t23 -0.5q0 5 -2.5 8t-6.5 4.5t-8.5 2t-8.5 0.5q-2 0 -5.5 -0.5t-7 -1.5t-6.5 -3.5t-3 -5.5zM66 107l-2 -2v-1q0 -2 2 -3
t4.5 -2.5t4.5 -2t3 -0.5h30q2 0 3.5 1t2.5 3t1.5 4.5t0.5 3.5h-2q-2 0 -9 -0.5t-15 -0.5h-14.5h-9.5zM67 65q0 5 3 8.5t7 6.5h5h5h8.5t8.5 -1.5t6.5 -4.5t2.5 -8q0 -9 -6 -12.5t-13 -3.5q-4 0 -8.5 0.5t-8.5 2t-7 4.5t-3 8zM77 64q0 -2 2 -3t4.5 -2t5 -1h3.5h4h3
q2 1 3.5 3.5t1.5 4.5t-2 3.5t-4 2.5t-4 1.5t-4 0.5q-1 0 -4 -0.5t-5 -2t-3.5 -3t-0.5 -4.5zM49 52q0 3 3 3h1h1q6 -3 11 -5t9.5 -3t9.5 -2t11 -1q5 0 9 0.5t7 1.5t6 2.5t8 3.5h0.5h0.5q4 0 4 -3q0 -2 -2 -3.5t-4.5 -3t-5 -2t-4.5 -0.5q-1 -1 -3 -1.5t-5 -1.5t-5 -1.5
t-3 -0.5q-1 -1 -2 -3t-2 -3v-15q-1 -3 -4 -3q-2 0 -3 2.5t-1 4.5q0 4 0.5 8t0.5 7t-2.5 4.5t-7 2.5t-9.5 2t-9 2t-7 3t-3 5z" />
</svg>
