<?xml version="1.0" standalone="no"?>
<!DOCTYPE svg PUBLIC "-//W3C//DTD SVG 1.1//EN" "http://www.w3.org/Graphics/SVG/1.1/DTD/svg11.dtd" >
<svg xmlns="http://www.w3.org/2000/svg" xmlns:xlink="http://www.w3.org/1999/xlink" version="1.1" viewBox="-10 0 266 256">
   <path fill="currentColor"
d="M152 156q3 10 4.5 20t6.5 19l4 8l6 12t5.5 11.5t3.5 7.5t2.5 4.5t3.5 5.5t4.5 5t4.5 2t3 -2.5t1 -4.5q0 -3 -1.5 -6.5t-4 -7t-5.5 -6.5l-5 -5l-3.5 -7t-5 -11.5t-5.5 -13.5t-5 -14t-3.5 -12.5t-1.5 -8.5q0 -5 4 -6.5t8.5 -2t8 -1.5t3.5 -5q0 -3 -1 -3.5t-4 -0.5
q-2 0 -4.5 1t-5 2.5t-4.5 2.5t-4 1q-3 0 -4.5 -2t-2 -4.5t-0.5 -5.5v-5q0 -3 3 -4.5t5 -3.5h35l0.5 -1t1.5 -2l0.5 -1.5l0.5 -1.5l-1 -1.5t-2 -1.5h-6q-7 0 -14 0.5t-14 0.5h-9q-2 0 -2.5 -2t-1 -4.5t0 -5.5t0.5 -5t0.5 -4t2.5 -4q4 0 8.5 -0.5t8 -1t7 -2.5t6.5 -6
q0 -1 0.5 -3.5t0.5 -5t0.5 -5t0.5 -3.5v-2v-3q0 -1 -0.5 -4t-0.5 -6t-0.5 -6t-0.5 -4t-1 -1.5t-2 -0.5q-3 0 -4 3t-1 7.5v10t-0.5 10.5t-2.5 8.5t-6 4.5q-1 0 -2.5 0.5t-3 0.5t-3.5 0.5t-3 0.5q-2 -1 -3 -3.5t-1 -5.5v-50q0 -2 -2 -2h-3h-3.5t-1.5 3v21q0 18 1 35.5t1 35.5
v1q-1 0 -4.5 0.5t-7 0.5t-6.5 0.5t-4 0.5h-1.5h-1.5q-8 0 -10 -5t-2 -12v-7q2 -2 4.5 -3.5t5.5 -2l6 -1t5 -0.5q1 0 1.5 -1t0.5 -3t-0.5 -3t-3.5 -1q-5 0 -9 0.5t-10 0.5v-16q0 -2 4 -3t8.5 -2t8 -2t3.5 -4v-1l-0.5 -1.5l-0.5 -1.5h-4q-4 0 -7.5 0.5t-6.5 0.5
q-2 0 -3.5 -0.5t-1.5 -2.5v-19l-1.5 -2t-3.5 -3v0v0h-1q-3 3 -4 5.5t-1 5.5v1q0 1 0.5 3t0.5 4t0.5 4t0.5 3v1v0q0 1 -1 1.5l-1 0.5h-19q-2 0 -5 1.5t-3 4.5q0 2 1.5 4t4.5 2q4 0 8.5 -2t9.5 -2q1 0 3 0.5t2 1.5v19q0 3 -4.5 3t-9.5 -0.5t-9 0.5t-4 5t2 4.5t5 0.5
q4 0 8 -1.5t9 -1.5h1.5t1.5 1v27l-2 2h-9.5t-11 0.5t-10.5 1t-8 0.5q-2 1 -2 1.5v1.5q0 3 1.5 5t4.5 2h2l3 -0.5t6.5 -1t6 -1t3.5 -0.5q6 -1 13 -2t14.5 -2t15 -1.5t14.5 -0.5h6q2 1 3 3.5t1 6v6.5v5v5l-4 3q-2 1 -7 4t-11 6t-11 6t-7 4q-1 1 -3 2.5t-4.5 3t-4.5 3l-2 1.5
q-2 2 -7 5t-11 7t-10.5 7.5t-4.5 5.5q0 3 1.5 3.5t4.5 0.5h3.5t4.5 -2q1 -1 4.5 -3.5t7.5 -5.5t8 -5.5t5 -3.5q3 -3 10 -8l14 -10t13.5 -9t9.5 -4l0.5 0.5l0.5 0.5l1.5 0.5z" />
</svg>
