<?xml version="1.0" standalone="no"?>
<!DOCTYPE svg PUBLIC "-//W3C//DTD SVG 1.1//EN" "http://www.w3.org/Graphics/SVG/1.1/DTD/svg11.dtd" >
<svg xmlns="http://www.w3.org/2000/svg" xmlns:xlink="http://www.w3.org/1999/xlink" version="1.1" viewBox="-10 0 266 256">
   <path fill="currentColor"
d="M145 221v6t1 10t2.5 9.5t4.5 4.5q1 0 2 -0.5t2 -1.5v-6q0 -20 -2 -40t-2 -40q0 -1 0.5 -4.5t0.5 -4.5q1 -2 2 -5.5l1 -3.5h6l0.5 2.5t1 5.5t1.5 5q0 3 2 10t4.5 15t5.5 16.5t6 16t5.5 12t4.5 4.5q3 0 5 -3t2 -5v-2v-1q-10 -20 -18.5 -39.5t-10.5 -42.5q1 -3 4 -5.5t6 -4
t5 -4t2 -5.5q0 -2 -0.5 -3t-2.5 -1t-4 0.5t-4 2t-3.5 2.5t-2.5 2l-3 -3l-0.5 -2t-1 -5t-0.5 -5v-1q0 -4 2 -6t5.5 -2.5t7 0t6.5 0t5 -1.5t2 -3q0 -3 -0.5 -4t-3.5 -1q-5 0 -9.5 1.5t-9.5 1.5q-2 0 -3.5 -0.5t-1.5 -1.5v-22q0 -1 2.5 -2l5 -2t5 -1.5t3.5 -1.5q3 -2 4 -6
t1.5 -8t0.5 -8v-7q0 -2 -1.5 -5t-4.5 -3q-4 0 -4.5 4.5t0 10t0 11t-5.5 7.5q-1 0 -3.5 -1t-3.5 -1v-38q0 -1 -2.5 -2l-2.5 -1v0q-2 0 -3 1.5t-1.5 3t-1 3.5t-0.5 3q0 4 0.5 6.5t1.5 6.5v54l-2.5 1t-6 2t-6.5 1.5t-4 1.5v1v0q0 1 0.5 2l0.5 1h3.5h3.5q4 0 6 -0.5t5 -0.5h1v0
q1 4 1 7t0.5 5.5t0.5 5.5v6v8q-6 4 -9 7t-4 6.5t-1.5 8.5t-0.5 11v13q0 2 0.5 6.5t0.5 9.5t0.5 9.5t0.5 6.5q-1 3 -1.5 5t-0.5 5zM63 233q0 4 1.5 5t4.5 1t4 -2.5t2 -4.5v-15q0 -2 4.5 -3t11 -1.5t13.5 -1t13 -1t10 -2t4 -3.5q0 -1 -1.5 -2.5t-3.5 -1.5h-1.5t-3.5 0.5
t-3.5 0.5h-1.5h-5.5h-5.5v-16q0 -3 4 -3h8t8 -1.5t4 -5.5h-25v-18l1 -0.5t2 -0.5h0.5h1.5t3 -0.5t5 -0.5t5.5 -0.5t3.5 -0.5q1 -1 1.5 -2t0.5 -2q0 -3 -2 -3h-4q-3 0 -5.5 0.5t-5.5 0.5h-1.5t-3 -0.5t-2.5 -1.5t-1 -2v-25q3 0 6 1.5t5.5 3.5t4.5 3.5t5 1.5q2 0 3 -1.5
t1 -3.5q0 -4 -2.5 -6t-6 -2.5t-6.5 -1.5t-4 -4q1 -2 4 -3.5t6 -3.5t5 -4t2 -4t-3.5 -5t-8 -7t-8.5 -9t-4 -10q0 -8 1 -15t1 -15v-1.5v-1.5v-4t-0.5 -6.5t-0.5 -6.5v-4h-3q-1 0 -3 1t-2 4v52l-0.5 1t-1.5 2.5t-2 2.5l-2 2t-3.5 4l-5 6t-5 5.5l-3.5 3.5t-1.5 2.5l-0.5 1.5
l0.5 1.5t1 2t1.5 2t2 2.5q1 0 2.5 0.5t3.5 1t4 0.5t3 1l1.5 0.5l1.5 0.5v1v0q-6 7 -11.5 12t-10.5 12q0 1 -1 4t-1.5 7t-1 7t-1.5 4v3t-0.5 3.5t-0.5 3.5v2l0.5 2.5t0.5 3.5h0.5h0.5q0 10 -1 20t-1 20v4v4.5v5.5v3zM73 201q0 -6 2 -8.5t5 -4t7 -1.5h8v17q0 1 -1.5 1.5t-4 1
t-4.5 0.5h-3q-4 0 -6.5 -1t-2.5 -5zM87 160h2h2.5t2.5 1t1 2v11q0 3 -3 4.5t-6.5 2t-6.5 0.5h-4v-17q0 -1 1.5 -2t3.5 -1.5t4.5 -0.5h2.5zM76 148q0 -2 1 -6t3.5 -8t5 -7t6.5 -3v0q2 3 2 7v7v4v4q-1 2 -2.5 3.5t-3.5 2t-4 0.5h-3q-4 0 -4.5 -0.5t-0.5 -3.5zM83 96q0 -2 2 -4
q1 -1 2.5 -3t3.5 -3.5t3 -2.5l1 -1h6l12 12v0.5v0.5q0 2 -1.5 3t-3.5 1q-3 0 -3.5 -1t-1 -3t-1 -3.5t-2.5 -1.5q-3 0 -3.5 2t-0.5 4.5t-0.5 4t-3.5 1.5q-2 0 -5.5 -1.5t-3.5 -4.5zM72 23q-3 0 -4 1.5t-1 4.5t0.5 5.5t0 4.5t-1 5.5t-2 7.5t-2 7.5t-1.5 4.5q0 1 -1 2.5t-2 3.5
t-1.5 3.5t-0.5 2.5q-1 1 -1 3.5v3.5h6q1 0 1.5 -1t2 -2.5t2.5 -3t2 -2.5q2 -4 4.5 -9.5t3.5 -11.5t1.5 -11.5t0.5 -10.5t-1.5 -6.5t-5.5 -1.5zM129 77q1 2 2 2.5t2 0.5q3 0 5 -1.5t3 -4.5q-1 -1 -2.5 -4t-2.5 -4q0 -1 -1 -2t-2 -1q-2 -3 -2.5 -6.5t-1.5 -6.5v-24l-1 -1
l-2 -2t-2.5 -2l-1.5 -1q-2 0 -2.5 1.5t-0.5 3v3.5v2q0 7 0.5 13t2 11.5l3 11t4.5 11.5z" />
</svg>
