<?xml version="1.0" standalone="no"?>
<!DOCTYPE svg PUBLIC "-//W3C//DTD SVG 1.1//EN" "http://www.w3.org/Graphics/SVG/1.1/DTD/svg11.dtd" >
<svg xmlns="http://www.w3.org/2000/svg" xmlns:xlink="http://www.w3.org/1999/xlink" version="1.1" viewBox="-10 0 266 256">
   <path fill="currentColor"
d="M71 209l1 39q0 1 2.5 1.5t3.5 0.5t2.5 -0.5t1.5 -3.5v-17q0 -19 -1.5 -38.5t-1.5 -39.5q0 -4 2 -6t5.5 -3.5t6.5 -3.5t4.5 -5t2.5 -7t1 -8v-9v-7h-1h-2t-2 0.5t-2 1.5q0 15 -6 29q-1 1 -2.5 1.5t-3.5 0.5q-1 0 -2 -0.5t-1 -3.5v-42l1 -1.5t2 -1.5q6 -4 9.5 -8t6 -8t3 -10
t0.5 -15q0 -2 -1 -4.5t-4 -2.5t-4 3t-1 7v9t-0.5 9t-2 6.5t-6.5 2.5v0q-2 -1 -2.5 -3.5t-0.5 -4.5v-8.5t0.5 -9t1 -8.5t1.5 -8q1 -2 5 -4.5t7.5 -4.5t6.5 -4t3 -4v-1l-0.5 -1.5l-0.5 -1.5q-1 -1 -2 -1h-2h-3q-1 0 -2 1q-10 3 -15.5 9.5t-7 14.5t-1.5 18t1 21q-2 2 -2.5 3
t-2.5 1q-5 0 -7.5 -3.5t-3.5 -8.5t-0.5 -10.5t0.5 -8.5q-3 -5 -5 -6.5t-7 -2.5v2v4v3v3q0 11 1.5 17t4.5 9t8.5 5t13.5 6v11v9q0 3 -0.5 7t-0.5 8.5t-1 9.5q-1 2 -2 2h-2q-2 0 -4.5 -1t-2.5 -4l-3 -26q-1 -2 -3.5 -3t-3.5 -1q-2 0 -3 2l-2 4q0 1 0.5 5l1 8t1 7.5t1.5 4.5
q1 6 5 9t8 4.5t7.5 2t3.5 1.5v56v5zM144 236v1l0.5 1.5t0.5 3.5t0.5 3.5t0.5 2.5h0.5h0.5q2 0 3.5 -1.5t3 -4t2 -5t0.5 -4.5v-2q0 -1 -0.5 -5t-1 -9t-0.5 -9.5v-5.5v-13.5v-20.5v-25v-24v-21.5v-13.5q-2 -6 -7 -8.5t-10.5 -4.5t-9.5 -4t-4 -8q1 -2 2 -5t3 -5.5t4 -4t4 -2.5
l23 -1q3 -1 5 1l4 4t3 5.5t1 5.5q0 13 -2 25t-2 24q0 10 2.5 23t6.5 26.5t10 25.5t13 18h2q3 0 4 -2t1 -4q0 -4 -2 -8.5t-5 -9t-6 -8.5t-5 -7q-6 -11 -8.5 -24t-2.5 -26q0 -14 0.5 -27.5t0.5 -26.5v-17q-3 -1 -5.5 -2t-5.5 -2.5t-6 -2.5t-7 -1q-15 0 -23 3.5t-12 10.5
t-5 18.5t-1 26.5v19.5t0.5 18.5t1 18.5t-0.5 19.5q2 4 5 6t7.5 3t8.5 1t7 1l1 2l0.5 5t0.5 11.5t0.5 13.5t0.5 11q0 1 -0.5 3t-0.5 4.5t-0.5 4.5t-0.5 3v1zM122 133q1 -3 3 -4t5 -1.5t6 -0.5h5q1 0 2 0.5l1 0.5l2 5v29q0 2 -1 2.5t-2.5 1t-2.5 0.5h-2q-6 0 -9 -3t-4.5 -8
t-2 -10.5t-0.5 -11.5zM122 89q0 -7 2.5 -9t8.5 -2q4 0 7 2t4 4.5t1.5 6.5t0.5 9v4v6.5t-1 6t-2 2.5h-16l-4 -4v-5t-0.5 -9.5t-0.5 -9.5v-2z" />
</svg>
