<?xml version="1.0" standalone="no"?>
<!DOCTYPE svg PUBLIC "-//W3C//DTD SVG 1.1//EN" "http://www.w3.org/Graphics/SVG/1.1/DTD/svg11.dtd" >
<svg xmlns="http://www.w3.org/2000/svg" xmlns:xlink="http://www.w3.org/1999/xlink" version="1.1" viewBox="-10 0 266 256">
   <path fill="currentColor"
d="M73 246q1 0 2 1.5t2 1.5v0q3 0 4.5 -3t1.5 -6v-17q0 -13 -1 -26.5t-1 -27.5v-4v-6v-5v-4q4 -2 7 -3t5.5 -2.5t4.5 -3.5t3 -6q1 -5 2 -11t1 -11q0 -3 -1 -4t-4 -1t-4 5t-1.5 11t-2.5 11t-7 5q-3 0 -3.5 -1.5t-0.5 -4.5v-12t0.5 -10t1 -10.5t-0.5 -12.5q1 -2 4.5 -2.5
t3.5 -1.5q6 -2 8.5 -5t3.5 -5.5t1 -5t2 -2.5l3 -18q0 -2 -2 -3.5t-3 -1.5h-1q-1 3 -1.5 8.5t-2 10.5t-4 9t-7.5 4q-4 0 -5 -3.5t-1 -7.5q0 -7 1 -13.5t2 -14.5q1 -2 5 -5t8 -5.5t7.5 -5t3.5 -4.5t-1.5 -3.5t-3.5 -1.5t-6 2.5t-8.5 5.5t-8 6.5l-4.5 4.5q-2 3 -2.5 5t-0.5 4v4
v7q0 1 -0.5 4t-0.5 7t-0.5 7t-0.5 5l-0.5 0.5l-0.5 0.5h-1q-4 0 -5.5 -2t-2 -5.5t-0.5 -8t-0.5 -8t-2 -5.5t-3.5 -2q-3 0 -3.5 1t-1 2.5t-0.5 3.5v3q0 6 1 10.5t3 10.5q1 3 3.5 5.5t5.5 4t5.5 2.5t2.5 2v49q0 2 -1 2h-2q-5 0 -7 -4t-2 -8q-1 -1 -1 -3.5t-0.5 -6t-0.5 -6
v-4.5q0 -1 -1 -1h-2q-3 0 -5 1v5v10q0 6 1 11t4 9t8 5q3 1 5.5 1.5t3.5 3.5q0 12 0.5 23.5t1.5 23t1.5 23t-0.5 23.5zM148 203h-6.5t-10 0.5t-10 0.5h-6.5t-5 0.5t-5 1.5t-3.5 3t-1.5 5q27 0 53.5 -1t53.5 0q4 -2 4 -5q0 -2 -1.5 -3t-3 -1.5t-3.5 -0.5h-3q-6 0 -11.5 0.5
t-11.5 0.5h-11q-3 -1 -3 -2.5v-4.5v-4v-7t0.5 -7.5t0.5 -6v-2.5l2 -2h1.5t4 -0.5l5 -1t3.5 -0.5q4 0 6.5 0.5t5 0t5 -1.5t4.5 -4q-2 -2 -4.5 -2.5t-5.5 -0.5q-5 0 -10 1t-10 1h-3h-2l-2 -2v-15l-1.5 -0.5t-3.5 -0.5q0 -1 -3 -1q-2 0 -3 1q-2 -8 -1.5 -16.5t0.5 -15.5v-21
v-8.5t0.5 -12t0.5 -12v-7.5q2 -3 3 -4t3 -1t5.5 1.5t3.5 3.5v68v6.5v8.5t1 7t4 3t4 -3t1 -6q1 -1 1 -3v-4v-5t-1 -3q2 -2 5.5 -2.5t8 -1.5t7.5 -2.5t3 -6.5v-48q0 -1 -1 -1.5t-2 -0.5t-2 0.5t-2 1.5q-1 4 -1 7t-1 5.5t-3 4t-6 1.5q-1 0 -4 -0.5t-3 -2.5v-21q0 -4 3.5 -6
t6.5 -3h4t6 -0.5t6 -0.5h4q4 -2 4 -5t-2 -3.5t-5 -0.5l-2 0.5t-3 0.5t-5 0.5t-8.5 1t-8.5 1t-5 0.5h-8h-14h-14h-9h-2.5t-5 0.5t-4.5 2t-2 3.5q0 1 0.5 2t1.5 1h27q1 0 2 1.5t1 4v4.5v2q0 2 0.5 5.5t0 6.5t-1.5 6t-3 4q-6 0 -9 -1t-4.5 -3t-2 -4t-0.5 -3.5t-1 -2.5t-4 -1
q-2 0 -3 1t-1 2.5v3.5v4q0 6 1 13t1 14q1 8 5 11.5t8.5 5t8.5 1.5t4 1v21q0 1 1.5 1.5t3 1.5t3 3t1.5 5v4.5t-3 2.5h-37q-1 0 -1 2v3t1.5 3t2.5 2h37v31zM126 95q0 -6 2.5 -7t7.5 -1h4t4 2v8v8q-1 1 -1.5 2l-0.5 1h-13q-1 0 -1.5 -1.5t-1 -4t-0.5 -4.5v-3zM177 104v-9v-8
q0 -1 0.5 -2l0.5 -1h12q1 0 2 1.5t1 3.5v4v2v7q-1 4 -3.5 4.5t-5.5 0.5q-2 0 -4 -0.5t-3 -2.5z" />
</svg>
