<?xml version="1.0" standalone="no"?>
<!DOCTYPE svg PUBLIC "-//W3C//DTD SVG 1.1//EN" "http://www.w3.org/Graphics/SVG/1.1/DTD/svg11.dtd" >
<svg xmlns="http://www.w3.org/2000/svg" xmlns:xlink="http://www.w3.org/1999/xlink" version="1.1" viewBox="-10 0 266 256">
   <path fill="currentColor"
d="M67 245q0 2 0.5 3.5t2.5 1.5q4 0 7 -3q1 -4 1 -6.5v-4.5v-4v-7q0 -3 0.5 -9.5t0.5 -15v-18t0.5 -18t0.5 -15v-9.5q1 -3 3 -4t4.5 -2t4 -2t2.5 -4q1 -5 2 -7.5t1 -4.5t0.5 -4.5t0.5 -6.5q0 -1 -0.5 -4t-0.5 -4t-0.5 -1.5l-0.5 -0.5q-1 0 -2 0.5t-2 1.5v6.5t-1 9.5
t-2.5 8.5t-5.5 3.5q-3 0 -4 -1t-1 -6v-33l1.5 -0.5t2.5 -0.5q10 -4 14.5 -10t4.5 -19q0 -2 -0.5 -4.5t-3.5 -3.5q-2 3 -2.5 7.5t-1.5 8.5t-3 7.5t-6 3.5q-2 0 -3 -0.5t-1 -3.5v-2q0 -1 0.5 -5.5t1.5 -9t1.5 -8.5t1.5 -6q1 -1 2.5 -3t4 -4.5l4.5 -4.5l3 -3q2 -2 5 -3.5
t3 -5.5t-4 -4h-1q-1 0 -2 0.5l-1 0.5l-19 20q-3 3 -4 10.5t-1.5 14.5t-1 12.5t-3.5 5.5q-5 0 -6 -4.5t-1 -10.5q0 -5 -1 -10t-6 -5q-3 0 -4 1.5t-1 4.5t0.5 6.5t1 7.5t1.5 7t2 5q1 0 3 1t4 2.5t3.5 3t2.5 1.5q3 2 3 6v7v2q0 1 -0.5 5t-0.5 8t-0.5 8t-0.5 5q0 2 -1 2h-2
l-2 -1t-3 -2t-2 -2.5t-1 -2.5v-25q0 -1 -1.5 -2t-3 -1.5t-3 -0.5h-1.5q0 3 -0.5 8.5t0 11.5t1 11t2.5 8q2 2 4.5 3t5.5 2.5t5 3t2 4.5v44q-1 3 -1 7v8t1 8t1 9q0 6 -2 12.5t-2 13.5zM115 100v3q-1 6 -1.5 15.5t-1 21t-1 23.5t-1.5 22.5t-1.5 18t-0.5 10.5q0 9 -2.5 17.5
t-2.5 17.5q5 0 8 -5.5t4.5 -15t2.5 -20.5t1 -21t0.5 -18.5t1.5 -12.5v-41q0 -3 2 -4t4 -1h24q2 0 2 2v3q0 5 -3 8.5l-6 7l-6 7t-3 8.5v5v7.5t-0.5 8t-0.5 4.5q4 0 6 -3t2.5 -7t1 -9t1 -9t1 -7t2.5 -3h1q1 0 1.5 0.5l0.5 0.5v50q0 3 -2 4t-4 1q-3 0 -3.5 -1.5t-0.5 -3.5
t-0.5 -3.5t-3.5 -1.5v0q-1 0 -1.5 1l-0.5 1v2v4v3v2q0 8 0.5 13t3 7.5t7 3.5t11.5 1h4.5t7 -0.5t6.5 -2t3 -3.5v-32l-1.5 -0.5l-1.5 -0.5q-1 0 -2 1.5t-2.5 3.5t-3 3.5t-3.5 1.5q-3 0 -4.5 -3.5t-2 -8t-0.5 -8.5v-7q0 -4 0.5 -7t1 -6.5t0.5 -6.5v-8q-1 -2 0.5 -2.5t2.5 -0.5
q3 0 4.5 3t2.5 7t1 9.5t0.5 9.5t1.5 7t3 3h1l1 -0.5l1 -0.5v-3.5v-3.5q0 -9 -1 -18t-6 -17l-2.5 -2.5t-3.5 -3t-3.5 -3t-1.5 -3.5q0 -3 2.5 -4.5t5.5 -2t6 -0.5h5q3 0 6 1t3 5v55l1 1t1 2t0.5 4t0.5 6t0.5 6t0.5 4q0 2 1 6.5t1.5 10t1.5 10t1 6.5q0 1 0.5 4t1.5 6.5t1.5 6.5
t0.5 4q1 2 2 2h2q3 0 3.5 -1t0.5 -4v-2v-2l-0.5 -1.5l-1 -3l-1 -3l-0.5 -1.5q-4 -16 -6.5 -32t-2.5 -33v-5v-9v-9v-5l-1 -3l-1 -3v-4v-6v-5v-4q0 -10 1 -19.5t1 -18.5q0 -1 -0.5 -2.5t-1.5 -2.5t-2.5 -2t-2.5 -1l-1.5 1.5l-1.5 1.5v5v7v7v5q0 1 -0.5 4t-2.5 4h-3.5t-5 0.5
t-5 0.5h-3.5t-2 0.5l-1 0.5q-1 0 -3 -0.5t-2 -3.5v-13l2 -1l4 -2t3.5 -2t2.5 -2q1 0 1.5 -0.5l0.5 -0.5q3 -7 3 -11.5v-7.5t2.5 -4.5t10.5 -2.5q1 -1 3 -1t4 -0.5t4 -0.5h3l2 -2t1 -2v0v0q0 -2 -1 -2.5t-2.5 -1t-2.5 -0.5t-2 -1q-11 3 -21.5 3.5t-21.5 1t-22 0.5t-21 2
q-1 0 -1.5 0.5t-0.5 1.5v0v1v0.5v0.5l0.5 1t1.5 1h25q1 0 2.5 2.5t2 5.5l1 6t0.5 5q2 4 3.5 6l3 4t2.5 4.5t1 7.5q0 1 -0.5 3.5l-0.5 2.5l-1 1h-29v-27l-1 -1t-2 -1q-1 -1 -2 -1.5t-3 -0.5q-3 0 -3 4q0 6 2 12.5t2 13.5zM143 201q0 -2 0.5 -4.5t4.5 -2.5h22l0.5 0.5t0.5 1.5
h1q0 9 -5 12t-12 3h-4h-3q-5 -4 -5 -10zM148 61v-6q1 -2 5 -2.5t6 -0.5h6q3 1 3 3.5v4.5v6t-1.5 5.5t-3.5 4t-5 1.5t-5 -1.5t-3.5 -4t-1.5 -5v-5.5zM127 26q0 1 0.5 2t2.5 1h12h10q2 0 7.5 -0.5l11 -1l11 -1t7.5 -0.5v-1v-1q-1 -1 -2 -2.5t-1 -2.5h-8h-11.5h-17t-15.5 1.5
t-7 5.5z" />
</svg>
