<?xml version="1.0" standalone="no"?>
<!DOCTYPE svg PUBLIC "-//W3C//DTD SVG 1.1//EN" "http://www.w3.org/Graphics/SVG/1.1/DTD/svg11.dtd" >
<svg xmlns="http://www.w3.org/2000/svg" xmlns:xlink="http://www.w3.org/1999/xlink" version="1.1" viewBox="-10 0 266 256">
   <path fill="currentColor"
d="M76 246q0 3 0.5 4t3.5 1q5 0 6.5 -3.5t2 -7.5t0 -9t-0.5 -7q0 -13 -1 -25t-1 -25v-18q2 -3 4.5 -5t5 -3.5t5.5 -3.5t5 -5q1 -6 2.5 -13t1.5 -13q0 -3 -0.5 -5.5t-4.5 -2.5h-1h-2v9.5t-1 11t-4 10t-8 4.5l-1 -0.5t-2 -0.5v-9t-0.5 -14.5t-1 -14t-0.5 -9.5v-1q0 -3 2.5 -5
t6 -3.5t7.5 -3.5t7 -6t5.5 -9.5t2.5 -13.5q0 -4 -2 -5.5t-5 -1.5h-2.5t-1.5 2v7t-1.5 10t-4.5 9t-7 4h-1l-4 -2v-15q0 -10 0.5 -16t2.5 -9.5t6.5 -6.5t14.5 -5v-3q0 -4 -1.5 -4.5t-4.5 -0.5q-6 0 -11.5 2.5t-10 6.5t-6.5 10t-2 13v1.5t0.5 3l1 3l0.5 1.5v4v4q0 4 -1 8.5
t-6 4.5q-4 0 -7 -4.5t-4 -10.5t-1.5 -12t-0.5 -9h-11q0 8 0.5 16.5t3 15t8 10.5t15.5 2l4 3v4t0.5 7t1 8.5t0.5 7.5v7v5.5v7t-1 6t-4 2.5q-6 0 -9 -2.5t-3.5 -6.5t-0.5 -9t-0.5 -9t-3 -6.5t-8.5 -2.5v10t0.5 12t2 11.5t5.5 8.5l1 1t1 2h16l2 2v6t0.5 14l1 16t0.5 14v18v18
q-2 2 -2 4v4zM129 198q0 7 1 13.5t3.5 11t7 7t13.5 2.5q8 0 14.5 -1t11.5 -3.5t9.5 -7t9.5 -11.5v-22v-21q0 -1 -0.5 -2.5t-0.5 -3t-0.5 -2.5t-0.5 -2q-2 -5 -6.5 -7.5t-9 -4.5t-8 -3.5t-3.5 -3.5v-4t1 -6.5t2.5 -6.5t3.5 -3l29 -4q2 -1 2.5 -2.5t0.5 -3.5t-1.5 -3t-3.5 -1
q-4 0 -7 1.5t-7 1.5q-6 0 -7 -1.5t-1 -6.5q0 -6 1 -9t5 -8q0 -1 -0.5 -2t-1.5 -2.5t-2 -1.5q-3 0 -5.5 5t-4.5 12.5t-4 16t-3.5 16t-4 12t-5.5 4.5v0h-1q-1 -2 -1.5 -7.5t-1.5 -12t-2.5 -14t-3 -13.5t-3 -9.5t-3.5 -3.5q-3 0 -4 1t-1 4q0 5 1 9.5t1 10.5v2.5t-2 2.5h-12
q-1 0 -1.5 2.5t-0.5 3.5q0 2 0.5 2.5t3.5 0.5q0 1 2.5 1h5.5h4.5t3.5 -1l1 2l6 19l-2 2.5t-4 3.5q-6 6 -9 11t-4 11t-1 13v16zM138 200q0 -5 2 -7.5t5.5 -3t7.5 -0.5t8 -1h5.5h8.5h8h5q0 10 -1 17t-4 10t-9 4.5t-16 1.5h-9q-4 -2 -6 -4t-3.5 -4.5t-1.5 -6v-6.5zM138 172
q0 -5 2.5 -9t6.5 -7t9 -4t10 -1q10 0 16 4.5t6 16.5v3t-2 2q-1 0 -5.5 0.5t-9 0.5t-8.5 0.5t-6 0.5l-2 0.5t-4 0.5t-4 0.5l-2 0.5q-4 0 -5.5 -2.5t-1.5 -6.5zM143 56q2 1 3.5 4t2.5 6l2 6t1 5h2q11 0 14.5 -2.5t4.5 -6.5l2 -8t6 -8h4t6 -0.5t5.5 -0.5h3.5q3 -1 5.5 -2.5
t2.5 -4.5l-0.5 -0.5l-0.5 -0.5l-0.5 -1.5l-0.5 -1.5h-17q0 -5 1.5 -9t1.5 -9q0 -2 -0.5 -3t-3.5 -1t-6 5.5t-5.5 12.5t-5 13.5t-3.5 8.5q0 1 -1 3t-2 3.5t-1.5 2.5l-0.5 1h-6l-0.5 -3t-2 -7t-2.5 -8t-1 -7q-1 -1 -1.5 -4t-1 -6.5t-1 -6t-0.5 -4.5q-2 -3 -7 -4t-8 -1
q0 4 1 6.5t2 5.5l2 6t1 6v2v2h-3.5t-5.5 1t-5 2.5t-2 3.5q0 1 0.5 1.5t1.5 0.5q2 2 4 2.5t5 0.5h5t5 -1z" />
</svg>
