<?xml version="1.0" standalone="no"?>
<!DOCTYPE svg PUBLIC "-//W3C//DTD SVG 1.1//EN" "http://www.w3.org/Graphics/SVG/1.1/DTD/svg11.dtd" >
<svg xmlns="http://www.w3.org/2000/svg" xmlns:xlink="http://www.w3.org/1999/xlink" version="1.1" viewBox="-10 0 266 256">
   <path fill="currentColor"
d="M177 158q1 4 2.5 12t4 18.5t6 21.5t7 20t7.5 15t8 6q0 -7 -2.5 -14.5t-6.5 -12.5q-1 -3 -2 -10t-2.5 -14.5t-3 -14t-2.5 -9.5q-1 -6 -3 -11.5t-2 -11.5q0 -4 3 -7.5t6 -6t5.5 -6t2.5 -8.5q0 -8 -2.5 -14t-7 -11t-10.5 -7.5t-13 -2.5h-3.5t-2.5 2q3 4 8 7.5t9.5 7t8 8
t3.5 11.5q0 4 -3.5 5t-6.5 1t-7 -2.5t-8.5 -6.5t-9 -6.5t-8.5 -2.5h-2t-1 1q0 4 4 6.5t8.5 5t8.5 6.5t4 10q0 3 -2.5 4t-3.5 1h-44q0 4 2.5 5t6.5 1l3 0.5t6 1.5t6 1.5t4 0.5h1v0q1 0 3.5 -0.5t5.5 -1.5t5.5 -1.5t3.5 -0.5h2q2 0 2.5 0.5t1.5 3.5zM99 225q1 2 1.5 2h1.5h2
q1 -13 1 -24v-24q0 -10 -0.5 -21t-0.5 -21v-1q0 -2 0.5 -4.5l0.5 -2.5l2 -2l26 -7q1 0 1.5 -2.5l0.5 -2.5h-30v-28q0 -3 3.5 -3.5t8 -0.5t8 -1t3.5 -4q0 -1 -0.5 -2t-2.5 -1h-23v-14l1 -2.5t3 -5.5t3.5 -6.5t2.5 -5.5q1 -1 2 -1.5t2 -0.5q4 0 6.5 3t4.5 7t4.5 7t6.5 3
q0 -3 -3 -10t-7.5 -15t-9 -14t-5.5 -6h-1v0l-0.5 1.5t-1.5 1.5q0 1 -0.5 4.5t-1.5 7t-1.5 6.5t-1.5 4q0 2 -1 4t-2 4.5t-2 4l-1 1.5h-5l-1 -3.5t-2 -5.5t-2 -6.5t-3 -8.5t-4.5 -7t-6.5 -3q-2 0 -2 1t-1 4q-1 2 -3 7t-5.5 10.5t-6.5 11t-6 10.5t-4.5 8.5l-1.5 3.5q0 3 3 3
t7 -5t7.5 -11.5t7.5 -12t8 -5.5t7 3.5t5 7.5t3.5 8.5t1.5 7.5q0 1 -0.5 3l-0.5 2q0 1 -0.5 2l-0.5 1h-16q-1 0 -1.5 2t-0.5 3t0.5 1.5t2.5 1.5h16q1 1 1.5 2t0.5 3v2l-0.5 1t-0.5 2t-0.5 2l-0.5 1v1q0 3 1 6t1 6v4t-2 3q-8 0 -14 0.5t-14 1.5q-1 0 -2.5 0.5t-3.5 1t-3 1.5
t-1 2q0 4 3 4q8 -1 14.5 -1.5t14.5 -0.5h5l1 5l0.5 5.5t1.5 13t1 15t1 12.5v10v7t0.5 10.5t0.5 10.5v7zM141 82v1.5t1 1.5q4 0 9 -5.5t10.5 -13t9.5 -14t5 -9.5l1 -0.5l1 -0.5q3 0 6 5.5t6.5 12t8.5 11.5t11 5h1l0.5 -0.5l0.5 -0.5l1 -1l-2 -3.5t-5.5 -8t-7 -10.5t-7 -11.5
t-6 -9.5t-3.5 -5q0 -2 -1 -4t-1.5 -4t-1.5 -4t-2 -3q-2 0 -3 2t-1.5 4.5t-0.5 5.5v3q-3 15 -11 29t-19 25v2z" />
</svg>
