<?xml version="1.0" standalone="no"?>
<!DOCTYPE svg PUBLIC "-//W3C//DTD SVG 1.1//EN" "http://www.w3.org/Graphics/SVG/1.1/DTD/svg11.dtd" >
<svg xmlns="http://www.w3.org/2000/svg" xmlns:xlink="http://www.w3.org/1999/xlink" version="1.1" viewBox="-10 0 266 256">
   <path fill="currentColor"
d="M177 162q0 1 0.5 5l1 8t1 7.5t0.5 5.5q0 3 1 7.5t1.5 10.5t2 12.5t2.5 12.5t2.5 10.5t3.5 6.5v0q5 0 5.5 -3t0.5 -6q0 -10 -1.5 -19.5t-4 -19t-5 -18.5t-3.5 -19v-4q0 -5 1 -7.5t3 -4t4.5 -3.5t4.5 -5t3 -7.5t1 -12.5q0 -1 -0.5 -5t-1.5 -8.5t-3 -7t-6 -2.5h-17
q-1 0 -3 -2.5t-2 -3.5v-3v-3q0 -2 0.5 -5.5t0.5 -6v-2.5l4 -3h3.5h5.5h5.5h4.5t5 -1.5t3 -4.5q0 -5 -4.5 -6.5t-10 -1.5h-10t-4.5 -3v-31q0 -3 -1.5 -3h-3.5h-3.5t-2.5 3v40q0 1 -1 3.5l-1 2.5q0 1 1 3.5t1 3.5v0v1q0 1 -0.5 3t-0.5 4t-0.5 3.5t-0.5 2.5t-0.5 4l-0.5 3
q-2 2 -5.5 2h-7.5h-7t-3 3q0 4 4.5 4.5t10.5 0.5t13 -0.5t13.5 0.5t10.5 4.5t4 11.5v6.5t-1 6t-3 5t-6 2.5q-3 0 -3.5 -3t-1.5 -6l-2 -6t-5 -3h-24q-1 0 -1.5 2t-0.5 3t0.5 1.5l1.5 1.5h5.5t9 1t8 3.5t3.5 6.5q0 1 -1.5 4t-3.5 4l-29 3l-0.5 0.5l-0.5 0.5q-1 1 -1 3v2h8h7
t6.5 -0.5t7.5 -1.5h1t2 -0.5t2 -0.5h1q2 0 4 3t3 5zM102 175q0 4 -2 11t-5.5 14t-7 13.5t-6.5 10.5q-1 2 -3.5 4t-4 4t-3 4.5t-1.5 6.5q9 0 14.5 -5.5t9 -13t6 -16t4.5 -14.5q3 -6 6 -11.5t3 -12.5q0 -5 -2.5 -7.5t-5.5 -5l-6 -5t-3 -7.5v-1q1 0 1.5 -2.5t0.5 -3.5
q8 1 15.5 0t15.5 -3l0.5 -0.5l0.5 -0.5v-1v0v-0.5v-0.5q0 -1 -1.5 -2l-1.5 -1h-31v-19l-0.5 -0.5l-0.5 -0.5h-0.5h-0.5v0v0q-2 0 -3.5 2t-1.5 3q-1 0 -1.5 2t-0.5 4.5t-0.5 4.5l-0.5 2q-1 3 -3.5 3.5t-4.5 0.5q-6 0 -7.5 -3t-2 -6.5t-2 -6.5t-6.5 -3q-2 0 -2.5 2t-0.5 3
q0 10 1.5 14t4.5 5.5t9 1.5h14l1 0.5t2 1.5v4v4q0 5 -1 8.5t-2.5 6t-3.5 5.5t-4 7t-4 7.5t-4 7.5l-5 5l-6 6t-5 6.5t-2 6.5q0 2 0.5 3.5t2.5 1.5t3 -0.5t2 -1.5q2 -2 5 -7t6.5 -11t7.5 -12t7 -11t6 -8.5t4 -4.5q3 -1 4 0.5t2 4t1 4.5v3zM59 78q0 6 1.5 10.5t5 7t8.5 3
t12 0.5h7t6.5 -0.5t7 -1.5t8.5 -2q2 -1 3 -3.5t1.5 -5t0.5 -4.5v-5q0 -3 -0.5 -6t-4.5 -3h-2h-1q-1 3 -1.5 6.5t-1 6.5t-2.5 5.5t-6 2.5h-1h-2t-2 -0.5t-1 -1.5v-23q0 -2 3.5 -3t7.5 -2t8 -2.5t6 -3.5v-3.5t0.5 -5t0.5 -5v-3.5v-3q0 -1 -0.5 -4t-2.5 -3t-4 2.5t-2 4.5
q-1 1 -1.5 3t-1 4.5t-0.5 5v2.5q-1 2 -3.5 2h-3.5h-3h-2l-1 -0.5t-1 -1.5v-35l-1 -1l-1 -1h-1q-2 0 -3.5 1.5t-2.5 3.5v28q0 1 -0.5 3.5l-0.5 2.5h-12l-3 -3v-16q0 -1 -3 -1h-3h-2.5t-2.5 1v8v3.5t0.5 6t1.5 5.5t3 2h19q3 0 3 1.5v2.5v4v2.5t-0.5 3.5t-0.5 4v2q-1 3 -0.5 6
t0 5t-2.5 3.5t-6 1.5t-5 -3t-1.5 -7t-1 -7.5t-4.5 -4.5q-2 0 -3 0.5t-1.5 2t-0.5 3v2.5z" />
</svg>
