<?xml version="1.0" standalone="no"?>
<!DOCTYPE svg PUBLIC "-//W3C//DTD SVG 1.1//EN" "http://www.w3.org/Graphics/SVG/1.1/DTD/svg11.dtd" >
<svg xmlns="http://www.w3.org/2000/svg" xmlns:xlink="http://www.w3.org/1999/xlink" version="1.1" viewBox="-10 0 266 256">
   <path fill="currentColor"
d="M118 166q-2 22 -2.5 42.5t-0.5 42.5q4 0 5 -1.5t2 -3.5q1 -12 1.5 -25t0.5 -26v-25.5v-23.5q3 -2 5 -5t2 -7q0 -12 -2 -18.5t-6.5 -9t-12 -3t-18.5 -0.5h-1h-2t-4.5 0.5t-4.5 0.5t-3 1q-1 0 -2 1t-1 2v1v0q3 3 4.5 3.5t4.5 0.5q4 0 7.5 -1t6.5 -1q5 0 9 0.5t7.5 2.5
t5.5 5t2 9v4t-3 2t-6 -0.5t-6.5 -1.5t-7.5 -2t-9 -1h-12q-4 -1 -4.5 0.5t-0.5 3.5t0.5 4t2.5 2h31q3 0 3.5 2t0.5 4q0 4 -3.5 5.5t-6.5 2.5q-2 0 -5.5 0.5t-8 1.5t-8 1.5t-4.5 1.5q-2 0 -3.5 1.5t-1.5 3.5v1q1 0 4 1t4 1h2h1l30 -8h6zM181 158q2 15 5 29.5t7 29.5
q1 7 0.5 14.5t2.5 14.5q0 1 1 1.5t2 0.5q3 0 5 -2.5t2 -5.5q0 -1 -0.5 -2l-0.5 -1q0 -1 -0.5 -4t-1.5 -6.5t-1.5 -7t-1.5 -3.5q-3 -16 -6 -31t-6 -31l-0.5 -1l-0.5 -1q0 -2 2.5 -4.5t5.5 -6t6 -6.5t4 -6q2 -3 2 -8v-9v-4.5v-4.5q-1 -5 -4.5 -7.5t-8 -3.5t-8.5 -1h-8l-2 -1
v-37l3 -3h21q1 0 3 -2t2 -3l0.5 -0.5l0.5 -0.5q0 -1 -2 -2.5t-4 -1.5h-22q-2 0 -2 -2v-3q0 -4 1 -8.5t1 -8.5q0 -3 -1.5 -5t-4.5 -2q-2 0 -3.5 1t-0.5 5v25q0 5 -0.5 13t-1 15.5t-1 13.5l-0.5 6l-3 2h-21q-3 0 -3.5 1.5t-0.5 2.5q0 2 1.5 3t3.5 2q4 -1 8 -1t8 -0.5t7 -0.5h9
h2h4q3 0 5 0.5t3 0.5q4 1 6.5 3.5t2.5 7.5v6t-1.5 8.5t-3.5 8t-4 4.5q-1 0 -3 -2.5t-4.5 -6t-5.5 -6t-7 -2.5q-2 0 -6.5 0.5t-10 1t-9.5 2t-4 3.5q0 1 1.5 2t3 1.5l3 1l1.5 0.5q4 0 7.5 -1t7.5 -1q6 0 9.5 3t3.5 9l-0.5 2t-0.5 3q-1 0 -3.5 0.5t-5.5 1.5t-6 1.5t-4 1.5
q-1 0 -4 1l-6 2t-5.5 3t-2.5 4l0.5 0.5t1.5 0.5h3h3q5 0 9 -1t8 -2.5l8 -3t8 -1.5h1.5t1.5 2zM48 237q0 4 0.5 5t2.5 1q5 0 7 -6q1 -5 1.5 -9t0.5 -8.5t-0.5 -9.5t-0.5 -11q0 -4 0.5 -13t1 -20t1 -23.5t1 -23.5t0.5 -20t1 -13t1 -8t1 -7t4 -4.5t9 -1.5h1q0 8 1 13t3.5 7.5
t7 3.5t11.5 1h11q4 -2 5.5 -4.5t2.5 -5.5t1 -6t-1 -6l2 -2h3t4 -0.5t3.5 -0.5h2.5q1 -1 2 -1.5t2 -0.5v-1q0 -4 -3.5 -5t-6.5 -1q-4 0 -7 -0.5t-3 -5.5q0 -6 2 -8t4.5 -2t4.5 -0.5t2 -3.5q0 -2 -0.5 -3.5t-2.5 -1.5h-23q-2 0 -3.5 -1.5t-1.5 -3.5v-2v-4v-4v-3q-1 -1 -2 -1.5
t-2 -0.5q-4 0 -5 3t-1 6q0 4 0.5 7.5t0.5 4.5h-27q-2 2 -4 3.5t-4 2.5q-1 6 -1 11.5t-0.5 11.5t-1 11.5t-2.5 10.5q-2 35 -2.5 69.5t-2.5 69.5v3t-0.5 4.5t-0.5 5v2.5zM90 72q0 -6 3.5 -7t8.5 -1q6 0 8.5 1.5t2.5 7.5t-2.5 8t-8.5 2t-9 -2t-3 -9zM66 51q0 -1 0.5 -3t2 -4
t3 -3t3.5 -1q5 0 6 3t1 8q0 3 -2 4.5t-4 1.5t-3.5 -0.5l-3 -1t-2.5 -1.5t-1 -3zM90 52v-4v-4t1 -4t2 -2h17l3 4v14h-20q-2 0 -2.5 -1.5t-0.5 -2.5z" />
</svg>
