<?xml version="1.0" standalone="no"?>
<!DOCTYPE svg PUBLIC "-//W3C//DTD SVG 1.1//EN" "http://www.w3.org/Graphics/SVG/1.1/DTD/svg11.dtd" >
<svg xmlns="http://www.w3.org/2000/svg" xmlns:xlink="http://www.w3.org/1999/xlink" version="1.1" viewBox="-10 0 266 256">
   <path fill="currentColor"
d="M195 249q0 2 1.5 2h2.5q3 0 5 -1.5t2 -3.5q0 -4 -2 -5.5t-3 -5.5q-2 -4 -4 -10.5t-4.5 -13.5t-4 -14t-1.5 -11v-3v-3q1 -2 3 -3.5t4 -2t3.5 -2.5t3.5 -6q0 -1 1 -3.5t2 -4.5t1.5 -3.5t0.5 -2.5v-40q0 -6 -3 -9.5t-7.5 -5.5t-10 -2.5t-10.5 -0.5v-7v-8v-7.5t0.5 -8
t0.5 -9.5q1 0 3.5 -0.5l2.5 -0.5q1 0 4 -0.5t6 -0.5q4 0 6.5 0.5t3.5 0.5q5 -1 5 -6v-1l-2 -0.5t-3 -0.5h-26v-33q0 -2 -1 -2.5t-2 -0.5q-2 0 -3.5 0.5t-2.5 1.5q0 19 -1 38t-1 39q-1 2 -3 3.5t-4 2l-4 1t-3 2.5q3 4 7 5q4 0 9.5 -0.5t10.5 0t9.5 2.5t7.5 7v4t0.5 6.5
t0.5 6.5v4v1v2v5.5t-1 10t-3 10t-6 4.5l-0.5 -0.5l-0.5 -0.5l-1.5 -1t-1.5 -2l-3 -24q0 -4 -3 -4.5t-6 -0.5q-5 0 -9.5 0.5t-10.5 1.5q-2 0 -2 1v2q0 4 3 4.5t7 1t8 1.5t6 7q0 1 0.5 3l1 4l1 4l0.5 2q0 1 -0.5 2.5t-0.5 3t-0.5 2.5t-0.5 2q-2 1 -7 2l-10 2t-8.5 2.5
t-3.5 4.5q0 2 0.5 3t2.5 1q6 0 12.5 -2t12.5 -4q5 2 6 6q4 16 7.5 30.5t9.5 29.5zM90 198q0 13 -2 26t-2 26q5 0 8 -2t5 -6q-1 -13 -0.5 -25.5t1.5 -24.5l2 -1q3 -1 7 -1.5t7 -0.5h8h6q3 -1 3 -4q0 -2 -1 -3.5t-3 -1.5q-8 0 -14.5 0.5t-14.5 0.5v-15l2 -2q1 0 3.5 0.5
t4.5 0.5q3 0 5.5 -0.5t3.5 -0.5h2h3t3.5 -0.5t2.5 -2.5v0v-1q0 -1 -0.5 -2.5t-1.5 -1.5h-24q0 -4 0.5 -8t3.5 -8h4h6h6h4q3 0 5.5 -1t2.5 -4q0 -2 -2 -3t-4 -1q-3 0 -6.5 0.5t-6.5 0.5h-2t-2 -1v-12q0 -1 -0.5 -1.5t-1.5 -0.5q-3 0 -4.5 2.5t-3 5.5t-2 7.5t-1 7.5t-1.5 5.5
t-3 2.5h-2q-4 -6 -5.5 -14t-1.5 -14l-5 -5q-1 2 -1.5 4t-0.5 4v4v2l-1 2h-4t-6 0.5t-6 0.5h-4q-3 1 -5 1.5t-2 3.5q0 2 1.5 3t3.5 3h1h1l2.5 -0.5t3.5 -0.5t3.5 -0.5l5 -1t5 -0.5h3.5q5 4 5 9q0 2 -0.5 4.5t-3.5 2.5h-31q-1 0 -1 2v3q0 3 2.5 4t5.5 1q7 0 14.5 -1.5
t13.5 -1.5h1l1.5 0.5l1.5 0.5v4v3v2v4t-0.5 3.5t-2.5 1.5h-36q-2 0 -2.5 2t-0.5 3q0 4 1 4.5t4 0.5q7 0 14.5 -0.5t15.5 -0.5h4l2 1v3v3zM51 117v4t1 4q5 -1 8 -6t4.5 -11.5l3 -13t1.5 -9.5q1 -2 1.5 -5.5t1.5 -6.5t1.5 -5l0.5 -2h45q2 0 3.5 4t3 9.5t2.5 11.5t3 11.5t4 9.5
t4 4q1 0 2 -1t1.5 -2.5l1 -3t0.5 -2.5v0v-1q-4 -11 -9 -21.5t-10 -21.5v-2q0 -4 1.5 -7t3.5 -6.5t3.5 -7t1.5 -8.5q0 -6 -2 -10t-5.5 -6.5t-8.5 -3.5t-11 -1l-5 -0.5t-11 -0.5t-12.5 -0.5t-10.5 -0.5h-2q-4 0 -4 4q0 3 2 4l4 2l0.5 2l0.5 2v2q0 2 -0.5 4.5t-1.5 2.5h-14
q-1 0 -1.5 2l-0.5 2v2.5t2 1.5h13q0 1 0.5 4.5t0.5 5.5q-1 3 -4 3.5t-6 0.5t-5 0.5t-2 4.5q0 3 1 4t3 1.5t4 0.5h4v6l-12 41v2v3zM79 83q0 7 0.5 12t2.5 9t6.5 6t11.5 2q11 0 14.5 -4.5t3.5 -14.5q0 -6 -0.5 -10.5t-3.5 -8.5q-4 6 -8 7.5t-11 1.5h-3.5h-3.5q0 -2 -1 -5
t-4 -3q-1 0 -2 0.5t-2 1.5v6zM88 98q0 -6 3.5 -6.5t8.5 -0.5h7q2 0 1.5 2.5l-0.5 2.5v5t-3 5h-3h-2q-5 0 -8.5 -1.5t-3.5 -6.5zM77 51q0 -3 1.5 -6t5.5 -3q9 0 15 2.5t12 9.5v1v0q0 1 -0.5 1.5l-0.5 0.5h-31q-1 0 -1.5 -2.5t-0.5 -3.5zM49 54q-1 0 -1 1q0 2 1 2q2 0 2 -2
q0 -1 -2 -1zM80 30q0 -5 1 -8.5t7 -4.5q9 1 18 1t18 5q0 1 0.5 1.5l0.5 0.5v18q0 2 -1.5 4t-3.5 3l-3.5 -2t-7.5 -4.5t-8.5 -5t-7.5 -3.5h-5h-3.5t-3 -1t-1.5 -4z" />
</svg>
