<?xml version="1.0" standalone="no"?>
<!DOCTYPE svg PUBLIC "-//W3C//DTD SVG 1.1//EN" "http://www.w3.org/Graphics/SVG/1.1/DTD/svg11.dtd" >
<svg xmlns="http://www.w3.org/2000/svg" xmlns:xlink="http://www.w3.org/1999/xlink" version="1.1" viewBox="-10 0 266 256">
   <path fill="currentColor"
d="M166 198h1.5t1.5 2q4 14 7.5 28t9.5 28h1h1q6 0 6 -6v-2v-1l-1 -2l-2 -4t-2 -3.5l-1 -1.5q-3 -9 -7 -19t-4 -20q0 -2 1 -3.5t3 -2.5t4 -2.5t3 -3.5q1 -1 1.5 -3.5t1.5 -5.5t2 -5t2 -3v-4v-6v-6v-4v-15q0 -8 -1 -15q-2 -2 -3 -4.5t-4 -2.5q-1 -1 -4 -1t-6 -0.5l-6 -1
t-4 -0.5l-3 -3v-1q0 -2 1 -5.5t1.5 -7.5t1.5 -7.5t1 -6.5l1 -1q3 0 7.5 -0.5l9 -1t8 -3t3.5 -6.5h-28q0 -10 1.5 -19t1.5 -18q0 -3 -1 -5t-4 -2q-2 0 -3 0.5t-2 2.5q-2 21 -3 41.5t-4 40.5q0 1 -0.5 1.5l-0.5 0.5q-3 1 -6 1q-2 0 -4 0.5t-2.5 2t-0.5 5.5h40q2 0 3 3t2 7t1 8
v6v8.5t-1 13.5t-3.5 12.5t-7.5 5.5q-2 0 -2.5 -2.5t-1.5 -6t-1.5 -8t-2 -8t-5 -6t-9.5 -2.5v0q-2 0 -6 0.5t-6 0.5q-1 1 -1 2v2q0 4 2.5 3.5t6 -0.5t7 2t5.5 10q0 2 1 5t1.5 6t1 5.5l0.5 2.5l-2 3q-2 1 -7 1.5t-9.5 2t-8 4t-3.5 5.5q4 0 8 -0.5t7.5 -1.5l7 -2t7.5 -1z
M87 208h2q2 0 2 2v33q0 1 1 1h2h1q1 0 3 -2l2 -2v-30h29q1 0 1 -2v-3q0 -5 -5 -5t-9 0.5t-8 0.5q-3 0 -6 -0.5t-3 -5.5v-1q1 -1 2 -4l1 -3h27q1 0 1 -1v-2t-0.5 -2.5l-0.5 -1.5h-26q-2 0 -3 -2.5t-1 -4.5q0 -4 3 -4t6 -1h4t6 -0.5t6 -0.5h5q1 -1 1 -2v-2v-2t-1 -2h-17l-3 -1
v-1.5v-1.5q0 -4 1.5 -6.5t4 -4.5l5 -4t4.5 -5q3 -4 4 -10.5t1 -12.5q0 -7 -4 -10.5t-10 -5t-13 -1.5h-11q-7 0 -12.5 0.5t-8.5 2.5t-5 6.5t-2 12.5t2.5 12t5.5 7.5t6 6.5t3 8v6h-5q-4 0 -7 0.5t-5.5 1t-2.5 3.5t3 5h4t6.5 0.5t6.5 0.5h4q4 1 5.5 1.5t1.5 4.5v3.5t-3 2.5h-26
q-2 0 -2.5 1.5t-0.5 2.5q0 3 2 3.5t4 0.5q6 0 11.5 -0.5t11.5 -0.5q2 1 2.5 3.5t0.5 4.5v5h-2t-3 0.5t-3 0.5h-2h-0.5h-1.5q-4 0 -8 -1.5t-8 -1.5q-3 2 -3.5 3t-0.5 4v3q0 1 1 2h6q5 0 10.5 -1t10.5 -1zM87 151v-2.5v-1.5q0 -1 0.5 -1.5l0.5 -0.5h14v4.5t-1 5t-3 4t-4 1.5
q-4 0 -5.5 -2.5t-1.5 -6.5zM73 128q0 -2 1.5 -3.5t3.5 -1.5h40q0 6 -2 10.5t-9 4.5h-6.5t-12 -1t-11 -3t-4.5 -6zM74 114l-0.5 -1l-0.5 -1q0 -5 4 -7.5t9 -2.5h23q3 0 6.5 2.5t3.5 6.5v2.5t-2 1.5h-14h-14.5t-14.5 -1zM71 66q0 3 1 6.5t2.5 6.5t4.5 4.5t7 1.5h29q4 0 6 -2.5
t3 -5.5t1.5 -7t0.5 -7v-4v-5q-2 -2 -4.5 -3.5t-5 -2.5t-6 -1h-5.5q-5 0 -11 0.5t-11 2t-8.5 5.5t-3.5 11zM99 54q3 0 6.5 0.5t6 1.5t4.5 3t2 6q0 5 -3 8t-7 4q-1 1 -5 1h-4l-3 -0.5t-6 -0.5t-6 -0.5t-3 -1.5v-15q0 -1 2.5 -2.5t5.5 -2l6 -1t4 -0.5zM57 45q0 3 1 3.5t4 0.5
t7.5 -2.5t9 -5.5t10 -5.5t10.5 -2.5q2 0 4.5 0.5l5 1t5 1.5t3.5 1q3 2 4.5 3.5t3 2.5l3 2t3.5 1t4 -1t2 -4q0 -5 -5.5 -7.5t-12 -4.5t-12 -3t-5.5 -3v-11q0 -1 -2 -2l-2 -1h-1q-2 0 -2.5 2t-1 4.5t-0.5 5t-1 3.5q-1 4 -7 6l-12 4t-11 4.5t-5 6.5z" />
</svg>
