<?xml version="1.0" standalone="no"?>
<!DOCTYPE svg PUBLIC "-//W3C//DTD SVG 1.1//EN" "http://www.w3.org/Graphics/SVG/1.1/DTD/svg11.dtd" >
<svg xmlns="http://www.w3.org/2000/svg" xmlns:xlink="http://www.w3.org/1999/xlink" version="1.1" viewBox="-10 0 266 256">
   <path fill="currentColor"
d="M189 248q0 2 1 2.5t2 0.5q3 0 5 -3v-8v-12v-11v-8v-36t-2 -36q0 -1 -0.5 -2t-0.5 -2q-1 0 -2 -2t-2.5 -4l-3 -4l-1.5 -2q-3 -4 -3.5 -8.5t-0.5 -9.5q0 -1 0.5 -4.5t0.5 -5.5q1 -3 5.5 -3.5t9 -1.5t8.5 -3.5t4 -8.5v-2t-0.5 -2.5t-1 -2.5t-1.5 -1q-2 0 -4 2.5t-4 5.5
t-5.5 5.5t-8.5 2.5h-1.5t-0.5 -2v-5q0 -10 3 -13.5t7 -5t7.5 -3.5t3.5 -8q0 -3 -1 -4t-3 -1t-3 1.5t-2.5 3t-3 3.5t-3.5 2q-3 0 -3 -3v-4q0 -7 3.5 -10.5t7 -6.5l7 -6t3.5 -10q-5 0 -8 2t-6 4.5t-6 5.5t-8 5q-1 0 -3.5 1t-5.5 2t-6 1.5t-4 0.5l-0.5 0.5t-0.5 1.5q0 3 1 3h3
h2h2.5t3 -0.5t3 -0.5h2.5h1v0q1 0 1.5 0.5l0.5 0.5v4v3q0 8 -3 10.5t-6.5 4t-6.5 2t-3 4.5h14q1 0 1.5 0.5l0.5 0.5v5q0 4 -0.5 9t-4.5 8h-1.5t-3.5 0.5t-3.5 0.5h-2.5q0 1 -2.5 1.5l-2.5 0.5q-1 0 -1.5 -0.5t-0.5 -1.5v-9q0 -7 1 -14.5t1 -14.5v-2.5t-0.5 -3l-1 -3
t-1.5 -1.5q-3 0 -3 2.5v4.5q0 1 -0.5 4.5l-1 7t-0.5 7v4.5v5v10.5v11.5v10v16v14t1 14.5t2 15.5q0 5 1.5 6t3.5 1t3 -1t1 -3q0 -8 -1 -15.5t-2.5 -15t-2.5 -15t-1 -15.5v-6q1 -2 3 -3.5t4.5 -2.5t5 -1.5t4.5 -0.5h1q1 0 2.5 1t1.5 2v20q4 5 8.5 11.5t6.5 13.5q1 12 1.5 25
t0.5 26.5v26.5v24zM133 215v5t0.5 6t0.5 6.5v4.5q1 4 3 6.5t6 2.5q2 0 3 -1t1 -3q0 -5 -2 -9.5t-3 -7.5q-5 -31 -7 -60.5t-2 -59.5v-7v-10.5v-10.5v-7q1 -6 1 -12v-12v-13l-0.5 -0.5l-0.5 -0.5q0 -1 -1 -1q-2 0 -3 3t-1.5 7l-1 8t-1.5 6v15t-0.5 14t-0.5 14v15v2v2t0.5 4
t0.5 4v2v5v8v7v5q1 6 1.5 16t2 19.5t2 17l0.5 7.5zM48 240q0 3 0.5 4t2.5 1q3 0 5 -5.5t2.5 -12l1 -13t0.5 -8.5v-8t0.5 -13.5t0.5 -15v-11.5v-3v-5v-4v-3q1 -15 2.5 -28.5t2.5 -27.5v-12q0 -9 0.5 -18t2 -16.5t4.5 -10.5q2 0 5.5 -1t7.5 -2l8 -2t5 -1t4 -0.5t7 -0.5
t7.5 -0.5t6.5 -0.5q1 0 4.5 0.5t7.5 0t7 -1.5t4 -3q0 -1 -1 -2t-1 -2l-2 -1h-6q-6 0 -12.5 1t-13.5 2q-2 0 -8 1t-13.5 2t-13.5 2t-9 1q-4 2 -5 4.5t-1.5 6t-1 7.5t-1.5 7q-1 28 -2.5 55t-3.5 55q-1 17 -1 35t-2 35v3t-0.5 4t-0.5 3.5v2.5zM82 229q0 1 0.5 4t1.5 4l1 0.5
l1 0.5q2 0 3 -1.5t1 -2.5q4 -19 5 -39.5t1.5 -41t0.5 -40.5t2 -40q1 0 2 -0.5l1 -0.5h1q2 0 3.5 3t2.5 4q-2 19 -3 38t-1 38v7v7.5v6.5v4q0 3 0.5 11t1 17t1 17.5t1.5 11.5q0 1 1 1h2q3 0 3.5 -1.5t0.5 -3.5q0 -21 -1.5 -41.5t-1.5 -42.5v-7v-12.5v-11.5v-8q1 -7 1 -13v-13
v-12q-1 -3 -3 -4.5t-5 -2t-5 -1t-2 -2.5v-29l-1 -1q-2 0 -3 6t-2 14.5t-1 19t-0.5 20.5t-0.5 18t-1 12v14.5t-3 13.5q1 10 0 20l-2 20t-2 19.5t-1 19.5zM80 44q-3 15 -4.5 31.5t-2 34t-0.5 33.5v33q4 0 5 -4t2 -6q0 -27 2 -53.5t2 -54.5v-2v-5v-4v-3t-0.5 -1.5t-1.5 -0.5v0
h-1l-0.5 0.5t-0.5 1.5z" />
</svg>
