<?xml version="1.0" standalone="no"?>
<!DOCTYPE svg PUBLIC "-//W3C//DTD SVG 1.1//EN" "http://www.w3.org/Graphics/SVG/1.1/DTD/svg11.dtd" >
<svg xmlns="http://www.w3.org/2000/svg" xmlns:xlink="http://www.w3.org/1999/xlink" version="1.1" viewBox="-10 0 266 256">
   <path fill="currentColor"
d="M52 246q0 2 2 3.5t4 1.5q4 0 7 -2.5t5 -6.5t3 -8t3 -7q2 -5 5 -11.5l6 -13t5 -12.5t3 -12l9 -49v-2q0 -5 -2.5 -10t-6 -10t-6 -9.5t-2.5 -10.5q0 -3 2 -5t4.5 -3.5t5.5 -3t5 -4.5q5 -5 6.5 -14t1.5 -16v-5.5t-3 -2.5t-4.5 3t-2 7t-1.5 9t-2.5 9t-4.5 7t-8 3v-4.5v-7.5v-7
v-6q0 -6 1.5 -12.5t1.5 -13.5v-7q-1 0 -2 -0.5l-1 -0.5h-2q-2 0 -3 4t-1.5 10.5t-0.5 14.5q0 7 -0.5 13.5t-1.5 11t-4 4.5q-4 0 -5.5 -2.5t-2.5 -6.5q0 -1 -0.5 -5l-1 -8l-1 -8t-0.5 -5q-1 -3 -2.5 -3.5t-3.5 -0.5q-6 0 -6 6q0 5 1 10t2.5 10t2.5 10t1 10q4 2 10 3.5t10 1.5
q2 2 2 3.5v3t-0.5 3t0.5 4.5t1.5 4t1.5 1.5t1.5 2t0.5 4.5v2v3q-1 1 -3 5t-4.5 8.5t-4.5 9t-3 5.5q-3 5 -6 8.5t-4 8.5q-1 4 -4 9t-5.5 10t-4 10t-1.5 8v2t2 2q4 0 7.5 -4t6 -9.5t4.5 -11t3 -8.5l4 -8l6 -12l6 -12l4 -8t4 -2q1 0 2 2t1 4v4v2q0 20 -6.5 39t-15.5 36
q-1 2 -4 7t-6.5 11t-6.5 10.5t-3 6.5zM189 222q0 3 1.5 8t4 9.5t5.5 8t7 3.5q3 0 3.5 -2t0.5 -4q0 -3 -2.5 -5.5l-5 -5t-4.5 -6.5t-2 -11q0 -5 2 -10t2 -10t-2.5 -8.5t-5.5 -6t-5.5 -5t-2.5 -7.5q0 -4 1 -5t4 -1h4t3 2l4 12l1 0.5t2 0.5q0 1 1 1t2.5 -2.5t1.5 -4.5v0
q0 -1 -0.5 -2t-1 -3t-1 -3.5l-0.5 -1.5v-3q0 -1 -0.5 -4l-1 -6t-0.5 -5.5v-3.5l-1.5 -1.5l-1.5 -1.5h-1q-3 0 -3 2.5t-0.5 5.5t-1.5 6t-5 3q-3 0 -4 -1.5t-1 -3.5t-0.5 -3.5t-2.5 -2.5h-3h-1v10q0 1 -2.5 1.5t-5.5 1t-5.5 1.5t-2.5 3q0 3 2.5 3.5t5.5 0t5 0t2 4.5
q0 3 -0.5 6t-2 5.5l-3 5t-2.5 5.5q-4 10 -5.5 21.5t-1.5 21.5v10q1 1 1.5 2.5t2.5 2.5l3.5 -3.5t2.5 -4.5v-6.5v-8.5v-9v-6t0.5 -6.5t1.5 -8.5t3 -7t6 -3t6.5 4t2.5 7q0 6 -1.5 12.5t-1.5 12.5zM105 247q1 2 2 2h2q2 0 3 -1.5t2 -3.5v-6v-9v-9v-6q0 -4 1.5 -8t3.5 -7.5l4 -7
t4 -7.5h1h2q3 0 7 2.5t4 6.5q0 9 -2 18t-2 18v5q0 3 0.5 6.5t2 6t4.5 2.5q2 0 3 -1.5t2 -3.5q-1 -4 -2 -6.5t-1 -5.5t-0.5 -5t-0.5 -6q0 -6 1 -12t1 -13q0 -5 -1.5 -8.5t-4 -6t-4.5 -5t-2 -5.5t3 -6.5t6 -3.5q2 0 3 2t2 4.5t1.5 5.5t1.5 5h1h1l1 -1l1 -1v-30l-1 -1.5
l-1 -1.5h-0.5h-0.5q-3 0 -4 1.5t-1.5 3.5t-1 3.5t-3.5 1.5t-4 -2t-1.5 -4t-1.5 -4t-3 -2t-2.5 2t-0.5 4q0 3 -0.5 5t-2.5 2t-5 0.5l-6 1t-5 2t-2 5.5h17q0 6 -0.5 9t-2 5.5t-3.5 5t-6 6.5q-3 4 -5 10t-3 12t-1 12v10v3v4.5v3.5v3zM162 98q6 0 8 3.5t2.5 8.5t0.5 10.5t3 8.5
q0 1 1 2.5l2 3l2 3l1 1.5h2q2 0 3.5 -0.5t1.5 -3.5v-1v-1l-9 -10v-22l-1 -1l-2 -2t-3.5 -2.5t-4.5 -2.5t-3.5 -2.5t-1.5 -3.5q0 -1 2.5 -2t6 -1.5t6.5 -0.5h4h5q2 0 4 2q1 3 1.5 6.5t1.5 6.5t3 5t6 2q0 -11 -2.5 -20t-4.5 -20h-0.5h-1.5q-2 0 -3 1t-1.5 2t-1.5 2.5t-2 2.5
q-1 0 -3 0.5t-5 1t-5 1t-4 1.5h-1q-1 0 -2 -0.5t-1 -1.5v-12q-1 -2 -1.5 -3.5t-2.5 -1.5h-0.5h-0.5l-4 17l-1 2h-3h-4.5t-5 0.5l-2.5 0.5h-3.5t-3 0.5t-3 1.5t-1.5 3q0 1 0.5 2t1.5 1h15q2 0 3 2t1 3q0 5 -3 10l-6 10t-6 10.5t-3 11.5q5 0 8 -2.5t4.5 -6.5t2.5 -8.5t3 -8.5
t4 -6.5t7 -2.5zM120 66h0.5h0.5q0 1 1 1.5t2 0.5v0q7 0 12 -3t10 -7t10.5 -7t11.5 -3q10 0 20.5 5.5t18.5 11.5q2 -1 3.5 -2t1.5 -3q0 -4 -3 -7t-7.5 -5t-10 -3t-10 -2.5t-8 -3t-3.5 -4.5v-2l0.5 -2.5l1 -5t0.5 -4.5v-3q0 -3 -1.5 -4.5t-4.5 -1.5v0q-1 0 -2 2t-1 4t-0.5 3.5
l-0.5 1.5v3v4v4v2q0 3 -3.5 5.5t-8 5t-10 5t-10 4.5t-7.5 4.5t-3 5.5z" />
</svg>
