<?xml version="1.0" standalone="no"?>
<!DOCTYPE svg PUBLIC "-//W3C//DTD SVG 1.1//EN" "http://www.w3.org/Graphics/SVG/1.1/DTD/svg11.dtd" >
<svg xmlns="http://www.w3.org/2000/svg" xmlns:xlink="http://www.w3.org/1999/xlink" version="1.1" viewBox="-10 0 266 256">
   <path fill="currentColor"
d="M152 244q0 2 1.5 3t3.5 1q1 0 2.5 -1.5t2 -3.5l1 -4t0.5 -3v-7.5v-11.5v-14v-14v-12v-7v-3t0.5 -5t0.5 -5.5t1 -3.5v-6q0 -5 0.5 -9t1 -7.5t2.5 -3.5q4 0 6.5 2t4 5.5t2.5 7t1 7.5q0 2 1 6.5t1.5 9t0.5 8v4.5v7v11v11v6t0.5 4.5t1.5 4.5h1v0q3 0 4.5 -1.5t2.5 -4t1 -5
v-4.5v-9t-0.5 -16t-1.5 -18.5t-2.5 -17.5t-4 -14t-5.5 -7l-16 -4v-11l4 -3q10 0 16.5 -3.5t6.5 -14.5q0 -4 -0.5 -7.5t-0.5 -7.5q-8 -5 -16 -5h-11.5t-14 2t-11 5.5t-4.5 10.5q0 9 3.5 12.5t7 5.5t7 3.5t3.5 5.5t-1.5 6t-3.5 3t-5 2t-6 3t-4 4.5t-4 4.5q1 5 0 9.5l-2 9t-3 9
t-3 9.5q-2 11 -2.5 23.5t-0.5 24.5q3 0 6.5 -1.5t4.5 -4.5v-15t1 -16t2 -15.5t2 -14.5q0 -2 1 -6.5t2.5 -8.5t4.5 -7t7 -3h1l0.5 1t0.5 2v20q0 21 -1.5 42t-1.5 42v8zM49 224q0 3 0.5 4t4.5 1t8 -3.5t7.5 -9.5t6.5 -13.5t5 -14.5t3 -13t1 -9v-4v-3q-2 -3 -6.5 -4t-8.5 -2.5
t-7 -3.5t-3 -7t3.5 -8t7.5 -6t7.5 -7.5t3.5 -14.5q1 -1 2.5 -2t2.5 -1q3 0 5 4t3 10.5t2 14t2 14t3.5 11t6.5 4.5q2 0 3.5 -1t1.5 -3v-1q-6 -10 -9 -20.5t-3 -21.5v-10h2.5h3t3 -0.5t2.5 -0.5q1 -1 3 -2t2 -3l-1.5 -1.5t-2.5 -1.5h-42q-3 0 -5 -1t-2.5 -3.5t-1 -4.5l-1 -4
t-1.5 -3.5t-4 -1.5q-7 0 -7 6q0 1 0.5 1.5l0.5 0.5v2.5v3.5t0.5 3.5t0.5 2.5q3 3 6 3.5l6 1t5 2t2 5.5q0 6 -4 9l-8 6t-8 6.5t-4 9.5q0 8 2 11.5t5 5t6.5 2t6.5 1t5 2.5t2 8v4q-1 1 -2 4.5t-2.5 7.5t-3 7.5t-1.5 4.5q-2 3 -4.5 6.5l-5 7t-4.5 7t-2 5.5zM147 97
q-1 -1 -2 -2.5l-1 -1.5q0 -6 3 -9t7 -4.5t9 -2t9 -0.5t7.5 0.5t3.5 5.5t-1 8.5t-3.5 5t-6.5 1.5h-9h-2h-2t-4.5 -0.5t-4.5 -0.5h-3zM68 73q8 2 16 3t16 1q4 0 6 -0.5t4 -3.5q1 -2 -1.5 -3.5t-3.5 -1.5h-22q-1 0 -3 -0.5t-3 -0.5q-3 -2 -5 -6t-3 -7.5t-2 -6.5t-2 -3
q-3 0 -5.5 0.5t-2.5 3.5t0.5 7t1.5 7.5t3 6.5t6 4zM122 62q0 1 0.5 2t1.5 1q7 0 12 -3.5t10 -7.5t10.5 -7t11.5 -3q7 0 11.5 3t8.5 6l8 6t9 3q3 0 4 -2t1 -4q0 -4 -4.5 -7t-10 -5.5t-11.5 -4.5l-9 -3t-3 -4.5v-7.5t-1 -7t-5 -3h-1.5t-3 0.5t-2.5 1.5t-1 2v18q0 1 -5.5 4
t-12.5 6.5t-12.5 7.5t-5.5 8zM57 15q0 10 3 15.5t8.5 8.5t13 4t16.5 1h12q1 -1 1.5 -2t0.5 -2l-0.5 -1l-0.5 -1q-1 0 -5 -0.5t-8.5 -0.5t-8.5 -0.5t-6 -0.5q-5 0 -8 -2.5t-4 -6t-1 -8t-1 -8.5q0 -2 -3 -2h-3q-6 0 -6 6z" />
</svg>
