<?xml version="1.0" standalone="no"?>
<!DOCTYPE svg PUBLIC "-//W3C//DTD SVG 1.1//EN" "http://www.w3.org/Graphics/SVG/1.1/DTD/svg11.dtd" >
<svg xmlns="http://www.w3.org/2000/svg" xmlns:xlink="http://www.w3.org/1999/xlink" version="1.1" viewBox="-10 0 266 256">
   <path fill="currentColor"
d="M90 157v13t2 15t6 12.5t13 6.5h6t10.5 0.5t10.5 0.5h6q10 1 15.5 4.5t8.5 8.5t4.5 11t2 11t1 8t2.5 3q4 0 3 -5v-12q0 -12 -3 -19.5t-8.5 -11.5t-14.5 -5t-20 -2l-3 -3v-19q5 0 11.5 0.5t11 0t8 -3.5t3.5 -11v-3v-4q-1 0 -2.5 -2t-2.5 -2h-1h-0.5h-0.5q0 4 -0.5 7.5t-2 6
t-4 4.5t-7.5 2q-4 0 -6.5 -2t-3.5 -5.5t-1.5 -7t-0.5 -6.5q0 -1 0.5 -3.5t1.5 -4.5t2.5 -4t3.5 -2h56q3 0 5.5 -2.5t2.5 -5.5h-58l-2.5 0.5t-3.5 1.5h-4t-6 0.5t-6 0.5h-4q-1 1 -3 1.5t-4 0.5h-4h-2h-5t-8.5 0.5t-8 0.5h-4.5h-6h-10h-9h-6v3.5t2 2.5h4.5h7.5h7h5
q12 0 24 -0.5t23 -0.5v54q0 1 -1.5 3t-2.5 2q-2 0 -4.5 -0.5t-5.5 -2t-5 -3.5l-3 -3q-1 -2 -2 -8t-2 -12.5t-2.5 -12t-4.5 -5.5t-3 3v2t2 3zM65 109l5 3h2t4.5 0.5t4.5 0.5h4h5t6.5 -0.5t6.5 -0.5h3q1 0 4.5 -0.5t7.5 -1.5t8 -1.5t5 -0.5h9h14h14h10l3 -2v0v-1l-2 -2l-1 -1
h-58h-6l-44 4q-1 0 -2.5 1t-2.5 2zM91 62q0 5 1.5 9.5t5 8.5t7.5 6t9 2h15q7 0 13 -1t11 -4.5t11 -9.5l2 -3v-5.5v-4.5q0 -20 -10.5 -28t-28.5 -8h-4.5h-4.5q0 2 -2 3l-4 2t-4 1.5t-3 1.5q-5 2 -7.5 5.5t-4 7.5t-2 8.5t-0.5 8.5zM100 58v-4v-4q1 -5 5 -8t9 -5t10 -3t9 -1
q6 0 10 2t6.5 5.5t3.5 8t1 10.5q0 1 -0.5 4.5t-0.5 4.5q-1 5 -4 7.5t-6.5 3.5t-7.5 1h-8h-12q-8 -1 -11.5 -7.5t-3.5 -14.5zM118 54q0 3 2 4t5 1h3h3.5t2.5 -1t1 -3q0 -4 -2.5 -6t-5.5 -2t-6 2t-3 5z" />
</svg>
