<?xml version="1.0" standalone="no"?>
<!DOCTYPE svg PUBLIC "-//W3C//DTD SVG 1.1//EN" "http://www.w3.org/Graphics/SVG/1.1/DTD/svg11.dtd" >
<svg xmlns="http://www.w3.org/2000/svg" xmlns:xlink="http://www.w3.org/1999/xlink" version="1.1" viewBox="-10 0 266 256">
   <path fill="currentColor"
d="M62 248l0.5 1t1.5 2q6 -3 10.5 -9.5t7.5 -15t4.5 -17t2.5 -14.5q1 -2 1 -9t0.5 -15t1 -14.5t0.5 -9.5q1 -9 4 -14t12 -9h1q2 0 3.5 2t2 4t1 4.5t0.5 3.5q0 3 -2 6t-4 5.5t-4.5 5.5t-2.5 7q0 3 2 7t6 4q0 -3 -1 -6.5t-1 -6.5t1.5 -4.5t3.5 -1.5h1l7 7h5q0 -2 -1.5 -4
t-2.5 -4t-2.5 -3.5t-1.5 -4.5v-1q1 0 1 -2.5t1 -2.5q7 0 12.5 -1t11.5 -4q1 0 2 -1t1 -2v-12l3 -2q7 0 12.5 -0.5t9.5 -2.5t5.5 -6.5t1.5 -12.5v-9q0 -1 -0.5 -2.5t-2.5 -1.5q-3 1 -3.5 3.5t-0.5 5.5v6.5t-1 6.5t-4.5 4.5t-10.5 1.5h-5q-2 0 -2 -2.5v-2.5q0 -6 2.5 -7
t5.5 -1h6t4 -2l-3 -2h-29l-0.5 -0.5l-0.5 -0.5v-2.5v-2.5v-3.5t3 -3.5l32 -4q8 -1 12 -5.5t6.5 -11t3.5 -13t1 -12.5v-3v-2.5t-1 -2.5t-2 -1h-1v0l-0.5 0.5t-1.5 0.5q0 10 -2.5 21t-8.5 19q-3 2 -6.5 3t-6.5 1q-4 0 -5 -0.5t-1 -4.5q0 -9 3.5 -14.5t7 -9.5t6.5 -7t3 -9
q-3 0 -5.5 2t-5 4.5t-5 4.5t-5.5 3l-5.5 -5.5t-7.5 -5.5l-0.5 0.5l-0.5 0.5v0.5v0.5v0.5v0.5q1 3 4 6t5 6q1 3 1.5 5.5t1 4.5t0.5 4v5q0 6 -2 9.5t-10 3.5q-1 0 -3.5 -0.5t-2.5 -2.5v-51q0 -3 -2.5 -6t-4.5 -4l-1 1v63h-14l-3 -3v-19q0 -2 1.5 -4l3 -4t3 -4.5t1.5 -4.5
q-3 0 -4.5 1t-2.5 3t-2.5 3.5t-4.5 1.5v0h-1q-5 -5 -9 -10t-7 -12l-1.5 -0.5t-2.5 -0.5h-1v0q3 8 8.5 15.5t11.5 14.5q1 4 1 6.5v6.5v3v2q-1 2 -3 2.5t-3 0.5q-7 0 -10.5 -4.5t-5.5 -11t-3 -14t-5 -11.5q-2 0 -1.5 2t0.5 3q0 4 0.5 9.5t2 11t4 10.5t6.5 8q2 2 8.5 2.5
t14 0.5t13 1.5t5.5 3.5t-0.5 5.5t-2.5 3.5l-44 3q-3 0 -4 2t-1 4q6 0 12 -1t13 -1h4h4q3 2 3 4.5v4.5v3v2q-1 2 -4 4t-6.5 3.5t-7.5 3.5t-6 5q-4 5 -5 16t-1 23.5v24.5t-2 20q-2 3 -4.5 8t-5.5 10t-5.5 9.5t-2.5 6.5zM116 227q0 10 6.5 14t16.5 4q8 0 14 -6t6 -15
q0 -1 -0.5 -4t-2 -5.5t-3.5 -4.5t-4 -2h-18q-4 0 -6.5 2t-4.5 5t-3 6t-1 6zM122 225v-6q2 -4 7.5 -4.5t9.5 -0.5q7 0 10 2.5t3 9.5q0 2 -0.5 4t-1.5 4t-3 3.5t-4 1.5h-14l-2 -2l-3 -3q-2 -2 -2 -4v-5zM132 225q0 2 1.5 3t3.5 1t3.5 -0.5t1.5 -2.5q0 -3 -1.5 -4t-4.5 -1
q-2 0 -3 1t-1 3zM137 187q-1 0 -3 2t-4.5 3.5t-4.5 3t-3 2.5q-2 2 -5.5 4l-7 4t-6.5 4.5t-3 4.5h1h1q1 0 3.5 -1t2.5 -2q4 -2 7.5 -4.5l7 -5t7.5 -5t9 -4.5q2 1 5.5 3t6.5 5q8 4 17.5 8.5t19.5 4.5q0 -3 -6.5 -5.5t-15 -6t-15.5 -7.5t-8 -11v-4t-0.5 -6t-0.5 -6v-4
q-1 -2 -2 -3.5t-3 -1.5v28zM124 174q-1 0 -4 3.5t-7 7.5l-7 7t-3 4q3 0 7 -2t7.5 -4.5t5.5 -6t2 -6.5v-2t-1 -1zM149 171q0 5 3 9t7.5 7t9.5 4.5t9 1.5q0 -2 -1.5 -3l-3 -2t-3 -1.5t-2.5 -1.5q-2 0 -5 -3t-5.5 -6t-4.5 -5.5l-2 -2.5q-2 0 -2 1.5v1.5zM153 154q0 5 3.5 7.5
t8 4.5t9.5 3t9 1q0 -3 -3.5 -5t-8.5 -3.5t-8.5 -3.5t-3.5 -6v-3q0 -1 2 -2q1 1 4.5 2.5t4.5 1.5q1 1 2.5 1.5t3.5 1.5t3.5 1.5t2.5 0.5q3 0 3 -4v-0.5v-0.5l-19 -8q-2 -1 -2.5 -3t-1 -4.5t-1.5 -4t-3 -1.5q-1 0 -1.5 3.5t-1.5 8t-1.5 8.5zM118 125q0 -2 2 -3.5t5 -2t6 -0.5
h4h7l0.5 1l0.5 1v1q0 5 -4 8t-8 3q-2 0 -4.5 -0.5t-4 -1.5t-3 -2.5t-1.5 -3.5zM118 107q0 -2 1 -5t3 -3h21q1 0 1.5 0.5l0.5 0.5v4v3q0 1 -0.5 2.5t-1.5 2.5t-2 1h-20q-2 0 -2.5 -2.5t-0.5 -3.5z" />
</svg>
