<?xml version="1.0" standalone="no"?>
<!DOCTYPE svg PUBLIC "-//W3C//DTD SVG 1.1//EN" "http://www.w3.org/Graphics/SVG/1.1/DTD/svg11.dtd" >
<svg xmlns="http://www.w3.org/2000/svg" xmlns:xlink="http://www.w3.org/1999/xlink" version="1.1" viewBox="-10 0 266 256">
   <path fill="currentColor"
d="M80 244q0 3 0.5 4.5t3.5 1.5t4.5 -1t1.5 -5v-21v-21l-0.5 -2t-0.5 -4.5t-0.5 -4.5l-0.5 -2q0 -6 0.5 -13.5t2.5 -13.5h2q3 0 5.5 2.5t4 5.5t2.5 6.5t2 5.5q0 2 0.5 6t1 9t1 9t0.5 6v4.5v7.5v7.5v4.5q-1 3 0.5 4t3.5 1q3 0 4 -2t1 -5v-9t-0.5 -13.5t-1.5 -15.5t-2 -15
t-2.5 -12.5t-4.5 -7.5q-2 -2 -5.5 -3.5t-6.5 -3t-5.5 -3.5t-2.5 -5v-4t3 -3q3 0 8.5 -1t10.5 -3t8.5 -5t3.5 -8v-20q0 -2 -1 -4t-3.5 -3.5l-5 -3t-4.5 -1.5h-3.5t-6 -0.5t-6.5 -0.5h-4v-16q10 0 15 -4.5t7 -11.5t2 -15v-16q0 -2 -1.5 -3t-3.5 -1q-3 0 -4.5 1.5t-1.5 5.5v26
l-1 1.5t-2 3.5t-2.5 3t-2.5 1q-3 0 -5 -3v-4v-4q0 -8 1 -16t1 -16v-6q-2 -3 -5 -3q-1 0 -3 0.5t-2 2.5v48q0 1 -2.5 1h-2.5q-4 0 -5.5 -3t-2 -7.5t-0.5 -9.5t-0.5 -9.5t-1.5 -7.5t-4 -3h-1l-1.5 0.5t-1.5 1.5v15v15q0 2 0.5 5l0.5 3q3 5 7 6.5t7.5 2t6 2.5t2.5 8v3t-1 3
q-3 1 -8.5 2t-11 2.5t-9 4t-3.5 8.5v24q0 1 1 2.5t2.5 3.5t3 3t2.5 1h20q3 0 3.5 3t0.5 4q0 3 -4 5.5t-8.5 6.5t-8.5 9t-5 14q0 3 -0.5 10.5t-1 15.5t-1 15t-0.5 10q0 1 -0.5 2.5t-0.5 2.5q0 2 1 4t4 2t4.5 -6t2 -15t1 -19.5t2 -19.5t5 -15t10.5 -6q0 16 0.5 31.5t0.5 31.5
q0 5 -1 9.5t-1 8.5zM166 168v1q0 4 0.5 15.5t1 24t1 24t0.5 15.5l1 0.5t2 0.5q2 0 3.5 -1t2.5 -4q0 -1 0.5 -3t0.5 -5v-4v-3q0 -7 -1.5 -14.5t-1.5 -13.5v-3t0.5 -4t0.5 -4.5v-2.5v-1q0 -30 -2.5 -60t-2.5 -60q0 -10 1 -19t1 -18v-6l-3 -3t-4 -2l-1 1.5l-1 1.5v88v2t0.5 4
t0.5 3.5v2.5v6v9v9.5v6.5l0.5 2.5t0.5 3.5v1.5t-0.5 3t-0.5 3v1.5v1zM136 139q1 5 2.5 8t3 5.5t5 4t8.5 1.5q1 0 3 -0.5t2 -2.5q0 -3 -2.5 -3.5t-5.5 -2.5t-5.5 -6.5t-2.5 -13.5v-5q1 -1 3.5 -1.5t4.5 -1t3.5 -1.5t1.5 -4q0 -1 -2 -1.5t-4.5 -0.5t-4.5 -0.5t-2 -1.5v-22h3
t4 -0.5t3 -1t1 -2.5t-1.5 -3t-3.5 -1t-4 -0.5t-2 -2.5v-24q0 -2 -0.5 -2.5t-2.5 -0.5t-4 2t-2 4q1 9 1 19.5t0.5 21.5t0.5 21t-1 19zM198 127q0 2 -0.5 4.5l-1 5t-1.5 5t-2 4.5q-3 2 -5 3t-4 1.5t-3.5 2t-1.5 5.5q4 0 8.5 -1.5t8.5 -4t7.5 -6t3.5 -7.5v-61q-1 -3 -1 -8v-10
t-1.5 -8.5t-5.5 -3.5h-3q-1 0 -2 2v6q0 5 1.5 10t1.5 10q0 1 -2 2t-5 1.5t-5.5 1l-2.5 0.5q-1 0 -1.5 1.5l-0.5 1.5q0 3 2 4t5 1h5.5h3.5l1 3v18q0 2 -2.5 2.5t-6 0.5t-6 0.5t-2.5 2.5q0 3 2 4t5 1h5.5h3.5l1 1q0 1 0.5 2.5t0.5 2.5zM57 109l6 -7v6.5v7.5t1.5 7t3.5 3h2.5
t1.5 -2v-8v-9t-6 -6q1 -2 3.5 -2.5t4.5 -0.5t3 0.5t2 2.5q0 3 0.5 5.5t0.5 5t0.5 5t0.5 5.5q0 4 -0.5 7.5t-6.5 3.5q-1 0 -4 -0.5t-6 -1.5t-5 -2t-2 -3v-17zM88 115v-3.5v-5.5t0.5 -5.5t2.5 -2.5h8q10 0 13 4t3 14q0 2 -0.5 5.5t-2.5 4.5l-18 7h-4l-0.5 -1t-0.5 -2.5
t-0.5 -3t-0.5 -2.5v-3.5v-5.5zM98 101v0q-1 0 -1.5 0.5l-0.5 0.5v20q0 1 0.5 2t1.5 2l0.5 0.5l0.5 0.5q2 0 3.5 -2t1.5 -4.5v-4.5v-4v-4v-4q-1 -1 -2.5 -2t-3.5 -1z" />
</svg>
