<?xml version="1.0" standalone="no"?>
<!DOCTYPE svg PUBLIC "-//W3C//DTD SVG 1.1//EN" "http://www.w3.org/Graphics/SVG/1.1/DTD/svg11.dtd" >
<svg xmlns="http://www.w3.org/2000/svg" xmlns:xlink="http://www.w3.org/1999/xlink" version="1.1" viewBox="-10 0 266 256">
   <path fill="currentColor"
d="M160 246q1 2 2.5 2.5t3.5 0.5t3 -1t1.5 -2.5t0.5 -4.5v-4v-156q0 -4 2 -5t5.5 -1t7.5 -0.5t7.5 -3t5.5 -8.5t2 -18q0 -3 -1 -5t-4 -2t-4.5 3.5t-1.5 8t-0.5 8t-3.5 3.5h-10q-1 0 -1.5 -0.5t-0.5 -1t-0.5 -1.5l-0.5 -1v-34q0 -3 -2.5 -4t-4.5 -1t-4 0.5t-2 2.5v29
q1 1 1.5 3l0.5 2l-0.5 2t-1.5 3l-0.5 0.5l-0.5 0.5h-12l-2 -1q-2 -2 -1.5 -5.5t0.5 -7.5q0 -3 -1 -6t-5 -3t-4.5 1.5t-0.5 4.5q0 7 0.5 12.5t2.5 12.5q1 3 5.5 4l9 2t8 2.5t3.5 5.5v100q-1 1 -1 4.5t-1 4.5v2q0 5 1 9.5t1 9.5t-1 10t-1 11v2v4v4v2zM76 243q0 3 2 3h3
q6 0 8 -6q0 -4 -0.5 -13.5t-0.5 -19.5q0 -11 0.5 -20t0.5 -13v-3.5t0.5 -5.5t0.5 -5v-3v-11.5v-8.5q0 -5 0.5 -9t1.5 -10h0.5h0.5h2t1 2q1 1 2 4.5t1.5 7.5t1.5 7.5t1 4.5v3v3v3v2q0 1 0.5 3.5t1.5 2.5q-1 19 0.5 37.5t0.5 36.5q1 2 2 2h2q3 0 4 -1.5t2 -4.5t1 -5.5v-4.5
q0 -18 -0.5 -36t-2.5 -36q0 -3 -1 -9t-2.5 -12t-4 -11t-4.5 -7q-1 0 -4.5 -1.5t-4.5 -2.5v-8q0 -9 1.5 -11.5t4 -3.5t5.5 -2.5t5 -6.5q1 -3 2 -7t1 -9t0.5 -9.5t0.5 -7.5q0 -2 -0.5 -5.5t-4.5 -3.5q-2 0 -3 1.5t-2 3.5v4t-0.5 6t-0.5 6v4t-0.5 3.5t-1 4.5t-1.5 3.5t-3 1.5
h-2t-1 -1v-52q0 -4 -2 -5.5t-4 -1.5q-1 0 -3 0.5t-2 1.5v57q0 2 -1.5 3.5t-3.5 1.5q-4 0 -5.5 -3t-2 -7.5t-0.5 -9.5q0 -6 -0.5 -10t-2.5 -7t-5 -3q-2 0 -3 0.5t-2 2.5v2t0.5 4.5t1 4.5l0.5 2q0 1 0.5 3.5t0.5 3.5q1 7 1.5 12t2.5 8.5t6 5.5t13 3v15q0 1 -2.5 3t-6 4.5
t-7 4.5t-4.5 4q-2 10 -4.5 19t-2.5 19q0 2 -0.5 8.5t-1 14.5t-0.5 17t-0.5 17.5t-1 14.5t-0.5 8v2q0 2 1.5 4t4.5 2t5 -3t2 -6q0 -8 -1 -15t-1 -15v-8t0.5 -16t1.5 -20t3 -20t4.5 -14.5t5.5 -5.5t3 1v4q0 25 -1.5 49.5t-1.5 49.5v19zM130 193v13t0.5 18t2 15.5t3.5 6.5
q4 0 5 -3t1 -6q0 -11 -1 -22t-1 -22v-16.5t2 -15.5q1 -5 3 -10t3.5 -10.5t3 -10.5t1.5 -11q0 -4 -1 -9.5t-4 -10.5t-6.5 -8.5t-8.5 -3.5h-2.5h-2.5q0 1 -0.5 2l-0.5 1q0 3 3 6t7 6.5t7 8t3 10.5q0 4 -1.5 7.5t-3.5 7t-4.5 7t-3.5 6.5q-3 10 -3.5 22t-0.5 22zM189 238
q0 2 1.5 4.5t4.5 2.5q1 0 2 -0.5t1 -1.5q4 -6 5.5 -13t2 -14t0.5 -14v-15q0 -13 -3 -25l-6 -24q-1 -4 -3.5 -7.5t-2.5 -8.5q0 -4 1.5 -7.5l3 -7l3 -7t1.5 -7.5q0 -2 -0.5 -4t-3.5 -2t-6 4.5t-4.5 10t-2.5 11.5t-1 9q0 5 1 9t3 7.5t3.5 7t2.5 8.5q2 10 2 19v20v27
q-1 4 -3 8.5t-2 9.5z" />
</svg>
