<?xml version="1.0" standalone="no"?>
<!DOCTYPE svg PUBLIC "-//W3C//DTD SVG 1.1//EN" "http://www.w3.org/Graphics/SVG/1.1/DTD/svg11.dtd" >
<svg xmlns="http://www.w3.org/2000/svg" xmlns:xlink="http://www.w3.org/1999/xlink" version="1.1" viewBox="-10 0 266 256">
   <path fill="currentColor"
d="M76 249q0 1 1 1.5t2 0.5q4 0 6 -3t3 -6v-45q0 -27 -1 -54.5t-1 -54.5q0 -5 2.5 -6t5.5 -1.5t6.5 -1t5.5 -2.5l1 -1.5t2 -2.5t1.5 -2l0.5 -1q1 -6 1.5 -10l1 -8l1 -8t0.5 -9v-7q-1 0 -2 -1.5t-2 -1.5h-1v0v0q-1 0 -2.5 1.5l-1.5 1.5q0 5 -1.5 11.5t-1.5 12.5
q-1 3 -0.5 6.5t0 6.5t-2 5t-6.5 2h-5q0 -1 -0.5 -1.5l-0.5 -0.5v-51q0 -3 -1 -4.5t-4 -1.5q-2 0 -3 1.5t-1 4.5v47q0 3 -2.5 4.5t-4.5 1.5q-4 0 -6 -4t-3 -9t-1 -11.5t-0.5 -12t-1.5 -9t-3 -3.5q-5 0 -6 3t-1 7q0 3 1 10t2.5 14.5t4 13.5t4.5 8q4 2 8.5 2.5t8.5 4.5v9
q0 32 -1.5 64t-1.5 65v25zM166 247q-1 3 1 3.5t3 0.5q2 0 4.5 -0.5t1.5 -3.5v-14v-15q0 -2 -0.5 -7t-0.5 -10.5t-0.5 -10.5t-0.5 -7q0 -1 -0.5 -3t-1.5 -3v-1q0 -2 1 -4t1 -5q0 -16 -1 -32t-1 -32v-7.5v-7.5v-4l21 -5q3 -1 5 -7.5t2.5 -14t0.5 -14.5v-9v-3q0 -3 -0.5 -5.5
t-1.5 -4.5t-4 -2q-2 0 -4 2t-2 5v28q-1 2 -1.5 5.5t-1 6t-2.5 4.5t-6 2h-2.5h-1.5q0 -1 -2 -3.5t-2 -4.5v-32q1 -1 2.5 -4.5t1.5 -4.5v-1v-1q0 -2 -2.5 -5.5t-5.5 -3.5q-1 0 -2.5 2t-1.5 4v54h-14q-1 0 -2 -4.5t-1.5 -9.5t-0.5 -9.5v-5.5q-1 -1 -1 -3t-0.5 -4.5t-0.5 -4.5
v-3h-2q-2 0 -3 2t-1.5 4.5t-0.5 5.5v4v7t0.5 6.5l1 7t1.5 8.5q3 3 5.5 5t5.5 3t6.5 1h6.5q0 1 0.5 2t0.5 2.5t0.5 3l0.5 1.5v6v9v10v5q0 2 0.5 9.5t0.5 15.5t0.5 15t0.5 9v9v13v16v16v14v9zM52 129q0 29 -3 58.5t-3 58.5q4 0 7 -2t5 -6q1 -9 1.5 -20.5t1 -22.5t0 -22
t-0.5 -19v-11v-17v-17v-11t-2 -4t-4 -1t-3 0.5t-1 3.5v2v4v4v2v3v5v2.5v1.5q0 1 1 4t1 4zM198 231v13q0 1 2 1h2q4 0 6 -3t2 -7v-1v-1q0 -1 -0.5 -3.5t-1.5 -5t-1 -5v-3.5q-1 -1 -1.5 -9t-1 -16.5t-1 -16.5t-0.5 -9q-1 -9 -2.5 -17t-1.5 -18q0 -7 1 -14t1 -14v-3.5v-3.5
q-1 -2 -2 -3t-3 -1t-4 1.5t-3 4.5v3v6v6v4v5v7v5v3q1 4 1.5 11t1 16.5t1.5 20t2 20t1.5 16.5t1.5 11zM103 238q0 3 1.5 3.5t3.5 0.5q3 0 4 -1t3 -5v-10q0 -31 -2.5 -62.5t-1.5 -63.5q1 -3 -0.5 -4.5t-3.5 -1.5q-1 0 -1.5 0.5t-1.5 0.5l-1 9v103q1 4 1.5 6.5t0.5 5.5
q0 5 -1 9.5t-1 9.5zM133 234q0 3 0.5 5.5t4.5 2.5h3t3 -2q-1 -3 -1 -8.5v-11.5v-11.5t1 -8.5v-1.5t0.5 -3t0.5 -2.5v-2v0q0 -7 -0.5 -13t-0.5 -13v-16v-2.5t0.5 -3.5t0.5 -3.5v-1.5q0 -1 -0.5 -2.5l-0.5 -1.5v-29l-1 -2t-1 -3t-1 -2l-1 -1q0 -1 -1 -1t-1 1q-1 0 -2 0.5
l-1 0.5v118q0 1 -0.5 3.5t-0.5 4.5t-0.5 4t-0.5 3v3z" />
</svg>
