<?xml version="1.0" standalone="no"?>
<!DOCTYPE svg PUBLIC "-//W3C//DTD SVG 1.1//EN" "http://www.w3.org/Graphics/SVG/1.1/DTD/svg11.dtd" >
<svg xmlns="http://www.w3.org/2000/svg" xmlns:xlink="http://www.w3.org/1999/xlink" version="1.1" viewBox="-10 0 266 256">
   <path fill="currentColor"
d="M125 180q-1 17 0.5 34.5t1.5 34.5q10 0 10 -11q0 -1 -0.5 -4.5t-0.5 -4.5v-49q0 -1 2.5 -1.5t3.5 -0.5q2 0 4.5 1.5t4 4t2.5 5t1 4.5q0 1 0.5 3.5t1 5.5t1 5.5t0.5 3.5t1.5 4t2.5 4v4v6v6v4q0 2 0.5 2h1.5q2 0 3.5 -0.5t2.5 -2.5q1 -1 1 -4v-4q0 -12 -2 -24.5t-7 -24.5
q-2 -3 -6 -4.5t-8.5 -3t-7.5 -3t-3 -5.5q0 -3 2.5 -4.5t6.5 -2t8.5 -1t8.5 -2t6.5 -4.5t2.5 -9v-6q-1 -1 -1.5 -1h-1.5q-4 0 -5 1t-2 2.5t-1.5 3.5t-2 4t-5 3t-10.5 1h-5l-1 -2v-23q0 -1 1 -1.5t2 -0.5t2.5 -0.5t3 -0.5t3 -0.5t2.5 -0.5q3 0 10.5 -0.5t16 -1t16 -0.5h10.5
q1 -1 1.5 -2l0.5 -1v-1q0 -3 -2.5 -3.5t-4.5 -0.5q-15 0 -30.5 1.5t-31.5 1.5v-10q0 -1 3 -1.5t7.5 -1t10.5 -1.5t11 -2t8.5 -2.5t5.5 -3.5q3 -6 3.5 -12.5t0.5 -13.5q0 -1 0.5 -3t0 -3.5t-1 -2.5t-2.5 -1q-3 0 -4.5 1.5t-1.5 4v5v4.5q0 1 -0.5 3t-1.5 5t-1.5 5t-0.5 3
q-7 4 -15 6t-16 2q-2 0 -4 -0.5t-2 -3.5v-2v-3t0.5 -4t0.5 -4v-3q1 0 3.5 -1t4.5 -1.5t4.5 -1.5t3.5 -2l0.5 -0.5l0.5 -0.5q1 -1 2 -2.5t1 -2.5v-16q0 -3 3 -4t8 -1t10 0.5t10 0.5t8 -1t3 -5q0 -2 -2 -3.5t-4 -1.5q-7 0 -15 0.5l-16 1t-15.5 1.5t-13.5 1q-2 2 -5 2h-6h-5.5
h-3.5t-5 0.5t-8.5 1t-8 1t-4.5 0.5h-5h-8h-6.5h-5.5q-1 0 -4 1.5t-3 3.5v0.5v0.5l0.5 1.5l0.5 1.5h9q8 0 17 -2.5t17 -2.5q5 0 7 3t2 7t0.5 8.5t2.5 7.5q1 0 3 0.5t4 0.5t4 0.5t3 1.5l0.5 0.5l0.5 0.5v20h-24q-2 0 -4 -1.5t-3.5 -4t-3 -4.5t-1.5 -4q-1 -1 -1 -4t-0.5 -6
t-2 -5.5t-4.5 -2.5q-2 0 -3.5 1t-1.5 3v2l0.5 0.5t1 1.5t0.5 3q1 4 2 8.5t3 8.5t5 6.5t9 3.5q1 0 4.5 0.5t8 1t8 1t5.5 0.5q2 1 2.5 2.5t0.5 3.5v1q0 2 -0.5 3.5t-0.5 2.5t-1 1h-64q-1 0 -2 1l-1 1l-3 3l-2 2q-1 2 1.5 3t3.5 1q8 0 16 -1t15.5 -2t15.5 -2t16 -1q4 0 4.5 3
t0.5 7v2v3v4.5t-0.5 4.5t-0.5 3q0 2 -3 2h-2q-6 0 -9 -2.5t-5 -5.5t-3.5 -5.5t-3.5 -2.5l-0.5 1l-0.5 1q-1 1 -1.5 3t-0.5 3q0 5 2.5 8t6.5 5t8.5 2h8.5q3 1 3 2.5v3.5q0 3 -3 5.5t-7.5 5.5t-8.5 5.5t-7 5.5q-2 3 -4.5 9.5t-4.5 14t-3.5 14.5t-1.5 10t4 3q3 0 5.5 -2.5
t3.5 -5.5l3 -26l1 -3q0 -1 0.5 -2t1 -2.5l1 -3l0.5 -1.5q0 -1 2 -2.5t3.5 -3.5t3.5 -3.5t4 -2.5q1 -2 4 -2q1 0 2 0.5t1 1.5zM116 53q0 -3 2 -5t5.5 -3t7 -1h6.5h6t5 1v8q0 5 -0.5 7.5t-2.5 3.5t-5 1h-8h-7t-5 -1t-3 -3.5t-1 -7.5zM87 19v1l0.5 1.5l0.5 1.5h9q15 0 30 -2
t30 -2h5.5h4.5h4t5 -2q2 -1 2 -3v-3h-14.5t-18.5 0.5t-20.5 1t-19 1.5t-13.5 2.5t-5 2.5z" />
</svg>
