<?xml version="1.0" standalone="no"?>
<!DOCTYPE svg PUBLIC "-//W3C//DTD SVG 1.1//EN" "http://www.w3.org/Graphics/SVG/1.1/DTD/svg11.dtd" >
<svg xmlns="http://www.w3.org/2000/svg" xmlns:xlink="http://www.w3.org/1999/xlink" version="1.1" viewBox="-10 0 266 256">
   <path fill="currentColor"
d="M114 245q0 1 0.5 2t1.5 2h1h1q0 -1 1.5 -1.5l1.5 -0.5v-71q0 -5 -1.5 -11.5t-5 -12t-8 -9t-10.5 -2.5q-2 -3 -3 -6.5t-1 -7.5t2.5 -5t5.5 -1.5t6 -1.5t5 -3q3 -5 5 -13t3 -18t1.5 -19t0.5 -14v-2v-4v-3.5v-2.5q-1 -1 -2.5 -2t-2.5 -1t-1.5 0.5l-0.5 0.5q-1 4 -1 10.5
v14.5t-1 16.5t-2.5 15.5t-5 11.5t-8.5 4.5q-2 0 -3 -0.5t-1 -3.5q0 -4 0.5 -14t0.5 -21.5t0.5 -22t0.5 -14.5v-8v-4t-0.5 -6t-2 -5t-3.5 -2h-3t-1 2v5q0 8 1 16.5t1 16.5v17q0 2 -0.5 8t-0.5 12.5t-0.5 12t-0.5 7.5q0 3 -1 3.5t-2 0.5t-2 -0.5t-1.5 -2t-2 -4t-3 -5.5
t-2.5 -4.5t-1 -2.5l-7 -44q0 -2 -2 -4t-4 -2t-3 1t-1 3t1 6t1.5 8.5t1.5 8t1 5.5t1.5 6.5t2.5 10t2.5 10.5t2.5 6q0 1 0.5 2t0.5 2q4 4 7 6t5.5 3.5t4.5 4.5t2 8v8q-2 4 -5.5 5.5t-6.5 2.5t-6 3.5t-4 7.5q0 1 -0.5 3.5t-1.5 5t-1 5v2.5q-1 3 -1.5 7.5t-1 9.5t-1 9.5
t-0.5 5.5v7.5v11.5t-0.5 11.5t-0.5 7.5q5 0 6 -2.5t2 -6.5l7 -74q0 -4 3.5 -6.5t7.5 -2.5q3 0 4 2t2 5q0 18 1 38.5t0 38.5q0 1 0.5 2.5t1.5 1.5h1v0q1 -1 2.5 -2t1.5 -2v-84q1 0 3.5 -1t2.5 0q4 1 6 7t3 13.5t1 14t1 10.5v3.5t0.5 5.5t0.5 5v3v30zM143 155q0 11 3.5 16
t8 7.5t8 3t3.5 3.5v52q0 7 5 7q3 0 4.5 -3t2 -7t0.5 -7.5v-4.5q0 -7 -1 -13t-1 -13v-2v-5v-5v-3q7 1 12.5 -1t9 -6t5.5 -9.5t2 -11.5q0 -8 -4 -12.5t-8 -8t-8 -5.5t-4 -5q0 -1 3.5 -3t7 -5t6.5 -7.5t3 -11.5t-4 -11.5t-9.5 -7.5t-10 -4.5t-4.5 -2.5v-26l-1.5 -1t-2.5 -2v0v0
q-2 0 -3 2t-1 3v27q0 1 -3 2.5t-6 4.5t-5.5 7.5t-2.5 11.5q0 4 1 7.5t3 7t3 6t1 3.5q0 3 -2 5.5t-4.5 6.5t-4.5 9.5t-2 11.5zM170 129q4 0 8 2t8 5t6.5 7t2.5 7q0 9 -5.5 16t-15.5 7h-4.5t-8 -1t-7.5 -1.5t-3 -2.5v-22q0 -3 2 -6t5 -5.5t6 -4t6 -1.5zM154 101q0 -11 5.5 -15
t15.5 -4q8 0 11.5 2.5t3.5 10.5q0 4 -2 7.5t-4.5 7t-6 6t-7.5 2.5q-3 0 -5.5 -1.5t-5 -4t-4 -5.5t-1.5 -6z" />
</svg>
