<?xml version="1.0" standalone="no"?>
<!DOCTYPE svg PUBLIC "-//W3C//DTD SVG 1.1//EN" "http://www.w3.org/Graphics/SVG/1.1/DTD/svg11.dtd" >
<svg xmlns="http://www.w3.org/2000/svg" xmlns:xlink="http://www.w3.org/1999/xlink" version="1.1" viewBox="-10 0 266 256">
   <path fill="currentColor"
d="M61 245l0.5 1.5t1.5 2.5t2 1.5l1 0.5l6 -7q0 -29 1 -59t1 -59l1.5 -1.5t1.5 -0.5q2 0 3.5 1.5t2.5 3l2 3t1 2.5v95q3 0 4.5 -1t2.5 -4v-18v-17v-10.5t-0.5 -16t-0.5 -16t-1 -10.5q0 -1 -0.5 -2.5t-1 -3.5t-0.5 -3.5t-1 -2.5l-0.5 -1.5l-0.5 -1.5q-2 -2 -4 -3l-4 -2
t-3.5 -2.5t-1.5 -4.5q0 -5 0.5 -9t5.5 -6q8 -3 10.5 -10.5t3 -15t0.5 -14t2 -6.5h22l2 2v5q0 6 -0.5 9t-2 5t-3.5 4t-5 7q-3 4 -5.5 9t-4.5 11t-3.5 11.5t-1.5 10.5q0 7 1 14.5t3 14.5q1 3 3 5t4.5 4t4.5 3l2 1v38l-1 6h-2.5t-3.5 0.5t-3.5 1t-2.5 1.5v1v1l2 2t2 1h94l11 -2
l0.5 -1l0.5 -1v-2q0 -1 -0.5 -2.5t-1.5 -1.5h-22q0 -8 1 -16t5 -15q1 -2 2 -7t2.5 -11t2.5 -11t1 -7v-3.5v-5.5v-7v-5v-4v-6v-6v-5q-1 -2 -3 -4.5t-3 -2.5l-24 -8v-0.5v-1.5q0 -4 3 -6.5t7 -4t8 -1.5t7 -1v-9l-1.5 -0.5t-3.5 -1.5h-1q-12 0 -17.5 5.5t-9.5 15.5v1q0 6 2 9
t5.5 4.5t7 2.5t6.5 2t5.5 3t2.5 7v3q0 1 -0.5 2.5t-1.5 2.5t-2 1q-8 0 -10 -2.5t-2.5 -5t-0.5 -5t-4 -2.5q-1 0 -2 0.5t-1 1.5q0 4 -0.5 9t-1.5 10.5t-1.5 10.5t-1.5 8q-2 8 -4.5 15t-5.5 14t-4.5 14t-1.5 14q4 0 5.5 -3t2.5 -6.5t2 -6.5t3 -3h17q3 0 3.5 2.5t0.5 3.5
q0 10 -4 16t-14 6h-35q-1 0 -2 -1.5t-1.5 -4l-1 -5t-0.5 -4.5q0 -3 2.5 -5.5t5.5 -4t5.5 -4t2.5 -5.5v-4.5v-2v-1.5t2 -2t4 -2.5l4 -3t3.5 -3.5t2.5 -3q4 -8 4.5 -18.5t0.5 -19.5q0 -7 -2 -13t-6 -13l-1.5 -2.5t-1.5 -3.5v-10v-5v-7t1 -7t2 -4l2 -2h15h9.5t14 -0.5t14 -0.5
h8.5q1 0 1.5 -0.5t0.5 -1.5v-1v0q-13 -4 -26 -4h-26q-17 0 -33.5 2t-32.5 2h-1q-1 -1 -2 -3t-1 -4v-4v-2h-1h-1q-2 0 -3.5 0.5t-1.5 2.5v44q0 1 -0.5 2.5t-1.5 2.5l-2 2t-2 1h-1q-1 0 -2 -0.5l-1 -0.5v-62q0 -1 -2 -3.5t-3 -2.5l-5 5v1v3.5v3.5v4q0 11 1 22t1 22v2.5
t-0.5 3.5t-1.5 3t-3 1q-5 0 -7 -4t-2 -10v-13v-13t-1.5 -10t-5.5 -4h-1.5h-1.5q0 1 -0.5 2.5t-0.5 4t-0.5 4t-0.5 2.5t0.5 5.5t1 9.5t1 9.5t1.5 6.5q0 1 0.5 2.5t1 3.5t1 3.5l0.5 1.5q2 5 5 6t5.5 2t4.5 3t2 9v7q0 1 -0.5 1.5l-0.5 0.5l-1.5 0.5t-3 1.5t-2.5 1.5t-1 1.5
q-5 4 -8 8t-4 8.5t-1.5 9.5t-1.5 12q0 9 -0.5 16.5t-0.5 15v14.5v15v13q0 1 1 1.5t2 0.5q3 0 4.5 -3t1.5 -6q0 -18 1 -36.5t3 -37.5v-5.5t1 -8.5t2.5 -7.5t4.5 -3.5h1q2 1 2.5 3t0.5 4v4v2v2.5t-0.5 5t-0.5 5v2.5v6v9v12v11v9v5q0 10 -2 19.5t-2 19.5zM120 168v-1l0.5 -1.5
l1 -3l1 -3l0.5 -1.5v-1v-1v-5t-0.5 -8.5t-0.5 -8.5v-5v-1v0v-3t0.5 -4t0.5 -4v-2v-4v-3t-0.5 -3.5t-1.5 -3t-3 -1.5t-2.5 2t-0.5 4v5q0 2 -1 4v36q0 3 -0.5 4t-2.5 1q-3 0 -4.5 -1.5t-2.5 -3.5q0 -1 -0.5 -4l-1 -6l-1 -6t-0.5 -4v-1v-1q0 -4 1 -8.5t2 -8.5q1 -8 3 -12.5
t4.5 -8t6 -7t7.5 -9.5l0.5 -2t0.5 -3t0.5 -3.5t0.5 -5.5t0.5 -5.5t0.5 -3.5q1 -4 3 -4.5t5 -0.5q2 0 4 0.5t2 3.5v1l-0.5 3.5l-1 7l-1 7t-0.5 4.5v1v2q0 2 1 5t2.5 5t3.5 4.5t2 4.5q3 6 3.5 11t0.5 11v8q0 5 -1 10.5t-2.5 9.5t-4.5 4q-1 0 -2 -0.5t-1 -1.5v-46q0 -2 -1 -2.5
t-2 -0.5t-2 0.5t-2 0.5v50l-4 22q-1 2 -2.5 2.5t-2.5 0.5q-3 0 -3.5 -2t-1.5 -4v-1zM161 166q0 -3 0.5 -6t1.5 -6.5t3 -5.5t6 -2h4q3 0 5 1t3 2t1 4v3q0 2 -0.5 4t-1 4.5t-1 4l-0.5 1.5h-19q-2 0 -2 -1v-3zM170 135q0 -3 0.5 -6t1.5 -6q1 0 2.5 -0.5t3 -0.5t3.5 -0.5l2 -0.5
h3h2q0 1 0.5 4t0.5 4t-0.5 3t-0.5 4l-1 1.5l-1 1.5h-14q-2 0 -2 -2v-2z" />
</svg>
