<?xml version="1.0" standalone="no"?>
<!DOCTYPE svg PUBLIC "-//W3C//DTD SVG 1.1//EN" "http://www.w3.org/Graphics/SVG/1.1/DTD/svg11.dtd" >
<svg xmlns="http://www.w3.org/2000/svg" xmlns:xlink="http://www.w3.org/1999/xlink" version="1.1" viewBox="-10 0 266 256">
   <path fill="currentColor"
d="M75 247q0 3 1.5 3.5t3.5 0.5q3 0 5 -3t2.5 -7t0.5 -8v-6v-2q0 -1 -0.5 -8t-1 -14.5t-1 -14t-0.5 -8.5v-1v-1v-8.5t0.5 -13.5t0.5 -13v-9q1 -2 2 -3.5t3 -1.5q4 0 6.5 4.5t3.5 10.5t1 12v9l0.5 2.5t0.5 5.5t0.5 5.5t0.5 3.5v12v13l-0.5 1t-0.5 2t-0.5 2t-0.5 2v3t0.5 4.5
t1.5 4t3 1.5q3 0 5.5 -2.5t2.5 -6.5v-3q0 -3 -0.5 -11.5t-1 -18t-1 -18t-0.5 -11.5q-2 -8 -2.5 -15t-2.5 -11.5t-6 -7.5t-13 -5v-28q3 0 6 -1t5.5 -3.5t4.5 -5t3 -4.5q-1 -5 0 -9.5t2 -9.5l2 -10t1 -10q0 -3 -0.5 -4t-3.5 -1q-4 0 -5.5 3t-2 7.5t-0.5 10t-0.5 10t-1.5 8
t-4 3.5q-1 1 -3 0.5t-3 -0.5v-59q0 -1 -2 -1h-2q-2 0 -3.5 0.5t-2.5 2.5q-1 14 -1.5 29.5t0.5 27.5q0 1 -0.5 1.5t-1.5 0.5h-1q-1 0 -4.5 -1t-3.5 -4l-4 -37q0 -1 -1.5 -1.5t-2.5 -0.5q-2 0 -2.5 0.5t-2.5 1.5v4.5v4.5v3v2.5v2.5v2l0.5 2.5t1.5 6t1.5 7t1.5 5.5q1 5 4 7.5
t6.5 5t6 3.5t2.5 3v5v5q0 10 -3 14.5t-7 8t-8 7.5t-6 12q-2 20 -4.5 41.5t-2.5 42.5q3 0 5 -0.5t3 -1.5t2 -2.5t2 -4.5q0 -8 0.5 -18l1 -20t1.5 -19.5t3 -17.5q1 -3 3 -7.5t6 -4.5q2 0 2.5 0.5l1.5 1.5v9v14v13v9q0 17 -1 34t-1 34zM121 191q0 2 1.5 2.5t3.5 1.5t4 1h2
q6 4 8.5 10t5 12.5t7.5 11t15 4.5t16.5 -7t9.5 -17q0 -2 0.5 -6.5t0.5 -10t0.5 -10t0.5 -7.5q0 -1 0.5 -4t0.5 -4q1 -3 3 -5.5t4.5 -4.5t4 -4.5t1.5 -5.5t-1 -3.5t-3 -0.5q-4 0 -7.5 4t-5.5 8q-1 2 -2.5 4.5t-2.5 5t-2 4l-1 1.5v37q0 3 -1 5t-3.5 4t-4.5 3.5t-4 1.5
q-6 0 -11.5 -3.5t-9.5 -8.5t-7 -11t-5 -11h-16q-1 0 -1 1t-1 1v0.5v0.5zM127 146q2 5 2.5 9.5t2.5 7t5.5 4t8.5 1.5q7 0 11 -2t6 -6.5t2.5 -10.5t1.5 -13q2 -5 6.5 -6t8.5 -2t8 -3t6 -8q0 -2 0.5 -7t1 -11t1 -11t0.5 -8l0.5 -3t0.5 -4v-3v-3v-5.5t-0.5 -7.5t-0.5 -7.5v-5.5
q-1 -1 -2 -1h-3h-3q-1 6 -2 11t-1 11t1 11t1 11l-0.5 1.5l-0.5 1.5q0 1 -0.5 5t-1.5 8t-1.5 7.5t-0.5 4.5q-1 2 -3.5 4t-3.5 3q-1 0 -5 -1t-5 -1q0 -13 0.5 -24.5t0.5 -24.5v-1q0 -1 -1 -3.5t-1 -3.5t0.5 -2.5t0.5 -3.5t0.5 -3.5t0.5 -2.5v-2v-3.5v-4.5v-3v-3v-4v-4v-3
q-1 -2 -2 -5t-4 -3h-2t-2 1q1 9 0.5 17.5t-2.5 16.5v85q0 2 -1 4.5t-1.5 5.5t-1 5.5t-0.5 4.5q-3 5 -9 5q-3 0 -4 -2t-1 -5q-1 -7 -1.5 -12.5t-0.5 -10.5v-10v-11q0 -10 1 -19.5t1 -19.5v-15q-1 -1 -2 -3t-2 -2h-1q-1 0 -2 1l-1 1q-2 5 -2.5 15t-1 20.5t-0.5 20.5v16v5v7v7
v5z" />
</svg>
