<?xml version="1.0" standalone="no"?>
<!DOCTYPE svg PUBLIC "-//W3C//DTD SVG 1.1//EN" "http://www.w3.org/Graphics/SVG/1.1/DTD/svg11.dtd" >
<svg xmlns="http://www.w3.org/2000/svg" xmlns:xlink="http://www.w3.org/1999/xlink" version="1.1" viewBox="-10 0 266 256">
   <path fill="currentColor"
d="M132 247q0 3 3 3q6 0 10 -5.5t7 -12t6.5 -11.5t8.5 -5q3 0 6 5t6 10.5t6.5 10.5t7.5 5q3 0 4 -0.5t1 -3.5q0 -5 -4.5 -10t-9.5 -10t-9.5 -11.5t-4.5 -14.5v-41q0 -2 -1.5 -2.5t-2.5 -0.5h-1h-1q-1 11 -1.5 23.5t0.5 23.5q-1 7 -5.5 13t-9.5 12q-1 1 -3 4t-4.5 6.5t-5 6
l-3.5 3.5v1.5v0.5zM74 242q0 1 1.5 3.5t3.5 1.5q1 0 3 -2t2 -3t0.5 -4.5t1 -7.5t0.5 -7.5v-5.5v-99q0 -1 1.5 -1.5t2.5 -0.5q4 0 6.5 6t4.5 13t3 14t1 10v2l-0.5 2.5t-1.5 3.5l2 50l0.5 0.5l1.5 1.5v0h1v0v0l2 -2t2 -1v-29v-12q0 -6 -0.5 -11t-0.5 -10.5t-1 -11.5
q0 -2 -0.5 -5.5t-1.5 -7.5t-1.5 -7t-1.5 -4q-2 -2 -4.5 -3.5t-5 -2.5t-4.5 -2t-3 -3q0 -1 -0.5 -3.5t-0.5 -5t-0.5 -5t-0.5 -3.5v-1q0 -1 1.5 -2t3 -1.5t3 -0.5h1.5q6 -1 9.5 -6.5t4.5 -11.5t1 -13v-11v-7q-1 -1 -2.5 -1h-2.5q-2 0 -3 0.5t-2 2.5v6v9v9v6q0 4 -1.5 6.5
t-6.5 2.5h-3t-1 -3l-0.5 -1.5t-0.5 -3.5v-2v-2q0 -11 1 -22t1 -21v-3v-3l-1.5 -1l-1.5 -1h-1h-1l-2.5 1t-2.5 3v60q-8 0 -12 -4t-5.5 -10.5t-1 -13.5t1.5 -14q-1 -2 -2 -3t-3 -1q-3 0 -4 2.5t-1 5.5l4 33q0 4 2 7t5.5 4.5t7 2.5t7.5 1q2 2 1.5 5t-0.5 5q0 6 -3 9t-7 5t-8 5
t-5 9q-3 10 -5 22t-2.5 24l-1 24t-0.5 22v7q1 1 2 1.5t3 0.5t2 -0.5t2 -2.5q2 -7 2.5 -15.5t0 -17t-0.5 -17t1 -15.5q0 -2 0.5 -6t1 -8.5t0.5 -8.5t1 -5q0 -2 1.5 -4t2.5 -3.5l2 -3t2 -2.5h1h2q3 0 4.5 1.5t2 4t0 5t-0.5 3.5v8t-1 8v52q-3 10 -3.5 21t-0.5 21zM140 173
q0 4 -2 10t-4 12.5t-3.5 12.5t-1.5 10q4 0 7.5 -4t5 -10t2.5 -12t1 -8v-2v-4t-0.5 -3.5t-1.5 -1.5h-3zM184 172q0 1 1 4.5t2.5 8t3.5 9.5t4 9l3.5 7t3.5 3q3 0 3.5 -1.5t0.5 -3.5t-2 -9t-5 -13.5t-6 -12t-5 -5.5q-3 0 -4 4zM126 164q0 1 1.5 1h2.5h2t2 -1v-14q0 -2 4 -2.5
t10 -1.5t13.5 -1.5t14 -1t11 -0.5h5.5h3t4.5 -0.5t5 -0.5h3.5q1 -1 1 -1.5v-1.5v-2t-1 -2h-7q-7 0 -13.5 1t-13.5 1h-2.5t-2.5 -2q0 -1 -0.5 -4.5t-0.5 -4.5q0 -4 4 -5.5t9.5 -2.5t10.5 -1h7q1 -1 1.5 -2l1 -2t0.5 -2v-1q-8 0 -15.5 2t-14.5 2q-4 0 -4.5 -3t-0.5 -6t2.5 -5
t5.5 -2h26v-7h-2l-1.5 0.5t-3.5 1t-3.5 0.5h-2.5h-3.5t-5.5 -0.5t-6 -0.5t-4 -1q-3 0 -3 -2.5v-4.5q0 -3 1 -5.5t5 -2.5t7.5 1t7 2.5l7 3t6.5 1.5h1q1 -1 2.5 -3t2.5 -2q-2 -3 -6.5 -4.5t-10 -3t-10.5 -2.5t-9 -1v-2q0 -2 3.5 -4t7.5 -3.5t7.5 -4t3.5 -7.5q0 -4 -4 -8
t-8.5 -7t-8.5 -4.5t-4 -2.5v-12q0 -1 -2 -1.5t-3 -0.5q-3 0 -4.5 2t-2 5t0 6t0.5 5q0 1 -3.5 2t-7.5 2.5t-7 5t-3 9.5q0 4 1.5 7t3.5 5t3.5 4.5t1.5 4.5t-2 5t-4.5 6.5l-5 7t-2.5 5.5q-2 5 -3 13.5t-1.5 17.5t-0.5 17.5v13.5v9zM134 134v-2q0 -1 0.5 -4l0.5 -3q1 -1 4 -1.5
t5.5 -1l5 -1t3.5 -0.5h2q2 0 4 2.5t2 4.5q0 4 -1.5 6.5t-4 4t-6 1.5h-6.5t-6 -1t-3 -5zM161 108q0 2 -1 4.5t-4 2.5h-21v-3.5t0.5 -4.5t1.5 -4t3 -2h19q2 0 2 3v4zM139 93q1 -3 2.5 -6l3 -6t4 -5t5.5 -2h2h2q1 2 1 2.5v2.5v9t-2 4.5t-5 2t-9 0.5h-2q-2 0 -2 -2zM143 48
q0 -4 2 -6t5.5 -3.5t7 -2t6.5 -0.5q2 0 5.5 0.5t6 1.5t4.5 3t2 5q0 4 -3 6t-6 2q-5 0 -6.5 -1.5t-1.5 -3.5t-0.5 -3.5t-2.5 -1.5h-0.5h-0.5q0 1 -1 2l-1 1v3t-0.5 4t-0.5 3.5v2.5q-1 1 -4 2t-4 1q-2 0 -3.5 -2t-2 -4.5t-1 -4.5t-0.5 -4z" />
</svg>
