<?xml version="1.0" standalone="no"?>
<!DOCTYPE svg PUBLIC "-//W3C//DTD SVG 1.1//EN" "http://www.w3.org/Graphics/SVG/1.1/DTD/svg11.dtd" >
<svg xmlns="http://www.w3.org/2000/svg" xmlns:xlink="http://www.w3.org/1999/xlink" version="1.1" viewBox="-10 0 266 256">
   <path fill="currentColor"
d="M189 215q1 2 1 8t0.5 12t1.5 11t4 5q4 0 5.5 -3.5t1.5 -6.5q0 -4 -1 -8t-2.5 -8.5t-2.5 -9t-2 -8.5q-6 -5 -14 -7l-16 -4q-1 -1 -1.5 -2t-0.5 -2q0 -6 4 -9t9 -4t10.5 -2t8.5 -3q5 -3 7 -8t3 -9.5t1 -8.5t2 -6q0 -5 0.5 -9t0.5 -7.5v-7.5v-8q0 -8 -1 -13t-3.5 -8t-7.5 -4
t-13 -1h-6q-2 0 -4.5 0.5t-5.5 0.5t-6 1q-1 0 -1.5 1t-0.5 2t0.5 1.5l1.5 1.5q1 0 2.5 0.5t3.5 0.5t3.5 0.5t2.5 0.5t2 0.5l1 0.5v4q0 5 -0.5 8.5t-2.5 9.5q0 1 -0.5 1.5l-0.5 0.5h-1q-3 0 -3.5 -2.5t-1 -5.5t-0.5 -6t-2 -4l-2.5 2.5t-0.5 2.5q0 6 2 9.5t4 5.5l4 4t2 4v2v3
t-0.5 4t-0.5 3.5v2.5q-1 1 -2 1.5t-2 0.5t-2 -2t-1.5 -3.5t-0.5 -3.5v-3h-4q0 9 2 13t4.5 6t4.5 5t2 9q0 3 -2.5 5t-6 4.5t-6 6.5t-2.5 10v3v3q3 2 4 4.5t4 3.5t6.5 1t6.5 0.5t6 2t5 4.5zM67 232v2t0.5 2.5t1 2.5t1.5 1q2 0 3.5 -2t2.5 -5t1.5 -6t0.5 -4q0 -6 -1 -11t-1 -11
q0 -21 1 -41.5t0 -42.5q1 0 2 -1t1 -2h1q2 0 3 2t1.5 4l1 4t0.5 3v94q0 1 1 1.5t2 0.5t2 -0.5t2 -3.5v-41q0 -9 0.5 -18.5t0 -19.5t-2 -19.5t-5.5 -17.5q-2 -2 -3.5 -2.5t-3.5 -2.5v-3t-0.5 -5t-0.5 -5.5v-3.5v-2q0 -1 1.5 -2.5t4 -2.5t5 -2.5t3.5 -3.5l4 -14t2 -14
q0 -3 -1 -6t-4 -3h-1q0 1 -0.5 3t-0.5 4t-0.5 4t-0.5 3t-0.5 4.5t-1.5 7t-2.5 6.5t-3.5 3q-1 0 -1 -1q-1 0 -1.5 -0.5l-0.5 -0.5v-50q0 -2 -1.5 -2h-2.5h-2t-1 2v15q0 1 -0.5 4.5t-0.5 7.5t-0.5 7.5t-0.5 4.5t0.5 3t0 4t-1 3t-2.5 1h-1q-1 0 -2.5 -1l-1.5 -1v-28l-1 -1.5
t-1.5 -2l-2 -2t-2.5 -0.5l-1.5 1t-1.5 2v1v0q0 2 0.5 5t0.5 5.5v5v2.5q1 0 1.5 2.5t0.5 3.5v1.5t0.5 3.5t0.5 4v2l3 4.5t2.5 2t3 0.5t4.5 1l0.5 0.5t0.5 1.5l-3 21q0 3 -2.5 5.5l-5.5 5.5t-5.5 7t-3.5 9q-3 20 -3.5 41.5t-0.5 41.5v10l1 1.5t2 1.5v0q2 0 3 -2t1 -3
q2 -18 1.5 -35.5t1.5 -34.5q1 -4 1 -9.5t1 -10.5t3.5 -9t6.5 -4v11t0.5 17t0.5 17v11q-1 16 -2 31.5t-1 31.5zM100 203q0 4 4 4h2q3 0 9 -0.5t12.5 -1t12 -1t8.5 -0.5q3 1 4 -0.5t1 -3.5q0 -1 -0.5 -2.5t-1.5 -1.5h-17q-1 0 -1.5 -1.5l-1 -3t-0.5 -3.5v-2q0 -4 2.5 -5.5
t5.5 -2t5 -1.5t2 -4v-2t-1 -2h-14q0 -1 -0.5 -2.5l-1 -3l-1 -3t-0.5 -2.5l-0.5 -0.5t-1.5 -0.5v0q-2 0 -3 1.5t-1 4v5v3.5h-3t-4 0.5t-4 0.5h-3q-2 1 -2.5 1.5t-0.5 1.5v2.5t1 1.5h14l2 3l0.5 1.5l0.5 1.5q0 6 -1.5 8.5t-4 3.5t-5.5 0.5t-6 -0.5t-4.5 1.5t-1.5 4.5zM180 164
q0 -4 2 -6t5 -4t5 -5t2 -9q0 -1 -0.5 -2.5t-1.5 -1.5h-1q0 1 -0.5 2.5t-1.5 3.5t-2.5 3.5t-2.5 1.5h-1l-0.5 -0.5l-0.5 -0.5v-19l1.5 -0.5l3 -1t2.5 -1t2 -0.5q0 -1 1 -2t1.5 -2.5l1 -3t0.5 -2.5q1 -1 0 -3.5t-1 -3.5q-2 0 -3 2t-1.5 4t-2 3.5t-4.5 1.5q0 -6 0.5 -11.5
t1.5 -11.5q0 -1 1 -1h2q3 0 7 0.5t5 3.5q1 9 1.5 14.5t0.5 12.5q0 5 -0.5 13t-2.5 14.5t-6 11.5t-11 5q-1 0 -1.5 -2t-0.5 -3zM100 156q0 1 1 1.5t2 0.5q5 0 8 -3t4.5 -7t2.5 -9t1 -8l1 -1q1 -1 3 -2l2 -1h1q2 0 3.5 1.5t3.5 2.5v6t1.5 8t3.5 7t6 3q1 0 2.5 -0.5t1.5 -2.5v0
v0l-2 -2l-2 -2t-2 -2.5t-2 -1.5v-1.5v-2.5q0 -2 0.5 -4t2.5 -2h1.5h0.5l1 1t2 1t2 -2.5l1 -2.5v0q0 -4 -3 -5.5t-7 -2.5t-7 -3t-3 -7t2.5 -6.5t5.5 -3t5 -5t2 -11.5q0 -3 -2 -3t-2.5 2l-1 4t-2 4t-3.5 3l-1 -0.5t-1 -1.5l-2 -1v-11q0 -3 -0.5 -3.5t-2.5 -0.5q-1 0 -2.5 0.5
t-1.5 1.5v14l-1 0.5t-1 1.5q-1 0 -2 0.5l-1 0.5h-1q-4 0 -5 -2t-1.5 -5t-1 -5.5t-3.5 -2.5h-1l-1 1v6q0 5 1.5 7.5t3.5 4t4 2t4.5 1t3.5 2t1 4.5q0 7 -4 9.5t-8.5 4t-8.5 3.5t-4 6h12q1 0 1 2.5v3.5q0 5 -3.5 8.5t-7.5 6.5v1zM157 30q0 10 2 16.5t10 12.5q1 1 2.5 2l1.5 1
v15h1.5h2.5q2 -1 2.5 -3.5t0.5 -5.5v-5.5v-3.5q10 1 14.5 -5.5t4.5 -15.5q0 -1 -0.5 -4t-2.5 -3q-3 0 -4 3t-2 7t-2 7t-3 2q-1 0 -2.5 -2t-2.5 -3v-1q0 -4 1 -8.5t1 -8.5v-4v-3t-1.5 -2l-1.5 -1q-1 0 -2 0.5l-1 0.5q-1 2 -1.5 4t-0.5 4v5v3v3t-0.5 4t-0.5 4v3l-1 1l-1 1h-1
h-1q-2 -3 -3 -6t-2 -6.5t-2 -5.5t-5 -2zM108 33q0 8 2.5 12.5t5.5 6t5.5 2.5t3.5 3q0 1 -0.5 3t-0.5 4t1 4t3 2q2 -1 2.5 -2.5t1 -3.5t1 -3.5t1.5 -3.5q4 -3 7 -4.5t4.5 -4t2 -5.5t0.5 -9v-4.5t-2 -2.5q-1 0 -1 1q-2 1 -2.5 3.5t-0.5 5.5t-0.5 5.5t-1.5 2.5h-8v-27l-2 -1h-1
h-1q-1 0 -2.5 0.5l-1.5 0.5v29q-5 -1 -6.5 -4t-2 -6.5t-1 -6.5t-3.5 -3t-3 2v4z" />
</svg>
