<?xml version="1.0" standalone="no"?>
<!DOCTYPE svg PUBLIC "-//W3C//DTD SVG 1.1//EN" "http://www.w3.org/Graphics/SVG/1.1/DTD/svg11.dtd" >
<svg xmlns="http://www.w3.org/2000/svg" xmlns:xlink="http://www.w3.org/1999/xlink" version="1.1" viewBox="-10 0 266 256">
   <path fill="currentColor"
d="M179 219v2t-0.5 4t-0.5 4v2q0 1 -0.5 4t-0.5 6.5v5.5v4q4 0 7.5 -1t3.5 -6v-53q0 -1 0.5 -2t0.5 -2h1q3 0 5 4l4.5 9t4.5 9.5t5 4.5t4 -2.5t1 -4.5q0 -5 -4.5 -10.5t-10 -11t-10 -10.5t-3.5 -9l2 -26q0 -2 1 -2h2q3 0 5 2.5t3.5 6t3 6.5t4.5 3q2 0 3.5 -1.5t1.5 -3.5
q0 -3 -1 -5.5t-3.5 -5l-4.5 -4.5t-4 -3q1 -3 -0.5 -4.5t-4 -2.5t-4.5 -2.5t-2 -3.5v-19q0 -1 1 -2t2.5 -2t3 -1h2.5q3 0 5.5 1.5t4 4t3.5 4.5t5 2h1q0 -1 0.5 -3.5t0.5 -3.5v-2v-1q0 -1 -2 -2.5t-4 -3.5t-3.5 -4t-1.5 -3l-0.5 -3t-0.5 -6t-0.5 -5.5l-0.5 -2.5q0 -3 -2 -5
t-4.5 -3.5t-5.5 -2t-4 -0.5q0 -1 -0.5 -2.5t-1 -3.5t-0.5 -4v-2v-1v-1v-3t0.5 -4.5t1 -4.5l0.5 -2v-2q0 -5 -1.5 -8t-5.5 -3h-3t-2 2v11q0 5 1 9.5t1 9.5q0 1 -0.5 2.5l-1 3l-1 3t-1.5 1.5h-13v7h13q3 0 3.5 2.5t0.5 4.5t-0.5 3l-1.5 3q-1 0 -4 0.5t-6 0.5t-6 0.5t-4 0.5h-1
h-1l-1.5 -1l-1.5 -1h-1q-2 0 -3 2.5t-1.5 5t-2 4.5t-3.5 2q-3 0 -4 -1.5t-1.5 -3.5t-0.5 -4v-4q0 -5 3 -7t6.5 -4.5t6.5 -6.5t3 -15v-8q-1 -1 -2 -1.5l-1 -0.5h-2q-2 0 -2 4t-0.5 9t-1.5 9.5t-6 4.5q-1 0 -2.5 -0.5t-1.5 -1.5v-38l-1 -0.5t-2 -0.5q0 -1 -1.5 -1.5l-1.5 -0.5
h-1q-2 0 -3 3t-1 4q0 2 0.5 5t1 7t1 7.5t0.5 5.5v2t-0.5 4t-1.5 4t-3 2q-5 1 -6.5 -2.5t-2 -8.5t-1.5 -9.5t-5 -4.5q-3 0 -3 2.5v4.5q0 8 1.5 12t4 6.5t6 3t6 2t4 3.5t1.5 7t-1 9.5t-7 4.5q-4 0 -5.5 -2.5t-2.5 -5t-2.5 -5t-4.5 -2.5v17q0 2 3.5 3t8.5 1.5t9.5 0.5h5.5
q11 0 16.5 -3.5t7.5 -14.5h1h1q0 1 2.5 1.5l2.5 0.5h3h4h5h3l2 2v2.5v3.5v3v2l-23 6l2 2h17q1 0 2 1.5t1 3t0.5 3t0.5 2.5q0 6 -2.5 8.5t-7.5 3.5q-2 2 -4 6t-4.5 8t-4 8t-1.5 8q5 0 8 -3.5t4.5 -8t3.5 -8.5t5 -4h1l1 1l1 1v30q0 2 -1.5 3t-4 2t-4 2t-2.5 2l-1 2l-2 4l-2 4
t-2 2q0 2 -1.5 3.5t-2.5 3.5l-1.5 3l-0.5 1h-3q-1 0 -1.5 -3.5t-1.5 -5.5v-5.5t-0.5 -8t-0.5 -9v-5.5h-4v16v17t1 17.5t3 16.5h0.5h0.5q4 0 4 -4v-3v-5v-4.5v-3.5q5 -2 8 -6.5t5.5 -9.5t5 -8.5t7.5 -3.5h1v7.5t0.5 12t0.5 12v7.5zM126 185q0 17 -1 32.5t-1 31.5q4 0 7 -1
t3 -6v-93q0 -3 3 -3t6 -0.5t6 -1.5t3 -4h-49q-1 0 -2.5 1t-2.5 2q1 3 3.5 4.5t5.5 1.5t6 -1t7 -1h3.5t2.5 3v8v9.5v11.5v6zM60 242q0 2 1 3.5t3 1.5t3.5 -2t2.5 -5t1.5 -6t0.5 -4t-0.5 -2.5l-0.5 -1.5v-4t-0.5 -6t-0.5 -6v-3v-6.5t0.5 -10.5t0.5 -11v-6q1 -12 0 -25t2 -24
q0 -1 0.5 -1.5t1.5 -0.5q3 0 5.5 6.5t4 16t2.5 21.5t1 23v20v12l0.5 1t1.5 1q2 0 3 -1.5t1.5 -3.5t0.5 -4v-3v-4q-1 -4 -1 -10.5t-0.5 -13.5t-1 -14.5t-0.5 -14t-0.5 -11t-0.5 -5.5q0 -2 -0.5 -5l-1 -6t-1.5 -6t-2 -4q0 -1 -2 -1.5l-4 -1t-3.5 -1.5t-1.5 -3v-16l1 -1.5
t2 -2.5q3 -1 4.5 -2t3 -1.5t3 -2l4.5 -4.5q1 -4 1 -7.5t0.5 -6t0.5 -5.5v-7v-5t-0.5 -5.5t-1.5 -4.5t-4 -2l-0.5 0.5l-0.5 0.5l-1 1.5l-1 1.5v20v5q0 3 -0.5 6.5t-2 6.5t-4.5 3q-2 0 -3 -0.5t-1 -3.5v-58q0 -2 -2.5 -4.5t-4.5 -2.5t-3.5 1t-1.5 3q0 12 2 23.5t2 22.5v17
q-1 1 -3 2t-3 1t-3 -2l-3 -3q-1 -9 -1.5 -18t-2.5 -19q0 -1 -2 -2.5t-3 -1.5l-1 1l-0.5 0.5l-1.5 1.5v7v19q0 9 4 17q1 4 3 5t4 1.5l4 1t3.5 2t2.5 4.5t1 10q0 4 -2 5.5t-4.5 2.5t-5.5 2t-5 3q-2 5 -3.5 10.5t-2 11.5t-0.5 11q0 6 -1 11v9.5t-0.5 15.5t-0.5 15.5v9.5v3
q0 2 0.5 4t2.5 2q3 0 4 -2l2 -4t1 -4.5v-4.5v-8.5v-13.5v-13v-9l0.5 -3l0.5 -3q1 -2 1.5 -5.5t1 -8t1 -8.5t0.5 -5t1.5 -3.5t3.5 -1.5q3 0 3 2v4q0 28 -1.5 55.5t-1.5 54.5zM108 163v4v7v7v4q0 2 -0.5 5.5t-0.5 6.5t-0.5 5.5l-0.5 2.5l-1 2l-0.5 1.5t-1 4t-0.5 5.5v5v4v4
q5 0 7 -7t3 -16.5t0.5 -18.5t-0.5 -13v-12l-3 -3zM102 122q0 3 3.5 3.5t5.5 0.5q6 0 12.5 -0.5t12.5 -1.5q2 -1 6 -1.5l4 -0.5v-5h-33l-10 3l-0.5 0.5t-0.5 1.5zM186 89h2v3h-2v-3zM188 80q-1 -1 -1 -3v-3q0 -3 0.5 -5t4.5 -2q3 0 3.5 2.5t0.5 4.5q0 3 -0.5 5.5t-2.5 2.5
q-3 0 -5 -2z" />
</svg>
