<?xml version="1.0" standalone="no"?>
<!DOCTYPE svg PUBLIC "-//W3C//DTD SVG 1.1//EN" "http://www.w3.org/Graphics/SVG/1.1/DTD/svg11.dtd" >
<svg xmlns="http://www.w3.org/2000/svg" xmlns:xlink="http://www.w3.org/1999/xlink" version="1.1" viewBox="-10 0 266 256">
   <path fill="currentColor"
d="M184 198q0 2 0.5 7t1.5 11t2.5 12t3.5 11t5 8t7 3q3 0 4 -0.5t1 -3.5v-1v-1q-7 -11 -11.5 -24t-4.5 -25q0 -5 0.5 -10t1.5 -10.5t2.5 -10.5t3.5 -9q1 -3 3 -5t2 -6v0q0 -1 -0.5 -3.5t-1.5 -3.5q-1 0 -4 -1t-5.5 -2.5t-5 -3.5t-2.5 -5q0 -9 3.5 -13t7 -7t7 -5.5t3.5 -8.5
q0 -3 -2 -6t-5 -3h-2q0 5 -0.5 8t-4.5 5q-1 2 -5.5 4.5t-10 6t-10 6.5t-5.5 4q-1 0 -1 1v1l0.5 1.5t1.5 1.5q3 0 5 -1.5t5 -1.5h2t1 1t0.5 3.5l0.5 2.5q0 7 -3 13t-7 11.5t-7 10.5t-3 10q7 0 10.5 -5t6.5 -11.5t5.5 -11.5t7.5 -5q2 0 4.5 2t3.5 5q-2 8 -4.5 14t-4 12
t-2.5 12.5t-1 15.5zM86 244q0 5 3 5q4 0 9 -7t9 -17.5t8 -23t7 -24t5.5 -21t3.5 -12.5q1 -6 1.5 -11.5t0.5 -11.5t0.5 -11.5t2.5 -11.5q0 -1 2 -1h3q3 0 4.5 0.5t3.5 4.5v2.5v3.5q0 13 -2 26.5t-3 26.5q-3 2 -4 5t-1.5 6.5t0 7t0.5 6.5q1 0 3.5 -1t3.5 -1l1 -4.5t2 -10.5
t2 -13.5t2 -14t1.5 -11.5t1.5 -8q0 -3 -0.5 -7.5t1.5 -8.5v-40l-1 -1.5t-2 -1.5h-1v0q-1 0 -1.5 0.5l-0.5 0.5v20q0 4 -3 4.5t-6 0.5q-2 0 -4.5 -0.5t-3.5 -2.5q1 -9 0.5 -14.5t-2 -10.5t-4.5 -9.5t-7 -11.5q-1 -1 -1.5 -2t-0.5 -3q0 -4 5 -6t11 -3.5t11 -3t5 -3.5
q0 -3 -1.5 -4t-3.5 -1q-4 0 -10.5 1t-12.5 4t-10 7t-4 10q0 5 2.5 9t6 9t6 11t2.5 14v4.5v5.5q-1 1 -3 1h-3h-4.5t-3.5 -3v-2.5t-0.5 -3.5t-0.5 -4v-3l-0.5 -1.5t-1.5 -3t-2 -2.5t-3 -1q0 13 -1.5 27t0.5 26q-1 2 -2 7.5t-2.5 11.5t-3 11t-1.5 8l-2 4t-2 3.5t-2 3.5t-1 4
q0 3 0.5 5t3.5 2t6 -5t5.5 -13t4 -17.5t2.5 -18.5t2 -16t1 -9h3h3h3t3 2v6q0 19 -3 39t-10 37q-5 11 -9.5 22.5t-7.5 22.5q-1 3 -2 4.5t-2.5 3t-2.5 3.5t-1 4zM49 122q0 10 4.5 12.5t15.5 2.5t16.5 -5t5.5 -15q0 -7 -2.5 -9.5t-6 -3.5t-6 -1.5t-2.5 -2.5v-11q0 -1 2.5 -2.5
t6 -3t6 -3.5t2.5 -4v-18q0 -2 -1.5 -3t-4 -1.5t-4 -1.5t-2.5 -2v-4.5t-0.5 -7t-0.5 -6.5v-5q-1 -3 -1.5 -6t-5.5 -3q-1 0 -2.5 1t-2.5 2v3.5v3.5q0 5 1 9.5t1 9.5q0 3 -3.5 4t-7 3t-7 5t-3.5 9t1.5 9t3.5 4.5t4.5 2.5t4.5 2t3.5 3.5t1.5 7.5q0 4 -3 6l-6 4t-5.5 5t-2.5 10z
M59 120q0 -3 1.5 -5t3.5 -3t5 -1h5h3.5h3.5q1 3 1 5v5v4t-3 3h-17q-1 0 -2 -1t-1 -2.5v-2.5v-2zM164 84q1 2 2 2h3q3 0 9 -4t12 -8.5t10 -9t4 -7.5v-1v-2t-1 -3.5t-2 -2.5t-3 -1t-2.5 1.5t-1 3.5t-0.5 4t-1 4q-3 3 -6.5 6t-7.5 6t-8 5.5t-7 6.5zM57 72q0 -3 2 -5.5t4.5 -4.5
t5.5 -3t6 -1q4 0 5 3.5t1 6.5v3.5v2.5q-2 3 -5.5 3h-6.5h-4t-4 -0.5t-3 -1.5t-1 -3zM157 52q0 2 1.5 2.5t3.5 0.5q4 0 11 -3t13.5 -8t11.5 -10.5t5 -10.5q0 -2 -0.5 -4l-1 -4t-1.5 -3t-3 -1q-3 0 -4 1t-1 3q0 1 0.5 3t0.5 4q-1 6 -7 10.5t-12 7.5t-11.5 6t-5.5 6z" />
</svg>
