<?xml version="1.0" standalone="no"?>
<!DOCTYPE svg PUBLIC "-//W3C//DTD SVG 1.1//EN" "http://www.w3.org/Graphics/SVG/1.1/DTD/svg11.dtd" >
<svg xmlns="http://www.w3.org/2000/svg" xmlns:xlink="http://www.w3.org/1999/xlink" version="1.1" viewBox="-10 0 266 256">
   <path fill="currentColor"
d="M197 205q0 4 1 12t3 15.5t5.5 13t7.5 5.5q2 0 4 -0.5t2 -3.5q0 -4 -3 -10t-7 -9q0 -2 -1 -5.5t-1.5 -8t-1.5 -8t-1 -5.5v-0.5v-1.5q0 -8 2 -15t4.5 -13.5t4.5 -13.5t2 -15q0 -3 -3.5 -7t-7.5 -7t-7.5 -6t-2.5 -5l1 -15q1 -2 3 -3.5t5 -2t5.5 -2t2.5 -4.5q0 -2 -0.5 -4
t-1.5 -4t-2 -3.5t-2 -1.5h-2h-1q0 6 -1.5 8.5t-4 4.5t-5.5 3.5l-7 3.5q-2 1 -4.5 2t-4.5 2t-3.5 2l-1.5 1v5q4 0 7.5 -1t7.5 -1q0 10 -1 18t-2.5 16t-4 16t-5.5 18l-2 4t-2.5 3.5t-2.5 3.5t-1 5v0q0 1 1 2l2 2v0h1h0.5h0.5q1 -1 2.5 -3l3 -4t2.5 -4t2 -3l1 -2.5l2 -5l2 -5
t1 -3.5q1 -2 2 -6.5t2.5 -9.5t2.5 -9.5t2 -6.5h1q6 0 9 5t3 10q0 3 -2 6.5t-3 7.5q-3 11 -5.5 21t-2.5 22zM100 230v1q0 1 1.5 2l1.5 1q2 1 6 -3t8 -9t7 -10t4 -8h1q3 0 6 3.5t5.5 8l5 9t6.5 6.5q2 1 2.5 -1t0.5 -3v-2v-1l-13 -24l-5 -5q0 -1 -0.5 -2.5t-0.5 -4.5v-5v-5v-6
v-8t0.5 -7t0.5 -4v-2t0.5 -4.5t0.5 -4v-2.5q0 -2 -1 -4.5t-4 -2.5q-4 0 -4 5v55q-9 7 -16 16.5t-13 19.5v1zM63 223q-1 3 1.5 3h3.5q2 0 3.5 -1t1.5 -2.5v-3.5v-3q0 -28 -1 -55.5t-1 -55.5v-4v-5v-4v-2l2 -1h15q2 0 2 -2v-3v-1v-1l-19 -3v-51q0 -1 -1 -2l-2 -2h-1h-1
q0 1 -1.5 2t-1.5 2v49q0 3 -1.5 3.5t-3.5 0.5h-2l-2 -0.5t-4.5 -0.5t-4.5 -0.5l-2 -0.5h-1h-1l-1.5 1.5l-1.5 1.5v1v1q1 1 2.5 3t2.5 2h16l2 1q0 4 0.5 9t1 11t1.5 11.5t1 9.5q0 20 -1 39.5t-1 38.5v14zM45 198q0 1 1 1.5t2 0.5q2 0 2.5 -1t0.5 -3q0 -3 0.5 -10.5t1.5 -16
t1.5 -16t0.5 -10.5v-2v-4v-5v-3v-3v-5v-4v-3l-1 -1l-1 -1h-0.5h-0.5h-0.5h-0.5l-0.5 1t-1.5 1q-2 19 -3 39t-1 39v6zM85 195q0 1 1 3t3 2q3 0 3.5 -3.5t0.5 -5.5v-5v-1t-0.5 -2.5t-1 -2.5t-0.5 -2v-35q0 -18 -3 -36l-1.5 -1.5l-1.5 -1.5h-1h-1l-1 0.5t-1 1.5v2.5v3.5
q0 20 1 41t3 42zM148 189v1l1 0.5l1 0.5h1h1l1 -0.5t2 -0.5q1 -8 1.5 -14t0.5 -14v-14l-2 -1h-1q-3 0 -3.5 3t-0.5 5q0 1 -0.5 6t-0.5 10.5t-0.5 10.5t-0.5 6v1zM110 164q0 3 -1 6l-2 6t-2 5.5t-1 5.5q4 0 6.5 -3t4 -7t2 -8.5t0.5 -7.5v-3q0 -3 -0.5 -5t-2 -3.5t-3.5 -1.5
h-1l-1.5 1.5l-0.5 0.5v1q0 3 1 6.5t1 6.5zM127 56q0 2 -1.5 3.5t-2.5 3t-2.5 3t-2.5 3.5q-5 15 -7 31t-2 32h8v-12l2 -0.5l2 -0.5h2h4h4h2q2 0 6.5 -0.5t9.5 -0.5t9.5 -0.5t6.5 -0.5l2 -2v0v-1q-1 0 -1.5 -1l-0.5 -1h-5q-3 0 -7 -0.5t-7 -2t-3 -3.5q0 -4 2.5 -5t6 -1.5
t6 -0.5t2.5 -2q0 -4 -2.5 -4.5t-5.5 -0.5t-5.5 -0.5t-2.5 -4.5q0 -1 0.5 -2l0.5 -1l15 -3l0.5 -0.5t0.5 -1.5q0 -3 -3 -3h-6t-6 -1t-3 -6q0 -3 1 -3h3t3.5 0.5t3 1.5t3.5 2t4 1t3 -0.5t1 -3.5t-3.5 -5t-7.5 -3.5t-7 -3t-2 -4.5t4 -4t6.5 -1.5t6.5 -1.5t3 -4v-1.5v-0.5
q-1 -1 -5 -3.5l-8 -5t-7.5 -5t-4.5 -3.5l-1.5 -0.5l-1.5 -0.5h-2v0l-32 30q-1 1 -1 1.5t1 0.5t2 0.5l1 0.5q3 0 5.5 -2t5.5 -2t6.5 2t3.5 5zM120 106v-2t1 -2h14v8l-2 1t-3 1h-1q-4 0 -6.5 -1t-2.5 -5zM130 84h4.5t2.5 3v2q-1 1 -1.5 3l-0.5 2h-14q0 -5 1.5 -7.5t7.5 -2.5z
M205 46q-2 0 -2.5 1t-1 3t0 3.5t0.5 2.5q-1 5 -6 7.5t-10 4.5t-9.5 5t-4.5 8q5 0 11.5 -2t12.5 -5.5t10 -8t4 -10.5q0 -3 -1 -6t-4 -3zM126 72q0 -3 1.5 -5.5t4.5 -2.5q2 0 2.5 2t0.5 4q0 3 -0.5 4.5t-3.5 1.5q-5 0 -5 -4zM76 59q0 2 1 5t4 3q2 0 3.5 -4t2 -9.5t0.5 -10.5
v-8q-5 0 -7 2.5t-3 6.5t-1 8v7zM46 39q0 3 0.5 7.5t1 8.5t2 7.5t3.5 3.5t2.5 -1t1 -3t0.5 -3.5v-2.5v-5.5t-0.5 -6.5t-1.5 -5.5t-5 -2.5q-2 0 -3 0.5t-1 2.5zM202 25q0 3 -2 5t-5 3.5t-6.5 2.5t-6 2.5t-4.5 3.5t-2 6q3 0 7.5 -1.5t9 -3.5t9 -4.5t6.5 -4.5t2 -6v-5v-8
q0 -2 -2.5 -2h-3.5h-4q-2 0 -2 2v1v0l0.5 1.5t1.5 2.5t1.5 2l0.5 1v2zM126 42q0 -1 1 -2.5t2.5 -3l2.5 -2.5t3 -1q3 0 6.5 2t5.5 5q-1 0 -1.5 0.5l-0.5 0.5h-1h-1l-0.5 -0.5l-0.5 -0.5q-1 -1 -2.5 -1.5l-1.5 -0.5l-1 1t-2 2.5l-2 3l-1 1.5h-1h-1q-1 0 -2 -1.5t-2 -1.5v-1z
" />
</svg>
