<?xml version="1.0" standalone="no"?>
<!DOCTYPE svg PUBLIC "-//W3C//DTD SVG 1.1//EN" "http://www.w3.org/Graphics/SVG/1.1/DTD/svg11.dtd" >
<svg xmlns="http://www.w3.org/2000/svg" xmlns:xlink="http://www.w3.org/1999/xlink" version="1.1" viewBox="-10 0 266 256">
   <path fill="currentColor"
d="M125 190q0 8 1 13t3 9.5t5 9t7 9.5q2 2 3 5.5t2 6.5t3 5.5t5 2.5q2 0 5 -1.5t3 -4.5v-1l-1.5 -1.5l-1.5 -1.5l-2.5 -2.5t-3 -3.5t-2.5 -3.5t-2 -1.5q-7 -10 -10.5 -21t-3.5 -23v-3v-3v-4v-3q2 -7 7.5 -12.5t13.5 -5.5h2.5t2.5 2q0 3 2 9.5t5.5 13.5l7.5 15t8.5 14t9 10
t8.5 4q3 0 5.5 -2t2.5 -5t-2 -5.5t-6 -2.5q-4 -3 -10 -9t-11.5 -13t-9 -14.5t-3.5 -13.5q0 -4 1.5 -6t3.5 -3.5t3.5 -3t1.5 -4.5q0 -1 0.5 -3.5t0.5 -5.5t0.5 -5.5t0.5 -3.5q3 -4 5 -4t4 -0.5t4 -3.5t4 -11q0 -1 1 -2t1 -2v-53l-2 -3v-21q0 -3 -2.5 -5t-5.5 -3t-6 -1.5
t-5 -0.5h-13h-10q-7 0 -13 1t-10.5 4.5t-4.5 10.5v68q0 10 3 15.5t8.5 7.5t13 2t15.5 -1q1 1 1.5 2t0.5 2q0 10 -3.5 14t-8 6.5t-10.5 4.5t-10.5 6t-8 11.5t-3.5 22.5zM47 171q1 6 3.5 9t5.5 5t7.5 2.5t8.5 1.5q7 2 14 3.5t14 1.5h4h4l0.5 -1.5l0.5 -1.5q0 -2 -3.5 -3
t-8 -1.5t-9 -1.5t-6.5 -4q0 -1 -0.5 -5t-0.5 -8.5t-0.5 -8.5t-0.5 -5v-2q0 -3 3.5 -4.5t7.5 -3t8 -4t6 -6.5v-6v-10.5t0.5 -10.5t0.5 -7q0 -1 0.5 -4t1.5 -4v-58q0 -1 -1.5 -1t-3 -0.5t-3 -0.5h-1.5v8v11v14q0 7 -0.5 13.5t-0.5 11.5v7v4t-0.5 6.5t-0.5 6.5v4q0 3 -0.5 7
t-1.5 7t-3 5t-7 2h-1.5t-1.5 -1v-80q1 -3 1.5 -5t0.5 -5q0 -2 -0.5 -3.5l-1.5 -4.5v-28q-4 0 -6 1t-4 5v18q0 15 1 29.5t1 29.5v2q0 1 -0.5 3t-0.5 4.5t-0.5 4.5l-0.5 2v62q2 7 -4 7h-0.5h-1.5q-5 -3 -7.5 -11.5t-3.5 -19.5t-1.5 -21.5t-0.5 -16.5q0 -14 2 -27.5t2 -27.5
q0 -2 -3 -5.5t-6 -3.5h-1.5t-1.5 2v87q1 4 1.5 8.5t0.5 9.5v9.5v7.5zM136 89q3 0 9.5 -0.5t14 -1t14 -1t9.5 -0.5h3q3 0 4 3t1 6q0 7 -4.5 10.5t-11 5.5t-13.5 2.5t-11 0.5q-1 0 -3.5 -0.5t-5 -1.5t-4.5 -2t-2 -3v-18zM135 55h1.5h1.5q3 0 5.5 1t4.5 1q7 0 14 -2t14 -2h2h3
t3.5 0.5l1.5 0.5q3 -1 4 1t1 4.5v5v3.5v5t-2 5q-5 0 -12 1t-14 1.5t-14.5 1t-13.5 0.5v-27zM133 41q0 -8 3.5 -12t8 -6t10.5 -2h12h15q4 3 5 8t1 10q0 2 -0.5 3.5t-2.5 1.5q-9 0 -18.5 1.5t-18.5 1.5h-5q-3 0 -5 -0.5t-3.5 -2t-1.5 -3.5z" />
</svg>
