<?xml version="1.0" standalone="no"?>
<!DOCTYPE svg PUBLIC "-//W3C//DTD SVG 1.1//EN" "http://www.w3.org/Graphics/SVG/1.1/DTD/svg11.dtd" >
<svg xmlns="http://www.w3.org/2000/svg" xmlns:xlink="http://www.w3.org/1999/xlink" version="1.1" viewBox="-10 0 266 256">
   <path fill="currentColor"
d="M94 245l-0.5 1.5t0 3t1.5 1.5q4 0 7.5 -4t6.5 -10t5 -11.5t3 -9.5q1 -2 3.5 -9t5.5 -14.5t5 -14t3 -8.5q2 -9 4.5 -18t2.5 -18v-2v-3q-3 -2 -4 -5t-4 -4l-25 -13q-5 -2 -5.5 -6.5t0.5 -9.5l-3 -3l-3 3q0 1 -0.5 3t-0.5 3q0 2 0.5 4.5t1 5.5t1.5 5t3 3l23 11q2 1 4.5 4.5
t3.5 6.5l-1 2l-1 2q-3 21 -10 41t-15 39q-1 3 -3 6l-4 6t-3.5 6t-1.5 6zM159 246q0 3 3 3q7 0 13 -7.5t10.5 -17.5t8 -20t6.5 -14v-30q0 -3 -3 -6.5t-7 -7t-8 -6.5t-6 -6v-9q0 -5 1 -10.5t1 -10.5q0 -3 -1 -4.5t-3 -1.5q-3 0 -4.5 3.5t-2 8.5t-0.5 9v6q0 5 1 10.5t1 11.5
q0 3 -1.5 6t-3.5 5.5l-4 5t-4 6.5l-1 2.5t-2.5 5t-2.5 5t-2 2.5q-3 6 -7.5 12t-6.5 11v1q0 5 4 5t5.5 -2t2.5 -5l2 -6t2 -5q5 -9 12 -19t13 -18q1 -2 2 -3t3 -1h0.5h0.5q2 2 4 3.5t4 4t3 5t0 5.5q-1 5 -2.5 11.5t-3.5 13t-5 12.5t-6 11q-2 3 -4.5 6l-5 6t-4.5 6.5t-2 6.5z
M97 127q-2 0 -5 5t-6.5 13t-7.5 17.5t-8 18t-7 16t-5 10.5q-1 0 -1.5 1.5l-0.5 1.5v4.5v4.5q4 0 7 -2t5 -5.5t3.5 -7t3.5 -6.5l0.5 -0.5l0.5 -0.5q3 0 5 2.5t4.5 5t4.5 5t5 2.5q4 0 4 -3t-2 -5l-16 -16v-2v-2q0 -5 1.5 -7.5t6.5 -2.5q3 0 6 1.5t5 3t5 2.5t6 1q2 0 3.5 -0.5
t1.5 -2.5q0 -4 -4.5 -5.5t-9.5 -3t-9 -3.5t-4 -5q0 -4 2 -7.5t4 -6.5h1.5h1.5q5 0 9.5 2t8.5 2q2 0 2.5 -1t0.5 -3q0 -3 -2 -4.5t-5 -2t-6.5 -1t-5.5 -2.5q0 -1 0.5 -3t0.5 -3.5t-1 -3t-3 -1.5zM89 77q11 2 23.5 3.5l25 3t24.5 2.5t22 2h6h5q2 0 2 -1v-2v-3t-2 -2
q-11 -2 -22 -1.5t-23 -1.5q-1 0 -4.5 -0.5t-6.5 -1t-5.5 -1.5t-2.5 -3l2 -15q0 -1 3.5 -1.5t5.5 -0.5h4.5t7.5 -0.5t7.5 -0.5h4.5q0 -1 3 -2t4 -1l1.5 -1.5l0.5 -0.5v-30q0 -1 -1.5 -1.5l-1.5 -0.5q-3 0 -3.5 4t-1 9t-1 9.5t-3.5 6.5h-4t-6 0.5t-5.5 0.5h-3.5h-2
q-4 0 -6 -3.5t-2 -6.5q0 -5 1 -8.5t1 -8.5q0 -6 -5 -6q-3 0 -4 1.5t-2 3.5q0 6 0.5 12.5t0 14l-1 15t-2.5 13.5l-2 1v0h-7.5t-7.5 -0.5t-7.5 -2.5t-5.5 -4q0 -4 0.5 -8.5t0.5 -10.5q0 -5 -0.5 -10t-1.5 -9q-1 0 -2 -1l-1 -1q-2 0 -3.5 2t-1.5 3v36q0 2 1.5 5.5t4.5 3.5z" />
</svg>
