<?xml version="1.0" standalone="no"?>
<!DOCTYPE svg PUBLIC "-//W3C//DTD SVG 1.1//EN" "http://www.w3.org/Graphics/SVG/1.1/DTD/svg11.dtd" >
<svg xmlns="http://www.w3.org/2000/svg" xmlns:xlink="http://www.w3.org/1999/xlink" version="1.1" viewBox="-10 0 266 256">
   <path fill="currentColor"
d="M116 248q18 -1 36 1t35 2h10q0 -1 1 -1.5t2 -1.5l2 -2l1 -1v-1v-1q-1 -1 -2.5 -2t-3.5 -1h-3h-2h-54l-1.5 -0.5t-1.5 -1.5q-1 0 -1.5 -0.5l-0.5 -0.5v-18q0 -2 1.5 -3.5l1.5 -1.5h3.5h5.5h5.5h3.5q2 0 6.5 -1t8.5 -2.5t6.5 -4t2.5 -6.5v-27q-6 0 -7.5 2.5t-1.5 6v7.5
t-2 7.5t-7 6t-16 2.5h-6q-1 -1 -2 -3t-1 -4v-39l-0.5 -1t-1.5 -1l-2.5 -1.5t-3.5 -1.5q-1 1 -2 2.5t-1 2.5v76l-1.5 1.5t-2.5 1.5q-1 1 -2 1.5t-2 0.5v0q-3 0 -7 -1t-7.5 -3t-6 -4.5t-3.5 -5.5q-3 -11 -4.5 -23t-0.5 -24q0 -2 -1 -2h-2q-3 0 -6 3v7v10.5t0.5 9.5t1 10.5
t1.5 11.5q0 6 4.5 9t10 5t11 3t9.5 2zM163 137v30q3 0 5 -3.5t2 -6.5q0 -1 0.5 -3.5t0.5 -5.5t-0.5 -5.5t-0.5 -3.5l2 -2h31q1 0 3.5 -1.5t2.5 -3.5v-2q0 -3 -0.5 -4t-3.5 -1q-8 0 -15 1.5t-15 1.5h-3t-2 -2v-10q0 -2 2.5 -3t6.5 -1.5t8 -1.5t7.5 -3t6 -6t2.5 -11
q0 -2 -0.5 -5t-3.5 -3q-2 0 -2.5 1.5t-1 3.5t-1 5t-2.5 5t-5 3.5t-9 1.5q-1 0 -3.5 -0.5t-2.5 -2.5v-19q0 -1 2 -2t4 -1.5t4.5 -1t3.5 -1.5q2 -1 3 -3.5t1.5 -5.5t1 -5.5t2.5 -5.5q1 -2 3.5 -2t5.5 -0.5t5.5 -1.5t2.5 -4q0 -4 -4 -4h-1q-9 2 -18.5 3.5t-18.5 1.5t-18.5 0.5
t-20.5 0.5l-0.5 1l-0.5 1v1v0q0 1 0.5 1.5l0.5 0.5h2.5h3.5h4h3l1 0.5t2 0.5q-1 9 1.5 13.5t6.5 7t7 4t3 3.5v18q0 3 -2.5 3.5t-4.5 0.5q-6 0 -9.5 -3.5t-5.5 -8t-3 -8.5t-2 -4h-1l-1 2v6v8.5t1 8.5q1 3 5.5 4t9 1.5t8.5 1t4 1.5v16h-30q-1 0 -1 2v2v2.5t1 1.5h30zM50 79
q0 7 -0.5 16.5t0.5 20t4 19t8 13.5h7q9 0 18 -0.5t17 -0.5q2 0 5 -0.5t6 -1.5t4.5 -3t1.5 -5v-3.5t-2 -1.5h-1q0 1 -1.5 1.5l-1.5 0.5q-1 0 -3.5 1t-4.5 1.5t-4 0.5h-2h-16h-16q-2 0 -3 -0.5t-1.5 -1.5l-1 -2t-1.5 -2q0 -3 -0.5 -11t-1 -16.5t-1 -16.5t-0.5 -11v-6
q0 -6 1.5 -9.5t5 -5.5t8 -2.5t10.5 -1.5h28q8 -3 9.5 -8t1.5 -13v-4.5v-4.5q-2 -3 -4.5 -4t-5.5 -1h-65q0 2 1 5t4 3h23q2 0 2 2v2v4q0 1 -0.5 3t-0.5 4t-0.5 3.5l-0.5 1.5l-1 1q-5 0 -9 0.5t-7 1.5t-5.5 3.5t-3.5 6.5v5v6v7v4zM73 85v12t1.5 9t5.5 6t12 2q5 0 10 -1t8 -6
q0 -5 0.5 -9t0.5 -7.5t0.5 -6.5t0.5 -7v-6q-2 -1 -3 -1h-3t-2.5 1.5l-1 3l-1 3t-3.5 1.5h-17q-1 0 -1.5 -0.5t-0.5 -1.5l-0.5 -3t-0.5 -4h-2h-1.5t-1.5 1v3v4v5v2zM79 95q0 -2 1 -4.5t4 -2.5h19q1 0 1 2.5v3.5q0 6 -4.5 9.5t-10.5 3.5q-5 0 -7.5 -4t-2.5 -8zM153 61
q0 -5 4 -7t9.5 -2.5t11 0t8.5 0.5q0 2 -0.5 4.5l-1 5t-2 4.5t-4.5 2h-21q-2 0 -2.5 -1l-1 -2t-0.5 -2v-2zM86 44q0 -1 -0.5 -2.5t-0.5 -2.5q0 -4 0.5 -6.5l1.5 -7.5q4 -2 8.5 -2.5t7.5 -0.5q5 0 7.5 3.5t2.5 7.5t-2.5 8t-7.5 4h-1h-1h-3t-4.5 -0.5t-5 -0.5h-2.5zM140 24
q0 2 1 2.5t3 0.5h3q4 0 10.5 -0.5t13 -0.5t11.5 -0.5l5 -0.5h4t4 -0.5t3.5 -1.5t1.5 -3q0 -3 -1.5 -3.5t-3.5 -0.5q-3 0 -6 0.5t-6 1.5q-3 0 -8.5 0.5t-12.5 1t-13 1t-8 0.5q-1 0 -1 1v2z" />
</svg>
