<?xml version="1.0" standalone="no"?>
<!DOCTYPE svg PUBLIC "-//W3C//DTD SVG 1.1//EN" "http://www.w3.org/Graphics/SVG/1.1/DTD/svg11.dtd" >
<svg xmlns="http://www.w3.org/2000/svg" xmlns:xlink="http://www.w3.org/1999/xlink" version="1.1" viewBox="-10 0 266 256">
   <path fill="currentColor"
d="M76 115v130q0 2 2 3.5t4 1.5q1 0 2.5 -1t2.5 -2.5t1.5 -3t0.5 -3.5v-108q0 -1 1 -2.5t2 -1.5q16 0 30.5 -2t29.5 -2q4 0 5.5 1.5t2.5 3.5t1 4.5t1 5.5v6.5t0.5 9.5t0.5 9.5v6.5v6v9v9v5t0.5 5t1.5 8.5t1.5 9t0.5 5.5v19q1 2 2.5 2.5t3.5 0.5q4 0 7 -2t3 -6v-2l-1 -1.5
t-1.5 -3l-1 -3l-0.5 -1.5q-1 -10 -1.5 -20.5t-0.5 -21.5t-0.5 -21.5t-0.5 -20.5l-0.5 -1t-0.5 -2t-0.5 -2l-0.5 -1q-1 -8 -1 -16v-17t-1 -17t-4 -15q0 -1 -1 -3.5l-2 -5t-2 -4l-1 -1.5h-36l-3 -4v-14q1 0 5 -0.5t8.5 -0.5t8.5 -0.5t6 -0.5h2h1q1 0 2.5 0.5t3.5 0.5t3.5 0.5
l1.5 0.5q4 0 4.5 -1t0.5 -4t-1.5 -5.5t-5.5 -2.5h-34q-3 0 -4 -3t-1.5 -7t-2.5 -7t-7 -3q-2 0 -3.5 1.5t-2.5 3.5v4.5v4.5q0 8 1 15.5t1 15.5q0 5 -2.5 6.5t-6.5 1.5t-8.5 0.5t-8.5 3t-7 9t-3 17.5q0 6 0.5 10t1.5 11zM136 74q8 0 12 1.5t5.5 4t2 7t2.5 10.5l0.5 1.5
t1.5 3.5l1.5 3t0.5 2t-1.5 3t-2.5 3l-1.5 0.5t-3 0.5t-3.5 0.5t-3 0.5q-12 0 -25 1.5t-24 1.5h-2.5t-3 -0.5t-2.5 -1t-1 -1.5v-32q0 -3 3 -4.5t8 -2.5t11 -1t11 -0.5t9 -0.5h5z" />
</svg>
