<?xml version="1.0" standalone="no"?>
<!DOCTYPE svg PUBLIC "-//W3C//DTD SVG 1.1//EN" "http://www.w3.org/Graphics/SVG/1.1/DTD/svg11.dtd" >
<svg xmlns="http://www.w3.org/2000/svg" xmlns:xlink="http://www.w3.org/1999/xlink" version="1.1" viewBox="-10 0 266 256">
   <path fill="currentColor"
d="M181 179h1.5h0.5l10 68q0 1 1 2l2 2v0q3 0 4.5 -3.5t1.5 -5.5v-1v-2l-9 -58v-2v-2q0 -3 0.5 -4t1.5 -1.5t2 -1.5t3 -4q5 -5 6 -12.5t1 -13.5q0 -4 -2.5 -7t-5.5 -5t-7 -3.5t-7 -1.5h-32l-1 2q-1 0 -4.5 -1t-4.5 -1h-1h-1q0 1 -1.5 2t-1.5 2v0v1v0q0 1 0.5 1.5t1.5 0.5h30
h7t8.5 1t7.5 3.5t3 6.5v17q0 1 -2 2.5t-3 2.5h-1q-2 0 -3.5 -1.5t-3 -4.5t-3 -5t-3.5 -3q-7 -3 -16 -3h-16h-4.5h-4.5l-1.5 1.5l-1.5 1.5v0.5v0.5v1l0.5 0.5t1.5 0.5l34 3q2 0 3.5 1.5t3 3.5t2.5 3.5t2 2.5q-1 3 -2.5 5t-3.5 2l-42 3q-1 0 -1.5 0.5t-0.5 1.5l0.5 1t1.5 2
l2.5 0.5t5 0.5h4.5h3t5.5 -0.5t10 -1t10 -1t5.5 -0.5h2h1zM48 197q0 3 1 4t3 1q9 0 18.5 -1t19 -2.5t19 -2.5t18.5 -1l1.5 -1.5l1.5 -1.5v-1q0 -1 -2.5 -2t-6 -1.5t-7 -0.5h-4.5v-3v-5.5v-5.5v-3q0 -6 -0.5 -13.5t-0.5 -14.5t1 -14t3 -12q2 -6 4.5 -7.5t4.5 -3.5t3.5 -5.5
t1.5 -12.5v-2v-4v-3v-2q-2 -8 -9 -10.5t-14 -2.5t-14.5 0.5t-13.5 3t-9.5 7.5t-3.5 14t1.5 12.5t3.5 5t4 2.5t5 4v22q0 14 -1 27.5t-1 27.5q0 1 -1.5 2t-3.5 1h-18q-3 0 -3.5 2t-0.5 3zM83 185v-4.5v-4.5q0 -15 1 -29.5t2 -29.5q3 -1 5.5 -1.5t5.5 -0.5q1 0 3 0.5l2 0.5l1 3
v2q0 1 0.5 3t0.5 5v3v5t-0.5 6t-0.5 6v3v6t-0.5 8.5t-0.5 8.5v6q-1 7 -4 8t-10 1q-2 0 -3.5 -1.5t-1.5 -3.5zM72 88v-8q3 -3 6.5 -5t7.5 -3t8.5 -1h8.5q10 0 13 5t3 15q0 6 -2.5 8.5t-6 4t-7.5 2t-8 0.5q-6 0 -10 -0.5t-7 -2.5t-4.5 -5.5t-1.5 -9.5zM152 88q0 8 3 11.5
t8.5 4.5t12 1h12.5h3h6t6 -0.5t4 -0.5t1 -1.5v-2.5v-1v-1q-10 -1 -21 -1.5t-21 0.5q-3 -1 -6 -3.5t-3 -5.5q0 -2 0.5 -4.5t2 -4.5t3 -3.5t3.5 -1.5h6t9 -0.5t9 -0.5h6l6 -2t5 -5v-3.5t0.5 -5t0.5 -5v-4.5v0q0 -5 -3 -6.5t-6 -4.5h-42l-2 -3v-6t-0.5 -7.5t-2.5 -6t-6 -2.5
t-4 2q0 6 2.5 11.5t2.5 11.5q0 3 -1.5 6l-2.5 5q-1 1 -2 3t-2.5 4t-2.5 4t-1 3q-1 2 0 2.5t3 0.5q4 0 6.5 -3t4 -6.5t3 -6.5t3.5 -3q6 -2 11 -2h12h2h4h4h3q4 1 6 4t2 7q0 6 -3.5 8t-8.5 2.5t-11.5 0.5t-11.5 1.5t-8.5 6t-3.5 14.5zM53 37h0.5h0.5q0 1 1 2l2 2h6
q16 0 31.5 -2.5t30.5 -2.5q1 0 3 -0.5t2 -1.5v0v0v-1v0q0 -1 -1.5 -2l-1.5 -1h-10h-9h-4.5t-7.5 0.5t-7.5 0.5h-5.5h-6t-10.5 0.5t-9.5 2t-4 3.5z" />
</svg>
