<?xml version="1.0" standalone="no"?>
<!DOCTYPE svg PUBLIC "-//W3C//DTD SVG 1.1//EN" "http://www.w3.org/Graphics/SVG/1.1/DTD/svg11.dtd" >
<svg xmlns="http://www.w3.org/2000/svg" xmlns:xlink="http://www.w3.org/1999/xlink" version="1.1" viewBox="-10 0 266 256">
   <path fill="currentColor"
d="M108 248q0 2 1 2.5t3 0.5q4 0 6 -2t2.5 -5t0.5 -6v-6q0 -1 0.5 -4.5t0.5 -8t0.5 -8t0.5 -4.5v-2q0 -6 -1 -12.5t-3.5 -12t-6.5 -9.5t-11 -5q-2 -1 -7.5 -1.5t-11 -1.5t-11 -1.5t-7.5 -1.5q-5 -2 -5 -8v-3.5v-5.5v-5v-4q0 -4 -0.5 -11.5t0 -14.5t2.5 -12.5t8 -7.5
q9 -4 17.5 -4h16.5q7 0 13 -0.5t10 -4.5t6 -12t2 -22v-3v-4t-0.5 -6t-0.5 -6v-5q-4 -6 -11.5 -8t-14.5 -2q-11 0 -23 0.5t-22 2.5q0 1 -1.5 2.5l-1.5 1.5v1v0v1l1.5 1.5l1.5 1.5h1q8 0 15.5 -1t15.5 -1h20q5 0 7.5 3t3.5 7t1 9v8v3q0 1 -1 3l-1 2l1 1.5t1 2.5v0.5v1.5v0.5
v0.5l-13 14q-2 0 -7 0.5t-11 0.5t-11 0.5t-7 0.5q-10 0 -16 4t-8.5 10t-3 14t-0.5 18v16.5t1 17.5q3 4 5 6t6 4q9 2 17 2.5t14 0.5t10 1t7 5t4 11t1 20q0 10 -2 19t-4 19v1zM197 242q0 2 2 2h3h2.5h2.5q1 -2 1 -3v-3q0 -9 -1.5 -17t-4 -16t-4.5 -15.5t-2 -16.5l0.5 -3.5
l0.5 -3.5q6 -5 7 -12.5t1 -14.5q0 -10 -5 -15t-12 -7.5t-15.5 -3t-15.5 -0.5h-3t-4 0.5t-4 0.5h-3l-1 0.5l-1 0.5v1q0 3 4 4t10 1h13t13 2t10 6.5t4 12.5v3v4.5t-0.5 4.5t-2.5 2q-1 0 -1.5 -0.5l-0.5 -0.5q-9 -10 -19 -12.5t-24 -2.5q-1 0 -2.5 -0.5t-3 0t-2.5 1.5t-1 3v1v2
q8 0 14.5 0.5t11.5 1.5t10 4t11 9v1q0 1 -1 2l-2.5 2.5t-3 2t-2.5 0.5h-42l-0.5 1t-0.5 2v0q0 3 3.5 4t8.5 1.5t9 1t6 0.5q6 0 11 -2t10 -2h3t3 2q5 15 8 31.5t2 32.5zM106 99q-2 0 -7 0.5t-10.5 2t-10 4t-4.5 6.5v20q0 5 5 7t11 3t12 1h8h1.5h3t2.5 -0.5t1 -2.5v0l-2 -2
l-2 -2q-5 0 -10.5 0.5t-11 -0.5t-9 -3.5t-3.5 -9.5q0 -1 0.5 -3t0.5 -3l0.5 -1t2 -2t2.5 -2t2 -1h26q1 0 2 -1.5t2 -2.5v-1q0 -3 -1.5 -4l-3 -2t-3.5 -1h-4zM162 88q2 6 8 8.5t13 3t14.5 0.5h11.5q0 -1 -0.5 -4t-1.5 -3l-31 -5l-2.5 -1.5t-3.5 -2.5q-1 0 -1.5 -0.5
t-0.5 -1.5v-14l3 -3h4t6.5 -0.5t6 -0.5t4.5 -1q5 -1 7.5 -3.5t4 -5.5t1.5 -7v-9q0 -7 -4.5 -10t-11 -3.5t-13 -0.5t-10.5 -1q-3 -1 -3.5 -2.5t-1 -3.5t-2 -3.5t-5.5 -1.5q0 1 0.5 4t0.5 4v1t0.5 2t0.5 2v2q0 5 -2 10t-5 9.5t-5.5 8.5t-2.5 8q0 1 0.5 2.5t1.5 1.5q6 0 9 -5.5
t5 -11.5t4 -11t5 -5h24q1 0 2 1t1.5 3t0.5 4v2q0 6 -2.5 8.5t-6 3.5t-8 1t-8 2t-6 6t-2.5 13q0 1 0.5 4.5t0.5 5.5zM55 62q0 2 0.5 3.5t3.5 1.5h13h12q6 0 12.5 -1.5t10.5 -5.5t4 -11t-2.5 -10.5t-6 -5t-9.5 -1.5h-11q-2 0 -7 -0.5t-9.5 0t-7.5 2.5t-3 7h44q3 0 3.5 3t0.5 4
q0 7 -4 8.5t-10 1.5h-5.5h-8.5h-9h-5q-4 -1 -5 0.5t-1 3.5z" />
</svg>
