<?xml version="1.0" standalone="no"?>
<!DOCTYPE svg PUBLIC "-//W3C//DTD SVG 1.1//EN" "http://www.w3.org/Graphics/SVG/1.1/DTD/svg11.dtd" >
<svg xmlns="http://www.w3.org/2000/svg" xmlns:xlink="http://www.w3.org/1999/xlink" version="1.1" viewBox="-10 0 266 256">
   <path fill="currentColor"
d="M94 196q0 7 -1 14.5t-0.5 15.5t3.5 14.5t10 10.5q2 -1 6 -1t9 -0.5t9 -0.5h6l1.5 0.5t3 0.5t3 0.5l1.5 0.5h3q3 0 6.5 -1t7.5 -1.5t7 -1.5t5 -1q4 -4 6.5 -10t2.5 -12.5t-0.5 -13t-0.5 -10.5q2 -3 6 -3.5t8.5 0t8 -0.5t3.5 -5q0 -2 -2 -4.5t-5 -2.5h-34q-1 0 -4.5 -1.5
t-7.5 -4t-7 -4.5t-3 -3t3.5 -3.5t7.5 -5t7.5 -4.5t4.5 -2h31q2 0 5.5 -1.5t3.5 -4.5v0v0l-2 -2t-2 -1h-10q-9 0 -17.5 0.5t-16.5 0.5h-3.5t-2.5 -1q0 -6 -1 -10t-1 -9q0 -3 2 -6t5 -3q5 0 7 3t4.5 6.5t4.5 6.5t7 3h2t2 -0.5t2 -0.5t2 -1q0 -1 -0.5 -2.5t-1.5 -2.5
q0 -1 -2 -2.5t-3.5 -3t-3.5 -3t-2 -2.5l-0.5 -1l-0.5 -1q0 -2 1.5 -4t3 -3.5t3 -4t1.5 -5.5q0 -4 -3 -5.5t-6.5 -2t-8.5 -0.5h-9t-6.5 -1.5t-2.5 -4.5t2.5 -4.5t7 -2t9.5 -1t9 -1t7 -2t3 -4.5q0 -2 -1 -5.5t-3 -7t-5 -6t-6 -2.5h-28l-0.5 -1t-1.5 -1v-1q0 -3 5.5 -4.5
t11.5 -3t11 -3t5 -4.5v-10q0 -1 -1.5 -2l-1.5 -1q-4 -3 -8 -2.5t-9 0.5q-3 0 -10.5 -0.5t-15 -0.5t-13.5 -0.5t-8 -0.5q-6 0 -10.5 -1.5t-9.5 -1.5q-1 0 -2.5 0.5l-3 1t-2.5 1.5t-1 3t2.5 3.5t6 2t6.5 0t4 -0.5t1.5 1.5l0.5 1.5v0.5v0.5q0 5 -4.5 8t-10.5 5t-12 2.5t-9 0.5
q0 1 -1 2l-1 1v1v1q2 3 3 4t4 1q1 0 5 -1t8.5 -2t8.5 -2.5t6 -2.5q1 -2 4 -5.5l6 -7t6 -6.5t5 -3h39q1 0 1.5 1t0.5 2v2v1q0 3 -0.5 4.5t-4.5 1.5l-23 4l-0.5 1t-1.5 2q-2 4 -6 6.5t-9.5 3.5t-11.5 1t-11 1.5t-8 4t-3 7.5v5.5t2 4.5q1 1 3.5 4l2.5 3h20q2 0 2 2v3q0 4 -2 5
t-5 2t-6 1t-5 2q-1 0 -2 1l-2.5 2.5l-2.5 2.5t-2 1q0 2 -0.5 5t-1 6.5t-1 6.5t-0.5 4v1q0 1 1 4t2 5.5t2.5 5t2.5 2.5q3 0 4 -1.5t2 -3.5t1 -4v-4q0 -3 -1 -6.5t-1 -7.5q0 -2 1 -4l2 -4t2.5 -3.5t3.5 -1.5h1v0q0 1 1 3t2.5 4t2 3.5t1 2t1 2.5t1.5 4.5t2 4t3 1.5t3 -1
t1.5 -2.5l1 -3t0.5 -2.5q0 -3 -1 -5t-2.5 -4.5t-2.5 -5.5t-1 -6t1 -7.5t2.5 -9t3 -9.5t1.5 -8q1 -1 1.5 -4l0.5 -3l1.5 -1l1.5 -1q2 0 4.5 -0.5l2.5 -0.5q2 0 3.5 2.5t1.5 5.5v6v4q0 5 -1 10t-1 10q0 2 0.5 3t2.5 1h26q1 0 2 1.5t2 2.5v1q0 1 -4 3.5t-9 4.5l-10 4t-7 3v8
q0 4 1 8.5t1 9.5v2t-3 1h-77l-1.5 1.5l-1.5 1.5v1q0 2 1.5 4t3.5 3h5t8.5 -0.5t8.5 -0.5h5t2 -0.5l1 -0.5q2 0 5 1t6 3t5.5 4.5t2.5 4.5v3q-5 2 -9 5.5t-8 7.5h-49q-1 0 -1 1.5v2.5t0.5 3.5t2.5 2.5h43zM105 229v-5l0.5 -0.5l0.5 -0.5h59l0.5 0.5t1.5 0.5q0 2 1.5 4l1.5 2
q0 2 -0.5 3.5t-1.5 3t-2.5 2.5l-1.5 1h-53q-2 0 -3 -1t-2 -3t-1 -3.5v-3.5zM102 200q0 -1 3.5 -2t9.5 -2t13 -1.5t13 -0.5t11 -0.5t7 -0.5q5 0 8 4t3 9v1v3t-1 2t-2 1h-59l-3 -1l-1 -2t-1.5 -4.5t-0.5 -4.5v-1zM116 186v-1q0 -2 1.5 -4t3.5 -3.5t4.5 -2t4.5 -0.5q5 0 9 2.5
t8 3.5v5h-3h-5t-5 0.5t-3 0.5h-2h-1q-1 0 -2.5 -0.5t-3.5 -0.5h-3.5h-2.5zM118 159v-0.5v-0.5l6 -1.5t5 -0.5q4 0 6.5 0.5t6.5 1.5l0.5 1l0.5 1q0 2 -1.5 3.5t-3 2t-3.5 1.5l-4 2q-1 -1 -2.5 -2l-3 -2t-2.5 -1.5t-2 -1.5q-2 -1 -2.5 -1t-0.5 -2zM93 70q0 -5 4.5 -7t9.5 -2
q4 0 6 3.5t2 7.5q0 1 -2 2t-3 1t-2.5 0.5t-3.5 0.5t-3.5 0.5t-2.5 0.5q-3 -2 -4 -3t-1 -4zM147 62q0 -2 2.5 -3t5 -1.5t5.5 -0.5h4q3 0 4.5 2.5t1.5 5.5q0 6 -4.5 7.5t-10.5 1.5q-5 0 -6.5 -4t-1.5 -8z" />
</svg>
