<?xml version="1.0" standalone="no"?>
<!DOCTYPE svg PUBLIC "-//W3C//DTD SVG 1.1//EN" "http://www.w3.org/Graphics/SVG/1.1/DTD/svg11.dtd" >
<svg xmlns="http://www.w3.org/2000/svg" xmlns:xlink="http://www.w3.org/1999/xlink" version="1.1" viewBox="-10 0 266 256">
   <path fill="currentColor"
d="M64 158q1 2 2 10t2.5 18.5t3 21.5t4 20.5t5.5 16t8 6.5v0l2 -2l1 -1q0 -1 0.5 -3.5t0.5 -3.5q0 -4 -1.5 -8t-3 -8.5t-3 -8.5t-2.5 -8q-4 -16 -7 -33.5t-3 -34.5q0 -11 2.5 -21.5t5 -20.5t5 -20.5t2.5 -21.5v-3v-4.5v-4.5v-2t-1 -4.5t-2.5 -8t-2.5 -8t-2 -4.5
q-2 -3 -7 -4.5t-7 -1.5t-4.5 0.5t-2.5 2.5l0.5 1t1.5 2q0 1 2 2.5t3.5 3.5l3 4t2.5 3l2.5 5t2.5 6.5t1 7v6.5v4q0 3 -1.5 8.5t-3 11.5t-3 11t-1.5 8q-1 2 -3 5.5t-2 6.5v48zM151 217v29q0 3 1 3h3q3 0 4.5 -1t2.5 -4v-9q0 -14 -1 -27t-1 -27v-25q1 -2 1.5 -4t0.5 -3v-4t2 -3
h8h12.5t11 -1.5t4.5 -4.5q0 -4 -2.5 -5.5t-6.5 -1.5q-5 0 -10 1t-11 1h-2q-1 0 -3 -0.5t-3.5 -0.5t-1.5 -1l2 -16h27q2 0 3.5 -1.5t1.5 -2.5q0 -2 -1.5 -3.5t-3.5 -1.5h-28q0 -6 1 -8t3 -3.5t5.5 -2t8.5 -0.5q4 -1 6.5 -3t5.5 -2q2 0 3.5 1.5l3 3t3 3.5t4.5 2q6 0 6 -6
q0 -3 -1.5 -4.5t-3 -3.5t-3.5 -3.5t-3 -3.5l-0.5 -2t-0.5 -3.5t-0.5 -3.5t-0.5 -4v-3v-3q-1 -7 -4.5 -10.5t-8.5 -5.5t-11 -2h-10l-4 -3q1 -1 1 -5t-0.5 -8t-2 -7t-5.5 -3q-5 0 -5 5v3l0.5 2t1 4.5t1 4.5t0.5 3q-1 4 -4.5 4.5t-8 0.5t-8.5 0.5t-6 3.5v1v1l1.5 1.5l1.5 1.5
h22q1 0 1.5 1t0.5 2.5v2.5v2v3q0 1 -2 1h-17q-1 0 -3.5 1t-5 1.5t-4 2t-1.5 4.5q0 2 2 2.5t4 0.5h2l2.5 -0.5t5.5 -1t5.5 -0.5h3.5h2h1q1 0 3 0.5t2 1.5v14h-29l-1 1l-2 2v1v1q1 0 2 2l1 2h27q1 0 1.5 0.5t0.5 1.5t1 2.5t1 2.5q0 3 -4.5 4t-10 1.5t-11.5 0.5h-8l-0.5 0.5
t-0.5 1.5q0 2 2 3t4 1h25q1 0 2 2t1 4.5t0.5 4.5t0.5 3v5l-40 4l-0.5 1t-1.5 2v0q0 2 1 2.5t2.5 1t3 0.5h2.5q6 0 11.5 -0.5t11.5 -0.5h6q2 0 2 1v3q0 3 -3 5.5t-8 4.5t-10.5 4t-10.5 4t-8 4t-3 4q0 1 0.5 1.5l1.5 1.5h2.5h2.5q5 0 9.5 -2t8.5 -5t8 -5t9 -2h1l0.5 1.5
t0.5 3.5t0.5 3.5t0.5 2.5v2q0 4 -6.5 7t-14.5 6t-14.5 6t-6.5 5t2 3.5t4 1.5q4 0 8 -2t7.5 -4.5t7.5 -5t8 -2.5q1 0 1.5 0.5l1.5 1.5v3v3q0 5 -2.5 8t-6.5 5t-8.5 3.5t-8.5 3.5t-6.5 5t-2.5 7h9t7 -2q1 -1 3 -2t4 -2.5l4 -3t3 -2.5h5zM45 154v7v7v7v3q0 2 1 7.5t1.5 12
t1.5 12.5t1 7q0 3 0.5 6.5t1.5 7.5t3 6.5t5 2.5t3.5 -2t0.5 -5v-1.5v-1.5l-1 -2.5t-1.5 -4.5t-1.5 -4.5l-1 -2.5q0 -1 -0.5 -5t-1 -8.5t-1 -8.5t-0.5 -7q-1 -9 -1 -19t-0.5 -20.5t-0.5 -21.5q0 -10 1 -19q-1 -1 -2 -1.5t-2 -0.5h-1q-2 2 -3 5t-1.5 6t-0.5 6v4v4v7.5v9.5v7z
M102 229l2 2t3 2v0.5t1 0.5q2 0 3 -3t1 -5l-0.5 -1.5t-0.5 -2.5l-1 -3l-2 -6l-2 -6t-1 -4q-1 -4 -1.5 -8.5t-0.5 -9t-0.5 -8.5t-2.5 -8v-56q0 -2 -1 -2.5t-2 -0.5q-4 0 -5 2t-1 4.5v5v4.5q0 1 -0.5 3.5t-0.5 6t-0.5 6t-0.5 3.5q0 12 2 25.5t3 24.5q0 1 0.5 4.5l0.5 3.5
q0 1 1 1.5t1.5 1.5t1 2.5l0.5 1.5q0 1 0.5 3.5t1 5.5l1 6t0.5 4zM104 67q0 4 -2 7.5t-3.5 7t-3.5 6.5t-2 7q6 0 9.5 -3.5t6 -8.5t3.5 -10.5t1 -10.5v-9t-1.5 -7.5t-3.5 -6.5t-6 -6h-1h-1h-3t-2 1l1 1.5l1 1.5q1 1 2 3l1 2q1 2 1.5 5.5l1 7t1 6.5t0.5 6zM53 64q0 7 -1 13
t-1 13q5 0 7.5 -3t3.5 -7.5t1.5 -9t0.5 -8.5v-6.5t-1.5 -9t-3.5 -7.5t-7 -3q-4 0 -4 4q0 3 1 5t4 5v14zM158 77l0.5 -2.5t1.5 -2.5h18q3 0 3 3t-1.5 4l-3 2t-4 1h-3.5h-4h-3.5t-2.5 -1.5t-1 -3.5zM159 58v-6t3 -5h8q6 0 11 2.5t5 10.5q0 1 -0.5 2t-1.5 2h-4h-6.5t-7 -0.5
t-6.5 -2.5q-1 0 -1 -1v-2z" />
</svg>
