<?xml version="1.0" standalone="no"?>
<!DOCTYPE svg PUBLIC "-//W3C//DTD SVG 1.1//EN" "http://www.w3.org/Graphics/SVG/1.1/DTD/svg11.dtd" >
<svg xmlns="http://www.w3.org/2000/svg" xmlns:xlink="http://www.w3.org/1999/xlink" version="1.1" viewBox="-10 0 266 256">
   <path fill="currentColor"
d="M132 247q0 2 1.5 2.5t3.5 0.5t3.5 -0.5t1.5 -2.5q5 -18 7.5 -36t3.5 -36q0 -2 2 -3t5 -1h6h5t4 0.5t3 3.5q-1 18 -0.5 36.5t3.5 36.5q1 1 2 1.5t2 0.5l1.5 -0.5t1.5 -1.5v-75l3 -3h19q3 0 3.5 -1t0.5 -3q0 -1 -0.5 -2.5t-2.5 -1.5h-38l-1.5 -0.5t-2.5 -1.5v-1q0 -8 1 -17
t1 -17q6 0 11 3.5t9.5 7.5t8 7.5t6.5 3.5h1q2 -2 3.5 -3t1.5 -3q0 -6 -6 -10t-13.5 -8t-14.5 -7.5t-9 -7.5v-2.5t-0.5 -3.5t-0.5 -3.5v-2.5q-1 -2 -1 -3.5t-2 -1.5q-3 0 -4.5 2t-1.5 4v1l0.5 2l1 4t0.5 3.5v1.5q0 3 -2 5t-4.5 3.5t-5.5 2.5t-5 2q-1 1 -3 2.5l-4 3l-4 3
l-2 1.5q-1 0 -2.5 1.5l-3.5 3.5t-4.5 4t-3.5 3l-1.5 1.5t-0.5 1.5t1 2t2 1q5 0 10.5 -4t10.5 -9t9.5 -9t9.5 -4q1 0 2 1.5t1.5 3.5l1 4t0.5 3l-0.5 1.5t-0.5 3.5t-0.5 4l-0.5 2v3.5v4.5q0 3 0.5 5.5t0.5 3.5h-48v6l27 3q3 1 3 1.5v2.5q0 4 -1.5 8.5t-1.5 8.5v3v5v4v3
q-1 4 -2.5 9t-2.5 10t-2.5 10t-1.5 9zM63 140q0 18 3.5 34.5t10.5 32.5q1 2 2.5 6t3.5 8t4.5 6.5t5.5 2.5q2 0 3 -0.5t1 -3.5q0 -2 -1.5 -5t-3 -5.5l-3 -5t-2.5 -4.5q-8 -17 -11 -34t-3 -36v-25q0 -4 1 -7t2 -5.5t2.5 -5.5t3.5 -8q3 -9 4 -19.5t1 -19.5v-10q0 -5 -1 -10
t-4 -8.5t-10 -3.5q0 4 1.5 8l3 8t2.5 8.5t1 9.5q0 14 -3.5 25t-8.5 23q0 1 -0.5 3l-0.5 2q0 1 -0.5 5t-0.5 8.5t-0.5 8t-0.5 4.5t-0.5 3t-0.5 4t-0.5 4zM43 144v9.5t0.5 15t1.5 17.5t2.5 16.5t4 11.5t6.5 3t4 -4q0 -5 -3 -10.5t-4 -9.5t-2 -10t-2 -13t-1 -13.5v-9.5
q0 -12 1.5 -23.5t1.5 -23.5q0 -2 -1 -3t-3 -1h-2q0 2 -0.5 5.5t-0.5 8t-0.5 8t-0.5 4.5t-1 3l-1 2v4v4.5v4.5v4zM87 134q0 16 2.5 31t9.5 29q0 1 0.5 3l1 4t1.5 3.5t3 1.5q4 0 5 -2l0.5 -1.5t0.5 -2.5q0 -3 -1.5 -5.5t-3.5 -5t-3.5 -5t-2.5 -4.5v-3.5t-0.5 -5t-0.5 -5v-3.5
q-2 -8 -3.5 -16.5t-1.5 -17.5q0 -7 2.5 -14t2.5 -14q0 -2 -1 -3.5t-4 -1.5q-1 0 -2.5 2.5t-2.5 6t-1.5 6.5l-0.5 3v3v5v7v5zM169 121q2 0 2 1q0 2 -2 2q-1 0 -1 -2q0 -1 1 -1zM110 98q0 3 4 3q2 0 3.5 -0.5t3.5 -0.5q1 -1 5 -3l9 -4.5l9 -4.5t5 -3q2 -1 4 -3t3.5 -4t3 -4.5
t1.5 -4.5v-36q0 -1 -0.5 -1.5t-1.5 -0.5h-1h-1l-0.5 0.5t-0.5 1.5v20t-2 20q0 2 -2.5 3t-4.5 1l-0.5 -0.5t-0.5 -1.5q-1 -10 -1.5 -16.5t-0.5 -14.5q0 -6 1 -12t1 -12q0 -3 -1 -5t-5 -2h-2t-2 2v41q-1 0 -3.5 0.5t-3.5 0.5l-2 -0.5t-2 -1.5l-3 -22q0 -1 -1 -2l-2 -2h-1
q-2 0 -2.5 1.5t-0.5 2.5v3q1 1 1 3t0.5 4.5t0.5 4.5v3q1 0 1.5 0.5l0.5 0.5q0 1 0.5 5t1.5 5q5 2 8 2t4.5 1t2 4t1.5 11v2q0 3 -3.5 5t-8 4t-9 3t-6.5 2v2zM175 77q1 3 3 5t4 2.5t4 1.5t5 4q4 3 5.5 5t3.5 3.5t4 2t6 0.5h5t2 -3q0 -4 -3.5 -6t-7.5 -3.5t-7 -3.5t-3 -7
q0 -3 2 -4.5t5 -3t5.5 -3t4.5 -3.5q2 -9 2 -15v-15v-2v-4v-4v-3t-1 -1.5t-3 -0.5v0q-1 0 -1 1q-2 9 -3 19t0 20q-1 0 -3 2l-3 3v0h-1l-1.5 -1.5l-0.5 -0.5v-14q0 -10 1 -19t1 -18h-5.5t-4.5 2q0 1 -0.5 3t-0.5 4.5t-0.5 4.5t-0.5 3v1v0q0 1 0.5 2t1.5 2v40q0 2 -1 4.5
t-3 2.5h-1q-1 0 -3 -1.5t-3 -1.5q-1 -12 -1 -23.5v-22.5q-5 0 -6 1t-1 4v3v2q0 2 0.5 7t1 11t1 11t1.5 7zM48 75q0 2 1 3t3 1q3 0 4.5 -4t2.5 -8.5t1 -8.5v-6v-6t-0.5 -8t-2 -7t-5.5 -3q-3 0 -3.5 1t-0.5 3q0 6 2 12.5t2 13.5v11q-1 0 -2.5 2.5t-1.5 3.5zM100 64q-2 4 -4 7
t-2 8q3 0 5 -2t4 -5t3 -5.5t1 -4.5v-26q0 -7 -7 -7v3v2q0 1 0.5 2t1 2.5t0.5 2.5v1v5t-0.5 6t-0.5 6.5t-1 4.5z" />
</svg>
