<?xml version="1.0" standalone="no"?>
<!DOCTYPE svg PUBLIC "-//W3C//DTD SVG 1.1//EN" "http://www.w3.org/Graphics/SVG/1.1/DTD/svg11.dtd" >
<svg xmlns="http://www.w3.org/2000/svg" xmlns:xlink="http://www.w3.org/1999/xlink" version="1.1" viewBox="-10 0 266 256">
   <path fill="currentColor"
d="M61 135q0 31 6 59.5t18 56.5q1 0 2 0.5t2 0.5q2 0 4.5 -1.5t2.5 -5.5l-0.5 -1l-0.5 -1q-13 -26 -18.5 -52.5t-5.5 -56.5v-23q5 -14 8 -30.5t3 -31.5q0 -12 -3 -21t-13 -17h-1v0q-1 0 -2 1.5t-2 1.5v0.5v0.5q0 2 1 4.5t2 4.5t2.5 4t1.5 3q2 5 2 10.5v10.5v3v4.5v4.5v3
q-3 5 -4 11.5t-1.5 12.5t-1 12.5t-2.5 12.5v3.5v6.5v5.5v3.5zM39 154q0 17 1.5 32t5.5 32q1 3 2 6.5t2.5 7t4 6t5.5 2.5t4 -1.5t1 -3.5q0 -4 -1.5 -8l-3 -8t-3.5 -7.5t-2 -7.5q-3 -8 -4 -14.5t-1.5 -12.5t-1 -12.5t-0.5 -14.5v-5l1 -26h-1.5h-1.5q-2 0 -3.5 1.5t-2.5 3.5
t-1 4.5v4.5v3v5.5v7.5v5zM136 227h-22l-1 1l-1 1v3v3h101q3 0 4 -2.5t1 -4.5t-0.5 -3t-2.5 -1h-26v-67q0 -11 -4 -15t-15 -4h-10t-9 1.5t-7 4.5t-4 9v8v13v12v8q0 3 -0.5 8t-0.5 10t-0.5 8.5l-0.5 3.5zM148 226v-25l26 -2q2 0 3.5 1.5t1.5 3.5v2q0 2 -0.5 4.5t-0.5 5.5
t-0.5 5l-0.5 2l-3 3h-26zM85 180q0 1 0.5 3t1 4.5l1 5t1.5 2.5q0 3 1 7t2 8.5t3.5 7.5t5.5 3t4 -1.5t1 -3.5t-1.5 -5.5t-2.5 -7t-2.5 -7t-2.5 -6.5q0 -1 -1.5 -4.5t-1.5 -5.5v-4t-0.5 -6.5t-0.5 -6.5v-5q0 -8 1 -16.5t1 -16.5q0 -2 -0.5 -3t-2.5 -1t-3.5 1.5t-2 4t-1 4.5
t-0.5 3v23v23zM146 181q0 -3 1.5 -5.5t4.5 -3.5q5 -1 9 -1.5t10 -0.5t7 3t1 9q0 5 -3 7t-7 3t-8.5 0.5t-8.5 -0.5t-5 -3.5t-1 -7.5zM116 173q0 2 1 2h2q2 0 3 -0.5t2 -2.5v-4v-6t0.5 -6t0.5 -4q0 -11 -1 -21.5t-1 -20.5v-6.5t1.5 -4t4 -2.5t6.5 -3v0v0q4 0 5.5 2t2.5 5.5
t2 6.5t3 5q5 1 8.5 2t6.5 1.5l6 1t7 0.5h3q2 0 3.5 -0.5t2.5 -1.5t1 -3q0 -3 -5.5 -3.5t-12.5 -1t-12.5 -2t-5.5 -8.5v-1l0.5 -1.5t1.5 -1.5l35 -4q1 0 1.5 -0.5l0.5 -0.5v-1v-1l-1.5 -1l-1.5 -1h-33q-1 0 -3 -1.5t-2 -3.5v-1t0.5 -2.5t1.5 -2.5l2 -2h5h6h18t11.5 2.5t6.5 9
t2 18.5v13v19v20v13l2 8l0.5 0.5t1.5 0.5q4 0 5.5 -4t2.5 -7v-2.5v-3.5v-5v-2q0 -19 -1 -37t-4 -36q0 -2 -1 -4t-2.5 -3.5t-3.5 -3t-3 -1.5l-50 -5l-2 -4l0.5 -2.5t0.5 -5.5t0.5 -6.5t0.5 -5.5q1 -6 4.5 -7t8.5 -1h6q3 1 3.5 3t0.5 4t1 4.5t3.5 4t9 3t17.5 1.5q2 0 5 -1
t3 -4v0l-2 -2t-2 -1h-26q-1 0 -1.5 -1t-1 -2.5t-0.5 -3v-2.5q0 -3 2.5 -4.5t6 -2t7.5 -0.5t7.5 -0.5t5.5 -1t2 -3.5t-3 -3h-3h-4h-4h-3q-11 0 -21.5 0.5t-21.5 4.5q-1 0 -3.5 1.5t-3.5 3.5l-3 30q0 2 -1.5 2h-2.5q-2 0 -3.5 -2t-2.5 -4t-1.5 -5t-0.5 -4q0 -2 -0.5 -6
t-0.5 -8.5t-0.5 -8.5t-0.5 -6q0 -1 -2 -2t-3 -1q-3 0 -4 2t-1 4q0 4 0.5 9.5t1.5 11t2 10.5t1 8q1 4 4.5 6t7 3.5t6.5 2.5t3 2v12q0 2 -2 2.5l-4 1t-4 0l-2 -0.5q-7 1 -10 5.5t-4.5 10.5t-1.5 12v11q0 11 1 24t3 23zM148 159q0 -9 4.5 -12t11.5 -3q1 0 4 0.5t4 0.5l4.5 4.5
t2.5 5.5t-2.5 5t-6.5 2.5t-8 0.5h-7q-2 0 -4.5 -0.5t-2.5 -3.5zM90 90q-4 4 -5 7t-1 8q7 0 11.5 -5.5t7 -13t3.5 -15.5t1 -12q0 -3 -0.5 -7.5t-1.5 -9t-3.5 -8t-6.5 -3.5q-3 0 -3 4q0 6 2.5 12.5t2.5 14.5v8q0 2 -1 4.5t-2 6t-2 6t-2 3.5zM37 96q0 2 1.5 3.5t3.5 1.5
q5 0 8 -5t4.5 -11.5t2.5 -13t1 -8.5q0 -3 -0.5 -7.5t-1.5 -8.5t-3.5 -7.5t-7.5 -3.5t-5 4q0 6 3 12t3 13q0 5 -1 11.5t-3 10.5q-1 3 -3 4t-2 5z" />
</svg>
