<?xml version="1.0" standalone="no"?>
<!DOCTYPE svg PUBLIC "-//W3C//DTD SVG 1.1//EN" "http://www.w3.org/Graphics/SVG/1.1/DTD/svg11.dtd" >
<svg xmlns="http://www.w3.org/2000/svg" xmlns:xlink="http://www.w3.org/1999/xlink" version="1.1" viewBox="-10 0 266 256">
   <path fill="currentColor"
d="M135 248q0 2 2 2h3q3 0 4.5 -1t2.5 -4q-1 -31 0.5 -61.5t1.5 -61.5q0 -3 -0.5 -8t-0.5 -10v-10v-4l-1 -15l-4 -4h-16q-1 0 -1.5 -1t-1 -2.5t-0.5 -3v-2.5q0 -9 2 -14t5.5 -7.5t7 -3.5t7 -1t5.5 -1t2 -4q0 -2 -2.5 -2.5t-4.5 -0.5q-6 0 -10 1t-10 3q-5 4 -7.5 9.5t-3 11.5
t0 12t0.5 12q-1 14 -2 27.5t-1 27.5v16v5.5t0.5 6.5t0.5 5v3l5 5h19l2 2v4v5q0 16 -2.5 32t-2.5 32zM68 198q0 2 0.5 6t1.5 8.5t1.5 9t0.5 6t0.5 4.5l1 6t2 5t4.5 2t4 -0.5t1 -4.5q0 -6 -2.5 -12.5t-3.5 -13.5q-4 -16 -5.5 -31t-1.5 -32v-28q4 -7 6.5 -17t4.5 -20.5t3 -21
t1 -18.5q0 -4 -0.5 -9.5t-2.5 -11t-5.5 -9.5t-8.5 -4q-2 0 -4 0.5t-2 2.5v1.5v0.5q1 0 1.5 1.5t1.5 2.5t2 2.5t2 1.5q3 6 4.5 14.5t1.5 15.5q0 11 -2 22.5t-5 22.5t-5.5 22t-2.5 22v12.5v15.5t1.5 15t4.5 11zM156 182v2l0.5 2.5t0.5 5t0.5 5t0.5 3.5q0 9 1 15.5t3.5 10t8 5
t15.5 1.5q9 0 14.5 -1t8.5 -4.5t4.5 -10t1.5 -15.5v-5q0 -1 -0.5 -4t-0.5 -6t-0.5 -6t-0.5 -5q-1 -1 -3 -2t-3 -1t-2 0.5t-1 1.5q-1 0 -1 2.5t-0.5 5t-0.5 4.5v3q-1 0 -1.5 1t-0.5 2h-2h-3q-5 0 -6.5 -2t-1.5 -7q0 -6 1.5 -14t5.5 -13q1 -2 4.5 -4.5t6.5 -6t5.5 -6.5t2.5 -6
q0 -7 -3 -12t-6.5 -9.5t-6.5 -10t-3 -12.5h17q1 0 2 -1.5t2 -2.5v-0.5v-0.5v-0.5v-0.5q-1 0 -2 -1.5t-2 -1.5v0q-4 0 -7 1t-6 1h-2.5t-3.5 -2v-6v-8.5t0.5 -7t0.5 -8t1 -9.5q1 -1 3.5 -2t5 -1.5t4.5 -1.5t1 -3q-1 -3 -2.5 -3h-3.5h-2h-2t-5.5 1.5t-9 2.5t-8.5 2t-6 2
q-4 1 -5.5 5t-2.5 8v24v13v9q0 5 0.5 10t1.5 12q0 1 0.5 3t1 4.5t1.5 4t2 2.5q2 2 6.5 2h7.5h7l0.5 -0.5t0.5 -1.5v0v-1q-1 -2 -3.5 -3t-5.5 -1.5t-5.5 -0.5h-2.5q-3 -2 -4 -5.5t-1.5 -7.5t-0.5 -8.5v-7.5q0 -1 0.5 -3l0.5 -2q0 -1 0.5 -2l0.5 -1h13q2 0 3 2t1.5 5t1 5.5
t1.5 3.5q1 3 3.5 5.5t4.5 5t3.5 5.5t1.5 7q0 5 -3 9.5t-6.5 8.5l-7 8t-4.5 9q-1 1 -1 4.5t-1 7t-1 7t-1 4.5q0 3 -2 4.5t-5 1.5t-4 -2.5t-1 -5.5t-0.5 -5.5t-3.5 -2.5t-4 1.5t-1 3.5zM43 148v19t0.5 18.5t1.5 19t5 18.5q0 2 0.5 2.5t2.5 0.5q3 0 4 -2.5t1 -4.5v-2.5v-2.5
l-1 -3.5t-1.5 -7t-1.5 -6.5t-1 -4q-2 -9 -2 -16.5v-17.5t2 -21t2 -22q0 -2 -2 -3t-3 -1q-2 0 -3 1t-2 2.5t-1 3.5t-1 3v26zM188 198h5.5t5 0.5t4 2t1.5 4.5q0 7 -1.5 10t-4 5t-6.5 2.5t-10 0.5h-2t-5 -0.5t-5 -1t-2 -2.5v-18q0 -1 2.5 -2t6.5 -1h7h4zM87 155q0 15 1 29.5
t7 28.5h1h1q3 0 5 -2t1 -5l-1.5 -3l-1.5 -3q-1 -2 -2 -5l-1 -3q-2 -9 -2 -19v-18q0 -11 1 -22t1 -23q-4 0 -6 3t-3 7.5t-1 8.5v6v20zM121 127v-3.5t3 -1.5h16q1 0 1.5 1t0.5 2v2v1v3v2q0 4 -0.5 9t-0.5 10t-0.5 8.5l-0.5 3.5l-2 2h-14l-2 -2v-4v-9.5t-0.5 -12t-0.5 -9.5v-1
v-1zM121 111v-2.5t0.5 -3t0.5 -3v-1.5q0 -1 0.5 -3t0.5 -5t-0.5 -5t-0.5 -3q3 -4 6.5 -5.5t6.5 -1.5q2 0 3.5 0.5t1.5 3.5v32h-18l-0.5 -1.5zM97 59q0 9 -1 18t-1 18q2 0 4 -2.5l2 -2.5q1 -2 2 -7t2 -10.5t2 -10t1 -6.5v-1v-2t-0.5 -5.5t-1.5 -9t-3 -7.5t-6 -3
q-1 0 -2.5 0.5t-1.5 1.5q0 8 2 15t2 14zM48 91q1 2 2 2h2q3 0 4.5 -2t2.5 -5t1.5 -6t2.5 -5v-5.5v-5.5v-8.5t-1 -6.5t-2 -6.5t-4 -7.5q-1 -2 -2.5 -3t-3.5 -1t-3.5 2t-1.5 5t1 6.5t2.5 6.5t3 6.5t1.5 7.5q0 5 -1.5 12.5t-3.5 13.5zM169 78v-4v-4v-9t0.5 -9.5t3 -7.5t8.5 -3
h2t1 2v34q0 2 -3.5 3.5t-4.5 1.5q-4 0 -7 -4z" />
</svg>
