<?xml version="1.0" standalone="no"?>
<!DOCTYPE svg PUBLIC "-//W3C//DTD SVG 1.1//EN" "http://www.w3.org/Graphics/SVG/1.1/DTD/svg11.dtd" >
<svg xmlns="http://www.w3.org/2000/svg" xmlns:xlink="http://www.w3.org/1999/xlink" version="1.1" viewBox="-10 0 266 256">
   <path fill="currentColor"
d="M108 246q0 1 2 2.5t3 1.5q4 0 8 -4t8 -10t8.5 -13.5t8.5 -13.5t7 -10t6 -4h2.5t2.5 2q0 1 1.5 3.5t3 5.5l3 6l1.5 3q2 3 4 8.5t5 11t6 10t7 4.5q3 0 4 -1t1 -4q0 -8 -4.5 -15.5t-10.5 -14.5t-11.5 -14.5t-6.5 -15.5v-13v-9v-8t0.5 -8t0.5 -10q2 -5 5.5 -5.5t8.5 -1.5h5
t8.5 -0.5t8.5 -0.5h6q2 -1 2 -4q0 -1 -1 -2t-2.5 -1h-2.5h-3q-24 0 -48 1t-48 1q-2 0 -2 1v2v2t2 1h46l4 4v4v6q0 19 -4 34t-15 30l-2.5 4t-6.5 8.5t-7.5 9.5t-6.5 8l-0.5 0.5t-1.5 0.5q0 2 -2 4t-2 3q-1 0 -1 1zM75 240q1 3 3 3.5t4 0.5t4.5 -0.5t2.5 -2.5q0 -5 -3.5 -10.5
t-5.5 -10.5q-2 -6 -3 -11.5t-2 -11.5q0 -1 -0.5 -3.5t-1.5 -2.5v-5v-7v-7v-5q0 -11 0.5 -23t5.5 -23q0 -2 1 -8.5t2 -13.5t2 -13.5t1 -8.5v-10v-7.5t-1 -11.5t-2.5 -12.5t-3.5 -11.5t-5.5 -8.5t-7.5 -3.5q-2 0 -3.5 0.5t-1.5 2.5q0 4 2 6t3 4q6 12 9 22.5t3 24.5q0 7 -2 13
t-3 13q-1 6 -1 12q0 7 -1 13q-1 11 -4 22t-3 22q0 18 3 37t9 36zM42 175v5v6v6v2q0 3 0.5 9t2 11.5t4 10t6.5 4.5t5 -1t1 -5l-0.5 -1.5l-0.5 -1.5q0 -1 -1 -4.5t-2 -7.5l-2 -8t-1 -5l-0.5 -3t-0.5 -6.5t-0.5 -7t-0.5 -6.5v-5q0 -12 2 -23t5 -23v-1v-1q0 -3 -1.5 -5.5
t-4.5 -2.5t-5 6t-3.5 13.5t-2 15t-0.5 10.5v3v5v6v5zM85 148q0 18 2 35.5t5 35.5q0 1 0.5 2.5l1 3t2 2.5t3.5 1q1 0 2 -2.5t1 -3.5v-2q0 -1 -1 -4.5t-2.5 -7.5t-2.5 -8t-1 -5q-2 -8 -2.5 -17.5t-0.5 -18.5q0 -10 1.5 -20t1.5 -20v-2.5t-2 -1.5q-3 0 -4.5 4.5t-2 10.5
t-1 11.5t-0.5 6.5zM187 151v6.5t1 9.5t2 10.5t3 10.5t5 8t7 3q2 0 3.5 -2t1.5 -3t-1 -3t-2.5 -3.5l-3 -3t-1.5 -2.5q-2 -2 -3 -5.5t-2 -5.5l-4 -28l-3 -4l-3 4v8zM125 141q0 5 0.5 10t0 10t-1.5 10t-4 10q-3 4 -5 7t-2 9q7 0 11.5 -4.5t6.5 -11.5t2.5 -14t0.5 -12v-3
q0 -1 -0.5 -3t-0.5 -4v-2q1 -3 0 -3.5t-3 -0.5q-3 0 -5 2zM142 75q0 1 0.5 4.5l1 7l1 7t0.5 4.5q1 3 2.5 4.5t4 2t4.5 0.5h5h5t6 -1t5 -3t3 -5q0 -1 1 -3.5t1.5 -5.5t1.5 -6t1 -4h4q4 0 7.5 0.5t3.5 5.5q0 6 -4 8t-9 2v3q0 2 1 3t3 1q9 0 13 -3.5t5.5 -9t1 -12.5t-0.5 -13
v-5.5t0.5 -10t0.5 -10v-5.5v-6q0 -3 -1 -4.5t-5 -1.5h-3q-2 0 -2 1v22q0 1 -1.5 2t-3.5 1h-5h-3q-2 0 -3 -1.5t-2 -4l-2 -5t-3 -3.5q-1 -1 -2.5 -1.5t-3.5 -1.5t-3.5 -1.5t-1.5 -1.5v-13q0 -1 -2 -1.5l-2 -0.5q-4 0 -5 2.5t-1.5 5.5t-0.5 6t-2 5q-1 2 -3 2.5t-3 3.5
q0 1 -0.5 2.5l-1 3l-1 3l-0.5 1.5h-19l-3 -3v-20q0 -2 -1 -2.5t-2 -0.5q-3 0 -4 2l-2 4v17v16q0 3 0.5 7.5t1 10t0.5 10.5v7q1 4 4 5.5t7 1.5h2.5t3 -0.5t2.5 -1.5t1 -2q0 -3 -2 -4t-4.5 -2t-4.5 -2.5t-2 -6.5v-2.5v-1.5q3 -2 7.5 -3t8.5 -1h2t2 2zM155 94q0 -2 2 -6t5 -5
q2 0 3 1t2 3t1 3.5v2.5q0 3 -2.5 4t-4.5 1q-3 0 -4.5 -0.5t-1.5 -3.5zM47 89q0 2 1 4t3 2q4 0 6 -3.5t3 -8.5t1.5 -9.5t0.5 -6.5q0 -3 -0.5 -8.5t-1.5 -11t-3.5 -9.5t-6.5 -4q-2 0 -3.5 0.5t-1.5 2.5q0 4 1 7t2 6.5t1.5 7t0.5 6.5q0 7 -1.5 13t-1.5 12zM95 68q0 7 -1 13
t-1 13q3 0 5 -2t3 -4t1.5 -5t1.5 -5q0 -1 -0.5 -5.5l-1 -9t-0.5 -9v-6.5q0 -1 -0.5 -4.5t-1 -6.5t-2 -5.5t-4.5 -2.5q-4 0 -4 3q0 8 2.5 17.5t2.5 18.5zM148 57l1 -0.5l1 -0.5q4 0 6 4t2 8t-3 7.5t-7 3.5v-22zM167 66q0 -4 1 -7t4 -9h1v0q4 0 4.5 3t0.5 5v3.5t-0.5 5t-0.5 5
v3.5q-1 2 -1.5 2.5t-2.5 0.5t-3 -1t-2 -3t-1 -4v-4zM183 64l0.5 -0.5l0.5 -0.5v-2v-3.5t0.5 -3.5l0.5 -2h3q12 0 12 11v4t-3 3h-12l-0.5 -2t-0.5 -3h-0.5t-0.5 -1zM122 53h22l-2 12q0 1 -2 1.5t-4.5 1t-4.5 0.5h-3h-1q-1 0 -3 -1.5l-2 -1.5v-12zM155 42q0 -4 2 -5.5t6 -1.5
q3 0 3.5 1.5t0.5 4.5q0 4 -1 7t-4 5q-1 0 -2.5 -1.5t-2.5 -3.5t-1.5 -3.5t-0.5 -2.5z" />
</svg>
