<?xml version="1.0" standalone="no"?>
<!DOCTYPE svg PUBLIC "-//W3C//DTD SVG 1.1//EN" "http://www.w3.org/Graphics/SVG/1.1/DTD/svg11.dtd" >
<svg xmlns="http://www.w3.org/2000/svg" xmlns:xlink="http://www.w3.org/1999/xlink" version="1.1" viewBox="-10 0 266 256">
   <path fill="currentColor"
d="M161 162q2 0 4 4t3.5 9.5l3 11t2.5 7.5q2 6 7 15t11 18t12 15.5t12 6.5q0 -3 -1.5 -6t-3.5 -5.5t-4 -4.5t-3 -5q-3 -4 -6 -10.5t-6 -12.5l-5.5 -11l-2.5 -5q-3 -7 -5 -13t-3.5 -11.5t-3 -10.5t-3.5 -11q0 -3 -0.5 -10t-0.5 -15t-0.5 -15t-0.5 -10v-2v-2q0 -16 1.5 -32.5
t1.5 -33.5q0 -1 0.5 -3t0 -4t-1.5 -3.5t-3 -1.5t-3.5 6t-2.5 15t-1.5 20t-1 21t-0.5 18v11v4v3l1 3t1 4q0 11 -4 22t-6 22q-3 10 -5.5 19.5t-5.5 18.5t-8 17t-11 16l-2.5 2.5t-3 3.5l-3 4l-1.5 2v2q0 1 1 1.5t2 0.5q6 0 11.5 -5.5t10 -13t8.5 -16t5 -13.5q1 -2 2.5 -6.5
t3 -10t3 -10t1.5 -7.5l1.5 -1.5t2.5 -1.5v0zM76 233l3 4q1 -1 2 -3t1 -3v-126h23q2 0 2 -2v-3v-1v-1h-3.5t-5.5 -0.5t-5.5 -0.5t-3.5 -1q-2 0 -4.5 -2.5t-2.5 -4.5v-24q0 -4 3.5 -6.5t7.5 -3.5t8 -1h6l2 -2l2 -2v-1v-1q-1 0 -1.5 -0.5l-0.5 -0.5h-23q-3 0 -3.5 -2t-0.5 -5
v-6.5v-6.5t-1 -5t-4 -2q-1 0 -2 0.5t-1 3.5q-1 1 -1 4t-0.5 6.5t-0.5 6.5v4q-2 1 -8 1.5l-12 1t-10.5 1.5t-4.5 4v1l1.5 1.5l1.5 1.5q1 0 3.5 0.5t3.5 0.5q5 0 9 -1t10 -1h4q3 3 3.5 7t0.5 9q0 1 -0.5 5.5t-0.5 9t-1.5 8t-2.5 3.5h-22q-1 0 -4 2.5t-3 4.5v0l1.5 1.5l0.5 0.5
h25l3 3q1 1 1 2.5t0.5 4t0.5 4.5v4q1 24 1.5 47.5t2.5 48.5v12zM189 127q2 3 5 8.5t6 11.5t6.5 10.5t6.5 4.5q1 0 2.5 -0.5t1.5 -2.5v-1l-0.5 -1.5t-1 -2t-1.5 -2t-2 -3.5l-2 -4l-1 -2l-2.5 -5l-3 -6l-2.5 -5l-1 -2v-45q0 -6 3 -11t3 -11v-1q-1 0 -1.5 -0.5l-0.5 -0.5h-1
q-3 0 -5.5 6t-4 13.5t-3 14t-1.5 8.5v29zM129 61v44q0 3 -1 8t-2.5 10t-3 9.5t-3.5 6.5l-4 4l-3.5 3.5t-2.5 3.5t-1 5q5 0 9 -4q8 -7 12 -14t6.5 -15t3 -16.5t0.5 -19.5q0 -3 -0.5 -7.5t-1 -8.5t-2.5 -6.5t-6 -2.5z" />
</svg>
