<?xml version="1.0" standalone="no"?>
<!DOCTYPE svg PUBLIC "-//W3C//DTD SVG 1.1//EN" "http://www.w3.org/Graphics/SVG/1.1/DTD/svg11.dtd" >
<svg xmlns="http://www.w3.org/2000/svg" xmlns:xlink="http://www.w3.org/1999/xlink" version="1.1" viewBox="-10 0 266 256">
   <path fill="currentColor"
d="M41 243v8q2 0 4.5 -1t3.5 -4q1 -1 3.5 -6l5 -10t5 -9.5t3.5 -6.5t2.5 -6t3.5 -10t4.5 -12t4.5 -11t3.5 -8.5l1.5 -3.5h1l0.5 0.5t0.5 1.5q2 12 5 24.5t5 24.5q1 2 2 8t2.5 11.5t4 10t6.5 4.5q2 0 3 -1t1 -3q0 -5 -2 -10.5t-4 -10.5t-4.5 -10.5t-3.5 -10.5
q-4 -22 -6 -43.5t-2 -44.5v-4v-7v-7v-4q1 -3 1.5 -5t0.5 -4v-4v-6q0 -1 0.5 -7t1 -13t1 -13t0.5 -7v-9v-8q-1 -2 -2 -3t-3 -1q-4 0 -5 6v5v9v8.5v5.5t-0.5 3t-0.5 4.5t-0.5 5t-0.5 3.5v22t-0.5 22.5t-1.5 22.5t-3 22q-2 2 -4 6t-3.5 9t-2.5 9.5t-2 6.5q-2 5 -5 8.5t-5 8.5
q-5 10 -9.5 21.5t-10.5 22.5zM144 209q2 3 3 9.5t2.5 13t3.5 11.5t6 5q3 0 3.5 -1t0.5 -4q0 -5 -2 -10t-3 -10q-2 -10 -4 -19t-2 -19v-2q0 -2 0.5 -4.5t0.5 -4.5v-2q1 -3 2.5 -5.5t4 -5t5 -4t5.5 -1.5q2 0 4.5 6t6 14.5t7 19.5t7 20.5t7 16.5t7.5 10v0v0q3 0 4.5 -1.5
t2.5 -3.5q-5 -8 -10 -18.5t-10 -21.5t-8 -22t-3 -21q0 -3 2.5 -4.5t5.5 -2.5t5 -3t2 -6q0 -2 -0.5 -3.5t-1.5 -2.5l-2 -2t-1 -3q0 -3 2 -5t5 -3t6 -3.5t4 -7.5q1 -4 1.5 -9.5t0.5 -11.5v-11v-10v-22q-2 -3 -4 -4t-4.5 -2t-5 -1.5t-5.5 -1.5q-4 -2 -4.5 -4.5t-1 -5.5t-1.5 -5
t-6 -2h-3.5t-2.5 3v1l0.5 1.5l1 3t0.5 3v2.5v2q0 3 -2 4t-5.5 0.5t-6.5 -0.5t-5 1l-1.5 2t-1.5 3q-3 3 -4.5 6.5t-2.5 7t-1 7.5v9q0 3 -0.5 10.5t0 15t3 13.5t7.5 7l25 3q2 1 2.5 2t1 3t0.5 4v2q0 5 -3.5 7.5t-8.5 4.5t-10.5 4t-10.5 5.5t-8.5 9.5t-3.5 16q0 7 0.5 13
t1.5 14zM57 139q0 1 0.5 2.5t2.5 1.5q3 0 4.5 -1.5t2.5 -3t1.5 -4t1.5 -5.5v-4t0.5 -6t0.5 -6v-4v-3v-8v-8v-6v-6v-7v-8v-5t-1.5 -1.5t-2.5 -0.5q-3 0 -4 6t-1.5 13t-0.5 14v10q0 2 -0.5 6.5t-0.5 9.5t-0.5 9.5t-0.5 6.5q-1 2 -1.5 4t-0.5 4zM110 140q0 2 2 2.5t3 0.5
q2 0 3.5 -0.5t1.5 -2.5v-84q0 -1 -1 -1h-2h-2t-2 1q-1 20 -2 42t-1 42zM158 96v-6q3 -3 7 -4.5t9 -2t9.5 0t9.5 0.5h11q1 1 1 2.5v3.5v2q0 2 -1 4.5t-1.5 5.5t-1.5 5l-1 2l-6 5h-26q-4 0 -6 -2t-3 -4.5t-1 -5.5v-6zM156 71q0 -2 0.5 -6t1.5 -8t3.5 -6.5t6.5 -2.5h27
q5 0 7.5 4.5t2.5 9.5q0 6 -2 9t-6 4t-9 0.5t-10 -0.5l-2 0.5t-4 0.5t-3.5 0.5t-2.5 0.5h-1h-2q-2 0 -4.5 -1.5t-2.5 -4.5z" />
</svg>
