<?xml version="1.0" standalone="no"?>
<!DOCTYPE svg PUBLIC "-//W3C//DTD SVG 1.1//EN" "http://www.w3.org/Graphics/SVG/1.1/DTD/svg11.dtd" >
<svg xmlns="http://www.w3.org/2000/svg" xmlns:xlink="http://www.w3.org/1999/xlink" version="1.1" viewBox="-10 0 266 256">
   <path fill="currentColor"
d="M37 242q0 3 1 3.5t4 0.5q2 0 5 -4.5t6 -12t6 -16.5t5.5 -18t5 -16t3.5 -11h1h1q0 1 0.5 1.5l0.5 0.5q1 1 1 4t1 6t1 6t1 4q0 1 1 6t3 11.5l4 13t3.5 12.5t3.5 9.5t3 3.5q3 0 4 -2t1 -4v-3l-1.5 -3t-1.5 -4t-1.5 -5.5t-3 -10t-2.5 -10t-1 -6.5q-1 -3 -2 -4.5t-1.5 -3
t-1 -3.5t-0.5 -4q-2 -8 -2 -15q0 -8 -2 -15v-84q2 -11 3 -24t1 -25q0 -2 -2.5 -3.5t-4.5 -1.5t-3.5 1.5t-2.5 4t-1 5v4.5q0 12 1 24.5t1 25.5v23q0 11 -1 22.5t-3 23t-6 21.5q-3 5 -7 15t-9 20.5t-8.5 20.5t-3.5 16zM110 192q0 2 1.5 3t4 1.5t4.5 0.5h4h20h23q3 0 10 -0.5
t15 -0.5t15 -0.5t9 -0.5q2 -1 2 -2v-2t-1.5 -2t-3.5 -1.5t-3.5 0t-2.5 0.5h-9h-10.5t-15.5 0.5t-18.5 0.5h-18t-15.5 0.5t-10 0.5v1v1zM124 149q2 21 25 21h57l1.5 -0.5t1.5 -1.5q1 0 1.5 -0.5l0.5 -0.5q0 -1 -0.5 -2.5t-1.5 -1.5h-50q-13 0 -19 -3.5t-7.5 -10t-1 -15.5
t-1.5 -20v-1v-2q0 -15 2.5 -23t7.5 -11t14 -2.5t23 0.5h4h6.5h7.5h4q2 1 2.5 4.5t0.5 4.5v47q0 5 -2.5 7t-6.5 2.5t-8 0t-6 -0.5h-3h-4h-4h-2q-3 0 -4 -2.5t-1 -4.5v-30q0 -1 1 -2t2.5 -1.5t3.5 -0.5h2q4 0 6 2.5t2.5 6t0.5 7.5v7t1 5.5t3 2.5q1 0 1 -0.5v-0.5q1 0 1.5 -0.5
l0.5 -0.5q1 -7 1.5 -11.5t0.5 -10.5v-8q-1 -2 -2.5 -2.5t-2.5 -1.5h-3h-2.5h-3.5h-2h-3.5h-5.5t-5.5 1t-3.5 3q-1 3 -1 5.5t-0.5 4.5t-0.5 4v4q0 6 0.5 12t1.5 12q0 3 4 5t8 2.5t8.5 0.5h6.5q10 0 16.5 -1t9.5 -4.5t3.5 -10.5t0.5 -19v-4v-5.5v-4.5v-3v-11.5t-1 -9.5
t-4.5 -6.5t-9.5 -2.5h-3h-6h-7.5h-5.5h-4h-7h-7h-4q-7 2 -12 2t-8.5 2t-5.5 5.5t-2 13.5l-0.5 4t-0.5 8v10v8v6v9t0.5 9t0.5 6zM48 140q0 1 1 2l2 2h1q2 0 3.5 -3t2.5 -4q1 -17 2 -34.5t1 -33.5q0 -3 -1.5 -4.5t-3.5 -2t-5 -0.5h-4q0 6 1.5 12.5t1.5 12.5q0 9 -1 18t-1 18
v17zM95 140l3 4q2 -1 3 -3.5t1 -3.5v-55q1 -3 1 -4.5v-3.5q0 -3 -1 -5.5t-4 -4.5l-3 4v72zM118 40q2 3 4 5h10q20 0 40.5 -1t40.5 -2q0 -1 0.5 -1.5l0.5 -0.5q1 0 1 -2h-1q0 -1 -1.5 -2t-1.5 -2h-16h-16q-1 0 -6 0.5t-10 0.5t-10 0.5t-6 0.5q-3 0 -7 -0.5t-8 -0.5t-7.5 1
t-6.5 4z" />
</svg>
