<?xml version="1.0" standalone="no"?>
<!DOCTYPE svg PUBLIC "-//W3C//DTD SVG 1.1//EN" "http://www.w3.org/Graphics/SVG/1.1/DTD/svg11.dtd" >
<svg xmlns="http://www.w3.org/2000/svg" xmlns:xlink="http://www.w3.org/1999/xlink" version="1.1" viewBox="-10 0 266 256">
   <path fill="currentColor"
d="M110 248q1 2 2.5 2.5t2.5 0.5q7 0 13.5 -4.5t11.5 -11.5t9.5 -14t6.5 -12q4 -10 8.5 -20t8 -20.5t6 -21t2.5 -22.5v-1q-2 -3 -3 -7t-3 -7.5l-4 -7t-4 -5.5q0 -1 -1.5 -1.5t-3 -2t-3 -2.5t-2.5 -1q-1 -1 -2 -3l-2 -4t-2 -3.5t0 -2.5l1 -1q2 -1 5 -1.5t7 -1t7.5 -1.5
t4.5 -1q3 -1 6 -3.5t5 -5.5t4 -6.5t4 -5.5q0 -2 1 -4l2 -4t2 -3.5l1 -1.5q0 -1 0.5 -4t0.5 -4t-0.5 -3.5l-0.5 -2.5l-3 -4h-3t-7 -0.5t-8.5 -0.5h-6.5h-7h-3t-4.5 0.5t-4 1t-2.5 1.5l-3 16q0 2 -3.5 2.5t-4.5 0.5q-4 0 -8 0.5t-8 -0.5t-7.5 -3t-3.5 -6q-1 -2 -0.5 -3.5
t0.5 -2.5t-0.5 -2t-1.5 -2t-2.5 -3t-2.5 -2l-25 -2q-6 0 -10 4.5t-4 8.5q0 6 2 13t6 14.5t8.5 13t10.5 6.5q2 0 5.5 1t8 1.5t8.5 1t5 1.5v1q0 2 -5 4.5t-12.5 6t-16 7t-16 7t-12.5 6.5t-5 5v1q0 1 1 2t1 2h5q5 0 9.5 -2t8.5 -4.5t8.5 -5t8.5 -4.5q0 -1 1.5 -1t3.5 -1
t3.5 -1.5l1.5 -0.5q3 -1 6.5 -3.5l7 -5t7.5 -4t8 -1.5t5.5 1.5t1.5 5.5q0 3 -3 5.5t-7 4.5t-8 3.5t-6 3.5q-5 3 -9 6.5t-8 7.5t-8 7.5t-9 5.5q0 1 -2.5 2l-5 2t-4.5 2.5t-3 1.5l-3 3t-2 4v1q1 2 3.5 3.5t4.5 1.5t6.5 -2.5t9 -6t10 -8t9.5 -8t7 -6t4 -1.5q1 -1 2.5 -2t3 -2.5
t3.5 -3t3 -2.5q2 -1 4.5 -4t5.5 -5.5t6 -4.5t5 -2q3 0 5 2.5t4 5.5t2.5 6t0.5 5q0 3 -2.5 6t-6.5 5.5l-8 5t-6 3.5q-1 0 -3.5 1.5t-5.5 2.5t-5.5 2.5l-2.5 1.5q-1 0 -3 2t-5.5 4t-7 4.5t-4.5 3.5q-3 2 -9.5 6t-13.5 9t-12.5 9t-5.5 5q0 2 2 2.5l4 1t3 0.5h2q5 0 11.5 -4
t13.5 -9t13.5 -10.5t11.5 -9.5l3 -1.5t6 -4t6.5 -4t4.5 -2.5q0 -1 1.5 -1.5l1.5 -0.5q6 -4 10.5 -8.5t9.5 -7.5v4q0 3 -0.5 6.5t-1.5 6.5t-2.5 6.5t-3.5 5.5q-1 1 -5 4t-9.5 7t-11.5 8t-12 7.5t-10 6t-6 2.5q-1 1 -5.5 4l-9 6t-9 5.5t-6.5 3.5q-2 2 -2.5 3t-0.5 3v2t1 2h4h3
q6 0 16 -6t21 -14t21 -16t16 -12q1 0 1.5 1t0.5 2v2q-1 1 -1.5 4t-0.5 4l-15 27q-2 1 -6.5 5t-9.5 9.5t-9 10t-4 6.5zM78 31q0 -3 1.5 -5t4 -2.5t5.5 -1t5 -0.5q1 0 3.5 0.5l2.5 0.5q1 1 2 3.5t1.5 5t1 4.5t0.5 3q2 3 6.5 4.5t9.5 2t10.5 0t8.5 -0.5h2.5h2.5h3.5h2.5
q4 -1 5 -4.5t2 -6.5t2.5 -5.5t5.5 -2.5h3h3.5t5 0.5t5 0.5h3.5q2 1 2.5 3.5t0.5 3.5v1q-1 7 -5.5 13t-7.5 11q-2 3 -7 5t-11.5 3t-12.5 1.5t-9 0.5h-5.5h-3.5l-1.5 -0.5t-3.5 -1t-3 -1t-2 -0.5q-3 -1 -6.5 -1t-6.5 -0.5t-5.5 -1.5t-5 -3.5t-5 -6l-5 -7t-4 -7.5t-1.5 -8z" />
</svg>
