<?xml version="1.0" standalone="no"?>
<!DOCTYPE svg PUBLIC "-//W3C//DTD SVG 1.1//EN" "http://www.w3.org/Graphics/SVG/1.1/DTD/svg11.dtd" >
<svg xmlns="http://www.w3.org/2000/svg" xmlns:xlink="http://www.w3.org/1999/xlink" version="1.1" viewBox="-10 0 266 256">
   <path fill="currentColor"
d="M69 131q0 10 -0.5 20.5t-1.5 22t-3.5 22t-6.5 19.5q-1 4 -4.5 9t-6.5 10t-5.5 10t-2.5 10q4 0 7.5 -3.5t6.5 -9t5.5 -12l5 -13t5 -11t4.5 -6.5q0 -1 0.5 -4t1.5 -6t1.5 -6t0.5 -4v-4v-3v-2.5t1 -3.5v-8.5v-12.5v-13v-9q0 -1 0.5 -3.5t0.5 -6t0.5 -6.5l0.5 -3
q0 -1 -0.5 -3t-0.5 -4.5t-0.5 -5l-0.5 -2.5q0 -16 1.5 -24.5t5 -13t8.5 -5.5t12 -1q8 0 17.5 -0.5t21.5 -3.5l1 -0.5t2 -0.5l2 0.5t3 0.5q5 2 9.5 2.5l9 1t9.5 1t12 0.5q4 4 6.5 8.5t3.5 10.5t1 11.5v10.5q0 11 -1 22t-1 22q0 3 0.5 13t2 23.5t3 28t3.5 27t4.5 20.5t4.5 8
t2.5 -1.5t0.5 -3.5v-3l-0.5 -2t-1 -3.5t-1.5 -3.5l-1 -2q-2 -11 -1.5 -22.5t-1.5 -22.5q0 -1 -1 -4t-1.5 -6.5t-1.5 -6.5t-1 -4v-2v-5v-5v-5q0 -21 1 -42t1 -43v-18q-4 -5 -11.5 -8t-16 -4.5t-17 -1.5h-13.5q-4 -1 -5.5 -3t-2 -4.5t-0.5 -5.5t1 -6q-1 -1 -3 -1h-3
q-3 0 -4.5 2t-2 5l-1 6t-0.5 5l-5 2l-36 3q-7 0 -11 3t-7 7t-4.5 9.5t-1.5 10.5v1q0 1 0.5 6t0.5 11t0.5 11t0.5 6v1v1l-0.5 1.5t-0.5 2.5t-0.5 2.5l-0.5 1.5q0 1 0.5 3.5t0.5 5.5t0.5 6l0.5 3v3zM134 239v0.5v0.5l0.5 0.5l1.5 1.5v0q4 0 7.5 -3.5t7.5 -9t7 -11.5t6 -11
t5 -8.5t3 -3.5q2 0 4 3.5t4 8t4.5 10t4.5 10.5t5 8t6 3q1 0 1.5 -1t0.5 -2v-2q-12 -15 -18.5 -35t-6.5 -39q0 -18 1 -37t3 -36q1 -1 1.5 -4l1 -6t0.5 -5.5v-3.5l-2 -1t-3 -2q-2 0 -3.5 2t-1.5 3l-3 107q-1 8 -5 16.5t-9.5 16.5t-12 15.5t-10.5 13.5v0.5v0.5zM81 224v1.5
t1 1.5h4.5h4.5q13 0 26 -2t26 -3l1 -2q-2 -4 -6 -4t-8.5 0.5t-7.5 -0.5t-3 -8q0 -3 2 -5t4.5 -2h6t7.5 -1q1 0 1.5 -0.5l0.5 -0.5q0 -1 -0.5 -2t-1.5 -1h-7.5t-6.5 -0.5t-4.5 -2.5t-1.5 -7q0 -2 3 -3.5t7 -3t8 -3.5t6 -5q4 -8 6 -17.5t2 -17.5q0 -7 -0.5 -10.5t-1.5 -6
t-4 -4.5t-8 -6q-3 -3 -4.5 -6t-5.5 -4q-5 -2 -11 -2.5t-12 -2.5v-2.5v-1.5q0 -3 0.5 -5t4.5 -3q2 0 6 -1t8.5 -2t8.5 -2t5 -1l4.5 -4.5t2.5 -4.5q0 -4 -3 -7.5t-7 -3.5h-35q-1 0 -1.5 1.5l-0.5 1.5q0 1 0.5 2.5t1.5 1.5h28q3 0 3.5 1t0.5 3v1v1l-12 2t-11 3.5t-9 6.5t-4 11
q0 5 4 7t9 3t10 1.5t8 0.5l1.5 1.5l1.5 1.5v0.5v0.5v0v1h-7q-3 0 -7 0.5l-8 1t-6 3.5q-1 0 -3 2l-4 4l-4 4l-3 3q0 3 -0.5 6.5t-0.5 6v5.5v6q0 14 5.5 21t17.5 12v12l-0.5 0.5t-1.5 0.5q-1 1 -4 1.5t-4 0.5h-2.5h-3.5h-3.5h-2.5l-0.5 0.5l-0.5 0.5q0 1 0.5 3l0.5 2h20
q0 1 0.5 3t0 4l-1 4t-2.5 2q-4 1 -11 1.5t-12 2.5v2zM102 168q0 -2 0.5 -4t1.5 -3.5t2.5 -3t3.5 -1.5q3 0 6 4t3 7t-3 5.5t-7 2.5q-7 0 -7 -7zM192 89h-1v0q-1 0 -2.5 1.5l-1.5 1.5v76q0 1 1.5 1.5t2.5 0.5q2 0 2.5 -2t0.5 -4q0 -12 -0.5 -23.5t-0.5 -23.5q0 -5 0.5 -9.5
t0.5 -9.5v-2.5v-3t-0.5 -2.5t-1.5 -1zM117 150q0 -2 1.5 -4t3.5 -2v0v1q3 1 5.5 2.5t5 3.5t4 4.5t1.5 5.5q0 4 -2.5 4.5t-5.5 0.5q-2 0 -4 -2t-4 -4.5t-3.5 -5.5t-1.5 -4zM154 163l2 1v0q1 0 2 -3l2.5 -7.5t2.5 -8.5t1 -5v-45l-2.5 -1.5l-2.5 -1.5q0 18 -0.5 35.5t-4.5 35.5
zM92 149q0 -2 1.5 -2.5t3.5 -0.5t3.5 1.5t1.5 3.5q0 3 -2 4.5t-4 2.5q-1 -1 -2.5 -4.5t-1.5 -4.5zM127 141q0 -1 1.5 -4t3 -5.5t3.5 -4.5t4 -2q4 0 5.5 2.5t1.5 5.5v4t-0.5 5.5t-2 4t-3.5 1.5q-1 0 -3 -0.5t-4.5 -1.5t-4 -2t-1.5 -3zM95 132q0 -3 1.5 -5t4.5 -2q2 0 4.5 1.5
t5 4t4 5t1.5 5.5q0 2 -2.5 3t-4.5 1t-4.5 -1.5t-4.5 -3.5t-3.5 -4t-1.5 -4zM111 122l2 -1t5 -2t5.5 -1.5t3.5 -0.5q2 0 3.5 1t1.5 3v1l-0.5 1t-2 2.5l-2.5 2.5t-1 2q-1 0 -3 2t-2 1l-10 -10v-1z" />
</svg>
