<?xml version="1.0" standalone="no"?>
<!DOCTYPE svg PUBLIC "-//W3C//DTD SVG 1.1//EN" "http://www.w3.org/Graphics/SVG/1.1/DTD/svg11.dtd" >
<svg xmlns="http://www.w3.org/2000/svg" xmlns:xlink="http://www.w3.org/1999/xlink" version="1.1" viewBox="-10 0 266 256">
   <path fill="currentColor"
d="M118 246q0 2 1.5 2h2.5q4 0 8 -3.5t7.5 -8t6.5 -8t6 -3.5q2 0 5 3.5t5.5 8t6 8t7.5 3.5q2 0 3.5 -0.5t1.5 -3.5t-1.5 -4.5l-5.5 -5.5l-2 -2l-4 -4l-4 -4l-2 -2q-5 -6 -6 -12.5t-1 -13.5q0 -2 0.5 -4l0.5 -2l3 -5h21q1 0 2 -1.5l1 -1.5l1 -1q0 -2 -3 -2h-3q-21 0 -41 2
t-40 2h-14t-10.5 -2t-6.5 -6.5t-2 -13.5q0 -5 1.5 -10t6.5 -7q3 0 10 -0.5t15 -1.5t14.5 -1.5t9.5 -0.5h13.5t15 -0.5t14 -2.5t10.5 -8q1 -7 1.5 -12t0.5 -11q0 -2 -0.5 -6t-2 -7.5t-4 -6t-6.5 -2.5h-52l-6 2h-42q-1 0 -2.5 0.5t-3 1.5l-3 2t-1.5 3q0 1 1 1.5t2.5 0.5h2.5h2
h6.5t11.5 -0.5t13.5 -1t13.5 -1t10 -1t5 -1.5h3h4.5h4.5h2h15t10 2t6 6.5t2 13.5q0 12 -6.5 16.5t-18.5 4.5l-66 4q-9 0 -16.5 5t-7.5 15l0.5 1t0.5 2t0.5 2l0.5 1q0 1 0.5 3.5t0.5 5t0.5 5.5l0.5 3q0 2 1.5 3.5t4 3t4.5 2t4 1.5h18q14 0 27 -2t27 -2v0q2 1 4 2.5t2 3.5v0v5
t-0.5 7t-0.5 7v5l-2 1q0 1 -1 3.5t-2 2.5l-3.5 3.5t-5 5.5t-5 5.5t-3.5 2.5q-1 1 -3.5 2.5t-2.5 3.5zM195 245q1 1 2 1.5t2 0.5q3 0 4.5 -2t1.5 -4v-2q0 -2 -0.5 -5.5t-0.5 -7.5t-0.5 -7l-0.5 -3q0 -3 -0.5 -10.5t-1 -15.5t-1.5 -14.5t-2 -7.5q0 -2 0.5 -6t0.5 -9t-0.5 -9
t-0.5 -6v-4.5t-0.5 -8t-0.5 -8.5v-5q0 -7 0.5 -15.5t-0.5 -16.5t-5 -13.5t-14 -5.5h-47q-1 0 -2 -1.5t-2 -1.5v-1v-1l5 -4q7 -2 14 -2h14q6 0 11.5 -0.5t9.5 -3.5t6.5 -8.5t3.5 -15.5q-1 0 -2.5 -1.5t-2.5 -1.5q-2 0 -3 1.5t-2 3.5v2t-0.5 4t-0.5 3.5v2.5q-3 4 -7.5 5.5
t-9.5 2t-10.5 0.5h-9.5h-12q-2 -1 -2 -1.5v-1.5q0 -2 2.5 -3t7 -2t9 -1.5t9 -2.5t7 -5t2.5 -9q0 -1 -0.5 -2.5t-1.5 -2.5l-2 -2t-2 -1q-4 0 -4 2.5t-1.5 6.5t-5 7t-13.5 3h-3h-2l-2 -4v-19l-1.5 -0.5l-1.5 -0.5h-1h-1q-1 0 -2.5 0.5l-1.5 0.5v23l-2 1h-2.5h-3.5
q-9 0 -12 -2.5t-4 -5.5t-1.5 -5.5t-3.5 -2.5h-1q0 1 -1.5 2t-1.5 2q-1 7 2 11t8 5.5t11 2t10 1.5q1 0 1.5 1t0.5 2q0 3 -3.5 3.5t-6.5 0.5h-1h-6t-9 -0.5t-9 -0.5h-6q-3 0 -5 -2t-3 -5t-1 -6.5v-5.5q-1 -2 -2 -2.5t-2 -0.5h-2t-2 2v5q0 3 0.5 7t2.5 7.5t4.5 6t6.5 2.5h34h2
t2.5 0.5t3 0.5h1.5q1 1 1 2v1q0 4 -2 5t-4.5 1.5l-5 1t-4.5 2.5h-51q-1 0 -1.5 1.5t-0.5 2.5t0.5 2t1.5 1h16q19 0 38 -2.5t39 -2.5h9h10t10 0.5t10 1.5q3 4 4 11t1.5 15t0 15.5t0.5 12.5q0 15 1 30t2 30.5t1.5 30.5t-0.5 30zM62 234q6 3 9.5 4t8.5 1q10 0 16.5 -0.5
t10 -3.5t5 -9t1.5 -16v-10l-1 -1.5t-2 -1.5t-2 1t-2 2.5t-1.5 3l-0.5 1.5h-5.5t-8.5 0.5t-8 0.5h-6h-0.5h-1.5q-2 0 -3.5 -1.5t-2 -3t-1.5 -3t-3 -1.5t-3 1t-2 3t-1 3.5v2.5v6t0.5 8t1.5 7.5t2 5.5zM68 220q0 -4 2 -5t4 -1h5.5t4.5 -1h20q2 0 2 2v3q0 2 -0.5 5.5t-2.5 4.5
q-8 1 -12.5 1.5t-10.5 0.5t-9 -2t-3 -8zM168 197v5t0.5 8.5t1.5 8t4 3.5t3.5 -3t0.5 -5v-5.5t-1 -6t-3 -4t-6 -1.5zM131 198v1q-1 0 -2.5 1.5l-1.5 1.5v15l1 0.5t1 1.5h1q2 0 3 -1.5t1.5 -4t0.5 -4.5v-4q0 -1 -1 -4t-3 -3zM103 149q-2 1 -6.5 1.5l-9 1t-8 1.5t-3.5 2v11
q0 3 3.5 4t8 1.5t8.5 0.5h5h21t21 -1q2 0 7.5 -0.5t11 -1.5t9.5 -2t4 -3v-1q0 -1 -1 -2h-6q-16 0 -32 2.5t-32 2.5h-5.5h-6.5t-6 -1t-4 -4q4 -4 8 -5t9 -1h8.5t12 -0.5t14 -1t14 -0.5t12 -0.5t8.5 -0.5h1t2.5 -0.5t2.5 -1t1 -2.5t-1.5 -2h-2.5h-3q-4 0 -13.5 0.5t-19.5 1
t-19.5 1t-12.5 0.5zM51 124l4 4h7q18 0 36.5 -2t36.5 -3q3 -1 5.5 -1t5 -1.5t4 -3.5t1.5 -5q0 -1 -0.5 -3.5t-1 -4.5t-2 -3t-3.5 -1q-1 0 -3.5 -0.5t-5.5 -0.5h-6h-3q-19 0 -37.5 1.5t-37.5 3.5v1.5v0.5v3t2 1h5q19 0 37.5 -2t37.5 -2h8q2 1 2 2v2q0 4 -6.5 5.5t-16.5 2
t-21.5 1t-21.5 1t-17.5 1.5t-8.5 3z" />
</svg>
