<?xml version="1.0" standalone="no"?>
<!DOCTYPE svg PUBLIC "-//W3C//DTD SVG 1.1//EN" "http://www.w3.org/Graphics/SVG/1.1/DTD/svg11.dtd" >
<svg xmlns="http://www.w3.org/2000/svg" xmlns:xlink="http://www.w3.org/1999/xlink" version="1.1" viewBox="-10 0 266 256">
   <path fill="currentColor"
d="M51 245q0 6 5 6h1.5h1.5q7 -6 10 -14.5t5 -17t3.5 -17.5t6.5 -16v-0.5t1 -0.5q2 0 3 4.5t2.5 11.5t3 15t3.5 14.5t4.5 11t5.5 4.5q2 0 3 -0.5t1 -2.5q0 -4 -1.5 -8.5t-3.5 -8.5t-3.5 -8.5t-2.5 -8.5q0 -2 -1 -7.5t-2 -11.5t-2 -11.5t-1 -6.5q-1 -1 -1.5 -3.5l-0.5 -2.5
q-2 -14 -2.5 -25t-0.5 -22v-22v-24v-43l1.5 -6t0.5 -5q0 -4 -2 -6t-6 -2q-2 0 -3 1t-2 3v3v4v3v3q0 20 1.5 40t1.5 41v10v12v11v5q-1 16 -5 30t-9 29q-2 4 -3 9.5t-2.5 11t-4 10.5t-6.5 8zM122 246q0 1 0.5 3t1.5 2q6 0 9 -3.5t5 -8.5t3.5 -9t4.5 -6q0 -2 2 -7t3.5 -10.5
t3 -10.5t2.5 -7l2.5 -5t3.5 -3h1h1q5 13 9 25.5t9 25.5q1 2 2 4.5t2.5 5t3.5 4.5t5 2q2 0 4 -1.5t2 -3.5q0 -4 -2.5 -9t-5.5 -10.5t-6.5 -10.5t-4.5 -9q-8 -16 -12 -32.5t-4 -34.5v-6l0.5 -1.5l0.5 -1.5h35q1 0 1.5 -1l0.5 -1v-3.5v-3.5h-10.5t-17.5 0.5t-20.5 1t-19 1.5
t-14.5 2.5t-6 2.5t0.5 1.5l1.5 1.5h5h5h6h5l2 -0.5t4 -0.5t4 -0.5l2 -0.5q1 0 2.5 0.5t2.5 1.5v3v5v4v4q0 11 -1.5 21.5t-5 20t-7.5 19t-8 19.5q-1 2 -3 4.5t-4.5 5t-4 5.5t-1.5 5zM125 191v2.5v1.5l0.5 1t1.5 1q3 0 4.5 -2t2.5 -5t1.5 -6t0.5 -4q0 -2 0.5 -6t1 -8.5l1 -9
t1.5 -6.5v-2q0 -2 -2 -2h-3h-3t-2 1v5.5t-0.5 7.5t-0.5 8t-1 5q0 5 -1.5 9t-1.5 9zM186 150q0 3 1 10t2.5 14.5t4 13.5t4.5 6q3 0 3.5 -3.5t0.5 -5.5q0 -1 -1.5 -7.5t-3.5 -14.5t-4 -13.5t-3 -5.5h-1q-1 0 -2 0.5t-1 1.5v2v2zM55 140v2q0 2 0.5 3.5t1 2.5t2.5 1t3.5 -0.5
t2.5 -2.5q2 -14 2 -27v-26v-6v-10v-9v-6q-1 -2 -2.5 -3t-2.5 -1q-2 0 -3 1t-2 3v12v18v18.5v11.5v3t-0.5 4t-1 4.5l-0.5 2.5v4zM102 62v79l0.5 2t0.5 3h1v0v0q1 -1 2.5 -2t1.5 -2v-79l-0.5 -0.5t-1.5 -0.5h-2h-2zM144 57q2 0 2.5 0.5t0.5 2.5v35q0 5 5.5 9t10.5 4
q7 0 11.5 -4t6.5 -9t3.5 -9l1.5 -4h1q1 0 2 0.5t2.5 0.5t2.5 0.5l1 0.5q1 0 1.5 0.5l0.5 0.5q0 3 -2 5.5t-4 4t-3.5 3t-1.5 2.5v0v1l2.5 0.5t3.5 0.5h1q5 0 7.5 -4t3.5 -10t1 -11v-9v-2v-6v-6v-5v-4v-6v-6v-3q-1 -2 -1.5 -2.5t-1.5 -0.5q-2 0 -2.5 0.5t-1.5 2.5q1 3 1 7
t-1 8t-3.5 6.5t-7.5 2.5h-1q-1 0 -2 -3l-1 -3q-1 -2 -3.5 -2.5t-4.5 -1t-3.5 -1t-1.5 -1.5v-19q0 -1 -2.5 -1.5t-3.5 -0.5l-2 0.5t-2 1.5v19l-2 1.5t-5 3.5t-5.5 4t-3.5 2h-4h-4t-3.5 -1t-2.5 -2v-3v-4v-3.5v-2.5t-1.5 -3t-2.5 -2h-1q0 1 -1 1.5t-2 0.5v11v11q0 2 0.5 7.5
t0.5 11.5t0.5 11.5t0.5 8.5q0 2 1.5 3.5t3.5 2.5t4.5 1h4.5q4 0 4 -3q0 -2 -2 -3t-3.5 -1.5t-3 -2t-1.5 -4.5t1 -4.5t2.5 -2.5l3 -2t1.5 -2q0 -2 -1.5 -2.5t-3.5 -1t-3.5 -0.5h-1.5v-5q0 -6 4 -8.5t10 -2.5zM155 97q0 -1 1 -2.5t2 -3.5t3 -3.5t3 -1.5q4 0 6 3.5t2 6.5
t-3.5 4t-5.5 1t-5 -0.5t-3 -3.5zM151 81v-7t1 -8h1q3 0 5 4t2 6t-0.5 3.5t-1 3.5t-2 3t-2.5 1q-3 0 -3 -2v-4zM168 74l0.5 -2.5t1.5 -4.5l2 -4t3 -3q3 2 3 6v7v4v3t-1 1.5l-1 0.5q-1 0 -2.5 -1t-2.5 -2t-2 -2.5t-1 -2.5zM184 66v-2v-2l2 -2h12v13q0 1 -1.5 2t-3.5 1.5
t-3.5 0.5h-2.5q-2 0 -2.5 -1t-0.5 -3v-4v-3zM155 53q0 -1 1.5 -2l3 -2t3 -1h2.5q5 0 5 4v2v2q-1 1 -1.5 2.5t-1.5 3t-1.5 2.5l-0.5 1h-5l-0.5 -1l-1.5 -3t-1.5 -4t-1.5 -3v-1z" />
</svg>
