<?xml version="1.0" standalone="no"?>
<!DOCTYPE svg PUBLIC "-//W3C//DTD SVG 1.1//EN" "http://www.w3.org/Graphics/SVG/1.1/DTD/svg11.dtd" >
<svg xmlns="http://www.w3.org/2000/svg" xmlns:xlink="http://www.w3.org/1999/xlink" version="1.1" viewBox="-10 0 266 256">
   <path fill="currentColor"
d="M58 245q0 3 1 4.5t5 1.5q2 0 4 -2.5t2 -3.5v-108q2 -14 2 -27t1 -26q1 -11 1 -19t2.5 -13.5t9 -8t19.5 -2.5v0q1 0 1.5 0.5t0.5 1.5v15l-1.5 1.5l-1.5 1.5h-1q-2 0 -2.5 -2l-1 -4t-1 -4.5t-2.5 -2.5q-4 0 -4.5 1.5t-0.5 4.5q0 6 3 9t6 4t6 1.5t3 2.5q0 5 -1 9.5t-1 9.5v4
v4l0.5 0.5l1.5 1.5v0h1l3 -2q2 -7 2 -14v-14q3 -2 6.5 -2.5t6 -1t4 -3t1.5 -9.5v-2.5v-2.5q0 -2 -1 -2h-2h-1q-1 2 -1.5 4.5t-1.5 4.5t-2.5 3.5t-4.5 1.5q-1 0 -2 -0.5t-2 -2.5q0 -1 -0.5 -3.5t-0.5 -3.5q0 -7 3.5 -10.5t9 -4t11.5 0t12 -0.5h1.5t3 -0.5t3 -0.5h1.5h7h11h11
h7l1.5 -1.5l1.5 -1.5v-0.5v-0.5v-0.5v-0.5q-1 0 -2.5 -1.5t-2.5 -1.5h-2h-4h-4h-2q-9 0 -17 1t-17 1h-6q-1 0 -2 -1.5l-1 -1.5q0 -1 0.5 -2l0.5 -1q0 -1 0.5 -2.5t0.5 -2.5q0 -3 -0.5 -4.5t-4.5 -1.5q-2 0 -3.5 2t-2 5t-0.5 6v5q-1 1 -3.5 1.5l-5 1t-4.5 0.5h-3h-3h-6h-5h-3
q-15 2 -22 6.5t-10 12t-3 17.5v23v8q0 4 0.5 8t0.5 8v1q0 1 -0.5 8.5t-1 16t-1 15.5t-0.5 9v3q0 5 1 10.5t1 11.5q0 13 -1.5 26.5t-1.5 27.5zM152 240l2 1l4 2t3.5 2t2.5 1h1q3 0 3.5 -1t0.5 -3q0 -4 -2.5 -6.5t-6 -5t-7 -4.5t-5.5 -4q-5 -8 -6.5 -18t-2.5 -18
q-1 -2 -2.5 -4t-3.5 -2t-2.5 1.5t-0.5 3.5v1l0.5 2.5t0.5 5t0.5 5l0.5 2.5q-1 6 -6 12t-11.5 11.5t-11.5 10t-5 5.5q0 5 4 5q5 0 9 -4t7.5 -8.5t7.5 -8.5t9 -4v0h1q5 4 9.5 9t6.5 11zM159 190q0 2 0.5 6.5t2 9t3.5 8t5 3.5t4 -2t1 -4v-2l-1 -1t-1.5 -2t-1.5 -2l-1 -1
l-0.5 -2t-0.5 -4v-4v-2q0 -1 -0.5 -2.5t-0.5 -3t-1 -3t-2 -1.5h-1q-5 3 -5 9zM101 186v8.5t-0.5 6.5t-1 6.5t-0.5 8.5q3 0 5.5 -3t3.5 -7t1.5 -8.5t0.5 -6.5q0 -7 -5 -7q-2 0 -3 0.5t-1 1.5zM87 169q0 1 0.5 3t1.5 2q3 0 5 -2.5t4.5 -5t6 -4.5t7.5 -2q3 0 5 1t2.5 3t0.5 5v5
q1 0 2 -1t2.5 -3t2 -3.5t0.5 -2.5v-57q-4 0 -5.5 1.5t-1.5 3.5t-0.5 3.5t-1.5 1.5h-14q-1 0 -2 -1.5t-1.5 -3l-1 -3t-0.5 -2.5h-0.5h-0.5q-3 0 -3.5 2.5t-0.5 4.5q0 6 4 8.5t9 3t8.5 0.5t3.5 1v8l-26 3q-2 1 -2.5 1.5t-0.5 1.5q0 2 0.5 2.5t2.5 0.5h22q1 0 2 2t1 3
q0 2 -2.5 3t-6 1t-7.5 0.5t-7.5 2t-5.5 4.5t-2 9zM172 158q2 1 2.5 3.5t1 5.5t1.5 5t4 2t4 -3t1 -6q0 -1 -0.5 -3.5t-1.5 -5t-2.5 -4t-3.5 -1.5h-22q-1 0 -2.5 -1.5t-1.5 -3.5q0 -3 1.5 -4t4 -1.5t5 -0.5h3.5h15l3 -3l-3 -4h-4h-6t-6 -0.5t-4 -0.5q-2 0 -5.5 -1t-3.5 -4
q-1 -2 1 -3t5.5 -1h7.5t8 -1.5t6.5 -4.5t2.5 -8q0 -3 -2 -4t-4 -1t-3 2t-1.5 4.5t-3.5 4.5t-9 2h-3.5h-3.5v-3.5t-0.5 -4.5t-1.5 -3.5t-3 -1.5q-3 0 -3.5 2t-0.5 5q0 15 1 29t0 31q1 1 1.5 1h1.5q4 0 4 -2t0.5 -5t3 -5t9.5 -2h3.5h3.5zM124 92q0 2 0.5 3.5t2.5 1.5t3 -1.5
t1.5 -4t0.5 -4.5v-4t-1.5 -4.5t-3.5 -3.5l-2 2v1t-0.5 3t-0.5 4.5v3.5v3zM162 72v22q0 2 1 2.5t2 0.5q2 0 3.5 -1.5t1.5 -3.5v-17q0 -5 3.5 -6t8 -2.5t8 -4t3.5 -10.5q0 -2 -1 -4t-3 -2q-3 0 -4.5 2.5t-2 5t-1.5 5t-5 2.5h-0.5h-0.5q-1 0 -2.5 -0.5t-1.5 -1.5v-16
q0 -1 -1 -1.5l-1 -0.5h-1h-1q-1 1 -2.5 2l-1.5 1v15q0 2 -2.5 2h-2.5q-4 0 -4.5 -2t-0.5 -5q0 -2 -0.5 -4.5t-3.5 -2.5q-2 0 -2 1.5v2.5q0 9 2.5 13t11.5 5zM179 83v3t0.5 4t1.5 3.5t3 1.5q3 0 4.5 -2t1.5 -4v-4.5t-1 -5t-2 -4.5t-4 -2q-1 0 -2 0.5t-2 1.5v4v4zM93 89
q0 2 0.5 3.5t3.5 1.5h1q1 -2 1.5 -4.5t0.5 -4.5v-4v-3q-6 0 -6.5 3.5t-0.5 7.5zM147 92l1 2h1h1l2 -2t1 -1.5v-2.5v-3v-5.5t-3 -4.5q-3 2 -3 5v6v6z" />
</svg>
