<?xml version="1.0" standalone="no"?>
<!DOCTYPE svg PUBLIC "-//W3C//DTD SVG 1.1//EN" "http://www.w3.org/Graphics/SVG/1.1/DTD/svg11.dtd" >
<svg xmlns="http://www.w3.org/2000/svg" xmlns:xlink="http://www.w3.org/1999/xlink" version="1.1" viewBox="-10 0 266 256">
   <path fill="currentColor"
d="M84 247q0 2 1.5 2.5l3 1t2.5 0.5h2q6 0 14.5 -1t18 -3.5t19 -6.5t16.5 -9t12 -11.5t5 -13.5q0 -8 -4.5 -12t-11 -7t-13.5 -5.5t-12 -5.5q-2 -1 -2 -2v-3q0 -1 0.5 -3t2.5 -2h49h3t4 -1t3 -2.5t1 -3.5q-11 0 -22 1t-21 1q-4 0 -4 -4v-1v-1l8 -8v-18q0 -3 -2 -5t-4.5 -3.5
t-4.5 -3.5t-2 -5t0.5 -6.5t2.5 -5.5q8 0 14.5 0.5t11 -1.5t7 -6.5t2.5 -13.5l-0.5 -2t-1 -3.5t-1.5 -3t-2 -1.5q-3 0 -6 2.5t-7 2.5h-1q-1 0 -3 -0.5t-4.5 -0.5h-5h-3.5q-3 -3 -5 -7t-4.5 -7.5t-5 -6t-7.5 -2.5t-6.5 3.5t-3 8t-3.5 9t-7 5.5q-1 0 -4 0.5t-6 1.5t-6 1.5
t-4 0.5q-5 4 -7.5 9.5t-3.5 12.5t-1.5 13.5t-1.5 12.5q0 1 -1 5l-2 8t-2 7.5t-1 4.5q-1 4 -3 6.5t-4.5 5t-4 5t-1.5 5.5v2t2 2t4.5 -2t5 -5t4.5 -6t3 -5q0 -1 1.5 -4.5t2.5 -7l2 -7t1.5 -4.5t1.5 -4.5t1.5 -7.5t1.5 -7.5t1 -4.5q1 0 1 -2v-4t0.5 -3.5t2.5 -1.5h20
q1 0 1.5 0.5t0.5 1.5l1 1.5t1.5 3.5t1 3.5l0.5 1.5q1 0 1 1v1v1h-1q-5 6 -7.5 11t-2.5 12q0 3 1.5 6t3.5 5t4.5 4t4.5 3l-2 4h-31l-0.5 1t-0.5 2v0v1q2 1 7.5 1.5t11.5 1t10.5 1.5t4.5 2q0 4 -5.5 7t-11.5 6t-11.5 5t-5.5 4h10t10 -2q2 -1 5 -3.5t6.5 -5t7 -4t6.5 -1.5
q0 1 1.5 1.5l3 1t3 1.5l1.5 1v2q0 4 -6 7t-14 6t-15.5 5.5t-11.5 3.5v1q0 2 1.5 2.5t3.5 0.5q6 0 13.5 -2t14 -5t12.5 -7t11 -8h1v0h0.5h0.5q1 1 3.5 2t2.5 3q0 6 -4.5 10t-12 6.5t-16 5t-15.5 4.5t-11.5 4.5t-4.5 5.5q7 0 17 -2.5t19.5 -6t18 -8.5t14.5 -10h1q2 0 2 1.5
v2.5q0 8 -5 13t-12.5 9t-16.5 6.5t-18 4.5t-17 3t-12 3v0v0zM113 138q0 -5 2 -8t4.5 -4.5t6.5 -2t8 -0.5h5.5h4.5q4 2 5.5 7t1.5 9q0 6 -4 12t-11 6q-4 0 -8 -1.5t-7 -4t-5.5 -6t-2.5 -7.5zM127 137q0 3 1 3.5t4 0.5q2 0 3.5 -0.5t1.5 -2.5q0 -3 -1 -4t-4 -1q-2 0 -3.5 0.5
t-1.5 3.5zM119 106l0.5 -1.5l0.5 -1.5q4 -1 6.5 -1.5t6.5 -0.5h5q3 1 3.5 2.5t0.5 3.5q0 3 -0.5 5t-3.5 3l-2.5 0.5t-3.5 0.5q-5 0 -9 -2t-4 -8zM109 82v12l-3 3h-18q0 -4 2 -7t5 -4.5t6.5 -2.5t7.5 -1zM116 89q0 -3 1.5 -5t3.5 -3t5 -1h6h3h3q2 1 3 3t1 4t-1 4.5t-4 2.5
h-17q-2 0 -3 -1.5t-1 -3.5zM149 80h22q2 0 2 2.5v3.5q0 2 -2 4.5t-5 2.5h-17v-13zM121 69q0 -1 0.5 -3t1.5 -4t2.5 -3.5t3.5 -1.5q1 0 2.5 1t2.5 3l2 4t1 4v2t-2 2h-12q-1 0 -1.5 -1.5t-0.5 -2.5zM90 62q1 1 2 1v0q5 0 7.5 -1.5t4.5 -4.5t3.5 -6t2.5 -6t5 -4.5t8 -2.5t8 -1
h6q8 0 16 2l16 4t16 3.5t16 1.5q0 -3 -4 -5t-10.5 -4t-14.5 -4t-15 -3.5t-13 -2.5t-9 -3q-2 0 -2.5 -2.5l-1 -5t-1.5 -4t-4 -1.5q-1 0 -2 2.5t-2 5.5t-2.5 6t-3.5 4q-1 1 -3.5 2.5t-6 3t-6.5 3t-4 2.5q-3 1 -7.5 2l-9 2t-8.5 3t-6 5v1q0 1 1.5 1.5t2.5 0.5q5 0 10 -1.5
t9.5 -3.5l9 -4t9.5 -3q-1 2 -3 4.5t-4.5 4.5l-5 4t-4.5 4zM149 50q0 4 2.5 6.5t6 4t7 2t6.5 0.5h2t1 -1q-6 -4 -12.5 -7.5t-10.5 -9.5q-2 0 -2 2v3z" />
</svg>
