<?xml version="1.0" standalone="no"?>
<!DOCTYPE svg PUBLIC "-//W3C//DTD SVG 1.1//EN" "http://www.w3.org/Graphics/SVG/1.1/DTD/svg11.dtd" >
<svg xmlns="http://www.w3.org/2000/svg" xmlns:xlink="http://www.w3.org/1999/xlink" version="1.1" viewBox="-10 0 266 256">
   <path fill="currentColor"
d="M50 248q0 3 3 3t3.5 -2t2.5 -4q0 -1 1.5 -3t2.5 -4t2 -3.5l1 -1.5l12 -39q0 -7 1 -15t2.5 -16t2.5 -16t2 -15q1 -8 1 -16.5t3 -16.5v-1v-1q0 -1 -2 -5t-2 -5v-49q0 -7 -2.5 -15t-6.5 -13h-2q-3 0 -3 2q0 6 2.5 10t2.5 9v2q0 1 -0.5 2.5t-0.5 3.5t-0.5 4l-0.5 2q-2 2 -4 2
q-3 0 -4.5 -2.5l-3 -5t-3 -4.5t-3.5 -2h-1v0l-0.5 0.5l-1.5 1.5v1q0 4 1.5 8t1.5 9v9v3.5t-0.5 6.5t-1 7t-1.5 5q0 3 -2 6t-2 6v2.5t2 1.5q4 0 5.5 -3.5t2.5 -7.5t3.5 -7.5t7.5 -3.5q3 0 5 1.5t2.5 3.5t0 5t-0.5 6v14t-1 14q-1 2 -3 2h-3q-4 0 -5 -1.5t-1 -4t-1 -6t-5 -6.5
h-1q-2 0 -2 3q0 5 0.5 10t0.5 10q0 15 -3.5 29.5t-8.5 28.5v2q0 1 0.5 2t2.5 1v0q1 -1 2 -2.5t1 -2.5q1 0 1.5 -2t1.5 -4.5l2 -5t1 -3.5q1 0 1.5 -2l1 -4l1 -4t1.5 -3l3 -1.5t3 -0.5q4 0 5 3t1 6q0 6 -1 13t-3 14t-3.5 13.5t-3.5 11.5l-0.5 1.5l-0.5 1.5q-3 8 -6 13.5
t-6 13.5zM112 212v7q0 5 1 9t4 7t7 4q5 0 8.5 0.5t7 0.5h7.5h8q10 0 17 -1.5t11 -6t6 -11t2 -17.5v-2q0 -2 -0.5 -4t-0.5 -4v-2q-2 -6 -6.5 -9.5t-10.5 -5t-12 -2t-12 -0.5q-11 0 -18 2t-11 6.5t-6 11.5t-2 17zM122 223v-2q0 -2 -0.5 -4t-0.5 -3v-2q0 -9 1.5 -14.5t5 -8.5
t9 -4t14.5 -1h7.5t9 0.5t8 2t4.5 5.5v2v4v3v3v11t-1.5 6.5t-4.5 4.5l-9 6h-3h-3.5h-4.5h-2h-8q-5 0 -9 -1t-7.5 -2.5t-5.5 -5.5zM136 208q0 13 16 13q9 0 12.5 -4t3.5 -13q0 -3 -1.5 -6.5t-4.5 -4.5h-4h-4q-9 0 -13.5 2.5t-4.5 12.5zM144 211v-4q0 -4 1.5 -6.5t7.5 -1.5
q1 0 4.5 1.5t3.5 4.5q0 4 -3 5.5t-6 1.5h-4q-3 0 -4 -1zM148 156q4 0 6 2t5 4q10 6 22 9.5t24 3.5q1 0 1.5 -1t0.5 -2t-3.5 -2.5t-8.5 -2.5t-9 -2.5t-6 -3.5v-12v-6q0 -4 0.5 -9t1.5 -9t3 -4h1q3 2 4.5 7t2.5 10t1.5 8.5t2.5 3.5q3 0 3.5 -3t0.5 -5q0 -3 -0.5 -7t-1.5 -8.5
t-2.5 -8.5t-4.5 -6l-3 -1.5t-2.5 -1t-2.5 -1.5l-2 -2q0 -1 -0.5 -3t-0.5 -3q0 -2 0.5 -4.5t1.5 -4.5t3 -3.5t4 -1.5q3 0 4.5 1.5l3.5 3.5t4 3.5t4 1.5q1 0 2.5 -0.5t1.5 -2.5q-1 -1 -4 -4.5t-6.5 -8t-6 -7.5t-3 -3t-2.5 2t-2 3h-1v0h-1q0 -1 -1 -3.5l-1 -2.5v-1v-1v-3
t0.5 -5t0.5 -5.5v-3.5h1q3 0 5 1t4.5 2.5t4.5 2.5t4 1t3 -0.5t1 -1.5q0 -2 -3 -5.5t-6 -6.5l-6.5 -6.5t-4.5 -6.5q-1 0 -1.5 -2.5t-1.5 -5l-2 -5t-1 -3.5l-0.5 -0.5l-0.5 -0.5h-1h-1l-0.5 0.5t-1.5 0.5q-1 7 -2.5 15t-6.5 13q0 1 -2.5 2.5t-2.5 2.5v1v2t1 1t2 -0.5t2 -1.5
l2 -2t2 -1q3 0 4 2.5t1 5.5v1v4.5t-0.5 5t-0.5 5v3.5t-0.5 1.5l-0.5 0.5h-2h-2h-3h-1q-2 0 -2.5 2t-2 4.5t-3 4t-5.5 1.5t-5 -2t-1.5 -4.5t-0.5 -5t-2 -2.5h-2q0 1 -1.5 2t-2.5 2l-2 2l-2 2l-1 0.5l-1 0.5q-2 0 -2.5 -1.5l-1 -3t-0.5 -3.5v-3q0 -5 1 -9.5t1 -9.5q5 0 9 2
t10 2q0 -2 -1.5 -4.5t-3.5 -4.5t-4.5 -3.5t-3.5 -3.5q-4 -6 -7 -12t-4 -12h-2q-1 0 -2 2.5t-1 4.5q-1 1 -1.5 3.5l-1 5t-1.5 4.5t-1 4l-16 19v4q2 -1 4 -3l4 -4t4.5 -3.5t4.5 -1.5t3.5 1t1.5 3v21q0 1 -1 3t-3 2q-1 0 -2 -1t-2 -2.5l-2 -3t-2 -2.5q-5 4 -8.5 10t-6.5 12h1
q2 0 3.5 -1t2.5 -2.5t2.5 -3t3.5 -1.5t4.5 1.5t4.5 3.5t3.5 4.5t1.5 4.5q1 3 -0.5 4.5t-3.5 3t-4 2t-4 2.5t-3.5 6t-2 8t-0.5 8v6q-1 6 -3.5 10.5t-2.5 10.5q0 2 0.5 3t1.5 1h1v0l0.5 -0.5t1.5 -0.5q0 -1 1 -3.5t2 -5.5t1.5 -5.5t1.5 -3.5q0 -1 0.5 -3.5l1 -5l1 -5t0.5 -3.5
t0.5 -2.5t1 -3.5t2 -3.5t2.5 -1.5h2h1q2 19 1 38l2 2l1 -2q1 -1 1.5 -2.5l0.5 -1.5v-31q0 -2 1.5 -2.5t2.5 -0.5q3 0 4 3q2 6 3.5 12t1.5 13q0 6 -2.5 9.5t-7 5.5t-9.5 4t-9 4q0 2 1 2h2q5 0 10.5 -2.5t10.5 -5.5t9 -5t5 -2zM127 103q0 -6 2.5 -8.5t7.5 -6.5h1h1
q2 0 3.5 1.5t2.5 4t2.5 4t4.5 1.5h0.5h0.5l9 -10h4q1 0 2.5 1.5t2.5 3.5l2 4t1 3q0 5 -0.5 6.5t-2 3l-3.5 3.5t-4 5q-4 5 -4.5 11.5t-0.5 11.5q3 0 4 -3t2.5 -7t3 -7t5.5 -3v34q0 1 -1.5 1.5t-2.5 0.5h-2q-1 -1 -2 -2.5t-2.5 -2.5t-3 -2.5l-1.5 -1.5q-2 -2 -3.5 -4.5
t-3.5 -3.5h-9q-1 0 -1.5 -0.5l-0.5 -0.5v-25q0 -4 -2 -5.5t-4.5 -2t-5 -1.5t-2.5 -3zM71 134q1 0 3 -0.5t3 1.5v6q0 7 -2.5 8.5t-10.5 1.5v-6t0.5 -5.5t2 -4t4.5 -1.5zM66 62q0 -4 1 -4.5t4 -0.5q5 0 5.5 1t0.5 5t-1.5 5.5t-6.5 1.5q-1 0 -2 -1t-1 -2v-3v-2z" />
</svg>
