<?xml version="1.0" standalone="no"?>
<!DOCTYPE svg PUBLIC "-//W3C//DTD SVG 1.1//EN" "http://www.w3.org/Graphics/SVG/1.1/DTD/svg11.dtd" >
<svg xmlns="http://www.w3.org/2000/svg" xmlns:xlink="http://www.w3.org/1999/xlink" version="1.1" viewBox="-10 0 266 256">
   <path fill="currentColor"
d="M154 154v94q5 0 7 -0.5t2 -5.5q0 -22 -1 -43.5t-1 -44.5q-1 -2 -1.5 -3.5t-0.5 -4.5q0 -2 0.5 -3.5t3.5 -2.5q3 0 8 -1t10 -3t8.5 -5.5t3.5 -8.5v-28h-3.5t-3.5 2q0 7 -0.5 13t-2.5 11t-6.5 7.5t-12.5 2.5h-3t-2 -2v-1q0 -3 0.5 -9t1 -12.5t0.5 -12.5v-9q4 -1 9.5 -1.5
t7.5 -1.5t3 -2t1 -3h-22.5t-23.5 2v1q0 4 2.5 4h5.5t5.5 0.5t2.5 3.5v38q0 2 -2 3t-3 1q-5 0 -7 -3t-3 -6.5t-1.5 -8t-1.5 -8.5t-3 -6.5t-7 -2.5q0 4 1 9.5t2.5 11.5t4 11t6.5 7q0 1 2.5 2t5 1.5t4.5 1.5t2 2zM112 243q0 2 1.5 2.5t3.5 0.5q3 0 4.5 -1.5t3 -4.5t2 -5.5
t1.5 -4.5q4 -19 6 -38t2 -38q0 -3 -1.5 -6.5t-4.5 -3.5q-1 0 -2 0.5t-1 1.5q0 23 -1.5 45.5t-10.5 43.5v1t-0.5 2l-1 2t-1.5 1v2zM73 239q0 2 0.5 3.5t3.5 1.5q2 0 4.5 -3.5t2.5 -5.5v-112h26q1 0 1 -2v-2v-2t-1 -1h-26v-20q10 -1 15 -6t7 -12t2 -16v-17q0 -2 -0.5 -4.5
t-3.5 -2.5l-2.5 0.5t-2.5 1.5v41q0 2 -2 3t-4.5 2t-4.5 1.5t-3 0.5l-1 -1l-0.5 -1t-0.5 -2v0q0 -14 0.5 -27t0.5 -26v-15q0 -7 -6 -7q-1 0 -2 0.5t-1 1.5v11v17v16v11q0 1 -0.5 3t-0.5 4.5t-0.5 4.5t-0.5 3q0 2 -1 2h-2q-3 0 -5 -2.5t-3 -6t-1 -6.5v-5q0 -1 -0.5 -4t-0.5 -6
q0 -4 0.5 -7t0.5 -4q-1 -3 -2 -4t-4 -1t-3.5 1.5t-0.5 4.5q0 8 1 17.5t2 17.5q1 6 4.5 9t7 4.5t6.5 2.5t3 3v19l-2 0.5t-3 0.5h-4h-6h-6h-4t-2 1.5l-1 1.5v1v1l0.5 1.5l0.5 1.5h6q5 0 9 -1t8 -1q1 0 2 0.5t2 1.5v8v12.5v12.5v8q0 18 -1 36.5t-1 36.5zM182 166q0 16 2 31
t5 31q1 2 1 4.5t1 5t2.5 4.5t4.5 2t3.5 -1t0.5 -3q0 -6 -2.5 -11t-3.5 -11q-2 -9 -3.5 -17.5t-2 -17l-1 -17t-0.5 -18.5q0 -1 -1 -1.5t-2 -0.5t-2.5 0.5t-1.5 1.5v3.5v5.5v5v4zM112 84v5q4 0 8.5 -4t9 -10.5t8.5 -14t8 -13.5t7.5 -10.5t5.5 -4.5h1h1q3 3 6 7.5t7 10l8 11
t7.5 10t6.5 7.5t6 3q2 0 3.5 -0.5t1.5 -2.5q0 -1 -0.5 -2.5t-1.5 -2.5l-2 -2t-4 -4.5t-4 -4t-2 -2.5q-1 0 -1.5 -1.5t-1.5 -3.5l-1.5 -3t-0.5 -2l-1.5 -1.5l-1.5 -1.5q-2 -2 -5.5 -6.5t-6.5 -9t-5.5 -8.5t-3.5 -4t-3 -0.5t-3 -0.5t-4.5 4t-7.5 10t-9 14t-9.5 15.5t-8.5 13.5
t-7 9z" />
</svg>
