<?xml version="1.0" standalone="no"?>
<!DOCTYPE svg PUBLIC "-//W3C//DTD SVG 1.1//EN" "http://www.w3.org/Graphics/SVG/1.1/DTD/svg11.dtd" >
<svg xmlns="http://www.w3.org/2000/svg" xmlns:xlink="http://www.w3.org/1999/xlink" version="1.1" viewBox="-10 0 266 256">
   <path fill="currentColor"
d="M78 199q0 2 1 7t2 10.5t3 11.5t4 11t4.5 8t5.5 3t5 -1t2 -4v-2q-8 -11 -12.5 -25.5t-4.5 -28.5q0 -8 2 -15t5 -13.5t5 -13.5t2 -14q0 -6 -3 -10.5t-6.5 -8.5t-6.5 -8t-3 -10v-7t1.5 -6.5t4 -4t7.5 -1.5q4 0 5 4.5t1 10t0.5 10t4.5 4.5q3 0 4 -2.5t1 -4.5q0 -5 -2 -8.5
t-2 -8.5v-48q0 -3 -1 -3h-3t-3.5 3t-2 7t0 8.5t0.5 7.5v3.5v2.5l1 2t0 2q0 2 -2 2h-3q-6 0 -7.5 -2.5t-1.5 -8.5q0 -2 1 -3.5t1 -3.5v0v-1q-2 -8 -3 -14.5t-2 -14.5q0 -2 -1.5 -5t-4.5 -3q-2 0 -3 1t-1.5 2.5t-0.5 3v3.5q0 6 1 11.5t4 10.5v29l-2 1q-1 0 -3 0.5t-4.5 0.5
t-5 0.5t-3.5 0.5l-2 0.5l-4 1t-4 2t-3 2.5q0 1 1 2l1 1q1 1 4 1h3q4 0 8 -1t8 -1q3 0 3.5 2t0.5 4v4l-1 1.5t-1.5 3t-1.5 3l-1 1.5q0 1 -1 4l-2 6t-2 5.5t-1 3.5q-3 2 -3.5 3l-1 2t-1 2.5t-0.5 3.5q-1 4 -4 6.5t-5.5 5t-4.5 5t-2 5.5q0 2 1.5 2.5t2.5 0.5q3 0 6 -2.5t5 -5
t4 -5.5t3 -5t2.5 -5.5t3.5 -7.5t4 -7.5t3 -5.5l3 -3h1q1 0 3.5 3t4 6.5l3 7t1.5 5.5q0 5 -2 10.5l-4 11t-4 10.5t-3 10q-1 7 -1.5 12t-0.5 11zM129 182q0 10 0.5 21t1.5 21q0 5 2.5 8t6 4.5t8 2t8.5 1.5h8q5 0 11 -0.5t11 -2.5t9.5 -5.5t6.5 -9.5v-20v-21v-5q0 -4 -0.5 -8
t-2 -7t-3.5 -3q-3 0 -4 1.5t-1.5 3.5t-1 4.5t-0.5 3.5q-1 2 -4.5 2h-5.5h-5t-4 -1t-2.5 -2.5t-0.5 -5.5q0 -8 2.5 -11.5t6.5 -5.5t9 -2t9 -1t7 -2.5t3 -5.5v-29q0 -1 -3 -1h-2q-3 0 -5 1t-2 3q0 4 1 7t1 7q0 5 -1 8.5t-3.5 5t-6.5 2t-9 0.5q-1 0 -3 -0.5l-2 -0.5l-2 -1v-2.5
t-0.5 -6t-0.5 -7v-5.5v-3q0 -4 3 -5.5t6.5 -3t7 -4.5t3.5 -10v-3.5v-5.5v-6v-4q1 -4 5 -4.5t9 -0.5t8.5 -1t2.5 -5l-1 -1.5t-2 -1.5v0h-1h-7t-8 0.5t-6.5 0.5h-2.5l-2 2q-16 -1 -31.5 1t-31.5 2q-2 1 -2 2v2v2.5t2 1.5h20q1 2 1.5 5t1 6.5t1 6.5t0.5 5t1.5 4t3 3.5t3.5 2.5
t5 2q0 1 1 2t1 2q1 2 1.5 5t0.5 6v6v5v4v4l-2 1q0 1 -2 1h-2q-7 0 -11.5 -2.5t-7 -6.5t-3 -9.5t-0.5 -12.5l-2 -2t-2 -1v0h-1v0v0q-1 0 -2 1t-1 2t-0.5 4.5t-0.5 4.5q0 7 2 13.5t8 11.5q3 2 7.5 2.5t9 0.5h7.5t3 1v24q0 1 -1 1.5t-2 0.5h-1v0q-1 0 -3 -0.5t-4 -0.5
t-3.5 -0.5t-2.5 -0.5q-2 0 -2.5 -2t-1 -3.5t-1 -2.5t-2.5 -1q-3 0 -4 1t-2 4v2v4v3v3zM140 215v-2.5v-1.5l3 -2l4.5 -0.5t10.5 -0.5t12 -0.5t10 -1.5h5h6q1 2 1.5 3.5t0.5 3.5q0 8 -3 12t-8 5.5t-12 1.5h-12h-8q-7 -4 -8.5 -7.5t-1.5 -9.5zM137 194q0 -7 3.5 -9.5t8.5 -3.5
t11 -0.5t10 0.5h9h9q2 2 2.5 4.5t0.5 5.5v6l-0.5 0.5t-1.5 0.5q-4 1 -9 2t-10 1t-10 0.5t-8 0.5q-2 0 -5 -0.5t-5 -1t-3.5 -2t-1.5 -4.5zM148 77q0 -4 2 -6t5 -2.5t6.5 0t6.5 0.5h5h4l1 3v24q0 2 -2 3t-5 1.5t-6 0.5h-4q-6 0 -8.5 -2t-3.5 -6t-1 -8v-8zM129 38q0 4 2 5t5 1
h2t2 -1q3 0 10 -0.5t15 -1t15 -0.5t9 -1q3 0 6.5 -1.5t3.5 -5.5q0 -1 -0.5 -2.5t-1.5 -1.5h-1q-1 0 -3 0.5l-4 1t-3.5 1t-2.5 0.5q-13 2 -27 2.5t-27 0.5v2v1z" />
</svg>
