<?xml version="1.0" standalone="no"?>
<!DOCTYPE svg PUBLIC "-//W3C//DTD SVG 1.1//EN" "http://www.w3.org/Graphics/SVG/1.1/DTD/svg11.dtd" >
<svg xmlns="http://www.w3.org/2000/svg" xmlns:xlink="http://www.w3.org/1999/xlink" version="1.1" viewBox="-10 0 266 256">
   <path fill="currentColor"
d="M72 247q2 1 4.5 2t5.5 1q2 0 3.5 -1.5t1.5 -3.5q0 -7 -1.5 -14l-3 -14t-2.5 -14t-1 -14q0 -13 4.5 -26.5t13.5 -22.5v-9q0 -7 -2.5 -12.5t-6 -10l-7 -9t-5.5 -11.5v-3v-4.5t0.5 -5t0.5 -3.5q0 -2 0.5 -4t1.5 -4t2.5 -3.5t4.5 -1.5h0.5h0.5q1 0 2.5 1t2.5 1l0.5 0.5
l0.5 0.5l4 25q0 5 5 5q2 0 4 -1.5t2 -4.5q0 -9 -2 -17.5t-2 -17.5v-4v-4.5v-5.5v-3q2 -2 2 -4v-5v-4q-1 -1 -3 -1.5t-3 -0.5q-3 0 -4 0.5t-1 3.5q-1 1 -1 4.5t-0.5 7t-1 6.5t-0.5 5q-2 2 -5 3.5t-5 1.5q-1 0 -2 -0.5t-1 -1.5v-33l-2 -5h-1.5h-2.5h-3h-3l-0.5 0.5t-0.5 1.5
t-0.5 3.5t-0.5 5.5t-0.5 5.5t-0.5 3.5t0.5 2.5t0.5 3t0.5 3.5t0.5 3v2t-0.5 4.5l-1 5l-0.5 2.5q-1 1 -2 1.5l-1 0.5q-1 0 -3 0.5t-4.5 1t-4.5 1t-3 0.5q-1 1 -2 2.5t-1 3.5q0 3 2 3.5t4 0.5q3 0 6 -1t6 -1q1 0 2 0.5t1 3.5t-1.5 9.5t-3.5 13.5t-3.5 13.5t-2.5 9.5l-3 3t-4 5
t-4 5.5l-2 2.5q-1 1 -1.5 2t-0.5 2v0q0 5 4 5q5 0 8 -2.5t5 -6.5t3.5 -8.5t3 -8.5t3.5 -6.5t5 -2.5t5.5 3t4.5 6.5t3 7.5t1 7t-2 6.5t-4 7.5t-4.5 7.5t-3.5 7.5q-2 10 -3 21t-1 22v4v5v3.5v2.5t1 4.5t2 8t2 8t1 5.5zM104 233v1q1 0 3 1t2 2h10q24 0 46.5 -1t47.5 -1
q2 0 3.5 -1.5t1.5 -3.5v-1.5t-1 -1.5q-2 -1 -4 -2.5l-2 -1.5h-40q-2 0 -2 -2.5v-2.5q0 -6 3.5 -8.5t8.5 -3t10 0t9 0.5l3 -3t2 -3t-0.5 -2t-1.5 -2l-0.5 -1l-0.5 -1h-33v-13l2 -1q2 0 5.5 -0.5t8 -0.5t8.5 -0.5t6 -0.5q1 0 4.5 -1.5t3.5 -4.5q0 -2 -2.5 -3t-4.5 -1
q-10 0 -19.5 0.5l-19 1t-19 0.5h-20.5q-2 -2 -4 -1t-3 3t-1.5 4.5t-0.5 3.5h40q4 0 4.5 3t0.5 5t-0.5 5.5t-2.5 4.5l-1 -0.5t-2 -0.5t-2 -0.5t-2 -0.5h-8h-5.5h-6.5t-5 1.5t-2 4.5q0 2 2.5 4t3.5 2h28q3 0 3 2.5v3.5q0 4 -1.5 7t-6.5 3h-34q-3 0 -7.5 2t-4.5 6zM119 160
q1 0 2 0.5l1 0.5h1q3 0 4.5 -1.5t2 -4l1 -5t1.5 -4.5q1 0 2.5 -1.5t4 -3t4 -3l2.5 -2.5h2h1q7 3 8.5 7t2 7.5t1 6.5t3.5 4q1 1 3 1h2v-14q0 -1 2.5 -2.5t5.5 -3t5.5 -2.5l2.5 -1l1 0.5l1 0.5l1.5 0.5t4 1.5t4.5 2.5t3 1.5q1 1 1.5 3t0.5 4.5t1 4.5t4 2t5 -3t2 -6v-9
q0 -8 -0.5 -17t-1 -18.5t-2 -18t-4.5 -14t-6 -5.5h-25l-1 -0.5l-2 -1t-1.5 -1l-0.5 -0.5l-1 -25q0 -2 2 -3.5t4 -1.5t3 4t3.5 8.5t7.5 8.5t16 4h5h4q1 -1 1.5 -3l0.5 -2q0 -2 -1.5 -3.5t-2.5 -1.5h-5t-8 -0.5t-6.5 -2.5t-2.5 -6q0 -3 2.5 -4t4.5 -1q5 0 9 2t8 2q7 0 7 -6v-1
v-1q-5 -4 -10.5 -6t-12.5 -2.5t-13 -0.5h-11q0 -1 -0.5 -3.5t-1.5 -4.5t-2.5 -3.5t-3.5 -1.5q-1 0 -3 0.5t-2 1.5v13l-2 1h-24q-3 0 -6 1t-6 1.5t-6 2t-5 4.5l2 2h16l1.5 1.5t1.5 3.5v0q0 4 -3.5 6.5t-7 4l-7 3t-3.5 5.5q0 3 1.5 3.5t3.5 0.5q3 0 7 -1.5t8 -3.5t7 -4t5 -5
q2 -2 2.5 -5t1.5 -5.5t2.5 -4t6.5 -1.5h1.5t1.5 1v27q0 3 -3 4.5t-7.5 2.5t-10 1.5t-10 2t-7.5 4.5t-3 9v17.5t0.5 17t0.5 17.5v20zM169 128h2q1 0 3 0.5t2 1.5q0 3 -2 6t-5 3v-11zM129 129v-4t2 -2t3 1.5t1 3.5t-1 4.5t-3 2.5t-2 -2.5v-3.5zM195 129q0 -1 0.5 -2.5
t2.5 -1.5h0.5h0.5l0.5 0.5t0.5 1.5v0q0 4 -3 6q-1 -1 -1.5 -2t-0.5 -2zM155 123h2q0 1 -0.5 3t-1.5 2v-5zM176 117q0 -2 0.5 -4.5t1.5 -4.5t3 -3.5t4 -1.5h1l4 4t2 4t-1 4t-2.5 4t-4 3t-4.5 1t-3 -2t-1 -4zM140 115q0 -2 2 -5.5t4 -3.5l0.5 0.5l0.5 0.5l5 4v0.5v0.5
q0 3 -2.5 5.5t-5.5 2.5q-2 0 -3 -1.5t-1 -3.5zM132 92q2 0 4 2t2 4q0 1 -1 2.5l-2 3l-2 3l-1 1.5q0 1 -1 1.5t-2 0.5v-17q0 -1 1.5 -1h1.5zM152 98q0 -3 2 -5.5t4 -4.5q1 4 1.5 8t0.5 9q-3 0 -5.5 -2.5t-2.5 -4.5zM174 90v0q1 1 2 3l1 2l0.5 0.5l0.5 0.5q0 4 -3.5 6.5
t-6.5 2.5v-13l2 -1t3 -1h1zM190 94q0 -2 1.5 -4t3.5 -2q3 0 3.5 2t0.5 4q0 3 -0.5 4.5t-3.5 1.5q-2 0 -3.5 -1.5t-1.5 -4.5zM174 77h13l1 0.5t1 1.5v0q0 3 -1.5 6t-3.5 5h-1q-2 0 -3.5 -1.5t-3 -3.5t-2 -4t-0.5 -4zM135 84q0 -2 1 -3t3 -1.5t4 -0.5h3q2 0 2 3t-1 5t-4 2
q-2 0 -5 -1t-3 -4z" />
</svg>
