<?xml version="1.0" standalone="no"?>
<!DOCTYPE svg PUBLIC "-//W3C//DTD SVG 1.1//EN" "http://www.w3.org/Graphics/SVG/1.1/DTD/svg11.dtd" >
<svg xmlns="http://www.w3.org/2000/svg" xmlns:xlink="http://www.w3.org/1999/xlink" version="1.1" viewBox="-10 0 266 256">
   <path fill="currentColor"
d="M193 165q3 21 5 42t2 42h4.5t2.5 -4v-1q0 -5 -1 -16t-2 -23t-2 -23t-1 -15q-2 -6 -4 -11t-8 -8q-1 0 -3.5 -1t-5.5 -2t-5.5 -2t-3.5 -2l-3 -1.5t-1 -2.5t1 -4.5t3 -2.5l18 -3q2 -1 4 -3t3.5 -4t2 -4.5t0.5 -4.5q0 -6 -3 -9t-7.5 -4.5t-9.5 -2t-10 -0.5v-4v-4q0 -8 1 -11
t3 -5t4 -3.5t4 -6.5q0 -1 1 -4l2 -6l2 -6t1 -4q1 0 2 -1t2 -1t3.5 -0.5t5.5 -0.5h5.5h3.5v-3v-2t-2 -2h-18q-2 0 -1.5 -3t0.5 -6t-0.5 -6t-3.5 -3q-4 0 -4.5 3t-0.5 7q0 3 -0.5 6.5t-2.5 3.5h-28v-17l-1 -0.5l-3 -1.5h-1h-1v17q-1 0 -4 0.5l-6 1t-5.5 1t-3.5 0.5
q-1 1 -2 1.5l-1 0.5v1q0 3 2 3.5t4 0.5q3 0 5.5 -1t5.5 -1t4.5 2.5t2.5 6t2 7.5t2.5 7.5t4.5 5.5t8 2v25l-2 1q-5 0 -10 1t-9 3t-6.5 5.5t-2.5 10.5q0 5 3 8t7.5 4.5t9.5 2t8 0.5q3 2 3.5 3t0.5 3v2.5t-2 1.5q-5 2 -10 3.5t-8.5 4t-6.5 6t-5 8.5q0 1 -0.5 4t-1.5 7t-2 7
t-1 4l-0.5 2.5l-0.5 2.5q0 1 -0.5 4.5t-0.5 8t-0.5 8t-0.5 4.5q-1 6 -3 12.5t-2 11.5q0 3 1 5.5t3 2.5h1l1.5 -0.5t1.5 -1.5q1 -4 1.5 -12.5t1.5 -19t2.5 -22t4 -20.5t7 -15t11.5 -6q2 0 4.5 0.5t2.5 4.5v16h-15v4q1 0 5 0.5t5 0.5q1 1 2 2.5l1 1.5v20l-18 3q0 1 -0.5 1.5
l-0.5 0.5v1q0 1 1.5 1.5t3.5 1t4 0l2 -0.5h8h8t8 -0.5t9 -0.5q2 -1 3.5 -2t1.5 -4h-18l-4 -4v-21h16v-6h-14l-0.5 -1t-1.5 -2v-7v-5t2 -5h4q9 0 12.5 4t7.5 11zM45 165q0 3 2 4t5 1l1.5 -0.5t2.5 -0.5t2.5 -0.5l1.5 -0.5h8.5t13 -0.5t13 -0.5h8.5q0 -1 0.5 -1.5t1.5 -0.5v-1
v-1q-1 0 -2 -1.5t-2 -1.5h-21q-3 0 -3 -1.5v-3.5v-2v-7.5t0.5 -11.5t0.5 -11.5v-7.5q0 -1 1 -3t1 -2.5t0.5 -1.5l0.5 -1h19l0.5 -1l0.5 -1q1 0 1 -1v0q0 -1 -1 -1q0 -1 -1 -1.5t-2 -0.5h-3.5t-5 -0.5t-5 -0.5h-3.5q-2 -2 -2.5 -5t-0.5 -5q0 -8 1.5 -18t1.5 -18q1 -4 5 -5.5
t8 -1.5h7.5t3.5 -3v-1l-1.5 -1.5l-0.5 -0.5h-9h-9q-2 0 -7 0.5t-10 0.5t-9.5 0.5t-6.5 0.5t-2 1v2q0 2 0.5 3t2.5 1h19l1 1v3.5v3.5q0 11 -1.5 21t-1.5 21h-3.5t-5 0.5t-5 0.5h-3.5q-2 1 -3.5 2t-1.5 3q0 3 1.5 3.5t3.5 0.5q5 0 8.5 -1t7.5 -1v8t0.5 11t0.5 11.5v8.5
q0 1 -0.5 3.5t-0.5 5t-0.5 4l-0.5 1.5h-21q-2 0 -2 1.5v2.5zM139 111q0 -3 2 -4.5t4 -2t4.5 -1t4.5 -0.5h7q0 1 0.5 3t0.5 4.5t0.5 4.5t0.5 3v3h-20q-1 0 -2 -1t-1 -3t-0.5 -3.5t-0.5 -2.5zM172 101q4 0 7 0.5t5 1.5t3.5 3t1.5 5q0 5 -2 6.5t-4.5 2t-6.5 0.5q-3 0 -7 1v-3
v-4v-3v-4t1 -4t2 -2zM120 89v0q0 1 0.5 1.5l0.5 0.5h1q2 0 5.5 -2t7 -4.5t6 -6t2.5 -5.5h-5l-2 1.5t-4.5 3.5t-5.5 4.5t-5 3.5l-1 2v1zM189 74v1l0.5 0.5t1.5 0.5l5 5t5.5 5l2.5 2h7q0 -3 -1.5 -6.5t-4.5 -5.5t-6 -3.5t-6 -1.5q-2 0 -3 0.5t-1 2.5zM150 48q0 -1 0.5 -3
l0.5 -2l2 -2h25q1 0 1 2v3q0 8 -5 11.5t-11 3.5t-9.5 -3.5t-3.5 -9.5z" />
</svg>
