<?xml version="1.0" standalone="no"?>
<!DOCTYPE svg PUBLIC "-//W3C//DTD SVG 1.1//EN" "http://www.w3.org/Graphics/SVG/1.1/DTD/svg11.dtd" >
<svg xmlns="http://www.w3.org/2000/svg" xmlns:xlink="http://www.w3.org/1999/xlink" version="1.1" viewBox="-10 0 266 256">
   <path fill="currentColor"
d="M125 245q1 2 3.5 4t5.5 2q2 0 2 -1q0 -7 0.5 -14.5l1 -15t2.5 -15t5 -14.5q2 -4 6 -8t8 -8.5t6.5 -9t2.5 -10.5t-4.5 -9t-10.5 -5l-10.5 -3.5t-4.5 -5.5v0v-1q2 -2 4.5 -4t2.5 -5v-3t-1 -2h-4.5t-7 -0.5t-6.5 -0.5h-4h-2.5t-4 0.5t-4.5 0.5h-2h-5h-6.5t-6 1t-3.5 4l0.5 1
t1.5 1t2.5 0.5t3.5 0.5h3h2q7 0 12.5 -1t11.5 -1q2 0 3 0.5t1 2.5v3t-1 2q-2 1 -4.5 4t-5.5 6l-5.5 5.5l-3.5 3.5q-3 3 -5.5 6t-5 7t-4 8t-1.5 8q0 5 6 8t13.5 6t13.5 5t6 4v1l-0.5 2l-1 4t-1 3.5l-0.5 1.5q0 2 -1 6.5t-1.5 9.5t-1 9.5t-0.5 5.5zM103 173q0 -4 2 -8t6 -4
q3 0 8.5 2t11 5t9.5 6.5t4 5.5t-1.5 4t-3 3.5t-3.5 3t-2 2.5h-1q-3 0 -8 -2t-10 -5t-8.5 -6.5t-3.5 -6.5zM119 150q0 -4 3.5 -5.5t6.5 -1.5t8 0.5t10 2.5t8 4.5t3 6.5q0 5 -1.5 8t-5.5 6l-0.5 0.5l-0.5 0.5v-0.5v-0.5q-3 0 -8 -3l-10 -6t-9 -6.5t-4 -5.5zM61 114
q0 2 1.5 2.5t3.5 0.5h2t2 -1q6 -8 11 -17.5t12 -16.5v0q2 0 4.5 4t6.5 9t8.5 9.5t9.5 4.5v-6q-12 -10 -17.5 -18t-7.5 -16t-2 -18t-1 -25q0 -4 -1 -5.5t-5 -1.5q-2 0 -3 1t-2 3v1q0 11 2 21.5t2 21.5q0 7 -2 13t-5.5 11t-8 9.5l-9.5 9.5l-0.5 1t-0.5 2v1zM164 59q0 5 -3.5 7
t-7.5 3t-7.5 3.5t-3.5 7.5v24q0 1 1.5 2l1.5 1h0.5h0.5v0q1 0 1.5 -1t0.5 -2v-3.5v-5.5v-5.5v-3.5q0 -2 1 -4.5t3 -5t4 -3.5t5 -1q2 0 2.5 0.5t0.5 3.5v28q0 3 1.5 3h2.5q3 0 4 -0.5t1 -3.5v-27q0 -1 2 -2l2 -1h1q6 0 8.5 3.5t3.5 8t0.5 10t-0.5 9.5q1 2 2 2.5t3 0.5t3 -1.5
t1 -3.5q0 -4 -0.5 -8t-1 -8.5t-2 -8.5t-4.5 -7q-1 -2 -4.5 -3t-7 -1.5t-6 -2t-2.5 -4.5t2.5 -4.5t6 -2t6.5 -0.5h4q3 -2 4.5 -5.5t2.5 -8t1.5 -9t0.5 -6.5q0 -3 -1 -3.5t-3 -0.5q-3 0 -4.5 2.5t-2.5 6.5t-1 7.5v4.5q-2 4 -4.5 5t-6.5 1h-2h-1l-3 -3v-28l-2 -2h-13h-7h-8
t-8 0.5t-7 1.5q-1 0 -1.5 1t-0.5 2v0v0q0 3 2 3.5t4 0.5q5 0 10.5 -1t10.5 -1h5h4q2 1 3 2.5t1 2.5v21l-1.5 0.5t-2.5 0.5h-4q-5 0 -7 -2.5t-3 -6t-2.5 -6.5t-6.5 -3v6.5t1 5l2 5t2 6.5q2 1 4.5 1h5.5h5.5h4.5q3 1 3 2.5v3.5zM59 80q0 4 0.5 5t3.5 1t5 -3t2 -6v-38
q0 -2 -2 -2.5t-3 -0.5q-4 0 -5 2.5t-1 6.5t1 7.5t1 8.5v4v4l-0.5 2t-0.5 3.5t-0.5 3.5zM113 77q0 2 1.5 3.5t3.5 1.5l1 -1t2 -1q0 -6 0.5 -9.5t0.5 -7.5v-4v-4t-0.5 -6.5t-0.5 -6v-3.5q-1 -2 -2.5 -2.5t-3.5 -0.5q-1 0 -2.5 0.5t-0.5 2.5q2 19 1 38z" />
</svg>
