<?xml version="1.0" standalone="no"?>
<!DOCTYPE svg PUBLIC "-//W3C//DTD SVG 1.1//EN" "http://www.w3.org/Graphics/SVG/1.1/DTD/svg11.dtd" >
<svg xmlns="http://www.w3.org/2000/svg" xmlns:xlink="http://www.w3.org/1999/xlink" version="1.1" viewBox="-10 0 266 256">
   <path fill="currentColor"
d="M119 247q0 3 1 5t5 2q1 0 2.5 -2.5t2.5 -3.5v-5.5t0.5 -8t0.5 -8v-5.5q0 -1 0.5 -3t1.5 -4t1.5 -4t1.5 -2q1 -2 3 -3.5t4 -2.5t3.5 -2t2.5 -3l30 -3q3 0 5 -4.5t3.5 -10t2.5 -10.5t1 -7v-18v-18l-0.5 -2.5t-0.5 -5.5t-0.5 -5.5l-0.5 -2.5q0 -10 -1 -17t-4 -11.5t-9 -7
t-17 -3.5h-5.5h-7.5h-8.5h-5.5l-3 -1v-1q0 -3 2 -6.5t4.5 -7t5.5 -6.5l5 -5q11 -2 23 -2.5t24 0.5l2 -2t1 -2v0v0v-1v0q0 -1 -1 -2t-2 -1h-40l-1 -1q-1 -1 1 -4.5t3 -4.5q2 -3 4 -4.5t2 -4.5q0 -2 -1 -4t-4 -2q-2 0 -4.5 3.5t-5 8.5l-5.5 11t-6 11t-6.5 8.5t-6.5 3.5
t-5.5 -3.5t-4.5 -8.5t-4.5 -11t-5 -11l-4.5 -9t-4 -5q-1 0 -2.5 2t-1.5 3q0 3 1 6t2 6.5t2.5 7t1.5 7.5h-4.5h-5.5q-4 0 -7 -0.5t-4 -0.5l-2.5 0.5t-5 0.5t-5 0.5t-3.5 0.5l-1.5 1.5t-0.5 1.5q0 2 1.5 3t3.5 1h41q1 0 3 3t3.5 7t3 7l1.5 3l-4.5 2.5t-11 6t-14 8t-14.5 8.5
t-11 7t-4 4q0 3 1 3.5t3 0.5q5 0 8.5 -3.5t7.5 -5.5q2 -1 5 -3t7 -4.5t7.5 -4.5t4.5 -3q6 0 11.5 -2.5t11.5 -2.5q10 0 19 0.5t19 1.5q9 1 13 4t5 8t0.5 12t0.5 15l0.5 3.5t1 6.5t1 6.5l0.5 3.5v2t0.5 2.5t0.5 3.5v2q0 2 -0.5 5.5t-0.5 4.5l-0.5 1.5t-1 3.5t-1 3.5l-0.5 1.5
q-1 7 -2 11t-2.5 5.5t-5.5 2t-11 0.5q0 -15 -2 -29.5t-2 -30.5v-9v-9t0.5 -8.5t0.5 -11.5l-1 -1t-1 -2h-1q-2 0 -3 2t-1.5 4.5t-1.5 5t-2 3.5q-4 1 -8 1.5t-8 0.5t-4.5 -3t-0.5 -6.5t-0.5 -6.5t-4.5 -3q-1 0 -2 1t-1.5 2.5t-0.5 3.5v3q0 5 0.5 9.5t0.5 9.5t-1.5 7.5t-5 3.5
t-7 1h-7.5h-3h-2q-1 0 -1.5 -1t-0.5 -2v-3.5t-0.5 -5.5t-0.5 -5.5v-3.5l-3 -3q-4 3 -5 8q1 19 -1 39t-2 39q0 2 1 4t3 2t3.5 -1t1.5 -3l3 -27q1 -3 4 -3.5t5 -2.5h18v32v1t0.5 2.5t1.5 2.5t2 1t2 -1t1.5 -2t1.5 -2.5l1 -1.5v-32h23l3 24q0 1 2 3.5t2 4.5v0v1q-12 2 -19 7.5
t-11 12.5t-5 16.5t-1 20.5zM90 133h23q1 0 2 1.5t1 3v3.5v2q0 2 -0.5 5t-2.5 3h-23v-18zM125 150v-18h21v18h-21zM124 116q0 -3 1.5 -4.5t4 -2t5 0t4.5 0.5h7q1 0 1.5 1t0.5 2q0 8 -3 10t-10 2h-3h-4q-4 -4 -4 -9z" />
</svg>
