<?xml version="1.0" standalone="no"?>
<!DOCTYPE svg PUBLIC "-//W3C//DTD SVG 1.1//EN" "http://www.w3.org/Graphics/SVG/1.1/DTD/svg11.dtd" >
<svg xmlns="http://www.w3.org/2000/svg" xmlns:xlink="http://www.w3.org/1999/xlink" version="1.1" viewBox="-10 0 266 256">
   <path fill="currentColor"
d="M86 216q0 8 4 14t10 10t13.5 6t15.5 2q7 0 15.5 -1.5t15 -5.5t10.5 -10t4 -16q0 -19 -10.5 -27.5t-28.5 -8.5q-10 0 -19 1.5t-15.5 6t-10.5 11.5t-4 18zM101 223q0 -4 2 -5.5t5 -2t6 -0.5h5h2q2 0 2 2v7v4t-0.5 4t-1.5 3.5t-4 1.5q-2 0 -5 -1.5t-5.5 -3.5t-4 -4.5
t-1.5 -4.5zM134 235v-5q0 -8 1.5 -11.5t5 -5t8.5 -2t13 -0.5q0 5 -1 9.5t-3.5 8.5t-6 6t-9.5 2h-4t-4 -2zM117 191h3q3 0 3 1v13q0 1 -0.5 1.5t-1.5 0.5q-5 2 -11 2h-11q0 -7 5.5 -12.5t12.5 -5.5zM141 189q3 0 6 0.5t6 1.5t5 3.5t2 6.5l-0.5 1t-0.5 2h-3t-4 0.5t-4.5 0.5
h-3.5h-2h-4.5t-3.5 -1v-13q0 -2 3 -2h4zM52 161q0 2 1 2.5t2 0.5q29 0 58 -2.5t58 -3.5h5t6.5 -0.5l7 -1t4.5 -0.5h2t2.5 -0.5t2.5 -1.5t1 -2v-1l-1.5 -0.5l-1.5 -0.5h-59v-20l4 -2.5t9 -6l10 -7t6 -7.5q0 -1 1.5 -3.5t2.5 -5.5t2 -5.5t1 -3.5t0.5 -3.5l0.5 -2.5v-35h-3
q-1 17 -6 33.5t-15 30.5q-1 0 -4.5 0.5t-4.5 1.5v0h-1l-2 -2v-15v-23v-22.5v-15.5v-4t-0.5 -7t-0.5 -7v-5q-1 -1 -2 -1h-2q-2 0 -3 1t0 4q-1 3 -1 10t-0.5 16.5t-1 19.5t-1 19t-1 16t-0.5 11v2.5v3t-1 3t-3 1.5t-5.5 -2.5t-6.5 -5.5t-5 -6.5t-2 -5.5l-5 -46q-1 -2 -2 -4.5
t-3 -3.5l-2 1v7v16.5t0.5 17.5t2 17.5t5.5 15.5q1 1 5 2t8.5 2.5t8 2.5t3.5 3v20l-0.5 0.5t-1.5 0.5q-5 3 -10.5 2.5t-12.5 -0.5q-2 0 -8.5 0.5t-13.5 1t-13.5 1t-8.5 0.5q-2 1 -3.5 2t-1.5 3z" />
</svg>
