<?xml version="1.0" standalone="no"?>
<!DOCTYPE svg PUBLIC "-//W3C//DTD SVG 1.1//EN" "http://www.w3.org/Graphics/SVG/1.1/DTD/svg11.dtd" >
<svg xmlns="http://www.w3.org/2000/svg" xmlns:xlink="http://www.w3.org/1999/xlink" version="1.1" viewBox="-10 0 266 256">
   <path fill="currentColor"
d="M184 248l1 1l2 2v0h1l2 -2l1 -1v-49q0 -1 1.5 -1.5l1.5 -0.5q2 0 3 1.5l2 3t2.5 2.5t4.5 1t3.5 -1t0.5 -4q0 -5 -4 -9t-9 -7t-10.5 -5.5t-9.5 -3.5q-1 -1 -4 -2.5t-6 -2.5t-6.5 -2.5t-4.5 -2.5l-0.5 -1t-0.5 -2q0 -3 2 -8t5 -7q1 0 3.5 -0.5l5 -1l5 -1t3.5 -0.5
q5 -1 5.5 -5t0.5 -8q0 -6 -2 -10.5t-5.5 -7t-9 -3.5t-11.5 -1h-2q-1 0 -3 0.5l-4 1l-4 1t-3 0.5q-1 -2 -1.5 -3.5t-0.5 -3.5q0 -1 0.5 -2.5t3.5 -1.5h4t6.5 -0.5t7 -0.5h4.5h4q11 0 18 9q1 2 2.5 4.5l3 5t2.5 5l1 2.5l3 33q0 2 1.5 2h2.5q2 0 3 -0.5t2 -2.5v-4v-4
q0 -19 -6 -33t-20 -26l2.5 -5t3 -6.5t2.5 -6.5t1 -5v-27q0 -2 -1 -3t-2 -1q-2 0 -3 3.5t-1.5 7.5t0 7.5t0 5t-1 3.5t-1 5t-1.5 5t-1 3q-4 3 -4.5 5.5t-1 4.5t-4 4t-14.5 3q-21 2 -33 6t-18.5 11t-8.5 20t-2 35q4 0 5.5 -4t2 -10t1 -13.5t3 -14t8.5 -12t16 -7.5q3 1 4 2.5
t1 3.5q0 4 -2 5.5t-4.5 2.5l-5 2t-4.5 4l-4.5 7.5t-1.5 6.5q0 3 1.5 5t4 3.5t5 2t4.5 0.5q7 0 10 -2.5t3.5 -6t0.5 -8v-8t2 -6t7 -2.5q1 0 2.5 0.5t2.5 2.5v9q0 2 -0.5 8t-2 12.5t-4 11.5t-5.5 4l-23 -3q-3 0 -4.5 -2t-2.5 -4l-2 -4t-3 -2t-2 2v3q0 4 2.5 6t5 3.5l5 3
t2.5 4.5t-1 6.5t-2.5 7t-2.5 6.5t-1 5q-2 6 -2 14.5v14.5l-0.5 3t0 6t1 5.5t3.5 2.5q2 0 3 -0.5t2 -2.5v-32q0 -2 1 -8t2.5 -12.5t4 -11.5t5.5 -5q1 0 2 0.5t2 1.5v9q0 11 -1.5 22t-1.5 23v4v6v5v4q0 2 1.5 2h2.5h2t2 -2v-42q1 -3 1.5 -8l1 -10t2 -9t5.5 -4q2 0 3.5 1.5t2 4
t0.5 4.5v3q0 8 -1.5 16t-1.5 15v3q0 2 0.5 5.5t0.5 7.5t0.5 8t0.5 5t1 2t2 1h1q2 0 3.5 -1.5t1.5 -4.5l-0.5 -1.5t-0.5 -3t-0.5 -3l-0.5 -1.5v-3.5v-5.5v-2v-3v-3v-1q0 -1 0.5 -5.5t0.5 -9.5t0.5 -9t0.5 -5q0 -3 0.5 -4t3.5 -1t6.5 2t4.5 6v12.5v15.5t0.5 15.5t1.5 14.5z
M71 238q-1 3 1 3.5t3 0.5q4 0 6 -3t2 -7v-3.5t-1 -3.5v-11t-0.5 -16.5t-0.5 -16.5v-11q0 -37 2 -74t2 -74q0 -2 -2.5 -5.5t-4.5 -3.5q-1 0 -2.5 2t-1.5 3v39h-12q-3 0 -3 -3.5v-7.5t-0.5 -8t-4.5 -4q-3 0 -5.5 2t-2.5 6q0 5 2.5 10t2.5 11v2q0 1 -0.5 5.5t-1 10t-1 10
t-0.5 5.5v0v1q1 1 1.5 3t2.5 2v0q1 0 1 -1l1 -0.5t2 -0.5l1 -0.5l1 -0.5v-26q0 -1 1.5 -2t3.5 -2t4 -1.5l2 -0.5q3 0 4 2t1 4v4v6.5v6.5v4v18t-3 17q0 1 -0.5 2t-1.5 1h-9l-0.5 -3t-0.5 -4t-0.5 -3t-0.5 -4.5t-0.5 -4.5l-0.5 -2q0 -2 -1 -2h-2h-3q0 1 -0.5 5.5t-0.5 5.5v1
q0 13 0.5 26.5t0.5 26.5q0 11 -1.5 22.5t-1.5 22.5q0 5 4 5q2 0 3.5 -4t3 -9.5t2 -12.5t1 -13t0.5 -11v-6v-1.5v-1.5l-0.5 -2t-0.5 -4t-0.5 -4.5l-0.5 -2.5q0 -3 1.5 -7t5.5 -4h2t2 2q0 6 0.5 11.5t0.5 10.5v9v11q0 10 -0.5 19.5t-0.5 18.5v15zM120 137q0 -2 1 -4t2.5 -4
t3.5 -3.5t4 -1.5l0.5 0.5l0.5 0.5l1 0.5t2 0.5v2.5v1.5q0 5 -1.5 8t-6.5 3q-3 0 -5 -0.5t-2 -3.5zM169 118q3 0 4 1.5t2 3.5t1 4v4q0 6 -3 7t-9 1v-19q0 -1 2.5 -1.5zM94 99q0 2 0.5 3t2.5 1t3 -3.5t2 -9t2 -11.5t3 -11.5t5 -9.5t9 -4q1 0 2 2t1 3v27q0 1 0.5 1.5t1.5 0.5
h2.5h3.5v-17.5t1 -17.5q2 -3 6.5 -3.5t7.5 -0.5v30l0.5 2l0.5 2l1.5 1.5l0.5 0.5l1.5 -0.5t1.5 -1.5q1 0 1.5 -0.5l0.5 -0.5v-34l3 -1q0 -1 1.5 -1.5l1.5 -0.5q5 -1 6.5 -3t2 -4.5t0.5 -4t3 -1.5l30 -3q2 -1 3 -3.5t1 -3.5q0 -6 -6 -6q-2 0 -5.5 1t-7 1.5t-7 1.5t-5.5 1
q-20 1 -39 1.5t-39 1.5q-3 1 -3.5 2t-0.5 4q0 2 0.5 4t3.5 2q14 0 28.5 -2t28.5 -2h4.5t2.5 2q0 3 -4 4.5t-10 3t-13 2.5t-14 3t-12 5t-8 7q-4 8 -5.5 19.5t-1.5 20.5z" />
</svg>
