<?xml version="1.0" standalone="no"?>
<!DOCTYPE svg PUBLIC "-//W3C//DTD SVG 1.1//EN" "http://www.w3.org/Graphics/SVG/1.1/DTD/svg11.dtd" >
<svg xmlns="http://www.w3.org/2000/svg" xmlns:xlink="http://www.w3.org/1999/xlink" version="1.1" viewBox="-10 0 266 256">
   <path fill="currentColor"
d="M36 213q0 2 1.5 2h2.5q36 0 73 -2t71 -4q3 -1 8.5 -1t11.5 -0.5t10.5 -2t4.5 -5.5l-0.5 -0.5t-1.5 -0.5h-62q6 -9 8 -18.5t2 -19.5v-2v-3.5v-3.5v-2q-2 -4 -4.5 -7l-5 -6t-4.5 -6t-2 -7q0 -5 3 -9t6.5 -8t6.5 -8t3 -9q0 -10 -3.5 -18.5t-9.5 -14.5t-14 -9.5t-17 -3.5
q-12 0 -20.5 3.5t-14 10.5t-8 16.5t-2.5 22.5q0 2 2.5 6t5.5 8.5t5.5 7.5l2.5 3q0 4 -2.5 7.5t-5.5 8.5t-5.5 11t-2.5 15q0 5 0.5 11t2.5 10l2.5 2.5t2.5 3t2.5 3.5t1.5 3q0 4 -4 5.5t-10.5 2t-13 0.5t-13 0.5t-10.5 2t-4 5.5zM92 166q0 -13 4 -21.5t13 -16.5h1v0h0.5h0.5
l2 1t3 1l1.5 -0.5t1.5 -1.5h17q4 0 6.5 4t4.5 9t3 10.5t1 7.5t-0.5 8.5t-1.5 13.5t-3 12.5t-5 5.5h-38q-3 0 -5 -4.5t-3.5 -10t-2 -11t-0.5 -7.5zM112 165q0 4 2 5.5t5 1.5q2 0 4.5 -0.5t5.5 -1.5t4.5 -3t1.5 -5q0 -2 -1.5 -4t-3.5 -3.5t-4.5 -2t-4.5 -0.5t-3.5 1t-3 3.5
t-2 4.5t-0.5 4zM93 91q0 -17 8 -26t24 -9q6 0 10 1.5t7 4.5t5 7t4 9l0.5 1l1 2l1 2t0.5 2v1q0 3 -1.5 8t-4.5 9.5t-6.5 8t-6.5 3.5h-26q-1 0 -3 -2l-3 -3q-5 -5 -7.5 -8.5t-2.5 -10.5zM114 90q0 3 3 4t5 1q4 0 7.5 -3t3.5 -8q0 -3 -3 -6t-5 -3q-8 0 -9.5 3.5t-1.5 11.5z" />
</svg>
