<?xml version="1.0" standalone="no"?>
<!DOCTYPE svg PUBLIC "-//W3C//DTD SVG 1.1//EN" "http://www.w3.org/Graphics/SVG/1.1/DTD/svg11.dtd" >
<svg xmlns="http://www.w3.org/2000/svg" xmlns:xlink="http://www.w3.org/1999/xlink" version="1.1" viewBox="-10 0 266 256">
   <path fill="currentColor"
d="M92 239v6t1 5.5t3.5 4t5.5 1.5t4.5 -3t1.5 -6q0 -4 -1 -8.5t-1 -9.5q0 -8 3.5 -16t8 -15.5t8.5 -14.5t4 -13q0 -4 -2.5 -6.5t-5.5 -4t-6.5 -2t-6.5 -0.5q-2 0 -5.5 2.5t-7 5.5t-5.5 6.5t-2 4.5v1q0 1 1 2t2 1q0 1 1 1v-1l16 -15l1 -0.5t2 -0.5l2 0.5t3 1.5v3v3
q0 3 -0.5 5.5t-2 4t-2.5 3.5t-3 5q-3 6 -6.5 11.5t-6 11.5t-3.5 12.5t-1 13.5zM183 230q4 0 5.5 4t2.5 8t3 8t6 4t5 -1t1 -5q0 -3 -1 -7t-2.5 -8.5t-4 -7.5t-5.5 -6l-3 -1t-3 -2q-2 -2 -2.5 -5.5t-1.5 -7t-3 -6t-7 -3.5h-3h-3h-4h-2h-10t-7.5 0.5t-7.5 1.5t-10 3l-0.5 0.5
t-0.5 1.5h-0.5t-0.5 1q0 2 2 2h3q7 0 13.5 -1.5t13.5 -1.5h4.5t5 0.5t4.5 2t2 4.5q0 1 -0.5 2t-1.5 2q-3 0 -8.5 0.5t-12 1t-12 0.5t-8.5 1q-1 0 -3.5 0.5t-5 1.5t-4.5 2t-2 3t2 2h3h11.5t11.5 -3h23q2 1 4 2.5t4 2.5q0 1 -4 2.5t-9.5 2.5t-12 2.5t-13 2.5t-11 1.5t-6.5 0.5
v5h40q4 0 8 -2t8 -4.5t6.5 -4.5t3.5 -2zM51 194q0 2 1.5 3t3.5 1q6 0 12 -6t11 -13.5t10 -14.5t9 -10t9 -5t10.5 -5t10.5 -5.5t7 -6.5q1 -1 2 -3.5t2.5 -5.5t2 -5.5t0.5 -4.5q-1 -7 -5.5 -10.5t-9.5 -4.5t-9.5 -2t-5.5 -3q0 -1 0.5 -3.5l0.5 -2.5q9 0 18 -1t18 -1h8l2 2
q0 9 1.5 15t4.5 9.5t9 6t15 5.5v0q2 0 2.5 -1t0.5 -3t-2 -3t-4 -1.5t-4.5 -1t-3.5 -1.5t-2.5 -2t-3 -2.5t-2.5 -3t-2 -2.5q0 -1 1 -3.5t3 -2.5h1q5 2 9 5t10 3q1 0 3 -0.5t2 -2.5t-3.5 -4l-7 -4t-7.5 -3.5t-6 -2.5q2 -2 4.5 -3t5.5 -1t6 0.5t4 0.5q2 0 3.5 -0.5t3.5 -0.5
t3 -0.5l1 -0.5v-6q-1 0 -4 -0.5t-6.5 -0.5t-6.5 -0.5t-5 -0.5q-1 0 -5 0.5t-5 0.5q0 -5 1.5 -9.5l3 -9t3 -8.5t1.5 -10q0 -4 -1.5 -8.5t-3.5 -8.5t-6 -7t-9 -3q0 4 1.5 7l3 6l3 6t1.5 7q0 5 -1 10.5t-2 10.5t-2.5 10.5t-3.5 8.5q-10 0 -19 1t-18 1h-3t-3.5 -0.5t-2.5 -1
t-1 -2.5t3.5 -4t7.5 -4t7.5 -5t3.5 -8q0 -3 -3 -5t-6.5 -3t-7.5 -1.5t-5 -0.5t-4 0.5t-4 0.5q-2 0 -2 1v2v1q1 0 4.5 0.5t6.5 1t5.5 1.5t2.5 4q0 2 -1.5 3.5t-4 3t-4.5 2t-4 0.5q-3 0 -6 -0.5t-6 -2t-5 -4t-2 -5.5q0 -6 2.5 -9.5t6.5 -6t9 -3.5t9 -2.5t6.5 -4t2.5 -6.5
q0 -2 -1.5 -4.5t-4 -4t-5.5 -2.5t-4 -1q-2 0 -3 0.5t-1 1.5t1 1l2.5 3t3.5 3v0.5v1.5q0 2 -2.5 3.5t-7 2.5t-9 3t-8.5 5t-6.5 7.5t-2.5 11.5v3.5v2.5q2 6 6.5 7.5t9 2.5t7.5 3t3 8q-13 0 -25 -0.5t-25 -0.5q-2 0 -3.5 1.5t-1.5 3.5q0 1 0.5 1.5t0.5 1.5q1 0 4.5 0.5t4.5 0.5
h42q3 2 3 6q0 3 -2.5 5t-6 3.5t-6.5 2.5t-5 2l-4 4t-6.5 7t-7 8.5t-6.5 8.5t-5 7t-2 4q0 2 1 2.5t3 0.5q4 0 7.5 -3.5t6.5 -7.5t5.5 -7.5t5.5 -3.5q2 0 4.5 1.5t4.5 3.5t3 4.5t1 4.5t-3 6t-7.5 9.5t-10 11t-10 10.5t-8.5 9t-5 6v1zM135 184q-1 1 -3 1.5t-2 3.5h12.5t16.5 -2
t14 -5t6 -10q0 -4 -0.5 -7.5t-0.5 -6.5h4t6.5 0.5t6.5 0.5h4l4.5 -1.5t1.5 -3.5q0 -2 -3.5 -2.5t-8 -1t-9.5 -1t-9.5 -1.5t-7.5 -3.5t-3 -6.5q0 -1 1.5 -1h1.5q5 0 9.5 0.5t9.5 0.5h4t2 -3q0 -1 -0.5 -2t-1.5 -1t-4 -1t-6.5 -1.5l-7 -1t-4.5 -1.5q-5 -1 -6.5 -3.5t-2.5 -5
t-2 -4t-5 -1.5q0 9 2.5 18t4.5 18v3q0 2 -1.5 3t-3.5 1.5t-4.5 1t-3.5 2.5l2 2h16l0.5 1t0.5 2.5v2.5v2q0 4 -4 6.5t-8 3.5q-1 1 -3.5 1.5t-5.5 1t-5.5 0.5t-3.5 1zM95 117q0 -5 1.5 -6.5t6.5 -1.5h1q5 5 6.5 9.5t1.5 11.5v5q-3 5 -8 5l-2.5 -5t-3 -6.5t-2.5 -6.5t-1 -5z
M113 107q0 -3 3 -3h5q5 0 7.5 4t2.5 9t-2 8.5t-7 3.5q-2 0 -3 -1t-1 -2q0 -2 0.5 -4t-0.5 -4l-0.5 -1.5t-1.5 -3t-1.5 -3l-0.5 -1.5q0 -1 -0.5 -1.5z" />
</svg>
