<?xml version="1.0" standalone="no"?>
<!DOCTYPE svg PUBLIC "-//W3C//DTD SVG 1.1//EN" "http://www.w3.org/Graphics/SVG/1.1/DTD/svg11.dtd" >
<svg xmlns="http://www.w3.org/2000/svg" xmlns:xlink="http://www.w3.org/1999/xlink" version="1.1" viewBox="-10 0 266 256">
   <path fill="currentColor"
d="M56 247q0 1 2 2.5t3 1.5h138q2 0 2 -1.5v-2.5q0 -2 -1 -5t-3 -3q-8 0 -15 2t-15 2h-4.5h-7.5t-7.5 -1t-3.5 -3q0 -1 -0.5 -6l-1 -10t-0.5 -10v-7v-13v-14q3 -5 7 -6.5t8 -2.5t8 -3t7 -7q2 -5 3.5 -7.5t1.5 -6.5q0 -3 -1.5 -5t-5.5 -2q-2 0 -3 2.5t-2 6t-2 6.5t-3 4
q-8 5 -18 5h-19q-6 0 -10.5 -0.5t-11.5 -0.5q-9 -1 -12.5 -5t-4.5 -8t-1.5 -7t-3.5 -3q-2 0 -3.5 2.5t-1.5 4.5q0 8 2.5 12.5t5.5 7t7 3t7.5 1.5t6.5 2.5t4 5.5v11v11v10.5t-0.5 12.5t-0.5 10.5v4.5l-2 4h-41q-1 0 -4 1.5t-3 3.5zM114 231q0 -14 1 -27t0 -26q2 -5 4.5 -5
h5.5h5q1 0 2.5 0.5l1.5 0.5v67h-17l-3 -3v-7zM79 182q1 7 0.5 13t-1.5 12t-1.5 12.5t-0.5 12.5q6 0 10 -5q1 -9 1.5 -14.5t0.5 -12.5v-5t-0.5 -6.5t-2 -5.5t-4.5 -2q-1 0 -1.5 0.5zM160 225q0 2 0.5 4.5t3.5 2.5t4 -1.5t2 -3.5v-10.5t0.5 -9l1 -9t0.5 -9.5q0 -6 -5 -10
q-3 1 -4 2t-1 2v2.5v3.5q0 1 -0.5 6t-0.5 11t-0.5 11t-0.5 7v1zM120 114h1q2 2 5.5 6.5t6.5 9.5t6 8.5t5 3.5t3.5 -2t1.5 -3q0 -4 -3.5 -8t-7 -7.5t-6.5 -7.5t-3 -8q0 -1 2.5 -3.5t6.5 -5l8 -5t6 -4.5q1 -2 1.5 -4.5t1 -5.5t0.5 -5.5v-3.5v-3q0 -9 -9 -9v23q0 1 -2.5 3.5
t-6.5 4.5l-7 3.5t-5 1.5t-4 -4t-3.5 -8.5t-2.5 -8.5t-1 -5v-1q0 -1 0.5 -2l0.5 -1q6 -2 11 -4.5t9 -5.5t6.5 -7t2.5 -10v-7q0 -3 -1 -6t-3.5 -5.5t-6.5 -2.5v27q0 2 -1.5 4t-4 3t-5 1h-3.5q-3 0 -4 -1.5t-1.5 -3t-1.5 -3.5t-3 -3q2 -4 2.5 -6t0.5 -6v-4.5t-0.5 -5t-2.5 -4
t-5 -1.5q-2 0 -2.5 1t-0.5 2v2.5v2.5q0 16 2 31t6 29q1 5 2 9t1 9q0 7 -3 11.5t-6 8t-6 8.5t-3 11q4 0 8 -3.5t7 -8t5.5 -8t5.5 -3.5zM60 130q-1 3 0 4t4 1t4.5 -2t3 -5t2 -6t0.5 -5l0.5 -2.5l1 -5t0.5 -4.5v-2q0 -1 0.5 -2l1 -2t1 -1.5t0.5 -1.5l0.5 -1.5t0.5 -4t0.5 -4
t0.5 -2.5v-5.5t0.5 -10.5t0.5 -12.5t1 -10.5v-1q0 -1 -0.5 -4.5t-1.5 -7.5t-3 -6.5t-5 -2.5t-3.5 2t-0.5 4q0 6 2 12t2 12v2q0 2 -0.5 6.5t-0.5 9.5t-0.5 9.5t-0.5 6.5q-1 2 -1.5 4t-0.5 3.5v3.5t-1 5l-2 6t-2.5 7t-2.5 7.5t-1 6.5zM172 101l3 24q0 2 2 4t4 2t3.5 -1.5
t1.5 -3.5q0 -6 -1 -12t-2 -11.5t-2 -11.5t-1 -12q0 -11 1 -22.5t1 -23.5v-4t-1 -4q0 -2 -1.5 -2h-2.5q-3 0 -4 1t-1 6t-0.5 10t-1.5 10t-1.5 9.5t-0.5 9.5v3q0 1 1.5 3.5t2.5 3.5l-1 3l-1 3v2.5v4.5v5q0 2 2 4z" />
</svg>
