<?xml version="1.0" standalone="no"?>
<!DOCTYPE svg PUBLIC "-//W3C//DTD SVG 1.1//EN" "http://www.w3.org/Graphics/SVG/1.1/DTD/svg11.dtd" >
<svg xmlns="http://www.w3.org/2000/svg" xmlns:xlink="http://www.w3.org/1999/xlink" version="1.1" viewBox="-10 0 266 256">
   <path fill="currentColor"
d="M159 221q2 0 5.5 2.5t6.5 5.5t5 5.5t4 3.5q0 1 2.5 2t3.5 2t2 2.5t1.5 3t1.5 2.5t3 1q3 0 5 -3t2 -6q0 -4 -5 -7.5t-11 -7t-11 -7.5t-5 -8q0 -3 0.5 -5.5t0.5 -5.5q0 -1 -0.5 -4t-2 -5t-3.5 -4t-5 -2l-24 -3q-1 0 -1.5 -1t-0.5 -2q0 -2 0.5 -2.5t1.5 -2.5l1 -2h28
q1 0 2 -1.5t1 -2.5v-1q0 -2 -2.5 -3t-4.5 -1q-7 0 -14 1.5t-14 1.5q0 -5 3 -7.5t6.5 -4t7.5 -3t7 -5t4.5 -8.5t2 -10t0.5 -10v-10q0 -7 -4 -11t-9.5 -6t-12 -2h-12.5h-6t-5.5 0.5t-5.5 1.5t-7 2q-3 2 -5 5.5t-2.5 8t-0.5 9.5v7q0 6 0.5 13.5t3.5 13.5q2 4 6.5 5t8.5 1.5
t7.5 2t3.5 9.5q0 1 -0.5 3.5t-1 5.5t-1.5 5t-4 2h-27q-2 0 -2 2v3q0 2 1 3t3 1q12 0 24 -2.5t25 -2.5q1 0 4.5 0.5t6.5 1.5t5 3t2 5v0.5v0.5q0 1 -1.5 4.5t-1.5 4.5h-1v0h-1l-2.5 -1.5t-3.5 -1.5q-3 -1 -7.5 -1.5t-8.5 -0.5h-8h-7h-21q-3 1 -7.5 1.5t-9 0.5t-8 1.5t-3.5 5.5
q0 3 2 4t6 1q5 0 11 -1l12 -2l12 -2t12 -1h5h6t6 1t5 2v1q0 3 -4 5t-9.5 3t-13 1.5t-13.5 1t-11 1t-6 1.5v4q0 2 0.5 3.5t2.5 1.5q18 0 35.5 -4t32.5 -12l0.5 -0.5zM105 143q0 -4 3 -5.5t7 -1.5t8 0.5t6 0.5h14q3 -1 3.5 0t0.5 3q0 6 -4 8t-9 2.5t-10 0.5h-8q-1 0 -3 -1
t-3.5 -2t-3 -2.5t-1.5 -2.5zM99 127q0 -3 2 -6t5 -3l38 -3q1 -1 2 -1h3q3 0 3.5 2.5t0.5 4.5l-0.5 1.5l-0.5 1.5q-1 2 -2 3.5l-1 1.5h-48l-0.5 -0.5t-0.5 -1.5h-1zM102 106q0 -4 3 -5.5t6.5 -2t7.5 -0.5h6h11.5t12.5 2v1v2q0 3 -2 4.5t-6 1.5h-37q-1 0 -1.5 -1.5zM123 44
q0 7 -2.5 11t-6.5 6.5t-9 4t-10 4.5q-3 2 -9.5 5t-12.5 7t-11 8.5t-5 8.5q9 0 17.5 -4t14.5 -11l29 -15h5l2.5 -1t3.5 -1l1.5 0.5t3.5 1l4 1t3 0.5l1.5 1l1.5 1q1 0 4 1.5t7 3t7 3t4 1.5q2 1 4.5 3t5 3.5l5 3t4.5 1.5h1q2 -2 3.5 -3t1.5 -3t-1.5 -3.5t-3.5 -2.5l-7 -3.5
l-10 -5t-10 -4.5t-7 -3q-3 -1 -6.5 -1.5t-6.5 -1.5t-5 -3t-2 -6v-4t1 -4t2 -3t4 -1h2q2 0 5.5 1l7 2t7 2.5t5 2t6 2.5t9 4.5t8 4.5t4.5 2q5 0 5 -5v-1.5v-1.5q-3 -5 -11 -8.5t-17 -6t-18.5 -4.5t-15.5 -5q-3 -2 -3 -5q0 -4 0.5 -8t0.5 -7.5t-4 -4.5l-3.5 0.5t-3.5 2.5
q-1 5 -1 9t-0.5 7t-2.5 5t-7 4q-11 3 -20 7.5t-19 7.5l-2 1t-4.5 1.5t-4.5 1.5t-3 1q-2 1 -3 3.5t-1 4.5t1 2.5t3 0.5q4 0 9.5 -2.5l11 -5t11 -5.5t9.5 -4q0 -1 2 -1t4.5 -0.5t4.5 -1t2.5 -1t3 -1.5t3.5 -1q2 -1 2.5 0.5t0.5 3.5z" />
</svg>
