<?xml version="1.0" standalone="no"?>
<!DOCTYPE svg PUBLIC "-//W3C//DTD SVG 1.1//EN" "http://www.w3.org/Graphics/SVG/1.1/DTD/svg11.dtd" >
<svg xmlns="http://www.w3.org/2000/svg" xmlns:xlink="http://www.w3.org/1999/xlink" version="1.1" viewBox="-10 0 266 256">
   <path fill="currentColor"
d="M129 145q0 5 -2 8.5t-4.5 7t-5.5 7t-5 6.5q-10 17 -20.5 33.5t-22.5 31.5l-3.5 3.5l-2.5 2.5t-1.5 2t-0.5 4h2h4h4h2q3 -1 7.5 -6t8.5 -11.5t7 -12t3 -7.5q1 0 1.5 -1.5l0.5 -1.5q2 -3 5 -6l5 -5q5 -9 9 -17.5t12 -14.5q2 3 5.5 7.5t6.5 9.5t6.5 11t7 11t6 8t5.5 4l26 28
l0.5 0.5l0.5 0.5q1 0 2.5 -1t2.5 -2.5l2 -3t1 -2.5q0 -6 -4 -10.5t-10 -9t-11.5 -9t-8.5 -7.5q-4 -6 -9 -12t-8 -13h-2q0 -3 -1.5 -6l-3 -6t-3.5 -5.5t-3 -5.5q-2 -3 -3 -10.5t-2 -15.5t-1.5 -16t-0.5 -13q0 -2 0.5 -7t0.5 -11t0.5 -12.5t1 -12t1 -9.5t1.5 -4h2h2
q6 0 13 1.5t13.5 4l13 5t11.5 6.5q2 0 3.5 1.5l3 3t3.5 2.5t3 1q3 0 4.5 -3t1.5 -6t-2 -5t-5 -3t-5.5 -2t-4.5 -3q-2 0 -7.5 -1.5t-12 -3t-12 -3t-7.5 -2.5q-1 0 -4.5 -1.5l-3.5 -1.5q-2 0 -6 -1t-5 -1v-20q-5 0 -7.5 1t-4 3.5t-1 6.5t0.5 9q-2 2 -8.5 4.5t-15.5 5.5
t-18 6.5t-16.5 6.5t-12.5 6.5t-5 6.5t1.5 3.5t4.5 0.5q2 0 4 -0.5t3 -1.5t2.5 -2l4.5 -3q3 -1 10.5 -5t16 -8t16 -7t11.5 -3q3 0 3.5 2t0.5 5v2l-1 2l-1 2v5.5v6.5v8v4q0 17 2 33.5t2 32.5zM69 104v1v1.5t0.5 3t0.5 2.5v2q1 7 1 13.5t1.5 12t6 9t13.5 3.5t14 -2t7.5 -5.5
t3 -9.5t0.5 -15v-15.5t-2 -15.5t-7 -12t-14 -5q-8 0 -13 2t-8 6.5t-3.5 10.5t-0.5 13zM153 145q2 4 3 4.5t3 0.5h2q1 0 5 -0.5t8.5 -0.5t8.5 -0.5t5 -0.5q3 0 5 -2.5t3 -3.5q1 -2 1.5 -7.5t1 -12t0.5 -11.5v-8v-5t-0.5 -8t-1 -7.5t-1.5 -5.5q-1 -4 -3.5 -6.5t-5.5 -3
t-6 -0.5h-7h-12q-8 3 -10 9.5t-2 14.5q0 12 0.5 26.5t2.5 27.5zM81 134q0 -3 3 -4.5t7 -2t8 -0.5h5q4 0 4.5 1.5t0.5 5.5v3q0 1 -0.5 2.5t-1.5 2.5t-3 1h-18q-1 0 -2 -1t-1.5 -2.5l-1 -3t-0.5 -2.5zM157 128q0 -2 0.5 -4.5t3.5 -2.5h26l1.5 1.5t1.5 2.5t-1 3.5l-2 5
t-2.5 4.5t-2.5 2h-20q-1 0 -2 -1.5t-1.5 -3.5l-1 -4t-0.5 -3zM80 110v-2v-3q5 -3 11 -3h11q3 0 4.5 1t2 3t0.5 5v5q0 2 -2 3t-4.5 1.5t-5 0t-3.5 -0.5h-4.5h-4.5q-4 -1 -4.5 -4t-0.5 -6zM157 105v-2t1 -3q7 -2 15 -3t15 -1v16l-1.5 1t-3.5 1h-10h-11q-3 -2 -4 -3.5t-1 -5.5z
M80 94v-2.5v-2.5q0 -6 5 -7.5t10 -1.5h3h3q3 2 5 5.5t2 7.5v1q-1 0 -1.5 0.5l-0.5 0.5h-1.5t-1.5 -0.5t-2 -0.5h-2l-0.5 0.5l-0.5 0.5h-3h-2h-3t-4 -0.5t-3.5 -0.5h-2.5zM176 74h4h3q3 0 3.5 2.5t0.5 5.5q0 5 -3.5 7t-8.5 2.5t-10.5 0t-8.5 -0.5q0 -11 5 -14t15 -3z" />
</svg>
