<?xml version="1.0" standalone="no"?>
<!DOCTYPE svg PUBLIC "-//W3C//DTD SVG 1.1//EN" "http://www.w3.org/Graphics/SVG/1.1/DTD/svg11.dtd" >
<svg xmlns="http://www.w3.org/2000/svg" xmlns:xlink="http://www.w3.org/1999/xlink" version="1.1" viewBox="-10 0 266 256">
   <path fill="currentColor"
d="M125 243q1 2 2.5 4.5t3.5 2.5t2.5 -0.5l1.5 -1.5q0 -6 0.5 -9.5t0.5 -8.5q0 -8 -1 -15.5t-1 -15.5q0 -2 0.5 -5.5t0.5 -4.5l3 -3h46q2 0 2.5 -2t0.5 -3q0 -6 -5 -6q-11 0 -22 1.5t-22 1.5h-2t-3 -1v-4v-3q0 -6 1.5 -10t8.5 -4h37q2 0 3 -1.5t1 -3.5l-0.5 -1.5t-1.5 -1.5
h-42q0 -4 2 -8t5 -8t6.5 -7.5t5.5 -6.5h2h2q3 0 8 2t10 5t10.5 5t9.5 2q2 0 3.5 -1t1.5 -3q0 -3 -3 -5.5t-8.5 -4.5t-12 -4t-12.5 -3t-10.5 -2.5t-7.5 -1.5l-1.5 -1t-3 -1.5t-3 -1.5l-1.5 -1q-1 0 -2.5 -0.5t-3.5 -1t-3.5 -1t-2.5 -0.5v-3q0 -3 0.5 -5t1.5 -5h10q5 0 10.5 1
t10.5 2.5t10 2.5t11 1h3h3q2 -1 2 -2v-2q0 -3 -1 -4t-4 -2q-2 0 -8.5 -0.5t-14 -1.5t-14 -2t-8.5 -1h-3t-4.5 -0.5t-4 -1.5t-1.5 -3q0 -9 4 -12t11 -3.5t15 0t14.5 -0.5t11 -5.5t4.5 -14.5t-4 -16t-16 -8q-14 1 -28 0t-29 -1h-4h-2.5t-3.5 0.5t-3.5 0.5h-1.5q-8 1 -14 1
t-10 2t-5.5 6.5t-1.5 13.5t4 13.5t10 6.5t13 2h13.5t10.5 1.5t4 5.5v3t-0.5 4t-1.5 4t-3 2q-3 1 -8.5 2t-11.5 2t-12.5 2t-11.5 3t-8.5 4.5t-3.5 5.5q0 1 1 1.5l1 0.5h5q6 0 12 -2t12 -4.5t12.5 -4.5t12.5 -2q3 0 4 2t1 5q0 5 -5.5 8.5t-13.5 6.5t-17.5 5.5t-18 5t-13.5 5.5
t-5 7q0 2 0.5 3.5t2.5 1.5q4 0 6.5 -1t5 -2.5t4.5 -2.5t5 -2q7 -3 13.5 -4t12.5 -4q2 3 6 7t8 7.5t7 7t3 6.5l-4 2q-1 0 -5 0.5t-10 1t-11.5 0.5t-9.5 1h-3.5h-4.5t-3.5 1t-1.5 4l0.5 1.5l0.5 1.5h4h4q11 0 22.5 -2t23.5 -2v1v1q0 1 -0.5 3.5t-0.5 5t-0.5 4.5t-0.5 3
q0 3 -2.5 3.5t-5.5 0.5h-6t-5 1h-33q-1 0 -2 1.5t-1.5 3t-0.5 3.5v2q12 0 24.5 -2t24.5 -2h3h3l1 2v27.5t2 27.5zM112 119q0 -3 1.5 -5.5t4.5 -4t6.5 -2t6.5 -0.5q1 0 4 0.5t6.5 1t6 2t2.5 4.5q0 1 -1.5 3t-2.5 4.5t-2.5 4l-2.5 2.5t-3.5 3t-4 3.5t-2.5 1.5h-5l-14 -14v-4z
M110 27v-2q0 -2 2 -2q1 0 3 -0.5t4.5 -0.5t4.5 -0.5l2 -0.5h2h1q2 0 3.5 0.5t3.5 1.5q0 3 1 5.5l2 5t1.5 5t0.5 5.5v3v3q-4 1 -6 1h-5q-5 0 -8.5 -2t-6 -5.5t-4 -7.5t-1.5 -9zM94 23q1 0 3.5 3t5 7t4.5 8t2 5v0q0 1 -0.5 1.5t-1.5 0.5h-4h-4h-4t-6.5 -0.5t-6.5 -2t-3 -3.5
v-13q0 -2 2 -3t4.5 -2t5 -1h3.5zM147 30q0 -2 0.5 -4t1.5 -3h4q6 0 10 0.5t11 0.5q3 2 3 6v7t-1.5 5t-4 3.5t-5 2t-4.5 0.5q-4 0 -7 -1.5t-4.5 -4t-2.5 -6t-1 -6.5z" />
</svg>
