<?xml version="1.0" standalone="no"?>
<!DOCTYPE svg PUBLIC "-//W3C//DTD SVG 1.1//EN" "http://www.w3.org/Graphics/SVG/1.1/DTD/svg11.dtd" >
<svg xmlns="http://www.w3.org/2000/svg" xmlns:xlink="http://www.w3.org/1999/xlink" version="1.1" viewBox="-10 0 266 256">
   <path fill="currentColor"
d="M166 194q7 5 10 9t6 11q0 2 1.5 7.5t3 12t3.5 11.5t4 5q3 0 4.5 -3.5t1.5 -6.5q0 -6 -2.5 -14t-4.5 -13q0 -2 -2 -4.5t-3.5 -5t-3 -5.5t-1.5 -5v-1q1 0 2.5 -1.5l3 -3l3 -3t1.5 -2.5q1 -1 2.5 -3.5l1.5 -2.5v-23l-4 -1l-3 -0.5t-7 -1l-8 -1t-7 -0.5q-11 -1 -21.5 -1.5
t-21.5 -0.5h-6.5t-5.5 3v0.5v0.5q0 2 2 3t3 1q16 0 32.5 0.5t32.5 3.5q2 0 2.5 2.5t0.5 3.5q0 5 -2 8.5t-6 3.5h-2l-1 -1l-2 -2l-2 -2l-1 -1q-1 -1 -2.5 -1.5t-3.5 -1t-3.5 -1t-2.5 -0.5h-45q-2 0 -3 2.5t-1 3.5q0 3 2 3.5t4 0.5q7 0 14 -1t14 -1h3h5q3 0 5.5 0.5t3.5 0.5
q3 0 4 1.5t1 4.5t-3 5t-6.5 2.5l-7 1t-5.5 0.5h-30q-3 0 -4 1.5t-1 4.5t3 3.5t6 0.5q13 0 24.5 -2t23.5 -5h1v0zM53 80v20q0 1 0.5 5t0.5 9t0.5 9.5t0.5 5.5v5.5t1 9.5t2 9t3 4q5 1 9 1.5t9 0.5t8.5 -0.5t8.5 -1.5q4 -4 4.5 -9.5t0.5 -10.5q1 -2 1 -6.5t0.5 -9t0.5 -8.5v-5
v-29v-28q0 -4 -2.5 -6.5t-5.5 -3.5h-6h-5q-12 0 -18 2t-9 6.5t-3.5 12t-0.5 18.5zM66 124l0.5 -0.5l0.5 -0.5q0 -1 2 -3l2 -2h22q1 0 1.5 2.5t0.5 3.5q0 5 -0.5 9.5t-2.5 8t-5 5.5t-8 2h-3h-3q-3 -2 -4 -5.5t-1.5 -7l-1 -7t-0.5 -5.5zM193 138q0 4 4 4q2 0 3.5 -0.5
t2.5 -3.5q1 -8 1 -14t0.5 -12t0.5 -12v-13v-14q0 -2 -0.5 -6t-1 -9t-1 -9.5t-1.5 -5.5q-1 -5 -5.5 -7t-10 -2.5t-11 0t-8.5 0.5v-22l-1.5 -1.5t-3.5 -1.5v0q-4 0 -5.5 2.5t-2 6t-0.5 6.5v5q0 3 -2.5 4.5t-6 2t-8 0.5t-8.5 1t-6.5 3.5t-3.5 6.5q-3 23 -5 45.5t-2 44.5
q3 0 5.5 -2t3.5 -5q2 -19 3.5 -39.5t2.5 -39.5q2 -3 6 -5t8.5 -3.5t9 -2.5t6.5 -1q1 0 2 1l2 2h26q4 0 6 6.5t3 15.5t1.5 17t0.5 10q0 1 -0.5 3t-1 4.5t-0.5 5v2.5q0 1 -0.5 5t-0.5 8.5t-0.5 9.5t-0.5 8v1zM130 133q0 2 1 2h2q5 0 8 -3.5t5.5 -8t5 -8.5t7.5 -4q6 0 8.5 4
t5 8.5t5.5 8t8 3.5q2 0 2 -2v-4q0 -5 -2.5 -9t-6.5 -7.5t-8 -6.5t-6 -6v-3v-3v-4v-2v-9v-8t0.5 -8.5t0.5 -9.5q0 -2 -1 -4t-4 -2q-2 0 -3 1.5t-1 3.5v4t-1 3v5t-0.5 6.5t-0.5 6.5v4v4.5v5.5v6.5v3.5q-2 4 -6 8.5t-8.5 9t-7.5 8.5t-3 6zM65 94q0 -4 3 -6t7 -2.5t8 -0.5h6h1
l2.5 1t2.5 2v15l-5 5h-22q-1 0 -2 -1.5t-1 -4v-4.5v-4zM138 59h-2t-1 2v43q2 0 5 -1t3 -5v-34q0 -3 -1.5 -4t-3.5 -1zM175 101v0q0 1 0.5 1.5l0.5 0.5h1q4 0 6 -3t2 -7.5v-9v-6.5v-2q0 -1 -0.5 -3.5t-0.5 -5.5t-0.5 -5.5l-0.5 -2.5q0 -1 -1.5 -1.5l-1.5 -0.5q-2 0 -3 6
t-1.5 14t-0.5 15v10zM87 51h2h2q1 0 1.5 1.5l0.5 1.5q0 1 0.5 3t1 4.5t1 4.5t0.5 3q1 0 1 1v0q0 1 -1 1l-1 2.5t-2 2.5h-26v-17q0 -3 2 -5t5.5 -2.5t6.5 -0.5h6z" />
</svg>
