<?xml version="1.0" standalone="no"?>
<!DOCTYPE svg PUBLIC "-//W3C//DTD SVG 1.1//EN" "http://www.w3.org/Graphics/SVG/1.1/DTD/svg11.dtd" >
<svg xmlns="http://www.w3.org/2000/svg" xmlns:xlink="http://www.w3.org/1999/xlink" version="1.1" viewBox="-10 0 266 256">
   <path fill="currentColor"
d="M152 157q0 24 -2 47.5t-2 47.5q10 0 13 -6t3 -15v-2l-0.5 -3.5l-1 -7t-0.5 -6.5v-4v-3t0.5 -5t1 -5t0.5 -3v-9.5t0.5 -15.5t0.5 -15.5v-10.5l2 -3q0 -1 1 -1t3 -0.5t3.5 -0.5h2.5h6h9h9h6q3 -2 4 -3t1 -4q0 -4 -3.5 -5t-6.5 -1q-12 0 -23 1t-21.5 2t-21.5 1.5t-25 -0.5
l-1 0.5l-3 1.5t-3 2t-1 2v1q1 2 2.5 2.5t3.5 1t4 0.5h2h35l2 1v3v5v5v5zM109 239q0 5 5 5l1 -0.5l1 -0.5q6 -6 10 -14.5t5.5 -18t2.5 -19t1 -18.5q0 -5 -0.5 -9.5t-1.5 -10.5q-2 -1 -5 -1q-2 0 -2.5 1.5t-1 3.5t0 4t0.5 3q-1 3 -1 7.5t-1 9.5t-1 9.5t-1 5.5q-1 11 -4.5 20.5
t-6.5 19.5q0 1 -0.5 1.5t-0.5 1.5zM180 162q0 3 0.5 10t1.5 15t2 17t2.5 16t4 12t5.5 5q4 0 6 -3.5t2 -7.5q0 -8 -3.5 -16t-4.5 -16q-2 -9 -2.5 -19.5t0.5 -19.5q-1 -2 -3 -4t-4 -3q-1 0 -2 1t-2 1.5t-2 1.5l-1 1v9zM46 131q0 3 1 7.5t3 8.5t5.5 6t7.5 2q3 0 8.5 -1t10.5 -3
t9 -5.5t4 -7.5v-38v-9t0.5 -15t0.5 -15v-10v-6.5t-1 -7t-2 -6.5t-4 -5h-5t-8.5 -0.5t-9 -0.5h-5.5h-1h-1q-7 6 -10 14.5t-4 18t-0.5 19.5t0.5 19v7t0.5 10.5t0.5 10.5v7zM61 138q-2 -7 -2 -11.5v-10.5v-3v-4q1 -1 4 -2t6.5 -1.5l7 -1t4.5 -0.5t2 1.5t1 2.5v8v10.5t-1.5 8
t-5 5t-9.5 1.5q-1 0 -3.5 -0.5t-3.5 -2.5zM191 76q2 0 4 3t3.5 7.5t3.5 10t3.5 10.5t3 8t3.5 3q3 0 5 -3.5t2 -5.5v-1q0 -1 -0.5 -3t-1.5 -3q0 -1 -2 -5t-4 -8.5t-4 -8.5l-3 -6v-2v-2q0 -4 1.5 -7.5t3.5 -7.5t3.5 -8.5t1.5 -9.5q0 -8 -3 -13t-8.5 -8t-12 -4.5t-12.5 -1.5
q-1 0 -4 0.5t-4 0.5q-2 0 -2 2v2v3q0 1 2 2l27 5q4 0 4.5 4.5t0.5 7.5q0 4 -1 9t-5 7q-1 0 -2 -0.5t-2 -1.5q-5 -3 -8.5 -5t-9.5 -2h-4t-3 2q1 4 4 5.5t6 2t6 2t3 5.5q0 2 -3 4t-6.5 3.5t-8 2.5t-8 2t-6 2.5t-2.5 3.5q0 1 0.5 1.5t1.5 1t2.5 0l1.5 -0.5q9 0 17 -2.5t16 -2.5
zM123 103v1q0 1 0.5 2t1.5 2h12q13 0 25 -1.5t25 -0.5q3 -2 4.5 -3.5t1.5 -3.5q0 -3 -2 -3.5t-4 -0.5h-5q-3 1 -11 1t-17 1t-16.5 1t-11.5 1l-1.5 1.5l-1.5 1.5v1zM57 82q0 -4 1.5 -5.5t4 -2t4.5 -0.5h5h5.5h3.5q1 0 2 0.5t1 1.5v14q0 2 -2 3.5t-4.5 2t-5.5 0.5h-3t-4 -0.5
t-4 -0.5q-2 0 -2.5 -2l-1 -4t-0.5 -4v-3zM145 53q-3 6 -10 11l-14 10t-12.5 9.5t-5.5 10.5q6 0 10 -3.5t10 -7.5l14 -10t13 -11.5t10 -14t4 -17.5q0 -9 -4 -14t-12 -5q-2 0 -10 2t-16.5 5t-15 6t-6.5 5q0 3 1.5 3t4 -0.5t4.5 -0.5t3 2q0 1 1 3.5t2.5 4.5t2 4t1.5 3
q0 1 0.5 3.5t1 4.5l1 4t2.5 2h1v0q1 -1 2.5 -4l1.5 -3v-2q0 -4 -0.5 -6.5t-1.5 -5.5l-2 -6t-1 -8q6 0 9 2.5t4.5 6t2.5 8t4 9.5zM58 60v-2v-4.5t0.5 -5t0.5 -4.5q1 -3 2.5 -4.5t4 -2.5t5 -1.5t4.5 -0.5h3h3q1 1 2 2.5t1 3.5v21h-1.5t-4 0.5t-5 0.5h-4.5l-2.5 0.5t-3.5 0.5
t-2.5 -0.5l-1.5 -0.5zM141 24l0.5 -0.5l0.5 -0.5q0 -1 1 -2t2 -1q0 -1 1 -1q2 0 3.5 2t3 5t2 6t0.5 4v1q0 1 -1.5 3l-1.5 2q-1 0 -3 -3t-3.5 -6t-3 -5.5t-1.5 -3.5z" />
</svg>
