<?xml version="1.0" standalone="no"?>
<!DOCTYPE svg PUBLIC "-//W3C//DTD SVG 1.1//EN" "http://www.w3.org/Graphics/SVG/1.1/DTD/svg11.dtd" >
<svg xmlns="http://www.w3.org/2000/svg" xmlns:xlink="http://www.w3.org/1999/xlink" version="1.1" viewBox="-10 0 266 256">
   <path fill="currentColor"
d="M152 195q2 5 6 14l8 18t9 16t11 7q4 0 5.5 -2.5t1.5 -6.5t-2.5 -7.5t-5.5 -7t-6.5 -7l-5.5 -5.5q-5 -8 -9.5 -19t-4.5 -21v-13t2 -13q0 -2 1.5 -3t3.5 -1.5t4 -0.5h3h2.5t3.5 0.5t3.5 0.5h2.5h2q1 0 3.5 0.5t3.5 0.5h4q1 0 4.5 -0.5l3.5 -0.5l7 -3v-1v-1q-1 0 -1.5 -1.5
l-0.5 -1.5h-110l-2 1l-2 1h-1h-1q-2 -19 -2 -38.5v-37.5q0 -5 -1.5 -7.5t-4.5 -4t-6.5 -2t-7.5 -0.5q-12 0 -17.5 3.5t-7.5 9.5t-2 14v18v27v28q1 6 1.5 10.5t2.5 7.5t6 4.5t11 1.5q6 0 11.5 -2t9.5 -5.5t6 -8.5t1 -12h53q0 4 0.5 10t0 13t-1.5 12.5t-4 7.5q-9 15 -18.5 29
t-21.5 26v5q7 0 12.5 -4t10.5 -9.5t9 -12.5t7 -12.5t5 -9.5t4 -4h0.5h0.5zM97 210v7q6 0 12 -6t10 -14t6.5 -17t2.5 -15q0 -1 -0.5 -2.5t-1.5 -2.5l-2 -2t-3 0q-2 0 -3 2.5t-2 6t-1 6.5v5q-1 3 -3.5 7.5t-5 9.5t-5.5 9t-4 6zM173 162q1 4 3.5 12t6 16.5t7.5 15t9 6.5
q3 0 4.5 -1.5t1.5 -4.5t-1.5 -5.5t-3 -4.5l-3 -4t-2.5 -5q-3 -6 -5 -12.5t-5 -12.5q-1 -2 -2.5 -2.5t-4.5 -0.5q-1 0 -3 0.5t-2 2.5zM57 135q0 -3 2.5 -4.5t6 -2t7.5 -0.5h6q6 0 6 5v9.5t-1 8t-4 6t-8 2.5t-8 -2t-4.5 -5.5t-2 -8t-0.5 -8.5zM137 120q2 2 6 3h1.5h2.5h4h2
q10 0 15.5 -2t7 -5.5t2 -7.5t1.5 -7.5t3.5 -5.5t8.5 -2h4h3q2 1 2 3v3q0 6 -3 8t-6.5 2.5t-6.5 1t-3 4.5q0 1 1.5 2t3.5 1.5l4 1t3 0.5q2 0 4.5 -0.5l5 -1t4 -2t1.5 -3.5q2 -7 3 -13t1.5 -12t0.5 -13v-13v-5v-8v-7v-5q-1 -3 -3 -3h-4h-3t-2 3v4t-0.5 6t-0.5 6v4q-2 3 -5.5 3
h-6.5h-5l-0.5 -1.5l-0.5 -1.5q0 -1 -1 -3t-1.5 -4t-0.5 -4t-1 -2q-2 -2 -5.5 -3.5t-7.5 -2.5v-21q0 -6 -6 -6q-5 0 -6 3t-1 7t1 7.5t1 7.5q0 2 -0.5 3.5t-1.5 2t-2.5 1t-3.5 1.5q-3 1 -4.5 4t-2.5 6t-2.5 5.5t-2.5 2.5q-2 0 -3.5 -1t-3.5 -1h-1q-1 0 -3.5 1t-3.5 1h-1h-2
t-1 -2t0.5 -6t0 -8.5t-2 -8t-5.5 -3.5h-3q-1 0 -2 2v12q0 22 2 42q0 2 0.5 6t1 7.5t1 6.5l0.5 3l2 2h2.5t6 0.5t5.5 0.5h1q2 0 4 -1t2 -3q0 -3 -2.5 -3.5t-5.5 -1t-5.5 -2.5t-2.5 -9l2.5 -0.5t5 -1.5t5 -1.5t3.5 -0.5q0 -1 1 -1h1v0q1 0 1 1q2 6 2.5 14t0.5 14zM57 98l2 -2
q1 0 3 -0.5t5 -0.5h5h5h5q2 2 1.5 4.5t-0.5 4.5q0 4 -1 7t-2.5 4t-5 1h-7.5h-7l-1.5 -0.5l-1.5 -0.5v-17zM147 111q0 -1 0.5 -3.5t1.5 -5t2.5 -4.5t3.5 -2q1 0 2.5 2t2.5 4.5t1.5 5l0.5 2.5q0 3 -1.5 4.5t-4.5 1.5h-2.5t-3 -0.5t-2.5 -1.5t-1 -3zM161 86q0 -1 0.5 -3
t1.5 -3.5t2.5 -3t3.5 -1.5h1q0 1 0.5 2t1 3t0.5 3v2v1v2.5t-1 5.5t-1.5 5l-0.5 2q-1 0 -2 -1.5t-2 -3.5t-2 -3.5t-1 -2.5t-0.5 -2l-0.5 -1v-1zM143 95v-32q1 0 2.5 3t3 7t2 7.5t0.5 5.5l-1 2t-2.5 4t-2.5 4l-1 2zM114 78q0 -3 2 -5.5t5 -3.5t6.5 -1.5t6.5 -0.5v18l-15 2
q-1 0 -2 -1t-1.5 -2.5l-1 -3t-0.5 -2.5zM60 83v-6q0 -4 0.5 -7.5t1.5 -6t4 -4t7 -1.5l2.5 0.5t3.5 0.5t2 2t1 4.5v5.5v4q0 10 -11 10q-2 0 -4.5 -0.5t-6.5 -1.5zM180 77q0 -3 1.5 -5t4 -3t5.5 -1h6t3 1t1 3v1v0v2.5t-0.5 3t-0.5 3v1.5q-1 0 -3 0.5l-4 1t-4 0.5h-2h-3
q-4 0 -4 -2.5v-5.5zM151 56q0 -4 3.5 -5t6.5 -1h2h2q1 1 1.5 5t0.5 5t-1.5 3t-3.5 4l-4 4t-3 2t-1.5 -2.5t-1.5 -5t-1 -5.5v-4z" />
</svg>
