<?xml version="1.0" standalone="no"?>
<!DOCTYPE svg PUBLIC "-//W3C//DTD SVG 1.1//EN" "http://www.w3.org/Graphics/SVG/1.1/DTD/svg11.dtd" >
<svg xmlns="http://www.w3.org/2000/svg" xmlns:xlink="http://www.w3.org/1999/xlink" version="1.1" viewBox="-10 0 266 256">
   <path fill="currentColor"
d="M150 157q7 26 18.5 48t29.5 41q1 0 2.5 1.5t2.5 1.5t2 -1.5l1 -1.5q-5 -8 -9.5 -15l-9 -14t-9.5 -14t-9 -15q-2 -4 -3 -7.5t-3 -7.5l-1.5 -2l-1.5 -2q-2 -7 -3 -13.5t-3 -12.5q-1 -4 -3 -8t-2 -8q0 -2 0.5 -2.5t3.5 -1.5l33 -3q1 0 3.5 -0.5l5 -1t4 -1t1.5 -2.5t-2 -3.5
t-3 -1.5q-10 0 -20 2t-20 2l-1.5 -1t-2.5 -1q0 -1 -0.5 -4.5t-0.5 -5.5v-2v-3v-2.5t0.5 -5t0.5 -5v-3.5q0 -2 2.5 -1.5l2.5 0.5q4 0 9 1.5t10 3.5t10 3.5t10 1.5h5q0 -1 0.5 -1.5l0.5 -0.5v-1q0 -1 -3 -3t-8 -4t-11 -4.5t-11 -4.5t-9.5 -4t-6 -3t-2 -3.5t-0.5 -5.5v-5v-5v-9
q0 -1 2 -2t3 -1h40q2 0 3 -0.5t1 -2.5q0 -4 -3.5 -4.5t-6.5 -0.5h-28h-28h-5t-8.5 0.5t-8.5 0.5t-6 1q-10 0 -15.5 3.5t-8 8.5t-3 13t-1.5 18q0 1 -0.5 5.5t-1 9.5t-1 9t-0.5 5v3v6v6v3q-3 25 -7.5 51.5t-11.5 51.5q0 1 -1 2.5t-2 3.5l-2 4t-1 3v1v1q0 2 0.5 3.5t3.5 0.5
q1 0 2.5 -3t3 -8t4 -10.5t4 -11t3 -9t1.5 -4.5q0 -2 1 -5t2 -6.5l2 -7t1 -4.5t1 -6t2 -11t2 -10.5t1 -6.5l0.5 -3l0.5 -3q1 -19 2.5 -40t3.5 -41q1 -2 3 -4.5t3 -3.5q4 -1 9 -2l10 -2t10.5 -1.5t9.5 -0.5h1q1 0 3.5 0.5l2.5 0.5v25q0 1 -3.5 3t-8.5 5t-11 5.5t-11 5.5
t-8.5 6t-3.5 6q4 0 10 -2.5t12 -6t11.5 -6t8.5 -2.5q4 1 4 2.5v4.5v8.5t-0.5 9t-1 8t-1.5 6.5t-7.5 3h-13.5t-13.5 0.5t-8.5 4.5l3 3h40q0 11 -4 25t-10 27t-14 24.5t-16 18.5q-3 2 -5.5 3.5t-5.5 3t-4.5 4t-1.5 5.5h2.5t2.5 -1q2 -2 6 -4.5t7.5 -4.5t6 -4l2.5 -2l3.5 -3.5
t5 -5.5t5 -5.5t2.5 -3.5q1 0 2.5 -1t2.5 -2q1 -2 4 -9t6.5 -15t6.5 -14l3 -6q2 0 2.5 0.5z" />
</svg>
