<?xml version="1.0" standalone="no"?>
<!DOCTYPE svg PUBLIC "-//W3C//DTD SVG 1.1//EN" "http://www.w3.org/Graphics/SVG/1.1/DTD/svg11.dtd" >
<svg xmlns="http://www.w3.org/2000/svg" xmlns:xlink="http://www.w3.org/1999/xlink" version="1.1" viewBox="-10 0 266 256">
   <path fill="currentColor"
d="M197 154q-2 4 -3.5 8t-3 8.5l-3 9t-4.5 8.5q-1 3 -4 8l-6 10t-5.5 9l-2.5 4q-1 2 -2.5 4t-3.5 4.5t-3.5 4.5t-1.5 3q-1 1 -3 2.5t-4 4l-4 5t-2 4.5h5l3.5 -3.5t7.5 -8t8.5 -9l7.5 -7.5q6 -9 12.5 -19t11.5 -21t8.5 -22.5t3.5 -22.5l-0.5 -2.5t-0.5 -3.5t-1.5 -4.5
t-3 -7.5t-3 -7.5t-1.5 -5.5v-4v-6v-5v-5t1 -3t2 -2l17 -3q1 0 1.5 -0.5t0.5 -1.5v0v-1q-2 -2 -4.5 -2.5t-5.5 -1t-5.5 0t-4.5 0.5h-1.5h-0.5q-2 0 -6.5 0.5t-9.5 1t-9.5 1t-5.5 0.5v4h23v3v4v3.5v2.5v2.5t-0.5 3.5t-0.5 4v3q0 5 1 9.5t2.5 9l3 9t1.5 9.5v2v4q0 1 -0.5 2.5
t-0.5 2.5zM79 154q2 0 3 2t1 5v6v4q1 8 4 17t7.5 18t9.5 16.5t11 12.5l3 3l4 4t4.5 3t4.5 1q0 -2 -2.5 -6t-5.5 -8t-6.5 -8t-4.5 -6q-1 -1 -2.5 -4l-3 -6t-3 -5.5t-1.5 -3.5q-9 -23 -13 -48.5t-4 -50.5v-1l2 -3q1 0 4 -0.5t6.5 -1t6.5 -1t5 -0.5l3 -2v0v-1l-1.5 -1.5
l-0.5 -0.5h-20l-3 -1l-0.5 -3.5t-0.5 -8.5t-0.5 -10.5t-0.5 -8.5v-3v-3v-3v-2q5 0 8.5 3t6.5 7t6.5 7t8.5 3h1.5t1.5 -2q0 -1 -2 -3l-4 -4l-4 -4l-3 -3l-1.5 -1.5t-3 -3.5t-3 -3.5t-1.5 -2.5q-3 -3 -4 -6.5t-2.5 -6.5t-2.5 -6.5t-4 -6.5q-3 1 -4.5 4t-2.5 6.5t-1.5 7.5
t-2.5 7t-7 9t-10.5 11.5t-9.5 11t-4 7.5q4 0 7.5 -1.5t6.5 -4.5t5.5 -6.5t5.5 -6.5q1 -1 2.5 -2t3 -2.5t3 -2.5l1.5 -1l3 2v6v7.5v9.5t-0.5 9t-2.5 5q-8 1 -16.5 1.5t-16.5 0.5q-2 0 -2 1.5v2.5q0 4 3.5 4h5.5q6 0 11.5 -1t10.5 -1h2.5t2.5 2l-0.5 3l-0.5 3q-3 16 -6 32.5
t-7.5 32t-11.5 30t-16 28.5v1q0 1 1 1.5t2 0.5h2q6 -4 12 -13t10.5 -20.5t8 -22.5t5.5 -19q0 -1 1 -1h2zM105 170q2 2 5 3t7 1.5t7.5 0t5.5 -0.5h10t12 -0.5t11.5 -1.5t9.5 -4l-2 -3h-17l-3 -2v-3.5v-8.5t0.5 -10t0.5 -9q0 -2 1 -5.5t2 -5.5q4 2 5.5 4.5t2 6t1.5 7t4 5.5
q0 1 2 2.5t3.5 3.5t3 3.5t2.5 1.5t1 -1v-2q0 -2 -1.5 -4.5t-2.5 -4.5t-3 -5.5t-4 -7.5t-3.5 -8t-2.5 -6v0v-1l2.5 -2.5l2.5 -2.5v-1v0q0 -1 -0.5 -1.5t-1.5 -0.5v0h-1v0v0l-16 8l-0.5 1.5l-1 3t-1 4.5l-0.5 3v7.5v10.5v11v7l-2 2h-11q-1 0 -1 -1.5v-3v-1.5q0 -7 1 -14t1 -15
q0 -11 -7 -18.5t-17 -12.5h-1v0q-1 0 -1.5 0.5t-0.5 1.5l0.5 1.5t1.5 1.5l1 1.5l2 3t1.5 3t1.5 1.5v1.5v0.5v0.5v0.5q-1 2 -2.5 6l-3 8t-3.5 7.5t-2 5.5q-1 2 -3.5 5.5t-2.5 6.5v2.5t1 1.5q3 -3 6.5 -8.5t6.5 -11.5t5.5 -10.5t3.5 -4.5q2 0 3.5 1.5t1.5 3.5v36l-2 1
q-1 0 -3 0.5t-4.5 0.5t-5 0.5l-2.5 0.5q-1 0 -2 0.5t-2 1.5zM142 77v27h2l0.5 -1.5l1 -3t1 -3.5t0.5 -3q3 -11 6.5 -21.5t8.5 -22.5q0 -1 2 -4t4.5 -6t4 -5l1.5 -2q0 -2 -2 -3t-4.5 -1.5t-5.5 -0.5h-4h-2h-5h-5h-4h-8h-6t-6 1t-7 3q-1 0 -1.5 0.5l-0.5 0.5q3 5 9 9.5
t10 10.5q2 3 2.5 6.5t1.5 6.5t2.5 6.5t3.5 5.5zM132 37v0q0 -1 1.5 -2l1.5 -1h26q0 3 -1.5 7.5t-3.5 9t-4.5 9t-4.5 6.5v0.5v0.5q-1 0 -2.5 -2.5t-2.5 -5l-2 -5t-2 -3.5q0 -1 -1 -3l-2 -4t-2 -3.5t-1 -2.5v-1zM176 48v1q0 1 0.5 1.5l0.5 0.5h34q0 -1 -1.5 -2t-3.5 -1.5
t-3.5 -1l-1.5 -0.5h-2h-3h-3h-3h-3h-2.5h-3.5h-2q-1 0 -2 0.5t-1 1.5v0z" />
</svg>
