<?xml version="1.0" standalone="no"?>
<!DOCTYPE svg PUBLIC "-//W3C//DTD SVG 1.1//EN" "http://www.w3.org/Graphics/SVG/1.1/DTD/svg11.dtd" >
<svg xmlns="http://www.w3.org/2000/svg" xmlns:xlink="http://www.w3.org/1999/xlink" version="1.1" viewBox="-10 0 266 256">
   <path fill="currentColor"
d="M48 239q0 2 1.5 3.5t4.5 1.5q2 0 4 -2l3 -3v-45t1 -43.5t2.5 -43t3.5 -43.5q1 -8 5 -12t9.5 -5.5t11.5 -2t11.5 -1t9 -2t3.5 -5.5q0 -1 -1 -1.5t-2 -0.5h-2h-2q-9 0 -18.5 1t-18 4t-14 10t-5.5 18q0 1 -0.5 6.5t-0.5 12.5t-0.5 13.5t-0.5 9.5v3v5v5v3q0 1 -0.5 2
t-0.5 2.5t-0.5 2.5t-0.5 2l1 2t1 3v3q0 4 -0.5 6t-1.5 5q1 21 0.5 43t-3.5 43zM128 228q16 8 32 11t33 3q4 0 7.5 -1t4.5 -6l-0.5 -1.5l-0.5 -1.5q-8 0 -16.5 -0.5l-17 -1t-17 -2.5t-15.5 -7q2 -4 5 -7.5t7.5 -7t8.5 -7t6 -6.5h0.5h1.5q5 0 7 3t4.5 6.5t6 7t10.5 3.5
q2 0 3.5 -0.5t1.5 -3.5v-1.5t-1 -2.5q-1 0 -3 -1.5t-5 -3.5t-5 -3.5t-3 -1.5l-2.5 -2.5t-3 -3.5t-3 -3t-1.5 -2v-24q9 0 14.5 -3t8 -7.5t3.5 -11.5t1 -15v-4v-4t-0.5 -6t-0.5 -5.5v-3.5q-1 -4 -3.5 -6t-6 -3.5t-5.5 -3t-2 -6.5t1 -10t3 -10.5t4.5 -10.5l4.5 -9t4.5 -7.5
t2.5 -7.5v0v-1l-3 -4.5t-4 -1.5q-4 0 -6 3.5t-3 8.5t-2 9t-4 6q-7 1 -12.5 1.5t-11.5 0.5q-5 0 -7 -3.5t-3 -8t-2.5 -8t-6.5 -3.5q-3 0 -4 0.5t-1 3.5q0 1 1 3.5t2.5 5.5t3 5t1.5 3q3 9 5.5 19t2.5 19q0 4 -1.5 6.5t-4 4.5l-5 4t-2.5 7v3v5.5v5.5v3v5v5.5v4.5v3q0 2 0.5 5.5
t1.5 4.5q0 1 1 2.5l2 3t2 2l1 0.5h20q0 3 0.5 7t0.5 7.5t-1 7t-3 5.5q-1 1 -2 2.5t-3 3t-3.5 3t-1.5 2.5q-2 2 -3 4t-2 3t-2.5 1.5t-5.5 0.5v-1q-3 -3 -2.5 -8.5t0.5 -8.5q0 -1 -0.5 -3t-0.5 -4.5t-0.5 -5t-0.5 -3.5q-1 -1 -2.5 -1.5t-3.5 -0.5q-4 0 -4 3v6v3v2q0 3 1 9
t1.5 13t1 13.5t1.5 8.5zM145 140v-3.5v-2.5q1 -2 3 -3.5t4 -2.5l28 -3q4 0 6 3t2 6v5t-1 5.5t-2.5 4.5t-4.5 2h-30q-2 0 -3 -1t-1.5 -3t-0.5 -4v-3zM76 108v10t0.5 12.5t2.5 11.5t6 8h3h4q7 0 11 -1t10 -7q2 -3 3 -7l2 -8v-42q0 -4 -2 -6t-4.5 -3t-5.5 -1.5t-5 -0.5
q-9 0 -14.5 2t-7.5 6t-2.5 10.5t-0.5 15.5zM88 139q-1 -8 -1.5 -14t-0.5 -14q0 -4 0.5 -9.5t1.5 -10t4.5 -7.5t9.5 -3q4 0 5.5 1.5t2 4.5t0.5 6v6v13.5t-1 13.5t-5 10.5t-12 4.5h-2.5t-1.5 -2zM143 118v-3.5v-3.5q0 -6 2.5 -9.5t6.5 -5t9 -1.5h9q5 0 8 0.5t5 2t3 4t1 7.5v7
q-9 2 -18 3t-17 1h-5q-2 0 -4 -2zM157 85q-2 -6 -2 -9.5v-9.5v-6q1 -2 3 -3.5t4.5 -1.5h5.5h5h3.5t1.5 3v2q0 4 -1 8.5t-2 8.5t-3.5 7t-7.5 3q-2 0 -4 -0.5t-3 -1.5z" />
</svg>
