<?xml version="1.0" standalone="no"?>
<!DOCTYPE svg PUBLIC "-//W3C//DTD SVG 1.1//EN" "http://www.w3.org/Graphics/SVG/1.1/DTD/svg11.dtd" >
<svg xmlns="http://www.w3.org/2000/svg" xmlns:xlink="http://www.w3.org/1999/xlink" version="1.1" viewBox="-10 0 266 256">
   <path fill="currentColor"
d="M191 213q2 0 4 2.5t3 5.5l2 6t1 5q0 1 1 3.5t2 5.5t1.5 6t0.5 4h1.5h1.5q2 0 4 -1t2 -3q0 -6 -3 -12t-6 -11.5t-5.5 -11t-2.5 -9.5q0 -6 2.5 -11.5t2.5 -11.5v-8q-3 -3 -6.5 -4.5t-6.5 -2.5h-13q-11 0 -22.5 0.5t-23.5 4.5l-0.5 0.5t-0.5 1.5l0.5 1.5l0.5 1.5h6
q9 0 17 -1.5t17 -1.5q5 0 9.5 -0.5t8 0.5t6 3.5t2.5 8.5q0 1 -0.5 3t-1 3.5t-1.5 2.5t-3 1q-3 0 -6 -2t-7 -3h-3h-3.5h-4.5h-2h-10t-14 0.5t-12.5 2.5t-5.5 6q11 0 22 -1t22 -1h13q3 0 4 1.5t1 4.5q0 2 -3.5 4t-8.5 3.5t-11 3t-12 2.5t-11 1.5t-8 1.5l-0.5 0.5t-0.5 1.5v1v1
l1 1q1 0 3.5 0.5t3.5 0.5q13 0 25.5 -4t24.5 -7h3zM77 246q0 1 1 1h2h2t3 -1v-3.5t0.5 -5t1 -4.5t0.5 -3v-2q0 -7 -2 -13t-2 -12v0q0 -2 0.5 -6t1.5 -5v-125q0 -3 4 -3.5t9 -0.5t9.5 -1t4.5 -4t-4 -3q-13 0 -26 0.5t-25 0.5h-4q-2 0 -4 0.5t-4 1.5t-2 4l0.5 1.5t1.5 1.5h28
l2 2v7.5t0.5 19.5t0.5 27.5v31t0.5 30t0.5 25.5v38zM50 226q0 2 1 2h3t3 -1t1 -4q0 -1 0.5 -3t1 -4.5t0.5 -4.5v-3v-128q0 -2 -1.5 -3.5t-3.5 -1.5q-1 0 -2 0.5t-2 1.5q1 37 0 72t-1 72v5zM103 215q0 1 0.5 3.5t1.5 4.5l2 4t3 2t3.5 -1t1.5 -3q0 -7 -2.5 -14.5t-2.5 -14.5
q0 -1 -0.5 -2.5t-0.5 -3.5t-0.5 -4l-0.5 -2q-2 -26 -2 -53.5v-53.5l-3 -3q-1 0 -2 1.5t-1 3.5v8.5v13.5v14v8v24v22t1 22t2 24zM159 109q2 0 3 0.5t1 3.5v43q0 3 0.5 4.5t2.5 1.5t3 -1.5t1 -4.5v-39q0 -3 1.5 -5t4.5 -2q2 0 4.5 1t2.5 4l3 39l4 2l1 -3v-3.5v-4.5v-17t-1 -18
q-3 -6 -9 -8t-11 -1q0 -1 -0.5 -2.5l-0.5 -1.5v-1q0 -2 0.5 -3.5t0.5 -2.5t1 -1h24q2 0 3.5 1t2.5 3t1.5 4t0.5 4q0 1 0.5 4.5t0.5 7t0.5 6.5t0.5 4q1 2 1 4v4q0 5 -0.5 9.5t-0.5 9.5q0 2 1 2.5t2 0.5q2 0 3 -1t2 -3v-12q0 -3 -0.5 -12t-2 -19t-5 -17.5t-9.5 -7.5h-25
l-0.5 -1l-0.5 -1q-1 -2 -2 -3.5t-3 -1.5l-0.5 1t-1 2.5l-1 3l-0.5 1.5q-14 1 -21.5 3t-11.5 6.5t-4.5 13t-1.5 22.5v6v8.5v8.5v6h5q0 -2 0.5 -6t0.5 -8.5t0.5 -8.5t0.5 -6q0 -8 0.5 -15t2.5 -12t7 -8t14 -3q4 0 6.5 0.5t4.5 4.5q1 5 -1.5 6t-6.5 2.5t-7.5 4t-4.5 8.5
q0 1 -0.5 3t-0.5 4.5t-0.5 4t-0.5 2.5v5.5v9v9.5v6q1 0 2.5 -0.5t2.5 -2.5q0 -2 0.5 -6t0.5 -9t0.5 -9.5t0.5 -6.5t0.5 -4.5l1 -5t2.5 -4.5t5 -2zM130 63q0 4 3 4q24 0 48 -5q3 -1 4.5 -2.5l3 -3t3 -2.5t2.5 -1q3 0 4.5 1.5l3 3t3.5 3t4 1.5t4 -0.5t2 -2.5q0 -3 -2 -5.5
t-4.5 -4.5t-5 -4.5t-3.5 -5.5v-8.5t-0.5 -6.5t-2 -5.5t-4.5 -5.5q-8 -1 -14 -1h-14h-9h-8t-8.5 0.5t-9.5 0.5q0 1 -1 1.5l-1 0.5v0.5v0.5q0 2 2 3t3 1q0 1 1 1t1 -1h6t10.5 -0.5t10.5 -0.5h6h6h6t5.5 1t4 2.5t1.5 5.5v2t-0.5 2.5t-1 2.5t-1.5 1h-65q-2 0 -2.5 2t-0.5 3v1v1
q1 0 4 0.5t4 0.5h2h1q1 0 3 -0.5l2 -0.5h44q2 0 5 1.5t3 4.5q0 2 -4 3.5t-10 3t-13 2.5t-13 1.5t-11 1t-7 1.5v1zM55 33v0.5v0.5l2 2l1 1h44l1.5 -1.5t2.5 -3.5v0v-1q0 -1 -0.5 -1.5l-0.5 -0.5h-6h-5h-9.5h-8.5t-8.5 0.5t-10.5 1.5q-1 0 -1.5 0.5l-0.5 0.5v1z" />
</svg>
