<?xml version="1.0" standalone="no"?>
<!DOCTYPE svg PUBLIC "-//W3C//DTD SVG 1.1//EN" "http://www.w3.org/Graphics/SVG/1.1/DTD/svg11.dtd" >
<svg xmlns="http://www.w3.org/2000/svg" xmlns:xlink="http://www.w3.org/1999/xlink" version="1.1" viewBox="-10 0 266 256">
   <path fill="currentColor"
d="M77 249q0 1 1.5 1.5l1.5 0.5q4 -2 5.5 -5.5t1.5 -6.5q0 -31 -2.5 -62t-2.5 -62h5.5t4 1t2.5 3.5t0 6.5q1 10 2 20.5t1.5 21.5l1 22t0.5 21v2q0 1 -0.5 3.5l-0.5 2.5q0 1 1 3t3 2t3 -3t1.5 -7t0.5 -7v-5v-5.5v-4.5l-0.5 -3t-1 -6.5t-1 -6.5t-0.5 -4q-1 -8 -0.5 -19
t-1 -21.5t-6 -19t-14.5 -12.5v-3v-2q0 -5 1.5 -6.5t4.5 -2t6 -1.5t5 -5q6 -8 8 -19.5t2 -22.5q0 -2 -1.5 -4t-3.5 -2t-3 3.5t-1 8.5t-0.5 11.5t-1.5 11.5t-3 8.5t-7 3.5q-4 0 -5 -2.5t-1 -6.5q0 -8 0.5 -16.5t2.5 -16.5q1 -6 5 -10t8.5 -6t8 -3.5t3.5 -3.5v-1.5t-1 -1.5
h-3.5h-2.5q-3 0 -8 1t-9 3.5t-7 6t-3 7.5v49q0 1 -1.5 1h-2.5q-2 0 -4 -1.5t-3.5 -3.5t-2.5 -4.5t-1 -4.5v-6.5v-10.5v-9.5v-6.5l-2 -2t-3 -1t-3 1.5t-1 3.5v3v17t1.5 16t6 12.5t14.5 5.5q2 2 2 4v4v5q-12 3 -17 10.5t-7 17.5t-2 20.5v19.5v11.5v17.5v17v11q4 0 6.5 -2
t3.5 -6q-2 -47 3 -95q0 -1 0.5 -3t1.5 -3.5t2.5 -3t2.5 -1.5h1q1 1 1.5 2.5t1 3.5t0.5 3v2q0 4 0.5 12.5t1 17.5t1 17t0.5 10t0.5 7.5t0.5 12.5v15v14t-0.5 12.5t-0.5 7.5zM150 246q0 1 0.5 2l0.5 1h0.5h0.5q1 0 2.5 -1.5t2 -4t0.5 -4.5v-2v-45q0 -1 2 -1.5t3.5 -0.5t3 -0.5
t1.5 -2.5v-1q-1 0 -2 -0.5t-1 -1.5q-1 0 -3 0.5t-4.5 1t-4.5 0.5h-2h-3t-4.5 0.5t-4.5 1.5t-2 3l0.5 0.5l0.5 0.5l1.5 0.5t3 0.5t3 0.5l1.5 0.5q1 0 1.5 0.5t0.5 1.5v2t0.5 4t1 3.5t0.5 2.5v38zM186 192q2 3 3.5 8t2.5 10.5t1.5 11.5t1.5 11t3 8.5t5 3.5q2 0 4 -1t2 -4
q0 -4 -1 -10t-2.5 -12t-4 -11.5t-4.5 -8.5q-1 -2 -1 -7.5t-0.5 -11.5t-1 -11.5t-0.5 -8.5v-4q0 -16 2.5 -30t4.5 -29v-1.5v-2.5q0 -6 -2.5 -10t-7 -6.5t-10 -3t-9.5 -1.5q-1 0 -3.5 -0.5t-3.5 -0.5v-3v-2q0 -7 3.5 -9.5t8.5 -4.5t8.5 -5.5t3.5 -11.5t-1.5 -13t-5 -7
t-8.5 -2.5t-12 -0.5h-4h-4h-4h-2q-2 0 -5 0.5t-5.5 0.5t-4.5 0.5l-2 0.5l-4 3q1 1 2.5 2t2.5 1h43q2 0 2.5 1.5t1 3.5t0.5 4v3v4.5t-1.5 5t-3 4t-4.5 1.5h-1h-1q-4 -5 -7.5 -7.5t-7.5 -3.5t-9 -1.5t-11 -0.5h-10l-2 2t-1 2q-1 0 0 2l1 2h32q1 0 2.5 3l1.5 3v1v1q0 1 -1.5 2
l-1.5 1l-34 3q-2 1 -2 2v2q0 2 2.5 2.5t4.5 0.5q7 0 14 -2t15 -2q2 0 3.5 1t1.5 3q0 5 -3 8t-8 4.5t-10.5 2.5t-10 1.5t-8 1.5t-3.5 3v1q1 0 2 1.5t2 1.5v0v0q5 0 10.5 -1t10.5 -2.5t10 -3.5l10 -4v0h1q6 1 11 2t9 3t6 5.5t2 9.5q0 7 -1 14l-2 14l-2 14t-1 14q0 6 0.5 10.5
l1 9t0.5 9.5v11zM165 204q0 2 3 2.5t5 0.5q3 0 4.5 -2.5t2.5 -5t1 -5.5v-5q0 -10 -4 -13.5t-9.5 -4t-9.5 -1t-4 -4.5q0 -2 3.5 -3.5t7.5 -3t7.5 -5t3.5 -11.5q0 -4 -1 -6.5t-3 -4.5l-4 -4t-4 -5q-1 -1 -2 -4t-2.5 -6t-2 -6t-0.5 -5q0 -4 2.5 -4.5t5.5 -0.5t5.5 -0.5
t2.5 -3.5v-1l-1 -2h-1h-1q-2 0 -6.5 1t-10 1.5t-10.5 1.5t-6 1q-6 1 -8 6t-2 10t1 9t1 8t-2.5 8t-2.5 9q0 8 4 11t8.5 4.5t8 3t3.5 5.5v0.5v0.5q-8 5 -13.5 5.5t-9 2t-5 6.5t-2.5 16q2 3 5 4t6.5 1.5t6.5 0.5h6v-4q-4 -1 -7 -2t-5 -2.5t-3 -4t-1 -6.5v-2t1 -2q9 -4 19 -5.5
t19 -2.5q5 0 8 4t3 8t-1.5 6.5t-4 4.5t-4 3t-1.5 3zM134 151v-1v0l1 -1t2 -1l31 -3v2v1q0 3 -2 5t-5.5 2.5t-7.5 0.5h-6h-9l-2 -2t-2 -3v0zM155 134h4h5l1 1.5t2 1.5v1v1l-0.5 0.5l-1.5 1.5q-7 0 -16 0.5t-17 0.5q0 -4 2.5 -5.5t6 -2t7.5 -0.5h7zM134 111q0 -4 2.5 -7
t6.5 -3q3 0 5.5 3t4.5 6.5t2.5 7.5t0.5 7q-1 0 -2 1.5l-1 1.5h-15q-1 0 -2 -2.5t-1.5 -5.5t-0.5 -5.5v-3.5z" />
</svg>
