<?xml version="1.0" standalone="no"?>
<!DOCTYPE svg PUBLIC "-//W3C//DTD SVG 1.1//EN" "http://www.w3.org/Graphics/SVG/1.1/DTD/svg11.dtd" >
<svg xmlns="http://www.w3.org/2000/svg" xmlns:xlink="http://www.w3.org/1999/xlink" version="1.1" viewBox="-10 0 266 256">
   <path fill="currentColor"
d="M147 146q1 6 2.5 10.5t3.5 9t5 8t8 7.5q7 5 12.5 13.5t8.5 16.5q1 2 3 8t4 12.5t4.5 11.5t4.5 5t2.5 -2.5t0.5 -4.5v-2l-0.5 -1.5t-1 -3.5t-1.5 -3.5l-1 -1.5q-2 -8 -4 -15t-4.5 -13t-6.5 -12t-10 -11q-1 0 -2.5 -1.5l-3 -3l-2.5 -2.5l-2 -2v-2q0 -4 2 -6.5t3 -6.5v-3.5
v-3.5t1 -3.5t4 -1.5q12 0 19 -1.5t10 -5t4 -10.5t2 -19v-3v-5q0 -1 -0.5 -5l-1 -8t-2 -7t-4.5 -3h-28q0 -1 -0.5 -4.5t-0.5 -4.5q1 -6 5.5 -8.5t9.5 -4.5t9 -3.5t4 -5.5t-4 -6t-7 -4q-4 -2 -8 -5.5t-7.5 -7t-7 -6.5t-5.5 -3q-3 0 -5.5 2t-5 4.5t-4.5 5.5t-3 4q-3 3 -6 5
t-5.5 3.5t-5.5 3t-6 3.5q1 2 5.5 3.5t9.5 4t9 6.5t4 10q0 2 -0.5 5.5t-1.5 3.5h-12q-2 -5 -6 -10t-10 -5v1v1q1 0 1.5 2t1.5 4.5t2 4t1 2.5q-2 3 -5 4t-5 4q0 1 2 1h3.5t3 0.5t1.5 2.5q0 3 -1 5.5l-2 5l-2 5t-1 4.5q3 0 6 -3t5 -7t3 -7.5t2 -5.5q2 -2 6 -1.5t6 0.5v5v5
q0 3 -0.5 9t-0.5 13.5t-0.5 14t-0.5 8.5h-12l-1 -3t-2 -5l-2 -6t-6 -4v18l-0.5 0.5l-0.5 0.5q-1 1 -2.5 2t-2.5 1v1q0 1 0.5 1.5t1.5 0.5t1.5 0.5t0.5 2.5t-1 3.5t-2 3.5t-2 3.5t-1 3.5q4 0 6.5 -2.5t4.5 -6t3 -6.5t2 -3h14zM46 237v1l1.5 0.5l1.5 0.5h1q6 0 11 -4.5
t9 -10.5t7.5 -12.5t5.5 -9.5q0 -1 1 -2t2 -1q4 3 5.5 7t3.5 8q3 4 4.5 6.5t3.5 4t5 3t7 4.5l3 1.5t2 0.5t1.5 0.5t1.5 0.5q2 0 3 -0.5t1 -2.5v0v0q-2 -3 -6.5 -5.5t-7.5 -5.5q-5 -5 -9.5 -11t-8 -13t-5.5 -14.5t-2 -14.5q0 -2 -0.5 -6t-0.5 -8t0.5 -8t0.5 -6
q-1 -1 -1.5 -3.5t-2.5 -2.5h-1q0 1 -0.5 1.5t-1.5 0.5q1 12 0 26t-1 26q-3 3 -4.5 6.5t-2.5 7l-2 7t-3 6.5l-4.5 4.5t-7.5 7t-7 7zM49 205v1.5t2 1.5q1 0 4.5 -3t7 -7.5t6 -8.5t2.5 -7v-28q0 -1 -1 -3l-2 -4t-3 -3.5t-3 -1.5h-1l-1 1v1q0 6 1.5 12.5t1.5 12.5v8t-2 8
q-1 2 -3 4.5l-4 5t-3.5 5t-1.5 5.5zM99 139v5v8.5t0.5 8t0.5 5.5q0 3 0.5 8.5t2.5 11t5.5 10t9.5 4.5q0 -4 -2 -7t-4 -6.5t-4 -6.5t-2 -7q-1 -7 -1.5 -16t-1.5 -17q-1 -1 -4 -1zM155 152q0 -5 1.5 -6.5t6.5 -1.5l0.5 2.5t0 5.5l-1 6t-2.5 3q-3 -2 -4 -4t-1 -5zM154 124v-9
t0.5 -13t1.5 -12.5t2 -7.5h2h2h3t2 2v21q0 3 0.5 7.5t0 8.5t-0.5 8.5t-1 7.5q-2 2 -2.5 2h-2.5q-3 0 -4.5 -1.5t-2 -4t-0.5 -5v-4.5zM181 132v-0.5v-0.5q1 0 2.5 -2.5t2 -3l2 -2l1.5 -1.5l8 6v1q0 3 -3.5 4t-5.5 1h-4t-3 -2zM58 114v1q1 2 1 5t0.5 5.5l0.5 2.5l3 3
q2 -3 3 -9t2.5 -12t4.5 -10.5t7 -4.5h2t2 2v31q0 1 1 1.5l1 0.5h1h1q1 -3 2 -7.5t2 -9.5t1 -9t1 -7q0 -1 1.5 -1.5t2.5 -0.5q2 0 2 0.5t1 3.5q3 7 3.5 14.5t1.5 14.5q0 2 2 2h3v-3.5v-4.5t-0.5 -4.5l-1 -7t-0.5 -6v-3.5q-1 -4 -2 -6.5t-3 -4t-5 -2.5t-7 -3v-1v-1
q0 -3 1.5 -4.5t3.5 -2.5l4 -2t3 -2q1 -3 2.5 -6t2.5 -6.5t2 -7.5t1 -7v-1.5t-1 -1.5t-2 0.5l-1 0.5q-3 13 -8 23q-1 1 -2 1h-2h-1.5h-2.5v-30q2 -1 5.5 -2.5t3.5 -5.5v-1v-2.5t-0.5 -3t-0.5 -3v-1.5q0 -1 -0.5 -1.5t-1.5 -0.5l-2 2l-4.5 4.5l-5.5 5.5t-5 3q-3 2 -7.5 3
t-8.5 2t-8 2.5t-6 4.5q0 1 0.5 1.5t2.5 0.5q8 0 14 -2t13 -4h2q1 0 2 0.5t1 1.5v6t-0.5 10t-2 9t-2.5 4q-5 0 -7.5 -3t-4.5 -7t-3 -7.5t-4 -3.5h-0.5h-0.5q0 1 -0.5 2l-0.5 1q0 2 0.5 5t1.5 7t3 7t4 4q2 0 4.5 0.5t4.5 1t3.5 1.5t1.5 4t-2.5 4.5t-6.5 2.5t-7 2.5t-4 4.5
l-0.5 1t-0.5 2.5t-0.5 3t-0.5 2.5l-0.5 1t-1 2.5l-1 3t-0.5 2.5v0zM174 124v-23l1 -1q1 1 2 3t2.5 4t2.5 4t1 3q0 3 -2.5 7t-5.5 6zM193 114l0.5 -2.5t1.5 -5.5t2.5 -5t2.5 -2h1l0.5 0.5l0.5 0.5q0 1 0.5 4t0.5 4v2.5t-0.5 4.5t-1.5 4t-2 2h-1q-1 -1 -2.5 -3t-2.5 -3v-1z
M179 87v-1.5v-1.5q3 -2 5 -2h5h2h2q2 2 2 2.5v2.5q0 1 -0.5 3.5t-1.5 4.5t-2.5 3.5t-3.5 1.5h-1q-4 -3 -5.5 -6t-1.5 -7zM144 43q0 -3 0.5 -3.5l2.5 -2.5q1 -1 3.5 -2.5t4.5 -3.5t4.5 -3.5t3.5 -2.5h1h1q2 0 5.5 2.5t7.5 5.5t6.5 6.5t2.5 5.5v1.5t-1 1.5q-1 0 -3.5 1t-5 2.5
t-4.5 2.5t-3 1q0 1 -1 1.5l-1 0.5v18q0 1 -1.5 1h-3.5h-1q-5 0 -5.5 -2.5t-0.5 -6.5v-8t-2 -7q-1 -1 -2.5 -2t-3 -2.5t-3 -2.5t-1.5 -2z" />
</svg>
