<?xml version="1.0" standalone="no"?>
<!DOCTYPE svg PUBLIC "-//W3C//DTD SVG 1.1//EN" "http://www.w3.org/Graphics/SVG/1.1/DTD/svg11.dtd" >
<svg xmlns="http://www.w3.org/2000/svg" xmlns:xlink="http://www.w3.org/1999/xlink" version="1.1" viewBox="-10 0 266 256">
   <path fill="currentColor"
d="M50 248q0 1 1.5 2l1.5 1h1h1q1 -1 3 -2.5l2 -1.5v-17l1 -3q0 -25 1 -49t1 -49v-19t-2 -19q0 -2 2.5 -3t5 -2.5t5.5 -2t5 -1.5q0 -1 2 -2t4 -2.5t4 -2.5l2 -1q4 -3 6 -9t4 -10l1 -3q4 -2 8 -2.5t8.5 -1t9 0t8.5 0.5h4q1 11 3.5 17t6.5 8.5t11.5 2.5h18.5q2 1 3 5
q4 33 6 66.5t5 67.5l2 6v22q1 2 2 2.5t3 0.5q5 0 6.5 -3t1.5 -7q0 -2 -0.5 -5.5l-1 -7l-1 -7t-1.5 -6.5q0 -1 -1 -8t-2 -15t-2 -15t-1 -8q-3 -28 -5.5 -57t-4.5 -57q-1 -2 -3.5 -5t-5.5 -3q-13 -2 -27 -2h-27l-3 -1v-2v-3q0 -4 1 -7t1 -7q0 -2 -1.5 -5.5t-5.5 -3.5
q-3 0 -3 3v28h-6.5t-10 0.5t-10.5 0.5h-6t-3.5 1t-6 1.5t-6.5 1t-5 1.5q-3 1 -5 5.5t-3 10.5t-1 11.5t-1 7.5v7v9v10v6q0 14 1 28t1 28q0 17 -1.5 34.5t-1.5 35.5v6zM70 209v1q1 0 1.5 0.5l0.5 0.5h16q21 0 41 -1t41 0q8 0 12 -7q-1 -1 -2.5 -1.5t-2.5 -1.5q-3 0 -7.5 0.5
t-9.5 0.5t-9.5 -1.5t-5.5 -5.5v-28v-14v-12.5t0.5 -13t0.5 -14.5q2 -3 5 -4.5t5.5 -3t4.5 -4t2 -7.5q0 -2 -1 -5.5t-4 -3.5t-3.5 3.5t-2 7t-4.5 7t-9 3.5h-37q-3 0 -4 -2.5t-2 -5.5t-2 -5.5t-5 -2.5q-2 0 -2.5 2t-0.5 4q0 7 3.5 10.5t8 6t8 4t3.5 5.5q0 3 -0.5 5t-1.5 5v69
l-3 4h-30q-1 0 -2 1.5t-2 2.5v1zM117 197v-80q0 -1 1.5 -1.5t3.5 -1t4.5 -0.5h2.5q3 0 5.5 0.5t2.5 3.5v15.5t0.5 13t1 12.5t0.5 13v5q-1 3 -1 6.5t-0.5 7t-0.5 6v2.5l-1 1h-16zM80 186q0 1 1 4t2 3q3 0 4.5 -3t2 -6.5t0.5 -7v-5.5v-8t0.5 -13t0.5 -13v-8v-0.5v-0.5
q0 -2 -1 -4t-3 -2q-1 0 -2.5 0.5l-1.5 0.5q1 16 -1 32t-2 31zM163 182q0 1 1 1h2q3 0 3.5 -3.5t0.5 -5.5q0 -7 -0.5 -13l-1 -12t-1 -12.5t-0.5 -13.5q0 -1 -1.5 -1.5t-2.5 -0.5l-1 0.5l-1 0.5l-1 2.5t-1 3.5v3v5v5v3v10q0 4 0.5 8.5l1 9t2.5 10.5zM63 74l1 -14
q0 -2 2.5 -3.5t5.5 -2.5t6.5 -1.5t5.5 -0.5h3h3q2 1 1.5 3l-0.5 2q0 5 -2 8.5t-5.5 6t-8 4t-9.5 1.5q-1 0 -2.5 -0.5t-0.5 -2.5zM148 55v-4q6 -2 9.5 -2h8.5q6 0 10 1.5t4 8.5v1q0 2 -1 4.5l-1 2.5h-22q-2 0 -3.5 -1t-2.5 -3t-1.5 -4t-0.5 -4z" />
</svg>
