<?xml version="1.0" standalone="no"?>
<!DOCTYPE svg PUBLIC "-//W3C//DTD SVG 1.1//EN" "http://www.w3.org/Graphics/SVG/1.1/DTD/svg11.dtd" >
<svg xmlns="http://www.w3.org/2000/svg" xmlns:xlink="http://www.w3.org/1999/xlink" version="1.1" viewBox="-10 0 266 256">
   <path fill="currentColor"
d="M108 248q0 3 1 3.5t3 0.5q5 0 11 -4.5t11.5 -12t10.5 -17t8.5 -18.5t6 -17t2.5 -13v-2v-3v-3v-2q-2 -6 -7 -8.5t-10.5 -4t-10.5 -3t-7 -6.5v-5v-4.5t2 -4.5q16 -3 34 -3.5t35 -1.5l3 -1.5t1 -3.5v-2.5t-1 -1.5h-12q-16 0 -32.5 2t-32.5 3h-8.5t-12 0.5t-14 0.5h-14.5
h-12.5h-7.5l-1.5 3t-0.5 2q0 2 2 3.5t5 1.5h5.5h4.5q10 0 20.5 -1.5t21.5 -1.5q4 0 5 1.5t1 4.5t-1 6t-1 6q0 6 5.5 8t12.5 4t12.5 5t5.5 11q0 10 -2 16.5t-7 13.5q-5 6 -9 12t-7.5 12t-8 12t-10.5 11v2zM77 92v1q0 1 0.5 2l0.5 1h3h3.5h3.5h3h3h4h4h1q1 0 4.5 -0.5t7 -0.5
h6.5h4q3 0 8.5 -0.5t12.5 -0.5t13.5 -0.5t12.5 -1t9.5 -2t3.5 -2.5q0 -3 -1 -3.5t-4 -0.5h-4h-11t-16 0.5t-19 0.5t-19 0.5t-16 1t-11 0.5q-1 0 -4 1t-3 4zM88 43v31q0 1 1 1.5t2 0.5q2 0 2.5 -0.5l1.5 -1.5l3 -1v-24l1 -1t1 -2h1q3 0 6 1.5t5 3.5l4 4t5 3q2 2 7.5 3t8.5 1
h2h2q1 -1 2.5 -3t3.5 -4t4 -3.5t3 -2.5t5 -4t7 -3q0 6 -0.5 12t-0.5 12q0 2 1 4.5t3 2.5q3 0 5 -2.5t2 -4.5v-17l1 -1l2 -2v0v0q4 0 7 3t6 6.5t5.5 6.5t4.5 3t4.5 -1t2.5 -4q0 -5 -5 -9.5t-10.5 -8.5t-11 -7.5t-6.5 -7.5q-1 0 -0.5 -1.5t1.5 -3t1.5 -2.5t0.5 -2
q0 -3 -2.5 -4t-4.5 -1h-3q-1 6 -3 10.5t-5 8t-7 6.5l-8 6t-6.5 5.5t-7.5 2.5h-3h-0.5t-1 -0.5l-2.5 -2.5t-6 -5t-8.5 -6t-8 -5.5t-3.5 -3.5l0.5 -2t0.5 -3v-3q0 -3 -1.5 -6t-6.5 -3l-0.5 0.5l-0.5 0.5l-1.5 3t-0.5 2.5t0.5 3t-0.5 4.5q0 1 -3.5 4t-7.5 6.5t-7.5 6t-4.5 3.5
t-3 2t-4.5 2.5t-4.5 3l-2 1.5q-2 2 -2.5 5t-0.5 5q6 0 11 -2t9.5 -5t9 -7t7.5 -8h2z" />
</svg>
