<?xml version="1.0" standalone="no"?>
<!DOCTYPE svg PUBLIC "-//W3C//DTD SVG 1.1//EN" "http://www.w3.org/Graphics/SVG/1.1/DTD/svg11.dtd" >
<svg xmlns="http://www.w3.org/2000/svg" xmlns:xlink="http://www.w3.org/1999/xlink" version="1.1" viewBox="-10 0 266 256">
   <path fill="currentColor"
d="M96 246q5 4 11.5 4.5t13.5 0.5q12 0 19 -2t10.5 -6.5t4 -12.5t0.5 -20v-7t-1 -10.5t-2.5 -9.5t-4.5 -4t-3 3v1v1q0 1 0.5 7t0.5 13t0.5 12.5t0.5 7.5v1q0 6 -2.5 8.5t-6.5 3.5t-8 1h-8h-11q-2 -1 -4 -2.5t-2 -3.5v-3t-0.5 -4t-0.5 -4v-3q0 -7 1 -14.5t1 -14.5v-3
t-0.5 -3.5t-1.5 -3t-2 -1.5q-2 -1 -3 1.5t-2 6.5t-2 9t-1 10t-0.5 9t-0.5 6q0 7 0.5 12.5t3.5 13.5zM46 189v3t3 1q5 0 10.5 -3t11.5 -7t11.5 -8.5t10.5 -8.5q3 -2 7.5 -3t7.5 -3t5 -3.5t4 -2.5t4 -1.5t5 -0.5q5 0 14 4t18 9t18 10.5t14 8.5l2 0.5l2 0.5q3 0 5.5 -2t2.5 -4
q0 -6 -4.5 -10t-12 -7t-16 -5.5t-16.5 -4.5t-13.5 -4.5t-7.5 -5.5v-8q0 -3 -0.5 -6t0 -6t2 -5t5.5 -2t11 4t14 8.5t13 8.5t9 4q7 0 7 -8q0 -3 -4.5 -6.5t-11 -7t-14.5 -6.5t-14.5 -5.5t-11 -5t-4.5 -3.5v-19l-7 -8l-1 -0.5l-1 -0.5q-1 0 -3 1t-2 3v24q0 2 -5 5t-12.5 7
t-16 8.5t-16 8.5t-12.5 7.5t-5 6.5t2 4.5t5 1.5h2q4 -2 11.5 -7.5t16 -10.5t17 -9t13.5 -4q0 7 0.5 12.5t-1.5 12.5q-1 2 -6.5 5.5t-13.5 7.5t-17.5 8.5t-17 9t-12.5 9t-5 8.5zM78 61h1l0.5 1l0.5 1q1 1 1.5 2l0.5 1v24q6 0 9 -0.5t3 -5.5q0 -2 0.5 -6t0.5 -8t0.5 -8t0.5 -6
l1 -1l2 -2h1h1l4 4t4.5 4t5 3.5t4.5 1.5h19q4 0 6 -2t4 -5t4 -5t5 -2l0.5 0.5l1 1t1 2t0.5 2.5v29l1.5 1t1.5 2h1q2 0 3.5 -1.5t2.5 -3.5t1.5 -4t1.5 -4q0 -1 0.5 -4.5l1 -7t0.5 -7t1 -5.5v0q1 0 2.5 1t3.5 2t3 2t1 2q1 0 2.5 1.5l3.5 3.5l3.5 3.5l2.5 2.5h1h1q4 0 7 -3
t3 -6v-1q-1 0 -2.5 -2t-3 -3.5l-3 -3l-2.5 -2.5t-5 -3t-8 -4.5t-7.5 -4.5t-3.5 -4v-19q-2 -1 -3.5 -2t-3.5 -1q-3 0 -4.5 3t-2 7t-0.5 8t-1 6q-1 1 -5 4.5t-9 7t-9.5 6t-5.5 2.5q-2 0 -7 -2t-11 -5.5t-10.5 -6.5t-5.5 -5l-4 -17l-0.5 -0.5l-1.5 -1.5l-1.5 -0.5l-1.5 -0.5
q-1 0 -3.5 2t-2.5 3q1 10 -2 16t-8 10.5t-11.5 9t-11.5 11.5q0 1 -1 2l-1 1q0 4 2.5 4.5t4.5 0.5q5 0 8.5 -2.5t5.5 -5.5t4.5 -5.5t5.5 -2.5z" />
</svg>
