<?xml version="1.0" standalone="no"?>
<!DOCTYPE svg PUBLIC "-//W3C//DTD SVG 1.1//EN" "http://www.w3.org/Graphics/SVG/1.1/DTD/svg11.dtd" >
<svg xmlns="http://www.w3.org/2000/svg" xmlns:xlink="http://www.w3.org/1999/xlink" version="1.1" viewBox="-10 0 266 256">
   <path fill="currentColor"
d="M57 246q0 3 1.5 4t3.5 1q3 0 5 -3t3 -8t1 -10.5t0.5 -10.5t1.5 -8.5t4 -3.5q2 0 3 0.5l3 1.5h29q2 0 2.5 -1t0.5 -2t-1.5 -2.5t-3.5 -1.5h-25q-2 0 -2.5 -1t-0.5 -2q0 -2 1 -3t3.5 -2t4 -1.5t3.5 -1.5l2 -0.5l4 -1t4 -0.5t3 -1q1 0 2 -1t1 -2v0q0 -2 -2.5 -2.5t-3.5 -0.5
q-4 0 -7.5 1.5t-7 3.5t-7 3t-7.5 1h-1l-0.5 -1t-0.5 -2v-1q0 -5 4 -8t9 -5t10.5 -2.5t9.5 -0.5q0 -1 1 -2t2 -1v-0.5v-0.5q0 -2 -2 -2.5t-3 -0.5q-6 0 -13 1t-13 4t-10 8t-4 12q0 4 1.5 6.5t1.5 6.5q0 5 -1.5 10.5t-3.5 11t-3.5 11.5t-1.5 11zM184 248q1 2 2 2.5t3 0.5t4 -2
q0 -1 0.5 -4t0.5 -4q0 -4 -0.5 -6.5t-0.5 -5t-1 -5.5t-2 -7t-2.5 -7.5t-1.5 -7.5q0 -3 2 -7t2 -8q0 -8 -3 -11.5t-8 -5t-11 -2t-12 -0.5l-2 -0.5t-3 -0.5q-2 0 -4.5 0.5t-2.5 3.5q0 2 3 2.5t7 1t9 1t9 1t7 1.5l3 1v12q-5 0 -8.5 -1t-7.5 -2l-8 -2t-8 -1h-5h-4l-3 3
q2 3 6 3.5t9 1t10 0.5t8 3v2q0 2 -1 3.5t-3 1.5h-26l-0.5 1t-0.5 2t-0.5 3t-0.5 3q2 0 5 -0.5t6.5 -0.5h7h4.5l1.5 -0.5l3 -1t2.5 -1t2 -0.5l0.5 -0.5t1.5 -0.5q4 0 6.5 5.5t3.5 12.5t1.5 13.5t-0.5 9.5zM122 150l-62 3q-1 0 -1.5 0.5l-0.5 0.5v3v2q34 0 69 -2t69 -3
q2 0 2 -1v-2v-1.5t-2 -1.5h-63q0 -17 1 -34.5t1 -35.5q0 -1 0.5 -3.5t0.5 -4.5t0.5 -3.5l0.5 -1.5l4 -1h51l7 -2v-1v-1q0 -4 -0.5 -5t-4.5 -1l-2 0.5l-2 0.5h-1.5t-3 0.5t-2.5 0.5h-1q-3 0 -10 0.5t-15 1l-16 1t-12 0.5q-16 1 -32.5 1t-32.5 2q-1 0 -2 1t-1 2v1q0 1 2 2t3 1
q5 0 9 -0.5t9 -0.5h8q2 0 2 2v2q0 5 -3 7.5t-7 5t-7 5t-3 7.5q0 2 0.5 5t1.5 5.5t2.5 4.5t4.5 2q2 0 3 -1.5t1 -3.5q0 -3 -2 -6t-2 -6q0 -2 2 -4.5t4 -2.5q3 0 4.5 2l3 4l3 4t3.5 2t2.5 -1t0.5 -3q0 -1 -1 -2.5t-2.5 -3t-2 -3t-0.5 -3.5v-2v-1t0.5 -2.5t0.5 -2.5v-1v-1.5
t-0.5 -2.5t-0.5 -2v-2v0v-1q3 -2 7 -2h8h10l1 3v1q0 19 -1.5 38.5t-1.5 38.5zM70 141q3 2 7.5 2.5t8.5 0.5q6 0 10.5 -1t7 -3t4 -6t1.5 -10v-4v-4q-1 -2 -2.5 -3t-3.5 -1q-1 0 -2 1t-1 2.5t-0.5 2t-1.5 0.5h-21q-1 0 -1.5 -1t-1 -2.5t-1 -2.5t-2.5 -1q-1 0 -2.5 0.5
t-1.5 1.5v1q0 2 0.5 5.5t1 8t1 8t0.5 5.5zM147 111v13q0 5 1.5 9.5t5 6.5t10.5 2q14 0 18 -6t4 -20q0 -3 -0.5 -6t-5.5 -5q2 -4 4.5 -7.5t2.5 -8.5q0 -3 -2 -5t-5.5 -3l-7 -2t-5.5 -2q-1 -1 -1.5 -2l-1 -2t-0.5 -1.5t-2 -0.5t-3.5 2t-0.5 4v1t1 2.5t1.5 2.5l0.5 1q0 3 -2 5
t-4.5 3.5t-4.5 3.5t-2 5q5 0 8 -2t5.5 -4t4.5 -4t6 -2q2 0 3.5 1.5t1.5 3.5v1q-1 2 -2.5 3.5t-3.5 3t-3.5 3.5t-1.5 4h3t4 0.5t3.5 1.5t1.5 3t-1 3.5t-2.5 2t-3.5 0.5h-4q-5 0 -7.5 -1.5t-4.5 -3t-3.5 -3t-4.5 -1.5zM77 130l2.5 -2.5t2.5 -1.5h16q2 0 2 2v2q0 6 -3.5 7
t-8.5 1q-1 0 -3 -0.5t-4 -1.5t-3 -2.5t-1 -3.5zM153 130q0 -2 2 -3t4 -1h4.5h3.5h5.5t3.5 4q0 3 -3 4.5t-6 1.5h-4.5t-4.5 -0.5t-3.5 -2t-1.5 -3.5zM89 35q1 0 2.5 2.5t2.5 3.5v2.5v4v3.5v3q1 0 2.5 -0.5t2 -0.5t1 -0.5l0.5 -0.5v-14q1 0 3 -1t3 0q1 0 2.5 2t3.5 4t3.5 4
t2.5 3v0h1q2 0 3 -1.5t1 -2.5q0 -4 -2.5 -7.5t-5.5 -6.5t-7 -5.5t-5 -4.5q-2 -2 -2.5 -4t-1 -4.5t-1.5 -4t-4 -2.5q-1 0 -1.5 0.5t-0.5 1.5v1v3v3v2q0 3 -5 7.5t-10 8.5t-9.5 7.5t-3.5 5.5q0 1 2.5 3t3.5 2q2 0 4.5 -3t4.5 -6t4.5 -5.5t5.5 -2.5zM131 49v3q8 0 12.5 -5
t8.5 -12h2h2t2 2l3 15h0.5h0.5q1 0 2 -0.5t1 -1.5v-2.5t0.5 -3.5t0.5 -3.5t1 -2.5q0 -1 1 -2.5t2 -1.5q3 0 6 1.5t5.5 4l4.5 4.5l3 3h1h1q3 0 3.5 -1.5t0.5 -3.5v-2q-2 -2 -4.5 -5t-5.5 -5.5t-6 -4.5t-5 -3h-1.5h-1.5q-2 -1 -2 -3.5v-5t-1 -4.5t-5 -2q-3 0 -3.5 2t-0.5 4v5
t-1 4z" />
</svg>
