<?xml version="1.0" standalone="no"?>
<!DOCTYPE svg PUBLIC "-//W3C//DTD SVG 1.1//EN" "http://www.w3.org/Graphics/SVG/1.1/DTD/svg11.dtd" >
<svg xmlns="http://www.w3.org/2000/svg" xmlns:xlink="http://www.w3.org/1999/xlink" version="1.1" viewBox="-10 0 266 256">
   <path fill="currentColor"
d="M187 127q2 0 3.5 0.5t1.5 3.5v112q0 2 1 5.5t4 3.5q5 0 5 -8v-129q4 -6 6 -11t3 -10.5t1 -11.5v-12v-3v-2.5v-3.5v-2q-1 -5 -5 -8.5t-9 -5t-10 -2t-10 -0.5h-3t-2 2q0 3 2 4t6 1.5t8 1.5t7.5 3t6 7t2.5 14v4t-0.5 6.5t-1.5 6t-2 2.5t-3 -2.5t-5 -5t-7 -5t-10 -2.5h-1.5
h-3.5t-3.5 1t-1.5 2v1q0 1 1.5 2t1.5 2q13 -2 17 2t4 16v7q-2 4 -6.5 5t-8.5 2.5t-7 3.5t-3 7q5 0 10.5 -2t11.5 -2zM76 243v4.5t3 2.5q2 0 3.5 -1.5t2 -3.5t0.5 -4t1 -4v-133l2 -2h3h5h5.5h2.5h3.5t4.5 -1l4 -2t2 -3v-1q0 -1 -0.5 -1.5t-1.5 -0.5h-25q-1 0 -2 -2.5l-1 -2.5
v-23q0 -12 1.5 -24t1.5 -23q0 -3 -2 -4.5t-5 -1.5h-2t-1 2q0 19 -0.5 38.5t-1.5 38.5q-2 4 -5 4.5t-6 0.5h-7.5t-7 0.5t-5.5 2.5t-2 7q7 0 13.5 -1t12.5 -1q1 0 2 -0.5t2 0l2 1t1 1.5v7v11v10.5v7.5q0 25 -1.5 50t-1.5 51zM123 223v5v4l4 3q2 -1 3.5 -4.5t2 -6.5t1 -6.5
t0.5 -5.5v-25v-9t0.5 -16t1 -19.5t0.5 -19.5t0.5 -15.5t0.5 -9.5v-21v-7t0.5 -10.5t0.5 -10t1 -6.5q0 -2 2.5 -2h3.5q7 0 9 7v20q0 35 -2.5 70t-2.5 70v22q0 2 1 2h2q2 0 3 -1t1 -3v-9t0.5 -13.5t0.5 -16v-16.5v-14v-8v-15q1 -18 2.5 -36.5t1.5 -37.5v-18l-1.5 -1.5
t-2.5 -3.5t-2 -3.5l-1 -1.5q0 -1 -0.5 -1.5t-1.5 -0.5q-8 -2 -17 -2h-17q0 3 1 4t3 1.5t3.5 1t3.5 2.5q1 7 1 11.5v10.5q0 38 -2 75t-5 74v2.5v3.5v4v3zM57 127q1 16 -0.5 34t-2.5 33q-2 8 -4 16.5t-2 16.5q5 0 8 -4t4.5 -10t2 -13.5t1 -14.5t0 -12.5t0.5 -7.5
q0 -1 0.5 -5.5l1 -9l1 -9t0.5 -5.5v-3q0 -4 -1 -7t-6 -3q-1 0 -2 1t-1 3zM101 223q1 1 1.5 1h1.5h3t1 -1v-10v-10v-9.5t-0.5 -14t-0.5 -16t-0.5 -16.5t-0.5 -14v-9h-4q0 14 -1 27.5t-1 28.5v1v8.5t0.5 12t0.5 12.5v9zM164 156q0 1 0.5 2.5t1.5 1.5h16q1 0 1 -1.5v-2.5
q0 -4 -4 -4q-1 0 -2 0.5l-1 0.5h-2.5h-3.5t-3.5 0.5t-2.5 0.5v1v1zM63 37v5v8t0.5 7.5t0.5 4.5v5t0.5 6.5t1.5 6.5t2 3l1 -1l1.5 -1.5l1.5 -1.5v-13v-13v-4t-0.5 -5.5t-1 -4.5l-0.5 -2h-7zM101 32v49h1q1 0 1 -1l1.5 -0.5l1.5 -0.5q2 -10 3 -20t1 -19q0 -3 -2.5 -5.5
t-4.5 -2.5h-1h-1z" />
</svg>
