<?xml version="1.0" standalone="no"?>
<!DOCTYPE svg PUBLIC "-//W3C//DTD SVG 1.1//EN" "http://www.w3.org/Graphics/SVG/1.1/DTD/svg11.dtd" >
<svg xmlns="http://www.w3.org/2000/svg" xmlns:xlink="http://www.w3.org/1999/xlink" version="1.1" viewBox="-10 0 266 256">
   <path fill="currentColor"
d="M83 247q0 3 1.5 3.5t3.5 0.5q3 0 5 -2.5t3 -6t1.5 -7.5t0.5 -7q1 0 1.5 -2.5l1 -5l1 -5t1.5 -3.5v0q0 -3 -2 -4.5t-4 -1.5t-2.5 1t-0.5 4q-1 5 -2 9l-2 8t-2.5 8t-4.5 9v2zM116 245q1 2 2 3t3 1q1 0 2.5 -1.5t2.5 -4t1.5 -5t0.5 -4.5q0 -1 -1 -5.5t-1.5 -9l-1 -9
t-1.5 -5.5v-1q0 -1 0.5 -2t1 -2.5t1 -2.5t2.5 -1t5.5 -0.5t8 -1t8.5 -1t6 -0.5h3t3.5 -0.5t2.5 -1t1 -2.5q0 -3 -1 -3h-3q-8 0 -16 1.5t-15 1.5l-2 -1t-3 -1l-1 -0.5l-1 -0.5v-25q0 -2 -1.5 -2h-1.5h-2t-1 2t0.5 6.5t0 9.5t-2.5 9t-6 4q-8 1 -17 1.5t-17 0.5q-1 0 -3 1.5
t-3 2.5q0 2 1 4t3 2q10 0 19 -2.5t18 -2.5q3 0 5 1.5t2 4.5q0 1 -0.5 2.5l-1 3t-0.5 3.5v2v15v16zM140 210q0 2 2 8t5.5 12.5t7 11t6.5 4.5t3.5 -1t0.5 -4q0 -2 -3 -7.5t-6.5 -11.5t-7.5 -11t-5 -5q-2 0 -2.5 1t-0.5 3zM187 237q0 2 1.5 2h2.5q3 0 4 -2.5t1 -5.5v-2.5v-1.5
q0 -2 -1 -5t-1.5 -5.5t-1 -4.5t-1.5 -3l-1 -1q-1 -14 -3.5 -28.5t-5.5 -27.5q-1 -4 -2 -7.5t-1 -7.5q0 -3 1.5 -4.5t3 -3.5l3 -4t1.5 -4v-23l-1 -1t-3 -2t-4 -1.5l-2 -0.5q-2 -1 -6.5 -1.5t-9.5 -1t-9.5 -0.5h-5.5t-1.5 -0.5t-1.5 -0.5q-2 0 -4 0.5t-5 1.5v0.5v1.5
q0 2 3.5 3t8.5 2t11.5 1t11.5 1t8.5 2.5t3.5 4.5q0 1 -0.5 3t-1.5 4.5t-2 4.5t-3 2v0q-1 -1 -3.5 -2.5t-2.5 -2.5q-2 -1 -6 -2t-7.5 -2t-7.5 -1.5t-7 -0.5q-2 0 -5 1t-3 4v1q1 1 1.5 2.5l0.5 1.5h23q1 0 3 1t3.5 2t3 2.5t1.5 2.5q-2 3 -8.5 4t-12.5 1.5t-11 1.5t-5 4v1l6 3
l2 -0.5t5 -0.5h6t5 -1l3 -0.5t4 -0.5h3h2q2 0 2 1q4 24 8 48.5t10 47.5zM91 174q0 1 0.5 3t1.5 3.5t1.5 3t0.5 2.5h5v-4.5t-0.5 -5.5t-2 -5t-4.5 -2q-1 0 -1.5 2t-0.5 3zM137 181q0 1 0.5 2t1.5 1h0.5h0.5q4 -3 7 -7.5t5 -8.5v-1q0 -4 -4 -4q-2 0 -4 2.5t-3.5 5.5t-2.5 6
t-1 4zM66 151q0 2 0.5 3t2.5 1q4 0 6 -4t2.5 -9t0.5 -10v-7v-4.5t-3 -1.5t-3.5 2.5t-1.5 5.5v2t-0.5 5t-0.5 5v2q0 1 -0.5 2l-1 2t-1 2.5l-0.5 1.5v2zM92 147v5l3 3l3 -3l0.5 -2t0.5 -4.5t0.5 -5t0.5 -3.5v-31l1 -2q1 0 3.5 -1t2.5 -2q8 -4 9.5 -11t1.5 -15q0 -6 -4.5 -9.5
t-10 -5t-11 -2t-9.5 -0.5h-8q-2 1 -3.5 2t-1.5 3v1.5t2 1.5h5t8 0.5t8 0.5h5q6 1 10 4t4 10q0 1 -1 4t-2.5 5.5t-4 4t-4.5 1.5q-1 -1 -3.5 -2l-2.5 -1q-1 -1 -2.5 -1.5t-2.5 -0.5h-23q-2 0 -2 2.5v2.5q1 0 4 0.5t6 0.5h7h4t2.5 0.5l1.5 0.5q0 4 -4.5 5t-10 1t-10 1t-4.5 4v3
t2 1h1q1 0 4.5 -0.5t7 -1.5t7 -1.5t5.5 -0.5q1 -1 2 -1.5t2 -0.5h1q1 1 1 3t0.5 4t0.5 4v3l-0.5 3t-0.5 6t-0.5 6t-0.5 4v7zM113 120v3q0 2 0.5 5.5t0.5 7.5t0.5 7.5t0.5 5.5h1q2 0 4 -2t2 -4v-9v-4t-0.5 -6.5t-1.5 -6t-2 -2.5q-3 0 -4 1.5t-1 3.5zM64 77v1q1 0 1.5 0.5
l0.5 0.5h31q1 0 1.5 -1t0.5 -2l-0.5 -0.5l-0.5 -0.5q-7 -1 -12 -1.5t-11 -0.5h-3q-1 0 -3 0.5t-3.5 1.5t-1.5 2zM143 69q2 1 8 3t12 3t11.5 2t9.5 1q3 0 4 -0.5t1 -4.5q0 -2 -1 -3.5t-3 -2t-4.5 -1t-5.5 -0.5q-1 0 -4.5 -0.5t-7.5 -1t-7.5 -1t-5.5 -0.5l-3 -1v-2v-2
q0 -5 4.5 -7.5t10.5 -3.5t12 -0.5t10 0.5q3 -1 4.5 -3t1.5 -4q0 -6 -1.5 -10.5t-5.5 -7.5h-8q-7 0 -13.5 0.5t-13.5 0.5h-5q-1 -1 -1.5 -3t-1 -3.5t-1.5 -2.5t-3 -1h-1q-2 2 -2.5 4t-0.5 4v5t-1 6q-2 6 -5 12t-3 12q4 0 7 -4t5.5 -8.5t4 -8.5t3.5 -4h31q3 0 5 1t2 4t-3 4
t-7.5 1.5t-9.5 0.5t-9.5 1t-7.5 4t-3 9v0.5v0.5q0 1 0.5 2.5t0.5 3.5t0.5 3.5t0.5 2.5zM83 32q0 4 -3.5 6.5t-7 4.5t-6.5 4.5t-3 7.5q6 0 10.5 -3t8 -6t6 -5.5t4.5 -2.5q3 0 5 2l4 4l4 4t5 2t3 -3v-2q-1 -1 -3 -2.5t-4 -3.5t-3.5 -4t-2.5 -4v-1v-1l12 -13v-1v-2t-0.5 -3
t-2.5 -2q-1 0 -2.5 3t-2.5 3q-1 1 -3 3.5t-4 4t-3.5 3l-1.5 1.5h-3q-2 -3 -4.5 -5t-4.5 -3.5t-4.5 -3t-5.5 -1.5h-1q-1 0 -2 1.5t-1 2.5q0 3 3 4.5t6.5 3t6 3t1.5 4.5z" />
</svg>
