<?xml version="1.0" standalone="no"?>
<!DOCTYPE svg PUBLIC "-//W3C//DTD SVG 1.1//EN" "http://www.w3.org/Graphics/SVG/1.1/DTD/svg11.dtd" >
<svg xmlns="http://www.w3.org/2000/svg" xmlns:xlink="http://www.w3.org/1999/xlink" version="1.1" viewBox="-10 0 266 256">
   <path fill="currentColor"
d="M174 208v9.5t1.5 14t3.5 13t6 5.5q3 0 4.5 -2t1.5 -4q0 -5 -1 -10t-2.5 -9.5t-3 -9.5t-1.5 -9v-1q1 -1 1 -2.5t1 -3.5t1 -3.5t1 -1.5l1 -0.5l1 -0.5q2 0 3.5 1l3 2l3 2t2.5 1q5 0 7 -5q1 -3 -1.5 -5t-6 -3.5t-6.5 -3.5t-3 -6q0 -3 1.5 -5t3 -4.5t3 -4.5t1.5 -4
q0 -3 -1 -4.5t-3 -1.5q-3 0 -4.5 1.5t-3 3.5t-3 3.5t-3.5 1.5q-3 0 -4.5 -2.5t-2 -6l-1 -7t-0.5 -5.5q5 0 8 -0.5t8 -1.5h5h5.5t4 -1.5t1.5 -5.5q0 -2 -0.5 -3t-2.5 -1q-7 0 -13 1.5t-12 1.5q-3 0 -5.5 -0.5t-2.5 -4.5q0 -3 3 -5t6.5 -2.5l7 -1t4.5 -1.5q3 0 2.5 -2t-0.5 -3
v-2v-2.5t-0.5 -2t-1.5 -0.5t-3 1t-4 2.5t-4.5 3t-5.5 1.5q-2 0 -3 -1l-2 -2t-2 -1.5t-3 -0.5t-2.5 1.5t-0.5 3.5q0 4 1 7.5t1 7.5q0 2 -0.5 3t-1.5 2q-3 1 -9.5 1.5t-12.5 1t-11 1.5t-5 3q0 3 3 4t6 1q7 0 14.5 -1t14.5 -1h2.5t2.5 2q0 6 2 12t5 11t5 9t2 6q0 1 -0.5 3
t-1.5 4l-2 4l-1 2v3t-0.5 4t-0.5 3.5v2.5zM79 89h1l1.5 0.5l1.5 0.5v155q0 1 1.5 1.5l1.5 0.5q3 0 4.5 -2t2.5 -5v-19q0 -12 -1 -24t-1 -24q0 -10 1 -20t1 -20q0 -9 -1 -18t-1 -19q0 -4 2 -6t5 -2.5t7 0t7 0.5t5 -1t2 -4q0 -2 -1 -3.5t-3 -1.5q-4 0 -8 1t-8 1q-2 0 -5 -0.5
t-3 -3.5t0.5 -5.5t1.5 -5.5v-47q0 -3 -1 -4t-4 -1q-2 0 -3.5 0.5t-1.5 3.5v65h-33q-2 0 -2.5 1.5t-0.5 2.5q0 3 2 4t5 1h3q1 0 2 -1h3h6.5t6 -0.5t3.5 -0.5h1zM151 240q1 2 2 2h2q3 0 5.5 -3.5t2.5 -6.5q0 -8 -1 -17t-1.5 -17.5l-1 -17t-0.5 -17.5l-6 -6l-3 -0.5t-4 -0.5
t-3 0.5t-3 0.5h-3.5h-1.5h-4.5t-4.5 0.5t-4 0.5h-2l-1 3q2 2 5 2.5t4 2.5q2 16 2.5 33t-0.5 31q0 2 0.5 5t1.5 4l1 0.5t2 0.5t2.5 -2t2.5 -3v-6q0 -13 -1 -25.5t-1 -25.5v-4q0 -3 0.5 -5t2 -3.5t3.5 -1.5t3 0.5t3 3.5q-1 18 0.5 36t0.5 36zM52 223q0 1 0.5 2.5t2.5 1.5
q6 0 8.5 -3t3 -8t0.5 -10v-9q0 -11 1.5 -21t1.5 -21v-3v-7v-8v-7v-5v-7v-7.5v-5.5l-0.5 -0.5l-0.5 -0.5q-1 0 -2 0.5t-2 0.5q0 3 -0.5 8t-0.5 10t-1 9t-3 5q1 16 -0.5 32t-2.5 31q0 6 -2.5 11.5t-2.5 11.5zM101 161v2.5t0.5 3.5t0.5 3.5v2.5q1 3 0.5 12t-0.5 18t1.5 16
t5.5 7q1 0 2 -0.5t1 -1.5v-15q0 -2 0.5 -4.5t0 -6t-0.5 -6t-1 -5.5v-82q0 -1 -2 -1h-1q-2 0 -3.5 2t-2.5 4q0 2 0.5 7t0.5 11t-0.5 11.5t-0.5 7.5v3t-0.5 4.5t-0.5 4.5v2zM133 78q0 7 2.5 11.5t7.5 6.5t11 2.5t13 0.5q2 0 5.5 -0.5t7 -0.5t7 -0.5t4.5 -0.5q5 -2 7.5 -4.5
t4 -5t2 -6.5t0.5 -9q0 -4 -2.5 -7t-6 -4.5t-7.5 -2t-7 0.5q-2 -1 -2 -3v-3v-2.5v-1.5q0 -1 1 -2t2 -2.5t2 -2t2 -0.5h19l0.5 -1t1.5 -2l0.5 -1.5l0.5 -1.5v-1v-1q0 -1 -0.5 -2.5l-0.5 -1.5h-15q-1 0 -1.5 -2.5l-0.5 -2.5v-3q0 -1 0.5 -2t1 -2.5t0.5 -2.5v-2q0 -2 -2 -3
t-4 -1q-3 0 -4 0.5t-1.5 2l-1 3t-0.5 3.5q0 1 -1 4t-2 6.5t-2 6.5t-1 4t-0.5 3.5t-1 5.5t-1 5.5t-1.5 3.5t-2.5 1.5t-2.5 0.5h-2q0 -1 -0.5 -3.5l-1 -5t-0.5 -5v-3.5q0 -2 -1.5 -7t-3 -10.5t-3.5 -10t-4 -4.5q-3 0 -4 1t-1 4q0 4 2 8t2 8v2q-1 0 -3 0.5t-4.5 1t-4.5 1
t-3 0.5q-2 0 -3.5 1.5t-1.5 3.5q0 3 4 3h1h2t4 -0.5t3.5 -1t2.5 -0.5h1l1 0.5t2.5 1.5t2.5 1.5t1 1.5v12q0 2 -3.5 3l-7 2t-6.5 4t-3 10zM138 78q0 -3 2 -4t5 -1q4 0 5 3.5t1 7.5t-1 4.5t-4 0.5q-4 0 -6 -3.5t-2 -7.5zM157 74q0 -3 1 -5.5t5 -2.5q3 0 5 3t3 6.5t1.5 7.5
t0.5 6h-10q-1 0 -2 -2t-1.5 -4.5t-1.5 -5t-1 -3.5zM182 84l-1 -2l-2 -4l-2 -4t-2 -2v-1v0v-1v0l1.5 -1.5l0.5 -0.5h14q1 0 1.5 1.5t0.5 3v3.5v1q0 3 -1 6t-4 3h-3.5t-2.5 -2zM62 34q0 1 0.5 7t2 13t3 12.5t3.5 5.5q3 0 3.5 -2.5t0.5 -5.5v-8t-1 -12.5t-3.5 -11t-6.5 -4.5
q-2 0 -2 2v4zM101 66q0 4 3 4q2 0 3.5 -3t2.5 -7.5t2 -9.5l2 -10t1 -8.5v-5.5q-1 -2 -2 -2.5t-3 -0.5q-4 0 -5.5 6.5t-2.5 14.5t-1 14.5v7.5z" />
</svg>
