<?xml version="1.0" standalone="no"?>
<!DOCTYPE svg PUBLIC "-//W3C//DTD SVG 1.1//EN" "http://www.w3.org/Graphics/SVG/1.1/DTD/svg11.dtd" >
<svg xmlns="http://www.w3.org/2000/svg" xmlns:xlink="http://www.w3.org/1999/xlink" version="1.1" viewBox="-10 0 266 256">
   <path fill="currentColor"
d="M79 249l1.5 1.5t1.5 0.5q2 0 3.5 -1.5t1.5 -3.5v-79q0 -1 0.5 -1.5t1.5 -0.5q5 0 7.5 6.5t4 14.5t2 15.5t0.5 9.5t0.5 6t1 9t1 9t0.5 6q0 1 1 1h1q3 0 5 -4v-10q0 -13 -2.5 -26t-4.5 -26v-1v-3v-2v-2q-2 -4 -5.5 -5.5l-7 -3t-6 -3.5t-2.5 -7t3.5 -7t8 -5t8 -7t3.5 -13
q0 -8 -3.5 -12t-7.5 -6.5t-7 -5t-3 -6.5t3 -7t6.5 -5.5t6.5 -7t3 -11.5q0 -5 -3 -8.5t-6.5 -5.5t-6.5 -3.5t-3 -3.5v-22q0 -1 -1.5 -1h-2.5t-4 0.5t-3 2.5v23q0 2 -3 3.5t-6 3.5t-6 5.5t-3 8.5q0 9 3 12.5t7 6t7 5t3 7.5t-3.5 6.5t-8 3.5t-8 5.5t-3.5 11.5q0 9 3.5 14t7.5 8
t7.5 4.5t3.5 3.5v1q0 1 -0.5 4t-0.5 4q-3 1 -6.5 2.5t-6.5 3.5t-5 5t-3 6q0 1 -0.5 4t-1 6.5l-1 7t-0.5 4.5q-1 6 -1.5 10t-0.5 7.5v7.5v9v15q1 2 2 2h2h3.5t2.5 -2q0 -8 -0.5 -18.5t0 -21t2.5 -20.5t7 -17l3 -2h1q1 0 2 1.5t1.5 2.5t0.5 2.5v1.5q1 1 1 4t0.5 6t0.5 5.5v3.5
v11.5v17.5v17v11zM124 225q0 3 2 4t4 1h2q1 0 4 -0.5t6.5 -1t6.5 -1t4 -0.5h3.5h3h3t3.5 -2q9 1 19 0.5t19 -3.5q1 0 2 -1.5l1 -1.5v-1q0 -3 -3.5 -3.5t-5.5 -0.5q-5 0 -10.5 1t-11.5 1h-4h-3l-2 -2v-2t-0.5 -4.5t-0.5 -5.5v-5l-0.5 -2.5t-0.5 -3.5l0.5 -2.5l0.5 -2.5
q6 -2 13.5 -2.5t13.5 -0.5q2 -1 2.5 -2.5t0.5 -3.5t-0.5 -3t-2.5 -1q-5 0 -10.5 1.5t-10.5 1.5q-2 0 -4.5 -1t-2.5 -3q0 -7 2.5 -12t6.5 -8t8.5 -5t8 -4t6 -4t2.5 -6v-22l-4 -4q-15 0 -29 -2t-28 -2q-1 0 -2 0.5t-2.5 0.5t-2.5 1t-1 2t1 2.5t3 1.5t7.5 0.5t9.5 3.5v2v2
q0 9 -4.5 12.5t-10.5 5.5t-11 4t-5 7q11 0 21 -4t16 -12q2 -2 2.5 -4.5t1 -5.5t1.5 -5.5t4 -3.5h7h9.5t7.5 5v7q0 6 -2 9.5t-5.5 5t-7.5 3t-7.5 4.5t-6.5 8t-4 15q0 6 -4 8t-8.5 2.5t-8 1t-3.5 3.5q0 2 1 3t3 1q5 0 9.5 -0.5t9.5 -0.5v28l-4.5 1t-9.5 2.5t-10 2.5t-7 2
l-0.5 0.5zM65 118q0 -9 6 -12t13 -3q15 0 15 15q0 8 -5 12t-12 4q-8 0 -12.5 -4t-4.5 -12zM137 43v10.5t1 15t3 14t5 8.5q2 0 4.5 0.5t5.5 1t6 0.5h5q11 0 16 -3.5t7.5 -9.5t2.5 -13v-17v-19q-1 -2 -3 -2h-2q-4 0 -5 2.5t-1 6v6.5t-4 4t-7 1.5t-5.5 1t-5 0.5h-6.5h-6
q-1 0 -1.5 -1.5l-0.5 -1.5v-3.5t-0.5 -5.5t-0.5 -5v-3h-2q-2 0 -3 1t-2 3t-1 4v4zM146 71q0 -3 0.5 -5.5t3.5 -4.5q1 -1 4 -1.5t6.5 -1t6.5 -0.5t5 -1h2q4 0 6.5 1.5t2.5 6.5q0 11 -5.5 15.5t-16.5 4.5q-15 0 -15 -14zM68 60v-6q6 -8 17 -8q5 0 8.5 4t3.5 9q0 6 -4.5 11
t-11.5 5t-10 -5t-3 -10z" />
</svg>
