<?xml version="1.0" standalone="no"?>
<!DOCTYPE svg PUBLIC "-//W3C//DTD SVG 1.1//EN" "http://www.w3.org/Graphics/SVG/1.1/DTD/svg11.dtd" >
<svg xmlns="http://www.w3.org/2000/svg" xmlns:xlink="http://www.w3.org/1999/xlink" version="1.1" viewBox="-10 0 266 256">
   <path fill="currentColor"
d="M174 151q4 0 6 7.5t2.5 19t1 24t1.5 24t3 19t6 7.5q2 0 3 -2t1 -4q0 -8 -3 -16t-4 -16q-1 -9 -1.5 -17t-1 -15.5l-1 -15t0.5 -16.5q-1 -2 -2.5 -2.5t-2.5 -1t-2.5 -1t-2.5 -2.5l-21 2v1v0q0 1 2 3t3 2v3.5v3.5q0 10 -2 20t-4 20.5t-3.5 20.5t-1.5 20q0 3 0.5 3.5t2.5 0.5
t3 -2t1 -4q1 -1 1 -6t1 -10t1.5 -9.5t0.5 -5.5t0.5 -5.5t1 -10.5t1.5 -13t2.5 -12.5t3 -9.5t3.5 -4zM76 215q0 9 -1.5 17t-1.5 17q7 0 8.5 -2t1.5 -10q0 -12 -0.5 -25t-0.5 -26v-18q0 -2 1 -4.5t4 -2.5t4.5 2t2 4t1 4.5t0.5 4.5q0 3 0.5 7.5t1.5 9.5t1 9v5t0.5 4.5t0.5 7.5
v7v5q1 0 3 -0.5t3 -2.5v-15q0 -12 -1 -25t-4 -25q-1 -3 -4 -5.5t-5.5 -4t-5 -3.5t-2.5 -5q0 -4 2.5 -5t6 -3.5t6 -6.5t2.5 -14v-9q-1 -6 -4 -7t-6 -1.5t-5.5 -3t-2.5 -11.5q0 -4 3.5 -5.5t7.5 -4t7 -7t3 -14.5q0 -5 -3 -7.5t-6.5 -4t-7 -3.5t-3.5 -6q0 -2 1 -3t1 -3v-4
t-0.5 -4t-2 -3.5t-3.5 -1.5t-3.5 1t-1.5 3v20q0 1 -3 2t-6.5 2.5t-6 5.5t-2.5 11t3 10.5t6.5 7l7 7t3.5 10.5q0 2 -3 4.5t-6.5 5.5t-6 7.5t-2.5 10.5q0 5 2.5 8.5t6 5.5t6.5 3t3 2v11q0 1 -3.5 1.5t-7 2.5t-7 5t-3.5 8q0 1 -0.5 3t-1 5.5t-0.5 6.5v4v6l-1 2t-1.5 4l-1 4
t-0.5 3v1v3v4v3v5.5v5.5q2 2 2.5 3t3.5 1q2 0 4 -4v-12.5t0.5 -14.5t0.5 -13.5t1 -11.5q0 -2 1 -4.5t2.5 -5t3 -4t3.5 -1.5h1l0.5 1t1.5 1v9.5t0.5 14t1 14.5t0.5 9v5zM116 228q0 1 1 1.5l1 0.5h1q1 0 2 -1.5t1.5 -3.5l1 -4l0.5 -2q0 -10 -0.5 -20t-0.5 -20q0 -32 1.5 -63
t3.5 -63l-0.5 -2.5t0.5 -2.5q2 -5 8.5 -8t15.5 -4.5t19 -2t18.5 -1.5t14 -2t5.5 -4v-1l-0.5 -1.5t-1.5 -1.5h-5q-12 0 -23.5 1.5t-23.5 3.5q-4 0 -9.5 1t-11 3t-9.5 5.5t-6 8.5q-3 31 -3.5 63t0.5 63q-1 8 -1.5 13.5t-0.5 13.5v8t0.5 7t0.5 7t1 8zM137 162v1q1 1 1.5 3
l0.5 2h1q1 0 2.5 -1.5t2 -3t0.5 -3v-2.5v-38q0 -1 0.5 -3l1 -4t2 -3t3.5 -1t3 2.5t1.5 6t2 6.5t5.5 3h22q4 0 4 -4l-0.5 -0.5l-0.5 -0.5q-1 0 -3 -0.5t-5 -0.5t-5.5 -0.5t-3.5 -0.5q-4 0 -6.5 -1t-2.5 -4q0 -5 4 -8h11h3t4 -0.5t3 -0.5h1v-4l-3 -0.5t-5 -1.5h-3h-5h-5h-3
t-1.5 -1t-0.5 -2q0 -2 1.5 -4t3.5 -2h21l7 6q0 18 2 34.5t2 34.5q3 0 4 -2t1.5 -4.5t0.5 -5.5v-4v-7v-13t-0.5 -14.5t-1 -14t-1.5 -11t-2 -4.5l-37 -5l-0.5 -1t-0.5 -2q0 -2 0.5 -5.5t1.5 -7.5t3 -7.5t5 -3.5t4 2.5t1 5.5t0.5 5.5t2.5 3.5q5 2 12 2h12q0 -5 -3 -6t-7 -1
t-7 -0.5t-3 -4.5v-3.5t1 -2.5t2.5 -1t3.5 -0.5t3.5 -1t2.5 -1.5q1 0 3.5 -1.5t2.5 -3.5l-0.5 -1t-1.5 -2h-2h-2h-3h-2q-1 0 -3 0.5l-4 1l-4 1t-3 0.5q-8 2 -12.5 5t-7 7t-3 10t-0.5 14h-5t-3.5 -0.5t-2 -2.5t-0.5 -5v-3q0 -1 0.5 -3.5t1 -5.5t0.5 -5.5v-3.5v-1v-1l-1.5 -1.5
l-1.5 -1.5h-1h-1l-0.5 1l-0.5 1q0 1 -0.5 4t-0.5 7t-0.5 7t-0.5 5v4q0 5 2.5 7t5.5 3t5.5 3t2.5 6q0 3 -2.5 4.5t-5.5 3t-6 4t-2 7.5q0 3 -0.5 9.5t-0.5 14t-0.5 14t-0.5 8.5v1zM66 120q0 -4 2 -7t5 -5t6.5 -3t6.5 -1t4.5 1.5t2 3.5t0.5 4.5v4.5q0 6 -3.5 10t-9.5 4
q-5 0 -9.5 -3t-4.5 -9zM66 60q0 -3 1 -6t2.5 -5.5t4.5 -4t5 -1.5q3 0 5.5 1t5 3t4 4.5t1.5 5.5q0 8 -4 11t-12 3q-5 0 -9 -2.5t-4 -8.5z" />
</svg>
