<?xml version="1.0" standalone="no"?>
<!DOCTYPE svg PUBLIC "-//W3C//DTD SVG 1.1//EN" "http://www.w3.org/Graphics/SVG/1.1/DTD/svg11.dtd" >
<svg xmlns="http://www.w3.org/2000/svg" xmlns:xlink="http://www.w3.org/1999/xlink" version="1.1" viewBox="-10 0 266 256">
   <path fill="currentColor"
d="M175 195q3 7 5 11t3.5 8t3 8.5t4.5 10.5q0 1 1 2.5t2 4t2 4t1 2.5q2 3 3 4t4 1t6.5 -2t3.5 -5l-0.5 -0.5l-0.5 -0.5q-4 -4 -8 -9.5t-7 -11.5t-5.5 -12t-4.5 -11q0 -1 -0.5 -2t-0.5 -2q0 -3 2 -6.5t4.5 -6.5t4.5 -6.5t2 -7.5v-9.5t-1.5 -10t-5 -8t-9.5 -3.5h-54v-21h3.5
t5 -1t4.5 -2t2 -3q0 -1 -0.5 -3t-1.5 -2h-13q-1 0 -1 -1.5v-2.5q0 -6 1.5 -8.5t4 -3.5t5.5 -1.5t5 -3.5l-3 -3h-12q-1 0 -1 -3v-4q0 -4 2 -5.5t4.5 -3t5 -2.5t2.5 -5v-34l-1 -0.5t-2 -1.5h-1h-1q0 1 -0.5 2t-0.5 2v26l-1 0.5l-1 0.5q-1 1 -3 2l-2 1l-1 -1v-39q0 -2 -2.5 -2
h-2.5q-4 0 -4.5 1t-0.5 6v32q0 1 -1 2t-2 1q-2 1 -3.5 -1t-1.5 -3v-4t-0.5 -6t-0.5 -6v-4q-1 -1 -2.5 -1.5t-2.5 -0.5q-3 0 -3 3v5q0 11 3 16t6.5 7t6.5 3.5t3 4.5v3t-0.5 4t-0.5 4t-1 3h-5t-6 0.5t-5.5 2t-2.5 4.5h19q1 0 1.5 1t0.5 2.5v2.5v2q0 6 -3.5 8t-7 3t-7 1.5
t-3.5 4.5h16q2 0 3 2.5t1.5 6t0.5 6.5v5v2l-13 4l-1 1t-1 2l1 1l1 1h22q11 0 22 -1t22 -1h6t8 2q1 5 1 8.5v8.5v5t-1 6.5t-2.5 6t-3.5 2.5q-3 0 -4.5 -2.5t-3.5 -5.5t-5 -5t-7 -2h-4h-5h-6h-4h-5h-6h-6h-2q-2 0 -4 0.5t-4 0.5t-3.5 0.5l-1.5 0.5v5h54q1 0 2 1.5t1 3t0.5 3
t0.5 2.5q0 3 -5.5 5t-12 3t-12.5 1.5t-9 0.5q-1 1 -3.5 1t-5.5 0.5t-6 0.5h-4q-2 1 -2.5 2t-0.5 3v2t2 1h8q13 0 26 -3t26 -7h3h2zM64 149h1q1 0 1.5 0.5l0.5 0.5l3 83q0 1 1 1.5t2 0.5q3 0 5 -2v-2.5t0.5 -3.5t0.5 -3.5v-1.5v-2q0 -13 -1.5 -26.5t-1.5 -27.5v-14
q1 -2 2 -2.5t3 -0.5q3 0 5 5.5t2 13.5v18v18t1 13.5t3 5.5q3 0 4.5 -2t2 -4.5t0.5 -5.5v-5q0 -14 -2.5 -27.5t-2.5 -28.5q-2 -5 -5 -7t-6 -3t-5 -1.5t-2 -2.5q0 -3 2.5 -4.5t5.5 -4t5.5 -7t2.5 -13.5t-2.5 -12.5t-5.5 -5t-5.5 -3t-2.5 -7.5q0 -4 2.5 -6t5.5 -4t5.5 -5
t2.5 -11t-1 -10t-3.5 -3t-5.5 -2t-6 -6q0 -1 0.5 -4.5t0.5 -7t-1.5 -6.5t-4.5 -3h-3t-2 2v18q0 1 -3.5 2.5t-7.5 3.5t-7.5 5.5t-3.5 9.5q0 7 3.5 11t7.5 6.5t7 4.5t3 6q0 6 -3 8t-6.5 3.5t-6.5 5t-3 12.5v4v3q2 3 5.5 4.5l7 3t6 3.5t2.5 5t-0.5 4.5l-1.5 4.5q-6 1 -9.5 2.5
t-5.5 4.5t-3 7t-1 10v57q0 6 5 6h2.5t1.5 -2v-69q0 -1 1 -2.5t2.5 -3t3 -2t2.5 -0.5zM173 109q0 1 -0.5 3.5t-0.5 5v5.5v3t1 3t3 2h1l3 -3l2 -2v-16h4t6 -0.5t6 -2t3 -5.5q0 -2 -2.5 -3t-5.5 -1h-5.5h-3.5t-1 -2v-3v-4t1 -4h3.5t4.5 -0.5t3.5 -1.5t1.5 -4l-0.5 -1.5
l-0.5 -1.5h-3h-4h-3.5h-2.5l-1.5 -0.5t-2 -1t-0.5 -2.5v-3q0 -4 2 -6t4.5 -3t5 -2.5t3.5 -4.5q2 -6 2.5 -12.5t0.5 -12.5v-5t-4 -2h-2t-2 1v4t-0.5 5.5t-0.5 5v3.5l-0.5 1.5t-1.5 3t-2 2.5t-2 1v0v0q-1 0 -1.5 -0.5l-0.5 -0.5v-29q0 -2 -1.5 -3.5t-3.5 -1.5h-1.5t-1.5 1v6
t-0.5 8.5t-1 8t-0.5 5.5q0 1 -0.5 4t-0.5 4h-1.5h-0.5h-2t-1 -2l-3 -17q-1 -2 -2.5 -3t-2.5 -1q-2 0 -2.5 1t-0.5 3q0 9 1 14t3.5 8t5 4.5t4.5 3t3.5 3.5t1.5 7v5l-2 1q-1 0 -2.5 0.5t-3.5 0.5t-4 0.5t-3 0.5l-1 0.5t-2 1.5q0 1 -0.5 2.5l-0.5 1.5h16l1 1t1.5 2.5t0.5 3.5v3
v2.5t-2 2.5q-1 0 -3.5 0.5t-5.5 1t-5.5 1.5t-2.5 3v1l0.5 1l0.5 1h19zM55 108q0 -4 1.5 -6.5t3.5 -4t5 -2.5t6 -3h1q4 0 8 4t4 8q0 3 -0.5 6t-2 5.5t-4 4t-6.5 1.5q-2 0 -5 -1t-5.5 -2.5t-4 -4t-1.5 -5.5zM54 55v-1q0 -2 1.5 -4.5t4.5 -4.5t5.5 -3.5t4.5 -1.5q7 0 10.5 4.5
t3.5 11.5q0 5 -4.5 8.5t-8.5 3.5q-6 0 -10.5 -4.5t-6.5 -8.5z" />
</svg>
