<?xml version="1.0" standalone="no"?>
<!DOCTYPE svg PUBLIC "-//W3C//DTD SVG 1.1//EN" "http://www.w3.org/Graphics/SVG/1.1/DTD/svg11.dtd" >
<svg xmlns="http://www.w3.org/2000/svg" xmlns:xlink="http://www.w3.org/1999/xlink" version="1.1" viewBox="-10 0 266 256">
   <path fill="currentColor"
d="M121 248q0 3 3 3q2 0 4 -2.5t2 -4.5v-37q1 0 4 -0.5t4 -0.5q4 1 5 6.5t1 11.5q0 5 0.5 9.5t4.5 4.5q1 0 2.5 -0.5t0.5 -3.5q-1 -7 -1.5 -13t-2.5 -11t-6.5 -7.5t-11.5 -3.5l-0.5 -1.5l-0.5 -1.5q0 -4 2.5 -5.5t5.5 -2.5t5.5 -2t2.5 -5v-17q0 -2 -2.5 -3.5t-5.5 -2
t-5.5 -2t-2.5 -3.5q0 -3 2.5 -4.5t5.5 -3.5t5.5 -4.5t2.5 -8.5q0 -1 -0.5 -4t-0.5 -4l-14 -14v-2v-12.5t0.5 -11.5t0.5 -12v-14q1 -3 1 -6v-6.5t0.5 -6.5t2.5 -6q3 -3 7.5 -5t8.5 -4t7.5 -4.5t3.5 -7.5q-3 0 -8 2t-10.5 5t-10 6t-5.5 4q-1 3 -1.5 5.5t-1 5.5t-0.5 6t-1 6
v13.5v15.5t-0.5 15.5t-0.5 14.5q-2 4 -4.5 6l-5 4t-4.5 5t-2 7t2.5 6.5t5.5 4.5t5.5 4t2.5 5q0 2 -3 3.5l-7 3.5t-7 5t-3 9q0 8 3 11t6.5 4t7 1.5t3.5 4.5q0 2 -1 3.5t-3 2t-4 0.5t-4 1q-3 2 -5.5 6t-3.5 8.5t-1.5 9t-0.5 8.5q0 1 0.5 3.5t2.5 2.5q1 0 1.5 -0.5l1.5 -1.5
l4 -25q1 -3 3 -4.5t5 -1.5h2h1l2 5v3v5q0 7 -1 14t-1 14zM179 247q0 1 0.5 1h2.5q1 0 2 -1.5t2 -2.5v-4.5v-6.5v-7v-4v-25.5t-1 -27t-3 -27t-5 -25.5l3 -4.5l2 -3t1.5 -3.5t0.5 -5q0 -6 -3 -10.5t-7.5 -7.5t-10 -5t-10.5 -2q0 4 4 6l9 4.5t9 6t4 9.5q0 3 -1 5t-4 2h-1
q-2 -3 -5 -6t-6.5 -6t-7.5 -5t-8 -2q-2 0 -2 3q0 2 1.5 3t4 2t4.5 1.5t4 1.5q0 1 1.5 2t2.5 2.5l2 3t2 1.5v0.5v0.5v2t-1 1t-4 0.5l-3 0.5q-3 0 -5 -1t-4.5 -2t-4.5 -2t-4 -1q0 6 2 8t5.5 2h7.5t8 1t7 3.5t3 8.5q2 23 3.5 45t2.5 45v25zM69 244q2 3 4 3q3 0 4 -8t1.5 -20
t1 -27t1.5 -29t3 -25t5 -17q2 -2 6 -3t8 -1.5t7.5 -3t3.5 -8.5q-3 0 -4.5 1t-3.5 1.5l-4 1t-5 0.5l-0.5 -1.5l-0.5 -1.5q1 -2 3.5 -4t4.5 -3.5t4 -3.5t2 -4t-0.5 -2.5t-1.5 -0.5q-3 0 -5.5 2.5t-5 5.5l-5 6t-3.5 4h-1h-1q-2 0 -3.5 -1t-1.5 -4q0 -4 3 -7.5t7 -6.5t7 -6t3 -7
v0v0q0 -1 -0.5 -1.5t-1.5 -0.5v0v0q-2 0 -4 1.5t-4.5 3.5t-4 4t-2.5 3q-1 0 -2 1.5t-2.5 3t-2 2.5l-0.5 1l-0.5 3.5t-1.5 4.5v2q0 3 1 4.5l2 3l2 3t1 3.5q0 3 -1 7t-2.5 9l-3 10t-1.5 8q-2 21 -3.5 42t-1.5 41v11zM110 175q0 -6 2.5 -9.5t9.5 -3.5q3 0 6.5 0.5t6 1.5
t4.5 3.5t2 5.5q0 4 -1.5 6t-4 3t-5.5 1.5t-6 0.5t-5.5 -0.5t-4.5 -1.5t-3 -2.5t-1 -4.5zM114 131q0 -8 5 -9.5t12 -1.5q4 0 6 3.5t2 8.5q0 4 -2.5 8t-6.5 4q-7 0 -11.5 -3.5t-4.5 -9.5zM68 74q0 2 1 2.5t2 0.5q2 0 3 -0.5t2 -1.5l3 -3t4.5 -4t4.5 -4t2 -3h2h1q5 0 7.5 2.5
l5.5 5.5l0.5 0.5l0.5 0.5q2 0 3.5 -1.5t1.5 -3.5v-1q0 -1 -1 -1q-3 -2 -9.5 -5.5t-11.5 -4.5v0h-1q-2 1 -5.5 3.5t-7 6t-6 6.5t-2.5 5zM139 70v1q1 0 1.5 0.5l0.5 0.5h1v0q2 -1 4 -3t4.5 -4t4.5 -4t4 -2q7 0 12 4.5t9 8.5h4h4t2 -3q0 -1 -4 -3.5t-9 -5.5t-9.5 -5t-5.5 -2
q-5 0 -8 1.5t-5.5 3.5t-4.5 5t-5 6v1zM160 34q-3 0 -6.5 2t-6.5 5t-5 6.5t-2 5.5q3 0 5.5 -1.5t5 -3.5t5 -3.5t5.5 -1.5t5 1t4 2.5t4 2.5t4 1t3.5 -0.5t1.5 -2.5t-3 -4t-7 -4t-7.5 -3.5t-5.5 -1.5zM69 48q0 3 1 3.5t3 0.5q3 0 5 -2l4 -4t4.5 -4t5.5 -2h1h2l12 10h1h1t2.5 -1
t1.5 -2q0 -2 -3 -4.5t-6.5 -5.5t-7.5 -5t-6 -2q-1 0 -4.5 2.5t-7 6l-6.5 6.5z" />
</svg>
