<?xml version="1.0" standalone="no"?>
<!DOCTYPE svg PUBLIC "-//W3C//DTD SVG 1.1//EN" "http://www.w3.org/Graphics/SVG/1.1/DTD/svg11.dtd" >
<svg xmlns="http://www.w3.org/2000/svg" xmlns:xlink="http://www.w3.org/1999/xlink" version="1.1" viewBox="-10 0 266 256">
   <path fill="currentColor"
d="M140 184q3 0 5 3.5t3.5 8t2 9t1.5 6.5q0 2 1.5 4.5t3 5.5t3 5t2.5 3q2 4 7 8t9 7t9 5.5t10 2.5q2 0 3.5 -1t1.5 -3q0 -3 -5.5 -6t-12.5 -7t-12.5 -9t-5.5 -11q0 -2 2 -7.5t5 -10.5t5.5 -9t4.5 -4t3.5 1t2.5 2q0 3 1.5 9t3 12.5t4 11.5t5.5 5t4 -2t1 -5v-2v-1
q0 -1 -1.5 -4l-3 -6l-3 -6t-1.5 -4q-2 -3 -2.5 -6.5t-1.5 -6.5t-3 -5.5t-7 -2.5q-7 0 -10.5 4.5t-5 9.5t-3 9.5t-5.5 4.5q-2 0 -3.5 -0.5t-2.5 -3.5l-3 -17l-0.5 -1t-1.5 -1l-2.5 -1.5t-3.5 -1.5h-1q-6 0 -10 4t-7 9.5t-4.5 11.5t-3.5 10q-1 3 -3 7t-2 6q0 1 1.5 2t1.5 2h1
h1q1 -1 2.5 -3t2.5 -2q0 -1 1 -4t2 -6.5t2 -6.5t1 -4q1 -1 2 -4.5t2 -6.5t3 -5t4 -2zM76 191q0 12 -1 22.5t-1 22.5v4h2.5t3.5 -0.5t3 -1.5t1 -2v-73l2 -13h1h1q3 0 4 1t2 3q0 2 0.5 5.5t1 8t1 8t0.5 5.5v8.5t2 8.5v28l0.5 0.5t0.5 1.5h1h1l3 -4v-22v-23v-1.5t-0.5 -3
t-0.5 -3v-2.5q-1 -2 -0.5 -4.5t0.5 -4.5q0 -3 -0.5 -5t-1.5 -5q-1 -2 -3.5 -4t-5.5 -3.5t-5 -3t-2 -3.5q0 -6 3 -9t6.5 -5.5t6.5 -5.5t3 -9q0 -7 -2.5 -10.5t-6 -6t-6.5 -5t-3 -7.5v-2v-2q10 -3 15 -8t5 -15q0 -5 -2 -7t-4.5 -3.5t-5.5 -3t-4 -4.5q0 -1 -0.5 -3.5t-0.5 -5
t-0.5 -4.5t-0.5 -3q-1 -3 -1.5 -3.5t-2.5 -0.5l-2.5 0.5t-2.5 1.5v20q-4 2 -8 3.5t-6.5 4t-4 5.5t-1.5 9q0 5 3 7.5t6.5 4t6.5 4t3 8.5q0 3 -3.5 5t-7.5 5t-7.5 6.5t-3.5 9.5q0 7 3 10t7 5t7.5 3t3.5 4q0 7 -2.5 9t-5.5 3t-6.5 2.5t-6.5 6.5t-5 11t-2.5 12.5t-0.5 12.5v12
q-1 7 -2 13.5t-1 13.5v4t3 2q4 0 5 -2t1 -6q0 -1 0.5 -6t1 -10.5t1 -10t1.5 -6.5q0 -2 0.5 -9t2 -14t4 -13t6.5 -6h0.5h0.5l0.5 0.5t0.5 1.5q3 9 2.5 20.5t-0.5 20.5zM154 125l-4.5 1t-9.5 2.5t-9.5 3.5t-4.5 5v15q0 2 2 3.5t4.5 2.5t5 1.5t3.5 0.5h2h5h6h4h4h5h6h3
q5 -2 9 -5t4 -9q0 -8 -3 -12t-8.5 -6t-11.5 -2.5t-12 -0.5zM134 144q0 -3 3 -7t7 -4h26q4 0 6 3.5t2 6.5q0 5 -2.5 7t-6.5 2.5t-8 0.5h-7h-12q-3 -1 -5.5 -3.5t-2.5 -5.5zM107 126q0 1 1 1h2q6 0 12 -2.5t11.5 -6t11.5 -6.5t12 -3q10 0 20 4.5t19 8.5q1 1 3.5 3t4.5 2
q3 0 5.5 -1t2.5 -4t-4 -5t-9.5 -4t-12.5 -3.5t-13 -3t-9.5 -4t-3.5 -4.5t2.5 -3t6 -1t7.5 -0.5t7.5 -2t6 -4t2.5 -8.5v-5l-3 -4h-1q-1 0 -2 2.5t-2.5 6t-5.5 6t-11 2.5q-3 0 -4 -2l-2 -4t-1 -5v-4h-2q-2 0 -2 0.5t-1 2.5q0 1 -0.5 2.5t-1 3.5t-1 3.5t-0.5 2.5l-1.5 0.5
t-2.5 0.5v0q-4 0 -6 -2.5t-3.5 -5.5t-3 -5.5t-4.5 -2.5q-2 0 -3 0.5t-2 2.5q-1 8 3 12t9.5 6t10.5 2.5t5 2.5q0 1 -0.5 1.5l-1.5 1.5q-10 7 -21.5 11.5t-21.5 9.5q-1 1 -1.5 2t-0.5 2zM70 106q0 -7 4.5 -9t9.5 -2q7 0 9.5 3.5t2.5 10.5q0 4 -3.5 7t-8.5 3t-9.5 -4t-4.5 -9z
M120 43q0 10 3.5 16t15.5 7q1 0 4 -0.5t7 -1t7.5 -0.5h4.5h10t12 -0.5t11 -2.5t8 -7q1 -1 1 -4v-4q0 -8 -2 -11t-10 -5h-4h-7h-7h-4q-5 0 -11.5 -0.5t-14 0t-14 2t-10.5 4.5v7zM71 51q1 -3 2.5 -4.5t3.5 -2t5 -0.5h4h5q2 0 4 0.5t3 2t1 5.5q0 7 -4.5 9.5t-10.5 2.5
q-2 0 -4.5 -1t-4.5 -3t-3 -4t-1 -5zM127 46q0 -8 10 -8h1h1q0 1 1 3.5t2 5.5t2 5.5t1 3.5q1 0 1 1v1q-4 0 -7 -0.5t-5.5 -1.5t-4.5 -3.5t-2 -6.5zM147 41q0 -3 1 -4t5 -1q3 0 4.5 0.5t3 1.5t2 2.5t2.5 3.5q1 3 3 4.5t2 4.5t-3.5 3.5t-5.5 0.5q-3 0 -5.5 -1.5t-4.5 -3.5
t-3 -5t-1 -6zM171 38q0 -2 1.5 -2h3.5q4 0 7.5 0.5t8.5 1.5q3 1 3.5 2t0.5 3q0 5 -3.5 8t-7.5 3q-2 0 -4.5 -1.5t-4.5 -4t-3.5 -5t-1.5 -5.5z" />
</svg>
