<?xml version="1.0" standalone="no"?>
<!DOCTYPE svg PUBLIC "-//W3C//DTD SVG 1.1//EN" "http://www.w3.org/Graphics/SVG/1.1/DTD/svg11.dtd" >
<svg xmlns="http://www.w3.org/2000/svg" xmlns:xlink="http://www.w3.org/1999/xlink" version="1.1" viewBox="-10 0 266 256">
   <path fill="currentColor"
d="M46 249q0 2 1 2h2q2 0 3.5 -1.5t2.5 -4t1.5 -5t0.5 -4.5q-1 -38 0 -77.5t2 -77.5v-7.5t0.5 -11t0.5 -11v-7.5q0 -3 3.5 -6.5t6.5 -3.5q2 0 5 3t6 6.5t5.5 7t2.5 4.5q0 5 -3 7.5l-6 5t-6 5.5t-3 8q3 0 6.5 -1.5t6.5 -4t5.5 -5l4.5 -4.5v0h1q3 0 4.5 1t3.5 3t4 3t4 1
t2.5 -1.5t0.5 -3.5v-0.5v-0.5l-10 -11v0v-2t2.5 -5t5.5 -8t5.5 -7.5l2.5 -3.5h15l3 4t6 8.5t5.5 8.5t2.5 5q0 2 -1 4t-2.5 3.5t-3 3.5t-1.5 5h1h1q2 0 4 -1.5t3.5 -2.5t3.5 -2t4 -1h1h2l3.5 3.5t5.5 5t5.5 4t5.5 1.5q0 -4 -0.5 -7t-2.5 -5.5t-4.5 -4.5t-6.5 -6v-1q0 -2 2 -6
t5 -7l6 -6t6 -3q4 0 5 2t3 7q0 1 0.5 5.5t0.5 9.5t0.5 9.5t0.5 6.5v93v3.5t0.5 5.5t0.5 5.5v3.5v1v0v6t-0.5 9.5t-0.5 11.5v11.5v9.5v5v4q0 3 1 5.5t4 2.5t4.5 -1.5t2 -3t1 -4t0.5 -4.5q0 -24 -1 -48.5l-2 -49l-2 -49t0 -48.5q-1 -4 -2 -9t-5 -8q-24 -3 -49.5 -4.5
t-49.5 -1.5h-4l-3.5 0.5t-4.5 0.5q-6 1 -13 1.5t-12.5 2.5t-9 6t-4.5 12v7t-0.5 13t-0.5 14v10q-1 15 -1.5 29.5t-0.5 29.5v3l1 2t1 3l-0.5 2.5t-1.5 3.5v11t-0.5 17t-0.5 17v11v17v16zM85 225q0 1 0.5 2l1.5 3h8q19 0 38 -1.5t37 -5.5v-1v-2q0 -2 -0.5 -3.5t-3.5 -1.5h-1
h-3.5t-6 0.5t-6.5 0.5h-4h-0.5h-1.5q-3 0 -3 -3v-2q1 0 1.5 -1.5t1.5 -3t1.5 -3t0.5 -2.5q3 -6 6 -13t5.5 -14.5t4 -15t1.5 -14.5q0 -2 -2 -6t-5 -4h-30q-1 0 -3 -2t-2 -3q0 -4 0.5 -8.5t2 -9t4 -7.5t7.5 -4q2 0 7.5 -0.5t11.5 -1t11.5 -1t7.5 -0.5q1 0 2.5 -2t2.5 -3v-1v0
q0 -1 -0.5 -2t-1.5 -2h-6q-5 0 -10.5 1t-11 2.5t-11 2.5t-11.5 1h-7.5h-11.5h-11.5h-7.5q-5 1 -9.5 1.5t-7.5 4.5v1q0 3 3 3.5t4 1.5q6 -2 13.5 -3t14.5 -1q4 0 5.5 1.5t1.5 5.5q0 15 -2.5 29t-2.5 29v4.5t1 5t2.5 4.5t3.5 2q5 0 10 -0.5t10 -0.5q2 0 5 0.5t3 3.5q0 2 -2 7
t-4.5 11t-5.5 10.5t-5 4.5h-38l-0.5 1.5t-1.5 2.5v2zM143 142q2 0 4.5 1t4.5 2v4v3q0 5 -1.5 11t-6.5 9h-10h-10q-1 -1 -3 -1.5l-2 -0.5v-23l0.5 -0.5t0.5 -1.5q3 -1 5.5 -2t5.5 -1h5.5h5.5h1zM144 33q6 -1 10 -1.5t10 -0.5h2.5t3 0.5t3 1.5t1.5 2q0 2 -1.5 4.5t-3.5 5
t-4.5 4t-5.5 1.5q-2 0 -4.5 -2t-4.5 -5t-3.5 -6t-2.5 -4zM84 36v-2v-1.5t1 -1.5h4t6 -0.5t5.5 -0.5h3.5h1v0q1 0 2 1l2 2v1v0q-2 4 -5.5 7.5t-6.5 5.5l-0.5 0.5l-0.5 0.5q-2 0 -4 -1.5t-3.5 -3.5l-3 -4t-1.5 -3z" />
</svg>
