<?xml version="1.0" standalone="no"?>
<!DOCTYPE svg PUBLIC "-//W3C//DTD SVG 1.1//EN" "http://www.w3.org/Graphics/SVG/1.1/DTD/svg11.dtd" >
<svg xmlns="http://www.w3.org/2000/svg" xmlns:xlink="http://www.w3.org/1999/xlink" version="1.1" viewBox="-10 0 266 256">
   <path fill="currentColor"
d="M52 247q0 1 2 1.5t3 0.5q2 0 3.5 -0.5t2.5 -3.5q4 -44 5.5 -87t2.5 -87q0 -1 0.5 -4t0.5 -6.5t0.5 -6.5t0.5 -4v-4.5t1 -5t2.5 -4t3.5 -1.5q1 0 3 2t4.5 5t4.5 6.5t2 4.5l-0.5 1.5t-1.5 1.5q0 1 -2 3.5t-2.5 3l-2 2l-3 3l-3 3t-1.5 2.5q1 1 2 1h3q3 0 5 -1.5t3.5 -3.5
t3.5 -3.5t5 -1.5t5.5 2t4 4.5t3.5 5t5 2.5q4 0 4 -5v-1v-1l-2.5 -2.5t-3.5 -4t-3.5 -4.5t-2.5 -2q-1 -2 -1 -3v-2q0 -3 1 -4.5l2 -3t2.5 -3.5t1.5 -4q0 -1 -0.5 -2l-0.5 -1q-2 1 -3.5 2.5t-3.5 3l-4 3t-4 1.5h-2h-1q0 -1 -1.5 -2t-3.5 -3t-3 -4t-1 -4t3 -3.5t7 -2t8 -0.5h6
q4 0 6 0.5t5 1.5h38q1 0 4 1t3 3q0 1 -0.5 1h-0.5q-1 1 -2.5 3t-3.5 4t-4 3.5t-4 1.5h-1.5h-0.5l-9 -10h-1h-1q-2 0 -3 1t-1 3v1q2 1 4 2.5t4 3.5t3 4.5t1 4.5v1.5v1.5l-3.5 3.5l-5 5t-4.5 5.5t-2 5t3 2q4 0 6 -2t3.5 -5t3.5 -5.5t5 -2.5v0v0q4 3 5.5 4.5t2.5 3.5t2 4.5
t3 5.5l1.5 1.5l0.5 0.5q3 0 5 -3t2 -5v-1q0 -1 -1 -1l-16 -16v-2q0 -3 2 -4.5t4 -3.5l4 -4t3 -4q1 -1 1.5 -3.5t0.5 -3.5q1 -2 3 -2.5t3 -0.5q4 0 5.5 2t1.5 6q0 1 0.5 6.5t0.5 11.5v11.5v6.5t0.5 3.5l1 5t0.5 5v2.5q0 1 -1 4l-1 3v16q0 34 2.5 67t2.5 67q1 0 2 0.5t2 0.5v0
h1q1 0 3.5 -2.5l3.5 -3.5v-4v-6v-5v-4q0 -17 -1 -34t-4 -34q-1 -25 -1.5 -47.5t-0.5 -45.5q0 -6 1 -11.5t1 -11.5t-1 -11t-7 -8q-10 -1 -18 -1t-15.5 -0.5t-15.5 -0.5h-17h-24q-12 0 -24 2q-1 0 -3 1t-4.5 1.5t-4 1.5t-1.5 3l-3 63q-2 3 -2.5 6t-1 7t-0.5 7v5q0 1 0.5 2.5
t0.5 3t0.5 3l0.5 1.5v4q0 12 -1.5 23.5t-1.5 23.5q0 4 -0.5 10.5t-0.5 13t-0.5 11.5t-0.5 6t-0.5 3t-1 4.5l-1 5l-0.5 2.5l-0.5 3t-0.5 4t0.5 4t0.5 4zM79 225q0 3 2 4t5 1q19 0 41 -1.5t42 -3.5q1 0 2.5 -0.5l3 -1t3 -1.5t1.5 -2v-1q0 -1 -1 -1.5l-1 -0.5h-45l-0.5 -1.5
t-0.5 -4t-0.5 -5t-0.5 -4.5v-2q0 -4 2.5 -5t6.5 -1h9h9q5 0 8 -1t4 -4q0 -2 -1 -3t-2.5 -1.5t-3 -0.5h-1.5h-25l-2 -0.5l-2 -0.5l-1.5 -1.5l-0.5 -0.5v-11q0 -2 3.5 -3.5t8.5 -3t9.5 -3t6.5 -2.5l2.5 -2.5t2.5 -3t2.5 -3t1.5 -2.5q0 -3 0.5 -9t1.5 -13t1 -13t1 -8v-1
q0 -3 -2.5 -4t-4.5 -1q-4 0 -5 4t-1 9.5t0.5 12t-0.5 13t-4.5 11.5t-11.5 7h-4h-4h-4h-3h-7q-6 0 -11.5 -1t-9.5 -3.5t-4 -7.5v-36q0 -2 -2.5 -3t-4.5 -1q-3 0 -3.5 2.5t-0.5 4.5q0 11 2 22t5 21q4 7 9 8.5t9.5 2.5t7.5 2.5t3 7.5q0 7 -2.5 9.5t-6.5 3.5t-8.5 0.5t-8.5 -1
t-7 1t-3 5.5q0 1 0.5 2t3.5 1h34v23h-6t-8 0.5l-8 1t-6 0.5h-4h-4.5t-4.5 1t-2 3zM122 127q0 2 -0.5 5.5t0 6.5t2 5.5t4.5 2.5t4 -3.5t1.5 -8l1 -9t0.5 -5.5q0 -2 -0.5 -3.5t-1.5 -3.5q0 -2 -1.5 -4.5t-2 -4t-1.5 -1.5h-3q-1 0 -1.5 3t-1 7t-0.5 8v5z" />
</svg>
