<?xml version="1.0" standalone="no"?>
<!DOCTYPE svg PUBLIC "-//W3C//DTD SVG 1.1//EN" "http://www.w3.org/Graphics/SVG/1.1/DTD/svg11.dtd" >
<svg xmlns="http://www.w3.org/2000/svg" xmlns:xlink="http://www.w3.org/1999/xlink" version="1.1" viewBox="-10 0 266 256">
   <path fill="currentColor"
d="M117 246q0 3 1.5 3.5t3.5 0.5q5 0 7 -4t2.5 -10t0 -12t-0.5 -9q2 -4 7 -4t10.5 0.5t11 -0.5t8.5 -6q1 -1 1.5 -3.5t1.5 -5.5t1.5 -5t1.5 -4v-2q0 -5 -2 -6t-7 -1q0 12 -4.5 18.5t-17.5 6.5h-4h-3l-3 -3q1 -9 -0.5 -14t-4 -7.5t-6.5 -4t-7 -3t-5.5 -4t-2.5 -7.5
q0 -6 3.5 -9t8 -4t9.5 -1h10q8 0 11 2.5t3 10.5q0 4 -2 6.5l-4 5t-3.5 4t-1.5 3.5q0 1 1 2t3 1q5 0 8 -4t4.5 -9t2 -10t0.5 -9q-3 -4 -6 -6t-6 -3t-6.5 -1h-8.5h-7h-7t-6 1t-8 2q-4 4 -4.5 7.5t-0.5 8.5q0 10 3.5 14t7.5 6.5l8 5t4 9.5q0 2 -0.5 4.5t-1.5 3.5h-5h-4
q-10 0 -13.5 -3.5t-5 -8t-2 -8t-4.5 -3.5q-3 0 -3.5 3.5t-0.5 5.5q0 9 3 13.5t7.5 6.5t9.5 3t9 1.5t7 1.5t3 5q0 7 -2.5 14t-2.5 14zM199 246q1 1 2 1.5l1 0.5h2q1 0 2 -1t1.5 -2.5l1 -3t0.5 -2.5q1 -1 1 -3.5t0.5 -5.5t0.5 -5.5v-4.5v-179q0 -4 -1.5 -8.5t-4 -8.5
t-6.5 -6.5t-8 -2.5h-8.5h-12.5h-12h-8q-8 -2 -16 -2.5t-15 -0.5h-10.5h-9.5t-10 0.5t-11 0.5q-6 1 -9.5 2.5t-5.5 4.5t-2.5 7.5t-1.5 10.5v2v4v4v2q0 1 -0.5 2t-1 2.5t-1 2.5t-0.5 2v1t0.5 2t0.5 2.5v1.5v1v0q0 1 -0.5 4l-0.5 3q0 1 -0.5 3t-0.5 4t-0.5 3.5t-0.5 2.5v4v7v7
v4v8.5v12t-0.5 13t-0.5 12t-0.5 10t-0.5 5.5q0 13 -1.5 26t-1.5 26v3v4v4v3q1 2 4 4.5t5 2.5h1q3 -1 6 -2.5t3 -5.5q0 -10 -2 -20t-2 -21v-39.5t1 -41t2.5 -40.5t5.5 -39q0 -1 1 -1h3q3 0 6 0.5t5.5 2t4 4t1.5 5.5q0 1 -0.5 2l-0.5 1l-19 19v0.5v1.5l0.5 2t1.5 2t2 -0.5
t2 -1.5q2 -2 4.5 -4l5 -4l5 -4t4.5 -4h0.5h0.5q3 0 6 2t6 4.5t6 4t6 1.5q2 0 2.5 -1t0.5 -3t-2.5 -4t-5.5 -4t-6 -4.5t-3 -6.5v-1q3 -2 5 -6t4.5 -7t5 -5.5t6.5 -2.5t5 0.5t1 1.5v2.5t3 4.5q1 2 3 4t4.5 4t4 4.5t1.5 5.5v2v1l-13 14h-0.5t-0.5 1t1.5 1.5t2.5 0.5q4 0 6 -2
t3.5 -5t3 -5t4.5 -2h1.5h0.5l17 18v0h1q3 0 3.5 -1.5t0.5 -3.5v-1v-1l-14 -16v-1.5v-2.5q0 -2 1.5 -5.5t4 -7t5.5 -6.5t5 -3q4 0 7 2t4 5.5t1.5 7.5t0.5 8v9v15v15v9q0 1 0.5 6.5t0.5 11t0.5 11t0.5 6.5v6q0 4 -1 8t-1 8q0 5 1 10.5t1 10.5q0 15 -1 30t-1 30v13zM87 122v4.5
t3 2.5t5 -4q0 -5 0.5 -10t2 -9t4.5 -6.5t9 -2.5q4 0 5.5 3.5t2.5 8t1.5 9.5t1.5 9q1 0 1.5 0.5l0.5 0.5q1 0 2 -0.5l1 -0.5v-27q0 -2 2 -3.5t4.5 -2t5.5 -1t5 -0.5h3t3 2q0 2 0.5 5.5l1 7l1 7t0.5 5t1.5 4t1.5 3.5q3 -2 3.5 -3.5t0.5 -3.5q0 -4 -1 -8t-1 -9v-4v-4q2 -2 5 -3
t6 -1t6 -0.5t4 -3.5q-2 -4 -6 -4h-1q-1 0 -4 0.5t-7 1t-7 1.5t-4 1q-3 0 -9.5 0.5t-14 1t-14 1t-9.5 0.5q-1 1 -3.5 1.5l-5 1t-4.5 2t-2 4.5v2.5t-0.5 6t-0.5 7v4.5v3zM88 27v-3t2 -2h20q2 0 2 1.5v2.5q0 2 -1 4t-3 4l-3.5 3.5l-2.5 2.5q-2 -1 -4.5 -2.5t-4.5 -3t-3.5 -3.5
t-1.5 -4zM147 24h25q0 2 -1.5 5t-3 5t-3.5 4t-5 2q-2 0 -4 -2t-3.5 -4.5t-3 -5.5t-1.5 -4z" />
</svg>
