<?xml version="1.0" standalone="no"?>
<!DOCTYPE svg PUBLIC "-//W3C//DTD SVG 1.1//EN" "http://www.w3.org/Graphics/SVG/1.1/DTD/svg11.dtd" >
<svg xmlns="http://www.w3.org/2000/svg" xmlns:xlink="http://www.w3.org/1999/xlink" version="1.1" viewBox="-10 0 266 256">
   <path fill="currentColor"
d="M127 245q0 3 4 3q2 0 4.5 -2t2.5 -6v-38l4 -3h2t4.5 -0.5t4.5 -1t3 -0.5t3.5 -1t2.5 -3v0q0 -1 -0.5 -1.5l-0.5 -0.5h-8h-13.5t-13 0.5t-13.5 0.5t-15 1v4h26q7 0 7 6q0 11 -2 21t-2 21zM50 234q1 0 1.5 0.5l0.5 0.5h1q2 0 4.5 -3t2.5 -5v-8v-13v-16v-15v-13v-9v-10.5
t0.5 -17.5t0.5 -22v-22v-18v-10q1 -2 0.5 -7t0.5 -9.5t3 -8.5t7 -4h1q1 1 4 2t6 3t5.5 4t2.5 5v2h-1l-19 21l-0.5 1.5l-0.5 1.5q0 2 1.5 2h2.5h1h1l19 -19q1 -1 2 -1.5l1 -0.5q1 0 2.5 0.5t2.5 1.5q3 1 6 3t5.5 4t4.5 4t4 3v0v0q2 0 2.5 -1.5t0.5 -2.5v-2l-9.5 -9.5
t-10.5 -8.5v-1v0q0 -2 2 -4t3 -4q3 -4 5 -6t4.5 -3.5t5.5 -2t8 -0.5h3q0 5 3 9t6.5 7.5t6 6.5t1.5 5q0 3 -3.5 6t-6.5 5.5t-5.5 5.5t-2.5 7h-5t-6.5 -0.5t-7 -0.5h-4.5q-3 0 -8 0.5t-9.5 2t-8 4.5t-3.5 8v1v6t0.5 8.5t1 8.5t0.5 6l0.5 0.5l0.5 0.5h1h1q1 0 3.5 -1.5
t2.5 -3.5q0 -5 -1.5 -9.5t-1.5 -9.5t2.5 -8.5t6.5 -5t9 -2t10 -0.5q1 0 3 0.5t3 0.5l4 3v16l0.5 0.5t1.5 0.5q1 1 3.5 1.5t5 1.5t4 1.5l1.5 0.5h2.5h3.5h4h3h3h4h3.5h2.5q2 -1 2 -2v-2v-2.5t-2 -1.5h-5.5t-7.5 -0.5t-7.5 -0.5h-5.5q-4 -1 -6.5 -3t-2.5 -7v-3q0 -1 1 -2
q9 -1 18.5 -1.5t18.5 0.5q1 0 1.5 -1l0.5 -1v-1v-1q-1 -1 -1.5 -2.5l-0.5 -1.5h-30q0 -1 2 -4l4 -6t5 -5.5t5 -2.5h1v0q1 1 2 2.5t2.5 3l2.5 2.5t1 2q1 0 1.5 1l1 2t1.5 2t2 1q3 0 4.5 -1t1.5 -4v-1.5v-1.5l-13 -12v-4l1.5 -2t3 -3.5l3 -3t1.5 -2.5q2 -3 3 -5.5t5 -2.5
q2 0 3.5 4t2 9t1 9.5t0.5 6.5v13v9.5t-2 9.5v152q0 1 2 1.5t3 0.5q3 0 4.5 -3t1.5 -6v-1v-3.5t-0.5 -5.5t-0.5 -5v-4v-179q0 -2 -0.5 -4t-1.5 -4t-2.5 -4t-3.5 -2l-18 -5h-4h-9h-10.5h-8.5h-11.5h-15.5h-14h-7q-6 0 -13.5 1t-13 3.5t-9.5 7t-5 12.5q-2 36 -2 72t-2 72
q2 6 2 12v12t-1 12.5t-1 13.5v6zM145 215q0 3 2.5 4t4.5 1q9 0 14.5 -1.5t8.5 -4.5t4 -9t1 -15q0 -2 -1 -4.5t-3 -5t-4.5 -4t-4.5 -1.5h-30q-3 0 -4 -2t-1 -4t0.5 -4.5t2.5 -3.5q3 0 8 -1t11 -3t10.5 -5t4.5 -7v-25q0 -3 -1.5 -4.5t-3 -2.5t-4 -1.5t-4.5 -1.5h-3.5h-5.5h-5
h-4h-17q-8 0 -14.5 2t-10.5 7.5t-4 16.5v3v4.5t0.5 4.5t1.5 3q0 1 1 2.5t2 2.5l2 2l1 1h21l0.5 0.5l1.5 1.5l0.5 1.5l0.5 1.5v1v1q0 1 -1.5 4t-1.5 4l-1 0.5l-1 0.5l-32 3l-6 7v23q0 4 2 5.5t4.5 2.5t5.5 1.5t5 0.5t5.5 0.5t6.5 0t5.5 -1.5t2.5 -4t-3 -4t-5 -1q-3 0 -5 1
t-5 1t-6.5 -1.5t-3.5 -4.5v-18q0 -1 7 -1.5t15 -1.5t15.5 -1h8.5h7h7t8 0.5t6.5 0.5h2.5l3 3v21l-0.5 0.5l-0.5 0.5q-5 4 -11 4h-12q-1 0 -1 1v2zM98 142v-2q14 -1 29 -2t29 -1q2 0 2.5 1t0.5 3q0 4 -4 6t-10 3t-12 1h-8h-7q-5 0 -9 -0.5t-7.5 -2.5t-3.5 -6zM100 127
q0 -4 4 -6t8.5 -2.5t9.5 -0.5h7h14.5t14.5 2q1 0 2 2t1 3q0 2 -1.5 3t-3.5 1.5l-4 1l-2 0.5h-48q-2 0 -2 -2v-2zM146 20v0l1.5 -1.5l0.5 -0.5h26v6l-12 12h-3l-1.5 -1.5l-3 -3l-3.5 -3.5t-3 -4l-0.5 -1t-1.5 -2v-1zM82 20v0q5 -2 9 -2h7h7l0.5 0.5t0.5 1.5q0 3 -3.5 6.5
t-6.5 3.5q-1 0 -3.5 -1t-4.5 -2.5l-4 -3t-2 -3.5z" />
</svg>
