<?xml version="1.0" standalone="no"?>
<!DOCTYPE svg PUBLIC "-//W3C//DTD SVG 1.1//EN" "http://www.w3.org/Graphics/SVG/1.1/DTD/svg11.dtd" >
<svg xmlns="http://www.w3.org/2000/svg" xmlns:xlink="http://www.w3.org/1999/xlink" version="1.1" viewBox="-10 0 266 256">
   <path fill="currentColor"
d="M87 235q0 5 1.5 8.5t5.5 5.5l3 -3v-41q0 -4 1 -4.5t3 -0.5q5 0 6 3.5t1 7.5q0 7 -1 14t-1 14l0.5 2.5t0.5 3.5l0.5 0.5l0.5 0.5h1q7 0 8.5 -4.5t1 -10.5l-1 -12t3.5 -9t9.5 -4t11.5 -1.5t11 -0.5q6 0 10 -1q7 0 13.5 -1.5t13.5 -1.5h6l2 2v2.5v3.5q0 7 -1 14t-1 15
q0 3 1.5 5.5t5.5 2.5q2 0 3.5 -1.5t2 -3.5t0.5 -4v-5v-5v-1t-0.5 -2t-0.5 -2v-1q-1 -4 -0.5 -7.5t0.5 -7.5t-0.5 -7.5t-1.5 -7.5v-10v-16v-18v-18v-15.5v-10.5q0 -18 -0.5 -37t-2.5 -37q-1 -2 -2.5 -4t-4.5 -2q-1 -1 -5.5 -1.5t-9.5 -1t-9 -1t-6 -0.5h-3h-6h-5h-4
q-6 0 -12.5 -1.5t-13.5 -1.5q-2 0 -4 0.5t-4 0.5h-1h-2.5t-5.5 -0.5t-5 -0.5h-3l-2 0.5t-3 0.5q0 1 -1.5 1.5t-3 0.5h-3h-2.5q-3 1 -7 1t-8 0.5t-7.5 2t-5.5 4.5q-3 7 -4 16.5t-1 20v20v16.5v10.5v15.5v15.5v9.5q-2 5 -1.5 10t-0.5 10v7v11.5v14t-0.5 14t-0.5 11.5v7v3
q0 2 0.5 5t3.5 3q2 0 3.5 -3t1.5 -5v-35.5t4 -35.5v-81v-7t0.5 -13t0.5 -12.5v-7.5t0.5 -5t1.5 -5.5t3 -4t6 -1.5q1 0 4 3t7 6.5t6.5 7t2.5 5.5q-1 3 -3.5 5t-5.5 4t-5.5 4.5t-2.5 5.5q0 2 1.5 2h2.5t2 -0.5t2 -1.5q1 0 3 -1.5l4 -3l4 -3t2 -2.5h4l9 8l1 0.5t2 0.5t2.5 -0.5
t1.5 -2.5v-1q-1 0 -1.5 -1.5l-0.5 -1.5q0 -1 -1.5 -2.5l-3 -3t-3 -2.5t-1.5 -2v-5q0 -1 2 -2.5t3.5 -3.5l3 -4t2.5 -3q1 -2 1 -3.5t0.5 -3t1.5 -2.5t4 -1h1q1 0 3.5 0.5t4.5 0.5h4h2l3 1.5t1 1.5t-0.5 2.5t-0.5 3.5q1 2 2.5 4l3 4l3 4t1.5 5t-1 5.5t-2.5 4.5l-3 4t-1.5 6
q5 0 8 -3.5t6 -7.5h1h2q3 0 5 2t4 4.5t4.5 5t5.5 2.5q4 0 4 -5v-1.5v-0.5l-13 -13v-2v-1q0 -1 2 -5.5t5 -8.5t6.5 -7.5t5.5 -2.5q3 1 4 3t2 4.5t1 5v4.5v36q0 22 1.5 44.5t1.5 44.5v2.5t-0.5 3l-1 3l-0.5 1.5q0 3 0.5 5.5t0 4t-1.5 2t-4 0.5h-4t-3 -2q1 -19 -0.5 -38.5
t-3.5 -39.5q0 -6 -1 -10t-3 -6t-6 -2.5t-10 -0.5q-8 0 -13.5 1t-9.5 8v8.5t-0.5 12t-1 12t-0.5 7.5v18v16t2 16q-2 5 -7 5.5t-10 0.5t-9 -3.5t-9 -6.5q-1 0 -2 -0.5l-1 -0.5v-12q0 -1 2.5 -2.5t6 -4t6.5 -6t3 -8.5q0 -8 -5 -12t-13 -3v-12q9 -3 13 -9t4 -16q0 -4 -1.5 -6
t-3.5 -3.5t-4.5 -2.5t-4.5 -2t-2.5 -3t-1.5 -3.5t-2 -2.5t-3 -1h-1l-0.5 1t-0.5 2q-2 4 -5.5 6.5l-7 5t-6 4.5t-2.5 6q0 8 1.5 12.5t4 6.5t5 2.5t5 1.5t4 3t1.5 6v1.5v2.5q-4 1 -7.5 3t-7 4.5t-5.5 6t-3 7.5q0 4 3.5 6.5t8.5 4t9 3.5t4 7l-0.5 1.5t-0.5 2.5q-15 7 -21 18.5
t-6 28.5q0 3 1 4.5t4 1.5t3.5 -1.5l1 -3t0 -4t-0.5 -4.5q1 -1 1.5 -4.5t1.5 -7t1.5 -7t0.5 -4.5l4 -4t4 -2t3 2t1 4q0 9 -2 17t-2 16zM145 192v-3t-0.5 -4t-0.5 -4v-2v-2q0 -5 1 -7.5t3.5 -4t6 -1.5h7.5t7.5 0.5t6.5 2.5v5q0 6 -0.5 9.5l-1.5 10.5q-4 3 -9.5 3h-10.5
q-2 0 -4.5 -0.5t-4.5 -2.5zM79 158q0 -1 1 -3t2.5 -4t3.5 -3t3 -1h16q3 0 3 2v4q0 6 -5 9t-10 3h-4t-4.5 -0.5t-4 -2t-1.5 -4.5zM144 154v-17q0 -2 1.5 -3t4 -1.5t4.5 -0.5h3q5 0 8.5 0.5t8.5 1.5q1 5 1.5 8t0.5 7t-3 5t-8 1h-1h-4t-6 -0.5t-6 -0.5h-4zM144 112q0 -7 5 -10
t11 -3q2 0 4 0.5t4 1.5t3.5 2.5t1.5 3.5v17h-23q-2 0 -3.5 -1.5t-2 -3.5t-0.5 -3.5v-3.5zM79 108q0 -7 4.5 -9.5t10.5 -2.5t10 1.5t4 8.5q0 6 -5.5 9.5t-12.5 3.5q-5 0 -8 -3t-3 -8zM84 30v-2l9 -1.5t8 -0.5h6l1 2v1v1q-1 4 -4.5 7.5t-6.5 5.5v0q-3 0 -5 -1t-3.5 -3.5
t-3 -4.5t-1.5 -4zM148 30v-2.5t2 -1.5h17q3 0 3.5 1.5t0.5 3.5q0 4 -3.5 8t-7.5 4q-3 0 -5 -1t-3.5 -3t-2.5 -4.5t-1 -4.5z" />
</svg>
