<?xml version="1.0" standalone="no"?>
<!DOCTYPE svg PUBLIC "-//W3C//DTD SVG 1.1//EN" "http://www.w3.org/Graphics/SVG/1.1/DTD/svg11.dtd" >
<svg xmlns="http://www.w3.org/2000/svg" xmlns:xlink="http://www.w3.org/1999/xlink" version="1.1" viewBox="-10 0 266 256">
   <path fill="currentColor"
d="M191 247q0 2 1.5 2.5t3.5 0.5q3 0 4.5 -4.5t2.5 -10.5t1 -12v-9v-7t-2 -7v-41q2 -2 2 -3.5v-3v-3.5v-4q0 -1 0.5 -4.5t0.5 -8t0.5 -8t0.5 -4.5v0v-1q0 -5 -0.5 -15.5t-0.5 -22.5t-0.5 -23t-0.5 -15q-1 -7 -3 -10.5t-4.5 -6t-7.5 -3.5t-12 -2h-4t-6.5 -0.5t-7 -0.5h-4.5
h-23h-15h-14t-14 0.5t-16 0.5q-8 2 -11.5 9t-4.5 15.5t-0.5 17.5t0.5 14q0 11 0.5 21.5t0.5 21.5v0q0 7 -1.5 15.5t-1.5 15.5q0 8 1 15t1 15q0 11 -1 21t-1 21v5v6t1.5 5t4.5 2q2 0 4 -0.5t2 -2.5v-76v-8l1 -78q6 0 10.5 -2t8 -5.5t7 -6t8.5 -2.5v0q1 0 2.5 0.5t1.5 1.5
q1 0 3 2.5t4.5 5t5 4.5t3.5 3h1h1q2 0 4 -1t2 -3q0 -4 -3 -6.5t-7 -4.5t-7 -4t-3 -6q0 -3 2.5 -4.5l5 -3t5 -3.5t2.5 -6q0 -1 -0.5 -2t-1.5 -1h-1q-1 0 -2 0.5t-1 1.5q-1 0 -3 1.5l-4 3t-4 2.5t-2 2h-8l-13 -12l2 -2h1.5t4 -0.5l5 -1t3.5 -0.5h14h15q1 0 2.5 0.5l3 1
t2.5 0.5h1v8l14 15l0.5 0.5t0.5 1.5q0 3 -2 5.5t-4.5 4.5t-4.5 4t-2 4t1.5 2h2.5q2 0 4 -2t4 -4.5t5 -4.5t6 -2q1 0 2 0.5t2 0.5q2 3 4.5 5.5l4.5 4.5t5 3t7 1q0 -5 -2.5 -9.5t-7.5 -6.5q-1 1 -2 0l-2.5 -2.5l-2.5 -2.5v0v-1q1 -1 1.5 -2l0.5 -1l1.5 -1.5l3 -3l3 -3
l2.5 -2.5t1 -2.5t0.5 -3t1 -2.5t2.5 -1t3 0.5t1 2.5q2 13 2 28v27q0 40 -2 79t-2 78zM131 229q0 1 2.5 3.5t3.5 2.5q4 0 5.5 -2.5t2 -5.5t0 -6t-0.5 -5q1 0 4 -0.5t6 -0.5t6 -0.5t4 -0.5q3 0 6 0.5t6 0l6 -1t5 -3.5l-3 -4h-15v-15q0 -2 2.5 -2.5t5 -0.5t5 -1t2.5 -3
q0 -3 -2 -3.5l-4 -1t-4 -0.5h-3q-2 -2 -2 -4.5v-4.5v-7q1 0 2 -0.5l1 -0.5q1 0 3 -0.5t4 -0.5t3.5 -0.5t2.5 -0.5t2 -1.5t1 -2.5q0 -3 -2.5 -3h-6.5t-7 -0.5t-3 -2.5v-14q0 -2 1.5 -2h2.5q2 0 3.5 1.5t3.5 1.5q5 0 5 -4q0 -3 -2.5 -4.5t-6 -2.5t-6.5 -2.5t-3 -3.5q0 -3 3 -4
t7 -3t7 -4t3 -6q0 -2 -4 -6t-9 -8.5t-9 -7.5t-5 -3t-4.5 3.5l-8 8l-8 8t-3.5 4.5q0 5 2 7t4.5 3.5t4.5 3.5t2 6q0 3 -2.5 6.5l-5 7t-5 8t-2.5 8.5v61v1.5v3t-0.5 3.5t-0.5 3l-1 2l-1 2v1v0zM76 222q0 3 0.5 5.5t3.5 2.5t5 -3q0 -7 0.5 -14t1.5 -14q1 -2 3 -4.5t5 -2.5
q2 0 2.5 1.5t0.5 3.5v3.5t-0.5 5t-1 4.5t-0.5 3v7v7q1 1 1.5 1h1.5q3 0 4 -2t1 -4v-28l0.5 -0.5t1.5 -0.5q3 0 5 2t3 5t1 6.5v4.5q0 4 -1 7t-1 7q0 2 2 3.5t5 1.5q1 0 2 -0.5t1 -2.5v-25q0 -6 -3 -9t-6.5 -5.5t-6.5 -4.5t-3 -7q0 -3 3 -5.5l6 -5t6 -6.5t3 -10v-3v-3
q-2 -2 -4.5 -3l-5 -2t-5 -1.5t-5.5 -2.5v-4q0 -4 3 -5t6.5 -3t6 -5.5t2.5 -11.5q0 -4 -0.5 -6.5t-2.5 -4l-4 -3t-6 -3.5q-2 -2 -2 -4t-0.5 -4.5t-1.5 -4t-4 -1.5h-0.5h-0.5q-1 1 -1 3v4t-0.5 4t-1.5 3q-4 2 -6 3.5t-4 2.5t-3.5 2.5t-4.5 5.5v0q0 9 3 13t7 6t7 4t3 7
q0 4 -3.5 6t-7 3.5t-6.5 4t-3 6.5q0 6 1.5 9t4.5 5t6.5 3.5t8.5 3.5v3q0 3 -2 5.5t-4.5 4t-6 3t-5.5 4.5q-2 7 -3 14.5t-1 14.5zM142 193q0 -2 1.5 -2.5l3 -1t3.5 -1t3 -0.5q3 0 5.5 2.5t2.5 5.5q0 4 -0.5 6t-2 3t-3.5 1.5t-5 0.5h-1h-2t-2 -0.5t-1 -1.5zM142 169
q0 -6 3.5 -7.5t9.5 -1.5q1 0 2 0.5l3 1.5v1.5t0.5 3.5t0.5 3.5v2.5t-0.5 3.5l-0.5 2.5h-15q-1 0 -1.5 -1.5l-1 -3t-0.5 -3.5v-2zM88 154q0 -6 4 -8t10 -2q4 0 7 1.5t3 6.5t-4 7.5t-9 2.5q-6 0 -8.5 -1.5t-2.5 -6.5zM144 147q0 -2 1 -5.5t2.5 -6.5t4 -5t5.5 -2h3t1 1l-1 22
q0 1 -1 1.5t-2.5 0.5h-2.5h-1q-3 0 -6 -1t-3 -5zM145 106q0 -2 1.5 -4.5t3.5 -5t4.5 -4t4.5 -1.5q3 0 6 1.5t5.5 4t3.5 5.5t1 6q-3 0 -4.5 -1.5t-2 -3.5t-1.5 -3.5t-3 -1.5l-0.5 0.5l-0.5 0.5q-1 1 -1 4.5t-0.5 6.5t-1.5 5t-4 2h-0.5h-0.5l-2 -1.5t-3.5 -3t-3 -3.5t-1.5 -3z
M85 109q0 -3 1.5 -5.5t4 -4l5 -3t5.5 -1.5q1 0 2.5 0.5l3 1t3 1.5t1.5 2v11q0 1 -2 2.5t-4 1.5t-4 0.5t-3 0.5q-2 0 -4 -0.5l-4 -1t-3.5 -2t-1.5 -3.5zM74 35h1h1q0 1 1.5 2l3 2t3 2.5l1.5 1.5q2 1 5 3t3 5q0 2 -3 5t-7.5 6.5t-8.5 6t-7 2.5v-4q0 -2 0.5 -5.5t0.5 -6v-3.5
v-3t0.5 -3.5t0.5 -3.5v-2q1 -3 2 -4t3 -1zM145 31q1 -2 3.5 -2.5t3.5 -1.5q1 0 4 0.5t6.5 1t7 0.5h4.5t2.5 0.5t2.5 1.5v0q0 2 -1.5 4.5t-3.5 5t-4.5 4t-3.5 2.5q0 1 -1 1h-1q-3 0 -6 -2t-5.5 -4.5t-4.5 -5.5t-3 -5z" />
</svg>
