<?xml version="1.0" standalone="no"?>
<!DOCTYPE svg PUBLIC "-//W3C//DTD SVG 1.1//EN" "http://www.w3.org/Graphics/SVG/1.1/DTD/svg11.dtd" >
<svg xmlns="http://www.w3.org/2000/svg" xmlns:xlink="http://www.w3.org/1999/xlink" version="1.1" viewBox="-10 0 266 256">
   <path fill="currentColor"
d="M121 163q-1 1 -1.5 3.5l-1 5t-0.5 4.5v2q-3 8 -7 12t-8 7.5t-7 9t-3 15.5q0 1 -0.5 5.5t-0.5 9.5t-0.5 9t-0.5 6q3 0 4.5 -1t2.5 -2t2 -3t3 -3v-10.5v-11t1.5 -10.5t5.5 -10l4 -4l4 -4t4 -4.5t3 -5.5q2 -4 2.5 -7.5t0.5 -7.5t0.5 -8t1.5 -8v-46q0 -2 -1.5 -4.5t-4.5 -2.5
h-18h-16q-7 0 -15 1q-2 2 -2.5 3t-0.5 3v2t2 1l2.5 0.5t3.5 0.5q8 0 15 -1t15 -1h9l2 1v2.5t0.5 5t0.5 5v4.5v3v3v6.5t-0.5 9.5t-0.5 9v6zM152 234q0 4 1 7.5t6 3.5q2 0 4.5 -1t2.5 -5q0 -3 -0.5 -5.5t-0.5 -5.5q0 -11 4 -22q10 -8 15 -14.5t7.5 -13.5t3 -15.5t0.5 -20.5
v-10.5t-1 -15t-4 -12.5t-10 -5h-10t-14.5 1t-13 3t-5.5 7q11 0 21 -2t21 -2q3 0 4 4.5t1.5 10t0.5 11v7.5q0 6 -1 11.5t0 12.5q-2 2 -3.5 2.5t-3 0.5t-3 0.5t-3.5 1.5q-1 1 -5.5 3.5t-9.5 5.5t-9.5 5.5t-5.5 3.5t-3 2l-4 2t-3.5 2.5t-1.5 3.5t1.5 3t2.5 1q4 0 10 -3.5t12 -8
t11.5 -9.5t9.5 -7l1 -0.5t2 -0.5t1.5 1.5t0.5 2.5q0 4 -2 7t-4.5 6t-5 5.5l-4.5 4.5q-6 8 -9.5 17.5t-3.5 18.5zM62 194q0 3 2.5 3.5t6.5 0.5q2 0 6 -1.5t6 -2.5q4 -3 9 -6t9 -6t7.5 -7.5t3.5 -10.5q-2 0 -6 2l-3.5 2.5t-7 4.5t-6.5 4.5t-4 2.5l-5 2.5t-6.5 3t-6.5 3t-4 2.5
q-1 0 -1 1v2zM62 162q0 2 2 3t4 1q6 0 11 -2t10 -5t9.5 -6.5t9.5 -6.5q2 2 4.5 -1t2.5 -5q0 -3 -4 -3q-1 0 -5 1.5t-9.5 4t-11.5 6t-11 6t-8 4.5t-3 3h-1zM171 146q-3 0 -9 1.5t-11.5 3.5t-9.5 5.5t-4 7.5q4 0 10 -1.5t12 -3.5t11 -5t7 -6q0 -1 -1 -1.5t-2 -0.5h-2h-1z
M64 136q0 1 0.5 1.5l1.5 1.5h3h3t4.5 -1t8 -3t9.5 -4t9.5 -4.5t7 -4t2.5 -3.5q0 -1 -0.5 -2t-2.5 -1q-3 0 -10.5 2.5t-15.5 5.5t-14 6.5t-6 5.5zM139 135q0 2 2 2h3q3 0 8.5 -1.5t10.5 -3.5t8.5 -5.5t3.5 -6.5q-3 0 -8.5 1t-12 3t-11 5t-4.5 6zM55 83v0q2 3 3 4t3 1h2
l3.5 -0.5l7 -1l7 -1t4.5 -0.5q15 -2 30.5 -2.5t30.5 -0.5q3 0 10.5 -0.5t16 -0.5t16 -0.5t10.5 -0.5q4 -2 4 -4q0 -4 -4 -3l-2 -0.5t-4 -0.5h-5h-2h-4h-4t-3.5 0.5l-1.5 0.5h-6h-9t-9.5 0.5t-5.5 0.5t-3 -0.5t-2.5 -1l-1 -1l-0.5 -0.5v-16h6h8.5t8.5 -0.5t6 -0.5q5 0 8.5 -2
t5.5 -5.5t2.5 -7.5t0.5 -9q0 -4 -1.5 -5.5t-4.5 -1.5q-4 0 -5.5 3.5t-2 8t-1 8t-4.5 3.5h-25v-30q0 -3 -1.5 -3.5t-3.5 -0.5t-3.5 0.5t-2.5 3.5v9t-0.5 8t-1 8.5t-0.5 9.5q-4 3 -11 3h-1h-2.5t-4 -0.5t-4 -0.5h-2.5q-3 -2 -4 -6t-1.5 -8.5t-2 -7.5t-6.5 -3q-3 0 -4 1.5
t-1 2.5q0 2 0.5 7t2 10t4 9t6.5 4h29q0 1 0.5 2.5t0.5 3.5t-0.5 4t-2.5 2q-1 0 -3.5 0.5t-5 0.5t-4.5 0.5t-3 0.5h-7.5h-12.5h-11.5h-7.5h-4t-3.5 1t-2.5 2t-1 4z" />
</svg>
