<?xml version="1.0" standalone="no"?>
<!DOCTYPE svg PUBLIC "-//W3C//DTD SVG 1.1//EN" "http://www.w3.org/Graphics/SVG/1.1/DTD/svg11.dtd" >
<svg xmlns="http://www.w3.org/2000/svg" xmlns:xlink="http://www.w3.org/1999/xlink" version="1.1" viewBox="-10 0 266 256">
   <path fill="currentColor"
d="M76 245q0 2 1.5 3.5t3.5 1.5q4 0 7.5 -7.5t6.5 -19t5.5 -25.5t4.5 -27t3 -23.5t1 -15.5v-10t-2 -10q-2 -5 -6 -5.5t-9 -1t-8.5 -2t-3.5 -7.5q0 -4 5 -5.5t10.5 -2.5t10 -2.5t4.5 -6.5v-0.5v-0.5l-0.5 -1.5l-0.5 -1.5h-8l-2.5 1t-5.5 2.5t-6 3.5t-5 3q-4 2 -7.5 4t-3.5 7
t2.5 8.5t6 5t8 2.5t8.5 1q3 2 4 5.5t1.5 7t0.5 7.5v7q0 10 -3.5 13t-12.5 3h-7q-2 -1 -2 -3v-2q0 -7 3 -9t6 -3t5.5 -2t2.5 -5v-1q-3 -2 -5.5 -1.5t-6.5 0.5q-2 0 -2.5 -1.5t-1 -3.5t-1.5 -3t-3 -1t-3 0.5t-2 2.5q0 2 0.5 5.5t0.5 8.5q0 4 -0.5 8t-0.5 5q0 6 -2 12t-2 11v2
v4v4v2q-1 5 -2.5 9.5t-3 9.5t-3 9.5t-1.5 9.5q6 0 9 -5t4.5 -11t2 -11.5t1.5 -5.5h15q1 0 1 -1.5v-2.5v-1t-1 -1h-11q-1 0 -1.5 -1t-0.5 -2v-1.5v-0.5v-4q0 -3 0.5 -5.5t1.5 -4t3 -1.5h19q1 0 1 2v2q0 7 -2.5 12.5t-3.5 12.5q-2 10 -4 18.5t-6 17.5q-1 4 -4 7.5t-3 7.5z
M169 210q0 3 1 8.5t2.5 11.5t4.5 11t7 5q3 0 4.5 -1.5t1.5 -4.5q0 -2 -2 -5.5t-4.5 -7.5t-4.5 -9t-2 -11t3 -11.5t7 -11t7.5 -11t4.5 -13.5v-4v-6v-6v-4v-6v-6v-5.5v-3.5q0 -2 -0.5 -5l-1 -6t-1 -5.5l-0.5 -2.5l-6 -6h-24q-2 0 -3.5 0.5t-1.5 1.5t0.5 1.5l0.5 0.5h2t4 0.5
t3.5 0.5t2.5 1q2 0 4 0.5t2 3.5q0 1 -3.5 3.5t-7.5 6t-7.5 7t-3.5 4.5t1 2.5t3 1.5t3.5 -1.5l3.5 -3.5l3 -3t4.5 -4t4.5 -4l3 -3h0.5h0.5q2 0 2.5 1t0.5 2.5v3.5v2q0 5 -3 9t-8 8t-10 7.5t-9 6.5q1 1 2.5 1h2.5q3 0 6.5 -2t6 -5t5.5 -5.5t6 -2.5q4 0 4 3v2l-1.5 2t-3.5 4.5
t-3.5 4l-2.5 2.5l-0.5 0.5t-0.5 1.5q-1 1 -4.5 4t-7.5 6t-7 6t-5 4q-1 2 -2 4.5t-2 5.5h1q4 0 7.5 -3t5.5 -4l3.5 -3.5l5 -5l5 -5l3.5 -3.5h4q0 8 -1.5 13t-4.5 8t-5.5 6.5t-5.5 10.5v10zM124 210q0 2 1 7t2.5 11t3.5 10t4 4q3 0 4 -2t1 -4q0 -4 -1 -8t-2.5 -7.5t-2.5 -7
t-1 -8.5t2 -8.5t5 -6.5t5.5 -6.5t3.5 -7.5q2 -7 3 -14.5t1 -15v-15v-13.5v-6q0 -4 -0.5 -8t-0.5 -6v-3l-5 -5h-2h-4h-5t-8 0.5t-7 1.5t-3 4v0q0 1 0.5 1.5t1.5 0.5h20q1 0 1 1.5v2.5v2q-6 5 -12 10.5t-11 10.5v2q0 3 2 3q1 0 2.5 -1t4 -2.5t4.5 -3t3 -2.5q0 -1 1.5 -2
t3 -2.5l3 -3l1.5 -1.5h3v12q-1 0 -6 3.5t-10 7.5t-9.5 7.5t-4.5 4.5v1v2q6 0 9.5 -3l7 -6t6.5 -5.5t7 -2.5v10q0 2 -1 2.5t-2 -0.5l-3 3l-4 4l-4 4l-3 3q-2 1 -4.5 2.5t-5.5 3t-5.5 4t-2.5 3.5q0 4 4 4h1q6 -5 12.5 -10t12.5 -9h1q2 0 2.5 1.5t0.5 3.5q0 7 -3.5 12.5
t-7.5 11t-7 11t-3 13.5zM83 56q5 5 10.5 7.5t12 4t13 2t13.5 0.5q15 3 29 4.5t30 1.5q0 -1 -0.5 -2t-1 -3t-1 -3t-1.5 -1h-33q-2 -2 -6 -2t-8 -0.5t-7 -1.5t-3 -4t2 -6t3 -7h9q6 0 10.5 -0.5t9 -2.5t7.5 -6q1 -5 1.5 -8.5t0.5 -8.5q0 -1 -0.5 -3.5t-2.5 -2.5q-3 0 -4 2
q0 1 -0.5 3t-1.5 4.5t-1.5 4.5t-0.5 3q-1 3 -4 5h-3.5t-5.5 0.5t-5.5 0.5h-3.5h-2h-1.5t-1.5 -1q0 -3 0.5 -6.5t0 -7.5t-2 -7.5t-4.5 -4.5q-1 0 -3 2t-2 4v43l-0.5 2l-0.5 2h-1h-1q-7 -2 -12 -4t-13 -3q-4 -3 -5 -9t-1 -11.5t-2 -10t-8 -4.5q0 9 0.5 17t2.5 18z" />
</svg>
