<?xml version="1.0" standalone="no"?>
<!DOCTYPE svg PUBLIC "-//W3C//DTD SVG 1.1//EN" "http://www.w3.org/Graphics/SVG/1.1/DTD/svg11.dtd" >
<svg xmlns="http://www.w3.org/2000/svg" xmlns:xlink="http://www.w3.org/1999/xlink" version="1.1" viewBox="-10 0 266 256">
   <path fill="currentColor"
d="M182 247q1 2 2 2.5t3 0.5t3.5 -1t2 -3t0.5 -4v-4q0 -6 -0.5 -13.5l-1 -15t-1.5 -15t-2 -12.5v-9.5v-13.5v-17v-16v-14v-9v-5t-0.5 -6.5t-0.5 -7v-4.5q-2 -4 -4.5 -6.5t-6.5 -3.5h-7.5t-11 -0.5t-11 -0.5h-7.5q-1 0 -3.5 -1.5t-2.5 -3.5q0 -1 2 -2.5t3 -1.5l35 -3
q2 0 3.5 -2.5t2.5 -5.5t2 -5.5t1 -3.5q0 -3 -2 -4t-4 -1l-1 0.5l-1 0.5q-3 6 -5 9.5t-5 5t-7 2t-11 0.5q-1 0 -4 -0.5t-4 -0.5q-3 1 -3 -0.5v-2.5q0 -2 0.5 -3.5t2.5 -2.5q1 0 3.5 -0.5t5 -1.5t5 -1.5t3.5 -0.5q2 -1 3.5 -2.5t2 -4l1 -5t0.5 -4.5t-0.5 -4t-4.5 -2
q-2 0 -3 2.5t-1.5 5t-0.5 5.5v3q-4 1 -6.5 1h-6.5q-6 0 -6 -6l1 -2.5t1 -3.5v-1v-2q0 -4 -3 -5.5t-6.5 -2t-8 -0.5h-6.5h-11q-1 1 -1 1.5v1.5q0 2 0.5 3.5t2.5 1.5h2h1h2t4 -0.5t4 -0.5h3h1q2 0 3.5 1.5t2.5 3.5t1.5 4.5t0.5 3.5q0 3 -1 4t-4 1q-4 0 -8.5 -0.5t-8.5 -2.5
q-1 -1 -1.5 -2t-1.5 -2.5t-2 -2.5t-2 -1q-2 0 -2.5 1.5t-0.5 3.5q0 5 3.5 8t8 4t9.5 0.5t9 -0.5l1.5 3t0.5 3q0 6 -6 6h-3q-2 0 -5 -0.5t-7 -1t-7.5 -1t-4.5 -0.5q-2 0 -3.5 -2l-3 -4t-2.5 -3.5t-3 -1.5q-3 0 -3.5 1.5t-0.5 4.5q0 4 1.5 6.5t4 3.5t5.5 1.5t7 0.5q1 0 5 0.5
l8 1t8 0.5h5q2 2 3 3.5t1 4.5q0 1 -1 2.5t-3 1.5h-53q-1 0 -3 1.5t-2 3.5l1 1t1 2h2.5h3.5h4h2q18 0 35 -2.5t34 -2.5h5.5t8 0.5t8 0.5t5.5 1t3 3.5t1 5v4.5v4v10v16v18v19v16v10q0 1 0.5 5t1 9.5t0.5 11.5t0.5 11t1 9t0.5 6v12zM124 209q-5 0 -11 -0.5t-11 -0.5
q-6 0 -11.5 1t-10.5 3l-5 2.5l-3 1.5v16l0.5 0.5t1.5 0.5q4 4 9 5t10.5 1.5t11 0t11.5 -0.5h2h4.5h4.5h4h3h4.5h4.5h3q4 -1 8.5 -2.5t7.5 -4.5v-8v-3t-0.5 -4l-1 -4t-2.5 -3h-9.5t-8.5 -0.5t-7.5 -0.5h-8.5zM83 224q0 -4 3 -6q13 -2 26 -2.5t26 -0.5q6 0 10 0.5t4 7.5v2.5
v1.5l-9 5h-2h-3.5h-4.5h-3h-6h-6h-5h-3h-2.5t-4 -0.5t-4.5 -1t-3 -0.5h-4t-4 -0.5t-3.5 -1.5t-1.5 -4zM66 168v4v4v4v2v3.5t0.5 4.5t0.5 3.5v1.5l5 5h11q19 0 38.5 -1t38.5 -2q0 -1 1 -2l1 -1l-2 -2t-2 -1v0q-18 0 -35.5 1.5t-34.5 1.5q-5 0 -8 -2t-5 -5t-2.5 -7t-0.5 -8
q0 -8 4 -14t13 -7l55 -3q2 0 4.5 -0.5t4.5 -2t4 -2.5t3 -3q1 -4 1 -8t0.5 -7.5t0.5 -6.5v-9v-12q-2 -5 -5.5 -6.5t-8.5 -1.5h-5h-4h-5t-9 0.5t-10.5 0.5h-11h-9h-5.5h-7h-6t-5.5 0.5t-6.5 1.5l-2 1t-2 2t0.5 2l0.5 1h9q19 0 38.5 -1.5t39.5 -1.5q3 0 4 2t1.5 5t0.5 6v5v7
t-0.5 8.5t-1.5 8t-3 3.5l-14 4h-9.5h-13.5t-13.5 0.5t-9.5 0.5h-5.5t-7.5 1t-6.5 3t-3.5 5v3v4v4v3zM84 174q0 6 5 8.5t10 2.5q6 0 14.5 -0.5t16.5 -1t16 -1.5t14 -2l0.5 -1t1.5 -2v-1q0 -2 -3 -2h-4q-13 0 -27.5 2.5t-28.5 2.5q-1 0 -2 -0.5t-2 -1.5l-2 -2t-1 -2
q1 -2 4 -3.5t4 -1.5t5.5 -0.5t9.5 -1t9.5 -1t7.5 -0.5h6t10 -0.5t8.5 -1.5t3.5 -3q0 -1 -0.5 -2.5t-1.5 -1.5h-1q-1 0 -4 0.5t-7 1t-7.5 1l-3.5 0.5q-2 0 -7 0.5t-11 1t-11.5 1t-6.5 0.5q-7 0 -11 2.5t-4 9.5zM66 131v2t1 1h7h5q3 0 6 -1h6h9h9.5h6.5h11q6 0 9 -1.5t5 -4.5
t2 -10v-3v-2l-5 -5h-4h-7h-8.5h-12h-13.5t-13 1t-9.5 2t-3.5 3v0l2 2t2 1h5q15 0 29.5 -1t28.5 -1l0.5 1.5t0.5 3t-0.5 3t-1.5 2.5q-4 2 -12.5 2.5t-18.5 1t-20 0.5h-15q-1 1 -1 2v1z" />
</svg>
