<?xml version="1.0" standalone="no"?>
<!DOCTYPE svg PUBLIC "-//W3C//DTD SVG 1.1//EN" "http://www.w3.org/Graphics/SVG/1.1/DTD/svg11.dtd" >
<svg xmlns="http://www.w3.org/2000/svg" xmlns:xlink="http://www.w3.org/1999/xlink" version="1.1" viewBox="-10 0 266 256">
   <path fill="currentColor"
d="M101 197v48q0 2 2 2h2q4 0 5 -3.5t1 -7.5v-0.5v-1.5l-0.5 -1t-0.5 -2.5t-0.5 -2.5l-0.5 -1v-1v-1l0.5 -3t0.5 -6t0.5 -5.5l0.5 -2.5v-6.5v-9.5v-9v-6q1 -2 1.5 -3.5t0.5 -3.5q0 -9 -1 -17t-1 -16q0 -12 1 -24t1 -24q0 -11 -5 -16.5t-15 -5.5q-5 0 -10.5 1t-10.5 1
q-7 0 -7 -8q0 -3 0.5 -7t2 -8.5t3.5 -8t4 -4.5q13 -4 24 -4h25h5h7h8h4l6 2t4 3v3v5.5v4.5v3q0 20 -1.5 41t-1.5 42q0 9 3 18.5t8.5 18t13.5 13.5t17 5q3 0 5 -1t2 -5q0 -5 -2.5 -7t-6 -2.5t-7.5 -1.5t-7 -4q-4 -5 -5.5 -8t-2.5 -5.5t-1.5 -5t-3.5 -5.5q0 -4 -0.5 -7.5
t-0.5 -6.5t-0.5 -6t-0.5 -7q0 -14 1 -26.5t1 -26.5v-27q0 -9 -4.5 -12t-11.5 -5q-2 0 -5.5 -0.5t-8.5 -0.5h-7h-6h-14q-6 0 -12.5 0.5t-13 1.5t-13.5 2q-6 2 -9.5 6t-5 9t-1.5 11t-1 12v37v6t-0.5 11t-0.5 11v6v11q0 8 1 14.5t4 11.5t8 7.5t14 2.5q4 0 8 -1.5t8 -1.5t5 4
t1 7v2q-1 1 -1.5 4.5t-0.5 4.5zM63 132q0 -3 2 -4t4.5 -1.5t5.5 -0.5h4h3h2.5t5 0.5t5 0.5t3.5 1q1 0 2 1.5t1 3.5v28l-7 4h-19q-4 0 -6.5 -4.5t-3.5 -10.5t-1.5 -11t-0.5 -7zM64 110l1 -25q0 -2 3.5 -3t8 -2t9 -1h5.5h3h2l5 6v21q0 2 -2 4l-3 3q-5 1 -8.5 1.5t-7.5 0.5h-4
t-5.5 -1l-5 -2t-1.5 -2z" />
</svg>
