<?xml version="1.0" standalone="no"?>
<!DOCTYPE svg PUBLIC "-//W3C//DTD SVG 1.1//EN" "http://www.w3.org/Graphics/SVG/1.1/DTD/svg11.dtd" >
<svg xmlns="http://www.w3.org/2000/svg" xmlns:xlink="http://www.w3.org/1999/xlink" version="1.1" viewBox="-10 0 266 256">
   <path fill="currentColor"
d="M112 247q4 1 8 4t8 3q2 0 3.5 -0.5t1.5 -2.5q0 -1 -5.5 -4.5t-12.5 -9t-12.5 -12.5t-5.5 -14q0 -3 0.5 -5t1.5 -3t2.5 -2t2.5 -4q4 -5 5 -13t1 -14v-4t-0.5 -6t-2 -5t-3.5 -2h-1q-1 0 -1.5 0.5l-0.5 0.5v1v1q2 4 2.5 8t0.5 9q0 3 -0.5 5.5t-2 5t-2.5 5t-2 5.5h-1h-1h-2
t-1 -2v-39l-6 6v20q0 2 -1.5 2.5t-2.5 0.5q-2 0 -4 -1.5t-3 -4l-2 -5t-1 -5.5t1 -6.5t3 -6.5q1 -2 4 -4t6 -4.5t4.5 -5.5t1.5 -7v-0.5v-0.5l-0.5 -0.5l-0.5 -0.5h-1h-1q-2 4 -7 8l-10 8t-8.5 9t-3.5 11t1.5 9t4.5 5.5t6.5 4.5t7.5 5q2 1 2 3v5v5.5t1 4.5q3 6 5.5 11.5t6 10
t7.5 9t10 8.5zM150 230v3v5t0.5 5.5t0.5 3.5q1 3 1.5 3.5t2.5 0.5l1 -0.5l1 -0.5q1 -3 1 -7v-8t1 -7.5t3 -7.5t6.5 -5.5l9 -3t8.5 -4t4 -8.5q1 -9 -3.5 -13t-11.5 -5t-14.5 0t-12.5 1q-2 -1 -2 -3v-3q0 -4 3 -6t7.5 -3t9 -1t9 -1t7 -3.5t2.5 -7.5q0 -14 -6 -18.5t-19 -4.5
h-3.5h-5t-4.5 1t-2 2q0 2 2 3t4.5 1h4.5h4h3.5t4.5 0.5t4 0.5h2l2 3l0.5 2t0.5 3q0 6 -2 8.5t-5.5 3.5t-8 1t-8.5 1t-8 4t-6 9q-1 0 -1 1q0 7 4 11t11 4h2q1 0 3.5 -0.5t5.5 -0.5t5.5 -0.5t4.5 -0.5q3 1 5 3.5t2 5.5t-4.5 5t-10 5t-10 8.5t-5.5 14.5zM121 166q0 5 -2.5 9
t-2.5 9q3 0 5.5 -2t3.5 -4.5t1.5 -5.5t0.5 -6q0 -4 -1 -6.5t-2.5 -5t-3 -4.5t-2.5 -6v-3v-3v-4v-3l-0.5 -1t-1.5 -2q-3 2 -3 6v6q0 4 1.5 7.5t3 6.5t2.5 6t1 6zM146 147l0.5 2t1.5 2h14l1 -1l2 -2v-0.5v-0.5h-19zM126 86l0.5 2.5t0.5 3.5q-1 2 -4.5 4t-7.5 3.5t-8 2.5t-6 2
q-3 1 -7 3t-7.5 5t-7 5t-5.5 4q-3 1 -8 2.5t-9.5 3.5t-8 5t-3.5 8h3q1 0 3 -0.5l4 -1t2 -2.5q1 0 4.5 -2t6.5 -3.5l6 -3l5 -2.5t8 -4.5t12 -7.5t12 -6.5t9 -2.5h2t2 1v28l1 1q3 -1 4.5 -6t2 -11t1 -10.5t2.5 -4.5q4 0 7 2.5t6 4.5q5 2 13.5 7t18 10t18 9t13.5 4
q0 -3 -5.5 -7.5t-14 -9.5t-18.5 -9.5t-18.5 -9t-14.5 -8.5t-6 -6q0 -3 3 -4t5 -2q1 -1 3.5 -2t5.5 -2.5t5.5 -2.5t3.5 -1h1h1q4 0 6.5 2.5t5 7t4.5 9.5t4 9.5t4 7.5t5 3q0 -12 -5.5 -24t-11.5 -21q3 -3 6 -7.5t3 -9.5q0 -6 -3.5 -9.5t-9 -5.5t-11.5 -2.5t-11.5 -1.5t-9 -2
t-3.5 -4v-16q0 -1 -1.5 -1.5l-1.5 -0.5q-1 0 -3 0.5t-2 1.5v21h-55l-2 3q0 1 1.5 2t3.5 1.5l4 1t3 0.5h15q6 0 12.5 -1t13.5 -1q3 0 4.5 2.5t1.5 4.5q0 3 -1 5t-3 3q-3 1 -12.5 1t-19.5 1t-19.5 1t-13.5 1h-2h-3t-3.5 0.5t-1.5 1.5t0.5 2t0.5 2h3.5h4.5h4h3q12 0 23 -1
t23 -1h3h5h3h2l2 2v2v2v3v4t-1 3.5t-2 1.5h-4q-2 0 -4.5 0.5t-5.5 0.5h-4h-9q-5 0 -9.5 -0.5t-9 -0.5t-10.5 -1v1v1q0 5 3.5 5.5t7.5 0.5h47zM136 69v-3t2 -3h3h4t3.5 0.5t3 1.5t1.5 3t-1.5 3.5t-4 2l-5 1t-4.5 0.5t-2 -2v-4zM136 48v-3.5t2 -3.5h7q4 0 8.5 0.5t9 2t7.5 4.5
t3 8q0 3 -3 4t-5 1q-4 0 -7.5 -2t-7.5 -2q-3 -1 -5.5 -1t-4.5 -0.5t-3 -2t-1 -5.5z" />
</svg>
