<?xml version="1.0" standalone="no"?>
<!DOCTYPE svg PUBLIC "-//W3C//DTD SVG 1.1//EN" "http://www.w3.org/Graphics/SVG/1.1/DTD/svg11.dtd" >
<svg xmlns="http://www.w3.org/2000/svg" xmlns:xlink="http://www.w3.org/1999/xlink" version="1.1" viewBox="-10 0 266 256">
   <path fill="currentColor"
d="M50 247q0 1 0.5 1h1.5q2 0 3.5 -1.5t1.5 -3.5v-102q0 -6 2 -12t5 -10.5t8 -7.5t11 -3h1h2q1 4 1 6.5v5.5q0 4 -3.5 5t-7.5 1t-7.5 0.5t-3.5 2.5t2.5 3t4.5 1q3 0 5.5 -1t5.5 -1t3.5 1.5t0.5 5.5q0 3 -2 4.5t-5 2.5l-6 2t-4 3q-2 2 -3.5 5t-2.5 6.5t-1.5 7t-0.5 5.5
q0 6 2 10t5 6t7 3t9 1q15 0 22.5 -6.5t7.5 -23.5v-8l-0.5 -1.5t-2 -3t-2.5 -1.5q0 -1 -2.5 -2t-5 -2.5t-4.5 -2.5t-3 -2v-1.5v-2.5q0 -5 2.5 -6t5 -1.5l5 -1t2.5 -2.5v-1q0 -1 -0.5 -2l-0.5 -1h-12q-2 0 -2 -2.5v-2.5q0 -5 1.5 -7t5.5 -2q6 0 9.5 3t5.5 8t3 10.5t3 10.5
q1 27 2.5 54t1.5 54q2 0 5 -1t4 -4v-22q0 -12 -1.5 -23.5t-2.5 -23.5v-15.5t-0.5 -19t-3 -18t-8.5 -13.5q-3 -2 -6 -3t-6.5 -2.5t-6.5 -2.5t-6 -3v-2.5v-1.5q0 -6 2.5 -8.5t6 -4t7.5 -2t7 -3.5q4 -2 5 -4.5t3 -5.5q2 -2 4.5 -2.5l5 -1t4.5 -1t2 -2.5t-2 -3.5t-4.5 -2
t-5 -1.5t-3.5 -2q0 -1 0.5 -4.5t-0.5 -3.5q0 -5 -3.5 -7t-8.5 -2.5t-9.5 0t-6.5 0.5v-19q0 -2 -2.5 -2h-2.5q-2 0 -3 0.5t-2 2.5q0 9 -1.5 13.5t-4.5 6t-7 1.5t-7.5 -0.5t-6 0.5t-2.5 4t1.5 3.5t3.5 0.5q4 0 8.5 -1t9.5 -1q3 0 3.5 1.5t0.5 4.5v5q-1 1 -4.5 1.5t-4.5 0.5
q-2 0 -6 0.5t-8.5 1t-8.5 1t-5 0.5q-3 1 -4 2t-1 4t1 3.5t4 0.5q8 0 15 -2.5t15 -2.5h6l0.5 1l0.5 1v1v0q0 2 -0.5 6l-0.5 4l-1.5 1.5l-0.5 0.5q-1 0 -3.5 0.5t-5 0.5t-4.5 0.5t-3 0.5h-4h-4t-3.5 1.5t-2.5 3.5l3 3h2h3q5 0 10.5 -1.5t10.5 -1.5h2.5t1.5 1v17
q-6 -1 -12.5 0.5t-11.5 4.5t-9 8.5t-4 12.5q-1 3 -1 9v13.5v15.5t-0.5 15.5t-0.5 13.5v9v9v8v4.5t0.5 8t0.5 8t1 5.5zM176 219q3 4 4.5 9.5t4 10t6 7.5t9.5 3q0 -6 -2.5 -11.5t-6 -11t-6.5 -11t-3 -11.5q0 -5 2 -10t5 -10t6 -9.5t5 -8.5q5 -12 6 -27t1 -28v-3v-9t-0.5 -14.5
t-0.5 -14.5v-9q-1 -7 -5.5 -9.5t-11 -3t-13 0t-9.5 0.5h-4h-5h-4.5h-3.5t-1.5 0.5t-0.5 1.5t-0.5 3l-0.5 2h15v41q0 2 -1.5 3.5t-3.5 1.5q-1 0 -2.5 -1t-1.5 -3l-3 -18l-1 -0.5l-1 -0.5l-0.5 -0.5l-0.5 -0.5q-2 0 -3 3t-1 4q0 11 3 15.5t6.5 6t6.5 2.5t3 5q0 2 -0.5 8
t-1.5 12t-2 11t-2 5q-3 0 -5 -3t-3 -6t-1.5 -6.5t-0.5 -4.5t-1 -1.5t-2 -0.5l-0.5 0.5t-0.5 1.5v4q0 10 1.5 14t4 5t5 1.5t3.5 3.5v5q0 9 -2 18l-4 18t-3.5 17.5t-1.5 17.5v4.5t3 1.5h2q4 -6 6 -16.5t3.5 -22t2.5 -23t3 -18.5q1 -3 4.5 -3.5t7.5 -2t7 -5.5t3 -13q0 -5 -4 -5
h-2q-1 3 -3 8t-3 9h-8v-9v-10t0.5 -9.5t2.5 -8.5q2 -3 4 -4.5t4 -2t4 -0.5t3.5 -2t2.5 -6.5t1 -12.5v-6l-1 -0.5t-1 -1.5h-1h-1q0 1 -1 2t-1 2l-4 16q0 2 -2 2.5t-4 0.5t-2.5 -1t-0.5 -2.5v-3v-2.5v-16.5t5 -15.5h4h4q7 0 10.5 3.5t4.5 9t0.5 12t-0.5 12.5v5v5v5v2v8.5
t-0.5 11.5t-0.5 11.5t-1 7.5q-4 11 -9 22t-11 22v25zM67 217v2t1 2h6q2 0 8.5 -0.5t13.5 -1.5t12.5 -2.5t5.5 -2.5q0 -4 -3 -5t-5 -1q-3 0 -9.5 1t-13 1.5t-11.5 2.5t-5 4zM71 179q0 -4 3 -4.5t5 -0.5h2.5h2.5q1 2 1.5 4t0.5 4t-1 3.5t-4 1.5q-1 0 -2.5 -0.5t-3 -1.5
t-3 -2.5t-1.5 -3.5zM106 170q0 9 -2.5 12.5t-10.5 4.5v-2.5v-2.5q0 -4 0.5 -6.5t2 -3.5t4 -1.5t6.5 -0.5zM71 164q0 -2 1 -4.5t2.5 -4.5t3.5 -3t4 -1q1 0 2.5 1.5l1.5 1.5v12l-1.5 0.5t-2.5 1.5h-4h-5t-2 -4zM93 160q0 -2 1 -5.5t4 -3.5t5.5 2.5t2.5 6.5q0 3 -2 3.5t-5 0.5
t-4.5 -0.5t-1.5 -3.5zM95 70q0 -4 1.5 -6t4 -3.5t6 -1.5h6.5h2.5t1.5 2q0 3 -2 5.5t-4.5 4t-6 2.5t-5.5 1t-3 -0.5t-1 -3.5zM96 49q0 -7 4 -8.5t9 -1.5h3h3q2 2 2 3.5v3.5q0 3 -1.5 4.5t-4 2t-5.5 0.5h-5t-3.5 -0.5t-1.5 -3.5z" />
</svg>
