<?xml version="1.0" standalone="no"?>
<!DOCTYPE svg PUBLIC "-//W3C//DTD SVG 1.1//EN" "http://www.w3.org/Graphics/SVG/1.1/DTD/svg11.dtd" >
<svg xmlns="http://www.w3.org/2000/svg" xmlns:xlink="http://www.w3.org/1999/xlink" version="1.1" viewBox="-10 0 266 256">
   <path fill="currentColor"
d="M160 172q0 20 -1.5 39.5t-1.5 39.5h4.5t5 -1t4 -3t1.5 -5v-97q0 -2 2 -2.5t5 -1t6 -0.5h2h4q2 0 2 1l2 3v34q1 2 1.5 3.5t0.5 4.5q0 12 -2 23.5t-2 23.5v3.5v3.5l2.5 2.5t2.5 0.5q4 0 6.5 -3.5t2.5 -6.5v-96v-2.5t-0.5 -5t-0.5 -5t-1 -4.5q0 -1 -0.5 -4t-0.5 -4
q-2 -4 -5 -7.5t-3 -8.5q0 -3 2 -6t4 -5t3.5 -5t1.5 -6q0 -2 -0.5 -4.5t-2.5 -2.5q-3 -1 -6 3t-6 9.5t-5 10.5t-2 7q0 4 1 7.5l2 7t2.5 6.5t1.5 7v4q-2 1 -4 1.5t-4 0.5q-1 0 -3.5 -0.5t-4.5 -1t-3 -2t-1 -3.5v-27v-5l1 -30l0.5 -0.5l1.5 -1.5q3 -2 7 -2q3 0 8 -1q1 0 3 -0.5
t4.5 -1l5 -1l2.5 -0.5q4 -2 5.5 -6.5t1.5 -8.5v-4t-0.5 -6t-1.5 -5.5t-4 -2.5q-5 0 -6 4.5t-2 9.5t-4.5 9.5t-12.5 4.5q-2 0 -4 -1.5t-2 -4.5v-32l-6 -1v0q-4 0 -5 3t-1.5 7.5t0 9.5t0 9.5t-2 7.5t-5.5 3q-6 0 -8.5 -4.5t-4 -10.5t-3 -10.5t-4.5 -4.5t-5.5 3.5t-2.5 6.5
q0 10 2 15.5t6.5 8t10.5 3.5t15 1v3.5v3.5q0 15 -1 29.5t-1 29.5q-1 4 -5 7h-6h-3h-4t-3.5 -1t-1.5 -3q0 -3 1.5 -8t4 -10.5t4.5 -10.5t3 -8q0 -4 -2 -8.5t-5 -8.5t-7 -6t-9 -2l-2 2q-1 0 -1.5 1.5l-0.5 1.5q1 3 4 5.5t6.5 5t6 5.5t2.5 8q0 2 -3 6.5t-6.5 10t-6.5 10.5
t-4 10q-5 19 -5.5 39t-0.5 39v6v9v9v7q2 2 3 2.5t3 0.5q3 0 4.5 -1.5t2.5 -3.5t1 -4.5v-4.5q0 -9 -1.5 -17.5t-1.5 -17.5v-7.5t0.5 -10.5t1 -12.5t1.5 -12t2 -9l1 -3.5q7 -1 11.5 -1.5t10.5 -0.5h3t2 2t0.5 6.5t0.5 9.5v9v7zM63 229v3v3.5v3.5v2l2 5h1.5h1.5q4 0 5.5 -1
t3.5 -4v-41v-2t0.5 -4l1 -4t1.5 -3l24 -28q0 -1 0.5 -4l0.5 -3q0 -1 0.5 -2.5t1.5 -3t1.5 -3l0.5 -1.5q1 -5 1 -11.5t0.5 -13.5t0.5 -13v-12v-11t-0.5 -14.5t-1.5 -15t-4 -13.5t-7.5 -10t-11.5 -4q-15 0 -23 8t-12 19.5t-5 24.5t-1 24q0 1 -0.5 6t-1 10.5t-0.5 10.5v6v7v8v6
t0.5 7t1.5 9q0 2 1.5 2h2.5t3.5 -0.5t2.5 -2.5v-42q-2 -4 -2 -6v-6v-2.5v-2.5t0.5 -2.5t1.5 -1.5q5 0 7.5 6t4.5 13t3.5 12.5t4.5 5.5q4 0 4.5 -2.5t0.5 -5.5t-1.5 -7.5t-4 -9.5t-4 -9t-0.5 -6q-1 0 -2.5 -1l-3 -2l-3 -2t-1.5 -2q-1 0 -2.5 -1.5t-1.5 -3.5v-22q0 -2 1 -2.5
t3 -0.5q5 0 9 3.5t7 9.5t5.5 12.5t4.5 12t3.5 9.5l1.5 4q2 0 2.5 -1.5t1 -3.5t0.5 -4v-2q0 -10 -4.5 -19t-9.5 -18q-1 -2 -4 -4l-6 -4t-5.5 -4.5t-2.5 -5.5q-1 -3 1.5 -6t5.5 -5.5t6.5 -4t5.5 -1.5q6 0 9 3t4.5 7t2 9.5t0.5 11t0.5 10.5t1.5 8v49l-5 23q-10 10 -16.5 17.5
t-10 15.5t-4.5 17.5t-1 23.5z" />
</svg>
