<?xml version="1.0" standalone="no"?>
<!DOCTYPE svg PUBLIC "-//W3C//DTD SVG 1.1//EN" "http://www.w3.org/Graphics/SVG/1.1/DTD/svg11.dtd" >
<svg xmlns="http://www.w3.org/2000/svg" xmlns:xlink="http://www.w3.org/1999/xlink" version="1.1" viewBox="-10 0 266 256">
   <path fill="currentColor"
d="M193 246q1 1 2 3t3 2q3 0 4 -2.5t1 -4.5v-45v-45v-4.5t-0.5 -7.5t-1 -7.5t-0.5 -4.5q0 -3 0.5 -5.5t0.5 -4.5t-0.5 -4t-1.5 -5q-1 0 -1.5 -0.5l-0.5 -0.5l-30 -4q-1 0 -1.5 -0.5t-0.5 -1.5q0 -2 0.5 -2.5t0.5 -1.5q0 -4 1.5 -7t5 -4t7.5 -1t7 -1q1 0 1.5 -0.5l0.5 -0.5
q4 -8 4 -17.5t-1 -16.5h5t5.5 -1t4.5 -2.5t2 -4.5t-1.5 -3.5t-4.5 -0.5q-7 0 -14 1t-14 1h-9q-2 -1 -2 -2v-2v-3q0 -1 0.5 -4t0.5 -6.5t0.5 -6.5t0.5 -4q0 -3 -2 -4.5t-5 -1.5q-2 0 -4 1t-2 4v29l-2 1h-4.5h-5.5h-6.5h-3.5t-4.5 0.5t-7 1.5t-6 2t-2.5 2v1q0 1 0.5 2.5
l0.5 1.5h24v27q0 4 3 5.5t7 2t7 1.5t3 3v12q0 1 -2.5 1.5t-5.5 1t-6 0.5h-5l-2.5 0.5t-4.5 1t-4.5 1l-2.5 0.5q-5 9 -6 19.5t-1 19.5q-2 24 -3 45.5t-4 44.5v2q0 2 1.5 3t3.5 1q5 0 6.5 -4t2 -9.5t0.5 -10.5v-7v-10.5t0.5 -14.5t0.5 -13v-8q1 -12 2.5 -23.5t1.5 -24.5
q0 -2 2.5 -3t6 -2t6.5 -1h5q5 0 6.5 2.5t1.5 6.5q0 2 -0.5 3.5t-1.5 2.5v20q0 2 -2 3t-3 1q-2 0 -4 -1t-2 -3v-13l-1 -1l-1 -1q-1 0 -3 -0.5l-2 -0.5v50q0 1 0.5 2t1.5 2.5t1.5 3.5t1.5 3q1 2 3 2.5t5 0.5h5.5h4.5q6 0 10.5 -0.5t11.5 -1.5q3 -1 4.5 -7t2 -12.5t1 -13.5
t0.5 -11q0 -3 -0.5 -6.5t-2 -6.5t-4 -5t-6.5 -2v19q-1 0 -2.5 0.5t-3 0.5t-3 -0.5t-1.5 -2.5q-1 -2 -1 -6t-0.5 -8t-0.5 -8v-6q0 -1 0.5 -3.5t1.5 -2.5h2q3 0 6.5 0.5t7 1.5t6.5 3t4 5q0 19 2 38t2 38q0 9 -2 17t-2 17v5v6zM64 207v9q0 6 0.5 13t2 12.5t4.5 5.5h1
q1 0 3.5 -1t3.5 -2v-2v-3.5v-2.5v-2q0 -8 -2 -14.5t-2 -14.5q0 -9 2.5 -17t7 -15t9 -13t9 -13.5t7 -15.5t2.5 -19v-3v-3v-3v-2q0 -1 -0.5 -6.5t-1 -12t-1 -12t-0.5 -6.5q-1 -7 -2 -15t-4 -15t-8 -11.5t-15 -4.5q-9 0 -15 6.5t-10.5 17t-6.5 23t-3 24.5t-1 22v15v17q0 8 2 18
q0 1 1 1h2q5 0 7.5 -3.5t2.5 -7.5q0 -9 -2 -18t-2 -18q0 -1 0.5 -2.5t2.5 -1.5q3 0 5.5 4.5t4 9.5t3 9t3.5 4q3 0 5.5 -2t2.5 -5q0 -8 -4 -13.5t-8.5 -11t-8.5 -11.5t-4 -13v-4.5t0.5 -5t2 -4t3.5 -1.5h1h1q4 5 6.5 8t4.5 5.5t3.5 6t3.5 7.5q2 2 3.5 4.5t3.5 2.5
q3 0 3.5 -2.5t0.5 -4.5q0 -6 -3 -12t-7.5 -11.5t-9.5 -10.5t-9 -8v-4q0 -7 4.5 -12.5t12.5 -5.5q4 0 7 3t5 7t3 9t2 8q0 2 0.5 8.5l1 13t1 12.5t0.5 8l2 2v2.5v3.5q0 13 -3 22t-7.5 16t-9.5 13t-9.5 12.5t-7.5 15.5t-3 21zM145 174v-6.5t3 -5.5q7 -1 11.5 -1.5t9.5 -0.5
q4 0 6.5 0.5t2.5 4.5q0 13 -4 18t-16 5h-5h-5q-1 -1 -2 -2.5t-1 -3.5v-4.5v-3.5zM143 67q0 -6 2 -9.5t6 -4.5t9 -1h9h9q5 2 6 5t1 8q0 4 -1.5 7t-4.5 5t-7 3t-7 1q-4 0 -7.5 -0.5t-6.5 -1.5t-5 -4t-3 -8z" />
</svg>
