<?xml version="1.0" standalone="no"?>
<!DOCTYPE svg PUBLIC "-//W3C//DTD SVG 1.1//EN" "http://www.w3.org/Graphics/SVG/1.1/DTD/svg11.dtd" >
<svg xmlns="http://www.w3.org/2000/svg" xmlns:xlink="http://www.w3.org/1999/xlink" version="1.1" viewBox="-10 0 266 256">
   <path fill="currentColor"
d="M123 247q0 3 1.5 3.5t2.5 0.5q6 0 7.5 -4.5t1.5 -11.5v-12t2 -9q6 -8 11 -12t9.5 -8t8 -10t7.5 -18v-0.5v-1.5q0 -9 -3.5 -17.5t-9.5 -15.5t-14 -11t-17 -4q-14 0 -22.5 7t-14 17.5t-8.5 22.5t-5 23q0 6 -1.5 10t-1.5 10q5 0 7.5 -2.5t4 -6.5t2 -9t1 -9t1.5 -6.5t4 -1.5
q4 1 6.5 4.5t4.5 7.5t4.5 7.5t7.5 3.5q3 0 3 -2.5v-4.5q0 -6 -4 -10.5t-8.5 -8.5t-8.5 -8.5t-4 -11.5q0 -4 2.5 -8t7.5 -4q3 0 6.5 2t7 5.5t6 7t3.5 5.5q1 1 2.5 4t3.5 6t3.5 6t2.5 4l1.5 1.5t1.5 0.5q2 0 3 -1.5t1 -3.5t-0.5 -3t-1.5 -4q-1 -2 -2 -4.5t-2 -5.5t-2 -4.5
t-1 -2.5q-1 -3 -4 -5t-6 -4.5t-5.5 -5t-3.5 -6.5l1.5 -1l3 -2t3 -1.5l1.5 -0.5q7 -2 12.5 2t9.5 10.5t6 14t2 12.5q0 9 -3 15.5t-7 11.5t-9 9.5t-9 9.5t-7 12.5t-3 17.5v5v4zM190 246q1 0 3 1.5l2 1.5q2 0 3.5 -0.5t2.5 -2.5t2 -3.5t1 -3.5q0 -7 -2.5 -14t-3.5 -14
q-1 -13 -0.5 -25.5t-0.5 -24.5q-1 -14 -3 -27.5t-2 -27.5v-7q3 -4 5.5 -6t4.5 -4t2.5 -5.5t0.5 -11.5t-3.5 -12.5t-9 -6t-12.5 -2t-13 -0.5q-1 0 -1.5 -1.5t-0.5 -2.5q0 -2 1.5 -5t4.5 -3h29q1 0 1 -1t0.5 -2t0.5 -2v-1v-2q0 -3 -2 -3h-33v-15q0 -1 -3 -1.5l-3 -0.5h-3t-2 2
t-0.5 6t-0.5 8.5t-0.5 8.5t-0.5 5v2v2q-1 4 -3.5 5t-5.5 1.5t-5.5 2t-2.5 5.5h5h8t7.5 0.5t4.5 0.5q5 0 10.5 -0.5t10 1t8 4.5t3.5 10l-1 2l-2 4t-1.5 3.5l-0.5 1.5h-1q-3 0 -5.5 -1t-4.5 -3t-4 -3.5t-5 -2.5q-5 -1 -10 -1.5t-10 -0.5h-10h-9q0 4 3 6t7.5 2.5t9.5 0.5
t9.5 0.5t7.5 3.5t3 8h-39l-1 1l-2 2q-1 0 -1.5 0.5l-0.5 0.5v1v1l2 2t2 1l1.5 0.5t3.5 0.5h3.5h1.5q8 0 15 -1t15 -1h5h4l1 3q0 14 1.5 27.5t2.5 27t2.5 27t2.5 26.5v6.5t0.5 9.5t0.5 9.5v6.5zM46 238v3t2 2q4 0 6.5 -3t4 -7.5t2 -8.5t0.5 -7v-2v-6v-5v-3q1 -15 1.5 -30
t1.5 -30q0 -2 0.5 -9t0.5 -15t0.5 -14.5t0.5 -9.5l3 -2h4h6h6h4l1.5 -0.5t4 -1.5t5 -1.5t3.5 -1.5q3 -1 7.5 -2t6.5 -5v-2.5t0.5 -5t0.5 -5v-3.5l0.5 -1.5t0.5 -3t0.5 -2.5l0.5 -1v-1q0 -2 -0.5 -5t-1 -5.5t-2 -4t-4.5 -1.5q-2 0 -2.5 1.5l-1 3t-1.5 3.5t-4 2l-27 3
q-3 1 -4 -0.5t-1 -3.5v-3v-3v-6q2 -4 6.5 -5.5t10.5 -1.5q5 0 11 0.5t11 0.5q6 0 10 -1.5t6 -5.5q-1 -3 -3.5 -4.5t-4.5 -1.5q-14 0 -27.5 2t-26.5 5q-3 2 -4.5 7t-2.5 11t-1 11.5v8.5v4v5v6v3q0 1 -0.5 3.5l-1 5t-1 4.5t-0.5 3v5v10v10v6q0 2 -0.5 6.5t-1 11t-0.5 13.5
t-0.5 13t-1 11t-0.5 6v5.5v7.5v8v4q0 7 -1.5 13t-1.5 13zM67 74q0 -6 2 -9t5.5 -4t7.5 -1h8q3 -1 6 -2.5t6 -1.5q2 0 3 2t1.5 4t0.5 4v4q0 4 -4.5 6.5t-10 4t-11 2t-7.5 0.5q-5 0 -6 -3t-1 -6z" />
</svg>
