<?xml version="1.0" standalone="no"?>
<!DOCTYPE svg PUBLIC "-//W3C//DTD SVG 1.1//EN" "http://www.w3.org/Graphics/SVG/1.1/DTD/svg11.dtd" >
<svg xmlns="http://www.w3.org/2000/svg" xmlns:xlink="http://www.w3.org/1999/xlink" version="1.1" viewBox="-10 0 266 256">
   <path fill="currentColor"
d="M89 116v15.5t-4 16.5q-1 1 -3 5l-4 8t-4.5 8t-2.5 5l-4 8l-4 8t-3.5 8t-1.5 8v33q0 1 0.5 3t2 4t3 3.5t3.5 1.5q5 0 7 -1.5t2 -6.5q0 -9 -2.5 -18t-2.5 -19q0 -6 2.5 -12.5t6 -13t7.5 -13t6 -12.5q2 -5 3 -11t1 -12.5v-13.5v-12v-5.5v-6.5q0 -4 -0.5 -7.5t-1.5 -6.5l1 -2
h15l0.5 2t1.5 4.5l2 5t2 3.5q1 0 1.5 0.5t0.5 1.5v28q0 2 -1 4.5t-3 2.5t-2.5 -4t-0.5 -9t-0.5 -9t-3.5 -4q-1 0 -2.5 0.5t-1.5 1.5v25q0 2 2 3.5t4 2.5t3.5 1.5t2.5 0.5v23l-1 0.5l-1 0.5q-3 2 -5.5 3t-4 2.5l-3 3t-3.5 4.5q0 2 -0.5 5.5t-1 7.5t-1 7.5t-0.5 5.5l-1 3l-1 3
v1v2q0 2 0.5 5t3.5 3t4 -3t1.5 -8t0.5 -11t1 -11t2.5 -8.5t5.5 -3.5q5 0 5 7q0 11 -2.5 23t-2.5 23v7q1 1 2 1.5t2 0.5q3 0 5 -2t3 -5q0 -2 -0.5 -7t-0.5 -11t0.5 -11.5t0.5 -7.5v-1.5t0.5 -3.5t0.5 -3.5v-2.5v-1q1 -1 1.5 -2.5l0.5 -1.5v0h1v0v0l4 8v29l0.5 1t1.5 2l2 2
t2 1h1q3 0 3.5 -2t0.5 -4q0 -11 -1.5 -21.5t-1.5 -21.5q0 -4 2.5 -8.5t7.5 -4.5q2 0 4.5 1.5t5 4.5t4.5 5.5t2 4.5q0 6 -2 11.5t-4.5 10.5t-4 10.5t-1.5 11.5v3.5v3.5q1 2 2 2h2q4 0 5.5 -3.5t2 -9t1 -11.5t1.5 -11.5t3 -9t7 -3.5q0 16 -1 30.5t-4 30.5v1q0 3 2.5 3.5
t4.5 0.5q4 0 6 -4t2 -8v-56q1 0 2.5 -0.5t3 0t2.5 2t1 3.5v53q5 0 7.5 -3.5t3.5 -8.5t1 -10v-8v-7t-0.5 -8.5t-1.5 -8.5t-3 -7q-3 -3 -5.5 -5t-5 -4.5t-4 -5t-1.5 -7.5q0 -3 1 -4.5t3 -2.5t4.5 -2t4.5 -3q1 -2 3 -5t3 -7t1.5 -7t0.5 -6v-4v-4q-1 -2 -3 -3t-4 -1l-1.5 1
l-1.5 1v7q0 5 -0.5 9.5t-2.5 8.5t-5 5v-2v-4.5v-4.5v-3v-4v-4.5v-3.5v-2q0 -1 0.5 -4.5t1.5 -3.5l1 -1t2 -2.5t2 -2.5l1 -1l0.5 -1.5t1.5 -3l2 -3l1 -1.5q1 -1 2.5 -2t3 -1.5t2.5 -1.5t1 -3t-1.5 -2.5t-3 -1.5t-3 -2.5t-1.5 -3.5t1 -3.5l2 -3l2 -3t1 -4.5v-2
q-10 -6 -21.5 -10.5t-23.5 -5.5q-1 -4 -1.5 -9t0.5 -9q-2 -1 -2.5 -1h-2.5q-4 0 -5.5 2t-2 5t-0.5 6.5t-2 5.5q-1 1 -4.5 2t-8.5 2t-11 2t-11 2.5t-8 4t-3 5.5q0 2 1 2.5t3 0.5q5 0 10 -1.5t9.5 -3.5t9.5 -3.5t10 -1.5t6 4t1 8v4v6t-1.5 5t-3.5 2q-3 0 -4 -2t-1.5 -4.5
t-2 -5t-5.5 -2.5v2.5v3.5v2.5v2.5l-0.5 0.5t-1.5 0.5h-11v-2q0 -2 -0.5 -4t-1.5 -3.5t-3 -1.5t-3 2t-1.5 4t-2.5 3.5t-8 1.5h-6q-4 -6 -5 -12t-2.5 -10.5t-5.5 -7t-14 -2.5q-9 0 -13.5 4.5t-6 10.5t-2 13.5t-0.5 13.5q-1 9 -3 18t-2 19v3q0 2 0.5 8t1 13t1 13t0.5 8
q1 2 2 3.5t4 1.5t4 -2t1 -5t-1 -7.5t-1.5 -9t-1 -8.5t-0.5 -8v-4t3 -2q2 0 4.5 3t4 6t2.5 7t2 5l1 0.5t2 0.5q3 0 4 -1.5t1 -4.5q0 -7 -3.5 -13t-8 -10.5t-8 -8.5t-3.5 -8q0 -3 1 -5.5t2 -5.5q4 2 7.5 4.5t5.5 5.5q1 1 1.5 3t1.5 4.5t2.5 4.5l1.5 2q4 0 6.5 -0.5t2.5 -4.5
q0 -3 -1 -5.5t-3 -5t-3.5 -4.5t-3.5 -4q-1 0 -3 -2.5t-5 -5t-5 -5t-3 -3.5v-2.5v-2.5q0 -7 3.5 -12t11.5 -5h0.5h0.5l8 8v3.5t0.5 5t0.5 4.5t1 3l0.5 1.5l1 3t1 3.5l0.5 2q1 7 1.5 16t0.5 18zM159 149q0 -1 -0.5 -4t-0.5 -6.5t-0.5 -6.5t-0.5 -4v-1v0q0 -1 0.5 -5.5t0.5 -10
t0.5 -10t0.5 -5.5v-6t0.5 -5.5t2 -3.5t5.5 -1t5.5 1t3 3t2 4.5t2.5 6.5q1 2 2 2.5l1 0.5v0v3v5l-1 2l-1 2q0 1 1 3.5t1 3.5v4t-0.5 6t-2 5.5t-3.5 2.5v-0.5v-0.5q-3 -2 -3.5 -4.5t-0.5 -6.5t0.5 -7t3.5 -7q-1 -2 -2.5 -2.5t-3.5 -0.5h-2.5t-1.5 1v27q0 3 1.5 4t4 2t4 2
t1.5 4v17q0 2 -1 3t-2 1h-1l-1 -1q-5 -10 -14 -17zM138 136q3 -7 3.5 -15.5t0.5 -15.5q-6 0 -7 3.5t-1 8.5t-0.5 9t-5.5 4v-32q5 -4 9.5 -9t7.5 -11h1q1 0 2 0.5t1 1.5v18v22t-1 22q0 1 -1 3t-1 3q-1 0 -2.5 2t-4 4.5t-5 4.5t-4.5 3h-1h-1q0 -1 -1.5 -2l-1.5 -1v-17l1.5 -1
t1.5 -2q2 0 5.5 -1.5t4.5 -1.5zM119 80h15q0 3 -2.5 5.5t-6.5 2.5q-3 0 -4.5 -3t-1.5 -5zM184 85q0 -3 1.5 -5t4.5 -2h1q0 1 1.5 1.5l1.5 0.5q1 2 -1.5 5t-4.5 3q-4 0 -4 -3zM160 68q0 -2 0.5 -6.5t1 -8.5t2.5 -7t5 -3t8 1t9.5 2.5t7.5 4.5t3 7q0 5 -3 8t-7 3
q-2 0 -2.5 -1.5t-1.5 -3t-2 -2.5t-3 -1t-2.5 1.5t-1 3.5t-1.5 3.5t-4 1.5h-2q-1 0 -2.5 -0.5l-3 -1t-1.5 -1.5z" />
</svg>
