<?xml version="1.0" standalone="no"?>
<!DOCTYPE svg PUBLIC "-//W3C//DTD SVG 1.1//EN" "http://www.w3.org/Graphics/SVG/1.1/DTD/svg11.dtd" >
<svg xmlns="http://www.w3.org/2000/svg" xmlns:xlink="http://www.w3.org/1999/xlink" version="1.1" viewBox="-10 0 266 256">
   <path fill="currentColor"
d="M55 62q0 13 2 26t3 27q0 5 0.5 15t1.5 22.5t3 26t4 25t5 20.5t6 12q6 5 12.5 7t13 3t13.5 1h14h3.5h5.5q20 0 31.5 -3.5t18 -11.5t8.5 -21.5t2 -34.5q0 -26 -0.5 -54t-3.5 -55q0 -4 -2.5 -6.5t-6.5 -2.5t-5 3t-1 6q0 11 1.5 21.5t1.5 20.5v4t-0.5 4.5t-1.5 3.5t-3 1h-0.5
h-0.5q-1 0 -2 -1t-2 -2.5t-2 -2.5l-1 -1q-2 -1 -8 -5.5t-12.5 -9t-11.5 -8.5t-5 -5v-68l-1.5 -1.5t-3 -2.5l-3 -2l-1.5 -1l-1.5 0.5t-1.5 1.5l-0.5 0.5t-1.5 0.5v15v12t-0.5 17.5t-0.5 18v11.5q-2 3 -5 4.5t-6 3.5l-28 31l-1.5 0.5t-2.5 0.5v1h-1v-1q-1 0 -2 -0.5l-1 -0.5
v-63l-6 -11h-1h-2q-4 0 -7 1t-3 7zM78 189q0 -3 0.5 -5.5t4.5 -2.5q13 0 25 -0.5l24 -1t24.5 -1.5t24.5 -1q2 0 3 0.5t2 1.5v2q0 2 0.5 3.5t0.5 3.5v2v9t-0.5 10.5t-1.5 10t-3 7.5q-12 3 -23 6t-22 3h-5h-3q-10 -1 -17.5 -1.5t-13 -3t-10 -8t-6.5 -16.5q0 -1 -0.5 -3l-1 -4
t-1.5 -4l-1 -2v-5zM75 153v-3q1 -1 2.5 -3.5t4 -4.5t4.5 -4l3 -3q0 -1 1 -1.5t2 -0.5l5 -5t8 -8.5t7.5 -8.5t4.5 -5q4 -4 5.5 -5t4.5 -1t8.5 3.5t11.5 8t11 9t8 7.5q1 0 2 2t2 3.5t2 2t3 -0.5l5 5t3 4t1.5 4.5t0.5 6.5v7q0 1 -1 1.5l-1 0.5q-1 1 -4 1.5t-6.5 1t-6.5 1
l-3 0.5h-81q-2 0 -3.5 -1.5t-2.5 -4t-1 -5v-4.5z" />
</svg>
