<?xml version="1.0" standalone="no"?>
<!DOCTYPE svg PUBLIC "-//W3C//DTD SVG 1.1//EN" "http://www.w3.org/Graphics/SVG/1.1/DTD/svg11.dtd" >
<svg xmlns="http://www.w3.org/2000/svg" xmlns:xlink="http://www.w3.org/1999/xlink" version="1.1" viewBox="-10 0 266 256">
   <path fill="currentColor"
d="M63 242q0 3 2.5 4t5.5 1q10 0 21 -1t20 -2q22 0 43 -1t42 0q1 -1 2 -2.5t1 -2.5t-1 -2.5t-2 -2.5h-7q-12 0 -23 1t-22 1q-3 0 -5 -2t-2.5 -4.5l-1 -5t-0.5 -4.5q1 0 3.5 -0.5t3.5 -1.5q2 0 7 -1t10.5 -2t10.5 -1.5t7 -1.5q3 -2 5.5 -4t3.5 -5v-16q0 -3 0.5 -7t0 -8.5
t-1.5 -8t-5 -5.5q-2 2 -3.5 4t-1.5 4v0.5v1.5l0.5 2.5t0.5 5.5t0.5 5.5t0.5 3.5l-0.5 2t-1.5 4.5t-1.5 5t-1.5 4.5q-1 4 -4 5.5t-6.5 2t-6.5 0.5h-7h-4h-4q-1 -1 -1.5 -2t-0.5 -2q0 -3 2.5 -4l5 -2l5 -2t2.5 -5q0 -3 -2 -6l-4 -6t-3.5 -5.5t-1.5 -4.5v-0.5v-0.5l2 -2.5
t3.5 -4.5l3 -4t2.5 -3l1.5 -2t1.5 -3l1.5 -1t3 -2.5l2.5 -2.5t1 -1.5t0.5 -2t1 -3.5t1 -3.5t0.5 -2.5q1 -2 3 -1.5t4 0.5q5 0 7.5 2.5t4 5.5t2 5.5t2.5 2.5l0.5 -0.5l0.5 -0.5q3 -1 5.5 -2t2.5 -4q0 -6 -2.5 -9.5t-6 -5.5t-8 -2.5t-8 -1t-6 -1t-2.5 -1.5v-1l0.5 -1.5
l0.5 -1.5q4 -1 8.5 -1.5t8.5 -1.5t7.5 -4t3.5 -7q0 -7 -4.5 -9.5t-9 -3t-8.5 -1.5t-4 -5t3.5 -5.5t8 -3t8.5 -4t4 -9.5q0 -5 -2 -7.5t-4.5 -4t-6 -1.5t-6.5 -0.5t-5 -1t-2 -1.5v-11q0 -3 5 -4.5t11 -3t11 -3.5t5 -5t-1.5 -4t-3.5 -1q-6 0 -12 3.5t-11 6.5q-6 2 -12.5 2.5
t-12.5 1.5q0 1 -2.5 1.5l-5 1t-5 1.5l-2.5 1q-2 1 -2.5 3.5t-0.5 3.5q7 0 12.5 -1t11.5 -1h6q1 1 1.5 2.5t0.5 4.5q0 4 -4 5.5t-8 2t-7.5 2.5t-3.5 7q0 8 3 11t7 4t7.5 2.5t3.5 4.5q0 4 -4 5.5t-8.5 2t-8 2.5t-3.5 6q0 8 3.5 11t7.5 4.5t7.5 2.5t3.5 4q0 2 -3 2.5t-6.5 1.5
t-7.5 2t-5 2t-1 2.5t-0.5 3.5l-1 4l-0.5 2v2q0 1 1 3t3 2q3 0 4 -2.5t2 -6t3.5 -6t7.5 -2.5q3 0 3.5 1.5t0.5 5.5q0 1 -0.5 2.5t-1 3.5l-1 4t-0.5 3q-11 3 -18 12l-0.5 0.5l-0.5 0.5q-4 0 -7 -3t-6 -5.5t-6 -5.5t-7 -3q-2 0 -3.5 0.5t-1.5 2.5q0 4 4 6.5l8 5t7.5 5t3.5 7.5
q0 2 -1.5 4.5t-4 5t-4.5 5.5t-2 7v4q2 1 4.5 1.5l5 1t4 2t1.5 4.5q0 2 -1.5 3t-3.5 1.5t-4 0.5h-3q-12 0 -17.5 -4t-8 -11t-3 -16t-0.5 -18q-1 -2 -2 -2.5t-3 -0.5q-3 0 -5.5 2.5t-2.5 5.5q0 4 1 11t2.5 15t4 14.5t6.5 8.5q8 3 18 3h17q2 0 2 3v3q0 4 -0.5 6t-2.5 5
q-15 0 -30 0.5t-29 1.5q-2 0 -2 1.5v2.5zM127 187q0 -3 1.5 -6t4.5 -3q1 0 3 1t3.5 2t2.5 3t1 3q0 7 -7 7q-5 0 -7 -1.5t-2 -5.5zM55 73v0q0 1 1.5 3.5l1.5 2.5q0 1 0.5 4t0.5 6t0.5 6t0.5 4q1 7 5 9.5t8 3.5t7 1q4 0 4 2v28q0 3 1.5 3h3.5h1h3t2 -1t1 -2v-28q0 -1 3.5 -2
t8 -2.5t8 -4.5t3.5 -7v-31q0 -1 -2 -1h-3q-2 0 -3 0.5t-2 2.5q0 3 1 8t0.5 10.5t-3 9.5t-7.5 4h-2h-1q-2 -11 -2.5 -23.5t0.5 -22.5q-2 -3 -6 -4.5l-8 -3t-7 -3.5t-3 -7q0 -2 2.5 -4t5.5 -3t6 -1.5t5 -0.5q6 0 9.5 1t9.5 4q2 2 2 4v4q0 3 -1.5 4.5t-4 3.5t-4.5 3.5t-2 5.5
q10 0 16 -5.5t6 -14.5q0 -1 -0.5 -3.5t-0.5 -3.5q-1 -2 -4 -4.5t-6 -4t-6.5 -2.5t-5.5 -1h-1h-7t-7.5 0.5t-6.5 0.5h-3q-3 0 -5 1.5t-3.5 4t-2.5 5t-2 5.5v0.5v0.5q0 7 1.5 10t4.5 5t7 3.5t9 4.5q1 0 1.5 0.5l0.5 0.5q0 2 0.5 6t1 8.5t1 8.5t0.5 6v2v3q0 1 -0.5 3t-1.5 3.5
t-2 1.5q-6 0 -9 -4t-4.5 -9t-1.5 -10.5v-8.5q-1 -3 -2 -4t-4 -1q-2 0 -4.5 1.5t-2.5 4.5zM146 100q0 -4 2.5 -5.5t6 -2t7.5 -0.5h6h2h4t3.5 0.5l1.5 0.5q2 1 3.5 2.5t1.5 3.5q0 3 -3 5t-7.5 2.5t-8.5 0.5h-6h-4q-2 0 -4 -1t-3.5 -2t-1.5 -4zM149 59q0 -3 3 -5t7 -2.5t8 -0.5
h6t4 0.5t3.5 1t3 2t1.5 3.5q0 4 -3 5.5t-6.5 2.5t-7 1h-5.5h-5.5t-4.5 -1t-3 -2.5t-1 -4.5z" />
</svg>
