<?xml version="1.0" standalone="no"?>
<!DOCTYPE svg PUBLIC "-//W3C//DTD SVG 1.1//EN" "http://www.w3.org/Graphics/SVG/1.1/DTD/svg11.dtd" >
<svg xmlns="http://www.w3.org/2000/svg" xmlns:xlink="http://www.w3.org/1999/xlink" version="1.1" viewBox="-10 0 266 256">
   <path fill="currentColor"
d="M122 239q0 8 6 12q7 -5 8 -14v-37q0 -35 -1.5 -69t-1.5 -68v-2t0.5 -3.5t0.5 -3v-2.5v-10q0 -3 0.5 -7.5t-0.5 -9t-2.5 -8t-5.5 -3.5h-2t-2 2v9v14v14v9q0 24 1.5 48t1.5 48q0 19 -1 37t0 38q-2 2 -2 3v3zM143 159q0 4 3.5 5t6.5 1q14 0 22 -7t11 -17.5t3 -22.5v-23
q0 -1 0.5 -7.5t0.5 -13.5t0.5 -13.5t0.5 -8.5v-6q0 -2 -0.5 -5.5t-1.5 -6t-3 -4.5t-5 -2h-2.5t-1.5 2v39q0 1 -1 2.5t-2 2.5l-3 2h-23l-0.5 1t-1.5 1q0 1 -0.5 3l-0.5 2q0 1 0.5 2l0.5 1h27l1.5 1t2.5 2v4v4v7t-2 6q-1 0 -3.5 0.5t-5 0.5t-5.5 0.5t-4 0.5h-3t-4.5 0.5
t-4 1.5t-2.5 2q0 1 0.5 2.5t1.5 2.5l0.5 1l0.5 1h27q1 0 1.5 1t1 3t0.5 4v2q0 8 -5 12t-11.5 6t-11.5 3.5t-5 4.5zM63 72v5q0 14 1.5 28t2.5 28q1 9 1 14.5t2 9t7 4.5t15 1h5q3 0 6 -0.5t6 -2t3 -5.5q0 -3 -3 -3.5t-6.5 -1t-8.5 -0.5t-9 -1.5t-6.5 -5t-2.5 -10.5
q0 -5 3.5 -7t8 -2.5t9 0t7.5 0.5q0 -1 0.5 -3l0.5 -2v-0.5v-0.5q0 -2 -1 -3t-2.5 -1.5t-3.5 -0.5h-4q-3 0 -6.5 1t-6.5 1q-2 0 -4 -1.5t-2 -3.5v-20l2 -1q1 0 4 -0.5t6.5 -1t6.5 -0.5h4l2 -0.5l4 -1t4 -1.5t2 -2q0 -3 -2.5 -5t-5.5 -2q-5 1 -10 1h-11h-3t-3 -1v-2v-4v-3v-3
q0 -6 1 -11.5t1 -10.5v-6q-2 -2 -4 -2.5t-4 -0.5q-3 0 -4.5 3t-1.5 6v32z" />
</svg>
