<?xml version="1.0" standalone="no"?>
<!DOCTYPE svg PUBLIC "-//W3C//DTD SVG 1.1//EN" "http://www.w3.org/Graphics/SVG/1.1/DTD/svg11.dtd" >
<svg xmlns="http://www.w3.org/2000/svg" xmlns:xlink="http://www.w3.org/1999/xlink" version="1.1" viewBox="-10 0 266 256">
   <path fill="currentColor"
d="M180 177v71q0 2 1.5 2.5t2.5 0.5q4 0 5.5 -2t2.5 -5.5t1 -6.5v-6q0 -24 -2.5 -47.5t-2.5 -46.5v-8q3 0 5.5 -3t4 -6.5t2 -7t0.5 -6.5q0 -5 -5 -11.5t-12 -12t-14.5 -9t-13.5 -3.5q-1 0 -2.5 1t-1.5 3q0 4 3 6t7.5 4t9 3.5t7.5 3.5l11 12v6v2v3.5t-1 3t-2 1.5
q-2 0 -3.5 -1t-2 -2l-1.5 -3t-1 -3q-1 -1 -2.5 -2t-3 -3t-3 -3.5t-2.5 -1.5q-1 -1 -4 -3l-6 -4t-5 -3.5l-2 -1.5h-7q0 6 5 9.5t10.5 6.5t10 7t4.5 10q0 4 -4 4q-2 0 -4.5 -1.5l-5 -3l-5 -3t-5.5 -1.5q-2 0 -4 0.5t-2 2.5q0 5 5.5 7.5t12.5 4t12.5 2.5t5.5 4v29q0 2 0.5 5.5
t0.5 5.5zM62 242q1 2 2.5 2.5t2.5 0.5h3t3 -2q-1 -26 0 -53t6 -53q0 -1 1 -4.5t1 -4.5q2 -2 7.5 -2t12 -0.5t12 -3t5.5 -7.5q-7 0 -13 1.5t-12 1.5q-2 0 -4 -0.5t-2 -2.5q0 -6 4 -9t9 -6t9 -6.5t4 -8.5h-9l-2.5 2.5l-3 3l-3 3l-2.5 2.5l-3.5 3.5t-5.5 5t-5.5 4l-2.5 1.5
q-1 0 -2 -1t-1 -2q-1 0 -1 -2v-3q0 -5 2.5 -8.5t6.5 -6t8 -4t8 -3.5t6 -4.5t2 -7.5q-6 0 -14 3t-14 8t-10.5 11.5t-4.5 14.5q0 3 2 5.5t3.5 5t3.5 4.5t2 5q0 5 -1.5 10.5t-4.5 10.5q-1 19 -3 38t-2 39v19zM92 166v21q0 10 2.5 16.5t9.5 10t21 3.5h1q1 0 4 -0.5t6.5 -0.5
t6 -0.5t3.5 -0.5q7 -4 10 -10t4.5 -13t1 -14.5t-0.5 -14.5v-10q0 -3 -2.5 -5.5t-6 -4.5t-7 -2.5t-6.5 -0.5h-4t-2 3q0 2 3.5 3l7 2t7 3t3.5 7q0 2 -1 4.5t-3 2.5q-3 0 -5 -1t-3.5 -2t-4 -2t-4.5 -1q-1 0 -2.5 0.5t-0.5 2.5t3.5 4t6 3.5t6.5 2.5t5 2v2v2v5t-4 3h-1
q0 -1 -2 -1.5t-3.5 -1t-3.5 -1t-2 -1.5q-5 0 -5 3q0 4 3 5.5t6.5 2t6 1.5t2.5 5q0 3 -1 4.5t-5 3.5h-13q-4 0 -8.5 0.5t-8.5 0t-7 -2.5t-3 -7q0 -4 3 -5.5t6.5 -2.5t6.5 -2.5t3 -4.5q0 -2 -1.5 -2h-2.5q-5 0 -8 1t-8 3q-1 -2 -1.5 -3.5t-0.5 -3.5q0 -4 3.5 -5.5l7 -3l7 -3
t3.5 -4.5t-1 -3h-4q-4 0 -6.5 1.5t-6.5 1.5q0 -1 -1 -4.5t0 -4.5q1 -4 4 -4.5l6 -1t5.5 -1t2.5 -4.5t-5 -4q-2 0 -6 1t-7 3.5t-5.5 5t-3.5 5.5v2.5v4.5v4v3zM124 119v2l0.5 2t0.5 3.5t0.5 3.5l0.5 2l0.5 0.5l0.5 0.5q4 0 5.5 -6.5t2.5 -15t1 -16v-10.5q0 -1 0.5 -4.5t0.5 -7
t0.5 -6.5t0.5 -4t1.5 -2t2.5 -1l25 -3q2 -4 3.5 -5t4.5 -1q2 0 4.5 1t4.5 2l4 2t4 1q6 0 6 -6q0 -4 -7 -8t-16.5 -8t-18 -6.5t-11.5 -4.5q-3 -1 -5 -3.5t-3.5 -5.5t-3 -5t-2.5 -2q-2 0 -3.5 1.5t-2 3.5t-0.5 4.5t-1 4.5q-3 2 -9 3.5l-14 3.5t-15.5 3.5t-14.5 4t-11 5t-4 6.5
v2v1l5 2l4.5 -1.5t11 -4t13 -4.5t11.5 -4t10 -4.5t11 -2.5h2.5t1.5 1v17l-2 1q0 1 -2 1.5l-2 0.5h-37q-2 0 -3.5 1.5t-1.5 3.5v1t1 1t4.5 0.5t7.5 0.5t7.5 0.5t5.5 0.5v0q5 0 9 -1t8 -1h5q1 1 1 3v3q0 13 -1.5 26t-1.5 27zM136 50v-3.5v-2.5v-2.5v-3.5t0.5 -3.5t2.5 -1.5
h0.5h1.5q1 1 4.5 2.5t7.5 3t7.5 3t5.5 2.5t2.5 1t0.5 2t-3 3t-7.5 1.5t-9 0t-6.5 -0.5h-4t-3 -1z" />
</svg>
