<?xml version="1.0" standalone="no"?>
<!DOCTYPE svg PUBLIC "-//W3C//DTD SVG 1.1//EN" "http://www.w3.org/Graphics/SVG/1.1/DTD/svg11.dtd" >
<svg xmlns="http://www.w3.org/2000/svg" xmlns:xlink="http://www.w3.org/1999/xlink" version="1.1" viewBox="-10 0 266 256">
   <path fill="currentColor"
d="M175 247q0 3 1 3.5t3 0.5q4 0 5.5 -2t3.5 -5q2 -7 5 -15.5t4 -15.5q0 -1 0.5 -5.5t1 -10t1.5 -12t1.5 -12t1 -10t0.5 -5.5q1 -1 1.5 -4t0.5 -4v-57q-1 -3 -1.5 -6.5t-1.5 -7t-2.5 -6.5t-4.5 -5q-2 -2 -5 -4l-3 -2h-25l-1.5 -1.5t-2.5 -1.5l-0.5 -1l-0.5 -1q-1 0 -1 -3v-3
q0 -7 3.5 -10.5t8.5 -6t10.5 -3.5t10.5 -2.5t8 -3t3 -5.5q0 -3 -1.5 -4.5t-4.5 -1.5h-3q-6 2 -14 4.5t-14.5 6t-10.5 9.5t-4 14q0 9 2 14.5t10 8.5v2.5v3.5v3v3q0 16 -2 33t-4.5 33.5t-6 33t-7.5 32.5q-1 4 -3 9t-2 10q0 2 0.5 3.5t2.5 1.5q4 0 6 -4t4 -10.5t3.5 -14
t2.5 -14.5t1.5 -13.5t1.5 -9.5q2 -12 5 -24t5 -25q0 -2 0.5 -7.5t1.5 -11.5t1.5 -11.5t1.5 -7.5l0.5 -2l1 -4t1 -3.5t0.5 -2.5q1 -2 3 -1.5t4 0.5q3 0 5.5 1.5t4 4t2.5 5.5t1 6v4v6v6v4q0 27 -2.5 51t-7.5 50q1 4 0 8t-2.5 8t-3 7.5t-2.5 7.5zM90 243q0 2 0.5 3.5t2.5 2.5
q3 0 5.5 -4.5t5 -13.5t5 -20.5t4 -24l3 -25t2.5 -23t1.5 -18t0.5 -10.5v-11t-0.5 -12t-2 -11.5t-4.5 -9.5t-7 -6.5t-9 -4t-10 -2.5t-8.5 -3t-6 -5t-2.5 -9q0 -3 2 -5.5t5.5 -3.5t7 -1.5t5.5 -0.5q2 -1 6 -1t9 -0.5t9 -0.5h6q2 -2 2 -5q0 -2 -1 -3t-3 -2h-15q-6 0 -13.5 0.5
t-14.5 3.5t-12 8t-5 13q0 9 3 13t8 6.5t11 3.5t11.5 2.5t10 4.5t6.5 10q1 10 1.5 16.5t0.5 15.5v7q0 1 -0.5 3t-1 3.5t-1 2.5t-1.5 1h-26l-1 -1t-1 -2v-6q0 -4 0.5 -7t1.5 -7q2 0 5.5 -1t7.5 -2t7 -3t3 -5q0 -2 -0.5 -2.5t-2.5 -0.5h-18l-1 -1l-1 -1q-2 -2 -2.5 -3.5t-1 -2
t-1.5 -1t-2 -0.5h-3t-2 2q1 14 0.5 27.5t-1.5 27.5q-1 4 -2 8.5t-2 8.5t-1.5 8.5t0.5 8.5q-2 5 -4 11.5t-4 14t-3.5 15t-1.5 13.5q6 0 9.5 -4.5t6 -11.5t3.5 -15t2.5 -14.5t3 -11t4.5 -4.5t5.5 1t5 3t5.5 3t7 1q0 -7 -4 -9t-9 -3t-9 -3t-4 -8t2 -9t5.5 -4t7.5 -1h9h4h3
q2 0 2 2v2q0 8 -2 15t-3 15q-1 11 -1.5 22.5t-3.5 22.5q0 3 -1.5 6.5t-3 7.5t-2.5 7.5t-1 6.5z" />
</svg>
