<?xml version="1.0" standalone="no"?>
<!DOCTYPE svg PUBLIC "-//W3C//DTD SVG 1.1//EN" "http://www.w3.org/Graphics/SVG/1.1/DTD/svg11.dtd" >
<svg xmlns="http://www.w3.org/2000/svg" xmlns:xlink="http://www.w3.org/1999/xlink" version="1.1" viewBox="-10 0 266 256">
   <path fill="currentColor"
d="M187 161q0 2 0.5 6t1 9t1 9t0.5 6l0.5 1.5l1 3t1.5 2.5t1 2l0.5 2l1 4t1 3.5t0.5 2.5q0 2 1 8.5t2 13.5t3.5 12.5t5.5 5.5q2 0 4 -2.5t2 -4.5q0 -7 -2.5 -13.5t-4.5 -13.5q-2 -8 -4.5 -16.5l-5 -17t-4 -17.5t-1.5 -17q0 -4 2 -7t4 -5.5l4 -5t4 -5.5v-3v-4v-4v-3v-9.5
t-1 -10.5t-3.5 -9.5t-7.5 -5.5h-2.5t-2.5 -2h-34q-1 0 -2.5 1.5l-2.5 2.5v0v2l0.5 1.5l0.5 1.5q9 0 17 -0.5t14 1t10 7t4 16.5q0 2 -0.5 4.5t-0.5 4.5t-1 4.5t-1 5.5l-4 4h-1v0v0q-1 -2 -2 -4.5t-1.5 -5.5t-2 -5.5t-3.5 -2.5h-28l-1 1.5t-2 2.5v1v0q1 1 2 2.5l1 1.5h22
l1.5 2t3 4.5t2.5 4.5l1 2q0 6 -5.5 8.5t-12 4t-12 2.5t-5.5 5q0 2 1.5 3.5t3.5 1.5q8 0 14.5 -3t13.5 -6h1q1 0 2 1.5t2 3.5l1.5 3zM128 248l1.5 1l1.5 1q2 0 4 -1.5t2 -4.5v-137q1 -1 1 -3.5t0.5 -5.5t0.5 -6v-4v-2v-5v-5v-3t0.5 -4t1.5 -5.5l2 -5t3 -3.5t4 -1h4h4.5
t5.5 -0.5t8.5 -0.5t11 -0.5t9.5 -1l4 -0.5l3 -2q0 -1 1 -2.5t2 -3.5t2 -4.5t2 -3.5v-3v-4q0 -7 -2.5 -10.5t-6.5 -5.5t-9.5 -2h-10.5h-11.5h-13t-12.5 1t-12 3v1v1q0 3 1.5 5t4.5 2v0q1 0 1 -1q1 0 4 -0.5l6 -1l6 -1t4 -0.5v0q2 0 2.5 1.5t0.5 2.5v6v6.5t-1 6.5t-2 5
q-12 1 -17 5.5t-6.5 12t-1 17t-0.5 19.5l-2 56t-1 56v35zM95 156q1 12 -0.5 23.5t-4 23t-4.5 23t-2 23.5q3 0 5 -1.5t3 -3.5t1.5 -4.5t1.5 -5.5q0 -1 1 -6.5t1.5 -11.5t1.5 -11.5t1 -6.5q4 -28 7 -57t3 -57q0 -6 -0.5 -10.5t-1.5 -11.5q-2 -2 -6 -5t-9 -5.5t-9.5 -4
t-6.5 -0.5q0 -1 -0.5 -2.5t-1.5 -3t-1.5 -3t-0.5 -2.5v-1q0 -6 4 -9.5t9.5 -4.5t11.5 -1.5t10 -0.5q3 -1 3 -2.5v-3.5v-2.5t-2 -1.5h-1l-2 0.5l-4 1t-3.5 1l-1.5 0.5q-5 1 -10.5 1.5t-10.5 2.5t-8.5 5t-3.5 9v5t0.5 6t1.5 6t3 4l26 11l0.5 1t1.5 1q0 1 1 3t2 2v4v5.5v5.5v3
v5v6v5v3q0 1 -0.5 3t-0.5 4t-0.5 3.5l-0.5 1.5l-6 3l-20 -2v-20q0 -2 3.5 -2.5t7.5 -1t7 -1.5t3 -5v0v-1q-2 -1 -3.5 -2t-4.5 -1t-5 2t-5 2t-3 -2.5v-5t-0.5 -5t-3.5 -2.5q-1 0 -2.5 0.5t-1.5 1.5q-2 7 -2 12v10.5v11.5v13q-1 11 -2.5 21.5t-4.5 21.5t-6.5 21.5t-6.5 20.5v1
v2q0 3 1 3.5t4 0.5q4 0 6.5 -3t3.5 -7t2 -8.5t1 -7.5q1 -2 2 -6.5t2 -10t2 -10t1 -6.5l13 14h1q2 0 3 -2t1 -4q0 -4 -2.5 -6.5t-5.5 -4t-5.5 -3.5t-2.5 -5v-3.5t0.5 -5t1 -4.5t1.5 -2h25v24zM168 37q0 -5 0.5 -8t1.5 -8q3 -2 6.5 -2h5.5h5h3q1 0 2.5 0.5t1.5 1.5v17
q0 2 -2.5 3.5t-5.5 2l-6 1t-4 0.5q-4 0 -6 -2t-2 -6z" />
</svg>
