<?xml version="1.0" standalone="no"?>
<!DOCTYPE svg PUBLIC "-//W3C//DTD SVG 1.1//EN" "http://www.w3.org/Graphics/SVG/1.1/DTD/svg11.dtd" >
<svg xmlns="http://www.w3.org/2000/svg" xmlns:xlink="http://www.w3.org/1999/xlink" version="1.1" viewBox="-10 0 266 256">
   <path fill="currentColor"
d="M123 248v4q4 0 8 -2.5t6 -5.5q4 -6 7 -12t6 -12.5t5 -13t2 -13.5q0 -1 -0.5 -4.5t-0.5 -4.5q-4 -5 -9.5 -8.5t-11.5 -5.5q-2 -3 -2 -6v-6v-7q1 -2 4 -3l3 -1h59l1 -1t2 -1l1 -2v0v0v-1v0q0 -1 -1 -2t-2 -1h-11h-11h-6.5t-11.5 0.5t-11.5 0.5h-6.5q-21 1 -41.5 0.5
t-41.5 1.5q-2 0 -3 1.5t-1 2.5v2t1 1h2h4h4h2q11 0 21 -0.5t21 -0.5h2h4h4.5h2.5t3 1.5t2 2.5v20q0 3 3.5 5t8 4.5t8 6t3.5 8.5q0 7 -3 14t-7 13.5t-9 13t-9 11.5zM70 120q0 2 0.5 3.5t2.5 1.5q3 0 9 -1.5t11.5 -3.5t10.5 -4.5t7 -5.5q0 -1 0.5 -3.5t0.5 -5t0.5 -4.5t0.5 -3
q0 -2 1 -3.5t3 -1.5h26l2 2q0 1 0.5 3.5l1 5t0.5 5t1 3.5q0 2 1.5 5.5t4.5 3.5h36q2 0 2.5 -1.5t0.5 -2.5v-2t-2 -1h-33q-1 0 -3.5 -2l-2.5 -2v-17l3.5 -0.5t5.5 -0.5t6.5 -0.5t9.5 -0.5h9.5h6.5q0 -1 2 -2l2 -1v-1q0 -2 -1.5 -3t-3.5 -1h-2q-1 0 -5 0.5l-8 1l-8 1t-5 0.5
q-25 2 -51 2h-50q-1 0 -2.5 1t-1.5 2q0 2 1.5 4t3.5 2q9 0 18 -2t18 -2h3t2 2q1 0 1 3v3q0 4 -1.5 8.5t-6.5 5.5l-27 8h-1v1zM92 62q1 1 1 3t0.5 5t1 5t2.5 2t2.5 -2t0.5 -4v-4v-2q0 -2 3 -2.5t7 -2t7 -3t4 -5.5l0.5 -2.5l1 -5l1 -5t0.5 -3.5v-1q0 -1 -1 -4.5t-3 -3.5
q-1 0 -2.5 1.5t-1.5 3.5v17q0 1 -2.5 3t-3.5 3h-1h-1q-6 0 -8 -6v-4.5v-7.5v-6.5v-4.5t-0.5 -2t-1 -2.5t-1 -2.5t-2.5 0l-1.5 1l-1.5 1v30q0 2 -1 2.5t-2 0.5q-4 0 -6 -4t-2.5 -9t-1.5 -9t-3 -4.5t-3.5 1t-1.5 3.5l2 10t3 9.5t6 7t10 3.5zM140 30q0 6 0.5 13t1.5 13
q0 1 1 2.5t2 2.5l17 4q1 0 1.5 0.5l0.5 0.5q0 1 0.5 4.5t0.5 4.5h3q0 -5 1.5 -7t4 -3.5t5.5 -2t7 -1.5q2 -2 3.5 -5.5t2.5 -8t1 -8.5v-7q0 -2 -0.5 -4t-3.5 -2h-2t-1 1v4v5v5v4l-0.5 1t-1.5 2.5t-1.5 3t-1.5 1.5q0 1 -1 2t-2 1t-4 -0.5t-4 -0.5v-36q0 -3 -1 -3.5t-2 -0.5
q-2 0 -2.5 0.5t-0.5 3.5v37q0 1 -2 1.5t-3 0.5q-5 0 -7.5 -3t-3.5 -6.5t-1.5 -8.5t-0.5 -8q0 -2 -2.5 -2h-3.5z" />
</svg>
