<?xml version="1.0" standalone="no"?>
<!DOCTYPE svg PUBLIC "-//W3C//DTD SVG 1.1//EN" "http://www.w3.org/Graphics/SVG/1.1/DTD/svg11.dtd" >
<svg xmlns="http://www.w3.org/2000/svg" xmlns:xlink="http://www.w3.org/1999/xlink" version="1.1" viewBox="-10 0 266 256">
   <path fill="currentColor"
d="M120 224q2 4 2.5 9t1.5 9t3.5 6.5t8.5 2.5q0 -5 -1.5 -9.5t-3 -9.5t-3 -9.5t-1.5 -9.5q0 -6 1.5 -11t3 -10.5l3 -11t1.5 -10.5q0 -2 -1 -7t-2 -9.5t-3.5 -8t-5.5 -3.5q-2 0 -3 0.5t-1 2.5v0q0 1 1 2.5t1.5 3l1 3l0.5 1.5q2 4 2 8v8t-1 10l-2 10t-2 10.5t-1 10.5v3v3v4v2z
M155 215q0 3 1.5 9t4 12t5.5 10.5t7 4.5q2 0 4 -0.5t2 -3.5v0q0 -1 -0.5 -2l-1.5 -3t-2 -3.5l-1 -1.5q-1 -1 -2 -2.5l-1 -1.5q-3 -6 -5 -13t-2 -14v0q1 -8 4 -15.5t3 -14.5q0 -2 -0.5 -6.5t-1.5 -9.5t-3 -9t-5 -4t-3 3q0 7 2 15t2 16q0 4 -1 8t-2.5 8.5t-2.5 9t-1 8.5z
M76 219q0 4 1 9t2.5 9.5t5 7t8.5 2.5q0 -4 -1 -8.5t-2.5 -8.5t-2.5 -8.5t-1 -8.5q0 -6 1.5 -11.5t3.5 -10.5t3.5 -10t1.5 -10v-5q0 -3 -0.5 -6.5t-2 -6t-3.5 -2.5t-3.5 0.5t-1.5 2.5q0 4 1.5 8t1.5 8q0 6 -2 11.5t-4 11.5t-4 12.5t-2 13.5zM68 85v1q0 5 0.5 12l1 14t1 12
l0.5 5l3 2l5.5 0.5t13 1t15.5 1t14 0.5h4h9h10h9h6h10h9.5h6.5q1 0 1.5 -0.5l0.5 -0.5q0 -1 -0.5 -2t-1.5 -1q-13 -2 -26 -2.5t-26 0t-26 0.5t-26 -2q0 -1 -1 -2t-2 -1v-1q0 -2 1.5 -3t3.5 -1.5t3.5 -0.5t3.5 -1l1 -1.5t2.5 -3t3 -2.5t1.5 -2l1.5 -0.5t3 -1.5l3 -2t2.5 -1
q1 -1 3.5 -2.5l5 -3t5 -2.5t3.5 -1q3 0 8 2t10.5 4.5l11 5t8.5 4.5q2 1 3.5 2.5t4.5 1.5q2 0 2.5 -1t0.5 -3v-1.5t-1 -1.5q-2 -1 -6.5 -3l-9 -4l-9 -4t-5.5 -3l-1.5 -1t-3.5 -2t-3.5 -2t-2.5 -2l-2 -1v-13q0 -2 -2 -2h-2q-6 0 -6 5q0 3 1 3.5t1 3.5t-2 5t-5 4t-6 3.5l-5 2.5
q-1 0 -3 1.5l-4 3t-4 2.5t-2.5 1.5t-2 1t-3 1.5t-3.5 2l-2 1h-1h-1l-1.5 -0.5l-1.5 -0.5v-27l-1.5 -1t-2.5 -2v0q-2 0 -3 2t-1 4zM89 83q0 2 0.5 3t2.5 2q2 -1 3 -4.5t1 -7v-7v-5.5q1 -3 4 -3.5t6.5 -2.5t6.5 -7.5t3 -19.5q0 -2 -1 -3.5t-3 -1.5h-2.5t-1.5 1v20
q0 3 -2.5 3.5t-4.5 0.5h-3t-2 -3v-32l-0.5 -0.5l-0.5 -0.5h-1h-1l-0.5 0.5l-0.5 0.5q-1 7 -1.5 16t-1.5 16q0 2 -1 2h-2q-3 0 -4 -1l-2 -2t-2 -2.5t-2 -1.5v-16h-2h-1t-2 0.5t-2 1.5v8q0 9 1.5 13.5t4 6.5t5.5 2t5.5 0.5t4 1.5t1.5 5q0 5 -1 9t-1 8zM137 37v3.5v2.5l0.5 1.5
l1 3l1 3t0.5 2.5l1.5 6t1.5 2.5t3 1l6 1.5q1 0 2 0.5l1 0.5q1 2 1 4.5v4.5t0.5 4t2.5 3q2 -1 3 -2.5t1 -3.5t0.5 -3.5t1.5 -3.5q3 -4 6.5 -5t6.5 -2.5t5 -5t2 -12.5v-5q0 -1 -0.5 -3t-1 -3.5l-1 -3l-0.5 -1.5h-6v23q0 3 -3 4.5t-5 1.5q-3 0 -3.5 -2t-0.5 -4q0 -9 0.5 -17
t0.5 -17v-3t-3 -1h-1q-1 0 -2.5 0.5l-1.5 0.5v41q0 2 -1.5 2.5t-2.5 0.5q-6 0 -8 -4.5t-2 -9.5v-9t-3 -4h-2t-1 2v2v3z" />
</svg>
