<?xml version="1.0" standalone="no"?>
<!DOCTYPE svg PUBLIC "-//W3C//DTD SVG 1.1//EN" "http://www.w3.org/Graphics/SVG/1.1/DTD/svg11.dtd" >
<svg xmlns="http://www.w3.org/2000/svg" xmlns:xlink="http://www.w3.org/1999/xlink" version="1.1" viewBox="-10 0 266 256">
   <path fill="currentColor"
d="M96 245q0 3 3 4t5 2q3 -4 4 -6t1 -5v-3q0 -1 -1 -5t-2 -9t-1.5 -9t-0.5 -5q-1 -7 -1.5 -15t-0.5 -16v-16v-15v-7.5v-11.5q0 -7 0.5 -12.5t0.5 -7.5v-2.5v-4t0.5 -4t0.5 -2.5v-2q0 -1 -1.5 -4t-2.5 -3h-38l-1.5 1.5l-2.5 2.5l-0.5 0.5l-0.5 0.5q0 3 2 3.5t4.5 1t4 1.5
t0.5 5q0 3 0.5 8.5t1 12.5t0.5 12.5v8.5v3q0 7 -1 13.5t-1 12.5q0 14 1.5 27.5t0.5 27.5q0 2 1 4.5t3 2.5v0q2 -1 4.5 -1.5t2.5 -2.5v-1q0 -1 -0.5 -2.5t-1.5 -1.5q0 -14 -1.5 -27t-1.5 -26q0 -14 1.5 -28t1.5 -28q0 -5 -0.5 -9.5t-0.5 -9.5q0 -1 1 -3.5t2 -2.5h11l0.5 1
t0.5 2q1 1 1.5 3t0.5 4t0.5 3.5l0.5 1.5v2.5t-0.5 5.5t-0.5 5v3v2q0 13 0.5 25.5t1.5 25.5t1 25.5v25.5q0 1 1 2.5l1 1.5q0 1 -1 4.5t-1 4.5t-1 2.5t-1 2.5zM124 245l2.5 2.5t2.5 1.5q3 -2 4.5 -4.5t1.5 -6.5v-5t-2 -5v-126q-1 -2 -1 -3v-4q0 -4 0.5 -7.5t0.5 -7.5v-3t-2 -1
h-3t-2 1v55q0 25 0.5 50t0.5 50v1l-0.5 2l-0.5 2q-1 2 -1.5 4.5t-0.5 3.5zM192 243q0 1 1 1.5l1 0.5h0.5h0.5q3 0 4 -2.5t1 -4.5t-1 -4.5t-2 -5.5q-4 -11 -7 -21.5t-7 -21.5v0v-1v-1v0q9 -6 13 -15.5t4 -18.5q0 -6 -3 -10t-7.5 -6.5t-10 -3.5t-10.5 -1q-3 -2 -3 -5v-6v-3v-6
t1 -5.5t2 -2.5h23v-6h-25v-6v-4v-4t-1 -6h-0.5h-1.5q-2 0 -4 3v8v11v11v7q0 1 -0.5 3t-1 4.5t-1 4.5t-0.5 3q-1 2 -3.5 2h-5.5q-2 0 -4.5 0.5t-2.5 2.5v1q1 0 1 0.5t1 0.5t3.5 0.5t3.5 0.5q5 0 8 -1t8 -1q4 0 8.5 0.5t9 2t7.5 4.5t3 9q0 2 -1 5.5t-3 6.5t-4 5.5t-5 2.5h-1.5
h-1.5q-1 -4 -2.5 -7t-3.5 -5t-5 -3.5t-7 -1.5h-4.5t-5.5 0.5t-5 1.5t-4 3q1 1 6 1.5t10.5 1.5t10.5 4t5 9q0 2 -4 4t-9.5 3.5t-10.5 3t-6 1.5v5q3 0 7 -1t7.5 -2.5t7 -2.5t7.5 -1t6.5 5t4.5 11.5t3 13.5t2 11q0 1 0.5 3.5t1.5 5t1.5 5t0.5 3.5zM89 55v12q0 2 0.5 3t2.5 1
t3 -2.5t1 -4.5q0 -3 -1 -4.5t-1 -4.5q0 -2 4 -2.5t8.5 -2.5t8 -6t3.5 -14q0 -2 -1 -4.5t-3 -2.5t-2.5 3.5t-1.5 7.5t-3 7.5t-7 3.5q-2 0 -3 -0.5t-2 -1.5v-13q0 -8 -2 -14h-0.5h-0.5h-2t-1 2v27q0 1 -2.5 1h-2.5q-6 0 -7.5 -3.5t-2.5 -7.5t-2 -7t-7 -3v3v3l0.5 1.5t0.5 2.5
t0.5 2l0.5 1q0 6 1 8.5t2.5 4t5 2t10.5 -0.5zM136 27v3q0 1 0.5 3.5l1 5t0.5 5v2.5q1 5 4 5.5t7 1.5t7 3t3 10q3 0 4 -1.5t1.5 -4l1 -5t3.5 -3.5h3t4 -0.5t4 -0.5t3 -1q3 -1 4.5 -3t2.5 -4.5t1 -5.5v-6v-7q-1 -2 -3 -2h-3v7t-1.5 7.5t-4 6t-7.5 2.5q-4 0 -6 -1.5t-2 -5.5
t1 -8t1 -8v-2.5t-0.5 -3t-1 -2.5t-2.5 -1v0q-1 1 -2.5 2l-1.5 1v30q0 1 -1.5 1.5t-2.5 0.5h-1q-1 0 -2.5 -0.5l-1.5 -0.5q-1 0 -2 -0.5t-2 -1.5t-1.5 -2l-0.5 -1v-17q0 -1 -1.5 -1.5l-1.5 -0.5q-2 0 -3 1t-1 3z" />
</svg>
