<?xml version="1.0" standalone="no"?>
<!DOCTYPE svg PUBLIC "-//W3C//DTD SVG 1.1//EN" "http://www.w3.org/Graphics/SVG/1.1/DTD/svg11.dtd" >
<svg xmlns="http://www.w3.org/2000/svg" xmlns:xlink="http://www.w3.org/1999/xlink" version="1.1" viewBox="-10 0 266 256">
   <path fill="currentColor"
d="M153 189q-1 1 -4.5 2.5t-7.5 3t-7 3l-5 2.5t-4 1t-4 0.5t-3.5 2t-1.5 4.5v39l1.5 1t2.5 2v0q2 0 3.5 -1t2.5 -2v-6.5t0.5 -9.5t0.5 -9.5v-5.5q1 -4 2.5 -6t3.5 -3t4.5 -2t5.5 -2q12 -5 19.5 -9.5t12.5 -10.5t7 -14.5t2 -21.5q0 -5 -1.5 -12.5t-5 -14t-8.5 -11.5t-12 -6
q-4 -1 -9.5 -1.5t-10 -1.5t-7.5 -4t-3 -10q0 -3 2 -4.5t4 -2.5t5 -1h5q3 -1 11 -1.5t16.5 -1t16.5 -0.5t11 -1h3t4 -0.5t3 -2t1 -2.5v-0.5v-0.5l-0.5 -0.5l-0.5 -0.5q-1 0 -4 -0.5l-3 -0.5q-13 0 -25.5 1t-25.5 1h-4h-6h-5.5h-3.5q-1 -1 -1.5 -2.5t-0.5 -2.5v0v0
q0 -2 2.5 -3.5t3.5 -2.5q2 0 7.5 -0.5t11 -1.5t11 -1.5t7.5 -1.5l2.5 -0.5t3.5 -0.5h1v0q1 0 3 0.5t4 1.5t3.5 1.5t2.5 1.5h1h1q0 -1 0.5 -1.5l0.5 -0.5v-1q0 -1 -2 -3.5t-5 -4t-5.5 -3t-3.5 -2.5q-2 -3 -5.5 -7t-7.5 -8.5t-8 -8t-8 -3.5q-2 0 -6 4.5t-8.5 9.5l-9 10t-6.5 6
q-4 -3 -7.5 -8t-8 -10.5t-9 -9.5t-8.5 -4l-3 3t-6.5 7t-7.5 9.5t-7 10.5t-5.5 8.5t-2.5 5.5v1q1 0 1.5 0.5l0.5 0.5v0h1v0l4 -4t6.5 -6t6.5 -6l4 -4t1.5 -2.5t2 -3l3 -3t2.5 -1.5h1.5h0.5l23 19v4l-30 2l-3 4l2 1h33q1 0 2 1.5t1 3v3.5v2v2.5t-2 1.5q-15 0 -30.5 0.5
t-30.5 1.5q-2 0 -4 1t-2 4v1t1 1h41q3 -1 5.5 -1h5.5h4h6t5.5 1t2.5 2v17q0 1 -1.5 1.5t-2.5 0.5q-11 3 -20.5 6t-16.5 8t-10.5 13t-3.5 21q0 11 2.5 21t8.5 19q4 3 8 5t7.5 4t8 3t9.5 1q0 -3 -2 -5t-5 -4t-6 -3.5t-5 -3.5q0 -2 -2 -5.5t-4 -7.5t-4 -7.5t-2 -4.5
q-2 -4 -2 -9v-9q0 -10 4.5 -16.5t11.5 -10.5t15 -7t16 -5h3q12 0 20.5 4t14 11t8 16t2.5 20q0 4 -2 8.5t-5 9t-6.5 9t-5.5 7.5zM91 132l4 3.5t9 8.5t8.5 11t3.5 12v24q3 0 6 -6t6 -13.5l6 -15t6 -9.5l2.5 -2.5t3 -3.5t3.5 -3.5l2 -1.5v-2v-1q0 -2 -1.5 -3t-4 -1.5t-5 -0.5
h-3.5h-17h-16q-1 1 -3 1h-4.5t-4 0.5t-1.5 2.5zM111 134h26l0.5 0.5t0.5 1.5t-1.5 4t-4 5.5t-5.5 4.5t-4 2q-2 0 -4.5 -2t-4 -5t-2.5 -6t-1 -5zM129 45v-1l17 -15l5 -2l1.5 1.5l3.5 3.5t4.5 4t3.5 4l1 2t2 2v1v0v1v0q-7 1 -12 1.5t-13 0.5h-11l-1.5 -1.5l-0.5 -0.5v-1z" />
</svg>
