<?xml version="1.0" standalone="no"?>
<!DOCTYPE svg PUBLIC "-//W3C//DTD SVG 1.1//EN" "http://www.w3.org/Graphics/SVG/1.1/DTD/svg11.dtd" >
<svg xmlns="http://www.w3.org/2000/svg" xmlns:xlink="http://www.w3.org/1999/xlink" version="1.1" viewBox="-10 0 266 256">
   <path fill="currentColor"
d="M113 247q-1 2 1 3t4 1q3 0 8.5 -3t10.5 -7t9.5 -8t6.5 -6h1q3 -2 6 -5.5t5 -7.5t3.5 -8t1.5 -8q0 -8 -4.5 -14t-11 -10t-14 -6.5t-13.5 -5.5q-1 0 -2.5 -1t-3 -2.5t-3 -3.5t-1.5 -3q0 -2 1 -3.5t3 -1.5l71 -3q2 0 2.5 -1.5t0.5 -2.5q0 -2 -1.5 -2.5t-3 -0.5h-3h-2.5h-7
t-6 0.5t-6.5 1t-8.5 1.5h-93q-2 0 -2.5 1t-0.5 3v2t2 2h5q6 0 12 -0.5t12 -0.5q4 0 8 -0.5t6.5 0.5t4.5 3.5t2 7.5v3q-8 9 -19 15t-22 11l-0.5 2l-0.5 2q0 1 2 2l2 1h1q6 0 11.5 -4.5t11.5 -9.5t11 -9.5t10 -4.5q1 0 3 0.5t3.5 2t3 2.5t1.5 3v0v0l-4.5 4.5t-5 4l-5 3
t-3.5 2.5t-4.5 3.5t-7 5.5t-6.5 5.5t-4 3.5q-5 2 -8 4.5t-3 7.5q5 0 7 -0.5t5 -2.5l9 -9t11 -10t11.5 -9t11.5 -7q2 -1 2.5 -1.5l1 -1t1 -0.5h1.5q4 0 7 2t3 5q0 2 -4 6t-9.5 9t-12.5 10t-13.5 9.5t-12 8t-8.5 4.5q0 1 -0.5 1.5l-0.5 0.5q0 3 1.5 3.5t3.5 0.5h3t2 -2
q3 -2 7 -4.5l8 -5t7.5 -5t5.5 -4.5l3.5 -3.5l5.5 -5.5l5.5 -5.5l3.5 -3.5q2 -2 5 -4.5t6 -2.5q2 0 3.5 2t1.5 4q0 8 -4 14.5t-10 12t-12.5 10t-12.5 7.5q-1 0 -2.5 0.5t-3 1.5l-3 2t-1.5 2zM132 74h-8.5t-10.5 1t-9 3t-4 8v33q0 3 5.5 5t12.5 2.5t14 0.5h9q5 0 9.5 -2
t7 -5.5t4 -8.5t1.5 -10q0 -15 -8.5 -21t-22.5 -6zM106 109q0 -3 2 -5t5 -2h42q0 6 -3.5 12t-10.5 6h-24q-4 0 -7.5 -3.5t-3.5 -7.5zM106 91q0 -5 4 -7t9 -3t10.5 -1h7.5q6 0 11 2.5t5 9.5v2t-3 1h-41q-2 0 -2.5 -1t-0.5 -3zM75 44q2 3 5 4t7 2t6.5 1.5t2.5 2.5v20
q4 0 5 -2.5t1 -5.5v-6.5v-4.5q0 -2 1.5 -3t4 -1.5l5 -1t5 -2.5t4 -6.5t1.5 -11.5v-7q-1 -2 -3 -2t-2.5 3.5t-1 8.5t-2.5 8.5t-7 3.5h-3.5t-1.5 -3q0 -8 1.5 -16.5t1.5 -17.5q-1 0 -3 0.5t-3 0.5t-1.5 0.5l-0.5 0.5v35q0 1 -2.5 1h-2.5q-4 0 -6.5 -2.5t-3.5 -6t-1 -7.5v-7
q-1 -2 -1.5 -2h-1.5q-2 0 -3 1.5t-1 3.5v4v2.5t0.5 5t0.5 4.5v3zM156 56v16q4 0 5 -1.5t1.5 -3.5t1 -4.5t2.5 -4.5q6 -3 9.5 -5t5.5 -5t2.5 -7t1.5 -10l0.5 -1t0.5 -2v-2v-2t-1 -1.5t-3 -0.5h-1.5t-1.5 1v7t-1 8.5t-3 7t-7 2.5q-4 0 -4 -4q0 -7 1 -15t1 -15q0 -2 -1 -4
t-3 -2t-3 1.5t-1.5 4t-0.5 4.5v2v28q0 1 -1 1.5t-2 0.5q-2 0 -5.5 -1t-3.5 -2v-24h-4v21q0 3 1.5 5t3.5 3.5t5 2.5t5 1z" />
</svg>
