<?xml version="1.0" standalone="no"?>
<!DOCTYPE svg PUBLIC "-//W3C//DTD SVG 1.1//EN" "http://www.w3.org/Graphics/SVG/1.1/DTD/svg11.dtd" >
<svg xmlns="http://www.w3.org/2000/svg" xmlns:xlink="http://www.w3.org/1999/xlink" version="1.1" viewBox="-10 0 266 256">
   <path fill="currentColor"
d="M129 201q1 2 1.5 6t0.5 9.5v11.5t0.5 10.5t2 8t4.5 3.5t3.5 -2t1.5 -5v-1v0v0q0 -1 -0.5 -3l-0.5 -2l-4 -40v-4q-1 -2 -1.5 -7.5t-1 -12t-1 -12t-0.5 -7.5v-3t-0.5 -4.5t-0.5 -4.5v-4v-3q0 -3 0.5 -5.5t0.5 -4.5v-3t0.5 -3.5t1 -4.5t2 -3.5t3.5 -1.5q1 0 2.5 0.5t1.5 1.5
l8 105q0 1 0.5 1.5l0.5 0.5h3h2q0 -14 -1 -27.5t-2.5 -27.5t-3 -27.5t-1.5 -27.5q0 -3 1 -5t2 -3.5l2 -3t1 -3.5q0 -1 -1 -1.5t-2 -0.5q-3 0 -7 3t-8 7t-7.5 8t-4.5 7v23q0 16 1 31t1 31zM173 216q1 3 2 8.5l2 11t2 10t3 4.5q3 0 5 -1.5t2 -4.5v-2q0 -1 -0.5 -2.5l-1 -3
t-1 -2.5t-0.5 -2q-1 -1 -2 -6t-2 -10.5t-2.5 -10.5t-1.5 -8q-6 -29 -6 -61v-17q0 -4 1 -5t4 -1q2 0 3.5 1t2.5 3t1 4v4q0 1 0.5 4.5t0.5 8t0.5 8t0.5 4.5q0 3 1 10.5t2.5 15.5t2.5 15t2 10q0 1 0.5 4t1.5 5.5t2.5 4.5t3.5 2q3 0 3.5 -2.5t0.5 -4.5q0 -3 -1 -6.5t-2 -6.5
t-2.5 -6.5t-2.5 -6.5q-3 -18 -5.5 -35t-2.5 -35q0 -1 0.5 -4.5t0.5 -4.5q1 -2 3 -3t4 -1.5t4 -1.5t2 -4q0 -1 -1.5 -2.5t-3.5 -1.5t-4.5 1t-5.5 3t-5.5 4t-4.5 3l-2 1.5t-4 3.5t-4 3.5t-2 2.5q-2 4 -2.5 7.5t-0.5 8.5v2v2zM51 160q0 11 0.5 18.5t3 11.5t8.5 6t18 2
q6 0 10.5 -1t8 -2.5t6 -4l6.5 -6.5q0 -2 0.5 -6.5t1 -9.5t0.5 -9.5t1 -6.5v-7q0 -5 -0.5 -8.5t-0.5 -7t-0.5 -7.5t-0.5 -9q-1 -3 -4 -4t-6 -1.5t-6.5 -1t-5.5 -1.5t-2 -3t-0.5 -4l-1 -4t-3.5 -2q-2 0 -2.5 2t-0.5 4t-0.5 4t-2.5 3q-1 0 -3 0.5t-4.5 1l-5 1t-3.5 0.5
q-4 1 -5.5 5t-3.5 8q-1 6 -1 10.5t-0.5 9.5t-0.5 9v10zM69 186q0 -2 1.5 -5.5t3.5 -7.5t4.5 -6.5t4.5 -3.5l1.5 0.5t2.5 1.5t1.5 2l0.5 1q1 1 2 3t2 4.5t2.5 5t1.5 3.5v1q0 2 -2 3.5t-5 1.5h-6h-4h-4h-3.5t-2.5 -1t-1 -3zM59 161q0 -9 1 -17.5t1 -17.5q2 0 4.5 3.5t5.5 7.5
t5 8t2 5q0 2 -2 7t-4.5 10t-5.5 9t-4 4h-1q-2 -5 -2 -9.5v-9.5zM89 153q0 -1 2.5 -6l5.5 -11l5.5 -11l2.5 -5q1 0 2 0.5t1 1.5v46v3t-1 3.5t-2.5 3t-2.5 1.5t-3 -3.5t-4.5 -8.5t-4 -9t-1.5 -5zM67 116v-2t2 -1q1 -1 3 -1t5 -0.5t5.5 -0.5h3.5h2q3 0 7 0.5t4 5.5q0 2 -1.5 6
t-3.5 8.5t-4.5 8t-5.5 4.5l-3 -4.5t-6 -9.5t-5.5 -9t-2.5 -5zM164 78q0 4 3 4l2 -0.5t2 -1.5v-13l1 -0.5t1 -1.5q7 -2 11.5 -4t7.5 -5t4 -7.5t1 -12.5v-5v-5t-1.5 -1.5t-2.5 -0.5l-1 0.5l-1 0.5q-1 6 -2.5 12.5t-2.5 12.5q-1 2 -2.5 3t-3 1.5t-4 0t-3.5 -0.5v-11v-10v-8.5
t-1 -10.5q-1 0 -2 -0.5l-1 -0.5q-2 0 -3 0.5t-1 3.5v35q0 3 -0.5 3.5t-2.5 0.5q-7 0 -10 -2t-4.5 -6t-2 -8t-1 -7.5t-1 -6t-2.5 -2.5l-0.5 0.5l-0.5 0.5l-1 0.5l-1 0.5v5v5t0.5 5t1.5 8.5t2.5 8.5t3.5 4h19q0 4 -0.5 8t-0.5 8zM83 62v20q4 0 5.5 -2t2.5 -5t0.5 -6.5
t-0.5 -6.5q8 -1 13 -4.5t7.5 -7.5t3 -10.5t0.5 -14.5h-7v7.5t-1.5 9t-4 8t-7.5 3.5h-3t-2 -1v-37q0 -1 -3 -2t-4 -1v41q-2 0 -5 0.5t-6 0t-5 -1.5t-2 -5v-22q0 -2 -2.5 -2h-3.5h-2q-2 0 -2 2l-0.5 2.5l-0.5 2.5q0 1 0.5 3t0.5 3t0.5 4.5t1.5 6.5t1.5 5t0.5 3l6 7h18z" />
</svg>
