<?xml version="1.0" standalone="no"?>
<!DOCTYPE svg PUBLIC "-//W3C//DTD SVG 1.1//EN" "http://www.w3.org/Graphics/SVG/1.1/DTD/svg11.dtd" >
<svg xmlns="http://www.w3.org/2000/svg" xmlns:xlink="http://www.w3.org/1999/xlink" version="1.1" viewBox="-10 0 266 256">
   <path fill="currentColor"
d="M76 249q0 2 3 2q4 0 7 -3t5.5 -7t4.5 -8t2 -6q1 -2 1 -4v-3t0.5 -3.5t1.5 -3.5q2 -2 6 -3.5t7.5 -3t6.5 -3.5t3 -7q-4 0 -8.5 2t-8.5 2q-1 0 -2.5 -0.5t-2.5 -0.5l-1 -0.5l-1 -0.5v-11q0 -1 -1 -1.5t-2 -0.5h-2t-1 2v15q0 1 -1.5 1.5t-2.5 0.5q-5 0 -8.5 -3t-8.5 -3
q0 6 3 8t7 3.5t7 3t3 4.5q0 6 -2.5 11t-6 9.5t-6 7.5t-2.5 4zM135 196q0 6 2.5 8.5t5.5 4t6 2t5 2.5q2 3 2.5 9t1.5 9q1 4 3 9.5t4 8.5h3q2 0 3 -0.5t1 -2.5q0 -4 -1.5 -7.5l-3 -7l-3 -7t-1.5 -7.5t3.5 -6t8 -4t8 -4t3.5 -8l-0.5 -0.5t-1.5 -0.5v0q-2 0 -4 1t-4.5 3t-5 3
t-5.5 1h-2t-1 -1l-3 -18q0 -1 -0.5 -1.5l-0.5 -0.5h-1v0v0q-1 1 -1.5 1t-0.5 1v19l-4 3l-3.5 -1.5t-4.5 -2.5q-2 -1 -2.5 -2l-1 -2t-1.5 -1h-3zM108 171l-1.5 0.5l-1.5 0.5q-1 0 -3 0.5t-3.5 0.5t-3 0.5l-1.5 0.5v5h6h8h8h6q2 -1 5 -1t3 -4l-0.5 -0.5l-0.5 -0.5
q-6 -1 -11 -1.5t-10 -0.5zM132 159q3 0 4.5 2.5t2.5 5.5t1.5 5t3.5 2h1.5t1.5 -1q0 -1 -0.5 -4.5t-1.5 -3.5v-1q0 -3 2.5 -5t4.5 -3.5t4 -2.5t2 -4v-1.5v-0.5q0 -2 -0.5 -4.5l-0.5 -2.5h-6q0 4 -1.5 6.5t-5.5 2.5t-7 -1.5t-6 -3.5l-6 -4t-7 -2q-1 0 -2 0.5t-1 1.5v0
q0 2 1.5 3t3.5 2.5t4.5 2.5t2.5 3l-2 1t-3 1h-1q-7 0 -12.5 -2t-11.5 -2v4q0 1 1 1.5t2 1.5t2.5 2t2.5 1h1.5t3.5 0.5t4 0.5h4h1q3 0 6.5 -0.5t6.5 -0.5zM66 168q0 5 5 5h1h1q5 -8 6 -17.5t1 -18.5q0 -1 0.5 -6t0.5 -12v-14t1 -11v-6q0 -3 1 -7q1 -2 4 -3.5t6.5 -2.5
t6.5 -1.5t5 -0.5q3 0 11 -0.5t17 -1t17 -1t11 -0.5h2.5t3 -0.5t3 -0.5h2.5l0.5 -0.5t0.5 -1.5l-0.5 -1l-0.5 -1l-10 -2h-3h-6h-7h-5h-7h-9.5h-8.5h-4q-5 0 -11 1t-11.5 3t-9.5 5.5t-7 8.5q1 23 0 44t-7 42v1zM133 116q9 0 13.5 1t7.5 3.5t5 7t6 10.5q1 2 3 5t4 6.5t3.5 6
t1.5 3.5q2 2 3 2h4q0 -2 -2 -6.5t-4.5 -10.5t-5.5 -12t-6 -11t-5.5 -8t-3.5 -3h-31v-2.5v-0.5v-0.5t1 -2.5q1 -1 3 -1t4 -0.5t3.5 -0.5h2.5q2 0 8.5 -0.5t13 -0.5h13h8.5l1.5 -1.5t0.5 -1.5t-0.5 -1.5l-1.5 -1.5h-26q-8 0 -17.5 -0.5t-19 0t-18.5 2t-16 5.5v1v1l1 1h29
q1 0 1.5 1t0.5 2v7v3t-0.5 3.5t-1.5 3t-3 1.5h-1q-2 -1 -4.5 -3t-4.5 -4.5t-3 -4.5t-2 -2q-2 0 -2.5 1t-0.5 2q0 8 5.5 13.5t13.5 5.5h1l2 -0.5l2 -0.5q1 0 4 -0.5t6 -0.5t5.5 0.5t3.5 0.5q2 -1 3.5 -2t1.5 -2l-0.5 -0.5l-1 -1t-1.5 -0.5h-2.5t-3 -0.5t-3 -0.5h-2.5t-2 -1.5
l-1 -1.5q0 -1 0.5 -2.5t2 -2.5t2.5 -1.5t2 -0.5zM148 80h-4l-3 0.5t-4 0.5t-6 0.5t-10.5 0.5t-10.5 0.5t-6 0.5h-4t-4 1t-3 2t-1 4h3q3 0 3 -1q3 0 11.5 -0.5t17.5 -1t17 -1t11 -1.5q1 0 2.5 -0.5l1.5 -0.5v-1q0 -1 -1 -2t-3 -1h-4h-3zM70 29l5.5 5.5t5.5 4.5t6 3.5l7 3.5
q2 1 2.5 3.5t0.5 4.5t0.5 3.5t2.5 1.5q1 0 2 -2t1.5 -4t1 -4.5t1.5 -3.5q3 -2 6 -3.5l6 -3t5 -4t2 -6.5q-4 0 -7.5 2.5t-7.5 2.5t-5 -3.5t-1.5 -7.5t-1.5 -7.5t-6 -3.5v26q0 1 -1.5 1h-1.5q-2 0 -4.5 -1.5t-5.5 -3.5t-5 -4l-3 -3q-1 0 -1 -0.5v-0.5l-0.5 0.5l-0.5 0.5l-1 1z
M155 51l0.5 3t2.5 4q2 -2 3 -4.5t3 -2.5q3 -2 7.5 -3.5t8.5 -4t6.5 -5.5t2.5 -8h-3q-4 3 -9 7t-11 4h-2q0 -1 -0.5 -4t-0.5 -6.5t-0.5 -6.5t-0.5 -4q0 -2 -0.5 -5l-0.5 -3l-3 -2l-2 3v27q-1 0 -4 0.5t-4 0.5q-3 -1 -4.5 -3l-3 -4l-3 -4t-3.5 -2t-2 1v2q0 4 2.5 7t6 5.5
t7.5 4.5t7 3z" />
</svg>
