<?xml version="1.0" standalone="no"?>
<!DOCTYPE svg PUBLIC "-//W3C//DTD SVG 1.1//EN" "http://www.w3.org/Graphics/SVG/1.1/DTD/svg11.dtd" >
<svg xmlns="http://www.w3.org/2000/svg" xmlns:xlink="http://www.w3.org/1999/xlink" version="1.1" viewBox="-10 0 266 256">
   <path fill="currentColor"
d="M121 242v7q4 0 8.5 -2.5t8.5 -5.5t7.5 -6t7.5 -6q4 -2 8.5 -3.5t9 -2.5t8.5 -3t8 -5q7 -4 10.5 -10.5t4.5 -14.5v-5v-9v-8v-6v-7v-9v-8v-4v-8q0 -6 -1 -11.5t-3.5 -10t-6.5 -6.5q-15 1 -29 0t-28 -4q-1 0 -2 -0.5t-2 -0.5q0 3 2.5 4t5 1.5t5.5 1.5t4 3v62v6.5t0.5 11.5
t0.5 11.5v6.5v2q1 1 1.5 3t0.5 3h2q2 0 3 -1.5t1 -3.5q0 -12 -0.5 -23t-0.5 -23v-8v-9.5v-8.5v-4v-5.5t0.5 -6.5t0.5 -5.5v-2.5l2 -3h28q2 0 3.5 4.5t2.5 12t1.5 16.5t0.5 17v13.5v6.5q0 14 -3.5 21t-10 11t-15 7t-18.5 9q-7 4 -13.5 9t-12.5 10zM52 131v53l1 1.5l1 1.5
q3 5 6.5 7.5t7.5 4t8.5 2t10.5 0.5h13t13 -2t9.5 -6t4.5 -12v-6.5v-4.5v-4t2 -5v-46l-1.5 -1t-2.5 -2q-6 -5 -11.5 -7t-14.5 -2h-8q-3 0 -7.5 0.5t-9.5 1t-8.5 1l-3.5 0.5l-5 5zM91 178q1 0 3.5 1t5 3t4.5 4.5t2 3.5t-0.5 1.5t-1.5 0.5l-2.5 0.5t-3.5 0.5t-5 0.5t-8 0.5h-8
h-5v-4l1 -1l2 -2l2.5 -2.5t2.5 -1.5q3 -3 5 -4t6 -1zM177 115h-2h-2l-1.5 1.5l-0.5 0.5v75q0 1 1.5 1.5l1.5 0.5q2 0 2.5 -1t0.5 -4v-74zM60 173v-6q1 -1 3 -2l4 -2l4 -2t3 -2q5 -5 8 -10.5t4 -11t1.5 -12t0.5 -13.5q1 -1 2.5 -2t3.5 -1t3 2.5t1 3.5q0 2 0.5 7t0.5 10
t0.5 10t0.5 6q1 4 4.5 6.5t7 4t6.5 3.5t3 6v1v1q0 1 -0.5 2.5t-0.5 3.5t-0.5 4t-0.5 3t-2 1h-3h-1.5h-1.5q-2 -1 -4 -3.5t-5 -5t-6 -4t-6 -1.5h-2l-23 16v0q-2 0 -3 -2t-1.5 -4t-0.5 -4v-3zM74 112h5q1 3 1 5v5q0 5 -0.5 11t-3 11t-6 8.5t-10.5 3.5q0 -10 0.5 -18.5
t3.5 -18.5q1 -4 4 -5.5t6 -1.5zM109 110q4 0 6.5 3.5t3.5 6.5q0 2 0.5 6t0.5 9t0.5 9t0.5 6v0.5v1.5q0 2 -3 2h-4t-3.5 -1l-3 -2t-1.5 -3v-33q0 -2 0.5 -3.5t2.5 -1.5zM89 86l4 3q4 -4 4.5 -8t0.5 -7t1.5 -5.5t8.5 -4.5h1l9 -8l0.5 -2.5t1 -6t0.5 -7.5t1 -6v-1v-2
q0 -3 -1 -4t-4 -1h-2h-1q0 1 -0.5 4t-1 6.5t-1 6.5t-1.5 4q0 4 -2 7t-7 3q-1 0 -1.5 -0.5l-0.5 -0.5v-44q0 -1 -1.5 -1h-1.5q-2 0 -4 1.5t-2 2.5v39l-2 3q0 1 -2 1h-3q-5 0 -7.5 -3t-3 -7.5t0 -9.5t0.5 -9q-1 -2 -2 -3t-4 -1t-4.5 2t-1.5 4q0 10 1 16t4 10t9 6t15 4v19z
M134 32v8.5t1 9t3 8t5 6.5q1 0 3.5 1t5.5 1.5t5 1l2 0.5v15l1.5 1t2.5 2h1h1q0 -1 1.5 -2l1.5 -1q1 -7 1 -9.5v-3.5t3 -1t10 -2q6 -2 9.5 -6.5t4.5 -10.5t1 -13v-11h-6q-1 3 -2 8.5t-3 11.5t-4.5 10.5t-5.5 4.5t-5.5 -1t-2.5 -5v-1q0 -3 0.5 -7.5t0.5 -9.5v-8.5v-3.5
q0 -1 0.5 -2t0.5 -2t0.5 -2.5l0.5 -1.5q0 -3 -1 -3h-3t-5 1t-3 4v38q0 1 -1.5 1.5t-3.5 0.5h-2q-3 0 -4.5 -1t-2.5 -5q0 -1 -0.5 -5t-0.5 -8t-0.5 -7.5t-0.5 -4.5t-1 -2t-2 -1v0q-4 0 -5 2.5t-1 4.5z" />
</svg>
