<?xml version="1.0" standalone="no"?>
<!DOCTYPE svg PUBLIC "-//W3C//DTD SVG 1.1//EN" "http://www.w3.org/Graphics/SVG/1.1/DTD/svg11.dtd" >
<svg xmlns="http://www.w3.org/2000/svg" xmlns:xlink="http://www.w3.org/1999/xlink" version="1.1" viewBox="-10 0 266 256">
   <path fill="currentColor"
d="M152 235q0 2 1 4.5t2.5 5t3.5 4.5t4 2h1q0 -1 1 -2l1 -1v-1q0 -2 -0.5 -3.5t-2 -3.5t-2 -3.5t-0.5 -3.5q0 -4 1.5 -6t3.5 -4t3.5 -4.5t1.5 -5.5q0 -2 -2.5 -5t-5.5 -5t-5 -4t-2 -4q1 -3 3 -3.5t5 -1t5.5 -1.5t4.5 -4q-1 -1 -1 -2.5t-0.5 -4t-1 -4t-0.5 -2.5v-2q0 -2 1 -3
t2.5 -1.5t2.5 -1t2 -2.5l-1 -1h-2h-2q-6 0 -12 1.5t-12 1.5q-1 0 -2 -1.5t-2 -2.5t-1.5 -2.5t-0.5 -2.5h-1q-1 0 -2.5 1t-1.5 2q0 2 1 3.5t1 2.5q0 3 -3 4t-6 2.5t-6 4t-3 7.5t2 9.5t2 8.5q0 1 -1.5 3t-3.5 4.5t-4 4.5l-2 2q-2 4 -3.5 9t-4.5 10l1 0.5t2 0.5h1v0
q2 -1 4.5 -5t4.5 -8t4 -7t3 -3q2 0 3 1.5t1.5 3t1.5 3t4 1.5q0 -5 -1 -8.5t-1 -7.5q0 -3 3.5 -5t6.5 -2q2 0 5 2t5 4.5t3.5 5.5t1.5 5q0 3 -1.5 5.5l-3 5l-3 5t-1.5 5.5zM185 175l2 3q2 17 2.5 35t0.5 34q3 0 7 -1t4 -6v0l-7 -72q0 -3 -0.5 -5t-1.5 -4.5l-2 -5t-1 -5.5t2 -6
t3.5 -5.5t3 -6t1.5 -7.5q0 -8 -4.5 -11t-11.5 -4t-14 -1t-13 -1v-11h35q2 0 3 -1.5t1 -2.5q0 -3 -1 -4h-4q-6 0 -11.5 0.5t-11.5 0.5h-9q-2 -1 -2.5 -3.5t-0.5 -5.5v-5.5t-2 -2.5t-3.5 1t-1.5 3v32h-22l-0.5 1l-0.5 1v1v0q0 1 0.5 1.5l0.5 0.5h42q3 2 6.5 2.5t7 1.5t5.5 2.5
t2 6.5q0 3 -1 7t-5 4t-7.5 -2.5t-7.5 -3.5q-9 -2 -17.5 -3t-18.5 -1h-3t-1 3q0 2 2.5 3t6 1t6.5 -0.5t5 0.5q2 0 5.5 0.5l7 1t6 1l2.5 0.5l6 5q0 1 -0.5 1.5l-0.5 0.5q-1 0 -4.5 0.5t-4.5 0.5q-2 0 -7.5 0.5t-11 0.5h-11h-7.5v1.5v0.5q0 1 0.5 2t2.5 1h40q3 -2 6 -2h0.5h0.5
l2.5 2.5t1.5 2.5zM83 242q0 2 1 2.5t2 0.5h3t2 -1v-93q0 -2 1.5 -3t4 -1.5l5 -1t4.5 -0.5q3 0 4 2.5t1 5.5v2q0 2 -0.5 4.5t-1 5.5l-1 6t-0.5 4q-1 2 0.5 2.5t3.5 0.5q1 0 2.5 -5t2.5 -12t1.5 -13t0.5 -7q0 -12 -4 -16.5t-9 -6.5t-9.5 -2t-4.5 -3q0 -5 5 -7t10.5 -4t10 -4.5
t4.5 -8.5q0 -4 -3 -8.5t-7 -5.5h-4h-6h-6h-4t-3 -0.5t-3 -0.5q-2 -1 -3 -3t-2 -4.5t-2.5 -4t-3.5 -1.5q-3 0 -3 3q0 6 4 11t10 6l25 3q2 0 2.5 0.5t0.5 1.5q0 4 -3 6.5t-7 4.5t-8 3.5t-7 4.5q0 1 -2.5 3.5l-3.5 3.5h-2q-5 0 -7.5 -4t-3.5 -9t-2 -9t-3 -4q-3 0 -4 2t-1 4
q0 11 4 16.5t8 8t7.5 3.5t3.5 3l2 17l-0.5 1t-1 1.5t-2 3t-2.5 2.5q0 1 -1 2.5t-3 3t-3 3l-1 1.5q-5 7 -8 17t-4.5 20.5t-2 20.5t-0.5 18q0 2 0.5 4t2.5 2t3.5 -2.5t2.5 -3.5q0 -4 0.5 -10t1 -13.5t1.5 -15.5t2.5 -14.5t4 -12t6.5 -7.5l1 1v3t0.5 7t0.5 8v6v56zM131 183
q0 -4 1.5 -7t7.5 -3l1 0.5t1 1.5l0.5 2.5t0.5 4.5t0.5 4t0.5 3v1v0q-1 1 -4 2t-4 1h-0.5h-0.5q-2 0 -2.5 -1t-1 -2.5t-0.5 -3.5v-3zM151 169h10q1 0 1.5 1.5l1 3t0.5 3.5v2q0 5 -3 7t-8 2h-1q0 -1 -0.5 -1.5l-0.5 -0.5v-17zM91 126l1 -3l1.5 -0.5t2.5 -0.5q5 0 9 3.5t4 8.5
q0 3 -2 4.5t-4.5 2.5t-6.5 1h-5v-16zM136 25v1q1 1 1 3t0.5 4.5t1 4.5l0.5 2q1 1 1.5 2.5l0.5 1.5q3 5 6.5 6.5t6.5 2t5 3t2 9.5h1q1 0 1.5 -1t1 -3l1 -4t2.5 -3q8 -1 12.5 -2t7.5 -3.5t4 -7t1 -12.5q0 -4 -1 -5t-4 -1h-2.5t-2.5 2v14q-4 2 -5 3t-2 1.5t-2.5 0t-5.5 -0.5
q0 -6 0.5 -12t0.5 -13q0 -3 -1.5 -5t-1.5 -4q-2 0 -3 1.5t-1.5 3t-0.5 4v3.5v4t-0.5 6.5l-1 7t-0.5 4.5t-2 1h-2q-5 0 -7 -3.5t-2.5 -8t-1.5 -8t-4 -3.5q-2 0 -3 1.5t-1 2.5zM69 22q0 9 4 14.5t8.5 8.5t8.5 5t4 3v10l1 0.5t2 0.5l0.5 -0.5l0.5 -0.5q2 -6 2.5 -8t1.5 -3
t3.5 -1t8.5 -2q3 -1 5 -3.5t3 -5.5t1.5 -6t0.5 -6v-5q-1 -1 -2 -1h-2h-2t-2 1v7.5t-1 5.5t-3 3t-6 1h-4v-4t-0.5 -7t-0.5 -7v-4t-1 -4t-3 -3v0q-1 0 -2 0.5l-1 0.5v27q-1 0 -4 1t-4 0q-2 -1 -3.5 -3.5t-2.5 -5.5t-1.5 -6t-0.5 -4.5t-2 -1.5h-3q-2 0 -3 0.5t-1 2.5z" />
</svg>
