<?xml version="1.0" standalone="no"?>
<!DOCTYPE svg PUBLIC "-//W3C//DTD SVG 1.1//EN" "http://www.w3.org/Graphics/SVG/1.1/DTD/svg11.dtd" >
<svg xmlns="http://www.w3.org/2000/svg" xmlns:xlink="http://www.w3.org/1999/xlink" version="1.1" viewBox="-10 0 266 256">
   <path fill="currentColor"
d="M158 243q0 2 1 5t4 3q2 0 4 -2t2 -5v0q0 -2 -0.5 -6.5t-1 -10t-0.5 -10t-1 -5.5v-1v-1q1 0 1.5 -2.5t0.5 -3.5v0v-1q0 -2 -0.5 -5l-1 -6t-1 -5.5l-0.5 -2.5q-1 -5 -5.5 -6t-10 -1t-9.5 -0.5t-4 -4.5v-0.5v-0.5q0 -1 2 -3l2 -2h21l1 -1t2 -2.5t2 -2.5l2 -2v-1.5v-2.5
q0 -3 -1 -4t-4 -1q0 5 -2.5 7t-6 2.5t-8 0.5h-8.5q0 -1 -0.5 -4.5t-0.5 -4.5q1 -2 4.5 -2.5t8 -1t8 -3t3.5 -9.5q0 -3 -0.5 -5t-4.5 -3q-3 2 -3.5 4.5t-1.5 5t-2.5 4.5t-5.5 2q-5 0 -5.5 -2t-0.5 -4.5t-1.5 -4.5t-8.5 -2h-4h-4t-3.5 1.5t-1.5 3.5h4t5.5 0.5t4.5 2t2 3.5v2
t-1 1h-5h-7.5t-6.5 -1q-2 -1 -3 -2.5t-1.5 -3.5t-1.5 -3.5t-2 -1.5q-2 0 -2 2.5v3.5q0 5 3 9.5t9 4.5q2 0 4.5 -1t5.5 -1q7 0 7 6v3.5t-2 2.5h-24q-1 0 -1.5 -0.5t-0.5 -1.5t-2 -4t-2 -5h-2q-4 0 -4 4q0 1 0.5 3.5t2 4.5t3 3t3.5 1h27q1 0 1.5 2t0.5 3t-1.5 4t-3.5 3h-29
q-2 0 -2.5 1t-0.5 3v1.5t2 1.5l2 -0.5l2 -0.5q1 0 3 0.5t3 2.5v25q0 2 0.5 5.5t0.5 4.5q1 0 4 1.5l5 2.5h1v0h1l2.5 -0.5l2.5 -0.5h2.5h3.5t3.5 0.5t2.5 0.5t4 1t3 3v16q0 2 1.5 2h1.5q2 0 3.5 -1t2 -3t0.5 -3.5v-3.5q0 -8 -2.5 -11.5t-6.5 -5t-9 -1.5h-9t-6.5 -1.5
t-2.5 -6.5v-4t3 -3h21q4 0 6 -2t3 -5t1.5 -6.5t0.5 -5.5l1 -1l2 -2q3 0 5 4t2.5 9t0.5 11v7v9q0 6 -0.5 11t-0.5 10zM69 239q0 3 1 5t4 2q6 0 8 -6q0 -11 1.5 -22t1.5 -22v-1l-0.5 -3t-0.5 -4v-1v-2v-7.5t1 -12t1 -12.5t1 -8q1 -3 1 -5v-5t1 -4t5 -4l1.5 -0.5t3.5 -1l4 -1
l2 -0.5q1 0 6.5 -0.5t12.5 -1t14 -1.5t11 -1h2h1q1 0 2.5 1.5l1.5 1.5h1v0q2 0 3.5 -1t3.5 -1t5 0.5t3 2.5q4 10 5.5 20.5t2 21.5t0.5 21.5t1 20.5q1 9 2.5 17.5t1.5 18.5q1 0 1.5 0.5l0.5 0.5v0h1q4 0 4.5 -3t0.5 -6q0 -12 -1.5 -24t-1.5 -24q-1 -16 -1.5 -31.5t-4.5 -32.5
q-4 -7 -11.5 -8.5t-15.5 -1.5q-16 0 -32 1t-33 3q-1 1 -3 1.5l-2 0.5q-3 1 -4.5 3t-2.5 4t-1.5 4.5t-2.5 4.5q0 3 0.5 9t0.5 14q0 7 -0.5 13.5t-0.5 8.5v3.5v5t-0.5 5t-0.5 3.5l-2 10t-2 10.5t-1.5 11t-0.5 9.5zM110 190v-2.5t1 -2.5h3.5t5 -0.5t4.5 -0.5h3h4q3 0 5 1t2 5
q0 5 -4 6.5t-8 1.5h-5t-5.5 -1t-4 -2.5t-1.5 -4.5zM100 100l5 5q1 1 4 1t7.5 0.5t9 0.5h7.5t8 -0.5t10 -1.5t10 -3t7 -5v-3v-3q0 -10 -6.5 -13t-16.5 -3h-3.5t-4.5 1h-4h-7h-6h-4q-2 0 -4.5 1t-5.5 2t-4.5 2.5t-1.5 3.5v15zM110 98q-1 -1 -1.5 -3t-0.5 -4q0 -4 4 -6t9 -2.5
t10 -0.5h8h5.5t6.5 0.5t5.5 2t2.5 4.5q0 4 -3 6q-1 1 -3.5 1.5t-5.5 1l-6 1t-4 1.5h-5q-6 0 -10.5 -0.5t-11.5 -1.5zM56 80q0 2 0.5 3t2.5 1q4 0 9 -2.5t11 -5t11.5 -5.5t9.5 -3q0 -1 2 -1h5t5 -0.5l2 -0.5q1 0 3.5 -1.5l2.5 -1.5q1 0 3 -0.5l4 -1l4 -1l2 -0.5q9 0 17 2.5
t16.5 5.5t16.5 6t17 3q0 -7 -4.5 -9.5t-10 -4t-11 -2.5t-9.5 -4v-1.5v-1.5v-3.5t1 -3.5q2 0 6 -0.5t8 -2t7 -3.5t3 -5v-4.5t-0.5 -4.5t-1.5 -3.5t-3 -1.5q-4 0 -5 3t-1.5 6t-2 6t-5.5 3h-2t-1 -2v-20q0 -1 -1.5 -1h-2.5h-2t-3 1v3.5v4.5v5v3q0 6 -5 6q-3 0 -4.5 -2t-2 -5
t-1 -5.5t-3.5 -2.5q-1 0 -1.5 0.5l-1.5 1.5v6v7q1 1 1.5 2l0.5 1l13 3q1 0 1 2v2v4.5t-2 2.5q-5 0 -8.5 -1t-6 -3t-5 -3.5t-4.5 -1.5q0 1 -2.5 3.5t-6.5 5t-10 2.5q-1 0 -3.5 -0.5t-2.5 -2.5q0 -4 3.5 -6t7.5 -4t7 -5.5t3 -10.5q0 -2 -0.5 -4t-3.5 -2q-2 0 -3 3l-2 6t-3 6
t-6 3h-1l-1.5 -1.5l-0.5 -0.5v-26q0 -1 -2 -4t-3 -4l-2 2l-0.5 1.5t-1 4t-1 4.5t-0.5 3q0 4 1.5 8.5t1.5 9.5q0 2 -1 2.5t-3 0.5q-5 0 -6.5 -3.5t-2.5 -7.5t-1 -7t-2 -3q-4 0 -6.5 2.5t-2.5 6.5q0 6 2 9.5t4.5 5.5t6 2.5t6 1.5t5 3t3.5 5q0 4 -3 6t-8 3t-10.5 2t-10.5 2.5
t-8.5 4t-3.5 5.5z" />
</svg>
