<?xml version="1.0" standalone="no"?>
<!DOCTYPE svg PUBLIC "-//W3C//DTD SVG 1.1//EN" "http://www.w3.org/Graphics/SVG/1.1/DTD/svg11.dtd" >
<svg xmlns="http://www.w3.org/2000/svg" xmlns:xlink="http://www.w3.org/1999/xlink" version="1.1" viewBox="-10 0 266 256">
   <path fill="currentColor"
d="M121 246q0 2 1 2.5t2 0.5h2t2 -2q0 -2 0.5 -7t1 -11t1 -11.5t0.5 -7.5v-3v-5v-4.5v-3.5t1 -1h2q3 0 5 1.5t3.5 4.5t2 6t0.5 5v22q1 1 1.5 1h1.5q3 0 6 -3v-5q0 -10 -2.5 -18.5t-7.5 -16.5q-2 -2 -4.5 -2.5t-4.5 -1.5l-4 -2t-2 -3q0 -3 1 -6l2 -6q5 -3 9 -4t7 -2.5t4.5 -5
t1.5 -10.5v-3v-3q-1 0 -2 -0.5l-1 -0.5h-0.5h-0.5q-2 0 -2.5 3t-1 7t-3 7t-7.5 3h-2.5t-1.5 -1v-25q0 -2 -2 -2h-3t-2.5 0.5t-1.5 3.5v24h-11l-1 -1q-2 -2 -2.5 -5t-1 -5.5l-1 -5t-0.5 -3.5t-1 -1.5t-2 -0.5q-2 1 -2.5 2.5t-0.5 3.5t0.5 3t0.5 2t1 2.5t1 3.5q2 5 4 7.5t4 3
t6 0.5h8v3v2q0 2 -0.5 4t-0.5 4t-0.5 3.5l-0.5 1.5l-1 2q-4 0 -7.5 1t-6 2t-4 3.5t-2.5 6.5q-2 7 -4 13.5t-2 15.5q0 2 0.5 3.5t2.5 1.5q1 0 2 -0.5t1 -2.5q0 -1 0.5 -4.5t0.5 -7t0.5 -7t1.5 -4.5q1 -6 4 -10t10 -4h2t2 1q1 2 1 6v4q0 11 -1.5 21.5t-1.5 20.5zM66 240
q0 2 1 3.5t3 1.5q3 0 5.5 -4t3.5 -8.5t1.5 -9.5t1.5 -7q0 -3 0.5 -12t1 -18.5t1 -18t0.5 -12.5v-24q1 -3 3.5 -4.5t5.5 -3t6.5 -2t5.5 -0.5h46q5 0 9 1.5t6 5.5q0 30 1.5 57.5t5.5 56.5l1 1l2 2v0v0h0.5h0.5q3 -2 4 -3t1 -3l-0.5 -0.5t-0.5 -1.5l-0.5 -1.5t-0.5 -2.5
q-2 -8 -2.5 -16.5t-3.5 -16.5v-72q0 -6 -6 -9t-14 -3.5t-15.5 -0.5h-10.5h-19t-16 2t-11.5 7.5t-4.5 16.5q-1 3 -1 9v13t-0.5 15.5t-1 15.5t-0.5 13v9q0 6 -3 12t-6 11v0.5v0.5zM69 109q0 2 1 2h3q1 0 4.5 -2t7.5 -4.5t7.5 -5t5.5 -4.5q2 1 4 3t4.5 4t4.5 3.5t4 1.5
l1.5 -1.5l1.5 -1.5q-1 -1 -3.5 -3t-5.5 -4.5t-5 -4.5t-2 -3v-22q0 -1 -1 -2.5t-2 -2.5l-0.5 -0.5l-0.5 -0.5q-1 0 -2 0.5l-1 0.5v26q0 1 -3 3.5t-4 3.5t-3.5 2.5l-5 3l-5 3l-2.5 1.5l-3 3v1zM159 94q3 0 6 2t5.5 5t5.5 5t7 2h2t2 -1l-4 -4t-7 -6.5t-8 -6.5t-6 -5v-1.5v-1.5
v-2.5v-1.5l1 -2.5t1 -3.5l-0.5 -2t-0.5 -3.5t-0.5 -3t-0.5 -2.5h-2h-2.5t-1.5 1v22q0 2 -1 4t-3 3l-2 2t-4 3.5t-4 2.5t-3 2l-0.5 1t-0.5 2t1 1.5t2 0.5l0.5 -0.5l0.5 -0.5q1 0 2.5 -1.5t4 -3t4 -3l2.5 -2.5l1 -0.5t2 -0.5h1zM80 65q-1 0 -2.5 3.5t-3 7.5t-2.5 8t-1 5
q3 0 5.5 -1.5t4 -4.5t2 -6.5t0.5 -6.5q0 -1 -0.5 -3t-2.5 -2zM135 85q0 2 0.5 2.5t2.5 0.5t3.5 -2.5t2.5 -6t1 -7v-4.5q0 -3 -2 -3q-1 0 -2.5 3t-3 6.5t-2 7zM110 60v6t0.5 8t2 7.5t3.5 5.5q2 -1 2.5 -2t0.5 -2v-7t-0.5 -7.5t-2.5 -6t-6 -2.5zM174 62v0v0l3 6q1 3 1 5.5
t1 4.5t2.5 3.5t3.5 1.5t3.5 -0.5t0.5 -3.5q0 -1 -1.5 -4t-3 -7t-3 -7t-2.5 -3t-3 1t-2 3zM73 21v4.5t1 7.5t2.5 7t3.5 4l13 2q3 1 3.5 3.5t2.5 4.5q2 -6 6 -8t7.5 -3.5t6 -4.5t2.5 -12v-4v-4q-1 -2 -1.5 -2h-1.5h-2v7t-1 7.5t-3.5 6t-6.5 2.5h-2t-1 -1v-25l-0.5 -0.5
l-0.5 -0.5h-1h-1l-1 1q-2 6 -2 12v11q-2 3 -5 3q-4 0 -6.5 -2t-3.5 -5t-1 -7v-7q-1 -2 -4 -2q-2 0 -2.5 1.5t-0.5 3.5zM159 46q1 1 1.5 2t0.5 2.5t0.5 2.5t1.5 1h1q0 -5 3.5 -6.5t8 -2.5t8.5 -2.5t4 -4.5v-20q-4 0 -5.5 3.5t-2 7.5t-2.5 7t-7 3h-2.5t-1.5 -1v-27h-6l-0.5 2
t-1 4.5t-0.5 4.5v1v0q0 1 0.5 2.5t0.5 3t0.5 3t0.5 2.5v1q0 2 -1 3.5t-3 1.5q-4 0 -6 -2t-3 -4.5t-1 -5.5t-1 -6q0 -1 -0.5 -1h-1.5q-3 0 -3 2q0 11 4 17t14 6z" />
</svg>
