<?xml version="1.0" standalone="no"?>
<!DOCTYPE svg PUBLIC "-//W3C//DTD SVG 1.1//EN" "http://www.w3.org/Graphics/SVG/1.1/DTD/svg11.dtd" >
<svg xmlns="http://www.w3.org/2000/svg" xmlns:xlink="http://www.w3.org/1999/xlink" version="1.1" viewBox="-10 0 266 256">
   <path fill="currentColor"
d="M122 249q0 2 1 2h2q2 0 3 -0.5t2 -2.5v-11q0 -4 1 -9t2.5 -9t6.5 -7q9 -1 15 -2.5t10.5 -4.5t7.5 -8t7 -13v-15q0 -3 0.5 -7.5t-0.5 -9.5t-3 -9t-7 -5l-33 -4q-3 -1 -3.5 -2.5t-0.5 -3.5q0 -3 3 -4.5t7 -1.5h9t9.5 -1t7.5 -3t3 -8v-3q0 -3 -0.5 -5.5t-1.5 -4.5t-4 -2
l-25 -3v-9l3 -3l2 -0.5t5 -1t4 -0.5h4t6.5 -0.5t6.5 -0.5h4q1 -1 1 -3v-1t-1 -1h-32l-3 -15h-3l-1 3.5t-1 5.5q0 1 -0.5 4t-0.5 6.5t-0.5 6.5t-0.5 4q0 5 -3.5 6t-8.5 1h-2.5t-3.5 -2q1 -7 0.5 -15.5t-1.5 -16.5q-1 -2 -1.5 -2.5t-1.5 -0.5t-1.5 0.5l-1.5 1.5q0 1 0.5 2.5
t0.5 3.5t-0.5 4t-0.5 3l-0.5 1.5l-0.5 1.5h-31l-1 1.5t-2 1.5q0 1 1 2l1 1h33q1 0 1.5 1.5t0.5 3v2.5v2v2v2q-1 1 -5 1.5l-8 1t-7.5 1.5t-3.5 4v13q0 2 2.5 3.5t5.5 2.5t6 1.5t4 0.5h18q2 0 3 1t1 3t-1 4t-3 3q-4 0 -10.5 1t-13.5 3t-12 5.5t-6 9.5l-2 34q-1 7 3 11.5
t9.5 7.5t12 4t11.5 1q0 -3 -2 -4.5t-5 -2t-6.5 -2t-7 -4.5t-5.5 -8.5t-2 -15.5q0 -12 1.5 -18.5t6 -9.5t12.5 -4t20 -2h3h2q4 0 10 0.5t12 1.5t10.5 1.5l4.5 0.5l3 3v1t0.5 3t0.5 4v3v10q0 13 -2.5 19.5t-7.5 10t-12.5 5.5t-17.5 6q-1 0 -2.5 1t-1.5 2q-3 3 -4 6.5t-2 7.5
t-1 8.5v7.5v4v3zM113 200q0 1 1 1.5t2 0.5h2q4 -4 11 -7.5l14 -7t11.5 -8t4.5 -9.5q0 -2 -1 -6t-3 -7t-5 -5.5t-6 -2.5q-4 0 -11 3.5t-14 8.5t-12.5 9.5t-8.5 8.5v0v0v1l0.5 0.5t1.5 0.5v0h1l19 -15q1 -1 3 1.5t4 6t3.5 7t1.5 4.5t-3 2.5t-6.5 3.5t-6.5 4t-3 5zM131 163
q0 -4 3.5 -6t8.5 -2q2 0 4 1.5t3 3.5t2 4.5t1 4.5q0 1 -1.5 3.5t-3.5 4.5t-4 3t-4 1t-3.5 -2t-2.5 -5l-2 -6t-1 -5zM120 102l0.5 -1.5t1.5 -1.5h11q1 0 2.5 2t2.5 5t1.5 5.5t0.5 3.5q0 5 -6 5q-4 0 -6.5 -1.5t-4 -4t-2.5 -5.5t-1 -7zM93 108q0 -3 1.5 -4.5t4 -2.5t4.5 -1.5
t4 -0.5q3 0 4.5 2t2.5 4.5t1.5 5.5t0.5 4v2t-1 2h-2.5h-2.5q-2 0 -5 -0.5t-6 -2t-4.5 -3.5t-1.5 -5zM143 104v-3t1 -2h17q2 0 3 2.5t1 4.5q0 6 -3 8t-9 2h-2h-3q-3 -2 -4 -5.5t-1 -6.5zM91 49v16l0.5 0.5t1.5 0.5t2.5 -1.5t1.5 -2.5v-3t0.5 -4t0.5 -3.5v-2.5
q13 -2 17.5 -8.5t4.5 -19.5q-4 0 -5.5 3.5t-2.5 7.5t-3.5 7t-8.5 3v0q-1 0 -1.5 -1l-0.5 -1v-5v-4v-7.5t2 -7.5l-1.5 -1.5t-1.5 -0.5q-2 0 -2.5 1t-1 2.5t-0.5 3v2.5t-0.5 3.5t-0.5 5.5t-0.5 5.5t-0.5 3.5t-1 1h-2q-4 0 -6 -1.5t-2.5 -4l-1 -5l-1 -5t-2 -4t-5.5 -1.5
q0 5 0.5 10t3 9.5t6.5 7t11 1.5zM138 25v2q0 1 0.5 3t1 4.5l1 5l0.5 2.5q1 3 2 4.5t2 2t3.5 1t5.5 1.5q2 0 2.5 1l1.5 3l0.5 1.5t0.5 2.5h1q2 0 2.5 -2.5t1.5 -3.5t3 -2.5t5 -2t5.5 -0.5h4.5q2 -5 3 -10.5t1 -10.5v-6q-1 -1 -2 -1.5t-2 -0.5h-2.5t-1.5 1v18q0 3 -3 3.5
t-5 0.5h-4l-0.5 -0.5l-0.5 -0.5v-25q0 -2 -2 -2.5t-3 -0.5t-2.5 0.5t-0.5 2.5v4v6.5t0.5 6.5t0.5 4v1v2.5t-1 1.5q-1 0 -2.5 0.5t-2.5 0.5t-3.5 -0.5t-3.5 -2.5v-3v-4.5t-0.5 -4.5l-0.5 -2q0 -2 -0.5 -2.5t-2.5 -0.5q-3 0 -3 2z" />
</svg>
