<?xml version="1.0" standalone="no"?>
<!DOCTYPE svg PUBLIC "-//W3C//DTD SVG 1.1//EN" "http://www.w3.org/Graphics/SVG/1.1/DTD/svg11.dtd" >
<svg xmlns="http://www.w3.org/2000/svg" xmlns:xlink="http://www.w3.org/1999/xlink" version="1.1" viewBox="-10 0 266 256">
   <path fill="currentColor"
d="M134 247q0 2 2 3t4 1q3 0 7.5 -3.5t9.5 -8t9 -8.5t5 -4q3 -6 5 -9.5t2 -8.5t-2.5 -10t-5.5 -9.5t-5.5 -8.5t-2.5 -7q0 -1 1 -1.5l2 -1l2 -1l1 -0.5h4h6h5.5h3.5q0 -6 -6 -6h-1h-1h-10t-14.5 0.5t-14.5 0.5h-10l-3 0.5t-3 3.5v0q0 1 2 1h3t3.5 0.5t5.5 0.5t5.5 -0.5
t3.5 -0.5q0 1 0.5 1.5t1.5 0.5l0.5 1l0.5 1q-2 4 -8.5 7t-14 6.5t-13.5 7t-6 6.5q0 2 2 2q4 0 9.5 -3t11.5 -6.5t11 -7.5t8 -6h1q3 0 5 2t2 4q0 3 -7 7.5t-15 9t-15 8.5t-7 6v1q1 0 2 0.5l1 0.5q6 0 12 -4t11.5 -8.5t11 -8.5t10.5 -4q1 0 2 2t1 4t-3.5 4.5t-8.5 5.5t-10.5 6
t-10.5 6t-8 5.5t-3 3.5q0 4 4 4q3 0 6.5 -2t6.5 -5l6 -6t6 -4l1 -0.5l2 -1l2 -1t2 -0.5q2 -1 3.5 -3t5.5 -2q1 0 2 0.5t2 2.5q0 2 -2.5 5t-6.5 6.5t-8.5 7.5t-8.5 7t-7 5t-3 3zM68 163q0 13 6.5 17.5t18.5 4.5h10q7 -3 10.5 -9.5t4.5 -14.5t1 -16v-15v-3v-4t-0.5 -3.5
l-0.5 -1.5l-5 -6h-3t-7 -0.5t-7 -0.5h-2q-5 0 -9.5 0.5t-7.5 2t-5 4.5t-2 9q0 1 -0.5 4.5t-0.5 8t-0.5 9t-0.5 7.5v7zM78 159v-10q1 -2 3.5 -2h5.5q5 0 5 5v3q0 1 -0.5 3.5t-1 6t-0.5 6t-1 3.5q0 2 -1 2h-3q-3 0 -4.5 -2t-2 -5t-0.5 -5v-5zM97 169v-4l1 -1t1 -2v-2v-4v-4v-3
l0.5 -0.5l0.5 -0.5h2t2.5 -0.5t3 -0.5h1.5q3 0 3 1v2v7q0 5 -1 9t-3 7t-6 3q-3 0 -4 -2.5t-1 -4.5zM135 149q6 4 12 5t13 1q6 0 10 -3t5.5 -8t2 -10.5t0.5 -10.5v-9q-2 -2 -4.5 -4t-5.5 -3h-10q-8 0 -12.5 1t-7 3.5t-3.5 7.5t-1 13q0 5 0.5 8t0.5 9zM142 146v-13h25q1 0 1 2
v2v3.5t-0.5 3.5t-1.5 3t-3 1h-18zM78 136q0 -4 0.5 -7t2 -5.5t4 -4t6.5 -1.5q2 0 2 1v3v7.5t-1 8.5q-1 1 -2.5 1.5t-3.5 0.5q-3 0 -5.5 -0.5t-2.5 -3.5zM106 118q2 0 3.5 1.5t2 4t0.5 4.5v4v6q-1 2 -3 2h-4h-2h-2l-0.5 -0.5l-0.5 -0.5v-17q0 -2 2.5 -3t3.5 -1zM142 122
q0 -6 4 -7t9 -1h5t5 0.5t3.5 2t1.5 4.5v1q-1 1 -2 3l-1 2h-24q-1 0 -1 -2v-3zM92 98v3t3 1l1 -0.5t1.5 -1l1 -1l0.5 -0.5l2 -14q1 -2 2.5 -3t3.5 -1.5l4 -1t3 -1.5q4 -4 5 -9.5t1.5 -11.5t0 -12t-0.5 -11v-12l-1.5 -1.5t-1.5 -0.5t-3.5 2t-2.5 4v40q0 1 -1 4t-2 3h-3h-3
t-2 -1v-9q0 -12 1.5 -23.5t1.5 -23.5q0 -2 -1.5 -2h-2.5q-4 0 -5 2.5t-1 5.5v9t-0.5 15t-0.5 15v9l-3 3v0q-3 0 -6 -3t-3 -6v-44q0 -2 -2 -2h-4h-2h-1q-1 1 -1 2v3v3v2v3.5t0.5 3.5l0.5 2q0 6 -0.5 11.5t0 10.5t2 10t5.5 9l3 0.5t5.5 1t4.5 2t2 3.5q0 4 -0.5 7t-0.5 6z
M154 98q0 2 1 2.5t2 0.5q2 0 3.5 -2t2 -4.5t0.5 -4.5v-4q1 -2 4 -2t6.5 -0.5t6.5 -3t3 -7.5v-8t0.5 -13t0.5 -13v-8v-2q0 -3 -0.5 -6t-3.5 -3h-1l-2 1t-2 2v43q0 4 -2.5 7t-6.5 3h-2q-1 0 -1 -2v-59l-1 -1t-1 -2h-1h-1l-0.5 0.5t-0.5 1.5q-1 0 -1.5 1l-0.5 1v57
q0 2 -1.5 2.5t-2.5 0.5q-6 0 -7.5 -4.5t-1.5 -9.5q0 -11 1 -21t1 -21q0 -2 -1.5 -2h-3.5t-2.5 0.5t-0.5 4.5v42q0 1 0.5 3t1 4.5t1 4.5t1.5 2q1 2 3.5 3l5 2t4 2t1.5 3v0.5v0.5q0 1 -0.5 3.5t-0.5 3.5v1z" />
</svg>
