<?xml version="1.0" standalone="no"?>
<!DOCTYPE svg PUBLIC "-//W3C//DTD SVG 1.1//EN" "http://www.w3.org/Graphics/SVG/1.1/DTD/svg11.dtd" >
<svg xmlns="http://www.w3.org/2000/svg" xmlns:xlink="http://www.w3.org/1999/xlink" version="1.1" viewBox="-10 0 266 256">
   <path fill="currentColor"
d="M121 243q0 2 1.5 5t3.5 3v0q1 -1 2 -1.5l1 -0.5l0.5 -2l0.5 -2q0 -4 -1 -9t-3 -10t-5.5 -8.5t-8.5 -3.5h-41q-2 0 -3.5 -3t-1.5 -4q0 -4 4 -6t9.5 -3t12.5 -1h13.5t11.5 -0.5t6 -1.5q4 -3 5.5 -8t2 -10.5t0.5 -11v-8.5v-9t-1.5 -6.5t-4.5 -4t-9 -1.5h-24h-24
q-4 0 -8.5 1.5t-4.5 6.5q12 0 23 -1t22 -1h16q6 5 7 11.5t1 13.5v3v3t-0.5 3.5t-0.5 2.5t-1.5 4t-2.5 4q0 1 -0.5 1.5l-0.5 0.5q-6 1 -15 1q-10 0 -20 1.5t-17 5t-7 12.5q0 14 14 14q9 0 17.5 -1t17.5 -1q6 0 9 5.5t5 10.5q0 1 -0.5 3.5zM165 205q4 0 7 3.5t6 5.5q1 1 3 2.5
t4 3.5t4.5 3.5t3.5 2.5h1h2q3 0 5 -1t2 -4t-4.5 -6t-10 -6t-10.5 -6t-5 -5t1 -3t4 -3q0 -1 2 -2t4 -2.5t3.5 -2.5t2.5 -2v-7l-1.5 -0.5t-1.5 -1.5h-0.5h-0.5h-0.5h-0.5q-1 1 -2.5 3t-3.5 4l-4 4t-3 2l-3 3t-3 1q-3 0 -5.5 -2.5t-4.5 -5l-4 -5t-5 -2.5q-2 -1 -2.5 0.5
t-0.5 3.5v1v1q1 0 3 2l4 4t3.5 4t2.5 4v0.5v0.5q0 3 -1.5 5t-4 3.5l-5 3t-3.5 2.5l-2.5 2.5l-3 3l-2.5 2.5l-1 1v5q6 0 10 -3t7 -7t6 -7t8 -3zM53 177q0 1 0.5 2t1.5 1h4q13 0 27.5 -1t26.5 -2q3 1 3 -3q0 -3 -3.5 -3t-8.5 0.5t-9 -0.5t-4 -6v-2q0 -1 2 -2h5q3 0 6 -0.5
t5.5 -2t2.5 -5.5q-13 0 -26.5 0.5t-26.5 1.5q-2 0 -2.5 1t-0.5 2q0 2 1 3.5t3 1.5q5 0 9.5 -1t8.5 -1h1q1 0 2 0.5t1 1.5v8q-1 0 -4 0.5t-6 0.5t-6 0.5t-4 0.5h-2.5t-3 0.5t-2.5 1t-1 2.5zM159 148q0 3 -2.5 5t-6 4.5t-6 4.5t-2.5 6q3 0 6.5 -1.5t6.5 -4t5.5 -5.5t4.5 -5h1
h1q4 0 7 2.5t5.5 4.5t5.5 4.5t7 2.5q5 0 5 -6q0 -3 -3.5 -5t-7.5 -3t-7.5 -2t-3.5 -3v-1.5v-0.5q1 -1 4.5 -4t4.5 -3l2.5 -2.5t3.5 -2.5t3 -2t1 -3t-0.5 -3t-3.5 -1h-1t-1 1q-1 0 -2.5 2t-3.5 3.5t-3.5 3.5t-2.5 2q0 1 -1 1.5t-2.5 2t-3 2t-2.5 0.5h-1l-19 -15h-0.5h-0.5
q-2 0 -2.5 0.5t-0.5 2.5q0 3 2.5 5t5.5 4t5.5 4t2.5 5zM69 80h-2.5t-1.5 2v31q0 4 2 6t5 3t6.5 1h6.5q6 0 11 -1t13 -2q2 -1 4.5 -4.5t2.5 -5.5v-25q0 -1 -1 -3t-3 -2q-3 0 -3.5 2.5t-0.5 5.5v4.5t-2 2.5h-33v-3t-0.5 -5t-1.5 -5t-2 -2zM141 80v4v7v7v4q0 5 2 10t7 7h12
q8 0 14 -0.5t9 -2.5t4 -7t1 -14v-12q-1 -3 -2 -4.5t-3 -1.5q-3 0 -4 1.5t-0.5 3.5t0.5 4t-2 3q-2 2 -5.5 2.5t-8 1t-8.5 0t-6 -0.5t-3 -2t-1.5 -4t-1.5 -4t-4 -2zM73 110q0 -5 3.5 -7t8 -2.5t9.5 0t8 0.5h4.5t2.5 3q0 1 -0.5 3t-1 3.5t-1.5 2.5t-2 1h-27l-4 -1v-2v-1z
M148 106v-1q1 0 1.5 -3t1.5 -4q1 0 4 -0.5t6.5 -0.5h6.5h4q0 -1 2 -1h1q4 0 5 2t1 6t-2 6t-5 2.5t-6.5 0.5h-6.5h-8q-1 -2 -3 -3.5t-2 -3.5zM88 82l2 1l3 -3q0 -7 1.5 -10.5t3.5 -5t4.5 -1.5h4.5t4 -1t2 -5q0 -1 0.5 -3.5t1 -5.5t1 -5.5t0.5 -4.5q0 -3 -1 -4t-3 -1
q-3 0 -4.5 2.5t-2 6t0 6.5t0.5 4q-1 3 -3 4t-4 1h-2h-2q0 -1 -0.5 -4l-0.5 -3v-6v-8v-9v-5t-1.5 -2t-2.5 -1t-2 0.5l-1 0.5v30l0.5 2.5l0.5 2.5v1v1l-0.5 0.5l-0.5 0.5h-3h-2h-5.5t-4.5 -3v-11t-1 -11l-3 -1h-1h-1l-0.5 0.5l-0.5 0.5v27q0 1 1 2t3 2t3.5 1.5t2.5 0.5h2.5
h3.5h3.5h2.5l1 1v15zM157 74q0 1 1.5 1.5l1.5 0.5h1q2 0 2.5 -2l1 -4t1 -4.5l0.5 -2.5q5 0 11 -0.5t10 -5.5q0 -1 0.5 -3l1 -4t0.5 -4t1 -2v-1v-4q0 -2 -0.5 -5t-1.5 -5t-3 -2h-2.5t-1.5 2v22q0 3 -2 3.5t-4.5 1t-5 0t-3.5 -0.5v-35q0 -2 -1.5 -3.5t-2.5 -1.5q-2 0 -2.5 0.5
t-0.5 3.5v32q0 4 -2 5t-5 1q-4 0 -6 -3t-2.5 -6.5t-0.5 -7.5v-7q-1 -2 -2.5 -2.5t-3.5 -0.5l-2 0.5t-1 1.5l4 23q1 3 3 5t5 2.5l6 1t5 0.5q1 1 1.5 2t0.5 2v2l-1 2z" />
</svg>
