<?xml version="1.0" standalone="no"?>
<!DOCTYPE svg PUBLIC "-//W3C//DTD SVG 1.1//EN" "http://www.w3.org/Graphics/SVG/1.1/DTD/svg11.dtd" >
<svg xmlns="http://www.w3.org/2000/svg" xmlns:xlink="http://www.w3.org/1999/xlink" version="1.1" viewBox="-10 0 266 256">
   <path fill="currentColor"
d="M155 249q1 1 2 1.5t2 0.5q3 0 4 -1t1 -5q0 -1 -0.5 -5.5l-1 -9t-0.5 -8.5t-1 -5q0 -1 -0.5 -2.5t-0.5 -2.5v-2q0 -3 3 -3q6 0 9.5 3t5 8t2 10t0.5 9q3 0 5 -1.5t2 -4.5q0 -2 -0.5 -5t-1 -6.5t-1.5 -6.5t-3 -5t-6 -3.5t-7 -3t-5.5 -4t-2.5 -6.5q0 -2 2 -3.5t5 -2t6.5 -1
t4.5 -1.5q1 -2 3.5 -4l2.5 -2l-1 -12l-2 -1q-3 2 -4 4.5t-1.5 5t-2.5 4.5t-9 2q-1 0 -2.5 -0.5t-0.5 -4.5v-35v-3t-0.5 -4.5t-0.5 -5v-2.5q-1 -1 -1 -1.5t-1 -0.5v0h-1q-1 0 -1.5 0.5t-0.5 1.5v56q-7 0 -9.5 -2.5t-4 -5l-3 -5t-4.5 -2.5q0 7 1.5 10.5t3.5 5.5t5 2.5t5 1.5
t3.5 2.5t1.5 4.5t-1.5 5t-4.5 3t-5.5 2.5t-4.5 4.5q-1 3 -2.5 6.5t-2.5 7.5l-2 8t-1 7q0 2 1.5 2.5t2.5 0.5q4 0 4.5 -5.5t1 -12t3 -12t8.5 -5.5q2 0 2.5 0.5t0.5 2.5q1 5 1.5 10.5t0.5 10.5v11t-1 9zM82 193q0 8 2 14t3 12q0 1 0.5 3.5t0.5 5.5t0.5 5.5t0.5 3.5q0 2 1.5 6
t4.5 4t3 -3v-3t-0.5 -2.5l-0.5 -1.5q0 -1 -0.5 -2.5l-1 -3l-1 -3l-0.5 -1.5q0 -3 -0.5 -8t-1.5 -10.5t-1.5 -10t-0.5 -5.5v-2v-4.5v-5.5v-4q0 -9 1.5 -18.5t2.5 -18.5q1 -10 1.5 -19.5t0.5 -19.5v-11q-1 -2 -2 -4.5t-4 -2.5t-3.5 1t-0.5 3q0 5 2 10t2 11q0 17 -3.5 34
t-4.5 33q2 3 2.5 4.5t0.5 4.5t-1.5 5t-1.5 4zM63 194q0 1 0.5 4.5t1 8.5t1 10.5t1.5 10t2 8t3 3.5q1 1 2 0t1.5 -2.5t0.5 -2.5v-2q0 -4 -1 -8.5t-2 -8.5l-2 -8t-1 -9v-1q0 -1 0.5 -2.5t0.5 -3t0.5 -3l0.5 -1.5q0 -9 -0.5 -18t2.5 -18l-1 -2t-3 -2q-3 1 -4 7.5t-2 14t-1 14.5
v11zM106 224q0 1 1 2.5t3 1.5t2 -2v-2v-2t-1 -1v-2t-0.5 -4t-1 -3.5l-0.5 -1.5q-3 -10 -4 -20.5t-1 -20.5q0 -5 1.5 -8t1.5 -8q0 -2 -1 -2.5t-3 -0.5h-3q-2 5 -1.5 12.5t0.5 12.5v3v5v5v3t0.5 2.5l0.5 1.5q0 2 1 6t2 8.5t1.5 8.5t1.5 6zM127 147q0 2 0.5 4.5t1.5 4.5t3 3.5
t4 1.5h3h3.5t3 -1t1.5 -2q0 -3 -1.5 -2.5t-3.5 0.5t-4 -1.5t-2 -6.5l1 0.5l1 0.5l5 -2.5t4 -2.5l-3 -3h-9q0 -5 1.5 -7t3.5 -2.5t3.5 -1.5t1.5 -5q-11 0 -14.5 6t-3.5 16zM171 157q1 2 2.5 2.5t3.5 0.5q4 0 7 -1.5t5 -4.5t3 -6.5t1 -7.5t-1 -9t-5 -8h-6h-3h-3.5t-3.5 1t-2 3
t3 2h7q3 0 6 1t3 6q0 1 -1 2t-2.5 1.5t-3 0.5h-1.5q-2 0 -5.5 0.5t-4.5 0.5q0 1 -0.5 1.5l-0.5 0.5q0 1 0.5 2t3.5 1h2h3q2 0 4 -0.5t3 -0.5q0 5 -2 6.5t-4 2t-4.5 0.5t-3.5 3zM66 131q0 3 1 3h2q4 0 5.5 -2.5t2.5 -6t1 -7.5v-6v-5.5t-1 -4.5q0 -1 -1 -3l-2 -4t-2.5 -3.5
t-2.5 -1.5t-2 1.5l-1 1.5q0 2 0.5 4t1.5 4.5t1.5 4.5t0.5 4q0 7 -1.5 11.5t-2.5 9.5zM107 122q-2 2 -3.5 4.5t-1.5 5.5q5 0 8 -3t4.5 -7.5t2 -9.5t0.5 -8q0 -2 -0.5 -4.5t-2 -4.5t-3 -3.5t-3.5 -1.5t-3.5 1t-1.5 3v1l0.5 1.5t1.5 2.5t1.5 2.5l0.5 1.5v19zM154 106v3t0.5 4
t1.5 3t3 1t2 -1v-2q0 -3 -0.5 -4.5t-0.5 -4.5q0 -5 1.5 -9.5t1.5 -8.5q0 -1 -1 -1.5t-3 -0.5t-3.5 2.5t-1.5 6v7v5.5zM135 107q0 3 2.5 6t4.5 3h1l0.5 -0.5l0.5 -0.5v-1v-1q0 -1 -1.5 -3t-1.5 -3q0 -3 0.5 -5.5t1.5 -4.5t2 -4.5t1 -5.5q0 -1 -0.5 -1.5t-2.5 -0.5v0
q-3 2 -5 3.5t-2 5.5v1l0.5 1l0.5 1v1v1l-0.5 3.5l-0.5 3.5l-0.5 0.5zM173 93v6.5t1.5 6.5t3.5 5.5t6 2.5q0 -6 -1.5 -10t-1.5 -9q0 -4 1.5 -5.5t1.5 -4.5q0 -1 -0.5 -2t-1.5 -1q-5 0 -7 3t-2 8zM64 33l0.5 2t0.5 3l0.5 2.5t0.5 3.5q1 5 1.5 8t2 4.5t4.5 2.5t8 3q2 1 3 3
t1.5 4.5t1 4t2.5 1.5l0.5 -1.5t1 -3.5t1 -3.5l0.5 -1.5q1 -2 4 -3t5.5 -1.5t5 -2t3.5 -3.5q1 -1 1 -3t0.5 -4.5l1 -5t0.5 -3.5v-1v0q0 -1 -0.5 -1.5t-1.5 -1t-2 -1.5t-1 0q-4 0 -4 3.5t-0.5 7.5t-2 7t-6.5 3q-2 0 -3 -0.5t-1 -2.5v-24q0 -1 -0.5 -1t-1.5 -1h-2.5h-3.5v28
q-8 0 -10 -4.5t-2 -13.5q-1 -2 -3.5 -2.5t-4.5 -0.5zM131 39l1 4l2 8t2.5 8t3.5 4l13 3q2 1 2 2t0.5 3t1 3t2.5 1t3 -1t1 -2.5t0.5 -3t1.5 -2.5q8 -2 12 -4.5t6 -5.5t2.5 -8t0.5 -13q-3 0 -6 1t-3 5l0.5 2.5l0.5 2.5v1q0 4 -3.5 7.5t-7.5 3.5q-3 0 -3.5 -1t-0.5 -5
q0 -1 -0.5 -4.5t-0.5 -7t-0.5 -6.5t-0.5 -5t-0.5 -2.5t-2.5 -0.5q-1 0 -3 1.5t-2 3.5q0 6 1 13t1 14h-12q-2 0 -2.5 -1.5t-0.5 -3v-3.5v-2v-2.5t-0.5 -3.5t-1 -3.5t-0.5 -2.5h-2q-1 0 -3 0.5t-2 2.5z" />
</svg>
