<?xml version="1.0" standalone="no"?>
<!DOCTYPE svg PUBLIC "-//W3C//DTD SVG 1.1//EN" "http://www.w3.org/Graphics/SVG/1.1/DTD/svg11.dtd" >
<svg xmlns="http://www.w3.org/2000/svg" xmlns:xlink="http://www.w3.org/1999/xlink" version="1.1" viewBox="-10 0 266 256">
   <path fill="currentColor"
d="M151 195q0 2 -1.5 4t-3.5 4l-3.5 3.5t-1.5 4.5v18l1 2t3 3.5t4.5 3.5t3.5 4q6 5 14 7t16 2h3t2 -3q0 -1 -4 -2.5l-8 -3t-8.5 -3t-5.5 -2.5q-3 -2 -4.5 -3.5t-2.5 -3l-2 -3t-3 -2.5q0 -1 -0.5 -3.5l-0.5 -2.5q0 -3 1 -5.5t2.5 -4.5t2.5 -4t2 -5q4 -2 8 -4.5t7.5 -6t5.5 -8
t2 -8.5q0 -12 -7 -17.5t-17 -5.5q-6 0 -11.5 2t-10 5.5t-7 8.5t-2.5 12l1 -0.5l1 -0.5l2 -1.5l2 -1.5h1q2 0 5 3t6 6.5t5.5 7t2.5 4.5zM51 245v1q0 1 1.5 2l1.5 1h3h4.5h4.5h3q4 0 11.5 0.5t15 0t14 -2t8.5 -4.5q-1 -2 -4.5 -3t-7 -1t-6 -0.5t-2.5 -1.5v-40q0 -2 3.5 -4
t7.5 -5t7.5 -6.5t3.5 -6.5q0 -1 -0.5 -1h-0.5q0 -1 -0.5 -1.5l-0.5 -0.5l-1.5 0.5t-1.5 1.5q-1 0 -2 1l-2 2t-2.5 2l-1.5 1q-4 3 -11.5 4.5t-12.5 1.5q-7 0 -14 -3t-13 -8h-6q0 4 3 6.5t7 5t8 4.5t6 4q0 6 0.5 10t0.5 7.5v7.5v8v12q0 2 -1.5 2.5t-3.5 0.5h-3.5h-3.5h-2.5
t-3.5 0.5t-3.5 0.5h-2.5v1zM180 130q3 20 4 40.5t5 40.5q1 6 4 13t5 13q1 1 1 3t0.5 3.5t1.5 3t3 1.5q3 0 3 -3v-2q0 -2 -0.5 -4.5t-1.5 -5.5t-1.5 -5l-0.5 -2l-2 -1l-0.5 -3.5t-1.5 -7.5t-2 -8.5t-2 -7.5v-2t-0.5 -4t-0.5 -4v-3v-2v-4v-3v-2q-2 -15 -3.5 -30t-4.5 -30v-1
q0 -4 1 -8t1 -8q0 -3 -2 -6t-4.5 -4.5t-6 -3t-6.5 -1.5h-36q-3 0 -5.5 1t-2.5 5h6.5h10.5h10h7q1 0 5 1t7.5 2.5t6.5 4t2 4.5q-1 3 -3.5 4t-4.5 1q-7 0 -13.5 -0.5t-14.5 -0.5h-14q-1 0 -3.5 0.5t-2.5 2.5t3 2.5t8 1t11 0t11 0t8 1.5t3 3q0 5 -6.5 7t-15 3t-15 2t-6.5 4t2 3
h4q11 0 22 -3.5t21 -7.5h1q2 0 3 2.5t2 4.5zM83 206v-9q0 -1 1.5 -1.5t2.5 -0.5l1.5 0.5t1.5 1.5v43l-1 1t-2 1t-2 -5t-1.5 -11.5t-0.5 -12.5v-7zM60 215q0 2 -1 5.5t-2.5 7.5t-3 7l-2.5 5h1.5h1.5q5 0 7 -3t3.5 -7.5t1.5 -9v-7.5v-4v-4t-1.5 -3.5t-3.5 -1.5t-2.5 1t-0.5 2
v2l0.5 1.5t0.5 3t0.5 3l0.5 1.5v1zM109 205v8t1 9.5t4 8t8 3.5q1 0 1.5 -1t0.5 -3q0 -1 -1 -2.5t-2.5 -3.5t-2.5 -3.5t-1.5 -3.5t-1 -5t-0.5 -6.5t-1.5 -6.5t-3.5 -4q-2 2 -1.5 5t0.5 5zM139 168v-0.5v-1.5q0 -2 1 -2.5t3 -0.5h2q3 6 7 10.5t8 8.5v2q0 2 -0.5 3t-2.5 1
t-3 -1t-3 -4q0 -1 -2 -3t-4 -4.5t-3.5 -4.5t-2.5 -3zM150 160q0 -3 2 -3h3q2 0 4.5 1l5 2t4.5 3t2 5q0 1 -0.5 3l-1 4t-1.5 3.5t-2 1.5t-3 -3t-5 -6.5t-5.5 -6.5t-2.5 -4v0zM51 139v10q0 5 1 9.5t3.5 8.5t7.5 5q1 0 2.5 0.5t3.5 0.5h4h3q5 0 10 -0.5t10 -1.5t9.5 -3t7.5 -6
q0 -2 0.5 -5t0.5 -6.5t0.5 -7t0.5 -4.5v-2v-1q0 -2 -0.5 -4.5t-0.5 -6t-0.5 -6t-0.5 -3.5l-1 -3q-1 -2 -3 -4.5t-3.5 -4l-1.5 -1.5h-18q-1 0 -1.5 -1t-0.5 -2v-2v-1q0 -4 3 -6t7.5 -2h8.5t7 -1v-0.5v-0.5v-2t-1 -1t-4 -0.5t-5.5 -0.5t-5.5 -0.5t-4 -0.5t-2.5 -1t-2.5 -2
l-2 -2t-2 -1h-1q-3 2 -4 5.5t-1.5 7.5t0 7.5t0.5 5.5q-2 3 -4.5 4t-5.5 1.5t-6 1.5t-5 4v2.5t-0.5 3.5t-1 3.5t-0.5 2.5l-1 3v11zM71 164q0 -1 1 -3t2.5 -4t3 -3t2.5 -1q2 0 4 -1t4 -1t4 1t4.5 2.5t3.5 3.5t1 4q0 1 -3 2t-6.5 1.5t-7 0.5h-3.5h-9l-1 -1v-1zM83 159v3t2 1
t3.5 -1t1.5 -3t-1 -3t-2 -1q-3 0 -3.5 1t-0.5 3zM60 148q0 -3 1.5 -4t4 -1.5t4 -1t1.5 -2.5t-1.5 -3t-3 -1.5t-3.5 -1t-3 -0.5v-4v-4.5t3 -2.5q2 0 5 1.5t6 4t5 5.5t2 5q0 1 -2 4t-4.5 6t-5.5 5.5t-5 2.5q-4 0 -4 -3v-5zM93 137q0 -5 2.5 -8.5t7.5 -3.5q3 0 3.5 1t0.5 4
q0 2 -1.5 3t-3 1t-3 0.5t-1.5 2.5v1.5v0.5q5 0 6.5 1t1.5 6v2.5t-2 2.5q-5 -1 -8 -5t-3 -9zM72 117q0 -3 2.5 -5t6 -2.5t7 0t5.5 0.5t5 0.5t3 3.5v0q-1 2 -3.5 4.5t-5 5.5t-4.5 5t-3 2h-1l-12 -12v-1v-1zM81 120v0l2 2l1 1q3 1 3.5 -0.5t0.5 -2.5q0 -2 -1 -3t-3 -1t-2.5 1
t-0.5 3zM153 66q0 6 3 11l4 -4q0 -1 0.5 -3t0.5 -4t0.5 -4t0.5 -3q0 -2 1.5 -3.5t4 -2t4.5 -1.5l4 -2q4 -4 8 -7.5t4 -10.5q0 -2 -0.5 -2.5t-2.5 -0.5h-2q-1 0 -3 2t-4 4.5t-4 4.5t-3 2q0 1 -1 1.5t-2 0.5v0h-1q-1 0 -1.5 -0.5t-0.5 -1.5v-27q0 -3 -2 -3.5t-3 -0.5t-3 0.5
t-2 3.5v21l1 3v1q0 3 -1 3.5t-3 0.5h-2h-1q-1 -1 -2.5 -4.5t-4 -7t-4.5 -6t-4 -2.5q-1 0 -1.5 1t-0.5 3t1 5.5t2.5 7.5t4 7t4.5 3q1 1 2.5 1t4 0.5t4 1.5t1.5 3t-0.5 4t-0.5 5zM84 51v16q0 2 1 2.5t2 0.5h2.5t1.5 -2v-13q9 -6 15.5 -14t6.5 -19q-3 0 -5 2.5t-3.5 5.5
t-3.5 5.5t-5 2.5l-0.5 -0.5l-0.5 -0.5l-0.5 -0.5l-0.5 -0.5v-18q0 -2 -2 -2h-2q-4 0 -5 3t-1 6v4l1 2l1 2q0 2 -2 3.5t-3 1.5q-2 0 -4.5 -1.5t-5 -3.5t-4 -4.5t-2.5 -3.5h-1h-1q-3 0 -3 4q0 1 1.5 3.5t3.5 5t3.5 5t2.5 2.5q1 2 3 2t4 0.5t3.5 1.5t2.5 2z" />
</svg>
