<?xml version="1.0" standalone="no"?>
<!DOCTYPE svg PUBLIC "-//W3C//DTD SVG 1.1//EN" "http://www.w3.org/Graphics/SVG/1.1/DTD/svg11.dtd" >
<svg xmlns="http://www.w3.org/2000/svg" xmlns:xlink="http://www.w3.org/1999/xlink" version="1.1" viewBox="-10 0 266 256">
   <path fill="currentColor"
d="M56 246q0 2 0.5 3t3.5 1q4 0 5.5 -3.5t1.5 -8v-9t2 -6.5v-11.5t1.5 -12.5t5.5 -9.5t12 -3.5q3 0 3.5 1.5t0.5 4.5v3t-1 4t-2.5 2.5t-4.5 0.5v1q0 2 1 2.5t2.5 1.5t3 2.5t1.5 4.5q0 2 -2 3.5t-4.5 2t-5 0.5h-3.5v3l2.5 1t4.5 1h5q1 0 4 -0.5t6 -0.5t6.5 -0.5t4.5 -0.5
t1.5 -1.5t0.5 -2.5h-12v-13q5 1 5 -3q0 -1 -1 -1.5t-2.5 -1.5t-2.5 -2.5t-1 -5.5q0 -2 0.5 -5t3.5 -3q7 0 11.5 3.5t6.5 9t2.5 11.5t0.5 12v3q0 1 -0.5 3.5t-0.5 6t-0.5 6t-0.5 3.5v1q0 1 0.5 2.5t2.5 1.5q4 0 5 -3v-11q0 -1 0.5 -2.5t0.5 -3t0.5 -2.5t0.5 -2q0 -4 -1 -8.5
t-2 -9.5t-2 -9.5t-2 -9.5q-1 -1 -5 -2.5t-8.5 -3.5t-7.5 -3.5l-3 -1.5v-25l0.5 -0.5t1.5 -0.5q3 -2 6 -3t5.5 -2t5 -3t5.5 -6v-3q0 -5 -4 -7.5t-9 -3.5t-9 -2.5t-4 -4.5t1.5 -5t4 -4.5l5 -5t4.5 -6.5q1 -2 3 -3.5t4.5 -2t4 -1t1.5 -1.5l-0.5 -1.5t-1.5 -1.5h-1.5h-3t-3 -0.5
t-2.5 -1.5l-1 -1.5t-1.5 -3t-1.5 -3t-3 -1.5q-1 0 -1.5 2t-1.5 4.5t-4 4.5t-9 2h-7q-1 -1 -1.5 -3t-1.5 -4t-2 -3t-2 -1q-3 0 -3.5 1t-1 3l-1 4t-2.5 3h-5.5t-6.5 0.5t-5 2.5t-2 5q6 0 11.5 -1t11.5 -1q1 0 2.5 2.5t3 5.5t4 6.5t7.5 3.5v10q-10 0 -15.5 5t-5.5 15
q0 2 0.5 5.5t2.5 3.5l20 3q1 1 1 2v2v3v3.5v6t-0.5 6.5t-0.5 4q-1 1 -3 2t-4 1q-9 2 -13.5 5t-6.5 7.5t-2.5 11.5t-1.5 16q-1 6 -3 12.5t-2 13.5zM173 208q4 0 6 3t3 7.5t1.5 10t1 10.5t2 8t4.5 3t3 -4q0 -1 -0.5 -5t-1.5 -8.5t-2 -8.5t-1 -5q-4 -15 -13.5 -23t-23.5 -13
q-2 -1 -5 -2l-3 -1l-0.5 -1.5t-0.5 -2.5v-1v-2.5t0.5 -2.5t1.5 -1h5h4q9 0 15 3t10.5 7.5t7.5 10t5.5 10t5.5 7.5t7 3v-7l-1.5 -2.5t-4.5 -6t-5.5 -7t-4.5 -6.5q-4 -5 -8 -10.5t-11 -6.5q-2 0 -5.5 -0.5t-7.5 -1l-8 -1t-5 -0.5q-1 -1 -1.5 -2t-0.5 -2v-1.5v-0.5q0 -1 0.5 -3
t1.5 -3h9q9 0 17 1t16 7q2 1 3.5 4.5t4 7.5t4.5 6.5t6 2.5q2 0 2.5 -1t0.5 -3q0 -1 -1.5 -4t-4 -6t-4.5 -5.5t-3 -3.5q-5 -4 -10.5 -6.5t-12 -4.5t-12.5 -2h-12l-2 -1v-44h35q0 -1 -0.5 -3.5t-1.5 -2.5h-26q-3 0 -4 -2.5t-1 -4.5v-2.5t2 -2.5h2h4h3h3h9.5t9.5 1.5t6.5 4.5
t2.5 9q0 7 -4.5 10t-10 4.5t-10 3.5t-4.5 8t3.5 9.5t9 6t11 3.5t10.5 1q2 0 3 -1t2 -4q-3 -3 -8.5 -3.5t-10.5 -1t-8.5 -2.5t-3.5 -7v-5q1 0 3.5 -0.5t3.5 -0.5h2.5h3.5q5 -1 8 -4t5 -6.5t2.5 -7.5t0.5 -8t-1.5 -7t-4.5 -5t-7 -3t-8 -1h-4.5t-10 -0.5t-11.5 -0.5t-9 -1h-2
l-2 2t-2 1v2q1 1 2 4.5t2 4.5v48q-1 3 -1.5 7t-0.5 7.5v7.5v6v4v5.5v5.5v4q0 2 4 4t9 5t10.5 6t7.5 5q-10 2 -15 6.5t-6.5 11t-1.5 14.5v17q1 0 3 -0.5t2 -1.5q0 -2 0.5 -5.5t0.5 -8t0.5 -8t0.5 -5.5q0 -1 0.5 -3t1.5 -3.5t2.5 -3t3.5 -0.5q1 0 2 1t1 2v17t2 18h1h1
q5 0 5 -4v-1q0 -1 -1 -1q0 -1 -0.5 -3.5t-1 -5.5t-1 -5.5l-0.5 -2.5v-3.5t0.5 -5t0.5 -5t1 -3.5h3zM152 52q0 1 3 1h2.5h0.5l2 4t2 3l0.5 0.5l0.5 0.5q2 0 3 -1.5l2 -3t2 -2.5t3 -1h1h3h2.5h1.5q3 -1 5.5 -3t4 -5t2.5 -6t1 -6v0q0 -1 -0.5 -2.5t-0.5 -3v-2.5v-2h-2
q-2 0 -3 0.5t-2 1.5q1 3 0.5 7t-2 7t-4.5 5.5t-7 2.5l-0.5 -0.5t-1.5 -0.5q-1 -3 -1.5 -7t-0.5 -8.5t0.5 -8.5t0.5 -7q-1 -1 -2 -1h-2q-6 0 -6 7v0v1t0.5 4t1 6.5t1 6.5t0.5 4t-2 3t-3 4h-1h-3l-0.5 -1l-0.5 -1q0 -1 -1 -2.5t-2 -2.5v-1.5t-0.5 -3.5t-0.5 -3.5v-1.5
q-1 -2 -2 -5.5t-3 -3.5q-3 0 -4 2.5t-1 4.5q0 3 1 6.5t3 6.5t4.5 5.5t6.5 2.5v0h-1.5h-0.5zM68 35q0 10 2.5 13.5t6.5 4.5t9 2t9 7q2 -6 6 -8t9 -3.5t9 -4.5t4 -10q0 -3 -0.5 -6.5t-4.5 -3.5q-3 0 -4 1.5t-1 3.5v5q0 2 -2 4q-1 2 -3 4.5t-5 2.5q-2 0 -3 -4q0 -1 -0.5 -4
l-1 -6l-1 -6t-0.5 -4l-1.5 -1.5t-2.5 -0.5l-0.5 0.5l-0.5 0.5q0 1 -0.5 4.5t-1.5 4.5v1q0 2 1 3.5t1 4.5q0 2 -1.5 5t-4.5 3q-4 0 -5.5 -3t-2 -6.5t-2 -6.5t-5.5 -3q-3 0 -3 2.5v3.5zM79 139v-4q0 -7 3 -8.5t10 -1.5v9t-2 8l-0.5 0.5l-0.5 0.5q-3 0 -5.5 -1t-4.5 -3zM83 94
q0 -2 1.5 -3t3.5 -1.5t4 0t3 0.5h3.5h3.5t1 2v2q0 5 -3 6t-7 1h-6q-2 -1 -3 -3t-1 -4zM100 133q0 -3 1 -5t5 -2q3 0 6 0.5t3 3.5l-0.5 1l-0.5 1q0 1 -2 4.5t-2 4.5h-2h-2q-4 0 -5 -2t-1 -6zM75 155h-1q-1 1 -3.5 2l-2.5 1q-2 2 -4 3.5t-4 3.5l-3.5 3.5t-1.5 2.5v2
q3 0 6.5 -1.5t7 -3.5t6 -4.5t2.5 -6.5v0q0 -1 -0.5 -1.5l-0.5 -0.5h-0.5h-0.5zM109 158q0 3 2 5t4.5 3t5.5 1.5t5 0.5q0 -3 -1.5 -5t-4 -3t-5.5 -1.5t-6 -0.5zM154 51q0 1 1 1h-1v-1v0v0zM158 51v1h-1q1 0 1 -1zM158 52v0v0v0v0z" />
</svg>
