<?xml version="1.0" standalone="no"?>
<!DOCTYPE svg PUBLIC "-//W3C//DTD SVG 1.1//EN" "http://www.w3.org/Graphics/SVG/1.1/DTD/svg11.dtd" >
<svg xmlns="http://www.w3.org/2000/svg" xmlns:xlink="http://www.w3.org/1999/xlink" version="1.1" viewBox="-10 0 266 256">
   <path fill="currentColor"
d="M101 220q0 2 0.5 6.5t1.5 10t3 9.5t4 4h22q5 0 7 -4.5t3 -10.5l2 -12t2 -9q2 -3 5 -4.5t6.5 -2t5.5 -1.5t2 -2v-1l-0.5 -1.5l-0.5 -1.5h-3h-3q-6 0 -10.5 3t-7.5 7.5t-4.5 10t-2.5 10.5t-1.5 8t-2.5 3h-11q-2 0 -3.5 -2.5t-2 -5.5t-0.5 -6v-4q0 -8 2.5 -13t6 -9t6 -7.5
t2.5 -8.5q0 -3 -1.5 -4l-3 -2t-4 -1.5t-4.5 -0.5q-3 0 -6 1.5t-6 2.5t-6 2.5t-7 1.5q-7 0 -10.5 -3t-3.5 -11q0 -7 6 -10.5t13.5 -6t15.5 -3.5t13 -1q2 0 4.5 0.5t4.5 2.5h36q3 0 5.5 1.5t4.5 4t3 5t1 5.5q0 8 -5.5 12t-13.5 4q-6 0 -9.5 -2.5t-6 -6t-4 -6t-4.5 -2.5
q-4 0 -4 3t2 6.5t4.5 6.5t5.5 5t5 2h22q4 0 7.5 -2t6 -5.5t4 -7t1.5 -7.5q0 -8 -3.5 -12.5t-9.5 -7t-13.5 -3t-15.5 -0.5t-15 -0.5t-12 -3.5v-1.5v-2.5q0 -4 4 -5t9.5 -1.5t12.5 -0.5t13 -3t10 -9.5t4 -18.5q0 -3 -1.5 -6.5t-3 -6l-3 -5l-1.5 -2.5q0 -3 2 -5t3 -5v-3.5
t0.5 -5.5t1 -5.5t2.5 -4.5l1.5 -0.5t3 -1.5t2.5 -1.5t1 -1t0.5 -1.5t1 -3l1 -4t0.5 -3v-2q0 -9 -5.5 -14t-14.5 -5q0 3 1.5 5.5t3.5 4.5t3 4.5t1 6.5q0 2 -0.5 5.5t-3.5 3.5t-5 -4t-5 -8.5t-6 -8t-8 -3.5q-1 0 -3 0.5t-2 2.5v2q1 0 3.5 2.5l5 5t4.5 5t3 2.5q0 1 1.5 2.5
t1.5 2.5v1q0 3 -2.5 3.5t-4.5 0.5q-3 0 -5 -1.5t-4 -3.5l-3.5 -3.5t-3.5 -1.5q-4 0 -4 3q0 5 3 8t7.5 5t9 2.5t7.5 0.5q2 1 2.5 2t0.5 3q0 1 -0.5 3t-1 4.5t-2 3.5t-2.5 1q-10 0 -19.5 -1.5t-19.5 -1.5h-19q-4 2 -6.5 3t-6.5 1q-3 0 -3.5 -2.5t-0.5 -6.5v-3q0 -3 1 -4
q1 0 4 -1l6 -2t5.5 -2t3.5 -2q4 -1 6 -2.5t2 -4.5q0 -4 -2 -4t-4.5 1.5t-5.5 3t-6 2.5t-7 1q0 -5 4 -8.5t8 -6t7.5 -4t3.5 -4.5t-2 -4t-4 -1h-1.5h-1.5l-3.5 3.5t-6 5.5t-6 6t-3.5 4q-2 2 -3 4t-4 2h-1q-4 -3 -4 -8t3 -8.5t7 -6.5t7 -5.5t3 -5.5t-1.5 -3.5t-3.5 -0.5
q-4 0 -8.5 3t-8 7.5t-6 9.5t-2.5 10q0 4 1.5 6.5t3.5 4l4 3t4 3.5q3 5 4 11.5t1 12.5v0q-1 1 -1.5 2t-1.5 2.5t-1.5 3l-0.5 1.5q-1 4 -1.5 8t-0.5 8q0 7 3.5 11.5t8 7t10.5 4t11 2.5t8 2.5t3 4.5t-3.5 5t-9.5 3t-12.5 2.5t-12.5 3.5t-10 6.5t-4 11.5q0 12 5 17.5t15 5.5
q4 0 8 -1l8 -2l8 -2t8 -1v4q-3 2 -6 5.5t-5.5 7t-4 7.5t-1.5 8zM99 123v-3v-2t2 -1l20 -10h2q3 0 7 1.5t8.5 4t8 5.5t3.5 6v1q-2 0 -5 0.5t-7 1t-7.5 1t-4.5 0.5q-6 0 -13.5 -2t-13.5 -3zM138 102q0 -1 3 -3t7 -4t8 -3.5t5 -1.5q3 0 5 1.5t2.5 4l1 5t0.5 4.5v4.5t-1 5
t-2.5 4t-4.5 1.5q-1 0 -5 -2t-8 -5t-7.5 -6t-3.5 -5zM83 112v-6q0 -1 0.5 -4.5t1.5 -7t3 -5.5t5 -2q2 0 5.5 1.5t7 4t5.5 5t2 4.5l-0.5 1l-0.5 1q-2 2 -5 4t-6.5 3.5t-6.5 2.5t-6 1t-5 -3zM104 85v-1v0q0 -1 1 -2t2 -1t3 -0.5t4 -0.5h4h3h3h4t4 0.5l2 0.5h2q3 0 5.5 0.5
t4.5 1.5t2 3q0 3 -2.5 5t-6 3l-7 2t-5.5 1q-1 0 -5 -1.5t-8 -3.5t-7 -4t-3 -3z" />
</svg>
