<?xml version="1.0" standalone="no"?>
<!DOCTYPE svg PUBLIC "-//W3C//DTD SVG 1.1//EN" "http://www.w3.org/Graphics/SVG/1.1/DTD/svg11.dtd" >
<svg xmlns="http://www.w3.org/2000/svg" xmlns:xlink="http://www.w3.org/1999/xlink" version="1.1" viewBox="-10 0 266 256">
   <path fill="currentColor"
d="M149 242q0 3 1.5 6t4.5 3h2q10 -3 14 -5t5.5 -4.5t3 -6.5t6.5 -10q1 -2 3 -3.5l4 -3t3.5 -3.5t1.5 -5q-9 0 -13.5 4.5t-7 10.5t-6 10.5t-9.5 4.5q-3 0 -4 -0.5t-1 -3.5q0 -5 3 -8.5t6.5 -7t6.5 -7.5t3 -9t-3.5 -8.5t-8.5 -3.5q-2 0 -4.5 1.5t-4.5 3l-4 3t-5 0.5
q-1 0 -1 -2.5v-2.5q0 -6 3 -10t7 -6.5t9 -3.5t9 -1h8q5 2 9.5 6t4.5 10q0 2 -2.5 3.5t-3.5 1.5l-1 -0.5t-1.5 -0.5t-2 -1t-3 -2.5t-3 -2.5t-1.5 -2h-2q0 8 5.5 13t13.5 5q12 0 12 -14q0 -8 -4 -12.5t-10 -6.5t-12.5 -2.5t-11.5 -2.5q-1 0 -2 -1t-1.5 -2.5t-0.5 -3t-1 -2.5
q-2 -2 -4.5 -4t-4.5 -4t-3 -5t0 -7h-1q-3 0 -4 2.5t-1 4.5q0 4 2 6.5l4 5l4 5t2 6.5q0 2 -3 5t-7 6.5t-7.5 7.5t-3.5 10q0 1 0.5 3.5t1.5 5t2.5 4.5t3.5 2q3 0 5.5 -2l5 -4t4.5 -4t5 -2q2 0 2 2v4q0 5 -2.5 9t-5.5 8t-6 9t-3 11zM68 234q0 7 3 11t11 4q6 0 10.5 -3t7.5 -7.5
t5.5 -9.5t6.5 -9q1 -1 2.5 -2t3.5 -2.5t3 -2.5t1 -3v-1l-1 -1h-1q-9 0 -13.5 5t-7.5 11t-6 11t-10 5q-3 0 -4 -2t-1 -5q0 -6 3.5 -9.5t7.5 -7t7.5 -7t3.5 -8.5q0 -2 -1 -4.5t-2.5 -4.5t-3.5 -4t-4 -2q-4 0 -7 2l-6 4t-5.5 3.5t-6.5 1.5h-2.5h-1.5q-1 -2 -1.5 -3.5t-0.5 -3.5
q0 -4 4.5 -8t10.5 -7t12 -4.5t10 -1.5t8.5 0.5t8 2t6.5 4.5t3 7t-2 5.5t-5 1.5t-4.5 -2l-3 -4t-2.5 -3.5t-4 -1.5q0 11 3.5 15.5t14.5 4.5q2 0 4 -1t3.5 -2t3 -2.5t1.5 -3.5v-1.5v-0.5v-2.5t-0.5 -3.5t-0.5 -4v-2q-3 -4 -7 -5.5l-8 -3t-7.5 -3t-5.5 -4.5q0 -3 0.5 -6
t-0.5 -5.5t-2.5 -4t-5.5 -1.5v19q0 1 -3 1.5t-8 1.5t-10.5 2.5t-10 5t-7.5 9t-3 13.5v4v4q1 2 3.5 3.5t4.5 1.5q6 0 10 -2t7 -5l5 -5t4 -2q3 0 5 2.5t2 5.5v1q-1 1 -4 4.5t-6 6.5l-6 6t-4 4.5t-2.5 4.5t-1.5 5zM60 154q0 1 1.5 2l1.5 1h1q2 0 6.5 -1t6.5 -3l18 -19l0.5 -1
t1.5 -2l1 -1.5t1.5 -3t1.5 -2.5t1 -2q4 -5 7.5 -8t7.5 -4.5t9 -1.5h11q5 0 7.5 2.5t3.5 6.5l2 8t3 8q1 2 5.5 6t10 8t11 7.5t8.5 3.5t5 -1t2 -5v-1.5v-0.5q-1 0 -2 -0.5l-3 -1.5l-1.5 -1t-3.5 -3t-4 -3t-3 -2q-5 -5 -9.5 -10t-8.5 -10q-1 -1 -2.5 -4t-1.5 -4l1 -3h6.5h9.5
h9.5h6.5h1.5t3.5 -0.5t3.5 -1t2.5 -1.5v0v0q0 -2 -1.5 -3t-3.5 -1.5l-4 -1t-3 -0.5h-1q-1 0 -5 0.5t-8.5 0.5t-8.5 0.5t-5 0.5q-5 0 -8 -2t-4 -8q0 -2 2 -3t5.5 -2t7.5 -2.5t7.5 -4.5t5.5 -7.5t2 -11.5t-4.5 -11.5t-11.5 -7.5t-14 -4.5t-12 -3.5v-18q0 -3 -2.5 -4t-4.5 -1
h-2.5h-1.5l-2 3v20l-2 2q-8 0 -14.5 2t-11.5 6t-8 10t-3 13q0 12 6 16.5t19 4.5v12l-2 0.5t-3 1.5q-12 2 -23.5 1.5t-23.5 -0.5q-3 2 -4 3.5t-1 4.5q0 2 1 4t4 2h2l1 -0.5t3 -1t3 -1t2 -0.5q6 -1 14.5 -2t15.5 -1v6l-1.5 1.5t-3.5 4t-4 4.5t-3 4q-6 6 -13 12t-13 12zM116 99
q2 -3 3.5 -7t1.5 -8t-2.5 -5.5t-5.5 -2t-7 0t-7 -0.5t-5 -3.5t-2 -6.5q0 -7 2.5 -10.5t7 -6t9.5 -3.5l10 -2l2 -0.5l2 -0.5q0 -1 1.5 -1.5t2.5 -0.5l1.5 0.5t2.5 1.5l12 2t10.5 2.5t7.5 5.5t3 12v2v3q-1 3 -5.5 4.5t-9.5 3.5t-8.5 4t-3.5 5l0.5 1.5t0.5 3t0.5 3l0.5 1.5v2
l-0.5 1.5t-1.5 1.5h-21z" />
</svg>
