<?xml version="1.0" standalone="no"?>
<!DOCTYPE svg PUBLIC "-//W3C//DTD SVG 1.1//EN" "http://www.w3.org/Graphics/SVG/1.1/DTD/svg11.dtd" >
<svg xmlns="http://www.w3.org/2000/svg" xmlns:xlink="http://www.w3.org/1999/xlink" version="1.1" viewBox="-10 0 266 256">
   <path fill="currentColor"
d="M198 249q1 2 4 2q2 0 3.5 -1.5t2 -4t0.5 -4.5v-4q0 -23 -2 -45.5t-3 -45.5q-2 -6 -2.5 -12l-1 -12t-1.5 -12t-4 -12q0 -1 -1.5 -2.5l-2.5 -2.5q-1 -3 -2 -5l-2 -4t-2.5 -3.5t-4.5 -3.5v-24q0 -6 -5.5 -11t-14 -9.5t-19 -8t-20.5 -6.5t-18.5 -4.5t-12.5 -1.5l-3 0.5
t-4 0.5t-1.5 1.5t-1.5 3.5q12 5 23.5 7t23 4.5t22 7t19.5 14.5q1 2 2 3l1.5 1.5t1 1.5t0.5 3q0 3 -1.5 5t-4.5 2q-4 0 -8 -1.5t-8.5 -3.5l-9 -4t-7.5 -4q-4 -1 -12.5 -3t-18 -4t-18 -3t-12.5 -1h-4q-2 0 -4 0.5t-4 1.5t-2 3t0.5 2.5t1.5 2.5q1 0 4 -0.5t6 -0.5t6 -0.5
t5 -0.5q7 0 19 2t24.5 5.5t23 8.5t16.5 11v1q0 2 -4 3.5t-9 3t-9.5 2t-5.5 0.5q-15 0 -29 -2.5t-29 -2.5h-7q-1 1 -1 2v2q0 2 3 3.5t6.5 2.5t7.5 1.5t5 0.5h55q4 0 7 -1t5.5 -2.5t5 -2.5t5.5 -1q6 0 10 4t6.5 10.5t4 14.5t2 15.5t1 14t0.5 10.5v6.5t0.5 8t0.5 7v4.5
q2 16 3 32.5t0 33.5zM136 224q0 3 1 6t3 5.5t4 4t5 1.5q5 0 8.5 -2.5t6 -6t4.5 -7t3 -7.5q1 -2 3.5 -4.5l5 -5t4.5 -5t2 -4.5t-2 -2h-2q-5 0 -7.5 2.5t-5 5.5t-4 7.5t-4 7.5t-5 5.5t-7.5 2.5q-3 0 -4 -2.5t-1 -4.5q0 -7 3.5 -11.5t7 -8.5t7 -9t3.5 -13q0 -6 -5 -9t-10 -3
q-3 0 -3.5 1.5t-1.5 3t-3 3t-7 1.5q0 -6 1.5 -10.5t3.5 -8t5.5 -6.5t8.5 -7h1q6 0 11 1.5t9 4.5t6.5 7t2.5 10v3v3l-1 2q-1 0 -2.5 0.5l-1.5 0.5q-3 -1 -4 -4t-1.5 -6t-1.5 -6t-4 -4v4v4q0 3 0.5 6.5t1.5 7t3 6t6 2.5q8 0 10.5 -4.5t2.5 -11.5v-1q0 -1 -0.5 -3.5l-1 -5
l-1 -5t-0.5 -3.5q-3 -4 -7 -6t-8 -3.5t-8 -2.5t-9 -2q-1 0 -2.5 -5.5t-3.5 -12t-4.5 -11.5t-5.5 -5h-1q0 1 -1 3.5t-1 3.5v0q0 4 1.5 7t3.5 6t3.5 6t1.5 7q0 3 -1.5 5t-4 4t-5 3t-4.5 3q-1 2 -2.5 4.5t-2 5.5t-1 5.5t-0.5 5.5v5t1.5 5.5t3.5 4.5t5 2t5 -2t3.5 -4.5t3.5 -5
t3 -3.5q2 1 3.5 3.5t1.5 5.5q0 6 -3 10.5t-7 8.5t-7.5 9t-3.5 12zM66 217q2 2 4 4.5t4.5 4.5t5 3t6.5 1q1 -1 3 -3.5t4.5 -6.5t5 -9t5 -9t4 -6.5t1.5 -3.5q-5 0 -8.5 2.5t-6.5 6t-5 8t-3 8.5q-2 1 -3 1h-3q-6 0 -6 -5q0 -6 3 -10t7 -7.5t7 -7.5t3 -9q0 -2 -0.5 -5t-1.5 -6
t-3 -5.5t-4 -2.5q-4 0 -6.5 2t-5 4.5t-5 4.5t-6.5 2q-2 0 -3 -0.5t-1 -3.5q0 -5 3.5 -9t8.5 -7t10.5 -5t9.5 -2q11 0 17.5 4t6.5 15v7q-2 3 -6 3q-2 0 -4 -0.5t-2 -2.5v-18h-4v2t-0.5 4t-0.5 4v1v2q0 1 0.5 3l1 4t1 4.5l0.5 2.5q1 3 3.5 3.5t4.5 0.5q5 0 8.5 -3.5t5.5 -8.5
v-4v-5q0 -12 -4.5 -17t-10 -6.5t-11 -2t-7.5 -3.5q0 -1 -0.5 -2t-0.5 -2t-0.5 -1.5t-0.5 -1.5l-0.5 -1t-0.5 -2q-3 -4 -4.5 -6.5t-2.5 -5t-1.5 -5t0.5 -7.5h-2h-1q-3 0 -5 3t-2 7q0 3 1.5 6.5t3 6.5t3.5 6t2 6q0 5 -4.5 8t-10 6t-10 7.5t-4.5 13.5q0 7 1.5 11t8.5 4
q5 0 8 -2t5 -5t4 -5.5t5 -2.5t4.5 2.5t1.5 5.5q0 4 -3 8t-7 8t-7.5 8.5t-3.5 10.5v3zM76 69q0 1 4.5 2.5t11 3t15 3t16.5 2.5t14 1.5t9 0.5v-5q0 -1 -1 -1.5t-2.5 -1t-3.5 -1.5t-3 -1l-2.5 -0.5t-6 -1t-6.5 -1t-5 -0.5q-7 -1 -13.5 -2.5t-13.5 -1.5h-2t-4.5 0.5t-4.5 1
t-2 2.5zM82 34q0 2 3.5 3.5t8.5 2.5t9.5 2t5.5 1t3 0.5t4 0.5t4 0.5l2 0.5q4 1 8 2.5t8.5 3t8.5 3t8 1.5q0 -3 -3.5 -6t-10 -5.5t-13.5 -4.5l-14 -4t-12.5 -2.5t-8.5 -0.5h-4.5h-4.5l-1 0.5l-1 0.5v0.5v0.5z" />
</svg>
