<?xml version="1.0" standalone="no"?>
<!DOCTYPE svg PUBLIC "-//W3C//DTD SVG 1.1//EN" "http://www.w3.org/Graphics/SVG/1.1/DTD/svg11.dtd" >
<svg xmlns="http://www.w3.org/2000/svg" xmlns:xlink="http://www.w3.org/1999/xlink" version="1.1" viewBox="-10 0 266 256">
   <path fill="currentColor"
d="M163 205v41q0 1 1 2l2 2q3 0 4.5 -1.5t2.5 -3.5t1 -5v-4q0 -16 -1 -30.5t-1 -30.5v-21q1 -3 4 -5.5t7 -4t7.5 -2.5t6.5 -1q4 -5 4 -12v-14v-4v-2.5t-1 -3t-2 -4.5q-2 -4 -6.5 -6.5t-9 -4t-8.5 -2l-4 -0.5v-68l-0.5 -0.5l-0.5 -0.5q-1 -1 -2 -1.5l-1 -0.5q-4 0 -5.5 3
t-1.5 6v5.5t2 4.5v53q0 1 -1.5 1.5t-2.5 0.5q-7 3 -11 5.5t-6 5.5t-2 8v13t1.5 12t3.5 6t5 2.5t5.5 1.5t5 2.5t4.5 6.5q0 10 0.5 21.5t0.5 22.5v6zM140 164q0 1 -0.5 4.5l-1 7t-0.5 7v4.5t-0.5 3t-0.5 4t-0.5 4l-0.5 2q-1 5 -3 10l-4 10t-3 10.5t-1 10.5v1.5v2.5q6 0 9 -5
t5.5 -11t3.5 -12t1 -10q0 -2 0.5 -5.5l1 -7t0.5 -7v-5.5v-4v-6v-6v-4h-1h-2t-2 0.5t-1 1.5zM190 163q0 3 0.5 9.5t1.5 15t2.5 18t3 17t3 12.5t3.5 5q4 0 5 -3t1 -6q0 -6 -1.5 -12.5l-3 -13t-3.5 -13t-2 -13.5q0 -1 -0.5 -4.5t-0.5 -6.5t-0.5 -6t-0.5 -5q0 -1 -1 -1.5
t-2 -0.5q-4 0 -4.5 3t-0.5 5zM55 190q0 3 2 5t4.5 4t5.5 2.5t5 0.5q9 0 14 -4t8 -10.5t5.5 -13.5t5.5 -13l2 -2t2 -2.5t2 -2.5t1 -2v-1v-2v-3t-2 -2q0 1 -2 2.5t-3.5 3.5t-3 3.5t-2.5 1.5q-2 3 -4 9t-4 12.5t-5.5 11t-9.5 4.5h-1v0q-1 0 -3.5 -0.5t-3.5 -0.5v-6
q0 -7 4.5 -13t10 -12t10.5 -12.5t5 -16.5q0 -2 -1 -5t-2.5 -6t-4 -5.5t-5.5 -2.5q-4 0 -6.5 2.5t-4 5.5t-2.5 6.5l-2 7t-3.5 5.5t-6.5 2q-3 0 -4 -1.5t-2 -3.5t-1 -4v-4q0 -8 2.5 -15.5t7 -13.5t11 -10.5t14.5 -4.5q13 0 21 8t8 22q0 2 -0.5 4.5t-3.5 2.5q-5 0 -6.5 -3
t-2 -7t-2 -7t-5.5 -3v3v3.5v4.5v2q0 1 1 3l1 2l2.5 2.5t3 3.5t3.5 3.5t2 2.5h2h2q2 0 4.5 -1.5t4.5 -3.5v-12q0 -12 -2.5 -19t-6.5 -10.5t-8.5 -4.5t-8.5 -1.5t-7 -1t-4 -2.5q-1 -6 -1 -11.5t-2 -10.5q-2 -2 -4 -4.5t-4 -4.5l-4 -4t-3 -5v-5q0 -4 -0.5 -8t-1.5 -7t-4 -3
q-2 0 -4.5 1.5t-2.5 4.5q0 10 3.5 17.5t7.5 13t7 10.5t3 10t-2 8.5t-5.5 6.5l-7 6t-6.5 6q-7 8 -8.5 18t-1.5 20q0 8 3 12.5t11 4.5h1q1 -1 2.5 -1.5t3 -1.5t2.5 -1.5t2 -0.5q2 -2 4.5 -6.5t4 -9t3 -8t3.5 -3.5h1q1 1 2.5 3t2.5 2v3.5v3.5q0 6 -2 11t-5.5 9.5t-8 8t-9.5 7.5
q-1 3 -2.5 5.5t-3.5 5.5t-3.5 5.5t-1.5 6.5zM146 130v-1.5v-2.5t0.5 -2t1.5 -1q4 -1 8 -1.5t7.5 -0.5h6.5h8q1 0 3.5 -0.5t4.5 0t4 1.5t2 4q0 5 -2.5 8.5t-6.5 4.5t-8.5 1.5t-8.5 0.5q-3 0 -6.5 -0.5t-6.5 -1.5t-5 -3.5t-2 -5.5zM172 96q3 0 6.5 0.5t6 2t4 4t1.5 6.5v2v2
q-11 2 -23 2.5t-23 0.5q0 -6 2.5 -9.5t6.5 -6t9 -3.5t10 -1zM136 83q0 1 0.5 3t2.5 2h1q2 -1 3.5 -4.5t2.5 -8t1.5 -10t0.5 -10v-8v-4.5q0 -7 -6 -7q-1 0 -3.5 0.5t-2.5 3.5q0 7 1 14t1 15q0 4 -1 7t-1 7zM187 37v1q0 4 0.5 10.5t1 12.5t1 10.5l0.5 4.5q1 4 1 5.5t3 1.5
t3.5 -2t0.5 -5q0 -11 -1 -22t-1 -22q-1 0 -2.5 0.5l-3 1t-2.5 1.5t-1 2z" />
</svg>
