<?xml version="1.0" standalone="no"?>
<!DOCTYPE svg PUBLIC "-//W3C//DTD SVG 1.1//EN" "http://www.w3.org/Graphics/SVG/1.1/DTD/svg11.dtd" >
<svg xmlns="http://www.w3.org/2000/svg" xmlns:xlink="http://www.w3.org/1999/xlink" version="1.1" viewBox="-10 0 266 256">
   <path fill="currentColor"
d="M148 234q0 6 2.5 11.5t9.5 5.5q6 0 11 -4t10 -10t9 -12.5t8 -9.5v-4q-6 0 -11 4.5t-9.5 9.5l-9 10t-9.5 5h-1l-0.5 -1t-1.5 -1v-6q0 -4 1.5 -9t3.5 -10.5t4.5 -10t4.5 -6.5v-7v-4q0 -3 -0.5 -5.5t-1.5 -4.5t-3 -2h-1q-1 0 -1.5 1l-0.5 1l0.5 3.5t1.5 3.5v5v6l-6 10t-5 10
t-3.5 10t-1.5 11zM71 230q0 6 3.5 11.5t10.5 5.5q2 0 4 -0.5t4.5 -1.5t4.5 -2.5t3 -2.5l22 -29v-6q-4 0 -6.5 2t-5.5 5t-5.5 7t-5.5 7t-7.5 5.5t-10.5 2.5v-9q0 -1 2 -4.5t4 -7.5t3.5 -7.5t2.5 -5.5l0.5 -1.5l1 -3t1 -3.5l0.5 -2q1 -2 1.5 -4.5t0.5 -3.5l-0.5 -3t-1.5 -4
q0 -1 -0.5 -3t-1.5 -2q0 -2 -2 -3.5t-3 -0.5l-1 2v28q0 5 -3 8.5t-6 7.5t-6 8.5t-3 9.5zM177 196v0l1.5 1.5l0.5 0.5h1q4 0 7.5 -2t7 -5t5.5 -7t2 -7q0 -14 -8 -20t-20 -6q0 4 2.5 6.5t6 4.5t6 5t2.5 9q0 4 -2 7t-4.5 5l-5 4t-2.5 4zM132 175q0 4 1.5 7.5t4 7t6 5t7.5 1.5
h2.5t1.5 -2t-2.5 -3.5t-5.5 -2.5t-5.5 -2.5t-2.5 -4.5v-1q1 -1 1.5 -3.5t1.5 -5t1.5 -4.5t0.5 -3q2 -4 5.5 -4.5t7.5 -2t7 -4t3 -10.5v-1l-0.5 -1.5t-0.5 -3t-1 -3t-2 -1.5h-1q-2 1 -2.5 3t-0.5 4t-0.5 4l-0.5 2q-2 5 -6.5 7t-8.5 4.5t-7.5 6t-3.5 11.5zM56 170q0 10 6 15.5
t16 5.5q2 0 3 -0.5t2 -3.5q-1 -3 -4 -4l-6 -2t-5 -3t-2 -7t2 -8t5.5 -5t7.5 -3t7 -3t5.5 -5t2.5 -8v-5q0 -2 -3 -2q-1 0 -2.5 2l-3 4t-3 4.5t-2.5 3.5q-4 3 -8.5 4t-8.5 3t-6.5 6t-2.5 11zM113 168q0 3 -1 5.5t-2 4.5t-2 4.5t-1 5.5q3 0 6 -1.5t5.5 -4t4 -5.5t1.5 -6
q0 -11 -5 -17.5t-17 -6.5q0 3 2 5.5l4 5t3.5 4.5t1.5 6zM64 113q0 3 2 4.5t4.5 1.5h5.5h5h14.5t15.5 -0.5t15 -1t13 -0.5h12t17 -0.5t16.5 -2t10.5 -4.5v-1v-1l-0.5 -1t-1.5 -1h-14q0 -5 -2 -8.5t-4.5 -7.5t-5.5 -7.5t-5 -6.5q-1 -1 -2.5 -4t-3.5 -5.5t-4 -5.5t-2 -4v-9
q0 -1 4 -1t9.5 -0.5t10 -1.5t4.5 -4q0 -1 -1.5 -2t-3.5 -1q-6 0 -12.5 1t-13.5 1h-4h-4q-2 -3 -3.5 -6t-1.5 -6q0 -5 5.5 -7.5t12 -3.5t12 -2t5.5 -4q0 -2 -1.5 -3t-3.5 -1h-2q-1 0 -3 1t-3 1t-4 0.5l-6 1l-6 1t-4 0.5q-2 1 -7 1.5t-11 1t-11 1t-6 0.5q-6 1 -9.5 4.5
t-5.5 8.5t-2.5 10.5t-0.5 10.5q0 14 2.5 22.5t8 13t15 5.5t24.5 1h4q2 0 2 -3v-1q-1 -1 -2 -2.5l-1 -1.5h-26q-4 0 -7 -2t-5 -5t-3 -6.5t-1 -6.5q0 -5 5 -7.5t11.5 -4t13.5 -1.5h10t6 3.5t5 8.5t3.5 9.5t2.5 6.5q0 1 2 3t4.5 5l5 6t4.5 4q2 3 2.5 3t0.5 3v2t-1 1
q-24 4 -49.5 4.5t-48.5 -0.5l-7 2v0.5v0.5zM94 38q0 -5 2 -7.5t5 -4.5t7 -2.5t8 -0.5h2.5h3.5q2 2 4.5 6t2.5 7q0 4 -3 6t-7 2.5t-8 0.5h-7h-9q-1 -2 -1 -3.5v-3.5z" />
</svg>
