<?xml version="1.0" standalone="no"?>
<!DOCTYPE svg PUBLIC "-//W3C//DTD SVG 1.1//EN" "http://www.w3.org/Graphics/SVG/1.1/DTD/svg11.dtd" >
<svg xmlns="http://www.w3.org/2000/svg" xmlns:xlink="http://www.w3.org/1999/xlink" version="1.1" viewBox="-10 0 266 256">
   <path fill="currentColor"
d="M164 248q0 2 1 2h2q3 0 4.5 -3t1.5 -5l0.5 -2t0.5 -4v-4v-3q0 -7 -1 -14t-1 -14q0 -1 0.5 -3.5l1 -5l1 -5t0.5 -3.5q3 -2 7 -2h6h8q2 1 2 2v3q0 3 -0.5 5.5t-1.5 5.5v53q2 0 5 -0.5t5 -3.5v-7v-11t0.5 -12.5t0.5 -13v-11v-7.5v-26v-27q-1 -3 -3 -4t-7.5 -1.5t-12 -1
t-11.5 -1t-8 -0.5h-3q-7 0 -12.5 1t-9 3t-5.5 6t-3 11q0 2 -0.5 8t-1 13t-1 13.5t-0.5 7.5q-1 13 -4 24.5t-3 24.5q0 4 0.5 6.5t2.5 5.5q1 0 2 0.5l1 0.5q4 0 5 -5t1.5 -12.5t0.5 -16v-16t1.5 -12.5t5.5 -5h17l3 2q1 0 1 2t0.5 5t0.5 6v5v9v14v14.5v8.5zM60 176q0 6 4.5 8.5
t9.5 2.5q3 0 8.5 -3.5t11.5 -9t10.5 -10.5t4.5 -8q-5 0 -10 2.5t-9 6t-7.5 7.5t-6.5 7h-2q-2 0 -3 -2t-1 -4q0 -7 3.5 -11t7.5 -9t7.5 -10.5t3.5 -14.5q0 -2 -0.5 -5t-1.5 -5t-3.5 -3.5t-4.5 -1.5h-1.5h-1.5q-1 1 -3.5 3t-5 4.5t-5.5 5t-4 3.5l-1 0.5t-1 1.5h-1q-4 0 -5 -3
t-1 -6q0 -7 3.5 -13t9 -10.5t12.5 -7.5t13 -3t11.5 2.5t10 6t7 9t2.5 11.5q0 2 -0.5 5.5t-1.5 6.5t-3 5.5t-5 2.5h-1q-1 0 -2 -3t-2 -3q0 -1 -0.5 -4.5l-1 -7l-1 -7t-0.5 -4.5h-1q-2 0 -3 1t-1.5 3t-0.5 4v3q0 4 0.5 8t2.5 7.5t5 5.5t7 2t7.5 -2t6 -5.5t3.5 -8t1 -7.5
q0 -9 -2 -14.5t-5.5 -8.5t-7.5 -4.5l-8 -3t-7.5 -4t-5.5 -7.5q-1 0 -1 -2t-1 -4.5t-1 -5t-1 -2.5q-1 -4 -2.5 -7t-3.5 -5l-4.5 -4.5t-5.5 -6.5l-0.5 -1.5l-0.5 -1.5v-24q0 -1 -0.5 -1.5t-1.5 -0.5q-3 0 -5.5 2t-3.5 5.5t-1.5 6.5t-0.5 5v1.5v0.5v2t0.5 2.5t0.5 3v2.5
q4 3 8 6.5t7.5 7t5.5 8t2 9.5v6q-1 2 -3.5 3.5t-5 2.5t-4.5 2t-3 2l-10 6t-8.5 7t-5.5 9t-2 12q0 5 1.5 9.5t5.5 6.5h6q7 0 10.5 -2.5t5.5 -5.5t3.5 -6t5.5 -3q3 0 4.5 2t1.5 5q0 8 -4 13.5t-9 10.5t-9 10.5t-4 12.5zM150 174q-2 0 -2 -1v-2v-1v-1q1 0 3.5 -2t6 -4t6 -4
t3.5 -3q1 0 2 -0.5l1 -0.5h0.5h0.5h0.5h0.5q1 0 2 0.5l1 0.5q2 2 4 4.5l4 5t3.5 4l1.5 1.5v5h-19t-19 -2zM183 151q0 -2 1.5 -4t3 -3.5l3 -3t2.5 -1.5h1q1 0 2 1.5t1.5 3.5t1 3.5t0.5 2.5v3t-0.5 4.5t-0.5 4.5v3q-1 0 -1.5 0.5l-0.5 0.5h-1q-1 0 -3 -1.5t-4 -4t-3.5 -5.5
t-1.5 -4zM140 157v-4t0.5 -7t1.5 -6.5t3 -2.5q4 0 8.5 3.5t4.5 7.5q0 5 -3 8t-7 5q-1 1 -3.5 2.5l-2.5 1.5l-2 -2v-2.5v-3.5zM159 136v0q0 -1 0.5 -2t1.5 -2h2t4.5 -0.5t4.5 -0.5h3h2.5t3.5 0.5t3 1.5t1 3q0 1 -1.5 3t-3.5 3t-4.5 2t-3.5 1h-1h-1l-11 -8v0v-1zM175 93l3 3
t4 2q5 2 6 5.5t1.5 6t1 4.5t3.5 2t4 -1.5t2 -4t1 -4.5v-4q2 -2 5.5 -2.5t5.5 -1.5v-1v-1q0 -3 -2 -4t-4 -1.5t-3.5 -1.5t-1.5 -4q0 -6 3.5 -7t8.5 -1q1 0 1.5 -1t0.5 -2v-1q0 -3 -2.5 -3.5t-5 -0.5t-4.5 -0.5t-2 -2.5v-11q0 -2 2 -3t5 -1.5t5 -1.5t2 -4t-4 -3h-21t-20 0.5
t-20.5 1t-22.5 -0.5q-4 2 -4 7h65l3 3v16h-8q-1 0 -1 -1.5v-3.5t-0.5 -4t-2.5 -2t-3 1.5t-1.5 3.5l-1 4t-0.5 4v2q0 1 0.5 4l1 6t0.5 6v4zM129 69v9.5t0.5 9t2.5 8t6 6.5h4h4q3 0 6 -0.5t5.5 -1.5t4.5 -2.5t2 -5.5v-31q0 -1 -1.5 -1.5l-1.5 -0.5q-3 0 -3.5 3l-1 6t-2.5 5.5
t-8 2.5q-4 0 -5 -2.5t-2 -6t-2 -6t-4 -2.5t-3.5 3.5t-0.5 6.5zM137 88v-1l1 -2.5t2 -2.5h14q1 0 1.5 2t0.5 3q0 3 -2.5 6.5t-4.5 3.5q-5 0 -8.5 -2t-3.5 -7zM183 77h11q0 1 -0.5 4t-1 5.5t-1.5 5t-3 2.5q-1 0 -3 -0.5t-2 -1.5v-15z" />
</svg>
