<?xml version="1.0" standalone="no"?>
<!DOCTYPE svg PUBLIC "-//W3C//DTD SVG 1.1//EN" "http://www.w3.org/Graphics/SVG/1.1/DTD/svg11.dtd" >
<svg xmlns="http://www.w3.org/2000/svg" xmlns:xlink="http://www.w3.org/1999/xlink" version="1.1" viewBox="-10 0 266 256">
   <path fill="currentColor"
d="M143 236q0 6 4 9t10 3q7 0 11 -4.5t7 -9.5q1 -2 4 -4.5t6 -4.5t5 -4t2 -3q0 -2 -1.5 -2h-2.5q-6 0 -10 3.5t-6.5 8t-5 8.5t-6.5 4h-2t-2.5 -0.5t-2.5 -0.5t-2 -1q-2 0 -2 -2v-3q0 -3 1.5 -5t3.5 -4l4 -4t3 -4q1 -1 1.5 -2t1 -2.5t1.5 -3t1 -2t1 -0.5t2.5 -0.5t2.5 -0.5h2
q7 -2 12.5 -6t5.5 -12q0 -7 -2 -10t-6 -4.5t-9 -1.5t-11 -1l-3 -1v-3t-1 -4.5t-2 -4.5t-3 -2q-1 2 -1 4v5.5t-0.5 5t-2.5 3.5q-1 0 -2 0.5t-2.5 1l-3 1l-1.5 0.5l-2.5 2.5t-3.5 3t-3.5 3t-1.5 2.5v3q0 8 4.5 11.5t12.5 3.5h3t1 -2t-2 -3t-4.5 -2t-5 -2.5t-2.5 -5.5
q0 -3 0.5 -4.5t3.5 -3.5q1 0 3.5 -1t5.5 -2t6.5 -2t5.5 -1h5t6 0.5l6 1t4 1.5q0 1 0.5 3.5l0.5 2.5q0 6 -3.5 10t-9.5 4q-2 0 -4 -2t-3.5 -4.5t-3.5 -5t-3 -3.5h-1q-1 0 -1.5 1t-0.5 2q0 4 2.5 7t2.5 6q0 6 -2.5 10.5t-6 8t-6 7.5t-2.5 10zM68 233q0 3 2 5t4.5 3.5t5 2.5
t4.5 1q6 0 10 -2t6.5 -5t5 -7t5.5 -8q3 -2 5 -4t2 -5q-7 0 -10.5 3.5t-6 8t-5.5 8t-8 3.5h-1v0q-3 -1 -6 -2.5t-3 -4.5v-1l0.5 -1t0.5 -2q1 0 3 -2t4 -4.5t4 -4.5t3 -2q1 -4 3 -9.5t2 -9.5q0 -1 -0.5 -3.5t-1.5 -5t-2.5 -4.5t-3.5 -2h-2t-1 2q0 4 2 7.5t2 8.5q0 2 0.5 5
t-1.5 4l-18 19q-2 2 -3 4t-1 4zM58 194q4 6 8.5 7t11.5 1h2.5t3 -0.5t2.5 -1t1 -2.5v-1l-0.5 -0.5t-1.5 -0.5h-6q-4 0 -6.5 -1t-4 -2.5t-1.5 -5.5q0 -5 2.5 -8.5t7 -5t9 -2.5t8.5 -1h1.5h0.5q4 1 8 1.5t7 2t5 4t2 6.5q0 5 -2.5 7t-5 3l-5 2t-2.5 4q11 0 15.5 -4t4.5 -15
q0 -7 -4 -10t-9 -4.5t-9 -1.5t-4 -1v-12l-3 -2q-2 1 -2.5 3t-0.5 4.5t-0.5 4t-2.5 2.5q-5 2 -10.5 3.5t-10 3.5t-7 6t-2.5 11v3.5v2.5zM172 152q2 1 4 3t5 3.5t5.5 3t5.5 1.5q2 0 3.5 -0.5t1.5 -3.5q0 -2 -3.5 -4.5t-8.5 -4.5t-11 -3.5t-12 -2.5t-10.5 -2t-6.5 -1t-5 -0.5
t-7 -0.5h-7h-4q-2 0 -6 -0.5t-9 -0.5q-4 0 -8.5 0.5t-5.5 0.5l-7 -3.5t-4 -6.5q-1 -6 -1.5 -10.5t-1 -8.5t-0.5 -8v-10v-14v-12t0.5 -12.5t1.5 -13.5q2 -8 5 -11.5t10 -5.5q22 -3 44.5 -3.5t45.5 0.5l1 -1.5t2 -1.5v-0.5v-0.5v-1l-0.5 -0.5t-1.5 -0.5h-31q-18 0 -34 0.5
t-34 3.5q-1 1 -3.5 1.5l-2.5 0.5q-1 1 -2.5 3.5t-2.5 5.5t-2.5 6t-1.5 5q-1 13 -2 27t-1 27v5v3q0 2 1 7.5l2 11l2 11t1 7.5q1 2 3.5 3.5t5 2.5t5 1h4.5q8 0 16.5 -0.5t16.5 -0.5h7h4q2 0 6 1t9.5 2t10 1.5t5.5 1.5h1h2zM137 122q0 7 5.5 9.5t12.5 4t14 1.5h11h7
q1 -1 1.5 -2t0.5 -2v0v0v-1v0q-1 0 -2 -1l-1 -1h-9t-10 -0.5l-10 -1t-9 -1.5q-1 0 -2 -1t-1 -2v0q0 -4 2.5 -5t6 -1.5t6.5 -2t3 -4.5t-1.5 -4.5t-4 -3t-4 -2.5t-1.5 -3v-0.5v-0.5q5 -1 8 -2t4.5 -3t2 -5t-0.5 -8q1 -1 4.5 -1.5t8 -1.5t7.5 -2t3 -4q0 -2 -1.5 -2h-3.5
q-8 0 -15.5 1.5t-15.5 1.5h-2h-4h-3.5h-1.5q-1 0 -1.5 -0.5t-0.5 -1.5v0q0 -3 2.5 -4t5.5 -2t7 -1.5t7.5 -2.5t6 -5.5t2.5 -11.5q0 -5 -3 -8t-7.5 -4t-9 -1h-8.5h-13t-10.5 1.5t-7 5.5t-2.5 12v3.5t0.5 5t2 4.5t3.5 2h17q0 1 0.5 4t0.5 4q0 2 -3 3t-7 1.5t-9 1t-9 1.5
t-6.5 3.5t-2.5 6.5q0 3 1 5t2.5 4t2.5 4.5t1 4.5v1l-1 1l-1.5 2.5l-3 5t-3.5 4.5t-2 3l-2 1v4.5v3.5q3 0 5 -2.5t3.5 -6.5t3.5 -6.5t6 -2.5q3 0 5.5 2t5.5 2q1 0 1.5 -0.5t0.5 -2.5q0 -3 -2.5 -5t-2.5 -5t2 -4.5t4.5 -2.5t5.5 -1h5h3.5h2.5q1 1 3.5 2.5t4.5 3.5l4 4t2 4v1
q-2 0 -5 0.5t-5.5 2t-4.5 3t-2 4.5zM105 91q0 -2 0.5 -4t2.5 -4q1 0 4 -0.5t6 -1.5t6 -1.5t4 -0.5l1 -0.5t2 -0.5q3 0 3 3.5v5.5t-3 4t-7 3.5t-7.5 3t-5.5 1.5q-3 0 -4.5 -2.5t-1.5 -5.5zM138 84q0 -3 1.5 -4.5t3 -2t3.5 -0.5h5h4.5t4.5 2v2v2q0 5 -3.5 5.5t-8.5 0.5h-6
q-3 -1 -3.5 -2t-0.5 -3zM117 53q0 -3 3 -3h42q0 4 -3.5 5.5t-8 2t-8.5 0t-6 -0.5h-13q-2 0 -4 -1t-2 -3zM148 34h4t3.5 0.5t3 1.5t1.5 4q0 1 -2 2.5t-3 1.5h-38v-5q1 0 3 -0.5t5.5 -1.5t5.5 -1q3 -1 5 -1t3.5 -0.5t3.5 -0.5h5z" />
</svg>
