<?xml version="1.0" standalone="no"?>
<!DOCTYPE svg PUBLIC "-//W3C//DTD SVG 1.1//EN" "http://www.w3.org/Graphics/SVG/1.1/DTD/svg11.dtd" >
<svg xmlns="http://www.w3.org/2000/svg" xmlns:xlink="http://www.w3.org/1999/xlink" version="1.1" viewBox="-10 0 266 256">
   <path fill="currentColor"
d="M82 238q0 5 2 9t6 4t9 -3t10 -7t8.5 -8t3.5 -7l-0.5 -0.5t-1.5 -0.5v0q-4 0 -6.5 2t-5.5 5t-5.5 5t-6.5 2q-5 0 -5 -4l0.5 -0.5l0.5 -0.5q2 -4 5.5 -9.5t5.5 -9.5v-1v-1l-2 -3t-2 -4h-4h-3q-3 0 -5.5 0.5t-5 1.5t-4.5 2t-5 1t-4 -2.5t-1 -5.5t3.5 -5.5t8 -4t9 -2.5
t6.5 -1h8t10 0.5t9 2.5t5 6q-1 3 -3 6t-6 3q-3 0 -5 -2.5t-5 -2.5h-1v0l-0.5 0.5l-1.5 1.5v0q0 3 1.5 5.5t4 3.5t5 1.5t5.5 0.5q7 0 10 -5t3 -11q0 -4 -0.5 -7.5t-5.5 -5.5q-7 -2 -14 -3.5t-14 -1.5q-2 -1 -3 -3l-2 -4t-2.5 -3.5t-3.5 -2.5v-15l-1 -0.5l-1 -0.5q-2 0 -3 1
t-1.5 3l-1 4t-0.5 3q0 2 1 4.5t2 4.5l2 4t1 4t-2 3t-5.5 1.5t-7 1.5t-7 2.5t-5.5 5t-2 9.5v4.5t1 4.5l2 4t3 4h2.5h3.5h3h2q1 -1 3.5 -2t5.5 -2.5t5.5 -2.5t3.5 -2q2 -1 2.5 1t0.5 3q0 4 -2 6.5t-4 4.5t-4 5t-2 6zM139 240q0 5 2.5 8t6.5 3q1 0 4 -1t7 -2.5t9 -3.5t9 -4
t7 -3t3 -2v-1v0l-2 -2t-1 -2q-2 0 -7 1.5t-9.5 3.5l-9 4t-7.5 3q-2 -1 -2.5 -2t-0.5 -3q0 -5 3.5 -8t7.5 -4.5t7.5 -2.5t3.5 -4q0 -4 -2 -7t-5.5 -4t-6.5 -1.5t-6 -0.5q-1 0 -2 -1.5l-1 -1.5q0 -3 2.5 -5.5t5.5 -4t6.5 -2.5t5.5 -1h2v0q1 0 2 0.5l2 1t1.5 1l0.5 0.5
q4 1 7 1.5t5 1.5t3 3.5t1 6.5q0 3 -0.5 5t-4.5 2h-1h-1q0 -1 -1.5 -2t-3 -2.5l-2.5 -2.5l-1.5 -1.5t-1.5 -1l-1 -0.5q-2 0 -3 1.5t-1 2.5v2q4 4 7.5 8.5t10.5 4.5t10 -4.5t3 -12.5q0 -6 -2 -9.5t-5 -5.5t-7 -3t-9 -1l-1.5 -0.5t-1.5 -1.5q-1 -1 -2 -4l-2 -6t-2.5 -6t-3.5 -3
h-10l-0.5 0.5l-1.5 1.5v1q0 1 1.5 2t3 2.5t3 3.5t1.5 4v2v1l-16 7q-1 1 -2 2.5t-1.5 4t-0.5 4.5v3v6l1 2q2 1 5 1.5t5.5 0.5h5h3.5l1 2q-3 4 -7 6t-7.5 4t-6 5.5t-2.5 9.5zM106 161q0 6 4.5 10t10.5 4q4 0 7 -1.5t5 -3.5l5 -5l6 -6l1.5 -0.5t3.5 -1t3.5 -1t1.5 -1.5t-1 -1.5
t-3 -0.5h-3h-2q-4 0 -6.5 2t-5 4.5t-5.5 4.5t-7 2l-2 -0.5t-3.5 -1.5t-2.5 -2.5t-1 -2.5q1 -3 4.5 -4.5t6.5 -3t5.5 -3.5t2.5 -6q0 -3 -2.5 -6t-4.5 -5h-3.5h-3.5q-3 0 -5.5 1t-5 2.5t-5 2t-4.5 0.5q-3 0 -4 -0.5t-1 -2.5q0 -5 3.5 -10t9.5 -5h42q7 0 12.5 4t5.5 12
q0 3 -1 5t-5 2t-7 -2t-5 -4.5t-4 -4.5t-5 -2q0 11 7.5 17t17.5 6q5 0 10 -4t5 -9q0 -9 -3.5 -14.5t-9 -8t-12 -3.5t-12 -1.5t-9 -1t-3.5 -2.5v-0.5v-0.5q1 0 4.5 -2t4.5 -2v0h2h1.5t3 0.5t3 0.5h2.5h0.5h1.5q3 0 6 -0.5t5.5 -2t4.5 -4t2 -6.5q0 -8 -3.5 -12.5t-8.5 -6
t-11 -1.5h-13q-2 -1 -2 -1.5v-1.5q0 -2 1 -3.5t1 -3.5h11q7 0 11.5 -1t7.5 -4.5t3 -10.5t-3.5 -10t-8.5 -4.5t-11 -1.5h-10q-3 -1 -3 -4v-5q0 -3 -1 -5.5t-4 -2.5h-3t-2 2v15l-3 3q-9 0 -17.5 0.5t-17.5 1.5q-4 0 -4 5v1l0.5 1l0.5 1h8q8 0 16.5 -2t16.5 -2l1 0.5t2 1.5v3
q0 5 -3 7t-7 3t-9 1t-9 1t-7 4t-3 9v4.5t1 5t2.5 4t3.5 1.5h29l0.5 3t1.5 5v2q0 1 -5 2t-12.5 3t-16.5 4t-16.5 5t-12.5 6.5t-5 7.5q0 2 1.5 3.5t2.5 1.5q5 -1 8 -3t6 -4.5l6 -5t6 -3.5q6 -3 12.5 -4.5t12.5 -1.5h6t3 3q0 1 -0.5 2.5t-1.5 1.5q-8 1 -14.5 2t-10.5 4t-6 8.5
t-2 15.5q0 4 1.5 5.5t5.5 1.5q3 0 6 -1.5t5.5 -3t5 -2.5t5.5 -1h3.5t1.5 3v1l-3 3l-4 4t-4 5t-2 5zM132 88q0 -4 2 -5.5t4.5 -2t5.5 -0.5h6q2 0 4.5 1.5t3.5 2.5q0 4 -1 6.5t-2.5 3.5t-4.5 1.5t-6 0.5q-6 0 -9 -1t-3 -7zM96 67q0 -3 2.5 -4t6 -1.5t6.5 -0.5h4h7q2 0 2 3v3
q0 2 -0.5 4.5t-4.5 2.5h-18q-2 0 -3.5 -3t-1.5 -4zM132 47q0 -6 3.5 -7.5t8.5 -1.5h3t4.5 0.5t4 1.5t1.5 3v1q-1 0 -1.5 2l-0.5 2l-0.5 1l-0.5 1h-20q-2 0 -2 -1.5v-1.5z" />
</svg>
