<?xml version="1.0" standalone="no"?>
<!DOCTYPE svg PUBLIC "-//W3C//DTD SVG 1.1//EN" "http://www.w3.org/Graphics/SVG/1.1/DTD/svg11.dtd" >
<svg xmlns="http://www.w3.org/2000/svg" xmlns:xlink="http://www.w3.org/1999/xlink" version="1.1" viewBox="-10 0 266 256">
   <path fill="currentColor"
d="M150 236q0 2 0.5 4.5t1 4.5t2.5 3.5t4 1.5q5 0 9 -1.5t7 -4t5.5 -6t6.5 -6.5q1 -1 4 -2t5.5 -1.5t4.5 -1.5t2 -3v-1l-1 -2h-3h-3q-10 0 -17.5 5.5t-12.5 12.5h-2q-2 0 -3 -1.5t-1 -3.5q0 -3 1.5 -5.5t2.5 -4.5q1 -1 3 -4t4.5 -6t5 -5.5t2.5 -3.5v-2q0 -6 -4 -8.5t-9 -2.5
q-3 0 -5 1l-4 2l-4 2t-5 1t-3 -2v-5t1.5 -6t4.5 -5q1 0 3 -1t5 -2t5 -2t3 -1h4q5 0 10 0.5t9 2.5t6.5 5.5t2.5 9.5q0 4 -0.5 5t-4.5 1q-3 0 -4.5 -1t-3 -2.5t-2.5 -3.5t-3 -3l-2 2l1 1.5t2 4t2 4.5q2 4 4 5.5t6 1.5q8 0 12 -3t4 -11t-3.5 -12.5t-8 -7t-11 -3.5t-12.5 -2
q-2 -1 -3 -3.5t-1.5 -5l-1 -5t-0.5 -3.5v0q0 -2 1 -2.5t3 -1t3.5 -0.5h1.5h4t6.5 0.5t6.5 0.5h4h3h5t3 -3q0 -1 -1 -3t-2 -2h-40q-1 0 -1 -1.5v-2.5v-0.5v-0.5q0 -1 0.5 -3l0.5 -2q0 -1 0.5 -3t0.5 -4q0 -3 -0.5 -5t-0.5 -3l3 -3l4 -14q0 -2 -2.5 -4t-4.5 -2q-1 0 -1.5 3
t-2 7t-5.5 7t-12 3h-1v0q-1 -1 -3 -2.5t-3 -1.5l-1.5 -1.5l-0.5 -0.5q3 -4 5.5 -8t6.5 -7t8.5 -3.5t8 -2t6 -4.5t2.5 -11v-6q-4 -4 -8 -6t-7.5 -3.5t-6.5 -4.5t-3 -8h21q4 0 7 3t5.5 7.5t3.5 9t1 7.5v5.5t0.5 11t0.5 13v10.5v1v0q0 3 -0.5 5t-0.5 3.5v3.5v4h3t3.5 -1l3 -2
t1.5 -4v-28l-2 -3v-32l-1 -2t-2 -3l-1 -1l-2 -2t-2 -2.5l-1 -1.5q-3 -3 -7.5 -5t-10.5 -3.5t-12 -2.5t-11 -1.5t-8.5 -0.5t-3.5 -1q1 -2 1 -5t-0.5 -6t-2.5 -5t-6 -2q-2 0 -3 1.5t-1 3.5q0 3 2 6.5t1 6.5q0 1 -1 2t-2 1l-34 4q-1 0 -2 1.5t-3 3.5l-3.5 3.5l-2.5 2.5
q-3 4 -4 9t-1.5 10t-0.5 10v8l-2 20t-1 20v1l1 1l2 2h1q2 0 3.5 -2t2.5 -3q0 -15 1 -31t2 -29q1 -6 4 -10t7 -6.5t9 -4t10 -1.5q2 0 3.5 1.5t1.5 3.5q0 4 -2 5.5t-5 2.5t-6.5 2t-6.5 2.5t-5 5t-2 10.5v3v2q2 3 5.5 5t7 2.5t7.5 1t7 0.5q2 1 3.5 4l3 6t3.5 6t5 5l0.5 0.5
l0.5 0.5l-1 1l-2 1l-2 1q-1 0 -3 -0.5t-4.5 -0.5t-4.5 -0.5t-3 -0.5q-2 0 -3.5 -0.5t-3.5 -1.5t-3.5 -2t-1.5 -2q-1 -2 -1 -5q0 -2 -0.5 -3.5t-1.5 -2.5t-5 -1v21t-1 20q0 1 -1 3.5t-3 2.5h-1q-1 0 -5.5 -0.5t-9.5 -0.5t-9.5 -0.5t-5.5 -0.5h-1q-3 0 -3.5 2t-0.5 4
q0 3 1.5 4t3.5 1h3l2.5 -0.5t5 -0.5t4.5 -0.5t3 -0.5h1q6 0 7 3t1 8t-2.5 8.5t-6.5 5.5t-8.5 4t-8.5 4.5t-6.5 6t-2.5 9.5q0 3 0.5 6t2 6t4 4.5t5.5 1.5q4 0 7.5 -2t6.5 -4.5l6 -5t6 -2.5q2 0 2.5 1t0.5 3q-1 4 -4 7.5l-6 7t-5 7t-2 8.5t1.5 9.5t7.5 4.5q7 0 11 -2.5t6.5 -6
t4.5 -7.5t6 -9q3 -4 6 -6.5t3 -7.5q-7 0 -11 4.5t-7 10t-6 10t-8 4.5q-3 0 -4 -1.5t-1 -3.5q0 -5 2.5 -8.5t5.5 -7t5.5 -7.5t2.5 -8t-3 -7.5t-6 -3.5q-4 0 -7 2t-5.5 5t-5.5 5t-7 2q-3 0 -5 -3.5t-2 -6.5q0 -4 4.5 -8t11 -7t13.5 -5t11 -2q3 0 7 0.5t8 2.5t7 4.5t3 6.5
q0 1 -0.5 3t-1.5 3.5t-2.5 2.5t-2.5 1q-3 0 -5 -1.5t-3.5 -3.5t-2.5 -5t-2 -5h-4q0 3 0.5 7t2.5 7.5t4.5 6t6.5 2.5q8 0 12.5 -3t4.5 -11t-2.5 -12t-7 -6.5t-9.5 -3.5t-9 -3t-6.5 -5t-2.5 -10v-1l1 -1.5l1 -1.5h35q2 -1 5.5 -1t7 -0.5t6 0t4.5 0.5h6h4l2 1v18q0 3 -4.5 5
t-9.5 5t-9 7.5t-4 12.5q0 4 1.5 6t4.5 4h2.5h3.5q4 0 6 -1t3.5 -2.5t3.5 -3t4 -1.5t3.5 1t1.5 3q0 4 -2.5 8t-4.5 7q-1 0 -2.5 2.5t-3.5 5t-3.5 4.5t-2.5 3v2v2zM97 139v-6v-8t2 -9l12 2q2 0 2.5 1.5t0.5 3.5v3l-0.5 2t-0.5 4t-0.5 4t-0.5 3q-1 0 -2.5 0.5t-3.5 0.5
t-3.5 0.5t-2.5 0.5h-1v0q-1 -1 -1.5 -1t-0.5 -1zM157 118v5.5v6.5t-0.5 6t-0.5 5h-2h-2t-3 -0.5t-3 -1t-1 -1.5v-17q0 -1 2 -2t4 -1h4h2zM121 138v-3.5v-3.5q0 -5 1.5 -9t7.5 -4h1h2t2 0.5l1 0.5v17q0 2 -1 2.5t-2 0.5h-2h-2h-4t-4 -1zM115 69q0 6 -2 8.5t-8 2.5
q-1 0 -4.5 -0.5t-3.5 -2.5v-12q0 -1 2.5 -2l2.5 -1q4 -1 9 -1.5t10 0.5l3 -4v-16l1.5 -0.5t3.5 -0.5h4t3 -1h1q4 0 5 3q1 9 2.5 13t4 5.5t5.5 1.5t5.5 0.5t4 1.5t1.5 5q0 6 -4 9.5t-10 3.5q-3 0 -4 -2t-1 -4.5t0.5 -5t0.5 -4.5q-1 0 -2.5 -1t-2.5 -1q0 -1 -1 -0.5l-1 0.5
v8.5t-0.5 11t-2 10.5t-5.5 7q-4 -3 -5.5 -8t-3 -10.5t-3 -9.5t-5.5 -4z" />
</svg>
