<?xml version="1.0" standalone="no"?>
<!DOCTYPE svg PUBLIC "-//W3C//DTD SVG 1.1//EN" "http://www.w3.org/Graphics/SVG/1.1/DTD/svg11.dtd" >
<svg xmlns="http://www.w3.org/2000/svg" xmlns:xlink="http://www.w3.org/1999/xlink" version="1.1" viewBox="-10 0 266 256">
   <path fill="currentColor"
d="M125 248q1 0 2 0.5t2 0.5q2 0 3.5 -1t2.5 -3t1 -4v-4v-2v-3v-2v-2l-0.5 -3.5t-0.5 -7t-0.5 -7t-0.5 -4.5q0 -2 0.5 -6t0.5 -9t0.5 -9t0.5 -6q1 -1 3.5 -1.5t5 -0.5h5h3.5t4.5 0.5l3.5 0.5l2 1v12q-2 1 -6 2t-7.5 2.5t-6.5 4t-3 5.5q0 5 2 9t7 4q4 0 7.5 -1.5t7.5 -1.5
q2 0 2.5 0.5t0.5 4.5q0 2 -2 4t-4 4.5l-4 5t-2 7.5t3 6t8 1q7 0 10 -2t5 -5t4 -7t6 -8q1 -1 3 -2t3.5 -2l3 -2t1.5 -4q-7 0 -11.5 2.5t-7.5 6t-6.5 7.5t-7.5 8q-1 0 -1.5 0.5l-0.5 0.5q-2 0 -3 -1.5t-1 -3.5q0 -3 1.5 -5t4 -4t4.5 -4t2 -5q0 -5 -3 -7t-8 -2q-3 0 -6 1t-6 1
t-3.5 -1t-0.5 -3q0 -4 5 -6.5t11.5 -4t13 -2t8.5 -0.5t4.5 1t2.5 4q0 2 -1.5 4t-4.5 2q-2 0 -4.5 -1t-4.5 -1h-1l-0.5 0.5t-0.5 1.5q3 3 6 4.5t7 1.5q1 0 4 -0.5t5.5 -1t4 -2t1.5 -4.5q0 -1 -1 -3.5l-2 -5t-3 -4.5t-4 -2h-22q-1 0 -1.5 -1.5t-0.5 -2.5v-2q0 -1 1.5 -2.5
t3 -2.5t3 -1.5t2.5 -0.5l0.5 -1l0.5 -1q0 -2 -0.5 -3t-3.5 -1h-37q-3 0 -3.5 -3t-0.5 -5v-2t1 -2h43q2 0 2 -1v-2v-2t-2 -1h-43l-0.5 -0.5l-0.5 -0.5v-1v-1q4 -3 6.5 -7t4.5 -7.5t4.5 -7t6.5 -6.5v-2q0 -2 -1.5 -2.5t-3.5 -0.5q-5 0 -7.5 3.5t-4.5 8t-4.5 8t-8.5 3.5
q-3 0 -6 -2.5t-3 -6.5q0 -1 1.5 -4.5t3.5 -6.5t4.5 -5.5t4.5 -3.5h20h20q3 0 6 0.5t5 1t3 2.5t1 5q0 4 -1 7.5t-1 6.5t0.5 4t2.5 1q4 0 5.5 -2.5t2.5 -6t1.5 -7t0.5 -5.5q0 -8 -5.5 -11t-13 -4.5t-15.5 -1t-12 0.5t-7.5 1t-7.5 1t-7.5 -2.5t-7.5 -2.5v0l-2.5 2.5l-2.5 2.5
q-2 0 -4 -2.5t-3.5 -6l-3 -7t-1.5 -5.5t0.5 -4l1 -4t0.5 -4v-5q3 -2 7.5 -1.5t8.5 0.5v24q0 2 3 4.5t5 2.5q3 0 3.5 -1t0.5 -3q0 -4 -2.5 -6.5t-2.5 -6.5q0 -1 0.5 -3.5t0.5 -5t1 -5l1 -2.5h3t4 -0.5t4 -0.5h3h1.5h2.5q0 6 -0.5 11t-0.5 11q0 2 0.5 4.5t2 4.5t3.5 3.5t5 1.5
t3.5 -1t0.5 -4q0 -2 -1 -4t-1.5 -4t-1.5 -4t-1 -4v-3v-2l1 -1t1 -2l-1 -2l-1 -2v-1v-1v-1.5v-1.5q7 -1 10.5 -2t5.5 -3.5t3 -6.5t1 -11q0 -1 -0.5 -4.5t-0.5 -4.5q0 -2 -1.5 -4.5t-3.5 -2.5t-3 2t-1.5 4.5t-1.5 4t-4 1.5h-30v-13l-1 -0.5t-1 -1.5q-2 -1 -2.5 -1h-1.5
q-4 0 -4.5 2.5t-0.5 6t-0.5 6.5t-3.5 3l-41 3v3v2q0 2 2 2q1 0 2.5 0.5t3.5 0.5h3h2q7 0 13 -1t12 -1h3h3q2 1 2 2v2q0 6 -5.5 8t-13 2.5t-14.5 0.5t-11 1v1v1q0 2 2 3t4 1h2h1t2 -0.5t2 -0.5h2h1v0q1 0 1.5 0.5l0.5 0.5v27q0 3 1.5 5t1.5 5v0.5v0.5l-13 1q-1 -3 -1 -7
t-1.5 -7t-3.5 -5.5t-6 -2.5h-3.5t-1.5 2v1l1 2t2 2v15q0 1 -3.5 1.5t-7.5 0.5t-7.5 1t-3.5 4v1l1 2t2 2h18l1 2l-1 3t-2 5t-2.5 4.5t-3 4.5t-2.5 4t-1 3q0 2 1.5 2.5t2.5 0.5q6 0 8.5 -4.5t4 -10.5t3 -11t6.5 -7q6 -1 10.5 -1.5t10.5 -0.5h6q2 1 2 2.5v2.5q0 2 -1 4t-2 3.5
t-2 3.5t-1 4q0 8 2 11t4.5 4t4.5 1.5t2 4.5v1t-1 1l-25 -1q-1 0 -1.5 -2.5t-1.5 -5l-2 -5t-4 -2.5l-0.5 0.5l-0.5 0.5v27q0 1 -1 1.5t-2.5 1l-3 1t-1.5 1.5q1 8 -1 12.5t-5 6t-6.5 2.5t-7 3t-5.5 5.5t-2 10.5q0 5 1.5 8.5t7.5 3.5q3 0 6 -1t5.5 -2.5t5.5 -2.5t6 -1
q0 4 -1.5 6.5t-3.5 5l-4 5t-2 6.5q0 5 4 8t9 3q4 0 7 -2.5t5 -5.5l4 -6t5 -6q1 0 3.5 -1.5t2.5 -2.5l0.5 -2.5l0.5 -2.5q-5 0 -9 3t-7 6.5t-5.5 6.5t-5.5 3q-2 0 -2 -1.5v-2.5q0 -3 1 -5.5t2.5 -5l3 -5t2.5 -4.5q1 -3 -0.5 -4.5t-3.5 -2.5t-4.5 -1h-3.5q-5 0 -8.5 2.5
t-7.5 2.5q-2 0 -2 -2v-4t3.5 -5t7.5 -5t8.5 -3.5t6.5 -1.5q3 0 6 0.5t6 1.5t5 3t2 5q0 5 -3.5 6t-8.5 2l1 3h14q1 0 2 -1.5l2 -3t1.5 -3.5t0.5 -3q-1 -5 -4.5 -8t-8 -4.5t-9 -2.5t-8.5 -1v-3v-4t2 -2h1l2.5 0.5t3.5 0.5h1q3 0 7 0.5t8 0.5t6.5 0.5l2.5 0.5l3 3v14
q0 13 -1 25.5t-1 26.5v4zM97 158v-3h4t6.5 -0.5t6.5 -0.5h4h4q2 0 4.5 1t2.5 4q0 4 -2.5 6.5t-5.5 2.5t-7 -0.5t-7.5 -1t-6.5 -2.5t-3 -6zM133 44v-4t3 -3q7 0 14 -0.5t13 -0.5q3 0 5 0.5t2 3.5t-3.5 5t-8.5 3t-10 1.5t-7 0.5h-2.5h-2.5q-3 -2 -3 -3.5v-2.5z" />
</svg>
