<?xml version="1.0" standalone="no"?>
<!DOCTYPE svg PUBLIC "-//W3C//DTD SVG 1.1//EN" "http://www.w3.org/Graphics/SVG/1.1/DTD/svg11.dtd" >
<svg xmlns="http://www.w3.org/2000/svg" xmlns:xlink="http://www.w3.org/1999/xlink" version="1.1" viewBox="-10 0 266 256">
   <path fill="currentColor"
d="M109 247q0 2 2 3t4 1q4 0 9 -4t9.5 -11t9 -15t8 -15.5t6.5 -14t4 -9.5v0q0 -7 -2 -11t-4.5 -7t-6 -5t-6.5 -5t-5 -6.5t-2 -9.5q0 -7 3 -10t11 -3q6 -1 11 -1t10 -0.5l10 -1t10 -2.5l0.5 -0.5t0.5 -1.5h1q0 -3 -2 -3.5t-4 -0.5h-3q-1 0 -5.5 0.5l-9 1t-8.5 1t-5 0.5h-5h-4
h-3t-5 1l-67 3q-1 0 -1 2v3q0 3 2.5 4t5.5 1q10 0 21 -2.5t22 -2.5h2t2 2q2 11 2.5 16.5t2 9t5.5 7t14 9.5v3.5v3.5q0 7 -2.5 14t-6 13t-8 12t-7.5 12q-1 0 -1.5 1.5t-1.5 3t-2 2.5t-1 2q-1 1 -3 2t-3.5 2t-2.5 2.5t-1 3.5zM52 100v3q0 1 1 2h9h8l1 -0.5t2.5 -0.5t2.5 -0.5
t2 -0.5q29 -3 59 -5t59 -1q3 1 4.5 0.5t2.5 -2.5t1.5 -4t0.5 -3q-8 0 -15 1t-15 1l-1.5 -0.5t-1.5 -1.5v-24l-3 -3l-6 6v22h-14v-28q0 -1 1 -2.5t2 -2.5q3 0 7.5 -0.5t8.5 -1t7.5 -2.5t5.5 -5q-1 -7 0.5 -13t1.5 -13v-8q-1 -1 -3 -1h-2q-4 0 -5 2.5t-1 6t0.5 8t-1 8.5
t-5.5 7t-12 4h-5q-4 0 -8 0.5t-7 0.5h-5h-6t-8 -0.5t-7 -0.5h-3h-6.5t-5.5 -3q-3 -4 -3 -10t-1 -11t-3.5 -9t-9.5 -4q0 7 0.5 11t1 7.5t1.5 7.5t3 10q1 4 4 6t6.5 2.5t7.5 0.5h6l5 5v27q0 3 -3 4.5t-6 1.5h-4.5t-4.5 -1v-4.5v-4.5v-6v-4t-0.5 -2.5t-1.5 -3t-2 -2.5t-2 -1
t-2.5 1t-2.5 2v3v3q0 4 1 8.5t1 9.5v1q-1 0 -1.5 0.5l-0.5 0.5h-29q-1 0 -1 1v2v2v1zM119 69v-3t0.5 -3.5t1.5 -3t2 -1.5l14 -2q2 0 3 1t1.5 2.5t0.5 3.5v2q0 2 -0.5 6t-0.5 8.5t-1 8t-3 3.5h-15l-2 -2v-3t-0.5 -7.5t-0.5 -7.5v-2zM95 26q0 3 2.5 3.5t4.5 0.5h3q3 0 11 -0.5
t17 -1t17 -1t11 -0.5l3 -3v-1v0l-3 -3h-10q-13 0 -26 1t-26 0q-2 1 -3 2.5t-1 2.5z" />
</svg>
