<?xml version="1.0" standalone="no"?>
<!DOCTYPE svg PUBLIC "-//W3C//DTD SVG 1.1//EN" "http://www.w3.org/Graphics/SVG/1.1/DTD/svg11.dtd" >
<svg xmlns="http://www.w3.org/2000/svg" xmlns:xlink="http://www.w3.org/1999/xlink" version="1.1" viewBox="-10 0 266 256">
   <path fill="currentColor"
d="M149 248q0 2 1.5 2.5t3.5 0.5q4 0 8.5 -7t8 -18.5t7 -25t6 -26t3.5 -22.5t1 -15q0 -2 0.5 -5t0 -6.5t-1 -6.5t-2.5 -5q-2 -4 -6 -6t-7 -4t-5.5 -5t-2.5 -8t2 -7.5t7 -2.5q2 0 7 -0.5t10.5 -0.5t10.5 -0.5t7 -0.5t2.5 -0.5t0.5 -2.5t-2 -4h-9q-14 0 -28.5 1t-28.5 2h-5
t-6 0.5t-5 2t-2 4.5h27l3 3v3t0.5 4t0.5 4t1 3q0 1 0.5 3.5l0.5 2.5q3 4 5.5 6t5 3t4 2t2.5 3.5t2 6.5t1 13q0 7 -0.5 14.5t-2 15.5t-4 15.5t-5.5 13.5q-1 2 -1.5 5.5t-1.5 8t-2 8.5t-2 5q0 1 -1.5 4.5t-3.5 7t-3.5 7t-1.5 4.5zM75 140q0 9 0.5 19.5t1.5 19.5q0 2 1.5 8
t4.5 13.5t6 16.5t7 16t7.5 11.5t6.5 4.5t4 -2t1 -5t-2 -6t-5 -6.5t-5.5 -7t-3.5 -6.5v-1.5v-3.5t-0.5 -3.5l-0.5 -1.5q-1 -6 -4 -11t-5 -10t-4 -10.5t-2 -11.5v-3v-2q9 -5 13.5 -13.5t6 -19t1 -21t-1.5 -19.5q1 -1 2 -2.5t3 -1.5q4 0 6 3v4v6.5v6.5v5q0 16 -2.5 30.5
t-5.5 29.5v4v3q5 0 7 -2.5t4 -7.5q1 -16 3.5 -31.5t2.5 -31.5v-16q-3 -5 -6.5 -8t-8.5 -3q-4 0 -7 2.5t-3 6.5v43q0 2 -1 5t-2 7t-3 6.5t-5 2.5t-3 -4v-2v-4v-4v-2q0 -7 1 -13t2 -11.5t2 -11.5t1 -12v-3.5v-3.5q-1 -3 -4.5 -4t-6.5 -1q-5 0 -9 3t-6.5 7.5t-4.5 10t-2 9.5
q-1 5 -0.5 7.5t-1.5 6.5q0 6 -0.5 11t-0.5 9.5v9.5v10v11.5t1 11.5h1.5h1.5q2 0 3 -1t2 -3v-8.5v-12.5v-12v-8q0 -1 0.5 -5.5t0.5 -9.5t1 -9.5t1 -7.5q0 -2 1 -5.5t3 -7.5t4.5 -6.5t4.5 -2.5t3.5 1t1.5 3q0 7 -1 14t-2.5 14t-3 14.5t-1.5 15.5zM45 61v3t2 2q5 0 10 -3t10 -7
t10.5 -7t12.5 -3t12.5 3t10 6.5t8 6t5.5 2.5t3 -1.5t1 -3.5q0 -6 -6 -9t-13 -5.5t-13 -5t-6 -6.5v-18q0 -1 -1 -2t-2 -1h-1h-1q-1 0 -2.5 2l-1.5 2v21q0 2 -3 3.5t-7 3t-8 2.5t-5 2q-2 1 -4.5 2.5l-5 3t-4 3t-1.5 4.5zM141 49q0 3 1.5 3h3.5q13 0 26.5 -1t26.5 0
q2 -1 2.5 -2t0.5 -3q0 -3 -2 -3h-4h-5q-2 0 -8 0.5t-13 0.5t-13 0.5t-8 0.5t-5 0.5t-3 3.5z" />
</svg>
