<?xml version="1.0" standalone="no"?>
<!DOCTYPE svg PUBLIC "-//W3C//DTD SVG 1.1//EN" "http://www.w3.org/Graphics/SVG/1.1/DTD/svg11.dtd" >
<svg xmlns="http://www.w3.org/2000/svg" xmlns:xlink="http://www.w3.org/1999/xlink" version="1.1" viewBox="-10 0 266 256">
   <path fill="currentColor"
d="M64 233q4 0 8 -7t7.5 -15t6.5 -16t5 -11q0 -1 1 -3.5t2 -2.5q0 -1 1 -2.5l2 -3t2 -2.5l1 -1h4l1 1t1.5 2.5t1.5 3.5t1 3q4 10 8 18.5t9.5 16.5t12 15t16.5 13q3 2 6.5 2t6.5 2q1 1 3.5 2.5t2.5 2.5h2h2q3 0 5 -1t2 -5q0 -2 -1.5 -3.5t-4 -2t-4.5 -0.5t-4 -1
q-9 -3 -14.5 -8.5l-12.5 -12.5q-1 -1 -2.5 -1.5t-3 -1.5t-2.5 -2.5t-1 -3.5t1.5 -4t4 -4.5t5 -4.5t2.5 -4q1 0 1 -1t0.5 -3t0.5 -3v-2l1 -1.5t1.5 -3t1 -2.5t1.5 -2h0.5h0.5q3 0 6.5 3.5t7.5 9t7 11.5t6.5 11t6.5 8.5t6 3.5q2 0 2.5 -3t0.5 -4v-2v-1q-4 -8 -10 -15.5
t-13 -13.5q1 -2 -2 -5t-7 -6t-8 -5.5t-5 -2.5q-3 0 -5 3t-3.5 7t-3 8.5l-3 9t-4 7t-5.5 2.5q-4 0 -6 -3t-3.5 -7.5t-2 -10t-2.5 -10t-4.5 -7.5t-8.5 -3q-4 0 -8.5 3.5t-9 9t-8 13t-6.5 14t-5.5 12.5t-3.5 9l-1.5 2l-1.5 2q0 2 1 5.5t2 4.5h2zM147 137q0 2 2 3t4 1q1 0 3 1
t5 1.5t5.5 1.5t3.5 1q2 1 4.5 2t5 2.5t5 2t4.5 0.5q7 0 7 -6l-0.5 -1t-1.5 -2q-5 -1 -10.5 -2.5l-11 -3l-11 -3t-10.5 -1.5q-2 0 -3 0.5t-1 2.5zM65 147q0 1 0.5 2t1.5 1l1.5 0.5l1.5 0.5q1 0 4.5 -1t8.5 -2.5t10.5 -3.5t10 -3.5t7.5 -3t4 -2.5q1 0 1 -2v-3q-2 0 -6.5 1
t-10.5 2t-12 3t-11 4t-8 4t-3 3zM84 96l0.5 1.5t1.5 1.5h37l0.5 0.5l0.5 0.5q1 1 1.5 2.5t0.5 2.5v42q0 1 1 2t2 1t2.5 -1t3 -2.5t2.5 -3t1 -2.5l-0.5 -1.5t-0.5 -3t-0.5 -3l-0.5 -1.5v-2v-5v-6v-4v-4v-5v-5v-4q1 -2 4.5 -2t8 -2t7.5 -7t3 -16q0 -9 -3 -12t-12 -5
q-6 -1 -10 -1.5t-7.5 -1t-7.5 -0.5h-8h-10q-2 0 -2.5 1t-0.5 2q0 2 7.5 3.5t16.5 2.5t17.5 2t12.5 3v2v3q0 3 -0.5 6.5t-2 6.5t-4 4.5t-5.5 1.5q-2 0 -3 -2t-2.5 -4.5t-3 -5.5t-4.5 -5q-4 0 -7.5 -0.5t-6.5 -0.5h-6h-6h-9l-0.5 1t-0.5 2l0.5 0.5l0.5 0.5l1.5 0.5t3.5 0.5
t3.5 0.5t2.5 0.5h4t6.5 0.5t6.5 0.5h4q2 1 2 3.5v2.5v2q0 2 -0.5 3.5l-1 3t-1.5 1.5h-37q-1 0 -1.5 1t-0.5 2zM148 111q1 1 7 3.5t13.5 4.5t13.5 4t8 2t4 -1t2 -3v-1l-0.5 -0.5l-1.5 -1.5q-9 -4 -20.5 -6.5t-21.5 -2.5v0q-1 0 -2 0.5t-2 1.5zM68 120q0 3 1.5 3h4.5
q2 0 8.5 -1t13.5 -2.5t12.5 -3.5t6.5 -4q-1 -2 -2.5 -2.5t-3.5 -0.5q-1 0 -3 0.5t-3 1.5q-2 0 -5.5 0.5t-8 1.5t-8.5 1.5t-5 0.5q-2 1 -5 2t-3 3zM54 57l0.5 2t1.5 2q5 0 10.5 -2.5t10.5 -5.5t10 -6.5t10 -5.5q6 -3 16 -6t17 -3q9 0 17.5 3t16.5 7t16.5 7.5t17.5 3.5
q2 0 3 -0.5t1 -3.5q0 -2 -5.5 -4.5t-13 -5l-16.5 -5.5t-17 -5.5t-13 -4.5t-5 -3l0.5 -3l0.5 -3q0 -3 -2.5 -6t-6.5 -3q-2 0 -2.5 1t-0.5 3q0 3 1 6t1 6v2t-2 2q-11 3 -21.5 6.5t-20.5 9.5q-1 1 -3.5 2t-3.5 1q-2 1 -5 1.5t-6 1.5t-5 3t-2 6z" />
</svg>
