<?xml version="1.0" standalone="no"?>
<!DOCTYPE svg PUBLIC "-//W3C//DTD SVG 1.1//EN" "http://www.w3.org/Graphics/SVG/1.1/DTD/svg11.dtd" >
<svg xmlns="http://www.w3.org/2000/svg" xmlns:xlink="http://www.w3.org/1999/xlink" version="1.1" viewBox="-10 0 266 256">
   <path fill="currentColor"
d="M78 149v21.5t3 21.5q1 2 2 7t3.5 11.5t5 13.5t5.5 13t6 10t6 4q2 0 2.5 -1.5t0.5 -3.5q0 -5 -3.5 -8.5t-5.5 -7.5q-5 -9 -9 -21.5t-4 -23.5q0 -2 2 -5.5t4.5 -7t4.5 -8t2 -7.5v-55l0.5 -1.5l0.5 -1.5q1 -1 2 -2.5t2 -1.5l1 0.5l1 0.5q2 2 3 5.5t1.5 8.5t1 10.5t0.5 11
t0.5 10t1.5 5.5v29q0 2 1 2h2q2 0 3.5 -2t2 -4t1 -4.5t0.5 -4.5q0 -3 -0.5 -7t-1 -9t-1 -9.5t-0.5 -7.5q0 -2 -1 -7.5l-2 -11l-2 -11t-1 -7.5l-4.5 -4.5t-5.5 -2.5q-4 0 -7 3.5t-5 6.5q-1 18 -0.5 35.5t-2.5 34.5q-1 3 -2 4t-3 1q-1 0 -2 -0.5t-1 -1.5v-38q1 -5 2.5 -12
t1.5 -13v-5.5t-1.5 -6.5t-3.5 -5t-6 -2q-6 0 -9.5 2.5t-6 6t-4 8t-3.5 8.5l-2 28q-1 1 -2 4.5t-1 8t-0.5 9t-0.5 5.5q0 3 1 5t4 2t4 -3t1.5 -10t1 -14.5t1 -14.5t1.5 -10q0 -2 1 -6.5t2.5 -9t3.5 -7.5t6 -3q6 0 6.5 3t0.5 10q0 4 -1 9l-2 10l-2 10t-1 11zM136 189h31
q1 0 3 4.5t4.5 11t5.5 14t5.5 14t5.5 11t5 4.5q3 0 3 -4q0 -3 -1 -5.5t-2.5 -5.5t-3.5 -5t-3 -5q-2 -5 -3.5 -10.5t-3.5 -9.5t-3.5 -5.5t-1.5 -5.5t3.5 -5.5t7.5 -2.5t7.5 -3t3.5 -8q0 -2 -0.5 -5.5l-1 -7t-1 -6.5t-1.5 -5q0 -1 -0.5 -1.5t-1.5 -0.5v0q-2 0 -3 1.5t-1 4
t-0.5 4.5t-0.5 3q-1 0 -3 0.5t-4 0.5t-4 0.5t-3 0.5v0q-2 0 -3 -1.5t-1 -3.5v-4v-4v-2t2 -1l16 -3l1 -2.5t1.5 -5.5t1 -5.5t0.5 -4.5q0 -4 -3 -6.5t-7 -4t-8.5 -2t-7.5 -0.5q-11 0 -18 5t-7 15q0 6 1.5 8t4.5 2.5t6 0.5t5.5 1.5t4.5 4.5t2 10q0 1 -0.5 2.5l-0.5 1.5l-3 2
h-24l0.5 2t0.5 2.5t0.5 1t1.5 0.5h21q3 0 3.5 1.5t1 3.5t0 4t-0.5 3h-24q-2 0 -3.5 2.5t-1.5 3.5zM173 174q0 -3 3.5 -4.5t6.5 -1.5q6 0 6 7v1l-12 3q-2 1 -3 -1.5t-1 -3.5zM147 135q0 -5 2 -8t5.5 -4.5t8 -1.5h9.5h2h4t3.5 1t1.5 2v12l-3 3h-26l-2 -0.5t-2 -1.5
q-1 0 -2 -0.5l-1 -0.5v-1zM142 92q0 5 2.5 7t6.5 2.5t8 0.5h7h6.5t8.5 -1t6.5 -3t2.5 -5q0 -9 -0.5 -13.5t-3.5 -6t-7.5 -1.5h-12.5q-11 0 -17.5 4.5t-6.5 15.5zM148 91q0 -5 3 -7.5t7 -3.5t8.5 -1h7.5h6l2 1v12l-3 3h-25q-1 0 -3.5 -1t-2.5 -3zM49 73q0 2 0.5 3t2.5 1
q3 0 4 -1l24 -23l4 -4t4 -1q4 0 7 2l6 4l17 16h0.5h1.5q4 0 4 -4t-5 -8.5t-11.5 -8.5t-11.5 -6.5l-5 -2.5v-25q0 -1 -1.5 -2.5l-2.5 -2.5h-1q-2 0 -2.5 1.5t-0.5 3.5v3v3.5t0.5 5.5t0.5 5.5v3.5q-1 4 -6.5 9t-12 9.5t-11.5 9.5t-5 9zM127 64q0 3 4 3l2.5 -0.5t2.5 -1.5
q1 0 3 -1.5t3.5 -3.5t3 -3.5l2.5 -2.5t3.5 -2.5t5 -3.5t5.5 -3t4 -1q5 0 9.5 2.5t8.5 6t8 6t8 2.5q2 0 3.5 -1.5t1.5 -3.5v-1q-1 -1 -4 -3t-7 -4t-8.5 -4t-8 -4t-6 -3.5l-2.5 -1.5v-20q0 -1 -1.5 -3.5l-1.5 -2.5h-1v0q-2 0 -4 0.5t-3 2.5v6v7l1 2.5t1 3.5q0 4 -4 8.5t-9 8.5
t-10.5 7.5t-8.5 7.5l-0.5 0.5z" />
</svg>
