<?xml version="1.0" standalone="no"?>
<!DOCTYPE svg PUBLIC "-//W3C//DTD SVG 1.1//EN" "http://www.w3.org/Graphics/SVG/1.1/DTD/svg11.dtd" >
<svg xmlns="http://www.w3.org/2000/svg" xmlns:xlink="http://www.w3.org/1999/xlink" version="1.1" viewBox="-10 0 266 256">
   <path fill="currentColor"
d="M163 145q3 0 5 1.5t2.5 4t1 5.5t0.5 6v24t1 24q1 9 4 16.5t8 15.5l1 1.5t1.5 3t2 3t2.5 1.5q2 0 4 -1.5t3 -3.5q-2 -2 -6 -4t-5 -5q-4 -9 -6 -21.5t-2.5 -26t-0.5 -26.5v-22l-1 -2h-3.5h-8t-9.5 -0.5t-8 -0.5h-5h-6q0 2 2 3l4 2t3.5 2t1.5 4q0 8 -1 16t-1 16v14
q0 2 0.5 7.5t1.5 11.5t1 11t1 8q-1 2 0.5 3.5t3.5 1.5v-68q0 -1 -0.5 -4.5t-0.5 -5.5q0 -6 1 -10.5t8 -4.5zM114 224q0 6 0.5 12t6.5 10q1 -1 1 -2v-2q0 -4 -0.5 -8t-0.5 -7q0 -15 1.5 -29.5t1.5 -28.5v-4v-4q0 -3 -0.5 -5t-0.5 -3q1 -5 -2 -7t-7 -2.5l-8 -1t-7 -1.5
q-4 -2 -5.5 -3.5t-6.5 -1.5q0 2 1.5 3.5t3.5 3l4 3t3 2.5q-1 9 -2 19t-1.5 19.5t-0.5 19v18.5l-0.5 2t-1 4.5t-1 4t-0.5 2.5v1q0 1 1 1.5t2 0.5q2 0 3 -1.5t1 -2.5q2 -11 3 -21t1.5 -20.5l1 -21t2.5 -20.5q0 -1 1.5 -2l1.5 -1h1q3 0 4 2t1 5v2q0 2 -0.5 11t-0.5 19t-0.5 19
t-0.5 11v5zM74 103l1.5 0.5t1.5 1.5v31q0 1 0.5 2l0.5 1l0.5 0.5l0.5 0.5l0.5 -0.5l0.5 -0.5q1 0 2.5 -1t1.5 -2v-32q3 0 5 2.5t3.5 6t2.5 7t2 6.5v0v0h0.5h0.5l0.5 -0.5t0.5 -1.5q0 -5 -0.5 -10t-2 -9t-4 -7.5t-6.5 -7.5v-2q8 -4 10 -12t2 -16q-4 0 -5 3.5t-1.5 7.5t-1.5 7
t-4 3q-2 0 -2.5 -0.5t-0.5 -2.5v-21q0 -1 -0.5 -1.5t-1.5 -0.5v0h-1q-1 0 -1.5 0.5t-0.5 1.5v23q-5 0 -7 -3t-3 -6.5t-2 -6.5t-4 -3v0v0l-0.5 1.5t-1.5 1.5v0.5v0.5q0 8 1.5 11t4 5t5.5 3.5t6 5.5q-3 3 -6 4.5t-5 4.5q-4 5 -7 13.5t-3 15.5q0 1 0.5 1.5t1.5 0.5q3 0 4.5 -4
t3 -9t3 -9.5t5.5 -4.5zM105 86q0 4 0.5 5.5t2 2.5t3.5 2t5 3q4 2 4.5 7t0.5 10.5t-0.5 11.5t1.5 10q2 -1 2.5 -4t0.5 -4l0.5 -2t0.5 -4v-3.5v-2.5t0.5 -3t0.5 -5t-0.5 -5t-0.5 -3q1 -1 2.5 -2t2.5 -1q6 0 6 5q0 4 -1 6t-3 5q0 1 0.5 2l0.5 1h1q2 0 4 -1.5t3 -4.5t2 -5.5
t1 -4.5q0 -5 -3.5 -6l-7 -2t-6.5 -2.5t-3 -6.5v-1q0 -1 0.5 -5t0.5 -6q5 0 8.5 -1t6 -3t3.5 -5t1 -8q0 -3 -2 -4.5t-4.5 -2.5t-5.5 -1h-5q-1 -2 -1 -4t-0.5 -4t-1.5 -3.5t-2 -1.5q-2 0 -2.5 1t-0.5 3q0 1 0.5 2.5l0.5 1.5q-1 2 -3 3.5t-2 3.5v1l1.5 0.5l1.5 0.5v21
q-5 2 -9.5 4.5t-4.5 8.5zM170 122v3v2l2 2q2 -1 3.5 -5t2 -9t1 -9.5t0.5 -6.5q5 0 7 4t3 8.5t3 8t7 3.5q0 -9 -3 -17t-9 -15q-1 -1 -2 -1.5t-2.5 -1t-2.5 -1.5t-1 -2q0 -3 2.5 -5l5 -4t4.5 -6t2 -12q-3 0 -4 2t-2 4.5l-2 5t-4 2.5h-2t-1 -2v-19q0 -2 1 -2h2q3 0 6.5 1.5
t7.5 1.5h3t2 -2l-6 -3t-13 -6l-14 -6t-9 -4q-4 -2 -8.5 -5.5t-9 -6.5t-9 -5.5t-8.5 -2.5h-1t-1 1l-26 24q-4 -1 -7.5 0.5t-7 4t-7 4.5t-7.5 3h-1.5t-3 0.5t-2.5 0.5h-2q-1 1 -1 2v2q6 0 12 -1t12 -3t11.5 -4.5t10.5 -6.5q2 -1 5 -3.5t6.5 -5.5t6.5 -5t6 -2v0q1 0 3 0.5
t2 1.5l38 19l4 5v3.5t-0.5 5t-0.5 5.5v4v1.5v2.5t-0.5 2t-2.5 1q-3 0 -4 -2t-1.5 -4.5t-1.5 -4.5t-4 -2v2v1v4.5t1 4.5l14 13v1v0.5v0.5l-0.5 0.5l-0.5 0.5q-1 1 -3 2t-4 2.5l-4 3t-3 1.5q-2 5 -3 10t-1 9v1l1 1l2 2v0q2 0 3 -3.5t1.5 -8t1.5 -8t4 -3.5t4 2t1 5q0 4 -1 8.5
t-1 9.5zM114 84q2 0 3 1t1 2q0 4 -2.5 4.5t-6.5 0.5q0 -3 1 -5.5t4 -2.5zM126 62q0 -4 1 -5.5t4 -1.5t5.5 1t2.5 4q0 4 -3 5t-6 1q-4 0 -4 -4z" />
</svg>
