<?xml version="1.0" standalone="no"?>
<!DOCTYPE svg PUBLIC "-//W3C//DTD SVG 1.1//EN" "http://www.w3.org/Graphics/SVG/1.1/DTD/svg11.dtd" >
<svg xmlns="http://www.w3.org/2000/svg" xmlns:xlink="http://www.w3.org/1999/xlink" version="1.1" viewBox="-10 0 266 256">
   <path fill="currentColor"
d="M177 209q0 6 0.5 11t2 9.5t4 9t4.5 9.5q1 2 2 2h2q3 0 4 -1.5t1 -3.5q0 -5 -3.5 -8.5t-5.5 -7.5q-2 -5 -3 -11t-1 -12q0 -5 2 -9t5 -8t5.5 -7.5t3.5 -8.5t1.5 -11t0.5 -12q0 -5 -0.5 -12.5t-2 -14t-6 -11.5t-12.5 -5q-2 0 -5 0.5t-6 0.5t-5.5 0.5l-2.5 0.5l-3 3
q0 2 2.5 2.5t5 0.5t5 0.5t3.5 2.5v2v3v5.5t-1 5.5q-6 -2 -10.5 -4t-8.5 -5t-8.5 -5t-9.5 -4q-2 0 -3 -2t-1.5 -4t-1.5 -3t-4 -1l-1.5 3.5t-3.5 7.5t-5.5 7.5t-6.5 3.5h-1q-1 -5 -2 -9t-2.5 -6t-5.5 -3.5t-9 -1.5q-7 0 -12.5 4t-9.5 10t-6.5 14t-4.5 16t-2.5 15.5t-0.5 12.5
v3t0.5 4t1.5 3t3 1q1 0 3.5 -0.5t2.5 -2.5v-34q0 -1 1 -1.5l1 -0.5h1q3 0 4.5 1.5t2.5 4t2.5 4t3.5 1.5h1v0q1 -1 1 -2v-1q0 -4 -2 -6t-4.5 -4t-4.5 -4.5t-2 -5.5t1.5 -5t4.5 -2q2 0 5 1t6 3t5 4.5t2 5.5v2q-5 12 -10.5 24t-5.5 25v4t1 9.5t1.5 11.5t2 11.5t3 9t3.5 3.5
q3 0 5 -2.5t2 -5.5l-0.5 -1.5l-0.5 -1.5l-1 -2.5l-2 -5t-1.5 -4.5t-1.5 -3q-1 -4 -1.5 -6.5t-0.5 -5.5v-5v-7q0 -5 0.5 -9.5t1.5 -8.5t2.5 -7.5t3.5 -8.5q4 -8 6 -12.5t3.5 -7.5t3.5 -5.5t5 -5t7 -5t11 -6.5h2q5 0 8.5 3t6.5 6q4 2 8.5 3.5t8.5 4t6.5 5.5t2.5 8q0 1 -0.5 4
t-2.5 3t-5 -2t-6 -4.5t-6.5 -4.5t-6.5 -2q-2 0 -4.5 1.5t-2.5 4.5l-3 31q-1 1 -2 3t-2 2h-1q0 -1 -1 -2t-2 -1v-13q0 -6 1 -11t1 -11q0 -2 -1.5 -3l-3 -2t-3.5 -1h-3q-6 0 -8 3.5t-3 8t-1 9.5q0 6 -1 9v3v4v4.5t0.5 7.5t1.5 7t3 3l1 -0.5t1 -1.5v-12v-11t0.5 -10.5
t1.5 -11.5q0 -3 0.5 -4.5t3.5 -1.5q2 0 2.5 1t0.5 4v40q0 2 1.5 6.5t3.5 10t5 11.5t6.5 11t6.5 8t6 3h1q1 -1 2.5 -3t1.5 -4v-1l-0.5 -0.5l-0.5 -0.5q-1 -1 -3.5 -2.5t-2.5 -2.5q-3 -2 -5.5 -6t-5 -8.5t-4 -9t-1.5 -8.5v-1l1 -1l2 -2l2 -2l1 -1q2 -3 3 -9.5t1 -13t1 -11.5
t3 -5t2.5 2.5t1.5 3.5v2v3v4v2v6.5v10t0.5 10t0.5 6.5t1 2.5t2 0.5t2.5 -1t1.5 -3q0 -7 -0.5 -13t-0.5 -13v-14l0.5 -0.5l0.5 -0.5q1 0 3 0.5t3.5 2l3 3t1.5 3.5t-1 5t-2 5.5t-1.5 5t-0.5 5.5q4 0 6.5 -3t3.5 -7t1.5 -8t0.5 -7q1 0 2.5 -1l3 -2t3 -1.5t3.5 -0.5t2.5 1t0.5 3
q0 7 -2.5 11.5t-5.5 9.5t-5.5 10.5t-2.5 13.5zM181 151l2 -9q0 -1 1.5 -1.5t2.5 -0.5h3h4q0 6 -1 9t-7 3h-1h-2t-1.5 -0.5zM79 124q-1 -3 1 -4.5t5.5 -2.5t6 -1.5t3.5 -0.5v0l2.5 1t2.5 2v19l-2 3l-3 -2t-6 -5t-6.5 -5.5t-3.5 -3.5zM183 133q0 -1 -0.5 -2.5l-0.5 -1.5
q0 -3 0.5 -5.5t1.5 -5.5h2q3 0 3.5 2t0.5 5v2q0 2 -0.5 3.5t-1.5 2.5t-2 1t-2 -0.5zM70 89q0 5 5.5 7.5t13 3t15 0.5h10.5h13t12 -0.5t12.5 -0.5t14.5 -1q5 0 8 -1t5.5 -2.5t3.5 -4.5t1 -8t-3.5 -6.5t-6.5 -2.5q-2 0 -6 -0.5t-8.5 -0.5t-8.5 -0.5t-6 -0.5h-3h-2
q-1 0 -2.5 0.5t-3.5 0.5t-4 0.5l-2 0.5q-3 0 -9.5 0.5t-13.5 1t-13.5 1t-9.5 0.5q-4 2 -8 5t-4 8zM80 88q0 -3 3.5 -4.5t8 -2.5t9.5 -1h6h5t8.5 -0.5t8.5 -0.5h5h2t4.5 -0.5t5.5 -0.5h4h3t5 0.5t5 0.5h3q3 0 5.5 1.5t2.5 4.5t-2 4l-4 2t-4.5 1h-3.5h-78q-1 0 -1.5 -1.5
t-0.5 -2.5zM69 33q0 4 0.5 9t2 9.5t4 8t7.5 4.5h20h40t40 -3q1 -1 1 -2v-1q0 -4 -2.5 -4.5t-4.5 -0.5q-6 0 -12 1.5t-12 1.5q-26 2 -52 2h-14l-2.5 -1t-2.5 -2q0 -3 3 -4.5t4 -1.5q2 -1 7 -3t11 -4t11 -4t7 -3h1h1q6 0 10.5 1.5t9.5 3.5t10.5 4t10.5 2q1 0 2.5 -0.5
t1.5 -1.5v-1l-1 -3q-2 -1 -6.5 -2t-10 -2.5t-10 -3t-6.5 -1.5l-2 -1t-2.5 -1t-1.5 -0.5t-1 -1.5l-3 -17q0 -1 -1.5 -1.5l-1.5 -0.5q-1 0 -3 0.5t-3 1.5v2.5v4.5v5v3q0 4 -2.5 6t-5.5 3t-7 2t-7 2q-1 1 -3 2l-4 2t-4 1.5t-3 0.5q-3 0 -3.5 -2.5t-1 -5.5l-1 -6t-4.5 -3
q-3 0 -3.5 1.5t-0.5 4.5z" />
</svg>
