<?xml version="1.0" standalone="no"?>
<!DOCTYPE svg PUBLIC "-//W3C//DTD SVG 1.1//EN" "http://www.w3.org/Graphics/SVG/1.1/DTD/svg11.dtd" >
<svg xmlns="http://www.w3.org/2000/svg" xmlns:xlink="http://www.w3.org/1999/xlink" version="1.1" viewBox="-10 0 266 256">
   <path fill="currentColor"
d="M160 214q3 0 6.5 5.5t8.5 12.5t11.5 12.5t14.5 5.5q4 0 4 -2v-1q-14 -9 -23.5 -19t-18.5 -24q0 -2 0.5 -6.5t0.5 -10.5q0 -5 -0.5 -10t-0.5 -6v-4t-0.5 -6.5t-1 -6.5t-2.5 -3h-1q0 1 -0.5 1.5l-0.5 0.5q0 2 -0.5 8t-0.5 13t-0.5 12.5t-0.5 8.5q-1 20 -11 30.5t-29 17.5
l-1 3h3h4q6 0 12 -3t11 -7.5t8.5 -10.5t5.5 -11h1.5h0.5zM66 102q0 17 -0.5 33t1 32t4.5 31t10 31q0 1 0.5 3.5t1.5 4.5t2.5 4t2.5 2q2 0 2.5 -1.5t0.5 -3.5q0 -5 -2 -10t-4.5 -10t-4.5 -10.5t-2 -10.5v-4l0.5 -1.5l0.5 -1.5q0 -4 -1.5 -8t-1.5 -9v-4.5v-4.5q4 -3 6.5 -8.5
t4 -12.5t2 -13.5t0.5 -11.5v-24l0.5 -1t1.5 -1v0h1q5 2 5 6v1v6t-0.5 11t-0.5 11.5v6.5l-0.5 2t-0.5 3t0.5 2.5l0.5 1.5v4.5t0.5 4.5t0.5 4v2l4 3l0.5 -0.5l0.5 -0.5v-1v-1v-2.5t-0.5 -3.5t-0.5 -3.5v-1.5v-2v-2q0 -1 0.5 -8.5t1 -16t1 -15.5t0.5 -9v-1q0 -3 -3.5 -5.5
t-8 -4t-8 -2t-4.5 -0.5t-1.5 1t-0.5 2q0 3 2 5.5t3 6.5v3v5v6v3v5v5.5v5.5v2l-0.5 1.5t-1 4t-1.5 5t-1 3.5l-0.5 1.5l-1 3t-1 2.5t-1.5 1h-0.5h-0.5q0 -1 -0.5 -4t-0.5 -4v-6v-10v-10v-6t-0.5 -4.5l-1 -7t-1 -6.5t-1.5 -4t-4.5 -2.5t-8 -3t-9 -2.5t-6.5 -1q0 3 1.5 5l3 4
t2.5 3.5t1 4.5v5t-0.5 8.5t-0.5 8v5.5q0 1 -0.5 2.5t-0.5 3t-0.5 3.5l-0.5 2q-1 4 -3 9t-3.5 10.5t-3 10.5t-1.5 8h6l1 -2t2 -5t2 -6.5t2 -5.5q4 -15 6.5 -30t1.5 -30q0 -1 0.5 -1.5t1.5 -0.5q4 0 5.5 2.5t2.5 5.5zM129 184q0 6 -1 12.5t-4 12.5q-2 2 -3.5 4l-3 4l-3 4
t-1.5 4q7 0 11.5 -5.5t7 -13t4 -15t1.5 -11.5q0 -2 -0.5 -5.5t-1.5 -7t-3 -6t-5 -2.5q0 6 1 12t1 13zM178 168q0 16 5 27.5t17 21.5q3 2 5 4.5t6 2.5q0 -2 -2.5 -5.5t-6.5 -8t-7.5 -8.5t-4.5 -6q-2 -2 -3 -7.5l-2 -11t-2 -9.5t-3 -4q-1 0 -1.5 1t-0.5 3zM124 83q-4 6 -6 13
t-2.5 14.5l-1 15t-0.5 14.5q-1 8 -3 15.5t-2 15.5q4 0 6.5 -6.5t4 -16.5t2.5 -22t3 -22t6.5 -16.5t12.5 -6.5q2 0 3 1.5t1.5 4t1.5 5t3.5 5t7 3.5t12.5 0q6 5 8 11t2 13q0 3 -0.5 6.5t-0.5 7.5q0 6 2 11t6.5 9.5t10 7t11.5 2.5h1l2 -2v-1q0 -3 -4.5 -5t-9.5 -4.5t-9 -6
t-4 -10.5v-2t2 -1q6 4 11.5 8t13.5 6v0q3 0 3 -3v-1.5v-0.5q-10 -4 -16 -10.5t-9 -16.5v-1.5t-0.5 -3.5t-0.5 -3.5t-1 -1.5q0 -1 -2.5 -2.5t-5.5 -4t-5.5 -5t-2.5 -3.5q0 -4 2 -10t5 -10q7 0 12 -2t7.5 -5t3.5 -8.5t1 -12.5v-2.5t-0.5 -3.5t-1 -3t-2.5 -1h-1v1t-0.5 2.5
l-1 3t-1.5 1.5l-16 5q-2 0 -3 -1t-1.5 -2.5l-1 -3t-0.5 -2.5l0.5 -1t0.5 -2q2 0 6 -2t8 -5t7 -6t3 -6q0 -1 -1 -1.5t-2 -0.5h-1l-15 12h-5l-6 -10t-8 -9q-2 5 -5.5 10t-5.5 11h-1h-2q-4 0 -7.5 -3.5t-6.5 -7.5t-5.5 -7.5t-6.5 -3.5q0 8 4 12.5t9 8t9 6t4 5.5q0 2 -0.5 3.5
t-1.5 3.5h-2h-2q-6 0 -9.5 -3t-6.5 -6.5t-6 -6.5t-6 -3v3l1 2t2.5 4.5l3 5t2.5 4.5q1 1 4.5 2.5t7.5 3t7.5 2.5t3.5 2v16l-1 0.5l-1 0.5l-1 0.5t-2.5 1l-3 1l-1.5 0.5q-1 1 -3 2l-4 2l-4 2zM135 136q0 2 0.5 4.5t1.5 5t3 4.5t4 2q1 0 1 -0.5v-0.5l1 -0.5l1 -0.5
q-4 -6 -5.5 -8.5t-1.5 -7.5q0 -3 1 -5.5t5 -2.5h2l14 13h3q0 -3 -1.5 -5.5t-3.5 -5l-4 -5t-3 -5.5q0 -1 1 -2l2 -2t1.5 -2t0.5 -2q0 -3 -2 -3v0h-1l-8 6t-6.5 6t-4 7t-1.5 10zM153 86q0 -6 4.5 -8.5t9.5 -2.5q2 0 2.5 1.5t0.5 2.5q0 5 -1.5 9t-6.5 4q-2 0 -5.5 -2t-3.5 -4z
M165 54q4 0 6.5 1.5t2.5 4.5q0 2 -1 5t-3 3h-17q0 -3 0.5 -6t1.5 -4.5t3.5 -2.5t6.5 -1zM44 62q0 1 1 2.5t3 0.5l2 -1t2 -2q2 -1 5.5 -3.5t7 -5.5t6.5 -6t5 -4q2 -2 5 -2h2q0 1 2.5 3.5l5 5t5 4.5t3.5 3q2 2 5 3.5t6 1.5h2t2 -2q-2 -2 -4 -3.5l-4 -3t-4.5 -3.5t-4.5 -4
l-4 -8t-6 -12.5t-5 -11.5l-2 -5h-1q0 1 -1.5 2l-1.5 1v6t-1 6.5t-2.5 6.5t-3.5 5l-24 24q-1 0 -1 1v1zM180 58q0 -3 2 -4.5t4.5 -1.5h5.5h5q0 5 -2 9t-8 4q-7 0 -7 -7zM155 44q0 -2 0.5 -5t2.5 -3h12q1 0 1.5 3l0.5 3q0 2 -0.5 4t-3.5 2h-11q-2 0 -2 -2v-2zM160 25
q0 -1 0.5 -3t2.5 -2v1l2.5 1t2.5 2t-1.5 3t-3.5 2q-3 0 -3 -4z" />
</svg>
