<?xml version="1.0" standalone="no"?>
<!DOCTYPE svg PUBLIC "-//W3C//DTD SVG 1.1//EN" "http://www.w3.org/Graphics/SVG/1.1/DTD/svg11.dtd" >
<svg xmlns="http://www.w3.org/2000/svg" xmlns:xlink="http://www.w3.org/1999/xlink" version="1.1" viewBox="-10 0 266 256">
   <path fill="currentColor"
d="M139 249q1 2 1.5 2h2.5q5 0 6 -3.5t1 -8.5q0 -4 -0.5 -7.5t-1.5 -7.5v-48q2 -11 4 -18.5t5.5 -11.5t10 -6t19.5 -2q3 0 5 1.5t2 4.5q0 6 -3 11.5t-6.5 11.5t-6.5 13t-3 16t1.5 16t4.5 13t7 12t9 12l1.5 1.5l0.5 0.5h1q3 0 4.5 -2t1.5 -4q0 -6 -3.5 -10.5t-7.5 -10
t-7 -12.5t-3 -18q0 -9 3 -15t6.5 -11l7 -10t3.5 -11q0 -5 -2 -7.5t-4.5 -4t-6 -2t-6 -1.5t-4.5 -3t-2 -6q0 -5 2.5 -6.5t6 -2.5t7.5 -2t6 -3q3 -2 3.5 -5.5t0.5 -7t0.5 -7.5t1.5 -7v-18v-10q0 -5 -0.5 -9.5t-0.5 -9t-1 -10.5q-1 -4 -2.5 -5.5t-4 -2.5t-5.5 -1h-7h-10
t-11.5 1.5t-10 4.5t-5.5 9q-1 4 -1.5 10.5t-0.5 13v12.5v10v25q0 4 3 6.5t6.5 3t7.5 0.5h7v7q0 6 -3 10t-7.5 7t-9.5 5.5t-8 7.5q-2 4 -3.5 11.5t-2 16.5t-1 17.5t-0.5 12.5v11t0.5 10t0.5 10t1 11zM47 176q0 3 1.5 4.5t3.5 1.5q8 0 16.5 -0.5t17.5 -1.5t17.5 -2t15.5 -2
q1 0 1.5 -1.5t0.5 -3.5q0 -3 -3 -4t-6 -1q-4 0 -7 0.5l-3 0.5q-3 -1 -3.5 -2t-0.5 -3q0 -8 2 -13t5 -8.5t6.5 -6.5t6.5 -6t5 -8t2 -12t-1.5 -10.5t-4 -6t-5.5 -3.5t-5.5 -2.5t-4 -4t-1.5 -6.5v-2q0 -1 0.5 -2.5t0.5 -3t1 -1.5h15q1 0 2.5 -2.5t2.5 -3.5t1.5 -2t0.5 -2v-31
q0 -1 -2.5 -3.5t-4 -3.5t-5 0t-6.5 2.5t-5.5 3t-3.5 3.5q0 2 -0.5 6.5t-0.5 10t-0.5 10t-0.5 6.5v2v2.5v3.5v3v2v3.5v3.5v2q1 5 4 7.5t6.5 4.5t6 5t2.5 8q0 4 -1 7t-3 5.5t-4.5 5t-5.5 4.5q-1 1 -2.5 3t-3.5 3.5t-3 3l-1 1.5l-3 25q-1 3 -2.5 3.5t-3.5 0.5t-4.5 -0.5
t-3.5 -3.5v-15t-2 -15q-1 -4 -3.5 -5.5t-5.5 -3t-5.5 -4t-2.5 -7.5q0 -9 4.5 -14.5t10 -9t10 -6t4.5 -5.5v-51q0 -4 -2 -6t-4.5 -3t-5.5 -1.5t-5 -0.5q-11 0 -16 6t-5 18q0 8 1.5 12.5t5 7.5t8.5 4t13 1q2 1 2 3v3q0 2 -0.5 3.5t-1.5 3.5q-5 2 -10.5 5t-9.5 7.5t-6.5 10
t-2.5 11.5q0 7 1.5 10.5t4 5.5t5.5 4t5.5 5t4 8t1.5 15l-0.5 2t-1.5 3q0 1 -0.5 2l-0.5 1h-16q-2 0 -2.5 2.5t-0.5 3.5zM155 89q0 -2 0.5 -3t2.5 -2q5 -1 8.5 -1.5t7 -0.5h7h7.5h6q2 1 2.5 3.5t0.5 4.5t-0.5 4t-1.5 4.5t-2.5 4t-3.5 1.5h-28q-2 0 -3 -2t-2 -4.5t-1 -5v-3.5z
M155 55l1 -2h11t9.5 -0.5l9 -1t10.5 -0.5h1l1.5 6t0.5 6q0 2 -0.5 5.5t-2.5 4.5q-10 1 -20.5 1.5t-20.5 0.5v-20zM105 57v-1q0 -1 0.5 -5t1 -8.5t1 -8t1.5 -5.5q0 -1 1.5 -2.5t3.5 -1.5t3.5 2.5t2 5t0.5 5.5v5q0 4 -0.5 7t-2.5 8q-2 2 -3.5 2h-3.5q-1 0 -3 -0.5t-2 -2.5z
M59 44v-10q2 -4 4.5 -5.5t5.5 -1.5q4 0 6 2.5t3 6.5t1.5 8t0.5 7t-1.5 4.5t-3 2t-3.5 0.5h-4h-2.5h-3.5q-3 -2 -3 -6.5v-7.5zM158 42q-2 -1 -2 -2.5v-2.5q0 -5 3.5 -8t8.5 -4.5t10 -1.5h9h9q0 1 0.5 3.5l0.5 2.5v2q0 6 -1 9.5t-8 3.5h-2q-2 0 -6 -0.5t-8.5 -1t-8.5 -0.5h-5z
" />
</svg>
