<?xml version="1.0" standalone="no"?>
<!DOCTYPE svg PUBLIC "-//W3C//DTD SVG 1.1//EN" "http://www.w3.org/Graphics/SVG/1.1/DTD/svg11.dtd" >
<svg xmlns="http://www.w3.org/2000/svg" xmlns:xlink="http://www.w3.org/1999/xlink" version="1.1" viewBox="-10 0 266 256">
   <path fill="currentColor"
d="M177 199q0 5 1.5 13.5t4 17t7.5 14.5t11 6q3 0 4 -1t1 -4q0 -4 -3.5 -8.5l-7 -9t-6.5 -10.5t-3 -13q0 -13 5 -23.5t13 -20.5v-2.5v-2.5q0 -5 -4 -8t-8.5 -4.5t-8.5 -3.5t-4 -5v-4.5t2 -4.5l18 -3l0.5 -1t1.5 -2.5l2 -3l1 -1.5q4 -10 4.5 -21t0.5 -22v-16t-2 -12t-7 -7.5
t-15 -2.5h-5h-3l-2 0.5t-4 1.5t-4.5 1.5t-3.5 1.5q-3 1 -3.5 3.5t-1 5.5t-0.5 6t-2 5q-1 6 -1 10.5v9v8.5v10v16q1 4 3.5 6t5.5 4.5t5 5t2 7.5q0 2 -3 4.5t-7 6t-7.5 6.5t-5.5 6l-2.5 5t-2 6.5t-1 6.5t-0.5 5q0 1 -0.5 4t-0.5 6v6v5v5v7q0 3 0.5 5.5l0.5 2.5v6q0 4 0.5 7
t2.5 5t6 2q2 0 3 -3t1 -5q0 -10 -2.5 -20.5t-2.5 -20.5q0 -7 1.5 -15t5.5 -15t10.5 -11.5t15.5 -4.5q2 0 5.5 2t3.5 5q0 6 -2 11t-5 9.5t-5.5 10.5t-2.5 14zM48 236q0 2 1 4t4 2q4 0 7 -3t5.5 -7t4 -8t2.5 -7q1 -1 2.5 -4.5l3 -7l3 -7t1.5 -4.5l4 -1q1 -1 2 0t2 3t2 3.5
t2 2.5q0 1 0.5 3l0.5 2q1 2 3 5.5t4 8t4 8t3 5.5q2 3 3.5 4.5t4.5 1.5t4.5 -2t1.5 -4q0 -3 -2 -6.5t-4.5 -7t-5.5 -6.5t-4 -5q-7 -10 -11 -21t-4 -23v-9.5t0.5 -9.5t0.5 -10t1 -11q1 -3 3 -4.5t5 -1.5h33q1 0 1 -2v-1q0 -1 -0.5 -3t-2.5 -3h-10h-19t-18 0.5t-18.5 1
t-19.5 0.5q-3 1 -4.5 2t-1.5 4l0.5 2t1.5 2h38q2 0 3 2.5t1 3.5v2q-1 2 -1.5 8.5t-1 13.5t-1 13.5t-0.5 8.5q0 1 -1.5 3l-1.5 2q0 1 -2 5t-4.5 8.5t-4.5 8.5l-2 4q-1 2 -4 6.5t-6.5 9.5t-5.5 9t-2 6zM109 178q0 2 0.5 5t1 6.5t2 5.5t4.5 2h2t1 -1v-3.5v-3.5q0 -13 -2 -26
t-1 -26q-1 -3 -2 -3.5t-3 -0.5q-1 0 -2 0.5t-1 1.5v43zM53 189q0 3 0.5 4t3.5 1q4 0 6.5 -5.5t3.5 -13t1 -15v-10.5v-12q0 -2 -1 -2.5t-3 -0.5q-3 0 -4.5 3t-1.5 5v4v6v6v4q-1 6 -3 13t-2 13zM164 95h28q4 0 4.5 1t0.5 4q0 6 -1.5 9t-5 5t-8 2.5t-9.5 0.5q-4 0 -5.5 -3
t-2.5 -6t-1 -7v-6zM46 35v5q0 1 0.5 6.5t1 11.5t1 11t0.5 7q1 2 0.5 5.5t0 6.5t2.5 5t6 2h3h6h5h4q2 1 4 1.5t4 1.5t4 1.5t5 0.5q4 0 9.5 -0.5t11 -1.5l11 -2t8.5 -1q5 -2 6 -8t1 -12v-12t3 -9v-22q0 -1 -1 -1.5t-2 -0.5l-1.5 0.5t-2.5 1.5l-1 0.5l-1 0.5v13q0 1 -1 1.5
t-2 0.5h-3h-1q-1 0 -3.5 1.5t-3.5 1.5l2 3q3 1 5.5 1t3.5 0.5t1.5 2t0.5 5.5q0 1 0.5 3.5t-1.5 2.5q-1 0 -3 0.5t-3.5 0.5t-3 0.5t-2.5 0.5q-2 0 -3.5 -2.5t-1.5 -4.5l0.5 -1.5t0.5 -3t0.5 -3t0.5 -2.5v-7q0 -10 -2 -12.5t-5 -2.5h-5.5t-5.5 -4q-3 -4 -3 -7.5v-5.5
q0 -3 -2 -4t-9 -1q0 4 1 7t1 7v1q0 2 -2 3t-3.5 2t-3.5 2t-2 3l-0.5 1t-1 2.5t-0.5 3v1.5q0 1 -0.5 2.5t-1.5 2.5h-2.5h-2.5h-5t-4 -2v-5q0 -4 -1 -6.5t-3 -4.5t-5 -2t-3 2.5v4.5zM85 88q0 -1 0.5 -3t1.5 -3.5l2 -3t3 -1.5q1 0 3 1.5t3 3t1.5 3.5t0.5 3v1l-0.5 1l-0.5 1h-12
l-0.5 -1l-0.5 -1l-0.5 -0.5zM61 80q0 -2 1.5 -3t3.5 -1t3.5 -0.5t1.5 -2.5t-2 -2t-4 -0.5t-4 -2t-2 -5.5v-3v-2q0 -1 0.5 -1.5t1.5 -0.5h13v31q0 2 -1.5 2h-1.5q-5 0 -7.5 -2t-2.5 -7zM115 85q0 -3 2 -5.5t5 -2.5h1q1 1 4.5 1.5t4.5 0.5v1v2q0 3 -3 5t-6 2t-5.5 -0.5
t-2.5 -3.5zM164 77v-6q4 -3 10 -3.5t10 -0.5h6t5 1t3 3t1 5v3t-0.5 4t-1 3t-1.5 1h-30l-1 -1t-1 -2v-7zM97 61q0 -1 1 -3.5t2.5 -5t3 -4.5t2.5 -2h0.5h0.5q1 7 1.5 11.5t0.5 10.5v1.5v3.5t-0.5 3.5t-2.5 1.5t-3.5 -2t-3 -5t-2 -6t-0.5 -4zM81 62v-5t3 -3q2 0 2.5 1.5l1 3
t0 3t-0.5 2.5v7l-1.5 0.5t-1.5 1.5h-1h-1q-1 -4 -1 -6v-5zM168 58q-2 -1 -2 -2v-2t0.5 -3t1 -3.5l1 -3t2.5 -1.5h25q1 0 2 2.5t1 5v5.5v4q-8 0 -16 -0.5t-15 -1.5zM87 38q2 -1 3.5 -1.5t3.5 -0.5t3.5 0.5t1.5 3.5v1q-1 1 -2 4t-2 4q0 1 -1 1v0q-2 0 -3.5 -1.5t-2 -3.5l-1 -4
t-0.5 -3z" />
</svg>
