<?xml version="1.0" standalone="no"?>
<!DOCTYPE svg PUBLIC "-//W3C//DTD SVG 1.1//EN" "http://www.w3.org/Graphics/SVG/1.1/DTD/svg11.dtd" >
<svg xmlns="http://www.w3.org/2000/svg" xmlns:xlink="http://www.w3.org/1999/xlink" version="1.1" viewBox="-10 0 266 256">
   <path fill="currentColor"
d="M165 251l1 1.5t2 1.5h1h1q3 -1 5.5 -2.5t2.5 -6.5v0q0 -1 -1 -4.5t-1 -4.5t0.5 -4t0.5 -6.5t0.5 -6.5t0.5 -4q2 -5 5.5 -8.5t7.5 -6.5q8 -6 11.5 -11t5 -11t1.5 -13v-16v-12t-1 -16t-4.5 -14.5t-9.5 -6.5l-42 -3q-1 0 -3 -2t-2 -3v-1q0 -6 3.5 -9t9.5 -4t13 -1t13.5 -0.5
t11 -3t6.5 -7.5q1 -5 1 -8.5t0.5 -6.5t0.5 -6v-7q0 -5 -0.5 -8.5t-1.5 -9.5q-1 -2 -3 -3t-4 -1q-1 0 -2.5 1t-1.5 3v13q0 2 -4.5 3t-10.5 1.5t-13.5 0.5h-13.5t-10 1t-4 4t3 4q1 0 4 0.5t4 0.5q9 0 18 -1t18 -1h3h2l4 3v13q0 1 -2.5 2.5l-2.5 1.5q-2 0 -7.5 0.5t-11.5 1.5
t-11.5 1.5t-7.5 0.5q-1 1 -3 1q-3 0 -4 -1q0 3 -1 6t-1.5 6t-1.5 6t-1 6q0 5 3.5 8t7.5 4t9 1h8h5.5t7.5 0.5t7.5 0.5h4.5q4 3 5.5 8t1.5 10.5v11.5v10v13q0 7 -1.5 13t-5 11t-10.5 9l-1 0.5l-2 1l-2 1l-1 0.5q-7 9 -8.5 19.5t-1.5 21.5v2v4v4.5v2.5zM47 233q0 3 1 5t4 2
t5.5 -3t2.5 -6v-46q0 -2 2.5 -4.5t5.5 -5t6 -4t4 -2.5l11 -11q3 1 6 3l6 4t5.5 4t4.5 5q3 5 4 12.5t1 16v16.5t1 14q1 2 3 2h3q4 0 5.5 -1.5t1.5 -6.5q0 -7 -0.5 -14.5t-2 -14.5t-2.5 -14.5t-1 -14.5q0 -3 -0.5 -10t-0.5 -15.5v-18t-0.5 -18t-0.5 -15.5v-10q0 -1 -0.5 -4
t-1.5 -4q-3 -6 -7 -7.5t-8 -2t-6.5 -1.5t-2.5 -6q0 -3 2 -4.5t5 -3t6 -2.5t6.5 -3t5 -5.5t1.5 -9.5v-2.5v-1.5q0 -2 -3 -3.5t-4 -1.5h-31q-2 0 -4.5 -2t-4.5 -3.5t-4.5 -3t-4.5 -1.5q-3 0 -4 1t-1 4q0 2 1 4t2.5 4t2.5 4t1 4q0 4 -3 5.5t-6.5 2.5l-7 2t-4.5 3l3 3q0 1 2.5 1
h3.5q8 0 13 -2.5t9.5 -6t9.5 -6t13 -2.5h8q0 1 0.5 2.5t1.5 2.5v1v1q-6 3 -12 4.5t-10 6.5q-1 2 -1.5 4l-1 4t-1.5 3.5t-4 3.5q-8 -1 -13 0.5t-8 5t-4.5 9t-2.5 11.5q0 4 -0.5 11t-0.5 16t-0.5 19t-0.5 19t-0.5 16.5t-0.5 10.5v8q-1 11 -2 21.5t-1 21.5zM135 193q0 2 2.5 2
h3.5t5 -1.5t9.5 -4.5l11 -6t10.5 -6t8 -5t3 -3l-0.5 -0.5l-1 -1t-2 -1l-1.5 -0.5l-4 1.5t-9 4t-11.5 5.5t-11.5 6t-8.5 5.5t-3.5 4.5zM92 103q3 0 7 2t7 4.5t5.5 5.5t2.5 6v32q0 2 -1.5 4t-3.5 2t-4.5 -1t-5 -3t-4 -4.5t-1.5 -4.5v-20q0 -2 -2 -3.5t-4 -1.5h-1h-1
q-1 7 -1.5 12t-1 9.5t-2.5 8.5t-8 8q-4 2 -5.5 4t-5.5 2q0 -7 -0.5 -14.5t0 -14t3 -12.5t8.5 -11q1 -1 3.5 -3t5 -3.5t5.5 -2.5t5 -1zM180 143q-3 0 -10 1.5t-15 3.5t-13.5 5.5t-5.5 7.5h12l2 -2l2.5 -1t5.5 -2t6.5 -2t5.5 -1q1 -1 3.5 -1t5.5 -0.5t5 -2t2 -3.5
q0 -3 -1.5 -3h-4.5zM134 134q0 1 2.5 1.5t3.5 0.5t2.5 -0.5t3.5 -1.5t3.5 -2t2.5 -1q2 -1 7.5 -1.5t11.5 -1t10 -2.5t4 -5q0 -5 -6 -5l-4 1t-9 2t-10.5 3t-10.5 4t-8.5 3.5t-3.5 3.5l0.5 0.5zM79 72q2 0 3 0.5t2 1.5v3v2q0 5 -1 9.5t-3 8.5t-5.5 6.5t-8.5 2.5
q0 -4 -0.5 -9.5t0.5 -11t4 -9.5t9 -4zM94 72h13q1 0 1.5 0.5t0.5 1.5q2 4 2 9v10v5v4l-2 1q-1 -1 -3.5 -2t-5 -3t-4.5 -4t-2 -4v-18z" />
</svg>
