<?xml version="1.0" standalone="no"?>
<!DOCTYPE svg PUBLIC "-//W3C//DTD SVG 1.1//EN" "http://www.w3.org/Graphics/SVG/1.1/DTD/svg11.dtd" >
<svg xmlns="http://www.w3.org/2000/svg" xmlns:xlink="http://www.w3.org/1999/xlink" version="1.1" viewBox="-10 0 266 256">
   <path fill="currentColor"
d="M182 160q0 6 -0.5 10t-1.5 8t-3.5 7.5t-6.5 7.5l-2 2l-4 4l-4 4l-2 2q-6 8 -7 18t-1 18v10q6 -2 7.5 -7t2 -11l1 -12t3.5 -9l21 -24q1 -2 2 -5t1 -6v-5.5v-5.5q0 -6 -0.5 -15.5t-2.5 -17.5t-7 -14t-15 -6q-1 0 -2 0.5t-2 0.5q-4 3 -6.5 5t-4.5 5t-2.5 6.5t-1.5 8.5
q0 1 -1 4t-2 6.5t-1.5 6.5t-0.5 4v2.5t-0.5 5.5t-0.5 6v5v4q0 3 0.5 6t0.5 6v4q1 0 2 1l1 1h1h1q0 -1 1.5 -1.5l1.5 -0.5q0 -1 -0.5 -2.5t-1.5 -2.5v-23l3 -3q3 1 4 3.5l2 5l2 5t3 3.5l2 -2t2 -1v-1q0 -5 -2.5 -8.5l-5 -7t-5 -6t-2.5 -5.5q0 -4 1 -8t5 -4h1.5h0.5l13 19h4
q0 -7 -2.5 -11t-6 -7.5t-6.5 -6t-3 -6.5q-1 -2 0 -3.5t3 -3t4 -1.5h3q6 0 9 4.5t4.5 11t2.5 13t1 9.5zM197 237q0 4 0.5 5t4.5 1h3q1 0 2 -2q1 -7 1 -12.5v-12.5q0 -44 -1.5 -86.5t-1.5 -86.5q-3 -3 -6 -4t-7 -1.5t-8 -0.5t-7 -1v-3.5v-4.5v-5v-3q-1 -2 -2.5 -4.5t-4.5 -2.5
q-1 0 -2 1t-1 3v72q0 5 4 6t9 2.5t9.5 3t6.5 7.5q-1 11 -0.5 22.5l1 23t1.5 23t1 23.5v1q0 1 -0.5 5.5t-0.5 10t-0.5 10t-0.5 5.5v2v3zM116 238q1 4 4 4q2 0 3 -1.5t2 -3.5v-12t0.5 -18t1 -21t0.5 -20.5t0.5 -17.5t0.5 -12v-4q0 -5 -1 -10.5t-1 -10.5v-6q3 -1 7.5 -3.5
t9 -5.5t7.5 -6.5t3 -8.5v-61q0 -1 -1.5 -3.5t-3.5 -2.5l-1 0.5t-2 0.5q0 1 -0.5 1.5l-0.5 0.5v20q0 3 -3.5 3t-8 1.5t-8.5 5.5t-5 14v13v20v23v24v20v13q0 2 -0.5 7.5t-0.5 12t-0.5 12t-0.5 7.5q-1 2 -1.5 4t-0.5 4v4v3v5t1 5zM46 236q0 2 2 3t4 1q3 0 4.5 -3l2.5 -5v-24
v-13.5t2 -12t6 -9.5t12 -7h1h1q4 3 7.5 6t4.5 8v3q0 3 0.5 5.5t0.5 4.5v4v9q0 3 -0.5 6.5t-0.5 7.5t-1 9l-0.5 1t-0.5 2t-0.5 2l-0.5 1q1 2 2.5 2.5t2.5 0.5q2 0 3 -1t2 -2.5t1.5 -3t1.5 -2.5v-5v-6.5v-6.5v-5v-14.5v-15t-1 -15t-2 -14.5v-1v-2q0 -1 0.5 -4t0.5 -4v-49
q0 -4 -2 -5.5t-5 -2t-5 -2t-2 -5.5q0 -5 3.5 -9.5t8.5 -8.5t8.5 -8.5t3.5 -10.5t-4 -9t-9.5 -4.5t-11.5 -2t-10 -2.5l-1.5 -1t-3 -1.5t-3 -1.5l-1.5 -1h-1q-2 0 -2.5 2t-0.5 3q0 4 3 5t5.5 2t5.5 2t3 4q0 5 -5 9t-10.5 6.5t-10.5 5t-5 5.5q0 2 1 2.5t3 0.5q7 0 12.5 -2
t10 -6.5t8 -9.5t5.5 -10h1.5h2.5q7 0 7 7v1v2q-1 0 -3 2.5l-4 5t-3.5 4.5t-2.5 3q-2 2 -3.5 5.5t-2.5 6.5t-3 5.5t-5 4.5l-1.5 0.5t-2.5 0.5t-2 0.5t-2 0.5l-2.5 1t-3.5 2q-2 1 -3 5t-2 10t-1.5 13t-1 13.5t-0.5 12v8.5q0 4 0.5 7t0.5 7v1l-0.5 2.5t-0.5 3.5v2q0 1 -0.5 5.5
t-0.5 10t-0.5 12t-1 12.5t-0.5 10.5v5.5v6q0 1 -1 3l-1 2v1zM79 117v0q1 1 3 2.5l4 3t4 3.5l2 2v32l-0.5 0.5t-1.5 0.5v0q-2 0 -3 -1t-2 -2.5t-1.5 -3t-0.5 -2.5q-1 -1 -1 -3.5t-0.5 -6t-0.5 -6v-3.5l-1.5 -1.5t-1.5 -0.5q-4 0 -3 3q2 9 0 17.5t-8 14.5h-1h-1q-3 0 -3 -3
v-33q0 -2 2 -4.5t4.5 -4t5.5 -3t5 -1.5zM64 109v-3v-2.5t0.5 -5t0.5 -5v-2.5q2 -2 4 -3t4 -1q1 0 2 1.5t1.5 3.5t0 3.5t-0.5 3.5v4t-1.5 5.5t-3 4t-4.5 1.5t-3 -2v-3zM84 106v-3v-3t0.5 -4.5l1 -5t0.5 -3.5h2q3 0 4 2t1.5 4.5t0.5 5.5v4t-0.5 4.5t-0.5 5.5q0 1 -0.5 1h-2.5
t-4 -3t-2 -5zM126 88q0 -5 3 -10.5t10 -5.5q1 0 2.5 0.5t2.5 1.5v1.5v2.5q0 2 -1 5t-2.5 5.5t-3.5 4t-5 1.5q-2 0 -3.5 -1.5t-2.5 -3.5v-1zM175 72h19l0.5 1t0.5 2.5t0.5 3t0.5 2.5v2t-0.5 4l-1 4t-1.5 3h-2q-1 0 -3.5 -1t-5.5 -2.5t-5 -3t-2 -3.5v-12zM128 58v-2t0.5 -3.5
l1 -3t1.5 -1.5h13q1 0 1 1.5v1.5v3t-0.5 5t-1.5 5t-2 2h-11q-1 0 -1.5 -1t-0.5 -3v-2v-2zM174 58q0 -6 1.5 -9.5t7.5 -3.5t10.5 3.5t3.5 10.5q0 1 -1 2t-2 1h-19q-1 0 -1 -1.5v-2.5z" />
</svg>
