<?xml version="1.0" standalone="no"?>
<!DOCTYPE svg PUBLIC "-//W3C//DTD SVG 1.1//EN" "http://www.w3.org/Graphics/SVG/1.1/DTD/svg11.dtd" >
<svg xmlns="http://www.w3.org/2000/svg" xmlns:xlink="http://www.w3.org/1999/xlink" version="1.1" viewBox="-10 0 266 256">
   <path fill="currentColor"
d="M179 185q0 3 0.5 9t2.5 13.5t4 15.5t5 14.5t6.5 11t8.5 4.5q2 0 3 -1t1 -3v-1.5v-0.5q-3 -5 -6 -9.5t-6 -9.5t-5.5 -10t-2.5 -12q0 -1 -0.5 -3t-0.5 -5v-5v-4v-5v-5t0.5 -5.5l0.5 -2.5q0 -1 0.5 -5t1 -8.5t1 -8.5t0.5 -5v-4v-7v-7v-4t1.5 -3.5l3 -5t2.5 -5t2 -3.5v-5
q0 -3 -1 -8t-2.5 -9t-4.5 -7t-8 -3q-2 0 -2.5 0.5t-0.5 2.5q0 3 1.5 5.5t3.5 5t3.5 5t1.5 5.5v4t-1 4t-2 3.5t-3 1.5q-1 0 -3.5 -2.5t-5.5 -6.5t-7 -7t-9 -3l-1.5 0.5t-2.5 0.5q1 1 3.5 3l5 4t4.5 4.5t3 3.5t3 3.5t2 3.5q1 3 -1 4.5t-5 1.5q-5 0 -10 -2.5t-9 -2.5h-1l-1 2v1
v1q2 3 6 4.5t8.5 2t8.5 0.5t8 -1q2 1 1.5 2.5t-0.5 2.5q0 5 0.5 10.5t0 11t-1.5 10.5t-4 9v3v4v5v2zM48 189q0 5 1 9.5t1 9.5t0.5 11l1 12t1 10l0.5 4l4 2q2 -3 2.5 -6.5t0.5 -8.5q0 -8 -0.5 -16.5t-0.5 -16.5v-10t0.5 -10.5t2 -10.5t4.5 -9q2 -3 8 -9.5t12.5 -13.5
t11.5 -13.5t5 -10.5v-22q0 -3 -2 -5.5t-5 -4.5t-6.5 -3t-5.5 -1q-9 0 -16.5 6.5t-12.5 16t-8 19.5t-3 18q4 0 6 -2.5t4 -6.5t3.5 -7.5t2.5 -5.5h1q2 0 3.5 1.5t2.5 4t1.5 5l0.5 2.5h4q0 -3 -1.5 -6t-2.5 -6t-2.5 -5.5t-1.5 -5.5q0 -4 1 -5.5t4 -1.5q4 0 6 2t3.5 5t2.5 6.5
t4 4.5q2 0 2 -1.5v-2.5q0 -3 -1.5 -6t-3.5 -5.5t-4 -4.5t-2 -5q0 -2 2 -3.5t4 -1.5q5 0 7 2t5 7v4v4q0 9 -3.5 15.5t-8.5 12t-11 10.5t-11.5 11.5t-9 15.5t-3.5 22zM110 146q0 4 2.5 7t5 4.5t4.5 2.5t2 3v77q0 1 0.5 1.5t1.5 0.5h1v0q1 0 2 -1.5t2 -1.5l2 -2t1 -2v-64
q0 -5 2 -8t4.5 -5.5t4.5 -5t2 -6.5t-1 -6.5l-2 -5l-2 -5t-1 -5.5q0 -5 2 -10t2 -10t-0.5 -8.5t-1.5 -8.5q6 -2 8.5 -7.5t2.5 -11.5t-2 -11.5t-2 -12.5q0 -4 1 -7.5t2.5 -6.5t3.5 -6t3 -7h-2q-4 0 -7.5 3t-5.5 7t-3 8.5t-1 7.5q0 7 2 13t2 12v4v4q-2 4 -5 4q-2 0 -3 -1l-2 -2
t-1.5 -2t-2.5 -1q-1 0 -2.5 1t-2 2t-2 2t-2.5 1h-2.5t-2.5 -2v-3.5v-3.5q0 -5 1.5 -9.5l3 -9l3 -9t1.5 -9.5q0 -4 -1 -7t-4 -6l-2.5 -2.5l-3 -3l-2.5 -2.5l-1 -1h-7q0 5 2.5 9t6.5 6v5v4q0 4 -1 8t-2 7.5t-1.5 7.5t-0.5 8t0.5 8.5t2.5 7.5q0 1 1.5 2t3 2.5t3 2.5t1.5 2v2v4
v5v2q0 4 1.5 7.5t1.5 7.5q0 3 -2 6t-4.5 6t-5 6.5t-2.5 7.5zM117 146q0 -3 1.5 -5.5l3 -5t4 -4t5.5 -1.5q5 0 7 4t2 8q0 2 -1.5 5.5t-3.5 3.5h-14l-1 -0.5t-1 -1.5l-1 -1.5zM127 100v-8q1 -2 2 -2h2q4 0 5.5 4t1.5 7v4q0 2 -0.5 4t-1.5 3.5t-3 1.5t-3.5 -2t-2 -4t-0.5 -4v-4
z" />
</svg>
