<?xml version="1.0" standalone="no"?>
<!DOCTYPE svg PUBLIC "-//W3C//DTD SVG 1.1//EN" "http://www.w3.org/Graphics/SVG/1.1/DTD/svg11.dtd" >
<svg xmlns="http://www.w3.org/2000/svg" xmlns:xlink="http://www.w3.org/1999/xlink" version="1.1" viewBox="-10 0 266 256">
   <path fill="currentColor"
d="M198 195q0 2 0.5 7t1 10.5t1 10.5t0.5 7v4.5v7t1.5 6.5t4.5 3q4 0 5 -4t1 -8v-2q0 -2 -0.5 -5.5t-0.5 -6.5t-0.5 -6l-0.5 -3q0 -3 -1 -9t-2 -13t-2.5 -12.5t-2.5 -6.5q-5 -4 -10 -6.5t-9.5 -5.5t-6.5 -8t-2 -15v-2t1 -4t1.5 -3.5t2.5 -1.5h28l0.5 -1t1.5 -1
q0 -1 0.5 -2.5l0.5 -1.5q0 -1 -1 -1.5l-2 -1t-2.5 -0.5h-1.5q-6 0 -12 0.5t-12 0.5q-3 0 -4 -2t-1 -5t2 -7.5t5.5 -9.5t6.5 -8.5t6 -3.5t5 3.5t3.5 7.5t3.5 8t6 4q1 0 3 -0.5t2 -1.5v-12q-5 -3 -9.5 -8.5t-7.5 -11.5v-2v-4v-4v-3q0 -11 1 -21t1 -21q0 -3 -1 -4.5t-4 -1.5h-2
h-1q-1 1 -1.5 3.5t-0.5 3.5q0 2 0.5 8t0.5 13t-0.5 13t-0.5 8t-1 6.5t-3 9.5t-4.5 8.5t-5.5 3.5h-0.5h-0.5l-0.5 -1t-1.5 -1v-12q0 -13 1 -25t1 -25v-4v-4q-1 -3 -5 -3q-1 0 -3 0.5t-2 2.5v136q0 8 3.5 12t8 6.5t9 5.5t6.5 8q0 1 1.5 4.5t1.5 4.5zM142 228q0 1 1 2l2 2v0
q2 0 3 -2.5t2 -3.5v-10.5t0.5 -15.5t0.5 -15.5v-10.5v-2q0 -3 -0.5 -5.5t-0.5 -5.5v-3v-2.5t0.5 -3.5t0.5 -3.5v-2.5q1 -4 1 -12t0.5 -18t1.5 -21t1.5 -21t0.5 -18v-11v-7v-4q0 -1 -0.5 -2.5t-1.5 -3.5t-3 -5q-9 0 -18 -1t-18 -1v7h10l0.5 1.5t0.5 2.5v1q0 21 -1.5 42
t-3.5 42t-3.5 42t-1.5 42v6q1 0 2 1.5t2 2.5v0v0q1 0 2.5 -5.5t2.5 -14.5t2 -20t2 -21.5t1.5 -19.5t0.5 -14q0 -2 0.5 -8t1 -12.5t0.5 -14t0.5 -14.5t0.5 -12.5t1 -8.5q0 -1 0.5 -5t0.5 -5q1 -1 1.5 -2.5l0.5 -1.5h8q1 0 1.5 2t0.5 4.5v4.5v4q0 21 -1 42.5t-2.5 43
t-2.5 43.5t-1 43q0 1 0.5 4.5t0.5 4.5zM49 188q0 11 1 18t4 11t9.5 6t16.5 2t14.5 -4t6.5 -10t2 -14v-16q0 -3 -1 -5.5t-4 -5.5q-3 2 -3.5 3.5t-0.5 3.5t-1 3t-5 1h-4.5t-3.5 -2q0 -1 -0.5 -4.5t-0.5 -4.5q0 -9 1.5 -13.5t3 -6.5t4 -3t4.5 -2t4 -3t4 -6q0 -5 0.5 -10.5
t0.5 -10.5v-3v-2.5t-0.5 -2.5t-2.5 -1h-2.5t-1.5 2v24q0 1 -1.5 2t-3 1.5l-3 1t-2.5 0.5h-1.5t-1.5 -1v-44q7 -3 11.5 -5.5t5.5 -10.5q0 -1 0.5 -4.5l1 -7l1 -7t0.5 -4.5q1 -1 2.5 -2t3.5 -2t3 -2t1 -3t-1.5 -2.5t-3.5 -0.5h-1q-4 0 -12.5 0.5t-18 1t-18 1t-11.5 1.5
q-3 0 -4.5 1t-1.5 4t2.5 4t5 1t5 0.5t3.5 2.5q0 9 0.5 14.5t3.5 12.5q1 2 3.5 2.5l5 1t4 1.5t1.5 3v2q0 2 -0.5 8t-0.5 13t-0.5 13t-0.5 8q-1 2 -2.5 2h-3.5q-5 0 -7.5 -4.5t-3.5 -10t-1 -11.5v-9h-7v33q0 2 3 5.5t6 3.5l2.5 0.5t5 0.5t4.5 0.5t3 0.5l1 3v4.5v4.5q0 3 0.5 7
t-0.5 7.5t-2.5 6t-5.5 2.5q-3 0 -3.5 -2.5t-1.5 -5l-2 -5t-4 -2.5l-1 1l-0.5 1t-0.5 2v3q0 3 -0.5 5.5t-0.5 4.5v3zM59 199q0 -5 3 -7t6.5 -2.5t7.5 -0.5h7q1 0 5 0.5t5 0.5q1 1 1.5 2.5t0.5 3.5q0 10 -4 15t-14 5q-8 0 -13 -4t-5 -13zM65 61v-4.5t3 -3.5h3t5 -0.5t5.5 -1
t3.5 -0.5h1q3 0 4 2.5t1 5.5q0 6 -0.5 12t-5.5 10h-4h-2q-9 0 -11.5 -5.5t-2.5 -14.5zM59 20q0 2 1.5 3t3.5 1.5t4 0.5h4h1l2 -1t3 -1h3.5t5.5 -0.5t5.5 -0.5h3.5q2 -1 2 -4t-2 -4t-4 -1h-2h-2q-2 0 -5.5 0.5t-8 1t-8 1t-5.5 0.5q-1 1 -1.5 2t-0.5 2z" />
</svg>
