<?xml version="1.0" standalone="no"?>
<!DOCTYPE svg PUBLIC "-//W3C//DTD SVG 1.1//EN" "http://www.w3.org/Graphics/SVG/1.1/DTD/svg11.dtd" >
<svg xmlns="http://www.w3.org/2000/svg" xmlns:xlink="http://www.w3.org/1999/xlink" version="1.1" viewBox="-10 0 266 256">
   <path fill="currentColor"
d="M49 248q0 3 3 3h2q1 0 3 -0.5l2 -0.5q7 -4 11.5 -8t8 -8.5t5 -10.5t3.5 -13q10 -1 17 -4t11 -8.5t6 -13t2 -16.5h-2q-1 0 -3 4.5t-4.5 10t-6.5 10t-9 4.5h-3.5t-1.5 -3v-20l-16 -16q-2 -1 -3 -6t-1 -7v-3q4 -4 7.5 -6.5t9.5 -2.5q2 0 4.5 0.5t5 2t4.5 3.5t2 4q0 5 -3.5 8
t-6.5 6v1v0q1 1 2 1.5t2 0.5q3 0 6 -1.5t4 -4t2 -5.5t1 -6q0 -9 -5.5 -14.5t-15.5 -5.5q-5 0 -10 1t-8.5 4t-6 7t-2.5 10v7q1 1 3.5 4t5 6.5t5 6.5t3.5 4q1 2 2 3.5t1 4.5q0 1 -0.5 4l-1 6t-1.5 5.5t-3 2.5q-6 0 -9.5 -3t-5.5 -7.5t-3.5 -9.5t-3 -9.5t-3.5 -7.5t-5 -3
q0 11 1.5 19.5t6.5 18.5q2 3 5 4.5t5.5 3t4.5 3.5t2 6q0 6 -2.5 10.5t-6 8.5t-7.5 7.5t-9 6.5v1zM159 186q0 1 0.5 4l1 6t0.5 6v4q1 4 2 10.5t3.5 12.5t6 11t9.5 5q2 0 3 -0.5t1 -3.5v-2q-6 -3 -9.5 -9t-5.5 -13t-3 -14.5t-1 -12.5q0 -2 0.5 -4.5t3.5 -3.5q2 0 6.5 -0.5
t8 -2t6.5 -4.5t3 -7v-19q0 -2 -2 -4t-4.5 -3t-4.5 -2.5t-2 -3.5v-13l0.5 -0.5l1.5 -1.5q5 -2 9.5 -4t7.5 -5t4.5 -7.5t1.5 -10.5q0 -8 -3 -14t-7 -10t-7 -7.5t-3 -6.5q0 -5 3 -10t6 -9.5t6 -8.5t3 -8q0 -1 -2 -1h-2h-2.5t-1.5 1q-4 5 -7 8.5t-5.5 7.5t-4 8.5t-1.5 9.5
q0 7 3 11t7 8t7 8.5t3 9.5q0 2 -0.5 4.5t-1 5.5t-1.5 5.5t-2 2.5h-13q-2 0 -3 -2.5t-2.5 -6t-4 -6t-5.5 -2.5l-1.5 0.5l-1.5 0.5q-1 0 -2.5 2.5l-3 5t-3.5 4.5t-4 2q-4 0 -6 -4t-2 -7q0 -7 2.5 -12.5t6 -10.5t6 -10t2.5 -12v-8.5t-1 -7.5q-2 -2 -4.5 -5t-5 -5.5t-5.5 -4
t-6 -1.5h-3t-2 1q0 3 3 6t6.5 7t7 8.5t3.5 10.5t-3 10.5t-6.5 9t-6 9t-2.5 10.5q0 8 2.5 13t5.5 9t5.5 8t2.5 11q0 4 -2 7l-4 6t-4 6.5t-2 7.5q0 10 2.5 14t6 5.5t7 2.5t5.5 5zM146 159q0 -2 0.5 -5t2 -5.5t3.5 -4.5t6 -2l21 2q3 0 4.5 2t3 4.5t2 5t0.5 4.5q0 5 -2.5 8
t-6 4.5t-8 1.5h-8.5h-9q-6 -1 -7.5 -5.5t-1.5 -9.5zM156 126q0 -3 0.5 -6.5t1.5 -7t2.5 -6t3.5 -2.5q4 0 6.5 2t3.5 5t1.5 6.5t0.5 6.5q0 6 -1 9t-7 3t-9 -2.5t-3 -7.5zM88 101q3 1 8.5 4.5l11 7t10 6.5t5.5 3t1 -1l0.5 -0.5t1.5 -0.5v-1v-1q-5 -6 -11.5 -12.5l-11.5 -11.5
l-0.5 -1.5l-0.5 -1.5q0 -3 2 -5t4.5 -3.5t4 -3.5t1.5 -5v0v-1l-0.5 -0.5l-0.5 -0.5h-0.5h-0.5h-1v0l-11 11q-2 2 -3.5 2.5t-3.5 0.5q-3 0 -6 -1.5t-5.5 -4t-5.5 -4t-6 -1.5h-1q-1 0 -1.5 0.5t-0.5 1.5q0 2 2 4t4.5 4t4.5 4t2 5q0 2 -3.5 4.5t-8.5 5.5t-9.5 6t-6.5 5h5
q9 0 16.5 -4.5t14.5 -9.5zM85 42q0 5 -3.5 8t-8 5.5t-8.5 5.5t-4 8q7 0 12 -3t9 -7l7 -7t7 -3t6.5 2t5.5 4.5t6.5 4.5t6.5 2h1v0l1 -0.5l1 -0.5v-1v-1l-2.5 -2.5t-4 -3.5t-4 -4t-2.5 -3q-2 -2 -4 -2.5t-3 -3.5l3.5 -3.5t4.5 -5t4 -4.5l3 -3q0 -1 0.5 -2l1 -2t1 -2.5
l0.5 -1.5v-1.5v-0.5h-3q-1 1 -4 4.5t-6.5 6l-7 5t-6.5 2.5h-2.5t-2.5 -2q-2 -1 -5 -3t-6 -4.5l-6 -5t-4 -3.5h-6q0 5 3.5 8.5t7.5 6t7.5 5.5t3.5 8z" />
</svg>
