<?xml version="1.0" standalone="no"?>
<!DOCTYPE svg PUBLIC "-//W3C//DTD SVG 1.1//EN" "http://www.w3.org/Graphics/SVG/1.1/DTD/svg11.dtd" >
<svg xmlns="http://www.w3.org/2000/svg" xmlns:xlink="http://www.w3.org/1999/xlink" version="1.1" viewBox="-10 0 266 256">
   <path fill="currentColor"
d="M87 210q0 1 2 2l5 2.5t6 2.5t4 2q1 0 4 2.5t6.5 5t6.5 5.5l4 4q2 1 3 3.5l2 5t1.5 4.5t1.5 2q2 0 3 -1.5t1.5 -3.5t0.5 -4q0 -3 1 -4q1 -2 4.5 -6t7.5 -8.5t8 -8t7 -4.5q1 0 3.5 -0.5t4.5 -1t3.5 -1.5t1.5 -3v-1v0l-19 -3q0 -1 -0.5 -2t-0.5 -2q0 -2 2 -4t4.5 -4t5 -3.5
t3.5 -2l4 -2t6.5 -3t6.5 -3t4 -2.5q2 0 2 -2v-3q-9 0 -18 3.5t-16 9.5q-1 1 -3.5 4l-5 6t-5 5.5l-2.5 2.5h-12q0 -12 6.5 -22t18.5 -15q2 0 4.5 -1t5.5 -2t5 -2.5t4 -3.5q-1 -2 -3 -1.5t-3 0.5q-19 0 -38 1t-38 5l-0.5 0.5l-0.5 0.5q0 2 5 5t11.5 7.5t11.5 11t5 15.5
q0 4 -3 5t-6 1h-4q-10 -12 -23 -20t-29 -8h-2.5h-1.5l-0.5 1.5t-1.5 1.5v1q0 2 2 3t4.5 1.5t4.5 0.5h3t3 0.5t3.5 1t3.5 1l2 0.5q1 1 2.5 1.5t3.5 1.5l4 2t3 1q0 1 1.5 1.5t3 2l3 3t1.5 3.5t-1 2t-4 1h-3t-4 0.5t-4 0.5h-3v2zM113 216q0 -3 5.5 -4.5t12 -2.5l13 -2t8.5 -1
q1 0 2.5 0.5t1.5 2.5v1q-3 2 -5.5 5.5t-5 6.5t-6 5t-7.5 2h-2q-1 0 -2.5 -1.5t-3.5 -3t-3.5 -2.5t-2.5 -2q-2 -1 -3.5 -1.5t-1.5 -2.5zM119 165q0 -2 3 -3.5t7.5 -2t8.5 -1t6 -0.5h3.5t2.5 3q0 2 -2.5 4.5t-6 5t-7 4t-5.5 1.5h-2q-4 -2 -6 -4.5t-2 -6.5zM95 144q0 1 1.5 1.5
l1.5 0.5q1 0 1.5 -0.5t0.5 -1.5v-25q1 0 2.5 -0.5l3 -1t3 -0.5h1.5q2 0 3.5 2t3.5 4.5l4 5t3 3.5v-2.5v-2.5q0 -6 -3.5 -10t-8 -6t-8 -3.5t-3.5 -4.5t2.5 -4t6 -3t6 -5.5t2.5 -11.5q0 -6 -3 -8.5t-6.5 -3.5t-6.5 -2t-3 -4q0 -2 3.5 -3.5t7.5 -4.5t7.5 -8t3.5 -13v-7
q-1 0 -2 -0.5l-1 -0.5q-1 0 -1.5 3t-2 7l-3 8t-2.5 5q-1 0 -4 -1t-4 -1v-23q0 -2 -1 -4t-3 -2t-3 1t-1 2v26q-1 0 -3.5 1t-3.5 1q-3 -2 -4.5 -4.5t-3 -5.5t-3.5 -5t-5 -2q0 2 0.5 5.5t2 6.5l3 6t4.5 5q2 2 4.5 2t4 0.5t2.5 1.5t1 5q0 5 -3.5 7t-7.5 3.5t-7.5 3.5t-3.5 7
q0 6 4 9t8.5 4.5t8 2.5t3.5 4q0 4 -4 6t-9 5.5t-9 9t-4 18.5q3 0 5.5 -3.5t5 -8t6 -9t8.5 -6.5q2 7 2 14.5v14.5zM110 143l2 1h1h3.5h3.5h3h18t18 -3l1.5 -1t1.5 -2v0v-1v0v0q0 -1 -0.5 -1.5t-1.5 -0.5h-5q-4 0 -10.5 0.5t-12.5 1t-12 2t-10 4.5zM150 120v4.5t3 2.5
q2 -4 3.5 -8t5.5 -7q3 -2 7 -3.5t7.5 -3t6 -4.5t2.5 -9q0 -3 -3 -5t-6 -3.5t-5.5 -3.5t-2.5 -7q0 -1 1.5 -2t3 -1.5t3 -2t1.5 -5.5q0 -2 -0.5 -4t-2.5 -2t-3 0.5t-2 1.5t-1.5 2.5t-1.5 3.5q-2 2 -8 3.5l-12 3t-11 3t-5 5.5h11l1 1l2 2v1q0 4 -3 7t-6.5 5t-6.5 4.5t-3 6.5
q2 0 5.5 -1t6.5 -3t5.5 -4t4.5 -4q0 -1 0.5 -4t2 -6.5t3 -6.5t3.5 -3q1 0 4 3t6 7.5t5.5 8t2.5 4.5q0 2 -4 3.5t-8.5 3.5t-8 5.5t-3.5 10.5zM81 84q0 -5 4 -6t8 -1v14q-4 0 -8 -0.5t-4 -6.5zM101 72q4 0 7.5 2t3.5 6t-2 6.5t-6 2.5h-2t-1 -1v-16zM171 35q-1 0 -6.5 3t-12 6
t-11.5 6.5t-5 4.5q9 0 17.5 -3.5t17.5 -6.5v-10zM169 9q-1 0 -2 1t-1.5 2t-1 3t-1.5 3q-2 4 -6.5 5.5l-9 3t-9 3.5t-7.5 6h3q5 0 10 -1t10 -2.5t9 -3.5l8 -4q3 0 3 -1.5v-3.5v-3t-0.5 -4t-1.5 -3t-3 -1z" />
</svg>
