<?xml version="1.0" standalone="no"?>
<!DOCTYPE svg PUBLIC "-//W3C//DTD SVG 1.1//EN" "http://www.w3.org/Graphics/SVG/1.1/DTD/svg11.dtd" >
<svg xmlns="http://www.w3.org/2000/svg" xmlns:xlink="http://www.w3.org/1999/xlink" version="1.1" viewBox="-10 0 266 256">
   <path fill="currentColor"
d="M156 245q0 2 1 4t4 2q2 0 3.5 -1.5t2.5 -3.5t1.5 -4.5t0.5 -4.5v-7v-11v-11v-7l2 -1h6h8h9h6t5 -1.5t3 -4.5v-1q-1 0 -4 -0.5t-6.5 -0.5t-7 -0.5t-4.5 -0.5h-3h-5.5h-4.5h-4v-20q0 -1 1.5 -1t3.5 -0.5t4 -0.5h3h4.5h6.5h7h4q1 -1 1.5 -2t0.5 -2v-1v0q-1 -3 -4 -3.5
t-6 -0.5h-5h-4h-3.5t-5 -0.5t-5 -0.5t-3.5 -1v-1q0 -4 3 -9t7 -9.5t8.5 -7.5t7.5 -3t4.5 0.5t3.5 1.5t3.5 2t3.5 1t3 -1t1 -3q0 -3 -0.5 -3.5t-3.5 -2.5q-1 -1 -3.5 -3t-5.5 -4t-5 -3.5t-3 -1.5q-4 -3 -8.5 -4.5t-8.5 -3.5t-6.5 -5.5t-2.5 -9.5v-2.5v-3.5q1 -1 2 -1.5
t2 -0.5q5 0 10.5 2.5t10.5 5.5t10 5.5t9 2.5q2 0 4 -0.5t2 -2.5q0 -3 -3 -5.5t-7.5 -4t-8.5 -3t-7 -2.5q-1 0 -3.5 -1t-6 -1.5t-6.5 -1t-4 -1.5q-1 0 -1.5 -1t-1.5 -2t-1.5 -2t-0.5 -2q0 -2 3.5 -3t8.5 -1.5t10.5 -1.5t10 -3t7.5 -6t3 -11q0 -10 -5.5 -15.5t-13.5 -8
t-16.5 -3t-15.5 -0.5q-6 0 -12.5 1.5t-12 4.5t-9 8t-3.5 12t4 11t9 6.5t11 3.5t11 1q2 2 2.5 4.5t0.5 4.5q0 1 -3.5 2.5t-8 3l-10.5 3.5t-11 4.5t-8.5 5t-3.5 5.5q0 1 1 1t2 0.5t2 0.5h1q4 0 8.5 -2.5t8.5 -5.5t8 -5.5t9 -2.5h2t1 2v17l-3 2.5t-8 5t-11 6t-10.5 6.5t-8 6
t-3.5 4q0 2 3 2t5 -1t4 -2.5t4 -2.5t4 -1t2.5 0.5l1.5 1.5q3 3 6 6.5t6.5 7t5.5 8t2 9.5v3t-1 2h-5.5t-7.5 0.5t-7.5 0.5t-5.5 1q-3 0 -4.5 0.5t-1.5 2.5q0 1 0.5 1.5l0.5 0.5q1 0 3.5 0.5t3.5 1.5h25l0.5 2.5t0.5 5t0.5 4.5t0.5 3v2q0 1 -0.5 2.5t-1.5 1.5h-43q0 3 2 5.5
t5 2.5h35l1 1v2v3v4v3q0 9 -0.5 16.5t-0.5 15.5zM45 171q0 12 0.5 21t3.5 15t10 8.5t21 2.5q9 0 12.5 -1.5t4.5 -5t1 -7.5t3 -10v-39l-1 -0.5t-2 -1.5h-1h-1l-2 2l-2 2q0 1 0.5 4.5t0.5 7t-1 6.5t-4 3t-4.5 -1.5t-2 -3.5t-0.5 -4v-6v-3v-3t0.5 -4.5t0.5 -4.5v-3q2 -3 4 -3.5
t5 -1.5q5 -2 7.5 -6.5t3.5 -9.5t1 -10v-10v-10q0 -3 -1 -3.5t-3 -0.5q-3 0 -4 3.5t-1 8t0.5 10t0 10.5t-2.5 8t-6 3h-2.5t-1.5 -2v-3v-4v-4v-3v-3.5v-4.5v-4.5v-2.5q0 -2 0.5 -5t0.5 -6t0.5 -5l0.5 -2l10 -11v-4t0.5 -6l1 -6t0.5 -4q0 -3 2.5 -4t5 -1.5t4.5 -1.5t2 -3
q-1 -4 -3.5 -4h-4.5q-15 0 -30.5 1.5t-30.5 2.5l-1.5 1t-1.5 2v0.5v0.5v0.5v0.5l1.5 0.5t1.5 1.5h3t4 0.5t4 0.5h3l3 4l0.5 2.5t0.5 5t0.5 4.5t0.5 3q0 2 1.5 3.5t3.5 3t4 2.5t3 3q1 5 1 9.5t0.5 8.5t0.5 8v9v14q-1 1 -2 1.5t-2 0.5h-2h-1q-5 0 -7.5 -3t-3 -7t0 -9.5
t0.5 -9.5q0 -5 -1 -7.5t-5 -2.5q-2 0 -3 1t-1.5 3.5t-0.5 4.5v4q0 7 1 12.5t3 13.5q1 3 5 4.5t7.5 2.5t6.5 1.5t3 1.5q-1 9 0.5 15.5t1.5 14.5q0 2 -0.5 4t-3.5 2h-12l-3 -3v-3.5v-5.5v-5v-4t-1 -2.5t-2 -0.5q-5 0 -7 3v13zM55 191q0 -2 1.5 -3t3.5 -1.5t4 -0.5h3h4
t6.5 -0.5t6.5 -0.5h5v20q0 2 -1.5 3t-4 1.5t-4.5 0.5h-3q-9 0 -15 -4.5t-6 -14.5zM144 117q0 -3 2.5 -5t6 -3t7 -1.5t4.5 -0.5q3 0 7 1t7 2.5t5 4.5t3 6q0 1 -1.5 2.5t-3.5 3t-3.5 3l-1.5 1.5q-1 1 -2.5 4t-3 5.5t-3.5 4.5t-4 2h-0.5h-0.5q-1 0 -1 -2q-6 -8 -10.5 -13.5
t-6.5 -13.5v-1zM68 58q0 -3 1.5 -4.5t3.5 -2.5t4 -1.5t4 -0.5h3q3 0 3 2v7v4.5t-1 5t-2.5 4.5t-4.5 2t-5.5 -2t-3.5 -4t-1.5 -5t-0.5 -5zM152 26q0 -4 1 -5t4 -1t6.5 3.5t7 8.5t5.5 9.5t2 7.5t-2.5 4.5t-5.5 1.5q-4 0 -7.5 -3.5t-6 -8.5t-3.5 -9.5t-1 -7.5zM130 36
q0 -4 2.5 -7.5t7.5 -3.5q2 0 2.5 1t1 3t1 3.5t0.5 3.5q1 0 1.5 2.5t2 4.5t2.5 4t1 3t-2 1h-3q-7 0 -12 -4t-5 -11zM176 25v-3q9 0 15 5t6 14v3.5v3.5q-1 1 -2 1.5t-2 0.5h-2h-1h-2.5h-1.5zM48 18v2.5t2 1.5h5.5h5.5h8.5t13 -0.5t11.5 -2t5 -3.5q0 -3 -2.5 -3.5t-4.5 -0.5
q-11 0 -22 1.5t-22 1.5v3z" />
</svg>
