<?xml version="1.0" standalone="no"?>
<!DOCTYPE svg PUBLIC "-//W3C//DTD SVG 1.1//EN" "http://www.w3.org/Graphics/SVG/1.1/DTD/svg11.dtd" >
<svg xmlns="http://www.w3.org/2000/svg" xmlns:xlink="http://www.w3.org/1999/xlink" version="1.1" viewBox="-10 0 266 256">
   <path fill="currentColor"
d="M53 198q0 8 0.5 17.5t1.5 16.5q0 7 3.5 10.5t8 5t9.5 1.5h10q2 0 6.5 -1t8.5 -2.5t7.5 -4.5t3.5 -7v-45q0 -3 -1 -6t-4 -3t-3.5 2.5t-1 6t-0.5 6t-2 2.5h-11q-2 0 -3 -2.5t-1.5 -6t-0.5 -6.5v-5q0 -8 1.5 -11.5t4 -5t6 -2t6 -1t4.5 -2.5t3 -7t1.5 -13t0.5 -14
q0 -3 -0.5 -6t-4.5 -3q-1 0 -1 1l-0.5 0.5l-0.5 0.5q-1 1 -2 2.5l-1 1.5v28q0 1 -1.5 2t-2.5 2l-1.5 0.5l-3 1t-2.5 0.5h-1q-1 0 -3 -1.5t-2 -2.5v-12t-0.5 -12l-1 -12t-0.5 -12q0 -4 3 -5.5t6.5 -2.5t6.5 -2t3 -5v-25l16 -4v-5q-20 0 -39 1.5t-38 2.5l-0.5 1l-0.5 1
q0 5 2.5 6t5 0.5t5.5 -0.5q2 0 3 3v7v6.5t1.5 6.5t4.5 4q1 1 3 1.5t4.5 1.5t4.5 2t3 1q-1 11 0.5 21t1.5 21v10q-1 0 -2.5 1l-1.5 1h-1q-4 0 -6 -2t-3 -5t-1 -6.5v-7.5q0 -1 -0.5 -3.5t-1 -4.5t-0.5 -3.5v-1.5h-7v5v6.5t0.5 7t0.5 4.5v2.5v3.5t0.5 3.5l0.5 1.5q1 3 4.5 4.5
t7.5 2.5t7 2.5t3 3.5v32l-1 1l-1 1h-6q-4 0 -6 -2.5t-2.5 -5.5t-1.5 -5t-4 -2h-0.5h-0.5q-2 5 -2 8v8zM131 241q0 3 2.5 4t4.5 1q9 0 17.5 -1t17.5 -1.5t17.5 -1t18.5 -0.5q1 -1 1 -2v-2q0 -3 -2 -4.5t-5 -1.5q-6 0 -12 1t-12 1h-5t-3 -4v-3v-4v-2q0 -3 0.5 -5.5t1 -4.5
t1.5 -2h22l0.5 -1t0.5 -2q1 0 1 -1t-1 -1l-1.5 -1.5l-1.5 -1.5h-20l-0.5 -1l-0.5 -1q-1 -2 -1.5 -5.5t-0.5 -6.5t-1 -5t-3 -2h-1q-1 0 -1.5 1l-0.5 1v19q0 1 -3 1h-6.5t-6.5 0.5t-3 3.5v2.5t1 1.5h13q2 0 2 2q1 1 1.5 3l0.5 2q0 1 -0.5 3.5t-0.5 4.5t-0.5 4.5l-0.5 2.5
q0 2 -1.5 2.5t-2.5 1t-2.5 0.5h-1.5q-1 0 -4 0.5t-6 0.5t-6 0.5t-4 0.5l-0.5 0.5t-0.5 1.5h-0.5t-0.5 1zM63 218v-8q1 -2 4 -4t5 -2h30l2 4l-2 26l-3 4l-2 0.5t-4.5 0.5t-5.5 0.5t-5 0.5q-10 0 -14.5 -5t-4.5 -17zM129 196q0 2 0.5 2.5t2.5 0.5q4 0 8.5 -5.5t9 -12
t9.5 -11.5t10 -5h2h2q1 1 3.5 3t5.5 4.5t5.5 4.5t3.5 3t2.5 3.5t4 5t5 4.5t4.5 2q3 0 3 -2v-4q0 -7 -6 -11.5t-14 -9t-14.5 -10t-6.5 -14.5q0 -6 3 -8.5t7 -4t8.5 -2t8.5 -2t7 -5t3 -9.5q0 -9 -2.5 -14.5t-6.5 -8t-10 -2.5h-13q-2 -1 -2.5 -3t-0.5 -5v-2v-3q1 0 3 -0.5
t4 -1.5l4 -2l2 -1q1 -1 2.5 -2l3 -2t2.5 -2t1 -2v-20q0 -2 3 -3t7 -1t6.5 -1t2.5 -5v-2t-2 -2h-16q-1 0 -1 -2v-5.5v-5.5t-2 -3q-2 -1 -4 -1h-2v17q0 1 -1 1t-3 0.5t-3.5 0.5h-3.5l-4 0.5t-6 0.5q-1 0 -4.5 -0.5t-4.5 -0.5q-2 0 -2.5 -2t-0.5 -4t-0.5 -3.5t-2.5 -1.5t-2.5 2
l-1 4t-0.5 3.5v1.5q-2 2 -5 2h-7q-3 0 -5.5 1t-2.5 5q0 2 1 3t3 1q4 0 7 -1t7 -1q3 0 4 3t1 7v8.5t2 7.5q1 3 3.5 4t4.5 2t3.5 3t1.5 6t-2 5.5t-5 2.5t-6.5 1.5t-6.5 3t-5 6.5t-2 12q0 6 2 10.5t5.5 6.5t8 3t9.5 1l2 2l1 19q1 2 -0.5 3.5l-3 3t-3 2.5t-2.5 2q-2 2 -5.5 6
t-8 9t-8 9t-4.5 6v1zM123 163l1 1l1 1h1h1l3 -1l3 -1l3 -3t4.5 -5t4.5 -5.5t3 -3.5l1 -1.5t1 -2.5q-1 0 -2 -0.5t-2 -0.5t-4.5 3t-7.5 6.5t-7.5 7.5t-3.5 5zM189 142q0 1 3 4t6.5 6t6.5 5.5t5 2.5v-1q1 0 2.5 -1.5l1.5 -1.5q1 -3 -2.5 -6t-8 -5t-9 -3t-5.5 -1v1zM143 108
q0 -5 2 -7.5t5.5 -3.5t7.5 -1.5t7 -0.5v8.5t-0.5 10.5t-2 8.5t-6.5 3.5q-6 0 -9.5 -5t-3.5 -13zM169 119v-1q1 -2 1 -5t0.5 -5.5t0.5 -5v-3.5l0.5 -1.5t1.5 -1.5h18q2 0 3 1t2 3t1.5 4.5t0.5 3.5q0 5 -2 8t-5 6q-1 0 -3.5 0.5t-5 1.5t-5 1.5t-3.5 0.5v0q-2 0 -3 -2.5
t-2 -3.5v-1zM63 71q0 -5 2 -7.5t5.5 -3t7.5 -0.5h7h4h3l2 2v17l-5 6h-6h-7.5t-6.5 -1.5t-4.5 -4.5t-1.5 -8zM153 47v-3v-2l2 -2l2 -0.5t5.5 -1t6.5 -0.5h5h3h3l1.5 -0.5t3 0t1.5 2.5v18q0 1 -1 2l-2 2t-2 1.5t-2 0.5h-20q-2 0 -3 -2t-2 -5t-1 -6v-4zM56 23v5h44q2 0 2 -1.5
v-1.5v-2q-3 -2 -5 -2h-5h-5q-1 0 -5.5 0.5t-9.5 0.5t-9.5 0.5t-6.5 0.5z" />
</svg>
