<?xml version="1.0" standalone="no"?>
<!DOCTYPE svg PUBLIC "-//W3C//DTD SVG 1.1//EN" "http://www.w3.org/Graphics/SVG/1.1/DTD/svg11.dtd" >
<svg xmlns="http://www.w3.org/2000/svg" xmlns:xlink="http://www.w3.org/1999/xlink" version="1.1" viewBox="-10 0 266 256">
   <path fill="currentColor"
d="M92 226q0 3 0.5 7.5t2 8t4.5 6.5t7 3h52q9 0 13 -6t4 -14v-7.5t-1 -7.5q-1 -1 -2 -1.5t-2 -0.5v0h-1t-2 1.5l-2 3t-2.5 3t-3.5 1.5h-21v-12q0 -2 3 -2.5t7.5 -0.5t10 -1t10 -4t7 -8t2.5 -15v-4q-1 -2 -2 -2h-2q-3 0 -4 2t-1 5v5.5t-2 6.5t-7 5t-14 2q-5 0 -7 -2t-2 -6
q0 -3 1.5 -4t3.5 -1.5t4 -1.5t4 -3v-4v-6t1 -6t4 -5h5t8 -0.5t8 -0.5h6q2 -1 5 -1t3 -4q0 -3 -3 -3q-9 0 -18 1l-18 2q-22 1 -43.5 0.5t-42.5 0.5q-2 0 -3.5 0.5t-3.5 0.5t-3.5 1t-1.5 3q0 3 2 3h5q7 0 14 -0.5t15 -0.5h3h4h4h3q1 4 1.5 9.5t3.5 9.5q2 2 5.5 3l7 2t6 2.5
t2.5 4.5q0 4 -2 5.5t-6 1.5q-6 0 -11.5 -0.5t-10 -3t-7 -7t-2.5 -11.5q0 -1 -1 -1.5t-2 -0.5q-2 0 -2.5 1t-0.5 4q0 10 4 15t10.5 7.5t14.5 2.5h15l0.5 2t0.5 3.5v2.5v2l-0.5 2t-1 3l-1 2l-0.5 1h-21q-2 -3 -4 -5t-5 -2t-3.5 2.5t-0.5 5.5zM101 238q1 -2 4.5 -3.5t7 -2
t6.5 -0.5h5t8.5 -0.5t13.5 -0.5h13h8q0 7 -4.5 10t-11 3.5t-13.5 0t-11 -0.5h-16l-5 -2.5t-5 -3.5zM111 170v-4t3 -3q4 -1 7 -1t5.5 -0.5t5 -0.5h6.5h2.5h2.5q2 3 2 4.5v4.5q0 4 -1.5 6t-4 3t-6 1h-6.5h-5.5t-5 -1t-4 -3t-1.5 -6zM170 140q2 1 5 2t6.5 2.5t7 2.5t4.5 1
q4 2 6 3.5t7 1.5h4.5t1.5 -4v-2t-2 -2q-1 0 -3.5 -1t-6 -2t-6.5 -2t-4 -1q-2 -1 -4.5 -1.5l-5 -1t-4 -2t-1.5 -4.5q0 -2 2 -3t3 -1q4 0 7 1t7 1q5 0 7.5 -3.5t2.5 -8.5t-2 -7.5t-4.5 -4t-6 -3t-6.5 -5.5q1 -3 3.5 -3.5t5.5 -1t5.5 -2.5t4.5 -6q1 -6 1 -10.5t0.5 -8t0.5 -7.5
v-9v-10q-1 -1 -2 -3t-3 -2q-1 0 -2 1.5l-2 3l-2 3t-2 2.5q-2 -1 -4.5 -2.5t-5 -3.5t-4.5 -4t-2 -4q0 -1 0.5 -1.5l0.5 -0.5q1 -1 2 -1.5t2 -0.5h22q3 0 4 -1.5t1 -3.5v-3h-4.5t-7 -0.5t-6.5 -0.5h-5h-2h-2q-1 0 -3 0.5l-2 0.5q-1 0 -4.5 0.5t-7 0.5t-7 0.5l-3.5 0.5
q-5 0 -8.5 2t-3.5 8v55l7.5 5t4.5 7q0 5 -4 8t-9 4.5t-10 2t-8 1.5q-1 0 -2 1.5t-1 2.5q0 2 2 2h2q6 0 13.5 -1t12.5 -4q4 -2 5.5 -5.5l3 -7t4 -6t7.5 -2.5q4 0 5.5 2.5t2.5 5t2 5.5t3.5 4t4.5 1h4t2.5 1t0.5 4v3q0 2 -1 2h-21l-1.5 1t-2.5 2l-0.5 0.5t-0.5 1.5v6
q0 2 -0.5 5t1.5 4zM44 147q0 3 2 3h4t7.5 -1t12 -3.5t13.5 -5.5t13 -6t10 -6t4 -5v-16q0 -1 -1.5 -1.5t-2.5 -0.5q-2 0 -2 1t-1 4q0 1 -0.5 3t-1 4.5t-1 4.5t-0.5 3q-1 1 -4 2.5t-4 1.5h-1q-1 0 -2.5 -1.5t-1.5 -2.5v-29l-2 -3l-3 1v3.5t-0.5 5.5t-0.5 5.5t-0.5 3.5t-1 2.5
t-1.5 1.5q-13 0 -13 -12h-2h-2t-1 1v13l3 4h15l0.5 1t0.5 2q1 0 1.5 1t0.5 2v1q0 4 -6 6t-13 3.5t-12.5 3t-5.5 5.5zM98 142l2 2h3.5t9 0.5t10.5 0.5h9h9q1 0 3.5 0.5t5 0t4.5 -1.5t2 -3t-1.5 -3.5t-3.5 -1.5q-13 0 -24.5 1.5t-23.5 1.5q-1 0 -2.5 1t-2.5 2zM55 93l0.5 1
t1.5 2h5h3t4 -0.5t3.5 -1.5t1.5 -3h-17q-1 0 -1.5 0.5t-0.5 1.5zM100 93l1 1h1.5t4 0.5t4.5 0.5t3 1h1q2 0 4 -1.5t2 -3.5h-20zM151 77h44q0 2 -1 4t-3 3q-1 1 -4 1t-6.5 0.5t-6 0.5h-4.5q-1 0 -3 -0.5l-4 -1l-4 -1t-3 -0.5l-2 -2l-3 -3v-0.5v-0.5zM54 80q12 -1 21.5 0
t20.5 1h14t14 -1l1 -0.5t1 -1.5l-1 -1.5l-1 -1.5l-2 -2h-64q-1 0 -3.5 1t-2.5 3v1l0.5 0.5zM149 59h46v11h-44l-0.5 -0.5t-0.5 -1.5q-1 -1 -1 -4.5v-4.5zM60 62v2t1 1h18l1.5 -1t1.5 -2v0v-1q0 -2 -1.5 -3t-2.5 -1h-1.5h-0.5q-1 0 -3 0.5t-4.5 0.5t-4.5 0.5t-3 0.5t-1 1v2z
M100 61q0 3 3 3.5t5 0.5h2q1 0 4.5 -0.5t4.5 -0.5q1 -1 1.5 -2l0.5 -1q-1 -3 -2 -3.5t-3 -0.5h-4q-2 0 -5 0.5t-5 1.5t-2 2zM151 49q1 0 3 -0.5l2 -0.5q1 -1 3.5 -2t5 -2.5t4.5 -2.5t3 -1h1h1q3 0 5.5 1t5 3l5 4t5.5 3l-2 1h-38zM60 24q0 11 3.5 17.5t15.5 6.5q10 0 20 -0.5
t20 -1.5q1 0 1.5 -0.5l0.5 -0.5v-1v-1l-1.5 -1.5l-0.5 -0.5h-21q-2 0 -2.5 -2.5t-0.5 -3.5q0 -2 0.5 -3t2.5 -2q9 2 14.5 -0.5t5.5 -11.5q0 -2 -0.5 -4.5t-3.5 -2.5q-2 0 -3.5 2t-2.5 4.5t-2.5 4.5t-5.5 2h-0.5h-1.5l-6 -13h-0.5h-0.5q-2 0 -3.5 1t-2 2.5t-0.5 4.5v3
q0 4 1 8t1 8q0 2 -1 2.5t-3 0.5q-8 0 -11 -3.5t-3.5 -7.5t-1 -7.5t-4.5 -3.5q-3 0 -3 1.5v3.5zM162 24q3 0 5 2.5t2 4.5q0 3 -2 4.5t-5 2.5l-6 2t-5 3v-14q0 -2 1.5 -2.5t3.5 -1l4 -1z" />
</svg>
