<?xml version="1.0" standalone="no"?>
<!DOCTYPE svg PUBLIC "-//W3C//DTD SVG 1.1//EN" "http://www.w3.org/Graphics/SVG/1.1/DTD/svg11.dtd" >
<svg xmlns="http://www.w3.org/2000/svg" xmlns:xlink="http://www.w3.org/1999/xlink" version="1.1" viewBox="-10 0 266 256">
   <path fill="currentColor"
d="M47 244q0 2 0.5 3l1.5 3q6 -2 10.5 -8t7 -14t4 -16t1.5 -13q0 -8 -1.5 -13.5t-3.5 -13.5v0v-2q0 -2 2 -4.5t5 -2.5t7 1t8 1h3t2 -2v-1l-1 -2h-3h-4t-4 -0.5t-3 -0.5q-2 -1 -4 -2.5t-2 -3.5q0 -5 3 -8t6.5 -5.5t6 -5.5t2.5 -7v-2t-1 -1q-5 3 -9.5 7.5t-8.5 9.5h-4
q-2 0 -3 -0.5t-1 -2.5q0 -5 2 -9.5t5.5 -8l7 -7l6.5 -6.5v-2q-5 0 -10.5 3.5t-9.5 9t-6.5 11t-2.5 10.5q0 2 0.5 7t0.5 11t0.5 12.5t1 12t1.5 9.5t2 4q1 1 1 3v3q0 12 -5 23q-1 2 -2.5 4.5t-3.5 5.5t-3.5 5.5t-1.5 4.5zM183 200q0 5 1 12.5t3.5 14.5t7 12t11.5 5
q0 -3 -0.5 -4.5t-1 -2.5t-2.5 -2t-3 -3q-3 -4 -4 -7.5t-1.5 -7t-0.5 -6.5v-8v-14q2 -6 4 -12.5t2 -13.5q0 -5 -1 -9.5t-1 -9.5v0v0q1 -3 3 -7t2 -7t-1 -7.5t-3 -8t-5 -6.5t-7 -3q0 4 1 7t2.5 6t2.5 6.5t1 6.5t-1.5 3.5t-3.5 0.5t-4.5 -1.5t-5 -3.5t-4 -4t-2.5 -4h-5
q0 5 2.5 7.5t6 5t6 5t2.5 6.5q0 5 -3 6.5l-6 3l-6 3t-3 5.5q2 0 5.5 -1t6.5 -2.5t6 -2.5t4 -1q1 1 1 2t0.5 2t0.5 2v1q0 5 -1 9.5t-2.5 8.5t-2.5 8.5t-1 9.5zM85 213v0v0q1 1 2 1.5l1 0.5h5h8h7h5h15h12.5t13 -1t14.5 -2q1 0 2 -0.5t2 -1.5v0v-1l-2 -2q-2 -1 -5 -1.5
t-5.5 -0.5t-5 -0.5t-4.5 -0.5v-2v-3v-3v-2q0 -4 0.5 -9.5t0.5 -11t0.5 -9.5l0.5 -4l3 -3v-3v-5v-9.5t-1.5 -8.5t-4.5 -6.5t-9 -2.5q-7 0 -13 0.5t-13 1.5q-2 2 -4.5 4t-4.5 4t-3.5 4.5t-1.5 6.5v1q1 1 1.5 4.5t0.5 4.5q0 2 2 4t4.5 3.5t4 2.5t1.5 2v42q-1 0 -4.5 0.5t-7 0.5
t-7 0.5t-4.5 0.5t-3.5 1t-2.5 3zM120 195v-6v-7.5t0.5 -7t2.5 -6.5q0 -2 2 -2h18l1 2v7v11v5.5t-0.5 6.5t-0.5 5.5v2.5l-3 1h-17l-3 -1v-1.5v-2.5v-4v-3zM109 144q0 -4 2.5 -7t6 -4.5t7.5 -2t7 -0.5q8 0 11.5 2.5t3.5 11.5v4t-0.5 4t-2 3.5t-3.5 1.5h-22q-6 0 -8 -4.5
t-2 -8.5zM102 106l4 4h35q2 -1 5 -1.5t4 -2.5l-1 -2h-46zM50 99q0 2 2 2h3q7 0 15 -3t15 -4q14 -4 21 -5.5t9.5 -5.5t3 -11t0.5 -21v-18l-2 -4t-3 -2h-1h-1v6t-0.5 8.5t-0.5 8.5v6t-0.5 6.5t-1 8t-2.5 6.5t-6 3q-2 0 -2.5 -1t-1 -2.5t-0.5 -3t-1 -2.5v-53q0 -2 -2 -3.5
t-4 -1.5q-1 1 -1.5 2l-0.5 1v47h-12l-2 -1l-0.5 -2.5t-1 -5.5t-1.5 -6.5t-1 -5.5v-3.5v-4.5q0 -3 -0.5 -5.5t-3.5 -2.5l-1 0.5l-1 0.5q-1 8 -1.5 13.5t-0.5 13.5v4t0.5 6t1.5 5.5t3 2.5h20q2 0 2.5 3t0.5 4q0 4 -1.5 6.5t-4.5 3.5q-2 0 -5.5 0.5t-7.5 1.5t-8 1.5t-5 1.5
l-1.5 0.5l-3 1t-2.5 1.5t-1 2zM137 28v2q0 4 0.5 10t1 12.5t1 12t0.5 6.5q0 8 3.5 12t8 6.5t11 3t13.5 1.5h1.5h3.5h4h3h4h4l1 -2q-2 -4 -6.5 -4t-9.5 -0.5t-9 -2.5t-4 -10v-6q2 -1 6 -1.5t7.5 -0.5t6 -1.5t2.5 -5.5v-37q0 -3 -2 -4t-4 -1v5v6.5v6.5v5q-1 2 -1.5 5.5
t-1.5 6.5t-3 5.5t-6 2.5h-3q-2 0 -2 -2v-36q0 -1 -0.5 -2.5t-1.5 -3.5t-1.5 -3.5t-1.5 -1.5l-3 1v2v3.5v4.5v3q0 13 1 26t1 25q0 3 -0.5 4.5t-3.5 1.5q-4 0 -6 -2.5t-3 -5.5t-1.5 -7t-0.5 -6q-1 -2 -1 -7t-0.5 -11t-1 -11.5t-0.5 -7.5h-2q-1 0 -2.5 0.5t-1.5 2.5z" />
</svg>
