<?xml version="1.0" standalone="no"?>
<!DOCTYPE svg PUBLIC "-//W3C//DTD SVG 1.1//EN" "http://www.w3.org/Graphics/SVG/1.1/DTD/svg11.dtd" >
<svg xmlns="http://www.w3.org/2000/svg" xmlns:xlink="http://www.w3.org/1999/xlink" version="1.1" viewBox="-10 0 266 256">
   <path fill="currentColor"
d="M167 215q2 3 3 9t2 12.5t3 11t7 4.5q2 0 3.5 -1.5t1.5 -3.5v-1q-3 -14 -6.5 -27.5t-3.5 -27.5q0 -2 1 -4.5t4 -2.5q4 0 7 2t5.5 4.5t5 4.5t6.5 2q3 0 4.5 -1.5t1.5 -3.5t-1.5 -3.5t-3 -2t-3.5 -2t-4 -3.5q-3 -3 -7 -5t-8 -3v-1v-2q0 -3 2 -6t4.5 -5t4.5 -3.5t2 -3.5
t-1 -3t-3 -1q-3 0 -5 2t-4 5t-3.5 5t-4.5 2q-2 0 -4.5 -2.5t-4.5 -5.5t-3 -6t-1 -5v-1l10 -5h34l1.5 -1t1.5 -2v-1v-1l-1.5 -1.5l-1.5 -1.5h-39v-1l1 -2t3 -4.5t4 -4.5t3 -4q3 -3 7 -4t8 -1.5t7 -3t3 -7.5q0 -8 -2.5 -11.5t-5 -5.5t-5 -3t-2.5 -4q0 -2 1.5 -3.5t3.5 -3
t4.5 -2t3.5 -1.5v-18l-1.5 -1.5l-3.5 -3.5l-3.5 -3.5t-1.5 -3.5l-3 -21q0 -1 -1 -1h-2h-2t-1 1v20q0 1 -3 2.5t-6 4t-5.5 6t-2.5 8.5t2 8t4.5 5t4.5 4t2 6t-2 5t-5 2t-5.5 3t-2.5 9q0 3 2 6.5t2 7.5q0 2 -1 6t-2.5 7t-4 5t-5.5 2h-2q-1 -5 -3 -9.5t-2 -9.5q0 -3 1.5 -5
t5.5 -5v-20l-10 -4l-0.5 -1l-0.5 -1q0 -5 2.5 -6.5t5 -4t4.5 -6.5t2 -14q0 -3 -2 -4t-4 -1.5l-4 -1t-2 -3.5v-21q0 -1 -2.5 -1h-2.5h-3t-2 1v23q0 2 -3 3.5l-6 3t-5.5 4t-2.5 8.5v2q7 9 16 15v2q0 3 -2.5 5l-5 4l-5 4t-2.5 6q0 6 2 9t4.5 4.5t6 2.5t6 3t4.5 5.5t2 9.5v3.5
t-2 2.5q-1 0 -5 0.5t-8 0.5t-7.5 0.5t-5.5 0.5q-1 0 -4 1t-3 3l0.5 0.5l0.5 0.5l0.5 0.5t0.5 1.5h12q6 0 11.5 -1t11.5 -1q2 0 6 5t8.5 11t8 12t3.5 8q0 3 -0.5 4.5t-3.5 4.5zM146 245v3t3 1q2 0 3 -1.5l2 -3t1.5 -3.5t0.5 -3v-62q0 -1 -0.5 -3.5t-1.5 -4.5t-2.5 -3.5
t-4.5 -1.5h-35q-2 0 -3 2.5t-1 3.5h17l1 2v3v3q0 9 -1 17.5t-2.5 16.5t-2.5 16.5t-1 17.5q3 0 5 -0.5t3 -1.5t2 -2.5t2 -4.5q0 -1 0.5 -5t0.5 -8t0.5 -7.5t0.5 -5.5l0.5 -2t0.5 -3v-32q0 -2 2 -3.5t4 -1.5q4 0 6 3q1 10 1.5 18t0.5 18t-1 19t-1 19zM44 204q0 3 1 4t3 1
q3 0 8.5 -0.5t13 -1.5l15 -2t14 -2t10.5 -2.5t4 -2.5v-1l-0.5 -1l-0.5 -1h-15v-43q0 -4 1 -6.5t2.5 -5t3 -5.5t1.5 -7q0 -6 -1 -10.5t-7 -6.5h-3h-3h-4h-2q-2 0 -6.5 0.5t-9.5 1.5t-9 3t-4 5v20l8 8v30l-2 2q1 0 1.5 1l1 2t0 2l-0.5 1v3t-0.5 4t-1.5 3.5t-3 1.5h-11
q-3 0 -3.5 2t-0.5 3zM80 146q0 -1 1.5 0l1.5 1q1 0 1.5 0.5t0.5 1.5q-1 8 0.5 14.5t1.5 14.5v4t-0.5 6t-1.5 5.5t-4 2.5l-0.5 -0.5l-0.5 -0.5q-1 0 -3 -0.5l-2 -0.5v-44l2 -2t3 -2zM67 132q0 -4 2 -7t4.5 -4t6 -1.5t7.5 -0.5h6q3 2 3.5 4.5t0.5 5.5q0 4 -2 6.5t-5.5 3.5
t-7 1.5t-7.5 0.5q-5 0 -6.5 -2t-1.5 -7zM174 96q0 -5 4 -8t9 -3h2h3q1 2 1 4v4q0 6 -3.5 8t-9.5 2q-4 0 -5 -2t-1 -5zM130 93q0 -3 1 -4.5t3 -2t4.5 -1t4.5 -0.5h2h2q2 2 2 3v3q0 11 -10 11q-4 0 -6.5 -2.5t-2.5 -6.5zM46 95v0l2 0.5t3 1.5h1v0q15 -2 29.5 -3t28.5 -4v-2
v-2.5t-2 -1.5h-19q-1 0 -1.5 -4t-0.5 -6v-1v-1q0 -3 3 -4.5t7.5 -3t7.5 -3t3 -5.5q0 -2 -1 -2.5t-2 -0.5q-3 0 -6 1t-5.5 3t-5.5 3t-6 1t-3 -3v-2q2 -3 7 -6t9.5 -5.5t7.5 -4.5t3 -5q0 -2 -1 -3.5t-3 -1.5v0q-1 1 -3 2.5t-4.5 3t-4.5 3t-3 1.5l-0.5 1t-1.5 1l-1.5 1t-3.5 2
l-4 2t-3 1t-2 -1t-2 -3t-1.5 -3.5t-0.5 -2.5q0 -3 3 -5t6.5 -4.5t6.5 -4.5t3 -6q0 -2 -2 -3t-4 -1q-3 0 -7 3t-8 6.5t-6.5 8t-2.5 8.5v4t3 3l13 26q3 0 3.5 2.5t0.5 4.5v3t-1 2t-3 0.5l-4 1t-4.5 0.5h-2.5q-2 0 -4.5 0.5l-5 1t-4 2t-1.5 4.5zM175 55q0 -1 0.5 -2.5t1 -3.5
t1.5 -3t2 -1h12l1 2l0.5 2t0.5 3q0 5 -3 8.5t-9 3.5q-3 0 -5 -3.5t-2 -5.5zM130 53q0 -6 4 -8t9 -2h2q2 0 4 0.5t2 1.5v11q0 2 -1.5 2.5t-3.5 1.5t-3.5 1h-2.5q-4 0 -7 -2t-3 -6z" />
</svg>
