<?xml version="1.0" standalone="no"?>
<!DOCTYPE svg PUBLIC "-//W3C//DTD SVG 1.1//EN" "http://www.w3.org/Graphics/SVG/1.1/DTD/svg11.dtd" >
<svg xmlns="http://www.w3.org/2000/svg" xmlns:xlink="http://www.w3.org/1999/xlink" version="1.1" viewBox="-10 0 266 256">
   <path fill="currentColor"
d="M120 248v3q6 0 10.5 -4t7 -9.5t4 -11.5t2.5 -11q0 -1 0.5 -4.5t0.5 -8t0.5 -8t0.5 -4.5q1 -5 4.5 -7t7.5 -3q4 -2 5.5 -2.5t4.5 -0.5q2 0 3 0.5t2 2.5v10q0 13 -2.5 25t-2.5 24q0 3 1 4t3 1q3 0 4.5 -2t2.5 -5q0 -10 2 -21t2 -21v-2v-4v-6.5t-0.5 -7t-0.5 -4.5
q-2 -6 -9 -6h-1h-2q-1 1 -3.5 2t-5.5 2.5t-5.5 2.5t-3.5 2q-2 1 -3 1h-3h-1q0 -2 -1 -5t-2 -5.5t-2 -5.5t-1 -5q0 -3 2.5 -4.5t4.5 -2.5l12 -11h34q1 0 2.5 -2t2.5 -3v0v-1v0v0l-2 -2l-1 -1h-4h-4q-7 0 -14.5 0.5t-15.5 0.5q-2 0 -6 0.5t-7 0t-5.5 -2t-2.5 -4.5v-6t3 -4
q1 0 3.5 -0.5t5 -0.5t5 -0.5t3.5 -0.5h4h7h6h4q2 0 5 -0.5t3 -3.5t-3.5 -3h-5.5q-8 0 -16.5 1t-16.5 1q-4 0 -5.5 -1.5t-1.5 -5.5v-3t3 -2q1 0 4 -0.5t6 -0.5t6 -0.5t4 -0.5h5t6.5 -0.5t6 -1.5t3.5 -4l4 -19q1 -2 -1.5 -4t-3.5 -2q-3 0 -4 3.5t-2 7.5t-3 8t-8 5h-2t-5 0.5
t-6.5 0.5h-5.5h-1q-1 0 -2 -1t-1.5 -2.5t-0.5 -2.5v-2v-4q0 -3 2 -4q5 -1 8.5 -2t5.5 -3.5t3 -6t2 -9.5q1 0 2.5 -0.5t2.5 -1.5h28l0.5 -1l0.5 -1q1 -1 1 -3.5v-2.5q-31 0 -61.5 1t-61.5 1q-3 0 -5.5 1t-2.5 4v1.5t2 1.5h26q3 -1 4.5 -1h4.5t4 1.5t1 4.5q0 2 0.5 4.5
t2.5 4.5q3 3 6.5 3.5t6.5 1.5t5 3t2 7v4.5t-1 3.5h-2q-2 0 -3.5 0.5t-3.5 0.5h-2q-9 0 -13.5 -1.5t-7 -4.5t-4 -8.5t-4.5 -12.5h-2q-3 0 -3.5 2t-0.5 5v4.5t1 4.5q4 9 9 12.5t10 4.5t10 0.5t9 0t6 2t2 7.5l-0.5 1t-0.5 2h-7.5t-11.5 0.5t-11.5 0.5h-7.5h-4h-4.5t-4 1t-1.5 3
v2t2 2h14q9 0 17 -1t16 -1h2t1 2v11l-3 3l-62 5q-1 0 -1.5 1t-0.5 2q0 3 3 4h7q8 0 16.5 -1l17 -2t17.5 -2t17 -1q3 0 5 0.5t2 4.5q0 1 -3 3t-7.5 4t-9.5 4l-10 4t-9 3.5t-6 1.5q-1 1 -6 1.5t-10 1.5t-9 2.5t-4 4.5q0 1 1 1.5t2 0.5h3h1q11 0 21 -3t19 -7q2 -1 4 -3t5 -2
t3.5 3t0.5 5v3.5t-3 2.5l-17 7q-4 5 -12 8l-16 6t-14.5 7t-6.5 11q8 0 17 -4t17.5 -9t17 -11t14.5 -11h1q4 0 5.5 3.5t1.5 6.5q0 2 -1 4t-2 2q-9 5 -17.5 11.5t-16 13.5t-15 13.5t-16.5 11.5l-1.5 1.5l-0.5 0.5v2v3q6 0 12.5 -3.5t12.5 -8.5t11 -10.5t9 -9.5q3 -1 6 -3.5
t5 -5.5t5 -5t7 -2h2q0 1 0.5 3t0.5 3v1q0 5 -1.5 10.5t-4.5 11.5l-5.5 11zM112 53q0 -2 1.5 -3.5t3.5 -2.5q6 -1 10 -1.5t9 -0.5h4q3 0 4.5 1t2.5 2.5t1 4.5q0 2 -0.5 4.5t-3.5 2.5h-27q-2 0 -3.5 -3t-1.5 -4zM84 21v1l2 3h9q18 0 35 -2t34 -1q3 -1 4.5 -2t1.5 -4t-3 -3h-1
q-4 0 -12.5 0.5t-18 1t-18 1t-12.5 0.5q-2 1 -4.5 1.5t-6.5 0.5h-4.5h-3.5l-2 3v0z" />
</svg>
