<?xml version="1.0" standalone="no"?>
<!DOCTYPE svg PUBLIC "-//W3C//DTD SVG 1.1//EN" "http://www.w3.org/Graphics/SVG/1.1/DTD/svg11.dtd" >
<svg xmlns="http://www.w3.org/2000/svg" xmlns:xlink="http://www.w3.org/1999/xlink" version="1.1" viewBox="-10 0 266 256">
   <path fill="currentColor"
d="M97 245v4t3 2q4 0 6.5 -4.5t3.5 -11t1.5 -14.5t1 -14.5t1.5 -11t3 -4.5h24l3 52q0 2 1 2h2q4 0 6 -3.5t2 -6.5q0 -9 -2.5 -18.5t-2.5 -18.5v-8q7 -1 11.5 -5t7 -9t4 -11t1.5 -12v0q0 -3 -0.5 -8t-0.5 -10t-0.5 -8.5l-0.5 -3.5v-2.5v-3t-0.5 -3t-0.5 -2.5q-2 -6 -6.5 -9
t-9 -4.5t-8 -2t-3.5 -1.5v-14q0 -1 2 -2l2 -1q4 0 9.5 0.5t11.5 0t11 -2t6 -5.5q2 -8 3 -15t1 -15v-4t-0.5 -4t-1.5 -3t-4 -1q-2 0 -3 2t-1 4.5t-0.5 4.5t-2.5 3q-5 1 -9.5 1h-10.5h-9q-2 -2 -3 -2.5t-1 -3.5q0 -6 1 -9.5t3.5 -5.5t6.5 -2t10 -1h5.5h8.5h9h5q3 1 3.5 -1
t0.5 -3q0 -4 -2.5 -4.5t-5.5 -0.5q-12 0 -25.5 0.5t-25.5 2.5q-1 1 -1.5 2.5t-1.5 2.5v12v12l0.5 1.5t0.5 3.5t0.5 3.5l0.5 1.5q0 1 -0.5 4t-0.5 6.5t-0.5 6.5t-0.5 4v6v8t-1 7t-4 3h-2q-2 -1 -5.5 -1.5l-3.5 -0.5v-77q0 -2 -2.5 -2.5t-4.5 -0.5h-25.5t-25.5 3l-2 3v1v0
q1 1 1.5 2l0.5 1h2h5h3h3q7 0 13.5 -0.5t13.5 -0.5q4 0 6 3.5t2 6.5q0 4 -2 6.5t-4 4t-5.5 2t-6.5 0.5q-2 0 -6 -0.5t-5 -0.5q0 -1 -0.5 -3t-1.5 -4t-2 -3.5t-3 -1.5q-1 0 -2.5 1t-2.5 2v5.5v4.5v8t0.5 6t0.5 6.5t1 8.5q2 3 5.5 6.5t7.5 3.5q1 0 3.5 -0.5l2.5 -0.5h9h9
q1 1 1.5 2.5t0.5 3.5q0 3 -3 5.5t-6.5 5t-7.5 5.5t-6 6q-3 5 -3 11.5v12.5q0 9 0.5 19t4.5 19q1 4 3.5 6l5 4t4.5 4t2 4q0 18 -3 36q-1 4 -2 7.5t-1 7.5zM97 170q0 -2 3.5 -4t9.5 -3.5t13 -2l14 -1t12.5 -0.5h7.5q3 0 4 0.5t1 3.5t-1.5 6.5t-4 6.5t-5.5 4.5t-7 1.5h-35
l-11 -6l-0.5 -1.5t-0.5 -2.5v-2zM93 150q0 -7 2 -9.5t9 -2.5q2 0 7.5 -0.5t11.5 -1t11 -1t7 -0.5h11h10l0.5 2l0.5 2l1 1q0 3 -1 6t-2 5q-2 0 -5 0.5t-6.5 0.5t-6.5 0.5t-5 0.5q-9 0 -19 1.5t-19 1.5q-2 0 -4.5 -1.5t-2.5 -4.5zM95 122q0 -3 2 -6t5 -5t6.5 -3t5.5 -1h36
q3 0 5 1.5t3.5 4t2.5 5.5t1 5q0 1 -3.5 2t-9 1.5t-12 1l-13 1t-11.5 0.5h-8h-8q-2 -2 -2 -3.5v-3.5zM83 75q-4 -3 -4 -8v-3.5t1 -4.5q3 -1 6 -1.5t5 -1t4.5 -0.5h4.5h5q3 2 3.5 4.5t0.5 5.5q0 4 -1.5 7.5t-6.5 3.5h-3q-1 0 -3 -0.5t-4.5 -0.5t-4.5 -0.5t-3 -0.5zM144 64v-6
t3 -5q6 -1 11 -1.5t11 -0.5q1 0 3.5 0.5l2.5 0.5l3 1v3q0 5 -2 7.5t-5.5 4.5t-8 2.5t-8.5 0.5t-7 -1t-3 -6z" />
</svg>
