<?xml version="1.0" standalone="no"?>
<!DOCTYPE svg PUBLIC "-//W3C//DTD SVG 1.1//EN" "http://www.w3.org/Graphics/SVG/1.1/DTD/svg11.dtd" >
<svg xmlns="http://www.w3.org/2000/svg" xmlns:xlink="http://www.w3.org/1999/xlink" version="1.1" viewBox="-10 0 266 256">
   <path fill="currentColor"
d="M98 247q0 1 0.5 2.5t2.5 1.5h2q3 -7 4 -17t1.5 -20.5t0.5 -21v-17.5v-15t0.5 -17t0.5 -14v-6l2 -2h20q0 9 -2.5 12t-5 4t-4.5 1t-2 2t2 2h4q3 0 5 1t2 5q0 3 -2 5.5l-4 5t-4.5 5t-2.5 6.5q-3 13 -3 26.5t-2 26.5v2v2q0 2 0.5 4.5t1.5 2.5h4q0 -1 0.5 -3.5t0.5 -5.5
t0.5 -6t0.5 -4v-21v-8t0.5 -10t2 -9.5t4.5 -6.5q1 0 2 0.5t2 0.5q0 7 -0.5 11t1.5 10v63h0.5h0.5l2 -2l1 -1v-76q0 -2 0.5 -2.5t2.5 -0.5q3 0 4.5 4t2 9.5t0.5 9.5v6q0 12 -0.5 23.5t-0.5 23.5q2 0 3 -3t1 -5q1 -1 1 -3.5t0.5 -5t0.5 -4.5v-3v-15v-10v-10t-0.5 -10t-2.5 -9
q-2 -2 -3.5 -3t-3.5 -2.5t-3.5 -3.5t-1.5 -5q0 -2 4 -4t9 -2.5t10.5 -1t7.5 -0.5q4 0 4.5 2.5t0.5 5.5v2v2q-4 3 -8 7t-6 10q-1 12 -1.5 25t-0.5 25v5t0.5 6.5t0.5 5.5v2l3 3q1 0 1.5 -2t1.5 -4q-1 -16 0 -32.5t3 -32.5q0 -3 0.5 -4t1 -1.5t1.5 -0.5h4v65v3t-0.5 4t-0.5 4v3
l-1 2l-1 2v0.5v0.5v1l1 1t1 2v0v0q2 0 3 -1.5t2 -3.5t1.5 -4t0.5 -3v-73l0.5 -0.5l1.5 -1.5v0q4 0 5.5 6t2.5 14.5t0.5 18.5t0 18.5t1 14.5t2.5 6h0.5h0.5q1 0 2 -1.5l1 -1.5v-4t0.5 -6.5t0.5 -6.5v-4v-1v-1q0 -2 -0.5 -8t-1 -12.5t-0.5 -12.5t-1 -8q0 -1 -0.5 -2l-0.5 -1
q-1 -5 -2 -7.5t-2.5 -4l-3.5 -3.5t-5 -4v-15q2 -1 4 -3t4 -2v0q1 0 2 1l2 2t1.5 2l0.5 1h1h1q2 0 4 -1t2 -4v-0.5v-0.5l-9 -9v-1q0 -3 1 -6t1 -7q0 -9 -4.5 -11.5t-12.5 -3.5l-1.5 -3t-0.5 -3q0 -4 3 -5.5t6.5 -3.5t6.5 -5t3 -11v-5t-2 -5h-1q-2 0 -2.5 3.5t-1.5 7.5t-2.5 7
t-5.5 3v0q-1 0 -1.5 -0.5l-0.5 -0.5v-29h-16q-1 0 -1.5 1.5l-0.5 1.5v1.5v0.5q4 0 6.5 1t4 2.5t1.5 4v6.5v4v4t-1 3.5t-3 1.5q-3 0 -4 -2.5t-1 -6v-6.5t-3 -3q-3 2 -3 4.5v4.5q0 6 2 9t5 4.5t5 3t2 4.5t-3 4t-7 1.5t-8 0.5h-5h-4h-3l-3 -2v-1v-2q0 -3 1 -4.5t2.5 -2.5l3 -2
t3.5 -3q4 -4 3.5 -10t-0.5 -11v-5q0 -2 -1 -2h-2h-0.5h-0.5q0 1 -0.5 4t-0.5 6t-0.5 5.5t-0.5 3.5v1.5t-0.5 3t-1.5 2.5l-1 1h-1l-2 -2l-1 -1v-22q0 -2 -1.5 -2.5t-4 -1t-4.5 -0.5h-2h-3h-3q-1 1 -1.5 2.5t-1.5 3.5t-1 4v3v1v3t0.5 3.5t0.5 3.5v2q0 1 0.5 3t1.5 3q1 3 3 3.5
t4 0.5t3.5 1t1.5 5q0 2 -0.5 5t-4.5 3q-1 0 -2.5 -1l-1.5 -1h-1q-2 0 -4 0.5t-2 2.5l0.5 0.5l0.5 0.5q2 1 4.5 1t5 1t4 2.5t1.5 4.5t-1.5 4.5t-4 2t-5 0.5h-4.5t-3.5 -0.5l-1.5 -0.5l-1.5 -0.5l-1.5 -0.5v-43q3 -5 3 -9.5t0.5 -9t2 -8t6.5 -6.5q8 -1 17 -1.5t18 -0.5h17.5
h15.5q2 0 2 -1v-2q0 -5 -6 -5h-27l-3 -3v-15q0 -1 -1.5 -1.5t-2.5 -0.5t-2.5 0.5t-1.5 1.5v16l-1.5 1.5t-2.5 1.5q-1 1 -4 1.5l-6 1t-6 0.5h-4q-9 1 -12.5 5t-5 9.5t-2 12.5t-0.5 13v4.5t-0.5 5.5t-0.5 5.5v2.5q0 1 -0.5 2t-1.5 1l-3 -2q1 -5 0.5 -12t-1 -13.5l-1 -13
t-1.5 -11.5q-3 -6 -8 -7.5t-11 -1.5q-7 0 -12 1.5t-7.5 5t-3.5 8.5t-1 11v5v3q0 1 0.5 4.5t0.5 7t0.5 7t0.5 4.5q0 4 -0.5 10t-0.5 12t2 11.5t6 9.5v17v17q0 2 -0.5 7t-1 11.5t-1 12.5t-0.5 9q-1 9 -2.5 18t-1.5 18v4t3 2t5 -8t3.5 -20t2 -26.5t1 -27t1 -22t1.5 -11.5
q1 -1 3 -1h3h2.5t0.5 3q0 2 0.5 8t0.5 13t0.5 13t0.5 9v15l1 1v2t0.5 4t0.5 5v3v6q0 3 -0.5 6.5t-0.5 6.5v3v1.5t-0.5 3.5t-0.5 3.5v1.5q0 5 3 5q4 0 5 -3t1 -5q0 -22 -1.5 -42.5t-1.5 -41.5v-21l1 -1.5t2 -2.5t2 -3l1 -2l4 -25q0 -1 2 -1q3 0 3 3v97q-2 12 -3.5 24.5
t-1.5 25.5zM138 135v-2.5v-2.5v-1q0 -2 0.5 -3.5l1 -3t1.5 -1.5h34q0 6 -1.5 8.5t-4 3.5t-6.5 1t-8 1h-1.5t-2.5 0.5t-2 0.5h-2v0h-1q-1 0 -4 -0.5t-4 -0.5zM180 124h2q1 0 2 0.5t1 2.5q0 1 -2 1.5t-3 0.5v-5zM61 109q0 -4 3 -6t7.5 -3t8.5 -1h8q2 0 2.5 1t0.5 3
q0 8 -3.5 15t-12.5 7q-7 0 -10.5 -4t-3.5 -12zM178 110q0 -2 1 -5t4 -3q2 0 3 1.5t1.5 3.5l1 4t0.5 3q0 3 -1 3h-3q-7 0 -7 -7zM138 105v-3t2 -2h30q1 0 1.5 1t1 2.5t0.5 2.5v2v2v2q0 1 -0.5 1.5t-1.5 0.5h-31l-0.5 -1.5l-1 -3t-0.5 -2.5v-2zM59 84q0 -6 2 -9t5 -4.5t8 -1.5
t11 -1h1q1 0 3 1t2 3v19q0 1 -0.5 1.5t-1.5 0.5h-2.5h-3.5l-2 0.5t-4.5 0.5t-4 0.5t-2.5 0.5h-1q-7 0 -8.5 -2.5t-1.5 -8.5zM122 56q0 -2 2 -2.5t4 -0.5h3.5t2.5 3v21l-0.5 1t-0.5 2h-1q-4 0 -6 -3t-3 -7t-1 -8v-6zM60 56q0 -5 1 -8t3.5 -4.5t6 -2.5t8.5 -1q6 2 8.5 6.5
t2.5 10.5q0 1 -0.5 2l-0.5 1l-4 2h-24l-0.5 -2t-0.5 -3v-1z" />
</svg>
