<?xml version="1.0" standalone="no"?>
<!DOCTYPE svg PUBLIC "-//W3C//DTD SVG 1.1//EN" "http://www.w3.org/Graphics/SVG/1.1/DTD/svg11.dtd" >
<svg xmlns="http://www.w3.org/2000/svg" xmlns:xlink="http://www.w3.org/1999/xlink" version="1.1" viewBox="-10 0 266 256">
   <path fill="currentColor"
d="M54 162v11.5v18.5v18.5v11.5q1 11 3.5 16.5t7 8t11.5 3t16 1.5h9q3 0 5.5 -0.5t4 -1t2.5 -2.5t1 -5h-23l-4 -3v-22q0 -1 3.5 -2t8 -2.5t8.5 -4t4 -6.5v-33q1 -4 1 -7.5v-7.5h-10v40q0 1 -1 3.5t-2 4.5t-3 3.5t-4 1.5h-1.5t-1.5 -1q0 -1 -0.5 -4t-0.5 -6.5t-0.5 -6
t-0.5 -4.5v-8.5v-13.5v-14.5v-8.5h-2.5h-2.5q0 1 -1 1.5l-1 0.5v90q0 3 -1.5 3.5t-3.5 0.5q-5 0 -8 -4t-4 -8q-1 -6 -1.5 -10t-0.5 -8v-8v-8q0 -7 1 -13t1 -12q0 -2 -1.5 -2.5t-3 -0.5h-2.5h-2zM132 247q12 2 23.5 2h23.5h5h8.5h7.5h6q1 -1 3.5 -2.5t2.5 -3.5q0 -3 -2 -3.5
t-4 -0.5h-5h-8.5t-12.5 0.5t-14.5 0.5h-14.5t-12.5 0.5t-8.5 0.5q-1 0 -1.5 1t-0.5 2q0 2 1 2.5t3 0.5zM155 219q2 0 8.5 0.5t13.5 1t13 1t9 0.5l0.5 0.5l0.5 0.5l1 -1l6 -6l-3 -4q-13 1 -26 0.5t-25 -1.5q-3 -2 -6 -5l-5 -5q-1 -2 -1.5 -6.5l-1 -9l-1 -9t-0.5 -5.5v-17
q0 -7 -0.5 -15.5t1 -16.5t5.5 -14.5t12 -8.5h3h5.5h4.5h3q12 0 18 0.5t9.5 4t4 10t0.5 18.5q0 8 0.5 17t-1.5 17t-7 13t-15 5h-5q-2 0 -5 -0.5t-5 -1.5t-3 -3q-1 -8 -1.5 -14t-0.5 -13v-9t1.5 -9t4 -6.5t8.5 -2.5q3 0 5 3t2.5 6.5t0.5 7.5v6q0 5 -1 10.5t-1 10.5q0 2 0.5 4
t2.5 3q1 0 2 -1l1 -1q2 -7 2 -15v-14v-19q-3 -5 -7.5 -6t-9.5 -1q-6 0 -10 2.5t-6 7t-2.5 10t-0.5 11.5v2q0 2 0.5 5.5t0.5 8t0.5 8.5t0.5 5t1.5 3l3 4t3.5 3.5t3 1.5h33q2 0 3.5 -2t3 -4.5t2.5 -4.5l1 -2q1 -8 1 -14t0.5 -12t0.5 -12v-13v-23q-1 -3 -4 -6t-5 -4
q-5 -1 -8.5 -2t-7 -1.5t-7.5 -0.5h-8t-10 0.5t-11.5 2t-10 4.5t-6.5 9v8t-0.5 13t-1 15t-0.5 15t-0.5 13t-0.5 9v1q0 14 5.5 24.5t19.5 14.5zM79 117q-1 1 -4 2.5t-6 3.5t-6 3.5t-4 2.5q-2 1 -4.5 2.5t-5 4t-4 5t-1.5 5.5h5q2 -1 5 -3t7 -4.5t7 -5t5 -2.5q3 -3 7 -4.5
t7 -1.5q5 0 8 2.5t6 5.5t6 5.5t7 2.5t5.5 -0.5t1.5 -3.5q0 -5 -5 -8t-10.5 -5t-10 -3.5t-4.5 -3.5v-27q0 -1 1.5 -1.5t4.5 -1t6.5 -2t6.5 -4.5t5 -9t2 -15v-3v-5t-1 -5t-2 -2q-3 0 -4.5 1.5t-2.5 3.5q0 3 0.5 8.5t-0.5 10t-3.5 8t-7.5 3.5q-2 0 -3 -0.5t-2 -2.5v-3t-0.5 -4
t-0.5 -4v-2v-5q0 -4 0.5 -8t0.5 -7.5t1 -5.5q2 -2 6.5 -4l9 -4t8 -4t3.5 -6q0 -2 -1.5 -3.5t-3.5 -1.5t-5.5 1.5t-4.5 2t-3.5 2.5t-5.5 4t-5.5 4t-3.5 3q-1 0 -1.5 1.5l-0.5 1.5q-1 2 -1.5 4.5l-0.5 2.5v40l-1 0.5t-2 0.5q-2 2 -7.5 3.5t-11.5 3t-10.5 3t-4.5 2.5q0 3 2 4
t4 1q3 0 6 -0.5t6 -1.5t5.5 -2t5.5 -1h3h2l2 2v20zM136 62v1v1l12 1h65l-0.5 -2.5t-0.5 -3.5t-0.5 -1.5l-0.5 -0.5q-4 0 -12.5 -0.5t-17.5 -0.5h-17.5h-12.5h-5h-6q-3 0 -3.5 2t-0.5 4z" />
</svg>
