<?xml version="1.0" standalone="no"?>
<!DOCTYPE svg PUBLIC "-//W3C//DTD SVG 1.1//EN" "http://www.w3.org/Graphics/SVG/1.1/DTD/svg11.dtd" >
<svg xmlns="http://www.w3.org/2000/svg" xmlns:xlink="http://www.w3.org/1999/xlink" version="1.1" viewBox="-10 0 266 256">
   <path fill="currentColor"
d="M58 247q7 1 11.5 1t9 0.5t8.5 0.5h10h14l1.5 -1.5t0.5 -2.5q0 -3 -5 -4t-10.5 -1.5t-10.5 -1t-5 -3.5v-22q0 -2 3.5 -3t7.5 -2t8 -3t5 -6v-17v-12q0 -6 -0.5 -11.5t-0.5 -11.5t-1 -14q0 -1 -1 -1.5t-2 -0.5t-2.5 0.5t-1.5 1.5v61q0 4 -3.5 5.5t-6.5 1.5t-4 -2t-1 -4.5v-5
v-4.5q0 -3 -0.5 -8.5t-0.5 -12t-0.5 -14t-1 -14.5t-0.5 -12.5v-7.5q-3 -5 -8 -5q0 25 1 49t1 49v28q0 1 -1 1.5t-2 0.5h-2.5h-1.5q-6 0 -7.5 -3.5t-2.5 -10.5l-5 -83q0 -2 -2 -3.5t-4 -1.5q-1 0 -2 1.5t-1 3v3.5v2q0 2 0.5 5t0.5 4q0 3 0.5 8.5t0.5 13t0.5 16t1 16t0.5 13.5
v9q2 6 4 9.5t8 5.5zM128 180q2 5 2.5 11.5t0.5 13t0.5 12.5t3 11t7 8t11.5 4h4h7h6h4h16t15 -2t12 -7t6 -15v-33v-33v-10t-0.5 -18t-0.5 -18t-1 -10q0 -6 -0.5 -12.5t-3 -12.5t-7 -10t-11.5 -5h-3q-3 0 -5.5 -0.5t-5.5 -0.5h-3q-6 0 -15 0.5t-17.5 2.5t-15 6.5t-6.5 13.5
v104zM136 173v-95q0 -5 6 -8.5t14 -5.5t15.5 -2.5t11.5 -0.5q11 0 18 3.5t10 14.5q2 13 3 24.5t1 22.5v22v24v10v14v14v9q-2 6 -6.5 9t-11 3.5t-12.5 0.5h-11h-17t-9 -2.5t-4.5 -8t-3.5 -15.5q-1 -8 -0.5 -17t-3.5 -16zM174 185v37h1h2t2 -0.5t1.5 -2t0.5 -4.5v-6v-6v-4
q0 -10 -1 -19t-1 -18v-6q0 -1 1.5 -2.5l1.5 -1.5q1 0 2 0.5t2 1.5l0.5 0.5t0.5 1.5q1 1 2 2.5t1.5 3t1.5 3l1 1.5v2t0.5 4t0.5 4.5v3.5q0 2 0.5 7.5t1 11.5t0.5 11.5v7.5h2q1 0 2 -0.5t1 -1.5v-16v-12t-0.5 -10.5l-1 -11t-1.5 -12.5q-4 -4 -9 -6.5t-10 -4.5v-2v-3q0 -4 2 -6
t4.5 -3t5.5 -2t5 -4q3 -6 3 -13v-13v-9q0 -2 -2 -3t-4 -1q0 3 0.5 9t0 12.5t-3.5 11t-8 4.5h-2l-0.5 -0.5t-0.5 -1.5t-0.5 -4t-0.5 -6t-0.5 -6t-0.5 -4v-2v-2q0 -3 1 -5t1 -4t-1 -3t-2.5 -2t-3.5 -1.5t-3 -0.5h-2q-1 0 -3.5 0.5t-5.5 1t-6 0.5h-4v2q0 3 3 4.5t6.5 2t6 0.5
h3.5l2 2v2.5t0.5 6t0.5 7v6.5v2q0 3 -0.5 3.5t-4.5 3.5v0q-5 0 -6.5 -3.5t-2 -8t-2 -8t-6.5 -3.5q0 5 0.5 8.5t1.5 9.5q1 3 4.5 6t7 5t6 3l2.5 1v12q-6 4 -10 7.5t-6 7.5t-3 9.5t-1 13.5v8.5v11t1 10t4 6.5l2 -3v-3.5t0.5 -8.5t0.5 -10.5v-8.5v-9q0 -1 0.5 -3t1 -4.5
t0.5 -4.5v-3q2 -2 3.5 -4t3.5 -2q3 0 4 3.5t1.5 8.5t0.5 10t1 8zM34 124q0 2 2 2h3h4q8 -8 16.5 -15t15.5 -16h0.5h0.5h0.5h0.5q2 2 7.5 5.5t11 8t10 7.5l4.5 3q2 0 2.5 -1.5t0.5 -2.5q0 -5 -5.5 -9t-12 -8t-12 -8.5t-5.5 -10.5q0 -5 5 -8.5t11 -5.5t10.5 -4t4.5 -6v-19
q0 -2 -1.5 -2.5t-3.5 -0.5q-4 0 -4 4t-1 9t-3.5 9t-11.5 4h-2t-2 -2v-22q0 -5 4 -7.5t9 -4t9 -3t4 -4.5q0 -1 -1 -1.5l-2 -1t-2.5 0l-1.5 0.5q-4 0 -8.5 1t-9 3.5t-8 6.5t-3.5 8v29q0 2 -1 3.5t-2 2.5q-1 0 -3.5 0.5t-4.5 1t-4.5 1t-3.5 0.5h-2h-4t-4.5 1t-2.5 2v1
q0 4 2.5 4.5t4.5 0.5q4 0 8 -1t8 -1h7q4 4 4 8q0 2 -5 7.5t-11.5 11t-12.5 10.5t-9 8v1z" />
</svg>
