<?xml version="1.0" standalone="no"?>
<!DOCTYPE svg PUBLIC "-//W3C//DTD SVG 1.1//EN" "http://www.w3.org/Graphics/SVG/1.1/DTD/svg11.dtd" >
<svg xmlns="http://www.w3.org/2000/svg" xmlns:xlink="http://www.w3.org/1999/xlink" version="1.1" viewBox="-10 0 266 256">
   <path fill="currentColor"
d="M158 202q3 7 5.5 13.5t5.5 12.5t7 11.5t10 10.5h1h2q2 0 3.5 -0.5t1.5 -2.5q0 -4 -2.5 -7t-5.5 -6.5t-6 -6t-5 -5.5l-4.5 -9t-4.5 -10.5t-3 -11t-1 -9.5q0 -1 0.5 -4.5t0.5 -4.5q1 -3 2.5 -5t4.5 -2q4 0 8.5 3t8.5 6t8 5.5t6 2.5t3.5 -0.5t1.5 -3.5q0 -5 -5.5 -8
t-13 -5.5t-14 -4t-7.5 -1.5q-1 -1 -1.5 -3.5t-0.5 -4.5v-2v-3.5v-3.5q3 -2 4 -3.5t2 -4.5q2 -3 4 -10t5 -13.5t4.5 -12t2.5 -6.5q0 -1 0.5 -2.5t1 -3.5t1 -3.5t0.5 -2.5t1 -1.5t2 -0.5q2 1 3.5 3t2 5t0.5 6v4q0 9 -1 17.5t-3 17.5l-4 8t-2 9q4 0 6.5 -1.5t3.5 -6.5
q2 -5 4 -13.5t4 -15.5v-2.5v-3.5v-4v-3v-9.5t-1 -10.5q-3 -4 -5.5 -7l-5 -6t-4 -6.5t-1.5 -9.5q0 -8 2.5 -15.5t2.5 -15.5q0 -2 -1 -4.5t-3 -2.5q-3 0 -4.5 5t-2 11.5t-0.5 13v8.5q0 6 0.5 11t0.5 11q0 1 -1.5 7t-4 14t-5.5 17t-6 17t-5.5 13.5t-3.5 6.5l-0.5 2.5t-1 4.5
t-1 4.5t-0.5 3t-0.5 2l-0.5 1.5l-9 3t-11.5 4t-10 5.5t-4.5 7.5q4 0 8 -2l8 -4t7.5 -4t7.5 -2q2 0 3 1t1 4q0 8 -2.5 16t-6.5 16t-8.5 15t-9.5 13q0 1 -1.5 2.5l-1.5 1.5v0.5v0.5q0 2 1 3t3 1q6 0 10.5 -7t8 -15.5t5.5 -15.5t4 -7h2zM70 227q5 0 9.5 0.5t8.5 0.5t7.5 0.5
t8.5 0.5h6l2 -2t1 -2l-0.5 -1t-0.5 -2q-1 0 -1.5 -0.5l-0.5 -0.5h-20v-17q0 -1 1.5 -2.5t4 -2.5t5 -1.5t3.5 -1.5q2 -2 3.5 -7t2 -11.5t0.5 -12v-7.5v-3t-0.5 -4t-1.5 -3.5t-3 -0.5q-1 0 -2.5 1t-1.5 2v34q0 5 -2.5 7.5t-6.5 2.5h-1q-1 -1 -2 -3t-1 -5v-5v-3v-9t-0.5 -12.5
t-0.5 -13v-8.5l-2.5 -2.5l-2.5 -2.5h-1q-2 0 -2 2v4q0 14 1 28.5t1 28.5v22l-2 4t-2 2q-5 0 -7 -1.5t-3 -3.5t-2 -4.5t-3 -6.5v-48q0 -3 -1 -5t-4 -2q-1 0 -2 0.5t-1 2.5v54q0 3 1.5 6.5t4 6t5 4.5t5.5 3zM141 125v22l0.5 0.5l0.5 0.5h1h1q1 0 2 -1.5l1 -1.5l3 -26
q1 -1 3 -1.5t4 -2l4 -3t2 -3.5h-13v-18q0 -3 2 -3.5t4.5 -1t4.5 -1.5t2 -4h-13v-21q0 -2 2.5 -3t5 -1.5t4.5 -1.5t2 -3v-1l-0.5 -1l-0.5 -1q-1 0 -2.5 -0.5t-3.5 -0.5h-3.5h-2.5v-27q0 -1 -1.5 -1h-2.5t-2.5 0.5t-1.5 2.5v30q0 1 -3 3t-6.5 3.5l-7 3t-4.5 1.5v2q0 1 0.5 2
t1.5 1q4 0 7 -2t7 -2q2 0 2.5 1l1.5 3q0 1 0.5 3.5t0.5 3.5q0 6 -2 8.5t-4.5 4t-5.5 1.5h-5.5t-4.5 1t-2 4h22v20l-1.5 0.5t-1.5 1.5q-1 0 -3.5 0.5t-5.5 1.5t-5 1.5t-3 0.5v4q4 0 7.5 -1t7.5 -1h2.5h1.5zM51 136v1l0.5 0.5t1.5 0.5l1 1q3 0 7 -4.5t8 -9.5t8.5 -9t8.5 -4
t6.5 3.5t5.5 7.5t5.5 7.5t7.5 3.5q4 0 4 -4q0 -1 -0.5 -1.5l-1.5 -1.5q-4 -3 -7 -6t-5.5 -6t-5.5 -6.5t-7 -7.5v-2v-2q0 -4 2.5 -6.5t6 -4.5t6.5 -3.5t6 -4.5q3 -6 4 -13t2 -13v-1q0 -5 -4 -5q-3 0 -4 5t-2 10.5l-2 11t-5 6.5q-1 1 -4 0t-4 -1v-4v-5v-4.5t0.5 -8t0.5 -8
v-5.5q2 -4 5.5 -7.5t7 -6.5t6.5 -5t3 -3q0 -2 -1.5 -3t-2.5 -1q-3 0 -7 2t-8 4.5t-7.5 6t-3.5 5.5v44l-1 1.5t-1 2.5q-2 2 -5 3t-6 1.5t-6 0t-5 -0.5q-1 1 -1.5 2.5t-0.5 2.5q0 4 4 4q5 0 9.5 -1.5t9.5 -1.5q0 1 0.5 4.5t0.5 4.5q-1 6 -5.5 10t-10 8t-10 7.5t-4.5 8.5z" />
</svg>
