<?xml version="1.0" standalone="no"?>
<!DOCTYPE svg PUBLIC "-//W3C//DTD SVG 1.1//EN" "http://www.w3.org/Graphics/SVG/1.1/DTD/svg11.dtd" >
<svg xmlns="http://www.w3.org/2000/svg" xmlns:xlink="http://www.w3.org/1999/xlink" version="1.1" viewBox="-10 0 266 256">
   <path fill="currentColor"
d="M200 239q0 3 1.5 6.5t5.5 2.5q0 -1 1.5 -2t1.5 -2v-6v-9v-10v-6v-8v-10v-9v-5v-9t-0.5 -14.5t-0.5 -14v-9.5q-2 -7 -7 -10.5t-10.5 -5.5t-11.5 -2.5t-11 -0.5v-6q0 -11 3.5 -17t12.5 -10q0 -1 0.5 -3t0.5 -3l-0.5 -0.5t-0.5 -1.5h-1q-3 0 -5 1t-5 1h-3t-2 -2v-1
q0 -1 0.5 -3.5l0.5 -2.5h27q1 0 1.5 1.5t0.5 2.5t0.5 5t1.5 6v5t0.5 9t0.5 9.5v5.5h1h1q3 0 5 -3v-13v-9.5t-0.5 -11t-2.5 -9.5t-7 -5h-5t-8 -0.5t-7.5 -0.5h-5.5q-2 -2 -2.5 -3t-0.5 -3q0 -3 3 -4.5t7 -2t9 -0.5t9 -1.5t6.5 -4.5t2.5 -8q0 -6 -2 -11.5t-8 -7.5h-2h-4.5
h-4.5h-2h-9t-14 0.5t-12.5 1.5t-6.5 4v1q0 1 1 2.5t3 1.5q10 0 19.5 -2t18.5 -2q4 0 8 1.5t4 7.5q0 5 -3.5 7t-8.5 3t-9.5 1.5t-7.5 2.5q-3 3 -4.5 7t-5.5 7h-2h-3q-7 0 -10.5 -3.5t-5.5 -8t-3 -8t-3 -3.5t-3.5 0.5t-2.5 2.5q0 1 0.5 3.5t1.5 2.5q1 8 4 12t7 6t9 3t11 2l2 1
v13q-2 0 -7.5 2t-11.5 4.5t-10.5 5.5t-4.5 6q5 0 9.5 -1.5t8.5 -3t8.5 -3t9.5 -1.5v26l-1.5 0.5t-2.5 0.5q-7 2 -12 3t-8.5 3.5t-5.5 7.5t-2 14q0 3 -0.5 10t-0.5 15t-0.5 15t-0.5 9q-2 5 -2.5 11.5t-1 13.5t0 13t0.5 11q2 0 5 -1.5t3 -4.5l3 -63q0 -1 1.5 -3t2.5 -4l1 -2
q0 -1 0.5 -1.5t1.5 -0.5l22 -12h1h2q3 0 6 0.5t5.5 2l5 3t5.5 3.5h1.5t3 0.5t2.5 0.5h1q3 2 4 7t1.5 11.5t0 12t-0.5 7.5q0 11 -1 21t-1 20zM146 183q0 9 0.5 15t3 10t8 5.5t14.5 1.5q5 0 8 -2t6 -7q0 -2 0.5 -5t1 -6.5l1 -7t0.5 -4.5l0.5 -0.5l0.5 -0.5q0 -1 -0.5 -3.5
t-1 -4.5t-1.5 -3.5t-3 -1.5q-4 0 -4.5 3t-1.5 7h-25q-1 0 -2 -3.5t-3 -4.5l-2 2v4v6zM54 200q1 2 2.5 4.5t3.5 4.5t4.5 3t4.5 1h38l4 -6q-1 -1 -5 -1.5t-8 0t-7 0t-3 -3.5v-24q0 -1 2.5 -1.5t6 -2t7 -3.5t4.5 -6q2 -5 3.5 -10.5t1.5 -11.5q0 -3 -1 -6t-5 -3q-3 0 -4 2.5
t-1 6.5v8t-0.5 8t-2.5 6.5t-6 2.5q-1 0 -4 -0.5t-3 -3.5v-49q0 -1 -2 -1.5t-3 -0.5h-1v0l-2 7v82q0 2 -2 2h-3q-3 0 -5.5 -2t-4 -5.5t-2.5 -7t-1 -6.5v-44l-3 -3q-6 2 -6 8v4q0 3 0.5 10.5t1 16t1 15.5t0.5 10zM153 195v-1.5t0.5 -3l1 -3t1.5 -1.5h24v8.5t-1.5 6.5t-4 4.5
t-7.5 1.5t-9.5 -2.5t-4.5 -9.5zM136 149q0 -11 5 -18.5t17 -7.5q2 0 3 1t1.5 3t0 3.5t-0.5 3.5q0 4 -1 6.5t-3 4.5t-4.5 3.5t-5.5 2.5q-1 1 -3.5 2.5t-4 2.5t-2.5 1l-1 -2l-0.5 -2.5t-0.5 -3.5zM170 132v-1v-2.5t0.5 -2.5t1.5 -1h17q3 0 5 2.5t3 5.5t1.5 6t0.5 5q0 4 -0.5 6
t-4.5 2q-3 0 -7.5 -1.5t-8 -4t-6 -6t-2.5 -8.5zM43 127q0 2 2 2h2q4 0 9 -4.5t10 -10.5t9 -12.5t8 -9.5q4 2 7.5 7t7.5 10t8.5 9t9.5 4q2 0 3 -1.5t1 -3.5q0 -1 -1 -1l-0.5 -0.5l-0.5 -0.5q-6 -5 -10.5 -9t-8.5 -7.5t-8 -8.5l-8 -10v-3q0 -4 2 -6t5 -3t7 -2.5t7 -5t5.5 -9
t2.5 -14.5q0 -3 -1 -4t-3 -1t-3.5 0.5t-2.5 1.5q0 3 -0.5 7.5t-1.5 8.5t-3.5 7t-7.5 3l-1 -1t-1.5 -2t-1.5 -2.5l-1 -1.5q0 -2 1 -5.5t1.5 -7t1.5 -7t1 -4.5q1 -3 3.5 -5t5 -3.5t4.5 -3t2 -3.5t-1.5 -3t-3.5 -1q-9 0 -13.5 5.5t-6.5 13.5t-2 16.5v14.5q-2 4 -4 6
q-5 -1 -10.5 -0.5t-11.5 1.5q0 1 -1 2t-1 2v1q0 2 1 2.5t2 0.5q5 0 9 -1t8 -1l2.5 -0.5t3.5 1.5v4.5v4.5q0 7 -5 13.5t-11 12t-11 10t-5 8.5z" />
</svg>
