<?xml version="1.0" standalone="no"?>
<!DOCTYPE svg PUBLIC "-//W3C//DTD SVG 1.1//EN" "http://www.w3.org/Graphics/SVG/1.1/DTD/svg11.dtd" >
<svg xmlns="http://www.w3.org/2000/svg" xmlns:xlink="http://www.w3.org/1999/xlink" version="1.1" viewBox="-10 0 266 256">
   <path fill="currentColor"
d="M178 183q4 0 7 5t6 12.5t5 16.5t4 16.5t4.5 12.5t4.5 5q4 0 5.5 -2.5t1.5 -5.5q0 -9 -3 -17t-7 -16l-8 -16t-4 -16q-1 -3 1 -6.5t4.5 -8.5t4.5 -10.5t2 -11.5q0 -3 -5 -6t-12 -4.5t-13.5 -2t-8.5 -1.5q-1 -3 -1.5 -6t-0.5 -6q0 -1 1.5 -2.5t3.5 -2l4 -1t4 -0.5h3.5
t5 -0.5l5 -1t3.5 -0.5t1.5 -0.5l0.5 -0.5v-1q0 -3 -1.5 -3.5t-3.5 -1t-4 -0.5h-3q-4 0 -7.5 1t-8.5 1q-3 0 -4 -2.5t-1 -5.5t-0.5 -5.5t-4.5 -2.5h-2.5t-2.5 1v40q0 1 -2.5 1.5t-3.5 0.5q-2 0 -5 0.5t-6.5 1t-7 0.5h-4.5q-2 0 -3 1t-1 2t0.5 2.5t1.5 1.5h63q3 0 4 1.5t1.5 3
t0.5 3.5v3q0 6 -1 9.5t-7 3.5q-4 0 -6.5 -1.5t-7.5 -2.5q-4 -1 -7.5 -1t-6.5 -0.5t-6 -0.5h-9h-4h-5q-3 0 -5 0.5l-2 0.5q-3 0 -6 0.5t-3 4.5v2t2 1h46q2 0 5.5 2.5t3.5 5.5q0 4 -5 7t-11.5 4.5t-12.5 2t-9 0.5q-4 1 -8 3t-9 3v1q0 3 1.5 4.5t3.5 1.5h1h1l3 -1t4 -1
q2 0 6.5 -1t10 -2t10 -1.5t6.5 -0.5l2 -2t2.5 -2l3 -2t1.5 -2q1 0 2 -1t2 -1zM38 92v14q0 9 0.5 20.5t1.5 24t3 23.5t4.5 19.5t7.5 11.5q2 2 5 3t6.5 1h6.5h6q4 0 7.5 1l7 2l7 2t7.5 1q1 0 4 -0.5t4 -0.5l1 -1.5l1 -1.5v-0.5v-0.5q0 -3 -1.5 -4.5t-3.5 -2.5l-31 -3
q-1 0 -3 -2t-2 -4v-25l2 -1.5t3 -2.5l7.5 -1.5t4 -1t2.5 -1t2 -2t1.5 -5t2.5 -8.5q0 -1 0.5 -2.5t1.5 -1.5v-47l-1 -1l-1 -1q-1 -1 -3 -2.5l-2 -1.5h-1q-2 0 -2.5 1.5t-0.5 2.5q0 10 1 19t1 18v8.5t-1.5 8.5t-4.5 7t-8 3q-3 0 -4 -2t-1 -5v-4.5t1 -5.5v-60q0 -3 2 -4
t4.5 -1.5t5.5 -1t5.5 -3t4 -7t1.5 -13.5q0 -6 -0.5 -11.5t-2.5 -9.5t-6 -6.5t-12 -2.5q-6 0 -12.5 1t-12 4.5t-9 8.5t-3.5 13q0 10 4 15.5t8.5 8.5t8.5 4.5t4 2.5v116q0 1 -0.5 1.5t-1.5 0.5h-1q-4 0 -6.5 -7t-4 -15.5t-2 -16.5t-0.5 -11q0 -4 1 -7t1 -7v-11t-1.5 -13.5
t-4.5 -11t-9 -4.5zM157 42q-5 1 -11.5 1.5t-12.5 3t-10.5 6.5t-4.5 11v36q0 3 1 3.5t3 0.5q3 0 4.5 -1.5t2 -3.5t2 -4t4.5 -4q4 -1 7.5 -4.5l7 -7t7.5 -6t7 -2.5t6.5 2t6.5 5t6.5 5.5t7.5 2.5q2 0 4 -0.5t2 -2.5q0 -3 -5 -6t-11 -6.5t-11 -7t-5 -7.5q0 -1 2 -2t5.5 -2
t6.5 -1h4q5 0 8.5 2.5t6 7t3 9.5l1 10t0.5 10v8h3q3 0 4.5 -2t2 -5.5t0 -7t-0.5 -6.5q0 -9 -2.5 -16.5t-7.5 -13t-13 -7.5t-18 0q-1 -2 -1 -4v-4v-5q4 -2 7.5 -2.5t8.5 -0.5q6 0 12 1t13 1l1.5 -0.5l3 -1t2 -1.5t-0.5 -3t-5 -3.5t-9 -2t-9.5 0t-7.5 0.5q-17 0 -34.5 1.5
t-34.5 5.5v1q0 2 2 3t3 1h37v13zM127 79v-1l0.5 -2.5l0.5 -2.5q1 -1 1 -3v-3v-4t-1 -3q3 -3 6 -4.5t7 -2.5t7 -1h8q0 5 -2 10.5t-5 10t-7.5 7t-10.5 2.5h-2.5t-1.5 -3zM52 49l0.5 -2t0.5 -3q5 -9 10.5 -11t14.5 -2q4 0 7 2t5 4.5t2.5 6t0.5 7.5q0 5 -1.5 8.5t-4 5t-6 2
t-8.5 0.5q-8 0 -14.5 -5t-6.5 -13z" />
</svg>
