<?xml version="1.0" standalone="no"?>
<!DOCTYPE svg PUBLIC "-//W3C//DTD SVG 1.1//EN" "http://www.w3.org/Graphics/SVG/1.1/DTD/svg11.dtd" >
<svg xmlns="http://www.w3.org/2000/svg" xmlns:xlink="http://www.w3.org/1999/xlink" version="1.1" viewBox="-10 0 266 256">
   <path fill="currentColor"
d="M135 246q0 2 0.5 3.5t2.5 1.5q4 0 6 -3q14 -16 22 -31.5t8 -36.5q0 -5 -2 -8.5t-4.5 -7t-4.5 -7t-2 -7.5q0 -3 1.5 -4t4.5 -2q2 0 5.5 -0.5t7.5 -1t7.5 -1t5.5 -0.5t2.5 -0.5t0.5 -2.5t-1.5 -3t-3.5 -1h-1q-4 0 -14 0.5t-21.5 1.5t-21.5 1.5t-14 0.5q-3 0 -3.5 1t-0.5 2
q0 2 2.5 3.5t4.5 1.5h25q1 0 3.5 5t5 12t5 13t2.5 9q0 10 -4 21t-10 20q-1 2 -3.5 4.5t-4.5 5.5t-4 5.5t-2 4.5zM53 94v66q0 3 0.5 8t2 9.5t4 8t7.5 4.5q2 0 5.5 0.5t8 1t8 1t4.5 0.5h4h6h4.5h5.5l0.5 -1.5l0.5 -1.5v-1q0 -1 -1.5 -3.5t-2.5 -2.5h-20l-3 -4v-24q0 -3 3 -4
t7 -2t7.5 -2.5t3.5 -5.5v-61q0 -1 -1.5 -1h-1.5h-2t-1 1q-1 13 -1.5 25t-0.5 24q0 2 -0.5 4t-1.5 4t-2.5 3t-3.5 1h-2t-2 -1v-5.5t-0.5 -7t-0.5 -7v-5.5v-2v-2v-8t0.5 -12.5t0.5 -12.5v-8q3 -2 5.5 -3t4.5 -2t3.5 -3t1.5 -6q1 -6 1.5 -8.5t0.5 -7.5q0 -2 -0.5 -4l-1 -4
t-2 -3.5t-4.5 -1.5h-26q-3 0 -5 2t-3.5 4.5t-1.5 5.5v5q0 6 0.5 9.5t2.5 5.5t4.5 4t7.5 5l2 2v37v35t-2 34q0 2 -2 2h-3q-4 0 -5.5 -3t-3.5 -8v-5.5v-8.5v-9v-5q0 -13 1 -26.5t1 -26.5q0 -2 -1.5 -4t-3.5 -2h-2.5t-1.5 2zM134 112q-3 1 -4 2.5t-1 4.5q11 0 24 -1t23 -1
q2 0 3 -1t1 -2q0 -2 -1 -3.5t-3 -1.5h-1q-2 0 -8 0.5t-12.5 1t-12.5 1t-8 0.5zM158 94q5 0 10.5 2.5t10.5 6t8.5 6t6.5 2.5q2 0 3.5 -1.5t1.5 -3.5q0 -5 -6 -8t-13.5 -5.5t-14 -5t-6.5 -6.5q0 -3 1 -5t4 -2q4 0 7.5 2l7 4t6.5 3.5t7 1.5q2 0 3.5 -0.5t2.5 -4.5q0 -2 -2 -3.5
t-5.5 -2.5t-6 -1.5t-3.5 -1.5q-1 0 -2 -0.5l-3 -1.5t-3.5 -1.5t-2.5 -0.5q-4 -2 -6 -5t-3 -5.5t-2 -4.5t-4 -2q-2 0 -3 2t-1 4t-0.5 5t-1.5 4q-2 3 -8 5.5t-12 4.5t-11 4.5t-5 6.5q5 0 9 -1.5t8 -3.5t8 -3.5t9 -1.5q3 0 3.5 1.5t0.5 4.5v4t-2 3q-9 3 -17.5 6.5t-15.5 9.5
q-1 0 -1.5 0.5l-0.5 0.5q0 3 1 3h3q5 0 10 -2t10 -5t10 -5.5t10 -2.5zM163 29q0 7 2 10.5t4.5 5t4.5 2.5l2 1v19q3 0 4.5 -2t2.5 -4.5t1.5 -5.5t1.5 -5q0 -1 2 -2t4 -1.5l4 -1t3 -1.5q2 -1 2.5 -3.5t0.5 -5v-5v-4.5q0 -5 -5 -5h-2.5t-2.5 2v13q0 2 -0.5 3t-2.5 1
q-1 0 -2 -0.5l-1 -0.5v-30q0 -1 -1.5 -1.5l-1.5 -0.5q-6 0 -7 6v5.5t-0.5 7.5t-0.5 7v5h-1h-1q-3 0 -3.5 -2t-0.5 -5v-4.5t-3 -2.5t-3 1.5v3.5zM115 31v4t1 3q0 3 3 5t6 3t5.5 1.5l2.5 0.5v18l1.5 -0.5t3 -0.5t1.5 -1v-12q17 -10 17 -28q-5 0 -6.5 2t-2.5 5t-2 5t-3 2v0h-1
v-3.5v-5.5t-0.5 -5.5t-0.5 -3.5t-1 -4t-3 -3h-1q0 1 -0.5 1.5l-0.5 0.5l-3 24q0 1 -1 1q-4 0 -5 -3t-1.5 -6t-1.5 -6t-3 -3q-3 0 -3 2q-1 1 -1 4v3zM71 56v-7q0 -6 2.5 -10t10.5 -4t10 2t2 9q0 8 -3 11.5t-11 3.5q-3 0 -5.5 -1t-5.5 -4z" />
</svg>
