<?xml version="1.0" standalone="no"?>
<!DOCTYPE svg PUBLIC "-//W3C//DTD SVG 1.1//EN" "http://www.w3.org/Graphics/SVG/1.1/DTD/svg11.dtd" >
<svg xmlns="http://www.w3.org/2000/svg" xmlns:xlink="http://www.w3.org/1999/xlink" version="1.1" viewBox="-10 0 266 256">
   <path fill="currentColor"
d="M205 246q1 2 2 2.5t3 0.5q7 0 7 -8q0 -6 -1.5 -11t-2.5 -11q0 -3 0.5 -7t0.5 -8q0 -5 -0.5 -9t-1.5 -8v-116q1 -5 1 -9v-9q0 -9 -1 -13.5t-3.5 -6t-5.5 -1.5t-7.5 0.5t-9.5 0t-10 -2.5q-2 -1 -4 -3l-3.5 -3.5t-3.5 -3t-3 -1.5q-2 0 -3.5 1t-1.5 3q0 3 3 6t6.5 5t6.5 5.5
t3 7.5v152q1 9 1 20v19q1 3 2.5 3.5t3.5 0.5t3 -1t1 -3q0 -16 -1.5 -32t-1.5 -32q0 -7 0.5 -13.5t0.5 -13.5q0 -17 -0.5 -33.5t-0.5 -33.5v-35q2 -7 9 -7q4 0 6 2t3.5 5t1.5 7v7q0 2 -0.5 5t-0.5 4v3.5t-0.5 7.5t-0.5 7v4v5t0.5 9t0.5 9v5v3v4l-0.5 3t-0.5 4q0 23 1 47l2 48
v3.5v5.5v6v4zM140 38h2.5t3 0.5t2.5 1.5t1 2v200q0 3 0.5 4t2.5 1q4 0 5 -3v-8v-8.5v-7.5t-0.5 -8t-0.5 -10v-167q0 -2 -4 -3t-9 -1.5l-10 -1t-7 -1.5q-2 0 -3 -1l-2 -2t-2.5 -1.5t-3.5 -0.5t-3.5 0.5t-1.5 2.5q0 3 1 4t3 2l4 2t3 3q0 2 0.5 8.5t0.5 13.5t0.5 13.5t0.5 9.5
v155l1.5 1.5l1.5 1.5h1q1 0 2.5 -2t1.5 -3v-186q0 -5 2.5 -8t6.5 -3zM47 145q-1 0 -3 2t-2 4v57q0 9 4.5 13t11 5.5t13.5 1.5h12q8 1 16 2.5t16 1.5v-2t-0.5 -4t-1.5 -4t-2 -2h-21l-1.5 -1l-1.5 -1q-1 -1 -2.5 -2t-1.5 -2v-12q0 -1 3 -2t7 -2t7 -2.5t3 -5.5v-46
q0 -1 -1 -1.5t-2 -1.5t-2 -1.5l-1 -0.5q-1 0 -2.5 1t-1.5 2v36q0 2 -0.5 4l-1 4t-2 3t-3.5 1h-2.5t-1.5 -1v-49q0 -2 -2 -2.5t-3 -0.5t-3 0.5t-2 2.5v73q0 2 -2 2.5t-4 0.5q-1 0 -3.5 -0.5t-5 -1.5t-4 -2t-1.5 -3l1 -3t1 -4v-1v-2q0 -4 -0.5 -10.5l-1 -13t-0.5 -11v-5.5
v-2.5t-0.5 -5t-1.5 -4.5t-3 -2zM44 122q0 4 2.5 5t5.5 1q13 0 24.5 -4t20.5 -15q0 -2 1 -3t1.5 -2t1 -2.5t0.5 -4.5l-1 -0.5t-2 -0.5v-0.5t-1 -0.5v0.5v0.5q-7 5 -12.5 9t-11.5 7t-12.5 4.5t-14.5 1.5q-2 0 -2 1.5v2.5zM44 98q0 2 0.5 4t3.5 2q5 0 13.5 -3t17 -7.5t15 -10
t6.5 -11.5v-2t-2 -2t-4.5 1.5t-4 3.5t-4 4t-3.5 3q-5 3 -9 4.5l-8 3t-8.5 2t-9.5 0.5q-2 2 -2.5 3.5t-0.5 4.5zM46 75q0 2 1 2.5t4 0.5q10 0 18 -4t13.5 -11t8 -16t2.5 -19v-4t-0.5 -6t-1.5 -5t-3 -2h-1q-4 2 -5 6t-1 9t0.5 9t0.5 7q-1 6 -4 9t-7 5t-8.5 3.5t-8 3.5t-6 4.5
t-2.5 7.5z" />
</svg>
