<?xml version="1.0" standalone="no"?>
<!DOCTYPE svg PUBLIC "-//W3C//DTD SVG 1.1//EN" "http://www.w3.org/Graphics/SVG/1.1/DTD/svg11.dtd" >
<svg xmlns="http://www.w3.org/2000/svg" xmlns:xlink="http://www.w3.org/1999/xlink" version="1.1" viewBox="-10 0 266 256">
   <path fill="currentColor"
d="M178 240q0 3 1.5 6.5t5.5 3.5q2 0 3 -1t3 -4q-3 -11 -4 -20.5t-2 -20.5l-1 -1.5t-1.5 -3.5t-1 -3.5l-0.5 -1.5v-2.5v-4.5t0.5 -7t1.5 -10.5t2.5 -9.5t3.5 -4q3 0 5.5 3.5t4.5 7.5t4.5 7.5t6.5 3.5q3 0 5 -2.5t2 -4.5v-1.5v-0.5l-1 -0.5t-2.5 -1.5t-2.5 -2l-1 -1
l-3.5 -3.5t-5 -5.5t-5 -5.5l-3.5 -3.5q-1 -2 -1.5 -3.5t-0.5 -3.5q0 -3 3 -6.5t6.5 -6t6.5 -5.5t3 -7q0 -3 -2 -3.5t-4 -0.5h-1h-2q0 1 -1.5 2.5t-3 3.5t-3 3.5t-2.5 1.5q-2 2 -2.5 3t-2.5 1h-1v0q-2 -3 -3.5 -6.5t-2.5 -7.5l-2 -8t-1 -6v-4h4t5.5 -0.5t5.5 -0.5h4h3.5
t5 -0.5t4.5 -1.5t2 -3v-2t-2 -1h-29l-1 -1t-2 -1t-1.5 -1l-0.5 -1v-15q8 1 15 -1.5t12 -6.5q4 -4 4 -10v-11v-9q1 -3 -1.5 -3h-3.5h-3t-2 2v21q0 2 -2 4t-4.5 3t-5 1h-4.5h-5q-1 0 -1 -1v-32l0.5 -1.5l0.5 -1.5v-1q0 -3 -3 -5t-6 -2h-1l-0.5 0.5t-1.5 0.5v16q0 15 1 28.5
t1 28.5h-27v-18q0 -2 -2 -2.5t-3 -0.5h-2t-1 1q0 3 -0.5 8.5t-0.5 12.5t-0.5 12.5t-0.5 8.5l-2 10t-2 9.5t-2 9.5t-1 11q0 4 1 8.5t3 8t5.5 5.5t9.5 2q9 0 13.5 -4.5t6 -11t1.5 -14.5t1 -15v-1.5v-2.5q0 -2 -0.5 -4.5t-4.5 -2.5q-2 0 -2.5 3.5t-0.5 8.5t-0.5 11.5t-1.5 11.5
t-4 9t-7 4h-3q-7 -5 -9 -9.5t-2 -12.5q0 -5 1.5 -11t2.5 -12t2.5 -12t2.5 -11l4 -2h29q0 2 0.5 5t1.5 6.5t1.5 7t1.5 4.5q1 6 3.5 10.5t2.5 10.5t-1 12.5t-2 12.5t-2 12.5t-1 12.5v9q0 2 0.5 8.5t1.5 13.5t1.5 13.5t1.5 8.5zM50 183v9q0 4 1 9.5t3 9.5t7 6l1.5 0.5t3.5 0.5
t4 0.5l2 0.5q10 2 18.5 4t19.5 2h4h6t5 -1.5t2 -4.5q0 -2 -2.5 -3.5t-4.5 -1.5q-5 0 -11 0.5t-11.5 0t-9.5 -3t-4 -9.5q0 -5 2.5 -6.5t5.5 -2.5l6 -2t5 -5q3 -6 3 -12v-13v-5v-5q1 -3 -1 -3h-3h-1h-1l-2 21q0 2 -1 5t-2 5.5t-3 4.5t-5 2h-1q0 -1 -1 -1.5l-1 -0.5v-28
q0 -1 -0.5 -2.5t-1.5 -3.5t-2 -3t-2 -1q0 14 -2 29t-2 29h-7.5t-5 -1.5t-2 -4.5t-0.5 -9q0 -5 1 -10t1 -11q0 -2 -1.5 -4.5t-4.5 -2.5q-1 0 -2 1t-1.5 3t-1 3.5t-0.5 2.5v12zM41 142l0.5 0.5l0.5 0.5l1.5 1.5l1.5 1.5q1 0 4.5 0.5t4.5 0.5q7 0 13 -2.5t14 -3.5q6 -1 10 -2
t7.5 -3t5 -5.5t1.5 -9.5v-3q0 -3 -1 -3q-1 -1 -2 -1.5t-2 -0.5q-3 0 -4 2t-1.5 4.5t-0.5 5.5t-1.5 4.5t-5.5 3t-10 2t-12 1.5t-11.5 1.5t-9 1.5t-3.5 3zM98 83q-3 0 -4.5 2t-2.5 5t-3 5t-6 3l-32 7q-1 0 -1.5 1t-0.5 2.5v2.5v1q6 0 15.5 -0.5t18 -2.5t15 -6.5t6.5 -13.5
q0 -2 -1.5 -4t-3.5 -2zM42 79v1q0 1 1.5 2t1.5 2h6q5 0 14 -1.5t17.5 -4.5t14.5 -7.5t6 -10.5t-4 -9.5t-8.5 -6t-9 -6t-4.5 -8.5v-1q1 0 1.5 -3t0.5 -4q0 -2 -2 -5t-5 -3q-2 0 -4 2.5t-2 4.5q0 3 0.5 7t2 7t3 6.5t4.5 5.5q2 2 4.5 3t5 2.5t4 3t1.5 4.5q0 5 -6.5 7.5t-15 4
t-16.5 3t-11 3.5v1z" />
</svg>
