<?xml version="1.0" standalone="no"?>
<!DOCTYPE svg PUBLIC "-//W3C//DTD SVG 1.1//EN" "http://www.w3.org/Graphics/SVG/1.1/DTD/svg11.dtd" >
<svg xmlns="http://www.w3.org/2000/svg" xmlns:xlink="http://www.w3.org/1999/xlink" version="1.1" viewBox="-10 0 266 256">
   <path fill="currentColor"
d="M135 213q9 1 18 5.5t17 9.5t16 11.5t15 11.5h0.5h0.5q4 0 5 -3q-2 -3 -5.5 -6t-6.5 -5.5t-6.5 -4.5t-6.5 -5q-8 -7 -15 -11t-14.5 -6.5t-16 -3.5t-19.5 -2q-2 0 -1.5 -2.5t0.5 -3.5v-3q1 0 3.5 -0.5t5 -0.5t5 -0.5t3.5 -0.5l2.5 -0.5t5 -1.5t4.5 -2.5t2 -3.5v-18
l0.5 -0.5l1.5 -1.5h1q4 0 10 4t12.5 8t12.5 8t11 4v-4l-1 -1l-3 -3l-3.5 -3.5t-3.5 -2.5q-1 -2 -5 -3.5t-7.5 -4t-6.5 -4.5t-3 -4t1.5 -4t3.5 -3.5t4.5 -2.5t3.5 -2v-1v-2q0 -2 -1 -4t-4 -2h-1.5h-0.5l-15 15h-1h-1q-4 0 -9 -2t-7 -5v-1v-1q1 -1 2.5 -2l3 -2t2.5 -2l2 -2
l1 -0.5t2 -0.5q6 -2 12 -2.5t11 -2.5t8.5 -5.5t3.5 -10.5v-4.5v-3.5q-1 -1 -2 -1.5t-2.5 -1.5t-2.5 -2t-1 -2q-1 0 -3 -1l-2 -1h-3.5h-6t-6 -1t-2.5 -4t2 -3q5 -1 10 -2.5t9.5 -4t7.5 -6t3 -9.5v-5t-1 -4q-5 -6 -9 -8.5t-7.5 -3t-6.5 -1t-6 -4.5q0 -1 0.5 -5.5t0 -9t-2.5 -8
t-7 -3.5v30l-4.5 1t-10 4t-9.5 9t-3 16q1 6 5 8t9 3t9 2t4 4t-4.5 4.5t-9.5 3t-9 5.5t-4 12q0 4 2.5 6.5t5.5 4.5t5.5 3t2.5 3q0 4 -3 5.5t-7 2t-7.5 0t-4.5 -0.5q0 1 1 2.5t2 2.5v0v1q0 2 -2 3t-4 1.5t-3.5 1.5t-1.5 3q0 3 1 5v41q-3 0 -6 -0.5t-6 -2.5q-1 -1 -2.5 -3
t-3 -5l-3 -6t-1.5 -6v-32l-1 -1.5t-2 -1.5h-1h-1q-2 3 -3.5 7t-2 8.5t-0.5 8.5v8q0 6 1.5 12t5 11t8 8.5t10.5 4.5h7.5t11 0.5t11 0.5h7.5zM125 152q2 0 5 0.5t6 1.5t5 3t2 5v0l-15 8v3h2h2t3.5 -1t3.5 -2q2 0 2 2v2q0 6 -4.5 10.5t-11.5 4.5h-1q-2 0 -3.5 -0.5t-3 -0.5
t-1.5 -1v-31q0 -1 1 -2t2.5 -1.5t3 -0.5h2.5zM91 115q-3 1 -10 5.5t-14 10t-12.5 10.5t-5.5 8q2 0 7 -2t11 -5t12.5 -7t12 -8t9 -7.5t3.5 -5.5q0 -3 -2.5 -7.5t-6.5 -5.5h-2.5h-1.5v14zM128 115q0 -5 3 -7t7.5 -3.5t8.5 -1.5h7h7.5t6.5 1.5t4.5 3.5t1.5 7t-3 7.5t-7.5 3.5
t-9 1h-8.5q-3 0 -6 -0.5t-5.5 -2t-4.5 -3.5t-2 -6zM54 101q1 2 3.5 2h3.5q4 0 7.5 -1.5t6.5 -3.5l6 -4l6 -4q3 -1 5.5 -1.5t4.5 -2t3.5 -3.5t1.5 -5q0 -2 -0.5 -4l-1 -4t-2 -3t-3.5 -1h-1q-1 1 -1.5 2.5t-1 3.5t-1.5 3.5t-1 2.5t-0.5 2t-1.5 2q-3 1 -8 3.5t-10 5.5t-9.5 5.5
t-5.5 4.5zM128 68q0 -3 1 -5t3 -3t3.5 -2.5l3.5 -3.5h26q2 0 3.5 1.5t2.5 3.5t1.5 4t0.5 4v2.5v2.5q-5 5 -11 7.5t-12 2.5q-4 0 -7.5 -1l-7 -2t-5.5 -3.5t-2 -7.5zM60 62q-1 1 -1 2.5v3.5q3 0 10.5 -4t15 -9.5t13 -11t5.5 -8.5t-0.5 -7.5t-2 -8t-4.5 -6t-7 -2.5q-2 0 -2 1.5
v1.5q0 4 1 6.5t1 5.5v5.5t-2 5.5q-4 8 -11 14.5t-16 10.5z" />
</svg>
