<?xml version="1.0" standalone="no"?>
<!DOCTYPE svg PUBLIC "-//W3C//DTD SVG 1.1//EN" "http://www.w3.org/Graphics/SVG/1.1/DTD/svg11.dtd" >
<svg xmlns="http://www.w3.org/2000/svg" xmlns:xlink="http://www.w3.org/1999/xlink" version="1.1" viewBox="-10 0 266 256">
   <path fill="currentColor"
d="M108 213h48q6 0 11.5 3t10 7.5t8.5 9.5t8 9q0 1 1.5 2.5l2.5 2.5l2 2l1 1h3v-4q-4 -5 -6.5 -8.5l-5 -7t-5.5 -7t-8 -7.5q-1 -2 -5.5 -3.5t-8.5 -3.5t-7.5 -4t-3.5 -3v-25l2 -3q1 0 3.5 -0.5t5.5 -1t5.5 -1.5t2.5 -3v0v0q0 -1 -1.5 -1.5l-1.5 -0.5q-1 0 -3 -0.5t-4 -0.5
t-4 -0.5t-3 -0.5l-2 -1v-12l15 -4l1 -1l2 -2v-1v0q-1 -1 -2.5 -1.5t-2.5 -0.5h-2.5t-3.5 -0.5t-4 -0.5h-3v-19q1 0 3 -0.5t4 -0.5t3.5 -0.5t2.5 -0.5q5 2 7.5 5.5t3 7.5t0.5 8.5v8.5q0 3 0.5 10t1 15t1 15t0.5 10q0 1 1 3t2 3l2 -1v-3.5t0.5 -7.5t0.5 -8.5v-7.5v-9v-8
q0 -12 -0.5 -21t-3 -15t-9.5 -9t-20 -4v-34l0.5 -0.5t1.5 -0.5q6 -3 10.5 -5.5t8 -6t5 -8.5t1.5 -12v-3v-5t-0.5 -5t-1.5 -2h-3q0 1 -0.5 4t-1.5 6t-1.5 6t-0.5 4l-2.5 5t-3.5 5.5t-4.5 4.5t-4.5 2t-3 -2.5t-1 -3.5v-6v-9v-9.5v-6.5t-0.5 -4.5t-0.5 -5t-0.5 -4.5l-0.5 -2
l-1 -1q-3 1 -4 5.5t-1.5 10.5t0 12.5t0.5 12.5t-0.5 9.5t-3.5 3.5v0q-7 -2 -10 -5.5t-4.5 -7t-2 -7l-1 -7t-2 -5.5t-4.5 -4v28q0 5 4.5 8t9.5 5t9.5 3t4.5 2v34l-2 1q-8 0 -13 3t-8.5 8t-5.5 12t-3 14t-1 13.5v11.5v5v5v4v2v2q0 2 0.5 3.5t1.5 3t2 1.5h1l1.5 -1.5l0.5 -0.5
v-5.5t0.5 -9t0.5 -9v-5.5q0 -5 0.5 -13t2.5 -16t6 -14t12 -6q2 0 3.5 0.5t2.5 2.5v4v4v6q0 3 -2 5h-3t-4.5 0.5t-4 1.5t-1.5 3l0.5 0.5l0.5 0.5q1 0 5 0.5t5 1.5q1 0 1.5 0.5t0.5 1.5v13q0 2 -2 2.5t-4 0.5q-3 0 -4.5 0.5t-1.5 2.5v1q5 0 8 1.5t4 4.5t0.5 7.5t-0.5 8.5v2v3
v3.5v2.5q-14 0 -27.5 1.5t-26.5 1.5h-7l-1 -2v-12q0 -2 2 -3t5 -1.5t6 -2t4 -4.5v-2v-3.5v-2.5v-2v-9q0 -4 -2 -8v0v0h-1v0q-1 0 -2 0.5t-2 1.5q0 1 0.5 3t0.5 5t-0.5 5.5t-0.5 3.5q0 2 -2 5.5t-5 3.5l-1 -0.5l-1 -0.5q0 -1 -0.5 -2.5t-0.5 -2.5t-0.5 -4.5t-1 -8t-1 -9.5
t-0.5 -8v0v-1q3 -3 5.5 -5t4 -4t2 -4.5t0.5 -6.5q0 -2 -1 -6t-4 -4h-1q-1 9 -5.5 14t-10.5 7.5l-12 5t-8 6.5q0 2 2 2h2h4l2 -0.5t4.5 -1t4.5 -0.5h3v0h1q2 8 2 17v18v5v5.5v6.5v4q-1 2 -4 2.5t-5 0.5q-1 0 -2.5 -1l-3 -2t-2.5 -2.5t-1 -2.5v-31l-1.5 -1.5t-2.5 -1.5h-1h-1
q0 4 -0.5 8t-0.5 7v6v8v12q1 3 4 6t7 3h2h4h4h2h18t17 -3zM61 107q0 2 1 2.5t3 0.5q3 0 8 -1.5t9.5 -4.5t7 -6.5t2.5 -7.5v-3t-1 -3.5t-2 -2.5t-2 -1h-1q0 1 -1 3l-2 4t-2 3.5t-1 2.5q-2 2 -5 3.5l-6 3t-5.5 3t-2.5 4.5zM100 107l0.5 0.5l0.5 0.5q2 0 4.5 -1t4.5 -2
t3.5 -2.5t3.5 -1.5l6 -2t6 -2.5t5 -4t2 -6.5q0 -1 -0.5 -2t-2.5 -1q-5 4 -9 6.5l-8 5l-8 5t-8 7.5zM167 83q0 4 4.5 8t10.5 7.5t12 6t9 3.5l1 1v-0.5v-0.5q1 0 2 -1l2 -2q-3 -4 -8 -7.5t-10.5 -7t-11.5 -5.5t-11 -2zM59 68q1 1 2 1h2q3 0 8.5 -2t11.5 -6t10 -8t4 -7
q0 -2 -0.5 -5t-1.5 -5.5t-2.5 -4.5t-3.5 -2h-1q-1 10 -3.5 14.5t-6.5 8t-8.5 6.5t-10.5 10z" />
</svg>
