<?xml version="1.0" standalone="no"?>
<!DOCTYPE svg PUBLIC "-//W3C//DTD SVG 1.1//EN" "http://www.w3.org/Graphics/SVG/1.1/DTD/svg11.dtd" >
<svg xmlns="http://www.w3.org/2000/svg" xmlns:xlink="http://www.w3.org/1999/xlink" version="1.1" viewBox="-10 0 266 256">
   <path fill="currentColor"
d="M203 248q0 1 1 1.5t2 0.5q2 0 3 -0.5t2 -2.5v-9v-8q0 -4 -0.5 -12.5t-0.5 -16.5t-0.5 -14t-0.5 -7q0 -8 -2 -15t-2 -15q0 -4 1.5 -8t1.5 -8q0 -3 -2 -6.5t-5.5 -6.5t-7 -5t-6.5 -2q-1 0 -2 1t-1 2v1q0 1 2.5 2t5 2.5t4.5 2.5t2 3v11q0 1 -0.5 1.5l-0.5 0.5q-4 0 -7 -1.5
t-6.5 -3.5t-6.5 -3.5t-7 -1.5h-3q-1 0 -1 1q1 1 5 3.5t9 5.5t9 5t4 3q0 4 -3 4.5t-5 0.5q-3 0 -5 -1l-4 -2t-4.5 -2t-4.5 -1q0 3 1 4.5t3 3t4 2.5l4 2h18q1 0 2 5.5t2 14t1.5 19t0.5 20v17.5v12zM121 150q0 3 -1 6.5t-2.5 6.5t-2.5 6.5t-1 7.5v70q0 1 1.5 1.5t2.5 0.5
t1.5 -0.5l1.5 -1.5v-9v-13t0.5 -15t0.5 -15v-13v-9l0.5 -2t0.5 -4t0.5 -4t0.5 -3q1 -3 3.5 -4.5t6.5 -1.5q3 0 7.5 0.5t8 0.5t5.5 -2t2 -6q-5 0 -9.5 2t-10.5 2q-1 0 -2.5 -0.5t-2.5 -3.5q3 -5 8.5 -8t10.5 -5v-6q-4 0 -7.5 2t-6.5 4t-6 3.5t-6 1.5q-2 0 -2.5 -2t-0.5 -4
q0 -4 3 -7t6.5 -5t6 -3.5t2.5 -3.5t-1.5 -3.5t-3.5 -1.5l-0.5 0.5l-0.5 0.5q-8 5 -13 10t-5 14q0 5 2.5 8.5t2.5 7.5zM142 214q1 4 7 9t12.5 10t13.5 8.5t11 3.5q0 -7 -5.5 -11t-12 -6.5t-12 -6t-5.5 -9.5q0 -1 1 -3.5t3 -2.5l30 -3q2 -1 3 -2.5t1.5 -4t0.5 -4.5v-3v-8
q-2 -2 -4.5 -3.5t-5.5 -2.5q-1 0 -4.5 -0.5t-8 -0.5t-8 -0.5t-4.5 -0.5h-2.5h-2.5h-3.5t-4.5 0.5t-3.5 1t-1.5 3.5v0v0q0 1 1.5 1.5l1.5 0.5h3h4h5h3q3 1 3 3v5q0 6 -1.5 8t-3.5 3t-4.5 2t-3.5 5q0 1 -1.5 4t-1.5 4zM45 149q0 13 0.5 26t1.5 26q0 2 1 4.5t2.5 4.5t3.5 4t4 2
h34q2 0 5 -1t3 -4q0 -2 -1 -2.5t-4 -0.5q-1 0 -4 -0.5t-6 -0.5t-5.5 0.5t-3.5 0.5q-2 -3 -2 -4.5v-3.5q0 -6 2 -8t5 -2.5t6.5 -1.5t5.5 -5q2 -3 3 -8t1.5 -10.5t0.5 -11v-9.5q0 -2 -1.5 -4.5t-4.5 -2.5v0l-2 2t-1 2v4v6v7v4q0 2 -0.5 6t-2 7.5t-3.5 5.5t-6 2h-2t-1 -2v-8
v-14v-13v-9l-0.5 -1.5t-0.5 -3t-0.5 -3l-0.5 -1.5v-3v-2q1 -1 2.5 -2t3.5 -2t3.5 -1.5t2.5 -1.5l1.5 -0.5l1.5 -0.5q0 -2 1 -5.5t1 -4.5v-1v-1v-0.5v-1.5q-1 -1 -1.5 -3.5l-0.5 -2.5q-1 -1 -3.5 -1.5l-2.5 -0.5v15l-4 3q-1 1 -6 3t-10 3.5t-9.5 3t-4.5 2.5q0 3 1 4t3 1
q3 0 5.5 -1t5.5 -1h2l2 13v69h-9q-2 -17 -3.5 -33t-1.5 -33q-1 0 -2 -0.5t-2 -0.5v0q-2 0 -2.5 1t-0.5 2.5v3v1.5zM164 186q0 -4 1.5 -5t5.5 -1q5 0 9 1.5t4 7.5q0 3 -2 6t-5 3q-13 0 -13 -12zM138 53v35q0 7 3 10t7.5 4.5t9.5 2t8 0.5h5.5h3.5l4 -4v-16q0 -1 2.5 -2t5.5 -2
t5.5 -1h3.5h5q1 1 1.5 3.5t0.5 3.5v0.5v1.5v0.5v0.5q-2 3 -5 4.5t-6 2t-5 1t-2 2.5t2.5 2.5t4.5 0.5t5 -0.5t5 -1.5t4 -3t2 -4v-61q0 -2 -2 -2.5t-3 -0.5q-2 0 -2.5 0.5t-0.5 2.5q0 1 -0.5 3t-0.5 4.5t-0.5 4.5t-0.5 3q0 2 -3 2h-3q-5 0 -6.5 -0.5t-2 -2t-0.5 -3.5t-3 -6
q-1 -2 -4 -2t-6 -0.5t-5.5 -1t-2.5 -3.5v-15l-2.5 -0.5t-3.5 -0.5t-2 2.5l-1 2.5v1q0 2 1 4.5t1 5.5t-4.5 6t-10 5t-10.5 3t-8 1q-4 0 -4.5 -2.5t-1 -5.5t-1 -5.5t-4.5 -2.5q-2 0 -3 1.5t-2 3.5v2v4v4v3q0 11 1.5 22.5t2.5 23.5q3 4 5.5 6t7.5 2h3q3 0 5 -0.5t3.5 -1
t2.5 -2.5q-1 -2 -3.5 -2.5t-5.5 -0.5h-5.5h-3.5q-3 -5 -3 -12q0 -3 2 -4t4.5 -2t4.5 -2t4 -5q-8 3 -13 -0.5t-5 -10.5q0 -2 0.5 -4t4.5 -2h20zM153 90q0 -2 2 -3.5t4 -1.5t4 1t3 3l2 4t1 4t-1.5 2.5t-3.5 0.5q-5 0 -8 -2.5t-3 -7.5zM82 75q-4 3 -9.5 5t-10.5 3.5t-9 4
t-4 8.5q3 0 9 -1.5t12.5 -3.5t11.5 -4.5t7 -4.5q0 -5 0.5 -9t0.5 -8q0 -2 -1 -4t-4 -2q-1 0 -2 0.5t-1 3.5v2v4v4v2zM164 72q0 -3 1 -6t3 -6t4.5 -4.5t4.5 -1.5q0 3 0.5 8t0 10t-1.5 10t-4 8q-1 -1 -2.5 -3t-2.5 -5l-2 -6t-1 -4zM145 87v-31q0 -1 0.5 -1.5l0.5 -0.5q2 0 4 2
t3.5 5t2 5t0.5 3v1q0 2 -1.5 5t-3 5.5l-3 5t-2.5 2.5zM190 57q5 0 7.5 2t2.5 7q0 3 -2 5.5t-6 2.5h-2t-2.5 -0.5t-2.5 -1t-1 -2.5v-11l0.5 -1l0.5 -1h2.5h2.5zM153 45q0 -3 1.5 -3.5t4.5 -0.5t7 1.5t6 5.5l-0.5 0.5t-1.5 0.5q-2 2 -3.5 2.5t-2.5 1.5t-2 2.5t-1 5.5h-0.5
h-1.5t-2 -2t-2 -4.5t-1.5 -5.5t-0.5 -4zM82 38q0 4 -2.5 5.5t-6.5 2.5t-8 1t-8 1.5t-6.5 4t-2.5 6.5q21 0 39 -11q6 -4 6 -12q0 -2 -0.5 -6.5t-2 -8.5t-4.5 -6.5t-6 -2.5h-1l-1 0.5l-1 0.5v1q0 6 2.5 12t2.5 12z" />
</svg>
