<?xml version="1.0" standalone="no"?>
<!DOCTYPE svg PUBLIC "-//W3C//DTD SVG 1.1//EN" "http://www.w3.org/Graphics/SVG/1.1/DTD/svg11.dtd" >
<svg xmlns="http://www.w3.org/2000/svg" xmlns:xlink="http://www.w3.org/1999/xlink" version="1.1" viewBox="-10 0 266 256">
   <path fill="currentColor"
d="M185 165q3 2 4.5 5.5t2.5 7t1 7.5v7t0.5 11t0.5 17t0.5 17.5t0.5 11.5h1h1q3 0 4 -1t3 -4v-6.5t0.5 -9.5t1 -9.5t0.5 -5.5v-2q0 -4 -0.5 -11t-2 -14t-3 -13.5t-4.5 -10.5q-3 -5 -10 -7.5t-14.5 -4t-13.5 -4.5t-6 -8t2.5 -7.5t6 -4t7.5 -2.5l8 -2q1 0 4 -0.5t6.5 -1
t6.5 -1t5 -0.5q3 -1 4.5 -3.5t2.5 -5.5t1 -6v-6q0 -12 -5 -16.5t-17 -4.5q-11 0 -23 0.5t-23 2.5q-1 0 -1.5 1.5t-0.5 2.5l0.5 2t1.5 2h22l2 1l0.5 2.5t0.5 5v5.5v5q0 5 -3 7.5t-6.5 4.5t-6.5 6t-3 11q0 5 1.5 11.5t6.5 9.5q8 3 16.5 5t16.5 3zM56 230q0 2 1.5 3.5t3.5 1.5
q6 0 12.5 -8t12 -20.5t11 -27t9.5 -28.5t6.5 -25.5t2.5 -16.5q0 -7 -3.5 -12t-7 -9.5l-7 -9t-3.5 -9.5q0 -9 2 -13.5t6 -5.5t10 -1t13 -1q1 0 2.5 -1t1.5 -2v-1q0 -3 -2.5 -4t-5.5 -1h-2h-1q-1 0 -2.5 0.5t-4 1t-4 1t-2.5 0.5h-4h-6h-6.5h-3.5q-2 0 -7 0.5t-10 0.5t-9.5 0.5
t-6.5 0.5t-2 1v2q0 4 3 6t6 2h1q5 -1 10.5 -2t11.5 -1q2 0 2.5 1t0.5 3v3q0 1 -0.5 3.5t-0.5 5t-0.5 5l-0.5 2.5q0 5 3.5 9t7 8.5t6.5 9.5t3 11v2l-0.5 2.5t-0.5 3.5q-3 17 -7 29.5t-9 23.5t-11.5 22.5t-14.5 26.5q-1 1 -2 3.5t-2 3.5v0zM173 107v-2v-2.5t0.5 -3t0.5 -3
v-2.5t1 -3.5l1 -2.5h19q1 0 1 1.5v2.5v1v1q0 1 -0.5 3t-1 4.5t-1 4.5l-0.5 2q-4 2 -7 2.5t-7 0.5h-3h-2q-1 -1 -1 -2v-2zM151 42q0 6 1 9.5t4 5.5t7 2.5t10 0.5h6t5.5 -0.5t5.5 -1.5l6 -2q6 -3 7.5 -9.5t1.5 -12.5l-0.5 -1.5t-0.5 -3v-3v-2.5q-1 -2 -3 -4t-5 -3h-16
q-9 0 -15 0.5t-9 2.5t-4 7t-1 15zM160 41q0 -6 1.5 -9t6.5 -6h3.5t5 -0.5t5 -0.5t3.5 -1h1h1q1 1 3.5 2.5t2.5 3.5v12q0 3 -2.5 4.5t-6 2.5t-7 1h-4.5q-6 0 -9.5 -1.5t-3.5 -7.5zM64 20q0 3 4 4l2 0.5t3 0.5q12 0 24.5 -1t24.5 -2q4 -2 4 -5q0 -4 -3.5 -5.5t-6.5 -1.5
q-5 0 -11.5 0.5t-12.5 1t-12 1.5t-11 1q-2 1 -3.5 2.5t-1.5 3.5z" />
</svg>
