<?xml version="1.0" standalone="no"?>
<!DOCTYPE svg PUBLIC "-//W3C//DTD SVG 1.1//EN" "http://www.w3.org/Graphics/SVG/1.1/DTD/svg11.dtd" >
<svg xmlns="http://www.w3.org/2000/svg" xmlns:xlink="http://www.w3.org/1999/xlink" version="1.1" viewBox="-10 0 266 256">
   <path fill="currentColor"
d="M139 142q0 1 0.5 4.5l1 7t1.5 6t3 2.5h31q3 0 5 4.5t3.5 10t2.5 11.5t1 8v53q0 1 1 1.5t2 0.5q3 0 4.5 -2t2.5 -5t1.5 -5.5t0.5 -4.5q-1 -18 -2.5 -36t-4.5 -35q-1 -4 -7 -6.5t-13 -3.5t-14 -1.5t-11 -1.5q-1 0 -1 -2v-3q0 -7 4 -9.5t9.5 -3t12 -0.5t12.5 -2t10 -7t4 -16
q0 -4 -1 -7.5t-4 -6.5h-6h-6h-8t-12.5 0.5t-12.5 0.5h-8q-1 1 -1.5 2t-0.5 2q0 2 1 3t3 1q3 0 5.5 -1t5.5 -1q2 0 3.5 1t1.5 4v16q0 3 -3 4.5t-7 3t-7 4.5t-3 9zM106 240q-1 3 0.5 3h3.5q3 0 5.5 -2t2.5 -6q0 -11 -2 -22.5t-4 -22.5l-4 -22t-2 -22v-3q6 -6 10.5 -12.5
t4.5 -15.5v-8.5t-1.5 -8t-4.5 -3.5l-6 -2t-5.5 -2.5t-2.5 -3.5v-2q0 -2 0.5 -6.5t0.5 -9.5t0.5 -9.5t0.5 -6.5q0 -1 1.5 -1h2.5h2q1 0 2.5 1.5l3 3t3 3.5t2.5 2l2 4t4 2q2 0 2.5 -2t0.5 -4q0 -5 -3 -8t-6.5 -5.5t-8 -5t-7.5 -5.5q0 -1 0.5 -3.5t0.5 -5.5t-0.5 -5.5
t-0.5 -3.5v-3t-0.5 -3.5t-1.5 -3t-3 -1.5t-3 4t-1.5 9t-0.5 10t-2 8q-2 4 -7.5 7t-10.5 6t-9 7t-4 10q6 0 10.5 -3t8.5 -7t7.5 -7t5.5 -3h1l0.5 0.5t0.5 1.5v4v5v5v4q0 2 -0.5 5l-1 6t-1 5l-0.5 2l-1 2q-1 0 -3 -0.5t-4 -0.5t-4 0.5t-3 0.5h-3t-4 0.5t-3.5 1.5t-1.5 3
q0 3 1.5 3.5t3.5 0.5q7 0 13.5 -1t13.5 -1q6 0 10 4t4 10q0 2 -0.5 5t-1 6.5t-2 6t-3.5 2.5t-3 -3l-2 -6t-4 -5.5t-10 -2.5h-9t-9 2q-2 1 -2 3v4q5 0 10.5 -1t11.5 -1q2 0 3 2l2 4t1.5 4.5t0.5 4.5q0 4 -6 6.5t-13 4t-13 3t-6 5.5q0 3 2 4t5 1t5 -1t6 -2q1 -1 3.5 -2t5.5 -2
t5.5 -2.5t3.5 -1.5h1.5h0.5q3 0 4 2t1.5 5t0.5 6v5q0 1 0.5 5t1 9.5t1.5 12t1.5 12t1 9.5t0.5 5v4.5v5.5v6v4zM170 102q1 0 2.5 -0.5t3.5 -1.5t4 -1h3h1q1 0 2.5 2l1.5 2v15q0 2 -2 3t-5 1.5t-5.5 0.5h-2.5h-2t-1 -2v-19zM148 57q0 4 0.5 8t2 7.5t4 5.5t7.5 2h5h7t7.5 -0.5
t5.5 -0.5q4 -4 6.5 -9.5t2.5 -11.5q0 -4 -0.5 -7.5t-2 -6.5t-4 -4.5t-6.5 -1.5h-13t-10.5 1.5t-8 5.5t-3.5 12zM156 61q0 -8 3.5 -11t11.5 -3q6 0 10 1.5t4 7.5q0 9 -4 12.5t-14 3.5h-4q-3 0 -4 -1q-3 -2 -3 -4.5v-5.5z" />
</svg>
