<?xml version="1.0" standalone="no"?>
<!DOCTYPE svg PUBLIC "-//W3C//DTD SVG 1.1//EN" "http://www.w3.org/Graphics/SVG/1.1/DTD/svg11.dtd" >
<svg xmlns="http://www.w3.org/2000/svg" xmlns:xlink="http://www.w3.org/1999/xlink" version="1.1" viewBox="-10 0 266 256">
   <path fill="currentColor"
d="M190 198v6.5t-0.5 10.5t-0.5 10.5v6.5v4t-0.5 6.5t-0.5 6.5v4q8 0 10.5 -4.5t2.5 -11.5q0 -3 -0.5 -5t-1.5 -5v-10v-15v-15v-9q0 -8 -1 -15.5t-5 -13.5q-1 -3 -4.5 -4t-7.5 -1t-8.5 -0.5t-8 -1.5t-6 -3t-2.5 -7q0 -6 3 -8.5t7.5 -3.5t10 -0.5t11 0t9.5 -2.5t5 -7v-5v-5
q0 -7 -1 -11t-3.5 -5.5t-7 -2t-10.5 -0.5h-8.5t-7 0.5t-8 1t-9.5 1.5q-2 1 -2 1.5v1.5v2t2 1h6.5t6 1t4 3t1.5 7q-1 4 -2.5 6.5t-3.5 4l-4 3t-4 4t-3.5 7t-1.5 12.5q0 1 0.5 3.5l0.5 2.5l6 6l28 3l5 5l0.5 5t1.5 11.5t1.5 13t0.5 10.5zM87 247q0 1 1 1h2q4 0 5 -4t1 -7
q0 -12 -2 -23.5t-2 -24.5v-4t1 -5l0.5 -1l0.5 -1q5 -9 13 -16t14 -13l2 -5l1 -2l2 -4t2 -3.5t1 -2.5q3 -9 3 -18v-19v-4v-7v-6v-4q-1 -1 -1 -3t-0.5 -4l-1 -4t-0.5 -3v-1v-3v-3v-2q-1 -6 -5.5 -9t-10 -5t-10 -3.5t-4.5 -3.5q0 -4 1.5 -8t1.5 -8q0 -3 -2 -5.5t-4 -2.5h-2.5
t-1.5 2v22q0 2 -2 3t-3 2q-1 0 -3.5 0.5t-6 1t-6 1.5l-2.5 1q-5 2 -7.5 6t-4 9t-2 10.5t-0.5 9.5q0 3 -0.5 9t-0.5 12.5v12v6.5q0 9 0.5 17t3 14t8 9.5t15.5 3.5h5.5t3.5 -3q0 -2 -4 -3t-8.5 -3.5t-9 -7.5t-6.5 -15v-20q0 -14 1 -27.5t4 -27.5q5 -7 13.5 -8t16.5 -1h3
q1 0 3 0.5t4 0.5t3.5 0.5l1.5 0.5q4 1 6.5 8t4 15.5t1.5 16v10.5q0 5 -0.5 12t-1.5 14.5t-3 14t-5 9.5l-26 26q-2 6 -3.5 11.5t-1.5 13.5q0 12 1 25.5t3 26.5zM70 123q0 4 1 6.5t3.5 4.5t5.5 3t7 3v0q3 0 6.5 -0.5t6.5 -1.5t5.5 -3.5t3.5 -5.5v-4t0.5 -6.5t0.5 -6.5t1 -4
l0.5 -1t1 -2.5t1 -2.5l0.5 -1v-3v-3q-3 0 -4.5 3t-2.5 7t-1.5 9t-2 9t-5 6.5t-10.5 2.5q-4 0 -6.5 -2t-2.5 -6q0 -5 2.5 -8l5 -6l5 -6t2.5 -8q0 -4 -2 -7t-4.5 -5.5t-4.5 -5.5t-2 -7q0 -3 1.5 -4.5t4.5 -2.5t5.5 -1.5t4.5 -0.5h3t3.5 0.5t3 2t1.5 3.5q0 3 -2 5l-4 4l-4 4
t-2 5q9 0 12.5 -4.5t3.5 -13.5q0 -7 -3 -10.5t-10 -3.5q-10 0 -17.5 5.5t-7.5 15.5q0 4 2 6.5t4.5 5t4.5 5t2 6.5q0 3 -3 6t-6 5.5t-5.5 6t-2.5 7.5zM174 110v-18h16v15l-3 3h-13zM148 50q0 5 2 8.5t5 5t7 2t9 0.5q13 0 17.5 -5t4.5 -17v-11l-3 -3t-4 -3h-4.5h-4.5
q-12 0 -20.5 5t-8.5 18zM157 49q0 -8 4.5 -10.5t11.5 -2.5q5 0 7.5 1.5t2.5 6.5q0 9 -3 11t-12 2q-5 0 -8 -1t-3 -7z" />
</svg>
