<?xml version="1.0" standalone="no"?>
<!DOCTYPE svg PUBLIC "-//W3C//DTD SVG 1.1//EN" "http://www.w3.org/Graphics/SVG/1.1/DTD/svg11.dtd" >
<svg xmlns="http://www.w3.org/2000/svg" xmlns:xlink="http://www.w3.org/1999/xlink" version="1.1" viewBox="-10 0 266 256">
   <path fill="currentColor"
d="M188 245q0 2 0.5 3.5t2.5 1.5q3 0 4 -3t2 -5q0 -1 0.5 -4.5t0.5 -7t0.5 -6.5t0.5 -5q0 -1 -0.5 -7t-0.5 -13t-0.5 -12.5t-0.5 -7.5v-16t-1 -16q-2 -8 -6.5 -11t-10.5 -4t-12 -1t-11.5 -0.5t-9 -3t-3.5 -9.5v-7q1 -1 3 -2t4.5 -1.5t4.5 -0.5h3h29q8 -2 11.5 -8t3.5 -15
q0 -2 -1 -5.5t-2.5 -6.5t-3.5 -4.5t-5 -2.5q-1 0 -3 0.5t-5 0.5t-5 0.5l-2 0.5h-42q-2 1 -2 2v3v2t2 2h26v20q0 3 -3.5 3.5t-8.5 2t-9 5.5t-4 14t4 14t10.5 4.5t13.5 0t13.5 0t10.5 5t4 14.5v77q-2 3 -2 5v4zM59 138q1 0 1.5 0.5l0.5 0.5q0 1 2.5 2.5t3.5 2.5h2h4.5h3.5h3
h16t12.5 -2t9 -7t3.5 -16v-2v-1q0 -3 -0.5 -10.5t-0.5 -16t-0.5 -18.5t-1 -19t-0.5 -16v-11q0 -2 -2 -4.5t-4 -2.5h-2t-1 2v28h-41l-1 -1q-2 -5 -2 -11v-11q0 -2 -2.5 -4t-4.5 -2t-3 2v7v11v11v7v10v11v10v5q0 3 0.5 9t1 13t1.5 13.5t1 9.5zM64 72q0 -5 1.5 -8t5.5 -5h7
t9 -0.5t9.5 -0.5h8.5t5.5 1.5t1.5 5.5v1.5v0.5l-1 2t-1 3v0q0 8 1 16t1 17v3v6v6v4q-2 5 -4 7t-5 3t-6.5 0.5t-8.5 -0.5q-7 0 -11 -0.5t-6.5 -3t-3.5 -6.5t-2 -11v-6.5t-0.5 -11.5t-0.5 -11v-6v-6zM179 76h6q2 0 4 1t3 3t1 6q0 2 -1.5 5.5t-3.5 4.5q-1 0 -3 0.5t-4.5 0.5
t-4.5 0.5t-3 0.5l-2 -0.5t-3 -1.5l-0.5 -0.5l-0.5 -0.5v-16l0.5 -0.5l0.5 -0.5q3 -2 5 -2h6zM73 92v2.5t1 1.5h23q2 0 3 -2t1 -4t-1.5 -3.5t-3.5 -1.5t-5.5 0.5t-7.5 1t-7 2t-3 3.5zM143 48q0 1 0.5 1.5l0.5 0.5l4 2t3 1h28q8 0 11 -4.5t3 -11.5q0 -1 -0.5 -4.5t-1.5 -8
t-3 -8t-4 -3.5h-30q-4 0 -6.5 2.5t-4 5.5t-2.5 6.5t-1 6.5v1q0 1 0.5 3l1 4l1 4zM146 33q0 -3 1.5 -5.5t4 -3.5t5.5 -1.5t6 -0.5q6 0 9.5 0.5t9.5 1.5q2 1 2.5 3t0.5 4q0 6 -1.5 9.5t-5 5t-7.5 1.5h-9q-8 0 -12 -2.5t-4 -11.5z" />
</svg>
