<?xml version="1.0" standalone="no"?>
<!DOCTYPE svg PUBLIC "-//W3C//DTD SVG 1.1//EN" "http://www.w3.org/Graphics/SVG/1.1/DTD/svg11.dtd" >
<svg xmlns="http://www.w3.org/2000/svg" xmlns:xlink="http://www.w3.org/1999/xlink" version="1.1" viewBox="-10 0 266 256">
   <path fill="currentColor"
d="M189 246q1 2 2 3.5t4 1.5t5 -2.5t2 -5.5v-13v-12q0 -3 -0.5 -9t-1 -12.5t-1 -12.5t-0.5 -9q0 -5 -4 -7.5t-9 -4t-11.5 -1.5t-11.5 -0.5t-8.5 -2.5t-3.5 -7q0 -2 2 -5.5t3 -5.5q1 -1 2.5 -1t3.5 -0.5t3.5 -0.5h2.5h5.5h9.5h9.5h6.5q2 -1 2.5 -3t1.5 -4.5t1.5 -4t2.5 -2.5
v-5t-0.5 -6.5t-1.5 -7t-3 -5.5q-4 -1 -9 -1.5t-10.5 -0.5h-10.5h-8h-4t-6 0.5t-5 0.5h-3l-3 1l5 6h16v24q-6 0 -9.5 1.5t-5.5 4t-2.5 7t-0.5 8.5v4.5v4.5q4 6 9.5 7t11.5 1.5t11.5 1.5t8.5 6q0 1 0.5 3t1 4.5t0.5 5v2.5v54zM45 229q0 2 1.5 3.5t3.5 1.5q4 0 6 -4t2 -7
t0.5 -7.5t0.5 -10v-10v-6.5v-9t-0.5 -15t-0.5 -15.5v-8.5v-2q0 -8 4 -10.5t12 -2.5q3 0 3.5 2t0.5 4v3v3q0 3 -0.5 9t-1 14t-0.5 16.5t-0.5 16.5t-1 14.5t-0.5 9.5l-0.5 2t-1.5 3v0v1q1 1 2.5 2l1.5 1q2 1 4 -0.5t3 -3.5t1 -4v-4q0 -3 -1 -5.5t-1 -5.5v-4q1 -9 2 -17.5
t1.5 -17t1 -18t1.5 -19.5q1 -2 4 -2t5 1.5t4 3.5v10q0 15 -0.5 31t-1.5 31q0 6 -2 11.5t-2 11.5q6 0 8.5 -2.5t3 -7t0.5 -9v-8.5v-24q0 -2 0.5 -8t0.5 -13.5t0.5 -14t0.5 -8.5t2 -3.5t4 -1.5q1 0 4.5 1l3.5 1v8v8v3t-0.5 6.5t-0.5 6v3.5v3.5t0.5 7t0.5 7v4.5v1v2
q0 2 -0.5 7.5t-1 12t-0.5 12t-1 7.5q1 3 2 5t4 2q2 0 4 -2.5t3 -5t1.5 -5.5t0.5 -5v-1q0 -1 -0.5 -5.5t-0.5 -9t-0.5 -9t-0.5 -5.5q0 -12 0.5 -25.5t0.5 -27.5q0 -13 -0.5 -27t-1.5 -27q-2 -5 -5.5 -7t-7 -2.5t-7.5 -0.5t-7 -0.5t-4.5 -3t-1.5 -8.5v-3v-3l2.5 -2.5t2.5 -1.5
h18q2 0 3.5 -1.5t1.5 -3.5v-2t-2 -2h-20q-4 0 -4.5 -4t0 -9t0 -9.5t-5.5 -4.5h-1l-1.5 1.5l-0.5 0.5l-3 54q-13 1 -19.5 2t-9.5 4t-4.5 9l-4.5 18v7t-0.5 12l-1 14t-0.5 13.5t-0.5 11.5t-0.5 8v42q0 5 -1.5 10.5t-1.5 10.5zM183 107q6 0 9.5 3t3.5 9v2t-0.5 4.5t-1 4
t-2.5 1.5h-18q0 -3 -0.5 -7t0 -7.5t2.5 -6.5t7 -3zM95 75q1 0 2.5 0.5l1.5 0.5l2 3v33q0 4 -1.5 6t-5.5 2q-2 0 -4 -1t-2 -4v-34q0 -4 2.5 -5t4.5 -1zM63 117v-10v-8t1 -9.5t3 -8.5t6 -4q3 0 4 2t1.5 4t0.5 4.5v3.5q0 3 0.5 7.5t0 9t-2 8t-5.5 3.5q-2 0 -4.5 -0.5t-4.5 -1.5
zM117 77q3 0 4.5 1t1.5 4v35l-0.5 0.5l-0.5 0.5l-2 0.5t-3 0.5q-3 0 -5.5 -1t-2.5 -4v-33q0 -1 1 -2t2.5 -1t3 -0.5zM150 61q0 15 7 19.5t22 4.5q8 0 12.5 -1t6.5 -4t2 -7.5v-11.5v-10q-1 -3 -3.5 -4t-5.5 -1.5t-5.5 -1t-5.5 -0.5q-4 0 -9.5 0.5t-10.5 2t-7.5 4.5t-2.5 10z
M159 68q0 -1 0.5 -3.5t1.5 -5.5t2.5 -5t4.5 -2h19q3 0 4 1.5t1.5 3t0.5 2.5v3t-0.5 3t-1 4.5t-1.5 4.5t-3 2h-21q-3 0 -5 -3t-2 -5z" />
</svg>
