<?xml version="1.0" standalone="no"?>
<!DOCTYPE svg PUBLIC "-//W3C//DTD SVG 1.1//EN" "http://www.w3.org/Graphics/SVG/1.1/DTD/svg11.dtd" >
<svg xmlns="http://www.w3.org/2000/svg" xmlns:xlink="http://www.w3.org/1999/xlink" version="1.1" viewBox="-10 0 266 256">
   <path fill="currentColor"
d="M200 249q0 2 3 2q2 0 3 -1.5t2 -3.5t1 -4.5v-4.5v-11.5t-0.5 -18.5t-1.5 -21t-2 -19.5t-3.5 -14.5t-5.5 -7l-27 -3q-2 0 -3.5 -4t-1.5 -6q0 -6 3.5 -9t9 -4.5t12 -2.5t11.5 -3t8.5 -6.5t3.5 -12.5q0 -5 -1 -8t-3 -4.5t-5 -1.5h-7h-10q-8 0 -15 0.5t-12.5 2.5t-5.5 5
q0 1 1.5 1.5l1.5 0.5h3h4h5h3l3 4l1 15q1 0 -0.5 1.5l-2.5 2.5l-7.5 4.5t-4.5 3.5t-2 5.5v10.5q0 6 2 9t5 4t7 0.5t8 -0.5t7.5 1t5.5 5q2 3 3 10t1.5 15.5t1 18.5t0.5 19v17t1 13zM54 198q0 3 1.5 4t3.5 1q7 0 15 -1.5t15 -2.5t15 -0.5t15.5 0t15.5 -2t15 -4.5v-0.5v-1.5
q0 -3 -1.5 -3h-3.5q-7 0 -13.5 1t-13.5 1h-5.5h-4.5l-2 -2v-19l4 -5h24q2 0 3 -3t1 -4h-32v-21l1 -0.5t1 -1.5q2 -1 4 -3.5t4.5 -5.5t4.5 -5t4 -2q4 0 6 3l4 6l4 6t5 3t3.5 -1t0.5 -4q0 -2 -2.5 -6.5t-6.5 -9t-8 -7.5t-5 -3q-3 0 -4.5 2.5t-3.5 6t-4 6t-4 2.5h-4v-3t-0.5 -8
l-1 -10t-1.5 -8v-3q0 -1 3.5 -4.5l7.5 -7.5t8 -7.5l4 -3.5q3 0 5 2t3.5 5t3.5 5t5 2q4 0 4 -4q0 -3 -2 -6.5t-4.5 -6.5l-5 -6t-4.5 -5h-2h-1q-4 0 -6 3t-4 7t-4.5 7.5t-7.5 3.5v-38q0 -1 3.5 -2.5l7 -3t6.5 -3.5t3 -6q0 -2 -0.5 -4t-3.5 -2h-0.5h-0.5q-5 3 -9 6t-7 6.5
t-4.5 8t-1.5 10.5v111q0 2 -5 2h-10.5t-10.5 1t-5 5q0 2 0.5 4t2.5 2q6 0 12 -2t12 -2h2t2 2v21l-2 1l-3 0.5t-7 0.5t-8.5 0.5t-7.5 0.5h-3q-1 0 -2.5 0.5t-3.5 0.5t-4 0.5t-3 0.5l-0.5 1.5l-0.5 1.5v0.5v0.5zM72 95q-3 0 -7.5 5t-9 11.5t-7.5 13t-3 9.5q3 0 6.5 -2.5
t7 -6.5t6.5 -8t5 -6v0h1q2 0 4 2t3 4.5t2 4.5t1 3h6q0 -2 -1.5 -7t-4 -10t-5 -9t-4.5 -4zM183 96v-6q3 -1 6.5 -2t6.5 -1q5 0 6 3.5t1 6.5t-1.5 5.5t-3.5 3.5t-5 1.5t-5 0.5t-3 -1.5t-1.5 -3.5t-0.5 -4v-3zM74 49q-2 4 -6 8.5l-8 9t-7.5 9.5t-3.5 11h6l19 -21q2 -1 3 1
l2.5 5t3 5.5t3.5 2.5t3 -2t1 -3q0 -2 -1.5 -6.5t-3.5 -9t-4.5 -8t-5.5 -3.5l-0.5 0.5zM158 38q0 11 5 18.5t15 7.5q1 0 3 -0.5l2 -0.5q7 -2 11.5 -4t7.5 -4.5t4.5 -7t1.5 -12.5q0 -5 -1.5 -7.5t-5.5 -4.5h-2h-3h-3h-2h-9.5t-11 1.5t-9 4.5t-3.5 9zM167 45q0 -4 1.5 -7
t4.5 -4.5t6 -2t7 -0.5q2 0 4.5 0.5t4.5 2t3.5 3.5t1.5 5t-2.5 5.5l-4.5 4.5q-6 1 -10 1.5t-9 0.5q-4 0 -5.5 -2t-1.5 -7z" />
</svg>
