<?xml version="1.0" standalone="no"?>
<!DOCTYPE svg PUBLIC "-//W3C//DTD SVG 1.1//EN" "http://www.w3.org/Graphics/SVG/1.1/DTD/svg11.dtd" >
<svg xmlns="http://www.w3.org/2000/svg" xmlns:xlink="http://www.w3.org/1999/xlink" version="1.1" viewBox="-10 0 266 256">
   <path fill="currentColor"
d="M169 224v5.5t0.5 9t2 8t4.5 3.5q2 0 4.5 -2.5t2.5 -5.5q0 -6 -1.5 -12.5t-1.5 -13.5v-13q2 -7 5.5 -10t8 -6.5t8.5 -8.5t6 -15v-8v-12v-11v-8q0 -20 -0.5 -39.5t-3.5 -39.5q-2 -6 -6.5 -8.5t-10 -3.5t-9.5 -1.5t-4 -2.5q0 -3 0.5 -5t0.5 -5v-1q0 -2 -0.5 -4.5l-0.5 -2.5
h-10l-0.5 1.5l-0.5 1.5v1q0 4 0.5 6.5t0.5 6.5q0 5 -2.5 6.5t-6 3t-7.5 3t-6 4.5t-3 8t-1 11q0 5 0.5 10t0.5 8q0 2 -0.5 6t-0.5 10v12.5t-0.5 12t-0.5 10.5v6q0 6 1 15t3.5 17t8.5 13.5t16 3.5q4 -1 4 -4q0 -2 -0.5 -4t-2.5 -2h-13q-1 0 -2 -1.5t-1.5 -3.5t-1.5 -4.5
l-1 -2.5q0 -3 -0.5 -11t-1 -16.5t-1 -16.5t-0.5 -11v-5v-5q0 -3 0.5 -9.5t0.5 -12.5t0.5 -11.5t0.5 -6.5q0 -4 2 -9.5t5 -8.5q8 -1 12 -1h11q9 0 13.5 2t6 6t1.5 10t1 14q0 9 0.5 19.5t0.5 20.5q0 2 -0.5 4.5t-0.5 4.5v1v2.5t0.5 3.5t0.5 3.5v1.5v3v2q0 2 -0.5 5.5t-1 8
t-1 8.5t-0.5 5q-2 7 -7.5 11t-9.5 9q-7 7 -9 17t-2 20zM54 182q2 1 3 4t3 4q1 1 4.5 2.5t4.5 2.5h3h5h4h3h11t13.5 -1.5t11 -4.5t5.5 -10q0 -8 0.5 -14t0.5 -12v-12v-13v-20v-8t-0.5 -13t-0.5 -13v-8q-2 -6 -6 -7.5t-8 -2.5t-7 -1.5t-3 -4.5v-3v-2q0 -1 0.5 -3t0.5 -4.5
t0.5 -4l0.5 -1.5l1 -1q1 0 3.5 -0.5t5 -0.5t5.5 -0.5t4 -0.5q2 0 2.5 -1t0.5 -3q0 -3 -1.5 -3.5t-4.5 -0.5h-2q-2 0 -6.5 0.5t-10.5 1t-10.5 1t-5.5 0.5h-6h-9h-9h-5q-2 0 -5 1t-3 4t2 4t4 1q5 0 9 -1t8 -1h3t3 2v2.5t0.5 3.5l1 4t0.5 3v0v1q-1 1 -1.5 3.5t-0.5 3.5
q-11 -1 -16 3.5t-7 11t-2 15v15.5q-1 0 -1.5 3l-0.5 3q0 1 0.5 3.5t1.5 3.5q-1 17 -0.5 34.5t3.5 34.5zM68 179q1 -1 2.5 -3t3.5 -4l4 -4l2 -2q4 -3 5 -4t4 -1q2 0 6 2t7.5 4.5t6.5 6t3 6.5q0 2 -3.5 3.5t-7.5 2l-8 1l-4 0.5q-3 0 -6 -0.5t-6.5 -1t-5.5 -2t-3 -4.5zM89 59h1
q1 1 2.5 3t2.5 3v8t0.5 13t0.5 13v9q1 10 4.5 15t7.5 8t7.5 7t3.5 13q0 5 -0.5 8t-3.5 8l-0.5 0.5l-0.5 0.5q-3 0 -6 -2.5t-6 -5.5t-5.5 -6t-6.5 -4h-1q-4 0 -7 3t-6 6.5t-5.5 6.5t-6.5 3h-0.5h-0.5l-2 -2l-1 -1v-23q0 -2 3.5 -5.5l8 -8t8 -11t4.5 -13.5v-7v-11v-11v-7
q0 -3 0.5 -6.5t4.5 -3.5zM154 127l4 3q0 1 3 1h4h5q4 0 8.5 -0.5t7.5 -2t3 -3.5q0 -3 -3 -3.5t-4 -0.5q-4 0 -7.5 -0.5t-7.5 0t-7.5 2t-5.5 4.5zM60 126v-19q0 -3 -0.5 -10.5t0.5 -15t4 -13t9 -5.5q3 0 4 1t1 4v1q-1 3 -1 6.5t-0.5 7t-0.5 6v3.5q0 3 -1 9t-2.5 11.5t-4 10
t-6.5 4.5v0zM107 63q2 0 4.5 0.5t3.5 2.5q1 6 2 10.5t1.5 8.5t0.5 9v10v3v5q0 3 -0.5 5.5t-0.5 3.5q1 2 0 3.5t-3 1.5q-3 0 -5.5 -2.5t-4 -5.5t-2 -6.5t-0.5 -5.5v-41q0 -2 2 -2h2zM156 83v1l3 3h10h5h6t5.5 -1t3.5 -4q0 -3 -2 -3h-4q-7 0 -13.5 1.5t-13.5 1.5v1zM84 47v-5
t0.5 -5.5t2.5 -4t5 -1.5h1.5t1.5 1v3v3q0 4 -0.5 6.5l-1.5 7.5h-3q-3 0 -4.5 -1t-1.5 -4z" />
</svg>
