<?xml version="1.0" standalone="no"?>
<!DOCTYPE svg PUBLIC "-//W3C//DTD SVG 1.1//EN" "http://www.w3.org/Graphics/SVG/1.1/DTD/svg11.dtd" >
<svg xmlns="http://www.w3.org/2000/svg" xmlns:xlink="http://www.w3.org/1999/xlink" version="1.1" viewBox="-10 0 266 256">
   <path fill="currentColor"
d="M132 246v0q0 1 1.5 2.5l1.5 1.5h1q3 0 5 -2t2 -5q-1 -23 -1 -46.5t2 -46.5q1 -5 2.5 -11.5t4.5 -9.5q2 -1 4 -1.5t4.5 -1.5t5 -1.5t4.5 -0.5v51q0 2 -2 2h-3h-1h-2t-2 -0.5t-1 -1.5v-29l-1 -2l-4 4v3.5t-0.5 9t-0.5 12t-1 9.5v2q0 7 0.5 13.5t3 12t6.5 9.5t12 4
q2 0 6.5 -1t9 -3t7.5 -4.5t3 -6.5v-60q0 -1 -1.5 -2.5l-1.5 -1.5h-1q-3 0 -3 3v3l2 19q-2 6 -6 6.5t-10 0.5v-47q0 -3 3.5 -4t6.5 -1t6 1t5.5 3t4.5 4.5t2 5.5q2 12 3 25t2 26.5t1 27v26.5q-1 2 0.5 3t2.5 1q3 0 4.5 -1.5t2 -3.5t0.5 -4v-4v-6v-5.5t-0.5 -10.5t-1 -12.5
t-1 -12.5t-0.5 -10v-6q-1 -6 -0.5 -13t0 -14t-1.5 -14t-5 -12q-1 -1 -3 -1.5t-4 -1.5t-4.5 -1.5t-3.5 -0.5h-3.5h-5.5t-6 0.5t-4 0.5v-18l0.5 -0.5t1.5 -0.5q4 -2 7 -4t5 -4t2.5 -5.5t1.5 -8.5v-5v-7v-7v-5l3 -4h8t7 -1t4.5 -3t1.5 -7h-40l-2 -1q0 -1 0.5 -4.5t0.5 -6.5
q0 -4 -1 -7t-4 -3q-4 0 -5 2t-1.5 5t-0.5 6.5t-1 6.5t-4 5t-9 3q-1 0 -4.5 0.5t-7.5 0.5t-7.5 0.5t-5.5 0.5v0.5v0.5q0 1 0.5 3.5t1.5 2.5h18l2 2q0 2 -0.5 6.5t-0.5 9.5t1 9.5t3 7.5q3 3 6 5.5t5.5 5t3.5 5.5t1 8v7q-4 1 -9 2.5t-9.5 4t-7.5 6t-4 9.5q-2 13 -2.5 26.5
t-0.5 27t-1 27t-3 26.5v2zM45 221q3 4 8 6.5t10.5 3.5t11.5 1h11q8 0 15.5 -2.5t13 -7t8.5 -11.5t3 -16v-99q0 -2 -0.5 -6t-1.5 -8.5t-1.5 -8.5t-1.5 -6q-2 -3 -6 -4t-7.5 -1.5t-6.5 -2t-3 -5.5v-2v-1q0 -1 0.5 -3.5t0.5 -5t0.5 -5t0.5 -3.5q2 -3 7 -3.5t9 -0.5
q5 0 8.5 -1.5t3.5 -7.5q-11 0 -21.5 1l-21 2t-21 1.5t-21.5 -0.5q-4 1 -5.5 2t-1.5 5q0 3 2 3.5t5 0.5q5 0 10.5 -0.5t10.5 -0.5v27q0 1 -3.5 2t-7.5 2.5t-7.5 3.5t-4.5 5l-3 16v91q1 6 1.5 10.5l1 9l1 9t3.5 10.5zM55 213q0 -2 4 -7t8.5 -10.5t9 -9.5t6.5 -4q3 0 8.5 3
t10.5 7t8.5 9t3.5 9q0 3 -1.5 4.5t-3.5 2.5t-4.5 1.5t-4.5 2.5q-1 0 -4.5 0.5t-7 0.5t-7 0.5t-4.5 0.5l-2 -0.5l-4 -1t-4.5 -1.5t-4.5 -1q-2 -1 -4.5 -1.5t-2.5 -4.5zM164 208q-2 -4 -3 -7.5t-1 -8.5v-2.5t2 -1.5q1 -1 4.5 -1.5t7.5 -1t7.5 -1t5.5 -0.5h2h1.5t1.5 2v3.5v3.5
q0 10 -4.5 14.5t-14.5 4.5q-1 0 -4.5 -1.5t-4.5 -2.5zM46 173q0 -4 3.5 -8t8 -9t8.5 -9.5t5 -9.5q4 -14 4 -30v-31q2 -4 5 -5.5t8 -1.5h2t1 2l3 58q1 6 5 11t8.5 9t8 8t3.5 7v22q0 1 -1.5 1.5t-3 0.5h-1.5q-4 0 -7.5 -2.5t-6.5 -6t-6.5 -6t-7.5 -2.5h-4t-4 2l-21 22
q-1 0 -2 0.5l-1 0.5q-3 0 -4 -3t-1.5 -7l-1 -8t-0.5 -5zM46 146v-14q0 -12 1.5 -23.5t0.5 -23.5q1 -1 2.5 -3.5t3 -4.5t3.5 -3.5t4 -1.5t3 1.5t1.5 3.5t0.5 4v4q0 4 -1 8t-1 9q0 4 1 8.5t1 8.5q0 3 -1.5 8t-4 10t-5 9t-5.5 4q-4 0 -4 -4zM100 69h3t4.5 0.5t4.5 2t2 3.5
q3 12 3.5 22.5t0.5 23.5v4v4.5v4.5v3l-2 7h-0.5h-0.5q-3 0 -5.5 -3.5t-4.5 -8t-3.5 -9.5t-1.5 -6v-48zM156 58q0 -3 1 -7t5 -4h23v31l-3 6h-17q-3 0 -4.5 -4t-2.5 -8.5t-1.5 -8.5t-0.5 -5zM74 51q0 -2 0.5 -5.5t1 -6.5t2.5 -5t6 -2h1t2.5 0.5t2.5 0.5t1 1v26h-14l-2 -2
l-0.5 -2.5t-0.5 -4.5z" />
</svg>
