<?xml version="1.0" standalone="no"?>
<!DOCTYPE svg PUBLIC "-//W3C//DTD SVG 1.1//EN" "http://www.w3.org/Graphics/SVG/1.1/DTD/svg11.dtd" >
<svg xmlns="http://www.w3.org/2000/svg" xmlns:xlink="http://www.w3.org/1999/xlink" version="1.1" viewBox="-10 0 266 256">
   <path fill="currentColor"
d="M156 242v4.5t4 1.5t7.5 -6.5t6 -16.5t4.5 -22.5t3 -24t1 -21v-13.5l11 -12h6q0 19 -0.5 37.5t-0.5 36.5q6 0 8 -3t3 -8t0.5 -10t-0.5 -9q0 -2 0.5 -9t1 -15.5t0.5 -15.5v-9v-1v-1q-1 -4 -2 -7t-7 -3q-3 0 -5 1.5t-4 3.5t-4 3.5t-5 1.5q-2 0 -3.5 -0.5t-0.5 -4.5
q0 -2 -0.5 -7t-1 -11t-1 -11t-0.5 -7v-1q0 -6 3.5 -9t7.5 -4.5t7 -3t3 -3.5v-0.5v-0.5q-3 -3 -4.5 -3.5t-4.5 -0.5q-10 0 -18 1.5t-18 0.5q-3 2 -3.5 2.5t-0.5 2.5q0 1 0.5 2.5t1.5 1.5h18q1 0 1 2.5v3.5q0 2 -0.5 4.5t-2 4.5l-3 4t-2.5 3q-1 2 -5 6t-8.5 9t-8.5 9.5t-6 6.5
l-0.5 1.5l-0.5 1.5v1q0 3 3 3q2 0 4 -1t4 -3q1 -2 3 -5.5t5 -7.5t6.5 -6.5t6.5 -2.5q1 0 2 1t2 2.5t1 3v2.5q0 5 -5.5 10t-12.5 10t-13 10t-6 10v0q0 1 1 1.5t2 0.5h1h1q5 -3 9 -7.5l8 -9t8 -7.5t9 -3v3v4.5v4.5v3q0 3 -3 5.5t-3 3.5q-2 1 -4.5 4.5t-5.5 7t-5.5 6.5t-3.5 4
q-4 6 -9 12t-7 14v1q0 1 1 1.5t2 0.5q6 0 10 -5.5t7.5 -12.5t6.5 -14t8 -9l1.5 0.5t2.5 0.5q0 14 -1 26.5t-5 25.5q-2 7 -5 13.5t-3 14.5zM45 109v8v9v9v4v4t0.5 6t0.5 6v4q1 10 1 19q0 10 2 18t8 13t19 5q17 0 26.5 -3.5t13 -11t4 -19t1.5 -28.5l1 -2t1 -3v-34
q-2 -4 -1.5 -8.5t-0.5 -8.5v-6t-0.5 -8.5t-0.5 -8v-4.5q-1 -5 -2.5 -8t-4 -5t-6 -3.5t-7.5 -2.5v-21l18 -3q1 0 1.5 -1.5t0.5 -2.5l-1.5 -1.5t-2.5 -1.5h-63q-1 0 -2.5 0.5l-3 1t-3 1.5t-1.5 2l0.5 1.5t1.5 2.5l0.5 0.5l0.5 0.5h26l0.5 1.5t1 3.5t0.5 4v3v6v3t-2 3
q0 1 -2.5 1t-4.5 1t-4 1t-3 1q-4 1 -6.5 3t-3.5 5t-1.5 6.5t-1.5 7.5v6v9v9v6zM68 196q0 -2 2 -5.5t4.5 -6.5t5.5 -6l4 -4h2q2 0 6 2.5t7.5 5t6 6t2.5 5.5q0 4 -4 6t-9 3t-10.5 1.5t-6.5 0.5q-4 0 -7 -2t-3 -6zM56 154q6 -5 10 -10t6.5 -10.5t4 -11.5t2.5 -14v-6.5
t0.5 -11.5t1 -11.5t0.5 -6.5q0 -4 1 -7t5 -3q3 0 5 1v2.5v2.5q0 10 -1 19t-1 19v21q2 6 4.5 9.5t5.5 6.5t6.5 6t6.5 7v7v4q0 3 -0.5 5.5t-1.5 4t-3 1.5q-4 0 -6.5 -2l-5 -4t-5.5 -4t-6 -2h-2.5h-1.5l-18 19h-1q-2 0 -4 -2.5t-2 -4.5v-24zM73 65q0 14 -1 28.5t-3 28.5
q-1 1 -2 4t-2.5 6t-3 5t-3.5 2q-1 0 -1.5 -0.5t-0.5 -1.5v-61q0 -4 2 -6t4.5 -3t5.5 -1.5t5 -0.5zM99 129v-4t-0.5 -6t-0.5 -6v-4v-11q0 -6 0.5 -11l1 -10t0.5 -12l1.5 -1.5t1.5 -0.5q4 0 5.5 2.5t2 5.5t0.5 6t1 5q0 8 0.5 15.5t0.5 14t0.5 14t0.5 15.5q-7 0 -10 -3.5
t-5 -8.5zM133 69v7.5t1 7.5h3h2t2 -2v-44q0 -7 4 -10.5t10 -4.5t12 -1h10h18q2 1 4 4.5t2.5 8.5t1 9.5t0.5 7.5v1q0 1 -0.5 4t-0.5 6.5t-0.5 6.5t-0.5 4v1q0 3 2 4.5t4 1.5h2.5t1.5 -2v-4v-5.5v-5.5v-4v-10v-10.5t-0.5 -9.5t-1.5 -11q0 -1 -1.5 -2t-4 -1.5t-4.5 -1t-3 -0.5
h-16q-1 0 -3.5 -0.5t-6 -0.5t-6.5 -0.5l-3 -0.5h-1q-8 0 -14.5 4t-11.5 10q0 11 -0.5 21.5t-0.5 21.5zM86 29q2 0 3.5 1.5t2 3.5t0.5 5v4q0 3 -0.5 4.5t-1.5 2.5t-3 1h-5v-20q0 -1 1.5 -1.5t2.5 -0.5zM154 41q1 1 3.5 1t5.5 0.5t5.5 0.5h3.5h4t4.5 -0.5t4 -0.5t2.5 -1l5 -5
q-2 -3 -3 -3h-3h-3h-5t-8 0.5t-7.5 1t-5.5 0.5q-2 -1 -2.5 0.5t-0.5 3.5v1v1z" />
</svg>
