<?xml version="1.0" standalone="no"?>
<!DOCTYPE svg PUBLIC "-//W3C//DTD SVG 1.1//EN" "http://www.w3.org/Graphics/SVG/1.1/DTD/svg11.dtd" >
<svg xmlns="http://www.w3.org/2000/svg" xmlns:xlink="http://www.w3.org/1999/xlink" version="1.1" viewBox="-10 0 266 256">
   <path fill="currentColor"
d="M42 123q0 19 1.5 37.5t2.5 37.5q1 16 1.5 26t4 15.5t10.5 7.5t20 2q11 0 19.5 -2.5t14 -8t8.5 -15t3 -23.5l-0.5 -2l-1 -4t-0.5 -4v-3q0 -3 -0.5 -12t-0.5 -18q0 -10 0.5 -19t0.5 -12q-3 -7 -2.5 -14t1 -14.5t0 -14t-4.5 -12.5q-2 -4 -5.5 -5.5l-7 -3t-6 -4t-2.5 -7.5v-2
v-3t0.5 -4.5l1 -5t0.5 -3.5q2 -2 6.5 -2.5t9 -1.5t8 -2.5t3.5 -4.5q0 -2 -1 -2.5l-2 -1t-2 -0.5h-2h-6q-1 0 -7.5 1t-13.5 1.5t-13 1.5t-8 1q-3 0 -9 -1t-12.5 -0.5t-11 3.5t-4.5 11h34v24q0 3 -3 4.5t-6.5 3t-7 2.5t-4.5 3q-3 4 -4.5 10.5t-2 13.5t0 14t0.5 12zM164 130
q0 6 -3 8t-7 4t-7.5 4.5t-3.5 9.5v57q0 17 8.5 25.5t20.5 8.5q10 0 17 -1.5t11.5 -5.5t6.5 -11.5t2 -19.5q0 -8 -0.5 -14.5t-0.5 -13.5t-1 -14.5t-2 -16.5q-3 -6 -5.5 -9t-6 -5t-7.5 -2.5t-9 -1.5q-1 0 -1.5 -0.5t-0.5 -1.5v-1v-1q0 -2 2 -6t4.5 -8t4.5 -7t3 -3h26l1 -2
t2 -2v-1v-1q0 -3 -2 -5t-4 -2q-3 0 -4.5 1t-3.5 1t-4 -0.5t-2 -3.5q0 -2 1 -4t1 -5q0 -1 -0.5 -3t-2.5 -2t-4 3t-4 7l-4.5 9t-5 9t-5 7t-5.5 3h-3q-1 -4 -2.5 -9t-4 -10.5t-5 -10t-4.5 -6.5q-2 1 -2 3v3q0 3 1 5.5t1 5.5t-3 4t-6.5 1.5t-6 1.5t-2.5 4v1l1.5 2l1.5 2h3
t4 -0.5t3.5 -1t2.5 -0.5h1q3 0 6 2t5 5.5t3 7.5t1 7zM60 228q0 -2 3.5 -5.5t7.5 -7t8 -6t5 -2.5q3 0 7 2t7.5 5.5t6 7.5t2.5 8q0 3 -3 4.5t-6.5 2.5t-7.5 1h-4h-6t-8.5 -1t-8 -3t-3.5 -6zM150 197q0 -2 1 -4l2 -4q5 1 9.5 0.5l9 -1l9 -1t9.5 -0.5q3 0 5 2t2.5 5t0.5 6.5v6.5
q0 15 -6.5 20.5t-18.5 5.5q-6 0 -10.5 -3t-7.5 -8t-4 -11.5t-1 -13.5zM86 193q-1 0 -2.5 0.5l-1.5 0.5l-22 17l-0.5 0.5l-0.5 0.5q-2 0 -3 -0.5t-1 -2.5v-2.5t-0.5 -3t-0.5 -3.5v-2q0 -8 3 -14.5t7 -13.5l8 -14t4 -15q0 -1 0.5 -6.5t1 -12t0.5 -13v-9.5q0 -4 -0.5 -9t0 -9.5
t2.5 -7.5t6 -3h3t2 2v31t1 28t6 25t16 21l2.5 2.5t1.5 2.5v26q0 3 -2 5t-4 2h-0.5h-1.5q-2 -3 -5 -7t-6 -7.5t-6.5 -6t-6.5 -2.5zM152 176q0 -1 -0.5 -4.5t-0.5 -5.5q0 -8 2 -12t5.5 -6t8.5 -2h11h9q3 2 6.5 6.5t3.5 9.5q0 3 -0.5 8t-3.5 6q-5 1 -9 1.5t-7.5 0.5h-7h-7.5
q-2 0 -5 0.5t-5 -2.5zM51 123q0 -4 -0.5 -11.5t0 -15.5t3 -13.5t8.5 -5.5q1 0 4 0.5t3 4.5v59q0 3 -1 6.5t-3 7t-4 6.5t-4 4q-2 -1 -3 -4t-1.5 -6.5t-1 -6.5t-0.5 -5v-2v-6.5v-6.5v-5zM104 71q4 0 6.5 2.5t3.5 8.5q0 9 0.5 16.5t1 14t0.5 13v14.5v5v8t-1.5 7t-4.5 3
q-2 0 -4 -3t-3.5 -6.5t-2 -7.5t-0.5 -5v-68q0 -2 1.5 -2h2.5zM157 54q0 2 1.5 6t3.5 7.5t4 6.5t4 3h2q0 -1 1 -4t2.5 -6.5t3 -6.5t1.5 -5q1 0 2.5 -2l1.5 -2h31q4 0 5.5 -3t1.5 -8h-27q-2 0 -2 -2.5v-2.5q0 -4 1 -6.5t2 -5.5l2 -6t1 -6q-6 0 -10 3.5t-6.5 8t-3.5 10t-2 10
t-2.5 8t-4.5 3.5q-4 0 -6.5 -6t-4.5 -13t-4 -13t-6 -6h-1l-2.5 1.5t-2.5 2.5q0 4 1 7t3 6t3 6t1 7h-19q-1 0 -1.5 1t-1.5 2.5t-1.5 2.5t-0.5 2h30zM78 58v-10v-6t0.5 -5.5t2 -4t5.5 -1.5l2.5 0.5t2.5 1.5v22q0 4 -3 4.5t-5 0.5h-2t-3 -2z" />
</svg>
