<?xml version="1.0" standalone="no"?>
<!DOCTYPE svg PUBLIC "-//W3C//DTD SVG 1.1//EN" "http://www.w3.org/Graphics/SVG/1.1/DTD/svg11.dtd" >
<svg xmlns="http://www.w3.org/2000/svg" xmlns:xlink="http://www.w3.org/1999/xlink" version="1.1" viewBox="-10 0 266 256">
   <path fill="currentColor"
d="M67 249v2t1 2q1 0 2 0.5l1 0.5h3q3 0 3 -2l3 -77q0 -6 1.5 -9t5 -4t8 -1t9.5 -2q1 0 3 -1t3 -2h3q1 0 3 -0.5t3 -1t1 -2.5t-1 -2.5t-3 -0.5q-4 0 -7.5 1t-6.5 2t-6.5 2t-6.5 1q0 -7 4 -11.5t8.5 -8t8.5 -6.5t4 -5t-1 -2.5t-2 -0.5q-5 0 -9.5 3.5t-8.5 8t-7.5 9t-5.5 7.5
h-1.5h-0.5q-2 0 -3 -2.5t-1 -5.5q0 -5 4 -10t9 -10t10.5 -9.5t7.5 -8.5q0 -1 -1.5 -2t-2.5 -1l-2.5 1.5t-3.5 1.5l-24 25q-4 4 -5 10t-1 11q0 2 1.5 3t3.5 2t4 2.5t2 4.5l-0.5 1l-0.5 1q0 1 -0.5 3t-1.5 4t-1.5 4t-0.5 3q-2 7 -2.5 14t-0.5 15v8t-0.5 13t-0.5 13v7v2z
M182 250l0.5 1l0.5 1h1q2 0 3.5 -1.5t2 -3.5l1 -4t0.5 -4q0 -21 -4 -42.5t-10 -41.5v-2q0 -4 2.5 -9t2.5 -10q0 -7 -3.5 -13t-9.5 -10.5t-13 -7t-13 -2.5q0 5 4 7.5t9.5 5.5t10.5 7t6 10v2.5v3.5t-0.5 3.5t-0.5 2.5q-2 0 -4.5 -2t-5.5 -4.5t-5.5 -4.5t-4.5 -4q-2 -1 -4.5 -2
t-4.5 -2l-4 -2l-2 -1h-1v6l2 1.5t5 3.5t4 4q5 3 9 6t7 7l-1 1l-2 0.5l-2 0.5q-6 0 -11.5 -1.5t-10.5 -1.5h-2t-1 2v0q0 1 1 2l1.5 1.5t1.5 1t2 0.5h30l0.5 1t1 1.5t1 3l0.5 2.5q7 22 9 43.5t1 43.5zM105 224q1 3 3.5 5.5t6 3.5t6.5 1h6h7t8 -1t7 -3t4 -6v-3v-4v-4v-2
q0 -7 0.5 -15t-1 -14.5t-6 -11t-13.5 -4.5q-15 0 -22 7.5t-7 22.5q0 8 0.5 14t0.5 14zM111 219q0 -2 4 -3t9.5 -1.5t9.5 -0.5h6h3.5t2.5 1v1.5v2.5q0 3 -2 5t-4.5 2.5t-6 0.5h-5.5h-4.5t-5.5 -1t-5 -2.5t-2 -4.5zM108 200v-2.5v-1.5q2 -1 6 -2t8.5 -1.5t9 -0.5h6.5h2h3
t3.5 0.5t0.5 1.5l-1 11q0 1 -3.5 1.5t-8 1t-8.5 0.5h-6h-7q-4 -2 -4.5 -4t-0.5 -4zM112 183q0 -4 2.5 -6t5.5 -3t7 -1.5t6 -0.5q4 0 7 2t3 7q0 3 -4 4.5t-9 1.5h-9.5h-5.5q-2 0 -2.5 -1t-0.5 -3zM74 102q0 1 0.5 2t2.5 1q1 0 2 -0.5t2.5 -1t2.5 -1l1 -0.5l19 -19q2 -2 2 -5
q0 -1 -0.5 -1.5l-1.5 -1.5q-2 2 -7 6t-10 8.5t-9 8t-4 4.5zM118 71q0 8 0.5 16.5t1.5 17.5h0.5h0.5q2 0 3.5 -1.5t1.5 -3.5v-33q0 -2 5 -2.5t12 -1t16 -0.5t16 -0.5t12 -2t5 -3.5q0 -3 -2 -3.5t-3 -0.5q-13 0 -26 2.5t-27 2.5h-3h-2l-2 -2v-2.5t-0.5 -6t-0.5 -7.5v-6v-1
q0 -6 4 -8t9 -3t9 -3t4 -8h-10l-21 10l-3 6v35h-25q-3 2 -7 3t-8 1t-7.5 0.5t-5.5 0.5l-1 1t-2 1v1q0 3 2.5 3.5t3.5 0.5q6 0 11.5 -1l11 -2l11 -2t11.5 -1q3 0 5 3zM169 93l0.5 0.5l0.5 0.5q1 1 2 1.5t2.5 1t2.5 1.5t2 1h1q2 0 2.5 -1.5t0.5 -2.5q0 -4 -1.5 -5.5t-4 -2.5
t-5.5 -1.5t-5 -1.5t-5.5 -2.5t-6.5 -3.5t-6.5 -3t-6.5 -1v0q-1 0 -1.5 0.5l-0.5 0.5v1v1l2.5 2.5l1.5 1.5zM84 27q0 4 2 8t4.5 8t5.5 7.5t5 5.5h0.5h0.5q1 0 2.5 -0.5t1.5 -2.5q0 -3 -2 -7.5t-5.5 -8.5t-7 -7t-7.5 -3zM138 50h0.5h0.5q0 1 0.5 1.5l0.5 0.5h1q1 0 4.5 -2.5
t7.5 -5.5t7 -6t3 -4q0 -2 -1.5 -3t-3.5 -1t-5 2.5t-6 5.5t-5 6t-3 5z" />
</svg>
