<?xml version="1.0" standalone="no"?>
<!DOCTYPE svg PUBLIC "-//W3C//DTD SVG 1.1//EN" "http://www.w3.org/Graphics/SVG/1.1/DTD/svg11.dtd" >
<svg xmlns="http://www.w3.org/2000/svg" xmlns:xlink="http://www.w3.org/1999/xlink" version="1.1" viewBox="-10 0 266 256">
   <path fill="currentColor"
d="M183 248q0 1 2 1.5t3 0.5q4 0 5 -2.5t1 -5.5v-3v-2l-1.5 -2t-2.5 -3q-2 -6 -3 -12.5l-2 -13t-2.5 -13t-4.5 -11.5v-13q0 -7 0.5 -12.5t1.5 -12.5l0.5 -0.5t1.5 -0.5q3 0 5 3t4.5 6t4.5 6t5 3h3.5t2.5 -1v-2v-2q0 -5 -3 -7.5t-7 -5.5t-7.5 -6t-3.5 -9q0 -3 2 -7.5t4 -8.5
t4 -7t2 -5v-3.5t-2 -1.5q-4 0 -6 3.5t-3.5 7.5t-3 7.5t-4.5 3.5v0h-1l-0.5 -1l-0.5 -1q-3 -7 -5.5 -14.5t-2.5 -14.5q0 -3 2.5 -4t6.5 -1.5t8.5 0t8.5 0t6.5 -2t2.5 -5.5q0 -3 -3 -3h-2l-2.5 1l-2.5 1q-2 0 -5 0.5t-6.5 1l-7 1t-4.5 0.5q-2 0 -3 -1.5t-1.5 -4t-0.5 -4.5v-3
v-7q2 -3 6 -4t7.5 -2t6.5 -3t3 -6v-24q0 -2 -2.5 -4t-4.5 -2v0v0q-1 0 -1.5 1.5l-0.5 1.5l1 1.5l1 1.5v2v1q0 1 -0.5 3.5t-1 5.5t-0.5 6v4q-4 6 -11 6h-1.5t-1.5 -2v-23q0 -1 -1 -3t-3 -2q-3 0 -5 4v2.5t-0.5 4t-0.5 4.5v3v2q0 8 1.5 15.5t1.5 15.5v5t-2 5q-2 0 -7.5 0.5
t-11.5 1l-12 1t-8 0.5h-4t-2 3v2t2 1h10q7 0 13.5 -0.5t14.5 -0.5h8q2 4 3 7t1 5.5t0.5 5.5t1.5 6t2.5 6t3.5 6t3.5 6t1.5 5q0 6 -2 10.5t-3 9.5v3v4t-0.5 3.5t-0.5 2.5v0q0 10 0.5 21t2 22t4 22t5.5 20zM52 226v0q2 2 5 2h5h10.5t16 -0.5t14.5 -2.5t6 -7h-22l-2 -1l-0.5 -2
t-0.5 -4.5v-5v-3.5q-1 -13 -1.5 -25.5t-0.5 -25.5v-3v-4v-4v-3q0 -1 0.5 -2t1 -1.5t1 -1.5l0.5 -1h19v-5h-20v-17q0 -4 3 -5t7 -1.5t7.5 -1.5t3.5 -4q0 -1 -1 -1l-1 -1l-1 -1h-1q-2 0 -6 0.5t-9 1.5t-8.5 2.5t-3.5 3.5v24h-3t-5 0.5t-5 0.5h-3l-4 2t-2 3q0 3 3 3q4 0 7.5 -1
t7.5 -1h2.5h1.5q0 4 0.5 10t1 13.5t0.5 16.5t0.5 16.5t0.5 13.5t1 9v3q0 3 -2 4t-5 1.5t-6.5 0t-6 0t-4.5 1.5t-2 4zM114 219v1q0 1 1 2t2 1h6h7.5t13.5 -1t12.5 -2.5t5.5 -4.5q0 -2 -2 -2.5t-3 -0.5q-3 0 -6.5 1t-6.5 1h-3t-2 -2q0 -9 1.5 -13t4 -6t5 -1.5t4.5 0.5
t3.5 -0.5t1.5 -3.5q0 -2 -0.5 -3.5t-2.5 -1.5q-1 0 -3 0.5t-3 0.5q0 1 -2 1h-2q-4 0 -4.5 -1t-0.5 -5q0 -8 2 -12.5t5 -7.5l5.5 -5.5t2.5 -6.5t-2.5 -6t-5.5 -3.5t-5 -3.5t-2 -5q0 -2 2 -3l4 -2t4.5 -2t2.5 -4q2 -7 2.5 -10.5t0.5 -8.5v-4l-1 -0.5t-2 -0.5v-0.5v-0.5
q-2 0 -3 1.5t-1.5 3t-1 2.5t-1.5 1h-20l-1 -1l-2 -2t-2.5 -2t-3.5 -1v22q0 3 2 4.5t4.5 2.5t5.5 1.5t5 0.5v2q0 6 -4 9.5t-8 6t-7.5 5t-3.5 5.5q0 1 0.5 2t1.5 1q4 0 7 -2.5t6 -5.5t6 -5.5t7 -2.5q3 0 5 2t2 5v0.5v0.5l-2.5 2.5t-3 3.5l-3 4t-2.5 4t-1 6t-0.5 7.5t-2 6
t-5.5 3.5q-1 0 -3 0.5t-4.5 0.5t-4.5 0.5t-3 0.5v1v2.5t2 1.5h18l0.5 1l0.5 1v1v1v3t-0.5 4.5t-0.5 5v2.5q-2 2 -5 3t-6 1.5t-5 1t-2 1.5zM57 212q0 2 1 2h1q3 0 4.5 -6.5t2 -15t0.5 -16.5v-11v-3t-0.5 -4.5t-0.5 -4.5v-3t-2 -1h-2h-2h-1q0 2 -0.5 7t-0.5 10.5v10v6.5v2
t-0.5 4.5t-0.5 4.5v4v3q0 2 0.5 4t0.5 5v2zM96 208l0.5 0.5l0.5 0.5h1h1l1 -1l2 -2v-17v-11t-0.5 -9.5t-0.5 -9.5t-1 -11q1 -3 -2 -4t-4 -1q0 16 0.5 32.5t1.5 32.5zM127 114q0 -3 2 -4.5t4 -2t5 -0.5h4h2.5h2.5q0 1 0.5 2.5t0.5 2.5v1q0 4 -3.5 5.5t-6.5 1.5t-7 -1.5
t-4 -4.5zM47 77q0 1 0.5 2.5t2.5 1.5t6 -6t8.5 -14t9 -14t7.5 -6q2 0 4.5 2t4 5.5t2.5 6.5t1 6v2t-1 3q-5 2 -11 3t-12 1l-4 3q1 3 2.5 3h3.5q6 0 12.5 -1.5t12.5 -1.5h1q1 0 3.5 1.5l2.5 1.5h1v0q1 0 2 -0.5t2 -0.5q-1 -1 -2.5 -4.5t-2.5 -6.5t-2.5 -6.5t-1.5 -4.5
q-1 -2 -3 -6.5l-4 -9t-4.5 -7.5t-5.5 -3q-1 0 -4.5 3t-7 8t-8 11t-8 11.5t-5.5 10t-2 6.5z" />
</svg>
