<?xml version="1.0" standalone="no"?>
<!DOCTYPE svg PUBLIC "-//W3C//DTD SVG 1.1//EN" "http://www.w3.org/Graphics/SVG/1.1/DTD/svg11.dtd" >
<svg xmlns="http://www.w3.org/2000/svg" xmlns:xlink="http://www.w3.org/1999/xlink" version="1.1" viewBox="-10 0 266 256">
   <path fill="currentColor"
d="M197 213l10 37h0.5h1.5q3 0 3 -2v-5q0 -14 -3 -28.5t-5 -28.5q-2 -18 -2 -36v-36q0 -21 1 -41t1 -40v-3v-3v-3.5v-2.5q-3 -5 -5 -7t-7 -4q-2 0 -5.5 -0.5t-7.5 -0.5t-7.5 -0.5t-4.5 -0.5h-4q-5 0 -9 0.5t-6.5 2t-4 4.5t-2 8t-1 9.5t-1 8t-0.5 7.5v9q0 13 4 20.5
t10.5 11.5t16 5.5t20.5 1.5v6v9v8v6q0 1 0.5 4t1.5 4v38q1 3 2 8.5t2 11.5t1 12v10zM108 189q0 3 1 8t1.5 11.5t1.5 12t1 7.5q0 1 0.5 3.5t1.5 5.5t2.5 5.5t2.5 2.5q2 0 3 -1.5t1 -3.5q0 -10 -1.5 -19t-3 -18.5l-3 -19t-1.5 -19.5q0 -8 2 -16t2 -17q0 -4 -5 -8.5t-12 -8
t-13.5 -5.5t-10.5 -2v3q1 1 2.5 2t2.5 2.5t2.5 3t1.5 2.5q2 3 1.5 8t2.5 8q-1 27 -8 51t-19 46v1.5v0.5q0 1 1 3t3 0q5 -1 8 -6t5 -11t3.5 -12t2.5 -11q0 -1 1 -3.5t2 -6t1.5 -6.5t0.5 -4q1 -1 1.5 -4l1 -6t1 -5.5l0.5 -2.5q0 -2 0.5 -6.5t0.5 -10t0.5 -10t0.5 -6.5
q0 -1 1 -1.5t2 -0.5q4 0 5.5 4.5t1.5 7.5q0 6 -2 12.5t-2 12.5v7v7.5t1 7t3 5.5zM143 241q0 1 1 1.5t2 0.5t2 -0.5t2 -1.5q-1 -19 0 -39t3 -39h2q3 0 6 1.5l6 3l6 3t7 1.5q0 -5 -3.5 -8t-8 -6t-9 -5t-6.5 -6v-4v-7v-7v-4v-3t-0.5 -3.5t-1.5 -3t-3 -1.5h-1h-1q0 1 -0.5 4.5
t-0.5 4.5v42q0 1 -0.5 4t-1 6.5t-0.5 6.5v4v4v7.5v8.5v7v5v8.5v8.5v6zM49 144q0 16 -0.5 33t-3.5 33q-1 5 -2 9t-2 7t-1.5 6.5t-0.5 8.5q4 0 6.5 -3.5t4.5 -8.5t3 -10t1 -8q1 -4 1.5 -10.5t1.5 -13t1.5 -11t0.5 -5.5v-8.5v-13.5v-16v-15v-13.5v-8.5h2.5t3.5 -0.5l4 -1
l2 -0.5q13 -3 20.5 -6.5t11.5 -9t5.5 -14t1.5 -20.5v-9t-1 -12t-3.5 -10.5t-7.5 -4.5q-16 0 -26 2t-15.5 7.5t-7.5 16t-2 26.5v3q0 1 0.5 3.5t0.5 6t0.5 6.5t0.5 4v1q0 4 -1 8t-1 7q0 11 1 22.5t1 22.5zM61 50h40q0 8 -1.5 13.5t-4.5 9.5t-8 6.5t-12 5.5q-5 2 -7 3t-7 1v-39
zM149 50q10 0 21.5 0.5t21.5 1.5q2 2 1.5 5t-0.5 5q0 7 -1.5 13.5t-1.5 12.5q-1 0 -3.5 0.5t-3.5 0.5q-11 0 -17.5 -2.5t-10 -7.5t-5 -12.5t-1.5 -16.5zM61 37q0 -7 3.5 -11t8.5 -6t11 -2t12 -1q3 5 4 9t1 10v3v2l-3 2h-36q-1 0 -1 -2.5v-3.5zM148 26q0 -7 3.5 -8t9.5 -1
t12.5 0.5t12.5 1.5q3 0 4.5 2t2 4.5t0.5 5.5v5v5l-0.5 1l-0.5 1h-42l-0.5 -1.5l-1 -3t-0.5 -3.5v-3v-6z" />
</svg>
