<?xml version="1.0" standalone="no"?>
<!DOCTYPE svg PUBLIC "-//W3C//DTD SVG 1.1//EN" "http://www.w3.org/Graphics/SVG/1.1/DTD/svg11.dtd" >
<svg xmlns="http://www.w3.org/2000/svg" xmlns:xlink="http://www.w3.org/1999/xlink" version="1.1" viewBox="-10 0 266 256">
   <path fill="currentColor"
d="M50 245v4t3 2q2 0 5 -3t3 -5v-142q0 -6 3.5 -9t9 -4.5t11.5 -2t12 -2t10.5 -3.5t6.5 -7q0 -2 1 -4.5l2 -5t1.5 -4.5l0.5 -2v-39q0 -1 -2.5 -1.5t-3.5 -0.5q-3 0 -4.5 3t-4.5 5q-1 0 -4 0.5t-7 1t-7.5 1t-4.5 0.5l-1 0.5t-2.5 1t-3 0.5h-1.5q-7 1 -10.5 2.5t-5.5 5t-3 8.5
t-1 12v7t-0.5 12t-0.5 14.5v14.5t-0.5 12t-0.5 7v108q-1 4 -1 6.5v6.5zM136 218q0 2 -0.5 7t0 10t2 9t4.5 4q1 0 2 -0.5t1 -1.5v-6q0 -6 -0.5 -12t-0.5 -12q0 -3 2.5 -5t6.5 -4t8.5 -4t8.5 -5.5t6.5 -9.5t2.5 -15v-2v-2.5t-0.5 -5t-0.5 -5v-3.5v-2.5t0.5 -5.5t0.5 -5.5v-3.5
v-1v-3v-2v-2q1 -1 2.5 -2t3 -1.5l3 -1t1.5 -2.5v-2t-2 -1l-54 -2q-2 0 -3.5 1.5t-1.5 3.5v0.5v0.5l9 3h30l3 3v55q0 4 -2.5 6.5t-6.5 4t-8.5 3t-8 4t-6 6t-2.5 9.5zM195 113v130q0 2 2 2.5t3 0.5t2.5 -1.5t1.5 -3.5t0.5 -4t0.5 -3q0 -11 -1 -22t-1 -22q0 -26 1.5 -51
t1.5 -51v-1v-10t-0.5 -15t-0.5 -15v-10q-1 -3 -4 -6t-6 -4h-6t-9 -0.5t-9.5 -0.5h-6.5h-11q0 -1 -0.5 -3t-1 -3.5t-2 -3t-2.5 -1.5q-2 0 -3.5 0.5t-1.5 2.5v44l1.5 4.5t0.5 2.5t-0.5 3t0.5 5q0 4 4 6.5t9.5 3.5t11.5 2t11.5 1.5t9.5 1t4 1.5zM72 235q0 2 1 2.5t3 0.5t3.5 -1
t2 -2.5t1 -3.5t1.5 -4q2 -2 5 -2h6h6t5 -2t2.5 -4.5t0.5 -4.5v-4.5t1.5 -4.5t3 -2.5t3 -1.5t2 -2.5t0.5 -4.5q-3 0 -5 1t-5 3h-23q-2 0 -2.5 -3t-0.5 -4q0 -4 4.5 -5t10.5 -2t10.5 -1.5t4.5 -3.5v-14q0 -1 1.5 -1.5t3.5 -1t3.5 -0.5t1.5 -2t-1.5 -3.5t-3.5 -1.5q-3 0 -6 1
t-6 1h-2h-3.5t-5.5 -0.5t-5.5 -1t-3.5 -0.5q-2 0 -2 -3v-3q0 -3 4 -4t9.5 -1t10.5 -1.5t7 -5.5q1 0 1 -1.5v-3t0.5 -2.5l0.5 -1l1 -1l2 -2l2 -2l1 -1v-2q0 -2 -1 -2.5t-3 -0.5h-3h-4h-5t-8 -0.5t-8 -0.5t-5 -1l-1 -0.5l-1 -0.5v-1v-1q2 -1 4 -3.5t3 -2.5l34 -3l0.5 -1.5
l0.5 -1.5v-1v-1l-1 -3h-5q-4 0 -6.5 0.5t-5.5 0.5t-6.5 0.5t-7.5 1.5q-7 1 -11 4.5t-5 8.5t-1 10v12q0 2 -0.5 8t-0.5 14v17.5t-0.5 17.5t-0.5 14v8v6l-2 8t-1 8zM82 211q0 -3 1.5 -4.5t3.5 -2t4.5 -1t3.5 -1.5q4 0 4.5 3t0.5 5q0 4 -3 6t-7 2q-3 0 -5.5 -2t-2.5 -5z
M133 181l4 3h18q2 0 3.5 -2.5t2 -6t0.5 -6.5v-4v-4t0.5 -6.5t0.5 -6.5v-4v0v-1v-4t-3 -1q-2 0 -4 2q-1 1 -1.5 4.5t-0.5 4.5l-1 2.5t-2 2.5h-11q0 -1 -0.5 -3t-1 -4.5t-2 -4t-2.5 -1.5q-2 0 -3.5 0.5t-1.5 2.5zM97 163q4 0 5 2t1 6q0 5 -4 6.5t-9 1.5h-0.5h-0.5l-2.5 -1
t-2.5 -2v-11l1.5 -0.5t3.5 -0.5t4 -0.5t4 -0.5zM137 169q0 -4 3 -5.5t7 -1.5t4.5 1t0.5 5q0 2 -0.5 3.5t-1 3.5t-2 3t-3.5 1q-4 0 -6 -3t-2 -7zM84 131v-1q1 -1 3 -2.5l2 -1.5h15q1 0 1.5 0.5l0.5 0.5q0 1 1 2l1 1q0 3 -1.5 5t-4 2.5t-5 0.5h-4.5h-6q-1 -1 -2 -3t-1 -4z
M151 58h6h10.5t10 0.5t6.5 0.5h3t4 0.5t3 0.5h1l2 17q0 2 -1 3t-2 1.5t-2.5 0.5h-2.5q-7 0 -14 -1l-14 -2q-5 -1 -7 -3t-2.5 -4.5t-0.5 -6.5v-7zM62 74q0 -5 1.5 -8t5.5 -4q7 -2 15 -3.5t17 -1.5h1.5h1.5q2 1 2 3v3q0 7 -3.5 10.5t-9 5t-11.5 2t-11 0.5q-1 0 -3 -0.5
l-2 -0.5q-2 0 -3 -2.5t-1 -3.5zM66 48q0 -5 4 -8.5t10.5 -5.5t13 -2.5t9.5 -0.5q4 0 5 2.5t1 6.5v2.5t-0.5 3t-1.5 3t-3 0.5q-2 0 -7 0.5t-10.5 0.5t-10.5 0.5t-7 0.5h-1h-1l-0.5 -0.5t-0.5 -1.5v-1zM153 49q-1 -1 -1.5 -3t-0.5 -4v-1v-2t0.5 -1.5t1.5 -0.5h37q3 0 4 1t1 3
v4v3q0 2 -1 2.5t-2.5 0.5h-3.5h-2q-9 0 -16 -0.5t-17 -1.5z" />
</svg>
