<?xml version="1.0" standalone="no"?>
<!DOCTYPE svg PUBLIC "-//W3C//DTD SVG 1.1//EN" "http://www.w3.org/Graphics/SVG/1.1/DTD/svg11.dtd" >
<svg xmlns="http://www.w3.org/2000/svg" xmlns:xlink="http://www.w3.org/1999/xlink" version="1.1" viewBox="-10 0 266 256">
   <path fill="currentColor"
d="M55 249q1 2 2 2h2q3 0 4 -1.5t1.5 -3t0.5 -4.5v-4v-5v-8v-7v-5t0.5 -6.5t0.5 -12t0.5 -12t0.5 -7.5v-75q1 -2 6.5 -4.5t13 -5t15.5 -6t12 -8.5q0 -1 1 -2l1 -1v-58q0 -1 -2 -1.5l-2 -0.5q-3 0 -3.5 1.5l-1 3t-1 3.5t-2.5 2q-1 1 -4.5 1.5t-7.5 2t-7.5 2.5t-4.5 1
q-3 1 -6.5 2t-7 3t-6 4.5t-3.5 5.5q0 46 -1 91.5t-1 91.5v21zM193 249q0 2 1.5 2h2.5q4 0 5 -2.5t1 -4.5q0 -51 -1 -101t-4 -100q-1 -10 -5 -15t-10 -6.5t-14 -1t-17 1.5q-1 -1 -1.5 -3t-1 -3.5t-1.5 -2.5t-3 -1q-3 0 -4 3t-1 5q0 15 1.5 29t0.5 28q3 4 8 6t10 3
q2 0 5.5 0.5t7.5 1l8 1t5 0.5t1.5 0.5l0.5 0.5q0 1 0.5 2.5t0.5 3.5t0.5 3.5t0.5 2.5v5v8v8v5v5q0 3 0.5 9t0.5 14t0.5 16.5t1 16t0.5 14v9.5v7v11v11.5v7.5zM76 239v3t2 2h26h27q1 0 6.5 -0.5t12 -1t12.5 -1t10 -0.5q2 -1 6 -1.5t4 -3.5q0 -1 -1 -3t-3 -2h-26q-1 0 -2 -2.5
l-1 -2.5l-0.5 -2t-0.5 -4v-4v-3v-3v-4q0 -3 0.5 -4.5l0.5 -1.5q0 -4 0.5 -5.5t1.5 -2l3 -1.5l4 -2q7 -6 8.5 -12.5t1.5 -14.5q0 -2 -2 -3.5t-4 -1.5t-3 3.5t-2 8t-3 9t-7 6.5q-3 1 -5.5 1t-5 0.5t-5 0t-6.5 -0.5h-3h-5h-5h-3l-7 -4v-20q0 -1 -1.5 -1.5t-2.5 -0.5t-1.5 0.5
t-0.5 1.5q-1 1 -1.5 4t-0.5 4t0.5 3.5t1.5 5.5t1.5 5.5t0.5 3.5q1 2 3.5 3t5.5 2.5t5 3t2 2.5v35q0 1 -3 1.5t-7 1t-8 0.5h-6q-3 0 -5.5 -1t-4.5 -1q-3 0 -3.5 1.5t-0.5 3.5zM134 193q2 0 3.5 4t2 9t0.5 10v5q0 5 -2 8.5t-7 3.5q-1 0 -4 -0.5t-3 -3.5v-32q0 -1 1.5 -1.5
l1.5 -0.5q3 -1 4 -1.5t3 -0.5zM94 200h-1.5t-1.5 2v22q0 2 1.5 2h1.5q2 0 3 -1t1.5 -2.5t0.5 -3v-3.5v-2.5t-0.5 -4.5t-0.5 -4.5v-2.5q-1 -2 -2 -2h-2zM162 221q0 2 1 2h2h2t1 -2v-23q0 -1 -1.5 -1.5t-2.5 -0.5q-3 0 -3.5 1.5t-0.5 4.5q0 5 0.5 9t1.5 10zM109 166v1
q0 1 1 1.5l1 0.5h3h4.5h4.5h2h4h5h4h2q3 0 6.5 -1.5t3.5 -5.5q0 -2 -1 -5q-8 2 -18.5 2.5t-18.5 1.5q-1 1 -2 2.5t-1 2.5zM76 156q0 2 1.5 2.5t3.5 0.5q4 0 7.5 -3t7.5 -5q3 -2 7.5 -4t9.5 -3.5l10 -3t9 -1.5q2 0 5.5 1l7 2t6.5 2.5t6 1.5q2 1 4 2.5l4 3t4.5 3t5.5 1.5h4
t3 -2q0 -4 -3.5 -7t-9 -5t-11.5 -3.5t-11.5 -4t-9.5 -5.5t-5 -8q0 -2 1 -5t4 -3l0.5 0.5t1.5 0.5t5 1.5t8.5 3t8.5 2.5t6 2l1.5 1.5t1 0.5h0.5h4q2 0 3 -1t1 -4t-3.5 -5t-8.5 -3.5t-11 -3t-11 -2.5t-8.5 -2t-3.5 -2v-12q0 -1 -2.5 -2t-4.5 -1t-3.5 2.5t-1.5 6t0.5 6.5l0.5 3
q-1 1 -4 2l-7.5 2.5t-10 3.5t-9.5 4t-7 4t-3 5q0 1 2 2.5t4 1.5v0q1 0 2.5 -1t3.5 -1.5t3.5 -1.5t2 -1t2.5 -1.5t3 -2.5l2.5 -1t4.5 -2.5t4 -2.5t4 -1v-0.5v-0.5q2 0 3 1.5t1 3v3.5v3q0 6 -3.5 9.5t-8.5 6t-11 3.5t-11 3t-8.5 4t-3.5 6zM68 71q0 -2 0.5 -3t2.5 -2l30 -10h2
q3 0 4 3.5t1 5.5q0 4 -4.5 7.5t-10.5 6.5t-11.5 5t-8.5 2h-2h-1q0 -1 -0.5 -2.5t-0.5 -3.5t-0.5 -3.5t-0.5 -2.5v-1v-2zM150 63v-3v-2l2 -2h6h8.5t9.5 0.5t8.5 2.5t3.5 6q0 3 -0.5 6.5t-2.5 4.5h-3.5t-5 0.5t-5 0.5h-3.5q-7 0 -12.5 -3.5t-5.5 -10.5zM100 31q4 0 5 3.5
t1 6.5v3v2q-1 1 -2 1.5l-1 0.5q-3 1 -7 2t-9 2.5t-9.5 2t-8.5 0.5q0 -3 1.5 -6.5t4.5 -5.5l23 -11q0 -1 1 -1h1zM154 45q-3 -1 -3.5 -2.5t-0.5 -3.5q0 -4 2.5 -6t5.5 -2h8t9.5 0.5t8 3t3.5 6.5v3.5t-2 3.5h-7q-7 0 -11.5 -0.5t-12.5 -2.5z" />
</svg>
