<?xml version="1.0" standalone="no"?>
<!DOCTYPE svg PUBLIC "-//W3C//DTD SVG 1.1//EN" "http://www.w3.org/Graphics/SVG/1.1/DTD/svg11.dtd" >
<svg xmlns="http://www.w3.org/2000/svg" xmlns:xlink="http://www.w3.org/1999/xlink" version="1.1" viewBox="-10 0 266 256">
   <path fill="currentColor"
d="M196 217q0 1 0.5 4t1.5 6t1.5 6t0.5 4q1 2 1.5 4.5t2 4.5t3 3.5t2.5 1.5h1q0 -1 0.5 -1.5l0.5 -0.5v-1v-1l-0.5 -1.5l-1 -3l-1 -3t-0.5 -2.5q0 -2 -1 -7.5l-2 -11t-2.5 -10t-2.5 -6.5q0 -6 -0.5 -10.5t-0.5 -8v-7.5v-10v-28.5t1 -29.5q1 -9 3 -19t2 -20q0 -5 -2 -9.5
t-7 -6.5h-6t-8.5 -0.5t-9 -0.5h-5.5q-3 -1 -6.5 -1.5l-3.5 -0.5v-9h3.5t5 -0.5t5 -0.5h3.5t3.5 -0.5t5 -1.5t4.5 -2t2 -3q-4 0 -13.5 -0.5t-19.5 -0.5t-19.5 -0.5t-13.5 -0.5l-4 -0.5l-8 -1t-7.5 -1t-4.5 -0.5h-2q-2 0 -4 -0.5t-3 -0.5h-2q0 3 2 4.5t4 1.5l45 7v10
q-8 0 -16.5 -0.5t-16 0.5t-13.5 5t-10 13q-1 30 -5.5 60.5t-14.5 58.5q-4 11 -8.5 21.5t-8.5 21.5v2v1q4 0 7 -4t4 -7l19 -42l0.5 -3l0.5 -3q1 -1 2 -5t2 -8.5t2.5 -8.5t1.5 -5q1 -5 1.5 -12l1 -14t1.5 -13t3 -10q24 2 36.5 -8t15.5 -34h6v5.5t0.5 7.5t0.5 7.5v5.5
q1 7 6.5 10.5t10.5 5.5q4 2 6.5 3t5 1.5t5.5 1t8 0.5q-1 8 -1.5 15t-1 13t-1 12.5t-0.5 13.5q0 2 0.5 7.5t1 12t1.5 13.5t1.5 12.5t1 9.5t1.5 4zM99 223v5.5v3.5l1 4l4 -4v-17h17q8 0 16 2t15.5 5.5t15.5 3.5q0 -4 -3.5 -5.5t-8 -3t-8 -3.5t-3.5 -8q0 -4 0.5 -5.5t4.5 -1.5
q3 0 6 1.5t6 1.5h2t1 -1q-1 -4 -5 -5t-7.5 -2.5t-6.5 -3.5t-3 -6q0 -2 1.5 -4t3.5 -3q4 4 8.5 5t9.5 1q0 -4 -2.5 -6t-6.5 -3t-7.5 -2.5t-4.5 -4.5q-2 -5 -1.5 -8.5t0.5 -7.5q5 0 10 3t11 5h1h1l0.5 -1l0.5 -1q-1 -2 -3.5 -3.5t-5.5 -2.5t-5 -2.5t-2 -4.5t2.5 -4.5t5.5 -3.5
t5.5 -4t2.5 -6v-4q-1 -1 -2.5 -1.5t-3.5 -1t-4 -1.5l-2 -1q-2 -1 -3.5 -3.5t-3.5 -4.5t-3.5 -4t-2.5 -2l-3.5 2t-8 5.5t-9.5 7.5t-9.5 7.5t-7 6.5t-2.5 4q2 0 3.5 -1t3 -1.5t3 -1.5t3.5 -1q3 0 6 2.5t3 6.5q0 2 -3.5 5t-7.5 6.5t-8 8t-4 10.5q-1 8 -1.5 14.5l-1 13
t-0.5 12.5v13zM105 196v0v-2.5t0.5 -3t0.5 -3v-2.5q7 2 13 4t14 3q2 1 2.5 5t0.5 7q0 2 -1 3.5t-3 1.5q-1 0 -5.5 -1t-9.5 -3t-8.5 -4.5t-3.5 -4.5zM106 174q0 -4 2.5 -7.5t6.5 -3.5q3 0 7 1t7.5 3t5.5 5t2 7v4t-3 2q-2 0 -6.5 -0.5t-9 -2t-8.5 -4t-4 -4.5zM122 155
q0 -4 3.5 -6t7.5 -2q3 0 3 2v5t-1 5.5t-5 2.5q-2 0 -5 -2t-3 -5zM126 127q0 -3 1.5 -5t3.5 -3.5t4.5 -2.5t4.5 -1t4.5 1t5.5 3t4.5 4t1.5 5v2q-4 3 -9 6t-10 2q-3 0 -7 -3.5t-4 -7.5zM136 128v1q1 2 1.5 4.5t2.5 2.5q3 0 3.5 -2.5t0.5 -4.5q0 -3 -1 -3.5t-3 -0.5t-3 0.5
t-1 2.5zM162 83v-1q0 -1 0.5 -2t0.5 -2q5 -1 8 -1h7q2 0 5 -0.5t5.5 0t4 1.5t1.5 4v6.5t-1 6.5h-3.5h-2.5q-2 0 -6.5 -0.5t-8.5 -2.5t-7 -4.5t-3 -4.5zM94 85v-1.5t0.5 -3t1 -2.5t1.5 -1h33q-1 0 -3 2.5t-4 4.5t-4.5 4t-4.5 2h-17q-3 0 -3 -1.5v-3.5zM136 56q0 5 -2.5 9.5
t-6.5 4.5h-31q0 -2 1 -4.5t3 -4.5t4 -3.5t4 -1.5h28zM156 56q5 0 11.5 -0.5t12 0.5t9 4t3.5 10h-31q-1 0 -2.5 -1.5l-1.5 -1.5v-2.5t-0.5 -3t-0.5 -3v-2.5zM145 40h1h1q2 0 3 1t1.5 2.5t0.5 2.5v4h-7v-10zM108 18q2 0 7.5 1t11 1.5t11 1.5t7.5 1h1h2q2 0 6 -0.5t9 -1t9.5 -1
t6.5 -0.5q0 -1 0.5 -2t0.5 -2q1 0 1 -1v0h-1q0 -1 -0.5 -1.5l-0.5 -0.5q-17 0 -33.5 -1t-33.5 -1q-1 0 -3.5 0.5t-2.5 2.5q0 3 2 4z" />
</svg>
