<?xml version="1.0" standalone="no"?>
<!DOCTYPE svg PUBLIC "-//W3C//DTD SVG 1.1//EN" "http://www.w3.org/Graphics/SVG/1.1/DTD/svg11.dtd" >
<svg xmlns="http://www.w3.org/2000/svg" xmlns:xlink="http://www.w3.org/1999/xlink" version="1.1" viewBox="-10 0 266 256">
   <path fill="currentColor"
d="M101 226q1 0 6 3t10.5 7t10.5 7.5t7 4.5q5 1 12 2t13 1h3q1 0 3 -0.5t3.5 -1t1.5 -2.5v-1q-1 0 -2 -1.5l-1 -1.5q-10 0 -18.5 -2.5t-17.5 -5.5q-1 0 -1.5 -2t-0.5 -3q1 -2 3 -2.5t3 -1.5t2.5 -1.5t3 -1.5t2.5 -2l2 -2h1q3 0 6.5 2.5t7.5 5t8 4.5t7 1q2 0 2.5 -1.5
t0.5 -3.5t-4 -5t-9 -5t-10.5 -3.5t-7.5 -1.5h-1h-1l-1 0.5t-2 1.5t-2 1.5l-1 0.5q-1 1 -3.5 2t-4.5 2.5t-4.5 2.5t-3.5 1h-1h-1q-3 0 -6 -1.5t-6 -3.5l-6 -4t-5 -3h-1h-1q-4 0 -6 4t-4 9t-3 10.5t-2 7.5q0 2 2 2h3q4 0 5.5 -3t2 -6.5t2 -6.5t4.5 -3zM194 246q1 2 2 2h3
q3 0 4.5 -2t2 -4.5t0 -5t-0.5 -4.5q0 -16 -1 -32.5t-3 -31.5v-139q0 -1 -3 -3.5t-5 -2.5t-4.5 -0.5t-6 -0.5t-6 -0.5t-3.5 -0.5h-3h-4h-4h-2q-4 0 -8 -2.5t-8 -2.5q-1 0 -2 0.5t-2 1.5v3v4.5v4.5v3q0 6 -0.5 14.5t1 16.5t5.5 14t12 7q2 0 6.5 0.5t9.5 0.5t9.5 0.5t6.5 0.5
q2 1 3 4v12v18v21v21v18v12v7.5t0.5 13.5t0.5 13.5v7.5v11zM54 138v103q0 1 1 1.5t2 0.5h1q4 0 5.5 -4t1.5 -7v-48q0 -1 -1 -3.5t-1 -3.5v-1v-2q0 -1 0.5 -4.5t0.5 -7.5t0.5 -8t0.5 -5v-1v-2l-1 -3l-1 -3v-42q0 -1 1 -2.5t2 -2.5q5 -2 10.5 -3t11 -3t10.5 -4t9 -6
q2 -1 3.5 -6t2.5 -11t1.5 -13t1 -12.5t1 -9.5t1.5 -4q-1 -2 -2.5 -2.5t-3.5 -0.5q-3 0 -5.5 1t-4.5 4q-1 0 -4.5 0.5t-7.5 1t-7.5 1t-5.5 0.5q-6 1 -13.5 3.5t-11.5 7.5q-2 7 -1.5 16t0.5 16v21v4t0.5 7t0.5 7v4v13.5t2 12.5zM98 193q0 7 3 11t10 4h2q2 0 7 -0.5t10.5 -1
t10 -0.5t6.5 -1q5 -1 9 -3.5t4 -7.5q0 -4 -2 -8t-6 -7h-5h-6h-7t-10 0.5t-9 1t-5 0.5q-5 0 -8.5 3.5t-3.5 8.5zM107 194q0 -5 4.5 -7t11 -2.5t12 0t7.5 0.5q4 0 5.5 2.5t1.5 5.5q0 4 -3 5.5t-7 1.5t-8 -0.5t-6 -0.5h-15q-2 -1 -2.5 -2t-0.5 -3zM77 169q0 2 1 3.5t4 0.5
q9 -1 17 -1.5l16 -1t16 -1.5t16 -1h6t8.5 -0.5t8.5 -1t6 -0.5q3 -2 3 -4q0 -3 -1.5 -3h-3.5q-8 0 -15.5 1.5t-15.5 1.5q-2 0 -4.5 -0.5t-2.5 -2.5q0 -4 5 -5.5t11 -2.5t11 -3.5t5 -7.5q0 -2 -1 -3.5t-3 -1.5q-3 0 -5 2l-4 4t-5 3.5t-7 1.5q-5 0 -6.5 -3t-1.5 -7v-1l2.5 -2.5
l2.5 -2.5l25 -4q1 0 2 -2t1.5 -4t0.5 -3v-4q0 -5 -1.5 -9.5t-7.5 -5.5h-21h-12h-10h-10.5t-12.5 1q-4 2 -6.5 6t-2.5 9q0 7 4.5 10.5t10.5 5t12.5 2t10.5 0.5q2 1 2.5 3t0.5 4q0 4 -1.5 6.5t-5.5 2.5h-1q-1 0 -3.5 -0.5t-4.5 -0.5t-4.5 -0.5t-3.5 -0.5q-1 -1 -2 -2.5
t-1.5 -2.5t-2 -2t-3.5 -1q-3 0 -4 1t-1 3t1.5 4t3.5 4t4.5 3t3.5 1h24v2.5v3t-1 3t-3 1.5h-38q-6 0 -6 5zM96 115q0 -4 1 -6t5 -2t7 4t3 8q0 2 -1.5 3.5t-4.5 1.5q-7 0 -8.5 -2t-1.5 -7zM118 110q0 -2 1 -3.5t2.5 -2t3 -0.5h3.5q3 0 5 1.5t4 3.5t3 4.5t1 5.5t-2.5 4t-5.5 1
q-6 0 -10 -4t-5 -10zM146 109q0 -3 2 -3.5t4 -0.5q4 0 6 1.5t2 5.5q0 3 -1 5.5t-4 2.5q-4 0 -6.5 -4t-2.5 -7zM61 70q0 -3 2.5 -4.5t4.5 -2.5q1 0 4 -0.5t6.5 -1.5t7 -1.5t4.5 -0.5l1.5 -0.5l3 -1l3 -1l1.5 -0.5v-1h1q1 0 2 1.5t1.5 3.5t0.5 3v2v1v0v0q-1 1 -2 3.5t-1 3.5
q-8 2 -16.5 4.5t-16.5 2.5q-5 0 -6 -3t-1 -7zM151 56q1 0 5 0.5t8 0.5h8h5q3 0 6 0.5t4.5 1t2.5 2.5t1 5v6t-3 5q-1 0 -5 0.5t-5 0.5q-2 0 -6 -0.5t-9 -1t-8.5 -1.5t-3.5 -2v-17zM63 49q0 -5 3.5 -8t8.5 -5t10.5 -2.5t9.5 -0.5q1 0 3.5 0.5t3.5 0.5q3 4 3 10v1l-1 1l-2 2
q-7 1 -16 3t-18 2q-2 0 -3.5 -0.5t-1.5 -3.5zM149 48v-4v-3.5t0.5 -4.5t1.5 -3.5t3 -1.5h33q1 0 1.5 1.5t1 3.5t1 3.5t0.5 2.5v0q0 7 -6 7h-3h-6.5t-10 -0.5t-10 -0.5h-6.5z" />
</svg>
