<?xml version="1.0" standalone="no"?>
<!DOCTYPE svg PUBLIC "-//W3C//DTD SVG 1.1//EN" "http://www.w3.org/Graphics/SVG/1.1/DTD/svg11.dtd" >
<svg xmlns="http://www.w3.org/2000/svg" xmlns:xlink="http://www.w3.org/1999/xlink" version="1.1" viewBox="-10 0 266 256">
   <path fill="currentColor"
d="M43 240q0 4 1.5 6t4.5 2q2 0 3.5 -1t2 -3t0.5 -5v-4q0 -8 -1 -16t-1 -16q0 -1 0.5 -4t0.5 -4q1 -3 6.5 -4t12 -2.5l13 -3t9.5 -6.5q0 -1 0.5 -3.5t0.5 -5t0.5 -5t0.5 -3.5q1 -4 3 -6t5 -2.5t5 -2.5t2 -7h-1h-3h-3h-1q-1 0 -3 1l-2 1q-2 0 -7 1t-12 2t-13.5 2.5t-9.5 1.5
h-1q-2 0 -3 -1t-2 -3t-1 -4v-3q0 -3 3.5 -5t9.5 -3.5t12.5 -2.5t12.5 -2.5t9.5 -3t3.5 -3.5v-18l1.5 -1.5t3.5 -2.5l1.5 -0.5l3 -1l3 -1t2.5 -0.5v-2v-1q0 -3 -1.5 -4t-3.5 -1h-2q-1 0 -4 1t-6.5 2t-6.5 2t-4 1q-7 1 -13 1.5t-14 0.5h-9q-2 -1 -2 -2.5v-2.5q0 -4 6 -6
t14.5 -3.5t17 -3.5t12.5 -8q1 -8 2.5 -13t3.5 -7t4 -3t4 -1t3 -0.5t1 -3.5v-1q0 -1 -1.5 -2.5t-2.5 -1.5v0q-7 0 -13.5 1.5t-12.5 3.5t-12.5 3t-13.5 1q-3 0 -4 -0.5t-1 -3.5t2 -6t5 -4.5t6.5 -3t5.5 -2.5q2 0 5.5 -1t7.5 -2.5t8 -2t5 -1.5v-0.5v-1.5q0 -3 -1.5 -4t-3.5 -3
h-1h-1l-1.5 0.5l-3 1t-2.5 1t-2 0.5q0 1 -2 1.5t-3 0.5q-6 2 -11 4t-9 4.5t-7.5 6t-6.5 9.5q0 1 -0.5 4t-0.5 6.5t-0.5 7t-0.5 4.5t-1 3l-1 2v35q0 24 1 47t1 47v5q0 1 -0.5 6.5t-0.5 12t-0.5 12t-0.5 7.5v1zM126 171v4q1 3 1.5 9t1.5 12.5t1.5 12t1.5 6.5q0 2 1 7.5t2.5 11
t3.5 10t4 4.5q4 0 4 -3v-6q0 -4 -1 -7l-2 -6q-3 -12 -6 -25t-3 -25q0 -5 1.5 -10t4.5 -9t7.5 -7t9.5 -3q2 0 4 0.5t3 3.5t3 9.5t4.5 14t4.5 14t3 8.5l1.5 2t2.5 5t2.5 5.5t2.5 3.5q2 3 3.5 7t4 8t5.5 6.5t6 2.5t4.5 -2t1.5 -5v-2v-2q-6 -7 -11 -14t-9 -14.5t-7.5 -15
t-7.5 -16.5q-1 -4 -2.5 -9t-1.5 -9q0 -3 1 -4t2.5 -2t3.5 -2.5t3.5 -4.5t2 -7.5t-0.5 -12.5l14 -15l0.5 -1.5t0.5 -3.5t0.5 -4t0.5 -4v-2.5v-6.5v-7v-5q0 -11 -0.5 -20.5t-3.5 -16.5t-10 -11t-20 -4h-5.5t-5.5 0.5t-5.5 1t-7.5 0.5q-4 4 -7 8.5t-4.5 9t-1.5 10v11.5v19t2 19
t7.5 15.5t16.5 6.5l1.5 -0.5t3.5 -0.5t3.5 -0.5l1.5 -0.5h3q3 0 3.5 1.5t0.5 3.5q0 10 -3.5 14.5t-9 6.5t-11.5 3t-11.5 4t-9.5 8.5t-4 16.5zM53 170v-3q0 -3 2 -3q3 -1 6.5 -2t7.5 -1.5l8 -1t7 -0.5q1 0 2 1t2 3t1.5 3.5l0.5 1.5v0.5v0.5q0 4 -4.5 7t-10.5 4t-11.5 1.5
t-8.5 0.5q-1 -3 -1.5 -5.5t-0.5 -6.5zM51 119v-5q0 -3 3 -5q4 -1 7.5 -2l7 -2t6.5 -1h7h3.5h2.5q1 0 1.5 1t0.5 2.5v2.5v1q0 6 -3.5 8.5t-9 4t-11 2t-9.5 0.5t-5 -1.5t-1 -5.5zM144 94v-5t3 -3q2 -1 7 -1.5t10.5 -1t10.5 -1t7 -0.5h2h3q3 0 4.5 1t1.5 4q0 6 -2.5 9t-6.5 6
q-2 0 -5.5 1t-7.5 1.5l-8 1t-5 0.5h-1q-6 0 -9.5 -3.5t-3.5 -8.5zM182 53h5t4 0.5t2.5 2.5t0.5 5v1v2.5t-0.5 3t-0.5 3v2.5q-13 1 -24.5 3t-23.5 2h-2.5t-1.5 -1v-15q0 -2 6 -3.5t13.5 -3t14 -2t7.5 -0.5zM53 73l0.5 -1l0.5 -1v-2.5t0.5 -3t0.5 -3v-2.5q6 -5 15 -6t17 -1
q4 0 4.5 1.5t0.5 6.5q0 3 -0.5 5.5t-5.5 4.5q-6 2 -13 4t-14 2q-3 0 -4.5 -0.5t-1.5 -3.5zM140 41q0 -5 3 -8.5t7.5 -5.5t9.5 -3t9 -1h10q4 3 8 7t4 9v2.5t-2 2.5q-6 0 -10.5 0.5t-9 0.5t-9 0.5t-9.5 0.5h-3t-3.5 -0.5t-3 -1.5t-1.5 -3z" />
</svg>
