<?xml version="1.0" standalone="no"?>
<!DOCTYPE svg PUBLIC "-//W3C//DTD SVG 1.1//EN" "http://www.w3.org/Graphics/SVG/1.1/DTD/svg11.dtd" >
<svg xmlns="http://www.w3.org/2000/svg" xmlns:xlink="http://www.w3.org/1999/xlink" version="1.1" viewBox="-10 0 266 256">
   <path fill="currentColor"
d="M43 243q0 3 1 4.5t4 1.5q2 0 3.5 -1t2 -3t1 -4.5t1.5 -5.5q1 -4 6 -5t10.5 -1.5t10.5 -2t7 -7.5q3 -5 2 -10t0 -11q0 -2 1.5 -3t3 -1.5t3 -2t1.5 -3.5q0 -4 -2 -4h-5q-6 0 -12 1t-12 1h-6q-2 0 -2 -3v-4q0 -7 3.5 -10t8.5 -4l10 -2t8 -6q2 -4 2.5 -7t0.5 -6v-7t2 -6l1 -1
t2 -2.5t1.5 -2.5t0.5 -2v-1v-1l-0.5 -1l-0.5 -1h-30q-2 0 -3 -1t-1.5 -3t-0.5 -4v-3q0 -4 2 -6t5.5 -2.5t6.5 -0.5t5 -1q6 -2 8.5 -5t4 -6.5t2 -8t2.5 -10.5q1 0 3 -2.5t3 -2.5v-1v-1q0 -1 -0.5 -2.5t-1.5 -1.5h-35l-1.5 -1.5t-1.5 -2.5l0.5 -2.5t0.5 -3.5l2.5 -5l1.5 -3
l24 -12q3 -1 4.5 -3.5t1.5 -4.5q0 -6 -5 -6q-4 0 -10.5 4t-13.5 9t-12 11t-5 11v1q0 2 0.5 9.5t1 16t0.5 16v9.5v4q0 34 -3.5 68.5t-11.5 66.5q0 1 -0.5 2.5zM109 226q0 2 1 3t2.5 1.5t3.5 0.5h2l1 1v-0.5t1 -0.5t5 -0.5t9 -1.5t9.5 -1.5t5.5 -0.5h6h10h11h6h5t8 -0.5
t7.5 -0.5t5.5 -1q1 0 1 -1v-3t-1.5 -3.5t-3.5 -1.5h-36q-3 0 -4.5 -3t-2 -7t-0.5 -8v-5v-4q0 -3 2 -5h6q5 0 9.5 -0.5t8.5 -2t5 -5.5l-0.5 -1.5t-1.5 -1.5h-5.5h-6.5q-4 0 -7.5 -0.5t-6.5 -1.5q0 -1 -0.5 -1.5t-0.5 -1.5v-19l1.5 -1.5t1.5 -2.5l1 -1t2.5 -2t2.5 -2l1 -1
q1 -1 2.5 -3t3.5 -4l4 -4t2 -3h2q3 0 5 3.5t3.5 7.5t3.5 7.5t6 3.5q6 0 6 -7q0 -2 -3 -7.5t-7.5 -11.5t-9 -10.5t-6.5 -4.5q-1 0 -3 4t-4 8.5t-5 8.5t-7 4q-2 0 -3 -6t-1.5 -14t-0.5 -16v-11v-4l1.5 -0.5t3 -0.5t2.5 -0.5l1 -0.5q3 0 5 -1t3.5 -2.5l3.5 -3.5t4 -5h4
q1 2 3 4.5t4 4.5t4.5 3.5t4.5 1.5t4 -0.5t2 -3.5l-0.5 -1.5t-1.5 -2.5l-1.5 -2t-3 -3.5l-3.5 -3.5l-2 -2l-2 -4t-2 -3.5t-2.5 -3t-3.5 -1.5q-3 0 -5.5 3t-5 7t-5 7t-6.5 3q-1 0 -2.5 -0.5t-1.5 -2.5v-29q0 -6 4 -8.5t9 -3.5t9 -2t4 -5t-1 -5.5t-4 -1.5t-7 1.5l-8 3t-7.5 4
t-5.5 3.5q-2 2 -3 6t-1 9q0 4 0.5 7.5t0.5 5.5q-1 2 -1 5t-0.5 5.5t-0.5 4.5v2l-2 2q-2 2 -3.5 -1t-4 -7.5t-4.5 -8.5t-4 -4t-5.5 4.5t-7.5 10t-6.5 10.5l-2.5 5v1q0 1 1.5 2.5l1.5 1.5q1 0 2 -0.5t2 -1.5q1 0 3 -2.5l4 -5l4 -5t3 -3.5h1l3.5 2.5t6.5 6t6 6.5t4 5v3t0.5 5
t0.5 5.5v4.5v2v2v6.5t-0.5 10t-0.5 10v6.5l-2.5 -2.5l-3.5 -3.5t-3 -3.5t-2 -2.5t-3 -4.5t-4.5 -7.5t-4.5 -6.5t-4 -2.5q-1 0 -2.5 2.5t-4 7t-5 9.5t-4.5 9.5t-3 8t-1 4.5t0.5 2.5t1.5 1.5h1l2 -2l2 -2l2 -2t1 -2q1 -1 2 -3l2 -4l2 -4t1 -3l5 -2q5 8 10 11t8.5 5.5t5.5 7.5
t2 15v3t-3 2h-4t-6.5 0.5t-6.5 0.5h-4q0 1 -1.5 2.5t-2.5 1.5v1v1q1 1 1.5 2l0.5 1h25v29l-1 1.5t-1 2.5q-1 0 -1.5 1l-0.5 1h-35l-2 3t-3 4v1zM61 217v-17q0 -1 2 -1.5t5 -1.5t5.5 -1h3.5h3q2 0 3 2v3v2v3.5t-0.5 5t-1.5 4t-3 1.5h-17zM66 146q0 -8 3 -11.5t11 -3.5h5
q1 0 1.5 1l0.5 1v16q0 2 -2 3t-4.5 1.5t-4.5 1t-3 0.5h-3h-2q-2 -2 -2 -4v-5zM68 72l1 -2q1 0 2.5 -0.5t4.5 -1t5 -1t4 -1.5q4 0 5.5 2.5t1.5 5.5q0 8 -5.5 12t-11.5 4h-2q-1 0 -3 -1l-2 -1v-16z" />
</svg>
