<?xml version="1.0" standalone="no"?>
<!DOCTYPE svg PUBLIC "-//W3C//DTD SVG 1.1//EN" "http://www.w3.org/Graphics/SVG/1.1/DTD/svg11.dtd" >
<svg xmlns="http://www.w3.org/2000/svg" xmlns:xlink="http://www.w3.org/1999/xlink" version="1.1" viewBox="-10 0 266 256">
   <path fill="currentColor"
d="M112 247q0 3 1.5 3.5t3.5 0.5q3 0 4.5 -2t2 -4.5t1 -5.5t1.5 -5h14q7 0 14 1t13.5 2t13.5 2t14 1h4t2 -3q0 -1 -0.5 -1.5t-1 -1.5t-1.5 -2l-1 -1h-4t-5.5 -0.5t-5.5 -1t-4 -0.5h-3t-4 -1t-3.5 -2t-1.5 -3q0 -1 1.5 -2.5t3.5 -1.5h19q0 -1 -0.5 -3.5t-1.5 -2.5l-20 -3
q-2 0 -2.5 -1.5t-0.5 -3.5v-2t1 -2h22q1 -2 3 -3l4 -2t3.5 -2t1.5 -3q0 -3 -2.5 -5t-6.5 -3t-8.5 -2t-8 -2t-6 -2t-2.5 -3v-0.5v-0.5l1 -0.5t2 -0.5t3.5 -0.5t5.5 -0.5t6 -0.5t4 -0.5q1 -1 1 -2v-3t-3 -4t-7 -4t-7.5 -3t-5.5 -2v-0.5v-0.5v-2t2 -1h24q2 0 3.5 -1.5t1.5 -3.5
q0 -1 -0.5 -2t-1.5 -1h-30l-1 -2l-1 -2q2 -3 5.5 -3h6.5q4 0 7 -1t4 -4q-1 -2 -2.5 -2.5t-4.5 -0.5q-9 0 -18 1.5t-18 1.5h-3t-2 -2v-1q1 0 1.5 -0.5t0.5 -1.5q1 0 3.5 -2l2.5 -2h5.5h8.5h8h6q6 -1 10 -5.5t7 -9.5q0 -2 -1 -2.5t-2 -0.5q-2 0 -3.5 1t-3 2.5l-3 3t-3.5 2.5
h-1.5t-4 0.5t-4.5 0.5h-4h-1.5h-2.5q0 -3 2 -5t4 -3.5t3.5 -3.5t1.5 -5q-4 0 -7.5 2.5t-6.5 5.5t-6 5.5t-7 2.5h-1l-3 -1.5l-3 -1.5l-2 -2v-12l2 -2h2.5t6 -0.5l7 -1t5.5 -0.5q1 0 3.5 -0.5t4.5 -0.5q7 0 14 1t14 1h9l1 -1l2 -2v0v-1t-2.5 -3t-3.5 -2h-29q-3 0 -3.5 -1
t-0.5 -3q0 -3 5 -3.5l10 -1l10 -1t5 -4.5q0 -2 -2.5 -3t-4.5 -1h-1h-1.5t-3 0.5t-3 0.5h-1.5q-3 1 -9 1.5t-13.5 1t-13.5 1.5t-9 1v1q0 1 2 2.5t3 1.5h18q2 0 2 1.5v1.5v2.5t-2 1.5h-32q-1 0 -1 -1v-2v-2q2 -1 4.5 -4.5l5 -7t5.5 -6.5t6 -3q2 0 5.5 0.5t6.5 0.5
q4 0 7.5 -0.5t5.5 -0.5t6.5 -1t9 -3t8 -5t3.5 -6t-1 -3h-3q-3 0 -6 1.5t-6 4t-6.5 4t-7.5 1.5h-3.5h-3.5q-1 -1 -1 -1.5v-1.5q0 -4 3.5 -6t8 -4t8 -5t3.5 -9q-8 0 -13 3.5t-8.5 7.5t-7.5 7.5t-11 3.5h-4.5t-1.5 -3v-2v-1q0 -1 1.5 -2.5t3 -3.5t3 -3.5t1.5 -2.5t1 -2l1 -1
q0 -2 -1 -2.5t-3 -0.5q-3 0 -6 1.5t-6 4t-4.5 6t-1.5 5.5q0 3 1.5 5l3 4t2.5 3.5t1 2.5q0 3 -1.5 5t-3.5 4l-4 4l-3 3t-2.5 3.5t-3 4.5t-2.5 4.5t-2 3.5q-1 3 -3.5 8.5t-2.5 8.5q0 2 1 3.5t3 1.5t3.5 -2.5t2 -5.5t1.5 -5.5t4 -2.5h1q1 0 4.5 1t4.5 1q-3 4 -3.5 7t-0.5 7
l0.5 2t0.5 3q2 2 5 3.5t3 4.5q0 4 -5 9t-11 10.5t-10.5 11t-4.5 10.5q0 1 -0.5 2t0 2l1 2t1.5 1q2 0 5 -5t7.5 -11t9 -11t8.5 -5h3q1 0 3 0.5t4.5 0.5t5 0.5l2.5 0.5q4 1 4 4l-0.5 0.5t-0.5 1.5h-5.5t-9 0.5t-8 1t-3.5 1.5v1l1.5 1.5l0.5 0.5q5 2 11 1.5t12 -0.5v2
q-2 1 -7.5 3.5t-11 6t-9.5 6.5t-4 5t2 3t6 1q3 0 6.5 -0.5t5.5 1.5q-6 4 -12 10.5t-8 13.5q-2 4 -3.5 10l-3 12t-2.5 12.5t-1 11.5zM54 241q0 2 1.5 3.5t3.5 1.5q3 0 6 -3t3 -6v-20q0 -1 2.5 -2l2.5 -1l1.5 -0.5t3.5 -1t3.5 -0.5t1.5 -1q5 -2 7.5 -4.5t3.5 -6t1 -7.5t1 -9
q0 -2 1.5 -3t3.5 -2t3.5 -2.5t1.5 -4.5h-36q-1 0 -1.5 -1.5t-0.5 -3v-2.5v-2q0 -4 2 -6.5t5.5 -3.5t7.5 -2t7 -3q1 -1 2.5 -3l1.5 -2v-16q0 -2 1.5 -3.5t3 -2.5t2.5 -2.5t1 -3.5v-1v-1q-4 -1 -6.5 -1.5t-6.5 -0.5q-5 0 -9 1t-8 1h-1l-3 -2v-16q0 -1 4 -1.5t9 -2t9.5 -3.5
t5.5 -7l1 -18q1 -2 2.5 -2.5l3 -1t2.5 -1.5t1 -3v-2.5t-1 -1.5h-31q-3 0 -3 -1.5v-2.5q0 -8 2 -13t4.5 -7.5t6 -4t6 -2.5t4.5 -2.5t2 -4.5t-2.5 -3h-4.5q-6 0 -11 2t-8.5 6.5t-5.5 9.5t-2 11q0 3 -0.5 8.5t-1 11.5t-1 10.5t-0.5 5.5v8v13v17v17v13v8q-1 23 -1.5 44t-3.5 44
v2zM128 225q-3 0 -3 -1v-2q0 -3 1 -5.5t5 -2.5l23 2q2 0 2 2v3q0 1 -0.5 2t-0.5 2q-1 1 -2 1h-3h-2h-4t-6 -0.5t-6 -0.5h-4zM132 207q-1 -1 -1 -2v-2q0 -3 1.5 -3.5t4.5 -0.5h1.5h1.5q1 0 3 0.5t4.5 0.5t5 0.5l2.5 0.5q2 0 2 3t-2 3.5t-4 0.5h-9.5t-9.5 -1zM80 182
q1 0 3 0.5t2 1.5v3v3q0 6 -3 10.5t-10 4.5h-1l-0.5 -0.5l-0.5 -0.5v-17q0 -2 1 -3t3 -1.5t3 -0.5h3zM166 193v-2v-2v-5t3 -2q1 0 3.5 1l5 2t4 2.5t1.5 3.5q0 1 -1.5 2t-3.5 1.5t-4 0.5h-2q-2 0 -3.5 -0.5t-2.5 -1.5zM141 188q0 -2 1.5 -3.5t3.5 -2.5l4 -2t3 -1q3 0 4 2t1 5
v1q0 1 -0.5 2.5t-0.5 2.5l-0.5 0.5t-1.5 0.5h-10q-3 0 -3.5 -2t-0.5 -3zM140 168q0 -2 2 -4t4.5 -3.5t5 -2.5t4.5 -1q4 0 7.5 2t5.5 5q0 3 -2.5 2.5l-5 -1t-4.5 0.5t-2 4h-13q-1 0 -1.5 -0.5l-0.5 -0.5v-1zM68 134v-6t2 -5l0.5 -0.5l0.5 -0.5h14v18q0 2 -1 3t-3 1.5t-3 0.5
h-3h-3h-2q-2 -2 -2 -5.5v-5.5zM70 80v0v-3.5t0.5 -5.5t0.5 -5v-3q2 -3 4.5 -3h5.5h4t3 3v2.5v2.5q0 7 -3.5 11.5t-10.5 4.5q-2 0 -3 -0.5t-1 -3.5z" />
</svg>
