<?xml version="1.0" standalone="no"?>
<!DOCTYPE svg PUBLIC "-//W3C//DTD SVG 1.1//EN" "http://www.w3.org/Graphics/SVG/1.1/DTD/svg11.dtd" >
<svg xmlns="http://www.w3.org/2000/svg" xmlns:xlink="http://www.w3.org/1999/xlink" version="1.1" viewBox="-10 0 266 256">
   <path fill="currentColor"
d="M156 246q0 2 1 2.5t3 0.5q3 0 4.5 -2t2.5 -4v-4.5v-4.5q0 -5 -1 -10.5t-1 -11.5q0 -2 2 -2h3q3 0 5.5 3.5t4 8t2.5 8.5t1 6q0 1 1.5 1.5t2.5 0.5t3 -1t2 -3t-1.5 -6.5t-3.5 -9t-4.5 -8.5t-3.5 -6t-3 -3t-4.5 -2t-4.5 -2t-2 -3v-12q5 -1 9 -3.5t9 -4.5q1 1 3 4t4.5 6
t5.5 5t5 2q4 0 4.5 -1t0.5 -4v-2v-1l-17 -18q0 -7 -0.5 -12t-2.5 -8t-7 -4t-14 0q-2 -1 -1.5 -3t0.5 -3q0 -4 1.5 -5.5t4 -2l5 -1t5 -2t4.5 -4t2 -7.5v-3t-0.5 -3.5t-1.5 -3t-4 -1.5q-2 0 -2.5 3t-1.5 6.5t-2 6t-5 2.5h-1l-0.5 -0.5t-0.5 -1.5q-1 -2 -1.5 -4.5t-1 -5.5
t-0.5 -6v-4q-2 -1 -6 -2t-6 -1h-1h-1.5t-3 0.5t-2.5 1.5t-1 2h1q0 2 1.5 2.5t3.5 1t3 0.5h2q2 2 2 5v5v3.5v3.5q0 2 -2 2h-3q-4 0 -6 -2t-3 -4.5t-2 -4.5t-4 -2v0q-1 0 -1.5 2t-0.5 3q0 5 2 8t5 4.5t7 2t8 0.5q2 1 2 3v3t-0.5 2t-0.5 2q-11 2 -24 2.5t-26 0.5h-4q-1 0 -3 -1
v-2.5v-1.5q0 -4 3 -5.5t7.5 -3t8 -4.5t3.5 -11q0 -2 -1 -4.5t-3 -2.5v0h-1q-1 0 -3 0.5l-2 0.5v13q0 2 -2.5 2.5t-4.5 0.5h-2.5t-2.5 -1v-18q0 -2 -1.5 -3.5t-4 -2t-5 -0.5h-3.5h-4.5t-1.5 3t1.5 3.5t4 0.5t4.5 1t2 3v14l-1.5 0.5t-3.5 1t-3.5 0.5h-2.5q-2 -1 -3.5 -3.5
t-2.5 -5.5t-2 -5t-3 -2t-2.5 2.5t-0.5 4.5q0 6 2 9.5t5.5 5t8 2t9.5 0.5q2 2 1.5 5.5t-0.5 5.5h-23q-2 0 -3.5 3.5t-2.5 4.5h27q0 1 0.5 4l0.5 3q0 1 -0.5 1.5l-0.5 0.5q-8 0 -19 1t-20 2l-0.5 1l-0.5 1q0 3 2 3.5t5 0.5q8 0 16.5 -0.5t17.5 -0.5v11q-2 0 -7 -0.5t-9.5 -0.5
t-8 2t-3.5 7h23q4 0 4.5 1t0.5 3q0 3 -1.5 4.5t-4 3.5t-4.5 3.5t-4 3.5q-5 7 -6.5 16.5t-1.5 18.5q6 0 8 -4t2.5 -9.5t1 -11.5t4.5 -9l2 1t3 1v34q0 1 0.5 2t0.5 2h1q4 0 5.5 -4t1.5 -7v-1l-0.5 -2.5t-0.5 -5t-0.5 -4.5t-0.5 -3t0.5 -3t0.5 -3.5t0.5 -3.5t0.5 -3h1.5h1.5
q4 0 5.5 4t2.5 7v4.5t0.5 5.5t0.5 5.5v3.5l2 2l1 1h1q3 0 4.5 -2.5t1.5 -4.5q0 -5 -1.5 -11t-4 -11.5t-6.5 -10t-9 -6.5v-7q3 -1 10 -1.5t14.5 -1t14.5 -1.5t10 -1h1h1q4 0 5 2.5t1 5.5t-1.5 5t-3.5 3.5t-5 3t-4 4.5q-2 3 -3.5 7.5l-3 9t-2 9t-0.5 7.5q2 0 5 -0.5t4 -3.5
v-3.5t0.5 -5.5t1 -5.5t0.5 -3.5q1 -1 1.5 -3t1.5 -4.5t2 -4t3 -1.5q1 0 2 1.5t1 3v3.5v2q0 8 -0.5 15.5t-0.5 15.5zM100 178v-2v-2q0 -5 5.5 -7.5t13 -3t15 0t11.5 0.5h4.5h3.5q1 0 2.5 0.5l1.5 0.5v10l-6 2l-5 0.5t-12.5 1l-15 1t-12.5 0.5h-2h-2t-2 -2zM168 165
q2 0 4.5 1.5t2.5 3.5q0 1 -1.5 2t-4 1.5t-4.5 0.5h-2q0 -4 1 -6.5t4 -2.5zM100 150q12 -1 23.5 -2t23.5 -1h7l3 1v8q-14 1 -28.5 2.5t-28.5 1.5v-10zM165 152q0 -3 2 -3.5t5 -0.5q2 0 4.5 1t2.5 4t-2.5 4t-5.5 1q-6 0 -6 -6zM59 93q0 3 0.5 4t3.5 1t5 -2t2 -4v-35
q0 -3 2.5 -4.5t5.5 -2.5t6.5 -2t4.5 -2h30v46q0 3 0.5 4t1.5 1q3 0 4.5 -2.5t2.5 -4.5v-28v-4.5t0.5 -5t1 -4.5l0.5 -2l1 -1q0 -1 2.5 -1t6 -0.5t7.5 -0.5h6q1 0 4.5 0.5l7 1l7 1t4.5 0.5q1 1 2.5 3t2.5 3q0 2 -0.5 6.5t-0.5 8.5q0 5 0.5 9t0.5 6q0 3 0.5 6.5t4.5 3.5
q2 0 3 -1.5t1.5 -3.5t1 -4.5t0.5 -3.5v-2l-0.5 -1t-0.5 -2.5t-0.5 -2.5l-0.5 -1q0 -2 -0.5 -5t-1 -7t-1 -7.5t-0.5 -4.5q-1 -2 -2.5 -4t-3.5 -4q-2 0 -5 -0.5t-6.5 -0.5h-6.5h-4l-1.5 -0.5t-2.5 -0.5q-5 0 -10.5 1t-10.5 1q-1 0 -3.5 -1t-2.5 -2v-11l0.5 -1t1.5 -1
q7 -1 15.5 -1.5t16.5 -0.5h17t16 -1q1 0 1.5 -1t0.5 -2q0 -2 -1 -3t-4 -2h-9q-15 0 -29.5 2t-28.5 3q-16 1 -31.5 1t-30.5 1q-3 0 -5.5 1t-2.5 3t1 3.5t3 1.5q13 0 25.5 -1.5t24.5 -1.5h6q1 0 2.5 0.5t1.5 1.5v11l-2 1h-13t-15.5 1t-14.5 3.5t-11 8.5q-2 2 -2.5 7t-0.5 10.5
v10.5q0 6 -1 9v5zM80 80v1l1 1h6h9.5t11.5 -1v-4h-27l-0.5 1l-0.5 1v1zM139 76v6q1 0 5 -0.5t8.5 -0.5h8.5h6q3 -1 5.5 -2t2.5 -5q-9 0 -18 0.5t-18 1.5zM80 62v2t1 1h24l4 -3l-3 -4h-25q-1 0 -1 1.5v2.5zM162 55h-6.5t-7 0.5t-6.5 1.5t-3 5h29q1 0 2 -0.5t2 -1.5v-1
q0 -1 -1.5 -2t-3 -1.5t-3.5 -0.5h-2z" />
</svg>
