<?xml version="1.0" standalone="no"?>
<!DOCTYPE svg PUBLIC "-//W3C//DTD SVG 1.1//EN" "http://www.w3.org/Graphics/SVG/1.1/DTD/svg11.dtd" >
<svg xmlns="http://www.w3.org/2000/svg" xmlns:xlink="http://www.w3.org/1999/xlink" version="1.1" viewBox="-10 0 266 256">
   <path fill="currentColor"
d="M193 245q1 2 2 3t3 1q3 0 5 -3t2 -5q0 -1 -0.5 -2t-0.5 -2.5t-0.5 -3t-0.5 -2.5t-1 -3.5t-1 -3.5q-1 -16 -1.5 -33t0.5 -33q-5 -3 -7 -4t-5 -1h-3q-1 0 -4.5 0.5t-7 0.5t-6.5 0.5t-4 0.5t-1.5 0.5t-0.5 1.5v0q0 3 2 4.5t4 1.5v16q0 15 -2 30t-2 30q0 1 1.5 3t2.5 2
q2 -1 3 -2.5l2 -3t1.5 -3t0.5 -2.5v-8t0.5 -10.5t1 -10.5t0.5 -7v-9t1 -11.5t3 -9.5t5 -4q2 0 3.5 1.5t1.5 3.5v2v5v5v2q0 1 0.5 3t0.5 4.5v4.5v3v4v6v6v3q0 2 0.5 6t1 9t0.5 9v5zM92 243q0 4 4 4q1 0 3 -0.5t2 -2.5v-78q0 -4 -2 -6.5t-4.5 -4t-6 -2t-6.5 -0.5h-2
q-1 0 -4 0.5t-6 0.5t-6 0.5t-4 0.5q-2 0 -3.5 1.5t-1.5 3.5q0 1 0.5 1.5t2.5 1.5h2.5h3.5h3.5h1.5q2 1 2 2v3q0 7 -2 13t-3 13q-2 10 -3.5 21.5t-1.5 21.5q0 3 0.5 6t3.5 3q6 0 8 -6.5t3 -15.5t1 -20t0.5 -20t3 -15t7.5 -6h2q2 6 1.5 12t0.5 12v7t0.5 11t0.5 11.5v6.5v6
q0 4 -0.5 7t-0.5 7zM143 242l2 2t2 1v0.5v0.5q1 0 2.5 -1.5t2 -3t1 -3.5l0.5 -2v-76l-6 -7h-31l-0.5 1.5t-1.5 2.5v0q0 2 1.5 2.5t3 0.5t3 0.5t2.5 2.5v2v3v3v2q0 7 -0.5 15t-1 16.5t-2 16t-4.5 13.5q0 1 1.5 3t2.5 2q4 0 5.5 -3.5t1.5 -6.5q0 -2 0.5 -6l1 -8t0.5 -7.5v-4.5
v-9t0.5 -10.5t1.5 -10.5t3 -9q1 -2 2 -2h4q1 0 2 0.5l1 0.5l2 3v3.5v5.5q0 15 -1 28.5t-1 28.5v10zM71 118q0 9 3 15t13 6h3q2 0 8 -0.5t14 -0.5h17t17 -0.5t13.5 -0.5h7.5q6 0 10.5 -0.5t8 -2t6 -5t2.5 -9.5q0 -8 -3.5 -13.5t-11.5 -6.5h-8h-11h-12h-7h-10h-12h-11h-5h-8.5
t-9 1t-8 3t-6.5 6v8zM82 120v-4t2 -3q4 -3 7 -4t7 -1t6 1.5t4 4.5t2.5 6t0.5 6v3q0 1 -1 2h-9q-2 0 -5.5 -0.5t-6.5 -1.5t-5 -3t-2 -6zM116 112q0 -3 2 -4t4.5 -1.5t5.5 -0.5h5t4.5 2t4.5 5t3.5 5.5t1.5 5.5v2.5t-2 2.5q-1 0 -2.5 0.5t-4 0.5t-4 0.5t-2.5 0.5h-2
q-3 0 -4.5 -1t-2.5 -2.5t-1 -3.5t-1 -5q-1 -2 -3 -3t-2 -4zM151 114v-1q1 -2 3 -3.5l2 -1.5h20q3 0 4.5 4t1.5 6q0 4 -1.5 6t-3.5 3t-5 1.5t-5 0.5q-4 0 -6.5 -1t-4 -2.5t-2.5 -4.5t-3 -7v0zM57 86v1q0 1 0.5 5.5t0.5 5.5h1h1q3 0 4.5 -1t3.5 -4q0 -6 0.5 -11t0.5 -9.5
t0.5 -9.5t1.5 -10q1 -2 3.5 -3.5t5 -2t5.5 -0.5t5 -1h3.5h8.5t9.5 -0.5t7.5 -0.5h1q2 0 3.5 1.5t2.5 3.5q0 1 -0.5 5t-0.5 9t0.5 9t0.5 6v2.5t0.5 3.5t1.5 3.5t3 1.5q1 0 2 -1t2 -2.5t1.5 -3.5t0.5 -3q0 -7 -1.5 -15.5t-1.5 -15.5q0 -3 3 -4.5t7.5 -1.5h8.5h5h7.5h8.5t8 1.5
t6 5.5v2v3v3.5v2.5t1 3.5l1 2.5q0 1 -1 3.5t-1 3.5v2v4q0 3 0.5 5t1.5 4t3 2q3 1 5 -1t2.5 -5t0.5 -6v-5v-9t-0.5 -10.5t-2 -10.5t-5.5 -7q-12 -2 -25.5 -2h-25.5l-5 -2v-11q14 -1 29 -1.5t29 0.5q3 0 3 -2v-3v-3t-2 -2h-18q-17 0 -33.5 1t-33.5 2h-8t-13 0.5t-12.5 1
t-8.5 0.5q-1 0 -1 1v2v2t1 3h3h4.5h4.5h3q8 0 16.5 -1t17.5 -1q3 0 5.5 1t2.5 4q0 4 -1.5 6t-3.5 4q-2 0 -5 -0.5t-7 -0.5q-3 0 -6 0.5t-5 0.5h-9.5t-11 1t-10.5 3t-7 5q-1 9 -2 20t-1 20zM80 79q2 1 3.5 2t3.5 1h0.5h1.5h5t8 -0.5t7.5 -1t4.5 -0.5q2 0 2 -1v-2v-1
q-3 -2 -5 -2h-5h-3q-2 0 -5.5 0.5t-6.5 0.5t-5 0.5l-2 0.5zM143 80v0l1.5 1.5l0.5 0.5h2h4h6.5h6.5t6.5 -0.5t8.5 -1.5v-2v-2.5t-2 -1.5h-9h-10.5t-10.5 2q-1 0 -2 1l-2 2v1zM84 62v1l0.5 0.5t1.5 0.5h5h6t8.5 -0.5t7.5 -1.5t3 -3q0 -3 -3 -3h-4t-5.5 0.5t-8.5 1t-7.5 1.5
t-3.5 3zM145 60v1q0 1 1.5 2l1.5 1l28 -1l3 -4l-3 -3h-25q-1 0 -3.5 1t-2.5 3z" />
</svg>
