<?xml version="1.0" standalone="no"?>
<!DOCTYPE svg PUBLIC "-//W3C//DTD SVG 1.1//EN" "http://www.w3.org/Graphics/SVG/1.1/DTD/svg11.dtd" >
<svg xmlns="http://www.w3.org/2000/svg" xmlns:xlink="http://www.w3.org/1999/xlink" version="1.1" viewBox="-10 0 266 256">
   <path fill="currentColor"
d="M62 210q0 3 2 7t5 7.5t6.5 6t6.5 2.5q7 0 13 -1.5t11 -4.5t7.5 -8.5t2.5 -12.5q0 -5 -1 -10t-3.5 -9t-6.5 -6.5t-10 -2.5q-15 0 -24 7.5t-9 24.5zM136 202q0 12 6 19t17 7q6 0 11.5 -1.5t9.5 -4.5t6.5 -7.5t2.5 -11.5q0 -5 -1.5 -10t-4.5 -8.5t-7.5 -6t-9.5 -2.5
q-6 0 -11.5 1.5t-9.5 4.5t-6.5 8t-2.5 12zM71 205q0 -4 2 -7.5t4.5 -6t6 -4t7.5 -1.5q7 0 12.5 4.5t5.5 11.5q0 11 -4 15.5t-14 4.5q-8 0 -14 -4t-6 -13zM143 203q0 -9 5 -14t13 -5q9 0 14 5t5 14t-5.5 13.5t-12.5 4.5q-8 0 -13.5 -4t-5.5 -14zM84 203v3t2 3h2h2q4 0 5 -1
t1 -5t-1 -5t-5 -1h-4q-2 2 -2 3v3zM153 199q0 4 2.5 6t5.5 2q4 0 6 -2t2 -6q0 -3 -1.5 -4t-3.5 -1h-3.5t-3 0.5t-3 1.5t-1.5 3zM45 201v5h5l10.5 -21t7.5 -18t4 -19.5t1 -25.5q0 -12 -1.5 -24t-1.5 -24q0 -4 3 -7.5t8 -6t10.5 -4t11 -2.5t10.5 -1.5t8 -0.5h5l1 2
q0 9 0.5 19.5t1.5 19.5v3t0.5 4t0.5 3v1h3q1 0 1.5 -3t0.5 -5v-4t0.5 -6t0.5 -5.5v-3.5v-20q3 -4 5 -4.5t6 -0.5q7 0 15 1t14 3.5t9.5 8t3.5 15.5v2q0 1 -0.5 6l-1 10l-1 10t-0.5 6q0 4 0.5 11.5t2 17.5t4 20t5 18.5t5 14t5.5 5.5q2 0 2.5 -1.5t0.5 -3.5q0 -4 -2.5 -9.5
t-3.5 -10.5q-2 -6 -3.5 -12t-2.5 -11.5t-1.5 -11t-0.5 -12.5v-13v-19v-19v-13q-1 -4 -4 -7t-6 -5.5t-6.5 -4t-6.5 -2.5q-2 0 -6.5 -0.5t-9.5 -1t-9.5 -1t-5.5 -1.5q-5 0 -6 -2t-1 -6q0 -2 0.5 -3.5t3.5 -2.5q1 0 5.5 -0.5t9 -0.5t8.5 -0.5t6 -0.5q4 0 6.5 -1t2.5 -6h-11.5
t-18.5 0.5t-18.5 0.5h-11.5q-10 0 -18 0.5t-18 3.5l-0.5 1l-0.5 1v1v1l1 0.5t2 1.5h14h14l1.5 -0.5l3 -1t3 -0.5h1.5q5 0 6.5 2t1.5 7v4t-3 3q-5 1 -11.5 1.5t-14 1t-15 2t-13.5 4.5t-10 8.5t-4 13.5q0 5 1 10l2 10l2 10t1 11q0 23 -3.5 44t-15.5 41zM99 142q0 5 1.5 9.5
t4.5 8t7 6t10 2.5q5 0 10.5 -1.5t10.5 -5t7.5 -8.5t2.5 -12q0 -5 -2 -9.5t-5.5 -8t-8 -5t-9.5 -1.5q-6 0 -11 1.5t-9 4.5t-6.5 8t-2.5 11zM107 146q0 -2 0.5 -5.5t2 -7t3.5 -5.5t5 -2h15q3 0 5 2t3.5 5t2 6t0.5 5q0 9 -5.5 12.5t-13.5 3.5q-3 0 -6 -1t-5.5 -2.5t-4.5 -4
t-2 -6.5zM119 143q0 3 3 4.5t5 1.5q7 0 7 -7q0 -4 -2 -4.5t-5 -0.5t-5.5 1t-2.5 5zM156 89h-4t-5.5 0.5t-4 2t-1.5 4.5h33q0 -3 -2 -4.5t-5 -2t-6 -0.5h-5zM97 86h-2q-2 1 -4.5 1.5t-5 1.5t-4.5 1.5l-2 0.5v4h16.5t16.5 -2l1.5 -0.5t1.5 -1.5v0v-1q0 -1 -1 -1.5l-1 -0.5
q-4 -1 -7.5 -1.5t-8.5 -0.5zM86 77l3 0.5t4 0.5h2h1h3.5t5 -0.5t5 -0.5h3.5q1 -1 1.5 -2t0.5 -2t-1 -2t-2.5 -1h-3.5h-2h-5t-6.5 0.5t-6 1.5t-2.5 4v1zM144 74v1q1 1 2 1.5l1 0.5h26q0 -3 -1 -4.5t-2.5 -2t-3.5 -0.5h-4h-4h-6t-5.5 1t-2.5 3z" />
</svg>
