<?xml version="1.0" standalone="no"?>
<!DOCTYPE svg PUBLIC "-//W3C//DTD SVG 1.1//EN" "http://www.w3.org/Graphics/SVG/1.1/DTD/svg11.dtd" >
<svg xmlns="http://www.w3.org/2000/svg" xmlns:xlink="http://www.w3.org/1999/xlink" version="1.1" viewBox="-10 0 266 256">
   <path fill="currentColor"
d="M101 245q1 2 3.5 4t5.5 2q6 0 6 -6q0 -3 -1.5 -5l-3 -4t-3 -4.5t-1.5 -5.5v-2v-1l9 -19v-1v-1q0 -4 -1.5 -5.5t-4 -3t-5.5 -3t-4 -3.5q2 -3 4.5 -4t4.5 -1h4.5t4 -2.5t2.5 -8t1 -15.5q0 -1 0.5 -3t0 -4t-1.5 -3.5t-3 -1.5q-3 0 -3.5 1.5t-1 3.5l-1 4t-2.5 2h-15
q-2 0 -3 -2t-1.5 -4t-1.5 -3.5t-3 -1.5h-2q-1 4 -1 6.5t-0.5 5t-0.5 5.5v6t1.5 7t3 5t2.5 3.5t1 3.5q0 5 -3.5 8t-6.5 6q-2 0 -5 2l-6 4t-6.5 3.5t-4.5 2.5l-1 3v1q0 2 1.5 3t3.5 1q4 0 9 -2.5t10.5 -6t9.5 -7.5l7 -7l1 -0.5l1 -0.5q2 0 3.5 1.5t1.5 3.5q0 4 -0.5 7.5
t-1.5 7t-2 7.5t-1 8v3t0.5 4t0.5 4v3zM156 233q0 3 0.5 6t1.5 5t3 4t5 2q1 0 2.5 -0.5t2.5 -0.5t1.5 -1.5l0.5 -1.5q0 -3 -1.5 -4.5l-3 -3t-2.5 -3t-1 -4.5q0 -4 1 -7t2.5 -6t3 -6.5t1.5 -6.5t-2.5 -4.5t-5.5 -2.5t-5.5 -3t-2.5 -5q0 -4 2.5 -5.5t6 -2t7 -1.5t4.5 -5v-4.5
v-5.5q0 -1 0.5 -4.5t0 -7t-1.5 -6t-4 -2.5q-2 0 -3 1t-2.5 2t-4.5 2t-8 1h-7q-4 -8 -12 -8v4q0 3 0.5 6t0.5 6v4q0 7 2.5 11t5.5 6.5t5 3.5l2 1q0 6 -4 10t-9.5 7.5t-10 6.5t-4.5 6q0 4 3 4h1q5 -1 8.5 -4t6.5 -6.5t6 -6t6 -2.5q1 0 2.5 1t3.5 2t3 2.5t1 3.5t-1.5 4.5
t-3 5.5t-2.5 6t-1 7zM92 170q0 -2 0.5 -5t2.5 -3h15q1 0 1.5 1.5t0.5 2.5q0 6 -3 8t-9 2q-4 0 -6 -1t-2 -5zM145 168q0 -6 4 -7.5t9 -1.5q1 0 3.5 0.5t3.5 0.5q3 0 3 2.5v4.5q0 6 -3.5 7.5t-9.5 1.5q-5 0 -7.5 -1.5t-2.5 -6.5zM50 152q0 2 1.5 2.5t3.5 0.5q4 0 10 -4
t12.5 -10t13.5 -12.5t14 -12.5t12.5 -10t9.5 -4q5 0 9 2t8 5t7.5 6.5t5.5 6.5l-3 3l-1.5 0.5t-4 0.5t-5 0.5t-4.5 0.5h-5h-7h-8h-4h-5.5t-5 1t-4 2.5t-1.5 4.5q16 0 31 -0.5t31 -2.5q0 -1 2 -2t2 -2h1q3 0 8 3.5l10 7t9 7t6 3.5t5 -1.5t3 -4.5q0 -1 -3.5 -4t-9 -6.5
t-12 -7.5t-12.5 -7.5t-10.5 -6.5t-6.5 -4l-1 -1l-2 -2l-2 -2l-1 -1q-2 -2 -4.5 -3.5t-5.5 -2.5t-5 -2.5t-3 -4.5q-4 5 -10 10t-12.5 10.5t-13.5 10t-12 8.5q-2 1 -6 4t-8.5 6t-8.5 6t-6 4q-1 1 -1.5 2t-0.5 3zM143 43h5q3 0 8.5 0.5t10.5 0.5t8.5 0.5l3.5 0.5l6 6l0.5 3.5
t1 8.5t1 10.5t0.5 8.5v5.5t-0.5 4.5t0 3.5t1.5 3.5t2 2t3.5 -2t2.5 -3v-2v-4v-3v-2v-3v-4v-3v-2q0 -12 -1 -19t-4.5 -11t-10 -5.5t-17.5 -1.5q-2 0 -5.5 -0.5t-7.5 -0.5q-5 0 -8.5 0.5t-4.5 0.5q-2 -2 -3 -3.5t-1 -3.5t1 -4t3 -3q14 1 29 -0.5t29 -1.5q0 -4 -1.5 -5.5
t-5.5 -2.5h-14q-7 0 -13.5 0.5t-13.5 1.5h-62h-5t-7 0.5t-7 0.5h-4t-1.5 0.5t-0.5 1.5q0 2 1.5 3.5t3.5 2.5t4 1.5t3 0.5q8 0 16 -2t16 -2h4q2 0 4.5 0.5t5.5 0.5h3q4 0 4.5 3.5t0.5 5.5v3q0 1 -2 2h-3.5t-5.5 0.5t-5.5 0.5h-3.5q-4 1 -8.5 1t-9 0.5t-8.5 1.5t-8 3
q-4 3 -4.5 6t-1.5 8v4v5v5v3q0 5 -1.5 10t-1.5 10t6 5q1 0 2.5 -0.5t2.5 -2.5v-7t0.5 -10.5t0.5 -10v-6.5q1 -5 2.5 -8.5t7.5 -5.5q1 0 6 -1t10.5 -1.5t10 -1t6.5 -1.5h3q5 0 5 7v30q0 2 1 3.5t2 1.5q3 -1 4.5 -3t1.5 -5v-32q0 -1 1 -1.5t2 -0.5h3h1zM84 80l3 4h1h1
q1 -1 5 -1t8.5 -0.5t8.5 -1t5 -1.5v-1q0 -3 -1.5 -3h-3.5h-2.5h-1.5h-5.5t-6.5 0.5t-5.5 0.5h-2.5zM145 79v2t2 1h10h5h8t7 -1t3 -3v-1l-0.5 -0.5l-0.5 -0.5h-32q-2 0 -2 1v2zM86 61v3.5t3 0.5h3t5 -0.5t5 -0.5h3q3 -1 5 -1t3.5 -0.5t2.5 -1.5t1 -4h-30q-1 0 -1 2v2zM148 59
v1q0 1 1 1.5l1 0.5h3.5h3.5h5t7 -0.5t6.5 -1.5t3.5 -3l-0.5 -1t-1.5 -2v0l-4.5 0.5t-10 1t-10 1.5t-4.5 2z" />
</svg>
