<?xml version="1.0" standalone="no"?>
<!DOCTYPE svg PUBLIC "-//W3C//DTD SVG 1.1//EN" "http://www.w3.org/Graphics/SVG/1.1/DTD/svg11.dtd" >
<svg xmlns="http://www.w3.org/2000/svg" xmlns:xlink="http://www.w3.org/1999/xlink" version="1.1" viewBox="-10 0 266 256">
   <path fill="currentColor"
d="M168 221q0 3 1.5 8t3.5 10t5.5 8.5t7.5 3.5q2 0 4 -1.5t2 -4.5t-2 -5.5t-4.5 -5t-4.5 -5.5t-2 -8q0 -7 3 -12t6.5 -9t7.5 -8.5t5 -10.5q1 -3 1.5 -7.5t0.5 -9v-8.5v-7v-17q-1 -3 -1 -7t-4 -6q-6 -3 -13 -4l-14 -2t-14 -0.5t-13 0.5q-2 0 -3 0.5t-1 2.5q0 1 0.5 2t1.5 1
q4 2 9.5 2h10.5q2 0 2 1.5v2.5t-1 5.5l-2 9t-2.5 8.5t-3.5 4v0q-5 -5 -5 -10.5v-10.5l-5 -5l-1 1q0 1 -0.5 3t-0.5 3q0 5 0.5 10t3.5 9l1 1l2 2l2 2l1 1v1.5v2.5v6t-1 8.5t-2.5 7.5t-4.5 3q-2 0 -4 -2t-2 -4v-18l-0.5 -0.5l-1.5 -1.5h-1q-2 0 -3 2.5t-1.5 5.5t-0.5 6v4v4v3
q1 1 3 2.5t4.5 3t4 3t1.5 4.5t-1.5 7.5t-3.5 9t-4 8.5t-4 7v1v0v1l2 2l1 1l1.5 -0.5t1.5 -1.5q4 -3 6.5 -6.5t4 -7.5t2.5 -8.5t3 -9.5q1 -2 5.5 -3.5t9.5 -4t9 -6t4 -9.5q0 -5 -3 -5t-4.5 2.5t-4 6t-5 6t-7.5 2.5q-2 0 -2.5 -1t0.5 -4l2 -6t2 -6.5t2 -6.5t3 -6q1 -1 3 -1.5
t5 -1.5t5.5 -2.5t5.5 -3.5q0 -1 1 -2.5t2 -3.5l2 -4t1 -3q0 -4 -3 -4t-5 2.5t-3 6t-3 6t-5 2.5q-2 0 -2.5 -1t-0.5 -3q0 -3 0.5 -7.5t2.5 -8.5t4.5 -7t5.5 -3q6 0 9.5 3t5.5 9v13q0 9 -0.5 19t-5.5 18q-3 4 -6.5 8.5t-6.5 9t-5.5 9t-2.5 10.5zM90 208v36q4 0 7 -2t3 -6
q0 -7 -1 -13.5t-1 -12.5v-3.5t2 -2.5h22v-3t-2 -4h-3.5h-5.5h-4.5h-3.5q-4 0 -4.5 -1t-0.5 -3t0.5 -5t2.5 -3h16q2 0 2.5 -2t0.5 -4t-1.5 -2.5t-3.5 -0.5h-1h-2t-2 0.5t-2.5 1l-1.5 0.5h-2q-2 0 -4 -2t-2 -5q0 -2 1.5 -5.5t3.5 -6.5t5 -5.5t5 -2.5q3 0 5.5 2t5.5 2h2t2 -2
q0 -5 -4.5 -8t-10 -5t-10.5 -4.5t-5 -6.5q0 -3 1.5 -5.5t4.5 -2.5q4 0 9.5 2.5t13.5 2.5v-2.5t-1 -2.5q0 -1 -2.5 -2t-6 -2t-7.5 -3t-8 -3t-6.5 -2l-2.5 -1h-1q-1 0 -2.5 2t-2.5 3t-7 2.5t-12 4t-11 5.5t-5 5t2.5 3t3.5 1q4 0 7.5 -2t7 -4.5t6.5 -4.5t8 -2q2 0 3 1t1 4
q0 5 -3.5 8t-8 5.5t-9.5 4t-9.5 3t-8 4t-3.5 6.5q0 2 1.5 2.5t3.5 0.5t4 -1t4.5 -2.5t4.5 -2.5t5 -1t6 2t5.5 5t4 7t1.5 7v4h-4.5t-7 0.5t-6.5 0.5h-4h-5q-2 0 -2 3q0 1 0.5 2.5t1.5 1.5h27q1 0 1.5 2t0.5 3t-0.5 4t-3.5 3h-29q-2 0 -2 2v3q0 2 0.5 3.5t3.5 1.5q6 0 12 -1.5
t12 -1.5h3h2zM84 147q0 -5 3.5 -6.5t8.5 -1.5t6 2t1 7v2v2l-2 2t-2 2.5t-2.5 2.5l-1.5 1h-2l-9 -10v-1v-2zM59 101q-1 3 1 3.5t3 0.5q3 0 4.5 -3t2.5 -6v-27q0 -5 1.5 -9t6.5 -6q11 -2 22 -3.5t23 -2.5h2q2 0 4 1t2 4v43q0 1 1 2l2 2h0.5h0.5h0.5h0.5q3 -2 4 -6.5t1 -9
t-0.5 -9t-0.5 -6.5q0 -3 0.5 -7.5t1 -8l0.5 -3.5l3 -2h11h16t17 2q2 0 4 2.5t2.5 5.5l1 6t0.5 5v6v9v9.5v6.5q0 1 1 1h2q2 0 3.5 -1.5t2 -3.5t0.5 -4.5v-3.5v-9.5t-0.5 -9l-1 -9t-1.5 -10.5q-1 -4 -2.5 -6t-4.5 -3t-6 -1h-6h-6h-10h-11h-6q-1 0 -4.5 -1t-4.5 -1l-1 -0.5
t-1 -1.5v-11l2 -1l4 -0.5t10 -1t12 -0.5h10h20q2 -1 3.5 -2t1.5 -4v-2.5t-2 -1.5h-4h-4q-32 0 -65 2t-64 3q-1 0 -2 1.5l-1 1.5l-1 1q0 2 1.5 3t3.5 1h4h3q11 0 22.5 -1t23.5 -1h5q4 0 5 1q4 1 4.5 3.5t0.5 4.5q0 3 -0.5 5.5t-4.5 3.5h-20q-5 0 -12 0.5t-14 1.5t-13 4t-8 9
q-1 5 -1.5 9t-0.5 8v7v9v12zM79 91h1q0 1 0.5 1.5l0.5 0.5h34q1 0 3 -1.5t2 -2.5v-1l-0.5 -0.5t-1.5 -0.5h-32q-2 0 -4.5 1t-2.5 3zM153 89v1l0.5 0.5t1.5 0.5h29q1 0 2.5 -1t2.5 -2l-3 -3h-30l-1.5 1.5l-1.5 1.5v1zM81 68v1l0.5 1.5l0.5 1.5h3h4h4h3h3h4h4.5h1.5h3t4 -1
t4 -1.5t2 -2.5q0 -1 -0.5 -2t-1.5 -1h-13q-2 0 -5.5 -0.5t-8 0t-8 1t-4.5 2.5v1zM151 67l1 1l1 1l3.5 0.5t5.5 0.5h1h1h4t6 -0.5t6 -0.5h4q2 0 2.5 -1t0.5 -2v-2.5t-1 -1.5h-30q-2 0 -3.5 2t-1.5 3z" />
</svg>
