<?xml version="1.0" standalone="no"?>
<!DOCTYPE svg PUBLIC "-//W3C//DTD SVG 1.1//EN" "http://www.w3.org/Graphics/SVG/1.1/DTD/svg11.dtd" >
<svg xmlns="http://www.w3.org/2000/svg" xmlns:xlink="http://www.w3.org/1999/xlink" version="1.1" viewBox="-10 0 266 256">
   <path fill="currentColor"
d="M67 208q0 1 0.5 3.5t1.5 5.5t1.5 5.5t1 3.5t1 2.5t1.5 3t1.5 3l0.5 1.5l26 8h44q5 -2 11.5 -2.5t12.5 -2.5t10.5 -5.5t5.5 -10.5q0 -1 0.5 -3.5t1 -5.5t1 -5.5t0.5 -4.5q0 -10 -1.5 -15.5t-5.5 -8.5t-10 -4.5t-15 -1.5q-1 0 -3 -0.5t-3.5 -0.5t-3 -0.5l-1.5 -0.5v-10
l4 -1q1 0 4.5 -0.5t7.5 -0.5t7.5 -0.5t5.5 -0.5q4 0 6.5 -2t3.5 -4t1 -5.5v-7.5q0 -5 -0.5 -11t-5.5 -9q-1 0 -1.5 0.5t-0.5 1.5q-1 0 -2.5 3.5t-2.5 4.5h-4.5t-7.5 0.5t-7 0.5h-4h-2v0q-1 0 -1.5 -0.5l-0.5 -0.5v-3v-3q0 -5 1.5 -8t6.5 -4h21t22 -2v-7q-17 0 -34 2t-34 2v0
q-1 0 -3.5 -0.5t-5 -0.5t-5 -0.5l-2.5 -0.5h-1q-8 0 -14.5 0.5t-12 1t-12 0.5h-14.5q-4 1 -4.5 2.5t-0.5 5.5h56v15l-1.5 0.5t-2.5 0.5h-7h-7q-4 0 -7 -1t-5 -3.5t-2 -8.5q-1 1 -4 3.5t-3 4.5v27q0 2 1.5 4t3.5 4h8.5h11t10 1.5t4.5 4.5t-1 4.5t-3 2t-4.5 1t-4.5 0.5
q-1 1 -3.5 1.5t-5.5 1.5t-5.5 1.5t-3.5 0.5q-3 3 -5 6.5t-3 6.5t-2 7zM81 218q0 -3 3.5 -4t5.5 -1h32q1 0 1.5 2t0.5 3v0q0 8 -2.5 12t-9.5 4q-3 0 -8.5 -0.5t-10.5 -2t-8.5 -4.5t-3.5 -9zM133 212q9 0 17 -1t17 -1h6t3 3q0 5 -2 10.5t-7 7.5q-4 1 -7.5 1.5t-6.5 1t-6.5 0.5
h-6.5h-5q-1 -2 -1.5 -5t-0.5 -6.5v-6.5v-4zM79 200q0 -6 5 -9.5t12 -6t13.5 -3.5t9.5 -1q2 0 3 1.5t1.5 3t0.5 4.5v3v3t-0.5 4.5t-2 4t-3.5 1.5h-35q-3 0 -3.5 -1.5t-0.5 -3.5zM133 197q0 -4 0.5 -8t3.5 -7h9h9q6 0 11 1t8.5 4t3.5 10q0 1 -0.5 2t-2.5 2q-2 0 -6 0.5t-8.5 1
t-8.5 0.5h-6h-3q-4 0 -7 -1t-3 -5zM118 134v-3v-3v-4v-2q1 -5 4 -7t8 -2h2q3 0 3 2q1 9 1.5 16.5t0.5 16.5v16q-1 2 -1.5 5l-0.5 3h-14q-1 0 -1.5 -5t-1 -12t-0.5 -13v-8zM81 144q0 -3 3 -4t6.5 -1.5t7.5 -0.5h5q7 0 7 6q0 7 -3.5 8.5t-9.5 1.5h-5.5t-5 -1t-4 -3.5
t-1.5 -5.5zM145 148q0 -5 2.5 -7.5t6 -3.5t8 -1h7.5t5 1t2 4q0 1 -0.5 3.5t-1.5 4t-2.5 3t-3.5 1.5h-20q-1 0 -1.5 -1l-0.5 -1q0 -1 -0.5 -2zM59 92q1 4 4 4q4 0 5 -4q0 -1 0.5 -5t0.5 -8t0.5 -7.5t0.5 -5.5q1 -7 4.5 -9.5t9.5 -4.5q10 -2 18 -3t17 -1h5q1 0 2.5 0.5
t1.5 1.5v44q0 1 1.5 1.5t2.5 0.5q2 0 3 -2t1.5 -4.5t0.5 -4.5v-4v-9t0.5 -10t0.5 -8.5v-3.5l3 -4h2.5h2.5q6 0 12 0.5t11.5 1.5t11 4t8.5 8q1 6 1.5 10.5t0.5 9.5v3q0 1 -1 1q0 1 -0.5 3.5t-0.5 3.5q0 2 1.5 2.5t3.5 0.5q1 0 3 -1.5t2 -3.5v-31q0 -3 -2.5 -7.5t-4.5 -5.5
q-14 -1 -28 -3t-27 -5q3 -8 8 -9.5t12 -2.5h9h12h12h9q2 0 3.5 -1t1.5 -4q0 -2 -1.5 -3t-3.5 -2q-34 4 -67.5 5.5t-68.5 0.5q-2 -1 -2.5 0.5t-0.5 2.5t0.5 3.5t1.5 2.5h62q3 0 3 1.5v3.5v3t-2 2l-47 5l-2 0.5t-3 0.5q-1 1 -3 2t-3.5 1.5t-3 1.5l-1.5 1l-2 3v2.5t-0.5 6
t-0.5 7v5.5v3v5v4v4zM111 79q-2 0 -7.5 0.5t-12 1.5t-11 3t-4.5 5h9.5t13 -0.5t12 -1.5t5.5 -4t-1 -3.5t-4 -0.5zM145 86v1.5t1 1.5l38 -2q1 0 1.5 -1t0.5 -2v-1v0q-6 -2 -10 -2.5t-10 -0.5h-4.5h-7.5t-6.5 1.5t-2.5 4.5zM109 61h-8t-10 0.5t-9 2.5t-4 6q10 0 19 -0.5
t19 -1.5l1.5 -1.5t0.5 -2.5q0 -1 -1 -2t-2.5 -1h-3.5h-2zM146 64v0q1 1 2 1.5t2 0.5h30q2 0 3.5 -0.5t1.5 -2.5q0 -4 -4 -3q-1 0 -4.5 -0.5t-4.5 -0.5q-7 0 -12 0.5t-12 1.5q-1 0 -1.5 1l-0.5 1v0.5v0.5z" />
</svg>
