<?xml version="1.0" standalone="no"?>
<!DOCTYPE svg PUBLIC "-//W3C//DTD SVG 1.1//EN" "http://www.w3.org/Graphics/SVG/1.1/DTD/svg11.dtd" >
<svg xmlns="http://www.w3.org/2000/svg" xmlns:xlink="http://www.w3.org/1999/xlink" version="1.1" viewBox="-10 0 266 256">
   <path fill="currentColor"
d="M160 190v56q0 2 1.5 3.5t3.5 1.5q3 0 4 -3.5t1 -6.5v-2v-8v-13t-0.5 -13.5t-0.5 -7.5v-1v-2q0 -2 1.5 -3t4.5 -1q1 -1 4 -1t6 -0.5t5.5 -0.5h4.5q1 -1 2.5 -2t1.5 -3q0 -1 -1.5 -2.5t-2.5 -1.5h-23l-0.5 -0.5t-1.5 -0.5q-2 -4 -2 -8v-8v-1q2 -4 8 -4h1h1.5t4 0.5t4 0.5
h1.5q5 0 6 -2.5t1 -6.5h-25q-1 0 -1 -2v-2v-4.5t1 -7t2.5 -6t4.5 -2.5h19q2 0 2.5 -2t0.5 -4t-2.5 -3t-4.5 -1q-4 0 -7 0.5t-7 0.5q0 -5 2.5 -9t2.5 -9q0 -2 -1 -2.5t-3 -0.5q-5 0 -6.5 4t-2.5 8.5t-2 8t-5 3.5t-6 -3.5t-4 -7.5t-4 -7.5t-6 -3.5q-2 0 -3 0.5t-1 2.5
q0 3 1.5 5t3 3.5l3 3t1.5 4.5v0l-1 3q-1 0 -3.5 0.5t-5.5 1t-5.5 1t-2.5 2.5q0 4 3 4h5q4 0 6.5 -0.5t6.5 -0.5q2 0 5 2.5t3 4.5v17h-21q-1 0 -2.5 2t-2.5 4l0.5 1t1.5 2q1 0 3.5 -0.5t5.5 -0.5t5.5 0.5t3.5 0.5t3 0.5t3 2.5v6q0 6 -1.5 8.5t-4 3.5t-7 1t-10.5 1
q-2 1 -2 3.5v3.5h26zM91 203v18q0 2 -4 5t-9.5 6.5t-10 6t-4.5 3.5t-0.5 4t-0.5 4q5 0 9.5 -2.5t8.5 -5.5t8 -7t6 -7h4q1 2 4 5l6 6t6.5 5.5t6.5 2.5q2 0 4 -1t2 -4q0 -4 -4 -6.5t-9.5 -5.5t-10 -7.5t-4.5 -11.5v-5q1 -1 2.5 -2t4 -2t4 -1t2.5 -1q5 -2 8 -5.5t4.5 -7.5t2 -9
t0.5 -10v-5.5t-0.5 -7.5t-2 -7t-4.5 -3q-1 -1 -4 -1t-6 -0.5l-6 -1t-4 -0.5q-3 -2 -3 -5t4 -5t8.5 -3.5t8 -4.5t3.5 -9q0 -1 -0.5 -3.5t-2 -4.5t-3 -3.5t-3.5 -2.5l-19 -4q-3 -1 -4 -2.5t-1.5 -3t-2 -3t-4.5 -1.5q0 4 2.5 7t2.5 7q0 3 -4.5 5.5t-10 5.5t-10 7t-4.5 9
q0 1 0.5 2t2.5 1t3 -0.5t3 -2.5q7 -5 13 -10t12 -11h14q1 0 2 1.5t1.5 2.5t1 3l0.5 2q0 1 -0.5 2l-0.5 1q0 1 -1.5 1.5t-3.5 1t-3 1t-2 1.5l-2 0.5t-3 0.5q-2 2 -2.5 4t-0.5 4.5t-0.5 4.5t-3.5 4q-6 3 -10.5 3t-8 1t-5.5 4.5t-2 14.5q0 9 1 16t4.5 11.5t9 7t15.5 3.5z
M60 224q0 2 0.5 3t2.5 1q3 0 5 -1q1 -2 3.5 -4t4.5 -4l3.5 -3.5t1.5 -2.5v-6q-2 0 -5.5 2t-7 4.5t-6 5.5t-2.5 5zM104 212v6t1 2.5t2.5 0.5t4.5 1q3 2 5 3.5t5 1.5q2 0 3 -1t2 -4q-4 -5 -10 -7.5t-13 -2.5zM81 192q0 -1 1.5 -3t4 -3t4.5 -2t3 -1q2 0 4 0.5t4 2t3 3t1 3.5v0
q0 1 -0.5 1.5l-0.5 0.5q-1 0 -5 1t-6 2v0h-1q-2 -1 -6 -2t-6 -3zM72 180q0 -2 2.5 -4.5t6 -5.5t7 -5.5t5.5 -2.5t6 2t8.5 4.5t7.5 5.5t3 5q0 6 -5 6q-3 0 -6 -2t-5.5 -4.5t-4.5 -5t-3 -2.5q-2 0 -3.5 2.5t-3.5 5t-5 4.5t-6 2t-3.5 -1.5t-0.5 -3.5zM70 160q0 -2 2 -4t4 -3.5
t4.5 -2.5t5.5 -1q2 0 2.5 1t0.5 3t-1.5 4t-4 3t-4.5 2t-4 1q-1 0 -3 -0.5t-2 -2.5zM94 153v-1l1 -1t1 -2h3.5h3.5q8 0 11 3t3 11q-1 0 -4.5 -1t-7.5 -2.5t-7.5 -3.5t-3.5 -3zM57 93q1 1 2 1h2q2 0 3.5 -3t2 -8t0.5 -10.5t0.5 -10.5t1.5 -9t3 -5q4 -3 9.5 -4.5t11 -2l11 -1
t10.5 -0.5q4 0 5.5 1t1.5 5q0 7 -0.5 13.5t-0.5 13.5v13l1 2.5t2 2.5q2 0 3 -1.5t2 -3.5t1 -4v-3v-8v-11t-0.5 -11.5t-0.5 -7.5q7 0 12.5 -0.5t11 -0.5t10.5 0.5t12 1.5q4 0 6 3.5t2.5 8.5t0 10.5t0 10t1.5 7.5t4 3q1 0 3 -1t2 -3v-1v-3t-0.5 -4l-1 -4l-0.5 -2
q0 -2 -0.5 -5.5t-1 -8t-1.5 -8t-1 -5.5q-2 -5 -8.5 -7t-15.5 -2.5t-17 0t-13 0.5l-3 -1v-12l0.5 -1t1.5 -1l2.5 -0.5t3.5 -0.5v0h1h7t11 0.5t11.5 0.5h6.5h4q3 0 5.5 -0.5t2.5 -4.5v-1l-3 -3h-22h-23q-5 0 -13 0.5t-16 0.5h-16t-14.5 0.5t-10.5 0.5h-4l-3 3l3 3
q13 -1 25.5 0.5t26.5 0.5q3 1 3.5 2t0.5 3q0 5 -1.5 7.5t-4.5 3.5t-7 0.5t-8 0.5q-2 0 -7 1t-10.5 1.5t-10.5 1.5t-7 2q-4 2 -5.5 7.5t-2 13t-0.5 14v10.5v9zM76 76q0 1 1 1.5l3 1.5h1.5t4 0.5t5 0.5h3.5h1h4.5t5.5 -0.5t4.5 -2t1.5 -4.5q-9 0 -17 0.5t-17 1.5l-0.5 0.5z
M136 76q0 1 0.5 2t2.5 1h4.5h4.5h12t12 -2q1 0 1.5 -0.5t0.5 -1.5t-0.5 -2t-1.5 -1h-33q-2 0 -2.5 1.5t-0.5 2.5zM78 57q0 2 0.5 3t2.5 1h25q3 0 3.5 -1t0.5 -3q0 -3 -3 -3h-6q-6 0 -11.5 0.5t-11.5 0.5v1v1zM137 57q0 2 3 2.5t5 0.5l1.5 -0.5l1.5 -0.5h4h6.5t6.5 -0.5
t4 -0.5l0.5 -1t0.5 -2q0 -2 -1 -3t-3 -1q-6 0 -13.5 1t-13.5 2q-2 0 -2 3z" />
</svg>
