<?xml version="1.0" standalone="no"?>
<!DOCTYPE svg PUBLIC "-//W3C//DTD SVG 1.1//EN" "http://www.w3.org/Graphics/SVG/1.1/DTD/svg11.dtd" >
<svg xmlns="http://www.w3.org/2000/svg" xmlns:xlink="http://www.w3.org/1999/xlink" version="1.1" viewBox="-10 0 266 256">
   <path fill="currentColor"
d="M163 245v4.5t4 1.5q5 0 7.5 -7t4 -16t2 -17.5t1.5 -12.5t2.5 -8t3 -7t3 -6.5t4.5 -8.5q1 -3 4.5 -6.5t6.5 -7.5t5.5 -8t2.5 -7q0 -2 -1.5 -3t-3.5 -3h-0.5h-0.5l-3 3t-6.5 7t-6.5 8t-4 4q-9 16 -13.5 33.5t-6.5 35.5q-1 5 -3 10.5t-2 10.5zM112 171h0.5h0.5l7 61
q0 3 1 5.5t4 2.5t5 -2t2 -5l-4 -22t-3 -22.5t-1.5 -23t-2.5 -22.5l-2 -18t-1 -17v-4v-4q2 -3 5.5 -3.5t7.5 -1t7.5 -1t3.5 -2.5q0 -1 -0.5 -2t-1.5 -1h-5h-4q-7 0 -14 0.5t-14 0.5q-6 0 -6 -6q0 -2 0.5 -5t3.5 -5h2h4.5t4.5 -0.5t3 -0.5h1.5t3 -0.5t2.5 -1.5t1 -2
q0 -3 -3 -3.5t-5 -0.5q-3 0 -6 0.5t-6 0.5q-7 0 -7 -7q0 -3 2 -4t5 -2t6.5 -2t6.5 -3.5t5 -7t2 -11.5v-3v-3q-1 -1 -2 -1h-2h-2.5t-1.5 1q0 3 -0.5 7t-1.5 7t-3.5 5t-6.5 2q-2 0 -4 -1t-2 -4v-27q0 -1 -1.5 -1h-2.5q-4 0 -4.5 3.5t-0.5 7.5t0.5 7.5t0.5 6.5t-1 5.5t-4 2.5
q-7 0 -9 -3t-2.5 -7t-1 -7.5t-4.5 -3.5q-2 0 -3 1.5t-2 3.5q0 1 0.5 3t1 4.5t1 4.5t1.5 3l0.5 1t0.5 2q3 3 6.5 4l7 2t6 2t2.5 5q0 3 -0.5 4.5t-4.5 2.5q-5 1 -13 1.5t-14 2.5v1q0 2 1 3t3 2q1 0 4.5 -0.5t7 -0.5t7 -0.5t4.5 -0.5t3 0.5l2 0.5v15l-3 3h-43q0 5 2 6.5t7 1.5
q4 0 8 -0.5t9 -0.5q2 0 3 2t1 4v4v6v5v4q0 26 -3 49t-6 48q-3 3 -3.5 5t-0.5 6q0 3 1 4t5 1h3.5t2.5 -3q0 -2 0.5 -5.5t1.5 -8t1.5 -8t1.5 -5.5v-2q0 -1 0.5 -5.5t1 -9.5t0.5 -9t1 -6q3 0 7.5 -1t8.5 -1.5t8 -1.5t8 -1zM101 128h7q2 1 2.5 5t1.5 9.5t1 10.5v7v2t-1 1
q-7 1 -15 1.5t-16 0.5v-32q0 -2 3 -3t6 -1.5t6 -0.5h5zM145 157q0 3 3 3t6.5 -3.5t7 -9t6.5 -10.5t5 -7q0 -1 1.5 -3.5t3.5 -5.5t3.5 -5.5t2.5 -3.5q1 -2 5 -5t7.5 -7t6.5 -7.5t3 -5.5t-1 -3.5t-3 -1.5t-7.5 4.5t-11.5 12t-13 16t-12.5 17t-9 15.5t-3.5 10zM91 147q0 5 7 5
q2 0 4 -1t2 -3q0 -1 -1 -2.5l-2 -3t-2 -2t-2 -0.5q-1 -1 -2 0l-2 2t-1.5 2.5t-0.5 2.5zM83 111q0 -5 1.5 -7.5t4 -3.5t6 -1.5t7.5 -0.5h6q2 2 2 6v4v4v4q-1 2 -3.5 3t-5 1.5t-5.5 0.5h-5h-7q-1 -3 -1 -5v-5zM147 84v4q6 0 10 -4t7 -9.5t5.5 -11t5.5 -9.5q3 -3 7.5 -6.5
t8.5 -6.5t7 -7t3 -9q0 -2 -0.5 -3.5t-3.5 -1.5q-2 0 -5.5 2.5t-7.5 6.5t-8.5 9t-8 9.5t-6 8.5t-3.5 6q-1 1 -2.5 4t-3 6.5t-3.5 7t-2 4.5z" />
</svg>
