<?xml version="1.0" standalone="no"?>
<!DOCTYPE svg PUBLIC "-//W3C//DTD SVG 1.1//EN" "http://www.w3.org/Graphics/SVG/1.1/DTD/svg11.dtd" >
<svg xmlns="http://www.w3.org/2000/svg" xmlns:xlink="http://www.w3.org/1999/xlink" version="1.1" viewBox="-10 0 266 256">
   <path fill="currentColor"
d="M147 107q0 1 0.5 5.5t0.5 9t0.5 8.5t0.5 6v4v7v6v4q0 5 3.5 8.5l6.5 6.5l5 5t7 6t7.5 6.5l5.5 5.5q4 5 6.5 12t3.5 14.5t2 15.5t3 14h1h1q4 0 5 -2.5t1 -5.5q0 -22 -8.5 -41.5t-28.5 -30.5q0 -1 -0.5 -2t-0.5 -2v-1q0 -3 1.5 -6.5t4 -6.5t4.5 -6.5t3 -5.5q2 -4 2.5 -7.5
l1 -7t0.5 -7.5t1 -9q0 -1 0.5 -2t1.5 -1q2 -4 5 -5.5l6 -3t6.5 -4t7.5 -9.5v-4.5v-4.5q0 -10 -3 -16t-8 -10t-12 -6.5t-16 -3.5q2 -2 1.5 -3t-1.5 -1t-2 -0.5t-1 -1.5v-1q0 -1 0.5 -3.5t0.5 -5t0.5 -4.5t0.5 -4q-1 -1 -2 -3t-3 -2t-3.5 2t-1.5 3v4.5v5.5v6.5v3.5q0 4 -2 5.5
t-4.5 2.5t-5 1.5t-5.5 1.5q-10 6 -15.5 14t-5.5 20q0 5 2 9t5 6.5t7 5t7 5.5zM79 238q0 2 1.5 4t3.5 2q3 0 5 -3t2 -5v-59l3 -3q1 0 4.5 -0.5t7 -0.5t6 -0.5t4.5 -0.5h2.5t3 -0.5t3 -1.5t1.5 -3l-1 -0.5l-1 -0.5h-33v-17q0 -1 3.5 -2t7.5 -2.5l8 -3t6 -3.5q2 -8 2 -14v-13
v-3v-4.5v-4.5v-2q-1 -2 -2.5 -3.5t-3.5 -1.5q-3 0 -3.5 1t-0.5 3t0.5 4t-0.5 4t-3.5 3t-8.5 1h-3t-2 -1v-3v-3q0 -7 2.5 -11t5.5 -6.5t5.5 -4t3.5 -3.5l3 -25q0 -2 2 -3t4.5 -1.5t4.5 -0.5h2v-1v-2q0 -2 -2 -3t-5 -1.5t-5 -0.5t-2 -2v-18l-1 -1t-2 -1h-2h-1q-3 0 -4 1.5
t-1 4.5v4q0 1 0.5 2t0.5 2t0.5 2l0.5 1q0 5 -3.5 6.5t-8.5 2t-9 0t-6 -0.5v-21q0 -3 -2 -3.5t-4 -0.5q-1 0 -2.5 0.5t-1.5 3.5v18l-1 3l-4 0.5t-6.5 1t-3.5 0.5h-3t-1 1v3q0 4 0.5 5t3.5 1q4 0 7 -1t6 -1q2 0 3.5 0.5t1.5 2.5v23q0 2 2 3.5t4.5 2t5.5 1.5t4 3v6v5.5t-0.5 5
t-2.5 3.5t-6 1h-4.5t-5.5 -1v-7t-3 -6q-1 -1 -2 -1.5l-1 -0.5q-1 0 -2 1.5l-1 1.5v41q0 4 1.5 6t5 3t6.5 1.5l6 1t5 2.5t2 6q0 3 -0.5 5t-2.5 5h-4.5t-7 0.5t-6.5 0.5h-4h-4q-2 0 -4.5 0.5t-4.5 1.5t-2 4v1l2 3h2h3.5h3.5h3q6 0 11.5 -1.5t12.5 -1.5h1h1q1 5 1.5 8t0.5 7
q0 12 -2 24.5t-2 24.5zM157 154v-24v-12v-11t0.5 -10t1.5 -12l0.5 -3l1 -6t1 -5.5t0.5 -3.5v-1.5v-2.5l-1.5 -0.5t-2.5 -0.5t-2.5 0.5t-1.5 1.5l-7 28l-0.5 0.5t-0.5 1.5h-1q-3 0 -4.5 -2.5l-3 -5t-2 -5.5t-0.5 -5q0 -7 4 -12t10 -8.5t13 -5t13 -1.5q12 0 20.5 7t8.5 20
q0 2 -1 5.5t-3 6t-4.5 4.5t-6.5 2q-2 0 -3 -4t-1.5 -9.5t-0.5 -10.5t-2 -7q0 -1 -2 -1.5t-3 -0.5t-1.5 0.5t-0.5 1.5v2v1q0 10 1 19.5t1 18.5v7v7.5t-0.5 7.5t-1.5 7l-0.5 2t-1.5 4t-2.5 4t-1.5 3q-2 2 -3.5 6t-4.5 4q-2 0 -2.5 -0.5zM64 134v-6q0 -7 2 -9.5t8 -2.5h4t3 2v8
v3.5t-0.5 4.5t-1.5 3.5t-4 1.5t-6 -1t-5 -4zM91 127v-3.5v-3.5q4 -5 10 -5h2q2 0 3 2v3v4q0 7 -2 10.5t-10 3.5q-2 0 -2.5 -1.5t-1 -3.5t0 -3.5t0.5 -2.5zM76 60v-4v-3q4 -3 8 -3.5t8 -0.5h6q1 3 1 6v6v3v4t-0.5 3.5t-2.5 2.5h-7q-4 0 -6.5 -0.5t-4 -2t-2 -4.5t-0.5 -7z" />
</svg>
