<?xml version="1.0" standalone="no"?>
<!DOCTYPE svg PUBLIC "-//W3C//DTD SVG 1.1//EN" "http://www.w3.org/Graphics/SVG/1.1/DTD/svg11.dtd" >
<svg xmlns="http://www.w3.org/2000/svg" xmlns:xlink="http://www.w3.org/1999/xlink" version="1.1" viewBox="-10 0 266 256">
   <path fill="currentColor"
d="M86 169v2v7.5t-0.5 13t-1 16t-1 15.5t-0.5 13v7t-0.5 2t-0.5 3v2v1q3 0 5.5 -0.5t3.5 -3.5v-52v-7t0.5 -9t1 -7.5l0.5 -3.5l1 -5h28l1 -1l2 -2l2 -2t2 -1l-2 -1h-32q0 -7 0.5 -10t2.5 -3.5t5 -1t8 -3.5q3 -1 4 -1q2 0 3 -3q3 -4 4 -9t1.5 -10t0 -10.5t-0.5 -10.5v-4
t-3 -2q-2 0 -3 1.5t-1.5 3.5l-1 4t-1.5 3q-1 0 -5 1t-5 1h-2q-1 0 -3 -0.5t-2 -1.5v-19q0 -1 3 -2.5t6 -5.5t5.5 -10t2.5 -15l5 -6h20v-1t-0.5 -2l-1 -2t-1.5 -1h-19l-1 -1v-20q0 -2 -1 -4.5t-4 -2.5q-4 0 -5 5t-1 10.5t0.5 10t-1.5 4.5h-19q-3 0 -4.5 -3l-2.5 -5v-16
q0 -1 -1 -1.5t-2 -0.5q-2 0 -2.5 0.5t-0.5 2.5q-1 2 -1 5t-0.5 6t-0.5 6v4l-2 3h-23q-1 0 -2.5 1.5t-1.5 2.5v1v1q0 1 1.5 1.5t2.5 0.5h25v2.5t0.5 4.5l1 4t0.5 3t0.5 3.5l0.5 2.5q2 3 5 5t5.5 3.5t4.5 4t2 5.5v3v4.5v4.5v3h-18q-2 0 -2.5 -1.5t-1.5 -3.5t-2 -3.5t-4 -1.5
h-2.5t-1.5 1v2.5v3.5v3v3v8t0.5 7.5t1.5 7.5t3 8q3 3 7.5 4t8.5 2t7 3.5t3 6.5q0 1 -0.5 4t-3.5 3h-34q-2 0 -2.5 2t-0.5 3q0 3 1 3.5t3 0.5q7 0 13.5 -1t13.5 -1q2 0 5 1t3 4zM138 179q0 4 1 9t1.5 10t1.5 10t2 8q0 2 1.5 8t4 12t4.5 10.5t3 4.5q4 0 5 -2.5t1 -5.5
q0 -4 -3 -7.5t-4 -7.5q-4 -10 -7.5 -22.5t-3.5 -22.5q0 -12 7.5 -20t18.5 -11q2 2 4.5 9t6 17t6.5 21t6.5 20t7 15t6.5 6q6 0 7 -5q-4 -7 -9.5 -17t-10.5 -20.5t-8 -21t-3 -19.5v-5q2 -1 4 -3l4.5 -4.5t4 -5t1.5 -5.5q0 -4 -1 -8t-1 -8q0 -2 1 -4t2.5 -3l3 -2t2.5 -4
q1 -1 1.5 -3t1.5 -4.5t1.5 -4.5t0.5 -3v-54q0 -6 -3 -10t-8 -5.5t-10.5 -1.5h-10.5h-14t-10 1.5t-6 6t-3 13.5v7t-0.5 13t-0.5 14v11v7q0 11 3.5 15.5t8.5 6.5t11 1.5t11 0.5t8 4t3 12q0 5 -3.5 8t-9.5 5.5t-12.5 5t-12 6t-9.5 9t-4 13.5zM69 119v-4v-4t0.5 -1.5t1.5 -0.5
l2 -0.5t4 -0.5t3.5 -0.5t2.5 -0.5t2.5 1.5l2.5 2.5v8v4t-0.5 5.5t-1.5 4.5t-3 2q-9 0 -11.5 -4t-2.5 -12zM108 109h3h2l2 2v5q0 8 -3 12.5t-12 4.5h-1h-2t-2 -0.5t-1 -1.5v-19q0 -1 2 -2t4.5 -1h4.5h3zM150 94q0 -2 1.5 -4t4.5 -2h42q1 0 1.5 1t0.5 2.5v2.5v2q0 3 -2 6
t-4.5 4.5t-6 2t-6.5 0.5h-9t-10 -1.5t-8.5 -4.5t-3.5 -9zM152 79v-22h45l3 4v2v3v3q0 3 -0.5 5t-1.5 3.5t-3 1.5h-43zM77 52q0 -2 0.5 -3.5t3.5 -1.5h22v17q0 1 -1.5 2t-3 1.5t-3.5 1t-3 0.5q-8 0 -11.5 -5t-3.5 -12zM152 47v-2v-2t0.5 -4t1.5 -5.5t2.5 -4t4.5 -1.5h30
q3 0 4.5 1.5t2.5 3.5t1.5 4.5t0.5 3.5v3v3l-2 1h-10h-18t-18 -1z" />
</svg>
