<?xml version="1.0" standalone="no"?>
<!DOCTYPE svg PUBLIC "-//W3C//DTD SVG 1.1//EN" "http://www.w3.org/Graphics/SVG/1.1/DTD/svg11.dtd" >
<svg xmlns="http://www.w3.org/2000/svg" xmlns:xlink="http://www.w3.org/1999/xlink" version="1.1" viewBox="-10 0 266 256">
   <path fill="currentColor"
d="M161 212v36l1 1l2 2h1q2 0 3.5 -2t2.5 -4.5t1.5 -5.5t0.5 -5q0 -4 -1 -7.5t-1 -7.5v-3v-1l3 -3h3.5t5 -0.5t5 -0.5h3.5q2 -1 5.5 -2.5t3.5 -3.5t-2 -4t-4 -2l-1.5 0.5t-3.5 0.5t-3.5 0.5l-1.5 0.5h-5h-5q-2 -1 -2.5 -2.5t-0.5 -3.5q0 -4 2 -6t4.5 -2.5t5.5 -0.5
q4 0 6.5 -0.5t4.5 -1.5t2 -4q0 -1 -1.5 -2.5t-3.5 -1.5q-4 0 -7.5 1t-7.5 1h-4t-4 -2q0 -1 0.5 -5t1.5 -5l0.5 -0.5t0.5 -1.5q6 -1 10.5 -2t7 -3t3.5 -5.5t1 -10.5v-4.5t-1 -5t-2.5 -4t-3.5 -2.5h-3.5t-5.5 -0.5t-5.5 -0.5h-3.5q-1 -1 -1 -3v-3q0 -4 3.5 -6t8 -2t8 -0.5
t3.5 -3.5v-25q0 -3 -2.5 -4.5t-4.5 -1.5q-3 0 -3 1v4t-0.5 3.5t-5.5 1.5h-4t-5 -1v-3t-0.5 -4l-1 -4l-0.5 -2q-1 -2 -2 -3.5t-3 -1.5h-1q-2 5 -2 11v9q-1 0 -4 0.5l-6 1l-6 1t-4 0.5l-4.5 1.5t-1.5 2.5q0 3 1.5 3.5t3.5 0.5q5 0 9 -1t8 -1t5.5 1.5t1.5 5.5q0 3 -4 3.5
t-9.5 0.5t-9.5 1.5t-4 6.5q6 0 11 -1t11 -1q3 0 3.5 2.5t0.5 4.5q0 5 -2.5 6.5t-6 3t-6 5.5t-2.5 12q0 7 3 10t7 4.5t7.5 2t3.5 1.5v12l-3 2h-13l-0.5 -1l-0.5 -1q-1 -3 -2 -5.5t-4 -2.5q-2 0 -4 2v2.5v3.5q0 2 0.5 7t1.5 10.5t2.5 9.5t2.5 4zM104 199v4l-1 1.5t-2.5 3.5
l-3 4t-2.5 3l-1 1.5t-2.5 3l-3 3l-2.5 2.5l-0.5 0.5l-0.5 0.5q-3 2 -7.5 4.5t-8 5t-6.5 6t-3 8.5q8 0 17.5 -5.5t17.5 -13.5t13.5 -17.5t5.5 -17.5q0 -4 -2 -6.5t-4.5 -4.5t-4.5 -4.5t-2 -6.5v-3v-2q1 -3 5 -3.5t8 -0.5t7 -1t3 -6q-16 0 -32 1t-33 3q-2 0 -3 1t-1 4t2 3h5
q6 0 12 -0.5t13 -0.5h4l1 1q0 2 -0.5 4t-0.5 5q0 2 0.5 4.5t2.5 3.5q0 1 1.5 3t3 3.5l3 3zM144 194q0 -2 1 -3t3 -1.5t4 -0.5h3h2h3q3 2 3 6q0 5 -3 6t-7 1h-2h-3q-2 -1 -3 -3.5t-1 -4.5zM148 147q0 -4 2 -7.5t7 -3.5h23l1.5 2l1.5 2v0.5v0.5q0 6 -2.5 8.5t-6.5 3.5t-9 1h-9
t-6 -1.5t-2 -5.5zM63 119q0 7 1.5 12.5t4 8.5t7.5 4.5t13 1.5h3.5h2.5q1 0 3 -0.5t5 -1t5.5 -1t3.5 -0.5q4 -1 6 -4.5t3 -8t0.5 -9t-0.5 -7.5q0 -6 -1 -10.5t-3 -8t-6.5 -5.5t-11.5 -2q-1 -2 -1 -3.5v-4.5t2 -4.5t5 -2.5l6 -2t4 -4q1 -1 2 -3l2 -4l1.5 -3t0.5 -2v-27
q0 -2 -2 -3t-4 -1l-1 0.5t-2 0.5v5.5t-0.5 8t-0.5 8.5v6q-1 4 -3 7.5t-7 3.5q-1 0 -2.5 -0.5t-1.5 -2.5q0 -5 0.5 -9t0.5 -7.5v-7.5v-8v-4.5v-4.5q-4 -5 -9 -5v50q-1 0 -4 0.5t-4 -0.5q-4 0 -6 -3.5t-2.5 -8t-0.5 -10t-0.5 -9.5t-2 -7t-5.5 -3h-2t-2 1v5q0 4 1 9.5l2 11
t3 11t5 8.5q1 1 3.5 2t5.5 1.5t5.5 1l2.5 0.5v13q0 1 -0.5 1.5t-1.5 0.5q-7 1 -11.5 3t-7 4.5t-3.5 7.5t-1 14zM75 128q0 -5 3 -7t7.5 -2.5t9 -0.5h7.5q1 0 4.5 0.5t4.5 0.5q1 2 1 3.5v3.5q0 4 -2 6t-5.5 3t-7.5 1h-7h-4.5h-4.5q-6 -2 -6 -8zM75 107q0 -2 1 -4t3 -3
q7 -2 11 -2.5t9 -0.5t8 1t3 6q0 3 -3.5 5t-7.5 2.5t-8.5 0t-7.5 -0.5h-7q-1 -1 -1 -2v-2zM165 100q0 -3 2 -4t5 -1h1q2 0 3.5 0.5t2.5 1t1 1.5t-1 2t-2.5 1.5t-3.5 1t-3 0.5q-2 0 -3.5 -0.5t-1.5 -2.5zM157 14q-1 4 -1 8v9t-0.5 8.5t-1.5 8.5q-1 5 -6 7t-10.5 4t-10 5
t-4.5 9q5 0 9.5 -2.5l9 -5l9 -5t9.5 -2.5q6 0 11 2t9 4.5t7.5 5t7.5 2.5q2 0 4 -1t2 -3q0 -5 -5.5 -7.5t-12 -4.5t-12 -3.5t-5.5 -5.5v-29l-2 -2t-3 -2q0 -1 -1.5 -1.5l-1.5 -0.5l-0.5 0.5t-0.5 1.5z" />
</svg>
