<?xml version="1.0" standalone="no"?>
<!DOCTYPE svg PUBLIC "-//W3C//DTD SVG 1.1//EN" "http://www.w3.org/Graphics/SVG/1.1/DTD/svg11.dtd" >
<svg xmlns="http://www.w3.org/2000/svg" xmlns:xlink="http://www.w3.org/1999/xlink" version="1.1" viewBox="-10 0 266 256">
   <path fill="currentColor"
d="M157 178q4 2 7.5 2.5t6.5 0.5h8t7 2q5 1 7 7t2 13.5v15.5v15t1.5 11.5t5.5 4.5h2.5t1.5 -2v-14v-13.5t-1.5 -17.5t-4 -16.5t-7.5 -10.5q-3 -2 -7.5 -2t-9.5 -0.5t-9 -2.5t-4 -7q0 -6 2.5 -8.5t7 -4t9 -2t8.5 -1.5t7 -4t3 -8q0 -4 -2.5 -6t-5 -3.5t-4.5 -3.5t-2 -6
q0 -3 1.5 -4.5t4 -2.5t4.5 -1.5t3 -2.5q3 -5 3 -8q0 -4 1 -9q0 -1 0.5 -6.5t1 -12t1 -12t0.5 -7.5v0v-1v-3.5t-0.5 -5t-0.5 -5v-3.5q-1 0 -2 -1.5t-2 -1.5l-1 0.5t-2 1.5q-1 0 -2 0.5l-1 0.5v18q-8 -2 -13.5 -8t-5.5 -15v-2v-2q7 -2 14.5 -2.5t14.5 0.5q1 0 2.5 -1.5
t1.5 -3.5t-1 -3.5t-3 -1.5v0q-1 0 -3 1t-3 1t-5.5 0.5t-9.5 1t-9.5 1t-6.5 0.5h-9q-4 0 -8 1t-6.5 3.5t-2.5 8.5v4v8v8v5t-0.5 4.5t-0.5 8v8.5v5v1v0q0 2 0.5 5l1 6t1 5l0.5 2q0 2 1.5 3.5l3 3t2.5 3t1 3.5q0 5 -4.5 8t-10 5.5t-10 5t-4.5 6.5q0 1 0.5 2t0.5 2q9 -2 15.5 -7
t12 -10.5t11 -10t11.5 -4.5q1 0 2 1.5l2 3t1 3.5t1 2q1 5 2.5 6.5t3 2t2 1.5t0.5 4q0 4 -2 6t-6 2.5t-8.5 1t-8 2.5t-6 6t-2.5 11q0 1 0.5 3t0.5 4.5t0.5 4.5t0.5 3zM104 245l1.5 1.5t1.5 0.5q3 0 5 -1.5t2 -3.5q-1 -19 0.5 -37t1.5 -37v-12q0 -2 -0.5 -7.5t-1 -12t-1 -12
t-1.5 -7.5q-1 -3 -3.5 -6.5l-5 -7t-4 -6t-1.5 -5.5v-39q0 -2 3.5 -1.5t8 0t8.5 -2t4 -7.5h-21v-23q0 -2 -1.5 -3t-4 -1h-4.5h-2h-1.5t-3.5 -0.5t-4 -0.5h-2h-3h-4.5t-5 0.5t-4.5 0.5q-3 1 -4 1t-1 3l0.5 1.5t1.5 1.5h28l3 2l0.5 1.5t0.5 3.5q0 4 -0.5 7.5t-1.5 8.5
q-1 0 -3.5 -0.5t-5.5 -0.5q-2 0 -4.5 0.5t-3.5 0.5h-6t-8 1t-7.5 2t-3.5 3q0 4 2.5 4.5t5.5 0.5q7 0 14.5 -1.5t15.5 -1.5h3.5t1.5 3q0 8 -1.5 15t-1.5 15q0 5 1.5 8.5t3.5 7t5 6.5t5 7q1 3 2 9.5t1.5 13l1 13t0.5 9.5l-0.5 2t-0.5 5t-0.5 5l-0.5 2v5v10v12v9v7v10.5v10.5v7
zM152 98q0 -2 0.5 -3t2.5 -3q2 0 6.5 0.5t8.5 0.5q6 0 10.5 -0.5t5.5 -0.5t3.5 -0.5t3.5 -0.5v2v1q0 5 -3.5 7.5t-8.5 3.5t-10 1h-8q-4 0 -7.5 -2t-3.5 -6zM150 79q0 -4 2 -5t6 -1q1 0 4.5 -0.5t8.5 -0.5t9.5 -0.5t7.5 -0.5h3q3 0 3.5 2.5t0.5 4.5v4q-3 2 -6 3t-6.5 1h-7
h-5.5h-5.5h-6.5t-5.5 -1.5t-2.5 -5.5zM168 45l1 -0.5t2 -0.5t5 2.5t8 5.5t7.5 6t3.5 4v1q-1 1 -1.5 2l-0.5 1h-43q0 -4 2 -7t5 -5.5t6 -4.5t5 -4zM150 44q0 -2 0.5 -5.5t2 -7t3.5 -6t5 -2.5t4.5 2.5t1.5 5.5q0 2 -1.5 5l-3 6t-4 5t-4.5 1q-1 0 -2 -1.5t-2 -1.5v-1z" />
</svg>
