<?xml version="1.0" standalone="no"?>
<!DOCTYPE svg PUBLIC "-//W3C//DTD SVG 1.1//EN" "http://www.w3.org/Graphics/SVG/1.1/DTD/svg11.dtd" >
<svg xmlns="http://www.w3.org/2000/svg" xmlns:xlink="http://www.w3.org/1999/xlink" version="1.1" viewBox="-10 0 266 256">
   <path fill="currentColor"
d="M157 180q0 6 3 9.5t7 6t9 4t9 3.5q1 0 1.5 0.5l0.5 0.5q0 2 0.5 6t1 9t0.5 10.5t1 10.5t2 8t3 3h2.5t1.5 -2v-16v-16v-4t-0.5 -4.5t-0.5 -4v-1.5q-1 -2 -2.5 -4t-3.5 -4l-3.5 -3.5l-1.5 -1.5h-15q-2 0 -3 -1.5t-1.5 -2.5t-0.5 -2.5v-2.5q0 -7 2 -9.5t5.5 -4t7.5 -1.5
t7.5 -1.5t6 -4.5t2.5 -9q0 -8 -2.5 -11t-6 -5t-6 -4t-2.5 -8q0 -3 1.5 -5t4 -4.5t5 -4.5t3.5 -4q2 -5 2.5 -10.5t0.5 -11.5v-11.5v-9.5v-2t0.5 -2.5t0.5 -2.5v-1v-4v-6.5t-0.5 -6t-0.5 -3.5q-1 -2 -2 -2h-2h-3v4q0 3 -0.5 5.5t-1.5 4.5t-3 2q-6 0 -9 -4t-3 -9v-3.5t2 -2.5
l25 -5l1.5 -1t1.5 -2q1 -2 -1 -3l-4 -2h-4h-4h-5h-4l-2 0.5t-4.5 1t-4.5 0.5h-3q-10 1 -16 2.5t-9 5t-4.5 9.5t-1.5 16q0 9 -0.5 19t0.5 19.5t4.5 18t11.5 14.5v1q0 7 -3 10t-7 5t-8 3.5t-5 5.5q0 2 2 2.5t4 0.5q8 0 13 -4.5t8.5 -10t5.5 -10.5t5 -5q2 0 3.5 2.5t2 5.5
t1.5 6.5t2.5 4.5t3.5 2l4 2t3 2.5t1 4.5t-2.5 4t-6 2t-7.5 2t-7.5 3.5t-6 7t-2.5 11.5zM54 169v16v7q0 4 0.5 8t2 7t4.5 3h3h5h5h3t3 0.5t5 0.5t5.5 0.5t3.5 0.5h2h2q7 0 10 -6t4 -14t1 -16.5t1 -13.5l0.5 -1.5l1 -3l1 -3l0.5 -1.5q1 -3 -1.5 -6.5t-5.5 -3.5q-2 0 -2.5 0.5
t-1.5 3.5v3t-0.5 4.5t-0.5 4.5v3t-0.5 1.5t-1.5 0.5h-2h-3h-2.5h-1.5l-2 -5l0.5 -1.5t1.5 -4t2 -4.5t1 -4q1 -3 2.5 -7t3.5 -7t4.5 -5.5t4 -5t3 -5.5t1.5 -7q0 -6 -2.5 -9.5t-5 -7.5t-5 -8.5t-2.5 -11.5q0 -2 0.5 -4l0.5 -2l1 -2q2 0 5 0.5t5.5 0.5t5 -1.5t2.5 -4.5t-2.5 -4
t-5.5 -1.5t-6.5 -0.5h-4.5q-2 -2 -2 -6v-5q0 -10 2.5 -13t5.5 -3.5t5.5 -1t2.5 -4.5q0 -3 -1.5 -3.5t-4.5 -0.5q-11 0 -22 1.5t-22 4.5q-3 2 -6.5 6t-5.5 8q-1 7 -1.5 12t-0.5 9.5v9.5v11q0 3 -0.5 7.5t0 9t3 8t6.5 4.5h22l2 1t3 1h2h2h3h2l0.5 -1.5t1.5 -1.5v-1
q0 -4 -3.5 -5t-6.5 -2q-1 0 -4.5 -0.5t-7.5 -1.5t-7.5 -1.5t-5.5 -0.5q-2 -3 -1.5 -8t0.5 -7v-10q0 -1 2.5 -2t6 -1t6.5 -0.5l3 -0.5q7 0 9 2.5t3 6t1.5 8t2.5 8.5q3 6 6 9.5t3 9.5t-3 11.5t-7 11.5t-7.5 13t-4.5 15q-1 3 -3.5 3h-5.5h-4.5t-2.5 -3v-4t-0.5 -6t-2 -5
t-4.5 -2q-1 0 -2.5 1.5t-2.5 3.5t-1.5 3.5t-0.5 2.5v16zM64 183v-2.5v-2.5q2 -2 4 -3.5t4 -1.5h30l3 6l-0.5 2l-1 4t-1 4.5t-0.5 3.5q-1 2 -2 5t-4 3q-5 0 -10.5 -0.5t-10.5 -2.5t-8 -5.5t-3 -9.5zM150 103q0 -1 0.5 -2.5t2.5 -1.5h34q0 2 -1 3.5t-3 2l-4 1t-3 2.5h-25
q-1 0 -1 -2v-3zM146 84v-1q0 -2 0.5 -3.5t1.5 -1.5h40q2 0 2 3v2v4t-3 2h-39q-1 0 -1 -0.5t-0.5 -1.5t-0.5 -2v-1zM148 68q1 -4 3.5 -6.5t6 -4.5t7 -2.5t7.5 -0.5q2 0 5 0.5t6 2t5 4t2 4.5t-1 2.5t-2.5 1t-3.5 0.5h-3h-2h-6t-9 -0.5t-9 -0.5h-6zM63 52q0 -12 3.5 -17
t14.5 -5h4h3l1 2l0.5 2t0.5 4.5t0.5 5.5t0.5 5v1q0 3 -2.5 3.5t-4.5 0.5q-5 0 -10 -1t-11 -1zM159 29h5q1 1 1 2.5v2.5q0 8 -6 13.5t-14 5.5v-9t1.5 -7.5t4.5 -5.5t8 -2z" />
</svg>
