<?xml version="1.0" standalone="no"?>
<!DOCTYPE svg PUBLIC "-//W3C//DTD SVG 1.1//EN" "http://www.w3.org/Graphics/SVG/1.1/DTD/svg11.dtd" >
<svg xmlns="http://www.w3.org/2000/svg" xmlns:xlink="http://www.w3.org/1999/xlink" version="1.1" viewBox="-10 0 266 256">
   <path fill="currentColor"
d="M197 247q0 3 1.5 3.5t2.5 0.5q4 0 5.5 -2t1.5 -5q0 -4 -1 -10.5t-2 -13.5t-3 -13.5t-3 -10.5q-2 -3 -5.5 -5t-8.5 -2.5t-10.5 -1t-10 -0.5t-7 -1t-2.5 -4q0 -6 3.5 -8.5t8.5 -3t11 -1t11 -2t8 -5.5t3 -12q0 -9 -2.5 -12.5t-6.5 -4.5t-6.5 -1.5t-2.5 -4.5q0 -2 2.5 -4
t6 -4.5t6.5 -6t3 -7.5v-18q0 -1 0.5 -6.5t0.5 -11t0.5 -11t0.5 -6.5v-8v-1.5v-3.5t-0.5 -3.5t-1.5 -1.5q-2 0 -3.5 1t-2.5 2q0 1 0.5 4t0.5 5.5t-1.5 5t-4.5 2.5l-1 -0.5l-1 -0.5q-5 -5 -8.5 -11t-3.5 -13q0 -3 1.5 -4t3.5 -1.5t4.5 -0.5h3.5t4 -0.5t5.5 -0.5t5 -0.5
t3.5 -0.5t1.5 -1.5t0.5 -2.5t-0.5 -2t-1.5 -2h-3h-3h-4h-2h-3h-4h-3.5h-1.5q-2 0 -6 1t-8.5 1.5t-9 1.5t-5.5 1q-6 2 -9.5 7.5t-5 12.5t-2 14t-0.5 11v3v7.5t0.5 12t0.5 12v7.5v3q1 2 3 4.5t4 4t3 4t1 4.5q0 5 -2 8t-5.5 5t-7.5 4t-7 4t-5.5 5t-2.5 7q8 0 14 -3t10.5 -7
t8 -9t6 -9t5.5 -6.5t5 -2.5q3 0 4 1t1.5 3l1 4t1.5 4q2 4 5 5.5t5.5 3t4.5 3.5t2 5v4t-2 4q-7 0 -15 0.5t-14.5 3.5t-10.5 8t-4 14q0 7 4 10t9.5 4t12 0.5t12.5 -0.5q3 2 5 5.5t3.5 7.5t2 8.5t1.5 7.5v4t0.5 6t0.5 6v4zM51 171q0 3 1 9t3 13t4.5 14.5t5.5 14t6 11.5t5 6
q3 -1 4.5 -2.5t1.5 -4.5v-2q-8 -16 -13.5 -31.5t-5.5 -32.5v-4v-3l8 -8h1h2t3.5 5.5t5.5 14t6 18t7 17.5t8 13.5t8 5.5q3 0 4.5 -1.5t1.5 -4.5v-1t-1 -1q-5 -8 -10.5 -16t-10 -16.5t-7.5 -17.5t-3 -19q0 -3 1.5 -5t3 -3.5t3 -3.5t1.5 -4q0 -1 0.5 -3t0.5 -5t0.5 -5t0.5 -3
q1 -2 2 -2.5l2 -1t2.5 -1t3.5 -2.5q3 -2 4.5 -4.5t2.5 -5.5t1.5 -6t1.5 -6v-53q0 -5 -3 -8.5t-7.5 -5t-9.5 -2t-9 -0.5q-14 0 -21 4.5t-9.5 12.5t-3 17.5t-0.5 20.5t0.5 18.5t3.5 12.5t9.5 7.5t19.5 2.5q0 1 0.5 1.5l0.5 0.5v1q0 7 -2.5 11t-7 7t-9 5.5t-8.5 6.5t-7 9.5
t-3 14.5zM146 105q0 -3 2 -4t4 -1.5l4 -1t4 -0.5h15h15q2 1 2 2v2q0 5 -3 7t-7.5 3t-9.5 1h-7q-2 0 -5.5 -0.5t-6 -1t-5 -2t-2.5 -4.5zM66 92v-6q2 -2 6.5 -2.5t10 -1.5t10.5 -1.5t7 -0.5h3q2 0 2 2v6q0 5 -1 9.5t-5 7.5h-7h-10q-4 0 -8 -1.5t-6 -4t-2 -7.5zM144 84
q0 -4 6 -6t13 -3t14.5 -1h10.5h2.5t1.5 2v11l-2.5 0.5t-4.5 1.5h-3t-7 0.5t-7.5 0.5h-6.5h-2h-5t-5 -0.5t-3.5 -1.5t-1.5 -4zM65 73v-13q0 -1 1.5 -2t3.5 -2q4 -1 11 -1h11h2h5h4h2q3 2 3.5 4.5t0.5 5.5v4.5t-4 3.5q-7 1 -14 1h-15h-2h-4h-2.5h-1.5zM146 65v-2l2 -1
l3.5 -3.5t5.5 -4.5t5 -3.5t3 -2.5t2 -1h3h2l15 15l-0.5 1t-1.5 2q-1 2 -6 2.5t-11 1t-12 0.5h-8t-2 -1v-3zM144 45q0 -11 5.5 -14.5t15.5 -3.5q0 6 -1 9.5t-3.5 6t-6 4t-8.5 5.5l-2 -2v-2v-3zM66 40q0 -5 3 -7.5t7.5 -3.5t9 -1.5t8.5 -0.5q6 0 10.5 3t4.5 11q0 2 -1.5 4
t-3.5 2h-34q-3 0 -3.5 -3t-0.5 -4z" />
</svg>
