<?xml version="1.0" standalone="no"?>
<!DOCTYPE svg PUBLIC "-//W3C//DTD SVG 1.1//EN" "http://www.w3.org/Graphics/SVG/1.1/DTD/svg11.dtd" >
<svg xmlns="http://www.w3.org/2000/svg" xmlns:xlink="http://www.w3.org/1999/xlink" version="1.1" viewBox="-10 0 266 256">
   <path fill="currentColor"
d="M194 221v28q0 1 2 1.5l2 0.5q3 0 4.5 -1t2 -3t0.5 -4v-4q0 -3 -0.5 -6.5t-1.5 -7.5l-2 -8t-2 -7l-0.5 -1.5l-0.5 -1.5q-4 -3 -10 -4t-12.5 -2t-11 -3t-4.5 -6q0 -6 5 -8t11 -3t12 -1q7 0 10 -1l1 -0.5t2 -2t2 -2t1 -1.5v-20q0 -4 -2.5 -6t-5.5 -3t-5.5 -3t-2.5 -6t1 -5
t3 -1.5l4 -1t3 -4.5q5 -13 5.5 -27.5t0.5 -28.5v-15q1 -5 -3 -5q-2 0 -3 2t-2 4.5t-1.5 5.5t-2.5 4q-2 -1 -3.5 -3t-3.5 -4.5t-3.5 -4l-2.5 -2.5v-2q0 -2 1.5 -4.5t3.5 -4.5h3h5h4.5h3.5t2.5 -1.5t1.5 -2.5q0 -3 -1 -4.5t-3 -2.5h-13h-12q-7 0 -14 1.5t-12.5 5t-6.5 10.5
l-1 27l1 4q1 7 0.5 13.5t0 12.5t2 12t5.5 12l1 1t1.5 2t1.5 2l1 1q1 4 -2.5 8t-8 8.5l-8.5 8.5t-5 6l3 2h1q6 0 9.5 -2.5t6 -6t4 -8t4.5 -8t6.5 -6t10.5 -2.5h2q0 8 2.5 12t5.5 6.5t5.5 5t2.5 7.5t-3 7t-7 2.5t-8.5 0t-8.5 0.5q-3 0 -6 2t-5.5 5t-4 6.5t-1.5 6.5q0 2 1 5.5
t2.5 6.5t4 5t4.5 2h22q1 0 2.5 1.5t2.5 3t2 3.5t2 2zM88 190q0 6 -2 13t-4 13.5l-4 13t-2 13.5q4 0 7.5 -1t5.5 -5q2 -6 3.5 -13.5t2.5 -15.5l2 -16t1 -14q1 -5 0.5 -7.5t2.5 -6.5q1 0 4 -2t4 -3q1 0 2 -0.5l1 -0.5l2 3v21q0 1 0.5 3l0.5 2v0v1q0 8 -2 16.5t-2 16.5v4t3 3
t5 -3t3 -6.5l2 -7t1 -5.5v-15v-15l-0.5 -1t-0.5 -2.5t-0.5 -2.5l-0.5 -1q0 -3 0.5 -6.5t0 -7.5t-2 -7t-5.5 -3q-2 0 -3.5 1t-3.5 2.5t-3.5 2t-3.5 0.5h-1l-0.5 -0.5l-0.5 -0.5q0 -4 -1 -9.5t-2 -12t-2.5 -12t-2.5 -8.5l-0.5 -1.5l-0.5 -1.5l0.5 -1.5l0.5 -1.5q0 -1 0.5 -2
t1.5 -1h21q3 0 3.5 -1.5t0.5 -2.5q0 -4 -3 -5t-7 -1l-4.5 0.5t-11 0.5t-14 0.5t-13.5 1.5t-10.5 1.5t-4.5 2.5t2.5 4t4.5 2h17l3 3q-2 3 -7 6t-9.5 7t-8 7.5t-3.5 7.5q0 3 3 3q2 0 6 -2.5t8 -6t8 -6.5t6 -5l5 3l0.5 2t0.5 3q0 8 -6 12.5t-13 8.5t-12.5 8t-5.5 11q0 3 3 3
q5 0 9.5 -3.5t8.5 -8t8 -8t9 -3.5q2 0 2.5 1t0.5 2v3q-1 1 -1 3.5t-0.5 4.5t-0.5 4v2q-2 4 -8 7.5t-12.5 8t-12 8.5t-5.5 7t4 3q1 0 3 -1t4.5 -2l5 -2l2.5 -1q2 -1 3.5 -2.5l3 -3t3.5 -3t4 -1.5q3 0 3.5 2.5t0.5 5.5zM152 111q0 -1 0.5 -1.5l1.5 -1.5q2 0 5.5 -0.5t8 -0.5
t8 -0.5t4.5 -0.5h5q2 0 4 1t2 4v1v1q-1 1 -3 3.5t-3 2.5h-29q-1 0 -2 -2.5t-1 -3.5t-0.5 -1.5zM151 92v-3t2 -3h7t11 -0.5t11.5 -0.5h7.5h1q3 0 4 2t1 4v2l-2.5 2.5t-2.5 1.5h-38q-2 0 -2 -2v-3zM103 22q0 2 0.5 7.5t1 12t2.5 14t4 13t5 9.5t7 4l1 -1l1 -1v-5v-4
q-3 -5 -5.5 -8.5t-4 -7.5t-2.5 -8t-1 -10v-2l0.5 -2t0.5 -4.5t0.5 -4.5t0.5 -3v0v-1q0 -2 -1.5 -5t-4.5 -3q-1 0 -2.5 1t-2 2.5t-0.5 3.5v3zM53 74q1 2 2 2.5t3 0.5t5 -1.5t4 -3.5q5 -3 7.5 -6t4 -6.5t2.5 -7.5t2 -9q0 -3 1.5 -5t1.5 -4v-4t-1 -4t-2 -3.5t-3 -1.5t-3.5 4
t-3 9.5t-2 10t-1.5 6.5q0 2 -3 5.5l-6 7t-5.5 6.5t-2.5 4zM153 75q0 -2 1.5 -3.5t3.5 -2.5t3.5 -2l1.5 -1q1 0 2.5 -1t3.5 -2.5t3.5 -2.5t1.5 -2h0.5h0.5h0.5h0.5q4 2 8 6t6 7v0.5v0.5q0 1 -2.5 3t-3.5 2h-30l-0.5 -0.5t-0.5 -1.5v0zM151 58q0 -10 2.5 -14t12.5 -4q3 0 5 1
t2 4q0 1 -2.5 3.5t-6 5t-6.5 5t-4 3.5q0 -1 -1.5 -2t-1.5 -2v0z" />
</svg>
