<?xml version="1.0" standalone="no"?>
<!DOCTYPE svg PUBLIC "-//W3C//DTD SVG 1.1//EN" "http://www.w3.org/Graphics/SVG/1.1/DTD/svg11.dtd" >
<svg xmlns="http://www.w3.org/2000/svg" xmlns:xlink="http://www.w3.org/1999/xlink" version="1.1" viewBox="-10 0 266 256">
   <path fill="currentColor"
d="M135 185q0 8 2 17t6 17t9.5 14.5t13.5 11.5q3 1 4.5 2l3 2t3.5 1.5t5 0.5v-3l-1.5 -1.5l-3 -3l-3.5 -3.5l-3 -3q-1 0 -2.5 -1.5l-3 -3t-3 -2.5t-2.5 -2q-3 -4 -5.5 -9t-4.5 -10.5t-3.5 -11.5t-1.5 -11q0 -1 0.5 -3.5t1.5 -5.5t2.5 -5t3.5 -2t3 1.5t1.5 3t1 4t1.5 3.5
q9 16 19.5 29.5t25.5 25.5q2 2 4 2t2.5 -1t0.5 -3q0 -3 -2.5 -5.5t-4.5 -2.5q-1 -1 -3.5 -4l-5 -6t-4.5 -6t-3 -4q-2 -3 -6.5 -9t-9 -12.5t-7.5 -13t-3 -11.5q0 -2 1.5 -3.5t4 -2.5t4.5 -2.5t3 -3.5v-2v-3v-3v-2q0 -1 0.5 -1.5l0.5 -0.5l1.5 -0.5t3 -1.5t3 -1.5t1.5 -1.5
q4 -3 6.5 -9t2.5 -11q0 -8 -2.5 -14t-10.5 -9h-10q-8 0 -14 1t-11 4t-7.5 8.5t-2.5 13.5q0 7 2.5 11t6.5 6t9 3t11 1q2 0 2 2v2v3l-4.5 4.5l-5.5 5.5t-6 5.5t-6 2.5l-10 17l-0.5 2t-0.5 4zM44 165q0 2 1.5 3t3.5 2h15h20t20 -2h3t5.5 -1t4.5 -2t2 -3v-2.5t-2 -1.5h-13l-2 -2
v-3v-5q0 -15 2 -29.5t3 -29.5q-1 -2 0.5 -2.5t2.5 -0.5q5 0 9 1.5t8 1.5q0 -2 -1.5 -4t-3.5 -3.5t-4.5 -2.5t-4.5 -2q-4 -3 -8 -8t-6 -8l-4 -10t-3 -11t-1.5 -11.5t-0.5 -9.5q0 -1 -0.5 -1.5t-1.5 -0.5v0v0h-1q0 1 -1.5 2l-1.5 1v5.5t-0.5 7.5t-1 7.5t-0.5 5.5l-0.5 2
t-1.5 4.5t-2 5.5t-1 4q-1 1 -1.5 2l-0.5 1l-28 27v3h6l11 -9q3 2 4 7.5t1.5 13t0.5 14.5v11v12q-2 4 -3 8.5t-1 8.5l-22 3v0.5v0.5zM79 127v-15q0 -7 -1 -14l-1 -2.5t-1.5 -5t-1.5 -4.5t-1 -3v-1v0q0 -1 0.5 -2t1.5 -2q1 0 2.5 -2t4 -4t4.5 -4t2 -3h1q2 0 4 2t4 4.5t3 5.5
t1 5v1v2q-3 13 -6 25.5t-2 26.5l-1 2v19q0 1 -2.5 2t-5.5 1h-5h-3q0 -8 1.5 -16.5t1.5 -17.5zM145 115q0 -3 1 -5.5t2.5 -5t4 -4.5t4.5 -2h23q1 0 2 1.5t1.5 3.5t1 3.5t0.5 2.5q0 11 -6 15t-16 4q-4 0 -7 -0.5t-5.5 -2t-4 -4t-1.5 -6.5zM157 112v3.5t1 3.5h3h2q4 0 6 -1
t2 -6q0 -2 -2 -3.5t-4 -1.5q-3 0 -5.5 1t-2.5 4zM145 72v1q1 1 3 1h4h4.5h3.5h7h6.5t6.5 -0.5t8 -0.5q1 -3 3 -3.5t4 -0.5q5 0 9 1.5t9 1.5q0 -4 -2.5 -6.5t-6 -5t-7.5 -4t-6 -3.5q-5 -4 -9.5 -8t-9.5 -9q-1 -1 -3 -5.5t-4 -8.5t-3.5 -7.5t-3.5 -3.5h-0.5h-0.5
q0 7 -0.5 12.5t-2 10t-4.5 8.5t-8 8q-1 0 -3 2t-5 4.5l-6 5t-5 3.5l-0.5 0.5l-0.5 0.5q0 1 1.5 1.5l1.5 0.5h1q5 0 10.5 -3.5t9.5 -6.5q1 -1 3.5 -3l5 -4l5 -4t3.5 -3h3l3 3l4.5 4.5t5 4.5t3.5 3t2.5 1.5t1.5 2.5v1l-0.5 0.5l-0.5 0.5q-10 -1 -21 0.5t-19 5.5v1v0z" />
</svg>
