<?xml version="1.0" standalone="no"?>
<!DOCTYPE svg PUBLIC "-//W3C//DTD SVG 1.1//EN" "http://www.w3.org/Graphics/SVG/1.1/DTD/svg11.dtd" >
<svg xmlns="http://www.w3.org/2000/svg" xmlns:xlink="http://www.w3.org/1999/xlink" version="1.1" viewBox="-10 0 266 256">
   <path fill="currentColor"
d="M97 197q-5 12 -10 22t-15 19q-1 1 -3.5 2.5l-5 3t-4.5 3t-2 4.5q10 0 18.5 -5.5t15.5 -13.5t11 -18t6 -19q5 -1 8.5 -1h8.5t8 1.5t4.5 4.5t2 7t1.5 9q2 6 6.5 12.5t10 11t12.5 7.5t14 3q0 -3 -6.5 -8t-13.5 -11.5t-13.5 -15t-6.5 -17.5l0.5 -1.5t1.5 -1.5l60 -3
q1 0 1.5 -2.5l0.5 -2.5h-34q-2 0 -2 -2v-2q0 -2 1.5 -5.5t3.5 -7l4 -7t4 -5.5q2 -5 4.5 -8t4.5 -6t3 -6.5t1 -8.5q0 -4 -1.5 -8.5t-4.5 -9t-6.5 -7.5t-7.5 -3q0 4 1.5 7t3.5 5.5t3.5 5.5t1.5 7v0.5v0.5q0 1 -0.5 3t-0.5 4.5t-0.5 4.5l-0.5 2q0 2 -3 2t-5 -2.5t-3.5 -6t-4 -6
t-5.5 -2.5h-1l-1 0.5l-1 0.5l1 1.5t1 2t1 2t2 3.5t2 3.5l1 1.5q1 1 1.5 2t0.5 2v1v0q0 1 -1 2l-1 1h-25q0 3 4.5 4t10 1.5t10 2t4.5 4.5t-1 6.5t-2.5 7t-3.5 6.5t-5 5h-7q-9 0 -18 -1t-18 -1.5l-18 -1t-17 0.5q-2 -4 -3.5 -6.5t-2.5 -5t-1.5 -5t-0.5 -6.5q0 -3 1 -4t3 -1.5
t4 -0.5h4q3 0 4.5 1.5t2.5 3.5l2 4t3 4q6 5 14 7.5t16 2.5v-2l-1.5 -1t-3 -1.5t-3.5 -1.5t-3 -1l-6 -2t-6 -2.5t-4.5 -3.5t-1.5 -6q0 -3 1.5 -5.5t3.5 -4t5 -2.5t5 -1q4 0 7.5 2.5t7 6t7 6.5t7.5 4q3 1 7.5 1.5t8.5 0.5q0 -1 -0.5 -2t-1.5 -2q-5 -1 -8.5 -2.5t-7 -3.5
t-6.5 -4.5t-7 -6.5v-1v-1q0 -1 1 -3l2.5 -5t3 -5.5t1.5 -3.5q1 -4 3.5 -7.5t4.5 -7t3.5 -7t1.5 -6.5t-1 -6.5t-3 -6t-4.5 -4.5t-5.5 -2h-28q-4 2 -7.5 3.5t-6 4t-4 6t-1.5 8.5q0 9 3 13.5t8.5 7t12.5 2.5h15q1 1 1 2v2q0 2 -1.5 3t-3 1.5t-3.5 1t-3 0.5t-4 1t-5.5 2t-4.5 2
l-2 1q-3 2 -4.5 4t-2.5 3l-2.5 2.5t-3.5 1.5h-1h-3.5t-4 -1t-3 -2.5t-1.5 -3.5q0 -3 2 -6t4 -5.5t3.5 -4.5t1.5 -4q0 -3 -3 -3q-4 0 -7 3.5t-5.5 8t-4.5 8t-5 3.5v-0.5v-0.5q-1 0 -1.5 -0.5l-0.5 -0.5v-7q0 -6 1.5 -10.5t4 -8t6.5 -7t7 -7.5v-1h-8l-2 1.5t-4.5 4t-5 5.5
t-4.5 5l-2 2.5t-3 3.5l-0.5 1.5l-0.5 1.5v19q0 3 2 4.5t5 2.5t5.5 2t3.5 4l1 2t1.5 4.5t1.5 4.5t1 3l0.5 1.5t1.5 3t1.5 3t1.5 2.5v0v1l-1.5 1.5l-0.5 0.5h-24l-3 4q0 1 0.5 1.5l0.5 0.5q1 0 5 1t5 1h6.5t9.5 0.5t9.5 0.5h6.5q1 0 4 1t3 3v1zM101 111q-1 -3 -1 -6v-6
q0 -8 6 -11.5t15 -4.5q4 0 9.5 1t9.5 4v3v4q0 10 -7 15t-17 5q-4 0 -7.5 -1t-7.5 -3zM109 98q0 3 2 4.5t5 1.5q6 0 8 -4t2 -9h-3.5t-5.5 0.5t-5.5 2t-2.5 4.5zM121 11q-2 0 -3 2t-2 4.5t-1 5t-1 3.5q-3 6 -9.5 13.5t-14.5 15t-16 14t-13 9.5q-1 0 -3 1l-5 2.5t-5.5 2.5
t-2.5 2v5h5l2 -1t4.5 -2t5 -2.5t4.5 -2.5q8 -4 14.5 -10t12.5 -12q7 -6 14.5 -11t13.5 -12v0h1q1 1 2 1.5l1 0.5q1 1 3.5 3t5.5 4.5t5.5 4.5t3.5 2q1 5 7 9.5t14 8.5t15.5 7t11.5 3q2 0 3.5 -0.5t1.5 -2.5v-0.5v-0.5q-1 0 -6.5 -3.5t-13 -8t-14 -8t-8.5 -4.5l-24 -23
q0 -1 -1 -3.5l-2 -5t-2 -4.5t-1 -3l-1.5 -3t-1.5 -1zM106 61q1 2 3.5 2.5t6 0.5h6h3.5h5h5l0.5 -0.5l1.5 -1.5v-1q0 -1 -2 -2t-5 -1.5t-6 -0.5h-3h-4t-4.5 0.5t-4.5 1t-2 2.5z" />
</svg>
