<?xml version="1.0" standalone="no"?>
<!DOCTYPE svg PUBLIC "-//W3C//DTD SVG 1.1//EN" "http://www.w3.org/Graphics/SVG/1.1/DTD/svg11.dtd" >
<svg xmlns="http://www.w3.org/2000/svg" xmlns:xlink="http://www.w3.org/1999/xlink" version="1.1" viewBox="-10 0 266 256">
   <path fill="currentColor"
d="M53 178q0 8 0.5 17.5l1 19t2 19t3.5 16.5h1.5h1.5q4 0 5.5 -2t1.5 -5q0 -15 -2.5 -29.5t-2.5 -29.5q0 -3 -0.5 -7t0.5 -8t3 -6.5t6 -2.5q3 0 5 3t2 6v1l-0.5 2.5t-0.5 5t-0.5 4.5l-0.5 2q0 1 0.5 3t1.5 2q0 1 0.5 4t0.5 4q2 11 5 24t3 25q1 1 2.5 2t3.5 1t2 -3v-4
q0 -5 -1 -10t-2.5 -10t-2.5 -10l-2 -10v-5v-8v-8v-5q0 -4 -2 -7.5t-2 -7.5v-3t1 -3q2 -2 2.5 -5t0.5 -5.5t1 -5t2 -5.5q1 0 2 -1l2.5 -2.5l2.5 -2.5t1 -2q2 -3 2.5 -7l1 -8t0.5 -8.5v-7.5q0 -5 -1 -8.5t-2.5 -5.5t-4 -3.5t-7.5 -2.5v-14q0 -2 1.5 -3t3 -1.5l3 -1t2.5 -0.5
q2 0 3.5 2.5t3 5.5l2.5 5t3 2t4 -1.5t2 -3.5q0 -4 -2 -8t-4 -8.5t-4.5 -9t-4.5 -8.5q-1 -1 -2.5 -3.5t-3 -5.5t-3.5 -6t-2 -4h-2q-2 0 -4 1.5t-4 4t-3 5t-2 4.5l-30 43q0 1 -0.5 2.5t-0.5 2.5t1 1.5t2 0.5q5 0 7 -3t4.5 -6.5t5 -6.5t7.5 -3q4 0 6.5 1.5t2.5 6.5
q0 6 -1.5 8.5t-4.5 3.5l-6 2t-5.5 3.5t-4.5 7.5t-2 14t0.5 15t2.5 9t7 4.5t14 2.5q1 0 1.5 1.5l0.5 1.5q0 6 -2.5 8.5t-6.5 3.5t-8 1.5t-7 2.5q-3 3 -4.5 5.5t-2 5.5t-0.5 6v6zM112 245q0 3 4 3t7.5 -4.5t7 -11.5t7 -15t6.5 -15t6 -11.5t5 -4.5t4.5 4.5t5 11t5 14.5t5 15
t5 11.5t5.5 4.5t4.5 -2t1.5 -5t-2 -7t-4 -7.5t-5 -7t-5 -6.5q-2 -2 -3.5 -6.5t-3.5 -11t-3.5 -13.5t-3 -13t-2 -11t-0.5 -7v-1l0.5 -1.5l1 -3t1 -2.5l0.5 -1v-3v-5v-5v-3q0 -3 1 -3.5t2 -0.5q6 0 11 6t9 13.5t7 13.5t6 6h3.5t2.5 -1v-9l-1.5 -2.5t-3.5 -6t-4.5 -7t-3.5 -5.5
q-4 -4 -8.5 -7.5l-9 -7t-7.5 -8t-3 -10.5q0 -1 0.5 -3.5t0.5 -3.5q1 -1 3 -2.5t5 -3t4.5 -3.5t1.5 -3q-1 -3 -2.5 -3.5t-2.5 -0.5h-2h-1q-8 4 -10.5 7.5t-2.5 7v7.5t-3 9q-1 2 -4.5 4.5t-6.5 5.5t-6 5.5t-5 5.5q-6 7 -10 14.5t-9 14.5q-1 2 0.5 2.5t2.5 0.5q6 0 9.5 -5.5
t7 -12.5t8.5 -13t13 -6q0 33 -10 64.5t-31 57.5q0 1 -0.5 1.5t-0.5 1.5zM66 112v-1l1 -1q4 -1 8 -1.5t9 -0.5h2q1 0 2.5 0.5t2.5 0.5h2q1 0 2.5 1.5t1.5 2.5q0 4 -2 6t-5 3.5t-6 2t-5 0.5q-6 0 -9.5 -3.5t-3.5 -9.5zM68 93q0 -3 2.5 -4.5t6 -2t7.5 -0.5h5q4 0 5 2t1 6v2.5
v2.5q-3 2 -6 2h-6q-2 0 -4.5 -0.5l-5 -1t-4 -2t-1.5 -4.5zM120 24q0 6 0.5 13.5t1.5 13.5q0 2 2 3.5t4.5 3t4.5 2.5t2 2v27q0 1 1 1.5t2 0.5q2 0 3.5 -0.5t1.5 -2.5v-23q0 -2 3 -4.5t6.5 -6t6.5 -8t3 -9.5v-1v-2v-3.5t-1 -4.5t-2 -3h-1q-3 0 -3.5 4t-0.5 9t-1.5 9t-4.5 4
h-2.5t-1.5 -2v-32q0 -2 -1 -2.5t-2 -0.5h-2h-1v2t-0.5 3t-1 3t-0.5 2v1v2q0 1 0.5 4t1 7t0.5 7.5v3.5v1q-5 0 -7.5 -1.5t-3 -4t0.5 -6t0.5 -6t-2 -4.5t-6.5 -2zM168 31v0q1 2 1 5.5t0.5 7t0.5 6v2.5q0 3 2 4.5l4 3t3.5 2.5t1.5 2v21q0 2 1 2.5t2 0.5q4 0 5 -3t1 -7v-8t1 -6
q0 -2 2 -3t3.5 -2l3 -2t2.5 -2l1 -1.5t1.5 -3t1.5 -3l1 -1.5q0 -1 1.5 -2.5t1.5 -2.5v-3q0 -2 -0.5 -4.5t-1.5 -5t-4 -2.5v0.5v0.5q-1 0 -1.5 0.5l-0.5 0.5q0 1 -0.5 3.5l-1 5t-1 4.5t-0.5 3q-1 1 -2 3t-2 2h-1q-1 -1 -1.5 -2l-0.5 -1v-31q0 -2 -1 -2.5t-3 -0.5q-5 0 -5 6
q0 5 1 8.5t1 8.5v3q0 3 -0.5 6t-1.5 5t-3 2q-3 0 -3 -1.5t-1 -3.5v-4t-0.5 -6t-0.5 -5.5v-3.5t-0.5 -1.5t-1.5 -0.5v0q-2 0 -3.5 2t-1.5 4zM90 30q1 0 2 1.5t2.5 4t2.5 5t1 3.5q0 3 -3 4t-5 1h-2t-4.5 0.5t-4 0.5h-2.5q0 -3 1 -6t2.5 -6.5t4 -5.5t5.5 -2z" />
</svg>
