<?xml version="1.0" standalone="no"?>
<!DOCTYPE svg PUBLIC "-//W3C//DTD SVG 1.1//EN" "http://www.w3.org/Graphics/SVG/1.1/DTD/svg11.dtd" >
<svg xmlns="http://www.w3.org/2000/svg" xmlns:xlink="http://www.w3.org/1999/xlink" version="1.1" viewBox="-10 0 266 256">
   <path fill="currentColor"
d="M128 243v2.5t0.5 2.5t1.5 2t2 1q2 -1 4 -3.5t2 -4.5q1 -1 1.5 -4.5t1 -6.5l1 -6t0.5 -4v-6.5t0.5 -10t0.5 -11v-7.5v-10v-15v-15v-10q1 -2 3.5 -3.5t5 -2.5t5 -1.5t4.5 -0.5q1 0 2 2t2 3q0 20 2 40.5t4 41.5q1 3 1.5 7.5t0.5 8.5v9t1 8h1h1q4 0 6.5 -3t2.5 -6
q0 -6 -1.5 -12t-1.5 -12q-3 -19 -5 -39t-2 -39v-3.5v-2.5l3 -2h27l0.5 -1l0.5 -1q0 -1 0.5 -2l0.5 -1q0 -1 -1 -2l-1 -1h-5h-7h-7h-4q-4 0 -7 -1t-3 -5t4 -7.5t9 -7l10 -7t8 -6.5q6 -8 8.5 -17t2.5 -20v0q-1 -1 -2 -3l-1 -2q-5 -10 -13 -13.5t-19 -3.5h-10q-1 5 -4 5
q-2 0 -4.5 -1l-5 -2t-5.5 -2.5t-6 -1.5q-1 0 -2.5 0.5l-1.5 0.5l-2 1l-4 2t-4 1.5t-2 1.5q-2 0 -4.5 0.5l-5 1t-4.5 2t-2 4.5q0 1 1 1.5t2 0.5h2q1 0 2 -0.5l2 -1t2.5 -1l1.5 -0.5q4 1 7 7t5 13t3.5 14t1.5 11q0 1 -1 3.5t-2.5 4.5t-3 4.5t-1.5 3.5t-0.5 3.5t-0.5 5.5
t0.5 5.5t0.5 3.5q0 2 -2.5 3.5t-6 2t-6.5 0.5h-4q0 1 -0.5 2l-0.5 1q0 1 1 2t2 1h14q1 0 2 2t1 4.5v4.5v2q0 16 -0.5 32t-1.5 31q0 8 -2 17.5t-2 17.5zM59 191q0 1 0.5 6t1.5 11.5t2.5 14t3.5 13.5t3.5 9.5t2.5 3.5q4 0 5 -2.5t1 -4.5q0 -5 -1.5 -10t-3 -10.5t-3 -10.5
t-1.5 -10v-2t-0.5 -4t-0.5 -3v-3v-3t0.5 -3.5t0.5 -3.5v-3q0 -2 2.5 -4t4.5 -2q3 0 5 4.5t4 11.5t3.5 15.5t4 15.5t5 11.5t5.5 4.5t3.5 -2.5t0.5 -4.5q0 -5 -2 -9t-4.5 -8.5t-4.5 -8.5t-3 -9v-6l-0.5 -2.5t-1.5 -5t-1.5 -4.5t-0.5 -3q-1 0 -1 -1v-3q0 -3 1 -5t4 -3v-3
t0.5 -4t0.5 -4t1 -3l1 -1l2.5 -2.5l2.5 -2.5l1 -1q2 -2 3 -5t1.5 -6t0.5 -6v-6v-4v-6t-0.5 -5.5t-1.5 -4.5t-4 -3.5t-6.5 -3t-6 -2.5t-2.5 -4v-3v-5t1 -4t3 -2h14l1 2.5t2.5 5.5t4 5.5t6.5 2.5q0 -6 -2 -12.5t-5 -12t-6 -11.5l-6 -12q0 -1 -1 -5l-2 -8t-2 -7.5l-1 -3.5h-1
h-2q-2 0 -3.5 0.5t-2.5 2.5q-1 1 -2.5 4.5t-3.5 7.5t-4 7.5t-2 4.5q-3 4 -7.5 11l-9 14t-7.5 14t-3 11h5l3 -2.5t5 -4.5q2 -3 3 -5t2.5 -4t3.5 -3t5 -1q1 0 2.5 0.5l1.5 0.5q2 2 2 5v6v4v3l-4.5 1.5l-4.5 1.5q-6 2 -9 5t-4 7.5t-1 9v9.5q0 9 1.5 13.5t5.5 6.5t9.5 2.5
t12.5 0.5l2.5 2.5t0.5 2.5q0 5 -4.5 8t-10 6t-10 9t-4.5 19zM63 124v-3q0 -2 2 -2q7 -1 13.5 -2t12.5 -1q2 0 4 0.5t4 2.5v2v3q0 8 -5 10t-11 2q-3 0 -6.5 -1t-6.5 -2t-5 -3t-2 -6zM142 119v-5v-6.5t1 -7t2 -4.5l2.5 -2t3.5 -3q2 -1 5 -3.5t5.5 -5.5t4.5 -6.5t2 -6.5v-6v-9
v-8.5v-5.5q0 -2 1 -2h2q3 0 4 3.5t2 5.5q0 4 1 10t1.5 12t1.5 12t1 11q0 3 -1.5 4.5t-4 2t-5 1.5t-3.5 2q-2 7 -2 11.5t-1.5 6.5t-5.5 2.5t-13 0.5q-2 0 -3 -1t-1 -3zM65 105v-1v0l8 -8h23q1 0 2 1t1.5 2.5t0.5 3v1.5q0 2 -3.5 3t-8 1.5l-9 1t-6.5 0.5t-5 -1t-3 -4zM186 54
v-4.5t0.5 -4.5t1.5 -3.5t3 -1.5q4 0 6 1.5t3.5 4t2 5.5t0.5 5q0 9 -3 16.5t-9 12.5q-2 -1 -3 -5t-1.5 -9t-0.5 -10v-7zM137 40q0 -4 3 -4.5t6 -0.5q5 0 7.5 2t4 5.5t2 7.5t0.5 8q0 5 -1 9.5t-4 8.5l-1.5 0.5l-1.5 0.5q-4 0 -5.5 -3t-2 -6.5t-0.5 -6.5q0 -4 -1 -6
q0 -2 -1 -3.5t-2 -3.5l-2 -4t-1 -4zM73 56l12 -22q1 -2 2 -2h2q3 0 5 3.5t3.5 8t2 9t0.5 6.5h-27v-3z" />
</svg>
