<?xml version="1.0" standalone="no"?>
<!DOCTYPE svg PUBLIC "-//W3C//DTD SVG 1.1//EN" "http://www.w3.org/Graphics/SVG/1.1/DTD/svg11.dtd" >
<svg xmlns="http://www.w3.org/2000/svg" xmlns:xlink="http://www.w3.org/1999/xlink" version="1.1" viewBox="-10 0 266 256">
   <path fill="currentColor"
d="M80 246l0.5 0.5l0.5 0.5q0 1 0.5 2l0.5 1h3h2q5 0 7 -2.5t2.5 -6t0 -8t1.5 -7.5v-31q0 -14 -0.5 -27.5t-0.5 -27.5q0 -2 2 -4t4 -3q3 0 4.5 2.5t2 6t0 7t-0.5 4.5l0.5 3t1 5.5t0.5 5.5v3v3v5v4v3q3 1 3 5q0 1 -0.5 2t-2.5 1v14l1.5 1.5l1.5 1.5q2 1 4.5 -1t3.5 -4v-3.5
v-5.5v-6v-4v-5v-6v-5v-3v-3.5t-0.5 -5.5t-0.5 -5.5v-2.5v-8q0 -6 -0.5 -11.5t-2.5 -10t-5 -4.5v0q-4 1 -7.5 3.5t-6.5 2.5l-2 -3.5t-4.5 -8.5t-4 -10t-1.5 -6t0.5 -4.5t1.5 -7.5t2 -7t2 -3h15v-2v-4q-1 -2 -3 -2h-4t-4 -1.5t-2 -6.5q0 -6 2 -7t5 -1t5.5 -0.5t2.5 -3.5
t-2.5 -3h-5t-5 -1.5t-2.5 -7.5v-1l1 -2t1 -2.5t0.5 -1l0.5 -0.5h16l0.5 -0.5l1.5 -1.5l1 -1.5l1 -1.5q-2 -4 -4 -4.5t-5 -0.5q-10 0 -19 2.5t-19 2.5q-4 3 -7 8t-5 10.5t-3 11t-1 10.5t1 11.5t2 11.5q1 3 4 6t3 7t-3.5 7t-7.5 5.5t-7 5.5t-3 7q0 2 1 2.5t3 0.5h1h1
q1 -1 3 -2.5t4 -3.5t3.5 -4t2.5 -3t2.5 -2t3 -2.5l2.5 -2.5t2 -1h3q3 0 4 1.5t2 5.5q-1 0 -3 2.5t-4.5 5l-5 5l-3.5 3.5t-4 3.5t-5.5 5t-4.5 5t-2 4.5q0 4 4 4t8.5 -4t9 -9.5t8 -10t6.5 -6.5v-1q1 0 1.5 1l1 2t0.5 2.5v2.5q0 7 -2.5 13t-5.5 11t-7 10t-8 11t-5.5 13.5
t-5.5 13.5q-1 3 -2 3.5l-1 0.5h-1v4t0.5 5t3.5 2q1 0 3.5 -3t5 -7.5t5.5 -10l6 -11t5 -9.5t2 -5t0.5 -2t0.5 -2t0.5 -2l0.5 -1l1.5 1t2.5 1q0 21 -1 42.5t-6 41.5l-0.5 0.5zM190 207q0 1 0.5 4t1.5 6t1.5 5.5t1.5 3.5q0 3 0.5 7t1.5 7.5t2.5 6.5t5.5 3h1q2 -1 5 -3t3 -4v-1
q-1 -1 -2.5 -5t-3.5 -9t-3.5 -9t-2.5 -6t-2 -6t-1 -6q0 -3 1.5 -5.5t3 -6l3 -7t1.5 -7.5q0 -8 -3 -12.5t-7 -6.5t-10 -2.5t-13 -0.5q-1 -1 -2 -2.5t-1 -2.5v-37q0 -3 1.5 -3h3.5q1 0 3.5 0.5t2.5 2.5v29l0.5 1.5t1.5 1.5v0v0q4 0 5.5 -2.5t2 -5.5t0.5 -7v-5q0 -10 -3.5 -15
t-8 -7.5t-8 -4t-3.5 -5.5t3.5 -5.5t7.5 -1.5q3 0 6.5 2t5.5 4q0 2 0.5 6.5t1.5 9t2.5 8.5t4.5 4q2 0 3.5 -0.5t1.5 -3.5t-0.5 -7t-2 -8t-2.5 -8t-1 -7q-2 -3 -5.5 -4.5t-7.5 -2.5t-8 -1h-6q-2 -2 -2 -4v-4t1 -5t2.5 -5.5t4 -4t5.5 -1.5h1q3 1 6 3l6 4t6 3t6 1q1 0 2.5 -2
t1.5 -3q0 -4 -3 -5.5t-7 -2.5t-7 -2.5t-3 -4.5t2 -6t2 -7q0 -5 -4.5 -8t-10 -4.5t-12 -2t-9.5 -0.5q-7 0 -13.5 1.5t-13.5 3.5v2v1q0 3 1 4t4 1q6 0 12 -1.5t13 -1.5h8.5t9.5 1q2 1 2 3.5v2.5q0 3 -0.5 4.5t-4.5 1.5q-5 0 -10 -1t-11 -1h-6.5t-10 1t-9.5 2.5t-4 4.5
q1 1 2 1.5t3 0.5q9 0 18 -1t18 -1h4.5t2.5 3q0 1 -0.5 2t-1.5 1q-1 1 -3.5 2t-4 2l-3 2t-2.5 1h-25q-3 0 -3.5 0.5t-0.5 2.5q0 1 0.5 2.5t1.5 1.5h22q1 0 3 2t2 4l0.5 0.5l0.5 0.5q0 3 -3 4.5t-7 2.5t-7.5 1.5t-5.5 1.5q-3 1 -5.5 4.5t-4 7.5t-2.5 8t-1 7v4.5t3 2.5
q4 0 5.5 -5t3.5 -10.5t5.5 -10.5t11.5 -5q4 0 5 2.5t1 7.5q0 2 -1.5 3.5t-4 3t-4.5 3.5t-2 4q-2 8 -3 15.5t-1 15.5q0 2 0.5 4t3.5 2h0.5h0.5q1 -2 1 -5v-7.5t0.5 -9t1 -8.5t2 -6.5t3.5 -2.5l1.5 1l1.5 1q1 0 1.5 0.5t0.5 1.5v40q0 1 -1.5 2.5t-3.5 1.5q-1 0 -3.5 0.5
t-6 0.5t-6 0.5t-3.5 0.5q-2 1 -3 2t-1 3q0 1 0.5 1.5l1.5 1.5h4h4q7 0 15 -1t16 -1h13q5 3 6.5 6t1.5 10v5q-1 1 -2.5 2t-2.5 1q-9 -6 -16.5 -8.5t-18.5 -2.5h-6t-7.5 1t-6.5 2.5t-3 3.5t2.5 3t3.5 1q6 0 11 -1t10 -1q2 0 5.5 0.5t4.5 0.5t2.5 0.5t3 1.5t3 2.5t1.5 2.5v1
q-1 1 -3.5 2t-5 1.5t-5 0.5h-3.5t-5 0.5t-9 0.5t-9 0.5t-5 0.5q-3 -1 -3.5 1t-0.5 3t0.5 2t1.5 2h3h4h3h3h7h5.5t5 -0.5t6.5 -1.5q3 0 6 -1.5t5 -1.5q3 0 4 1t3 4zM69 78q0 -3 0.5 -4t3.5 -1t5.5 1t2.5 4v1l-3.5 3.5l-3.5 3.5q-3 -2 -4 -3.5t-1 -4.5zM66 58q0 -5 3 -8h6
q4 0 7.5 1t3.5 7q0 5 -3.5 6t-7.5 1h-6q-2 -1 -2.5 -3t-0.5 -4zM71 39q0 -4 2.5 -6.5t6.5 -2.5q6 0 6 5q0 3 -1 6t-4 3h-3t-3.5 -0.5t-2.5 -1.5t-1 -3z" />
</svg>
