<?xml version="1.0" standalone="no"?>
<!DOCTYPE svg PUBLIC "-//W3C//DTD SVG 1.1//EN" "http://www.w3.org/Graphics/SVG/1.1/DTD/svg11.dtd" >
<svg xmlns="http://www.w3.org/2000/svg" xmlns:xlink="http://www.w3.org/1999/xlink" version="1.1" viewBox="-10 0 266 256">
   <path fill="currentColor"
d="M159 245q0 2 1 3.5t3 1.5q3 0 5 -1.5t3 -3.5t1.5 -5t0.5 -5q0 -10 -0.5 -20t-0.5 -20v-13q0 -3 2 -5.5t5 -2.5h25q1 0 3.5 -1t2.5 -2q0 -2 -1 -3.5t-3 -2.5t-4 -1.5t-4 -0.5q-5 0 -11 1.5t-12 1.5q-3 0 -4 -2.5t-1 -5.5q0 -2 0.5 -3.5t2.5 -3.5q8 0 13 -1t7.5 -4
t3.5 -7.5t1 -12.5v-12q-1 -2 -1.5 -2h-2.5t-3 0.5t-3 2.5v10.5t-1.5 9.5t-5 6t-9.5 2v-34l4 -4h26q3 0 3.5 -3t0.5 -5h-33l-0.5 -0.5l-1 -1t-1 -2.5l-0.5 -2v-1q0 -2 1 -4.5t3 -2.5h30q1 0 1 -1v-2q0 -5 -3.5 -5.5t-7.5 -0.5t-7 1t-7 1h-6q0 -1 -0.5 -1.5l-0.5 -0.5v0v-1v-1
q0 -1 0.5 -3l1 -4l1 -4l0.5 -2l2.5 -5t3.5 -3q6 0 11.5 1t11.5 1q2 0 4 -0.5t2 -2.5q0 -4 -2 -5t-5 -1q-4 0 -6.5 0.5t-6.5 0.5h-6l-0.5 -0.5l-0.5 -0.5v-1v-1q3 -7 5 -13.5t2 -13.5v-3q-2 -2 -3.5 -2h-3.5q-4 0 -6.5 4t-3.5 10.5t-2 13.5t-2 13t-2.5 10t-4.5 4
q-2 0 -3.5 -2t-2 -5.5t-1 -6.5t-0.5 -4.5t-1 -5.5t-1.5 -8l-1 -8t-1.5 -6q0 -2 -1.5 -3.5t-3.5 -1.5q-5 0 -5 7q0 2 1 5t2 5.5l2 5t1 5.5v3q0 1 -2 1l-23 4v0.5v1.5q0 2 1.5 3.5t3.5 1.5q5 0 9 -1.5t8 -1.5h4q1 1 1.5 2l0.5 1q0 1 1 3t1.5 3.5l0.5 1.5q0 1 -1 5t-2 6
q-6 1 -13 1h-12q0 2 1 5t4 3h29l1 0.5l1 0.5l0.5 2.5t0.5 3.5v1t-1.5 2l-3 2t-3.5 1h-3q-1 1 -5 1t-9 0.5t-9 1t-6 0.5l-0.5 0.5t-0.5 1.5q0 2 1 3t2.5 1.5t3.5 0.5h3q7 0 13.5 -1.5t12.5 -1.5q2 0 3.5 1t1.5 3v30q0 1 -1 3t-3 2h-1q-1 -1 -3.5 -1.5t-3 -0.5t-1.5 -0.5
l-1 -0.5v-20q0 -1 -1 -1.5t-2 -0.5h-2h-1q-4 0 -4.5 2.5t-0.5 5.5q0 9 2 13.5t5 6.5t6 2.5l6 1t4.5 1.5t1.5 4v3v3t-0.5 3t-2.5 1l-34 4v1v1v2t2 2h8q6 0 11 -1t10 -1q1 0 2 0.5l3 1.5v15q0 14 -1 27.5t-1 26.5zM73 237q0 4 0.5 5t4.5 1t6.5 -6t4 -15t2 -20.5t1 -22t1 -19
t2.5 -12.5l1.5 -1.5t3 -2.5t3 -1.5t2.5 -0.5t1.5 1.5t0.5 2.5v12v12q0 2 -0.5 7t-0.5 11t-0.5 11t-0.5 7q0 1 -0.5 3.5l-0.5 2.5q0 1 1 2t2 1h1q2 0 5 -2.5t3 -4.5v-75q0 -1 -1 -1.5t-2.5 -1t-2.5 -1t-2 -0.5l-1 0.5t-2 0.5q-1 1 -3.5 4t-3.5 4h-5q0 -7 -1 -15.5t-5 -15.5
l-0.5 -1t-1.5 -2l-2 -2l-1 -1v-0.5v-1.5q0 -3 1.5 -6.5t4 -6.5t6 -5t5.5 -3q1 0 3 0.5t4 0.5q3 0 4.5 -1t1.5 -3q0 -1 -0.5 -2.5t-1.5 -1.5h-17v-4t0.5 -5.5t1 -4.5t1.5 -2h14q1 0 1.5 -1.5t0.5 -2.5l-0.5 -2t-1.5 -2h-13l-0.5 -2t-0.5 -3q2 -6 4.5 -7.5t5.5 -1.5t6 -0.5
t4 -3.5t-1 -4t-4.5 -2t-5 -1h-2.5q-5 0 -13.5 0.5t-16.5 3t-14 7t-6 12.5v40q0 4 3 7.5t6 5.5v5l-16 18v5h6l20 -17l0.5 -0.5t1.5 -0.5q3 0 3.5 3t0.5 5v2.5t-2 2.5l-27 26q-3 2 -3.5 3.5t-0.5 3.5q0 3 0.5 4t3.5 1v0h1l3.5 -3.5l5 -5l5 -5l3.5 -3.5t2.5 -3.5l3 -5t3.5 -4.5
t4 -2t3 1.5t1 4v4.5v4v3.5t-2 3.5l-10 10t-12 12.5t-10 13.5t-4 14q0 2 1 3.5t3 1.5l0.5 -0.5t1.5 -0.5q2 -4 6 -10t8 -12.5t8.5 -11t7.5 -4.5v10.5t0.5 8.5t0 8t-1.5 9q-2 9 -5 18.5t-3 18.5zM64 86q0 -1 1 -3.5t2 -2.5h12q1 0 1.5 0.5t0.5 1.5v0q0 3 -2 6.5t-6 3.5
q-2 0 -5.5 -1.5t-3.5 -4.5zM62 69l0.5 -3.5t1.5 -5.5l0.5 -0.5t1.5 -0.5l2 -0.5t4.5 -0.5t4.5 -0.5l2 -0.5h1q3 0 4.5 2.5t1.5 5.5l-1 1.5t-1 2.5q-1 1 -1.5 2l-0.5 1h-16zM64 47q0 -3 2 -5.5t4.5 -5t6 -3.5t5.5 0q4 1 4.5 3t0.5 5q0 6 -3 7.5t-9 1.5h-2.5h-3.5t-3.5 -1
t-1.5 -2z" />
</svg>
