<?xml version="1.0" standalone="no"?>
<!DOCTYPE svg PUBLIC "-//W3C//DTD SVG 1.1//EN" "http://www.w3.org/Graphics/SVG/1.1/DTD/svg11.dtd" >
<svg xmlns="http://www.w3.org/2000/svg" xmlns:xlink="http://www.w3.org/1999/xlink" version="1.1" viewBox="-10 0 266 256">
   <path fill="currentColor"
d="M157 245q0 2 1 3t3 1.5t3.5 0.5h2.5t3.5 -2t2.5 -3v-50q0 -1 -0.5 -4t-0.5 -5v-1v-2t1 -1q7 -1 15.5 -1.5t15.5 -1.5q1 -1 1 -2v-1q0 -2 -0.5 -3t-3.5 -1h-26l-1 -0.5t-1 -1.5t-0.5 -4t-0.5 -4q0 -3 0.5 -6.5t3.5 -4.5h3h4h4h3h1q2 0 4 -0.5t3.5 -1.5t1.5 -2v-1
q-1 -1 -1.5 -2l-0.5 -1h-18q-2 0 -2 -1.5v-2.5q0 -2 1.5 -5.5l3 -7t3 -6.5l2.5 -5q1 0 2 -1l1 -1h1h1q2 1 3.5 2l3 2t3.5 2t4 1t4 -1.5t2 -3.5q0 -4 -6.5 -7t-14 -6.5t-13.5 -7t-6 -8.5q0 -4 1.5 -5t4.5 -1q4 0 7.5 2t7 3.5t6.5 3t7 1.5q2 0 4 -0.5t2 -3.5q0 -2 -2 -4t-4 -3
t-4.5 -2t-4.5 -1q-1 -1 -4 -1.5l-6 -1t-6 -1.5t-4 -1q-4 -2 -4.5 -4t-0.5 -5t0.5 -6t4.5 -3l26 -5q5 -1 5.5 -5.5t0.5 -7.5q0 -7 -4 -10.5t-9.5 -5t-12 -1.5h-12.5h-4t-4.5 0.5t-4.5 0.5h-2l-16 4q-2 1 -3 3t-1.5 4.5l-1 5t-0.5 3.5q0 5 2.5 7.5t5.5 3.5t6.5 2l7 2t5.5 3.5
t2 7.5t-4.5 8t-10.5 4.5t-12.5 3t-10.5 3.5q-1 0 -2 1.5t-2 1.5v1q0 2 2 2h3q5 0 8.5 -1.5l7 -3t7.5 -3.5t8 -2q3 0 4.5 2.5t1.5 5.5t-2.5 5t-5.5 3.5l-6 3l-5 2.5q-1 0 -5.5 2.5t-9.5 5t-9.5 5t-6.5 3.5q-1 3 -3 3h-4h-4.5t-3.5 -3q2 -7 -1.5 -13.5t-9.5 -9.5v-1
q0 -1 2 -5.5t5 -9.5t5.5 -9t3.5 -4t3 -0.5t4 -0.5t4 -0.5t3 -0.5l0.5 -0.5l0.5 -0.5q0 -1 -0.5 -3l-0.5 -2h-14l-1 -2q-1 0 0 -3t1 -5q1 -3 3.5 -4t5.5 -1h4t2 -3v-2.5t-1 -1.5h-12q-1 0 -1.5 -1t-0.5 -2q0 -6 3.5 -8.5t7 -3.5t6.5 -1t3 -3q0 -2 -1.5 -3.5t-3.5 -1.5h-2
t-4 0.5l-4 1t-3 0.5q-6 1 -13 0.5t-13 2.5q-5 2 -8.5 8.5t-5 13.5t-2.5 14t-1 11q0 5 1.5 9.5t3 8t3 6t1.5 5.5q0 4 -5 7t-10.5 5t-10 4.5t-4.5 7.5q0 3 1 3.5t4 0.5q4 0 8 -2.5t7.5 -6t7 -6.5t7.5 -3h2.5h1.5q2 3 2 4.5v3.5q0 4 -5.5 9t-12.5 10t-12.5 9t-5.5 7t3 3
q8 0 13 -4.5t9.5 -10.5t9 -11t11.5 -5v18q0 2 -2 4t-5 4t-5.5 3.5t-3.5 3.5q-2 2 -6.5 9.5t-9.5 15.5t-9.5 15t-4.5 10q-1 3 1 3.5t4 0.5q5 0 9 -4.5t6.5 -10.5t4.5 -13t4.5 -13t6.5 -10t9 -4q0 12 0.5 24.5t-1.5 25.5l-0.5 1l-1 2l-1 2l-0.5 1q0 1 -1 4.5t-1.5 7.5t-1.5 7
t-1 4l-0.5 1l-1 2l-1 2t-0.5 2l-0.5 3.5t-0.5 4.5h12l0.5 -1.5t1.5 -2.5q5 -19 6 -38.5t2 -39.5v-5v-9v-8v-6q1 0 2 -0.5l1 -0.5h1q4 0 5.5 3.5t2.5 6.5v3t0.5 4.5t0.5 4.5v2v10t0.5 15.5t0.5 15.5v10q3 0 5.5 -0.5t3.5 -2.5v-4v-6v-5.5v-3.5q0 -14 -1.5 -27t-1.5 -27v-9
q2 -1 5 -3l6 -4t6 -3.5t6 -1.5q2 0 4.5 4t5 9t3.5 10t1 7v2l-0.5 2l-0.5 2h-24v1.5t0.5 3t1.5 2t2 0.5q5 -1 9.5 -1.5t8.5 -0.5q3 0 5 2t2.5 4.5t1 5.5t0.5 6v0l-1 0.5t-1 1.5q-1 0 -2.5 1l-1.5 1h-21q-2 0 -2.5 1.5t-0.5 3.5t1.5 2.5t4.5 0.5h1h1q1 0 3 -0.5t4.5 -0.5
t4.5 -0.5t3 -0.5h1q2 0 3 2t1 3v3q0 1 -1 3l-1 2q0 1 0.5 2.5t0.5 4t0.5 4.5l0.5 2v5q0 9 -2 17.5t-3 16.5zM162 133q-3 -8 -4 -12.5t-1 -11.5q0 -4 3 -7.5t8 -3.5h4t3.5 0.5t3 1.5t1.5 3q0 3 -1.5 8.5l-3 11t-4 9.5t-4.5 4q-3 0 -5 -3zM75 71q2 -3 4 -3.5t5 -0.5q4 0 5 1
t1 4q0 4 -3 8t-6 4q-2 0 -3 -2t-2 -4.5t-1 -4.5v-2zM75 55q0 -6 3.5 -8t8.5 -2h6q1 2 1.5 4t0.5 4q0 4 -2.5 6t-6.5 2h-3t-4 -1t-3 -2t-1 -3zM145 36q0 -2 1 -4.5t4 -2.5q2 0 3 1.5t2 4t1.5 5t0.5 4.5q0 4 -3 4q-4 0 -6.5 -4t-2.5 -8zM160 32q0 -2 1.5 -4.5t3.5 -2.5
q3 0 5 2t3.5 5t2.5 6.5t1 5.5q0 3 -1.5 3.5t-3.5 0.5q-3 0 -5.5 -1.5t-3.5 -4t-2 -5.5t-1 -5zM182 32q0 -2 0.5 -4.5t3.5 -2.5q5 0 7.5 3t2.5 7q0 3 -0.5 5.5t-4.5 2.5t-6.5 -3.5t-2.5 -7.5zM80 35v-1v-1l8 -8h1h1q6 0 6 8v0l-1 2.5t-2 2.5h-12q-1 0 -1 -1.5v-1.5z" />
</svg>
