<?xml version="1.0" standalone="no"?>
<!DOCTYPE svg PUBLIC "-//W3C//DTD SVG 1.1//EN" "http://www.w3.org/Graphics/SVG/1.1/DTD/svg11.dtd" >
<svg xmlns="http://www.w3.org/2000/svg" xmlns:xlink="http://www.w3.org/1999/xlink" version="1.1" viewBox="-10 0 266 256">
   <path fill="currentColor"
d="M163 196v52q0 2 1.5 2.5t2.5 0.5q3 0 4.5 -2.5t1.5 -4.5v-4.5t-1 -3.5v-40h24q3 0 5 -5t3 -11t1.5 -11.5t0.5 -6.5q0 -4 -2 -7t-7 -3v14t-1 14q-4 4 -7.5 6t-8 2.5t-9.5 0.5h-9h-8q-3 0 -5.5 -1t-4.5 -3t-3 -6v-4t-0.5 -6t-0.5 -5.5v-3.5l-0.5 -0.5t-1.5 -0.5l-2.5 -0.5
t-3.5 -0.5v3v2q1 2 1 5.5t0.5 7l1 7t0.5 4.5q2 4 5.5 5.5t7.5 2.5t7.5 1h7.5zM84 240q0 3 3 3t4.5 -1.5t2.5 -3.5t1.5 -4.5t0.5 -4.5v-1l-0.5 -2l-0.5 -2q0 -1 0.5 -3l1 -4l1 -4t0.5 -3t0.5 -3t0.5 -4v-4v-3q0 -2 0.5 -9t0.5 -15q0 -7 -0.5 -14t-0.5 -10q2 -2 3 -4t3 -2
t3 1.5t2 3.5q0 1 0.5 3t0.5 4v4v2q0 3 0.5 10.5t0.5 15.5v16v10q4 0 6 -3t2.5 -7t0.5 -8v-7q0 -5 -0.5 -11.5t-3.5 -12.5v-28l-3 -3h-12l-3 -3l-3 -27l-4.5 -4.5t-1.5 -5.5q0 -1 0.5 -3.5t1.5 -5t1.5 -4.5t1.5 -3q1 -3 4 -3.5t6 -0.5h6t3 -3q1 -3 -1 -4t-5 -2t-5.5 -1.5
t-3.5 -0.5q-1 -1 -1 -2.5v-2.5v-3t1 -2q2 0 6 -0.5t5 -1.5q1 0 2.5 -1t1.5 -3v0q0 -1 -0.5 -2l-0.5 -1h-14l-0.5 -1.5t-0.5 -2.5v-1.5v-2.5v-2v-2.5t1 -2.5t2 -1h15l1 -1.5t0 -2.5q0 -1 -1.5 -2.5t-3.5 -2l-4 -1t-3 -0.5q-4 0 -8.5 0.5t-8.5 1.5t-7.5 1.5t-6.5 1.5
q-5 3 -7 6.5t-3 7.5t-1.5 8.5t-2.5 8.5v26q0 2 2.5 4.5t6 5t6 4.5t2.5 3v1q-2 2 -6.5 5.5t-9.5 7t-8.5 7t-2.5 5.5q0 1 1 2t2 1q2 1 6 -2.5t9 -8t9 -8.5t6 -5q1 0 2.5 1t2.5 3t1.5 3.5t0.5 2.5q0 4 -2.5 6.5l-5.5 5.5t-6 5.5t-4 5.5l-2.5 2.5t-4 3t-4.5 3t-2 2.5
q-1 0 -2.5 2t-2.5 2v1v0v1l2 2l1 1q1 0 2.5 -0.5t2.5 -1.5l2 -1t4 -3t4 -3.5t3 -2.5q2 -1 3.5 -4t3.5 -6t4 -5t4 -2q1 0 1.5 1l0.5 1v20q-3 2 -5 4.5t-4 5.5t-3.5 5.5t-4.5 4.5q-1 1 -3 3.5t-3 2.5q-1 2 -3.5 5.5t-5 7.5t-4.5 7.5t-2 5.5t1 3.5t3 1.5t4.5 -3t5.5 -8l6 -10
l6 -10t6 -8.5t6 -4.5v16v18t-2 17q-1 7 -3.5 15t-2.5 15zM149 169q0 7 4 10t11 3q1 0 3.5 -0.5t5.5 -0.5t5.5 -0.5t3.5 -0.5q4 -3 5 -6t1 -8q0 -3 -1.5 -5.5t-4.5 -3.5t-6 -1h-6h-8.5t-6.5 1.5t-4.5 4t-1.5 7.5zM156 172q-1 0 -1 -1v-2q0 -3 2 -4.5t5 -2t6.5 -0.5h4.5
q3 0 5.5 2t2.5 5q0 1 -1.5 2t-3 1.5l-3 1t-2.5 0.5h-1.5h-1.5h-2t-3.5 -0.5t-3.5 -0.5t-3 -1zM135 128v6.5t1 6t3.5 4.5t6.5 2h39q6 0 9.5 -2t5 -5.5t2.5 -8t1 -9.5q0 -2 -1 -3.5t-2.5 -3.5t-3.5 -3t-3 -1h-40q-1 0 -4 0.5t-5.5 1.5t-5 2.5t-3.5 2.5v5.5v4.5zM143 136v-1
q11 -3 22.5 -4t22.5 -1q1 0 3 1.5t2 2.5q0 3 -4.5 4.5t-10.5 2t-11.5 0.5h-7.5h-12q-1 -1 -2.5 -2t-1.5 -3zM169 117h3h3.5h3.5h1q3 0 6 0.5l3 0.5v5l-3 0.5t-6 0.5q-1 1 -3 1t-4 0.5t-4 0.5h-2h-4.5h-7.5h-8h-5q0 -4 3.5 -6t8 -2.5t8.5 -0.5h7zM164 16h-1q-2 1 -4 2.5
t-2 2.5v28q0 1 -3.5 1.5t-8 1.5t-8 2.5t-3.5 3.5v33q0 3 2 5t5 3l6 2t5 1h2h4.5h5.5h4h10.5t12.5 -1.5t10.5 -4.5t4.5 -11l-0.5 -1t-0.5 -2l0.5 -0.5l0.5 -0.5v-5.5v-4.5v-9t-1.5 -6t-4.5 -3.5t-9 -1.5q-2 0 -5.5 -0.5t-7.5 -0.5t-7.5 -0.5t-5.5 -0.5l-0.5 -2l-0.5 -2
q0 -5 4.5 -5.5t10 -0.5t10 -0.5t4.5 -5.5v0v0l-2 -2t-2 -1h-19l-0.5 -3t-1.5 -5q0 -2 -1 -4t-3 -2zM146 94q0 -2 2.5 -4.5t6 -5t7 -4t5.5 -1.5h1q4 2 9 5t8 7v1q0 3 -2.5 3.5t-4.5 0.5t-3.5 -1.5t-2 -3.5t-1.5 -3t-3 -1q-1 0 -2 1t-1.5 2.5t-1 2.5l-0.5 1l-1.5 1.5l-0.5 0.5
h-14l-0.5 -0.5t-0.5 -1.5v0zM151 75q0 -2 -1.5 -2.5l-3 -1t-3.5 -0.5h-2q0 -3 0.5 -5t3.5 -2q2 0 4 1l4 2t3.5 3t1.5 3v3l-1 1t-2.5 3t-3 3t-2.5 2q-2 2 -4 2h-4q0 -5 1.5 -6.5t3 -2t3.5 -1t2 -2.5zM189 82v-1q1 -1 2 -2.5t2 -2.5v0v-1q0 -2 -2 -2h-3q-2 0 -3 1t-1 2t-1 2
t-2 1q-3 0 -4 -1.5t-1 -3.5t1.5 -4.5t3.5 -4.5t4.5 -3t5.5 -1q2 0 4 1t2 4v16q0 2 -1.5 3.5t-2.5 1.5q-3 0 -3.5 -1.5t-0.5 -3.5zM72 77q0 -4 3 -4.5t6 -0.5q2 0 4.5 1t1.5 3q0 2 -2 5.5t-5 3.5q-4 0 -6 -2.5t-2 -5.5zM152 60q0 -3 2 -3.5t4 -0.5t3 1.5t1 3t0.5 2.5t2.5 1
q3 0 4 -1.5t1.5 -3t2 -3t4.5 -1.5v6l-1 1.5t-2 2.5t-3 2.5t-3 2.5l-1 1t-2 1q0 -1 -2.5 -2.5l-5 -3t-4 -3.5t-1.5 -3zM68 61q0 -4 1.5 -6t4.5 -3t6 -1h5q3 0 4 0.5t1 2.5q0 7 -3.5 9.5t-9.5 2.5q-3 0 -6 -1t-3 -4zM86 28q4 0 4 5v2.5t-0.5 3.5t-1.5 3t-2 1h-14q0 -8 3 -11.5
t11 -3.5z" />
</svg>
