<?xml version="1.0" standalone="no"?>
<!DOCTYPE svg PUBLIC "-//W3C//DTD SVG 1.1//EN" "http://www.w3.org/Graphics/SVG/1.1/DTD/svg11.dtd" >
<svg xmlns="http://www.w3.org/2000/svg" xmlns:xlink="http://www.w3.org/1999/xlink" version="1.1" viewBox="-10 0 266 256">
   <path fill="currentColor"
d="M179 216q0 3 0.5 9t2.5 12t5 10t7 4q3 0 5 -1.5t2 -3.5q0 -1 -2 -4t-4.5 -6.5t-4.5 -8.5t-2 -10t1.5 -9.5t4 -8.5t5.5 -8t6 -9q3 -3 4.5 -8t3 -10.5t2 -10.5t0.5 -9q0 -8 -1.5 -14.5t-4.5 -11t-8.5 -7t-15.5 -2.5q-2 0 -3.5 1t-2.5 2.5t-2.5 2.5t-3.5 1q-3 0 -4 -2
t-1.5 -4t0 -4.5t0.5 -4.5q-2 0 -3.5 2t-1.5 4l-5 29q0 1 -0.5 1.5t-1.5 0.5v0v0h-1v0q0 -1 -1 -2.5t-1 -2.5v-4.5t-0.5 -7t-0.5 -7v-4.5q0 -2 -1 -3t-2 -1q-2 0 -2.5 1.5t-1 3.5t0 3.5t0.5 2.5l-3 1.5t-3 0.5l-1 -0.5l-1 -0.5l-11 -10h-1h-2q-3 0 -5.5 1t-4.5 3
q-5 16 -7.5 33t-2.5 33q4 0 5 -3.5t1.5 -8t1 -8.5t2.5 -4q4 0 7 3t3 6q0 1 -2 5t-4.5 8l-5 8t-3.5 6q-2 4 -2.5 8.5t-1 9.5t0 10t0.5 9q0 5 0.5 8.5t4.5 7.5q0 1 1 1h2q2 0 3 -1t1 -3q0 -6 -2 -12.5t-2 -12.5q0 -9 2 -17.5t5.5 -16.5t7.5 -15.5t7 -15.5q1 -2 3 -2h3h5
q1 0 2 0.5t1 1.5v13q0 2 -2 2.5t-4.5 0.5t-5 1t-2.5 3t2 2h4.5h3.5q2 0 3 1v7q0 6 -0.5 13t-1.5 14t-1.5 13.5t-1.5 12.5l-1 2.5t0 3.5l1 1l2 2v0q3 0 4.5 -4.5t2 -11.5t1 -15t0.5 -15.5v-13t1 -7.5q0 -2 2 -3t5 -1t5 -0.5t3 -2.5q-2 -4 -4.5 -4h-4.5t-3.5 -1.5t-1.5 -7.5
v-3v-2q1 -2 3.5 -2.5t4.5 -0.5t4 -0.5t2 -2.5t-1 -2.5t-2.5 -1t-3 -1.5t-1.5 -3q0 -6 2.5 -9.5t6.5 -5t9 -2t9 -0.5q0 3 0.5 5.5t0.5 4.5t-0.5 4t-1.5 5h-0.5h-0.5q-2 0 -3 -1.5t-1.5 -3t-1.5 -3t-3 -1.5v0q-1 0 -1.5 0.5l-0.5 0.5v1q0 3 1 5t2 3t2.5 3t2.5 5q0 1 -0.5 3
t-0.5 3h-4t-1.5 -0.5l-1 -1t-1.5 -0.5h-2t-1 2q2 4 4 9t3 10q0 1 -1.5 4l-3 6t-2.5 5.5t-2 3.5q0 1 -2 2.5t-2 2.5q-1 0 -1.5 2.5t-0.5 3.5q5 0 8 -2.5t5 -6.5t3.5 -8.5t3.5 -8.5t6 -6.5t10 -2.5q0 6 -3.5 12l-7 12l-7 12t-3.5 13zM76 170q0 15 -2.5 27.5t-4.5 26.5
q0 3 -1 5l-2 4t-2.5 4.5t-1.5 4.5q5 0 8 -1.5t5 -4.5t2.5 -6.5t1.5 -6.5q1 -18 1.5 -36t2.5 -36q0 -1 1.5 -2.5t3.5 -1.5q1 0 2.5 0.5t1.5 2.5v32q-2 7 -2.5 13.5t-0.5 13.5v3t3 2v0v0l2 -2l1 -1q2 -10 3.5 -20.5t1.5 -19.5v-2v-5.5t-0.5 -9t-0.5 -8.5v-5q-1 -3 -3.5 -3
h-4.5q-3 0 -5 -0.5t-3 -4.5v-2.5t-0.5 -5.5t-0.5 -5v-3l-0.5 -1.5l-1 -3t-1 -2.5t-0.5 -2l-0.5 -0.5l-0.5 -0.5h1q2 -4 3.5 -6.5t2.5 -5t1.5 -5.5t1.5 -7q3 -2 7 -2h8q1 0 1 -1v-2q0 -3 -1.5 -3.5t-4.5 -0.5h-4t-2 -2v-11l3 -4h13v-1.5v-2.5q-1 0 -2 -1.5t-2 -1.5h-10
q-1 0 -1.5 -1.5t-0.5 -3v-2.5v-3v-2t2 -3h2.5t4.5 -0.5t4 -0.5h3q2 -1 2.5 -1.5t0.5 -2.5t-1 -3t-4 -1q-2 0 -7 0.5t-11 1t-11 2t-8 2.5q-3 3 -5.5 10.5t-4 15.5t-2 15.5t-0.5 11.5q0 2 2 6t4 8.5t3.5 8l1.5 3.5l-24 24l-0.5 0.5t-0.5 1.5t0.5 2.5t2.5 1.5h1q0 -1 2.5 -2.5
t2.5 -2.5q2 0 4 -2.5t5 -5t5 -5t3 -3.5h1q3 0 4.5 1.5t1.5 4.5q0 4 -2 4.5t-5 2.5l-3.5 3.5t-6 5t-6.5 5t-5 3.5l-1 1v2q0 3 3 3q4 0 7 -3t5.5 -7t5.5 -7t7 -3q2 0 2 2v3q0 2 -1.5 4.5t-4 4.5t-4.5 4.5t-4 4.5q-6 9 -10 20.5t-3 22.5q-1 0 -1.5 0.5l-0.5 0.5q0 1 -0.5 5
t-0.5 5q4 0 6 -1t3 -4q0 -2 1 -6l2 -8t1.5 -8t1.5 -5q0 -1 0.5 -3t2 -5t2.5 -5.5t1 -4.5l1.5 -3t2.5 -1h2t2 1v10zM190 154q0 -2 0.5 -4t2.5 -3t5.5 -2l3.5 -1l2 1v11q0 1 -1.5 2t-3.5 1.5t-3.5 0.5h-2.5q-3 0 -3 -2v-4zM115 144q0 -2 1 -3.5t3 -1.5q3 0 7 2.5t4 5.5
t-1.5 4.5t-3.5 1.5q-1 0 -2.5 -1t-3 -2.5l-3 -3t-1.5 -2.5zM140 132v-4v-4q2 -1 4 -1h2t1 1t0.5 2.5t0.5 3.5t0.5 4l0.5 2v3q0 2 -1 2.5t-4 0.5q-4 0 -4 -3v-7zM199 123h2l4 9q1 1 0 2.5t-3 2.5t-4 1.5t-3 0.5q0 -1 0.5 -3t0.5 -4v-3.5v-2.5q0 -3 3 -3zM118 128
q0 -3 0.5 -6.5t4.5 -3.5q3 0 5 2t3 5t1 6v6q-2 0 -4.5 -0.5t-4.5 -2t-3.5 -3t-1.5 -3.5zM68 84q0 -1 2 -1h2q2 0 5 0.5t3 3.5l-0.5 1.5t-1 3.5t-1.5 3t-2 1q-2 0 -3.5 -1t-2 -3l-1 -4t-0.5 -4zM124 80q0 2 0.5 5t2 5.5t3.5 4t5 1.5h5h4.5t8 -0.5t8.5 -0.5h5h8.5t11 -0.5
t9.5 -3.5t4 -8t-3 -10t-9 -5h-51q-5 0 -8.5 3.5t-3.5 8.5zM132 82q0 -4 2.5 -6t6 -2.5t7.5 -1t7 -0.5h7.5t11 0.5t10 2.5t4.5 6q0 3 -2 4.5t-4.5 2t-5.5 1t-4 0.5h-3h-4.5h-6.5h-4h-3h-5.5h-5.5h-4q-3 -1 -3.5 -2.5t-0.5 -4.5zM68 59h15q1 0 1.5 3t0.5 4q0 3 -2.5 7t-5.5 4
h-2.5t-3 -0.5t-2.5 -1t-1 -1.5v-15zM129 55q1 1 3 2.5t3 1.5h62q2 0 2 -1v-2t-1.5 -4t-3 -5.5t-3.5 -5t-3 -3.5t-4.5 -2t-7 -2.5t-6 -4t-2.5 -5.5v-1l0.5 -1t0.5 -2t0.5 -2.5l0.5 -1.5v-2q0 -2 -1.5 -2.5t-2.5 -0.5t-2 0.5l-1 0.5q-2 4 -2.5 9t-1.5 10l-3.5 3.5t-6 4.5
t-6.5 3.5t-6 1.5h-1l-0.5 -1t-0.5 -2l-0.5 -2t-0.5 -4t-0.5 -3.5t-0.5 -2.5l-1 -0.5t-2 -0.5q-2 1 -3 4t-1 5q0 4 1.5 9t1.5 9zM72 48q0 -4 2 -7t6 -3q2 0 3.5 2t1.5 4q0 4 -2 6.5t-7 2.5q-2 0 -3 -1.5t-1 -3.5zM140 51v-1q6 -2 11.5 -6t11.5 -7l1.5 -0.5l1.5 -0.5
q4 0 8.5 3.5t7.5 6.5q1 1 3 3.5l2 2.5l-2 1h-44l-0.5 -0.5l-0.5 -0.5v-1v0z" />
</svg>
