<?xml version="1.0" standalone="no"?>
<!DOCTYPE svg PUBLIC "-//W3C//DTD SVG 1.1//EN" "http://www.w3.org/Graphics/SVG/1.1/DTD/svg11.dtd" >
<svg xmlns="http://www.w3.org/2000/svg" xmlns:xlink="http://www.w3.org/1999/xlink" version="1.1" viewBox="-10 0 266 256">
   <path fill="currentColor"
d="M124 245l2 4t3 2q3 0 4 -2t1 -4q0 -23 1 -49t6 -49q0 -1 1 -3t2.5 -4.5t2.5 -4.5t2 -3q0 -1 0.5 -1.5t1.5 -0.5q5 -2 13.5 -3t16 -3t13 -6t6.5 -12v-23l0.5 -2t0.5 -3v0q0 -4 -2 -6.5t-6 -2.5h-23q-1 0 -1.5 -1t-0.5 -2q0 -5 3.5 -6.5t7.5 -2t7.5 -1t3.5 -3.5
q0 -2 -2.5 -3t-3.5 -1q-3 0 -9.5 1t-14 2t-13 2.5t-5.5 2.5q0 2 2 2.5t5 1t5.5 0.5t4.5 2v6.5t0.5 9t0.5 9v6.5v1q0 1 -1 1.5t-3 0.5t-4 -1t-3 -2v-3.5v-4.5v-4.5v-3.5q0 -2 -1 -5t-4 -3h-1t-1 1q-1 3 -1 6v7v4v6.5t1 6t3 3.5h10h13.5t13.5 -1q2 0 4 1.5t2 4.5t-6.5 5
t-14.5 4t-16 4.5t-10 6.5q-5 7 -8 15.5t-5 16.5q-1 2 -1.5 8.5t-1 14t-1 14t-0.5 9.5v2.5v5.5v6v4v4.5v5.5v6v4zM157 245q0 1 2 1h2q3 0 4 -1.5t2 -3.5t1 -4.5v-3.5q0 -2 0.5 -6t0.5 -9t-0.5 -9t-0.5 -5q2 -3 5 -3.5t5 -0.5h1.5h2t2.5 0.5t1 1.5t1 5t1.5 8.5t1 8.5t1.5 5
q0 2 0.5 4.5t1.5 5t2.5 4.5t3.5 2t3 -0.5t2 -2.5q-1 -2 -1.5 -7.5t-2 -11t-2 -10.5t-1.5 -6v-2.5v-2.5q0 -3 1.5 -5l3 -4l3 -4t1.5 -5v-18v-14q0 -5 -2 -9t-7 -6t-14 -2q-12 0 -18 2.5t-8.5 8t-3 13t-0.5 16.5v15q1 4 2 6t2 4.5l2 5t1 7.5q0 7 -1 13t-1 13v6zM82 243l1 1
t2 1h1q1 0 3 -1t2 -2q1 -1 1 -3v-3q0 -6 -1 -11t-1 -11q0 -9 2.5 -15.5t6 -12.5t6.5 -12.5t3 -15.5q0 -6 -0.5 -15t-3 -17.5t-7 -15t-11.5 -6.5q-9 0 -14.5 5t-8 12t-3 14.5t-0.5 14.5v16t2 16l0.5 2t1.5 3.5t2 3.5t3 2l1 -0.5t2 -1.5v-2.5v-2.5q0 -5 -1.5 -9t-1.5 -9
q0 -1 1 -3.5t3 -2.5h1l11 11h1q2 0 2 -1.5v-3.5q0 -3 -3 -7t-6.5 -7.5l-6.5 -6.5t-3 -5v-1.5t0.5 -3l1 -3t2.5 -1.5l4.5 3.5t10 7.5t9.5 7.5t4 4.5q0 8 -3 13.5t-6.5 11l-7 11t-4.5 12.5v12v13.5t2 13.5zM162 187q0 -2 2 -4t4 -2h25l0.5 1t1.5 2v0v0q0 4 -2.5 5.5t-5.5 2.5
t-7 1h-5h-10q-1 -1 -2 -3t-1 -3zM160 167q1 -3 4 -4t7 -1h7.5h4.5h12q1 2 1 3v3v2t-1 1q-4 1 -7 1.5t-5.5 0.5h-5.5h-6h-3.5h-3.5q-2 -1 -3 -3t-1 -3zM70 159q1 0 1 2q0 1 -1 1t-1 -1q0 -2 1 -2zM162 151q0 -1 1.5 -4t3.5 -3h24q2 0 2 2.5v2.5v3q0 1 -2 1q-6 1 -11 1.5
t-10 0.5q-2 0 -5 -0.5t-3 -3.5zM74 121l-0.5 -1l-0.5 -1q0 -2 1.5 -3.5t3.5 -2t4 -0.5h4h3t2 2q2 4 5 11.5t3 13.5q-4 0 -7.5 -2t-6.5 -5t-6 -6.5t-5 -5.5zM44 119q0 1 0.5 1.5t1.5 0.5v0q3 0 4.5 -3.5t2.5 -7.5t1.5 -8.5t1.5 -6.5q2 -4 6.5 -5.5t10.5 -2.5t11 -1h9
q5 0 8 2.5t4.5 6.5t2 8t0.5 8t1 6.5t3 2.5q3 0 4.5 -3.5t1.5 -5.5v-2q0 -1 -0.5 -2t-0.5 -2.5t-0.5 -3l-0.5 -1.5q-2 -9 -4 -13.5t-5 -6.5t-8 -2.5t-14 -0.5v-22q0 -1 1.5 -2.5t3.5 -2l4 -1t3 -0.5t1.5 0.5t1.5 0.5v3t0.5 5t1.5 5t4 2q2 0 3.5 -2t1.5 -4.5v-5.5v-3v-7.5
t-1 -9t-3 -8t-6 -3.5h-2h-4.5h-4.5h-2q-12 0 -19.5 2t-11 6.5t-4.5 12.5t-1 19q0 2 0.5 3.5t3.5 2.5q3 0 4 -4.5t2 -11t3 -12.5t5 -7q4 -2 9 -2h9h10q2 2 2 4v4v4q-2 0 -5.5 0.5t-7.5 1t-7 1.5t-5 4q-1 3 -0.5 8t0.5 9t-1.5 7.5t-6.5 5.5h-1t-2.5 0.5t-2 1t-1.5 0.5
q-5 2 -8.5 5t-5 7.5t-2 9.5t-0.5 10v5zM170 84q0 -2 1.5 -3.5t3.5 -2t4 -0.5h5h2q1 0 2.5 0.5t2 1t0.5 2.5l-1 12l-1 0.5t-2.5 0.5h-2.5h-1q-7 0 -10 -1.5t-3 -9.5zM162 30q0 4 -5.5 5t-12.5 1.5t-12.5 2.5t-5.5 7v38q3 0 4.5 -0.5t1.5 -3.5l4 -30q0 -2 3 -3.5t7 -2.5
t9 -1.5t10 -0.5h9h5h14q3 1 4.5 6.5t2.5 11.5t2.5 10.5t4.5 4.5q2 0 3 -1.5t1 -3.5v-4v-2q0 -13 -2.5 -19.5t-6 -9t-8.5 -3t-8.5 0t-6.5 -0.5t-4 -4v-3t-0.5 -4.5t-0.5 -4.5v-3h-4q0 -2 -0.5 -2.5t-2.5 -0.5q-4 0 -5.5 2.5t-1.5 5.5t1 6t1 6z" />
</svg>
