<?xml version="1.0" standalone="no"?>
<!DOCTYPE svg PUBLIC "-//W3C//DTD SVG 1.1//EN" "http://www.w3.org/Graphics/SVG/1.1/DTD/svg11.dtd" >
<svg xmlns="http://www.w3.org/2000/svg" xmlns:xlink="http://www.w3.org/1999/xlink" version="1.1" viewBox="-10 0 266 256">
   <path fill="currentColor"
d="M52 249q0 2 3 2h2q4 0 5 -0.5t1 -4.5q0 -3 -0.5 -5t-1.5 -4v-7.5v-11v-10.5v-8v-19t0.5 -18t1.5 -18t3 -20q0 -1 1.5 -4.5t2.5 -7l2 -7t1.5 -4.5t0.5 -3t0.5 -4t0.5 -4v-3q2 -3 4.5 -4t6.5 -1q1 0 2.5 3.5t2.5 8.5l2 10t2.5 7.5t4.5 4t5 3.5q1 5 3 11.5t3 12.5v4v7v6v4v6
v7v6v3q0 3 -0.5 11.5t-1.5 17.5t-2 17t-1 12q1 1 1.5 1h2.5q1 0 2.5 -1t2.5 -3t1.5 -4t0.5 -3q1 -8 1.5 -14t0.5 -12.5v-12.5v-14v-11v-10.5t-0.5 -9.5t-1.5 -12q0 -2 -0.5 -5t-1.5 -6l-2 -6t-2 -5q-4 -5 -6.5 -6.5t-4.5 -3.5t-3.5 -6t-1.5 -13q0 -5 4.5 -6t9.5 -1t9 -1
t4 -6v-2t-2 -1h-21v-6t0.5 -6t2 -5t4.5 -3l8 -13v-1v-1q0 -4 -4 -4q-2 0 -4 3t-3.5 6.5t-3.5 6.5t-5 3q-1 0 -3 -2l-3 -3q-1 0 -2.5 -1.5l-3.5 -3.5l-3.5 -3.5t-1.5 -2.5h-1h-1q0 1 -0.5 2l-0.5 1q0 5 3 8l6 6t5.5 7t2.5 9q0 3 -1 5t-3.5 2.5t-4.5 0.5h-6q-4 0 -6 -4
t-3.5 -9t-2 -9.5t-0.5 -7.5v-4t1 -4q3 -5 8 -8.5t11.5 -5.5t13 -2.5t11.5 -1.5q2 0 3.5 -1.5t1.5 -3.5q0 -3 -1.5 -4.5t-4.5 -1.5q-8 1 -17 3t-17 6t-13.5 10.5t-5.5 15.5q0 4 1 7.5t2.5 7.5t2.5 7t1 7q0 3 -2.5 3.5t-5.5 0.5t-5.5 1t-2.5 5q0 2 1.5 3.5t4.5 1.5t5 -1t4 -1
q3 0 4 2t1 4q0 3 -1 5.5t-2.5 5.5t-3.5 6t-2 5q0 1 -0.5 2.5t-0.5 4t-0.5 4t-0.5 2.5l-0.5 2.5t-0.5 3.5q-3 21 -3.5 42.5t-0.5 43.5v5q0 2 0.5 5.5t0.5 7.5t0.5 7.5t0.5 4.5zM162 196v51q2 0 5 -0.5t5 -3.5v-11q0 -12 -1 -23.5t-1 -23.5v-18q0 -1 1 -2.5t1 -2.5
q0 -4 -2 -8.5t-2 -9.5v-4t2 -4l3.5 -1.5t7.5 -3.5t7.5 -3l3.5 -1q2 0 3.5 0.5t3 1.5t2.5 1.5t3 0.5q3 0 4.5 -1t1.5 -4q0 -2 -0.5 -3t-2.5 -3q-1 0 -3 -1t-4.5 -2t-4.5 -1.5t-4 -1.5q3 -7 1 -10.5t-6 -5.5t-9.5 -2.5t-9.5 -1.5q-3 0 -2.5 -3t0.5 -6v-5.5t-3 -2.5h-3t-2 2v14
l-24 3v1v2t1 1h22q2 0 2 3v2q0 3 -2.5 4.5t-6.5 2t-8 0.5t-7.5 0.5t-6 1.5t-2.5 4q0 2 4 2q6 0 12 -0.5t13 -0.5h5q1 0 1.5 1t0.5 2q0 6 -4.5 8t-10.5 2.5t-10.5 0.5t-4.5 2q0 4 2.5 4h4.5h9.5t9.5 -1l4 3v3t0.5 7.5t0.5 9v8.5v6v6v1.5t-0.5 2.5t-0.5 2.5v1.5q0 1 0.5 4z
M130 216q0 2 1 2h2q2 0 5.5 -3.5t6.5 -8.5t5.5 -9.5t2.5 -5.5q0 -2 -0.5 -3.5t-2.5 -1.5q-1 -1 -4.5 3.5t-7 10t-6 10.5t-2.5 6zM180 184q0 3 1 5t2.5 3.5t3.5 3t4 4.5q1 0 2 1.5t2 3.5t1.5 3.5t1.5 2.5q1 2 3 2h5v-4.5v-4.5q-1 -1 -4 -4.5t-7.5 -7t-8.5 -6t-6 -2.5zM80 131
q-1 0 -2 0.5t-1 1.5v45q0 2 3 3.5t7.5 2.5t8 1.5t4.5 0.5q2 0 3.5 -1.5t1.5 -3.5v-0.5v-1.5q-1 0 -4 -0.5t-4 -2.5v-7v-11v-11.5v-7.5v-2v-3t-1 -3.5t-2 -2.5h-1t-1.5 1.5l-1 3l-1 3t-0.5 2.5v1.5v1.5l0.5 2t0.5 4.5t0.5 4.5t0.5 3v0v1q0 1 -0.5 3.5t-0.5 5.5t-0.5 5t-0.5 3
t-1 2t-2 1v0h-1h-1l-0.5 -0.5l-0.5 -0.5v-41q0 -2 -1 -2.5t-2 -0.5zM133 175v5q2 0 4.5 -1t4.5 -3q1 -1 3 -3.5t3.5 -5t3 -4.5l1.5 -2v-7q-3 0 -6 2.5t-5.5 6t-4.5 7t-4 5.5zM181 158q2 1 4 4t5 6.5t6 5.5t6 2t3.5 -1.5t0.5 -3.5q0 -3 -3 -6t-6 -5.5t-7 -4t-6 -1.5
q-1 0 -2 0.5t-1 2.5v1zM180 118q0 6 -3.5 7.5t-8.5 1.5v-5.5t1.5 -2.5t4.5 -1h6zM167 106v-2.5t1 -1.5h11l0.5 0.5l1.5 1.5l0.5 2l0.5 2q0 1 -0.5 1.5l-0.5 0.5h-13q-1 0 -1 -2v-2zM130 78q0 1 2 2.5t3 1.5h1l7 -3.5t10.5 -4.5t10.5 -4.5t8 -3.5q2 -1 7 -2t9.5 -2.5t7.5 -4
t3 -6.5t-3 -4l-0.5 0.5l-0.5 0.5q-15 7 -31.5 14t-30.5 12q-1 0 -2 1.5l-1 1.5v1zM137 49l-1.5 1.5t-0.5 2v2.5v1q2 0 7 -1t11 -3t13 -4.5t13 -4.5t10 -4.5t4 -3.5q1 -2 -2 -3t-4 -1h-2q-10 5 -23.5 10t-24.5 8zM182 9l-37 14q-4 1 -5.5 3.5t-1.5 6.5q3 0 8 -1.5t10.5 -3.5
t10 -3.5t8.5 -3.5l1.5 -0.5l3 -1l3 -1l1.5 -0.5q5 -3 5 -9h-7z" />
</svg>
