<?xml version="1.0" standalone="no"?>
<!DOCTYPE svg PUBLIC "-//W3C//DTD SVG 1.1//EN" "http://www.w3.org/Graphics/SVG/1.1/DTD/svg11.dtd" >
<svg xmlns="http://www.w3.org/2000/svg" xmlns:xlink="http://www.w3.org/1999/xlink" version="1.1" viewBox="-10 0 266 256">
   <path fill="currentColor"
d="M183 250q0 2 1 2h2q5 0 6.5 -4.5t1.5 -8.5q0 -2 -1 -4t-1 -5q0 -10 1 -19.5t1 -19.5q0 -5 -1 -9t-1 -9q0 -6 1 -12t1 -12v-11.5t-1 -14.5t-3.5 -13t-8.5 -8h-4.5t-7 -0.5t-7 -0.5t-4.5 -1q-4 0 -7 -2t-3 -6t3 -5.5t7 -2.5t9.5 -1.5t10.5 -2t9 -4.5t7 -8q3 -8 3 -17v-17
q0 -9 -2 -13.5t-6 -7t-9.5 -3t-13.5 -0.5h-5.5t-9 0.5t-8 1.5t-3.5 3q0 3 2.5 3h5.5t5.5 1t2.5 4q0 4 -1 7.5t-2 7.5h-1q-3 0 -4 -2.5t-1.5 -5.5t-1 -5.5t-2.5 -2.5q-3 0 -3.5 3.5t-0.5 5.5q0 4 2.5 6.5t5.5 4t5.5 3t2.5 5.5q0 2 -1 4.5t-3 2.5q-3 0 -3.5 -2l-1 -4
t-1.5 -3.5t-3 -1.5t-2.5 1.5t-0.5 3.5q0 6 2 8.5t5 3.5t5 2t2 6q0 4 -1.5 5.5l-3.5 3.5t-4 3.5t-2 5.5q0 7 2 11t6 6t9 3t11 1l1.5 -0.5t3 -0.5t2.5 -0.5l1 -0.5l3 3t2 4v2t0.5 4t0.5 3.5v2.5v7q0 6 0.5 12t0.5 11v7q0 21 -1 41t-1 40v5zM59 155v89q0 1 1.5 1.5l1.5 0.5
q3 0 4.5 -1t2.5 -4v-8.5v-11.5v-15v-15v-12.5v-7.5v-3t0.5 -5t0.5 -5v-3v-9t0.5 -12t1.5 -11.5t5 -7.5q3 -4 9 -5.5t11.5 -3.5t9.5 -5.5t4 -9.5q0 -3 -0.5 -5t-1.5 -4.5t-2 -4.5t-1 -4q0 -6 2.5 -7.5t5.5 -3t5.5 -3.5t2.5 -8v-1t-0.5 -2.5t-1.5 -1.5q-2 0 -3 1.5t-1.5 4
t-1.5 4t-4 1.5q-1 0 -2 -1.5t-1.5 -3t-0.5 -3.5v-2v-1q0 -2 3 -3l6 -2t6 -3.5t3 -7.5q0 -1 -0.5 -2.5t-0.5 -3t-1 -2.5t-2 -1q-2 0 -2.5 2t-1 5t-1.5 5t-4 2h-2t-1 -2v-15l1 -2h3.5t5 -0.5t4.5 -0.5h3q2 -1 2.5 -1.5t0.5 -1.5q0 -3 -1.5 -3.5t-4.5 -0.5q-12 0 -25 1t-25 4
q-6 1 -8.5 5.5t-3.5 9.5t-1 10.5v9.5v4v3v3v2l7 16l3.5 1.5t5.5 2.5q5 2 12 3t13 2q2 0 2 2.5v2.5q0 5 -3 6.5t-7 2.5t-8.5 1.5t-6.5 3.5q-1 0 -2.5 1.5l-3 3l-3.5 3.5t-2 3l-2 3zM123 235q0 2 0.5 3.5t2.5 1.5q4 0 5.5 -2t2 -5t0 -6t-0.5 -5l14 -14h0.5h1.5q2 0 4 1t4 2.5
l4 3t2 3.5v18q0 2 1 2h2t2.5 -1.5t1.5 -3.5v-79l-1 -2q-1 0 -3.5 -1t-6.5 -2t-7.5 -2t-6.5 -1h-1.5h-3.5h-3.5h-2.5q0 -1 -0.5 -3.5l-0.5 -2.5v-1v-1v-3t0.5 -4t0.5 -4v-3q1 -2 2 -2h3q4 0 5 2.5t1.5 5t1.5 5.5t5 5q3 1 7.5 2t9.5 1q1 0 3 -0.5t2 -2.5t-4 -2.5t-8.5 -1
t-8 -2.5t-3.5 -6v-1l0.5 -1.5t1.5 -1.5h1.5h1.5q4 0 7.5 1.5t7.5 1.5q3 0 3.5 -1t0.5 -3q0 -3 -1 -3t-4 -1q-8 -2 -14.5 -2.5t-15.5 -1.5l-2.5 -1.5t-2.5 -2.5v-12q0 -1 -1 -2t-2.5 -1.5t-3 -0.5h-1.5v19l-27 4q-3 2 -6 2.5t-5.5 1t-5 1.5t-4.5 4q1 2 2 2h3q5 0 11 -2t11 -3
l0.5 0.5t0.5 1.5v0q0 4 -3 5.5t-7 2t-7 1.5t-3 4v1l0.5 0.5t1.5 0.5q6 -1 11 -2.5t10 -5.5q2 -1 3 -3t2 -4.5t2 -3.5t4 -1t4.5 3.5t2 8t0 8t-0.5 4.5v1q-7 0 -15 1.5t-16 4.5q-1 3 -2 6.5t-2 5.5q-1 15 -3 32t-2 32v3.5v3.5l0.5 0.5t1.5 0.5v0q4 0 5.5 -4.5t3 -10t4 -10
t8.5 -4.5q3 0 5.5 2t4.5 4t3.5 4.5t2.5 3.5v1q0 4 -1 7t-1 6zM131 204q0 -3 1 -5.5t4 -4.5q3 1 4.5 2.5t1.5 3.5q0 3 -2 5.5t-5 2.5q-4 0 -4 -4zM115 200q0 -3 2.5 -6t5.5 -3q1 0 1.5 1t0.5 2v2l-0.5 2t-0.5 3.5t-0.5 3t-0.5 2.5v0q-3 0 -5.5 -2.5t-2.5 -4.5zM95 201
q0 -3 0.5 -4t3.5 -1q2 0 2.5 1t0.5 4q0 2 -0.5 3t-2.5 1q-3 0 -3.5 -1t-0.5 -3zM155 199q1 -2 2.5 -3.5t3.5 -1.5t2.5 2t0.5 4q0 1 -0.5 2.5t-2.5 1.5t-3.5 -1.5t-2.5 -3.5zM136 186v-1v0q2 -5 4.5 -6.5t6.5 -1.5t7 2t3 6q0 5 -2.5 7t-6.5 2q-2 0 -4 -0.5t-4 -1.5t-3 -3
t-1 -3zM97 183l9 -9h0.5h0.5q1 0 3 1t4 3t3.5 4t1.5 4q0 1 -1.5 2.5t-3 2.5t-3 1.5t-2.5 0.5t-3.5 -1t-4.5 -3l-3.5 -3.5t-0.5 -2.5zM115 168q0 -3 2 -5t5 -2h0.5h0.5q2 4 2 6.5v5.5v2v2t-1.5 1.5l-1.5 0.5q-3 -2 -5 -5t-2 -6zM153 167q0 -2 3 -4t5 -2q1 0 2 0.5t1 1.5v14
l-1 2q-1 -1 -3 -2.5t-3.5 -3.5t-2.5 -3.5t-1 -2.5zM131 167q0 -2 1 -4t3 -2q7 0 9 7v1v0v0l-2 2l-1 1t-2.5 2t-2.5 2t-2 1l-0.5 -0.5t-0.5 -1.5l-0.5 -3t-1.5 -4v-0.5v-0.5zM100 164q1 0 2 0.5t1 1.5q-2 4 -6 5v-2q0 -3 0.5 -4t2.5 -1zM103 158v-1v0l2 -2l1 -1h11v3l-8 6
l-1.5 -1t-2.5 -2q-1 0 -1.5 -0.5t-0.5 -1.5v0v0zM134 151h10t11 3l0.5 0.5l0.5 0.5v0.5v0.5q0 2 -3 3.5t-5 1.5v0h-1q-1 0 -3 -1t-4.5 -2t-4 -3t-1.5 -4zM69 51v-14.5t2.5 -10.5t7 -6t13.5 -2h2h3t2 0.5t1 2.5v11q0 1 -1.5 1h-2.5h-2l-1 -2t-1.5 -4.5t-2 -4t-2.5 -1.5
q-2 0 -2.5 1.5t-0.5 2.5v1.5v0.5q2 8 5 10t5.5 3t4 2t1.5 7q0 2 -0.5 5t-3.5 3t-4 -2t-2 -4.5t-2 -4.5t-4 -2l-0.5 0.5t-0.5 1.5v0v0q0 7 2.5 10.5t5.5 5.5t5.5 3.5t2.5 3.5t-1 5t-3 3q-13 0 -19.5 -6.5t-6.5 -19.5zM161 70q0 -4 2.5 -5.5t5.5 -2t5.5 -1t2.5 -3.5v-11
l-1 -0.5l-1 -0.5h-0.5h-0.5q-2 0 -2.5 1.5t-1 3.5l-1 4t-3.5 2q-7 0 -7 -7q0 -3 2.5 -4t5.5 -1.5t6 -1.5t4 -5q0 -1 -0.5 -3t-0.5 -4t-0.5 -4t-0.5 -3v0q-1 0 -2 2.5t-1.5 5t-2 4.5t-3.5 2h-2t-1 -2l-0.5 -3l-0.5 -3q0 -8 2 -10t9 -2q6 0 9 2t4.5 6t2 9t0.5 9v1.5v0.5
q0 1 -1 4t-2 6.5t-2 6.5t-1 5q-4 4 -6.5 5t-7.5 1h-4h-2q-2 0 -2 -1.5v-2.5z" />
</svg>
