<?xml version="1.0" standalone="no"?>
<!DOCTYPE svg PUBLIC "-//W3C//DTD SVG 1.1//EN" "http://www.w3.org/Graphics/SVG/1.1/DTD/svg11.dtd" >
<svg xmlns="http://www.w3.org/2000/svg" xmlns:xlink="http://www.w3.org/1999/xlink" version="1.1" viewBox="-10 0 266 256">
   <path fill="currentColor"
d="M168 175v0l2 2t2 1l7 71q1 2 2 2.5t3 0.5l1 -0.5l1 -0.5q1 -1 2.5 -4t1.5 -4v-1v0q0 -4 -0.5 -10.5t-1.5 -13t-1.5 -11t-0.5 -5.5q-1 -7 -3 -13t-2 -14q0 -2 2 -4.5t4.5 -5.5t5 -7.5t2.5 -12.5q0 -7 -3 -11.5t-7.5 -7.5t-10 -4.5t-11.5 -1.5q-2 0 -3 0.5t-1 2.5q0 4 4 5
t9.5 2t9.5 4t4 10q0 4 -1.5 8t-3.5 8h-1q-1 0 -2 -3t-3 -6t-6 -5.5t-12 -2.5h-2t-1 2q1 3 3.5 4t5 1.5t4.5 2.5t2 9l-0.5 2l-0.5 2q-1 2 -4 2.5t-6.5 1.5t-6 2.5t-2.5 3.5q0 1 1.5 1.5t2.5 0.5h1h1l2 -0.5l4 -1l4 -1l2 -0.5h1zM66 240v4t3 2q4 0 8 -4v-7t0.5 -10t0.5 -9.5
v-6.5v-21q0 -1 0.5 -3t0.5 -3q1 -17 1 -36.5t3 -36.5q1 -3 3.5 -4.5t5.5 -2l6 -1t5 -0.5h3h2q3 2 3.5 4.5t1.5 5.5t4 4.5t11 1.5h11.5t5.5 -2t3 -5.5t4 -10.5q0 -1 0.5 -1t1.5 -1q3 -2 7.5 -2t8.5 0.5t7.5 0.5t6 -1.5t4 -4.5t1.5 -10q0 -2 -1 -6t-4 -4h-30q-1 0 -2 -1l-1 -1
q-3 -5 -3.5 -7.5t-1 -4t-2.5 -2.5t-7 -3v-15q0 -2 2.5 -2.5t4.5 -0.5q1 0 4.5 0.5t3.5 2.5l3 13q0 2 4.5 3.5t9.5 2.5t10 1h6h3t1 -3v-1t-1 -1t-4 -0.5t-6 -0.5t-6 -0.5t-4 -0.5h-1.5t-3 -1t-2.5 -1.5t-1 -2.5q0 -3 2 -4t4 -1q3 0 6 1t5.5 2t5.5 2t6 1q2 0 3.5 -0.5
t1.5 -3.5q0 -4 -7.5 -7t-16.5 -4.5t-18.5 -2.5t-13.5 -2q-2 -2 -2 -5v-5q0 -3 -1 -5t-5 -2q-3 0 -3.5 1.5t-1 3.5t0 4t0.5 4q-2 3 -7 4.5t-10.5 2.5t-11.5 2t-9 2q-2 1 -5 2t-6.5 2t-6.5 2t-4 2q-1 0 -2 1.5t-1 2.5q0 2 1.5 2h2.5h0.5h0.5q1 0 4.5 -1t7.5 -1.5t7.5 -1.5
t4.5 -1h1h2l-0.5 0.5l-0.5 0.5l1 0.5t1 1.5q0 2 -2 3.5t-5 2.5t-7 1.5t-7 1.5t-5 3t-2 5q4 0 9 -0.5t10 -2t9.5 -3.5t7.5 -6l0.5 -1.5l1 -3l1 -3l0.5 -1.5q2 -5 8 -7t9 -2h1l1 1t1 2v14l-2.5 2.5t-3.5 4.5q-1 0 -2 0.5l-1 0.5q-2 2 -3 4.5t-2.5 5t-2.5 4.5t-2 2l-34 3
l-0.5 0.5t-1.5 0.5q0 1 -0.5 2l-0.5 1l0.5 1.5l0.5 1.5h12q6 0 11 -1t10 -1t5 6q0 5 -4 6.5t-9.5 2.5t-11.5 3t-9 7q-3 3 -4 7t-1 8.5v8.5v8q-2 25 -3.5 51t-1.5 52zM96 219q0 2 0.5 6.5t1.5 8.5t2 7.5t3 3.5q5 0 5 -6v-3v-4.5t-1 -4t-2 -2.5v-22q0 -1 1.5 -2.5l3 -3t3.5 -2
t3 -0.5t1.5 0.5l0.5 0.5q0 2 1 6t1.5 8.5t1.5 8.5t1 6q1 1 1.5 3t1.5 4t2.5 3.5t3.5 1.5q3 0 4 -0.5t1 -3.5q0 -4 -2.5 -7.5t-4.5 -8.5q-1 -3 -1.5 -5l-1 -4t-0.5 -4v-5v-3v-2q0 -1 1 -1.5l1 -0.5q4 -2 5 -4t1 -4q0 -1 0.5 -3.5t2.5 -5.5q2 -2 3.5 -3t2 -2t1.5 -2.5t2 -3.5
q0 -10 0.5 -17.5t0.5 -16.5v-4.5v-2.5l-3 -2q0 1 -2 2.5t-3 2.5h-2h-2h-2h-1q-2 0 -3 2t-2 4.5t-2 4t-3 1.5t-3.5 -2.5t-4.5 -5.5t-7 -6t-9 -3h-2.5h-2.5q0 1 -1 3.5t-1 3.5q0 9 1 18t1 18q1 3 3 5t4 3t4 2.5l2 1.5h19l1 5q1 0 0 1.5t-2.5 2.5l-3 2t-2.5 1q-8 2 -12.5 3.5
t-7 4t-3 7.5t-0.5 16zM126 159q3 0 4.5 2t1.5 4q0 1 -0.5 3t-1.5 2h-16q1 -5 4.5 -8t7.5 -3zM121 165q0 1 1 1.5t2 0.5t2 -0.5t1 -1.5t-1 -1h-2h-2t-1 1zM101 131v-3l5 5l6 6t5 6t2 6v1v0q0 1 -1.5 3t-3.5 4.5t-4 4t-3 1.5q-3 0 -4 -5t-1.5 -11.5t-0.5 -12v-5.5zM130 146
q0 -5 2.5 -8t5.5 -7q3 5 3 8.5v8.5q0 1 0.5 3t0 4.5t-1 4.5t-2.5 2q-3 -2 -5.5 -7t-2.5 -9zM105 148q0 1 0.5 2t1.5 1q3 -1 3 -4q0 -1 -0.5 -2t-1.5 -1q-2 0 -2.5 1t-0.5 3zM133 148v0v0q0 1 1 2t2 1v0q2 0 2 -3t-2 -3q-1 0 -2 0.5t-1 2.5zM118 127q0 1 1.5 2.5t2.5 1.5
q2 1 3.5 -1.5t1.5 -4.5h-4t-4 1l-0.5 0.5zM121 104v-2.5t1 -1.5q3 1 5.5 0.5t4.5 -1t4 -1.5t5 -1t3 4q0 5 -4 8q-1 0 -2.5 0.5t-3.5 1t-4 0.5h-3v0h-1q-3 -2 -4 -3t-1 -4zM118 85q0 -2 1 -4t3 -2h22l0.5 3t0.5 4v1q0 3 -2 4t-4.5 1h-5.5h-4q-4 0 -7.5 -1t-3.5 -6zM152 82v-2
v-1l3 -1h21q1 0 3 1t2 3q0 3 -2 4.5t-4.5 2t-5.5 0.5h-4h-10q-3 -1 -3 -3v-4zM119 68q0 -2 2 -4t5 -3.5t6 -2t4 -0.5h1q3 3 4.5 3.5t1.5 3.5t-2 4.5t-5 2t-6 0.5h-5h-4l-2 -3v-1z" />
</svg>
