<?xml version="1.0" standalone="no"?>
<!DOCTYPE svg PUBLIC "-//W3C//DTD SVG 1.1//EN" "http://www.w3.org/Graphics/SVG/1.1/DTD/svg11.dtd" >
<svg xmlns="http://www.w3.org/2000/svg" xmlns:xlink="http://www.w3.org/1999/xlink" version="1.1" viewBox="-10 0 266 256">
   <path fill="currentColor"
d="M123 212q-1 11 -2 21t-1 20h3.5t5 -1.5t4 -3t1.5 -3.5v-1l-0.5 -2l-0.5 -2v-28q0 -1 4.5 -2.5t10 -2t10.5 -1t6 -0.5h2.5h1.5l3 3q1 1 1 3v3q0 8 -2 14.5t-2 14.5q0 3 1 4t5 1q3 0 5 -1.5t2.5 -4t0.5 -5.5v-5q0 -6 -1 -11t-1 -10v-6l0.5 -1t1 -2.5t0.5 -2.5v-2v-8
q0 -5 -0.5 -11t-2 -11t-4.5 -6q-3 0 -8.5 -0.5t-11.5 -1t-11.5 -1t-7.5 -0.5h-4.5h-4.5h-3h-2.5h-3.5h-1l-1 0.5t-2.5 0.5t-2.5 0.5t-2 0.5h-10t-11 1t-9.5 3.5t-4.5 8.5q-2 10 -2.5 20t-2.5 20l-0.5 3.5t-1 8t-1 9.5t-0.5 8v1q0 2 2 2.5t4 0.5t3.5 -4.5t2.5 -10.5t0.5 -12
t-0.5 -8l2 -1l2.5 -0.5t6 -0.5t5.5 -1l3 0.5t3 -0.5h3.5t5.5 -0.5t6 -0.5h4zM95 200q9 -5 18.5 -8.5t18.5 -3.5q3 0 7.5 0.5t8.5 2t7.5 3.5t5.5 4q-12 4 -24.5 4h-24.5h-4h-4h-3.5h-1.5zM80 192v-5t0.5 -5.5t1.5 -5t4 -2.5q7 0 14.5 2t15.5 4v1q0 3 -2.5 4.5t-5.5 2.5
q-2 1 -5.5 2.5t-8 3t-8 3t-5.5 1.5q-1 -2 -1 -3v-3zM145 182v-1v-1l19 -9h1q2 0 3.5 1.5t2 3.5t1 4.5t0.5 3.5v4q0 2 -1 3q0 1 -1 1.5t-2 0.5q-2 0 -5.5 -1.5t-7.5 -3t-7 -3.5t-3 -3zM133 167h4h6h6h4t1.5 1t-0.5 2q0 1 -3.5 2.5t-7.5 3t-7.5 2.5t-4.5 1l-5 -1t-10 -2.5
t-9.5 -3t-4.5 -2.5v-1q0 -1 1 -1t3 -0.5t4.5 -0.5h3.5h3h5h6h5zM144 119h-6t-8 0.5t-8 0.5h-3h-6h-4.5t-4.5 0.5t-4 1.5q-1 1 -3 2.5l-2 1.5v16l1 1l1 1q4 3 10 3.5t10 1.5h2h4.5h5.5h4h13t10.5 -1.5t6.5 -5t2 -11.5v-4.5v-2.5l-4 -4h-3q-1 0 -4 -0.5t-6 -0.5h-4zM108 141
q-3 -1 -3 -2.5v-3.5q0 -5 4 -7t9.5 -2.5t11 0t8.5 0.5h12q3 0 4 3.5t1 5.5q0 4 -3.5 5.5t-7.5 2t-8.5 0t-6.5 -0.5h-10.5t-10.5 -1zM61 109q0 3 3 3h2q1 0 4.5 -0.5l7 -1l7 -1t4.5 -0.5h98q2 0 3 -1.5t1 -3.5q0 -1 -0.5 -2.5t-2.5 -1.5h-12q-1 0 -1.5 -2.5t-1 -5.5t-0.5 -6
v-3v-7q1 -2 1.5 -2h1.5q2 0 5 1.5t5 3.5v2t0.5 4.5t1 4t0.5 2.5q1 1 1.5 3l0.5 2h1q2 0 3 -1.5t1.5 -3.5t1 -3.5t0.5 -2.5q0 -11 -5.5 -15.5t-16.5 -3.5q-3 -2 -3.5 -2.5t-0.5 -2.5q0 -5 3.5 -7t8 -2.5t8.5 -2t4 -6.5q0 -9 -3 -12t-6.5 -4.5t-6.5 -2t-3 -3.5v-1
q0 -1 0.5 -3.5t1.5 -2.5v-2q0 -1 -1 -2.5t-3 -1.5q-4 0 -5 3t-1 7q0 3 -0.5 6.5t-4.5 3.5h-3.5t-3.5 -2v-2t-0.5 -4.5t-2 -4t-2.5 -1.5h-1q-1 0 -2 0.5t-2 0.5q2 8 0 10.5t-5 2.5h-5.5t-2.5 4q0 2 0.5 2.5t2.5 0.5l3 -0.5l3 -0.5h1h1h2.5t1.5 1v12l-17 5q-1 0 -2 1.5l-2 3
t-1.5 3.5t-0.5 3q0 6 3 7.5t6 1.5q4 0 7 0.5t3 3.5q0 2 -1 4.5t-2.5 4t-2.5 3.5t-1 5v2t2 1l1.5 -0.5l1.5 -0.5q0 -1 1 -1.5l1 -0.5l6 -18q0 -1 0.5 -1.5l0.5 -0.5q1 0 4.5 -0.5t5.5 -0.5h1v0q1 0 1.5 0.5l0.5 0.5q0 2 0.5 5.5l1 7t0.5 7t1 5.5v0v1q-1 0 -1.5 0.5l-0.5 0.5
q-1 0 -5.5 0.5t-9 0.5t-9 0.5t-5.5 0.5h-2h-3q-3 0 -10.5 -0.5t-16.5 -0.5t-16.5 -0.5t-10.5 -0.5q1 -2 1 -3v-3q0 -4 -1.5 -6t-2.5 -4q-2 -4 -2 -9.5v-8.5q0 -2 -1 -2h-2h-2.5t-1.5 2v21q0 1 1 3t2.5 4.5t3 4t2.5 1.5q0 1 -0.5 1.5t-1.5 0.5t-4.5 0.5t-4.5 1.5t-1.5 2
t-0.5 2zM85 70v6.5t1.5 9t3.5 8t5 3.5q5 0 5 -5v-0.5v-0.5q0 -1 -0.5 -2t-1.5 -2l-2 -2t-1 -2q-1 -4 -1 -10.5v-10.5q0 -8 1.5 -16t1.5 -15v-5t-1.5 -6.5t-3 -5.5t-4.5 -2t-4 0.5t-1 3.5t1.5 5.5t3.5 5.5v10q0 8 -1.5 16.5t-1.5 16.5zM103 61q0 1 0.5 3.5t1 6t1 6t0.5 3.5
q0 2 1 4l2 4t2.5 3.5t3.5 1.5q3 0 3.5 -1.5t0.5 -3.5v-2v-1q0 -1 -1 -2t-1.5 -2.5t-1.5 -3l-1 -1.5q0 -1 -0.5 -3.5t-0.5 -5v-5v-3.5q-1 0 -2 -1.5t-2 -1.5v0v0h-1v0q-1 0 -2.5 2t-2.5 3zM134 65v-1v-1q0 -3 2.5 -5t5.5 -2t3 1.5v3.5v4t-2 2h-1q-1 -1 -4 -1.5t-4 -0.5z
M153 63q0 -4 1 -6.5t5 -2.5q6 0 6 6q0 2 -1 4.5t-4 2.5q-4 0 -5.5 -0.5t-1.5 -3.5zM61 27q1 3 3.5 5.5t3.5 5.5v2.5v5t0.5 5l0.5 2.5q5 0 6 -3.5t1 -7.5q0 -3 -0.5 -6t-1.5 -6t-3 -5t-6 -2v0l-2 1q-1 1 -1.5 2zM154 44q0 -6 3.5 -8t9.5 -2v11q0 3 -2.5 3h-3.5q-3 0 -5 -0.5
t-2 -3.5zM108 45q0 1 0.5 1.5l0.5 0.5q3 0 4.5 -2.5t2.5 -6t1.5 -6.5t0.5 -5q0 -1 -0.5 -3t-0.5 -3q-1 -2 -2.5 -2.5t-3.5 -0.5t-3.5 0.5t-1.5 3.5q0 6 1 11.5t1 11.5zM176 36h4q2 0 4 0.5t2 2.5q0 5 -4 6.5t-8 1.5v-5t2 -6z" />
</svg>
