<?xml version="1.0" standalone="no"?>
<!DOCTYPE svg PUBLIC "-//W3C//DTD SVG 1.1//EN" "http://www.w3.org/Graphics/SVG/1.1/DTD/svg11.dtd" >
<svg xmlns="http://www.w3.org/2000/svg" xmlns:xlink="http://www.w3.org/1999/xlink" version="1.1" viewBox="-10 0 266 256">
   <path fill="currentColor"
d="M130 248l0.5 0.5l1.5 1.5v0h1q1 -1 3 -2.5t2 -2.5l0.5 -2l1 -4t1 -3.5t0.5 -2.5v-4.5v-7.5v-7.5v-5.5l4 -4h2.5t5 -0.5t5.5 -0.5h5h1q2 0 4 -0.5t4 -0.5h3q2 0 5 0.5l3 0.5l3 3v2v4q0 5 -1 9.5t-1 9.5v3q0 3 1 4q0 1 1 1h2q2 0 3 -1l3 -3v-5v-6v-6v-4v-20.5t-2 -19.5
q0 -2 -0.5 -5t-1 -5.5t-1 -4.5l-0.5 -2l-4 -5h-4h-9.5t-12.5 -0.5t-14.5 -0.5h-14h-11.5h-2h-1h-12t-8 1.5t-5.5 4.5t-5.5 9q-1 12 -2 23t-1 23q-1 7 -3 14t-2 15q0 1 1 2.5t3 1.5t3.5 -2.5t2.5 -5.5t1.5 -6t0.5 -4t0.5 -3.5t0.5 -4.5q0 -3 -0.5 -5.5t-0.5 -3.5q2 -3 7 -3.5
t12 -1t13 0t10 0.5q0 9 -0.5 18t-0.5 18v6zM104 195l28 -14l3.5 1t5.5 2t4.5 2t5.5 2t5 3t2 4v0.5v0.5q-14 1 -27 1.5t-27 0.5v-3zM91 187q0 -2 0.5 -5t1.5 -7t1.5 -6.5t2.5 -2.5q1 0 4.5 1t7.5 3t7 4t5 4q-2 3 -5.5 5l-7 4t-7.5 3t-7 2q-2 -1 -2.5 -2t-0.5 -3zM147 178
q0 -2 2.5 -4t5.5 -3.5t6 -2.5t5 -2q1 0 2.5 -1t3.5 -2t3.5 -2t2.5 -1q3 0 4 2.5t1.5 6t0 6.5t-0.5 4v10q-1 2 -2 2.5t-3 0.5h-1v0l-27 -9q-3 -1 -3 -5zM106 161q0 -2 3 -2.5t6.5 -1t6.5 -0.5h5h3h6.5t9.5 0.5t9 0.5h6q-2 3 -5.5 5.5t-7.5 5t-8 4t-7 1.5l-4.5 -1.5t-9.5 -3.5
t-9 -4.5t-4 -3.5zM94 140q4 1 7 1t5.5 0.5t4.5 0.5h5h6q3 0 9 -0.5t13.5 -0.5t14 -0.5t8.5 -0.5q1 0 2.5 -0.5l3 -1t3 -1.5l1.5 -1v-17q0 -1 -2.5 -2.5t-4.5 -2.5h-9q-17 0 -33.5 0.5t-33.5 2.5q-3 3 -4 5t-1 6q0 3 1 6.5t4 5.5zM97 129q0 -5 5 -6q11 -1 21 -1h21h22
q3 -1 3 1v3q0 3 -3 5t-8 3t-11 1.5t-12 0.5h-9.5h-6.5h-6.5t-7 -0.5t-6 -2t-2.5 -4.5zM61 103q0 1 1 2.5t3 2.5h4h4h8.5t7.5 -1q14 -1 28 -1.5t28 -0.5t28.5 -0.5t27.5 -2.5q1 -1 1.5 -2l0.5 -1v-1q0 -3 -1 -5.5t-3 -4l-4 -3t-4 -3.5q-3 -2 -4 -6.5t-1.5 -10t-0.5 -10.5v-8
q-1 -4 -4.5 -6t-7 -3t-6.5 -1.5t-3 -3.5t1.5 -3.5t3.5 -0.5q4 0 7 1l6 2l6 2t6 1t4.5 -2t1.5 -5t-1.5 -3.5l-4.5 -1.5q-1 0 -3.5 -0.5t-5.5 -0.5t-6 -0.5t-4 -0.5q-3 0 -5.5 -1.5t-4 -3t-3.5 -3t-3 -1.5q-3 0 -4 1.5t-1.5 3.5t-1.5 3.5t-3 2.5q-1 0 -3 0.5t-4 1.5t-4.5 1.5
l-2.5 0.5v5h4.5t5 -1t5 -1.5t3.5 -0.5q4 2 4 5t-3 5.5t-6 4t-6 4t-3 7.5l1 2l1 2v4q0 5 -1 9t-1 9q0 4 2 7.5t2 6.5v1q-1 0 -1.5 1l-0.5 1l-78 2l-0.5 0.5l-1.5 1.5v1zM144 76q0 -4 2 -6.5t7 -2.5q3 0 5.5 3t3.5 7.5t1.5 8t0.5 5.5q-1 3 -2 4t-4 1t-5.5 -2t-4.5 -5t-3 -6.5
t-1 -6.5zM172 93q-1 -3 -1.5 -5.5t-1 -4.5t-0.5 -4v-4v-5.5t4 -2.5t6.5 3.5t4 8t2 9t0.5 7.5h-1.5h-4.5q-2 0 -4.5 -0.5t-3.5 -1.5zM74 58q-2 0 -3.5 4t-2 10t-1 11t-0.5 7q5 0 7 -2.5t3 -6t0.5 -7.5t-0.5 -8v-7q0 -1 -1 -1h-2zM89 55v32l1 1t1 2h1q4 0 5 -6.5t1 -14.5
t0.5 -14.5t3.5 -6.5h19l0.5 -1.5t0.5 -2.5l-0.5 -0.5l-0.5 -0.5h-22v-29q0 -2 -1 -2.5t-2.5 -1t-3 -0.5h-2.5v34h-13q-1 0 -1 -3q0 -4 -0.5 -8.5t-2 -8t-4.5 -3.5t-3.5 1.5t-0.5 4.5v1v1q0 1 0.5 2.5t1.5 4t1.5 4.5t0.5 3l-1 2h-15v1.5t1 2.5q1 2 2.5 2.5t3.5 0.5h1h2
q1 0 3 -0.5t4 -0.5t4.5 -0.5l2.5 -0.5q1 0 3 0.5t3.5 0.5t3 0.5l1.5 0.5zM108 64v6t0.5 8.5t1.5 7t4 2.5t3.5 -1t0.5 -3q0 -7 -1.5 -14t-2.5 -14h-1h-1h-2t-2 2v6zM147 53q0 -3 2 -4.5t5 -2.5t6 -1.5t5 -0.5q5 0 8.5 1.5t3.5 7.5q0 2 -2 3.5t-5 2.5t-6 1.5t-5 0.5
q-4 0 -8 -2t-4 -6zM103 34q0 3 3 6q4 -3 7 -7.5t3 -8.5q0 -2 -1.5 -2.5t-3.5 -0.5q-1 0 -2.5 1.5t-2.5 3.5l-2 4t-1 4z" />
</svg>
