<?xml version="1.0" standalone="no"?>
<!DOCTYPE svg PUBLIC "-//W3C//DTD SVG 1.1//EN" "http://www.w3.org/Graphics/SVG/1.1/DTD/svg11.dtd" >
<svg xmlns="http://www.w3.org/2000/svg" xmlns:xlink="http://www.w3.org/1999/xlink" version="1.1" viewBox="-10 0 266 256">
   <path fill="currentColor"
d="M48 244l1 2.5t2 2.5q3 0 5 -6t3 -15t1 -19.5t0.5 -19.5t0.5 -15.5t1 -7.5q5 -3 10.5 -2.5t10.5 0.5v69l1.5 1t2.5 2v0v0h1l2.5 -1.5l2.5 -1.5v-67q0 -1 1.5 -2.5t3.5 -2l4 -1t3 -0.5q3 0 4.5 3.5t2 7.5t1 8.5t0.5 6.5q0 15 -1.5 29.5t-1.5 29.5q4 0 7.5 -2.5t3.5 -6.5
v-101q0 -9 -1.5 -16t-4.5 -11t-9 -6t-16 -2q-5 0 -12 0.5t-13.5 3t-11 6.5t-4.5 12q1 27 0 54t-1 54v14zM146 170q2 0 4 5t4 12t3.5 13.5t1.5 8.5q2 6 6 11.5t9 10.5t10.5 9t10.5 7q1 0 1.5 0.5t1.5 0.5q3 0 4.5 -2t1.5 -4q0 -3 -5 -7t-11 -9t-12 -10.5t-8 -9.5
q0 -2 1.5 -3.5t3 -2.5t3 -2.5t1.5 -3.5q3 -6 3.5 -12.5t3.5 -13.5h1h1h2.5t1.5 2q0 1 0.5 4t1.5 6t1.5 6t0.5 4t1 5t2.5 8.5t3.5 8.5t4 4t3.5 -2t1.5 -4v-2.5t-0.5 -1t-1 -1.5t-1.5 -4q-1 0 -1.5 -2.5t-1 -4.5t-1.5 -4.5t-1 -3.5q-1 -2 -1.5 -6.5l-1 -9t-1.5 -7.5t-3 -3h-3
h-2.5t-3.5 0.5t-4 0.5h-3q-2 2 -3 7.5t-2.5 11t-3 9.5t-4.5 4t-4 -2.5t-1.5 -6t-1 -7.5t-2 -7.5t-3.5 -6t-7 -2.5q-3 0 -5 1t-5 4q-5 11 -6.5 21.5t-1.5 21.5v5.5v4.5t2 1.5t3 0.5q2 -1 4 -4.5t2 -5.5v-18q0 -10 2 -18q0 -2 1 -3.5t3 -1.5zM88 138q2 0 3.5 1.5t3 3.5t2.5 4
t1 4q0 1 -2 2.5t-3 1.5h-21v-3q0 -1 1 -2l3 -3l4 -4l3 -3q2 -2 5 -2zM162 97h1l1 1l1 1v53q3 0 5 -0.5t3 -1.5t1 -3.5v-6.5v-8v-13v-13.5v-8.5q4 -3 8.5 -3.5t8.5 -2t6.5 -5t2.5 -12.5q0 -6 -2 -9t-8 -6q-5 -1 -9.5 -1.5t-8 -1t-7.5 -1t-9 -0.5h-2h-5t-5 1t-2 3v2t1 2
q2 0 5.5 -0.5t7.5 -0.5q5 0 8.5 0.5t4.5 0.5h8t7 1.5t4.5 3.5t1.5 7q0 4 -3.5 8t-8.5 4q-3 0 -3.5 -1.5t-1.5 -4t-2 -4t-3 -1.5h-30q-2 0 -3 2t-1 4h29q1 0 1.5 2l0.5 2q0 2 -1.5 4t-4.5 2l-27 4l-0.5 0.5t-1.5 0.5v1v1q1 0 1.5 0.5l0.5 0.5h4.5h4.5q5 0 10.5 -1.5
t10.5 -1.5zM130 148q1 2 2 2h2q3 0 6.5 -2t6.5 -5.5t5.5 -7t2.5 -7.5q0 -1 -1.5 -1h-2.5q-2 0 -3.5 2.5t-2.5 3.5t-3 3.5t-4.5 4.5t-4.5 4.5t-3 2.5zM64 118l0.5 0.5l0.5 0.5l12 8l1 2t1 3l-2.5 5t-4 5.5t-5 4t-4.5 1.5h-1l-0.5 -1t-0.5 -2v-25q0 -1 1 -1.5t2 -0.5zM96 133
q0 -2 1 -4.5t2.5 -5.5t3.5 -4.5t4 -1.5h1q3 5 4 11.5t1 12.5q0 2 -1 4.5t-4 2.5q-2 0 -4 -2t-3.5 -4.5l-3 -5t-1.5 -3.5zM177 128q1 1 3.5 4.5t6 6.5t7 5.5t4.5 2.5q3 -1 3.5 -2.5t0.5 -2.5q0 -2 -3 -4t-7 -4.5t-8 -4l-4 -1.5h-1.5h-1.5zM153 107q-1 0 -5 3t-7.5 6.5t-6 7
t-2.5 5.5q3 0 5 -0.5t5 -3.5l3 -3l4 -4l3 -3l1 -1v-7zM179 111v1q1 2 3.5 4.5t5.5 5t6 4t5 1.5q5 0 5 -4q0 -3 -1 -4t-3 -2q-1 -1 -3 -2l-5 -2.5l-5 -2.5t-3 -1h-2q-1 0 -2 0.5t-1 1.5zM73 115q0 -4 3 -5.5t6.5 -2t6.5 -0.5h5h1q1 0 2.5 0.5t2.5 1.5v0q0 2 -1.5 5t-4 5.5
t-5 4t-4.5 1.5q-1 0 -3 -1t-4 -2.5t-3.5 -3.5t-1.5 -3zM57 73q0 6 3 9.5t7.5 4.5t10 1.5t10.5 0.5q6 0 13 -2t12 -8v-9q0 -3 -0.5 -7.5t-1.5 -8t-3.5 -6t-7.5 -2.5h-17t-14 2.5t-9 8t-3 16.5zM67 72q0 -9 6.5 -13.5t14.5 -4.5h4.5t5 1t4 2.5t1.5 5.5q0 1 -0.5 3t-0.5 4
t-0.5 3.5t-0.5 2.5l-3 3h-25q-2 0 -4 -2.5t-2 -4.5zM163 36q4 0 9.5 1.5t11 4.5t10 6.5t6.5 7.5h2q2 0 3.5 -2t1.5 -4q0 -4 -6 -8t-13.5 -7t-13.5 -5.5t-6 -3.5q-1 -2 -1 -5v-5t-1.5 -5t-4.5 -2t-5 2l-3 3q1 9 -1 13.5t-6 7t-8.5 4t-8.5 3t-6.5 4t-2.5 7.5q5 0 10.5 -2.5
t10.5 -6t10.5 -6t11.5 -2.5zM51 31v2.5t1 2.5h11h6h10q5 0 11 -0.5t11 -1.5t8.5 -2t3.5 -3t-1.5 -3t-3 -1.5t-3.5 -0.5h-3q-12 0 -24.5 1t-25.5 1q-1 0 -1 2v3z" />
</svg>
