<?xml version="1.0" standalone="no"?>
<!DOCTYPE svg PUBLIC "-//W3C//DTD SVG 1.1//EN" "http://www.w3.org/Graphics/SVG/1.1/DTD/svg11.dtd" >
<svg xmlns="http://www.w3.org/2000/svg" xmlns:xlink="http://www.w3.org/1999/xlink" version="1.1" viewBox="-10 0 266 256">
   <path fill="currentColor"
d="M62 246l2 5h9q0 -13 1 -26.5t2 -26.5q1 -6 3 -11t2 -12v-13t-3 -13q-2 -3 -4.5 -5.5l-4.5 -4.5t-3.5 -5t-1.5 -6q0 -4 1 -6.5t2.5 -5t3 -5.5t2.5 -6q2 -5 3.5 -11.5t1.5 -11.5q0 -3 -1 -5.5t-3 -5t-3 -5t-1 -5.5q0 -6 1.5 -11.5t3.5 -10t4 -9.5t2 -10q0 -3 -1 -4t-4 -1
q-2 0 -4.5 5t-5 12t-4 14t-1.5 11t1 8t2 7.5t2 7.5t1 8q0 6 -1.5 10.5t-3.5 9t-3.5 9.5t-1.5 10q0 8 2.5 12.5t5.5 8t5.5 8t2.5 12.5q0 7 -1 14t-2.5 13.5l-3 13t-2.5 13.5q0 3 -0.5 7t-0.5 7.5t-0.5 6.5zM126 246q0 2 0.5 3.5t2.5 1.5q3 0 5 -3t2 -6v-27q0 -3 2 -4l4 -2
t5 -1h4h6q1 9 1.5 19t0.5 19q4 0 6.5 -3t2.5 -7v-3q0 -1 -0.5 -3t-0.5 -4t-0.5 -4t-0.5 -3q0 -3 -0.5 -10.5t-1 -15.5t-1 -15.5t-0.5 -10.5q-4 -5 -8 -6.5t-9 -1.5h-11.5t-13.5 0.5t-13 2.5t-9 6q0 18 -2 36.5t-2 35.5q0 2 0.5 4t2.5 2t3 -1.5t2 -3.5t1.5 -4t0.5 -3v-22
l1 -2h2.5t5 -0.5t4.5 -1.5h3q2 0 3.5 0.5t2.5 1.5v14q0 6 -0.5 11t-0.5 11zM178 168q0 10 3 20.5t6 19.5q2 8 2.5 16t1.5 16q1 2 1.5 2.5t2.5 0.5q3 0 4.5 -2t1.5 -6q0 -8 -2.5 -16l-5 -16t-4.5 -16.5t-2 -16.5t2 -14.5t4.5 -12.5t4 -12.5t1.5 -13.5q0 -3 -1 -7t-3 -8.5
t-3.5 -8.5t-2.5 -6v-2q0 -6 1 -12t2.5 -11.5t2.5 -11.5t1 -12q0 -5 -0.5 -8t-2.5 -9q-2 -1 -3 -2t-3 -1t-2.5 1.5t-0.5 2.5q0 5 2.5 9t2.5 9t-1.5 9.5t-3 9.5l-3 10t-1.5 10t1.5 9.5l3 9t3 9.5t1.5 10q0 7 -2 13t-3.5 12t-3.5 12.5t-2 13.5zM132 191q1 0 3.5 1t4.5 2t3.5 3
t1.5 4q0 1 -1.5 1.5t-3.5 0.5h-3h-2h-4h-2q-2 0 -5.5 -1l-3.5 -1v-3q0 -1 1.5 -2t3 -2.5t3.5 -2t4 -0.5zM105 195v-1v-4t0.5 -6t0.5 -6v-4h1.5h1.5q2 0 4.5 1t4.5 3t3.5 4t1.5 4t-2 4t-4.5 4t-5 3t-3.5 1t-2 -1t-1 -2v0zM142 186v-1v0q2 -3 3.5 -5t3 -3.5t3 -2t4.5 -0.5
q0 5 0.5 9.5t-2.5 8.5q0 1 -0.5 1.5l-0.5 0.5h-1v0q-2 0 -5.5 -3t-4.5 -5v0zM121 171v-0.5v-0.5q0 -2 2 -3t5 -1h5h2q1 0 5 0.5t5 0.5t1.5 0.5l0.5 0.5q0 3 -1.5 5t-4 3.5t-5 2t-4.5 0.5h-2h-1l-2 -2t-2.5 -2t-2 -2t-1.5 -2zM100 137q0 8 5 11.5t13 3.5q4 0 11 0.5t14 -0.5
t12 -4.5t5 -10.5v-3t-0.5 -4t-1.5 -3.5t-2 -1.5t-3 -0.5t-4.5 -1t-5 -0.5h-2.5h-2h-1h-9t-10.5 0.5t-10.5 2t-8 5.5v2.5v3.5zM108 137v-2.5t3 -2.5q4 0 7.5 -0.5t7 -0.5h6.5h7h5h6l1 1l2 2v0q0 3 -1.5 6t-4.5 3h-38q-1 0 -1 -2.5v-3.5zM88 114q0 1 1 3t3 2q17 0 36 -1.5
t37 -3.5q2 1 3 0t1 -3v-1.5t-1 -1.5h-12q-2 -5 -5 -9.5t-7 -8.5l-8 -8l-7 -7v0v-1v-2t1 -1l33 -3q1 0 1.5 -1.5l0.5 -1.5q0 -3 -2 -4t-4 -1q-7 0 -14 1.5t-14 1.5v-6t4 -4q1 0 4 -0.5t7 -0.5t7 -0.5t4 -0.5t3 -0.5t3 -2.5q-2 -3 -3 -3.5t-3 -0.5q-3 0 -6.5 0.5t-6.5 0.5h-4
q-3 0 -3 -2q0 -6 4 -8t8.5 -2.5t9.5 0t7 0.5t3.5 -1t1.5 -3t-0.5 -3.5t-2.5 -1.5h-18v-12q0 -1 -2.5 -2l-2.5 -1q-1 2 -3.5 8t-5 12.5t-4.5 11.5t-3 6q-1 0 -3 -0.5l-2 -0.5v-3.5v-5v-5.5v-3q0 -2 -1 -5t-2.5 -5.5t-4 -4t-4.5 -1.5v14l-15 3q-1 1 -1.5 2l-0.5 1q0 3 3 3h4
q3 0 5 -0.5t5 -0.5h3.5t2.5 1v12h-22q-2 0 -2.5 2.5t-0.5 3.5h28l0.5 1t1.5 2v0.5v1.5q0 4 -3.5 5.5t-8.5 1.5h-9h-6l-2.5 2.5t-1.5 2.5l1 0.5l1 0.5h27q2 0 2 1.5v1.5q0 4 -2.5 8.5t-6.5 9t-8 8.5t-6 7q-1 1 -3 1.5t-4 1.5t-3.5 2zM129 86q1 0 3.5 2t6 5t6 5.5l3.5 3.5
q0 1 0.5 2l0.5 1q0 3 -5.5 4t-12 1.5t-13.5 0.5h-9v-4q0 -1 1.5 -3t3.5 -4l4 -4l3 -3q2 -2 3.5 -4.5t4.5 -2.5zM88 95l0.5 0.5t1.5 0.5v0q2 0 5 -1t5.5 -3t4 -4.5t1.5 -4.5q0 -3 -3 -3h-1q-1 0 -2.5 2t-3.5 4t-4 3.5t-2 2.5q-1 0 -1.5 1t-0.5 2zM146 79q0 3 2 5.5t5 4.5l6 4
t5 2t3.5 -1.5t1.5 -4.5v0v0q-4 -3 -10.5 -6.5t-12.5 -3.5z" />
</svg>
