<?xml version="1.0" standalone="no"?>
<!DOCTYPE svg PUBLIC "-//W3C//DTD SVG 1.1//EN" "http://www.w3.org/Graphics/SVG/1.1/DTD/svg11.dtd" >
<svg xmlns="http://www.w3.org/2000/svg" xmlns:xlink="http://www.w3.org/1999/xlink" version="1.1" viewBox="-10 0 266 256">
   <path fill="currentColor"
d="M68 246q1 3 3 3.5t4 0.5t4 -1t2 -3q0 -15 -1 -29.5t-1 -28.5q0 -36 4 -71t6 -71v-3q0 -7 -3.5 -11t-8.5 -6t-11 -3t-11 -1h-3h-3q-1 1 -1.5 2.5t-0.5 2.5q0 3 2 3.5t4 0.5t4 0.5t2 1.5v32q-1 1 -2 5.5t-2 9.5t-2 9.5t-1 6.5q-3 30 -5.5 60t-2.5 60v6q1 2 2.5 2h2.5h3
t2 -2q2 -13 2 -26.5t1 -27.5l4 -46t4 -45q1 -2 1 -7.5t0.5 -11.5t1 -11t0.5 -7q1 -3 2 -4t4 -1h3t2 1v5t0.5 6.5t0.5 6.5v4q0 23 -3 45.5t-7 45.5q-1 5 -1 12t0.5 14.5t0 14t-2.5 12.5v15v15t1 14zM145 182v5v6v6v3l0.5 3l1 6l1 6t0.5 4v4t0.5 6l1 6t2.5 5l11 7l1 0.5l1 0.5
q1 0 2.5 -0.5t1.5 -1.5t0.5 -3t0.5 -3q0 -3 -1.5 -6.5l-3 -7l-3 -7t-2.5 -7.5q-2 -9 -3.5 -20t-1.5 -21q0 -8 4 -15.5t9 -13.5q2 -3 4.5 -5t4.5 -4.5l4 -5t2 -7.5q0 -3 -2 -5.5t-3.5 -5.5t-3 -5.5t-1.5 -5.5q0 -2 0.5 -4t2.5 -3q13 -3 19.5 -5t10 -6.5t4 -11.5t0.5 -20
q0 -7 -4.5 -11t-9 -6t-8.5 -3l-4 -1v-13q0 -4 -2.5 -4.5t-4.5 -0.5h-2.5t-1.5 1q0 9 -1 13.5t-3 6t-5 1.5h-6t-6 1.5t-5 6.5v4v6v5.5v4.5l-0.5 2t-0.5 4t-0.5 4l-0.5 2q0 5 3 7.5t7 4.5t7 4.5t3 6.5q0 2 -5 6t-10.5 8t-10.5 7.5t-5 5.5q0 1 0.5 2.5t2.5 2.5q1 0 3 -0.5
t2 -1.5l15 -14q1 -2 3.5 -2h4.5h2q2 0 2 2v3v3q0 4 -1 8t-3 7.5t-4.5 7.5t-3.5 8q-1 1 -3 2.5t-3.5 3l-3.5 3.5t-2 5v4v6v6v3zM92 148v11q0 5 1 11t3.5 10.5t6.5 8.5q1 0 4 1t3.5 1.5t2 3t2.5 3.5q0 2 0.5 6t1 9.5l1 11t1.5 10.5t3 8t5 3t5 -2.5t2 -4.5q0 -3 -1 -10
t-3.5 -15t-4.5 -14.5t-4 -9.5q-5 -7 -9 -9.5t-6.5 -5.5t-4 -7.5t-1.5 -15.5v-4v-3l2 -1q9 1 13.5 -2t6.5 -8t2.5 -11.5t1.5 -12.5q4 -18 6 -37.5t2 -38.5v-3.5v-3.5q0 -2 -3 -2h-3h-5.5t-2.5 4q0 6 1.5 12.5t1.5 13.5v5t-0.5 4t-1 3.5t-0.5 4.5q0 2 -0.5 8.5t-1.5 14
t-1.5 14.5t-1.5 9q-1 5 -3 9.5t-8 4.5q-3 1 -4.5 -0.5t-1.5 -4.5q0 -5 2 -10.5t2 -11.5v-1v-4v-4v-2q1 -2 1.5 -8t1 -12.5t1 -12.5t0.5 -9q3 -5 4 -13.5t1 -14.5q0 -2 -1.5 -3.5t-3.5 -1.5q-3 0 -4.5 2.5t-2.5 5.5q-2 30 -5 60.5t-3 60.5zM171 178q0 6 2 9.5t5.5 5t8 2
t10.5 0.5q7 0 11.5 -4.5t4.5 -11.5q0 -1 -0.5 -3.5l-1 -5l-1 -5l-0.5 -2.5h-14q0 4 2 7t2 6t-1.5 6t-3.5 3h-11q-1 0 -1 -1t-0.5 -2t-0.5 -2v-1q0 -6 2 -10.5t5 -9t6 -8.5t5 -9q0 -1 0.5 -3.5t0.5 -5.5v-6v-5v-4t-0.5 -6t-2 -5t-4.5 -2v0h-1q0 1 -1.5 2l-1.5 1q0 1 0.5 3
t0.5 4t0.5 3.5t0.5 2.5v3q0 8 -3.5 14.5l-7 13l-7 13t-3.5 13.5zM152 68v-1l1 -2.5t2 -2.5h13l0.5 0.5t0.5 1.5l1 2l1 2v1v4t-0.5 4.5t-2 4t-3.5 1.5q-3 0 -5 -1.5t-4 -4t-3 -5t-1 -4.5zM184 62h11l2 2v1.5v2.5q0 8 -4 11t-13 3v-3q0 -2 1 -2q0 -2 0.5 -5.5t0.5 -5.5v-2z
M153 48q0 -2 1.5 -4t3.5 -3t4.5 -1h4.5q5 0 6 2.5t1 7.5q0 3 -1.5 4.5t-3.5 1.5h-5q-2 0 -4.5 -1t-4.5 -2.5t-2 -4.5zM182 54v-2q0 -4 1 -8t6 -4h2t4 0.5t3.5 1t1.5 1.5v11q0 1 -1.5 1.5l-1.5 0.5h-2q-1 0 -2.5 -0.5t-3.5 -1t-4 -0.5h-3z" />
</svg>
