<?xml version="1.0" standalone="no"?>
<!DOCTYPE svg PUBLIC "-//W3C//DTD SVG 1.1//EN" "http://www.w3.org/Graphics/SVG/1.1/DTD/svg11.dtd" >
<svg xmlns="http://www.w3.org/2000/svg" xmlns:xlink="http://www.w3.org/1999/xlink" version="1.1" viewBox="-10 0 266 256">
   <path fill="currentColor"
d="M63 208v17q0 1 0.5 5.5t1.5 9t3 8t5 3.5q6 0 6 -6q0 -5 -1.5 -10l-3 -10t-2.5 -10t-1 -10q0 -12 4.5 -23t9.5 -22q1 -3 3 -6l4 -6t3.5 -6.5t1.5 -6.5t-1 -5.5t-2.5 -5t-3 -4.5t-1.5 -5q0 -7 3.5 -9t8.5 -3.5l10 -3t8 -6.5q2 -5 3.5 -12.5t1.5 -12.5q0 -2 -0.5 -6l-1 -8
t-1.5 -7.5t-2 -4.5t-4 -2l-6 -2t-5 -1.5l-2 -0.5v-20q0 -3 -2.5 -3h-3.5h-3.5t-2.5 1v22l-1.5 0.5t-2.5 0.5q-3 1 -6.5 1t-7 1t-6 3.5t-3.5 7.5q-1 8 -1.5 15t-0.5 15q0 9 3.5 13t7.5 6t7.5 3t3.5 4q0 2 -1.5 5l-2.5 5l-27 26q-3 0 -4.5 2.5t-1.5 5.5q8 0 13.5 -4t9 -8.5
t7 -8.5t6.5 -4t5 2t2 4q0 7 -3.5 14.5t-8.5 15t-9 15t-5 15.5v17zM133 206q0 2 1.5 3.5t3.5 1.5q17 0 32.5 -2t32.5 -1q2 -1 2.5 -2.5t0.5 -3.5q0 -4 -4 -4q-5 0 -9.5 1t-9.5 1h-7l-3 -3v-2v-3q0 -7 2.5 -9.5t5.5 -2.5t5.5 -0.5t2.5 -4.5q0 -2 -2 -2.5t-4 -0.5t-4 0.5
t-3 -0.5q-3 -1 -3.5 -4t-0.5 -7q0 -3 -0.5 -6t-2.5 -3t-2.5 0.5l-1.5 1.5v3.5t-0.5 5t-1 5.5t-1.5 4q0 2 -3 2.5t-5 0.5q-3 0 -5.5 0.5t-2.5 3.5q0 2 4 3q1 0 2.5 -0.5t3.5 -0.5h4h2v17q0 1 -2.5 2.5l-2.5 1.5h-16q-3 0 -5.5 0.5t-2.5 3.5zM91 188q0 4 3 6t7 2q8 0 14.5 -4
t6.5 -13q0 -5 -3 -8l-6 -6q-2 -1 -3 0t-1 3q0 1 1 2.5l2 3t1.5 3t0.5 2.5q0 2 -1 4t-3 3l-4 2t-4 1q-3 0 -4 -2.5t-1 -4.5q0 -5 2.5 -10.5t5.5 -11t5.5 -11t2.5 -11.5q0 -2 -0.5 -5t-1 -5.5t-3 -4.5t-5.5 -2q0 4 1 8t1 8q0 7 -2.5 13.5t-5 12.5t-4.5 12t-2 13zM168 142
q5 0 10 3.5t9.5 8l8.5 8.5t8 6h1q2 0 3 -2t1 -4q0 -5 -6 -8.5t-13 -7t-12.5 -8t-5.5 -10.5v-2v-3.5t1 -3t2 -1.5h18q1 0 3.5 -2.5t2.5 -4.5q2 -2 2 -6.5v-7.5v-2v-3t-1 -3t-2 -1h-22q-2 0 -2.5 -2t-0.5 -3q0 -4 2.5 -5.5t5 -2.5l5 -2t3.5 -5v-3t0.5 -4.5t0.5 -4.5v-3l3 -3
q1 0 3.5 -0.5l5 -1t4.5 -1t3 -0.5q2 -1 2.5 -1.5t0.5 -2.5q0 -3 -1.5 -3.5t-4.5 -0.5h-5h-1t-2 0.5l-2 1l-1 0.5l-2 -2t-1 -2v-19q-6 0 -8 1.5t-3 3.5t-0.5 5t0.5 5.5t-1 5t-4 3.5h-6q-8 0 -9.5 -2.5t-1.5 -5.5v-6q0 -3 -4 -3q-2 0 -3 2t-1 5v4.5v2.5q0 1 -2 3l-2 2h-16v1.5
t0.5 3t1.5 1.5h17v4.5t0.5 5.5t0.5 5.5v3.5q1 4 3 5t4.5 2t4.5 2t2 5v2.5t-1 2.5q-4 0 -8 0.5t-7.5 2.5t-5.5 5.5t-2 7.5q0 10 6 14t15 2q2 1 2 3v3q0 5 -3 9.5t-7 8t-9 6.5t-9.5 5.5t-7.5 5t-3 4.5q0 1 1 1h2q5 0 10 -3t9.5 -7l9 -8t8.5 -6h1h2zM183 127q0 3 2.5 6.5t6 6
t7 4.5t6.5 2q2 0 3 -1.5t1 -2.5q0 -2 -3.5 -5t-7.5 -5t-8.5 -3.5t-6.5 -1.5zM131 137v5q2 0 5.5 -1t7 -2.5t6 -4t2.5 -4.5h-1q0 -1 -0.5 -2t-0.5 -2h-1h-1zM147 107q0 -5 4 -9t9 -4q2 0 3 1t1 2.5v3v2.5v4v2q-1 3 -4 3.5t-5 0.5q-3 0 -5.5 -1t-2.5 -5zM173 102
q0 -5 3.5 -6.5t7.5 -1.5t6.5 1t2.5 5q0 7 -4.5 9t-9.5 2h-4q-1 -2 -1.5 -4t-0.5 -5zM99 94l-0.5 -2t-0.5 -3.5t-0.5 -3l-0.5 -1.5v-1q0 -6 2.5 -9t8.5 -3q4 0 4.5 3t0.5 5t-0.5 5t-2 5.5t-3.5 4.5t-4 2h-1v0q-1 0 -2 -0.5t-1 -1.5zM71 82q0 -1 0.5 -2.5t0.5 -2.5l2 -1h16
q0 3 -0.5 8.5t-1.5 9.5q-1 0 -2.5 0.5t-2.5 0.5q-6 0 -9 -3.5t-3 -9.5zM171 50q2 0 5 -0.5t5 1.5v2v2q0 2 -0.5 4.5t-1.5 4.5t-2.5 3.5t-3.5 1.5h-1q-3 0 -7 -0.5l-4 -0.5q-1 0 -1.5 -0.5t-0.5 -1.5v-15l2 -0.5t3 -0.5h7zM72 61q0 -5 3 -10t9 -5q1 0 3 0.5l2 0.5
q1 0 1.5 0.5l0.5 0.5v17l-0.5 0.5t-1.5 0.5q0 1 -2.5 1.5t-3.5 0.5h-1q-5 0 -7.5 -1t-2.5 -6zM106 46q4 0 6 4.5t2 7.5t-2 5t-4 2l-2 -0.5t-3 -1.5l-1.5 -0.5l-1.5 -0.5v-12q0 -3 2 -3.5t4 -0.5z" />
</svg>
