<?xml version="1.0" standalone="no"?>
<!DOCTYPE svg PUBLIC "-//W3C//DTD SVG 1.1//EN" "http://www.w3.org/Graphics/SVG/1.1/DTD/svg11.dtd" >
<svg xmlns="http://www.w3.org/2000/svg" xmlns:xlink="http://www.w3.org/1999/xlink" version="1.1" viewBox="-10 0 266 256">
   <path fill="currentColor"
d="M60 248q0 2 2 2.5t4 0.5q4 0 7 -3.5t5 -8t4.5 -8t7.5 -3.5q1 0 4 3t5.5 7t5 7.5t4.5 4.5l0.5 0.5t1.5 0.5q2 0 3 -2t1 -4v-1v-2l-5.5 -5.5t-6.5 -8t-5.5 -8.5t-2.5 -8v-25q0 -1 2 -2t4.5 -2t4.5 -2t3 -2q4 -4 6 -8.5t2.5 -9t1 -9.5t3.5 -10q0 -1 2.5 -2.5l5 -3t5.5 -3.5
t4 -4h1.5h0.5q2 0 2.5 1t0.5 4v92v3.5t-0.5 5.5t-0.5 5.5t-1 3.5v2q0 1 0.5 2.5t2.5 1.5q1 0 3 -1t2 -2q2 -19 3 -37.5t1 -37.5q0 -11 -1 -21.5t-1 -21.5v-13q3 -4 4.5 -4.5t4.5 -0.5q4 0 7.5 2t5.5 5q0 2 0.5 9t0.5 15t0.5 14.5t0.5 9.5v6v10v11v5q0 7 0.5 13t1.5 12t1 12
v12l2 3l1.5 0.5l1.5 0.5q4 0 6 -0.5t2 -4.5q0 -10 -2.5 -20t-4.5 -19q-2 -21 -2 -40.5v-39.5q4 0 7.5 2t7.5 2q1 0 4 -0.5t3 -2.5q0 -4 -6.5 -7.5t-14 -7.5t-13.5 -7.5t-6 -7.5v-27h32q1 0 1 -1.5v-2.5q0 -3 -2 -4t-4 -1q-4 0 -8 1t-7 1h-1h-2t-3 -0.5t-3 -0.5t-2 -1v0
q0 -8 1 -15.5t1 -15.5v-3v-4.5v-4.5v-4q-1 0 -2 -1.5l-1 -1.5h-1q-2 0 -4 2.5t-2 4.5v46h-25l-1 0.5t-2 1.5t-1.5 2t0 2t2 2.5t2.5 1.5q2 1 4.5 0.5t4.5 -1.5t4.5 -1.5t4.5 -0.5h1l2.5 1.5l2.5 1.5v26l-2.5 2.5l-3.5 3.5l-3.5 3.5t-1.5 2.5q-2 2 -4 4.5t-4.5 5t-5 4.5
t-5.5 2q-4 0 -5 -2.5t-1 -5.5t0.5 -6.5t0.5 -5.5q-1 -10 -5 -14.5t-8.5 -6t-8.5 -2.5t-4 -3q0 -7 4 -11t8.5 -7.5t8 -7t3.5 -9.5t-3.5 -8.5t-8 -4t-9 -2t-7.5 -3.5q-1 -1 -3.5 -3l-5 -4t-4.5 -4.5t-3 -3.5h-1h-1q-2 0 -2.5 1.5t-0.5 3.5q0 5 2.5 7.5t5.5 4t5.5 3.5t2.5 5
t-2.5 4.5t-5 2.5t-5.5 2.5t-5 3.5q0 1 -1.5 4t-3.5 6.5t-3.5 6.5t-2.5 4v1.5v2.5q0 3 0.5 4.5t3.5 1.5t4.5 -2t2.5 -4.5t1 -5.5t1 -5q1 -3 3 -5.5t4.5 -4.5t5.5 -3.5t6 -3.5q0 -1 1 -2l2 -2l2 -2t2 -1h2h3.5t4.5 0.5t3.5 2t1.5 3.5q0 3 -2 5t-5 4t-5.5 3.5t-4.5 4.5
q-2 2 -3 4.5t-1 4.5v4.5t-1 5.5q0 3 -2.5 3.5t-5.5 0.5t-7 1.5t-7 5.5t-5 12t-2 22q0 11 0.5 21.5t4.5 21.5q1 2 4.5 4.5t7 4.5t6.5 3t3 2v25l-1 2t-2.5 4.5t-2.5 5t-2 4.5t-4.5 4t-6.5 4.5t-5.5 5.5t-2.5 6zM55 225q0 4 4 4h1h1q5 -4 7.5 -7t3.5 -6.5t1.5 -7.5t0.5 -11
q0 -2 -1 -4.5t-4 -2.5h-1v1q-2 1 -3 4t-1.5 6t-0.5 6v5t-1.5 3.5l-3 3t-2.5 3t-1 3.5zM106 200q0 3 0.5 7.5t2 8.5t4 7t6.5 3q2 0 3 -0.5t1 -3.5v-1l-2 -3l-2 -3q-2 -2 -3.5 -6.5t-2.5 -8.5t-2 -7t-3 -3v1q-1 0 -1.5 0.5l-0.5 0.5v4v4zM76 165q0 -2 2 -4t4.5 -4t5.5 -3t4 -1
q3 0 5.5 1t5 3t4 5t1.5 5q0 3 -1.5 4.5t-3.5 2.5t-4.5 1.5t-4.5 0.5q-3 0 -6 -0.5t-6 -1.5t-4.5 -3t-1.5 -6zM92 117q1 0 1.5 0.5t1.5 0.5q4 2 7 4t6 4.5t4.5 5.5t1.5 8v1v1q0 1 -0.5 3.5t-1.5 2.5l-2.5 0.5l-2.5 0.5q-7 0 -11 -5t-4 -12h-1.5h-0.5q-3 0 -3 3t-0.5 7t-2.5 7
t-9 3h-1l-3 -3l-2 -2v-17l3 -2t7 -4.5t8 -4.5t5 -2zM72 111q0 -5 3.5 -9t8.5 -4q4 0 4.5 1.5t0.5 5.5q0 5 -3.5 8t-8.5 3q-3 0 -4 -1t-1 -4zM94 102q0 -3 2 -4.5t5 -1.5q5 0 9 4.5t4 9.5q0 3 -1 4t-4 1q-6 0 -10.5 -3t-4.5 -10z" />
</svg>
