<?xml version="1.0" standalone="no"?>
<!DOCTYPE svg PUBLIC "-//W3C//DTD SVG 1.1//EN" "http://www.w3.org/Graphics/SVG/1.1/DTD/svg11.dtd" >
<svg xmlns="http://www.w3.org/2000/svg" xmlns:xlink="http://www.w3.org/1999/xlink" version="1.1" viewBox="-10 0 266 256">
   <path fill="currentColor"
d="M123 222q0 2 1 7t3 10t4.5 8.5t5.5 3.5q4 0 4 -4v-1q-1 -2 -2.5 -4.5t-3.5 -4.5t-3 -4.5t-2 -4.5q0 -1 0.5 -5.5t0.5 -5.5q4 0 8.5 -0.5t9.5 -0.5q1 0 2.5 2.5t3 6.5t3.5 8.5t4 8.5t4 6.5t4 2.5q5 0 5 -4t-1.5 -7.5t-4 -6.5l-5 -6t-3.5 -6q-1 -1 -2 -3t-2 -4.5t-2 -5.5
t-2 -4q-1 -3 -3.5 -7t-7.5 -4h-42q-2 0 -2 -2v-4v-2.5t2 -3.5q5 0 10 -0.5t9 -0.5h8h10q7 0 12 2t8.5 5.5t6 8.5t4.5 11q0 1 1.5 4l3.5 7t3.5 8t2.5 6.5t1 3t2 0.5q3 0 4.5 -2t1.5 -4q0 -3 -1 -5t-2.5 -4l-3 -4t-2.5 -4q-6 -13 -9 -20.5t-8 -12t-13 -5.5t-24 -1h-13.5
t-13.5 1q-3 0 -3 -1.5v-3.5v-3.5t2 -3.5q8 -1 18 -2t19 -1h1q1 0 5 0.5t9 0.5t9.5 0.5t5.5 0.5h3q2 1 4.5 5.5t5 10t5 11.5t4.5 11t3.5 8.5t3.5 3.5t2.5 -1.5t0.5 -3.5q0 -3 -2 -12t-5 -17.5t-7.5 -15t-8.5 -6.5h-69l-7 -2v-10v-17v-6t0.5 -7.5t0.5 -6v-2.5l2 -4h2.5h6
t7.5 -0.5t7 -0.5h1h3.5h3.5h3h9h7.5t8 0.5t9.5 0.5q4 2 5 4.5t1 6.5t-1.5 6t-4 3t-5.5 1.5t-5 0.5h-6h-10h-9h-6h-3.5t-5.5 1t-5.5 1t-3.5 1q-1 0 -1.5 2.5t-0.5 3.5v0v1q0 1 0.5 4.5t1.5 4.5q0 1 1 1.5t2 0.5q15 2 31 2t31 1h4q2 0 4 -1t2 -4l-0.5 -1.5t-1.5 -1.5h-61
q-2 0 -4 -1t-2 -3t1.5 -3.5t4 -2t4.5 -0.5h4t8 -0.5t12 -0.5q7 0 12.5 0.5t8.5 0.5q7 -3 9.5 -8.5t2.5 -13.5v-3v-4q-3 -4 -7 -5t-8 -1h-5.5h-7.5h-8h-5l-3 -1v-9q0 -1 3.5 -1.5t5.5 -0.5q9 -1 16 -1.5t11.5 -3t6.5 -8t1 -16.5h5.5h7t6.5 -1.5t3 -4.5q0 -1 -0.5 -1.5
l-1.5 -1.5h-6q-12 0 -24 1.5t-24 1.5h-9l-0.5 -2.5t-0.5 -3.5v0q0 -3 2.5 -4t6.5 -1.5t8.5 -1t8.5 -2t6.5 -4.5t2.5 -8v-2v-3.5t-0.5 -2.5t-2.5 -1h-2l-2.5 1t-3.5 1q0 5 -1 8t-3 4.5t-5 2.5t-8 1q-5 1 -9 1t-7.5 0.5t-7.5 0.5h-8q-8 0 -11.5 -1.5t-5.5 -3.5t-2.5 -4.5
t-0.5 -4.5t-1 -3.5t-4 -1.5q-2 0 -3 1.5t-1 3v3v2.5v7q3 4 6.5 5.5t8 2.5t8.5 1h9v0q1 0 2.5 -0.5t2.5 -0.5h1h1q2 0 4.5 0.5t2.5 3.5q0 2 -0.5 5t-4.5 3h-41h-2.5t-5 0.5t-4.5 0.5h-3h-2q-2 0 -4.5 -0.5t-5.5 -0.5t-5 0.5t-2 3.5t1 4t4 1h31q0 5 0.5 9t2 7t5 4.5t9.5 1.5
q1 1 5 1t8.5 0.5t8.5 0.5h5v11q-1 0 -6 0.5l-10 1t-9.5 0.5t-6.5 1q-5 0 -7 2.5t-3.5 6.5t-1.5 8.5v7.5v24v24v9q0 4 1 9t3.5 8t7.5 3h41q4 0 6 3.5t2 6.5v2q-4 1 -13 1t-18.5 1t-17 2t-8.5 4v5q0 2 1 6.5t2.5 9t4 7.5t5.5 3q2 0 2.5 -1t0.5 -3q0 -5 -3 -10.5t-5 -9.5
q2 -4 5 -5t8 -1h6t6 3zM103 112l0.5 1l0.5 1h4.5h4.5h5.5h4.5q2 0 7 -0.5t11 -0.5t11 -0.5t7 -0.5l1 -0.5l1 -0.5v-1v-1l-1 -0.5t-1 -1.5h-1v0q-3 1 -11 1t-16.5 0.5t-16 0.5h-10.5l-0.5 1.5zM95 61v-2v-1q6 -1 13 -2t13 -1h2t2.5 0.5t2.5 1t1 1.5v14q0 1 -4 2t-7 1h-4
q-4 0 -7.5 -0.5t-6 -1.5t-4 -4t-1.5 -8zM137 65v-5t2 -5q5 -1 8.5 -1t6 -0.5t5.5 -0.5h7h3.5h3.5q1 1 1 1.5v1.5q0 7 -2 10.5t-5.5 5t-8 1.5h-10.5h-4h-3l-3 -3l-0.5 -2t-0.5 -3z" />
</svg>
