<?xml version="1.0" standalone="no"?>
<!DOCTYPE svg PUBLIC "-//W3C//DTD SVG 1.1//EN" "http://www.w3.org/Graphics/SVG/1.1/DTD/svg11.dtd" >
<svg xmlns="http://www.w3.org/2000/svg" xmlns:xlink="http://www.w3.org/1999/xlink" version="1.1" viewBox="-10 0 266 256">
   <path fill="currentColor"
d="M94 211q0 3 0.5 9.5t2 13t4.5 12t8 5.5q3 0 4.5 -0.5t1.5 -3.5q0 -4 -2 -8t-4.5 -8t-4.5 -8.5t-2 -10.5q0 -5 1.5 -10.5t4 -10.5t4 -10t1.5 -11t-3.5 -9.5t-7.5 -5t-7.5 -3t-3.5 -3.5q0 -5 2 -6.5t4.5 -2.5t5 -1.5t4.5 -2.5q1 -1 1.5 -4t1 -6.5t0.5 -7v-5.5v-19
q0 -2 1.5 -3t3.5 -1t4 -1t2 -3q0 -3 -1.5 -7.5t-4 -9.5t-4.5 -10t-2 -10q-1 -2 -1.5 -6.5t-1 -10t-1 -10.5t-0.5 -7q0 -1 -1.5 -2.5l-2.5 -2.5q-2 0 -3 1t-1.5 2t-0.5 3v2v3q0 2 1 7.5t1.5 11.5t1 11t1.5 7q1 3 2 5.5t1.5 4.5l1 4t0.5 4q0 1 -0.5 3t-0.5 3q-1 2 -4 3v3.5
v4.5t-1 4t-2 3q-1 0 -3 0.5t-4 0.5t-4 0.5t-3 0.5h-1q-4 0 -5 -2t-2 -4.5t-2 -4.5t-4 -3v-6q0 -9 1.5 -18t1.5 -18v-9.5t-0.5 -10t-3.5 -8t-9 -3.5q0 10 2 20t2 20v5q-1 2 -2 6t-2 9t-2 9t-2 5q-2 2 -3 5.5t-1 6.5q4 0 7 -2t6 -2q2 0 2.5 2t1 5t0 5l-0.5 2q0 1 0.5 4.5
t0.5 7t0.5 6.5t0.5 4q1 3 3.5 3.5t5 1.5t5 1.5t3.5 2.5q-1 4 -3 7l-4 6t-4.5 5.5t-4.5 6.5q-7 15 -9 32.5t-2 35.5l0.5 2.5t0.5 3.5q0 2 1 2h3h2.5t2.5 -2q0 -9 -0.5 -19.5t1 -20.5t5 -19.5t10.5 -17.5q0 -1 2 -3t4 -2q5 0 9 3.5t4 9.5q0 4 -1.5 8t-3.5 9t-4 10.5t-2 11.5z
M130 248q1 1 2 1h2h2t2 -1v-8q0 -9 -2 -17.5t-2 -17.5q0 -1 0.5 -5t0.5 -5t2 -3t4 -2t3 1.5t1 3.5q1 2 1.5 7.5t1 12t1.5 12.5t1 8q1 4 1.5 7.5t4.5 5.5l3 -3v-2.5v-3.5q0 -11 -2 -22t-2 -22v-6q1 -2 2 -2h2q2 0 3.5 1.5t2.5 3.5t1.5 4t0.5 4q1 2 2 8t2 12.5t2 12.5t2 8
q0 1 0.5 2t0.5 2h0.5h0.5q3 0 4.5 -3t1.5 -6q0 -2 -1 -7.5t-2.5 -13t-3.5 -15.5l-4 -16t-4 -13.5t-4 -8.5q-2 -2 -5.5 -3t-7.5 -1.5t-6.5 -2t-2.5 -5.5q0 -3 1 -5t4 -3h3.5h3.5q4 0 7 0.5t6 4.5q1 2 3.5 7.5l5 11l5 11t3.5 7.5t2.5 7t4 11t5 10.5t5.5 4.5q1 0 3 -0.5t2 -2.5
v-1q-1 -1 -1.5 -3t-1.5 -4t-1.5 -4l-0.5 -2q-1 -2 -2 -4.5t-2.5 -5.5t-3 -5.5t-1.5 -3.5q-1 0 -3 -2t-2 -3l-0.5 -1.5t-0.5 -3v-2.5v-2q-2 -7 -6 -13.5t-8 -12.5q-2 -2 -4 -4.5l-2 -2.5h-21q-2 0 -2.5 -2.5t-0.5 -3.5q0 -2 0.5 -3.5t1.5 -3.5q1 -1 3.5 -1t5.5 -0.5t5.5 -0.5
h4.5h3h5t5 2q4 5 8 12t6 12q1 2 1.5 5.5t1.5 7.5t2.5 6.5t4.5 2.5t3.5 -2.5t0.5 -4.5q0 -5 -2.5 -9t-3.5 -9q-4 -11 -8 -17.5t-10 -9.5t-14 -3.5t-21 -0.5l-1 -1v-5.5t-0.5 -12.5t-0.5 -14.5v-12.5l-1 -1q0 -2 5.5 -2.5t12.5 -1.5t12.5 -2t5.5 -3v-1q-1 0 -1.5 -0.5
l-0.5 -0.5h-32l-3 -2v-15.5t-2 -15.5q0 -2 -1.5 -3.5t-2.5 -1.5q-2 0 -3 1.5t-2 3.5q1 17 3 34t2 34q0 14 -1 27.5t-1 26.5q0 9 2 13.5t5 6.5t7 2.5t7 1.5t5 3t2 8q0 1 -0.5 1.5t-2.5 1.5q-6 1 -12 1.5t-11 1.5q-5 3 -7.5 6t-2.5 8q0 8 0.5 16.5t1.5 15.5l1 1.5l1 1.5v3
t0.5 5t0.5 5v3zM76 119v-3.5t2 -2.5q1 -1 3.5 -1.5t5.5 -1t5.5 -1t3.5 -1.5h1h1h1.5t1.5 2v17q0 1 -1.5 2t-3.5 1.5t-3.5 0.5h-2.5q-6 0 -10 -2.5t-4 -9.5zM153 91q0 5 3.5 7.5t8 3.5t9.5 1q4 0 7 1l1.5 0.5l1.5 0.5h6h6q1 0 1.5 -1t0.5 -2q0 -2 -0.5 -3t-2.5 -2
q-3 0 -8.5 0.5t-11 0t-9.5 -2.5t-4 -7q0 -2 0.5 -4.5t3.5 -3.5l21 -3q2 0 3.5 -2.5t3 -5.5t2 -6t0.5 -4v0v-1v-4t-0.5 -6t-0.5 -4.5v-1.5l-8 -8h-7h-16t-16 1q-2 0 -2.5 1t-0.5 2q0 2 0.5 3t2.5 1h35q1 0 2 2.5t1.5 6t0.5 7v4.5q0 4 -2.5 6t-6 3t-8 1.5t-8.5 2t-6.5 5.5
t-2.5 11z" />
</svg>
