<?xml version="1.0" standalone="no"?>
<!DOCTYPE svg PUBLIC "-//W3C//DTD SVG 1.1//EN" "http://www.w3.org/Graphics/SVG/1.1/DTD/svg11.dtd" >
<svg xmlns="http://www.w3.org/2000/svg" xmlns:xlink="http://www.w3.org/1999/xlink" version="1.1" viewBox="-10 0 266 256">
   <path fill="currentColor"
d="M57 246q0 1 1 2.5t2 2.5q7 -4 11.5 -10t7 -13.5t4 -15.5t3.5 -16q1 0 2 -1.5l1 -1.5h1q2 0 4 4t3.5 10t3 13t4 13t6 10t7.5 4q0 -8 -3.5 -14.5t-6.5 -13.5q-5 -15 -9.5 -31t-4.5 -33v-12.5t1 -12.5h2q5 0 9.5 6.5t7.5 14.5t5.5 14t4.5 6t4 -1t2 -4v-0.5v-0.5
q-1 -3 -3 -6.5l-4 -7t-3.5 -7t-3.5 -6.5l-1.5 -1.5t-3 -3.5t-3.5 -4l-3 -3t-3 -2.5t-3 -2.5l-2.5 -2.5t-1.5 -3.5q0 -10 3 -13.5t6.5 -4.5t6 -2t2.5 -6q-4 0 -8.5 0.5t-8 2.5t-6 5t-2.5 9v2v2v4v1q-1 2 -3.5 4.5t-5 4.5t-5.5 4t-4 2q-2 2 -5.5 6.5t-7 10t-6 11t-2.5 8.5
t1 3.5t2 0.5q3 0 5 -3l5 -7.5t5.5 -9.5t5.5 -9t6 -7t7 -3q0 13 -1 24.5t-2.5 22t-5 21t-8.5 22.5q-1 3 -3.5 6t-4 6.5t-3 6.5t-1.5 6zM135 243l1 1.5t2 1.5v0q5 0 5 -3v-3q0 -3 -0.5 -9t-0.5 -13t-0.5 -13.5t-0.5 -8.5q0 -1 -0.5 -3t-0.5 -3v-1q0 -2 1.5 -4.5t3.5 -2.5h2
t2 1q1 13 3 25t3 24v3t0.5 4l1 4t0.5 3l1 0.5l1 0.5q2 0 3 -1.5t1 -4.5l-8 -58v-3v-3t3 -1q1 0 2 0.5t1 1.5q1 1 2 4.5t2.5 8t2.5 8t1 5.5q0 1 1 5.5t1.5 10t1 10t1 5.5t1 3l1 4t1.5 3t3 1t2.5 -1.5t0.5 -3.5v-1v-2q-4 -18 -7.5 -36t-7.5 -36q-1 -3 -4 -6.5l-6 -7t-5.5 -6.5
t-2.5 -5q0 -4 2 -5.5t5 -1.5h6.5t5.5 1q2 2 5 7.5t5.5 12.5t4.5 13t2 8q1 1 1 3.5t0.5 5.5l1 6l0.5 3q1 2 2.5 7.5l3 11l3 11t2.5 6.5q1 2 1.5 2h2.5t2.5 -1t0.5 -3v-1v-1q-1 -2 -2 -5.5t-2.5 -8t-2.5 -8t-1 -5.5q-2 -8 -4 -18t-5 -19.5t-7.5 -18t-11.5 -14.5q-2 -1 -5 -1.5
l-6 -1t-5.5 -2t-2.5 -3.5v-10q3 0 7.5 -0.5t8.5 0t8 1.5t7 3t5.5 7.5t4.5 12.5t4 14.5t3.5 14t3 10.5t3.5 4q3 0 3.5 -3t0.5 -5q0 -4 -2.5 -13t-6 -19t-8 -18t-8.5 -11q-3 -3 -8 -3.5t-10 -1.5t-9 -2.5t-6 -6.5v-12v-7q0 -4 0.5 -7t0.5 -7t1 -8q0 -1 1 -1.5t3 -0.5
q1 0 2.5 0.5l1.5 0.5q1 0 4 -0.5t6.5 -0.5t7 -0.5t4.5 -0.5l1 -0.5t2 -1.5v0v-1l-2 -2h-2h-4h-4h-2h-4.5t-5 -0.5t-4.5 -0.5h-2l-1 -2q0 -1 -0.5 -3.5t-0.5 -5t-0.5 -5t-0.5 -3.5q0 -3 -3 -3h-0.5h-1.5q-2 26 -3.5 52.5t-1.5 52.5v18q1 3 3 5.5t4.5 5.5t5 5t3.5 3v1
q0 2 -4 3.5t-9.5 4t-10 6.5t-4.5 11v3v4.5v5.5v4v17.5t2 17.5zM169 93q1 1 5 1.5l8 1t7.5 1.5t4.5 1h1q4 0 4 -4v-1v-2q-2 0 -5.5 -1t-8 -1.5t-8 -1.5t-5.5 -2l-1.5 -0.5l-1.5 -0.5v-2v-2v-3t2 -3l26 -4q3 -1 4.5 -3.5t2.5 -5.5t1 -6.5v-5.5q0 -6 -3 -10t-8 -6t-11 -2h-11
h-8l-0.5 1t-0.5 2v1v0q0 1 0.5 1.5l0.5 0.5l29 3q1 0 2 2.5t1.5 5.5t0.5 5.5v3.5q0 5 -2.5 6.5t-6.5 2t-8.5 1t-8.5 2t-7 5t-3 10.5q0 2 1 3t2.5 2t2.5 2zM70 84q0 2 0.5 3t3.5 1q1 0 2.5 -1t1.5 -3v-24q2 0 5 -1t5.5 -2.5t4.5 -3.5t2 -5v-19q0 -1 -1 -3t-2 -2
q-2 0 -2.5 1.5t-0.5 2.5q0 3 1 5.5t1 4.5t-0.5 4t-1.5 4t-2.5 3.5t-3.5 1.5h-2t-1 -2q0 -1 -0.5 -5t-0.5 -8t-0.5 -8t-0.5 -5q0 -3 -0.5 -5.5t-3.5 -2.5h-2.5t-1.5 2v34l-0.5 0.5t-0.5 1.5h-0.5h-0.5h-0.5h-0.5l-5 -7v-17q0 -3 -2 -3q-3 0 -5 3v5v5q0 8 1 12t3 6t4.5 2
t4.5 1t3 3t1 6t-1 7.5t-1 7.5zM103 27v19q0 3 2 5t4.5 4t4.5 3t2 2v24q0 1 1.5 2.5t2.5 1.5t2 -1.5t2 -2.5v-20q0 -5 2.5 -6.5l5 -3t4.5 -5.5t2 -13v-10l-1 -0.5t-1 -1.5h-1q-3 0 -3.5 4t-0.5 9t-0.5 9t-4.5 4l-1 -1l-0.5 -0.5l-0.5 -0.5v-33q0 -2 -1.5 -2.5t-3.5 -0.5h-2
t-1 2v28q0 1 -0.5 3.5t-1.5 3.5q0 1 -0.5 1.5l-0.5 0.5q-3 -3 -4 -6.5t-1 -7.5t-1 -7t-4 -3z" />
</svg>
