<?xml version="1.0" standalone="no"?>
<!DOCTYPE svg PUBLIC "-//W3C//DTD SVG 1.1//EN" "http://www.w3.org/Graphics/SVG/1.1/DTD/svg11.dtd" >
<svg xmlns="http://www.w3.org/2000/svg" xmlns:xlink="http://www.w3.org/1999/xlink" version="1.1" viewBox="-10 0 266 256">
   <path fill="currentColor"
d="M132 242q0 3 1.5 6t4.5 3q2 0 3.5 -1t1.5 -3v-44q0 -3 5 -4.5t12 -1.5t16 0.5t16 0t12 -3t5 -6.5v-3q0 -3 -1 -3h-6q-5 0 -9 1.5t-9 1.5q-3 0 -4 -2.5t-1 -4.5v-4v-5.5t1 -4.5t2 -2h21q1 0 1.5 -2t0.5 -3q0 -2 -1.5 -4.5t-3.5 -2.5q-5 0 -9.5 0.5t-10.5 0.5q0 -1 -0.5 -2
t-0.5 -3v-3v-2q0 -2 0.5 -4t1.5 -2h24q1 0 1 -3v-4v-2.5t-1 -2.5h-26v-13q6 0 11 2.5t10 2.5q2 0 4 -1.5t2 -4.5t-3.5 -6t-7.5 -4.5t-8.5 -2t-7.5 -0.5v-4l7.5 -2.5t8.5 -4t7 -5.5t3 -7q0 -6 -4 -10.5t-9.5 -7.5t-11 -5.5t-9.5 -5.5q0 -1 -0.5 -6t-1 -10.5t-2 -9.5t-3.5 -4
q-3 0 -5 2t-2 4q0 5 1 10t1 10t-3.5 9t-8 8t-8 7.5t-3.5 8.5v2.5t1 2.5q4 4 8.5 8t9.5 6v5q-8 8 -12 18.5t-5.5 22t-2 23t-0.5 21.5l-2 30t-1 30zM92 201l3 12t4.5 16t6 14t8.5 6t5 -5v-1.5v-1.5q-7 -16 -11.5 -30.5t-4.5 -31.5q0 -6 1.5 -11t3.5 -10t3.5 -10.5t1.5 -10.5
q0 -8 -3 -11.5t-6.5 -6.5t-6.5 -5.5t-3 -7.5v-5q0 -2 1 -4q6 0 10.5 -1t8.5 -3t7 -5t5 -9q-1 -5 -0.5 -9.5t0.5 -8.5t0.5 -8t0.5 -8v-8.5t-1 -9.5q-2 -2 -3 -2.5t-3 -0.5t-3 1t-1 3.5t0.5 5t-0.5 4.5t-4 3.5t-10 1.5q-4 0 -5.5 -2.5t-2 -6t0 -8t0 -8.5t-2 -6.5t-4.5 -2.5
q-4 0 -5.5 2.5t-1.5 5.5v2q0 3 1 10.5t1.5 16.5t1.5 16.5t1 10.5l1.5 4.5t0.5 4.5q0 9 -4 18.5t-7 17.5q-1 2 -3.5 6.5t-5 9.5t-4.5 9.5t-3 6.5q-2 11 -3.5 23t-1.5 23t2.5 23t7.5 22q1 3 2.5 4t3.5 1q4 0 5 -2t1 -5q0 -4 -2 -8t-3 -7q-2 -9 -3 -19.5t-1 -19.5
q0 -17 4.5 -31.5t12.5 -28.5q1 -1 2.5 -1h1.5q5 0 8.5 4t3.5 9q0 4 -1.5 8t-3 8.5t-3 8.5t-2.5 7v2v5v5v4v3v5.5v4.5v3zM144 176q0 -1 0.5 -3t0.5 -4.5t1 -4t3 -1.5h18l0.5 0.5l0.5 0.5q0 1 0.5 4t1.5 4v1q0 3 -2 6.5t-4 5.5h-4h-4q-6 0 -9 -1t-3 -8zM146 153v-3
q0 -4 0.5 -7t2.5 -4.5t5 -2t7 -0.5q1 0 3 -0.5t3 1.5v3t0.5 4t0.5 3.5v2.5v0.5v1.5t-0.5 2t-2.5 1zM152 120l1 -3t2.5 -6t4 -5.5t4.5 -1.5l1.5 1t1.5 2v16l-2.5 0.5t-4.5 1.5h-1q-2 0 -4.5 -1.5t-2.5 -3.5zM53 91q4 3 9 3h10q2 0 4 -0.5t2 -4.5q0 -3 -2.5 -3.5t-5.5 -0.5
t-5.5 -1t-2.5 -5q0 -3 2.5 -4t5.5 -1.5t5.5 -2t2.5 -4.5v-2t-1 -1h-16q-1 0 -1.5 -1t-0.5 -2.5v-2.5v-1v-3q0 -2 2 -2h14q1 0 1.5 -3t0.5 -4q0 -2 -0.5 -3t-3.5 -1l-2.5 0.5t-3.5 1.5l-1.5 0.5l-1.5 0.5h-1q-4 0 -4.5 -2t-1 -5.5t-1 -5.5t-5.5 -2q-3 0 -4 2t-1 4
q0 1 0.5 2.5t0.5 2.5q0 3 1 10t2 15t1.5 15.5t1.5 10.5zM95 81v-2q0 -1 0.5 -2.5t0.5 -3t1 -1.5h16q2 0 2 2v3q0 4 -4.5 6.5t-8.5 2.5q-1 0 -3.5 -0.5t-3.5 -0.5v-1.5v-2.5zM148 73q0 -3 2 -5t4 -4.5t4.5 -4t3.5 -2.5h2q3 0 7 1t7.5 3.5t6 5t2.5 5.5q0 6 -6 6q-3 0 -4 -1.5
t-1.5 -4t-1 -4t-4.5 -1.5q-3 0 -3.5 1t-0.5 4q0 4 1 7t1 6h-9l-11 -12v0zM97 52h3t4 -0.5t4.5 -0.5h2.5h1h1q2 0 2.5 1.5t0.5 3.5q0 3 -0.5 3.5t-4.5 1.5h-3.5h-5.5h-5h-4q0 -3 1 -5t3 -4z" />
</svg>
