<?xml version="1.0" standalone="no"?>
<!DOCTYPE svg PUBLIC "-//W3C//DTD SVG 1.1//EN" "http://www.w3.org/Graphics/SVG/1.1/DTD/svg11.dtd" >
<svg xmlns="http://www.w3.org/2000/svg" xmlns:xlink="http://www.w3.org/1999/xlink" version="1.1" viewBox="-10 0 266 256">
   <path fill="currentColor"
d="M145 196q4 0 5.5 4.5t2.5 10.5t1 13.5t0.5 13.5t1.5 10t4 4t5 -3v-4v-3q0 -6 -1 -11.5t-2.5 -10.5t-2.5 -10.5t-1 -11.5v-2l1 -1.5l1 -1.5h16q2 0 3.5 4t3 10t2.5 12.5t2.5 12.5t3.5 10t4 4l2 -0.5t2 -1.5v-18q-1 0 -1.5 -1.5l-0.5 -1.5q-1 -1 -2 -4.5t-2 -8t-2 -8
t-1 -4.5q-1 -2 -2 -5t-2.5 -6l-3 -6t-2.5 -4q-3 -5 -8 -7.5t-10.5 -4.5t-10.5 -5t-6 -9q0 -1 1 -3.5t2 -3.5h2h2.5h3.5h1q9 0 15.5 3.5t11.5 9.5t9 12.5t7 12t5.5 9.5t5.5 4t3.5 -2t0.5 -4q0 -4 -4 -11.5t-9.5 -14.5t-11 -13.5t-8.5 -8.5t-9 -3t-12.5 -1.5t-11 -2.5t-4.5 -7
q0 -6 4 -7t8 -1q6 0 13 0.5t13 3.5l3 3l4.5 4.5t5 4.5t3.5 3t2 2.5l2 3t2.5 3t3.5 1.5q3 0 3.5 -1t0.5 -5q0 -1 -3.5 -5.5t-8.5 -9.5t-9.5 -8.5t-6.5 -3.5t-6 -0.5t-9 -1.5t-9 -1.5t-6 -0.5q-3 0 -6.5 -1.5t-3.5 -5.5v-10t0.5 -15.5t1 -15t1.5 -8.5q10 -1 19.5 -1.5
t19.5 0.5q1 -1 1 -1.5v-1.5v-2t-1 -2h-9q-7 0 -14 -0.5t-12.5 -2t-5.5 -5.5v-28q-3 0 -6 1.5t-3 5.5q-1 0 0 2t1 3q1 9 1.5 19.5t0.5 19.5q0 15 -1 30t-1 30v7v9.5v10.5v7q1 3 4 5.5t6.5 4.5l7 4t7 3.5t5.5 3.5t2 5q0 2 -2.5 3t-7 2t-9.5 2t-9.5 2.5t-8.5 3.5t-6 6t-3 9
t-1 10v9.5v8.5v6q1 1 2 1.5t2 0.5t4 -1.5t3 -3.5v-33q0 -1 1 -3t3 -4t4 -3.5t3 -1.5zM70 122q0 3 -3.5 4t-7.5 2.5t-7.5 3.5t-3.5 7v30q0 7 4.5 11t10.5 6t13 2.5t12 0.5q6 0 11 -0.5t8.5 -2.5t6 -5.5t2.5 -10.5q1 -1 1.5 -5l1 -8t1 -7.5t0.5 -5.5v-1v-1q0 -6 -1.5 -9.5
t-4.5 -5.5t-7 -3t-9 -3v-5q0 -2 0.5 -6t3.5 -5l16 -5q3 -1 4.5 -7t2 -13.5t0.5 -13.5v-8q0 -4 -1 -6.5t-6 -2.5h-2t-1 2v5t-0.5 5.5t-2 4t-4.5 1.5q-5 0 -7.5 -2t-2.5 -7q0 -7 1 -11.5t3.5 -6t7.5 -2t13 -0.5l1.5 -1.5l0.5 -0.5v-1q0 -2 -2 -2h-4q-18 0 -35.5 1t-36.5 0
q-1 1 -3 1.5t-2 2.5l3 4h23q2 0 2.5 1.5t1 4t0.5 4.5v3v4t-0.5 3.5t-1.5 2.5t-3 1q-6 0 -9 -1.5t-4.5 -3.5t-2.5 -4t-3 -2t-3 1t-2 3v3v3v4v3q0 8 0.5 14t3.5 14q1 2 4 3t5.5 1t5.5 -0.5t5 -0.5q0 1 0.5 2t0.5 2l0.5 1.5t0.5 4t0.5 5t0.5 3.5v1zM58 162v-5q1 0 1.5 -0.5
l0.5 -0.5h20q1 0 1.5 1t0.5 2v1q0 1 -0.5 4t-0.5 6t-0.5 6t-0.5 4h-3q-8 0 -13.5 -5t-5.5 -13zM88 171q0 -8 2 -11.5t12 -3.5q3 0 5.5 1t2.5 4q0 1 -0.5 4l-1 6t-1.5 5.5t-2 2.5h-14q-3 0 -3 -4v-4zM58 143q0 -3 1.5 -5t4.5 -4t5.5 -2.5t5.5 -0.5h3h2q2 1 2 5v5v3v2l-2 1
h-20l-0.5 -1t-1.5 -2v-1zM91 147v-16l2 -2q1 0 5.5 0.5t6.5 1.5q4 1 5.5 4t1.5 7v0l-1.5 2.5l-1.5 2.5h-18zM77 119v-4v-4v-5.5t0.5 -10.5t1 -12.5t1 -12.5t0.5 -10.5v-5.5v-5v-3.5t1 -2.5t4 -1h3t2 2t0.5 5.5t1 8t1 8t0.5 4.5v1v1v11t-0.5 12.5t-1 12.5t-1.5 11q0 2 -2.5 2
h-3.5h-4t-3 -2zM160 91q0 6 2.5 8.5t7 3.5t9.5 1t9 1q1 0 3 0.5l4 1l4 1t3 0.5l2 0.5l2 0.5q0 -7 -4 -10t-9 -3.5t-11 -0.5h-10q-2 0 -4 -1.5t-2 -3.5q0 -5 4 -8t9 -4t10 -1h10q9 -8 9 -22v-8.5t-1.5 -8.5t-4.5 -6.5t-9 -3.5q-8 -1 -14.5 -1.5t-14.5 -0.5h-1.5h-3t-3 0.5
t-1.5 2.5q0 3 3 4t7 1.5t10 0.5q5 0 10 0.5t8.5 2t5.5 5.5v10q0 9 -1.5 13t-5 5t-9.5 0.5t-14 0.5q-5 4 -7 8.5t-2 10.5zM53 83v-3t1 -3q1 -3 5 -3.5t7 -0.5h3q2 0 3 3q0 1 -0.5 3.5t-0.5 5t-1 5.5t-2 5h-5q-7 0 -8.5 -3t-1.5 -9zM98 82q0 -4 2 -5.5t5 -1.5t5 0.5t4 1.5v6v7
q-1 1 -1.5 3l-0.5 2h-12l-0.5 -2l-1 -4t-0.5 -4v-3z" />
</svg>
