<?xml version="1.0" standalone="no"?>
<!DOCTYPE svg PUBLIC "-//W3C//DTD SVG 1.1//EN" "http://www.w3.org/Graphics/SVG/1.1/DTD/svg11.dtd" >
<svg xmlns="http://www.w3.org/2000/svg" xmlns:xlink="http://www.w3.org/1999/xlink" version="1.1" viewBox="-10 0 266 256">
   <path fill="currentColor"
d="M128 247v1l1 0.5l1 0.5q0 1 1.5 1.5l1.5 0.5q3 -1 7 -4t7.5 -8l7 -10t6.5 -9.5t5 -7t4 -2.5t2 0.5t1 2.5t4 6.5t6.5 10t6.5 10t4 6.5t2.5 2.5t3.5 0.5t3.5 -1t1.5 -3t-2.5 -6t-6 -9t-7.5 -9.5t-7.5 -9t-6 -8t-2.5 -4.5v-43q0 -2 -1.5 -4.5t-3.5 -3.5l-1 5l-0.5 4t-1 9
t-0.5 10.5v9.5v9q-1 4 -5.5 11.5t-10 15t-11.5 14.5t-10 10v1zM82 176q3 0 5 5.5t3.5 13.5t3 17t2.5 17t3 13.5t4 5.5h1l2 -2t1 -2l0.5 -2.5t0.5 -3.5q0 -5 -1.5 -9.5l-3 -9l-3 -9t-2.5 -8.5q-2 -7 -3 -13t-2.5 -12t-4 -12t-6.5 -12q-2 -2 -5 -3l-6 -2t-5 -2.5t-2 -5.5
q0 -2 2 -4t5 -3.5t6.5 -1.5h5.5q3 0 6.5 5.5t6.5 14t6.5 18.5t6.5 18t5 14t4 6q3 0 3.5 -2t0.5 -4v-1.5v-2.5q-6 -17 -13 -33t-15 -33q-1 -3 -3.5 -5.5t-6.5 -2.5t-8.5 1t-8.5 1q-3 0 -4 -1.5t-1 -4.5v-1q1 0 1.5 -3.5t2.5 -4.5q1 0 5 -0.5t8.5 -1l9 -1t5.5 -0.5h2
q4 0 6.5 3.5t4.5 8.5t3 11t2.5 11.5t3.5 9.5t6 5q1 -1 1 -3v-4q0 -7 -3 -14.5t-5 -14.5q0 -1 -0.5 -3l-1 -4t-1 -3l-0.5 -1q-1 -2 -4 -5t-6 -3h-4h-5q-7 0 -13 0.5t-13 0.5q-2 0 -2.5 -0.5l-2.5 -2.5v-2t-0.5 -4.5t-0.5 -4.5v-3l0.5 -1t0.5 -2v-2v-1q0 -1 0.5 -4.5t0.5 -6.5
q0 -4 -0.5 -7t-0.5 -4l2 -2l37 -3v-5h-37q-1 0 -1.5 -2.5t-1.5 -6t-3 -6t-7 -2.5q0 21 0.5 42.5t1.5 42.5q0 2 0.5 6t1 9t1 9t0.5 6q1 4 5 6l8 4t7.5 4.5t3.5 5.5t-2.5 4t-6 1.5t-7.5 1t-7.5 2.5t-6 6t-2.5 11v3.5v2.5l10 37l2 1.5t2 2.5h1v0q4 0 4.5 -2.5t0.5 -5.5
q0 -5 -1.5 -10t-3.5 -10.5t-3.5 -10.5t-1.5 -11q0 -2 1 -4.5t5 -2.5q3 1 4.5 5.5t2.5 11t2 14t2.5 13.5t3 10.5t4.5 4.5t4 -2t1 -5v-4q0 -1 -1.5 -3.5t-1.5 -3.5q-3 -9 -5.5 -19t-2.5 -20q0 -4 0.5 -5.5t4.5 -1.5zM186 166q0 4 1 12t3.5 16.5t5.5 15t8 6.5q3 0 4.5 -2
t1.5 -5t-4 -5t-6 -5q0 -2 -1 -5t-1.5 -6.5t-1 -6.5t-1.5 -4v-4v-5.5t-1.5 -6t-3.5 -2.5h-2.5t-1.5 2v5zM133 210q0 1 1 1.5t2 0.5h1l1 -1q4 -2 6.5 -6t4 -8.5t2 -9.5t0.5 -9v-5v-4q-1 -1 -2 -3t-3 -2v0q0 13 -3 23.5t-10 22.5zM133 169q0 1 1 1.5t2 0.5q4 0 4 -4t-0.5 -8.5
t0 -8t4.5 -3.5q2 0 5.5 -0.5t8 -0.5t8.5 -0.5t6 -0.5h2q7 0 14.5 1t14.5 1q3 0 5.5 -1t2.5 -5q0 -2 -1.5 -3.5t-3.5 -1.5q-6 0 -12 0.5t-12 0.5h-5h-4q-2 -2 -2 -4.5v-4.5v-3t1 -2q0 -1 0.5 -1.5l0.5 -0.5h28q1 0 2.5 -2l1.5 -2v-1q0 -2 -2 -2h-3q-3 0 -6 0.5t-7 0.5h-3h-3
t-4 -0.5t-3 -0.5h-1v-15h28q3 0 3.5 -1.5t0.5 -2.5v-2.5t-2 -1.5h-30v-17l0.5 -0.5l0.5 -0.5l1 -1v0q1 0 1 1q1 0 4 2t6.5 4t6 3.5t4.5 1.5q3 0 4 -3t1 -5q0 -3 -4 -4.5t-9 -2.5t-9 -2t-4 -3q0 -3 4.5 -4.5t10 -3t10 -3t4.5 -3.5v-0.5v-0.5l-0.5 -0.5l-1.5 -1.5
q-8 -6 -16 -10t-17 -9q-1 0 -2 -1t-1 -2h-1q0 -1 0.5 -1h0.5q0 -1 1 -3.5t2 -2.5v-2q0 -7 -7 -7q-3 0 -4 2t-1.5 5t-0.5 6v5l-3 3t-5 4.5t-5 5t-3 3.5l-2 1l-4 2t-3.5 2.5t-1.5 3.5q2 1 6 2.5l8 3t8 3.5t5 4q-10 3 -15 10t-7 15.5t-2 18.5v17q0 1 -0.5 4.5t-0.5 8t-0.5 8
t-0.5 4.5t0.5 3.5t0.5 5.5t0.5 5.5t0.5 3.5zM139 139v-13l4 -3h17q2 0 2.5 1t1 2.5t0.5 2.5v2t-0.5 4.5t-3.5 3.5h-21zM155 101q10 0 10 8v2q0 1 -0.5 2.5t-1.5 1.5h-22v-11l1 -0.5t2.5 -1t3.5 -1t3 -0.5h2h2zM142 89q0 -2 1.5 -5t4 -5.5t5 -4.5t5.5 -2t5 3.5t2 7.5
q0 7 -4.5 9.5t-10.5 2.5h-6q-2 -1 -2 -3.5v-2.5zM75 79v3t0.5 3.5t1.5 3t3 1.5h9h6h6t6 -0.5t7 -1.5l0.5 -0.5l0.5 -0.5v-1v-1q-1 -2 -3 -2.5t-4 -0.5q-5 0 -9.5 1t-9.5 1h-6q-1 -1 -1.5 -2t-0.5 -2q0 -3 0.5 -4.5l1.5 -4.5q4 -1 8 -1.5t8 -1.5l8 -2t7 -1q1 -1 2 -3t2 -4.5
t1.5 -4.5t0.5 -3v-2v-1v-2t-0.5 -4t-0.5 -4t-1 -2q-2 -3 -5.5 -5t-6.5 -2h-36v3v2l1.5 1.5l0.5 0.5h30q3 0 6.5 2.5t3.5 5.5q0 9 -2.5 12.5t-7 5t-9 2t-9 1.5t-7 4.5t-2.5 10.5zM147 50v-3q3 -3 7.5 -7t9.5 -4q4 0 6 1.5t6 3.5q2 1 5 3l3 2v4q0 1 -3 2t-5 2h-0.5h-1.5
q-2 0 -3 -1t-1.5 -3t-1 -3.5t-1.5 -2.5q-1 0 -1.5 0.5t-0.5 1.5t-0.5 2.5t-1 3.5t-1 3.5t-0.5 2.5h-1q-2 0 -4.5 -0.5t-4.5 -1.5t-3.5 -2.5t-1.5 -3.5z" />
</svg>
