<?xml version="1.0" standalone="no"?>
<!DOCTYPE svg PUBLIC "-//W3C//DTD SVG 1.1//EN" "http://www.w3.org/Graphics/SVG/1.1/DTD/svg11.dtd" >
<svg xmlns="http://www.w3.org/2000/svg" xmlns:xlink="http://www.w3.org/1999/xlink" version="1.1" viewBox="-10 0 266 256">
   <path fill="currentColor"
d="M45 5q-5 6 -3 17q2 5 3 9t2 7l-1 65l2 26q5 6 11 8q7 1 12 4q-4 4 -9 8t-11 9q-5 12 -5 26q0 7 0.5 13.5t1.5 13.5q0 4 0.5 9.5t3.5 9.5q3 2 4.5 0.5t2 -3.5t0.5 -4t-1 -5q0 -7 -1 -14t-1 -15q-1 -16 5 -29q4 12 6 31t6 28q8 2 8 -3q0 -6 -1 -10l-7 -39q-1 -3 -2 -7t1 -8
l8 -2q1 1 4 11q2 4 3 7t1 5q4 17 3 37q-2 18 3 34h4h3q1 -7 1 -15q0 -4 -0.5 -7t-0.5 -6v-18q0 -8 -1 -16t-3 -15q-4 -17 -14 -28q-6 -7 -14 -8q-3 -1 -6.5 -2.5t-5.5 -3.5l-1 -10q18 0 28 7t17 24l9 22q1 1 2 1q2 0 4 -2q0 -18 -10 -35q-9 -17 -26 -24l-24 -3v-7
q10 -1 17 0t13 3q9 3 24 18q2 1 3 1q3 0 5 -1q1 -5 -2.5 -8.5t-5.5 -6.5q-9 -9 -18 -12q-3 -1 -7.5 -2t-11.5 -2l-17 1l1 -18q1 -13 0 -25.5t-3 -24.5q0 -3 -1.5 -5.5t-1.5 -4.5q-1 -6 -6 -6zM66 9l-6 1q-2 5 1.5 7t7.5 3q2 1 6 1.5t8 0.5q9 0 14 4l1 8q-1 14 -11 13
q-9 -2 -18 5q-4 8 -5 14t5 11l23 4l16 7l4 -2q0 -12 -17 -14q-6 0 -12 -1.5l-10 -2.5q0 -11 7 -11t14 -2l10 -7q5 -8 4 -18q-3 -11 -10 -16l-20 -2zM147 11q-6 1 -11 3t-12 5q-2 11 -2 23q2 12 14 15l19 3v12q-4 2 -13 -5q-10 -6 -18 -5q-2 9 11 14q8 2 13 4t7 3v11
q-9 0 -16.5 -5.5t-15.5 -12.5q-3 -2 -7 1q-1 8 10 15q7 4 11.5 6.5t6.5 3.5q-4 2 -9 5.5t-11 7.5q-2 7 -2 13t1 13l3 5l-4 25v50v4q0 5 1 9.5t3 7.5q3 1 4.5 -0.5t2 -3.5t0.5 -4v-5l-1 -44v-17q2 -12 3 -15l12 2q6 -1 10 -3t7 -5q0 -7 -10 -5q-8 3 -16 2q5 -7 11 -10t12 -7
q1 -3 -3 -6q-6 0 -14 4t-11 10h-1q-2 -12 3 -16q7 -3 12 -10l-1 -7l9 3l17 -2q12 -2 22.5 -8.5t17.5 -14.5q2 -3 2 -5q0 -1 -3 -3q-3 1 -4.5 2t-5 3t-8 5t-8.5 6q-12 7 -20 5l1 -11l10 -2q7 -4 13 -7t9 -9q-1 -9 -12 -1q-12 8 -21 8l1 -12h10q6 -1 10.5 -2.5t10.5 -6.5
l2 -11q3 -23 -15 -26q-20 -3 -37 -2zM133 25q4 -3 10.5 -3.5t11.5 -0.5h18q9 0 14 4q4 3 3 10q-1 3 -1.5 5.5t-0.5 4.5q-10 5 -26 5q-8 0 -15 -0.5t-13 -2.5q-2 -5 -2 -10v-7t1 -5zM67 29l-5 2l1 6q7 2 16 2q10 0 15 -3q1 -7 -10 -7h-17zM144 31l-4 2l1 6q7 3 21 3t21 -4
l-1 -6zM186 103q-6 5 0 10q3 2 6.5 4t4.5 3q3 5 2.5 9.5t-2.5 8.5l-11 -16q-2 -2 -5.5 -3t-5.5 0q-2 3 -1 5t2.5 4t4 3.5t4.5 3.5q8 14 -2 10q-8 -4 -17 -2q0 10 11 11q7 0 10 0.5t6 1.5l1 3q3 14 3.5 27.5t0.5 26.5q0 9 -0.5 16.5t3.5 14.5h7v-20v-27l-7 -42q0 -7 5 -13
t3 -15q-1 -8 -8 -16q-5 -8 -15 -8zM164 149q-3 4 -3 7q0 2 -2 3t-9 3q-9 2 -14 6q1 8 9 5q6 -1 8.5 -2t5.5 -1l-1 7l-20 9q-1 9 8 6q8 -4 13 -4v11q-1 1 -8 1q-7 -1 -13 2q-1 9 8 6q10 -1 13 2q3 5 0 22q-2 15 4 23l4 -1q2 -6 2 -18v-11v-7v-8q1 -2 9 -2q9 0 12 -1
q1 -8 -6 -8q-8 1 -15 0v-11q2 -1 9 2q8 2 12 1q2 -7 -7 -9q-8 -3 -14 -6v-6q4 0 10 3q7 4 12 1q3 -9 -7 -10q-6 -1 -9 -2l-6 -2q-1 -2 -1 -6t-4 -5z" />
</svg>
