<?xml version="1.0" standalone="no"?>
<!DOCTYPE svg PUBLIC "-//W3C//DTD SVG 1.1//EN" "http://www.w3.org/Graphics/SVG/1.1/DTD/svg11.dtd" >
<svg xmlns="http://www.w3.org/2000/svg" xmlns:xlink="http://www.w3.org/1999/xlink" version="1.1" viewBox="-10 0 266 256">
   <path fill="currentColor"
d="M123 251q0 7 6 7q4 0 5.5 -3.5t2 -8.5t0.5 -11v-11t1 -8.5t5 -4.5l3.5 -1t7 -1.5t6.5 -1.5l3 -1q9 -2 13 -9t5.5 -15t1.5 -17v-16v-12q-1 -3 -2.5 -4t-3.5 -1q-1 0 -2 0.5t-2 0.5v6t-0.5 10t-0.5 9.5v6.5v7.5t-1 9t-3 8.5t-6 4l-2.5 0.5t-4.5 1l-4 1t-3 0.5q-6 2 -10 2.5
t-12 0.5q-17 0 -26 -2.5t-13.5 -9t-5 -17.5t-1.5 -27q0 -2 -1.5 -3t-3.5 -1t-3 1t-1.5 3t-1 3.5t-0.5 2.5t1 3.5l1 2.5q0 1 0.5 5.5t1 9.5t0.5 9.5v5.5q1 9 7.5 14t14.5 7.5t16.5 3t14.5 0.5q2 1 2.5 2.5t0.5 3.5q0 5 -1 9l-2 8t-2 8.5t-1 8.5zM100 167q0 3 -0.5 6t0 6
t2 5.5t5.5 2.5h3t6.5 0.5l7 1t5.5 0.5h2q8 0 12.5 -1.5t7 -4.5t3 -8t0.5 -12v-10q-1 -2 -3 -4.5t-4 -2.5h-35q-6 0 -8 2.5t-4 7.5v11zM110 178l-5 -4v-1v0v0q1 -1 2.5 -1.5t2.5 -0.5l28 -3q3 0 5.5 2t2.5 5t-2.5 4t-6 1.5t-6.5 0.5h-5h-1q-1 0 -3 -0.5t-4.5 -1t-5 -0.5
t-2.5 -1zM131 153h5h5q2 1 3.5 2.5t1.5 3.5q0 1 -1.5 1.5l-3 1t-2.5 0.5h-2h-6h-9t-9.5 0.5t-6.5 0.5q0 -5 3 -7t7 -2.5t8 -0.5h7zM71 87v6.5t0.5 9l1 9t0.5 6.5q2 9 8 13t14 5.5t16 1t14 -0.5q5 0 13 -0.5t16.5 -3t15 -7.5t7.5 -12q2 -7 2 -13v-13q0 -12 -1 -19t-2.5 -11
t-5 -5.5t-8.5 -1.5h-12h-17q0 -1 -1 -1t-2 -1v-2v-2q0 -2 0.5 -5t2.5 -4q7 -1 11 -1.5t10 -0.5h3h2q1 0 3 1t3 1q2 -1 4.5 -3.5t2.5 -5.5q0 -1 -1 -2.5t-2 -2.5h-6q-7 0 -14 2t-14 2h-3t-2 -2v-12q0 -2 -1.5 -2.5t-3.5 -0.5t-3 1.5t-2 3.5q1 8 0 13t-1 12q0 3 1 5t1 5
q0 2 -2 3t-4.5 2t-4.5 1h-3h-4.5t-7 0.5t-6.5 0.5h-4q-5 3 -8 6t-4.5 7t-1.5 8.5v9.5zM95 125q0 -1 4.5 -5t9.5 -8.5t10 -8t7 -3.5q4 0 8 2t8.5 5t8 6t6.5 5v1q0 3 -1.5 4.5t-3.5 2l-4 1t-4 0.5q-5 1 -8.5 1h-7h-6.5h-8h-14q-5 1 -5 -3zM111 117v1t1 1h22q1 0 1.5 -1.5
t0.5 -2.5v-1.5t-2 -1.5h-6h-4h-6t-5 1.5t-2 3.5zM82 91q0 -1 -0.5 -4t-0.5 -6t1 -5t4 -2q1 0 3 1t5.5 3t7 5t6.5 5t5 4t2 3t-3.5 5t-8.5 8t-9.5 7t-7.5 3q-2 0 -3 -3.5t-1 -8.5v-9v-6zM138 94v-3l5.5 -5.5t5.5 -5t6 -4.5t6 -5l1 -0.5l1 -0.5q4 0 5.5 3.5t1.5 6.5v7t-0.5 5.5
t-0.5 6v7.5q0 1 -1 3.5t-2 2.5h-1h-1q-2 0 -6 -2t-8.5 -5t-8 -6t-3.5 -5zM89 91l1 14q0 1 1 1h2q3 0 3.5 -2t0.5 -5v-3t-0.5 -4t-1.5 -3.5t-3 -1.5v0q-1 0 -1.5 0.5l-0.5 0.5q0 1 -0.5 2zM155 83q-1 0 -2.5 0.5t-1.5 2.5v15l1 1l2 2q3 0 4 -2t1 -5v-1.5t-0.5 -3.5t-0.5 -3.5
v-2.5q-1 -2 -1.5 -2.5t-1.5 -0.5zM94 68q2 -3 5.5 -4t8 -2t8.5 -1h7q1 0 4 -0.5t6 -0.5t6 -0.5t4 -0.5h1h4t4 0.5t3.5 1.5t2.5 3q-4 2 -7.5 6t-7.5 8.5t-8.5 7.5t-9.5 3q-3 0 -7.5 -2.5t-9 -6t-8.5 -7t-6 -5.5zM111 75q0 1 0.5 2.5t2.5 0.5h2.5t5 -0.5t4.5 -0.5h3h1.5
t3 -0.5t2.5 -1t1 -2.5v-1l-0.5 -1t-0.5 -2h-6h-5q-3 0 -6.5 0.5t-5.5 1.5t-2 4z" />
</svg>
