<?xml version="1.0" standalone="no"?>
<!DOCTYPE svg PUBLIC "-//W3C//DTD SVG 1.1//EN" "http://www.w3.org/Graphics/SVG/1.1/DTD/svg11.dtd" >
<svg xmlns="http://www.w3.org/2000/svg" xmlns:xlink="http://www.w3.org/1999/xlink" version="1.1" viewBox="-10 0 266 256">
   <path fill="currentColor"
d="M126 250l2 2t2 1v0q3 0 4.5 -2t2.5 -5t1 -6.5v-5.5q0 -4 -1 -7.5t-1 -8.5q0 -4 1.5 -5.5t3.5 -2t5 -0.5t7 -1q9 -1 15.5 -4t11.5 -10q2 -11 3.5 -22t2.5 -23q-1 -2 -2 -3t-4 -1q-2 0 -3.5 6.5t-2.5 15.5t-4 17t-7 11q-2 1 -8.5 2t-13.5 1.5t-13.5 0.5h-7.5h-5
q-3 0 -7.5 -0.5t-8.5 -1.5t-7 -1.5l-3 -0.5l-4 -5q-1 -1 -1.5 -6t-1.5 -10.5t-2 -10t-1 -6.5q-1 -5 -1 -6t-4 -1q-1 0 -2 0.5t-2 0.5q-1 1 -1 3v3q0 9 2.5 18.5t4.5 18.5q2 8 9 11t15 3h5.5h7.5h7.5h4.5q3 -1 3 1v3q0 6 -1 11.5t-1 11.5v14zM100 178q0 5 3.5 8t8 4t9.5 1.5
t9 0.5h7t7.5 -1t6 -3t2.5 -6q0 -6 -1 -11.5t-7 -7.5h-11h-10t-11 1t-9 4t-4 10zM108 178q0 -4 3 -4.5t5 -1.5q1 0 3.5 -0.5l5 -1t4.5 -0.5h3q0 -1 1 -1t3 0.5t4.5 1.5t3.5 2.5t1 3.5q0 3 -3 5t-6 2h-2t-5 -0.5t-5.5 -0.5h-4.5q-1 0 -3 -0.5l-4 -1t-3 -1t-1 -2.5zM93 152
q2 0 7 0.5t10.5 1t10.5 0.5t7 1h3q8 0 14.5 -0.5t11 -3t7.5 -7t3 -13.5t-1.5 -14t-4.5 -7t-8.5 -2h-12.5h-8q-2 0 -6.5 0.5t-10.5 1t-10.5 0.5t-6.5 1q-5 0 -7.5 2t-3.5 5t-2 7t-1 8q0 1 0.5 4t0.5 4q1 4 3 7t5 4zM96 143v-0.5v-1.5q0 -2 2.5 -3t5.5 -1h6h5q1 0 5 -0.5
t8.5 -1t8.5 -1t5 -0.5h5h2.5h3t3 0.5t1.5 1.5q0 3 -4 5.5t-7 2.5h-3.5h-6.5h-6h-4q-3 0 -6.5 0.5t-7.5 0t-8 -0.5t-8 -1zM94 123q0 -3 6 -4.5t13.5 -2.5t14.5 -1h9h4.5h7t6 1t3.5 3q0 2 -2 4t-3 2q-3 1 -10 1t-14.5 0.5t-14 1t-9.5 0.5h-5q-3 0 -4.5 -0.5t-1.5 -4.5zM72 82
q0 5 1 9t4 6t7.5 3t10.5 2h10t14 0.5t13.5 0.5h8.5q8 0 15 -1.5t12.5 -5t8.5 -9t3 -14.5q0 -4 -0.5 -8t-2 -7.5t-4.5 -6t-8 -2.5h-35v-13q0 -1 2 -2l2 -1h1q2 0 7 -0.5t10.5 -0.5t10.5 -0.5t7 -0.5l0.5 -0.5l0.5 -0.5q1 -1 1.5 -2l0.5 -1l-6 -6h-32q-4 0 -5 -2t-2 -4.5
t-2.5 -4.5t-5.5 -2q-3 0 -3.5 1.5t-0.5 3.5q0 6 1 12t1 12v9q-1 1 -2.5 2t-2.5 1q-12 1 -20 1t-12.5 2t-6.5 8.5t-2 21.5zM100 92q0 -2 3.5 -4.5t7.5 -3.5t8.5 -2t6.5 -1h3h2l20 10q-1 3 -3.5 3.5t-5.5 1t-6 0.5h-4q-3 0 -4 -1.5t-2 -3.5t-1.5 -4t-2.5 -3q-2 1 -2.5 3
t-0.5 4t-1 3.5t-4 1.5h-3.5h-4.5t-4 -1t-2 -3zM79 78q0 -6 3 -8.5t8 -2.5q0 4 -1.5 5t-1.5 4q0 2 0.5 3.5t2.5 1.5q1 1 2.5 0l1.5 -1v-10h3t5 1q2 0 5.5 1.5t3.5 4.5v1q-6 2 -12 5.5t-13 3.5h-2h-2q-2 -2 -2.5 -4.5t-0.5 -4.5zM139 75q0 -2 2.5 -3t4.5 -1t3 1.5t1.5 3t1.5 3
t2 1.5q2 0 4 -1.5t2 -3.5t-1 -3.5t-1 -3.5q0 -3 1.5 -4t3.5 -1t3 0.5t2 2.5q0 1 0.5 2.5t0.5 3.5t0.5 4l0.5 2v1q0 4 -0.5 5.5t-4.5 1.5q-2 0 -6 -1t-8.5 -2t-8 -3t-3.5 -5zM99 62v-1v0l1 -2q1 0 3 -0.5l4 -1l4 -1l2 -0.5h1q4 0 5 1.5t1 3.5t0.5 4t3.5 2q1 0 2 -2l2 -4
t2.5 -3.5t3.5 -1.5h2t4.5 0.5t4.5 1.5t2 2q0 4 -3.5 5.5t-7.5 2.5t-8.5 1h-5.5h-5h-4l-2.5 -1t-4.5 -2l-4 -2t-3 -2z" />
</svg>
