<?xml version="1.0" standalone="no"?>
<!DOCTYPE svg PUBLIC "-//W3C//DTD SVG 1.1//EN" "http://www.w3.org/Graphics/SVG/1.1/DTD/svg11.dtd" >
<svg xmlns="http://www.w3.org/2000/svg" xmlns:xlink="http://www.w3.org/1999/xlink" version="1.1" viewBox="-10 0 266 256">
   <path fill="currentColor"
d="M139 225q4 0 8.5 4t9.5 9t10.5 9t11.5 4q4 0 4.5 -1t0.5 -4q0 -5 -5 -8t-11.5 -6t-11.5 -5.5t-5 -7.5q0 -2 1 -3t2 -1.5t2.5 -1t3.5 -1.5q1 -1 3.5 -3t2.5 -3v-16q5 0 8.5 1t6.5 2.5t6.5 4.5t8.5 5q1 0 3 -1.5t2 -3.5q0 -3 -5 -7t-12.5 -7.5t-16 -7t-16 -6.5t-12.5 -5.5
t-5 -4.5v-29l1 -0.5t2 -0.5h5t6 1t5 2.5t2 3.5t-1.5 4.5t-4.5 5t-5 4t-3 2.5v0.5v0.5q0 4 3 4l0.5 -0.5l0.5 -0.5q1 0 2.5 -1.5t3.5 -3t4 -2.5t3 -1h2l14 14h0.5h0.5q2 0 3.5 -1t1.5 -3q0 -3 -2 -5t-5 -3.5t-5 -4.5t-2 -7q5 0 9 1.5t7.5 3t6 3t5.5 1.5q2 0 4 -1t2 -4
t-4.5 -5t-11.5 -3.5t-15 -3.5t-15.5 -4t-13 -4.5t-6.5 -5.5t-1.5 -5t-3.5 -2q-2 0 -3 1t-1 2.5v3.5v3q-4 3 -8.5 3.5t-9.5 0.5q0 -2 1 -5t3 -7t3 -8t1 -8t-1.5 -6t-3.5 -4t-3.5 -3t-1.5 -3v-2t1 -1h4.5h5.5h5.5h3.5q3 0 5.5 -1t2.5 -4t-1 -3.5t-4 -0.5t-5 1t-5 1
q-5 0 -7.5 -1t-2.5 -6v-3.5t1 -2.5l18 -3q4 -1 5.5 -4.5t1.5 -6.5v-3t-2 -2q-3 0 -5 2t-3.5 4t-3.5 4t-6 2q-3 0 -4.5 -3t-1.5 -5v-1q0 -1 1 -3t2 -3q3 0 7 -1t7.5 -2t6 -4t2.5 -7q0 -3 -1.5 -6t-4.5 -3q-2 0 -3 2.5t-1.5 5l-1 5t-2.5 2.5h-11v-18l-1.5 -0.5t-2.5 -0.5h-0.5
h-0.5h-1.5h-0.5q-1 0 -2 0.5l-1 0.5v16q0 1 -2.5 1.5t-3.5 0.5q-4 0 -6.5 -1.5t-4 -3.5l-3 -4t-4.5 -2q-4 0 -4.5 2.5t-0.5 4.5q0 4 4 6.5t8.5 3.5t9.5 1.5t7 0.5q2 1 2.5 3t0.5 4t-0.5 3.5t-3.5 2.5h-3h-3q-3 0 -5 -1t-4 -2.5t-3.5 -2.5t-5.5 -1q0 7 1.5 10t4.5 4t8 1t11 1
v4v4t-1 3h-3.5h-3.5h-8t-7 -1q-2 -1 -2.5 -2.5t-2.5 -1.5q-4 0 -4.5 0.5t-0.5 2.5q0 4 3.5 6.5t7.5 3.5t8.5 1h6.5l0.5 0.5t1.5 0.5v1q0 3 -2.5 7t-6.5 7.5t-8 7.5t-8 7t-6.5 5.5t-2.5 3.5v0l2 2l1 1h1q6 0 11 -4t9.5 -9t8.5 -10.5t8 -8.5h0.5h0.5q3 0 4 2.5t1 4.5
q0 4 -1.5 8t-2.5 8t-2.5 7t-1.5 5q0 1 1 2.5t1 2.5t-2.5 2.5t-5.5 3t-6.5 2.5t-5.5 1q-5 1 -9 2t-7 2.5t-4.5 4t-1.5 7.5q5 0 9.5 -1.5t9 -3.5l9 -4t10.5 -2v5q-2 1 -5 4.5t-4 4.5l-1.5 1.5l-3 3t-2.5 3t-0.5 2t2 2.5t2.5 2h1q2 0 4 -1.5t4 -4t3.5 -5.5t1.5 -5h2h1
q3 0 5.5 2t5.5 2q1 0 2.5 -0.5t1.5 -2.5t-2 -3.5l-4 -3l-4 -3t-2 -4.5q0 -5 4 -7.5t9 -2.5h3t3 2v4t0.5 6.5t0.5 6.5v4v4q0 4 -5 7.5t-13 7t-17 7t-17 7t-13 7t-5 6.5v3.5t2 1.5q3 0 6 -1.5t6 -3.5t6 -3.5t6 -3.5l2.5 -1l5 -2t4.5 -1.5t4 -1.5q0 -1 2 -2t4 -1.5t3.5 -1
t2.5 -0.5q4 -2 6.5 -4t5 -3.5l5 -3t6.5 -1.5q2 0 5 1t5.5 2.5t5 3.5t2.5 3q0 2 -2.5 3.5t-5 2.5t-5.5 2t-5 1l-2 0.5t-4.5 1t-4 1l-1.5 0.5q-1 0 -3 -0.5t-2 -1.5h-2q-3 0 -3 1.5v2.5v3q0 2 -2 2q-1 1 -4 2t-6 3t-6 3t-4 2q-3 1 -4.5 2.5t-1.5 4.5q0 1 0.5 2.5t3.5 0.5
q5 -1 8.5 -3.5t7 -5.5t7 -5t7.5 -3q1 0 2 0.5t2 0.5q0 1 1.5 2.5l3.5 3.5l3.5 3.5l2.5 2.5v1q0 2 -3 4t-8 3t-11 2t-11 2t-8.5 3t-3.5 4t2 2h4q6 0 12 -1.5t12 -4t11.5 -4t11.5 -1.5zM128 202v-1q0 -1 3.5 -3.5t8.5 -4t9.5 -3t6.5 -1.5h1q0 1 0.5 3t0.5 3q0 7 -4 12t-12 5
q-4 0 -7.5 -3.5zM176 100q4 0 6.5 3t4 6.5t3 6.5t5.5 3q2 0 3 -1.5t1 -3.5q0 -3 -1.5 -5t-3 -3.5t-2.5 -3.5t-1 -4q0 -3 1 -6.5t2.5 -7t2.5 -7t1 -7.5q0 -5 -2 -8.5t-5.5 -5t-7.5 -1.5t-7 -0.5t-5.5 -1t-2.5 -2.5q0 -6 4 -7.5t9 -1.5h9t4 -4q0 -1 -1.5 -2.5t-2.5 -1.5h-21
v-18q0 -1 -2 -1.5t-3 -0.5t-3 0.5t-2 1.5v35q0 2 -1.5 2.5l-3 1t-3 1.5t-1.5 3v3t3 1h30q2 0 3 1t1.5 2.5t0.5 3.5v4v3.5t-1 4.5t-2.5 3.5t-3.5 1.5q-4 0 -6 -1.5t-4.5 -3t-5.5 -3t-8 -1.5q-3 0 -5 1t-2 4v3h2h4t4 0.5t3 0.5t3 2t2 4t-3 3t-7 2t-7 2t-3 4t4 3q3 0 6 -1
t6 -2.5t6 -2.5t6 -1z" />
</svg>
