<?xml version="1.0" standalone="no"?>
<!DOCTYPE svg PUBLIC "-//W3C//DTD SVG 1.1//EN" "http://www.w3.org/Graphics/SVG/1.1/DTD/svg11.dtd" >
<svg xmlns="http://www.w3.org/2000/svg" xmlns:xlink="http://www.w3.org/1999/xlink" version="1.1" viewBox="-10 0 266 256">
   <path fill="currentColor"
d="M156 248q0 2 1 2.5t2 0.5q3 0 5 -1.5t3 -3.5l12 -16t11 -16.5t8.5 -18.5t3.5 -20q0 -12 -2.5 -24.5t-5.5 -24.5q-1 -4 -3 -8l-4 -8t-3.5 -8t-1.5 -8q0 -1 3 -3t6.5 -4.5t7.5 -5.5t6 -6v-4.5v-4.5q0 -6 -1 -12t-3.5 -10.5t-7.5 -7t-13 -2.5q-13 0 -18.5 5.5t-5.5 19.5
q0 6 1 12.5t4 12.5q1 2 3 2.5l4 1t3.5 2t1.5 4.5q0 4 -3.5 6t-8 4t-8 4t-3.5 7q5 0 8.5 -2t6 -4.5t5.5 -4.5t6 -2q2 0 2 0.5t1 2.5t2 5.5l1 3.5q0 1 -4 5.5t-9 10t-9.5 10l-6.5 6.5v0v1l2 2h1v0q1 -1 3 -1.5l2 -0.5l19 -20h1.5h1.5q2 0 3.5 2t1.5 4.5v5.5v3q0 7 -3 13t-8 12
t-10 11.5t-9 10.5v1v1l1 1h1h1q4 -3 6.5 -6l5 -6l5 -6t6.5 -8q1 -2 3 -4.5t5 -2.5h0.5h0.5q0 5 0.5 9t0.5 8q0 15 -7 28.5t-15 23.5l-4.5 4.5t-4.5 5l-4 5t-3 5.5zM126 235q0 2 1 3.5t3 1.5q3 0 4 -2t1 -5q0 -11 -0.5 -21t-0.5 -21q0 -8 0.5 -15.5t0.5 -15.5t-0.5 -15
t-0.5 -15q0 -6 0.5 -12.5t0.5 -12.5q0 -1 0.5 -3t0.5 -4t0.5 -3.5l0.5 -1.5q0 -1 1.5 -2.5t3.5 -3t3.5 -3t1.5 -2.5q2 -2 3 -5.5t1 -7.5v-7.5v-6.5q-5 0 -6 4t-1 9t-0.5 9t-4.5 4h-2t-2 -2v-25q0 -1 -1 -1.5t-2 -0.5t-2 0.5t-2 2.5q0 1 0.5 4.5t0.5 4.5l0.5 1l0.5 1
q0 1 -0.5 2l-0.5 1v4t-0.5 6t-0.5 4.5v1.5l-2 2l-4 -5v-24l-3 -3l-3 3v24q0 3 2 5t4 3l4 2t2 2v130q-1 3 -1.5 5.5t-0.5 5.5zM51 234q2 3 5 3q1 0 3 -0.5t2 -2.5v-33v-6l1 -102q1 -11 1 -20t2 -15.5t8 -10t20 -4.5h44q5 1 5 -3q0 -1 -1 -2.5t-3 -1.5h-27l-3 -3v-15
q0 -2 -1.5 -2h-2.5t-2 0.5t-1 2.5q0 1 -0.5 3.5t-0.5 5t-0.5 5t-0.5 3.5l-30 3q-5 0 -8 4t-4.5 9.5t-2 10.5t-0.5 9v4v6v7v4v9.5t-0.5 16.5t-0.5 16.5v10.5v55q0 2 -0.5 6.5t-0.5 10t-0.5 10t-0.5 6.5zM84 228q0 1 1 3.5t1 3t0.5 1l0.5 0.5q2 0 3.5 -2t1.5 -4v0
q0 -2 -0.5 -5t-1.5 -4v-127q0 -2 2 -4t4.5 -4l5 -4t3.5 -3q0 -1 0.5 -3.5t1.5 -5.5t1 -6v-5v-1l-1 -1l-2 -2v0q-3 0 -3.5 4t-1 9t-1.5 9t-5 4q-2 0 -3 -2.5t-1 -4.5q0 -4 1 -8t1 -8v-4.5t-3 -2.5q-3 2 -3.5 6.5t0 9.5t0 8.5t-4.5 3.5h-1.5t-1.5 -1v-5t-0.5 -6t-1.5 -5.5
t-4 -2.5v13t2 12q12 3 12 15q0 20 -1 39.5t-1 39.5v50zM138 144q0 18 2 34t4 34l0.5 1.5t0.5 2.5t1 2t2 1q2 0 3 -1.5t1 -2.5q0 -7 -1 -14t-2.5 -14t-3 -13.5t-1.5 -13.5q0 -6 1 -10.5t1 -9.5q0 -6 -1 -10.5t-1 -9.5q0 -3 1.5 -5t1.5 -5q0 -2 -0.5 -3t-2.5 -1t-2.5 1t-1.5 4
l-0.5 2t-0.5 4t-0.5 4t-0.5 4v2v6v6v5zM98 143v34v10t0.5 12t0.5 10v4l2 2l3 -3v-108q-3 0 -4 1.5t-2 3.5v34zM111 213q0 1 1 1.5t2 0.5q2 0 3 -1.5t1.5 -3t0.5 -3.5v-3v-96l-0.5 -0.5l-1.5 -1.5h-1v0l-2 2l-1 1v92q0 1 -0.5 5t-1.5 6v1zM68 210q0 1 0.5 2l0.5 1h0.5h0.5
q2 0 3.5 -3t1.5 -4l3 -97q0 -5 -4 -5l-1 0.5l-1 0.5l-1 7q0 25 -1.5 49.5t-1.5 48.5zM163 72q-1 -4 3.5 -5.5t10 -2t11.5 -0.5h8q0 8 -3.5 14t-12.5 6q-2 0 -5 -1t-5.5 -2.5t-4.5 -3.5t-2 -5zM162 55q0 -1 0.5 -1h0.5q2 -4 3.5 -6t3 -3t4 -1.5t6.5 -0.5h8l5.5 5.5t2.5 6.5
q0 1 -0.5 2t-1.5 1h-29l-1 -1t-1 -2h-1z" />
</svg>
