<?xml version="1.0" standalone="no"?>
<!DOCTYPE svg PUBLIC "-//W3C//DTD SVG 1.1//EN" "http://www.w3.org/Graphics/SVG/1.1/DTD/svg11.dtd" >
<svg xmlns="http://www.w3.org/2000/svg" xmlns:xlink="http://www.w3.org/1999/xlink" version="1.1" viewBox="-10 0 266 256">
   <path fill="currentColor"
d="M55 246q0 2 1 3.5t3 1.5q4 0 8.5 -4.5t8.5 -11.5t7 -15t6 -15t6 -11.5t5 -4.5t4.5 4t5.5 9.5t6 12.5t5.5 13.5t5 11.5t2.5 6h3h2q4 0 6.5 -1t2.5 -6q0 -3 -3 -7.5t-6.5 -9.5t-7 -9.5t-5.5 -7.5q-6 -9 -9.5 -19t-5.5 -20.5t-2.5 -21.5t-0.5 -22q0 -3 -0.5 -5.5t0 -5.5
t2 -4.5t5.5 -1.5q3 0 7.5 3.5t9 8t9 8t7.5 3.5q4 0 4 -1.5v-4.5q0 -5 -5.5 -9t-13 -7.5t-14.5 -7t-10 -7.5v-3.5v-4.5v-5v-3q0 -3 -1 -5t-4 -2q-2 0 -3.5 3t-1.5 7v7.5t-1 5.5q-3 4 -8.5 6t-10.5 5q-2 2 -7 6t-10 8.5t-8.5 9t-3.5 6.5t1.5 3t2.5 1q3 0 5 -1t3.5 -3t2.5 -4
t3 -3q0 -1 2 -2t4.5 -2.5t4.5 -2.5l2 -1q2 -2 4 -4.5t4 -4.5l4 -4t6 -2v11.5v16v16.5v11q0 9 -2.5 18t-6.5 18t-9 17l-10 16q0 1 -1 2.5t-2.5 4t-3 4t-1.5 2.5q-1 2 -2 3.5t-1 3.5zM169 243q0 5 5 5q6 0 9.5 -6t6 -13.5t3.5 -15.5t3 -12q5 -21 10.5 -42t5.5 -43
q0 -8 -3 -13.5t-8 -9t-10.5 -5.5t-10.5 -5t-8 -7.5t-3 -11.5q0 -8 5 -12.5t11 -8.5t11 -8t5 -10q0 -2 -1.5 -3.5t-3.5 -1.5t-5 1.5t-5 4t-4 4.5l-3 3q-6 5 -10 9t-6 8t-3 9.5t-1 14.5q0 4 2 6.5t4.5 4.5l5 4t2.5 6q0 10 -2.5 19t-5.5 18.5t-5.5 19t-3.5 18.5q-1 1 -1 5
t-0.5 8t-1 7.5t-0.5 5.5q-2 2 -3 4t-1 5q0 2 0.5 3t3.5 1v0q1 0 1 -1q3 -3 6.5 -7t5.5 -8q0 -12 2 -23t4.5 -22l5 -22t4.5 -22q1 -3 2 -4t4 -1q4 0 6.5 1.5t4 4.5t2 6.5t0.5 6.5q0 11 -2 23.5t-5.5 25t-7 24.5t-7.5 23q-1 2 -2.5 6t-3.5 8.5t-3 8.5t-1 6zM64 187q0 3 1 3.5
t4 0.5t5 -3.5t3.5 -9t2 -12t0.5 -12.5q0 -5 -0.5 -9.5t-0.5 -5.5v-6q0 -2 -2 -2h-3h-3q-1 0 -2 2v6.5t-0.5 9.5t-0.5 9.5v6.5q-1 5 -2.5 11t-1.5 11zM116 133v3t0.5 4t1 4.5l0.5 2.5q0 2 1 8.5t2 14t2.5 13.5t2.5 6h9q0 -3 -0.5 -5.5l-1 -5t-1.5 -5t-1 -5.5q-2 -9 -3 -19.5
t-2 -20.5h-2h-1q-3 0 -5 0.5t-2 4.5zM79 73q-3 0 -8.5 3t-10.5 7t-8.5 8.5t-3.5 7.5q4 0 10 -1.5t11.5 -4.5t9.5 -7t4 -9q0 -2 -0.5 -3t-3.5 -1zM115 74q0 4 0.5 6t3.5 4t5.5 4t5.5 4.5t6.5 3.5t6.5 1t3.5 -0.5t0.5 -3.5t-3.5 -6t-9 -6t-11 -5t-8.5 -2zM49 38q0 9 6 14
t14 7.5t16.5 3t14.5 0.5q8 0 17 -0.5t16.5 -3t12.5 -8.5t5 -16q0 -8 -4.5 -12.5t-11.5 -7t-14.5 -3t-13.5 -0.5h-7h-5t-6 0.5t-8 0.5q-8 1 -14 1.5t-10 3t-6 7t-2 13.5zM103 37v-12q1 -3 4.5 -4t6.5 -1q1 0 1.5 0.5t0.5 2.5v2l-1 2t-1 3l0.5 2t1 4.5t1.5 4.5t1 3v4q0 5 -3 6
t-9 1h-2q-2 -4 -1.5 -9t0.5 -9zM83 50v-7t1 -10.5t2.5 -9t4.5 -3.5q1 0 2 0.5t1 2.5v26q0 2 -1.5 3.5t-3.5 1.5q-3 0 -4.5 -0.5t-1.5 -3.5zM63 37q0 -5 3 -8t8 -3v20q0 1 -1.5 1h-2.5q-5 0 -6 -3t-1 -7zM124 32q0 -3 1 -5.5t4 -2.5q2 0 3.5 1.5t3 3.5t2.5 4t1 3v1v0
q-1 1 -1.5 3t-1 3.5t-1.5 2.5l-1 1h-7l-0.5 -1.5t-1 -3.5l-1 -4t-0.5 -4v-1v-1z" />
</svg>
