<?xml version="1.0" standalone="no"?>
<!DOCTYPE svg PUBLIC "-//W3C//DTD SVG 1.1//EN" "http://www.w3.org/Graphics/SVG/1.1/DTD/svg11.dtd" >
<svg xmlns="http://www.w3.org/2000/svg" xmlns:xlink="http://www.w3.org/1999/xlink" version="1.1" viewBox="-10 0 266 256">
   <path fill="currentColor"
d="M58 246q0 4 3 4q5 0 9 -4.5t7.5 -11t6 -13.5t4.5 -13.5t3.5 -11t3.5 -4.5v0q3 3 4 5t1.5 4t1 4.5t1.5 4.5l6 9t8.5 12t9.5 11t8 5t4 -2t1 -6q0 -1 -0.5 -2t-1 -1.5t-1.5 -1t-2 -2.5q-2 -2 -4 -4.5t-4.5 -5.5t-4 -4.5t-1.5 -2.5q-4 -5 -8 -11t-7 -13t-5 -14t-2 -14v-46
q0 -1 -2 -1.5t-3 -0.5t-2 0.5t-1 1.5v38q0 7 -1 13t-2.5 11.5t-4 11.5t-5.5 13q-1 3 -4 9t-7 13t-6.5 13t-2.5 7zM159 240q1 2 3 2h3h2h2l1.5 -4.5t0.5 -3.5q0 -4 -1.5 -7.5t-2.5 -8.5q-2 -8 -2.5 -17.5t-0.5 -18.5q0 -3 1 -9.5t2 -14.5t3 -16.5t4 -15.5t5 -11.5t6 -4.5
q4 0 5 3.5t1 6.5q0 7 -1 13t-2.5 12t-2.5 12t-1 12q0 3 0.5 9.5t2 14t3 15.5t4 15t5 11t6.5 4q3 0 5.5 -1t2.5 -5q0 -3 -0.5 -4l-1 -2t-2 -2.5t-3.5 -5.5q-5 -9 -8.5 -20.5t-3.5 -23.5q0 -6 1 -12.5l2 -13l2 -13t1 -12.5v-5v-4q-1 -4 -3.5 -6t-5.5 -4t-5.5 -4.5t-2.5 -6.5
v-2q7 -6 10.5 -12.5t3.5 -15.5v-7.5t-1 -11.5t-3 -10.5t-6 -4.5q-3 0 -3.5 1t-0.5 3q0 7 2.5 13.5t2.5 14.5v3.5t-1 5.5t-2 4.5t-3 1.5h-2q-2 -5 -4.5 -12.5t-6.5 -14.5t-8.5 -12.5t-11.5 -5.5v6q1 1 4 4.5t4 5.5q0 1 2.5 6l5 10t4.5 9.5t3 6.5v1v1q0 1 -0.5 1.5t-1.5 0.5
h-20q-3 0 -5 -3t-3 -7t-2.5 -7t-4.5 -3t-3 2v1q0 2 1.5 5.5t3.5 8t4 7.5t3 3h26q2 0 3.5 2t1.5 4q0 5 -1.5 11t-3.5 11.5t-4.5 11t-4.5 10.5t-3 11l-2 12t-1 12v11q0 12 1 26.5t3 27.5zM56 198q0 2 1 3t3 1q5 0 8 -6t4 -14.5t1.5 -16.5t0.5 -12v-10q-1 -2 -2 -3.5t-4 -1.5
q-2 0 -2.5 1t-1.5 4v4.5t-0.5 8t-0.5 8v4.5t-0.5 4l-1 6t-1 5.5t-0.5 3.5t-0.5 2t-1.5 2.5t-1 2.5v2q-1 0 -1 1v1zM130 192q1 2 2.5 2h3.5q1 0 3 -1t2 -4l-1.5 -2.5t-1.5 -3.5q-2 -4 -5 -12t-5.5 -15.5t-5 -13.5t-3.5 -6q-5 0 -5 5v1v1q3 12 6.5 25.5t9.5 23.5zM88 61v37
q0 2 -3.5 4.5t-8 5.5t-10 6.5t-10 8t-8 9.5t-3.5 10q8 0 15 -6t13 -13t11.5 -13t10.5 -6h2q2 1 5 3t6.5 4.5t6.5 4.5t4 3q2 1 5 4t6 5.5t6 4.5t6 2h2h2q-2 -7 -6 -11.5t-9.5 -8.5t-11.5 -7t-11.5 -6.5t-9 -8.5t-3.5 -13v-2q0 -2 0.5 -5t1 -5.5t0.5 -4.5v-2l2 -1q9 0 16 -1.5
t12 -4.5t8 -9t3 -17q0 -7 -2.5 -11t-8.5 -6h-22h-13h-11t-11.5 0.5t-12.5 0.5q-3 2 -4.5 5t-2.5 6.5t-1 7v6.5q0 8 4 12.5t9.5 6.5t12 2.5t11.5 1.5zM42 104q0 3 2 3h4h2h0.5t1 -1t2.5 -2l1.5 -1.5t3 -2.5t2.5 -2.5t2 -1.5l3 -3t4 -4.5t4 -4.5l3 -3v-0.5v-1.5q0 -2 -1 -4
t-4 -2l-5 4t-10.5 9.5t-10 10.5t-4.5 7zM105 78q2 3 6 7.5t9 8.5t10 7t9 3v-2t-0.5 -2.5t-0.5 -2.5v-1q-1 -2 -5 -5t-9 -6.5t-9.5 -6t-5.5 -2.5h-2.5t-1.5 2zM72 48q0 -2 2 -7t4.5 -10.5t4.5 -9.5t3 -4t2 0.5t1 1.5v31q0 1 -1.5 1.5t-2.5 0.5h-4t-4 -0.5t-3.5 -1t-1.5 -2.5z
M97 50v-3v-4v-3v-3v-4v-4v-4v-1q0 -2 1 -5t4 -3q1 0 2.5 1t1.5 2v19q0 1 0.5 2l1 2t0.5 2v1q0 4 -1.5 5.5t-4.5 1.5h-2.5t-2.5 -2zM119 19q4 0 7 3.5t2 7.5q0 2 -0.5 5t-1.5 6t-2.5 5t-4.5 2h-3t-2 -1v-25q0 -2 2 -2.5t3 -0.5zM74 20q0 7 -2.5 13t-7.5 10l-0.5 0.5l-0.5 0.5
q-1 0 -2 -0.5t-1 -1.5v-15q0 -2 1.5 -3t4 -2t5 -1.5t3.5 -0.5z" />
</svg>
