<?xml version="1.0" standalone="no"?>
<!DOCTYPE svg PUBLIC "-//W3C//DTD SVG 1.1//EN" "http://www.w3.org/Graphics/SVG/1.1/DTD/svg11.dtd" >
<svg xmlns="http://www.w3.org/2000/svg" xmlns:xlink="http://www.w3.org/1999/xlink" version="1.1" viewBox="-10 0 266 256">
   <path fill="currentColor"
d="M39 246q0 1 1.5 1.5t2.5 0.5q5 0 9 -4t7.5 -10.5t6 -13.5t5 -13t5 -10t5.5 -4q1 0 3 4t3.5 10t4 13.5t5.5 13.5t7 10t8 4q0 -8 -4 -17.5t-9.5 -20t-9.5 -21t-4 -21.5v-2v-2l0.5 -2t0.5 -5t0.5 -5l0.5 -2q0 -1 -0.5 -3.5t-0.5 -4.5t-0.5 -4.5t-0.5 -3.5l0.5 -1.5t0.5 -3.5
t0.5 -4l0.5 -2v-12q0 -1 2 -2v0q3 0 5.5 2.5l5 5l5 5t5.5 3.5q2 0 3.5 -2t1.5 -3q0 -6 -4.5 -9t-10 -5.5t-9.5 -5t-4 -8.5v-1v-1v-3.5t0.5 -5l1 -5t0.5 -3.5t3 -1.5t7.5 -1.5t8.5 -2t5 -3q5 -7 6.5 -16t1.5 -17q0 -9 -5.5 -13t-13.5 -6t-16 -2h-15q-11 0 -17 7.5t-6 17.5
q0 9 1.5 15t5 10.5t9 7t14.5 2.5v24q0 4 -5.5 7t-12.5 6.5t-13 7.5t-6 9q0 2 1.5 2.5t2.5 0.5q3 0 5 -0.5t5 -2.5q1 -2 3.5 -4.5l5.5 -5.5l5.5 -5.5l3.5 -3.5h3q0 2 0.5 5.5t0.5 8.5v8v5q0 1 -0.5 6.5t-0.5 11.5t-0.5 11.5t-0.5 6.5v3v3v4v2q-1 1 -2 3t-2.5 4.5t-2.5 5
t-1.5 3t-1 2t-1.5 3.5t-1.5 4t-1.5 2q0 1 -3.5 7t-8 12t-7.5 12t-3 7zM194 174q0 9 1.5 18l3 18t3.5 18t3 18h2h3q4 0 5.5 -0.5t1.5 -5.5v-4q-6 -18 -9 -35t-7 -35v-1q0 -4 3 -8.5l6 -9t5.5 -9.5t2.5 -10q0 -7 -4 -11t-9.5 -6t-11.5 -2.5t-10 -0.5h-3t-3.5 0.5t-3 1.5
t-0.5 3q0 3 3 4t7 1.5t8 0.5t7.5 1t6 4t2.5 8t-2.5 8t-6.5 6q-3 -6 -8.5 -9.5t-12.5 -3.5q-2 0 -3 0.5t-1 2.5t2.5 3.5t6.5 4t6.5 5.5t2.5 7q0 3 -2.5 5t-6.5 4t-8 3.5t-7 1.5l-0.5 -0.5l-0.5 -0.5l-0.5 -2.5t-0.5 -5t-0.5 -5t-0.5 -3.5v-9v-13v-13v-9t-1.5 -7t-5.5 -6h-3
h-4h-7.5t-7.5 2q-2 1 -4 8.5t-3.5 16.5t-2 17t-0.5 10q0 6 1 11t1 11q0 15 -2.5 30t-2.5 30v2.5t0.5 3t1.5 2.5t2 1h1q1 0 2 -0.5t2 -0.5q0 -9 1 -18l2 -18t1.5 -18.5t-0.5 -17.5q1 -3 3.5 -4t5 -1h5h4.5h1.5t1.5 1v20q0 13 -1.5 26.5t-1.5 26.5q0 2 1 4t3 2t4.5 -2t2.5 -3
v-13.5v-15t0.5 -14.5t1.5 -14q1 -2 4 -2.5t4 -0.5t2.5 -1l3 -2t3 -1.5t2.5 -0.5h1t2.5 0.5t3 0.5h2.5zM46 192v1q1 0 2 0.5l1 0.5h1q6 0 8.5 -5t4 -12t2 -14t0.5 -9v-3v-4.5v-4.5v-3q0 -2 -2.5 -3.5t-4.5 -1.5l-0.5 1l-0.5 1v11t-0.5 9.5t-1 9.5t-2.5 10q0 1 -1.5 3.5
t-2.5 4.5t-2 4.5t-1 3.5zM105 185q1 0 2 1l2 2v0q2 0 3.5 -1.5t1.5 -3.5v-1t-1 -1l-0.5 -1.5l-0.5 -1.5q0 -1 -1 -3.5t-1.5 -5t-1.5 -5t-1 -3.5q-2 -7 -2 -12.5v-14.5q0 -1 -1.5 -1h-2.5h-2.5t-1.5 1v7q0 12 1.5 22.5t6.5 21.5zM134 153v-2.5v-2.5q0 -9 4.5 -12t13.5 -3h1
l1.5 0.5l1.5 0.5v16l-5 4l-2.5 0.5t-3.5 0.5h-5.5t-5.5 -2zM137 119q0 -6 2 -10.5t8 -4.5q3 0 4 1.5t2 3.5t1 4v4q0 3 -1.5 6t-5.5 3t-7 -1.5t-3 -5.5zM45 96v6q3 0 7.5 -2t8.5 -5t6 -7t1 -9l-1 -1l-2 -2h-1h-1l-4.5 4.5t-5 5.5t-4.5 5.5t-4 4.5zM93 82v1q1 0 1.5 1.5
l0.5 1.5l4.5 4.5t4.5 5t4 4l2 1.5h8q0 -1 -3 -5t-6.5 -8.5t-6.5 -8t-4 -3.5h-1q-1 1 -2 2.5t-2 2.5v1zM186 74q0 8 5 14.5t14 6.5h3h3q2 -1 2 -2.5v-2.5q0 -2 -2.5 -3l-5 -2l-5 -2t-2.5 -4v-11q3 -2 6.5 -5t6 -6.5t4.5 -7.5t2 -8q0 -3 -1.5 -6t-4.5 -5q0 -1 -2 -1t-4.5 -1
t-4 -1.5t-2.5 -0.5t-1.5 -0.5t-0.5 -1.5v-11q0 -3 -2 -3.5t-4 -0.5q-1 0 -2 0.5t-2 1.5q-2 11 -5.5 19.5t-11.5 15.5q-1 -5 -1.5 -10t-1.5 -9t-4.5 -6.5t-10.5 -2.5h-9t-10 1q-1 1 -1.5 2.5t-0.5 2.5q0 3 2.5 3.5t5.5 0.5t6.5 -0.5t7 0.5t5.5 3.5t2 8.5v1q-1 1 -2 3.5
l-1 2.5h-25q-1 0 -2 1l-2 2v0v1q0 1 1 2.5l1 1.5h27l0.5 2.5t0.5 3.5q0 5 -2 7t-6 3t-8 1.5l-8 1t-6.5 2.5t-2.5 6h18t13.5 -3t8.5 -9t3 -17q8 1 11.5 -1.5t5 -6t3.5 -6.5t8 -3q4 0 7 2t3 6q-1 5 -4 8.5t-6.5 7t-6 7t-2.5 7.5zM68 59q0 -5 0.5 -9t1.5 -8.5t1.5 -9.5
t-0.5 -11q1 0 2 -0.5t2 -1.5h1q2 0 3 1.5t1 3.5q0 10 -0.5 20t-2.5 19h-2q-2 0 -4.5 -1t-2.5 -3zM89 63v-35q0 -3 0.5 -4.5t2.5 -1.5t3 4t1 8.5v9.5q0 4 1 7q0 1 1.5 3.5t1.5 3.5v1v0q0 1 -0.5 2.5l-0.5 1.5h-10zM103 35v-3.5v-3.5l2 -2q3 2 4.5 6t2 8t0 8t-0.5 6
q-3 0 -5 -2t-2.5 -5t-0.5 -6v-6zM58 45q0 -3 0.5 -7t2.5 -5q1 0 1.5 1t0.5 2v2v2v5t-3 5q-2 -1 -2 -2v-3z" />
</svg>
