<?xml version="1.0" standalone="no"?>
<!DOCTYPE svg PUBLIC "-//W3C//DTD SVG 1.1//EN" "http://www.w3.org/Graphics/SVG/1.1/DTD/svg11.dtd" >
<svg xmlns="http://www.w3.org/2000/svg" xmlns:xlink="http://www.w3.org/1999/xlink" version="1.1" viewBox="-10 0 266 256">
   <path fill="currentColor"
d="M51 246v1v2t1 1h3q6 -3 9.5 -10t5 -16t1.5 -17.5v-13.5q0 -13 -1.5 -26t-1.5 -26v-4v-5q1 -3 4 -4t6.5 -1.5t6.5 -0.5q4 0 6 -2q2 -1 3.5 -2.5t3.5 -3t3 -4t1 -4.5q-3 0 -5.5 1t-4.5 2.5t-4.5 2.5t-5.5 1q0 -3 1.5 -5.5t4 -5l5 -5t3.5 -4.5v-4q-4 0 -7 3.5t-6.5 7.5
t-6.5 7t-6 3q-1 0 -1.5 -0.5t-0.5 -1.5l-0.5 -2.5t-1.5 -3.5v-1q0 -4 2.5 -7.5t6 -7l6.5 -6.5l5 -5q0 -1 -0.5 -1.5t-1.5 -0.5v0v0q-4 0 -9 3.5t-9.5 8.5t-7 10.5t-2.5 9.5q0 2 1 4t2.5 3t2.5 2.5t1 3.5v0l-5 16v0v1q0 2 0.5 7t1 11.5t1 14.5t1 14.5t1 11.5t0.5 7v5
q0 5 -2 10l-4 10t-4 9t-2 7zM110 127v12q0 5 1 13t1.5 15.5t1.5 13.5t1 7l2 5l1.5 2t3.5 4t4.5 4t3.5 3q6 5 12 8.5t12 8.5q3 2 5.5 7t4.5 9.5t4 7.5t4 3t3 -0.5t1 -2.5q0 -9 -4 -15.5t-9 -11.5t-11.5 -9.5t-12.5 -8.5t-11 -8.5t-6 -10.5q-1 -12 -3 -24t-2 -25v-3.5t0.5 -6
t1 -6.5t0.5 -4v-2q0 -4 -1 -7.5t-1 -7.5q0 -11 2 -23t3 -22q-1 -2 -2 -3.5t-3 -3.5l-4 16l-1 1h-6q-2 0 -7 0.5t-9.5 -0.5t-8.5 -3t-5 -5q0 -2 1.5 -4.5t3 -4t4 -3t3.5 -2.5h4t6.5 -1t7 -1.5t4.5 -0.5t3 -1t5 -2t5.5 -2t3.5 -2h1q5 0 9 2t8 3q3 1 7 1.5t7.5 1.5t6 3.5
t2.5 6.5q0 6 -4.5 7.5t-9.5 1.5h-3h-2q-2 -2 -2 -4t-0.5 -4t-1.5 -4t-3 -3l-2 3q2 28 0 55t-3 54q0 3 -1 7t-2 8.5t-1.5 9t-0.5 6.5v1v0l0.5 1t1.5 1h1q2 0 3.5 -2t2 -4.5l1 -5t0.5 -3.5q0 -4 0.5 -14t1 -21t1 -21.5t0.5 -14.5v-2v-3v-4v-2q0 -1 0.5 -2.5t0.5 -3.5t0.5 -4
l0.5 -2q0 -1 -0.5 -2t-0.5 -2.5t-0.5 -2.5t-0.5 -2v-0.5v-1.5q0 -2 5 -2t11.5 -1.5t12 -6t7.5 -14.5q0 -3 -1.5 -5.5t-4 -4.5t-5.5 -3.5t-4 -1.5l-34 -5q-1 -1 -2.5 -2t-2.5 -3t-1.5 -4t-0.5 -3h-0.5h-1.5q-2 0 -3 2t-2 5t-3 5.5t-5 4.5q-7 0 -14 1t-13 3.5t-10 7t-4 12.5
t5 11.5t12 5t14 1t12 -0.5q0 2 0.5 5t0.5 4q0 12 -1.5 24t-1.5 24zM198 238q0 1 1 1.5t2 0.5q2 0 2 -2v-3q0 -3 -1 -6.5t-3 -6.5t-3.5 -6t-2.5 -6q-3 -8 -3.5 -13t-0.5 -13q0 -5 1 -10.5t2.5 -11.5t2.5 -11.5t1 -11.5t-1 -11t-4 -11v0q0 -2 1.5 -4t3 -4.5t2.5 -5t1 -6.5
q0 -3 -1.5 -7.5t-5 -8t-7 -6t-8.5 -2.5v4q5 5 8.5 10t3.5 12q0 2 -0.5 3.5t-3.5 1.5h-1q-3 -4 -9 -9t-12 -5q-1 0 -2.5 0.5t-1.5 1.5q2 4 5 6t6 3.5t5.5 3.5t3.5 7q-1 3 -3.5 4.5t-5.5 1.5t-4.5 -1.5l-3.5 -3.5t-4 -3.5t-4 -1.5q0 7 4 12t10 5q4 0 6 -1.5t5 -1.5t4.5 1.5
t2.5 3.5t1.5 4t0.5 4q0 8 -1 15.5t-2.5 14.5t-2.5 14.5t-1 15.5q0 11 5 23t12 20zM81 155q0 2 0.5 9t1.5 14.5t4 13.5t8 6q2 0 4.5 -1l5 -2t4 -3t1.5 -4h-15q-1 0 -1.5 -1.5l-1 -3t-1 -3.5t-0.5 -3q0 -3 2 -4.5t4 -2t4 -1.5t2 -4v-1q-2 0 -4.5 -0.5t-4.5 -1t-3 -2t-1 -4.5
v-2v-1l10 -15l-1 -0.5t-2 -0.5q-3 0 -6 2t-5 4.5t-3.5 5.5t-1.5 6zM149 191q2 2 6 3t6 1q5 0 8.5 -5t5 -11.5t1.5 -13v-9.5q0 -6 -3 -9t-7 -4.5t-8.5 -2t-8.5 -0.5q0 4 3 5.5t6.5 2t6.5 2t3 5.5q0 1 -0.5 2.5l-0.5 1.5q-1 1 -4 1t-6.5 0.5t-6 2t-2.5 4.5h18l0.5 1t0.5 2.5
v2.5v1q0 7 -4.5 11t-11.5 3z" />
</svg>
