<?xml version="1.0" standalone="no"?>
<!DOCTYPE svg PUBLIC "-//W3C//DTD SVG 1.1//EN" "http://www.w3.org/Graphics/SVG/1.1/DTD/svg11.dtd" >
<svg xmlns="http://www.w3.org/2000/svg" xmlns:xlink="http://www.w3.org/1999/xlink" version="1.1" viewBox="-10 0 266 256">
   <path fill="currentColor"
d="M83 169q0 18 -5 33.5t-13 32.5q-1 2 -2.5 3.5t-3 3.5t-2.5 4t-1 5q7 0 12 -7t9 -18t7 -24t5 -25.5t2.5 -22.5t0.5 -15v-11t-1 -11q-1 -1 -4.5 -1t-8 -2t-8 -7t-4.5 -16v-6.5v-9.5v-9.5v-6.5q-1 -4 -4 -4t-3 4v1v26t3 24q0 1 0.5 3l0.5 2q5 4 9 5t7 1.5t5 3t2 10.5
q0 1 0.5 5t-2.5 6h-5.5t-5.5 0.5t-5.5 2t-4.5 3.5q-1 9 -1 18.5t-2 18.5q0 5 -2 9t-4 8.5t-3.5 8.5t-1.5 9q5 0 8 -4.5t5.5 -10.5t3.5 -12t2 -9q0 -1 0.5 -5.5t1 -9.5t1 -9t0.5 -5t0.5 -3l0.5 -2q1 0 4 -1t4 -1l1.5 1l1.5 1v3v4.5v4.5v3zM98 133v1v1q0 6 0.5 15.5t0.5 19
t0.5 16t0.5 7.5q0 3 0.5 8.5t2 12t3.5 13.5t5 12t6.5 8.5t7.5 3.5q0 -3 -2 -7t-4 -8.5t-4.5 -9t-2.5 -8.5q-4 -14 -6 -29.5t-2 -30.5q0 -4 1.5 -6t5.5 -2t6 3t2 7q1 3 1.5 9t1.5 13t2 13.5t1 8.5q1 1 2 3t2 4.5l2 5t2 3.5q0 1 0.5 2t1 3t1 3t0.5 2q1 1 2.5 3.5t2.5 2.5h2
q0 -5 -1.5 -11t-4 -12t-4.5 -11.5t-3 -10.5q-2 -5 -2.5 -10.5t-1 -10.5t-1.5 -10.5t-3 -10.5q-1 -2 -3.5 -3t-5 -1t-5 -0.5t-4.5 -3.5v-3.5v-3.5v-6t1 -6q11 0 16.5 -4t8.5 -11t3.5 -15.5t0.5 -16.5q0 -2 0.5 -5t0 -5.5t-2 -4.5t-3.5 -2v5v6.5t-0.5 6.5t-0.5 4q0 4 -0.5 9
t-1.5 10t-3.5 9t-6.5 6q-2 0 -4 0.5t-4 0.5h-5t-3 2q0 1 -0.5 3t-0.5 5t-0.5 5t-0.5 3v0zM171 114q-1 17 -0.5 33t2.5 32t6.5 31.5t12.5 30.5q1 3 2 5t2.5 3t3 1.5t5.5 0.5q0 -5 -3.5 -8.5t-5.5 -7.5q0 -1 -0.5 -3t-1.5 -4.5t-1.5 -4.5t-0.5 -3q-7 -24 -10.5 -47.5
t-3.5 -49.5v-3v-4v-4v-3t5 -1.5t10.5 -2t10.5 -4.5t5 -9q0 -8 -2 -12t-4.5 -6t-5.5 -2t-5.5 -0.5t-4 -1t-1.5 -3.5v-2l0.5 -1.5l0.5 -1.5l0.5 -2.5l1 -5l1 -5t0.5 -3.5v-1q0 -9 -6.5 -15.5t-15.5 -6.5q0 3 2 6t4 6.5t4 8t2 10.5q0 8 -1 12t-2 5.5t-3 1.5h-3.5t-3 0.5
t-2.5 3.5q0 1 1.5 1.5t3.5 0.5t3.5 0.5t1.5 2.5v3v3v6t-1 5h-3t-4 0.5t-3.5 1.5t-1.5 3q2 3 4.5 4t4.5 6zM148 90v17q0 3 -1 6t-2 5t-2 4.5t-2 5.5q-2 4 -5 7t-3 7h4q1 0 2 -1l2.5 -2.5l3 -3t1.5 -2.5q3 -4 5 -11.5t3.5 -16t2 -16.5t0.5 -12v-7t-1.5 -10t-3.5 -9t-6 -4
q0 11 1 21.5t1 21.5zM78 74v6t0.5 6t0.5 6t1 7q0 3 1 4.5t3 2t3.5 0.5h4.5q8 0 13 -2t7 -5t2.5 -9t0.5 -15v-11q-1 -3 -3 -5t-5 -2.5l-6 -1t-5 -0.5q-10 0 -14 4t-4 15zM86 97v-1l2 -2l1 -1h14l0.5 0.5l0.5 0.5v1q0 4 -3 5t-6 1h-2t-3.5 -0.5t-2.5 -1.5t-1 -2zM190 78
q5 0 7.5 3t2.5 8v2q0 3 -1 3q-1 3 -4.5 4t-6.5 1h-2.5t-2.5 -2v-15q0 -2 1 -3t2 -1h2h2zM84 81v-1v0l2 -2t2 -1h17q1 0 2.5 2.5l1.5 2.5v0q0 2 -2 3t-3 1h-16q-1 0 -2.5 -2l-1.5 -2v-1v0zM97 62h6q2 1 2.5 2t0.5 3q0 1 -0.5 2t-1.5 1h-18q0 -6 3 -7t8 -1zM69 26q2 7 3 11.5
t6 8.5h15h10t9 -1t7 -4.5t3 -9.5q0 -7 -2 -10.5t-5.5 -5t-8 -2t-9.5 -0.5h-2h-3q-2 0 -3.5 0.5t-2.5 0.5q-4 2 -9.5 4.5t-7.5 7.5zM80 31q0 -3 2.5 -5t6 -3t7 -1h5.5h8q2 2 2.5 4.5t0.5 5.5q0 2 -0.5 4.5t-2.5 2.5q-1 0 -5 0.5t-5 0.5h-6q-3 0 -6 -1t-5 -2.5t-2 -5.5z" />
</svg>
