<?xml version="1.0" standalone="no"?>
<!DOCTYPE svg PUBLIC "-//W3C//DTD SVG 1.1//EN" "http://www.w3.org/Graphics/SVG/1.1/DTD/svg11.dtd" >
<svg xmlns="http://www.w3.org/2000/svg" xmlns:xlink="http://www.w3.org/1999/xlink" version="1.1" viewBox="-10 0 266 256">
   <path fill="currentColor"
d="M177 198q0 2 0.5 7t2 11t3.5 12t4.5 11t5.5 8.5t7 3.5q3 0 5.5 -1.5t2.5 -4.5t-1 -4.5l-2 -3t-2.5 -2.5t-3.5 -3q-5 -9 -8 -17t-3 -18q0 -6 1 -9.5t3.5 -6l5 -5l5.5 -5.5q3 -5 5.5 -11l5 -12t3.5 -12t1 -12q0 -4 -0.5 -10t-2 -11t-4.5 -9t-9 -4q0 3 1 5.5t2 4.5t2 4.5
t1 5.5q0 8 -0.5 16t-2.5 15.5t-5 14.5t-9 13l-8 8t-6 9v3v3v3v3zM102 209q0 1 1 3.5t2 6t1.5 6t0.5 3.5q1 2 1.5 4.5t1.5 5t2.5 4.5t4.5 2q6 0 6 -7q0 -5 -1.5 -10.5t-3.5 -10.5t-3.5 -10.5t-1.5 -10.5q-1 -4 0.5 -9.5t4.5 -11t6 -10.5t5 -9q4 -5 8 -9.5t5 -11.5
q1 -1 1.5 -3t1 -4.5t1 -4.5t0.5 -3v-25v-11.5t-0.5 -15.5t-1.5 -16t-4 -14.5t-7.5 -11t-11.5 -4.5h-3t-2 2t-3 5.5t-3.5 6t-2.5 5l-1 2.5l-4 49q-2 8 -3 17t-1 18v4t2 1q3 0 4.5 -2.5t2 -6.5l1 -8t1.5 -6h1q2 0 3.5 1t3 2.5t3 2.5t2.5 1q4 0 4 -4v-0.5v-0.5q-1 -1 -1.5 -3
l-0.5 -2l-15 -16l2 -15q0 -1 0.5 -1h1.5q2 0 4 1.5l4 3l4 3t5 1.5q0 -5 -1.5 -8.5t-4 -6.5t-5.5 -6t-6 -7q-1 0 -1 -1v-1q0 -2 1 -5.5l2 -7t3.5 -5.5t5.5 -2t5.5 5.5t4 13.5t2.5 17.5t1.5 18t1 14.5t0.5 7q0 4 -0.5 9t-2 10t-3 9.5t-4.5 8.5q-4 6 -10 10.5t-10 11.5
q-2 4 -2.5 8t-2.5 8q0 1 -0.5 5t-0.5 8t-0.5 8t-0.5 5zM177 148q2 4 5.5 5t7.5 1h2t2 -2q-1 -2 -2.5 -3l-3 -2t-3 -2.5t-1.5 -3.5v-0.5v-0.5q1 -1 3 -1t4 -1t4 -1t3 -1l0.5 -0.5t0.5 -1.5v-1q0 -2 -2 -2.5t-5 -1.5t-5.5 -2t-2.5 -4t2.5 -4t5 -1.5t4.5 -1t2 -2.5t-0.5 -2.5
l-1.5 -1.5q-3 -2 -4.5 -5l-2.5 -5l-2 -4t-2 -2q-2 0 -3 3.5t-2 8.5t-1.5 11t-0.5 11.5t-0.5 9t-0.5 4.5v6zM44 91h-3q-2 0 -2 2v52q0 2 2.5 3.5t5.5 2.5t6.5 1h3.5q4 0 9 -0.5t10 -2t9 -4.5t4 -9v-33v-1.5t0.5 -3t1 -2.5t0.5 -2v-0.5v-1.5q0 -2 -1.5 -3.5t-3.5 -1.5
q-4 0 -4.5 3t-1 7t-1 7t-5.5 3h-2.5t-2.5 -2v-49q0 -2 3.5 -2.5t7.5 -1t7.5 -1.5t3.5 -5q0 -1 -0.5 -2.5t-1.5 -1.5h-18v-26q0 -2 -2 -2.5t-4 -0.5q-6 0 -6 7l1 3l1 3q0 1 -1 3t-1 3v1q0 2 1 2.5t1 3.5q0 2 -0.5 4t-3.5 3h-13h-1.5t-3.5 0.5t-3.5 1.5t-1.5 2v1q0 1 1.5 2
l1.5 1h19l3 4v2t0.5 4.5t0.5 5t1 4.5v2v9q0 5 -1 10t-2.5 9t-4.5 4t-3.5 -2.5t-0.5 -5.5q0 -4 -0.5 -6.5t-4.5 -2.5zM153 142q0 7 2.5 8.5t9.5 1.5q0 -2 -0.5 -3l-1 -2l-1 -2t-1.5 -4v-1q0 -1 1 -2t3 -2t3 -2t1 -2v-1q-1 -1 -2 -1.5l-2 -1t-2 -1.5t-1 -2q0 -3 1.5 -5
t2.5 -3.5t2 -3.5t1 -4v-1v-1q0 -1 -1.5 -2t-1.5 -2t-0.5 -2.5t-0.5 -3.5t-0.5 -3.5t-0.5 -2.5h-1q-2 0 -3.5 4.5t-2 10l-1 11t-0.5 7.5q0 1 -0.5 3t-1 4.5l-1 5t-0.5 3.5v2zM49 128q0 -5 1.5 -7t4 -3t5.5 -1h7q1 0 2 -0.5t2.5 -0.5t2.5 -0.5t2 -0.5h1v0q1 0 2 1t2 1v3v3
q0 9 -4.5 14.5t-13.5 5.5q-8 0 -11 -3t-3 -12zM157 75q1 4 4 6.5t6 3t6.5 1t6.5 0.5q6 0 12.5 -1t12.5 -3.5t10 -7t4 -11.5v-33q0 -4 -2 -6t-5 -3t-6.5 -1h-5.5q-1 0 -3.5 1t-2.5 3q0 3 2.5 4t5 0.5t5.5 -0.5q2 0 2 2q1 2 0.5 6l-0.5 4h-12v1t1 1q2 4 3.5 4.5t2.5 0.5
t2 -0.5t1.5 0t1 3t0.5 8.5h-17q0 2 1.5 3.5t3.5 2.5t4 1.5t3 1.5l0.5 0.5l0.5 0.5q0 4 -3 6t-7 2.5t-8 0.5h-5h-6t-5.5 -0.5t-4.5 -2.5t-2 -6q0 -3 2 -3.5t4.5 -1l5 -1t2.5 -3.5q0 -1 -2 -2t-4.5 -1.5t-4.5 -1t-3 -0.5v-1v-1q0 -3 1.5 -4.5t4 -2t4.5 -1.5t3 -3
q0 -1 -0.5 -1.5l-0.5 -0.5q-1 -1 -5 -1.5t-5 -0.5v-3q3 -2 5.5 -3t4 -2t2 -3t0.5 -5h-4.5h-6.5t-6 1.5t-4 3.5q-1 6 -1 10.5v9.5v5v4.5t0.5 7.5t0.5 7.5v4.5z" />
</svg>
