<?xml version="1.0" standalone="no"?>
<!DOCTYPE svg PUBLIC "-//W3C//DTD SVG 1.1//EN" "http://www.w3.org/Graphics/SVG/1.1/DTD/svg11.dtd" >
<svg xmlns="http://www.w3.org/2000/svg" xmlns:xlink="http://www.w3.org/1999/xlink" version="1.1" viewBox="-10 0 266 256">
   <path fill="currentColor"
d="M110 175l-4 3l-10 6t-9 6.5t-6.5 8.5t-2.5 12v35q0 1 2 2.5t3 2.5q4 1 7 -1.5t3 -5.5q0 -7 -1 -13.5t-1 -13.5v-2.5v-3.5t0.5 -4t0.5 -3q1 -1 2.5 -4.5t3.5 -4.5q1 -1 3 -2.5t4.5 -3.5t4.5 -3.5t3 -2.5l0.5 -1.5l0.5 -1.5q1 -2 1.5 -4t1.5 -4t1.5 -3.5l0.5 -1.5v-73
q0 -2 -1.5 -3.5t-3.5 -1.5q-1 0 -1.5 0.5l-1.5 1.5v13v19v19v13v4t-0.5 6t-0.5 6v4zM122 185q0 1 0.5 2.5t1.5 2.5h3h3h4h2q19 0 37 -1.5t36 -0.5l3 -2v-8h-27l-1 -1.5l-1 -1.5q0 -1 -0.5 -3l-0.5 -2v-54q0 -3 1.5 -5.5t3.5 -4.5t3.5 -4t2.5 -3t1 -2.5t0.5 -3t1.5 -3t2 -1.5
h4h4q1 0 2 -0.5t1 -3.5q0 -4 -4.5 -6.5t-10.5 -4t-12 -2.5t-9 -1q0 4 2 5.5t4.5 2.5t5 3t2.5 5q0 7 -5 12.5t-12 6.5h-3t-4.5 -0.5l-5 -1t-3.5 -0.5q-3 0 -4.5 -2.5t-2.5 -5l-2 -5t-4 -2.5q-2 0 -3 0.5t-1 1.5q0 9 2.5 12t5.5 5t6 3.5t3 5.5v33q0 1 0.5 3.5t0.5 3.5v1v1v5
t-0.5 6t-0.5 5v2l-4 3h-4t-7 0.5t-7 0.5t-5 1q-3 0 -4 0.5t-1 2.5zM165 178v-10.5t-0.5 -16.5t-1 -16.5t-0.5 -10.5v-4q0 -3 1.5 -4.5t3.5 -1.5t3 0.5t1 2.5q-1 12 0 23.5t1 22.5v14q-1 2 -2 2.5t-3 0.5h-1.5t-1.5 -2zM47 165l2 3q0 1 3 1.5t6 0.5h6h4h4.5h4.5l1.5 -1.5
l1.5 -1.5v-0.5v-0.5q0 -3 -3 -4t-6 -1t-6 -0.5t-3 -3.5v-17q0 -1 2 -1.5t4 0t3.5 0t1.5 -2.5v-1q-1 -1 -3 -1.5t-4.5 -0.5t-4 -1t-1.5 -4t2 -5t4.5 -3t5 -1.5t3.5 -2.5q-1 -2 -3.5 -3t-5.5 -1.5t-5 -1.5t-2 -3v-21l1 -0.5t2 -1.5h5h5q2 0 4 1t3 2.5t1 5.5v59q0 8 5 10.5
t11 2.5h3.5h3.5l0.5 -0.5l1.5 -1.5v0q0 -4 -2.5 -4.5l-5 -1t-4.5 -2.5t-2 -8q0 -5 2 -6.5t4 -1.5t4 -0.5t2 -2.5q0 -3 -2 -3.5t-4.5 -0.5t-4.5 -0.5t-2 -2.5v-13h14l-0.5 -1.5t-0.5 -2.5l-0.5 -0.5t-1.5 -0.5q0 -1 -2 -1t-3.5 -0.5t-3 -0.5h-2.5v-23l1.5 -0.5t3.5 -1.5
q6 -1 10.5 -2t8.5 -3t6.5 -5t5.5 -9q5 -1 10 -2.5t10.5 -3.5t10.5 -3t10 -1t9 1.5t8 3.5t8 3.5t8 1.5h3h3q1 -1 1.5 -2t0.5 -2q0 -3 -6 -5.5t-13 -4.5t-14 -3.5t-9 -1.5q-5 0 -10 2l-10 4t-9.5 4t-9.5 2l-0.5 -0.5t-0.5 -1.5q-1 -1 -2 -4t-1 -6v-6v-3q-1 -7 -1 -11.5t-2 -7
t-6 -3t-12 -0.5h-4.5h-4.5t-2 1t-1.5 2.5t-0.5 2.5v2q2 0 6.5 -0.5t8.5 0t7.5 2t3.5 6.5q0 1 -0.5 3t-3.5 2h-21q-1 0 -1.5 1.5t-0.5 2.5v1v1q6 2 13 2t12 -1q2 1 2 2v3q0 2 -0.5 4t-3.5 3h-3h-4h-5h-3q-2 0 -3.5 0.5t-1.5 2.5t1.5 2.5t3.5 0.5q1 0 3 0.5t5 0.5q2 0 4 -0.5
t3 -0.5l2 2t1 2q1 1 0 3t-2.5 4t-3.5 3t-3 1h-41q-4 0 -4.5 -2.5t-0.5 -4.5v-2.5t1 -1.5l18 -4v-5h-18q0 -1 -0.5 -4t-0.5 -4q1 -3 4.5 -3.5l7 -1t6.5 -1t3 -4.5q0 -3 -3 -3h-18q0 -5 2 -7.5t4.5 -3.5t5 -1t5.5 -1t4.5 -2t1.5 -4t-1 -3.5t-6 -0.5q-2 0 -5.5 2t-5.5 3
q-4 1 -7.5 1.5t-6.5 1.5t-4.5 4t-1.5 8q0 12 1.5 25t4.5 26q1 0 1 1v0q0 2 -1 3.5t-3 3.5v74zM135 163v0q1 1 2 3.5t3 2.5l1 -1l0.5 -0.5l0.5 -0.5v-41q0 -2 -1 -2h-2h-1h-1v7.5t-0.5 11.5t-1 11.5t-0.5 7.5v1zM193 160l1.5 1.5t1.5 0.5t2 -0.5t1 -1.5v-40q0 -1 -1.5 -2
t-3.5 -1t-2.5 2.5t-0.5 4.5v2q0 2 0.5 6.5t0.5 10t0.5 10.5t0.5 7zM127 82q0 2 2.5 2.5t3.5 0.5q4 0 8 -1t8.5 -3t7 -4.5t2.5 -6.5q-7 0 -14.5 2.5t-13.5 5.5q-1 0 -2 1l-2 2v1zM173 37h6t8 0.5t8 0.5h6h3q3 0 3.5 -1t0.5 -4v-2q0 -2 -2 -3h-3.5t-5.5 -0.5t-5.5 -0.5h-3.5
h-4h-3.5t-4.5 0.5t-3 2t-1 3.5v2t1 2zM163 33v-1.5t-1 -1.5h-28q-3 0 -3.5 2t-0.5 5h32q1 0 1 -1.5v-2.5z" />
</svg>
