<?xml version="1.0" standalone="no"?>
<!DOCTYPE svg PUBLIC "-//W3C//DTD SVG 1.1//EN" "http://www.w3.org/Graphics/SVG/1.1/DTD/svg11.dtd" >
<svg xmlns="http://www.w3.org/2000/svg" xmlns:xlink="http://www.w3.org/1999/xlink" version="1.1" viewBox="-10 0 266 256">
   <path fill="currentColor"
d="M42 164v12v13.5v12.5v5q1 14 3 22.5t6.5 13.5t13 7t21.5 2h7.5t7 -0.5t7.5 -1.5t9 -2l3 -3l4 -4t4 -4.5t3 -4.5v-28v-28q0 -1 -0.5 -8t-0.5 -14.5t-0.5 -14.5t-0.5 -8v-4t-0.5 -4t-1.5 -3.5t-3 -1.5t-3 2t-1 4.5t-0.5 4.5t-3.5 2h-0.5h-0.5q0 -1 -1.5 -2t-3.5 -2t-3.5 -2
t-1.5 -2q-1 1 -2 2.5t-2 1.5q0 1 -1.5 3t-3.5 4.5t-3 4.5t-2 3h-5q-1 -1 -2 -3.5t-2.5 -5t-2.5 -5t-2 -3.5l-1.5 -1.5t-2.5 -0.5q-3 0 -4.5 3t-3.5 6t-4 5.5t-5 2.5h-3.5t-2.5 -2v-19h-1h-2.5t-2.5 0.5t-2 2.5v8v13v13v8zM146 185v15.5t0.5 20.5t4 18.5t11.5 10.5h5h5h8
q6 0 10.5 -1t8 -4t3.5 -8v-86q0 -2 -1.5 -4t-3.5 -2q-1 0 -2 1.5t-2 3.5t-1.5 4t-0.5 3v18l-1 1l-3 0.5t-7 1t-8 0.5h-7h-3q-4 0 -4.5 -1t-0.5 -5v-8.5t1 -9.5q-1 -3 -5 -3q-2 0 -4 3.5t-3 5.5v25zM56 227q0 -8 3 -12.5t10 -8.5l1 -0.5l1 -0.5q3 0 4.5 3.5t2.5 7t2.5 7
t5.5 3.5q3 0 4.5 -3.5t2.5 -7.5t2.5 -7.5t5.5 -3.5q2 0 5 3.5t5.5 8l5 9t2.5 6.5q0 4 -3.5 6.5t-8.5 3.5t-9.5 1.5t-7.5 0.5t-9 -0.5t-11.5 -1.5t-9.5 -4.5t-4 -9.5zM188 184h2t1 1l1.5 6t0.5 4v4v5v3v8.5t-0.5 9t-1 7.5l-0.5 3l-1 4q-1 0 -4.5 0.5t-6.5 1.5h-1
q-3 0 -7 -0.5t-7.5 -2.5t-6 -5t-2.5 -7v-39h3.5t8.5 -1t10.5 -1.5t8.5 -0.5h2zM102 189q-2 0 -4 2.5t-4 6l-4 7t-4 5.5q-3 -6 -7 -11.5t-9 -9.5q-2 2 -3.5 5t-3.5 5.5t-4.5 4.5t-5.5 2q-1 0 -2 -0.5t-1 -1.5v-26l3 -2h5t11.5 -0.5t13.5 -0.5h11h10q1 0 4 -0.5t6 0t5.5 1
t2.5 2.5v35l-0.5 1t-1.5 1v0v0h-0.5h-0.5q-1 -1 -3.5 -5.5l-5 -9t-5 -8t-3.5 -3.5zM50 164v-2q0 -1 2 -3t3.5 -4.5t3.5 -4.5t2 -3q2 -2 4.5 -5.5t5.5 -3.5t5 2.5t3.5 5.5t3.5 5.5t5 2.5q4 0 5.5 -2.5t2.5 -5.5t2.5 -6t4.5 -4q1 0 3 0.5t3 1.5q0 1 2 2.5t3.5 3.5t3.5 4t2 3
l0.5 1.5l0.5 1.5v4t-0.5 4t-1 3.5t-2.5 1.5q-15 0 -30.5 1t-30.5 1q-2 0 -4 -1.5t-2 -3.5zM165 122h-4t-6 0.5t-6 0.5h-4q-3 1 -5 2t-2 4h11h16h17h11t6 -0.5t5.5 -1.5t4 -3t1.5 -5h-31l-1 -5l-0.5 -3.5t-1 -8t-0.5 -9.5v-8v-5v-3.5t2 -2.5l34 -4l0.5 -0.5t0.5 -1.5
q0 -2 -1.5 -2.5t-4.5 -0.5q-2 0 -6 -0.5t-8.5 -1t-9 -0.5h-5.5q-3 -3 -3.5 -4.5t-0.5 -3.5q0 -8 1 -15t1 -14v-7l-3 -4.5t-4 -1.5q-2 0 -3.5 0.5t-1.5 3.5v46l-2 2h-3.5t-5 0.5t-5 0.5t-3.5 1q-1 0 -3.5 0.5l-5 1t-4 2t-1.5 2.5q0 2 2 2.5t3 0.5q6 0 11.5 -1t11.5 -1
q4 0 5.5 4t2 9t0 10.5t-0.5 7.5v3q0 3 -0.5 5.5t-0.5 4.5v4zM55 52q0 14 0.5 23.5t2.5 15t5.5 8t10 4t16 1.5t22.5 1h3q2 0 5 -0.5t3 -3.5q0 -2 -1.5 -3t-3 -1.5t-3.5 -0.5h-3t-4 -0.5t-6 -0.5t-5.5 -0.5t-4.5 -0.5q-2 -2 -2.5 -5.5t-0.5 -6.5v-3v-3q4 -5 7 -6.5t6 -2
t5.5 -1t4 -3t2.5 -8.5t1 -18v-13q-1 -2 -2 -2.5t-3 -0.5h-2t-2 2q1 5 1 9v7.5t-0.5 6.5t-1.5 8q-1 1 -1.5 3l-0.5 2h-11q0 -11 0.5 -21.5t0.5 -21.5l-1 -1q0 -1 -1 -2l-2 -2h-1q-2 0 -3.5 1.5t-2.5 4.5q0 3 0.5 11t0.5 16q0 9 -0.5 17t-0.5 11q0 1 0.5 4t0 7t-2 7t-4.5 3
q-2 0 -4 -2t-4 -4.5t-3.5 -5t-1.5 -4.5v-45q0 -3 -1 -4t-3 -1q-1 0 -3 1t-1 4v20z" />
</svg>
