<?xml version="1.0" standalone="no"?>
<!DOCTYPE svg PUBLIC "-//W3C//DTD SVG 1.1//EN" "http://www.w3.org/Graphics/SVG/1.1/DTD/svg11.dtd" >
<svg xmlns="http://www.w3.org/2000/svg" xmlns:xlink="http://www.w3.org/1999/xlink" version="1.1" viewBox="-10 0 266 256">
   <path fill="currentColor"
d="M37 108v96q0 3 1 10.5t2.5 14.5t4.5 13t8 6q9 1 18.5 1.5t18.5 0.5q11 0 17.5 -3.5t10 -9t5 -13.5t2 -16.5t0 -17.5t-0.5 -17v-16q0 -8 -0.5 -15t-1 -14.5t-0.5 -16.5q-1 -2 -2.5 -3.5t-3.5 -1.5h-1q-1 0 -2 0.5t-1 1.5v15l-2 1t-4 0q-2 0 -2.5 -2.5t-1.5 -4.5t-2.5 -4
t-5.5 -2q-3 0 -4.5 1.5t-2.5 3.5t-2 5.5t-3 6.5h-1h-1q-3 0 -5 -2.5t-3.5 -5t-3.5 -5t-5 -2.5q-2 0 -3.5 2t-2.5 4.5t-2.5 4.5t-4.5 2h-0.5h-0.5l-8 -18h-4zM49 221q0 -2 0.5 -3.5t1.5 -2.5l3 -3t4 -4.5t4 -4.5l3 -3h1q3 0 4.5 2t2.5 4t3 3.5t5 1.5t5 -2t3.5 -5t3 -5.5
t4.5 -2.5q2 0 5 2.5t5.5 5.5t4 6.5t1.5 6.5q0 12 -6.5 19t-17.5 7q-6 0 -12.5 -0.5t-12.5 -2.5t-10.5 -6.5t-4.5 -12.5zM139 164v3.5v3.5q0 3 0.5 8.5t0.5 12t0.5 11.5t0.5 6q1 12 4.5 18t9.5 8.5t14 3t18 0.5q8 0 12.5 -6t6.5 -13.5t2 -16.5v-14v-10v-8.5t-0.5 -8.5
t-1.5 -10h-1v0q-3 0 -4.5 3t-1.5 5q0 4 1 7.5t1 6.5q0 7 -3.5 10t-9.5 3q-4 0 -6.5 -1t-4 -3.5t-2 -6t-0.5 -7.5v-2q1 -2 4.5 -8t7 -12.5t6.5 -12.5t5 -8q1 -3 1 -3.5v-3.5q0 -5 -2.5 -9t-6 -7.5t-6 -7.5t-2.5 -9v-1l1 -0.5t1 -1.5l34 -3q1 0 1.5 -1l0.5 -1v-1v-1
q0 -1 -1.5 -2t-1.5 -2h-10q-6 0 -11.5 1t-11.5 1q-3 0 -5 -3t-3 -6.5t-1 -8v-6.5q0 -7 3.5 -9t7.5 -2.5t9 -1.5t8 -5l-4 -4q0 -1 -4 -1h-5q-9 0 -18 1t-17 3.5t-13 9t-5 19.5v3v2q0 2 0.5 8t0.5 12.5t0.5 12.5t0.5 8q2 7 5 11.5t7.5 6.5t10 2.5t12.5 0.5q0 -5 -2.5 -6.5
t-5.5 -3t-6.5 -2t-6.5 -3t-5 -6t-2 -9.5v-4.5t0.5 -4.5t2 -3.5t4.5 -1.5h17l1.5 1.5t1.5 2.5q1 1 1.5 3t1.5 4.5t1.5 4.5t0.5 3q1 2 3 4t4 4.5t3 5t1 5.5q0 5 -2 9t-4.5 7.5t-5.5 7t-5 7.5q-2 2 -2.5 7.5t-1 11.5t-1 10l-0.5 4h-17q-1 0 -2 -1t-1 -2v-2v-4v-3v-2v-3t-0.5 -4
t-0.5 -3.5v-2.5q-1 -1 -2 -1h-1q-3 0 -3.5 2t-0.5 5zM147 211v-3q0 -3 0.5 -5.5t1.5 -4.5t2 -2h48q2 0 2 2v3v3q0 1 -1 4l-2 6l-2 6t-2 4q-1 2 -3.5 3t-5.5 1.5t-6 0t-4 -0.5q-4 0 -9 -0.5t-9 -2t-7 -5t-3 -9.5zM46 182v-10q1 -1 2.5 -2t2.5 -1t4 -0.5t5.5 -0.5t5.5 -0.5
t4 -0.5q9 -1 20 -1.5t20 -0.5q3 0 4.5 1.5t2 4t0.5 4.5v6q0 1 -0.5 4t-0.5 4t-2 2.5t-3 1.5q-2 -1 -3.5 -1.5t-3.5 -1.5t-3.5 -2t-3.5 -1h-2h-1l-10 9q0 1 -1 1h-2q-2 0 -3.5 -1.5t-3 -3.5t-3.5 -3.5t-4 -1.5t-3 1.5t-2.5 3.5t-4 3.5t-5.5 1.5q-1 0 -2.5 -0.5l-1.5 -0.5
q-2 -3 -2 -7v-7zM44 154q0 -3 2.5 -7t4.5 -6q1 -1 2.5 -3t3.5 -4l3.5 -3.5l2.5 -2.5h2q3 0 4 2t2 4.5t2 4.5t5 2q3 0 5 -2.5t3 -6t2.5 -6t4.5 -2.5q2 0 6 3.5t7.5 8t6 9.5t2.5 8v2.5t-2 2.5q-10 2 -20 2h-20h-25q-4 -2 -4 -6zM40 44q0 3 0.5 10t1.5 15t3 14.5t4 7.5h25h24
h3.5t5 -1t4.5 -2.5t2 -3.5q0 -3 -1.5 -3.5t-3.5 -0.5q-5 0 -8.5 2t-8.5 2h-3t-2 -1q-2 -2 -2 -5v-6v-3v-4q6 -4 10.5 -5.5t8 -3.5t5.5 -6.5t2 -16.5q0 -4 -2.5 -7.5t-7.5 -3.5v21q0 1 -1 2.5t-3 3t-4 2.5t-3 1h-3t-2 -2v-31q0 -5 -1 -7.5t-5 -2.5h-2.5t-1.5 2v71q0 1 -1 1.5
t-2 0.5h-2h-1q-7 0 -10.5 -4t-5 -10t-1.5 -12.5v-12.5t-1.5 -10t-4.5 -4l-1 1l-1.5 0.5l-1.5 0.5v2q0 2 -0.5 3.5t-0.5 3.5v2zM144 59q0 -3 1.5 -7t4 -7t6 -5t6.5 -2q1 0 3.5 0.5t2.5 2.5q0 1 0.5 5t0.5 8t0.5 7.5t0.5 5.5v3v3q0 1 -2 1h-4h-5q-4 0 -6.5 -0.5t-4.5 -2
t-3 -4.5t-1 -8z" />
</svg>
