<?xml version="1.0" standalone="no"?>
<!DOCTYPE svg PUBLIC "-//W3C//DTD SVG 1.1//EN" "http://www.w3.org/Graphics/SVG/1.1/DTD/svg11.dtd" >
<svg xmlns="http://www.w3.org/2000/svg" xmlns:xlink="http://www.w3.org/1999/xlink" version="1.1" viewBox="-10 0 266 256">
   <path fill="currentColor"
d="M196 219v31q0 2 1 2h2q3 0 5 -3v-10q0 -15 -2 -29t-2 -29q0 -1 0.5 -3.5t0.5 -3.5q3 -2 4.5 -5.5t1.5 -7.5q0 -7 -4 -12t-11 -5q0 3 1 5t2.5 4t2.5 4.5t1 4.5q0 4 -3 4h-2q-3 -3 -7 -6.5t-8 -6.5t-9 -5t-10 -2q-1 0 -2.5 0.5t-1.5 2.5v1l0.5 1.5t1.5 1.5l7.5 2.5t9 3.5
t8 5.5t3.5 7.5v1v1q-5 2 -7.5 2h-6.5h-5q0 -1 -2 -2.5t-4.5 -3t-4.5 -3.5t-3 -2q0 -1 -1 -1.5l-1 -0.5v1v1q0 4 2 7t4.5 5.5t6 4t7.5 1.5t7.5 -1t6.5 -1q4 0 6 4.5t2.5 11t0.5 12.5t2 10zM45 171l4 38q0 5 3 8.5t7.5 6t9.5 4t8 1.5t6 -1t6 -1t5.5 1t4.5 1q4 0 8 -1.5t8.5 -4
t8 -5t6.5 -4.5q2 -3 3 -7t1.5 -8.5t0.5 -8.5v-8v-11v-13q0 -6 -0.5 -12t-3.5 -9v-32l-1 -2q-1 0 -2.5 -0.5l-1.5 -0.5q-1 0 -2.5 1.5l-1.5 1.5v16q-3 0 -5.5 -1.5t-4.5 -4t-4 -5.5t-5 -5h-2q-3 0 -4.5 2t-3 5t-2.5 5.5t-1 4.5l-3 1h-1h-1l-10 -14q-1 -2 -3.5 -2h-3.5h-2h-1
q0 3 -1.5 7t-3 7.5t-4 5.5t-6.5 2v-6.5t-0.5 -6.5t-1.5 -6t-4 -5l-2 2v4v7v11v13t0.5 13t1 10.5t1.5 5.5zM57 202v-1q1 -3 2.5 -5.5t3.5 -5.5t4 -4.5t5 -1.5q4 0 6 2.5t3 4.5t3 4.5t5 2.5q4 0 6 -3.5t3.5 -7t3.5 -6.5t6 -3q3 0 5.5 2.5t5 6t3.5 7.5t1 7t-2 6t-4.5 5.5
t-6 4.5t-5.5 2h-32q-3 0 -5.5 -1.5t-5 -4t-4 -6t-1.5 -5.5zM149 206q0 1 1.5 1.5t3 1.5t3 1.5t2.5 0.5h5t8.5 -1t8 -2.5t3.5 -5.5q-1 -1 -2.5 -1h-3.5h-2q-1 0 -3 0.5l-2 0.5q-1 0 -4 0.5t-6 0.5t-6 -0.5t-4 -0.5q-1 1 -1.5 2t-0.5 2zM106 168q-3 1 -4.5 3t-2.5 5t-2.5 5.5
t-4.5 2.5q-1 0 -2 -0.5t-2 -0.5q0 -1 -2 -2.5t-3.5 -3.5t-3 -3.5l-2.5 -2.5h-2.5h-1.5h-4t-1 0.5t-0.5 1.5t-2.5 3q-1 1 -2 2.5t-2.5 3t-2.5 2l-1 0.5h-3q0 -1 -0.5 -3.5t-1 -6t-0.5 -6v-3.5v-4v-3q0 -1 2 -2q8 1 16 0l16 -2l16 -2t17 -1q2 0 3.5 0.5t1.5 2.5q2 7 2 11.5
v10.5v5t-2 5q-1 -1 -3.5 -4t-5 -6.5t-5 -5.5t-4.5 -2zM52 145q1 -2 3.5 -6t5.5 -8.5t5.5 -7.5t4.5 -3q3 0 5 2.5t3 5.5t3 6t5 3q4 0 5.5 -3.5t2.5 -7t2.5 -6.5t5.5 -3h2t2 1l2 2t2 3q1 1 2.5 3t3.5 4t3.5 4t2.5 3v1v1q0 3 -2 4t-5.5 1.5t-6.5 0.5h-4q-2 0 -7.5 0.5t-12 1
t-12 1t-6.5 0.5h-2.5h-2.5h-5.5t-4.5 -3zM207 143q4 2 9 2q0 -9 -1.5 -15.5t-3.5 -14.5v-2q0 -8 0.5 -16t0.5 -16v-6q-1 -2 -3.5 -2.5t-4.5 -0.5t-2 1.5t-1.5 3t-4.5 3.5t-10 2q0 -1 -0.5 -2t-0.5 -2.5t-0.5 -2.5l-0.5 -1q2 -3 6 -4t8 -2.5t7.5 -4t3.5 -10.5q0 -3 -1 -7
t-3.5 -7.5t-5.5 -5.5t-7 -2q-2 0 -3.5 0.5t-1.5 2.5v2l14 13v2q0 6 -4 8.5t-9 2.5q-3 0 -4.5 -1t-2.5 -3t-1.5 -4.5t-2.5 -4.5l-1 -1.5t-2.5 -2.5t-3 -2.5l-1.5 -1.5q-1 -2 -3.5 -6.5t-4.5 -9t-4 -8t-3 -3.5q-2 0 -3 2t-1 3q0 7 3 12t7 10t7.5 10.5t3.5 11.5q0 2 -1 4t-3 2
q-5 0 -7.5 -3.5t-4.5 -7.5l-3.5 -7t-3.5 -2q-1 0 -2 1.5l-1 1.5l-1 1l0.5 0.5l0.5 0.5q4 11 8.5 15t9 5t8 1t5.5 4v3v4v3v4.5t-1 4t-2 2.5q-1 0 -3 0.5t-4 0.5t-4 0.5t-3 0.5h-0.5h-1.5q-2 0 -2.5 -3t0 -6.5t-0.5 -6t-5 -2.5q-2 0 -2.5 1t-0.5 2q0 3 1 6.5t1 7.5
q0 9 -0.5 19t-4.5 20q0 1 1.5 1.5t2.5 0.5q2 0 2.5 -0.5t0.5 -1v-1.5t1 -2q1 -2 2 -4.5l1 -2.5h17q1 0 2 1.5l2 3l2 3t2 2.5q3 -2 3.5 -5t3.5 -5q1 0 3 -0.5t4.5 -0.5t4.5 -0.5t3 -0.5v0q3 0 4 2.5t1.5 5t0.5 4.5v3zM154 116v-2.5v-1.5q1 -1 2 -1.5t2 -0.5h3.5h5t5 -0.5
t3.5 -0.5v2.5t-0.5 3t-0.5 3v2.5t-0.5 1.5l-0.5 0.5h-17q-1 0 -1.5 -1t-0.5 -2v-2v-1zM184 105h17q1 0 1 1v2v4v4t-0.5 4t-2.5 2h-15v-17zM184 93v-2.5t2 -1.5h15q1 0 1 2v3q0 4 -2.5 4.5t-5.5 0.5q-4 0 -7 -1t-3 -5zM52 42q0 6 0.5 12.5t2 13t4 12.5t6.5 10h5h6.5h7.5h4
q3 0 9 1t12 0.5t10.5 -2.5t4.5 -7q-7 0 -12.5 1t-11.5 1q-1 0 -4 -1t-3 -3v-16l20 -7q2 0 3 -2.5t1.5 -5.5t0.5 -6v-4v-6t-1 -5.5t-2.5 -4t-5.5 -1.5v27q0 1 -1.5 1.5l-3 1t-3.5 0.5h-3q-4 0 -5.5 -5t-2.5 -12t-0.5 -13.5t0.5 -9.5q-4 0 -7 1.5t-3 5.5q0 8 1.5 16.5
t1.5 16.5v8v7t-0.5 7t-0.5 10h-1q-3 0 -5.5 -1.5l-5 -3t-4 -4t-1.5 -5.5l-3 -33q-1 -2 -2 -3.5t-3 -1.5q-3 0 -5 4v6z" />
</svg>
