<?xml version="1.0" standalone="no"?>
<!DOCTYPE svg PUBLIC "-//W3C//DTD SVG 1.1//EN" "http://www.w3.org/Graphics/SVG/1.1/DTD/svg11.dtd" >
<svg xmlns="http://www.w3.org/2000/svg" xmlns:xlink="http://www.w3.org/1999/xlink" version="1.1" viewBox="-10 0 266 256">
   <path fill="currentColor"
d="M65 249q1 0 2 0.5t1 1.5h1q2 0 2.5 -3.5t0.5 -5.5q0 -12 -0.5 -23.5t-0.5 -23.5q0 -15 2.5 -30.5t7.5 -30.5q1 -2 1 -3.5t0.5 -2.5l1 -2t2.5 -3q8 -1 16.5 -2t16.5 -3q2 0 2 -1.5v-2.5q-7 0 -13 0.5t-13 0.5q0 -4 3.5 -6.5t7.5 -4.5l7 -3.5t3 -4.5v0q0 -1 -1 -2t-2 -1v0
q-5 0 -8.5 3t-6.5 7t-6.5 7t-8.5 3q-3 0 -3 -1.5v-4.5q0 -4 3.5 -8t8 -7.5t9.5 -6t8 -2.5q0 -2 -1.5 -3.5t-2.5 -1.5q-2 0 -6 2.5t-9 5.5t-9 6t-5 5q-2 2 -2 5v5q0 5 1.5 7.5t1.5 6.5t-1.5 8t-3 8.5l-3 9l-2.5 7.5q-3 11 -3 22v21v12v8t0.5 12.5t0.5 12v7.5zM189 246
q2 2 5 2q2 0 3 -2.5t1.5 -6t0.5 -6.5v-4v-1q0 -4 -0.5 -12.5t-1 -18t-0.5 -18t-1 -12.5q-1 -7 -3.5 -16t-4.5 -18.5t-3 -18t0 -16.5q-2 -3 -5 -5.5t-7 -4.5t-8.5 -3.5t-7.5 -1.5q-2 -1 -5.5 -1.5l-3.5 -0.5l-3 3q3 4 8 5t10.5 2.5t10 4t4.5 8.5q0 3 -1 3.5t-4 0.5l-0.5 -0.5
l-0.5 -0.5q-4 -2 -7.5 -4.5t-7.5 -4.5t-8 -3t-8 -1v4q3 1 7 2.5t7.5 3.5t7.5 4t6 5l-3 3h-2h-3q-4 0 -6 -1t-4.5 -1.5t-5 -1.5t-5.5 -1v0q-1 0 -1.5 0.5t-0.5 1.5q0 2 2 3.5t4.5 2.5t5.5 1.5t4 0.5h22q1 0 2 1.5t1.5 3.5t1.5 4t1 2.5t0.5 2.5l1 4t1 3.5l0.5 1.5q0 2 0.5 4.5
t1 5.5t1 5t0.5 3v7.5t0.5 14l1 15t0.5 11.5v6q0 6 -0.5 11.5t-0.5 10.5v4.5v3.5zM89 209q1 4 1.5 7t0.5 8q1 4 4 6.5t6 4t7 2.5l8 2h13h16t14 -2.5t10 -7.5t4 -16q0 -6 -1 -12.5t-1 -13.5l0.5 -1l0.5 -1v-3t0.5 -4t0.5 -4v-2v-1v-1q0 -1 -1.5 -3.5t-3.5 -2.5h-0.5h-0.5
q-1 1 -1.5 2.5l-1 3t-0.5 3v1.5v15q-14 0 -27 1.5t-26 1.5h-4h-4h-4h-2l-3 -2v-1v-4v-4v-3q0 -1 0.5 -2t0.5 -2t0.5 -2t0.5 -2q0 -3 -2.5 -4t-4.5 -1v44zM100 223v0v-1l12 -15h1q2 0 4 1.5t4 3.5q0 1 1.5 2.5t2.5 3.5t2.5 4t1.5 3h1.5h0.5q1 0 3.5 -2.5t4.5 -6t4 -6t2 -1.5
l12 12h0.5h1.5t2.5 -0.5t1.5 -2.5l-3 -3l-4.5 -4.5l-4.5 -4.5l-3 -3l-1 -0.5t-2 -0.5l-6.5 6.5t-6.5 7.5h-1q-5 -4 -8 -7.5t-8 -6.5q-1 -1 -2 -1.5l-1 -0.5q-3 1 -4.5 3t-2.5 4.5t-2.5 4t-4.5 1.5q-2 0 -3 -1t-1.5 -3t-0.5 -3.5v-3.5q0 -1 4 -2.5t10.5 -2t14.5 -1.5t15 -1
h12h7h5l3 2v4v5q0 3 0.5 6.5t0 7t-3 6t-6.5 3.5q-1 1 -4 1.5t-6 1.5t-5.5 1.5t-3.5 0.5h-7q-2 0 -6.5 -0.5t-9.5 -2t-9 -3.5t-4 -5zM117 174q3 0 4 2t2.5 4t2.5 4t4 2t4.5 -2t3.5 -4.5t3.5 -4.5t3.5 -2v0l6 6t7 4q1 0 1.5 -0.5l0.5 -0.5v-1t-1 -2l-2 -2t-1.5 -2.5t-0.5 -2.5
q-1 -1 -4 -3.5t-4 -2.5h-0.5h-1.5q-2 0 -4 2t-3.5 4.5t-2.5 4.5t-3 2t-3.5 -2t-3.5 -4.5t-4 -4.5t-6 -2v0v0l-16 17l1 0.5t2 0.5q2 0 4 -1.5t3.5 -3.5t3 -3.5t4.5 -1.5zM106 137q0 1 0.5 4t1.5 6.5t2 6.5t3 3h42q2 0 3.5 -1t1.5 -2v-1l-1 -0.5l-1 -0.5h-22q0 -3 -0.5 -6
t2.5 -5h8.5t5.5 -1t3 -4t2 -8l-1.5 -0.5l-1.5 -0.5q-2 1 -2.5 2t-1.5 2.5t-3 3t-5 1.5t-4 -2t-1.5 -4l-1 -4t-3.5 -2q-1 0 -2 0.5t-1 2.5v24q-11 0 -14 -2.5t-3 -6.5q0 -3 0.5 -7t-3.5 -5q-2 1 -2.5 3t-0.5 4zM57 88q0 2 1.5 2.5t2.5 0.5q3 0 7 -2t8 -4.5t7.5 -5t5.5 -4.5
l2 -1.5t3.5 -3.5t3.5 -3.5t2 -2.5v-1.5v-3.5t2 -2q1 0 3.5 -0.5t5.5 -0.5t6 -0.5t4 -0.5h1q2 0 2.5 1t0.5 3q0 6 -1 11t-1 11q0 2 0.5 3t4.5 1q1 0 2.5 -1l1.5 -1v-25l2 -3h9t14.5 -0.5t14.5 -0.5h10q1 0 3 -0.5t4.5 -0.5h5t3.5 -1l0.5 -0.5l0.5 -0.5v-1v0q0 -1 -2 -2t-2 -2
h-7q-11 0 -22 2t-21 2h-10q-1 -1 -2 -2.5t-1 -2.5v-20q0 -4 4.5 -5.5t10 -2.5t10.5 -1.5t5 -2.5q0 -1 -1 -1l-0.5 -1t-0.5 -2h-2.5h-2.5l-5 0.5t-11 1.5t-10.5 3t-4.5 4v32q-16 0 -32 0.5t-33 0.5q0 4 1.5 5.5t4.5 1.5h28l3 1q-2 4 -8.5 9t-13.5 9t-12.5 7.5t-4.5 3.5z
M148 62l3.5 2.5t8.5 5.5t11 6t11.5 6t9.5 4.5l4 1.5q2 0 2.5 -1.5t0.5 -2.5q0 -2 -1 -3l-3 -3q-1 0 -4.5 -1.5t-8 -3.5t-10.5 -4.5t-10.5 -4.5t-8 -3.5l-3.5 -1.5v0q0 1 -1 1.5l-1 0.5v1zM74 22q0 1 4.5 4.5t10.5 7t10.5 6t5.5 2.5q0 1 3 1h3q0 -3 -1.5 -5.5t-3.5 -4.5
t-4.5 -3.5t-4.5 -3.5q-1 1 -4 0t-6 -2.5t-5.5 -3t-4.5 -1.5q-3 0 -3 3zM187 18q-4 0 -7 2.5t-7 4.5l-2.5 1l-5 2t-4.5 2t-3 1q-2 1 -4.5 1.5t-5 2t-4.5 3.5t-2 5q3 0 11 -2.5t16 -6t14.5 -7t6.5 -5.5q0 -1 -1 -2.5t-2 -1.5z" />
</svg>
