<?xml version="1.0" standalone="no"?>
<!DOCTYPE svg PUBLIC "-//W3C//DTD SVG 1.1//EN" "http://www.w3.org/Graphics/SVG/1.1/DTD/svg11.dtd" >
<svg xmlns="http://www.w3.org/2000/svg" xmlns:xlink="http://www.w3.org/1999/xlink" version="1.1" viewBox="-10 0 266 256">
   <path fill="currentColor"
d="M82 164v6v6.5v6.5v3q0 1 0.5 5.5t1.5 10.5l2 12t1 10q2 9 7 13t11.5 5.5t14 1t14.5 -0.5q2 -1 4 -1h3.5h3.5h5q11 -2 16.5 -6t7.5 -10.5t2.5 -15t0.5 -19.5q0 -1 0.5 -7t0.5 -13t0.5 -13t0.5 -8v-7v-5q0 -2 -2 -2h-3h-2.5t-2.5 2v23h-35q-1 0 -1.5 -1t-1.5 -2t-2 -2.5
t-2 -1.5v-3.5t-0.5 -5t-0.5 -5v-2.5l-2 -4t-3 -2l-1.5 0.5t-1.5 1.5v4.5v4.5v8.5t1.5 8t4.5 6t8 2.5h33l1 2v3v4t0.5 2.5t0 4t-0.5 4.5t-1 3q-3 0 -9 0.5t-13 1t-13.5 0.5h-8.5h-12h-12q-1 -1 -2 -2.5t-1 -2.5t-0.5 -4t-0.5 -6t-0.5 -6t-0.5 -4v-25q0 -1 -1.5 -1.5
l-1.5 -0.5h-1h-1l-2 1t-3 1v4v6.5v6.5v4zM165 200q0 4 -0.5 10t-2 11t-5 8.5t-9.5 3.5h-40l-1 -1t-2 -1q-1 -1 -2 -1.5t-2.5 -1.5t-2.5 -1.5l-1 -0.5l-1.5 -1.5l-0.5 -0.5v-18q0 -1 0.5 -1.5t1.5 -0.5q7 -3 16 -3.5l18 -1t17.5 0t16.5 0.5zM47 120v3t2 2h3.5h3.5q3 0 5 -0.5
l4 -1t3.5 -1l4.5 -1.5q11 -1 23 -1.5t23 -0.5q2 0 2 -1.5v-2.5q0 -4 -1.5 -4.5t-4 0t-4.5 0.5t-3 -2q-2 -8 -2 -15v-14v-16l2 -2t2 -1q0 -1 1 0t2 1l2 2t3 2l2 -1t3 -1l1.5 -1l1.5 -1v0v-1q0 -1 -1 -2.5l-1 -1.5q-1 -1 -2.5 -2t-3.5 -2l-4 -2t-2.5 -1.5t-2 -1t-3.5 -1.5
t-4 -1.5t-2 -1.5q-1 -1 -3.5 -3l-2.5 -2v-24l-1.5 -1t-2.5 -1q-4 0 -6 1.5t-2 6.5q0 4 1 7.5t1 7.5v6q-1 3 -6 6t-10 5t-10.5 3.5t-7.5 1.5q-3 4 -3 8q0 1 0.5 2t1.5 1h1l1.5 -0.5t3.5 -1t3 -1t2 -0.5v0h1q1 0 1.5 0.5l0.5 0.5l3 40q0 1 -0.5 4t-2.5 3h-4.5h-5t-4.5 1.5
t-2 4.5zM134 118l3 0.5t4 0.5q9 0 18.5 -1.5t19.5 -1.5q6 0 11.5 1t11.5 1q3 0 6 -1t3 -6v0v0q0 -1 -0.5 -1.5l-0.5 -0.5h-20l-0.5 -3t-0.5 -5v-1q0 -2 -0.5 -3.5t-0.5 -3.5v-4v-3t0.5 -4t0.5 -4v-2v-2.5t0.5 -5t1.5 -4.5t3 -2q1 0 2.5 1t2.5 2.5t2.5 2.5t3.5 1t3.5 -1.5
t1.5 -3.5q0 -3 -5.5 -7t-11.5 -8t-11.5 -7l-5.5 -3v-26l-0.5 -0.5t-1.5 -0.5h-2h-2q-4 0 -4 5q0 4 1 6.5t1 6.5v4v4.5t-1 4.5t-2 3l-24 12q-1 1 -1.5 2.5l-0.5 1.5q0 2 1.5 2.5l3 1t3 2t1.5 3.5v4v6.5t-0.5 10t-0.5 10.5v7q-1 2 -3 2.5t-4.5 1t-4 1.5t-1.5 3v1zM74 101v-17
v-13t1.5 -11t5 -7.5t10.5 -2.5q5 0 6.5 4t1.5 8q0 1 -0.5 4l-0.5 3v11.5t-0.5 13t-0.5 11v4.5l-3 3h-16l-1 -1t-1 -2t-1 -4t-1 -4zM156 100q0 -3 1 -6t1 -6v-3l-0.5 -2t-0.5 -4.5t-0.5 -4.5t-0.5 -3v-1q0 -4 2 -7.5t4.5 -6.5t6 -4.5t6.5 -1.5q2 0 3.5 0.5t2.5 4.5
q0 2 -0.5 8.5t-0.5 13.5t-0.5 13t-0.5 8v3v2t-0.5 2t-1.5 4q-1 -1 -1.5 0t-1.5 2h-14l-1 -1.5t-1 -2.5q-1 -3 -1.5 -4t-0.5 -3z" />
</svg>
