<?xml version="1.0" standalone="no"?>
<!DOCTYPE svg PUBLIC "-//W3C//DTD SVG 1.1//EN" "http://www.w3.org/Graphics/SVG/1.1/DTD/svg11.dtd" >
<svg xmlns="http://www.w3.org/2000/svg" xmlns:xlink="http://www.w3.org/1999/xlink" version="1.1" viewBox="-10 0 266 256">
   <path fill="currentColor"
d="M90 237q2 1 7.5 1.5t12 1t12 1.5t7.5 1h4h8.5h11.5t11 -1t8 -4q9 -8 14 -22t7 -30.5t2.5 -32.5t0.5 -27v-3q-1 -1 -1 -2.5t-0.5 -3t-0.5 -3v-2.5q-1 -14 -0.5 -23t-1.5 -15.5t-8 -10t-19 -5.5q-2 0 -5.5 -0.5t-8 -0.5t-8 -0.5t-5.5 -0.5q-1 -1 -1.5 -2t-0.5 -2v-3
q0 -3 0.5 -8t1 -8.5t0.5 -4.5l4 -2h8q12 0 23.5 1t22.5 1h12q3 -1 3.5 -2.5t0.5 -4.5q0 -2 -0.5 -4t-3.5 -3q-37 0 -73 -1t-72 -1h-13q-3 2 -4 3.5t-1 5.5q0 3 1.5 5t4.5 2h5.5t7 -0.5t6.5 -1t5 -2.5h51l0.5 2l0.5 2v8v5v6t-1 5.5t-2 3.5q-2 0 -6.5 0.5t-9 0.5t-9 0.5
t-6.5 0.5q-12 1 -18 9t-8 19t-2 23.5v23.5v30q0 6 1 18t3.5 24t7.5 21.5t13 11.5zM82 205q0 -1 3.5 -6t8.5 -11.5t11.5 -13.5t12 -13t10 -10t6.5 -4q3 0 6 2.5t5.5 6t4.5 7.5t2 7q1 1 3.5 4.5t5.5 6.5t5.5 6t3.5 4l3 3t1.5 1t1 0.5t0.5 3.5q0 9 -3 15t-7.5 9.5t-10.5 4.5
t-13 1h-8q-5 0 -11.5 -0.5t-13.5 -2t-13 -4.5t-10 -7t-4 -10zM75 155v-23v-14.5t0.5 -17t3 -16t7.5 -12.5q2 0 6.5 -1.5t10 -2.5t10 -1.5t6.5 -1.5h3q2 0 3 0.5t2 4.5v7q0 6 -0.5 13t-0.5 13q0 5 0.5 9.5t0.5 8.5t-2.5 10t-7 13.5t-10 15t-11 13.5t-9.5 10t-6 4
q-3 0 -3.5 -3.5t-0.5 -9.5v-10t-2 -9zM136 88q0 -5 0.5 -8.5t1.5 -9.5q0 -1 1.5 -1.5t2.5 -1.5v0h1q10 2 16.5 2t10.5 0.5t6 1.5t3.5 5t2 11t1.5 18v3.5t0.5 6t1 6t0.5 3.5v3.5v3.5q0 3 -0.5 10.5t-1.5 15.5t-2.5 14t-2.5 6q-3 0 -5.5 -2t-4.5 -4.5t-3.5 -5t-2.5 -3.5
q-8 -9 -12.5 -17t-7.5 -16.5t-4.5 -18.5t-1.5 -22z" />
</svg>
