<?xml version="1.0" standalone="no"?>
<!DOCTYPE svg PUBLIC "-//W3C//DTD SVG 1.1//EN" "http://www.w3.org/Graphics/SVG/1.1/DTD/svg11.dtd" >
<svg xmlns="http://www.w3.org/2000/svg" xmlns:xlink="http://www.w3.org/1999/xlink" version="1.1" viewBox="-10 0 266 256">
   <path fill="currentColor"
d="M65 247q0 2 1 3t3 1q4 0 7.5 -6.5t7 -16.5t6 -21.5t5 -21.5t4.5 -16.5t3 -6.5h50q5 0 9 6.5t7 15.5t6 19.5t5.5 20t4.5 15.5t4 6q4 0 5 -3t1 -6q0 -4 -2 -12t-5 -16.5t-7 -17.5t-9 -16.5t-9.5 -12.5t-9.5 -6q-1 0 -3 -0.5t-4 -0.5t-3.5 -0.5t-2.5 -0.5h-7h-10h-10.5h-6.5
q-1 0 -2.5 -1.5t-1.5 -2.5q-1 0 -0.5 -3.5t1.5 -5.5q1 -6 7.5 -8t16 -2h19.5t18.5 -2t14.5 -8t6 -18q0 -3 -0.5 -7.5t-1 -9.5t-2.5 -8.5t-5 -5.5h-15q-15 0 -29.5 2.5t-29.5 2.5h-3h-4q-1 -3 -1.5 -7t-2.5 -7q-3 -4 -5.5 -7t-2.5 -9t4 -10t9.5 -6t12 -3t11.5 -1t6.5 3t2 7.5
t1.5 8.5t4 7q2 1 6 2t9 1.5t10 0.5h8h9q2 -1 3 -2.5t1 -3.5t-2.5 -4.5t-5.5 -2.5q-5 0 -9 0.5t-9 0.5h-11q-1 0 -3.5 -1.5t-2.5 -2.5v-11q0 -1 3 -2t7 -2t7.5 -1.5t4.5 -0.5h29q1 0 1 -1v-2q0 -4 -2 -5.5t-6 -1.5q-8 0 -16 1l-16 2h-14h-16t-16.5 1.5t-15 4.5t-10.5 8.5
t-4 15.5q0 6 2.5 12t5.5 11t6 10.5t5 11.5t3.5 14t1.5 15v1.5v1.5q-1 3 -1 7.5t-0.5 8.5t-1 7l-0.5 3l-2 3h-1.5h-1.5q-5 0 -9.5 -2.5t-4.5 -7.5v-56q0 -1 -2 -1h-2q-3 0 -5 2t-2 5v16v10v8t0.5 8.5t1.5 9.5q0 1 1 3.5t1.5 3t1 3t0.5 3.5q1 2 4.5 2.5t7 0.5t6.5 0.5t3 3.5
q0 7 -1.5 14.5t-4 15.5t-5.5 15.5t-6 14.5q-1 5 -4.5 11t-3.5 12zM103 112q0 -2 3 -3.5t8 -2.5t10.5 -1t10.5 -0.5t9 -0.5h6q5 0 9.5 -1.5t10.5 -1.5q2 0 2 1.5v3.5q0 6 -5.5 10t-13.5 5.5t-16 1.5h-13h-12q-3 -1 -6 -4t-3 -7zM100 90v-2t1 -2q3 -2 11 -3t17 -2t18 -1h14
t8 1.5t3 6.5v3t-2 3q-7 0 -15 1t-16.5 1.5l-17 1t-14.5 0.5q-4 0 -5.5 -2.5t-1.5 -5.5z" />
</svg>
