<?xml version="1.0" standalone="no"?>
<!DOCTYPE svg PUBLIC "-//W3C//DTD SVG 1.1//EN" "http://www.w3.org/Graphics/SVG/1.1/DTD/svg11.dtd" >
<svg xmlns="http://www.w3.org/2000/svg" xmlns:xlink="http://www.w3.org/1999/xlink" version="1.1" viewBox="-10 0 266 256">
   <path fill="currentColor"
d="M69 246q0 3 1.5 4t3.5 1q4 0 7.5 -6.5t7 -15t6 -17t4.5 -11.5q6 -11 13.5 -21t16.5 -19q1 0 2 -1.5t2.5 -3t3 -2.5t3.5 -2l18 -18v-0.5v-1.5q0 -3 -1 -3.5t-4 -0.5t-5.5 2t-5 4.5t-4.5 5.5t-4 5q-9 7 -14.5 12.5t-9.5 11t-8 11.5t-10 16q-2 2 -3 3.5t-2 2.5t-1.5 2.5
t-1.5 3.5q-2 7 -4 13t-5 13q-1 2 -3.5 5.5t-2.5 6.5zM170 137v16t1 18t2.5 17.5t4.5 15.5l1.5 2.5t1.5 3.5v1v3v2v1q2 8 5.5 14.5t4.5 14.5h3h2q4 0 6 -1t2 -6l-2 -4.5t-4.5 -10t-5 -10.5t-2.5 -7q-6 -18 -8.5 -36t-2.5 -36q0 -9 1.5 -18t3 -18.5t2.5 -18.5t1 -18
q0 -6 -4 -9.5t-10 -5.5t-13.5 -3t-15 -2.5t-14.5 -3.5t-11 -5q-3 -2 -6 -5t-7 -6t-7.5 -5.5t-6.5 -2.5q-2 0 -4 1t-2 4q0 4 4 7t8.5 6t8.5 6t4 5t-3 4.5t-8.5 5.5t-11.5 6.5t-12 6t-10.5 4.5t-5.5 2v1v1q0 3 1.5 3.5t4.5 0.5q6 0 11 -2t10 -5.5t9.5 -6.5t10.5 -6l3 -1
q1 -1 3 -2.5t3.5 -3t3.5 -2.5t4 -1q5 0 9.5 2t9.5 3h8.5t11 1.5t9.5 4t4 6.5q0 9 -1 18l-2 18l-2 18t-1 18zM61 159q0 2 2 2.5t4 0.5l1.5 -0.5l1.5 -0.5q4 -3 9 -7.5t9.5 -8.5t9.5 -8t9 -7q1 -2 5 -4l9 -4.5t10.5 -5.5t10 -6t7.5 -5.5t3 -4.5t-0.5 -3t-2.5 -1q-3 0 -11 4.5
t-17.5 10.5t-20 13.5t-19.5 14.5t-14.5 12.5t-5.5 7.5zM52 116q-1 3 1 3h4q4 0 12 -3.5t15.5 -8l15 -9t11.5 -6.5q9 -4 18 -7.5t17 -7.5q1 -1 2.5 -2l3 -2t2.5 -2.5t1 -2.5q0 -2 -1.5 -2h-2.5h-5t-4 2q-2 0 -6.5 2.5l-9 5t-9 4.5t-6.5 3q-3 1 -12 5.5t-19 10t-18 10.5t-10 7
z" />
</svg>
