<?xml version="1.0" standalone="no"?>
<!DOCTYPE svg PUBLIC "-//W3C//DTD SVG 1.1//EN" "http://www.w3.org/Graphics/SVG/1.1/DTD/svg11.dtd" >
<svg xmlns="http://www.w3.org/2000/svg" xmlns:xlink="http://www.w3.org/1999/xlink" version="1.1" viewBox="-10 0 266 256">
   <path fill="currentColor"
d="M78 144q0 13 0.5 24t3 21.5t6.5 21t10 22.5q1 1 2.5 4t4 6t5 5.5t3.5 2.5h0.5h0.5q0 -1 0.5 -2t0.5 -2q0 -3 -2.5 -6t-3.5 -6q-1 -2 -3 -5t-3.5 -6.5t-2.5 -6t-2 -3.5q-6 -17 -8 -35.5t-2 -36.5q0 -10 1.5 -19.5l3 -19t3 -18.5t1.5 -18t-2 -16.5t-6 -13t-10 -10.5
t-13 -11h-1.5h-0.5q-1 0 -2 0.5t-1 1.5q0 2 2.5 5t5.5 6.5l6 7t5 6.5q2 4 3 7.5t1.5 6t0.5 6.5v7q0 6 -0.5 13.5l-1 15t-2 14.5t-3.5 12v19zM148 123l5 51l1 3t2.5 6.5t3 7.5t2.5 5q2 5 7 12.5t11 14.5t12.5 12.5t12.5 5.5v-6q-10 -9 -19 -21.5t-15.5 -26.5t-10 -28.5
t-3.5 -28.5q0 -4 0.5 -6t2 -3.5t4 -1.5t5.5 -1t6 -2.5t6 -3.5t6 -3.5t6 -1.5t5.5 1.5t5.5 2.5t5.5 2.5t5.5 1.5q2 0 3 -1t2 -3q0 -1 -1.5 -2t-1.5 -2q-1 0 -3.5 -1.5t-5 -2.5t-5 -2.5t-3.5 -1.5q0 -1 -0.5 -1.5t-0.5 -1.5q0 -2 1 -3.5t2 -3.5l2 -4t1 -6q0 -11 -2.5 -16.5
t-7 -8.5t-11.5 -4.5t-15 -3.5q-1 0 -2.5 -0.5t-1.5 -1.5q-2 -3 -4 -8.5l-4 -11t-6 -9.5t-9 -4q-2 0 -3 0.5t-1 2.5v0.5v0.5q3 2 6 5.5t5.5 7t4 8t1.5 8.5v0q0 1 -1 2l-1 1h-24l-0.5 1t-1.5 2v1v1q1 0 2.5 0.5l1.5 0.5h22l2 2v2v3v4v3v4v6v5v3l-0.5 2t-1 4.5t-1 4.5t-0.5 3
q-2 7 -2 10t-1.5 4.5t-4.5 2t-10 2.5q-1 0 -3 1l-4 2l2 2h19zM56 114q0 14 -2.5 25t-6.5 24l-3.5 7t-2.5 5.5t-1.5 5t-0.5 5.5q2 0 4 -1.5t3.5 -3.5t3 -4.5t2.5 -4t3 -5.5l4 -8l4 -8t3 -5q2 -8 2 -16v-16v-17q-1 -2 -3 -6.5t-5.5 -9.5t-7 -8.5t-5.5 -3.5q-4 0 -4 4v1h1
q4 5 6 9.5t3.5 9t2 9.5t0.5 12zM102 101h9l1 2t0 3q-1 4 -3.5 7t-4.5 6l-4 6t-2 7h2l19 -19l2 -4t1 -4.5t0.5 -5t1.5 -4.5q2 -3 5.5 -4.5l7 -3t6 -4t2.5 -8.5q-3 0 -5 1.5t-4 3.5t-4 3.5t-5 1.5h-2h-1q0 -3 -0.5 -7.5t-2.5 -9t-4.5 -7.5t-6.5 -3q0 3 0.5 6t2 5.5t2 5
t0.5 5.5q0 5 -1.5 7.5t-3.5 4.5t-4.5 3.5t-3.5 5.5zM164 62l3 -4h17q3 0 4.5 2.5t3 6t2.5 6.5t1 5q0 4 -1 7t-5 6l-1 0.5l-1 0.5q-3 0 -5.5 -1.5t-4.5 -3t-4.5 -3t-4.5 -1.5h-1l-1 0.5t-1 1.5q1 0 2.5 2t3.5 4t4 3.5t2 2.5q1 0 1.5 1.5l0.5 1.5q0 4 -2.5 5.5t-5.5 2t-7 0.5
h-5q0 -12 2 -23t3 -23z" />
</svg>
