<?xml version="1.0" standalone="no"?>
<!DOCTYPE svg PUBLIC "-//W3C//DTD SVG 1.1//EN" "http://www.w3.org/Graphics/SVG/1.1/DTD/svg11.dtd" >
<svg xmlns="http://www.w3.org/2000/svg" xmlns:xlink="http://www.w3.org/1999/xlink" version="1.1" viewBox="-10 0 266 256">
   <path fill="currentColor"
d="M107 247q-1 3 1 3.5t3 0.5q2 0 3.5 -0.5t2.5 -3.5q-1 -13 -0.5 -26.5t1.5 -26.5q1 -2 1.5 -5.5l1 -7t1 -6l0.5 -2.5h24q1 0 3.5 -0.5t2.5 -2.5v-1q-1 -2 -4 -3t-6 -1h-5.5h-3.5t-1.5 -0.5l-0.5 -0.5v-1q0 -3 3 -4.5l6 -3l6 -3t3 -4.5q0 -2 -2 -3.5t-4 -1.5h-1
q-2 1 -5.5 4t-6.5 5.5t-6 4.5t-6 2l-0.5 -0.5l-0.5 -0.5q-1 -1 -1.5 -3l-0.5 -2q1 -4 5 -9t9 -9.5t8.5 -8l3.5 -3.5q0 -2 -2 -2.5t-3 -0.5q-5 0 -10 4t-9 9t-6 11t-2 10q0 5 2.5 8.5t2.5 7.5q0 5 -1.5 9.5t-3.5 8.5q0 2 -0.5 6t-0.5 9t-0.5 9.5t-0.5 5.5v15v14zM187 247
q3 4 7 4q1 0 2 -0.5t1 -1.5v-9v-14t-0.5 -13.5t-1 -13.5t-1.5 -16q-2 -3 -2 -5v-7q0 -5 2 -8t2 -8q0 -7 -0.5 -11.5t-1.5 -8t-4 -6t-9 -5.5q-2 -2 -4.5 -3.5t-5.5 -1.5t-3 3t3 5t7 4.5t7 7t3 11.5q0 1 -0.5 2t-3.5 1t-5.5 -2t-5.5 -4.5t-5.5 -4.5t-5.5 -2q-4 0 -4 3
q0 4 3.5 5.5l7 3t6.5 4t3 5.5q0 2 -0.5 4t-2.5 2h-17v5h1.5t3 0.5t3 0.5h2.5t2.5 0.5t3.5 0.5t3.5 -0.5l1.5 -0.5l4 4l0.5 2t1 5l1 6t0.5 4v5t0.5 7t0.5 7.5v4.5q0 2 0.5 6t0.5 9t-0.5 9t-0.5 5zM83 246q1 3 4 3.5t6 0.5v-134q2 -16 3.5 -32t1.5 -32v-2v-5t-0.5 -4t-0.5 -3
q-1 -1 -4 -2.5t-4 -1.5q-1 -1 -5.5 -1t-9.5 -1t-9 -1t-6 -1h-2q-3 0 -5.5 1.5t-2.5 5.5q0 3 2 4t4.5 1.5t4.5 1.5t2 4q0 14 -2 27.5t-3 27.5q-1 24 -1.5 48t-0.5 48v7l1 33q0 1 2 2.5l2 1.5h1q2 0 3 -3t1 -4v-66t2 -66q1 -15 3 -29.5t3 -29.5q1 -1 3 -2.5t2 -2.5h1q7 0 8 4
t1 9q0 20 -2.5 40.5t-2.5 39.5v8v16v18v15v11v17v17v11zM101 123q0 2 3 2t7 -2t8 -5.5t8.5 -7.5t9.5 -7.5t9.5 -5.5t8.5 -2q7 0 12.5 2t10.5 6t9.5 8.5l8.5 8.5h9l0.5 -1t1.5 -2v-1v0q0 -1 -0.5 -2t-1.5 -2q-1 0 -3.5 -2t-5.5 -4l-6 -4t-4 -3q-2 -1 -6 -2t-8.5 -3t-8 -4.5
t-5.5 -4.5v-24q0 -11 1 -22t1 -22q0 -2 -0.5 -5t-3.5 -3q-1 0 -3 1t-2 3v10.5v16.5v16.5v10.5t-0.5 6t-1 6.5t-2 6t-3.5 4.5q-11 7 -22.5 14.5t-20.5 17.5v1zM123 49q0 6 -1 11.5t-2 11.5t-2.5 12t-1.5 12q4 0 7 -4t5 -10t3.5 -13t2 -13.5t0.5 -12v-7.5v-1l-0.5 -2
t-1.5 -3.5l-2 -3t-3 -1.5h-1l-4.5 3t-1.5 4q0 4 1.5 8t1.5 9zM175 42v3v4.5t0.5 7t0.5 6.5v4q0 3 0.5 7.5t1.5 9t3.5 8t6.5 3.5h1q1 -1 1.5 -3l0.5 -2q-1 -9 -2.5 -16.5t-2.5 -14.5t-1.5 -15t-0.5 -19q-2 -3 -5 -3q-1 0 -1.5 0.5l-1.5 1.5v3.5t-0.5 5t-0.5 4.5v3v2z" />
</svg>
