<?xml version="1.0" standalone="no"?>
<!DOCTYPE svg PUBLIC "-//W3C//DTD SVG 1.1//EN" "http://www.w3.org/Graphics/SVG/1.1/DTD/svg11.dtd" >
<svg xmlns="http://www.w3.org/2000/svg" xmlns:xlink="http://www.w3.org/1999/xlink" version="1.1" viewBox="-10 0 266 256">
   <path fill="currentColor"
d="M53 246l3 3h2.5h2.5q7 0 13.5 -3t13.5 -7.5t12.5 -11t10 -13.5t7.5 -14t3 -14q0 -1 -0.5 -3t-1 -4.5t-2 -4t-3.5 -1.5l-36 -9q-1 0 -2 -1.5t-1 -3.5v-4v-3q0 -6 4.5 -8.5t11.5 -3t13.5 -1t9.5 -2.5q4 -3 5 -5.5t1.5 -5.5t0.5 -6t1 -5t3.5 -3t8.5 -1h6.5t5.5 3v6.5v9.5
v10.5v6.5q0 4 0.5 9t2 9t4.5 7t8 6q1 0 2 0.5t2 0.5q9 5 16.5 8.5t18.5 3.5q6 0 6 -5t-4 -7.5t-9.5 -4t-12 -3t-11.5 -6t-9 -11.5t-4 -20q0 -2 0.5 -5l1 -6t1 -5.5t0.5 -5.5h7q4 0 8.5 2t8.5 3.5l8 3t9 1.5q6 0 6 -5q0 -4 -3 -5.5t-6 -2.5q-3 0 -7 -1.5t-8 -2.5t-7 -1.5
t-4 -0.5q-1 -1 -3.5 -1t-6 -0.5t-6.5 -0.5h-4h-9h-13h-16h-16h-13h-9q-4 0 -6 -2t-3.5 -4.5t-3 -4.5t-4.5 -3q-3 -2 -5 1t-2 5q0 7 4 11t9.5 5.5t12 1.5t12.5 1l0.5 0.5l0.5 0.5q4 0 7 -1t6 -1h3.5t2.5 3v3v3q0 7 -4.5 9.5t-11.5 3.5t-14.5 3t-12.5 7q0 1 -0.5 3t-1 4.5
t-1 4.5t-0.5 3q0 7 3 11t8.5 6t11.5 3t11.5 2t9.5 2.5t4 4.5t-2.5 7t-5.5 8.5t-7 9.5t-8 9l-7.5 7.5t-5.5 4.5q-5 3 -11.5 5.5t-10.5 7.5zM114 74q18 0 36 2t36 2h11l0.5 -1t0.5 -2v-1q0 -1 -5 -2.5t-12.5 -3t-16.5 -2.5t-17 -1.5t-14 -0.5h-7q-10 0 -19.5 0.5t-19.5 0.5
q-8 0 -10.5 -2.5t-3.5 -5.5t-1.5 -5.5t-4.5 -2.5t-5.5 3t-1.5 7t2 6.5t5.5 5t7.5 3.5t7 1q8 0 16 -0.5t16 -0.5zM126 42h11t9.5 0.5l9 1t10.5 0.5q3 1 6.5 2t6.5 2.5l6 3t6 1.5q1 0 3 -0.5t3.5 -1.5t3 -2.5t1.5 -3.5q0 -3 -6 -5t-15 -3.5t-20 -2t-20.5 -1t-17 -0.5h-9.5
h-6.5h-8.5h-9.5h-6.5q-2 -1 -3 -4.5t-2 -7.5t-3.5 -7.5t-7.5 -3.5q-2 0 -4 0.5t-2 2.5q0 3 1.5 8.5t4.5 10.5t6.5 8.5t7.5 3.5q11 0 22.5 -1t22.5 -1z" />
</svg>
