<?xml version="1.0" standalone="no"?>
<!DOCTYPE svg PUBLIC "-//W3C//DTD SVG 1.1//EN" "http://www.w3.org/Graphics/SVG/1.1/DTD/svg11.dtd" >
<svg xmlns="http://www.w3.org/2000/svg" xmlns:xlink="http://www.w3.org/1999/xlink" version="1.1" viewBox="-10 0 266 256">
   <path fill="currentColor"
d="M163 247q0 1 0.5 2.5t2.5 1.5q4 0 9 -9t9 -23t7 -31t5.5 -32.5t3.5 -27.5t1 -16q0 -9 -3 -14.5t-7.5 -9t-10.5 -6t-10.5 -4.5t-8 -5t-3.5 -8q0 -8 4 -12t9.5 -6t12 -3t11.5 -3q1 0 2 -1.5t1 -2.5v0v0v-1v0q-1 -2 -3 -3.5t-4 -1.5t-6 1.5t-6 1.5q-9 2 -15 3.5t-9.5 5
t-4.5 10t-1 18.5q0 5 1 7t2.5 4t4 3t5.5 3v3.5v3.5q0 4 -0.5 7.5t-2.5 7.5q-2 9 -4 18.5t-4 20t-4 20.5t-4 19q-1 4 -3 9t-3.5 10t-2.5 9.5t-1 8.5q0 2 0.5 3.5t3.5 1.5q6 0 7 -5q3 -9 4.5 -18l3 -18t3 -18.5t4.5 -18.5l1 -4t2.5 -8t2.5 -8t2 -5q0 -2 1 -7t1.5 -10l1 -10
t0.5 -9h2q5 0 8.5 3t5.5 7t2.5 9t0.5 10q0 17 -3.5 32t-7.5 31q-2 10 -4 21t-4 21q0 3 -1.5 5.5l-3 5t-2.5 5.5t-1 6zM62 200q1 4 3.5 6t6 3t7 1h6.5q7 0 15.5 -1t15.5 -4q3 -2 5.5 -7t4 -12.5t2.5 -15.5t1.5 -16t0.5 -15v-10t0.5 -7t0 -7.5t-2 -5.5t-5.5 -2h-3t-1 3v35
q-1 0 -2.5 0.5t-3.5 0.5h-4h-3l-1.5 -0.5t-3.5 -1t-3 -1.5t-1 -2l3 -66q0 -1 0.5 -3t1.5 -3l0.5 -1l0.5 -1h21l6 -8l-5 -4h-22v-36q0 -3 -2 -4t-4 -1t-4.5 1t-2.5 4q1 16 0 31.5t-2 31.5l-2 32t0 32q-1 2 -2.5 2.5t-3.5 0.5q-1 0 -3 -0.5t-4 -1.5t-3.5 -2.5t-1.5 -3.5v-29
q0 -3 -2 -3.5t-3 -0.5q-3 0 -5 1.5t-2 5.5v0q1 22 2 43t4 42zM74 195q-1 -4 -2 -7t-1.5 -5.5t-0.5 -5.5v-7v-3v-4l12 -2l12 -2t12 -1.5t13 -0.5q0 3 -0.5 6.5t-1 7.5t-1 7.5t-0.5 6.5q-1 5 -4.5 8t-7.5 4t-8.5 1h-8.5h-6.5t-6.5 -3z" />
</svg>
