<?xml version="1.0" standalone="no"?>
<!DOCTYPE svg PUBLIC "-//W3C//DTD SVG 1.1//EN" "http://www.w3.org/Graphics/SVG/1.1/DTD/svg11.dtd" >
<svg xmlns="http://www.w3.org/2000/svg" xmlns:xlink="http://www.w3.org/1999/xlink" version="1.1" viewBox="-10 0 266 256">
   <path fill="currentColor"
d="M90 192v57q0 1 1 1.5t2 0.5q3 0 5 -3.5t2 -6.5v-3q0 -3 -0.5 -11t-1 -16.5t-1 -16.5t-0.5 -11q-1 -2 1 -2.5t3 -0.5h4.5t4.5 2q2 3 3 8.5t2 11.5t1 12v10v4v3q0 1 -1 3.5t-1 3.5q0 2 2 3.5t4 1.5t3.5 -3t2 -6.5t0.5 -6.5v-5v-4v-3q0 -2 -1 -6.5t-1.5 -9.5t-1.5 -9.5
t-1 -6.5q-1 -5 -5 -7t-8 -3.5t-7 -3.5t-3 -8q0 -2 2.5 -3t6 -1.5t8 -1.5t8 -3.5t6 -6.5t2.5 -12q0 -3 -2 -4.5t-4 -1.5q-3 0 -4 2.5t-1.5 5t-1 6t-2.5 5.5h-2.5t-3 0.5t-3.5 0.5h-2h-2h-1q-6 0 -6 -6q0 -2 0.5 -5.5t1.5 -6.5t2.5 -5t4.5 -3l18 -5q3 -1 5 -4t3 -6.5t1 -7
v-5.5l0.5 -3.5t0.5 -7.5v-8v-7v-18.5t-2 -19.5l-0.5 -1t-1.5 -1t-3.5 -0.5t-3.5 -0.5q0 5 -0.5 9.5t-3.5 8.5h-1q-2 0 -5 -2t-5.5 -4.5l-5 -5l-3.5 -3.5q0 -1 0.5 -4t0.5 -6t-1 -5.5t-4 -2.5h-3t-1 3q0 1 -0.5 3.5t-0.5 5.5t-0.5 5.5t-0.5 3.5q-2 4 -7.5 7t-10.5 3
q-3 0 -4 -2t-1.5 -5t-2 -5.5t-5.5 -2.5q-2 0 -2.5 1.5t-0.5 3.5v3q1 9 2 17.5t1.5 17t0.5 17.5t1 19q0 1 1.5 4t1.5 4t1 2.5l1 1.5q2 1 6 1.5l8 1t7 1t3 2.5l2 22q0 2 -2 3.5t-4 1.5q-7 0 -10 -3.5t-4 -7.5t-2 -7.5t-4 -3.5t-4 2t-1 4q0 8 2 12.5t5.5 7t7.5 3l8 1t6 2.5t2 7
q0 3 -1.5 4t-4 1.5t-5 0.5t-4.5 1q-5 2 -8 5t-7 8q-2 4 -3 11t-1.5 14.5t0 14.5t0.5 11q0 3 0.5 5t3.5 2q4 0 6 -4t2.5 -10t0.5 -13t1 -14.5t3.5 -13.5t8.5 -9q0 -1 1.5 -1.5l1.5 -0.5q1 0 2 0.5t1 1.5zM158 245v1q1 0 2 1.5t2 1.5v0h1q4 0 7 -4t5 -7q4 -11 9 -23.5t9.5 -26
t7.5 -26.5t3 -25q0 -9 -4 -14.5t-10.5 -9.5t-14 -6.5t-13.5 -6.5v-4v-5t1 -5t2.5 -4t4.5 -2l31 -4l0.5 -0.5l0.5 -0.5q0 -1 0.5 -4.5t0.5 -4.5q-7 0 -16 0.5t-16.5 3.5t-13 8.5t-5.5 14.5q0 6 2.5 9t5.5 5.5t5.5 5.5t2.5 8q0 7 -3.5 15.5l-7 17t-6.5 17t-2 14.5l-12 23v4
q3 0 6 -0.5t4 -3.5q8 -19 15 -37.5t13 -38.5l0.5 -3l0.5 -3l3 -3t3 -2l1 0.5t2 0.5l4.5 4.5t2.5 3.5t1 4.5v5.5q0 10 -2.5 20t-5.5 20t-6.5 19.5t-6.5 18.5q-1 0 -1.5 3l-0.5 3q-1 2 -3 4.5t-4 5.5t-3.5 6t-1.5 5zM69 98v-1.5t1 -1.5q3 -1 8.5 -1t11.5 -0.5t11.5 -1.5
t8.5 -1h2h2q3 0 6 1t3 5q0 6 -3 9t-7.5 4.5t-10 2t-9.5 0.5t-8 -0.5t-8 -2t-6 -4t-2 -8.5zM67 80q0 -3 3 -5q5 -1 11.5 -1t13 -0.5t12.5 -1.5t11 -4q3 2 4 3.5t1 3.5t-1 4.5t-2 3.5q-8 2 -16 2h-16h-3.5h-5.5h-5h-4q-3 -2 -3 -5zM67 60l5.5 -5.5t8 -7t8 -5.5t6.5 -1q2 0 5 2
t6 4.5t5 5t3 4.5l0.5 0.5l0.5 0.5q0 4 -4 4q-10 1 -16.5 1h-15.5h-6.5t-5.5 -3z" />
</svg>
