<?xml version="1.0" standalone="no"?>
<!DOCTYPE svg PUBLIC "-//W3C//DTD SVG 1.1//EN" "http://www.w3.org/Graphics/SVG/1.1/DTD/svg11.dtd" >
<svg xmlns="http://www.w3.org/2000/svg" xmlns:xlink="http://www.w3.org/1999/xlink" version="1.1" viewBox="-10 0 266 256">
   <path fill="currentColor"
d="M52 242q0 2 0.5 4.5t3.5 2.5q1 0 3 -1t2 -2q1 -13 3.5 -25t3.5 -24q0 -3 0.5 -9.5t1 -14t1 -14t0.5 -9.5q1 -5 2 -12t1 -15t-0.5 -15.5t0.5 -13.5l0.5 -3.5t1 -7.5t1 -7t0.5 -4q1 -10 1.5 -17.5t1.5 -13t3 -8.5t6.5 -5t11.5 -2.5t18 -0.5q3 0 8.5 -0.5t12.5 -0.5h15h15
t12.5 0.5t8.5 0.5q2 -1 4.5 -2t2.5 -3q0 -1 -1 -2l-2 -2t-2.5 -1.5t-2.5 -1t-5 -0.5h-5q-18 0 -35.5 1t-34.5 2q-16 2 -24.5 3.5t-12.5 7t-5 15.5t-2 26l-4 68t-5 67q-1 10 -3 19.5t-2 19.5zM106 125h-1l-2.5 2.5l-1.5 1.5v69q0 7 5 10.5t12 5.5t14.5 2.5t10.5 0.5
q7 0 13 -1t10.5 -3.5t8 -7t4.5 -11.5v-4.5t0.5 -7.5t0.5 -8v-5q1 -8 2.5 -17t1.5 -17v-2.5t-0.5 -3t-1.5 -3t-2 -1.5h-1q-1 1 -2.5 3t-2.5 2v3t-0.5 4.5t-0.5 4.5v3l-0.5 1.5t-1.5 3t-1.5 2.5t-1.5 1h-25q0 -15 1.5 -30t2.5 -30q1 -2 3 -2h3q7 0 14 1t14 1h15q2 0 5 -2t3 -5
t-3 -4h-12q-10 0 -19 0.5t-19 0.5v0q-1 0 -2 -1.5t-2 -1.5v-9q0 -8 2 -15.5t2 -15.5q0 -6 -6 -6q-3 0 -4.5 2t-2 4.5t-0.5 5.5v5v4.5t-0.5 7.5t-1 7.5t-0.5 4.5q0 4 -2 6t-5 2h-39l-8 2q-1 0 -1 1v1q0 2 1.5 4t3.5 2h49l0.5 1.5l0.5 1.5v1v7t-0.5 11t-1 12.5t-1.5 12.5
t-2 9.5t-2 3.5h-18l-0.5 -0.5t-0.5 -1.5l-1 -1t-1 -2v-21l-0.5 -0.5t-0.5 -1.5h-1zM107 175v-6q1 -2 4.5 -4t6.5 -2h51q1 0 2.5 1.5t1.5 3.5l-0.5 1.5t-1.5 3t-1.5 3t-0.5 2.5q-1 5 -1 10t-1.5 8t-5 5t-10.5 2h-3t-4 0.5t-5 0.5h-4q-10 0 -15.5 -1t-8.5 -4t-3.5 -8.5
t-0.5 -15.5z" />
</svg>
