<?xml version="1.0" standalone="no"?>
<!DOCTYPE svg PUBLIC "-//W3C//DTD SVG 1.1//EN" "http://www.w3.org/Graphics/SVG/1.1/DTD/svg11.dtd" >
<svg xmlns="http://www.w3.org/2000/svg" xmlns:xlink="http://www.w3.org/1999/xlink" version="1.1" viewBox="-10 0 266 256">
   <path fill="currentColor"
d="M150 246q0 1 0.5 2.5t2.5 1.5q1 0 2 -0.5t1 -1.5t1 -3t2 -4.5t1.5 -4.5l0.5 -2q0 -1 0.5 -4t1 -6.5t1 -6.5t0.5 -4q1 0 2 -1.5t2 -1.5v0q5 0 8 4t6 9t5.5 9t4.5 4q4 0 5.5 -3t1.5 -6v-1v-2q-3 -2 -6.5 -5.5t-7 -7.5t-6 -8t-2.5 -8t2.5 -6t5.5 -3.5t5 -3.5t2 -5
q0 -2 -1 -3.5t-3 -1.5t-4 1t-3.5 3t-3 3.5l-1.5 1.5h-1h-1l-1.5 -0.5l-1.5 -0.5l-5 -11q0 -1 0.5 -3t1.5 -2q1 -4 7 -3.5t12 0.5t11 -1.5t5 -8.5h-40v-18q1 0 4 -0.5t6.5 -1t6.5 -0.5t4 -1q3 0 4.5 -2t2.5 -4.5t1 -5v-4.5q0 -3 -0.5 -3.5t-2.5 -0.5q-3 0 -4 1.5t-2 3.5
t-1.5 4t-2.5 3q-1 0 -2.5 0.5t-4 0.5t-4 0.5t-2.5 0.5h-2q-1 0 -2 -0.5l-3 -1.5v-1.5t-0.5 -3.5t-0.5 -3.5v-2.5l-0.5 -1t-0.5 -2t-0.5 -2l-0.5 -1q0 -2 3.5 -3t8.5 -1.5t11 -0.5t11 -0.5t8.5 -2t3.5 -3.5q0 -3 -3 -4t-6 -1h-3t-3 1t-8 1.5t-12.5 1.5t-12.5 1.5t-8 0.5
l-0.5 0.5l-0.5 0.5q-1 0 -1.5 -0.5l-0.5 -0.5q-1 0 -4 -0.5t-4 -0.5v-0.5v-0.5v-0.5v-0.5q0 -1 0.5 -4.5t0.5 -4.5q3 -2 7 -2h10h10.5t10 -0.5t7.5 -2t3 -4.5v-1l-0.5 -0.5t-1.5 -0.5h-42q0 -7 1.5 -10.5t4 -5.5t7 -2.5t10.5 -1.5q8 0 18 -0.5t19 -2.5q1 0 1 -1.5t1 -1.5v-1
v-1q-1 0 -2 -0.5l-1 -0.5h-41q-1 0 -1.5 -1.5l-0.5 -1.5q0 -1 1 -3l2 -4l2 -4t2 -2q1 -2 5 -2.5t9 0t9.5 0.5t9 -0.5t7 -2t2.5 -4.5t-3 -3.5t-5 -0.5q-14 0 -27.5 2t-26.5 2q-8 0 -15.5 -1t-15.5 -1t-14 1.5l-14 3.5q-5 1 -9.5 1.5t-8.5 2t-6 5t-3 10.5q-1 1 -1 3.5v5.5
t-1 6t-2 5q-1 38 -2 75t-1 75v33q0 2 1 3.5t3 1.5t3 -1t1.5 -2.5t1 -3.5t0.5 -3q-1 -35 -0.5 -70.5t1.5 -70.5q0 -7 0.5 -15t1 -16.5t2.5 -16.5t6 -14q2 -3 5.5 -4t7 -1.5t6.5 -0.5h7q5 0 6.5 3t1.5 9v0q0 1 -1 2t-2 1h-26l-1.5 1.5l-1.5 1.5q0 1 0.5 2t0.5 2l1 0.5l1 0.5
h12q6 0 11 -0.5t10 -0.5q2 0 4.5 2.5t4.5 5.5t3.5 6.5t1.5 5.5v1l-0.5 0.5l-0.5 0.5h-36q-1 0 -3 2t-2 3v1q0 3 2 4t4.5 1.5t5 0t4.5 -0.5q5 0 10 -0.5t11 -0.5h5q2 0 2 2v2q0 4 -1.5 6t-3.5 2.5t-5 1t-6 0.5h-6t-9 0.5t-9 1t-6 0.5q-1 0 -3 1t-2 2v0.5v0.5q1 1 2 3t2 2h5
q11 0 21 -1.5t21 -1.5v22q0 2 -3 2.5t-7.5 0.5t-10 0.5t-10 1t-7.5 2t-3 4.5v0q0 1 1 1.5l1 0.5h15q1 0 2 1t1 2v3v1v4v2l-0.5 1.5t-1.5 1.5l-29 3q-2 0 -2 2.5v2.5q0 2 0.5 3.5t2.5 1.5q7 0 12 -2t11 -3q2 -1 3.5 0t2 2.5t1 3.5t0.5 3q0 4 -0.5 6t-1.5 3t-3.5 2t-6.5 4
q-10 6 -15 17t-5 23q5 0 7.5 -2.5t4 -6t2.5 -8t2.5 -8.5t4 -6.5t8.5 -2.5h1.5t1.5 1v3v2.5v3.5v2q0 7 -1 14.5t-1 14.5v3t3 2q1 0 3 -2t3 -4.5l2 -5t1 -3.5q0 -6 -1 -12t-1 -12q0 -5 0.5 -8t2.5 -7h3.5t5 -0.5t5 -0.5h3.5q3 -1 4.5 -2t1.5 -3q0 -3 -2 -4h-5q-4 0 -6.5 1
t-5.5 1q-4 0 -5 -2t-1 -5q0 -2 0.5 -4.5t3.5 -2.5q1 0 5 -0.5t8.5 -0.5t8.5 -0.5t6 -0.5h4q3 0 5.5 3t4.5 7.5t3 9t1 6.5q0 5 -2 10.5t-5 9.5q0 2 -1 7.5t-2 11.5t-2 11t-1 7v1zM110 149q0 -5 2.5 -7.5t6.5 -4t8 -2t8 -0.5v-2v-3l-1 -1t-1 -2q0 -3 0.5 -7t2 -8t4.5 -7t7 -3
h1l1 0.5l1 0.5q2 12 3.5 24t1.5 23q0 2 -0.5 3t-1.5 1q-7 1 -16.5 1.5t-17.5 0.5q-3 0 -6 -1.5t-3 -5.5zM110 31v-1.5v-0.5q6 -2 11.5 -3t11.5 -1q5 0 8 0.5l9 1.5l1 1.5t2 1.5v1v1q-1 0 -2 2t-3 4t-3 4t-2 2q-1 2 -2 5t-2.5 6t-3 5t-3.5 2q-3 0 -5 -1.5t-2.5 -4l-1 -5
t-1.5 -4.5q-2 -2 -4 -3.5t-3.5 -3.5l-3 -4t-1.5 -5z" />
</svg>
