<?xml version="1.0" standalone="no"?>
<!DOCTYPE svg PUBLIC "-//W3C//DTD SVG 1.1//EN" "http://www.w3.org/Graphics/SVG/1.1/DTD/svg11.dtd" >
<svg xmlns="http://www.w3.org/2000/svg" xmlns:xlink="http://www.w3.org/1999/xlink" version="1.1" viewBox="-10 0 266 256">
   <path fill="currentColor"
d="M51 19l-4 2q-3 6 3 7q4 1 6 1h5q7 -1 15 -0.5t18 0.5q21 0 30 5q4 13 -2 16q-3 1 -7 1.5t-9 0.5q-7 1 -13.5 1.5t-14.5 -0.5q-15 -1 -26 8q-5 12 -5.5 26t-0.5 28v93q0 5 -0.5 11t-0.5 14q0 15 3 23q5 1 6.5 -2t1.5 -7v-35v-98l3 -43l4 -5q3 -1 7.5 -2t9 -1.5t8.5 0
t8 1.5l-1 27q-1 1 -3 1.5l-4 1t-4 1.5t-5 4q-4 9 -5.5 19.5t-2.5 21.5t-1 21.5t1 20.5q-1 7 -0.5 15t2.5 15q8 1 8 -9v-16l1 -55q1 -4 1 -8t0.5 -8t2 -7.5t4.5 -6.5l5 -1l1 39v81q0 11 -0.5 22t2.5 21h5q3 -5 3 -18q-1 -6 -1 -11v-8l1 -126q10 1 12 10q3 8 2 17l1 58v14
q0 6 3 12l7 -1v-31l-2 -58q0 -6 -1 -13t-6 -12q-2 -2 -4 -3t-4 -1.5l-4 -1t-5 -1.5v-27l9 -1q6 -1 10.5 -3t8.5 -5q5 -10 2 -20q-2 -10 -14 -12q-17 -3 -34 -3h-36zM154 55l-8 3q0 6 3.5 7t8.5 1h20t19 4l3 10q1 7 1.5 14t0.5 16q-1 17 -7 28q-2 -10 -5 -19t-10 -16
q-9 -4 -19 -5.5t-20 1.5q-3 3 -1 5.5t5 2.5q5 1 9 0.5t8 0t7.5 2t7.5 4.5q3 5 4.5 11t2.5 12l1 7l-13 3q-7 1 -13.5 1t-12.5 3q1 8 13 8q3 0 5.5 -0.5t5.5 -0.5q6 0 9 -1l7 -2l4 28q1 11 2.5 21.5t2.5 21.5q0 11 2 21.5t5 20.5q8 1 7 -11q0 -11 -2 -18l-10 -88l8 -11
q5 -13 6.5 -27t-1.5 -28q0 -6 -1 -12t-7 -10q-8 -7 -23 -8h-13h-12z" />
</svg>
