<?xml version="1.0" standalone="no"?>
<!DOCTYPE svg PUBLIC "-//W3C//DTD SVG 1.1//EN" "http://www.w3.org/Graphics/SVG/1.1/DTD/svg11.dtd" >
<svg xmlns="http://www.w3.org/2000/svg" xmlns:xlink="http://www.w3.org/1999/xlink" version="1.1" viewBox="-10 0 266 256">
   <path fill="currentColor"
d="M170 175q3 0 4 3t1 5l5 65q0 1 1.5 1.5t2.5 0.5q5 0 6.5 -3t1.5 -7q0 -8 -1 -15.5t-2.5 -15.5t-2.5 -15.5t-1 -15.5v-5q6 -4 10 -10t5.5 -12.5t2.5 -13t1 -14.5t-2 -15.5t-8 -12.5q-5 -1 -8 -1t-6.5 -0.5t-6.5 -0.5h-7h-2q-2 0 -3.5 0.5t-3.5 0.5h-2q-3 -1 -3.5 0t-0.5 3
q0 1 2 3t4 2h30q2 0 3 2t2 4.5t1.5 5t0.5 3.5v4q0 2 -0.5 5.5l-1 7t-0.5 7v4.5l-3.5 3.5t-3.5 1.5t-2.5 -1.5t-1 -4.5t-1 -6.5t-2.5 -6t-6.5 -4.5t-11.5 -2h-5h-5q-2 1 -2 1.5v1.5v2q0 1 1 2.5l1 1.5h17q2 0 3.5 2.5t2 5.5t0.5 6v5q0 6 -2.5 9t-7 4.5t-9 1.5h-9.5v2
q0 3 1.5 4t4 1.5l5 1t4.5 0.5h3q1 -1 1.5 -1t2 -0.5t2.5 -0.5h1zM132 245l0.5 0.5l0.5 0.5h1h1q1 0 3.5 -2t2.5 -3v-15v-16v-7.5v-11.5t-0.5 -11.5t-0.5 -8.5q-1 -8 -3 -13.5t-5.5 -9.5t-9.5 -6.5t-14 -4.5h-2h-4.5t-2.5 3q0 2 1 2t3 1q1 1 4 2l6 2l6 2t4 1q2 1 3.5 4t2 6
t1 6.5t0.5 4.5v8t0.5 10.5t0.5 10.5t1 6v39zM52 227v2q0 2 1 3.5t2 2.5t3 1q3 0 4.5 -5t2.5 -12.5t1 -17t0.5 -19t2 -16.5t4.5 -11q1 -2 4 -3.5t6.5 -2.5t5.5 -3t2 -5t-0.5 -3.5t-3.5 -0.5t-6 1.5t-5 3.5q-1 0 -3 2.5t-4.5 4.5t-4.5 4.5t-3 3.5q-3 5 -4.5 14t-2.5 19
t-1.5 20t-0.5 17zM79 165q0 3 0.5 11t1 16.5t3 14.5t5.5 6h19q3 0 5.5 -3t2.5 -5q1 -8 1.5 -16t0.5 -16q0 -4 -1 -9t-6 -6l-3 15h-17q-1 0 -1 -2t-0.5 -4.5t-2 -4.5t-4.5 -2t-3.5 1.5t-0.5 3.5zM89 196q0 -8 3.5 -10.5t10.5 -2.5q2 0 4.5 0.5t2.5 3.5l-0.5 2.5t-1.5 5
t-2.5 5t-2.5 2.5h-12q-1 0 -1.5 -3zM52 133q0 2 2.5 2h3.5q6 0 12 -3t10 -8t7 -11t3 -12v-5q0 -3 -1 -4q0 -1 -1 -2.5t-2 -1.5l-1.5 0.5t-1.5 1.5l-5 24q-1 2 -5 4.5t-8.5 4.5t-8.5 4.5t-4 5.5zM113 92v28q0 3 2.5 5t6 3.5t6.5 2.5t5 1q3 0 5 -1.5t3 -3.5q-1 -4 -4.5 -5
t-7 -2.5t-6 -3.5t-3.5 -9q0 -1 -0.5 -3.5t-0.5 -5t-0.5 -5t-0.5 -3.5l-2 -2zM100 62h5h5.5h4.5h3h5t5.5 1t4.5 2.5t2 4.5v30l1 0.5t2 0.5q3 0 4.5 -3t2 -7.5t0.5 -8.5v-5v-7t-1 -7.5t-3 -6t-6 -3.5l-25 -3q-2 0 -3 -3t-1 -5t1 -5t4 -3h22q1 0 1.5 -1.5t0.5 -2.5
q0 -4 -3.5 -5.5t-7.5 -1.5h-9q-4 0 -5 -1q-2 -1 -2.5 -2.5t-0.5 -3.5t-1 -4t-3 -3h-1q-2 0 -3.5 2.5t-1.5 3.5v30q0 4 -2.5 5t-6.5 1.5t-9 0.5t-9 0.5t-7 2.5t-4 7q0 1 -0.5 5t-0.5 8v8v5q0 3 0.5 7t4.5 4q3 0 5 -4q-1 -7 -0.5 -14t1.5 -14q1 -2 2.5 -3t4 -1.5t4 -0.5h3.5h2
h5h5h5zM76 78q0 4 3 4.5t5 0.5h8.5t13.5 -1t13 -2.5t6 -3.5q0 -3 -3 -3.5t-5 -0.5h-4h-6.5t-10 0.5t-10.5 0.5t-7 1t-2.5 2t-0.5 2z" />
</svg>
