<?xml version="1.0" standalone="no"?>
<!DOCTYPE svg PUBLIC "-//W3C//DTD SVG 1.1//EN" "http://www.w3.org/Graphics/SVG/1.1/DTD/svg11.dtd" >
<svg xmlns="http://www.w3.org/2000/svg" xmlns:xlink="http://www.w3.org/1999/xlink" version="1.1" viewBox="-10 0 266 256">
   <path fill="currentColor"
d="M180 247q0 3 1.5 3.5t4.5 0.5t3.5 -2t0.5 -5q0 -11 -2.5 -22t-2.5 -22q0 -4 2.5 -6.5t5.5 -5t5.5 -5t2.5 -6.5t-3 -8t-7.5 -7t-10 -5.5t-8.5 -2.5q0 4 2.5 6.5t6 5t6.5 5.5t3 7t-3 5t-6 1t-5.5 -1.5t-5.5 -3.5t-5 -4.5t-4 -3.5q-3 -2 -7.5 -4t-10 -3t-10.5 -2t-8 -1
q0 5 5 8t12.5 5t14.5 5t10 8q0 2 -2.5 2.5t-6 1t-6.5 0t-4 -0.5q-7 0 -14 -1t-14 -4q-2 -1 -6.5 -3t-7.5 -2q-1 0 -1.5 1.5t-0.5 2.5q0 3 3 5.5t7 3.5t8 1.5t7 0.5h17q6 0 12.5 -1t13.5 -1v0q3 1 5 5t3 9t1.5 9.5t0.5 5.5q0 6 -1 12.5t-1 12.5zM104 214q0 3 3 5h5h7h7h5h6
h7.5h6.5h3h4t4 -0.5t3.5 -1.5t1.5 -3q0 -1 -0.5 -2t-2.5 -1h-58q-2 0 -2 1v2zM106 155v3t2 2q3 0 4.5 -2t3 -4.5t2 -5.5t-0.5 -4q3 -3 6 -3.5t6 -0.5q4 0 7.5 0.5t6.5 0.5h1h2h2t1 1v13q0 1 1.5 1.5t2.5 0.5h0.5h0.5q1 -4 1 -7.5t3 -7.5l1 -1h31q3 0 4 2.5t1.5 5.5t1.5 5.5
t4 2.5q2 0 2 -2v-3v-3q0 -1 -1 -5t-2.5 -9t-2 -9t-0.5 -5q-1 -2 -1 -8v-12v-13t1 -8l-2 -2t-2 -1l-1 0.5t-2 0.5q-4 3 -4 5t-0.5 3t-4 1.5t-13.5 0.5h-4h-3l-3 -3v-13l2.5 -1.5t7 -3t9 -4t8.5 -5.5t7 -7t3 -9q0 -6 -5 -11.5t-12 -9t-14.5 -5.5t-12.5 -2q0 5 2.5 7t6 3t7.5 2
t7 3q1 0 2.5 2t4 3.5t4 3l2.5 2.5v2v1q0 3 -3 6.5t-7 6t-8.5 4t-6.5 1.5h-3t-2 -2v-14q0 -2 -4 -3.5t-9 -3t-9 -3.5t-5 -4l-3 -16q-1 -3 -3 -4.5t-4 -1.5t-2.5 2t-0.5 3q0 13 7 24q1 4 5.5 4.5t8.5 1.5t7 4t3 9q0 4 -0.5 5.5t-1.5 2t-3.5 0.5t-5.5 1h-5.5t-7.5 0.5t-8 0.5
h-5t-1.5 1.5l-0.5 1.5q0 1 0.5 1.5t1.5 0.5h37l2 3v8q0 7 -0.5 12.5t-1.5 13.5q-3 1 -4.5 1h-4.5h-2.5h-1.5h-4t-4.5 -0.5t-4 -0.5h-1.5v-21l-1 -1l-1 -1h-3.5h-2.5v27t-2 26q-1 4 -3 8t-2 8zM119 127q0 -2 0.5 -4.5t2.5 -4.5q6 0 10.5 -0.5t10.5 -0.5h2q3 0 3 1v17
q-3 0 -8 0.5t-9.5 0t-8 -2.5t-3.5 -6zM156 130v-13h32q1 0 1.5 1.5t0.5 3v3.5v2v3t-2 3h-29zM60 33q-1 0 -2.5 1t-1.5 3v78q0 3 2 5.5t5 4t6 2.5t6 1q9 0 15.5 -5.5t7.5 -15.5q0 -1 0.5 -8t1 -15.5t1 -16.5t0.5 -13v-3q0 -3 -1 -5.5t-5 -2.5h-2t-2 2v27l-1 2h-3.5h-4.5h-3
h-5t-5.5 -1t-3.5 -3v-4v-4q0 -6 1 -10.5t1 -9.5q0 -4 -1.5 -6.5t-5.5 -2.5zM65 83h27v5v6.5t-0.5 6.5t-0.5 5t-1.5 5.5t-4.5 5.5h-3h-3q-2 0 -4.5 -0.5t-4.5 -2t-3.5 -3.5t-1.5 -4v-24zM156 105v-1q0 -2 0.5 -4t1 -3.5t0.5 -2.5h27q1 0 2 1t1 2.5t0.5 3l0.5 1.5
q0 2 -0.5 4.5t-3.5 2.5h-27l-1 -1.5l-1 -1.5v-1z" />
</svg>
