<?xml version="1.0" standalone="no"?>
<!DOCTYPE svg PUBLIC "-//W3C//DTD SVG 1.1//EN" "http://www.w3.org/Graphics/SVG/1.1/DTD/svg11.dtd" >
<svg xmlns="http://www.w3.org/2000/svg" xmlns:xlink="http://www.w3.org/1999/xlink" version="1.1" viewBox="-10 0 266 256">
   <path fill="currentColor"
d="M155 199h1q0 1 1 2l1 1v47q0 1 2 1.5l2 0.5q1 0 2 -0.5t1 -2.5v-46q0 -4 1.5 -4.5t3.5 -0.5q6 0 10 4t6 9t2 11.5v11.5q0 1 1 1h2h1.5t1.5 -1v-5v-5t-0.5 -6.5t-2 -10.5t-3.5 -9.5t-5 -4.5h-19v-11q0 -1 2.5 -1.5t6.5 -1.5t7.5 -2.5t4.5 -5.5q0 -1 0.5 -3t1 -4.5l1 -5
t0.5 -3.5q0 -2 -1.5 -3.5t-3.5 -1.5h-1l-2 1v2.5t-0.5 3.5t-0.5 4v3l-0.5 1t-1 2.5t-1.5 2.5t-2 1h-11q0 -7 0.5 -12t-1.5 -11h-0.5h-0.5q-2 0 -3 0.5t-1 2.5v23q-11 0 -14.5 -3.5t-4.5 -7t-0.5 -6.5t-2.5 -3t-3.5 3t-0.5 4q0 2 1 5.5t2 6.5t2.5 5.5t4.5 2.5h15v11
q0 1 -0.5 1.5t-1.5 0.5q-7 2 -11 4.5t-6.5 5.5t-3 8t-0.5 13v4.5v4.5q0 3 3 3q2 0 3 -3t1.5 -7t1 -8.5t1.5 -9t4 -7t8 -2.5zM104 236l2 1v0q3 0 5 -2t2 -4v-82q0 -2 2.5 -3.5t3.5 -1.5l81 -4l0.5 -0.5t0.5 -1.5q1 0 1 -2v-3q-12 0 -24 1t-24 1v-14l3 -2h31q2 0 2.5 -1.5
t0.5 -2.5q0 -2 -0.5 -3t-2.5 -1h-32q-1 0 -1.5 -1.5l-0.5 -1.5v-2q0 -2 0.5 -4t0.5 -3.5v-2.5h36l0.5 -0.5t0.5 -1.5q1 0 1 -1h-1q0 -1 -2 -2.5t-2 -2.5h-0.5h-0.5q-9 0 -17 0.5t-17 0.5v-22q0 -2 1.5 -2.5t2.5 -0.5h1h1l3 1t3 2q1 0 4.5 1.5l7 3t7 2.5t4.5 2h1h1
q2 0 3.5 -0.5t1.5 -2.5q1 -1 0 -2.5t-2.5 -2l-3 -1l-1.5 -0.5q-1 -1 -4 -1.5l-6 -1l-6 -1t-4 -1.5q-1 0 -2 -1t-1 -2q-1 -2 1.5 -4t5.5 -3.5t5.5 -3.5t2.5 -4q0 -5 -3.5 -8t-8 -5t-8 -3.5t-4.5 -4.5q-1 -2 -0.5 -4t0.5 -4q0 -1 -0.5 -2t-3.5 -1t-4 1.5t-1 4v4.5v4q-1 2 -4 3
t-6.5 3t-7.5 5.5t-7 10.5q2 4 6 5.5t7 3l6 3t3 3.5q0 1 -4.5 4.5t-10 8t-10.5 9t-7 8t-3 7.5t-2 8.5t-1 8.5v8q0 1 -0.5 7t-0.5 14v18t-0.5 20t-0.5 19v14v9v10zM113 134v-11l3.5 -0.5t5.5 -1.5h5.5h6.5h7.5h5.5v13l-2 1l-1.5 0.5t-4 0.5t-4.5 0.5t-3 0.5h-10h-6zM115 109
q0 -4 1 -6.5t5 -3.5q1 0 4 -0.5t6.5 -0.5t6.5 -0.5t4 -0.5h5v15q0 1 -3.5 1.5t-5.5 0.5h-11h-11q-2 0 -1.5 -2.5zM54 31v60q0 4 1.5 5.5t3.5 2.5t4.5 1h5.5h5t7.5 -0.5t6.5 -2t3 -4.5q1 -15 3.5 -30t2.5 -29q0 -3 -1.5 -3.5t-3.5 -0.5q-4 0 -5.5 3t-2 7.5t-0.5 8.5v6h-2
t-4 0.5t-3.5 0.5h-2.5h-5.5h-5.5v-23l-1 -0.5l-1 -0.5q-1 0 -2.5 -0.5t-2.5 -0.5zM62 91v-24q0 -2 2.5 -3t5.5 -1.5t5.5 -0.5h3.5h3t2 2v24l-0.5 0.5l-0.5 0.5q-1 1 -2 1.5l-1 0.5h-18zM122 89q0 -2 3 -4.5t7 -5.5t8 -4.5t5 -1.5v18h-20l-1 -0.5t-2 -1.5v0zM151 42
q-2 1 -2 2.5t-0.5 3.5t-1 3.5t-3.5 1.5q-1 0 -3.5 -0.5l-5 -1t-4 -2t-1.5 -2.5q0 -2 3 -4t6.5 -4.5t7 -4t4.5 -1.5q2 0 5.5 0.5t6.5 1.5t5 3.5t2 5.5q0 2 -1.5 4t-3.5 3.5t-5 2.5t-5 1v-2v-4.5t-1 -4t-3 -2.5z" />
</svg>
