<?xml version="1.0" standalone="no"?>
<!DOCTYPE svg PUBLIC "-//W3C//DTD SVG 1.1//EN" "http://www.w3.org/Graphics/SVG/1.1/DTD/svg11.dtd" >
<svg xmlns="http://www.w3.org/2000/svg" xmlns:xlink="http://www.w3.org/1999/xlink" version="1.1" viewBox="-10 0 266 256">
   <path fill="currentColor"
d="M78 242q3 0 8.5 0.5t11.5 1t11.5 1t7.5 1.5h3h4.5h5.5h5h4h5.5h4.5h2q1 0 4.5 -0.5t7.5 -1.5t8 -1.5t6 -0.5q9 -2 14.5 -8.5t7.5 -14.5t2 -17.5t1 -18.5q0 -1 0.5 -3t0.5 -4t0.5 -4t0.5 -3v-10v-15v-15v-10v-13v-17v-14v-6q0 -10 -0.5 -17t-3 -11.5t-7 -7t-13.5 -2.5
q-1 -1 -5 -1t-9.5 -0.5t-11 -0.5h-8.5h-2h-3h-11.5t-17.5 0.5t-17 0.5t-12 1q-12 1 -18 5t-8.5 11t-3 16t-0.5 21v7t-0.5 14.5t-0.5 17.5v13v14t0.5 17t0.5 15v7q0 8 1 16.5t3.5 15.5t7.5 12.5t13 8.5zM63 181v-86q3 -8 2 -17t0 -17q0 -7 3 -11.5t8 -7t11 -3.5t12 -1.5t12 0
t10 0.5h15t13.5 0.5t14 1t16.5 0.5q7 0 10 5t3.5 11.5t0.5 13.5v12v5.5v11t0.5 13t0.5 12.5v10.5v6.5v1q0 15 -1 29t-4 29q0 1 -0.5 4t-1 6.5t-1 6.5t-0.5 4q-1 5 -7.5 8t-14 4.5t-15 2t-11.5 0.5q-11 0 -21 -1t-21 -3h-2.5t-5 -0.5l-5 -1l-2.5 -0.5q-7 -2 -10.5 -7.5
t-5 -13t-2 -15.5t-1.5 -13zM163 217q1 0 2 2t2 2h1q3 0 3.5 -3t0.5 -5q0 -8 -2 -15.5t-3.5 -15l-3 -15t-1.5 -14.5q0 -3 1.5 -5.5t3.5 -5l4 -5t2 -6.5l0.5 -3t0.5 -7.5t0.5 -8.5t0.5 -7v-4v-2q0 -1 -0.5 -3.5t-1 -6t-1 -6t-0.5 -3.5q-4 -6 -13 -9t-20 -4t-21 -1h-16h-3
t-4.5 0.5t-4.5 0.5h-3q-3 -1 -3.5 0.5t-0.5 3.5v3.5t2 1.5q18 -1 37.5 -0.5t37.5 6.5q2 2 3 5t1.5 6.5t0.5 7v6.5v5.5v4.5t-0.5 4t-1.5 5q0 1 -0.5 2.5l-1 3t-1 2.5l-0.5 1h-4l-0.5 -1l-1.5 -3t-1.5 -4t-1.5 -3q-2 -7 -5.5 -10.5t-8 -5t-10 -1.5h-11.5h-3.5t-5.5 0.5
t-6.5 0.5h-5.5q-1 0 -3.5 0.5t-5.5 1t-5.5 2t-2.5 4.5q0 1 0.5 2t1.5 2h9h15h14h9q21 1 21 24q0 3 -3 4.5t-5 1.5q-3 1 -8 1.5t-11 1t-11.5 1t-7.5 0.5h-5h-8t-7.5 1.5t-3.5 4.5l1 1l1 1h3.5t5.5 0.5l6 1t4 0.5h3q5 0 10.5 -0.5t10.5 -1t10 -1.5t10 -3l3 -2t4 -2l1.5 1.5
t1.5 2.5t0.5 3t1 4.5t1 4.5t0.5 3t0.5 4l1 6t0.5 6v3q0 2 1 5.5t1.5 7t1.5 7.5t1 5z" />
</svg>
