<?xml version="1.0" standalone="no"?>
<!DOCTYPE svg PUBLIC "-//W3C//DTD SVG 1.1//EN" "http://www.w3.org/Graphics/SVG/1.1/DTD/svg11.dtd" >
<svg xmlns="http://www.w3.org/2000/svg" xmlns:xlink="http://www.w3.org/1999/xlink" version="1.1" viewBox="-10 0 266 256">
   <path fill="currentColor"
d="M129 189q5 0 8.5 4.5t5.5 11.5t4 15t4 15t5 11.5t8 4.5q3 0 4.5 -3t1.5 -5q0 -5 -3.5 -11.5t-8 -13.5t-8 -14.5t-3.5 -14.5q0 -4 2 -5.5t5.5 -2.5t7.5 -1.5t7.5 -3t6 -7t2.5 -11.5v-7.5t-1 -9t-3 -8.5t-6 -4l-0.5 2t-2 4.5t-2.5 4.5t-2 3q-4 0 -6.5 0.5t-5 0.5h-4.5h-5
h-6q-3 -1 -3.5 -5.5t-1 -8.5t-2 -7.5t-7.5 -3.5q-1 0 -1 1.5v1.5q0 6 1 10.5t1 9.5q0 1 -0.5 4l-0.5 3l-3 2q-12 0 -23 1.5t-23 2.5q-2 1 -3 2.5t-1 3.5t2 2.5t5 0.5q6 0 11.5 -1l11 -2t11.5 -2t12 -1h3q1 1 1.5 2l0.5 1l1.5 1.5l1.5 1.5q1 1 1.5 3.5t1 4t0.5 3v1.5l-5 5
q-15 1 -30 3.5t-30 4.5q-3 -1 -3 0.5v2.5q0 3 1.5 4.5t4.5 1.5q8 0 15 -1.5t14.5 -3.5t15 -3t15.5 -1zM137 160q0 -2 1 -3.5t2 -2.5q7 -2 11.5 -3t10.5 -1h3t2 1l1 1v1.5v3.5t-0.5 4t-0.5 3t-0.5 2.5t-1.5 2.5q-5 1 -10 3.5t-11 2.5h-4q0 -1 -0.5 -2.5t-1 -3.5l-1 -4
l-0.5 -2v-3zM65 118v2.5t1 0.5t3 0.5t4 0.5h4h2h4h4t3.5 -0.5l1.5 -0.5q9 0 14 -4.5t7 -10t3.5 -9.5t2.5 -4h23v3t0.5 4.5t0.5 4.5t1 3q0 3 2 5t5 3t6 1.5t5 1.5h6t8 0.5t8.5 0.5h5.5h1h1l0.5 -0.5l0.5 -0.5l2 -3q-1 -1 -2.5 -3t-2.5 -2h-5.5t-8.5 -0.5t-8 -0.5h-6
q-6 -1 -8.5 -3t-2.5 -7q0 -4 1 -5.5t3 -2.5t4 -1.5t5 -2.5q1 0 2.5 -2t2.5 -3.5t2.5 -3t1.5 -2.5q6 -8 7 -18.5t1 -20.5q0 -3 -1 -6t-5 -3t-5.5 3.5t-2 9t-0.5 11.5q0 7 -0.5 12.5t-2 9t-4.5 3.5l-0.5 -0.5l-0.5 -0.5q-7 -5 -11.5 -13t-10.5 -15v-1q0 -3 4 -7.5l8 -9t8 -8.5
t4 -7t-1.5 -3.5t-3.5 -0.5t-6 4.5t-8 9.5t-7.5 9.5t-4.5 5.5q-4 -2 -7 -5.5t-5.5 -7.5t-5 -7.5t-6.5 -6.5h-0.5h-0.5q-2 0 -2.5 1t-0.5 3q0 4 3 8t6.5 7.5t6.5 7.5t3 9q0 2 -3 5l-6.5 6.5t-7.5 6.5t-5 7h-0.5h-0.5q-4 0 -5 -3.5t-1.5 -8.5t0 -11t-0.5 -11t-2.5 -8.5
t-5.5 -3.5h-0.5h-0.5q-1 1 -1.5 4t-0.5 4q0 6 0.5 11.5t1 10t1.5 9.5t3 11q1 1 1.5 2l0.5 1q2 2 5 3.5t5.5 2.5t4.5 3t2 5q0 8 -4 11.5t-9.5 5t-12.5 1.5h-11q-2 1 -2.5 2t-0.5 2zM105 79q0 -1 3 -4.5t7 -8t8 -8t6 -3.5h1q1 3 3.5 6.5t5.5 7.5t6 7t5 4l-8 5l-34 -1l-1.5 -2
t-1.5 -3z" />
</svg>
