<?xml version="1.0" standalone="no"?>
<!DOCTYPE svg PUBLIC "-//W3C//DTD SVG 1.1//EN" "http://www.w3.org/Graphics/SVG/1.1/DTD/svg11.dtd" >
<svg xmlns="http://www.w3.org/2000/svg" xmlns:xlink="http://www.w3.org/1999/xlink" version="1.1" viewBox="-10 0 266 256">
   <path fill="currentColor"
d="M95 234q0 2 1.5 4l3 4t3.5 3.5t3 1.5h42q5 0 8.5 -2t5.5 -5t4 -7l4 -8v-25v-25q0 -2 -0.5 -6t-1.5 -7.5t-3 -6.5t-4 -3h-1q-1 0 -3 1.5l-2 1.5v6v4q0 7 1 13t1 14v2v3q0 2 -0.5 3.5l-0.5 1.5q0 1 -0.5 4t-1 7t-1 7.5t-0.5 4.5q-1 4 -5 6t-9 2h-9.5h-7.5h-12l-1.5 -1.5
t-0.5 -1.5l-0.5 -2t-0.5 -4t-0.5 -3.5t-0.5 -2.5v-11v-16v-17v-11q1 -2 0.5 -4.5t-1.5 -4t-2.5 -2.5t-4.5 0l-0.5 1.5l-0.5 1.5q-3 13 -3.5 26t-0.5 26v2.5v1.5q0 1 0.5 4.5t0.5 7t0.5 7t0.5 4.5zM134 121q5 0 9.5 2.5t8.5 5.5t8.5 6t9.5 5h1h2t2 0.5l1 0.5q1 1 4 3t6.5 4.5
t6.5 4.5l3 2q2 2 3 2h3q3 0 5.5 -1.5t2.5 -4.5q0 -5 -5.5 -9t-13 -8t-16.5 -8t-17 -7.5t-13 -8.5t-5 -11q0 -2 -0.5 -7t0 -10t1.5 -9t4 -4q7 0 13.5 4t13 8.5t13 8t13.5 3.5q3 0 5 -1t2 -5t-4.5 -8t-11.5 -7.5t-15.5 -6.5t-15.5 -5.5t-12 -5.5t-5 -6q0 -4 1 -8t1 -9
q0 -3 -0.5 -6.5t-1.5 -7t-4 -5t-6 -1.5h-3t-2 1v38q0 1 -5 3t-12.5 6t-16.5 8t-16.5 8t-13 8t-5.5 6q-1 1 0 3t1 3h3.5h3.5q3 0 7 -1.5t8 -3.5l8 -4t7 -4q1 0 3.5 -1.5l5 -3t5 -2.5t3.5 -2q2 -1 2.5 -2t1 -1.5t1 -0.5h2.5q3 0 4.5 2t2 5t0.5 7v5q0 6 0.5 12.5t-3.5 10.5
q-4 0 -8.5 1.5t-9 3.5t-8.5 4.5t-7 4.5q-6 3 -12 5t-11 4q-2 0 -4.5 1.5t-5 2.5l-5 2l-2.5 1q-3 1 -3.5 2.5t-0.5 4.5t2 4.5t5 1.5h3.5t1 -0.5l1.5 -1.5t4 -2q4 -2 10 -4.5t12.5 -5.5t13.5 -6.5t13.5 -6t12 -4.5t9.5 -2z" />
</svg>
