<?xml version="1.0" standalone="no"?>
<!DOCTYPE svg PUBLIC "-//W3C//DTD SVG 1.1//EN" "http://www.w3.org/Graphics/SVG/1.1/DTD/svg11.dtd" >
<svg xmlns="http://www.w3.org/2000/svg" xmlns:xlink="http://www.w3.org/1999/xlink" version="1.1" viewBox="-10 0 266 256">
   <path fill="currentColor"
d="M97 243q0 2 0.5 3.5t2.5 1.5q5 0 7.5 -6t3.5 -14t1 -16v-11v-8v-11v-12v-8l3 -4h2.5t6 -0.5t7.5 -0.5h6h1q2 0 3.5 0.5t2.5 2.5v5v5v11t-2 11v53q0 3 1.5 3.5t2.5 0.5q4 0 6 -3.5t2 -6.5v-3q0 -1 -0.5 -7t-0.5 -12.5t-0.5 -12.5t-0.5 -8v-2q0 -2 3 -3t7 -2t9 -2.5t9.5 -4
t7.5 -6.5t3 -12q0 -1 -1 -3.5t-2.5 -5t-3 -4t-3.5 -1.5h-27l-1 -1.5t-1 -2.5v-1v-1q0 -2 0.5 -5t1 -5l0.5 -2l3 -3q5 0 11 -0.5t11.5 -2.5t9.5 -5.5t4 -10.5q0 -6 -3 -9t-7 -5t-9 -2t-9 -0.5t-7 -1t-3 -1.5v-13l-1 -0.5t-2 -0.5q-3 0 -3.5 3l-1 6t-1 5.5t-4.5 2.5h-22l-2 -2
q-2 -3 -2 -6t1 -8q-1 0 -2 -1l-2 -2v0v0h-1q-1 1 -2.5 1.5l-1.5 0.5v17l-1.5 0.5t-2.5 0.5h-8q-2 0 -6 0.5t-9 0.5t-9.5 0.5t-6.5 0.5l-2.5 1.5t-2.5 2.5q0 2 0.5 3t2 1.5t3 0.5h2.5q8 0 16.5 -1.5t16.5 -1.5q2 0 3.5 1.5t2 4t0.5 4.5v5q0 1 -0.5 3.5t-2.5 2.5h-29
q-4 0 -6 2t-4 4.5t-2.5 6t-0.5 5.5q0 1 0.5 4t2 5l3 4t2.5 2h29l2 3l0.5 1l0.5 1v1v1v4.5t-0.5 5.5t-0.5 5v2q-1 1 -1.5 2.5l-0.5 1.5v16t-0.5 14l-1 14t-0.5 14zM152 177v-2q0 -2 0.5 -6t1 -6.5l0.5 -2.5l1 -2h2.5h3.5h4.5t5 1t4 2.5t1.5 4.5t-1.5 6t-4.5 5t-6 3t-7 1
q-2 0 -3.5 -0.5t-1.5 -3.5zM76 140q0 -3 2 -5t4.5 -2.5t5.5 -0.5h6q6 0 8 1.5t2 6.5q0 3 -0.5 5t-2.5 4h-4.5h-3.5h-6t-5.5 -1t-4 -2.5t-1.5 -5.5zM113 142q0 -2 0.5 -5.5t3.5 -4.5q6 -1 11 -1.5t11 -0.5q3 0 5 1.5t2 5.5q0 3 -1 5.5t-3 4.5q0 1 -0.5 1.5l-0.5 0.5h-24
q-3 0 -3.5 -3t-0.5 -4zM146 101v20h-32q0 -2 0.5 -7.5t2.5 -9.5l1.5 -1.5l1.5 -1.5h26zM153 111v-2q0 -1 0.5 -3t1 -3.5t2.5 -1.5h17q3 0 4 2t1 4q0 9 -4.5 11t-11.5 2h-8q-2 -2 -2 -4v-5zM49 84q0 3 0.5 4t3.5 1q4 0 8 -1.5t8 -3.5q7 -2 15 -5.5t16 -6.5t16 -4.5t16 -1.5h3
h4h4h3q5 2 12.5 6t16.5 8t17 6.5t13 2.5l1 -0.5t1 -1.5l0.5 -1t0.5 -2q-1 -3 -5.5 -6t-10 -5.5t-11.5 -4l-10 -2.5q-2 -1 -6 -2t-9 -2.5t-9 -3t-6 -1.5q-3 -1 -3.5 -2t-0.5 -3q0 -4 0.5 -6.5t1.5 -5.5h3h6t6 1q1 1 5.5 2t9.5 2.5t9.5 3t5.5 2.5h4q2 0 4 -0.5t2 -3.5t-4 -5
t-10 -4t-13.5 -3.5t-13.5 -2.5t-10 -2t-4 -2v-14q0 -2 -3 -2.5t-4 -0.5h-3t-1 3v18l-34 3q-2 2 -7 3t-10 2.5t-9.5 3.5t-4.5 3q0 4 2.5 4.5t4.5 0.5q7 0 13.5 -2l13 -4t13.5 -4t14 -2q3 0 3.5 1t0.5 4t-1 6.5t-4 5.5q-18 4 -35.5 10.5t-35.5 10.5q-2 1 -2.5 2.5t-0.5 3.5z
" />
</svg>
