<?xml version="1.0" standalone="no"?>
<!DOCTYPE svg PUBLIC "-//W3C//DTD SVG 1.1//EN" "http://www.w3.org/Graphics/SVG/1.1/DTD/svg11.dtd" >
<svg xmlns="http://www.w3.org/2000/svg" xmlns:xlink="http://www.w3.org/1999/xlink" version="1.1" viewBox="-10 0 266 256">
   <path fill="currentColor"
d="M163 195q0 3 0.5 8t2 11t3.5 13t4.5 12t6 8.5t6.5 3.5q2 0 2.5 -1t0.5 -3q0 -4 -2 -7t-4 -7q-2 -2 -4 -7t-3.5 -10.5l-3 -11t-1.5 -7.5q0 -3 0.5 -6.5t1.5 -7t2.5 -6.5l2.5 -5t2.5 -4t3 -3.5t3 -3.5t1.5 -6t-2 -7t-5 -6t-5 -7t-2 -8q0 -2 5 -3.5t10.5 -4t10.5 -7.5t5 -14
q0 -8 -3.5 -13.5t-9.5 -9t-13 -5t-15 -1.5q-2 -1 -2.5 -2t-0.5 -2q0 -6 2 -9t5.5 -5.5t7.5 -4.5t7.5 -4t5.5 -5t2 -7q0 -9 -5.5 -11.5t-13.5 -2.5q-5 0 -10 1t-10 1t-10 -1t-10 -1.5t-10 -1.5t-10 -1q0 6 3 7t7 1t7.5 0.5t4.5 4.5q0 1 -0.5 2t-0.5 2l-24 23v5h5l3 -3
l4.5 -4.5t5 -4.5t2.5 -3q2 -1 4.5 -4t5.5 -6t6 -5.5t4 -2.5q1 -1 3.5 -1t5.5 -0.5t5 -0.5h3t3 0.5t4.5 1t4.5 1t3 0.5q0 1 0.5 2t0.5 2q0 5 -4.5 7t-9.5 5t-9 8t-5 16l-3 3q-6 2 -11 3t-8.5 3t-7 5t-6.5 8v4v5q0 8 1.5 12.5t4 6.5t6 3t6 1.5t4 1t1.5 3.5q0 5 -2.5 9
t-5.5 8.5t-5.5 8.5t-3.5 9v4v6v6v4v5v7v5v3q0 1 0.5 4t0.5 6t0.5 6t0.5 4v6t0.5 8.5t1.5 8t3 3.5t3 -1t1.5 -3t0.5 -4v-4q0 -13 -2.5 -26.5t-2.5 -26.5q0 -11 3 -20t7 -17.5t7 -17t3 -19.5q0 -6 -1 -11.5t-1 -11.5q0 -5 2 -7.5t8 -2.5q2 0 4.5 0.5t2.5 3.5v53q0 3 1.5 6
t3.5 6t3.5 6t1.5 6q0 6 -2 10t-4.5 8.5t-4.5 9.5t-2 12zM71 139q0 27 -1 54t-1 55q4 0 6.5 -2t3 -5t0.5 -6v-7q0 -1 0.5 -5t0.5 -8.5t0.5 -8t0.5 -4.5v-3v-4.5v-5.5v-5q0 -7 -1 -14t-1 -13t0.5 -9l1.5 -9q1 -2 4 -2.5t4 -0.5q7 -3 10 -9t4 -13.5t0.5 -15t-0.5 -13.5v-21
q0 -2 -1 -2.5t-3 -0.5h-1v0q-2 4 -2 10v13v15.5t-1 14t-2.5 10.5t-5.5 4q-3 0 -4 -4t-2 -9.5t-1.5 -12t-0.5 -13v-11.5v-8v-14q2 -2 5 -2.5t5 -2.5q1 0 2.5 -1.5l3 -3l3 -3t1.5 -2.5q1 0 1.5 -1.5l0.5 -1.5q0 -4 -1.5 -8t-4.5 -7t-7 -5t-8 -2q-6 0 -10.5 1t-8 3t-5.5 5.5
t-2 9.5q0 5 1.5 8t3.5 5t5 4.5t5 5.5q2 1 2.5 5t0.5 8t0.5 7.5t0.5 5.5v19v19q0 3 -1.5 3.5t-2.5 0.5q-4 0 -5.5 -2t-2 -5l-1 -6t-1.5 -6v-39q0 -1 -1 -3t-3 -2t-3 2.5t-1 3.5v53q0 7 3 8.5t7 2t7 1.5t3 5zM173 104q0 -6 0.5 -10.5t0.5 -10.5q2 -3 3 -3.5t3 -0.5q4 0 7 2.5
t4.5 6t2 7t0.5 7.5q0 2 -1.5 4.5t-4 5t-5.5 3.5t-5 1q-2 -1 -3 -2.5t-1.5 -3t-0.5 -3.5v-3zM126 98q0 -2 0.5 -5.5t2.5 -6.5t4.5 -5t5.5 -2h1.5h0.5q2 5 2 10v9v3v3v4v3q0 2 -1 2.5t-2 0.5q-8 0 -11 -4.5t-3 -11.5zM62 36q0 -7 4.5 -8.5t10.5 -1.5q7 0 10.5 2t3.5 9
q0 6 -5 9.5t-10 3.5q-2 0 -4.5 -1.5t-4.5 -3.5t-3.5 -4.5t-1.5 -4.5z" />
</svg>
