<?xml version="1.0" standalone="no"?>
<!DOCTYPE svg PUBLIC "-//W3C//DTD SVG 1.1//EN" "http://www.w3.org/Graphics/SVG/1.1/DTD/svg11.dtd" >
<svg xmlns="http://www.w3.org/2000/svg" xmlns:xlink="http://www.w3.org/1999/xlink" version="1.1" viewBox="-10 0 266 256">
   <path fill="currentColor"
d="M193 246q-1 4 0.5 4.5t2.5 0.5q5 0 7 -2.5t2 -6.5q0 -32 -2 -65.5t-2 -64.5q-1 -8 -1 -13v-11v-10.5t-1 -12.5t-3 -11.5t-5.5 -7t-9 -3.5t-12.5 -1q-2 0 -6.5 -0.5t-9.5 -0.5t-10 0.5t-7 0.5q0 -1 -2 -1.5t-2.5 -0.5t-1 -1l-0.5 -1v-18q0 -3 -2.5 -5t-4.5 -2t-4.5 0.5
t-2.5 2.5v21l-1 3q-3 0 -9 1t-13 1.5t-13.5 1t-8.5 1.5q-6 0 -9 3t-4 7t-1.5 9t-1.5 10q-1 16 -1.5 33.5t-1.5 33.5v9t-0.5 15t-0.5 14.5v8.5v25v25q0 3 1 5t4 2q4 0 5.5 -2t1.5 -6q0 -14 -1 -28t-1 -28v-8t0.5 -9.5t0.5 -8.5v-4v-7.5t1 -11.5t1.5 -11.5t0.5 -7.5v-14v-14
q0 -8 1 -14.5t3 -13.5q1 -2 4 -3.5t6 -2t6 -0.5h5q19 -3 38 -3h12h8t12.5 0.5t12 0.5h7.5q3 2 4.5 4.5t2 5t1 5.5t2.5 5v5t0.5 7t0.5 7.5v4.5v9.5v15.5v17v18v14.5v9.5q0 1 0.5 3.5t1 4.5t0.5 4.5v3.5v10.5v15.5v16.5v10.5zM118 132q7 21 14.5 44t11.5 45q0 1 0.5 3t0.5 4
t0.5 4.5l0.5 2.5q0 3 2 5.5t5 2.5h1q4 -2 4 -7v-1q-8 -22 -13.5 -46t-12.5 -46q-5 -5 -5 -12v-1l2 -1q3 -1 8 -1.5t10 -2t9.5 -4t6.5 -5.5q1 -5 1 -8.5t0.5 -6.5t0.5 -6.5v-7.5v-7v-8t-1.5 -7t-5.5 -5l-1 0.5t-2 1.5l-0.5 0.5l-0.5 0.5q0 2 0.5 5.5t0 7t-2 5.5t-5.5 3l-64 4
q-1 0 -2.5 1.5t-1.5 3.5t1 2.5t2 0.5q17 0 34 -2.5t34 -2.5q5 0 5 6q0 4 -1.5 10.5t-6.5 8.5q-16 5 -34.5 7.5t-35.5 5.5q-1 0 -3 1t-2 3v1q2 2 5.5 1.5t5.5 -0.5q8 0 15 -2.5t15 -2.5q2 0 2.5 0.5t2.5 1.5z" />
</svg>
