<?xml version="1.0" standalone="no"?>
<!DOCTYPE svg PUBLIC "-//W3C//DTD SVG 1.1//EN" "http://www.w3.org/Graphics/SVG/1.1/DTD/svg11.dtd" >
<svg xmlns="http://www.w3.org/2000/svg" xmlns:xlink="http://www.w3.org/1999/xlink" version="1.1" viewBox="-10 0 266 256">
   <path fill="currentColor"
d="M188 164v3q0 3 0.5 8.5l1 11t1 10t0.5 5.5q1 2 2 6t2.5 9.5t4 11.5t5 10.5t5 8t5.5 3.5l1.5 -1l1.5 -1v-1v-1q0 -1 -1.5 -4.5t-1.5 -4.5t-1.5 -3t-2.5 -4.5l-2 -5l-1 -2.5q-2 -6 -4 -14.5t-3 -18t-2 -18t-1 -14.5t1.5 -13t1.5 -14q1 -16 1.5 -32t0.5 -32v-5v-8v-7v-5
q-1 -6 -4 -12.5t-9 -8.5q-16 -2 -30.5 -3.5t-30.5 -1.5q-20 0 -32.5 1.5t-20.5 5t-12 10t-6 17.5t-2 25.5t-1 35.5q-1 11 -3 22t-2 22q-1 9 -1 18v16t-1.5 16t-4.5 16q-1 3 -4 6.5t-3 7.5v1l2 2h1q3 0 6.5 -5t6.5 -11.5t5 -12.5l3 -9v-3t0.5 -5.5t0.5 -5.5v-4v-19
q1 -20 2 -41t4 -41q1 -13 3 -23.5t8 -21.5l1 -1l1 -1q11 -5 22 -7t23 -2h21q9 0 16.5 0.5t13.5 2.5t10.5 7.5t6.5 15.5v4v5v5v4q0 2 0.5 5t0 7t-0.5 7t-2 6q0 4 -0.5 13.5t-1 20t-1 20t-0.5 13.5v3zM156 182q0 4 3.5 13t8 17.5t9.5 15.5t8 7q0 -8 -3 -15.5t-7 -14.5
t-7.5 -15t-3.5 -17q0 -8 1.5 -16.5t4.5 -15.5q2 -5 4.5 -10t2.5 -11q0 -1 -1 -2.5t-2 -3.5t-2 -3.5t-2 -1.5h-29v-15q7 0 12.5 -1.5t9.5 -4.5t6.5 -8t2.5 -13q0 -6 -3 -9.5t-7 -5t-9 -2.5t-8 -1h-2h-2t-2 0.5t-1 1.5q2 4 5.5 5t7.5 2.5t7.5 4.5t3.5 10q0 3 -1.5 5t-3.5 3.5
t-4.5 2.5t-5.5 1h-1.5h-2.5q-1 -4 -2 -6.5t-2.5 -4t-3.5 -3t-5 -1.5v0v2v1.5t0.5 3t0.5 3t1 1.5l-0.5 1.5t-0.5 2.5h-18q-2 0 -3.5 -1.5t-2.5 -3.5t-1.5 -4t-0.5 -3q0 -6 4 -8t8.5 -4.5t8.5 -6.5t4 -13v-9l-2 -1h-1q-1 0 -2 2t-1.5 4.5l-1 5l-0.5 2.5q-3 6 -7.5 7.5t-8.5 3
t-7 6t-3 14.5q0 6 2 9.5t5 5.5t7.5 2.5t8.5 0.5t7 -0.5t7 -0.5v6.5v7t-1.5 6t-5.5 3.5q-1 1 -4 2t-6 1.5t-6 1.5t-4 1h-2q-3 0 -4 -2t-2.5 -4t-2.5 -4t-4 -2v17q0 2 -2 3t-4 1.5t-4 2t-1 4.5h13l0.5 1.5t1.5 2.5v2q0 13 -4 24t-11 21q-2 2 -5 3.5t-5.5 3.5t-4.5 4t-2 5
q12 0 19.5 -7t12 -18t6 -24t2.5 -23q0 -1 2.5 -2t5.5 -2t5.5 -1.5t4.5 -0.5t3 1t1 3q0 6 -3.5 10t-7.5 8t-7 10t-2 15q0 10 5.5 15.5t13.5 5.5h4q1 0 3 -1.5t4 -2.5l4 -2t2 -2q2 -3 3 -8t1.5 -10.5l1 -11t0.5 -9.5h-4l-0.5 1.5t-1.5 3t-2 3.5t-1 3q-1 5 -1.5 9.5t-1.5 7.5
t-3.5 4.5t-7.5 1.5h-6q-3 -2 -4 -5.5t-1 -7.5q0 -3 2.5 -8t6 -11t8.5 -12t10.5 -11t10 -8t8.5 -3t4 3v7q0 7 -2 13t-3 13t-1.5 15t-0.5 15z" />
</svg>
