<?xml version="1.0" standalone="no"?>
<!DOCTYPE svg PUBLIC "-//W3C//DTD SVG 1.1//EN" "http://www.w3.org/Graphics/SVG/1.1/DTD/svg11.dtd" >
<svg xmlns="http://www.w3.org/2000/svg" xmlns:xlink="http://www.w3.org/1999/xlink" version="1.1" viewBox="-10 0 266 256">
   <path fill="currentColor"
d="M190 224v21q0 5 5 5h2q0 -1 2 -4.5t2 -4.5v-2v-1q0 -1 -0.5 -3.5t-0.5 -3.5v0v-1v-2t0.5 -3.5t0.5 -3.5v-2v-1v0v-2.5t-0.5 -4t-0.5 -4v-2.5v-2q0 -4 0.5 -8t0.5 -8q0 -5 -0.5 -9.5t-0.5 -8.5q0 -17 0.5 -33t0.5 -33v-19q-2 -8 -2 -14t-0.5 -11.5t-1.5 -10t-4 -7.5
t-10 -4.5t-18 -2.5h-27l-5 -1q0 -3 0.5 -7t-0.5 -8t-3.5 -7t-7.5 -3l-1.5 0.5t-1.5 1.5v22l-3 2l-2 0.5t-4.5 0.5t-5 0.5t-4.5 0.5q-11 1 -21 4t-20 10q-4 5 -5.5 12.5t-1.5 15.5t0.5 16t0.5 14q0 2 -0.5 9t-0.5 15t-0.5 15t-0.5 9v6v8t-0.5 14.5t-0.5 18v17.5t-0.5 14
t-0.5 8v1q0 2 1.5 4t3.5 2t3 -1t2 -2.5t2 -2.5t1 -2v-13.5v-20.5v-20.5v-13.5q1 -29 1.5 -58t5.5 -58q2 -6 8 -8.5t13.5 -3.5t15 -1t12.5 -2h42q6 2 10.5 3t8 2.5t6 4t4.5 9.5q0 2 0.5 6.5t0.5 10v10.5v6v15v23.5v26.5v27v23v15zM123 193q0 14 -1 27.5t-1 26.5h2.5h3.5
t2 -0.5t1 -1.5l2 -9v-55q0 -2 3 -3t7 -1.5t8 -0.5h6q3 0 6 1t3 5v53q0 2 1.5 2.5t3.5 0.5q3 0 4.5 -2t1.5 -6v-3q0 -3 -0.5 -10t-0.5 -15t-0.5 -14.5t-0.5 -9.5v-5q0 -2 -0.5 -6.5t-1.5 -9.5t-1.5 -10t-0.5 -6v-2v-2q0 -5 2.5 -7.5t2.5 -6.5t-1 -7t-2.5 -5t-4 -3.5
t-5.5 -3.5l-4.5 -3l-3 -2t-3.5 -1.5t-4 -0.5q-1 0 -2.5 0.5t-1.5 2.5t3 3t6.5 3t7 5.5t3.5 10.5q-4 0 -6 -1l-4 -2l-4 -2t-5 -1h-2.5t-1.5 2t2 3t4.5 2.5t5 4t2.5 5.5h-14q-2 0 -2 2.5v2.5h21l1.5 1.5t1.5 2.5q2 5 2 12.5v12.5q0 1 -0.5 2t-1.5 1h-14q-2 0 -2 -1v-2
q0 -4 2 -6.5t2 -6.5q0 -1 -1.5 -3.5t-3.5 -2.5v0q-3 2 -4 4.5t-2 6t-1.5 6.5t-1.5 5h-3q0 -5 -0.5 -9t-0.5 -7.5v-6.5v-8v-3v-4v-3.5v-1.5v-9.5t0.5 -10.5t0.5 -8.5v-4.5l2 -3h2t4.5 -0.5t5 -0.5h4.5h7h10.5t9 -1t3.5 -4q0 -2 -2.5 -2.5t-4.5 -0.5q-9 0 -18.5 0.5t-18.5 0.5
l-1.5 -2.5t-0.5 -2.5q1 -2 5.5 -3t9 -3t8.5 -5.5t4 -10.5q0 -3 -3 -3q-4 0 -6 2.5t-4.5 5.5l-5 6t-7.5 3h-26q-1 0 -1.5 -1t-2 -2t-2.5 -2.5t-2 -2.5t-2 -3t-2 -3.5t-2.5 -3t-3.5 -1.5t-2.5 1t-0.5 3q0 7 3 11t7.5 6.5t10 3.5t11.5 2q1 1 1.5 2t0.5 2t-0.5 2.5t-1.5 1.5h-38
q-3 0 -5 2t-2 4q0 4 4 4q11 0 22 -2t22 -2q0 20 -0.5 40t-2.5 39q-1 0 -2 0.5l-1 0.5q-1 0 -3.5 -0.5t-2.5 -1.5v-17l-1 -0.5t-1.5 -1t-2.5 -0.5h-2v20q0 1 -2 1.5t-3 0.5t-4.5 0.5t-4.5 0.5l-0.5 -2.5l-0.5 -2.5q0 -4 0.5 -6t0.5 -4.5t0.5 -5.5t0.5 -6q2 -3 5.5 -4.5
t7 -2.5t7 -1h6.5v-1q0 -1 -0.5 -2.5t-1.5 -1.5h-13q-1 0 -1.5 -1t-0.5 -2l0.5 -0.5l0.5 -0.5l11 -11v-5q-2 0 -5.5 2t-6.5 4.5t-5.5 4.5t-3.5 3h-1q-1 0 -1.5 -1t-0.5 -2q0 -6 4 -8.5t8.5 -4.5t8 -4t3.5 -6q-6 0 -12 1.5t-10.5 5t-7 8t-2.5 11.5q0 4 2.5 7t2.5 7t-0.5 6.5
t-2.5 5.5q-3 21 -4 43t-1 43q2 0 5 -0.5t5 -3.5q0 -2 -0.5 -7.5t-0.5 -11.5t0.5 -11.5t0.5 -8.5v-2v-4t0.5 -4.5l0.5 -2.5q0 -2 1.5 -3.5t3.5 -1.5h27l1 2l0.5 1.5t0.5 3.5v4v3zM108 189q-3 0 -4.5 4.5t-3 11.5t-2 13t-0.5 8q6 0 8.5 -3.5t3.5 -8t1 -10.5v-10v-0.5v-1.5
q0 -3 -3 -3zM140 189q0 2 0.5 7.5t2 12t3 11t4.5 4.5q2 0 3 -0.5t1 -2.5q0 -9 -3 -17.5t-3 -16.5l-3 -1.5t-2 -0.5q-2 0 -2.5 1t-0.5 3zM124 133q1 0 1 1q0 2 -1 2t-1 -2q0 -1 1 -1z" />
</svg>
