<?xml version="1.0" standalone="no"?>
<!DOCTYPE svg PUBLIC "-//W3C//DTD SVG 1.1//EN" "http://www.w3.org/Graphics/SVG/1.1/DTD/svg11.dtd" >
<svg xmlns="http://www.w3.org/2000/svg" xmlns:xlink="http://www.w3.org/1999/xlink" version="1.1" viewBox="-10 0 266 256">
   <path fill="currentColor"
d="M195 187v64q3 0 6 -0.5t3 -4.5v-4v-8v-7v-4q0 -43 -2.5 -85t-5.5 -85q0 -2 -0.5 -5t-1.5 -5.5t-3 -4.5t-5 -2q-2 0 -8 -0.5t-12.5 -1t-12.5 -1t-8 -0.5q-1 0 -3 -0.5t-4.5 -1t-5 -0.5t-2.5 -1q-1 0 -1.5 -1t-0.5 -2v-3v-4v-5v-3t-1.5 -2.5l-1.5 -1.5v-1h-1q-1 0 -4 2
t-3 3v21l-3.5 0.5t-5.5 1.5q-8 0 -17 0.5t-16.5 2.5t-12.5 7t-5 16q-1 4 -1.5 11t-1 14.5t-0.5 14v7.5q0 4 -0.5 12.5t-0.5 19.5v23v22t0.5 19.5t0.5 12.5q-2 4 -2 6.5v5.5v4.5v5t1 4.5t3 2h0.5h0.5q0 -1 2.5 -3.5l3.5 -3.5q0 -2 -0.5 -7t-0.5 -11v-13v-13q0 -6 0.5 -10.5
t0.5 -7.5v-3.5v-5.5t0.5 -5.5t0.5 -3.5q2 0 6 -0.5t9 -1t9.5 -1t5.5 -0.5h3h2v50q0 1 -0.5 4.5t-0.5 4.5v2v1q0 1 0.5 4t0.5 4h1h1q5 0 6 -6v-3v-5v-6v-3v-1t0.5 -2.5t0.5 -2.5v-2l-0.5 -2.5t-0.5 -3.5v-1q0 -2 -0.5 -3.5t-0.5 -3.5v-3q0 -6 0.5 -11t1.5 -11q1 0 2.5 -0.5
t3.5 -0.5t4 -0.5l2 -0.5q2 0 5 -1t3 -3q0 -3 -1.5 -3h-3.5q-12 0 -24.5 1.5t-25.5 1.5q-2 1 -2.5 1h-1.5h-1.5h-2.5q0 -12 -0.5 -23t-0.5 -22v-22t2 -22q0 -5 1.5 -9t5.5 -5q15 -3 28.5 -4.5t28.5 -1.5q12 0 24 1t24 0q4 3 6.5 13t4 24t2 30.5t1.5 31.5t1.5 27.5t1.5 18.5z
M167 236q2 1 3 1h2q3 0 4.5 -3t1.5 -6v-2q0 -3 -1 -11l-2 -16t-2 -15t-1 -9q-1 -7 -3 -12.5t-2 -12.5v-6q9 -7 11 -14.5t2 -18.5q0 -9 -1.5 -14.5t-5.5 -9t-10 -4.5t-16 -1h-2h-3t-2.5 0.5t-1.5 2.5q0 3 3 3.5t7 1t8.5 0.5t8 2t6.5 6t3 12q0 5 -2 10.5t-6 8.5
q-4 -2 -4.5 -4.5t-2 -4t-4 -2.5t-9.5 -1h-3.5h-3.5q-2 0 -2 1.5v2.5v2t2 2h13q2 0 3 1.5t2 4t1 5v3.5v3t-3 2q-1 1 -3 1.5t-5 1.5t-5 2t-3 1q-3 1 -3.5 1.5t-0.5 2.5t1 3t3 1q5 0 8.5 -2.5t7.5 -2.5q3 0 4.5 5.5t2 12t1 12.5t0.5 7l0.5 1t1 2.5t1 2.5l0.5 1v4v6v7v3v4
t0.5 5.5t0.5 5.5v4zM76 216q1 0 1.5 0.5l0.5 0.5v0h1q4 0 5.5 -3.5t2 -8.5t0.5 -10v-7v-13q0 -2 -1.5 -3.5t-3.5 -1.5q-4 0 -5 2t-1 5v4l1 2.5t1 3.5l-0.5 3t-0.5 6t-0.5 5.5t-0.5 3.5v6v5zM124 167h-1l-1.5 1l-1.5 1v46q4 0 7.5 -2t3.5 -6v-2t-0.5 -2.5t-0.5 -3v-2.5
t-0.5 -4t-0.5 -7t0.5 -7t0.5 -4q-1 -2 -2 -5t-4 -3zM124 127h-11t-15.5 0.5t-14 2.5t-6.5 7h25q3 -1 6.5 -1.5t7.5 -1t6 -2t2 -5.5zM78 100q0 6 2 9t5.5 5t8 2.5t9.5 0.5h10t10 -3l1 -2.5t2 -4.5t1.5 -4.5t0.5 -3.5q0 -2 -1 -4t-4 -2t-3.5 2.5t-1 5.5t-1.5 5.5t-4 2.5
q-5 0 -6 -3.5t-1 -6.5v-3t0.5 -4.5t1 -4t0.5 -2.5q2 -1 4.5 -2t5.5 -2t5 -2.5t2 -4.5v-18l-0.5 -0.5t-1.5 -0.5v-0.5v-0.5q-1 0 -1 0.5v0.5q-1 0 -2 1t-1 2v2t-0.5 4t-0.5 3.5t-1 2.5q0 2 -1 3t-2.5 1h-3.5h-4v-22q-2 0 -3.5 1t-1.5 3v20l-0.5 0.5t-1.5 0.5l-2 0.5t-3 0.5
q-5 0 -7 -3t-2.5 -6.5t-1 -6.5t-2.5 -3q-1 0 -2 0.5t-1 1.5v5q0 10 4.5 14t15.5 5l1 1l0.5 2t0.5 5t0.5 5.5t0.5 4.5v3q0 2 -1.5 3.5t-4.5 1.5q-4 0 -5.5 -2.5t-2.5 -5.5t-2 -5t-4 -2q-2 0 -2.5 1t-0.5 3z" />
</svg>
