<?xml version="1.0" standalone="no"?>
<!DOCTYPE svg PUBLIC "-//W3C//DTD SVG 1.1//EN" "http://www.w3.org/Graphics/SVG/1.1/DTD/svg11.dtd" >
<svg xmlns="http://www.w3.org/2000/svg" xmlns:xlink="http://www.w3.org/1999/xlink" version="1.1" viewBox="-10 0 266 256">
   <path fill="currentColor"
d="M41 246l2 2l3 3h1q3 0 6 -4t3 -8q0 -26 -2 -53.5t-2 -54.5v-8v-10t0.5 -8.5t0.5 -4.5q0 -2 0.5 -9t1 -15t0.5 -15t1 -9q1 -6 4 -10t7.5 -6t10 -2.5t10.5 -0.5l68 -2l26 3q2 0 3.5 1.5t2.5 3.5t1.5 4t0.5 4q1 1 1.5 4.5l1 7t1 6l0.5 2.5v9v12v12.5v7.5q1 3 1 5v3v3v5
t0.5 9.5t1 12.5t0.5 11.5v6.5q1 20 2.5 40.5t2.5 41.5q0 2 1.5 2h2.5q3 0 4.5 -1.5t2.5 -5.5v-2.5v-4.5q0 -2 0.5 -3.5t0.5 -2.5q0 -20 -3 -40t-4 -40q-1 -12 -1 -24.5t-0.5 -25t-1 -24.5t-2.5 -24q-1 -2 -1.5 -4.5t-1 -5.5t-1.5 -5l-1 -2l-5 -5q0 -1 -3 -1t-6.5 -0.5l-7 -1
t-6.5 -0.5h-4h-7h-7h-5l-1 -0.5t-2.5 -1t-2.5 -0.5h-1h-2t-2.5 0.5t-2.5 1l-1 0.5h-2q-4 0 -4.5 -3t-0.5 -6t-0.5 -6t-4.5 -3q-1 0 -3.5 0.5t-2.5 1.5v14h-1t-2.5 0.5t-3.5 1t-3 0.5q-20 1 -31 3t-17 7.5t-8 16t-2 28.5q0 3 -0.5 9l-1 12t-0.5 11v6l-0.5 1t-0.5 2.5t-0.5 3
l-0.5 1.5v1v0q0 1 0.5 3.5t0.5 6t0.5 6.5t0.5 4q0 3 -0.5 10.5t-0.5 16v16v10.5v5zM139 211v35q0 1 1 1.5t2 0.5q3 0 4 -2t1 -4q0 -7 -1 -13t-1 -12q0 -2 1 -4t4 -2q2 0 2.5 3t0.5 7q0 3 0.5 6t3.5 3q2 0 3 -1.5t1.5 -4t0 -5t-0.5 -4.5t-1.5 -4.5t-4 -4t-5.5 -2t-5 -1.5v0
q0 -3 1 -4t3 -1.5t4 -0.5h3h3.5h3.5l0.5 2t1.5 3v4t0.5 6t0.5 6v4h3l0.5 -1.5t0.5 -3t0.5 -3l0.5 -1.5q0 -1 1 -3l1 -2q0 -1 -0.5 -3.5t-2 -5.5t-3 -5.5t-2.5 -2.5h-19l-0.5 -2t-0.5 -3t1.5 -2t3.5 -1t3.5 -0.5t2.5 -1.5l3 -3t3.5 -4t3.5 -3.5t3 -1.5q1 -1 4.5 -0.5t4.5 0.5
v3t-0.5 4.5t-0.5 4.5v3t0.5 4.5t0.5 7.5t0.5 7.5t0.5 4.5t-0.5 4.5t-0.5 7.5t-0.5 7.5t-0.5 4.5v3q0 2 0.5 3.5t3.5 1.5q2 0 3 -2t2 -5t1 -5.5v-3.5q0 -17 -1 -34l-2 -34v-6.5t-1 -7.5t-3 -6.5t-6 -2.5h-31q1 -2 0.5 -2.5l-1 -1t-1.5 -0.5h-2h-3t-2 0.5t-2 1.5l-3 3
q-2 1 -6 2.5l-8 3t-7 3t-4 2.5q1 2 3 2h3q6 0 11 -2t11 -3q7 -2 12.5 -2h12.5h2h4h4h2q6 2 7.5 6.5t1.5 9.5q0 3 -1 4.5t-4 1.5q-5 0 -7 -2t-3.5 -4.5t-6 -4.5t-14.5 -2h-5q-2 0 -5 0.5t-6 1.5t-4 3l2 2h28q2 0 2.5 1.5t0.5 3.5v0.5v0.5l-46 3q-1 0 -1.5 2.5t-0.5 3.5
q12 0 22.5 -1t21.5 -1h3t2 2q0 3 -1.5 4.5t-4.5 2.5t-5.5 1t-4.5 1h-4h-6h-7h-4l-0.5 0.5t-1.5 0.5v1v1q2 2 4.5 2.5t5.5 0.5t6 -0.5l3 -0.5q0 1 1.5 3t1.5 3q-1 0 -3.5 0.5t-3.5 0.5q-6 1 -10.5 2.5t-7.5 4.5t-4.5 7.5t-1.5 11.5v0.5v0.5l1.5 1.5l1.5 1.5h1h1l0.5 -0.5
l0.5 -0.5q1 -2 2 -5t1.5 -5.5l1 -5t0.5 -3.5q2 -2 4 -3t4 -1q3 0 5.5 0.5t4.5 0.5q0 1 1 3t1 3q-1 1 -3.5 1.5t-4.5 1.5t-4 2.5t-2 3.5v18h3.5t2.5 -2q-1 -5 0.5 -10.5t7.5 -8.5zM88 233q0 4 3 4t4.5 -2t2.5 -4.5t1.5 -5t0.5 -4.5q0 -32 -2.5 -63.5t-1.5 -63.5l-0.5 -2
t-0.5 -3v-1q0 -6 1 -12.5t1 -12.5v-4q0 -2 -0.5 -4.5t-0.5 -4.5v-3l-3 -2h-1q-2 0 -3 3t-1 7t0.5 8.5t0 8.5t-2 7t-5.5 3t-5 -3t-1.5 -7t-1.5 -7t-6 -3q0 5 1 9.5t1 9.5q0 9 -3 18.5t-3 18.5q5 0 6.5 -2.5t2.5 -6t1 -7.5t0.5 -7.5t1.5 -6t4 -2.5l2.5 0.5t3.5 1.5q1 0 2 0.5
l1 0.5v45q2 3 2 6v7q0 5 -1 8t-7 3q-5 0 -7 -4t-2.5 -8.5t-1 -8t-4.5 -3.5q-1 0 -2 0.5t-1 2.5q0 8 -0.5 15.5t-1 14t-1 13.5t-0.5 14q0 3 3 3q2 0 3.5 -1.5t2 -3.5t0.5 -4v-4q0 -1 0.5 -3.5l1 -5l1 -5t1.5 -3.5q0 -1 2 -2t3 -1h1.5h3t3 0.5t2 0.5t1 1l0.5 1v58q0 1 -1 3.5
t-1 3.5v1zM109 105q0 5 2 8.5t6 5t8.5 2t9.5 0.5h13.5t15 -1.5t12.5 -6t5 -12.5q0 -2 -1.5 -3.5t-3.5 -2.5t-4.5 -1.5t-3.5 -0.5t-3.5 -0.5t-5.5 -1t-5.5 -0.5h-3.5t-1.5 -0.5t-0.5 -1.5q0 -5 1.5 -7.5t4.5 -3.5t6.5 -1h7.5q1 0 3.5 -0.5t4.5 -0.5t3.5 -0.5l1.5 -0.5v-6h-26
q0 -2 0.5 -3.5t0.5 -3.5v-1l-0.5 -1l-0.5 -1h-0.5h-0.5q-1 0 -2.5 1.5t-2.5 3t-1.5 3t-1.5 2.5q0 1 -0.5 4t-1.5 7t-1.5 7t-0.5 4h-0.5h-0.5q-2 0 -3 -4.5t-2 -10.5t-2 -10.5t-4 -4.5q-2 0 -3 1.5t-1 3v3.5q0 1 -1 1q-1 2 -4 2h-6t-5 0.5t-2 3.5q0 2 2.5 2h6h7t5.5 2
q0 1 0.5 4.5t1.5 4.5v2q0 3 -3.5 3.5t-7.5 1t-7.5 2.5t-3.5 7zM117 106q0 -3 2 -4.5t5 -1.5q2 0 3.5 2t2.5 4t1 5v4q-5 0 -9.5 -1.5t-4.5 -7.5zM135 101q0 -2 2 -2h3q5 0 6.5 3.5t1.5 8.5q0 2 -2 2h-4q-5 0 -6 -3t-1 -9zM153 102q0 -2 0.5 -3.5t2.5 -1.5q6 0 9.5 0.5
t3.5 6.5q0 4 -1.5 6t-5.5 2q-5 0 -7 -3t-2 -7zM106 52l1.5 1t1.5 2q1 0 3 -0.5t2 -1.5q2 0 7.5 -0.5t12 -1t12 -1t7.5 -0.5h3h5h5h3q3 0 4 -0.5t1 -2.5q0 -3 -2.5 -3.5t-4.5 -0.5h-4q-6 1 -15 1.5t-17.5 1.5t-15 1.5l-6.5 0.5z" />
</svg>
