<?xml version="1.0" standalone="no"?>
<!DOCTYPE svg PUBLIC "-//W3C//DTD SVG 1.1//EN" "http://www.w3.org/Graphics/SVG/1.1/DTD/svg11.dtd" >
<svg xmlns="http://www.w3.org/2000/svg" xmlns:xlink="http://www.w3.org/1999/xlink" version="1.1" viewBox="-10 0 266 256">
   <path fill="currentColor"
d="M118 163q1 12 3.5 24t7.5 23t12 20.5t18 15.5q3 2 5 3.5t6 1.5q2 0 4.5 -1t2.5 -4q0 -2 -5.5 -5t-12 -7.5t-12 -9.5t-5.5 -12l1.5 -3.5t4 -8t4.5 -9t3 -6.5q0 -1 0.5 -4t1.5 -6.5l2 -7t2 -4.5h2q3 0 6 4.5t5.5 11t4.5 14.5t4.5 14.5t5 11t5.5 4.5q2 0 4 -3t2 -5v0v0
q-1 -2 -2 -5l-1 -3q-1 -2 -3 -6.5t-4.5 -9.5t-5 -10.5t-4.5 -10.5t-3.5 -8t-2.5 -3q-3 -3 -5.5 -4t-5.5 -1q-5 0 -8 3.5t-5 9t-3 12t-2.5 12t-3.5 9.5t-6 4v0q-5 -10 -6 -19t-2 -20l-2 -4t-2.5 -4t-3 -3.5t-4.5 -1.5q-5 0 -9.5 4.5t-7.5 11.5t-5.5 15.5t-4 16.5t-2 15
t-0.5 11q0 1 0.5 3t1.5 2q2 0 3.5 -1.5t2 -4t1 -4.5t0.5 -3t0.5 -3.5t1 -5.5t0.5 -5v-3q2 -2 3.5 -9l3 -14t4 -12.5t6.5 -5.5q2 0 3.5 0.5t0.5 2.5zM56 241q0 1 1 2t2 1v0.5t1 0.5q2 0 3.5 -3.5t2.5 -7.5t1.5 -7.5l0.5 -3.5q0 -3 0.5 -9.5t1 -14l1 -15t0.5 -10.5v-9
q1 -26 4 -51.5t5 -51.5q1 -4 8.5 -5.5t19 -2.5t25 -1.5t25 -1.5t19.5 -2.5t9 -3.5t2 -5.5t1 -4.5v-1q0 -1 -0.5 -3t-1.5 -5t-2 -4.5t-3 -1.5h-93l-10 1l-0.5 1.5t-1.5 3.5v1v0q0 1 0.5 1.5t1.5 0.5h25q1 0 3 -1l2 -1h1q2 0 3.5 1t3.5 1h3t3 -2h51q2 0 2.5 1t0.5 2.5v2.5v2
q0 5 -4 7t-10 2.5t-11.5 0t-8.5 0.5q-16 0 -31 1t-30 3q-1 0 -2.5 1t-2.5 1t-3 2.5t-3 3.5q-2 18 -4.5 34.5t-1.5 34.5l-8 101q1 4 0 7.5t-1 6.5zM83 141q0 2 3 2h3h2.5h2.5q2 0 7.5 -1t11.5 -1.5t11.5 -1t7.5 -1.5q1 0 1 -1v-2v-2t-1 -1h-20q-1 0 -1.5 -2t-0.5 -3v-1
q1 -1 2 -3t2 -2l13 -3l1 -0.5l1 -0.5v-1q0 -3 -2.5 -3h-3.5h-8t-13 0.5t-12.5 1.5t-6.5 4q1 3 2 3.5t3 0.5t4.5 -1t5.5 -1t4 2.5t1 5.5q0 4 -3 5.5t-7 2t-7 1t-3 3.5zM162 123q0 6 -3 7t-7 1t-7.5 1t-3.5 5h13.5t19.5 -1t17.5 -3t7.5 -5v0q-1 -2 -2 -2h-23v-11l1.5 -0.5
t1.5 -1.5h14q3 -2 3 -5q0 -2 -3 -2h-4h-4.5t-8.5 0.5t-11 1t-11 1.5t-8 2.5t-3 2.5q0 3 2 3.5t4 0.5t4 -1t5 -1t4.5 2t1.5 5zM83 95q1 1 3 2t3 1h32q2 -1 5 -1.5t5.5 -1t4.5 -1.5t2 -4t-3 -3h-2l-2 0.5l-4 1t-3.5 1t-2.5 0.5h-1q-2 0 -5 -1t-3 -4q0 -5 3.5 -7.5t7.5 -3
t7 -1.5t3 -4q0 -2 -2 -2.5t-3 -0.5q-10 0 -19.5 2.5t-19.5 2.5q-1 1 -1 1.5v1.5v2t1 1h14q2 0 2.5 2t0.5 4q0 1 -0.5 4t-1.5 3h-16zM145 94q0 1 2.5 2.5t3.5 1.5t3.5 -0.5l5 -1l5 -1t3.5 -0.5q2 -1 6 -1t8.5 -0.5t9 -0.5h5.5l0.5 -1.5t1.5 -1.5v-1q0 -3 -4 -3.5t-8 -0.5
t-7.5 -1t-3.5 -5t2 -4.5t5 -0.5t5.5 -0.5t2.5 -4.5v-3t-3 -1l-40 3q-6 0 -6 7h22q1 0 1 2.5v3.5v3.5t-3 2.5l-14 3l-1 1.5t-2 1.5v1z" />
</svg>
