<?xml version="1.0" standalone="no"?>
<!DOCTYPE svg PUBLIC "-//W3C//DTD SVG 1.1//EN" "http://www.w3.org/Graphics/SVG/1.1/DTD/svg11.dtd" >
<svg xmlns="http://www.w3.org/2000/svg" xmlns:xlink="http://www.w3.org/1999/xlink" version="1.1" viewBox="-10 0 266 256">
   <path fill="currentColor"
d="M60 217q0 3 0.5 8.5t1.5 11t3.5 9.5t6.5 4h57q4 0 7 -4.5t3 -8.5v-27l-1 -0.5t-1 -1.5q-1 0 -2 -0.5l-1 -0.5q-1 0 -2 0.5t-2 0.5q1 2 1 5v6q0 4 -0.5 7t-1.5 5h-2q-2 0 -3.5 -0.5t-3.5 -2.5l-3.5 -3.5l-5 -5t-5 -4.5t-3.5 -3v-3v-4.5t-0.5 -4.5t-0.5 -3q0 -2 -1 -2.5
t-2 -0.5h-2t-2 2q0 1 0.5 3.5t0 5t-0.5 4.5t-1 4l-3 3l-4.5 4.5t-5 4.5t-3.5 3t-5 1q-3 0 -3.5 -2.5t-0.5 -6t-0.5 -6.5t-4.5 -3q-3 0 -3.5 2t-0.5 4zM67 136q1 6 6 8.5t11.5 3.5t14.5 1t15.5 1t14 4t10.5 9q1 2 3.5 6t5.5 9t5.5 9.5t3.5 6.5q2 3 5 12t6 17.5t6 15.5t6 7
t5 -2.5t2 -5.5t-2.5 -10t-7 -16t-10 -19.5t-11 -19.5t-10 -15.5t-7.5 -8.5q-1 0 -2.5 -0.5l-3 -1l-3 -1l-1.5 -0.5q-1 0 -2 -1t-2 -1q-2 0 -6.5 -0.5t-10 -1.5t-10 -1.5t-6.5 -1.5q-6 -1 -10.5 -3.5t-4.5 -9.5v-3t3 -1q1 -1 4.5 -1t7 -0.5t7 -0.5h4.5h8t9.5 0.5t8 0.5t3.5 1
l7 3l2.5 2.5l5.5 5.5t6.5 6t5.5 5q1 1 3.5 4.5l2.5 3.5q1 1 2 3.5t2.5 5l3 5l1.5 2.5q1 2 3 6.5t4.5 9.5t4.5 8.5t4 3.5q3 0 4.5 -2.5t1.5 -4.5q0 -8 -4.5 -16.5t-11 -16.5t-14 -15t-12.5 -13l-4.5 -4.5l-5 -5t-5.5 -4.5t-7 -2h-52q-1 0 -2 -1.5t-1.5 -3l-1 -3l-0.5 -1.5
q0 -1 1 -2t1 -2q3 -1 7.5 -1.5t9 -0.5h8.5h7q2 0 5 0.5t7 0.5h6.5h4.5q10 2 14.5 3t6.5 3t4 5t8 8q3 2 7 7.5t8 11.5t7.5 10.5t5.5 4.5q3 0 3.5 -2.5t0.5 -5.5q0 -7 -4 -13t-9 -11q-11 -13 -23 -19t-24.5 -8.5t-27 -2.5t-31.5 1q-1 -1 -1 -3.5v-2.5q0 -16 1.5 -30.5
t1.5 -29.5v-4v-4q-1 -4 -5 -4q-2 0 -3.5 2.5t-2 5.5t-1 6.5t-0.5 5.5q0 3 1 6t1 6v1q-2 16 -3.5 31.5t-1.5 31.5v1l0.5 1t0.5 2t0.5 2l0.5 1v21zM78 240q0 -2 2.5 -5t5.5 -6t6.5 -5.5t5.5 -2.5h1h1q5 4 10 8.5t5 10.5v2q-6 1 -9.5 1.5t-8.5 0.5h-5h-6t-5.5 -1t-2.5 -3z
M72 199q0 1 1 1.5t2 0.5q2 0 3.5 -2.5t2.5 -6t2 -8t3.5 -8t5.5 -6t8 -2.5q4 0 6 2.5t2.5 6t0.5 8t0.5 8t1.5 6t4 2.5q2 0 3.5 -1.5t1.5 -3.5q0 -6 -2.5 -11.5t-2.5 -11.5q0 -3 2.5 -4.5t4.5 -2t4.5 -1t2.5 -3.5l-1 -1l-1 -1h-14h-14t-10.5 2t-7.5 6t-6 12l-2 6t-1 7v3v3z
M90 72q0 1 2 3.5t3 2.5l15 4h44l1 -1.5t1 -2.5q-1 0 -2 -1.5t-2 -1.5h-47q-1 0 -4 -2t-3 -3t0.5 -1h0.5l1 -2.5t2 -2.5h40q5 0 8 -3.5t4 -9t1.5 -10.5t0.5 -8q0 -4 -2 -7.5t-7 -4.5h-4h-7h-7h-4h-6h-8h-6h-3h-2h-4t-3.5 0.5t-2.5 2.5v1v0q1 1 2 2.5t2 1.5h40q6 0 9 4.5
t3 9.5q0 1 -0.5 3.5t-0.5 3.5q-2 4 -5.5 5t-7.5 1q-2 0 -7.5 0.5t-11 0.5h-11h-7.5q-2 3 -3.5 7t-1.5 8zM87 44q0 1 1 2t2.5 1.5t3 0.5h1.5h39l3 -3l-3 -3h-45q-1 0 -1.5 0.5l-0.5 0.5v1z" />
</svg>
