<?xml version="1.0" standalone="no"?>
<!DOCTYPE svg PUBLIC "-//W3C//DTD SVG 1.1//EN" "http://www.w3.org/Graphics/SVG/1.1/DTD/svg11.dtd" >
<svg xmlns="http://www.w3.org/2000/svg" xmlns:xlink="http://www.w3.org/1999/xlink" version="1.1" viewBox="-10 0 266 256">
   <path fill="currentColor"
d="M87 241q0 2 0.5 3.5t1 3.5t2 2.5t3.5 -0.5l1.5 -1.5t2.5 -3.5l0.5 -1.5t1.5 -1.5v-3.5t0.5 -5t0.5 -5v-3.5q1 -20 1 -40v-41q0 -21 0.5 -41.5t2.5 -40.5q0 -1 1.5 -2t1.5 -2h1q3 0 6 2t5 4q1 13 1.5 26t0.5 26q0 12 -2 24t-2 23q0 3 1.5 5t4.5 2q1 0 2.5 -1.5t2.5 -3.5
t1.5 -4t0.5 -3v-98q0 -4 -4 -6t-8 -3t-7.5 -2t-3.5 -3v-28q0 -2 -1.5 -4t-3.5 -2q-2 1 -4.5 4.5t-2.5 6.5v25q-14 5 -21 10t-10.5 11.5t-4 14t-0.5 15.5q0 9 -0.5 18.5t-4.5 20.5v37q0 3 2 3.5t3 0.5q3 0 5.5 -1.5t2.5 -4.5v-3v-2.5t-0.5 -4.5t-0.5 -4v-3q0 -9 1 -18.5
t2 -19.5t2 -19.5t1 -17.5l2 -6t3 -6.5t4 -6t6 -2.5q8 0 8 9q0 36 -2 72.5t-3 73.5q0 7 -2 13.5t-2 12.5zM153 74v168q0 2 1.5 3.5t3.5 1.5q5 0 6 -3.5t1 -7.5q0 -29 -1.5 -57.5t-1.5 -57.5v-40q0 -6 1 -11.5t3.5 -10t6.5 -7t11 -2.5h2t1 2q3 16 2.5 32.5t1.5 32.5q0 2 0.5 8
t1.5 13t1 13t1 9q2 3 2 10.5t0.5 15t2 13t7.5 5.5q2 0 3.5 -1.5t1.5 -4.5v-2q-3 -16 -5 -29.5t-4 -30.5q-2 -3 -2.5 -7.5t-0.5 -9.5v-10v-8v-25v-26q1 -2 3 -3t4.5 -2t4.5 -2t2 -3q0 -4 -2.5 -4h-4.5h-3h-3q-2 1 -7 2.5t-11 3t-11 3t-7 1.5q-4 2 -6.5 5t-3 7t-1 8.5
t-1.5 7.5z" />
</svg>
