<?xml version="1.0" standalone="no"?>
<!DOCTYPE svg PUBLIC "-//W3C//DTD SVG 1.1//EN" "http://www.w3.org/Graphics/SVG/1.1/DTD/svg11.dtd" >
<svg xmlns="http://www.w3.org/2000/svg" xmlns:xlink="http://www.w3.org/1999/xlink" version="1.1" viewBox="-10 0 266 256">
   <path fill="currentColor"
d="M178 249q1 1 2.5 1h3.5q3 0 4 -1t3 -5q-1 -21 -0.5 -42t3.5 -42q2 -3 5.5 -5.5t6.5 -5t5 -6t2 -9.5q0 -4 -1.5 -7.5t-4 -5.5t-5.5 -3.5t-5.5 -2.5t-4 -3t-1.5 -4q0 -9 1.5 -12t3.5 -3.5t5 -0.5t6 -5q1 -2 1.5 -3.5t1 -3.5t0.5 -4t1 -4v-1q0 -1 -0.5 -3t-1.5 -4t-1.5 -3.5
t-0.5 -2.5q-1 -2 -3.5 -3.5t-5 -3.5t-4.5 -3l-2 -1v-31l-1 -1l-2 -2h-0.5h-0.5v0h-1l-1 0.5t-2 1.5l-1 0.5l-1 0.5v33l-3.5 1.5t-7.5 4.5t-7.5 8t-3.5 13q0 9 4.5 14t13.5 7q2 2 2 5v6l-0.5 3.5l-0.5 3.5q-4 3 -8 4.5t-6.5 3t-4.5 5t-2 11.5q0 5 2.5 8t5 5t6 4t6.5 6
q0 6 0.5 10.5t1 8.5t0.5 9v10q0 9 -1 17.5t-1 18.5v13zM104 244q0 2 0.5 3.5t3.5 1.5q5 0 7.5 -2.5t4.5 -6.5t3 -8t2 -7q1 -1 3 -6.5t4.5 -12t4.5 -12.5t3 -7q3 -9 6 -20.5t3 -20.5v-3q0 -1 -0.5 -3.5t-0.5 -5t-0.5 -4.5l-0.5 -2q0 -3 -3.5 -6.5t-8 -7t-7.5 -8t-3 -9.5
q0 -6 3 -9t7.5 -5.5t9.5 -5t7 -5.5q2 -2 2.5 -4t0.5 -4.5v-5v-3.5t0.5 -5.5t0.5 -9.5t0.5 -9.5t0.5 -6.5v-4q0 -3 -1 -5.5t-5 -2.5v0q-1 0 -3 2l-2 2v22l-3 3q-2 0 -6 -0.5t-8.5 0l-9 1t-7.5 1.5v0.5v1.5t0.5 2.5t2.5 1.5h31l0.5 1.5t0.5 2.5v1q0 8 -4.5 13t-9.5 8.5t-9.5 7
t-4.5 7.5v19q3 4 6.5 7.5t6.5 7.5t5.5 8t2.5 9q0 11 -3 22t-7 22t-9 21.5t-9 20.5q-1 4 -4.5 8t-3.5 9zM66 233q0 3 2 4t5 1h3q0 -1 1.5 -3t1.5 -3v-6t0.5 -9t0.5 -9v-6v-8t-0.5 -14.5t-0.5 -14v-8.5v-6v-13v-15v-12v-10v-14v-13.5v-9.5q0 -2 0.5 -5t3.5 -3t5.5 1t3.5 4
l3 28l1 3v81q-1 5 -1.5 8t-0.5 8v3t1 2q0 2 1 2h2q2 0 4 -2t2 -4v-9v-13v-13v-9q0 -10 0.5 -22t0.5 -24t-1.5 -24t-5.5 -23q-1 -1 -4 -2.5t-5.5 -2.5t-4.5 -1.5l-2 -0.5v-30h-11v28l-2 1t-3 2q-7 3 -9.5 4t-4 2.5t-2 4.5t-3.5 9q-1 2 -1 6.5t-0.5 10t-1 10t-0.5 6.5
q-1 4 -0.5 8t0.5 7.5t-0.5 7t-1.5 6.5v70l0.5 0.5l1.5 1.5v0h1v0v0q2 -1 4 -3.5t3 -3.5v-1v-2v-3v-1q0 -15 -0.5 -29.5t0 -29t1.5 -29t3 -29.5q1 -1 1.5 -3.5t1.5 -4.5t3 -4t4 -2q1 0 2 0.5t1 1.5v52q0 31 -1.5 61.5t-1.5 61.5zM168 139q0 -8 6.5 -13t14.5 -5q13 0 13 13
q0 8 -4.5 14t-13.5 6q-2 0 -5 -1.5t-5.5 -3.5t-4 -5t-1.5 -5zM186 56q9 0 11.5 4.5t2.5 12.5q0 16 -18 16q-2 0 -4 -0.5t-4 -1.5t-3 -2t-1 -4v-15q0 -2 2 -4t4.5 -3.5t5.5 -2t4 -0.5z" />
</svg>
