<?xml version="1.0" standalone="no"?>
<!DOCTYPE svg PUBLIC "-//W3C//DTD SVG 1.1//EN" "http://www.w3.org/Graphics/SVG/1.1/DTD/svg11.dtd" >
<svg xmlns="http://www.w3.org/2000/svg" xmlns:xlink="http://www.w3.org/1999/xlink" version="1.1" viewBox="-10 0 266 256">
   <path fill="currentColor"
d="M65 132v47q0 19 -2 36.5t-2 36.5q8 0 12 -5t4 -12v-1v-1l-0.5 -1.5t-0.5 -3t-0.5 -2.5l-0.5 -1q0 -1 0.5 -3t0.5 -4t0.5 -4l0.5 -2v-3q0 -11 -1 -22t-1 -22v-56q0 -29 3 -57q1 -2 2 -3.5t3 -1.5q4 0 5.5 3t2.5 7t1.5 8t0.5 7v99l-1.5 4.5t-0.5 4.5q0 1 0.5 3t0.5 3.5t1 3
t4 1.5q1 0 1.5 -0.5l1.5 -1.5q2 -17 1.5 -36.5t-0.5 -35.5v-45q0 -2 -0.5 -5t-1.5 -7t-1.5 -7t-0.5 -4q-1 -1 -1.5 -3l-0.5 -2l-13 -7q-2 -1 -2 -5v-9q0 -4 -1 -8t-5 -4q-7 0 -7 8v0q0 1 0.5 3t1 4.5l1 5l0.5 2.5v1q0 1 -2.5 2.5t-6.5 4t-7.5 5.5t-4.5 7q0 1 -0.5 3l-1 4
t-1 3.5t-0.5 2.5l-8 99v18q0 1 1 1.5t2 0.5q3 0 4.5 -2.5t2.5 -4.5q0 -3 0.5 -10t1 -14.5t0.5 -14.5t1 -10v-11t0.5 -17t1.5 -19t2.5 -18t4 -13t6.5 -5l1 0.5t2 1.5v8q0 18 -1 35t-1 35zM132 171h2.5t1.5 1v77l0.5 0.5t0.5 1.5h1q1 0 2 -1.5l2 -3t1.5 -2.5l0.5 -1
q-2 -12 -2 -21.5v-20.5v-22v-1.5t0.5 -3.5t1.5 -3.5t2 -1.5q3 0 4 2.5t1.5 5t0.5 4.5v3v59q2 0 4 -1.5t2 -3.5v-66q0 -2 -2 -4t-4 -3.5t-4.5 -3t-2.5 -3.5v-13q0 -2 4 -2.5t9 -1.5t10 -1h6h8q1 1 1 3v4q0 6 -2.5 10l-5 8t-5 8.5t-2.5 10.5v55l0.5 1t1.5 1h1h1l0.5 -0.5
t0.5 -1.5q0 -3 0.5 -10.5t0.5 -16t0.5 -16t0.5 -11.5v-3t0.5 -4.5t2 -4.5t3.5 -2t3 3t1 5q0 12 -1 24.5t-1 24.5v5v6v5v2l3 3q2 -1 3.5 -3t1.5 -4v-1v-9t-0.5 -15t-1 -15t-0.5 -8v-1v-1q1 -3 1 -8t0.5 -9l0.5 -4l2 -2l5 5l0.5 3.5t1 8.5t1 9.5t0.5 7.5v7v11v10v7q0 1 1.5 3
t3.5 2q1 0 2 -2.5l1 -2.5v-3v-4v-4v-2v-9v-8t-0.5 -8.5t-1.5 -9.5v-5.5t-0.5 -7t-1.5 -6.5t-2 -5q-1 -1 -3.5 -2t-4.5 -2.5t-4 -3.5t-2 -4q0 -3 0.5 -6.5t2 -6.5t3.5 -5.5t6 -2.5q3 0 5 2.5t3.5 5l3 5t4.5 2.5t3.5 -1.5t0.5 -3.5v-1.5v-1.5l-4.5 -4.5l-5 -5t-4 -5.5t-1.5 -6
v-2t0.5 -2.5t0.5 -3v-2.5q1 0 1.5 -1.5t1 -3.5t1 -3t0.5 -2q0 -3 -2.5 -5t-6 -3.5l-7 -3t-4.5 -2.5v-6q0 -4 1.5 -6.5t4 -4l5 -3t4.5 -4t3.5 -7t1.5 -11.5v-4.5v-4.5l-1.5 -1.5t-2.5 -0.5t-3 3.5t-2 8t-1.5 9.5t-2.5 7h-1h-1q-1 0 -1.5 -0.5l-0.5 -0.5v-31q0 -2 -1.5 -3
t-2.5 -1.5t-2.5 -0.5h-2.5q-4 0 -8.5 0.5t-6.5 4.5q1 3 3 3h6t5 2t2 9v3.5v5.5t-0.5 5.5t-0.5 3.5q-1 2 -1.5 2h-1.5q-4 0 -5.5 -3t-2 -7t-0.5 -7v-5q-3 0 -3.5 1.5t-0.5 3.5v4v3t0.5 4.5t1 4.5l0.5 2q0 2 1 3t2 1.5t3 1t4 1.5l1.5 1.5l1.5 1.5v13l-2 1t-3 1q-3 0 -7.5 0.5
t-9 0.5h-8h-3.5l-5 -1v-16q0 -1 1.5 -2t2.5 -2q0 -1 1 0q5 -6 6.5 -14.5t1.5 -17.5q0 -4 -3 -4q-1 0 -2 0.5t-1 1.5t-0.5 4t-0.5 6.5t-0.5 6.5t-0.5 4q0 2 -1.5 4.5l-1.5 2.5h-2l-0.5 -1.5t-1 -3.5t-0.5 -4v-3q0 -3 1 -7t1 -8v-3t-1 -4.5t-2 -3.5t-3 -1h-23q0 3 2 4.5t4.5 2
t5.5 0.5t6 1q3 4 3 9.5v11.5q0 2 -0.5 5t-3.5 3h-2.5t-2.5 -1v-18l-4 -4l-3 4l-0.5 1.5t-0.5 2.5q0 6 1 10t3 10q0 2 2 2.5l4 1t3.5 1.5t1.5 3v13q0 2 -1.5 2.5l-3 1l-3 1t-2.5 0.5l-1.5 0.5t-3.5 0.5t-3.5 0.5t-2.5 0.5v0v1t2 2.5t4 1.5t4.5 -1t4.5 -1h4t2 3v12l-1 1
q-1 0 -3 0.5t-5.5 1t-4.5 0.5q-3 0 -6 1.5t-3 4.5h22q2 0 2.5 1.5t0.5 3.5q0 5 -2 7.5t-5.5 3.5t-7.5 1.5t-8 0.5q0 1 -1 1.5l-1 0.5v0v1v0q0 1 1 1.5l1 0.5h18l3 4l0.5 2t0.5 3q0 5 -2.5 7l-5 4t-5.5 4t-4 5q-2 16 -2.5 31.5t-0.5 31.5v2.5v1.5l3 4q1 -1 2 -2.5t1 -2.5
l3 -60q1 -3 2 -5t3 -2zM145 129v-2q0 -2 0.5 -4t1.5 -3t4 -1q1 0 4.5 -0.5t7 -0.5t7 -0.5t5.5 -0.5h3q3 0 4 3t1 6q0 5 -4 7t-9.5 2.5t-11 0t-8.5 -0.5q-4 0 -4.5 -1t-0.5 -5zM194 120v0l1.5 1.5l0.5 0.5v0v1v0q-2 4 -5 4v-1v-2.5t0.5 -2.5t2.5 -1zM145 102v-3t2 -3t6 -0.5
t8 -0.5t8 -0.5t6 -0.5h1.5h1.5q4 0 4.5 1.5t0.5 5.5v3v3t-1 3.5t-2 1.5h-28q-5 0 -6 -3t-1 -7zM191 98h8l0.5 1l1 2t1.5 2.5t1 2.5t-2.5 3.5t-3.5 2.5q-3 0 -4 -1.5t-1.5 -4t-0.5 -4.5v-4z" />
</svg>
