<?xml version="1.0" standalone="no"?>
<!DOCTYPE svg PUBLIC "-//W3C//DTD SVG 1.1//EN" "http://www.w3.org/Graphics/SVG/1.1/DTD/svg11.dtd" >
<svg xmlns="http://www.w3.org/2000/svg" xmlns:xlink="http://www.w3.org/1999/xlink" version="1.1" viewBox="-10 0 266 256">
   <path fill="currentColor"
d="M79 175q0 18 -1 36.5t-1 37.5q11 0 11 -11v-57q0 -1 0.5 -4t0.5 -7t0.5 -7t0.5 -4q0 -2 1.5 -2h2.5q2 0 3.5 2.5t2 6l1 7t0.5 5.5v2v3.5v4.5v4q0 9 -1 18t-1 18q0 3 2 5t4 2q3 0 5 -4t2 -6v-36q-3 -6 -2.5 -13.5t-0.5 -13.5q-2 -7 -5 -10t-6 -4t-5.5 -1t-2.5 -1l-2 -18
q0 -1 2.5 -2t6 -2.5t6 -4t2.5 -7.5q0 -4 -1.5 -7.5t-1.5 -8.5q0 -4 3.5 -7t7 -4.5t6.5 -3t3 -3.5v-2.5t-1 -1.5h-16q-1 0 -1 -2.5v-3.5q0 -5 1.5 -10.5t1.5 -10.5q0 -2 -1 -3.5t-1 -3.5l0.5 -1.5t1.5 -1.5l14 -3v-1v-2v-2q0 -3 -2 -3h-4h-4q-9 0 -17.5 0.5t-17.5 0.5h-5v-2
t-1 -3.5t-2 -2.5t-3 -1q-4 1 -4.5 2.5t-0.5 4.5l0.5 2l0.5 2q0 1 0.5 3.5l0.5 2.5v2t-0.5 2t-0.5 2v1v1t-0.5 2.5t-0.5 2.5v2t0.5 4t0.5 4l1 2q1 0 2 1l1 1h28q0 1 0.5 2.5t1 3.5t0 4t-3.5 2l-40 4l-1 1l-2 2v1v1l1.5 1t1.5 2h7q10 0 20 -1.5t19 -1.5q0 5 -3.5 8t-9.5 5.5
t-12.5 4t-12 3.5t-9.5 4.5t-4 6.5q9 0 15 -1t13 -4q4 -1 8.5 -4t8.5 -3q3 0 4 2.5t1 5.5v1v1q-2 1 -5.5 3t-7.5 4l-8 4t-5 2q-1 1 -5 1.5t-8 2t-7 3t-3 4.5q0 2 1.5 3.5t4.5 1.5t5.5 -1t5 -2.5l5 -3t5.5 -1.5t4.5 0.5t2 4.5t-1 5.5t-4.5 2.5l-6 2t-6.5 3t-5.5 5.5t-3 10.5
q0 8 -0.5 13.5t-0.5 10.5v10v12v16q0 1 1.5 3t2.5 2q2 0 4 -2l3 -3q-1 -17 -0.5 -34t1.5 -34q1 -2 2 -3.5t3 -1.5h1q1 0 4 0.5t4 1.5v16zM163 243l1 1.5t2 1.5q3 1 4.5 -1.5t1.5 -5.5v-69q0 -5 2 -7.5t6 -2.5q2 0 4 0.5t2 4.5q1 8 2 17.5t1.5 19t0.5 18.5v17q3 0 5 -2t3 -5
v-3v-4v-4v-3q0 -6 0.5 -13t0 -14t-1.5 -14t-3 -13q-2 -4 -5.5 -6.5t-7 -4t-6.5 -3t-3 -2.5q0 -6 1.5 -9.5t4 -5.5t6 -2.5t6 -2t4 -4t1.5 -6.5q0 -3 -1.5 -5.5t-3 -4.5t-3 -4.5t-1.5 -5.5v0q0 -1 1 -2t2 -3l1.5 -3t1.5 -2l0.5 -1t1.5 -1q1 -1 3.5 -1.5t5.5 -1t4.5 -1.5
t1.5 -4q0 -2 -0.5 -2.5t-2.5 -0.5h-23l-0.5 -1.5t-1.5 -2.5v0v-1q1 -1 1.5 -3.5t0.5 -3.5v-2t0.5 -4.5t0.5 -5v-2.5q1 -9 4 -11.5t6 -2.5t5.5 0.5t2.5 -3.5l-0.5 -2t-1.5 -2h-48q-1 -2 -2 -3t-3 -1t-3 2t-1.5 5t-0.5 5.5v3.5q0 6 0.5 11t1.5 11q2 2 6.5 2h9.5t8.5 1.5
t3.5 5.5v0q0 1 -0.5 2t-1.5 2q-17 2 -35 1q-1 1 -1.5 2t-0.5 2t0.5 1.5l1.5 1.5h16q8 0 15.5 -1t16.5 -1q0 7 -4 11.5t-9.5 7.5t-12 5.5t-11.5 4t-9 4t-4 5.5q0 2 1.5 2.5t3.5 0.5q5 0 10 -2t10 -4.5t9.5 -5t8.5 -4.5q8 2 8 9q1 1 0 3l-1 2q-11 6 -22 10.5t-23 7.5
q-3 2 -3 5t2 3h4q3 0 5 -1t4.5 -2.5t4.5 -2.5t5 -1t3.5 3.5t0.5 5.5v4q0 1 -2 1.5l-2 0.5q-1 0 -2.5 0.5t-3.5 0.5t-3.5 0.5l-1.5 0.5q-5 1 -7 9.5t-3 19t-1 20v13.5v10q0 2 1 3.5t3 1.5q3 0 4 -2t1 -5t-0.5 -5t-0.5 -5q0 -1 -0.5 -5t0 -10t1 -13t2 -12.5t3.5 -9.5t5 -4
t4.5 1.5t2 4t0.5 5v4.5q0 13 -0.5 25t-0.5 25v3v6v5.5v3.5zM90 35l1.5 0.5t3.5 0.5t3 1t1 3v0v0q-1 5 -2 8t-2.5 4.5t-4 2t-7.5 0.5h-2h-4t-4 -1t-2 -2v-12l2 -1q4 -3 8.5 -3.5t8.5 -0.5zM150 50v-2v-2q0 -4 1.5 -6.5t4 -3.5t6.5 -1h6q4 0 6.5 2.5t2.5 6.5q0 3 -2 6t-5 3
q-4 0 -10 0.5t-10 -3.5z" />
</svg>
