<?xml version="1.0" standalone="no"?>
<!DOCTYPE svg PUBLIC "-//W3C//DTD SVG 1.1//EN" "http://www.w3.org/Graphics/SVG/1.1/DTD/svg11.dtd" >
<svg xmlns="http://www.w3.org/2000/svg" xmlns:xlink="http://www.w3.org/1999/xlink" version="1.1" viewBox="-10 0 266 256">
   <path fill="currentColor"
d="M129 224l24 20q5 3 11.5 5t12.5 2q0 -2 -1 -3l-2 -2t-3 -1t-3 -1t-3 -2.5t-5 -3.5t-5 -3.5t-3 -2.5q-6 -6 -11.5 -12.5t-11.5 -13.5v-2q0 -2 2 -4t4 -3.5t4.5 -3t4.5 -2.5h2h5h4h3l1 -0.5t2.5 -1t2.5 -1.5l1 -1q7 -2 11.5 -4.5t7 -6t4 -9t3.5 -14.5q-3 -3 -4 -6.5
t-2.5 -6.5t-3.5 -6t-6 -6q0 -1 -3 -2t-5.5 -2.5l-5 -3t-2.5 -3.5v-21l-1 -1q-2 1 -3 3t-1.5 5t-0.5 5v4v10q2 5 6 7.5t8.5 5.5t7.5 8t3 16q0 5 -2.5 10t-6 8.5t-9 5.5t-10.5 2h-4q2 -3 3 -5.5t1.5 -5t0.5 -4.5v-6v-4q0 -4 -0.5 -7.5t-2 -6.5t-4.5 -3v0l-2 2v1q0 3 1 6t1 7
q0 2 -1 8t-3 12t-5 11t-7 5q-2 0 -3.5 -2t-2.5 -4.5t-1.5 -4.5t-0.5 -3v-32q0 -6 -5 -6h-1.5t-1.5 2v13v8v8t0.5 7.5t1.5 9.5l1.5 3t3 7t2.5 7l1 3zM71 161q0 14 7 22.5t22 8.5h2h3l0.5 -1t0.5 -2t-3.5 -2.5t-8.5 -4.5t-9 -7.5t-4 -11.5q0 -9 5.5 -15t12 -11t12 -10t5.5 -11
v-3.5t-0.5 -4.5t-1.5 -3.5t-2 -1.5q-2 0 -2.5 2t-1 5t-1.5 6t-2 4q-4 6 -10 10t-11.5 8t-9 9.5t-3.5 13.5zM129 90v35l1 0.5l1 0.5v0h1q1 0 1.5 -0.5l0.5 -0.5q1 -5 2 -9.5t1 -9t0.5 -9t1.5 -8.5l2 -2l1 -1q7 -1 14 -2.5t13 -5t9.5 -9t3.5 -13.5q0 -10 -6.5 -16t-17.5 -6
q-4 0 -8 0.5t-8 0.5v-24l-1.5 -1t-2.5 -1h-1q-3 0 -3.5 4t-0.5 9.5t-1.5 10t-6.5 5.5q-2 1 -5.5 2l-7 2t-6.5 1.5t-4 0.5h-1q-3 0 -6 -3.5t-6 -8t-7 -8t-10 -3.5v3q9 6 13.5 16t5.5 20q0 10 -4.5 17.5t-10 12.5t-10 9.5t-4.5 8.5q5 0 11.5 -4t12 -10t9.5 -13t5 -12v-4
t0.5 -6t0.5 -5.5v-3.5q5 -1 11.5 -2.5t12.5 -1.5h2.5h1.5q1 0 1.5 2l0.5 2v1v1q0 1 -0.5 5t-0.5 8.5t-0.5 8t-0.5 5.5l-3 0.5t-4 0.5h-2h-5h-4h-3t-2.5 1t-3 1.5t-2 1l-0.5 0.5v2l3 0.5t5 0.5h20zM154 43q8 0 12.5 2t4.5 10q0 6 -1.5 9t-3.5 5t-5.5 3.5t-8.5 3.5l-2.5 1.5
t-3.5 1.5h-1q-1 0 -2.5 -0.5t-1.5 -1.5v-30q0 -2 1.5 -3t4 -1.5t4.5 0t3 0.5z" />
</svg>
