<?xml version="1.0" standalone="no"?>
<!DOCTYPE svg PUBLIC "-//W3C//DTD SVG 1.1//EN" "http://www.w3.org/Graphics/SVG/1.1/DTD/svg11.dtd" >
<svg xmlns="http://www.w3.org/2000/svg" xmlns:xlink="http://www.w3.org/1999/xlink" version="1.1" viewBox="-10 0 266 256">
   <path fill="currentColor"
d="M147 246q0 2 1.5 3.5t3.5 1.5q5 0 8 -6.5t5 -17t3 -22.5t2 -23t1.5 -20t1.5 -13q0 -1 3 -3.5l6 -5t5.5 -4.5t3.5 -3h1q2 0 3 1.5t1 3.5v9q0 17 -1 33.5t-1 33.5q0 1 0.5 3.5t0.5 3.5l1 1q3 -2 4.5 -5.5t1.5 -6.5q2 -20 2.5 -41.5t0.5 -41.5q0 -5 -1.5 -6.5t-5.5 -1.5
q-3 0 -5.5 3t-5 6.5t-5 6.5t-6.5 3q-1 0 -3.5 -5.5t-4.5 -12t-3 -13t-1 -8.5q0 -3 1.5 -5t3.5 -3.5t4.5 -3t4.5 -3.5h4.5h7t6.5 -0.5t5 -0.5q1 0 3.5 -1t2.5 -4l-0.5 -0.5t-1.5 -0.5q-1 -1 -3 -2t-3 -1h-1t-2.5 0.5t-2.5 0.5h-2q-6 1 -14 1.5t-15.5 1t-14.5 0.5h-14
q-3 1 -4 4l1 2h29q2 0 2 1.5v1.5q0 4 -6 8t-13 7.5l-13 6.5t-6 5q0 1 0.5 1.5t2.5 0.5q6 0 9.5 -2t6.5 -4.5l6 -5t6 -2.5q2 0 3.5 2t2 4.5l1 5t0.5 4.5q0 3 -0.5 4t-1 1.5t-2 1t-4.5 2.5l-1.5 1.5l-3 3l-3 3l-1.5 1.5q-1 0 -3.5 1.5t-5.5 3l-6 3l-3 1.5q-1 1 -3 2.5l-2 1.5
q-1 3 1 3.5t3 0.5q4 0 9 -3t9.5 -7t8 -7t6.5 -3q2 0 3.5 1.5t2 3.5t0.5 4v4v7q-1 1 -5 4.5t-10 8t-12.5 10t-12 10t-9 8t-3.5 4.5q0 2 1 3.5t3 1.5q3 0 6.5 -3t8 -7t9 -9t8.5 -9.5t7 -7.5t5 -3t3 2t1 4v2l-0.5 1.5l-0.5 1.5q-1 9 -1.5 18.5t-1.5 19t-4 18t-9 15.5zM69 235
q0 2 1 3.5t4 1.5q2 0 3 -2t1 -4v-34q0 -3 2.5 -6t5.5 -6t5.5 -7t3.5 -9v-1.5t0.5 -3.5t0.5 -3.5t1 -2.5q1 -2 3 -4t4.5 -4t4.5 -4.5t3 -5.5q2 -5 3 -11.5t1 -13.5t-0.5 -14t-0.5 -13v-23q-1 -5 -3.5 -8.5t-4.5 -7.5l-4 -8t-2 -9q0 -3 1 -7t1 -8q0 -2 -0.5 -3.5t-2.5 -1.5
t-3.5 0.5t-1.5 2.5v30q0 3 1 4.5t2 2.5t2.5 2t2.5 3q4 9 5 19t1 20v11t-1 16t-3.5 14t-6.5 6v-72q0 -2 -0.5 -2.5t-2.5 -0.5h-1.5t-1.5 1q0 7 -0.5 15l-1 16l-1 16t-0.5 15q0 1 0.5 1.5t1.5 0.5v7q0 1 -0.5 7.5t-1.5 13t-3 12t-5 5.5h-1v0l-2 -12v-97h-4q-1 9 -1.5 18.5
t-0.5 19.5v19v17l-2 9q0 1 -1 1.5l-1 0.5q-1 0 -2 -1.5l-2 -3l-2 -3l-1 -1.5q0 -2 -0.5 -5.5t-1 -8t-1 -8.5t-0.5 -5v-2v-3.5v-4.5v-3q0 -9 1 -16.5t3 -15t6 -14.5t10 -14q0 -2 0.5 -6t0.5 -8.5t0.5 -8.5t0.5 -5v-2q0 -6 -6 -6h-3t-2 1v3.5v3.5q0 5 1 10.5t1 11.5q0 3 -2 7
t-5 7.5t-5.5 7.5t-4.5 8q-2 5 -3 11t-1 12v12v11v5t0.5 8.5t0.5 8.5v5q1 4 2.5 7t4 5t5.5 3.5t6 3.5q2 7 2 14.5v14.5q0 11 -1 21t-1 21zM147 34q0 7 -1.5 10.5t-4.5 5.5t-6 3t-6 2.5t-4.5 3t-1.5 5.5q17 0 25 -10t8 -25q0 -4 -4 -6.5t-7 -2.5q0 4 1 7t1 7zM175 26v14
t2 10.5t6.5 6.5t13.5 2h8q2 -1 2 -1.5v-1.5q0 -3 -3.5 -4t-8 -1.5t-8 -2t-3.5 -4.5v-20l0.5 -1.5l0.5 -1.5v-1q0 -2 -1.5 -3t-3.5 -1t-3 0.5t-2 1.5v8z" />
</svg>
