<?xml version="1.0" standalone="no"?>
<!DOCTYPE svg PUBLIC "-//W3C//DTD SVG 1.1//EN" "http://www.w3.org/Graphics/SVG/1.1/DTD/svg11.dtd" >
<svg xmlns="http://www.w3.org/2000/svg" xmlns:xlink="http://www.w3.org/1999/xlink" version="1.1" viewBox="-10 0 266 256">
   <path fill="currentColor"
d="M67 171v74q0 2 1 2.5t3 0.5t3.5 -0.5t1.5 -4.5v-35q0 -1 1 -2l2 -2l2.5 -3t3.5 -3q2 -3 3.5 -7.5t2.5 -9.5t1.5 -8.5t1.5 -3.5l3 -1.5l3 -1.5q4 -3 6.5 -8.5t4 -12t2.5 -12.5t1 -11l-1 -3l-1 -3q0 -6 0.5 -11.5t0.5 -10.5t-1 -10t-3 -10q-1 -4 -3 -6.5t-3.5 -5t-3 -5.5
t-1.5 -6q0 -8 2.5 -15t2.5 -15v0q-1 -2 -2 -4.5t-3 -2.5q-3 0 -4.5 2t-1.5 5v43q9 10 11 20t2 23q0 11 -0.5 20.5t-1.5 22.5l-2 2t-3 2q0 1 -2 0l-2 -1v-69q0 -1 -0.5 -2t-1.5 -2v0v0h-0.5h-0.5l-2 2t-1 2q0 3 -0.5 13t-0.5 21t-0.5 21t-0.5 14v7q0 5 -0.5 11t-2 11t-3.5 5
h-1l-1.5 -1.5l-0.5 -0.5q1 -12 0 -23.5t-1 -23.5t1.5 -25t1.5 -25q0 -6 -7 -6h-1.5t-0.5 2v24q0 1 -0.5 5.5t-0.5 10t-0.5 10.5t-0.5 6v2.5v4.5v4t-1 3h-1q-3 0 -4.5 -4.5t-2 -10.5t-0.5 -12v-8v-20.5t4 -19.5q3 -7 5.5 -10t4.5 -5.5t3.5 -4t2.5 -5t1 -8.5v-15v-2v-4.5v-4.5
v-2q0 -2 -1.5 -4.5t-3.5 -2.5q-1 0 -1.5 1.5t-1.5 3.5t-2 3.5t-1 2.5q0 6 2 11.5t1 11.5q0 6 -3.5 11t-7.5 10t-7.5 10.5t-3.5 13.5v51q0 10 5 16.5t12 13.5zM152 241q0 3 1 3.5t3 0.5q4 0 5 -2.5t2 -5.5q0 -2 0.5 -4.5t1 -5.5t0.5 -5.5v-2.5q1 -3 1.5 -9t1 -13.5t0.5 -14
v-8.5q1 -3 3 -5t4.5 -3.5t5 -2.5t4.5 -1h2q1 3 1.5 5.5t0.5 5.5v6v4q0 12 -1 23t-1 22v2v2q1 1 2 1.5t2 0.5q2 0 3 -1t2 -3q-1 -13 0.5 -26.5t1.5 -27.5v-26q-1 -3 -3 -3.5t-4 -0.5h-2l-1 1l-10 9h-2h-1q-1 0 -3.5 0.5t-3.5 -2.5l-5 -28q-4 -6 -4 -12q0 -4 2 -7t5 -5t6.5 -3
t6.5 -1h4.5h7.5h7.5h5.5q2 1 2.5 -0.5t0.5 -3.5v-2t-2 -2h-30q-1 0 -1.5 -1t-0.5 -2v-2v-1q0 -7 1.5 -16.5t1.5 -17.5q0 -6 3 -7.5t6.5 -1t6.5 0.5t3 -2v-8h-58v-16q0 -2 -2 -2h-2q-4 0 -5 2.5t-1 5.5q0 10 1 21t2 21q4 5 8.5 6t9.5 1t9.5 0.5t6.5 2.5v2v3q0 3 -0.5 5.5
t-2.5 5.5h-20.5t-20.5 1q0 1 -0.5 1.5t-1.5 0.5v1q0 1 2 2.5t3 1.5h26q1 0 2.5 1t1.5 2q-1 1 -3 3.5t-3 4.5l-18 20q-3 0 -5.5 2.5t-2.5 5.5l0.5 1.5t1.5 1.5q4 0 7.5 -3t6.5 -6l6 -6t7 -3q2 0 3 2l2 4t1 4.5v3.5q0 2 -1.5 3.5t-4 3t-5 2.5t-2.5 2l-6 3t-8.5 5t-8 5.5
t-5.5 3.5q0 1 -2 2.5t-2 2.5v1v1l1 1l2 2v0h1q1 -1 3.5 -2l2.5 -1q1 -1 5.5 -4t9.5 -6t9 -6t5 -4q2 -1 2.5 -1h2.5t3 1.5t1.5 4t0 5t-0.5 4.5q0 3 -4 7.5t-10.5 8.5t-13.5 8.5t-13.5 9t-10.5 8t-4 6.5q0 2 1 2.5t3 0.5q3 0 7.5 -2.5t9.5 -6t9 -8t8 -8t7.5 -6t5.5 -2.5h0.5
h0.5q0 1 1.5 2t1.5 2v3v3.5v4.5v3q0 5 -1 10l-2 10l-2 10t-1 10zM143 63q-1 0 -1.5 -1l-0.5 -1q0 -1 -1 -2.5t-1.5 -3t-1 -2.5t-0.5 -2q-1 -3 1 -6t5 -3h8q1 0 3 -0.5t4.5 0t4.5 1t2 2.5q0 1 0.5 3.5l0.5 2.5q0 5 -1 9t-7 4h-3h-4.5t-5 -0.5z" />
</svg>
