<?xml version="1.0" standalone="no"?>
<!DOCTYPE svg PUBLIC "-//W3C//DTD SVG 1.1//EN" "http://www.w3.org/Graphics/SVG/1.1/DTD/svg11.dtd" >
<svg xmlns="http://www.w3.org/2000/svg" xmlns:xlink="http://www.w3.org/1999/xlink" version="1.1" viewBox="-10 0 266 256">
   <path fill="currentColor"
d="M66 245v4t3 2q4 0 6 -7.5t3 -17t1 -18.5t1 -13q4 -4 6.5 -7.5t3.5 -7t2 -7.5t2 -10q0 -1 1.5 -2.5t3.5 -2.5t3.5 -2.5t2.5 -3.5q0 -1 0.5 -3t1.5 -4.5t1.5 -5l0.5 -2.5q1 -16 1.5 -28.5t0.5 -26.5q0 -8 -2 -14.5t-5 -11.5t-5 -10t-2 -11q0 -4 1 -8t1 -7q0 -1 -0.5 -2.5
l-1 -3t-1.5 -2t-2 -0.5l-2.5 2.5l-2.5 2.5v4v4v6.5v7.5t0.5 7.5t2.5 5.5q3 4 6 7.5t4 8.5q1 9 2 19t1 18v1q0 3 -0.5 7.5t-0.5 9t-0.5 7.5l-0.5 3q0 3 -0.5 6t-1.5 6t-2.5 5t-4.5 2v-79h-6v22.5v23.5t-0.5 23.5t-1.5 22.5q0 1 -0.5 4l-1 6t-2 5.5t-3.5 2.5l-1 -1l-0.5 -2
l-0.5 -2v-32q-1 -1 -1.5 -3.5l-0.5 -2.5v-2v-1q0 -1 0.5 -3t1.5 -2q-1 -15 0 -28t1 -27v-4q-1 -1 -2.5 -1.5t-2.5 -0.5t-2.5 0.5t-1.5 1.5v67v1.5t-0.5 3.5t-0.5 3.5t-1 2.5l-0.5 0.5l-0.5 0.5q-5 0 -6.5 -6t-2.5 -13.5t-1 -15v-9.5q0 -16 3 -30t13 -26l0.5 -1t1.5 -2
t1.5 -2t1.5 -1q0 -6 1.5 -13.5t1.5 -13.5q0 -4 -3 -6t-6 -2q-1 0 -2.5 0.5t-1.5 2.5q0 1 0.5 4.5t0.5 6.5q0 4 -0.5 7t-0.5 4q0 4 -2 7.5t-4.5 7l-5 7t-4.5 7.5q-1 5 -2 11.5t-1 12.5v12v11v20t2 19q4 6 7.5 8.5t9.5 5.5v70q-1 3 -1 5v5zM117 165v79q0 2 2 2h2q3 0 5 -1.5
t2 -4.5v-1.5v-0.5q0 -1 -0.5 -4t-0.5 -4v-49q0 -1 -0.5 -3t-0.5 -4t-0.5 -3.5t-0.5 -2.5v-8.5v-13.5v-13v-8v-12v-14v-12v-6v-11t1 -12.5t2 -12.5t3 -10l2 -2t2.5 -1h3.5h2q0 -1 2 -1.5l2 -0.5q14 -1 27.5 -1.5t27.5 0.5q4 1 4.5 -1t0.5 -3q0 -4 -1.5 -4.5t-4.5 -0.5h-19
t-24.5 1.5t-22.5 5.5t-14 11q0 10 -1 19t-1 18q0 11 0.5 21.5t1.5 20.5q0 1 -1 4t-1 4q0 2 0.5 6.5t0.5 10t0.5 10t0.5 5.5v1v1l-0.5 2.5t-1.5 3.5zM200 243q0 2 2 2h3h2t2 -2v-49q-1 -6 -1.5 -11t-0.5 -11v-11q0 -5 -1 -10v-1v-1q0 -1 0.5 -4.5t0.5 -7.5t0.5 -7.5t0.5 -4.5
v-3q0 -3 -0.5 -9t-1 -12.5t-1.5 -12t-2 -7.5t-3.5 -4.5l-2.5 -2.5h-33l-0.5 -1t-0.5 -2q-1 -1 -1.5 -2.5t-0.5 -2.5q0 -12 5.5 -17t17.5 -5q3 0 6 1t6 1q2 0 4 -0.5t2 -3.5v-1l-2 -2h-9q-7 0 -13 0.5t-14 1.5q-6 1 -7.5 6t-2 10t-0.5 9.5t-3 4.5t-4 -3.5t-1.5 -9t-1 -10.5
t-2.5 -7q-1 1 -3 1.5t-2 2.5q0 7 0.5 12.5t2 10t5 7.5t10.5 4v5q0 3 -1 4.5t-3 2.5t-4 1.5t-4 2t-3.5 4.5t-2.5 9q-2 26 -1.5 52t0.5 52v2v5.5t0.5 8t0.5 8.5v5q2 1 3.5 0t2 -2t1 -2.5t0.5 -3.5v-92v-3.5t0.5 -5t0.5 -5v-4.5v-2v-5v-5v-3q0 -1 0.5 -3l1 -4t1.5 -3.5t3 -1.5
l1 1q2 5 4 8.5t5 5.5t7 2.5t9 0.5h2h3.5h2.5h3l1 -0.5t2 -1.5v0v-1v0q-1 -1 -2 -2.5l-1 -1.5h-21q-2 0 -3 -3t-1 -5v-1l1 -1.5t2 -1.5l2 1l2 1h7h3.5t4.5 -0.5l4 -1t2 -2.5v-0.5v-0.5q-6 -2 -14 -2h-13q-3 -1 -3 -4t1.5 -4.5t4 -2t5.5 -0.5h5q8 0 12.5 2.5t6.5 7t2 11
t1 14.5v9v14v15v8v4.5v7t0.5 7l0.5 3.5v12.5v18.5v17.5v12.5zM158 241l1 2h1h1l3 -3l2 -2v-97q0 -3 2 -3h4h3.5t2.5 3v97l1.5 1.5l1.5 1.5h1h1q1 0 2 -0.5t1 -1.5v-98q0 -1 -0.5 -4t-0.5 -4q-1 0 -1.5 -0.5l-0.5 -0.5q-8 -1 -13 -1.5t-11 -0.5l-1.5 -0.5t-3.5 0t-3 1t-1 1.5
v0.5v0.5q1 1 4 2t4 3q1 6 1 11v10v10v11v18v2t-0.5 2.5t-0.5 2.5v1q0 1 0.5 3l0.5 2v4q0 5 -0.5 9.5t-0.5 9.5v7zM177 53q0 4 2 6t4.5 3t6 1.5t5.5 0.5t4 -0.5t3 -0.5l3 -3q-1 -2 -2.5 -2.5t-2.5 -0.5h-3.5h-2.5t-3 -1.5l-4 -3t-4.5 -2.5l-2.5 -1q-1 0 -2 1.5l-1 1.5v1z" />
</svg>
