<?xml version="1.0" standalone="no"?>
<!DOCTYPE svg PUBLIC "-//W3C//DTD SVG 1.1//EN" "http://www.w3.org/Graphics/SVG/1.1/DTD/svg11.dtd" >
<svg xmlns="http://www.w3.org/2000/svg" xmlns:xlink="http://www.w3.org/1999/xlink" version="1.1" viewBox="-10 0 266 256">
   <path fill="currentColor"
d="M111 178q0 11 3 20t8 17t12.5 15t16.5 14q4 3 8 5t10 2h5q2 -1 2 -2v-2q0 -2 -3.5 -4.5t-8 -4.5t-8.5 -3.5t-5 -2.5q-4 -2 -7.5 -5.5l-5.5 -5.5q-1 0 -1 -1v-1q0 -4 2.5 -8t5.5 -6q6 -1 14 -1t14.5 -2t11 -6.5t4.5 -12.5t-2 -12.5t-6 -6.5t-8 -2.5t-8.5 -1t-8 -1.5
t-5.5 -4t-2.5 -7.5t-0.5 -6.5l-0.5 -0.5t-1.5 -0.5q-2 0 -3 3t-1 5q0 7 2.5 11t6.5 5.5t9 2.5t9 2t7 4t3 10q0 5 -2 7.5t-5.5 4t-7.5 1.5h-8h-7q-1 0 -1 -1v-2q0 -4 0.5 -8t0.5 -8v-5q-2 -3 -5 -3h-1l-0.5 0.5t-0.5 1.5v3v5v4.5v2.5q0 2 -1 5.5t-3 7.5t-4 6.5t-4 2.5
q-5 0 -7 -6t-2.5 -13t-1.5 -13t-4 -6q-1 0 -2 0.5t-2 1.5v3v3zM66 185q0 10 5.5 16.5t17.5 6.5q1 0 3.5 -0.5t5.5 -1t5 -1t3 -0.5q3 -1 3.5 -2t0.5 -2t-0.5 -2t-1.5 -1q-6 1 -10 1.5t-9 0.5q-1 0 -3.5 -0.5t-4 -1t-3 -1.5t-1.5 -3v-18q1 0 2.5 -0.5t3.5 -1.5t3.5 -2t2.5 -1
q0 -1 1 -2t2 -1q2 -2 6 -3t7 -2t5.5 -3t2.5 -6t-2 -7t-2 -6v0q1 -2 2.5 -2t3.5 -0.5t3.5 -1.5t1.5 -3t-2 -2h-4q-4 0 -7.5 1t-6.5 1q-2 0 -4 -3t-1 -5q0 -4 3.5 -5t7 -2.5t6 -4.5t2.5 -10v-5q-1 -1 -2 -1h-2h-1h-1v3.5t-1 5t-2.5 4t-3.5 1.5h-2t-1 -1t-0.5 -2.5t-0.5 -3.5
t-0.5 -3.5t-0.5 -2.5v-1v-1q0 -3 2 -4.5t4.5 -2.5t5 -2.5t2.5 -5.5q0 -2 -2 -4.5t-4 -2.5q-1 0 -1.5 1l-1 2t-0.5 2.5v1.5q-1 1 -1.5 2l-0.5 1q-2 2 -10 4t-15.5 4.5t-14 5t-6.5 4.5t2 3t3 1q4 0 7.5 -1.5t6.5 -3.5t6.5 -3t6.5 -1h3t1 3v30q0 3 -3 3.5t-5 0.5t-5 -0.5
t-3 -3.5v-15l-1 -0.5t-1.5 -0.5t-1.5 -0.5l-1 -0.5l-1 -1q-2 0 -3 1.5t-1 3.5q0 3 0.5 6.5l1 7t2.5 6.5t5 4q2 0 5 -0.5t6.5 -0.5h6.5h5h3q2 0 4 0.5t2 2.5q0 6 -3 9.5t-7 5.5t-9 3.5t-9 4.5t-7 7t-3 11zM160 125v13v2.5t0.5 3.5t1 3t2.5 1h2.5t1.5 -1v-22l0.5 -0.5
l1.5 -1.5l1.5 -0.5l1.5 -0.5h24q2 0 4 -2t2 -3q0 -2 -1 -3t-3 -1q-6 0 -12.5 2t-12.5 2l-2.5 -0.5t-2.5 -1.5v-10l2 -0.5t3 -0.5q6 -2 10 -4t6.5 -5.5t3 -8.5t0.5 -11t-1.5 -9.5t-4.5 -5.5t-7.5 -3t-10.5 -2q-3 -2 -3 -6q0 -5 4.5 -6t9.5 -1t9.5 -0.5t4.5 -5.5
q0 -1 -0.5 -2.5t-2.5 -1.5l-1 0.5t-2.5 0.5h-2.5h-1q-2 1 -5.5 1t-5.5 0.5l-2 0.5l-3 -2v-17q0 -2 -2 -2.5t-4 -0.5t-3.5 2t-1.5 4v0.5v1.5l1 1l1 1v3t-0.5 4t-1.5 4t-3 2l-2 0.5t-4 0.5t-3.5 0.5t-2.5 0.5h-3h-6t-5 1t-2 2v1q3 4 10 4h1h2.5t4.5 -0.5t4.5 -0.5h2.5h3
q3 0 4 2t1 5t-4.5 4.5t-10 3.5t-10 6t-4.5 13q0 7 1.5 12.5t4.5 8t8.5 4t14.5 1.5v1v0q-1 2 -1.5 5.5l-0.5 3.5l-1 1l-25 3q-2 0 -3 1t-1 2q0 2 1.5 2.5t2.5 0.5h1h4t7 -0.5t7.5 -1l3.5 -0.5h1h1q1 0 1.5 0.5zM140 91q0 -2 1.5 -3.5t4 -2t4.5 -0.5h5t3.5 2t1.5 4t-0.5 3.5
t-2.5 1.5h-14l-1.5 -2l-1.5 -2v-1zM167 88q0 -2 1 -3t3 -1.5t5 -0.5h4q3 0 3.5 1t0.5 4q0 4 -4 6.5t-8 2.5t-4.5 -2.5t-0.5 -6.5zM62 75v1q0 1 0.5 2l0.5 1h2.5h2.5q5 0 12 -1t13 -4.5t10.5 -8t4.5 -10.5q0 -3 -1.5 -4.5t-4.5 -1.5q-2 0 -2.5 1.5l-1 3t-0.5 3.5v2
q-2 4 -8 6.5t-12 4.5t-11 3t-5 2zM155 63q4 0 4.5 3.5t0.5 5.5q0 1 -1 3.5t-2 2.5h-16q0 -6 4 -10.5t10 -4.5zM167 69v-3t2 -3h5q4 0 7.5 1.5t3.5 7.5q0 3 -4 3.5t-7 0.5q-7 0 -7 -7zM63 51v1l2 2t2 1q9 -2 16.5 -4t13 -5.5t8.5 -10t3 -16.5q0 -3 -0.5 -5t-3.5 -2
q-4 0 -5.5 2t-2 5.5t-0.5 7v5.5q-2 2 -7 5t-11 6t-10.5 5t-4.5 3z" />
</svg>
