<?xml version="1.0" standalone="no"?>
<!DOCTYPE svg PUBLIC "-//W3C//DTD SVG 1.1//EN" "http://www.w3.org/Graphics/SVG/1.1/DTD/svg11.dtd" >
<svg xmlns="http://www.w3.org/2000/svg" xmlns:xlink="http://www.w3.org/1999/xlink" version="1.1" viewBox="-10 0 266 256">
   <path fill="currentColor"
d="M76 195q0 2 0.5 5.5t1.5 6.5t3 5.5t5 2.5h28q4 0 5.5 1t2 3l1 4t2.5 3q1 3 5.5 7t9.5 8t10.5 7t8.5 3q2 0 4 -1.5t2 -3.5q0 -3 -3.5 -5t-7.5 -3.5t-7.5 -3.5t-3.5 -6q0 -5 3 -10q0 -1 0.5 -1.5l0.5 -0.5h31q4 0 6.5 -2t4.5 -5t3.5 -6.5t1.5 -6.5q0 -7 -3 -10.5t-7.5 -5
t-10 -2.5t-10.5 -3l-2 -2t-2 -2.5t-2 -2.5t-2 0q-3 0 -3 1.5v3.5q0 5 2 6.5t5.5 2l7 1t7.5 2t7 5t4 11.5q-2 2 -5 3.5t-6.5 2.5t-6.5 1h-7q-2 0 -5 -1t-3 -4v-1v-1.5t0.5 -3.5t0.5 -3.5v-1.5v-2q0 -2 -0.5 -2.5t-3.5 -2.5h-1h-1l-1 1l-1 1q1 9 -2 18t-7 17h-1v0
q-2 -1 -3.5 -3t-2.5 -4l-2 -4t-1 -3t-0.5 -4t-0.5 -6q0 -4 0.5 -6.5t0.5 -4.5l-1.5 -3t-2.5 -1t-2.5 1t-0.5 3t-0.5 4t-1 4.5l-1 5l-0.5 2.5q-1 2 -3 2.5t-4.5 1t-5 0t-3.5 -0.5q-3 0 -5.5 -0.5t-5 -1.5t-4 -3t-1.5 -5q0 -6 4.5 -8.5t10 -4t10 -3.5t4.5 -6t-3 -4
q-1 0 -6.5 2.5t-11.5 5.5t-10.5 5.5t-5.5 3.5v4.5v3.5zM79 153v5t0.5 5.5t2.5 5t5 2.5q2 0 2.5 -1t0.5 -3q0 -5 -1.5 -9t-1.5 -8t1.5 -8l3 -8t3 -7.5t1.5 -8.5q0 -4 -1.5 -8t-1.5 -8q0 -5 0.5 -9t0.5 -8v-7l-2.5 -2.5t-3.5 -1.5q-1 0 -2.5 2l-1.5 2q0 1 1 2.5t1 2.5t0.5 3
t0.5 3v0q0 5 -5 10t-11 10t-11.5 11.5t-5.5 14.5v3t2 2q4 0 6 -2t3 -5.5t1.5 -7t2.5 -5.5q1 -2 5.5 -5t5.5 -5h1h1q3 0 5 3.5t2 6.5q0 5 -1.5 8.5t-3.5 7.5t-3.5 8.5t-1.5 8.5zM176 165q0 2 1 2.5t3 0.5q3 0 4.5 -2.5t2.5 -5t1 -5.5v-5q0 -4 -1 -8t-2.5 -8l-3 -8t-1.5 -8
q0 -2 1 -5t4 -3h1.5t1.5 1q0 1 1 2.5t2 3.5t1.5 3.5t1.5 2.5q1 2 4 2q4 0 4 -4q0 -6 -3.5 -9.5t-8 -7t-8.5 -6.5t-6 -8q0 -1 -1 -5t-2 -5t-3 -1.5t-4 -0.5q0 6 3 12t6 10q-1 13 1 25t2 25v5v4l-1 2.5t-1 3.5zM112 159v4t2 2q1 0 2 -0.5t2 -1.5l7 -17h0.5h1.5h3.5t2.5 1v13
q0 1 1 3t3 2q1 0 2 -2t1 -3q1 0 1 -2t0.5 -4t0.5 -4v-3l0.5 -0.5l0.5 -0.5h1q4 0 6 2.5t3 5.5t2.5 5.5t4.5 2.5q2 0 2.5 -1t0.5 -3q0 -4 -1.5 -8t-3.5 -7q-1 0 -3 -0.5t-4.5 -1.5t-4.5 -1.5t-3 -0.5q-1 -1 -2.5 -1.5t-1.5 -2.5v-0.5v-0.5q1 0 2 -1.5l1 -1.5h21q1 0 1.5 -1
l0.5 -1l-0.5 -1.5t-1.5 -1.5l-0.5 -0.5l-0.5 -0.5h-21q0 -2 -0.5 -3t1.5 -2l17 -3v-0.5v-0.5v-1.5t-1 -1.5h-18l-0.5 -0.5t-0.5 -1.5l0.5 -2.5t0.5 -3.5h16l3 -4l-1 -1h-18q-1 0 -1 -2.5v-2.5q0 -3 3 -4t6.5 -2t6.5 -4t3 -9q0 -4 -3 -6.5t-9 -2.5h-9t-12 1t-10.5 3.5
t-4.5 8.5q0 5 3.5 7.5t7.5 3.5t7.5 1.5t3.5 2.5v1l-0.5 1.5t-1.5 2.5h-2t-3.5 0.5t-3 0.5h-2.5h-1q-2 0 -3 -2t-4 -2q-2 0 -3 1t-1 3q0 1 1 4l2 6t1.5 5.5t1.5 2.5h19q1 0 1 1.5v2.5q0 3 -1 4q-1 0 -4 0.5t-6 0.5t-6 0.5t-4 0.5t-4.5 0.5t-3.5 2.5t2 2h3h3h2t4.5 -0.5
t4.5 -0.5h3h1v0q1 0 2.5 0.5t2.5 0.5q0 1 0.5 1.5l0.5 0.5q0 3 -3.5 4t-7.5 2.5t-7 5t-3 11.5zM118 110q-1 -1 0 -2t2.5 -1.5t3 -0.5h1.5q5 0 5.5 2t0.5 7h-3.5t-4.5 -0.5t-3.5 -1.5t-1.5 -3zM119 79q0 -2 2.5 -3.5t4.5 -1.5h21q2 0 2 2v3t-0.5 3t-2.5 2q-1 0 -2.5 0.5
t-3.5 0.5t-3.5 0.5l-1.5 0.5q-1 0 -2.5 0.5t-2.5 0.5t-3 -0.5t-4 -1.5t-3 -2.5t-1 -3.5zM170 60q0 4 2.5 8.5t5.5 8t7 6t9 3.5l2 -0.5t3 -1.5q1 0 1.5 -0.5l0.5 -0.5q0 -5 -3.5 -7t-8 -3.5t-8 -4t-3.5 -7.5q0 -4 0.5 -5.5t1.5 -5.5q1 -2 3 -4l4 -4l3.5 -3.5l1.5 -1.5
q0 -2 -1.5 -3t-2.5 -1q-4 0 -7 3t-5.5 7t-4 9t-1.5 8zM64 76v1l2 2l1 1h1q2 0 5 -1.5t4 -2.5l4 -4t6 -5.5t5.5 -5.5t3.5 -4v-4q0 -5 -2.5 -9t-6 -7.5t-8 -5t-9.5 -1.5q-2 0 -3 0.5t-1 2.5q0 4 3 5t7 2t7 3.5t3 8.5q0 4 -2 7t-5 5.5t-7 4.5t-6 4l-0.5 1t-1.5 2v0zM106 57
q-1 0 -1.5 2t-0.5 3h12h16.5t16 -2t9.5 -6q1 -3 1 -8v-8v-4.5v-5.5q-1 -1 -2.5 -3.5t-3.5 -1.5q-2 0 -2.5 2t-1 4.5t-1.5 4.5t-5 2q-1 0 -3.5 -0.5t-2.5 -2.5t1 -4t1 -4q0 -1 -0.5 -2.5t-1.5 -3l-2 -3t-2 -1.5h-1v0q-1 0 -1.5 0.5t-0.5 1.5v16q0 1 -1.5 2.5t-2.5 1.5h-3h-3
h-5h-2q-2 0 -5.5 0.5l-3.5 0.5v5h26q1 0 1.5 2.5t0.5 4.5l-0.5 2t-1.5 2q-5 1 -12 1.5t-12 1.5zM139 48v-2v-2q1 -1 2.5 -1h3.5t4 0.5t2 3.5q0 4 -2.5 6.5t-5.5 2.5t-3.5 -3.5t-0.5 -4.5z" />
</svg>
