<?xml version="1.0" standalone="no"?>
<!DOCTYPE svg PUBLIC "-//W3C//DTD SVG 1.1//EN" "http://www.w3.org/Graphics/SVG/1.1/DTD/svg11.dtd" >
<svg xmlns="http://www.w3.org/2000/svg" xmlns:xlink="http://www.w3.org/1999/xlink" version="1.1" viewBox="-10 0 266 256">
   <path fill="currentColor"
d="M68 236q0 3 0.5 5.5t3.5 2.5t5.5 -3t2.5 -6v-74q0 -1 3 -1.5t6.5 -2.5t7 -5t4.5 -7q0 -2 1 -5.5t1.5 -8t1 -8.5t1.5 -5v-2v-1q0 -3 -1 -4.5t-4 -3.5l-1.5 0.5t-1.5 1.5l-1 0.5l-1 0.5v13.5t-1.5 11.5t-4.5 8t-10 3v-53l0.5 -0.5l0.5 -0.5q3 -2 6 -2t5 -0.5t3.5 -2
t3.5 -6.5q1 0 1.5 -2t1 -4.5t1.5 -5t1 -3.5t0.5 -3.5l1 -5l1 -5t0.5 -4.5t-1 -3.5t-3 -1.5t-3 1t-2 3q0 1 -0.5 4t-1.5 7t-1.5 7t-0.5 4q-1 5 -3 9t-7 4q-2 0 -3.5 -0.5t-0.5 -3.5v-12v-6v-7.5t1 -7t2 -5.5q1 -3 4 -4.5t5.5 -3t4.5 -3.5t2 -5q0 -2 -0.5 -3.5t-2.5 -1.5h-2
q-1 1 -2 1.5t-2.5 1.5t-3 1.5l-1.5 0.5q-8 6 -10.5 13t-2.5 14.5v15.5t-2 16h-1h-2q-3 0 -6 -3.5t-4 -6.5q-1 -2 -1.5 -5.5l-1 -7t-1.5 -7t-1 -5.5l-3 -3h-1q-3 0 -3.5 2t-0.5 4q0 4 0.5 9t2 10.5t3.5 10t5 7.5q2 2 4.5 2h5t4.5 0.5t2 2.5v47q0 1 -0.5 3.5t-0.5 3.5l-1 1
l-1 1q-6 0 -9 -3.5t-5 -8.5t-2 -11v-10q-1 -3 -2.5 -3.5t-3.5 -0.5t-3 1t-1 4v1l0.5 3l1 6l1 6l0.5 3q1 2 1.5 4t1 4.5t1.5 4.5t3 3q3 2 6 3t6.5 2.5t5.5 3.5t2 6t-0.5 7t-1.5 7v43q-2 4 -2 6.5v5.5zM120 86v20t0.5 20t2.5 19.5t7 18.5q3 4 6.5 6t7.5 2.5t8 0.5h8
q20 0 30 -4.5t14 -14t3.5 -23.5t-0.5 -33v-29q0 -3 -0.5 -8.5t-2 -11t-4.5 -9t-9 -3.5q-1 -1 -3.5 -1h-5.5h-6h-3h-14t-16 2t-14 6t-7 13v3v4v4v3t-0.5 2t-0.5 2v1.5v3.5t-0.5 3.5t-0.5 2.5zM135 153v-1.5v-1.5q3 -1 7.5 -5.5t9 -10t8 -9.5t4.5 -4q2 0 3.5 2.5t3.5 6l4 7
t5 5.5q1 1 3 2.5t4 2.5t3 3t1 4q0 4 -4 6t-10 2.5t-11.5 0.5h-7.5h-14q-3 -1 -6 -3.5t-3 -6.5zM129 114v-16q5 1 8 -1t6 -5t6 -5t7 -2q3 0 3.5 1.5t0.5 3.5q0 5 -0.5 11t-1.5 9q0 3 -3 8t-7 10.5t-8 9.5t-6 4q-2 -1 -3 -2.5t-1.5 -3.5t-0.5 -4v-2v-16zM168 98v-5.5v-4.5
t1.5 -2t2.5 -1q2 -1 5.5 0.5t7.5 4l8 5t6 3.5v3v3v4v2v7.5v7t-0.5 7t-0.5 8.5q-1 1 -2 1.5t-2 0.5h-1q0 -1 -2 -2q-5 -4 -9 -8.5t-7.5 -9.5t-5 -11t-1.5 -13zM129 87v-7q0 -6 0.5 -12t3 -11t7 -8.5t12.5 -3.5h3q2 0 3 2q1 0 1 2.5t1 4.5t1 4t1 3v0v2l-0.5 2t-0.5 4.5t-0.5 4
t-0.5 2.5q-3 2 -6.5 4l-7 4t-7.5 3t-6 1h-2.5t-1.5 -1zM168 44q17 0 24 7t7 24v5.5v4.5q0 2 -1 2.5t-2 0.5q-3 0 -6 -3l-5 -5t-4.5 -2.5t-5.5 -1t-5 -1.5t-2 -4v-27z" />
</svg>
