<?xml version="1.0" standalone="no"?>
<!DOCTYPE svg PUBLIC "-//W3C//DTD SVG 1.1//EN" "http://www.w3.org/Graphics/SVG/1.1/DTD/svg11.dtd" >
<svg xmlns="http://www.w3.org/2000/svg" xmlns:xlink="http://www.w3.org/1999/xlink" version="1.1" viewBox="-10 0 266 256">
   <path fill="currentColor"
d="M170 175q0 10 0.5 17.5t2.5 14.5t4.5 14t5.5 15q1 3 2 5.5t1.5 4.5t2.5 3t5 1t4 -2t2 -5q-9 -17 -14.5 -32.5t-5.5 -35.5v-8v-6t0.5 -6.5t1.5 -7.5q0 -1 1 -4t3 -3h1l10 10q0 1 1 1h1q3 0 4 -1.5t1 -4.5t-2 -5.5t-4.5 -5t-4.5 -5t-2 -6.5v-1h1l13 -26v-2q0 -2 -0.5 -3
t-2.5 -1q-4 0 -6 2.5t-3.5 6t-3 6.5t-4.5 5q-2 -1 -4 -5.5t-3 -10t-1.5 -10.5t-0.5 -7q0 -4 3.5 -5.5t7.5 -2.5h4t6 -0.5t6 -0.5h4l1.5 -1.5t0.5 -1.5t-0.5 -2.5t-1.5 -1.5h-31q-1 0 -1 -2v-3v-2l0.5 -3t0.5 -4q2 0 5 -0.5t6.5 -1t6.5 -1t4 -0.5t2 -0.5t1.5 -1l1 -1
l0.5 -0.5v-24q0 -3 -1 -3h-3q-1 0 -3 0.5t-2 2.5v15q0 3 -2.5 4t-5.5 1h-5.5h-3.5v-23q0 -1 -2 -1.5t-3 -0.5t-3 0.5t-2 3.5v42l-4 5h-2t-4 0.5t-4.5 1t-4.5 0.5h-9h-6l-2 -2v-19q0 -2 -2 -2.5t-4 -0.5t-3.5 1t-1.5 5v26q-2 2 -2 5.5v6.5v6v4v5t-0.5 7.5t-1 6.5t-0.5 4
q-2 15 -3.5 28.5t-4 26.5t-5.5 26t-7 27v11q7 0 8.5 -2.5t3.5 -9.5l10 -57v-6.5t0.5 -5t1.5 -5t1 -5.5q0 -1 0.5 -4.5t0.5 -7t0.5 -7t0.5 -4.5l0.5 -3.5t1 -7.5t1 -7.5t0.5 -4.5v-8v-5q0 -3 0.5 -6t3.5 -6q6 -3 13.5 -3.5t14.5 -0.5h7q3 2 3 5.5v6.5v7q-1 1 -2.5 2t-2.5 1
l-28 3q-1 0 -1.5 1l-0.5 1v1q0 2 2.5 2.5t3.5 0.5q7 0 14.5 -1t14.5 -1q2 0 4 3t3.5 7.5t2.5 8t1 5.5q0 7 -1.5 13l-3 12t-3 12.5t-1.5 13.5zM66 163q0 20 -2 40t-2 40h10v-4v-5v-6v-3q0 -2 0.5 -7.5t1 -13t0.5 -15.5t0.5 -15.5t1 -12.5t0.5 -7v-6.5t2 -5.5q6 -1 11 -3.5
t8 -7t4.5 -10.5t1.5 -13q0 -1 -2 -3.5t-3 -3.5q-1 1 -1.5 3t-0.5 3t-1 4t-1.5 6t-1.5 6t-1 4q-2 2 -4.5 4t-5.5 2l-1.5 -0.5l-1.5 -0.5q-1 0 -1.5 -0.5t-0.5 -1.5v-1v0v-7t0.5 -10.5t1 -10t0.5 -6.5q1 -2 2.5 -2.5t3.5 -1t3.5 0t3.5 -0.5q4 0 6.5 -4t3.5 -9.5t1.5 -11
t0.5 -8.5v-9l-4 -2v0q-2 0 -2.5 3t-1 6.5t-1 8t-1 8t-2.5 6.5t-6 3q-1 0 -2.5 -0.5t-1.5 -1.5v-4v-4t0.5 -6.5t1.5 -11.5t2.5 -11t3.5 -5h14q1 0 1.5 -1t1 -2.5t0.5 -2.5v-3q0 -3 -0.5 -4t-4.5 -1q-3 0 -6 1t-5.5 3l-5 4t-5.5 4q-4 2 -5 10t-1.5 16t-1 14.5t-3.5 6.5
q-5 0 -7.5 -4t-3.5 -9.5t-0.5 -11t0.5 -9.5q0 -1 -1.5 -1.5t-2.5 -0.5q-2 0 -3 2.5t-1.5 5t0 5.5t0.5 4q0 11 3.5 16.5t7.5 7.5t7.5 3.5t3.5 3.5v1q0 2 -0.5 6.5t-1 10t-1 10t-0.5 6.5q-1 2 -3 2.5t-4 0.5q-1 0 -3.5 -0.5t-2.5 -2.5v-27q-2 0 -6 0.5t-5 4.5q0 1 0.5 4
t0.5 6.5t0.5 6.5t0.5 5q0 4 1.5 6.5t4 3.5t4.5 1.5l4 1t4 2.5t2 5v14zM131 155q0 4 1.5 7t3.5 5t5.5 3t6.5 1q7 0 10.5 -5.5t4.5 -12.5t0.5 -15t-0.5 -12t-0.5 -5t-3.5 -1t-3.5 2.5t-0.5 5v5.5q0 2 -2 2h-11v-13q0 -1 -1.5 -1.5t-2.5 -0.5h-1h-1q0 1 -1.5 2l-1.5 1zM140 151
q0 -3 2.5 -5.5t5.5 -2.5h4t3 3q0 2 -0.5 4.5t-1.5 5.5t-3 4.5t-4 1.5h-2h-1l-0.5 -1.5t-1 -3.5t-1 -3t-0.5 -2v-1z" />
</svg>
