<?xml version="1.0" standalone="no"?>
<!DOCTYPE svg PUBLIC "-//W3C//DTD SVG 1.1//EN" "http://www.w3.org/Graphics/SVG/1.1/DTD/svg11.dtd" >
<svg xmlns="http://www.w3.org/2000/svg" xmlns:xlink="http://www.w3.org/1999/xlink" version="1.1" viewBox="-10 0 266 256">
   <path fill="currentColor"
d="M171 171q3 0 5 6t3.5 15t3 19.5t3.5 19t5 14.5t8 6q2 0 2.5 -1.5t0.5 -3.5q0 -9 -3 -18t-6.5 -18.5t-6 -18.5t-2.5 -18q0 -4 3.5 -7.5t8 -7.5t8 -9.5t3.5 -11.5t-1.5 -13.5t-5.5 -12.5q0 -1 -1.5 -2.5l-3 -3l-3 -3l-1.5 -1.5l-22 -5v-2v-5q0 -2 0.5 -6.5t0.5 -9.5
t0.5 -9.5t0.5 -6.5h8t8 -0.5t8 -0.5h7t3.5 -1.5t0.5 -3.5q0 -1 -0.5 -2.5t-3.5 -1.5h-28l-1 -3v-22q0 -1 -1 -4t-3 -3q-3 0 -4.5 3.5t-1.5 4.5q1 19 -0.5 36.5t-1.5 36.5q-1 2 -3 2.5t-4 0.5t-4 -0.5t-4 -0.5q-4 0 -5.5 3t-1.5 6h45l5 2q2 1 4 4t3 6.5l2 7t1 5.5t-1 6
t-2.5 7.5t-4 6.5t-5.5 3t-4.5 -2t-2.5 -4.5t-2.5 -5.5t-3.5 -5q-6 -4 -13.5 -5.5t-13.5 -1.5q-7 0 -12 5l3 4h10.5t12.5 1.5t10.5 5t4.5 10.5q0 3 -1.5 5t-4 3l-5 2t-4.5 1t-5 0.5t-6.5 1.5t-7 1.5t-4.5 0.5v1v1q0 4 2.5 4h4.5q3 0 7 -1t7.5 -2.5t6.5 -2.5t6 -1zM85 182
q0 17 -1 34t-1 34h2t3.5 -0.5t2.5 -1.5t0 -2q3 -22 3.5 -45t0.5 -44q0 -1 2 -1.5t3 -0.5q5 0 9 2.5t7 7.5q1 6 3 15t2 15q0 11 -1.5 22t-1.5 21q0 2 1 2.5t3 0.5q3 0 4.5 -2t2.5 -5v-5v-6.5v-6.5v-5v-18.5t-2 -18t-6.5 -15.5t-12.5 -13q-1 0 -3 -0.5t-4.5 -0.5t-4 -0.5
t-1.5 -1.5v-14h6t8 -0.5t8 -2.5t5 -5q3 -6 4 -10.5t1 -10.5v-4q-1 -1 -2 -1.5t-3 -0.5q-1 0 -1.5 0.5t-1.5 3.5q0 1 -0.5 3.5t-1 5.5t-1 5.5t-0.5 3.5q-3 3 -6 3.5t-7 0.5h-3.5h-3.5q-1 -5 -1 -8v-8v-7t1 -8q1 -2 4 -2.5t6.5 -1t8 -1.5t8 -4.5t6 -10t2.5 -18.5
q0 -8 -1.5 -15t-5 -12.5t-9 -9.5t-13.5 -4q-3 0 -11.5 0.5t-17.5 2.5t-15.5 5.5t-6.5 10.5v32q3 8 5.5 13t6 7.5t9.5 4t15 1.5v3v3q0 1 -0.5 4.5t-0.5 7t-0.5 7t-0.5 4.5q-2 2 -3.5 3t-3.5 1q-7 0 -10.5 -2.5t-5 -6t-2 -7.5t-1 -7t-2 -5.5t-5.5 -2.5q-2 0 -3 0.5t-1 3.5v1
q0 1 0.5 2.5l1 3l1 3l0.5 1.5v3t0.5 4.5t0.5 4v2.5q2 4 6 6t8.5 3t8.5 1h8q2 2 2 6v5v4v2l-19 5q-4 1 -6 4.5t-3 7.5t-1.5 8t-1.5 6v6.5t-0.5 10t-1 10t-0.5 6.5v14v14q0 2 1.5 4.5t4.5 2.5q2 0 3 -2.5t1 -4.5q-1 -18 0 -37t5 -37q2 -2 5.5 -5t6.5 -3q1 0 3 1t3 2v24zM61 61
q0 -2 0.5 -3.5t2.5 -1.5q1 0 3 -0.5l4 -1t4.5 -0.5h3.5h2q2 0 3.5 1.5t2 4t0.5 4.5v4v3t-0.5 4t-1.5 3t-3 1q-5 0 -8.5 -1.5t-6 -3.5t-4 -5.5t-2.5 -7.5zM96 54q1 0 3.5 -0.5t5 -0.5t5 -0.5t3.5 -0.5h2h2.5t1.5 2v6q0 6 -1.5 9.5t-4.5 5.5t-7 2.5t-10 0.5v-24zM62 39
q0 -8 5 -13t12 -5q1 0 3 0.5t3 0.5q2 1 2.5 2.5t1 4t0.5 5v3.5q0 6 -3.5 7.5t-7.5 1.5q-2 0 -4.5 -0.5l-5 -1t-4.5 -2t-2 -3.5zM96 31v-8q2 -2 4.5 -2.5t4.5 -0.5q3 0 5.5 2t5 5t4 6t1.5 5q0 3 -1 4t-3 1.5t-4 0.5h-4q-8 0 -10.5 -2t-2.5 -11z" />
</svg>
