<?xml version="1.0" standalone="no"?>
<!DOCTYPE svg PUBLIC "-//W3C//DTD SVG 1.1//EN" "http://www.w3.org/Graphics/SVG/1.1/DTD/svg11.dtd" >
<svg xmlns="http://www.w3.org/2000/svg" xmlns:xlink="http://www.w3.org/1999/xlink" version="1.1" viewBox="-10 0 266 256">
   <path fill="currentColor"
d="M65 140q0 4 -1 12t-1.5 17.5t-1 20.5t-1 20.5t-1 17.5t-1.5 11v3v4v3v3q1 0 2.5 -0.5t3.5 -1t3 -2t1 -2.5l5 -93q1 -3 2 -6.5t1 -7.5v-7.5v-6.5q1 -7 7.5 -12t16 -7.5t20.5 -4t22 -2t20 -0.5h13q2 0 3 1l2.5 2.5t2 3t0.5 2.5q0 18 1.5 35.5t2.5 34.5t2 34.5t0 35.5
q1 0 1.5 0.5l0.5 0.5q1 1 2 1.5l1 0.5l2 -2t2 -1v-23q0 -18 -2.5 -35.5t-2.5 -36.5v-5v-11v-10v-6t-1 -6t-2 -11.5t-2 -13.5t-2 -10q0 -1 -0.5 -3l-0.5 -2q-1 -1 -3 -2l-2 -1q-1 -1 -2 -1.5t-1 -1.5h-74q-1 0 -1.5 -1.5t-1 -3.5t-0.5 -4.5v-3.5v-1v-2t0.5 -2.5t1.5 -1.5
l96 -6l0.5 -1.5l0.5 -1.5v-1v-1l-1 -2h-11q-18 0 -37 2.5t-37 2.5q-7 1 -14 0.5t-14 -0.5t-14.5 1t-13.5 2v2v2t1 1h31q3 0 3.5 4.5t1.5 9.5t2.5 9t6.5 4h59q3 0 6 0.5t5.5 2t4 3.5t1.5 5q0 2 -0.5 4t-3.5 3h-19t-20 0.5t-19.5 1.5t-18.5 1q0 1 -1 1.5t-1.5 0.5t-3 0.5
t-4.5 1.5t-4.5 2l-2.5 1q-5 2 -8 6.5t-4.5 9.5t-2 10.5t-1.5 9.5zM121 244q0 1 0.5 2.5t2.5 1.5q5 0 10 -6.5t9 -15t7.5 -16.5t5.5 -12q0 -1 1.5 -2.5t1.5 -2.5l0.5 -1.5t0.5 -3.5t0.5 -4t0.5 -4v-1q0 -6 -4 -10t-9 -7t-9 -6.5t-4 -8.5v-2.5t2 -2.5q0 -1 0.5 -1.5l0.5 -0.5
h36q1 0 1 -2v-2q0 -2 -0.5 -3t-2.5 -1h-29q-1 0 -1 -2.5v-2.5q0 -5 1.5 -10t1.5 -10q-5 0 -7 4t-2.5 9t-2 8.5t-6.5 3.5h-24q-1 0 -1.5 -2t-0.5 -3q0 -3 1 -6t1 -5v-4t-2 -2t-3.5 2.5t-2 5.5t-0.5 6v4q0 4 1 7t6 4h4.5t8 0.5t8 0.5h4.5v3t0.5 4.5t1 4.5t0.5 3q0 2 1 2.5
t1.5 1t1.5 1t1 2.5q0 3 -3.5 8t-8 10.5t-9 10l-7.5 7.5q-1 1 -3 3.5t-5 5.5l-5.5 5.5l-3.5 3.5l-1 1t-1 2v0q0 3 1.5 3h2.5h3q1 -1 5 -5.5t9 -10.5t11 -12.5t11 -12t8 -9t4 -3.5v0h1q4 3 7.5 6t3.5 8q0 2 -1 5.5t-3 7.5t-4 7.5t-3 5.5t-3 5t-3.5 6t-3 5.5l-1.5 2.5
q-1 2 -3 3.5t-4 3.5t-3 4t-1 5zM71 12v1l2 3h5h7.5h7.5h5q8 0 18.5 -0.5t22.5 -1t22.5 -2t18.5 -3.5v-1v-2t-2 -2h-5q-12 0 -24.5 1t-25 2.5t-24.5 2t-25 -0.5l-1 1t-2 1v1z" />
</svg>
