<?xml version="1.0" standalone="no"?>
<!DOCTYPE svg PUBLIC "-//W3C//DTD SVG 1.1//EN" "http://www.w3.org/Graphics/SVG/1.1/DTD/svg11.dtd" >
<svg xmlns="http://www.w3.org/2000/svg" xmlns:xlink="http://www.w3.org/1999/xlink" version="1.1" viewBox="-10 0 266 256">
   <path fill="currentColor"
d="M62 244v1.5t0.5 2.5l1 2t2.5 1t3.5 -1t1.5 -3q0 -4 0.5 -13.5t1 -20t1 -20t0.5 -13.5q0 -1 0.5 -4.5t1 -7.5t1 -7.5t0.5 -5.5l1 -0.5l1 -0.5q3 -1 7 -1.5t8 -0.5h8h7l3 -3l-2 -2h-17l-1 -0.5t-1 -1.5v-1q0 -3 3 -4.5t6.5 -3t7 -2.5t5.5 -2v-1q0 -2 -2 -2.5t-3 -0.5
q-4 0 -8 1.5t-7.5 3t-7.5 3t-8 2.5q-1 -1 -1 -2v-3q0 -6 4 -9t9.5 -4.5t12 -2t10.5 -0.5l0.5 -1t0.5 -2l-0.5 -0.5l-0.5 -0.5q-1 0 -4 -0.5l-3 -0.5q-5 0 -11.5 0.5t-13 2.5t-10.5 5.5t-4 10.5q0 2 1 4.5t2.5 5t2.5 4.5t1 4q0 3 -1 7t-2.5 8t-3 7.5t-1.5 7.5
q-2 16 -2.5 32.5t-0.5 32.5zM182 250q1 1 2 1h2q2 0 3.5 -1t2.5 -2.5t1 -3.5v-4v-2q-2 -19 -3 -38t-3 -39q-2 -3 -2 -6v-7q0 -5 1 -9t1 -9q0 -8 -5.5 -11.5t-13 -4.5t-15.5 -0.5t-13 0.5q0 2 3 4q3 1 9 1t11.5 1t10 3.5t4.5 7.5q0 2 -1 3t-3 1q-3 0 -5.5 -1.5t-4.5 -1.5
q-6 -1 -10 -1.5t-10 -0.5h-4t-2 3v0.5v1.5q3 1 8 1t10 1t8.5 2t3.5 4v1.5v0.5q-2 1 -7 1t-10.5 1t-9.5 1.5t-4 2.5t1 2.5t3 0.5q8 0 16 -2.5t15 -2.5h1q0 1 1.5 2l1.5 1q3 25 5 49t1 49zM118 244q0 2 1 2.5t3 0.5q3 0 4 -1t1 -5v-5.5v-8.5v-7.5v-5.5t0.5 -5t0.5 -5.5
t0.5 -4.5l0.5 -2l2 -2h3.5t8.5 -0.5t10 -0.5h9h2l3 -3v-1q0 -2 -2 -2h-3q-7 0 -14 0.5t-14 0.5q-1 0 -3 0.5t-2 -1.5v-3v-3q0 -4 1 -6.5t1 -6.5q0 -1 -0.5 -2.5t-1 -3.5t-1.5 -3.5t-2 -1.5t-2 0.5t-1 1.5q-2 3 -2 7v8v7v6l-1 2h-29q-1 0 -1 1.5v2.5q0 2 1.5 2.5t3.5 0.5h1
q1 0 3 -0.5t5 -0.5t5 -0.5t3 -0.5h3h3.5t1.5 3v3v3v3v3q0 8 -1 16.5t-1 17.5zM90 233v6q4 0 7 -2.5t4 -6.5q1 -2 3 -6.5t3 -7t2 -3.5v-5q-1 0 -3.5 0.5t-3.5 1.5zM138 202q0 2 1.5 8t4.5 12.5t6 11t6 4.5q1 -1 1 -3.5v-3.5v-2v-2l-1 -1l-2 -2l-2 -2l-1 -1l-2 -6l-2 -6t-3 -5
t-6 -2zM153 161q-3 0 -5.5 3t-4.5 7t-3.5 8t-1.5 6h4l1 -1.5t2.5 -3.5t3 -4.5t2.5 -4.5t2 -3.5t1 -3.5v-2t-1 -1zM99 163q0 1 1 4.5l2 7t3 6t5 2.5q2 0 2 -1.5v-2.5q0 -5 -2 -8.5t-6 -9.5l-1.5 -0.5l-1.5 -0.5q-1 0 -1.5 1t-0.5 2zM74 81v2l0.5 1.5t1 2.5l1 2l0.5 1
q2 6 5.5 8t7 3t9 0.5t11.5 -0.5h4q2 0 4.5 -0.5t4.5 -0.5h3h11.5t17.5 -0.5t17.5 -1t11.5 -0.5q3 -1 5.5 -3t3.5 -5t1.5 -6t0.5 -6v-2v-2q-1 -1 -2.5 -1.5t-3.5 -0.5q-3 0 -4 2.5t-1.5 5.5t-1 5.5t-1.5 4.5t-5 3t-9 1.5t-10 0.5h-7h-3h-3h-3h-3q-1 -2 -1 -3.5v-2.5v-3
q0 -1 1 -2h12t11 -1t8.5 -4t3.5 -10v-2v-2l-3 -3q-2 2 -3 4t-2 5t-3 4.5t-5 1.5h-19l-0.5 -3t-0.5 -4v-2q0 -3 2.5 -4t7 -1.5t9.5 -1.5t9 -4t7 -8.5t3 -15.5v-5t-1 -5q-1 -3 -4 -4t-6 -1.5t-6 -0.5t-5 -1h-3.5h-5.5t-6 -0.5t-4 -0.5h-0.5h-1.5h-12t-11.5 0.5t-10.5 3t-8 6.5
v3v3v3v2v8t1 7.5t3.5 6t7.5 3.5q1 0 4 0.5t6.5 0.5h6h4.5q3 3 4.5 5.5t1.5 6.5v3l-3 2h-21q-2 0 -3 -1.5t-2 -3.5t-2 -3.5t-3 -1.5v0.5t-1 0.5l-1 1l-2 2v0q0 5 4.5 8t10 3.5t11.5 0.5t9 -1q1 1 1 1.5v1.5v2l-0.5 2.5t-0.5 3.5h-3h-4.5h-4.5h-3q-10 0 -14.5 -0.5t-7 -1.5
t-2.5 -3t-0.5 -4t-2.5 -5t-7 -7q-1 1 -2 3t-1 4zM105 55q-1 0 -2.5 -1t-2.5 -1.5t-2.5 -2t-1.5 -3.5l0.5 -1t1.5 -2q7 -1 13 -1.5t11 -0.5h11h13h18q1 0 1 1v2q0 5 -3 7t-7.5 3t-9 1h-7.5h-8h-7.5t-7.5 -0.5t-10 -0.5zM96 31q0 -4 7 -6t15 -3t15.5 -1h9.5q5 0 10 1.5t11 1.5
q2 2 2.5 4t0.5 4q0 1 -0.5 2.5t-1.5 1.5h-67q-1 0 -1.5 -2t-0.5 -3z" />
</svg>
