<?xml version="1.0" standalone="no"?>
<!DOCTYPE svg PUBLIC "-//W3C//DTD SVG 1.1//EN" "http://www.w3.org/Graphics/SVG/1.1/DTD/svg11.dtd" >
<svg xmlns="http://www.w3.org/2000/svg" xmlns:xlink="http://www.w3.org/1999/xlink" version="1.1" viewBox="-10 0 266 256">
   <path fill="currentColor"
d="M185 244l0.5 0.5t0.5 1.5h1q4 0 6 -4t3.5 -10.5t2 -14t1 -14.5t1 -13t1.5 -8v-62q0 -5 -3.5 -7.5t-7.5 -4t-7.5 -4t-3.5 -7.5v-3v-3l7.5 -7.5t7 -6t6 -6.5t2.5 -11q0 -6 -1 -11t-3.5 -9t-6 -6.5t-9.5 -2.5q-13 0 -22.5 3.5t-17.5 14.5q-1 0 -1.5 1.5t-0.5 2.5v15v10v9
t0.5 8.5t1.5 10.5l-8 115q-1 1 -1.5 5t-0.5 6t0.5 3.5t2.5 1.5t3.5 -1.5t2.5 -4t1.5 -5t0.5 -3.5q1 -4 1 -11.5t0.5 -17.5t1 -20.5t1 -20t1 -17t0.5 -11.5v-3v-7v-6v-3q0 -1 0.5 -2t0.5 -2.5t0.5 -3l0.5 -1.5l-0.5 -1t-0.5 -2.5t-0.5 -2.5l-0.5 -1v-1v-1q0 -2 0.5 -6.5
t0.5 -9.5t0.5 -9.5t0.5 -6.5q1 -4 4 -7t7 -4.5t8 -2t8 -0.5q9 0 12 5t3 15v3t-2 3l-18 13l-0.5 1.5t-0.5 2.5q-1 1 -2 4.5l-1 3.5v1v1q0 2 0.5 5.5t0.5 6v2.5l3 4l18 7l4 10v38q-5 14 -7 29t-3 29v4v5v4v5zM81 222v1l0.5 2t0.5 4.5t0.5 4.5t0.5 3h1h1q6 0 7 -7q0 -49 2 -98
q0 -1 1 -1.5t2 -0.5h2q1 1 3.5 4t2.5 4q1 3 1.5 12t1.5 19.5t1.5 19.5t0.5 12v14q1 2 1.5 2h1.5q3 0 4 -2.5t1.5 -6t0 -7t-0.5 -4.5v-12q0 -3 -0.5 -10t-1.5 -15t-1.5 -15.5t-1.5 -10.5q-1 -4 -4.5 -6.5t-6.5 -4.5t-5.5 -3t-2.5 -2v-3.5v-3.5q0 -5 0.5 -7.5t2 -3.5t3 -1.5
t3.5 -0.5t4.5 -1t4.5 -4t4 -7.5t3 -10t1 -10.5v-9v-2q0 -1 -0.5 -4t-0.5 -5.5t-0.5 -4.5l-0.5 -2l-3 -3q-3 2 -3.5 6.5t-1 11t-0.5 13t-1 12t-3.5 9t-7.5 3.5v0h-1l-0.5 -1l-0.5 -1v-4t-0.5 -6t-0.5 -6v-4q0 -12 1 -22.5t1 -22.5v-8q-1 -1 -3 -1h-3h-3q-1 0 -1.5 3.5
t-0.5 4.5v1v1q0 6 1 12t1 13q0 10 -0.5 20.5t-3.5 20.5h-1v0q-4 0 -6.5 -2.5t-4.5 -6t-3 -7.5t-1 -7v-5.5v-7.5v-8.5v-5.5q-1 -2 -3 -3t-4 -1q-1 0 -2 0.5t-1 3.5v3v4.5v4.5v2q0 9 0.5 16.5t3.5 13.5t8 10t14 5q2 4 2 7v8q0 4 -1.5 5.5t-4 2t-5.5 1t-5 2.5q-3 2 -5 6.5
t-4 7.5q0 3 -1 8.5t-2 12t-2 12.5t-1 8v3v5.5v6.5v5v5v5.5v6.5v4q-1 3 1.5 3.5t3.5 0.5l1.5 -0.5l1.5 -0.5q1 -2 1 -10t0.5 -18.5t1.5 -22t2.5 -21t5 -15.5t7.5 -5q1 0 2 1.5t1 2.5v18q0 17 -1.5 34t-1.5 34z" />
</svg>
