<?xml version="1.0" standalone="no"?>
<!DOCTYPE svg PUBLIC "-//W3C//DTD SVG 1.1//EN" "http://www.w3.org/Graphics/SVG/1.1/DTD/svg11.dtd" >
<svg xmlns="http://www.w3.org/2000/svg" xmlns:xlink="http://www.w3.org/1999/xlink" version="1.1" viewBox="-10 0 266 256">
   <path fill="currentColor"
d="M116 249q1 1 2 1.5t2 0.5q4 0 5.5 -4.5t2.5 -11.5t0.5 -15t0 -14.5t1.5 -11t4 -4.5q8 0 11.5 4t5.5 10.5t2 14t0.5 14t1 11.5t3.5 5q2 1 3 -1t2 -5t1 -6v-4q0 -3 -1 -9.5t-3 -13.5t-4.5 -13t-5.5 -8.5t-6.5 -3t-6.5 -1t-5 -2t-2 -7.5v-4t2 -4q10 -1 17.5 -1.5t12.5 -3.5
t7.5 -9.5t2.5 -17.5q-4 0 -6 1.5t-3 4.5t-1.5 6t-3 6t-7 5t-12.5 2q-3 0 -4.5 -2t-2 -4.5t-0.5 -4.5v-6v-2.5v-3.5q2 -2 5.5 -3t6.5 -2t6 -2.5t5 -3.5q0 -1 0.5 -4t1 -6.5t0.5 -6.5t1 -4v-1v-1q-1 0 -1.5 -1.5l-0.5 -1.5h-1q-2 0 -3.5 1.5l-3.5 3.5h-15q-2 0 -6.5 0.5
t-9.5 0t-9 -2t-5 -4.5q-2 0 -2.5 2t-0.5 4v4v3v4.5v5.5t1 5.5t3 3.5l14 3l3 3v2v3v7t-3 6h-5q-7 0 -11.5 -1t-7 -3.5t-3.5 -7t-2 -11.5q0 -1 -2.5 -2.5t-3.5 -1.5t-2.5 1t-1.5 2l-0.5 2t-0.5 3t0.5 3l0.5 2q3 15 13 19.5t23 3.5l5 5v12h-4.5t-6 -0.5t-6 0t-5.5 1.5
q-4 3 -7.5 9.5t-6 15t-4 16t-1.5 11.5v3.5t3 1.5q2 0 4.5 -4t3.5 -9t2 -9.5t2 -6.5q0 -1 0.5 -3l1 -4l1 -4t0.5 -3q1 -3 4 -4l6 -2t6 -1h6v6.5t0.5 9.5t0.5 9v6q0 1 -0.5 3t-1 4.5t-1.5 5t-1 3.5v6v7zM191 140l0.5 0.5t1.5 0.5h1t2.5 -1t2.5 -3l2 -4t1 -4t-0.5 -3.5
t-1.5 -2.5q1 -17 0.5 -35.5t-1.5 -35.5q-1 -6 -4.5 -9.5t-9 -5.5t-12 -3t-13 -1.5t-12.5 -0.5h-10v-5.5t-0.5 -7t-2 -6.5t-5.5 -3l-2.5 0.5t-2.5 1.5v20l-45 4q-7 1 -11.5 5.5t-7.5 11t-4.5 15t-2 16.5t-0.5 16v12v4v6.5v6.5v5q1 1 2 1h2q3 0 4.5 -4t2 -10t0 -14t-1 -15
t0.5 -12t3 -7q11 1 22 -2q1 0 5.5 -1t9 -2.5t7.5 -3.5t3 -3v-19q0 -1 3.5 -2t8 -1.5t8 -0.5h4.5q6 0 8 2t3 5.5t1 7.5q0 3 1 7t4.5 6.5t11.5 3.5h4t6.5 0.5t6.5 0.5h4l3 3l0.5 2t0.5 4.5t0.5 5t0.5 3.5v5v5q0 8 -1 16t-1 16v9zM108 121q0 -4 2.5 -6t6.5 -2.5t8 -0.5h7h2h4h5
h2q2 1 2 1.5v1.5q0 5 -2 7t-5.5 2.5t-7 0t-6.5 0.5q-1 0 -2.5 0.5t-2.5 0.5h-2.5h-3.5h-3h-3q-1 -1 -1 -2v-3zM140 79l1 1.5t2 2.5l2 2l2 2q1 0 4.5 2.5t7.5 5t7.5 4.5t4.5 3h2q2 0 3.5 -1t1.5 -3t-5 -5.5t-11 -7.5t-11.5 -6.5t-7.5 -2.5h-1l-1 0.5l-1 0.5q-1 0 -1 1v0
q0 1 1 1zM77 96q0 2 1 2.5t3 0.5t9 -2.5t14.5 -5.5t13.5 -6t6 -5q0 -1 -1.5 -2.5t-2.5 -1.5q-3 0 -4 0.5l-2 1l-2 1l-3 1.5q-2 2 -7 4t-11 4.5t-10 4.5t-4 3zM69 59q0 -5 3.5 -9t9 -6t11 -2.5t9.5 -0.5q3 0 4.5 2t1.5 5q0 6 -3.5 9t-8 4.5t-10 2t-10.5 0.5h-5q-2 -1 -2 -2
v-3zM156 48q0 -3 0.5 -4.5t3.5 -1.5q4 0 9.5 0.5t10.5 1.5t8 4.5t3 9.5v1q0 1 -1 2t-2 1h-9h-9t-7.5 -1.5t-5 -4.5t-1.5 -8z" />
</svg>
