<?xml version="1.0" standalone="no"?>
<!DOCTYPE svg PUBLIC "-//W3C//DTD SVG 1.1//EN" "http://www.w3.org/Graphics/SVG/1.1/DTD/svg11.dtd" >
<svg xmlns="http://www.w3.org/2000/svg" xmlns:xlink="http://www.w3.org/1999/xlink" version="1.1" viewBox="-10 0 266 256">
   <path fill="currentColor"
d="M147 196q5 2 5.5 6.5t2.5 9.5q3 9 9 16.5t13 14.5q4 3 7.5 5.5t8.5 2.5h2h1q0 -1 0.5 -3t0.5 -4q0 -1 -4 -5t-9 -8.5t-9.5 -8.5t-5.5 -5v-2q0 -1 1 -4t3 -5.5l4 -5t3 -3.5q6 -1 11 -2.5t9 -4.5t6.5 -7.5t2.5 -11.5q0 -6 -2 -9.5t-4.5 -5.5t-5.5 -3.5l-6 -3t-4.5 -4.5
t-1.5 -8q0 -4 1 -6t3 -3t4.5 -2t3.5 -5q2 -2 3 -6t1.5 -8t0.5 -8v-7q0 -8 -0.5 -15.5t-0.5 -15.5v-3v-3t0.5 -4.5t0.5 -5v-3.5q0 -3 -2.5 -4t-4.5 -1q-3 0 -3.5 1t-0.5 4v3v5v4v3t-1 1h-2q-2 0 -5.5 -1.5t-7 -4t-6 -6t-2.5 -5.5q0 -5 1 -10t1 -10q0 -4 -2.5 -7t-6.5 -3
q-1 0 -2 0.5t-2 1.5v5.5v7.5v8v5t-0.5 3.5l-0.5 2.5l-18 18h-5v-22q0 -1 -2 -2.5l-2 -1.5h-0.5h-0.5h-0.5h-0.5q-1 1 -2 1.5l-1 0.5v71q0 6 1.5 9.5t4.5 6t7 4.5t9 4q1 2 1.5 3.5t0.5 3.5q0 5 -3.5 6.5t-8 2.5t-8.5 3t-6 7v11v6.5t0.5 6.5t2.5 5t5 4q1 0 3.5 0.5t5.5 1
t5.5 1t3.5 0.5zM74 247q0 1 0.5 1.5t1.5 0.5h1q2 0 3.5 -1.5t2.5 -3.5q2 -12 2 -24v-24q0 -18 -1 -36t-1 -36v-1q1 -1 1.5 -3.5t3.5 -2.5q1 0 2 1t2 2.5t1.5 3.5l0.5 2q0 1 0.5 3t0.5 4.5t0.5 5t0.5 3.5q0 3 0.5 10t0.5 15t0.5 16t0.5 11v28q0 2 0.5 2.5t2.5 0.5t3 -1t3 -2
q1 -2 1.5 -6t0.5 -6v-1q0 -11 -1 -23t-2 -23.5t-2.5 -23t-2.5 -21.5q-1 -4 -4 -5.5l-6 -3t-5.5 -3t-2.5 -5.5q0 -3 2.5 -5t5.5 -4l6 -4t4 -5q2 -8 2 -16q0 -9 1 -16v-1.5v-1.5v-3t-1 -3.5l-2 -3t-3 -1.5q-1 0 -1.5 7.5t-1 15.5t-1.5 15.5t-3 7.5h-8v-6v-8.5v-7.5v-6
l-0.5 -2.5t-0.5 -3.5v-33q0 -2 -2 -2.5t-3 -0.5q-3 0 -4.5 1t-1.5 4q0 1 0.5 4t0.5 4v57q0 1 -1 1h-2q-5 0 -7 -3.5t-2.5 -8.5t-0.5 -11v-11.5t-1.5 -9t-5.5 -3.5q-1 0 -2.5 0.5t-0.5 3.5v2q0 1 -0.5 3t-0.5 3v2q0 4 0.5 8.5t1 9.5t1.5 9.5t2 7.5q2 3 5 4t6.5 2t6 2t2.5 6
q0 3 -1.5 4.5t-3.5 2.5t-4 1.5t-4 1.5q-4 2 -6 6t-3 8.5t-1.5 9t-0.5 7.5v6v11v11v6q0 1 -0.5 4.5t-0.5 8t-0.5 8.5t-0.5 5l0.5 1.5t0.5 3t0.5 3l0.5 1.5v4q0 2 -1 4t-1 5q0 2 2 3t3 1q3 0 4 -1.5t2 -3.5v-22v-23q0 -12 1 -23.5t2 -22.5q1 -2 1.5 -4t2 -4.5t3 -4t4.5 -1.5
q2 0 3 2t1 4q0 5 -1 10.5t-1 11.5v8.5t2 8.5q0 3 -0.5 11t-1 17t-0.5 17v11v15v14zM156 163l-1 -0.5t-2 -0.5h-1q-3 0 -3.5 3.5t-0.5 8.5t-0.5 8.5t-4.5 3.5q-9 0 -11.5 -5.5t-2.5 -13.5q0 -6 4.5 -8t9.5 -3.5t9.5 -3t5.5 -6.5v-6.5t0.5 -4t2.5 -2.5t6 -2h3q4 0 5.5 2.5t2 6
t1 7.5t1.5 7q2 3 4.5 4t5.5 2t5 2.5t2 6.5v5t-1 6t-3 4.5t-5 1.5t-3.5 -2.5t-0.5 -6t-1 -7t-5 -5.5l-1 0.5t-2 1.5v3.5t-0.5 6t-0.5 6v3.5q-1 2 -1.5 4.5t-2 4.5l-3 4t-3.5 2t-3 -1.5t-2 -3.5t-1 -3.5v-3.5q0 -1 -0.5 -4.5t-0.5 -8t-0.5 -8t-0.5 -5.5zM137 121
q-2 -1 -3.5 -3t-1.5 -5q0 -2 1 -2.5t4 -0.5t9.5 -0.5t13.5 -1.5t13.5 -1.5t9.5 -1.5h3.5h3.5l-0.5 1.5l-0.5 1.5q-1 3 -1.5 5.5t-1.5 4.5t-3 3t-6 2h-2.5t-5.5 0.5t-6.5 1t-4.5 0.5h-2h-1q-1 0 -3.5 -0.5t-5.5 -1.5t-5.5 -1t-3.5 -1zM131 95v-1q0 -1 2 -2.5t3 -2.5
q10 -1 21 -2t22 -1h2h3.5h2.5h2q2 0 2 2v3q0 4 -7 6.5t-16 3.5t-17.5 1h-11.5h-7q0 -1 -0.5 -3.5l-0.5 -2.5v-1zM136 77q0 -2 1 -3t2.5 -2l3 -2t2.5 -2t3.5 -3t5 -4.5t4.5 -5t3 -3.5l7 3.5t9 6t7.5 6.5t3.5 6q0 1 -0.5 2.5t-2.5 1.5t-7 0.5t-11 1t-11 1t-8 0.5h-1.5h-1.5
h-2.5t-3 -0.5t-2.5 -1.5t-1 -2z" />
</svg>
