<?xml version="1.0" standalone="no"?>
<!DOCTYPE svg PUBLIC "-//W3C//DTD SVG 1.1//EN" "http://www.w3.org/Graphics/SVG/1.1/DTD/svg11.dtd" >
<svg xmlns="http://www.w3.org/2000/svg" xmlns:xlink="http://www.w3.org/1999/xlink" version="1.1" viewBox="-10 0 266 256">
   <path fill="currentColor"
d="M154 185v62q0 1 1 2t2 1q2 1 4 -1t2.5 -4.5t1 -5.5t0.5 -5q0 -10 -1 -19.5t-1 -19.5v-2q0 -3 0.5 -5.5t1 -4t1.5 -1.5h33q1 0 2 -1.5t1 -2.5l-0.5 -1.5l-0.5 -1.5l-1.5 -1.5l-0.5 -0.5h-33q-1 0 -1.5 -1.5t-0.5 -3t-0.5 -3.5t-0.5 -3v-2q5 -1 10.5 -2t9.5 -5q2 -2 3.5 -5
t2.5 -6t3 -5.5t5 -2.5h1h1q1 0 3 1l2 1q2 0 3.5 -2t1.5 -4l-0.5 -1.5t-1 -2l-1 -1l-0.5 -0.5h-12l-0.5 -0.5l-1 -1t-1 -2.5t-0.5 -3v-1v-1l0.5 -1.5t1.5 -2.5l0.5 -1l0.5 -1h13q1 0 1.5 -2.5t0.5 -3.5q-1 -3 -2.5 -3.5t-4.5 -0.5h-3.5h-2.5t-3.5 -2.5t-3.5 -2.5h-0.5h-0.5
q-2 0 -3.5 1t-3 2.5t-3.5 2.5t-5 1q-5 0 -7.5 -3.5t-2.5 -9.5q0 -1 0.5 -2l1.5 -3q10 -1 16 -2t9.5 -4.5t4.5 -9.5t1 -17v-3v-4v-5v-3q0 -6 -4.5 -9t-10.5 -4t-11.5 -1h-9.5h-3.5h-4.5q-3 0 -5 0.5t-3 0.5q-6 0 -10 2.5t-6 6t-3 8.5t-1 11q0 10 1.5 16t5 9.5t9.5 5t15 2.5
q1 2 1.5 3.5t0.5 3.5q0 8 -2 10.5t-9 2.5h-5q-2 -1 -3 -2.5t-1.5 -3t-2 -2.5t-3.5 -1l-1.5 2t-4 4.5t-6 5t-8.5 2.5v2q0 3 2.5 3.5t6 0.5t6 0.5t2.5 5.5q0 3 -2 5.5t-4 3.5t-5 1.5t-6 0.5v6h15l0.5 1t0.5 2q3 5 5 8.5t4 5t6 2.5t10 2q2 1 2 4v6v2.5v1.5l-3 2q-2 0 -4.5 -0.5
t-5.5 -0.5t-5 0.5t-3 0.5q-2 0 -4.5 -0.5t-5.5 0.5t-5.5 2.5t-2.5 4.5h36zM70 243q-1 5 1 5.5t4 0.5q5 0 6 -3t3 -8q-3 -23 -3.5 -46.5t-0.5 -45.5v-5q0 -3 0.5 -6.5t2 -6.5t4.5 -3q2 0 3.5 3t2.5 7.5t1.5 8.5t0.5 6v4t0.5 5.5l1 5t0.5 3.5v11v17v17v12h1h2.5t2.5 -0.5
t2 -2.5v-6v-6q0 -2 -0.5 -9t-0.5 -15t-0.5 -15t-0.5 -9v-9t-0.5 -10.5t-1.5 -10t-3 -7.5t-5 -4.5t-6 -2.5t-5 -2.5t-2 -3.5q0 -8 1 -11.5t2 -5t3 -1.5t4 -0.5t4.5 -2t5 -5.5t4 -9t1.5 -10v-10v-10v-16q-2 -4 -5 -4q-1 0 -2.5 1t-0.5 3v7v10v10v7q0 3 -1 6l-2 6t-3 5t-5 2
h-2.5t-1.5 -1q-1 -18 -1.5 -35t-1.5 -34q-1 -2 -2 -2h-2h-2h-1v1.5t-0.5 3.5t-1 3.5t-0.5 2.5v0q0 10 1 20t1 19v4v4.5v5.5v3q1 4 -0.5 5t-3.5 1q-3 0 -5.5 -3t-3.5 -7.5t-1 -8.5v-7q0 -1 -0.5 -4.5t-0.5 -8.5q0 -4 0.5 -7.5t0.5 -5.5l-3 -1.5t-3 -0.5h-2.5t-1.5 2v4v3
q0 12 0.5 23t3.5 21q2 3 5 5t6.5 3.5t6 2.5t2.5 2v19l-3.5 3t-8 8t-8.5 11t-4 13l-7 78q0 1 0.5 1.5t1 0.5t2 1l1.5 1h0.5h0.5q2 0 3 -1.5t1.5 -3t0.5 -3.5v-3t0.5 -6t1 -10.5t0.5 -10.5v-6q0 -3 1 -10t2 -15t2 -15t2 -10l3.5 -3.5t4.5 -1.5q1 0 2 0.5t1 2.5v8v11v11v8v34
t-2 34zM137 141q0 -2 1.5 -3t3.5 -1.5t4 -0.5h2q3 0 5 1t2 4q0 5 -1 8t-6 3q-4 0 -7.5 -2.5t-3.5 -8.5zM163 142v-2.5v-2.5q2 -2 4 -2h5t4.5 0.5t3.5 3.5q0 2 -1 4l-2 4t-3 3.5t-3 1.5q-5 0 -6.5 -3t-1.5 -7zM136 120q0 -3 1 -4.5t3 -2.5t4 -1h6t5 3t2 6t-1 4.5t-2.5 2.5
t-4 1h-4.5h-2.5h-3.5q-2 -2 -2.5 -4.5t-0.5 -4.5zM163 122l0.5 -2l1 -4t1.5 -3.5t2 -1.5h12l1 1t1.5 2.5t0.5 2.5v2q0 4 -3 6t-6 2h-3t-3.5 -0.5t-3 -1.5t-1.5 -3zM133 61q0 -1 0.5 -2.5t2.5 -2.5h3h4q7 0 9.5 1.5t2.5 9.5q0 5 -1.5 7t-6.5 2q-7 0 -9.5 -3.5t-4.5 -11.5z
M176 54h4.5h3.5q2 2 2 3v3q0 9 -5 12.5t-12 3.5h-1h-2t-2 -0.5t-1 -1.5v-16l0.5 -1t1.5 -1q1 -1 2.5 -1.5t2.5 -0.5h2.5h3.5zM134 42q0 -5 4.5 -8t8.5 -3t5.5 2.5t1.5 6.5v2q0 1 -0.5 2l-1 2t-1.5 1h-14q-2 0 -2.5 -1.5t-0.5 -3.5zM163 36q0 -3 3.5 -4t6.5 -1q5 0 8.5 1
t3.5 7v1v2.5t-0.5 2t-1.5 0.5h-17l-1 -2.5t-2 -4.5v-2z" />
</svg>
