<?xml version="1.0" standalone="no"?>
<!DOCTYPE svg PUBLIC "-//W3C//DTD SVG 1.1//EN" "http://www.w3.org/Graphics/SVG/1.1/DTD/svg11.dtd" >
<svg xmlns="http://www.w3.org/2000/svg" xmlns:xlink="http://www.w3.org/1999/xlink" version="1.1" viewBox="-10 0 266 256">
   <path fill="currentColor"
d="M119 245q0 2 0.5 4t2.5 2q3 0 5 -3t3 -7t1.5 -8t0.5 -5v-7v-10v-9.5v-6.5l2 -2h1.5h1.5q7 0 13 0.5t12 1.5q5 1 5.5 4t0.5 9v5v8v8.5v5.5l1 3h2h2q5 0 6 -4t1 -8q0 -3 -0.5 -9t-1.5 -12t-3 -10.5t-6 -5.5l-37 -5v-11q0 -1 4 -1.5t10 -0.5h13t13.5 -1.5t11 -5.5t4.5 -11
v-4t0.5 -7.5t0.5 -9v-6.5l0.5 -1.5t0.5 -2.5t-0.5 -2l-0.5 -1v-4v-6t-0.5 -5.5t-0.5 -3.5q-1 -3 -2.5 -4.5t-4.5 -2.5q-12 -3 -23 -3.5t-23 -1.5v-8h1h2q3 0 9 -0.5t12 -0.5t10 -0.5t5 -0.5q6 0 10 -3t4 -10q0 -5 -1.5 -8t-5.5 -6q-11 -1 -22.5 -1.5t-22.5 0.5q-2 0 -2.5 -1
t-0.5 -2t0.5 -2.5t1.5 -1.5h36q1 0 5 -1.5t5 -3.5q0 -1 0.5 -2.5t1 -3.5l1 -4t0.5 -3v-1q0 -2 -1 -2.5t-4 -0.5t-4 2.5t-2 5.5t-4.5 5.5t-12.5 2.5h-4.5h-7t-6.5 -1t-3 -4v-17l-1.5 -2t-2.5 -2t-2.5 0.5t-2.5 0.5q0 1 -0.5 1.5l-0.5 0.5v18q0 2 -1.5 3t-3 1.5t-3.5 0.5h-3
t-5 -0.5l-8 -1t-7.5 -1.5t-3.5 -3v-10q0 -1 -2.5 -3t-3.5 -2l-0.5 0.5l-0.5 0.5l-1 0.5t-2 0.5v4q0 1 0.5 4.5t1.5 7.5t2.5 6.5t4.5 2.5h33q2 0 2.5 1t0.5 3v0.5v0.5q-5 2 -11 2.5t-12 0.5h-12h-11q-4 2 -4.5 5t-0.5 7q0 1 0.5 4t1.5 5.5t2.5 4.5t4.5 2h40l0.5 1l1 2t0.5 2
v2q-1 0 -3.5 1.5t-3.5 0.5h-23q-4 1 -10 1q-5 0 -9 2q-2 2 -4 5.5t-3 4.5q0 2 -0.5 6.5l-1 9l-1 9t-0.5 5.5v4t0.5 6t0.5 6t1 5q0 2 1 4.5t2.5 5t3.5 4t4 2.5l44 4v11l-1.5 0.5t-2.5 1.5q-13 1 -21 1q-7 0 -11.5 2.5t-6.5 8.5t-4 19q0 5 -2 9.5t-2 8.5v1l1 3h4q6 0 7.5 -3.5
t1.5 -8.5t-0.5 -11t2 -11t9 -8.5t20.5 -3.5h3t2 1v25q-2 3 -2.5 6t-0.5 7v7.5v6.5zM74 128q0 -3 1.5 -6t2.5 -6v-6t0.5 -5.5t2.5 -4.5t5 -3q6 -1 13.5 -1h13.5h12q-2 6 -8.5 9t-14 5t-13 5t-5.5 9q6 0 11.5 -2.5t10.5 -5.5t9.5 -5.5t9.5 -2.5v13q0 1 -0.5 1.5t-1.5 0.5
q-3 2 -8.5 2.5t-8.5 0.5l-1 1l-2 2v0v0v1v0l2 2l1 1h6t5.5 0.5t4.5 2.5t2 5v3.5t-2 2.5q-1 0 -4 0.5t-4 0.5q-8 0 -10.5 -1t-3 -3t-0.5 -5t-4 -8q-2 2 -3 4.5t-1 4.5q0 7 3 10t8 4t10.5 1h9.5h9q3 0 6.5 -0.5t6.5 -0.5t9 -1q7 -1 8.5 -3.5t1.5 -10.5v-3v-3l-0.5 -0.5
l-1.5 -1.5v0q-3 0 -3 3t-1 5.5t-4.5 5.5t-12.5 3q-2 0 -4 -0.5l-2 -0.5q-1 0 -2 -0.5l-1 -0.5v-10q0 -3 3 -3.5t7 -0.5t7 -0.5t3 -4.5v-1q-3 -1 -8.5 -1t-8.5 -2l-0.5 -0.5t-0.5 -1.5v-10l1 -1l1 -1h1.5t1.5 1q1 0 2 1t2.5 2t2.5 2t2 1t3.5 1.5t5.5 3l6 3t4 2.5h2q4 0 4 -3
q0 -4 -5.5 -6.5t-12 -5.5t-12 -6t-5.5 -8h19t18 1q3 2 4.5 6t2.5 8t1 8v7q0 10 -1 16.5t-3.5 10.5t-8 6.5t-15.5 3.5q-1 0 -4 0.5t-6 0.5h-7h-4h-5h-7t-5.5 -0.5t-3.5 -0.5q-8 0 -14 -0.5t-10.5 -3t-7.5 -7t-3 -11.5q-1 -4 -2.5 -7.5t-1.5 -6.5zM88 71q-3 -1 -4 -4.5
t-1 -6.5q0 -2 4 -3t9 -1.5t10 -0.5h7q5 0 8.5 1.5t3.5 7.5q0 1 -0.5 3.5t-1.5 3.5q0 1 -0.5 1.5l-0.5 0.5h-5h-5h-12t-12 -2zM134 73v-17q8 0 19.5 0.5t20.5 1.5q2 1 3 4t1 6t-2 4t-5 1h-37z" />
</svg>
