<?xml version="1.0" standalone="no"?>
<!DOCTYPE svg PUBLIC "-//W3C//DTD SVG 1.1//EN" "http://www.w3.org/Graphics/SVG/1.1/DTD/svg11.dtd" >
<svg xmlns="http://www.w3.org/2000/svg" xmlns:xlink="http://www.w3.org/1999/xlink" version="1.1" viewBox="-10 0 266 256">
   <path fill="currentColor"
d="M128 249q0 2 2 2h3q2 0 4.5 -0.5t2.5 -3.5q0 -8 -2 -15t-2 -16v-2v-3v-3.5v-2.5q1 -3 2 -5t2.5 -3t3 -2.5t3.5 -4.5q10 -11 14 -24.5t2 -28.5l2 -2l1.5 -0.5l3 -1l3 -1t2.5 -0.5h1q2 0 4.5 5t4 11.5t2.5 12.5t1 8v1.5v0.5q-7 1 -13 3.5t-13 4.5v1v1q0 3 1 4t4 2q1 0 3 -1
l4 -2l4 -2t3 -1h1h1q2 0 3 1.5t2 2.5l7 61l0.5 0.5l0.5 0.5q0 1 1.5 1.5l1.5 0.5q4 0 4.5 -3.5t0.5 -6.5q0 -7 -1 -15t-2 -15.5l-2 -15t-1 -15.5q0 -4 1.5 -7.5t3.5 -7t4 -6.5t4 -7q1 -4 1.5 -8.5t1 -9.5t0.5 -10v-8v-2v-3.5v-2.5v-2q-1 -4 -4 -6.5t-7 -4t-8 -2t-7 -0.5
q-1 -1 -1.5 -3.5l-0.5 -2.5q0 -1 1 -4l1 -3v-3.5v-5.5v-5.5v-3.5q2 -3 5 -4.5t6.5 -1.5h7.5h7v-9h-25v-26q0 -2 -1.5 -3.5t-3.5 -1.5h-2.5t-1.5 2q0 1 -0.5 3.5t-0.5 5t-0.5 5t-0.5 3.5l0.5 3.5t0.5 7.5t0.5 7.5l0.5 3.5v2q0 7 -1 13t-1 14v3v4v3.5v1.5l3 3h10q6 0 10 2
q1 3 2 5.5t1.5 4.5l1 4t0.5 5q0 4 -0.5 9.5t-1.5 11t-3.5 10t-5.5 5.5q-2 -3 -2.5 -7t-1 -8.5t-2 -8t-4.5 -5.5q-2 0 -5 0.5t-6 0.5t-6 -1t-5 -4q1 -11 1 -17.5t-2.5 -10.5t-8 -6t-15.5 -4q-1 -1 -2.5 -3l-1.5 -2q0 -1 0.5 -3.5t1.5 -3.5l0.5 -1.5t1.5 -1.5q0 -1 0.5 -3.5
t1.5 -5.5t1.5 -5t1.5 -2h20q3 0 3.5 -1t0.5 -2t-0.5 -3t-1.5 -2h-14q-2 0 -2 -2v-3q0 -3 1 -6l2 -6t1.5 -6.5t0.5 -7.5q-5 0 -8 5.5t-5.5 12.5t-4.5 14.5t-3 10.5q-1 2 -1.5 2h-2.5h-0.5h-0.5q-1 -4 -1 -11t-1 -14.5t-2.5 -13t-5.5 -5.5q-3 0 -4 2t-1 5q0 5 1.5 9.5t1.5 9.5
q0 2 -1.5 3.5t-4 1.5h-5h-4.5v-3.5t0.5 -5t0.5 -4.5v-3q0 -3 -1 -3.5t-3 -0.5q-1 0 -2.5 0.5t-1.5 1.5v11q0 7 -1 15t-3 14t-6 6q-3 0 -4 -2t-1 -5q0 -11 1 -22t1 -22v-5v-4q-1 -2 -1.5 -2h-1.5h-2q-1 0 -3 0.5t-2 1.5v60q0 2 -1 2.5t-3 0.5q-3 0 -5 -2t-3 -5l-2 -6t-1 -5
v-29q0 -2 -1.5 -5.5t-3.5 -3.5q-1 0 -1 0.5v0.5q-2 1 -2.5 3t-0.5 4v1v4.5t0.5 7.5t0.5 7.5v4.5v2v3v3v2q1 8 2.5 12t4 6t5 2h5t4 1t1.5 3v22q-10 1 -15 6t-7 11.5t-2 14.5t-1 16v5t-0.5 8.5t-0.5 8.5v4v19v19q0 1 1 1.5t2 0.5t1.5 -0.5l1.5 -1.5q1 -4 1.5 -8t0.5 -9
q0 -4 -0.5 -8.5t0.5 -7.5l0.5 -3t1 -5.5t1 -5.5l0.5 -3v-7.5v-10.5t0.5 -12t1.5 -11t3 -8.5t6 -3.5q1 0 2 2q0 1 0.5 2.5t1.5 2.5v26q0 22 -2.5 43.5t-2.5 42.5q0 2 1 3.5t3 1.5t4 -3t3 -5q0 -28 1 -56t1 -57q0 -1 1 -2.5t3 -1.5q4 0 5.5 3t1.5 5v5v8v8v6q0 16 -1 31t-1 31
v3v4l1 1l1 1h0.5h0.5q2 0 3 -2t1.5 -5t0.5 -5v-3v-81q0 -6 -1 -9t-2.5 -4.5t-3 -2t-3.5 -1t-3.5 -1t-2.5 -2.5v-3v-3q0 -5 0.5 -8.5t1.5 -9.5q6 -1 9.5 -3.5t5.5 -5.5t2 -8t1 -11l3 -3l2 -0.5t3 -0.5q5 0 7.5 0.5t4 2t2.5 4t2 6.5q0 1 0.5 2.5t1 3.5l1 4t0.5 3v1
q-7 4 -11.5 10.5t-7 14t-3.5 15.5t-1 16v4v4t0.5 4l0.5 2v2.5t1 5.5t1.5 5t0.5 3t0.5 4t1 7t1.5 7t2 3q2 0 3 -0.5t1 -2.5q0 -6 -1 -12.5l-2 -13t-2 -13.5t-1 -13v-3v-4v-4v-2q1 -3 2.5 -7t4 -9t5 -8.5t6.5 -3.5q4 -1 9 -0.5t8.5 2.5t6.5 5t3 8v4q0 2 0.5 5t0.5 6v3v12
q0 7 -1 15t-2 15t-4 10q-2 2 -5.5 5t-7 6.5t-6.5 7.5t-4 9v3v4.5v4.5v3v15t2 15zM120 125v7q0 5 0.5 10t1.5 9t3 4h16q1 0 2 -1.5t1.5 -3.5t1 -3.5l0.5 -1.5v-3.5t0.5 -5t0.5 -5v-2.5v-4.5t0.5 -7t0.5 -6.5v-4q-3 0 -4 2t-2 4.5t-1 5v3.5q-1 0 -3.5 0.5t-3.5 0.5
q-4 0 -5.5 -2.5t-1.5 -6t-0.5 -6t-4.5 -2.5v0h-1q0 3 -0.5 5.5t-0.5 4.5v4v5zM136 129q2 0 3 1t1 3v5q0 3 -1 5.5t-2.5 3.5t-4.5 1h-3.5t-2.5 -3v-13q0 -1 1.5 -2t3 -1h2.5h3z" />
</svg>
