<?xml version="1.0" standalone="no"?>
<!DOCTYPE svg PUBLIC "-//W3C//DTD SVG 1.1//EN" "http://www.w3.org/Graphics/SVG/1.1/DTD/svg11.dtd" >
<svg xmlns="http://www.w3.org/2000/svg" xmlns:xlink="http://www.w3.org/1999/xlink" version="1.1" viewBox="-10 0 266 256">
   <path fill="currentColor"
d="M122 247q0 4 4 4q2 0 4.5 -1t2.5 -4v-61q0 -3 1 -3.5t3 -0.5q8 0 13.5 6.5t9.5 15.5t7 17.5t7 13.5h2q6 0 6 -7v-1v-1l-0.5 -0.5t-0.5 -1.5q-3 -8 -7 -15.5t-8.5 -14.5t-10.5 -13t-14 -9q-1 0 -3.5 -0.5l-2.5 -0.5q-1 -1 -1.5 -2.5t-0.5 -3v-3.5v-1v-2.5v-1.5l34 -5
q5 0 7.5 -5t4 -11t2 -12t0.5 -9v-10t-1 -6.5t-4 -4t-9 -2.5h-6t-9 -0.5t-9 -0.5h-5v-6l29 -2q1 0 2.5 -2t2.5 -3.5t1.5 -4t0.5 -3.5t-0.5 -3t-1.5 -4.5t-2.5 -4t-2.5 -1.5h-26l-0.5 -1t-1.5 -1q0 -1 -0.5 -2l-0.5 -1v-1v0q0 -2 1 -2l29 -3q4 0 6 -2.5t3 -5.5t1.5 -6.5
t0.5 -6.5v-1l-2 -1t-3 -2h-1h-1q0 1 -1 1.5t-2 0.5q1 10 -5 14t-15 4h-3h-4q-2 -1 -2.5 -3t-0.5 -4q0 -3 1 -5t1 -5v-4t-0.5 -3.5t-2 -2.5t-3.5 -1h-3q-2 0 -2 1v27l-2 0.5t-3 0.5h-1v0q-1 0 -3 -0.5t-4.5 -0.5t-4.5 -0.5t-3 -1.5q-3 -1 -4 -4t-1 -6.5t-1 -6t-4 -2.5
q-2 0 -3 2t-1 3q0 9 2.5 13.5t7.5 7t11 3t13 0.5l0.5 1.5l0.5 1.5q0 1 -0.5 3t-3.5 1q-7 0 -12.5 -0.5t-9.5 1t-6 5t-2 11.5q0 5 4 7.5t9.5 3t10.5 0.5h8q2 1 2.5 2t0.5 2v2t-2 1l-34 3q-3 0 -5 2t-3.5 4t-2.5 5t-1 5q0 6 -0.5 13t1 13.5t5 11.5t10.5 6q2 0 5.5 0.5t7.5 1
t7.5 1t5.5 0.5l1 1v10q0 1 -1 1t-2.5 0.5t-1.5 1.5q-2 0 -4.5 1.5t-5 2.5t-5 2.5t-3.5 1.5q-7 4 -11.5 10.5t-7.5 13.5t-4.5 14.5t-4.5 14.5l1.5 3t3.5 1t5 -3.5t3 -8t1.5 -8.5t0.5 -6q2 -4 5 -7t4 -6q2 -3 2 -6t4 -5t7.5 -4t8.5 -2q2 0 3 1.5t1.5 3.5t0.5 4.5v3.5
q0 5 -1.5 10.5t-1.5 11.5h0.5h0.5q0 1 0.5 3t0.5 3v1q0 7 -1.5 13.5t-1.5 12.5zM92 132v-3l0.5 -1.5t0.5 -2.5l-0.5 -1.5l-0.5 -1.5v-5q0 -9 3.5 -13.5t10 -6t14 -1t16.5 0.5h15q10 0 17 1q2 4 3.5 7.5t1.5 7.5q0 1 -0.5 3l-0.5 2q-1 9 -2.5 14.5t-5 9t-9 4.5t-15.5 1h-1
l2 -14q0 -2 1.5 -2.5t2.5 -0.5q2 0 4 1t3.5 2.5l3 3l2.5 2.5v0q2 0 2.5 -1t0.5 -2q0 -2 -1.5 -4l-3 -4l-3 -4t-3.5 -2h-1l-2.5 0.5l-2.5 0.5l-1 1v0q-3 0 -4.5 -2t-2.5 -4.5t-1.5 -5.5t-0.5 -4h25q0 -2 0.5 -3.5t-1.5 -2.5h-8h-8q-2 0 -7 0.5t-10.5 1t-11 0.5h-7.5t-2.5 0.5
t0 1t0.5 1v1.5h14l0.5 0.5t0.5 1.5v0q0 1 -3 3.5t-7 5t-7 5.5l-4 4q0 1 2 1q3 0 6.5 -2.5t6.5 -5l6 -5t5 -2.5q4 0 4 3q0 4 -3 6t-7 3.5t-7 3.5t-3 4h3l17 -8h1q1 0 2 0.5t1 1.5q0 2 -3 4t-7 3.5t-8 3.5t-5 4q1 1 2 1h2q2 0 5 -0.5t5.5 -2t5 -2t4.5 -0.5v11q-1 0 -4 -0.5
t-7 -0.5h-7h-4q-3 -1 -6.5 -2t-6.5 -3.5t-4.5 -5.5t-1.5 -6zM103 68q0 -4 4 -5t6 -1h4h5h5.5h3.5v3.5v5.5t-1 4.5t-3 1.5h-5.5t-7.5 -1t-7.5 -3t-3.5 -5zM139 73v-9q0 -2 1 -2h2h10.5t9.5 3v2v2q0 3 -1.5 4.5t-3.5 2.5t-4.5 0.5t-5.5 -0.5h-3h-2z" />
</svg>
