<?xml version="1.0" standalone="no"?>
<!DOCTYPE svg PUBLIC "-//W3C//DTD SVG 1.1//EN" "http://www.w3.org/Graphics/SVG/1.1/DTD/svg11.dtd" >
<svg xmlns="http://www.w3.org/2000/svg" xmlns:xlink="http://www.w3.org/1999/xlink" version="1.1" viewBox="-10 0 266 256">
   <path fill="currentColor"
d="M124 246v3.5t3 1.5q2 0 3.5 -1t3 -3t2 -4.5t0.5 -3.5v-44l0.5 -2.5t1.5 -3.5l1 -0.5l1 -0.5q6 0 9.5 3t6 7.5t4 9.5t3.5 9l3 27l1.5 1t1.5 2h1q3 0 5 -2t3 -5q-1 -13 -4.5 -25.5t-11.5 -23.5q-2 -3 -6.5 -5.5t-8.5 -4.5t-7.5 -3.5t-3.5 -2.5q0 -4 2.5 -6t6 -3t8 -1.5
t8 -2t5.5 -5.5t2 -12v-3.5v-3.5t-1 -1.5t-2 -0.5q-3 0 -5 2.5t-3 5.5t-1.5 5.5t-0.5 4.5q-2 2 -5.5 3t-6.5 1q-1 0 -3.5 -1.5t-2.5 -2.5v-25q0 -1 -2.5 -1.5t-3.5 -0.5h-2.5t-1.5 2v26l-2 3l-1.5 0.5l-1.5 0.5q-6 0 -8 -3.5t-3 -8t-3 -8t-7 -3.5q0 8 0.5 13.5t2.5 9t6.5 5.5
t13.5 4q1 1 1 2v3q0 3 -2.5 5t-6.5 3t-8 3t-7 5q-7 11 -11 25.5t-4 27.5q0 3 0.5 4t3.5 1t4.5 -3.5t2.5 -9t2 -12.5t3.5 -13.5t7 -12t12.5 -8.5q0 -1 1 -1q2 0 3 3t1 6v6.5v4.5q0 10 -1.5 19.5t-1.5 19.5zM63 164q0 2 2 3t4 1q4 0 6 -2t3 -5t2 -6.5t2 -5.5l4 -4t6 -5.5
t5.5 -5.5t3.5 -4q4 -3 8.5 -5t7.5 -3.5t5 -5t2 -9.5v-6q-2 -3 -6 -4.5t-7.5 -2.5t-6.5 -2.5t-3 -4.5t3.5 -4t8 -1.5l9 -1t7.5 -2.5v-2.5t0.5 -3.5t0.5 -3.5v-1.5v-1v-2q0 -2 -1 -3.5t-3 -1.5q-4 0 -4.5 2.5t-1 5.5t-1.5 5.5t-7 2.5q-2 0 -3.5 -0.5t-3.5 -1.5q-1 0 -1 -2v-2
q0 -3 1.5 -4.5t3.5 -3t4 -2.5t4 -3q1 -1 1.5 -3l1 -4t0.5 -3.5v-2.5q1 -2 3.5 -2h5.5t5.5 -0.5t2.5 -3.5q0 -4 -5 -4h-3.5t-3.5 1l-63 3q-1 0 -3.5 1t-2.5 3v1q0 1 0.5 3l0.5 2h17q2 0 3.5 1.5t2 3t1 3.5l0.5 2q1 2 3.5 3t5.5 2t5 3t2 6q0 2 -1 3t-3 1.5t-3.5 1t-2.5 0.5
t-3 -0.5t-3 -0.5q-3 -1 -3.5 -4t-1.5 -5.5t-2.5 -4.5t-5.5 -2v5.5v7t1.5 6.5t3.5 5h4t6 0.5l6 1t5 1.5l0.5 0.5t0.5 1.5q0 2 -3 4t-7.5 4.5t-9.5 5l-9 4.5t-6.5 4.5t-2.5 4.5q1 3 2.5 3.5t3.5 0.5t3 -0.5t1.5 -1.5t2 -2t3.5 -3h1v0q1 1 2.5 2t2.5 2l2 2t1 2q1 0 1 2v3
q0 7 -3 11.5t-7 8t-7 8t-3 10.5zM143 106q0 7 4.5 11.5t10.5 8t13 5.5t13 5q2 2 4 3.5t3.5 3t3.5 2.5t5 1q2 0 2.5 -2t0.5 -4q0 -1 -3 -3.5t-8 -5t-11 -5t-11.5 -5t-10 -4l-7.5 -2.5v-5q9 0 16 2.5t15 5.5q3 1 6 3.5t8 2.5q4 0 4 -5q0 -3 -3 -5t-7.5 -3t-10 -2t-10 -2
t-8 -2.5t-3.5 -4.5q10 0 17 2t16 5h1q3 0 5 -1t2 -4q0 -2 -0.5 -3t-1.5 -1l-10 -2.5t-11.5 -2.5t-11 -1.5t-10.5 -1.5v-2q0 -2 0.5 -4t3.5 -2q4 0 8.5 1t8.5 2t8.5 3t7.5 3q0 1 2 2.5t3 1.5q2 0 3 -2.5t1 -3.5q0 -6 -5 -7.5t-12 -2.5t-13 -1.5t-8 -4.5q2 0 5.5 -1t7.5 -2
t7.5 -2t5.5 -1q7 -2 8 -6t1 -10v-4v-2l-3 -4h-35q-2 0 -2.5 -2t-0.5 -3q0 -3 2 -4t5 -1.5t5.5 -0.5h3.5h22q3 -1 4 -2.5t1 -3.5q0 -3 -2 -4t-5 -1q-10 0 -19.5 1t-19.5 1l0.5 -2t0.5 -4t-0.5 -3t-3.5 -1q-2 0 -3 3t-1 5v3q1 2 1 6t1 8t1.5 6.5l0.5 2.5l3 4h30q2 0 2.5 2.5
t0.5 3.5v2t-1 2q-7 0 -13.5 0.5t-12 2.5t-9.5 6t-5 11q0 1 -0.5 4.5t-1 7.5t-1 7t-0.5 4v4zM84 109q0 -3 2.5 -4t4.5 -1t3.5 1.5t3 3.5t3 3.5t3.5 1.5q0 -4 -0.5 -7t-0.5 -8q4 0 7.5 3t3.5 8q0 2 -2 4.5t-5.5 4t-6.5 3l-5 2.5l-3 -3t-3.5 -4l-3 -4t-1.5 -4zM89 49
q0 -2 1 -3.5t3 -2t4 -0.5h4h7q1 0 2 1.5t1 2.5q0 2 -1.5 3.5t-3.5 2.5t-4 1h-4q-3 0 -6 -0.5t-3 -4.5zM74 21v1q1 0 1.5 1.5l0.5 1.5h6q10 0 20.5 -1t21.5 -2q1 -1 1 -1.5v-1.5q0 -2 -0.5 -3t-2.5 -2h-8q-9 0 -19 1t-19 2q0 1 -0.5 2t-1.5 1v1z" />
</svg>
