<?xml version="1.0" standalone="no"?>
<!DOCTYPE svg PUBLIC "-//W3C//DTD SVG 1.1//EN" "http://www.w3.org/Graphics/SVG/1.1/DTD/svg11.dtd" >
<svg xmlns="http://www.w3.org/2000/svg" xmlns:xlink="http://www.w3.org/1999/xlink" version="1.1" viewBox="-10 0 266 256">
   <path fill="currentColor"
d="M108 244q0 7 7 7q1 0 3.5 -1t2.5 -3q0 -9 -0.5 -21t0 -24.5t1 -24.5t2.5 -21l0.5 -0.5l0.5 -0.5h-0.5t-0.5 -1l-0.5 -1t-0.5 -2l-0.5 -3t-0.5 -6t-0.5 -6t-0.5 -4q0 -2 0.5 -5t0 -6t-1.5 -5t-5 -3l-46 -7q-4 0 -5.5 -3t-2.5 -6.5t-2 -6.5t-4 -3h-0.5h-0.5l-0.5 0.5
t-0.5 1.5v7q0 3 0.5 6.5t2 6.5t3.5 5t7 2l41 3q3 0 4.5 3t1.5 5v7t0.5 10t0.5 10v6q0 21 -1.5 41.5t-3.5 41.5l-0.5 0.5zM191 244l4.5 4.5t5.5 2.5t3.5 -2t0.5 -4q0 -6 -2.5 -12t-4.5 -12t-4.5 -12.5t-2.5 -14.5v-11t2 -11t5 -11t3 -12t-2.5 -9t-7 -5t-9 -3t-8.5 -2
q-1 0 -1.5 -1t-0.5 -2q0 -6 2.5 -9t6 -5t7 -3l7 -2t6 -3t2.5 -6q0 -2 -0.5 -5t-1.5 -6t-2.5 -5t-4.5 -2h-1l-1 0.5l-1 0.5v18q-14 5 -28 10.5t-27 10.5q-2 0 -2 1.5v2.5q0 4 5 4q3 0 5 -1t4.5 -2.5t5 -2.5t5.5 -1t3.5 1t0.5 4q0 9 -3.5 18.5t-7.5 17.5q-2 3 -5 6.5l-6 7
t-5 7.5t-2 8q4 0 8 -3t7.5 -7t6 -8.5t4.5 -7.5q2 -4 3 -8.5t2.5 -8t4.5 -5.5t9 -2h6q3 1 4.5 4t1.5 6t-1.5 8t-3.5 10.5l-4 11t-2 10.5q0 6 1.5 13t3.5 13.5t3.5 12.5t2.5 13zM194 48q-1 0 -3.5 1t-2.5 3v14q0 2 -4 3.5t-10 4t-13 5t-13 5.5t-10 6.5t-4 6.5q3 0 8.5 -1
t12.5 -3.5t14 -5.5t13 -6t10.5 -5.5t5.5 -4.5v-9v-3v-4.5t-1 -4.5t-3 -2zM57 62q0 6 3 9.5t8 5t10.5 1.5t10.5 1q7 1 13 2t12 1q3 0 6 -1t3 -4v-1l-1.5 -1.5l-1.5 -1.5h-11.5t-16 -1t-15.5 -3t-10 -4q-1 -1 -1.5 -3l-1 -4t-1 -3.5t-2.5 -1.5q-3 0 -3.5 3.5t-0.5 5.5zM143 55
q0 2 1.5 3t3.5 1q1 0 2.5 -0.5l1.5 -0.5l2 -1l4 -2l4 -2l2 -1q7 -3 13 -5t10.5 -5t7.5 -7.5t3 -12.5v-4.5v-4.5q-1 -1 -2 -1h-2q-4 0 -5.5 2.5t-2 6t-0.5 6.5q0 4 -1 6q-1 3 -8 5.5t-14.5 5.5t-13.5 5.5t-6 5.5zM66 44q7 1 13.5 2t12.5 1.5l12 1t12 0.5h8l2 -2l2 -2v0v0v-1
v0l-2 -2t-2 -1l-46 -5q-4 0 -5.5 -2t-2 -4.5t-0.5 -5.5v-5.5t-1 -4t-4 -1.5t-4.5 1.5t-1.5 3.5v5.5t0.5 7.5t2 7.5t4.5 5.5z" />
</svg>
