<?xml version="1.0" standalone="no"?>
<!DOCTYPE svg PUBLIC "-//W3C//DTD SVG 1.1//EN" "http://www.w3.org/Graphics/SVG/1.1/DTD/svg11.dtd" >
<svg xmlns="http://www.w3.org/2000/svg" xmlns:xlink="http://www.w3.org/1999/xlink" version="1.1" viewBox="-10 0 266 256">
   <path fill="currentColor"
d="M176 196q0 5 1 13.5t3.5 17.5t7 16t10.5 7q3 0 5.5 -2.5t2.5 -4.5q0 -3 -1 -4.5t-4 -3.5q-2 -2 -4.5 -6.5l-5 -9t-4 -9.5t-1.5 -9q0 -6 0.5 -11.5t2.5 -10.5q1 -3 3.5 -7l5 -8t4.5 -8.5t2 -7.5q0 -6 -4 -10.5t-9.5 -7.5t-10 -5t-4.5 -3l0.5 -2t1.5 -3q2 -5 6.5 -7.5
t9.5 -4.5t8.5 -3.5t3.5 -4.5q0 -2 -0.5 -4.5t-1 -5.5t-2 -5t-4.5 -2h-0.5h-0.5l-0.5 1l-0.5 1l-0.5 2l-1 4l-1 4t-0.5 3q-1 2 -5 3.5t-9.5 2.5t-12 2.5t-12 3t-9 3t-3.5 3.5q0 3 2 4t4 1q4 0 7.5 -2t6.5 -2q5 0 5 4v2h-1q-1 5 -3 10.5t-5 11t-5.5 11t-4.5 8.5q-4 3 -6 8
t-2 10q5 0 8 -3t6 -7.5t5.5 -10t4.5 -11t5 -9.5t6 -6q2 0 5.5 1.5t6 3.5t4.5 4.5t2 5.5q0 5 -3 10.5l-6 11t-5.5 12.5t-2.5 15zM49 237q0 2 1.5 4.5t4.5 2.5q4 0 5 -2t1.5 -5t0.5 -6v-5t0.5 -5.5t0.5 -8t0.5 -8t0.5 -4.5v-142q2 -11 3 -17.5t3.5 -9.5t8.5 -4t19 -2h34
q4 -1 7 -5q-2 -3 -5.5 -4t-6.5 -1q-2 1 -8 1.5t-12.5 1t-12.5 1t-9 0.5q-1 0 -3 -0.5t-4 -0.5t-4.5 -0.5t-3.5 -0.5v0q-4 0 -7 2t-5 5.5t-3 7t-1 7.5q0 2 1 4t1 5v7v8.5t-1 8.5t-2 6q0 40 -2 79.5t-2 79.5zM121 239q1 2 2 3.5t4 1.5q2 0 3 -1.5t2 -3.5t1.5 -3.5t0.5 -3.5
q0 -20 -2.5 -41t-2.5 -42v-1q0 -1 0.5 -5t0.5 -8.5t0.5 -9t0.5 -5.5v-6q0 -5 -2.5 -7.5t-6 -3t-8.5 0t-9 0.5l-2 -1v-21l2 -2h5.5t7.5 -0.5t7.5 -1t6.5 -1.5q0 -1 0.5 -1.5l0.5 -0.5q0 -3 -1.5 -4.5t-3.5 -1.5h-1.5h-0.5q-1 0 -2.5 0.5t-2.5 0.5q-11 2 -23 2q-11 0 -23 2
l-0.5 0.5l-1 1t-2.5 1.5l-2 1q-1 1 0 2.5l1 1.5h23l4 3v14v14t-0.5 12t-0.5 12.5t-1 13.5q-1 2 -2 2h-3q-3 0 -4 -1t-3 -4v-6.5t-0.5 -9.5t-0.5 -10v-6v-1v-1l1 -2q1 0 1 -2v-3v-4t-0.5 -4t-2 -3t-3.5 -1h-1q-1 0 -2 0.5l-1 0.5v42l2 10t1 10q2 3 5.5 4t7 1.5t7 0.5h7.5h3
t3.5 -1l3 -2t1.5 -2q0 -4 -2 -4.5t-4.5 -1t-4 -2.5t-1.5 -8v-7v-6t0.5 -6.5t1.5 -7.5q0 -2 1.5 -2.5t3.5 -1t4 -0.5h3q3 0 4 1.5t2 3.5v13q0 21 -1 41t-1 41v27zM148 82q0 3 5 3q3 0 11.5 -1.5t17.5 -4.5t15.5 -7t6.5 -8v-4t-1 -5.5t-2 -4.5t-4 -2q-2 0 -2 1t-1 4v1.5v3.5
v3.5v2.5q-1 3 -5 4.5t-9 2.5t-10.5 2t-10.5 2t-8 2.5t-3 4.5zM77 48q0 5 4 5h1q3 0 8 -0.5l10 -1t9 -0.5h4h2.5t4.5 -0.5t4 -1.5t2 -3t-1 -2.5t-3 -0.5h-4h-7.5t-11.5 0.5t-11.5 0.5h-7.5t-2.5 1.5t-0.5 2.5zM142 47v1l0.5 1.5t1.5 1.5h2h2q5 0 10 -1l10 -2t9.5 -2.5
t8.5 -2.5q1 0 3.5 -1t4.5 -1.5t3.5 -1.5l1.5 -1l2 -3v-23l-0.5 -0.5t-1.5 -0.5h-1q-4 0 -5.5 1.5t-1.5 5.5q0 3 1 5.5t1 5.5q0 1 -2 2.5t-3.5 2.5t-3.5 1.5t-3 0.5l-36 8q0 1 -1.5 1.5l-1.5 0.5v1z" />
</svg>
