<?xml version="1.0" standalone="no"?>
<!DOCTYPE svg PUBLIC "-//W3C//DTD SVG 1.1//EN" "http://www.w3.org/Graphics/SVG/1.1/DTD/svg11.dtd" >
<svg xmlns="http://www.w3.org/2000/svg" xmlns:xlink="http://www.w3.org/1999/xlink" version="1.1" viewBox="-10 0 266 256">
   <path fill="currentColor"
d="M147 245q0 2 0.5 3t2.5 1h2q8 -7 14.5 -21t11 -29.5t7 -31.5t2.5 -27q0 -9 -3 -14.5t-7 -10t-9 -8t-9.5 -7.5t-7.5 -9.5t-3 -13.5v-5t1 -5.5t2.5 -4.5t5.5 -2h46q2 0 5.5 -1.5t3.5 -4.5q0 -2 -1.5 -3t-3.5 -2t-4 -1h-3q-23 0 -45.5 2t-45.5 3q-5 1 -6 3.5t-1 7.5h39
q0 5 -0.5 11t0 11.5t2.5 11t6 10.5q3 3 7.5 6t9 6.5t8 7.5t3.5 11q0 14 -2.5 27t-6.5 26t-9.5 25.5t-11.5 24.5v3zM82 236q0 2 0.5 2.5t3.5 1.5q3 -2 5 -5t3 -7q0 -1 -0.5 -4t-0.5 -7v-7t-1 -5v-1t-0.5 -2t-0.5 -2v-2v0q0 -23 1.5 -45.5t1.5 -44.5v-34q-1 -3 -3.5 -5.5
t-5.5 -4t-5.5 -2.5t-2.5 -2v-12q0 -1 3.5 -2t7.5 -2t7.5 -2.5t3.5 -5.5v-2.5t-2 -1.5h-18q-3 0 -2.5 -3.5t0.5 -7.5t-1.5 -7t-7.5 -3v51l-3 2l-6 4t-6 4.5t-4 3.5v2v4v4v2q-1 22 -1.5 42t-1.5 42q0 12 -2 24t-2 25v2q0 3 0.5 5t0.5 4v3q0 1 0.5 1.5t1.5 0.5v0q4 0 5.5 -3
t2.5 -6q2 -24 2 -48.5v-47.5q-1 -4 0 -6.5t3.5 -3.5t5.5 -1h6q5 0 9 0.5t9 1.5v2v2q-2 26 -4 54t-2 55zM56 104q1 -6 1.5 -11.5t2 -9t5 -5.5t10.5 -2h2q2 0 4 0.5t3.5 1t1.5 1.5v25q0 1 -1 2t-1 2l-0.5 0.5t-1.5 0.5h-23q-1 0 -2 -2.5z" />
</svg>
