<?xml version="1.0" standalone="no"?>
<!DOCTYPE svg PUBLIC "-//W3C//DTD SVG 1.1//EN" "http://www.w3.org/Graphics/SVG/1.1/DTD/svg11.dtd" >
<svg xmlns="http://www.w3.org/2000/svg" xmlns:xlink="http://www.w3.org/1999/xlink" version="1.1" viewBox="-10 0 266 256">
   <path fill="currentColor"
d="M47 112q0 30 2.5 59.5t3.5 59.5v3.5t0.5 6t0.5 6v3.5h2h1q3 0 4.5 -2.5t1.5 -6.5v-8v-6q0 -22 -2 -43t-2 -42v-8q2 -1 5 -2t6.5 -2t6.5 -1.5t4 -1.5h2q1 0 2 0.5t1 3.5q1 2 1 7.5t0.5 12t0.5 12.5v8v26q0 1 0.5 4t1.5 4v43q0 2 1 2h2q2 0 3.5 -1.5t1.5 -3.5v-30
q0 -1 0.5 -3t1.5 -2v-2q0 -6 -1.5 -12t-2.5 -12q-1 -12 -1.5 -22.5t-0.5 -21v-21.5v-22q-1 -9 -3.5 -12.5t-5.5 -4t-5 -0.5t-2 -1q-1 -6 -1.5 -10t-0.5 -9t2 -7t5.5 -3.5t8 -1.5h8.5q1 -1 1 -2v-3t-1 -2.5t-3 -0.5q-3 0 -6.5 1t-7.5 1h-1.5h-2t-2.5 -0.5t-1 -1.5v-3
t-0.5 -4.5l-1 -5t-0.5 -3.5t-0.5 -3l-1 -4t-2 -3.5t-3.5 -1.5l-0.5 0.5l-0.5 0.5l-0.5 0.5t-1.5 0.5v9v9q0 1 0.5 4.5t1 8.5t0.5 10.5t0.5 10t1 8t0.5 5.5v1v0q-1 0 -3 1t-4.5 1.5t-4.5 1t-3 0.5q-2 0 -3.5 1t-1.5 3v5q0 4 -0.5 7.5t-0.5 6.5v5zM122 148v9.5t0.5 14
t0.5 14.5v9q0 6 0.5 11t2 9.5t4 8t6.5 7.5h4h5h6h3h11.5t13 -1t11 -4t5.5 -10q0 -3 0.5 -12t0.5 -18.5t0.5 -18.5t0.5 -12v-2v-4t-1 -5.5t-2 -4.5t-4 -2q-2 0 -2.5 0.5t-0.5 2.5v26q0 2 -1.5 3t-4 1.5t-4.5 0.5h-2q-5 0 -8.5 -3t-3.5 -7v-3q0 -1 0.5 -3.5t0.5 -6t0.5 -6.5
l0.5 -3v-1q0 -6 -1 -11t-1 -11q0 -3 1 -4t4 -3q9 0 19 -1t18 -2q1 0 2 -2t1 -3l-0.5 -1t-0.5 -2h-3.5h-2.5q-8 0 -16.5 1.5t-16.5 1.5h-3t-2 -1v-66q0 -1 -0.5 -2.5t-2 -3t-2.5 -2t-1 -1.5q-4 2 -4.5 3.5t-0.5 4.5q0 14 0.5 28t0.5 29v3v3v2.5v1.5l-3 3l-3 0.5t-6.5 1
t-7.5 1t-7 0.5h-5t-8 0.5t-7 2t-3 4.5q0 1 2.5 2t4.5 1q4 0 9 -1t9.5 -2.5t9.5 -2.5t9 -1q3 0 5.5 1t2.5 4v54q0 2 -2.5 2.5t-5.5 1l-6 1t-4 0.5h-4q-3 -3 -3 -7.5t0.5 -8.5t-0.5 -6.5t-8 -2.5zM131 190q0 -2 0.5 -4.5t3.5 -3.5q12 -2 26 -3t26 -1v6v9.5v9v5.5q0 2 -0.5 5.5
t-1.5 4.5q-2 2 -6 3t-8.5 1t-8.5 -0.5t-7 -0.5h-3h-4h-4h-2q-5 0 -7 -4t-3 -9t-1 -10.5v-7.5zM59 121v-2.5t-0.5 -4t-0.5 -4v-2.5v-1q0 -10 4.5 -14.5t14.5 -4.5q4 0 6 2t3 5t0.5 6.5t-0.5 6.5v6t-3 5q-5 1 -9.5 2t-9.5 1h-2t-3 -1z" />
</svg>
