<?xml version="1.0" standalone="no"?>
<!DOCTYPE svg PUBLIC "-//W3C//DTD SVG 1.1//EN" "http://www.w3.org/Graphics/SVG/1.1/DTD/svg11.dtd" >
<svg xmlns="http://www.w3.org/2000/svg" xmlns:xlink="http://www.w3.org/1999/xlink" version="1.1" viewBox="-10 0 266 256">
   <path fill="currentColor"
d="M179 220q0 3 1.5 8l3 10t4.5 8.5t6 3.5q6 0 6 -6q0 -3 -2 -5t-4.5 -5t-4.5 -6.5t-2 -8.5t2 -8t5 -6l6 -6t5 -7t2 -9v-9q0 -5 1 -9.5t3 -8.5v-26q0 -2 -1.5 -3.5t-4 -2.5t-5 -1.5t-4.5 -0.5h-2.5t-5 0.5t-4 1.5t-1.5 2q0 2 1.5 4t1.5 5q0 2 -0.5 5.5t-3.5 3.5q-2 0 -3 -1
t-3 -1q-1 0 -2 1l-2.5 2.5l-2.5 2.5t-4 1h-1t-2 -0.5t-1 -1.5l1 -11l1.5 -0.5t1.5 -1.5q2 0 5.5 -1t4.5 -2v-5l-1 0.5l-1 0.5l-3 0.5l-3 0.5q-1 0 -2 -0.5l-1 -0.5v-13q2 0 6.5 -0.5t9 -2t8 -4t3.5 -6.5v-5q0 -2 -0.5 -5t-2 -5t-4.5 -3h-24h-25q-3 0 -8.5 0.5t-10.5 2
t-9 4.5t-4 8q0 7 3 10t7.5 4.5t9.5 1.5h11q0 1 0.5 2.5t1.5 3.5t1.5 4t0.5 3v0v0q0 2 -1 3t-2.5 1.5l-3 1t-2.5 1.5q1 3 3 3t4.5 0.5t4.5 2t2 7.5q0 2 -1 3t-2.5 1.5t-3.5 1t-2 2.5l1 2h14q1 0 1.5 1l0.5 1v5v5q-4 0 -8.5 0.5t-7.5 3.5q-1 -1 -2.5 -8.5t-3.5 -16t-4.5 -15.5
t-6.5 -7q-3 0 -4 1l-3 3q-7 6 -11 14.5t-6 17.5t-2 18.5v18.5v15q1 3 3 5l4 -3v-29q0 -1 1 -1h2t2.5 2l3 4t2.5 4.5t1 3.5q3 -1 3.5 -2.5t0.5 -3.5q0 -3 -2.5 -6.5t-6 -6.5t-6 -6t-2.5 -6q0 -2 1.5 -3.5t3.5 -1.5t5.5 3.5t7 8t6 9t2.5 6.5q0 7 -2.5 14t-5.5 13.5t-6 14
t-3 16.5q4 0 5.5 -0.5t1.5 -3.5q2 -6 3 -10t2 -7.5t3 -7t5 -9.5q2 -4 3 -8.5t1.5 -8.5t1.5 -8.5t2 -9.5h3q5 0 8 1.5t3 6.5q0 14 -1 28t-1 27q2 0 5 -1t3 -4v-50l2 -4l2 -4h11v-2v-4q-1 -2 -3 -2.5t-4 -0.5t-4 -1t-2 -4v-2.5v-1.5l4 -2t4.5 -1.5l5 -1t4.5 -0.5t4 2.5t2 4.5
v1q0 1 -0.5 3.5t-1 5.5l-1 6t-0.5 4h-0.5h-0.5q-2 0 -3 -1t-3 -1h-2.5t-1.5 2l8 7v1v1q0 5 -2.5 8.5t-2.5 7.5v1.5t2 1.5q4 0 5 -3.5t3 -7.5t5.5 -7.5t12.5 -3.5h0.5h0.5q0 5 -3 9t-7 7.5t-7 8t-3 9.5zM73 234q0 4 3 4t4 -2.5t1 -4.5q2 -20 1.5 -40t0.5 -41v-7.5t0.5 -12.5
t0.5 -13v-8v-21v-21q0 -3 -2 -5t-4.5 -3.5t-4.5 -3t-2 -4.5q0 -2 0.5 -3.5t1.5 -3.5q1 0 3.5 0.5t5 0t4.5 -1.5t2 -3q0 -4 -2.5 -5t-5.5 -0.5t-6 0t-3 -3.5v-18q0 -4 -2 -4t-2.5 0.5l-1.5 1.5q1 23 -1 45q-1 2 -2.5 2.5t-3.5 1t-3.5 1t-2.5 1.5v3t-0.5 4.5t-0.5 4.5v2v5v8v8
v4t-0.5 4.5l-1 7l-1 7l-0.5 3.5q-2 28 -2.5 55t-0.5 54q0 2 0.5 3t2.5 1t3.5 -6.5t2.5 -14.5t1.5 -15.5t0.5 -10.5v-17v-3.5t0.5 -5t0.5 -5v-3.5q1 0 1.5 -0.5t0.5 -1.5t-0.5 -2.5t-1.5 -2.5v-31q0 -3 1.5 -4.5t3.5 -2.5t4.5 -1h4.5t3 0.5t2 2.5v17q0 8 -1 15.5t-1 14.5v2
q1 0 1 2.5t0.5 5t0.5 5v2.5v10v14.5t-0.5 14.5t-1.5 10q0 1 -0.5 4t-0.5 4v1zM202 155v3v4v4v6t-1 5.5t-2 2.5h-14q0 -10 3 -16.5t14 -8.5zM104 150l0.5 -1.5l0.5 -1.5l9 -9l0.5 -0.5l0.5 -0.5l0.5 0.5l0.5 0.5l1.5 0.5l1.5 0.5q5 9 6.5 18t1.5 19q-3 0 -7 -3t-7.5 -7
t-6 -8.5t-2.5 -7.5zM192 131h4q6 0 7 3.5t1 8.5v5q0 1 -1 1.5l-1 0.5q-1 0 -4.5 0.5t-5.5 0.5v-20zM140 114h2h5h4h3q3 1 3 1.5v2.5q0 5 -0.5 12.5t-2.5 13.5h-2q-3 0 -4 -2.5t-2 -5.5t-1 -5.5t-1 -3.5q0 -1 -0.5 -2.5t-1.5 -3.5t-1.5 -3.5l-0.5 -1.5v-1.5v-0.5zM113 105
q-2 -1 -2 -2.5v-2.5q0 -2 0.5 -4t2.5 -4q7 -1 12.5 -1t11 -0.5t10.5 -0.5h12h18q3 1 3.5 3t0.5 4q0 5 -4.5 7t-10 2.5t-11 0t-7.5 -0.5h-18t-18 -1zM59 92v-11t1 -11q1 -1 3 -2t4 -1.5t3.5 -1t2.5 -0.5l2 2t1 2v31h-16l-1 -2v-2v-4zM118 73q2 0 7.5 0.5t12 1t12 0.5h7.5h2h2
h5.5t9 -0.5l9 -1t6.5 -0.5l0.5 -1t0.5 -2v-1v0q0 -1 -1 -2l-2 -2v0q-9 0 -17.5 1t-17.5 1h-10h-14t-12 -1.5t-5 -5.5v-1l1.5 -1.5l1.5 -1.5q8 -4 15.5 -8t16.5 -4q8 0 14.5 3.5t13.5 7.5h4q3 0 4.5 -0.5t1.5 -3.5v-3t-2 -3q-1 0 -4 -0.5t-6.5 -1.5t-7 -1.5t-4.5 -0.5
l-3 -1.5l-3 -1.5q-1 -1 -3.5 -1.5t-3.5 -0.5q-2 -1 -2 -5.5t0.5 -8.5t0 -7.5t-4.5 -3.5q-1 0 -2 0.5t-1 1.5v25l-1.5 1t-1.5 2q-2 1 -5 2t-6.5 2t-6.5 1.5t-5 0.5t-2 -1.5t-1 -3.5v-4t-0.5 -6t-0.5 -6v-4q-1 -1 -2 -1.5t-2 -0.5h-2h-1v5.5v9.5v9v6q0 3 0.5 7.5t2 8t4.5 5.5
t8 2z" />
</svg>
