<?xml version="1.0" standalone="no"?>
<!DOCTYPE svg PUBLIC "-//W3C//DTD SVG 1.1//EN" "http://www.w3.org/Graphics/SVG/1.1/DTD/svg11.dtd" >
<svg xmlns="http://www.w3.org/2000/svg" xmlns:xlink="http://www.w3.org/1999/xlink" version="1.1" viewBox="-10 0 266 256">
   <path fill="currentColor"
d="M59 207q2 3 3 10.5t2 14.5t3.5 13t7.5 6q2 0 3 -2t1 -4v-1v-1q-1 -2 -2 -7.5t-2.5 -11t-2.5 -10.5t-1 -7v-2q0 -2 -0.5 -3.5t-0.5 -4.5v-3q0 -3 1 -9t2.5 -12.5t4.5 -11t8 -4.5q2 0 4 6.5t4 16t4 21t3.5 21.5t4 16.5t4.5 6.5q4 0 5 -3.5t1 -6.5v-2v-1l-0.5 -1.5t-1 -3.5
t-1 -3t-0.5 -2q-2 -8 -5 -16.5t-5 -16.5t-3.5 -17t-1.5 -17v-3v-3q7 -6 10.5 -12t5.5 -12.5t2 -13.5v-16q0 -2 2 -3t4.5 -1.5t5.5 -0.5h4t3 0.5l2 0.5l2 3v45q0 6 4.5 8t10 3t10 3t4.5 8q0 2 -2.5 3.5t-6.5 2.5t-8.5 3t-8 5t-6 8t-2.5 13q0 7 1 13.5t3.5 13.5t4.5 13.5
t4 12.5q0 2 2 2h3q3 0 5.5 -1.5t2.5 -4.5v-2q-1 -1 -2 -2.5t-2 -2.5q0 -1 -1 -2.5t-2 -3.5t-2 -3.5l-1 -1.5q0 -1 -1.5 -4.5t-2.5 -7t-1.5 -6.5t-0.5 -4q-1 0 -1 -3.5v-5.5t0.5 -5l1 -6t2.5 -4.5t5 -1.5h3l6 18t7 18q0 1 3 6t6 11l5.5 11t3.5 5h4.5h4.5q0 -6 -3 -12
t-6.5 -11.5l-7 -11t-5.5 -11.5q-1 -1 -2 -5t-2 -4q0 -1 -1 -3t-2 -4.5t-2 -4.5l-1 -2v-1v-2v-1v-1q3 -2 6 -3.5t5.5 -3.5t3.5 -4.5t1 -7.5q0 -6 -5 -8t-11 -4t-11 -4.5t-5 -10.5h27q2 -1 5 -1.5t5.5 -1.5t4.5 -2.5t3 -3.5v-10v-7.5t-1 -5.5t-3 -4.5t-6 -5.5h-2q-3 0 -5 1
t-5 1q-9 0 -18.5 -1.5t-19.5 -1.5v-4q0 -6 5 -9t10 -5h4.5h6.5h7h4q2 0 5 -0.5t6 -1.5t5 -3t2 -4q0 -9 -4 -13.5t-10.5 -6.5t-14.5 -2t-16 -0.5t-15 -1.5t-11 -5q-2 -1 -3 -4t-2.5 -6t-3.5 -5t-5 -2v0v0q-2 1 -2 2v14l8 8v0v1q0 4 -3 6.5t-7.5 5t-10.5 4.5t-10.5 4t-7.5 4.5
t-3 4.5q0 3 2 4.5t5 1.5q8 0 14 -4t11.5 -9t11 -9.5t13.5 -5.5h2t4 -0.5t4 -0.5h3h9q6 0 12.5 1t12 3t5.5 5t-3 4.5t-7.5 2t-10 1t-11 1.5t-9.5 2t-7 4l-2 4t-1.5 4l-1 4t-1.5 4q-7 -1 -16.5 -1.5t-18 1t-14.5 6.5t-6 15q0 8 1.5 12t4.5 6.5t8 3.5t12 2q2 1 5 1.5l3 0.5v3
l-1 1l-2.5 2.5l-2.5 2.5l-2 2q-5 3 -10.5 6t-10.5 6.5t-8.5 8t-3.5 12.5v33zM147 116q0 -4 0.5 -8.5t0.5 -9.5q2 -2 4 -2.5t4 -0.5h9q5 0 8.5 1.5t5.5 4t2 7.5q0 4 -1 6.5t-6 4.5h-3.5t-5.5 0.5l-6 1t-4 0.5h-3q-2 0 -3.5 -1t-1.5 -4zM79 109q0 -17 16 -17h3.5h3.5
q1 1 2 3.5t1.5 5.5t0.5 6v4v5l-1 1q-1 1 -3 1h-4q-2 0 -5 -0.5t-6.5 -1t-5.5 -2.5t-2 -5z" />
</svg>
