<?xml version="1.0" standalone="no"?>
<!DOCTYPE svg PUBLIC "-//W3C//DTD SVG 1.1//EN" "http://www.w3.org/Graphics/SVG/1.1/DTD/svg11.dtd" >
<svg xmlns="http://www.w3.org/2000/svg" xmlns:xlink="http://www.w3.org/1999/xlink" version="1.1" viewBox="-10 0 266 256">
   <path fill="currentColor"
d="M69 154v14q0 1 1 6t2 11l2 12t2 9q0 3 2.5 10t5.5 14.5t6 13.5t6 6t3.5 -2t0.5 -5v-2v-1l-0.5 -1l-1 -2l-1 -2l-0.5 -1q-4 -12 -8 -23.5t-7 -23.5q-2 -8 -2.5 -17.5t-0.5 -18.5q0 -12 1 -25.5t2 -26.5q1 -9 4 -19t3 -20q0 -4 -1 -11.5t-3 -15t-6 -13t-11 -5.5
q-1 0 -1.5 1t-0.5 2q0 3 1.5 6l3 6t3 6.5t2.5 5.5q1 7 1.5 13.5t0.5 12.5q0 13 -2.5 24.5t-4.5 23.5q-2 9 -2 19v19zM173 203q1 0 3 3.5t4 8.5t4.5 11t5.5 11.5t6.5 8.5t7.5 3h1l3 -3t2 -4t-1.5 -4t-4 -4.5l-4.5 -4.5l-3 -3q-6 -10 -9.5 -20t-8.5 -20v-6v-9v-8v-6
q0 -1 -0.5 -3t-0.5 -5t-0.5 -5t-0.5 -3q0 -3 4 -5t8 -4.5t7.5 -6.5t3.5 -13v-9t-1 -10q-3 -3 -7.5 -4.5t-9 -2t-9 0t-8.5 0.5h-18q-1 0 -1.5 1t-0.5 2q0 3 2.5 4t4.5 1h35l3 3l0.5 2.5t0.5 4.5q0 3 -0.5 7t-1.5 7t-3 5.5t-7 2.5q-2 0 -2.5 -1.5t0 -3.5t0.5 -5q0 -2 -2 -4.5
t-7 -4t-14 -1.5h-5.5t-7 0.5t-5.5 1.5t-2 4t1.5 3.5t4.5 0.5h1h2t4.5 -0.5t4.5 -0.5h3l1 -0.5t2 -0.5q2 0 6 1.5t4 4.5q0 6 -4.5 8.5t-10.5 3t-11.5 0t-9.5 -1.5q-3 -1 -4 0.5t-1 4.5q0 1 2 2.5t5 2t6 0.5h4h1t2.5 -0.5l3 -1l1.5 -0.5h7h7q1 1 2 2.5t1 2.5v34q-1 1 -1.5 3.5
t-1.5 5.5l-2 6t-3 5q-3 6 -5.5 12t-5.5 11.5t-7 10.5t-9 10v0v1q0 3 2 3.5t4 0.5q4 0 8.5 -6t9 -13.5t8.5 -14.5t5 -10h2zM45 162q0 3 0.5 10t1.5 16t3 18.5t4.5 17.5t5.5 13t7 5q6 0 6 -6q0 -3 -1.5 -7l-3 -8t-3 -7.5t-2.5 -7.5q-4 -11 -5.5 -23t-1.5 -24q0 -11 2.5 -22
t2.5 -22q0 -2 -0.5 -3t-3.5 -1t-5.5 3.5t-3.5 8.5t-2 11.5t-1 12v10.5v5zM92 153q0 18 3.5 37t12.5 34h4q4 0 5 -0.5t1 -4.5q0 -6 -3 -11t-5 -10q-5 -11 -7 -23t-2 -24q0 -9 1 -18t1 -18v-3.5t-3 -2.5q-1 0 -3 1.5l-2 1.5q-2 10 -2.5 20.5t-0.5 20.5zM195 154v7v12t0.5 14.5
t1.5 14t2 10.5t3 4q4 0 5 -3.5t1 -5.5v-4q0 -3 -0.5 -10l-1 -14t-1 -13t-0.5 -7v-3t-0.5 -4.5t-1.5 -4t-3 -1.5q-3 0 -5 3v3v2zM132 211q0 1 1.5 1.5t2.5 0.5q4 0 5 -2.5t3 -5.5q0 -3 0.5 -9t1 -13t1 -13t0.5 -8v-3q0 -3 -1.5 -6.5t-4.5 -3.5t-4 0.5t-1 2.5v27q0 2 -0.5 6
t-1.5 9.5t-1.5 9.5t-0.5 6v0v1zM54 62q0 8 -2.5 16t-2.5 16q6 0 9 -3t4.5 -8t2 -10t0.5 -9v-7q0 -4 -1 -8.5t-3 -8t-6 -3.5q-2 0 -3.5 1.5t-1.5 2.5q0 6 3 11q0 1 0.5 5t0.5 5zM123 88q0 2 1 4t3 2t2.5 -0.5l1.5 -1.5q2 -8 3.5 -10t3.5 -2.5l4 -1t6 -5.5t5 -11t2 -11.5
t3.5 -9.5t9.5 -4h3q4 9 4.5 15.5t2.5 11t6.5 6.5t15.5 3q2 1 2 4v6t1 5.5t4 3.5q2 0 3 -2.5t1.5 -6.5t1 -7l0.5 -3v-9t-1 -10t-2.5 -9.5t-4.5 -7.5q-1 -1 -4 -3t-5 -3.5l-2 -1.5h-26v-15q0 -3 -2.5 -3.5t-4.5 -0.5q-3 0 -4 2.5t-1 5.5v6t1 4q-2 3 -5 3q-2 0 -5 2q-9 3 -14 6
t-7.5 7.5t-2.5 10.5v16v15zM105 58q0 9 -2 17.5t-2 17.5q6 0 8.5 -4.5t3.5 -9.5v-3v-5v-5v-3v-4v-5.5v-4.5v-2v-4t-1 -6.5t-2.5 -6t-4.5 -2.5q-2 0 -3.5 1.5t-1.5 3.5q0 6 2.5 12.5t2.5 12.5zM144 41q2 1 2.5 3.5t0.5 4.5q0 3 -0.5 7.5t-2.5 8t-4.5 6.5t-6.5 3v-4.5
t0.5 -7.5t0.5 -7.5v-4.5q0 -4 3 -6t7 -3zM184 40q9 0 12.5 3.5t3.5 12.5q0 4 -1 6.5t-5 2.5l-2 -0.5t-4 -1.5t-3 -2.5t-1 -2.5v-18z" />
</svg>
