<?xml version="1.0" standalone="no"?>
<!DOCTYPE svg PUBLIC "-//W3C//DTD SVG 1.1//EN" "http://www.w3.org/Graphics/SVG/1.1/DTD/svg11.dtd" >
<svg xmlns="http://www.w3.org/2000/svg" xmlns:xlink="http://www.w3.org/1999/xlink" version="1.1" viewBox="-10 0 266 256">
   <path fill="currentColor"
d="M76 187v7v8v7v3q0 1 0.5 4t1 6.5l1 7t0.5 4.5q0 2 1 4.5l2 5t2.5 4.5t3.5 2t2.5 -1.5t0.5 -2.5q0 -8 -2.5 -16t-2.5 -16q0 -1 -0.5 -5.5t-1 -9.5t-0.5 -9.5v-5.5v-6t0.5 -8l1 -8t1.5 -8q3 -7 5.5 -15t2.5 -16v-7t-1.5 -7.5t-3.5 -6.5t-6 -3v37q0 2 -2 5.5t-3 5.5
q0 1 -0.5 3t-1 4.5t-1 4.5t-0.5 3v5v8v7v5zM97 172q0 8 0.5 16t1.5 16t4 15.5t7 14.5h2q1 0 2 -0.5t1 -1.5v-0.5v-0.5q-2 -7 -3.5 -13l-3 -12t-2.5 -12.5t-1 -14.5v-1l0.5 -1.5t0.5 -3t0.5 -3l0.5 -1.5v-10q1 -4 2.5 -8t3 -7.5t3 -7.5t1.5 -8q0 -2 -0.5 -6.5t-1.5 -9
t-3.5 -7.5t-6.5 -3v4.5t2 4.5v2v3.5v2.5v3q0 6 -1.5 12.5t-3.5 12.5t-3.5 12t-1.5 13zM48 184q0 3 0.5 10.5t2 16t3.5 14.5t5 6q2 0 3 -1.5t1 -2.5q0 -3 -1.5 -5.5t-1.5 -4.5t-0.5 -6t-0.5 -9t-0.5 -9t-0.5 -6v-1q0 -6 1 -15t2 -17q1 -2 2.5 -5.5t2.5 -7.5l2 -8t1 -7
q0 -4 -0.5 -7.5t-2 -6.5t-4 -5.5t-6.5 -2.5q0 6 1 11t1 11v6v4l-0.5 2t-1.5 4.5t-1.5 4.5t-0.5 3q-1 2 -1.5 5t-0.5 6t-1 6t-3 5v2v4v4v2zM124 183q3 6 8.5 9.5t13 5.5t15 3.5t12.5 3.5q3 1 6 3t6.5 3.5t6.5 3t6 1.5q2 0 2.5 -1.5t0.5 -2.5q0 -3 -3 -5t-6.5 -4t-7.5 -3.5
t-6 -2.5t-6.5 -2t-9.5 -2t-10 -2.5t-6 -1.5t-2.5 -0.5l-3 -1l-3 -1l-1.5 -0.5q-2 -1 -2 -2v-3v-2.5t-0.5 -4.5t-0.5 -4v-3v-1v-2v-3.5t1 -4.5v-3v-5v-5v-3v-4v-6v-5v-2v-1.5t-0.5 -3.5t-1 -3.5t-1.5 -2.5h-1q-1 0 -2 4.5t-1 10.5t-0.5 11t-0.5 6v2t-0.5 4.5t-1 4.5t-0.5 3
v12v13zM167 158q3 1 5 5.5t4 8.5t6 7.5t10 3.5h1q0 -1 1.5 -1.5l1.5 -0.5v0v-1t-1.5 -2.5t-4 -3.5t-4.5 -3t-3 -2q0 -1 -1.5 -3l-3 -4t-2.5 -3.5t-1 -2.5l-3 -3t-2 -3v-5.5v-7.5v-8.5v-5.5v-1.5t-0.5 -3.5t-1 -4.5t-1.5 -2.5h-1h-1q-1 2 -1.5 4t0 4t0.5 4v5q-1 5 -1.5 9
t-1.5 8t-3 7.5t-4 8.5q-1 1 -2.5 3t-3.5 4.5t-3 4.5t-1 3v2.5t2 1.5l1 -0.5t2 -1.5t2.5 -3t3.5 -4.5l4 -5t3 -3.5q1 0 2.5 -2t2.5 -2zM139 156q0 1 0.5 2t1.5 1q6 -5 8 -12.5t2 -14.5v-4t-0.5 -5t-2 -4.5t-2.5 -1.5h-1h-1v6t-0.5 8.5t-0.5 8.5v5t-0.5 2t-1.5 2.5t-1.5 3
l-0.5 1.5v2zM179 134q0 2 1 6t2.5 8t4 7t4.5 3t2.5 -0.5t0.5 -3.5l-0.5 -1.5t-0.5 -2.5l-1 -1.5l-1 -1.5q-2 -8 -3 -16.5t0 -16.5q-1 -1 -2 -1.5t-2 -0.5t-2 3t-1.5 7t-1 7.5t-0.5 4.5zM134 76q0 4 0.5 8.5t2 8.5t4.5 6.5t8 3.5q1 0 4.5 0.5t8 1t8.5 1t6 0.5h3q1 0 4.5 -0.5
t7.5 -1t7 -2t3 -3.5v-1q-1 0 -1.5 -0.5l-0.5 -0.5h-11h-13t-13.5 -0.5t-12.5 -1.5q-4 -1 -4.5 -3.5t-0.5 -5.5q0 -7 -0.5 -17t-0.5 -19v-15.5v-6.5l-4 -3q0 1 -1 2.5t-2 2.5v11q0 1 -0.5 6t-0.5 10.5t-0.5 11t-0.5 6.5v1zM74 87q0 2 4 2q5 0 9.5 -5t7 -12t3.5 -13.5t1 -10.5
q0 -5 -1 -8t-3 -5.5t-4.5 -5.5t-6.5 -6q-1 0 -2 0.5t-1 1.5q-1 2 0.5 5t3.5 6.5t3.5 6.5l2.5 5q0 7 -1.5 14t-5.5 13l-2.5 2.5l-3 3l-3 3t-1.5 3.5zM175 65q1 4 3.5 8t6 8t8 6.5t8.5 2.5v-4l-7 -7t-7.5 -8t-6 -9t-2.5 -9q0 -5 1 -8.5t1 -7.5q0 -6 -2 -12.5t-3 -12.5h-1v0h-1
q0 1 -1.5 2l-1.5 1v10v12t-1 12t-2 10q-2 4 -4.5 7l-5 6t-4 6t-1.5 6q5 0 8 -3t5 -6.5t4 -6.5t5 -3h1zM63 52q0 4 -2 7.5t-4 6.5t-4 6.5t-2 7.5q6 0 10.5 -3.5t7 -8t4 -10t1.5 -10.5q0 -4 -1.5 -8t-4.5 -6.5t-7 -4.5t-8 -2q0 3 1.5 6t3.5 6.5t3.5 6.5t1.5 6zM120 50
q0 5 -2.5 9t-5.5 8t-5.5 7t-2.5 6q6 0 10.5 -3t7.5 -7.5t4.5 -9.5t1.5 -10v-5t-1 -4.5t-2 -4.5t-4 -5q-2 -1 -3.5 -1.5t-3.5 -0.5l-1 0.5l-1 0.5q0 2 1.5 4.5l3 5t2.5 5t1 5.5zM189 43q0 4 1 10.5t3.5 12.5t6 10t8.5 4q0 -1 -0.5 -3.5t-0.5 -3.5l-0.5 -1.5t-1.5 -3l-2 -3
l-1 -1.5q-1 -3 -2 -7.5l-2 -9t-2 -8.5t-2 -7v0q-2 0 -3 1.5t-1.5 3.5t-0.5 4v2zM151 32q0 8 -2 15.5t-2 15.5q3 0 5.5 -2t4 -5t2 -6.5t0.5 -6.5q0 -1 -1 -2.5t-2 -3.5t-2.5 -3.5t-2.5 -1.5z" />
</svg>
