<?xml version="1.0" standalone="no"?>
<!DOCTYPE svg PUBLIC "-//W3C//DTD SVG 1.1//EN" "http://www.w3.org/Graphics/SVG/1.1/DTD/svg11.dtd" >
<svg xmlns="http://www.w3.org/2000/svg" xmlns:xlink="http://www.w3.org/1999/xlink" version="1.1" viewBox="-10 0 266 256">
   <path fill="currentColor"
d="M151 127v24t-2 25q-1 5 -4.5 8l-7 6l-7 6t-3.5 7v43q0 2 2.5 3.5t4.5 1.5t4.5 -2t2.5 -4q0 -10 -2.5 -19.5t-2.5 -19.5q0 -4 2.5 -7.5t6 -7l7 -7t3.5 -8.5q1 -1 1 -4v-6.5t0.5 -7t2.5 -4.5v-17v-17t-2 -10.5t-6.5 -7t-14.5 -5.5v-2q0 -2 2 -4t4.5 -3t5.5 -2t4 -3
q3 -4 4 -8.5t1.5 -9t0 -9t-0.5 -8.5v-3v-3v-4v-3q-1 -1 -2.5 -3.5t-3.5 -2.5v0q-2 1 -3 3t-1 4v4v2h-1q-2 0 -5.5 -2t-3.5 -5t1 -7t1 -7t-0.5 -4.5t-4.5 -3.5q-1 0 -2 0.5t-1 1.5v22q0 2 -2 3.5t-4.5 1.5h-4.5h-4v-10l-0.5 -0.5l-0.5 -0.5q-1 -1 -3 -1h-3v6t0.5 9t0.5 9.5
v6.5v3.5t0.5 5.5t0.5 5v3q1 5 4 6.5t5.5 2.5l5 2t2.5 4t-4 4.5t-9 4.5t-9.5 7.5t-5.5 12.5v15q0 8 -0.5 16.5t1.5 15.5t7 12t16 5q1 0 3 -0.5t2 -2.5q0 -1 -2 -2t-4.5 -1.5l-5 -1l-2.5 -0.5q-3 -1 -4 -6.5t-2 -11.5t-1 -11.5v-7.5q0 -6 0.5 -13t3 -12.5t7 -9t13.5 -3.5h2
q2 1 4.5 1.5t4.5 1.5t4 1.5l2 0.5l2 3v3v3.5v5.5v4zM199 248q1 1 3 1h3q2 0 4 -0.5t2 -3.5v0v0q-1 -1 -2.5 -4l-3 -6t-3 -5.5t-1.5 -4.5q0 -1 -1 -3.5t-2 -5.5t-1.5 -6t-0.5 -4v-3q0 -1 0.5 -4.5t0.5 -6.5t0.5 -6l0.5 -3q0 -5 2 -9.5t3.5 -9l3 -9t1.5 -9.5t-3.5 -8.5
t-7 -6.5t-6.5 -7.5t-3 -10.5q0 -4 2 -6.5t4.5 -4.5t4.5 -4t2 -7q0 -2 -1 -5t-4 -3h-1v0q-1 8 -4.5 11t-8 5t-9.5 4t-8 7q1 1 2 1h1v0h2t2 -0.5t2 -0.5h1h2q2 0 2.5 2t0.5 3q0 14 -3.5 29.5t-9.5 28.5q-1 3 -2.5 5t-2.5 4l-2 4t-1 5v0v1q0 1 1 2t2 1q6 -4 10 -11t7 -15
t4.5 -16t2.5 -15q1 -1 2 -1h2q2 0 3.5 1t3 2.5t2 4t0.5 4.5t-1 4.5t-2 5.5q-3 12 -6.5 22.5t-3.5 23.5q0 11 4.5 21.5t8.5 21.5zM64 183l0.5 2t1 4.5t1 4.5t0.5 3q1 3 3 10.5t4.5 16t6 15t6.5 6.5t4 -1.5t1 -4.5v-2q-12 -22 -17 -44t-5 -46q0 -13 2.5 -25.5t5 -24.5
t4.5 -24.5t2 -25.5v-3v-4.5v-4.5v-3q-1 -2 -2 -5t-2 -5.5t-3 -5t-5 -2.5q-2 0 -4 0.5t-2 3.5l0.5 1.5l0.5 1.5q5 9 7 17.5t2 18.5v4v4v3v2q-1 2 -2.5 8t-3 13t-3 13t-1.5 7q-3 10 -2.5 21.5t0.5 20.5v6v9v9v6zM46 194q1 3 1.5 9.5t2 13t4 12t6.5 5.5q3 0 3.5 -1.5t0.5 -4.5
q0 -7 -2.5 -12.5t-4.5 -12.5q-2 -9 -2.5 -19.5t-0.5 -20.5v-21v-20l-1 -1.5t-2 -1.5q-2 0 -3.5 2t-1.5 3v70zM92 217q1 2 2 3t3 1t3.5 -2t1.5 -4v-1q-1 0 -1.5 -0.5l-0.5 -0.5q-1 -1 -2 -3l-1 -2q0 -1 -1 -3.5t-2 -5.5t-1.5 -5.5l-0.5 -2.5q0 -1 -1 -3l-1 -2q-1 -9 -2 -19
t-1 -19q0 -7 1 -13t1 -12q0 -4 -5 -4v0l-2 2t-2 1v3.5t-0.5 5.5t-0.5 5.5v3.5v1v19t1.5 20t4 19.5t7.5 17.5zM116 157q1 3 3.5 4.5t5.5 2t6 0.5h5t3.5 -0.5t1.5 -3.5q0 -1 -0.5 -1.5t-3.5 -1.5h-2h-4h-4h-3q-2 -1 -2.5 -2t-0.5 -3t2.5 -5t5.5 -3q4 0 6.5 2t6.5 2
q0 -2 -1 -3.5t-2.5 -2.5t-2.5 -2.5t-1 -2.5v-25q-5 0 -6.5 3.5t-2 8.5l-1 10t-4.5 7l-2 -1v-3v-4.5t-0.5 -4.5l-0.5 -2q0 -1 -1 -2t-1 -2v0h-1v0l-2 2l-2 2v0v1q1 2 1.5 6t1 9t1.5 9t1 6zM87 92q0 4 2 4h1v-1q1 0 2.5 -2t2.5 -2q0 -1 1 -4.5t1.5 -7t1.5 -6.5t1 -5l0.5 -2
t1.5 -2v-1v-1q-1 -2 -1 -5t-0.5 -6t-0.5 -5.5v-2.5q0 -1 -1 -2.5t-2 -2.5l-2 2v6v8v9v5t-0.5 3.5t-1.5 3.5q-1 4 -3.5 8.5t-2.5 8.5zM46 92q0 2 1.5 2h2.5q4 0 6.5 -4.5t4 -10t2 -11.5t0.5 -8v-3t-0.5 -4t-0.5 -4v-3t-1.5 -4t-3.5 -4h-1h-1q-2 0 -4 0.5t-2 3.5q3 5 3.5 9
t0.5 9q0 9 -2 16t-5 15v1zM165 84q0 1 0.5 2t1.5 1q3 0 5 -1.5t5 -2.5q4 -3 8.5 -4.5t7.5 -3.5t5 -5.5t2 -9.5q0 -2 -2 -5t-5 -2q-2 0 -3 2t-1.5 4.5l-1 5t-1.5 3.5q0 1 -2 2t-4 2.5t-4 2.5t-3 1q-2 2 -5 3.5t-3 4.5zM118 73q0 -4 3 -5.5t7 -2.5t8 -1h6h5q1 1 1.5 2t0.5 2v4
t-1 4t-2 3.5t-4 1.5h-19q-3 0 -4 -3.5t-1 -4.5zM116 56q0 -2 2 -4t5 -4t6 -2.5t5 -0.5t4.5 0.5t4.5 1.5t3.5 2.5t1.5 4.5q0 2 -3 3.5t-6.5 2.5t-7.5 1h-6h-2.5h-3.5q0 -1 -1.5 -2.5t-1.5 -2.5zM190 33q0 4 -4 6.5t-8 4.5t-8 4.5t-4 7.5q2 0 7.5 -2t11 -5t10 -6.5t4.5 -6.5
v-4q0 -3 -0.5 -5.5t-2 -4t-4.5 -1.5q-2 0 -3 0.5t-1 2.5v2l0.5 3l0.5 3q1 0 1 1z" />
</svg>
