<?xml version="1.0" standalone="no"?>
<!DOCTYPE svg PUBLIC "-//W3C//DTD SVG 1.1//EN" "http://www.w3.org/Graphics/SVG/1.1/DTD/svg11.dtd" >
<svg xmlns="http://www.w3.org/2000/svg" xmlns:xlink="http://www.w3.org/1999/xlink" version="1.1" viewBox="-10 0 266 256">
   <path fill="currentColor"
d="M161 210q0 3 1 10t3.5 14.5t5.5 13t6 5.5q6 0 6 -5t-2.5 -10t-5 -10.5t-4.5 -11.5t-2 -12q0 -2 2 -4q5 0 10.5 -3t10 -7t7.5 -9.5t3 -10.5q0 -4 -3 -4t-4.5 1.5t-3 4t-2.5 5t-2 3.5l-2.5 2.5l-3 3l-2.5 2.5l-1 1h-4v-4q0 -1 0.5 -2.5t2 -4t2.5 -4.5l2 -4t3 -4t3.5 -4
t2.5 -4.5t1 -5.5q0 -2 -0.5 -3t-2.5 -1q-3 0 -5 2.5t-4.5 6.5t-4.5 9t-4 9t-4.5 7t-4.5 3q-4 0 -4.5 -3.5t-0.5 -5.5q0 -1 0.5 -3t1.5 -3q0 -1 2 -3.5t3.5 -5.5t3.5 -5.5t2 -3.5v-1q0 -2 -1 -3.5t-3 -1.5h-1v0q-6 7 -10.5 15t-4.5 17q0 4 2 6.5t4.5 4t4.5 3t2 3.5v1v1v3
t-0.5 4t-0.5 4v2zM129 204q1 2 2 6t1.5 9.5t2 11t2.5 10t3 7.5t4 3t3 -1t1 -3q0 -3 -1 -7l-2 -8t-2.5 -7.5t-1.5 -5.5q-3 -7 -3 -15v-15q0 -8 1.5 -15t4.5 -13t7 -11.5t10 -11.5q0 -1 0.5 -2.5t0.5 -2.5l0.5 -3.5l1 -7t1 -6.5t0.5 -4q0 -2 1.5 -3.5t3.5 -2.5t4.5 -1.5
t4.5 -0.5q1 0 1.5 -1.5l0.5 -1.5q0 -1 -1 -2t-2.5 -1h-2.5h-2q-2 0 -8 0.5t-11.5 1t-10 1.5t-4.5 3q0 4 4 4v0q1 0 4 -0.5t4 -0.5q2 0 3.5 1t1.5 2.5v3.5v4q0 10 -5 20t-13 17q-1 1 -1.5 3.5t-1.5 5l-2 5t-1 3.5q-1 2 -1 5t-2 5v22zM80 169q0 3 0.5 10t1.5 15.5t3 18.5
t4.5 17.5t5.5 12.5t7 5q3 0 3.5 -0.5t0.5 -3.5t-1.5 -7l-3 -8t-3.5 -7.5t-4 -7.5q-4 -11 -4.5 -23.5t-0.5 -24.5q0 -8 1.5 -15.5l3 -15t3.5 -15t2 -15.5q0 -4 -0.5 -9.5t-2 -10.5t-4.5 -8.5t-8 -3.5q0 4 1 8t2.5 7.5t3 7.5t1.5 8q0 8 -2 16.5t-4.5 16t-4 16t-1.5 16.5z
M60 179v25q0 3 1 9.5t2.5 13t4 11.5t6.5 5q2 0 4 -1.5t2 -4.5t-1 -6t-3 -6t-3 -6l-2 -6q-1 -9 -1.5 -16.5t-1 -14.5t-0.5 -14v-17q0 -2 -0.5 -2h-1.5q-3 0 -4 1t-2 3v26zM100 177q0 2 0.5 7t1 11t2 12.5t3.5 12t5 9t7 3.5q2 0 4 -0.5t0 -4.5q-7 -11 -10.5 -25t-3.5 -27
q0 -7 1.5 -13t1.5 -13q0 -2 -1.5 -2.5t-3.5 -0.5t-3.5 2.5t-2 5.5l-1 6t-0.5 5v1.5v3.5v4v3zM64 133q0 2 0.5 3.5t3.5 1.5t5.5 -4t2.5 -8v-28q0 -4 -2.5 -7t-6.5 -3q-2 0 -3 1t-1 2q0 3 1 5.5l2 5l2 5t1 5.5q0 6 -2.5 10.5t-2.5 10.5zM110 107q0 3 -1 7l-2 8t-2 7.5t-1 7.5
q5 0 7.5 -4t4 -9.5t2 -11t0.5 -8.5v-6q0 -5 -1 -9t-3 -7t-6 -3t-4 4q0 3 1 6t2.5 6t2 6t0.5 6zM124 107q0 10 5 17t15 7q2 0 3.5 -0.5t1.5 -2.5t-2.5 -2.5t-5.5 -2t-5.5 -5t-2.5 -12.5q0 -7 3 -11t7.5 -6t10 -3t10.5 -1q7 0 11.5 0.5t7 2.5t3.5 6t1 11q0 10 -4.5 14t-14.5 6
v1v0q0 2 1 2.5t3 1t4 0t3 -0.5q7 0 10.5 -2t5 -5.5t1 -8.5t-0.5 -12v-12q-3 -4 -5.5 -6.5t-6 -3.5t-7.5 -1.5t-9 -0.5q-2 -2 -3 -3.5t-2 -2.5t-2.5 -2t-3.5 -1h-1q-1 0 -1.5 0.5l-1.5 1.5q0 7 -3 9t-7 2.5t-8 1.5t-7 6q-2 5 -2.5 9t-0.5 9zM80 44q1 2 0.5 5.5t0 6.5t1.5 5.5
t4 2.5q4 0 5 -4t1 -9v-9t2 -4q4 0 6 2t4.5 4l5 4t5.5 2q4 0 4 -5v-1q-3 -4 -5.5 -6t-5.5 -3.5l-6 -3t-8 -3.5q-2 -1 -2.5 -4t-0.5 -5q0 -4 -0.5 -6t-4.5 -2t-5 2.5t-1.5 6l-1 7t-2.5 6.5q-1 0 -2 1t-2.5 2t-3 2.5l-1.5 1.5l-2.5 2.5t-3.5 3t-3.5 3.5t-2 2.5t-1 1.5l-0.5 1
q0 2 1.5 3t2.5 1q4 0 6.5 -2t4.5 -5t4 -5t5 -2h2zM149 38q0 2 0.5 6.5l1 9t2 7.5t3.5 3q2 -1 3.5 -3.5t1.5 -3.5v-4v-6v-6v-4t1 -1.5t2 -0.5q3 0 6 2.5t6 4.5l6 4t6 2t4 -0.5t1 -3.5q0 -4 -3 -7t-7 -5.5t-8.5 -3.5t-7.5 -3q-5 -1 -6.5 -3.5t-1.5 -5.5t-1 -4.5t-4 -1.5
t-3.5 1.5t-1 4t-0.5 4.5v3q-1 3 -5 6.5t-8.5 7t-8.5 7t-4 7.5q0 2 2 2.5t3 0.5q4 0 6.5 -2.5t4.5 -5.5t4 -5.5t5 -2.5h0.5h0.5z" />
</svg>
