<?xml version="1.0" standalone="no"?>
<!DOCTYPE svg PUBLIC "-//W3C//DTD SVG 1.1//EN" "http://www.w3.org/Graphics/SVG/1.1/DTD/svg11.dtd" >
<svg xmlns="http://www.w3.org/2000/svg" xmlns:xlink="http://www.w3.org/1999/xlink" version="1.1" viewBox="-10 0 266 256">
   <path fill="currentColor"
d="M199 247q2 2 4 2.5t4 0.5t3 -1t1 -4v-1v-2q-8 -12 -12 -24.5t-4 -26.5q0 -5 1 -10t2.5 -10l3 -10t1.5 -10q0 -6 -2.5 -9t-5 -5t-5 -4.5t-2.5 -6.5q0 -5 2 -7t5 -3t6 -3t5 -5q2 -5 3.5 -12t1.5 -13q0 -1 -0.5 -8.5t-1.5 -16t-3.5 -15.5t-6.5 -7h-22q-2 0 -4.5 1.5t-4.5 4
t-3.5 4.5t-1.5 4v36q1 2 1.5 5t0.5 6t0.5 5.5t1.5 5.5q1 1 3 2t3.5 2l3 2t1.5 2q1 1 1 4v3q0 5 -1 7t-2.5 4l-3 4t-3.5 5q-6 14 -7 28.5t-1 29.5v10v9t0.5 8.5t1.5 10.5q0 2 1 4t3 2t3.5 -1.5t1.5 -2.5q0 -10 -1.5 -19.5t-1.5 -19.5q0 -13 1.5 -26.5t4.5 -26.5q2 0 3 -2
t2 -3.5t2 -2.5t3 -1t4 1l4 2v4.5v4.5q0 13 -2.5 25.5t-2.5 24.5t4 22.5t7 22.5zM68 125q0 20 1 39.5t4 39.5q0 3 1.5 10.5t3.5 15t5 13.5t6 6q2 0 3.5 -1.5t1.5 -3.5t-1.5 -6.5t-3.5 -10t-4 -10t-3 -7.5q-4 -19 -5 -37t-1 -38q0 -11 1.5 -21.5t3.5 -21t3.5 -21t1.5 -21.5
q0 -4 -0.5 -11.5t-2.5 -14.5t-5.5 -12.5t-9.5 -5.5q-3 0 -3 2t1.5 4t3.5 3l8 21v5.5v7.5q0 10 -1.5 19.5t-3.5 18.5t-3.5 18.5t-1.5 19.5zM102 244v3t3 1q2 0 3 -1.5t2 -2.5q1 -16 3 -30.5t1 -30.5l2 -2h1.5t3.5 -0.5t4 -0.5h4h2h3h1.5h1.5l1 5q0 2 1 7.5t1.5 12t1 12
t0.5 7.5v2.5t0.5 3.5t0.5 3.5v2.5l0.5 1t1 2.5l1 3t1.5 1.5q3 0 4.5 -2t1.5 -4v-2q0 -1 -1 -5t-1.5 -8.5t-1.5 -8t-1 -4.5q0 -3 -1 -11.5t-1.5 -17t-1.5 -16.5t-1 -11v-3v-6.5v-7.5v-6v-5v-6.5v-7.5v-4q0 -3 1.5 -3.5t4 -0.5t4.5 -0.5t2 -2.5v-1q-1 -1 -1.5 -2l-0.5 -1h-19
q-1 0 -1.5 -1t-0.5 -2v-1v-2q0 -5 2 -8t5 -4t5.5 -1.5t2.5 -2.5t-2 -2.5t-4.5 -1.5t-4.5 -3t-2 -7q0 -4 1.5 -5t4 -1.5t4.5 -1.5t3 -3q0 -2 1 -4.5t1.5 -5.5t1 -5.5t0.5 -4.5q0 -1 -0.5 -3t-3.5 -2v0v0q-2 0 -2 1l-3 17q-1 2 -2.5 2.5t-2.5 0.5t-2 -0.5t-1 -1.5v-32
q0 -2 -1.5 -3.5t-3.5 -1.5q-1 0 -2 0.5t-1 1.5v6v9v9.5v5.5t-0.5 3.5t-1.5 2.5q0 1 -1 1h-1q-3 0 -4.5 -2.5t-2.5 -6t-1 -7.5v-5l-3 -3l-1 1v5v9.5t3 9.5q1 3 3.5 4t4.5 2.5t3.5 3.5t1.5 5q0 4 -2.5 6.5t-5.5 3.5t-5.5 1.5t-2.5 3.5v1q0 1 2 1.5t4.5 1t3.5 0.5h2q2 2 2 5v5
v2v2l-2 2h-3.5t-5 0.5t-5 0.5h-3.5t-3 1l-2 1q-1 1 -1 2.5v1.5h7l0.5 2.5t1 5.5t0.5 6.5v5.5v5v8.5v11.5v8v7v10.5v9.5v7q-1 5 -2 12t-2 14.5t-1.5 14.5t-0.5 12zM47 160v1l0.5 1t0.5 2.5t0.5 2.5t0.5 2q0 5 0.5 14t2 18t4.5 17t9 13q2 -1 2.5 -2t0.5 -3q0 -6 -1.5 -12
l-3 -12l-3 -12t-2.5 -12v-7.5t-0.5 -13.5t-0.5 -13v-7v-3.5t0.5 -5t0.5 -5v-2.5v-8q0 -1 0.5 -3t0 -3.5t-1.5 -2.5t-3 -1h-1h-1q0 1 -1 4t-1 4t-0.5 6.5t-1 13t-1 15.5t-0.5 13v1zM86 118v54l0.5 1.5t0.5 2.5t1 2.5l1 1.5q0 2 0.5 7t1.5 10.5t3 9.5t6 4q0 -6 -1 -9t-2 -8
q-2 -11 -3.5 -22.5t-1.5 -22.5q0 -9 1.5 -19t1.5 -19v-4.5t-3 -1.5h-0.5h-1.5q0 2 -1.5 6t-2.5 7zM116 140l2 -5l2 -0.5t5.5 -1t5.5 -0.5h1q1 0 2 0.5t1 1.5v30q0 1 -0.5 2t-0.5 2q-1 0 -1.5 0.5l-0.5 0.5h-16v-30zM122 155q0 2 1 3t3 1t3 -1t1 -3v-3.5v-3.5q-5 0 -6.5 1.5
t-1.5 5.5zM116 111v-5q4 -1 6.5 -1h5.5q7 0 7 7v2v2.5t-0.5 3.5t-0.5 3.5v2.5q-2 1 -4.5 1h-4.5h-3h-3q-1 -1 -2 -3t-1 -4v-4.5v-4.5zM172 99v-2.5t2 -2.5q5 -1 9 -1.5t9 -0.5q4 0 5 2t1 6v4.5t-3 3.5h-7h-5t-5.5 -1t-4 -2.5t-1.5 -5.5zM57 63q0 8 -2 15.5t-2 15.5
q6 0 8.5 -4.5t3 -10.5t0.5 -12v-10q0 -6 -0.5 -10t-1.5 -8t-3 -8t-5 -9h-1h-1q-2 0 -3 0.5t-1 2.5t0.5 4.5t2 4.5t2.5 4t1 5l0.5 2t0.5 5.5t0.5 6.5t0.5 5v1zM92 85v2.5t2 1.5q5 0 7 -4.5t3 -10t1 -11v-7.5t-0.5 -8t-1.5 -11.5t-2.5 -10t-4.5 -4.5h-0.5h-0.5l-0.5 1t-1.5 2
q4 8 4 15.5v15.5v3v6v4.5v3.5q-1 3 -3 5.5t-2 6.5zM170 78v-1v-2t0.5 -2.5t1.5 -1.5q2 0 4.5 -0.5t6 -1t6.5 -1t5 -0.5t3 1t2 3t1 4v3t-0.5 3t-1.5 2q-6 1 -9.5 1.5t-9.5 0.5h-5q-3 -1 -3.5 -3.5t-0.5 -4.5zM170 60q0 -10 5.5 -14t14.5 -4q5 0 6.5 3.5t1.5 7.5t-2 6.5t-5 3
t-7 0.5h-7h-4.5t-2.5 -3z" />
</svg>
