<?xml version="1.0" standalone="no"?>
<!DOCTYPE svg PUBLIC "-//W3C//DTD SVG 1.1//EN" "http://www.w3.org/Graphics/SVG/1.1/DTD/svg11.dtd" >
<svg xmlns="http://www.w3.org/2000/svg" xmlns:xlink="http://www.w3.org/1999/xlink" version="1.1" viewBox="-10 0 266 256">
   <path fill="currentColor"
d="M61 161q0 9 0.5 16.5t2 15.5t3.5 15.5t4 16.5q0 2 1 6t2.5 8t3.5 7t5 3t3.5 -1.5t0.5 -3.5t-1 -4.5t-2 -4.5l-2 -4l-2 -4q-5 -19 -8 -35.5t-3 -35.5v-5v-7v-7v-5q3 -6 3 -14t2 -16l0.5 -1t1 -2.5t1 -2.5t0.5 -2v-4v-3.5t0.5 -3t1.5 -3.5v-32l-1 -2t-2 -5l-2 -6t-2 -4
q-2 -5 -4 -9t-8 -4h-2h-1.5t-1 1.5l-0.5 1.5q0 2 2 6t5 9t5.5 10t3.5 8v3v4v4v3q0 11 -2 21.5t-4 20.5q-3 13 -3.5 25.5t-0.5 25.5zM107 241q0 2 1 2.5t3 0.5q3 0 4.5 -4.5t2.5 -10t1.5 -10.5t0.5 -7q0 -29 -2 -58t-2 -58q0 -3 4.5 -5t10.5 -4.5t11.5 -6.5t7.5 -10v-4.5
t0.5 -7.5t0.5 -8v-5v-1v-1v-5t-0.5 -9t-0.5 -9v-5q-1 -2 -1.5 -2h-2.5h-1.5t-1.5 2v14q0 1 -5 2t-11.5 3.5t-12 7t-7.5 12.5v24q0 28 2.5 56t2.5 57q0 9 -0.5 18.5t-1.5 18.5q0 4 -1.5 7t-1.5 6zM205 241q1 3 5 3q1 0 2 -0.5t2.5 -2t2.5 -3t1 -2.5l-0.5 -1.5l-1 -3t-1.5 -3
l-1 -1.5q-2 -13 -3 -27t-1 -26q0 -1 -0.5 -4.5t-0.5 -7.5t0.5 -7.5t0.5 -4.5l-2 -3l-0.5 -3t-0.5 -7t-0.5 -7.5t-0.5 -6.5q0 -22 -1 -43.5t0 -42.5q-3 -4 -6.5 -5.5t-8 -2.5t-9 -0.5t-8.5 0.5l-3 -3v-13q0 -1 -1.5 -1.5t-2.5 -0.5q-2 0 -3 0.5t-1 3.5v31q1 1 1.5 3l0.5 2v23
q2 5 6 7t8.5 3.5t9 2.5t7.5 4q0 19 1.5 38t3.5 37.5l4 37t1 37.5zM39 187q0 1 1 5.5t1.5 11t2 13t3 12.5t4 10t5.5 4t3.5 -2.5t0.5 -4.5q0 -4 -1.5 -8t-3 -8.5t-3 -8.5t-2.5 -8q-3 -20 -3 -41v-41l-1 -1h-1q-1 0 -2.5 1t-2 2.5t-1 3.5l-0.5 2v58zM80 158q0 1 0.5 7t2 13.5
t3 15.5t3.5 15t4 11.5t5 4.5q2 0 3.5 -1t2.5 -4q-9 -13 -12.5 -30.5t-3.5 -33.5q0 -8 1 -16.5t1 -17.5q0 -2 -1.5 -3.5t-3.5 -1.5q-3 0 -4 5t-1 12v13.5v10.5zM131 167v19.5t3 14.5t9.5 8.5t18.5 2.5h3h3h4h3q8 -1 11.5 -6.5t5 -12.5t1.5 -14.5v-13.5q0 -4 -0.5 -9t-2 -9
t-5 -7t-9.5 -3q-1 0 -2 0.5t-2 2.5q1 3 3.5 4.5l5 3t4 3.5t1.5 6q0 2 -1 2.5t-2 0.5h-2q-1 -1 -3.5 -2l-2.5 -1h-1h-1l-0.5 1t-0.5 2v0v1v0q1 2 3.5 3l5 2t4 2t1.5 4q0 2 -1.5 4t-3.5 2.5l-4 1t-4 0.5q0 1 1 2t2.5 2l3 2l1.5 1v13q0 3 -3.5 3.5t-5.5 0.5l-1 0.5t-2 0.5
t-2 -0.5t-1 -1.5q-1 -3 -1.5 -9t-1 -13t-1 -13t-0.5 -8v-2.5v-3.5v-5v-4v-3v-4v-4v-3q2 -2 5.5 -4l7 -4t6 -4.5t2.5 -6.5v0q0 -1 -1.5 -3.5t-2.5 -2.5q0 -1 -2 -1t-4.5 -0.5t-4.5 -1t-2 -1.5q-3 0 -5 -2.5l-4 -5t-4 -4.5t-5 -2v13q0 1 -2.5 3t-6 4t-6 4.5t-2.5 4.5v1
q0 1 0.5 1.5l0.5 0.5q3 -1 6 -3.5l6 -5t6.5 -4.5t6.5 -2q1 0 4 0.5t5 1.5t4 2.5t2 4.5q0 2 -1.5 3t-3.5 3q-3 3 -6 7.5t-7 6.5q-2 2 -5.5 3t-7 1.5t-6.5 2.5t-4 6v4v6v6v4zM140 191q0 -4 3.5 -6t6.5 -4q-1 -2 -1.5 -2h-2.5t-3.5 1t-2.5 1q-2 0 -3.5 -2t-1.5 -3
q0 -3 1.5 -5.5t3.5 -4.5t5 -3.5t6 -1.5t4.5 5t2 11t0.5 11v8v4q0 3 -2 4h-2h-2q-6 0 -9 -3.5t-3 -9.5zM137 152q0 -5 3.5 -7.5t7.5 -2.5q6 0 6 7q0 2 -1 4t-3.5 3t-4.5 1.5t-5 0.5t-3 -2v-4zM42 96q0 1 0.5 3.5t1.5 2.5h3q1 0 2 -0.5t2 -2t2.5 -3t1.5 -2.5q2 -4 2.5 -10
t0.5 -11t-0.5 -10.5t-2.5 -10.5t-5.5 -8.5t-9.5 -3.5q0 4 1.5 8.5t3 8.5t3 8.5t1.5 10.5q0 4 -0.5 8.5t-2.5 8.5q-1 0 -2.5 1.5zM85 94q0 1 1 1.5t2 0.5q3 0 4.5 -2.5t2.5 -6t1.5 -7t1.5 -5.5v-30q0 -3 -4 -6t-7 -3q0 4 1 6.5t2 5.5t2 5.5t1 6.5q0 5 -0.5 8.5t-1.5 8.5
q-1 4 -3.5 8t-2.5 9zM141 59q2 0 2 5q0 4 -1.5 7.5t-5 6t-7 4t-7.5 1.5l-1 0.5t-2 0t-2 -0.5t-1 -1v-13q0 -1 1 -1.5l1 -0.5q5 -2 11 -5t12 -3zM170 64q0 -4 2.5 -4.5t5.5 -0.5q8 0 13 3t5 12v2q0 1 -0.5 3t-1 3t-1.5 1q-4 0 -8 -1.5t-7.5 -4t-5.5 -6t-2 -7.5zM137 40
q7 0 7 6q0 4 -3 6.5t-7.5 4t-8.5 2.5t-7 1v-12q0 -1 2.5 -2.5t5.5 -2.5t6.5 -2t4.5 -1zM170 42v-1v-3q2 -2 5 -1.5t5 0.5q5 0 8 0.5t5 2.5t2.5 5t0.5 8h-8q-4 0 -8 -0.5t-7 -3t-3 -7.5z" />
</svg>
