<?xml version="1.0" standalone="no"?>
<!DOCTYPE svg PUBLIC "-//W3C//DTD SVG 1.1//EN" "http://www.w3.org/Graphics/SVG/1.1/DTD/svg11.dtd" >
<svg xmlns="http://www.w3.org/2000/svg" xmlns:xlink="http://www.w3.org/1999/xlink" version="1.1" viewBox="-10 0 266 256">
   <path fill="currentColor"
d="M118 246q1 1 2 3t2 2q2 0 3.5 -2.5t1.5 -4.5q0 -30 1.5 -59t0.5 -59q0 -1 0.5 -3.5t1.5 -2.5q0 -1 1 -1h1q3 0 4.5 3t2.5 7t1.5 8t0.5 5v68q0 1 -0.5 3.5t-0.5 3.5q0 2 1 2.5t2 0.5h2.5t1.5 -2v-34v-33t-1 -33q-4 -5 -7 -6.5t-5 -3t-3 -4t-1 -9.5v-5v-4t0.5 -1.5
t1.5 -0.5h1.5t3 -0.5t3 -0.5h1.5q4 -1 5 -5.5t1 -9v-7.5q0 -4 2 -4h13q0 4 0.5 8t2 7.5t4.5 6t7 4.5v27q0 3 -2.5 4.5t-6 2.5t-6.5 2.5t-4 5.5q0 6 -0.5 11t-0.5 10t-0.5 9.5t-0.5 9.5q0 8 0.5 13t2 8.5t5 5.5t10.5 4v2v3q0 3 -2.5 8t-6.5 10.5t-7.5 10.5t-5.5 8v6
q7 0 11 -4.5t6.5 -10.5t5 -10.5t5.5 -4.5q1 0 1.5 0.5t0.5 1t1 1.5t1.5 3t1.5 3.5l1 1.5q0 1 1.5 3.5t3.5 5.5t3.5 5.5t2.5 3.5q2 1 3.5 1h3.5q3 0 4.5 -0.5t1.5 -3.5v-1v-1q-3 -2 -7 -7.5t-8 -11.5t-6.5 -12t-2.5 -10q0 -2 2 -3t5 -2l6 -2t5 -3t2.5 -6t0.5 -8.5v-8t3 -5.5
v-3v-4v-4v-3q0 -8 -0.5 -15t-4.5 -14l-0.5 -1l-0.5 -1h-15l-3 -4v-23q0 -1 2 -2.5t5 -3.5t5.5 -4t3.5 -3q2 -1 2 -3.5v-5t0.5 -5t2.5 -3.5q1 -2 4 -2h5.5t4.5 -1.5t2 -5.5q0 -2 -2.5 -2.5t-5.5 -0.5t-5.5 -0.5t-2.5 -2.5v-20q0 -1 -1.5 -2.5t-3.5 -1.5q-7 0 -7 6v2v1
q0 1 1 2t1 2q0 5 -1 8.5t-3.5 5t-6.5 2t-9 0.5h-2.5t-1.5 -2v-24q0 -1 -1 -1.5t-2 -0.5q-4 0 -5.5 2t-2 5t-0.5 6v5q0 1 -0.5 3t-0.5 3.5t-0.5 2.5l-0.5 1h-12v-13q0 -2 -1.5 -2h-2.5h-1.5t-1.5 2v6.5t-0.5 10t-0.5 10.5v7v3q-1 1 -3 2.5t-2 2.5h-1h-1l-1.5 -0.5t-1.5 -1.5
v-4.5v-4.5q0 -8 1 -16t1 -17v-13q-1 -4 -2 -5t-4 -1q-2 0 -4 0.5t-2 3.5q0 7 1 14.5t1 14.5v8v6.5t-0.5 7t-1.5 8.5h-0.5h-0.5q-3 0 -4 -2t-1 -5v-33q0 -1 -1.5 -2t-1.5 -2h-1q-4 0 -4.5 3t-0.5 5q0 9 1.5 19.5t2.5 19.5q1 2 3 3t4.5 1.5t4 1.5t1.5 4v8.5t-1 6.5t-3 5.5
t-6 5.5q-8 7 -11 16.5t-3 20.5v56q0 1 1 3.5t2 3.5l0.5 1t1.5 1v0v0q3 0 4 -2.5t1 -4.5q0 -9 -1.5 -17t-1.5 -17v-4q0 -2 0.5 -5t0.5 -5v-2q0 -2 0.5 -6.5t1.5 -10t1.5 -10.5t1.5 -7q0 -2 1.5 -3.5t3.5 -1.5h1l1 0.5t1 1.5v29v1.5t0.5 2.5t0.5 2.5v1.5v1q0 17 -1.5 33
t-1.5 32v20zM62 218l2.5 7.5t3 8.5t4 7t6.5 3q2 0 3 -1.5t2 -3.5q-18 -36 -18 -76v-13q0 -1 1.5 -7t3 -13l3 -14t2.5 -11q1 -6 3 -11t3 -10.5t2 -10.5t1 -11v-7.5t-1 -10.5l-2 -12t-3.5 -10.5t-5.5 -7.5t-7 -3q-3 0 -4.5 0.5t-1.5 3.5v2v1l1 1l2 2l2 2l1 1q2 3 4 7t3 9
t2 9.5t1 6.5q0 11 -2.5 20.5t-5.5 19l-6 19t-4 19.5v3v3v4v2q0 3 -1.5 7t-1.5 7q0 14 2 29.5t6 28.5zM36 163v9t0.5 13l1 14t2.5 13t5 10t8 4q0 -4 -0.5 -7l-1 -6t-1.5 -6t-2 -8t-1.5 -8.5t-0.5 -7v-7.5v-9v-11t0.5 -9.5t1 -9.5t1.5 -11q0 -2 -0.5 -2.5t-2.5 -0.5t-3 1.5
t-1.5 3t-1 3.5t-0.5 3q-1 2 -1.5 4l-1 4t-1 3.5l-0.5 1.5v16zM86 214q1 1 1.5 1h1.5q2 0 3.5 -1.5t1.5 -3.5t-0.5 -6.5t-2 -9.5t-2.5 -9t-1 -5v-34q1 -4 2 -10t1 -10t-4 -4q-2 0 -3 1t-1 2t-0.5 2.5t-1.5 1.5q0 2 -0.5 5t-1 6.5l-1 7t-0.5 4.5v6q0 15 1 28.5t7 27.5z
M163 170v-8q1 -2 3 -3.5t5 -1.5t5 3q1 6 1 10v9q0 3 -0.5 5t-3.5 2q-4 0 -6 -1.5t-3 -4t-1 -5.5v-5zM193 155h3h2l1 1.5t1 2.5v0q0 3 -0.5 7l-1 8t-2.5 7t-6 3h-3t-2 -1v-23q0 -4 3 -4.5t5 -0.5zM172 123h2.5t1.5 2v21q0 2 -2 2.5t-3 0.5t-4 -1t-3 -2v-18q0 -2 3.5 -3.5
t4.5 -1.5zM187 125q1 -2 3 -3t3 -1t3 0.5t2 1.5q1 4 1.5 7t0.5 7q0 3 -1 5t-3 3t-5 1h-6q0 -5 0.5 -10.5t1.5 -10.5zM145 104q0 2 1 2.5t2 0.5q3 0 5.5 -2t5 -4.5t4.5 -5t2 -4.5t-0.5 -3t-2.5 -1t-5 2t-5.5 4.5t-4.5 5.5t-2 5zM198 92q0 2 2 4.5t5.5 5t6.5 4t5 1.5t3.5 -1.5
t1.5 -3.5q-1 -7 -7.5 -10t-12.5 -3q-2 0 -3 0.5t-1 2.5zM86 98q0 2 0.5 3t2.5 1q3 0 5 -1.5t3 -3.5q1 -1 2 -4.5l2 -7t1.5 -6.5t1.5 -5v-10v-9q0 -7 -1 -13.5t-3.5 -12t-7.5 -5.5q-1 0 -2.5 0.5t-1.5 2.5v0q0 1 1.5 3.5t1.5 3.5q3 8 4.5 15t1.5 16v11q-1 2 -3 4.5t-3.5 5.5
l-3 6t-1.5 6zM43 95q0 3 2 3.5t4 0.5q3 0 5.5 -5t4 -11t2.5 -12t1 -9t-1 -8t-3 -11t-4.5 -10t-6.5 -4h-1l-1.5 1.5l-1.5 1.5v1q0 4 1 7t2.5 6t2.5 6.5t1 8.5q0 8 -1 15t-5 15q0 1 -0.5 2.5zM174 61v-4q1 0 3 -0.5t5 -1t5 -0.5h3h1q3 0 4 2.5t1 5.5t-1.5 5t-3.5 3t-4.5 1.5
t-5.5 0.5h-2.5h-2.5q-2 -4 -2 -6v-6z" />
</svg>
