<?xml version="1.0" standalone="no"?>
<!DOCTYPE svg PUBLIC "-//W3C//DTD SVG 1.1//EN" "http://www.w3.org/Graphics/SVG/1.1/DTD/svg11.dtd" >
<svg xmlns="http://www.w3.org/2000/svg" xmlns:xlink="http://www.w3.org/1999/xlink" version="1.1" viewBox="-10 0 266 256">
   <path fill="currentColor"
d="M192 247q1 1 2 1h2q3 0 6.5 -1.5t3.5 -4.5q0 -5 -1.5 -9.5t-2.5 -9.5q-1 -12 -2 -24.5t-1 -25.5q0 -4 -0.5 -13.5t-1 -20t-1 -20t-0.5 -13.5q-1 -2 -2 -5t-2 -7t-1.5 -7.5t-0.5 -6.5t1 -5t3 -4t3.5 -4t3.5 -4q2 -5 3.5 -11.5t1.5 -11.5q0 -8 -6 -13t-14 -8t-16 -4t-13 -1
h-5h-6t-5.5 1.5t-2.5 3.5q0 1 0.5 2t1.5 2l38 3q3 0 6 2t6 5t4.5 6t1.5 6q0 2 -0.5 5t-1.5 5.5t-2.5 5t-4.5 2.5h-2q-4 -5 -7.5 -8.5t-8 -5.5t-10 -2.5t-12.5 -0.5h-2t-3.5 0.5l-3 1t-1.5 2.5v1q0 2 2.5 2.5t4.5 0.5h4h2q2 1 4.5 1.5t6 1.5t6.5 1.5t4 0.5q2 3 4 5.5t2 4.5v2
q-12 4 -24 5t-23 2v1v1q0 3 0.5 4t3.5 1h1q3 -1 8 -1.5t10.5 -1t9.5 -1t5 -0.5l3 -1t4 -1h0.5h1.5q2 0 3 2l2 4t1 4.5v3.5q1 3 1.5 10.5t1 16t1 15.5t0.5 10v26q2 4 3 8.5t1.5 9t0.5 9.5v8v8.5v11.5v12.5v8.5zM50 241q0 3 2 3.5t4 0.5q3 0 5 -2.5t3 -5.5t1.5 -6t0.5 -4v-92
v-7t0.5 -10.5t0.5 -10v-6.5q1 -1 2.5 -2t2.5 -1l37 -3q7 -1 7 -7h-42q-1 0 -3.5 -0.5t-3 -1t-1 -2t-0.5 -3t-0.5 -2.5t0.5 -1l1 -2l49 -7q1 0 1.5 -1t0.5 -2q0 -2 -1 -2.5t-2.5 -0.5h-3.5h-3q-9 0 -17.5 0.5t-17.5 0.5q0 -6 5 -9.5t11.5 -6t13.5 -3.5t11 -2l5 -5v-20l-5 -5
l-2 -0.5t-4.5 -1t-5 -0.5h-3.5h-3h-4h-5h-4h-3h-4.5h-5.5h-3q-2 0 -4.5 1t-2.5 4q0 1 0.5 2t1.5 1h47q2 0 2 3v3q0 5 -1.5 7.5t-5.5 5.5q-2 0 -6 1.5t-9 2.5t-9 2.5t-6 1.5l-1.5 0.5t-1.5 1.5q-7 5 -10 14t-4 18.5t-0.5 19t0.5 16.5q-2 3 -2.5 7.5t-0.5 7.5v2v3.5t0.5 5.5
t0.5 6v3v2v2v9t-0.5 15t-0.5 15v9v7q-1 7 -2.5 15.5t-1.5 15.5zM78 231q0 2 0.5 3t2.5 1q5 0 9.5 -4t8.5 -10.5t8 -13.5t7.5 -13.5t6.5 -10.5t5 -4q3 0 5.5 4t6 10t6.5 13t7 13t7.5 10t7.5 4h3t3.5 -0.5t3 -2t1.5 -3.5v0q-6 -7 -12 -13.5t-13 -11.5q-1 -3 -1.5 -5t-2 -3.5
t-2.5 -3t-2 -4.5q-2 -2 -3.5 -5t-3.5 -6.5t-3 -5.5t-1 -3v-46l1.5 -6t0.5 -6v-1.5t-0.5 -3t-1.5 -2.5t-3 0q-1 1 -3 2.5t-2 2.5q-2 9 -2 18v18t-1 18t-6 16q-1 1 -2.5 3.5t-3.5 5l-4 5t-2 3.5q-2 3 -6.5 9l-9 12t-7.5 11t-3 6zM86 171q0 1 0.5 3.5t2.5 2.5t4 -2.5t2 -4.5
q0 -6 1 -12t2 -11.5t1.5 -11t0.5 -11.5l0.5 -1.5t0 -3.5t-1 -3t-1.5 -1q-2 0 -3.5 1t-2.5 2q-1 5 -2 12t-2 14.5t-1.5 14.5t-0.5 12zM156 175q0 1 1 1.5t2 0.5q2 0 3.5 -2t1.5 -4v-3.5v-5.5v-5v-4v-11v-9.5t-0.5 -10t-0.5 -11.5h-3q-3 0 -4.5 2t-1.5 4.5v5.5v5q0 12 1 23
t1 24z" />
</svg>
