<?xml version="1.0" standalone="no"?>
<!DOCTYPE svg PUBLIC "-//W3C//DTD SVG 1.1//EN" "http://www.w3.org/Graphics/SVG/1.1/DTD/svg11.dtd" >
<svg xmlns="http://www.w3.org/2000/svg" xmlns:xlink="http://www.w3.org/1999/xlink" version="1.1" viewBox="-10 0 266 256">
   <path fill="currentColor"
d="M77 151v94q0 4 1 4.5t3 0.5q3 0 5 -1.5t2 -5.5v-96h24q2 0 2 -1.5v-2.5v-2t-2 -2h-25q-2 0 -2 -1.5v-2.5v-2l0.5 -2.5t0.5 -4.5t0.5 -4.5l0.5 -2.5q1 -3 2.5 -3.5t3.5 -1t3.5 -1t3.5 -1.5q4 -3 5.5 -10t2 -15t0.5 -15.5v-11.5v-15q0 -3 -1.5 -3.5t-2.5 -0.5l-1 0.5
l-1 0.5q0 2 -0.5 8t-0.5 13t-0.5 13t-0.5 8q0 3 -0.5 7t-1.5 7t-3.5 5.5t-5.5 2.5h-1q0 -1 -0.5 -2t-0.5 -2t-0.5 -4t-0.5 -5q0 -19 1 -38t1 -38q0 -2 -1 -2.5t-4 -0.5q-2 0 -4 1t-2 4q0 20 1 39.5t1 38.5v7l-0.5 0.5l-1.5 1.5v0q-4 0 -6.5 -3.5t-4 -8t-2 -9.5t-1.5 -7v-6.5
t-0.5 -10t-0.5 -10v-6.5q-2 -3 -3 -4t-3 -1q-3 0 -3 2v4v5.5t1 4.5l4 38q2 4 3 8.5t4 8.5q2 1 4 1.5t4.5 1t4 2t1.5 4.5v3q0 3 -0.5 7.5t-1 7t-0.5 3.5h-29l-1 4q6 4 13 4t14 -1zM106 235q0 2 2 3.5t4.5 2t5.5 1t4 0.5q21 0 43 -1t43 -3q2 0 2 -1v-2v-2t-2 -1h-5.5h-9.5h-9
h-6h-7h-10h-8.5h-3.5h-9t-12.5 0.5t-12.5 0.5h-9v2zM121 181q0 6 1 12.5t4 11.5t7.5 8.5t11.5 3.5h3h2q2 0 6 -0.5t8.5 -0.5t9 -0.5t5.5 -0.5q6 -2 9.5 -5t5 -7t2 -9.5t0.5 -12.5v-4.5v-3.5q0 -1 -1 -4t-1.5 -5.5t-2 -5t-1.5 -3.5q-2 -2 -5 -3t-6.5 -1h-6.5h-5q-8 0 -16 0.5
t-14.5 3.5t-11 9t-4.5 17zM188 192q-1 9 -7.5 14t-14.5 5q-1 0 -3 -0.5t-2 -3.5v-16l0.5 -1l0.5 -1q1 0 2 -1t2 -1h20l0.5 1l0.5 1q0 1 0.5 2zM132 193v-2t2 -2h2t4.5 -0.5t4.5 -1l2 -0.5h1h1q1 1 2.5 3l1.5 2v16q-2 0 -6 -0.5t-7.5 -2.5t-5.5 -4.5t-2 -7.5zM130 176
q0 -4 2 -7t4.5 -5t6 -3.5t6.5 -1.5t4 1t1 3q0 1 -0.5 2l-0.5 1v4t-0.5 4t-0.5 3.5v1.5l-2 2h-16l-3 -2q-1 0 -1 -1.5v-1.5zM171 158q3 0 5.5 1t5 3t4 4.5t1.5 6.5q0 1 -1 3.5t-2 2.5h-23q0 -4 -0.5 -8t0.5 -7t3 -4.5t7 -1.5zM120 135l3 3h4h7h12.5t20.5 -0.5t20.5 -0.5h12.5
q2 -1 2 -2v-2q0 -2 -2 -3.5t-5 -1.5q-2 0 -5 0.5t-6 1.5l-63 3zM120 83q0 3 1 9t3.5 11t6 9t7.5 4h31q4 0 8 -2t7 -4.5t5 -6.5t2 -9v-28q0 -5 -3 -8.5t-7.5 -5.5t-9.5 -3t-8 -1q-8 0 -16 1.5t-14 5.5t-9.5 10.5t-3.5 17.5zM129 91q0 -2 1.5 -3.5t3 -1.5h4h3.5h8q1 1 1.5 2.5
t0.5 3.5t-0.5 3.5l-0.5 1.5v9q-2 3 -5 3t-6 -1.5t-5 -4t-3.5 -5.5t-1.5 -7zM158 100v-4v-4t0.5 -4t2.5 -2q1 0 3 -0.5t4.5 -0.5t4.5 -0.5t3 -0.5h3q2 0 3.5 2t1.5 5q0 4 -2 7t-5 5t-6.5 3t-6.5 1q-6 0 -6 -7zM129 75q0 -3 2 -7t4.5 -6.5t6 -4t7.5 -1.5v23h-17l-1 -1l-2 -2
v-1zM158 75v-19h15q2 0 3.5 2t3 4.5t2.5 5.5t1 4q0 3 -2.5 4.5t-4.5 1.5h-3q-1 0 -3.5 -0.5t-4.5 -1t-4 -0.5h-2zM115 33q0 2 2 3t4 1h3q2 0 6.5 -0.5t11 -0.5h13.5t13.5 -0.5t11 -0.5h6.5h2.5t3.5 -0.5t3 -1.5t1 -3v-2t-1 -1h-6h-5q-4 0 -13.5 0.5t-20 1t-20 1t-13.5 0.5
q-1 0 -1.5 1l-0.5 1v1z" />
</svg>
