<?xml version="1.0" standalone="no"?>
<!DOCTYPE svg PUBLIC "-//W3C//DTD SVG 1.1//EN" "http://www.w3.org/Graphics/SVG/1.1/DTD/svg11.dtd" >
<svg xmlns="http://www.w3.org/2000/svg" xmlns:xlink="http://www.w3.org/1999/xlink" version="1.1" viewBox="-10 0 266 256">
   <path fill="currentColor"
d="M62 195v16q0 1 0.5 3.5t0.5 5.5t0.5 5.5t0.5 3.5v6t0.5 6.5t2 5.5t5.5 2q3 0 4 -1t1 -3q0 -6 -1 -12t-2.5 -12t-2.5 -12t-1 -12q0 -15 4.5 -29.5t11.5 -26.5v-29q-2 -4 -2 -8t-2 -7q-1 0 -2 -1l-2.5 -2.5t-2.5 -3l-1 -1.5q-1 0 -1 -1v-2q0 -5 2 -11.5t4 -11.5
q1 -1 2 -1.5t2 -0.5q5 0 6.5 2.5t1.5 5.5v6.5t0.5 7t2.5 5.5t7 2q0 -10 -1.5 -19.5t-1.5 -19.5q0 -7 1.5 -13.5t1.5 -13.5q0 -3 -1 -5t-4 -2l-0.5 0.5t-1.5 0.5q-1 2 -1.5 8t-1 11.5t-2 10t-3.5 4.5q-6 0 -7.5 -3t-2 -7.5t0 -10t0 -9.5t-3.5 -7t-10 -3q0 3 1 6l2 6t2 5.5
t1 5.5v5q0 2 -0.5 5.5t-0.5 6.5v4q-1 0 -3.5 -0.5t-5.5 -0.5h-6h-4q-2 0 -4 1t-2 4q0 2 0.5 3t2.5 2h3h3h3h3l2.5 -1t3.5 -1q2 0 4 2.5t2 3.5q-1 7 -3.5 14t-5.5 13q-2 3 -5.5 7.5t-7 9.5t-6 9t-2.5 7v1l1 0.5t2 1.5h1q4 0 7 -5t5.5 -10.5t5.5 -10t8 -4.5q4 0 6 2.5t3 6
t1 7.5v6q0 8 -2 14.5t-5.5 13t-6.5 13t-4 14.5v16zM128 246l1 0.5l1 0.5h0.5h0.5q1 0 3 -2.5t2 -4.5v-71q0 -1 2 -1.5t3 -0.5t2 0.5t1 1.5v52q-1 3 -1 5v4v3.5t3 2.5l1.5 -0.5t1.5 -1.5q-1 -12 0.5 -24t1.5 -25v-11t-1.5 -9t-4 -7.5t-7.5 -8.5v0q0 -2 1 -3.5t2 -2.5
q2 0 5.5 -0.5t7.5 -0.5t7.5 -0.5t5.5 -0.5l2 -0.5t3 -0.5q2 0 4 2t2 5q0 4 -2.5 6t-6 4.5t-6 5t-2.5 7.5v6v10v10v6l-0.5 2.5t-1 5.5t-0.5 6v3v5v3.5t3 1.5h2t1 -2q1 -14 1.5 -30t0.5 -32l3 -2.5t3 -3.5h1h1l2 2l1 1v65q0 2 2 3t3 1q3 0 3 -2.5v-4.5q0 -13 -0.5 -25.5
t-0.5 -24.5v-9q0 -1 0.5 -1h2.5q3 0 5 2t3 5t1 6v5v4v7v6v4q0 2 0.5 6.5t0.5 9.5t0.5 9t0.5 6t1 2.5t2 0.5h2t1 -1v-3t0.5 -4t0.5 -4v-2v-4q0 -2 -0.5 -4t-0.5 -3v-2q0 -3 -0.5 -10l-1 -14l-1 -14t-0.5 -10q-2 -3 -5 -5t-6 -3t-5 -2.5t-2 -4.5q0 -6 3.5 -7.5t9.5 -1.5v0v0
l3 3l4.5 4.5t5 4t4.5 1.5h1q1 0 2 -1.5l1 -1.5v-0.5v-0.5v-0.5v-0.5q0 -1 -2.5 -3t-5 -4.5t-4.5 -5t-2 -4.5q0 -5 2.5 -9t2.5 -10q0 -5 -2 -8.5t-5.5 -6t-8 -3.5t-8.5 -1v-12q0 -1 2.5 -2t6.5 -3t7 -5t3 -7v-27q-3 0 -5 0.5t-3 2.5v4.5v5.5v6.5v3.5q0 3 -1 6.5t-5 3.5h-2
t-2 -2v-41q0 -4 -4.5 -6.5t-8.5 -2.5h-3t-4 1t-3 2t-1 3t2 2.5t5 0.5t5.5 0.5t3.5 3.5q0 2 0.5 7t0.5 10.5v10v6.5q1 0 1 1v1q0 2 -1 3.5t-3 1.5q-1 0 -2.5 -1.5t-2 -3.5l-1 -4t-0.5 -3v-3.5t-0.5 -5.5t-0.5 -5v-4q-1 0 -2 0.5t-2 1.5v2.5v3.5v3.5v1.5v7v4t1 4.5t2 6.5
q1 2 2.5 2.5t3 1.5t2 2.5t0.5 4.5v3q0 1 -1 2h-6h-7t-6 -0.5t-6.5 -1t-8.5 -0.5q-2 0 -2 -3v-3q0 -4 1.5 -6t3.5 -3t4.5 -2t3.5 -4q1 -1 1 -4.5t0.5 -7l1 -7t0.5 -4.5l0.5 -1.5l0.5 -1.5q0 -1 -0.5 -3t-2.5 -2t-2.5 4.5t-1 9.5t-2 9.5t-4.5 4.5h-0.5h-1.5q0 -1 -0.5 -3
t-0.5 -4v-4v-2q0 -2 -0.5 -6.5t-0.5 -10.5q0 -5 0.5 -9.5t0.5 -6.5q-2 -5 -6 -6t-8 -1h-3q-1 0 -3 0.5t-3.5 1.5t-1.5 3t2.5 3t5 1.5t5 1.5t3.5 2q2 8 2 14v14v12q0 1 -1 1h-2q-4 0 -5 -4t-1.5 -9.5t-1 -10t-3.5 -4.5t-3.5 2.5t-0.5 4.5q0 6 2 13.5t5 12.5q1 2 2.5 3l3 2
t3 2.5t1.5 4.5v3.5t-2 2.5h-10q-5 0 -9 2q1 2 4.5 2.5t7 1.5t6.5 2t3 4q0 2 -1 4t-3 4q-2 0 -5.5 -0.5t-7.5 0t-6.5 2.5t-2.5 6h24l0.5 0.5t0.5 1.5l0.5 1.5t0.5 2.5v3t-0.5 4t-1.5 3.5t-3 1.5h-20l-0.5 0.5l-0.5 0.5q0 1 0.5 2.5l0.5 1.5l21 3q2 0 3 1.5t1 3.5q0 3 -2 5
t-4.5 3.5t-5.5 2.5t-5 3q-1 2 -2 7t-1.5 12t-1 15t-1 15t-0.5 12.5v8.5v7l1.5 0.5l1.5 0.5l0.5 0.5l0.5 0.5q2 0 3 -6t1.5 -14.5t0 -19t0 -19t2 -14.5t5.5 -6q2 0 3 1.5t2 3.5v2.5v3.5v4v3q0 11 -1 21.5t-1 21.5v5v6.5v6.5v5zM138 127v-2v-3.5t0.5 -3t1.5 -1.5h36v18h-33
q-4 0 -4.5 -3t-0.5 -5zM184 128q2 0 4 0.5t2 3.5q-3 0 -4.5 -1t-1.5 -3zM184 104q0 -2 1 -3t3 -1q6 0 9.5 4.5t3.5 9.5q0 3 -0.5 5.5t-3.5 2.5t-5.5 -2t-4 -4.5t-2.5 -5.5t-1 -6zM139 101v-3q0 -2 2 -2h12h11.5t11.5 1q2 3 2 5v4q0 4 -3 4t-9 0.5t-12 0t-10.5 -2.5t-4.5 -7z
" />
</svg>
