<?xml version="1.0" standalone="no"?>
<!DOCTYPE svg PUBLIC "-//W3C//DTD SVG 1.1//EN" "http://www.w3.org/Graphics/SVG/1.1/DTD/svg11.dtd" >
<svg xmlns="http://www.w3.org/2000/svg" xmlns:xlink="http://www.w3.org/1999/xlink" version="1.1" viewBox="-10 0 266 256">
   <path fill="currentColor"
d="M117 213q0 6 2 9.5t5.5 5.5t7.5 3.5t8 3.5h68q2 0 3.5 -1.5t1.5 -3.5v-2t-2 -1h-22l-2 -2v-11v-10.5v-13t1 -12.5t3 -9q3 -6 6.5 -8.5t6.5 -3t5.5 -1.5t4.5 -4t3.5 -8.5t2.5 -17.5v-1q0 -11 -2.5 -16t-6.5 -7.5t-8.5 -4.5t-7.5 -8q-3 -2 -4 -7t-1 -10t0.5 -10t0.5 -8v-17
q1 -2 2.5 -3t2.5 -1h21q1 0 1.5 -2t0.5 -3q0 -2 -3 -3t-6.5 -1h-7h-3.5h-15t-14 0.5l-14 1t-16 0.5q-6 0 -9.5 3t-5.5 8t-2.5 11.5t-0.5 12.5v11.5v8.5q-1 27 -3 54t-2 54v24zM158 114q0 -1 0.5 -3t0.5 -4.5t0.5 -5t0.5 -3.5v-11.5v-17.5v-17.5v-11.5l1 -2.5t2 -2.5h19l4 58
q0 4 4 6.5t9 5.5t8.5 8t3.5 14q0 10 -3 14.5t-7 7t-9 5t-8 8.5q-4 6 -5.5 14.5t-2 17.5t0 17.5t0.5 15.5l-2 1l-2 0.5t-3 0.5h-2t-4 -0.5t-4 -1.5t-2 -2v-111zM127 206v-31v-29q1 -24 2.5 -48.5t3.5 -48.5q0 -7 2.5 -11t9.5 -4q1 0 3 0.5l2 0.5l1 5q0 1 0.5 4t0.5 8v8.5v6.5
q0 37 -1.5 73.5t-0.5 73.5q0 1 -1 4t-1 3.5t-1 2l-1 1.5h-12q-1 0 -2.5 -3t-2.5 -6t-1.5 -6t-0.5 -4zM38 200q0 2 1 3t3 1h4h4q12 0 23.5 -1t24.5 -1q3 1 4.5 -0.5t1.5 -4.5q0 -2 -3 -3t-6.5 -1h-6.5h-4l-1 -2v-1q0 -2 -0.5 -4t-0.5 -4v-4q0 -6 0.5 -11.5t0.5 -11t0.5 -11.5
t0.5 -13l1.5 -2.5t2.5 -2.5h13q2 0 2 -2v-2v-1.5v-1.5h-2.5t-3.5 -0.5t-3.5 -0.5h-2.5h-1l-2.5 -2.5l-1.5 -1.5v-30q-1 -2 -1.5 -3.5t-0.5 -3.5v-1.5v-2.5q0 -2 0.5 -5l1 -6t0.5 -5.5v-2.5l2 -2h17l0.5 -1t1.5 -2v-1v-1q-1 -1 -2.5 -2l-1.5 -1h-48q-4 0 -5.5 0.5t-1.5 3.5
v2.5t2 2.5h24v65h-26l-0.5 2t-0.5 3v0q0 3 1.5 5t3.5 2q4 0 6.5 -1t6.5 -1q5 0 7 1.5t2 6.5v25t-2 25q0 2 -1 5t-2 3h-29q-2 0 -2 2.5v3.5z" />
</svg>
