<?xml version="1.0" standalone="no"?>
<!DOCTYPE svg PUBLIC "-//W3C//DTD SVG 1.1//EN" "http://www.w3.org/Graphics/SVG/1.1/DTD/svg11.dtd" >
<svg xmlns="http://www.w3.org/2000/svg" xmlns:xlink="http://www.w3.org/1999/xlink" version="1.1" viewBox="-10 0 266 256">
   <path fill="currentColor"
d="M185 247l2.5 2.5t2.5 0.5q3 0 3 -1.5v-4.5v-2v-3q-2 -5 -4.5 -13t-5 -17t-4 -17.5t-1.5 -15.5q0 -12 3.5 -24.5t8.5 -23.5l4 -8l4 -8l4 -8t2 -8q0 -9 -4.5 -14t-9.5 -8.5t-10 -6.5t-6 -7q0 -1 1 -3t2.5 -4.5t2.5 -5t1 -3.5v-1v-2q0 -5 -3.5 -7.5t-8.5 -2.5
q-1 0 -3.5 -0.5t-6 -0.5t-7 -0.5t-5.5 -0.5h-2h-1q-1 0 -2.5 0.5t-3.5 0.5t-3.5 0.5t-2.5 0.5v0.5v0.5q0 3 1.5 4t4 1.5t4.5 0.5h3h20q2 1 4 3t2 4v1h-1q-3 7 -8.5 17.5t-10 21.5t-7.5 22t-3 20q0 7 2 11.5t5.5 7.5t7 5t7 3.5t5.5 3.5t2 5v6v8v9v5q1 6 2.5 13.5t3.5 15
t4.5 14.5t4.5 13zM65 239q0 3 2 5t4 2q3 0 3.5 -4t0.5 -6q0 -9 -1 -17.5t-3 -17.5q-2 -10 -2 -22.5v-23.5q0 -8 2 -13t5.5 -9.5t8 -8.5t8.5 -9q2 -3 2.5 -6t1 -5.5t2 -4.5t5.5 -3h2.5h4.5h4.5h3.5q2 -2 5 -6.5t3 -8.5v-38q0 -4 -4 -6t-9 -3l-10 -2t-6 -4v-4.5v-5t-1 -4.5
t-4 -2t-4.5 2.5t-2 5.5t0 6.5t0.5 5.5l-1 2q-9 1 -15 2.5t-9.5 5.5t-4.5 10t-1 15v14.5t1.5 9t5.5 5.5t12 2h2h3t3 -0.5t1 -1.5q0 -2 -2.5 -3.5t-5.5 -3l-6 -3t-3 -5.5q0 -1 -0.5 -2.5t-0.5 -2.5v-3v-3q0 -11 2 -17t6.5 -8.5t12 -3t18.5 -0.5h4q3 0 5 1t3.5 2.5t1.5 4.5v29
q0 3 -2.5 5t-5.5 3.5t-6 2.5t-5 1h-1q0 -1 -0.5 -2.5t-0.5 -4v-4.5v-2q0 -5 2.5 -6.5t6 -1.5t6 -1t1.5 -4l-1 -1l-2 -2h-7q-4 0 -8 0.5t-7.5 0.5t-8 1t-9.5 1q0 1 -0.5 2t-1.5 1v1q0 1 2 2.5t3 1.5h13q2 1 2.5 3t1 4.5t0 5.5t-0.5 4v12t-4 10l-21 22q-3 3 -4.5 7.5t-2 10
t0 10.5t0.5 8q0 18 2 35.5t4 34.5zM81 154q0 5 2 7.5t4.5 5t4.5 5t3 5.5v6t0.5 12t1.5 15.5t2.5 15.5t4 11.5t5.5 4.5h2t1 -1l2 -4l-4 -12t-4 -12.5t-3 -13t-1 -11.5v-3.5t2 -2.5q3 1 9.5 -1t12 -5t10 -8t4.5 -9q0 -2 -0.5 -3.5t-3.5 -1.5q-4 1 -6.5 4t-5.5 6t-7 5.5
t-12 2.5q0 -8 3.5 -13t7.5 -8.5t7 -6t3 -4.5t-2 -2.5t-3 -0.5q-5 0 -8.5 3.5t-7 8t-5.5 8.5t-4 4q-1 0 -2.5 -1.5t-2 -3.5t-1 -3.5t-0.5 -2.5q0 -3 3 -6l5 -5t5 -6t5.5 -6.5l2.5 -2.5v-4q-5 0 -10.5 3.5t-9.5 8.5t-7 11t-3 11zM148 125v-5t1 -6t2.5 -5t4.5 -2t6.5 2.5
t6.5 5.5l3 3l4 4l3.5 3.5l1.5 1.5v4l-1 2t-2 4.5t-2.5 5t-1.5 4.5q-1 0 -2 1l-2 2v0h-1q-8 -3 -14.5 -9.5t-6.5 -15.5zM160 90q0 -3 0.5 -5.5t1.5 -5t2.5 -4.5t4.5 -2q5 0 9.5 2.5t7.5 6.5t5 9t2 9q0 2 -0.5 5t-2 5.5t-3 4t-3.5 1.5t-6 -3.5t-8 -8t-7 -9t-3 -5.5z" />
</svg>
