<?xml version="1.0" standalone="no"?>
<!DOCTYPE svg PUBLIC "-//W3C//DTD SVG 1.1//EN" "http://www.w3.org/Graphics/SVG/1.1/DTD/svg11.dtd" >
<svg xmlns="http://www.w3.org/2000/svg" xmlns:xlink="http://www.w3.org/1999/xlink" version="1.1" viewBox="-10 0 266 256">
   <path fill="currentColor"
d="M57 246q0 2 0.5 3t2.5 1q3 0 5.5 -3.5t4.5 -8.5t3 -10t2 -8q0 -2 0.5 -5t0.5 -7v-7v-4q0 -3 0.5 -10t0.5 -15t-0.5 -15t-0.5 -10q1 -6 1.5 -7.5t1.5 -2t2.5 -1t2.5 -3.5h3.5h2.5q6 0 8 2t2.5 5.5t0 7.5t1.5 7v19v20.5t0.5 20.5t1.5 20q0 1 0.5 4t1.5 5t2.5 4t3.5 2
t4.5 -1t2.5 -4q0 -5 -1 -10l-2 -10t-2.5 -10t-1.5 -10t0.5 -11.5t-1.5 -11.5v-37q0 -1 0.5 -1.5l0.5 -0.5h5q4 0 7 1t6 1t5 -0.5t2 -3.5t-4.5 -5t-10.5 -4t-11.5 -3t-8.5 -2q-3 -2 -4 -5t-2 -6.5t-2 -6t-4 -2.5q-2 0 -3 2t-2 5t-1 6v3q-1 3 -5 5.5t-9 4.5t-10.5 4t-10 4.5
t-7.5 5.5t-3 6q0 2 1 3t3 1h1q1 0 2.5 -1t2.5 -1q1 -1 3 -2.5t4.5 -3t4 -3.5t2.5 -3h1q3 0 3.5 2t0.5 4q0 17 -0.5 35t-2.5 36q0 3 -1.5 6.5t-3 6.5t-2.5 6.5t-1 6.5zM156 129q0 9 1 15.5t4 13.5q2 4 7 5.5t10.5 3t10.5 3t5 3.5q2 19 5 36.5t9 35.5q1 2 2 3.5t4 1.5
t3.5 -2.5t0.5 -5.5q0 -4 -1 -8.5t-3 -8.5t-3.5 -8t-2.5 -7q-3 -13 -4.5 -26t-1.5 -27q0 -13 2 -27t4 -26l4 -12t2 -13q0 -5 -3 -8.5t-6.5 -6.5t-8.5 -5t-9 -2v-3v-3q0 -6 2.5 -11t2.5 -11v-2t-2 -2h-34q-2 0 -2.5 2t-0.5 3q0 3 1.5 4t3.5 1q4 0 7 -1t7 -1q3 0 5 1.5t2 4.5
t-1 7t-2.5 8.5t-3.5 8.5t-3 7q-4 14 -8.5 29t-4.5 30zM163 130v-2l0.5 -2.5l1 -5t1 -4.5t0.5 -3q0 -2 2.5 -1.5t3.5 0.5q2 0 6.5 0.5t8.5 2.5t7 4t3 6q0 7 -1.5 14.5t-1.5 15.5l-2 3l-1 0.5t-2 0.5q-12 0 -19 -8.5t-7 -20.5zM41 85v3.5v5.5t0.5 5.5t0.5 4.5t1.5 3.5t3.5 1.5
q3 0 4 -3t1 -6v-41q0 -3 3 -4.5t8 -3t10.5 -3t10.5 -2t9 -1t5 -0.5h9t9 1t7 4t4 9l3 36q0 1 1.5 2t2.5 1v1v0q3 0 4 -1.5t1.5 -3.5t0.5 -4v-4v-4.5v-3.5q0 -2 -1 -7t-2 -10.5t-2 -10t-1 -6.5q-2 -3 -6.5 -4t-6.5 -2h-5.5t-7.5 -0.5t-7.5 -0.5h-4.5q-2 -1 -2 -3v-3
q0 -5 3.5 -6.5t8.5 -2t10.5 0t10.5 0t7.5 -2t2.5 -5.5l-1.5 -1.5l-1.5 -1.5h-8h-7q-3 0 -9 0.5t-13.5 1t-15.5 1t-15.5 1t-13 1t-8.5 0.5v1v1q0 2 1 4t4 2h34q1 0 1.5 2l0.5 2q0 3 -0.5 5.5t-3.5 3.5q-13 3 -20.5 4t-11.5 4.5t-5 11t-2 20.5v4t-1 3zM171 95q0 -7 2 -14.5
t6 -13.5h2h2q8 0 14.5 4.5t6.5 12.5q0 2 -0.5 5.5t-1.5 7.5t-2 7t-3 3t-6.5 -0.5t-8.5 -2t-7.5 -4t-3.5 -5.5zM70 97q1 1 2 1.5t3 0.5q3 0 4 -3t1 -5v-1l-0.5 -2t-0.5 -4t-0.5 -3.5t-0.5 -2.5v0q0 -2 1.5 -3.5t3.5 -2t4 -0.5h4q5 0 7.5 2t3.5 6t1.5 8.5t0.5 8.5h3
q3 0 4.5 -2t2.5 -5q0 -8 -0.5 -13.5t-2.5 -8.5t-6.5 -4.5t-12.5 -1.5h-5t-6 1t-5.5 2t-4.5 3q0 4 -0.5 6.5t-0.5 5v5.5v5v3.5v3.5z" />
</svg>
