<?xml version="1.0" standalone="no"?>
<!DOCTYPE svg PUBLIC "-//W3C//DTD SVG 1.1//EN" "http://www.w3.org/Graphics/SVG/1.1/DTD/svg11.dtd" >
<svg xmlns="http://www.w3.org/2000/svg" xmlns:xlink="http://www.w3.org/1999/xlink" version="1.1" viewBox="-10 0 266 256">
   <path fill="currentColor"
d="M190 223q0 1 0.5 3.5t1.5 6t1.5 6t1 3.5t0.5 3t0.5 3.5t2 3t2.5 1.5q2 0 3 -1.5t2 -3.5q-5 -15 -7 -31.5t-2 -32.5q0 -21 3.5 -39.5t7.5 -38.5v-3q0 -6 -4.5 -9t-9.5 -4t-9.5 -2t-4.5 -4q0 -5 2 -9l4 -8l4 -8t2 -8t-3 -5.5t-6.5 -2t-7.5 0t-5 0.5h-4h-5h-4h-2l-1.5 0.5
t-3 0.5t-2.5 1t-1 2v1q1 1 1.5 2.5l0.5 1.5h28v5q-1 3 -3 7.5t-4 10t-3.5 10.5t-2.5 7q0 1 -0.5 3.5t-1.5 5.5t-1.5 5.5t-0.5 3.5q-1 3 -2.5 6.5t-2.5 7.5t-2 7.5t-1 6.5q0 8 2.5 13t6 8t8 5t8.5 3t6.5 2t2.5 4l3 48zM56 245q0 2 1 2h2q3 0 5 -2t2 -5q3 -23 2.5 -48
t-0.5 -48q1 -3 2 -5.5t4 -4.5q1 0 4 -1t6.5 -2t6.5 -2t4 -1h7h4.5h5.5t5.5 0.5t4.5 2.5q2 3 4 13t3 22.5t1.5 26t1.5 25t2.5 19t3.5 7.5t4 -0.5t1 -3.5v-8q0 -7 -0.5 -15.5l-1 -17t-1 -16.5t-1.5 -15q-1 -2 -1.5 -7l-1 -10t-1.5 -10t-1 -7q-2 -5 -5 -8t-7 -4.5t-8.5 -2.5
t-9.5 -1q-1 0 -3.5 0.5t-3.5 0.5t-5 0.5l-8 1t-8 1.5t-5 1q-6 3 -10 8t-4 11q0 22 -1 42.5t-1 41.5v4t0.5 6t0.5 5v4zM79 149v1v2t0.5 3t0.5 3v2v14t1 15t5 12t13 5q6 0 9 -1.5t5 -4.5t2 -7v-10q0 -5 -0.5 -9t-0.5 -9v-1l0.5 -2.5t0.5 -5.5v-5.5v-3.5v-1q0 -2 -1.5 -3
t-3.5 -1t-3 0.5t-2 3.5v2.5v4.5v5.5v2.5q-1 3 -2.5 4t-4.5 1q-2 0 -4.5 -0.5t-3.5 -0.5v-19l-1 -1l-1 -1q-1 -1 -2 -1.5l-1 -0.5h-1h-1q-1 1 -2.5 3t-1.5 4zM93 194q-2 -3 -2 -6v-7q0 -3 4 -4.5t7 -1.5t3.5 2t0.5 4v5t-0.5 5t-2 3.5t-3.5 1.5h-3.5t-3.5 -2zM160 138
q0 -3 1 -6.5t5 -3.5q3 0 7.5 1.5t8 4t6 5.5t2.5 8q0 1 -1 3l-2 4t-2 3.5t-1 2.5h-1.5h-0.5q-5 0 -9 -2t-6.5 -5t-4.5 -6.5t-2 -8.5zM168 111q0 -2 0.5 -4.5t1.5 -5t3 -3.5t5 -1q2 0 5.5 0.5t6 2t4.5 4t2 5.5q0 1 -0.5 3.5t-1 5.5t-2 6t-3.5 3t-5.5 -1.5t-7 -3.5t-6 -5
t-2.5 -6zM52 107q0 4 3 4t9 -3t11.5 -7t9.5 -8.5t4 -7.5v-22q0 -3 -2 -4t-4 -1h-2.5t-1.5 2v13q0 6 -2 12q-1 4 -5 7t-8.5 5t-8 4.5t-3.5 5.5zM103 69v8.5t0.5 8t2.5 7t6 5.5q5 2 11 4.5t11 2.5q3 0 4 -2t1 -4q0 -3 -1 -4t-2.5 -1.5t-2.5 -0.5h-4q-7 0 -10.5 -3t-5 -7
t-1 -8.5t0.5 -8t-1 -6t-5 -2.5q-1 0 -2 0.5t-2 1.5v9zM54 84q0 3 1 4t4 1q4 0 5.5 -3t1.5 -7t1 -9t4 -9.5t9.5 -7t19.5 -2.5q3 0 6 -0.5t5.5 -0.5t5.5 1t5 3t2.5 6.5t1 9.5t2.5 8.5t6 3.5q3 0 4 -2t1 -4q0 -14 -3 -20.5t-7.5 -9.5t-9.5 -3t-9 -0.5t-7 -3t-3 -8.5q0 -3 1 -6
t1 -6t-1.5 -5t-4.5 -2q-2 0 -3.5 1t-3.5 3v17q0 4 -1 7t-5 4q-1 1 -3 1t-5 0.5t-5.5 1t-3.5 0.5q-8 8 -10 17t-2 20z" />
</svg>
