<?xml version="1.0" standalone="no"?>
<!DOCTYPE svg PUBLIC "-//W3C//DTD SVG 1.1//EN" "http://www.w3.org/Graphics/SVG/1.1/DTD/svg11.dtd" >
<svg xmlns="http://www.w3.org/2000/svg" xmlns:xlink="http://www.w3.org/1999/xlink" version="1.1" viewBox="-10 0 266 256">
   <path fill="currentColor"
d="M124 222q0 6 4.5 9.5t10.5 5t12.5 2t10.5 1.5q8 2 16 5t15 5h2q3 0 4.5 -1.5t1.5 -4.5q0 -2 -5 -4.5t-12 -4.5t-14 -3t-10 -2q-1 0 -4.5 -0.5t-7.5 -1.5t-7.5 -1.5t-4.5 -1.5l-3 -3t-1 -3q0 -5 4.5 -9t10 -7t11.5 -5.5t9 -5.5q1 0 3 -2.5t4.5 -4.5t4.5 -4l3 -3v-2.5v-1.5
q0 -5 -3 -8.5t-7 -6.5t-7 -5.5t-3 -4.5t1 -5t1 -6q0 -2 -1 -3.5t-4 -2.5h-5h-4h-5.5h-3.5h-7t-10 0.5l-10 1t-6 0.5q-4 -1 -5 0t-1 3l0.5 1.5t1.5 1.5h47q1 0 1 1.5v1.5v2.5t-1 1.5q-4 3 -10.5 6.5t-13 8t-11 9.5t-4.5 10v3v2l15 18q1 0 1 2v1q0 5 -2 8t-2 7zM42 230
q-1 3 0.5 3.5t3.5 0.5q1 0 3 -0.5t3 -1.5q2 -3 4.5 -12t5 -21.5t4.5 -26t3.5 -26.5t2.5 -23t1 -14q0 -11 -1 -21t-1 -20v-10q0 -4 0.5 -8.5t0.5 -9.5t1 -11q3 -4 6.5 -6t7 -3t8 -1h9.5q2 0 8 -0.5t13 -0.5t14 -0.5t10 -0.5h10.5h16.5h17h11v-2q0 -1 -0.5 -2.5t-1 -2.5
t-1.5 -1h-19h-54t-53 3q-2 0 -4 1.5t-3.5 3.5t-3 3.5t-1.5 3.5v82q0 1 -0.5 4t-1.5 4v6t-0.5 10t-1 12.5t-1 12.5t-1 10.5t-0.5 5.5q-1 2 -2 6.5t-2 10.5t-2.5 12t-2.5 9q0 1 -1 4t-2 6.5t-2 6.5t-1 4zM124 180v-3v-3q2 0 4.5 -2t4.5 -2t5 2.5t5.5 5.5l5 6t2.5 5
q0 3 -4.5 5.5t-7.5 2.5t-6 -1.5t-5 -4t-3 -6t-1 -5.5zM143 163q0 -3 3 -5t6 -2t6.5 2t6 4.5t4 6t1.5 7.5q0 3 -2.5 6t-6.5 3l-1 -0.5l-1 -0.5q-1 -1 -3.5 -4t-5 -6.5t-5 -6.5t-2.5 -4zM203 125q1 2 2.5 2h2.5q3 0 4 -3t1 -5q0 -6 -0.5 -13.5t-4.5 -12.5q-2 -3 -5.5 -5
t-7 -3.5t-6 -4t-2.5 -5.5q0 -4 2.5 -6t6 -2.5t7 -1.5t5.5 -4q0 -1 0.5 -4t0.5 -6.5t0.5 -6.5t0.5 -4v-1v-2q0 -2 -1.5 -3.5t-3.5 -1.5q-4 0 -4.5 4t-0.5 9t-1.5 9.5t-5.5 4.5q-1 0 -2 -0.5l-1 -0.5l-3 -23q-1 0 -2 -1.5t-1.5 -2.5t-1 -1.5t-2.5 -0.5h-23q-1 0 -1.5 1.5
l-0.5 1.5q0 2 1 2.5t4 0.5h15q4 3 4.5 8t0.5 9v3v3t-1.5 2l-1.5 1l-1 1l-0.5 -0.5l-0.5 -0.5l-1.5 -0.5t-3.5 -1t-3.5 -1.5t-1.5 -2v-13q0 -1 -1.5 -1.5t-3 -0.5h-2.5q0 1 0.5 5t1 9t2 8.5t3.5 3.5h14l0.5 2t0.5 4.5v4.5q-1 2 -4.5 3.5t-7.5 4.5t-7.5 9.5t-3.5 19.5q0 4 4 4
q2 0 3 -4.5t2 -9.5t3 -9.5t7 -4.5q3 0 3.5 2t0.5 5q0 5 -1 10t-1 10q0 2 1 4t4 2l0.5 -0.5l0.5 -0.5q2 -2 3 -6t2 -8.5t1 -8.5v-7l1 -2h1q3 0 4.5 1.5t2.5 4t1.5 5t0.5 4.5q0 1 0.5 3.5t0.5 5.5t0.5 6t0.5 4zM114 78q0 3 -2.5 4t-6 2.5l-7 3t-5.5 5.5q-4 6 -6 13.5t-2 14.5
q7 0 9 -4.5t3 -9.5l2 -10t5 -6q1 0 5 0.5t5 0.5v29q4 0 6 -2.5t3 -6.5v-4t0.5 -6.5t0.5 -6.5v-4h2.5h1.5h3t3.5 0.5t2.5 1.5t1 3v23l1.5 0.5t2.5 0.5q2 0 3 -3t1 -6v-3v-6.5t-0.5 -7t-2 -6t-4.5 -4.5h-3h-4.5t-5 -0.5t-3.5 -2.5l-0.5 -2l-0.5 -2q0 -5 3.5 -6.5t7.5 -2
t7.5 -1.5t3.5 -6v-21q0 -1 -1.5 -1.5l-1.5 -0.5q-2 0 -2.5 0.5l-1.5 1.5q0 4 0.5 7.5t0 6.5t-2.5 5.5t-7 2.5h-2q-1 0 -2 -1q0 -8 -1 -13t-4 -13l-1 -2.5t-2 -2.5h-26q-2 0 -2 1.5v2.5q0 2 2 3t4 1q3 0 6 -0.5t7 -0.5t5.5 2.5t2.5 6.5t1 7.5v5.5q0 3 -1.5 4.5t-4.5 1.5
l-2.5 -0.5l-5 -1t-4 -1.5t-1.5 -2v-17l-1.5 -0.5t-2.5 -0.5h-1q-3 0 -3 2v4q0 9 2 13.5t5 6.5t6 2t6 0.5t4.5 2t1.5 5.5z" />
</svg>
