<?xml version="1.0" standalone="no"?>
<!DOCTYPE svg PUBLIC "-//W3C//DTD SVG 1.1//EN" "http://www.w3.org/Graphics/SVG/1.1/DTD/svg11.dtd" >
<svg xmlns="http://www.w3.org/2000/svg" xmlns:xlink="http://www.w3.org/1999/xlink" version="1.1" viewBox="-10 0 266 256">
   <path fill="currentColor"
d="M145 248q0 2 1 2.5t3 0.5q6 0 7.5 -4t1.5 -9v-101l2 -3l2.5 -0.5t5.5 -0.5t6.5 -0.5t5.5 -0.5h1h1q2 0 3.5 7.5t2.5 19t2 25t2.5 26t3 22t2.5 12.5h3q4 0 5.5 -2t1.5 -5v-4l-1 -3.5t-1.5 -7t-1.5 -6t-1 -3.5q-2 -10 -1.5 -20.5t-1.5 -20.5l-4 -79q0 -1 -1 -2l-2 -2h-1
q-1 0 -3 1t-2 3l-0.5 2t-0.5 4t-0.5 3.5t-0.5 2.5v1v1l0.5 3t1.5 3v2q0 5 -3 7t-8 2q-4 0 -7.5 -0.5t-8.5 -1.5l-0.5 -1t-1.5 -2v0q0 -5 0.5 -8.5l1 -7t0.5 -7v-8.5l3 -3q7 -1 14 -1.5t12.5 -3.5t9 -7.5t3.5 -12.5v-4q0 -3 -0.5 -5.5t-2 -4t-3.5 -1.5q-4 0 -5 4.5t-2.5 10
t-5.5 10t-14 4.5h-3h-3l-1 -2l-0.5 -2.5t-0.5 -5.5t-0.5 -6.5t-0.5 -5.5q0 -1 0.5 -3.5t0 -5t-1.5 -4.5t-3 -2h-2.5t-2.5 1v32l-3 4h-2.5h-3.5q-7 0 -11 -2t-5.5 -5t-1.5 -6.5t-0.5 -6t-2 -4.5t-5.5 -2q-2 0 -3 1t-1 3q0 11 2 17t6.5 9.5t11.5 4.5t16 2q2 1 2.5 2.5t0.5 3.5
q0 8 -1.5 15.5t-1.5 14.5l-3 3h-23v-25q0 -4 -3.5 -4.5t-6.5 -0.5v68q0 2 -1 5t-2 5v23q-4 10 -6 21t-4 21v0v2q0 2 1 3t3 1q5 0 7.5 -3.5t4 -8t2.5 -11t1.5 -12.5t1 -11t1.5 -8v-49q0 -2 2.5 -3t6 -1.5t6.5 -0.5h5q4 0 5 1t2 4v8q0 5 0.5 11t0.5 12v8v10t-0.5 12t-0.5 11v6
q0 7 -1.5 14.5t-1.5 15.5zM81 219v21h4t3.5 -0.5t3 -2t1.5 -4.5q0 -2 -0.5 -7.5t-0.5 -11.5q0 -7 0.5 -12.5t0.5 -7.5t0.5 -6t0.5 -5v-117q0 -2 0.5 -6t1.5 -9t1 -9.5t1 -6.5v-8v-4.5t-0.5 -5.5t-1.5 -5t-4 -2h-2.5t-1.5 2q-1 5 -0.5 12t0 14t-3.5 12t-10 5h-5q0 -1 -1 -1.5
l-1 -0.5v-22q0 -3 -1.5 -3.5t-3.5 -0.5q-4 0 -5.5 2.5t-1.5 5.5v4t1 4v56q7 0 10 -3t3.5 -8t0.5 -11t-1 -10q2 -2 4 -2.5t5 -0.5h2q2 0 2 2q2 10 2 22v21v6v8v8v6l-1.5 0.5t-1.5 1.5q-1 0 -3 -0.5t-4.5 -0.5h-5h-3.5v-27l-1 -0.5t-2 -0.5h-2h-1h-3.5t-2.5 3q0 14 -0.5 27
t-1.5 25.5t-2 25.5t-3 27v0q0 2 1.5 2.5t3.5 0.5q3 0 4 -1t3 -4q3 -16 3.5 -32.5t3.5 -32.5q2 -3 7 -4t8 -1h2.5t1.5 2v52q-1 2 -1 5v5v5t-2 4zM104 30q0 3 1 3.5t4 0.5q16 0 31.5 -1.5t31.5 -1.5q2 0 7.5 -0.5t11.5 -0.5t11 -0.5t8 -0.5l1.5 -1.5l1.5 -1.5v-1q0 -1 -1 -2.5
t-2 -2.5h-8q-19 0 -38.5 1.5t-38.5 2.5h-4.5h-7t-6.5 1.5t-3 4.5z" />
</svg>
