<?xml version="1.0" standalone="no"?>
<!DOCTYPE svg PUBLIC "-//W3C//DTD SVG 1.1//EN" "http://www.w3.org/Graphics/SVG/1.1/DTD/svg11.dtd" >
<svg xmlns="http://www.w3.org/2000/svg" xmlns:xlink="http://www.w3.org/1999/xlink" version="1.1" viewBox="-10 0 266 256">
   <path fill="currentColor"
d="M143 170q3 1 6 7.5t6.5 15.5t7 19t7.5 18.5t7.5 14t6.5 5.5q6 0 6 -5q0 -3 -0.5 -5.5t-1.5 -5.5l-10 -15t-11.5 -19t-9.5 -20t-6 -18v-16q0 -18 1 -36t3 -36q0 -2 2 -2h2q6 0 12.5 2t12 5.5t11 7.5t10.5 7q0 1 1 1h1q3 0 5 -2.5t2 -5.5q0 -2 -3.5 -5t-8.5 -5.5t-10 -4.5
t-7 -3q-1 -1 -5 -2.5t-8.5 -3t-8.5 -2.5t-5 -2q-2 -1 -3 -3.5t-1 -5.5q0 -4 0.5 -6.5t0.5 -3.5h41q3 0 7.5 -2t4.5 -5v-1l-3 -3h-22q-20 0 -39 1t-39 0q-2 1 -3.5 1t-3 0.5t-2.5 1.5t-1 3v2t2 2h50l-2 19l-3 2t-5 3q-4 2 -12.5 5t-16.5 6t-14 7t-6 9h9q1 0 4 -2t7 -3.5
t7 -3.5t4 -2q5 -2 10.5 -4t10.5 -2q4 0 4.5 0.5t0.5 4.5q0 20 -1 42t-6 42q-1 6 -3 8.5t-4 6.5q-7 12 -13.5 25t-14.5 25q-2 3 -5 6t-3 7q0 2 0.5 3t2.5 1q5 0 9.5 -6t9 -14t8.5 -15.5t6 -11.5l1 -3q1 -3 2 -6.5l2 -7t3 -6.5t4 -5zM71 241q0 4 4 4q3 0 4.5 -2.5t2.5 -5.5
v-29q0 -19 -0.5 -38t-0.5 -38q0 -27 1.5 -54t1.5 -55v-9q-1 -2 -2.5 -3t-3.5 -1v0q-1 0 -1.5 0.5l-0.5 0.5l-2 2l-1 1v36l-2 3h-15v-20q0 -2 -2.5 -2.5t-4.5 -0.5q-5 0 -5 7q0 3 0.5 6t0.5 6q0 5 -1.5 10t-1.5 10q0 8 1 15t1 16q1 0 2.5 -0.5l3 -1l3 -1t1.5 -1.5v-24
q0 -2 2 -3.5t4.5 -2.5t5.5 -1.5t4 -0.5t2 0.5t1 2.5v64q0 1 -1 2l-1 1q0 1 -0.5 1.5t-1.5 0.5h-16q-1 0 -1 -3.5t-0.5 -7.5t-2 -7.5t-4.5 -3.5t-4 2.5t-1 5.5q0 1 0.5 2t0.5 2t0.5 2t0.5 3v6.5t-2 6.5v71l0.5 1t1.5 2h1h1l8 -8v-62l16 -2l2 1.5t3 2.5v4q0 7 -1 14t-1 14
t1 13.5t1 13.5q0 8 -1 16t-1 16zM93 156q0 3 0.5 8.5t2 11.5t3.5 11t6 7q3 -1 3 -2.5v-4.5t-1 -5.5t-2.5 -6t-2.5 -7.5t-1 -9q0 -2 0.5 -5t1.5 -6t3 -5t5 -2t4 3t2 6.5t2 6.5t4 3q2 0 3 -2t1 -4q0 -1 -0.5 -3.5t-1.5 -5.5l-2 -6t-1 -6t1 -5t2.5 -4.5t2.5 -5.5t1 -8v-4
t-0.5 -6t-1.5 -5t-3 -2h-2t-1 1v21q0 1 -0.5 2t-1.5 2l-7.5 7.5t-8.5 9t-7 9.5t-3 11zM190 151q0 6 -3 11.5t-7 10.5t-7.5 9.5t-3.5 8.5q7 0 12.5 -4t9.5 -10t6.5 -13t2.5 -13t-3.5 -11.5t-8 -10l-8 -8t-3.5 -7.5t1.5 -7.5t1.5 -8.5t-5 -8q-2 1 -3.5 3.5t-1.5 6v7v5.5v10
q3 3 3.5 5t0.5 5q0 5 -2.5 8t-5.5 6l-5.5 5.5t-2.5 5.5t3 3q4 0 6.5 -2.5t4.5 -6t4.5 -6.5t6.5 -3q3 0 5 3t2 6z" />
</svg>
