<?xml version="1.0" standalone="no"?>
<!DOCTYPE svg PUBLIC "-//W3C//DTD SVG 1.1//EN" "http://www.w3.org/Graphics/SVG/1.1/DTD/svg11.dtd" >
<svg xmlns="http://www.w3.org/2000/svg" xmlns:xlink="http://www.w3.org/1999/xlink" version="1.1" viewBox="-10 0 266 256">
   <path fill="currentColor"
d="M92 246q0 2 0.5 3.5t3.5 1.5q2 0 3.5 -6.5t2.5 -16t2 -21t2.5 -22t3 -18t3.5 -8.5q2 -2 6 -3.5t7 -1.5t3 3v5q0 3 -1.5 4.5t-3 3.5l-3 4t-1.5 6t3.5 5.5t7.5 2.5t7 1.5t3 2.5q0 5 -2 6.5t-5 2.5t-6.5 2t-6.5 3.5t-5 8t-2 16.5v5v6q1 2 2.5 3t3.5 1v0l3 -1v-30
q0 -2 1.5 -2.5t3.5 -0.5q1 0 2 0.5t2 1.5q2 5 5 13t6 13q1 2 1.5 2.5t2.5 0.5h3t2 -3q0 -1 -2 -4.5t-4.5 -7.5t-4 -8.5t-1.5 -9.5q0 -2 1 -4.5l2 -5t2.5 -5t1.5 -4.5h14v-6l-30 -3q-2 0 -3.5 -1t-1.5 -3q0 -4 3 -6h6h8h9h5q4 0 6 -1.5t5 -1.5q2 0 5.5 1t6 3t4.5 4.5t2 5.5
q0 4 -2 6.5t-5 4t-6.5 2.5t-6.5 3.5t-5 7t-2 11.5q0 9 1.5 16t7.5 14l1 0.5t2 0.5h1q2 0 3 -1t1 -3q0 -3 -1.5 -6t-3.5 -6.5t-3.5 -6.5t-1.5 -7q0 -1 0.5 -3.5t1 -5.5t2 -5t4.5 -2h1q1 2 2 6.5t2.5 9.5t4 10.5t5 10t5 7t5.5 2.5q6 0 6 -6q0 -2 -1 -3.5t-3 -3t-3.5 -3
t-2.5 -3.5l-1 -2l-2 -4l-2 -4t-1 -4q-2 -3 -4 -7t-2 -8q0 -2 1 -3.5t2.5 -2t3.5 -1.5t3 -3v-5q0 -7 -2 -11.5t-5 -7t-7 -3t-7 -1.5t-5 -2t-2 -4v-1v-2.5t0.5 -2.5l0.5 -1h24q1 0 2 -1t1.5 -3l1 -4t0.5 -3q0 -5 -2.5 -7.5t-5.5 -3t-7.5 0t-8.5 0.5q-2 -1 -3.5 -3t-1.5 -5
q0 -2 2 -2.5t5 -1l6 -1t6 -3t5 -6.5t2 -11q0 -3 -1.5 -5t-1.5 -4v-1v-2t0.5 -2.5t0.5 -3v-1.5v-1v-9t-1.5 -9t-4.5 -6.5t-9 -3.5q-13 -1 -19 5t-6 19v9l2 2v0q2 0 3.5 -1.5t3.5 -3t3 -3t2 -1.5h17q1 0 1.5 4t0.5 6v8q0 8 -2.5 12t-6.5 5.5t-9.5 1t-12.5 -0.5v-19
q0 -1 -1.5 -1h-2.5h-1.5t-0.5 1q-1 4 -1 8t-0.5 7t-2.5 4.5t-7 1.5q-10 0 -13.5 -3t-4.5 -6.5t-1.5 -6.5t-3.5 -3h-1q0 1 -1 2l-1 1q0 4 1 8.5t3 8t5.5 5t9.5 0.5q1 2 1 3.5v3.5v4t-3 2h-25q-1 0 -1.5 2.5l-0.5 2.5h30v11q0 1 -2 1.5t-5 0.5t-6 0.5t-5 1.5q-6 5 -8.5 12
t-4 14.5t-1.5 15.5v15q-2 2 -3 7t-1.5 11t-0.5 11.5v8.5zM76 243q0 1 1 1.5t2 0.5q3 0 4.5 -2.5t2 -5.5t0.5 -7v-5v-6t0.5 -11.5t0.5 -14v-14t0.5 -11.5t0.5 -7v-9v-21v-23v-19v-15v-21.5v-22.5v-14q-1 -3 -2 -4t-4 -1h-2t-1 2q0 7 -0.5 15.5t-1.5 15.5h-10q-1 0 -1.5 -3.5
t-0.5 -7t-1.5 -7t-5.5 -3.5q-1 0 -2.5 0.5t-1.5 2.5q-1 1 -1 4v4v4t1 3q0 1 0.5 3t0.5 3q0 9 -2.5 18.5t-2.5 18.5q0 1 0.5 2t3.5 1l1.5 -1t3 -2.5l3 -3t1.5 -2.5v-22q0 -3 4 -4.5t6 -1.5h3l1 3q3 8 3 17v18q0 3 -0.5 5.5t-0.5 4.5q0 3 0.5 5t0.5 5v1v3.5t-0.5 4.5t-0.5 4v3
q-2 3 -5 4t-6 1q-1 -1 -1.5 -2l-1.5 -3q0 -1 0.5 -3.5t0.5 -4.5q0 -4 -0.5 -6.5t-0.5 -3.5q0 -6 -6 -6q-3 0 -4.5 2.5t-1.5 5.5q0 6 2.5 12.5t2.5 13.5v1q-1 5 -1.5 14t-1 17.5t-1 15l-0.5 6.5q0 1 -1 3.5t-1.5 5l-1 5t-0.5 3.5v2q0 2 1.5 3.5t3.5 1.5q4 0 6 -3.5t1 -6.5
q0 -4 0.5 -11.5t1 -16.5t1 -16.5t0.5 -10.5q1 -4 3 -7.5t6 -3.5q1 0 3 0.5t2 1.5v59q-1 0 -1.5 1.5l-0.5 1.5v0.5v0.5q0 3 1 5.5t1 5.5q0 7 -1.5 13t-1.5 12v3.5v2.5zM136 160q0 -6 3.5 -7t8.5 -1h3t4 1q2 0 2.5 1.5t0.5 3.5q0 1 -0.5 2t-0.5 2.5t-0.5 2.5t-1.5 1h-15
q-2 0 -2.5 -1l-1 -2t-0.5 -2v-1zM156 134q2 0 2.5 2.5t0.5 4.5v2.5v1.5q-6 1 -12 1.5t-12 0.5q0 -5 1.5 -7.5t4.5 -3.5t7 -1.5t8 -0.5zM183 141v2t-2 2h-12v-3.5v-3.5t0.5 -1.5t1.5 -0.5h10q2 0 2 2v3zM136 123l0.5 -1.5l0.5 -1.5q5 -1 11 -1.5t11 -0.5v2.5v3.5t-0.5 3.5
t-1.5 1.5h-19q-2 0 -2 -3v-3zM98 82q0 1 0.5 2.5t1.5 1.5h1q2 -1 3 -3l2 -4t1.5 -3.5t1.5 -1.5h23q0 1 -0.5 2.5t-0.5 3.5t0.5 3t2.5 1q4 0 5 -3t1 -6q0 -10 -3.5 -16t-13.5 -6q-13 0 -22 10q0 1 -0.5 3.5l-1 5l-1 5t-0.5 3.5v2zM108 63q0 -1 2 -2t4 -1.5t4 -0.5h3h3h2
q1 0 2 0.5l1 0.5v8h-4.5h-7t-6.5 -1t-3 -4zM159 63q0 -4 2 -5t4 -1q4 0 6.5 0.5t6.5 1.5q1 0 1.5 1t0.5 2v0v1v0v0q-1 1 -1.5 2l-0.5 1h-17q-2 0 -2 -1.5v-1.5zM99 42h0.5t0.5 1l0.5 0.5l0.5 0.5h30l2 -0.5l2 -0.5v-1v-0.5v-0.5q-1 0 -3 -1t-4 -1.5t-4 -0.5h-2h-4t-6 0.5
t-6 0.5t-4 1l-1 0.5l-1 0.5l-0.5 0.5zM152 41q5 2 11 2h12h14q1 -1 1 -1.5v-1.5v-2.5t-1 -1.5h-30q-2 0 -4 1.5t-3 3.5zM98 23q1 1 2.5 2t2 1.5t1.5 1l1 0.5q1 0 2 -1t2 -1h1q2 0 4 1t5 1q4 0 9 -0.5t10 -0.5h10.5t8.5 -1q1 0 3 -0.5t3.5 -1t3.5 -1l2 -0.5q1 0 3.5 1.5
l2.5 1.5q1 0 2 -0.5l1 -0.5h2q3 0 5.5 0.5t4.5 0.5q3 0 4 -1t1 -3v-3q0 -1 -2 -2h-3h-5.5h-5.5h-3q-12 0 -23.5 1t-24.5 1q-4 2 -7.5 2t-7.5 -0.5t-8 0t-7 2.5z" />
</svg>
