<?xml version="1.0" standalone="no"?>
<!DOCTYPE svg PUBLIC "-//W3C//DTD SVG 1.1//EN" "http://www.w3.org/Graphics/SVG/1.1/DTD/svg11.dtd" >
<svg xmlns="http://www.w3.org/2000/svg" xmlns:xlink="http://www.w3.org/1999/xlink" version="1.1" viewBox="-10 0 266 256">
   <path fill="currentColor"
d="M52 245v3.5t2 3.5h3q23 0 46 -2t46 -3h9.5t13.5 -0.5t13 -0.5h9q4 -1 5.5 -3t1.5 -5q0 -2 -1 -3t-3 -1q-10 0 -19.5 0.5t-18.5 0.5h-3h-4h-4h-2l-1 -1v-63q0 -2 3.5 -3t8.5 -3t8.5 -6t3.5 -13v-3.5t-1 -4.5t-2 -3.5t-4 -1.5v0l-0.5 1.5t-1 2t-1 2.5t-1.5 4.5t-1.5 4.5
t-1.5 2q-1 4 -6.5 6.5t-11.5 4t-12.5 1.5h-10.5h-1h-1l-2 -0.5l-2 -0.5h-2t-3 0.5t-3 0.5h-2v0h-1q-9 0 -12.5 -3.5t-5 -7.5t-2.5 -8t-5 -4t-4.5 1.5t-0.5 5.5q0 1 1 4t1.5 5.5t1.5 5t1 3.5q2 4 6.5 5.5t10 2t10.5 0.5t9 1v6.5t0.5 10t0.5 10v6.5v2q0 8 -1 15t0 15
q-1 0 -2 0.5t-2 0.5v0q-2 0 -3.5 -0.5t-3.5 -0.5h-2l-2 0.5t-3 0.5h-4.5h-8.5h-7.5h-5.5q-1 1 -3 1t-4 0.5t-3.5 2t-1.5 2.5zM129 171h2h1q1 7 1 11.5t0.5 9t0.5 8.5v10v6q0 2 -0.5 5t-0.5 6t-1 7q-1 2 -2 2.5t-3 0.5t-5 -1.5t-3 -5.5v-50q0 -4 3.5 -6.5t6.5 -2.5zM80 185
q0 7 -0.5 13l-1 12t-1 12.5t-0.5 12.5q5 0 8.5 -3.5t3.5 -8.5q0 -2 0.5 -6t0.5 -9v-9.5v-5.5q0 -4 -1 -7t-5 -3h-2t-2 2zM165 220q0 1 1 2t2 1v0h1q1 0 3.5 -2t3.5 -3l1 -1v-7v-8.5t-0.5 -11.5t-2 -10t-5.5 -4h-3.5t-2.5 3v14v14t2 13zM191 120v47q0 1 1 1.5t2 0.5q3 0 5 -2
t3 -5v-6.5t0.5 -10t0.5 -10v-6.5v-1v0q0 -1 -0.5 -3.5t-0.5 -3.5t-0.5 -6t-1 -11t-1 -11t-0.5 -6q-1 -9 -3.5 -15t-6 -11.5t-8 -11t-10.5 -11.5l-2 -6t-2.5 -5.5t-3.5 -4.5t-6 -4q-8 -1 -17.5 -2.5t-18.5 -1.5q-10 0 -19 0.5t-19 2.5q-2 1 -2.5 2t-0.5 2q0 2 1 3.5t2 1.5
q9 0 18.5 -1.5t19.5 -1.5h7.5t11.5 1t11 3t5 6q0 1 -0.5 2t-2.5 1q-6 0 -11.5 -0.5t-11.5 -0.5h-7h-13.5t-16 0.5t-15.5 2t-12 3t-5 4.5q0 2 1 4t2 3q17 -7 35.5 -8.5t36.5 -1.5h3.5h4.5h5h2l4 5l-6 6l-4 1t-9.5 1.5l-11 1t-9.5 1.5h-7h-11h-11.5h-7.5q-1 0 -1 1v2v3t1 1
q7 1 11.5 1.5t10.5 0.5q14 0 28 -2t27 -7q1 -1 2 -1.5t3 -2t3 -2t2 -0.5q0 -1 1 -1h1q4 0 7 3.5t5.5 8.5t4 10.5t2.5 8.5q1 2 1 6t0.5 8.5t1 8.5t0.5 6q0 1 1 4.5t1 4.5zM106 162q1 0 1 2q0 1 -1 1t-1 -1q0 -2 1 -2zM97 150q0 2 1 4t4 2h1q4 -4 10 -8.5t12 -8.5
q6 -3 13.5 -6t13.5 -6.5t10 -9.5t4 -15q0 -3 -1.5 -6.5t-4.5 -7.5t-6 -6.5t-6 -2.5l-28 -2l-3.5 1t-7.5 2.5t-7 3t-4 1.5q-3 3 -9 7t-11 8.5t-8.5 9.5t-3.5 10q0 2 1.5 2.5t3.5 0.5q5 0 7.5 -3.5t4.5 -7.5t4 -7.5t5 -3.5t4.5 3.5t3 7.5t2.5 7.5t1 4.5l0.5 0.5l0.5 0.5
q4 0 4 -4v-8q0 -5 -2 -8.5t-2 -7.5q0 -3 4 -5.5t6 -2.5q5 0 7 3.5t3.5 7t3.5 6.5t7 3h2t1 -1q0 -4 -2 -9t-2 -9v-1l1 -1h1q3 0 6.5 1t6.5 3t5 5t2 7q0 3 -3 7.5t-7 8t-8.5 5.5t-8.5 1q-10 3 -18 9.5t-14 14.5z" />
</svg>
