<?xml version="1.0" standalone="no"?>
<!DOCTYPE svg PUBLIC "-//W3C//DTD SVG 1.1//EN" "http://www.w3.org/Graphics/SVG/1.1/DTD/svg11.dtd" >
<svg xmlns="http://www.w3.org/2000/svg" xmlns:xlink="http://www.w3.org/1999/xlink" version="1.1" viewBox="-10 0 266 256">
   <path fill="currentColor"
d="M114 247q0 1 1 2.5t3 1.5q4 0 5.5 -3.5t2.5 -5.5v-7.5v-11.5v-11.5v-7.5q0 -6 2.5 -9t5.5 -5t7 -3t9 -2q5 -2 12 -3.5t13 -5.5q1 -1 2 -2.5t2.5 -3t2.5 -3t2 -2.5q4 -16 6.5 -33t2.5 -35v-10.5t-0.5 -13t-2 -12t-4.5 -9.5q-2 -2 -5 -4t-5 -5h-6.5t-10 -0.5t-11.5 -1
t-10.5 -1t-8 -1.5t-3.5 -2q0 -6 1.5 -11.5t1.5 -10.5q0 -3 -1 -5t-4 -2q-5 0 -5 6v22q0 2 -3 3.5t-7.5 2t-9.5 1.5l-10 2t-9 2t-5 2q-3 3 -5 8.5t-3 12t-1.5 13t-0.5 11.5q-1 5 -0.5 8t-1.5 8v16q0 10 2 21t6.5 19.5t12.5 14t21 5.5h3h3.5t1.5 -1t1 -2v-1v0l-1 -2
q-10 -2 -17.5 -6t-12.5 -9t-7.5 -13t-2.5 -19q0 -16 0.5 -33t4.5 -33q1 -7 6 -11t11.5 -6t13.5 -2h13q13 0 26 0.5t25 2.5q3 2 5 7t3 11t1 11.5v8.5v5v6t-0.5 8.5t-1 8t-0.5 4.5q0 3 -1 10.5t-3 15.5t-4 14.5t-5 8.5q-5 4 -10.5 5.5l-11 3t-10.5 2.5t-9 4t-7 8.5t-3 14.5
l-0.5 4.5t-0.5 10.5t-0.5 12t-0.5 10v2zM97 116v13t1.5 13.5t5.5 11t12 4.5q5 0 11.5 -0.5t12.5 -2.5t10 -6t4 -11v-55q0 -10 -4.5 -14t-13.5 -4q-8 0 -16 1.5t-16 3.5l-2.5 2.5t-1.5 3.5t-0.5 6t-1 9t-1 9.5t-0.5 6.5v9zM104 140q0 -3 2.5 -5t3.5 -3q8 -1 17 -1.5t17 -0.5
q0 7 -1 11t-4 6t-7.5 2h-11.5h-5t-5 -1.5l-4 -3t-2 -4.5zM103 118q0 -8 2.5 -11t7 -4.5t10.5 -1t11 0.5h6h4l3 3v12l-5 4l-2.5 0.5t-6.5 0.5t-8 0.5t-6 0.5h-3h-4h-3q-1 0 -2.5 -0.5t-2.5 -1.5t-1 -3zM105 88q0 -5 3 -8t7.5 -4.5t9.5 -2t9 -0.5q6 0 9.5 3t3.5 10
q0 3 -0.5 5.5t-4.5 3.5h-4.5t-7.5 0.5t-7.5 0.5h-5.5h-3q-5 0 -7 -1.5t-2 -6.5z" />
</svg>
