<?xml version="1.0" standalone="no"?>
<!DOCTYPE svg PUBLIC "-//W3C//DTD SVG 1.1//EN" "http://www.w3.org/Graphics/SVG/1.1/DTD/svg11.dtd" >
<svg xmlns="http://www.w3.org/2000/svg" xmlns:xlink="http://www.w3.org/1999/xlink" version="1.1" viewBox="-10 0 266 256">
   <path fill="currentColor"
d="M167 140v0q1 0 1.5 1t0.5 2q3 27 6 53.5t6 53.5h1.5h1.5q3 0 5 -1t4 -4v-3.5v-3.5v-3.5v-3.5l-0.5 -2.5t-1.5 -5.5t-1.5 -5.5t-0.5 -3.5q0 -4 -1.5 -14t-3 -21.5t-3 -21.5t-2.5 -14v-3q0 -3 1.5 -4.5t3.5 -2.5l4 -2t3 -3q4 -6 5.5 -12.5t3 -12.5l3 -12t3.5 -13v-16
q0 -3 0.5 -6.5t0 -7.5t-0.5 -8t-1 -7q-3 -8 -12 -12t-19.5 -5.5t-20.5 -1.5h-15h-2h-3h-2.5h-2.5q0 1 -2 3t-3 2v1v1q1 0 2 1.5t2 1.5q13 0 27 0.5t27 1.5q4 3 8.5 8t4.5 10v40q0 2 -1.5 8t-3.5 12t-4 10.5t-6 4.5q-3 0 -4.5 -4.5t-2 -11t-1.5 -13.5t-4 -10q-1 -2 -6 -3
t-10 -1.5t-10 -0.5h-8h-3h-4.5h-4.5h-3q0 1 -0.5 2l-0.5 1v1v1q10 1 17.5 1.5t12.5 1t7.5 2.5t5 6t4 10.5t3.5 17.5v2v3t-0.5 4t-1.5 3.5t-3 1.5h-45q-2 0 -2 2v3v2t2 1h18q8 0 16 -0.5t16 -0.5zM49 121q1 5 1.5 9t2.5 7.5t5 6t8 4.5h2h4h3h3q9 0 14.5 -1.5t8.5 -5.5t4 -10
t1 -15l0.5 -5t0.5 -12.5v-16.5t0.5 -18.5t0.5 -18v-14.5v-1q0 -5 -2 -9t-6 -5h-3t-4.5 -0.5t-5.5 -0.5h-3q-8 0 -14 0.5t-10 2.5t-6.5 6.5t-2.5 13.5q-1 2 -1 6.5t-0.5 9.5t-0.5 9.5v6.5v25v26zM59 107q1 -3 3 -5h22q1 0 2 -0.5t2.5 -0.5t2.5 -0.5t2 0.5q2 0 2.5 3t0.5 6v10
t-1.5 9t-5 6.5t-9.5 2.5q-7 0 -10.5 -2.5t-5.5 -7t-3 -10t-2 -11.5zM115 111v1v0q0 1 0.5 1.5t1.5 0.5h34l1 -1.5t2 -1.5v-1v-1q0 -1 -1 -2l-1 -1h-32q-2 0 -3.5 1.5t-1.5 3.5zM59 65l2 -4h3.5t8 -0.5t6.5 -0.5q5 -1 9.5 -1.5t9.5 -0.5v6.5t-0.5 12t-2 11t-2.5 4.5h-32z
M61 44l0.5 -2.5t0.5 -3.5q2 -5 3.5 -8t3.5 -4.5t5 -1.5h9h10q2 2 2.5 4.5t0.5 4.5v6t-1 5.5t-2.5 4.5t-4.5 2q-2 0 -6.5 0.5t-9 0t-8 -2t-3.5 -5.5zM127 50q13 1 26 1.5t27 0.5q0 -5 -4 -8q-3 0 -9 -0.5t-13 -1t-13.5 -1t-8.5 -0.5h-1h-1q-1 1 -4 1.5t-3 2.5v1z" />
</svg>
