<?xml version="1.0" standalone="no"?>
<!DOCTYPE svg PUBLIC "-//W3C//DTD SVG 1.1//EN" "http://www.w3.org/Graphics/SVG/1.1/DTD/svg11.dtd" >
<svg xmlns="http://www.w3.org/2000/svg" xmlns:xlink="http://www.w3.org/1999/xlink" version="1.1" viewBox="-10 0 266 256">
   <path fill="currentColor"
d="M195 249q0 2 1.5 2h2.5q4 0 5.5 -3t2.5 -6q0 -7 0.5 -12.5t0.5 -10.5t0.5 -10t0.5 -10q0 -22 -1 -44t-3 -43q-3 -3 -9.5 -6l-13 -6t-11 -6.5t-4.5 -7.5v-3t2 -3l29 -5q2 0 5 -3l4 -4q0 -7 0.5 -12t1 -9.5t0.5 -9.5v-11v-14q-1 -2 -2.5 -2.5t-3.5 -0.5t-3.5 0.5t-3.5 1.5
v3.5v5t-0.5 5t-0.5 3.5q-1 6 -3 6.5t-7 0.5q-4 0 -12.5 0.5t-18.5 1t-19 1t-12 0.5t-3.5 2t-0.5 4v2.5t2 2.5h3h3q5 0 10 -1t10 -1h2q2 0 3.5 0.5t3 1.5t1.5 2v21h-37q-2 0 -3 2.5l-1 2.5v1q0 2 1.5 3t3 1h3.5h3q5 0 10 -1t10 -1h7q1 0 2.5 1l1.5 1v16q1 1 3 2l4 2t3 2.5
t1 3.5q0 5 -1.5 11.5t-1.5 11.5l-2 1h-24l-2 -1v-5t-0.5 -6t-2 -5.5t-4.5 -2.5h-1q-1 0 -2.5 0.5l-1.5 0.5v28q3 3 3 6.5v7.5t-0.5 8t1.5 7.5t6.5 5.5t14.5 2q11 0 16.5 -3.5t7 -9.5t1.5 -14v-17v-4.5t0.5 -7.5t0.5 -7.5t1 -4.5h1h1q6 0 9 4t4.5 9t2 11t0.5 9q0 2 0.5 6.5
t0.5 10.5v10v6q0 16 -1 32t-1 32v9zM47 108v5q1 3 1.5 9t1 11.5t1 10.5t0.5 6q1 11 7.5 14.5t16.5 3.5q3 0 7.5 -0.5t8.5 -1.5t7 -3.5t4 -7.5q0 -2 0.5 -7t1.5 -11t1.5 -11t0.5 -7v-2v-4v-3v-4v-8.5t-0.5 -14.5t-1 -16.5t-2 -15.5t-3 -11.5t-4.5 -4.5h-30q-4 0 -7 2.5
t-5 5.5t-3 6.5t-1 6.5v5v9v9v5t-0.5 3.5t-0.5 6t-0.5 6t-0.5 3.5v5zM158 139q8 0 8 8v3q-1 1 -1.5 3.5t-1.5 5t-1.5 5t-0.5 3.5q-2 1 -5 1h-3h-3q-3 0 -5.5 -1t-4.5 -2t-2 -3v-17q0 -2 2.5 -3.5t6 -2t7.5 -0.5h4zM61 134q0 -5 2.5 -7t6 -3.5t7.5 -1.5h8h3.5h3.5q2 1 2.5 4.5
t0.5 5.5q0 6 -0.5 10.5t-2 7t-5 4t-9.5 1.5q-9 0 -13 -5.5t-4 -15.5zM63 112q-4 -2 -4.5 -5.5t-0.5 -6.5q0 -7 3 -10t7.5 -4.5t10 -1.5h9.5h4t3 3v2v3.5v3.5v2l0.5 2.5t0.5 5.5t-1 5t-3 2h-2h-5t-8.5 -0.5t-8.5 -0.5h-5zM61 75v-4v-5v-4.5t0.5 -7t2 -6.5t4.5 -3h21q3 0 4 3
t1.5 7t0.5 7.5v5.5t-0.5 3.5t-4.5 3.5q-1 0 -4 0.5t-6.5 0.5t-7 0.5t-4.5 0.5h-1h-2h-2t-2 -2zM167 66v-15q0 -2 3 -3.5t6.5 -2t6.5 -0.5h4h6l2 2v16q0 2 -3 3t-6.5 1.5t-7 0.5h-4.5h-3h-2z" />
</svg>
