<?xml version="1.0" standalone="no"?>
<!DOCTYPE svg PUBLIC "-//W3C//DTD SVG 1.1//EN" "http://www.w3.org/Graphics/SVG/1.1/DTD/svg11.dtd" >
<svg xmlns="http://www.w3.org/2000/svg" xmlns:xlink="http://www.w3.org/1999/xlink" version="1.1" viewBox="-10 0 266 256">
   <path fill="currentColor"
d="M123 246q12 1 22.5 3t22.5 2q9 0 15.5 -0.5t16.5 -1.5q1 -1 1 -2v-3q0 -2 -0.5 -3.5t-3.5 -1.5h-1h-5t-8.5 0.5t-8.5 1t-5 0.5q-3 0 -8 -0.5t-10 -0.5t-9 -0.5l-4 -0.5l-8 -3l-0.5 -0.5t-0.5 -1.5l1.5 -1.5l3 -3l2.5 -2.5t2 -1q2 -3 5 -8.5l6 -11t6 -9.5t7 -4l0.5 0.5
t1.5 0.5q3 3 6 8.5t6.5 10.5t7.5 9t8 4q2 0 4 -1.5t1.5 -4t-2 -5t-3.5 -4t-4 -3.5l-4 -4l-1.5 -2.5t-3 -5.5t-2.5 -5.5t-1 -3.5q-1 0 -3 -3t-3 -3v-2v-3q0 -5 3.5 -7t8 -3t9.5 -2.5t9 -6.5q2 -3 3.5 -8.5t2 -11.5l1 -12t0.5 -10q0 -7 -1.5 -10.5t-3.5 -5.5t-4 -3t-4.5 -2
t-4 -3t-1.5 -5q1 -6 4 -15t5.5 -18.5t4 -19t1.5 -16.5q0 -3 -0.5 -4.5t-4.5 -1.5q-2 0 -3 0.5t-2 2.5q0 1 -1 3.5l-2 5t-1.5 5t-0.5 3.5q-1 1 -1.5 3.5t-1 5.5t-1.5 5l-1 2q-7 2 -14 3t-14 1q-6 0 -9 -2.5t-4.5 -7t-2.5 -9.5t-3 -9q0 -2 -1.5 -5.5l-1.5 -3.5h-12q0 5 1 8.5
t3 7.5t4.5 8t3.5 8q3 8 6 18t3 19v6q-1 2 -3.5 2.5t-3.5 1.5q-6 1 -9.5 5t-5 9.5t-1.5 11.5v12v3v4v5t1 3q3 10 10.5 16t19.5 5q2 1 2.5 3.5t0.5 3.5q0 2 -3 8.5t-7 13t-8 11.5t-6 5t-3 -2t-2 -3q0 -1 0.5 -4.5t0.5 -6.5q0 -4 -0.5 -7.5t-0.5 -4.5q0 -7 -6 -7q-2 0 -3 1.5
t-1 3v3v1.5q0 11 0.5 22.5t1.5 22.5q1 2 1.5 4l1 4l1 4t3.5 3zM53 166q2 2 5.5 4t6.5 2h25q5 0 8 -2.5t5.5 -6.5t3.5 -8t1 -7v-91q0 -2 -0.5 -6t-1.5 -7.5t-3.5 -6.5t-6.5 -3h-31q-5 0 -8 3t-4 6.5t-1.5 8t-0.5 7.5v24v5.5t-0.5 9l-1 9t-0.5 5.5v2v2q1 2 1 9.5t1 15.5
t1.5 15t0.5 10zM63 141q0 -3 1 -5t3 -4q1 0 4 -0.5t6.5 -1l7 -1t5.5 -0.5t3.5 1.5t2 3.5t0.5 4v4q0 10 -4 16t-15 6h-4.5h-2.5l-5 -5l-0.5 -1.5t-1 -4t-0.5 -5v-4.5v-3zM130 139q0 -2 1 -3.5t3 -2l4 -1t4 -0.5h7.5t14 -0.5t14.5 -0.5h8h1q1 0 2 1t1.5 2.5t0.5 3v1.5v1
q0 8 -5 11.5t-12 5t-14 1.5h-13q-3 0 -6 -2t-5.5 -4.5t-4 -5.5t-1.5 -7zM61 112v-5v-5t0.5 -3.5t0.5 -5t0.5 -4l0.5 -1.5l2 -2l2 -0.5t5 -1l6 -1t5 -0.5h2h2q2 0 6 0.5l4 0.5v37h-32l-4 -2v-2.5v-4.5zM136 101q3 -1 6.5 -2t7.5 -1.5l8 -1t7 -0.5h10t9 1t6.5 4t2.5 9
q0 3 -0.5 5t-3.5 4q-14 1 -28.5 1.5t-28.5 0.5v-4q0 -3 0.5 -6t1 -5.5t2.5 -4.5zM153 86q-2 -4 -2.5 -7.5t-0.5 -8.5v-7q4 -3 9.5 -3.5t10.5 -0.5h5.5t5.5 2v4.5v4.5v5t-0.5 6t-2.5 5t-5 2h-1q-1 0 -3.5 -0.5t-5.5 -1t-6 -0.5h-4zM61 67v-1q1 -1 1.5 -4t1.5 -6t1.5 -6
t1.5 -4q3 -4 8.5 -4.5t10.5 -0.5q4 0 6 1.5t2.5 4.5t1 6.5t0.5 6.5v9q-1 2 -2.5 3.5t-3.5 1.5h-25l-1 -0.5t-1 -1t-0.5 -2.5t-1.5 -3v0z" />
</svg>
