<?xml version="1.0" standalone="no"?>
<!DOCTYPE svg PUBLIC "-//W3C//DTD SVG 1.1//EN" "http://www.w3.org/Graphics/SVG/1.1/DTD/svg11.dtd" >
<svg xmlns="http://www.w3.org/2000/svg" xmlns:xlink="http://www.w3.org/1999/xlink" version="1.1" viewBox="-10 0 266 256">
   <path fill="currentColor"
d="M182 179q0 7 2 14l4 14q1 11 2 20.5t2 19.5q1 3 2 3.5t3 0.5q5 0 6 -4t1 -8q0 -6 -1.5 -14t-4 -16t-5 -15.5l-4.5 -13.5q2 -4 3.5 -6.5t3 -5.5t2.5 -6.5t1 -7.5q0 -5 -2 -9.5t-5.5 -8.5t-8 -6.5t-10.5 -2.5q-1 0 -3.5 1t-2.5 3q0 3 3.5 4.5t7 3.5t7 5t3.5 9q0 4 -1 6.5
t-4 4.5q-1 -4 -4 -7t-7 -5t-8.5 -3t-7.5 -1h-3h-4t-3 1t-1 3t3.5 2.5t8 1.5t9 3.5t7.5 7.5l0.5 0.5t0.5 1.5t-2 3t-3 2h-27q-3 0 -3.5 3t-0.5 5q11 0 21.5 -1.5t22.5 -1.5zM112 239q0 3 0.5 4.5t3.5 1.5q2 0 4.5 -1.5t2.5 -4.5v-12v-11t0.5 -10.5t1.5 -12.5q0 -3 0.5 -8
t2 -10.5t2.5 -10t3 -6.5q6 -9 13.5 -16.5t12.5 -16.5q4 -5 4 -8.5t0.5 -5.5t2.5 -3t11 -2q1 0 5 -0.5t8.5 -1t8.5 -1t6 -0.5l0.5 -1t1.5 -1v-3v-3q-11 0 -21 1.5t-21 1.5q-2 0 -2.5 -3t-0.5 -5q0 -1 0.5 -2.5t0.5 -2.5q3 -2 9 -2.5t12.5 -1t11 -1.5t4.5 -5q0 -3 -1 -4t-3 -1
q-1 0 -1.5 0.5l-0.5 0.5q-1 0 -5.5 0.5t-10.5 1t-12.5 1.5t-12.5 1.5t-10 1t-6 0.5h-1q-2 0 -3 -0.5t-2 -2.5q1 -4 0.5 -9t-1.5 -9.5t-2.5 -9t-2.5 -8.5q0 -2 2 -3.5t4.5 -2.5t5.5 -1.5t4 -0.5q5 0 7 6t3 12.5t2.5 12t4.5 5.5q6 0 6 -6q0 -3 -1 -6t-2.5 -6.5t-3 -6.5
t-1.5 -7q0 -3 1.5 -4.5t3.5 -2.5t4.5 -1h5.5h2q1 5 2.5 10t4.5 10.5t6.5 9.5t7.5 7q2 -2 3.5 -4t1.5 -4q0 -4 -2.5 -7t-5.5 -6.5t-5 -6.5t-1 -8q0 -4 3 -4h6t5.5 -2t2.5 -10q-13 0 -26.5 2t-25.5 5l-12 2t-11 3t-8.5 6.5t-3.5 12.5q0 5 2 11.5t3 10.5t3 5.5t2 5.5
q0 2 -1.5 2.5t-2.5 1.5t-2.5 1.5t-1.5 2.5v1l0.5 0.5t1.5 0.5h6q5 0 9 -1t9 -1h2q2 0 4 0.5t3 1.5t1 2v11l-0.5 0.5l-0.5 0.5q-4 2 -9 3t-10 1.5t-9.5 0.5t-8.5 1q-3 0 -4 3.5t-1 6.5q11 0 21 -3t21 -3q0 2 0.5 5.5t0.5 4.5q-1 6 -5 9.5l-8 7t-7.5 7t-6.5 8.5
q-4 11 -6.5 21.5t-4 21t-2 21.5t-1.5 23v1zM49 62v40q0 21 2 41q0 1 0.5 4t2 6t3 5.5t3.5 2.5h26q2 0 4.5 -2t5 -4.5t4 -5t1.5 -5.5v-78v-4t-0.5 -6.5t-1.5 -7t-1 -5.5t-2 -5t-4 -4h-2.5h-3.5h-3h-2q-8 0 -16 1t-14 7q-1 3 -1 5.5t-0.5 4.5t-0.5 5v5zM70 148q-3 -5 -5 -10.5
t-2 -10.5q0 -4 2.5 -5.5t5.5 -2t7 -0.5h5h4h3l3 2v4q0 3 -0.5 7.5t-2 8.5t-4 7t-6.5 3q-2 0 -5 -1t-5 -2zM59 87q0 -1 1.5 -2t3 -1h3.5h1q1 -1 4 -1h6.5t6 -0.5t4.5 -0.5q1 1 2.5 1.5t1.5 1.5v6q0 2 0.5 5t0 6t-1 5t-2.5 2h-27q0 -1 -0.5 -3.5l-1 -5t-0.5 -5t-1 -4.5
l-0.5 -1t-0.5 -2v-1zM59 60q0 -4 0.5 -7t3.5 -7q1 0 3.5 -0.5t5 -1.5t5 -1.5l2.5 -0.5h1.5h0.5q3 0 5 2t3 5t1 6.5v5.5v2.5t-1 3t-1.5 3t-1.5 1.5h-26l-0.5 -1.5t-0.5 -2.5v-2.5v-4.5z" />
</svg>
