<?xml version="1.0" standalone="no"?>
<!DOCTYPE svg PUBLIC "-//W3C//DTD SVG 1.1//EN" "http://www.w3.org/Graphics/SVG/1.1/DTD/svg11.dtd" >
<svg xmlns="http://www.w3.org/2000/svg" xmlns:xlink="http://www.w3.org/1999/xlink" version="1.1" viewBox="-10 0 266 256">
   <path fill="currentColor"
d="M197 249q0 2 2 2h3q3 0 4 -2.5t2 -5.5q0 -1 -0.5 -4t-1 -6.5t-1 -6.5t-1.5 -4q0 -1 -0.5 -3l-0.5 -2q-1 -3 -1.5 -9t-1.5 -13.5t-2 -14t-1 -8.5q-1 -5 -3 -10t-2 -10q0 -4 1 -8.5t2.5 -9.5t3 -10.5t1.5 -11.5q0 -8 -1.5 -15.5t-5 -13t-9 -9.5t-14.5 -4h-9t-8 -2l-26 2
q-2 0 -2.5 1t-0.5 2q0 2 1.5 3.5t3.5 1.5h21v34h-19q-1 0 -2.5 2.5l-1.5 2.5v1v0q1 1 2 2.5t2 1.5h14q2 0 2.5 2.5t0.5 4.5q0 3 -0.5 8l-1 10t-2.5 9.5t-6 5.5h-4t-6 0.5t-6 0.5h-4l-4 2t-2 4l2 1.5l2 1.5h9q10 0 20.5 -1.5t19.5 -1.5q1 -1 2.5 -2l3 -2t3.5 -2l2 -1h1h1
q2 0 3.5 2t2.5 4.5t1.5 5t1.5 4.5q1 18 4 36t6 35zM74 242q0 3 0.5 4.5t3.5 1.5q4 0 5.5 -4t2 -9t0 -9.5t-0.5 -7.5v-4.5t0.5 -8t1 -10t1 -10.5t0.5 -8.5v-4.5v-9v-13v-13v-9l2 -3l15 -11h2q1 0 2 2.5t1.5 5.5l1 6l0.5 3v5.5t0.5 7t0.5 7v4.5q1 0 1.5 0.5l0.5 0.5
q1 0 2.5 -0.5t2.5 -1.5v-11v-9t-0.5 -10t-2 -10t-4.5 -9q-2 -3 -6 -4.5l-8 -3t-7 -4t-3 -6.5q0 -7 3 -11.5t7 -8t8.5 -7t8.5 -8.5v-1q0 -3 -1 -6t-2.5 -6t-4.5 -5t-6 -3l-30 -5q-2 0 -3 -2t-2 -4.5t-2.5 -4.5t-4.5 -2t-3 3q0 4 1 8t2.5 7.5t5 5.5t6.5 2h24q3 0 6 3t3 6
q0 4 -2 6.5t-5.5 4.5l-7 4t-5.5 4q-2 1 -2.5 5t-0.5 8t-1 6.5t-4 2.5q-5 0 -8.5 -2.5t-5.5 -6.5t-3 -8.5t-1.5 -8.5t-1.5 -6t-3 -2q-1 1 -2.5 2t-1.5 2v2v2.5v2.5v2q0 10 1.5 15.5t5 8.5t9 4t14.5 1l2 4v2t-0.5 5l-1 6t-0.5 4q0 3 -1.5 4.5t-3.5 3l-4 3t-3 2.5q-4 5 -7 12.5
t-4.5 16t-3 16.5t-1.5 14q0 1 -0.5 5.5t-1 10t-1 10.5t-0.5 6v1q0 7 6 7q2 0 2.5 -0.5t2.5 -1.5q0 -1 -0.5 -3t-0.5 -4t0.5 -4t0.5 -3q0 -3 0.5 -9t1.5 -13t1.5 -13.5t0.5 -8.5q1 -2 2 -6t2 -8.5t2.5 -8t3.5 -3.5h2h1q0 2 0.5 4.5t0.5 6t0.5 6.5t0.5 4v2q0 19 -2.5 37.5
t-2.5 37.5zM154 155v-5q0 -6 0.5 -9.5t1.5 -9.5l2 -0.5t3 -0.5v0q4 0 6.5 1.5t4.5 4.5t3.5 6.5t2.5 6.5l-2 2l-1 1q-1 1 -3.5 2l-5 2t-4.5 2t-3 1q-3 -1 -5 -4zM159 114v-5v-4q0 -6 0.5 -13t4.5 -12q0 -1 2 -1h1q7 0 12 4t8 10q1 8 1.5 14t0.5 14v7.5t-2 7.5h-0.5h-0.5
q-2 0 -3.5 -1t-2.5 -3t-2 -3.5t-2 -2.5l-2 -1.5t-4.5 -3t-4.5 -3t-3 -1.5l-1.5 -1.5zM90 104h3h3.5t2.5 2q0 3 -3.5 5t-5.5 2v-9z" />
</svg>
