<?xml version="1.0" standalone="no"?>
<!DOCTYPE svg PUBLIC "-//W3C//DTD SVG 1.1//EN" "http://www.w3.org/Graphics/SVG/1.1/DTD/svg11.dtd" >
<svg xmlns="http://www.w3.org/2000/svg" xmlns:xlink="http://www.w3.org/1999/xlink" version="1.1" viewBox="-10 0 266 256">
   <path fill="currentColor"
d="M151 222q0 7 -1 14.5t-1 14.5q2 0 4 -0.5t3 -2.5t1.5 -6t1 -9t1.5 -9.5t1 -5.5v-2v-2v-2v-2l0.5 -0.5t1.5 -0.5h10l2 1q0 10 1.5 21t3.5 20q4 -1 7 -3.5t3 -6.5q0 -6 -2.5 -11.5t-2.5 -12.5v-4v-4q1 -3 2.5 -3.5t3.5 -2.5t3 -5.5t1.5 -7.5t0.5 -7v-7v-4.5v-5.5
q-1 -1 -2 -2.5t-2.5 -3.5t-3 -3l-1.5 -1h-31q-3 0 -6.5 2t-6 4.5t-4 6t-1.5 6.5v1.5v0.5q1 2 1.5 5t1 6.5t0.5 6v3.5q1 2 2 3.5t2.5 3t3 2.5t2.5 2v13zM75 149q-1 24 5.5 49.5t18.5 46.5l2.5 2.5t2.5 0.5t3.5 -2t1.5 -4q0 -3 -1.5 -5.5t-3.5 -5.5t-3.5 -5.5t-2.5 -4.5
q0 -1 -1 -3.5l-2 -5l-2 -5t-1 -3.5q-1 -2 -2 -6.5t-2.5 -9.5t-2.5 -9.5t-1 -6.5q0 -5 2 -7t4 -3.5t5 -3t4 -5.5q1 0 1 -1.5v-3.5t0.5 -3.5t0.5 -2.5v-1t0.5 -2t0.5 -2.5v-1.5v-30q1 -1 1.5 -3.5t2.5 -2.5t3.5 3.5t2 8t1 8.5t0.5 6q0 16 -2.5 31.5t-2.5 30.5h5l4 -7
q1 0 1.5 -4t1 -9.5t0.5 -11v-8.5v-6v-11.5t-0.5 -12.5t-0.5 -9q-1 -7 -3.5 -12t-9.5 -5q-5 0 -7.5 4t-3.5 9t-0.5 10t0.5 7t-0.5 5.5t-0.5 7.5t-0.5 8t-0.5 5q-1 1 -3 4.5t-4 3.5t-2.5 -1.5t-0.5 -3.5q0 -12 2.5 -24.5t2.5 -25.5q0 -1 -1 -3.5t-2.5 -4.5t-3 -3.5t-3.5 -1.5
q-7 0 -11 5t-6 11.5t-2.5 14t-1.5 11.5q0 1 -0.5 7.5t-1.5 14t-1.5 14t-0.5 8.5v3q0 1 -0.5 2.5t0 3t1 2.5t2.5 1q3 0 4 -3q1 -15 3 -29t3 -28q0 -2 0.5 -5t0.5 -6t0.5 -5.5l0.5 -2.5q1 -4 3 -7t6 -3q2 0 2.5 1.5t0.5 3.5v4v2v7q0 1 -1 6t-1.5 11t-1.5 11t-1 7zM150 197h0.5
h0.5q0 -1 0.5 -1.5l0.5 -0.5q1 -1 3.5 -2l2.5 -1h22q3 0 3.5 1.5t0.5 2.5q0 3 -3 5t-5 2h-5h-8t-7.5 -1t-4.5 -4l-0.5 -0.5zM151 186q-2 0 -2 -1.5v-2.5t0.5 -2t2.5 -1h33l2 3v0q0 2 -2 3t-3 1t-3 0.5t-3.5 0.5h-3.5h-2h-4h-6t-5.5 -0.5t-3.5 -0.5zM152 168q0 -2 2.5 -4
t4.5 -2h21q1 0 3 1.5t2 2.5q1 2 -1 3.5t-4 1.5h-24q-2 0 -3 -0.5t-1 -2.5zM132 121v7q0 3 1 6t2.5 5t4.5 3q1 1 3.5 1.5t4.5 1.5t3.5 1.5l1.5 0.5h2h2.5h3.5h3h15.5t11 -3t7 -8.5t2.5 -16.5q0 -9 -2.5 -13t-6.5 -5.5t-10 -1.5h-13h-14t-11.5 1.5t-7.5 6.5t-3 14zM155 139v-2
q3 -3 5 -3.5t6 -0.5q1 0 2.5 0.5t3.5 1t3 1.5t1 3q0 1 -2 2t-4 1.5t-5 0.5h-2q-1 0 -3.5 -0.5t-3.5 -0.5t-1 -1v-2zM140 130l2 -2.5t5.5 -6t6.5 -7t4 -5.5l3 -3t4 -1q1 0 3 2.5t4 6t4 6.5t4 5q2 0 3.5 0.5t3.5 1t3 1.5t1 3q0 1 -1.5 3.5t-2.5 2.5v0q-3 -1 -5.5 -3l-5 -4
t-5.5 -3t-5 -1q-5 0 -7.5 2t-4.5 4l-4 4t-5 2q-2 0 -3.5 -3t-1.5 -5zM176 109q0 -2 0.5 -3t2.5 -1q1 0 3 0.5l4 1t3.5 2t1.5 3.5t-2 4l-2 2q-2 0 -4 -0.5t-3.5 -2t-2.5 -3.5t-1 -3zM140 114q0 -5 3.5 -6.5t7.5 -1.5q0 3 -1.5 7t-5.5 4q-2 0 -3 -0.5t-1 -2.5zM128 92
q0 2 1 2.5t2 0.5q11 0 18.5 -6t6.5 -19h12l4 3l3 14q0 2 2.5 3t5 1h5.5h5h7l1.5 -1t1.5 -2v0v-1q0 -1 -0.5 -2.5t-1.5 -1.5h-21q-1 0 -1 -2.5v-3.5q0 -4 3 -5.5t7.5 -2t8.5 0t6 0.5l-0.5 -3t-2.5 -3h-34q-1 0 -1.5 -1t-0.5 -2q0 -2 1 -3t2 -3q7 2 14 0t12 -7q2 -2 2 -5v-5
v-3t-0.5 -4t-1.5 -3t-3 -1t-2.5 0.5t-1.5 2.5q-1 4 -1.5 7.5t-1.5 6t-4 3.5t-7 1h-3t-2 -2v-25q0 -2 -1.5 -5t-3.5 -3t-3.5 2.5t-1.5 3.5v4v6v6v4q0 5 -1 7t-6 2q-4 0 -5 -3t-1 -7t-1 -7t-4 -3t-3 2v4q0 9 3 13t6.5 6t6.5 3t3 5v0q0 1 -0.5 2l-0.5 1h-29q-1 0 -6 -3
t-10 -6.5t-9 -6.5l-4 -3v-20q0 -2 -2 -2.5t-3 -0.5q-3 0 -4 2t-1 5q0 4 1 7.5t1 7.5q0 2 -2.5 4t-6.5 4t-8.5 5t-8.5 6t-6.5 6.5t-2.5 7.5q6 0 10.5 -3.5t9 -7.5t9 -7.5t10.5 -3.5q2 0 4 0.5t4 1.5l3 3t5 4t5 3.5t3 2.5t2 1.5l1 0.5h24q1 0 3 1t2 3q0 4 -3.5 6.5t-7.5 4
t-7 2.5t-3 3z" />
</svg>
