<?xml version="1.0" standalone="no"?>
<!DOCTYPE svg PUBLIC "-//W3C//DTD SVG 1.1//EN" "http://www.w3.org/Graphics/SVG/1.1/DTD/svg11.dtd" >
<svg xmlns="http://www.w3.org/2000/svg" xmlns:xlink="http://www.w3.org/1999/xlink" version="1.1" viewBox="-10 0 266 256">
   <path fill="currentColor"
d="M74 244q0 2 0.5 3.5t3.5 1.5t4.5 -3.5t2.5 -6.5q-1 -22 0 -44l2 -44v-4l1 -32q0 -1 1 -4t3 -3q5 0 7.5 4t3.5 7q2 14 2 30v30v38v2t-0.5 3.5l-1 3t-0.5 2.5v1q0 2 2 2h3q2 0 3 -1.5t1.5 -3.5t0.5 -4t1 -4v-7v-11v-11v-8v-18q0 -9 -0.5 -17.5t-1 -17.5t-2.5 -18
q-2 -4 -6 -5.5t-7 -3.5t-5 -4t-2 -7t1 -7.5t3.5 -3.5t6 -2t8.5 -2q2 -1 4 -6t2.5 -10.5t1 -10.5t0.5 -7v-5q0 -3 -0.5 -4t-3 -2.5t-3.5 -1.5t-2 1.5t-1 2.5v15.5t-2 17.5q-1 1 -4 2t-4 1t-3 -1t-2 -2q-1 -2 -1 -7t-0.5 -11t-0.5 -11.5v-7.5v-5t-1 -5.5t-3.5 -4t-6.5 -1.5h-1
q-2 0 -5 0.5t-6.5 0.5t-6 0.5l-2.5 0.5q-2 0 -4.5 1t-2.5 4q0 1 2.5 3.5t3.5 2.5h1l2 -0.5t4.5 -1t4.5 -1l2 -0.5h2h1q3 0 4.5 0.5t2.5 4.5v3.5v5.5q0 4 0.5 7t1.5 4v24q-7 0 -11 -2.5t-6 -7t-2.5 -9.5t-1 -9.5t-1.5 -7t-5 -2.5q-3 0 -3 1.5v3.5q0 3 0.5 9.5t2 13.5t4 12.5
t5.5 5.5h13q1 0 1.5 1.5t0.5 2.5v8v7q0 1 -0.5 1.5t-1.5 0.5q-7 2 -11 3.5t-6.5 4t-4.5 6t-5 10.5v10t-0.5 15t-0.5 15t-1 10q0 1 -0.5 5t-1 8.5t-1 8.5t-0.5 5v1v2q0 3 0.5 7.5t0.5 9t0.5 7.5l0.5 3l3 3l5 -4q0 -3 0.5 -10t0.5 -15t0.5 -15t0.5 -10q1 -15 2 -31.5t5 -30.5
q1 -4 4.5 -6.5t6.5 -3.5q4 2 4 6v7q0 5 -0.5 8.5t-1.5 9.5q1 26 -1.5 52t-2.5 53v0zM132 182q-2 2 -3 6t-1 8t0.5 8.5t0.5 7.5q0 1 -0.5 3t-0.5 5t-0.5 5t-0.5 3v3.5v5v5.5v3q7 0 10 -6q0 -2 0.5 -7.5t1 -12.5t1 -14.5t0.5 -14t0.5 -12t0.5 -7.5t-0.5 -5.5t-0.5 -6.5
q0 -4 0.5 -7.5t1.5 -6.5v-53q1 -1 1.5 -4t0.5 -4q0 -2 0.5 -6.5t0.5 -9.5t0.5 -9.5t0.5 -6.5l1 -0.5t2 -0.5t4 -1t6 -1.5t5.5 -1t3.5 -0.5h6t10.5 -0.5t10 -0.5h6.5l4 -2t2 -3t-2 -2.5l-4 -1t-4 0t-3 0.5h-5.5t-11 0.5t-14 1.5t-13.5 2t-10 2.5t-4 2.5v44l-2 3
q1 22 -0.5 43.5t-1.5 44.5zM156 95v12l0.5 2.5t0.5 3.5q1 6 1.5 12t2.5 10.5t6.5 7t13.5 2.5t14 -2.5t10 -8.5v-18q0 -6 0.5 -13t-0.5 -13.5t-5 -10.5t-13 -4q-7 0 -13 0.5t-13 2.5q-4 2 -5 6v11zM166 106v-17q1 -2 3 -3t4.5 -1.5t4.5 -0.5h5q6 0 8.5 3t3.5 7.5t0.5 10
t-0.5 9.5v9t-1.5 6.5t-4.5 4t-9 1.5q-7 0 -10 -2.5t-4 -6.5t-0.5 -9.5t0.5 -10.5z" />
</svg>
