<?xml version="1.0" standalone="no"?>
<!DOCTYPE svg PUBLIC "-//W3C//DTD SVG 1.1//EN" "http://www.w3.org/Graphics/SVG/1.1/DTD/svg11.dtd" >
<svg xmlns="http://www.w3.org/2000/svg" xmlns:xlink="http://www.w3.org/1999/xlink" version="1.1" viewBox="-10 0 266 256">
   <path fill="currentColor"
d="M195 248l1 1l2 2q1 0 2.5 -1.5t2.5 -3.5t1.5 -4t0.5 -3q0 -6 -1 -12.5t-2 -12.5q-1 -11 -1.5 -23t-0.5 -23v-5q-3 -26 -3 -53t-1 -53q0 -8 -1 -12t-4 -6t-8 -2.5t-13 -1.5q-4 0 -8 -0.5t-8.5 -1t-8.5 -2t-8 -3.5v-3.5t-1 -5.5t-2 -5t-3 -2q-4 0 -5.5 1.5t-2 4t0 5
t0.5 5.5q-1 2 -3.5 3t-5.5 1.5t-6 0t-5 -0.5q-14 1 -22.5 3t-12.5 7t-5.5 14t-1.5 23v7v13v13v7q0 4 -0.5 11.5t-1 17t-1 20t-0.5 20t-0.5 17t-0.5 11.5q-2 5 -3.5 10t-1.5 10q0 3 0.5 3.5t3.5 0.5t5 -3.5t3.5 -9.5t2.5 -13t1 -14t0.5 -12.5t0.5 -8.5v-6v-12v-14.5
t0.5 -14.5t0.5 -12v-6v-9v-12v-13v-8q0 -1 0.5 -1.5t1.5 -0.5q7 -2 14 -3t14 -6q3 -2 5 -5.5t3.5 -7t3.5 -6.5t6 -4h11h3.5h5.5t5.5 0.5t3.5 2.5q1 4 1.5 8t2.5 7t4.5 5t8.5 2h19q1 0 2 1.5t1 2.5v37q1 1 1.5 3.5t0.5 3.5v5v8v8v5q0 14 1 28t2.5 27.5t2 27.5t0.5 28z
M162 229q1 3 4 3q2 0 3 -1t1 -3t0.5 -3.5t0.5 -2.5q0 -6 -1 -13t-1 -12q0 -4 -1 -10.5t-1.5 -13t-1 -11l-0.5 -4.5l-5 -11q-1 -1 -3 -1.5t-5.5 -1t-6.5 -0.5h-5t-3.5 1t-2.5 1q-2 0 -3 -1.5t-1.5 -3t-1 -3.5t-0.5 -3q0 -3 0.5 -5t2.5 -3q1 0 3 -0.5l4 -1l4 -1t3 -0.5
t2.5 -0.5t2.5 -0.5v-1v-1q-1 -2 -2 -2h-17q-1 0 -1 -1v-2q0 -3 1 -5t5 -2q7 0 12 2.5t8.5 6t6 8.5t4.5 11q2 3 3 5.5t4 4.5q3 -1 3 -6q0 -1 -2 -6t-5 -11t-6 -11t-4 -5q-3 -1 -7.5 -1.5l-9 -1t-7.5 -2.5t-3 -5v-3q0 -1 1 -2q4 0 7.5 -0.5t7 -2t5.5 -3.5t2 -6q0 -6 -3.5 -9.5
t-8 -4.5t-10.5 -1h-12h-3h-4t-3.5 1t-1.5 3q0 1 0.5 2t1.5 1h5.5h8.5h9h5q3 0 6.5 1.5t3.5 4.5v1q-1 1 -1.5 2.5t-0.5 2.5q-10 0 -14.5 3t-6.5 6t-3.5 6t-4.5 4l-2 -1t-4.5 -1.5t-4.5 -0.5t-2 -1q-4 -1 -5 -5t-1.5 -8t-1 -7.5t-2.5 -3.5h-1l-1.5 1t-1.5 2v2v3q0 5 0.5 8.5
t2.5 9.5q3 2 7.5 3.5t8.5 2.5t7 3t3 6t-3.5 6.5t-8.5 4t-10 2.5t-8 3q-1 0 -2.5 1l-3 2t-2.5 1.5t-1 1.5v3q4 0 8 -1.5t8.5 -3.5l9 -4t7.5 -2q5 0 6 4t1 8q-1 3 -5 3.5t-8.5 1.5t-8 3.5t-3.5 8.5q0 2 -0.5 5t-1 7t-0.5 7v5v21v22l2 2v0h1l1 -0.5t1 -1.5l2 -3v-39l1.5 -1
t2.5 -2q2 -2 5 -4.5t6.5 -5t6.5 -4.5t7 -2q5 0 9.5 4t4.5 10v2q0 2 -0.5 4.5t-1.5 2.5h-18h-0.5t-0.5 -1q-1 -1 -2 -2.5l-1 -1.5q0 -1 -0.5 -1.5t-1.5 -0.5l-3 3v1.5t-0.5 3.5t-0.5 4v3l-0.5 2.5t-0.5 3.5q0 2 1.5 4.5t3.5 5t4.5 3.5t5.5 1h1h3t4 -0.5t4 -0.5h2
q4 -3 4.5 -8.5l1 -11t1.5 -10t4 -4.5q2 0 3.5 2t2.5 4q1 5 1.5 10.5t0.5 11.5v10v9zM124 201v-2v-2q3 -1 5.5 -1.5t5.5 -0.5h5q2 2 2 3.5v3.5q0 5 -3.5 6t-7.5 1q-5 0 -6 -2t-1 -6zM103 171q0 -10 4 -15t15 -5q3 0 3 2v5q0 2 0.5 3t-1.5 2q-1 1 -3.5 3l-5 4t-4.5 3.5l-2 1.5
q-1 0 -2 0.5l-1 0.5h-1q-2 0 -2 -2v-3zM135 152h17q1 0 2 1.5t1.5 3.5t1 3.5l0.5 1.5v2.5v3.5v3v3h-5l-1.5 -1.5t-4 -3.5t-4.5 -4l-3 -3q-2 -2 -3 -5t-1 -5zM74 58q0 -4 2 -7.5t5 -5.5t7 -3t9 -1q3 0 4.5 0.5t1.5 3.5q0 5 -3 8t-7 5.5t-8.5 3.5t-7.5 1q-2 0 -2.5 -1t-0.5 -4
zM155 46q0 -2 0.5 -3t1.5 -2h5h7.5t8 1t6 3.5t2.5 7.5v2q0 2 -2 2h-3.5h-3.5h-6.5t-7 -1t-6 -3.5t-2.5 -6.5z" />
</svg>
