<?xml version="1.0" standalone="no"?>
<!DOCTYPE svg PUBLIC "-//W3C//DTD SVG 1.1//EN" "http://www.w3.org/Graphics/SVG/1.1/DTD/svg11.dtd" >
<svg xmlns="http://www.w3.org/2000/svg" xmlns:xlink="http://www.w3.org/1999/xlink" version="1.1" viewBox="-10 0 266 256">
   <path fill="currentColor"
d="M157 164v81q0 1 2 2.5t3 2.5q2 0 3 -2t1.5 -5l1 -6t0.5 -4q0 -11 -2 -22t-2 -23q0 -5 0.5 -8.5t1.5 -8.5q0 -1 3.5 -2t8 -2.5l9 -3t5.5 -2.5q1 0 3 -1.5t4 -4t3.5 -5t1.5 -4.5q0 -3 -3 -3t-5 2l-5 5t-7 5.5t-11 2.5q0 -7 3 -10.5t7 -7t7 -7t3 -9.5q-6 0 -11 5t-8.5 11
t-7 10.5t-6.5 4.5q-2 0 -3.5 -0.5t-1.5 -2.5v-11l11 -12v0v0v-1q0 -1 -1.5 -2l-1.5 -1h-1q-2 0 -4.5 3t-5 7.5t-4.5 8.5t-2 6v1q1 2 2.5 4l3 4t3 3.5t2.5 1.5zM122 225q0 2 1 3.5t3 1.5t4 -1t2 -4v-70q3 -9 3 -15t0.5 -10t4 -7.5t14.5 -8.5q12 -6 15 -16t2 -24l2.5 -1
t6.5 -2t7 -2.5t5 -3.5q0 -2 -2.5 -1.5t-3.5 0.5h-9.5t-10.5 0.5l-10 1t-8 1.5q-1 0 -1.5 0.5l-0.5 0.5q0 1 -0.5 2.5l-0.5 1.5h15l3 4v3v4q0 11 -3 16t-7.5 7.5t-10 5t-10.5 8.5q-3 5 -4.5 10.5t-2 11t-0.5 10.5v11q0 2 -0.5 7t-0.5 10q0 6 0.5 11t0.5 7q-3 6 -3 13.5v13.5z
M50 170v2t1 2h7q13 0 27.5 -2t26.5 -3q1 0 1.5 -1.5l0.5 -1.5v-1q0 -2 -2 -2t-4.5 -0.5t-4 -1t-1.5 -4.5q0 -13 1 -26l2 -26q0 -10 -0.5 -20t3.5 -20h1v0q1 0 2 0.5l2 1t2.5 1l1.5 0.5h0.5h0.5q2 0 2 -1v-3q0 -3 -3 -5.5t-7 -4.5t-8.5 -4t-6.5 -5q1 -1 1 -4t-0.5 -6t-2 -5.5
t-4.5 -2.5q-6 0 -6 5q0 4 1 6.5t1 5.5q0 5 -2.5 7t-5.5 2.5t-5.5 1t-3.5 2.5l-15 5q-1 0 -1.5 1.5l-0.5 1.5v4v4q3 0 5 -1t3.5 -2.5t3 -2t4.5 -0.5q2 0 3 2t1 4q0 1 -0.5 4t-0.5 4v1q0 3 0.5 5.5t0.5 5.5q0 19 -0.5 36.5t-0.5 35.5h-19q-1 0 -1 2v3zM77 157v-2
q0 -1 0.5 -3.5t1.5 -3.5v-67q0 -7 0.5 -12t3.5 -10l2 -2t2 -1h10l2 1v4v4v11.5t-2 10.5l-3 76l-1 0.5t-2 0.5h-5h-6q-2 -1 -2.5 -3t-0.5 -4zM176 96q0 3 4 3q14 0 20 -8t6 -22v-8t-0.5 -10t-3 -9t-7.5 -4q-1 0 -4 -0.5t-6 -0.5t-6 -0.5t-4 -0.5l-2 -3v-22q-1 0 -4.5 0.5
l-3.5 0.5q-1 0 -1.5 0.5l-0.5 0.5v25q0 2 -5 2t-11 1.5t-11 7t-5 18.5v3v3.5t0.5 5t0.5 5v3.5q2 3 6.5 5t8.5 2h4t3 -2t-2.5 -3t-5.5 -3t-5.5 -6.5t-2.5 -13.5q0 -7 3 -11t7.5 -6.5t10.5 -3t12 -0.5h12t8.5 2t5 6t1.5 13q0 11 -3.5 16.5t-7.5 7.5t-7.5 3t-3.5 3z" />
</svg>
