<?xml version="1.0" standalone="no"?>
<!DOCTYPE svg PUBLIC "-//W3C//DTD SVG 1.1//EN" "http://www.w3.org/Graphics/SVG/1.1/DTD/svg11.dtd" >
<svg xmlns="http://www.w3.org/2000/svg" xmlns:xlink="http://www.w3.org/1999/xlink" version="1.1" viewBox="-10 0 266 256">
   <path fill="currentColor"
d="M54 181v6.5v8.5v8v3q0 12 1.5 18.5t5.5 10t11 6t17 4.5q15 3 29.5 4t29.5 1h10q4 0 8.5 -0.5t9 -0.5t10.5 -1q1 0 2 -1l2 -2v-1v-1q-1 0 -2 -1l-2 -2h-5.5h-8.5h-9h-6q-1 0 -4 -0.5t-4 -1.5v-10v-6t0.5 -7.5l1 -7t2.5 -5.5q2 -5 6.5 -7.5t9 -3.5t9.5 -2.5t8.5 -4.5t6 -8
t2.5 -14t-3 -14.5t-6.5 -8t-8.5 -3.5l-10 -2t-9.5 -2.5t-6.5 -5.5q-1 -6 -1.5 -10t-0.5 -10v-1v-2t0.5 -2t1.5 -1q10 0 23 -1t24 0q1 -1 1 -1.5v-1.5v-3t-1 -2t-5 -1.5t-5 -0.5h-1q-30 0 -60 1t-60 6q-4 1 -6 7t-3 13.5t-1.5 14.5t-0.5 10q-1 0 -1 2t-0.5 4t-0.5 4v2v4v7v9
v7zM105 225v-28q0 -12 1 -23.5t2 -23.5t1.5 -23.5t-0.5 -23.5l3 -3h26l3 1q0 6 -0.5 10t0 8t1.5 7.5t2 8.5q1 3 7.5 4.5t13.5 3t12.5 4t5.5 7.5v18q0 1 -1 2.5t-2 2.5t-4.5 2.5l-7 3t-6.5 3l-5 2.5q-5 3 -9 6t-5 10l-5 35l-2 2h-1.5h-2.5h-11t-8 -1.5t-5 -5t-3 -9.5zM63 195
q0 -1 0.5 -1.5l0.5 -0.5q0 -1 0.5 -3.5t0.5 -3.5q0 -3 0.5 -11t1 -17.5t1 -17.5t0.5 -11q0 -1 0.5 -3t1 -5l1 -6t1.5 -4q0 -4 2.5 -6t6 -3t7 -1h7.5l1 0.5t1 1.5t0.5 4t0.5 6v5.5v3.5q0 14 -1 28t-1.5 28t-1 28.5t-0.5 28.5q0 1 -2 1h-2q-10 0 -15 -3.5t-7.5 -9.5
t-3.5 -13.5t-1 -14.5zM84 52v0q1 0 2 0.5l1 0.5v31q6 0 7 -7q0 -1 0.5 -4.5t0.5 -7t0.5 -7t0.5 -5.5q1 -1 1.5 -1h1.5q3 0 5.5 2t4.5 5t4.5 5t5.5 2q4 0 4.5 -2.5t0.5 -4.5q0 -1 -0.5 -2.5l-0.5 -1.5q-2 -1 -6.5 -3.5t-9 -6t-8 -7t-3.5 -6.5l0.5 -1t0.5 -2.5v-2.5v-2
q1 0 1 -1v-2q0 -6 -7 -6h-3q-1 0 -2 1q1 11 -0.5 17.5t-4.5 10t-7 5t-8.5 3.5t-8 5t-5.5 9v1q0 2 2 2h3h4t4 -1l3 -3l4.5 -4.5l4.5 -4.5l3 -3l1 -0.5t2 -0.5h1zM159 73q0 1 -0.5 2.5t0 3t1.5 3t2 1.5q2 0 3.5 -2t2 -4t0.5 -4t1 -4v-3t0.5 -4.5t0.5 -5v-3.5q1 -1 3 -1h2
q6 0 11.5 4.5t9.5 8.5h2h1q3 0 4.5 -1t1.5 -4t-5.5 -7t-11.5 -7.5t-11 -7t-5 -6.5v-17q0 -2 -3 -2h-2q-3 0 -4.5 3t-2 6.5t0 7t0.5 4.5q-5 6 -11.5 10t-11.5 9l-2.5 2.5t-2.5 3.5t-2 3l-1 1v6q5 0 8 -3t5.5 -6.5t5.5 -6.5t8 -3q3 0 3.5 1.5t0.5 4.5q0 4 -1 8t-1 9z" />
</svg>
