<?xml version="1.0" standalone="no"?>
<!DOCTYPE svg PUBLIC "-//W3C//DTD SVG 1.1//EN" "http://www.w3.org/Graphics/SVG/1.1/DTD/svg11.dtd" >
<svg xmlns="http://www.w3.org/2000/svg" xmlns:xlink="http://www.w3.org/1999/xlink" version="1.1" viewBox="-10 0 266 256">
   <path fill="currentColor"
d="M83 245v3q3 -1 4.5 -3t2.5 -4.5t1 -5.5v-6v-101q0 -3 0.5 -8.5t0.5 -10.5t0.5 -9l0.5 -4l1 -2h2t4 -0.5t4 -0.5h3h5.5h7t6 -1.5t2.5 -5.5q0 -2 -1 -3.5t-3 -1.5q-3 0 -6 0.5t-6.5 1t-6.5 1.5l-6 2q-6 -3 -6 -9q0 -14 1.5 -27t1.5 -27v-8q0 -1 -2 -2t-3 -1h-1v0q-1 0 -2 1
t-1 2q-1 8 -2 16.5t-1.5 17t-0.5 17.5v17l-1 2h-30q-2 0 -4.5 2t-2.5 4q0 1 0.5 2t1.5 1h7q5 0 10.5 -0.5t10.5 -0.5q4 0 6 1.5t2 6.5q0 15 -1 30t-1 31v6q0 19 -1 36.5t-1 34.5q0 5 0.5 5.5t3.5 0.5zM47 224q0 5 4 5t7 -7t5 -18t3.5 -24t2 -25t0.5 -21v-12v-2v-3.5v-3.5v-2
l-1 -2.5t-2 -2.5q-2 0 -4 2t-2 3q0 14 -2 26t-3 25q-1 16 -3 30.5t-5 29.5v1v1zM110 222q1 3 2.5 3.5t3.5 0.5q4 0 5 -3.5t1 -6.5q0 -13 -3 -25.5t-4 -25.5v-5v-10v-10v-5v-5t-0.5 -6.5t-0.5 -6.5v-4q-1 -4 -2.5 -4.5t-3.5 -0.5q-4 0 -4 3v6q0 23 2 46l4 46q0 1 0.5 3t0.5 4
t-0.5 4zM124 151q0 1 1.5 1.5t3.5 1t3.5 1l1.5 0.5q2 0 5.5 -0.5t8 -0.5t8.5 -0.5t5 -0.5h1q2 0 4 1t5 1q4 0 7 -1.5t6 -1.5t6 0.5t5 0.5h5t5.5 -0.5t4.5 -1.5t2 -4t-2 -4.5t-5 -1.5t-5.5 0.5t-3.5 0.5t-3.5 -0.5l-5 -1t-5 -0.5h-3.5v-57q0 -1 0.5 -2t0.5 -2l1 -0.5l1 -0.5
l24 -4q3 0 4 -3t1 -6q-17 0 -36 0.5t-36 1.5q-3 1 -3.5 3t-0.5 4q0 3 1 4t4 1q4 0 8 -1t8 -1h4q3 0 3 1l3 3v59l-3 3l-2.5 0.5t-5.5 0.5t-6 0.5t-5 0.5q-1 0 -4.5 -0.5t-6.5 0t-6 1.5t-3 5zM58 35v9t1 14.5t2.5 13.5t3.5 6t3.5 -1.5t2 -3t0.5 -3.5v-4v-9q0 -6 -0.5 -12.5
t-2.5 -11.5t-5 -5q-4 0 -4.5 2t-0.5 5zM109 69v5q0 2 1 4q6 -2 8.5 -7.5t3.5 -12.5t1 -14v-11v-6q0 -2 -2 -2h-3q-2 0 -3.5 0.5t-2.5 3.5q-1 9 -2 19.5t-1 20.5z" />
</svg>
