<?xml version="1.0" standalone="no"?>
<!DOCTYPE svg PUBLIC "-//W3C//DTD SVG 1.1//EN" "http://www.w3.org/Graphics/SVG/1.1/DTD/svg11.dtd" >
<svg xmlns="http://www.w3.org/2000/svg" xmlns:xlink="http://www.w3.org/1999/xlink" version="1.1" viewBox="-10 0 266 256">
   <path fill="currentColor"
d="M112 246q0 2 1.5 2.5t3.5 0.5l1 -0.5l1 -0.5q1 0 2.5 -3t0.5 -4q0 -3 0.5 -9.5t0.5 -13.5t0.5 -13.5t0.5 -9.5v-2q0 -21 -1 -41.5t-1 -40.5v-6v-7.5v-6.5v-2q0 -2 1 -7.5t1.5 -11.5t1 -11t1.5 -7q2 -6 7.5 -8.5t12 -4t13.5 -2t11 -0.5q2 0 6.5 -0.5t9 -0.5h9h6.5l1.5 -3
t0.5 -2q0 -6 -6 -6q-4 0 -7.5 1t-6.5 1h-4q-2 0 -4 -0.5t-4 -0.5t-2 -1l-6 -12l-1.5 -0.5l-1.5 -0.5q-3 0 -3 2.5v6t-0.5 6.5t-4.5 4l-3 1t-6 1.5l-6 1t-4 1.5q-7 2 -11 9t-5.5 16t-1.5 18.5v15.5l-1 3l1 25v4v83q0 3 -1 7.5t-1.5 9.5l-1 10t-0.5 9zM171 137v1q0 5 0.5 13.5
t1 16.5t1 14.5l0.5 6.5q0 3 0.5 8t0.5 10.5t0.5 12t1 11.5t1.5 8.5t2 3.5q4 0 5 -3.5t1 -6.5q0 -8 -1.5 -16t-1.5 -16v-2.5v-3.5l1 -1l2 -2v0h1q2 0 4 2.5t2 5.5v35q0 1 2.5 2l2.5 1v0q2 0 3 -1.5t2 -3.5t1.5 -4t0.5 -3l-4 -35l-2 -5h-2.5h-4t-4 -0.5t-2.5 -0.5l-4.5 -1.5
t-1.5 -2.5t0.5 -4t2.5 -2h16l0.5 -0.5l1.5 -1.5v-3v-3h-17q-1 0 -2 -1.5t-1.5 -3.5t0 -3.5t0.5 -3.5q2 0 3.5 1t3.5 1h5.5t4.5 -1t3 -3t1 -5v-3v-3.5t-1 -3t-2 -1.5q-3 0 -3.5 2t-1.5 4.5t-2.5 4.5t-5.5 2q-3 0 -4 -2.5t-1.5 -5.5t-1.5 -5.5t-4 -2.5h-1q0 1 -1.5 1.5
l-1.5 0.5v1zM78 235q0 2 1.5 3.5t3.5 1.5q3 0 4.5 -1.5t2.5 -3.5t1 -4.5v-4.5q0 -9 -1 -18.5t-2 -18.5q0 -18 -0.5 -37t-0.5 -37v-28q0 -1 1 -2t2 -1.5t2 -0.5h2t2.5 -0.5t3.5 -0.5h3.5h2.5q2 -2 2.5 -3t0.5 -3q0 -1 -0.5 -2t-2.5 -1h-1.5t-3 0.5t-2.5 0.5h-2h-2h-2h-2.5
t-2.5 -0.5l-1 -0.5v-55q0 -1 -1.5 -3t-2.5 -2q-3 0 -3 3.5t-1 5.5v5v8.5t-0.5 8.5t-0.5 5v4.5v7.5v6.5v5.5l-1 3h-24l-1.5 1.5t-1.5 2.5v1v1l1 1t2 1h24l1 1.5l1 1.5q1 0 1 1v0q0 4 -1 8t-1 9v9.5t1 9.5v61q2 5 2 12v11v4v4.5v5.5v3q-1 1 -2 4.5t-1 4.5v0.5v0.5zM150 195
h2.5t2.5 2v40l1 0.5t2 0.5v0q2 0 4 -1t2 -3q0 -7 -0.5 -15l-1 -16l-1 -16t-0.5 -15v-6.5t-0.5 -10t-1 -10t-0.5 -6.5l-1 -1l-2 -2v0h-1q-1 0 -1.5 0.5t-0.5 1.5v16h-10q-2 0 -2.5 -2.5t-0.5 -5.5t-1.5 -5t-3.5 -2h-0.5h-0.5l-0.5 1t-0.5 2v1q0 7 0.5 10.5t3 5.5t6.5 2.5
t10 1.5q2 0 2 1v1q0 2 -1 4t-2 3h-3.5t-5 0.5l-5 1l-2.5 0.5q-2 1 -3 2t-1 3h21v9l-2 0.5l-4 1l-4 1t-3 0.5q-4 1 -4 2.5v6.5l-0.5 4t-1 8.5t-1 9.5t-0.5 7v1q0 1 0.5 2.5t2.5 2.5q4 0 4.5 -3.5t1.5 -6.5v-4.5v-6.5v-7v-4q1 -5 2 -6.5t6 -1.5zM56 210q0 1 0.5 2t2.5 1
q3 0 4.5 -5t2 -12t0.5 -13.5v-9.5v-3v-5v-5v-3q0 -2 0.5 -6.5t0.5 -10t0.5 -10t0.5 -6.5v-2v-3v-4v-3v-3v-3.5v-3.5v-3q0 -2 -1 -2.5t-2 -0.5h-2t-1 2q-2 3 -2 7.5v9.5v8v7v7.5t-0.5 12.5t-0.5 13v7v3v4v4v2q-1 6 -2 13t-1 14zM102 208l1 2h1h1l0.5 -0.5t0.5 -1.5v-2v-5v-4
v-3q0 -22 -0.5 -43.5t-0.5 -42.5q-1 -1 -1.5 -4.5t-0.5 -4.5h-1v0q-1 0 -2 0.5t-1 1.5q-2 7 -2 13v14q0 20 1.5 40.5t3.5 39.5zM182 107v1v3.5t0.5 5t0.5 4.5v3l1 0.5l1 0.5q5 0 5 -7v-2t-0.5 -4t-0.5 -3.5v-1.5v-2v-4v-4v-4v-2v-4v-4v-3q5 -1 8.5 -2.5t4.5 -6.5
q0 -1 0.5 -3t0.5 -4t0.5 -4l0.5 -2q-1 -6 -6 -6h-0.5h-1.5v2.5t-0.5 3t-0.5 3.5v3t-1 3.5t-3 2.5v0q-1 0 -1 -1l-1.5 -1l-1.5 -1v-18q0 -1 -0.5 -2l-0.5 -1h-1h-1l-0.5 0.5l-0.5 0.5q-1 3 -2 5.5t-1.5 5.5t-0.5 5t-1 4l-1 1q-1 -1 -1.5 -3t-0.5 -4.5t-1 -4t-2 -1.5
q-3 0 -3.5 3t-0.5 4v2v1q2 7 3.5 9t3 2.5t3.5 1t4 4.5v2t0.5 4t0.5 4v3v2q0 3 -0.5 5.5t-0.5 4.5zM130 118q0 1 1 3t2 2h1v0l2 -2l1 -1q0 -2 0.5 -5.5t0.5 -7.5v-7.5v-4.5l0.5 -1t0.5 -2t-0.5 -2t-2.5 -1q-1 0 -2 4t-2 9.5t-1.5 10.5zM131 59q0 4 1.5 9t3.5 9q0 1 2 2t3.5 2
t3 1.5t1.5 1.5v36q0 2 0.5 2.5t2.5 0.5q1 0 2 -0.5t1 -1.5v-32q0 -4 2 -6.5t4 -4.5t4 -6t2 -10v-4.5t-3 -2.5q-1 1 -1.5 3.5t-1 4.5t-1.5 3.5t-2 2.5q-2 -1 -2 -5v-8q0 -5 -0.5 -8.5t-2.5 -3.5h-1l-1.5 7.5t-0.5 5.5t0.5 6t0.5 8h-8l-4 -16l-2 -2q-2 1 -2.5 2.5t-0.5 3.5z
M169 118l0.5 1.5t1.5 1.5q3 0 4.5 -2.5t1.5 -5.5v-6.5v-5.5v-2q0 -2 -0.5 -3.5t-1 -2.5t-2.5 -1l-1 3.5t-1.5 8l-1 9t-0.5 5.5zM156 115q0 3 1 3.5t3 0.5l2 -0.5t2 -1.5v-27q0 -1 -1.5 -1h-1.5h-2t-1 1v4v7v6v4l-1 2zM201 83q-1 0 -3 0.5l-2 0.5v33q0 1 1.5 1h1.5
q3 0 4.5 -3t1.5 -5v-2v-1q0 -2 -0.5 -5t-1 -6.5t-1 -6.5t-0.5 -5l-0.5 -0.5zM57 31q0 9 2 17.5t4 16.5h1h1h1.5t1.5 -1v-4v-4v-7t-1 -8t-3.5 -7t-6.5 -3zM102 24q-2 10 -5 20.5t-3 21.5q2 0 4 -1t2 -3l9 -26v-11l-1 -1q-1 -1 -2 -1.5l-1 -0.5q-1 0 -2 0.5t-1 1.5z" />
</svg>
