<?xml version="1.0" standalone="no"?>
<!DOCTYPE svg PUBLIC "-//W3C//DTD SVG 1.1//EN" "http://www.w3.org/Graphics/SVG/1.1/DTD/svg11.dtd" >
<svg xmlns="http://www.w3.org/2000/svg" xmlns:xlink="http://www.w3.org/1999/xlink" version="1.1" viewBox="-10 0 266 256">
   <path fill="currentColor"
d="M82 250q1 2 3 2t3 -2t1.5 -4t0.5 -4v-3q0 -21 -1.5 -42t-3.5 -42q-1 -4 0.5 -4.5t3.5 -0.5q5 0 8 7t4 16t1.5 17.5t0.5 11.5v7.5t0.5 12t0.5 12v8.5q1 1 2.5 1.5t2.5 0.5q4 0 4 -5v0q-1 -4 -1.5 -13t-1.5 -19.5t-1.5 -19.5t-0.5 -13q-1 -3 -1.5 -7t-1.5 -8t-2 -7.5
t-3 -6.5q-2 -2 -4.5 -2.5t-4.5 -1t-3 -2t-1 -5.5v-2.5v-2.5q5 -3 8.5 -4t6 -2.5t3.5 -5t1 -12.5v-8q-2 -2 -5.5 -4t-7 -3t-6 -2.5t-2.5 -3.5q0 -4 1.5 -6t3.5 -3t4.5 -2t5 -3t4 -6t1.5 -11v-5q0 -3 -1 -4q-1 -3 -3.5 -5t-5 -3l-5 -2t-2.5 -3v-21q0 -1 -1.5 -1.5t-2.5 -0.5
q-3 0 -5 3.5t-2 6.5v4v6v5.5v3.5q-2 2 -4.5 2.5l-5 1t-5 1.5t-4.5 3v9q0 8 2.5 12t6 6t6.5 4t3 7t-2.5 6.5t-5.5 3t-5.5 2.5t-2.5 4v19q0 3 2.5 5t5.5 3t5.5 2l2.5 1v11q0 1 -2.5 2.5t-4.5 3.5t-4.5 3.5t-3.5 3.5q-2 19 -4 37.5t-4 36.5v3v3q0 3 0.5 7t5.5 4q3 0 4 -2.5
t1 -6.5l5 -77q0 -2 1.5 -3t3.5 -2q2 2 3 9t1.5 16t1 20t0.5 21t0.5 18.5t1.5 12.5zM162 89v5q0 1 0.5 6t1 10.5t0.5 10.5v6q1 7 1 13.5t2 12.5q2 5 6 8.5t8.5 7t8 7t3.5 6.5v61q0 2 2 3t3 1q2 0 3.5 -1.5t1.5 -3.5v-47q-2 -5 -2.5 -17t-0.5 -27v-30.5t-0.5 -29t-2 -22.5
t-4.5 -11q-6 -3 -12.5 -4t-13.5 -2q-1 -2 -1 -3.5v-2.5q0 -3 0.5 -5.5t0.5 -5.5v-2q0 -1 -0.5 -4t-1 -5.5t-0.5 -5t-1 -3.5q0 -1 -2 -2t-3 -1h-1v0q-1 0 -2 0.5l-1 0.5v39q0 1 -4 2.5t-9 3l-10 3t-7 4.5q-1 2 -2 5.5t-1.5 7t-0.5 7v5.5v11q0 8 -0.5 16.5t-0.5 16.5v10
q0 25 0.5 48.5t1.5 47.5q0 2 1 3t2 1q3 0 5 -3t2 -6v-13q0 -6 -1 -11t-1 -11q0 -7 3.5 -12.5t7.5 -10.5t8 -10.5t4 -13.5v-24q0 -14 -1 -28t-1 -28q0 -3 1.5 -6.5t5.5 -3.5q3 0 4 0.5t2 2.5v7q0 4 -1 8t-1 8zM129 166q0 -3 0.5 -6.5t0.5 -6.5q0 -6 -0.5 -11t-0.5 -10
q0 -8 0.5 -15.5t0.5 -14.5v-13q-1 -3 -1 -5v-5v-3v-1q0 -1 1 -2.5t2.5 -2.5t2.5 -2l2 -2v0q2 0 2.5 1t1 2.5l1 3t0.5 2.5q0 7 0.5 13t0.5 11.5v11.5v13q0 5 0.5 12t-0.5 14t-3.5 13t-7.5 10q-3 -1 -3 -2.5v-4.5zM181 65q2 0 3.5 1t2.5 3q1 19 2 37.5t1 36.5v14q-1 1 -1.5 3
t-2.5 2l-1 -1l-0.5 -0.5t-1.5 -0.5q-2 -4 -3.5 -7.5l-3 -7t-2 -7.5t-0.5 -9v-56q0 -3 2 -5.5t5 -2.5zM86 98q1 0 4.5 0.5t4.5 0.5q1 1 1.5 3t0.5 4q0 8 -3 11t-11 3q-1 0 -3 -0.5t-4.5 -1t-4.5 -1.5t-2 -2v-12q0 -2 2.5 -3t5.5 -1.5t6 -0.5h3zM69 57q0 -9 5 -11t12 -2h4t3 1
v4v4q0 6 -1.5 9.5t-8.5 3.5q-5 0 -9.5 -1.5t-4.5 -7.5z" />
</svg>
