<?xml version="1.0" standalone="no"?>
<!DOCTYPE svg PUBLIC "-//W3C//DTD SVG 1.1//EN" "http://www.w3.org/Graphics/SVG/1.1/DTD/svg11.dtd" >
<svg xmlns="http://www.w3.org/2000/svg" xmlns:xlink="http://www.w3.org/1999/xlink" version="1.1" viewBox="-10 0 266 256">
   <path fill="currentColor"
d="M87 250q1 1 2 1.5t2 0.5q4 0 4 -4q0 -12 -1.5 -23.5t-1.5 -23.5v-5v-6v-5v-3v-10.5t0.5 -15.5t0.5 -16t1 -11l0.5 -2.5t0.5 -3.5t1 -6t1.5 -11t0.5 -11t1 -6q0 -5 1.5 -10t1.5 -11v-2v-3q-1 -1 -2.5 -3t-3.5 -4.5t-3.5 -5t-2.5 -3.5l-2 -1.5l-2 -1.5q-3 -2 -5.5 -7.5
t-5 -11.5t-4.5 -10.5t-4 -4.5q-5 0 -5.5 2.5t-0.5 5.5q0 4 1 6.5t3 5t3 5t1 6.5q0 8 -2.5 16t-3.5 16q-4 16 -4 32.5t-1 33.5q-2 20 -3.5 39t-1.5 39v19q0 1 1.5 1h2.5q2 0 3 -1l3 -3q0 -2 -0.5 -5.5t-0.5 -7.5t0.5 -7t0.5 -5v-2t0.5 -3.5t0.5 -3.5v-2q1 -17 0.5 -34
t3.5 -34l0.5 -2l0.5 -2q1 -9 1.5 -18l1 -18t2.5 -18t5 -17v0h1q3 0 5.5 2t4 5t2 6t0.5 6v5l-8 71q1 7 -2 14v5v8v7v5v7v7v8v3q0 2 0.5 7.5t1.5 11.5t2 11t1 7zM146 204v43q0 3 1.5 3h3.5h1h2t2 -0.5t1 -1.5v-44q0 -2 1 -2.5l2 -1t3 -0.5h1q7 0 10 3.5t4 8.5t0.5 11
t-0.5 11.5t1 9t5 3.5q2 0 4 -3t2 -5v-20.5t-3 -14.5t-9 -9t-19 -3q-1 0 -1.5 -1t-0.5 -2q0 -4 3.5 -5t7.5 -2.5t7.5 -5t3.5 -10.5q0 -6 -3 -9t-6.5 -5t-6 -3.5t-2.5 -2.5q0 -2 1.5 -3t3.5 -2t4.5 -1.5t3.5 -1.5q2 -3 2.5 -8t0.5 -9q0 -6 -2.5 -8t-5.5 -3.5t-5.5 -2.5
t-2.5 -4v-2.5t1 -1.5h30q3 0 4 -3.5t1 -5.5h-35v-17l4 -3h37q1 0 1.5 -1t0.5 -3v-1q0 -4 -2.5 -4.5t-5.5 -0.5q-6 0 -11.5 1t-11.5 1h-2h-3.5h-2.5h-2q-1 -2 -2 -5t-1 -5q0 -5 2.5 -7t6 -2.5t8.5 -0.5h8.5t6 -1.5t2.5 -4.5v-2t-2 -1h-8q-14 0 -26.5 0.5t-28.5 0.5
q-3 0 -3.5 1.5t-0.5 2.5v2.5t2 1.5h21q1 0 1.5 1t0.5 2.5v2.5v2v5.5t-2 6.5q-8 2 -18 2t-18 -1q-1 1 -1.5 2t-0.5 3q0 1 0.5 2t3.5 1h34q1 0 1.5 1l0.5 1v5v5.5t-2 5.5q-7 2 -16 2.5t-15 0.5v1.5v1.5q0 2 0.5 3t3.5 1h26q1 0 1 1.5v2.5v2l-4.5 4.5l-5 5t-4 5.5t-1.5 6
q0 5 2 8t5 5t5 3.5t2 4.5v2q-2 1 -4.5 2.5t-5 3.5t-4 4.5t-1.5 4.5q0 8 2 11.5t5 5.5t5.5 3.5t2.5 5.5q0 2 -3.5 3t-8 2.5t-8.5 4t-5 6.5q0 2 -0.5 6t-1 9t-1 9t-0.5 6v1.5v2.5q0 2 0.5 4.5t4.5 2.5q2 0 3 -1.5t2 -3.5q0 -1 -0.5 -4.5t-0.5 -6.5q0 -4 0.5 -7t0.5 -5
q0 -4 1.5 -9t6.5 -8q1 -1 3.5 -1.5l2.5 -0.5zM143 164q0 -3 1.5 -4.5t3.5 -3t5 -1.5h5q5 0 8 3t3 8t-5.5 8.5t-10.5 3.5q-6 0 -8 -4.5t-2 -9.5zM144 127q0 -1 0.5 -2.5t1 -3.5t1.5 -3.5t2 -1.5h15q1 0 2 1.5t1 2.5v3v2q0 6 -3 8.5t-9 2.5q-5 0 -8 -1.5t-3 -7.5z" />
</svg>
