<?xml version="1.0" standalone="no"?>
<!DOCTYPE svg PUBLIC "-//W3C//DTD SVG 1.1//EN" "http://www.w3.org/Graphics/SVG/1.1/DTD/svg11.dtd" >
<svg xmlns="http://www.w3.org/2000/svg" xmlns:xlink="http://www.w3.org/1999/xlink" version="1.1" viewBox="-10 0 266 256">
   <path fill="currentColor"
d="M145 187q1 0 2.5 1t2.5 2t1 3v2v54q0 1 1 1.5t2 0.5q2 0 3.5 -1t1.5 -3v-38q0 -1 -0.5 -2.5t-1 -3.5l-1 -4l-0.5 -2v-1q0 -5 2 -7.5t6 -2.5t6 2t3 5.5t1.5 7.5t0.5 6v5v7t0.5 7t0.5 4t0.5 1.5l0.5 0.5h1q1 0 1.5 -1.5t1.5 -3t1 -3v-2.5q0 -8 -0.5 -17.5t-1.5 -17.5
q-1 -1 -2.5 -3.5t-2.5 -2.5l-17 -3q-2 0 -2 -2v-3v-3q4 -2 8 -2t7.5 -1t6 -3.5t2.5 -9.5t-3.5 -9.5t-7.5 -3t-7.5 -1t-3.5 -4.5q0 -2 3.5 -2.5t7.5 -1t7.5 -3.5t3.5 -10q0 -4 -2 -6.5t-5 -3.5t-6 -1.5t-5.5 -2.5t-3 -4t-0.5 -3.5t-1.5 -2.5t-5.5 -1v11q0 2 -2 2.5t-4.5 1.5
t-4.5 2t-2 3v17q0 1 2 1.5t3.5 1.5t3.5 2t2 3q0 1 -2 2t-4.5 2.5t-5 3.5t-2.5 5l0.5 0.5l0.5 0.5v2.5v3.5t0.5 3.5l0.5 1.5q1 2 3 3t4.5 1.5t4 2t1.5 4.5q0 2 -2 3.5l-4 3t-4.5 2.5t-3.5 2q-3 2 -4 7.5t-2 11.5t-1 11.5v8.5q0 2 1 3t3 1q1 0 2.5 -0.5t1.5 -2.5l3 -32
q0 -1 2 -4t3 -3zM89 240l2 1h1q3 0 4 -2t1 -4q1 -18 1 -38v-38q1 -4 4 -5t6 -1t5.5 -1.5t4.5 -5.5v-5.5t0.5 -8t1 -8t0.5 -4.5v-1q0 -2 -0.5 -3.5t-2.5 -1.5q-4 0 -4.5 5t-1 11t-2 11t-6.5 5q-2 0 -3 -0.5t-2 -2.5v-13v-10q0 -6 1 -11q2 -2 5 -2h7.5t6 -1t2.5 -5
q-13 0 -25.5 -1t-25.5 -1h-7q-2 1 -2 2v3v2t2 2h28l3 1v6q0 8 -0.5 15t-1.5 16q-1 1 -2 1h-2q-5 0 -7 -3.5t-3 -8t-1 -9.5v-8q-1 -1 -2 -1.5t-2 -0.5h-1.5t-1.5 1v6v15t2 9.5t6.5 5t12.5 2.5l1 1v2t0.5 2.5t0.5 2.5v3q0 17 -1.5 34t-1.5 35v5zM142 155q0 -4 3 -6t7 -2.5t8 0
t6 0.5h1l1 1l1 1v10l-5 3h-15q-3 0 -5 -2.5t-2 -4.5zM160 112q4 0 7 1.5t3 6.5q0 3 -1.5 5t-4 3t-5.5 1h-5h-2.5t-3 -0.5t-2.5 -1l-1 -0.5v-10q0 -2 1.5 -3t4.5 -1.5t5.5 -0.5h3.5zM164 81q0 4 2 7.5t4.5 7t5.5 6.5t5 4h2q3 0 3 -3v-1v-1q0 -1 -1.5 -2t-3 -2.5t-2.5 -3
t-2 -2.5q-1 0 -3 -3t-2 -5v-1v0q1 -1 2.5 -1.5l3 -1t3 -0.5h1.5h3t4 -0.5t4 -0.5h2q2 0 2 -1v-3.5v-3.5h-9q-5 0 -10.5 1t-9.5 3.5t-4 6.5zM134 95q0 3 4 3h2q0 -7 1.5 -14.5t1.5 -14.5q2 -2 5 -3.5t6.5 -2l7 -1t5.5 -0.5q1 0 3.5 -0.5t5.5 -0.5h6h4q1 -1 2.5 -3t1.5 -3v-15
q0 -1 -2 -2t-4 -1.5t-4.5 -0.5h-2.5q-9 0 -17.5 1t-17.5 0q-1 1 -2.5 2t-1.5 2t1.5 2t2.5 1h36q3 0 3 1v3q0 5 -3 6.5t-7 1.5h-22q-6 2 -9 6.5t-4 10t-1.5 11.5t-0.5 11zM64 83q14 0 26 1.5t26 1.5q4 0 5.5 -1.5t1.5 -6.5h-4h-5h-6h-4l-2 -0.5t-3 -0.5v-3v-2q0 -6 3 -7.5
t7 -2t8 -2.5t6 -8q1 -6 2 -9.5t1 -9.5h-4t-3 2q-1 3 -1.5 6.5t-2 6.5t-3.5 5t-6 2h-2t-2 -1v-39q0 -1 -1 -2h-1q-2 0 -3 3t-1.5 8t0 10.5t0 10t-1.5 7.5t-3 3q-4 0 -6 -2t-2.5 -5t-0.5 -6.5v-6.5t-1 -5t-3 -2h-1l-1 1t-1 2l-0.5 2.5t-0.5 3.5v4q0 1 0.5 2.5l1 3t0.5 4.5
q1 6 4 8.5t5.5 3l5 1t2.5 2.5v11l-4 1h-3.5t-5.5 -0.5t-5.5 -0.5h-3.5h-3h-3.5t-1.5 3v2t1 1z" />
</svg>
