<?xml version="1.0" standalone="no"?>
<!DOCTYPE svg PUBLIC "-//W3C//DTD SVG 1.1//EN" "http://www.w3.org/Graphics/SVG/1.1/DTD/svg11.dtd" >
<svg xmlns="http://www.w3.org/2000/svg" xmlns:xlink="http://www.w3.org/1999/xlink" version="1.1" viewBox="-10 0 266 256">
   <path fill="currentColor"
d="M69 153q1 21 1.5 42t1.5 42v3.5v5t1.5 4t3.5 1.5q1 0 2 -0.5t2 -1.5v-3v-4v-4v-2q0 -17 -1 -33.5t-1 -32.5v-13q1 -4 3 -6q1 1 2.5 4.5t3 9.5t2.5 12.5t2 12.5t1.5 10.5t0.5 6.5q0 1 0.5 4.5t0.5 8v8v4.5l1.5 1.5t1.5 0.5v0q2 0 3 -1.5t1.5 -3.5t0.5 -4v-3q0 -8 -1 -17.5
t-2.5 -18.5t-3.5 -18t-4 -17q0 -3 -2 -4t-4.5 -2t-4.5 -2t-2 -4q0 -1 2 -4t5 -6.5t5.5 -7.5t2.5 -9q0 -6 -2.5 -9.5t-5.5 -5.5t-5 -4.5t-2 -7.5t1.5 -7t4 -4.5t4.5 -6.5t2 -13v0q-1 -8 -1.5 -10t-1.5 -3t-3 -1t-6 -3q-2 -2 -2 -6t0.5 -8.5t0 -8t-4.5 -3.5h-1t-1 1
q-2 7 -2.5 14t0.5 14q-7 2 -11 5t-4 10q0 6 2.5 9.5t6 7t6 7t2.5 9.5q0 2 -0.5 4t-1.5 4q-6 1 -11.5 4.5t-5.5 11.5t3 12.5t6.5 7t6.5 4t3 3.5q0 3 -2 5t-4.5 3t-5 2.5t-3.5 3.5l-0.5 1.5t-0.5 3t-0.5 2.5l-0.5 1q0 1 -0.5 2.5t-1 3.5l-1 4l-0.5 2q0 1 0.5 4l0.5 3v6
q0 11 -0.5 21t-0.5 21v6l1.5 1.5l1.5 1.5h1q3 0 4.5 -6t1.5 -15.5v-20.5v-20.5t1.5 -15.5t4.5 -6h1h1zM122 166q0 9 0.5 15t1.5 16q1 8 2 15.5t3.5 14t8 10.5t15.5 4q5 0 12 -0.5t13.5 -2t11 -6t4.5 -11.5v-58q0 -2 -1.5 -3.5t-3.5 -1.5q-3 0 -4 2t-1 4v4v1.5t0.5 2t0.5 2.5
v1l-0.5 2.5l-0.5 2.5h-1h-1l-1.5 -0.5t-1.5 -1.5q-1 0 -3 -2.5t-4.5 -5l-4.5 -4.5l-3 -3q-2 -2 -3.5 -7t-2.5 -10.5t-2 -9t-4 -3.5h-1.5t-1.5 1v29q-4 4 -7.5 8.5t-7.5 8.5q-3 -1 -3 -5v-8t-0.5 -7.5t-4.5 -3.5v0.5v0.5q-1 0 -2 1l-2 2v3v3zM137 214v-2.5v-2.5q1 -1 3.5 -2
t4.5 -1t4.5 -0.5l2.5 -0.5h5t6.5 -0.5t6.5 -1t4 -0.5l0.5 -0.5t1.5 -0.5v-1q0 -2 -3 -3t-6.5 -1.5t-7 -0.5h-4.5t-4 0.5t-4 0.5q0 1 -1 1.5t-2 0.5h-2h-1q-1 0 -3 -0.5l-2 -0.5q-1 0 -1.5 -1t-0.5 -2t3 -5t6.5 -8t7.5 -7t5 -3q2 0 6 3t8.5 6.5t8 6.5t3.5 4q2 3 2 7v7v4.5
t-0.5 7.5t-2 6.5t-4.5 2.5h-36q-2 0 -2.5 -1.5t-1 -4t-0.5 -4.5v-3zM174 142v2t0.5 3.5t1.5 2.5t2 1h1l1.5 -1.5l1.5 -1.5q-1 -12 2.5 -20.5t7.5 -16.5t8 -15.5t4 -18.5v-1q0 -2 -0.5 -7.5t-1 -11.5t-1 -11t-0.5 -8q-3 -3 -5.5 -4t-7.5 -1h-9t-11.5 0.5t-10 3t-4.5 7.5
q9 0 17.5 -1t17.5 -1q2 0 2.5 2t1.5 5t1 5.5t1 4.5v27q0 6 -6 8v-6h-1.5t-4 0.5t-3.5 0.5t-5 1t-8.5 3t-8 4t-3.5 4q0 1 0.5 2t1.5 1q4 0 7.5 -1l7 -2t7.5 -2t7 -1v1q-6 11 -8.5 20.5t-2.5 22.5zM138 76v3.5t0.5 5t0.5 4.5v4q-1 4 -3.5 6.5t-4.5 6.5q-1 1 -2.5 4.5t-3.5 7
t-3.5 7t-2.5 5.5q-2 3 -2 9v10q4 0 6.5 -4.5t5 -10.5t4 -11.5t3.5 -8.5l1 -2t2.5 -4t3 -3.5t1.5 -2.5l0.5 -1.5l0.5 -1.5q1 -3 1.5 -5t0.5 -4v-4v-5v-10t-0.5 -14t-1.5 -13t-4 -6h-40q0 4 1.5 5.5t5.5 1.5h1h3.5t5 -0.5t5 -0.5h3.5v0q5 0 7.5 1t4 3.5t1.5 5.5v7v3.5v2.5
q-4 1 -10 3t-12.5 5.5t-11 7.5t-4.5 8h4t2 -0.5t2 -1.5t3.5 -2t6 -3l7 -4t6 -3l2.5 -1h4zM62 114q0 -1 0.5 -3t2 -4t3 -3.5t3.5 -1.5t6 1.5t5 4.5v2v3q0 5 -1.5 9t-7.5 4q-5 0 -8 -2.5t-3 -9.5zM134 88q-4 0 -9.5 1.5t-10 4.5t-8 7t-3.5 9q3 0 7.5 -2t8.5 -4.5l8 -5t7 -4.5
v-6zM159 80q0 2 0.5 3t2.5 1v0v0l5 -2.5t6.5 -3.5t6.5 -3.5t4 -2.5l1.5 -1.5l1.5 -1.5v-1q0 -2 -1.5 -2.5t-2.5 -0.5q-2 0 -6 2t-8 4.5t-7 5t-3 3.5zM101 69q0 3 1 3h3h1h1q2 -1 5.5 -3.5t7.5 -5.5t7.5 -5.5t4.5 -3.5q2 -2 2 -2.5v-3.5q-1 0 -6.5 2.5t-11.5 6t-10.5 7
t-4.5 5.5zM64 59q0 -6 3.5 -9t9.5 -3q4 0 4.5 1t0.5 5q0 9 -2 12.5t-11 3.5q-3 0 -4 -3.5t-1 -6.5zM177 48q-3 0 -7 1.5t-7.5 4t-5.5 5.5t-2 7q3 0 7 -1.5t8 -4t7 -5t5 -5.5q0 -2 -2 -2h-3z" />
</svg>
