<?xml version="1.0" standalone="no"?>
<!DOCTYPE svg PUBLIC "-//W3C//DTD SVG 1.1//EN" "http://www.w3.org/Graphics/SVG/1.1/DTD/svg11.dtd" >
<svg xmlns="http://www.w3.org/2000/svg" xmlns:xlink="http://www.w3.org/1999/xlink" version="1.1" viewBox="-10 0 266 256">
   <path fill="currentColor"
d="M66 249q0 2 2 2h3q3 0 4 -1t1 -4v-2.5v-1.5q0 -2 -0.5 -7.5t-1 -13t-0.5 -15.5t-0.5 -15.5t-0.5 -13v-6.5v-2q0 -3 0.5 -4t2.5 -1q3 0 4 3t2 5q2 5 3.5 11t2.5 12.5t1.5 12.5t-0.5 12q2 3 4.5 4.5t5.5 1.5q0 -13 -1 -28.5t-7 -28.5q-2 -4 -5 -6.5l-6 -5t-5 -5t-2 -6.5
q0 -6 2.5 -9.5t6 -6.5t6.5 -6.5t3 -9.5q0 -9 -2.5 -12.5t-6 -6t-6 -4.5t-2.5 -7q0 -4 2.5 -5.5t6 -4t6 -6.5t2.5 -12v-4v-4q-2 -3 -4 -4.5t-4.5 -2.5t-4.5 -2.5t-4 -4.5v-4.5t-0.5 -7.5t-2 -7t-4.5 -3q-4 0 -4.5 3t-0.5 5q0 4 1 7t1 6t-2.5 5.5t-5.5 4.5t-6.5 4t-5.5 4v6
q0 8 2 11.5t4 5t5 2t5.5 1t4 2t1.5 5.5q0 6 -3.5 8.5t-8 4.5t-8 4.5t-3.5 7.5q0 11 3.5 15.5t7.5 7t7.5 5t3.5 8.5q0 5 -2.5 8t-5.5 5t-6 5t-5 8t-3 12.5l-2 15t-1.5 15.5t-0.5 13q0 3 1.5 4t4.5 1q4 0 5.5 -4.5t1.5 -11.5t-0.5 -15.5t0 -16t2 -13.5t5.5 -7q1 -1 3 -0.5
t3 0.5q0 22 1 42.5t0 42.5zM107 232q0 3 2 4t4.5 1h5h4.5q1 0 8.5 -0.5t17.5 -0.5t22 -1t21.5 -2t16 -2.5t6.5 -3.5v0q0 -1 -0.5 -1.5t-1.5 -0.5h-46v-17l3 -3h32q1 0 1.5 -1.5t0.5 -2.5t-1 -2t-3 -1h-35v-14l0.5 -0.5l1.5 -1.5q1 0 5 -0.5t5 -0.5h5.5t9.5 -0.5t9.5 -0.5
h5.5q0 -3 -1.5 -4.5t-4.5 -2t-5.5 0t-4.5 0.5q-15 0 -31.5 0.5t-32.5 0.5q-1 1 -2.5 1t-3.5 0.5t-4 0.5h-3q-1 1 -1.5 2.5t-0.5 2.5h37l5 2l0.5 1t1 3t1 3.5t0.5 2.5v1q0 2 -2 3t-3 2h-5.5t-9.5 0.5t-9 0.5h-6l-3 1l-3 1v2v1.5t1 1.5h23h4.5t5 0.5t4 1l1.5 0.5v15l-1 2h-3.5
t-7.5 0.5t-8.5 0.5h-7.5q-3 1 -5.5 0.5t-4.5 -0.5t-4 0.5l-6 1.5v2zM107 166q0 1 0.5 3t2.5 2t3.5 -2.5t2 -5l1 -5t0.5 -3.5q1 -1 2.5 -2t3.5 -1.5t3.5 -1t2.5 -0.5q3 -1 4 -1.5t1.5 -1t1 -0.5h2.5q4 0 7 1.5t7 5.5q0 1 0.5 2.5t0.5 3.5t1 3t3 1h0.5h1.5q-1 -3 2.5 -6.5
t7.5 -6.5t8 -5.5t6 -2.5q1 0 3.5 1t5 2.5l5 3t3.5 2.5q2 1 3 3t1.5 4.5t1.5 4t2 1.5q3 0 4 -1.5t1 -3.5v-3q0 -2 -0.5 -7t-1 -11t-1 -11t-0.5 -7l-1 -2t-1 -3q0 -2 -0.5 -6t-1 -8.5t-1 -8.5t-0.5 -6q-2 -5 -7.5 -8t-12 -4t-13 -0.5t-10.5 0.5l-2 -1v-33q0 -3 2.5 -3.5
t3.5 -0.5q2 0 4 0.5t4 1.5q0 5 0.5 9t1.5 7.5t3.5 6t7.5 3.5q6 1 10 2t10 1q2 0 3.5 -0.5t1.5 -2.5q0 -3 -5 -4t-10.5 -1.5t-10 -2t-4.5 -7.5v-5t4 -2q3 0 7 1t7.5 2t7 2.5t6.5 1.5q2 0 3.5 -1t1.5 -3t-1.5 -3t-4.5 -2q-11 -3 -25 -6.5t-26 -5.5l-2 -2v-12q0 -1 -1 -1.5
t-2 -0.5t-3 0.5t-2 1.5v16l-1 2q-1 0 -4 0.5l-6 1t-5.5 0.5t-3.5 1q-3 0 -8 1.5t-10 4t-8.5 5.5t-3.5 7q3 0 6 -1t5.5 -2l5 -2t4.5 -1t2.5 2t0.5 4q0 5 -4 8t-9 4.5t-9 4.5t-4 8q4 0 6.5 -1t5.5 -3t6.5 -4.5t7.5 -5t6.5 -4l2.5 -1.5v-16q0 -1 1 -2t3 -1.5l4 -1t3 -0.5t3 0.5
t3 1.5v10t0.5 7.5l1 7t0.5 8.5v1l-2 2l-1 1q-10 1 -17.5 2t-13 4.5t-8.5 10t-3 17.5q0 5 1 7.5t1 6.5q0 10 -2 20t-2 20zM117 134h3q3 0 6 1.5t3 5.5q0 2 -2 3.5t-4.5 2t-4.5 1l-2 0.5v-1v-2v-2.5t0.5 -3t0.5 -3v-2.5zM160 145v-3t-0.5 -4.5t-0.5 -5v-2.5q-1 0 -1 -1t1 -1
l1.5 -0.5t1.5 -1.5h0.5h0.5h0.5h0.5l11 12q1 0 0 1.5l-1 1.5q-1 1 -2 1.5t-2.5 1.5t-3 1.5t-2.5 1.5h-1h-1zM144 140q0 -2 1 -4.5t3 -2.5t3 2t1 4q0 4 -3 4q-2 0 -3.5 -0.5t-1.5 -2.5zM192 137q0 -3 1.5 -5t4.5 -2h2.5t1.5 1v13q-4 0 -7 -1.5t-3 -5.5zM125 125q0 -11 10 -11
q5 0 8.5 3.5t3.5 7.5q0 5 -4 6.5t-7 1.5q-4 0 -7.5 -1.5t-3.5 -6.5zM168 122q0 -1 1 -2.5t2.5 -3l3 -3t2.5 -1.5t3.5 1.5l5 3t4.5 3.5t2 5t-3.5 5t-6.5 2l-2.5 -1.5l-5 -3t-4.5 -3t-2 -2.5zM54 113q0 -4 2 -6.5t4.5 -4.5t6 -2.5t6.5 -0.5q5 0 8 4t3 9q0 8 -4.5 12t-10.5 4
q-7 0 -11 -4.5t-4 -10.5zM158 97q0 -1 1 -2t2 -1h1l10 12v0v0q0 2 -1.5 4t-3 3.5t-3.5 3t-3 1.5h-1v-4t-0.5 -6t-0.5 -5.5v-3.5q-1 0 -1 -1v-1zM183 102q0 -1 1 -3t2.5 -4t3 -3.5t3.5 -1.5h1q0 1 1 3t2 2q0 1 0.5 2.5l0.5 1.5v20q-1 0 -3.5 -2t-5 -5t-4.5 -5.5t-2 -4.5z
M122 100q2 0 4.5 0.5t2.5 3.5q0 2 -1 4t-3 4t-4 3.5t-4 1.5q0 -2 -0.5 -5t0 -5.5t1.5 -4.5t4 -2zM140 103q0 -2 1.5 -4t3.5 -4t4 -3.5t3 -1.5v19q0 1 -1.5 1.5l-1.5 0.5q-3 0 -4.5 -2t-4.5 -5v-1zM125 91q0 -1 1.5 -2t3.5 -1.5t3.5 -0.5h3.5q1 0 2.5 0.5t1.5 2.5q0 3 -2 6
t-4 3t-5 -2.5t-4 -4.5l-0.5 -0.5zM165 84v0q1 -1 2 -1.5t2 -0.5h3.5h5.5t5.5 -0.5t3.5 -0.5q0 2 -0.5 4.5t-2 5t-3.5 4t-4 1.5h-1q-1 0 -1 -1l-10 -10v-1zM55 61q0 -5 1.5 -7.5t4.5 -4.5t6.5 -2.5t7.5 -0.5q5 0 7 3.5t2 8.5q0 7 -5 9.5t-11 2.5q-1 0 -3.5 -0.5t-4.5 -1.5
t-3.5 -3t-1.5 -4z" />
</svg>
