<?xml version="1.0" standalone="no"?>
<!DOCTYPE svg PUBLIC "-//W3C//DTD SVG 1.1//EN" "http://www.w3.org/Graphics/SVG/1.1/DTD/svg11.dtd" >
<svg xmlns="http://www.w3.org/2000/svg" xmlns:xlink="http://www.w3.org/1999/xlink" version="1.1" viewBox="-10 0 266 256">
   <path fill="currentColor"
d="M147 65v6v8v8v6l0.5 2t0.5 4q1 2 3 4t3.5 3t3 1.5l1.5 0.5v15q0 2 -3 3t-7 2.5t-8.5 2.5t-5.5 3q-3 2 -4.5 8t-3 14t-2 17.5t-1 18t-0.5 14.5v8q-1 10 -3 19t-2 19q6 0 9 -3.5t4 -8.5v-5.5v-10t0.5 -10t0.5 -5.5v-2t0.5 -4l1 -4l0.5 -2q0 -2 0.5 -8.5t1 -14t0.5 -14
t1 -8.5q0 -7 4 -11.5t13 -4.5h2t2 1v31q0 1 -1 2.5t-3 1.5q-3 0 -3.5 -2.5t-1 -5.5t-0.5 -6t-2 -3h-1v0l-2 2t-1 2v0q0 10 1 21t2 20q0 4 3.5 4.5t5.5 0.5q6 0 9.5 -0.5t9.5 -1.5q2 -1 3.5 -6.5t2.5 -11.5t1 -11.5v-8.5v-10q0 -1 -1.5 -1h-2.5q-3 0 -3.5 2t-0.5 5
q0 2 -0.5 4.5t-3.5 3.5t-3 -1v-3v-1.5v-1.5v-5.5t0.5 -8t0.5 -8v-4.5h14l3 3q1 17 3 35t2 35q0 2 -0.5 7t-1 11t-1 11t-0.5 7q0 1 1 2.5t3 1.5q5 0 7.5 -3.5t2.5 -7.5q0 -20 -1.5 -40.5t-1.5 -40.5q0 -2 -0.5 -5.5t-0.5 -7.5t-0.5 -8t-0.5 -5q-3 -1 -7 -1.5t-8.5 -1.5
t-7.5 -3t-3 -6q0 -6 3.5 -9.5t7.5 -6.5t7 -7t3 -13v-1v0q0 -1 -0.5 -3.5l-0.5 -2.5v-1q0 -9 2 -12t5 -3.5t5 -1t2 -4.5q0 -2 -2 -4h-1.5h-2.5q-4 0 -8 0.5t-8 0.5h-1q-2 0 -5 -0.5l-3 -0.5v-34q0 -4 -3 -4.5t-6 -0.5t-4 3t-1 6q0 7 1 14t1 14q0 5 -5 6.5t-10.5 1.5t-10.5 1
t-5 5q0 3 1 4t3 1q4 0 7 -1t6 -1zM56 185q2 9 2.5 14.5t2 9.5t6 5t15.5 1q5 0 10 -0.5t9 -2.5t7 -5.5t4 -9.5q0 -3 0.5 -9t1 -13t0.5 -13.5t1 -9.5v-1v-4.5t-0.5 -4.5t-1.5 -3.5t-4 -1.5h-1h-1l-3 61q0 4 -2.5 4.5t-5.5 0.5t-4.5 -2t-2 -5t0 -6.5t0.5 -6.5q0 -9 1 -19t1 -20
q0 -6 -1 -12t-1 -12v-6q3 -2 8 -2.5t11 -1.5t10 -2t4.5 -3t-1 -3t-3.5 -1.5t-4 -0.5h-3q-4 0 -8 1t-9 1h-3q-2 0 -2 -2v-23q2 -1 2 -4q0 -4 -0.5 -7.5t0 -6t3.5 -2.5q4 0 6.5 2.5t5 5.5t4.5 5.5t6 2.5h1.5h2.5q1 -2 1 -3v-3q0 -4 -4.5 -7.5t-10.5 -6t-10.5 -5t-4.5 -5.5v-17
l-2 -1.5t-3 -2.5h-1v0h-3t-2 1v20l-2 3q0 1 -0.5 1.5l-0.5 0.5q-1 0 -3 2t-4.5 3.5t-4.5 3t-2 2.5q-2 1 -4 3.5t-4.5 4.5t-4 4l-1.5 2v9h3l26 -25h2v3.5t0.5 5t0.5 5v3.5v5.5t-0.5 7.5t-0.5 8v5q-2 3 -5.5 4t-8.5 1.5t-9 0.5h-6q-2 1 -2 2t-0.5 4t-0.5 4q9 0 16 -1.5
t16 -1.5v84q0 4 -2 5t-5 1h-1.5h-0.5q-1 0 -2.5 -2.5t-1.5 -3.5v-6.5t-0.5 -9.5t-0.5 -10v-6v-6q0 -5 -1 -9t-2.5 -7.5t-5.5 -3.5v0q-1 0 -1.5 0.5l-0.5 0.5v45zM166 180q6 0 6 6t-3 8.5t-8 2.5h-5l-0.5 -0.5t-0.5 -1.5v-13q0 -1 1 -1.5t3 -0.5h4h3zM155 74q0 -4 1.5 -6.5
t4.5 -4t6.5 -2.5t7.5 -1q2 0 3.5 2.5t2.5 5t1 5v3.5l-0.5 2l-0.5 2q-1 1 -1.5 3.5t-1 4.5t-0.5 4.5v3.5q-2 2 -5 2.5t-6 0.5h-3h-3q-3 -2 -4.5 -5t-2 -6.5t0 -7t0.5 -6.5z" />
</svg>
