<?xml version="1.0" standalone="no"?>
<!DOCTYPE svg PUBLIC "-//W3C//DTD SVG 1.1//EN" "http://www.w3.org/Graphics/SVG/1.1/DTD/svg11.dtd" >
<svg xmlns="http://www.w3.org/2000/svg" xmlns:xlink="http://www.w3.org/1999/xlink" version="1.1" viewBox="-10 0 266 256">
   <path fill="currentColor"
d="M73 196q0 1 0.5 4.5t0.5 7.5t0.5 7.5t0.5 4.5v21q0 3 2 5.5t4 2.5q3 0 4.5 -1.5t2 -4t0.5 -5.5v-4q0 -11 -1 -21.5t-1 -20.5q0 -8 2.5 -14.5t6 -13t7.5 -12t7 -12.5q4 -5 4.5 -10t2.5 -11v-48q-2 -5 -3 -13t-2.5 -15.5t-5.5 -13t-12 -5.5q-14 0 -22.5 7t-12.5 18.5
t-5.5 24t-1.5 22.5v14q0 10 1 20t3 17t6 7q1 0 2.5 -1t2.5 -2v-5q0 -8 -2 -16.5t-2 -17.5v-6l0.5 -0.5t1.5 -0.5q4 0 7.5 4.5t6.5 9.5t5.5 9.5t3.5 4.5h1q1 -1 3.5 -2.5t2.5 -3.5v0q0 -1 -1 -2t-1 -2l-1.5 -2t-2.5 -4l-2 -4t-2 -2q-2 -3 -5 -6t-6.5 -5.5t-6 -5.5t-2.5 -7v-2
q0 -2 0.5 -5t0.5 -7t0.5 -7t0.5 -4l1 -0.5t2 -0.5q5 0 9 4.5t7 10.5t5.5 10.5t4.5 4.5v0q1 0 1.5 -0.5t0.5 -1.5v-11q-1 0 -2 -1t-1 -2q-3 -4 -5 -7.5t-4.5 -6.5t-5.5 -6t-7 -8q0 -2 2 -4.5t4.5 -4t5.5 -2.5t6 -1h4t3 3l9 33v1v2v9t-0.5 14.5t-0.5 14v8.5q-2 11 -7 20
t-10.5 17.5t-10 18t-4.5 20.5zM131 214v4v5q0 3 0.5 5l0.5 2q0 2 0.5 4.5t1 5.5t2 5.5t4.5 2.5q1 0 2.5 -0.5t1.5 -2.5v-55q0 -6 2.5 -12.5t5.5 -12.5t5 -11.5t2 -11.5v-2q-8 -7 -15 -17t-7 -22q0 -6 4.5 -9t9.5 -5t10 -4.5t6 -7.5v-24q0 -10 0.5 -18.5t-1.5 -17.5
q0 -1 -0.5 -2t-1.5 -1h-9v32q0 4 -3 3.5t-5 -0.5q-1 0 -4 0.5t-6.5 0.5t-7 0.5t-4.5 0.5q-2 1 -3.5 2t-1.5 3q0 3 3 3h2q1 0 5 -0.5t8.5 -0.5t8.5 -0.5t5 -0.5h1q1 0 1.5 1.5t0.5 3v2.5v2q0 5 -2 8t-5.5 5l-7 4t-6.5 5t-5.5 7.5t-2.5 12.5q0 6 3.5 11.5t7.5 10t7 8t3 7.5
q0 7 -3.5 12.5t-5.5 11.5q-5 11 -6 23t-1 24zM192 240q1 2 2.5 3.5t3.5 1.5q3 0 4.5 -2.5t2 -5.5t0.5 -6.5v-4.5q0 -26 -1.5 -52l-3 -52t-2.5 -52t-1 -52q0 -2 -1.5 -2h-2.5q-3 0 -4.5 1.5t-2 3.5t-0.5 5v5q0 26 1.5 52t2.5 52.5t2 52.5t0 52z" />
</svg>
