<?xml version="1.0" standalone="no"?>
<!DOCTYPE svg PUBLIC "-//W3C//DTD SVG 1.1//EN" "http://www.w3.org/Graphics/SVG/1.1/DTD/svg11.dtd" >
<svg xmlns="http://www.w3.org/2000/svg" xmlns:xlink="http://www.w3.org/1999/xlink" version="1.1" viewBox="-10 0 266 256">
   <path fill="currentColor"
d="M66 190v5v5v5v3q0 3 0.5 10t2 14t4 13t6.5 6q2 0 3 -0.5l3 -1.5v-7q0 -7 -1 -13.5t-2.5 -13t-2.5 -13.5t-1 -13v-1q0 -2 0.5 -6t1 -8.5t1 -8.5t0.5 -6q1 -2 3 -4.5t4.5 -4.5t4.5 -4t4 -3q9 -8 13 -19t4 -23v-9t-0.5 -16t-1.5 -19t-2.5 -18.5t-4 -15t-4.5 -7.5
q-5 -2 -8.5 -2h-8.5q-11 0 -17.5 3t-11 8t-6.5 12t-3.5 14.5t-3 15.5t-4.5 15v47q0 2 1 6t2.5 7.5t4 6t5.5 2.5q4 0 4.5 -2.5t0.5 -6.5q0 -11 -3 -23t-3 -23q0 -2 0.5 -4.5t2.5 -2.5q5 0 8.5 5t6.5 11t6 10.5t6 4.5t4 -2t1 -5q0 -6 -3.5 -11t-9 -10t-10.5 -9t-8 -8v-7v-8.5
t2 -9.5l1.5 -1l1.5 -1q2 0 4 2t3 4l3 3t4 5t4 5.5t3 4.5q2 1 3.5 2t3.5 1h3t2 -2q0 -5 -4.5 -10t-9.5 -9t-9.5 -9t-4.5 -11q0 -3 3 -5.5t7 -4t7.5 -2.5t4.5 -1q2 0 4 2l3 3q3 15 6 27.5t3 26.5v4v4v3.5v1.5v3.5t-0.5 5.5t-0.5 5.5v3.5q-1 7 -1 10.5t-1.5 6t-4 4.5l-7.5 6
q-7 5 -11 10.5t-6.5 12t-3 13.5t-0.5 16zM97 192h9h13t15 0.5t15.5 0.5h13h8.5h21h20q4 2 5 -0.5t1 -4.5q0 -4 -2 -5t-5.5 -0.5t-6.5 0.5t-5 -2v-24q0 -28 0.5 -55.5t0.5 -55.5q0 -8 -1 -13t-4.5 -7.5t-8.5 -3.5t-12 -1t-13.5 0.5t-12 2.5t-8.5 7t-3 14q0 2 -0.5 8t-0.5 12
q0 7 0.5 13t0.5 8l-2 3v70q0 1 -0.5 5t-1 7.5t-1.5 7t-2 3.5h-31q-2 0 -3 2t-1 4v2t2 2zM143 134h44v7v9.5t-0.5 11t-1.5 10.5t-3 8t-5 3q-7 0 -15 -0.5t-15 -1.5q-1 0 -2.5 -1l-1.5 -1v-45zM154 82q5 0 8 0.5t6.5 1l7 1t9.5 -0.5q0 1 1 2t1 2v2t0.5 4.5t0.5 5v4.5v1v3.5
t-0.5 6t-1.5 6.5t-3 4q-10 0 -19 1t-19 1v-38q0 -3 3.5 -5t5.5 -2zM145 59q0 -2 0.5 -7t2.5 -10t4.5 -8.5t6.5 -3.5h24q2 0 2.5 2l1 4t0.5 5v2v1.5t0.5 3.5t0.5 3.5v2.5v2.5t-0.5 5.5t-0.5 5.5v4.5l-1 1l-1 1h-36q-2 0 -2.5 -2t-1 -4.5t-0.5 -5.5v-3z" />
</svg>
