<?xml version="1.0" standalone="no"?>
<!DOCTYPE svg PUBLIC "-//W3C//DTD SVG 1.1//EN" "http://www.w3.org/Graphics/SVG/1.1/DTD/svg11.dtd" >
<svg xmlns="http://www.w3.org/2000/svg" xmlns:xlink="http://www.w3.org/1999/xlink" version="1.1" viewBox="-10 0 266 256">
   <path fill="currentColor"
d="M137 193q3 1 4 2.5t1.5 3t0.5 3.5t1 4q3 9 8.5 17t13 14t16.5 9.5t19 3.5q3 0 4 -2t1 -5q0 -2 -6 -4l-13.5 -4.5t-13.5 -6t-6 -8.5q0 -2 1.5 -5.5t3.5 -7t5 -6t5 -2.5l1 0.5l1 0.5q1 0 3 2t4 4.5t4 4.5l3 3q2 2 3.5 5t4.5 3t4.5 -2t1.5 -5v-1l-25 -26h-13l-15 23h-0.5
h-0.5q-4 0 -4.5 -4t-1.5 -9.5t-3.5 -10t-8.5 -4.5t-12 6t-10.5 14.5t-7.5 16.5t-5 12v1q0 2 2 3.5t4 1.5q4 0 7.5 -6t6 -13.5t5.5 -15t7 -10.5zM75 245q2 3 5 3q2 0 4 -2.5t2 -4.5q0 -6 -1 -11.5l-2 -11l-2 -11t-1 -11.5q0 -7 1.5 -12.5t4 -11t5.5 -10.5t7 -11q5 -11 7 -23
t2 -24q0 -10 -1.5 -20.5t-1.5 -20.5v-5q9 -5 18 -8t19 -6q3 -2 6 -4.5t7 -2.5t8 1t8.5 2.5t8.5 2.5l8 2q0 1 1 3t2 2v1q0 6 -5 9t-10 3q-4 0 -5.5 -1t-1.5 -7h-1h-1l-1.5 0.5l-1.5 0.5l-1.5 10.5t-0.5 9.5q0 2 0.5 4.5t1.5 5t2.5 4t4.5 1.5h4t8.5 -1t8.5 -2.5t4 -4.5v-25
q0 -1 1 -1.5t2 -0.5q2 0 4 1t5 1t3.5 -1t0.5 -4q0 -4 -4.5 -7t-10.5 -5.5t-13.5 -4.5t-13.5 -3.5t-10.5 -3t-4.5 -3.5v-15q0 -1 -2 -1.5t-4 0.5l-2 1.5t-2 2.5v12t-2 6t-5.5 3t-8.5 4q-2 0 -4.5 1.5t-6 3t-6.5 3t-4 2.5h-5q0 -6 -3 -10.5t-8 -7.5h-11q-7 0 -11 0.5t-7 3
t-5 6t-4 9.5q-1 3 -2 9t-2 13.5t-1.5 14t-1.5 9.5v3v5.5v7.5v5v7v8.5v7.5v4q0 2 0.5 4t0.5 4.5t0.5 5t0.5 3.5q1 4 5 4q3 0 4 -2.5t1 -4.5q0 -12 -1.5 -24t-1.5 -23q6 0 9 4.5t4.5 10t3 10t5.5 4.5q2 0 4 -1t0 -5q-4 -12 -10 -23t-15 -20v-4v-4t1 -6t1.5 -5t2.5 -2q3 0 6 3
t5.5 7t4.5 9t3.5 9.5l2.5 7.5l1 3q2 0 3.5 -1.5l2.5 -2.5v-2.5v-3.5q0 -3 -2 -8t-5 -10t-5 -8.5t-1 -4.5q-3 -2 -5.5 -3.5t-4 -3.5t-2.5 -3.5t-1 -4.5q0 -7 5 -11.5t11 -4.5q4 0 6.5 3t4 6.5t3 8l2.5 7.5q0 2 0.5 7t1 10.5t1 10.5t0.5 7v4v5q0 11 -2 21.5t-7 19.5
q-5 7 -8.5 12.5t-6.5 11t-4.5 11.5t-1.5 13q0 13 1 25.5t5 24.5zM183 165q3 0 5.5 2.5t4.5 5.5l4 6t5 3t4.5 -3t1.5 -6t-2.5 -4.5t-5 -3.5t-5 -3.5t-2.5 -4.5t2 -5.5t5 -4.5t6 -3.5l5 -2.5v-1v-1q0 -4 -2.5 -6.5t-5.5 -4t-5.5 -4t-2.5 -5.5v-2l6.5 -6.5t3.5 -7.5
q0 -2 -0.5 -3.5t-3.5 -0.5q-2 0 -4 1.5t-4 3.5t-3.5 4t-2.5 4h-1.5h-1.5q-2 0 -4 -1t-3.5 -2t-3.5 -2t-4 -1q0 3 1.5 5t3.5 3.5t3.5 3t1.5 3.5t-1.5 4t-3 3.5t-4 2t-3.5 0.5h-1l-0.5 -0.5l-0.5 -0.5v-13q-1 -1 -1 -3t-1 -4t-2 -3.5t-3 -1.5h-40q-1 0 -1.5 1.5t-0.5 2.5t1 2
t2 1q3 0 7 -1t7 -1q5 0 9 0.5t10 1.5q3 3 4.5 7t1.5 9q0 10 -3.5 14.5t-9.5 6t-12 1.5q-7 0 -12.5 0.5t-9.5 3.5t-4 9q0 8 2 10t8 2q10 0 19 -1t19 -1l0.5 -1t0.5 -2v-1v0q0 -1 -1 -1.5t-2 -0.5h-37l-0.5 -1.5l-0.5 -1.5v-1q0 -4 5 -5t12.5 -2t15 -2.5t11.5 -7.5
q2 -2 2.5 -3t1 -1.5l1 -1t2.5 -1.5l1.5 -0.5t3.5 -1t3 -1t2 -0.5l1 -1l2 -2l2 -2l1 -1l1.5 -0.5l1.5 -0.5q4 0 6.5 2.5t2.5 6.5t-2 6.5t-7 4.5h-1h-2l-1.5 -0.5t-3 -1.5l-3 -2l-1.5 -1l-2 2v1v0q0 1 1.5 3.5t1.5 3.5v0.5v0.5q0 3 -1.5 4.5t-4 3t-4 3t-1.5 4.5t3 3q2 0 4 -1
t4 -2.5l4 -3t5 -1.5zM141 136h-18q-2 0 -5.5 1t-3.5 4h28q5 0 7.5 -3t2.5 -7q0 -3 -2 -5t-4.5 -2.5t-5.5 -0.5h-6q-4 0 -7.5 0.5t-8.5 1.5q-1 0 -1.5 1.5t-0.5 3.5h23q2 0 2.5 0.5t0.5 2.5v2t-1 1zM124 58h-1l-1 1.5t-1 2.5v21q0 2 2 3.5t5 2t5 0.5h4h9.5t6.5 -5v-3.5v-5.5
v-6.5v-3.5t1 -3l1 -2q0 -4 -1 -4.5t-3 -0.5q-3 0 -3.5 1.5t-0.5 3.5v3.5t-2 1.5h-14l-3.5 -3.5t-2.5 -3.5h-0.5h-0.5zM168 78q0 -1 0.5 -2.5t0.5 -2.5t0.5 -1.5t1.5 -0.5h11q2 0 3 2t1 4q0 4 -3.5 5.5t-6.5 1.5t-5.5 -2t-2.5 -4zM128 78q0 -2 2.5 -3.5t4.5 -1.5h1
q1 0 4.5 0.5t4.5 0.5v2v2v2q0 3 -1 3h-13l-0.5 -1l-0.5 -1q-1 -1 -1.5 -2z" />
</svg>
