<?xml version="1.0" standalone="no"?>
<!DOCTYPE svg PUBLIC "-//W3C//DTD SVG 1.1//EN" "http://www.w3.org/Graphics/SVG/1.1/DTD/svg11.dtd" >
<svg xmlns="http://www.w3.org/2000/svg" xmlns:xlink="http://www.w3.org/1999/xlink" version="1.1" viewBox="-10 0 266 256">
   <path fill="currentColor"
d="M120 250q1 1 2 1h2h3t2 -1q1 -16 1.5 -32t-0.5 -32l2.5 -2.5t2.5 -0.5q12 0 18.5 5.5t9.5 13t4 17t2 17.5l1.5 0.5t1.5 1.5h1q3 0 4.5 -2t1.5 -4q0 -5 -1.5 -11l-3 -12t-4 -11.5t-5.5 -9.5q-2 -4 -8 -5.5t-12 -2.5t-10.5 -3t-4.5 -7q0 -3 2 -4.5t5.5 -2.5l7 -2t7 -3.5
t5.5 -7t2 -13.5q0 -2 -1.5 -4t-3.5 -2q-4 0 -4.5 3t-1.5 5v12q-4 6 -12 6h-2.5t-1.5 -2v-35l0.5 -0.5l1.5 -1.5q2 -1 5 -1.5t6 -1.5h3t4 -0.5t4 -0.5h3l3 -0.5l6 -1t5.5 -1t3.5 -0.5t3 -0.5l4 -1t4 -0.5h2q1 0 1.5 -0.5l0.5 -0.5q1 -1 1.5 -2l0.5 -1q-1 -3 -3.5 -3.5
t-4.5 -0.5q-6 0 -12.5 1.5t-12.5 3.5t-12.5 3.5t-12.5 1.5q-2 0 -3 -1.5t-1 -3.5t1.5 -4t4.5 -3t5.5 -1.5t4.5 -0.5t4.5 -0.5t6 -1t6 -1t4.5 -0.5q1 -3 1 -5q-8 0 -15.5 2.5t-15.5 2.5q-3 0 -5 -1t-2 -5q0 -2 1.5 -3.5t3.5 -2.5t4.5 -1.5t3.5 -0.5q2 -1 6 -1.5t9 -1
t9.5 -1.5t5.5 -1t1.5 -0.5t0.5 -1.5v0q0 -2 -1 -3t-2.5 -1.5t-3 -0.5t-1.5 -1v0q0 -7 2 -9.5t5 -4t6 -2t6 -2.5t5 -7t2 -14q0 -2 -1 -4t-4 -2q-1 0 -2 0.5t-1 1.5v5.5t-1 7t-3 6.5t-6 3q-1 0 -4 -1t-3 -3v-29q-1 0 -2.5 0.5t-3 0.5t-2.5 1t-1 3v27h-5h-3.5t-2.5 -1t-2 -4
v-14q0 -1 -1 -1.5t-2 -0.5l-1.5 0.5t-1.5 1.5v21q0 3 3 4t7 2t7 4.5t3 10.5q0 1 -0.5 1.5t-2.5 0.5q-1 0 -4 1t-6 1.5t-6 0.5h-4q-1 1 -2.5 0.5l-1.5 -0.5v-12h-3h-5q-1 0 -2 0.5t-1 1.5l-0.5 2t-0.5 4t-0.5 3.5t-0.5 2.5t-0.5 2t-1.5 1q-12 3 -23 5.5t-23 5.5
q-1 0 -1.5 0.5l-0.5 0.5v0.5v0.5v0.5v0.5q0 1 0.5 1.5t1.5 0.5h11l32 -10h0.5h1.5q3 0 5 1.5t2 4.5q0 4 -4 6t-10.5 3t-13.5 2t-13 1.5t-10.5 2t-4.5 3.5l1 1t1 2h3.5h3.5q5 0 10 -1.5t10.5 -3t10.5 -2.5t11 -1q3 0 3.5 1.5t0.5 4.5t-4.5 5t-11.5 3t-15.5 1.5t-15.5 2t-12 4
t-5 7.5q8 0 15 -2t14 -4.5t14 -4t14 -1.5q3 0 4.5 1.5t1.5 4.5v1.5v1.5q-1 3 -1 7.5t-0.5 8.5t-0.5 7v3l-2 2h-2h-3q-5 0 -8 -1.5t-5 -4t-2.5 -6.5t-0.5 -8h-6q0 6 0.5 11.5t1.5 11.5q3 2 7 2h10t8.5 1t3.5 6t-5 7.5t-12 4.5t-14 5t-11 10q-2 4 -4 9t-3.5 10.5t-2 11
t-0.5 9.5q0 2 1 2.5t3 0.5q4 0 5.5 -4t2.5 -10.5t2.5 -13.5t5 -13t10 -10.5t17.5 -4.5q3 0 3 1.5v3.5q0 13 -1 26t-1 27v9zM89 52v18q4 0 6 -2t3 -4.5t1 -5.5v-6q1 -4 5 -4t8 -1t7 -4t3 -13v-5t-3 -3t-4.5 2.5t-2 5.5t-0.5 6v4q-1 2 -3 2.5t-5 0.5h-2q-1 0 -2 -1t-1 -3v-5
q0 -4 0.5 -7.5t0.5 -7.5q0 -3 -0.5 -4t-4.5 -1q-3 0 -3.5 0.5t-1.5 4.5v5.5t-0.5 7.5t-0.5 7.5v4.5h-5q-4 0 -6 -1.5t-3 -4t-1 -6.5v-6q-1 -2 -1.5 -2h-2.5h-1.5t-1.5 2v18q0 3 3 4.5t7 2.5t7.5 1h4.5z" />
</svg>
