<?xml version="1.0" standalone="no"?>
<!DOCTYPE svg PUBLIC "-//W3C//DTD SVG 1.1//EN" "http://www.w3.org/Graphics/SVG/1.1/DTD/svg11.dtd" >
<svg xmlns="http://www.w3.org/2000/svg" xmlns:xlink="http://www.w3.org/1999/xlink" version="1.1" viewBox="-10 0 266 256">
   <path fill="currentColor"
d="M141 220q2 7 7 12.5t11 9.5t13 6.5t14 2.5h3q1 -1 1.5 -2l0.5 -1q-1 -2 -4 -4t-8 -3.5t-10 -4t-10 -6t-8 -8.5t-3 -11q0 -5 1.5 -9t3 -7.5t2.5 -7.5t1 -8q0 -5 -3 -8t-7 -5.5t-7 -3.5t-3 -3v-10l3 -3l2.5 -0.5t6 -0.5t7 -0.5t6.5 -0.5h4h3.5t2.5 3v22q0 2 1 2.5t3 0.5
t3.5 -0.5t1.5 -2.5q0 -1 -0.5 -3.5t-0.5 -3.5t-0.5 -6t-0.5 -10.5t-0.5 -10t-0.5 -6.5q0 -1 -1 -2t-2 -1l-1 0.5t-2 0.5q0 2 -0.5 5.5t-0.5 4.5l-1 0.5l-1 0.5q-1 0 -4 0.5t-6.5 0.5t-6.5 0.5t-4 0.5t-5.5 -0.5t-5.5 -0.5v-18h4.5t6.5 -0.5t6 -0.5h4h3t4.5 -0.5t4.5 -1.5
t2 -3q1 0 1 -3v-4t1 -4t3 -3h3h4.5t4.5 -0.5t3 -0.5t3 -1t2 -3t-2.5 -2.5t-3.5 -0.5h-2q-1 0 -4.5 0.5t-4.5 0.5h-87q-1 0 -1.5 -1.5t-0.5 -2.5q0 -3 2.5 -5.5t6 -4t7 -2.5t6.5 -1h58l2 -0.5l2 -0.5v-1v-1l-1 -1l-2 -2h-4.5h-7.5h-7h-4q-16 0 -31.5 1t-30.5 5q-1 2 -2.5 6
t-2.5 6q0 2 0.5 5t0.5 7v7v4v5v5.5t0.5 9t0.5 8.5v6q0 11 -0.5 23t-2.5 24.5t-5.5 24t-9.5 20.5q-2 3 -3.5 4t-1.5 4q0 2 1 2.5t3 0.5q5 0 8.5 -5t6 -11.5t4 -13t1.5 -9.5q1 -1 1.5 -4.5t1 -7.5t0.5 -7.5t1 -3.5q0 -1 0.5 -2.5t1.5 -2.5v-61h38v3t0.5 4t0.5 4v3l-1 1.5
l-1 1.5l-1 2h-25q-2 0 -3 2.5t-1 4.5h32v15l-2.5 2t-3.5 3q-1 0 -3 1.5l-2 1.5l-1.5 1.5t-2.5 3l-2 3t-2 1.5q-1 2 -1.5 3.5t-1.5 4t-2 4t-2 2.5q1 0 1 1v2q0 9 -1.5 18t-1.5 19v3v4q2 3 5 3h1.5t1.5 -1v-23q0 -6 1 -14.5t4 -16t8 -13t14 -5.5q5 0 8.5 3t3.5 9q0 3 -1 7
t-2.5 7.5t-2.5 7.5t-1 8v4v4zM89 104v-2q0 -2 2 -2h68l5 1v2v2v3v3l-0.5 0.5t-1.5 0.5q-10 2 -22 2h-21h-6h-7.5h-8.5h-5q-1 -3 -2 -5t-1 -5zM77 30v3q1 8 3 11.5t4.5 5.5t5 2.5t5 1.5t4 3.5t1.5 7.5h4q0 -6 1 -8.5t2.5 -3.5t3.5 -1h3.5t4 -1.5t4.5 -5.5v-3t0.5 -4.5
t0.5 -4.5v-3v-1q0 -2 -1 -3.5t-3 -1.5h-2t-2 1q0 2 0.5 5.5t0.5 6.5t-1.5 5.5t-5.5 2.5h-2t-2 -1v-22q0 -1 -1.5 -2.5t-3.5 -1.5q-1 0 -2 0.5t-1 2.5v25q-7 0 -9 -3t-3 -7t-1.5 -7.5t-4.5 -3.5q-2 0 -2.5 1.5t-0.5 3.5zM139 31q0 2 0.5 6t1.5 7.5t3 6t6 3.5l1.5 0.5t2.5 0.5
t2 0.5t1.5 0.5t0.5 2v2.5t1 3t2 1.5h1q0 -4 1.5 -6t4 -3t5.5 -1t5 -1t4 -4t2 -8v-5q0 -2 -0.5 -5t-2 -5t-4.5 -2l-0.5 0.5t-0.5 1.5v18q0 2 -3 2.5t-4 0.5h-3t-1 -3v-24q0 -2 -0.5 -2.5t-2.5 -0.5h-1.5t-1.5 1v28q-5 0 -8 -1t-4 -3t-1 -5.5t-1 -8.5q0 -1 -1 -1.5t-2 -0.5
q-2 0 -2.5 1t-0.5 3z" />
</svg>
