<?xml version="1.0" standalone="no"?>
<!DOCTYPE svg PUBLIC "-//W3C//DTD SVG 1.1//EN" "http://www.w3.org/Graphics/SVG/1.1/DTD/svg11.dtd" >
<svg xmlns="http://www.w3.org/2000/svg" xmlns:xlink="http://www.w3.org/1999/xlink" version="1.1" viewBox="-10 0 266 256">
   <path fill="currentColor"
d="M100 246q0 2 1 3.5t3 1.5t3.5 -3t1.5 -4l3 -64q0 -1 2.5 -3t5.5 -3l6 -2t4 -1l3.5 0.5t7.5 2t7 3t3 3.5v65l0.5 0.5t1.5 0.5q0 1 1.5 1.5l1.5 0.5q2 0 3 -2t1 -4q0 -9 -1 -18.5t-1 -19.5v-4q0 -3 0.5 -5.5t0.5 -4.5v-2l3 -3q7 5 16 8t18 4q3 1 4 -0.5t1 -3.5q0 -1 -1 -2
t-3 -1.5t-3.5 -0.5t-2.5 -1q-1 0 -3 -1t-4.5 -2.5t-4.5 -2.5t-2.5 -1t-2.5 -0.5t-4.5 -1.5t-4 -1.5t-2.5 -0.5q-3 -2 -7.5 -4t-9.5 -4.5t-8.5 -4.5l-3.5 -2l-1 -1v-16q0 -2 -2 -2h-3h-2q-2 0 -2 2q0 1 -0.5 3.5t-0.5 5t-0.5 5t-0.5 3.5t-0.5 2l-0.5 1q-7 4 -14 7.5
t-13.5 6.5t-13.5 5.5t-14 5.5q-1 0 -4.5 1.5t-4.5 2.5q-2 1 -2 4v4q3 0 8 -1.5t10.5 -4t10.5 -4.5t8 -4q1 -1 3.5 -2.5t4.5 -1.5t2.5 3t0.5 4v2q0 1 0.5 3.5t0.5 4.5v3q0 11 -2 21.5t-2 20.5zM124 95q0 2 -0.5 4t-2.5 2l-33 3q-9 1 -13.5 6.5t-4.5 13.5v42q0 2 1 2h2
q3 0 4.5 -2.5t1.5 -4.5q-1 -10 -0.5 -22.5t1.5 -22.5q1 -2 3 -3t4.5 -1.5l5 -1t3.5 -0.5q2 0 5 -0.5t6 -0.5t6 -0.5l3 -0.5h28h28q2 2 4 5.5t2 5.5v45l1.5 0.5t2.5 0.5h0.5h0.5q2 0 2.5 -2.5t0.5 -3.5v-12v-13v-5t-0.5 -8.5l-1 -9t-1.5 -5.5q0 -1 -1.5 -2t-2.5 -2l-42 -2
q-1 0 -2 -1.5l-1 -1.5q0 -2 0.5 -3.5t2 -2.5l3 -2t3.5 -1l52 -3q1 0 1.5 -1t0.5 -2l-0.5 -1.5t-1.5 -1.5h-33h-5h-9.5t-14.5 0.5t-17 1t-17 1t-14.5 0.5h-10.5h-10q-2 1 -2.5 2t-0.5 3q0 1 2 2.5t3 1.5q11 0 21 -1t21 -1h13q2 1 2.5 2.5t0.5 3.5zM98 155v4t2 2h0.5h0.5
q0 -1 0.5 -1.5l0.5 -0.5l3 -22q0 -3 4 -4.5t8.5 -2t9 -0.5h6.5h6h5q4 2 5.5 6.5t2 9.5t1 9t3.5 4q1 0 2 -1t1.5 -2.5t0.5 -2.5v-3v-7q0 -5 -1 -9t-3 -7t-6 -4h-3h-5.5h-5.5h-3h-18t-11 3t-5 9.5t-1 19.5zM73 39q0 7 1.5 11t4 6t5.5 2h6q2 0 3.5 0.5t1.5 2.5v14l1 0.5t2 0.5
v0h1q2 0 2.5 -2t1 -4.5t0 -4.5t-0.5 -3q1 -3 4.5 -4t6.5 -2t5.5 -2.5t2.5 -4.5v-19q0 -1 -1 -1h-2q-3 0 -3.5 3t-1 7t-1.5 7t-5 3h-2t-2 -2v-30l-1.5 -0.5t-2.5 -1.5h-1v0l-2 2l-1 1v29q0 3 -2.5 3.5t-4.5 0.5q-3 0 -4.5 -2t-2 -4t-1 -5t-0.5 -6q0 -1 -1.5 -1h-2.5
q-2 0 -2.5 1t-0.5 5zM160 61v2.5v4t0.5 4.5t1.5 3v0q3 0 4 -2.5t1.5 -5.5l1 -6t3.5 -4l13 -2l4 -6v-18q0 -2 -1.5 -2.5t-3.5 -0.5q-1 0 -2 0.5t-2 1.5q1 4 1 8t-1 6.5t-3.5 4t-7.5 1.5v-32q0 -1 -1.5 -2.5t-2.5 -1.5t-3 1t-2 3v32q0 2 -2.5 2h-2.5h-3t-2 -2v-4t-0.5 -6.5
t-2 -6t-4.5 -2.5t-3 4v1q1 8 3 12.5t4 6.5t4 2h3.5t3 0.5t2.5 3.5z" />
</svg>
