<?xml version="1.0" standalone="no"?>
<!DOCTYPE svg PUBLIC "-//W3C//DTD SVG 1.1//EN" "http://www.w3.org/Graphics/SVG/1.1/DTD/svg11.dtd" >
<svg xmlns="http://www.w3.org/2000/svg" xmlns:xlink="http://www.w3.org/1999/xlink" version="1.1" viewBox="-10 0 266 256">
   <path fill="currentColor"
d="M81 246q2 0 8 1t12.5 1.5t12.5 1t8 1.5v0q7 0 16 -1t17.5 -3.5t15.5 -7t9 -12.5q3 -7 4.5 -14t2.5 -13.5t1.5 -13t0.5 -14.5v-17q0 -4 -1.5 -6.5t-4.5 -4t-6 -2.5t-6 -1q-2 0 -7.5 -0.5t-11.5 -1l-12 -1t-8 -0.5h-3h-2v-36q0 -4 3 -6t7.5 -3t9 -1h6.5t5.5 0.5t6.5 1
t5.5 2.5t2.5 5q0 4 -3.5 6.5t-8 3.5t-9.5 1t-7 1q-2 0 -2 1v2v1.5t2 1.5l26 -3q3 0 5 -2t3 -4.5t1 -5v-5.5v-7q-2 -2 -4.5 -3.5t-6 -2t-6.5 -0.5h-7q-16 0 -32 2.5t-32 2.5q-3 0 -6.5 -1t-6.5 -2.5t-5.5 -2.5t-5.5 -1q-2 0 -3.5 1.5t-1.5 3.5t1.5 3.5t3.5 2.5t4 1.5t4 0.5h3
h7.5t11.5 -0.5t11.5 -1t7.5 -0.5h1q2 0 2 2.5v3.5q0 10 -1 19.5t0 18.5l-5 3h-40q-2 0 -5.5 2.5t-5.5 4.5q0 2 -0.5 7.5t-0.5 11.5t-0.5 11t-0.5 7v3q0 6 0.5 14.5t2.5 17t5.5 15.5t11.5 10zM71 187v-16.5t2 -17.5q2 -4 7.5 -5t10.5 -1t8 2t5.5 5.5t4.5 7.5t5 7q1 2 3 2.5
t2 1.5v1l-1 0.5l-1 0.5l-2 2l-1 1h-35l-0.5 1l-0.5 1v0.5v0.5v0.5v0.5l0.5 0.5l0.5 0.5h43v16l-3 4h-36q-3 0 -3.5 0.5t-0.5 1.5t0.5 2l0.5 1h40v33l-1 2h-2.5h-2.5q-15 0 -23.5 -3.5t-13 -10.5t-5.5 -17.5t-1 -24.5zM166 207l0.5 -1l0.5 -1v0v-1q0 -1 -0.5 -2l-0.5 -1h-36
v-18l3 -0.5t5 -0.5t6.5 -0.5l9 -1l9 -1t6.5 -0.5v-1.5v-0.5q0 -3 -2 -3h-4q-6 0 -11.5 1t-10.5 1q-2 0 -4 -1t-2 -3q0 -1 2 -5t4.5 -8.5t5.5 -8t4 -3.5h20q3 0 5 4.5t3 9.5t1 10.5v7.5q0 11 -1.5 22.5t-6 20.5t-13 15t-23.5 6h-2.5h-1.5q-1 0 -1.5 -0.5t-0.5 -1.5v-33
l3 -0.5t5 -0.5h5.5h8.5h8h6zM109 150v0v-1q0 -2 0.5 -2.5t2.5 -0.5h28l0.5 0.5l0.5 0.5v1q0 2 -1.5 5.5t-3.5 6t-4.5 4.5t-5.5 2t-5.5 -1.5t-4.5 -4t-4 -5.5t-3 -5zM86 64q0 1 0.5 3t1 4.5l1 5t0.5 3.5l1 1.5l1 1.5v0h1q1 -1 1.5 -3.5l1 -5t0.5 -4.5t1 -3q2 -4 6 -6t8.5 -4
t8 -7t3.5 -17q0 -2 -0.5 -3.5t-2.5 -1.5q-4 0 -4.5 4.5t-1.5 9.5t-3.5 9.5t-9.5 4.5h-1q-1 0 -2 -0.5l-1 -0.5v-38l-1.5 -1.5t-2.5 -1.5h-1v0l-1 0.5l-1 0.5q0 4 0.5 9t0 10.5t-1 10.5t-0.5 10q-1 1 -2.5 1h-2.5q-5 0 -7.5 -3t-4 -8t-1.5 -9.5v-7.5q-1 -2 -2.5 -2h-2.5
q-4 0 -4 3.5v5.5q0 13 5.5 21t19.5 8zM163 75v1.5t1 1.5q3 -1 4 -3t2 -4.5t1 -5.5v-4q0 -1 4 -2.5t9 -2.5t9 -3t4 -5v-27h-3.5t-3.5 2q0 3 0.5 7.5t-0.5 8.5t-3.5 6.5t-6.5 2.5h-2h-4t-2 -1v-30q0 -3 -1 -4t-3 -1h-1h-1q-1 3 -1.5 10t-1 13.5t-2 11.5t-5.5 5q-1 0 -3 -0.5
t-3.5 -2t-3 -2.5t-1.5 -2v-17q0 -1 -1 -1.5l-1 -0.5q-1 0 -2 0.5t-1 1.5v2.5v2.5q0 12 3.5 17t8 7t8.5 2.5t4 2.5q0 4 -0.5 7t-0.5 6z" />
</svg>
