<?xml version="1.0" standalone="no"?>
<!DOCTYPE svg PUBLIC "-//W3C//DTD SVG 1.1//EN" "http://www.w3.org/Graphics/SVG/1.1/DTD/svg11.dtd" >
<svg xmlns="http://www.w3.org/2000/svg" xmlns:xlink="http://www.w3.org/1999/xlink" version="1.1" viewBox="-10 0 266 256">
   <path fill="currentColor"
d="M53 248q0 3 1 5.5t4 2.5t4.5 -3.5t1.5 -5.5q0 -3 -1 -4.5t-1 -4.5q0 -6 3.5 -9t9 -4t11 -1h10.5h10q2 1 3.5 4.5t1.5 5.5v3.5v5.5v5.5v3.5t1 2t2 1q2 1 3 -1t2 -3v-9v-9q0 -6 -1 -14t-2.5 -17t-4 -15.5t-7 -11t-11.5 -2.5l-1 -3v-24q5 -1 9.5 -2t7 -3t4 -5.5t1.5 -10.5
t-3.5 -9t-7.5 -3t-7.5 -1.5t-3.5 -4.5q0 -3 1.5 -4.5t3.5 -2.5l4 -2t3 -3q2 -2 3.5 -6.5t1.5 -7.5h13l1 -1.5t1.5 -2.5t0.5 -2v-1h-13q-2 0 -2.5 -2t-1 -3.5t-1.5 -3.5t-3 -2q-5 0 -5 3.5t-1 7.5l-3 2h-19q-1 0 -1.5 -2t-1 -4.5t-1 -4.5t-2.5 -3q-1 -1 -2.5 -1h-1.5v16h-19
q-2 0 -2 1.5v1.5q0 2 0.5 4t2.5 2h19q1 2 3.5 4.5t6 5.5t5.5 5l2 2v1q0 2 -0.5 5l-0.5 3l-19 3q-2 0 -3 1.5t-1.5 3.5l-1 4t-0.5 3q0 7 1.5 10t5 5t6.5 2h6t5 1t2 3v20q0 3 -2 4.5t-4 2t-5 1t-4 1.5q-7 4 -10 13.5t-4.5 20.5t-1.5 21.5v15.5zM136 138v116q0 1 1.5 1.5
t2.5 0.5t2 -0.5t1 -3.5v-26l3.5 -0.5t4.5 -1.5q2 0 5.5 -0.5l7 -1t6.5 -1l3 -0.5h4h8h7h5l2 -0.5l4 -1t3.5 -2t0.5 -2.5q0 -2 -3 -3.5t-4 -1.5q-2 0 -6 0.5l-8 1t-7.5 1t-5.5 0.5h-1q-1 0 -2.5 -1.5t-1.5 -3.5v-21q0 -1 1.5 -2t2.5 -1q0 -1 1.5 -2l1.5 -1h23q1 0 1.5 -1.5
t0.5 -2.5t-0.5 -2.5t-2.5 -1.5h-27q-1 0 -1.5 -2.5l-1 -5t-0.5 -5.5v-3v-3t0.5 -3.5t1.5 -2.5t3 -1h25l1 -1.5t2 -2.5v-1v-1q-1 0 -1.5 -1.5l-0.5 -1.5h-26q-2 0 -2.5 -1t-0.5 -2.5t-0.5 -3l-0.5 -1.5q0 -4 0.5 -8t1.5 -9h2q2 0 5 1t5.5 2.5t5.5 2.5t6 1q1 0 3.5 -0.5
t2.5 -2.5q0 -3 -2.5 -4.5t-5.5 -2.5q-1 0 -4 -0.5t-6.5 -1.5t-6 -1.5t-3.5 -0.5v-5q0 -1 2.5 -3t4.5 -3t5 -2t6.5 -2t5.5 -3t2 -4q0 -4 -3 -6t-7.5 -3t-8.5 -2t-6 -2q-1 0 -2.5 -1t-3.5 -2l-4 -2l-2 -1h-1q-1 0 -3.5 2t-6.5 5t-7.5 6.5l-7 7t-5.5 6.5t-2 4q0 2 0.5 3t2.5 2
h5.5t4.5 0.5t4 1.5t5 3l0.5 0.5l0.5 0.5zM65 212q0 -6 2.5 -7t9.5 -1h1l2 0.5t3 0.5v5q0 6 -2.5 7t-8.5 1h-5q-2 -1 -2 -3.5v-2.5zM92 208q0 -4 2.5 -5t5.5 -1q4 0 6 1.5t2 6.5v3v2l-1 0.5l-1 0.5h-11q-1 0 -1.5 -1l-1 -2t-0.5 -2.5v-2.5zM142 203v-8q0 -3 1 -6t3.5 -4.5
t7.5 -1.5h2t3 1t2 4t1 6v7v4q0 4 -2.5 7t-5.5 3q-7 0 -9.5 -2.5t-2.5 -9.5zM78 182q2 0 3 0.5l3 1.5v1.5v1.5q0 4 -1.5 6t-3.5 3t-5 1.5t-6 0.5q0 -3 0.5 -5.5t1.5 -5t3 -4t5 -1.5zM92 188v-4t3 -2q4 0 6.5 3t2.5 6t-1.5 3.5t-4.5 0.5q-4 0 -5 -1t-1 -6zM47 173q0 1 0.5 2
t1.5 1q3 0 7 -3t7.5 -7t6.5 -8.5t3 -7.5q-5 0 -8.5 2t-6.5 5.5l-6 7t-5 6.5v2zM142 169v-3v-3t0.5 -4.5t0.5 -4.5v-3q1 -1 2 -1.5t2 -0.5h2h5h4h3v22q0 1 -1.5 2t-2.5 1l-1.5 0.5t-3 0.5t-3.5 0.5l-2 0.5q-3 0 -4 -2.5t-1 -4.5zM101 152q0 2 2 4.5t4.5 4l5 3t4.5 1.5
q3 0 3 -3q0 -2 -1.5 -4.5t-4 -4t-5.5 -3t-5 -1.5q-3 0 -3 3zM146 135q0 -3 1 -6.5t3 -7t4.5 -5.5t6.5 -3v4t0.5 6t0.5 5.5v3.5q0 6 -3 7.5t-8 1.5q-4 0 -4.5 -1.5t-0.5 -4.5zM68 129q0 -3 4 -6.5t7 -2.5q1 0 2.5 1t1.5 2v12q0 1 -1.5 2t-2.5 1q-3 1 -7 -2t-4 -7zM92 135v-6
v-5t1 -4t2 -1h3q4 0 5.5 2.5t1.5 6.5t-2.5 6.5t-6.5 2.5h-2.5t-1.5 -2zM142 93q0 -2 2 -5t5.5 -6t6.5 -5.5t5 -2.5t5 1t6 3t5 4.5t2 4.5q0 1 -2.5 2t-3.5 1h-1q-1 -1 -3.5 -3t-3.5 -3q-3 0 -3 3v6t-0.5 5.5t-4.5 2.5h-1v0q-1 -1 -2.5 -1.5t-3.5 -1.5l-4 -2t-3 -1
q0 -1 -0.5 -1.5zM76 87q0 -1 0.5 -2t1.5 -1l15 -2q3 0 3.5 1.5t0.5 3.5v2t-2 2q-1 0 -3 0.5t-3 0.5t-3 -0.5l-4 -1t-4 -1.5t-2 -2zM62 38q2 3 4.5 4t5 1t5.5 0.5t6 1.5q1 0 1 3v7t0.5 5.5t3.5 2.5h1q1 -9 4.5 -12.5t7 -5l7 -3t4.5 -5.5q2 -7 3 -12t1 -12q-7 0 -9 3.5t-2 8.5
t-1 8.5t-6 3.5h-1q-1 -1 -2.5 -1.5l-1.5 -0.5v-25q-3 0 -6 0.5t-3 4.5v21q-6 0 -9 -1.5t-4.5 -3.5t-1 -4.5t0.5 -4.5q0 -3 -1 -4.5t-4 -1.5t-4.5 1.5t-1.5 3.5v2q0 1 0.5 3t1 4.5l1 5zM134 29v9t1.5 4.5t4.5 2t8 1.5q3 1 4 3t1.5 4l1 4t3.5 2q1 0 2 -1.5t1.5 -3l1 -3
t1.5 -2.5q1 0 3.5 -1l5 -2t5 -1.5t3.5 -1.5q1 0 2.5 -2t2.5 -3v-2t0.5 -4.5t0.5 -4.5v-3v-1q0 -2 -0.5 -5t-3.5 -3v0q-1 0 -2 0.5t-2 0.5v8t-1 7t-3 4.5t-7 1.5h-2h-2q-2 -2 -2 -4v-4q0 -3 1 -5.5t1 -5.5q0 -1 -0.5 -2.5l-1 -3t-1 -2.5t-2.5 -1q-3 0 -3.5 3t-1.5 6v3.5
t-0.5 5.5t-0.5 6v4q-1 1 -1.5 1h-1.5q-2 0 -5 -1t-3 -3v-13q0 -1 -2 -1h-2q-4 0 -4 3v6z" />
</svg>
