<?xml version="1.0" standalone="no"?>
<!DOCTYPE svg PUBLIC "-//W3C//DTD SVG 1.1//EN" "http://www.w3.org/Graphics/SVG/1.1/DTD/svg11.dtd" >
<svg xmlns="http://www.w3.org/2000/svg" xmlns:xlink="http://www.w3.org/1999/xlink" version="1.1" viewBox="-10 0 266 256">
   <path fill="currentColor"
d="M117 247q0 3 1.5 3.5t3.5 0.5h1h1q1 -2 1 -6t0.5 -8.5l1 -9t0.5 -5.5t0.5 -2.5l1 -3t1.5 -3t2 -1.5l1.5 -0.5t3 -0.5t2.5 -0.5t2 -0.5q7 -2 14.5 -7.5t12.5 -8.5l1.5 -1.5t0.5 -1.5q0 -2 -0.5 -3t-2.5 -1h-1h-1l-2.5 2t-3.5 2q-1 1 -3.5 2.5t-5 3.5t-5 3.5t-3.5 2.5h-4
q-4 0 -5 -0.5t-1 -4.5q0 -5 3 -6t7.5 -2t8 -3.5t3.5 -9.5h-3q-4 4 -6.5 6t-7.5 2q-4 0 -4.5 -0.5t-0.5 -4.5q0 -7 2.5 -10.5t10.5 -4.5v-0.5v-0.5q0 -2 -1 -2.5t-3 -0.5v0q-6 2 -8.5 4t-4 5t-2 6.5t-0.5 8.5h-10q-1 -1 -3.5 -2.5t-6 -3t-6 -2.5t-4.5 -1q0 5 2 7t5 3t7 2t7 2
t5.5 3t2.5 5t-0.5 4.5t-3.5 1.5q-6 0 -11.5 -2t-10.5 -5t-9.5 -7t-9.5 -6q-2 0 -2 1v2q0 3 3 6t7 5.5t8 4.5t7 3q1 0 3.5 1l5 2t5 1.5t3.5 1.5v4v5q0 7 -1.5 13.5t-1.5 12.5zM69 145v23q0 1 1.5 1h1.5q1 0 2 -1q1 -2 1.5 -5.5t1 -6.5t0.5 -6v-4h1h2q4 0 5.5 3t1.5 8v7
q0 3 3 3q2 0 2.5 -3.5t0.5 -4.5q0 -7 -1.5 -10.5t-3 -5t-4 -2.5t-4 -1.5t-2.5 -1.5t-1 -4t2 -3.5t5 -2t5 -4t2 -8.5v-4v-4q-1 -1 -3.5 -2t-5 -1.5t-4 -1.5t-1.5 -3q0 -3 2 -4t5 -3t5 -4.5t2 -7.5q0 -4 -1 -6t-3 -3t-4 -2.5t-3 -4.5q-1 -1 -1 -3t-0.5 -4t-1.5 -3t-3 -2
q-2 2 -2 3v2t0.5 2.5t-0.5 3.5t-3.5 4t-5 3.5t-4 3.5t-1.5 6t1.5 6t4 4t4.5 3.5t2 3.5q0 4 -2 5l-5 2.5t-5 4t-2 8.5q0 5 2 7.5t4.5 3t4.5 1.5t2 4t-3 5t-6 4.5t-5.5 6.5t-2.5 11v3.5t3 2.5l0.5 -0.5l0.5 -0.5q1 -3 1.5 -6.5t2 -6.5t4 -5.5t5.5 -2.5zM159 166v1.5t2 1.5
q3 0 4 -3l2 -6l2 -6t6 -3v0q1 0 1.5 0.5l0.5 0.5v18q3 0 6 -2v-3t0.5 -4t0.5 -4.5v-3.5q1 -2 1.5 -2.5t2.5 -0.5q4 0 5.5 2.5t2 6t1 6t4.5 2.5q1 0 2 -0.5t1 -2.5q0 -9 -3.5 -13t-7.5 -5.5t-7.5 -2.5t-3.5 -3q0 -1 0.5 -1.5l0.5 -0.5l6 -2t5.5 -3t4 -4t1.5 -6q0 -6 -2 -9.5
t-5 -5.5t-5.5 -3t-2.5 -3q0 -3 2 -4.5t5 -3.5t5 -4.5t2 -7.5q0 -6 -1.5 -8t-3 -3.5t-3.5 -2t-3 -3.5v-2.5t-1 -3.5l-1.5 -3t-2.5 -1v0q-1 0 -2 1t-1 2l0.5 2.5t0.5 3.5q0 3 -2.5 4t-5.5 2.5t-5 3.5t-2 8q0 7 3.5 10.5t10.5 5.5v3q0 3 -2.5 5t-5 3.5t-5 3.5t-2.5 6q0 8 2 11
t4.5 4.5t4 2t1.5 3.5t-2.5 5t-6 4.5t-6.5 6.5t-3 10zM103 130q0 9 1.5 13.5t5 6.5t9 2h13.5h3h5h4.5h3.5q3 -2 5.5 -7t2.5 -8v-3t-0.5 -4l-1 -4t-2.5 -2t-3 1t-1.5 2t-2 1.5t-4.5 0.5h-2.5h-2.5l-1 -2v-10q3 0 7 -0.5t7 -1.5t4.5 -4t1.5 -7v-4t-3 -3l-0.5 0.5l-0.5 0.5
q-2 6 -2.5 8t-1.5 3t-3.5 0.5t-8.5 -0.5v-15q1 0 3.5 -0.5t4.5 -1t4 -2t2 -3.5q0 -1 0.5 -3.5t0.5 -5.5t0.5 -5.5t0.5 -3.5q1 0 3.5 -0.5t2.5 -2.5q0 -1 -0.5 -1h-0.5l-1 -1h-49v4l10 3v14q0 1 2 3t4 3q1 2 2 2.5t1.5 0.5t0.5 1v3v3.5v4.5t-1.5 3.5t-3.5 1.5q-5 0 -7 -2.5
t-3 -5.5t-2.5 -5.5t-5.5 -2.5q0 12 7 17t17 5v12l-14 1q-1 -2 -2.5 -3t-4.5 -1q-2 0 -2.5 1t-0.5 3zM110 139v-2q0 -3 1 -3h35q2 0 2 2v2q0 4 -1.5 6t-4.5 3t-6 1h-6h-6t-6.5 -1t-5.5 -2.5t-2 -5.5zM171 121q0 -5 4 -6.5t9 -1.5q4 0 7 2t3 7q0 4 -2.5 7t-7.5 3t-9 -2.5
t-4 -8.5zM62 116q0 -5 3.5 -6.5t8.5 -2.5q5 0 9 2.5t4 7.5t-4 6.5t-8 1.5q-5 0 -9 -1.5t-4 -7.5zM74 72q5 0 7.5 3t2.5 8q0 8 -8 8h-2.5t-3 -0.5t-2.5 -1.5t-1 -2v-10q0 -2 3 -3.5t4 -1.5zM172 83q0 -6 4 -7.5t10 -1.5q3 0 5 2t2 6q0 3 -3.5 6t-6.5 3q-5 0 -8 -2t-3 -6z
M146 69q0 3 -0.5 6.5t-1.5 6.5t-3.5 4.5t-6.5 1.5h-3t-4 -0.5t-3.5 -2t-1.5 -3.5v-11q0 -1 1.5 -1.5t2.5 -0.5h4h6h6h4zM95 43v16q0 1 1.5 1.5t2.5 0.5h1t1 -2v-17q9 -1 15 -5.5t6 -14.5q0 -4 -4 -4q-2 0 -3 2.5t-1.5 6t-2 6t-5.5 2.5q-3 0 -4 -2.5t-1.5 -5.5t0 -5.5
t0.5 -4.5q-1 -3 -5 -3v19q0 2 -2 2.5t-3 0.5q-5 0 -7.5 -3t-3.5 -6l-2 -6t-4 -3t-3 4q0 5 2 9t5.5 6.5t7.5 3.5t9 2zM144 18q0 1 0.5 5t0.5 6q0 4 3 7t6.5 5.5t6.5 4l3 1.5v12q0 1 1 1.5t2 0.5q2 -1 2.5 -3.5t1.5 -4.5q1 -5 2 -6.5t2 -1.5h2.5t5.5 -2q4 -3 7 -8t3 -10
q0 -2 -1 -4.5t-4 -2.5q-2 0 -2.5 3t-1.5 7t-2.5 6.5t-5.5 2.5q-3 0 -3 -3.5v-8t-1 -8t-6 -3.5v22q0 1 -2 1h-3q-5 0 -7 -3t-2.5 -6.5t-2 -6.5t-5.5 -3zM118 51q0 1 1 2.5t3 1.5h27l3 -3l-3 -1h-31z" />
</svg>
