<?xml version="1.0" standalone="no"?>
<!DOCTYPE svg PUBLIC "-//W3C//DTD SVG 1.1//EN" "http://www.w3.org/Graphics/SVG/1.1/DTD/svg11.dtd" >
<svg xmlns="http://www.w3.org/2000/svg" xmlns:xlink="http://www.w3.org/1999/xlink" version="1.1" viewBox="-10 0 266 256">
   <path fill="currentColor"
d="M160 248q2 3 4 3q3 0 4 -2t1 -4v-42l0.5 -1t0.5 -2q1 0 2 -1.5t3 -3.5t3.5 -4t2.5 -3q2 -2 4.5 -3.5t5 -3.5t4.5 -4t3 -4q4 -8 5.5 -16.5t2 -17.5t0.5 -18v-17v-18.5t-2.5 -15t-8.5 -11t-17 -7.5l-1 -0.5t-2.5 -0.5t-2.5 -0.5t-2 -0.5q-1 -1 -1 -3.5v-4.5q0 -4 1 -7.5
t1 -6.5t-1 -6t-5 -3q-1 0 -2 0.5t-1 3.5v23q0 2 -3 5.5t-7 7t-7.5 7t-4.5 7.5q-1 5 -2 11t-4 11q-1 4 -1 7.5t-0.5 7t-0.5 6.5v7q0 7 1 16.5t3 19.5t7 18t12 11q2 -1 2 -1.5v-1.5v-2l-2.5 -2.5t-3 -4t-2.5 -5t-1 -4.5t1 -3l2 -2l2 -2t1 -3t0.5 -5.5t0.5 -7v-7v-5.5
q0 -1 -0.5 -1.5t-2.5 -0.5v0h-1q-1 3 -1 6.5t-1 7.5l-2 8t-2 7l-2 -2q0 -7 -1.5 -13t-1.5 -13v-4v-2l3 -3h20l0.5 3.5t1.5 5.5v9q0 8 -2 15.5t-2 14.5q0 1 0.5 1h0.5q0 1 0.5 2l0.5 1h1q2 0 3 -1.5t2 -4t1 -4.5v-4q0 -1 0.5 -6.5t0.5 -10.5q0 -6 -0.5 -11t-0.5 -7
q1 -2 4 -2.5t7 -1t8 -0.5h5l3 3v3v5q0 5 -0.5 10.5t-1.5 11t-3 10.5t-6 9l-4 4l-6.5 6.5l-6.5 6.5l-4 4q-3 4 -4 9t-1.5 10.5t0 11t0.5 9.5v2v5v4v3zM69 181q0 3 1.5 5t4 3t5 1.5t4.5 0.5q8 0 12 -2.5t6 -7t3 -10t3 -11.5q1 -4 3 -7.5t2 -8.5q-7 0 -10 6t-5 13.5t-4.5 14
t-8.5 6.5t-6 -8q0 -4 1 -9t3.5 -10l5 -10t5.5 -8v-15q0 -2 -1.5 -3.5t-3.5 -2t-4.5 -1t-3.5 -0.5q-5 0 -7.5 3.5t-3.5 7.5t-2 7.5t-5 3.5h-2.5t-1.5 -2v-3v-4q0 -15 8.5 -25.5t21.5 -16.5h2h1q4 0 9 2t9 5.5t7 8t3 8.5t-1.5 8t-6.5 4q-3 0 -4.5 -3.5t-2.5 -7t-2 -6.5t-4 -3
h-2.5t-1.5 1q0 4 1.5 8.5t4 8.5t6 6.5t7.5 2.5q12 0 12 -11q0 -12 -1.5 -17.5t-5 -8t-9 -4.5t-13.5 -8q1 -4 0.5 -9t-1.5 -10t-3.5 -9.5t-5.5 -7.5q-1 -1 -2 -1.5t-2.5 -1t-2.5 -1.5l-1 -1q-2 -2 -3 -6.5t-1.5 -9t-1.5 -8t-3 -4.5q-2 0 -3 1.5t-1.5 4t-0.5 4.5v2v4v4t0.5 4
t1.5 3l16 16q4 4 4.5 10t0.5 10t-3.5 7.5t-8.5 6l-10 5t-7 6.5q-2 3 -4 7t-3 8.5t-1.5 9t-0.5 8.5q0 6 4 9.5t9 3.5q7 0 9.5 -3.5t4 -7t2.5 -6.5t4 -3q2 0 3 2t1 4q0 6 -3 12t-6 11.5t-6 11.5t-3 13zM177 132q0 3 0.5 7t1 8.5t1.5 8.5t1 6h1.5h0.5q3 0 4 -2t1 -4
q0 -1 -0.5 -6t-1.5 -10t-2 -9.5t-3 -5.5q-3 2 -3.5 3t-0.5 4zM140 109q0 -8 2 -16.5t4 -14.5q1 -3 2.5 -6.5t4 -6.5t5.5 -5t6 -2h1l1 1v14v14v2t-0.5 4.5t-0.5 4.5v3v1v3v2v1q-1 2 -1.5 4.5l-0.5 2.5h-21q-2 0 -2 -3v-3zM174 61q8 0 13 3.5t7.5 9t3 12.5t0.5 13v3v3v4v2
q-2 3 -5.5 3.5t-7 0.5h-7.5h-6q0 -14 1 -27.5t1 -26.5zM175 105l3 3q3 -1 5.5 -4.5t4 -8t2.5 -8.5l2 -8q1 -3 -1 -3h-4h-1h-2q-2 8 -4 15t-5 14zM155 78h-1q-1 0 -1.5 0.5l-0.5 0.5v26h5v-23l-0.5 -2t-1.5 -2v0z" />
</svg>
