<?xml version="1.0" standalone="no"?>
<!DOCTYPE svg PUBLIC "-//W3C//DTD SVG 1.1//EN" "http://www.w3.org/Graphics/SVG/1.1/DTD/svg11.dtd" >
<svg xmlns="http://www.w3.org/2000/svg" xmlns:xlink="http://www.w3.org/1999/xlink" version="1.1" viewBox="-10 0 266 256">
   <path fill="currentColor"
d="M205 242q2 4 5 4t3.5 -2.5t0.5 -5.5q0 -11 -1.5 -21.5t-3 -21.5l-3 -22t-1.5 -22q0 -19 3 -36.5t7 -36.5v-1v-1v-4.5t-1 -3.5q-1 -2 -5.5 -7t-10 -10.5t-10 -9.5l-4.5 -4q-2 0 -3.5 0.5t-1.5 2.5q0 4 3 8t6 7v4v5q0 11 -1.5 22l-3 22t-3 22.5t-1.5 22.5h1t2.5 -0.5
t2.5 -1t1 -1.5q1 -4 2 -14t2.5 -21.5t2.5 -21.5t2 -15v-1.5t0.5 -3.5t1.5 -4t2 -2q2 0 3 1.5l2 3t1 3.5v3v4q0 1 -1 5.5t-2 9.5t-1.5 9.5t-0.5 5.5q-1 7 -1.5 12.5t-0.5 10.5v11v12q0 21 3 42t4 42zM168 238q0 2 1 4t4 2q2 0 3.5 -2t1.5 -5q0 -6 -2 -12t-3 -12
q-3 -17 -3.5 -35t-0.5 -34v-5q0 -2 0.5 -8t1.5 -13t1 -13t1 -9q0 -8 2.5 -15.5t2.5 -15.5q0 -3 -3.5 -8t-8 -10t-9.5 -9t-7 -4q0 3 0.5 5.5t1.5 5t2.5 5t2.5 5.5v1q0 5 -2 11t-3 11q-2 13 -3 26t-1 26v2t0.5 4t1 3.5t1.5 1.5h1v0q1 0 1.5 -2t0.5 -3v-8.5t0.5 -11.5t0.5 -12
v-8l1 -4t1.5 -8.5t1.5 -9t2 -6.5v-2.5t1 -2.5t1.5 -2t2.5 0q1 0 3 3t2 4v1q-2 10 -3.5 19t-2.5 18t-1.5 18.5t-1.5 20.5v14v14q1 4 1.5 13t1.5 19.5t1.5 20t1.5 12.5zM99 174q0 12 1.5 20.5t5 13.5t11 7t19.5 2h3t4 -0.5t3 -2t1 -3.5v-2q-4 0 -8.5 -0.5t-8.5 -2.5l-1 -1
l-1 -1v-18q0 -3 3 -3.5t6.5 -1.5t6.5 -4.5t3 -11.5v-7q0 -2 -1 -2.5t-2 -0.5q-4 0 -4 3v6q0 4 -1.5 6.5t-8.5 2.5v-32l2 -1.5t4 -4.5t4 -7.5t2 -9.5v-4v-5q-1 -2 -2.5 -3t-2.5 -1h-2q0 1 -0.5 3.5t-0.5 5t-0.5 4.5t-0.5 3q0 2 -0.5 4.5t-0.5 3.5q-2 1 -5.5 2.5l-7 3t-6 3.5
t-2.5 4v1h2t4 0.5t3.5 1.5t1.5 3v12v10t-0.5 14t-2.5 12.5t-5 5.5q-2 0 -3.5 -2t-2 -4.5t-0.5 -4.5v-3v-6t-0.5 -8.5t-0.5 -8.5v-6q-3 0 -4.5 1.5t-2 3.5t-1 5t-0.5 5zM45 178q0 4 1.5 8t4.5 6.5t6.5 4.5t7.5 2q9 -1 14 -7.5t8 -15t5.5 -17.5t6.5 -16q0 -1 -1 -1.5t-2 -0.5
q-4 0 -6.5 3.5t-4 8.5t-3 11t-3.5 11t-5.5 8t-8.5 3q-10 0 -10 -11q0 -2 1 -4.5t2.5 -4.5l3 -4t1.5 -3q2 -1 4.5 -4t6 -6.5l6.5 -6.5l4 -4q0 -1 1.5 -4t2.5 -4v0q0 -6 -3 -8.5t-7.5 -3.5t-9.5 -1t-9.5 -0.5t-7.5 -3t-3 -8.5q0 -7 5 -11.5t10.5 -8t10.5 -7.5t5 -11
q0 -5 -2 -10t-4.5 -9t-5 -8.5t-4.5 -9.5v-2t-0.5 -3.5t-0.5 -3v-2.5q-2 -4 -5 -4q-2 0 -3 1.5t-1 3.5v4v3q0 6 2.5 10.5t5.5 9t5.5 9t2.5 10.5q0 4 -2 6.5t-5.5 4.5l-7 4t-7 5t-5.5 7.5t-2 11.5t2.5 11.5t7 6.5t9 2.5l9 1t7 1t2.5 1.5q0 3 -5 8l-11 11t-11 13.5t-5 16.5z
M80 95q0 3 2 7.5t4.5 8t6.5 5.5t7 2q8 0 11.5 -5.5t3.5 -12.5q0 -5 -2 -10t-5 -9t-7.5 -6t-10.5 -2h-3.5t-2.5 3q0 2 3.5 3.5t7.5 3.5t7.5 5.5t3.5 10.5q0 5 -1 6t-6 1h-2q-1 0 -1 -1l-10 -10h-6zM140 71q-2 0 -3 2t-1 4t-0.5 4t-0.5 3q-1 2 -3 3.5t-4.5 3t-4 3.5t-1.5 5
q9 0 15.5 -5.5t6.5 -14.5v-2.5v-3.5q-1 -1 -2 -1.5t-2 -0.5zM111 64q0 2 1 3t3 1q7 0 11.5 -4t7.5 -9.5t4.5 -11.5t1.5 -12q0 -2 -2.5 -4.5t-4.5 -2.5q-1 0 -2.5 1.5l-2.5 2.5q1 13 -2 21t-15 13v2z" />
</svg>
