<?xml version="1.0" standalone="no"?>
<!DOCTYPE svg PUBLIC "-//W3C//DTD SVG 1.1//EN" "http://www.w3.org/Graphics/SVG/1.1/DTD/svg11.dtd" >
<svg xmlns="http://www.w3.org/2000/svg" xmlns:xlink="http://www.w3.org/1999/xlink" version="1.1" viewBox="-10 0 266 256">
   <path fill="currentColor"
d="M136 246q0 1 1 3t3 2h1q0 -1 1.5 -2t1.5 -2v-16l1.5 -0.5t3.5 -0.5h4.5h4.5l1.5 -0.5t3.5 -0.5h4h3q7 0 13 1t12 1q2 0 3 -1t1 -3t-1.5 -4t-3.5 -2h-20q-1 0 -2 -1.5t-1.5 -3.5t-0.5 -3.5v-2.5v-2v-3q2 -1 3.5 -1.5t2.5 -0.5t2.5 0.5l1.5 0.5h1.5t3 0.5t3 0.5h1.5
q2 0 4.5 -2t2.5 -4t-3.5 -3t-7.5 -1.5t-8 -0.5h-5q0 -1 -1 -2.5t-1.5 -3t-1.5 -3l-1 -1.5v-1q0 -2 1.5 -3.5t3.5 -1.5h19q1 0 1.5 -1.5t0.5 -2.5q0 -3 -2 -4t-5 -1h-6t-6 -0.5t-5 -2t-2 -5.5q0 -2 1.5 -6t4.5 -4q4 0 7.5 2.5t6.5 5.5t6.5 5t7.5 2q3 0 4.5 -0.5t1.5 -3.5
q0 -5 -4.5 -7.5t-9.5 -4t-9 -4t-4 -6.5q0 -2 2.5 -3t5.5 -1.5t5.5 -1.5t2.5 -4t-2.5 -5t-5.5 -3.5t-6.5 -3t-6.5 -4.5t-5.5 -8t-2.5 -13q0 -1 0.5 -4.5t1 -9t1.5 -12t3 -12t4.5 -9.5t5.5 -4h28q1 0 2 -1l2 -2q0 -2 -2 -3.5t-3 -1.5h-21q-1 0 -1 -1.5v-1.5q0 -2 1 -4t2 -3.5
t2 -3.5t1 -4t-1 -2.5t-3 -0.5q-6 0 -9 5.5t-5 11.5t-4 11.5t-6 5.5q-3 0 -4 -5t-1.5 -11t-2 -11.5t-6.5 -5.5q-2 0 -3 1.5t-1 3.5q0 3 1 5.5t1 5.5q0 1 -2 2.5t-3 1.5h-17q-1 0 -1.5 2t-0.5 3v2t2 1h24l7 8l0.5 2.5t1 5.5t0.5 6.5v5.5v4v16t-3 16q-2 3 -7 8t-10 9.5
t-9.5 8.5t-4.5 7q3 0 5 -0.5t4 -1.5t4 -1.5t4 -0.5t4 1.5t4 3.5q-3 3 -6 5l-6 4t-5 5t-1 9v26v15v13.5t0.5 13.5t1.5 15zM101 236l2 8l0.5 0.5t1.5 0.5q4 0 6.5 -1.5t2.5 -6.5q0 -14 -1.5 -28.5t-1.5 -29.5v-77q-1 -10 -4.5 -13.5t-7.5 -5t-7.5 -2.5t-3.5 -4q0 -5 2 -7.5
t5 -4l6 -3t6 -3.5t5 -6.5t2 -11.5v-7q-5 -4 -10.5 -4.5t-11.5 -2.5q-7 -1 -10.5 -4t-5.5 -6t-3.5 -5t-3.5 -2q-3 0 -3.5 1t-0.5 4q0 6 3 10.5t8 8.5v1v1q-2 2 -4.5 5t-6 5.5t-6 5t-4.5 3.5v1q0 4 4 4q6 0 9 -3.5t6 -8.5t6.5 -8.5t8.5 -3.5h5t5.5 1t4.5 3t2 5t-2.5 5.5
t-5.5 4.5t-5.5 3t-3.5 2q-3 2 -4 4.5t-1.5 5l-1 5t-1.5 5.5q-2 2 -7 2.5t-10 1.5t-9 3t-4 7q-2 23 -1.5 45.5t-2.5 44.5q-1 13 -3.5 26.5t-2.5 26.5q0 3 1 3.5t4 0.5t5.5 -3t3.5 -8.5t1.5 -11.5t0.5 -12v-11v-8q1 -1 4.5 -4t7 -6.5t7.5 -6t5 -2.5h1q1 0 4.5 2t3.5 3
q1 1 3 2.5t4 3.5t3 3.5l1 1.5v52zM142 213q0 -3 1.5 -5t4 -3t5 -1h4.5q1 0 2.5 1t2 3l1 4t0.5 3q0 4 -2.5 5.5t-5.5 1.5t-5 -0.5t-4 -1.5t-3 -2.5t-1 -4.5zM140 185q0 -5 3 -6.5t9 -1.5l2.5 0.5t3.5 0.5l0.5 0.5l0.5 0.5q1 0 1.5 3.5t0.5 4.5v1q0 5 -2.5 6t-6.5 1
q-6 0 -9 -2t-3 -8zM57 165v-1l0.5 -3t0.5 -6t0.5 -5.5l0.5 -2.5q0 -1 -0.5 -2.5t0 -4t0.5 -4.5t1 -3l17 -11q1 0 2.5 -0.5t2.5 -0.5q4 0 8 2.5t7 6t4.5 7.5t1.5 8v3v2v3v2v3v3t-0.5 4t-1 3.5t-2.5 1.5q-1 0 -1.5 -0.5t-1.5 -0.5l-13 -11v-21q-1 0 -3 -0.5t-3 1.5v4v6t-0.5 6
t-0.5 4q0 2 -2 4t-4.5 4t-5 3.5t-3.5 1.5q-2 0 -3 -2.5t-1 -3.5zM142 160q0 -6 5.5 -10t11.5 -4q1 0 1.5 3t0.5 5.5v2.5v6t-2 6h-5q-5 0 -8.5 -1.5t-3.5 -7.5zM162 127q-1 0 -2 0.5t-2 1.5l-2 2t-3 1t-3.5 -0.5t-1.5 -3.5q0 -1 2 -3t4 -3.5t4.5 -3t3.5 -1.5q2 0 4.5 1t5.5 3
t5 4t2 4q0 3 -2.5 4.5t-5.5 1.5q-2 0 -3 -1.5t-1.5 -3t-1.5 -2.5t-3 -1zM85 100v-7q2 -3 4 -3.5t4 -0.5q4 0 6 3.5t3 8.5t1 9v7v0l-2 2l-1 1h-1q-4 0 -6.5 -2t-4 -5t-2.5 -6.5t-1 -6.5zM60 104q0 -6 2 -9.5t9 -3.5q3 0 4.5 1.5t2 3.5t0.5 5v6v2q0 3 -1 3q-1 3 -4.5 5t-6.5 2
t-4 -1.5t-1.5 -4t-0.5 -4.5v-5zM126 99q0 2 2 3.5t4.5 1.5h5h3.5h6q2 -2 4 -5t2 -6v-27q0 -1 -1 -1h-2q-2 0 -3 1.5t-1.5 4t-2 4.5t-4.5 2t-4 -1.5t-1.5 -3.5l-1 -4t-2.5 -2q-1 0 -1.5 1l-0.5 1q-2 5 -2 9.5v9.5v12zM175 93q1 2 1.5 5t3.5 4q1 0 4 0.5t4 0.5q7 0 10.5 -2
t5 -5.5t1.5 -9v-11.5v-3v-4v-3.5v-2.5l-0.5 -1l-0.5 -1h-1q-4 0 -5 3t-1.5 6t-2 6t-6.5 3q-3 0 -4.5 -3.5t-3.5 -6.5h-0.5h-1.5q-3 0 -3 4v21zM134 90q0 -3 1.5 -5t5.5 -2q3 0 3.5 2.5t0.5 4.5q0 3 -0.5 5.5t-4.5 2.5q-3 0 -4.5 -2.5t-1.5 -5.5zM181 91q0 -2 0.5 -2.5
t1.5 -2.5h2.5h2.5q3 0 4.5 0.5t1.5 3.5q0 4 -2.5 5t-5.5 1q-5 0 -5 -5z" />
</svg>
