<?xml version="1.0" standalone="no"?>
<!DOCTYPE svg PUBLIC "-//W3C//DTD SVG 1.1//EN" "http://www.w3.org/Graphics/SVG/1.1/DTD/svg11.dtd" >
<svg xmlns="http://www.w3.org/2000/svg" xmlns:xlink="http://www.w3.org/1999/xlink" version="1.1" viewBox="-10 0 266 256">
   <path fill="currentColor"
d="M178 242q0 2 2 5.5t5 3.5q1 0 2.5 -1.5l2.5 -2.5v-3v-4v-6t-2 -6v-50q0 -1 1.5 -1.5t3.5 -0.5l1 0.5l1 0.5q5 4 8.5 6t8.5 2q2 0 4 -0.5t2 -3.5v-1q0 -1 -2 -3l-2 -2l-36 -17q-2 -1 -3.5 -4t-1.5 -5l1 -0.5t1 -1.5l-1 -1.5l-1 -1.5q0 -1 -0.5 -1.5t-1.5 -0.5l-28 -3
q-3 -1 -5.5 -3.5t-3.5 -5.5v-3.5v-4.5v-5v-4q0 -23 2.5 -46t2.5 -46v-6q-3 -4 -7 -4q-2 0 -2.5 1.5t-0.5 3.5q0 5 1 9.5t1 9.5v2q0 1 -2 3.5t-2 3.5q-2 16 -2 33.5v33.5v26q1 3 4 4.5l5 2.5q1 0 5 0.5t8 1.5t7.5 1h4.5v5q0 1 -1.5 2.5t-3.5 4t-4.5 4.5t-3.5 3q-2 2 -5.5 3.5
t-6.5 3t-6.5 4t-5.5 5.5l1.5 1.5l1.5 1.5q1 0 3 -0.5t3 -0.5q0 -1 1.5 -1.5t3 -1.5t3.5 -1.5t2 -1.5h0.5h0.5h0.5h0.5l1 4v10q0 13 -1.5 25.5t-1.5 25.5v4t3 2q4 0 5.5 -6.5t1.5 -16.5t-0.5 -21.5t0.5 -21t4 -16t10 -6.5q5 0 8 1.5t4.5 5t2 7.5t0.5 9q0 9 -1 18.5t-1 19.5
v20zM50 210q0 8 3 12.5t7.5 7t11 3.5t13.5 1h3h4h4h3q5 -2 7.5 -8.5t3.5 -14.5t1 -16v-11v-2q0 -2 -0.5 -3.5t-0.5 -3.5v-2q-1 -2 -2 -2.5t-3 -0.5q-1 0 -2 0.5t-1 2.5v3v4v4v3q-1 3 -2.5 3.5t-2.5 0.5q-5 0 -7.5 -3t-3 -7t0 -8.5t0.5 -7.5v-2v-3.5v-3.5v-2q1 -3 3.5 -4
t5.5 -1.5t5.5 -1t5 -3.5t4 -9.5t1.5 -17.5v-3t-0.5 -4t-1.5 -3t-3 -1q-3 0 -4 2.5t-1 4.5v3t0.5 4l1 4t0.5 3v1q0 1 -0.5 3l-1 4t-1.5 3.5t-2 1.5h-12v-9v-11q0 -5 0.5 -10t2.5 -9q1 -3 3.5 -4.5t4.5 -3t3.5 -3.5t2.5 -5v-4t0.5 -7t0.5 -7v-4q1 -2 3 -2.5t4 -1.5l4 -2t2 -3
t-1.5 -3t-4.5 0q-7 1 -16 1.5t-18.5 1l-19 1t-17.5 -0.5q0 1 -1.5 2t-1.5 2l0.5 1.5t1.5 1.5q0 1 0.5 2l0.5 1h20v21l1.5 2t2.5 3q1 2 3 3t3.5 1.5t3 1.5t2.5 3q1 7 1.5 13t0.5 13v14q0 3 -2 3h-3q-6 0 -11 -2t-5 -9q0 -5 1 -10.5t1 -11.5q0 -3 -1.5 -5t-4.5 -2q-4 0 -4 5
v3.5t1 4.5v25q0 3 2.5 4.5t5 2t6.5 1t6.5 2t5 4t2.5 8.5v3q-1 5 -1 9.5t-0.5 8t-3 6t-7.5 2.5q-1 0 -3 -0.5t-3 -0.5v-3.5v-5t-0.5 -5t-0.5 -3.5q-1 -2 -2 -3.5t-3 -1.5h-2t-2 2q0 6 -0.5 11t-0.5 9.5v9.5v10zM68 222q-5 -4 -6.5 -6.5t-1.5 -8.5v-6l2.5 -2.5t2.5 -1.5l27 -2
q5 0 6.5 4.5t1.5 7.5t-0.5 5.5t-2.5 5t-3.5 4t-3.5 1.5h-3h-4t-6 -0.5t-5.5 -0.5h-3.5zM146 123q15 0 29 1t29 1q1 0 4 -1t2 -4q-1 -4 -3.5 -5.5t-6.5 -1.5h-4h-7h-7h-4l-1.5 -3t-0.5 -3q0 -4 3 -6t7 -2.5t8 0t6 0.5q1 0 1.5 -1t0.5 -2q0 -2 -1 -4t-3 -2h-17l-0.5 -0.5
t-1.5 -0.5q0 -1 -1.5 -3l-1.5 -2q0 -1 0.5 -2t1.5 -2.5t2 -2l1 -0.5h5h6.5t6.5 -1.5t3 -5.5q0 -3 -2.5 -4t-6.5 -1h-1.5t-3.5 0.5t-3.5 0.5h-1.5q-3 0 -4 -2t-1 -5v-1q0 -1 0.5 -3.5t0.5 -3.5q7 -2 13.5 -2h12.5q2 0 2 -1.5v-2.5q0 -2 -1.5 -3.5t-3.5 -2t-4 -0.5h-3h-2
t-4 0.5t-3.5 1t-2.5 0.5h-1h-1q0 -1 -1.5 -2.5l-1.5 -1.5v-1.5t0.5 -3t0.5 -2.5v-2l0.5 -2t0.5 -3q0 -3 -1.5 -7.5t-6.5 -4.5q-2 0 -3 2t-1 3v21l-0.5 1.5t-1.5 2.5l-0.5 0.5t-1.5 0.5h-18q-1 0 -2 1l-1 1l-0.5 0.5l-0.5 0.5h0.5t0.5 1l1 1.5t2 1.5h3.5h4.5h5.5h3.5l1.5 0.5
t1.5 1.5l2 14l-4 3h-16q-1 0 -2 1t-2 3l0.5 1t1.5 2l0.5 1t1.5 1h18v13q0 2 -3.5 2h-7.5t-7.5 0.5t-3.5 3.5q0 1 0.5 2t3.5 1h18q2 0 2 3v3q0 5 -2.5 7.5t-6 3t-8 0.5h-8.5q-1 0 -1.5 1l-0.5 1v0.5v0.5q0 2 2 3t3 1zM68 77q0 -1 0.5 -2.5t0.5 -3.5t0.5 -4l0.5 -2
q5 -2 10.5 -3t10.5 -1q4 0 5 2t1 6q0 9 -2.5 14.5t-11.5 5.5q-2 0 -4.5 -1t-5 -2.5t-4 -4t-1.5 -4.5zM53 35v0l2 2h20h18q8 0 17 -2l0.5 -0.5l0.5 -0.5q0 -2 -0.5 -2.5l-1.5 -1.5h-21h-21h-2q-2 0 -4.5 0.5t-4.5 1t-3 2.5v1z" />
</svg>
