<?xml version="1.0" standalone="no"?>
<!DOCTYPE svg PUBLIC "-//W3C//DTD SVG 1.1//EN" "http://www.w3.org/Graphics/SVG/1.1/DTD/svg11.dtd" >
<svg xmlns="http://www.w3.org/2000/svg" xmlns:xlink="http://www.w3.org/1999/xlink" version="1.1" viewBox="-10 0 266 256">
   <path fill="currentColor"
d="M154 191q0 10 2 14.5t5 6t7 1t7 -0.5q4 0 7.5 2t6.5 8q0 1 0.5 2.5t1.5 1.5q0 1 1 2.5t2 3.5t2 3.5l1 1.5v4q0 3 0.5 5t1.5 3.5t4 1.5t4.5 -2t1.5 -4t-0.5 -3l-1.5 -3q0 -2 -2 -6l-4 -8t-3.5 -8t-2.5 -5q-3 -4 -9 -5t-11 -2t-9 -2.5t-4 -6.5t3 -7.5t7.5 -4t10.5 -2.5
t10.5 -4.5t7.5 -9.5t3 -16v-8v-5.5t-1 -7.5t-1.5 -8t-0.5 -5t-0.5 -2.5t-1.5 -3t-2 -2.5t-3 -1v0q-1 0 -1.5 0.5l-0.5 0.5v3.5v3.5q0 9 1.5 17.5t1.5 17.5t-3 14t-7.5 7.5t-10 3.5t-9.5 2.5t-7.5 4t-3.5 7.5zM65 229q0 3 1.5 3.5t3.5 0.5q4 0 6 -3t3 -6q0 -2 1.5 -5.5
t2.5 -7.5t2 -6.5t2 -3.5q0 -1 1 -5.5t1.5 -9.5t1.5 -10t1 -7q1 0 1 -3v-5.5t0.5 -5.5t0.5 -4v-21q0 -6 0.5 -10.5t1.5 -9.5t1 -9.5v-11.5q1 -2 3 -4t4 -2q1 0 2 0.5t2 1.5q0 5 0.5 9t0.5 8.5v8.5v9q0 11 -0.5 22.5t-0.5 22.5q0 2 0.5 3.5t2.5 1.5t3 -2t1.5 -4t0.5 -4v-4
q0 -7 -0.5 -14t-0.5 -14q0 -3 0.5 -6.5t0.5 -6.5t-0.5 -5t-0.5 -4v-1v-1l0.5 -2l0.5 -2v-1v-1v-7t-0.5 -8.5t-0.5 -7v-2.5l-3 -3q0 -1 -3 0.5l-5 2.5l-2 2l-2 2h-1q-1 0 -3 -5.5t-3 -12.5t-2 -13.5t-1 -8.5q0 -1 0.5 -3.5t0.5 -3.5l3 -3q1 -1 5.5 -1t9 -0.5t8 -1.5t3.5 -4
q0 -1 -1 -2t-3 -1.5t-3.5 0t-2.5 0.5t-5.5 0.5t-10.5 1t-12.5 1.5t-12 1.5t-9.5 1.5l-4 1q0 1 1 2.5t2 2.5h3h3h2.5h2.5l1 -0.5t2.5 -0.5t2.5 -0.5l1 -0.5q3 0 3 1.5v2.5v1v1q-1 1 -2.5 2t-3.5 2t-3.5 2t-2.5 2t-4 3t-6.5 4t-6.5 4l-3 2q0 1 1.5 2t3.5 1q4 0 8 -2.5t7 -5.5
t6.5 -5.5t5.5 -2.5q1 0 2 1.5t1 3.5v4v3q0 4 -5.5 10.5t-12.5 12.5t-12.5 11t-5.5 7t1 3t3 1q3 0 8.5 -4.5t10.5 -10.5t8.5 -10.5t4.5 -4.5q3 0 4.5 2t2.5 4.5t1 5.5v5t-4.5 8t-10 13t-11 13t-7.5 8q-2 1 -3.5 3t-3.5 4t-3 3.5l-1 1.5v8l3 1h1q2 0 4.5 -3t5 -6.5t4.5 -7.5
l3 -6q3 -2 5 -5l4 -6t4.5 -4.5t6.5 -1.5v1.5v2.5q0 2 -0.5 8t-1 13t-1 13.5t-0.5 7.5q-1 5 -2 13.5t-2.5 17.5t-3.5 16.5t-4 11.5q-1 1 -2 3t-2 4.5t-2 4.5t-2 3v1zM136 162q1 2 3.5 2.5t4.5 0.5q3 0 6.5 -0.5t5.5 -4.5l-2 -2h-12q-1 0 -1 -2.5v-3.5q0 -3 1.5 -3.5t4 -1
t4.5 -1.5t2 -3q0 -3 -2 -3t-4 0.5t-4 0t-2 -2.5q0 -4 1.5 -5t3.5 -2t4 -2.5t2 -4.5h-11q-1 0 -1.5 -1.5l-1 -3l-1 -3t-1.5 -1.5q-4 4 -4 9q0 8 0.5 18.5t3.5 19.5zM166 115v44q0 1 2 2t4 1.5t4 0.5h3h6l0.5 -0.5l0.5 -0.5v-0.5v-0.5q0 -2 -2 -3t-5 -1.5t-5.5 -2t-2.5 -4.5
q0 -6 4 -7t8 -1l2 -3q-2 -2 -6.5 -2.5t-5.5 -0.5l-2 -3v-1q0 -2 1.5 -3t4 -1.5l5 -1t3.5 -2.5q-1 -2 -3.5 -2.5t-5 -0.5t-5 -1.5t-3.5 -6.5zM132 87q0 3 0.5 6t2 6.5t4 5.5t5.5 2h36q5 0 10.5 -3.5t7.5 -8.5v-4.5v-4.5v-7q0 -3 -0.5 -6.5t-2 -6.5t-4.5 -4h-4.5t-5.5 -0.5
t-6 -0.5h-4h-1q-7 0 -13.5 1t-12.5 4t-9 8t-3 13zM165 90q2 0 4 0.5l4 1t3 2t1 3.5v1v2q-3 0 -6.5 0.5t-7.5 1t-7 0.5h-6q0 -3 1.5 -5t3.5 -3.5t5 -2.5t5 -1zM137 92q0 -1 0.5 -3.5t1 -6t2 -6t3.5 -2.5q1 0 3.5 1t5 2.5t4.5 3t2 3.5q0 1 -2 3t-5 4t-5.5 3.5t-4.5 1.5
q-1 0 -3 -0.5t-2 -3.5zM176 85q0 -3 4 -5.5t7 -2.5t4.5 2.5t0.5 5.5q0 2 -1.5 5.5t-4.5 3.5q-1 0 -3 -1t-3.5 -2t-2.5 -2.5t-1 -3.5zM156 73q0 -1 2.5 -2.5t6 -2.5t6.5 -1.5t5 -0.5q3 0 3 3q0 5 -4.5 7.5t-8.5 2.5q-2 0 -6 -1.5t-4 -4.5zM135 41v4v5.5t1.5 4.5t3.5 2h1
l0.5 -0.5l0.5 -0.5v-27q2 -4 2.5 -6t0.5 -5t-0.5 -4.5t-2.5 -1.5q-3 0 -4.5 4t-2 9t-0.5 9v7zM156 37v5.5t1 4.5t3 3.5t6 1.5q0 -5 -2 -8.5t-2 -8.5t2.5 -9.5t2.5 -9.5q0 -4 -4 -4q-2 0 -3 3.5t-2 7.5t-1.5 8.5t-0.5 5.5zM178 33q0 5 0.5 8.5t1.5 6t4 3.5t8 1
q0 -2 -1.5 -4.5t-2.5 -4.5l-2 -4t-1 -5q0 -4 2 -8t2 -8q0 -2 -1 -4t-3 -2q-3 0 -4.5 3t-2 6.5t-0.5 7.5v4z" />
</svg>
