<?xml version="1.0" standalone="no"?>
<!DOCTYPE svg PUBLIC "-//W3C//DTD SVG 1.1//EN" "http://www.w3.org/Graphics/SVG/1.1/DTD/svg11.dtd" >
<svg xmlns="http://www.w3.org/2000/svg" xmlns:xlink="http://www.w3.org/1999/xlink" version="1.1" viewBox="-10 0 266 256">
   <path fill="currentColor"
d="M126 128q0 8 1.5 15.5t4.5 13.5t8 10.5t12 6.5q2 0 4.5 0.5t5.5 1t6 1.5t4 3q3 2 5.5 8.5t5 14.5t4.5 16.5t4.5 15.5t5 11.5t5.5 4.5t6 -1.5t3 -5.5v-2h-1q0 -1 -1 -2.5l-2 -3l-2 -3l-1 -1.5q-4 -7 -6 -14.5t-6 -13.5q0 -1 -1 -3t-2 -4.5t-2 -4.5t-1 -3q-3 -8 -5.5 -17.5
t-4 -19.5t-2 -20t-0.5 -18v-3v-3q1 0 4.5 -0.5t7 -0.5t7 -0.5t5 -0.5h2.5q2 0 4 -0.5t3.5 -1.5t1.5 -4q0 -1 -0.5 -2t-2.5 -1h-29l-0.5 -1.5t-0.5 -2.5q-2 -4 -2 -8v-7v-8v-9v-4v-7v-7v-5l1 -2.5t2 -2.5l19 -4q1 0 1.5 -2t0.5 -3q0 -3 -2 -4.5t-5 -1.5q-2 0 -3.5 0.5
t-3.5 3.5q-12 0 -22 0.5t-17.5 4.5t-11.5 12t-6 24v7.5t-0.5 15t-0.5 17v13.5v12zM49 211l9 8l2.5 0.5t6.5 1t8.5 1t7.5 1.5h2h3q1 0 4 -0.5t6.5 -1t6.5 -0.5h4q3 -1 4 -2.5t1 -3.5t-0.5 -3t-2.5 -1h-27l-1 -2q-1 0 -1 -2t-0.5 -5t-0.5 -6v-5v-8v-8q2 -1 5.5 -2.5t7.5 -4
t7 -5t5 -4.5q0 -10 0.5 -17.5t0.5 -14.5t0.5 -14t0.5 -16v-4t-0.5 -6.5t-1.5 -6t-4 -2.5h-1.5t-1.5 2v6.5v9.5v9.5v6.5v3t-0.5 6t-0.5 6v3q-1 4 -0.5 9t-0.5 10t-3.5 8.5t-7.5 3.5q-3 0 -4 -2.5t-1 -5.5v-17q0 -11 1 -23t1 -23q0 -4 -1 -7.5t-1 -7.5q0 -3 3.5 -6.5l7.5 -7.5
t7 -9.5t3 -14.5v-8t-1.5 -9t-4 -7t-7.5 -3h-25q-3 0 -5 2t-4 5t-3 6t-1 5v1v6.5t0.5 7t1 6.5l0.5 3q0 4 3.5 7t7 4.5t6.5 2t3 1.5v139q0 2 -1 3t-3 1t-5.5 -1t-4.5 -3l-3 -21v-94q0 -2 -2.5 -4.5t-3.5 -2.5h-1l-0.5 0.5l-0.5 0.5q-1 9 -1.5 18.5t-0.5 19v19.5v17v9v10v8v5z
M132 126v-2v-3v-3.5v-1.5q2 -4 5 -5.5t6 -2t6.5 -0.5h5.5h4h3l4 4q0 11 2.5 23t2.5 23q0 2 -1 5t-4 3q-7 0 -13.5 -3t-11 -8.5t-7 -13t-2.5 -15.5zM136 99v-14v-10v-9t0.5 -9t0.5 -11q1 -4 4 -6.5t6 -4t7 -2t7 -0.5h2t1 2q0 3 0.5 10.5t0.5 15.5t0.5 15.5t0.5 10.5v6v6
q-8 1 -13 1.5t-11 0.5h-3.5t-2.5 -2zM59 39v-5t1 -6t2 -5.5t4 -2.5h22q1 0 2 2t1.5 4.5t1 5.5t0.5 5q0 3 -1 6.5l-2 7t-3.5 6t-5.5 2.5q-4 0 -8 -1t-7 -3.5t-5 -6.5t-2 -9z" />
</svg>
