<?xml version="1.0" standalone="no"?>
<!DOCTYPE svg PUBLIC "-//W3C//DTD SVG 1.1//EN" "http://www.w3.org/Graphics/SVG/1.1/DTD/svg11.dtd" >
<svg xmlns="http://www.w3.org/2000/svg" xmlns:xlink="http://www.w3.org/1999/xlink" version="1.1" viewBox="-10 0 266 256">
   <path fill="currentColor"
d="M158 198v3v3.5v3.5v2l0.5 1.5t0.5 3t0.5 3l0.5 1.5v9.5t0.5 10.5t3 8.5t8.5 3.5q2 0 3 -0.5t1 -2.5v-2q0 -1 -1 -3.5l-2 -5l-2 -5t-1 -3.5q-1 -12 -1.5 -20.5t-0.5 -18.5q0 -2 0.5 -7.5t1 -11.5t2 -10.5t2.5 -4.5q4 0 7 5.5t5.5 12.5t6 12.5t7.5 5.5q3 0 4 -1t1 -4
q0 -5 -4 -10.5t-8.5 -11t-8 -11t-3.5 -11.5t3 -11.5t7 -11t7 -11t3 -12.5q-6 0 -10.5 5.5t-7 12t-4.5 11.5t-4 5h-1l-0.5 -0.5t-0.5 -1.5q-1 -10 -3 -19.5t-2 -20.5v-7l2 -2l3 -3h1v0q1 0 2 0.5t2 0.5t1.5 0.5t1.5 0.5h1h5t6.5 -0.5t6 -1.5t2.5 -3q0 -4 -4 -5h-20h-2.5
t-3.5 -0.5t-3.5 -1t-2.5 -1.5v-1q0 -6 3 -8.5t6.5 -3.5t8 -1.5t8 -2.5t6 -6.5t2.5 -13.5q0 -3 -1 -7t-5 -4q-1 0 -2.5 2.5t-2 6.5t-2 8.5t-3.5 7.5l-1 1h-13q0 -7 0.5 -15t0.5 -15q0 -3 -2 -4.5t-4 -1.5t-4.5 1t-2.5 4v49q0 1 -0.5 2t-0.5 2v0v1q0 1 0.5 2l0.5 1
q-1 0 -4 0.5l-6 1t-6 0.5h-4h-3q-3 0 -4 -2t-1 -4v-2.5t1 -1.5q0 -1 0.5 -3.5t0.5 -5.5t0.5 -5.5t0.5 -3.5v-2q0 -2 -1.5 -2.5t-3.5 -0.5t-3.5 0.5t-2.5 3.5v18l-1 3l-1 3q-2 19 -2.5 38.5t-0.5 38.5v8q2 3 3.5 4.5t3.5 2.5t4 1.5t5 0.5q8 0 12 -3.5t6 -9t2.5 -12t0.5 -12.5
v-3q0 -1 -0.5 -2.5t-0.5 -4t-0.5 -4t-0.5 -2.5l-1.5 -1.5l-1.5 -1.5h-1q-2 0 -3 1.5t-1 3.5q0 4 1 7.5t1 7.5v6q0 5 -1 9.5t-3 8.5t-7 4q-2 0 -5.5 -1.5t-4.5 -4.5v-8q0 -9 0.5 -17.5t0.5 -16.5q1 -9 2 -14t4 -8t8 -3.5t14 -0.5h4q0 8 1.5 16.5l3 17l3 17t1.5 17.5
q0 4 -1.5 9.5t-2.5 10.5t-2.5 10t-2.5 10v2v2.5v3.5v3zM58 88q-2 0 -3.5 1.5t-2 4t-1 4.5t-0.5 3v86q0 4 4.5 6t10 3.5t11 2.5t8.5 3h17l1 -0.5t1 -1.5t0.5 -2l0.5 -1q0 -2 -3 -3.5t-4 -1.5h-15q-3 -1 -3 -3v-4q0 -5 0.5 -9t1.5 -9q1 -3 4 -4.5t6 -3.5t5.5 -4.5t3.5 -5.5
q0 -2 0.5 -6t1 -8.5l1 -9t0.5 -5.5v-2v-1v-1t-0.5 -5t-0.5 -8t-0.5 -8t-0.5 -5q1 -3 -0.5 -3h-3.5h-1h-1q-2 11 -2 24.5v24.5q0 2 -0.5 5t-2 5.5t-3 4.5t-3.5 2q-1 0 -2 -0.5t-1 -1.5v-25q0 -4 -0.5 -10.5t-0.5 -13.5t0.5 -14t1.5 -11q1 -2 4.5 -3.5t7.5 -3.5t7 -4.5t3 -6.5
v-21q0 -3 -2.5 -5.5t-6 -5t-7 -3.5t-5.5 -1q-3 0 -7.5 1t-8.5 3t-7 5t-3 7v22q0 3 2 5t5.5 3.5t5.5 2.5t2 2v95v3t-0.5 5t-1 5.5t-1.5 4.5q0 2 -1 2t-3.5 -1t-3.5 -1q0 -4 -0.5 -7.5t-0.5 -6v-4.5v-6q0 -15 1 -29t1 -28v-3q0 -3 -0.5 -5.5t-0.5 -4.5v-3l-1 -0.5t-2 -0.5
q0 -1 -1 -1zM67 48q0 -6 4 -10.5t11 -4.5q8 0 11 5t3 12q0 8 -4.5 12t-12.5 4q-4 0 -6.5 -1.5t-3.5 -4t-1.5 -6t-0.5 -6.5z" />
</svg>
