<?xml version="1.0" standalone="no"?>
<!DOCTYPE svg PUBLIC "-//W3C//DTD SVG 1.1//EN" "http://www.w3.org/Graphics/SVG/1.1/DTD/svg11.dtd" >
<svg xmlns="http://www.w3.org/2000/svg" xmlns:xlink="http://www.w3.org/1999/xlink" version="1.1" viewBox="-10 0 266 256">
   <path fill="currentColor"
d="M185 176v70q0 1 1.5 2t2 1.5t1.5 1l1 0.5q4 -2 4.5 -3.5t0.5 -3.5q0 -23 -2 -45.5t-3 -44.5q0 -3 -0.5 -10.5t-1 -15.5t-1 -15.5t-0.5 -10.5q-2 -9 -3 -15.5t-3.5 -10.5t-7.5 -6t-17 -3q-1 0 -5 -0.5t-8.5 -0.5t-8 -0.5t-5.5 -0.5v-57l-0.5 -0.5t-1.5 -0.5
q-1 -1 -2.5 -1.5t-2.5 -0.5l-1 1.5l-1 1.5v59l-37 3q-3 0 -5.5 2t-4.5 5t-2.5 6t-0.5 6v43q-2 6 -3 13.5t-1 14.5q0 8 0.5 15t0.5 14l-2 12t-2.5 12.5t-2.5 12.5t-1 12q0 3 1 5.5t5 2.5q3 0 5 -6t2.5 -13.5l1 -15t0.5 -9.5q0 -1 0.5 -4.5t0.5 -7t0.5 -6.5t0.5 -4v-5v-9v-9
v-5q0 -16 1.5 -32t0.5 -32q4 -7 11 -10t14.5 -4.5t16 -1t14.5 0.5q9 0 17.5 1t17.5 2q2 1 3.5 4l1.5 3q0 1 0.5 3t1.5 4t1.5 4l0.5 2q1 4 1.5 13t1.5 19t1.5 19t0.5 13v4.5v3.5v3t1 5zM99 204q1 5 8.5 7.5t16.5 3.5t18 1h13q1 0 4 -0.5t4 -0.5t1.5 -0.5t0.5 -1.5v-1.5v-0.5
q-1 -1 -1.5 -2.5l-0.5 -1.5h-29q-1 0 -2 -1t-1 -2v-2v-2v-5.5t1 -5.5q4 0 7 -0.5l6 -1t6 -2.5t5 -5v-4.5t0.5 -7.5t0.5 -7.5v-5.5v-1v-2v-3.5t-2 -2.5h-1q0 1 -1 2l-1 1v10q0 5 -1.5 10t-4.5 9t-9 4h-2h-1l-2 -3v-39l-1 -0.5t-2 -0.5v0h-1v0q-1 0 -1.5 0.5l-0.5 0.5
q0 2 -1.5 5.5l-1.5 3.5v53q0 2 -2.5 3.5t-3.5 1.5q-7 0 -10.5 -7t-4.5 -16t-1 -18v-12q0 -1 -0.5 -1.5l-0.5 -0.5h-1q-4 0 -4 3v3q1 3 1.5 9.5t1 13.5t0.5 13.5t1 9.5zM103 130l1 2q1 0 3 1l2 1h35q4 0 6 -4t2.5 -9.5t0.5 -11.5v-7v-3.5v-5.5t-1 -5t-4 -2t-4 3l0.5 1.5
t1.5 1.5v1v1q-1 0 -1.5 2.5l-0.5 2.5q-1 0 -4.5 0.5t-8 0.5t-7.5 0.5t-5 0.5h-4h-5q0 -1 -1 -3t-1.5 -4t-1.5 -3.5t-3 -1.5t-2.5 1t-0.5 3q0 9 1.5 18.5t1.5 18.5zM109 115v-3.5v-3.5q6 -1 12.5 -1.5t13.5 -0.5q2 0 5.5 0.5l3.5 0.5l2 1v5v5q0 2 -1 4t-2.5 3.5t-4.5 1.5h-23
q-3 0 -4 -1.5t-1.5 -3.5t-0.5 -4v-3zM51 56q0 2 3 3.5t5 1.5q8 -4 15 -6t12 -5t7.5 -8.5t2.5 -16.5q0 -1 -0.5 -4.5t-0.5 -5.5q-1 -1 -4 -1h-2t-1 1v21q0 6 -6 8.5t-12.5 4t-12.5 3t-6 4.5zM163 10h-1.5t-1.5 1v28q0 3 4.5 6.5t10 6t11 4t8.5 1.5q2 0 6 -1t4.5 -4t-5 -4.5
t-13 -2.5t-13.5 -3t-6 -6v-25q0 -1 -1.5 -1h-2.5z" />
</svg>
