<?xml version="1.0" standalone="no"?>
<!DOCTYPE svg PUBLIC "-//W3C//DTD SVG 1.1//EN" "http://www.w3.org/Graphics/SVG/1.1/DTD/svg11.dtd" >
<svg xmlns="http://www.w3.org/2000/svg" xmlns:xlink="http://www.w3.org/1999/xlink" version="1.1" viewBox="-10 0 266 256">
   <path fill="currentColor"
d="M101 245q0 4 4 4q2 0 4 -1t3 -3l2 -4t1 -4v-52q1 -3 1.5 -6t0.5 -5v-6v-7q0 -1 0.5 -7.5t1.5 -14t1.5 -13.5t0.5 -8v-2q0 -8 -1 -15.5t-1 -15.5v-4.5t2 -5.5v-38q0 -4 3.5 -7t7.5 -4l66 -7v-1v-1v-3t-2 -2h-2h-4h-4h-2h-3h-4h-3.5h-1.5q-1 0 -4 0.5t-7 1t-7.5 1t-5.5 1.5
q-2 0 -7 1t-10.5 2.5t-10 3t-4.5 3.5q-1 1 -1.5 4.5t-0.5 4.5q0 3 -0.5 9.5t-0.5 14t-0.5 14t-0.5 9.5v6v10v13v13v10v6q0 18 -2 38t-4 39q-1 7 -3 14t-2 14zM187 190q1 2 1.5 5t1.5 7.5t2 8t1 4.5q1 4 1 9t1 9.5t2.5 9t4.5 6.5q3 -1 4.5 -2.5t1.5 -3.5q0 -3 -1.5 -8
t-3.5 -11t-3.5 -11.5t-1.5 -8.5q-1 -5 -1 -9.5t-0.5 -8t-0.5 -7.5t-1 -9v-53l-4 -11l-1 -0.5t-2 -0.5q-4 0 -8 1.5t-8 1.5q-5 0 -6 -4.5t-1 -8.5v-6t1 -5.5t2.5 -4.5t5.5 -2q1 0 5 -0.5t8.5 -0.5t8.5 -0.5t5 -0.5l0.5 -0.5t0.5 -1.5q1 0 1.5 -1.5l0.5 -1.5q0 -3 -1.5 -3.5
t-2.5 -0.5q-9 0 -17.5 1t-17.5 2.5t-17.5 2.5t-17.5 1v1.5v0.5q0 1 0.5 2.5t1.5 1.5h24l1 1q1 1 1 4t0.5 7t0.5 8v7v34v34q-1 5 -2 6t-5 1h-4t-3 -3q-1 -2 -1 -4.5v-6t-0.5 -6t-0.5 -3.5v-47q0 -1 -0.5 -3t-1 -4.5t-1 -4.5l-0.5 -2q0 -1 -0.5 -1.5t-1.5 -0.5v0h-1v0v0
q-1 0 -1.5 1.5l-0.5 1.5v5.5v7.5v7v5v15v12.5t1 13.5t2 16q0 1 1.5 2.5t2.5 3.5t2.5 3l1.5 1h34l1 -0.5t1 -1.5v-1t-2 -2.5t-4 -2t-4.5 -1l-2.5 -0.5q-1 -7 -1.5 -12t-0.5 -10v-10v-11v-16q1 -1 2.5 -4t2.5 -3h13l2 3v72zM51 190q1 3 3 5t5 2h40l-0.5 -1t-0.5 -2t-0.5 -2
l-0.5 -1h-13v-2.5t-0.5 -6t-0.5 -7.5v-6q1 -4 3.5 -8t5.5 -8t5.5 -8.5t2.5 -10.5v-50q0 -2 -1 -3t-2 -1q-2 0 -3.5 1t-1.5 3v52q0 5 -2 9t-7 6v-8.5t-0.5 -11.5t-0.5 -11.5v-8.5v-2v-4v-5v-4v-6v-8t0.5 -8t0.5 -6q2 -4 3.5 -5.5t3 -2.5t2.5 -1.5t2 -2.5t2 -7t1 -14v-12
q-3 -3 -4.5 -5t-4 -3t-5 -1h-6.5q-2 0 -5.5 0.5t-7 1.5t-6 3t-2.5 6v27q0 5 3 7t6 3.5t6 2.5t3 3v113q0 4 -2 7t-4 3t-4 -0.5t-3 -4.5q0 -1 -0.5 -5.5t-0.5 -9.5t-0.5 -9t-0.5 -6q0 -1 -0.5 -4l-0.5 -3v-65l-0.5 -1t-1.5 -1h-3.5h-3.5q0 27 1.5 54t0.5 54zM62 41
q0 -1 0.5 -4t1.5 -6t2.5 -5.5t2.5 -2.5h16q2 0 2.5 1.5t1 3.5t0.5 4v2q0 6 -0.5 10t-1.5 7t-4 4.5t-8 1.5h-6q-3 -2 -5 -7t-2 -9zM132 50l1 2h4h5h3h4h3.5h1.5q1 0 3 -0.5t4.5 -1.5t4.5 -1.5t3 -0.5h6t7.5 -0.5t6 -2t2.5 -6.5q-7 0 -14.5 0.5t-14.5 1.5q-2 2 -6.5 2.5
t-9.5 0.5t-9 1t-5 5z" />
</svg>
