<?xml version="1.0" standalone="no"?>
<!DOCTYPE svg PUBLIC "-//W3C//DTD SVG 1.1//EN" "http://www.w3.org/Graphics/SVG/1.1/DTD/svg11.dtd" >
<svg xmlns="http://www.w3.org/2000/svg" xmlns:xlink="http://www.w3.org/1999/xlink" version="1.1" viewBox="-10 0 266 256">
   <path fill="currentColor"
d="M127 187q0 6 1 15.5t3 18.5t6.5 16t10.5 9h4h6h6h3h12.5t12.5 -1.5t10.5 -6t5.5 -13.5v-4t0.5 -8.5t0.5 -9v-6.5q0 -1 0.5 -2.5t0.5 -2.5t-0.5 -2l-0.5 -1q0 -2 -2.5 -5t-4.5 -3l-2 2.5t-3 3.5v0q0 4 1 6.5t1 6.5q0 10 -1 15.5t-4 8.5t-8 3.5t-13 0.5v-2v-3v-4v-2v-12.5
t0.5 -14.5t0.5 -12.5v-5.5l2 -3h39q2 0 3 -2.5t1 -4.5q0 -3 -2 -4.5t-5 -1.5q-8 0 -15.5 1.5t-15.5 1.5l-3 -0.5t-4 -0.5q-2 -1 -2.5 -3.5t-1 -6t0 -7t0.5 -4.5v-5v-5l1.5 -1.5t1.5 -2.5q6 -1 10 2.5t8 7.5t8 7.5t8 3.5q3 0 5 -0.5t2 -3.5v-1.5v-0.5l-18 -20
q-4 -1 -8.5 -2.5t-8.5 -3.5t-6.5 -6t-2.5 -9v-3v-3q6 -4 12.5 -6t12.5 -5t10 -8.5t4 -15.5q0 -4 -1 -9t-2.5 -10t-4 -9t-5.5 -6q0 -1 -2 -2.5t-3 -1.5h-28q-4 2 -12.5 6t-17 8.5t-15 9t-6.5 8.5q0 3 1 4t3 1q5 0 8.5 -2.5t7.5 -2.5q3 0 6.5 4.5t6.5 10.5t5.5 12t2.5 8
q0 3 -5.5 5.5t-12.5 4t-12.5 4t-5.5 5.5q0 4 1.5 4.5t3.5 0.5q5 0 9.5 -1.5t9 -3.5l9 -4t8.5 -2q0 1 0.5 2.5t0.5 3.5t0.5 3.5l0.5 1.5q0 1 -4 3.5t-9 6t-11 8t-11.5 8t-9 6.5t-3.5 4q0 3 3 3h5q4 0 9 -2.5t9.5 -6.5t8.5 -8t7 -8h6v35l-4 3h-47q-1 0 -1.5 2t-0.5 3v2.5
t2 1.5h51v57q0 2 -3 2h-3q-7 0 -10.5 -4.5t-5 -11.5t-1.5 -14v-12q-2 -3 -3 -4t-3 -1t-3.5 1.5t-1.5 3.5zM37 127v9q0 4 0.5 9t0.5 9v4q0 2 0.5 8.5t1 14.5t1 15t0.5 11q0 3 1 7t3 7.5t4.5 5.5t5.5 2h49q3 0 5 -3t2 -6v-3t-1 -2h-28l-4 -4v-22q0 -2 2 -3t4.5 -2t4.5 -2t3 -1
q6 -6 8 -13t2.5 -15t0 -16.5t-0.5 -15.5v-16v-2.5t-0.5 -5.5t-1.5 -5.5t-3 -2.5h-2t-1 2q0 15 -0.5 31t-1.5 30q0 3 -0.5 6t-2 6t-3.5 5t-5 2q-1 0 -3 -1t-2 -4v-85q0 -1 4 -2.5t9 -5t9.5 -10t4.5 -17.5q0 -19 -6 -27.5t-22 -8.5q-17 0 -26.5 9.5t-9.5 30.5q0 2 0.5 3t0.5 2
t1 2t2 4q4 7 8 10t7.5 4t6 3.5t2.5 10.5v124q-8 0 -14 -6t-6 -18v-94l-1 -0.5t-1 -1.5q-1 0 -2.5 -1l-1.5 -1q-1 0 -1.5 1.5l-1 3l-0.5 1.5v6q0 5 -0.5 9.5t-0.5 8.5v6zM146 43q0 -3 2.5 -5.5t4.5 -3.5h1h1q4 3 7.5 8t6 10t5 10.5t4.5 10.5v1v1q0 2 -1.5 3.5t-3.5 2t-4 0.5
h-4t-5.5 -4.5t-6.5 -11t-5 -13t-2 -9.5zM169 35q0 -2 1.5 -3t3 -1.5t3 -0.5h3.5q4 0 7 2.5t5.5 6t3.5 8t1 8.5q0 2 -0.5 5t-2 5.5t-3.5 4t-4 1.5l-18 -35v-0.5v-0.5zM54 42q0 -2 0.5 -5.5t1.5 -7t3 -5.5t5 -2h21q2 0 4.5 3t2.5 5v24q0 4 -1.5 6.5t-4 4t-5.5 2t-5 0.5
q-12 0 -17 -5.5t-5 -19.5z" />
</svg>
