<?xml version="1.0" standalone="no"?>
<!DOCTYPE svg PUBLIC "-//W3C//DTD SVG 1.1//EN" "http://www.w3.org/Graphics/SVG/1.1/DTD/svg11.dtd" >
<svg xmlns="http://www.w3.org/2000/svg" xmlns:xlink="http://www.w3.org/1999/xlink" version="1.1" viewBox="-10 0 266 256">
   <path fill="currentColor"
d="M86 196v6v8.5t0.5 8.5t0.5 5q0 5 1 9t3 7.5t6 6t9 2.5h72v-3.5t-1 -2.5q0 -1 -0.5 -1.5l-0.5 -0.5h-4h-4q-6 0 -13 1t-14 1h-2h-3.5h-2.5h-3q-3 0 -3.5 -3.5t-0.5 -6.5q0 -5 2.5 -6.5t6 -2.5t8 -1t8.5 -2t6 -5.5t2 -11.5v-2.5v-3.5l-0.5 -0.5l-0.5 -0.5h-1h-1l-1 0.5
t-2 0.5q-1 5 -1.5 8.5t-2.5 6t-4.5 3.5t-8.5 1h-2.5h-3.5q0 -1 -1 -2t-2 -1v-1v-1l2 -15q2 -3 4.5 -4t5 -1.5l5 -1t4.5 -2t3 -5.5t1 -12v-9q-1 -2 -3 -4.5t-5 -3.5h-14h-13.5t-11.5 1.5t-8 5.5t-3 13q0 5 2 9t5 7t7.5 4.5t9.5 0.5l2 2v5q0 9 -1 19t-2 18q0 1 -1 1.5l-2 1
t-2 0l-1 -0.5q-6 0 -9.5 -2t-5.5 -6t-3 -8.5t-1 -9.5q0 -3 1 -6.5t1 -7.5q0 -3 -3 -4t-5 -1zM101 173q0 -5 3.5 -8t8.5 -4t10 -1h10q1 0 4 0.5t4 0.5q2 0 4 2t2 4q0 6 -2 10t-6 6.5t-9 3.5t-10 1q-3 0 -6.5 -1t-6 -2.5t-4.5 -4.5t-2 -7zM184 176q3 1 5 1.5t5 0.5q2 0 3.5 -1
t1.5 -4q0 -4 -5.5 -6.5t-12 -4.5t-12 -6t-5.5 -11v-1q3 -3 7 -6.5t8 -6.5t7.5 -6t6.5 -7q3 -5 5 -11.5t4 -13.5t2.5 -13.5t0.5 -12.5q0 -9 -3 -15t-8.5 -9t-12.5 -4.5t-15 -1.5t-15.5 0.5t-14.5 0.5v3.5t2 2.5q10 1 20.5 0t19 0.5t13.5 7.5t5 20q0 13 -3 24t-11 22
q-2 3 -6 6t-8 6.5t-7 7.5t-3 9t3 9.5t7 8t8 6.5t8 5zM87 122h1q0 1 0.5 1.5l0.5 0.5v23l1 0.5t1 1.5h3h3v-23l2 -3h16q1 0 2.5 -2t2.5 -3v-1v-1l-0.5 -0.5t-1.5 -0.5h-16q-1 0 -1.5 -1t-1 -2.5t-0.5 -2.5v-2v-3q1 0 4 0.5t6 0t5.5 -1.5t3.5 -3q1 -1 1 -1.5v-0.5h-14l-0.5 -1
t0.5 -2q1 -6 3 -11t3 -11l0.5 -0.5l0.5 -0.5q2 0 3 1.5l2 3t2.5 2.5t4.5 1q4 0 4 -3q0 -1 -0.5 -1.5l-1.5 -1.5q-3 -2 -8.5 -5.5t-10.5 -7.5t-8.5 -8.5t-3.5 -8.5v-3.5v-3.5q1 -1 2 -1h2h0.5h0.5l3.5 3.5t5.5 4.5t6.5 4t5.5 2t2 -2v-3t-2.5 -3t-5.5 -4.5t-6 -4.5t-4 -3
q-2 -2 -3.5 -5.5l-3 -7t-2.5 -6t-3 -2.5q-3 0 -5 1.5t-2 4.5v6t1 6q-1 0 -2.5 1t-2.5 2t-2.5 2t-2.5 1q-1 1 -5 3.5t-8.5 5.5t-7.5 5.5t-3 3.5q0 2 1 2.5t3 0.5q4 0 8 -2.5t7 -5.5l6 -6t5 -3q4 0 4.5 3t0.5 5q0 5 -0.5 7t-2 3.5t-4 3.5t-5.5 4l-2.5 2.5t-3.5 4t-4 4l-2 1.5
q-2 2 -4 3.5l-4 3t-3 3.5t-1 5q6 0 10.5 -3.5t8.5 -7.5q0 -1 1 -1q2 0 3.5 2t2.5 4.5t2 4.5t1 4q0 4 -3.5 4.5t-7 0.5h-6.5t-3 4v2t1 2h26q1 0 1.5 2t0.5 3v3q0 1 -2 1l-27 5q-1 0 -2 0.5l-1 0.5l-2 1q0 1 0.5 2t1 1.5t2.5 0.5h3q6 0 12 -2t12 -2zM140 142q0 1 1 1.5t3 0.5
t4 -3.5t3 -8l2 -9t3 -7.5q3 -2 6.5 -3.5t6.5 -2.5t5 -3.5t2 -7.5v-3.5t-3 -1.5q-2 0 -3.5 2t-2.5 4.5t-2.5 5t-4.5 2.5q-2 0 -3 -1.5t-1 -3.5q0 -10 2.5 -14.5t5 -6.5t6.5 -2.5t6.5 -1t5 -3.5t2.5 -9q0 -2 -0.5 -3.5t-2.5 -1.5q-4 1 -5 5t-3 7q-2 2 -5 1t-6 -1v-20l-1 -3
q-4 3 -5 7t-1.5 8t-1 7.5t-2.5 3.5q-4 0 -5 -3t-1.5 -6l-1 -6t-3.5 -3q-2 0 -3 1.5t-1 3.5q0 6 2.5 9.5t5.5 5.5t5.5 3.5t2.5 5.5q0 5 -1.5 10t-2.5 10v1h-1q-4 0 -5.5 -2.5t-1.5 -5t-1 -5t-5 -2.5q0 3 0.5 6.5t1.5 6.5t3.5 5t6.5 3v2v3q0 3 -1 6t-2 5.5t-2 5.5t-1 6zM80 72
q0 -3 2 -5t4.5 -3.5t5 -2.5t3.5 -1q5 0 7.5 3.5t2.5 7.5q0 1 -1 5.5t-3 9.5t-4 8.5t-3 3.5q-3 0 -5.5 -3t-4.5 -7.5t-3 -9t-1 -6.5z" />
</svg>
