<?xml version="1.0" standalone="no"?>
<!DOCTYPE svg PUBLIC "-//W3C//DTD SVG 1.1//EN" "http://www.w3.org/Graphics/SVG/1.1/DTD/svg11.dtd" >
<svg xmlns="http://www.w3.org/2000/svg" xmlns:xlink="http://www.w3.org/1999/xlink" version="1.1" viewBox="-10 0 266 256">
   <path fill="currentColor"
d="M190 245v4t3 2q2 0 3.5 -2.5t2.5 -5.5t1.5 -6t0.5 -4v-7.5t0.5 -11.5t0.5 -12v-8v-3q0 -2 0.5 -5t0.5 -6v-5q0 -3 -0.5 -8.5t-1 -11.5t-2 -12.5t-4.5 -11.5t-7 -8t-9 -3q-1 0 -2.5 0.5t-1.5 1.5l0.5 0.5l0.5 0.5q8 6 11.5 13.5t5.5 15.5t2 17v17q0 16 -2.5 30.5
t-2.5 28.5zM89 245q0 2 0.5 3t1.5 1q3 0 5 -3.5t3.5 -9.5t3 -13t2.5 -13.5t2 -11.5t1 -7q0 -1 0.5 -4l1 -6t1 -5.5t0.5 -3.5q0 -4 1 -13.5t2 -20t2 -20t2 -13.5q0 -2 1 -6t1 -7.5t0.5 -7t0.5 -5.5v-6v-10v-10.5v-6.5q1 -3 3.5 -4t5.5 -1l61 -3l1.5 -2t2.5 -3q1 -2 2 -5t1 -6
q0 -4 -2 -6.5t-5 -4t-6.5 -1.5h-7.5h-9h-14h-15t-14.5 1t-11 2.5t-4.5 4.5q0 2 2 2h4q13 0 26 -2t27 -2h3t4.5 0.5t4.5 0.5h4q3 2 3 7q0 2 -0.5 3.5t-1.5 3.5l-30 2t-30 3q-4 2 -6.5 3.5t-4 3.5t-2.5 5t-1 8q0 7 1 14t1 15q0 22 -2.5 45.5t-5.5 45.5q-1 8 -4 14t-4 14
q-1 5 -1.5 12t-1.5 12t-3 8.5t-2 8.5zM118 248q0 1 1 1h2h1.5h1.5v-18v-20t1 -20t4 -19q0 -1 0.5 -3l0.5 -2q1 -7 1.5 -12t1.5 -9.5t3.5 -9t6.5 -9.5q1 -3 4 -6.5t6 -3.5h1l1.5 1.5l1.5 1.5v34q0 2 -2 2.5t-4 0.5q-3 0 -4 -2t-1.5 -4.5t-0.5 -5t-2 -2.5q-1 0 -1.5 0.5
l-0.5 0.5q0 1 -1 4t-1 4v49q0 7 4.5 10.5t10.5 3.5q11 0 16.5 -2t8.5 -7.5t4 -13t1 -17.5q0 -9 -0.5 -15t-1.5 -14q0 -1 -1.5 -2l-1.5 -1q-1 -1 -2.5 -1h-1.5v12q0 1 -1.5 1h-3.5h-3.5h-1.5v-43q0 -2 4 -3.5t9.5 -2.5t10.5 -3t7 -6q2 -2 2.5 -6l1 -8t0 -8t-0.5 -7
q0 -1 0.5 -4t0 -6.5t-1.5 -6t-3 -2.5v0q-1 1 -2.5 2l-1.5 1v34q0 4 -2.5 7t-6.5 5t-8.5 3t-7.5 1v-55h-6q0 7 1 13t1 13q0 3 -0.5 5.5t-0.5 5t-1 5.5t-2 7l-5 -2v-40q0 -1 -1 -2.5t-1 -2.5h-1h-1q-1 0 -1.5 0.5t-0.5 1.5v40l-0.5 0.5t-0.5 1.5h-1q-4 0 -5.5 -6t-2 -13
t-1.5 -13t-4 -6v0l-3.5 3.5t-0.5 3.5t0.5 8.5t1 11.5t2.5 10.5t6 6.5l1.5 0.5t3.5 0.5h3.5h2.5q1 1 4 2t4 2v1q0 3 -2.5 4.5t-5.5 3t-5.5 3t-4.5 2.5q-2 2 -4.5 6l-5 8t-4 8t-1.5 8l-6 43v5v52zM146 200q0 -6 1.5 -9t4 -4.5t6.5 -2t9 -0.5q6 0 6 6q0 8 -2.5 13.5t-11.5 5.5
q-2 0 -4 -0.5t-4.5 -1.5t-3.5 -2.5t-1 -4.5zM53 152v7v8.5t0.5 10t0.5 8t1 3.5l2 2h33q1 0 3 -0.5t2 -1.5v0q0 -2 -1.5 -3.5t-3.5 -2t-4 -0.5h-3v-28q7 -5 11 -10.5t5 -14.5q0 -12 0.5 -25.5t0.5 -26.5v-8l-3 -3t-3 -2t-1.5 0.5t-0.5 1.5v64q0 1 -0.5 3t-1.5 4t-2.5 3.5
t-3.5 1.5h-1q0 -2 -0.5 -7t-0.5 -10.5t-0.5 -10t-0.5 -6.5v-4q0 -12 1 -26.5t2 -26.5q6 0 9 -3.5t4.5 -8t1.5 -9.5v-10t-1 -7.5t-6 -6.5h-4h-4q-2 0 -6.5 0.5t-8 2t-6.5 4t-3 7.5v1q0 1 0.5 4.5l1 7t0.5 7v5.5q3 2 7 4.5t6 6.5v4v6v6v4q0 24 -1 46.5t-1 46.5l-1 11l-1 0.5
t-2 0.5q-3 0 -4.5 -1t-2.5 -5v-38q0 -17 1 -33t1 -33v-5q-1 -3 -4 -3.5t-5 -0.5q0 22 -1 44t-1 45zM146 173v-1q0 -1 0.5 -3.5t0.5 -3.5q6 -2 11 -2.5t11 -0.5h3h2l2 1v12l-4 3h-25q-1 0 -1 -2v-3zM176 59q0 9 0.5 17t0.5 17h2q2 0 3.5 -2.5t1.5 -4.5v-39l-1.5 -0.5
t-2.5 -0.5v0q-2 0 -3 1.5t-1 3.5v5v3zM68 35q0 -1 0.5 -4.5t1.5 -7t2.5 -6t3.5 -2.5h14q1 0 1.5 2.5t0.5 4.5v7q0 7 -2.5 12t-10.5 5h-3h-3q-3 -2 -4 -5t-1 -6z" />
</svg>
