<?xml version="1.0" standalone="no"?>
<!DOCTYPE svg PUBLIC "-//W3C//DTD SVG 1.1//EN" "http://www.w3.org/Graphics/SVG/1.1/DTD/svg11.dtd" >
<svg xmlns="http://www.w3.org/2000/svg" xmlns:xlink="http://www.w3.org/1999/xlink" version="1.1" viewBox="-10 0 266 256">
   <path fill="currentColor"
d="M129 246q0 2 1.5 3.5t3.5 1.5q3 0 5.5 -3.5t4 -8.5t2 -10t1.5 -7q0 -2 1.5 -5t2.5 -6.5t1.5 -5.5l0.5 -2l19 -21q5 -1 11 -5.5t12 -9.5t10 -11t4 -12t-2.5 -10.5t-6.5 -8t-9 -5t-10 -1.5q-7 0 -15 3.5t-14.5 8.5t-12.5 11.5t-11 11.5v2q0 2 1 2.5t3 0.5h1.5h0.5l14 -15h4
l1 2t2 4.5t2.5 5.5l2.5 5l0.5 2t1 4.5l1 5t0.5 3.5v2v1q-8 10 -13 16.5t-8.5 13t-6 14.5t-5.5 21l-0.5 0.5t-0.5 1.5zM74 161h1.5t1.5 1v69q0 2 2 2.5t3 0.5q2 0 3 -1.5t2 -3.5v-48v-3.5t0.5 -5.5t0.5 -6v-4h5.5h7.5t7.5 -0.5t5.5 -0.5t4 -1.5t2 -4.5q0 -2 -1.5 -4t-3.5 -2
q-7 0 -14 0.5t-14 0.5v-16q0 -1 3.5 -2t8.5 -3t10 -4.5t6 -5.5q4 -5 4.5 -11.5t0.5 -13.5q0 -9 -2.5 -18t-11.5 -13q-1 -1 -3.5 -1t-5 -1l-5 -2l-2.5 -1v-12l1 -2h4t6 -0.5t6 -0.5h4q3 -1 5.5 -1.5t2.5 -4.5q0 -2 -1.5 -2.5t-3.5 -1t-3.5 -0.5t-1.5 -1h-14q-4 -2 -4 -7.5
v-8.5q-1 -2 -1.5 -2.5t-2.5 -0.5q-3 0 -5 1v15q0 2 -0.5 4l-0.5 2h-24q-1 0 -1.5 1.5t-0.5 2.5q0 2 0.5 2.5l1.5 1.5q5 2 11 2t11 -1l3 4v11q-16 4 -24 13.5t-8 26.5q0 10 4.5 16.5t10 10.5t10 6t4.5 4v12q0 1 -1.5 2t-3 1.5t-3 0.5h-2.5t-4.5 0.5t-7.5 0.5q-3 0 -6.5 -0.5
t-4.5 -0.5q-2 2 -2 3v3v2t2 2h6q5 0 10.5 -0.5t11.5 -0.5zM160 134q0 -2 2.5 -3t6 -2t6.5 -1.5t4 -0.5q7 0 12 5t5 12q0 5 -2 8t-5 5.5t-7 5t-7 5.5h-3l-0.5 -2t-1.5 -4t-2 -4.5t-2 -3.5q0 -1 -1 -2.5t-1.5 -3.5l-1 -4t-1.5 -3q0 -1 -0.5 -3.5t-0.5 -3.5zM63 104v-3
q0 -2 2 -2h14q1 0 1.5 1.5t0.5 2.5v5t-0.5 6.5t-1.5 6t-2 2.5q-4 0 -6.5 -2t-4 -4.5t-2.5 -6t-1 -6.5zM88 99l20 -2l1 1.5t2 2.5v1v0q-2 6 -4 9.5t-4.5 5.5t-5.5 3t-9 1v-22zM130 116q0 1 1 1.5t3 0.5q3 0 7 -2t8 -4.5t7.5 -5t6.5 -4.5q1 0 4 -1.5t7.5 -3t8 -3t4.5 -1.5
q3 -2 6.5 -3t6.5 -3t5.5 -4.5t3.5 -6.5v-5v-5q0 -14 -7 -22t-20 -8q-2 0 -7 2t-10.5 4.5t-12 6.5t-11.5 7.5t-8.5 6.5t-3.5 4q0 3 1.5 3.5t3.5 0.5t4 -1t4 -2.5t4 -2.5t4 -1q3 0 5 4t3.5 9t2 9.5t0.5 6.5v1.5t-1 1.5q-4 2 -8.5 4t-8.5 4.5t-7.5 5t-5.5 6.5zM65 83
q0 -5 4 -8.5t8 -3.5h2.5t1.5 2v16h-15q-1 0 -1.5 -1.5t0 -2.5t0.5 -2zM88 84q0 -2 0.5 -4.5l1 -5t2 -4t3.5 -1.5q4 0 6 2t4 4.5t3 5.5t1 6v1q-1 0 -4.5 0.5t-5.5 0.5h-2q-4 0 -6.5 -0.5t-2.5 -4.5zM164 57q0 -3 2 -4.5t5 -3t5.5 -1.5h5.5t6 1.5t5.5 4.5t4 6.5t1.5 6.5
q0 4 -2.5 8t-7 6.5t-9 4.5t-8.5 2h-2q-2 -8 -4 -15.5t-2 -15.5z" />
</svg>
