<?xml version="1.0" standalone="no"?>
<!DOCTYPE svg PUBLIC "-//W3C//DTD SVG 1.1//EN" "http://www.w3.org/Graphics/SVG/1.1/DTD/svg11.dtd" >
<svg xmlns="http://www.w3.org/2000/svg" xmlns:xlink="http://www.w3.org/1999/xlink" version="1.1" viewBox="-10 0 266 256">
   <path fill="currentColor"
d="M57 247q1 2 2 3.5t3 1.5q3 0 4.5 -2.5t2 -6t1 -6.5t0.5 -4v-121q0 -1 0.5 -1.5t1 -0.5t3 -0.5t2.5 -1.5q1 0 2.5 -0.5t3.5 -1.5t3.5 -1.5l1.5 -0.5q3 -2 4 -5t1.5 -5.5t1 -4.5t2.5 -2t3 2t2 5t1.5 5.5t2.5 4.5h6q4 0 7 -0.5t5 -2t3 -4.5t1 -8q0 -4 -2 -7t-6 -5h-11
q-6 0 -13.5 0.5t-14 1.5t-12 4.5t-7.5 10.5q-3 34 -3.5 66.5t-1.5 66.5v10v10zM188 248q1 4 4 4t4 -1.5t3 -3.5v-3v-3v-4v-2q0 -15 -1.5 -30t-3 -29.5t-2.5 -29.5t-1 -30q0 -6 1 -11t1 -11q0 -3 -2 -5t-4.5 -4t-5.5 -3t-5 -2h-4t-7 -0.5t-8 -0.5h-6h-3q-1 0 -2 0.5t-1 2.5v2
t1 1q8 1 14 2t14 3q3 0 6 1.5t3 5.5q0 2 -1.5 2h-2.5q-7 0 -16 -2.5t-18 -2.5q-1 0 -4 0.5t-3 2.5q0 3 5 4.5t11 2l12 1t8 0.5v2v2t-1 1l-28 3q-1 0 -2 0.5t-1 1.5h-0.5t-0.5 1h0.5h0.5q0 1 1 1.5t2 0.5h11q6 0 11.5 -1.5t10.5 -1.5q2 0 3 2.5t1.5 6t1 6.5t1.5 5
q-1 14 -0.5 28.5t1.5 28.5t1.5 28t0.5 28zM128 210v30q0 2 2.5 2h2.5q2 0 3.5 -0.5t1.5 -2.5v-29l4 -2h3h5h5.5h2.5q1 0 4 -0.5t6.5 -1t6 -1.5t2.5 -2v-1q0 -1 -1 -2t-2 -1t-4.5 -0.5t-4.5 -0.5q-6 0 -11.5 1t-11.5 1h-3t-2 -2q0 -3 4 -4t9 -2t9.5 -2t6.5 -2q0 -1 0.5 -2.5
t1 -3.5l1 -4t0.5 -3q1 0 1.5 -2l0.5 -2v-1q0 -10 -2.5 -15t-7 -7.5t-11 -2.5h-15.5v-9h28q2 0 2.5 -2t0.5 -3q0 -4 -3 -4q-5 0 -9 1t-8 1h-4h-4q-1 -1 -1.5 -2.5t-1 -3.5t-1.5 -3t-3 -1l-2 2t-2 2.5l-2 3t-2 2.5h-4.5t-7 0.5t-6.5 0.5h-5q-1 0 -4 0.5t-4 1.5v0.5v0.5
q0 1 0.5 2.5t1.5 1.5h31q1 0 1 1.5v1.5q0 3 -2.5 4t-6.5 2t-8.5 1.5t-8.5 2.5t-6.5 5.5t-2.5 9.5q0 10 2 15.5t6.5 9t11.5 4t15 0.5q1 0 2 1.5l1 1.5q1 0 1 1t-2 2.5t-3 1.5h-3h-5h-5h-3h-4t-6.5 0.5t-6.5 0.5h-4l-1.5 1.5t-0.5 1.5t0.5 2.5t1.5 1.5h40zM102 179
q0 -3 2.5 -4.5t6.5 -2t7.5 -0.5h4.5q2 0 2.5 0.5t2.5 1.5v2v3q0 5 -2.5 7t-7.5 2q-2 0 -4.5 -0.5t-5.5 -1.5t-4.5 -2.5t-1.5 -4.5zM137 178q0 -4 1.5 -5.5t4.5 -2t6 -0.5h5q4 0 5 1t1 5q0 3 -1.5 5t-4 3t-5.5 1.5t-6 0.5q-4 0 -5 -2.5t-1 -5.5zM125 152q2 0 2.5 1.5t0.5 3.5
v2.5t-0.5 3t-1 2.5t-1.5 1h-25q0 -5 2.5 -8t6 -4t8 -1.5t8.5 -0.5zM143 152h5q4 0 6.5 0.5t4 2.5t1.5 5v3t-3 1h-20v-11q0 -1 2.5 -1h3.5zM72 97q0 -3 3.5 -6t6.5 -3l1 0.5t2 1.5l0.5 0.5l0.5 0.5q0 3 -1 4.5t-3 2.5t-4 1h-4l-0.5 -0.5l-1.5 -1.5v0zM108 89q0 -3 1 -3.5
t3 -0.5h3.5t3.5 2v4q0 3 -1.5 4.5t-5.5 1.5q-3 0 -3.5 -3t-0.5 -5zM154 69q6 0 11 0.5t10 1.5t10.5 1.5t10.5 0.5h2h1q0 -1 0.5 -3.5t0.5 -3.5l-1 -1l-2 -2l-41 -3q-2 0 -2 -2v-3q0 -2 1 -3t3 -2q5 -1 11 -0.5t11.5 -0.5t9.5 -4t4 -10q0 -6 -3.5 -9t-9.5 -3q-5 0 -10.5 1
t-11.5 1h-6q-2 -1 -2.5 -3t-1.5 -4l-1.5 -3t-3.5 -1h-1l-3 3v3.5v4.5v5.5v3.5v1t-0.5 2.5t-1 2.5t-0.5 2v0q0 2 1.5 2.5t3.5 0.5t3 -1t1.5 -2.5t1.5 -3.5t2 -3q4 -2 8 -2t9 -1h2h4t3.5 0.5t2.5 0.5v8l-26 4q-2 0 -3.5 1.5t-2.5 4t-1.5 5t-0.5 3.5q0 4 2.5 6.5t5.5 3.5z
M62 62q-1 2 1 3t4 1.5t4 0.5h3q12 0 24.5 -1.5t24.5 -2.5q2 0 2 -2.5v-3.5h-20l-0.5 -0.5t-1.5 -0.5q0 -1 -0.5 -2l-0.5 -1q0 -3 3.5 -4.5t8 -3t8 -5t3.5 -11.5q0 -5 -4 -5t-5.5 2.5t-2 5t-2 5t-5.5 2.5l-2 -0.5t-2 -1.5v-25q0 -1 -1.5 -1.5l-1.5 -0.5q-1 0 -2 0.5t-1 1.5
q-3 6 -2.5 13t0.5 12q-1 2 -2 2.5t-3 0.5q-6 0 -7.5 -3t-2 -7t-1 -7t-4.5 -3q-3 0 -4 1.5t-1 4.5q0 1 0.5 4.5t1.5 7t2.5 6t3.5 2.5h14q1 0 2 1t1 2.5v2.5v2v1.5v1.5l-3 2h-26q-1 0 -2 1t-1 2z" />
</svg>
