<?xml version="1.0" standalone="no"?>
<!DOCTYPE svg PUBLIC "-//W3C//DTD SVG 1.1//EN" "http://www.w3.org/Graphics/SVG/1.1/DTD/svg11.dtd" >
<svg xmlns="http://www.w3.org/2000/svg" xmlns:xlink="http://www.w3.org/1999/xlink" version="1.1" viewBox="-10 0 266 256">
   <path fill="currentColor"
d="M44 183v21q0 10 2.5 19t8 15.5t16.5 8.5q2 0 6.5 0.5l9 1t8.5 1t5 0.5h7h4t4 -0.5t3.5 -1.5t1.5 -3q0 -3 -6 -4t-12.5 -1t-12.5 -1t-6 -5v-19q0 -2 2.5 -3t5.5 -2l6 -2t5 -4q1 -10 2 -20.5t1 -21.5v-5.5t-3 -2.5q-2 0 -2.5 0.5t-1.5 2.5v4.5t-0.5 7t-0.5 7t-1 5.5
l-0.5 3.5l-1 7t-2 6.5t-4.5 3h-2.5t-2.5 -3v-49q2 -1 4.5 -2t4.5 -2.5t4 -3.5t2 -4q0 -1 0.5 -4.5t1.5 -7t1.5 -6.5t0.5 -4q0 -2 -0.5 -3t-1.5 -1.5t-2 -0.5h-2q-3 0 -4.5 4t-2.5 9.5t-3 10.5t-8 7h-5t-9 0.5t-9 0.5t-5 1q-1 0 -3 -0.5t-5 0t-5 1t-2 3.5q0 2 1.5 3t3.5 1h4
h3q7 0 12.5 -0.5t13.5 -1.5v11t0.5 17.5t1 17.5t0.5 11v6q0 3 -0.5 5t-0.5 4.5t-0.5 5t-0.5 6.5l-1.5 1.5t-2.5 0.5q-3 0 -6 -4t-4.5 -8.5t-2.5 -9.5t-1 -7v-6v-10v-11v-6q0 -3 -2 -5t-4 -2h-1q0 1 -1.5 1.5t-2.5 1.5v2v4.5v4.5v3zM112 231q15 2 28.5 2h28.5h25q13 0 26 -2
q1 -1 1.5 -2.5t0.5 -2.5t-0.5 -4t-1.5 -3h-20l-4 -13q1 -33 1.5 -65.5t-4.5 -65.5q-2 -8 -4.5 -12.5t-6 -6.5t-9 -3t-11.5 -1q-5 0 -10 1.5t-9 5t-6.5 8.5t-2.5 12v138l-5 6h-18q-2 0 -2 1.5v2.5t0.5 2.5t2.5 1.5zM143 187v-3v-4v-3.5v-2.5l2 -1h39v7t0.5 10.5t1 10.5t0.5 7
v5q0 2 -0.5 5t-3.5 3h-36l-0.5 -1l-0.5 -1q-2 -8 -2 -16v-16zM143 159v-29l5 -5h36v34l-4 4h-34zM143 84q0 -11 6 -16t15 -5q7 0 11 3.5t6 9.5t2.5 13t0.5 13v3v4t-1 4t-3 2h-35q-2 -10 -2 -16.5v-14.5zM37 105q0 2 1.5 3t4 1h4.5h3q10 0 18 -1.5t13.5 -5.5t8.5 -11t3 -19
q-6 0 -8 3.5t-3 7.5t-3 8t-8 6q-7 2 -15 2t-15 -1q-4 3 -4 7zM46 55q0 2 0.5 4t3.5 2h43q3 0 5.5 -3t4 -7t2 -8t0.5 -6q0 -5 -2 -9.5t-5.5 -8t-7.5 -5.5t-8 -2q-2 0 -4 0.5t-2 3.5q0 2 2.5 4t6 5t6 6.5t2.5 8.5q0 4 -1.5 6.5t-3.5 4t-5 2t-6 0.5q-6 0 -12 -1t-12 -1h-5t-2 4
z" />
</svg>
