<?xml version="1.0" standalone="no"?>
<!DOCTYPE svg PUBLIC "-//W3C//DTD SVG 1.1//EN" "http://www.w3.org/Graphics/SVG/1.1/DTD/svg11.dtd" >
<svg xmlns="http://www.w3.org/2000/svg" xmlns:xlink="http://www.w3.org/1999/xlink" version="1.1" viewBox="-10 0 266 256">
   <path fill="currentColor"
d="M191 130q2 0 5 1t5.5 3.5t4 4.5t1.5 4v26q0 5 -3.5 11t-7.5 12.5t-7.5 12t-3.5 8.5v26q0 6 4.5 8t8.5 2q2 0 4 -1t2 -4l-0.5 -1.5t-1.5 -1.5q0 -1 -1.5 -3l-1.5 -2q-1 -1 -1.5 -2t-0.5 -2v-2.5t-0.5 -5.5t-0.5 -6v-5v-1v-2q2 -6 6 -12.5t7.5 -12.5t5.5 -12.5t2 -14.5
q0 -7 -1 -13t-4 -11t-8 -8t-13 -3t-14 4t-10 10t-6 14.5t-3 16.5t-1.5 15.5t-0.5 12.5q0 4 1.5 6.5t5.5 2.5q1 0 2 -0.5t1 -2.5v-33q4 0 6.5 3t4.5 6.5t3.5 6.5t3.5 3l2 -0.5t3 -1.5v-2v-2q0 -5 -3 -8t-7 -5.5t-7.5 -5.5t-3.5 -7q0 -5 2 -9.5t5 -8.5t7 -6t9 -2zM111 246
q0 2 2 2h2q5 0 6 -2.5t1 -7.5v-1v-5t-0.5 -6.5t-0.5 -6v-2.5q0 -1 -0.5 -3t-1.5 -2v-26l3 -1.5t6.5 -2.5l7 -2t5.5 -2q1 -1 2 -1.5l1 -0.5v-19l2.5 -3t3.5 -4v0v0q0 -2 -2 -2.5t-3 -0.5q-6 0 -12 0.5t-12 0.5v-15l2.5 -0.5t6 -1.5t7 -2.5t4.5 -3.5v-3.5v-5.5v-4.5v-3.5
q0 -2 1.5 -3t2.5 -2l2.5 -2.5t1.5 -3.5q-7 0 -14 1t-14 1q-3 0 -4.5 -1t-1.5 -4q0 -5 4 -7t8.5 -3t9 -2.5t6.5 -6.5v-2.5t0.5 -5t1 -4.5t0.5 -3q0 -2 1 -3t2.5 -1.5t2 -1.5t0.5 -3q0 -1 -0.5 -2t-1.5 -1q-7 0 -13 1.5t-13 1.5q-2 0 -5 -0.5t-3 -3.5q0 -5 3 -9t7 -6t8.5 -3
t9.5 -2l1.5 -1.5l1.5 -1.5v-1q0 -4 -4 -4t-9.5 1.5t-10.5 4t-9 6t-4 8.5v94q1 6 1.5 10t0.5 10q0 4 -1 6.5t-1 5.5v0v10t0.5 14t0.5 17v16.5t0.5 14t0.5 9.5zM54 221h5.5t7.5 0.5t7.5 0.5h5.5h4q4 0 8.5 -1.5t9.5 -1.5q0 -4 -1.5 -5.5t-5.5 -1.5q-3 0 -5.5 0.5t-5.5 0.5
q-2 0 -3.5 -1t-2.5 -3t-1.5 -4t-0.5 -3q0 -5 1.5 -7.5t3.5 -4.5t5.5 -3.5t7.5 -3.5q0 -2 1.5 -5t1.5 -4v-39q0 -1 -1.5 -2l-1.5 -1q0 -1 -1 -1h-1v1q-1 0 -1.5 0.5l-0.5 0.5v38q0 3 -3 6.5t-6 3.5h-1q-1 0 -1.5 -0.5t-0.5 -1.5v-9t-0.5 -15t-0.5 -15v-10l-0.5 -2.5
t-0.5 -4.5l0.5 -1.5l0.5 -1.5q0 -1 1 -1t2 -1t2 -1t1 -1q2 -1 4.5 -3.5t2.5 -3.5v-16q-3 0 -4.5 1t-2 3t-0.5 3.5t-1 3.5q-3 5 -10.5 8t-15.5 4.5t-14 3.5t-6 5q0 2 1 2.5t3 0.5q6 0 11.5 -1.5t11.5 -1.5h1.5h1.5q2 13 2 26v27v30q1 3 -1 3.5t-3 0.5q-5 0 -7.5 -3t-3.5 -7
q-1 -2 -1.5 -5.5l-1 -7t-1 -6.5t-0.5 -4v-6v-11v-10v-7t-1.5 -3.5t-3.5 -1.5h-1q-1 5 -1.5 9t-0.5 7.5v7.5v8v12t1.5 14t3.5 12.5t5 8.5l1.5 0.5t1.5 1.5zM117 167q0 -6 3.5 -8t8.5 -2q4 0 5.5 0.5t1.5 3.5q0 6 -2.5 10.5t-9.5 4.5q-4 0 -5.5 -2.5t-1.5 -6.5zM178 145l19 20
q0 1 0.5 1h1.5q2 0 2.5 -1.5t0.5 -2.5q0 -3 -2.5 -6.5t-6.5 -6.5t-8 -4.5t-7 -1.5v2zM115 116q0 -5 3 -7.5t7 -2.5h3t3 2v13q0 2 -3.5 3t-4.5 1q-8 0 -8 -9zM158 109q1 3 2.5 3.5t3.5 0.5q15 0 28.5 -2.5t28.5 -2.5v-6h-25v-13l2 -0.5l4 -1t3.5 -2t1.5 -2.5q0 -3 -3 -3h-2
q-1 0 -5 0.5t-8.5 1.5t-8 1t-5.5 1q-1 0 -2 0.5l-1 0.5q-1 0 -1 1t1 1q1 1 3 1.5l4 1l4 1l2 0.5v12q0 1 -3.5 1.5t-8 0.5t-9 1t-6.5 3zM39 92q0 4 2 4h5l3 -1t8 -2t10.5 -3t10 -3.5t7.5 -3t4 -3.5l1 -15q1 -3 -3 -5.5t-6 -2.5q0 1 -0.5 3.5t-0.5 5v5v3.5q0 3 -3.5 5t-8 3.5
t-9.5 2t-9.5 1.5t-7.5 2t-3 4zM197 13q-5 0 -10.5 3t-10.5 6q-1 1 -2.5 3t-3 3.5l-3 3l-1.5 1.5v30q0 1 -1.5 2.5t-4 4.5t-4.5 5q-3 4 -4.5 7.5t-1.5 8.5q5 0 7.5 -2.5t5 -6.5t5 -8.5t5.5 -6.5q11 -1 23 -2.5t21 -6.5l0.5 -0.5t0.5 -1.5q0 -2 -1.5 -2.5t-4.5 -0.5
q-6 0 -11.5 2.5t-11.5 2.5h-3.5t-1.5 -3t4.5 -6t10.5 -6t10.5 -6.5t4.5 -5.5q0 -3 -1.5 -3.5t-3.5 -0.5t-5 2.5t-3 3.5q-2 1 -5.5 3.5t-7.5 6t-7.5 6.5t-5.5 4q-3 -2 -3.5 -4.5t-0.5 -5.5q0 -5 2.5 -8.5t6.5 -6t8.5 -4.5t8.5 -3v-8zM115 66q0 -4 4 -6t8 -2q7 0 7 7q0 6 -2 9
t-9 3q-5 0 -6.5 -3t-1.5 -8zM39 60q0 3 2 3h5q6 0 12.5 -2t12.5 -5.5t9.5 -9t3.5 -12.5q0 -2 -0.5 -5.5t-2 -7t-3.5 -6t-5 -2.5q-2 0 -3 1t-2 3q0 1 0.5 3t1 4.5l1 5t0.5 3.5v8q-2 3 -6 5.5t-8 4.5t-8.5 3t-7.5 2q-2 1 -2 2v2z" />
</svg>
