<?xml version="1.0" standalone="no"?>
<!DOCTYPE svg PUBLIC "-//W3C//DTD SVG 1.1//EN" "http://www.w3.org/Graphics/SVG/1.1/DTD/svg11.dtd" >
<svg xmlns="http://www.w3.org/2000/svg" xmlns:xlink="http://www.w3.org/1999/xlink" version="1.1" viewBox="-10 0 266 256">
   <path fill="currentColor"
d="M198 248q0 2 1.5 2h2.5q3 0 4 -1t2 -4v-9v-30.5t-1 -31.5q0 -2 -0.5 -6t-1.5 -8t-3.5 -7t-5.5 -4l-33 -5q-2 0 -2 -2v-2q0 -2 0.5 -4t1.5 -4q5 -3 10 -4t10.5 -1.5t11.5 -0.5h10q7 -4 8.5 -8.5t1.5 -12.5q0 -5 -1 -9t-6 -7h-2h-4.5h-5.5h-2q-11 0 -22.5 0.5t-22.5 2.5
v1.5v1.5v1.5t1 1.5h21l1 1.5t1 2.5v8v8q-2 3 -4.5 4.5t-4.5 1.5t-4.5 0.5t-4 2t-2.5 6.5t-1 14q0 3 1.5 4.5t3.5 2.5t4.5 1h4.5t5.5 0.5t7.5 1t7.5 0.5h4.5l3 3q1 0 1 6.5t1 15.5t1 18.5t1 15.5v32zM47 246q0 3 3 3q2 0 4 -1.5t3.5 -4t2.5 -4.5t1 -3q3 -18 5 -35t3.5 -33.5
t2 -34t0.5 -36.5l3 -3l2 -0.5l4 -1t4.5 -1t4.5 -1.5q5 -1 11.5 -1h12.5h2.5h1.5l3 3l3 3v15q0 21 -1 41t-1 41v28q0 1 0.5 3t0.5 4.5t0.5 5t0.5 3.5v3t0.5 4.5t1.5 4t3 1.5q3 0 4 -1.5t2 -3.5v-10v-9q0 -5 -0.5 -15.5t-0.5 -24t-0.5 -28t-1 -27.5t-0.5 -23.5v-16.5
q-1 0 -2 -1t-1 -2q-7 -4 -11.5 -4.5t-7 -1.5t-4 -4.5t-1.5 -13.5q0 -12 1.5 -23t1.5 -23v-1l-0.5 -2t-1.5 -2l-1.5 -0.5l-1.5 -0.5h-3t-3 2v37v2.5t-0.5 5t-0.5 5v2.5v3.5v5t-1 4.5t-2 3q-9 2 -15 3t-9.5 3.5t-5.5 7t-2 14.5q0 5 1 9.5t1 10.5q0 17 -2 34.5t-4 34.5
q-1 4 -2.5 10.5t-3.5 13.5t-3 13.5t-1 10.5zM83 123q0 5 -0.5 12t0 14.5t2.5 14t6 9.5h3h3q2 0 4.5 -0.5t5 -1.5t4.5 -2.5t2 -3.5v-52q0 -1 -1 -1.5t-2 -0.5h-1h-1l-1 0.5t-1 1.5v17q0 1 -0.5 1t-2 0.5t-2.5 0.5h-1q-2 0 -3.5 -0.5t-3.5 -1.5q0 -1 -0.5 -2.5t-1 -3.5
t-0.5 -4v-2q-1 -4 -1 -5t-3 -1q-2 0 -3 1.5t-1 3v3v3.5zM92 150q0 -1 0.5 -4l0.5 -3q0 -1 0.5 -1.5l0.5 -0.5q1 0 3.5 -1.5l2.5 -1.5q2 0 4 2t2 3v17q0 1 -2 3t-4 2q-3 0 -4.5 -1.5t-2 -4l-1 -5t-0.5 -4.5zM182 106v-3v-3q1 -3 5.5 -3h7.5q11 0 11 11q0 1 -0.5 2l-0.5 1
q0 1 -2.5 4t-3.5 3h-16l-0.5 -2t-0.5 -3v-3v-4zM53 79v0l2 2l2 2v0q6 0 10.5 -5t7 -11.5t3.5 -13.5t1 -11q0 -2 -0.5 -5.5t-0.5 -4.5q0 -2 -2.5 -5t-4.5 -3q-3 0 -4 2t-1 4t0.5 4t1.5 4l2 4t1 4q0 6 -3 11t-6 9t-6 7t-3 6zM122 42q0 3 0.5 9t2.5 12t5.5 10.5t9.5 4.5
q2 0 3.5 -1.5t1.5 -3.5l-0.5 -0.5l-0.5 -0.5q-1 -2 -3 -3.5t-4 -4t-3.5 -5t-1.5 -5.5v-23q0 -4 -1 -4.5t-3 -0.5q-3 0 -4 1t-2 4v11zM191 35q-2 0 -7 0.5t-10.5 2t-9.5 4t-4 4.5v19q0 2 1.5 3.5t3.5 3t4 2t4 1.5h2h3h4h2q7 0 12.5 -0.5t9 -3t5.5 -7t2 -11.5q0 -5 -2 -8.5
t-5 -5.5t-7 -3t-8 -1zM169 60q0 -3 0.5 -5.5t2 -5t3.5 -4.5t5 -2h19q1 0 1.5 1.5t1 3.5t0.5 3v3q0 8 -4 11t-11 3h-5t-5.5 -0.5t-5 -2.5t-2.5 -5z" />
</svg>
