<?xml version="1.0" standalone="no"?>
<!DOCTYPE svg PUBLIC "-//W3C//DTD SVG 1.1//EN" "http://www.w3.org/Graphics/SVG/1.1/DTD/svg11.dtd" >
<svg xmlns="http://www.w3.org/2000/svg" xmlns:xlink="http://www.w3.org/1999/xlink" version="1.1" viewBox="-10 0 266 256">
   <path fill="currentColor"
d="M191 244q0 2 0.5 3.5t3.5 1.5q1 0 4.5 -1.5t3.5 -3.5v-59q0 -10 -4 -15t-10 -8t-13.5 -4t-14.5 -2l-2 -2v-13q0 -1 2 -2t3.5 -2t3.5 -1.5t3 -0.5t2.5 -0.5t3 -0.5t3.5 -0.5l2 -0.5q8 0 13 -0.5t8 -2.5t4 -6t1 -13v-4v-4q-2 -2 -4.5 -3.5t-5.5 -2.5h-5.5h-8.5h-9h-6
l-1.5 -0.5t-2.5 -0.5t-2 -0.5t-2 -0.5h-1q-2 0 -3 1.5t-1 3.5q0 1 2 2t4 3t4 5.5t2 9.5l-0.5 3t-0.5 4q-4 3 -6.5 4t-4.5 2t-2.5 4t-0.5 11v4v4q2 3 4.5 4.5t5 1.5t5.5 0.5t6 1.5q9 3 13 8.5t5.5 13t1 15.5t-0.5 16v17q-1 3 -1.5 5t-0.5 5zM92 175v7v8t0.5 8.5t1.5 7.5
q1 4 4 10.5t7 13t9 11.5t10 5q3 0 5 -1.5t2 -4.5q0 -2 -3 -4.5t-7 -5.5t-7.5 -6t-5.5 -6q-3 -5 -5 -11t-3 -12t-1 -12.5v-12.5q0 -19 1.5 -37.5t1.5 -38.5q0 -2 -0.5 -4t-2.5 -2q-3 0 -4 2.5t-1 4.5q0 20 -1 39.5t-1 40.5zM108 176q0 2 1 3t4 1t9 -1t9 -4q2 -3 3.5 -10
t2 -15t0.5 -15.5v-10.5q0 -9 -6 -12t-15 -3q-3 0 -4.5 0.5t-1.5 3.5q0 4 3 4.5t6.5 1t6.5 2t3 8.5q0 4 -1.5 6.5t-4 3t-6 1t-7.5 0.5q-2 0 -2 1.5v2.5h5.5t6.5 0.5t5 2t2 5.5q0 9 -3 13t-6.5 5.5t-6.5 2t-3 3.5zM79 108q-9 0 -15.5 3.5t-6.5 13.5v42q0 2 1.5 4t3 3.5t4 2.5
t4.5 1t4.5 0.5t4.5 0t3.5 -1.5t1.5 -4q0 -2 -3 -3t-6.5 -1.5t-6.5 -2t-3 -6.5q0 -9 2 -11.5t4 -2.5h5.5t4.5 -3q0 -1 0.5 -3.5l0.5 -2.5h-15q-1 0 -1.5 -1t-0.5 -2.5v-2.5v-2q0 -5 3 -7.5t6.5 -3.5t6.5 -2t3 -5q0 -3 -1.5 -3h-3.5zM176 122v-6v-6t3 -5h6q7 0 10 2t3 10
q0 3 -1.5 4.5t-3.5 2.5t-4.5 1.5t-5.5 0.5q-2 0 -4.5 -0.5t-2.5 -3.5zM95 43v20q0 2 -3 4.5t-8.5 5t-11.5 5t-11.5 6t-9 7.5t-3.5 9q6 0 12.5 -4.5t12.5 -9.5t13 -9t14 -4q6 0 10.5 3.5t9.5 8t9.5 8.5t10.5 4q2 0 3.5 -0.5t1.5 -3.5q0 -5 -6.5 -8.5t-14.5 -7.5t-14.5 -9.5
t-6.5 -13.5v-3v-3q1 -2 2.5 -2.5t3.5 -0.5t3.5 1t3 2.5t3.5 2.5t4 1t2.5 -1.5t0.5 -3.5q0 -4 -3.5 -6.5t-7.5 -4t-7 -3.5t-3 -5v-18h-10v19q0 4 -5.5 6.5t-12 4.5t-12 5t-5.5 8v3t2 2h1v0q8 -5 15.5 -10t16.5 -5zM156 61q0 12 4.5 16.5t16.5 4.5h7.5t6 -1t5 -3t5.5 -5
q1 -1 1.5 -2t0.5 -2v-27q0 -2 -2 -3t-5 -1.5t-5.5 -0.5h-3.5h-15t-9.5 2.5t-5 7t-1.5 14.5zM161 65q0 -1 0.5 -4l1 -6t1.5 -5.5t3 -2.5h23q2 0 3 1t1.5 3t0.5 3v3q0 2 -0.5 4.5t-1.5 5.5t-2.5 5t-3.5 2h-18q-3 0 -5.5 -3.5t-2.5 -5.5z" />
</svg>
