<?xml version="1.0" standalone="no"?>
<!DOCTYPE svg PUBLIC "-//W3C//DTD SVG 1.1//EN" "http://www.w3.org/Graphics/SVG/1.1/DTD/svg11.dtd" >
<svg xmlns="http://www.w3.org/2000/svg" xmlns:xlink="http://www.w3.org/1999/xlink" version="1.1" viewBox="-10 0 266 256">
   <path fill="currentColor"
d="M189 240v3t0.5 3.5t1.5 3t3 1.5q3 0 5 -2t2 -4v-4v-5.5v-5.5v-4q0 -17 -1 -33.5t-4 -33.5q-1 -7 -6 -9.5t-10.5 -3t-10 -0.5t-4.5 -2v-13q0 -2 3 -3.5t7.5 -2t9.5 -1t9.5 -2t7.5 -5t3 -9.5q0 -7 -3.5 -12.5t-10.5 -5.5h-9t-10 0.5t-10 2t-7 5.5q0 2 2.5 1.5t5.5 -0.5t5 2
t2 10v3v4q-3 2 -7 3.5t-7 5.5v3v4q0 7 1 11t4 6.5t8 3t12 1.5q4 3 6 8.5t3 11t0.5 11.5t-0.5 11q0 10 -0.5 20.5t-0.5 21.5zM80 232q0 3 0.5 5.5t4.5 2.5t6.5 -2.5t2.5 -7.5v-4t-1 -4v-37l0.5 -1.5l0.5 -1.5v-2v-4v-4v-2q0 -3 3 -4.5t6 -2t5.5 -1.5t2.5 -4q0 -1 -1 -1.5
t-3 -0.5q-3 0 -5 0.5t-5 0.5q-4 0 -5 -3t-1 -7q0 -5 3 -7.5t7.5 -3.5t9 -1.5t8.5 -0.5q3 0 4.5 3t2.5 7t1 8v6q0 6 -2 11.5l-4 11t-4 11.5t-3 13v2v5v5v5v3v5v5v3q1 1 2 1.5l1 0.5h1q2 0 4.5 -2t2.5 -4v-43q0 -1 0.5 -3.5t1.5 -5t2.5 -4.5t3.5 -2t2 1t1 3q2 5 5.5 10t5.5 10
l0.5 0.5l0.5 0.5q3 0 3.5 -3t0.5 -5q0 -3 -2 -6.5l-4 -7t-3.5 -7t-1.5 -6.5v-1q0 -2 1.5 -3.5t3.5 -3t3 -3.5t1 -4t-1.5 -2.5t-2.5 -0.5h-2l-1 0.5t-2 0.5t-2 0.5t-2 0.5l-1 -0.5t-2 -1.5l-0.5 -0.5l-0.5 -0.5v-11q0 -1 1 -2q1 0 3.5 -0.5t5 -0.5t4 -1t1.5 -2t-1 -2.5
t-2 -2.5q-1 0 -2.5 0.5t-4.5 0.5q-2 0 -4 -0.5t-3 -0.5t-2.5 -1t-1.5 -3v-1l0.5 -1l0.5 -1q6 -1 12 -4t6 -10q0 -2 -0.5 -4t-3.5 -2t-4 1.5t-2 4t-2 4.5t-3 2q-3 0 -4 -1.5t-1.5 -3.5t-0.5 -4v-4q0 -4 1 -6.5t3.5 -3.5t5.5 -1h7q4 -2 4 -5q0 -2 -1.5 -2.5t-3.5 -0.5
q-5 0 -9 0.5t-9 0.5h-2h-4t-3 -0.5t-1 -2.5v-10h26q1 0 3.5 -2t2.5 -3q1 -2 -1 -3.5t-3 -1.5h-21q0 -1 -0.5 -3t-0.5 -4t1 -3t4 -2h4t6 -0.5t6 -0.5h4q1 -1 3.5 -2l2.5 -1v-1v-0.5v-0.5q0 -1 -1.5 -2l-1.5 -1h-20q0 -3 1.5 -5.5t2.5 -4.5l2 -4t1 -5q0 -2 -1.5 -3t-3.5 -1
t-4.5 0.5t-3.5 2.5q-1 1 -1 3t-0.5 4l-1 4t-1.5 3q0 2 -1 6.5t-2 8.5t-3 7.5t-5 4.5q-3 -1 -4 -5t-0.5 -9t0.5 -10.5t-1 -9.5t-4.5 -7t-10.5 -3q0 3 0.5 5.5t1.5 4.5t2 4.5t1 4.5t-1 3.5t-2 1.5t-3 0.5t-4.5 0.5t-5 0.5t-3.5 0.5q-3 0 -5 1t-2 4t1.5 4.5t4.5 1.5
q6 0 12 -2.5t12 -2.5h1q0 1 0.5 3l1 4t1 3.5l0.5 1.5q0 1 -1.5 2.5l-1.5 1.5h-22q-2 0 -3.5 2t-1.5 4q0 3 2.5 3.5t5.5 0.5q4 0 8.5 -1t9.5 -1q1 0 3.5 0.5t3.5 0.5l0.5 1.5t1 3.5t1 3.5l0.5 1.5q0 1 -0.5 2t-1.5 1h-37l-0.5 0.5t-0.5 1.5q-1 1 -1.5 2l-0.5 1q0 3 3 3.5
t5 0.5q10 0 19.5 -2t20.5 -2q4 0 5.5 2.5t2 6t0.5 7.5v7v3.5v4.5v4.5v4.5l-0.5 0.5t-1.5 0.5l-1.5 0.5t-3.5 0.5t-3.5 0.5t-2.5 0.5h-3h-4t-4.5 -0.5l-2.5 -0.5q0 -7 2 -11t4.5 -7t4.5 -5t2 -5q0 -2 -0.5 -3.5t-2.5 -1.5t-4 1.5t-4 3.5t-4 3.5t-4 2.5t-7.5 1t-10.5 0.5t-9 2
t-4 5.5q0 2 3 2.5t4 0.5h3l2 -0.5l4 -1l4 -1l2 -0.5h0.5h0.5h1l1.5 1l1.5 1v10q0 3 -5 3t-10.5 0.5t-10 2.5t-4.5 9q6 0 12 -1.5t12 -1.5q2 0 3 1.5t2 4t1.5 4.5t0.5 3q0 6 -4.5 7.5t-9.5 1.5t-9.5 1t-4.5 6q0 3 2.5 4t6.5 1h1l2 -0.5l4 -1l4 -1l2 -0.5h2h1.5t1.5 2v21
q0 10 -1 19t-1 19zM179 107q0 -3 2 -5.5t5 -2.5q5 0 6.5 2t1.5 6t-2.5 7.5t-7.5 3.5q-1 0 -2 -1.5t-1.5 -3.5t-1 -3.5t-0.5 -2.5zM159 50q0 8 0.5 13t3 7t7.5 2.5t13 0.5q6 0 9 -1.5t4.5 -5t1.5 -7.5v-9v-6t-3 -6h-2.5h-3.5h-8t-10 1t-8.5 3.5t-3.5 7.5zM167 60v-1
q0 -1 0.5 -4.5t0.5 -4.5q1 -2 4 -2t4 -1q1 0 2 -0.5t2.5 -1t2.5 -1l1 -0.5q1 0 3 2t2 3v13q0 1 -1.5 1.5l-1.5 0.5h-3.5h-3.5h-3h-4t-3.5 -1t-1.5 -3z" />
</svg>
