<?xml version="1.0" standalone="no"?>
<!DOCTYPE svg PUBLIC "-//W3C//DTD SVG 1.1//EN" "http://www.w3.org/Graphics/SVG/1.1/DTD/svg11.dtd" >
<svg xmlns="http://www.w3.org/2000/svg" xmlns:xlink="http://www.w3.org/1999/xlink" version="1.1" viewBox="-10 0 266 256">
   <path fill="currentColor"
d="M189 250q0 3 3 3t5 -2t2.5 -5l1 -6t0.5 -5v-4.5t0.5 -7.5t0.5 -7.5v-4.5v-17v-9v-9v-8.5t-1 -9.5q-2 -4 -6.5 -6.5t-9.5 -4t-9 -3.5t-4 -5q0 -5 3 -6.5t7 -2.5t9 -1t9 -2t7 -6t3 -13q0 -7 -3.5 -10.5t-8.5 -5t-11 -2t-11 -0.5q-2 0 -4.5 1t-2.5 3v1l0.5 0.5t1.5 0.5l7 5
v19q0 1 -1.5 2.5l-4 4t-4.5 6t-2 9.5q0 2 0.5 5t2.5 5q11 2 16 5.5t7 8.5t2 12v17q0 14 -1.5 27.5t-3.5 27.5zM69 231q0 2 0.5 3t2.5 1q3 0 4.5 -3.5t1.5 -5.5v-66q0 -1 0.5 -3l0.5 -2h1q3 0 5.5 4t2.5 6v58l0.5 0.5t1.5 0.5v0v0q2 0 3.5 -1t2.5 -3.5t1 -4.5v-3
q0 -4 -0.5 -6.5t-0.5 -5.5v-1q0 -1 1.5 -3.5l1.5 -2.5v-1q0 -3 -0.5 -9t-1.5 -12t-2 -11.5t-2 -7.5q-2 -2 -3 -3.5t-2.5 -2l-3 -1t-3.5 -1.5q-1 0 -2 -0.5l-1 -0.5v-4q0 -5 2.5 -6.5t6 -2.5t6.5 -2.5t3 -5.5v-18q0 -1 -1.5 -1.5l-1.5 -0.5h-1.5h-0.5q-1 3 -1 6t-0.5 6.5
t-2 6t-5.5 2.5q-1 0 -2.5 -1t-1.5 -2l-0.5 -2.5t-0.5 -5t-0.5 -4.5t-0.5 -3v-2q0 -3 0.5 -6.5t1.5 -6.5q0 -1 4 -2t8.5 -2.5t8.5 -3t4 -4.5q0 -1 -0.5 -2.5t-2.5 -1.5q-1 0 -4 0.5t-6 1.5t-5.5 2.5t-3.5 1.5q-3 -1 -3 -4.5v-6.5v-2.5t1 -1.5l17 -6q1 -1 1 -1.5v-1.5
q0 -2 -2 -3.5t-4 -1.5t-4 1t-4 1q-3 0 -3.5 -1t-0.5 -4q0 -4 3 -6t7 -2.5t7 -1.5t3 -5q0 -2 -0.5 -3t-4.5 -1l-2.5 0.5t-3.5 0.5l-2 1l-2 1h-1h-1l-0.5 -0.5t-0.5 -1.5v-16q0 -1 -2.5 -2l-2.5 -1h-1v0q-1 0 -2.5 1t-1.5 2v19q0 1 -1 1.5l-1 0.5q-6 1 -10.5 2t-10.5 4l-0.5 1
l-0.5 1q0 2 1.5 3t3.5 1q3 0 5.5 -1t5.5 -1h3h3l0.5 0.5t0.5 1.5v0q0 8 -3 11t-6.5 3.5t-7 1.5t-3.5 6q0 2 2 2h3q3 0 5.5 -1t6.5 -1q2 0 3.5 3.5t1.5 5.5t-0.5 3t-2.5 2q-2 0 -5.5 0.5t-7.5 1.5t-7 3t-3 5v3.5t2 1.5q4 0 8 -2.5t8 -2.5h3t2 2v22q0 1 -1.5 2l-1.5 1h-1h-1
l-1.5 -0.5l-1.5 -0.5q0 -1 -0.5 -5t-0.5 -6q-1 -2 -1.5 -2.5t-1.5 -0.5t-2 0.5t-1 1.5v7q0 9 2.5 12t5.5 4t5.5 1.5t2.5 5.5q0 2 -2 4.5t-4.5 5t-5 5.5t-3.5 6q-2 7 -3.5 15t-2.5 16.5t-1 17v15.5q0 2 1 3.5t3 1.5t3 -1.5t2 -2.5v-17q0 -2 0.5 -7.5t1 -12t0.5 -12t1 -7.5
q0 -1 0.5 -2.5t1 -3.5t1.5 -3.5t1 -2.5l2 -2v0h1l3 2v20q0 14 -0.5 28t-0.5 28zM106 160v4t0.5 6t1 6.5t0.5 4.5q1 5 2.5 7.5t4.5 4t7 1.5h8q11 0 16 -2t7 -7t2.5 -11.5t1.5 -15.5v-2v-7.5t-0.5 -8.5t-1.5 -7.5t-2 -5.5t-3.5 -3t-5 -1.5t-4 -1.5t-1.5 -3q0 -4 1 -6.5t4 -7.5
q1 -4 4.5 -5t6 -1.5l5 -1t2.5 -3.5q0 -2 -1.5 -3t-3.5 -1h-4h-3v-2v-2q0 -3 1.5 -6t1.5 -6t-0.5 -4t-2.5 -1t-3.5 3t-3 8t-3 10.5t-3 10.5t-3 8.5t-2.5 3.5q-3 0 -4.5 -6.5t-3.5 -14t-3.5 -14t-5.5 -6.5q-2 0 -2.5 1t-0.5 3q0 3 1.5 6.5t1.5 6.5t-2 3.5t-5 1t-5 1.5t-2 5h16
l7 16v0v2q0 3 -1 4.5t-3 2.5l-4 2t-4 3q-1 3 -2 7t-1.5 8t-1.5 8.5t-1 7.5zM115 163v-2v-1l3 -2h29q1 0 1 1v2v0.5v1.5v3.5t-0.5 5t-0.5 5.5v4q-1 1 -3.5 2.5t-6 2l-7 1t-5.5 0.5q-3 0 -5 -3t-3 -7t-1.5 -8t-0.5 -6zM115 140q0 -2 1.5 -4.5t4 -3.5l5 -2t4.5 -1q9 0 14.5 3.5
t5.5 12.5q0 2 -2 3t-3 1h-27q-1 0 -1.5 -1t-1 -2.5t-0.5 -3v-2.5zM186 117v-6q0 -3 0.5 -6.5t5.5 -3.5q4 0 6.5 2t2.5 6q0 10 -9 10h-3.5t-2.5 -2zM191 41h-6t-8 1.5t-6.5 4t-2.5 6.5v21l1.5 2.5t2.5 3.5q2 2 4.5 2.5t5.5 0.5q6 0 11 -0.5t9 -3t6 -6t2 -9.5q0 -11 -4 -17
t-15 -6zM105 47q6 -2 9.5 -0.5t5.5 4.5t3 7t1.5 7.5t2 6t3.5 2.5q4 0 6.5 -4.5t4 -10t2 -10t1.5 -4.5q3 1 5.5 1t5 -0.5t5 -1.5t3.5 -3q0 -3 -2.5 -3.5t-5.5 -0.5t-5 -0.5t-2 -4.5q0 -5 2 -9t2 -8q0 -3 -1.5 -4.5t-4.5 -1.5h-2t-2 2v2t-0.5 4.5t-0.5 4v2.5q0 2 -1 6.5
t-2.5 9.5t-3 9t-2.5 4q-3 0 -4.5 -3.5t-2.5 -8t-1.5 -10.5t-2 -11t-4 -8t-6.5 -3q-2 0 -2.5 1t-0.5 3q0 3 1 5.5t2 5.5l2 6t1 6q0 2 -1.5 3t-4 1.5t-4 1.5t-1.5 3q0 1 0.5 1.5t1.5 0.5zM175 65q0 -5 1.5 -8t4 -4.5t6 -2t8.5 -0.5q4 0 5 3t1 6q0 9 -4 11.5t-13 2.5
q-4 0 -6.5 -2t-2.5 -6z" />
</svg>
