<?xml version="1.0" standalone="no"?>
<!DOCTYPE svg PUBLIC "-//W3C//DTD SVG 1.1//EN" "http://www.w3.org/Graphics/SVG/1.1/DTD/svg11.dtd" >
<svg xmlns="http://www.w3.org/2000/svg" xmlns:xlink="http://www.w3.org/1999/xlink" version="1.1" viewBox="-10 0 266 256">
   <path fill="currentColor"
d="M150 243q0 2 1 4t4 3q2 1 3.5 -1.5t2.5 -3.5q0 -4 -0.5 -14.5t-0.5 -22.5q0 -11 0.5 -21.5t0.5 -14.5v-4.5t0.5 -7.5t0.5 -7.5v-4.5q0 -2 1 -6.5t2.5 -9t3 -8t3.5 -3.5h0.5h0.5l1 1t2 2.5t2 2.5l2 2q6 7 9.5 14t5.5 14t2.5 15t1.5 19q1 1 1.5 3.5t0.5 3.5v45q0 2 2.5 4.5
t3.5 2.5q2 0 3 -1.5t1.5 -3.5t0.5 -4v-4q0 -11 -0.5 -26t-2.5 -30t-5.5 -29t-9.5 -25q-1 -2 -3 -4.5t-4.5 -4.5t-4.5 -4.5t-2 -4.5q0 -6 4 -8t8.5 -3.5t8.5 -3.5t4 -7q0 -2 -1.5 -2.5t-3.5 -0.5q-4 0 -8.5 2.5t-8.5 6.5t-7 6.5t-4 2.5q-3 0 -4.5 -3.5t-2.5 -8t-1 -9v-5.5v-3
t2 -3q1 0 3.5 -0.5t6 -1t6 -1t3.5 -0.5q5 -1 10 -2.5t6 -7.5l0.5 -3t1.5 -6.5t1.5 -7l0.5 -3.5q0 -1 0.5 -3t1.5 -3v-1q0 -3 -1 -6.5t-4 -3.5q-4 0 -5 3t-1 7t-0.5 9.5t-3 10t-8 7t-16.5 2.5q-4 0 -5 -3.5t-1 -7.5q0 -5 1 -10.5t1 -11.5v-6q-1 -2 -2 -3t-3 -1q-3 0 -4 2
l-2 4v16q0 18 2 35t7 35l1 1.5t1 2.5v2v2q-5 7 -7.5 16t-3.5 19t-1 19v19v43q-1 3 -1.5 5t-0.5 6zM54 191q3 10 12 14t19 4q13 0 21.5 -1.5t14 -5.5t8.5 -11.5t3 -20.5q0 -2 0.5 -8.5t0.5 -14t0.5 -14t0.5 -8.5v-13t-0.5 -17t-1.5 -17.5t-3 -12.5q-3 -6 -7 -7.5t-7.5 -3
t-6.5 -4t-3 -8.5q0 -8 2.5 -11.5t5.5 -4.5t6.5 -0.5t7 0.5t5.5 -1t2 -4v-2.5t-2 -2.5h-5h-5h-9t-9 2h-57l-4 4q2 3 5 4t6 1q1 0 4 0.5t7 0.5q3 0 6 -0.5t4 -0.5q4 3 4 7v9v9q-1 3 -5 4t-8.5 2t-7.5 3.5t-4 7.5q0 2 -0.5 9t-1.5 14.5t-1 14t-1 9.5v1q0 16 1 36t3 38zM66 189
v-2q2 -3 5 -5.5t6 -5.5t6.5 -4.5t6.5 -1.5q4 0 6.5 1t4.5 3t4.5 4t5.5 3q1 1 3 1h3t2 0.5t1 3.5q0 5 -5 8.5t-10 3.5h-26q-2 0 -4 -1l-4 -2t-3.5 -3t-1.5 -3zM90 160q-4 0 -7.5 2.5t-6.5 5t-5.5 4.5t-5.5 2q-2 0 -2.5 -0.5l-1.5 -1.5v-5v-5q0 -7 2.5 -11t6 -7.5t7 -8
t5.5 -10.5q2 -7 3.5 -14.5t1.5 -15v-15.5t1 -15q0 -1 1 -3.5t3 -2.5q1 0 2 1t1.5 2.5t1 2.5t0.5 2q0 2 -0.5 8t-0.5 12q0 7 0.5 13t0.5 8q0 9 2 14.5t5 9.5t6.5 6.5t6.5 6.5t4.5 9t1.5 12q0 2 -0.5 5.5t-3.5 3.5q-4 0 -7.5 -2t-6.5 -5t-6.5 -5.5t-8.5 -2.5zM105 110v-46
q10 0 14 5.5t4 16.5v43v1.5t-0.5 3l-1 3t-1.5 1.5q-6 -5 -8 -8t-3 -5.5t-1.5 -5.5t-2.5 -9zM61 116v-22t2 -21q0 -1 1.5 -3t3 -3.5t3.5 -2.5t3 -1h1q1 0 1.5 1l0.5 1q1 5 1 9t0.5 8t0.5 8v9q0 4 -0.5 10t-2.5 11.5t-5 10t-8 5.5l-2 -4v-2v-5v-5v-4zM88 27h7v2t0.5 4.5l1 5
t0.5 4.5v4v6q-1 0 -4 -0.5l-3 -0.5q-1 0 -1.5 -1l-0.5 -1v-23z" />
</svg>
