<?xml version="1.0" standalone="no"?>
<!DOCTYPE svg PUBLIC "-//W3C//DTD SVG 1.1//EN" "http://www.w3.org/Graphics/SVG/1.1/DTD/svg11.dtd" >
<svg xmlns="http://www.w3.org/2000/svg" xmlns:xlink="http://www.w3.org/1999/xlink" version="1.1" viewBox="-10 0 266 256">
   <path fill="currentColor"
d="M143 245q0 2 2 3.5t5 1.5q2 0 3.5 -1t2.5 -3t1 -4.5v-4.5v-20q0 -1 0.5 -8t1 -14.5t1.5 -14t1 -8.5v-1.5v-2.5v-4v-1q0 -1 0.5 -3.5t0.5 -3.5t1 -3l1 -2q1 -12 1.5 -23.5t0.5 -23.5q0 -8 -4 -12.5t-8.5 -6.5t-8.5 -3.5t-4 -3.5v-13l-3 -3q-3 2 -3 5.5v6.5q0 9 3.5 12
t7.5 4.5t7.5 4t3.5 9.5v8.5t-1 8.5h-3q-7 0 -9 -3t-2.5 -7t-1.5 -7t-4 -3q-4 0 -4.5 3t-0.5 5q0 4 1 7.5t1 7.5q0 15 -1 32t-5 31q-1 4 -3 8.5t-3.5 9.5t-3 9.5t-1.5 8.5q5 0 8.5 -3t5 -7.5t2.5 -10t1.5 -10t1.5 -8t3 -3.5l4.5 -1.5t2.5 -0.5q2 0 3 0.5t4 0.5q0 15 -2.5 32
t-6.5 32v1zM176 148v31q0 1 0.5 3.5t0.5 5.5t0.5 6t0.5 5t1 9.5t3 15.5t4.5 14t5.5 6h1q2 -1 3 -2.5t1 -3.5q0 -6 -1.5 -11.5t-3.5 -10.5t-3.5 -10.5t-2.5 -11.5v-4v-8v-7v-4t-0.5 -3.5t-0.5 -3.5v-41q2 -6 2 -12t1 -12t2.5 -11.5t5.5 -11.5q-1 -3 -2.5 -6.5t-5.5 -3.5
q-2 0 -4 3.5t-3 8.5t-1.5 11.5t-1 12t-1 9.5t-1.5 5v32zM194 137q0 17 2.5 34.5t7.5 33.5q1 4 2.5 6.5t4.5 2.5t4.5 -1.5t1.5 -4.5q0 -7 -2.5 -12t-4.5 -12q-4 -12 -5 -24.5t-1 -24.5q0 -8 1.5 -15.5t1.5 -15.5v-3.5v-3.5t-1 -3t-3 -1q-3 0 -4 1t-2 4q0 2 -0.5 7.5t-1 11.5
t-0.5 11.5t-1 7.5v1zM45 113v8.5v12.5v13v9v14t1.5 15.5t5 14t9.5 9.5h3h4.5h4.5h3q10 0 18.5 -1.5t14 -6t9 -11.5t3.5 -19v-103q0 -1 1.5 -2t3.5 -2t4.5 -2t2.5 -2q3 -3 6 -8.5t7 -11t8 -9.5t9 -4h3.5t3.5 1q1 1 4 3.5l6 5t5.5 5l3.5 3.5q2 2 4 4.5t4 5.5t4.5 5t4.5 2
q3 0 5.5 -2.5t2.5 -5.5l-0.5 -0.5l-0.5 -0.5l-2 -2t-2 -3q-2 -1 -6 -4.5t-9 -8t-9.5 -8t-6.5 -5.5q-1 -1 -3 -2.5t-4 -3.5t-4 -3t-3 -1q-3 0 -7.5 3.5t-9 9t-9 12t-8.5 12t-6.5 9.5t-3.5 4h-1q0 -1 -1.5 -2t-2.5 -2t-2.5 -2l-1.5 -1l-1.5 -1l-1.5 -1h-3t-4 -0.5t-3.5 -0.5
h-2.5v-5v-7.5t2 -7.5l2 -0.5t4 -0.5t4 -0.5l2 -0.5q2 0 5 -1.5t3 -4.5v0q0 -1 -0.5 -2t-0.5 -2h-4h-4h-9t-13 0.5l-14 1t-13 1.5t-10 2t-4 2q0 4 4 5t9 0.5t9 0t4 4.5v15l-1.5 0.5l-1.5 0.5q-11 4 -16 7t-6.5 8t-1 12.5t-0.5 19.5v2v5t1 6zM63 191v0l17 -19q1 0 2 -0.5
t2 -0.5q2 0 5 2.5t6 6t5.5 7t2.5 5.5t-2 3.5t-4.5 2l-5 1t-3.5 0.5h-5t-8.5 -0.5t-8 -2t-3.5 -5.5zM109 183l-21 -20q-1 -2 -2 -2h-2q-3 0 -6 1.5t-6 4t-5.5 5t-3.5 4.5h-2q-2 0 -3.5 -2.5t-2 -6t-0.5 -6.5v-5v-7q5 -6 10 -9.5t9 -10.5l1 -2l1 -2q2 -17 2 -32.5t2 -30.5
q1 -1 2 -1.5t2 -0.5v0v0h1v0q1 0 2 1.5l1 1.5q1 3 1 10.5t1 16t1 16t1 10.5q0 9 3.5 13.5t7 7.5t7 5t3.5 7v4q0 2 -1 3v6t-0.5 7.5t-0.5 6.5v3zM149 154h1q0 1 1.5 2t1.5 2v13h-16q0 -3 0.5 -6t1.5 -5.5t3.5 -4t6.5 -1.5zM140 139q0 -4 1.5 -6t4 -3t6 -1h6.5q0 1 -0.5 3.5
t-0.5 5t-1 4.5t-2 2h-13q-1 0 -1 -2v-3zM55 114v-7v-9v-8v-4q0 -2 0.5 -6t2 -8t3.5 -6.5t6 -2.5q1 0 2.5 0.5t1.5 2.5v13v14t-1.5 16t-4 15t-7.5 10l-3 -3v-2v-5v-6v-4zM95 79v-1v-3t0.5 -4.5t1 -4.5t0.5 -3t1.5 -1.5t2.5 -0.5q3 0 5.5 3.5t3 7.5l1 8t0.5 6t0.5 6t0.5 8.5v9
v6.5q1 0 1 2v2q0 3 -0.5 5l-1.5 6h-0.5h-0.5q-4 0 -6.5 -4t-4 -9t-2 -10.5t-0.5 -7.5q0 -1 -0.5 -3t-1 -5.5t-0.5 -6.5v-5v-1zM147 48q0 4 4 4.5t6 0.5q6 0 11.5 -1t11.5 -2l3 -3v-1v-1l-1 -2h-7h-7t-9.5 0.5t-8 1.5t-3.5 3zM84 32q1 0 3 1.5t1 3.5l-1 15h-1h-1h-3t-2 -2
v-17l1.5 -0.5t2.5 -0.5z" />
</svg>
