<?xml version="1.0" standalone="no"?>
<!DOCTYPE svg PUBLIC "-//W3C//DTD SVG 1.1//EN" "http://www.w3.org/Graphics/SVG/1.1/DTD/svg11.dtd" >
<svg xmlns="http://www.w3.org/2000/svg" xmlns:xlink="http://www.w3.org/1999/xlink" version="1.1" viewBox="-10 0 266 256">
   <path fill="currentColor"
d="M171 167q4 0 7.5 2.5t6.5 6t6.5 7t6.5 4.5q1 1 2 1.5l1 0.5v59q3 0 6 -0.5t5 -3.5v-4v-7.5v-6.5v-5v-6v-7v-6v-4q-1 -5 -1 -13.5t-1 -16t-1 -13.5t-1 -6l-10 -12h-23v-32q0 -2 3.5 -3.5t7 -2.5t7 -3.5t3.5 -7.5q-5 0 -9 1t-8 1t-4 -4q0 -2 0.5 -3.5t1.5 -3.5h2h3
q16 0 20 17v5.5v8.5v8v5v4v4t1.5 3.5t3.5 1.5q3 0 5 -3v-3v-4.5v-4.5v-2q0 -7 -0.5 -15t-1.5 -15q-1 -5 -4 -8.5t-7 -5.5t-8 -3.5t-7.5 -2.5t-6 -2t-2.5 -2q0 -4 2.5 -6.5t6 -4t7.5 -2.5t7.5 -3.5t6 -5.5t2.5 -9q0 -10 -4.5 -13.5t-12.5 -3.5h-5.5t-8.5 0.5t-10 1.5t-9.5 2
t-7 2t-2.5 2v1q0 1 0.5 1.5l0.5 0.5h4h4q8 0 16.5 -1t17.5 -1q3 0 4 3.5t1 7.5v0v0q0 1 -0.5 2.5l-0.5 1.5q-3 1 -6.5 2t-6.5 2.5t-6 3.5t-5 5q-1 1 -1.5 3.5l-1 5l-1 5t-1.5 2.5h-3h-4h-6t-5 -3q-1 -3 -1 -7t-1 -8t-2.5 -7t-4.5 -6q-3 2 -3 3.5v3.5q0 17 6.5 25.5t23.5 7.5
q2 3 2 6v5v8q-2 2 -5 4.5t-6 4.5t-5.5 4t-3.5 3l-3 3l-3.5 3.5t-2.5 3t-1 2.5v5q4 0 7 -2.5t5.5 -6t5 -6.5t7.5 -4q2 0 3 2t1.5 5t0.5 5v4v8q-1 2 -5 3t-9 2t-9.5 4t-5.5 9q0 1 -0.5 5t-1 9t-1 9t-0.5 5v5v5.5t-0.5 8.5t-0.5 11v11t-0.5 9t-0.5 5v11q4 0 7 -2.5t3 -6.5v-50
l1 -1l2 -2l2 -2l2 -2q2 -1 4.5 -3.5t5.5 -5t6 -4.5t5 -2zM48 150v10v12v10.5v4.5q0 8 1.5 16t5 14t8.5 10.5t14 4.5q5 0 12 -1t13.5 -3t11.5 -6.5t6 -11.5q0 -2 0.5 -6t1 -8.5t1 -8.5t0.5 -5t1 -4l1 -3v-97q0 -6 -3.5 -8.5t-8 -4t-8.5 -3.5t-4 -7t0.5 -9.5t1.5 -10.5
q4 -5 9.5 -5.5t10.5 -1.5q1 0 2 -1.5t2 -1.5v-1v-1q-1 -1 -1.5 -2t-0.5 -2h-7h-7t-8 2h-56q-2 0 -3 2t-1 3q0 4 3.5 6t6.5 2q4 0 8 -1t8 -1q3 0 5.5 0.5t3.5 4.5q1 1 0 4t-1 4v16q-2 3 -5 4t-6 1.5t-6 1.5t-5 4q-3 5 -3.5 10l-1 10l-1 10t-1.5 10v7.5v11.5v11v8zM155 188v32
q0 2 3 4t4 2h9q7 0 11 -1t6 -4.5t2 -8.5v-14q0 -2 -1 -6t-4 -5l-1.5 1l-1.5 1l-3 4.5t-2 2t-3 1t-6 0.5q-3 0 -4 -1.5l-2 -3t-2.5 -3t-4.5 -1.5zM65 211q0 -3 2.5 -5.5t6.5 -5.5t7.5 -4.5t6.5 -1.5q2 0 5 2.5t5.5 5t4.5 5.5t3 4v1q0 3 -3 4t-7 2t-7.5 1h-4.5h-4.5t-6.5 -1
t-5.5 -2.5t-2.5 -4.5zM163 210q0 -2 0.5 -3t1.5 -1h13q1 0 1.5 0.5t0.5 1.5v0q0 2 -1 3t-2.5 2l-3 2t-1.5 2h-1q-3 0 -5.5 -2.5t-2.5 -4.5zM56 180q0 -7 3 -12t6.5 -9.5t7.5 -9t5 -11.5q1 -3 2 -9t1.5 -13t1.5 -15t2 -14.5t2 -10.5t2 -4h2t2 2v62q0 10 3.5 15t7.5 9.5t7.5 9
t3.5 12.5v5q0 2 -0.5 4.5t-1.5 4t-3 1.5q-4 0 -7 -2.5t-5.5 -5.5t-5 -5t-5.5 -2q-4 0 -6.5 2t-5 5t-5.5 5.5t-7 2.5q-3 0 -4 -2t-1.5 -4.5t-1 -5.5t-0.5 -5zM174 147h21q2 0 3 2.5t1.5 5t0.5 5.5v3l0.5 3t0 6t-2.5 3q-3 0 -7 -3t-8 -7.5t-6.5 -9t-2.5 -8.5zM167 149
q0 4 -2 8t-5 7t-6.5 5t-7.5 2q0 -7 1 -11.5t3.5 -7t6.5 -3t10 -0.5zM100 96v-4v-6v-6v-4q1 -2 2 -2h2q6 0 8.5 5.5t2.5 10.5v55l-2 8h-1q-2 0 -4 -2t-3.5 -5t-2 -6t-0.5 -6q-1 -6 -1.5 -10.5t-0.5 -8.5v-8v-11zM73 74q3 0 3.5 3.5t0.5 6.5v2v1q-1 2 -1 7.5t-1 11t-1.5 10
t-0.5 6.5q0 3 -1 7t-2.5 8.5t-4 7.5t-5.5 3v-8v-12v-11.5v-7.5v-4.5t0.5 -7t0.5 -6.5t1 -4q0 -5 3 -9t8 -4zM85 50v-5t0.5 -6t2 -5t4.5 -2h1.5t1.5 2v7v6q0 3 -0.5 6t-2 5.5t-5.5 2.5q-1 0 -1.5 -1.5t-1 -3.5t0 -4z" />
</svg>
