<?xml version="1.0" standalone="no"?>
<!DOCTYPE svg PUBLIC "-//W3C//DTD SVG 1.1//EN" "http://www.w3.org/Graphics/SVG/1.1/DTD/svg11.dtd" >
<svg xmlns="http://www.w3.org/2000/svg" xmlns:xlink="http://www.w3.org/1999/xlink" version="1.1" viewBox="-10 0 266 256">
   <path fill="currentColor"
d="M165 244q0 2 1 4.5t4 2.5q5 0 6.5 -4t1.5 -8q0 -8 -1 -15.5t-1 -15.5v-3v-4.5v-4.5v-3q1 -5 3.5 -6.5t5 -2t5.5 -1t5 -3t3.5 -8.5t1.5 -17q0 -4 -0.5 -5t-4.5 -1q-3 0 -3.5 2t-1 5t-0.5 6t-1 6t-3 5t-6 2h-2t-2 -1q0 -1 -0.5 -3.5t-0.5 -5.5t-0.5 -5.5t-0.5 -3.5v-4
q0 -5 2 -7.5t4.5 -3.5t5.5 -2t6 -3t4.5 -6t1.5 -11q0 -3 -0.5 -5.5t-3.5 -2.5q-4 0 -5 2.5t-1 6t-0.5 7t-3.5 3.5q-1 0 -3.5 -0.5t-3.5 -0.5q0 -10 1 -15t3 -7t4.5 -2h5t4.5 -1.5t3 -7.5h4q3 0 6 -0.5t5 -1.5t2 -4v-2v-1q-6 -1 -11.5 -2t-9.5 -3t-6.5 -5t-2.5 -9q5 0 10 1.5
t11 1.5q3 0 4 -0.5t1 -3.5q0 -4 -2 -5.5t-5 -2.5t-7 -1t-7 -0.5t-5.5 -2t-2.5 -4.5t0.5 -4.5t3.5 -1.5q5 0 10 1.5t11 1.5q3 0 3.5 -1t0.5 -4t-4.5 -4t-10 -2t-10 -2t-4.5 -4v0q0 -1 1 -1v-2.5t0.5 -4.5t0.5 -4.5v-2.5q0 -3 -2.5 -4t-4.5 -1h-2.5t-1.5 1v7v6v9.5t0.5 12
t0.5 11.5v6t0.5 3.5t1 6t1.5 6t2 4.5l2 0.5t4 2t3.5 3t1.5 2.5q0 3 -2.5 4t-6 1.5t-7 2t-4.5 4.5q-2 4 -2 10q0 4 -0.5 8.5t-2.5 7.5t-9 3q-2 0 -3.5 -2.5t-2.5 -6t-1 -6.5v-4l-1.5 -1.5t-1.5 -0.5q-3 0 -3.5 1.5t-0.5 3.5q0 10 2 15t4.5 7t5.5 2.5t6 0.5t4.5 0.5t1.5 3.5
v26q0 3 -1 3h-3q-5 0 -7.5 -1t-3.5 -3t-1.5 -5.5t-0.5 -7.5q-1 -1 -2 -1.5l-1 -0.5q-1 0 -2 1.5t-2 1.5v6q0 6 2 10t5 6t7.5 2.5t9.5 0.5q0 15 -0.5 30t-0.5 30zM43 107v5q0 1 0.5 4t0.5 6t0.5 6t0.5 4q0 8 -0.5 17.5t1 18.5t6 16.5t14.5 9.5l12 4t13 2q4 0 9.5 -1t10.5 -3
t9.5 -5t5.5 -8q2 -14 3.5 -30t1.5 -30t-2 -26t-3 -25q-2 -3 -6.5 -4.5t-8.5 -3t-7 -4t-3 -6.5v-2v-1q0 -2 0.5 -5.5l0.5 -3.5h23l1 -2q1 0 1.5 -1.5l0.5 -1.5q-1 -1 -2.5 -3t-2.5 -2h-4.5h-4.5q-17 0 -34.5 1t-34.5 2q-2 0 -2 1.5v2.5q0 2 1 4t4 2h24l1 1q0 1 0.5 3t0.5 3
q0 7 -2.5 9.5t-6 3.5t-8 2.5t-8.5 6.5q-2 8 -4 16.5t-2 16.5zM68 184q0 -2 2.5 -5.5t5.5 -6.5l6 -6t4 -5h2q4 0 6.5 3.5t4.5 5.5q1 1 2.5 3l3 4t3.5 3.5t2 2.5q-1 3 -4 4t-7 1.5t-8 0t-6 -0.5q-1 0 -3.5 0.5t-5.5 0t-5.5 -1.5t-2.5 -3zM54 152q0 -2 3 -6t7 -8.5t8 -9.5t6 -9
q2 -5 3 -11t1 -11.5v-11.5t1 -11q0 -1 2 -2.5t3 -1t2.5 2l2.5 2.5v7.5t0.5 11.5t0.5 11v7q1 9 5.5 13t9.5 7.5t9 7t4 10.5t-2 13t-3 12h-1.5h-0.5q-2 0 -4.5 -3.5t-6 -8t-7 -8.5t-8.5 -4q-4 0 -8.5 4t-8.5 8.5t-7.5 8t-4.5 3.5q-2 0 -3 -3t-1.5 -7t-1 -7.5t-0.5 -5.5z
M52 125l4 -38q0 -2 1 -4.5t3 -5t4 -4t5 -1.5q1 0 2.5 1t1.5 2t0.5 4.5t0.5 4.5q0 6 -1 13.5t-2.5 14.5t-5.5 13t-9 10l-2 -2l-0.5 -1.5t-0.5 -2.5t-0.5 -2.5zM101 87v-2v-3v-4.5v-2.5q2 -3 5 -3h1q1 0 2.5 0.5t2.5 1.5q1 0 2 0.5l1 0.5l5 13v39q0 1 -1.5 1.5t-2.5 0.5
q-4 0 -7.5 -5.5t-5 -12.5t-2 -14t-0.5 -10zM154 69q0 5 -3.5 8l-7 6t-6.5 5.5t-3 5.5q12 0 17.5 -5t8.5 -13t3 -17.5v-17.5v-5v-6.5v-6.5v-4q1 -3 -1 -3.5t-4 -0.5h-2t-2 3q0 7 -1.5 11.5t-4.5 6.5t-7 3.5t-7 2.5t-5.5 2t-2.5 4q0 2 1 2.5t2 0.5q3 0 6 -1t5.5 -2l5 -2
t5.5 -1q2 0 3 0.5t1 4.5q0 3 -4 5.5t-9 4.5t-9 3.5t-4 4.5q0 4 5 4q2 0 4 -1l4 -2l4 -2t4 -1q3 -1 3.5 0t0.5 3zM83 61v-7v-2.5v-3t1 -2.5t3 -1q4 0 5 3t1 6t-1 6t-4 3q-1 0 -3 -1z" />
</svg>
