<?xml version="1.0" standalone="no"?>
<!DOCTYPE svg PUBLIC "-//W3C//DTD SVG 1.1//EN" "http://www.w3.org/Graphics/SVG/1.1/DTD/svg11.dtd" >
<svg xmlns="http://www.w3.org/2000/svg" xmlns:xlink="http://www.w3.org/1999/xlink" version="1.1" viewBox="-10 0 266 256">
   <path fill="currentColor"
d="M71 195q0 1 0.5 4t0.5 6.5t0.5 6.5t0.5 5q0 4 1 8.5t3.5 9t5.5 7.5t7 3h3h5.5h4.5h3q7 0 18.5 -0.5t24 -1.5t24 -4.5t16.5 -9.5q2 -2 3 -5t1 -7v-8v-6q0 -7 -0.5 -14.5t-1.5 -13.5t-4.5 -9.5t-8.5 -5.5t-10 -2.5t-9 -1.5t-7 -2t-3 -3t1.5 -3.5t3.5 -1.5h27q3 -2 6.5 -1.5
t7.5 0.5q3 0 6 -1t4 -5q1 -2 0 -3t-2.5 -1.5t-2.5 -0.5h-2q-10 0 -19 1.5t-18 1.5q-25 2 -48.5 3t-47.5 4q-1 0 -3.5 1l-2.5 1q-2 1 -2 4v4q10 0 21 -2.5t22 -2.5h4h4l1.5 3t0.5 3q0 3 -3 4.5t-7.5 2.5t-9 3t-9 5.5t-7.5 9.5t-3 15zM129 216q2 0 5 1t6 3.5t5.5 4.5t3.5 4
q-3 5 -7 5q-2 0 -6.5 0.5t-10 0.5t-10 0.5t-5.5 0.5h-6q0 -3 3 -6.5t7 -6.5t8 -5t7 -2zM84 211q0 -1 4 -4t9 -6.5t9.5 -6.5t6.5 -6q0 -1 1.5 -3.5t3 -6t3 -6.5t1.5 -4q4 -2 7.5 -2h7.5h3h2l1 2q0 11 2.5 16.5t6.5 9t10.5 5.5t15.5 5q2 0 2 3v3q0 3 -0.5 6t-2 5.5t-3.5 4.5
t-5 2h-2t-2 -1q-4 -3 -8 -6.5l-8 -7t-8.5 -6t-10.5 -2.5t-11.5 4t-10.5 8.5t-8.5 8t-6.5 3.5q-2 0 -3.5 -2t-3 -5t-2 -6t-0.5 -5zM105 171q3 0 3 2.5v4.5v4q-4 1 -6.5 3t-5 4.5t-5.5 4.5t-8 2q0 -5 2 -9.5t4.5 -8t6.5 -5.5t9 -2zM151 170v-1l0.5 -0.5t1.5 -0.5h17q3 0 4.5 2
t3 4.5t2 5.5t0.5 5q0 4 -1.5 5t-5.5 1t-7.5 -2t-7 -4.5t-5.5 -6t-2 -8.5zM120 153q0 -3 2 -4t4 -1.5t4.5 0t3.5 0.5h6q2 2 2 5q0 2 -1.5 2.5t-3.5 1t-4 0t-3 -0.5h-4h-4l-1.5 -1.5t-0.5 -1.5zM52 96v10t1 11.5t4 9.5t9 4q0 -7 -1 -13t-2 -11.5t-1.5 -11.5t0.5 -14
q-1 -2 -2.5 -2h-2.5h-3t-2 2v15zM70 92v1q0 2 0.5 5.5t1 6.5l1 6l0.5 3q0 1 1 4t2 5.5t3 5t4 2.5q4 0 4 -4v-1l-5.5 -22t-2.5 -21q0 -6 1.5 -11.5t3.5 -10.5t3.5 -10.5t1.5 -11.5q0 -8 -3 -13.5t-13 -5.5q0 4 1.5 7t3 5.5t2.5 5t1 6.5q0 6 -2 12t-4 11.5t-3.5 11.5t-1.5 13z
M104 104q0 1 0.5 2.5t1.5 1.5h19q2 0 3 3.5t1 7.5v8v4h3.5t2.5 -2q0 -10 2 -15t4.5 -7t5.5 -2.5t5 -0.5t3.5 -1t1.5 -4v-1l-0.5 -0.5l-0.5 -0.5h-18q-1 0 -1.5 -1.5t-0.5 -2.5t2.5 -2t5.5 -2.5l6 -3t4 -2.5q3 -5 3 -11.5v-11.5q0 -10 -4.5 -14t-14.5 -2q-1 -1 -1.5 -2
t-0.5 -2q0 -4 3 -4.5t7 -0.5t7 -0.5t3 -4.5q0 -1 -0.5 -2.5t-1.5 -1.5h-14q0 -3 0.5 -5.5t0.5 -4.5t-1.5 -3.5t-5.5 -1.5q-3 0 -4 0.5t-2 1.5t-1 2.5v4.5q-1 6 -3.5 8t-6 2.5t-6 1t-2.5 3.5v1l1 1h4t6 0.5t5 2t2 4.5v1q-2 1 -5 1.5t-6 2t-5.5 4t-2.5 5.5v6.5t0.5 7l1 7
t1.5 6.5t4 3.5t5.5 1t4.5 2t2 4.5t-0.5 3t-4.5 1h-3.5t-5 0.5t-5 0.5h-3.5q0 1 -0.5 2zM89 96q0 3 0.5 8.5t1.5 11t3.5 9.5t6.5 4t4 -2v-1q-1 -1 -1.5 -5t-2 -8.5t-2.5 -8t-1 -4.5t0.5 -4t0 -6.5t-1.5 -6t-4 -2.5q-1 0 -2 2t-1.5 4.5t-0.5 5v3.5zM164 89v7.5t0.5 11.5
t1.5 10.5t3 4.5h1q1 0 2 -1.5l1 -1.5v-48q0 -4 3 -7.5t7.5 -6.5t9 -4.5t6.5 -2.5q1 -4 2 -7t1 -6q0 -5 -4 -8.5t-9 -3.5l-4 0.5t-8.5 1.5t-8.5 2.5t-4 3.5v1l0.5 1l0.5 1q1 0 3.5 -0.5t4.5 -0.5q3 0 5 0.5t3 0.5q3 0 5.5 1t2.5 5q0 1 -2.5 2.5t-6 4l-7 5t-4.5 4.5
q-1 1 -1.5 4t-1.5 7t-1.5 7t-0.5 4v8zM179 80q0 4 1 11t3 14t5 12t7 5t4 -4t-2 -8.5t-4 -8.5t-3.5 -8t-1.5 -8t2 -7t4.5 -5.5t4.5 -5.5t2 -8q-4 0 -7.5 2t-6.5 5t-5.5 6.5t-2.5 7.5zM117 77q0 -2 1 -4t3 -2q3 0 4.5 1.5t1.5 4.5q0 2 -1 4t-3 2q-3 0 -4.5 -2t-1.5 -4zM136 76
q0 -3 2.5 -5t5.5 -2q2 0 3 0.5t1 3.5t-1.5 4.5t-4.5 1.5q-2 0 -4 -0.5t-2 -2.5zM59 50q0 4 -1 8t-1 9q4 0 7 -2t4 -5.5t1.5 -8t0.5 -8.5q0 -7 -5.5 -9.5t-11.5 -2.5q0 3 1 5l2 4t2 4.5t1 5.5zM90 62q0 3 1.5 3.5t3.5 0.5q3 0 5.5 -3.5t4 -8t2 -9t-0.5 -7.5q-1 -5 -6 -5
q-1 0 -2 0.5t-1 1.5q1 8 -0.5 12t-2.5 6.5t-2.5 4.5t-1.5 4zM117 61q0 -3 2 -4.5t4 -1.5l1 1l1.5 1t1.5 2v0v0q0 3 -2.5 4t-4.5 1q-3 0 -3 -3zM136 57q0 -2 2 -4t4 -2q4 0 6 3t2 7h-12q-1 0 -1.5 -1.5t-0.5 -2.5z" />
</svg>
