<?xml version="1.0" standalone="no"?>
<!DOCTYPE svg PUBLIC "-//W3C//DTD SVG 1.1//EN" "http://www.w3.org/Graphics/SVG/1.1/DTD/svg11.dtd" >
<svg xmlns="http://www.w3.org/2000/svg" xmlns:xlink="http://www.w3.org/1999/xlink" version="1.1" viewBox="-10 0 266 256">
   <path fill="currentColor"
d="M123 249q1 1 2 1.5l1 0.5q3 0 4.5 -2.5t2.5 -5t1.5 -5.5t0.5 -4q-1 -16 0.5 -31.5t4.5 -31.5l-1 -1.5t-1 -2.5v-2q0 -15 1 -31.5t2 -32.5q2 -4 7 -6.5t11.5 -4t13 -2t12.5 -1.5t9.5 -2t3.5 -3q0 -3 -1 -3.5l-3 -1.5q-1 0 -2.5 0.5t-3.5 0.5t-3.5 0.5t-2.5 0.5h-1h-2
q-4 0 -6 -1.5t-2 -5.5t2.5 -6.5t6 -5t6 -4.5t2.5 -5q0 -6 -3.5 -9t-9 -5t-10.5 -3t-9 -2q-3 0 -4.5 -3.5l-3 -7t-3 -6t-3.5 -2.5t-2 1.5v2.5q0 4 1.5 7t3 5.5t3 4.5l1.5 2q0 6 -3.5 10t-7 6.5t-7 6t-3.5 8.5q6 0 10 -2t7 -5.5t6 -7.5t7 -8h3q1 0 4 0.5t5.5 1t4.5 1.5t2 3
q0 3 -1.5 5t-3.5 4t-4 3.5t-3 4.5t-1 6t-2 6q-3 4 -7 5l-8 2t-8 4t-7 11q0 2 0.5 6t0.5 9q0 4 -0.5 8t-0.5 6v1t-0.5 3t-0.5 3v2q-1 18 -1.5 35.5t-1.5 35.5q-1 9 -3 18t-2 18v3zM197 248q0 1 1 1h2q5 0 7 -3v-2.5v-3.5q0 -5 -1.5 -13.5t-4 -17t-5.5 -16.5t-5 -13
q-2 -4 -7.5 -5.5t-11.5 -3t-10 -4t-4 -7.5q0 -6 3.5 -9t8.5 -4.5t11 -2.5t11 -2.5t8.5 -5t3.5 -9.5q0 -8 -2.5 -12t-6.5 -6t-9.5 -2.5t-11.5 -0.5h-12h-2t-3.5 0.5t-3 1.5t-1.5 2q0 3 1.5 3.5t4 1t4.5 3t2 10.5t-2.5 11.5t-4.5 6t-4.5 5t-2.5 8.5q0 7 1.5 10.5t4 5.5t6 3
t7.5 1.5t7.5 2t6.5 4.5q2 3 4 8.5t4 11.5t3 12t1 9q0 1 0.5 4t0.5 6t0.5 6.5t0.5 4.5zM56 225v0l2 2h5l4.5 -0.5t11 -1t14 -1.5t13.5 -2t10.5 -2.5t4.5 -2.5v0q0 -1 -1 -1l-1 -0.5l-1 -0.5h-3h-4h-4h-3q0 -2 -2 -2h-3.5h-1.5q-1 -2 -1.5 -8.5t-1 -13.5t-1 -13.5t-0.5 -8.5
v-16v-14q1 -1 1.5 -3t2.5 -2l21 -3l0.5 -0.5l0.5 -0.5v-1v-1l-0.5 -1.5l-0.5 -1.5h-21q-3 0 -4 -3t-1 -5q0 -7 3 -10t6 -4t6 -1.5t3 -2.5v-1l-0.5 -0.5l-0.5 -0.5q-1 0 -4.5 -0.5t-4.5 -0.5q-3 0 -6 0.5t-5.5 1.5t-4 3.5t-1.5 6.5q0 5 0.5 9.5t0.5 9.5h-4h-6h-6h-5l-2 0.5
t-3.5 1.5l-3 2t-1.5 2q0 2 2.5 3t4.5 1h1h3t4 -0.5t4 -0.5h2l2 -1t3 -1v0q4 0 5.5 3t1.5 5v3v3v1t-0.5 2.5l-1 3t-0.5 2.5q0 11 2 23t2 24v9q-2 3 -7 3.5t-10.5 1t-10 2t-4.5 5.5zM65 210q0 2 1.5 3.5t3.5 1.5l1 -2q1 -2 2 -5t1 -5q0 -1 -0.5 -5.5t-0.5 -9.5t-0.5 -9.5
t-0.5 -5.5v-3q0 -2 1 -4.5t1 -5.5t-1.5 -7t-5.5 -4h-2t-2 2v15v12t0.5 10l1 10t0.5 12zM104 151v7t0.5 11l1 12t1.5 11.5t2 8.5t2 3q3 0 4 -2t1 -5v-6v-5q0 -9 -1.5 -18t-1.5 -19q-2 -3 -4 -3q-3 0 -4 1.5t-1 3.5zM171 128q0 -3 0.5 -5.5t1.5 -6.5q1 -1 2.5 -1.5t3.5 -0.5
h3.5h2.5t3 0.5t3 0.5l3 3v10q0 2 -2.5 3.5t-5.5 3t-6 2t-4 0.5q-3 0 -4 -3t-1 -6zM49 84v1l1 1.5t2 1.5q2 0 5 -3t6 -8t6.5 -10.5t7 -10t6 -7.5t4.5 -3t4.5 2t5 4.5t4.5 5.5t2 5q0 3 -1 3t-5 1h-5t-6.5 0.5t-7 0.5h-4.5t-2 0.5t-1 1.5v0v0q0 5 3.5 5.5t6.5 0.5h3t2 -2
q11 -1 21 -1q2 0 3 1l2 2l2 2t3 1t2 -2v-4q0 -3 -4 -10t-10 -14t-11 -12.5t-8 -5.5q-2 0 -5 3t-6 7.5l-6 9t-4 5.5q0 1 -2.5 4.5t-4.5 7t-4.5 7t-3.5 5.5q0 1 -0.5 2l-0.5 1v1z" />
</svg>
