<?xml version="1.0" standalone="no"?>
<!DOCTYPE svg PUBLIC "-//W3C//DTD SVG 1.1//EN" "http://www.w3.org/Graphics/SVG/1.1/DTD/svg11.dtd" >
<svg xmlns="http://www.w3.org/2000/svg" xmlns:xlink="http://www.w3.org/1999/xlink" version="1.1" viewBox="-10 0 266 256">
   <path fill="currentColor"
d="M156 188q0 5 -3 10.5t-6.5 10.5t-6 10t-2.5 8v22l0.5 0.5t0.5 1.5h1q2 0 3 -3.5t1.5 -7.5l1 -8t1.5 -6q0 -2 3.5 -7.5t7 -12t6 -12.5t1.5 -8l-9 -21l-2.5 -2.5t-4 -2.5l-5 -2t-3.5 -1q-8 0 -13 4.5t-7.5 11t-3.5 13.5t0 14q0 1 0.5 3.5t0.5 5.5t0.5 5.5t1.5 3.5l1 1t2 0
q2 0 2.5 -1.5t0.5 -2.5q0 -5 -1 -9.5t-1 -8.5t3 -4t4.5 1.5t2.5 4t2 4t2 1.5q2 0 2.5 -1t0.5 -3q0 -4 -2.5 -6t-5.5 -4.5t-5.5 -4.5t-2.5 -5q0 -5 5 -5q1 0 3 3t4.5 6t4.5 5.5t3 2.5q2 0 2 -1.5v-3.5q0 -4 -2 -6.5t-4 -4.5t-4.5 -4t-3.5 -5q2 -2 3 -2h3q4 0 7.5 2.5t5.5 5.5
t3 7t1 8zM170 185v4q0 1 0.5 4.5t1.5 7.5t1.5 8t0.5 6q1 5 3.5 9t7.5 4q0 -5 -1 -10l-2 -10l-2 -10t-1 -11v-2v-4t1 -3.5t3 -1.5t3.5 3.5t2.5 8.5t2 11.5t2.5 11.5t3.5 8.5t6 3.5q2 0 4 -0.5t1 -4.5q-3 -4 -5.5 -8.5t-4.5 -9.5t-3 -10.5t-1 -10.5q0 -4 2.5 -7t2.5 -7
q0 -2 -1.5 -2.5t-3.5 -0.5q-5 0 -9 2t-7.5 5.5t-5.5 7.5t-2 8zM47 206q0 3 1 3.5t3 0.5h3q1 0 5 -0.5t9 -1t9 -1t5 -0.5h6h8t7 -1t3 -3q0 -3 -3 -3h-21v-86l3 -3q2 0 5 0.5t6 0t4.5 -2t1.5 -4.5h-20q0 -8 1 -12t3 -6t4 -2t4 -0.5t3.5 -1t1.5 -3.5q0 -2 -1 -2.5t-3 -0.5
q-14 0 -19 6t-4 20l-1 2h-3.5t-5.5 0.5t-5.5 0.5h-3.5q-3 1 -4.5 2t-1.5 4h24q2 0 2.5 2t0.5 3v2v1.5t-0.5 3.5t-1 3.5l-0.5 1.5q0 3 0.5 11t0.5 17q0 8 -0.5 16t-0.5 11v3.5v4.5t-0.5 4l-0.5 2l-2 2l-21 3q-1 0 -1 1v2zM54 189q0 2 0.5 3.5t3.5 2.5l1 -0.5t2 -1.5t1.5 -2
l0.5 -1v-54q0 -2 -0.5 -4.5t-2.5 -2.5q-3 0 -4 2t-1.5 5t-0.5 5.5v4.5q0 6 1 12t1 13q0 4 -1 8.5t-1 9.5zM92 148v41l0.5 0.5t1.5 0.5h1q2 0 3.5 -1t1.5 -3v-55q0 -1 -1.5 -1.5t-2.5 -0.5t-2.5 0.5t-2.5 1.5v5v5.5t1 6.5zM168 127v7t0.5 7t2 6.5t3.5 5.5q1 -1 2 -2.5t1 -2.5
v-23q0 -2 2 -4t4 -2t3 4.5t2.5 10t4 10t5.5 4.5q2 0 3.5 -1.5t1.5 -3.5q0 -3 -1.5 -5.5l-3 -5l-3 -5t-1.5 -6.5q0 -3 1.5 -5t3.5 -3.5t4 -3.5t2 -6t-2.5 -7.5t-5.5 -4.5h-11q-3 0 -8 -0.5t-8 1.5q0 1 -0.5 1.5l-0.5 0.5q0 3 4 3h20q1 0 1 1.5v2.5q0 5 -3.5 7.5t-8 4t-8.5 3
t-6 4.5v7zM117 140q1 2 4 5t6 3q2 0 7 0.5t10.5 -0.5t9.5 -3.5t4 -6.5q0 -7 -3.5 -10t-10.5 -3h-2.5t-3.5 0.5t-3.5 0.5t-2.5 1q-1 0 -1.5 1l-0.5 1q0 1 0.5 2t1.5 1h13q1 0 2 1.5t1 2.5h0.5t0.5 1h-1q0 1 -1 2t-2 1h-18l-3 -3v-2.5v-3.5q0 -8 2.5 -11t6 -4.5t7.5 -1
t7.5 -0.5t6 -3.5t2.5 -9.5q0 -6 -3.5 -9t-9.5 -3h-7q-1 0 -3.5 0.5l-5 1t-4.5 1l-2 0.5l-1 2q2 2 6.5 2t9 -0.5t8 0.5t3.5 6q0 3 -2.5 4t-6 2t-7.5 1.5t-7.5 2.5t-6 5t-2.5 8v3t0.5 4.5t0.5 5t1 2.5zM115 78l1.5 1.5t1.5 0.5q3 0 4 -3t1 -7.5v-9.5t0.5 -10t1.5 -9t4 -6
q4 2 5.5 6.5t1.5 9.5q0 2 -1 4t-2.5 4l-3 4t-2.5 4q0 1 1.5 1.5l1.5 0.5h1v0h1q1 -1 2 -3t2 -3.5t2.5 -3t3.5 -1.5t3 2t2.5 4.5t3 4.5t4.5 2t3 -4q0 -3 -1.5 -5t-3.5 -4t-3.5 -4t-1.5 -4q0 -3 1.5 -5.5l3 -5l3 -5t1.5 -4.5h2q2 0 3 1.5t1 3v3.5t1 3q0 1 2 2.5t2 2.5
q1 0 2 2.5t1 3.5q-4 3 -6 6t-2 8q2 0 3.5 -0.5t2.5 -1t2.5 -1t3.5 -0.5t3 1t2.5 2t2.5 2t3 1q1 0 1.5 -1t0.5 -2q0 -3 -1 -4.5t-2.5 -3.5t-3 -3.5t-1.5 -4.5v-0.5v-0.5l8 -10l1 1t2 1q2 2 2.5 8t1 13t1 12.5t2.5 5.5t4 -2t2 -3q1 -1 1 -3v-4q0 -6 -0.5 -13t-2 -13.5t-5 -12
t-9.5 -7.5h-13h-10t-10.5 0.5t-11 0.5t-8.5 1q-9 1 -13 5t-5.5 10t-1.5 13v15v2v3v4v2zM45 64q0 2 0.5 3t2.5 2q4 1 6 -1t3.5 -4.5t2.5 -5t3 -3.5q2 0 5.5 1.5t5.5 1.5q5 0 10.5 -1.5t10.5 -1.5q3 0 4 1t2.5 2t2.5 2t4 1q2 0 2.5 -1t0.5 -3t-2 -5t-4.5 -6t-4.5 -5l-3 -3
q-4 -5 -5 -9.5t-4 -9.5q-2 -3 -3.5 -4t-3.5 -1l-1 0.5l-1 0.5q-1 1 -3 3.5t-4 5.5t-4 5.5t-3 3.5q-2 2 -5 6.5t-6.5 9.5t-6 9t-2.5 6zM67 49l2.5 -5t3.5 -6t4.5 -5.5t4.5 -2.5q1 0 3 2.5t4 5.5t3.5 5.5t1.5 3.5v1v1q-6 1 -11 1.5t-10 0.5q-2 0 -3.5 -0.5t-2.5 -1.5zM168 34
q0 -2 2 -3t4 -1.5t4.5 -1t3.5 -0.5v4.5t-1 5t-2.5 4t-3.5 1.5t-4 -3t-3 -5v-1zM135 33l1 -1h11l0.5 0.5l0.5 0.5l0.5 0.5l0.5 0.5l-0.5 0.5l-0.5 0.5q-1 2 -2 4.5t-4 2.5l-0.5 -0.5l-0.5 -0.5z" />
</svg>
