<?xml version="1.0" standalone="no"?>
<!DOCTYPE svg PUBLIC "-//W3C//DTD SVG 1.1//EN" "http://www.w3.org/Graphics/SVG/1.1/DTD/svg11.dtd" >
<svg xmlns="http://www.w3.org/2000/svg" xmlns:xlink="http://www.w3.org/1999/xlink" version="1.1" viewBox="-10 0 266 256">
   <path fill="currentColor"
d="M44 243q0 2 0.5 4.5t3.5 2.5q2 0 3.5 -1.5t2 -4l1 -5t1.5 -3.5v-28q0 -1 2 -1.5t5.5 0t7 -0.5t6.5 -4t5 -9.5t1 -18.5q1 -1 2.5 -2t3 -1.5t2.5 -1.5t1 -2q0 -3 -2.5 -3.5t-4.5 -0.5q-6 0 -11.5 1t-11.5 1h-6q-2 0 -2 -2v-3q0 -6 2.5 -9t6 -4t7.5 -2t8 -2.5t6.5 -5
t2.5 -9.5q0 -1 -1 -1l-0.5 -2.5l-0.5 -2.5q0 -3 2 -4.5t3.5 -2t3 -1.5t1.5 -3v-2.5t-2 -1.5h-10q-5 0 -9.5 1t-9.5 1q-4 0 -6 -2.5t-2 -7.5t3 -7t7.5 -2.5t9 -0.5h7.5q7 -3 9 -10t0 -13q1 -2 3 -3t3.5 -2.5t2.5 -3t1 -3.5q0 -3 -1.5 -4t-3.5 -1q-3 0 -7 0.5t-8.5 1t-8 1.5
t-5.5 1h-1h-0.5h-0.5q-1 -1 -3 -1t-3 -0.5t-2 -2t-1 -3.5q0 -7 5.5 -11t12.5 -6t14 -3t11 -2q1 -1 1.5 -2t0.5 -2v-1v-1q-1 -2 -3.5 -2.5t-4.5 -0.5q-3 0 -6 1.5t-7 1.5q-5 2 -10 3t-10 3t-8.5 6t-5.5 10q1 51 -1 101.5t-2 101.5zM138 151q0 11 0.5 20t2.5 17t5.5 16t8.5 17
l4 4t4.5 4t4.5 3.5t4 3.5q2 1 4.5 3l5 4t4.5 3.5l2 1.5h10q1 0 1.5 -2t0.5 -3t-3.5 -4t-9 -6.5t-12 -8t-11.5 -10t-8.5 -11.5t-3.5 -13v-2v-1q0 -1 1 -3t2.5 -4l3 -4l1.5 -2q2 -2 3.5 -7.5t3 -12.5t3.5 -14t3.5 -13.5t3 -10.5t2.5 -4q2 0 3 1.5l2 3t1.5 3t0.5 2.5
q0 2 0.5 7.5t0.5 12t0.5 12t0.5 7.5q0 5 1.5 10.5t4 10.5t4.5 9.5t4 7.5q1 3 2.5 5.5t4.5 2.5q5 0 5 -5q0 -1 -2 -5.5t-4 -10t-4.5 -9.5t-3.5 -5t-1.5 -3.5l-1 -5t-1 -4.5t-0.5 -3v-8t-0.5 -12t-0.5 -11.5v-8.5l-1 -1.5t-2 -3.5l-2 -4t-2 -2h-16q-1 0 -2 2l-2 4t-2 3.5
l-1 1.5q0 13 -1.5 23.5t-6.5 21.5q-1 2 -2.5 6t-2.5 6.5t-2 2.5h-3q0 -1 -0.5 -4t-0.5 -6t-0.5 -6t-0.5 -4v-1v-1q0 -10 1.5 -19.5t1.5 -19.5v-10l-4.5 -4.5t-6.5 -2.5q-6 0 -11.5 5.5t-9.5 14t-6.5 19t-4.5 20t-2.5 18.5t-0.5 14v10q0 2 1.5 2h2.5q2 0 3.5 -0.5t0.5 -3.5
q1 -1 1 -4t0.5 -7t0.5 -7.5v-4.5q0 -3 1 -8.5t2 -13t3 -15.5t4.5 -14t6 -10.5t7.5 -4.5t5 2t1 5q0 4 -1 7t-3 7v22zM56 194v-7q0 -3 -0.5 -6t1.5 -5q4 -1 7 -1.5t6 -0.5h2.5t1.5 2v14q0 3 -1 4t-2.5 1.5t-3.5 0.5h-2h-5q-2 0 -4 -2zM56 133q0 -3 0.5 -6.5t0.5 -6.5
q4 -2 8 -3t8 -1q2 0 2.5 2t0.5 4q0 8 -3 12t-11 4q-2 0 -4 -0.5t-2 -4.5zM100 87q0 4 4 4h1q4 -3 6.5 -5t4 -4.5t3.5 -5t5 -5.5t6.5 -5.5t6.5 -5.5t6 -5t5 -4h2q3 0 7.5 2.5t10 7t11.5 9.5t11 9.5t8 7t4 2.5q2 -1 2.5 -2.5t0.5 -3.5q0 -3 -0.5 -6t-2.5 -4l-45 -30v-30
q0 -1 -1.5 -1.5l-1.5 -0.5q-3 0 -5 3.5t-2 5.5q-1 1 -1 3.5t-0.5 5.5t-0.5 5.5v3.5l-45 48v0.5v0.5zM57 74q0 -4 1 -7t4 -5q1 0 3 -0.5t4 -0.5t4 -0.5t3 -0.5h1.5h0.5q2 0 3.5 1.5t1.5 3.5t-0.5 4.5t-1.5 5.5t-2.5 5t-4.5 2h-15q-1 0 -1.5 -1.5t-0.5 -3v-2.5v-1z" />
</svg>
