<?xml version="1.0" standalone="no"?>
<!DOCTYPE svg PUBLIC "-//W3C//DTD SVG 1.1//EN" "http://www.w3.org/Graphics/SVG/1.1/DTD/svg11.dtd" >
<svg xmlns="http://www.w3.org/2000/svg" xmlns:xlink="http://www.w3.org/1999/xlink" version="1.1" viewBox="-10 0 266 256">
   <path fill="currentColor"
d="M174 196q0 6 1.5 15.5t4.5 17.5t8.5 13.5t14.5 5.5q0 -4 -1 -6.5t-2.5 -5t-3.5 -5t-5 -5.5q-4 -7 -6 -14.5t-2 -15.5q0 -3 1.5 -7t3 -7.5t2.5 -7t1 -7.5q0 -5 -3.5 -6t-6.5 -1q-7 0 -13 1t-12 1h-6t-5.5 -1t-4.5 -2.5t-2 -5.5q0 -3 5.5 -3.5t13.5 -1t16 -3t13 -7.5v-3.5
v-3.5q0 -4 -0.5 -6.5t-1.5 -4.5t-3.5 -3.5t-5.5 -5.5h-10h-6t-8.5 -0.5t-8.5 -0.5h-6q0 -1 -2 -3t-3 -2v0h-1q-1 0 -2 1t-2.5 2l-3 2t-2.5 1q-6 1 -13 2t-14 3t-12 6.5t-5 12.5t4.5 11.5t11 4.5t14 0.5t13.5 0t9.5 3t2.5 7.5q0 1 -1 2t-2 1q-2 1 -8 1.5t-12.5 1.5t-12.5 1.5
t-9 0.5h-3h-3l-0.5 -2.5t-1.5 -5.5t-2.5 -5.5t-3.5 -2.5q-3 0 -3.5 1t-0.5 2q0 3 1 5.5t1 5.5v3t-2 2l-16 4q-2 1 -2 2v2q0 2 0.5 3t2.5 1h1.5h0.5q1 0 2.5 -0.5t4 -1t4 -1t2.5 -0.5t2 1l2 2v1v1q-2 9 -5 19t-5 18q-3 3 -7 7.5t-5 5.5v1q0 3 2.5 3h3.5q6 0 9.5 -4t6 -10.5
t4 -14t2.5 -14.5t2.5 -12.5t4.5 -6.5q3 -3 8 -3.5t10 -0.5q6 0 11 0.5t8 0.5l0.5 2l0.5 2q-3 6 -6.5 10l-7 8t-6 9t-2.5 12q0 4 3 6.5t7 4t8.5 1.5h7.5q8 0 13 -4.5t8.5 -11.5t6.5 -14t8 -12v-5q-6 0 -9 3t-5.5 7t-4 8.5t-4 9t-5.5 7t-9 2.5h-4.5t-5 -1t-4 -2.5t-1.5 -4.5
q0 -5 3 -8t6 -7q0 -1 2 -4t4.5 -7t5 -7t3.5 -5q2 -3 5.5 -4.5t7.5 -2t8 0t8 0.5h12q0 1 0.5 2.5t0.5 4t0.5 4t0.5 2.5l-0.5 2t-1 4.5t-1 4t-0.5 2.5q-1 0 -1 1zM86 133q0 -5 5.5 -8t12 -4.5t12.5 -2t9 -0.5q2 0 3 2.5t1.5 5.5t0.5 6v5v3v3l-2 1h-4h-6q-3 0 -8.5 0.5
t-10.5 -0.5t-9 -3t-4 -8zM141 141q0 -1 -0.5 -3t-1 -4.5t-1 -4.5t-0.5 -3v-1q0 -6 3.5 -6.5t7.5 -0.5h6.5h8.5t7.5 1.5t3.5 5.5v13q0 1 -3 2t-6.5 1.5l-7 1t-4.5 0.5q-4 0 -6.5 -0.5t-6.5 -1.5zM52 103q1 2 2.5 2h2.5h3t2 -2v-38q0 -6 4 -9t9 -4t10.5 -2t9.5 -3h28v4v6v5v3
v6t0.5 8.5t0.5 8.5t1 6l1 1.5t2 1.5l2 -1.5t3 -1.5q0 -1 0.5 -1.5t1.5 -0.5v-7q0 -6 -1 -12.5t-1 -12.5v-5.5v-5.5q0 -1 1 -2t2.5 -1.5l3 -1l1.5 -0.5l40 -1q7 4 10 6t4 4t1.5 6t2.5 11v34q3 0 5 -2l4 -4v-2v-4.5v-4.5v-2v-9q0 -3 -0.5 -6t-0.5 -6t-1 -8q0 -2 -1 -4.5
t-2.5 -5.5t-3 -5.5t-3.5 -2.5h-60l-0.5 -1l-0.5 -1q-2 -2 -2 -2.5v-2.5q0 -4 4 -6.5t8 -2.5h51q4 0 4.5 -1.5t0.5 -4.5q0 -2 -0.5 -3t-3.5 -1q-13 0 -26 1.5t-26 1.5q-3 2 -6.5 1.5t-5.5 -0.5q-1 0 -7.5 0.5t-13.5 1t-13 0.5h-8h-5.5h-9.5h-9.5h-6.5q-1 1 -3 2t-2 2q0 2 1 3
t3 1.5t3.5 1t2.5 0.5q3 -1 9.5 -1t13.5 -0.5l14 -1t9 -0.5q1 0 1.5 -0.5t1.5 -0.5q5 0 7 2.5t2 7.5q0 4 -5 5.5t-12 2t-16 0.5t-16.5 1.5t-13.5 5.5t-7 12v2v2q0 1 -0.5 2t-1 2.5l-1 3l-0.5 1.5v6v11.5t2 11.5zM71 88q0 3 2 3.5t5 0.5q9 0 17.5 -1t17.5 -1l0.5 -0.5
l1.5 -1.5v0v-1l-2 -2t-2 -1t-4.5 -0.5t-4.5 -0.5h-7.5t-10.5 0.5t-9 1.5t-4 3zM146 90q8 1 13.5 1.5t12.5 0.5h13q2 -1 3.5 -2t1.5 -3t-2 -3t-4 -1q-1 0 -7 0.5t-13 1t-12.5 1.5t-5.5 3v1zM73 65q0 2 2.5 3t5 1.5t4.5 0.5h3h6.5t9.5 -0.5t8 -2t3 -3.5q-1 -3 -3 -3h-4h-5
q-2 0 -6 0.5t-9 1t-9 1t-6 0.5v0.5v0.5zM146 65q1 2 3.5 3t5.5 1h5.5h4.5h5.5t4.5 -0.5t5 -1t6 -2.5q2 0 2 -1.5v-2.5q-3 0 -9 -0.5t-13 0t-12.5 1.5t-7.5 3z" />
</svg>
