<?xml version="1.0" standalone="no"?>
<!DOCTYPE svg PUBLIC "-//W3C//DTD SVG 1.1//EN" "http://www.w3.org/Graphics/SVG/1.1/DTD/svg11.dtd" >
<svg xmlns="http://www.w3.org/2000/svg" xmlns:xlink="http://www.w3.org/1999/xlink" version="1.1" viewBox="-10 0 266 256">
   <path fill="currentColor"
d="M137 170v5.5t0.5 8t0.5 8v5.5q0 4 1.5 12.5t4 18.5t6.5 17t9 7q0 -6 -2 -11.5t-4 -11.5l-4 -12t-2 -12v-1v-2t0.5 -1.5t1.5 -0.5h15q3 0 6.5 6t7.5 13.5t7.5 13.5t8.5 6q2 0 2.5 -1t0.5 -3v-1v-1q-1 -1 -2 -3t-2.5 -4l-3 -4t-1.5 -3q-2 -2 -3 -6t-2 -7.5t-3.5 -7
t-5.5 -4.5t-8 -1.5l-10 -1t-8.5 -2.5t-3.5 -6v-2.5t2 -1.5q6 -1 11.5 -2t10 -3t7.5 -6t4 -11v-6t0.5 -8t0.5 -7.5v-4.5v-3t-0.5 -5t-2 -5t-3.5 -2q-4 0 -4 5v31q0 4 -2 7.5t-5.5 7t-7 5t-7.5 1.5h-2.5t-1.5 -2t2 -4t4 -3.5t3.5 -3.5t1.5 -5v-30q0 -4 -2.5 -6t-6.5 -3t-8 -1
h-6q-12 0 -17 5.5t-5 16.5q0 4 -0.5 8.5t0.5 9t3 9t6 6.5l-1 3h-2h-2q-7 0 -11 -5.5t-6.5 -13t-3.5 -15.5t-1 -12t-3 -4q-2 0 -2.5 2t-0.5 4v4.5v2.5q0 6 0.5 12.5t2.5 13t6 11t10 6.5q2 1 4.5 0.5t4.5 0t3.5 1.5t1.5 4v2q0 2 -1 2l-25 3q-4 1 -6.5 4t-3.5 7t-1.5 8t-1.5 7
q0 2 -2 5.5t-4.5 7t-4 6t-1.5 4.5v1l0.5 1.5t1.5 1.5v0q3 0 6 -3.5t4 -4.5q3 -3 5 -7.5t3 -8.5t2 -8.5t3.5 -7.5t6 -5t9.5 -2h3h2q2 1 2 3v3q0 6 -3 12t-6.5 11t-6.5 9t-3 6l0.5 0.5l0.5 0.5h1q1 0 4 -1.5t4 -2.5q6 -6 9 -11t4 -10t2 -11t4 -13v-24q0 -2 3 -2h3h2t3 2z
M119 156q0 -1 1 -2t2 -1.5t2.5 -0.5h1.5h3t5 -0.5t6 -0.5h4l1 -1l0.5 0.5l0.5 0.5l0.5 1l0.5 1v1q0 3 -2 4.5t-4.5 2t-5.5 0.5h-4h-4h-4q0 -1 -1.5 -2.5t-2.5 -1.5v-1zM116 142q0 -3 2 -4t4 -1h24q2 0 2.5 1t0.5 2t-0.5 2.5t-2.5 1.5h-28q-2 0 -2 -1v-1zM58 128v2t3 1
q1 0 3 -3.5t3.5 -7.5l3 -8t1.5 -5q1 -1 1.5 -5t1 -8.5t1 -8t0.5 -5.5v-6v-12v-11v-7v-1.5t0.5 -3.5l1 -4t1.5 -3q1 -2 6 -2.5t11 -1t11.5 -1t8.5 -2.5v-2q0 -2 -2.5 -3t-4.5 -1h-13q-12 0 -17.5 1.5t-8 5.5t-3 11t-0.5 18l-0.5 2t-1.5 2v39q-1 2 -2 6.5t-2.5 9t-2 8.5
t-0.5 6zM120 127q0 -3 2 -4t4.5 -1.5t5 -0.5h3.5q3 0 7 1t4 5v1q-6 1 -10 1.5t-9 0.5h-5l-1.5 -1.5t-0.5 -1.5zM188 69q0 25 6 50h1h2t1 -1v-3.5v-3.5q0 -7 -0.5 -14t-0.5 -14q0 -11 0.5 -21.5t0.5 -21.5v-7.5t-1.5 -6.5t-4 -5t-6.5 -2h-34q-2 0 -5 1t-3 4q0 2 3.5 3
t8.5 0.5t11 -1t11 0.5t8 3t3 6q0 9 -0.5 17t-0.5 16zM105 94q0 4 3 7t7 4.5t8 1.5h8q3 0 7.5 -0.5t9 -2.5t7.5 -5t3 -8q0 -4 -2.5 -7t-6.5 -4.5t-8 -2.5t-7 -1v-9.5v-13.5v-13.5v-8.5v-3.5t-0.5 -5t-0.5 -5t-1 -3.5l-1 -0.5t-2 -0.5t-1.5 1.5t-1.5 3.5t-1 3.5v1.5v5v6
q0 8 0.5 15.5t0.5 15.5v11q-1 2 -4 2.5t-7 2t-7 4t-3 9.5zM114 92q0 -2 3.5 -4t4.5 -3h4h4h4t6 0.5t5 1.5t2 4t-2 4.5t-5 2.5t-6 1.5t-5 0.5t-4.5 -0.5t-4.5 -1t-4 -2t-2 -4.5zM146 65v2t1 1h23l1 -1l2 -2v0v-1l-0.5 -1t-1.5 -1h-4.5h-4.5h-8t-8 2v0.5v0.5zM87 62q0 1 0.5 2
t1.5 1h6q1 0 3.5 0.5t5 0t4.5 -1t2 -2.5v-1q0 -1 -1 -2t-2 -1h-5q-2 0 -4.5 -0.5t-4.5 0t-4 1.5t-2 3zM97 41h-4t-4 0.5t-3.5 2t-1.5 3.5h23q2 0 2.5 -0.5t0.5 -2.5v0v-1l-7.5 -1.5t-5.5 -0.5zM146 44q0 1 1.5 2t2.5 1h22q0 -2 -1.5 -3.5t-4 -2t-5 -0.5h-4.5q-3 0 -6 1t-5 2
z" />
</svg>
