<?xml version="1.0" standalone="no"?>
<!DOCTYPE svg PUBLIC "-//W3C//DTD SVG 1.1//EN" "http://www.w3.org/Graphics/SVG/1.1/DTD/svg11.dtd" >
<svg xmlns="http://www.w3.org/2000/svg" xmlns:xlink="http://www.w3.org/1999/xlink" version="1.1" viewBox="-10 0 266 256">
   <path fill="currentColor"
d="M139 246v0h1q0 1 1 2.5t2 1.5t3.5 -1t5 -2.5t4 -3.5t1.5 -3l15 -30h2q3 0 5 3t3.5 7.5t3 9.5t3 9.5t3.5 7.5t5 3t5.5 -2.5t2.5 -5.5v-2v-2l-1.5 -1.5t-2.5 -3t-2.5 -3t-1.5 -2.5q-5 -6 -8 -14t-7 -15v-49q0 -2 -1.5 -2h-1.5q-2 0 -3 0.5t-1 2.5v5t-0.5 6t-0.5 6v5v13
t-4 13q-7 13 -13.5 24t-16.5 22q-1 0 -1 1zM146 201q-1 1 -1.5 3t-0.5 4q5 0 7 -2t3 -4.5t2 -6t3 -6.5v-21q0 -2 -1.5 -2h-1.5h-2q-1 1 -2.5 3.5t-2.5 3.5zM194 166q0 1 0.5 7.5t1.5 14t2.5 13.5t3.5 6q6 0 6 -6q0 -5 -0.5 -9.5t-2.5 -10.5q0 -1 -1 -4.5t-2 -7.5t-2 -7
t-2 -3q-2 0 -3 2.5t-1 4.5zM42 161q0 1 1 3t1.5 4l1 4l0.5 2q1 4 3 5.5t4.5 2.5t5 1t5.5 1q4 1 9.5 4t9.5 3q7 0 15 -0.5t15.5 -3t12.5 -7.5t7 -14q0 -2 0.5 -6.5l1 -9t1 -8t0.5 -4.5v-8v-15v-16v-9l0.5 -3.5t0.5 -8t0.5 -8t0.5 -4.5v-1v-5.5t-0.5 -9.5t-1.5 -8.5t-4 -3.5
h-2q-2 0 -2 2q0 14 0.5 29t0.5 30.5t-1 30.5t-3 30q-1 3 -2 7.5t-3 6.5t-5 3t-6.5 1h-6.5h-5q-11 0 -20.5 -1t-19.5 -8q-2 -4 -3.5 -11t-2 -15t-0.5 -15.5v-11.5q0 -13 1 -26.5t2 -26.5q0 -11 1 -18t4 -11.5t9.5 -6.5t18.5 -2q2 0 9 -0.5t14.5 -0.5t14.5 -0.5t9 -0.5
q3 1 3.5 -0.5t0.5 -3.5q0 -1 -0.5 -3.5t-1.5 -2.5q-13 0 -25.5 1.5t-25.5 1.5q-6 1 -13.5 1.5t-13.5 3t-9.5 7t-4.5 13.5v9t-0.5 14.5t-1 14.5t-0.5 8v37v37zM66 153q1 4 4 6t6.5 3t8 1h7.5q11 0 16 -6t7 -15t1.5 -19t-0.5 -18v-21v-21q1 -3 -0.5 -3.5t-3.5 -0.5h-1h-1
q0 1 -0.5 3t-0.5 4.5t-0.5 4.5t-0.5 3t-0.5 2t-1.5 1v0.5v0.5q-3 0 -5 -3t-3.5 -6.5t-2 -7t-0.5 -5.5v-3v-3q3 -1 7 -1.5t7 -1.5t5.5 -3.5t2.5 -6.5q-13 0 -21.5 0.5t-13.5 2.5t-8 5.5t-4.5 9t-2 13.5t-1.5 19q-1 3 -0.5 6t-1.5 6v11v12v5.5t0.5 9.5t1 9.5t0.5 6.5zM73 141
v-2q0 -2 1 -2l1 -2h30l0.5 1.5l0.5 1.5v1v1l-0.5 2t-1 3.5t-1 3.5l-0.5 2q-6 1 -11 1.5t-11 0.5t-7 -3.5t-1 -8.5zM146 130v0.5v0.5v5t0.5 6.5t0.5 6.5v4h1v0q4 0 4.5 -2t1 -5t2 -5.5t5.5 -2.5h47q2 0 3.5 -2t1.5 -4v-1l-0.5 -0.5t-1.5 -0.5h-22v-13q0 -2 2.5 -2.5t6 -1.5
t6.5 -2t3 -4v-2t-2 -1h-15q-2 0 -2 -3v-3q0 -4 3 -5.5t6.5 -1.5t6.5 -0.5t3 -2.5q0 -3 -2.5 -4t-5.5 -1.5t-6.5 0t-4.5 0.5q0 -2 -0.5 -4t0 -3.5t1.5 -2.5t4 -1q4 0 9 3t8 4q1 0 1.5 -1t0.5 -2q0 -4 -2.5 -6.5t-5.5 -4t-6 -3.5t-4 -4q1 -3 4.5 -4.5t7 -3.5t6 -4t2.5 -5
t-1.5 -4.5t-3.5 -2.5t-3.5 -2t-3.5 -2q-1 -1 -3 -2.5t-4.5 -3.5t-4.5 -3.5t-3 -2.5h-8l-2.5 2t-6 5l-7 6t-6 5t-4 3t-1.5 4t3 5t6.5 3.5t7.5 3t5 3.5q-5 3 -8.5 7t-6 8.5l-5 9t-5.5 9.5q0 4 -0.5 8.5t-1 10t-1 10.5t-0.5 9zM154 127q0 -1 0.5 -5t1.5 -5q3 -2 7 -2.5t7 -0.5
h2q1 0 3.5 2.5l3.5 3.5v1v1q-1 1 -1.5 3.5l-0.5 2.5q0 1 -0.5 1.5t-1.5 0.5h-19q-1 0 -1.5 -1t-0.5 -2zM73 117q0 -3 1 -6t5 -4h4.5t7.5 -0.5t7.5 -1t4.5 -0.5h1h1l2 2t1 2v14l-3 2h-4h-6q-3 0 -7 0.5t-7 0t-5.5 -2.5t-2.5 -6zM157 103q0 -7 3.5 -9t9.5 -2h2.5h2.5l2 2
l1.5 1.5t2 1l1.5 0.5q1 3 -1 5t-5 3.5t-6 1.5h-5h-3h-3l-0.5 -1.5t-1.5 -1.5v-1zM73 92q0 -3 2 -6t5 -5t5.5 -4t4.5 -4l0.5 -0.5l0.5 -0.5q1 0 4 3t6 7t5 7.5t2 5.5v2t-2 2h-29q-1 0 -2.5 -2.5t-1.5 -4.5zM175 64q3 0 4 2t1 4v3t-0.5 4.5t-1 4.5t-1.5 2h-17q0 -1 1.5 -4.5
t4 -7t5.5 -6t4 -2.5zM85 48q3 0 3.5 2t0.5 4t-0.5 5t-1.5 5q-1 1 -2.5 3t-3 3.5t-3 2.5l-1.5 1h-2q0 -2 -0.5 -6.5t0.5 -9t3.5 -7.5t6.5 -3zM164 41q0 -3 2 -4l4 -2q1 -1 2.5 -1.5t3 -2t3 -2.5l1.5 -1q3 -1 6 0.5t6 3.5t5 4.5t2 4.5t-1.5 3.5t-3.5 1.5q-4 0 -6 -2t-1 -6h-2
q-2 0 -2.5 2l-1 4t-1.5 4t-4 2q-1 0 -3.5 -1t-4 -2t-3 -2.5t-1.5 -3.5z" />
</svg>
