<?xml version="1.0" standalone="no"?>
<!DOCTYPE svg PUBLIC "-//W3C//DTD SVG 1.1//EN" "http://www.w3.org/Graphics/SVG/1.1/DTD/svg11.dtd" >
<svg xmlns="http://www.w3.org/2000/svg" xmlns:xlink="http://www.w3.org/1999/xlink" version="1.1" viewBox="-10 0 266 256">
   <path fill="currentColor"
d="M95 246q0 2 0.5 3.5t2.5 1.5q3 0 4.5 -2t2 -5t0.5 -6v-5q0 -12 -1 -24t-1 -25q0 -3 3 -4.5t6 -2.5q1 0 3.5 -0.5t5.5 -1l6 -1t4 -0.5v-2v-1q0 -3 -1.5 -3.5t-4.5 -0.5q-4 0 -8.5 1t-8.5 1h-1q-1 -1 -2 -1.5t-2 -0.5v-2.5v-1.5q0 -5 3.5 -7t8 -3.5t7.5 -4t3 -8.5v-43
q0 -3 -0.5 -3.5t-2.5 -0.5l-2 0.5t-2 1.5v17q0 1 -1.5 1.5t-3 0.5h-3.5h-1q-1 0 -4 -0.5t-3 -3.5v-20q0 -3 4 -4.5t8 -4t7 -8t1 -16.5q1 -3 4 -3.5t6.5 -1t6 -1.5t2.5 -5q0 -2 -0.5 -3.5t-3.5 -2.5l-3 1l-3 1h-2h-1q-2 0 -3.5 -0.5t-1.5 -3.5v-24q0 -1 -2 -1h-3q-3 0 -4.5 2
t-1.5 5v3v2t0.5 4t1 3.5t0.5 2.5v1v0q-1 2 -1.5 4.5l-0.5 2.5h-22q-2 0 -3 -3.5t-1 -4.5q0 -4 2 -7.5t2 -7.5v0q-1 -2 -2.5 -4.5t-3.5 -2.5h-1l-3 3l-2 2v27l-2 2h-4t-6 0.5t-6 0.5h-4q-1 1 -3 2t-2 3v1l0.5 1.5t1.5 1.5q7 0 13 -0.5t12 2.5q1 0 1.5 1l0.5 1v17l1 0.5t2 2
t2.5 2.5t2.5 2l4 1q0 1 0.5 1.5l0.5 0.5v26q0 1 -0.5 1t-1.5 0.5t-2 0.5h-1q-8 0 -9.5 -4.5t-2.5 -11.5h-3l-1 3t-1 5v18v19q1 6 5 7.5t8.5 2.5t7.5 2.5t3 7.5v5q0 1 -0.5 2t-1.5 1h-36v4t1 4l0.5 0.5l0.5 0.5h3.5h2.5q6 0 12 -1.5t12 -1.5q3 0 4.5 3t2.5 7.5t1 8.5v5v18v18
q-1 2 -1.5 3.5t-0.5 3.5zM142 108v2q0 1 0.5 2.5t1 3.5t0.5 4v2v5v9v11v11v9v5q0 4 0.5 9.5t2.5 9.5t5.5 7t9.5 3q4 0 11 -0.5t13 -2.5t10.5 -6t5.5 -10v-5.5t0.5 -10.5t0.5 -12v-9v-5v-4v-7.5t-0.5 -11.5t-0.5 -11.5v-7.5q-1 0 -2 -1.5t-2 -1.5h-1v0q-1 0 -2.5 1.5
l-1.5 1.5v31q0 4 -2 5.5t-6 1.5q-1 0 -3 -0.5t-2 -1.5l-2 -1v-55q0 -1 0.5 -1.5t1.5 -0.5l1.5 -1l1.5 -1h19q1 0 2 -1t1.5 -3t0.5 -3.5v-2.5h-29v-48q0 -2 -2 -3t-4 -1q-1 0 -2 0.5t-1 1.5q0 2 -0.5 4.5t-0.5 6t-0.5 6.5t-0.5 4v1v0v3t0.5 4.5t1 4.5l0.5 2v79q0 3 -2 6t-6 3
q-1 0 -2.5 -0.5l-3 -1t-2.5 -1.5t-1 -2v-28q0 -3 -1 -4t-4 -1t-3.5 2.5t-0.5 5.5zM189 146h1q0 1 1.5 2t1.5 2v7v5.5v5.5t-0.5 5.5l-1.5 7.5q-1 2 -3.5 3.5t-6 2t-6.5 0.5h-6h-4.5h-5.5l-1.5 -0.5t-2.5 -1.5t-2 -1.5t-1 -1.5v-29q0 -1 2.5 -2l2.5 -1q8 -2 16.5 -3t15.5 -1z
M79 135q0 -1 0.5 -3t0.5 -3q1 -2 3.5 -2.5t4.5 -0.5q5 0 6 3t1 8q0 4 -1.5 6.5t-5.5 2.5q-5 0 -7 -3t-2 -8zM102 133v-4v-3q1 -3 4.5 -3.5t6.5 -0.5t3.5 2t0.5 5q0 2 -0.5 5t-1.5 5t-3 4t-4 2q-3 0 -4 -1.5t-1.5 -3t-0.5 -3.5v-4zM90 67q0 -5 0.5 -7.5t2 -4t4.5 -1.5h7h4h4
l0.5 0.5l1.5 1.5v0q0 4 -0.5 8.5t-3.5 8.5l-1.5 1.5l-1.5 1.5h-14l-3 -3v-6z" />
</svg>
