<?xml version="1.0" standalone="no"?>
<!DOCTYPE svg PUBLIC "-//W3C//DTD SVG 1.1//EN" "http://www.w3.org/Graphics/SVG/1.1/DTD/svg11.dtd" >
<svg xmlns="http://www.w3.org/2000/svg" xmlns:xlink="http://www.w3.org/1999/xlink" version="1.1" viewBox="-10 0 266 256">
   <path fill="currentColor"
d="M137 216q0 5 1 10t2.5 9t4.5 7t8 4h3t5 0.5t5 0.5h3h7.5t9.5 -0.5t8.5 -2.5t5.5 -7q0 -3 1 -7.5t2 -9.5t2 -9.5t1 -7.5v-6q0 -3 -0.5 -8t-1.5 -9.5t-3.5 -8t-6.5 -3.5h-40q-6 0 -9 6t-5 14t-2.5 16t-0.5 12zM46 237q0 3 2 4.5t5 1.5h5.5h3.5h7h11.5t13.5 -0.5t12.5 -1.5
t9.5 -2.5t4 -3.5v-3t-1 -2h-19l-5 -5v-1.5v-4t0.5 -5t1.5 -3.5q0 -5 2.5 -7t6 -3t6.5 -2.5t5 -4.5q1 -2 2 -5t1.5 -6t0.5 -6v-4t-0.5 -2t-0.5 -2v-1q0 -2 1 -4t1 -5q0 -2 -1 -5.5t-4 -3.5h-2t-1 1q-1 5 -0.5 12t0 13.5t-3 11.5t-9.5 5q-1 0 -1.5 -0.5l-1.5 -1.5v-5v-5v-10.5
v-8.5t0.5 -9.5t1.5 -12.5l1 -1.5t2 -1.5q7 -3 11.5 -5t7 -4.5t3 -8t0.5 -16.5v-14l-1.5 -1.5l-0.5 -0.5h-1q-3 0 -4 3t-1 7v9t-0.5 9t-3 7t-7.5 3h-2q-1 0 -1 -1q-2 -1 -2 -3v-4q0 -11 2 -21.5t1 -21.5q1 -2 3.5 -3t5 -1t6 -1t6 -5t4.5 -12t2 -22v-1q-1 -2 -2 -3.5t-4 -1.5
t-4 3t-1 7v9t-1 9t-3 7t-6 3q-3 0 -3.5 -2t-0.5 -5q0 -1 0.5 -5.5t1 -9.5t1 -9.5t0.5 -6.5q-1 -4 -2 -6t-4 -2q-1 0 -2 0.5l-1 0.5q-2 16 -2.5 33t-1 33.5l-1 33t-2.5 33.5q0 2 -0.5 8.5t-1 16l-1 19t-1 18t-1 14.5t-1.5 6h-1h-2q-2 0 -3.5 -0.5t-2.5 -3.5v-7q0 -18 1 -37
l2 -38l0.5 -2.5t0.5 -3.5v-50q1 -1 1.5 -3.5t0.5 -3.5v-5v-9v-9v-5q0 -8 1.5 -15t1.5 -14v-3t-0.5 -4.5t-2 -4t-2.5 -1.5q-3 0 -4 4t-1 9.5v12v12t-1 9.5t-4 4q-1 0 -2.5 -0.5t-3.5 -1.5t-3 -2.5t-1 -3.5v-30l-1 -1.5t-2 -2.5h-1q-2 0 -3.5 2.5t-2 5t-0.5 5.5v5v6t0.5 5.5
t1 5.5t0.5 7q2 2 5.5 3.5l7 3t6.5 2.5l3 1v10q0 4 0.5 10.5t0 13.5t-2.5 12t-6 5q-1 0 -4 -0.5t-3 -3.5v-34q-4 0 -6.5 1t-2.5 6q0 4 0.5 7.5l1 7l1 7t-0.5 8.5q1 4 4 6t6.5 3t6 2t2.5 2v32q0 1 -0.5 2t-1.5 2v3t-0.5 4.5t-0.5 5v3.5q-1 2 -2 3t-3 1q-1 0 -3 -1t-2 -3v-34
l-0.5 -1l-0.5 -1q-1 0 -2 -1l-1 -1q-3 0 -4 3t-1.5 6.5t0 6.5t0.5 4q0 5 0.5 11t2.5 11t5.5 8.5t10.5 1.5v8v4.5t-0.5 7t-1 6.5t-1.5 3h-17q-2 0 -3 2t-1 3zM145 217q0 -3 1 -4.5t3.5 -2t4.5 -0.5h4h3t3 1l1 1q0 1 0.5 3t0.5 4q0 3 -0.5 6t-1.5 5.5t-3 4t-5 1.5
q-4 0 -6 -1.5t-3 -4.5t-1.5 -6t-0.5 -7zM187 208q4 0 6 2t2 7q0 10 -3.5 14t-12.5 4l-1 -0.5t-2 -0.5q0 -1 -0.5 -1.5l-0.5 -0.5v-20l1.5 -1t4 -1.5t4.5 -1zM145 194q0 -8 4.5 -13t10.5 -5q3 0 4.5 2t2.5 4.5t1.5 6t0.5 5.5t-1.5 3.5t-3.5 2.5t-4 1.5t-3 0.5q-4 0 -8 -2
t-4 -6zM175 189v-1.5v-3.5t0.5 -3.5t0.5 -2.5l1 -1l1 -1h14q1 0 2 2t1 4v4v3q0 5 -1 8t-7 3q-5 0 -8.5 -2t-3.5 -9zM165 107q1 12 -0.5 23t-1.5 23q5 0 7 -2.5t2.5 -6.5t0.5 -9v-9q0 -3 0.5 -7.5t0.5 -9.5t0.5 -8l0.5 -3l1 -2l32 -4q2 0 2.5 -1t0.5 -3v-3t-2 -2h-22
q0 -5 2.5 -9t5.5 -8t5.5 -8.5t2.5 -9.5v-0.5v-0.5q-1 0 -2 -2t-1 -3h-0.5h-0.5q-4 0 -7 6t-5 13t-4.5 12.5t-5.5 5.5q0 -9 -0.5 -16t1.5 -16q1 -4 4 -7t7 -5t6.5 -5t2.5 -7q0 -2 -2.5 -3t-4.5 -1t-4.5 1.5t-6 3.5t-6 4.5t-2.5 4.5q-1 1 -1.5 3l-1 4t-1 4.5l-0.5 2.5v6.5
v10.5v9.5v6.5q-1 3 -2.5 3h-3.5q-1 0 -2.5 0.5t-2.5 -1.5q0 -2 -0.5 -6.5t-1.5 -9.5t-1.5 -9t-0.5 -6q-1 -4 -3.5 -8.5t-6.5 -4.5q0 6 1 11t2.5 10.5t2.5 11t1 11.5q0 3 -2 4t-4 1t-4 1t-2 3l1 1q0 1 1 2.5t2 1.5t3.5 -0.5t5.5 -0.5t5.5 -0.5t4.5 -0.5h1q3 0 4 1t1 4v4t-2 4
zM135 148q1 0 2 1.5t2 1.5h1q2 0 4.5 -5.5t5.5 -12.5t4.5 -14t1.5 -10q0 -1 -0.5 -2.5t-2.5 -1.5q-1 0 -3.5 5.5t-5 13t-5 14.5t-4.5 10zM194 148q0 1 1 1.5t2 0.5h2h1q0 -4 -1 -11.5t-3 -15.5t-5.5 -14t-7.5 -6v0q-1 0 -1.5 1l-0.5 1l0.5 1.5t0.5 3.5t0.5 3.5t0.5 2.5
t1.5 6t3.5 10t3.5 9.5t2.5 6.5z" />
</svg>
