<?xml version="1.0" standalone="no"?>
<!DOCTYPE svg PUBLIC "-//W3C//DTD SVG 1.1//EN" "http://www.w3.org/Graphics/SVG/1.1/DTD/svg11.dtd" >
<svg xmlns="http://www.w3.org/2000/svg" xmlns:xlink="http://www.w3.org/1999/xlink" version="1.1" viewBox="-10 0 266 256">
   <path fill="currentColor"
d="M155 192v4q0 2 0.5 4.5t1.5 4.5t3 2l36 4q4 0 6 5.5t3 12t1 13t1 9.5h2q3 0 5 -1t2 -4q0 -2 -1 -8.5t-3 -13.5t-4 -12.5t-5 -6.5t-10 -1.5t-13.5 -1.5t-11 -3.5t-4.5 -6.5q0 -6 3 -8.5t8.5 -3.5t11.5 -2t11.5 -2.5t8.5 -5.5t3 -11t-3.5 -9.5t-7.5 -3t-7.5 -1.5t-3.5 -5
q0 -3 1.5 -5t4.5 -3.5t5.5 -3t3.5 -4.5q3 -8 4.5 -16t1.5 -16v-16.5v-16.5v-3q0 -3 -0.5 -6t-2 -5t-4.5 -2q-1 0 -2 2t-1 5t0.5 6.5t0 6.5t-2 4.5t-4.5 0.5q-3 0 -6 -2t-5.5 -5t-4 -6.5t-1.5 -7.5v0v-3t0.5 -4t0.5 -4v-3q1 0 3.5 -0.5t3.5 -0.5q2 0 5 -0.5t6.5 -0.5
t6.5 -0.5t5 -0.5q1 -1 1.5 -2.5t0.5 -2.5q0 -3 -3.5 -4t-5.5 -1h-2q-1 0 -3.5 0.5l-5 1l-5 1t-3.5 0.5q-12 2 -19.5 3.5t-12.5 3.5t-7 5.5t-2.5 9.5t-0.5 14v20v9v10.5t0.5 10.5t1.5 10q1 3 3 5.5t4.5 5l4.5 4.5t2 6t-2.5 6.5t-7 4.5t-9.5 3.5t-9.5 2.5t-7.5 2t-3 2v1
l1.5 1.5l0.5 0.5h19q7 0 11.5 -4.5t8.5 -10t8 -10t9 -4.5q3 0 4.5 1.5t3 4t2 5t0.5 4.5q3 1 5.5 1.5t5 1.5t4 3t1.5 4q0 5 -2 7t-5.5 2t-7.5 -0.5t-8 0.5q-9 2 -15.5 8t-6.5 15zM54 236q1 0 2 0.5t2 0.5v0.5t1 0.5t2.5 -1.5t2 -3.5l1 -4t0.5 -3q0 -7 -2 -13t-2 -12
q0 -24 7 -47t16 -45q1 -3 2 -4t4 -1q4 0 7.5 3.5t3.5 7.5q0 7 -1.5 14t-3.5 13.5t-4 13.5t-2 14q0 9 2 18t5 17t8 15.5t11 13.5h2q3 0 3.5 -1.5t0.5 -3.5q0 -3 -1.5 -5.5l-3 -5t-3.5 -5t-4 -4.5q-3 -4 -5.5 -9t-4 -10.5t-2 -10.5t-0.5 -9q0 -8 1 -17.5t7 -15.5q0 -1 1 -4
t1.5 -6l1 -6t0.5 -4v-1q0 -5 -2 -8t-5 -5.5t-6.5 -5t-5.5 -5.5q0 -1 -0.5 -4t-0.5 -4q0 -10 3.5 -14t14.5 -4q1 0 3 0.5l2 0.5l2 1v3t0.5 7t0.5 7.5v6.5q1 1 0.5 4t0 6.5t2 6t4.5 2.5q2 0 3 -1.5t1 -4.5v-1q0 -2 -0.5 -4t-1.5 -4.5t-1.5 -5t-0.5 -3.5v-56q-5 0 -7 4.5
t-2.5 9.5t-0.5 9t-2 4h-15l-2 -1v-5.5t-0.5 -7.5t-1 -7.5t-0.5 -4.5q0 -2 -0.5 -5.5t-2 -6.5t-3.5 -5t-5 -2q-2 0 -2 2.5v3.5q0 8 2.5 16.5t2.5 16.5q0 1 -1 3.5t-3 2.5h-21q0 -6 -1 -13t-2 -13q-2 -2 -5 -2h-2.5t-1.5 2q1 11 0.5 21l-1 20t-2 20t-4.5 21v1q0 3 1.5 3.5
t3.5 0.5q4 0 6 -4t2.5 -9.5t0.5 -12t1.5 -12t5.5 -9.5t11 -4h8q3 2 2.5 6.5t-0.5 6.5q0 10 -3 20t-8 20t-9.5 19.5t-7.5 20.5q0 3 -0.5 8t-1 11t-0.5 11v9v18t2 18zM150 119v-2.5t1 -1.5q5 -1 9 -1.5t7.5 -1t7 -0.5h8.5h5h5q3 1 3.5 2.5t0.5 4.5t-2.5 5.5t-6.5 2.5h-31
q-3 0 -5 -3t-2 -5zM150 94q8 -2 15 -2h16h3h4.5h4.5h3q2 1 2 2v3t-1 4t-4 3q-5 0 -11 0.5t-12 0.5t-12 0.5t-11 0.5v-2.5v-3t0.5 -3t0.5 -2.5l0.5 -0.5t1.5 -0.5zM144 85q4 -8 11.5 -14t16.5 -6q3 0 6 1.5t6 4t5 5t2 5.5q0 1 -2.5 2t-7 1.5t-9.5 1.5t-10 1.5t-8 1t-4 0.5
q-3 0 -6 -4zM146 58q0 -5 1 -9.5t3 -8t6 -5.5t10 -2h1q0 1 0.5 2t0.5 2v21q-4 2 -8.5 4.5t-9.5 2.5q-3 0 -3.5 -1t-0.5 -6z" />
</svg>
