<?xml version="1.0" standalone="no"?>
<!DOCTYPE svg PUBLIC "-//W3C//DTD SVG 1.1//EN" "http://www.w3.org/Graphics/SVG/1.1/DTD/svg11.dtd" >
<svg xmlns="http://www.w3.org/2000/svg" xmlns:xlink="http://www.w3.org/1999/xlink" version="1.1" viewBox="-10 0 266 256">
   <path fill="currentColor"
d="M203 247q2 2 2.5 3t2.5 1t3.5 -2t1.5 -4q0 -4 -2.5 -11.5t-6 -15t-7.5 -14t-8 -8.5q-3 -2 -8.5 -3t-11.5 -1.5t-10 -2.5t-4 -7q0 -3 1 -5t3 -3t4.5 -2t4.5 -2l26 -5q1 0 2.5 -2t2 -5t1 -5t0.5 -3q0 -4 -2.5 -7t-5 -4.5t-5 -4t-2.5 -5.5t0.5 -4.5t1 -2t2 -1t3.5 -1.5
q4 -3 5.5 -7t2.5 -8t1.5 -8t1.5 -8v-44l-1 -0.5t-2 -1.5t-2 -1.5l-1 -0.5q-2 0 -3 2.5t-1.5 4.5t-1.5 4t-3 2h-0.5h-0.5l-13 -13v-10l2.5 -1t4.5 -1h3.5h5.5h6h4q2 0 4 -1.5t2 -3.5q0 -3 -2 -4.5t-4.5 -1.5h-5.5h-4q-10 0 -22 1t-21 4q-5 2 -7.5 9.5t-3.5 16t-0.5 17
t0.5 11.5v6l0.5 2t1 5t1 5l0.5 2q1 4 0.5 7.5t0 6t2.5 4.5t6 5q1 0 1 1v1q0 6 -4.5 11.5t-10 10t-10 8t-4.5 7.5q0 1 1 3t3 2q1 0 1 -1q4 -2 7.5 -4.5t6.5 -5.5t6 -6.5t7 -7.5q2 -2 2.5 -5.5t2 -6t3.5 -4.5t6 -2q5 0 6.5 1t2.5 3.5t1 5t3 5.5l2 2l2.5 2.5l3 3l2.5 2.5v1.5
v1.5q0 5 -3 7t-7.5 3t-10 2t-10.5 3t-8 6.5t-3 12.5t3.5 11.5t9 5.5t12 3t12.5 2q7 9 12 20.5t7 21.5zM48 87v57v3.5t0.5 5.5l1 6t1.5 4q3 12 10 15.5t19 3.5t19 -3.5t10.5 -8.5t5 -12t3 -14.5t3.5 -15.5t8 -14l1.5 -1.5l0.5 -0.5q0 -1 0.5 -2t1.5 -2v0q0 -2 -2 -3t-3 -1
q-8 4 -11.5 10.5t-5.5 14t-3 15t-3.5 13.5t-7.5 9.5t-14 3.5t-14 -1.5t-10 -8.5q-2 -7 -2.5 -12l-1 -10t-0.5 -9v-12q0 -10 1 -21t1 -21v-12q0 -1 -1 -1h-2h-2t-1 1q-1 5 -1 12t-2 12zM74 24q-2 0 -3 3t-2 7t-2 9.5t-1.5 10.5t-1 9t-0.5 7v69q0 7 3.5 11.5t10.5 4.5
q2 0 5 -0.5t5.5 -1.5t5 -2.5t2.5 -4.5v-25q0 -2 1 -3t3 -2l4 -2t3 -2q5 -4 7.5 -10.5t3.5 -13.5t1 -14t1 -12q0 -2 0.5 -5l1 -6t1 -5l0.5 -2l0.5 -1.5t1.5 -3.5t2 -3t1 -2v-1v-1q0 -5 -4 -5t-7 6.5t-4.5 14t-2.5 15t-1 10.5q0 1 -0.5 4t-1 7t-0.5 7v5q-1 2 -2.5 3t-4.5 1
h-1.5t-1.5 -1v-3v-4.5v-4.5v-3q0 -9 1.5 -18.5t3 -18.5l3 -18t1.5 -18q-2 0 -4.5 0.5t-4.5 3.5l-6 36t-3 36v5t0.5 8t0.5 7.5v4.5v2l-0.5 5t-1.5 11t-2.5 11t-3.5 5q-3 0 -4 -2t-1.5 -4.5t-1 -5.5t-1.5 -5v-17q0 -14 0.5 -29t3.5 -29q0 -6 1.5 -10.5t1.5 -9.5v-3v-3
q-1 -3 -2.5 -3.5t-3.5 -0.5zM148 103q0 -1 1 -2t3 -1h34q2 0 2.5 1.5t0.5 3.5t-1.5 4.5t-4.5 2.5h-29q-2 0 -4 -3.5t-2 -5.5zM174 81h15q3 2 3 5q0 2 -1.5 2.5t-3.5 1l-4 1l-2 0.5h-7h-10.5h-9.5h-7v-8l1.5 -0.5t3.5 -0.5t4 -0.5t4 -0.5h14zM145 70q0 -3 3 -6.5t7 -6.5t8 -5
t6 -2q1 0 4.5 2.5t7 5.5t6.5 6t3 4q0 2 -1.5 3t-3.5 1.5t-4 0.5h-3q-5 0 -9 -1t-8 -1q-3 0 -5 1t-5 1q-2 0 -3.5 -0.5t-2.5 -2.5zM147 43q0 -5 3.5 -7.5t7.5 -2.5q2 0 3 1t1 3q0 5 -3 7.5t-7 2.5q-3 0 -4 -0.5t-1 -3.5z" />
</svg>
