<?xml version="1.0" standalone="no"?>
<!DOCTYPE svg PUBLIC "-//W3C//DTD SVG 1.1//EN" "http://www.w3.org/Graphics/SVG/1.1/DTD/svg11.dtd" >
<svg xmlns="http://www.w3.org/2000/svg" xmlns:xlink="http://www.w3.org/1999/xlink" version="1.1" viewBox="-10 0 266 256">
   <path fill="currentColor"
d="M197 240v7l2 3q0 1 1.5 1h1.5q4 0 5.5 -2t1.5 -5t-0.5 -6.5t-0.5 -5.5q0 -8 0.5 -17.5t-3.5 -17.5q-1 -3 -4 -5t-6 -3.5t-5 -3t-2 -4.5q0 -5 3 -8t6.5 -6t6.5 -6t3 -9q0 -2 -1 -5t-2.5 -5t-2.5 -5t-1 -5q0 -3 2 -5t4 -4.5t3.5 -5t1.5 -6.5v-61q0 -1 -2 -1h-2q-3 0 -4 1
t-1.5 2.5t-0.5 3.5v5h-2q-2 0 -3.5 -1.5t-1.5 -2.5v-17l2 -2q3 1 6 1t5 -1t3.5 -2.5t1.5 -5.5h-4h-5h-5h-4q-2 1 -6.5 1.5t-8.5 1.5t-7 3.5t-3 6.5v54l-0.5 2.5t-0.5 3.5q0 4 1.5 10t4.5 10q1 1 3 3.5l2 2.5q1 4 -1.5 7.5t-6 7t-6 6.5t-2.5 7q0 1 0.5 2t1.5 1h1q1 0 2 -0.5
t1 -1.5q4 -3 7 -6t5 -6.5t3 -7.5t2 -9q1 0 2 -0.5t1 -1.5h1h1q0 1 1 1.5l1 0.5q0 1 0.5 3.5l1 5t0.5 5t1 3.5l1.5 2.5t1.5 3.5v1v2q-3 3 -6.5 6t-6 6.5t-4.5 7t-2 8.5q0 4 1.5 6t3.5 3.5t4.5 2.5t4.5 3t3.5 5.5t1.5 10.5t-1 13.5t-1 12.5zM74 239q0 4 4 4q2 0 4 -1t4 -4
q4 -9 5.5 -18.5t2 -19.5t0.5 -19.5t2 -19.5q0 -2 1 -3t1.5 -2.5l1 -3t0.5 -4.5q0 -6 -3.5 -9.5t-9 -6t-11 -3t-9.5 -0.5t-4 3q0 4 4.5 5t10 2t10.5 2.5t5 5.5q0 2 -0.5 3.5t-3.5 1.5t-6.5 -1.5l-7 -3l-7 -3t-7.5 -1.5q-3 0 -4 1t-1 3v2t1 2q8 1 15 3t14 6q-1 2 -4 3t-5 1
h-23q-2 1 -2 2v2q0 2 1 3t3 1h3.5h2.5h7h5t6 -0.5t6 -0.5q2 0 2 1v3q0 17 -3.5 32.5t-10.5 30.5v1zM117 194q0 6 0.5 10t0.5 8t0.5 9t0.5 11v3t0.5 3.5t1.5 3t3 1.5t4 -2t2 -4q0 -13 -2.5 -24.5t-2.5 -24.5v-3v-4.5v-5.5v-3l3 -3t4 -2q4 0 8.5 2t8.5 2q3 0 4.5 -0.5
t1.5 -3.5t-2.5 -3.5t-6.5 -0.5q-3 0 -6 -0.5t-4 -2.5q3 -4 6.5 -5l7 -2t6 -2.5t2.5 -5.5q-8 0 -15.5 2.5t-14.5 2.5q0 -3 2 -5.5t5.5 -4t7 -2.5t6.5 -1v-1v-2q0 -4 -4 -4t-8.5 2t-9 5t-7.5 6.5t-3 7.5q0 3 1 6t1 6q0 8 -1 15.5t-1 15.5zM66 120l3 3l2 -2l1 -1.5l1 -1.5v-35
l1 -0.5t1 -1.5h1h1l2 2l1 1q1 8 1.5 16t0.5 15q6 0 9 -2.5t5.5 -5.5t4.5 -5.5t5 -2.5t4.5 2.5t2.5 5l2 5t4 2.5q2 0 3 -0.5t0 -2.5q0 -3 -1.5 -6t-3.5 -5t-3 -4.5t-1 -6.5q0 -2 0.5 -4t1.5 -4l2 -4t1 -5q-3 0 -4.5 1.5t-2.5 3l-2 3t-3 1.5h-1q-2 0 -3 -1.5t-2.5 -3t-3 -2.5
t-3.5 -1q0 3 1 5t2.5 3.5t3 3.5t1.5 5q0 4 -2 6.5t-7 4.5v0q-1 0 -2 -1t-1.5 -2.5t-0.5 -2.5v-1q0 -1 -0.5 -3t-0.5 -4.5t-0.5 -4.5l-0.5 -2q-1 -2 -3.5 -3l-5 -2t-4 -2.5t-1.5 -3.5q0 -3 1.5 -4.5t3.5 -2t4 -1.5t4 -3q3 -5 3.5 -11t0.5 -12v-5.5t-3 -3.5q-3 1 -3.5 5.5
t-0.5 9.5t-0.5 9t-4.5 4q-1 0 -2 -0.5t-1 -1.5v-36q0 -2 -1.5 -3t-3.5 -1h-1.5t-1.5 2v33v2t-0.5 2.5t-1.5 2.5t-2 1h-1l-1.5 -1.5l-1.5 -1.5l-3 -25l-0.5 -0.5l-0.5 -0.5h-2v0q-1 0 -2 1.5l-1 1.5v4v4v6t0.5 6t1.5 6t3 5q1 1 3 1.5t4 0.5t3.5 0.5t1.5 3.5q0 4 -1.5 6t-4 3
t-5 2.5t-3.5 3.5q-2 4 -3 8.5t-1.5 8.5t-0.5 8.5v8.5t3 6q5 -3 6 -9t1.5 -12t1 -11t4.5 -6q2 1 2.5 4t0.5 4v5v9v9v6zM141 87v7.5v9t0.5 9.5t1.5 8h0.5h0.5q2 0 2.5 -1t0.5 -3v-33l0.5 -1t1.5 -2v0h1t2 1t1.5 3t1 3.5t0.5 2.5v24q0 1 0.5 2.5t1.5 2.5v0v0h1v0l2 -2l1 -1v-31
q0 -4 -2 -6.5t-4.5 -3.5t-5 -2.5t-2.5 -5.5q0 -5 2.5 -6.5l5 -3t5 -4.5t2.5 -11v-3.5t-0.5 -4.5t-1.5 -3.5t-3 -1.5q-1 0 -2 0.5t-1 1.5v17l-0.5 0.5t-1.5 0.5v1h-1v-1q-1 0 -1.5 -2l-0.5 -2v-3v-5v-5v-3l-0.5 -2t-0.5 -4.5t-0.5 -4.5t-0.5 -3l-0.5 -0.5l-0.5 -0.5h-0.5
h-0.5h-0.5h-0.5l-0.5 0.5l-0.5 0.5v36q0 1 -1.5 1.5t-2.5 0.5q-3 0 -3.5 -3.5t-1 -8t-2 -8t-6.5 -3.5q0 3 0.5 7t1.5 7.5l2 7t3 5.5q3 3 4.5 3.5t2.5 1.5t1 2v4t-1.5 5t-3 3.5l-3.5 3.5t-3 5q-2 6 -3.5 13.5t-1.5 13.5q0 1 0.5 2.5t2.5 1.5h1l1 -1t2 -1q0 -7 1 -15.5
t5 -15.5zM177 114v-3q5 -2 8.5 -2h8.5h5q1 0 1.5 1.5t0.5 2.5q0 3 -1.5 4.5t-3.5 2.5t-4.5 1h-4.5q-5 0 -7.5 -1t-2.5 -6zM175 98v-3t2 -3q1 0 3.5 -0.5t5 -0.5h5h3.5l1 -1h2q3 0 3.5 2t0.5 5v4q-2 0 -4.5 0.5t-5.5 0.5t-5.5 0.5t-3.5 0.5h-3q-3 0 -3.5 -1.5t-0.5 -3.5z
M174 78q0 -2 2 -4l4.5 -4.5t5 -4t3.5 -1.5h2q6 3 9 8.5t3 11.5h-28l-0.5 -0.5t-0.5 -2v-2.5v-1zM109 53q2 0 3.5 2t2.5 4.5t2.5 4.5t3.5 2q3 0 3 -3t-2 -5.5l-4 -5t-3.5 -4.5t-1.5 -5q0 -2 2 -3.5t4 -3.5l4 -4t2 -5v-1q0 -1 -1 -2t-2 -1h-1v0v0q-2 1 -3.5 3t-2.5 4t-2.5 3.5
t-3.5 1.5h-1q-1 -3 -2 -5.5t-2 -3.5t-3 -1.5t-6 -0.5q0 3 1.5 5.5l3 5l3 5t1.5 5.5t-1.5 4t-4 2t-4 3.5t-1.5 8.5q3 0 5 -1.5t3.5 -3.5t3 -3.5t4.5 -1.5zM183 41q1 0 2 0.5t1 1.5q1 1 1.5 4.5t0.5 4.5v1v1q-2 2 -3.5 4t-4.5 2l-1.5 -0.5t-1.5 -1.5v-14l0.5 -0.5t1.5 -0.5
q0 -1 2 -1.5z" />
</svg>
