<?xml version="1.0" standalone="no"?>
<!DOCTYPE svg PUBLIC "-//W3C//DTD SVG 1.1//EN" "http://www.w3.org/Graphics/SVG/1.1/DTD/svg11.dtd" >
<svg xmlns="http://www.w3.org/2000/svg" xmlns:xlink="http://www.w3.org/1999/xlink" version="1.1" viewBox="-10 0 266 256">
   <path fill="currentColor"
d="M86 247q1 2 2 3t3 1l1.5 -0.5t1.5 -1.5v-11q-2 -5 -5.5 -12.5t-6.5 -15.5t-5 -16t-2 -14q0 -1 1 -3.5t2 -4.5t2.5 -3.5t2.5 -1.5q2 0 4 3.5t3.5 8.5t3 9.5t2.5 6.5q4 12 11 22l14 20q1 1 1.5 1h1.5q3 0 4 -2t1.5 -5t0 -5.5l-0.5 -2.5q1 -1 2 -1.5l1 -0.5q19 -3 39.5 -3
t38.5 -2q1 0 1.5 -1.5l0.5 -1.5v-1v-1q-1 0 -2 -1.5l-1 -1.5h-24l-1 -1q0 -1 -0.5 -2.5t-0.5 -2.5q0 -10 1 -21t3 -22q7 -4 9.5 -10.5t2.5 -15.5q0 -6 -2 -9t-5.5 -5t-8.5 -2.5t-11 -0.5t-12.5 1t-12 3.5t-9 7t-3.5 12.5q0 7 2.5 10.5t5 5.5t5 3t2.5 5v4t-2 4q1 9 1 20
q0 10 -2 19q-1 1 -2 1.5l-1 0.5h-3h-4h-4h-2q-1 0 -2 0.5l-2 1t-1.5 1t-2.5 0.5t-7 -6.5t-10 -15.5t-8.5 -18t-3.5 -13v-3v-2q0 -1 1.5 -3.5t1.5 -3.5v-1v-2v-3v-2q1 -2 3.5 -3.5t5 -2.5t4.5 -3t2 -6v-32q0 -3 -3 -5.5t-6.5 -3.5t-7.5 -1.5t-6 -0.5v-19l4 -3l2 -0.5t3 -0.5
q5 0 7.5 2.5t4.5 6t3.5 6t5.5 2.5q2 0 3 -1t1 -3q0 -3 -1 -5.5t-3 -5t-3.5 -5t-2.5 -5.5q-1 -1 -3 -4l-4 -6t-4 -5.5t-3 -3.5q-2 -4 -3 -6.5t-1.5 -4.5t-2 -4t-4.5 -4q-4 1 -4.5 2.5t-2.5 5.5q0 1 -2 4t-5 8l-6 10t-6 9.5t-4.5 7.5l-1.5 3q0 1 -1.5 4l-3 6t-3 5.5t-2.5 3.5
q-1 2 -1 3.5v3.5v3t2 1q4 0 6 -2t3.5 -5.5t2.5 -8t3 -8t5 -5.5t9 -2q2 0 3.5 2.5t2 6l1 7t0.5 4.5q0 3 -3.5 3.5t-7.5 2.5t-7.5 7t-3.5 16l0.5 2.5t0.5 3.5q2 7 3 11t3.5 6.5t7 3t12.5 1.5v5q0 5 -3.5 8t-8 6.5t-8 8t-3.5 11.5q0 10 3.5 19.5t6.5 18.5q1 2 2.5 6t3 8.5
t3.5 8.5t2 5zM158 205v-5v-11t0.5 -13t0.5 -10.5v-4.5l2 -2h11q2 0 2.5 1.5l1 3t0.5 3.5v2q0 10 -1.5 19.5t-0.5 19.5l-2 2h-13q-1 0 -1 -2.5v-2.5zM145 137q0 -5 4 -7.5t9.5 -3t11.5 -0.5h9h2.5h3.5t3.5 1t1.5 2v14l-3 4h-2.5t-4 0.5t-4.5 0.5h-4h-10h-7t-5.5 -1t-3.5 -3
t-1 -7zM70 120q0 -1 0.5 -2t1.5 -1t4.5 -0.5t7.5 -0.5t7.5 -0.5t4.5 -0.5h3q2 0 3.5 0.5t1.5 2.5q0 5 -2 8t-5 5t-7 2.5t-8 0.5q-2 0 -4 -1.5t-4 -3.5t-3 -4.5t-1 -4.5zM92 94h4t5 1l1.5 1t1.5 2q1 6 -3 7.5t-8 1.5h-5t-6.5 0.5t-6.5 0.5h-4q0 -5 2 -7.5t5 -4t6.5 -2
t7.5 -0.5zM124 100q0 2 0.5 3.5t3.5 0.5q1 0 5 -0.5l8 -1l8 -1t6 -0.5h5h9h9h6h5q3 0 7 -0.5t7.5 -1.5t5.5 -3v0v-1q0 -1 -1.5 -2t-1.5 -2h-6q-6 0 -11.5 1t-11.5 1q-3 0 -5.5 -0.5t-5 -1.5t-4 -3t-1.5 -5v-2v-2q5 -1 11 -3.5t11.5 -6l11 -7t9.5 -5.5l1.5 -3t0.5 -2
q0 -5 -5 -5h-2h-1q-1 1 -3 2.5t-4.5 3.5t-4.5 3.5l-2 1.5q-5 3 -11 7t-11 4q-4 0 -6.5 -2t-2.5 -6q0 -3 3 -6t8 -6t10.5 -5.5t10.5 -5.5t8 -5.5t3 -5.5q0 -2 -2 -4t-4 -2q-1 0 -2 0.5l-1 0.5q-9 9 -18.5 16.5t-20.5 11.5h-1q-1 0 -3 -1t-3.5 -2.5t-2.5 -3.5t-1 -4
q0 -3 4.5 -6t9.5 -5.5t9.5 -5.5t4.5 -7q0 -3 -2.5 -3.5t-4.5 -0.5h-2l-2 2l-2.5 2.5l-2.5 2.5t-4.5 4t-4.5 4t-3 2q-1 1 -3 2.5t-3.5 3l-3 3t-1.5 2.5q0 3 1.5 5t3.5 4.5t4.5 4t3.5 2.5q1 2 4 7t5.5 10.5t4.5 10t2 6.5v2.5t-2 1.5l-27 3q-1 0 -1.5 2zM76 52q0 -2 1.5 -4.5
t3 -4.5t4 -3.5t4.5 -1.5q1 0 3 1.5t3 3.5l2 4t2 3v0.5v0.5q0 3 -1.5 4t-4 1.5t-5 0.5h-4.5h-3h-3q-1 -1 -1.5 -2.5t-0.5 -2.5z" />
</svg>
