<?xml version="1.0" standalone="no"?>
<!DOCTYPE svg PUBLIC "-//W3C//DTD SVG 1.1//EN" "http://www.w3.org/Graphics/SVG/1.1/DTD/svg11.dtd" >
<svg xmlns="http://www.w3.org/2000/svg" xmlns:xlink="http://www.w3.org/1999/xlink" version="1.1" viewBox="-10 0 266 256">
   <path fill="currentColor"
d="M193 159q4 0 3.5 2t-0.5 6q1 3 1 8.5t0.5 10.5t0.5 9.5v5.5v1t0.5 2.5t1 2.5t0.5 2v8t0.5 12t0.5 12v8h2h2h2.5t2.5 -2v-5v-5v-13.5t-0.5 -15t-1.5 -15t-3 -12.5v-77q1 -2 1 -3v-3q0 -1 -1 -4t-4 -2q-4 2 -4.5 5.5l-1 7t-2.5 6t-10 1.5q-4 0 -5.5 -3t-2 -6t-1.5 -5.5
t-5 -2.5h-1q0 1 -1 1.5l-1 0.5v35l-1 1t-2 1h-3q-3 0 -5.5 -0.5t-5 -0.5h-3.5v-6.5t-0.5 -12t-2 -12t-3.5 -5.5q-1 0 -2 0.5t-2 1.5v5q0 20 2 40t2 41v5v8v9v5q-3 6 -3.5 12.5t-0.5 12.5v9q1 1 2 1h2q2 0 3 -1t1.5 -2.5t0.5 -3.5v-3v-2.5t0.5 -5t0.5 -4.5v-3q1 -3 1 -11.5
t0.5 -17.5t0.5 -17.5v-11.5q1 0 3 -0.5t4.5 -0.5t5 -0.5l2.5 -0.5h3h2t2 2v8v3.5t-0.5 5t-1 4.5t-2.5 2t-3 -1.5t-1 -3.5t-1 -3.5t-3 -1.5h-1q-1 1 -1.5 3.5t-0.5 3.5v4.5t0.5 7.5t0.5 7.5t1 5.5q0 4 2 6.5t5 4t6.5 2t6.5 0.5q6 0 9 -2t4.5 -5.5t2 -8t0.5 -9.5v-12
l-1.5 -3.5t-3.5 -4.5l-2 2t-2 2.5l-2 3l-1 1.5q-1 0 -1 -0.5v-0.5q-1 0 -1.5 -0.5l-0.5 -0.5v-20q0 -2 2 -3t4.5 -1.5t5 -0.5h3.5zM63 85q-4 8 -6.5 15t-4.5 13.5t-3 14t-1 16.5v12v18v22v22v18v12q2 0 5 -0.5t4 -3.5v-9v-13v-13v-8v-4.5t0.5 -7t0.5 -6.5v-4v-1
q0 -4 -0.5 -8.5t-0.5 -8.5q0 -17 1.5 -32.5t8.5 -31.5q1 -2 2 -4.5t2.5 -5t4 -4t4.5 -1.5h3.5t3.5 2q-1 6 1 11t5.5 10l7 10t4.5 11q1 7 1 14.5v14.5v14.5t2 14.5v55q0 4 3 4t4 -2t2 -5t1 -5.5v-4.5v-2q0 -1 -1 -3.5t-1 -3.5v-43.5t-1 -43.5q0 -5 -1.5 -9.5t-4 -8.5t-6 -8
t-6.5 -9v-15l3 -3h3h5h4h3q2 0 3.5 -1.5t1.5 -3.5l-0.5 -1t-1.5 -1h-20q0 -9 2.5 -17t11.5 -15q1 -2 -1.5 -2.5t-3.5 -0.5q-3 0 -5 1.5t-3 3.5t-2 4.5t-2 4.5h-2q-3 0 -5 -2l-4 -4t-5 -4t-9 -2v3l17 17q1 1 1.5 4.5t0.5 5.5v2.5t-2 2.5h-3.5h-2.5q-5 0 -7.5 -0.5t-3.5 -2.5
t-1.5 -5.5t-1.5 -8.5l-1 -1.5t-2 -3.5t-1.5 -4l-0.5 -2l-0.5 -3t-0.5 -4t0.5 -3.5l0.5 -2.5q3 -5 8.5 -7.5t11 -3.5t11 -1h10.5q4 -2 4 -5q0 -2 -1 -3t-3 -1h-2h-4h-3h-2q-7 0 -14.5 1t-13.5 4.5t-10 8.5t-4 13q0 5 2 9l4 8l4 8t2 8v2h-3.5t-3.5 0.5t-3.5 1.5t-1.5 3
q0 3 2 3h4.5t4.5 0.5t2 3.5v1zM163 200v-1v-2q5 -2 8 -2.5t8 -0.5q2 0 4 1t2 5q0 5 -1.5 9.5t-7.5 4.5q-8 0 -10.5 -3t-2.5 -11zM68 130v5v8.5v8.5v5q1 8 1 15t2.5 12.5t7.5 8.5t14 3h4q2 0 3 -1q1 0 2 -1t1 -2v0v-1q0 -2 -3 -3.5l-5 -2.5q0 -2 -0.5 -9t-0.5 -14.5
t-0.5 -14.5t-0.5 -10v-2t-0.5 -4.5t-0.5 -4v-2.5t-1 -1.5l-1 -0.5h-1v0q-1 0 -1.5 0.5t-0.5 1.5q-1 4 -1 8t-0.5 8t-0.5 8v8q0 6 1 13t1 14q-2 0 -3.5 0.5t-2.5 0.5t-2 -1t-1 -3v-1l0.5 -1t1 -2.5t0.5 -2.5v-1l-0.5 -1.5t-1 -3.5t-1 -3t-0.5 -2q-1 -3 0 -8t0.5 -10.5
t-2.5 -9.5t-7 -4zM146 140q3 0 7 -0.5t7.5 0t5.5 2.5t2 6v4q-3 2 -7 2.5t-8 0.5h-5q-1 -3 -1.5 -7t-0.5 -8zM195 139v12l-2 0.5t-3 0.5h-3t-4.5 0.5t-4.5 0.5h-2q0 -6 0.5 -9t3 -4t6 -1h9.5zM175 127q0 -2 0.5 -5t3.5 -3h1h2t4 0.5t4 0.5h3q3 2 3.5 6t0.5 6q-2 0 -6 0.5
t-7.5 0t-6 -1.5t-2.5 -4zM135 77q0 2 1.5 3.5t4.5 1.5q5 0 11.5 -2t12.5 -3q2 0 7.5 -1t11.5 -2t11.5 -2t7.5 -2q3 -1 4 -2t1 -4q0 -2 -0.5 -3.5t-2.5 -1.5q-3 0 -5.5 1.5t-4.5 1.5q-1 0 -5.5 1t-10 2.5t-11.5 2.5t-11.5 2.5t-9.5 2.5t-5 1t-3 0.5t-3 1.5l-0.5 0.5zM138 56
q0 2 1.5 2.5t3 0.5h3h1.5h4h2q1 0 4.5 -1t7.5 -2t7.5 -1.5t4.5 -0.5h4.5t8 -0.5t7.5 -2t3 -5.5q0 -3 -1.5 -3.5t-4.5 -0.5h-1q-7 1 -13.5 2t-12.5 2t-12.5 2.5t-12.5 3.5q-1 1 -2.5 2l-1.5 1v0.5v0.5zM142 37q0 2 1.5 2.5t2.5 0.5q4 0 7 -1t7 -2q2 0 5.5 -0.5t8.5 -1l10 -1
t9.5 -1.5t7 -2.5t2.5 -3.5t-2 -3.5t-5 -1.5t-11.5 1.5t-18.5 3.5t-17 4.5t-7 5.5z" />
</svg>
