<?xml version="1.0" standalone="no"?>
<!DOCTYPE svg PUBLIC "-//W3C//DTD SVG 1.1//EN" "http://www.w3.org/Graphics/SVG/1.1/DTD/svg11.dtd" >
<svg xmlns="http://www.w3.org/2000/svg" xmlns:xlink="http://www.w3.org/1999/xlink" version="1.1" viewBox="-10 0 266 256">
   <path fill="currentColor"
d="M153 218q2 0 3 2t1 3v24q0 1 1 2l2 2q3 0 4.5 -1.5t2.5 -3.5t1 -5v-5v-13t-0.5 -14t-1 -13.5t-1.5 -12.5q-2 -3 -6 -4t-8.5 -1.5t-9 0t-8.5 0.5h-15.5t-17.5 2q-5 0 -7.5 3.5t-3.5 8.5t-1 10.5v9.5v2t0.5 3.5t0.5 3.5v2q0 1 -0.5 3t-1 4.5t-1 4.5t-0.5 3v2v3v4t3 2
t4.5 -3t1.5 -5q1 -1 1 -3.5t0.5 -5t0.5 -4.5v-3l2 -2q1 0 2.5 -0.5t4 -1t4 -1l1.5 -0.5h3t4.5 1t4 2t1.5 3v23h8l2 -3v-23l2 -2h2t4.5 -0.5t5.5 -1t4 -1.5h1zM50 199v44q0 4 1.5 5t4.5 1q4 0 5 -2t1 -6q0 -8 -1.5 -16.5t-1.5 -16.5q0 -7 1.5 -14.5t3 -14.5t2.5 -14t1 -14
q0 -4 -1 -8l-2 -8l-2 -8t-1 -9q0 -8 3 -15l6 -14v-2.5v-2.5v-4v-2q0 -10 -2 -19t-2 -19q0 -3 0.5 -5.5t1.5 -5.5t1.5 -5.5t0.5 -4.5q0 -3 -1 -4t-3 -1q-5 0 -7 5t-3 11.5t-1.5 13t-0.5 8.5q0 4 1 7.5t2.5 6.5t2.5 6.5t1 7.5q0 2 -1 4t-2 3.5t-2 3.5l-2 4q-3 7 -3.5 15
t-0.5 16q0 3 1 6l2 6l2 6t1 6q0 5 -1 10l-2 10q-1 6 -1 14t-2 15zM192 196v51q0 2 1 2h2q4 0 5.5 -3.5t2.5 -8t0.5 -9t-0.5 -6.5v-11t-0.5 -10t-0.5 -10.5t-1 -12.5q-2 -6 -2.5 -11.5t-0.5 -11.5q0 -5 0.5 -10t1.5 -9.5l2 -9t1 -10.5v-2v-4v-4v-2q-3 -5 -4.5 -8.5t-2.5 -7
l-2 -7t-1 -7.5q0 -5 1 -9.5t2.5 -9t2.5 -8.5t1 -9t-1 -10t-2.5 -9t-5 -6t-9.5 -2q0 3 1.5 6.5l3 7t2.5 7.5t1 8t-1 8t-2 8.5t-2 8.5t-1 8q0 8 1.5 13.5t3 10t3.5 9.5t2 12q0 4 -1.5 8.5l-3 9t-3 8.5t-1.5 8q0 5 0.5 7.5t1.5 4.5t2 4.5t1 5.5v3v3v4v2q0 1 0.5 4.5t1.5 5.5z
M108 212q3 -5 8.5 -7.5t10.5 -2.5t9 3t7 7q0 2 -2 2.5t-4.5 0.5h-5h-4.5h-3q-2 0 -4 -0.5t-4.5 -0.5t-4 -0.5l-1.5 -0.5zM97 199v-5.5t4 -2.5h4t4 1t3 2.5t1 3.5t-1.5 3.5t-4 2.5t-4.5 2t-4 1q-1 0 -1.5 -1t-0.5 -2.5v-3v-1.5zM143 197q0 -1 1 -2.5t2.5 -2.5t3.5 -2t3 -1
t1.5 1.5t1.5 3t1 3v2.5q0 2 -1 4t-3 2q-3 0 -6.5 -2t-3.5 -6zM116 188q0 -2 2 -3t3 -1h19l1 2q-2 3 -6 5t-7 2q-4 0 -6 -1.5t-6 -3.5zM139 142q-11 0 -22.5 0.5t-21.5 4.5q0 1 -1.5 2l-1.5 1v12q0 2 5.5 3.5t12 2.5t13 1.5t9.5 0.5q5 0 10.5 -0.5t10 -2t8 -5t3.5 -9.5
q0 -1 -0.5 -3t-0.5 -3q-2 -2 -5 -3.5t-6.5 -1.5h-6.5h-6zM102 155q0 -2 1.5 -3.5t3.5 -2t4 -0.5h3h18h17q3 1 3.5 2t0.5 3t-0.5 4t-3.5 2h-43q-1 0 -2.5 -1.5t-1.5 -3.5zM80 134q2 4 6 4q8 0 16 -0.5t16 -3.5h50q2 0 3 -1t1 -2q0 -3 -2 -3h-3h-5q-2 0 -4.5 -0.5l-2.5 -0.5
q-16 0 -31.5 0.5t-31.5 1.5q-2 0 -6.5 1.5t-5.5 3.5zM81 112v1q1 3 1.5 5.5t4.5 2.5h1l1 -0.5t2 -0.5q0 -10 1 -18.5t3.5 -15.5t8 -12t15.5 -8h2q1 0 1.5 0.5l1.5 1.5v5v4t-0.5 4t-1.5 3.5t-4 1.5q-2 0 -3 -1t-2 -2.5t-2 -2.5t-3 -1t-2.5 1t-0.5 3v9.5t1 11t2.5 10.5t4.5 7
h12q2 0 6 0.5t7.5 0t6.5 -2t4 -4.5q2 -8 2 -17.5v-17.5q-4 0 -6.5 2t-5.5 2t-4 -1.5t-1.5 -3.5t-0.5 -4v-4v-4v-4q1 -1 2 -1.5t2.5 -1t2.5 -0.5h1q4 0 6.5 5t4.5 11.5t4 14t3.5 14t3 11t2.5 4.5q2 0 3 -1t2 -4q0 -4 -1 -9.5t-2.5 -11t-3.5 -11t-3 -9.5q-1 -1 -2 -3
t-2.5 -3.5t-2.5 -3t-1 -3.5q0 -3 3.5 -4.5t7 -5t7 -9t3.5 -16.5v-8l-1 -1l-2 -2t-2 -1.5l-1 -0.5q-1 0 -2 1l-2 2q0 1 0.5 4t0.5 6q0 4 -0.5 7t-0.5 4q0 3 -1.5 5t-3.5 3.5t-4 2.5t-5 2q-2 1 -3.5 2t-2 1h-1h-2.5q-4 0 -5.5 -1.5t-1.5 -6.5v-32q0 -1 -2 -1.5l-2 -0.5
q-1 0 -2.5 0.5t-1.5 1.5v29q0 1 -2.5 1.5t-3.5 0.5q-2 0 -4 -0.5t-2 -3.5v-3v-1.5t0.5 -2.5t0.5 -2.5v-1.5v-4t-0.5 -3.5t-1.5 -2.5t-3 -1h-3q-1 0 -1 1v21q-4 -1 -5.5 -4.5t-2 -7.5t-1 -7t-3.5 -3h-2t-2 1v6q0 5 0.5 8.5t2.5 10.5q8 4 16.5 5.5t16.5 2.5q-1 5 -5 6.5
t-9 3.5q-8 3 -14 8t-9.5 11.5t-5 14.5t-1.5 16zM114 110l4 -3l2.5 -0.5t6 -1t5.5 -0.5h5h5q0 2 -0.5 4t-1.5 4q-1 0 -3.5 0.5t-5.5 0.5t-5.5 0.5t-3.5 0.5q-2 0 -4 -1.5t-4 -3.5zM116 92q5 0 10.5 -1t10.5 -1q3 0 4 0.5t3 3.5q-1 3 -4.5 3.5t-6.5 0.5q-1 0 -3.5 0.5t-5 0.5
h-5.5h-3v-7zM148 16v0q-1 0 -2.5 1l-1.5 1v24l1.5 1t2.5 1t2 -3.5t1.5 -7t1 -7.5t0.5 -5q0 -3 -1 -4t-4 -1z" />
</svg>
