<?xml version="1.0" standalone="no"?>
<!DOCTYPE svg PUBLIC "-//W3C//DTD SVG 1.1//EN" "http://www.w3.org/Graphics/SVG/1.1/DTD/svg11.dtd" >
<svg xmlns="http://www.w3.org/2000/svg" xmlns:xlink="http://www.w3.org/1999/xlink" version="1.1" viewBox="-10 0 266 256">
   <path fill="currentColor"
d="M178 170v77q0 2 1.5 2h2.5q2 0 5.5 -2.5t3.5 -5.5q0 -4 -0.5 -8.5l-1 -9l-1 -9t-0.5 -8.5v-9.5t-2 -9.5q0 -2 0.5 -7t0.5 -11t-0.5 -11.5t-0.5 -7.5v-2t-0.5 -3t-0.5 -3v-2q-1 0 -2 -1.5l-1 -1.5h-37l-1.5 0.5t-1.5 1.5q-1 1 -1 2.5v1.5h11l1 4v7q0 20 -1 40t0 41
q-1 2 -2.5 4.5t-1.5 4.5v0l2 2t2 1v0.5v0.5q2 0 3 -1.5t1.5 -3l1 -3t0.5 -2.5v-3t0.5 -4t0.5 -3.5v-2.5v-5v-9v-12v-12v-9v-6q0 -2 0.5 -5.5t0.5 -8t0.5 -8t0.5 -5.5q2 -2 5 -2h4h3.5h1.5l2 2q-1 5 -1 13q0 7 2 12zM71 194v4t0.5 9t1.5 11.5t2.5 12t3.5 9t4 3.5q3 0 4 -2
t1 -4q0 -6 -1.5 -11l-3 -10t-3 -10.5t-1.5 -10.5q0 -9 1 -20t5 -19q2 -3 5 -6.5t5.5 -7t4.5 -7t2 -7.5q0 -2 -1 -4.5t-3 -5t-4 -4.5t-4 -3v-4q0 -5 2 -6.5t4.5 -2.5t6 -2.5t6 -5t4.5 -9.5t2 -17v-2v-5.5t-0.5 -7.5t-1 -7.5t-0.5 -4.5t-1 -2l-1 -1q-2 -2 -4.5 -2.5t-5.5 -1.5
t-5 -1.5t-2 -1.5v-16l-1 -1q-1 0 -2 -0.5l-1 -0.5l-1.5 0.5l-1.5 0.5q-1 0 -2 0.5l-1 0.5v18l-4 0.5t-9 2.5t-9 5.5t-4 10.5v36q0 5 4 8t9 4.5t9 2t4 2.5q0 4 -3.5 8.5t-8 9t-8.5 9t-6 8.5q-6 17 -8.5 35.5t-2.5 36.5v8v7.5t0.5 7.5t1.5 9l0.5 0.5l0.5 0.5h0.5h0.5h0.5h0.5
q0 -1 2 -2.5t3 -2.5q-1 -23 -0.5 -45.5t6.5 -45.5q0 -2 2 -5t4.5 -6t4.5 -5.5t3 -3.5q2 -3 3.5 -5t5.5 -2t6 4.5t2 7.5v1q-3 6 -7 10.5t-7 9.5q-4 9 -6.5 21t-2.5 22zM90 176q0 9 3.5 13t11.5 4q1 0 4 -0.5t6 -1.5t5 -2.5t2 -2.5v-14l1 -0.5t1 -1.5q7 -3 9 -7.5t2.5 -10.5
t-0.5 -12.5t-1 -13.5q2 -1 2 -7t0.5 -12t2.5 -10.5t8 -4.5l1.5 1t1.5 2t0.5 3t1.5 4.5t1.5 5t1.5 3.5q0 1 2 2.5l2 1.5h24q1 0 3.5 -2l2.5 -2q0 -1 -0.5 -2t-0.5 -2q-4 1 -9.5 1.5t-10 -0.5t-7.5 -3.5t-3 -8.5q0 -2 0.5 -2.5t2.5 -1.5q1 0 3 -0.5l4 -1t4 -0.5h3h2
q2 0 3.5 -0.5t3.5 -1t2 -1.5v-1v-1l-0.5 -0.5l-0.5 -0.5h-27v-13l0.5 -0.5l0.5 -0.5q4 -2 7 -2h8q7 0 11 -0.5t7 1t4 4.5t1 9q0 1 0.5 4t0.5 7t0.5 7.5l0.5 3.5v13q0 11 1 24.5t0 25.5q1 0 1.5 1l0.5 1q1 0 2.5 1.5t2.5 1.5h1h1l0.5 -0.5t0.5 -1.5v-6v-8.5v-9.5v-6v-7v-10
v-8v-4q0 -2 -0.5 -7t-0.5 -11.5v-11.5v-7q0 -1 -0.5 -3l-1 -4t-1.5 -3.5t-2 -1.5h-2h-3h-3h-2q-4 0 -10 -0.5t-11.5 -0.5t-9.5 -0.5l-4 -0.5l-1 -2v-1.5v-2.5v-11.5t1 -12.5q3 -1 4.5 -2t2.5 -1t2.5 0.5t4.5 0.5v15q0 3 3 4t7.5 1.5t7.5 0.5h5h11l1 -0.5l1 -0.5
q0 -2 -2 -3.5t-3 -1.5h-21q-2 0 -2.5 -2t-0.5 -3q0 -3 1 -7t4 -5q1 0 3.5 -0.5t5 -0.5t5 -0.5t3.5 -0.5q3 0 3.5 -1t0.5 -3q0 -3 -2.5 -3.5t-5.5 -0.5h-11q-8 0 -16 1.5t-13.5 4.5t-5.5 10v24q0 2 -2.5 3.5t-4.5 1.5q-1 0 -2 -0.5l-1 -0.5q-1 0 -2.5 -1.5l-2.5 -2.5l-2 -2
t-1 -2v-26q0 -3 -1 -3.5t-3 -0.5q-1 0 -2 0.5t-2 1.5v6q0 7 0.5 12.5t1.5 13.5q1 6 4.5 8t8 2.5t7.5 0.5q4 0 4 2v2q0 1 -0.5 3t-0.5 4t-0.5 4.5l-0.5 2.5l-10.5 3.5t-8.5 4.5q-1 4 -1.5 10.5t-1 14.5t-1 15.5t-1 14.5t-2 11.5t-2.5 6.5q-1 -1 -3 -2.5t-4.5 -3.5t-4 -4
t-1.5 -4q0 -3 2 -6.5t4 -6.5v-27q0 -1 -2 -1h-2h-2q0 6 -0.5 15t-3.5 16q-1 4 -3.5 8t-5 8.5t-4.5 9t-2 8.5zM98 173q0 -4 1.5 -7.5t6.5 -3.5q6 0 7.5 4.5t1.5 8.5q0 9 -10 9q-5 0 -6 -3t-1 -8zM66 68q1 0 3 -0.5t4.5 -1t4.5 -1l2 -0.5h1q2 0 2.5 1t1 3t0.5 4v3q0 8 -3 16
h-4q-5 0 -7 -2.5t-2.5 -6t-1 -7.5t-1.5 -8zM91 77q0 -4 1.5 -8t5.5 -4q6 0 7.5 3t1.5 8q0 2 -0.5 4.5t-1.5 4.5t-3 3.5t-4 1.5q-3 0 -4.5 -1t-2 -3t-0.5 -5v-4zM66 52q0 -6 5 -11t10 -5q2 0 3 1.5t1.5 3.5t0 4t-0.5 3v6q-1 3 -5 3h-6q-3 0 -5.5 -1t-2.5 -4zM93 54v-6
q0 -4 1 -7t5 -3q5 0 7 3t2 7v3t-1 3q-1 3 -3 3h-4h-4t-3 -3z" />
</svg>
