<?xml version="1.0" standalone="no"?>
<!DOCTYPE svg PUBLIC "-//W3C//DTD SVG 1.1//EN" "http://www.w3.org/Graphics/SVG/1.1/DTD/svg11.dtd" >
<svg xmlns="http://www.w3.org/2000/svg" xmlns:xlink="http://www.w3.org/1999/xlink" version="1.1" viewBox="-10 0 266 256">
   <path fill="currentColor"
d="M113 248q2 3 5 3t5.5 -3.5t2.5 -5.5q0 -5 -2 -9l-4 -8t-3.5 -8.5t-1.5 -10.5v-2q0 -1 1 -2q2 0 4.5 -0.5t5.5 -1t5.5 -1t3.5 -0.5v0h1q3 4 6 10.5t5.5 13.5t5.5 12t5 5t3.5 -0.5t2.5 -2.5q0 -1 -2 -5t-4.5 -10t-6 -12.5t-7 -12t-6.5 -10t-5 -5.5q-4 -1 -12 -1t-16 -0.5
t-14.5 -2t-6.5 -5.5q0 -3 2 -5t4.5 -2.5t5.5 -0.5h6h11t12.5 0.5t12.5 2t10 4.5q3 1 5.5 6.5t5.5 13.5t5.5 16.5t5 15.5t4 11.5t2.5 4.5q3 0 4.5 -3.5t1.5 -6.5t-1.5 -5.5t-3 -6t-3.5 -6t-3 -5.5q-1 -2 -2.5 -7t-3.5 -10t-3.5 -10t-2.5 -7l-5.5 -5.5t-5.5 -3.5t-6.5 -1.5
t-8.5 -1.5q-2 0 -8.5 -0.5t-14 -1t-14 -1t-8.5 -0.5q-2 -1 -3 -2t-1 -3q0 -3 3.5 -4.5t6.5 -1.5h26h9h10t10.5 0.5t9.5 1.5q2 1 4.5 5.5t5 10.5t5 12.5t5 12t4.5 9t3 3.5h2t1 -1t0.5 -3.5t0.5 -3.5q0 -4 -3 -12t-7 -16.5t-9 -15t-9 -7.5q-1 -1 -3.5 -1.5t-4.5 -1t-4 -0.5h-2
h-60q-3 0 -3.5 -2.5t-0.5 -4.5v-2q0 -2 0.5 -5.5t1 -7.5t0.5 -7v-3q0 -4 2 -6.5t4.5 -3t6 -1t7.5 -0.5h8h12h13h8q1 0 2 -1.5t1 -2.5t-0.5 -1.5t-1.5 -0.5h-61v-17l-2 -0.5t-4 -0.5l-1 1t-1 2q-1 1 -1.5 2.5t-1 3.5t-0.5 3.5v2.5v4v7v7v3q0 2 -0.5 9t-1 14.5t-0.5 14v8.5v2
v1q0 2 0.5 5t1 6.5t1 6.5l0.5 3q1 4 3 5.5t5 2t6 0.5h6q5 0 10 -1t11 -1q1 0 3.5 0.5t5 1.5t4.5 2.5t2 2.5v1l-1 0.5t-2 0.5t-5.5 0.5t-9 0.5t-8.5 0.5t-6 0.5q-1 0 -4 0.5t-6 1.5t-6 2.5t-4 3.5v15v15q0 1 0.5 3t1 5t1.5 5t3 2q3 0 5 -3v-9q0 -6 -0.5 -11.5t-0.5 -11.5
q0 -5 3 -8t8 -3q2 0 3 2t1.5 4.5t0.5 5v4.5l0.5 1t1.5 2.5t1 2.5v1q1 2 1.5 5l1 6t0.5 6.5v4.5zM98 126q2 2 10 3t18 2t20 1h15h7q1 0 1.5 -1.5t0.5 -2.5t-0.5 -3t-2.5 -2h-52l-9 -2l-0.5 -0.5l-0.5 -0.5q0 -3 2 -5t5 -3h4t6.5 -0.5t6.5 -0.5h4h3h6h5h3q2 0 5 -0.5t6 -1.5
t5 -3t2 -6v-18l-6 -6h-2h-6h-6h-6q-11 0 -21 -0.5t-21 1.5q-3 1 -4 1t-1 2q0 3 2 4t4 1q9 0 18.5 -1.5t18.5 -1.5h5.5h6.5t6 1t5 4v2v3v2v2.5t-0.5 3t-1.5 2.5l-9 3h-7.5t-11.5 0.5t-11.5 0.5h-7.5q-1 0 -2.5 0.5t-3.5 0.5t-3.5 0.5t-2.5 0.5q-2 2 -2 5.5v4.5v4v4zM132 62
l2 0.5t4 0.5t3.5 0.5t2.5 0.5v0h1q12 0 19.5 -1t11.5 -4.5t5.5 -11t1.5 -20.5q0 -5 -3.5 -9.5t-8.5 -5.5h-2.5h-3.5h-4h-2h-8h-7t-7 0.5t-8 1.5q-2 0 -2.5 1.5t-0.5 2.5l3 2h32q4 0 8 3t4 7v2q-1 0 -4 0.5t-4 0.5h-29q-2 1 -4.5 2t-2.5 4q0 4 3 4l0.5 -0.5l0.5 -0.5
q1 0 5 -0.5t8.5 -1t8 -0.5t4.5 -1h1q4 0 8.5 1.5t4.5 6.5q0 3 -2.5 4t-6 2t-6.5 1.5t-4 0.5h-4t-6 0.5t-6.5 0.5h-4.5q-1 1 -1 2v2v2zM68 58q2 2 5 3t6.5 1.5t7 0t6.5 -0.5h6h5.5t5.5 -0.5t6 -0.5v-5h-1t-2.5 -0.5t-3.5 -0.5h-3q-2 0 -5 -0.5t-7 -0.5t-7.5 0.5t-5.5 0.5
q-2 -1 -3 -2.5t-1 -4.5t0.5 -3.5t3.5 -0.5q2 0 5.5 -0.5t8 -1t8 -1t4.5 -0.5t2 -1.5l1 -1.5l0.5 -0.5l0.5 -0.5l-0.5 -0.5l-0.5 -0.5l-1 -1l-2 -2q-5 1 -10.5 2t-11.5 1q-3 0 -5.5 -0.5t-2.5 -4.5q0 -5 4.5 -8t10.5 -4t11 -1h9l3 -3l-5 -3h-3.5h-5.5h-11t-11.5 2t-9 5.5
t-3.5 10.5t0.5 14t1.5 14z" />
</svg>
