<?xml version="1.0" standalone="no"?>
<!DOCTYPE svg PUBLIC "-//W3C//DTD SVG 1.1//EN" "http://www.w3.org/Graphics/SVG/1.1/DTD/svg11.dtd" >
<svg xmlns="http://www.w3.org/2000/svg" xmlns:xlink="http://www.w3.org/1999/xlink" version="1.1" viewBox="-10 0 266 256">
   <path fill="currentColor"
d="M161 246q0 3 0.5 4t3.5 1q2 0 3 -4.5t1.5 -11t1.5 -12.5t4 -8l22 -23l0.5 -1.5t1 -4l1 -5t0.5 -3.5q0 -2 0.5 -4t0.5 -4v-3.5v-2.5q0 -6 -0.5 -14t-2.5 -15t-7 -11.5t-13 -4.5q-4 0 -9 0.5t-8 3.5q-9 9 -13.5 16.5t-7 16t-3 18.5t-0.5 22v14q0 2 1.5 3.5t3.5 1.5
q1 0 1.5 -0.5t0.5 -1.5v-2.5t0.5 -3.5t0.5 -4v-3v-34q0 -1 0.5 -2.5t1 -3.5t1 -3t2.5 -1q1 0 2 1t2 2.5t1.5 3.5t0.5 3t1 4.5t1.5 7t1.5 6.5t1 5q0 1 1 1.5t2 0.5q2 0 2.5 -1.5t0.5 -3.5q0 -5 -1.5 -10.5t-4 -11t-4 -10.5t-1.5 -11q0 -4 1.5 -6t5.5 -2q5 0 7.5 6.5t4 14.5
t2.5 15t3 7t3 -2t1 -4q0 -10 -3.5 -19.5t-7.5 -19.5v0v-1q0 -3 2 -4.5t4 -1.5q6 0 9 5t4 11.5t1.5 13t0.5 9.5v3v4.5v5.5v3q-1 0 -1.5 1t-0.5 2l-0.5 2t-1.5 3q-1 2 -3 3.5l-4 3t-4.5 3t-3.5 3.5q-8 9 -11 20.5t-3 23.5zM93 192q2 -1 4.5 3t5.5 10t6.5 13.5t7 14t6.5 11
t6 4.5q2 0 3 -1t1 -4l-1.5 -3t-3.5 -6.5t-3.5 -6.5t-2.5 -4q-3 -4 -7 -10t-7.5 -12.5t-6.5 -13t-3 -11.5v-2.5t2 -2.5q10 0 16 -4t9 -14v-6.5t0.5 -9.5t0.5 -9.5v-5.5v-1q0 -7 -2 -11t-6 -6.5t-9 -3t-11 -1.5v-26q8 0 11.5 -4.5t5 -10.5t2 -10.5t1.5 -4.5h29l0.5 -1t0.5 -2
v0q0 -2 -1 -3t-2.5 -2l-3 -2t-2.5 -1q-4 0 -8 1t-8 1q-2 0 -4 -0.5t-2 -2.5v-17q0 -2 -2 -2h-3h-3q-2 0 -2 2q0 1 1 3l1 2v3.5v4.5v3v2l-2 2h-2t-5 0.5t-6 0.5h-5q-1 0 -2.5 0.5t-2.5 0.5q-3 0 -4.5 -0.5t-4.5 -3.5q0 -1 -0.5 -3.5l-1 -5t-0.5 -4.5v-3q-1 -3 -1.5 -3.5
t-1.5 -0.5t-2.5 0.5t-1.5 1.5v17l-2 1q-1 0 -2.5 0.5t-4 0.5t-5.5 0.5t-4 0.5h-2.5h-4.5h-3h-3t-1 1.5v2.5v2.5t1 2.5h30l2 2q0 9 2 14t5 7.5t6 3.5t5.5 2t4.5 2t2 4v0.5v0.5q0 1 -0.5 4t-0.5 5.5t-0.5 5.5t-0.5 4q-4 2 -9 2t-10 1t-8.5 6t-4.5 11.5t-1 13.5v11q0 3 0.5 7
t1.5 7.5t3.5 6.5t5.5 4l21 3q1 0 1 2v3v2v1q0 1 -1.5 4t-3.5 6.5t-3.5 6.5t-2.5 4q-2 4 -6.5 10l-9 12t-7.5 11.5t-3 9.5q0 2 1 2.5t2 0.5q3 0 5.5 -1.5t3.5 -3.5t3 -5t4 -6.5t3.5 -6t2.5 -3.5q0 -1 1.5 -4.5t3.5 -7t3.5 -7t2.5 -4.5q0 -1 2 -3zM211 239l0.5 1l0.5 1h1
q4 0 5.5 -3t2 -7t0 -8t-0.5 -7v-5.5t-1 -5.5q1 -28 -1 -56t-6 -55q-1 -3 -1 -6v-7q0 -6 0.5 -11t0.5 -11q0 -10 -2.5 -16.5t-12.5 -10.5q-8 -2 -16.5 -4.5t-16.5 -2.5q-3 0 -5.5 0.5t-2.5 4.5q0 3 3.5 4t9 1t12 0.5t12 2.5t9 7t3.5 13v3.5v3.5q-1 1 -2 1h-2h-3q-1 0 -4 -1
t-6 -2.5t-6 -2.5t-4 -2q-2 0 -6.5 -0.5t-7.5 -2.5h-17q-2 0 -3 1t-1 2q0 2 1.5 3.5t3.5 1.5t6 0.5t8.5 1t8.5 1t5 0.5t3 1t4.5 1.5t5 1.5t3.5 1q3 1 6 4t3 6q0 4 -4 6t-9 3l-10 2t-6 1h-5.5h-7.5h-7.5h-4.5q0 3 2.5 5t5.5 2.5t7 0.5h5q5 0 9 -1t8 -2.5t8.5 -2.5t8.5 -1h2
t2 2q0 1 0.5 3l1 4t1 4.5l0.5 2.5q0 3 0.5 9.5t1 13.5t1 13t0.5 8v10.5v14.5v18v17v15.5v9.5zM67 147v-1v-2t0.5 -2l0.5 -1h22v20q0 2 -2 2h-3q-7 0 -12.5 -3.5t-5.5 -12.5zM111 138h6q3 1 3 3.5v4.5q0 9 -5 13t-13 4q-1 0 -3 -0.5t-2 -1.5v-18q0 -2 1.5 -3.5t4 -1.5h5h3.5z
M65 128q0 -10 3.5 -14t12.5 -7l2 -1t3 -1q1 1 2.5 3t2 5t1 5.5t0.5 3.5v0.5v0.5q0 2 -0.5 5t-1.5 4h-2.5t-3.5 0.5t-3.5 0.5h-2.5h-2q-4 0 -7.5 -0.5t-3.5 -4.5zM104 107q8 0 12 3.5t4 11.5q0 1 -0.5 4.5t-2.5 3.5h-19v-21q0 -1 0.5 -1.5t1.5 -0.5h4zM35 93q0 2 1.5 2.5
t3.5 0.5q4 0 8 -1.5t8 -4t7.5 -5t6.5 -4.5v-2q0 -1 -1 -3.5t-3 -2.5q-4 0 -6.5 3t-5.5 5q0 1 -3 2t-6 2.5t-5.5 2.5l-2.5 1l-1.5 1.5t-0.5 2.5zM115 71q0 3 3.5 6.5t7.5 6.5t8.5 5t7.5 2v-2l-1 -1l-2.5 -2.5t-3 -3.5t-2.5 -3q-5 -4 -8.5 -6t-9.5 -2zM76 62q-1 -5 -1.5 -9.5
t-0.5 -8.5h32l3 1v1.5v2.5v4q0 3 -0.5 5t-1.5 4t-3 3h-6h-11.5t-10.5 -3z" />
</svg>
