<?xml version="1.0" standalone="no"?>
<!DOCTYPE svg PUBLIC "-//W3C//DTD SVG 1.1//EN" "http://www.w3.org/Graphics/SVG/1.1/DTD/svg11.dtd" >
<svg xmlns="http://www.w3.org/2000/svg" xmlns:xlink="http://www.w3.org/1999/xlink" version="1.1" viewBox="-10 0 266 256">
   <path fill="currentColor"
d="M44 248q0 2 1.5 2.5t2.5 0.5q3 0 5.5 -2t4 -5l3 -6l2.5 -5q0 -1 2 -3.5t3.5 -5t3.5 -5t2 -3.5q2 -3 3.5 -6.5l3 -7t3.5 -6.5t4 -5q2 1 4.5 6t5 11t4.5 12.5t4.5 12.5t5 9.5t4.5 3.5q3 0 3.5 -1t0.5 -3q0 -4 -2.5 -9.5t-6 -12l-7 -13t-4.5 -11.5q-1 -1 -1.5 -2.5t-1.5 -3
t-1.5 -3.5t-0.5 -3v-65q0 -1 -2 -1.5t-3 -0.5q-2 0 -3 3t-1.5 6.5t-0.5 7v4.5q0 5 1 10t1 10q0 11 -3.5 21t-8.5 20t-11.5 19t-11.5 18q-1 0 -2 1.5t-2.5 3.5t-2.5 4t-1 3zM142 156h-1.5t-1.5 2v61q0 5 3 7.5t7 3.5t8 1h7q14 0 21.5 -3t10.5 -8.5t3 -15.5v-23v-4v-5v-6v-4
l-0.5 -2l-1 -4t-1.5 -3.5t-3 -1.5v0q-1 0 -2 0.5l-1 0.5v19h-18q-1 0 -2 -2q-2 -4 -2 -8t-1 -9q0 -1 -1.5 -1.5t-3.5 -0.5q0 7 1 13.5t1 12.5q4 2 6 2.5t6 0.5q3 0 6.5 -0.5t6.5 -0.5v18h-44v-38q0 -2 -1 -2h-2zM145 210v-6q8 -1 14.5 -1.5t14.5 -0.5h14q0 1 0.5 4.5
t0.5 4.5q0 3 -2.5 6.5t-4.5 5.5q-6 0 -10.5 0.5t-9.5 0.5q-8 0 -12.5 -3t-4.5 -11zM66 158l-0.5 3.5l-1 7l-1 7t-0.5 5.5l-2 4l-2 4l-2 4t-1 5q4 0 7 -3.5t5 -8.5t3.5 -11.5t2 -13t0.5 -11v-6.5q0 -3 -0.5 -5.5t-4.5 -2.5q-1 0 -1.5 1.5t-1 3.5l-1 4t-0.5 3v1v2t0.5 2.5
t0.5 2.5v2zM107 160q0 3 0.5 8.5t1.5 12t2 11t3 4.5q3 0 3.5 -1.5t0.5 -3.5v-4l-0.5 -1.5l-1 -3l-1 -3l-0.5 -1.5q-2 -11 -3 -20.5t-1 -19.5h-2l-1 3t-1 5v2v4v5v3zM139 129q2 3 6.5 6.5t6.5 5.5h2h4h4h3h3h5h3.5h1.5q1 0 3 -0.5t4.5 -1t4.5 -1t3 -0.5q4 -1 7 -2t5 -3
t3.5 -5t1.5 -8v-2q0 -2 -0.5 -5t-1 -6.5t-1 -6.5t-0.5 -4q-1 -3 -3.5 -4.5t-5.5 -2.5t-6 -1h-4h-2q-1 0 -3 -0.5t-4 -0.5h-3h-4q-2 0 -4 0.5t-4 0.5h-1q-1 0 -3.5 0.5t-3.5 0.5l-10.5 3t-5 3t-1.5 7v13v3v4v4v3zM91 71h-1q-1 0 -1.5 0.5t-0.5 1.5v21q0 4 -6.5 9t-14 10.5
t-13.5 11.5t-6 12q7 0 12.5 -5t10.5 -11.5t10 -11.5t10 -5h2h2q5 7 10.5 11.5t12.5 10.5q1 0 2 1l1 1q3 0 3.5 -1.5t0.5 -3.5v-2t-2 -2q-7 -5 -13 -8.5t-10 -8.5t-5.5 -11.5t0.5 -16.5q-1 0 -2 -1.5t-2 -1.5v0zM153 130q0 -5 2 -8t3 -8v-3v-5v-5.5v-2.5q1 -3 2 -3.5t3 -0.5
q4 0 5 2.5t1 6.5q0 8 -0.5 16t-4.5 15h-4q-3 0 -5 -0.5t-2 -3.5zM174 132v-10v-6v-6t0.5 -6t0.5 -6q1 -3 3.5 -4t4.5 -1q0 10 1 18.5t1 18.5q0 3 -1 3.5t-5 0.5h-3t-2 -2zM189 111v-10q1 -3 2.5 -3.5t3.5 -0.5t3.5 1.5t1.5 3.5v5v4v4t-0.5 5.5t-2 5t-3.5 2.5t-3 -2.5
t-1.5 -5t-0.5 -5.5v-4zM143 107q0 -1 0.5 -2.5l1 -3l1 -3t2.5 -1.5q1 0 2 1.5t1 3t0.5 3.5t0.5 3l-0.5 3l-1 6t-1.5 5t-3 2h-1v-3t-0.5 -4.5t-0.5 -4.5v-3l-0.5 -0.5t-0.5 -1.5zM54 104q0 1 1 1.5t2 0.5q2 0 5 -2t6 -4.5t5.5 -5.5t2.5 -6q0 -4 -1 -7.5t-6 -4.5q1 9 -4 15.5
t-11 10.5v2zM105 80q0 7 4.5 13t11.5 6q2 0 3 -0.5t1 -1.5q0 -2 -1.5 -3t-3.5 -2t-3.5 -1.5t-2.5 -1.5q-2 -1 -2.5 -2.5t-1 -3.5l-1 -4t-2.5 -3q-1 0 -1.5 1.5t-0.5 2.5zM170 16q-1 0 -4.5 4t-8 10.5t-9 14.5t-8 15t-6 12.5t-2.5 6.5q3 0 5 -2t3.5 -4t2.5 -4t4 -2q1 0 2 0.5
l3 1.5h39l1 -0.5l1 -0.5v-1v-1q-1 0 -2 -1t-2 -1h-2t-4 -0.5t-3.5 -0.5h-2.5h-5.5h-7h-7h-5.5q0 -6 2.5 -10.5t3.5 -9.5l12 -14h1h1q2 0 5 3t6.5 8t6.5 11t6.5 11t6.5 9t5 5q3 1 4.5 -2t1.5 -4t-3 -5.5t-7.5 -10.5t-9.5 -13t-10 -12.5t-8.5 -9t-5.5 -3.5zM61 56q2 3 6 5t7 3
h2h4h3h3h16.5t14 -2.5t9.5 -8.5t4 -17q0 -14 -7 -18.5t-19 -4.5h-6h-4.5t-5 0.5t-6.5 0.5q-7 1 -12 2t-8 3t-4 6t-1 12v2q0 1 0.5 3.5t1.5 5t1.5 5t0.5 3.5zM76 54q0 -4 2 -7.5t3 -7.5v-3t0.5 -5t0.5 -5v-3q1 -2 2.5 -2h2.5q2 0 2.5 0.5t1.5 2.5q0 1 0.5 4.5t0.5 4.5
q0 6 -0.5 10.5t-1.5 10.5q-1 3 -3.5 3.5t-4.5 0.5h-4t-2 -4zM98 56q0 -1 -0.5 -3t-0.5 -4.5t-0.5 -4.5t-0.5 -3v-1v-4.5t0.5 -7t2 -6.5t3.5 -3t2.5 0.5t0.5 1.5v3.5v5.5v5.5v3.5t1.5 4l2.5 5l0.5 1.5l0.5 1.5l0.5 0.5t0.5 1.5q0 3 -3.5 4t-5.5 1q-1 0 -2.5 -0.5t-1.5 -1.5z
M66 38v-3t0.5 -3.5t1.5 -3t3 -1.5l1.5 0.5t1.5 1.5v14l-5 5q-2 -2 -2.5 -4.5t-0.5 -5.5zM110 35q0 -4 1 -7.5t5 -3.5t4.5 3t0.5 6q0 2 0.5 4.5t0 4.5t-1.5 4t-3 2h-2q-3 -5 -4 -7.5t-1 -5.5z" />
</svg>
