<?xml version="1.0" standalone="no"?>
<!DOCTYPE svg PUBLIC "-//W3C//DTD SVG 1.1//EN" "http://www.w3.org/Graphics/SVG/1.1/DTD/svg11.dtd" >
<svg xmlns="http://www.w3.org/2000/svg" xmlns:xlink="http://www.w3.org/1999/xlink" version="1.1" viewBox="-10 0 266 256">
   <path fill="currentColor"
d="M80 210q0 1 1.5 3.5t2.5 2.5h29q2 0 3.5 3t3 6.5t3.5 7t5 4.5q3 2 8 4t10 4.5t10.5 4t9.5 1.5q1 0 2.5 -0.5l3 -1t2.5 -1t1 -2.5q-1 -1 -6 -3.5t-11.5 -4.5t-12.5 -3.5t-8 -3.5l-1.5 -1.5t-0.5 -1.5q0 -5 3 -7.5t7 -3t9 -0.5h10t8.5 -1t4.5 -4q3 -8 4 -16t1 -15v-4
t-0.5 -6t-2 -5.5t-3.5 -2.5h-29v-16q4 0 8.5 -1t9 -2.5t7.5 -4.5t3 -8q0 -9 -2.5 -13t-7 -5.5t-10.5 -1t-14 -0.5q-3 0 -3.5 -2l-1 -4t-2 -3.5t-4.5 -1.5h-3t-2 2v1q0 1 0.5 2.5t0.5 2.5v1v0q0 1 -2 3l-2 2h-24q-1 0 -2 -4t-2.5 -9t-2.5 -9t-1 -5q0 -2 1.5 -3.5t3.5 -2.5
t4.5 -1.5t4.5 -0.5v-1v-1q0 -2 -2 -3t-4.5 -1h-5h-3.5t-2 -1.5t-1 -2.5v-21q0 -1 1 -2t2 -1q1 -1 2.5 0.5l4 4t4.5 4t5 1.5v-6l-1 -1t-2 -3t-2 -3.5t-2 -3.5q-1 -1 -3 -1.5t-3.5 -1.5t-3 -1.5t-1.5 -2.5v-18q0 -3 -2 -4t-4 -1q-3 0 -5 2.5t-2 5.5q0 2 1.5 5.5t1.5 6.5v3
q-5 1 -9.5 4t-7.5 7t-5.5 9t-2.5 10q0 2 1 2.5t4 0.5t4.5 -3.5t3 -7.5t4 -7.5t6.5 -3.5q1 0 1.5 0.5l0.5 0.5v30q0 2 -4.5 2.5t-9.5 0.5t-9.5 1t-4.5 4q0 4 2.5 4h5t4.5 1t2 5t-1 8l-2 8t-2 7.5t-1 7.5q0 1 0.5 2.5t1.5 1.5h1v0q4 -3 6.5 -5.5t2.5 -6.5q0 -2 0.5 -6t1 -8.5
t1 -8.5t0.5 -6q1 -2 3 -2.5t4 -0.5h2h2q0 1 0.5 3.5t1 5.5t1 5.5t0.5 3.5t0.5 3.5t1.5 5.5t1.5 6l0.5 3v1q0 5 -2 8.5t-2 8.5t2.5 8t6.5 4t8.5 1t7.5 -1q3 2 4 3t1 3t-0.5 3t-1.5 2q-3 0 -7.5 0.5t-9.5 1.5t-9.5 3t-6.5 6q-1 6 -1 12.5v13.5v3v4v4v3zM132 117q3 0 5.5 3.5
t2.5 6.5v18v17v13t-0.5 14t-1.5 14.5t-4 12.5l-0.5 0.5l-1.5 1.5l-1 0.5t-2 0.5q-3 -1 -4.5 -4.5t-1.5 -6.5v-85q0 -3 3.5 -4.5t5.5 -1.5zM165 194q3 -1 4 1t1 4q0 5 -2.5 7.5t-6.5 3.5t-9 1h-8v-4t0.5 -5.5t1.5 -4.5t3 -2zM89 199v-2v-2q2 -2 5.5 -2.5l7 -1t7 0t5.5 0.5v16
h-18q-3 0 -5 -3t-2 -6zM147 186q0 -1 -0.5 -3t-0.5 -3v-1v-2q0 -2 0.5 -4.5l0.5 -2.5h21l4 2v12q0 2 -1.5 2.5t-3.5 1t-4 0.5h-3q-3 0 -5.5 -0.5zM89 179q0 -3 2 -5.5t5.5 -4t7 -2.5t6.5 -1q2 0 4 1.5t2 4.5q0 2 -0.5 6t-2.5 6q-1 1 -3 1t-4 0.5t-4 0.5h-3h-1h-1
q-4 0 -6 -1.5t-2 -5.5zM95 133q0 -7 4.5 -9.5t10.5 -2.5q3 0 4.5 2t1.5 6q0 7 -2.5 9.5t-9.5 2.5q-4 0 -6.5 -2t-2.5 -6zM147 120h17v13q0 2 -1.5 3t-3 1.5t-3.5 0.5h-3h-2h-2q-1 0 -1.5 -0.5t-0.5 -1.5v-16zM185 92q0 3 -1 5.5t-2.5 5t-3 5.5t-1.5 6q4 0 8 -3t6.5 -7
t4 -8.5t1.5 -8.5t-3 -5.5t-6 -3.5t-6 -4.5t-3 -7.5t2.5 -7t6.5 -2.5t8 -0.5t7 1q3 -2 3 -5t-2.5 -3h-4.5q-12 0 -24 1.5t-24 1.5v-16q0 -1 -0.5 -2t-1.5 -1q0 -1 -0.5 -1.5t-1.5 -0.5l-2 0.5t-2 1.5q0 5 -0.5 9t-1.5 6.5t-3.5 4t-8.5 1.5q-3 0 -5.5 -0.5t-4.5 -2.5
q0 -2 0.5 -5t0 -6.5t-2.5 -6t-5 -2.5q-1 0 -1.5 1t-0.5 2.5v2.5v2q0 11 1 21t0 21q0 1 0.5 2.5t1.5 3t2 2.5t2 1h24q1 0 2.5 -1t2.5 -2t2 -2.5t1 -2.5v-22q0 -1 0.5 -1.5t1.5 -0.5v0h1l1.5 1l1.5 1h15q2 2 2 4v5v5.5t1 4.5q2 3 4 4t4 1.5t3 2t1 5.5zM119 69v-3v-2l3 -3h18
q1 0 1 1t0.5 2.5t0.5 2.5v1q0 9 -3.5 12.5t-12.5 3.5q-3 0 -4.5 -1.5t-2 -4t-0.5 -5v-4.5zM158 32v1l1 3h5h4q2 0 6 -0.5t8.5 -0.5t9 -0.5t5.5 -0.5t1.5 -1.5t0.5 -2.5q0 -2 -0.5 -3t-2.5 -2h-4h-4h-6t-10.5 0.5t-9.5 2t-4 4.5z" />
</svg>
