<?xml version="1.0" standalone="no"?>
<!DOCTYPE svg PUBLIC "-//W3C//DTD SVG 1.1//EN" "http://www.w3.org/Graphics/SVG/1.1/DTD/svg11.dtd" >
<svg xmlns="http://www.w3.org/2000/svg" xmlns:xlink="http://www.w3.org/1999/xlink" version="1.1" viewBox="-10 0 266 256">
   <path fill="currentColor"
d="M190 178q0 5 -0.5 11.5t-0.5 14t1.5 14t4.5 11.5l0.5 1.5t1.5 3t1.5 2.5l0.5 1q1 2 1.5 4t1 4.5t2 4t3.5 1.5t4.5 -0.5t2.5 -3.5v-0.5v-0.5q-1 -2 -2.5 -5.5t-3.5 -7.5t-3.5 -7.5t-2.5 -4.5q0 -1 -1 -3t-2 -2q-1 -11 -1 -23v-24v-4v-6v-6v-2l1 -4q1 3 3 7.5t4 8t5.5 6.5
t7.5 3v-7l-8 -13q-2 1 -3.5 -0.5t-2 -4l-1 -5t-0.5 -3.5q0 -3 1.5 -7l3 -8t3.5 -7.5t4 -6.5q-1 -1 -2 -3t-3 -2q-3 0 -4.5 3l-3 6t-3 5.5t-4.5 2.5q-1 0 -3 -5t-3.5 -12t-2.5 -13.5t-1 -8.5q0 -3 3.5 -3t7.5 0.5t7.5 0.5t3.5 -4q0 -1 -1 -3t-3 -2h-19v-15q3 0 6.5 -1t6.5 -3
t4.5 -4.5t1.5 -6.5v-4v-2t-0.5 -4.5t-1 -4.5t-0.5 -3q0 -2 -2 -2.5t-3 -0.5v19q0 2 -1 3t-2.5 2t-3 1.5t-2.5 0.5t-3 -0.5t-2 -2.5v-32l-2 -0.5t-2 -1.5h-1h-1q-1 1 -2 1.5l-1 0.5v2.5v1.5q0 14 1.5 27t1.5 27q0 2 -0.5 4t-2.5 2h-26l-0.5 -2t-1.5 -4v-3v-5v-5v-3
q0 -3 -1.5 -3.5t-3.5 -0.5q-3 0 -3.5 1.5t-0.5 3.5v5t1 4v118q-1 14 -2.5 30t-1.5 30q0 1 1 1.5t2 0.5q2 0 4 -2.5t2 -4.5l3 -120l4 -2h3t8 -0.5t10 -1.5t8 -1h1q3 0 5 3.5t4 8t3 9t1 6.5v1q0 1 -0.5 3.5t-1 4.5t-1 4.5l-0.5 2.5v23zM39 206q1 12 5 19t11 10.5t16.5 4.5
t19.5 1q5 0 10.5 -1.5t10 -4t7.5 -7t3 -11.5q0 -2 0.5 -8t0.5 -13v-12v-8v-38t-2 -38q-1 -1 -1.5 -1h-1.5h-2.5t-1.5 1v33q-5 0 -7 -3.5t-3 -7.5l-2 -8t-4 -4t-4.5 3.5t-3 7.5t-3.5 7.5t-6 3.5q-3 0 -4 -4t-2 -8.5t-2.5 -8.5t-5.5 -4q-2 0 -4.5 5t-5 11t-5.5 11t-5 5h-1
q0 -1 -1 -3.5t-1 -3.5v-1q0 -6 1 -12t1 -12v-7l-1 -0.5l-1 -0.5h-1h-1l-1 0.5t-2 0.5q0 4 -0.5 7t-0.5 5.5v4.5v6v9v9v13t0.5 15t0.5 15v13v9zM52 216v-2v-2q1 0 2 -2t2.5 -4l3 -4t2 -3t1 -2.5t1 -2.5t1.5 -2t2 -1h1q2 1 4 4.5t4.5 7t4 6t4.5 2.5h0.5h0.5q0 -1 1 -3t2 -2
q1 -1 2 -3.5t2.5 -5.5t3 -5.5t2.5 -4.5q2 2 4.5 6.5t4.5 9t3.5 9.5t1.5 8q0 2 -1.5 4.5t-4 4t-5 2.5t-3.5 1h-31l-1.5 -1t-3.5 -2t-4 -2.5t-4 -2.5t-2.5 -3.5t-0.5 -4.5zM99 174q-3 0 -4.5 3.5t-2.5 7.5t-2.5 7.5t-4.5 3.5q-4 0 -6 -3t-3.5 -6.5t-3 -6.5t-4.5 -3
q-5 0 -6.5 3.5t-3 7.5t-3 7.5t-5.5 3.5h-2.5t-1.5 -2q-1 -5 -1.5 -9t-0.5 -9q0 -4 0.5 -6.5l1.5 -7.5h3t4.5 -0.5t5 -0.5h3.5h10.5t16.5 -0.5t16.5 -0.5h10.5v36l-2 3q-3 -1 -4 -5.5t-2 -9.5t-2.5 -9t-6.5 -4zM155 191q0 2 1 3t3 1.5t3.5 0.5h2.5q4 0 7 -0.5t5 -1.5
t3.5 -3.5t1.5 -6.5v-48l-1.5 -2t-1.5 -3l-1.5 -1.5l-0.5 -0.5h-1h-1l-0.5 0.5t-0.5 1.5v20l-1.5 0.5t-2.5 0.5h-2h-3.5t-3.5 -0.5t-3 -0.5v-17q0 -2 -2.5 -2h-2.5v2v4v4v2v9.5t0.5 14t1 14t0.5 9.5zM159 163v-2l6 -1.5t5 -0.5q1 0 3 0.5t2 2.5v22q0 1 -1.5 3t-3.5 2h-1
q-4 0 -6 -3t-3 -7.5t-1 -8.5v-7zM46 152q0 -3 1 -4t3 -1t4 -0.5t3 -2.5t1.5 -5t1.5 -5.5t2.5 -4.5t4.5 -2h1h2l8 17h0.5h1.5q4 0 6.5 -3t4 -6.5t2.5 -6.5t3 -3l0.5 0.5l0.5 0.5l2 2t2.5 3t2.5 3.5t4.5 5t4.5 5.5t3 4v1q0 3 -2 4t-4 1h-63q-1 0 -1 -1v-2zM146 104v-7v-4
q0 -3 0.5 -4.5t2 -3t4.5 -1.5l2.5 -0.5t6.5 -0.5t7.5 -0.5t5.5 -0.5h1q2 0 3 2.5t1 5v5.5v5q0 4 -2 5.5t-5.5 2t-7 0t-6.5 -0.5h-7t-6 -3zM47 44q0 8 1 17t2 16q1 3 2 5.5t3 4t4.5 3t5.5 2.5h15h15q2 0 4.5 -0.5t4.5 -0.5t4 -0.5l2 -0.5l3 -3l-3 -3h-23v-1.5t-0.5 -4
t-0.5 -4.5v-4v-2q0 -2 1.5 -2.5t4.5 -0.5q2 0 5 -0.5t5.5 -3t4 -7t1.5 -14.5v-2v-3v-3.5v-2.5l-0.5 -1t-1.5 -1l-3 -0.5l-3 -0.5q0 5 1 8.5t1 8.5t-2 8.5t-7 3.5q-1 0 -3 0.5t-3 -1.5q-1 -10 -1.5 -21.5t0.5 -20.5q-2 -2 -3.5 -2.5t-3.5 -0.5q-1 0 -3 1t-2 3q0 12 2 23t2 23
q0 7 -0.5 12t-1.5 13q-2 1 -3.5 1h-3.5h-3q-4 -3 -6 -7.5t-2.5 -9.5t-0.5 -10.5t-0.5 -9.5t-1.5 -7t-5 -3q-3 0 -3 2.5v3.5z" />
</svg>
