<?xml version="1.0" standalone="no"?>
<!DOCTYPE svg PUBLIC "-//W3C//DTD SVG 1.1//EN" "http://www.w3.org/Graphics/SVG/1.1/DTD/svg11.dtd" >
<svg xmlns="http://www.w3.org/2000/svg" xmlns:xlink="http://www.w3.org/1999/xlink" version="1.1" viewBox="-10 0 266 256">
   <path fill="currentColor"
d="M125 247q-1 2 1.5 2.5t3.5 0.5q2 0 4.5 -0.5t2.5 -2.5v-76q-2 -5 -2 -11.5v-11.5q0 -8 1 -15.5t1 -15.5v-7t-2 -7v-40q0 -2 -1 -4t-4 -2q-4 0 -6 3t-2 7q0 45 2 90t1 90zM124 33q0 5 -1.5 6.5t-3.5 2.5t-5 1.5t-6 1.5q-6 3 -16.5 8.5t-20.5 12.5t-17 14.5t-7 12.5h6.5
t6.5 -2q5 -3 13.5 -10t18 -14.5t18.5 -12.5t15 -5h2h2t3.5 0.5t3.5 0.5h2h2q11 5 24 12t23 14q2 2 4 4.5t4.5 4.5t5 3.5t5.5 1.5q2 0 4.5 -1.5t2.5 -3.5q0 -5 -5.5 -10t-14 -10t-18.5 -9.5t-18.5 -8.5t-14 -6.5t-5.5 -3.5v-21l-2.5 -1.5t-4.5 -1.5q0 -1 -1 -1q-2 0 -4.5 2.5
t-2.5 5.5t1 6.5t1 6.5z" />
</svg>
