<?xml version="1.0" standalone="no"?>
<!DOCTYPE svg PUBLIC "-//W3C//DTD SVG 1.1//EN" "http://www.w3.org/Graphics/SVG/1.1/DTD/svg11.dtd" >
<svg xmlns="http://www.w3.org/2000/svg" xmlns:xlink="http://www.w3.org/1999/xlink" version="1.1" viewBox="-10 0 266 256">
   <path fill="currentColor"
d="M122 250q1 2 2.5 2h2.5q4 0 5.5 -3.5t1.5 -7.5t-0.5 -8t-0.5 -8v-2v-4.5t0.5 -8t0.5 -8v-4.5v-8.5v-9.5t1 -9.5t3 -7.5q5 -5 11 -8t12 -6.5t10 -8t4 -12.5t-4 -13t-9.5 -7.5t-12 -4t-12.5 -2.5q-3 -2 -6 -6t-3 -8q0 -3 1 -5.5t4 -2.5q13 -3 29 -2.5t29 -0.5l3 -3t2 -3
t-1.5 -2.5t-1.5 -2.5h-7q-14 0 -28 2t-28 2q0 -12 0.5 -24t0.5 -25v-3t-0.5 -3.5t-1.5 -3t-3 -1.5q-3 0 -4.5 2.5t-1.5 5.5v36q0 2 -0.5 5t-0.5 5.5t-0.5 4.5l-0.5 2l-51 3q-2 0 -5 1.5t-3 4.5q0 2 1 3t3 1h3h3q12 0 23 -2t23 -2h3h2l1 1q0 13 1.5 19t5 9t10.5 4.5t19 2.5
q2 1 3.5 2t2.5 2v7q0 8 -3.5 11.5t-8.5 5l-10 3t-7 5.5q-5 9 -7.5 18.5t-3.5 19.5t-1 20.5v20.5v4v6v6v4z" />
</svg>
