<?xml version="1.0" standalone="no"?>
<!DOCTYPE svg PUBLIC "-//W3C//DTD SVG 1.1//EN" "http://www.w3.org/Graphics/SVG/1.1/DTD/svg11.dtd" >
<svg xmlns="http://www.w3.org/2000/svg" xmlns:xlink="http://www.w3.org/1999/xlink" version="1.1" viewBox="-10 0 266 256">
   <path fill="currentColor"
d="M45 223q0 3 2.5 4t4.5 1h3h2.5t3.5 -0.5t4 -0.5h3l142 -5q1 0 1.5 -2t0.5 -3q0 -3 -2.5 -3.5t-4.5 -1.5q-13 1 -27 1t-27 3h-103l-1 2.5t-2 3.5v1zM53 140q1 2 3 3.5t4.5 2t5.5 1t4 0.5h1.5h0.5q2 0 5.5 -1t4.5 -1h118q3 0 3.5 -1t0.5 -3q0 -1 -0.5 -3t-3.5 -2h-142
q-1 0 -3 1.5t-2 2.5zM51 63q0 1 0.5 3t1.5 2h152q2 0 2 -1v-2q0 -2 -0.5 -3t-2.5 -3h-7t-10 -0.5t-10 -0.5h-7h-8q-6 0 -11.5 0.5t-9.5 0.5h-5h-9.5h-15h-17.5t-17.5 0.5t-15 0.5h-9.5q0 1 -0.5 2z" />
</svg>
