<?xml version="1.0" standalone="no"?>
<!DOCTYPE svg PUBLIC "-//W3C//DTD SVG 1.1//EN" "http://www.w3.org/Graphics/SVG/1.1/DTD/svg11.dtd" >
<svg xmlns="http://www.w3.org/2000/svg" xmlns:xlink="http://www.w3.org/1999/xlink" version="1.1" viewBox="-10 0 266 256">
   <path fill="currentColor"
d="M85 246q0 2 1 2.5t3 0.5q3 0 6 -3.5t4.5 -9t2.5 -12t2 -12.5t1 -11v-7q0 -4 -2 -7.5t-5 -7t-5 -7t-2 -8.5v-2.5t2 -1.5q15 1 30 -1q1 -1 3.5 -1.5t2.5 -3.5q0 -1 -2 -2t-3 -2q-17 3 -35 4t-34 3q-3 0 -3.5 1t-0.5 2q0 2 2 3.5t4 1.5q5 0 9.5 -1t9.5 -1h4.5h4.5
q0 6 1.5 10.5l3 9l3 9t1.5 9.5q0 8 -0.5 17t-2.5 17q-1 3 -3.5 5t-2.5 6zM169 143q0 1 0.5 4.5t0.5 4.5v6v9v10v5q0 2 2 7.5t4.5 12.5t5.5 14.5t6 13.5t5.5 10t4.5 4t4.5 -1t2.5 -4q0 -1 -2 -5.5t-4.5 -9t-4.5 -8.5t-3 -7q-6 -16 -9.5 -31t-3.5 -32q0 -13 1 -26t1 -26
q0 -7 -3 -10.5t-7.5 -5t-9.5 -2t-9 -0.5h-6q-2 1 -2.5 2t-0.5 3t4 2.5t9.5 1t9.5 1.5t4 4v53zM66 109v8t1.5 9.5t4.5 8t8 4.5h9q11 0 18.5 -0.5t12 -4t6 -9.5t1.5 -17q0 -2 0.5 -5.5t0 -7.5t-2 -7t-4.5 -4l-17 -3q-2 -1 -3 -2.5t-1.5 -3t-0.5 -3.5v-3v-5q0 -2 2 -4
q8 1 13.5 -2.5t9 -9t5.5 -12t2 -13.5q0 -2 -1 -2.5t-3 -0.5q-1 0 -2.5 0.5t-1.5 1.5q0 4 -1 9t-3 9.5t-6 7.5t-9 3q-3 0 -4 -3t-1 -5v-5v-7v-8v-4q0 -2 -0.5 -5l-0.5 -3h-5q-1 1 -1 3.5t-0.5 5t-0.5 5v3.5v2v1q0 4 1 8.5t1 8.5q0 2 -0.5 3t-2.5 1q-3 0 -7 -0.5t-6 -2.5
l-2.5 -2.5t-3 -2.5t-2.5 -2l-1 -1v-21q0 -1 -2 -1h-3q-3 0 -4 2t-1 5q0 12 2.5 18.5t6 9.5t8 4t8 0.5t6.5 -0.5q2 0 2 2v21q0 1 -4 1.5t-9 3t-8.5 7.5t-3.5 16zM75 119q0 -1 0.5 -2t1.5 -1q5 -1 9 -1t7.5 -0.5t7.5 -0.5h8h7q3 1 3.5 2t0.5 3q0 1 -1 3.5t-2 4.5t-3 3t-4 1
h-24q-2 0 -3.5 -1t-3.5 -3t-3 -4t-1 -4zM75 99v-2v-2q6 -4 12 -5.5t13 -1.5q4 0 8 0.5t6.5 2t4 4.5t1.5 8v2t-2 1h-40q-2 0 -2.5 -3t-0.5 -4zM163 35q-1 0 -3.5 1.5t-5 3.5t-5 3.5t-2.5 2.5q-1 0 -3.5 2t-3.5 3q-1 0 -2.5 1.5l-2.5 2.5l-2 2l-1 1v4h5q2 -3 6 -6l8 -6
t8.5 -5.5t7.5 -2.5q4 0 8 2t8.5 5.5t8 6.5t5.5 6h1q3 0 4.5 -2t1.5 -4q0 -4 -3 -6.5t-7.5 -4.5t-8.5 -3.5t-7 -3.5t-4.5 -6.5t-2.5 -8.5t-1.5 -7.5t-1.5 -3.5h-0.5h-0.5q-1 1 -2.5 2t-1.5 2v19z" />
</svg>
