<?xml version="1.0" standalone="no"?>
<!DOCTYPE svg PUBLIC "-//W3C//DTD SVG 1.1//EN" "http://www.w3.org/Graphics/SVG/1.1/DTD/svg11.dtd" >
<svg xmlns="http://www.w3.org/2000/svg" xmlns:xlink="http://www.w3.org/1999/xlink" version="1.1" viewBox="-10 0 266 256">
   <path fill="currentColor"
d="M72 150l-22 4q-1 3 -0.5 4.5t5.5 3.5q14 1 33.5 1.5t45.5 0.5q25 0 44 -1t30 -4q0 -3 -2 -5t-6.5 -3t-10 -1h-12.5h-105zM73 208l-22 4q-1 3 -0.5 4.5t5.5 3.5q14 1 33.5 2t45.5 1q52 0 75 -5q0 -6 -9.5 -8t-22.5 -2h-105zM68 48l-22 4q-1 3 -0.5 4.5t5.5 3.5
q14 2 33.5 2.5t45.5 0.5q52 0 75 -5q0 -3 -2.5 -5t-7 -3t-10.5 -1.5t-12 -0.5h-105zM70 94l-21 3q-2 3 -1 4.5t6 4.5q13 1 32.5 1.5t45.5 0.5q27 0 45.5 -1t29.5 -4q0 -3 -2.5 -5t-6.5 -3t-10 -1h-13h-105z" />
</svg>
