<?xml version="1.0" standalone="no"?>
<!DOCTYPE svg PUBLIC "-//W3C//DTD SVG 1.1//EN" "http://www.w3.org/Graphics/SVG/1.1/DTD/svg11.dtd" >
<svg xmlns="http://www.w3.org/2000/svg" xmlns:xlink="http://www.w3.org/1999/xlink" version="1.1" viewBox="-10 0 266 256">
   <path fill="currentColor"
d="M158 208v5.5v9.5v9.5v6.5v2t0.5 4t2 4t3.5 2t3 -2t2 -4.5t1 -5.5v-4v-8.5t-1 -7.5t-1.5 -8t-1.5 -9q-1 -2 -3 -4.5t-3 -3.5q-1 0 -4.5 -2t-7 -4.5t-7 -4.5t-4.5 -2l-1 -2v-21l0.5 -0.5l0.5 -0.5q3 -2 8.5 -2.5l11 -1t9.5 -1.5t4 -3t-2.5 -3t-3.5 -1q-5 0 -9.5 0.5
t-8.5 0.5q-5 0 -7 -1.5t-2.5 -4t-0.5 -5.5t-1 -5.5t-3 -4t-8 -1.5h-5.5t-9.5 1t-9 2t-4 4v0l1.5 1.5l0.5 0.5h25q3 0 4 2t1 4t-0.5 4t-2.5 3t-7 1.5t-10.5 1t-10.5 1.5t-7 1l-1.5 0.5t-2.5 0.5v1q0 1 1 2.5t2 2.5q8 0 16 -2t16 -2h6l1 1v1q0 1 -0.5 3.5t-1 5.5t-1 5t-0.5 3
v1q0 5 2 8.5t5 6t7 4.5t7.5 4t6.5 4.5t5 6.5zM60 179q0 1 1.5 2t3.5 1h0.5h0.5l8 -7q0 -2 0.5 -7.5t1 -12t1 -12t0.5 -7.5q0 -5 2 -8.5t5 -6.5q5 -3 11 -4.5t10 -4.5h49l2.5 0.5t5.5 1.5t6 1.5t5 1.5q1 0 2 0.5l1 0.5q1 1 1.5 4.5t1 7.5t1 7.5t1.5 4.5l1 2l1 2v29q0 1 1.5 1
h2.5q2 0 4 -1t2 -3v-2.5v-3.5v-4v-2q0 -20 -2.5 -31t-9 -16.5t-18 -6.5t-30.5 -1h-18t-19.5 2t-17 7t-10.5 15l-0.5 1.5t-0.5 3.5t-0.5 3.5l-0.5 1.5q-2 9 -4 19.5t-2 20.5zM98 84q1 2 4 3t6.5 2t6.5 1h5h13t13 -1.5t10 -5t4 -11.5q0 -3 -0.5 -6t-1.5 -6t-3 -4.5t-6 -1.5h-3
t-7.5 -0.5t-8.5 -0.5h-7h-1q-14 0 -19 5t-5 18v4v4zM105 73q0 -6 3.5 -8.5t8 -3.5t9.5 -1h9h4.5h5.5q3 1 3.5 3t0.5 4v3v4t-0.5 3.5l-0.5 1.5l-3 2h-2.5t-5.5 0.5t-6.5 0.5h-5.5l-2 0.5t-3 0.5q-6 0 -10.5 -1.5t-4.5 -8.5zM124 24q0 3 -5.5 5.5t-13.5 4.5t-17 4t-17 4
t-13.5 5.5t-5.5 8.5q8 0 17.5 -2.5t19 -6.5t18.5 -7.5t18 -4.5l2 -0.5t3 -0.5q6 0 13 2t14.5 4.5t14 5t12.5 5.5q2 1 3.5 3t5.5 2q1 0 2.5 -0.5t3 -0.5t2.5 -1t1 -2q0 -3 -6.5 -6t-14 -6t-15 -4.5t-9.5 -2.5q-2 0 -4.5 -1t-5.5 -2l-6 -2t-4 -1q-3 -2 -3 -4.5v-5t-1 -4.5
t-6 -2h-3t-2 2q0 3 1 6t1 5z" />
</svg>
