<?xml version="1.0" standalone="no"?>
<!DOCTYPE svg PUBLIC "-//W3C//DTD SVG 1.1//EN" "http://www.w3.org/Graphics/SVG/1.1/DTD/svg11.dtd" >
<svg xmlns="http://www.w3.org/2000/svg" xmlns:xlink="http://www.w3.org/1999/xlink" version="1.1" viewBox="-10 0 266 256">
   <path fill="currentColor"
d="M48 237q0 2 2.5 5t4.5 3q1 0 5 -1t5 -1h119q1 0 2 1l1 1q1 0 3 -1t4 -3l3.5 -3.5t1.5 -2.5q-1 -3 -3 -4t-4 -1.5t-5 -0.5h-3q-18 0 -35 1t-35 1h-43q-1 0 -2.5 -0.5t-3.5 -0.5t-4 -0.5t-3 -0.5h-1q-9 0 -9 8zM128 151h-10.5t-11 0.5t-10 2t-7.5 6.5q-1 1 -2 3l-2 4
t-2 3.5l-1 1.5v27l1 1.5t2 4t2 4.5l2 4q1 1 2.5 2t3.5 1.5t3.5 0.5h1.5q1 0 3.5 0.5t5.5 0.5h5h3q10 0 17.5 -0.5t17.5 -3.5q7 -6 9 -13.5t2 -16.5q0 -11 -2 -17.5t-6 -10t-11 -4.5t-16 -1zM92 187h53q2 0 4.5 2.5t2.5 3.5q0 6 -3.5 9t-9 4.5t-11 2t-8.5 0.5q-1 0 -5.5 -1
t-9.5 -2t-9 -2.5t-4 -2.5v-14zM92 172q-1 -4 3.5 -6.5t10 -3.5t11 -1.5t7.5 -0.5h8t9.5 0.5t7.5 2.5t3 7v1v2.5t-0.5 2.5t-1.5 1h-51q-1 0 -2 -0.5t-2 -1.5l-2 -2zM68 98q0 10 0.5 17.5t3.5 12.5t8.5 8t14.5 5h4h6h6h4h12h11.5t11.5 -0.5t13 -0.5q1 0 2.5 -1t2.5 -1
q8 -5 11.5 -9.5t4.5 -10t1 -12t2 -14.5l-1 -2q1 -11 -1.5 -17t-8 -8.5t-12.5 -3t-14 -3.5h-4h-6h-6h-4h-6h-6h-5.5h-2.5q-1 0 -4 1t-6.5 1.5t-7 1.5t-5.5 2q-6 1 -10 4.5t-6 7.5t-2.5 9.5t-0.5 12.5zM79 100q0 -13 4 -20t10.5 -9.5t16 -2.5h20.5h20q11 0 19 4q4 7 5.5 15.5
t1.5 16.5q0 12 -6 18t-14.5 8t-18.5 1.5t-18 -0.5h-5h-6.5h-6.5h-4q-6 -1 -9.5 -4t-5.5 -7t-2.5 -9.5t-0.5 -10.5zM100 100q0 7 2.5 10.5t7 4.5t9.5 1h10h15q6 -2 8 -7t3 -12q0 -5 -2 -8t-5.5 -4.5t-8 -2t-7.5 -0.5h-12q-5 0 -9.5 1.5t-7.5 5.5t-3 11zM108 97q0 -2 1.5 -4.5
t3.5 -2.5h28q1 0 1.5 1t1 2.5t0.5 2.5v2q0 4 -2.5 6.5t-6.5 3t-8 0t-7 -0.5q-5 0 -8.5 -2.5t-3.5 -7.5zM50 47q0 4 2.5 5.5t5.5 1.5t7 -1.5t7.5 -3t7 -2.5t6.5 -2q12 -3 25 -6.5t26 -3.5q10 0 20.5 1.5t20.5 5.5q2 0 5.5 1.5t7.5 3.5t7.5 3.5t6.5 1.5q1 0 3 -1.5t2 -3.5
q0 -5 -2 -7.5t-6 -3.5q-2 0 -7.5 -1.5t-12 -2.5t-12 -2.5t-7.5 -1.5q-1 0 -4.5 -0.5t-8 -0.5t-7.5 -1t-4 -1q-2 -4 -2.5 -6.5t-1.5 -4.5t-3.5 -3.5t-7.5 -1.5h-2.5t-1.5 2v3.5v5.5t-0.5 5.5t-1.5 4.5q-3 0 -10.5 1t-15.5 2.5t-15.5 3t-10.5 1.5l-2.5 0.5t-4.5 1l-4 1t-3 1.5
t-1.5 2t-0.5 3z" />
</svg>
