<?xml version="1.0" standalone="no"?>
<!DOCTYPE svg PUBLIC "-//W3C//DTD SVG 1.1//EN" "http://www.w3.org/Graphics/SVG/1.1/DTD/svg11.dtd" >
<svg xmlns="http://www.w3.org/2000/svg" xmlns:xlink="http://www.w3.org/1999/xlink" version="1.1" viewBox="-10 0 266 256">
   <path fill="currentColor"
d="M130 246q1 2 2 2.5t3 0.5t3.5 -0.5t2.5 -2.5v-6q0 -22 -1.5 -43t-1.5 -43v-8v-11.5v-12.5v-7q2 -7 5.5 -11t8.5 -7t10.5 -5.5t10 -5.5t7.5 -8t3 -12q0 -9 -5 -14t-12.5 -7.5t-16 -3.5t-16.5 -2q-10 -1 -14.5 -5.5t-6.5 -9.5t-2.5 -8.5t-3.5 -3.5t-4 2t-1 5t1.5 6.5
t3.5 6.5t3.5 6.5t1.5 6.5q0 4 -3.5 8t-9.5 7.5t-12.5 7t-12.5 7t-9.5 7t-3.5 6.5q9 0 18 -4t16.5 -9.5t15 -12t14.5 -11.5q2 -2 4 -1.5t5 0.5h12t13 1.5t10 5t4 10.5q0 4 -1 6.5t-4 6.5q-5 3 -10.5 5t-11 5t-9.5 6.5t-6 9.5l-0.5 1.5t-0.5 2.5v6v8.5v9.5v6v7v9.5v8.5v4v9
v13.5t0.5 16t0.5 16v13.5v9zM74 228q0 3 2 4.5t4 1.5q3 0 4.5 -1.5t2.5 -3.5t2 -4.5t1 -3.5q1 -3 2 -6.5t2 -8t2 -7.5t1 -4t0.5 -4.5t0.5 -7.5v-8v-4q0 -1 0.5 -5t1.5 -8t1 -7.5v-4.5q1 0 1 -2v-4v-5v-5q0 -5 0.5 -10.5t0 -9.5t-3.5 -7t-10 -3q0 13 1 25t1 24
q0 17 -2.5 35.5t-9.5 34.5l-0.5 1.5t-1.5 3l-2 3zM170 159q4 10 5.5 20t3.5 20q1 2 2 7.5t2.5 11t2.5 10.5l1 5h1.5h2.5q4 0 5 -2.5t1 -5.5v-3v-1q0 -1 -1 -4t-2.5 -6.5t-3 -6t-1.5 -3.5q-5 -16 -7.5 -32t-2.5 -32q0 -9 1 -17.5t1 -17.5q0 -3 -0.5 -4.5t-3.5 -1.5
q-2 0 -3 0.5t-2 2.5q0 11 -1 21t-1 21v18z" />
</svg>
