<?xml version="1.0" standalone="no"?>
<!DOCTYPE svg PUBLIC "-//W3C//DTD SVG 1.1//EN" "http://www.w3.org/Graphics/SVG/1.1/DTD/svg11.dtd" >
<svg xmlns="http://www.w3.org/2000/svg" xmlns:xlink="http://www.w3.org/1999/xlink" version="1.1" viewBox="-10 0 266 256">
   <path fill="currentColor"
d="M155 247q0 2 2 3t4 1q4 0 5.5 -2t3.5 -6q-1 -17 0.5 -33t1.5 -33q0 -5 -1.5 -8.5t-1.5 -7.5q0 -7 2 -9.5t5 -4t7 -2t7.5 -2.5t6 -6t3.5 -12l0.5 -4t1 -9t1 -10.5t1.5 -8.5v-1v-4q0 -2 -1 -4.5t-2 -4.5t-4 -2t-5 3v13t-0.5 14.5t-2 14.5t-3.5 13q-3 1 -5 1.5t-5 0.5h-5
q-1 -8 -1 -15v-14.5t-0.5 -15t-3.5 -13.5q-2 -6 -6.5 -10l-9 -8t-8 -8.5t-3.5 -11.5q0 -6 2.5 -9.5t6.5 -5.5t8.5 -3t9.5 -1q8 0 14 5.5t6 14.5v2t-0.5 3.5t-0.5 3t-1 2.5l-14 14l-0.5 0.5l-0.5 0.5q0 2 1.5 2.5t3.5 0.5q4 0 8.5 -2.5t8 -6.5t6 -8.5t2.5 -8.5
q0 -7 -2.5 -12.5t-6.5 -9.5t-9.5 -6.5t-12.5 -2.5q-6 0 -13 2t-13 5t-10 8.5t-4 12.5q0 6 2 10t5.5 7.5t7.5 6t7.5 5.5t5.5 7t2 9v53l-1 0.5t-2 0.5q-3 0 -7 -1t-7.5 -3t-6 -5t-2.5 -7v-45l-1.5 -1.5t-2.5 -1.5h-1h-1l-1.5 0.5t-1.5 1.5q-1 6 -1.5 9.5t-0.5 9.5q0 11 1 20
t4 15.5t10.5 10t20.5 4.5l1 1v84q0 1 -0.5 2.5t-1 4t-1 4t-0.5 2.5v1zM102 243q0 2 1 2.5t2 0.5q3 0 5 -3t2 -6v-2q0 -1 -0.5 -5.5t-1 -9.5t-1 -9t-0.5 -5q-3 -26 -3.5 -51t-0.5 -51v-38q2 -10 3 -20t1 -20q0 -3 -1.5 -7.5t-5.5 -4.5q-10 0 -18 -1.5t-18 -1.5h-5h-5t-2 1.5
t-2 1.5v1v1q0 1 1 2.5l1 1.5h12v3t0.5 7t0.5 9v7q0 2 -0.5 6t-0.5 9.5t-0.5 11.5t-1 11.5t-1 9.5t-0.5 5v20q0 38 2 74q0 3 0.5 10.5l1 15t2 13.5t4.5 6t4 -2l2 -4t1 -5v-3q0 -9 -1.5 -17t-2.5 -16v-59v-60q0 -1 0.5 -4.5t0.5 -8t0.5 -8.5t0.5 -5v-6.5t0.5 -8.5t2.5 -7t6 -3
q8 0 10 4.5t2 12.5q0 19 -2 39t-2 40v8q0 5 0.5 11.5t0.5 11.5v8q2 10 2.5 21l1 22l1 22t1.5 22z" />
</svg>
