<?xml version="1.0" standalone="no"?>
<!DOCTYPE svg PUBLIC "-//W3C//DTD SVG 1.1//EN" "http://www.w3.org/Graphics/SVG/1.1/DTD/svg11.dtd" >
<svg xmlns="http://www.w3.org/2000/svg" xmlns:xlink="http://www.w3.org/1999/xlink" version="1.1" viewBox="-10 0 266 256">
   <path fill="currentColor"
d="M128 210q0 11 1.5 20.5t2.5 20.5h1h2q3 0 4.5 -2t1.5 -6q0 -10 -1.5 -20.5t-1.5 -21.5q0 -9 0.5 -18t4.5 -18h0.5h1.5t4 5.5t7 14.5t9 19t10 19t10 14.5t10 5.5q2 0 4.5 -1.5t2.5 -3.5q0 -1 -3 -4.5t-6 -7.5t-6 -7.5t-4 -5.5q-8 -13 -14.5 -26.5t-12.5 -28.5
q-1 -3 -1.5 -4t-1 -1.5t-0.5 -1v-2.5q0 -5 5 -9.5t11.5 -10t11.5 -13.5t5 -20v0q0 -1 -0.5 -3.5l-1 -5t-1.5 -4t-3 -1.5h-2t-1 1v4.5v7.5v6.5v4.5q-1 4 -3 8t-5.5 7t-7 5.5t-6.5 4.5h-1h-1q-2 0 -3.5 -1t-2.5 -3q0 -6 -1 -12t-2 -12.5t-1.5 -13t-0.5 -12.5v-3q0 -1 1 -2
l1 -1q11 -2 19.5 -3.5t14.5 -6t9.5 -11.5t3.5 -20v-10q-6 1 -7.5 4t-2 7.5t-1 9.5t-3.5 9.5t-9.5 7t-20.5 2.5h-2t-2 -2q-1 -1 -1 -4v-5q0 -7 2 -13.5t2 -12.5v-4q0 -3 -3 -3t-4.5 4t-2 9.5t-1 10t-0.5 6.5v47q1 1 1.5 5.5t1.5 10t2 10.5t1 8q0 1 0.5 3.5t1 5.5t1 5.5
t0.5 3.5v3q0 2 -1 4.5t-3 5t-3.5 4.5t-1.5 3q-4 11 -5.5 22t-1.5 23zM94 200q1 2 1.5 9.5t1.5 16.5t2.5 16t3.5 7t4.5 -2t2.5 -4v-2v-1q0 -2 -0.5 -7t-1 -11t-1 -11t-0.5 -7q-3 -6 -3 -11v-12q0 -2 -0.5 -7.5t-0.5 -12t-0.5 -12t-0.5 -7.5v-21v-21q2 -4 2.5 -12t1 -16.5
t1 -16.5t0.5 -13v-9l-5 -2.5t-4 -1.5h-42q-1 0 -1.5 1t-0.5 2v1q0 2 2 2h5t5 1t2 6t-1 11t-2.5 11.5t-3 11.5t-1.5 12v6v9v10v6q0 14 -1.5 28t-1.5 28v7.5t0.5 12t1.5 14t2 13.5t3 9.5t4 3.5q3 0 4.5 -3t1.5 -5v-1l-0.5 -2t-1 -3.5l-1 -3t-0.5 -2.5q-3 -16 -3 -33v-33
q0 -6 0.5 -11.5t1.5 -10.5q0 -4 0.5 -13t1 -19t0.5 -19.5t1 -12.5q0 -2 0.5 -5.5t1.5 -7.5t1.5 -7t2.5 -5q1 0 2.5 -0.5t3.5 -0.5t4 -0.5l2 -0.5h3q1 0 4 1t3 3v1q-1 1 -1.5 2.5t-0.5 2.5q-3 19 -4.5 39t-1.5 39v1v0v1.5t0.5 2.5t0.5 2v2v1t-0.5 2.5t-0.5 2.5v2v0.5v0.5v0.5
v1.5v2t0.5 4.5t0.5 4.5v3v42z" />
</svg>
