<?xml version="1.0" standalone="no"?>
<!DOCTYPE svg PUBLIC "-//W3C//DTD SVG 1.1//EN" "http://www.w3.org/Graphics/SVG/1.1/DTD/svg11.dtd" >
<svg xmlns="http://www.w3.org/2000/svg" xmlns:xlink="http://www.w3.org/1999/xlink" version="1.1" viewBox="-10 0 266 256">
   <path fill="currentColor"
d="M146 218v2t0.5 4.5t0.5 5v3.5q1 2 1 5t1 5.5t3 5t5 2.5q1 0 1.5 -1.5t0.5 -3v-3v-1.5q0 -13 -2.5 -25.5t-2.5 -25.5q0 -10 0.5 -21t2.5 -21h0.5h1.5q4 0 7 4.5t6 9.5t6.5 9.5t7.5 4.5q2 0 3.5 -1t1.5 -3q0 -4 -4.5 -9.5t-10 -12t-10 -12.5t-4.5 -11t3 -9.5l6 -9t6 -8
t3 -5.5t-1.5 -3.5t-3.5 -1.5q-4 0 -5.5 3t-3 6.5t-3 6.5t-4.5 3q-4 -6 -5.5 -13t-1.5 -14v-3q0 -1 2 -2q11 -1 20.5 -2t21.5 -1q1 0 2 -1.5l1 -1.5l0.5 -0.5l0.5 -0.5l-0.5 -0.5l-0.5 -0.5q0 -1 -1 -2t-2 -1h-3h-4q-7 0 -13.5 1t-12.5 1h-8q0 -1 -1.5 -1.5l-1.5 -0.5v-12
q0 -1 3 -1.5t7 -1t9 -1t9 -2t7 -4.5t3 -8q0 -4 -1 -8.5t-6 -6.5q-2 -1 -3 2.5t-1.5 7.5t-1.5 8t-3 4h-17q-2 0 -2.5 -2t-0.5 -4q0 -5 1.5 -9.5t1.5 -9.5q0 -2 -1.5 -5t-3.5 -3q-3 0 -4 4.5t-1.5 10t-0.5 10.5v6q0 3 0.5 5.5t0.5 5.5q0 1 -0.5 3.5t-1 5.5t-1 5.5l-0.5 2.5
h-10.5t-9 1t-8.5 2t-10 2v-28q1 0 1.5 -2t0.5 -3v-1q0 -5 -5.5 -8.5t-13.5 -6.5t-15.5 -4t-11.5 -1q-3 0 -5.5 0.5t-2.5 3.5q0 1 0.5 1.5l0.5 0.5l14 4q2 0 2 1v2v1v1q-1 2 -2 8t-2.5 12.5t-2.5 12t-1 8.5v2v4v4v3q-1 0 -1.5 1.5l-0.5 1.5q0 1 -1 3.5t-1 3.5q-2 22 -4 44.5
t-2 45.5v8t0.5 8t0.5 8.5t1 10.5h2q3 0 5 -3t2 -6q-1 -34 1.5 -67.5t6.5 -66.5q2 -11 3 -23.5t4 -22.5q1 -2 3 -2h4h2t4 0.5t3.5 1.5t1.5 3v62l-1.5 6t-0.5 5t1 6.5t1 6.5q0 18 -1.5 35.5t-1.5 34.5q0 11 -0.5 23t1.5 23q0 1 1.5 3t2.5 2q2 0 3 -2t1 -3v-135l2 -23
q0 -1 4.5 -2.5t10.5 -2t11 -1t7 -0.5q4 0 6 3.5t3 9t1 11t1 9.5l1 2t2 3.5t1.5 3.5l0.5 2v2v3v3v2l-0.5 2.5t-1.5 5t-2 4.5t-1 3q-2 9 -1.5 19t-0.5 20v6t-0.5 10.5t-0.5 10.5v6z" />
</svg>
