<?xml version="1.0" standalone="no"?>
<!DOCTYPE svg PUBLIC "-//W3C//DTD SVG 1.1//EN" "http://www.w3.org/Graphics/SVG/1.1/DTD/svg11.dtd" >
<svg xmlns="http://www.w3.org/2000/svg" xmlns:xlink="http://www.w3.org/1999/xlink" version="1.1" viewBox="-10 0 266 256">
   <path fill="currentColor"
d="M89 245q1 2 2 2.5t3 0.5q3 0 5 -1.5t3 -3.5q0 -30 1 -60.5t1 -61.5q0 -3 -1 -6t-1 -6q0 -14 1 -28.5t1 -28.5v-8t-0.5 -6t-0.5 -6.5t-1 -8.5q-1 -3 -5 -4t-9 -1h-10h-8q-2 0 -5.5 -0.5t-6.5 0t-5.5 1.5t-2.5 4v2t1 2h15l2 3v3v4q0 12 -1 23t-2 23q-3 36 -4.5 72t-4.5 72
v4q0 1 0.5 2.5t1 3.5t1.5 3t2 0q1 0 2 -1t2 -2.5t2 -2.5t1 -2q2 -14 1.5 -27t-0.5 -28q1 -18 3 -36.5t3.5 -36.5t2.5 -36.5t0 -36.5q0 -4 3.5 -4.5t6.5 -0.5q2 0 5 0.5t3 4.5l-1 148v5q0 8 -1 15.5l-2 15l-2 15t-1 15.5zM130 214q3 3 6.5 5.5t7.5 3.5t8.5 1.5t8.5 0.5
q5 0 11.5 0.5t12.5 0t10.5 -3.5t4.5 -10l0.5 -3t0.5 -6.5t0.5 -7t0.5 -5.5v-2q0 -12 -1 -21.5t-1 -20.5q0 -5 -5 -5q-4 0 -4.5 2.5t-0.5 5.5q0 1 0.5 2.5t0.5 2.5l0.5 2t0.5 3q0 2 -0.5 5t-4.5 3h-47l-4 -20l-1 -1.5t-2 -1.5q-1 -1 -2.5 0t-1.5 2v34q-2 3 -2 4.5v4.5
q0 6 1.5 12t1.5 13zM138 189v-5v-4l4 -3h50v27q0 3 -2 5t-4.5 3t-6 1t-5.5 1h-3t-6.5 0.5t-7 0.5h-6.5h-1q-5 0 -7.5 -3t-3.5 -7t-1 -8.5v-7.5zM124 124q3 5 8.5 7t11.5 2.5t12 0.5h11h8t6.5 -0.5t7.5 -1t8 -1.5q4 -3 6.5 -7.5t2.5 -9.5v-7t-0.5 -8t-2 -7.5t-4.5 -5.5h-21
h-20h-2.5t-5 0.5t-4 1.5t-1.5 3v1.5t1 1.5h46q1 0 1.5 0.5t0.5 1t0.5 2.5t1.5 3v0v1q0 1 -0.5 3.5t-0.5 4.5t-0.5 4.5l-0.5 2.5q-2 2 -4 3.5t-4 3.5q-9 1 -15.5 1.5t-14.5 0.5q-6 0 -11 -1t-8 -3.5t-5 -6.5t-2 -11q0 -10 1 -17.5t4.5 -12.5t10 -7t17.5 -3q9 0 16 0.5
t12.5 -1t8 -6t2.5 -15.5v-6.5t-1 -6.5t-3 -5t-6 -3h-2h-3.5h-3.5h-2h-6.5t-11 0.5l-13 1t-12.5 1.5t-9.5 2.5t-3.5 3.5t1.5 2.5t3.5 0.5h2q2 0 9 -0.5t15.5 -1t15.5 -1t9 -0.5q0 -1 1 -1h1q2 0 5 0.5t4 3.5q1 1 1 3v3v6t-2 6q-9 3 -18 4t-16.5 1.5t-14 2.5t-11 6t-7 11.5
t-2.5 20.5v13.5t2 13.5z" />
</svg>
