<?xml version="1.0" standalone="no"?>
<!DOCTYPE svg PUBLIC "-//W3C//DTD SVG 1.1//EN" "http://www.w3.org/Graphics/SVG/1.1/DTD/svg11.dtd" >
<svg xmlns="http://www.w3.org/2000/svg" xmlns:xlink="http://www.w3.org/1999/xlink" version="1.1" viewBox="-10 0 266 256">
   <path fill="currentColor"
d="M91 154v91q0 1 0.5 3.5t2.5 2.5q3 0 4 -2.5t2 -3.5v-3v-4.5v-4.5v-3q0 -19 -1.5 -38t-1.5 -38v-7v-11.5t0.5 -13.5t0.5 -14v-12v-6v-27v-28q0 -4 -1.5 -6.5t-3.5 -3.5t-6 -1h-7h-7t-10 0.5t-9 1.5t-4 5q0 1 0.5 2.5t2.5 1.5h12q0 6 0.5 11.5t0.5 10.5q0 6 -0.5 11.5
t-3.5 10.5q1 17 0 33t-1 32v5t1 5v83l0.5 1t1.5 2l0.5 0.5t1.5 0.5q2 0 4 -2.5t2 -3.5v-123q1 -8 1 -17.5t0.5 -18.5t0 -18t-0.5 -16q0 -5 4 -6.5t7 -1.5t4 1l3 3v11q0 13 -1 25t-1 25q0 7 1 14t1 14v0q0 1 -0.5 3.5t-1 5.5t-0.5 5.5v2.5v2v0q0 1 0.5 4t1.5 4zM158 187v1v12
t0.5 17.5t0.5 18v12.5h2h1q3 0 5 -2.5t2 -5.5v-74q-2 -2 -2 -6v-6v-5v-6.5t0.5 -6.5t1 -4.5t3 -3.5t5 -4.5t5.5 -4t5 -1.5q3 0 4.5 3.5t2.5 5.5q0 1 0.5 3t1.5 4.5t1.5 4.5l0.5 2q1 0 1.5 0.5t1.5 0.5q3 0 4 -2.5t1 -5.5v-3q0 -1 0 -0.5t-0.5 0t-0.5 -3.5q-1 0 -1.5 -3
t-1.5 -6.5t-1.5 -6.5t-0.5 -4l-1.5 -2t-1.5 -3q-3 -13 -2.5 -28t0.5 -29q0 -5 1 -10.5t1 -10.5q0 -2 -1.5 -5.5t-4.5 -3.5h-1l-2 2t-2 3v15q0 3 -0.5 7t-1 7l-0.5 3l-1 2q-1 0 -4 -1.5t-7 -4t-7 -3.5l-4 -3v-16t-2 -16q0 -2 -0.5 -2.5t-2.5 -0.5t-3 2t-1.5 4t-0.5 4.5v3.5
q0 5 1 9.5t1 8.5q0 3 -2.5 5.5t-6 4.5t-7 3t-5.5 1h-2v-1q-1 0 -1.5 -2.5t-0.5 -3.5t-0.5 -4.5t-0.5 -7t-0.5 -7t-0.5 -4.5t-2 -2.5t-2 -2.5h-1q-3 0 -3.5 2t-0.5 4q0 4 1.5 8t1.5 8v5.5v7.5v8v5v13v11.5t-0.5 11t-0.5 11.5q-1 3 -2 7.5t-2.5 9t-2.5 8.5t-1 6v0q0 1 1 2l2 2
h1q3 0 5 -2.5t3 -5.5t1.5 -6t0.5 -5q0 -1 0.5 -3l1 -4l1 -4t0.5 -3l1.5 -1.5t1.5 -0.5h2q2 2 6 4.5t8.5 5t7.5 6t4 6.5v10.5t-0.5 15.5t-0.5 15.5v10.5v0zM130 99q0 -1 -0.5 -4t-0.5 -6.5t-0.5 -6.5t-0.5 -5v-1v-2q0 -1 0.5 -4t1.5 -4q1 0 4 -2t7 -4.5t7.5 -4.5t4.5 -3
q2 -1 2.5 -1h2.5q4 0 8 2.5t7 5.5q2 1 6 2.5t5 3.5q2 2 2.5 7t1 11t1 11t0.5 8q0 1 -4 4t-8.5 6.5t-9 6t-6.5 2.5q-3 0 -7.5 -2.5t-9.5 -6.5t-9 -7.5t-5 -5.5z" />
</svg>
