<?xml version="1.0" standalone="no"?>
<!DOCTYPE svg PUBLIC "-//W3C//DTD SVG 1.1//EN" "http://www.w3.org/Graphics/SVG/1.1/DTD/svg11.dtd" >
<svg xmlns="http://www.w3.org/2000/svg" xmlns:xlink="http://www.w3.org/1999/xlink" version="1.1" viewBox="-10 0 266 256">
   <path fill="currentColor"
d="M86 131v115q0 1 1.5 3.5t3.5 1.5q1 0 3 -2t2 -3v-2v-4v-4v-2v-13.5t-2 -13.5l2 -1h120q1 0 2 -1.5t2 -2.5v-1v-1q-1 0 -2 -0.5t-2 -1.5h-8t-12.5 -0.5t-12.5 -0.5h-8h-3h-4h-4h-2v-3.5t-0.5 -5.5t-0.5 -5v-4q1 -8 6.5 -12t12.5 -7t12 -7.5t5 -14.5q0 -6 -3 -10.5t-7 -8
l-8 -7t-7 -7.5q-2 -3 -3.5 -7.5t-2.5 -9.5t-1 -9.5v-8.5v-1l0.5 -0.5l0.5 -0.5h6q7 0 14 1t14 1h5q5 0 6 -1q2 0 2 -1v-3q0 -3 -3 -4.5t-6.5 -2t-6.5 0t-5 0.5q-3 0 -7 -0.5t-7.5 -0.5t-6.5 -0.5l-3 -0.5l-2 -3l4 -31h31q1 0 1 -2.5v-2.5q0 -4 -2.5 -5.5t-6.5 -1.5h-1
q-3 1 -11.5 1.5t-18 1t-18.5 1t-12 0.5q-1 0 -4.5 1.5t-6.5 3t-5.5 3.5t-2.5 4v94q0 5 6 7.5t13.5 4t14.5 2t9 0.5h7q1 -1 1.5 -2t0.5 -2q0 -2 -3 -3t-8 -1.5t-10.5 -1t-10.5 -1.5t-8 -3t-3 -5v-44l3 -4h29l4 4v4.5t0.5 7.5t0.5 7.5t1 4.5v2.5t0.5 5l1 5t1.5 3.5q3 4 7 6
t8 4.5t6.5 5t2.5 8.5q0 7 -4 11.5t-9.5 8l-11 7t-8.5 9.5q-1 3 -1 6.5v7.5q0 3 -1 6t-5 5q-7 -1 -13 -0.5t-11.5 1t-11 0.5h-12.5h-1q-1 0 -2.5 -1.5l-1.5 -1.5v-127q1 -1 1 -3.5t0.5 -5.5t0.5 -5.5v-3.5q0 -2 -0.5 -6.5t-1 -10t-1 -10t-0.5 -6.5l-3.5 -3.5t-3.5 -2.5h-41
q-3 0 -6 2t-3 5t1.5 3.5t3.5 0.5h5q2 0 4 2v20q0 23 -1 45.5t-1 45.5q-1 3 -1.5 5.5t-0.5 5.5t1 5.5t1 5.5v1q0 1 -0.5 3l-0.5 2v78q0 1 2.5 2l2.5 1v0h1q2 -1 3.5 -3t1.5 -4v-2v-5t-0.5 -9.5t-0.5 -9.5v-5v-2q0 -27 1.5 -55.5t1.5 -54.5v-7v-14t0.5 -17t1 -16.5t1.5 -12.5
t2 -5h17l2 2l0.5 1.5t1 4t0.5 4.5v4v21q0 13 -1 25t-1 25v11t2 11zM124 57q-2 -1 -3 -2.5t-1 -3.5q0 -16 7 -22.5t23 -6.5q2 0 5 0.5t5 2.5v11q0 5 -0.5 12t-3.5 11h-7h-6t-6 -0.5t-6 -0.5t-7 -1z" />
</svg>
