<?xml version="1.0" standalone="no"?>
<!DOCTYPE svg PUBLIC "-//W3C//DTD SVG 1.1//EN" "http://www.w3.org/Graphics/SVG/1.1/DTD/svg11.dtd" >
<svg xmlns="http://www.w3.org/2000/svg" xmlns:xlink="http://www.w3.org/1999/xlink" version="1.1" viewBox="-10 0 266 256">
   <path fill="currentColor"
d="M128 242q0 2 2 5t4 3q4 0 6 -3.5t2.5 -8t0.5 -8.5v-6q0 -8 -2 -17t-2 -17q0 -2 2 -3.5t4 -2.5t4.5 -1.5t4.5 -0.5q1 0 2.5 0.5t0.5 3.5q1 1 1 5t0.5 8t0.5 8v5v3v7v6v4q0 3 2 5.5t5 2.5q4 0 5 -3t1 -7q0 -11 -2.5 -21.5t-2.5 -21.5q0 -4 2 -5t6 -1q6 0 8.5 4t3.5 10t1 14
v13t1.5 10.5t5.5 4.5q3 0 5 -3t2 -6v-1q0 -1 -0.5 -3l-1 -4l-1 -4t-0.5 -3q-3 -14 -3 -29t-2 -30q-2 -11 -3 -23t-1 -24q1 -3 -0.5 -3.5t-3.5 -0.5t-2.5 1t-1.5 4v4.5v5.5v6v4q0 2 -1.5 3.5t-4 2l-5 1t-3.5 0.5q-2 0 -3 -0.5t-1 -3.5v-30q-2 0 -5 0.5t-3 3.5v28q0 1 -1 2
t-2.5 1t-3 0.5l-1.5 0.5q-4 0 -6.5 -3t-2.5 -7q0 -6 1 -11t1 -11v-4t-1 -5t-2.5 -4t-3.5 -2q-3 0 -5 4v11q0 5 1 10.5t1 11.5v6q-1 2 -3 3t-4 1q-5 0 -6.5 -4.5t-1.5 -10.5q0 -5 -0.5 -11t-4.5 -9l-3 3v30l-2 3h-3q-3 0 -5.5 -0.5t-4.5 -2.5v-4v-7v-6v-4q0 -3 -2 -6t-5 -3
v12.5t-0.5 20t-0.5 20v13.5q0 1 -0.5 5.5t-1 8.5l-1 8t-0.5 6q-1 1 -2.5 6t-3 11.5t-2.5 12t-1 7.5v3v3l4 1l1 -0.5t2 -1.5t2 -2.5l1 -1.5q2 -4 3.5 -12t3 -15.5t4.5 -13t8 -5.5q6 0 6 5t-1.5 10t-3 10.5t-2.5 10.5t-1 9q0 2 0.5 4t3.5 2q4 0 5.5 -4t2.5 -10.5t1 -13.5
t1 -13t3.5 -10t6.5 -4h3h2q1 1 1.5 2t0.5 2v0v1v9t-0.5 13t-1 13.5t-0.5 9.5l-0.5 2t-0.5 3zM103 146q3 1 4.5 4t2 7t0.5 8v4q0 4 -1 6.5t-2.5 3.5t-4 1h-6.5v-29q0 -2 2.5 -3.5t4.5 -1.5zM122 144q1 0 2.5 0.5l3 1t2.5 1t1 1.5v26q0 2 -1 2.5l-2 1t-3 0.5h-1q-2 0 -5 -0.5
t-3 -3.5v-26q0 -2 2.5 -3t3.5 -1zM139 144h7q4 0 6 1t3.5 3t1.5 6q0 1 -0.5 3.5t-0.5 3.5v2.5v3.5v3.5v1.5q-3 2 -6 3t-6 1q-1 0 -3 -0.5t-2 -3.5v-28zM166 157v-5v-4q1 -4 3.5 -4.5t5.5 -0.5q4 0 6 2t2.5 5.5t0.5 7v6.5v4v1l-4 3h-11q-2 0 -2.5 -2t-1 -5t0 -5.5zM47 112
q0 2 1.5 3.5t3.5 1.5q4 0 7 -2.5t5.5 -5.5t4.5 -6.5t4 -5.5q1 -1 3.5 -4t5.5 -6.5t5.5 -6.5t4.5 -4q3 -1 4.5 -2t2 -3l1 -4t1.5 -4q2 -3 6 -8.5t9 -11.5t9.5 -10.5t7.5 -4.5h1q4 3 6.5 5.5l5 5t4.5 5t4 5.5q0 1 1 2.5t2 3.5t2.5 4l1.5 2q1 2 3.5 3.5t4.5 3t4.5 3t3.5 3.5
q2 2 5.5 7.5t7.5 10.5t8 9t7 4t4 -2t1 -5q0 -4 -3.5 -8.5t-6.5 -7.5l-5.5 -5.5l-9.5 -9.5l-9 -9l-5 -5q-3 -3 -8.5 -9.5t-11 -13.5t-10.5 -12.5t-7 -5.5l-1.5 -0.5t-2.5 -0.5l-2 0.5l-2 0.5q-1 1 -4 5l-6 8t-5.5 7.5t-4.5 5.5q-1 2 -2.5 3.5l-2.5 2.5t-1.5 2.5l-1.5 4.5
q-1 1 -3.5 4.5t-5.5 7t-5.5 7t-3.5 4.5l-1.5 2t-1.5 3q-2 2 -6 6.5t-9 9.5l-9 9l-6 6v0.5v1.5zM160 67h-3h-4h-4h-3l-1.5 0.5t-3.5 0.5t-3.5 0.5l-1.5 0.5q-4 0 -10.5 -0.5t-12.5 0.5t-10.5 3.5t-4.5 8.5h9t12.5 -0.5t14 -1t13 -2t9.5 -4t4 -6.5z" />
</svg>
