<?xml version="1.0" standalone="no"?>
<!DOCTYPE svg PUBLIC "-//W3C//DTD SVG 1.1//EN" "http://www.w3.org/Graphics/SVG/1.1/DTD/svg11.dtd" >
<svg xmlns="http://www.w3.org/2000/svg" xmlns:xlink="http://www.w3.org/1999/xlink" version="1.1" viewBox="-10 0 266 256">
   <path fill="currentColor"
d="M135 159q0 11 3 22.5t8.5 22t12.5 20t15 16.5l7.5 7.5t9.5 3.5q3 0 4.5 -0.5t1.5 -3.5q0 -6 -7 -9l-3.5 -3.5t-6 -5.5t-6 -5.5t-4.5 -3.5q-2 -2 -5 -5.5t-6 -8t-5 -8.5t-2 -8q0 -3 1.5 -6.5t4 -7t4.5 -7t3 -7.5q0 -2 0.5 -8t0.5 -13.5t1 -15t1.5 -14.5t2.5 -11t4 -4
t3.5 1.5t2.5 4t1.5 5t0.5 3.5q0 4 1 10.5t2 13.5t2 12.5t1 6.5v8.5v12.5t1.5 11t4.5 5t4 -1.5t1 -4.5q0 -21 -3.5 -43t-7.5 -42q-1 -3 -3 -7t-6 -4q-8 0 -11.5 2t-5 5t-1.5 7.5v10.5q0 1 -0.5 5t-1.5 8.5t-1.5 8.5t-0.5 5v10t-1 12t-3 11.5t-6 8.5l-2 -2q-1 -1 -1.5 -4
t-1 -6.5t-0.5 -6.5v-5q0 -13 1.5 -25.5t1.5 -24.5v-15q-2 -4 -3.5 -5t-5.5 -1q-6 0 -10.5 3t-7.5 7.5t-4.5 9.5t-3.5 11q0 2 -0.5 7.5t-1 11.5t-1 11.5t-0.5 7.5v1v2q0 2 0.5 6.5t0.5 8.5v7.5v3.5q1 3 1 4t2 1q1 0 2 -0.5t1 -1.5v-57q0 -2 2 -8t4.5 -12.5t5.5 -11t7 -4.5
q2 0 2.5 0.5t1.5 2.5v13q0 13 -1.5 24.5t-1.5 23.5zM91 127v73q0 3 0.5 10t2 14.5t3 13.5t3.5 7h1q3 0 3.5 -3t0.5 -5q0 -7 -1 -14.5l-2 -15l-2 -15t-1 -15.5l0.5 -2l0.5 -2v-0.5v-0.5v-0.5v-0.5l-0.5 -2t-0.5 -3v-71q0 -1 0.5 -3l0.5 -2v-4v-6v-6v-4t0.5 -7l1 -12l1 -12
t0.5 -7v-3v-2q0 -5 -4.5 -7t-11 -2.5t-13 0t-9.5 0.5h-4h-4t-4 1t-2 3q0 3 2 3.5t5 1t5 1t2 4.5v3q0 1 -0.5 4.5l-1 7l-1 7t-0.5 4.5q-2 28 -2.5 56t-0.5 56v10v7.5t0.5 11.5t0.5 11.5v7.5q1 1 1.5 3l0.5 2v1q0 2 -1 4t-1 4t1.5 4t4.5 2h1l2 -1t2 -2v-84v-1.5t-0.5 -3.5
t-0.5 -3.5v-2.5v-1v-2v-3t0.5 -6t0.5 -5.5v-3.5v-1v0v-2t-0.5 -2.5t-0.5 -2.5v-1v-2v-1q0 -1 0.5 -4t0.5 -4v-10.5t0.5 -16t0.5 -16t1 -10.5v-3.5v-5t0.5 -5t0.5 -3.5q2 -2 5 -2h5h3.5h3.5q1 1 2.5 3t1.5 3q0 9 -2 17.5t-2 16.5q-1 10 -1.5 20.5t-0.5 20.5v9.5t2 9.5z
M153 42q5 0 10 2t10.5 4.5t10 5.5t8.5 5l2 2t2.5 2l3 2t2.5 1q2 0 2.5 -2.5t0.5 -3.5q0 -5 -3.5 -8t-8.5 -5.5t-10.5 -4t-10.5 -3t-9 -3.5t-5 -4v-17q0 -3 -1 -4.5t-4 -1.5t-4.5 2.5t-1.5 4.5q0 4 1 8t1 9q0 1 -3 3t-8 4.5t-10.5 5t-10 5t-8 5.5t-3.5 6q0 2 2 2h4h1h1
q1 -1 3 -2.5t4.5 -3l5 -3t2.5 -2.5q5 -3 11.5 -7t12.5 -4z" />
</svg>
