<?xml version="1.0" standalone="no"?>
<!DOCTYPE svg PUBLIC "-//W3C//DTD SVG 1.1//EN" "http://www.w3.org/Graphics/SVG/1.1/DTD/svg11.dtd" >
<svg xmlns="http://www.w3.org/2000/svg" xmlns:xlink="http://www.w3.org/1999/xlink" version="1.1" viewBox="-10 0 266 256">
   <path fill="currentColor"
d="M189 177q0 1 0.5 5.5l1 9l1 9t1.5 5.5q0 4 0.5 11t2 14.5t4 12.5t6.5 5q6 0 6 -5q0 -9 -3.5 -18t-4.5 -18q-5 -26 -5.5 -53.5t0.5 -53.5q0 -1 -0.5 -2t-1.5 -1q0 -1 -0.5 -2l-0.5 -1h-27l-1 -2q0 -1 -0.5 -3t-0.5 -3v-6t2 -6q4 -1 10.5 -1t13.5 -1t12.5 -2.5t5.5 -5.5
q0 -2 -1 -2.5t-2.5 -1t-3.5 -0.5h-3q-12 0 -26 0.5t-25 4.5h-30q-1 0 -1 -2v-2q0 -6 1 -13.5t4 -13.5q2 -4 8 -6.5t14.5 -3.5t18 -1.5t17 -1t12.5 -1.5t5 -4t-1 -4t-4 -3h-1q-14 0 -28 2.5t-29 4.5q-4 2 -8 3.5t-8 4.5q-6 5 -8.5 15t-3.5 21t-1 21.5v16.5q0 2 -0.5 9
t-0.5 15t-0.5 15t-0.5 9v44v43q1 3 2.5 3.5t3.5 0.5q3 0 4 -1.5t1.5 -4t0.5 -5v-3.5q0 -19 -1 -37t-1 -37q0 -18 1.5 -36.5t0.5 -37.5h6.5t9.5 -0.5t10 -0.5h7q0 -1 1 -1h3q3 0 4.5 2.5t1.5 6.5q0 20 -1 41.5t-3 42.5h-1.5h-1.5q-3 0 -5 -2.5t-3 -5.5t-1.5 -6.5t-0.5 -5.5
v-6t-0.5 -10t-0.5 -10v-7q0 -1 -0.5 -4t-0.5 -6v-6v-4q-5 0 -6.5 1t-2.5 6v16v13t1 17t3 16.5t6 9.5l8 2t7 1t6 0.5t7 0.5q5 0 9 -1t8 -1v0v0q1 0 1.5 0.5t0.5 1.5zM86 244q0 1 0.5 1.5l0.5 0.5h4.5h4.5q0 -3 -0.5 -8t-1 -9.5t-1.5 -9t-2 -8.5q0 -2 -0.5 -7t-0.5 -10v-11v-7
v-9v-12q0 -5 0.5 -9.5t0.5 -5.5v-5.5t0.5 -10.5t0.5 -10.5v-6.5v-3v-3t0.5 -2.5l1.5 -4.5q0 -3 0.5 -11.5t1 -18t1 -18t0.5 -11.5l0.5 -2t0.5 -4t0.5 -3.5t0.5 -2.5q0 -3 -1 -4.5t-3 -2t-4.5 -1t-4.5 -0.5h-4t-7 -0.5t-8 -0.5h-6h-3h-3t-3.5 0.5t-2.5 2t-1 2.5q0 3 1.5 4
t4.5 1h5t4 -1l1 6q-1 7 -2 16t-2 19t-2 19.5t-2 17.5v8.5v12t-0.5 12t-2.5 8.5q-1 9 -1.5 16.5t-0.5 15v15.5v16v33q1 1 1.5 1h2.5q3 0 5 -3.5t3 -6.5q-1 -27 0.5 -53t4.5 -54q2 -22 2.5 -43.5t1.5 -43.5q1 -1 1.5 -4.5l0.5 -3.5q1 -3 3 -3.5t4 -0.5q4 0 6 2.5t2 6.5
q0 14 -1 28t-3 28.5t-3 28.5t-1 29v1.5t0.5 3t0.5 3v1.5v6q0 6 -0.5 12t-0.5 12q0 7 0.5 14.5t1 15.5t1.5 15.5t2 13.5zM169 163q1 -9 0 -17.5t-1 -18.5v-8.5t1 -9.5q2 -3 6 -4t7 -1q2 0 3.5 1.5t1.5 3.5q0 8 0.5 14t1 11.5t0.5 11.5v13v1q0 2 -0.5 4.5t-1.5 2.5h-16z
M136 47v1q1 1 2.5 2l1.5 1q1 0 2.5 0.5t3.5 0.5h4h3h10t14.5 -0.5t13 -2.5t5.5 -5q0 -2 -0.5 -3t-3.5 -1h-3h-8t-13 0.5t-13 1t-9 0.5l-2 0.5t-3.5 1t-3 1.5t-1.5 2z" />
</svg>
