<?xml version="1.0" standalone="no"?>
<!DOCTYPE svg PUBLIC "-//W3C//DTD SVG 1.1//EN" "http://www.w3.org/Graphics/SVG/1.1/DTD/svg11.dtd" >
<svg xmlns="http://www.w3.org/2000/svg" xmlns:xlink="http://www.w3.org/1999/xlink" version="1.1" viewBox="-10 0 266 256">
   <path fill="currentColor"
d="M90 110v129v3t1 4t2 3.5t3 1.5h1q1 0 2 -1.5l1 -1.5v-106q0 -1 0.5 -3.5t1 -6t0.5 -6v-3.5v-2q0 -25 -1 -49t-1 -48q0 -4 -3 -6t-7 -2.5t-8 -0.5h-6l-1.5 -0.5t-2.5 -1t-2 -1.5l-1 -1q-1 0 -4 1l-3 1q-1 0 -1 2v1q0 3 1.5 4.5t3.5 2.5t3.5 2.5t1.5 3.5q0 1 -0.5 1.5
l-0.5 0.5q0 1 -1 4t-2 7t-2 7.5t-2 4.5q-2 9 -2.5 18.5t-1 18.5t-0.5 18.5t-1 18.5q-1 19 -3.5 36t-3.5 36v9t0.5 13t1 13.5t0.5 9.5q1 1 2.5 2t3.5 1h1l3 -3l2 -2q0 -38 2 -74t3 -73q1 -3 1.5 -9t1.5 -13.5t2.5 -15.5t3 -14.5t3.5 -10.5t4 -4q1 0 2.5 0.5t1.5 3.5
q-1 9 -0.5 16.5t1 14.5t1 14.5t0.5 15.5v8t-2 8zM125 142v28q0 4 3 7t6 4h22q10 0 19 0.5t16 -1.5t11 -8t4 -18q0 -11 -1 -16.5t-4 -9t-9 -4.5t-16 -1q-3 -1 -3.5 -3.5t-0.5 -4.5q0 -6 1 -10t2.5 -6.5t4.5 -4.5t8 -5l2 -1t4.5 -2.5t4 -3.5t1.5 -4v-14q0 -2 0.5 -6.5t0 -8
t-2.5 -6.5t-6 -3q-1 0 -4.5 -0.5t-8.5 -1t-10 -0.5h-7h-4q-7 0 -13 1.5t-10.5 5t-7 9t-2.5 13.5v1l0.5 2.5t1.5 2.5q2 7 4.5 11t6.5 6.5t8.5 4t11.5 1.5q1 1 2 3t1 4t-0.5 3.5t-0.5 2.5v3.5v4.5q-2 4 -5 5.5t-6.5 2l-7 1t-6.5 2.5q-4 3 -5.5 6.5t-4.5 7.5zM135 165v-3v-3
q0 -9 3 -14t8 -7.5t11.5 -3.5t14.5 -1q5 0 9 0.5t7.5 2t5 4.5t1.5 9v5v4.5t-1.5 5t-3.5 3.5q-10 0 -18.5 2t-18.5 2h-2h-3t-3.5 -0.5t-2.5 -0.5q-2 0 -3.5 -1.5zM137 68q0 -2 1 -4.5t2.5 -5.5t3.5 -5.5t4 -2.5h35q2 0 4 2.5t3 3.5v4v4q0 6 -2.5 10t-6.5 7t-9.5 4t-11.5 1
q-4 0 -8 -1t-7.5 -3t-5.5 -5.5t-2 -8.5z" />
</svg>
