<?xml version="1.0" standalone="no"?>
<!DOCTYPE svg PUBLIC "-//W3C//DTD SVG 1.1//EN" "http://www.w3.org/Graphics/SVG/1.1/DTD/svg11.dtd" >
<svg xmlns="http://www.w3.org/2000/svg" xmlns:xlink="http://www.w3.org/1999/xlink" version="1.1" viewBox="-10 0 266 256">
   <path fill="currentColor"
d="M82 147v100q0 3 0.5 3.5t2.5 0.5q4 0 7 -3t3 -7q0 -15 -2 -31t-2 -32q0 -38 3 -76t3 -75v-1q-1 -1 -2 -3.5t-2 -2.5q-10 -2 -18.5 -3t-17.5 -1q-4 0 -7 0.5t-3 4.5q0 1 0.5 2t0.5 2h1.5h3.5t3.5 0.5t2.5 0.5l1 0.5l1 0.5v5v5v6v3q0 19 -2.5 37.5t-2.5 37.5v1v2v1t0.5 2
t0.5 2v1q0 23 -2.5 46.5t-2.5 47.5v4.5t0.5 5t2 4t3.5 1.5q4 0 5.5 -2t2 -5.5t0.5 -6.5v-5v-8.5v-14.5t0.5 -17t0.5 -17.5v-14.5v-8v-11l2 -48t3 -48q1 -3 2.5 -4.5t4.5 -1.5q5 0 6.5 4t1.5 8q0 17 -1.5 33.5t-2.5 33.5q0 4 0.5 9.5t0.5 10.5t-0.5 10.5t-1.5 10.5zM157 156
q1 1 3 4.5t4.5 8.5l5.5 11t5.5 12t4.5 10l3 6l2.5 5l3 6t3.5 6t3 4l0.5 0.5l0.5 0.5q2 0 3.5 -1t2.5 -3h1v0q0 -1 -1 -1l-13 -26q-4 -4 -8.5 -12.5t-9 -18t-7 -19t-2.5 -14.5q0 -2 1 -2.5t3 -0.5q6 0 11 3t10 7t9 7t9 3q1 0 1 -1q1 0 2 -0.5l1 -0.5v-8q-7 -3 -13.5 -8.5
t-13.5 -8.5q-3 0 -6.5 -0.5t-7.5 -1.5t-7 -2.5t-3 -4.5q0 -4 2 -8t2 -8v-1q-1 -1 -3 -2.5l-2 -1.5h-31q-2 0 -3.5 -5t-2 -11.5t-1 -12t-0.5 -7.5v0q1 -3 1 -7.5t0.5 -8.5t0.5 -7v-3q0 -1 0.5 -3t1.5 -3v0v-1q-1 -2 -2.5 -4.5t-3.5 -2.5t-4.5 2t-2.5 5q0 15 1 31.5t2 30.5
q0 7 4 10t9 4.5t11 1t12 -1.5q0 1 0.5 1.5l0.5 0.5q1 1 1.5 4t0.5 4v1v1q0 1 -0.5 3.5t-1.5 2.5q0 1 -2.5 2t-5 2.5t-5 2.5t-3.5 2q-2 1 -7 2.5t-9.5 3t-8 3.5t-3.5 4q0 5 4 5t9 -2t10.5 -4.5t10.5 -5l7 -3.5h4q0 9 -2.5 17.5t-6 17t-8 16.5t-8.5 16q-1 1 -3 4t-4.5 6t-4 6
t-1.5 5t1.5 2.5t3.5 0.5q4 0 7.5 -4.5t7 -11t6.5 -14.5t6 -15.5t6 -13.5t6 -8zM144 70q2 4 6.5 4.5t7.5 0.5h4q1 0 3.5 -0.5t5.5 -0.5t5.5 -0.5t3.5 -0.5q3 0 4.5 -3.5t2.5 -7.5t1 -8v-5v-3v-4.5v-5.5v-4v-3v-5.5v-5.5v-3q0 -2 -2 -2h-3h-3t-3 2v14q0 3 -2.5 4t-6.5 1.5
t-7.5 0t-4.5 -0.5h-3h-3l-2 -1v-13q0 -1 -1 -1.5l-1 -0.5h-3.5h-2.5q0 13 0.5 26t3.5 26zM149 56q0 -9 4 -12t12 -3q3 0 7 1.5t4 5.5q0 12 -5.5 15.5t-17.5 3.5q-1 0 -2 -1.5t-1.5 -3t-0.5 -3.5v-3z" />
</svg>
