<?xml version="1.0" standalone="no"?>
<!DOCTYPE svg PUBLIC "-//W3C//DTD SVG 1.1//EN" "http://www.w3.org/Graphics/SVG/1.1/DTD/svg11.dtd" >
<svg xmlns="http://www.w3.org/2000/svg" xmlns:xlink="http://www.w3.org/1999/xlink" version="1.1" viewBox="-10 0 266 256">
   <path fill="currentColor"
d="M151 240q0 3 0.5 5t3.5 2q1 1 2.5 0t3 -3t2 -3.5t0.5 -2.5v-61q0 -4 3 -4.5t6 -0.5q7 0 11 2t6 6.5t2.5 9.5t1.5 11v8v12v12.5v8.5q4 0 7 -3t3 -8v-37q-1 0 -1.5 -2.5t-0.5 -3.5v-2v-3q-1 -5 -4.5 -8.5t-8.5 -6t-10.5 -3.5t-10.5 -1q-2 -1 -3 -2.5t-1 -3.5v0l2 -2l2 -2
q15 1 23.5 -4.5t8.5 -19.5q0 -5 -2 -7.5t-6 -3.5t-8 -1t-8 -1t-6.5 -3t-2.5 -6q0 -6 4.5 -7.5t9.5 -2t9.5 -1.5t4.5 -5v-19l-5 -5q-1 0 -4 -0.5t-6.5 -1t-6.5 -1t-4 -0.5q-3 -1 -3 -1.5v-2.5q0 -10 2 -14.5t4.5 -7t6 -3t6.5 -2t5 -4.5t2 -10v-3.5t-0.5 -3t-1.5 -2.5t-3 -1
h-3.5t-2.5 2v11q0 2 -3.5 4t-9 4t-12.5 4.5t-13 4.5t-11 4t-7 3t-4 2.5t-4.5 3t-4 3l-1.5 1.5v6q4 0 8.5 -3t10 -6.5t10.5 -6.5t11 -3q1 0 3 0.5t2 2.5v16l-4 3l-15 3q-3 1 -4 3.5l-2 5t-1 5.5v4v7l2 2t3 2q2 2 5.5 2h6.5h6.5t2.5 2v11q0 3 -5 3.5t-11 2t-11 5t-5 13.5
l0.5 0.5l0.5 0.5q0 1 0.5 3.5t0.5 3.5q3 2 8 2.5t10 2t8.5 3.5t3.5 6q0 3 -4 5l-9 4.5l-10 5t-8 6.5q-4 5 -6 11.5t-3 14.5t-1.5 15t-0.5 13q6 0 8.5 -5t3.5 -11.5t2 -14.5t3 -15t5.5 -11.5t11.5 -4.5q3 0 5.5 2.5t2.5 6.5v1l-0.5 3t-1 6.5t-0.5 6v3.5v6v9v9.5v5.5
q-2 3 -2 5v4zM84 237q0 4 4 4q3 0 4 -1t2 -4q0 -2 0.5 -7.5t0.5 -12v-13.5t0.5 -13.5t0.5 -11.5v-7v-12q2 -24 3.5 -48t1.5 -49v-26q-1 -4 -6 -6t-11 -2.5t-11.5 0t-10.5 0.5h-7q-2 1 -2 2v2v2q2 1 6.5 1.5t7.5 2.5v8q0 31 -2 62t-3 63q-1 16 -3.5 31t-2.5 32q8 0 10.5 -5.5
t3 -12.5t-0.5 -14.5t0 -11.5q4 -35 5 -70.5t3 -70.5v-2v-3v-3v-2q1 -2 2 -2.5t3 -0.5h3t3.5 1l3 2t1.5 2v57q-1 4 -1 7.5v7.5t-0.5 7.5t-2.5 6.5q0 4 -0.5 13t-1 19.5t-1 22.5t-1 22.5t-1 19t-0.5 12.5v1zM137 143q-2 -1 -2.5 -3t-0.5 -4q0 -4 3 -7t7 -4.5t8.5 -2t7.5 -0.5
h11t9 1t6.5 4t2.5 8v3.5v3.5q-2 2 -4.5 3t-6 1.5t-6.5 0t-5 -0.5h-2h-6t-8 -1t-8 -1t-6 -1zM137 85q0 -5 3 -7.5t8 -3.5t10 -1h10h6t5 0.5t3.5 2t1.5 5.5q0 3 -0.5 5.5t-3.5 5.5q-6 2 -12 2h-13h-13q-3 -1 -4 -3.5t-1 -5.5z" />
</svg>
