<?xml version="1.0" standalone="no"?>
<!DOCTYPE svg PUBLIC "-//W3C//DTD SVG 1.1//EN" "http://www.w3.org/Graphics/SVG/1.1/DTD/svg11.dtd" >
<svg xmlns="http://www.w3.org/2000/svg" xmlns:xlink="http://www.w3.org/1999/xlink" version="1.1" viewBox="-10 0 266 256">
   <path fill="currentColor"
d="M83 243q0 2 1.5 3.5t3.5 1.5t3.5 -1t2 -2.5t0.5 -3v-3.5q0 -13 -1 -26.5t-1 -26.5q0 -19 1 -37t2 -36.5t2 -36.5t1 -37q0 -1 -0.5 -3.5l-0.5 -2.5l-3 -1h-42q-2 0 -2.5 1.5t-0.5 3.5q0 1 1.5 2.5t3.5 2t4 0.5h3v6q0 14 -3 27t-4 26q-2 26 -2.5 52.5t-0.5 52.5v7t0.5 10
t1.5 8.5t4 3.5q2 0 4 -1.5t2 -3.5v-82q1 -3 1.5 -6.5t0.5 -6.5q0 -4 -0.5 -7t0.5 -6q0 -1 0.5 -7t1 -12.5t1 -12t0.5 -6.5q0 -5 -0.5 -12.5t0.5 -15t4 -13t11 -5.5q3 0 4 1.5t2 4.5v15q0 28 -3 55.5t-3 55.5q0 12 1 22.5t1 21.5q0 8 -1 15t-1 15zM109 238q1 0 2 1.5t2 1.5h1
v0q1 0 2.5 -1.5l1.5 -1.5l2 -14v-105q0 -8 4.5 -12.5t10 -7t10 -4.5t4.5 -5t-1.5 -3.5t-3.5 -0.5q-5 0 -11 2.5t-10.5 7t-8 10t-3.5 10.5q0 4 -0.5 14t-0.5 21.5t-0.5 21.5t-0.5 14v25v26zM196 232q0 1 1.5 2t1.5 2h1q2 0 3.5 -2.5t2.5 -4.5v-2v-3.5v-2.5v-3v-2v-3.5v-2.5
v-2q0 -4 -0.5 -12t-0.5 -18t-0.5 -21t-0.5 -21.5t-0.5 -18.5t-0.5 -12q-2 -7 -6 -11t-9.5 -6t-12.5 -2h-13q0 5 4.5 7t10 2.5t10 2t5.5 7.5q1 3 1.5 10t1.5 15t1.5 14.5t0.5 9.5v2q0 13 -0.5 25.5t-0.5 25.5v5v8v7v5zM139 146q0 5 1 11t3 10t6.5 7t10.5 3q11 0 16.5 -5
t5.5 -16q0 -5 -0.5 -9.5l-1 -9t-0.5 -8.5v-10q0 -1 -1 -1h-2h-2.5t-1.5 1v14h-24l-0.5 -2t-1 -4.5t-1.5 -4t-2 -1.5h-2t-2 2v4t-0.5 6.5t-0.5 6v4.5v2zM147 150q0 -2 0.5 -5t3.5 -3h19l0.5 2t1.5 3v2t0.5 4t0.5 4.5v3.5v1q0 2 -1.5 3t-3.5 1h-3h-3q-8 0 -11.5 -4t-3.5 -12z
M130 20q0 6 0.5 10.5t-0.5 8.5t-2.5 8.5t-4.5 9.5q-1 2 -4.5 5t-7 6.5l-6.5 6.5t-3 5q10 0 17 -4.5t11.5 -11t6.5 -15t2 -17.5v-3.5v-5.5t-1 -5t-3 -2t-3.5 0.5t-1.5 3.5zM173 57q5 7 12.5 11t16.5 4h3.5t2.5 -3q0 -2 -3.5 -4t-7.5 -4.5t-8.5 -4.5t-6.5 -5q-2 -2 -2.5 -8.5
t-0.5 -13.5t-1.5 -12.5t-5.5 -5.5q-1 0 -1.5 1.5t-1.5 3.5t-1 3.5v2.5v2v1t0.5 2l1 2t0.5 2t0.5 5l1 8t1 7.5t0.5 5.5z" />
</svg>
