<?xml version="1.0" standalone="no"?>
<!DOCTYPE svg PUBLIC "-//W3C//DTD SVG 1.1//EN" "http://www.w3.org/Graphics/SVG/1.1/DTD/svg11.dtd" >
<svg xmlns="http://www.w3.org/2000/svg" xmlns:xlink="http://www.w3.org/1999/xlink" version="1.1" viewBox="-10 0 266 256">
   <path fill="currentColor"
d="M78 155v11t0.5 9.5t0.5 10t1 12.5v6.5t0.5 10.5t1 12.5t1.5 12t3 9t4 3.5q3 0 3 -2v-5v-5q0 -1 -0.5 -3t-1 -4.5t-1 -4.5l-0.5 -2q-1 -19 -1.5 -39.5t-0.5 -39.5q0 -8 0.5 -16t0.5 -16t1 -16.5t2 -17.5q0 -5 1.5 -11.5t3 -12.5t2.5 -13t1 -12q0 -8 -6 -12t-14 -5.5
t-16 -2t-13 -0.5q-2 0 -3.5 1t-1.5 4q0 4 1.5 5t4 1h4.5t4 2v3v3q0 10 -1.5 19t-3.5 18.5l-4 19t-3 18.5q0 11 -0.5 19.5t-0.5 17v17.5v20q0 13 -0.5 26.5t1.5 26.5q0 1 1 2t2 2.5t2 2t2 0.5l3 -3l2 -2v-5v-3q0 -9 -1.5 -18t-1.5 -18v-32t1 -32t2.5 -32t4.5 -31q1 -6 2 -9.5
t1.5 -6.5t1 -6.5t0.5 -9.5q2 -3 5.5 -3.5t6.5 -0.5q1 0 2.5 0.5l1.5 0.5l2 1q0 1 0.5 3.5t0.5 3.5q0 7 -1 13.5l-2 13t-2.5 13.5t-2.5 15q-1 15 -2 31.5t-1 31.5zM148 245q0 2 1.5 4t3.5 2t3 -1.5l2 -3t1 -3v-3.5v-6v-11v-10v-7l0.5 -3.5t1 -7.5t0.5 -7.5v-3.5v-6v-10v-10
v-6q0 -3 0.5 -7.5t0.5 -8.5t0.5 -7l0.5 -3l1 -4q20 -2 29.5 -11.5t9.5 -30.5q0 -2 -1 -6t-4 -4q-2 0 -3 3t-2 7.5t-2 9.5t-3 9.5t-6 7.5t-11 3h-3.5h-3.5q-2 -2 -2 -6v-8v-8.5t-3 -7.5q-2 -5 -6.5 -8.5t-9.5 -6.5t-8.5 -7.5t-3.5 -10.5q0 -5 2.5 -9t6 -6.5t7.5 -3.5t8 -1
q6 0 10 0.5t7.5 2.5t5 5.5t1.5 8.5q0 4 -1.5 7.5t-3.5 6.5t-5 6l-5 5v6q8 0 13 -3.5t7.5 -9t4 -12t1.5 -12.5q0 -5 -2.5 -9.5t-6.5 -7.5t-9 -5t-9 -2q-6 0 -11.5 1t-11 3t-10 5.5t-7.5 8.5v2v4v3v3q0 8 2 14t6 9.5t8 6.5t7.5 7t6 9t2.5 14q0 4 -2.5 5t-6.5 1q-8 0 -13 -2.5
t-8 -7t-4.5 -10.5t-2.5 -14l-1.5 -1.5l-1.5 -1.5q-3 -1 -4 2t-1 4q0 21 10 31.5t30 7.5q2 2 2.5 4t0.5 4q0 22 -2.5 44t-2.5 44v1v2t0.5 2.5l1 3l0.5 1.5v1v1l-0.5 2.5l-1 5t-0.5 5v3.5v1v2zM194 238q1 3 3 3.5t4 0.5q3 0 5 -1.5t2 -5.5q0 -2 -0.5 -3.5t-1.5 -2.5t-1.5 -2
l-1.5 -3q-6 -16 -9 -30.5t-3 -31.5q0 -6 1 -12t1 -12q0 -2 -1 -4t-3 -2q-4 0 -6 4t-2.5 9t0 10t0.5 7q0 10 1 19.5t3 19t4 18.5t5 19zM127 130q-2 0 -3 3.5t-1.5 9t-1 12t-0.5 12.5t-0.5 10.5t-0.5 6.5q-1 2 -2.5 7.5t-3.5 12t-3.5 12.5t-2.5 8q-1 3 -2 4.5t-2 3.5t-1.5 4
t-0.5 6q6 0 10.5 -6t8 -14.5t6 -19.5t4 -21t2 -18.5t0.5 -12.5v-3v-4v-4v-3q-1 -1 -2.5 -3t-2.5 -2l-0.5 -0.5z" />
</svg>
