<?xml version="1.0" standalone="no"?>
<!DOCTYPE svg PUBLIC "-//W3C//DTD SVG 1.1//EN" "http://www.w3.org/Graphics/SVG/1.1/DTD/svg11.dtd" >
<svg xmlns="http://www.w3.org/2000/svg" xmlns:xlink="http://www.w3.org/1999/xlink" version="1.1" viewBox="-10 0 266 256">
   <path fill="currentColor"
d="M152 173v8v5.5t0.5 5t1.5 6.5q0 2 2 6t4.5 10t5.5 12.5t6 12t6 9t6 3.5t4.5 -1.5t1.5 -4.5v-1.5v-1.5q-13 -17 -21 -37.5t-8 -41.5q0 -14 1.5 -27.5t1.5 -27.5v-18l-1.5 -1.5l-1.5 -1.5h-1q-2 0 -3 2t-1 3q0 20 -2 40t-2 41zM88 244l1.5 1l1.5 1h0.5h0.5h1l2.5 -1.5
t2.5 -2.5v-91q0 -1 -0.5 -3t-0.5 -4t-0.5 -4l-0.5 -2q0 -1 0.5 -4l1 -6t0.5 -5.5v-3.5v-1v-1v-2.5t-0.5 -5l-1 -5l-0.5 -2.5v-2q0 -11 1 -21.5t1 -22.5v-5v-9v-9v-6q-1 -4 -6.5 -5.5t-12.5 -2t-13.5 -0.5h-9.5t-6 0.5t-3 3.5t2 4t5.5 1.5t6 -0.5t3.5 -1q3 2 3.5 3t0.5 3
q0 4 -0.5 13.5t-1 19.5t-1.5 18.5t-3 10.5q1 33 -1 64t-4 63v5q0 2 1 4.5t4 2.5q4 0 5.5 -4t1.5 -6v-6v-9v-9v-5q2 -34 3 -67t2 -67q0 -2 -0.5 -7t0 -10t2.5 -9t7 -4q3 0 4.5 0.5t2.5 4.5v2v4v4v3q0 16 -1 32.5t-1 32.5q0 4 1 7t1 7q0 27 -1 54.5t-1 54.5v7zM167 160
q0 2 2.5 3t5 1.5t6 0.5h5.5q6 0 9.5 -3t5.5 -8q1 -3 1 -7.5t0.5 -10t1 -10.5t0.5 -10t-4.5 -8.5t-9.5 -3.5h-1.5h-0.5h-2.5t-3.5 0.5t-3.5 0.5h-2.5q0 1 -0.5 2t-0.5 2v1q0 2 2.5 2.5t6 1t6.5 3t3 8.5v2v2q-2 1 -4.5 1.5l-5 1t-5 0.5h-3.5q-1 1 -1 2v1q0 4 3 4.5t6.5 0.5
t6.5 1t3 6q0 4 -2.5 6t-6 3t-7.5 0.5t-8 -0.5l-1.5 1.5t-0.5 2.5zM118 139q0 5 0.5 9.5t2.5 7.5t5.5 5t9.5 2h3t4.5 -0.5t4 -1.5t1.5 -3v0l-3 -4h-6.5t-6 -1t-4.5 -2.5t-2 -5.5v-1q2 -1 4.5 -1.5t5.5 -1t5 -1.5t2 -3q0 -5 -3 -5.5t-6 -0.5t-5.5 -0.5t-2.5 -4.5q0 -5 3 -6.5
t7 -2t7 -1.5t3 -5q0 -3 -1.5 -3.5t-3.5 -0.5q-8 0 -13 2.5t-7 6.5t-3 10t-1 13zM110 90q1 4 5 4h1l1 -1q2 -2 7.5 -6t11.5 -8.5t11.5 -7.5t8.5 -3q6 0 12.5 3.5t12 8.5t10.5 8.5t10 3.5q6 0 6 -4q0 -3 -3 -6t-7 -5t-8.5 -4t-7.5 -3q-1 -1 -3.5 -2t-5.5 -2.5t-5.5 -2.5
t-3.5 -2q-2 -3 -2 -7v-7v-10q-1 -2 0.5 -2.5t3.5 -0.5q4 0 8.5 2t8.5 4.5t8.5 4t8.5 1.5h3.5t2.5 -2q0 -5 -5 -8.5t-12.5 -6t-14.5 -4.5t-10 -4q-2 -1 -2.5 -2.5l-1 -3t-1.5 -3t-4 -1.5q-1 0 -1.5 1.5t-1 4t-2.5 5t-7 4.5q-1 1 -4.5 2.5t-8 4t-8 4.5t-4.5 3q-1 0 -1.5 1
t-0.5 2q1 2 3 2.5t4 0.5q3 0 6.5 -1.5t6.5 -4t6.5 -4.5t7.5 -2h2t1 2v23q0 3 -3 5t-8 4.5t-10.5 5.5t-10.5 5.5t-8 5.5t-2 5z" />
</svg>
