<?xml version="1.0" standalone="no"?>
<!DOCTYPE svg PUBLIC "-//W3C//DTD SVG 1.1//EN" "http://www.w3.org/Graphics/SVG/1.1/DTD/svg11.dtd" >
<svg xmlns="http://www.w3.org/2000/svg" xmlns:xlink="http://www.w3.org/1999/xlink" version="1.1" viewBox="-10 0 266 256">
   <path fill="currentColor"
d="M167 208q0 6 0.5 13.5t3 14t7 11t11.5 4.5q0 -3 -1 -5.5t-2.5 -5t-3 -4.5t-2.5 -5q-3 -6 -4 -12.5t-1 -13.5q0 -3 1 -7t2 -7.5l2 -7t1 -7.5q0 -7 -3 -9.5t-6.5 -3.5t-6 -2t-2.5 -6q0 -4 2 -6.5t7 -2.5h3q4 0 5 2l7 15l2 -0.5t3 -0.5q2 -1 2 -2v-3q0 -4 -1.5 -9t-2.5 -10
t-2.5 -10.5t-1.5 -9.5q-1 -2 -1.5 -2h-1.5h-2t-1 2q-3 4 -3 8.5t1 9.5q-1 1 -4 1h-4q-4 0 -6 -1t-2.5 -3.5t-0.5 -5.5v-6v-9q4 -2 9.5 -5t9.5 -6h2q3 0 5 1.5t4.5 3t4.5 3t5 1.5q2 0 4 -0.5t2 -3.5q0 -4 -3 -6.5t-6.5 -4t-7 -2.5t-3.5 -3q0 -4 1 -7.5t1 -7.5q0 -3 -1 -5
t-2 -3.5t-2.5 -3.5t-2.5 -4h-12q-2 0 -5 -0.5t-3 -1.5v-10l2 -2q2 0 5.5 0.5t7.5 0.5t7 -1.5t3 -5.5v-2t-2 -2h-18q-2 0 -3.5 -1.5t-1.5 -3.5v-16q0 -2 -1 -2h-2q-2 0 -4 1t-2 3v40q0 3 -3 3.5t-7 0.5t-7 0.5t-3 3.5q0 2 1.5 3t3 1.5t3.5 0.5h3h31l6 3q0 1 -0.5 5t-1.5 6
l-1.5 2t-2.5 3h-1q-12 0 -24 -2.5t-24 -2.5v1.5t0.5 3l1 3t2.5 1.5l37 3l0.5 1t0.5 2v1q0 1 -2 2.5t-4.5 2.5t-5 1.5t-3.5 0.5h-3.5t-5 0.5t-5 0.5h-3.5q-2 1 -2.5 2t-0.5 3t0.5 3t2.5 1h1.5t3 -0.5t3 -0.5h1.5h2.5h2.5h2h1l2 3v18l-3 4h-19q-2 0 -2.5 1.5t-0.5 3.5t1 2.5
t3 0.5q5 0 9 -1t9 -1q3 0 3.5 1t0.5 4q0 4 -1.5 8t-4 8l-5 8t-4.5 8q-4 7 -4.5 16.5t-0.5 17.5v6.5t0.5 9.5t2 9t4.5 4q2 0 2 -1.5v-3.5q0 -5 -0.5 -10.5t-0.5 -11.5v-2v-3t0.5 -7t0.5 -7v-4q1 -2 1.5 -6.5t2 -8.5t3.5 -7t5 -3h1h2t4.5 0.5t4.5 0.5h2q2 1 2 2v3
q0 8 -2.5 15.5t-2.5 15.5zM106 240q0 2 1 2.5t2 0.5q2 0 3 -1.5l2 -3t1 -3.5v-4q0 -30 -1.5 -60t-1.5 -61q0 -22 1 -43.5t1 -42.5q0 -2 -0.5 -3.5t-2.5 -1.5q-4 0 -5.5 3.5t-1.5 8v9v5.5v9t-0.5 15t-0.5 14.5v8.5v14q0 33 1.5 66.5t1.5 67.5zM84 226l2 2l2 2v0h1l2 -2t1 -2
v-3v-4.5v-5.5v-3q0 -28 -1.5 -55t-1.5 -54v-7v-12v-11v-8q0 -1 0.5 -4t1.5 -3l1 -2l-1 -15q-1 -2 -2 -2.5t-3 -1t-4 -0.5h-2h-12t-13 1q-3 2 -3 5q0 1 1.5 2t2.5 1.5t2.5 1.5t1.5 4v1q0 1 -0.5 3t-0.5 4t-0.5 4t-0.5 3t0.5 4.5t0.5 7t0.5 7t0.5 4.5v1q0 14 -1 27.5t-1 26.5
v7v10.5v10.5v7q1 1 1.5 4.5t0.5 4.5v8.5v12.5v12v8h8l1 -3v-15q0 -52 -1 -104q0 -2 0.5 -6t0.5 -5v-8v-13v-13v-8q0 -1 0.5 -2.5l1 -3t1 -2.5t2.5 -1q2 -1 3.5 0t2.5 3t1 4v3q0 14 -0.5 28t-0.5 27v24v6t0.5 12t1 14.5t0.5 14t0.5 11.5t0.5 7v8.5v6.5v6t1 7z" />
</svg>
