<?xml version="1.0" standalone="no"?>
<!DOCTYPE svg PUBLIC "-//W3C//DTD SVG 1.1//EN" "http://www.w3.org/Graphics/SVG/1.1/DTD/svg11.dtd" >
<svg xmlns="http://www.w3.org/2000/svg" xmlns:xlink="http://www.w3.org/1999/xlink" version="1.1" viewBox="-10 0 266 256">
   <path fill="currentColor"
d="M80 178v5v6.5v6.5v3t0.5 7t1 12.5t1 12.5t0.5 7v4q0 2 0.5 4t1.5 3.5t3 1.5q3 0 4.5 -2.5t1.5 -4.5q0 -11 -0.5 -23t-3.5 -22v-9v-12v-13v-8v-10.5v-13.5v-12v-6q1 -3 1.5 -9.5t1 -14.5t1.5 -17t2 -17.5t2 -15t1 -9.5v-1v-1q0 -7 -4.5 -10.5t-11.5 -5.5t-14 -2.5
t-11 -0.5q-3 0 -6 1t-3 4t2.5 3.5t5.5 1t5.5 2t2.5 4.5q0 12 -1 24t-5 23q-2 30 -4.5 62t-2.5 63q0 10 1.5 19.5t2.5 19.5q0 1 1.5 1.5l1.5 0.5h1q2 0 3 -1.5t1.5 -3t0.5 -3.5v-4q0 -4 -0.5 -7.5t-1.5 -8.5q0 -1 -0.5 -5.5t-0.5 -10v-9.5v-7v-8v-10t0.5 -9t0.5 -5
q0 -4 0.5 -12t1.5 -18.5t2 -21.5t1.5 -21.5t1.5 -18.5t1 -12q0 -1 0.5 -4t1 -6.5t1.5 -6t3 -2.5h12q1 0 1 1v2q0 8 -0.5 14.5l-1 13t-1.5 13t-1 13.5q-1 3 -1.5 11t-1 17.5t-1 18t-0.5 12.5v5v3q0 2 -0.5 3.5l-1.5 4.5v4v6.5v6.5v4zM174 247q0 3 1.5 3.5t3.5 0.5
q4 0 6.5 -4.5t4 -10.5t3 -11.5t1.5 -8.5q1 -1 1.5 -3.5t1.5 -6t1.5 -6.5t1.5 -3q0 -2 1 -6t1.5 -7.5t1.5 -7t1 -4.5q2 -14 2.5 -29.5t0.5 -29.5v-24q-1 -4 -4 -7t-7.5 -5t-9 -3t-8.5 -2q-3 0 -10 -1.5t-15 -2.5t-15.5 -2t-9.5 -1l-0.5 -1l-0.5 -1q0 -4 1 -7t3 -5.5t4.5 -4.5
t6.5 -2h43q2 0 4.5 -2t4 -4.5t2.5 -5.5t1 -5t-0.5 -4t-1.5 -4.5t-3 -4t-4 -1.5h-67q-2 0 -4 1.5t-2 3.5v2q4 2 7 2h7h7l1.5 -0.5l3 -1t3 -0.5h1.5h5.5t9.5 0.5t9.5 0.5t6.5 1q5 0 7 1.5t2 6.5q0 3 -1 4.5t-5 2.5h-7h-11h-12h-7q-4 0 -8 1.5t-7.5 4t-5.5 5.5t-2 7t1 6.5
t2 5.5t1.5 6t0.5 6v3v4l-13 6.5t-11 8.5q0 1 1.5 2.5l1.5 1.5h1q4 0 7.5 -2.5t8.5 -2.5q0 8 -2 12t-5.5 6l-7 4t-7.5 7q0 1 1.5 2t2.5 1l1 -0.5l2 -1l2 -1t2 -0.5h1v0q1 0 1.5 1l0.5 1q0 1 -0.5 5t-1.5 5q0 2 -1.5 6.5t-3.5 9t-3 8.5t-2 6v1q0 2 0.5 3t1.5 1q3 0 5 -3
t3.5 -8t3 -10.5t3 -10.5t3 -9t4.5 -4q1 0 3 1.5l2 1.5h2q1 0 2.5 -0.5t1.5 -1.5q0 -3 -1.5 -5t-3.5 -4.5t-4 -4.5t-4 -3l7 -14h0.5h1.5q2 0 3.5 2t1.5 4v1q-1 1 -4 2.5t-4 3.5q0 2 2.5 2.5t4.5 0.5q3 0 5 1t2 4q0 2 -0.5 5t-1.5 6l-2 6t-2 4q-2 3 -4 4t-4.5 2t-4.5 2.5
t-4 5.5h1h1q3 0 6 -1t5 -1q0 6 -1 11.5t-3 10.5t-3.5 10t-1.5 11q5 0 8 -3t4.5 -8t2.5 -10.5t1.5 -10t2 -8t4.5 -3.5q1 0 2 1.5t1 3t0.5 3t2.5 1.5t3.5 -0.5t1.5 -2.5q0 -3 -1 -5t-1 -4q0 -6 3.5 -7t6.5 -1q0 9 -2 17.5t-4.5 16.5t-4.5 16.5t-2 17.5q0 2 1.5 2h2.5
q4 0 6.5 -4.5t3.5 -11.5t2 -15t2 -15t2.5 -11.5t4.5 -4.5t4.5 1.5t4.5 1.5q4 0 4 -3v-2l-12 -12l-0.5 -2l-0.5 -2q0 -1 0.5 -4t1 -6.5t1.5 -6t2 -2.5t2.5 1.5t4 3.5t4.5 4t4 2v5v4q0 19 -4 38.5t-8 37.5q-1 3 -3 8t-4 10.5t-3.5 10.5t-1.5 7zM149 136v-14l1.5 -1.5t2.5 -1.5
v0h1h0.5h0.5l1 1l2 2t2 2.5t2 1.5h1q2 0 3 -2t1.5 -4t2 -3.5t4.5 -1.5v2v2t-0.5 2.5t-1 3.5t-0.5 3v1l-1 1t-2.5 1.5t-3 1.5t-2.5 1q-1 1 -3 2t-3.5 2t-2.5 1.5l-1 0.5zM186 103v-4t0.5 -6t2 -5t4.5 -2q1 0 2.5 1t2.5 2q0 1 0.5 4t0.5 6t0.5 5.5t0.5 3.5q0 4 -1 5t-3 1
q-4 0 -7 -3.5t-3 -7.5zM156 107v-7q0 -4 0.5 -7.5t2 -6.5t4.5 -5t7 -2q3 0 6 0.5t3 4.5v1v1q-1 1 -1.5 3.5l-1 5t-1.5 5t-1 3.5q-4 2 -6.5 4t-5.5 2h-4q-1 0 -2 -2zM134 86q1 -4 3.5 -7.5t7.5 -3.5q1 0 3.5 1t2.5 3v6t-1 7t-2.5 7t-3.5 4q-2 -1 -3.5 -3.5t-3 -5.5l-2.5 -5
t-1 -3z" />
</svg>
