<?xml version="1.0" standalone="no"?>
<!DOCTYPE svg PUBLIC "-//W3C//DTD SVG 1.1//EN" "http://www.w3.org/Graphics/SVG/1.1/DTD/svg11.dtd" >
<svg xmlns="http://www.w3.org/2000/svg" xmlns:xlink="http://www.w3.org/1999/xlink" version="1.1" viewBox="-10 0 266 256">
   <path fill="currentColor"
d="M122 242q1 -3 2 -9.5t2 -14t2 -14.5t2 -10q0 -1 0.5 -4l0.5 -3h47q2 0 3 5t1.5 12t1.5 15t2 15t3 12t5 5q1 0 2.5 -1t2.5 -2.5t1.5 -3t0.5 -2.5l-0.5 -1.5t-1 -3.5t-1 -3.5l-0.5 -1.5q-1 -1 -1.5 -3.5t-1 -4.5t-1 -3.5t-0.5 -2.5q-3 -16 -4.5 -33t-2.5 -34q0 -9 -1.5 -20
t-1.5 -20v-4.5t1 -2.5h20l0.5 -1t0.5 -2.5t0.5 -2.5t0.5 -2h-39q-1 0 -3 -0.5l-2 -0.5l-1.5 -1.5l-0.5 -0.5v-14h33q1 0 2 -1.5t2 -1.5q0 -2 -1 -3t-3 -1.5t-3.5 -1l-1.5 -0.5h-26q-2 -1 -2 -3v-4v-3.5t3 -2.5q7 -1 13 -1t10.5 -2t7.5 -6t3 -12q0 -1 -0.5 -2.5t-0.5 -4
t-0.5 -4.5t-0.5 -3h-1h-1q-3 0 -4.5 2t-2.5 5l-2 6t-2.5 6t-5 5t-8.5 2q-3 0 -5 -2t-2 -4q0 -6 1 -11t1 -10v-7q-1 -2 -2 -3t-3 -1t-3 2t-1.5 4t-0.5 5v3t-0.5 4.5t-0.5 7t-0.5 6.5t-0.5 4q-2 1 -3.5 1.5t-4.5 0.5q-6 0 -8.5 -3.5t-4 -7.5t-3 -7.5t-4.5 -3.5q-1 0 -2 0.5
l-1 0.5v7q0 9 5 13t10.5 6t10.5 4t5 7q0 1 -0.5 4.5t-3.5 3.5h-26q-2 0 -2.5 2t-0.5 3v2.5t2 1.5h26l0.5 0.5t0.5 1.5q2 2 2.5 3t0.5 2.5t-0.5 3.5t-0.5 5h-36q-6 0 -6 4q0 1 0.5 2.5t1.5 1.5h17q0 14 -1 28.5t-3 28.5t-3.5 28t-2.5 28q-5 10 -5 23v4q0 2 3 2t4.5 -1t2.5 -4
zM87 242q0 3 1.5 5t3.5 2h2.5t1.5 -2v-5.5v-9.5v-9v-7q0 -23 -1 -45.5t-1 -46.5q0 -10 1 -20t2 -20.5t2 -20.5t1 -21v-9q-1 -3 -4.5 -7t-6.5 -4h-38q-1 0 -1.5 1l-0.5 1v1q0 3 2 3h5t5 1.5t2 6.5q0 4 -0.5 6.5t-1.5 5.5q-2 46 -4.5 92.5t-2.5 92.5v13q1 1 1.5 1h2.5t3 -1.5
t2 -3.5q1 -52 3 -103.5t6 -104.5q1 -3 5 -4t8 -1q3 0 4 1.5t2 3.5v3v5.5v4.5v3q0 12 -1 23.5t-2 23.5t-1.5 23.5t-0.5 23.5v4.5t0.5 7.5t0.5 8v4q0 3 0.5 10.5t0.5 16.5q0 8 -0.5 15.5t-0.5 11.5q1 0 1.5 2.5t0.5 3.5v3t-0.5 3.5t-1 3.5l-0.5 2v2zM140 139q2 0 6.5 -0.5
t9.5 -1t9 -1t6 -0.5h1q2 0 2.5 1t1 2.5l1 3l0.5 1.5v36h-45v-10v-12t2 -11t6 -8zM150 161q0 2 0.5 3.5t3.5 1.5q3 1 5 -1t2 -4q0 -3 -1 -5t-5 -2q-3 0 -4 2t-1 5zM136 119v-3v-4.5t1 -4t3 -2.5q8 -1 17 -1.5t18 -0.5v22q0 2 -2 3.5t-4 1.5h-31l-1 -1t-1 -2v-3v-5z" />
</svg>
