<?xml version="1.0" standalone="no"?>
<!DOCTYPE svg PUBLIC "-//W3C//DTD SVG 1.1//EN" "http://www.w3.org/Graphics/SVG/1.1/DTD/svg11.dtd" >
<svg xmlns="http://www.w3.org/2000/svg" xmlns:xlink="http://www.w3.org/1999/xlink" version="1.1" viewBox="-10 0 266 256">
   <path fill="currentColor"
d="M70 187q1 3 1 8.5t0.5 12.5t1.5 14.5t3 14t5 10.5t8 4q0 -8 -1 -15.5t-2.5 -15t-3 -15.5t-2.5 -16v-5v-8v-9v-5t-0.5 -3.5t-0.5 -3.5v-5q0 -3 -0.5 -7t-0.5 -8v-5q0 -22 2 -43.5t2 -42.5q0 -10 -2 -14.5t-6 -6t-10 -1.5t-14 -1h-2q-1 0 -3 0.5t-2 2.5q0 3 2.5 5t4.5 4
v4.5v4.5q0 26 -2.5 51.5t-2.5 51.5v47t3 47q1 3 1.5 6l0.5 3h10q1 0 1.5 -2t0.5 -3v-2q-1 -2 -1.5 -6.5t-1 -9.5t-1.5 -9.5t-1 -6.5v-40v-41v-6t0.5 -11.5t1 -14.5t1 -14.5t0.5 -11.5v-6v-7v-8.5t0.5 -8t2.5 -5.5q1 0 3 -1l2 -1h2v0q1 0 2 1l1 1v2q0 1 0.5 3t0.5 3v3v8
q0 5 -0.5 10t-1 9.5t-2.5 8.5v105zM95 245q1 1 2 1.5t2 0.5h1l1 -1q6 -20 7 -40.5t1 -41.5t-1.5 -42t-1.5 -42q0 -3 5 -4.5t13 -2t17.5 -0.5t18.5 -0.5t16.5 -1.5t10.5 -4q2 -1 3 -3.5t2 -5.5t2 -5.5t3 -5.5q1 -1 3.5 -1.5t5.5 -1t5.5 -1.5t2.5 -3q0 -3 -2 -4t-3 -1
q-4 0 -7 2q-12 0 -23 1.5t-22.5 2.5t-22.5 2t-22 1q-3 0 -4 -1t-1 -3t1 -4t3 -3q12 -3 23.5 -4.5t23.5 -2.5t24.5 -1.5t24.5 -2.5q1 0 1.5 -1t0.5 -2q0 -3 -2 -3.5t-4 -0.5h-3q-3 0 -9.5 0.5t-13.5 1.5t-13.5 1.5t-9.5 0.5q-6 3 -13.5 3t-15 1t-14.5 3.5t-12 8.5v4.5v6.5v7
v4q0 23 1 46t1 46v46q-3 9 -4.5 19.5t-1.5 20.5v5v5zM153 173q3 0 3.5 0.5t1.5 2.5q1 6 1.5 11t0.5 10t-0.5 10.5t-0.5 12.5q0 2 0.5 6t1 7.5t0.5 6.5v3l2 3q7 -2 7 -9q0 -15 -2 -30t-2 -30v-4l9 -2l0.5 1t1 1.5t1 2.5l0.5 2q-1 13 -0.5 27t2.5 27q0 1 1.5 3t1.5 3h0.5h0.5
h0.5h0.5q0 -1 1.5 -2t1.5 -2v-8q0 -9 -1.5 -17.5t-1.5 -18.5v-1v-3t0.5 -4.5t0.5 -5t1 -3.5q0 -3 2 -3.5t4 -0.5t4 0.5t1 3.5q0 2 0.5 8t1 12.5t1 12.5t1.5 8v7t1 8.5t2.5 7.5t5.5 3t5 -2.5t1 -5.5q0 -10 -3 -19.5t-4 -19.5q-2 -17 -3.5 -33.5t-1.5 -33.5q0 -7 1 -13.5
t1 -13.5q0 -4 -0.5 -6.5t-5.5 -2.5q-3 0 -3.5 1.5t-0.5 6.5v20q-1 1 -2 1h-2q-2 0 -4 -1t-2 -4v-20l-0.5 -1.5t-1.5 -2t-2 -1.5t-1.5 -0.5l-2 2t-1.5 2.5v25q0 2 -2 2.5t-4 0.5q-3 0 -4.5 -2t-1.5 -5q0 -6 1 -11t1 -11q0 -2 -1.5 -5t-3.5 -2t-3 2t-1 2.5v3.5v3v4.5t-0.5 7
t-0.5 7v4.5q-2 2 -3 2h-2h-3t-2 -2v-28q-4 0 -5.5 4.5t-1.5 8.5v1v2l0.5 1.5t0.5 3.5t0.5 3.5t0.5 2.5l-0.5 2t-1.5 3h-4h-2q-2 0 -3.5 -0.5t-1.5 -1.5v-20q0 -2 -3 -3t-4 -1v105q0 4 -1 7.5l-2 7l-2 7t-1 6.5t0.5 4.5t3.5 1.5q2 0 3 -1.5t2 -3.5t1 -4v-4l4 -48q0 -2 2.5 -2
h3.5q3 0 4.5 2t1.5 5q0 12 -2 23.5t-2 22.5q0 2 1 5t3 3t3 -1.5t1 -3.5t0.5 -3.5t0.5 -2.5v-9.5t0.5 -15.5t1 -15t0.5 -10h1h2zM136 130q2 0 3.5 1t2.5 3t1 5v4v6t-0.5 7.5t-1.5 6.5t-4 3h-1l-3 -3l-2 -2v-25q0 -3 1.5 -4.5t3.5 -1.5zM155 130q3 0 3.5 2t0.5 5t0.5 8.5
t0 10.5t-3 8.5t-6.5 3.5v-36q0 -2 2 -2h3zM165 160v-1v-5t0.5 -7t0.5 -7v-4q1 -2 2.5 -4.5t2.5 -3.5q1 0 2 1t2 1l0.5 0.5t0.5 1.5q1 6 1.5 10.5t0.5 10.5v4t-0.5 3.5t-1.5 3t-3 1.5q-3 0 -5.5 -1t-2.5 -4zM185 141q0 -2 0.5 -4.5t1.5 -4l2 -3t4 -1.5q1 0 2.5 0.5t1.5 3.5
v27q0 3 -1.5 3.5t-4.5 0.5t-4.5 -3t-1.5 -6.5v-7.5v-5zM105 57q0 -2 0.5 -3.5t3.5 -2.5q3 0 12.5 -1t19.5 -2t19 -1.5t13 -0.5h4h2h3t2 0.5t1 1.5q0 5 -3.5 8.5t-9 5.5t-12 3t-13 1.5t-12 0.5h-8.5h-16q-6 -4 -6 -10z" />
</svg>
