<?xml version="1.0" standalone="no"?>
<!DOCTYPE svg PUBLIC "-//W3C//DTD SVG 1.1//EN" "http://www.w3.org/Graphics/SVG/1.1/DTD/svg11.dtd" >
<svg xmlns="http://www.w3.org/2000/svg" xmlns:xlink="http://www.w3.org/1999/xlink" version="1.1" viewBox="-10 0 266 256">
   <path fill="currentColor"
d="M150 249l0.5 0.5l1.5 1.5v0q3 0 5.5 -3t3.5 -5v-5v-8v-7v-6v-20t-2 -21q0 -1 -1.5 -3.5t-3.5 -2.5h-1l-1 2q0 2 -0.5 9.5t-0.5 15.5t-0.5 15t-0.5 10v14v13zM63 197v43q0 3 1.5 3h3.5q6 0 6 -6v-2q0 -1 -0.5 -3.5t-1.5 -2.5v-42q0 -33 -0.5 -66.5t2.5 -67.5l0.5 -2.5
t1 -5.5t2 -5.5t3.5 -2.5q8 0 8 8q0 3 -0.5 5t-1.5 4t-1.5 4t-0.5 5v109q1 2 1.5 8.5t1 14.5t1 16.5t1.5 15.5t3 11t5 3q3 0 3 -2v-4q0 -3 -0.5 -7t-1.5 -8t-1.5 -7.5t-1.5 -6.5q-1 -11 -3 -24.5t-2 -25.5v-13q0 -1 0.5 -7t1 -12.5t0.5 -12.5v-7q1 -16 1 -31t4 -31v-1
q0 -6 -3.5 -9t-8 -4t-10.5 -0.5t-10 0.5h-3h-3.5h-3.5h-2q-3 0 -3.5 1t-0.5 2t1 3.5t3 2.5h12v4v6v4t-0.5 6.5t-0.5 6.5v3v9v13v13v8l-2 2v5v8v8v6l-0.5 2.5t-1.5 3.5v1v1q1 0 1.5 2l0.5 2v0.5v1.5q0 8 -1 15.5t-1 15.5q0 3 0.5 6t1.5 7zM109 167q0 1 -0.5 3.5t0 5t1.5 4
t3 1.5q3 0 4 -1.5t1 -4.5q1 0 3.5 -1t5.5 -2t5.5 -2t3.5 -1q2 -3 4 -5t4 -3.5t4.5 -2.5t6.5 -1l2 0.5l2 0.5q8 5 16 9.5t18 5.5q0 2 1.5 4t2.5 3q3 0 5 -2.5t2 -4.5q0 -6 -1.5 -12t-2.5 -11q0 -4 0.5 -7.5t0 -7t-2.5 -6t-5 -5.5h-22q-11 0 -20 0.5t-20 1.5q-1 2 -4 3t-4 2
q-6 2 -9 6t-4 8.5t-1 10v11.5zM155 132q0 6 -1.5 9.5t-4 6t-6 5t-7.5 5.5q-2 1 -4 3t-4.5 3.5t-5.5 3t-6 1.5q0 -2 0.5 -5.5t0.5 -7.5t0.5 -7t0.5 -4q2 -4 6.5 -6t10.5 -4t11.5 -2.5t8.5 -0.5zM161 148q0 -1 0.5 -3t0.5 -4t0.5 -4.5l0.5 -2.5q0 -1 0.5 -2l0.5 -1h24q1 0 2 3
l2 6t1 6.5v3.5v7q0 3 -2 5q-1 0 -5.5 -1.5t-10 -4t-9.5 -5t-5 -3.5zM126 88q0 6 3.5 9t8.5 4t10.5 1h9.5h6t8 -0.5t7 -2.5t3 -5q0 -8 -1 -13.5t-3.5 -9t-7.5 -4.5t-13 -1h-2q-1 0 -3.5 0.5t-5.5 1t-5.5 1t-3.5 0.5q-4 4 -7.5 8.5t-3.5 10.5zM135 89q0 -5 2.5 -8t5.5 -4
t7 -1.5t9 -0.5h4h4q4 3 4.5 6t0.5 7v3v2l-3 1h-30l-3 -1l-0.5 -1.5t-0.5 -2.5zM153 42q5 0 10 1.5t9.5 4l9 5t7.5 5.5q3 1 6 4.5t6 3.5t4 -1t1 -4q0 -4 -4 -7t-9 -5.5t-11.5 -4.5t-11.5 -4.5t-8.5 -6t-3.5 -8.5v-3v-2v-1.5t0.5 -3t0.5 -3v-1.5q0 -2 -1.5 -3.5t-3.5 -1.5h-1
l-2 2l-3 3q1 3 1 7t-0.5 7.5t-2.5 6t-5 4.5q-3 1 -7 2.5t-8.5 3.5t-8 3.5l-3.5 1.5q-2 0 -4 0.5t-4 1.5t-3.5 2.5t-1.5 4.5q0 2 2 2h4q5 0 11 -2.5t11.5 -5.5t11.5 -5.5t12 -2.5z" />
</svg>
