<?xml version="1.0" standalone="no"?>
<!DOCTYPE svg PUBLIC "-//W3C//DTD SVG 1.1//EN" "http://www.w3.org/Graphics/SVG/1.1/DTD/svg11.dtd" >
<svg xmlns="http://www.w3.org/2000/svg" xmlns:xlink="http://www.w3.org/1999/xlink" version="1.1" viewBox="-10 0 266 256">
   <path fill="currentColor"
d="M147 233q0 2 0.5 5t1.5 6t3 5t5 2t5 -2t2 -5q0 -8 -0.5 -15t-0.5 -14q0 -10 3 -19q1 -2 4 -5t5 -6.5l4 -7t2 -7.5q1 -5 -2 -9l-6 -8t-6 -8.5t-3 -8.5q0 -2 2 -3t4.5 -2t4.5 -2t2 -4v-34q0 -1 -1.5 -2t-2.5 -1v0q-3 0 -3.5 1.5t-2 3.5t-4.5 3.5t-9 1.5h-7q0 -2 -1 -5
t-4 -3q-1 0 -2.5 0.5t-1.5 1.5v3v4v4v3l-0.5 2t-1.5 2v1v1q1 0 1.5 3.5l0.5 3.5q1 6 3.5 9t6 4.5t5.5 2.5t2 2q0 2 -1.5 6.5t-4 9t-5 8t-4.5 5.5l-4 2t-4.5 2.5t-4.5 3t-2 3.5q0 4 5 4t9.5 -3.5t8 -8.5t6.5 -8.5t5 -3.5q3 0 4 1.5t2 3.5t1.5 4.5t0.5 3.5v0q-2 5 -5 9
t-5.5 8.5l-5 9t-2.5 8.5q0 1 -0.5 4t-0.5 7t-0.5 7.5t-0.5 5.5v4zM83 210q0 3 -0.5 9t0 12.5t2.5 11.5t7 5h2q2 0 3 -2v-4.5v-4.5q0 -8 -1 -15.5t-1 -14.5q0 -9 3 -14.5t7 -10t7 -8.5t3 -9q0 -4 -1.5 -7.5t-2.5 -6.5t-2.5 -6t-1.5 -7q0 -2 1.5 -3t3.5 -2l4 -2t4 -3t3 -6
t1.5 -8t0 -8t-0.5 -8v-6q-1 -2 -2 -2.5t-2 -0.5q-3 0 -4 2t-1.5 3.5t-1.5 3.5t-3 2h-16q-1 0 -2.5 -2t-2.5 -4l-2 -4l-1 -2q0 -1 1 -3.5t3 -5t4.5 -4t3.5 -1.5q3 0 5 1t5 1h2q3 -1 9.5 -1t13.5 -0.5t13.5 -1t8.5 -0.5q1 -1 1.5 -2t0.5 -2q0 -2 -2 -3t-5 -1h-5.5h-2.5
q-8 0 -15.5 0.5t-15.5 0.5h-5q-2 0 -2 -1v-2t3.5 -6.5t8.5 -12t9.5 -11t5.5 -4.5h3q3 3 6 6.5l6 7t5.5 7t6.5 6.5q1 1 3.5 3t2.5 3q4 5 7.5 10t6.5 10.5t6.5 10t9.5 8.5h1h1q4 0 6 -1t4 -5q-3 -6 -7.5 -10.5l-8.5 -8.5q-8 -10 -16.5 -19.5t-16.5 -18.5q-3 -3 -5 -6t-4 -6.5
t-4.5 -6.5t-5.5 -5q-2 -2 -3 -2h-4h-3.5t-3.5 2q-6 8 -11.5 18t-12.5 18q-8 8 -13.5 16t-11.5 17q-1 2 -5 5l-8 6t-7 5.5t-3 4.5v3t2 2h3q4 0 6.5 -1.5t5 -4l4 -4t4.5 -1.5t4 4t1.5 9.5t0.5 10.5t1 6q1 2 3.5 3t4.5 2t4 2.5t2 4.5q0 4 -3 7t-7.5 6t-10 5t-10 4.5t-7.5 5
t-3 4.5q0 3 2 3h4q5 0 9.5 -3t8.5 -6.5t8 -6.5t9 -2q3 1 4 4.5t1 5.5v1v1q-6 5 -10 9.5t-6 9t-3 10t-1 12.5zM92 115v-2.5v-2.5q4 -1 9 -2.5t10 -1.5q2 0 3 0.5t1 3.5v4t-0.5 4.5t-1 4.5t-3.5 2q0 1 -3 1h-3q-6 0 -9 -2.5t-3 -8.5zM145 117q0 -7 4 -9t10 -2q5 0 6 2.5t1 7.5
v2v3q-4 5 -9 5q-4 0 -8 -2.5t-4 -6.5z" />
</svg>
