<?xml version="1.0" standalone="no"?>
<!DOCTYPE svg PUBLIC "-//W3C//DTD SVG 1.1//EN" "http://www.w3.org/Graphics/SVG/1.1/DTD/svg11.dtd" >
<svg xmlns="http://www.w3.org/2000/svg" xmlns:xlink="http://www.w3.org/1999/xlink" version="1.1" viewBox="-10 0 266 256">
   <path fill="currentColor"
d="M192 249q1 2 3 2t4 -2.5t2 -4.5q0 -1 0.5 -5t0.5 -5q0 -6 -1 -11t-2.5 -10.5t-2.5 -10.5t-1 -10q0 -4 1 -6t3 -4t3 -4.5t1 -7.5q0 -11 -6 -18t-18 -7v2l3 3t4 4.5t4.5 5l3.5 3.5t1 2.5v3.5t-0.5 4.5t-3.5 2.5q-2 0 -4 -4t-6 -8.5t-9.5 -8.5t-12.5 -4l-0.5 0.5l-0.5 0.5
l-0.5 0.5l-0.5 0.5q0 1 1 3t2.5 3l3 2t2.5 0q1 1 3.5 3t4.5 4.5l4 5t3 5.5q0 2 -2 3.5t-3 1.5q-2 0 -4.5 -1.5l-5 -3t-4 -3.5t-2.5 -2q-2 0 -2 2v3q0 4 3 6.5t7 3.5t8.5 1.5t7.5 -0.5l1 2l4 28t3 29zM83 241q0 1 1.5 3t2.5 2q2 0 3.5 -1.5t2 -3.5l1 -4t0.5 -4v-1
q0 -1 -0.5 -3l-0.5 -2q-1 -3 -1.5 -8.5t-1.5 -11.5t-1.5 -11t-0.5 -6q-1 -17 -1.5 -37t-0.5 -37v-8v-10.5v-10.5v-7q2 -2 2.5 -7.5t1 -12t0.5 -12.5v-8q0 -8 -4 -12t-10 -6t-12 -2.5t-12 -0.5q-3 0 -3.5 1t-0.5 4q0 2 1.5 3.5t4 2t5.5 0.5h3v2v2v2.5v1.5q0 1 -0.5 3.5
t-1.5 6t-1.5 6t-1.5 3.5q-1 8 -1 17v17l-2 30t-1 31l0.5 2.5t0.5 3.5q0 19 0.5 38t1.5 37q0 2 1.5 2h2.5q3 0 4.5 -2t1.5 -5q0 -21 -1 -41.5t-1 -41.5v-37q0 -4 0.5 -11t1 -15.5l1 -17t1.5 -15.5t2.5 -11.5t3.5 -4.5q1 0 2 1.5l2 3t1.5 3t0.5 2.5t-0.5 3.5t-0.5 6t-0.5 6
t-0.5 3.5q0 4 0.5 9t-1.5 9v78q2 8 2 16t1 16q0 3 0.5 10t1 15.5t1 15.5t0.5 10zM107 228q0 2 -0.5 5t0 6t1.5 5t4 2h1.5t1.5 -2q0 -1 0.5 -4t0.5 -6.5t0.5 -7t0.5 -4.5v-7v-9t1 -9.5t3 -4.5q2 -1 5.5 -1.5l7 -1t6.5 -1t4 -0.5q2 -1 3.5 -3t1.5 -5q0 -2 -2 -2.5t-4 -0.5
t-3.5 1t-3 2.5t-3 2.5t-3.5 1q-4 0 -4 -5q0 -3 2.5 -5t5.5 -4t5.5 -4.5t2.5 -5.5q0 -2 -0.5 -3t-2.5 -1q-4 0 -7.5 3t-6.5 7.5t-5 8.5t-3 7h-2h-1q-4 0 -4.5 -3t-0.5 -7v-4t1 -4q1 0 3 -2.5t4.5 -4.5t4.5 -4l3 -3v-4q-4 0 -8.5 2.5t-8 6t-5.5 8t-2 7.5q0 5 1.5 7.5l3 5l3 5
t1.5 5.5q0 9 -1.5 17.5t-1.5 17.5zM115 137q3 1 5.5 2t4.5 1h4.5h5.5q9 0 17.5 -1t18.5 -2q12 -4 15.5 -12t3.5 -20q0 -8 -1 -14.5t-4 -10.5t-8.5 -5.5t-14.5 -1.5q-2 0 -2 -2v-3v-3t3 -1h37q2 0 5 -1t3 -4q0 -2 -1 -3t-3 -1.5t-3 -0.5h-3h-14t-20.5 0.5t-23.5 1.5t-22 2
t-16 3t-6 4t0.5 3t2.5 0l29 -3q3 0 4 2.5t1 4.5q0 3 -2 4t-5.5 2t-7.5 2.5t-7 3.5t-5 6t-2 11v9.5t1.5 10t3.5 9t6 7.5zM113 119q0 -3 3.5 -5.5t8 -5.5t8.5 -7t6 -9q1 -1 1.5 -3t2 -3.5l3 -3t3.5 -1.5t2.5 1.5l1 3t0.5 2.5v3q1 0 2 1.5t3 3.5t4 3.5t3 2.5l1.5 1l3 2l3 2
l1.5 1q1 1 2.5 3t2.5 2v1q0 1 -0.5 2.5t-1 3.5t-2 3t-2.5 1t-2 -0.5t-2 -0.5q0 2 -1.5 3.5l-2.5 2.5q-5 1 -9 1t-7.5 0.5t-7.5 0.5h-8h-3h-4h-3.5h-2.5q-5 -2 -6 -5t-1 -7zM124 123q0 2 1.5 2.5t2.5 0.5h2q2 -1 3.5 -2.5l3 -3t4 -2t5.5 -0.5h1q4 1 8.5 3t8.5 2h1
q0 -1 1.5 -1.5l1.5 -0.5v-1q0 -2 -3 -4t-7 -3.5t-8 -2t-5 -0.5h-4q-1 0 -3 1.5l-4 3t-3.5 3l-2.5 2.5l-3 3h-0.5h-0.5zM113 98q0 -7 4 -9.5t10 -2.5q2 0 2.5 1t0.5 2q0 2 -1.5 4.5t-3.5 4l-4 3t-4 1.5q-3 0 -3.5 -1t-0.5 -3zM163 92q-2 -2 -2 -5t2.5 -3.5t4.5 -0.5
q5 0 8 1.5t3 6.5v3v2t-0.5 2t-1.5 1h-1v0q-1 -1 -2.5 -1.5t-4 -1.5t-4 -2t-2.5 -2zM139 70l0.5 -0.5l1.5 -1.5l1.5 -0.5l1.5 -0.5q2 0 4 1t2 4q0 2 -2 2.5t-3 0.5q-2 0 -4 -1t-2 -4zM101 49v3t1 2h7q3 0 7 -0.5t8 -2t7.5 -4t4.5 -6.5v-8v-5.5t-0.5 -7t-1.5 -6t-4 -2.5
q-2 0 -3 0.5t-1 3.5v3v5v5v3q0 5 -2 7.5t-5 3.5t-6 1.5t-6 0.5t-4.5 1t-1.5 3zM153 17q0 15 6 22t20 7h4t3.5 -0.5t2.5 -1.5t1 -4v-1v-1h-4t-6.5 -0.5t-6.5 -1t-5 -1.5q-1 0 -1.5 -1l-0.5 -1v-16q0 -2 -2.5 -4t-4.5 -2h-1q-3 2 -4 2.5t-1 3.5z" />
</svg>
