<?xml version="1.0" standalone="no"?>
<!DOCTYPE svg PUBLIC "-//W3C//DTD SVG 1.1//EN" "http://www.w3.org/Graphics/SVG/1.1/DTD/svg11.dtd" >
<svg xmlns="http://www.w3.org/2000/svg" xmlns:xlink="http://www.w3.org/1999/xlink" version="1.1" viewBox="-10 0 266 256">
   <path fill="currentColor"
d="M128 243v4q0 3 3 3q2 0 3 -1t2 -2.5t1.5 -3.5t0.5 -3q0 -20 0.5 -39.5t2.5 -39.5q0 -3 3 -3.5t5 -0.5q1 0 3 0.5l2 0.5q1 0 1.5 2.5t0.5 3.5q0 14 1 28l2 28v25q-1 3 0.5 4t3.5 1q4 0 4.5 -2t0.5 -4v-4q-1 -3 -1 -8.5t-0.5 -12.5t-1 -15t-1 -15t-1 -13t-0.5 -8
q0 -5 1.5 -8.5t7.5 -3.5q5 0 11.5 1t11.5 4l3 3t4 5t4 5t3 2q3 0 3 -2v-4q0 -5 -3.5 -9t-9 -7t-11.5 -4.5t-11 -1.5q-13 0 -26.5 2.5t-27.5 2.5q-5 0 -9.5 -3t-8 -7t-7 -7t-6.5 -3q0 3 2 7.5t5.5 8.5t6.5 6.5t5 2.5h19l2 3v1.5t0.5 4t0.5 5v4.5l0.5 1t0.5 2q0 16 -3 32
t-3 32zM47 215v25h1h1q3 0 4.5 -2.5t3.5 -5.5q2 -42 3 -82t3 -81q1 -3 1 -8t0.5 -11.5t0.5 -12v-7.5l1 -0.5l1 -0.5v-0.5t1 -0.5l0.5 0.5l0.5 0.5l3 1t4 2l0.5 0.5l0.5 0.5v47q0 1 -0.5 3.5t-0.5 3.5v4v8v7v5l-0.5 4l-1 8t-0.5 8v5v51v51q0 2 1.5 2h2.5q4 0 5 -3.5t1 -6.5
q0 -16 -2 -31t-2 -31q0 -15 1 -30l2 -30l2 -30t1 -30v-7.5t-0.5 -8t-2.5 -6.5t-6 -4q-8 -1 -14 -1.5t-14 -0.5h-4t-2 3t1.5 3.5t3.5 0.5t3.5 1t1.5 4v5q0 6 -0.5 19.5t-1 30.5t-1 36t-1.5 36t-1 30.5t-1 20.5v5zM188 233q0 1 1.5 2t1.5 2h1h1q2 -1 2 -2v-12
q0 -11 -1.5 -22.5t-3.5 -22.5q0 -1 -1 -1.5l-1 -0.5h-1q-2 0 -2.5 2l-1 4t-0.5 5v3v2.5v1.5q0 3 1 8.5t1.5 11.5t1.5 11.5t1 7.5zM104 185q1 6 0.5 11.5t-2 11t-2.5 11t-1 11.5q3 0 5.5 -2.5t4 -6t2 -7.5t0.5 -6t0.5 -6t0.5 -8v-9v-6q-3 0 -4.5 1.5t-3.5 4.5zM157 114v4
t-0.5 7t-0.5 7v4v6q3 0 4.5 -1.5t2 -3.5t1 -4.5l1 -5t4.5 -3t8 -2t7.5 -5t3.5 -11.5q0 -9 -5 -12.5t-12 -4.5t-15 -0.5t-14 0.5q-4 -2 -4 -7q0 -3 5.5 -6.5t12.5 -6.5t13.5 -5t8.5 -2q4 0 6.5 3.5t5 9t4 12.5t3 12.5t2 10t1.5 4.5l1.5 0.5l3 1t2.5 0.5h2q0 -10 -2 -19
t-7 -18q-1 -2 -2.5 -4t-3.5 -4t-3 -4.5t-1 -4.5q0 -3 1.5 -5.5t3.5 -5t3.5 -5.5t1.5 -6v-27q0 -1 -2 -1.5l-2 -0.5q-1 0 -3 0.5t-2 1.5v24l-1.5 3t-3.5 5q-3 6 -8.5 9t-12 5t-13 3.5t-11.5 4.5q-3 1 -6.5 3t-7.5 3.5t-7 3t-4 2.5q-10 6 -16 14.5t-11 18.5q1 2 1.5 2h1.5
q3 0 6.5 -5t8 -11t9 -11t10.5 -5q4 0 6 2.5t2 5.5q0 5 -4 6.5t-8.5 3.5t-8.5 5.5t-4 11.5t4 11.5t12 3.5h7q4 -2 6 -5.5t2.5 -7.5t0.5 -8v-9q1 -3 4.5 -5t6.5 -2q2 0 2.5 0.5l1.5 1.5v3.5t0.5 5t0.5 5v3.5zM115 117q0 -5 4.5 -9t9.5 -4q4 0 4.5 3t0.5 5q0 5 -2 9.5t-8 4.5
q-4 0 -6.5 -2t-2.5 -7zM164 106q0 -3 1 -6t4 -3q6 0 9.5 2.5t3.5 7.5t-4 8t-9 3q-2 0 -3 -1.5t-1.5 -3.5t-0.5 -4v-3zM106 43v5.5t1 6.5t3 6t5 3t3 -3q0 -6 -2 -10.5t-2 -9.5q0 -1 0.5 -3t0.5 -3q1 -2 4.5 -3t3.5 -2h1q3 0 5.5 3.5t4.5 8.5t4.5 8.5t7.5 3.5q0 -3 -1 -6.5
t-2.5 -6.5l-3 -6t-1.5 -6t2.5 -3.5t5.5 -0.5q4 0 6.5 3.5t4.5 7.5t4.5 7.5t6.5 3.5q2 0 2.5 -1t0.5 -2q0 -3 -1.5 -5.5t-3.5 -4.5t-3.5 -4t-1.5 -5q0 -4 2 -4.5t5.5 -0.5t5.5 -1t2 -6q-14 0 -28.5 3.5t-27.5 6.5q-14 5 -14 20z" />
</svg>
