<?xml version="1.0" standalone="no"?>
<!DOCTYPE svg PUBLIC "-//W3C//DTD SVG 1.1//EN" "http://www.w3.org/Graphics/SVG/1.1/DTD/svg11.dtd" >
<svg xmlns="http://www.w3.org/2000/svg" xmlns:xlink="http://www.w3.org/1999/xlink" version="1.1" viewBox="-10 0 266 256">
   <path fill="currentColor"
d="M171 248q0 2 2 2.5t3 0.5q3 0 5 -1t3 -4q1 -6 1.5 -10t0.5 -8v-8v-9v-8t-2 -8v-50h28l1 -1.5t1 -2.5v-0.5v-1.5t-1.5 -2t-3 -1h-3h-2.5q-4 0 -7.5 1t-7.5 1t-4.5 -2.5t-0.5 -4.5q0 -5 1.5 -7t4 -3t5.5 -2t5.5 -3t4 -5.5t1.5 -10.5v-6q-1 -2 -2.5 -2h-2.5h-2t-2 2
q1 2 1 5.5t-0.5 6.5t-2.5 5.5t-6 2.5h-1.5h-1.5q0 -2 -0.5 -4.5t-0.5 -6t-0.5 -6t-0.5 -3.5v-1v-1q1 -1 1.5 -4.5t0.5 -5.5q7 -2 9.5 -4.5t4 -6t2.5 -8t4 -9.5h3h4t3 -1t1 -3t-1.5 -4t-3.5 -2q-1 0 -6 0.5t-11.5 1t-13.5 1.5t-13.5 2t-10.5 1.5l-4 0.5q-1 1 -1 2.5v1.5h10
q0 3 -0.5 5t-0.5 4t0.5 4.5t1.5 5.5q0 2 2.5 3t4.5 2l4 2t2 3v27q0 2 -1 2.5t-2 0.5q-4 0 -6.5 -2t-4 -5t-2 -6.5t-0.5 -6.5q-1 0 -1.5 -0.5t-1.5 -0.5q-3 0 -3.5 2t-0.5 5q0 8 1.5 12t4 5.5t5.5 2t5 0.5t4 1.5t2 6.5q0 1 -0.5 3l-0.5 2q0 1 -0.5 2l-0.5 1h-23l-2 1.5
t-3 1.5l-1.5 1.5l-0.5 0.5v0.5v0.5v0.5v0.5l1.5 0.5l1.5 0.5q4 0 9 -0.5t10 0t9 3t4 7.5q0 17 -1.5 36t-2.5 36q0 2 -0.5 4.5t-1 6t-1 6.5t-0.5 5zM67 177q0 15 0.5 30.5t1.5 30.5q0 2 1.5 5.5t5.5 3.5q3 0 4 -3t1 -5q0 -21 -1.5 -41t-0.5 -41l-1.5 -4.5t-0.5 -4.5t0.5 -4.5
l1.5 -4.5q-1 -19 -0.5 -36t2.5 -35q1 -11 3.5 -21.5t2.5 -21.5q0 -4 -2.5 -6.5t-6.5 -3t-8.5 -0.5h-7.5h-4h-6t-5.5 1t-2.5 3q0 1 1.5 2l3 2t2.5 1.5t2 0.5v6q0 7 -1.5 14.5t-2.5 15.5q-2 35 -4.5 69.5t-2.5 69.5v7t0.5 10.5t0.5 9.5v7q1 2 2 3t2 1q3 0 5 -1.5t2 -3.5
q-1 -45 1.5 -89t5.5 -88v-8q0 -5 1 -10.5t3.5 -10t6.5 -4.5q3 0 3.5 1.5t0.5 3.5v3q0 3 -0.5 9.5t-1.5 14t-1.5 14t-0.5 8.5q-2 7 -2.5 14t-0.5 15v15v13v5.5t-0.5 8t-1 8.5t-0.5 5v16zM118 239q0 3 1 4t4 1t4 -2t3 -4q1 -5 1 -9t0.5 -8t0.5 -8v-9v-16v-16.5t-0.5 -16.5
t-3.5 -16q-2 -5 -4.5 -8t-6 -4t-6.5 -2.5t-6 -4t-4.5 -8t-1.5 -15.5v-8.5t1 -12t2 -12t3 -6.5q3 -3 9.5 -4t13.5 -2t12.5 -3t5.5 -6v-18q0 -1 -2.5 -2.5t-3.5 -2.5h-16h-13t-12 2q-1 0 -2.5 0.5l-1.5 0.5q0 1 -0.5 2.5l-0.5 1.5h14l0.5 2.5t0.5 5.5v5q-1 4 -2.5 6.5t-3.5 5
l-4 5t-4 6.5q-3 8 -3 18v19q0 10 1.5 16t4 9t5.5 4.5t6.5 3.5t6 5t4.5 8t2 12v12q0 15 -1 29.5t-1 29.5l-1.5 6t-0.5 4zM112 89v7q0 4 0.5 8t2.5 7t6 3q5 0 8.5 -1t8.5 -2q1 0 3 -2.5t2 -3.5q1 0 1.5 -1.5l0.5 -1.5v-33l-1.5 -0.5t-2.5 -0.5v-1q-2 0 -2.5 2.5t-0.5 4.5
t-0.5 4t-2.5 2h-13q-1 0 -1.5 -1.5l-1 -3l-1 -3t-2.5 -1.5t-3 2.5t-1 5.5v6v4zM120 91q0 -3 3 -3.5t6 -0.5q4 0 6 3t2 6q0 4 -2.5 6.5t-6.5 2.5q-2 0 -3.5 -1.5t-2.5 -3.5t-1.5 -4.5t-0.5 -4.5zM168 65v-2q0 -1 0.5 -3.5t0.5 -3.5q1 0 3.5 -0.5t5 -0.5t5 -0.5t3.5 -0.5
q4 0 5.5 2.5t1.5 5.5q0 6 -2.5 9t-8.5 3q-2 0 -4.5 -0.5t-5 -1.5t-3.5 -3t-1 -4zM117 41q0 -9 4 -12t11 -3h1q2 1 3.5 1.5l1.5 0.5v13q0 1 -1.5 1.5t-4 1t-4.5 1t-3 0.5q-2 0 -5 -1t-3 -3zM161 29v1l1 0.5l1 0.5h5q11 0 19.5 -0.5t19.5 -0.5q1 0 1.5 -0.5t0.5 -1.5v-0.5
v-0.5q0 -3 -2.5 -3.5t-4.5 -0.5h-8q-7 0 -14 0.5t-13 2t-6 3.5z" />
</svg>
