<?xml version="1.0" standalone="no"?>
<!DOCTYPE svg PUBLIC "-//W3C//DTD SVG 1.1//EN" "http://www.w3.org/Graphics/SVG/1.1/DTD/svg11.dtd" >
<svg xmlns="http://www.w3.org/2000/svg" xmlns:xlink="http://www.w3.org/1999/xlink" version="1.1" viewBox="-10 0 266 256">
   <path fill="currentColor"
d="M117 212q0 1 0.5 4t1 6.5t1 6.5t0.5 4q1 3 1.5 6t2 5.5t3.5 4.5t5 2h1h2t2 -0.5t1 -1.5q0 -4 -2 -8l-4 -8t-4 -8.5t-2 -9.5q0 -6 3 -10.5t6.5 -8.5t6 -8t2.5 -10q0 -3 -1 -5t-3 -4l-4 -4t-3 -4v-2t0.5 -2l1 -2l0.5 -1v-6q1 -6 3 -8.5t4 -3.5t4 -2.5t3 -5.5q2 -5 2 -11.5
v-11.5v-9q-1 -1 -2 -3t-2 -2q-2 0 -2 2.5t-1 5t-4 5t-10 2.5q-3 0 -4.5 -1.5t-2.5 -3.5l-2 -4t-1 -4h-1q-2 0 -3 0.5t-1 2.5v27q0 4 2.5 6t4.5 3.5t4 3.5t2 4q0 7 -2.5 12.5t-6 9.5t-8 7t-8 6t-6 5.5t-2.5 6.5q6 0 11 -3t8.5 -6.5t6.5 -6t6 -2.5t6 2.5t3 5.5q0 4 -2 8
t-5.5 8t-6.5 9t-5 10zM168 216q0 4 2 10t5.5 11t8 8.5t9.5 3.5q2 0 3.5 -3t0.5 -5q0 -1 -2 -2l-2 -1q-7 -6 -11 -11.5t-4 -14.5q0 -5 2.5 -9.5t5 -8.5t5 -8.5t2.5 -9.5q0 -4 -2 -7t-4.5 -5.5t-4.5 -5.5t-2 -6v-4t1 -4.5t1.5 -4t0.5 -3.5q1 -2 3 -3t4.5 -2.5t4 -3t1.5 -4.5
v-28q0 -2 2 -2h5t5 -0.5t2 -2.5q0 -3 -2.5 -8t-7 -10t-8.5 -9.5t-6 -6.5q-1 -2 -4.5 -7l-7 -10t-6.5 -10t-4 -7l-1 -1.5l-1 -1.5q0 -1 -1 -2.5t-1.5 -3.5t-1.5 -3.5l-1 -1.5q-1 -2 -2 -2h-3h-1.5t-1.5 2q-9 21 -22 40l-26 38q-1 1 -2 3.5t-1 3.5l0.5 1.5l0.5 1.5h0.5h0.5
h0.5h0.5q6 -5 12.5 -13.5t13 -18t12.5 -19t10 -16.5q1 -2 2 -2h3h2.5t1 0.5t1 1.5t2.5 3l18 26t17 27v0v1v0v0q0 1 -1 2t-2.5 2t-2 2t-1.5 1q0 1 -0.5 2.5l-1 3t-1 2.5t-1.5 1h-15q-2 0 -2 -1.5t-0.5 -3.5l-1 -4t-2.5 -2q-3 0 -3.5 1.5t-0.5 3.5q0 3 1 6t1 6v3l-1 2t0 3
q0 5 2.5 8.5t5.5 5.5t5 4.5t3 6.5q-1 1 -2 3l-2 4t-2 3.5t-1 2.5q-1 3 -4 6t-6.5 6t-6 6t-2.5 6q0 2 1.5 2h2.5h1.5h0.5l15 -15v0h1q4 0 7 3.5t3 7.5q0 5 -2 10t-5 9.5t-5.5 9.5t-2.5 11zM81 243q1 0 2 1.5t2 1.5v0h1q2 0 3.5 -3t1.5 -5v-3t-1 -2q-1 -9 -1.5 -19.5t-0.5 -21
v-20.5v-19v-10v-15v-15.5v-10.5q0 -2 0.5 -6.5t1.5 -11t1.5 -13t1 -12.5t1 -10.5t0.5 -7.5v-2q0 -3 -2 -7.5t-6 -4.5h-38q-2 0 -2 1.5v2.5v1v1q2 0 4 0.5l4 1t3.5 2t1.5 3.5q0 14 -1.5 27.5t-3.5 27t-3.5 27t-1.5 26.5v1v0q0 1 0.5 2t0.5 3t0.5 3.5l0.5 1.5v1q0 13 -1 24.5
t-1 24.5v6v8v9v6q1 2 2 3.5t3 1.5q3 0 4 -1.5t3 -3.5q-1 -42 0 -82.5t3 -81.5q0 -4 0.5 -10.5t2 -13t4 -11t8.5 -4.5q5 0 6.5 4t1.5 8q0 2 -0.5 3l-1.5 3q-3 24 -5 49.5t-2 49.5q0 23 1 45.5t2 45.5zM123 120q0 -3 1.5 -4.5t4 -2.5t5 -1h4.5q3 0 4.5 1t1.5 4q0 5 -3 9t-8 4
q-10 0 -10 -10zM168 118q0 -6 3.5 -7t9.5 -1q3 0 5 2t2 5q0 5 -4 6.5t-8 1.5t-6 -1.5t-2 -5.5zM133 72q0 3 3 3q2 0 8.5 -0.5t13 -1.5t12 -2.5t5.5 -3.5t-1.5 -2.5t-3.5 -0.5q-1 0 -7 0.5t-13 1.5t-12 2t-5 4z" />
</svg>
