<?xml version="1.0" standalone="no"?>
<!DOCTYPE svg PUBLIC "-//W3C//DTD SVG 1.1//EN" "http://www.w3.org/Graphics/SVG/1.1/DTD/svg11.dtd" >
<svg xmlns="http://www.w3.org/2000/svg" xmlns:xlink="http://www.w3.org/1999/xlink" version="1.1" viewBox="-10 0 266 256">
   <path fill="currentColor"
d="M144 193q3 4 10 6.5t14.5 4.5t15 4.5t10.5 8.5q1 2 2 7.5t3 10.5t4 9t5 4q4 0 4 -2v-5q0 -6 -2.5 -11.5t-4.5 -11.5q-1 -4 -6 -8.5t-10.5 -7.5t-9.5 -5t-4 -3v-22q0 -3 4 -4.5t9 -3t9.5 -2.5t4.5 -5v-28q0 -2 -2 -3.5t-4 -1.5t-2.5 4.5t-1 10t-1.5 11.5t-3 8l-1.5 0.5
t-2.5 0.5h-3t-3 -2v-6v-9t0.5 -8t0.5 -8.5t1 -10.5q0 -2 3.5 -2.5t4.5 -0.5q8 -2 12 -7t6 -11t2.5 -13t0.5 -14q-5 0 -7 2.5t-3 7t-1 9.5t-1 9t-3.5 7t-7.5 3h-1q-1 0 -2 -1.5l-1 -1.5v-40q0 -4 -2.5 -6.5l-5 -5t-4.5 -5.5t-2 -7t3 -6t7 -3t8 -1h7q4 0 6.5 2.5t2.5 6.5v1
q-1 5 -3 8t-4.5 5t-4.5 3t-2 2q0 2 1.5 2.5t2.5 0.5q10 0 15 -6t5 -15q0 -6 -1 -9.5t-3.5 -5t-6 -2t-8.5 -0.5h-11t-11 1.5t-8.5 5.5t-3.5 10q0 4 2 8t4 7.5t4.5 7t3.5 4.5v37q0 1 -2.5 2l-2.5 1h-1q-4 0 -5.5 -2t-2.5 -7v-6t-0.5 -10t-0.5 -9.5v-6.5h-5q0 1 -0.5 5t-0.5 8
t-0.5 7.5t-0.5 4.5q0 10 3.5 14.5t7 7t7 4.5t3.5 7q0 3 -0.5 4.5l-1.5 4.5l-4 50v2.5t-0.5 4t-1.5 4t-2 1.5q-2 0 -4.5 -1t-4 -2.5t-3 -3.5t-1.5 -4q0 -12 2.5 -23.5t2.5 -22.5v-4.5t-2 -2.5t-3.5 4.5t-2.5 10.5t-1.5 12t-0.5 7v15v15zM70 170v9v11.5v10.5v5v3.5t0.5 5.5
t0.5 6t1 4v2.5v3.5t1 4t2 2l0.5 0.5l0.5 0.5q2 0 3 -2t1 -4v-17v-26v-26v-17q0 -2 0.5 -8t1 -12.5t1 -12.5t0.5 -8q1 -2 6 -4l10 -4t9.5 -3t5.5 -1v31q-1 0 -3 0.5t-4.5 0.5t-4.5 0.5t-3 0.5q-3 0 -6.5 0.5l-3.5 0.5v5h9l0.5 3t0.5 7.5v7.5q-1 10 -3.5 19.5t-4.5 19.5
t-4 19.5t-2 19.5q3 0 5.5 -1t3.5 -5q3 -15 6 -31t5 -31q1 -3 0.5 -7t-0.5 -7.5t0.5 -7t3.5 -6.5q1 -1 3 -1h4h3t3 1v62q2 4 2.5 10t1.5 12t2 10.5t3 4.5q3 0 4.5 -0.5l4.5 -1.5v-5q0 -6 -1.5 -11.5t-3.5 -11t-3.5 -11t-2.5 -11.5v-2v-5v-6v-4q0 -4 -0.5 -9.5t0 -11t3.5 -9.5
t9 -5v-0.5v-0.5q0 -2 -1 -3t-3 -1h-1l-1.5 0.5t-3 0.5t-2.5 0.5t-2 0.5l-2 -0.5t-3 -1.5l-0.5 -0.5t-0.5 -1.5l1 -22q0 -1 2 -1.5l2 -0.5q5 0 8.5 3.5t6.5 7.5h1q2 0 2.5 -1.5t0.5 -3.5q0 -5 -4.5 -8t-8.5 -5q-5 -2 -6.5 -5.5t-2.5 -7t-2.5 -6t-5.5 -2.5q0 13 -7.5 19
t-19.5 6q0 -7 -0.5 -10.5t-0.5 -6.5t0.5 -6.5t1.5 -9.5t3 -14t2 -15q0 -6 -5.5 -9t-12 -4.5t-13 -1.5h-10.5q-1 0 -3 1t-2 3q0 3 2 4l4 2t4 2.5t2 5.5q0 6 -1 11t-2 10.5t-2 10.5t0 11q-5 40 -7.5 78.5t-2.5 78.5h3t4 -1t3 -2t2 -4q-1 -34 1.5 -67.5t4.5 -68.5
q2 -15 2.5 -30.5t2.5 -31.5q1 0 2 -0.5t2 -0.5h2t4 0.5t3.5 0.5h1.5q0 1 0.5 4t0.5 4q0 6 -1 12l-2 12t-2.5 12t-1.5 11q-1 4 -1.5 12.5t-1.5 18t-1.5 18t-0.5 12.5l-2 1v4v6v8v6zM95 58v1q1 0 2 1.5t2 1.5h3h4q4 0 9.5 -0.5t11 -1.5t10 -4t4.5 -8v-3.5t0.5 -8t0.5 -9.5
t1 -8v-1q0 -2 -2.5 -5t-4.5 -3t-2.5 3t-1 6.5t-0.5 6.5t-1 3h-22q-2 0 -3.5 2t-1.5 3q6 2 12.5 2.5t12.5 -0.5q1 0 1.5 1t0.5 2.5v2.5v1v3v2q-1 0 -3 1l-2 1q-2 0 -6.5 1t-9 2.5t-9 2.5t-6.5 1v1z" />
</svg>
