<?xml version="1.0" standalone="no"?>
<!DOCTYPE svg PUBLIC "-//W3C//DTD SVG 1.1//EN" "http://www.w3.org/Graphics/SVG/1.1/DTD/svg11.dtd" >
<svg xmlns="http://www.w3.org/2000/svg" xmlns:xlink="http://www.w3.org/1999/xlink" version="1.1" viewBox="-10 0 266 256">
   <path fill="currentColor"
d="M79 248q1 2 2 2.5t3 0.5q3 0 4.5 -3t1.5 -5q0 -10 -1 -19.5l-2 -19t-2 -19.5t-1 -19q0 -3 -0.5 -10.5t-0.5 -15.5t-0.5 -15.5t-0.5 -10.5q2 -2 2 -7.5v-12.5v-14.5t0.5 -14t2 -10.5t5.5 -4q2 0 3.5 0.5t2.5 3.5q1 4 1.5 10t0.5 11l2 1.5t4 4t3 4.5t1 4v2.5v3.5t-0.5 3.5
l-0.5 1.5v2q0 3 1 6t1 6q0 2 -2.5 2.5t-3.5 0.5q-2 0 -3 -0.5t-2 -1.5q0 -1 -0.5 -3.5t-0.5 -5t-0.5 -4.5t-0.5 -3q0 -2 -0.5 -2.5t-2.5 -0.5q-3 0 -3.5 2.5t-0.5 5.5q0 9 2.5 13.5t5.5 6.5t5.5 2.5t3.5 1.5l1 17q0 3 -2 4.5t-4 1.5t-2.5 -1.5t-0.5 -3.5t-0.5 -4t-2.5 -2
l-0.5 0.5l-0.5 0.5l-0.5 1t-0.5 2v17q0 8 -0.5 14t1 10t5.5 5.5t13 1.5h7t7.5 -1.5t6 -4t2.5 -7.5l-2 -38q0 -2 -1 -2h-2h-3q0 6 -0.5 9t-5.5 3q-2 0 -3.5 -0.5t-2.5 -3.5q-1 0 -1 -3v-3q0 -8 2 -11t4.5 -4t6 -1t6 -2t4 -6.5t1.5 -13.5q0 -2 -1 -5.5t-3 -3.5t-3.5 1.5
t-1.5 3.5q0 1 -0.5 3t-0.5 4t-0.5 4.5l-0.5 2.5q-1 2 -3.5 3t-4.5 1l-1.5 -0.5t-1.5 -1.5v-29q0 -2 2 -3l4 -2t3.5 -2t1.5 -3l3 -25l2 -2t5 -3.5t5 -3l2 -1.5h0.5h1.5q2 0 4 1.5t2 3.5v30q0 1 0.5 2t1.5 1q0 1 1 1v0v-1q1 0 2.5 -2l1.5 -2v-38q0 -1 -2 -2l-4 -2t-4 -1.5
t-3 -0.5t-3 0.5t-2 2.5v0q0 1 1 2l1 1v1v1q-1 0 -3 0.5t-4.5 0.5t-4 0.5t-2.5 0.5t-3.5 1l-2.5 1q-1 0 -2.5 -0.5t-3.5 -1t-3.5 -0.5h-1.5h-2t-3 0.5t-3.5 1l-1.5 0.5h-4q-1 0 -3.5 -0.5t-4.5 -1.5t-3.5 -2.5t-1.5 -3.5v-1l0.5 -2t0.5 -4t0.5 -4t0.5 -3q0 -2 -1.5 -3.5
t-3.5 -2.5t-4 -1.5t-4 -0.5h-6.5t-9.5 0.5t-8.5 2t-3.5 5.5q0 2 1 3t2.5 2t3 2.5t1.5 4.5t-1 7t-1 7v11v18.5t-0.5 22.5t-0.5 22.5t-0.5 18.5t-0.5 10q0 12 -0.5 24t-0.5 24q0 9 1 19t0 20q2 4 5 4q2 0 3 -1.5t2 -3.5q-1 -43 0.5 -86t0.5 -87q2 -3 1.5 -9.5t-0.5 -12.5
q0 -7 1.5 -12t6.5 -5q2 0 3 2.5t1.5 5t0 5.5t-0.5 4q0 19 -1 38t-1 38q0 16 1.5 32.5t2.5 33t1.5 32.5t-0.5 32zM139 246q0 2 0.5 3t2.5 1l0.5 -0.5l0.5 -0.5q1 0 3 -2l2 -2v-92q0 -3 1 -8.5t2.5 -11.5t4.5 -10.5t7 -4.5h1l1.5 1t1.5 2v17q0 2 -1.5 2h-1.5q-3 0 -3.5 -1.5
t-3.5 -1.5t-3 4v1l0.5 2t0.5 4t0.5 4t0.5 3v5t0.5 8.5t0.5 8v5.5q2 5 6.5 6.5t9.5 1.5h6.5t6.5 -1.5t5 -3.5t2 -6v-45q0 -3 -0.5 -3.5t-2.5 -0.5t-2.5 1.5l-1 3t-1.5 3t-3 1.5t-3 -1.5t-3 -3.5q0 -7 -1 -12.5t-1 -11.5q0 -4 1.5 -6t4 -3t5.5 -1.5t5 -2.5q1 -1 3 -2.5t4 -2.5
q8 -6 10 -13.5t2 -17.5v-3v-3.5v-3.5v-3q-1 -2 -2 -2.5t-3 -0.5h-1.5t-1.5 2q0 5 -1 13.5t-3.5 16t-7 13t-12.5 5.5q0 -3 -0.5 -8t-0.5 -12v-11.5v-7.5l2 -18t1 -18v-1l-3 -3t-4 -2q-3 0 -4 2.5t-1 4.5q0 13 0.5 26.5t0.5 26.5v4v6.5v6.5v4q-2 7 -4 11t-4 6t-3.5 2h-3.5
t-3 0.5t-2 3.5q-5 14 -6.5 30t-2.5 32t-0.5 32.5t0.5 30.5v3zM198 247q0 2 1 2.5t3 0.5q5 0 5 -7v-97q-1 -5 -1 -11.5t-1.5 -12t-5.5 -9.5t-12 -4q-3 0 -4 1t-1 4v1v1q5 -1 9.5 2.5t5.5 8.5l2 39v6v10v14.5v14.5v10v4.5v8t-0.5 8t-0.5 5.5zM99 178q0 -8 1.5 -11.5t4 -5t7 -2
t11.5 -0.5q1 0 3.5 0.5t2.5 3.5v17q0 2 -2.5 3t-6.5 1.5t-7 0.5h-4q-4 0 -7 -2t-3 -5zM163 176q0 -3 3 -4.5t7 -2t7.5 -0.5h5.5v11q0 1 -1.5 1.5t-2.5 0.5h-2.5h-3.5h-4t-4 -0.5t-3.5 -1.5t-1.5 -4zM163 158q0 -6 3.5 -9t9.5 -3q4 0 7 2.5t3 6.5v2.5v1.5q-4 3 -9 3.5t-9 0.5
q-2 0 -3.5 -1t-1.5 -4zM140 67q0 3 1 7.5t3 9t5 7.5t7 3q1 0 3 -0.5t2 -2.5v-1q-6 -2 -8.5 -5t-4 -7t-1.5 -9t-1 -11l-0.5 -0.5t-0.5 -1.5h-1q-1 0 -2 1.5t-1.5 3.5t-0.5 3v2v1zM186 52q0 7 -0.5 13.5t1.5 13.5h2h1.5t1.5 -2v-7.5t0.5 -9.5l1 -10t1.5 -8q1 -2 2.5 -3t3 -1.5
t2.5 -1.5t1 -4t-0.5 -4t-3.5 -1q-4 0 -8.5 3t-5.5 7v15zM106 67v-7.5t2 -7.5q1 -2 3 -2h4h3.5t2.5 2l0.5 2t0.5 4.5t0.5 4.5t0.5 3v3q0 3 -2 4t-5 1q-4 0 -7 -1.5t-3 -5.5zM98 27v0q0 1 0.5 2t1.5 2h3.5h4.5h7t5.5 -0.5t6 -0.5t7.5 -1q3 -2 3 -5q0 -2 -2 -3h-6h-7t-10.5 1
t-9.5 2t-4 3z" />
</svg>
