<?xml version="1.0" standalone="no"?>
<!DOCTYPE svg PUBLIC "-//W3C//DTD SVG 1.1//EN" "http://www.w3.org/Graphics/SVG/1.1/DTD/svg11.dtd" >
<svg xmlns="http://www.w3.org/2000/svg" xmlns:xlink="http://www.w3.org/1999/xlink" version="1.1" viewBox="-10 0 266 256">
   <path fill="currentColor"
d="M115 225q0 7 0.5 12t1.5 12q1 0 1.5 0.5t1.5 0.5q2 0 3 -2t1 -4v-1q0 -1 -0.5 -2.5t-0.5 -3t-0.5 -3l-0.5 -1.5v-1q0 -4 0.5 -10.5t2.5 -9.5t5 -4.5t6.5 -3.5t6 -4t2.5 -5v-31l0.5 -0.5l1 -1t3 -1t3.5 -0.5h1h1q1 0 2 1t1 2t0.5 3.5t0.5 5.5t0.5 5.5t0.5 3.5
q1 9 3.5 12.5t6 5t6 2.5t2.5 4t-2 4.5t-5 2.5t-6.5 2.5t-7 3.5t-5.5 4.5t-2 6.5v2v1q2 4 3 7t2 4.5t3.5 2.5t5.5 1q0 -2 -1 -4.5t-2.5 -4.5t-2.5 -4t-1 -4q0 -5 2 -6.5t6 -1.5h3q3 2 6.5 6.5t7.5 9t8.5 7.5t8.5 3t4 -3q0 -2 -1.5 -4t-3.5 -3.5t-4 -2.5t-3 -2l-3 -3t-4.5 -4
t-4 -4l-1.5 -2v-3q1 0 2.5 -1t2.5 -2.5l2 -3t2 -1.5v-1.5v-1.5q0 -5 -3.5 -7.5t-7 -4t-6.5 -3.5t-3 -6v-2q6 -1 11 -1.5t9 -2t6 -5.5t2 -11q0 -2 -2 -5t-5 -3h-28q-2 0 -2.5 -1t-0.5 -2q0 -2 1.5 -3t4 -1.5l5 -1t5 -2t4 -4.5t1.5 -8q0 -4 -1.5 -5.5t-4 -2t-5.5 -0.5t-5 -2
v-2v-2q0 -4 1 -5t5 -1h3h2l3.5 3.5l5 5l5 5l3.5 3.5q2 2 6 2h6q0 -4 -2.5 -6.5t-6 -4t-6 -3t-2.5 -5.5q0 -3 1.5 -6t1.5 -7t-2.5 -5t-6 -1.5t-6.5 -1.5t-3 -5v-1q4 -1 9.5 -1.5t10.5 -2t8 -5t3 -9.5v-3t-0.5 -5t-1.5 -5t-2 -2h-37q-2 0 -3.5 -2t-1.5 -4q0 -4 2.5 -6t6 -2.5
t7.5 -1t7.5 -1.5t6 -3.5t2.5 -7.5t-2.5 -7.5t-6.5 -3.5t-8 -1.5t-7 -0.5h-2q-3 0 -6 -0.5t-6 -0.5h-5h-5t-6 0.5t-5 0.5h-3h-2.5t-3 0.5t-3 0.5h-1.5v5h15q1 0 2.5 2.5l1.5 2.5v1q0 3 -1 7.5t-4 6.5h-4q-4 0 -7.5 0.5t-6 2t-2.5 4.5q10 0 15.5 -0.5t8.5 -2.5t4.5 -7.5
t4.5 -14.5l3 -2h25q1 0 2.5 1l3 2t2 2.5t0.5 2.5q0 4 -3 5.5t-7 2t-8.5 1t-6.5 1.5q-3 3 -4 7l-2 8q-1 3 -7 4t-12.5 2t-11.5 2t-5 4v16l1 2t2 3l0.5 1l0.5 1h22q2 0 3 1.5t1 2.5q0 3 -3.5 4.5t-5.5 2.5q-1 0 -3.5 0.5l-5 1l-5 1t-3.5 0.5q-2 1 -4 4.5t-2 5.5v20h5v-20
q0 -4 3 -4.5t5 -0.5q3 0 6 2t5.5 5t4.5 6.5t2 7.5h-15v1v1q1 1 2.5 1.5l3 1t2.5 1.5t1 2q0 3 -1.5 4t-3.5 1q-1 1 -4 1.5t-6 1.5t-6 1.5t-4 0.5l-2 2q1 2 2 2h2h2h1q1 0 4 -0.5t6.5 -1t6.5 -1t4 -1.5q1 0 2.5 -2t3 -4.5t3 -4.5l1.5 -2h23q1 0 2 1.5t2 1.5v1q0 3 -2 4l-4 2
t-4 1t-4 1t-3.5 2.5t-3 3.5t-3 3.5l-3.5 3.5h-11q-5 0 -9.5 1.5t-7.5 4.5t-3 10v5q2 4 6.5 4.5t8.5 1t7 1.5t3 4q0 6 -3 8t-7 4t-8 6t-6 14v2v3zM89 244q0 1 0.5 1.5t1.5 0.5q2 0 4.5 -2t2.5 -5q0 -24 -3 -48t-3 -48q0 -14 1 -28t2.5 -27.5t2.5 -27.5t1 -27q0 -2 -6 -4
t-13.5 -3.5t-14 -2t-8.5 -0.5h-1q0 1 -1.5 2l-1.5 1v1q0 3 2 3.5t4 0.5h4t3 2v3v3v4v2q0 17 -2 34t-3 34q-2 25 -2.5 50t-0.5 50v2v4.5t0.5 7t0.5 6.5v5t1.5 2.5t2.5 0.5q6 0 6 -7v-2.5t-0.5 -5t-0.5 -5v-3.5v-1v-3q0 -10 0.5 -20t0.5 -20q0 -3 -0.5 -6.5t-0.5 -7.5
q0 -13 0.5 -27.5l1 -29t1.5 -28.5t1 -27q1 -1 1 -3t0.5 -4.5t1 -4t1.5 -1.5h13q1 0 1.5 1t0.5 2v3v1v2v2q0 1 -0.5 5.5t-1 10t-1 10t-0.5 5.5q-1 6 -0.5 13t0 14t-1 14.5t-2.5 12.5v23v14v12t0.5 12.5t1.5 14.5q2 3 1.5 6.5t0.5 7.5v5t0.5 6.5t0.5 7v4.5zM119 172
q0 -3 1.5 -5t3.5 -3t4.5 -1.5t4.5 -0.5q4 0 5.5 3.5t1.5 6.5v3t-1 2h-6h-3.5t-5 -0.5t-4 -1.5t-1.5 -3zM165 167q0 -4 4 -5t8 -1t6 1.5t2 5.5q0 6 -3.5 7t-8.5 1l-3 -0.5l-3 -0.5q-2 -2 -2 -4v-4zM137 104q0 -3 0.5 -3t2.5 -3l3 -3l3 -3t1 -2v-31l1.5 -0.5l1.5 -0.5h1h1
l2 0.5t3 0.5q1 1 2 1.5l1 0.5l3 33q1 1 3.5 1.5t5.5 1t5.5 1.5t2.5 5v2.5t-2 2.5h-18q-3 0 -3 2.5t-0.5 6t-2.5 6t-7 2.5q-3 -4 -6.5 -10t-3.5 -11zM115 72q0 -3 1.5 -5.5t4 -3.5t5.5 -1.5t6 -0.5q4 0 6 1.5t2.5 4t0.5 5.5v7h-24q-1 0 -1 -1t-0.5 -2t-0.5 -2v-2zM168 59h20
q1 0 2 1.5t1.5 3t1 2.5t0.5 2t-0.5 2.5l-1 3t-1.5 2.5t-2 1h-20v-18z" />
</svg>
