<?xml version="1.0" standalone="no"?>
<!DOCTYPE svg PUBLIC "-//W3C//DTD SVG 1.1//EN" "http://www.w3.org/Graphics/SVG/1.1/DTD/svg11.dtd" >
<svg xmlns="http://www.w3.org/2000/svg" xmlns:xlink="http://www.w3.org/1999/xlink" version="1.1" viewBox="-10 0 266 256">
   <path fill="currentColor"
d="M191 246q0 2 1.5 3.5t3.5 1.5q3 0 4 -1.5t1.5 -3.5t0 -4.5t-0.5 -4.5q0 -26 -1 -52l-2 -52q0 -12 -2 -23.5t-2 -23.5q0 -6 2 -11.5t2 -11.5t-3 -9t-7.5 -4.5t-9.5 -2.5t-9 -1q-2 -1 -2 -2v-3q0 -3 3 -4.5t6.5 -2.5t7.5 -1h5l0.5 -0.5t1.5 -0.5q0 -1 0.5 -2l0.5 -1
q0 -1 -1.5 -2.5l-1.5 -1.5h-19v-3t-0.5 -4t-2 -3.5t-3.5 -1.5t-4 1t-2 4v28l-2 1h-2h-4h-3.5h-2.5l-2 0.5t-4 1.5t-3.5 2t-1.5 3l1.5 1t1.5 2h4h3q5 0 9.5 -1t9.5 -1h7.5t8.5 1t7 3.5t3 6.5t-1.5 5.5t-5.5 3.5q-9 -4 -19 -5t-20 -1h-4.5t-4.5 1t-3.5 3t-1.5 5h38l2.5 1.5
t3.5 2.5l2 1v1v1q-5 2 -11 2.5l-12 1t-11.5 0.5h-9.5v1v1q1 0 2 1.5l1 1.5h31q5 -2 8 -2.5t7 -0.5q3 0 4.5 1.5t2.5 3.5t1 5v5q0 4 0.5 11.5t1 16.5t0.5 19t0.5 19t0.5 16.5t1 11.5q0 6 0.5 12.5t0.5 13.5v9.5t-1 10.5zM83 238l2.5 2.5t2.5 1.5q1 -1 3.5 -2t2.5 -2v-5
q0 -7 -0.5 -13.5t-0.5 -13.5v-3v-2l0.5 -3l0.5 -3v-3.5t-0.5 -6t-0.5 -6v-3.5q0 -35 1.5 -70t1.5 -70v-10q-1 -3 -4.5 -4.5t-8.5 -2.5t-10 -1h-8h-3q-2 0 -4 0.5t-3 1.5t-1 3t1.5 3t4 1.5t4 1.5t1.5 3q0 6 -1 11.5t-3 10.5v46v6v5t-0.5 10t-0.5 13.5t-0.5 15.5t-0.5 15.5
v12.5v2q0 2 0.5 4.5t0.5 5.5q0 10 -0.5 20t-0.5 20q0 3 0.5 4t2.5 1q3 0 5 -1t3 -4v-46.5v-47.5t1 -47.5t3 -47.5l0.5 -2t1 -4.5t1.5 -4t3 -1.5v0q1 0 2.5 2t2.5 2q1 5 1 9t0.5 7.5t0.5 7v7.5q0 33 -2 65.5t-2 65.5v43zM107 238q0 2 1 3t3 1q4 0 9 -5t9 -11t7.5 -11t5.5 -5
t4.5 4.5t5.5 10.5t7 10.5t10 4.5q1 0 3 -0.5t2 -2.5v-1v-1q-10 -8 -18 -18.5t-10 -23.5q-1 0 -1 -2v-5q0 -3 0.5 -5.5l0.5 -2.5q-1 -2 -2 -3.5t-3 -1.5q-1 0 -2.5 0.5t-1.5 2.5v24q-5 5 -8 9.5l-6 9t-7 9t-9 9.5v1zM119 182q-2 0 -3 2t-1 4.5v5.5q0 2 -1 4q-1 4 -3 8t-2 9
q5 0 8 -2.5t4.5 -6t2 -7.5t0.5 -8q0 -2 -1 -5.5t-4 -3.5zM158 194v4q0 4 0.5 7t2 5t3.5 2q3 0 4 -1t1 -4q0 -1 -0.5 -5.5t-2 -8.5t-2.5 -7.5t-3 -3.5t-2.5 1.5t-0.5 3.5v4v3zM147 165l8 6t8.5 5t9 3.5t9.5 1.5q0 -5 -2.5 -7.5t-6.5 -4t-8.5 -3t-8.5 -3.5t-6.5 -5t-2.5 -9v-4
q0 -3 2 -4q6 -1 11 -2t8.5 -3t6 -5.5t2.5 -10.5v-6q-3 -3 -6.5 -4.5t-6.5 -2t-6.5 -1.5t-7.5 -3q-7 1 -14 1.5t-13 2.5t-9.5 6.5t-3.5 13.5q0 6 3 9t7.5 3.5t9.5 0t9 -0.5q0 1 0.5 2t-0.5 1v3t-0.5 4.5t-0.5 5v3.5q-3 3 -7.5 5t-9.5 4l-10 4t-9 5v1q0 2 1.5 2.5t2.5 0.5
q5 0 9.5 -2.5l9 -5t9.5 -5t10 -2.5h1h2zM102 160v1q1 0 2 1.5l1 1.5q2 0 5.5 -1.5t6.5 -3.5t5.5 -5t2.5 -5v-1l-0.5 -0.5l-0.5 -0.5h-0.5h-0.5l-3.5 1.5t-7.5 3.5t-7 4.5t-3 3.5zM153 147q0 3 2.5 5.5t6 5t7 3.5t5.5 1h4t2 -3l-3.5 -3t-7.5 -6t-8 -5.5t-5 -2.5
q-2 0 -2.5 1.5t-0.5 3.5zM130 130v-4q0 -2 0.5 -5t1 -5t2.5 -2h1q0 1 1.5 2l1.5 1v16h-5.5t-2.5 -3zM145 124q0 -2 1 -5t3 -3h1v17q-3 0 -4 -3.5t-1 -5.5zM158 123q0 -3 0.5 -5t3.5 -2t4 2.5t1 5.5v4q-1 1 -2 1.5t-2 0.5q-3 0 -4 -2.5t-1 -4.5zM118 124q0 -2 0.5 -4.5
t2.5 -3.5q2 1 2.5 3t0.5 4t-1 3.5t-3 1.5t-2 -1v-3zM111 94l3 2h1h1l3 -3q1 -5 1.5 -11t0.5 -11v-11.5v-9.5v-29q-1 -2 -2 -2h-3q-2 0 -3.5 1t-2 3t-0.5 4v4q0 5 0.5 10.5t0.5 11.5t-0.5 12.5t-0.5 13.5v7t1 8z" />
</svg>
