<?xml version="1.0" standalone="no"?>
<!DOCTYPE svg PUBLIC "-//W3C//DTD SVG 1.1//EN" "http://www.w3.org/Graphics/SVG/1.1/DTD/svg11.dtd" >
<svg xmlns="http://www.w3.org/2000/svg" xmlns:xlink="http://www.w3.org/1999/xlink" version="1.1" viewBox="-10 0 266 256">
   <path fill="currentColor"
d="M152 210q3 0 7.5 6.5t10 14t10.5 14t10 6.5q6 0 6 -6v-1v-1q-3 -3 -9.5 -9t-13 -13.5t-11.5 -13.5t-5 -9v-24q1 0 5 -1t5 0q1 0 3.5 0.5t5.5 1.5t5.5 2t3.5 2q2 1 3 2l2 2t2 1.5t4 0.5q2 0 4 -0.5t2 -3.5q0 -2 -4.5 -5t-10.5 -5.5t-11.5 -4t-8.5 -1.5h-2h-4t-3.5 -0.5
t-1.5 -1.5v-12q0 -1 -1 -1.5l-1 -0.5h-4h-2v13l-2 1q-1 0 -3.5 1t-5 1.5t-4.5 1.5t-3 1t-3.5 1.5t-5.5 2.5l-6 2t-4 2h-3t-3.5 0.5t-3 1.5t-1.5 3t1 3t3 1q5 0 10 -1.5t9.5 -3.5t9 -4.5t8.5 -4.5h1h1h2.5t1.5 2v28l-0.5 1t-1.5 2.5l-2 3t-2 2.5q-3 4 -8.5 8.5t-10 9.5t-8 10
t-3.5 10q4 0 10.5 -4.5t12.5 -10.5t10.5 -12.5t5.5 -10.5h2zM86 245q1 0 2 0.5l1 0.5h1q3 0 5 -3t2 -5q0 -10 -2 -19t-2 -18q-2 -18 -2 -36.5v-36.5v-5v-7v-7.5v-4.5q1 -2 1 -3.5t0.5 -2.5t0.5 -3v-4v-7.5t0.5 -13.5t0.5 -13v-8v-2q0 -5 -3 -8t-8 -4.5t-10 -2t-8 -0.5h-4
t-4.5 0.5t-4.5 1.5t-2 3q0 3 2 4t4.5 1.5t4.5 1.5t2 3v8t-0.5 8.5t-1.5 8.5t-3 7l-1 23v135q0 1 2 2l2 1h0.5h0.5h1q0 -1 1.5 -1.5l1.5 -0.5l2 -9q-1 -45 -0.5 -89.5t8.5 -88.5q0 -1 1 -2t2 -1v0h1l2 1q0 6 0.5 10.5t0.5 9.5q0 18 -1.5 36.5t-1.5 36.5q0 26 2 51.5t4 51.5z
M103 218q0 1 0.5 3t1.5 2q4 0 8.5 -5t8 -11t5.5 -12.5t2 -9.5q-3 0 -7 4.5t-8.5 10t-7.5 11.5t-3 7zM169 184q0 3 2.5 9.5t6 12.5t7.5 10.5t7 4.5q1 0 2 0.5t2 0l2 -1t1 -1.5t-2 -4t-5 -7t-6.5 -8t-6.5 -7.5t-6 -6t-4 -2.5zM106 160q0 1 0.5 2t1.5 1h3h3t4.5 -0.5t7 -2
t6 -3.5t1.5 -5l-1 -1l-2 -2h-1q-3 0 -5.5 3t-5.5 3q-1 0 -2.5 0.5l-3 1t-2.5 0.5h-2l-1.5 1.5t-0.5 1.5zM174 152q0 2 1.5 4t4 3.5t5 2t3.5 0.5q2 0 4 -0.5t2 -2.5q0 -3 -2 -4.5t-4.5 -3t-5.5 -2t-4 -0.5q-2 0 -3 0.5t-1 2.5zM111 134q4 5 11 7h5q4 0 8 0.5t7 0.5h5
q9 0 18 0.5t16 -1t11.5 -6t4.5 -15.5v-5v-5q-3 -4 -9.5 -6t-13 -2.5t-13.5 0t-11 0.5h-5h-6h-6h-4q-11 2 -14.5 8t-3.5 15v4v5zM138 132v-3v-2v-5t0.5 -5.5t1.5 -4.5t4 -2h3.5t1.5 3v17q0 3 -2.5 3.5t-3.5 0.5h-3t-2 -2zM158 130v-3v-4v-3v-4t1.5 -4t3.5 -2q3 4 3 8.5v8.5v3
v1.5t-1.5 1t-1.5 1.5h-1h-1q0 -1 -1.5 -2t-1.5 -2zM119 121q0 -3 1 -6t5 -3q2 0 3.5 1.5t1.5 3.5v4v4t-1 4.5t-4 2.5q-2 0 -3 -1t-1.5 -3l-1 -4t-0.5 -3zM173 110q6 0 10.5 2.5t4.5 8.5q0 10 -10 10q-2 0 -3 -2t-1 -3v-3.5t-0.5 -5t-0.5 -4.5v-3zM105 90v2.5v3t1 2.5t2 1
q4 0 5.5 -2.5t2 -6.5t0.5 -9t0.5 -9t1.5 -7t3 -3q12 -2 23.5 -4.5t23.5 -2.5h4.5h5t5.5 0.5t5 1.5q3 2 4 7.5t1.5 11.5t2 10.5t4.5 4.5q4 0 4.5 -3t0.5 -6q0 -2 -1 -8t-3 -12t-4.5 -10.5t-7.5 -4.5h-29v-32q0 -1 -2.5 -2t-3.5 -1t-3.5 1t-3.5 2l-1 1l2 14t1 13v2v1
q-9 4 -18.5 6t-19.5 2q-2 1 -3 5.5t-2 10.5t-1 11.5v8.5zM129 78q0 8 4 11.5t10.5 4.5t13.5 1h11q6 0 9 -3t5 -7t2.5 -8.5t0.5 -8.5h-44q-3 1 -5 1.5t-4 1.5t-2.5 2.5t-0.5 4.5zM139 80l0.5 -1.5t1.5 -1.5h30q1 0 1 1.5v1.5v2.5t-1 1.5h-3.5t-4.5 0.5t-4.5 0.5h-3.5h-1h-1
q-2 0 -4.5 0.5t-4.5 0t-3.5 -1.5t-1.5 -4zM122 29q0 3 0.5 5.5t1.5 5.5h1q5 0 6.5 -3.5t1.5 -6.5q0 -4 -1.5 -7.5t-5.5 -3.5q-2 0 -2.5 1t-1 2.5t-0.5 3.5v3zM169 19q0 8 5 13.5t13 5.5q0 -3 -0.5 -7t-2 -7.5t-4.5 -6t-7 -2.5q-3 0 -3.5 1t-0.5 3z" />
</svg>
