<?xml version="1.0" standalone="no"?>
<!DOCTYPE svg PUBLIC "-//W3C//DTD SVG 1.1//EN" "http://www.w3.org/Graphics/SVG/1.1/DTD/svg11.dtd" >
<svg xmlns="http://www.w3.org/2000/svg" xmlns:xlink="http://www.w3.org/1999/xlink" version="1.1" viewBox="-10 0 266 256">
   <path fill="currentColor"
d="M197 203q0 1 0.5 4.5l1 7l1 7t0.5 4.5v5.5t0.5 8.5t1.5 7.5t4 3.5q6 0 6 -6q0 -7 -1 -12.5t-2.5 -11.5t-2.5 -11.5t-1 -11.5q0 -3 1 -5.5l2 -5t2 -4.5t1 -5q0 -6 -4.5 -9t-10 -4.5t-11 -1.5h-8.5q0 5 3.5 6t8 1.5t8.5 1.5t4 7q0 2 -1.5 4t-3.5 2q-5 0 -9.5 -2t-9.5 -2
q-2 0 -3.5 0.5t-1.5 2.5t2.5 2.5t6 1t6 2t2.5 4.5q0 2 -3 3t-7 2t-7 2t-3 3q0 3 2 4.5t4 1.5v0q3 -1 5.5 -2.5l5 -3t4.5 -2.5t5 -1v0v0q1 0 1.5 1zM73 246q1 1 2 1h3h2.5t1.5 -3v-9v-14t0.5 -16.5t0.5 -16.5v-14v-9v-1v-1v-2t-0.5 -4.5t-0.5 -4.5v-2v-21t0.5 -22.5l1 -23
t1.5 -21.5q1 -6 2.5 -11.5t1.5 -11.5q0 -4 -4 -6t-8.5 -3t-9.5 -1h-7h-2h-4h-3.5h-2.5q-1 1 -3 2t-2 2q0 3 1.5 4t3.5 2t3.5 2t1.5 3q0 16 -1.5 31.5t-1.5 31.5q0 12 1 24t1 25t-1 26t-1 26v5v6.5v6.5v5q2 3 5 3q2 0 3.5 -1.5t1.5 -3.5v-21l-2 -2q3 -40 4.5 -81t0.5 -81
q1 -3 3.5 -3h4.5h3q2 0 3 1v3v4v4v3q0 15 -1.5 30t-2.5 31v4v10v13v14v13v10v13v19.5v19.5v13zM97 236v2.5t1 3t1.5 2.5t2.5 2l1.5 -0.5t1.5 -1.5v-10v-15v-18v-18v-15v-10q0 -1 0.5 -3.5t0.5 -6t0.5 -6.5t0.5 -4v-8.5t0.5 -14t1.5 -14t3 -9.5q6 -3 15 -4.5t18.5 -1.5h18.5
h16q2 0 6.5 -0.5t9.5 -0.5t9.5 0.5t6.5 0.5t3 -1t1 -3q0 -3 -2 -4t-5 -1h-12.5t-19.5 0.5t-22.5 1t-21.5 1.5t-17.5 3t-10.5 4q-2 2 -3 5.5t-1 7.5t-0.5 7.5t-0.5 6.5q0 1 -0.5 6t-1 11t-1 11t-0.5 6v6.5v11.5v15v11v9v13v13v9zM117 224v7.5t2 9.5h2q2 0 4 -1.5t2 -3.5v-32
l2 -1l1.5 -0.5t4 -0.5t5 -0.5t4.5 -0.5q1 0 4 0.5t4 1.5q1 5 1.5 8.5t0.5 7.5t-1 8t-1 8v3.5t3 2.5q2 1 3.5 -1.5t1.5 -3.5v-71q0 -2 -0.5 -4.5t-1.5 -5.5t-2.5 -5t-3.5 -2q-5 0 -10.5 0.5t-10 2t-8 4.5t-4.5 8q0 9 -0.5 16.5t-0.5 14.5t-0.5 14.5t-0.5 15.5zM127 188
q0 -1 -0.5 -3.5t2.5 -3.5h3t5 -0.5t5 -0.5h3h3q4 0 4 1.5v4.5t-0.5 6t-4.5 3h-18q-1 0 -1.5 -1l-0.5 -1v-2v-3zM128 168q0 -8 4 -10t12 -2q5 0 6.5 2t1.5 7v2v2.5t-0.5 2.5l-0.5 1h-19l-3 -2l-0.5 -1t-0.5 -2zM184 140q0 9 6 12t15 3h3.5h3.5l2 -2l2 -2v0v-1q-1 -1 -1.5 -2
l-0.5 -1l-24 -4v-0.5v-1.5q0 -4 2 -6t4.5 -3t6 -2t6.5 -2.5t5 -5t2 -9.5q0 -5 -3 -9t-8 -4q-4 0 -8 1t-8 1h-7q0 -1 -2 -3t-3 -2h-1h-1q-1 1 -1 2q1 6 0.5 10.5t-2 8.5t-3.5 8t-4 9v1v1l1 0.5l1 0.5h1q4 0 6.5 -4.5t4.5 -9.5t3.5 -10t2.5 -5t4 -0.5t4 -0.5h5q2 0 4 1t3 2.5
t1 4.5q0 4 -3.5 6t-8 3.5t-7.5 4.5t-3 10zM120 137q0 1 0.5 2t2.5 1h11h11.5t9.5 -3q2 -7 2 -12v-11v-3v-3v-4v-2q-1 -1 -2.5 -2t-2.5 -1h-29l-0.5 0.5l-0.5 0.5v1v1l0.5 1l0.5 1q1 0 4 -0.5t7 -0.5q3 0 6 0.5t4 0.5q3 0 4.5 0.5t1.5 2v3.5v5h-27l-1 1l-2 2q0 3 1.5 3.5
t3.5 0.5q4 0 8.5 -1t8.5 -1q3 0 6 1t3 5v1q-2 1 -3.5 3.5t-2.5 2.5h-22q-2 0 -2.5 1t-0.5 3zM112 30v12.5t1.5 12t5.5 9t12 3.5q10 0 15 -1.5t7 -6t2.5 -11t0.5 -15.5q0 -1 -0.5 -3t-0.5 -5v-4v-3q0 -2 -1.5 -2h-2.5h-2.5t-1.5 2v16h-24q-2 0 -2 -2t-0.5 -5t-1 -5.5
t-3.5 -2.5h-1q0 1 -1.5 1.5l-1.5 0.5v4.5v4.5zM168 33v13q0 6 2 11t5.5 7.5t12.5 2.5h5t5.5 -0.5t5 -1.5t3.5 -4q2 -6 3 -12t1.5 -12.5t0 -13t-0.5 -11.5q-5 0 -7.5 1.5t-3.5 4t-0.5 5.5t0 5.5t-2 4t-4.5 1.5q-8 0 -11 -2t-4 -5t-2 -5.5t-4 -2.5q-2 0 -3 0.5t0 3.5v2
q0 1 -0.5 2.5t-0.5 3.5v2zM177 50q0 -2 0.5 -5t4.5 -3h15l3 4q1 0 0 4t-1 6q-1 1 -2 1.5t-3 1t-4 0.5h-3q-5 0 -7.5 -1.5t-2.5 -7.5zM122 51q0 -4 1 -5.5t2.5 -2.5t4.5 -1h5h9q2 1 2.5 4.5t0.5 6.5q0 1 -0.5 2.5t-2.5 1.5h-19q-1 0 -2 -2.5t-1 -3.5z" />
</svg>
