<?xml version="1.0" standalone="no"?>
<!DOCTYPE svg PUBLIC "-//W3C//DTD SVG 1.1//EN" "http://www.w3.org/Graphics/SVG/1.1/DTD/svg11.dtd" >
<svg xmlns="http://www.w3.org/2000/svg" xmlns:xlink="http://www.w3.org/1999/xlink" version="1.1" viewBox="-10 0 266 256">
   <path fill="currentColor"
d="M77 246q1 3 2.5 4t3.5 1q3 0 3.5 -1.5t0.5 -4.5q0 -18 -2.5 -36.5t-2.5 -37.5q0 -23 4.5 -45t12.5 -44q0 -1 0.5 -1.5l0.5 -0.5v-2v-3.5v-2.5v-3q0 -7 -1 -15t-4 -15t-7.5 -13.5t-10.5 -11.5h-0.5h-1.5q-3 0 -4 2.5t-1 4.5v2v1q0 1 1 1.5t2 2t2.5 2t1.5 1.5l1.5 2t2.5 4
l2 4t2 3q3 5 3.5 11t0.5 12q0 8 -2.5 14t-4.5 14q-6 16 -8.5 32.5t-5.5 32.5v3q0 20 2.5 41.5t6.5 41.5zM142 219q3 4 7.5 9t9.5 9t10.5 6.5t11.5 2.5q3 0 4.5 -0.5t1.5 -3.5q0 -4 -2 -6t-5.5 -3.5l-7 -3t-5.5 -3.5q-9 -7 -16.5 -17.5t-9.5 -21.5q0 -1 -0.5 -3t-0.5 -5v-4
v-3v-4v-5q0 -2 0.5 -4l0.5 -2q0 -6 4 -9.5t9 -6.5q10 -9 15 -18.5t5 -22.5q0 -7 -3 -11.5t-7.5 -7.5t-10 -5t-9.5 -3.5t-7.5 -3t-3.5 -3.5q0 -7 3 -14.5t3 -15.5q0 -3 -1 -7t-2.5 -7.5t-3.5 -6.5t-6 -3l-2 0.5l-2 0.5q-1 0 -1.5 1t-0.5 2q0 2 1.5 5l3 6t3 7t1.5 9
q0 4 -1.5 7.5t-2.5 6.5l-2 6t-1 7q0 5 2.5 7.5t7 4t9.5 1.5t9.5 1t7.5 3t3 6v20q0 5 -5 10t-11.5 11t-11 14t-4.5 18q0 11 1 21t5 19q2 4 4 6.5t3 6.5z" />
</svg>
