<?xml version="1.0" standalone="no"?>
<!DOCTYPE svg PUBLIC "-//W3C//DTD SVG 1.1//EN" "http://www.w3.org/Graphics/SVG/1.1/DTD/svg11.dtd" >
<svg xmlns="http://www.w3.org/2000/svg" xmlns:xlink="http://www.w3.org/1999/xlink" version="1.1" viewBox="-10 0 266 256">
   <path fill="currentColor"
d="M78 248q0 1 1 2t2 1t4.5 -1.5t3.5 -4.5q0 -2 -1 -7t-2 -8v-38q1 -4 1 -7q0 -2 2 -7q1 -6 5 -13t7 -13t6.5 -10t4.5 -11q0 -2 1 -7.5t1.5 -11.5t1.5 -11t1 -7q2 -6 6 -6.5t9 -0.5h3q2 0 2 1l2 3q-1 11 -1 22t3 22q0 1 0.5 2.5t0.5 2.5q3 4 8 5t9.5 2t8 3t3.5 8
q0 7 -3.5 9.5t-9 3.5t-11.5 1t-11.5 2t-9 7.5t-3.5 16.5q0 3 1 12t4 18t6.5 16t9.5 7q2 0 4 -0.5t2 -3.5q0 -5 -3.5 -9.5t-5.5 -8.5q-5 -7 -7 -15t-2 -16q0 -1 0.5 -4.5t0.5 -4.5q1 -3 5 -7t8 -4q1 0 3.5 5t5.5 12.5t7 16t8.5 15.5t8.5 12t8 5q3 0 6 -0.5t3 -4.5l-0.5 -1
t-1.5 -2l-1.5 -1.5l-3 -3t-3 -2.5t-1.5 -2q-1 0 -3 -2.5t-4.5 -5t-4 -5t-2.5 -3.5q-1 -4 -3 -7t-4 -6.5t-3.5 -7t-1.5 -6.5t2.5 -5t6 -3.5t7.5 -3.5t7 -6v-7q0 -7 -2.5 -10.5t-6.5 -5t-8.5 -2.5t-8.5 -2t-6.5 -3.5t-2.5 -6.5v-3.5t1 -3.5q6 -1 13 -1.5t13 -3t10.5 -7
t4.5 -11.5t-5 -11t-12 -5h-7t-10.5 -0.5t-10.5 -0.5h-7q-2 -1 -2.5 -3t-0.5 -4v-1l0.5 -2.5t1.5 -3.5q6 -4 14 -5t15.5 -2.5t12.5 -5t5 -13.5q0 -9 -5 -12t-14 -3q-12 -2 -23 -2h-24q-2 -1 -3.5 -3t-3.5 -4t-4 -3.5t-5 -1.5q-2 0 -3.5 0.5t-1.5 2.5q0 3 2 5t4.5 4t4.5 4t2 4
q0 6 -3.5 11t-8.5 9.5t-11 8t-11 6t-8.5 4.5t-3.5 3q0 2 0.5 3t2.5 1q4 0 7.5 -1.5t6.5 -3t6.5 -3t6.5 -3.5q1 0 4 -2.5t6 -5.5l5.5 -5.5t3.5 -4.5q1 -1 2 -3.5t2 -5.5t2.5 -5t3.5 -3h12q4 0 10.5 -0.5t12.5 0.5t10 4t4 9q0 2 -0.5 3.5t-3.5 2.5q-1 0 -4 0.5t-6 1.5t-6 1.5
t-4 0.5q-2 1 -5 1.5t-5.5 2l-5 3t-3.5 4.5l-0.5 1.5t-0.5 3.5t-0.5 3.5l-0.5 1.5q0 1 -0.5 2l-0.5 1q-4 2 -9.5 2.5t-11.5 0.5h-12.5t-12 1.5t-8.5 5t-3 9.5t1 12t7 9q1 0 4 0.5t6.5 0.5t7 0.5t4.5 0.5q3 0 4.5 1t1.5 5t-3.5 11t-8.5 14t-9 14.5t-5 12.5q-2 12 -4 25.5
t-2 26.5l0.5 0.5t0.5 1.5l0.5 2t1.5 4.5t1.5 4.5t1.5 3zM77 101v-3t1 -3q5 -4 13 -5t14 -1h2.5t1.5 2l-1 19l-1 1t-1 2l-1.5 1.5l-0.5 0.5h-20q-3 0 -4 -2l-2 -4t-1 -4v-4zM147 104q0 -8 2.5 -12t12.5 -4q6 0 9.5 2.5t3.5 7.5q0 4 -1.5 7t-5 4.5t-7.5 2.5t-8 1h-5
q-2 -2 -1.5 -4.5t0.5 -4.5z" />
</svg>
