<?xml version="1.0" standalone="no"?>
<!DOCTYPE svg PUBLIC "-//W3C//DTD SVG 1.1//EN" "http://www.w3.org/Graphics/SVG/1.1/DTD/svg11.dtd" >
<svg xmlns="http://www.w3.org/2000/svg" xmlns:xlink="http://www.w3.org/1999/xlink" version="1.1" viewBox="-10 0 266 256">
   <path fill="currentColor"
d="M61 234q0 3 2.5 4t6.5 1q14 0 29 -2.5t28 -3.5q3 -1 8.5 -1t12.5 -0.5t14.5 -1t14.5 -1t12.5 -0.5h8.5q1 -1 1 -2v-3v-3t-1 -3h-3h-3q-12 0 -23 2t-23 2h-5h-4l-3 -4v-3v-4v-3v-4v-3v-2q0 -4 0.5 -9.5t0.5 -11t0.5 -9.5l0.5 -4l1 -1h20q1 0 5 -0.5t7.5 -1.5t6 -3t2.5 -5
t-1.5 -3.5t-3.5 -0.5h-5t-4 2h-28q0 -13 1 -25t0 -25q3 -1 8.5 -2l11 -2t9.5 -2.5t4 -3.5t-0.5 -2.5l-1.5 -1.5h-4.5h-4.5h-9q-4 0 -8 2l-41 2q-2 0 -5.5 -1t-3.5 -5v-0.5v-0.5q1 -3 4 -7.5l7 -10.5t8.5 -12.5t8.5 -11.5t7 -8t4 -3q2 0 6.5 5t9 11.5l9 13t6.5 9.5q4 5 9 9.5
t9.5 9l9 9t8.5 10.5l1 0.5t2 0.5q3 0 4 -2t1 -6q0 -3 -1.5 -6.5t-4 -6.5t-5.5 -5t-6 -3l-37 -42l-1 -4l-18 -19h-6q-6 10 -14 18.5t-13 18.5q0 1 -1.5 3l-1.5 2q-10 13 -20 24.5t-21 23.5l-5 5t-2 6q0 3 2 4t4 1q5 0 8.5 -4t6.5 -8.5t6 -8.5t7 -4h0.5h0.5l3 1.5l3 1.5h34v43
q1 2 1.5 3.5t0.5 3.5t-1.5 3t-3.5 2h-4h-6h-6h-4t-6 0.5t-8.5 1t-8 2.5t-3.5 5q0 2 1.5 3t3.5 1.5t4 0.5h3q7 0 14.5 -2t14.5 -2h5l2 4v53l-2 2h-2.5t-6 0.5t-7.5 0.5h-7q-9 1 -17.5 2t-18.5 0q-1 2 -1 3.5v3.5z" />
</svg>
