<?xml version="1.0" standalone="no"?>
<!DOCTYPE svg PUBLIC "-//W3C//DTD SVG 1.1//EN" "http://www.w3.org/Graphics/SVG/1.1/DTD/svg11.dtd" >
<svg xmlns="http://www.w3.org/2000/svg" xmlns:xlink="http://www.w3.org/1999/xlink" version="1.1" viewBox="-10 0 266 256">
   <path fill="currentColor"
d="M139 205q0 2 1.5 7t3 10.5t2.5 10.5t2 7q0 1 1 3l2 4t2.5 3t3.5 1q2 -1 2.5 -2.5t0.5 -3.5q0 -3 -1 -6.5t-2.5 -6.5l-3 -6t-2.5 -6q-3 -7 -5.5 -16.5t-2.5 -16.5v-50q0 -8 2.5 -14.5t5.5 -12t5 -10.5t2 -10q0 -2 -1.5 -3t-2.5 -1q-3 0 -5.5 5t-4.5 12.5t-4 16.5t-3.5 17
t-2 15t-0.5 10q0 5 1 10.5l2 11t1.5 11t0.5 10.5zM106 166q0 14 -2 27t-6 26q-3 7 -6.5 14t-3.5 15h5l1 -1t2.5 -2t2.5 -2.5t2 -2.5q0 -1 0.5 -3t0.5 -3q9 -24 13 -49t4 -51v-4.5v-6t-0.5 -6.5t-1.5 -5q-3 -6 -8.5 -9t-11 -4.5t-9.5 -2.5t-4 -4q0 -4 2.5 -7t2.5 -7
q0 -2 -1 -3t-3 -1t-4 2.5t-3 6t-1.5 6.5t-0.5 5q0 3 1 6.5t5 4.5l22 3q3 0 5 5.5t2.5 11.5t0 11.5t-0.5 6.5v5.5t-0.5 4.5t-2.5 3.5t-5 1.5h-1h-1h-3.5t-5 -0.5t-5 -0.5h-3.5q-3 -2 -3 -3v-3q0 -5 3 -7t7 -2.5t8 -1.5t6 -5q0 -1 -1.5 -2t-2.5 -1h-17l-3 -15q-1 -2 -2 -2.5
t-3 -0.5t-3 1.5t-1 2.5q0 3 -0.5 8.5t-0.5 12.5t-0.5 12.5t-0.5 7.5v5q-2 14 -6 28t-7 28q-2 1 -2 2v2q0 2 0.5 3t2.5 1q6 0 8 -5t3 -11t2.5 -11t7.5 -5q3 0 6 1.5t7 1.5q2 0 2.5 -1t0.5 -3q0 -3 -3 -4.5t-6.5 -2.5t-6.5 -2t-3 -5q0 -3 1 -7.5t4 -6.5q1 0 3 -0.5t4.5 -0.5
t4.5 -0.5t3 -0.5h2t3 0.5t3 0.5h2zM165 162q1 3 1.5 9.5t1.5 14t2.5 15.5t3.5 15t5.5 11t7.5 4q2 0 2.5 -1t0.5 -3q0 -4 -1 -7.5t-2.5 -7l-3 -7t-2.5 -6.5q-4 -14 -5.5 -27t-1.5 -28q0 -6 1 -11t2.5 -10l3 -10t1.5 -10q0 -2 -0.5 -3.5t-3.5 -2.5q-5 4 -7.5 10t-4 13t-2 14
t-0.5 13v3v4q0 3 0.5 5.5zM49 92v3t3 1t6.5 -3t7.5 -8t8.5 -10.5t8 -10.5t7 -9.5t4.5 -6.5l20 -19q3 -1 5 -4t4 -3h1q1 0 1 1q11 9 21.5 18.5t21.5 19.5l4 4.5t9 9.5t8.5 9t4.5 4h1.5h2.5q3 0 6 -1t3 -5q0 -3 -1.5 -4.5t-4 -3t-5 -2.5t-4.5 -2l-10 -10t-10 -9l-2 -1t-4 -2.5
t-4 -2.5l-2 -1q-3 -3 -7.5 -8t-9 -10.5t-9.5 -9.5t-10 -4h-1.5h-2.5q0 1 -2 2.5t-4 3.5l-3.5 3.5l-2.5 2.5q-2 3 -7.5 8.5l-12.5 12.5t-13.5 14t-12.5 13.5t-9.5 12t-3.5 7.5zM93 61v2.5t1 1.5h10h6h10q5 0 11 -0.5t10.5 -1t7.5 -2t3 -3.5q0 -1 -1.5 -2t-2.5 -2h-12
q-11 0 -21.5 2t-21.5 3v2z" />
</svg>
