<?xml version="1.0" standalone="no"?>
<!DOCTYPE svg PUBLIC "-//W3C//DTD SVG 1.1//EN" "http://www.w3.org/Graphics/SVG/1.1/DTD/svg11.dtd" >
<svg xmlns="http://www.w3.org/2000/svg" xmlns:xlink="http://www.w3.org/1999/xlink" version="1.1" viewBox="-10 0 266 256">
   <path fill="currentColor"
d="M171 244q3 2 6.5 2.5t7.5 0.5q0 -3 -1 -7t-2.5 -8.5l-3 -9t-1.5 -8.5q-1 -2 -1.5 -10t-1.5 -17t-2 -17t-1 -10v-4v-4l3 -1v0q3 0 6 3t6.5 7t6.5 8t5 6v0q2 0 3 -2t1 -3q0 -4 -3.5 -8.5t-8 -9t-9.5 -8.5t-9 -6v-4t-0.5 -6t-0.5 -6v-4v-4v-7v-7v-5q1 0 3 -0.5t3 -0.5
q2 1 5.5 4.5t7.5 7t6.5 6.5t3.5 3q2 0 3.5 -2.5t1.5 -4.5q0 -4 -4.5 -7.5t-10 -6.5t-10.5 -6.5t-5 -8.5q0 -10 2 -19.5t4 -19.5v0q0 -4 -2.5 -6t-6 -3t-7 -1.5t-5.5 -0.5l-2.5 -0.5t-5.5 -1t-5.5 -0.5h-4.5h-1h-2q-3 0 -9.5 0.5l-13 1t-11.5 1t-6 0.5q-3 0 -7.5 1t-9 2.5
t-7.5 5t-3 7.5q0 9 2.5 17.5t2.5 17.5v4l-0.5 0.5t-1.5 0.5t-3 2l-3.5 3.5l-5.5 5.5l-5.5 5.5l-3.5 3.5q-3 5 -3 10v2.5t2 1.5q4 0 7 -3.5t6 -7.5t5 -7t5 -3q2 0 3.5 4t2 9.5t1 10t0.5 5.5q0 6 -2 9.5t-5.5 6.5t-7 5t-6.5 6q-1 1 -2.5 3.5t-3.5 4.5t-4 4.5l-2 2.5v1
q0 2 1 3.5t3 1.5q3 0 5 -1.5t4 -3.5t3.5 -4.5t2.5 -3.5l2.5 -2.5l3 -3l3 -3l2.5 -2.5v0q2 0 2.5 2t1.5 3v2v3.5v3.5v2q0 15 -2.5 30.5t-3.5 30.5q-1 2 -3 5t-2 6t1.5 3.5t3.5 0.5t3.5 -0.5t2.5 -1.5q6 -17 7.5 -33.5t1.5 -34.5q0 -5 -1 -9.5t-1 -9.5q0 -2 1.5 -4t4.5 -2v0
l1 1q4 4 9.5 10t12.5 9h1h1t1.5 -1.5t0.5 -3.5q0 -3 -1.5 -5.5t-3.5 -4.5l-26 -18l-2 -2q1 -4 0.5 -8.5t-1.5 -8.5l-2 -8t-1 -9q0 -1 0.5 -3.5t1.5 -3.5v0v0q3 0 6 2t6 5t5.5 6t4.5 5h2q3 0 3.5 -1t0.5 -4q0 -4 -4 -7.5t-9 -7.5t-10 -7.5t-7 -5.5q-1 -7 -1 -11.5v-10.5
t2.5 -10t7 -6t10.5 -3t11.5 -1.5t11 0t9.5 0.5h4h5.5h4.5h2h3t4.5 0.5t4.5 1.5t3 2v4v4v6.5t-0.5 9l-1 9t-1.5 5.5q-1 2 -4 5.5t-6.5 7t-7.5 6.5t-6 5l-1.5 1.5l-2.5 2.5l-2 2l-1 1v3h7l15 -15h1h1h2.5t1.5 2v6q0 8 -1 15t0 16l-2 3q-7 7 -13.5 15t-14.5 15v1q0 2 1.5 2h2.5
q5 0 8 -3.5t5 -7l4 -7t6 -3.5q2 0 3 1.5t1 2.5q0 11 0.5 22.5t2 23t2.5 22.5t3 21z" />
</svg>
