<?xml version="1.0" standalone="no"?>
<!DOCTYPE svg PUBLIC "-//W3C//DTD SVG 1.1//EN" "http://www.w3.org/Graphics/SVG/1.1/DTD/svg11.dtd" >
<svg xmlns="http://www.w3.org/2000/svg" xmlns:xlink="http://www.w3.org/1999/xlink" version="1.1" viewBox="-10 0 266 256">
   <path fill="currentColor"
d="M62 246q0 2 1.5 3.5t3.5 1.5t4 -1.5t3.5 -4t2 -5t1.5 -4.5q0 -2 0.5 -5l1 -6t1 -5.5l0.5 -2.5v-9v-15v-15v-9q0 -3 0.5 -9.5t1 -14t1 -14t0.5 -9.5q5 -5 10.5 -8t12 -4.5t13 -1.5h13.5h12t15.5 1.5t13 5t5.5 9.5v98q2 3 2 7.5t1 8.5t3 7t6 3q3 0 4.5 -2.5t1.5 -5.5
t-1 -6.5t-2 -7.5t-2 -7.5t-1 -6.5v-26v-26t-0.5 -26t-2.5 -26l-0.5 -1t-1.5 -1q-11 -5 -24 -6.5t-24 -3.5l-3 -3v-23q0 -3 3.5 -5t8 -2.5l9 -1t6.5 -0.5h9q3 2 3.5 6.5t0 8t0 7t3.5 3.5q4 0 5.5 -3t2.5 -6v-2.5v-3.5t0.5 -4l0.5 -2q0 -5 -0.5 -9t-0.5 -8t-0.5 -8t-0.5 -10
q-2 -4 -6 -7t-6 -5h-6h-8h-9h-5h-30.5t-18 3t-9.5 12.5t-3 27.5v21q0 1 1.5 2t2.5 2h1q2 0 3.5 -3t2.5 -4q-1 -5 -1 -12t0.5 -14.5t3 -13.5t7.5 -9q10 -1 17.5 -1.5t17.5 -0.5q5 0 11.5 -0.5t11.5 1t8 4.5t3 11q0 2 -1 4.5t-4 2.5q-4 0 -10 -0.5t-12 -0.5t-12 2t-9 6
q-2 8 -2 16v17q-2 5 -6 7t-9.5 2.5t-11.5 1t-11.5 3t-9 7.5t-4.5 15v7t-0.5 10.5t-0.5 10.5v7v9v15v15v9q0 1 -0.5 3.5t-0.5 5t-0.5 4.5t-0.5 3l-1 3t-2.5 6t-2.5 6t-1 4v1z" />
</svg>
