<?xml version="1.0" standalone="no"?>
<!DOCTYPE svg PUBLIC "-//W3C//DTD SVG 1.1//EN" "http://www.w3.org/Graphics/SVG/1.1/DTD/svg11.dtd" >
<svg xmlns="http://www.w3.org/2000/svg" xmlns:xlink="http://www.w3.org/1999/xlink" version="1.1" viewBox="-10 0 266 256">
   <path fill="currentColor"
d="M52 238v4t3 2t5.5 -4.5t5 -10.5t4 -12t2.5 -8q1 -5 1 -10.5v-10.5v-11.5v-9.5q1 -9 2.5 -17.5t2.5 -17.5v-22.5v-22.5q0 -12 0.5 -23t2.5 -22q3 -4 8 -7.5t10 -3.5h2l1.5 0.5l3 1t2.5 0.5h2l1.5 -0.5t3.5 -1t3.5 -1l1.5 -0.5q1 0 2.5 1t2.5 1h42q4 0 8 3t6 6v7
q0 10 -1 19.5l-2 19l-2 19t-1 19.5q0 24 2.5 48.5t8.5 48.5l0.5 1.5t1.5 3t1.5 2.5t0.5 2q1 2 1 4q0 3 0.5 5t2 3.5t4.5 1.5q2 0 4 -1t2 -4q0 -5 -1.5 -10t-3.5 -10.5t-4 -10.5t-3 -10q-5 -23 -6.5 -46t-1.5 -46q0 -7 1 -14t2 -14.5l2 -15t1 -14.5q0 -11 -6 -17t-15 -8.5
t-19 -2.5h-18q-6 0 -16 -0.5t-19.5 1t-18 6t-11.5 13.5v12q0 8 1 15.5t1 15.5v1l-0.5 1t-1 2.5t-1 2.5l-0.5 1v2.5t0.5 3.5t0.5 4v2v1.5v0.5v0.5v0.5l-10 113q-1 5 -3 9t-2 9z" />
</svg>
