<?xml version="1.0" standalone="no"?>
<!DOCTYPE svg PUBLIC "-//W3C//DTD SVG 1.1//EN" "http://www.w3.org/Graphics/SVG/1.1/DTD/svg11.dtd" >
<svg xmlns="http://www.w3.org/2000/svg" xmlns:xlink="http://www.w3.org/1999/xlink" version="1.1" viewBox="-10 0 266 256">
   <path fill="currentColor"
d="M52 242q1 1 2.5 2t3.5 1q1 0 2.5 -1t3 -2.5t2.5 -3t1 -2.5v-116l5 -76q0 -4 1.5 -7t5.5 -5q8 0 16.5 -1t17.5 -1h4.5h4.5q2 1 2.5 4.5t0.5 4.5q0 6 -1 9.5t-3.5 5.5t-7 2.5t-10.5 1.5q-2 2 -3.5 5t-2 7t-0.5 8v7v5.5v7t0.5 7t1.5 5.5q1 4 4.5 6t8 2.5t8.5 0.5
q5 0 8.5 0.5t6 2t2.5 5.5q0 8 -3.5 11t-8.5 3.5t-11 1t-11.5 3t-9 9t-3.5 20.5q0 8 1 15.5t2.5 15l3 15t2.5 15.5q0 1 1.5 2t2.5 1t3 -1t3 -2v-3.5v-3.5q0 -7 -1.5 -13.5t-2.5 -13t-2.5 -13t-1.5 -13.5q0 -1 0.5 -2.5t0.5 -3.5v-4v-3q2 -5 7.5 -9t11.5 -4q2 0 5 6t5.5 15
t5.5 19.5t5.5 19.5t5.5 15t6 6q6 0 6 -6q0 -8 -3.5 -17t-7.5 -18.5t-7.5 -18.5t-3.5 -16v-4v-2q1 0 2 -1.5t2.5 -3t2.5 -3t2 -1.5q1 -2 1.5 -4t0.5 -4v-5q0 -3 1 -5t4 -3.5t6.5 -3t6 -5t2.5 -9.5v-36q0 -5 -4.5 -7t-10 -3t-10.5 -2t-7 -4q0 -1 -0.5 -3t-0.5 -4t-0.5 -4
t-0.5 -3q0 -4 3.5 -4.5t6.5 -0.5q8 0 18 0.5t17 1.5q3 2 4.5 6.5t1.5 9.5t-0.5 10.5t-0.5 9.5q0 6 -1.5 12t-1.5 12v4l0.5 1.5t1 3.5t1 3.5l0.5 1.5q0 2 0.5 6t0.5 9t0.5 10t0.5 7v45v44q0 1 -0.5 4.5t-1.5 4.5v2q0 7 7 7q3 0 6 -3.5t4 -7.5v-5v-7v-8v-5q0 -29 -1 -58
t-2 -57q0 -3 -0.5 -7.5t-0.5 -11t-0.5 -13t-1 -12.5t-1 -11t-0.5 -7q-2 -4 -3.5 -6t-3 -3t-4 -2t-7.5 -2q-20 1 -39 -0.5t-39 -1.5q-5 0 -11 0.5t-12 2t-10.5 5t-5.5 10.5q-2 13 -2.5 26t-0.5 25q0 2 -0.5 7.5t-0.5 11.5t-0.5 11.5t-0.5 7.5v5v8v9v5q0 19 -2 39t-2 39v2
t0.5 4t0.5 4v3zM107 97q0 -2 0.5 -3t2.5 -2q9 1 17.5 -0.5t17.5 -1.5h12q0 1 0.5 2t0.5 2v1q0 5 -2.5 8.5t-6.5 5t-8.5 2t-7.5 0.5h-7.5t-9 -1.5t-7 -4.5t-2.5 -8zM103 78q0 -5 4 -8t9 -4.5t10 -1.5h8h7t8 1t6.5 3t2.5 7q0 2 -2.5 4t-3.5 2h-43q-1 0 -2 -0.5t-2 -0.5
q0 -1 -1 -1.5z" />
</svg>
