<?xml version="1.0" standalone="no"?>
<!DOCTYPE svg PUBLIC "-//W3C//DTD SVG 1.1//EN" "http://www.w3.org/Graphics/SVG/1.1/DTD/svg11.dtd" >
<svg xmlns="http://www.w3.org/2000/svg" xmlns:xlink="http://www.w3.org/1999/xlink" version="1.1" viewBox="-10 0 266 256">
   <path fill="currentColor"
d="M184 247q1 1 3.5 2t3.5 2h1q3 0 4 -3t1 -6v-3q0 -2 -0.5 -8.5l-1 -13l-1 -13t-0.5 -8.5q-1 -6 -6 -9.5t-11 -5.5t-13 -3t-12.5 -2.5t-9.5 -4t-4 -7.5q0 -4 3 -6t7 -3.5t8.5 -1.5h6.5q1 0 4.5 -0.5t7.5 -0.5t7.5 -0.5t4.5 -0.5q6 -1 9 -6t3 -11q0 -10 -4 -14.5t-10.5 -6.5
t-13.5 -2h-15h-12t-12 2v1v2q0 2 2 3t5 1.5t6 0.5h3q3 1 3.5 5.5t0.5 7.5q0 7 -4 9.5t-8.5 4t-8.5 4t-4 9.5t2 11.5t5 7.5t8 4.5t11 2.5q1 1 3.5 1.5t5.5 1t5.5 1t3.5 0.5t2 0.5t2 1.5q2 2 3.5 6t2 8t1 8.5t1.5 7.5v4.5t0.5 7.5t0.5 7.5v4.5zM44 164q0 2 1 3t3 1t3 -0.5
l3 -1.5l28 -28h3l3 3t4 4.5t4.5 4.5t3.5 3q3 3 5.5 5t5.5 2q2 0 3.5 -1t1.5 -3q0 -1 -0.5 -2.5t-1.5 -2.5l-21 -22q-2 -2 -2.5 -6t-0.5 -8v-10v-9.5t-1 -7.5t-4 -3q-1 0 -2 0.5l-1 0.5q-2 1 -3.5 3l-1.5 2v2t0.5 2.5t0.5 2.5v2v10v3v6v5.5t-1 3.5l-31 30q-1 0 -1.5 2t-0.5 3
v1zM161 136l0.5 -0.5t0.5 -1.5v-1.5t0.5 -3.5t0.5 -4v-2q2 -2 4 -2h5q5 0 8 1t3 7q0 8 -4 11t-12 3q-3 0 -4.5 -2t-1.5 -5zM108 114q0 2 1.5 2h3.5h3q2 -2 6 -9t8.5 -16t10 -18t10 -17t7.5 -13t4 -5l1 0.5t2 1.5l0.5 0.5t0.5 1.5q1 1 2.5 5t4 8t4.5 8t2 5q1 1 2 3t2.5 4
t2.5 4l1 2q2 3 4.5 8.5t5.5 11.5t6.5 10.5t6.5 4.5t3.5 -3t0.5 -5v-2.5v-2.5q-5 -6 -9 -12t-8 -13q-1 -2 -3.5 -7.5t-5.5 -12.5t-6.5 -14t-7 -13t-6.5 -9.5t-6 -3.5t-6 5t-6 11t-5 11.5t-3 7.5q-2 4 -7.5 12.5t-11.5 18t-10.5 18t-4.5 12.5zM142 89q0 3 3 4.5t6.5 1.5h7h5.5
h3.5h3.5q3 -2 4 -3.5t1 -3.5v-2t-1 -1h-32l-0.5 1.5t-0.5 2.5zM49 89q0 3 1 3.5t4 0.5q5 0 9 -3t8 -8t7 -9.5t7 -7.5q2 2 5 6t6.5 8t6.5 7.5t6 3.5q2 0 3.5 -0.5t1.5 -3.5v-3t-1 -3l-3 -3l-4 -4l-4 -4l-2.5 -2.5t-2 -2.5t-3 -4.5t-2.5 -4.5t-1 -3v-40q0 -1 -0.5 -1.5
l-0.5 -0.5h-2h-3h-5t-2 4q0 6 1 12.5t1 13.5q0 4 -0.5 7.5t-1.5 8.5q-1 1 -3.5 4t-5 5.5l-5.5 5.5l-4 4t-3 2.5l-4 3t-3 3.5t-1 5z" />
</svg>
