<?xml version="1.0" standalone="no"?>
<!DOCTYPE svg PUBLIC "-//W3C//DTD SVG 1.1//EN" "http://www.w3.org/Graphics/SVG/1.1/DTD/svg11.dtd" >
<svg xmlns="http://www.w3.org/2000/svg" xmlns:xlink="http://www.w3.org/1999/xlink" version="1.1" viewBox="-10 0 266 256">
   <path fill="currentColor"
d="M99 247q0 2 2.5 2.5t3.5 0.5q4 0 6.5 -9t3.5 -22.5t1.5 -29.5t1 -30t1.5 -24t4 -12q7 1 12.5 -0.5t11.5 -1.5q2 0 3 0.5l3 1.5v10v8q0 4 -0.5 7.5t-0.5 7.5t-1 10q0 2 -3 2h-3h-3h-2q0 -1 0.5 -3t0.5 -4.5v-5v-3.5q0 -4 -0.5 -4.5t-3.5 -0.5t-5.5 1.5t-1.5 5.5l1 38
q0 5 3.5 8.5t8 5.5t9.5 2.5t9 0.5q3 0 7 -1t7 -3t5.5 -5t2.5 -7v-42q0 -3 -1 -3.5t-3 -0.5q-4 0 -5 3t-1 7q0 3 -0.5 6t-5.5 3q-1 0 -3.5 -0.5t-2.5 -2.5v-36l2 -2q5 0 13 -2t14 -2q2 0 3 2l2 4q0 27 3 53t5 53v3.5t1 6t2 5.5t4 2q2 0 3 -1.5t2 -5.5q0 -1 -0.5 -3.5t-0.5 -5
t-1 -5.5t-2 -5q0 -2 -0.5 -8t-1 -12.5t-1 -12.5t-0.5 -8q-1 -5 -1 -10v-10.5t-0.5 -10.5t-1.5 -10v-101v-2.5t0.5 -3.5t0.5 -3.5v-2.5q0 -5 -1 -7.5t-6 -2.5q-4 0 -6 2t-2 7q0 4 1 7.5t1 6.5q0 4 -0.5 5t-4.5 1q-6 0 -12 -1.5t-11 -2.5l-2 -1v-3v-4v-2v-4v-2.5v-1.5
q0 -1 0.5 -2t0.5 -2t0.5 -2l0.5 -1q0 -4 -3 -5.5t-6 -1.5q-4 0 -4.5 3.5t-0.5 6.5q0 12 1 23t1 23q0 4 -1 7.5t-7 3.5v0q-2 0 -5 -0.5t-7 -0.5t-7 -0.5t-5 -0.5v-3t-0.5 -4t-0.5 -4v-2v-3.5t0.5 -5.5t0.5 -5.5v-3.5v-9v-10q-1 -3 -2.5 -3h-3.5q-4 0 -4.5 1.5t-0.5 5.5
q0 3 0.5 5t0.5 5q0 10 -1 18t0 18q-1 2 -2 3.5t-3 1.5q-6 0 -9.5 -3.5t-5.5 -9.5t-3 -13t-1.5 -13.5t-1 -11.5t-1.5 -7q-1 -1 -3 -1.5t-3 -0.5q-2 0 -4 1t-2 4q0 7 2 14t2 15q0 5 -2.5 8.5t-6 6.5t-7.5 5t-7.5 4.5t-6 6t-2.5 7.5q0 3 1.5 3.5t3.5 0.5t6 -3t8.5 -7t8.5 -7.5
t5 -5.5h1h1h1h1q3 2 5.5 4.5t5 4t5.5 3.5t7 4h1t2.5 0.5t2.5 0.5h1q1 1 1 3v4v3v3q0 3 0.5 10t0 14.5t-2 12.5t-4.5 5h-2q-1 0 -3 -2.5t-4.5 -5l-4.5 -4.5l-3 -3q0 -1 -0.5 -2l-0.5 -1l-4 -31l-0.5 -1t-1.5 -1q0 -1 -1.5 -1.5l-1.5 -0.5q-1 0 -2 1.5t-1.5 3.5t-1 3.5
l-0.5 1.5v5t0.5 6.5t0.5 7v4.5q1 0 1 1l-1 1q-1 3 -2.5 4.5t-3.5 3t-4.5 3t-5.5 4.5q-1 0 -2.5 2t-4 4.5l-4.5 4.5l-2 2q0 1 -0.5 2l-0.5 1q0 6 6 6h1.5h1.5l3.5 -3.5l5.5 -5.5t5.5 -6t3.5 -4q3 -2 4.5 -3.5t4.5 -1.5q1 0 6 2.5t10 6.5t9.5 7.5t4.5 5.5q0 10 -2 20.5
t-3.5 21t-3.5 20.5t-2 21zM141 180q0 -3 3 -4.5t6 -1.5q1 0 4 0.5t6.5 1t6.5 0.5h4q3 1 3.5 3.5t0.5 4.5q0 1 -0.5 3t-1 3.5t-1.5 3t-3 1.5h-23q-2 0 -3 -2t-1.5 -4.5t-0.5 -5.5v-3zM119 99q0 -1 0.5 -3.5t0.5 -3.5l3 -5h27l1 2.5t1 5.5t0.5 5.5t0.5 4.5v2v2.5t-0.5 2.5
t-1.5 1h-30l-0.5 -1.5t-0.5 -2.5l-0.5 -4t-0.5 -6zM159 96v-2q1 -1 1.5 -4l0.5 -3h28q2 0 3 2t1.5 5t1 5.5t0.5 3.5q0 2 -0.5 3.5t-1 2.5t-2 2t-3.5 2h-9q-5 0 -9 -0.5t-6 -2t-3.5 -5t-1.5 -9.5zM161 68q0 -4 1.5 -6t4 -3t6 -1h6.5h4.5h4.5q3 1 4 2.5t1 5.5v2.5t-0.5 3.5
t-1 3.5t-2.5 1.5h-24q-2 0 -2.5 -1t-1 -2.5t-0.5 -3v-2.5z" />
</svg>
