<?xml version="1.0" standalone="no"?>
<!DOCTYPE svg PUBLIC "-//W3C//DTD SVG 1.1//EN" "http://www.w3.org/Graphics/SVG/1.1/DTD/svg11.dtd" >
<svg xmlns="http://www.w3.org/2000/svg" xmlns:xlink="http://www.w3.org/1999/xlink" version="1.1" viewBox="-10 0 266 256">
   <path fill="currentColor"
d="M151 247v0q1 1 2 2.5t2 1.5q2 0 4 -1.5t4 -4t3 -5.5t2 -4q3 -16 7.5 -32.5t8 -32.5t6 -32.5t2.5 -32.5q0 -5 -0.5 -10t-2 -9t-4.5 -7.5t-8 -4.5q-9 -2 -18 -3.5t-18.5 -2.5t-18 -2t-16.5 -2l-3 -1v-3.5v-3.5v-7t1.5 -7t3.5 -5.5t7 -3.5q19 -3 36 -5t35 -3q3 0 7 -2t4 -5
t-2 -4t-5 -1h-4q-3 1 -10 1.5t-14.5 1.5t-13.5 1.5t-8 0.5q-4 1 -12 2.5t-16 4t-14.5 6t-6.5 9.5v29q0 3 3.5 4t7.5 1.5t7.5 2t3.5 5.5q0 6 -2.5 12.5t-4.5 12.5q-3 13 -8 25l-10 24t-10 24.5t-9 24.5q0 3 -1.5 5t-3 4.5t-2.5 4.5t-1 5v4q1 2 3 2h3q4 0 8.5 -8.5t10 -21
t10.5 -27.5l9.5 -28.5t7.5 -23.5t3 -12q2 -8 4.5 -13.5t4.5 -13.5l1 -1h2.5h2.5q10 0 20 1.5t20 1.5q3 1 4.5 3t2 4.5t0.5 5.5v5q0 26 -4.5 50.5t-8.5 49.5q-1 5 -3.5 10.5t-4.5 11t-4 11.5t-2 11z" />
</svg>
