<?xml version="1.0" standalone="no"?>
<!DOCTYPE svg PUBLIC "-//W3C//DTD SVG 1.1//EN" "http://www.w3.org/Graphics/SVG/1.1/DTD/svg11.dtd" >
<svg xmlns="http://www.w3.org/2000/svg" xmlns:xlink="http://www.w3.org/1999/xlink" version="1.1" viewBox="-10 0 266 256">
   <path fill="currentColor"
d="M159 248q0 3 2.5 3h3.5q4 0 8 -6t7.5 -13.5t6.5 -15.5t5 -12q3 -6 6 -13t5 -15t3 -15.5t1 -13.5q0 -7 -3.5 -12t-7.5 -9.5l-8 -9t-6 -11.5q0 -3 -0.5 -5.5t-0.5 -4.5v-5v-6q0 -8 1.5 -16t3.5 -15.5t4.5 -15t3.5 -15.5q0 -1 -2 -2.5t-3 -1.5q-5 0 -8.5 4.5t-6 11.5
t-4.5 16t-2.5 17t-1 15t-0.5 11t1 8.5t3 8.5t3 8t1 9q0 6 -2 12t-5 12.5t-6.5 13t-4.5 11.5l-0.5 1.5t-0.5 3t-0.5 3l-0.5 1.5q0 1 -2 5.5t-4.5 9t-4.5 8.5t-2 5l-1.5 4.5t-0.5 3.5q0 1 0.5 2.5t2.5 1.5q4 0 7.5 -5.5t6 -12.5t4 -14t3.5 -9q5 -12 9.5 -23.5t11.5 -21.5h1h1
q3 0 4 1t1.5 3.5t0.5 4.5v5q0 13 -4 25t-9.5 23t-11 22.5t-8.5 23.5v1zM86 240l0.5 0.5l0.5 0.5q0 1 0.5 1.5l0.5 0.5h1q3 0 6.5 -2t5.5 -4q7 -11 15 -24t15.5 -27t13 -28t5.5 -27q0 -2 -0.5 -6t-0.5 -5q-4 -7 -10 -13t-13 -11q-5 -3 -12 -5.5t-13.5 -5.5t-11.5 -7.5
t-5 -13.5q0 -4 0.5 -6.5t0.5 -5t0.5 -5.5t1.5 -7q1 -6 3.5 -11t2.5 -12t-7 -7q-3 0 -5.5 7t-4 16t-2.5 17t-1 10q0 6 1 11t1 11v5q-4 3 -8.5 7t-8.5 9t-6.5 10.5t-2.5 11.5q7 0 11.5 -3t8.5 -7.5t7.5 -10t8.5 -10.5h2h3q3 0 6.5 1.5t3.5 6.5q0 2 -2 5.5t-4.5 8t-5 8.5
t-3.5 6q-2 2 -7 8l-10 12t-9 12t-4 9t0.5 4t3.5 1t6 -2t5 -5q1 -2 4 -6.5t6.5 -9t6 -8t3.5 -4.5t2.5 -4t3.5 -6t3.5 -5.5t1.5 -3.5q1 -1 2 -4t2 -6.5t2.5 -6t2.5 -2.5q3 0 5.5 1t4.5 2.5t3.5 3.5t1.5 5q0 5 -3 11t-7 13t-8.5 13t-6.5 11q-1 1 -3 5t-4 8.5t-4 8t-2 4.5
q-1 1 -2 3t-2 3.5l-2 3l-1 1.5l-2 2l-2.5 2.5l-3 3t-1.5 2.5v5v1.5v3t0.5 2.5t2.5 1q3 0 8 -7.5t11 -18t12.5 -22.5t12 -23t9.5 -18t6 -7t3 1.5t2.5 3.5t2 4t0.5 4q0 3 -2.5 8.5t-6 12t-8 14.5t-8.5 15t-7 12.5t-5 8.5q0 1 -0.5 2.5l-0.5 1.5l-5 5t-5.5 6.5t-4.5 7t-2 6.5z
" />
</svg>
