<?xml version="1.0" standalone="no"?>
<!DOCTYPE svg PUBLIC "-//W3C//DTD SVG 1.1//EN" "http://www.w3.org/Graphics/SVG/1.1/DTD/svg11.dtd" >
<svg xmlns="http://www.w3.org/2000/svg" xmlns:xlink="http://www.w3.org/1999/xlink" version="1.1" viewBox="-10 0 266 256">
   <path fill="currentColor"
d="M168 245v6q6 0 10.5 -5t8.5 -13.5t7.5 -20t6.5 -23.5t5 -24t3.5 -22t2 -17.5t0.5 -10.5q0 -8 -2.5 -15t-7.5 -13t-10.5 -10.5t-11.5 -8.5v-13l0.5 -0.5l1.5 -1.5q3 -3 7.5 -6.5t8 -8t6.5 -9.5t3 -11h-8q-1 0 -3 2.5t-5 6l-6 7t-5 6.5q-4 5 -7.5 11t-3.5 13q0 3 1.5 6.5
t3.5 6t4.5 5l4.5 4.5l0.5 0.5t0.5 1.5t-2.5 6t-5.5 12.5t-7 16.5t-7.5 16.5t-6.5 13.5l-4 8q-2 5 -5 9.5t-6 9.5t-5 10t-2 11q3 0 6 -1t5 -4q9 -20 19 -39.5t20 -39.5q1 -2 1.5 -5t1.5 -6.5t2.5 -5.5t4.5 -2t5 3t3.5 7t2 8t0.5 7q0 14 -4.5 28.5t-7.5 27.5v2
q-5 17 -10.5 32.5t-13.5 31.5zM100 206q1 1 2 3.5t2.5 5t2.5 5.5t2 4q2 3 4 5.5t5 2.5t5.5 -2.5t2.5 -5.5v-1v-1l-7 -7t-5.5 -6.5t-3.5 -7t-1 -8.5q0 -8 2 -16.5t5 -16.5t6.5 -15.5t6.5 -14.5q2 -2 2 -3.5v-4.5q0 -8 -3.5 -12.5t-8.5 -7t-10.5 -4t-9.5 -4.5v-4v-4v-5t1 -6
l2 -6t3 -3h46q2 0 2 -2v-2v-3t-2 -2q-24 0 -47.5 -1t-47.5 -1h-3t-3.5 0.5t-2.5 2t-1 3.5q1 3 3.5 4t5.5 1.5t6 0.5h5h2h4t3.5 -0.5l1.5 -0.5h1.5t2.5 -0.5t2.5 -0.5h1.5q3 0 5 1.5t2 4.5v1v0q-2 8 -5.5 17t-6.5 17q-4 11 -8.5 23.5l-9 25t-7.5 25.5t-3 25q0 1 0.5 2t0.5 3
v3.5v2.5l1.5 1.5t2.5 0.5q1 0 1.5 -0.5l1.5 -1.5q2 -4 3 -8.5t1.5 -9.5t1 -9.5t1.5 -7.5q0 -1 1 -4.5t2 -7.5t2 -7t1 -4t0.5 -2.5t0.5 -3t0.5 -2.5t0.5 -2q2 -6 4.5 -11.5t5 -11.5t4.5 -12t3 -12h2q2 0 6.5 2.5t8.5 6t7 7.5t3 6q0 9 -3 17.5t-6.5 16.5t-6.5 17t-3 19v2v4v4
v3zM68 20l5 6h6h8q3 0 9.5 -0.5t14 -0.5t14.5 -0.5t9 -0.5q3 0 3.5 -1.5t0.5 -3.5t-1 -4t-4 -1h-17h-16q-3 0 -7.5 0.5t-9.5 1t-8 0.5h-3z" />
</svg>
