<?xml version="1.0" standalone="no"?>
<!DOCTYPE svg PUBLIC "-//W3C//DTD SVG 1.1//EN" "http://www.w3.org/Graphics/SVG/1.1/DTD/svg11.dtd" >
<svg xmlns="http://www.w3.org/2000/svg" xmlns:xlink="http://www.w3.org/1999/xlink" version="1.1" viewBox="-10 0 266 256">
   <path fill="currentColor"
d="M179 245v1l0.5 1t0.5 2h2.5h1.5q3 0 5.5 -4t4.5 -10.5t3 -14.5l2 -16t1.5 -14t1.5 -9q2 -12 4.5 -23.5t3.5 -23.5v-2v-4.5v-5.5v-4v-2v-4v-3v-2l-5 -9q-6 -2 -11 -5t-8 -6.5t-4.5 -8t-1.5 -11.5q0 -6 1 -11.5t2.5 -11.5t2.5 -11.5t1 -11.5v-6l-3 -3h-1h-1l-3 2
q0 1 -0.5 3.5t-0.5 5t-0.5 5t-0.5 3.5q0 4 -1 9.5t-3 8.5v15q0 1 -0.5 3.5t-0.5 6.5q0 3 0.5 6.5t1.5 4.5q2 4 5 6.5t3 7.5v0q0 1 -0.5 2t-1 2.5t-1 2.5l-0.5 1q-1 1 -1.5 3l-0.5 2q-2 13 -3.5 25.5t-3.5 25.5q-3 12 -6.5 24.5t-3.5 24.5q0 2 0.5 3.5t2.5 1.5t3.5 -3.5
t2.5 -8.5t2 -11.5t2 -12.5t1.5 -10.5t1.5 -5.5q0 -1 0.5 -3t1 -4.5t1 -4l0.5 -1.5q0 -2 1 -8t2 -13t2 -13t1 -7q0 -2 1 -5.5t2 -4.5h1q4 0 8 3.5t5 7.5v9q0 14 -2 27l-4 26t-5 26t-4 27l-2 4t-2.5 4.5t-2.5 5t-1 4.5zM92 216h-40q-1 0 -2 1t-1.5 3t-0.5 3.5v1.5h13h20
t22.5 -0.5t21 -1.5t15.5 -2.5t6 -4.5v0q0 -1 -1 -2l-2 -2v0h-1q-1 0 -5.5 0.5t-9.5 0.5t-9.5 0.5t-5.5 0.5h-1q-3 0 -4.5 -1t-2.5 -3t-1 -4.5v-4.5q0 -6 1.5 -9t4.5 -4.5t6.5 -2t7.5 -1t8 -1.5t7 -4q6 -5 8.5 -12.5t3.5 -15.5t1 -17v-14v-27v-27l-1.5 -1.5l-1.5 -1.5h-1
q-2 0 -3.5 1.5t-1.5 3.5v6.5v10.5v11v7q-1 8 -0.5 17t0.5 17.5t-1.5 16t-5 13t-10.5 9t-17 3.5q-4 0 -4.5 -2t-0.5 -5v-1.5v-0.5v-2.5t0.5 -3.5t0.5 -3.5t1 -2.5q5 -1 9 -3.5t6 -7.5v-2t0.5 -4.5t0.5 -3.5v-3v-4t-0.5 -4t-0.5 -4v-2l-0.5 -2.5t-1.5 -5.5l-2 -6t-2 -5
q-2 -5 -5 -10t-3 -11v-3q5 -13 11.5 -26.5t15.5 -24.5v-1v-1q0 -4 -4 -4q-5 0 -8.5 6t-6.5 12.5t-6.5 12.5t-6.5 6t-5.5 -3t-4.5 -7t-3.5 -8.5t-4 -8.5t-6 -7t-7.5 -3q0 7 4.5 15t9.5 16t9 16t4 16v2.5v1.5l-1.5 2.5t-2.5 5.5t-2 5t-2 3q-3 6 -4 13.5t-5 13.5v19q0 2 2 3.5
t4.5 2.5l5 2t3.5 1q0 1 0.5 3.5l1 5t0.5 4.5v3v2v2t-2 1h-4h-4h-7.5t-6.5 -1.5t-5.5 -4t-2.5 -7.5q-1 -2 -1.5 -5t-1 -7t-1 -6.5t-0.5 -3.5v-15q0 -15 2 -29t2 -28v-4q0 -2 -3 -2q-2 0 -5 2.5t-3 5.5v21l-1 2l-1 2v1v1q0 1 0.5 3t0.5 4.5t0.5 4.5l0.5 2v5v9v10v11v9v4v3
t0.5 4t0.5 4t1 3q3 5 7.5 7t9.5 3t10 1t11 1l1 1v19zM88 135q0 -3 1 -8t2.5 -10.5t3.5 -10.5t4 -7h1q3 0 5.5 6t4 13t2.5 14t1 9q0 8 -9 8t-12.5 -2.5t-3.5 -11.5z" />
</svg>
