<?xml version="1.0" standalone="no"?>
<!DOCTYPE svg PUBLIC "-//W3C//DTD SVG 1.1//EN" "http://www.w3.org/Graphics/SVG/1.1/DTD/svg11.dtd" >
<svg xmlns="http://www.w3.org/2000/svg" xmlns:xlink="http://www.w3.org/1999/xlink" version="1.1" viewBox="-10 0 266 256">
   <path fill="currentColor"
d="M160 247q0 2 1 3t3 1q6 0 9 -4q4 -11 7 -21t6 -21q1 -5 4.5 -10t4.5 -9q2 -4 3.5 -11.5l3 -15t2 -15t0.5 -12.5q0 -8 -3 -13.5t-8 -9t-10.5 -5.5t-10.5 -4.5t-8 -5.5t-3 -8q0 -1 0.5 -3.5t1.5 -5t2.5 -4.5t2.5 -3t4.5 -2.5l7 -3t6.5 -3.5t4 -2q2 -1 4.5 -1.5t5 -1.5
t4.5 -2.5t2 -4.5q0 -4 -0.5 -5t-4.5 -1q-6 0 -14.5 4t-16 10.5t-12.5 14.5t-5 16q0 4 2 7t4 5t4 4.5t2 5.5q0 11 -2 21.5t-6 21t-8 20.5t-7 20l-0.5 2l-1 4t-1 3.5t-0.5 2.5l-4 6t-3.5 5.5t-2.5 5.5t-1 8q6 0 9 -3.5t5 -8t3.5 -10t2.5 -8.5q6 -16 12 -31t12 -32v-4.5t1 -7
t3 -6t5 -2.5t5.5 2t4.5 5.5t3 7t1 6.5q0 9 -3 17.5t-5 17.5q-4 17 -9.5 33.5t-13.5 33.5q-1 2 -2 3t-1 1.5t-0.5 0.5t-0.5 2zM72 245q0 2 1.5 2.5t3.5 0.5q8 0 13 -4.5t8.5 -11t6 -13.5t5.5 -13q5 -9 9.5 -18.5t6.5 -19.5v-3t0.5 -6.5t0.5 -7v-5.5v-3q0 -8 -1 -16t-4 -16
t-7.5 -15t-10.5 -12v-0.5v-1.5q0 -2 0.5 -2.5t2.5 -0.5q1 0 2.5 -0.5t3.5 -0.5t4 -0.5t3 -0.5q5 -1 9 -6t6 -11.5t3 -13.5t1 -12q0 -6 -3 -10.5t-7.5 -7t-9.5 -3.5t-10 -1q-11 0 -19.5 0.5t-14.5 3.5t-9 10t-3 20q0 6 0.5 12.5t3.5 11.5q1 3 5 4t7.5 2l7 2t3.5 3v1
q0 1 -0.5 1.5t-1.5 0.5l-2.5 1.5t-5.5 3t-5.5 3.5t-3.5 2l-2 2t-4.5 4l-5 4t-4.5 3q-2 2 -4 4.5t-2 5.5q0 4 4 4t9.5 -5t11.5 -11t12 -11t11 -5q4 0 5 3t1 7l-2 3t-4.5 7t-6 8.5t-6.5 8.5t-5.5 7t-4 4t-5 3.5t-7.5 5.5t-7 5.5t-3 4.5q0 1 1 3t2 2t2.5 -0.5l3 -1t3.5 -1
t3 -0.5q0 -1 2 -3l4 -4t3.5 -4t2.5 -3t3.5 -4t5.5 -6.5t6.5 -8t6 -7.5t4.5 -5.5l2 -2.5h1q1 0 1 1q4 5 5 9t1 10q0 5 -4 11.5t-10.5 13t-14 13.5t-14 13t-11 11t-4.5 8q0 2 2 3.5t3 1.5h1q1 -1 3.5 -3t5.5 -4t5.5 -4t3.5 -3q2 -2 7 -8.5t10 -13.5t9.5 -12.5t6.5 -5.5
q0 1 0.5 4t0.5 5.5v5v3.5q-1 9 -5.5 20t-10.5 21t-13 19t-13 14l-0.5 1zM82 67q-4 -1 -7 -6t-3 -9t1 -4.5t6 -0.5h45q2 0 2 1.5v3v1.5q0 10 -6 13.5t-14 3.5v0q-2 0 -5 -0.5t-7 -1t-7.5 -1t-4.5 -0.5zM76 37v-1.5v-1.5q0 -5 3.5 -7.5t9 -3.5t10.5 -1h8h7.5t6 1t4 3.5
t1.5 7.5v2.5t-2 1.5h-1h-9.5t-14 -0.5t-14 -0.5h-9.5z" />
</svg>
