<?xml version="1.0" standalone="no"?>
<!DOCTYPE svg PUBLIC "-//W3C//DTD SVG 1.1//EN" "http://www.w3.org/Graphics/SVG/1.1/DTD/svg11.dtd" >
<svg xmlns="http://www.w3.org/2000/svg" xmlns:xlink="http://www.w3.org/1999/xlink" version="1.1" viewBox="-10 0 266 256">
   <path fill="currentColor"
d="M81 240q0 3 0.5 6t1.5 5q3 -1 5.5 -5.5t4 -11t3 -14t2 -15t1 -13t0.5 -8.5v-5.5t0.5 -7.5t0.5 -7.5v-5.5q2 -2 4.5 -3t5.5 -1t3 3v5v17.5t-1 17.5q-2 9 -3.5 17.5t-1.5 18.5q3 0 5.5 -5t4.5 -12.5t2.5 -16t1 -16.5t0.5 -14v-8q0 -1 0.5 -3.5t0.5 -5.5t0.5 -6t0.5 -4v-2
q0 -2 -2 -5.5t-5 -3.5v0q-1 0 -1.5 0.5l-0.5 0.5v12q0 2 -3 2.5t-4 0.5q-3 0 -4.5 -1t-1.5 -2.5v-3.5t-1 -5q0 -2 -3.5 -3t-7.5 -2.5t-7 -3t-3 -6.5q0 -4 4 -6.5t9.5 -4t10.5 -2t7 -0.5v-2v-1q0 -6 -5 -6t-11.5 1t-12 4t-9 7.5t-3.5 10.5t1.5 8.5t4.5 3.5t6 1t5.5 1t4 2.5
t1.5 5.5q0 7 -6 7q-4 0 -6 -2.5t-3 -5t-3 -4.5t-6 -2q0 16 -1 34.5t-2 33.5q-3 6 -3.5 9.5t-0.5 8.5v3v3t1 1h2q2 0 4 -3.5t3.5 -8t2.5 -9t1 -6.5t0.5 -7.5l1 -11t1 -10.5t0.5 -7q0 -1 0.5 -3.5l0.5 -2.5q1 -2 3.5 -2h3.5h2.5h1.5q1 3 1.5 5.5t0.5 5.5q0 17 -2.5 34t-7.5 33
q0 1 -0.5 2l-0.5 1v1zM178 232q0 1 0.5 3t2.5 2q3 0 5.5 -4t2.5 -7q1 -9 2 -20l2 -22t1.5 -22t0.5 -21q0 -3 -2 -6t-6 -3l-1 0.5t-1 1.5v10l-3 3h-10l-1 -3v-3.5v-4.5v-5v-3q-2 -6 -5.5 -7.5t-7.5 -2t-7 -1.5t-3 -7v-1.5v-1.5q4 -2 9 -3.5t10 -1.5h10h9q3 0 3 -2t-0.5 -3.5
t-2.5 -1.5h-31q-3 0 -5.5 2t-4 5t-2.5 6t-1 6q0 7 3 9t7 3t7 3.5t3 9.5v3.5t-1 4.5h-2.5t-3 0.5t-3.5 0.5h-2h-1q-3 0 -3.5 -2t-1 -5t-1 -5t-2.5 -2q-3 0 -3.5 2t-0.5 4q0 7 0.5 13.5t0.5 13.5t-1 14.5t-2.5 14.5t-2.5 14t-1 15q0 2 0.5 3t2.5 1t4 -2t3 -5t1 -5.5t1 -4.5
v-2.5t0.5 -5t0.5 -4.5v-3q0 -3 0.5 -8t0.5 -11.5v-12v-7.5q1 -1 2.5 -1.5t3 -1.5t3.5 -1h3q5 0 5 5q0 12 -0.5 23.5t-2.5 22.5q0 6 -1.5 11t-1.5 11v3q0 3 1 4q0 1 1 1h2h1v0l3 -3l3 -3v-8.5t0.5 -13.5t1 -13.5t0.5 -8.5t0.5 -7t0.5 -10.5t1 -9.5t3 -4h9l2 3v3.5v4.5
q0 17 -2.5 32.5t-4.5 31.5v3zM88 93q0 1 1 1h1q3 0 5 -2.5t2.5 -6t0.5 -7.5t0.5 -8t2 -6.5t4.5 -3.5q0 -1 2 -1t4 -0.5t3.5 -1t2.5 -0.5q4 2 4.5 5t0.5 7q0 5 -1 9t-1 8q0 2 0.5 3.5t3.5 1.5t5 -4t2 -7q0 -2 -1 -5v-17l1 -3h3.5t6 -0.5t6.5 -0.5h1h2.5t0.5 1v17t1 16l2 2h1
q1 0 2 -1.5t1.5 -3t0.5 -3.5v-2q1 -2 1.5 -7t0.5 -10.5t0.5 -11.5t0.5 -8v-4q0 -3 -2 -5t-4 -2q-1 0 -3 0.5t-2 1.5v10q0 2 -1.5 2.5t-3.5 1t-4 0.5h-2h-3h-3l-2 -1.5t-2 -2.5l-1.5 -2.5t-1.5 -3.5q-1 -1 -5.5 -2l-9 -2t-8.5 -1.5t-4 -1.5v-10l0.5 -0.5t1.5 -0.5
q13 -5 27 -5h28q1 0 1 -0.5v-1.5q0 -2 -1 -3.5t-3 -2.5h-3h-3.5h-3.5h-3h-3h-4h-4h-1q-6 0 -12 0.5t-11.5 2t-9.5 5t-4 10.5t2 10t5.5 4.5t8.5 1.5h11q3 2 3 5q0 2 -1.5 3t-3.5 1.5t-4 0.5h-3h-5q-3 -1 -4 -3t-2 -3.5t-3 -2.5t-5 -1h-1q0 12 -1 23t-1 23v3v3z" />
</svg>
