<?xml version="1.0" standalone="no"?>
<!DOCTYPE svg PUBLIC "-//W3C//DTD SVG 1.1//EN" "http://www.w3.org/Graphics/SVG/1.1/DTD/svg11.dtd" >
<svg xmlns="http://www.w3.org/2000/svg" xmlns:xlink="http://www.w3.org/1999/xlink" version="1.1" viewBox="-10 0 266 256">
   <path fill="currentColor"
d="M162 248l2 2l1 1h1h1q4 -4 6.5 -10t3.5 -12.5t1.5 -13.5t0.5 -12q1 -2 1 -9t1 -15t1.5 -15t0.5 -10v-4v-6v-6v-4l3 -4h14l3 4q0 2 -0.5 6.5t-0.5 10t-0.5 10t-0.5 7.5v4v8v8v5q0 8 -1.5 16.5t-1.5 17.5v6l5 2l1 -1.5t1.5 -4t1.5 -4.5l1 -2q0 -4 0.5 -14t1 -21.5t1 -21.5
t0.5 -14v-3v-7v-7v-6v-20t-2 -19q-1 -3 -2 -3.5t-3 -0.5q-3 0 -3.5 1.5t-0.5 4.5q0 7 1.5 13.5t1.5 13.5q0 1 -0.5 3t-2.5 2h-13q-2 0 -3 -6t-1.5 -13.5t-1.5 -14.5t-3 -10t-6 -5t-7.5 -3.5t-6 -4t-2.5 -7.5q0 -7 2.5 -10.5t7 -5t9.5 -2t9 -1.5h2.5h2.5h4h2q3 -2 3 -5t-3 -4
t-6 -1q-8 0 -16 2.5t-15 4.5q-5 4 -6.5 10t-1.5 12t1.5 10t4 6.5t6 4.5t6 4t4 5t1.5 7v25l-3 3h-12q-2 0 -3 -1.5t-1 -4t0.5 -4l0.5 -1.5q0 -2 -0.5 -4.5t-0.5 -6t-0.5 -6t-0.5 -4.5q-1 -5 -5 -5q-2 0 -2.5 2.5t-0.5 4.5q0 9 1 17t1 17q0 17 -1.5 33t-3.5 32q-1 5 -2.5 9
t-2.5 8t-2.5 8t-1.5 8q7 0 10 -5.5t4 -11.5l8 -75q0 -1 1.5 -2t3.5 -1h3h3q4 0 5.5 1t1.5 6v21q0 18 -2 35t-6 35l-1 3t-2 3v6v6zM72 182q0 4 2.5 6.5t5.5 4.5t6.5 3.5t6.5 1.5q5 0 9.5 -0.5t8 -2t6 -5t2.5 -9.5v-7q0 -3 -0.5 -8.5t-0.5 -11t-0.5 -10t-0.5 -5.5q-1 -5 -3 -8
t-7 -3q0 9 1.5 17t1.5 17v5.5t-0.5 7t-1.5 6.5t-3 5h-4h-3q-6 0 -10 -1t-7 -6q-1 -11 -1.5 -22.5t0.5 -22.5q-1 -2 -2 -3.5t-2 -1.5h-1q-1 0 -1.5 0.5l-0.5 0.5q-2 8 -1.5 16.5t0.5 14.5v5v6v7v3zM44 139q0 2 1 3t3 0q6 -1 10.5 -7.5t9.5 -13t10 -12.5t11 -6q5 0 11 4
t11.5 8t10 8t8.5 4q2 0 3.5 -1t1.5 -3q0 -4 -6.5 -8.5t-13.5 -8.5t-13.5 -7.5t-6.5 -5.5v-27q0 -2 2 -1.5t3 0.5q4 0 7 1t6 3.5l6 5t6 5.5h3q2 0 4 -0.5t2 -3.5q0 -6 -5.5 -9.5t-12.5 -6.5t-13 -5.5t-6 -4.5v-31q0 -2 -2.5 -4t-4.5 -2q-1 0 -2.5 1.5t-1.5 3.5v35q0 1 -3 2.5
t-7.5 4t-9.5 5.5t-9 6t-7 6t-3 5v1q0 1 1 2l2 2h1q3 0 7.5 -3t8.5 -7l8.5 -8.5l7.5 -7.5h0.5h0.5q3 0 3.5 3t0.5 5q0 7 -0.5 12.5t-1.5 13.5q-5 6 -10.5 11l-11 10l-11 10t-9.5 11v1v1z" />
</svg>
