<?xml version="1.0" standalone="no"?>
<!DOCTYPE svg PUBLIC "-//W3C//DTD SVG 1.1//EN" "http://www.w3.org/Graphics/SVG/1.1/DTD/svg11.dtd" >
<svg xmlns="http://www.w3.org/2000/svg" xmlns:xlink="http://www.w3.org/1999/xlink" version="1.1" viewBox="-10 0 266 256">
   <path fill="currentColor"
d="M53 249q1 1 2.5 1.5t3.5 0.5q3 0 4 -0.5t1 -3.5v-3q0 -1 -0.5 -6t-1 -10.5t-1 -10t-0.5 -6.5q-1 -17 1.5 -30.5t9.5 -27.5l2 -4l2 -4t2 -3.5t1 -2.5v-2t0.5 -5t0.5 -6v-4v-4q0 -3 -0.5 -6t-0.5 -6v-9t1 -10q1 -1 3.5 -2t3.5 -1q4 1 4.5 3t0.5 5q0 7 -1 14t-1 14
q0 6 1.5 11t3.5 9.5t3.5 9.5t1.5 10q0 3 -0.5 6t-1.5 6.5t-2.5 6.5l-2.5 5q0 1 -1.5 3l-1.5 2q-1 4 -1.5 9t-0.5 9q0 10 1.5 19t5.5 18q0 2 3 2h3q3 0 4 -0.5t1 -3.5q0 -4 -1 -9t-2.5 -9.5t-3 -9.5t-1.5 -10q0 -8 2 -13.5t4.5 -11t4.5 -10.5t2 -12q0 -5 -2 -9t-4.5 -7.5
t-4.5 -7.5t-2 -10v-3q0 -1 2 -2l18 -3q1 0 2.5 -2t3 -4.5t2 -5.5t0.5 -4q0 -8 -3 -12t-8 -6.5t-11 -3t-12 -1.5q-2 -1 -2 -2v-3q0 -5 2 -8t5.5 -5t7 -3t7 -2.5t5.5 -4t2 -7.5q0 -7 -2 -11t-5.5 -6.5t-9 -3.5t-10.5 -1q-1 0 -3 0.5l-2 0.5h-11h-12q-4 -3 -8 -4.5t-9 -1.5
q0 3 0.5 7t3.5 6h3.5h6t6 1.5t2.5 4.5v1v1l-6 6t-8 8.5t-6.5 9t-2.5 7.5q0 4 0.5 5.5t3.5 1.5t6 -3.5t5.5 -8.5t6 -10.5t7.5 -10.5t9 -8.5t12 -3.5q1 0 3.5 0.5t3.5 0.5t1.5 0.5t0.5 2v2.5v1q0 7 -2 9.5t-5.5 3.5t-6.5 1.5t-6 4.5q-2 4 -2 7.5t-0.5 7.5t-2 7t-4.5 5
q-7 0 -12.5 0.5t-9.5 3t-6 6.5t-2 12v4.5v4.5q1 4 4 6t6.5 2.5t7.5 0t7 -0.5q1 0 1 1v2v2.5v1.5q0 4 -2.5 10t-5.5 11.5t-6.5 12t-4.5 11.5q-2 7 -2.5 14.5t-0.5 14.5v15.5t-1 14.5v1q0 1 0.5 3.5t1.5 5.5t1.5 5.5zM147 241q0 2 0.5 3.5t3.5 1.5q4 0 7.5 -6.5t6 -14.5
t4.5 -15t2 -10q1 -4 1.5 -8t0.5 -7.5t0.5 -7.5t2.5 -8l5 -44q1 -2 2 -3t3 -1.5t4 -0.5h3q4 0 5 2.5t1 6.5q0 3 0.5 7.5t0 8.5l-1 8t-2.5 8q1 17 -1 35.5t-7 34.5v1q0 2 1.5 3t3.5 1q3 0 5 -4t3.5 -10.5t2.5 -14t2 -14.5t1 -13v-8v-16q0 -1 0.5 -3t0.5 -4.5t0.5 -4.5t0.5 -3
v-6.5v-10.5v-10v-7q1 -3 1.5 -5t0.5 -4q0 -3 -2 -7t-6 -4h-1l-0.5 1l-0.5 1q-2 2 -2.5 5t-1 6.5t0 6.5t0.5 5h-18v-30l-1 -0.5l-1 -0.5q-2 -2 -6.5 -4.5t-9.5 -6t-8.5 -7t-3.5 -6.5q0 -6 2.5 -9t6.5 -5t8.5 -2.5t8.5 -0.5t7.5 1t6.5 1q1 0 2.5 -1t2.5 -2l2 -2t1 -2
q-1 -1 -3.5 -2.5t-3.5 -2.5h-2.5h-3.5h-4h-2q-7 0 -13.5 0.5t-11.5 3.5t-7.5 8.5t-2.5 14.5q0 8 2.5 12t6 5.5t7.5 3t7 6.5q4 7 4 14v16h-22q-1 0 -1.5 -1.5t-0.5 -2.5v-1v0q0 -1 0.5 -3t0.5 -4t0.5 -4l0.5 -2v-2v0l-2 -2l-2 -2v0v0h-1v0l-2 2t-1 2t-0.5 5t-0.5 8.5
t-0.5 8.5t-0.5 6v2v4q0 3 -0.5 5t-1.5 3q-1 20 -5 39.5t-11 37.5v11q5 0 9 -6t6.5 -15.5t4 -21t3 -22.5t2.5 -20t3 -13q1 -3 5 -4t7 -1h3t3 1t2 3.5t1.5 5t0.5 5v3.5t-0.5 2t-0.5 2q-1 1 -1.5 2.5t-0.5 2.5q-2 21 -5.5 39.5t-10.5 38.5q0 1 -1 2.5t-1.5 3.5t-1.5 3.5t-1 2.5
v1v2zM56 109v-3v-3q0 -5 1.5 -9t6.5 -4q2 0 3.5 0.5t3.5 3.5v6v4q0 2 -0.5 3.5t-2 3t-3.5 1.5q-3 0 -4.5 -0.5t-4.5 -2.5zM98 107v-7v-6.5t1 -4t2.5 -2t5.5 -0.5q5 0 6.5 3t1.5 8t-2 8.5t-8 3.5h-4t-3 -3z" />
</svg>
