<?xml version="1.0" standalone="no"?>
<!DOCTYPE svg PUBLIC "-//W3C//DTD SVG 1.1//EN" "http://www.w3.org/Graphics/SVG/1.1/DTD/svg11.dtd" >
<svg xmlns="http://www.w3.org/2000/svg" xmlns:xlink="http://www.w3.org/1999/xlink" version="1.1" viewBox="-10 0 266 256">
   <path fill="currentColor"
d="M90 246q0 2 0.5 3.5t2.5 1.5q3 0 5 -3t2 -5v-62l5 -5l21 -3l0.5 -1.5t1.5 -1.5v-1v-1q-1 -1 -1.5 -2l-0.5 -1h-26l-1 -1l-1 -1v-2v-3q0 -4 2.5 -6t5.5 -3.5t7 -2t7 -1.5q3 -3 4.5 -7.5t2.5 -10t1 -11.5v-9v-11q-1 -3 -2.5 -4t-3.5 -1h-1h-1q-1 2 -1.5 5.5t-0.5 4.5t-1 4
l-1 3h-16v-20l1 -1l2 -2q6 -3 8 -5.5t3 -5t1.5 -6.5t0.5 -11q1 -7 3.5 -9.5t5.5 -3t5.5 -0.5t2.5 -2q0 -3 -3 -3.5t-6 -0.5h-5.5t-2.5 -2v-23q0 -1 -2.5 -2t-3.5 -1v26l-2 2h-4h-4h-10t-10 -2v-2.5t-0.5 -3t-0.5 -3.5v-2v-3q0 -3 -0.5 -5.5t-1.5 -4t-4 -0.5q-1 0 -2.5 2
t-1.5 3v21h-22l-0.5 2t-0.5 3v1v0q0 1 0.5 2.5l0.5 1.5h20l1 1t1 2t0.5 4t1 7t1 7.5t0.5 4.5q1 5 4.5 7t7 2.5t6 1.5t2.5 5v3q0 1 -0.5 3.5l-1 5t-1 4.5t-0.5 3q-1 1 -2 1.5t-2 0.5h-2.5t-3.5 -0.5l-4 -1t-3 -0.5q0 -1 -0.5 -3.5l-1 -5t-2 -4.5t-3.5 -2t-3 1t-1.5 2.5
t-0.5 3.5v3v6t0.5 4.5t1 5.5t0.5 7q1 9 2.5 13t4.5 6t8 2.5t13 1.5q2 1 2 2v2v3.5t-1 5t-2 4t-4 1.5h-26q-3 0 -4 1.5t-1 3.5q0 4 2.5 5t5.5 1q6 0 12 -1.5t12 -1.5h1q2 0 3.5 1.5t1.5 4.5v0v6.5t-0.5 11t-0.5 14t-0.5 13.5t-0.5 11v6v1.5v0.5zM156 242q0 4 4 4q3 0 5 -5
t3 -11t1.5 -12t0.5 -8q6 -21 9.5 -42.5t5.5 -43.5q1 -2 2 -2h2q4 0 6.5 4t4.5 8v9v9q-1 6 -1.5 16t-1.5 19.5t-1.5 17l-0.5 7.5l-8 21v0v1q0 4 4 4q3 0 5.5 -2.5t4 -6.5t2 -8t0.5 -6v-20q1 -2 2.5 -3.5t2.5 -4.5v-22t1 -22.5t1.5 -22.5t0.5 -22v-10q1 -3 -0.5 -3h-3.5
t-3.5 0.5t-2.5 2.5q1 6 0.5 13t-1.5 13q-1 1 -2 1.5l-1 0.5h-1q-1 0 -3 -2t-3 -4l-2 -4l-1 -2v-27q0 -3 -2.5 -6.5t-6.5 -6.5t-7.5 -5.5t-5.5 -4.5v-2q0 -5 4 -7.5t8 -3.5h4t6.5 -0.5t6.5 -1t4 -0.5q2 0 3.5 -1.5t1.5 -3.5v-1q0 -1 -0.5 -2t-1.5 -1h-4q-6 0 -12.5 0.5
t-12 2.5t-9.5 6t-4 11q0 6 1.5 10t3.5 6.5t4.5 5t5 5.5t4 7.5t1.5 12.5q0 10 -5 12t-15 2v-21q0 -1 -0.5 -2t-1.5 -1v0h-1q-1 0 -2 0.5t-2 0.5q0 25 -4.5 48t-11.5 46q-1 5 -3 9t-4 8.5t-3.5 9t-1.5 9.5q4 0 7.5 -5t6.5 -12t6 -16t5 -17t3 -14.5t2 -10.5q0 -1 0.5 -4t1 -7
t1 -7t0.5 -4h2l2.5 -1t5 -1.5t4.5 -1.5t3 -1h1q2 0 3 1t1 3q0 7 -2 14t-3 14q0 2 -1 6t-1.5 9t-1.5 9.5t-1 6.5v1.5v0.5q-2 5 -3 8t-2 5.5t-1.5 5.5t-0.5 8l-1 5t-2.5 11t-2 11t-0.5 7zM70 127q0 -7 3.5 -8.5t10.5 -1.5q4 0 6 3t2 7v2q0 1 -0.5 4t-1 5l-0.5 2h-15
q-2 0 -3 -1.5t-1 -4t-0.5 -4.5t-0.5 -3zM113 116q7 0 7 7q0 3 -0.5 6t-2 5.5t-3.5 4t-5 1.5q-2 0 -5.5 -0.5t-3.5 -2.5v-18q0 -1 1.5 -2t4 -1h4.5h3zM79 56v-7q0 -2 2.5 -2.5t5.5 -1t5.5 0t3.5 0.5h2h3h3.5h1.5q2 1 3 2.5t1 3.5q0 1 -0.5 5t-1.5 8t-2.5 7t-3.5 3h-19
q-2 0 -3 -2.5t-1.5 -5.5t0 -6.5t0.5 -4.5z" />
</svg>
