<?xml version="1.0" standalone="no"?>
<!DOCTYPE svg PUBLIC "-//W3C//DTD SVG 1.1//EN" "http://www.w3.org/Graphics/SVG/1.1/DTD/svg11.dtd" >
<svg xmlns="http://www.w3.org/2000/svg" xmlns:xlink="http://www.w3.org/1999/xlink" version="1.1" viewBox="-10 0 266 256">
   <path fill="currentColor"
d="M74 247v0.5v0.5q1 0 2 1l2 2v0q5 0 7.5 -4.5t4 -11t2 -14t1 -14t2.5 -11t5 -4.5q4 0 6 4.5t3 11t1 13.5t1 13.5t2 10.5t4 4t4.5 -1.5t1.5 -4.5q0 -6 -1 -12t-3 -12t-3.5 -12t-1.5 -13q0 -1 1.5 -2l3 -2t3.5 -2t3 -2q2 -5 3.5 -10t2 -10t0.5 -10.5v-11.5v-3v-6v-6v-4
q-1 -5 -4.5 -9.5t-9.5 -4.5h-30q-4 0 -8.5 3.5t-5.5 7.5q-1 7 -1 12t-0.5 9.5t-0.5 8.5v11v2v4v4v3q1 2 3.5 5t4.5 6.5t4 5.5t2 3q0 8 -1 17t-3 16q-1 1 -2 3.5t-2 5.5t-2 5.5t-1 3.5zM152 240q0 2 1 4t3 2q3 0 4.5 -2t2.5 -4q1 -1 1.5 -3.5t1.5 -4.5t1.5 -4l0.5 -2
q0 -1 0.5 -4.5t1 -7.5t1 -7.5t0.5 -4.5t0.5 -3.5t1 -5.5t1 -5.5l0.5 -2.5q0 -1 0.5 -5t1 -9t1 -9t0.5 -5v-1t0.5 -2.5t0.5 -2.5v-1q1 -1 1 -5.5t0.5 -9.5t1.5 -9t1 -5q0 -2 0.5 -4l0.5 -2q2 -3 5 -5.5t6 -2.5q1 0 2 0.5t1 2.5v4v6v7v4q0 24 -3.5 46.5t-7.5 45.5v3q0 2 0.5 4
t2.5 2q2 1 3.5 -0.5t3 -3.5t2 -4.5t0.5 -3.5q4 -29 6 -59.5t2 -60.5v-7q-2 -3 -5 -3h-0.5h-0.5l-12 12h-5v-2v-2v-4t-0.5 -4.5t-0.5 -4.5v-3q-1 -3 -3.5 -5.5t-5.5 -3.5t-5.5 -2t-2.5 -3v-10l1 -2q1 0 3 -1t3.5 -2l3 -2l1.5 -1q1 0 4.5 -0.5l7 -1l7 -1t4.5 -0.5l1.5 -1
t1.5 -2v-1q0 -3 -2.5 -4t-4.5 -1q-6 0 -12.5 1.5t-12.5 5t-10 8t-4 11.5t3 10.5t6.5 6t6.5 6t3 10.5v3q0 2 -1 2l-0.5 1l-0.5 1h-1q-3 0 -4.5 -2t-3.5 -4l-4 -4t-4 -3l-1 1t-2 1l-0.5 0.5t-0.5 1.5l-8 65q1 8 -0.5 16t-4 15.5t-4.5 15t-2 15.5q5 0 8.5 -8.5t6 -21.5t3.5 -28
t2.5 -28.5t3 -22t4.5 -8.5h0.5h0.5q5 4 8 6t3 7q0 7 -0.5 14.5t-2 15t-2.5 15.5t-1 14l-2 3q0 8 -1.5 15t-3.5 14t-4.5 14t-3.5 14q-1 0 -1 1v2zM80 174q0 -2 1 -4t3 -4q9 0 18 -1.5t19 -1.5q0 4 -0.5 8.5t-1.5 8.5q-5 4 -10 4.5t-11 0.5h-5h-5q-3 0 -5.5 -4t-2.5 -7z
M79 153v-3v-2q4 -2 9 -3.5t10 -2t10 -0.5h9v0l2.5 1t2.5 2v11l-2 1q-9 0 -16 1t-16 1h-4h-3q-1 0 -1.5 -1t-0.5 -2v-2v-1zM79 133q0 -5 2.5 -8.5t6.5 -5t8.5 -2t8.5 -0.5h2q2 0 3.5 0.5t3.5 0.5h2q2 0 3 1.5t1.5 4t1 4.5t0.5 3v2.5t-2 2.5q-10 1 -17 1.5t-15 0.5
q-1 0 -3 -0.5t-3 -0.5q-2 -1 -2.5 -2t-0.5 -2zM50 69v1q0 1 1.5 2l1.5 1h11l0.5 0.5t0.5 1.5v4q0 1 0.5 3.5t0.5 4t0.5 3l0.5 1.5q1 4 4 6t6.5 3t7.5 1.5t6 0.5h1h1h1t2.5 -0.5t2.5 -0.5h1q2 0 6.5 -0.5t9.5 -0.5q6 0 10.5 0.5t6.5 0.5t2.5 -1t0.5 -2q0 -4 -3.5 -4.5
t-6.5 -0.5v-5v-6q1 -6 2 -9t3 -3.5t5.5 -0.5t8.5 -2v-2q0 -2 -2 -3t-4 -1q-6 -2 -8.5 -3t-3.5 -2.5t-1 -2.5v-2t-1 -2t-5 -2q-3 6 -3 9t-0.5 5t-4 2h-13.5v-4v-6t1 -6t3 -3l37 -3q1 0 1.5 -1.5t0.5 -2t-1.5 -1.5l-1.5 -1h-3.5h-3.5q-7 0 -14 0.5t-14 0.5q-2 0 -2.5 -0.5
t-1.5 -3.5v-16q0 -2 -3.5 -3t-5.5 -1v26h-30q-4 0 -4.5 0.5t-0.5 3.5q0 2 1.5 3t3 1.5t3 1.5t1.5 2v11l-2.5 1t-3.5 2q-1 0 -2.5 0.5l-3 1t-2.5 1.5t-1 2zM76 78v-2v-3q1 -3 4.5 -4t6.5 -1v-1q0 -2 -0.5 -2.5t-2.5 -0.5q-1 0 -2.5 -0.5t-3 -0.5t-3.5 -0.5l-2 -0.5v-15
l3 -0.5t5 -0.5q1 -1 5 -1h5v46q0 1 -0.5 1.5l-0.5 0.5q-1 1 -2 1.5l-1 0.5q-4 0 -6 -1.5t-3.5 -4t-1.5 -5v-6.5zM97 89q0 -7 1 -11t4 -6t7.5 -2.5t11.5 -0.5q0 1 -0.5 2.5l-0.5 1.5q0 3 -0.5 7.5t-0.5 7.5v3l-3 4h-14l-2 -2l-3 -3v-1z" />
</svg>
