<?xml version="1.0" standalone="no"?>
<!DOCTYPE svg PUBLIC "-//W3C//DTD SVG 1.1//EN" "http://www.w3.org/Graphics/SVG/1.1/DTD/svg11.dtd" >
<svg xmlns="http://www.w3.org/2000/svg" xmlns:xlink="http://www.w3.org/1999/xlink" version="1.1" viewBox="-10 0 266 256">
   <path fill="currentColor"
d="M117 237q0 1 0.5 3t1 4.5t1.5 4t3 1.5h0.5h0.5l9 -8q-1 -10 -1 -19.5t2 -19.5q0 -2 1 -4t3 -2.5t4 -1.5t4 -1q16 -7 26.5 -11.5t16.5 -11t8.5 -17t2.5 -30.5q0 -16 -2 -31t-3 -31q0 -3 -0.5 -3.5t-1 -1.5t-1.5 -1.5t-2 -1.5q-7 -8 -12 -11t-10.5 -4.5t-12.5 -1.5t-16 -3
q1 -3 1 -7t-1 -7t-3.5 -5.5t-7.5 -2.5v20q0 1 -3 1.5t-8 1t-10.5 1t-10.5 1t-8.5 1.5t-4.5 3l-0.5 1t-1 2.5t-1 2.5t-0.5 2l-2.5 2.5t-5 4.5t-4.5 4.5t-3 2.5q-3 3 -4 8.5t-1.5 11.5t0 12t0.5 10v8v3t0.5 4.5t1 4.5t0.5 3q0 13 0.5 24t4.5 19.5t12 13t24 4.5h11q4 -2 4 -5
q0 -4 -5.5 -5t-12.5 -2t-13 -3t-9 -8q-3 -9 -4.5 -16t-1.5 -16q0 -16 1 -30t2 -31q1 -3 4 -6.5t6 -7.5t6.5 -7.5t5.5 -5t7.5 -2t11.5 -0.5h12h9h10t14 1.5t12.5 3.5t5.5 6q2 8 4 15t3 14q2 12 2 24v23v17q-3 11 -8 17.5t-11.5 10t-13.5 5t-13 3.5t-11.5 5.5t-8.5 10.5
q0 2 -0.5 6.5t-1 9.5t-1 9.5t-0.5 6.5q0 1 -1 2.5t-1 2.5zM89 140q0 4 3.5 4.5t6.5 0.5q17 0 34.5 -2t35.5 -1q1 0 2.5 -1.5l1.5 -1.5v-1t-2 -2.5t-3 -1.5h-4h-4.5h-5.5h-3q-16 0 -30.5 2t-30.5 3l-0.5 0.5zM86 83q0 7 3 9t10 2q8 0 16 -1t16 -2.5t16 -2t16 0.5l5 -2.5
t3 -3.5q0 -1 -0.5 -1.5t-1.5 -0.5l-2 -0.5t-4 -0.5t-4 -0.5t-3 -0.5h-2q-17 0 -34 2t-34 2z" />
</svg>
