<?xml version="1.0" standalone="no"?>
<!DOCTYPE svg PUBLIC "-//W3C//DTD SVG 1.1//EN" "http://www.w3.org/Graphics/SVG/1.1/DTD/svg11.dtd" >
<svg xmlns="http://www.w3.org/2000/svg" xmlns:xlink="http://www.w3.org/1999/xlink" version="1.1" viewBox="-10 0 266 256">
   <path fill="currentColor"
d="M124 205l0.5 4t1 9t1.5 10.5t2.5 10t3.5 7.5t5 3t5.5 -3.5t1.5 -7.5l-1.5 -1.5t-1.5 -2t-0.5 -1.5t-0.5 -2q-2 -6 -4.5 -12.5t-2.5 -13.5q0 -6 5 -10t11 -6t12.5 -3.5t11.5 -3.5q2 -1 4.5 -3t5 -5t4 -5.5t2.5 -4.5q6 -13 7 -26.5t1 -28.5q0 -12 -1.5 -24.5t-3.5 -24.5
q-1 -7 -5.5 -11t-10.5 -6.5t-13 -4t-13 -2t-9.5 -1t-3.5 -1.5v-18q0 -2 -2 -3t-3 -1q-3 0 -4.5 1t-2.5 3.5t-1.5 4.5t-0.5 4t1 3.5t1 3.5t-3.5 3t-8 1.5t-8.5 0.5h-6q-7 2 -15 6t-12 9q-5 6 -6.5 13.5t-2.5 14.5q-2 13 -2.5 25.5t-0.5 25.5v8v7.5t0.5 7.5t0.5 10
q16 27 47 27h9l2 -1v-1q0 -3 -2.5 -4t-5 -1.5l-5 -1t-3.5 -0.5t-3.5 -1t-5.5 -2l-6 -2t-4 -1q-3 -4 -5.5 -7t-4.5 -6.5t-3 -7.5t-1 -9v-1q0 -2 0.5 -7.5t0.5 -12t0.5 -12.5t0.5 -7q0 -3 0.5 -9.5t1.5 -14t2 -13.5t2 -8q4 -6 10.5 -9.5t14.5 -5.5t16 -2.5t14 -0.5q3 0 10 0.5
t14.5 2t13.5 4t8 5.5q0 1 1 3t1.5 4.5t1 4.5t0.5 3q1 0 1.5 0.5t0.5 1.5q1 3 1.5 8.5t1 10.5t0.5 10v9q0 14 -2.5 29.5t-11.5 27.5q-3 4 -7.5 6.5t-10.5 4.5t-11.5 4.5t-10.5 5.5t-8 6.5t-3 10.5zM100 154q0 7 5.5 10t12.5 3q3 0 7 -0.5t7.5 -2t7.5 -3.5t5 -4
q4 -12 11 -22.5t18 -18.5v0v-1q0 -2 -1 -2.5t-3 -0.5q-4 0 -7.5 2.5t-6.5 6t-5.5 7t-3.5 6.5q-1 2 -1.5 5t-1.5 4l-2.5 2.5l-3 3l-3 3t-2.5 1.5q0 1 -1 1.5t-2 0.5t-3 0.5l-4 1t-4.5 1t-3.5 0.5h-0.5h-1.5q-2 0 -3.5 -1.5t-1.5 -4.5q0 -5 3 -9t6.5 -7.5t6.5 -7t3 -9.5
q0 -7 -3.5 -12t-8 -9t-8.5 -7t-4 -7t4 -6.5t10 -4.5t11.5 -3t8.5 -1h6.5t6.5 1.5t5 4t2 5.5q0 7 -3 9.5t-6.5 3.5t-7.5 2t-5 5q1 2 4 1.5t5 -0.5q11 0 16 -5t5 -15q0 -7 -2 -11t-6 -6t-9.5 -2.5t-12.5 -0.5h-8q-2 2 -4.5 2.5t-5 0.5t-5 0.5t-4.5 2.5q-6 5 -8.5 8t-2.5 9
t3.5 10t8 7.5t8 7.5t3.5 9q0 4 -3 7.5t-7 8t-7 9.5t-3 11z" />
</svg>
