<?xml version="1.0" standalone="no"?>
<!DOCTYPE svg PUBLIC "-//W3C//DTD SVG 1.1//EN" "http://www.w3.org/Graphics/SVG/1.1/DTD/svg11.dtd" >
<svg xmlns="http://www.w3.org/2000/svg" xmlns:xlink="http://www.w3.org/1999/xlink" version="1.1" viewBox="-10 0 266 256">
   <path fill="currentColor"
d="M145 107v6.5v10.5v10v6t1 4.5l2 7t2 6.5t1 4q0 3 1 10.5t2.5 17.5t3.5 20.5t4.5 19t5 14.5t5.5 6q4 0 5 -3t1 -6q0 -6 -1 -11t-2.5 -10.5t-3 -10.5t-2.5 -11l-0.5 -3t-0.5 -6t-0.5 -5.5t-0.5 -3.5l-0.5 -1.5t-1.5 -1.5q0 -1 -0.5 -3l-0.5 -2q-1 -5 -2.5 -10.5t-2 -11.5
t-1 -11.5t-0.5 -9.5l-8 -85v-2v-3v-2v-3t1 -2t2 -1h35q3 0 5.5 -2.5t2.5 -5.5q0 -2 -2.5 -3.5t-6 -2t-6.5 0t-4 0.5h-1h-9t-15.5 0.5t-15.5 0.5h-9q-4 0 -12 0.5t-16.5 1t-15.5 2t-10 3.5q-4 2 -5.5 5.5t-3.5 7.5v11t-0.5 16.5t-1 16.5t-0.5 11v3q0 37 1.5 74t7.5 74
l1.5 0.5t2.5 1.5h1q4 0 5.5 -4t1.5 -7v-1q0 -1 -1 -3l-1 -2v-3t-0.5 -4.5t-0.5 -4.5v-3q0 -4 -0.5 -11.5t-1 -17t-1 -20t-0.5 -20t-0.5 -17t-0.5 -10.5v-4v-7v-8v-6v-7v-8v-6v-4q0 -1 0.5 -4.5t0.5 -7.5t0.5 -7.5l0.5 -3.5q0 -7 5 -10t11.5 -4.5t13.5 -1.5t12 -1h4.5h5.5h3
h3l3 3l0.5 3.5t1 7.5t0.5 8.5v7.5v12v12t0.5 12t2.5 12z" />
</svg>
