<?xml version="1.0" standalone="no"?>
<!DOCTYPE svg PUBLIC "-//W3C//DTD SVG 1.1//EN" "http://www.w3.org/Graphics/SVG/1.1/DTD/svg11.dtd" >
<svg xmlns="http://www.w3.org/2000/svg" xmlns:xlink="http://www.w3.org/1999/xlink" version="1.1" viewBox="-10 0 266 256">
   <path fill="currentColor"
d="M81 172q2 2 2.5 8.5t1 15.5t1 18.5t1.5 18t3 13.5t5 5t4.5 -1t1.5 -3q0 -9 -2 -17t-3 -16q-3 -39 -7 -77t-4 -77v-19q1 0 2.5 -1t3.5 -2l4 -2t3 -1l2.5 -2.5t0.5 -2.5q0 -4 -2 -5t-5 -1q-5 0 -11.5 2.5t-14 6t-13.5 7.5t-8 8q0 2 -0.5 7.5t-0.5 12.5v14.5t-0.5 14
t-0.5 12v8.5v2q0 15 1.5 30.5t3 30.5t3 30.5t2.5 30.5q1 3 2.5 3.5t3.5 0.5t3 -0.5t3 -3.5v-9q0 -11 -1.5 -22t-3.5 -22.5t-3.5 -22.5t-1.5 -22v-5l-1 -71q0 -2 0.5 -6t2 -7.5t3.5 -6.5t5 -3t4.5 2t1.5 5q3 31 4 61t4 60zM123 155v12t1.5 16.5t4 16t7.5 8.5q2 1 5 1.5t6 0.5
h6h6q4 0 10 0.5t11 0.5q6 0 11 -1t8 -3q5 -4 8 -11t4.5 -16t2 -17t0.5 -13q0 -7 -2 -14t-8 -11q-5 -1 -8 -1t-6 -0.5t-6 -0.5h-7h-12t-16 1.5t-15 4t-10 7.5q-1 2 -1 4.5t-0.5 5.5t0 5.5t0.5 3.5zM149 195q0 -2 2 -5.5t5 -6.5t6.5 -5t6.5 -2t6.5 2.5t7 6t6 7t2 4l-2.5 2.5
l-2 2h-14q-1 0 -4.5 0.5t-7.5 0t-7.5 -1.5t-3.5 -4zM134 187q1 -7 -0.5 -13.5t-1.5 -13.5q0 -1 0.5 -4.5t0.5 -4.5q0 -2 2 -3.5t4 -1.5q2 1 5 3.5t7 6t7.5 6.5t4.5 6q-2 1 -5 4.5t-6.5 7t-7 6.5t-7.5 3l-1 -0.5t-2 -1.5zM177 166q0 -2 2.5 -5.5t6 -7t7.5 -6.5t7 -3
q1 0 2 1.5t1.5 3.5t0.5 4v2v7.5t-1 6.5t-2 6.5t-2 8.5h-1h-2l-3.5 -2.5t-6.5 -6t-6 -6.5zM146 139q0 -3 4.5 -5t10.5 -2.5t12 -0.5h9h5h5q2 0 3 1t1 3q0 1 -4.5 5t-9.5 8.5t-9.5 8l-4.5 3.5v0l-1 -1l-1.5 -1.5l-3 -3l-3 -3t-2.5 -1.5q-1 -2 -3 -3l-4 -2t-3 -2.5t-1 -3.5z
M109 96q0 3 0.5 6.5t1.5 7t3.5 6t6.5 2.5q3 0 3 -1.5v-4.5q0 -2 -0.5 -4t-1.5 -3.5t-2 -3.5t-1 -5q0 -6 2 -11.5t5 -11t5 -11.5t2 -12q0 -4 -1 -9.5t-2.5 -10.5t-5 -8.5t-9.5 -3.5q-1 0 -3.5 0.5t-2.5 1.5q0 3 2.5 5.5t5 5.5t4.5 7t2 9q0 10 -4 20.5t-9 19.5q-1 1 -1 4v5z
M147 99q1 1 2 4l2 6t2.5 5.5t3.5 2.5t3 -1t1 -3q0 -8 -2 -15.5t-2 -15.5q0 -5 2 -10t3.5 -9.5t3.5 -9.5t2 -10t-1.5 -9.5t-4 -8.5t-6.5 -6.5t-9 -2.5q0 4 1 6.5t2.5 6t2.5 7.5t1 10v7.5t-0.5 9t-2 8.5t-4.5 6v22zM182 91q0 2 0.5 5.5t2 7t3.5 6t5 2.5h1q1 0 2 -1l1 -1v-5
q0 -6 -1 -12t-1 -11q0 -1 0.5 -3l0.5 -2q0 -1 1 -5t2.5 -8t2.5 -7.5t2 -5.5v-1v-1q0 -6 -2 -12.5t-5.5 -11.5t-8.5 -8.5t-12 -3.5v7l16 18v3q0 7 -1.5 13t-3.5 12.5t-3.5 12.5t-1.5 12z" />
</svg>
