<?xml version="1.0" standalone="no"?>
<!DOCTYPE svg PUBLIC "-//W3C//DTD SVG 1.1//EN" "http://www.w3.org/Graphics/SVG/1.1/DTD/svg11.dtd" >
<svg xmlns="http://www.w3.org/2000/svg" xmlns:xlink="http://www.w3.org/1999/xlink" version="1.1" viewBox="-10 0 266 256">
   <path fill="currentColor"
d="M53 160v32v3.5t0.5 6t0.5 6.5v5q1 3 1 6t0.5 6t2 5.5t3.5 4.5q3 2 7.5 2.5t7.5 1.5h4.5t8 0.5t9 0.5h6.5h3q7 0 13 -0.5t13 -0.5q6 0 12.5 0.5t12.5 0.5h8h3.5t5.5 -0.5t6 -0.5h4l2.5 0.5t3.5 0.5h2q4 0 7 -2.5t3 -7.5h-111q-5 0 -8.5 -0.5t-6.5 -1.5t-5.5 -2.5
t-5.5 -5.5q0 -2 -0.5 -7.5t-0.5 -11t-0.5 -10.5t-0.5 -7v-1v-1q0 -4 0.5 -14t1 -22.5t0.5 -26.5t0.5 -26.5t1 -22.5t0.5 -14q1 -5 1.5 -8.5t2 -6t4 -4t6.5 -2.5q15 -3 29.5 -4t29 -1.5t29.5 -0.5t29 -1q3 1 3.5 -1t0.5 -3q0 -2 -0.5 -3.5t-3.5 -0.5h-18q-19 0 -38 1l-38 2
q-13 1 -21.5 2t-14 3.5t-8.5 6.5t-4 10.5t-1.5 16t-1.5 22.5v8t-0.5 13t-0.5 13v8v34zM79 201l3 3l38 -1h5l68 -4q1 0 1.5 -1.5l0.5 -1.5q0 -1 -0.5 -2.5t-1.5 -1.5h-51v-26q0 -2 3.5 -3t9.5 -1.5t12 -0.5q7 0 12.5 -0.5t9.5 -1.5t4 -3q0 -4 -3 -5t-5 -1q-8 0 -15.5 0.5
t-14.5 0.5h-13q-2 0 -2 -1v-2v-2q0 -3 0.5 -7.5t1 -7.5t0.5 -4l3 -3q0 -1 2 -1.5t4.5 -1t5.5 -1t4 -0.5q3 0 7.5 0.5t8.5 0.5t7 -2t3 -7h-45q-1 0 -1.5 -1.5t-0.5 -3v-3.5v-3q0 -5 3 -7.5t8 -3.5t10.5 -2.5t10 -5t8 -11t3.5 -20.5q0 -4 -1 -6.5t-5 -2.5t-5.5 3t-2 7.5
t-0.5 9.5t-2.5 10t-7 8t-13.5 3q-1 0 -2.5 -0.5t-1.5 -3.5v-36l-1 -0.5t-2.5 -0.5h-2.5h-1h-3q0 1 -1 4t-1 4v31l-2 2h-19q-1 0 -3 -1.5t-2 -2.5l-2.5 -2.5t-1.5 -2.5v-24q0 -2 -1.5 -3t-3.5 -1q-3 0 -3.5 3t-0.5 6v7.5t1 12t3.5 11t6.5 4.5h28l2 22l-1 0.5t-1 1.5l-1.5 0.5
l-1.5 0.5h-5h-8h-7h-5t-3.5 0.5t-6 1t-6 2t-2.5 2.5v1l1 0.5t1 1.5h9q9 0 16.5 -1t15.5 -1h2t1 2v24l-2 3q-2 0 -7 0.5t-11 1t-11 1t-7 1.5h-3t-4 0.5t-3 1.5t-1 3v1.5t1 1.5h42q2 -2 5 -2q1 0 2 1t1 3v2v4v4v2v4v4.5t-0.5 4.5t-1.5 4h-3.5t-5 0.5t-4.5 1t-3 0.5h-2.5
t-3 0.5t-3 0.5h-1.5h-2t-3 -0.5t-3.5 -0.5h-1.5h-5q-3 0 -5.5 1t-4.5 4z" />
</svg>
