<?xml version="1.0" standalone="no"?>
<!DOCTYPE svg PUBLIC "-//W3C//DTD SVG 1.1//EN" "http://www.w3.org/Graphics/SVG/1.1/DTD/svg11.dtd" >
<svg xmlns="http://www.w3.org/2000/svg" xmlns:xlink="http://www.w3.org/1999/xlink" version="1.1" viewBox="-10 0 266 256">
   <path fill="currentColor"
d="M56 81q0 22 1.5 45t5.5 46q0 4 5 6.5t11 4t12 2.5t9 1q1 0 5 0.5t7.5 1.5t7 1h4.5h3h6h5h3q5 1 10 3.5t10 6t9 7t6.5 6.5t4.5 7t3.5 8t2.5 8l2 8q1 2 2.5 2.5t3.5 0.5q4 0 4 -2v-5q0 -6 -3.5 -13t-9 -14.5t-11.5 -13.5t-10 -9q-5 -4 -12.5 -5.5t-16 -2.5t-17 -1t-17 -1
t-15.5 -3.5t-11 -7.5q-3 -2 -4 -5.5t-1.5 -7.5t-0.5 -8t-1 -6v-5.5t-0.5 -7t-0.5 -6.5v-4l-0.5 -3t-0.5 -7v-8v-6v-6v-7q0 -4 0.5 -7l0.5 -3q0 -11 1 -16.5t4.5 -7.5t9.5 -1.5t15 -0.5q23 -1 45.5 -2.5t45.5 -0.5q2 -1 3 -2t1 -3v-2t-2 -1h-40h-40h-12.5t-13 1t-12 3.5
t-10.5 6.5q-2 2 -3.5 6.5t-2 10.5t-1 11t-0.5 8z" />
</svg>
