<?xml version="1.0" standalone="no"?>
<!DOCTYPE svg PUBLIC "-//W3C//DTD SVG 1.1//EN" "http://www.w3.org/Graphics/SVG/1.1/DTD/svg11.dtd" >
<svg xmlns="http://www.w3.org/2000/svg" xmlns:xlink="http://www.w3.org/1999/xlink" version="1.1" viewBox="-10 0 266 256">
   <path fill="currentColor"
d="M156 193q5 1 9 4.5t7.5 7.5t6.5 8.5t5 8.5q1 2 2 7t2.5 10t3.5 8.5t5 3.5q2 0 4 -1t2 -4t-1 -6t-2.5 -6.5t-3.5 -6.5t-3 -5q-5 -9 -8 -14.5t-5 -8.5t-4 -4.5t-5.5 -2.5t-8 -2t-12.5 -5h-5.5t-8 -0.5t-8.5 -0.5h-5q-4 0 -11.5 -0.5t-15.5 -1.5t-15 -3t-10 -6
q-6 -22 -7 -44t-1 -44q0 -8 -0.5 -15.5t1 -13.5t5.5 -10.5t13 -6.5q4 -1 8 -2.5t8 -1.5h8h6t5.5 -0.5t6.5 -1.5h60q2 0 2.5 -1.5t0.5 -2.5q0 -3 -1.5 -3h-3.5q-18 0 -37.5 1t-36.5 2h-9.5t-11.5 0.5t-11.5 1.5t-9.5 2q0 1 -2.5 3t-3.5 3q-3 5 -4.5 10.5t-2 11t-0.5 11.5v11
q0 19 2 41.5t4 40.5q2 10 4 15t6 7t9.5 2t15.5 1q1 0 5.5 0.5t9.5 1t9.5 1t5.5 0.5h6.5h9.5h9.5h6.5zM153 111l5 62q0 1 1 1.5t2 0.5l2 -0.5t2 -1.5v-13q0 -7 -1 -14l-2 -14t-2 -14.5t-1 -14.5q0 -2 1 -3.5l2 -3t2 -2.5t1 -4q0 -2 -1.5 -3.5t-3.5 -2.5t-3.5 -2.5t-1.5 -4.5
v-1l1 -8q5 -1 9 -1.5t6.5 -2.5t3.5 -5t1 -8v-3v-3q-1 -1 -2 -1h-2h-2.5t-2.5 1v13l-0.5 0.5t-1.5 0.5q-2 1 -2.5 1.5t-1.5 0.5q-2 0 -4 -0.5t-2 -2.5v-18q-2 0 -4.5 1.5t-2.5 3.5v16l-2.5 1t-3.5 0t-2.5 -3t-2.5 -4t-1.5 -4.5t-0.5 -3.5h-4q0 9 3 13.5t6 6l6 3t3 4.5
q0 2 -1 2.5t-4 0.5q-5 0 -9 -0.5t-9 -2.5l-2 2v1v0l3 3q6 2 13.5 3.5t12.5 4.5v1.5v2.5q0 3 -0.5 4t-4.5 1q-5 0 -11 -2t-11 -4l-4 -2t-4 -2.5t-3.5 -3t-2.5 -1.5t-2 2l-1 2v1q0 6 5 8t11 2.5t11 1.5t5 4v1.5v0.5q-5 5 -11.5 7t-13.5 2q-5 0 -10 -2t-9.5 -4.5t-8 -4.5
t-5.5 -2q-1 0 -2 1t-1 3q1 4 6.5 7t12 5t13.5 2.5t10 0.5q7 0 14.5 -4t13.5 -8zM89 132v1v1l1 2.5t1.5 5.5t1.5 5.5l1 2.5v4.5t1 4.5t2.5 3.5t3.5 1.5h3t5 0.5t5.5 0.5h3.5l1.5 0.5t2.5 0.5q7 0 11 -3t6 -7.5t3 -10t1 -11.5v-2q0 -2 -0.5 -3l-1 -2t-1.5 -1q-3 0 -3.5 1.5
t-1.5 3l-2 3t-3 1.5h-29q-1 0 -1.5 -1l-1 -2t-2 -2t-2.5 -1q-2 0 -3.5 0.5t-1.5 2.5zM100 145v-1l0.5 -0.5l0.5 -0.5h32q2 0 2 1v2q0 3 -1.5 5.5t-4.5 4t-6 2t-6 0.5q-8 0 -12.5 -2.5t-4.5 -10.5zM77 58q0 3 2 5t4.5 3l5 2t3.5 2l2 1v24q1 0 3 -0.5t3 -1.5v-4t0.5 -4.5
t0.5 -5v-3.5q1 -3 3.5 -4.5t5.5 -3t5.5 -2.5t2.5 -4v-14q-5 0 -6 2.5t-1.5 5.5t-1 5t-3.5 1q-1 0 -2 -1t-1 -2v-15q0 -2 -3 -3t-4 -1q0 6 -0.5 11t-1.5 11h-1h-2q-2 0 -3 -2l-2 -4l-2 -4t-3 -2h-1q-2 1 -2.5 3.5t-0.5 4.5z" />
</svg>
