<?xml version="1.0" standalone="no"?>
<!DOCTYPE svg PUBLIC "-//W3C//DTD SVG 1.1//EN" "http://www.w3.org/Graphics/SVG/1.1/DTD/svg11.dtd" >
<svg xmlns="http://www.w3.org/2000/svg" xmlns:xlink="http://www.w3.org/1999/xlink" version="1.1" viewBox="-10 0 266 256">
   <path fill="currentColor"
d="M113 135v113q0 1 3 1.5t4 0.5t3 -0.5t2 -3.5v-108l2 -3q0 -1 3.5 -1.5t8 -1t9.5 -1t8 -0.5h7.5h11.5h11.5h7.5q3 0 6.5 -1t3.5 -5t-3 -4h-6q-15 0 -29.5 2t-29.5 2q-3 0 -6 -0.5t-5 -3.5v-4v-6v-5v-5v-4v-6.5v-5.5v-3q0 -2 0.5 -9t0.5 -14.5t0.5 -15t0.5 -8.5
q0 -4 2 -6.5t5 -4t6.5 -2.5t6.5 -1q6 0 8.5 4.5t2.5 9.5v7.5v12.5v12.5v7.5q3 13 13 19.5t23 6.5q3 0 5 -0.5t2 -3.5q0 -4 -5.5 -5.5t-11.5 -3t-11 -5.5t-5 -13v-37q-1 -2 -1.5 -4.5t-0.5 -5t-0.5 -5t-2.5 -4.5q-7 0 -12 -1t-11 -1q-14 0 -20.5 9t-6.5 24v78l-2 3
q-14 0 -29 0.5t-27 1.5q-1 0 -1.5 0.5t-0.5 1.5v0q0 4 2.5 5t6 1.5t7 0.5h4.5q10 0 20 -1t20 -1z" />
</svg>
