<?xml version="1.0" standalone="no"?>
<!DOCTYPE svg PUBLIC "-//W3C//DTD SVG 1.1//EN" "http://www.w3.org/Graphics/SVG/1.1/DTD/svg11.dtd" >
<svg xmlns="http://www.w3.org/2000/svg" xmlns:xlink="http://www.w3.org/1999/xlink" version="1.1" viewBox="-10 0 266 256">
   <path fill="currentColor"
d="M144 133q0 14 0.5 28t1.5 29v7t1 11t2.5 12t3.5 10.5t5.5 8t7.5 3.5q0 -5 -1.5 -9.5t-3 -8.5t-3 -8.5t-1.5 -9.5v-84h42l0.5 -2t0.5 -3q1 0 1 -1v0q0 -1 -1 -1l-0.5 -1l-0.5 -1q-2 -1 -6 -2l-4 -1h-33v-69q3 -4 3.5 -9.5t0.5 -9.5q-3 0 -5 1.5t-3.5 4.5t-2.5 6.5t-2 6.5
q0 3 -0.5 9.5t-0.5 15t-0.5 17.5t-1 17t-0.5 14.5v9.5v9zM82 234q0 1 1.5 1.5l1.5 0.5q5 0 9.5 -5.5t8 -12.5t5.5 -14t3 -11q0 -2 0.5 -7.5t1 -11.5t1 -11t0.5 -7v-6v-13v-14v-12v-9v-13v-13v-9q-1 -4 -2 -11.5t-2.5 -15t-5 -13t-7.5 -5.5q0 16 2 32t2 33v6v7.5v6.5v3l-4 3
q-5 1 -9.5 2.5l-9 3t-8.5 3t-10 2.5q-1 1 -1.5 3t-0.5 4q6 0 11 -1t10.5 -2t10.5 -2t11 -1v7q0 4 -0.5 12.5t-1 18.5t-0.5 19v13q-1 1 -2.5 4t-3 7.5t-3.5 9t-4 8.5t-3 7z" />
</svg>
