<?xml version="1.0" standalone="no"?>
<!DOCTYPE svg PUBLIC "-//W3C//DTD SVG 1.1//EN" "http://www.w3.org/Graphics/SVG/1.1/DTD/svg11.dtd" >
<svg xmlns="http://www.w3.org/2000/svg" xmlns:xlink="http://www.w3.org/1999/xlink" version="1.1" viewBox="-10 0 266 256">
   <path fill="currentColor"
d="M166 165q5 1 9 8t7 16.5t5 20t4 19t4 14.5t3 6q2 0 3.5 -1t2.5 -2v-4.5v-4.5q0 -9 -2 -16.5t-5 -16.5q-3 -11 -5.5 -20.5t-7 -16t-12 -10.5t-21.5 -4q-1 0 -5 0.5t-9 0.5t-9.5 0.5t-5.5 0.5h-7q-5 0 -9 -1.5t-4 -7.5q0 -4 3 -6.5t7 -3.5q15 -3 31 -3.5t32 0.5
q11 -3 14.5 -10.5t3.5 -17.5v-10q-2 -6 -8 -8t-13 -2.5t-14 0t-12 0.5h-8q-6 0 -13 0.5t-14 0.5t-13 1t-10 2.5t-4 3.5q0 3 3.5 4t6.5 1q7 0 14.5 -1t14.5 -1h3h3l1 2l0.5 2.5t0.5 6t1 5.5v1q0 1 -0.5 2.5l-1 3t-1.5 3t-2 1.5l-23 5l-10 11v19q0 1 1.5 2l1.5 1q3 2 8 3t7 1
h11h16h16.5h10.5zM51 236q1 2 2.5 2h2.5q2 0 3.5 -1t3.5 -5q0 -3 0.5 -9t1 -13.5t1 -16t1 -16t1 -13.5t0.5 -9v-12.5t1 -22.5t1.5 -27t2 -26.5t3 -21t3.5 -9.5q4 -3 9 -3t9 -1h3.5t5.5 -0.5t5.5 -0.5h3.5h16.5h23.5h24.5h16.5q3 -1 4 -2t1 -4t-2 -5t-5 -2q-2 0 -3.5 0.5
t-2.5 1.5h-24h-7t-13.5 0.5t-16 1t-16 0.5t-13 0.5t-7.5 0.5q-8 0 -13.5 1t-8.5 4t-4.5 8.5t-1.5 13.5q0 1 -0.5 4.5t-1 7.5t-0.5 7.5v4.5q-1 15 -2.5 29.5t-2.5 29.5q0 4 0.5 9t0.5 10t-1 10t-3 9q1 15 -0.5 28t-1.5 27v10zM142 117v-2q0 -2 0.5 -6.5t0.5 -7.5v-3l2 -2h33
q1 0 1.5 1.5t1 3.5t0.5 4v2q0 7 -2 10t-5.5 4.5t-8 1.5h-10.5h-5h-5q-3 -2 -3 -6zM82 58q0 3 4 5h15q23 0 45 -2t45 -2l1.5 -0.5t3.5 -1t3.5 -1.5l1.5 -1q0 -2 -2.5 -4.5t-3.5 -2.5h-1q-6 0 -15.5 0.5t-19.5 1l-20 1t-18 0.5t-13 0.5t-6 0.5h-3t-5 0.5t-5 0.5h-3q-4 2 -4 5z
" />
</svg>
