<?xml version="1.0" standalone="no"?>
<!DOCTYPE svg PUBLIC "-//W3C//DTD SVG 1.1//EN" "http://www.w3.org/Graphics/SVG/1.1/DTD/svg11.dtd" >
<svg xmlns="http://www.w3.org/2000/svg" xmlns:xlink="http://www.w3.org/1999/xlink" version="1.1" viewBox="-10 0 266 256">
   <path fill="currentColor"
d="M65 243q0 2 1.5 5t4.5 3q2 0 3 -1.5t3 -3.5v-2t0.5 -4.5t0.5 -4.5v-3v-2v-3v-4v-2l0.5 -1t0.5 -2v-34q-1 -2 -1 -4v-5q0 -7 1.5 -14t1.5 -15l-0.5 -2t-0.5 -4t-0.5 -4l-0.5 -2v-2q0 -5 0.5 -11.5t2 -12.5t4.5 -11t9 -7q23 -3 46.5 -4t46.5 0q1 -1 2 -2.5l1 -1.5
q0 -3 -2 -4t-4.5 -1.5t-4.5 -0.5h-4q-7 0 -14.5 0.5t-15.5 0.5h-9q-1 0 -2 -2t-1 -3q0 -7 3.5 -10.5t8 -5.5t10 -3t10 -2.5t8 -5t3.5 -10.5q0 -13 -7.5 -18.5t-21.5 -5.5h-66q-1 0 -1 2v2v3t1 3h24q2 0 2 2v2q0 6 -4 9.5t-10 5t-12 2t-10 0.5q-1 0 -1 2v2v2q0 2 1 2q1 1 3 1
h2q9 0 16 -2.5t15 -5.5q3 -1 4.5 -4.5t2.5 -8t2 -7.5t5 -4h13h11t11 0.5t8 3.5t3 10q0 5 -1 7t-3.5 3t-5.5 1t-6.5 0.5t-7.5 1.5t-7.5 3t-6 5t-3.5 6q0 1 -0.5 2.5t-1 3.5t-0.5 3.5t-1 2.5q0 1 -0.5 2.5t-1.5 2.5q-5 3 -10.5 4t-10.5 1.5l-10 1t-9 2t-6.5 6t-3.5 12.5
q0 3 -0.5 8t-0.5 11.5t-0.5 13l-1 13t-1 11t-0.5 7.5v4v7v6.5t-1 6.5v40q0 1 -0.5 2.5t-0.5 3t-0.5 3l-0.5 1.5v1z" />
</svg>
