<?xml version="1.0" standalone="no"?>
<!DOCTYPE svg PUBLIC "-//W3C//DTD SVG 1.1//EN" "http://www.w3.org/Graphics/SVG/1.1/DTD/svg11.dtd" >
<svg xmlns="http://www.w3.org/2000/svg" xmlns:xlink="http://www.w3.org/1999/xlink" version="1.1" viewBox="-10 0 266 256">
   <path fill="currentColor"
d="M74 18l-4 3q2 7 17 10q16 2 24 4q0 15 -6 21q-6 5 -19 11l-11 9q-6 12 -8 24t-4 26q-3 20 -2.5 42t0.5 43q-1 11 -1.5 23.5t2.5 23.5q8 1 8 -7v-16l1 -77q0 -19 2 -38.5t9 -36.5q6 -8 16 -12t17 -11q4 -6 4.5 -12t1.5 -13q4 -1 11 -1h12q11 0 20 5l1 9l-1 13q-6 4 -17 4
t-18 6q-3 5 -4 10t-1 10l-1 9q-5 1 -13 0q-8 -2 -15 2q1 7 8 7q3 1 6 0.5t6 -0.5h15q7 0 15 1q16 1 27 10q5 11 4 24t-9 21h-4l-5 -11l-11 -12q-9 -5 -20 -5q-5 0 -10.5 -0.5t-11.5 -0.5q-3 -1 -8 -1q-4 0 -8 3q-1 5 2.5 6.5t7.5 1.5q13 -1 26 0q13 2 23 11l6 12l-15 1h-10
q-3 0 -6 0.5t-7 0.5q-14 0 -21 3q0 3 1 5t4 2l44 -1l14 -1l32 89q8 2 8 -4q-1 -7 -3 -12l-20 -56l-7 -20l11 -7q3 -6 5 -14t2 -19q1 -20 -12 -29l-22 -6l-19 -2v-5v-5q0 -3 0.5 -6t2.5 -5l16 -3q13 -2 22 -11l2 -12q-1 -26 -19 -26q-9 0 -18 -0.5t-19 -0.5z" />
</svg>
