<?xml version="1.0" standalone="no"?>
<!DOCTYPE svg PUBLIC "-//W3C//DTD SVG 1.1//EN" "http://www.w3.org/Graphics/SVG/1.1/DTD/svg11.dtd" >
<svg xmlns="http://www.w3.org/2000/svg" xmlns:xlink="http://www.w3.org/1999/xlink" version="1.1" viewBox="-10 0 266 256">
   <path fill="currentColor"
d="M98 148v2v2v3.5v1.5v10t0.5 12.5t0.5 13.5t0.5 13t0.5 9.5v4.5q0 8 1.5 13.5t4.5 9.5t8.5 6t14.5 2h3l3 -0.5t6.5 -1t7 -0.5h3.5q12 -1 21 -1t15 -2.5t9.5 -9.5t3.5 -20v-4v-9.5v-10.5v-9v-7v-9.5v-9.5v-7q1 -3 -1 -3.5t-3 -0.5h-3t-2 2v29l-1.5 1.5l-2.5 2.5
q-5 2 -14.5 3.5t-19.5 1.5h-19.5h-14.5h-5.5t-5.5 -2v-6t-0.5 -8.5t-0.5 -8.5t-1 -6q0 -4 -2 -5.5t-7 -1.5zM109 212v-10q2 -3 7.5 -5t12.5 -3t15.5 -1.5t16 -1t13.5 -0.5h11h3.5t3.5 2v2.5v3.5v4v2q0 13 -2.5 20.5t-8.5 10.5t-15 3.5t-22 0.5q-9 0 -15.5 -1t-11 -4
t-6.5 -8.5t-2 -14.5zM139 169q0 3 0.5 4.5t3.5 1.5q2 0 7 -7t11.5 -18t13 -24.5t12.5 -26t9.5 -22.5t3.5 -14q0 -6 -3.5 -8t-10.5 -4q-2 0 -7.5 -0.5t-12 -1.5t-12 -1.5t-7.5 -0.5q-6 -1 -9.5 -3.5t-5.5 -6.5t-2.5 -8.5t-1.5 -8t-1.5 -5.5t-3.5 -2q-4 0 -5.5 2.5t-1.5 6.5
t2 8.5t3.5 9t3 8.5t1.5 7t-2 8t-6 11t-8 12.5t-8 12.5t-8 11t-5 7q-1 1 -2.5 3l-3 4t-3.5 4.5t-3 3.5l-5 5t-6.5 6t-6 6.5t-2.5 6.5t2 4t4 1q3 0 7.5 -4t9.5 -10.5t11 -14t11 -14.5t9 -13l6 -9q0 -1 1.5 -3.5l3 -5l3 -5t1.5 -3.5q1 -1 2.5 -3t3 -4.5t3.5 -5t2 -3.5
q4 -3 6.5 -3.5t6.5 -0.5q8 0 15 1t15 2q4 0 4 2.5v4.5q0 5 -1 9t-3.5 8.5t-4.5 8.5l-4 8q-5 12 -9.5 24t-10.5 23q-2 2 -4 4.5t-3.5 5l-3 5t-1.5 4.5z" />
</svg>
