<?xml version="1.0" standalone="no"?>
<!DOCTYPE svg PUBLIC "-//W3C//DTD SVG 1.1//EN" "http://www.w3.org/Graphics/SVG/1.1/DTD/svg11.dtd" >
<svg xmlns="http://www.w3.org/2000/svg" xmlns:xlink="http://www.w3.org/1999/xlink" version="1.1" viewBox="-10 0 266 256">
   <path fill="currentColor"
d="M173 244q0 3 1.5 5t4.5 2t4 -3t1 -5v-77q0 -9 -2 -18.5t-8 -16.5q-3 -3 -6 -5t-6.5 -4.5t-5.5 -5.5t-2 -7t3 -7t7.5 -5.5t9.5 -4t9.5 -3t7.5 -4t3 -6.5v-18q0 -3 -2 -5t-4 -3t-5 -1.5t-5 -1.5h-22q-10 0 -20 1t-20 1h-5q-3 -8 -6 -17l-6 -18q-2 -3 -3 -4t-5 -1
q-2 0 -3.5 0.5t-1.5 2.5q0 3 2 7l4.5 9l5 10t2.5 10v3q0 1 -1.5 1t-5.5 0.5l-8 1l-8 1t-5 0.5q-3 0 -4.5 1.5t-1.5 4.5v2t1 1h6q4 0 7.5 -1t7 -1.5t7.5 -1.5t7 -1q0 1 0.5 2.5t0.5 3.5v4v3q-1 9 -5 16.5t-8.5 15t-9.5 15t-8 15.5q-7 18 -8.5 38.5t-1.5 39.5v4v4.5v5.5v3
q1 3 2 5t3 2q3 0 5 -3q-1 -14 -0.5 -27.5t1.5 -27.5t4 -27.5t9 -25.5q2 -6 5.5 -11.5t7.5 -11t7 -11.5t5 -12q1 -2 1 -5v-6.5t1 -6t3 -5.5q5 -1 10 -1.5l10 -1t9 -0.5h11h4h6h5h4q6 2 8 5.5t2 8.5q0 7 -3 10t-7.5 5t-9 3t-9 4t-7 7.5t-2.5 13.5v1q0 1 0.5 3.5l0.5 2.5
q5 5 10 9t8.5 8.5t6 10t4.5 12.5v29v30q-1 7 -2.5 13t-1.5 12zM100 142v21t2 22q1 13 7 16.5t19 3.5q9 0 14 -4.5t7 -11.5t2.5 -15t0.5 -14v-3v-5v-4v-4l-1 -0.5l-1 -0.5q0 -1 -1.5 -1.5t-1.5 0.5q-3 1 -3.5 4.5t0 7t0 6.5t-2.5 3h-32v-21h-9zM109 179v-7q1 0 3.5 -0.5
t3.5 -1.5h5h8h8h6q0 4 -0.5 9t-1.5 9t-4.5 7t-9.5 3q-5 0 -8.5 -1t-5.5 -3.5t-3 -6t-1 -8.5z" />
</svg>
