<?xml version="1.0" standalone="no"?>
<!DOCTYPE svg PUBLIC "-//W3C//DTD SVG 1.1//EN" "http://www.w3.org/Graphics/SVG/1.1/DTD/svg11.dtd" >
<svg xmlns="http://www.w3.org/2000/svg" xmlns:xlink="http://www.w3.org/1999/xlink" version="1.1" viewBox="-10 0 266 256">
   <path fill="currentColor"
d="M159 244l2 2l2 2v0q4 0 6 -4t2.5 -9t0.5 -10v-7v-11v-13t-1 -13t-2 -11v-74q0 -2 2.5 -2.5t6.5 0t8.5 0.5h8t6.5 -1.5t3 -4.5q0 -4 -2.5 -4.5t-5.5 -0.5q-6 0 -11.5 1t-10.5 1q-4 0 -5 -4t-1 -10t0.5 -13t0.5 -14t-0.5 -12.5t-2.5 -8.5h-5q-5 0 -5.5 0.5t-0.5 5.5
q0 12 1.5 23.5t1.5 23.5v6v4l-36 5q-1 0 -2 2v1v1l0.5 0.5t1.5 0.5h2h4h4h2q6 0 10.5 -1t9.5 -1l0.5 0.5l0.5 0.5l1 0.5t2 0.5q1 37 1.5 74t-0.5 74zM52 126q2 12 9 16t17 4q12 0 18.5 -3t9 -9.5t3 -15t0.5 -18.5q0 -2 0.5 -8t0.5 -13t0.5 -13.5t0.5 -7.5v-1v-2
q0 -3 -1.5 -6.5t-5.5 -3.5t-5 3t-1 7q0 3 1 5.5t1 6.5v8q0 1 -0.5 3t-0.5 4.5t-0.5 4l-0.5 1.5l-2 1h-33v-1.5t-0.5 -3.5t-0.5 -4v-4v-23q-1 -3 -2.5 -3h-3.5q-3 0 -4 0.5t-1 3.5v4v13.5t0.5 20.5t0.5 20.5v13.5zM62 109v-8q5 -3 11 -3h11h12q2 2 2 4v5q0 9 -1.5 15.5
t-7.5 11.5q-1 1 -5 1h-3q-7 0 -10.5 -2t-5.5 -5t-2.5 -8t-0.5 -11z" />
</svg>
