<?xml version="1.0" standalone="no"?>
<!DOCTYPE svg PUBLIC "-//W3C//DTD SVG 1.1//EN" "http://www.w3.org/Graphics/SVG/1.1/DTD/svg11.dtd" >
<svg xmlns="http://www.w3.org/2000/svg" xmlns:xlink="http://www.w3.org/1999/xlink" version="1.1" viewBox="-10 0 266 256">
   <path fill="currentColor"
d="M158 224q3 3 5 7t4.5 7.5t5.5 6t7 2.5q3 0 4.5 -1.5t1.5 -3.5t-3 -6t-7 -8.5l-8 -9t-6 -7.5q-3 -5 -4.5 -8.5t-2.5 -7t-1 -7.5v-10q0 -7 3 -12.5t6.5 -11.5t6.5 -13t3 -15q0 -7 -2 -11t-4.5 -6t-6 -2.5t-6.5 -1.5t-5 -3t-2 -6v-9t1 -8.5t3.5 -7.5t6.5 -4q1 0 3.5 -0.5
t5.5 -1t5.5 -1t3.5 -0.5h1q2 0 3.5 3.5t3 8.5t2.5 11.5t2.5 11.5t4 8.5t5.5 3.5q1 0 2.5 -1.5t1.5 -3.5t-1.5 -7t-4 -10.5t-4.5 -10t-3 -5.5v-37q2 -2 2 -3.5v-3.5q0 -3 -0.5 -4.5t-2.5 -3.5q-4 3 -5 7.5t-1 9.5t-1 9.5t-5 6.5q-5 1 -11 3t-11 2q-3 0 -4 -2.5t-1.5 -6t0 -6
t0.5 -3.5t-0.5 -5l-1 -8l-1 -8t-0.5 -5q-1 -3 -2.5 -3.5t-3.5 -0.5t-4 1.5t-2 3.5q0 1 1 3l1 2q0 2 0.5 4t0.5 3q2 7 3 15t1 15v3l-26 3q-2 0 -3.5 1.5t-1.5 3.5q0 4 3 4.5t6 0.5q4 0 8 -1t8 -1q2 0 5 1t3 4q0 5 -2 10.5t-4.5 10l-5 9t-5.5 8.5q-3 7 -5.5 12t-5 10.5
t-4.5 11t-4 13.5q-1 2 -1.5 8.5t-1.5 14t-1.5 14t-0.5 9.5v2v4v5v4v2v5v4v3q0 3 1 5t4 2q2 0 3.5 -1t2.5 -4v-29q0 -15 1.5 -29t5.5 -27.5t11 -26.5q1 -2 2 -4.5t2.5 -5t3.5 -4t5 -1.5q4 0 8 1.5t7 3.5t4.5 5.5t1.5 7.5q0 6 -1.5 10.5t-4 9t-6 8.5t-6.5 8v3v5v4.5v2.5v4.5
v4.5v4v2q0 1 1 6t2.5 10.5t3.5 9.5t4 2zM55 110q1 5 3.5 7.5t6.5 4.5h10h11t11 -2q2 -1 3 -4.5t1.5 -6.5t0.5 -6v-4v-4v-10v-10v-9v-7v-9.5v-9.5v-7q0 -1 -1 -4t-3 -3h-1l-2 2t-1 2v34q0 1 -0.5 1.5t-1.5 0.5q-4 2 -9 2h-9h-2q-2 0 -3.5 -0.5t-3.5 -0.5h-2q-2 0 -2 -1v-3
q0 -6 1 -12.5t1 -12.5q0 -3 -1 -5t-5 -2q-1 0 -2.5 0.5t-1.5 2.5v18v17q0 3 0.5 8.5t0.5 12t0.5 12.5t0.5 8zM61 89v-8q2 -3 5.5 -4t7.5 -1.5t7.5 0t6.5 0.5t4 1t2 4v4.5v4.5v5.5v6.5t-1 6t-4 4h-4h-4q-12 0 -16 -6t-4 -17z" />
</svg>
