<?xml version="1.0" standalone="no"?>
<!DOCTYPE svg PUBLIC "-//W3C//DTD SVG 1.1//EN" "http://www.w3.org/Graphics/SVG/1.1/DTD/svg11.dtd" >
<svg xmlns="http://www.w3.org/2000/svg" xmlns:xlink="http://www.w3.org/1999/xlink" version="1.1" viewBox="-10 0 266 256">
   <path fill="currentColor"
d="M169 182q4 0 5.5 2.5t2 6l1 7t0.5 4.5q1 3 3 8t4.5 10.5t4.5 10.5t4 8q0 2 0.5 4t1 3.5t2 2.5t3.5 1q3 0 4.5 -2t1.5 -5t-1.5 -9.5t-4 -13t-5.5 -12.5t-4 -9l-3 -4.5l-2 -3t-1.5 -3t-0.5 -4.5q0 -4 1 -6t2.5 -3t4 -2.5t4.5 -4.5t3 -9t2 -9v-2q0 -9 -4 -14.5t-10 -8
t-13.5 -3t-15.5 0.5q0 -1 -0.5 -3.5t-1.5 -3.5v-1v-1q1 -3 1 -8t0.5 -8t0.5 -4l4 -3q1 0 3 -0.5t5 -0.5t5.5 -0.5t3.5 -0.5t4.5 -0.5l7 -1t6 -1.5t2.5 -4v-47q0 -3 -1 -3h-3h-3.5t-2.5 1v3.5t-1 5t-2 4t-4 1.5h-22v-36l-1 -0.5l-1 -0.5h-1h-1l-1 0.5t-2 0.5l-1.5 1.5
l-0.5 0.5v34l-1 0.5t-2 1.5q-3 1 -8.5 1.5l-11 1t-9.5 1.5t-4 5q0 2 2 2h4q5 0 10 -1t10 -1q2 0 5 1t4 3v6v5t-0.5 6.5t-2 5.5t-4.5 2l-33 2q-2 0 -3 -2t-1.5 -4.5t-0.5 -4.5v-3q0 -8 2 -15.5t2 -15.5q0 -2 -1.5 -4t-4.5 -2q-4 0 -5 4t-1 7q-1 1 -1 3.5v6.5v6t1 4
q-2 0 -6 0.5t-5 0.5h-1h-3h-4t-6 -0.5t-5 -0.5h-2l-1 -2v-2v-3q0 -3 1 -6t1 -7q0 -7 -8 -7q-3 0 -4.5 3t-1.5 7v46q1 2 0.5 5.5t0 7t1.5 6.5t5 4h2h4h3h3h3h4h3h1q1 0 3 -0.5t4 -1.5t5 -1.5t4 -1.5q3 -1 4.5 -3t2 -4.5t0.5 -5.5v-5l2 -2h9.5t8.5 -0.5l8 -1t9 -0.5h2.5t1.5 2
v3.5v3.5v4v6t-0.5 5.5t-1.5 2.5l-3 2h-19q-3 0 -4 2t-1 4v2t2 2q10 0 20.5 -1.5t20.5 -1.5h6h6t6 1t4 2l4 3v26q0 1 -1 1.5t-2.5 1t-3 0.5h-1.5q-4 0 -5.5 -2t-3.5 -5t-4 -5.5t-7 -4.5h-3h-5.5h-5.5h-3h-7h-7t-8 0.5t-7 1.5q-1 0 -2 0.5t-2 1.5l-2 2t-1 3l1.5 1t1.5 2h1
q10 0 20 -2.5t21 -2.5q7 0 10.5 4t3.5 12q0 1 -0.5 2.5t-1.5 1.5q-2 0 -6.5 0.5t-10 1.5t-10 1t-6.5 1h-6.5t-8.5 0.5t-7.5 2.5t-3.5 6v1l1.5 1.5t2.5 1.5v0q6 0 14 -1t16 -2.5t16 -3.5t14 -3h1zM65 106v-25q0 -1 2 -1.5t3 -0.5h2h4.5h4.5h3h5.5h4.5l2 2v21q0 1 -1 2.5
t-2.5 3l-2.5 2.5l-1 1h-19zM159 72v-2q0 -1 1 -4.5t1 -5.5q2 -1 5 -2t6 -1.5t6.5 -1t5.5 -0.5q3 0 4 2t1.5 4.5t0.5 5.5v5q0 4 -3 6t-7 3t-9 1h-7q-2 0 -3 -1t-1.5 -2.5t-0.5 -3v-3.5z" />
</svg>
