<?xml version="1.0" standalone="no"?>
<!DOCTYPE svg PUBLIC "-//W3C//DTD SVG 1.1//EN" "http://www.w3.org/Graphics/SVG/1.1/DTD/svg11.dtd" >
<svg xmlns="http://www.w3.org/2000/svg" xmlns:xlink="http://www.w3.org/1999/xlink" version="1.1" viewBox="-10 0 266 256">
   <path fill="currentColor"
d="M91 187q0 6 1.5 11t2.5 10v9t0.5 14.5t1.5 13t5 5.5q2 0 3.5 -2t1.5 -4q0 -10 -1 -19.5t-2.5 -19.5t-2.5 -19.5t-1 -19.5q0 -11 2.5 -21.5t7.5 -20t10.5 -19t11.5 -18.5q1 0 2.5 -1.5t2.5 -1.5t2.5 -1l1.5 -1h38l1.5 1t3 1.5t3.5 1.5l2 1q6 4 6.5 9.5t0.5 11.5
q0 3 -0.5 7t-2 8t-4 7t-5.5 3q-4 0 -6 -2t-3.5 -5t-2.5 -6t-3 -5q-8 -3 -17.5 -5t-18.5 -2h-1q-1 0 -4 0.5t-4 0.5v3v2.5t1 1.5q5 0 12.5 0.5t15 2.5t13 6.5t5.5 12.5q0 1 -0.5 2.5t-2.5 1.5h-56l-2 5q8 4 16 4.5t16 0.5q6 0 12 -1t12 -1h5q2 0 3 3q1 12 2.5 23.5t2.5 22.5
t2 22.5t2 23.5q0 2 2 2h3q4 0 4.5 -2t0.5 -5v-1.5v-1.5l-10 -84v-1v-2q0 -3 1.5 -4.5t4 -2.5t4.5 -2t3 -3q3 -6 6 -13.5t3 -14.5v-1q0 -1 -0.5 -4.5t-1 -6.5t-0.5 -5v-2q-1 -5 -4 -8t-7.5 -4.5l-9 -3t-8.5 -3.5v-1v-1q1 0 2 -3t2 -3q1 -4 3 -8.5t3.5 -9.5t2.5 -9.5t1 -8.5
q0 -5 -4 -8t-10 -5t-11.5 -3t-8.5 -1h-2q-2 0 -8 0.5t-13 0.5t-13 0.5t-8 0.5q-1 0 -3 1t-2 3v1l2 2l1 1h21l2 4v11q0 11 -0.5 20.5t-1.5 20.5q-2 5 -4.5 9t-5.5 7.5t-6 7.5t-5 8q-4 9 -7 19t-8 19v7t-0.5 10.5t-1 10.5t-0.5 7v5zM51 99q0 1 1.5 3.5t1.5 3.5l2 2h27
q5 0 8 -3t4.5 -6.5t2 -8t0.5 -8.5v-28v-28q0 -1 -1.5 -1h-2.5q-2 0 -4 1.5t-2 4.5v1l0.5 1t0.5 2t0.5 2l0.5 1v5v7.5t-0.5 7.5t-0.5 5q-4 0 -8 0.5t-8 0.5t-8 -0.5t-7 -3.5v-9q0 -5 1 -10t1 -10q0 -7 -6 -7q-3 0 -4 1.5t-1 4.5v5q0 3 0.5 12.5t0.5 19.5t0.5 19.5t0.5 12.5z
M58 77q0 -3 1 -4t2.5 -2t4.5 -1h5h4h5.5h5.5h4v21l-1 2t-2 3t-2.5 2l-1.5 1h-15q-1 0 -2 -1t-2.5 -2t-2.5 -2.5t-1 -2.5q-1 -2 -1.5 -6.5t-0.5 -7.5zM137 70q0 -12 1 -23t1 -24q0 -1 2 -2t3 -1h22q3 0 5.5 1.5t3.5 4l2 5t1 5.5q0 4 -0.5 5.5t-1.5 5.5q-1 3 -2.5 7l-3 8t-2 7
l-0.5 3l-4 2h-23q-3 0 -3.5 -1t-0.5 -3z" />
</svg>
