<?xml version="1.0" standalone="no"?>
<!DOCTYPE svg PUBLIC "-//W3C//DTD SVG 1.1//EN" "http://www.w3.org/Graphics/SVG/1.1/DTD/svg11.dtd" >
<svg xmlns="http://www.w3.org/2000/svg" xmlns:xlink="http://www.w3.org/1999/xlink" version="1.1" viewBox="-10 0 266 256">
   <path fill="currentColor"
d="M100 114v4q0 2 1 2v10t0.5 12.5t1 13.5t0.5 13t0.5 10.5t0.5 5.5q1 18 6.5 29.5t13.5 18t18.5 9t21.5 2.5q18 0 28 -6.5t15 -19t6.5 -30.5t1.5 -41v-19.5v-27t-2 -29t-5 -26.5t-9 -19.5t-16 -7.5h-53q-5 0 -9.5 3t-7.5 8.5t-5 12t-2 12.5q-1 2 -1.5 10t-1.5 17t-1.5 17
t-0.5 10q-1 0 -1 2v4zM125 213l2.5 -5.5t5.5 -12.5t6 -13l4 -8q1 -5 2 -12l2 -14t2 -13.5t1 -11.5v-10v-15.5v-18v-17.5v-16v-10q0 -5 3 -6.5t5 -1.5q4 0 5.5 3t2.5 7.5t1 9.5v9v28t0.5 28.5t2 28t4.5 27.5q1 5 4.5 11.5t6.5 13t6 12.5t3 9q0 5 -4.5 8t-10 4t-11 1h-7.5
t-7.5 -0.5t-11.5 -2.5t-11 -5t-6 -7zM111 162v-7v-10.5v-10.5v-7v-9v-11.5v-9.5v-5t0.5 -6t1.5 -11.5t2 -12t1 -8.5q1 -3 2.5 -7t3.5 -7t4.5 -4.5t5.5 -1.5t5 1.5t2 5.5q1 11 1 19.5t0.5 17t0.5 17v17.5q0 11 -0.5 23t-3 23.5t-6 21.5t-9.5 17q-5 -2 -6 -6t-1.5 -9.5
t-1 -10.5t-2.5 -9zM174 55v-2v-4.5v-4.5v-3q2 -5 3 -6.5t4 -1.5q7 0 11.5 6.5t7 17t4 23.5t2 25t0.5 22v15t0.5 13t0.5 16t-2 15t-6 9q-10 -12 -14 -22t-5.5 -20.5t-1.5 -23v-29.5q-1 -11 -2.5 -22t-1.5 -23zM39 62v102q0 10 3.5 15t8 6.5t10.5 1.5h11t9.5 -2.5t6.5 -10.5
q1 -13 1.5 -24t0.5 -21.5v-21.5v-25v-44q-1 -3 -3.5 -4.5t-5.5 -1.5v50l-3 3h-3t-6.5 0.5t-7.5 1t-6 0.5h-2h-2q-1 0 -2.5 -1l-1.5 -1v-47q0 -2 -2.5 -2h-3.5q-3 0 -3.5 3t-0.5 7v3q0 1 0.5 2.5t0.5 3.5t0.5 4t0.5 3zM48 121v-3v-4v-4.5v-1.5l3 -5l2.5 -0.5t6.5 -1t7.5 -1
t6.5 -0.5h2h2q2 0 3.5 0.5t1.5 4.5v3q0 3 -0.5 9.5t-0.5 14.5t-0.5 15t-0.5 10q-2 8 -7.5 11.5t-11.5 3.5t-9 -6t-4 -14.5t-1 -16.5v-14z" />
</svg>
