<?xml version="1.0" standalone="no"?>
<!DOCTYPE svg PUBLIC "-//W3C//DTD SVG 1.1//EN" "http://www.w3.org/Graphics/SVG/1.1/DTD/svg11.dtd" >
<svg xmlns="http://www.w3.org/2000/svg" xmlns:xlink="http://www.w3.org/1999/xlink" version="1.1" viewBox="-10 0 266 256">
   <path fill="currentColor"
d="M76 193v14t1.5 18t5.5 15.5t12 6.5h59q3 0 6.5 -2t6.5 -4.5t5 -6t3 -6.5q0 -2 0.5 -7.5t1 -12.5t1 -15t0.5 -15t0.5 -12.5t0.5 -7.5v-1v-2v-2.5t-2 -2.5h-2h-3q-3 0 -5.5 1t-2.5 5l0.5 1t1.5 1v3.5v3.5q0 9 -2.5 12t-11.5 4q-14 1 -26.5 1.5t-25.5 0.5h-3t-3.5 -0.5
t-2.5 -0.5h-2l-3 -1v-31h-8q-1 6 -1.5 11.5t-0.5 10.5v10v11zM85 207q0 -6 3.5 -10t8.5 -5q8 -1 14 -1.5t11.5 -0.5h11.5h12h3h5.5h4.5h3q3 1 3.5 3.5t0.5 4.5q0 16 -2.5 24.5t-9 12.5t-17 4.5t-25.5 0.5q-8 0 -13 -2.5t-8 -7t-4 -10.5t-2 -13zM202 138q0 2 2.5 2.5t3.5 0.5
q4 0 5 -1.5t1 -6.5q0 -3 -1.5 -6.5t-3 -6.5l-3 -6t-2.5 -6q-4 -13 -7 -27t-3 -27v-4.5v-2.5l4 -3h25q2 0 2 -2v-3v-3t-2 -2q-1 0 -2.5 -0.5t-2.5 -0.5q-16 0 -33 2t-33 6q-2 1 -3.5 3.5t-2 5l-1 5t-0.5 3.5t-0.5 4t-1 8t-0.5 9.5v7.5v1v1v1v1v1t0.5 2.5t1 2.5l0.5 1
q0 2 0.5 6.5t1 10t1 10t0.5 6.5q2 5 6 7q2 -1 3 -3t1 -5q0 -14 -2 -27.5t-2 -27.5v-5v-7v-7v-5q1 -1 2 -1.5t2 -0.5l2.5 -0.5t5.5 -1.5t6.5 -1.5t4.5 -0.5h1h1l2 1.5t2 2.5q1 11 2.5 22.5t3.5 23t5 23t8 20.5zM37 116q4 5 7.5 7.5t10.5 3.5q14 2 25.5 3t23.5 1h9t9 -2v-1v-2
q0 -3 -2 -5t-6 -2l-1 0.5t-2.5 1t-2.5 0.5h-2h-1q-2 0 -3.5 0.5t-3.5 0.5h-3h-3q-1 0 -3 -0.5t-3 -0.5h-3q-1 -1 -2 -2.5t-1 -2.5v-25q0 -3 5.5 -4t12 -2t12.5 -3t6 -7v-45q0 -2 -1.5 -2.5t-2.5 -0.5t-2 0.5t-2 2.5q0 6 0.5 15t-1 16.5t-5.5 12.5t-14 5q-2 0 -3.5 -0.5
t-2.5 -3.5q-1 0 -1 -4v-4q0 -12 2.5 -24.5t2.5 -24.5q0 -4 -3 -6t-7 -2q-2 0 -4 2t-2 3q0 10 1 20t1 20v14q0 7 -0.5 13.5t-0.5 13.5t-1 16q-1 2 -2 4.5t-3 2.5q-10 0 -15.5 -5t-5.5 -16v-47q0 -6 -3 -8.5t-8 -2.5q0 19 1 37.5t3 38.5z" />
</svg>
