<?xml version="1.0" standalone="no"?>
<!DOCTYPE svg PUBLIC "-//W3C//DTD SVG 1.1//EN" "http://www.w3.org/Graphics/SVG/1.1/DTD/svg11.dtd" >
<svg xmlns="http://www.w3.org/2000/svg" xmlns:xlink="http://www.w3.org/1999/xlink" version="1.1" viewBox="-10 0 266 256">
   <path fill="currentColor"
d="M148 249q2 0 5.5 0.5t7.5 1t7.5 0.5h5.5h2q9 0 14 -5.5t7 -13.5t2 -16.5v-14.5v-7q0 -5 -0.5 -10t-2 -8.5t-4.5 -3.5h-1q-1 1 -2 1.5l-1 0.5v17q0 1 -5 2t-12 1.5t-13 1t-8 0.5h-5q-1 0 -2.5 -0.5t-3.5 -0.5t-3 -0.5l-1 -0.5v-19l-3 -1q0 -1 -1.5 -1.5l-1.5 -0.5
l-0.5 0.5l-1.5 1.5q0 1 -0.5 3.5t-0.5 3.5v43q0 5 2 9t5.5 7t7 5.5t7.5 3.5zM134 207v-1q0 -1 1 -1.5t2 -0.5h9t13.5 -0.5t13.5 -0.5h9h2q2 0 3 1t1.5 2.5t1 3.5t0.5 3q0 5 -0.5 8.5t-2 6.5t-3.5 5.5t-6 5.5h-2q-1 0 -3 0.5t-3 0.5h-2q-10 0 -16.5 -1.5t-10.5 -5t-5.5 -10
t-1.5 -16.5zM121 122v2l0.5 1.5t0.5 2.5t0.5 2.5l0.5 1.5q3 11 6.5 16.5t9 8t13 2.5h17.5q9 0 15 -3t9.5 -7.5t4.5 -11.5t1 -16q0 -2 -1.5 -4t-4 -4t-5 -3t-5.5 -1h-43l-0.5 1t-0.5 2v1q0 2 2.5 3t3.5 1h35q1 0 2 0.5t2.5 1t2.5 1.5t1 2v18q0 4 -3 6t-7.5 2.5t-8.5 0.5h-6
h-7t-6.5 -0.5t-6.5 -1t-7 -1.5q-3 -3 -4.5 -7t-2 -8t-0.5 -8v-8v-10.5t1.5 -10.5t4.5 -9t8 -5q10 -2 19.5 -2t17.5 -2t13 -8t5 -19v-6q-3 -4 -7 -5q-1 0 -5.5 -0.5t-9 -0.5t-9 -0.5t-6.5 -0.5h-2q-3 0 -5.5 1t-6.5 1q-5 0 -8 -2t-4.5 -5.5t-1.5 -8t-1 -9.5h-1h-2
q-4 0 -4.5 1t-0.5 6q0 4 0.5 9t2.5 9q1 1 2 2.5t2 2.5l2 2l1 1h53q1 0 1 2.5v3.5q0 6 -3.5 9.5t-9 5t-12 2t-13 1.5t-12.5 2t-9 5q-2 1 -2.5 3.5t-1 4.5t-1 4.5t-1.5 4.5q0 1 -0.5 4.5t-0.5 8t-0.5 8.5t-0.5 5v2zM59 127q3 7 7.5 10t12.5 3q5 0 11.5 -0.5t10.5 -5.5
q0 -3 0.5 -9.5t1 -13.5t1 -13.5t0.5 -9.5v-11v-4.5t-0.5 -7t-1.5 -6.5t-4 -3h-2t-2 2v30q0 2 -2.5 2.5t-5.5 1t-6 0.5h-3h-3h-4l-0.5 -1l-0.5 -1l-2 -2l-1 -1v-24q0 -1 -2 -3t-4 -2q-1 0 -1.5 0.5l-1.5 1.5v13v14q0 2 0.5 8t0.5 12.5t0.5 12t0.5 7.5zM65 105v-3
q7 -2 15.5 -2h15.5v22q0 2 -2 3.5t-4.5 2.5t-5 1.5t-3.5 0.5q-4 0 -7.5 -2.5t-5 -6.5t-2.5 -8.5t-1 -7.5z" />
</svg>
