<?xml version="1.0" standalone="no"?>
<!DOCTYPE svg PUBLIC "-//W3C//DTD SVG 1.1//EN" "http://www.w3.org/Graphics/SVG/1.1/DTD/svg11.dtd" >
<svg xmlns="http://www.w3.org/2000/svg" xmlns:xlink="http://www.w3.org/1999/xlink" version="1.1" viewBox="-10 0 266 256">
   <path fill="currentColor"
d="M98 238v1l0.5 1l0.5 1h111q1 0 2.5 -1.5t1.5 -2.5v-0.5v-0.5v-1v0q0 -1 -1.5 -2.5l-2.5 -2.5h-34h-20q-8 0 -17 0.5l-18 1t-20 1.5l-1.5 1.5t-1.5 2.5v1zM118 179q1 7 4 10.5t8 5.5h6t8.5 0.5t8.5 0.5h6h8t9.5 -0.5t7.5 -0.5h4h4.5t4.5 -0.5t3.5 -0.5t1.5 -1v-7h-72
l-1.5 -2t-1.5 -3q-1 -1 -1.5 -2.5l-0.5 -1.5v-82q0 -6 3.5 -9.5t8 -5t9.5 -2t8 -0.5h4h6h7h6h4h5h3.5h2.5l3 5v59q0 4 -2.5 6.5t-6 3t-7.5 0.5h-5h-7t-7.5 -1t-6 -3.5t-2.5 -7.5v-25l1 -4q1 0 4.5 -1t6.5 -1h1h2h2t2 2v25l1 1.5t2 2.5h1q1 0 1.5 -1.5t1 -3.5t1 -3.5
l0.5 -1.5v-1v-2q0 -2 -0.5 -5.5t-0.5 -7t-0.5 -6.5l-0.5 -3l-0.5 -2l-0.5 -2h-10q-8 0 -12 1t-6 4.5t-2 9.5v16q0 11 1 17t3.5 8.5t7.5 3t14 0.5h7.5t8.5 -0.5t8 -2t5 -6.5q1 -6 1.5 -10l1 -8t1 -7.5t0.5 -7.5v-3v-3q0 -2 -0.5 -7t-0.5 -10.5t-0.5 -10.5t-0.5 -7
q-1 -4 -3 -5.5t-5 -2.5h-5.5h-7.5t-7.5 -0.5t-4.5 -0.5q-3 0 -7 0.5t-8 0.5h-7h-3q-3 0 -7 1t-7.5 3t-6 5t-3.5 7q0 2 -0.5 7t-1 10.5t-1 10.5t-1.5 7v4v5q0 2 0.5 9t1 15t0.5 15v10zM45 154q1 3 3.5 4.5t4.5 1.5h3t4 0.5t4 0.5h3q6 0 12 -0.5t12 -2.5l0.5 -0.5t0.5 -1.5
q3 -11 5 -23t2.5 -24.5t0 -24.5t-0.5 -23q0 -4 -2 -5.5t-5 -1.5v34q0 1 -1 1.5t-2 0.5q-6 3 -11 3h-12h-6h-5l-2 -3v-35q0 -2 -1.5 -4t-3.5 -2q-3 0 -4 3.5t-1 6.5v3q0 1 0.5 5t0.5 9t0.5 9t0.5 5v13v19v20v12zM53 123v-3v-5v-5v-3q1 -2 5.5 -3t10 -2t10.5 -1h6q4 0 5 1t1 5
v9t-0.5 15t-2 13.5t-4.5 5.5h-27q-1 0 -1.5 -0.5t-0.5 -1.5q-2 -6 -2 -12v-13zM111 33q0 5 2.5 5.5t6.5 0.5q10 0 20.5 -1t20.5 -1q5 0 11.5 -0.5t13.5 -1t11.5 -0.5h4.5l5 -6l-3 -2h-11q-20 0 -41.5 0.5t-39.5 1.5q-1 0 -1 2v2z" />
</svg>
