<?xml version="1.0" standalone="no"?>
<!DOCTYPE svg PUBLIC "-//W3C//DTD SVG 1.1//EN" "http://www.w3.org/Graphics/SVG/1.1/DTD/svg11.dtd" >
<svg xmlns="http://www.w3.org/2000/svg" xmlns:xlink="http://www.w3.org/1999/xlink" version="1.1" viewBox="-10 0 266 256">
   <path fill="currentColor"
d="M147 246q0 1 1 1h2q3 0 4.5 -0.5t2.5 -3.5q-4 -14 -7.5 -30.5t-3.5 -31.5q0 -3 3 -4.5t7.5 -2t8 -1.5t5.5 -4q4 -7 6 -14.5t2.5 -16t0.5 -16.5v-15v-3v-4v-4v-3q-2 -7 -7.5 -11t-13.5 -4h-50q-11 0 -16.5 6t-7.5 15t-2 18.5v16.5v5t0.5 6.5t0.5 6.5v5q1 5 3.5 8t5 4.5
t5 2.5t5 1.5t3.5 2t1 4.5v1q-1 12 -3.5 24t-4.5 24q-1 4 -2.5 6t-1.5 5l0.5 1.5t1 2.5t1.5 2t2 0l6 -6l0.5 -2t1.5 -5t1.5 -5.5t0.5 -3.5q1 -4 1 -11.5t1 -15.5t3 -14.5t7 -6.5q7 0 10 0.5t4.5 2t2 5t1.5 8.5q2 10 1.5 20t1.5 19q0 1 0.5 3t1.5 4.5t1.5 4.5t1.5 3zM93 147
v-0.5v-0.5l1 -1l2 -2h6.5t10 -0.5t10 -0.5h6.5h1v0h7t10.5 0.5t10 0.5h6.5q2 1 2 3v3q0 4 -2 8.5t-6 6.5l-6 2t-6 1h-6h-6h-12.5t-13.5 -2t-10.5 -6t-4.5 -12zM93 110h5q3 0 6.5 0.5t6.5 0.5h4h14.5t16.5 0.5t14 0.5h6l3 3v2v2q0 5 -0.5 8t-2.5 7h-24h-24h-3h-5.5t-5 -0.5
t-3.5 -0.5t-2 -0.5t-2.5 -1t-2.5 -1t-1 -1.5v-19zM94 99v-1q0 -4 4 -7t9 -4t9.5 -1.5t7.5 -0.5h12.5t15 1t13 4t5.5 10v2.5t-3 0.5h-15h-16h-5.5t-10 -0.5t-10 -0.5h-5.5h-3t-2 -0.5l-2 -1t-4 -1.5zM101 63q9 2 17.5 2h18.5h15q8 0 15 -2q3 -2 5 -5t3 -7t1 -7.5v-7.5
q0 -7 -3.5 -11t-9 -5t-12.5 -1h-12q-4 0 -10.5 -0.5t-13 0t-12 2.5t-9.5 6q0 1 -0.5 3l-1 4t-0.5 4v3v2q0 7 1.5 11.5t7.5 8.5zM102 44q0 -7 2.5 -10.5t6.5 -5t10 -1.5h11h7h10t9 1t6 4q0 1 0.5 3t0.5 3q0 3 -0.5 6t-2 5.5t-4 4.5t-5.5 2h-41q-5 0 -7.5 -4t-2.5 -8z" />
</svg>
