<?xml version="1.0" standalone="no"?>
<!DOCTYPE svg PUBLIC "-//W3C//DTD SVG 1.1//EN" "http://www.w3.org/Graphics/SVG/1.1/DTD/svg11.dtd" >
<svg xmlns="http://www.w3.org/2000/svg" xmlns:xlink="http://www.w3.org/1999/xlink" version="1.1" viewBox="-10 0 266 256">
   <path fill="currentColor"
d="M148 158v91q0 1 1.5 1.5t2.5 0.5q2 0 4 -3t2 -6q0 -21 -0.5 -42t-0.5 -42q8 0 13 4.5t9 12.5q1 1 2 5.5l2 9l2 9t1 6.5v3.5v5.5v5v5l-1 2t-1 3t1.5 2.5t3.5 1.5q4 0 5.5 -2t1.5 -5q0 -9 -1 -19.5t-3.5 -20.5t-7.5 -19t-13 -15q-1 -1 -3.5 -1t-5.5 -0.5t-5 -1t-2 -1.5v-23
l-2 -1l-3 3v3.5t-0.5 6t-1 6t-0.5 3.5q0 2 -1 3t-2.5 1h-2.5q-2 0 -4 1q-5 2 -10.5 8t-8.5 11q-5 6 -6.5 14t-2 16.5t-0.5 16.5v15h3h2q1 0 2.5 -1l1.5 -1l3 -43q0 -3 2 -8t4.5 -9.5t6 -8t7.5 -4.5q1 0 3 0.5t3 0.5zM105 139q0 2 2.5 2.5t4.5 0.5q1 0 2 -0.5l1 -0.5
q1 0 2.5 -1t3.5 -2t3.5 -2.5l2.5 -2.5l4 -4t6.5 -6t6.5 -6l4 -4t3.5 -1.5t3.5 -0.5q7 0 12.5 4.5t11.5 9.5t12.5 9t14.5 4q0 -6 -5.5 -10.5t-12.5 -8t-14.5 -7.5t-12.5 -9q2 -3 5.5 -5.5t7 -5.5t6 -6t2.5 -7h-6q-4 6 -10 11.5t-13 7.5h-1h-2q-1 0 -3.5 -1.5l-5 -3l-5 -3
l-2.5 -1.5q-1 -1 -2 -1.5t-2 -0.5v0q-2 0 -3.5 1t-1.5 2q0 4 3 5.5t7 2.5t7 2.5t3 5.5q0 1 -1 2.5t-2 2.5q-3 2 -7.5 5.5t-9 7.5t-8 6.5t-4 2.5t-1.5 1l-2 2t-2.5 1.5t-2.5 0.5v1zM50 106q1 9 6 12t13 3h7t8 -0.5t7 -2t5 -4.5q1 -6 1.5 -9.5t0.5 -8.5v-4q0 -3 -0.5 -9
t-1 -13t-0.5 -13.5v-8.5q-1 -1 -2 -1.5l-1 -0.5h-1h-1q-1 1 -1.5 2l-0.5 1v22h-32v-20q0 -1 -2 -1.5t-3 -0.5q-3 0 -3.5 2t-0.5 4v4l0.5 1.5l1 3t0.5 3v1.5v38zM58 79q6 0 12.5 -0.5t11.5 -0.5h4.5t2.5 3v24q0 3 -1.5 4.5t-3.5 2t-4.5 1t-4.5 0.5q-3 0 -5.5 -0.5t-5.5 -2
t-4.5 -3.5t-1.5 -6v-22zM115 80v1l2 2h1q7 0 12.5 -4.5t10 -9.5t8 -9.5t6.5 -4.5q6 0 10.5 3.5t9 7.5t9 7t10.5 3v-6q-8 -4 -16.5 -10.5t-14.5 -13.5v-1v0q0 -2 2 -2l1 -1t2.5 -2l3 -2l1.5 -1l3.5 -3.5l5.5 -5.5l5.5 -5.5l3.5 -3.5v-0.5v-0.5q0 -2 -1 -3.5t-3 -1.5
q-1 0 -5.5 4.5t-10 10.5t-10.5 10.5t-6 4.5q-3 0 -5 -3t-4 -5q-2 -3 -6 -7t-7.5 -8t-6 -6.5l-2.5 -2.5h-9q0 5 2 8.5t5.5 6.5t7.5 5.5t7 5.5l2.5 2.5l3 3l2.5 2.5l1 1v6q0 1 -1.5 2.5l-4 4t-5 4.5t-3.5 4q-1 0 -3.5 2l-5 4l-5 4t-3.5 2v1z" />
</svg>
