<?xml version="1.0" standalone="no"?>
<!DOCTYPE svg PUBLIC "-//W3C//DTD SVG 1.1//EN" "http://www.w3.org/Graphics/SVG/1.1/DTD/svg11.dtd" >
<svg xmlns="http://www.w3.org/2000/svg" xmlns:xlink="http://www.w3.org/1999/xlink" version="1.1" viewBox="-10 0 266 256">
   <path fill="currentColor"
d="M105 143q0 4 -2 7.5t-3 7.5q-2 23 -3.5 45t-1.5 46q3 0 5.5 -0.5t4.5 -2.5q0 -23 1 -47t4 -46q0 -1 0.5 -3.5t2.5 -2.5t8.5 -1.5t13 -3.5t12 -5t5.5 -6q0 -1 -0.5 -2t-1.5 -1q-4 0 -8 2t-7.5 4l-7 4t-7.5 2q0 -4 2.5 -7t6 -6t6 -6t2.5 -7q0 -2 -0.5 -3t-2.5 -2
q-3 -1 -5.5 3t-5.5 8.5t-5.5 8.5t-5.5 4q-1 0 -2 -0.5t-2 -1.5v-3v-2q0 -6 2 -10t4.5 -7t4.5 -5.5t2 -6.5q-5 0 -8.5 2.5t-6 6.5t-4 9t-1.5 8q0 6 2 10.5t2 9.5v0zM147 221v28h2.5t3 -0.5t2.5 -1.5t1 -3v-22q0 -2 3.5 -3.5t8 -4t8 -7t3.5 -12.5q0 -2 -1 -2.5t-3 -0.5
q-3 0 -4.5 2.5t-2.5 6t-2.5 6t-4.5 2.5t-4 -2t-1.5 -4.5t-0.5 -5v-3.5q0 -4 3.5 -7t7.5 -5t7.5 -5.5t3.5 -8.5q0 -2 -0.5 -3t-2.5 -1q-3 0 -4.5 2.5t-2.5 5t-2.5 4.5t-4.5 2h-2.5t-1.5 -2v-15q0 -2 1.5 -3t3.5 -2t3.5 -1.5t1.5 -2.5q0 -3 -1 -3.5t-3 -0.5q-1 0 -3.5 1
t-4.5 2.5t-3.5 3t-1.5 3.5v22q0 1 -1.5 1h-2.5q-4 0 -7 -3t-5 -6.5t-4 -6.5t-5 -3t-3 4v1q0 1 1 2.5t2 3.5l2 4t2 3q1 2 3.5 3l5 2t5 1.5t5.5 2.5v2.5t0.5 3t0.5 3v2.5v3v3.5t-1 2.5h-12q-2 0 -3.5 -3t-3 -6.5l-3 -7t-4.5 -5.5q-2 1 -2 3v3q0 12 7 18.5t19 5.5zM202 244
q0 1 1 1.5t3 0.5t3 -1.5t2 -3.5t1.5 -4t0.5 -4v-1q-1 -7 -2 -16.5t-1.5 -19.5t-1 -17l-0.5 -7q0 -1 -1 -4.5t-1.5 -7t-1.5 -6.5t-1 -4v-3v-5q0 -3 1 -6.5t2.5 -6.5t2.5 -6.5t1 -6.5q0 -4 -2 -7.5t-5 -6.5t-6.5 -4.5t-7.5 -1.5q-2 0 -4.5 0.5t-2.5 2.5t3 3.5l7 3.5t7 5t3 7
q0 3 -1.5 6.5t-5.5 3.5q-2 0 -5 -3l-7 -7t-8 -7.5t-9 -3.5q-1 0 -1.5 1.5t-0.5 2.5q0 3 3 5t7 4t7 4.5t3 6.5q0 2 -0.5 3.5t-2.5 1.5t-4 -1.5t-4.5 -3t-4 -3l-2.5 -2.5h-0.5h-0.5q-1 0 -1.5 1t-0.5 2q0 5 3 8t7.5 4t9 1h7.5q2 1 3.5 4t1.5 4q5 23 6.5 46.5t0.5 47.5zM49 82
q0 6 -0.5 14t0 15.5t3 14.5t8.5 11q1 1 3 1h3q13 0 18 -6.5t7 -15.5t1.5 -19.5t-0.5 -18.5v-5q0 -3 -1 -6t-5 -2q-1 0 -2 1.5l-1 1.5v22h-21l-2 -1q0 -2 0.5 -6t0.5 -8t-1.5 -7t-5.5 -3h-2.5t-0.5 2q-2 6 -2 8.5v6.5zM60 107v-4v-3l2 -2h21v9t-1 10t-3.5 8t-8.5 3
q-4 0 -6.5 -2t-3 -5.5t-0.5 -6.5v-7zM145 92q0 1 0.5 5t1.5 6l0.5 0.5l0.5 0.5q4 0 4.5 -2.5t1 -5.5t1 -5.5t1.5 -2.5h42q2 0 3 -1.5t1 -2.5l-0.5 -1.5t-1.5 -1.5h-42q-3 0 -3 -3v-4v-4q0 -1 0.5 -2l0.5 -1h36q2 0 2.5 -2t0.5 -3q0 -2 -1 -2.5t-3 -0.5h-1h-1.5t-2.5 0.5
l-2 1t-2 0.5h-3h-7t-7.5 0.5t-6.5 0.5h-1q-2 0 -2 -2v-4v-4t3 -2q5 -1 10.5 -1.5t10.5 -2t8 -5t3 -9.5q0 -4 -0.5 -7t-4.5 -3q-1 0 -2.5 0.5l-1.5 0.5q-1 8 -2 11.5t-3 5t-6.5 1.5h-12.5v-26q0 -1 -1.5 -1.5t-2.5 -0.5h-1q-2 0 -3.5 1.5t-1.5 3.5v22q0 3 -1 3.5t-3 0.5
q-4 0 -8 -1.5t-7 -2.5q-1 0 -1.5 -1.5l-0.5 -1.5q0 -1 -0.5 -3t-0.5 -4.5t-0.5 -4.5l-0.5 -2q-1 -2 -2.5 -2h-2.5q-4 0 -4.5 1.5t-0.5 4.5q0 6 1 9t4 9q3 2 7.5 2.5l9 1t8 1.5t3.5 4v2q-1 0 -1.5 2.5t-0.5 3.5q-1 0 -5 0.5t-8.5 0.5t-8 0.5t-5.5 0.5h-2h-3.5t-3.5 0.5
t-2 2.5v0v1q0 1 0.5 1.5l0.5 0.5h39v15h-46v1l0.5 1l1 2l0.5 1h39z" />
</svg>
