<?xml version="1.0" standalone="no"?>
<!DOCTYPE svg PUBLIC "-//W3C//DTD SVG 1.1//EN" "http://www.w3.org/Graphics/SVG/1.1/DTD/svg11.dtd" >
<svg xmlns="http://www.w3.org/2000/svg" xmlns:xlink="http://www.w3.org/1999/xlink" version="1.1" viewBox="-10 0 266 256">
   <path fill="currentColor"
d="M111 246q0 3 1 4t3 1t4 -2t3.5 -4.5t2 -5.5t0.5 -4v-49l81 -4q3 0 4 -2t1 -4q0 -3 -2 -4.5t-5 -1.5q-6 0 -11.5 2t-11.5 2h-3.5h-3.5l-1 -2l-0.5 -3t-0.5 -4v-3q0 -1 0.5 -2.5t0.5 -3.5v-1q0 -1 0.5 -2.5l0.5 -1.5h34l0.5 -1t0.5 -2q1 -1 1 -3.5v-3.5h-36l-0.5 -1
t-0.5 -2v-2v-2q0 -3 0.5 -8t4.5 -7q1 0 6.5 -0.5t11.5 -0.5t10.5 -1.5t4.5 -3.5v-3t-2 -2h-35l-0.5 -1.5t-0.5 -3.5v-9v-9q0 -2 1 -2h2q4 0 7.5 1.5t7 3.5t7 3.5t7.5 1.5h4.5t1.5 -4q0 -2 -3 -4q-2 -1 -5 -1.5t-6 -1.5t-6.5 -1.5t-4.5 -1.5q-1 0 -3.5 -0.5t-4 -1.5l-3 -2
t-1.5 -3v-2v-1q8 -4 14.5 -6t15.5 -4q2 -2 2 -4v-4q0 -3 -4.5 -9t-10.5 -12.5t-12 -12t-10 -5.5q-1 0 -4.5 2.5t-8.5 5.5t-10 7t-9 7.5t-7 6.5l-3 3q0 5 4 8t8.5 5.5t8 5t3.5 7.5q0 3 -2 5t-5 3.5t-6.5 2.5t-4.5 2q-7 5 -11 12t-5.5 16t-1.5 17.5v15.5q-1 3 -1 10.5
t-0.5 17.5t-1 21.5t-0.5 21.5t-0.5 17.5t-0.5 9.5v4zM124 175v-19l2 -1l2.5 -0.5t6 -1.5t7 -1.5t6.5 -0.5h3h4h4h4v3.5t0.5 5.5t0.5 5.5v3.5v2v2.5t-3 1.5h-37zM124 132q0 -3 1 -6t5 -4q7 -1 13.5 -1.5t13.5 -0.5q6 0 6.5 4t0.5 9v5t-1 5q-6 2 -12 1.5t-11 -0.5h-14
q-1 -4 -1.5 -6.5t-0.5 -5.5zM50 108q0 6 4 8.5t9.5 3.5t10.5 1h8q7 0 10.5 -3.5t6 -8.5t3 -10.5t1.5 -10.5v-4.5t0.5 -8t0.5 -8.5v-6v-3v-3v-2t-0.5 -4t-0.5 -3.5v-2.5q-2 -1 -5 -1.5t-5 -0.5v21q0 1 -3.5 2t-7.5 1.5t-8.5 0.5h-5.5h-8q-1 -1 -1.5 -2t-0.5 -2v-2v-5v-4v-3
q-1 -1 -2.5 -2t-3.5 -1h-1q0 1 -1.5 2l-1.5 1v15v12v10t0.5 10.5t1.5 12.5zM127 106q0 -3 4.5 -8.5t10 -10.5t11 -9t7.5 -4h1l2 2t1 2v27q0 1 -0.5 2l-1 2t-1.5 2t-2 1h-28l-3 -2q-1 0 -1 -1.5v-2.5zM58 105q0 -1 -0.5 -4t-0.5 -7t-0.5 -7t-0.5 -4v-1.5v-1.5v-2.5t2 -1.5
q5 0 8.5 -0.5l7 -1t6.5 -0.5h7h6q2 2 2 5v4q0 11 -4 18.5t-15 7.5q-5 0 -9.5 -0.5t-8.5 -3.5zM144 43v-1q3 -2 5.5 -5t5.5 -5t6.5 -4t7.5 -2q3 0 7 2.5t7.5 5.5t5.5 7t2 7q0 6 -4.5 7.5t-9.5 1.5q-3 0 -3.5 -2t-1 -5.5t-2 -5.5t-4.5 -2q-2 0 -2 3.5v7.5t-1 7.5t-5 3.5v0
q-5 -4 -9.5 -9t-4.5 -12z" />
</svg>
