<?xml version="1.0" standalone="no"?>
<!DOCTYPE svg PUBLIC "-//W3C//DTD SVG 1.1//EN" "http://www.w3.org/Graphics/SVG/1.1/DTD/svg11.dtd" >
<svg xmlns="http://www.w3.org/2000/svg" xmlns:xlink="http://www.w3.org/1999/xlink" version="1.1" viewBox="-10 0 266 256">
   <path fill="currentColor"
d="M82 203q0 14 0.5 23t4.5 14.5t12.5 7.5t23.5 3h3h3q2 0 5.5 -0.5t8 -1t8 -1t5.5 -0.5q3 -3 5.5 -7t3.5 -7q0 -2 0.5 -5t0.5 -6.5t0.5 -7t0.5 -4.5v-4v-4q0 -2 -0.5 -4t-0.5 -4t-1 -4t-3 -3t-4 -1t-3 2.5t-1 5v5v3.5t-2.5 2t-3.5 1h-49q-4 0 -5 -2t-2 -5t-2 -5t-5 -2h-1.5
t-1.5 2v4.5v4.5zM93 221q0 -2 3.5 -3.5t9.5 -2t12.5 -1t12.5 -0.5h10h6l3 -0.5t3 1.5v9v2v4t-0.5 4t-1.5 3l-1.5 1t-3 1.5t-3 1.5l-1.5 1h-32q-4 0 -7 -2t-5.5 -5t-3.5 -6.5t-1 -7.5zM41 179v3t2 3h8q19 0 38 -2.5t39 -2.5h9.5h14.5h16h17h14.5h9.5q2 -1 2 -2v-2
q0 -2 -1.5 -3t-3.5 -1.5t-4.5 -0.5h-3.5q-2 0 -8.5 -0.5t-14.5 -0.5q-7 0 -13.5 0.5t-8.5 0.5l-2.5 -1.5l-2.5 -1.5v-19q9 -3 13.5 -10.5t4.5 -16.5t-5.5 -12.5t-13.5 -5t-16.5 -1t-14.5 0.5q-3 0 -7 0.5t-8.5 1t-8 2t-5.5 4.5q-1 4 -2 6t-1 4.5v4.5v5q0 8 2.5 11.5t5.5 5.5
t5.5 4t2.5 7q0 2 -0.5 4t-1 4.5t-2 4t-3.5 1.5h-50q-2 0 -2 2v3zM110 171v-16l4 -3h3t7 -0.5t7 -0.5h1q2 0 3.5 1.5t2.5 3.5t1 4.5v3.5q0 4 -0.5 5t-2 2t-3.5 1.5t-5 1.5h-0.5h-0.5q-2 0 -4 -0.5t-4.5 -1t-4.5 -1t-4 -0.5zM95 130q0 -7 3 -10.5t8 -5.5t10.5 -2h11.5h6t8.5 1
t7.5 3t3 6q0 8 -4 12.5t-9.5 6t-12 2t-13.5 0.5q-3 0 -7 -0.5t-6.5 -2t-4 -4t-1.5 -6.5zM46 94l0.5 1t1.5 2l0.5 0.5l0.5 0.5h1h1h1.5t3 -0.5t3 -0.5h1.5q5 -1 13.5 -1.5t17.5 -1.5t16.5 -1.5t9.5 -0.5q18 -1 37.5 -1.5t37.5 -0.5q3 -1 3 -4t-3 -5h-9q-8 0 -16.5 1.5
t-15.5 1.5q-3 0 -5.5 0.5t-5.5 0t-5 -1t-4 -2.5v-1.5v-2.5q0 -2 1.5 -4t4.5 -3.5t6 -2t5 -1.5q6 -2 10 -3.5t5.5 -4t1.5 -6.5v-12v-7q0 -1 -2 -2t-3 -1h-1l-2 2l-1 1l-3 22q0 2 -2 3t-4 1t-4.5 0.5t-3.5 0.5q-3 0 -6 -1.5t-3 -5.5v-35q0 -1 -1.5 -2l-3 -2t-2.5 -1.5t-2 -0.5
l-1 0.5t-2 1.5q0 1 -0.5 4.5t-0.5 4.5v1v0q0 2 0.5 6.5t1 9.5t1 9.5t0.5 5.5v1v1l-1.5 1t-1.5 2h-3h-3q-6 0 -9 -2.5t-4.5 -7t-1.5 -10t-1 -10.5q-1 -2 -2 -2.5t-3 -0.5q-1 0 -3 0.5t-2 2.5q0 13 1 20.5t4.5 12t11 7t19.5 4.5q1 0 1 1.5v1.5q0 3 -1 5.5t-4 3.5
q-9 -1 -17.5 -0.5t-16.5 1t-16.5 1t-17.5 0.5l-1.5 2.5t-1.5 3.5z" />
</svg>
