<?xml version="1.0" standalone="no"?>
<!DOCTYPE svg PUBLIC "-//W3C//DTD SVG 1.1//EN" "http://www.w3.org/Graphics/SVG/1.1/DTD/svg11.dtd" >
<svg xmlns="http://www.w3.org/2000/svg" xmlns:xlink="http://www.w3.org/1999/xlink" version="1.1" viewBox="-10 0 266 256">
   <path fill="currentColor"
d="M124 246v0q1 1 2.5 2t2.5 1q4 0 6 -1.5t2.5 -4t1 -5.5t0.5 -6q0 -8 -0.5 -15.5t-1.5 -15.5q0 -5 -1.5 -9.5t-1.5 -9.5v-2v-2.5t0.5 -2.5t1.5 -1l54 -3q1 0 3 -1t4 -1.5t4 -2t2 -2.5q0 -4 -2 -5t-5 -1q-7 0 -14 1t-14.5 2.5t-15 2.5t-14.5 1q-3 0 -3.5 -2t-0.5 -4
q0 -5 0.5 -8t5.5 -4q1 -1 4.5 -1.5t7.5 -1.5t7.5 -1.5t4.5 -0.5q5 -2 8 -5t5 -7.5t2.5 -9t0.5 -9.5v-7t-0.5 -5.5t-1 -6t-1.5 -7.5q-2 -3 -3.5 -5.5t-4.5 -3.5q-2 -1 -5 -1t-7 -0.5t-7.5 -1t-5.5 -0.5h-10q-12 0 -21.5 2t-21.5 5q-4 3 -7.5 6.5t-3.5 10.5v30q0 9 4.5 13.5
t11.5 6.5t14 2t13 -1q1 1 1 2v3q0 7 -1 10t-3 3.5t-4.5 0t-5.5 -1t-6 -0.5t-5 3h-45q-2 0 -2.5 2t-0.5 4t1.5 3.5t3.5 2t4 0.5h3q15 0 30.5 -3t30.5 -3v16q2 2 2 3v3v3q0 2 -0.5 8.5t-0.5 14.5t-0.5 14.5t-0.5 8.5v1zM90 121q0 -1 0.5 -3t2.5 -2h20q1 -2 3 -2.5t3 -0.5
q7 0 7 7v4.5t-0.5 7t-1.5 6.5t-3 3h-20q-3 0 -5 -2t-3.5 -5.5t-2 -6.5t-0.5 -6zM166 110h3.5t2.5 2v1q-1 1 -1.5 3.5t-1 4.5t-1.5 4.5l-1 2.5q-2 3 -6 5t-8.5 3t-9.5 1.5t-7 0.5v-25h1.5t4 -0.5t4.5 -0.5q1 0 3.5 -0.5t5 -0.5t5 -0.5t3.5 -0.5h3zM88 102q0 -6 3.5 -10
t8 -6.5t9.5 -3.5t10 -1q4 0 4 3v6v7t-2 7q-6 3 -10.5 3.5t-10.5 0.5h-4q-4 0 -5 -1l-1 -1.5t-1 -2.5l-0.5 -0.5zM134 101v-16l3 -3h21q3 0 4.5 1.5t3 3.5t2 4.5t0.5 3.5t-0.5 2.5t-0.5 2.5l-3 1l-2 0.5t-5 0.5t-6 0.5t-5 0.5h-6h-4zM66 20q0 4 0.5 11t1.5 14t4.5 12t9.5 5
q7 0 14.5 -1t13.5 -2q3 -2 4.5 -6t2 -8.5t0.5 -9.5v-7q0 -1 0.5 -3t0 -4.5t-1.5 -4.5t-2 -2h-1q-1 0 -3.5 0.5t-2.5 3.5q0 2 1 4t1 5l-0.5 2t-1.5 2h-27q-1 0 -1 -2.5t-1 -5t-2.5 -5t-5.5 -2.5q-1 0 -2 0.5l-1 0.5zM139 18v32q0 4 2.5 6t5.5 3.5t6.5 1.5h6.5h6t8.5 -1t8 -3
t3.5 -6l1 -33q0 -2 -2 -4t-4 -2q-3 0 -4 2t-1.5 4.5l-1 5t-2.5 3.5h-8h-8t-9 -1q-1 -1 -1.5 -2t-1 -3t-1 -3.5t-1.5 -2.5zM80 44v-2t1 -3q6 -1 9.5 -1h9.5h7q2 0 2 2v3q0 4 -2 6t-4.5 3t-5.5 1h-6h-8q-2 -1 -2.5 -3.5t-0.5 -5.5zM144 45q0 -4 2 -6.5t5 -3t6.5 -0.5h6.5h10
q2 1 2.5 2.5t0.5 3.5q0 4 -2 6.5t-5.5 3.5t-7.5 1h-7h-4q-1 0 -3 -0.5t-3 -2t-1 -4.5z" />
</svg>
