<?xml version="1.0" standalone="no"?>
<!DOCTYPE svg PUBLIC "-//W3C//DTD SVG 1.1//EN" "http://www.w3.org/Graphics/SVG/1.1/DTD/svg11.dtd" >
<svg xmlns="http://www.w3.org/2000/svg" xmlns:xlink="http://www.w3.org/1999/xlink" version="1.1" viewBox="-10 0 266 256">
   <path fill="currentColor"
d="M199 249q0 1 1 1.5t2 0.5q2 0 3.5 -2t1.5 -4v-1v-2q-1 -2 -1 -6.5t-0.5 -9t-1 -7.5t-0.5 -4q-2 -5 -3.5 -9.5t-3.5 -9.5t-3.5 -9.5t-1.5 -10.5q0 -5 2 -10t4.5 -10.5t4.5 -11.5t2 -14t-3.5 -12t-8.5 -6t-11.5 -2h-12.5h-4h-4.5t-7.5 0.5t-7.5 0.5h-4.5v7h7h12h11.5h7.5
q10 1 14 5t4 13q0 6 -1 10t-4 12q-1 2 -2 2.5t-2 0.5q-3 0 -4.5 -1.5t-2.5 -4t-2 -4.5t-3 -4q-6 -4 -11.5 -4.5t-12.5 -0.5h-9q-5 1 -7 5l3 3h21q2 1 5 1.5l3 0.5q1 1 3 2.5t3.5 3t2.5 3l1 1.5v9l-32 8q-1 0 -2 1.5t-1 2.5h-1q0 3 2 3h3q4 0 8.5 -1t8.5 -2t8.5 -2.5
t8.5 -1.5h2q4 8 7 16.5t5 17.5t2.5 18.5t1.5 17.5zM54 156v84q0 1 1.5 2.5l1.5 1.5q2 0 4 -1t3 -3v-2v-4v-4v-2q0 -7 -1 -13t-1 -13v-7q0 -5 0.5 -13.5t0.5 -17t0.5 -15.5t0.5 -9q1 -12 3.5 -19t7.5 -10t12.5 -4t18.5 -1h7q5 3 7 7.5t2 10t-0.5 11t0.5 9.5q1 23 2.5 47
t3.5 48q1 1 2 1.5t2 0.5t2.5 -0.5t1.5 -1.5v-8q0 -9 -1 -18.5l-2 -19l-2 -19t-1 -18.5v-5v-8v-8v-5q-1 -5 -1.5 -11t-2 -11t-5 -8.5t-10.5 -3.5h-2q-9 2 -18 3t-19 2q-8 3 -11 9.5t-4.5 14t-1.5 16t-1 15.5zM77 148v42q0 3 1.5 6t4.5 4.5t6 2t6 0.5q8 0 11 -2.5t3 -11.5v-3
q0 -2 -0.5 -7.5t-0.5 -12t-0.5 -12t-0.5 -7.5q0 -1 -1 -1.5t-2 -0.5l-0.5 0.5t-1.5 0.5v6t-0.5 6t-2.5 4.5t-6 1.5q-6 0 -8 -2.5t-2.5 -5.5t-1 -5.5t-4.5 -2.5zM83 179v-2v-3q1 0 5.5 -0.5t5.5 -0.5h2h2.5t2.5 1v7q0 6 -1 9t-7 3t-8 -4.5t-2 -9.5zM74 129q0 2 1.5 3t3.5 1.5
t4 0.5h3t3.5 -0.5t3.5 -0.5h3.5t5 -0.5t4 -0.5h1.5l5 -5q-2 -2 -5.5 -2h-5.5h-6t-6 0.5t-6.5 0.5t-7.5 1l-0.5 1zM152 75q0 6 3 11t10 5h36v-2.5t-1 -2.5q0 -1 -0.5 -1.5l-0.5 -0.5h-34q-4 0 -5.5 -3t-1.5 -6q0 -5 3 -7t8 -2.5t10.5 -1t10 -2.5t7.5 -7t3 -15q0 -3 -0.5 -5.5
t-3.5 -2.5h-41q-2 0 -2 -2.5v-5.5t-0.5 -5.5t-2.5 -2.5h-1q-1 0 -2 1l-1 1q-1 8 -1.5 13.5t-2 10.5t-3.5 10t-6 12v3q5 0 7.5 -3.5t4 -8l3 -9t4.5 -6.5q5 0 8.5 -0.5t6.5 -0.5t6.5 -0.5t7.5 -0.5h8l3 3l2 2q0 1 -0.5 2t-1.5 2q-2 4 -6 6t-8.5 3t-9 1.5t-8 2.5t-6 5.5
t-2.5 9.5zM49 81q0 1 0.5 2t3.5 1h16h16q2 0 8 -0.5l12 -1l12 -1t8 -0.5q4 -2 4 -7h-30q-1 0 -1 -2v-3q0 -3 1.5 -5t4.5 -3.5t6.5 -3t6.5 -4.5t4.5 -8.5t1.5 -14.5v-3t-0.5 -4t-1.5 -3.5t-3 -1.5h-1q-1 0 -1.5 1l-0.5 1v9q0 5 -1 10t-4 9t-8 4h-3q-1 0 -1 -1v-35q0 -2 -3 -3
t-5 -1v35q0 4 -1.5 4.5t-3.5 0.5q-7 0 -10 -4t-4.5 -9t-2.5 -9t-4 -4q-4 0 -4 4q0 14 8.5 22.5t21.5 9.5q1 1 1 2.5v3.5t-0.5 5.5t-3.5 3.5h-36q-1 0 -1.5 1.5t-0.5 2.5z" />
</svg>
