<?xml version="1.0" standalone="no"?>
<!DOCTYPE svg PUBLIC "-//W3C//DTD SVG 1.1//EN" "http://www.w3.org/Graphics/SVG/1.1/DTD/svg11.dtd" >
<svg xmlns="http://www.w3.org/2000/svg" xmlns:xlink="http://www.w3.org/1999/xlink" version="1.1" viewBox="-10 0 266 256">
   <path fill="currentColor"
d="M113 204q0 5 1.5 13t4.5 15.5t7.5 13t10.5 5.5h4q2 0 5 0.5t5 0.5h4q14 0 23.5 -2t16 -7t10 -14t3.5 -23v-3.5t-0.5 -3.5t-1 -3t-2.5 -1t-3 0.5t-2 1.5q1 5 0.5 9.5t-1.5 9t-2.5 9l-2.5 7.5q-5 7 -11.5 9t-13.5 2h-3h-2l-2 -2v-54q0 -1 1.5 -3t2.5 -2h23.5t24.5 -2
q2 0 2 -3v-4h-54v-38q0 -1 1.5 -2t2.5 -2v0q4 0 9 4t10.5 8.5t10.5 8.5t10 4q2 0 4 -1.5t2 -3.5q0 -3 -2.5 -5t-5.5 -3.5t-6 -2.5t-4 -2q-4 -2 -6.5 -4l-5 -4l-5 -4t-6.5 -3q-1 0 -2 -0.5t-2 -0.5t-2 -0.5l-1 -0.5q-1 -1 -1.5 -3t-0.5 -3q0 -3 1 -5.5t1 -5.5q0 -2 -0.5 -3.5
t-3.5 -2.5l-6 6v15q0 1 -3.5 4t-9.5 6.5t-12.5 8.5t-12 9.5t-9.5 8t-4 5.5q0 3 4 3q3 0 9 -5t12.5 -11t12.5 -11.5t10 -5.5h1q1 1 2 1.5l1 0.5v11v14.5t-1 14.5q-1 0 -1.5 1l-0.5 1q-1 0 -5 0.5t-5 0.5q-3 1 -8.5 1t-11.5 0.5t-11 1t-7 0.5t-2 1v2v2t2 1h11q9 0 16.5 -1
t16.5 -1q1 0 3.5 0.5t2.5 1.5v56q0 3 -2 3.5t-3 0.5q-9 0 -13.5 -5t-7.5 -12t-4 -15t-2 -14q0 -1 -1 -1.5t-2 -0.5q-3 0 -4 2.5t-1 4.5zM83 150q0 1 0.5 3.5t3.5 2.5q4 0 8 -5t8 -11.5t7.5 -13t7.5 -9.5q9 -8 19 -15t20 -13.5t21 -12l23 -11.5q2 -1 4 -4t4 -6.5t3 -7t1 -5.5
q0 -6 -2 -11t-5 -9.5t-7.5 -7.5t-10.5 -3h-4.5t-3.5 0.5t-3.5 0.5t-4.5 1q-2 0 -7.5 2.5t-12.5 5.5t-15 7t-14.5 8t-10.5 7t-4 4q0 4 3 4t5 -1.5t4.5 -3t4.5 -2.5t5 -1q4 0 6 4t3.5 9.5t2.5 10t3 4.5q3 0 4.5 -2.5t1.5 -5.5t-1 -6t-2.5 -6t-2.5 -6t-1 -6q0 -5 4.5 -8t8.5 -3
q3 0 4.5 1t3.5 5q0 1 1 4t2 6.5t2 6.5t2 4q0 2 0.5 2.5t2.5 0.5q3 0 3.5 -2.5t0.5 -4.5q0 -3 -1.5 -6.5t-2.5 -6.5l-2 -6t-1 -7q0 -2 1 -3t2.5 -1.5t4 -0.5h3.5q4 0 7 2t5.5 5t4 7t1.5 8q0 9 -5.5 15t-13 10.5t-16 8t-13.5 7.5q-1 0 -3.5 1.5t-5.5 2.5t-5.5 2.5t-3.5 1.5
q-10 6 -18 15t-14 19q-1 0 -2 1t-2 2.5t-2 2.5t-1 2q-2 1 -4 3l-4 4t-3.5 4.5t-1.5 5.5zM48 38q0 6 -0.5 12.5t-0.5 13.5t0.5 14t3 12t7 8.5t12.5 3.5q9 0 15.5 -3t10.5 -11q1 -13 1.5 -26t0.5 -26q-6 0 -8 2t-3 4.5t-0.5 5t0 5t-2 4t-4.5 1.5h-22v-17l-1 -1l-1 -1
q-1 0 -4 -0.5t-4 -0.5zM57 79v-2q0 -2 0.5 -4.5t1.5 -4t2 -1.5h24q1 0 1.5 0.5t0.5 1.5v2v3q0 9 -3 12.5t-12 3.5q-3 0 -5.5 -0.5t-5 -1.5t-3.5 -3t-1 -6z" />
</svg>
