<?xml version="1.0" standalone="no"?>
<!DOCTYPE svg PUBLIC "-//W3C//DTD SVG 1.1//EN" "http://www.w3.org/Graphics/SVG/1.1/DTD/svg11.dtd" >
<svg xmlns="http://www.w3.org/2000/svg" xmlns:xlink="http://www.w3.org/1999/xlink" version="1.1" viewBox="-10 0 266 256">
   <path fill="currentColor"
d="M93 241q0 3 1 4.5t4 1.5q10 0 19.5 -0.5t19.5 -2.5l77 -4l1.5 -1.5t1.5 -2.5v0v-1v0v0q0 -1 -1.5 -2.5l-1.5 -1.5h-34l-3 -4l-0.5 -7t-1 -16t-1 -19t-0.5 -17v-13v-9l1 -3q3 -1 6 -1t6.5 -0.5t6.5 -1.5t5 -3q0 -5 1 -10t1 -10q0 -3 -2 -5.5t-5 -2.5t-3 4t-1 9t-5 9.5
t-15 5.5h-10h-14t-14 -1q-4 -3 -5 -7t-1.5 -7.5t-2 -6t-7.5 -2.5q0 10 1.5 16.5t3.5 9.5t5 3.5t5.5 1t4.5 1.5t3 3q1 7 1.5 15t0.5 15.5v15.5v14v7t-0.5 8t-0.5 6v4l-3 2h-42q-1 0 -1.5 2.5t-0.5 3.5zM149 219q0 -17 1 -34.5t0 -34.5q1 -3 3 -3.5t4 -0.5t4 0.5t3 3.5
q-1 19 1 37t2 37v5l-3 4h-14l-1 -2v-12zM110 217q0 1 1 3t3 2.5t3.5 -0.5t2 -2.5t1.5 -3.5t1 -3q0 -2 1 -4t1.5 -4.5t0.5 -4v-2.5l0.5 -3.5t0.5 -8t0.5 -9.5t0.5 -7v-4q0 -2 -1 -4.5t-3 -2.5h-1l-0.5 0.5l-1.5 1.5q0 1 -0.5 6l-1 10t-1 9.5t-0.5 6.5q-1 6 -4 12t-3 12z
M190 161q0 1 0.5 6t1 11.5t1.5 13.5t2 13t2.5 9t2.5 2q1 0 3 -2l3 -3v-1v0l-2.5 -5t-1.5 -5l-5 -46q0 -1 -1.5 -1.5l-1.5 -0.5l-0.5 -0.5l-0.5 -0.5l-0.5 0.5l-0.5 0.5l-0.5 0.5l-1.5 1.5v7zM47 38v5v7v7v5q0 7 -0.5 17.5t0.5 20t5 16.5t15 7q3 0 7.5 -0.5t8.5 -2t6.5 -4
t2.5 -7.5v-69q0 -2 -1 -2h-2q-4 0 -6 3t-2 7t0.5 7.5t0.5 6.5l-3 3h-20l-2 -2v-8.5t-0.5 -8t-3 -6t-6.5 -2.5zM81 74h1q1 4 1 6.5v6.5v3v4t-0.5 5.5t-0.5 5.5v4q-2 2 -4 3t-4.5 1.5t-5.5 0.5h-5q-1 0 -3.5 -0.5t-2.5 -3.5v-28q0 -2 1.5 -3t3 -1.5l3 -1t2.5 -0.5l2 -0.5
t4 -0.5t4 -0.5t3 -0.5h1zM100 99q0 4 4 4q3 0 5 -2.5t5 -3.5q7 -1 14.5 -1.5t15.5 0.5q4 -1 4.5 -4.5t0.5 -6.5h-11t-16.5 1.5t-15 4.5t-6.5 8zM164 90q0 4 5 6t11.5 3t12.5 1h8h3t4 -0.5t3 -2t1 -3.5v-2.5t-1 -2.5h-39l-2 -1t-3 -1h-1q-1 0 -1.5 1t-0.5 2zM100 67q0 2 1 3
t2 1h1q1 0 1.5 -0.5t2.5 -1.5l4 -2l4 -2t3 -2q6 -2 11.5 -3t12.5 -1t14 2t14 3.5l14 3t15 1.5q2 0 5.5 -1t3.5 -5q0 -2 -0.5 -3t-2.5 -2q-11 1 -22 0t-22 -3q-5 -4 -11 -4h-12q-10 0 -19 3.5t-18 8.5q-1 1 -1.5 2t-0.5 2zM158 23q0 3 5 5t11.5 3t12.5 1.5t8 0.5h4t6 -0.5
t5 -2t2 -4.5q0 -2 -2.5 -3l-2.5 -1h-1q-4 0 -7.5 1t-8.5 1q-6 0 -13 -2t-13 -2q-2 0 -4 0.5t-2 2.5zM100 24q0 4 1 4.5t4 0.5q5 0 10.5 -0.5t11 -1.5t10.5 -2t8 -1q1 0 1.5 -1l0.5 -1v-1q0 -3 -3 -4t-5 -1h-4q-1 1 -5.5 1.5t-9.5 1t-9 1t-6 0.5q-1 1 -3 2t-2 2z" />
</svg>
