<?xml version="1.0" standalone="no"?>
<!DOCTYPE svg PUBLIC "-//W3C//DTD SVG 1.1//EN" "http://www.w3.org/Graphics/SVG/1.1/DTD/svg11.dtd" >
<svg xmlns="http://www.w3.org/2000/svg" xmlns:xlink="http://www.w3.org/1999/xlink" version="1.1" viewBox="-10 0 266 256">
   <path fill="currentColor"
d="M117 239v7l5 5q1 -2 2.5 -3.5t2.5 -3.5q1 -10 1 -20v-20t1 -20t4 -20q3 -4 7.5 -7.5l9 -7t8 -7.5t3.5 -10q0 -5 -1 -9t-2 -11q-2 -3 -5.5 -4t-6.5 -1h-17h-17q-1 0 -2 1.5l-1 1.5v0.5v0.5v1l0.5 0.5l0.5 0.5h35q2 0 3.5 1.5t2.5 3.5t1.5 4.5t0.5 3.5q0 7 -4 12.5t-9 10
t-9.5 9.5t-7.5 11q0 3 -0.5 5.5t-0.5 5.5v5.5t-2 4.5q-1 12 -2 24.5t-1 24.5zM60 193q1 3 3.5 5.5t6.5 2.5h26q3 0 4.5 -2.5t3 -5.5t1.5 -6v-5t0.5 -7.5t0.5 -12.5q0 -6 -0.5 -12t-0.5 -8q4 -2 7.5 -2.5t7.5 0t8.5 0.5t7.5 -1l0.5 -0.5t0.5 -1.5t-0.5 -1.5l-1.5 -1.5
q-3 -1 -7 -1.5l-8 -1t-8 -0.5h-5q-5 -3 -6.5 -8.5t-1.5 -10.5q0 -9 3 -13t7.5 -5.5t9.5 -1.5q6 0 10.5 -1t7.5 -4t3 -11q0 -3 -1.5 -7t-4 -7t-5.5 -5.5t-7 -2.5v0l-1 1l-1 1v1v0q1 1 2 3t2.5 4t3 3.5l2.5 2.5t2 3l1 2q1 3 -1.5 4.5t-6 2.5t-8.5 2t-9.5 2.5t-8 3.5t-5.5 6
q-1 1 -1 4t-0.5 6t-0.5 6v5q0 4 1.5 8t3.5 7t3.5 5t1.5 3v1l-1.5 1t-1.5 2v19h-2t-4 0.5t-4.5 0.5h-4.5h-9h-9v-3t-0.5 -4.5t-0.5 -5v-2.5q-1 -2 -2 -3.5t-3 -1.5t-2.5 1.5t-0.5 2.5v2q0 3 0.5 9t1 13t1 13t0.5 8zM151 180q0 1 0.5 5t1.5 7.5t2.5 6t5.5 2.5h25q5 0 8 -5
t5 -9v-6.5v-9.5t0.5 -9.5t0.5 -6.5v-3q0 -2 -1.5 -4.5t-4.5 -2.5v0q-1 1 -3 2t-2 2v15h-26q-3 0 -3.5 -1l-1 -2l-1 -2t-2.5 -1h-1h-1q0 1 -0.5 4t-0.5 6.5t-0.5 6.5t-0.5 4v1zM66 180q0 -3 3.5 -4.5t7.5 -2t8.5 -1t5.5 -0.5t3.5 0.5t3.5 0.5q1 1 1 4q0 9 -5.5 12.5
t-14.5 3.5q-6 0 -9.5 -3.5t-3.5 -9.5zM159 182v-1v-2t0.5 -2t1.5 -1q6 -2 13.5 -3t14.5 -1v18q0 2 -2 2.5t-4.5 0.5h-4.5h-2h-6.5t-5.5 -1t-3.5 -3.5t-1.5 -6.5zM145 14v39q0 2 2.5 5.5t5.5 3.5l1.5 0.5t3.5 0.5h3h2q4 0 8.5 -0.5t8 -1.5t6.5 -3.5t4 -6.5q1 -3 1 -6
q0 -2 3 -5v-24l-2 -2l-3 -3h-0.5h-0.5h-1l-2 2l-1 1v15h-33q-2 0 -2.5 -2.5t-0.5 -4.5q0 -3 -0.5 -5.5t-2.5 -2.5zM73 56q2 1 4 2.5t4 2.5h9q2 0 6.5 -0.5t8.5 -1.5t7 -3t3 -6v-37q0 -1 -0.5 -1.5l-0.5 -0.5h-3h-2v13l-4 3h-2.5t-6.5 0.5l-8 1t-7 0.5h-2q-1 0 -3 -0.5
t-2 -3.5v-11q0 -1 -2 -1h-3q-2 0 -2.5 1.5t-0.5 3.5q0 9 2 19t5 19zM151 43q0 -1 0.5 -3t1.5 -2h29q1 0 1.5 2.5t0.5 3.5q0 4 -2.5 6t-5.5 3t-6.5 1h-6.5q-4 0 -8 -3.5t-4 -7.5zM78 41q0 -3 3 -4t7.5 -1.5t8.5 -0.5h5q4 0 5.5 2.5t1.5 5.5t-2.5 5t-6 3t-7 1.5t-5.5 0.5
q-5 0 -7.5 -4t-2.5 -8z" />
</svg>
