<?xml version="1.0" standalone="no"?>
<!DOCTYPE svg PUBLIC "-//W3C//DTD SVG 1.1//EN" "http://www.w3.org/Graphics/SVG/1.1/DTD/svg11.dtd" >
<svg xmlns="http://www.w3.org/2000/svg" xmlns:xlink="http://www.w3.org/1999/xlink" version="1.1" viewBox="-10 0 266 256">
   <path fill="currentColor"
d="M132 245q0 3 0.5 4t3.5 1q4 0 5.5 -2.5t2 -6t0.5 -7.5v-6q0 -1 1 -3.5l2 -5l2 -5l1 -2.5q4 -7 10.5 -12t13 -10.5t11 -12t4.5 -14.5v-25q0 -7 -4 -11.5t-10 -7l-12 -5t-10 -5.5q-1 -1 -1.5 -3.5l-1 -5t-1.5 -4.5t-3 -2q-3 0 -3.5 2t-1 4.5t-1.5 5t-3 3.5q-1 0 -2.5 0.5
t-2.5 1.5q-7 4 -12.5 8t-8.5 13v1v3t-0.5 3l-0.5 1q-1 3 -5 4t-7.5 2t-6 2.5t-2.5 4.5q0 4 3 4q5 0 9.5 -3.5t9.5 -5.5q2 0 6.5 -1.5t9 -2.5l9 -2t5.5 -2q2 0 4.5 -0.5t5.5 -1t5 -2t2 -3.5t-2 -2h-3q-4 0 -7.5 1.5t-7.5 3t-7.5 2.5t-7.5 1q-3 0 -3.5 -0.5t-0.5 -3.5
q0 -5 2.5 -9t6.5 -6t9 -3.5t10 -1.5q6 0 12 3t11 7.5t7.5 10.5t2.5 12q0 12 -3 19.5t-8 13.5t-11.5 12t-13.5 14l-3.5 3.5t-2.5 3.5q-2 8 -4 15.5t-2 15.5zM84 214q0 3 1 4t3 1h0.5h0.5q3 -2 5.5 -5l5 -6t5.5 -6l5 -5q1 -1 5 -3.5t10 -6t12.5 -7t12 -6.5t9 -5.5t3.5 -3.5
q0 -2 -3 -2q-5 0 -8 2t-7 4q-17 6 -32.5 17.5t-27.5 25.5v1v1zM111 164q-3 1 -7 2t-7 3q-2 0 -4 1l-4 2t-3.5 1.5l-1.5 0.5v6q5 0 10.5 -1.5t10.5 -4t10 -5.5t10 -5q9 -4 17 -6.5t17 -5.5q2 0 2 -1v-2q0 -4 -4 -4q-2 0 -4 1l-4 2l-4 2t-5 1zM137 78q-7 4 -12.5 7t-9.5 6.5
t-6.5 8.5t-2.5 14h5q1 -4 2.5 -8.5t3.5 -8.5q6 -3 11.5 -5.5t9.5 -5.5t6.5 -7.5t2.5 -12.5v-52h-3t-4.5 -0.5t-4.5 -0.5h-3h-1h-2q-2 0 -6 0.5t-8 0.5h-7h-3l-1 2l3 3h31l1 1.5t1 2.5v1v1l-1 0.5l-1 0.5q-1 0 -5.5 2.5t-10 5t-9.5 5t-4 3.5v2q4 0 7.5 -1.5t7 -3.5l7 -4
t7.5 -2q3 0 3.5 1.5t0.5 4.5v3t-2 2q-1 0 -3.5 1t-5.5 2t-5.5 2t-3.5 1t-4 1t-5 2t-4 2.5t-2 4.5v2q3 -1 7 -2.5t7.5 -3t6.5 -3.5t6 -3h6q0 1 1 3.5t0 3.5q0 3 -6.5 5.5t-13.5 5t-13 5.5t-6 7q4 0 8 -1.5l8 -3t7.5 -4t6.5 -3.5h6q0 2 0.5 5t-1.5 5zM194 70q0 4 -3.5 7
t-7.5 5.5t-7 5t-3 5.5v16q0 2 2.5 2.5t3.5 0.5q2 0 2.5 -1.5t0.5 -2.5q0 -3 -1 -5t-1 -5v-2.5v-2.5q2 -2 5.5 -4t7 -3.5t6 -3.5t2.5 -5v-55q0 -1 -0.5 -3.5l-0.5 -2.5l-1.5 -1.5l-0.5 -0.5h-40q0 3 2 4t4 1h25l0.5 0.5t1.5 0.5v1q0 3 -2.5 4.5t-6.5 2.5t-8.5 2t-8.5 2
t-6.5 2.5t-2.5 3.5q4 0 8 -1l8 -2l8 -2t8 -1h2t2.5 0.5t2.5 1.5t0 3q-1 3 -4.5 4.5t-8 3t-10 3t-9.5 2.5t-7 2.5t-3 3.5v1l1.5 1.5l0.5 0.5l28 -9h2.5h1.5h5t2 4t-6.5 7t-14 5.5t-14 5t-6.5 7.5q5 0 10 -2t9.5 -4.5t9 -4.5t9.5 -2q2 0 2.5 1.5t0.5 2.5zM55 82v5t0.5 6t1.5 5
t3 4h3h3q6 0 10 -0.5t11 -1.5q2 0 3.5 -1.5l2.5 -2.5q1 -3 1 -11.5t0.5 -17.5t1 -17.5t1.5 -11.5v-4v-4q-1 0 -3.5 0.5l-2.5 0.5q-1 0 -2 0.5l-1 0.5v20l-2 2h-23v-20q0 -2 -1.5 -2h-1.5h-2.5t-1.5 2v8t-0.5 12.5t-0.5 12.5v8v7zM63 93v-28q0 -2 2.5 -2.5t5.5 -0.5h5h4h2.5
h1.5l3 3q1 0 1 2v2q0 6 -0.5 10.5t-2.5 8t-5 5.5t-9 2h-4t-2 -1z" />
</svg>
