<?xml version="1.0" standalone="no"?>
<!DOCTYPE svg PUBLIC "-//W3C//DTD SVG 1.1//EN" "http://www.w3.org/Graphics/SVG/1.1/DTD/svg11.dtd" >
<svg xmlns="http://www.w3.org/2000/svg" xmlns:xlink="http://www.w3.org/1999/xlink" version="1.1" viewBox="-10 0 266 256">
   <path fill="currentColor"
d="M138 244q0 2 0.5 3t2.5 1q3 0 8 -6t9 -14t7 -15.5t3 -10.5q0 -5 -3 -6.5t-6.5 -3t-6.5 -4t-3 -8.5v-2v-2l3 -2h27q2 0 2.5 -1t0.5 -2v-2t-2 -1h-10h-10h-10t-14.5 0.5t-14.5 0.5h-10q-1 1 -1 1.5v1.5v2t1 1h27l0.5 0.5t1.5 0.5q0 1 0.5 2.5l0.5 1.5v2v3v4v1q1 3 3.5 4.5
t5.5 3t5 3t2 4.5q0 6 -3 12t-6.5 11t-6.5 9t-3 7zM94 244q0 1 1.5 1h2.5t3 -2t2 -4v-45q-1 -4 -1 -6v-5v-1v-1q0 -3 0.5 -10t1 -15.5t1.5 -18t1.5 -18.5t1 -16t0.5 -10q3 -3 7.5 -5.5t8.5 -2.5t6 4l0.5 2t1 4.5t1 4t0.5 2.5q1 1 2.5 3t2.5 2h43q0 -1 -0.5 -3.5t-1.5 -2.5
h-35l-2.5 -2.5l-3.5 -3.5v-1v-2q0 -3 1 -4.5t4 -2.5h4t6 -0.5t6 -0.5h4h3h4h5h2q1 0 2 -0.5l1 -0.5v-1v0v-0.5v-0.5q0 -1 -1.5 -2l-1.5 -1h-39l-1 -1t-1 -2v-2.5v-3.5v-3v-2l2 -1h4h10.5h11t10 0.5t8.5 0.5q5 3 6.5 9t2.5 11q0 1 0.5 4.5t1 7.5t0.5 7.5v4.5v124
q-1 0 -1.5 2.5t-0.5 3.5v1q0 1 1 3.5t2 2.5q3 0 6.5 -3t3.5 -6q0 -17 -1.5 -33.5t-1.5 -33.5v-77q0 -1 -0.5 -4t-0.5 -6.5t-0.5 -6.5t-0.5 -5q-1 -1 -1.5 -3t-2 -4t-3 -3.5t-3.5 -1.5h-7t-11 -0.5t-11.5 -1t-7.5 -0.5t-4 0.5t-3.5 0l-3 -1t-3.5 -1.5v-13v-10t1 -7t4 -4t9 -1
h6q1 7 2 12t4 7t8 3t14 1h2h3q3 0 4.5 -0.5t2.5 -0.5q2 1 2.5 -0.5t0.5 -3.5v-0.5v-1.5h-5.5t-7.5 -0.5t-7.5 -0.5h-4.5q-5 -1 -7.5 -3.5t-2.5 -6.5q0 -5 4 -7.5t9.5 -3t11 0t8.5 0.5q1 0 1.5 -1t0.5 -2t-0.5 -1.5l-1.5 -1.5h-3h-4h-4h-2h-4h-4h-3.5h-1.5q-3 0 -7.5 0.5
t-10 1t-10.5 1t-7 0.5q-3 1 -4 3t-1.5 5t-0.5 5v5q0 3 -0.5 7t-0.5 7.5t-0.5 6l-0.5 2.5l-3 3q-1 0 -2 -1t-1 -2q-1 -2 -3.5 -4.5l-2.5 -2.5v-29q0 -1 -2 -1.5t-3 -0.5h-2t-1 2v24q1 4 2.5 9t1.5 7q4 3 7 4t5 2t3.5 3t1.5 7q0 1 -0.5 2.5l-0.5 1.5l-1 2q-14 0 -20 3.5
t-8.5 9.5t-2.5 15v17q-2 16 -3 31.5t-1 31.5v29v29zM131 129v2t0.5 3.5t0.5 3.5v2q-1 5 -4.5 7.5t-7 4t-6.5 3t-3 4.5h3.5t3.5 -1q7 -1 11.5 -3t6.5 -5t3 -7.5t2 -11.5q3 -2 5 -2.5t5 -0.5h2.5t1.5 1q0 8 1 13.5t3.5 8.5t7.5 4.5t14 1.5q0 -5 -1.5 -6.5t-3.5 -2t-5 -1t-5 -2
t-3.5 -4.5t-1.5 -10q0 -3 3 -3.5t5 -0.5q1 0 3 -0.5t4.5 -0.5t4.5 -0.5t3 -0.5t1 -1v-2q0 -2 -2 -2.5t-4 -0.5h-2h-1q-7 1 -15 1t-16.5 0.5t-16.5 1t-15 1.5l-1 1l-1 1v1v1q1 0 1.5 1l0.5 1h18zM56 22q0 11 0.5 25t1.5 25q1 4 4 6.5t7 2.5h5.5t9 -1t7.5 -3t3 -5v-47
q0 -1 -0.5 -1.5t-1.5 -0.5h-2.5h-3.5v11l-3 3h-19q-2 0 -1.5 -2.5t0.5 -5t-1 -5t-6 -2.5zM63 54v-2v-3q0 -2 2.5 -3t5 -1t5.5 -0.5t4 -0.5q2 0 4 0.5t2 2.5v20q0 2 -1 3t-2.5 2t-3.5 1.5t-3 0.5q-4 0 -6.5 -2t-4 -4.5t-2 -6t-0.5 -7.5z" />
</svg>
