<?xml version="1.0" standalone="no"?>
<!DOCTYPE svg PUBLIC "-//W3C//DTD SVG 1.1//EN" "http://www.w3.org/Graphics/SVG/1.1/DTD/svg11.dtd" >
<svg xmlns="http://www.w3.org/2000/svg" xmlns:xlink="http://www.w3.org/1999/xlink" version="1.1" viewBox="-10 0 266 256">
   <path fill="currentColor"
d="M130 248q0 1 1.5 1.5t3.5 0.5t3 -0.5t2 -2.5q1 -1 1.5 -4t1.5 -6t1.5 -6t0.5 -4q1 -3 1.5 -12t2 -18.5t4 -17t6.5 -7.5t4.5 2.5t0.5 5.5q0 6 -1 12.5t-3 13t-3 12.5t-1 12q7 0 8 -7l10 -64q1 -2 1.5 -3.5t0.5 -3.5q0 -4 -2.5 -6t-6.5 -2v17q0 1 -1 2t-2.5 1.5l-3 1
t-2.5 0.5h-2t-1 -2q0 -1 -0.5 -3.5t-0.5 -5.5t-0.5 -5t-0.5 -3q0 -2 -0.5 -5t-1.5 -3q0 -1 -1.5 -3l-1.5 -2v-2.5v-3.5t1.5 -4t3.5 -3t3.5 -2t1.5 -3t-2 -3.5t-4 -1.5t-5 2t-5 4.5t-3.5 5.5t-1.5 5v1v1q4 8 7 14.5t3 14.5l-0.5 2.5l-0.5 2.5q0 2 -1 2h-2q-8 0 -10 -4.5
t-2 -11.5h-7q0 8 -0.5 16t-2 15t-2.5 14.5t-3 15.5v2t-0.5 2.5t-0.5 3v1.5q5 0 7 -3.5t3.5 -9t2 -11.5t1.5 -11.5t2.5 -9t4.5 -3.5q2 0 4 0.5t5 1.5v6v5q0 1 -0.5 2.5l-1 3l-1 3l-0.5 1.5q-3 13 -5.5 26t-5.5 26q-1 0 -1 1zM192 232q0 2 3 2h4q0 -14 -2.5 -27.5t-2.5 -27.5
q0 -3 -0.5 -9t-0.5 -13v-15t-0.5 -15.5t-0.5 -13v-8.5q-1 -3 -3.5 -5.5t-4.5 -2.5q-7 -1 -12.5 -1.5t-11 -0.5h-10.5h-11h-14.5t-14.5 2q-1 0 -1.5 0.5l-0.5 0.5q0 1 -1 2t-2 2.5t-2 2.5t-2 1q-1 21 -1 40.5t-3 40.5q-1 5 -3.5 11t-4.5 12.5t-4 12.5t-2 10q5 0 8 -2.5t5 -6
t2.5 -8t1.5 -8.5q0 -3 1 -9.5l2 -13t2 -12t1 -7.5q0 -1 0.5 -5t0.5 -9v-11t0.5 -11t0.5 -9v-5q0 -4 0.5 -6.5t1.5 -4t3 -2.5t6 -2h24h25q2 0 5 0.5t5 1.5t4 3t2 5l3 89q0 1 0.5 4t1.5 4q0 1 0.5 4.5t1 7.5t0.5 7.5t1 4.5zM52 106q3 6 9.5 7.5t12.5 1.5q7 0 11.5 -5t4.5 -12
q0 -2 0.5 -8t1 -14t1 -15.5t0.5 -10.5q0 -1 0.5 -4.5t0.5 -4.5h-7t-3 4q0 5 1 8.5t1 8.5q0 3 -2 4.5t-4 2.5t-5 1.5t-5 0.5h-7q-1 -1 -2 -1.5l-1 -0.5v-27h-8l-0.5 1.5t-1 3.5t-0.5 4v4v1v2v9.5t0.5 14.5t1 15t0.5 9zM60 90v-10q4 -2 8 -2.5t9 -0.5h3h2l2 2v2.5v3.5
q0 5 -0.5 9t-1.5 6.5t-4 4t-9 1.5q-4 0 -6 -1t-2.5 -3t-0.5 -5v-7zM129 11q0 1 -1.5 2t-2.5 2l-2 2t-1 2v40q0 4 -3 7t-7 5.5t-7.5 5.5t-3.5 7q4 0 7.5 -2.5t5.5 -5.5t5 -6t6 -3q2 0 3 0.5l3 1.5q0 1 2 2.5t4 3.5l4 4t2 3q1 0 4.5 0.5t3.5 1.5h2q2 0 3 -0.5t2 -1.5t3.5 -3
t4.5 -4.5t4.5 -5l3.5 -3.5h6q4 3 6.5 6t5.5 5.5t6 4t8 1.5q0 -6 -4.5 -9.5t-9.5 -6.5t-9 -6.5t-4 -9.5q0 -9 1.5 -18t1.5 -17q0 -2 -1.5 -3.5t-3.5 -1.5t-3.5 2t-1.5 5v43l-3 3t-5.5 5t-5.5 5q-1 1 -3.5 2.5t-3.5 2.5v0q-2 0 -5.5 -3.5t-7.5 -8t-6.5 -9.5t-2.5 -8
q0 -8 1 -15.5t1 -15.5v-7zM190 43v2v3t0.5 4.5t1 4.5l0.5 2h2q2 0 3 -3t1.5 -7t0 -7.5t-0.5 -4.5v-13q0 -1 -1 -1.5t-2 -0.5t-2 0.5t-1 1.5t-0.5 3.5t-1 5.5t-0.5 5.5v3.5v1zM106 56l2 2q1 -1 2 -2.5t1 -2.5v-27q0 -1 -0.5 -1.5l-0.5 -0.5h-1h-1q-1 0 -1.5 1.5l-0.5 1.5v29z
M138 43v6t2 6q3 -2 4 -5t1 -6v-6.5v-5.5v-1.5v-3.5t-0.5 -3.5t-1.5 -1.5q-2 0 -3 2.5t-1.5 6t-0.5 7v5.5zM158 27v28h3q1 0 1.5 -2.5t0.5 -4.5v-2v-4v-4v-3v-5.5v-3.5l-2 -2z" />
</svg>
