<?xml version="1.0" standalone="no"?>
<!DOCTYPE svg PUBLIC "-//W3C//DTD SVG 1.1//EN" "http://www.w3.org/Graphics/SVG/1.1/DTD/svg11.dtd" >
<svg xmlns="http://www.w3.org/2000/svg" xmlns:xlink="http://www.w3.org/1999/xlink" version="1.1" viewBox="-10 0 266 256">
   <path fill="currentColor"
d="M115 234q2 6 7 11t12 5q11 0 20 -1.5t20 -0.5q3 0 6 -2t5 -5t3.5 -6t1.5 -6v-18v-10v-10t-0.5 -9.5t-0.5 -10.5q-1 -2 -2 -3.5t-3 -1.5q-4 0 -4.5 2.5t-0.5 5v5.5t-2 3h-3.5h-3.5q-7 0 -11 -2.5t-5.5 -6t-1.5 -7.5v-8t-1 -6t-4 -2h-2t-1 1v8q0 13 2.5 20t6.5 9.5t9 2.5h9
t6.5 1.5t2.5 6.5v4t-3 3q-11 1 -23.5 2.5t-23.5 1.5q-4 0 -5.5 -2.5t-2 -6t-0.5 -6.5v-5q0 -1 -0.5 -4t-0.5 -6.5v-6.5v-5q-1 0 -3.5 0.5t-3.5 0.5t-1.5 0.5t-0.5 1.5v2v3v3v2v6v5q0 2 0.5 8t1 12.5t1 12.5t0.5 9zM125 226q0 -2 0.5 -3.5t2.5 -3.5q6 -1 10.5 -1.5l9 -1
t8.5 -0.5h9h3h3h4h2q3 2 3 6q0 7 -4.5 11.5t-10.5 4.5h-29q-4 0 -7.5 -3.5t-3.5 -8.5zM125 148q0 6 5 10l4 -5v-14t2 -15q1 -4 2.5 -6.5t2.5 -5t1.5 -4.5t0.5 -5q0 -5 -4 -9t-8 -7v-1v-1q0 -2 2.5 -3t5 -1.5l5 -1t2.5 -2.5q0 -1 -0.5 -3t-1.5 -2h-11q-3 0 -3.5 -2t-0.5 -4
q0 -4 1.5 -6.5t4 -4l5 -3t4.5 -4.5q0 -1 0.5 -1.5l0.5 -0.5h-14l-0.5 -4t-0.5 -7v-1v0q0 -1 0.5 -2.5l1 -3l1 -3l0.5 -1.5v-1v-1q0 -3 -1 -4t-3 -1.5t-4 0t-4 0.5v29h-13v-12q0 -1 -1 -1.5l-1 -0.5h-4.5h-4.5q0 5 0.5 10.5t1.5 11l2 11t2 9.5q1 2 3 3.5t5 2.5t6 1.5t5 0.5v2
q0 2 -1.5 4t-3.5 4l-3.5 3.5l-2.5 2.5q-3 3 -5 8t-4 11t-3 11.5t-1 8.5q0 4 1 4.5t3 0.5q4 0 5.5 -3.5t2.5 -8t1 -9t1 -7.5q1 -2 1.5 -5t2.5 -6t4 -5t5 -2q4 0 7 2t3 7q0 4 -1.5 9.5t-3.5 10.5t-3.5 11t-1.5 12zM182 127q0 8 6.5 13t14.5 5q2 0 4 -1.5t2 -4.5t-2.5 -4t-6 -2
t-6.5 -2t-3 -5v-2q1 -1 1.5 -3t1.5 -5t1.5 -5.5t1.5 -2.5v-1q0 -3 -2 -5l-4 -4t-4 -3.5t-2 -4.5q0 -2 0.5 -3.5t3.5 -2.5q1 0 3 -0.5t4.5 -0.5t5 -1t4.5 -2l0.5 -0.5l0.5 -0.5l-0.5 -1.5l-0.5 -1.5l-1 -2h-16v-16l1 -2h3t3.5 -0.5t3.5 -0.5h3q3 -1 4 -1t1 -2q0 -1 -0.5 -3.5
t-1.5 -2.5h-16v-32l-0.5 -0.5l-0.5 -0.5q-1 -1 -2 -1.5t-2 -0.5t-2.5 1t-2.5 2v5.5t-0.5 7.5t-0.5 7.5v5.5q-1 5 -2 6.5t-5 1.5h-2q-1 0 -3 -0.5t-2 -1.5v-17h-7q-1 0 -1 2t-0.5 4.5t-0.5 5.5v2v8.5t0.5 9t1.5 8.5t4 7q1 2 3.5 2.5t5.5 1.5t5 2t2 3q0 1 -0.5 1.5l-0.5 0.5
l-19 19q-1 4 -3 7.5t-4 6.5t-3 6.5t-1 8.5q0 2 0.5 2.5t2.5 0.5q4 0 5 -3t2 -5q0 -1 1 -4t2.5 -5.5t2 -4t0.5 -2.5q1 -1 2.5 -3.5l3 -5t4 -4.5t5.5 -2t5.5 3.5t2.5 6.5q0 5 -2 9t-2 9zM45 52q0 2 0.5 8t1 13t1 15t2 14.5t3 11t2.5 5.5q4 2 9 2.5t9 0.5q3 0 6 -0.5t5.5 -2
t4 -4t1.5 -6.5v-67h-10v30l-3 4h-19l-0.5 -2.5t-0.5 -4.5q0 -1 -0.5 -4.5t-0.5 -7.5t0.5 -7.5t0.5 -4.5q-1 -2 -2.5 -2.5t-3.5 -0.5h-3t-3 1v4v5zM58 94q0 -3 1.5 -5t4.5 -3.5t5.5 -2t5.5 -0.5q1 0 2.5 0.5l1.5 0.5l1 3l0.5 3t0.5 4v7q0 3 -1 5.5t-3 4.5t-6 2t-6.5 -2
t-4 -4.5t-2 -6t-0.5 -6.5zM109 63v-2.5v-2.5q1 -2 2.5 -2h3.5q3 0 5 1t2 4v4q0 3 -0.5 5t-1.5 3t-4 1q-5 0 -6 -3.5t-1 -7.5zM166 56h11q1 0 1.5 1.5t0.5 3v3.5v1q0 3 -0.5 6t-4.5 3q-3 0 -5 -2t-2.5 -4.5t-0.5 -5.5v-6z" />
</svg>
