<?xml version="1.0" standalone="no"?>
<!DOCTYPE svg PUBLIC "-//W3C//DTD SVG 1.1//EN" "http://www.w3.org/Graphics/SVG/1.1/DTD/svg11.dtd" >
<svg xmlns="http://www.w3.org/2000/svg" xmlns:xlink="http://www.w3.org/1999/xlink" version="1.1" viewBox="-10 0 266 256">
   <path fill="currentColor"
d="M154 61q0 2 -2 4t-5.5 3.5t-6.5 3t-5 1.5l-2.5 2.5t-3.5 2.5t-3.5 2l-1.5 1q-1 1 -2 3t-2 4.5t-1.5 4.5t-1.5 3q-6 13 -8.5 25.5t-4 26t-2 26.5t-0.5 26q0 3 -0.5 10t-0.5 15.5v15.5v10h3h3l1 -1l1 -1l2 -64v-34l96 -3q2 0 2.5 -1.5t0.5 -2.5q0 -3 -1.5 -3h-3.5
q-8 0 -15.5 0.5t-14.5 0.5h-4.5h-2.5l-2 -1v-15q0 -1 2 -1.5t3 -0.5q2 0 5.5 -0.5t8 -0.5t8.5 -0.5t5 -0.5q3 1 3.5 0t0.5 -3l-0.5 -1.5t-1.5 -1.5h-32v-14l5 -4h5.5h7.5h7.5h4.5t3.5 -0.5t3.5 -1.5v0v-1l-0.5 -1.5t-1.5 -1.5h-27q-1 -1 -4 -1t-3 -1v-18q5 0 8.5 1.5t7.5 3
t7.5 3t7.5 1.5q2 0 3.5 -0.5t1.5 -2.5q1 -2 -3.5 -4t-10.5 -4.5t-11.5 -4.5t-6.5 -4q2 -3 7 -4.5t9.5 -2.5t8.5 -3t4 -7t-2.5 -6.5t-6.5 -3.5q-1 -1 -5 -4.5t-9 -7t-9 -7t-5 -4.5l-4 1l-31 28q-1 1 -1 2v3t4 4.5t8.5 4t8.5 3.5t4 4zM161 205q5 0 10 6t10 13t9.5 13t9.5 6
q3 0 4 -1t3 -4v0q0 -2 -2 -4t-4.5 -4l-5 -4t-3.5 -3l-3 -3t-4 -4.5t-4 -4.5l-3 -3l-0.5 -1.5t-1.5 -1.5q0 -1 -2 -2.5t-3.5 -3.5t-3.5 -4l-2 -2v-29q-1 -4 -1 -5.5t-3 -1.5q-1 0 -3 0.5t-2 1.5v34l-1.5 2t-1.5 4q-6 8 -13 15.5t-13 14.5q-2 1 -5 3.5t-3 4.5l1 1.5t2 1.5
t2 -0.5t1 -1.5q1 0 3.5 -2t4.5 -4t4.5 -4t3.5 -3q2 -2 4 -5.5t4.5 -6.5t5.5 -5.5t6 -2.5zM185 167q0 2 0.5 8.5t2 14t3.5 13t6 5.5v-5t-0.5 -9.5t-1 -11.5t-1 -10.5t-2 -8t-3.5 -3.5h-1q0 1 -1.5 1.5l-1.5 0.5v5zM130 167q0 9 -2.5 19t-2.5 20q2 0 3.5 -1.5l3 -3t2 -3.5
t0.5 -4v-3t0.5 -4.5t0.5 -4.5v-3t0.5 -3t0.5 -4v-4.5v-2.5h-3t-3 2zM114 139v-1.5v-3t0.5 -2.5t0.5 -2q1 -1 1.5 -2l0.5 -1h42v17h-42l-0.5 -0.5l-1 -1t-1 -2zM47 107q1 4 2 6.5t3 4.5t5 3t8 1h11t9 -2t6.5 -5t3.5 -9q0 -2 0.5 -6t0.5 -9t0.5 -9.5t0.5 -6.5v-21q0 -1 1 -3.5
t0 -3.5q-1 -4 -6 -4h-2.5t-1.5 1v28l-3 1l-3 0.5t-6.5 0.5t-8 0.5t-6.5 0.5h-2h-2.5t-1.5 -2v-28q-3 0 -5.5 0.5t-3.5 3.5v6v6v9.5t0.5 13.5t0.5 13.5v9.5zM117 112q0 -1 0.5 -2.5t1.5 -3.5t2.5 -3.5t2.5 -1.5h35v14l-1 1l-2.5 0.5t-6.5 0.5t-7.5 0.5t-6.5 0.5h-7h-4
t-3.5 -0.5t-2.5 -1.5t-1 -4zM54 88v-4q7 -3 16 -3h17v28l-6 4h-22q-2 0 -3 -3t-1.5 -7.5t-0.5 -8.5v-6zM129 90q0 -3 3 -6.5t7 -6t9 -5t8 -3.5q2 0 3.5 2t2 4.5t0 5t-0.5 3.5v4v2l-3 3h-28q-1 0 -1 -1v-2zM139 43q0 -1 3.5 -4.5t8 -6.5t8.5 -6l4 -3q3 1 7 3t8 4.5t7 5.5t5 6
v1v1q0 3 -2 4.5t-5.5 2t-6.5 0.5h-6v-2v-3.5t-0.5 -3t-0.5 -2.5q0 -2 -0.5 -2.5t-2.5 -0.5h-2.5t-1.5 1v16q-2 0 -6 -1t-7.5 -2.5t-6.5 -3.5t-3 -4z" />
</svg>
