<?xml version="1.0" standalone="no"?>
<!DOCTYPE svg PUBLIC "-//W3C//DTD SVG 1.1//EN" "http://www.w3.org/Graphics/SVG/1.1/DTD/svg11.dtd" >
<svg xmlns="http://www.w3.org/2000/svg" xmlns:xlink="http://www.w3.org/1999/xlink" version="1.1" viewBox="-10 0 266 256">
   <path fill="currentColor"
d="M129 209q1 7 3.5 14.5t8.5 12.5l4.5 4.5t5 4.5t5.5 4t7 2q2 0 3.5 -1.5t1.5 -3.5q0 -4 -4 -6.5t-8.5 -4.5t-8 -4.5t-3.5 -7.5l1 -2.5t2 -5.5t2.5 -5l1.5 -2q5 -2 11 -3t11 -2.5t8 -5.5t3 -11q0 -3 -0.5 -6.5t-2.5 -6.5q-1 0 -4 -2t-6.5 -4t-6.5 -3.5t-4 -2.5q-4 -2 -4 -8
v-2q1 -1 4.5 -2t6 -2.5t5 -3.5t2.5 -5v-24q0 -6 -4.5 -8t-9.5 -3.5t-9 -3t-4 -5.5v-1l0.5 -1.5l0.5 -1.5q1 0 4 -0.5t6.5 -1t6.5 -1t4 -0.5t3.5 -1t4.5 -2.5l4 -3t2 -3.5v-20q0 -1 -3 -1h-2h-3q-1 0 -1 1q0 8 -0.5 12.5t-3 7t-7 3.5t-11.5 1q-4 0 -4.5 -1t-0.5 -5v-4.5t1 -2
t2.5 -1t3.5 -2.5q1 -1 2.5 -2t3 -2.5l2 -2t0.5 -1.5v-14l3 -2l1 -0.5t2 -0.5h16q2 0 2.5 -2t0.5 -3q0 -2 -2 -3h-6q-6 0 -12 1.5t-13 1.5q-15 1 -31 1.5t-31 0.5q-2 0 -2 0.5v2.5v1.5t2 1.5h22q2 0 3.5 2t2.5 5t1.5 6t1.5 5q2 2 4.5 3l5 2t4 2.5t1.5 5.5v4t-3 3
q-1 0 -2.5 0.5t-3.5 0.5t-3.5 0.5t-2.5 0.5h-2q-9 0 -12.5 -4.5t-5 -9.5t-2 -9t-3.5 -4q-2 0 -2.5 1l-1 2t-0.5 3v2q0 8 4 13.5t9.5 8t12.5 3.5t15 0q2 -1 2.5 0.5t0.5 3.5t-0.5 4t-2.5 3q-6 1 -10 1t-6.5 1t-5.5 3.5t-7 6.5q0 1 -0.5 2l-0.5 1v21q0 4 3 6t7 3.5t7 2.5t3 4
q0 5 -2.5 7.5t-6 4t-7 3.5t-7 4.5t-6 7t-2.5 12.5q0 5 3.5 9.5t8.5 5.5zM132 176q-1 -2 -3 -1.5t-3 0.5v22q0 1 -2 1.5l-2 0.5q-3 0 -6.5 -1t-6 -2.5t-4.5 -4t-2 -5.5q0 -6 4 -9t8.5 -4.5t9.5 -3.5t7 -6q1 -2 1.5 -4.5t1 -4t1.5 -2.5t5 -1t5.5 2t2.5 4.5t1.5 5.5t3.5 5
q5 2 10.5 3.5t9.5 6.5v6q0 15 -16 15q-2 0 -3.5 -0.5t-1.5 -2.5q0 -3 0.5 -6.5t0.5 -7.5v-2.5v-3.5l-0.5 -0.5l-0.5 -0.5h-0.5h-0.5q-3 0 -4 5.5t-2 12.5t-2.5 12.5t-5.5 5.5v0v0q-1 -1 -1.5 -2l-0.5 -1q-1 -5 -2 -8.5t-1.5 -7t-0.5 -7.5v-9zM117 133v-1.5t2 -1.5
q2 0 8 -0.5t12.5 -1t12.5 -0.5t8 -1h1q2 0 3 2t1 3q0 5 -3.5 7.5t-8 4t-9.5 1.5h-8q-2 0 -5.5 -0.5t-6.5 -2t-5 -4t-2 -5.5zM114 120q-2 -4 2 -7t9.5 -4.5t11.5 -2t8 -0.5h5q3 0 4 1q2 0 3.5 1.5l3.5 3.5t3 4t1 3v1l-2 1q-2 0 -7 0.5t-11.5 0.5t-11.5 0.5t-7 0.5h-2h-2
q-2 0 -4.5 -0.5t-3.5 -2.5zM39 42q0 13 1 26.5t3 26.5q0 3 2 4.5t4.5 2.5t5.5 1.5t6 0.5q8 0 13 -2t7 -9q0 -11 1 -22.5t1 -22.5v-3v-3v-4v-3q-1 -2 -2.5 -4t-4.5 -2q-4 0 -4 4t1 8t1 9q0 3 -3 4.5t-6 1.5h-4h-4.5t-5 -0.5t-3.5 -0.5v-24l-1.5 -0.5t-2.5 -1.5v0h-2h-1.5
t-0.5 2v2q0 1 -0.5 3t-0.5 4v2zM49 70q0 -3 2.5 -4.5t6 -2.5t7 -1h5.5q3 0 3.5 2t0.5 5q0 5 -0.5 9.5t-1.5 10.5q-1 4 -4 5t-7 1h-2h-3q-3 -2 -4.5 -5t-2 -6.5t-0.5 -7v-6.5zM126 49q0 -2 1 -4t3 -2h21q1 0 1.5 0.5l0.5 0.5v2v2q0 6 -3 9.5t-8 3.5q-3 0 -6 -1t-5 -2t-3.5 -3
t-1.5 -6zM102 14q0 1 0.5 2t1.5 1h14q14 0 29 -0.5t29 -2.5q1 0 1.5 -1t0.5 -2l-0.5 -1t-1.5 -2h-8h-3.5h-4.5t-4.5 1t-2.5 2q-1 0 -4.5 -0.5t-4.5 -0.5h-1h-1h-3.5t-7.5 0.5t-7 0.5h-4h-1t-2.5 -0.5t-2.5 -0.5h-1h-4q-2 0 -4.5 0.5t-2.5 3.5z" />
</svg>
