<?xml version="1.0" standalone="no"?>
<!DOCTYPE svg PUBLIC "-//W3C//DTD SVG 1.1//EN" "http://www.w3.org/Graphics/SVG/1.1/DTD/svg11.dtd" >
<svg xmlns="http://www.w3.org/2000/svg" xmlns:xlink="http://www.w3.org/1999/xlink" version="1.1" viewBox="-10 0 266 256">
   <path fill="currentColor"
d="M138 194q0 2 0.5 6.5l1 9t0.5 9v5.5t-1 3.5t-1.5 6t-1.5 6.5t-1 4v3v3h5t3 -0.5t1.5 -2t1.5 -3.5q3 -14 3 -27v-26q0 -2 2 -3.5t4.5 -2l5 -1t3.5 -0.5q3 0 4.5 3.5t2.5 6.5q0 12 1 25.5t0 25.5q1 2 2 3.5t3 1.5q4 0 4.5 -1.5t0.5 -4.5q0 -12 -2 -25t-2 -25h6q1 1 3 2
t4.5 3t4.5 3t2 2q2 1 2.5 1h2.5t3.5 -1t1.5 -3q0 -3 -1.5 -4.5t-3.5 -2.5t-6 -2.5t-8.5 -3t-9 -3.5t-5.5 -2l-2.5 -2.5t-3.5 -3t-3.5 -3.5l-1.5 -2q-1 -1 -1 -4.5t-2 -3.5q-6 -1 -10 -1.5t-7 -2t-6 -4t-6 -7.5q-1 0 -2 -1.5l-1 -1.5v-24l-4 -3l-1 1v31q0 1 1 3.5t3 5
t3.5 4.5t3.5 3q1 1 5 1t7.5 0.5t6 2t2.5 4.5v3t-1.5 1.5t-5.5 2t-9 3.5t-9 3.5t-6 2.5q-1 0 -4.5 2l-7 4t-6 4.5t-2 5t2 3t3.5 0.5q4 0 7.5 -2.5t6.5 -5.5t6.5 -5.5t7.5 -2.5zM98 155v0q1 2 1.5 4.5l0.5 2.5l0.5 1l0.5 1q1 0 2.5 -1.5t2.5 -1.5v-6.5t0.5 -9.5t1 -9t0.5 -6
q0 -4 0.5 -12.5t2.5 -16.5t5.5 -14.5t10.5 -6.5q2 0 3.5 3.5t3 8t4.5 8t8 3.5h31v-6h-31q-1 0 -2 -1.5t-1.5 -3.5l-1 -4t-0.5 -3v-1q0 -2 1 -2l2 -2h34q1 0 1.5 -1t0.5 -2t-1.5 -2.5t-3.5 -1.5h-35v-14q7 0 12.5 -0.5t10.5 -0.5t10 0.5t11 1.5q6 4 8 11q2 9 2.5 20l1 22
t0 21.5t-0.5 19.5q1 1 1.5 3t2.5 2q4 0 5 -3t1 -5v-5q-1 -3 -1 -8.5t-0.5 -13t-1 -16t-0.5 -15.5t-0.5 -13t-0.5 -9q0 -2 -1 -5t-2.5 -6.5t-3 -5.5t-4.5 -2h-50v-9t0.5 -10t3 -8.5t8.5 -3.5q4 0 5 2.5t1.5 6t1 6t3.5 3.5t7 1.5t8.5 1t8 0.5h6.5h1q1 0 2 -2t1 -3q0 -3 -3 -3
q-4 0 -7.5 1t-7.5 1q-2 0 -4.5 -0.5t-4.5 -1t-3 -2t-1 -4.5q0 -2 1 -4.5t4 -2.5h24q1 0 1.5 -1.5t0.5 -3.5q0 -1 -0.5 -2t-1.5 -2h-5q-12 0 -25 1.5t-23 2.5q-3 2 -5.5 4t-2.5 5q-1 1 -1 4t-0.5 6.5l-1 7t-0.5 4.5q-1 2 -3.5 2h-2.5q-5 0 -7 -3.5t-3 -8t-0.5 -9t0.5 -7.5
q1 -2 -0.5 -2.5t-2.5 -0.5q-2 0 -3 1t-1.5 2.5t0 3.5t0.5 3q0 8 0.5 13t3 8t6.5 5t11 4v15q0 1 -3 1.5t-6.5 2t-7 4t-4.5 6.5q-1 1 -1.5 4.5t-1.5 7.5t-1.5 8t-0.5 6l-0.5 5t-1.5 12t-1.5 13.5t-1.5 10.5v1zM146 122v8t0.5 8t2 7t5.5 6l1 1h19q3 0 4.5 -4t2 -9.5t1 -9.5
t0.5 -5q0 -2 -1 -5t-4 -3v0q-1 0 -3.5 2.5t-2.5 3.5h-16l-1 -2q-1 -1 -2 -3.5t-4 -2.5h-1l-0.5 0.5t-0.5 1.5v2.5v3.5zM152 134q0 -1 1 -3t2 -2t3.5 -0.5l2.5 -0.5q6 0 9.5 1.5t3.5 7.5q0 5 -3 7t-7 2q-6 0 -9 -3t-3 -9zM51 61v3q0 2 0.5 6.5t1 9.5t1 9.5t0.5 5.5v11.5t1 10
t4.5 7.5t10.5 3q3 0 7 -0.5t7.5 -1.5t5.5 -3.5t2 -7.5v-61l-1.5 -1.5t-2.5 -3.5h-1q-1 0 -2 1.5t-1 3.5v3.5v1.5q0 4 1 7.5t1 7.5q0 3 -1 5t-4 2h-20q-1 0 -1 -4.5t-0.5 -10.5t-1.5 -10.5t-3 -4.5t-3 1.5t-1 3v3.5v3zM61 113v-21q0 -3 2.5 -4t5.5 -1h6h4h3t2 1v23l-4 6h-14z
" />
</svg>
