<?xml version="1.0" standalone="no"?>
<!DOCTYPE svg PUBLIC "-//W3C//DTD SVG 1.1//EN" "http://www.w3.org/Graphics/SVG/1.1/DTD/svg11.dtd" >
<svg xmlns="http://www.w3.org/2000/svg" xmlns:xlink="http://www.w3.org/1999/xlink" version="1.1" viewBox="-10 0 266 256">
   <path fill="currentColor"
d="M57 243v4t2 2v0v0l2.5 -2.5l2.5 -2.5q2 -6 2.5 -11.5l1 -11t0.5 -11t1 -13.5l2 -48t2 -49v-2.5t0.5 -3.5t0.5 -3.5v-1.5q2 -2 4.5 -4t4.5 -2q3 0 10.5 -0.5t15.5 -1t15 -1t10 -0.5q1 0 4.5 -0.5t7.5 -1t7 -1t5 -0.5q1 -1 4 -1.5t7 -0.5t8 0.5t7.5 0t5.5 -1.5t2 -4
q0 -2 -1.5 -3t-3.5 -1q-11 0 -20.5 2t-20.5 3q-2 0 -6.5 0.5t-11 1t-14 1t-14.5 0.5t-11.5 0.5t-6.5 0.5q-8 1 -11 4t-7 9q1 31 0 61.5t-3 61.5q0 3 -1 7t-1.5 8.5l-1 9t-0.5 7.5zM184 220q3 0 4.5 3.5t2 8.5t1 9.5t0.5 5.5h3h2q2 0 3 -1v-6q0 -3 -1.5 -6.5t-3 -6.5
t-2.5 -6.5t-1 -6.5q0 -1 1 -2.5t1.5 -2.5t1.5 -2t1 -2v-19q0 -4 -3.5 -6.5t-7.5 -4.5t-8.5 -2.5t-7.5 -0.5q-4 0 -7.5 0.5t-9.5 0.5v2q0 3 3 5q1 0 4 -0.5t6 -0.5t6 0.5t4 0.5t3 0.5t4 1.5t3.5 2.5t1.5 2.5v13q0 2 -2 2h-2q-3 0 -5.5 -1l-5 -2l-5 -2t-5.5 -1h-5.5t-4.5 3
q2 3 6.5 4t9 1.5t7.5 2t3 6.5q0 3 -4 4.5t-9 2.5t-9 2.5t-4 4.5q0 1 0.5 2t2.5 1q3 0 7.5 -1.5t8.5 -3.5l7 -3.5t5 -1.5zM88 238q0 2 1 2.5t3 0.5q1 0 2.5 -0.5t1.5 -2.5v-30q0 -1 2.5 -2.5t4.5 -2.5q1 0 4 -0.5t6 -0.5h6h5h2.5h1.5l2 4v32q0 1 1.5 1.5l1.5 0.5q2 0 3 -0.5
t3 -2.5v-8v-8q0 -1 -1 -5t-1.5 -8.5t-1 -8.5l-0.5 -4v-6v-9v-9v-5q0 -6 -3.5 -10.5t-10.5 -4.5h-1h-1q-1 0 -3.5 0.5t-6 1t-6 1t-3.5 0.5q-3 2 -5.5 4.5t-3.5 5.5q0 4 -0.5 14t-1 21.5t-1 21.5t-0.5 14v3zM117 179h4t4 1q3 0 3 2.5v4.5t-0.5 5t-3.5 3h-5.5h-7.5t-7.5 0.5
t-5.5 0.5h-3v-12q0 -2 3 -3t7 -1t7.5 -0.5t4.5 -0.5zM98 169q0 -5 1.5 -7t4 -3t5.5 -1h6q5 0 9 2t4 7q0 4 -3 5t-7 1.5t-8.5 0t-6.5 -0.5q-3 0 -4 -0.5t-1 -3.5zM180 102v14q0 3 -4 4t-9 2.5t-9.5 3t-4.5 4.5v19q0 2 2 4t4 2h36l1.5 -1t1.5 -2v0q0 -3 -1.5 -4.5t-3.5 -1.5
q-6 0 -11 1t-11 1h-7q-1 0 -3 -0.5t-2 -1.5v-12l0.5 -0.5t1.5 -0.5q5 -2 11 -3.5t11 -2.5l3 -3t2 -3v-24q0 -2 -1 -3t-2.5 -1.5t-3.5 -0.5h-3q-4 0 -8 1t-8 1q-2 0 -3.5 -0.5t-2 -1.5t-1.5 -2t-2 -4v0h-0.5h-0.5l-0.5 0.5t-0.5 1.5q0 5 -1 9t-2.5 8t-3 7t-1.5 7q0 3 3 3
t4 -3l2.5 -7.5t5.5 -7.5t14 -3h3.5h3.5zM86 137q0 2 1 2.5t2.5 0.5h2.5h3h14t15 -1q2 -1 4.5 -3.5t2.5 -5.5v-29q0 -2 -2.5 -4t-4.5 -2h-1.5h-0.5q-2 0 -7 0.5t-10 0.5t-10 0.5t-7 0.5q-2 2 -2 6q8 0 16.5 -1t17.5 -1q3 0 5 2t2 5q0 2 -1 3t-4 1h-34l-3 4l1 2h41l0.5 1
t0.5 2v2v1q0 2 -0.5 4.5t-3.5 2.5l-36 3q-1 0 -1.5 1.5zM140 15q0 8 1.5 18t3.5 19q0 2 1.5 3l3 2t3.5 2t3 1l0.5 0.5l0.5 0.5q13 0 21 -5.5t8 -21.5v-2v-3.5t-0.5 -5t-0.5 -5v-3.5q-1 -1 -3 -2.5t-3 -1.5q-3 0 -3 1v2q0 3 0.5 5t0.5 5q0 1 -0.5 2.5t-2.5 2.5q-1 0 -4 0.5
l-6 1t-6.5 1t-4.5 0.5v0h-1q-1 -1 -2.5 -2l-1.5 -1v-12q0 -1 -1 -1.5l-1 -0.5h-3h-3zM74 24q0 1 1 6.5t2 11.5t3 10.5t5 4.5h22q4 0 6.5 -2t4 -5.5t1.5 -7v-6.5q0 -6 -1.5 -12t-4.5 -12l-3 3v15h-25q-2 0 -2.5 -2t-0.5 -4.5t-0.5 -5t-2.5 -3.5h-1v0q-1 0 -2 1.5t-2 1.5v3v3z
M150 44q0 -3 2.5 -4.5t6 -2.5t6.5 -1h5q4 0 6.5 2t2.5 6q0 2 -3 4t-6.5 3t-6.5 1.5t-4 0.5q-4 0 -6.5 -2.5t-2.5 -6.5zM86 38h25q0 7 -2 10.5t-9 3.5h-5q-2 -1 -5.5 -1.5l-3.5 -0.5v-12z" />
</svg>
