<?xml version="1.0" standalone="no"?>
<!DOCTYPE svg PUBLIC "-//W3C//DTD SVG 1.1//EN" "http://www.w3.org/Graphics/SVG/1.1/DTD/svg11.dtd" >
<svg xmlns="http://www.w3.org/2000/svg" xmlns:xlink="http://www.w3.org/1999/xlink" version="1.1" viewBox="-10 0 266 256">
   <path fill="currentColor"
d="M77 223q2 0 6 0.5l8 1l8 1t5 0.5h6h6h4t6.5 -0.5t6 -0.5h3.5q11 -1 19.5 -0.5t15 0t11 -2.5t7.5 -6.5t5 -13t3 -20.5q1 -24 3 -47t2 -47q0 -8 -1.5 -16.5t-4.5 -15.5t-9 -11.5t-15 -4.5h-78l-23 5q-4 1 -7 4.5t-5 8t-3.5 9t-1.5 7.5v6v8.5v8.5v6q0 24 1 47.5t6 47.5
q2 3 3.5 6.5l3 7t3.5 6.5t6 5zM94 211q0 -2 2.5 -5.5t6 -7.5t7.5 -8.5t8.5 -7.5t8 -5t5.5 -2t5.5 2t8 5.5t9 8l8.5 8.5t6.5 7t2.5 5q0 1 -1 1.5l-3 1.5q-10 2 -20 2h-20h-27q-1 -1 -4 -1.5t-3 -3.5zM67 165v-1l2 -3q15 -7 24.5 -18.5t14.5 -25t6 -29.5t0 -32q1 -2 2.5 -4
t3.5 -3q1 0 4 -0.5t7 -0.5t7.5 -0.5t4.5 -0.5h1h1l0.5 1l0.5 1v35q0 13 0.5 23.5t3 20t8.5 17.5t17 14q1 1 2.5 1t3.5 1t3 2t1 3t-1 6.5t-2 10t-2.5 9.5t-2.5 4q-6 0 -11 -5t-10 -11.5t-10.5 -12t-12.5 -5.5q-3 0 -7.5 3.5t-10.5 8.5t-12 11l-11 11t-8.5 8t-4.5 3
q-1 -1 -3 -3.5t-3.5 -6t-2.5 -7t-1 -5.5v-2t-0.5 -5t-0.5 -6.5t-1 -5.5v-1zM155 78v-13t1 -12q2 -2 5.5 -3t4.5 -1q9 1 13 3.5t5.5 7.5t2 11t1.5 13q0 1 1 4l1 3v5v7t-0.5 11t-1 13t-1 12.5t-2 9t-3.5 3.5v0q-3 -1 -5.5 -3t-5 -5t-4 -5t-2.5 -3q-5 -6 -7 -13t-3 -15
t-0.5 -15.5t0.5 -14.5zM66 119v-10v-10t0.5 -10t0.5 -12q3 -5 3 -9.5t2 -9.5q1 -3 5.5 -4.5t10 -2t10 -1t6.5 -0.5v43q0 2 -1.5 5.5t-1.5 5.5q-1 5 -3.5 12.5t-6 14t-8.5 11.5t-12 5h-2h-2q-1 -8 -1 -14v-14z" />
</svg>
