<?xml version="1.0" standalone="no"?>
<!DOCTYPE svg PUBLIC "-//W3C//DTD SVG 1.1//EN" "http://www.w3.org/Graphics/SVG/1.1/DTD/svg11.dtd" >
<svg xmlns="http://www.w3.org/2000/svg" xmlns:xlink="http://www.w3.org/1999/xlink" version="1.1" viewBox="-10 0 266 256">
   <path fill="currentColor"
d="M65 242q18 3 38 5.5t39 2.5q20 0 33 -1.5t21 -7t11.5 -16.5t3.5 -31v-40v-41q0 -4 -0.5 -10t-1.5 -12t-2 -11t-4 -9t-9.5 -6.5t-13.5 -4.5t-15 -3.5t-14.5 -2.5t-10.5 -2l-4 -1v-37q0 -1 -1 -1.5t-2 -0.5h-2h-2q-3 0 -5 1.5t-3 4.5t-1 5.5v5.5v4.5v8.5v7v5
q-15 1 -27.5 2.5t-21.5 6.5t-14.5 14t-5.5 24v73q2 7 2 16.5t0.5 19t2.5 18t9 14.5zM92 236q-2 0 -2 -1v-2v-2q0 -1 0.5 -2t1 -2.5t1 -2.5l0.5 -1q4 -4 8.5 -7.5t9.5 -6.5l10 -6t9 -7q1 0 2.5 -2t3.5 -4.5t4 -4t3 -1.5h0.5h0.5q2 5 6.5 12t9.5 13.5t9 12t4 9.5q0 3 -3 4.5
t-6.5 2t-6.5 0.5h-4h-17h-12h-10t-10.5 -0.5t-11.5 -1.5zM155 180q0 -2 2.5 -5t6 -7t8.5 -8.5t9.5 -8t8.5 -6t6 -2.5t2.5 1.5t0.5 4.5v3.5v6.5v6v4v5v7v5.5v2.5q0 1 -0.5 5t-0.5 8t-0.5 8t-0.5 5t-0.5 3.5t-2 4.5t-3 3.5t-3.5 1.5t-5 -3.5t-6.5 -8.5t-7.5 -11t-7 -11t-5 -9
t-2 -5zM63 196l2 -3q2 -2 5.5 -5t7 -7t7 -7.5t5.5 -4.5l1.5 -2.5l1.5 -2.5q3 -2 6.5 -5.5t6.5 -7t5.5 -5.5l2.5 -2h4q1 2 4.5 5.5t6.5 7.5t5.5 8.5t2.5 7.5v1v2l-2 2t-3.5 4t-3.5 3.5t-3 1.5q0 1 -2.5 3t-5.5 3.5t-5 3.5t-3 2q-3 3 -7.5 7l-9 8t-9.5 7t-9 3l-2 -0.5l-2 -0.5
l-1 -3.5t-2 -4.5q0 -2 -1 -5.5t-1.5 -6l-1 -5zM73 78q1 0 5 3.5t8 9.5t9 12.5t9 12.5t6.5 10t2.5 5q0 2 -3.5 5.5l-8 8t-10.5 9.5t-11 8.5t-9 6t-6 2.5v-75q0 -1 0.5 -4t1.5 -6t2.5 -5.5t3.5 -2.5zM130 136q0 -4 2 -6.5t5 -6.5q11 -12 23 -22t23 -22q1 -1 2.5 -2t3.5 -1
q3 0 5 5.5t3 12.5t1.5 13.5t0.5 9.5v4v4q-5 6 -11.5 11t-13 9.5t-13.5 9t-13 9.5h-2q-1 0 -3.5 -4t-5.5 -9t-5 -9.5t-2 -5.5zM91 72q0 -3 1.5 -4t4 -2t5 -1.5t4.5 -0.5t3.5 0.5t3.5 1.5h8h13h13h8h5t6.5 1t6 2.5t2.5 4.5v2q-7 4 -13.5 9.5t-13 11.5t-12.5 12l-11 11h-1.5
h-1.5q-2 0 -6.5 -5t-9 -11.5t-8.5 -12.5t-5 -8t-1.5 -5.5t-0.5 -5.5z" />
</svg>
