<?xml version="1.0" standalone="no"?>
<!DOCTYPE svg PUBLIC "-//W3C//DTD SVG 1.1//EN" "http://www.w3.org/Graphics/SVG/1.1/DTD/svg11.dtd" >
<svg xmlns="http://www.w3.org/2000/svg" xmlns:xlink="http://www.w3.org/1999/xlink" version="1.1" viewBox="-10 0 266 256">
   <path fill="currentColor"
d="M51 96q0 10 1.5 20.5t1.5 20.5q1 5 1.5 14t1 19t2 21t4.5 20.5t6.5 17t9.5 10.5q6 4 11.5 6.5t10.5 3.5t11 1h14h3q2 0 7.5 -0.5l11 -1t10 -1t6.5 -1.5q10 -1 17 -5.5t11.5 -11.5t6.5 -16t3 -18.5t1 -18.5v-18q1 -5 0.5 -8.5t1.5 -7.5v-3v-5.5v-5.5v-3q0 -23 -1 -45
t-4 -44q0 -2 -0.5 -5t-1.5 -4t-4.5 -2.5t-5.5 -2.5h-39h-40q-7 0 -16 0.5t-17.5 2.5t-14.5 6.5t-7 14.5v9t-0.5 13t-0.5 13.5v8.5q-1 1 -1.5 3l-0.5 2v1zM64 122q0 -2 1.5 -2.5t4 -1.5t4.5 -1.5t4 -2.5l1.5 -2t3 -4.5t3 -4.5t1.5 -3q3 -3 8.5 -10t11.5 -14t12 -12.5t11 -5.5
q3 0 7 4t8.5 9.5t10 12.5t11.5 12.5t12 9.5t13 5v3.5t0.5 5l1 5t0.5 3.5v1q0 13 -1 27.5t-3 27.5q-1 8 -1.5 15.5t-2.5 14t-6 11.5t-13 8q-1 0 -3 0.5t-4.5 1t-4 1l-1.5 0.5h-2h-2t-1 -2l-0.5 -2.5t-0.5 -3.5q0 -4 1.5 -7.5t1.5 -7.5v-1q-1 -2 -1.5 -5.5t-1.5 -7.5t-2 -7
t-1 -5q-1 -4 -4.5 -5.5t-9 -1.5t-11 0.5t-10.5 0t-8 -2t-3 -6.5q0 -8 5 -10.5t12 -2.5t16 0.5t16 -0.5t12 -6t5 -17v-5t-1 -4t-2 -3.5l-3 -4.5h-5.5t-7.5 -0.5t-7.5 -0.5h-4.5h-1h-2q-9 0 -20 2t-20 5q-2 0 -2 1v2q0 2 1.5 3.5t3.5 1.5h2.5t4.5 -0.5t3.5 -0.5h2.5h6
q5 0 6.5 1.5t1.5 6.5q0 6 -2.5 8t-5.5 3t-6.5 1t-6.5 1.5t-5.5 6.5t-2.5 14q0 2 0.5 5t1.5 5.5t2.5 4.5t4.5 2h33l1 1.5l2 3t1.5 3.5l0.5 2v36h-6.5t-9.5 -0.5t-9.5 -0.5h-6.5q-7 0 -14 -3t-12 -9q-3 -3 -5 -8.5t-3.5 -12.5t-2.5 -13.5t-1 -10.5q0 -1 -0.5 -5.5t-1 -10.5
t-1 -12.5t-1 -12t-1 -10t-0.5 -5.5v-1zM129 138q0 -3 1.5 -5t4.5 -2.5t6 -0.5h6q4 0 5.5 2t1.5 7q0 3 -1 5t-3 2.5t-4.5 1t-4.5 0.5q-6 0 -9 -1.5t-3 -8.5zM68 48q1 -4 5 -7.5t8 -4.5h5t8.5 -0.5t8.5 -1t6 -0.5h2t2.5 -0.5t3 -0.5h2.5h53q0 -1 3 -1.5l3 -0.5h1q6 0 8 4t3 10
t0.5 11.5t-0.5 9.5v3t0.5 5.5t1 5.5l0.5 3v7v7l-3 1.5t-2 0.5h-2q-1 -2 -5 -6t-8 -8.5t-8 -8t-5 -5.5q-3 -2 -7 -7t-8.5 -9.5l-8 -8t-5.5 -3.5h-3t-1.5 1l-1 2t-2.5 2q-3 3 -7 5.5t-6 5.5q-5 6 -9.5 13t-8.5 13q-2 2 -5 5.5t-6 6.5l-5 5l-2 2h-7q0 -14 0.5 -28t1.5 -28z
M106 99l2.5 0.5t3.5 0.5q0 1 1 1q8 0 18 -2t18 -4v-1v-1q0 -4 -3 -4.5t-5 -0.5q-9 0 -17 1t-17 3q-2 2 -2 5l0.5 0.5t0.5 1.5z" />
</svg>
