<?xml version="1.0" standalone="no"?>
<!DOCTYPE svg PUBLIC "-//W3C//DTD SVG 1.1//EN" "http://www.w3.org/Graphics/SVG/1.1/DTD/svg11.dtd" >
<svg xmlns="http://www.w3.org/2000/svg" xmlns:xlink="http://www.w3.org/1999/xlink" version="1.1" viewBox="-10 0 266 256">
   <path fill="currentColor"
d="M47 134v3v6t0.5 10t1 12.5t0.5 12.5t0.5 10t0.5 6q0 6 1 14t4 15t7.5 13t12.5 8q9 2 19 2.5t19 2.5h1h1q1 0 3 -1t2 -2h49q3 -3 6.5 -4.5l7 -3t7 -4t6.5 -6.5q2 -4 3.5 -9t2.5 -9.5l2 -9t3 -6.5v-131q0 -17 -6 -25.5t-15.5 -12.5t-21.5 -4.5t-26 -0.5h-27h-28
q-5 2 -11 3.5t-12 2.5q-5 5 -7 10.5t-2.5 11.5t-0.5 12.5v12.5q0 2 -0.5 6.5t-0.5 10.5t-0.5 12.5t-1 12.5t-0.5 10.5v6.5v2zM57 133q0 -15 1 -28.5t0 -29.5q3 -3 3.5 -6t0.5 -5.5t-0.5 -5.5t0.5 -7q1 -8 6 -12.5t12 -6t15 -2t14 -0.5h3h7h8h6h5h6h6h2q2 0 6.5 1t10 2
t10.5 2t7 2q4 1 6.5 5t3.5 8.5t1 9.5v8v115q0 1 -0.5 3t-1 4.5t-1 5.5t-0.5 5q-1 6 -2.5 12t-5.5 12q-3 3 -10 5.5t-15 4t-16 2t-12 0.5h-2h-4h-3.5h-1.5l-2 -2v-2.5v-2.5q0 -12 3 -19.5t7.5 -12.5t10.5 -9t10.5 -8t7.5 -9t3 -12q0 -8 -2.5 -17t-8 -16.5t-12.5 -12.5t-16 -5
q-10 0 -17 3.5t-12 9.5t-8.5 14t-5.5 16.5t-4.5 17t-2.5 17.5q0 4 0.5 5.5t4.5 1.5h3t2 -2q0 -1 0.5 -3t0.5 -4.5t0.5 -5t0.5 -3.5v-4q0 -4 1 -7.5t2 -6t4 -2.5h1h1q1 2 4 5.5t6 8t5.5 7.5t3.5 3t2.5 -2.5t1.5 -3.5q0 -3 -1.5 -6t-3.5 -5.5t-4.5 -5.5t-4.5 -5l-1.5 -2
t-3.5 -4l-3.5 -3.5l-2.5 -2.5v-1v0q0 -4 3 -6.5t6 -2.5q5 0 9.5 4.5t9 10.5t7.5 12.5t5 10.5h1h1q5 0 5 -4q0 -7 -4 -13.5t-9 -12t-9 -9.5t-4 -7q0 -2 2 -2.5t3 -0.5q8 0 14.5 3.5t11 9t7.5 12.5t3 14t-4 11.5t-9.5 8.5t-11.5 7.5t-9 8.5q-2 3 -4.5 8.5t-4 11.5t-2.5 12t0 9
q-1 1 -3.5 1.5t-3.5 0.5h-1q-12 0 -20 -5.5t-13 -14.5t-7 -20.5t-3 -23t-1 -22.5v-18zM172 208v2q1 0 2 1t1 2h0.5h0.5q4 0 5.5 -3.5t2 -8t0.5 -9v-6.5v-21.5t-2 -20.5q-1 -6 -3 -11.5l-4 -11t-3.5 -11.5t-1.5 -11q0 -3 1 -5.5t2.5 -5t2.5 -5.5t1 -6q0 -12 -7.5 -19.5
t-18.5 -12t-23.5 -5.5t-21.5 -1q-2 0 -3 0.5t-1 2.5t4.5 3.5t10 2.5t11 1.5t7.5 1.5q1 0 4.5 1l7 2t6.5 2t4 2q3 3 5.5 5t3.5 3.5t2 4t1 6.5v7q-1 2 -2 2.5t-3 0.5t-5.5 -2t-6.5 -4.5t-6 -5.5l-4 -4q-5 -3 -12 -5t-15 -3.5t-15 -2.5t-12 -1h-5q-2 0 -5 0.5t-5 2t-2 3.5
t6 3.5t14.5 2.5t19 1.5t19 3t14.5 6t6 10.5q-2 0 -7 0.5l-10 1t-9.5 0.5h-6.5q-1 0 -4 -1t-7.5 -2t-9.5 -2t-8 -2q-2 -1 -3 -1t-1 -0.5t-0.5 -0.5h-2.5t-3 0.5t-1 3.5t5.5 5.5t13 4.5l15 4t9.5 3h1q8 0 17 -2t18 -2q2 0 4.5 0.5t3.5 3.5q6 17 8.5 37t2.5 38q0 6 -1.5 13.5
t-1.5 13.5z" />
</svg>
