<?xml version="1.0" standalone="no"?>
<!DOCTYPE svg PUBLIC "-//W3C//DTD SVG 1.1//EN" "http://www.w3.org/Graphics/SVG/1.1/DTD/svg11.dtd" >
<svg xmlns="http://www.w3.org/2000/svg" xmlns:xlink="http://www.w3.org/1999/xlink" version="1.1" viewBox="-10 0 266 256">
   <path fill="currentColor"
d="M75 241q3 1 7.5 1.5t9.5 1t10 1.5t9 2h47l2.5 -0.5t5.5 -1.5l6 -2t5 -2q6 -2 9.5 -6.5t6.5 -11.5t4 -14.5l2 -15t1 -14v-10.5v-4.5v-5t-0.5 -5.5t-1.5 -4v-29q0 -8 -4.5 -12t-11 -6t-15 -2.5t-15.5 -1t-12 -1.5t-5 -4l-3 -21l-1.5 -1.5t-2.5 -3t-2.5 -3l-2.5 -2.5
q-4 -4 -8 -5t-7 -2t-4.5 -4.5t-1.5 -11.5v-9l2 -2t3 -1q12 -1 23 -2.5t22 -1.5h3h4h3.5h2.5q2 1 2 3v3q0 3 -3 7.5t-7 10t-7.5 10t-5.5 5.5v7q4 0 10.5 -4.5t12.5 -11.5t10 -14t4 -12t-3 -9.5t-8 -5.5h-21h-21h-7.5t-12.5 0.5t-15 1t-14 2.5t-10 4t-4 6v2t2 2h22q1 2 1.5 6
t1.5 8t1.5 7.5t1.5 5.5l0.5 1.5t1.5 2.5q3 5 8 6t9 2t6.5 4.5t2.5 13.5v6q0 3 -2 5h-15t-18 2t-16 6.5t-9 13.5q-3 16 -5 30.5t-2 31.5q0 6 0.5 14.5t3 17t6 16t9.5 10.5zM178 198q8 0 8 7q0 8 -4 15.5t-8 13.5q-8 1 -16.5 3.5t-16.5 2.5q-2 0 -5 -0.5t-3 -3.5v-34l3.5 -1
t5.5 -1h5t9.5 -0.5t10.5 -1t8 -0.5h3zM68 207q0 -2 1.5 -3t3 -1.5t3.5 -1t3 -1.5h40l2 2v1.5v2.5v3.5v2.5v3.5v4.5v4v2v2t-0.5 3t-1 3t-1.5 2h-10q-7 0 -14 -1t-12.5 -4.5t-9.5 -9t-4 -14.5zM67 175v-9q0 -2 6.5 -3t14 -1.5t14.5 -0.5h9q6 0 9 1t3 7q0 1 -0.5 4.5t-1 7.5
t-1.5 7t-2 3h-43q-4 0 -5.5 -1.5t-2 -3.5t-0.5 -5v-6zM133 178v-4.5v-5.5t1 -5t3 -2q5 -1 9 -1.5t7.5 -0.5h7.5h8h14q1 1 2.5 1.5t2.5 2.5v2.5t0.5 5t0.5 4.5v3v2q0 2 -0.5 4.5t-2.5 4.5q-5 1 -9 1.5t-8 0.5h-8h-9h-13q-3 0 -4 -1.5t-1.5 -3.5t-0.5 -4v-4zM70 152
q-2 -3 -2 -7v-6q0 -4 1 -8.5t3.5 -8t5.5 -6t8 -2.5q1 0 5 5t8.5 11t8 11.5t3.5 7.5t-1.5 3t-3 1.5t-3.5 0t-3 -0.5h-14.5t-15.5 -1zM135 108h5h6t5 1.5t2 4.5q0 4 -2 10t-5.5 12.5t-8 11t-8.5 4.5h-4q-1 -1 -3.5 -4t-5 -6.5t-4.5 -7.5t-3 -5t-2.5 -3.5t-3 -4.5t-2.5 -3.5
l-1 -1.5v-4l3.5 -0.5t5.5 -1.5q5 -1 8 -1t5.5 -0.5t5.5 -0.5h7zM149 145q0 -3 3 -8.5t7.5 -11t8.5 -9.5t7 -4q4 0 7 3t4 7.5t1.5 9.5t0.5 8q0 4 -1 6t-4 4q-7 0 -13 1t-12 1q-3 0 -6 -1.5t-3 -5.5z" />
</svg>
