<?xml version="1.0" standalone="no"?>
<!DOCTYPE svg PUBLIC "-//W3C//DTD SVG 1.1//EN" "http://www.w3.org/Graphics/SVG/1.1/DTD/svg11.dtd" >
<svg xmlns="http://www.w3.org/2000/svg" xmlns:xlink="http://www.w3.org/1999/xlink" version="1.1" viewBox="-10 0 266 256">
   <path fill="currentColor"
d="M49 184q0 7 1.5 15.5t4 16t7.5 13t15 7.5h1q1 0 4 0.5t5.5 1.5t5 1.5t4.5 1.5h3h6.5h5.5h4h5h7h5h3l1.5 -0.5t3 -0.5t2.5 -0.5l1 -0.5q11 -1 20 -2t16 -4.5t11 -10.5t6 -20q1 -10 1 -20t1 -20q1 -19 2 -37.5t1 -37.5q0 -13 0.5 -23.5t-2 -17.5t-9 -11.5t-20.5 -6.5
q-15 -3 -28 -4t-28 -1h-18h-3.5t-6 0.5t-7 1.5t-5.5 1q-8 1 -12.5 5.5t-6.5 10t-3 12.5t-1 14q-2 20 -2.5 39.5t-0.5 39.5v37zM57 175v-10v-14t0.5 -17t0.5 -18v-16.5v-12v-4.5l5 -35q1 -5 8.5 -8.5t17 -5.5t18.5 -2.5t12 -0.5h11l1 1t2 1q4 2 6 6.5t2.5 10t0 11.5t-0.5 10
v2.5t-2 1.5h-59l-8 1l-0.5 1l-0.5 1q0 2 1 4.5t4 2.5h1q1 -1 4 -1.5t4 -0.5h56l1 3.5t2 9t2 12.5t2 13t2 11t1 6v1v1q0 2 -0.5 6.5t-1.5 8.5t-1 7.5v4.5q-1 1 -1.5 3.5t-0.5 3.5v55l-1.5 0.5t-4 1l-5 1t-4.5 0.5h-2h-3l-3 -0.5l-3 -0.5q-1 -1 -6.5 -1t-11.5 -1t-11 -1.5
t-6 -0.5q-9 -1 -14.5 -6.5t-8.5 -13t-4 -16t-1 -16.5zM156 227q-2 -11 -2 -21.5v-21.5v-4v-5v-4v-2l3 -4q3 2 5 5.5t4 6.5t4.5 5.5t5.5 2.5t3 -3q0 -4 -2.5 -8.5t-5.5 -9.5t-5.5 -10t-2.5 -10t2.5 -9.5t5.5 -8.5t5.5 -8.5t2.5 -9.5q0 -1 -1 -1.5t-2 -0.5h-2q0 1 -2 2.5
t-3.5 3t-2.5 3t-2 2.5l-0.5 1t-1.5 2l-2 2t-2 1t-2 -1.5t-1.5 -3.5t-1 -4.5t-0.5 -3.5v-25l1 -2h5t6.5 -0.5t7 -0.5h4.5q5 -1 6 -1t1 -4v-2t-2 -2h-29q-1 0 -2 -1t-1.5 -2.5t-0.5 -2.5v-2v-1.5v-0.5l19 -3l3 -4q-1 -2 -1 -4.5v-5.5t1.5 -5t4.5 -2q4 0 7.5 2t5 5t2.5 7t1 9v4
v6.5t-0.5 11t-0.5 14v13.5t-0.5 11t-0.5 6v7v12v11v7v12.5t-1 13.5t-3 14t-5.5 12.5t-9 8.5t-13.5 3h-1l-0.5 -0.5t-0.5 -1.5zM63 180q0 3 3 4t6 1q15 0 30.5 -2t30.5 -3q2 1 2.5 0t0.5 -3q0 -3 -3 -5h-11q-13 0 -26.5 1t-27.5 1q-2 1 -3.5 2.5t-1.5 3.5zM77 147
q2 3 6.5 5.5t8.5 2.5q6 0 12.5 -0.5t11.5 -2.5t8.5 -6.5t3.5 -12.5t-0.5 -13.5t-2.5 -8.5t-6.5 -4t-12.5 -1q-7 0 -11.5 0.5t-11.5 3.5q-5 6 -5.5 13t-0.5 14v10zM83 134q0 -6 2.5 -10t6 -6t8 -2.5t9.5 -0.5t9 5v4v3q0 7 -1.5 11t-4 6t-7.5 2.5t-12 0.5q-5 0 -7.5 -4
t-2.5 -9zM148 49v-1q0 -2 0.5 -5t0.5 -5v-2h14q0 6 -2.5 10.5t-9.5 4.5q-3 0 -3 -2z" />
</svg>
