<?xml version="1.0" standalone="no"?>
<!DOCTYPE svg PUBLIC "-//W3C//DTD SVG 1.1//EN" "http://www.w3.org/Graphics/SVG/1.1/DTD/svg11.dtd" >
<svg xmlns="http://www.w3.org/2000/svg" xmlns:xlink="http://www.w3.org/1999/xlink" version="1.1" viewBox="-10 0 266 256">
   <path fill="currentColor"
d="M69 242q12 6 25.5 7.5t26.5 1.5h2q2 -1 7.5 -1t11.5 -1t11.5 -1.5t7.5 -0.5l1.5 -0.5l1.5 -0.5q1 0 4 -1t6.5 -1.5t6.5 -1.5t4 -2l1.5 -1.5l4 -4l5 -5t3.5 -4.5q1 0 2 -3.5t3 -4.5q1 -10 2 -18t1 -16v-16v-18q0 -28 -1 -55t-6 -54v-4t0.5 -1.5t0 -1t-1.5 -3.5
q-2 -4 -8 -6t-13.5 -3t-14.5 -1h-10q-13 0 -26.5 2t-25.5 3t-21.5 2.5t-16 5t-10 11.5t-3.5 23v104q1 9 2 19t2 19.5t4.5 18t10.5 14.5zM59 125v-3v-4v-4v-2q0 -3 0.5 -11t1 -17t1 -17t0.5 -12q1 0 1.5 -1.5l0.5 -1.5q2 -7 7.5 -11.5t12 -6.5t14 -3t14.5 -1l1.5 0.5t2.5 1.5
q1 0 2.5 0.5l1.5 0.5v34l-2 2l-13 -2q-2 0 -5 -2.5t-3 -3.5v-19l-3 -4q-4 3 -4.5 6.5t-0.5 7.5q0 11 2.5 16t6 6.5t7.5 1.5h7t5.5 1.5t2.5 7.5q0 8 -7 11q-5 2 -11 3.5t-12 3.5t-12 4.5t-11 6.5v2v1q0 2 0.5 3t2.5 1q3 0 6.5 -1.5t6.5 -3t5.5 -4t5.5 -3.5l7.5 -2.5l9 -3
t9.5 -2t8 -0.5q9 0 20.5 3t20.5 7q2 1 3.5 2l3 2l3 2t4.5 1q2 0 3.5 -2t1.5 -4q0 -5 -4.5 -7.5t-11 -4t-14 -2.5t-14.5 -2.5t-11 -4t-4 -6.5v-4t2 -4q8 0 12.5 -1t7.5 -3.5t4.5 -7.5t3.5 -13q2 -4 2 -5.5v-4.5q0 -7 -7 -7q-2 0 -2.5 2.5t0 5.5t0.5 8q0 4 -2 7.5t-6.5 5.5
t-12.5 2v-31q0 -2 2.5 -3t6.5 -1.5t7.5 -0.5h4.5q14 0 22 0.5t12 3.5t5 10.5t2 22.5q0 13 1.5 25t1.5 25v2q0 2 -0.5 8t-0.5 13.5t-0.5 13.5t-0.5 8q0 12 0.5 23.5t-1.5 21t-8 17t-20 12.5q-5 1 -10 1.5t-10 0.5t-10.5 0.5t-10.5 1.5l-43 -4q-5 -1 -9 -8.5t-6.5 -18.5
t-4 -24t-2 -25t-0.5 -21.5v-13.5zM100 190q2 0 6 3t9.5 7t10.5 9.5t10 9.5t9 7t6 3q3 0 4 -0.5t1 -4.5q0 -3 -1 -3.5t-5 -3.5q-1 -1 -3 -2t-4 -2.5t-3.5 -2.5t-2.5 -1v-2v-1q0 -3 1.5 -6t3.5 -5.5t4.5 -5l4.5 -4.5h1.5h0.5h0.5h0.5q1 0 3.5 1.5t3.5 1.5l3.5 3.5t6 5.5t6 5
t3.5 3v0h1q2 0 3.5 -1t1.5 -3q0 -3 -4.5 -8t-10.5 -9.5t-12 -8.5t-9 -4q-2 0 -5 3.5t-5.5 7.5t-5 8.5t-3.5 6.5h-2h-2q-3 0 -4 -0.5t-3 -2.5l-3.5 -3.5t-5 -4.5t-5 -4.5l-2.5 -2.5q-1 -1 -3 -1.5l-2 -0.5h-1q-1 0 -5 6t-8 13.5t-7 13.5t-3 7q7 0 10 -4t5 -9.5t3.5 -9.5
t6.5 -4zM137 117q-3 0 -10 0.5t-15 1.5t-13.5 4t-5.5 8v24q0 2 2.5 3t6 2t6.5 1.5t5 0.5h12t16.5 -1.5t14.5 -5t6 -11.5v-10t-1 -11q-3 -2 -6 -3.5t-5 -1.5h-3t-4 -0.5t-3 -0.5h-3zM100 142q0 -6 4.5 -9.5t11 -4.5t12.5 -0.5t10 0.5h3h4t4 1t2 2t0.5 3t0.5 3q0 6 -4 9.5
t-9.5 5t-12.5 1.5h-10h-9q-5 -2 -6 -4.5t-1 -6.5z" />
</svg>
