<?xml version="1.0" standalone="no"?>
<!DOCTYPE svg PUBLIC "-//W3C//DTD SVG 1.1//EN" "http://www.w3.org/Graphics/SVG/1.1/DTD/svg11.dtd" >
<svg xmlns="http://www.w3.org/2000/svg" xmlns:xlink="http://www.w3.org/1999/xlink" version="1.1" viewBox="-10 0 266 256">
   <path fill="currentColor"
d="M49 130v7t0.5 9.5t0.5 8.5v4v2t0.5 4.5t0.5 4.5v3q1 17 2 28.5t3.5 19.5t7.5 12.5t13.5 7t20.5 3.5t30 1h11q2 0 7 -0.5t11.5 -1t12 -1t8.5 -0.5q5 -1 8.5 -3t6 -5t4 -7t3.5 -9q0 -4 1 -13t2 -19.5t2 -19.5t1 -12v-4.5v-5.5t0.5 -6t1.5 -5q1 -10 1 -17.5t0.5 -15
t0.5 -14.5v-17v-29q-4 -9 -9.5 -13t-12.5 -5t-15 -1h-16q-1 0 -6 -0.5t-11 -0.5t-11 -0.5t-6 -0.5h-16q-16 0 -26.5 2t-16.5 6t-9 10t-4 15t-1 21v26v5q0 3 -0.5 8t-0.5 10v8zM59 165v-20v-26q0 -13 0.5 -26.5t1.5 -26t3 -24.5q4 -6 10 -9t13 -4q7 0 13 -0.5t11 -1
t10.5 -0.5h12.5h7t8 2l40 5l3 3l5 5t2.5 5.5t0.5 7v7v5.5v5v4.5v4.5v2q0 1 -0.5 4.5t-0.5 7.5t-0.5 7.5t-0.5 4.5v4v8v7v4q0 3 -0.5 10.5t-1 16t-1.5 17.5t-2 16.5t-2.5 12.5t-3.5 5q-1 0 -3 -2l-5 -5t-6 -5.5t-5 -3.5q-4 -1 -6 -2.5t-4 -2.5t-4 -2.5t-5 -3.5h-1
q-3 0 -7 2.5t-7.5 5.5t-6.5 7t-5 6h-1q-2 0 -4.5 -4t-4 -8.5t-4 -8t-5.5 -3.5t-6.5 2t-6 4.5l-5.5 5.5l-5 5l-2.5 2.5t-3 3.5t-3.5 3.5l-2 1.5v2q0 2 1 2.5t3 0.5h2q5 -5 11 -10t12 -9l1 -0.5t2 -0.5q0 -1 1 -1v1q1 0 1.5 0.5l0.5 0.5q3 4 5 7.5t3.5 7t3.5 6t6 5.5
q1 1 3.5 2.5t5 3.5t4.5 4t3 4q-1 0 -3 0.5t-4.5 0.5t-4.5 0.5t-3 0.5h-1h-2q-3 -1 -8 -1t-10.5 -0.5t-9.5 -1.5t-5 -1q-9 -1 -14 -5t-7.5 -10t-3.5 -13.5t-1 -14.5v-3v-5v-6v-3q0 -1 -0.5 -3t-1.5 -2zM129 211q0 -3 2 -6t4.5 -6t5.5 -5t5 -2q4 0 10 3.5t13 8t12 9.5t5 8
q0 4 -4.5 6.5t-10 4t-11 2t-7.5 0.5t-4.5 -2.5t-5 -6t-5.5 -6.5l-5 -5q-1 0 -2 -0.5l-1 -0.5l-0.5 -0.5t-0.5 -1.5zM91 154q0 8 5.5 11t13 4.5t15.5 1t12 -0.5q5 0 10 -0.5t8.5 -2t5.5 -5t2 -9.5q0 -4 -1 -8.5t-5 -6.5q-8 -2 -15 -2h-16h-11.5t-11.5 1.5t-8.5 5.5t-3.5 11z
M104 159q-5 -4 -5 -9q0 -2 0.5 -4t2.5 -2h47q3 0 4.5 3t1.5 5q0 3 -3 5.5t-5 2.5h-13h-15t-15 -1zM128 122q6 0 13 2t14 4.5t13.5 6t12.5 6.5h0.5h1.5q2 0 3 -1.5t1 -3.5q0 -4 -4 -6.5t-10 -5t-13 -4t-13 -3.5t-10 -4t-4 -4v-2t1 -1q5 0 12.5 0.5t14.5 -0.5t12 -4.5t5 -11.5
q0 -2 -0.5 -4.5t-3.5 -2.5h-0.5h-0.5l-3 6l-2 4t-3.5 2.5t-6.5 0.5h-5h-7h-7.5h-5.5v-3v-3v-4t1 -3q4 -3 8.5 -3.5t8.5 -0.5h9.5t8 -2t5.5 -6.5t2 -12.5q0 -6 -3 -9.5t-8 -5.5t-11 -2.5t-12.5 -1t-12 0t-8.5 0.5h-5h-6.5h-6.5h-4q-1 1 -3.5 1.5t-4.5 2t-3.5 3t-1.5 3.5
q0 1 0.5 2l0.5 1v3.5t0.5 5.5t0.5 5v3t1.5 2.5t2.5 3.5t2 3.5t2 1.5h24q2 0 3 1t1.5 2.5t0.5 3.5v3v1.5v2.5l-3 1h-28q-4 0 -5 -3t-1.5 -6.5t-2 -7t-8.5 -3.5q0 15 6 26q4 2 9 3t10 1h9.5h8.5q3 1 5 3q-2 3 -7 5.5t-11.5 4t-13.5 2.5t-13.5 2.5t-10 4t-3.5 6.5v0
q0 1 0.5 1.5l0.5 0.5h3h3q6 0 13 -2t14 -5t14 -5t14 -2zM117 52q0 -4 3 -4h5q4 0 7 2.5t5 5.5t3 7t2 7q0 2 -2 3t-4 1h-4h-3q-4 0 -6.5 -2.5t-3.5 -5.5t-1.5 -7t-0.5 -7zM94 55q0 -3 2 -4t5 -1t5.5 2t3.5 5t1.5 6.5t0.5 6.5q0 2 -1.5 2h-2.5q-5 0 -7.5 -1t-4 -3t-2 -5
t-0.5 -8zM142 53v-1q0 -2 2.5 -2h4.5h5t6 0.5t4.5 2t1.5 4.5q0 6 -2 10.5t-10 4.5v0v0q-1 0 -2 -1.5l-1 -1.5q-1 -1 -2.5 -3t-2.5 -5t-2 -5t-2 -3z" />
</svg>
