<?xml version="1.0" standalone="no"?>
<!DOCTYPE svg PUBLIC "-//W3C//DTD SVG 1.1//EN" "http://www.w3.org/Graphics/SVG/1.1/DTD/svg11.dtd" >
<svg xmlns="http://www.w3.org/2000/svg" xmlns:xlink="http://www.w3.org/1999/xlink" version="1.1" viewBox="-10 0 266 256">
   <path fill="currentColor"
d="M159 245q1 1 2 1h2q6 0 6 -8q0 -27 -1 -53.5t-1 -54.5v-1v-2.5t0.5 -5.5t0.5 -5v-3l1 -0.5t2 -0.5q7 0 11 7.5t5 18.5t1 24v24t1.5 18t5.5 7q2 0 2.5 -2t1 -4.5t0.5 -5v-4.5q0 -19 -1.5 -40t-7.5 -39q-1 -4 -5 -7t-8 -5l-7 -3.5t-3 -2.5v-14l3 -1t6 -2.5l6 -3t3 -3.5v-23
q0 -2 2.5 -3t6 -1.5t6.5 -0.5h4q2 -1 2.5 -2t0.5 -3q0 -3 -3 -5t-6 -2q-5 0 -9.5 1.5t-10.5 2.5q-14 1 -29 2t-30 3q-1 0 -3.5 0.5l-2.5 0.5v1v2v1v2t0.5 2t1.5 1h22v3.5t0.5 5.5t1 5.5t1.5 3.5q1 4 3.5 5.5t5.5 2.5t5.5 2.5t3.5 4.5v3.5v3.5l0.5 2t0.5 3q0 3 -2.5 4.5
t-5.5 2.5t-5.5 2t-4.5 4q-4 7 -6 14.5t-2.5 15.5t-1 15.5t-0.5 16.5l-2 16t-1 16v6q0 1 1 1.5t2 0.5v0q3 0 4.5 -2.5t2.5 -4.5v-29.5t2 -28.5q0 -4 0.5 -10t1.5 -11.5t3.5 -10t6.5 -4.5h2.5t1.5 1q1 21 2.5 40.5t0.5 41.5l2 3q-1 5 -1.5 9t-0.5 8v8v8v3v4v4v3zM50 151v9
l1.5 0.5l1.5 0.5h3.5h4.5q6 0 12.5 -0.5t13 -1.5t13 -2.5t11.5 -2.5q4 0 5.5 -1.5t1.5 -4.5q0 -2 -0.5 -2.5t-2.5 -1.5h-3t-4 0.5t-3.5 0.5h-2.5t-3 -0.5t-4 -0.5q-1 0 -3 0.5t-3 -1.5q0 -1 -0.5 -3.5t-0.5 -5.5v-5.5v-4.5v-2t0.5 -4t0.5 -4.5v-2.5v-1v-3v-2v-2q1 -4 5 -4.5
t9 -0.5t9 -1t4 -5t-3 -6t-6 -2l-2 1t-3 1h-2h-3h-3h-3q-1 -1 -1.5 -3.5t-0.5 -3.5v-1v-2q0 -3 0.5 -11.5t0.5 -18t0.5 -17.5t0.5 -11q-1 -4 -3 -5t-5 -1q-2 0 -3 0.5t-1 3.5v72l-0.5 0.5t-1.5 0.5q0 1 -2.5 1.5t-3.5 0.5t-3.5 0.5t-5.5 0.5t-5.5 0.5t-3.5 0.5l-0.5 1t-0.5 2
v1q0 4 3 5t5 1q4 0 7.5 -1t6.5 -1h3q1 0 2 2q0 9 0.5 17t0.5 17q0 7 -2.5 10t-7 4t-9.5 0.5t-11 -0.5zM149 71q-3 -2 -3.5 -4.5t-0.5 -5.5q0 -2 0.5 -4.5t1.5 -3.5q5 -1 11.5 -2.5t12.5 -1.5h3q0 1 1 3.5t1 3.5q0 8 -3 12.5t-9 4.5q-5 0 -8 -0.5t-7 -1.5z" />
</svg>
