<?xml version="1.0" standalone="no"?>
<!DOCTYPE svg PUBLIC "-//W3C//DTD SVG 1.1//EN" "http://www.w3.org/Graphics/SVG/1.1/DTD/svg11.dtd" >
<svg xmlns="http://www.w3.org/2000/svg" xmlns:xlink="http://www.w3.org/1999/xlink" version="1.1" viewBox="-10 0 266 256">
   <path fill="currentColor"
d="M139 249q0 1 1.5 1.5t2.5 0.5q3 0 8.5 -3.5t11.5 -9t12 -12.5t11 -14t8 -13t3 -9v-23l-1.5 -2.5t-1.5 -3.5q-5 -6 -10 -9t-9.5 -6t-7 -7.5t-2.5 -13.5v-8q0 -1 1 -1.5t2 -0.5t2.5 -0.5t3.5 -0.5t4 -0.5t3 -0.5h5h8h9h5l6 -3q-1 -6 -6 -8h-3h-4.5h-4.5h-2q-21 0 -42 0.5
t-42 3.5l-1.5 3t-0.5 2q0 4 2.5 5t5.5 1q7 0 14 -1t14 -1h4h4l1 2v27q0 3 2.5 5t6 4t8 4t8 4.5t6 6.5t2.5 11q0 5 -1.5 9.5t-3.5 9t-4.5 8.5t-5.5 9q-1 0 -6.5 4.5t-11 10.5t-10 11.5t-4.5 7.5zM41 172q0 1 0.5 4t2.5 3q1 0 4.5 0.5t4.5 0.5q3 0 9.5 -0.5t14 -1t15.5 -1
t14.5 -2t10.5 -3t4 -3.5q0 -3 -1.5 -4.5t-3.5 -2.5t-4 -1.5t-4 -0.5l-3 0.5l-3 0.5h-3h-4h-4h-3q0 -18 -0.5 -34.5t-0.5 -33.5q0 -2 5 -3.5t12 -2.5t15 -2.5t15 -4t12 -6t6 -9.5q0 -2 0.5 -5.5t0.5 -8v-8v-5.5q1 -3 3.5 -3.5t4.5 -0.5h1h2q2 0 3 0.5t1 1.5v8v10t0.5 10
t0.5 8q1 5 5 7.5t9 3.5t10 1.5t8 0.5q4 0 5.5 -1t1.5 -5q0 -3 -2 -4.5t-5.5 -2.5t-8 -1.5t-7.5 -1.5t-5.5 -3t-2.5 -6l2 -24l2 -1h14q1 0 3 -0.5l4 -1t4 -1.5t2 -3l-0.5 -1.5t-1.5 -1.5q0 -1 -0.5 -1.5l-0.5 -0.5h-92q0 1 0.5 3t1 3.5t2 3t3.5 1.5h22q3 0 3 1v3
q0 13 -1.5 19t-6 9t-10.5 5t-14 7l-0.5 1t-1.5 1l-20 -2l-2 -2v-1v-4v-4v-3q0 -11 1 -20.5t1 -20.5q0 -1 -0.5 -3t-1 -3.5t-1.5 -3t-3 -1.5t-4.5 2.5t-2.5 4.5v56q0 1 -1 2.5t-3 2.5h-20q-3 0 -6 1t-3 4t2 5.5t5 2.5q5 0 10 -1.5t10 -1.5q2 0 4 1t2 3v71h-32q-2 0 -3.5 2.5
t-1.5 3.5z" />
</svg>
