<?xml version="1.0" standalone="no"?>
<!DOCTYPE svg PUBLIC "-//W3C//DTD SVG 1.1//EN" "http://www.w3.org/Graphics/SVG/1.1/DTD/svg11.dtd" >
<svg xmlns="http://www.w3.org/2000/svg" xmlns:xlink="http://www.w3.org/1999/xlink" version="1.1" viewBox="-10 0 266 256">
   <path fill="currentColor"
d="M150 242q1 0 5.5 0.5t9 0.5t8.5 0.5t6 0.5h1q7 0 12.5 -5t8.5 -12q0 -2 0.5 -5.5t1 -7.5l1 -8t1.5 -5q0 -1 0.5 -2.5l0.5 -1.5v-1q0 -6 -1 -11t-1 -12q0 -9 0.5 -16t1.5 -16q-1 -3 -3.5 -5t-5.5 -2v4v5.5v6.5v4q-1 4 -3.5 5.5t-6 2t-7 0t-6.5 -0.5v-8.5v-12.5v-13v-9v-7
t0.5 -11.5t0.5 -11.5t1 -8l0.5 -0.5l0.5 -0.5q8 -2 16.5 -2.5t15.5 0.5q2 0 2 -2v-4q0 -3 -1 -4t-4 -1q-6 0 -12 1t-12 1q-1 0 -3 -0.5l-2 -0.5l-1 -3q0 -12 -0.5 -24.5t-1.5 -24.5h-2h-1q-4 0 -5.5 2.5t-1.5 6.5q0 11 1 22t1 23v4v6v5v2l-2 4v7v10v10v7v10t-0.5 11.5
t-0.5 9.5v4l-2 2h-16q-1 0 -1.5 -2t-1.5 -5t-3 -5.5t-7 -2.5v11v16v17v11q0 6 1 12t2.5 12t5 10.5t9.5 6.5zM142 196v-14v-2.5t0.5 -3t0.5 -2.5v-2q1 0 3 -0.5t4 -0.5q11 -2 23 -2h22q0 13 -1 26l-2 26q-3 4 -6 6t-7 3t-8 1h-8q-8 0 -12.5 -2t-6.5 -6.5t-2 -11v-15.5z
M45 205q0 1 0.5 2t1.5 1h10h9q2 0 7 -0.5t11 -1t11.5 -1t7.5 -0.5q5 -1 7 -2.5t2 -7.5h-24q0 -3 -0.5 -9t-0.5 -13v-14v-9q0 -2 0.5 -7.5t0.5 -12t0.5 -12t0.5 -7.5q2 -5 6 -5.5l8 -1t7 -1.5t3 -5q0 -3 -1 -3.5t-3 -0.5q-5 0 -9.5 0.5t-8.5 0.5q0 -13 0.5 -25.5t0.5 -25.5
v-6t-0.5 -8t-2 -7t-4.5 -3q-1 0 -2.5 0.5t-1.5 2.5v56q0 1 -0.5 3.5t-1 5.5t-1 5.5t-1.5 3.5q0 1 -0.5 2l-0.5 1h-23q-2 0 -2.5 1.5t-0.5 3.5t1.5 4t3.5 2q1 0 2.5 -0.5t3.5 -1t4 -0.5h3h2h3t3.5 -0.5t2.5 2.5q0 1 -0.5 4t-0.5 7t-0.5 7t-0.5 4v6v9v10v5v8v9.5t-0.5 9
t-2.5 7.5l-0.5 1.5t-1.5 1.5h-25q-1 0 -1.5 2t-0.5 3z" />
</svg>
