<?xml version="1.0" standalone="no"?>
<!DOCTYPE svg PUBLIC "-//W3C//DTD SVG 1.1//EN" "http://www.w3.org/Graphics/SVG/1.1/DTD/svg11.dtd" >
<svg xmlns="http://www.w3.org/2000/svg" xmlns:xlink="http://www.w3.org/1999/xlink" version="1.1" viewBox="-10 0 266 256">
   <path fill="currentColor"
d="M161 188q2 0 3 1.5t1.5 3t0.5 4.5v4t1.5 6.5t4 10.5l5 12t5.5 10.5l5 7.5t4 2q3 -1 4 -2.5t1 -4.5q0 -6 -3.5 -12t-8 -13t-8.5 -15t-4 -18q0 -3 1.5 -5t4 -3.5t5.5 -2t5 -1.5q1 0 3.5 -1l5 -2l5 -2t3.5 -1l2 -2l1 -1l1 -1q0 -3 -2 -4t-4 -1q-4 0 -7.5 2t-6.5 3.5l-7 3.5
t-7 2h-1v0l-1.5 -1.5l-0.5 -0.5q0 -5 2 -9t4.5 -8t4.5 -8.5t2 -9.5t-2 -9.5t-5.5 -7.5t-8 -5t-8.5 -2h-3t-2 1q3 4 6 6t6 4.5t5 5.5t2 8q0 3 -1.5 9t-3.5 12t-4 11.5t-3 7.5q-2 3 -5.5 6.5t-8 6.5t-8.5 5.5t-7 4.5q-9 8 -16.5 16t-16.5 17l-0.5 1.5l-0.5 1.5q0 2 2 4.5
t3 2.5q3 0 4.5 -1.5t2.5 -3t2.5 -3.5t2.5 -3t3 -3.5l4 -5t3.5 -4.5t2.5 -2q0 -1 3.5 -4t7.5 -7t8 -7l4 -3q2 -2 3.5 -3t4.5 -1zM147 98q0 10 -3 21t-8 20q-2 3 -5 7t-6.5 8t-6 8t-2.5 7q8 0 14.5 -6t11 -15t7.5 -18.5t4 -16.5q1 -2 1 -5v-7t1 -7.5t3 -5.5t4.5 -3t6 -2.5
t6.5 -2.5t5 -2h2q3 0 4.5 5.5t2 12.5t1.5 13t5 6t5.5 -2.5t1.5 -6.5q0 -5 -2.5 -9.5t-3.5 -8.5q-2 -6 -2 -10.5v-11.5v-16q1 -5 3 -9.5t2 -9.5q0 -4 -1.5 -4.5t-4.5 -0.5q-1 0 -2 1t-1.5 3t-1 3.5t-0.5 2.5q0 2 -0.5 6.5t-1 9.5l-1 10t-0.5 6q-1 3 -4 5t-6 2.5t-6.5 1
t-5.5 0.5h-3h-2q0 -1 -0.5 -4t-1.5 -5q0 -2 -0.5 -8.5t-1 -13.5t-1 -13t-0.5 -9q-1 -5 -3.5 -6.5t-7.5 -1.5h-3t-2 3v0v0q1 1 2.5 3l1.5 2q4 12 6.5 25.5t2.5 25.5v4t-2 4q0 1 -2 1.5t-4.5 1t-4.5 1.5t-3 1t-4.5 0.5t-7 1.5t-6 2.5t-2.5 3.5q0 3 2 3.5t3 0.5q3 0 6 -1
t6 -2.5t5.5 -2.5t5.5 -1q4 0 4.5 1t0.5 4zM48 149q-1 2 1 3t4 1.5t4 0.5h3h4h3l2.5 -1t5.5 -2t5.5 -1.5t3.5 -0.5h3h4h4h3q1 0 3 -0.5t4.5 -0.5t4.5 -0.5l2 -0.5q1 0 1.5 -0.5l0.5 -0.5q0 -1 -0.5 -3t-1.5 -2h-23v-50q0 -2 3.5 -3t7.5 -1.5t7.5 -2t3.5 -4.5q0 -2 -1 -2.5
t-3 -0.5q-4 0 -7.5 0.5t-7.5 0.5h-2q-1 -3 -1 -4.5v-4.5q0 -13 0.5 -25t0.5 -25q0 -3 -1.5 -5.5t-5.5 -2.5h-2t-2 2v64q0 2 -2.5 2.5t-5.5 0.5h-7t-7.5 0.5t-6 2t-2.5 5.5h30q1 0 1.5 1t1 3t0.5 4v2v2q0 1 -0.5 4.5t-0.5 8t-0.5 8.5t-0.5 5v3.5v5.5t-0.5 5t-2.5 2l-25 4
q-1 0 -2 1t-1 2z" />
</svg>
