<?xml version="1.0" standalone="no"?>
<!DOCTYPE svg PUBLIC "-//W3C//DTD SVG 1.1//EN" "http://www.w3.org/Graphics/SVG/1.1/DTD/svg11.dtd" >
<svg xmlns="http://www.w3.org/2000/svg" xmlns:xlink="http://www.w3.org/1999/xlink" version="1.1" viewBox="-10 0 266 256">
   <path fill="currentColor"
d="M163 194v7v1.5t0.5 3.5l1 4t1.5 3q0 1 2 4.5t5 7.5t6.5 9t6.5 8.5t5 6t3 2.5q3 0 4 -2t1 -5q0 -7 -4 -13t-9.5 -12t-9.5 -13t-4 -15q0 -4 2 -8t5 -7.5t7 -6t7 -3.5q1 -1 1.5 -2.5t1.5 -3.5l2 -4l1 -2v-1v-1q0 -7 -3 -11t-7 -7.5t-7.5 -7t-3.5 -9.5v-1v-3t0.5 -4l1 -4
t1.5 -3q2 0 4 -1l5 -2.5t4.5 -3.5t1.5 -4v-5t-1 -6t-2.5 -5t-3.5 -2h-2t-2 2q3 6 0.5 10.5t-7.5 7.5t-10.5 4.5t-9.5 3.5q-3 1 -7 3t-7.5 3.5t-7.5 3.5t-7 3l-1.5 1.5t-0.5 1.5q0 3 3 3h1l2 -0.5t4.5 -1.5t4.5 -1.5l2 -0.5h1h1h3.5t1.5 2q0 5 -1 10.5t-2.5 11.5t-4 11.5
t-5.5 9.5q-2 3 -7.5 7.5l-11 9t-10 8.5t-4.5 5q0 4 3 4q2 0 5 -1.5t5.5 -3.5l5 -4t4.5 -3q8 -9 14 -16.5t9 -15.5t4.5 -17t2.5 -21q4 -5 8 -5h2.5t1.5 2v18q0 2 2 4.5t5 4.5l6 4t4 4v5q0 5 -1.5 8t-4.5 5t-6 4.5t-6 6t-4.5 8t-1.5 12.5zM55 147q0 1 1.5 2t2.5 2
q3 -1 10 -1.5t14.5 -1t14.5 -1.5t10 -1h15q2 -1 2.5 -2.5t0.5 -2.5v-1.5v-0.5q-3 -1 -5 -1.5t-5 -0.5t-7 1t-8 1q-1 0 -2.5 -0.5t-1.5 -2.5v-23l0.5 -1.5t1.5 -1.5q0 -1 0.5 -1.5l0.5 -0.5h12q2 0 2.5 -1t1 -2.5t0.5 -3v-1.5h-18v-22q0 -2 -2.5 -3.5t-3.5 -1.5q-3 0 -4 2
t-1 4v19q-1 1 -1.5 2t-2.5 2h-3t-5 0.5t-5 1t-3 0.5t-4 1t-3 3t2 2.5t4 0.5q4 0 8.5 -0.5t9.5 -0.5h2.5t1.5 3v5t-0.5 8.5t-1 8.5t-1.5 5q-7 1 -14.5 1.5t-14.5 1.5l-0.5 1.5l-0.5 1.5v1zM185 46q-3 0 -4 1.5t-0.5 4t0 4.5t-2.5 4q-1 0 -2.5 1t-3.5 2t-4 1.5t-2 1.5
q-1 0 -3.5 1.5t-5.5 3.5t-6 3.5t-4 1.5q-2 2 -5.5 3t-6.5 2.5t-5.5 3.5t-2.5 6q6 0 11 -2l10 -4t9.5 -5t9.5 -5q2 -1 7 -2.5t9.5 -3.5t7.5 -5t2 -8q0 -3 -2.5 -6.5t-5.5 -3.5zM59 66q0 1 1 1.5l2 1t2.5 0.5h2.5q13 0 25.5 -1t25.5 -1q2 0 2 -1v-2q0 -3 -2 -5.5t-5 -2.5
q-1 0 -5 0.5t-10 1t-13 1t-12.5 1.5t-9.5 2.5t-4 3.5zM126 56q0 1 0.5 2t1.5 2v0q3 0 6 -1t6 -2.5t6 -2.5l6 -2q2 -1 6.5 -3.5t10 -5t10.5 -5t6 -3.5q4 -2 6.5 -4t2.5 -6q0 -5 -3.5 -9.5t-8.5 -4.5q-1 0 -2.5 0.5t-1.5 2.5q0 1 1.5 3.5l1.5 2.5v0.5v1.5t-3 4t-6.5 6
t-7.5 5.5t-6 4.5q-1 0 -6.5 2t-11 4.5t-10 4.5t-4.5 3zM64 32q0 3 0.5 4t3.5 1q13 0 26 -2t26 -3q1 0 1.5 -1t0.5 -2q0 -6 -7 -6q-6 0 -12.5 1l-13 2t-13.5 2.5t-12 2.5v1z" />
</svg>
