<?xml version="1.0" standalone="no"?>
<!DOCTYPE svg PUBLIC "-//W3C//DTD SVG 1.1//EN" "http://www.w3.org/Graphics/SVG/1.1/DTD/svg11.dtd" >
<svg xmlns="http://www.w3.org/2000/svg" xmlns:xlink="http://www.w3.org/1999/xlink" version="1.1" viewBox="-10 0 266 256">
   <path fill="currentColor"
d="M95 241q0 2 1 5t3 3h1l1.5 -0.5t1.5 -1.5l55 -41l18 -8t16.5 -9.5t12.5 -13.5t5 -19q0 -6 -3 -11t-8 -9t-10.5 -6t-11.5 -2q-2 0 -7 1.5t-11.5 4t-14 6t-13.5 6.5t-9.5 6.5t-3.5 6.5q0 2 0.5 3t3.5 1t5.5 -1.5t5 -4t5 -4.5t6.5 -2l2 0.5l2 0.5q3 8 5.5 18t2.5 19
q0 5 -4.5 9.5t-11 9t-14.5 9t-15 8.5t-11.5 8t-4.5 8zM156 147q0 -2 0.5 -3t2.5 -2q6 -2 10.5 -2.5t9.5 -0.5q4 0 7.5 1.5t6 4.5t4 6.5t1.5 7.5q0 5 -2.5 10t-7 9t-10 7t-10.5 3h-1l-1.5 -1l-1.5 -1l-8 -38v-1zM47 158q-1 0 -1.5 1l-0.5 1q0 1 -0.5 4.5t-0.5 4.5
q15 0 30.5 -1.5t30.5 -2.5q3 1 4 -0.5t1 -3.5q0 -3 -3 -5t-6.5 -2t-7 0.5t-4.5 0.5l-2 -2v-2v-3v-7q0 -4 2 -7v-43h19q2 0 2.5 -2t0.5 -3v-3t-1 -2h-20q-2 0 -2.5 -1t-0.5 -3q0 -8 1 -16.5t1 -16.5v-3q0 -1 -0.5 -5t-0.5 -8t-0.5 -8t-0.5 -5q-1 -2 -2.5 -3t-2.5 -1t-3 0.5
t-2 1.5v68l-1 2q-2 0 -4.5 -0.5t-6.5 -0.5q-3 0 -6 0.5t-4 0.5q-3 0 -5 1t-2 4q0 2 0.5 3.5t2.5 1.5h26v59q0 3 -4 4.5t-9.5 2t-10.5 0t-6 -0.5zM110 119q0 3 2 4t4 1t8.5 -2.5t15.5 -6.5t19 -8.5t18.5 -9t14.5 -8t8 -5.5q5 -5 8 -12.5t3 -15.5q0 -5 -1.5 -10t-4 -10
t-6.5 -8.5t-9 -5.5q-1 0 -4.5 -0.5t-5.5 -0.5q-4 0 -10.5 2t-14 5.5t-15.5 8t-14.5 9t-10.5 9t-4 9.5q0 2 1.5 2h2.5q5 0 9 -3t7.5 -7t7 -7t8.5 -3q3 0 3.5 0.5t1 2t0 3t0.5 2.5q0 2 0.5 6.5t1 10t1 10.5t0.5 6v1q0 3 -1 7t-4 6q-1 0 -3.5 1t-5.5 2t-5.5 2t-3.5 1q-1 1 -5 2
t-8 2.5t-6.5 3.5t-2.5 4zM161 50v-9q1 -3 5 -6q1 0 3 -0.5t4.5 -1t4.5 -1t2 -1.5h2q4 0 7.5 2.5t5.5 6t3.5 7.5t1.5 7q0 6 -3 12.5t-8 11.5t-10.5 8t-11.5 3h-1h-2q0 -2 -0.5 -6t-1 -9t-1 -9t-0.5 -6v-9z" />
</svg>
