<?xml version="1.0" standalone="no"?>
<!DOCTYPE svg PUBLIC "-//W3C//DTD SVG 1.1//EN" "http://www.w3.org/Graphics/SVG/1.1/DTD/svg11.dtd" >
<svg xmlns="http://www.w3.org/2000/svg" xmlns:xlink="http://www.w3.org/1999/xlink" version="1.1" viewBox="-10 0 266 256">
   <path fill="currentColor"
d="M50 243q0 4 1 4.5t5 0.5q13 0 25.5 -2t24.5 -3q25 -1 49 -1.5t49 -0.5q3 -1 3 -5q0 -3 -3.5 -5t-6.5 -2l-1.5 0.5t-3.5 0.5t-3.5 0.5l-1.5 0.5h-9h-14.5t-14 -0.5t-9.5 -0.5v-32l4 -3h37q2 0 2.5 -2.5t0.5 -3.5v-3t-2 -1q-1 0 -5 -0.5t-6 -0.5q-5 0 -9 1t-9 1h-2.5
t-4.5 -0.5l-4 -1t-2 -1.5v-27q0 -2 -1.5 -3.5t-3.5 -1.5t-4 3t-2 5v2q0 1 0.5 3.5t0.5 5t0.5 5t0.5 3.5v1q0 6 -5 9q-11 -1 -23 0t-22 2q-2 0 -2 1.5v2.5q0 3 2.5 4.5t6.5 1.5q7 0 13.5 -1t13.5 -1h12q3 1 3.5 4t0.5 4v2.5v3.5v4.5v3.5v2.5v3.5v2v1l-4 4l-76 5q-1 0 -1 2v3z
M152 139q0 4 1.5 7t6.5 3h37q3 0 5 -3.5t2 -5.5q0 -4 -3 -11t-7 -14.5t-8.5 -13t-7.5 -5.5t-7.5 5.5t-9 12.5t-7 14t-2.5 11zM74 143q4 2 7.5 3t6.5 1.5t6.5 0.5h7.5h3h3h4h2q2 0 4 -1l4 -2t3 -2t1 -3v-1.5v-0.5q-4 -9 -9.5 -20.5t-11.5 -19.5q-2 -2 -3.5 -2h-2.5q-4 0 -7 3
t-5.5 6.5t-4 8t-3.5 7.5q0 1 -1.5 3.5l-3 5t-2.5 5t-1 3.5v1v0.5v0.5l1.5 1t1.5 2zM161 136q0 -3 1.5 -7t3.5 -7.5t4.5 -6.5t5.5 -3q2 0 4.5 3.5t5 7.5t4 7.5t1.5 5.5t-0.5 3t-1.5 2q-6 1 -9.5 1.5t-9.5 0.5h-5q-3 -1 -3.5 -3t-0.5 -4zM84 135v-1q0 -1 2 -4t4 -6.5t4 -6.5
t3 -4q0 -1 0.5 -1.5t1.5 -0.5v0h1q5 5 8 11t5 12v2v1v2.5t-2 1.5h-4.5h-4.5h-3q-4 0 -7 -0.5t-5.5 -1.5t-2.5 -4zM103 70q0 3 3.5 5t8.5 3t9.5 1h6.5q8 0 14.5 -0.5t15.5 -2.5q4 0 4.5 -3t0.5 -5q0 -7 -2 -14t-5 -13.5t-7.5 -12.5t-9.5 -10h-1h-1q-3 0 -4.5 2t-3.5 4
q-3 4 -7 7t-7 7l-2.5 5t-5.5 10.5t-5 10.5t-2 6zM119 63q0 -3 2.5 -8.5t5.5 -10.5t6.5 -9t6.5 -4t5.5 4.5t5 10.5t4 11t1.5 7t-2 4.5t-4 2.5q-1 0 -4 0.5t-6 0.5t-5.5 0.5t-3.5 0.5q-12 0 -12 -10z" />
</svg>
