<?xml version="1.0" standalone="no"?>
<!DOCTYPE svg PUBLIC "-//W3C//DTD SVG 1.1//EN" "http://www.w3.org/Graphics/SVG/1.1/DTD/svg11.dtd" >
<svg xmlns="http://www.w3.org/2000/svg" xmlns:xlink="http://www.w3.org/1999/xlink" version="1.1" viewBox="-10 0 266 256">
   <path fill="currentColor"
d="M176 172q-8 14 -13.5 29.5t-11.5 30.5q-1 2 -2.5 4.5t-2.5 5l-2 5t-1 5.5q7 0 11.5 -5t7.5 -12.5t5 -15t4 -12.5q5 -11 10.5 -23t10 -24t7.5 -25t3 -26v-5v-5q-1 -2 -2.5 -3.5t-3.5 -3t-3.5 -3t-1.5 -2.5q0 -3 0.5 -8l1 -10t2 -9.5t3.5 -5.5h13q1 0 2 -0.5l1 -0.5
q0 -1 0.5 -2.5t0.5 -2.5v0q0 -1 -0.5 -2t-0.5 -2t-1 -1h-13l-92 10v0.5v1.5q0 2 1 3t4 1t6.5 -1t7.5 -1q3 0 3.5 0.5t0.5 3.5q0 5 -2 10l-4 10t-4 9.5t-2 9.5q0 9 2.5 15t6 10.5t8 7t8 4t6 3t2.5 3.5q0 5 -2 12.5t-5 16.5t-7.5 18.5t-8.5 18t-8.5 15t-7.5 9.5v2q0 3 0.5 3.5
t3.5 0.5t7 -5t8 -11.5t7 -13t5 -9.5q9 -20 13.5 -43.5t4.5 -45.5q0 -6 -1 -11t-1 -10l0.5 -0.5l0.5 -0.5l0.5 -3l0.5 -3q0 -2 0.5 -5.5t1 -7.5t1 -7.5t0.5 -5.5l7.5 -2.5t7.5 -1.5q1 0 2 0.5t2 0.5l1 2q0 9 -1 20.5t-5 20.5q-1 3 -3 6t-4 6.5t-3.5 7t-1.5 6.5q6 0 9 -3
t5 -7.5t4 -7.5t4 -3t3 3t1 5q0 3 -0.5 6.5t-1.5 6.5zM45 138v1l0.5 1.5t1.5 1.5h5q8 0 16 -2t16 -3h5t8 -0.5t7.5 -0.5h5.5l1 -2v-1q0 -3 -4 -3.5t-9 -1t-9 -0.5t-4 -2v-52l17 -4l1 -1.5t2 -1.5v-0.5v-0.5v-0.5v-0.5l-1.5 -1.5l-1.5 -1.5h-2.5t-3.5 -0.5t-4 -0.5h-2
q-1 0 -2 -1l-1 -1v-4v-5q0 -7 0.5 -14.5t0.5 -14.5q0 -4 -1.5 -6.5t-5.5 -2.5q-2 0 -4.5 2.5t-2.5 5.5q0 6 1 12t1 13v4v5v4.5v3.5l-0.5 0.5l-1.5 1.5l-3 0.5t-4 0.5t-4 0.5t-5.5 0.5t-5.5 0.5t-4 0.5v1v2q0 4 2 5t6 1h1q1 0 2 -0.5t2.5 -1l3 -1t2.5 -0.5t4 0.5t4 0.5
q0 3 0.5 9t0.5 13v13v9v2t-0.5 3.5t-1 3.5l-0.5 2q0 1 -0.5 1.5l-0.5 0.5q-7 1 -13.5 1.5t-12.5 -0.5q-1 1 -1.5 3l-0.5 2v1zM134 119v0v-1q1 0 2 -1.5t3 -2.5t3 -2.5t2 -1.5l1 -1l2 -2l2 -2l1 -1v0h1v0q1 0 1.5 0.5l0.5 0.5v24q0 1 -1 2t-2 1q-2 1 -4.5 -0.5t-5 -3.5
t-4.5 -4.5t-2 -4.5zM128 108v-6q0 -3 0.5 -6.5t1.5 -6.5t3 -6t4 -5l5 -19q1 -3 4.5 -3h5.5q1 0 1.5 1t1 2.5t0 3t-0.5 2.5q0 7 -1 13t-3.5 11t-5.5 9.5t-8 9.5q-1 2 -1.5 2h-2.5h-2t-2 -2zM122 26q0 2 0.5 3t2.5 1q15 0 31 -2t31 -3h8q3 0 3.5 -0.5t0.5 -2.5q0 -7 -6 -7
t-15.5 0.5t-19.5 1.5t-19.5 2.5t-14.5 2.5q-2 1 -2 2v2z" />
</svg>
