<?xml version="1.0" standalone="no"?>
<!DOCTYPE svg PUBLIC "-//W3C//DTD SVG 1.1//EN" "http://www.w3.org/Graphics/SVG/1.1/DTD/svg11.dtd" >
<svg xmlns="http://www.w3.org/2000/svg" xmlns:xlink="http://www.w3.org/1999/xlink" version="1.1" viewBox="-10 0 266 256">
   <path fill="currentColor"
d="M47 247q0 4 3 4q2 0 5.5 -5.5t6.5 -13.5t6 -17.5t5.5 -18.5t4 -16.5t1.5 -10.5q0 -1 0.5 -2.5t0.5 -3.5t0.5 -3.5t0.5 -2.5v-113q0 -1 3 -3.5t7 -4.5t8 -3.5t5 -1.5q2 0 5.5 -1l7 -2t6.5 -1.5l3 -0.5l74 -7l1 -0.5l1 -0.5v-1v-1q-1 -1 -3 -1.5l-4 -1l-4 -1l-2 -0.5h-13
q-9 0 -16.5 1.5t-16.5 2.5t-18.5 1.5t-18 1.5t-15.5 3.5t-12.5 7t-8.5 12.5t-3 20q0 13 1 26.5t1 27.5q0 22 -1 43.5t-6 42.5q0 1 -0.5 2.5t-1.5 3.5t-1.5 4t0.5 4q-1 1 -2.5 5l-3 8l-3 8t-1.5 5t-1 2.5l-1 1.5v1zM99 197q0 2 1.5 3t4 1.5t5 0.5h3.5h28t27 -1q5 0 11.5 -0.5
t12.5 -1.5t10.5 -1.5l4.5 -0.5l3 -3l-3 -3h-37q-1 0 -3 -0.5t-4 -0.5t-4 -0.5l-2 -0.5q-2 0 -2 -1.5v-2.5v-9q0 -5 1 -10t3.5 -9t7.5 -5h5.5t7 -0.5t6 -0.5h3.5q2 -1 5 -1.5t3 -3.5q0 -2 -0.5 -3t-2.5 -1h-31l-1 -0.5t-2 -1.5l-2 -2t-1 -2l-0.5 -2t-0.5 -3q0 -7 3.5 -13
t8.5 -11t11 -10t11 -8.5t8.5 -6.5t3.5 -5q0 -3 -4 -4.5t-9.5 -2t-11 0t-7.5 0.5h-13q-2 0 -7 0.5t-11 1t-11.5 1t-7.5 0.5t-5 0.5t-6.5 1.5t-5.5 2.5t-2 3.5v0v1q5 5 10 9.5t10.5 9l11 9t10.5 10.5q3 3 3.5 6.5t0.5 7.5q0 1 -0.5 4l-0.5 3q0 2 -3 3t-7 1h-7.5h-3.5h-4.5
t-6 0.5t-6.5 0.5h-4q0 1 -0.5 1.5l-0.5 0.5v1q0 2 2.5 3t5.5 1.5t5.5 1t3.5 0.5l3 -0.5t6 -0.5t5.5 -0.5t3.5 -0.5h1.5h1.5q2 0 3 0.5t2 2.5v11v10t-1 11q-1 2 -4.5 2.5t-8.5 1t-11 0t-11 0t-8 1.5t-3 3zM114 83v0v0q1 -1 2 -1.5t2 -0.5t3.5 0.5t5.5 0.5t5.5 0.5t3.5 0.5h9
h13.5h13.5h9q0 2 -2.5 4t-6 4t-6 4t-3.5 2q0 1 -1 3t-2.5 4l-3 4t-1.5 3q-2 2 -2.5 3t-2.5 1t-3.5 -1.5t-2.5 -3t-2 -3.5t-2 -3l-3 -3t-4 -3.5t-3.5 -3l-1.5 -1.5q-1 -1 -3.5 -2t-4.5 -2l-4 -2t-2 -4zM114 50v1l2 2t2 1h17h30t30 -5q1 0 1.5 -0.5t0.5 -1.5l-0.5 -1t-1.5 -2
h-21h-21q-2 0 -7 0.5t-10.5 1t-10.5 1t-7 0.5q-1 1 -2 1.5t-2 0.5v0.5v0.5z" />
</svg>
