<?xml version="1.0" standalone="no"?>
<!DOCTYPE svg PUBLIC "-//W3C//DTD SVG 1.1//EN" "http://www.w3.org/Graphics/SVG/1.1/DTD/svg11.dtd" >
<svg xmlns="http://www.w3.org/2000/svg" xmlns:xlink="http://www.w3.org/1999/xlink" version="1.1" viewBox="-10 0 266 256">
   <path fill="currentColor"
d="M162 241q1 4 2 7t6 3q3 0 3.5 -2.5t0.5 -4.5q0 -8 -3 -17.5t-4 -17.5q-4 -17 -5 -34.5t-1 -35.5q0 -11 1.5 -22.5t1.5 -23.5q0 -1 -0.5 -3.5t-2.5 -2.5h-13v-4.5t-0.5 -8.5t0.5 -8q0 -11 1.5 -22t1.5 -22q0 -3 -1.5 -6.5t-4.5 -3.5q-4 0 -4.5 3.5t-0.5 5.5v2.5v2.5
l0.5 3.5t0.5 7.5t0.5 7t0.5 4q0 27 -2.5 53.5t-6.5 51.5q-2 5 -2.5 9.5t-2.5 9.5q0 1 -1 3.5l-2 5t-2 4.5l-1 2q0 2 -1.5 5.5t-3 8.5t-2.5 9t-1 5q-5 6 -8.5 13t-3.5 15v3t3 1t6 -5t6.5 -12t6.5 -15.5t5.5 -16t4 -13.5t2.5 -7q0 -2 1 -6t2 -9t1.5 -9.5t1.5 -5.5
q1 -11 1.5 -22.5t1.5 -23.5q0 -2 1.5 -4.5t4.5 -2.5h2t2 1v6v6.5t-2 6.5v60l2 7q0 4 1 12t2.5 17.5t2.5 18t1 11.5zM171 118q1 3 1.5 7l1 8t0.5 8v7t1.5 11t4 18t5 21t5.5 20t5.5 15t5.5 6q2 0 4 -1.5t2 -3.5q0 -4 -1 -6.5t-2.5 -5.5t-3 -5.5t-2.5 -5.5q-5 -16 -8 -32
t-7 -31q-3 -14 -4 -28t-1 -27q0 -15 0.5 -29.5t2.5 -28.5q1 -3 2.5 -6.5t1.5 -6.5q0 -7 -7 -7q-3 0 -4.5 4.5t-1.5 10.5v11.5t-1 8.5v68zM48 153q0 2 0.5 3.5t1.5 1.5h5h5h5h4h7.5t12 -0.5t12 -0.5h7.5q1 -1 2.5 -2t1.5 -3q0 -1 -0.5 -2.5t-2.5 -1.5h-19l-3 -2v-1.5v-3.5v-4
v-3v-19t1 -19q1 -1 3.5 -2t5.5 -1t6 -0.5l3 -0.5v-1.5v-1.5q0 -3 -1.5 -4t-4.5 -1.5t-5.5 -0.5h-4.5v-62q0 -1 -2 -2l-2 -1h-1h-1l-2.5 2.5t-1.5 2.5v4.5v7.5v8.5v4.5q0 4 -0.5 9.5t-0.5 10.5t-0.5 8.5l-0.5 3.5l-3 3h-16q-3 0 -5.5 2t-2.5 4q0 3 1.5 5.5t4.5 2.5
q4 0 8 -1.5t9 -1.5h2t2 1v14q0 10 -1 19.5t-2 19.5h-22q-3 0 -4 2t-1 3zM189 94v1v9t0.5 10.5t0.5 9.5v4q0 2 0.5 7t1.5 9.5t2.5 7.5t4.5 3q5 0 5 -4v-2l-1 -1.5t-1 -3.5t-0.5 -3.5l-0.5 -1.5q-2 -10 -2.5 -20.5t-0.5 -21.5v-3v-5v-5.5v-3.5q1 -2 1.5 -6.5t0.5 -9t0.5 -9
t0.5 -7.5q0 -6 -5 -6q-6 0 -6 6v4v5v5v3v5t-0.5 9t-0.5 9.5v5.5v0zM119 139q0 3 0.5 5.5t2.5 4.5q4 -2 5.5 -6.5t2 -9.5t0.5 -10v-8v-7.5t0.5 -12t0.5 -12v-6.5v-14v-15q-1 -3 -5 -3h-1q0 1 -1 2t-2 1q0 3 0.5 10.5t0.5 16.5q0 8 -0.5 15.5t-0.5 10.5q0 10 -1.5 19t-1.5 19z
" />
</svg>
