<?xml version="1.0" standalone="no"?>
<!DOCTYPE svg PUBLIC "-//W3C//DTD SVG 1.1//EN" "http://www.w3.org/Graphics/SVG/1.1/DTD/svg11.dtd" >
<svg xmlns="http://www.w3.org/2000/svg" xmlns:xlink="http://www.w3.org/1999/xlink" version="1.1" viewBox="-10 0 266 256">
   <path fill="currentColor"
d="M158 245q0 2 2 3.5t3 1.5t2.5 -1.5t2.5 -1.5t1.5 -1l0.5 -1v-69l2 -2h2h3q7 0 10.5 1.5t4.5 8.5q0 1 1 5.5t1.5 9.5t1 9t1.5 6v3q0 6 -1 11.5t-1 11.5q0 3 0.5 4t3.5 1t4 -2t1.5 -4.5t0.5 -5.5v-4v-13t-0.5 -15.5t-2 -14.5t-4.5 -12t-8 -5.5t-9.5 -1t-7.5 -2.5t-3 -9
v-3.5t2 -3.5q1 0 5.5 -0.5t9 -2t8 -3.5t3.5 -5v-22q0 -3 -1 -3.5t-2 -0.5q-2 0 -3 0.5t-2 1.5q1 4 1 9t-1.5 9t-4.5 7t-9 3q-1 0 -2.5 -0.5l-1.5 -0.5l-2 -1v-37h30q2 0 2.5 -1t0.5 -3t-1 -3t-2.5 -1h-3.5h-3q-6 0 -12 1t-12 1q-3 0 -7.5 -0.5t-8.5 -1.5t-7 -3.5t-3 -7.5
q0 -4 3.5 -7t7.5 -4h13.5t14 -1.5t11 -5t4.5 -11.5q0 -6 -1 -8.5t-6 -6.5q-1 0 -4.5 -0.5t-7.5 -1l-8 -1t-5 -0.5q-1 -1 -3.5 -1.5t-3.5 -0.5q-2 -2 -2 -6t-0.5 -8t-2.5 -7t-8 -3q-1 0 -2.5 0.5t-1.5 2.5q0 4 2 7t2 8t-2.5 9.5t-6 8t-7.5 6t-7 4.5t-5.5 4t-2.5 5
q9 0 14.5 -3t9 -7t6.5 -7t7 -4h11q3 0 7.5 -0.5t8.5 0t6.5 2.5t2.5 7t-3.5 7.5t-9.5 3t-12.5 1t-12 2t-9.5 5t-4 11.5t3.5 11t8 4t8 1t4.5 3q0 8 1 14.5t1 14.5q0 3 -0.5 7t-5.5 4t-7 -2.5t-3 -6t-1 -7.5t-0.5 -7.5t-1.5 -6t-5 -2.5h-2t-1 1v5v3q0 6 1 13t5 11q1 1 4 2
t6.5 2.5t6 2.5l2.5 1v16q-12 2 -17.5 5t-7 7.5t-2 11.5t-1.5 17q0 1 -1 4.5t-1.5 8t-1.5 8t-1 4.5v2v2q0 2 0.5 4.5t3.5 2.5q4 0 5.5 -5t2 -13t1 -17t2 -16.5t5 -13t10.5 -5.5q4 0 4.5 2t0.5 5v0.5v1.5q0 3 -0.5 10.5t-0.5 16.5t-0.5 17t-0.5 11l-1.5 3t-0.5 3zM48 154v1.5
t1 1.5h3h3.5h3.5h2h7t11.5 -1l13 -2t12 -2t9.5 -2.5t4 -2.5v-1l-2 -2t-2 -1v-0.5v-0.5q-4 0 -7.5 1t-8.5 1h-3.5h-2.5l-1 -3q-1 0 -1 -4v-6q0 -9 0.5 -16.5t1.5 -16.5q2 -2 6 -2.5t8 -0.5t7 -0.5t3 -4.5q0 -2 -1 -2.5t-3 -0.5h-2q-1 0 -3 0.5t-4.5 0.5t-4.5 0.5t-3 0.5
q-3 -2 -3 -6v-1.5v-0.5q0 -2 0.5 -9.5t1 -16t1 -16t0.5 -9.5v0v-1q0 -1 -2.5 -3.5t-3.5 -2.5h-1h-1l-1 0.5t-2 0.5q-1 7 -1 15t-0.5 16t0 15.5t0.5 13.5l-2 5h-24q-1 0 -1 1v2v2t1 1h21q2 0 3.5 2t1.5 4v0q0 1 -0.5 5t-0.5 8.5t-0.5 8.5t-0.5 5v3v4v4v2q0 3 -2.5 5t-6.5 2.5
t-8 0.5h-8t-6 1t-2 4z" />
</svg>
