<?xml version="1.0" standalone="no"?>
<!DOCTYPE svg PUBLIC "-//W3C//DTD SVG 1.1//EN" "http://www.w3.org/Graphics/SVG/1.1/DTD/svg11.dtd" >
<svg xmlns="http://www.w3.org/2000/svg" xmlns:xlink="http://www.w3.org/1999/xlink" version="1.1" viewBox="-10 0 266 256">
   <path fill="currentColor"
d="M114 248l1.5 1t1.5 2h1q3 0 5.5 -2t2.5 -6v-1.5t-0.5 -2.5t-0.5 -2.5v-1.5v-5q0 -32 3 -64t5 -64q3 -5 8.5 -5.5t11.5 -0.5q2 0 9 -0.5t15 -0.5t14.5 0.5t9.5 0.5q1 -1 1.5 -2.5t0.5 -2.5q0 -4 -2.5 -6t-6.5 -2q-5 0 -10.5 1.5t-10.5 1.5h-6q-2 -1 -2 -4v-4v-6
q2 -2 6.5 -4.5t9.5 -4.5t8.5 -4t3.5 -4v-20l-1 -1l-2 -2t-4.5 -2.5t-4.5 -2.5h-5h-6h-7h-4h-4t-4.5 -0.5t-5 -1.5t-3.5 -2t-2.5 -3.5t-3.5 -5t-3.5 -4t-2.5 -1.5q-3 0 -3.5 2.5t-0.5 4.5q0 6 4 10.5t9 8.5v0.5v1.5q0 3 -1.5 5t-3.5 4t-4.5 4t-4.5 4q-1 0 -3 2t-4.5 4t-5 3.5
t-3.5 2.5l-1 3v1q0 1 1 2t2 1q5 0 11 -4t11.5 -9.5t9.5 -11t7 -8.5l1 -2q1 0 3.5 -0.5t5.5 -0.5h5h3h5.5t4.5 0.5t3 2.5t1 4q0 6 -4 8.5t-8.5 4t-8.5 3.5t-4 5v21q0 1 -1.5 1.5t-2.5 0.5h-4t-5.5 0.5t-5.5 0.5h-4q-4 3 -7 10t-4.5 16.5t-2.5 20.5t-1 20.5v17.5v12
q-1 14 -3 28t-2 28v6zM195 246q-1 3 0.5 3h2.5q8 0 8 -7q0 -6 -1 -12t-3 -12t-3.5 -12t-2.5 -11q-2 -10 -3.5 -16t-3.5 -9t-5 -4t-7.5 -1.5t-11 -1t-15.5 -2.5q-2 -2 -2 -3.5v-3.5q0 -3 0.5 -4.5t4.5 -2.5q9 -2 20 -2h20q4 -1 6 -4q1 -6 1.5 -9.5t0.5 -8.5q0 -7 -5.5 -10.5
t-11.5 -3.5h-6h-8t-10 0.5t-9.5 1t-7.5 1.5t-3 3t0.5 2.5t3.5 1.5h3t5 0.5t5 0.5h4q1 2 1 5v4v3v2q-3 5 -6.5 5t-6.5 0.5t-5 4t-2 13.5v5t1 5.5t3 4.5t5 2h27q3 0 5.5 6t4.5 14.5t3.5 15.5t1.5 10q0 1 0.5 5t0.5 8t0.5 8t0.5 5zM50 172q0 3 1 3.5t4 0.5q9 0 16.5 -2.5
t16.5 -3.5q1 0 4 -0.5t6.5 -0.5t7 -0.5t5.5 -1.5l1.5 -1.5t0.5 -1.5q0 -2 -1 -3t-3 -2q-1 0 -3.5 0.5t-5 0t-4.5 -1.5t-2 -4q0 -1 -0.5 -6t-0.5 -10.5t-0.5 -10.5t-0.5 -7v-1.5t-0.5 -3.5t-0.5 -3.5v-1.5v-1v0q0 -5 3.5 -6.5t7.5 -1.5t7.5 -1t3.5 -5l-0.5 -0.5l-0.5 -0.5
q-3 -4 -7.5 -4t-10.5 1l-3 -3l-0.5 -5.5t-0.5 -12.5t-0.5 -14.5t-0.5 -12.5q0 -2 0.5 -6t0 -8t-2 -6.5t-6.5 -2.5q-2 0 -3 2t-1 4q0 15 1.5 29.5t1.5 28.5v4v3q0 1 -0.5 2.5t-1.5 1.5h-24l-2 2q-1 1 -1.5 2l-0.5 1q0 1 0.5 3t1.5 2h29v56l-3 1q0 1 -2.5 1.5t-3.5 0.5
t-3.5 0.5t-5.5 1t-5.5 1t-3.5 0.5q-3 1 -3.5 2t-0.5 3zM170 133q0 -1 0.5 -4.5t1.5 -5.5l0.5 -1.5l0.5 -1.5h17v13q0 1 -1.5 2t-3 1h-3.5h-2h-5.5t-4.5 -3z" />
</svg>
