<?xml version="1.0" standalone="no"?>
<!DOCTYPE svg PUBLIC "-//W3C//DTD SVG 1.1//EN" "http://www.w3.org/Graphics/SVG/1.1/DTD/svg11.dtd" >
<svg xmlns="http://www.w3.org/2000/svg" xmlns:xlink="http://www.w3.org/1999/xlink" version="1.1" viewBox="-10 0 266 256">
   <path fill="currentColor"
d="M52 246q0 2 1 3.5t3 1.5t5 -2t3 -5v-32q0 -2 2.5 -3.5t4.5 -2.5l2.5 -0.5l5 -1t4.5 -1t3 -0.5q2 -2 3.5 -5.5t2 -8t0.5 -8t1 -6.5q1 -1 2.5 -2t2.5 -2l2 -2t1 -3q0 -3 -1 -4t-5 -1q-6 0 -12.5 2t-13.5 2h-3.5t-3.5 -2q-1 -4 -1.5 -6.5t-0.5 -6.5v-2t2 -2q5 0 10 -0.5
t9.5 -2t8 -4.5t4.5 -8q1 -2 0.5 -4t-0.5 -5t0.5 -5t1.5 -4l1.5 -0.5t3 -1.5t2.5 -1.5t1 -2.5v-1l-1 -1.5t-2 -1.5q-8 2 -17.5 3.5t-18.5 1.5q-3 0 -4.5 -1.5t-2 -4l-1 -5t-0.5 -4.5q0 -4 3 -4.5t6 -1.5l3 -0.5l6 -1t5.5 -1t3.5 -0.5q5 -1 6 -4t1 -7v-8t2 -7q0 -1 2 -2.5
t3.5 -2.5t3 -2.5t1.5 -3.5t-2 -2.5t-3 -0.5q-4 0 -7.5 1t-6.5 2t-6.5 2t-7.5 1h-2.5h-3.5t-3.5 -0.5l-1.5 -0.5q-1 0 -1.5 -1t-0.5 -2q1 -5 3.5 -7t6.5 -3q2 -1 6 -2t8.5 -2.5t8.5 -2.5t6 -2t3 -2t1 -3t-1.5 -3t-3.5 -1t-2.5 0.5l-0.5 0.5l-1 0.5t-3 0.5q-7 2 -13 3t-11.5 3
t-9.5 5.5t-5 11.5v33v41.5t1 40.5q1 12 2.5 22.5t1.5 22.5q0 11 -1 21.5t-1 21.5zM103 224h4t6.5 0.5t6.5 0.5h5v1v0q1 0 1 -1h5t8 -0.5t8 -0.5h5h10h16h16h10q4 1 4.5 -0.5t0.5 -4.5q0 -4 -4 -5.5t-8 -1.5h-1t-2 0.5t-2 0.5h-2h-2t-5 0.5t-6 0.5h-4h-3t-3.5 -0.5t-3.5 -0.5
h-1l-2 -1v-21l2 -2h4.5t7.5 -0.5t8 -0.5t5 -1q1 0 4 -1t3 -3q0 -3 -2.5 -4.5t-4.5 -1.5q-6 0 -11.5 1t-10.5 1q-3 0 -4.5 -3t-2.5 -7t-1.5 -8t-1.5 -7v0v-1v0q0 -1 0.5 -2t1.5 -1q0 -1 2.5 -3.5l5 -5l5 -5l2.5 -2.5q3 -3 6 -8t6 -10.5t4.5 -10.5t1.5 -9q0 -6 -3.5 -9t-8 -6
t-8 -6t-3.5 -9v-1q0 -1 0.5 -1.5l0.5 -0.5h34q2 0 2 -1v-2q0 -2 -1.5 -3.5t-3.5 -2l-4 -1t-3 -0.5h-5h-8h-8h-6t-2 -2v-3q0 -4 1 -7t2.5 -6.5t2.5 -6.5t1 -7v-2.5t-0.5 -3t-1.5 -3t-2 -1.5q-2 0 -3.5 2.5t-2.5 5.5t-1 6.5t-1 4.5q0 2 -0.5 4.5t-1 5.5t-1 5.5t-0.5 3.5
t-1.5 1.5l-1.5 0.5h-1q-3 0 -7 -1t-6 -4v-5t-0.5 -8t-0.5 -7.5t-1 -5.5q0 -4 -0.5 -4.5t-2.5 -0.5q-3 0 -4 0.5t-1 3.5v3q0 1 0.5 5t0.5 8.5t0.5 8.5t0.5 5q0 3 2.5 5.5l3.5 3.5q6 0 10.5 0.5t7.5 2.5t4.5 5.5t1.5 10.5q0 2 -3.5 6.5t-7.5 9.5t-8.5 10t-5.5 7q-1 0 -2.5 2
t-3.5 4t-3.5 4t-2.5 3q-2 3 -3 3t-1 3q0 2 1.5 3.5t3.5 1.5v0h1l1.5 -1l1.5 -1q5 -4 9.5 -9.5t9.5 -11.5t9.5 -11.5t8.5 -10.5q1 0 2 -1l1 -1h1q3 0 4.5 1.5t2.5 4t1 4.5v4q0 10 -6 17.5t-13 14.5t-13 14t-6 15h9l0.5 1t1 3t0.5 4v3v4.5v3.5h-30q-2 0 -2 2v3q0 2 1 2.5
t4 0.5q1 0 4.5 0.5t7.5 0.5q3 0 6.5 -0.5t4.5 -0.5l2.5 2.5t1.5 2.5l-2 18l-0.5 0.5t-1.5 0.5q0 1 -3.5 1.5t-4.5 0.5h-6.5h-10.5h-10h-7q-1 0 -2 2t-1 3t0.5 2t1.5 2zM64 182v-2v-3q3 -2 6.5 -3t6.5 -1t6 1.5t3 4.5l-0.5 3l-1 6t-1.5 5.5t-2 2.5h-14q-1 0 -2 -2t-1 -4v-5
v-3zM59 126q0 -4 2 -6t5 -3t6.5 -1.5t6.5 -0.5q4 0 5.5 2.5t1.5 5.5q0 5 -2 7t-4.5 3.5t-6.5 2t-7 0.5t-5 -3t-2 -7zM59 77v-14l2.5 -1t5.5 -1.5t6.5 -0.5h3.5h5q2 3 2 4.5v4.5t-2 5t-5 3t-6 1.5t-6 0.5h-2.5h-2.5z" />
</svg>
