<?xml version="1.0" standalone="no"?>
<!DOCTYPE svg PUBLIC "-//W3C//DTD SVG 1.1//EN" "http://www.w3.org/Graphics/SVG/1.1/DTD/svg11.dtd" >
<svg xmlns="http://www.w3.org/2000/svg" xmlns:xlink="http://www.w3.org/1999/xlink" version="1.1" viewBox="-10 0 266 256">
   <path fill="currentColor"
d="M155 209q0 2 1 8.5t3.5 13.5t5 12.5t5.5 5.5q2 0 5 -1.5t3 -3.5q0 -5 -2 -8.5t-4.5 -8t-4.5 -9t-2 -10.5q0 -8 4.5 -15.5t10 -14.5t11 -14.5t8.5 -15.5l1 -2t1 -3l1.5 -3t1 -1.5t1 -1.5t0.5 -3q0 -1 0.5 -3t0.5 -4v-4v-3q0 -6 -1.5 -13t-4.5 -14t-7.5 -12t-11.5 -7h-2
h-3.5h-3.5h-2q-12 0 -20 5t-13.5 13t-7.5 19t-2 22q0 2 1 6t2 9.5t3 11.5t4 11t4.5 8t4.5 3t3 -0.5t1 -2.5q0 -5 -2 -9.5t-4.5 -8t-5 -7.5t-2.5 -9v-3q0 -2 2 -2h15q3 0 3.5 3t1.5 6.5t2 6.5t4 3t3 -2v-5q0 -1 -1 -5t-3 -8t-4 -7t-4 -3h-17l-2 -2v-4q0 -6 1.5 -8.5t4 -3.5
t6.5 -1h8h10q4 3 6 8t3 10t2.5 9.5t5.5 7.5q2 -1 2 -3v-4q0 -5 -1 -11t-4 -11.5t-7 -9.5t-9 -4q-1 0 -4 -0.5t-7 -0.5q-3 0 -6 0.5t-5 0.5q0 -1 -0.5 -1.5l-0.5 -0.5v-1v0l12 -14q3 -2 8 -2.5t8 -0.5q7 0 12.5 3.5t9 9t5.5 12.5t2 14q0 10 -3.5 18t-8 15.5t-10 14t-10.5 13
t-8 13t-3 14.5zM52 158q1 1 2.5 1h2.5q4 0 8 -2t8 -3q3 0 9.5 -1t13.5 -2.5t13 -2.5t9 -1q1 -1 1.5 -2t0.5 -2q0 -5 -5 -5t-10.5 1t-11.5 1v-56q0 -2 3.5 -1.5t8 0.5t8 -1t3.5 -5t-3 -5t-6 -1t-6 1t-6 1q-1 0 -2 -2t-1 -3t-0.5 -4.5t-0.5 -4.5q0 -2 0.5 -5t0.5 -4v-1t0.5 -2
t0.5 -2v-1v-4.5t-0.5 -7.5t-0.5 -7.5v-4.5q-2 -2 -4 -5t-5 -3h-1l-1 3l-1 3l-0.5 0.5t-0.5 1.5q0 11 1.5 23t1.5 24v6q-2 3 -6 3h-7h-3.5t-4.5 0.5t-4.5 0.5h-3.5q-1 2 -1 3v2q0 7 6 7q5 0 9 -2t9 -2q2 0 4 1t2 4v52h-8t-10 1t-9 3.5t-4 7.5l0.5 1.5t0.5 2.5zM136 33
q0 11 5 18t16 7h1h1h6t8 -0.5t8.5 -0.5h5.5q4 -2 6.5 -3.5t3.5 -4t1.5 -5.5t0.5 -8v-6t-0.5 -5.5t-2.5 -4t-6 -2.5q-7 -1 -12 -1.5t-11 -0.5q-4 0 -8.5 0.5t-8.5 1.5t-7.5 3t-6.5 5v7zM144 38q0 -6 3.5 -8.5t8.5 -3.5t10 -0.5t9 0.5h2h4h3.5h2.5q3 2 4 3t1 3q0 6 -2.5 9
t-6 4.5t-8 2.5t-8.5 1h-7t-7.5 -1t-6 -3t-2.5 -7z" />
</svg>
