<?xml version="1.0" standalone="no"?>
<!DOCTYPE svg PUBLIC "-//W3C//DTD SVG 1.1//EN" "http://www.w3.org/Graphics/SVG/1.1/DTD/svg11.dtd" >
<svg xmlns="http://www.w3.org/2000/svg" xmlns:xlink="http://www.w3.org/1999/xlink" version="1.1" viewBox="-10 0 266 256">
   <path fill="currentColor"
d="M63 245q0 4 3 4q5 0 10 -7t9.5 -17.5t8 -23t6 -24t4 -20.5t1.5 -13q1 -2 1 -5.5v-7t1 -6.5t3 -5q4 -2 9 -3t10 -1.5t10.5 0t9.5 0.5h4t4 1q-1 12 1 23.5t5 23t6 22.5t5 22q1 5 1.5 9.5t1 8.5t2 8.5t3.5 7.5q1 2 2 2h4q2 0 4.5 -0.5t2.5 -4.5q0 -5 -2 -11.5t-4.5 -13
t-5.5 -12.5t-4 -11q-3 -7 -4 -13t-2.5 -11.5t-2.5 -11t-2 -12.5l-0.5 -1.5t-1 -2.5t-1 -2.5l-0.5 -1.5v-4v-5v-4v-5q3 -2 10 -2h13.5t12 -1t5.5 -6q0 -3 -2 -3.5t-5 -0.5q-1 0 -2.5 0.5l-1.5 0.5q-1 0 -5 0.5l-8 1l-8 1t-5 0.5q-28 2 -55.5 3.5t-56.5 0.5q-1 1 -3.5 2.5
t-2.5 3.5v1q0 1 1.5 2l1.5 1h44v2.5v2.5q0 2 -0.5 6.5l-1 9l-1 9t-1.5 5.5q-2 5 -2.5 10t-1.5 11q-2 11 -6 23t-8 22q-1 2 -3 5.5l-4 7t-4 6.5zM98 200q0 1 1 1.5t3 1t3 0t2 -0.5h6t11 -0.5t12.5 -1t12 -1t9.5 -1t4 -1.5v-4h-25v-31q0 -1 2.5 -1.5t6 -0.5t6 -1t2.5 -3
t-0.5 -2.5t-2.5 -0.5q-1 0 -3 -0.5t-4 -0.5t-4.5 0.5l-2.5 0.5l-2 -2v-27q0 -1 -0.5 -1.5l-0.5 -0.5h-1q-1 0 -3.5 2.5t-2.5 4.5v24l-1 1q-2 0 -5 -0.5t-6.5 0t-5.5 2t-2 5.5h17q1 0 2 1t1 2.5v3v2.5v3v3.5t-0.5 5.5t-0.5 5.5v3.5q-2 2 -5 3t-7 1.5t-8 0t-5 0.5q-1 0 -2 1
t-1 2v1zM93 45v6t0.5 8.5t0.5 9v5.5q1 3 1.5 7t2 7t4 5t7.5 2h32l8 -2t6 -3q6 -4 7 -12t1 -15.5t0.5 -14.5t5.5 -11q3 0 8.5 1t10.5 0.5t8.5 -2.5t3.5 -7q-8 0 -15.5 1t-15.5 1h-2q-2 0 -2 -2v-16q-1 -2 -1.5 -2.5t-2.5 -0.5h-2.5t-1.5 2q0 1 0.5 4t0.5 6t-1 6t-3 5h-8
t-13 0.5t-13 0.5h-8h-2h-4h-4h-2q0 -1 0.5 -3t0.5 -4v-4v-3q0 -3 -1 -5.5t-4 -2.5h-2t-1 1v21q-9 1 -17.5 1.5t-16.5 -0.5q-2 1 -2 2v2t0.5 3t2.5 2h30zM107 85l4.5 -4.5t5.5 -4.5t6 -3.5t6 -1.5q2 0 4.5 1t5.5 3t4.5 4.5t1.5 4.5q0 1 -1.5 2t-3.5 1.5t-4 0.5h-2h-2
q-2 0 -4 0.5t-4 0.5h-2q-2 0 -5 -0.5t-4 -0.5zM101 46q2 0 5.5 1.5t7 4.5t6.5 6t3 6v0q-2 1 -4.5 3.5t-5 4.5l-5 4t-4.5 2l-0.5 -0.5t-1.5 -0.5v-4.5t-0.5 -8t-0.5 -8v-4.5v-3.5v-2.5zM138 64v-3l13 -14l1 -0.5l1 -0.5q3 0 3.5 3t0.5 6q0 4 -0.5 8t-1.5 9q0 1 -1 2t-1 2h-1
v0h-0.5h-0.5zM113 44v-1.5v-0.5q2 0 5.5 -0.5t5.5 -2.5l21 2v0.5v1.5q0 2 -2 4.5t-4.5 4.5t-5 3.5t-4.5 1.5h-2q0 -1 -2 -2.5l-4 -3t-3.5 -3t-2.5 -1.5l-1.5 -1.5t-0.5 -1.5z" />
</svg>
