<?xml version="1.0" standalone="no"?>
<!DOCTYPE svg PUBLIC "-//W3C//DTD SVG 1.1//EN" "http://www.w3.org/Graphics/SVG/1.1/DTD/svg11.dtd" >
<svg xmlns="http://www.w3.org/2000/svg" xmlns:xlink="http://www.w3.org/1999/xlink" version="1.1" viewBox="-10 0 266 256">
   <path fill="currentColor"
d="M186 246q1 0 2.5 2t2.5 3h0.5h0.5h0.5h0.5q0 -1 2 -3t3 -2v-4.5v-4.5v-4.5v-3.5q0 -1 -0.5 -2.5t-1 -4t-1 -4.5t-1.5 -2q-1 -11 -1.5 -22t-1.5 -22t-3 -22.5t-2 -22.5v-3v-3l0.5 -0.5l1.5 -1.5t2 -1.5t1 -1.5q2 -1 3.5 -5l3 -8t3 -7.5t2.5 -4.5v-21q0 -1 -1.5 -3t-3.5 -4
t-4 -3.5t-3 -1.5q-7 0 -16 -2t-17 -2h-2q0 1 -2 1.5t-3 0.5l-3 -0.5t-3 -1.5h-1q-3 0 -5.5 1.5t-3.5 3.5q1 3 3 4t4.5 1.5t5.5 0.5h5h6t8.5 0.5t8.5 0.5h5q4 1 6 3t3 5t1 6v6v6t-1 7.5t-2.5 6t-4.5 2.5t-4 -2.5t-3 -5.5t-4.5 -6t-6.5 -3h-30l-2 2l3 3q4 1 10 1t11.5 1.5
t9.5 4.5t4 9q0 5 -2.5 7.5t-7 4t-9.5 2.5t-9.5 1.5t-7 2t-2.5 3.5q0 3 1.5 3.5t3.5 0.5h1h1q1 -1 5 -1.5t8 -1.5t8 -1.5t5 -1.5q1 0 2.5 -1.5t2.5 -1.5q2 0 3.5 2t1.5 3q3 9 2.5 18t1.5 18v2.5t1 5.5t1.5 5.5l0.5 2.5v4v6v7v3q0 3 0.5 8.5t1 12t1 12t0.5 8.5zM56 221
q0 3 2 5.5t5 2.5h3q1 0 4 -0.5t7 -1t7.5 -1t4.5 -0.5q18 -2 37.5 -2.5t38.5 0.5q2 -1 3.5 -3t1.5 -4t-1.5 -2.5l-3 -1t-3.5 0t-3 0.5q-8 0 -16.5 1t-17.5 1h-3t-2 -2v-8v-8q0 -1 0.5 -3.5t0.5 -5t0.5 -4l0.5 -1.5l1 -3h30q4 0 4.5 -1t0.5 -4v-2t-2 -2h-31l-3 -2l-0.5 -1
t-0.5 -2q0 -5 1 -9t1 -8v-5q-2 -2 -5 -2h-5v26l-1 3h-3t-7 0.5t-8 0.5t-7 1h-13q-2 0 -2 1v2q0 2 1.5 3.5t3.5 1.5h30q2 0 3 1.5t1.5 3.5t0.5 4.5v3.5v9.5t-2 9.5q0 2 -4.5 2.5t-10.5 0.5h-13h-13t-9.5 1t-3.5 3zM56 82v9t1.5 12t4.5 10.5t8 4.5h37q1 0 2 1.5t1.5 3.5t1 3.5
l0.5 1.5h1q3 0 4.5 -7t2 -16.5t0.5 -18.5v-12q0 -6 -0.5 -11t-3 -8.5t-6.5 -6t-10 -2.5t-11.5 1t-10.5 1h-3h-3q-2 -1 -2.5 -2.5t-0.5 -3.5q0 -6 5 -9t12 -5t14 -2.5t12 -1.5h77q2 0 3.5 -1.5t1.5 -3.5t-1.5 -3t-3.5 -2t-4.5 -1h-4.5h-2q-1 0 -6 0.5t-10.5 1t-10.5 1t-6 0.5
h-6h-10h-10h-6l-4.5 0.5t-9.5 1.5t-10.5 1.5t-8.5 1.5q-11 2 -16 7.5t-6.5 13.5t-1.5 17.5v18.5v4zM67 96q0 -4 1.5 -5.5t4.5 -2t6 -0.5h6q1 0 3 -1l2 -1h4.5h5.5h4.5h4.5q1 1 1.5 3t0.5 4.5v4v2.5t-0.5 3.5l-0.5 2.5l-3 4h-28q-6 0 -9 -4.5t-3 -9.5zM66 75q0 -7 1.5 -11.5
t5 -6.5t8.5 -2.5t11 -0.5q1 0 3.5 0.5t5.5 1t5.5 1.5t2.5 2v17q0 1 -1 1.5l-1 0.5q-6 2 -13 2h-12h-15q-1 -2 -1 -3v-2z" />
</svg>
