<?xml version="1.0" standalone="no"?>
<!DOCTYPE svg PUBLIC "-//W3C//DTD SVG 1.1//EN" "http://www.w3.org/Graphics/SVG/1.1/DTD/svg11.dtd" >
<svg xmlns="http://www.w3.org/2000/svg" xmlns:xlink="http://www.w3.org/1999/xlink" version="1.1" viewBox="-10 0 266 256">
   <path fill="currentColor"
d="M179 154q2 0 3.5 2t1.5 3l6 89l1.5 1t1.5 2l1 -0.5t1.5 -1l2.5 -2.5t2 -3v0v-1q0 -1 -0.5 -4t-0.5 -7t-0.5 -7t-0.5 -4q-1 -1 -1.5 -8t-1 -14.5t-0.5 -14v-8.5q-1 -5 -2.5 -10t-1.5 -11v-5q5 -3 7.5 -6.5t4 -6.5t2 -7t0.5 -9v-4v-4q-1 -3 -3.5 -5.5t-5.5 -2.5h-42
q-2 0 -3 2t-1 4h40l1 0.5t2 1.5l2 2l1 1v3.5v3.5v4.5t-1 5.5t-2.5 4.5t-3.5 1.5h-1q-4 -6 -8.5 -8.5t-11.5 -2.5q-5 0 -9.5 0.5t-10.5 1.5q1 3 3 5q2 -1 7.5 -1.5t10.5 0.5t8.5 3t3.5 8q0 3 -5.5 5t-12.5 3t-12.5 1.5t-5.5 1.5v4q8 0 16 -0.5t16 -3.5l1 -1zM92 192
q0 1 0.5 2t2.5 1h9h9q2 0 9 -0.5t14.5 -1t14.5 -1t9 -0.5q3 0 5 -1t4 -4l-2 -1l-3 -0.5t-5 -0.5h-2t-4 0.5t-3 0.5h-2q-3 0 -11 0.5t-16.5 1t-16 1t-10.5 0.5q-2 0 -2 1v2zM100 105v11v14t1 13t3 9q2 1 5 4l3 3h21q2 0 3.5 -3.5t3.5 -8.5t2.5 -9t0.5 -5v-2v-2t-0.5 -4.5
t-0.5 -4.5v-3v0v-1v-4.5t0.5 -7t0.5 -7v-4.5q1 -3 6.5 -4t13 -1t15.5 0.5t15 0t12 -1.5t5 -3q0 -1 -0.5 -2.5t-1.5 -1.5h-26v-14q0 -1 3 -1.5t7 -1.5t7.5 -3.5t4.5 -7.5v-2.5v-5.5t0.5 -6t0.5 -4v-1.5v-1.5q0 -3 -0.5 -5t-4.5 -2l-1 0.5l-1 0.5q-1 6 -1 13t-2 13
q-1 1 -1.5 2l-0.5 1q-1 1 -4 1.5l-3 0.5l-2 -2v-40q0 -1 -1 -1.5t-2 -0.5q-6 0 -6 7v1v2t0.5 4l1 4t0.5 3v1q0 1 -0.5 2t-1.5 2v19q0 1 -2 1.5t-3 0.5t-2.5 -0.5t-3.5 -1.5t-3 -2t-1 -3v-26l-0.5 -0.5t-1.5 -0.5q0 -1 -1 -1.5t-2 -0.5l-1 1.5t-2 1.5v9v10q0 1 0.5 3.5t1 4.5
t0.5 4v2l3 3l15 3l0.5 1t0.5 2v1q0 6 -0.5 9t-3 4.5t-5.5 1.5h-9h-5h-4l-3 -2q1 -6 1 -12.5t-1.5 -12t-5 -9t-11.5 -3.5h-2q-1 0 -3 0.5t-4.5 1t-4.5 0.5t-3 1q-4 3 -5.5 6t-2 7t-0.5 8v8v5.5t-0.5 9t-0.5 8.5v5zM107 115v-6.5v-3.5l3 -3h2t4.5 -0.5l5 -1t3.5 -0.5h6h5
q0 12 -0.5 25.5t-5.5 24.5l-0.5 1t-1.5 1h-15q-1 0 -2 -2.5l-1 -2.5q-2 -8 -2.5 -16t-0.5 -16zM67 134h-18q-1 0 -1.5 1t-0.5 1.5v2.5v2h6.5t10 -0.5l11 -1t10 -1.5t7.5 -1.5l3 -0.5v-1q0 -1 -0.5 -2t-0.5 -2q-4 1 -8 1t-7 -2q-1 0 -1.5 -0.5t-0.5 -1.5v-49l2 -3l1.5 -0.5
t3.5 -0.5t3.5 -0.5l1.5 -0.5q1 0 3.5 -1t2.5 -3v0v0q0 -1 -0.5 -1.5l-0.5 -0.5h-6h-5l-1.5 -0.5t-1.5 -1.5v-41q0 -3 -3 -5t-5 -2t-2 1.5v2.5v3v6.5t0.5 12t0.5 12v6.5v1v0q0 1 -1 3.5t-2 3.5l-3.5 -0.5t-7 0t-6.5 1.5t-3 3h0.5h0.5q0 1 1 2t2 1h18l1 5v1q0 12 -1 23.5
t0 23.5zM107 89v-2.5v-1.5q1 -6 1 -11.5t1.5 -10.5t5 -8t11.5 -3q3 0 4.5 1t3.5 6q1 8 1.5 13.5t0.5 13.5v4t-2 4q-1 0 -3.5 0.5t-5 0.5t-5.5 0.5t-4 0.5h-2q-7 0 -7 -7z" />
</svg>
