<?xml version="1.0" standalone="no"?>
<!DOCTYPE svg PUBLIC "-//W3C//DTD SVG 1.1//EN" "http://www.w3.org/Graphics/SVG/1.1/DTD/svg11.dtd" >
<svg xmlns="http://www.w3.org/2000/svg" xmlns:xlink="http://www.w3.org/1999/xlink" version="1.1" viewBox="-10 0 266 256">
   <path fill="currentColor"
d="M55 230q0 2 0.5 6t3.5 5h10h10l1.5 -0.5t3 -0.5t3 -0.5l1.5 -0.5h12.5h10.5h10.5t11.5 -1h11.5t18 0.5t17.5 0.5h12h3q4 0 6 -1.5t2 -5.5t-3 -5t-6 -1q-15 0 -30.5 1t-30.5 1v-1v-1q0 -2 0.5 -7t0.5 -8v-4l3 -3q6 -1 11.5 -1.5t10.5 -1t10 -0.5h12q1 -1 3.5 -2.5
t2.5 -3.5q0 -3 -2.5 -3.5t-4.5 -0.5q-9 0 -17 1t-16 1h-5t-3.5 -1t-2.5 -2.5t-2 -4.5l0.5 -1t0.5 -2t0.5 -2l0.5 -1q0 -3 -3 -6t-5 -3q-1 0 -3 0.5t-2 2.5v18l-3 2h-3t-6.5 0.5t-7.5 0.5h-7h-24l-1.5 3t-0.5 3q0 3 2 4.5t5 1.5q9 0 17 -1t16 -1h12q1 2 1 4v4q0 4 -0.5 9
t-3.5 7q-17 -1 -32.5 0.5t-31.5 1.5zM91 174v3t0.5 3.5t1.5 3t3 1.5t4 -0.5t2 -2.5v-31l1 -0.5t1.5 -1l1.5 -1.5l1 -1h21l0.5 -1t1.5 -1v-1v-1l-2 -2q-6 -2 -13 -2t-12 1q-1 -1 -1.5 -3.5t-0.5 -3.5q0 -3 2.5 -4t5.5 -1.5t7 -1.5t7 -4t5 -9t2 -17q0 -9 -2 -15t-5 -9.5
t-6.5 -5t-7 -2.5t-5.5 -2.5t-2 -5.5t2 -5.5t4.5 -2t6 0t6.5 0l6 -1t4 -3.5q-4 -5 -9 -5q-4 0 -7.5 1t-7.5 1h-3q-1 0 -1 -2v-21q0 -3 -2.5 -3.5t-3.5 -0.5t-3.5 0.5t-2.5 3.5v19l-3 3h-26q-2 0 -3 2t-1 4q0 3 3.5 4.5t5.5 1.5q1 0 3 -0.5t5 -0.5t5.5 -0.5l2.5 -0.5h4
q3 0 4.5 2t1.5 6q0 3 -2.5 4t-5.5 1.5t-7 2t-7.5 4.5t-6 9t-2.5 16t1.5 16t4.5 10t8.5 5.5t14.5 2.5q2 0 2 2v2v2v2.5t-0.5 2.5t-1.5 1h-36q-1 0 -2 1.5t-2 2.5v1v0q1 1 3 2.5t2 2.5h3h3q7 0 13 -1t13 -1q4 0 4.5 1t0.5 6q0 4 -1 8.5t-1 9.5zM144 123q0 12 2 25.5t4 24.5
q1 4 1 5t3 1h2.5t1.5 -2v-6q0 -16 -2.5 -31.5t-2.5 -31.5v-23q2 -7 6.5 -9.5t10 -3.5t11.5 -0.5t11 -1t8 -6t3 -13.5q0 -7 -1.5 -9.5t-6.5 -5.5q-1 0 -4 -0.5t-6 -0.5h-6h-3h-5h-6t-5.5 0.5l-2.5 0.5q-5 0 -8.5 0.5t-3.5 4.5q0 2 0.5 3t3.5 1h35q2 0 4 1t2 4t-1.5 6t-4.5 4
l-29 6q-2 1 -4 2.5t-3 4t-1.5 5t-1.5 4.5v7.5t-0.5 12t-0.5 11.5v8v2zM171 106v13q0 1 0.5 3t1 5t1 5t0.5 3q1 3 1.5 8.5t2 11.5t3.5 11t5 5q2 0 3 -1.5t1 -3v-3.5v-3q0 -4 -1 -7.5t-2.5 -7t-2.5 -7.5l-2 -8l-0.5 -4t-1 -8.5l-1 -9t-0.5 -7.5v0q0 -4 2.5 -7.5t5.5 -3.5t5 3
t3 6l2 6t3 3q4 0 4.5 -1.5t0.5 -4.5q0 -11 -4 -15.5t-15 -4.5q-5 0 -9.5 3t-5.5 8v13zM74 108q0 -3 2 -5t5 -2h6h5v4v6.5t-1.5 5.5t-4.5 2q-6 0 -9 -2.5t-3 -8.5zM103 101h14q1 0 1.5 2t0.5 3q0 5 -3.5 8t-8.5 3h-2.5t-1.5 -1v-15zM103 90q-1 -1 -1 -3v-3v-4t0.5 -3t1.5 -2
t3 -1h3t4 0.5t3.5 1.5t1.5 3v11q0 1 -1.5 2t-3.5 1h-3h-3h-3t-2 -3zM73 85q0 -11 13 -11q3 0 5 1t2 5v2t-0.5 4t-1.5 4t-3 2h-13q-1 0 -1 -1t-0.5 -2t-0.5 -2v-2z" />
</svg>
