<?xml version="1.0" standalone="no"?>
<!DOCTYPE svg PUBLIC "-//W3C//DTD SVG 1.1//EN" "http://www.w3.org/Graphics/SVG/1.1/DTD/svg11.dtd" >
<svg xmlns="http://www.w3.org/2000/svg" xmlns:xlink="http://www.w3.org/1999/xlink" version="1.1" viewBox="-10 0 266 256">
   <path fill="currentColor"
d="M164 178q0 3 2 9t5.5 14.5t7.5 17t8 16t7 12t5 4.5q3 0 5.5 -1.5t2.5 -4.5q0 -4 -3 -8.5t-6 -9.5t-7 -9.5t-6 -8.5q0 -2 -2 -5.5t-4 -8t-3.5 -8.5t-1.5 -5q-1 -1 -1 -3v-4q0 -5 2 -10t5 -9.5t6.5 -8l7.5 -7.5l0.5 -2.5t1.5 -3.5l1 -2l2 -4t2 -3.5t1 -2.5q3 -9 3 -17.5
v-18.5q0 -13 -1.5 -21.5t-4 -13t-7 -6.5t-11 -2.5t-15 -1t-19.5 -1.5h-1v0h-1q-2 1 -3.5 2t-1.5 3l0.5 0.5l0.5 0.5q2 1 4 1h5.5t4.5 0.5t3 3.5v8q0 2 0.5 5.5t0 7t-1.5 5.5t-5 2q-1 0 -3 -0.5t-2 -2.5v-18q0 -2 -1.5 -3t-3.5 -1q-2 2 -2 7v6q0 6 0.5 9t1.5 4.5t2.5 1.5
t3 0.5t3 1.5t3.5 4q0 2 -1 6.5t-2 10t-2.5 9.5t-3.5 4t-3 -1.5t-1 -3.5q0 -1 -0.5 -3t-0.5 -4t0.5 -4.5t0.5 -3.5l-3 -3q-2 1 -2.5 3t-1.5 4.5t-1 5.5v4q0 4 1.5 6.5t4 4.5t4 4t1.5 4q0 9 -3.5 17.5t-6.5 17.5q2 3 5 3t5 -3t3 -7.5t1.5 -9.5t1.5 -9.5t2 -7.5t4 -4l13 -3
q3 0 4.5 -2.5t2.5 -5.5t1.5 -6t0.5 -5v-4t-3 -2q-2 0 -3.5 3t-2.5 6.5t-3 6.5t-5 3h-2.5t-1.5 -1v-5q0 -6 1.5 -12t2.5 -12q2 -2 4.5 -2t4.5 -1q4 0 6.5 -3t4 -6t2.5 -7t1 -7q0 -1 -0.5 -2.5t-1.5 -1.5q-2 0 -3.5 2t-2.5 5t-2 5.5t-4 4.5h-1h-2t-1 -2v-6v-5v-6t0.5 -5
t2.5 -3h3h3q9 0 13.5 3t6 8t1.5 12v14v12q0 6 -1 12.5t-2.5 12.5t-5.5 11q-4 6 -8.5 11t-7.5 9.5t-5 10.5t-2 13zM62 227q0 2 0.5 3.5t3.5 0.5q1 0 4 0.5t4 0.5q20 0 40.5 -1t41.5 -1q2 0 5.5 -0.5t3.5 -1.5v-6h-45v-20l28 -4l3 -3v0v-1l-1.5 -1.5l-1.5 -1.5h-1q-4 0 -8.5 1
t-8.5 1h-4.5h-2.5l-3 -2v-7q0 -5 0.5 -9.5t0.5 -9.5q0 -3 -1.5 -4t-3.5 -1h-2t-2 1v4t-0.5 6.5t-0.5 6.5v4v2.5v4.5q0 1 -0.5 3t-2.5 2q-3 0 -7 -0.5t-8.5 0t-8.5 1t-6 2.5v0v1t1.5 2.5t2.5 1.5h27v17q0 2 -1 3t-2.5 1.5t-3 0.5h-2.5h-7t-11 0.5t-11.5 0.5h-7.5
q0 1 -0.5 1.5zM90 142v31q4 0 6 -2.5t2.5 -6t0.5 -7t-0.5 -7t0 -6t1.5 -2.5l21 -3l0.5 -0.5l1.5 -1.5v-1q0 -3 -2.5 -3h-5.5h-4h-2t-2 0.5t-2.5 0.5h-1.5l-1 -0.5t-2 -0.5q0 -1 -0.5 -1.5l-0.5 -0.5v-15q0 -2 3 -2.5t8 -0.5q4 0 7.5 -0.5t3.5 -2.5l-0.5 -1t-0.5 -2
q-1 0 -3.5 0.5t-5.5 0.5t-5.5 -1t-2.5 -3q0 -1 1 -4t2.5 -6.5t3.5 -6t4 -2.5h1l8 7l0.5 0.5l0.5 0.5q2 0 2.5 -1.5t0.5 -3.5q0 -7 -5 -10.5t-11 -6.5t-11 -6t-5 -10q0 -1 0.5 -3t1 -4.5t1.5 -4t2 -1.5q3 0 6 2.5t6 6t5.5 6.5t4.5 3q3 0 3.5 -2t0.5 -5t-3 -6t-7.5 -5.5
t-8.5 -5t-7 -3.5v-5.5t-1 -7t-3 -6.5t-5 -3q-1 0 -1 0.5v0.5q-1 0 -1.5 0.5l-0.5 0.5v20l-2 2t-4 3q-6 6 -13 10.5t-13 9.5q-1 0 -1.5 0.5l-0.5 0.5v1q0 4 3 4q4 0 7.5 -2.5t6.5 -5.5t6.5 -6t7.5 -3q3 0 3 3v6q0 6 -4.5 11t-10.5 9t-12.5 8.5t-11.5 9.5v1q0 1 1 2.5t2 1.5
l1 -0.5l1 -0.5q1 0 3.5 -2.5t6 -5t6.5 -4t5 -1.5q3 0 5 2.5t4 6t3 7t1 5.5q-2 1 -6.5 1.5l-9 1t-8.5 1t-6 2.5q1 1 2 2.5t3 1.5h25q1 0 1.5 1.5t0.5 3v3.5v1q0 3 -0.5 5.5t-2.5 3.5q-1 0 -4.5 0.5t-7 0.5t-6.5 0.5t-4 0.5h-3h-3.5t-2 1t-0.5 3q0 1 0.5 1.5l0.5 0.5h33z
M82 79q0 -2 2 -3.5t4 -2.5l4 -2t3 -1q5 0 8 2.5t3 6.5q0 1 -1 4t-2.5 6.5t-3.5 5.5t-3 2q-2 0 -4.5 -2.5t-4.5 -5.5t-3.5 -6t-1.5 -4z" />
</svg>
