<?xml version="1.0" standalone="no"?>
<!DOCTYPE svg PUBLIC "-//W3C//DTD SVG 1.1//EN" "http://www.w3.org/Graphics/SVG/1.1/DTD/svg11.dtd" >
<svg xmlns="http://www.w3.org/2000/svg" xmlns:xlink="http://www.w3.org/1999/xlink" version="1.1" viewBox="-10 0 266 256">
   <path fill="currentColor"
d="M124 224q1 2 1.5 5t1.5 5.5t2.5 4.5t4.5 3q4 1 7 1.5l6 1t5 0.5h7h9.5t11 -1t9.5 -4t5 -10v-4v-7t0.5 -7.5t0.5 -4.5l2 -16t1 -17v-5t-0.5 -5t-2 -4t-4.5 -2h-2q-1 2 -1 6t-0.5 8t-1.5 7.5t-3 3.5h-18l-4 -3v-25l-4 -5l-3 5v29q0 3 3.5 4l3.5 1q2 1 5 1t7 0.5t7 0.5h4
t2 1.5l1 1.5v1q0 6 -1.5 7.5t-5.5 1.5q-1 0 -5.5 0.5t-10 0.5t-9.5 0.5t-5 0.5h-8h-8q-2 -2 -2 -7q0 -6 0.5 -12t0.5 -12v-9l-1.5 -0.5l-1.5 -0.5h-1v0l-2 1v4.5t-0.5 5.5t-1 6.5t-1.5 5.5v36zM134 219q0 -2 0.5 -3t2.5 -2q12 -1 24 -1.5t23 -0.5q0 4 -0.5 9t-0.5 9
q-1 3 -4.5 4t-7.5 1.5t-7.5 0t-5.5 -0.5h-13q-6 -2 -8.5 -5t-2.5 -11zM48 153q0 4 3.5 4.5t5.5 0.5q10 0 21.5 -1.5t21.5 -3.5q1 0 1.5 -1.5t0.5 -2.5l-0.5 -2t-1.5 -2h-18q-1 0 -1.5 -1.5t-0.5 -4v-4.5v-2q0 -3 0.5 -10t1 -14.5t1.5 -13.5t2 -6h13l4 -4l-4 -4h-13
q-1 0 -1.5 -1.5t-0.5 -3v-2.5v-2q0 -14 1.5 -27.5t1.5 -26.5q0 -3 -2 -4t-4 -1q-3 0 -4 1.5t-2 5.5v5v9v8v5v8v10.5t-0.5 10.5t-2.5 7h-4t-6.5 0.5t-6.5 1.5t-3 4v1l2 1h3h4h4h3t3 1t3 3q-1 1 -1 2.5v3.5t-0.5 4t-0.5 3v13v7t-0.5 8t-0.5 6.5v2.5l-19 4q-1 0 -2 1.5t-1 2.5z
M115 134q2 4 5 6t6.5 3t7 1t7.5 1h48q6 0 9 -3t5 -7t2.5 -8.5t2.5 -7.5v-26l-1 -2t-2.5 -3.5t-3.5 -3t-3 -2.5q-2 -2 -5 -3t-7 -1.5t-7.5 -1t-5.5 -0.5q-8 0 -18 0.5t-19.5 3.5t-16 9.5t-6.5 19.5v2q0 1 1 2.5t1 2.5v18zM140 136q0 -7 2.5 -12t2.5 -12q0 -6 -1.5 -12.5
t-1.5 -12.5v0q1 -1 3 -1.5t4.5 -1t4 -0.5h2.5v50q0 3 -3 4.5t-5 1.5h-5.5t-2.5 -4zM163 139v-17v-18t2 -17q1 -3 4.5 -3.5t5.5 -0.5q1 0 3 1.5t2 3.5q0 6 -1.5 12t-1.5 12v6v3.5t0.5 3t0.5 4.5l1 2.5l1 2.5q-1 2 -2.5 3.5t-3.5 2t-4.5 0.5h-3.5t-2 -0.5zM132 91h0.5h0.5
q4 10 4 21v6.5t-1 7t-3 6t-4 2.5t-4.5 -0.5t-2.5 -2.5v-30q0 -3 3 -6.5t7 -3.5zM183 111v-6t1 -7.5t2.5 -6.5t3.5 -3q5 0 6.5 3t2.5 7t0.5 8.5t-0.5 6.5v3v4.5v4.5v2q-2 3 -4 5t-6 2h-0.5h-1.5q-1 -6 -2.5 -11.5t-1.5 -11.5zM109 62q0 2 2 2h2q5 0 10 -2.5t9.5 -5.5t9 -6.5
t8.5 -6.5q1 -7 1 -10.5v-9.5v-7q-2 -3 -4 -3t-3.5 0.5t-1.5 2.5v18q0 4 -4.5 8t-10.5 7.5t-11 6.5t-7 6zM169 41q5 10 15 13t19 3h3.5t1.5 -2q0 -4 -2 -5.5t-5.5 -2t-8 -1t-8 -1.5t-5.5 -3t-2 -6t0.5 -9t0.5 -9q0 -2 -1.5 -5t-3.5 -3t-3 2.5t-1.5 6.5t0 7.5l0.5 3.5v6v5z
" />
</svg>
