<?xml version="1.0" standalone="no"?>
<!DOCTYPE svg PUBLIC "-//W3C//DTD SVG 1.1//EN" "http://www.w3.org/Graphics/SVG/1.1/DTD/svg11.dtd" >
<svg xmlns="http://www.w3.org/2000/svg" xmlns:xlink="http://www.w3.org/1999/xlink" version="1.1" viewBox="-10 0 266 256">
   <path fill="currentColor"
d="M53 243q0 1 0.5 2t1.5 1h11q32 0 62 -1t62 -1h4t4 -0.5t3.5 -2t1.5 -3.5v-1.5t-2 -1.5h-14q-7 0 -14 1t-14 1q-3 0 -3 -4t4.5 -7.5t10.5 -6t11.5 -5.5t7.5 -6q5 -6 6 -13.5t1 -13.5q0 -5 -0.5 -10t-2 -10t-4 -9t-7.5 -5l-24 -7q-2 -1 -2.5 -2.5t-0.5 -3.5q0 -4 4.5 -5
t10 -1.5t10.5 -1.5t6 -7q0 -1 0.5 -3l1 -4t0.5 -3.5v-1.5q0 -1 -1.5 -3.5t-2.5 -4l-2 -3t-2 -1.5h-25l-2 -2v-2.5v-2.5q0 -5 0.5 -9t1.5 -9h2q4 0 8 1.5t8.5 3t8.5 3.5t7 4q3 1 5 2.5t5 1.5q2 0 3.5 -1.5t1.5 -4.5q0 -2 -4.5 -4.5t-10.5 -5t-14 -5t-15.5 -4.5t-13.5 -3
t-9 -2q-2 -1 -2.5 -3.5t-0.5 -5.5q0 -8 8 -8q5 0 11.5 2t12.5 5t12.5 5t10.5 2q3 0 5 -0.5t2 -3.5q0 -2 -4.5 -4t-10.5 -4.5t-11.5 -4t-6.5 -2.5q-1 0 -4 -0.5t-6.5 -1.5t-6.5 -1.5t-4 -1.5q-5 -1 -6 -4t-0.5 -6.5t0 -6t-4.5 -2.5q-1 0 -3 0.5t-2 3.5v15q0 1 -1 1.5t-2 0.5
q-15 4 -29.5 8.5t-28.5 12.5q-2 2 -2 4q0 3 4 3q5 0 12 -3t14 -7t13.5 -7t12.5 -3h1h3t2 0.5l1 0.5v16q0 1 -5.5 3t-13.5 5t-17.5 6t-18 6.5t-14 7t-5.5 6.5q0 1 0.5 3t2.5 1q1 0 3 -1t4.5 -2t4.5 -2t3 -1l7 -3.5t10 -5.5t10 -5t7 -2q1 0 2 0.5t2 1.5q0 1 0.5 4.5t0.5 4.5v1
q0 7 -2.5 10t-6.5 4t-8.5 1t-8.5 1t-6.5 3.5t-2.5 8.5q0 7 2.5 11t6.5 6t8 2.5l8 1t6.5 1t2.5 2.5v1q-1 0 -2 1.5t-2 1.5l-1.5 0.5l-3 1t-3.5 1t-3 0.5t-3.5 0.5t-5.5 1.5t-5.5 1t-3.5 1q-8 3 -12 9.5t-4 14.5q0 4 -0.5 9t-0.5 10q0 4 1 8.5t3 7.5q3 6 9.5 8t13 3.5
t11.5 4.5t5 9v3t-1 3q-5 1 -11 1t-11.5 0.5t-11 0t-9.5 -0.5q-2 1 -3.5 2t-1.5 3zM110 235q1 -8 -2 -13t-7.5 -7.5t-10 -4t-10.5 -4.5t-8 -8t-3 -14v-3q0 -1 0.5 -4t0.5 -6t0.5 -5.5t0.5 -3.5q0 -5 5.5 -8t11.5 -4.5t12.5 -2t9.5 -2.5q2 -1 3 -3t2 -3.5t2 -3.5t3 -3h4
t6.5 -0.5t7 -0.5h4.5h1v0q1 0 2.5 0.5t2.5 0.5q2 9 6 12.5t8.5 5t9 2.5t8.5 4t6.5 9t2.5 18q0 10 -3.5 15.5t-9 9t-12.5 6.5t-13 8q-2 2 -2.5 4.5t-1 4.5t-1.5 4t-4 2h-29zM102 178q4 0 4.5 4t0.5 9t1 10t5 7t10 2h9q9 0 14 -1t8 -3.5t3.5 -8t-0.5 -14.5q1 -3 3.5 -3.5
t5 -0.5t4.5 -1.5t2 -5.5h-32q-3 0 -4 -2t-1 -4t0.5 -3t4.5 -1h4h6h6.5h4.5l1 -3v-1v-1l-0.5 -1l-0.5 -1h-24q-1 0 -1.5 -2l-1 -4l-1 -4t-2.5 -2q-3 0 -4 2t-1.5 4t0 4.5t0.5 3.5h-27l-0.5 1t-1.5 1v1v1q1 1 2.5 1.5t3 0.5t3.5 -0.5t3 -0.5t3.5 0.5t5.5 0.5t5.5 0.5t3.5 0.5
l0.5 1t0.5 2q0 2 -1 4.5t-4 2.5h-35l-2 2q2 3 3 3.5t3 0.5q3 0 5.5 -1t4.5 -1zM116 199v-1.5v-0.5q2 0 4.5 -0.5t6 -0.5h6.5h4q0 -1 1 -1h2q2 0 5 0.5t3 3.5t-2 4t-4.5 1.5t-5.5 0.5h-5h-3.5t-5 -1t-4.5 -2t-2 -3zM113 183v-2t2 -1q4 -1 7 -1t5.5 -0.5t5.5 -0.5h6h3t3.5 0.5
t3 1.5t1.5 3q0 1 -1 3.5t-3 2.5h-30q-1 0 -2 -2.5t-1 -3.5zM105 104l4 1v17q0 1 -2 1.5t-4 0.5h-4h-3h-2.5t-3 -1t-3 -1.5t-1.5 -2.5v-11l2 -0.5t3 -0.5q2 0 4.5 -1t4.5 -1t3.5 -0.5zM118 112v-7q1 -1 3 -2t3 -1t3.5 -0.5t5.5 -0.5h5.5h3.5t2.5 0.5t1.5 2.5q0 1 0.5 3
t0.5 4.5t0.5 5l0.5 2.5v2q0 1 -3 1.5t-7.5 1t-8.5 0.5h-5q-3 0 -4 -1t-1.5 -2.5t-0.5 -3.5v-5zM164 102h4.5t5 1t4 2.5t1.5 3.5q0 5 -2 7t-5.5 3.5t-7.5 1.5h-7h-2t-1 -2v-14q0 -1 1.5 -2t3.5 -1h3h2zM118 83v-8.5t5 -7.5l2 -0.5t4.5 -1t4.5 -1t3 -0.5q4 0 6 1t3 3t1.5 4.5
t0.5 5.5v5q0 2 -0.5 4.5t-2 4.5t-3.5 2h-22q-1 0 -1.5 -1t-0.5 -2v-8z" />
</svg>
