<?xml version="1.0" standalone="no"?>
<!DOCTYPE svg PUBLIC "-//W3C//DTD SVG 1.1//EN" "http://www.w3.org/Graphics/SVG/1.1/DTD/svg11.dtd" >
<svg xmlns="http://www.w3.org/2000/svg" xmlns:xlink="http://www.w3.org/1999/xlink" version="1.1" viewBox="-10 0 266 256">
   <path fill="currentColor"
d="M72 245q0 3 2 4t4 1q4 0 7 -3.5t4 -7.5q0 -15 3.5 -29.5t10.5 -26.5t17 -22t24 -16q9 -4 18 -7.5t17 -8.5t14.5 -12t9.5 -19v-3v-6v-6v-4q0 -2 0.5 -6t0 -8l-1 -8t-1.5 -6q-3 -8 -7.5 -15t-11 -12t-14 -8t-15.5 -3q-15 0 -29 5t-27 13q-7 7 -12 13.5t-9 12.5t-8.5 13
t-8.5 16q-3 5 -4.5 7t-1.5 6q0 1 0.5 3t2.5 2q5 0 10 -4.5t9 -11t7.5 -14t7 -14t7.5 -11t8 -4.5q3 0 7 5.5t7.5 14t7.5 18t6.5 18t5 14t3.5 5.5v0v0q5 -4 6 -7.5t1 -9.5q0 -7 -2.5 -14.5t-6 -14.5t-8 -13.5t-8.5 -12.5l-1.5 -1.5t-2.5 -3l-2 -3t-1 -2.5q0 -5 4 -7t9.5 -3.5
t10.5 -2t8 -0.5q11 0 19 5t13 13t7.5 18t2.5 21t-3.5 18.5t-9.5 12.5t-13.5 8.5t-15.5 6.5t-16 6.5t-14 8.5q-3 2 -4.5 4.5t-3.5 4.5l-4 4t-5 3q-5 11 -10.5 21t-10 20t-7 21t-2.5 24z" />
</svg>
