<?xml version="1.0" standalone="no"?>
<!DOCTYPE svg PUBLIC "-//W3C//DTD SVG 1.1//EN" "http://www.w3.org/Graphics/SVG/1.1/DTD/svg11.dtd" >
<svg xmlns="http://www.w3.org/2000/svg" xmlns:xlink="http://www.w3.org/1999/xlink" version="1.1" viewBox="-10 0 266 256">
   <path fill="currentColor"
d="M51 246q0 3 2.5 4t4.5 1q3 0 4.5 -2t2 -5l1 -6t0.5 -5q0 -6 -0.5 -11t-1.5 -12v-87q0 -8 1.5 -14t8.5 -10q9 -3 20.5 -6t22.5 -3q4 0 4.5 1.5t0.5 5.5v2v3q-3 1 -9.5 1.5t-13.5 0.5t-12 1.5t-5 4.5v2t1 1h42q0 2 -0.5 6.5t-0.5 9v9.5v6q0 1 0.5 6t1 10.5t1 10.5t0.5 7v3
q0 8 -5.5 15.5t-13 15t-14 14.5t-9.5 15q1 0 2 1l1 1h0.5h0.5q4 0 8.5 -3.5t8.5 -8.5t8 -11t7.5 -11t6.5 -8.5t5 -3.5q1 0 3 3.5t5.5 9t7 11.5t7 11t7 8.5t6.5 3.5t5 -2.5t2 -5.5q0 -1 -0.5 -4t-1.5 -4l-19 -18q-1 -2 -2.5 -4t-3.5 -4t-3.5 -4t-2.5 -4q2 -1 7 -2.5l10 -3
t8.5 -4t3.5 -6.5v-57q0 -1 -1.5 -3t-3.5 -2t-2 3t-1 7t-5.5 7t-16.5 3q-2 0 -2 1v2v2t2 1h19q2 0 2.5 3.5t0.5 4.5q0 5 -3.5 6t-7.5 1t-8 0.5t-5 4.5l0.5 1.5t1.5 1.5h17q3 0 4.5 3t0.5 5q-1 4 -4 5.5t-6.5 2.5t-7 1.5t-6.5 3.5l-2 -2l-0.5 -1.5t-1 -4l-1 -5t-0.5 -3.5
q-1 -11 -1.5 -22.5t-0.5 -22.5v-10q0 -3 3 -4t7 -1.5t9.5 -0.5t10 -0.5t7.5 -1.5t3 -5h-1q0 -1 -0.5 -1.5l-0.5 -0.5h-37q0 -1 -0.5 -4t-0.5 -4q1 0 1.5 -1l0.5 -1q4 0 6.5 -0.5t5.5 -0.5h5.5h5.5h3.5h2.5h4.5t4.5 0.5t4 0.5h2l5 5l0.5 2t1 5l1 6t0.5 5q6 33 7 67t-1 67
q1 1 2 1.5t2 0.5v0q3 0 4.5 -2t2.5 -5t1 -5.5v-4.5q0 -33 -2.5 -66t-5.5 -66q-3 -6 -4.5 -10t-4 -6t-6.5 -3t-11 -2q-2 0 -7.5 -0.5t-11.5 -0.5t-11.5 -0.5t-7.5 -0.5q-2 -3 -2.5 -7t-0.5 -8t3 -6t8 -3t10.5 -2t10 -3t8 -6t3.5 -10q0 -12 -6 -16.5t-17 -4.5q-2 0 -9 1t-17 3
t-21 4.5t-20 5t-15 5.5t-6 5q0 3 2 3.5t5 0.5q5 0 11 -2t11.5 -4.5t10.5 -5t10 -2.5q2 0 4.5 1t2.5 5l2 16l-2 3l-2 0.5t-4 1.5t-4.5 1.5t-4.5 1.5q-1 0 -4 1t-6.5 1.5t-6.5 1t-4 1.5t-3 2t-3 1t-3 0.5t-4.5 1t-4.5 1t-3 0.5q-2 1 -2.5 2t-0.5 3t0.5 3.5t2.5 1.5
q3 0 11.5 -2t18 -5t18 -6t11.5 -5v21l-2 2q-14 2 -27 4.5t-26 6.5q-5 3 -7 7t-3 8.5t-1.5 9.5t-2.5 9q1 25 0 48.5t-1 48.5v5v6.5v6.5v5zM82 178q1 8 4 12t11 4h1h3t4.5 -0.5t4.5 -1l2 -0.5l3 -1.5t1 -2.5q0 -1 -0.5 -2.5t-1.5 -1.5h-19q-3 0 -3.5 -2.5t-0.5 -4.5
q0 -4 2 -6.5t5 -3.5t6.5 -1.5t7.5 -0.5q1 0 1.5 -0.5t0.5 -1.5q1 0 1.5 -1.5l0.5 -1.5q-1 -2 -2 -2.5t-3 -0.5q-4 0 -8 1t-8 1q-3 0 -3.5 -2t-0.5 -4q0 -6 4 -7t8 -1.5t8 -2t4 -7.5h-22q-1 0 -1.5 -2t-0.5 -4t-1 -4t-3 -2q-3 0 -4.5 1t-2.5 4l0.5 2.5t0.5 4.5t0.5 4t0.5 3v7
v11v11v7zM129 29v-2v-3t0.5 -2t2.5 -1h23q3 0 4.5 3t1.5 6q0 5 -2.5 8t-6.5 4.5t-8.5 2t-9.5 0.5h-2q-2 -5 -2.5 -8.5t-0.5 -7.5z" />
</svg>
