<?xml version="1.0" standalone="no"?>
<!DOCTYPE svg PUBLIC "-//W3C//DTD SVG 1.1//EN" "http://www.w3.org/Graphics/SVG/1.1/DTD/svg11.dtd" >
<svg xmlns="http://www.w3.org/2000/svg" xmlns:xlink="http://www.w3.org/1999/xlink" version="1.1" viewBox="-10 0 266 256">
   <path fill="currentColor"
d="M53 248q0 3 3 3h2q8 -8 14.5 -16.5t12 -17.5t10.5 -18t10 -19q1 0 2 -2.5t2 -3.5q1 -3 2.5 -8t3 -9.5t3.5 -8.5t5 -6h0.5h0.5q1 0 5 8t9 20t11 26t12.5 26.5t12 20.5t9.5 8q3 0 3.5 -1.5t0.5 -3.5q0 -1 -1.5 -5t-4.5 -9t-5 -9.5t-3 -5.5q-3 -4 -6.5 -8t-6.5 -8.5
t-5.5 -9.5l-4.5 -9q0 -1 -0.5 -3.5t-0.5 -3.5q-7 -17 -12.5 -33.5t-5.5 -35.5v-20.5t2 -20.5h1.5h2.5q4 0 7.5 1.5t7.5 3.5q8 4 13 8.5t8.5 10t6.5 12t6 14.5v33q0 1 2.5 1.5t3.5 0.5q3 0 4 -2.5t1 -4.5q0 -10 -1 -21t-4.5 -21.5t-9.5 -19t-15.5 -13.5t-17.5 -9t-18 -5v-2
v-3q0 -2 0.5 -5t1 -6.5t1 -5.5l0.5 -2l2 -2q3 0 10 0.5t16 0.5q8 0 15 -0.5t10 -0.5h3t4.5 -0.5t4.5 -0.5h2q1 -1 1.5 -2t0.5 -2v0v-1q0 -1 -1.5 -2l-1.5 -1h-127h-3t-6.5 1t-6.5 2t-3 4q0 2 3 2h3q12 0 23.5 -1t22.5 -1h3t4.5 0.5t5.5 0.5h3q2 0 2.5 2t0.5 4q0 6 -0.5 12
t-1.5 12q-15 2 -26 6.5t-18.5 12t-11.5 19t-6 28.5v2q0 1 -0.5 3t-0.5 4v3v2q0 2 0.5 4t0.5 3v3t1 1h2q3 0 3.5 -2t1.5 -4q1 -14 2 -26.5t5.5 -22t13 -16.5t24.5 -10l1.5 -0.5t2.5 -0.5l1.5 0.5t2.5 0.5q1 1 1 2v2v2v7t-0.5 10t-0.5 10v7q-3 4 -3.5 8.5t-0.5 9t-1.5 9
t-4.5 8.5l-10 29q-4 4 -6.5 9t-5 10.5l-5 11t-5.5 10.5q-2 4 -6.5 9t-9 10.5t-8 10t-3.5 6.5z" />
</svg>
