<?xml version="1.0" standalone="no"?>
<!DOCTYPE svg PUBLIC "-//W3C//DTD SVG 1.1//EN" "http://www.w3.org/Graphics/SVG/1.1/DTD/svg11.dtd" >
<svg xmlns="http://www.w3.org/2000/svg" xmlns:xlink="http://www.w3.org/1999/xlink" version="1.1" viewBox="-10 0 266 256">
   <path fill="currentColor"
d="M148 248q1 2 2.5 2.5t3.5 0.5q3 0 4 -2t1 -5v-2v-2l-8 -120v-4v-2v-4t0.5 -3.5t1.5 -1.5h5l2.5 3t3.5 4q7 10 11 20t6 21t2.5 22t1.5 22v5v6v7v4q1 1 2.5 1.5t2.5 0.5q2 0 4 -0.5t3 -3.5v-8q0 -20 -4.5 -41t-8.5 -40q-1 -1 -2.5 -3.5t-2.5 -4.5t-2 -4.5t-1 -4.5
q-1 -1 -3 -2.5t-4 -3.5l-4 -4l-2 -2q-3 -2 -7 -3l-8 -2t-7 -3t-5 -4q-1 -6 -1 -10.5v-10.5v-5l1 -2h64l1 -1l2 -2v-1q0 -3 -3 -5q-16 1 -32.5 0.5t-32.5 -1.5v-6v-9v-8.5v-5.5q0 -4 -1 -6t-5 -2q-3 0 -4 1t-3 4v3.5v3.5q0 8 0.5 14t0.5 14h-66l-1 0.5l-1 0.5v3v3h65l2 2v2.5
t0.5 6.5t0.5 7.5t1 6.5v3v3q-16 2 -26.5 8t-17 14.5t-10 19.5t-6 22.5t-3.5 24t-2 23.5q-1 4 -2.5 7t-1.5 7q0 3 2 4.5t5 1.5q2 0 5 -2t3 -4q0 -8 0.5 -17t1.5 -19.5t2.5 -21t4 -20t7 -17.5t12.5 -13v0q2 0 3 1.5t1 2.5v4q0 2 0.5 4.5t0.5 4.5v3q0 19 -0.5 38t-3.5 38
q-1 8 -3 17t-2 18v7q1 2 2 2h2q2 0 3.5 -0.5t2.5 -2.5q4 -35 6 -71t0 -71q1 -1 3 -2.5t4 -1.5h23q1 0 2.5 1t2.5 2q-1 26 -0.5 52t1.5 53q0 4 0.5 9t1 10.5t0.5 11v10.5z" />
</svg>
