<?xml version="1.0" standalone="no"?>
<!DOCTYPE svg PUBLIC "-//W3C//DTD SVG 1.1//EN" "http://www.w3.org/Graphics/SVG/1.1/DTD/svg11.dtd" >
<svg xmlns="http://www.w3.org/2000/svg" xmlns:xlink="http://www.w3.org/1999/xlink" version="1.1" viewBox="-10 0 266 256">
   <path fill="currentColor"
d="M49 245q0 2 1.5 3t3.5 1.5l4 1t3 0.5q19 0 36.5 -2.5t36.5 -2.5q2 0 8 -0.5t13 -0.5h15h15t12.5 0.5t8.5 0.5q4 -2 4.5 -3.5t0.5 -5.5v-2v-2l-3 -1h-9q-13 0 -25.5 1t-24.5 1q-5 0 -7 -1t-3.5 -3t-1.5 -5v-8v-10q2 -2 5 -3t7 -1.5t7 -0.5h4h26q4 -1 5 -2.5t1 -4.5
q0 -4 -2.5 -4h-6.5q-11 0 -21.5 1.5t-21.5 1.5h-1l-1 -1l-1 -1v-26l2 -3l4.5 -0.5t11 -1t13.5 -0.5h11h22q3 -2 4 -3.5t1 -4.5t-2.5 -3.5t-5.5 -0.5h-4.5t-5.5 1h-42q-5 0 -6 -3t-1 -7q0 -7 4 -10t10 -4t12.5 -0.5t12.5 0.5t10 -1.5t4 -5.5v-1q-1 -2 -2.5 -4t-3.5 -2
q-10 0 -19 1.5t-19 1.5q-1 0 -4 -0.5l-3 -0.5l-2 -2v-3t-0.5 -6t-1.5 -5.5t-4 -2.5q-5 0 -6.5 3t-1.5 7t-0.5 7t-3.5 4t-11.5 0.5t-17 0t-14.5 2t-6 6.5v2.5t2 2.5h6q9 0 17.5 -1t17.5 -1h1.5h3.5t3.5 0.5t1.5 1.5v2q0 1 -0.5 3.5t-0.5 5t-0.5 5t-0.5 3.5q-4 2 -11 3
t-15 1.5t-16.5 1t-15 1t-10.5 2t-4 4.5q0 2 2.5 5t4.5 3h2q1 0 5.5 -1t10 -1.5t12 -1.5t12.5 -1.5t10.5 -1t5.5 -0.5h1h1q1 0 3.5 0.5t3.5 0.5v12v4v6.5t-1 6t-4 2.5q-2 0 -8 0.5t-12 0.5t-11.5 0.5t-7.5 0.5q-5 1 -8 1.5t-3 5.5q0 1 1.5 2.5l2.5 2.5h7q10 0 19.5 -1.5
t19.5 -1.5q3 0 4 2t1 4.5v5v4.5v10q-1 3 -2 4t-2.5 1h-4h-5.5h-11t-17 0.5t-17 1t-12 0.5q-2 0 -3.5 2t-1.5 4zM42 107q0 2 0.5 3t1.5 2q1 0 3 0.5l2 0.5q5 0 7.5 -2t6.5 -4q8 -3 17.5 -7.5t19 -8.5t19 -6.5t18.5 -2.5t18 2.5t17.5 6.5t17.5 7t18 3h5q2 -2 2 -3.5v-3.5v-3
t-2 -3q-1 0 -4 -0.5l-6 -1t-5.5 -1t-3.5 -0.5l-12 -3t-16.5 -4t-15 -4.5t-7.5 -3.5q0 -1 -0.5 -3.5t-1 -5.5t-0.5 -5.5v-3.5v-3q0 -3 1.5 -5t5.5 -2t9 1t10 3t9.5 4t8.5 4q2 1 4 2.5t5 3.5t6 3t5 1q4 0 5 -2t1 -5q0 -5 -4.5 -8.5t-11 -5.5t-13 -3t-10.5 -2q-1 0 -4 -1t-7 -2
t-7.5 -2t-5.5 -2q-3 0 -4 -3.5t-2 -6.5t-2.5 -6t-4.5 -3q-4 0 -5.5 1.5t-2.5 4.5t-1 5.5t-1 4.5q-1 3 -7.5 6t-15 6t-18.5 6.5t-18 6.5t-13.5 6.5t-5.5 6.5q0 4 3 4.5t6 0.5q4 0 13 -4t19 -9t19 -10.5t14 -7.5q5 1 5.5 4t0.5 7v5.5v7t-1.5 6t-4.5 3.5q-15 3 -30.5 9
t-30.5 12q-2 0 -5 1.5l-6 3t-5 3.5t-2 5z" />
</svg>
