<?xml version="1.0" standalone="no"?>
<!DOCTYPE svg PUBLIC "-//W3C//DTD SVG 1.1//EN" "http://www.w3.org/Graphics/SVG/1.1/DTD/svg11.dtd" >
<svg xmlns="http://www.w3.org/2000/svg" xmlns:xlink="http://www.w3.org/1999/xlink" version="1.1" viewBox="-10 0 266 256">
   <path fill="currentColor"
d="M48 247l2.5 2.5t2.5 1.5q2 0 3 -1t2 -2.5t1.5 -2.5t0.5 -2q-2 -46 0.5 -93t7.5 -92q0 -2 1.5 -3l3 -2t3.5 -1t4 -1q1 0 4 -0.5l6 -1t5.5 -1t3.5 -0.5h3.5t5 -0.5t4 -0.5h2.5l3.5 -0.5t7.5 -0.5h10h7h6h9q4 0 8 0.5t6 0.5q1 0 4 0.5l6 1l6 1t4 0.5q5 1 6.5 4.5t1.5 8.5
v9.5v6.5v4t0.5 6.5t1 6.5t0.5 4v8v8q0 3 -2 7v3q0 2 -0.5 4.5t-0.5 5.5v3q0 9 1.5 17t1.5 16q0 3 -1 6t-1 5q0 3 1 6t1 6v1l-0.5 1l-1 2t-0.5 2v1v1q0 8 1 15t1 14q0 3 -1.5 5t-1.5 6q0 2 0.5 4t3.5 2h1h1q1 -1 3 -2.5t2 -2.5v-178q0 -9 -2.5 -14t-7 -8t-10.5 -4t-12.5 -1.5
t-13.5 0t-13 -0.5q-2 0 -5 -0.5l-3 -0.5v-23q0 -1 -1 -1.5t-2.5 -1t-2.5 -0.5h-2t-4 0.5t-3 2.5v23l-2 1h-18q-1 0 -3 0.5t-5 1t-5.5 0.5h-2.5q-3 0 -8.5 0.5t-10.5 1.5t-9 3t-5 6q-2 8 -3 17.5t-2 18.5q0 3 0.5 7.5t0.5 8.5t-0.5 8.5t-1.5 8.5q-1 0 -1.5 0.5l-0.5 0.5
q0 1 1 3l1 2v7q0 15 -2 30t-2 29q0 8 1 15.5t1 15.5q0 5 -1 9t-1 9v6zM81 249q0 1 1.5 1.5t2.5 0.5q2 0 4.5 -0.5t2.5 -3.5v-45l2 -1q5 1 9 1h8h5.5h5t4 -2t1.5 -5h-26q0 -6 3.5 -9t7 -4.5t6.5 -4.5t3 -8q-4 0 -8 1.5t-7.5 4t-6 6t-5.5 6.5l-1 0.5l-1 0.5q-2 0 -4 -1.5
t-2 -3.5q0 -9 4.5 -13t9.5 -6t9.5 -3t4.5 -4q0 -2 -1.5 -3t-3.5 -1q-3 0 -7.5 1t-9 3.5t-8 5.5t-4.5 7q-1 1 -1 4v5q0 4 2 8.5t2 8.5q0 10 -1 19.5t-1 19.5v14zM171 247q1 2 2 2h2q3 0 4.5 -1.5t2.5 -3.5t1 -4.5v-4.5q0 -8 -3 -16t-3 -16q0 -2 1.5 -3.5l3 -3t3 -2.5t1.5 -3
v-21q0 -5 -4.5 -8t-10.5 -4.5t-12 -2t-8 -0.5h-3.5h-2.5q-1 0 -1.5 0.5t-0.5 1.5v1q0 2 2.5 3t7 2t9 1.5t8.5 2t6.5 3.5t2.5 7v3v4t-1 3.5t-3 1.5h-1q-4 -5 -7.5 -8t-7.5 -5t-8.5 -2.5t-10.5 -0.5q-4 0 -4 3t2.5 4t5.5 2t6 1t5 1q1 1 2.5 1.5t3 1.5t3 1.5l1.5 0.5v7h-30
q0 4 4.5 6t10 2.5t10.5 0t7 -0.5q3 4 4 9.5t1 11.5t-0.5 12t-0.5 10zM89 141q0 2 1.5 3.5t3.5 1.5q3 0 5 -4.5t3.5 -10t2.5 -11t1 -7.5h-5l-1 1.5t-2 4l-2 5t-2 4.5l-0.5 1.5l-1 3l-1 3l-0.5 1.5l-1 1.5t-1 2.5zM122 141q0 3 1 4t4 1q2 0 4 -0.5t2 -3.5v-35q0 -1 0.5 -1.5
t1.5 -0.5q1 -1 3.5 -1.5t3.5 -0.5h42l5 -5l-3 -3h-23q-1 0 -1.5 -2t-0.5 -3q0 -3 2 -6.5t2 -6.5q0 -1 -0.5 -2.5t-1.5 -1.5q-4 0 -5.5 3t-2.5 7t-2 7.5t-3 3.5h-13l-2 -2v-2v-3q0 -7 2.5 -12.5t8.5 -8.5h6.5h8t8.5 -0.5t7 -1.5v-2q0 -2 -1 -3.5t-2.5 -2t-3.5 -0.5h-4
q-7 0 -13 1t-14 2q-4 2 -6.5 4t-4 5.5t-2 7.5t-0.5 8v3v2t-0.5 2t-2.5 3h-6q-6 0 -8 -3t-3 -7t-0.5 -9t-0.5 -9l-2 -2l-1 -1h-1h-1l-1 1.5l-1 1.5v28l-3 1q-3 0 -6.5 -0.5t-6.5 0t-5 2.5t-2 6h50l0.5 1.5t0.5 2.5q0 8 -1.5 16.5t-1.5 17.5zM153 110v29q0 2 2 4.5t5 2.5
q2 0 3.5 -2t1.5 -4t-1 -6.5t-3 -10t-4 -9.5t-4 -4z" />
</svg>
