<?xml version="1.0" standalone="no"?>
<!DOCTYPE svg PUBLIC "-//W3C//DTD SVG 1.1//EN" "http://www.w3.org/Graphics/SVG/1.1/DTD/svg11.dtd" >
<svg xmlns="http://www.w3.org/2000/svg" xmlns:xlink="http://www.w3.org/1999/xlink" version="1.1" viewBox="-10 0 266 256">
   <path fill="currentColor"
d="M81 196q1 4 3 9t4 11t5 12t6 11t6.5 8t7.5 3q2 0 3.5 -1.5t1.5 -3.5v-1v0q-6 -5 -11 -12.5t-9.5 -16t-7 -17t-2.5 -15.5q0 -10 3 -17t6 -13t6 -12.5t3 -14.5q0 -3 -1 -6t-2.5 -6t-2.5 -5.5t-1 -5.5l1 -1l1 -1q1 -1 3.5 -3l5 -4t4.5 -4.5t2 -4.5v-17q-3 -4 -3.5 -9
t-0.5 -10v-3l1 -1.5t2 -2.5t2.5 -2t1.5 -2h0.5h0.5q0 -2 -2 -2.5t-3 -0.5q-4 0 -7.5 2.5t-6.5 5t-6.5 4.5t-7.5 1q-1 0 -2 -2.5t-1.5 -5.5t-1 -5.5l-0.5 -2.5q0 -2 1 -4t1 -4q0 -3 -1.5 -6t-4.5 -3q-2 0 -3.5 1.5t-1.5 3.5q0 7 1 13.5t1 13.5v10q-5 3 -9 6t-6.5 6.5t-4.5 8
t-2 9.5q0 4 2 9.5t4.5 10.5t4.5 9.5l2 4.5q-1 4 -2 5.5t-2.5 3l-3 3t-2.5 4.5q-2 9 -3 17t-1 17v10q0 1 1.5 2t2.5 1q3 0 4 -3.5t1 -9v-12.5q0 -6 1.5 -11.5t5.5 -9t12 -3.5q0 -4 -1 -6t-1 -6v-1v-1l12 -12h0.5h0.5q3 0 4.5 2.5t2 5.5t0.5 6v5v4.5v4.5l-2 3q-3 6 -6 11
t-5 10t-3 11t-1 13v2v3.5v3.5v2zM152 196q0 7 2.5 13.5t5.5 13.5t7.5 12.5t8.5 9.5q3 2 6.5 2h6.5q0 -3 -1 -5t-2 -3l-2.5 -2.5t-4.5 -3.5q-2 -4 -5 -9t-5.5 -9.5t-4.5 -10t-2 -10.5q0 -4 2 -11.5t5.5 -14.5t7 -13.5t7.5 -9.5q0 -1 0.5 -4t0.5 -4t-0.5 -4t-0.5 -4t-1 -3.5
t-3 -5t-3 -5t-2 -3.5l-0.5 -1.5l-0.5 -1.5q0 -3 3 -4.5t7 -4t7 -7.5t3 -16q0 -7 -1 -13t-1 -12v-7q1 -2 3 -2.5l4 -1t3.5 -1t1.5 -3.5q0 -2 -1 -3.5t-3 -1.5q-4 0 -8 1.5t-8 2.5t-8.5 2.5t-8.5 1.5v-23q0 -2 -1.5 -3.5t-2.5 -1.5q-3 0 -4 1.5t-1.5 3.5t-1 4.5t-0.5 3.5
q0 4 1 7t1 7q0 3 -2 5t-5.5 3t-6.5 2.5t-4 4.5q-4 6 -4.5 12.5t-0.5 12.5q0 10 0.5 18.5t0.5 17.5v8.5t-1 7.5q-1 0 -2.5 3t-3.5 5.5t-3.5 5t-1.5 3.5q-1 3 -2.5 8.5t-3 12t-2.5 12.5t-1 9l0.5 1l0.5 1h1q4 0 6.5 -3.5t3.5 -9t1.5 -12t1.5 -12t3 -9t5 -3.5q2 0 3.5 1t3.5 1
q1 0 2.5 -0.5t0.5 -2.5q0 -1 -0.5 -2.5t-1 -3.5t-0.5 -3.5v-1.5v-1q0 -2 2 -5.5t5 -6t6.5 -4.5t5.5 -2t4 3t3.5 7.5t2 9t0.5 6.5q0 4 -2.5 9l-5.5 11t-6 11t-4.5 8.5t-1.5 7t-2 7.5q0 1 -0.5 2.5zM144 114q1 -7 0 -14t-1 -14v-2v-4.5t0.5 -7.5t0.5 -7v-5l1.5 -1.5l3 -3
t3.5 -3t4 -1.5t2.5 2.5t0.5 4.5q0 3 -0.5 5t-0.5 4q0 9 2.5 18t2.5 18q0 2 -2 4.5t-4 4t-4.5 2.5t-4.5 1h-1l-1 -0.5t-2 -0.5zM62 92l4 -16q0 -3 3.5 -4.5t6.5 -1.5q1 0 3 3.5t4 8.5t3 10t1 7v1v1l-12 13h-1q-2 0 -4 -3t-3.5 -7t-2.5 -7.5t-2 -4.5zM169 93q-2 -9 -2 -16.5
v-17.5v-5.5v-3.5l2 -2h10q1 0 2 1.5t2 3.5t1 3.5v2.5v15v15q-2 3 -3.5 5.5t-5.5 2.5q-2 0 -4 -0.5t-2 -3.5zM85 62q0 -2 2 -4t4 -3.5t4.5 -2.5t3.5 -1q3 0 5 3t3 7t1.5 8t0.5 6q0 3 -1 6.5t-2.5 6.5t-4 5t-6.5 2q-1 0 -2.5 -5t-3 -10.5l-3 -11t-1.5 -6.5z" />
</svg>
