<?xml version="1.0" standalone="no"?>
<!DOCTYPE svg PUBLIC "-//W3C//DTD SVG 1.1//EN" "http://www.w3.org/Graphics/SVG/1.1/DTD/svg11.dtd" >
<svg xmlns="http://www.w3.org/2000/svg" xmlns:xlink="http://www.w3.org/1999/xlink" version="1.1" viewBox="-10 0 266 256">
   <path fill="currentColor"
d="M145 209v4.5v8.5q0 4 0.5 9t1.5 9.5t2.5 7.5t4.5 3t3.5 -1t0.5 -4q0 -9 -2.5 -17.5t-2.5 -17.5q0 -13 4 -19t9.5 -10t12.5 -7.5t13 -11.5q3 -4 4.5 -9t1.5 -10v-10v-9v-19q-2 -7 -6 -9.5t-9.5 -4t-11 -1t-10.5 0.5t-9 -0.5t-5 -4.5v-2.5v-2.5v-5.5t1 -4.5q6 -1 11.5 -1.5
t11.5 -0.5t11.5 -0.5t11.5 -0.5q5 -2 5.5 -6.5t0.5 -9.5v-3q0 -3 -0.5 -6t-1.5 -5t-3 -2h-39q-3 0 -4 -3.5t-1.5 -7t-1.5 -7t-5 -3.5q-3 0 -3 2.5v4.5v6.5t1.5 6.5t3.5 5.5t6 2.5q1 1 4.5 1h7.5t7.5 0.5t4.5 0.5h6t5 1t3.5 3t1.5 6q0 5 -4 6t-10 1t-13 -0.5t-13 1t-10.5 6
t-4.5 14.5q0 1 0.5 3.5t1 4.5t2 3.5t3.5 1.5h4.5t7 0.5t7 0.5h4.5q9 1 14 2.5t7 4.5t2.5 8.5t0.5 13.5q0 11 -2.5 19t-7.5 13.5t-12 10t-16 10.5l-0.5 0.5l-0.5 0.5q-3 6 -5 13.5t-2 14.5zM90 192q0 5 1 13.5t3.5 16.5t6 15t9.5 9q1 1 3 -1t2 -3q0 -3 -1 -4.5t-3 -2.5
q-8 -11 -11 -23t-3 -26q0 -8 3 -15.5t6 -14l6 -13t3 -14.5q0 -5 -1.5 -11.5t-5.5 -11.5l-4 -4t-2 -6q0 -3 3 -5.5t7 -6t7 -7.5t3 -11q0 -5 -2 -9.5t-2 -10.5q0 -1 0.5 -2t1.5 -1.5t2 -1.5t1 -3t-2 -2.5t-4 -0.5q-4 0 -8 1t-9 1h-4t-3 -2v-3v-2q0 -4 0.5 -6.5t0.5 -5.5
t-3 -4.5t-5 -1.5q-3 0 -3.5 0.5t-0.5 4.5v24q0 1 -2 2.5t-3 2.5q-6 5 -10 8t-6 6.5t-3 9t-1 13.5q0 7 2 13t6 12l1 1t2 2.5t2 2.5l1 1q1 3 0 5t-3 4.5l-4 5t-2 3.5q-2 5 -2.5 9.5t-2.5 8.5v41q0 2 2 2h3q4 0 4.5 -2.5t1.5 -5.5v-7v-11v-10v-7t0.5 -5.5t1.5 -6.5t2.5 -5
t3.5 -2q3 0 4 1t4 1t3.5 -0.5t0.5 -4.5q0 -3 -2.5 -5t-2.5 -6q0 -1 1 -4t2.5 -5.5t3.5 -4t4 -1.5q3 0 5.5 3t4.5 7.5t3.5 9t1.5 6.5q0 7 -3.5 13t-6.5 12q-5 10 -7 18.5t-2 19.5zM134 132q7 1 12 1t10 0.5t9.5 0.5h9.5q1 0 4 -0.5t4 -0.5l1 -1t0.5 -1.5l-1.5 -1.5t-2 -1
l-20 -2t-21 -1l-1.5 -0.5t-3 0l-3 1t-1.5 2.5t3 4zM68 83v-7.5t1.5 -9t4 -8t6.5 -3.5h2t1 2q1 1 2 5t2 8.5t1.5 8.5t1.5 6q0 2 0.5 2.5t0.5 1v1.5v2t-1.5 4.5t-3.5 5.5t-4.5 4.5t-4.5 1.5q-2 -1 -4 -4.5t-3 -7.5t-1.5 -8t-0.5 -5zM91 53q0 -6 3.5 -6.5t7.5 -0.5t6.5 2.5
t3.5 5.5t2 7t1 6q0 3 -1.5 6.5t-3.5 6.5t-4.5 4.5t-4.5 1.5t-4 -4.5t-3 -10l-2 -11t-1 -7.5z" />
</svg>
