<?xml version="1.0" standalone="no"?>
<!DOCTYPE svg PUBLIC "-//W3C//DTD SVG 1.1//EN" "http://www.w3.org/Graphics/SVG/1.1/DTD/svg11.dtd" >
<svg xmlns="http://www.w3.org/2000/svg" xmlns:xlink="http://www.w3.org/1999/xlink" version="1.1" viewBox="-10 0 266 256">
   <path fill="currentColor"
d="M137 130q0 6 1.5 11.5t4 10t7 7.5t11.5 3q4 1 5.5 1h3.5h3t5 1q1 0 3 4t3 8.5l2 9t1 5.5l6 61h3q2 0 3.5 -2t1.5 -5v-1t-1 -1q0 -3 -0.5 -9.5t-1 -14.5t-1 -14.5t-1.5 -9.5q-2 -5 -2 -12t-1 -12q0 -6 -4 -9t-9.5 -5t-11 -2.5t-10.5 -2.5q-1 0 -3 -1t-3.5 -1.5t-2.5 -1
l-1 -0.5l-2 -5v-4v-6q0 -6 0.5 -11.5t2 -9.5t5 -6.5t10.5 -4.5q11 -2 18 -3.5t10.5 -5.5t4.5 -11t1 -20q0 -8 -3.5 -12t-9.5 -6t-12.5 -2.5t-12.5 -0.5h-3t-4 0.5t-4 0.5h-3t-3 1t-1 3q0 2 1.5 2.5t2.5 0.5q4 0 7.5 -1t8.5 -1t8.5 0.5t9.5 1.5q2 2 4.5 5t2.5 7v22l-1 5
l-1.5 0.5t-3 1.5l-3 2t-2.5 2q-4 2 -7.5 1.5t-7.5 1.5q-1 0 -3.5 1l-5 2t-4.5 1.5l-2 0.5q0 1 -0.5 1.5l-0.5 0.5q-3 4 -4 8.5t-4 7.5v2v3.5v3.5v2zM88 193q0 3 1 8t2.5 11.5t4.5 13t6 11.5t6.5 8t8.5 3v-5q-1 -2 -3 -5.5t-4 -8t-4 -8t-3 -5.5t-2 -5.5t-2 -7.5t-2 -7.5
t-1 -6.5q0 -9 3 -16t6.5 -13t6.5 -11.5t3 -11.5q0 -5 -2 -9.5t-4.5 -8.5t-4.5 -8.5t-2 -8.5t4 -7t8.5 -6.5t8.5 -8t4 -11.5q0 -4 -1.5 -8l-3 -8l-3 -8t-1.5 -8v-1.5v-0.5q2 -1 4.5 -1t5.5 -1t5 -2.5t2 -4.5t-3 -3q-5 0 -9 2t-8 4.5t-8 4.5t-8 2q-3 0 -3 -3q0 -4 1 -7.5
t1 -6.5t-2 -5t-4 -2h-2t-1 2v30l-0.5 0.5t-1.5 0.5q-2 1 -5.5 2t-6.5 3t-5.5 4t-4.5 4v1.5t-0.5 3t-0.5 3v1.5q0 1 -0.5 2t-1.5 1v5v5q0 10 2 21t7 20q-6 16 -11 31.5t-5 33.5v3v4v4v3l1 0.5t2 0.5q2 0 3.5 -2t2.5 -4q-1 -6 -1 -11t0.5 -10t1.5 -9.5t2 -10.5q0 -2 0.5 -5
t1.5 -6t2.5 -5t3.5 -2h1q0 1 1 2.5t1.5 3t1.5 3.5t2 3q0 1 2 1q3 0 4 -1t1 -4q0 -2 -1.5 -5l-3 -6l-3 -6t-1.5 -7v-2q0 -1 1.5 -2t3 -2.5t2.5 -3t2 -1.5q1 -1 2.5 -1.5t1.5 0.5q3 0 5.5 4t4 9l3 10t1.5 8t-1.5 6.5t-3.5 7l-4 7t-3 5.5q-2 5 -2.5 9.5t-3.5 8.5v2t-0.5 3
t-0.5 3v2zM70 79q0 -3 0.5 -7.5t2 -8.5t4.5 -6.5t7 -2.5h2t1 1q1 10 3 20t2 20v3v2l-12 9h-4q-3 -8 -4.5 -14.5t-1.5 -15.5zM94 61v-7t1.5 -5t3.5 -3.5t6 -3.5h1v0q1 0 2 0.5t1 1.5q1 1 2.5 3.5t3 6t2.5 6.5t1 5q0 3 -1 7.5t-2.5 8t-5 5.5t-7.5 2q-3 0 -4.5 -3t-2 -7.5
t-1 -9.5t-0.5 -7z" />
</svg>
