<?xml version="1.0" standalone="no"?>
<!DOCTYPE svg PUBLIC "-//W3C//DTD SVG 1.1//EN" "http://www.w3.org/Graphics/SVG/1.1/DTD/svg11.dtd" >
<svg xmlns="http://www.w3.org/2000/svg" xmlns:xlink="http://www.w3.org/1999/xlink" version="1.1" viewBox="-10 0 266 256">
   <path fill="currentColor"
d="M82 191q0 2 0.5 7t1.5 12l2 14t3 13t4.5 10t5.5 4q2 0 3 -3t1 -5q0 -1 -1.5 -5.5t-3.5 -9.5t-4 -9t-3 -5v-39q0 -5 2 -9.5t4.5 -8.5t5 -8.5t2.5 -9.5q0 -6 -2 -11t-4 -9t-3.5 -7.5t-1.5 -7.5q0 -3 3 -4.5t7 -4.5t7 -7.5t3 -12.5q0 -2 -1 -5t-1.5 -5.5l-1 -5t-0.5 -3.5
q1 0 2 -0.5t2 -0.5q0 -1 1 -1t2.5 -0.5t2.5 -1t1 -1.5q0 -3 -1.5 -4t-3.5 -1q-1 0 -1.5 0.5l-0.5 0.5q-1 0 -2 0.5l-2 1t-2.5 1l-1.5 0.5q-4 1 -9 1.5t-10 0.5q-2 0 -3 -1.5t-1.5 -3.5t-0.5 -4v-4q0 -5 1 -10l2 -10v-1q0 -3 -1.5 -4t-3.5 -1t-3 0.5t-2 2.5v14v14l0.5 2.5
t0.5 3.5q0 3 -2 4t-5 1.5t-7 1.5t-7 3.5t-5 8t-2 14.5q0 6 2 10l4 8t4 7t2 7q0 3 -2 7t-4.5 8t-4.5 8.5t-2 10.5v51q0 1 0.5 3.5t2.5 2.5t4 -1.5t3 -3t1.5 -4t0.5 -4.5q0 -8 -1.5 -15.5t-1.5 -15.5q0 -6 0.5 -10.5t2 -8.5t3.5 -8t4 -9h1q1 0 2.5 0.5t3.5 0.5t2.5 -0.5
t0.5 -3.5v-2q0 -1 -0.5 -2.5t-0.5 -2.5t1 -2.5t2.5 -3t3 -2.5t2.5 -1q3 0 5 3.5t3.5 8.5t2.5 10t1 8q0 4 -1.5 9.5t-3.5 11t-4.5 10.5t-4.5 10v13zM159 126q-1 1 -4 3.5t-6.5 5.5t-7 5.5t-4.5 3.5t-2.5 3t-3.5 3.5t-3 3l-1 1.5v20l0.5 1t1.5 2.5t2 2.5l2 2q2 3 4.5 5t5 3
t5.5 1h7h4h4q11 -2 15 -7t5 -12t0.5 -15t2.5 -17q1 -3 4 -5t5.5 -3.5t5 -3.5t2.5 -4l-0.5 -0.5l-0.5 -0.5q0 -1 -1 -2l-1 -1h-1q-4 0 -7.5 2.5t-6 5.5t-4 7t-2.5 8q-1 2 -2 7l-2 10l-2 10t-1 7q-2 2 -4 3t-4.5 2t-5 1h-4.5q-3 0 -7 -2t-7 -5t-4.5 -7t-1.5 -8q0 -6 3 -10
t6.5 -7t8.5 -5.5t9 -6t6.5 -8t2.5 -10.5q0 -5 -1 -7.5t-1 -7.5q0 -1 0.5 -3.5t3.5 -2.5h32q3 0 4 -1.5t1 -3.5q0 -4 -5 -4q-4 0 -11 0.5t-16.5 1.5t-19 1.5t-17.5 2t-13 3t-5 2.5q0 2 2 2.5t3 0.5h1q1 0 4.5 -0.5l7 -1l7 -1t4.5 -0.5h3q5 0 7 4t2 8q0 5 -0.5 9.5t-3.5 8.5z
M57 80q0 -3 1.5 -6.5t3.5 -6t5 -4t6 -1.5t4.5 3.5t2.5 8.5t1 9v7v11q-2 3 -5.5 4.5t-6.5 1.5q-2 0 -3 -1t-2 -2.5t-1.5 -3t-1.5 -2.5q0 -1 -0.5 -3t-1 -5t-1.5 -5.5t-1 -3.5v-1zM88 92q0 -7 -1.5 -14.5t-1.5 -14.5q0 -4 4 -5t8 -1l2 0.5t3 0.5q2 4 3 10.5t1 10.5q0 6 -4 11
t-10 5h-1zM133 62q1 2 2.5 2.5t2.5 0.5q16 0 30 -1.5t29 -1.5l2 -1t2 -2q0 -3 -2.5 -4t-4.5 -1t-7 0.5t-12 1l-14 1t-13 1.5t-10 2t-5 2z" />
</svg>
