<?xml version="1.0" standalone="no"?>
<!DOCTYPE svg PUBLIC "-//W3C//DTD SVG 1.1//EN" "http://www.w3.org/Graphics/SVG/1.1/DTD/svg11.dtd" >
<svg xmlns="http://www.w3.org/2000/svg" xmlns:xlink="http://www.w3.org/1999/xlink" version="1.1" viewBox="-10 0 266 256">
   <path fill="currentColor"
d="M82 202q0 2 1.5 7t3 11t2.5 11t2 7l0.5 2.5t1.5 5t2.5 4t3.5 1.5t4 -1t2 -4v-1q-6 -13 -10 -28.5t-4 -30.5q0 -8 0.5 -17t5.5 -16q2 -3 4.5 -6t5 -5.5t3.5 -6t1 -7.5q0 -5 -1.5 -8t-4 -6t-5 -5.5t-3.5 -7.5l2.5 -2.5t3 -3.5t3 -3.5l2.5 -2.5q1 -2 1.5 -6.5t0.5 -6.5
q0 -5 -1 -9.5t-1 -9.5q0 -4 2.5 -5.5t6 -1.5t6 -1t2.5 -4q0 -2 -1.5 -3.5t-4.5 -0.5t-7 2.5t-8.5 2.5l-9 2t-7.5 1h-2t-2 -2v-3.5v-3.5q0 -7 1 -13.5t1 -13.5h-3t-3.5 0.5t-3 1.5t-1.5 3v32l-8 4t-8 5.5t-6.5 7.5t-2.5 8q0 3 0.5 6t1 5.5t1.5 6t2 6.5q3 3 7 8t4 10
q0 4 -1.5 8t-3 7t-3.5 6t-3 6q-3 9 -4 20t-1 19q0 3 1 4.5t4 1.5q4 0 5.5 -3.5t2 -8.5t0 -9.5t0.5 -6.5q0 -1 0.5 -3.5t1 -5.5t1.5 -6t1 -5q1 -1 2 -4.5t1 -4.5l2 -2h1q3 0 5 2.5t5 2.5q2 0 3.5 -0.5t0.5 -2.5q0 -2 -1.5 -3.5t-2.5 -3l-2 -3t-1 -3.5q0 -1 1 -3.5t2.5 -4.5
t3.5 -3.5t3 -0.5q3 1 5.5 3.5t4 5.5t2.5 6.5t1 6.5q0 4 -2 7.5t-4.5 7l-5 7t-4.5 7.5q-3 8 -4 17t-1 18q0 1 0.5 4.5t0.5 4.5zM109 162q0 2 0.5 2.5t2.5 0.5q4 0 13.5 -0.5t20.5 -1t20.5 -0.5t13.5 -1h2t4 -0.5t4 -0.5h2h13q1 0 1 -1.5v-2.5q0 -3 -2.5 -4t-4.5 -1h-2h-1
h-2.5t-3.5 0.5t-3.5 0.5h-1.5q-3 0 -10.5 0.5t-15.5 1t-15.5 1t-10.5 0.5h-14q-3 1 -6.5 2t-3.5 4zM128 77v15q0 7 1 14.5t4 14t9 11.5h2h5h4h3q11 0 17.5 -1t10 -4.5t4.5 -9.5t1 -17v-5.5v-4.5q0 -2 -0.5 -6.5t-1 -9.5t-0.5 -9.5t-1 -6.5q-3 -7 -9 -9.5t-13 -2.5
q-6 0 -11.5 0.5t-10 2.5t-8.5 5t-6 9v14zM138 106l0.5 -3t0.5 -4q7 -4 16.5 -4h18.5q4 0 5 3t1 7q0 5 -0.5 10t-5.5 7q-1 1 -3.5 1t-5 1t-5 1.5t-3.5 0.5h-1q-10 0 -14 -5.5t-4 -14.5zM60 79q0 -3 0.5 -5.5t2.5 -4.5t5 -4l3 -2l5 4q0 1 0.5 4t1.5 5.5t1.5 5.5t0.5 4l1 1.5
t1.5 3t1.5 3l1 1.5v2q0 4 -4 7t-8 3q-3 0 -5.5 -3.5t-4.5 -8t-2.5 -9.5t-0.5 -7zM85 64v-4v-3q2 -2 3.5 -2h4.5t5 2.5t3 5.5t1 7v6t-0.5 4.5t-1.5 4.5t-2.5 3.5t-4.5 1.5t-4.5 -3t-2.5 -7.5t-1 -9v-6.5zM135 82q0 -9 1.5 -14.5t4.5 -8t8.5 -3.5t13.5 -1h4.5h4.5q3 2 4 4.5
t2 6t1 7v5.5v3.5v2.5l-2 2h-1.5t-3.5 0.5t-4 0.5h-3h-13h-13q-3 -1 -3.5 -2t-0.5 -3z" />
</svg>
