<?xml version="1.0" standalone="no"?>
<!DOCTYPE svg PUBLIC "-//W3C//DTD SVG 1.1//EN" "http://www.w3.org/Graphics/SVG/1.1/DTD/svg11.dtd" >
<svg xmlns="http://www.w3.org/2000/svg" xmlns:xlink="http://www.w3.org/1999/xlink" version="1.1" viewBox="-10 0 266 256">
   <path fill="currentColor"
d="M93 246l2.5 2.5l2.5 2.5q2 0 3.5 -2.5t1.5 -3.5v-1q-1 0 -1.5 -2.5t-1 -4.5t-0.5 -4v-3q-2 -5 -2 -11.5t-3 -11.5v-4v-5v-6v-4v-5v-6v-5v-3q0 -7 4 -14l8 -14q2 -2 2.5 -3.5t0.5 -3t0.5 -2.5t2.5 -3v-15q-1 -2 -3 -4.5t-3.5 -5.5t-3 -5.5t-1.5 -4.5v-1t1 -2q5 -5 8 -9.5
t5 -9.5t2 -11.5v-14.5q2 -2 4.5 -3.5t2.5 -4.5q0 -4 -4 -4q-7 0 -14 1t-15 1q0 -4 0.5 -8.5t0.5 -8.5q0 -3 -1.5 -5t-3.5 -2h-3t-2 1v30l-1 0.5t-2 0.5q-9 4 -14.5 9t-5.5 16q0 5 0.5 10.5t2.5 10.5q0 1 1.5 3t2.5 4.5t1.5 4.5t0.5 4q0 1 -1 3t-2.5 4.5t-2.5 4.5t-1 3
q-5 11 -6.5 24.5t-1.5 25.5v2.5t0.5 5.5t2 5t3.5 1q1 0 2.5 -2t2.5 -3v-7t0.5 -11t0.5 -11.5v-7.5q0 -1 0.5 -4t1 -7t1.5 -6.5t4 -2.5h1q1 0 2.5 1l3 2l3 2t2.5 1q2 0 2.5 -1.5t0.5 -2.5q0 -4 -3 -7t-3 -7q0 -2 1 -4.5t3 -4.5t4 -3t4 -1h1q0 2 2 4.5t4 5.5t3 5.5t1 5.5
q0 5 -1.5 10t-4 10l-5 10t-4.5 10q-2 7 -3 15.5t-1 17.5q0 6 0.5 13t2 14.5t2.5 14t2 12.5zM110 176q0 1 1 2t2.5 1h3.5h2h6l2 -0.5l4 -1l4 -1l2 -0.5q7 -1 15 -2l16 -2t16 -1h15q1 0 2.5 -2t2.5 -3v0v0v-1l-2 -2l-1 -1h-15l-3 -3v-110q0 -4 -2.5 -5.5t-6 -2.5t-7.5 -1h-5
h-5.5t-7 1t-6 2.5t-3.5 4.5l-1 20v98l-2 2q-2 2 -6.5 1.5t-9 -0.5t-8 1t-3.5 6zM146 140q0 -5 2 -8t5.5 -4.5t7.5 -1.5h9h3q2 6 2 10v10v4v6.5t-1.5 6t-4.5 2.5h-19q-1 0 -1.5 -3.5t-1 -8t-1 -8.5t-0.5 -5zM146 115q0 -3 0.5 -6t1 -5.5t0.5 -5.5v-7q4 -3 10.5 -3.5
t11.5 -0.5h3l2 3v24q0 2 -2.5 3.5t-6 2t-6.5 0.5h-5h-5q-3 -2 -3.5 -2.5t-0.5 -2.5zM74 96q-3 -7 -3.5 -11.5t-0.5 -11.5q0 -3 0.5 -6.5t1.5 -6.5t3 -4.5t6 -1.5h2h1q2 9 3 18l2 18v2q0 1 -1.5 2t-3.5 2t-4 1.5l-2 0.5h-1q-1 0 -2 -0.5t-1 -1.5zM92 52q0 -2 1 -3t3 -2t4 -1
h3q3 0 4.5 1.5t2 3.5t0.5 5v4q0 3 -0.5 7t-2 7.5t-4 6.5t-6.5 3q-1 0 -2 -1.5t-1.5 -3.5t-0.5 -3v-2v-3t-0.5 -6t-0.5 -6v-5v-2zM146 76v-19l2 -3t3 -5l0.5 -0.5l0.5 -0.5h17q2 0 4 2t2 4v22l-3 3h-22z" />
</svg>
