<?xml version="1.0" standalone="no"?>
<!DOCTYPE svg PUBLIC "-//W3C//DTD SVG 1.1//EN" "http://www.w3.org/Graphics/SVG/1.1/DTD/svg11.dtd" >
<svg xmlns="http://www.w3.org/2000/svg" xmlns:xlink="http://www.w3.org/1999/xlink" version="1.1" viewBox="-10 0 266 256">
   <path fill="currentColor"
d="M160 185q0 5 0.5 14.5t1.5 19.5t2.5 19t4.5 13q1 0 2 0.5t2 0.5q3 0 4 -0.5t1 -3.5q0 -5 -2 -9t-3 -9v-4v-6.5t-0.5 -6t-0.5 -3.5q-1 -7 -3 -14t-2 -14q0 -9 2.5 -15t5.5 -10t7 -6.5t8 -6t7.5 -8t6.5 -11.5v-6v-9v-9v-6v-24t-2 -24q-1 -2 -4.5 -4.5t-6.5 -2.5l-26 -4v-18
q0 -1 -1.5 -1.5l-1.5 -0.5q-2 0 -3.5 1t-1.5 3v17l-1 0.5t-2 0.5q-11 5 -16.5 8.5t-7.5 8t-1.5 12.5t0.5 21v21q3 6 3 10.5t0.5 8.5t2 8t7.5 9q1 0 2 1l1 1h17l0.5 -1l0.5 -1v-1v-1q-1 -1 -2.5 -1.5l-3 -1t-3 -0.5h-1.5q-8 -2 -11.5 -9.5t-5 -17t-1 -19t0.5 -15.5v-4v-6.5
v-5.5v-5q2 -5 6.5 -7.5t9.5 -3t10.5 -0.5h8.5h4h5h5.5h3.5q3 3 4.5 7t2.5 7v18q0 8 0.5 16.5t-0.5 16.5t-4 15.5t-9 12.5q-8 6 -12.5 9.5t-6.5 8t-3 10.5t-1 17zM82 183q0 3 0.5 9t1.5 13.5t2.5 15.5t4 14.5t5.5 10.5t6 4q2 0 3 -2t1 -4v-2v-2l-0.5 -1t-1.5 -2.5t-1.5 -2.5
t-1.5 -1q-3 -8 -4 -14.5t-3 -14.5q-1 -3 -1 -7t-2 -6v-8q0 -3 0.5 -8l1 -10t1 -9.5t1.5 -7.5q2 -4 4 -7.5t3.5 -7t2.5 -7t1 -7.5q0 -8 -3 -13.5t-6 -11.5v-3q0 -2 3 -3t6 -3t6 -6t3 -12q0 -6 -2.5 -11t-2.5 -10q0 -2 2 -2.5l4 -1l4 -1t3 -0.5v-7q-5 0 -9 1t-8 2.5t-8 2.5
t-8 1q0 -8 0.5 -13.5t0.5 -12.5q0 -2 -2 -2.5t-3 -0.5q-3 0 -3.5 5t-1 11t-0.5 12t-2 7q0 1 -2.5 1.5t-3.5 0.5q-6 3 -9 8t-3 12q0 8 2.5 16t2.5 16q0 3 -2 5.5t-3.5 5.5t-3.5 5t-3 5q-1 1 -1.5 4t-0.5 6v5.5v4.5v12q0 2 0.5 7t1 11t1 11t0.5 7h7l1 -1.5t1 -2.5q1 0 1.5 -2
l0.5 -2q0 -9 -2.5 -16t-2.5 -16v-7.5t0.5 -11t2 -10t5.5 -4.5q1 0 1.5 1t1.5 1.5t3.5 1.5t5.5 1q0 -5 -2.5 -8.5t-2.5 -7.5q0 -5 3.5 -6.5t6.5 -1.5q7 0 10 5.5t3 12.5q0 6 -2 11.5t-4.5 11t-5 11.5t-3.5 12q-1 3 -1.5 5.5t-0.5 5v4.5v6zM148 87v7q0 6 0.5 11.5t2 10.5
t5.5 6h9h4t6 -1t5.5 -2.5t2.5 -4.5v-45q0 -1 -0.5 -2t-1.5 -2.5t-2 -2.5t-2 -1h-21q-2 0 -3.5 2t-2.5 4t-1.5 4.5t-0.5 3.5v12zM155 101q0 -2 1.5 -3t3.5 -2t4 -1h4q4 0 6.5 2t2.5 6q0 6 -3.5 9.5t-8.5 3.5q-6 0 -8 -5t-2 -10zM70 70q0 -2 0.5 -4t1.5 -4.5t2.5 -4t3.5 -1.5
q1 0 1 0.5v0.5q1 0 2 1t1 2q0 6 2.5 12t2.5 13q0 5 -4 6.5t-9 1.5q-2 0 -2 -1t-1 -4v-3v-4.5t-0.5 -5.5t-0.5 -4v-1zM169 68q3 0 4.5 1.5t2 3.5t1 4.5t0.5 4.5v2t-0.5 2l-1 2t-2.5 1h-17v-15q0 -2 1.5 -3.5t4 -2t4.5 -0.5h3zM91 60v-8q1 -3 3 -3h4q4 0 5.5 1.5t2.5 4
t1.5 5.5t0.5 6q0 6 -2.5 10t-8.5 4q-3 0 -4 -2.5t-1.5 -6t-0.5 -6.5v-5z" />
</svg>
