<?xml version="1.0" standalone="no"?>
<!DOCTYPE svg PUBLIC "-//W3C//DTD SVG 1.1//EN" "http://www.w3.org/Graphics/SVG/1.1/DTD/svg11.dtd" >
<svg xmlns="http://www.w3.org/2000/svg" xmlns:xlink="http://www.w3.org/1999/xlink" version="1.1" viewBox="-10 0 266 256">
   <path fill="currentColor"
d="M85 196v21q0 3 1 9t3.5 11.5t5.5 9.5t7 4q2 0 3.5 -1.5t1.5 -2.5q-2 -4 -4 -7t-4 -6.5t-3 -7t-1 -8.5v-3v-7.5t0.5 -11.5t0.5 -12v-8q2 -5 5.5 -9t7.5 -8.5t7 -9.5t3 -10q0 -6 -3 -11.5t-5.5 -10.5t-5.5 -9.5t-3 -9.5q0 -2 0.5 -3t1.5 -2q3 -2 6 -3.5t6.5 -3.5t5.5 -5
t3 -7l-0.5 -1.5t-1 -3.5l-1 -4t-1.5 -3q0 -1 -0.5 -3t-0.5 -3v-1v0q1 -2 2.5 -2.5t4 -0.5h3.5h2q0 -1 0.5 -1.5t0.5 -1.5q0 -2 -0.5 -3t-3.5 -1h-39q-1 0 -1 -0.5t-0.5 -1.5t0 -2l0.5 -1v-5v-2.5t0.5 -5t0.5 -4.5v-2q0 -3 -1 -6t-4 -3q-2 0 -3 2t-1 5v33l-3.5 2.5t-7.5 5.5
t-7.5 7.5t-3.5 9.5q0 7 2 12.5t4.5 10t4 9.5t1.5 11q0 2 -1 4t-2.5 4.5t-3.5 4.5t-2 4q-6 12 -9.5 26t-3.5 28v5v5q1 2 2 2.5t3 0.5h2t1 -2q1 -13 4.5 -25.5t6.5 -25.5q1 -1 2.5 -4l3 -6t3 -5.5t2.5 -2.5q3 2 3.5 3l1 2t1.5 1.5t4 0.5q1 0 1 -1.5v-2.5q0 -3 -1 -4.5t-2 -3.5
l-2 -4t-1 -4q0 -5 3 -8.5t6 -5.5h2q2 0 4.5 3t4.5 7.5t3.5 9t1.5 6.5q0 8 -2.5 13t-6.5 9.5l-8 9t-7 10.5v22zM142 163v8t1 12.5t3.5 11t7.5 4.5h21q5 0 8.5 -3.5t5.5 -9t2.5 -11t0.5 -9.5q0 -12 -1 -21.5t-1 -21.5q1 -2 -1 -2.5t-3 -0.5h-2h-2v12q0 6 -3 11q0 1 -0.5 1.5
l-0.5 0.5h-26v-22q0 -2 -2 -2.5t-4 -0.5q-1 0 -1.5 0.5l-1.5 1.5v6v9v9v5v2.5t-0.5 3t-0.5 3v1.5v2zM150 163v-2.5t0.5 -3.5t1.5 -3t2 -1h24l0.5 0.5l1 1t1.5 2.5t1 3q1 1 1 4v5q0 4 -1 8t-3 7t-5 5t-8 2t-8.5 -2.5t-5 -6.5t-2 -9t-0.5 -10zM173 55q1 6 3.5 11.5t5 10.5
l5 10t5.5 10q1 2 1.5 6.5t1.5 8.5t3 7t6 3q2 0 3 -2.5t1 -4.5l-0.5 -0.5l-0.5 -0.5q-6 -13 -11.5 -24t-9.5 -24q-1 -2 -3 -8t-4.5 -12.5t-4.5 -11.5l-2 -5q-4 0 -7 6t-6 14t-5.5 15.5t-3.5 9.5q-1 1 -2 2.5l-2 3l-2 3l-1 1.5q-1 2 -4 6.5t-6 9.5t-6 9.5t-3 5.5q0 3 1.5 3.5
t4.5 0.5q2 0 6 -5t7.5 -12t7.5 -15.5t7.5 -16t6 -12.5t4.5 -5h2q2 0 2 2zM67 76q-1 -2 0 -4.5t3 -4.5t4 -3t4 -1t4 4t4 9t3 10t1 7v2v2q0 1 -1.5 2.5l-3 3l-3 3l-1.5 1.5q-1 1 -2 1.5l-1 0.5q-2 -1 -3.5 -3.5t-2.5 -5.5t-1.5 -6l-0.5 -3q-1 -2 -1.5 -4t-1 -4.5t-0.5 -4v-2.5
zM151 102v2.5t2 1.5h17q1 -1 3 -2t4 -1.5l4 -1t3 -0.5v-1.5v-0.5q0 -3 -2.5 -3h-4.5q-6 0 -12 1l-12 2q-2 0 -2 1v2zM90 59v-3.5t2 -2.5h17q1 0 1.5 2.5t1.5 5.5t1.5 6t0.5 4q0 3 -1.5 6t-3.5 5.5t-4.5 4t-5.5 1.5q-2 0 -4 -4t-3 -9t-1.5 -10t-0.5 -6z" />
</svg>
