<?xml version="1.0" standalone="no"?>
<!DOCTYPE svg PUBLIC "-//W3C//DTD SVG 1.1//EN" "http://www.w3.org/Graphics/SVG/1.1/DTD/svg11.dtd" >
<svg xmlns="http://www.w3.org/2000/svg" xmlns:xlink="http://www.w3.org/1999/xlink" version="1.1" viewBox="-10 0 266 256">
   <path fill="currentColor"
d="M83 188q0 13 1.5 24.5t3.5 24.5q1 1 1 3.5t0.5 5t2 4t4.5 1.5q2 0 3.5 -2t1.5 -4q0 -8 -3 -16t-4 -16q-1 -9 -1 -19v-20q0 -16 4 -30t11 -28q1 0 1.5 -1l0.5 -1q0 -1 0.5 -3.5t0.5 -3.5t-0.5 -4l-0.5 -3q0 -1 -1 -3l-2.5 -5l-2.5 -5t-2 -3v-1q6 -3 10.5 -7t8.5 -9v-4v-4
q0 -5 -1 -9t-1 -8q0 -3 1.5 -4t3.5 -1.5t3.5 -1.5t1.5 -3t-2 -3t-3 -1q-7 0 -13 2t-13 2v0q-1 0 -1.5 -0.5l-0.5 -0.5q0 -2 0.5 -5t0 -6.5t-1.5 -5.5t-5 -2h-2t-1 3v21q0 2 -3.5 3.5t-8.5 3.5t-9 5.5t-6 8.5q1 5 2.5 10l3 10l3 10t1.5 10v3q-1 0 -2 1t-2 2.5l-2 3l-1 1.5
q-5 10 -9.5 21.5t-4.5 23.5v3v2q1 1 2 1.5t3 0.5t3 -0.5t2 -2.5q0 -2 0.5 -6.5t1.5 -9.5t2 -9.5t2 -6.5l0.5 -1.5t1.5 -3.5l2 -4l2 -4q1 0 2 -2l1 -2h0.5h0.5h0.5h0.5l1 1l2 2l2 2l1 1h1q3 0 3.5 -1.5t0.5 -3.5v-3l-1 -3l-1 -3q0 -1 1 -2.5l2 -3l2 -3t3 -1.5t4 2.5t2.5 5
t1 5.5t0.5 5q0 4 -1.5 7.5t-3 7.5t-3.5 7.5t-3 7.5q-5 12 -6 24.5t-1 25.5zM115 242v4t3 2t5 -3.5t3 -6.5v-7.5t0.5 -11.5t0.5 -11v-7q0 -1 1 -4.5l1 -3.5q1 -11 1.5 -21t1 -19.5l1 -19t2.5 -19.5q0 -1 0.5 -4.5t1 -8t1 -8t0.5 -4.5q2 -5 6 -7t8 -3q3 0 7 -1t8.5 -1.5
t7.5 -1t4 -0.5h4h6h6h4l5 -2.5t3 -4.5v-1.5t-2 -1.5h-19q0 -4 1 -6.5t3 -5.5t3.5 -6t1.5 -6q0 -5 -3 -7.5t-7 -4.5t-8.5 -3t-7.5 -3q-2 -2 -4 -4.5t-6 -2.5t-4 5q0 2 1 3.5t1 4.5q0 5 -3.5 8t-7.5 5.5t-7.5 4.5t-3.5 5v3t1 2q5 -1 9.5 -5t8.5 -7.5t8 -6.5t7 -3q6 0 9.5 2.5
t3.5 7.5q0 4 -2 7t-5 7q-3 6 -8 8t-10.5 3.5t-11 2.5t-10.5 5q-4 4 -6 8.5t-2.5 10t-0.5 10.5v10q-2 27 -4 53l-4 52l-2 10t-1 10zM152 143q0 7 2 10.5t5.5 5t7 2t7.5 1.5t7.5 2.5t4.5 6.5q2 2 2.5 9t1.5 15t2 17.5t1 16.5t0.5 12l0.5 5h8q1 0 1.5 -1t0.5 -2v-3v-1v-4
l-0.5 -1.5t-1 -2.5t-0.5 -2.5v-1.5q0 -1 -0.5 -7t-1 -13l-1 -14t-0.5 -10q-1 -7 -1.5 -13t-4.5 -12q-3 -3 -8 -4t-10 -1.5t-8.5 -2.5t-3.5 -7q0 -6 3 -8.5t7 -3.5t9 -1.5t9.5 -1.5t7.5 -4.5t3 -10.5v-3.5t-0.5 -5.5t-1.5 -5t-3 -2h-40q-2 0 -4 1t-2 3v3t1 2h4h4l2 -0.5
t3 -0.5l1.5 0.5l1.5 0.5v16q0 1 -2.5 3t-5.5 4.5t-5.5 6t-2.5 7.5zM184 106q4 0 6 2t3 6q-2 5 -4 5.5t-6 0.5l-1.5 0.5t-3 0t-1.5 -1.5v-11q0 -1 0.5 -1.5t1.5 -0.5h2h3zM71 60q0 -2 1 -4t2.5 -4t3 -3t3.5 -1t4 3.5t4 8.5t3 10t1 7q0 1 -1.5 2.5t-3 3.5t-3.5 3t-4 1t-4 -3.5
t-3.5 -8t-2 -9t-0.5 -6.5zM99 70q-1 -6 -1 -10v-9v-7q2 -4 6 -4q2 0 4 2t3 5t1 6v5q0 4 -3 9t-8 5v0v0q-1 0 -1.5 -1z" />
</svg>
