<?xml version="1.0" standalone="no"?>
<!DOCTYPE svg PUBLIC "-//W3C//DTD SVG 1.1//EN" "http://www.w3.org/Graphics/SVG/1.1/DTD/svg11.dtd" >
<svg xmlns="http://www.w3.org/2000/svg" xmlns:xlink="http://www.w3.org/1999/xlink" version="1.1" viewBox="-10 0 266 256">
   <path fill="currentColor"
d="M165 168v5v5v5v2l0.5 4t2 9t2.5 10t2 8q1 2 2 7.5t3 11t4.5 10t5.5 4.5q2 0 3.5 -1t1.5 -3v-1.5v-0.5l-16 -42q0 -2 -0.5 -5.5t-0.5 -4.5t-0.5 -2l-1 -2l-1 -2l-0.5 -1q-1 -6 -1.5 -12t-0.5 -12v-3.5v-5t1.5 -4.5t3.5 -2h0.5h0.5q2 3 4.5 6t5 5.5t5.5 4.5t7 2
q0 -7 -4 -11l-8.5 -8.5t-8.5 -9.5t-4 -13q0 -5 2.5 -10.5t5 -10.5t5 -10.5t2.5 -11.5q0 -1 -1 -2.5t-3 -1.5h-1l-1 2q-3 3 -3.5 7.5t-1.5 8.5t-2.5 8t-4.5 7v0q-2 0 -3.5 -3.5t-2.5 -8t-2 -10.5t-2 -11t-1 -9v-5v-3v-3l3 -2h9.5t10.5 -2v-1v-1v-2.5t-2 -1.5h-21l-0.5 -0.5
l-0.5 -0.5v-4q0 -5 3.5 -6.5t7.5 -2t7.5 -1.5t3.5 -5v-11q-3 0 -4.5 2t-2.5 4.5t-3 4.5t-6 2q-3 0 -4 -2.5t-1 -4.5v-5.5t-3 -2.5t-4 3v12v5t-0.5 6t-0.5 5v2l-3 3q-12 0 -23.5 1t-23.5 1h-4h-5q-3 0 -6 -0.5t-4 -0.5t-1.5 -1.5t-1.5 -3t-2 -2.5t-3 -1q-3 0 -3.5 2t-0.5 4
q0 7 0.5 14t1 14.5t1.5 14t1 12.5q0 16 -1 33.5t-3.5 35.5t-5.5 35.5t-7 32.5v2v1.5t1 1.5q4 0 7 -5.5t4.5 -13t2.5 -14.5t2 -9q0 -2 0.5 -7t1.5 -10.5t1.5 -10.5t0.5 -8v-3v-4t0.5 -7t1 -13t1 -12.5t0.5 -7.5v-2.5v-3.5q0 -13 -0.5 -25.5t-0.5 -25.5q0 -3 1 -4t3 -1h4h4
l26 -2t26 -1h4h3l1 1v17l-3 2h-2t-5.5 0.5t-6.5 0.5h-6q-2 0 -9 0.5l-14 1t-12 2t-5 4.5q14 0 28 -1t28 -1q6 0 8.5 2t3.5 5t1 7t1 8.5t2.5 7.5t2.5 6t1.5 6.5t0.5 8.5q0 9 -0.5 18t-0.5 19zM122 212q0 3 1 8t2.5 10t4.5 9t6 4q2 0 3.5 -1.5t1.5 -3.5q0 -3 -2 -6.5l-4 -7
t-4 -7.5t-2 -9q0 -7 3 -11.5t6.5 -9.5t6.5 -9.5t3 -11.5v-2v-3t-0.5 -3.5t-1.5 -2.5l-11 -11v-1q0 -2 1.5 -3.5t4 -2.5t4.5 -1.5t3 -1.5q0 -1 0.5 -3t1 -4.5t0 -4t-0.5 -2.5q0 -6 -1 -12l-2 -12l-2 -2q-3 1 -5.5 2t-4 1.5t-3.5 0.5h-4q-5 0 -6 -2t-0.5 -4.5t0.5 -4.5t-2 -2
q-3 0 -3.5 2.5t-1 6l-1 7t-2.5 4.5q-1 1 -2.5 2t-2 1.5l-2 2l-3 3l-3 3l-1.5 1.5v9q0 3 0.5 6.5t2 6.5t2.5 6t1 6q0 6 -3 9.5t-5 7.5q-3 8 -5.5 17t-2.5 17q0 3 1 3.5t2 0.5q2 0 3.5 -1t1.5 -4l3 -26l1 -2.5t2 -4.5t2.5 -4t2.5 -2l1 0.5l1 0.5l7 7h0.5h1.5t2.5 -0.5
t1.5 -2.5q-1 -1 -2.5 -4.5t-2.5 -4.5l-1 -1l-1 -1v-1q0 -2 2 -3.5t4.5 -3t4.5 -2t4 -0.5v0q5 3 9 8t4 11t-3 10t-6.5 8.5t-7 11t-3.5 16.5zM102 125q0 -4 3 -8.5t7 -4.5q2 0 3 0.5t1 2.5q1 1 1.5 3.5t1 6t1.5 6t1 3.5l0.5 1t0.5 2v0v1q0 4 -3.5 5.5t-7.5 1.5q-3 0 -5 -2
t-2.5 -5t-1 -6.5t-0.5 -6.5zM122 112v-5q3 -2 5.5 -2.5t5.5 -0.5t5 1.5t3 4t2 5.5t1 5q0 6 -4.5 10t-9.5 4q-3 0 -4.5 -2.5t-2.5 -6.5t-1 -7.5v-5.5z" />
</svg>
