<?xml version="1.0" standalone="no"?>
<!DOCTYPE svg PUBLIC "-//W3C//DTD SVG 1.1//EN" "http://www.w3.org/Graphics/SVG/1.1/DTD/svg11.dtd" >
<svg xmlns="http://www.w3.org/2000/svg" xmlns:xlink="http://www.w3.org/1999/xlink" version="1.1" viewBox="-10 0 266 256">
   <path fill="currentColor"
d="M91 199q0 3 1.5 11.5t3.5 17.5t5.5 16t8.5 7q2 0 3 -1.5t1 -4.5t-2.5 -6.5t-5.5 -6.5q-5 -8 -6.5 -17.5t-1.5 -18.5v-10q0 -2 0.5 -3t2.5 -2q0 -1 0.5 -4t1.5 -6l2 -6t1 -4q1 -1 2 -3.5t2 -2.5v-3v-4v-4v-2v-9.5t-2 -10.5q-1 -3 -2.5 -5t-2.5 -4.5t-2 -4.5t-1 -6
l0.5 -1.5l0.5 -1.5l13 -9l3 -6v-23q-2 -4 -2.5 -6.5t-0.5 -6.5q0 -3 2 -3.5l4 -1t3.5 -1.5t1.5 -4v-1q-1 0 -2 -0.5l-1 -0.5l-29 6l-1 -0.5t-2 -0.5q0 -1 -0.5 -1.5l-0.5 -0.5v-22q0 -3 -3 -4t-5 -1v35l-1.5 0.5l-1.5 0.5q-1 1 -4.5 2.5t-6.5 2.5t-6 2.5t-5 1.5
q0 1 -0.5 1.5l-0.5 0.5q0 1 -2 3.5t-3 2.5v5.5v5.5q0 8 2.5 14.5t6 12.5t6 11t2.5 9t-1.5 8t-4 8t-4.5 8t-2 8v5.5t-0.5 9t-0.5 9v5.5v3v3.5t0.5 3.5l0.5 2q0 1 0.5 1.5l0.5 0.5h1v0q2 0 3.5 -1t2.5 -3t1 -4v-4q0 -3 -0.5 -6t-0.5 -6q0 -2 0.5 -8t2 -12.5t3.5 -12t5 -5.5
q2 0 3 1.5t2 3.5t2 3.5t4 1.5h1l0.5 -1.5t0.5 -2.5v0v-1q0 -2 -1.5 -4.5l-3 -5t-2.5 -4.5t-1 -5v-1v0l10 -10h1h1q3 0 5.5 4t4 9.5t2.5 11t1 8.5q0 7 -2 13.5t-4.5 13.5t-4.5 13.5t-2 14.5zM163 91q-4 2 -8 3.5t-8.5 4t-8 5.5t-4.5 7l-2 8t-2 9t-1.5 9.5t-0.5 8.5v92v3.5
t0.5 3t1.5 2.5t3 1q4 0 4 -6v-24l-1 -3v-79q0 -4 1.5 -10t4.5 -12t7 -10.5t9 -4.5q2 0 3 1.5t1.5 3t0.5 3v2.5v37q0 1 -1.5 2.5t-3.5 1.5h-2t-2 -1v-14q0 -2 -1.5 -2h-1.5h-2t-1 2v38q0 3 1.5 5t4 3.5t5 2t4.5 0.5q10 0 15 -3.5t6.5 -10t1.5 -14v-16.5v-11q-1 -1 -2 -1.5
l-1 -0.5l-0.5 0.5l-1.5 1.5q-2 4 -2 8t1 9l-0.5 0.5t-1.5 0.5h-4h-4v-46q0 -2 2 -2h2q6 0 9.5 4t5.5 9.5t3 11t1 9.5q1 2 1 5t0.5 6.5t0.5 6.5v4v28q0 14 1 30t0 32q1 1 1.5 1h1.5q3 0 4.5 -2t2 -5t0.5 -6v-5q0 -14 -0.5 -29t-1.5 -30.5t-3 -30.5t-5 -28q0 -1 -1 -4t-2 -4
q-4 -4 -8 -6t-7.5 -3.5t-6 -3.5t-2.5 -8q0 -3 1 -4.5t3 -2t4 -0.5t4 -1q4 -2 5.5 -4t2 -4.5l1 -5t1.5 -5.5t3.5 -5.5t7.5 -4.5q0 -3 -1 -5t-4 -2q-2 0 -7.5 0.5t-13.5 1.5l-16 2t-15 2t-11.5 2l-4.5 1q0 3 2 3.5l4 1l4 1t3 2.5q0 2 0.5 6t2.5 7q3 3 6 4.5t5.5 2.5t4.5 3.5
t2 7.5v6zM154 163q0 -1 -0.5 -3.5t1.5 -2.5q6 -2 12 -2.5t12 -0.5v9t-1.5 6.5t-4 4t-7.5 1.5q-7 0 -9.5 -2.5t-2.5 -9.5zM59 74q0 -1 0.5 -5t1.5 -5t3.5 -2.5t5.5 -2.5t5.5 -2t3.5 -1t2 1t1 2t0.5 3l1 4t1.5 4t1 3q1 7 3.5 14t2.5 13q0 1 -2 3.5t-5 4l-6 3t-5 1.5
q-3 0 -6 -5.5t-5 -12t-3 -12.5t-1 -8zM90 58q0 -1 1.5 -3t3.5 -3.5t4.5 -2.5t4.5 -1q1 0 3 3.5t2.5 7.5t1 7.5t0.5 4.5v6t-1.5 6t-3.5 5t-6 2q-2 0 -4 -4t-3.5 -9.5t-2 -10.5t-0.5 -8zM147 55q0 -4 2.5 -5.5t6 -2t7.5 0t7 0.5h5h5q1 1 2.5 3t1.5 3q0 4 -1.5 6.5t-4 4t-6 2
t-6.5 0.5q-2 0 -5.5 -0.5t-6.5 -1.5t-5 -3.5t-2 -6.5z" />
</svg>
