<?xml version="1.0" standalone="no"?>
<!DOCTYPE svg PUBLIC "-//W3C//DTD SVG 1.1//EN" "http://www.w3.org/Graphics/SVG/1.1/DTD/svg11.dtd" >
<svg xmlns="http://www.w3.org/2000/svg" xmlns:xlink="http://www.w3.org/1999/xlink" version="1.1" viewBox="-10 0 266 256">
   <path fill="currentColor"
d="M169 192q0 3 0.5 8t0.5 11.5t1 13.5t2 13t2.5 9.5t4.5 3.5t4 -3t1 -6v-3l-0.5 -1l-1 -2t-1 -1.5t-0.5 -1.5q-2 -4 -3 -9.5t-1.5 -11.5t-1 -11.5t-0.5 -10.5v-1v-4.5t0.5 -5.5t0.5 -5v-2q0 -1 0.5 -2t0.5 -2.5t1 -2.5t2 -1q3 0 5 4t4.5 8.5t5 8.5t6.5 4t4 -3t-3.5 -8
t-8 -10.5t-7.5 -12t-3 -12.5l0.5 -1t0.5 -2q1 -1 3 -5t4.5 -8.5t5 -8t3.5 -4.5v-2v-1q0 -2 -0.5 -3t-2.5 -1q-4 0 -6 3t-3 6t-3 6t-5 3q-2 0 -3.5 -4t-2.5 -9.5t-1.5 -10.5t-0.5 -7v-1v-2.5t0.5 -2.5l0.5 -1h22q2 0 2.5 -1.5t0.5 -2.5q0 -3 -1 -4t-3 -1q-5 0 -8 1t-7 1h-7
q-2 -1 -2 -4v-5v-6q1 -1 2 -1.5l1 -0.5q1 0 2.5 -0.5t3.5 -1t3.5 -1l1.5 -0.5q4 -2 6.5 -5t4 -7t2 -8.5t0.5 -7.5v-3.5v-3.5q-1 0 -2 -0.5l-1 -0.5q-1 0 -1 -0.5v-0.5l-0.5 0.5l-0.5 0.5q-1 0 -2 0.5l-1 0.5l-3 22q-1 4 -3.5 5.5t-5.5 1.5q-2 0 -4.5 -1.5t-2.5 -4.5
q0 -6 1 -12t1 -13v-3v-3.5t-1 -3t-3 -1.5q-1 0 -2.5 0.5t-1.5 1.5v34t-2 34h-14q-1 0 -2 -2.5l-1 -2.5v-9q0 -6 2 -10t3.5 -6t3.5 -3.5t2 -3.5h-7t-11 1t-10.5 2t-4.5 3t2.5 2.5t4.5 0.5q3 0 5 0.5t2 2.5v25q0 1 -2 1.5t-5.5 1t-6.5 1.5t-4 2v0.5v0.5q0 2 2.5 3t3.5 1h6h5
l1 2q1 0 1 2v3q0 8 -1 13.5t-3 9t-4 5.5t-4 4.5t-4.5 5.5t-4.5 9q-5 15 -7 28.5t-2 29.5q1 0 4 -1t2 -4q0 -2 0.5 -6t1 -9l1 -10t0.5 -6q1 -3 2.5 -9t4 -11.5t5.5 -10t6 -4.5h2q1 6 1.5 11t0.5 10v10v11q0 13 -1 25.5t-1 24.5q0 2 1.5 4t2.5 2h1v0q1 0 2 -1.5l1 -1.5v-29
l0.5 -2t0.5 -4t0.5 -4l0.5 -2q0 -2 -0.5 -7.5t-0.5 -12t-0.5 -12t-0.5 -6.5v-16v-16q4 -3 8 -6.5t4 -9.5q-3 0 -4.5 1t-3.5 1q-1 0 -2 -1t-1.5 -2.5t-0.5 -3v-2.5v-4q3 -1 5.5 -1h5.5h3h3q1 1 2 5t2.5 9.5t2.5 12t2 12t1.5 9.5l0.5 4q0 13 -2.5 25t-2.5 25zM84 189
q0 3 0.5 8t2 11t2.5 13t3 12.5t3.5 9t3.5 3.5t3 -1.5t1 -3.5q0 -8 -2.5 -14.5t-3.5 -13.5q-2 -6 -2.5 -9.5l-1 -7t-0.5 -7.5v-9v-4v-4.5v-4.5v-3q1 -5 3.5 -10.5t4.5 -10.5t3.5 -10.5t1.5 -10.5q0 -4 -1 -7.5t-2.5 -6t-3 -6t-1.5 -6.5q0 -1 2.5 -4t5.5 -6l6 -6l5 -5v-3v-4
q0 -7 -2.5 -13t-2.5 -12q0 -2 1 -3t2.5 -1.5t2.5 -2t1 -3.5q-3 0 -6 1t-6.5 2.5t-6.5 3t-7 1.5h-1.5t-1.5 -2v-22q0 -4 -3 -4.5t-5 -0.5v30q0 3 -4 5.5t-8 5.5t-7.5 9t-3.5 16q0 5 0.5 9.5t1.5 8.5t2.5 8t3.5 10v0q0 3 -1.5 5t-3 5t-3 5t-1.5 5q-2 8 -3.5 17.5t-1.5 17.5
q0 3 0.5 4.5t3.5 1.5q2 0 3.5 -1t1.5 -4q1 -11 2.5 -22.5t7.5 -21.5q1 0 4.5 -0.5t4.5 -1.5l0.5 -0.5l0.5 -0.5q0 -1 -1 -4t-1 -4l-0.5 -0.5l-0.5 -0.5q0 -1 1.5 -3t3.5 -4l3.5 -3.5t2.5 -1.5q3 2 5 4.5t3 6t1.5 6.5t0.5 6q0 7 -3.5 13.5t-6.5 12.5q-3 9 -4.5 19t-1.5 19z
M69 80v-6.5t1 -6.5t3 -5t6 -2q3 0 3 1v5q1 8 2.5 13t2.5 11v2q0 2 -1 3.5t-2.5 3t-3.5 2.5t-4 1q-3 0 -4.5 -2.5t-2 -6t-0.5 -7.5v-6zM89 53q0 -3 4 -5t7 -2t5 3t3.5 7t2 8t0.5 5q0 3 -2 6t-4.5 5.5t-5 4.5t-4.5 3l-2 -1v-2t-0.5 -4t-1.5 -4.5t-1 -3.5v-3t-0.5 -4.5t-0.5 -5
v-3.5v-2v-2z" />
</svg>
