<?xml version="1.0" standalone="no"?>
<!DOCTYPE svg PUBLIC "-//W3C//DTD SVG 1.1//EN" "http://www.w3.org/Graphics/SVG/1.1/DTD/svg11.dtd" >
<svg xmlns="http://www.w3.org/2000/svg" xmlns:xlink="http://www.w3.org/1999/xlink" version="1.1" viewBox="-10 0 266 256">
   <path fill="currentColor"
d="M133 245v4t2 2h1q6 -7 8 -13t3 -11.5t1.5 -11t4.5 -13.5q0 -2 0.5 -7.5t1.5 -11.5t1.5 -11.5t0.5 -7.5q0 -3 0.5 -7.5t1 -8.5t3 -7t6.5 -3q3 0 4.5 1t2 3t0.5 4v4q1 4 2 12t2.5 18.5t4 22t4.5 21t5 15.5t5 6t3.5 -1.5t1.5 -4.5q0 -2 -1.5 -4.5t-1.5 -5.5q-4 -15 -8 -29.5
t-6 -29.5q-1 -7 -2 -13.5t-1 -13.5q0 -1 0.5 -3.5t2.5 -2.5h16q1 0 2 -1.5t2 -2.5v0v0v-1v0l-0.5 -1t-1.5 -1h-7q-17 0 -33.5 1t-33.5 2q-1 0 -4 0.5t-4 1.5l-0.5 1t-0.5 2t1 2t2 1h24l2 1v4.5v5.5q0 22 -3.5 43t-10.5 42q-3 2 -3 4v4zM89 181q0 15 1.5 27t6.5 26
q0 1 0.5 3.5t2 5.5t2.5 4.5t3 1.5q3 0 4 -2.5t1 -4.5q0 -3 -1 -5.5t-2.5 -5.5t-3 -5.5t-2.5 -5.5q-1 -1 -1.5 -4.5l-1 -7t-1 -6t-0.5 -3.5t-0.5 -2t-0.5 -3v-4v-3q0 -9 2 -17t4 -15.5t4 -15.5t1 -16q-1 -3 -3 -5.5t-3.5 -5.5t-3 -5.5t-1.5 -5.5q0 -4 3 -7.5t7 -7t7 -7.5
t3 -9q0 -4 -1.5 -7.5t-3.5 -6.5l-4 -6t-2 -7q0 -2 2 -3l4 -2t3.5 -2.5t1.5 -3.5t-1 -2h-3q-3 0 -6.5 2t-7 4.5l-7 5t-7.5 2.5q-2 0 -3 -3.5t-1 -5.5q0 -3 0.5 -6t0.5 -7v-4v-3q0 -2 -1 -2h-2q-4 0 -5.5 3t-1.5 6v31l-1 1t-1 2q-3 3 -5.5 5t-4.5 4t-4 5t-4 7t-2.5 10t-0.5 11
q0 4 1 8t2.5 7.5t3.5 6.5t4 7v1.5v2.5v2v2t-1 3t-1.5 5t-1.5 5.5t-1 3.5q-2 8 -2.5 14.5t-0.5 13v13.5v14v6v7.5v8.5v5q2 2 5 2q1 0 1.5 -0.5l1.5 -1.5q-1 -10 -1 -21.5v-23t1.5 -23t5.5 -20.5q1 -4 3 -4.5t4 -0.5h4.5t1.5 -2v-1q0 -2 -1.5 -3.5t-3 -3.5t-2 -3.5t-0.5 -4.5
v0q0 -1 2 -3l4 -4t3.5 -4t2.5 -3t1 -1.5t2 -0.5t4.5 3t4 7t2.5 7.5t1 5.5v4v4q-1 2 -2.5 6.5t-3 9.5t-2.5 9.5t-1 6.5v2v2.5v3.5v3zM57 94q0 -5 0.5 -8.5t2 -7t4 -7t5.5 -6.5h1q2 0 3.5 4.5t2.5 10.5t1.5 11.5t0.5 7.5t-1 5t-2.5 5t-3.5 4t-3 4h-2h-1q-3 0 -5 -2.5
t-2.5 -6.5t-0.5 -8v-6zM139 53v30v4t0.5 6t0.5 5.5t1 2.5q0 1 0.5 3.5t1.5 5t2.5 5t4.5 2.5h27q4 0 7.5 -2t5.5 -5t3.5 -7t1.5 -8v-47q0 -2 2 -1.5t5 0.5t5 -0.5t2 -4.5q0 -2 -1.5 -3.5t-3.5 -1.5h-4h-3q-2 -1 -2 -4v-6t-1 -5.5t-5 -2.5q-3 0 -4 3.5t-1 6.5q0 1 0.5 2t0.5 2
l0.5 2.5t0.5 3.5l-0.5 0.5t-0.5 1.5q-1 0 -3 0.5l-2 0.5h-32q-1 0 -1.5 -2t-0.5 -3v-1q0 -1 1 -3.5l1 -2.5v-0.5v-0.5q0 -2 -2 -3t-3 -1h-1q-1 0 -2 0.5t-1 1.5v15q0 1 -3 2t-7 1.5t-7 1.5t-3 4h18zM157 108q0 -1 1 -4t2.5 -6t3.5 -5t3 -2q2 0 4.5 1.5t4.5 3.5t4 5t2 5
q0 3 -2 4q-1 0 -3.5 0.5t-5 0.5t-5 0.5t-3.5 0.5h-1q-3 0 -4 -1t-1 -3zM146 88v-2q0 -1 0.5 -3t0.5 -4.5t0.5 -4.5t0.5 -3t1 -1.5t2 -0.5q2 0 3.5 1.5t3 3.5t2 4t0.5 4v3.5t-2 3.5q0 1 -1.5 2.5l-3 3l-2.5 2.5l-1 1h-2l-0.5 -3t-1.5 -4v-3zM171 80l2.5 -5t3 -6.5t3.5 -6
t4 -2.5t2.5 3t1 7t0.5 8v5v9q0 3 -1.5 3.5t-2.5 0.5q-2 0 -4.5 -2.5t-4 -5l-3 -5t-1.5 -3.5zM81 64v-8q1 -4 4.5 -6t7.5 -2q3 0 5.5 2t4.5 5t3 7t1 7q0 2 -2 6.5t-4.5 8.5t-6 7t-5.5 3q-3 -1 -4.5 -5t-2.5 -9t-1 -9.5v-6.5zM151 53v0q1 -1 1 -2t1 -1h22q1 0 2 2l1 2v1
l-1.5 3t-3.5 6l-4 6t-3 3t-4 -2.5t-5 -6t-4 -6.5t-2 -5z" />
</svg>
