<?xml version="1.0" standalone="no"?>
<!DOCTYPE svg PUBLIC "-//W3C//DTD SVG 1.1//EN" "http://www.w3.org/Graphics/SVG/1.1/DTD/svg11.dtd" >
<svg xmlns="http://www.w3.org/2000/svg" xmlns:xlink="http://www.w3.org/1999/xlink" version="1.1" viewBox="-10 0 266 256">
   <path fill="currentColor"
d="M87 172q0 10 1 18.5t2 16.5t3 16.5t4 17.5q1 2 2.5 5.5t4.5 3.5q2 0 4 -3t2 -4t-0.5 -2l-1 -2t-1.5 -2.5l-1 -1.5l-6.5 -26t-3.5 -27q0 -9 1 -18t4 -17q1 -5 3 -8.5t4.5 -7t4 -7t1.5 -8.5t-1.5 -8.5t-3.5 -7t-4 -7.5t-2 -8q0 -2 2.5 -3.5t6 -3t6.5 -2.5t5 -4v-3.5v-3.5
q0 -5 -2.5 -9.5t-2.5 -9.5q0 -2 1 -3t2.5 -1.5t2.5 -1t2 -2.5q0 -3 -3 -3.5t-5 -0.5q-5 0 -10 1t-11 1q-2 0 -3 -1t-1 -3q0 -3 0.5 -6.5t0.5 -5.5v-1q0 -2 -1 -5t-4 -3v0.5v0.5q-1 0 -3 1.5t-2 2.5v9q0 4 1 8t1 9q0 2 -4 3t-9 2.5t-9 4t-4 6.5v5v4q0 5 1.5 9t3 7.5t3 6.5
t1.5 6t-1 6.5t-2.5 6.5t-3 6.5t-2.5 6.5q-4 18 -4 37v11q0 2 1 2h2q3 0 5 -2t2.5 -5.5t0.5 -6.5t1 -5v-4t0.5 -6.5t0.5 -6.5v-4t0.5 -3t1 -5t1 -5t0.5 -3l1 -1l2 -2h0.5h0.5h0.5h0.5q0 1 1 1.5t2.5 1.5t2.5 2l1 1q4 1 4.5 -1t0.5 -3q0 -2 -1 -3.5t-1.5 -3t-1.5 -3t-1 -3.5
q0 -4 2.5 -7.5t6.5 -3.5q3 0 5.5 3t4 7.5t2 9t0.5 7.5q0 7 -2.5 13.5t-6 12.5t-6.5 13t-3 15zM145 237v2t0.5 2.5t1 2.5t1.5 1q6 0 8 -5q-1 -9 -1.5 -16.5t-0.5 -14.5v-14v-16v-26q0 -6 2.5 -10.5t6 -8.5t6.5 -8t3 -10v-3l-1 -1.5t-2 -3.5t-2 -3.5l-1 -1.5q0 -1 0.5 -4.5
t0.5 -4.5h18l3 3v104q2 5 2 8.5v7.5v6q0 3 -0.5 5.5t-0.5 5.5t-1 7q0 3 2 3h3q2 0 4 -0.5t0 -3.5v-8v-12v-12v-8v-10v-13v-11v-6v-10v-15.5t-0.5 -18t-0.5 -18v-15v-10.5q-2 -5 -4.5 -7t-5.5 -2.5t-6.5 0t-8.5 0.5q0 -1 -0.5 -5t-0.5 -7.5t1.5 -6.5t5.5 -3h19l1 -0.5t2 -0.5
t1 -1q0 -3 -3 -4.5t-5 -1.5h-1h-5.5t-10 0.5t-10 0.5h-5.5h-5h-1h-2t-1.5 -0.5l-0.5 -0.5v-11q0 -2 -2 -2.5t-3 -0.5l-1.5 0.5t-1.5 1.5v44l3 4h13q2 0 3 3t1 4v2q-1 2 -1.5 5l-0.5 3h-31q-2 0 -3.5 1t-1.5 3t0.5 2.5t2.5 0.5h25q0 4 -3 8t-7.5 8t-8.5 7t-7 6v1q0 2 1 2h3
q5 0 8.5 -3.5t7 -8t6 -8.5t5.5 -4q2 0 3.5 2t2 4.5t0.5 5v3.5q0 4 -2 7l-4 6t-4.5 6t-4.5 6q-2 5 -2.5 11t-0.5 12v11.5v10.5q0 10 1 20t1 20q0 2 -1 5t-1 5zM115 217v1q1 0 2 1t1 2h1h1q3 -4 5.5 -6.5t4.5 -6l4 -7t4 -7.5v-0.5v-0.5q0 -4 -4 -4q-2 0 -5 3.5t-6 8.5
t-5.5 9.5t-2.5 6.5zM158 186v5t2 5q1 0 2.5 2t3.5 3.5t3.5 3.5t2.5 2h2q3 0 3.5 -0.5t0.5 -2.5q0 -3 -2 -6.5t-5 -6t-6.5 -4t-6.5 -1.5zM136 148q-4 0 -7 3t-5.5 7.5t-4 9t-1.5 7.5q4 0 7 -2.5t5.5 -6t4.5 -7.5t4 -6v-2q0 -3 -3 -3zM160 153v1v0l14 14h0.5h1.5t2.5 -1
t2.5 -3q0 -1 -2 -3.5t-4.5 -5.5t-5.5 -5t-4 -2q-2 0 -3.5 1.5t-1.5 3.5zM71 67q0 -6 3 -11t9 -5q2 0 3 1.5t1.5 3t1 3.5l0.5 2q0 2 0.5 4t1 5t0.5 5v3l0.5 0.5l0.5 0.5q0 3 -1.5 5t-3.5 3.5t-4.5 2.5t-3.5 1q-2 0 -4 -3t-3 -7.5t-1 -8.5v-5zM169 87v-12q0 -3 2.5 -3h4.5
q4 0 8 3t4 8v1l-1 1.5t-2 1.5h-16zM96 54v-6q1 -2 3.5 -2.5t4.5 -0.5t4 2t3 5t1 6v4v7q-2 3 -4.5 4.5t-6.5 1.5q-3 0 -4 -2.5t-1.5 -6t0 -7t0.5 -5.5zM148 57q0 -5 1 -9t7 -4h3t3 1v3.5v2.5v2v4t-0.5 4t-1.5 2h-10q-1 0 -1.5 -0.5t-0.5 -1.5v-4z" />
</svg>
