<?xml version="1.0" standalone="no"?>
<!DOCTYPE svg PUBLIC "-//W3C//DTD SVG 1.1//EN" "http://www.w3.org/Graphics/SVG/1.1/DTD/svg11.dtd" >
<svg xmlns="http://www.w3.org/2000/svg" xmlns:xlink="http://www.w3.org/1999/xlink" version="1.1" viewBox="-10 0 266 256">
   <path fill="currentColor"
d="M130 212q0 5 4 12t10 13t12.5 10t12.5 4q2 0 4 -0.5t2 -2.5t-5.5 -5.5t-13 -8t-13.5 -10t-6 -12.5q0 -5 3.5 -9t7.5 -7.5t7.5 -7t3.5 -9.5q0 -4 -2.5 -7.5t-5.5 -6.5t-6.5 -5.5t-6.5 -5.5v0v0v-1q1 0 2 -1.5l1 -1.5q2 0 5 -0.5t6.5 -1t6 -2.5t2.5 -5q0 -1 -0.5 -3t-1 -5
t-0.5 -5v-3v-2q0 -2 1 -2.5t3 -1t3 -0.5h3t3 -0.5t4 -0.5h4h3v-3q0 -2 -1 -3t-4 -1q-9 0 -18 1t-18 1h-2q-2 0 -3.5 -0.5l-3 -1t-1.5 -2.5v0q1 -1 1.5 -3.5t0.5 -3.5v-1q0 -2 -1 -2.5t-3 -0.5h-3.5t-2.5 2v13q0 1 -2.5 1t-6 1t-8.5 2t-8.5 3t-6 6t-2.5 9q0 4 1 7.5l2 7l2 7
t1 7.5q0 3 -3.5 8.5t-8.5 12t-9.5 12.5t-6.5 11v2v2.5t2 1.5h0.5h0.5q1 -1 2.5 -2l1.5 -1l18 -30q1 -2 2 -2.5t3 -0.5q3 0 4 2l2 4l2 4t3 2q3 0 3 -1.5v-3.5q0 -3 -1 -4.5t-2 -3.5l-2 -4t-1 -4q0 -3 2.5 -5.5t6 -4t7 -2.5t5.5 -1h3q1 3 4.5 5.5t7 5.5t6 5.5t2.5 7.5
q0 4 -3 7.5t-7 7t-7 7.5t-3 10zM99 139v-10q0 -2 2.5 -3.5t6 -3t7 -2t5.5 -0.5h1h1q1 6 2 11.5t1 10.5q0 4 -2.5 6.5t-6 4t-7 2.5t-6.5 1q-2 0 -3 -2t-1.5 -4.5t0 -5.5t0.5 -5zM132 123l3 -3h12q2 0 3 1.5t1.5 3.5t0.5 4v3q0 7 -5 10.5t-12 3.5q-1 0 -2 -0.5t-1 -2.5v-20z
M78 97q0 2 0.5 3t3.5 1t5 -3v-4q0 -4 0.5 -7.5t1.5 -6.5t4 -4q2 -1 7.5 -3t9.5 -2q3 0 3.5 4.5t0 9.5t0 9t3.5 4h1l3 -6v-4.5t0.5 -11.5t0.5 -14v-11v-9v-8v-6t-0.5 -6t-0.5 -8q-1 -2 -2 -2h-2h-2.5t-1.5 2v19h-16q-3 0 -3.5 -2.5t-0.5 -5.5t-1 -6t-4 -3t-3.5 2t-0.5 5
q0 2 0.5 5t2 6t3.5 5t5 2q4 0 8.5 -1t8.5 -1q0 1 0.5 2.5t0.5 3t-0.5 3t-2.5 1.5h-27q-1 0 -2 1.5l-1 1.5v1q0 1 1.5 2.5t2.5 1.5h29v8h-7.5t-9.5 1t-9 3t-4 6q-2 4 -3.5 10t-1.5 12zM143 95q0 1 0.5 1.5t2.5 0.5h1q5 -5 5.5 -11.5t-0.5 -12.5l1 -1h18q1 0 2 1.5t1.5 3.5
t0.5 4v3q0 2 -0.5 4t-0.5 4v0q0 1 1 2l1 1h1h1q1 0 2 -0.5l1 -0.5v-22q0 -5 -3.5 -7t-8.5 -2h-10h-7q-2 -1 -2 -2v-3v-1v-2q9 -2 18.5 -2t18.5 -1l0.5 -0.5l0.5 -0.5v-1v-1l-0.5 -0.5l-0.5 -0.5h-34q-1 0 -1 -2v-2q0 -2 0.5 -2.5t3.5 -0.5q1 -1 3.5 -1t5.5 -0.5t6 -0.5h4
q2 -3 4.5 -4t4.5 -3q0 -1 0.5 -3t0.5 -3.5v-3v-2.5l0.5 -0.5t0.5 -1.5q0 -2 -2 -3t-4 -1h-1l-1.5 0.5l-1.5 0.5v14l-5 4h-20v-3.5t0.5 -5t0.5 -4.5v-3t-0.5 -2.5l-1 -3t-1.5 -2.5t-2 -1t-2 0.5t-1 2.5v22t-0.5 20t-0.5 20v22z" />
</svg>
