<?xml version="1.0" standalone="no"?>
<!DOCTYPE svg PUBLIC "-//W3C//DTD SVG 1.1//EN" "http://www.w3.org/Graphics/SVG/1.1/DTD/svg11.dtd" >
<svg xmlns="http://www.w3.org/2000/svg" xmlns:xlink="http://www.w3.org/1999/xlink" version="1.1" viewBox="-10 0 266 256">
   <path fill="currentColor"
d="M132 213q0 4 2 10t5.5 12.5t7.5 11t7 4.5t5 -1.5t2 -4.5q0 -2 -3 -5l-7 -7t-7 -9.5t-3 -11.5t2.5 -11t5.5 -9.5t5.5 -9t2.5 -9.5q0 -6 -3.5 -9t-8.5 -4.5t-9 -4t-4 -6.5t3.5 -5t7.5 -2t7.5 -3t3.5 -7t-1 -9t-1 -8v-1v-1l0.5 -1t1.5 -2t2 -1.5l1 -0.5v-0.5v-0.5
q0 -2 -1.5 -3t-2.5 -1q-7 0 -14 2.5t-13 2.5q-2 0 -3.5 -2t-2 -4.5t-1 -5.5t0.5 -4q0 -1 1 -3t1 -3q1 -1 -0.5 -2.5l-1.5 -1.5h-3h-2q-3 0 -5.5 0.5t-5.5 0.5t-3 -3q0 -4 0.5 -7.5t2.5 -6.5q2 0 5.5 -0.5t7.5 -1.5t6.5 -3t2.5 -5v-16q0 -3 -2.5 -4.5t-6 -2t-7 -0.5h-5.5
l-1 -1v-2v-3v-3v-2q0 -1 0.5 -2.5l0.5 -1.5h20q0 -2 -1 -5t-4 -3h-2q-3 0 -8.5 0.5l-11 1t-10 1t-5.5 0.5q-3 0 -7.5 2t-6.5 4q-3 3 -2.5 7.5t0.5 7.5q0 1 -0.5 2.5t-0.5 3.5t-0.5 4l-0.5 2v11v10t1.5 11.5t4.5 9.5t10 4q6 0 12 -1t11 -1h6q2 3 3 8t1 8t-5 4t-11.5 3
t-12 5.5t-5.5 11.5q0 4 1.5 8.5t3.5 8.5t4 8.5t2 8.5l-0.5 1l-0.5 1q-6 14 -10 28t-4 29q0 3 0.5 4.5t3.5 1.5q4 0 5.5 -3.5t2 -9.5t1 -12.5t1.5 -12.5t3 -9.5t6 -3.5h0.5h0.5l11 10h1q3 0 4 -2.5t1 -4.5v-2l-3 -3l-4 -4t-3.5 -4t-1.5 -4t2 -4l4 -4t4.5 -3t4.5 -1h0.5h0.5
q2 2 6.5 5t9 6.5t8 6.5t3.5 5v2.5v1.5q-8 7 -12 15.5t-4 18.5zM92 134v-3v-3q2 -5 7.5 -8t9.5 -3q3 0 4.5 2.5t2.5 5.5t1 6v6v5q-1 0 -2 1t-1 2q-1 0 -2.5 1.5t-3.5 3t-4 2.5t-3 1v0h-1q-2 0 -4 -2t-3 -5.5t-1 -6.5v-5zM164 85q3 0 5 4.5t3.5 11.5t3 15.5t3 16t3.5 12t5 4.5
h0.5h0.5l1 -0.5t2 -0.5v-2v-3q0 -6 -2 -13.5t-5 -13.5q-1 0 -1.5 -1.5l-0.5 -1.5v-2t-0.5 -4t-0.5 -4v-3q-1 -2 -1.5 -4t-1.5 -4.5l-2 -5t-1 -4.5q0 -5 2.5 -8.5t5.5 -7t5.5 -8t2.5 -10.5q0 -11 -3 -18t-9 -10.5t-14 -4.5t-18 -1q-3 0 -6.5 1.5t-3.5 5.5l0.5 2.5t1.5 2.5h32
q1 0 2.5 1.5l3 3t3 2.5l1.5 1v8q0 2 -0.5 5.5l-1 7t-2 6t-4.5 2.5h-0.5h-1.5q-1 -6 -3.5 -9t-6.5 -5t-8.5 -2.5t-8.5 -0.5h-5t-3 4t3 4.5t7 0t7 -0.5q4 0 6 3q0 1 1 2.5t1.5 3.5t1.5 3.5t1 2.5q0 4 -3 6.5t-6.5 3t-8 1t-8 0.5t-5.5 1.5t-2 4.5q0 1 0.5 2.5t2.5 1.5
q4 0 7.5 -0.5t7.5 -2t8 -2t7 -0.5zM124 120q0 -6 3.5 -6.5t8.5 -0.5q6 0 8 3t2 9q0 4 -1.5 6t-4 3.5t-5.5 2.5t-6 1q-2 0 -3 -2.5t-1.5 -5.5t-0.5 -5.5v-4.5zM76 73q0 -3 2 -4t5 -1.5t5.5 -0.5h4.5v13q0 2 -2.5 2.5t-3.5 0.5q-6 0 -8.5 -2t-2.5 -8zM72 55q0 -6 3.5 -9
t8.5 -4t10 -1q6 0 10 -1h5q3 0 6.5 0.5t2.5 5.5q0 6 -3.5 8.5t-8 3.5t-9.5 1h-9h-3h-4h-4h-2q-1 -1 -1.5 -2t-1.5 -1v-1zM75 31q0 -3 1.5 -5t3.5 -3t4.5 -1.5t5.5 -0.5l2 0.5l2 0.5q3 1 3.5 3t0.5 4v2q0 2 -2 2q-1 0 -3 0.5t-4.5 0.5h-5h-3.5h-1q-1 0 -2.5 -0.5t-1.5 -2.5z
" />
</svg>
