<?xml version="1.0" standalone="no"?>
<!DOCTYPE svg PUBLIC "-//W3C//DTD SVG 1.1//EN" "http://www.w3.org/Graphics/SVG/1.1/DTD/svg11.dtd" >
<svg xmlns="http://www.w3.org/2000/svg" xmlns:xlink="http://www.w3.org/1999/xlink" version="1.1" viewBox="-10 0 266 256">
   <path fill="currentColor"
d="M87 178q0 1 0.5 7.5t2 14.5t3 17t4 16.5t5 12.5t6.5 5q3 0 4 -2t1 -4q0 -6 -3.5 -10t-5.5 -9q-5 -10 -7 -21t-2 -22q0 -9 1 -18t5 -17q1 -3 2.5 -5t2.5 -4.5l2 -5t1 -5.5t-1 -6t-2 -6.5t-2 -6.5t-2 -5q-1 -4 -4 -7.5t-3 -7.5q0 -3 3.5 -5.5t7 -5.5t7 -7t3.5 -9
q0 -6 -1.5 -11t-1.5 -10v-2l2 -1l4 -2t4 -2.5l2 -1.5q0 -3 -1.5 -3.5t-3.5 -0.5q-4 0 -7 1t-6.5 2.5t-7.5 2.5t-7 1q-2 0 -3.5 -0.5t-1.5 -2.5v-19l-1 -0.5t-2 -0.5h-1v0q-1 0 -2 1t-1 2v26q0 1 -4.5 2t-9.5 3.5t-9.5 7.5t-4.5 15q0 6 1 10t2.5 8t3 8.5t3.5 9.5v2.5v2.5
q0 7 -2.5 13.5t-3.5 13.5q-4 14 -4 29v29q0 2 0.5 4.5t3.5 2.5q2 0 3.5 -0.5t2.5 -1.5v-8q0 -5 -1 -10.5t-1 -10.5q0 -10 2 -21.5t4 -21.5q1 -1 2 -1h2q2 0 3 0.5t1.5 2t1.5 2.5l2 2t2 0t1.5 -2l1 -2l0.5 -1v-1.5v-0.5l-11 -12v-2v-2t1.5 -4t4 -5.5t5.5 -4.5t4 -2q3 0 5.5 5
t4.5 11t3 11l1 5v3q-2 5 -4.5 11t-4.5 12t-3.5 12.5t-1.5 12.5zM139 230v6l3 3q1 -1 2.5 -3t1.5 -3v-46l3 -3l20 -3q3 0 4.5 -3.5t1.5 -5.5v-2.5t0.5 -5t0.5 -4.5v-3l1.5 -3t1.5 -1.5t1.5 -1.5t0.5 -3q0 -1 -1.5 -1.5t-2.5 -0.5q-7 0 -14.5 1t-14.5 1v-20l3.5 -0.5t8 -1.5
t8.5 -3t6 -4v-2.5v-4t0.5 -4.5t0.5 -3l1.5 -2l1.5 -2q0 -1 0.5 -2l0.5 -1l-0.5 -0.5l-0.5 -0.5h-2h-2h-4h-1q-1 0 -3.5 -0.5t-5.5 -0.5t-5.5 -0.5t-3.5 -0.5q-3 -1 -3.5 -2t-0.5 -3q0 -6 2.5 -9t6 -4t8 -1.5t8 -0.5t5.5 -0.5t2 -2.5v-1l-1 -2h-8h-9q-5 0 -9 1t-6.5 4t-2.5 9
q-1 35 -2 69.5t-2 69.5v8zM159 18v0h-1q0 1 -1.5 2l-1.5 1v18q0 2 -1 3.5t-3 2t-4.5 1t-3.5 1.5q-9 3 -13.5 9.5t-6 14.5t-1.5 18v16q0 2 -0.5 8t-1 14.5t-1 17.5t-1 17t-0.5 14v8q-1 6 -1.5 12t-0.5 12h5l1 -3t2 -5q2 -11 2.5 -22t0.5 -21.5v-22.5q0 -11 1 -21
q0 -2 0.5 -5.5t0.5 -7.5t0.5 -7t0.5 -4q0 -2 0.5 -5.5t1 -7.5t0.5 -7.5t1 -5.5q2 -5 5.5 -8t7.5 -4t9 -1h10h2h4h3.5h1.5q6 3 9.5 7t4.5 11q3 27 3 55v56v1l-0.5 3.5t-1 7.5t-1 7.5l-0.5 3.5v1v1q0 2 1.5 2.5t3.5 0.5t3.5 -0.5t2.5 -2.5v-6q0 -32 -1 -64.5t-2 -64.5
q-2 -8 -4 -13t-5.5 -7.5t-9 -4t-13.5 -3.5l-2 -2v-18l-1.5 -1t-2.5 -2h-1zM146 172v-5t0.5 -6t1 -5t3.5 -2h13l3 3v15l-3 3h-1t-3 0.5t-4 0.5h-4l-1 0.5l-1 0.5q-3 0 -3.5 -1.5t-0.5 -3.5zM147 114q0 -6 2 -9.5t8 -3.5q4 0 6.5 2t2.5 6l-0.5 2l-1 4l-1 4t-2.5 2h-10
q-3 0 -3.5 -3t-0.5 -4zM60 69q0 -3 1.5 -6.5t4 -6.5t5.5 -4.5t7 -1.5q3 0 4.5 4t2.5 9t1.5 10.5t0.5 7.5q0 3 -2 5.5t-4.5 5t-5.5 4.5t-4 3l-1 1h-1q-2 0 -4 -4t-3 -9.5t-1.5 -10.5t-0.5 -7zM90 55v-10q1 -1 3 -2t4 -1.5l2 -0.5l0.5 -0.5l0.5 -0.5q4 0 5.5 2.5t2.5 5.5t1 7
v5v8q-3 3 -6.5 5t-7.5 2q-2 0 -3 -2.5t-1.5 -6t-0.5 -7.5v-4z" />
</svg>
