<?xml version="1.0" standalone="no"?>
<!DOCTYPE svg PUBLIC "-//W3C//DTD SVG 1.1//EN" "http://www.w3.org/Graphics/SVG/1.1/DTD/svg11.dtd" >
<svg xmlns="http://www.w3.org/2000/svg" xmlns:xlink="http://www.w3.org/1999/xlink" version="1.1" viewBox="-10 0 266 256">
   <path fill="currentColor"
d="M154 192v57l0.5 0.5t0.5 1.5h1q3 0 4.5 -2t2.5 -4.5t1.5 -5t0.5 -4.5v-81l0.5 -0.5t0.5 -1.5q4 -1 9 -1.5t8 -1.5q1 0 1.5 -0.5l0.5 -0.5v-1v-1l-0.5 -0.5t-1.5 -0.5h-40q-1 0 -1.5 1t-0.5 2v1q1 0 3 0.5t4 0.5t4 0.5t3 1.5v15v13t-1 12zM84 181q0 2 0.5 7t2 12.5
t3.5 15.5t4 14.5t4.5 11t4.5 4.5h0.5h0.5q5 -1 5 -7q0 -3 -2 -6t-3 -5q-3 -9 -5.5 -18t-5.5 -18v-33q0 -7 3 -12.5t6.5 -11.5t6.5 -11.5t3 -11.5q0 -5 -3 -8.5t-6.5 -6.5t-6.5 -6.5t-3 -8.5q0 -3 3 -5.5t7 -5.5t7 -6.5t3 -8.5q0 -4 -1.5 -6.5t-1.5 -5.5v-1v-1q1 0 2.5 -0.5
t3.5 -1.5t3.5 -2.5t1.5 -3.5t-1.5 -2.5t-3.5 -0.5q-4 0 -7.5 1t-6.5 2t-6.5 2t-7.5 1q-3 0 -3.5 -1t-0.5 -4t1 -6.5t1 -6.5q0 -4 -1.5 -6t-6.5 -2v0q-1 1 -1.5 2l-0.5 1v5v6v7v4q0 5 -3 7.5t-6.5 4t-7 3.5t-5.5 6v4.5v4.5q0 4 1.5 8l3 8t2.5 8t1 8v2v2l-1 1.5t-1.5 3l-1 3
t-1.5 1.5q-2 11 -2.5 20t-0.5 20v4v6v6v4q1 1 2 2.5t2 1.5q2 0 4 -1.5t3 -2.5v-6v-5v-4t-0.5 -6.5l-1 -7l-0.5 -3.5q0 -1 0.5 -3t0.5 -5t0.5 -5.5t0.5 -3.5t0.5 -2t0.5 -2.5t1 -2.5t2 -1q2 0 3.5 2t4.5 2q2 0 3 -0.5t2 -3.5q0 -1 -1.5 -3t-2.5 -4.5l-2 -5t-2 -4.5
q1 0 2 -1.5t3 -3.5t4 -3t3 -1q2 0 4.5 3.5t5 8t4 8.5t1.5 6q0 4 -1.5 9t-3.5 10t-4 9.5t-4 8.5q-2 7 -3 14.5t-1 15.5zM121 143v9t1.5 9t4.5 7t9 3h3.5h4.5t3.5 -1.5t1.5 -3.5v-1l-14 -3l-2 -2t-1.5 -2.5t-0.5 -3v-2.5q-1 -1 -1 -3t-0.5 -4t-0.5 -3.5v-1.5l6 -6l2 -0.5
t5 -0.5h5.5h4.5l2 -0.5t5 -0.5h5h4h3h4q3 0 5.5 0.5l2.5 0.5q3 -1 4.5 0.5t2.5 3.5t1 4v4v4v5t-1 5t-2 3l-17 3l-1 0.5l-1 0.5v0.5v0.5q0 2 1 2.5t2.5 1t3.5 0.5h2q13 0 18.5 -6.5t5.5 -17.5q0 -7 -3 -11.5t-7.5 -6.5t-9.5 -3t-9 -2t-7 -1.5t-3 -2.5v-1q0 -1 0.5 -3.5
t1.5 -3.5q5 -1 10.5 -2.5t10 -4t7.5 -6.5t3 -11q0 -6 -2 -9.5t-5.5 -5.5t-8 -3t-9.5 -1h-14.5t-14 2t-11 6t-4.5 13q0 2 0.5 4.5t1.5 5.5t2.5 5.5t3.5 2.5l20 4l0.5 1.5t0.5 2.5q0 6 -2.5 8t-6.5 2h-8t-8 1t-6.5 5t-3.5 11zM141 96q2 0 6 -0.5t9 -0.5t9 -0.5t6 -0.5h3
q3 0 4.5 0.5l4.5 1.5v1q0 2 -1.5 3t-4 2t-5 1.5t-3.5 0.5h-5.5h-9h-9.5h-6l0.5 -3t0.5 -4l0.5 -0.5zM166 77h14q3 0 4 2.5t1 4.5v1l-0.5 0.5t-1.5 0.5q-11 1 -22.5 1.5t-22.5 0.5q0 -5 3 -7.5t7.5 -3t9.5 -0.5h8zM65 68v-8q2 -2 4 -4.5t6 -2.5q1 0 1.5 1l1 2l1 2t0.5 2
t0.5 3t1 4.5t1 4.5l0.5 2v2q0 1 -1 3t-2.5 4t-3.5 3t-4 1t-3.5 -2.5t-2 -5.5t-0.5 -6v-5zM85 52q0 -4 4 -5.5t7 -1.5q4 0 6 3.5t2 7.5v1q0 1 -0.5 3t-1.5 2q0 1 -1.5 2t-3 2.5t-3 2.5l-1.5 1h-3l-0.5 -2t-1.5 -4.5t-1.5 -5t-0.5 -4.5q-1 0 -1 -1v-1zM146 23q-1 1 -3 2t-4 3
t-3 3.5t-1 2.5v24q3 0 5 -2t2.5 -5t1 -6.5t1.5 -6.5t3.5 -5t7.5 -2q4 0 5 3.5t1 7.5t0.5 7.5t3.5 3.5h34l0.5 -1.5t1.5 -1.5v-1v-1l-2 -2l-1 -1h-28q-1 0 -1.5 -1t-0.5 -2.5v-2.5v-1q0 -5 3.5 -7t8 -2.5t10 -0.5h8.5q3 -1 3 -4q0 -1 -0.5 -2t-1.5 -1t-5 -0.5t-5 -0.5
q-11 0 -22 1.5t-22 1.5z" />
</svg>
