<?xml version="1.0" standalone="no"?>
<!DOCTYPE svg PUBLIC "-//W3C//DTD SVG 1.1//EN" "http://www.w3.org/Graphics/SVG/1.1/DTD/svg11.dtd" >
<svg xmlns="http://www.w3.org/2000/svg" xmlns:xlink="http://www.w3.org/1999/xlink" version="1.1" viewBox="-10 0 266 256">
   <path fill="currentColor"
d="M87 246q0 3 0.5 4t3.5 1q2 0 3.5 -1.5t2.5 -3.5v-31q0 -19 -1 -37t-1 -37v-4q0 -3 0.5 -4.5t1 -4t1.5 -5.5l1.5 -0.5t3 -1.5t3 -1.5l1.5 -0.5l0.5 -0.5t1.5 -0.5q2 0 3 2t1.5 4.5t1 4.5t3.5 2t3 -2v-2.5v-3.5q0 -3 -1 -7.5t-3.5 -8.5t-5 -7t-5.5 -5q-1 0 -3 -0.5l-2 -0.5
q-2 -2 -2.5 -6t-0.5 -7q0 -7 3.5 -11t8.5 -8t9 -8.5t4 -12.5q0 -5 -3 -8t-7 -3q-1 0 -5 -0.5t-8 -0.5h-7.5h-5.5q-3 -2 -4.5 -4.5t-2 -5t-2 -5t-4.5 -2.5q-2 0 -3 1.5t-1 3.5q0 3 0.5 5.5t1.5 5.5t2.5 5t3.5 3h5.5h7.5h8h5q5 0 6.5 2t1.5 7v3q-9 8 -15 16t-8 19q-1 1 -2 1
h-3q-5 0 -7.5 -2.5t-3 -6.5t-0.5 -8.5v-8.5t-1 -7t-5 -3q-3 0 -4 4q0 1 -0.5 3.5l-0.5 2.5q0 4 0.5 8.5t2 9.5t3.5 9t5 6h2.5h3t2.5 0.5t2 0.5l3.5 3.5l2.5 2.5v17q0 1 -2 2.5t-3 2.5q-9 7 -13 18t-6.5 23t-2.5 24t-1 22q0 1 -1.5 4t-1.5 4t0.5 2.5t1.5 3.5t2 3.5l1 1.5
q3 0 4 -3t2 -5q0 -9 0.5 -16.5t1 -14.5t1.5 -14.5t3 -16.5q0 -3 1 -7.5t2 -8.5t3 -7.5t6 -3.5v0q0 2 0.5 7.5t0.5 11.5t0.5 11.5t0.5 7.5v2.5v6.5v7v5q0 15 -1 29t-1 29zM148 222q0 3 0.5 8t2 9.5t4.5 8t7 3.5q2 0 3.5 -0.5t1.5 -2.5q0 -3 -1.5 -5.5t-4 -5.5t-4 -7t-1.5 -10
q0 -5 2 -8.5t4.5 -6t4.5 -5.5t2 -6q0 -4 -3 -6.5t-6 -4.5t-5.5 -4.5t-2.5 -7.5q0 -3 1 -4.5t3 -1.5t4.5 -0.5t4 -2.5t2.5 -6.5t0 -13.5q2 -1 4 -2.5t2 -3.5q0 -4 -3 -4q-6 0 -11.5 2.5t-11.5 2.5h-4.5t-4.5 -3l-2 2q-2 4 -4.5 5.5t-5 2t-4.5 2t-4 4.5v4v4q0 6 1.5 10.5
t1.5 9.5t-3 10.5t-5 9.5q-4 9 -5 20.5t-1 21.5q0 2 1 5t4 3q1 0 2 -0.5t2 -1.5v-11.5v-13t1 -12.5t4 -11q0 -1 1.5 -1.5l1.5 -0.5l8 8v0q2 0 2.5 -1.5t0.5 -2.5q0 -5 -1.5 -8.5t-1.5 -7.5v-2l8 -8h2l16 18v4q-3 4 -4.5 7t-2.5 6l-2 6t-1 7zM175 117q3 2 4 5t2 7l9 117
q0 1 1.5 1.5l1.5 0.5q2 0 3 -1t2 -3v-3.5v-4.5v-7.5v-9t-1 -8.5t-2 -7q0 -15 -0.5 -31t-3.5 -31q-1 -7 -3.5 -16t-2.5 -17v-1v-2q4 -3 6 -5t3 -4.5t1.5 -5t0.5 -6.5q0 -7 -2.5 -10.5t-6.5 -5t-8.5 -2.5t-8.5 -1.5t-6.5 -2.5t-2.5 -7v-4t1 -4q7 -1 16.5 -1.5t16.5 -1.5
q1 0 1 -1.5v-2.5t-0.5 -2t-2.5 -1h-30q0 -5 0.5 -9.5t0.5 -9.5q0 -2 -1.5 -3.5t-3.5 -1.5h-3t-3 2v34q0 3 -0.5 7.5t-3.5 6.5q-3 1 -6 1t-6 1t-4.5 2.5t-1.5 4.5h44q4 0 7.5 3.5t3.5 7.5q0 1 -0.5 3.5t-1 4.5t-2 3.5t-3.5 1.5q-3 0 -6 -1t-6 -1.5t-6 -1.5t-7 -1
q-1 0 -5 -0.5t-8.5 0t-7.5 1.5t-3 4v1.5t2 1.5h4.5h6.5h7h5h4t5.5 0.5t5 2t2.5 3.5q0 3 -2 4.5t-5 3t-6 2.5t-6 1q-1 0 -4 0.5l-6 1l-6 1t-4 0.5t-1 1v2q0 2 1 2.5t2.5 1t2.5 0.5h3q4 0 9.5 -2t10.5 -3q1 -1 3 -1.5l4 -1t4 -1.5t3 -1zM124 163q0 -5 2.5 -9t8.5 -4q1 0 2 1.5
t1.5 3.5l1 4t0.5 3q0 4 -3 7t-7 3t-5 -3t-1 -6zM152 145q3 0 4.5 2t1.5 5q0 2 -1.5 3.5l-3 3t-3.5 2.5t-3 1v-14q0 -2 2 -2.5t3 -0.5zM97 111q0 -2 0.5 -5t3.5 -3t4 1.5t1 3.5q0 3 -2 4.5t-4 1.5q-3 0 -3 -3z" />
</svg>
