<?xml version="1.0" standalone="no"?>
<!DOCTYPE svg PUBLIC "-//W3C//DTD SVG 1.1//EN" "http://www.w3.org/Graphics/SVG/1.1/DTD/svg11.dtd" >
<svg xmlns="http://www.w3.org/2000/svg" xmlns:xlink="http://www.w3.org/1999/xlink" version="1.1" viewBox="-10 0 266 256">
   <path fill="currentColor"
d="M136 246q0 1 0.5 3t2.5 2q3 0 4.5 -4.5t3 -10t2.5 -11t3 -7.5q6 -10 14 -15.5t14.5 -11t11 -13t4.5 -21.5q0 -6 -2 -11t-5.5 -8.5t-8 -6.5t-8.5 -6h-10q-14 0 -23 6.5t-14.5 16.5t-7.5 22t-2 23l-0.5 2.5t0 5t1 4.5t2.5 2t3.5 -2t2.5 -4q-1 -8 -0.5 -18t1.5 -18h2h2
q4 0 7 3.5t5.5 8t5.5 8t6 3.5q2 0 2.5 -2t0.5 -4v-2t-1 -3q-1 -1 -4 -3.5t-5.5 -5.5t-5.5 -5.5t-4 -3.5l-1 -0.5t-2 -1.5t-2 -1.5t-1 -1.5v-1q0 -1 1 -3t2 -3.5t2.5 -3t2.5 -1.5q6 0 11.5 5.5t10 11.5t7.5 11.5t4 5.5q2 0 3 -3t1 -4q0 -7 -4 -12t-8.5 -8t-8.5 -6t-4 -7
q0 -2 2.5 -3t5.5 -1t7.5 1t9 3t7.5 5t3 8v28q0 3 -4.5 6.5t-10.5 7t-11.5 6.5t-6.5 6q-8 10 -12 20t-4 23zM70 224l1 1.5t1.5 3.5t1.5 3.5l1 1.5q1 2 1.5 5t3.5 3h1q0 -1 1.5 -2l1.5 -1v-5q0 -7 -1.5 -11.5t-4.5 -10.5v-41q0 -1 0.5 -2t1 -3t1 -3.5t0.5 -2.5v-1
q0 -1 0.5 -3.5l0.5 -2.5q3 -4 7 -8.5t7 -7.5q2 -3 4.5 -6t5 -6.5t4.5 -5.5l2 -2v-15l-1 -1l-2 -2t-2 -2.5t-2 -1.5q-1 -2 -3 -3t-3.5 -2t-3 -2.5t-1.5 -4.5q0 -1 3 -3t6.5 -4.5t6.5 -6.5t3 -10t-2 -11t-2 -11q0 -2 1.5 -3t4 -1.5t4.5 -1.5t2 -4q0 -2 -3 -2h-1h-1q-5 2 -13 5
t-16 3q-4 0 -4.5 -2.5t-0.5 -6.5q0 -3 2 -6t2 -6q0 -2 -2 -3.5t-4 -1.5h-1l-1 0.5t-2 1.5l-1 0.5l-1 0.5v29q-5 1 -9 3.5t-7.5 6.5t-5.5 8.5t-2 8.5q0 5 2.5 9.5t5 8.5t4.5 7.5t2 5.5q0 3 -0.5 4l-1 2t-1.5 2t-2 3q0 1 -1 3.5t-2.5 4.5t-2.5 4t-1 3q-4 8 -6 17.5t-2 17.5
q0 3 1 5t4 2q2 0 3.5 -0.5t2.5 -2.5q2 -14 4.5 -28t9.5 -28h2q2 0 3.5 2l3 4t2.5 3.5t4 1.5q2 0 2.5 -1t0.5 -4q0 -2 -1 -3.5l-2 -3t-2 -2.5t-1 -3q0 -3 1.5 -6t4.5 -4q2 -1 4.5 1.5t4.5 5.5t3.5 7t1.5 6q0 8 -5 14.5t-10.5 13t-10.5 14.5t-5 18v54zM130 73v32l0.5 1.5
t1.5 1.5q3 2 7.5 2.5t9.5 1t9 0.5h7q9 2 18 4.5t18 2.5q3 0 5.5 -1t2.5 -4q0 -1 -0.5 -2.5t-1.5 -2.5l-40 -3q-2 0 -3.5 -1t-1.5 -3q0 -3 3 -4.5t6.5 -2t8.5 -1t9 -3t6.5 -6.5t2.5 -12q0 -2 -0.5 -4.5t-4.5 -2.5t-4.5 3.5t-1.5 7.5t-4 7.5t-12 3.5h-3t-1 -1t-0.5 -3.5
t-0.5 -5.5t-0.5 -5.5t-0.5 -3.5v-3q0 -2 2.5 -2.5t6.5 -1t8.5 -2t8 -4t6 -7.5t2.5 -13q0 -5 -3 -8.5t-8 -5t-10.5 -1.5h-9.5q-6 0 -12 0.5t-11 3.5t-7.5 7.5t-2.5 12.5t3.5 11t8 5.5t8 7t3.5 14.5v5v4t-0.5 4t-1.5 4q0 1 -0.5 2.5l-0.5 1.5h-18v-29q0 -2 -2 -3.5t-3 -1.5z
M64 66v-4.5v-4.5l3 -4.5t4 -1.5h2t2 1q0 4 1 7.5t2 6.5t2 6.5t1 6.5v4v2l-2 2q-1 1 -3 2.5t-3 1.5v0h-1q-2 0 -4 -3t-3 -7t-1 -8.5v-6.5zM84 53v-5v-5q2 -2 4.5 -2.5t5.5 -0.5t5 2t2.5 4t0.5 5v6q0 2 -0.5 5.5t-2 6t-4 4.5t-5.5 2q-2 0 -3.5 -3t-2 -6.5t-0.5 -7.5v-5z
M139 46q0 -6 3 -9.5t8 -5t10.5 -1.5h10.5h10q4 1 6 4t2 6q0 5 -2.5 8t-6.5 5.5t-8 3.5t-8 1q-2 0 -6 -0.5t-8 -2t-7.5 -3.5t-3.5 -6z" />
</svg>
