<?xml version="1.0" standalone="no"?>
<!DOCTYPE svg PUBLIC "-//W3C//DTD SVG 1.1//EN" "http://www.w3.org/Graphics/SVG/1.1/DTD/svg11.dtd" >
<svg xmlns="http://www.w3.org/2000/svg" xmlns:xlink="http://www.w3.org/1999/xlink" version="1.1" viewBox="-10 0 266 256">
   <path fill="currentColor"
d="M120 248q0 2 1 2.5t2 0.5h2q6 -5 10 -11.5t7 -14t5 -15t5 -14.5q1 -1 1.5 -5.5t1.5 -9.5t2 -8.5t2 -3.5h0.5h0.5q1 6 3 12t3 12l21 43l7 8h4v-8q-1 -1 -3 -5.5t-4.5 -9.5t-5 -9t-3.5 -6q-3 -6 -6 -14l-6 -16t-5 -15.5t-2 -14.5q0 -2 0.5 -4t3.5 -2q4 0 8.5 1.5t9 4
t8.5 5.5t7 6h2q2 0 2.5 -2t0.5 -3q0 -4 -3 -6.5t-8 -4.5t-10 -3.5t-10 -3.5t-8 -4.5t-3 -6.5q0 -8 3 -11.5t8.5 -4.5t11.5 -0.5t12 -1.5q1 0 1.5 -1.5l0.5 -1.5q0 -3 -1 -3h-3q-6 0 -11.5 1t-10.5 1h-4t-4 -1q-3 -4 -3 -10q0 -2 1.5 -3.5t3.5 -2.5q1 0 3.5 0.5t5.5 0.5
q2 0 5 -0.5t4 -0.5q2 0 4 -1t2 -3q0 -1 -0.5 -2.5t-1.5 -1.5h-22q-2 0 -2.5 -1.5t-0.5 -3.5v-4v-2v-6q0 -1 0.5 -1.5l0.5 -0.5q3 -1 6 -1.5t6.5 -0.5h6.5t5 1l3 -3l2 -2v-1v-0.5v-0.5l-0.5 -0.5l-0.5 -0.5h-18q-1 0 -2 -1.5t-1 -2.5q-1 -1 1 -4t4.5 -6l5 -6t2.5 -4
q0 -4 -5 -4q-3 0 -5 2t-3.5 5t-3 6.5t-2.5 6t-3.5 4.5t-6.5 2h-2q0 -2 -1 -6t-2.5 -7.5t-4 -6t-5.5 -2.5q-2 0 -2.5 1t-0.5 2q0 3 1.5 6t3 5.5t2.5 4.5t1 5v0.5v0.5q-5 2 -11 2.5t-11 0.5q-2 1 -2.5 4l-0.5 3q7 0 13 -1t13 -1h2.5h2.5q3 1 3.5 2.5t0.5 3.5v4q0 3 -1 5
t-2 3.5t-4 2.5q-1 0 -4 0.5t-6.5 1t-6 1t-4.5 0.5q0 2 -3 2q0 2 1 2.5t2.5 1l3 1l1.5 0.5q1 0 2.5 -0.5t3.5 -0.5t3.5 -0.5l1.5 -0.5h4q4 0 5 3t1 7v3t-2 3h-7.5h-9t-9 1.5t-6.5 4.5q2 3 4.5 3.5t4.5 0.5q5 0 9.5 -1t8.5 -1q3 0 4.5 1t2 3t0.5 5v5q0 5 -3 8.5t-7.5 5.5
t-10 3t-10 3t-8 4t-3.5 5q0 2 2 2h3h2q2 -1 6 -3.5t8 -4.5t8.5 -3.5t7.5 -1.5t3.5 1t0.5 5q0 9 -3 21.5t-7.5 25.5t-9.5 25t-9 19q-1 2 -3 4.5t-2 4.5zM84 189v7t0.5 12l1 14t1.5 13.5t2.5 10t4.5 3.5t4 -1t1 -5v-2.5t-0.5 -4t-0.5 -4.5t-1 -4l-0.5 -2t-0.5 -3
q-1 -5 -1.5 -9t-0.5 -8.5v-8.5v-10q0 -11 1.5 -20t5.5 -20q1 -3 2.5 -5.5t2.5 -5t2 -5.5t1 -6q0 -4 -1.5 -7l-3 -6t-2.5 -6t-1 -6q0 -4 2 -6.5t5 -5t5 -5t2 -6.5q0 -3 -1 -6t-2.5 -6l-3 -6t-1.5 -7t2 -7t2 -7q-5 0 -8 1.5t-5.5 3t-4.5 2.5t-5 1q-2 0 -3.5 -1.5t-1.5 -3.5
v-27q0 -1 -2 -1.5l-2 -0.5q-2 0 -3 1.5t-1.5 3.5l-1 4t-0.5 3l0.5 3.5t0.5 7.5t0.5 7t0.5 4v3q0 2 -3.5 4.5t-8.5 6t-8.5 9.5t-3.5 16q0 5 2 9t5 8t5 8t2 9v1l-4 10t-4.5 10t-4 10t-1.5 11v5t-0.5 7.5t-0.5 7.5v5q3 0 6.5 -1t4.5 -4q0 -1 -0.5 -4t-0.5 -5q0 -3 0.5 -5.5
t0.5 -3.5q0 -2 0.5 -7.5t2.5 -11t3.5 -10.5t4.5 -6q2 2 4 2.5t5 0.5q4 0 4 -4q0 -2 -1.5 -3.5t-3 -2.5t-2.5 -2t-1 -3t1.5 -3.5t3.5 -3t4.5 -2t3.5 -0.5q3 0 5 1.5t3.5 4.5t2 5.5t0.5 4.5q0 8 -3 14t-5 13q-4 9 -6.5 19.5t-2.5 19.5zM59 89v-1q0 -3 0.5 -7.5t2.5 -9t4.5 -7
t7.5 -2.5q1 0 3 4t4 10t3.5 11.5t1.5 7.5t-1 3.5t-3 3.5t-4 3t-3 2h-1h-2h-1.5t-0.5 -0.5t-0.5 -1t-0.5 -1.5q-1 -1 -2.5 -3t-3 -4.5t-3 -4.5t-1.5 -3zM86 65q0 -4 1 -6.5t2 -6.5h3q3 0 5.5 3.5t4 8.5t2 9.5t0.5 6.5v1l-3.5 3.5l-3.5 3.5v0q-3 0 -5 -3.5t-3.5 -7.5t-2 -8z
" />
</svg>
