<?xml version="1.0" standalone="no"?>
<!DOCTYPE svg PUBLIC "-//W3C//DTD SVG 1.1//EN" "http://www.w3.org/Graphics/SVG/1.1/DTD/svg11.dtd" >
<svg xmlns="http://www.w3.org/2000/svg" xmlns:xlink="http://www.w3.org/1999/xlink" version="1.1" viewBox="-10 0 266 256">
   <path fill="currentColor"
d="M88 199v6.5t1 10.5l2 12t2.5 11.5t3.5 8.5t4 3t3.5 -1.5t1.5 -4.5t-1 -5.5t-2.5 -5t-2.5 -5t-2 -5.5q-1 -6 -1 -14v-15v-7v-9t0.5 -8.5t0.5 -6.5q1 -5 3.5 -9.5l5 -9t4.5 -9t2 -9.5q0 -6 -2 -10.5t-5 -8t-5.5 -6.5t-2.5 -5q0 -4 3 -6t7 -5t7 -7t3 -13v-4v-4
q-3 -3 -3.5 -7.5t-0.5 -7.5q0 -2 1.5 -3.5t3 -2.5t2.5 -2t1 -2q0 -3 -1 -3h-3q-4 0 -7 1t-5.5 2.5t-5.5 2.5t-6 1h-2t-1 -2v-19q0 -3 -2.5 -3h-3.5h-2.5t-2.5 1v6q0 5 1 10.5t1 11.5q0 3 -4 4t-8.5 3.5t-8 7.5t-3.5 15v8.5t2 9.5q1 6 4 11t3 11q0 3 -1 5.5t-2.5 5t-2.5 5.5
t-1 5q-2 9 -2.5 18.5t-0.5 18.5v10v2t0.5 3t1.5 3t2 1t2.5 -1t2.5 -2.5t1.5 -3.5t0.5 -3v-1.5v-3t-0.5 -3l-0.5 -1.5v-2v-4v-4v-3v-9q0 -3 0.5 -6.5l1 -7t1.5 -8.5q0 -1 1 -1.5t2 -0.5q3 0 4 1.5t2 3.5t2 3t3 1t3 -1.5t1 -2.5q0 -2 -1 -4.5t-3 -4t-3 -3.5t-1 -5v-0.5v-0.5
l8 -7h3l1 1t2.5 2t3 2.5l2.5 2.5q2 3 2.5 8.5t0.5 8.5q0 6 -1.5 11.5t-4 11t-5 10.5t-3.5 11t-1 13v13zM158 149h2t2 1v91q0 2 1 2.5t3 0.5h1h1q2 -5 3.5 -7t1.5 -6q0 -2 -0.5 -3.5t-1.5 -3.5v-10v-16v-15v-10q0 -1 -0.5 -2.5t-0.5 -3v-3v-2.5v-1v-3v-5t1 -3t2 -1q3 0 5.5 2
t4 5t2.5 6t1 5q0 3 1 8t1.5 11t1 10.5t0.5 5.5t0.5 5t0.5 8.5t0.5 8.5t0.5 6l1.5 1.5t1.5 0.5q3 0 4.5 -4t1.5 -7v-1v-1l-1 -2.5t-1 -3.5q0 -2 -0.5 -8.5t-1.5 -13t-1.5 -13t-0.5 -8.5q0 -1 -0.5 -2l-0.5 -1q-1 -1 -1 -3t-1 -4t-1.5 -4t-0.5 -3q-1 -4 -4 -6.5t-7 -3.5
t-6.5 -2t-2.5 -3v-12l1 -0.5t2 -0.5q4 -2 9 -3t8.5 -3.5t5.5 -6.5t2 -10v-4t-3 -2t-4 3t-2.5 6.5t-4 7t-8.5 3.5q-1 0 -3.5 -0.5t-2.5 -3.5v-15q0 -2 3.5 -2.5t7.5 -2.5t7.5 -6t3.5 -13v-52q0 -3 -1 -3.5t-2 -0.5q-2 0 -4 1t-2 4v16q0 1 -3.5 1.5t-5.5 0.5h-2h-4.5h-4.5h-4
h-6h-4l-3 -3v-13q0 -2 -1.5 -2h-1.5q-2 0 -3 1t-1.5 3t-0.5 4v3v2q0 1 0.5 4.5t0.5 7.5t0.5 7t0.5 4v8.5v9t1.5 9t4.5 6.5l1 0.5t2.5 0.5t2.5 0.5l1 0.5q3 1 4.5 3t2.5 4.5t1 5v4.5v7l-3 2h-1q-6 0 -8.5 -3.5t-3.5 -7.5t-2.5 -7.5t-4.5 -4.5q-2 -1 -3 1.5t-1 3.5q0 8 2 12
t5 6t6.5 3t6.5 2t5 3t2 6v4t-2 4q-5 0 -9 2.5t-6.5 7t-4 10t-2.5 9.5q-1 3 -1.5 9.5t-1.5 14.5t-2 14.5t-1 9.5v1v2q0 2 0.5 4t3.5 2h2t1 -1q0 -4 1 -12t2 -17t2 -17.5t1 -11.5q1 -2 1.5 -5.5t2.5 -6.5t4 -5t6 -2zM67 71v-4.5t1 -5.5t3 -4.5t5 -1.5q4 0 5.5 5t2.5 11.5
t1 13.5v8v3v3q-3 2 -4.5 2.5t-4.5 0.5q-2 0 -4 -4t-3 -9.5t-1.5 -10.5t-0.5 -7zM147 75v0q0 -1 0.5 -2.5t1.5 -2.5h4t6.5 -0.5t6 -0.5h4.5h4q3 0 6 0.5t3 4.5q0 7 -5 10.5t-11 3.5q-3 0 -6.5 -0.5t-6.5 -2t-5 -4t-2 -6.5zM89 58q0 -1 0.5 -2.5t0.5 -3.5t0.5 -3.5t0.5 -2.5
q1 -3 4.5 -4t6.5 -1q2 0 4 3t3 7t1 8v6q0 3 -1 7t-3 7.5t-5 5.5t-6 2h-2h-1q0 -2 -0.5 -6t-1 -8.5l-1 -9t-0.5 -5.5zM146 54v-3.5t3 -2.5h33q1 0 1.5 1t0.5 2t0.5 2.5l0.5 1.5q0 1 -1 4.5t-2 3.5h-32q-3 0 -3.5 -3.5t-0.5 -5.5z" />
</svg>
