<?xml version="1.0" standalone="no"?>
<!DOCTYPE svg PUBLIC "-//W3C//DTD SVG 1.1//EN" "http://www.w3.org/Graphics/SVG/1.1/DTD/svg11.dtd" >
<svg xmlns="http://www.w3.org/2000/svg" xmlns:xlink="http://www.w3.org/1999/xlink" version="1.1" viewBox="-10 0 266 256">
   <path fill="currentColor"
d="M90 245q1 1 2.5 2l1.5 1q1 0 2 -1t1 -2t0.5 -2.5t0.5 -2.5q0 -6 -2.5 -13t-3.5 -14q-2 -8 -2 -15v-15v-13.5t2 -12.5q0 -2 1.5 -5.5t3 -7.5t2.5 -7.5t2 -5.5q1 -3 3.5 -6t2.5 -7t-1.5 -8t-3.5 -7.5t-3.5 -6t-1.5 -4.5q0 -1 0.5 -1h0.5q3 -4 5.5 -6t5 -4.5t4 -6t1.5 -9.5
q0 -4 -2 -9t-2 -9v-1.5v-0.5l12 -7v-0.5v-0.5q0 -3 -2.5 -3.5t-4.5 -0.5q-4 0 -7 1l-6 2t-6.5 2t-7.5 1v-18l-0.5 -0.5t-0.5 -1.5l-1.5 -1l-1.5 -1l-1 1l-1.5 1.5t-1.5 1l-1 0.5v24q-5 2 -9 3.5t-7 4t-5 6t-2 9.5t0.5 10.5t2.5 10.5q1 1 1.5 2.5t2 3.5t2.5 3.5t1 3.5l-2.5 4
t-5 8.5t-5 9.5l-3.5 7q-1 9 -1 19.5v19.5v13q0 1 1.5 2t3.5 1l0.5 -0.5t0.5 -1.5q1 -1 2 -2.5l1 -1.5v-42q0 -2 0.5 -5.5t1.5 -7t2.5 -6t3.5 -2.5h1q2 1 3 3t1.5 4t2 3t3.5 1t2 -1.5v-3.5q0 -4 -2.5 -8t-2.5 -9q0 -1 2 -3t4 -3.5t4 -2.5t4 -1t4 2t4 4.5t3.5 5.5t1.5 4
q0 5 -1.5 9.5t-4 8.5t-4.5 8l-4 8t-3 9t-2 10.5t-1 11v9.5q0 15 3 30t6 29zM196 244q1 2 2.5 3t3.5 1v0q1 0 2 -1l2 -2q0 -3 -0.5 -11t-0.5 -18v-20v-21t0.5 -18t0.5 -11v-7.5v-13t0.5 -15.5t0.5 -15v-12.5v-7.5v-1q0 -11 -1 -19.5t-4 -14t-9.5 -8.5t-18.5 -3h-12.5t-12.5 2
t-11 5.5t-9 9.5q-2 9 -2.5 17.5t-0.5 16.5v17v18v6v9t-0.5 11t-0.5 11.5v9v4.5v9v16v15v9q-1 6 -2 11.5t-1 10.5q0 3 1.5 5.5t4.5 2.5q2 0 3.5 -1.5t1.5 -3.5v-155q1 -3 1.5 -7t0.5 -7.5v-7t1 -6.5q1 -8 5 -12t10 -5.5t12.5 -1.5h13.5h3h2t4 0.5t3.5 1t2.5 0.5q3 2 4 4
t1.5 4t0.5 4v5q0 1 0.5 5.5t0.5 10t0.5 10t0.5 5.5q0 37 -2 73.5t-2 73.5v9zM146 147v12.5t2 12t5.5 9t10.5 3.5q8 0 12 -2t5.5 -5.5t2 -9t0.5 -12.5l0.5 -5.5t0.5 -12.5t0.5 -14.5t0.5 -12.5v0v-1q0 -1 -0.5 -2t-1.5 -1q0 -1 -2 -4.5l-2 -3.5h-9q-2 0 -5 -0.5t-6.5 -0.5
t-6.5 1.5t-4 3.5q-1 11 -2 23t-1 22zM154 163q0 -3 3 -4.5t7 -2t7.5 0t5.5 0.5q0 7 -2.5 12.5t-10.5 5.5q-5 0 -7.5 -2.5t-2.5 -9.5zM154 149v-13l2.5 -1t6 -1.5t7 -0.5h5.5t3.5 0.5t1.5 3.5q0 1 -0.5 3l-1 4t-1 3.5t-2.5 1.5h-21zM155 117q0 -7 4 -9t9 -2t8.5 1.5t3.5 6.5
t-1 7t-3 3t-5 1h-6h-7q-3 -1 -3 -3.5v-4.5zM66 73v-6t1 -5t2.5 -3.5t5.5 -1.5t6 3.5t3 7.5t1.5 9t0.5 7q0 5 -3.5 7t-8.5 2q-3 0 -4.5 -2.5t-2.5 -5.5t-1 -6v-6zM148 79q0 3 2 3.5t4 0.5h2h2h6t8 -0.5t8 -0.5h6q1 -1 1 -2v-2t-0.5 -2t-2.5 -1h-33l-1.5 1.5l-1.5 1.5v1z
M92 80q-1 -1 -1 -4.5t-0.5 -7t-1 -6.5t-1.5 -5v-2q0 -2 0.5 -3t1.5 -2q1 0 2.5 -0.5l1.5 -0.5q4 0 6 1.5t3.5 4.5t2 6t0.5 6q0 6 -2 10.5t-9 4.5q-1 0 -2 -0.5t-1 -1.5zM148 57l3 2h35q1 0 1 -1.5v-1.5v-2t-1 -1h-15q-1 0 -4.5 -0.5t-7 -0.5t-7 1.5t-4.5 3.5z" />
</svg>
