<?xml version="1.0" standalone="no"?>
<!DOCTYPE svg PUBLIC "-//W3C//DTD SVG 1.1//EN" "http://www.w3.org/Graphics/SVG/1.1/DTD/svg11.dtd" >
<svg xmlns="http://www.w3.org/2000/svg" xmlns:xlink="http://www.w3.org/1999/xlink" version="1.1" viewBox="-10 0 266 256">
   <path fill="currentColor"
d="M156 217v8q0 5 0.5 11t2 10t4.5 4t5 -2t2 -5v-1.5v-0.5l-0.5 -1t-1 -2.5t-1 -2.5l-0.5 -1q-1 -5 -1 -11.5v-11.5q0 -9 2 -15t5.5 -10.5t7.5 -9t7.5 -10t5.5 -12.5t2 -16v-2q0 -1 -0.5 -4l-1 -6t-1.5 -6t-1 -4q-3 -4 -5 -6t-4.5 -3.5t-6 -2t-7.5 -0.5h-9q-11 5 -17 13
t-9.5 18t-5 21t-3.5 21v2q0 3 1 3.5t3 0.5t4.5 -1t2.5 -3v-25q0 -4 1.5 -5t4.5 -1t5.5 2.5t4.5 6t4 7.5t4 6h1h2.5t0.5 -2q0 -5 -2 -9t-4.5 -7.5t-6 -6.5t-7.5 -7q0 -1 -0.5 -2l-0.5 -1v-3.5t1 -3.5t2 -3.5t3 -1.5q4 0 8 4t7.5 9t6.5 9.5t6 4.5q2 0 2.5 -1t0.5 -3
q0 -4 -3.5 -9t-8 -9t-8 -7t-3.5 -5t1.5 -3t3.5 -1.5t3 -0.5h3q5 0 9 2.5t6.5 6.5t4 8.5t1.5 9.5q0 9 -3 15.5t-7.5 12.5t-9.5 11.5t-9 12.5q-3 5 -3.5 13t-0.5 14zM88 179q0 1 0.5 6.5t1 13t1 16t2 16t3 12t3.5 4.5q3 0 4.5 -1.5t1.5 -3.5v-2q0 -1 -0.5 -2t-1 -2.5l-1 -3
l-0.5 -1.5q-3 -12 -4 -23.5t-1 -23.5q0 -7 0.5 -15t1.5 -15q0 -5 1.5 -9t3.5 -8t3.5 -8t1.5 -9q0 -3 -1.5 -7t-3 -8.5t-3.5 -8t-4 -5.5v-1q0 -4 2.5 -6t5.5 -4t5 -4t2 -6q0 -7 -2 -11t-4 -10v-2q0 -2 1.5 -2.5t3.5 -1.5t3.5 -1.5t1.5 -2.5q0 -3 -2 -3.5t-4 -0.5q-3 0 -6 1
t-5.5 2t-5.5 2t-5 1q0 -6 0.5 -11.5t0.5 -10.5q0 -3 -0.5 -4t-3.5 -1q-4 0 -6 2t-2 6t0.5 8t0.5 8v6q-2 5 -6 6.5l-8 3t-6.5 5t-2.5 10.5q0 4 1.5 8t3 7.5l3 7t1.5 6.5q0 2 -1.5 5t-3 5.5t-2.5 5t-2 3.5v19v19q0 9 5 18h2q3 0 4 -3t1 -6q0 -8 -1.5 -15.5t-1.5 -15.5
q0 -1 -0.5 -4.5t0.5 -7.5t2 -7t4 -3q2 0 3 1.5t2.5 3t3 2.5t2.5 1q2 0 2 -2v-3q0 -3 -2.5 -5.5t-2.5 -6.5q0 -3 2.5 -5.5t5.5 -2.5h1.5h1.5q7 6 9 12t2 14t-1.5 15t-4 14.5t-4.5 14.5t-2 15zM65 69q0 -2 1 -5t2.5 -5.5t3.5 -4.5t5 -1q2 1 3 5t2 9.5t1.5 10.5t0.5 6v3
q-3 2 -5 4t-6 2h-1h-1q-4 -6 -5 -11.5t-1 -12.5zM125 62v1q1 12 3 17.5t6 7.5t11 2h18h17q9 -1 13.5 -5t6.5 -9.5t2 -12.5v-15q0 -2 -1 -5t-2.5 -6t-3.5 -5t-6 -2q-15 0 -30 1t-30 4q-1 1 -2 5t-1.5 9t-0.5 9v4zM145 80q0 -2 2 -5t5 -6t6 -4.5t6 -1.5q1 0 4 2t6.5 5t6.5 5.5
t3 3.5h-0.5h-0.5q0 1 -0.5 1.5l-0.5 0.5q-2 1 -5 2t-4 1h-26q-1 0 -1.5 -1.5t-0.5 -2.5zM94 47q3 0 4.5 2.5t2.5 5.5t1 6v6v7q-2 2 -3.5 4t-4.5 2q-1 0 -3 -3t-2 -5v-20q0 -2 1.5 -3.5t3.5 -1.5zM169 72h-3t-4 0.5t-3.5 1.5t-1.5 3h4t4 -0.5t3 -1.5t1 -3zM134 72
q0 -1 -0.5 -2.5t-0.5 -3.5t-0.5 -4t-0.5 -3t0.5 -2.5t0.5 -3.5t0.5 -3.5t0.5 -2.5q2 -3 5 -3q1 0 4 1.5t6 4t5 4.5t2 4v0.5v0.5l-16 16h-1h-1q-3 0 -4 -3zM171 58q0 -1 2 -3.5t5 -4.5t6 -3t4 -1q5 0 6 4t1 8v3.5t-0.5 5t-2 5t-2.5 2.5q-2 0 -5 -2t-6 -4.5t-5.5 -5t-2.5 -4.5
zM146 55q-4 0 -5 2.5t-1 6.5q5 0 5.5 -2t0.5 -7zM188 56q-1 0 -1.5 1t-1 2.5t0 3l0.5 1.5q2 0 3 -1.5t1 -3.5v-1v0q0 -1 -0.5 -1.5l-0.5 -0.5h-1zM148 41q0 -2 1.5 -3t4.5 -1h26l1 1.5l1 1.5v1q0 2 -2.5 4t-6 4t-7 3t-5.5 1t-4 -1t-4 -2.5t-3.5 -4t-1.5 -4.5zM168 40
q-2 0 -5 0.5t-3 2.5v1l3 0.5t4 1.5h1q1 0 2.5 -2t1.5 -3t-2 -1h-2z" />
</svg>
