<?xml version="1.0" standalone="no"?>
<!DOCTYPE svg PUBLIC "-//W3C//DTD SVG 1.1//EN" "http://www.w3.org/Graphics/SVG/1.1/DTD/svg11.dtd" >
<svg xmlns="http://www.w3.org/2000/svg" xmlns:xlink="http://www.w3.org/1999/xlink" version="1.1" viewBox="-10 0 266 256">
   <path fill="currentColor"
d="M81 203q0 3 1.5 11t3.5 16t5 14.5t6 6.5q2 0 3 -2t1 -4q0 -7 -1.5 -13.5t-3.5 -13t-3 -13t-1 -13.5q0 -11 2 -21t6 -20q1 -3 3 -6t3.5 -6t3 -6.5t1.5 -7.5q0 -8 -3 -14t-7 -13v-3l17 -14q2 -2 2.5 -5.5t0.5 -6.5q0 -2 -1 -4.5l-2 -5l-2 -5t-1 -5.5q0 -1 2 -2.5t4 -2.5
t4.5 -2t3.5 -2q-2 -3 -4 -3.5t-5 -0.5q-7 0 -13.5 2.5t-13.5 5.5v0h-1l-2 -1v-6q0 -5 1 -10.5t1 -11.5q0 -3 -4 -3t-7 3v29q0 4 -2 6t-4.5 3.5t-5.5 2.5t-6 3l-4 4t-2 4q0 1 -0.5 5t-0.5 5q0 6 2 11t4 9.5t4 8.5t2 8q0 3 -1 4.5t-3 3.5l-3.5 3.5t-2.5 4.5q-4 12 -7.5 24.5
t-3.5 25.5q0 1 0.5 4t0.5 4q1 1 2 1.5t2 0.5q2 0 3 -0.5t2 -3.5q0 -14 3.5 -27.5t8.5 -27.5q1 -2 1.5 -2.5t2.5 -0.5t2.5 1.5l1 3t1.5 3.5t4 2t3.5 -3t0.5 -4q0 -3 -1 -4.5t-1.5 -3.5t-1.5 -4t-1 -4v-1v-1l9 -9h3q1 0 1.5 1l1.5 3t2 3.5t2 3.5t1 4.5v5.5q0 5 -1 8.5
t-3.5 7.5t-4.5 7.5t-3 7.5q-5 12 -6.5 23t-1.5 24zM125 193q0 2 0.5 6t2 8t4 7t6.5 3h49q5 0 8 -2.5t4 -6.5t1.5 -8t0.5 -7v-3v-3v-3v-2q-1 -1 -2 -1.5l-1 -0.5q-1 0 -3 0.5t-2 1.5l-3 21q0 1 -0.5 1.5t-1.5 0.5l-2 0.5t-4 1.5t-3.5 1.5t-2.5 1.5q0 -1 -2 -1.5l-2 -0.5
l-2 -2v-32l3 -3q2 0 6 -0.5t8.5 -1l9 -1t5.5 -0.5q3 0 4.5 -1.5t1.5 -4.5h-35l-1 -2q-1 0 -1.5 -1t-0.5 -2l-1 -21q-1 0 0 -2t1 -3l1 -1.5l1 -1.5v0q4 0 8 3t8 7t8 7t9 3q2 0 3 -1t1 -4q0 -5 -4.5 -8.5t-10.5 -6l-12 -5t-9 -4.5q-1 -1 -2.5 -3.5t-1.5 -5v-4.5v-4
q-2 -1 -3 -1h-2h-1q-1 5 -2 10.5t-6 9.5l-37 24l-0.5 2t-1.5 3v1q0 2 2 2.5t4 0.5q4 0 8 -4t8.5 -9t8.5 -9t9 -4v0l2 2l1 1q0 1 0.5 4l1 6t0.5 6v4v3q0 2 -0.5 4.5t-2.5 3.5h-5.5t-7.5 0.5t-8 0.5h-5q-2 1 -5.5 1.5t-3.5 3.5v2t1 1h34l0.5 0.5t0.5 1.5q1 1 1.5 4.5t0.5 4.5
v7.5t-0.5 9t-2.5 8t-6 3.5q-9 0 -12 -4t-4 -8.5t-1.5 -8t-4.5 -3.5q-1 0 -2 0.5t-2 1.5q0 1 -0.5 2.5t-0.5 2.5zM149 88q0 5 -4.5 7t-10 4t-10.5 5t-5 10q6 0 10 -2t7.5 -5t7.5 -5.5t9 -3.5q4 -1 11 -2.5t14 -4t12.5 -5.5t7.5 -8v-3v-4v-4v-2q0 -7 -0.5 -11.5t-2.5 -7.5
t-6 -5t-11 -2q-1 0 -5 1t-10 2t-12 2.5t-11.5 3.5t-9 3.5t-3.5 3.5v1.5t2 1.5h11q2 0 3.5 4t2.5 9l2 10t1 7zM67 79q0 -2 0.5 -5t1.5 -5.5t2.5 -4.5t4.5 -2q1 0 3.5 4t5 9.5t4.5 11t2 7.5t-1.5 3t-4 2t-4.5 2t-3 1v0q-4 0 -6 -3t-3 -6.5t-1.5 -7.5t-0.5 -6zM150 56
q0 -3 2.5 -3.5t5.5 -0.5t5.5 3.5t4 8.5t2 10t0.5 8t-3 4t-6 1h-2h-3q0 -3 -1 -7t-2 -8.5t-2 -8.5t-1 -7zM90 59q0 -3 3 -5.5t7 -3.5q3 0 5.5 2t4 5.5t2 7t0.5 5.5t-1 4.5t-3 4.5t-4 3.5t-4 1.5q-4 0 -6 -3t-3 -7t-1 -8v-7zM179 79q-1 -6 -3.5 -13.5t-2.5 -13.5
q0 -4 1.5 -4.5t3.5 -0.5q4 0 6 2t3 5t1.5 6.5t0.5 6.5q0 1 -0.5 4t-0.5 4l-1 1q-1 1 -3.5 3l-2.5 2z" />
</svg>
