<?xml version="1.0" standalone="no"?>
<!DOCTYPE svg PUBLIC "-//W3C//DTD SVG 1.1//EN" "http://www.w3.org/Graphics/SVG/1.1/DTD/svg11.dtd" >
<svg xmlns="http://www.w3.org/2000/svg" xmlns:xlink="http://www.w3.org/1999/xlink" version="1.1" viewBox="-10 0 266 256">
   <path fill="currentColor"
d="M87 221q1 2 2.5 7t3 9.5t3.5 8.5t5 4t3 -4q0 -6 -1.5 -11t-4 -10.5t-4.5 -11t-2 -10.5q0 -1 -0.5 -2.5t-0.5 -4.5v-4v-4v-12t0.5 -14t3 -13t6.5 -9q0 -1 0.5 -3.5l1 -5l1 -5t0.5 -3.5v-2q0 -3 -1.5 -7t-2.5 -7t-2.5 -6t-1.5 -5t2 -4.5t4.5 -4.5t4.5 -5t2 -7v-1
q0 -1 -0.5 -4t-0.5 -7t-0.5 -7t-0.5 -4v-2q0 -3 1.5 -3.5t3 -1.5t2.5 -1.5t1 -2.5t-0.5 -3.5t-2.5 -0.5h-1.5t-2.5 0.5t-2.5 1.5l-1.5 1q-1 0 -4 0.5t-6.5 1.5t-6.5 1.5t-5 0.5v-28q0 -2 -2 -3.5t-4 -1.5q-1 0 -3 1t-2 3v32q0 1 -0.5 1.5l-0.5 0.5q-3 2 -5 3t-3.5 2t-3.5 3
t-3 5q-1 1 -1.5 3t-0.5 4v4v3v9t2 9q1 5 3.5 10t2.5 10q0 3 -1 5.5t-2.5 5t-2.5 5t-2 5.5q-2 12 -2.5 23.5t-0.5 22.5v4v5.5v4.5v3q0 2 0.5 6.5t1 9.5l1 10t0.5 6q1 2 1.5 2.5t1.5 0.5q2 0 3.5 -2.5t1.5 -4.5q0 -12 -1.5 -24t-1.5 -24q0 -13 1 -25t6 -24h1h1l1.5 1.5t3 3.5
t3.5 3t3 1q2 0 2.5 -2t0.5 -3q0 -3 -1 -5.5t-2.5 -4.5t-3 -4.5t-1.5 -5.5q0 -2 1.5 -3.5t3.5 -3t4 -2t4 -0.5h3q2 3 3.5 5t2.5 3.5t1.5 4t0.5 6.5q0 5 -1.5 10t-3.5 9.5t-3.5 9.5t-2.5 10q-2 6 -2 12.5v12.5v9v7.5t1 7.5t2 10zM134 191q0 10 0.5 18.5t3 15t9 10.5t17.5 4
t18 -2t11 -6.5t5.5 -11t1.5 -16.5v-3v-4.5v-4.5v-2q-1 -2 -2 -2h-2q-3 0 -5 1.5t-4 3.5t-5 4t-9 2q-3 0 -5 -2.5t-2 -5.5t1.5 -5t3.5 -4q1 0 3.5 -0.5t6 -1t6 -1t4.5 -0.5q1 -1 2.5 -2l3 -2t2.5 -1.5t1 -1.5v-22q0 -2 -1.5 -2.5t-2.5 -0.5q-2 0 -2.5 2t-1 5t-1.5 6.5
t-3.5 6.5t-6.5 5t-12 2v-14q0 -3 1.5 -4t3 -1t3 -0.5t1.5 -1.5q2 -1 2 -3t0.5 -4.5t1 -4.5t1.5 -3q2 -2 6 -2t7.5 -0.5t6.5 -1.5t3 -4t-4 -3t-8.5 1t-8.5 2q-14 1 -27 2.5t-26 2.5h-2.5h-3.5t-4 0.5l-2 0.5q-2 1 -2 3v3h26l0.5 1.5t1.5 1.5q3 10 12 15v2.5v2.5v5q0 2 -1 4
h-6q-8 0 -12 -2t-5.5 -4.5t-2 -5.5t-1 -5.5t-1.5 -4.5t-4 -2q-2 0 -3 0.5t-1 2.5l3 21q1 4 6.5 5.5t11.5 2t11 1t5 2.5v12q0 1 -1.5 2t-3 1.5t-3.5 0.5h-2q-3 0 -4 -1.5l-2 -3t-2.5 -3t-5.5 -1.5zM146 215q0 -5 5.5 -7t13 -3t14.5 -1h11q0 8 -1.5 13t-5 7t-9 3t-13.5 1h-9
q-4 -3 -5 -6t-1 -7zM153 144q0 -2 1.5 -3.5t3.5 -2.5t4 -1h4t4 0.5t2 2.5q0 5 -3 8t-7 3q-3 0 -6 -2t-3 -5zM155 101v2t-0.5 3.5l-1 3t-1.5 1.5h-29q-1 0 -1.5 1l-0.5 1v3.5v3.5q7 0 15.5 -0.5t15.5 -3.5h45q2 0 2.5 -2t0.5 -3q0 -3 -1 -4t-3 -2q-5 1 -8 2t-5.5 1t-5.5 0.5
t-6 0.5h-7q-1 -2 -1 -4.5v-4.5v-2v-2.5t0.5 -2.5t2.5 -1h28q1 0 1.5 -1.5t0.5 -2.5q0 -2 -2.5 -3.5t-4.5 -0.5h-2t-4.5 1t-4.5 1.5t-3 0.5h-0.5h-0.5q-6 0 -8.5 -1t-2.5 -7q0 -5 2.5 -7t6.5 -2.5t8 -0.5h8t6.5 -1.5t2.5 -4.5t-4 -3q-6 0 -12.5 1.5t-12.5 1.5q-3 0 -3.5 -1.5
t-0.5 -4.5t1.5 -4t5.5 -6l1 -1l28 -3l1.5 -1.5l1.5 -1.5q0 -1 -0.5 -2l-0.5 -1h-20q0 -6 2.5 -10.5t2.5 -10.5q-8 0 -11.5 4.5t-5.5 10t-3.5 10t-5.5 4.5q-6 0 -8.5 -4.5t-5 -10t-5.5 -10t-9 -4.5h-2t-2 2q0 3 1.5 5t3.5 3.5t4 3.5t2 4v1q0 1 -1 2.5t-1 2.5h-2.5t-3.5 0.5
t-4 0.5h-2q-1 1 -2 1.5l-1 0.5h-0.5t-0.5 1q0 2 2 3t5 1q4 0 7.5 -1t8.5 -1q2 0 4 0.5t2.5 2t1.5 3.5t2 5v1v0q0 1 -1 3t-2 2l-1 2q-3 -1 -8 -1.5t-9.5 0t-8 2.5t-3.5 7h4h5l2.5 -0.5t5 -0.5t4.5 -0.5t3 -0.5q4 0 6.5 1t2.5 5q0 1 -0.5 3l-1 4t-2 3.5t-2.5 1.5h-23l-0.5 1
t-1.5 1v1q0 3 2 3.5t4 0.5q5 0 10 -1t10 -1q3 0 4 2t1 5zM61 80v-4v-5q2 -6 9 -6h1q1 1 1.5 3.5l1 5t1.5 5t1 3.5t1 2t1.5 2.5t1.5 3l1 1.5v1v1v1v0l-10 10h-4l-2 -3.5t-3 -6.5q-1 -2 -1 -3.5t-0.5 -2.5t0 -3t0.5 -5zM81 62v-7q1 -3 5.5 -4.5t7.5 -1.5t4.5 3t2 6.5t0.5 7
v4.5v9q-1 4 -4.5 6.5t-6.5 4.5q-5 -6 -7 -13t-2 -15z" />
</svg>
