<?xml version="1.0" standalone="no"?>
<!DOCTYPE svg PUBLIC "-//W3C//DTD SVG 1.1//EN" "http://www.w3.org/Graphics/SVG/1.1/DTD/svg11.dtd" >
<svg xmlns="http://www.w3.org/2000/svg" xmlns:xlink="http://www.w3.org/1999/xlink" version="1.1" viewBox="-10 0 266 256">
   <path fill="currentColor"
d="M114 144h-1v0l-1 7l-1 7t-1.5 16.5t-1.5 20t-1 16.5v3.5v2.5q0 2 -0.5 4.5t-0.5 5t-0.5 4.5l-0.5 2q0 1 -0.5 2l-1 2t-1 1.5t-0.5 1.5v2t-0.5 3.5t-0.5 3v2.5q5 0 7.5 -4t3.5 -9q1 -11 2 -21t2 -19.5t1.5 -19t0.5 -19.5v-3v-3v-3v-2q0 -1 -1.5 -2.5t-2.5 -1.5v0v0z
M184 221q0 2 -0.5 6.5t0 9.5t2 9t4.5 4t4 -2.5t1 -4.5q0 -26 -1 -51t-1 -50q-2 0 -3.5 1t-2.5 3q-1 19 -2 37.5t-1 37.5zM76 190q0 2 0.5 6.5t1.5 10.5t2 12.5t2.5 12t3.5 9.5t3 4q3 0 3.5 -3t0.5 -5q0 -6 -1.5 -10.5t-2.5 -10.5q-2 -5 -2.5 -9l-1 -8t-0.5 -7.5v-8.5v-3v-4
v-3v-2q0 -1 1 -3.5t1.5 -6t1.5 -6.5t1 -4q1 -5 2.5 -8.5l3 -7t2.5 -7.5t1 -9q0 -4 -1 -7.5t-2 -6.5t-2 -6.5t-1 -6.5q0 -4 2 -6.5t4.5 -5.5l5 -6t2.5 -7v-1q-1 -1 -1 -3.5t-0.5 -5t-1 -4.5t-0.5 -3l-1 -1.5l-1 -1.5v-1v-2t1 -2l1.5 -1.5l1.5 -1.5t1 -3q0 -1 -0.5 -2t-1.5 -1
h-1v0q-1 0 -3.5 0.5t-5.5 1.5t-6 1.5t-4 0.5l-0.5 0.5l-0.5 0.5q-3 0 -4.5 -2.5t-1.5 -4.5v-3v-2t0.5 -2.5t0.5 -3v-2.5q0 -3 -1 -4.5t-3 -1.5t-3 1t-1.5 2.5t-0.5 3v2.5v10t1 10q-1 4 -3 5.5t-5 2.5t-5.5 2t-4.5 3t-3.5 6.5t-1.5 13.5q0 5 0.5 9.5t2 8t4 7.5t6.5 8v7
q-5 8 -7.5 15.5t-4 15t-2 15.5t-0.5 18v8l1 1.5t2 1.5v0h1q1 0 2 -5t2 -13t1.5 -16.5t2 -16.5t4 -13t5.5 -5t5 2t5 2q1 0 2.5 -0.5t1.5 -2.5q0 -1 -1 -3t-2.5 -4t-3.5 -3t-2 -2v-2l9 -9h0.5h0.5q3 0 5 3t3.5 6.5t1.5 7.5v7q0 4 -1 8t-2.5 7.5t-3.5 7t-4 7.5q-3 8 -4.5 18.5
t-1.5 19.5zM122 211q0 1 2 2l2 0.5t3 0.5h3h6h6h4q6 0 14.5 0.5t15.5 -1.5v-0.5v-1.5v-2t-2 -1h-52q-1 0 -1.5 1t-0.5 2zM178 172q0 -2 -0.5 -6t-1.5 -7.5t-2.5 -6.5t-5.5 -3h-24q-2 0 -4 1.5l-4 3t-3 4t-1 4.5v24q0 3 2 5.5t5 3.5t6 1.5t6 0.5q13 0 20 -5.5t7 -19.5z
M137 180q0 -4 1.5 -5t5.5 -1h4q2 4 2 6v5v3t-2 2q-5 0 -8 -2.5t-3 -7.5zM163 174q2 0 4.5 1t2.5 4q0 5 -4 9t-8 4v-16q0 -1 2.5 -1.5zM162 153q3 0 4.5 2t2.5 4t1 4.5v4.5h-12v-13q0 -1 2 -1.5zM148 155q1 0 1.5 2l1 4t0.5 3v2h-14q0 -11 11 -11zM110 128q0 1 0.5 1.5
t1.5 0.5t4 1l3 1h65q2 0 4.5 -1.5t2.5 -4.5h-6t-8.5 -0.5t-8.5 -0.5h-6q-1 0 -3.5 -0.5l-2.5 -0.5v-15l0.5 -0.5l1.5 -1.5q2 -1 5.5 -1.5t7 -0.5t6.5 0.5t6 0.5q1 0 1.5 -0.5t1 -2t0.5 -2.5v-2h-30v-12l1 -0.5t2 -1.5q3 -1 5.5 -3t5.5 -3.5t5.5 -3t5.5 -1.5q4 0 6.5 3.5
t5.5 7.5t6 7.5t7 3.5q2 0 3 -0.5t1 -2.5q0 -5 -4.5 -9.5t-10 -8.5t-10.5 -7t-5 -5q0 -4 3 -7.5t3 -7.5q0 -2 -1.5 -2.5t-5.5 -1.5q-1 -1 -3.5 -1.5t-6 -1.5t-6.5 -2t-4 -2l-1 -1v-18q0 -2 -2 -2h-3q-3 0 -4 1.5t-1 4.5v4l0.5 1.5l1 3t0.5 2.5v1q0 1 -1.5 2l-1.5 1h-20
q-1 0 -3 1.5t-2 3.5v0q1 1 2 1.5l1 0.5h22l0.5 0.5l0.5 0.5q0 1 0.5 2.5t0.5 2.5q0 2 -0.5 4.5t-1.5 3.5q-2 0 -5.5 0.5t-7 0.5t-7 0.5t-5.5 0.5l-2.5 0.5t-3.5 0.5v1.5v0.5q0 3 3 3h29v14h-26q-1 0 -1.5 3l-0.5 3h27l0.5 1l0.5 1q0 1 0.5 3t0.5 3q0 2 -0.5 4t-3.5 3
q-7 0 -14.5 0.5t-14.5 1.5q-1 0 -2 2v0v1q1 0 2 0.5t2 0.5h30v17l-3 1h-26l-3.5 0.5t-3.5 1.5q-1 0 -1.5 0.5zM56 74q0 -4 0.5 -6.5t1.5 -5t3 -4.5t6 -5h1q2 0 4.5 5t4.5 11.5t3 12t1 6.5q0 5 -4 8.5t-9 4.5q-3 1 -5.5 -2.5t-4 -8.5t-2 -9.5t-0.5 -6.5zM81 51q0 -4 3 -5.5
t7 -1.5q3 0 4.5 2.5t2.5 5.5t1 6.5v5.5v6t-1 5t-3 4t-5 2t-4.5 -4t-3 -9.5t-1.5 -10.5v-6zM159 68q3 0 4.5 1t1.5 4v1q0 1 -0.5 2l-0.5 1h-8q0 -1 -0.5 -2.5t0 -3t1 -2.5t2.5 -1zM156 54q0 -4 1.5 -6.5t5.5 -2.5q2 0 4 0.5t4.5 1t3.5 2t1 4.5v2t-0.5 3.5t-1.5 3t-2 1.5h-5.5
t-5 -1t-4 -3t-1.5 -5z" />
</svg>
