<?xml version="1.0" standalone="no"?>
<!DOCTYPE svg PUBLIC "-//W3C//DTD SVG 1.1//EN" "http://www.w3.org/Graphics/SVG/1.1/DTD/svg11.dtd" >
<svg xmlns="http://www.w3.org/2000/svg" xmlns:xlink="http://www.w3.org/1999/xlink" version="1.1" viewBox="-10 0 266 256">
   <path fill="currentColor"
d="M165 225q0 2 1 6.5t2.5 8.5t4 7.5t6.5 3.5q6 0 6 -6q0 -3 -1.5 -5.5t-4 -5t-4 -6.5t-1.5 -10q0 -7 2 -12t5.5 -9t6.5 -8.5t4 -11.5q0 -2 0.5 -7t0.5 -11v-11.5v-7.5v-4.5t-0.5 -6t-1.5 -6.5t-3 -4h-4t-6 -0.5t-6 -0.5h-4h-1v0q-1 0 -3.5 0.5t-6 1t-6 1t-3.5 0.5
t-3.5 -0.5t-5.5 -1t-5.5 -1t-3.5 -0.5q0 -2 -1.5 -4.5t-3.5 -4.5q-3 2 -3.5 4t-1 4.5t-2.5 4t-9 1.5q-2 4 -2.5 8.5t-0.5 8.5q0 7 1.5 13.5t1.5 12.5q0 5 -1 9.5t-2.5 9l-3 9t-1.5 8.5v2q0 2 -0.5 4.5t-0.5 5.5v3v3q0 3 0.5 5.5t0.5 4.5v3t1 1h1q2 0 3 -1t2 -3
q0 -5 -0.5 -11t0 -12t1 -11.5t2.5 -11.5v0q3 0 4 1.5t2 3.5t1.5 3.5t2.5 1.5q1 0 2.5 -1.5t1.5 -2.5q0 -3 -1.5 -5t-2.5 -4t-2 -4.5t-1 -4.5q0 -3 1.5 -4.5t4.5 -1.5q6 0 9 5.5t3 10.5q0 3 -1.5 6t-3 5.5t-3 5.5t-1.5 6v21q2 2 2.5 4.5t1.5 5t2.5 4t4.5 1.5q2 0 2.5 -0.5
t0.5 -1t0.5 -1.5l1.5 -3l2 -0.5l2 -0.5l0.5 -1t0.5 -2q3 -6 4.5 -11t2.5 -9.5t2 -9.5t3 -10q1 -2 2.5 -2.5t3.5 -0.5h4t3.5 -2.5t2.5 -8t1 -15.5h-2.5t-2.5 2v4q0 2 -0.5 5t-2 6t-3.5 3t-2 -2v-3q0 -5 0.5 -10.5t0.5 -9.5q1 -3 2.5 -4t3.5 -2.5t4 -5t3 -11.5v0q0 -4 -3 -4
h-1q0 2 -0.5 4.5l-1 5t-2.5 4t-4 1.5v-5t0.5 -6.5t1.5 -6t4 -2.5q4 0 7 0.5t3 4.5q1 5 2 10.5t1 10.5v4v5q0 9 -3 17t-6.5 15.5l-7 15t-3.5 17.5zM71 243q0 2 0.5 3.5t2.5 1.5q5 0 6.5 -4.5t1.5 -7.5v-2v-1.5v-3t-0.5 -3l-0.5 -1.5v-1q0 -10 4.5 -19.5t9.5 -16.5l1 -1.5
t2 -2.5t2 -2.5l1 -1.5q2 -5 2.5 -12t0.5 -13q0 -8 -2.5 -15.5t-4.5 -16.5q-4 -5 -11 -5q-6 0 -10 3.5t-6 8.5t-3.5 11.5t-1.5 13v12.5q0 5 -1 9q0 4 -1.5 7.5t-1.5 7.5v2v2t0.5 2t1.5 1q2 0 4.5 -1.5t2.5 -2.5l2 -29h2q0 1 0.5 4.5t1.5 6.5t2.5 5t3.5 2q3 0 3 -4
q0 -3 -1.5 -7t-3.5 -7.5t-4.5 -7t-4.5 -6.5q1 -2 3 -4.5t4 -2.5t3.5 2t3.5 4.5t3.5 5t2.5 3.5q0 1 2 2l2 1q1 1 1.5 3t0.5 3q0 7 -3 12t-7 9.5t-7.5 9.5t-5.5 10q-2 8 -2.5 17t-0.5 17zM133 205q0 -3 1.5 -5.5t3 -4.5t3 -4.5t1.5 -5.5q0 -4 -0.5 -6.5t-1.5 -6.5l-0.5 -1
t-0.5 -2q-1 0 -1.5 -1.5t-1.5 -3l-2 -3t-1 -2.5v-0.5v-0.5v-0.5v-0.5q7 -5 10 -9.5t3 -12.5v-3q0 -1 -1 -2l-1 -1q0 -3 2 -3.5t5 -0.5h2h4t3.5 1t0.5 3l-1 12q0 2 -1 2h-2h-0.5h-0.5q-1 -5 -1.5 -8t-4.5 -3q0 6 1.5 11t6.5 9v9v3v5.5t-1 6t-2 2.5l-0.5 -0.5l-0.5 -0.5
q0 -1 -0.5 -3.5l-1 -5t-1.5 -4.5t-3 -2h-1q0 1 -0.5 3.5t-0.5 3.5v1q0 3 1 5.5t3 4t3 3.5t1 4q0 3 -1 9.5t-3 14t-4.5 13t-5.5 5.5q-2 0 -3 -3.5t-2 -7.5t-1.5 -8t-0.5 -5zM157 177q1 0 1 2q0 1 -1 1t-1 -1q0 -2 1 -2zM112 137v-3.5t1 -3.5h4h2.5t2.5 2l0.5 2.5l1 5t0.5 4.5
t1 3l0.5 2.5l0.5 2.5v1v1l-1.5 1.5l-3 3t-3 2.5t-2.5 1h-1q-1 -7 -2 -13t-1 -12zM78 132q0 -2 2 -2.5t4 -0.5t4 1.5t4 4t3.5 5t1.5 4.5v1q-1 2 -1.5 4.5l-0.5 2.5h-1q-1 -2 -3.5 -5t-5.5 -5.5t-5 -5t-2 -4.5zM129 134q0 -2 1 -5t4 -3q4 0 5 4t1 6q0 3 -1.5 5.5t-4.5 2.5
t-4 -3.5t-1 -6.5zM74 92q0 6 3 7.5t8 2.5h3t4 0.5t4 0.5h3q17 0 35 -0.5t35 -2.5q2 -1 4.5 -1.5t3.5 -0.5q3 -1 3.5 -5.5t0.5 -6.5v-4l-3 -3l-3 -0.5t-7.5 -0.5h-9h-7.5q0 -1 -5 -1h-6q-15 0 -30 1t-30 4q-6 4 -6 10zM82 93q0 -3 3 -5t7 -2.5t7.5 -0.5t5.5 -1q7 0 13 -0.5
t11 -0.5h11h13h14l4 1v2v1q0 5 -2 6l-6 3h-12.5t-18 0.5t-18.5 0.5h-12h-6h-4q-2 0 -4 -0.5l-4 -1t-2 -2.5zM71 44q0 3 1 7.5t3 8.5t5 7t8 2h4h5h6h3h5h6h5h3q2 0 9.5 -0.5t16 -0.5t16 -0.5t10.5 -1.5q2 0 4 -1t2 -3q0 -4 -4 -4h-2q-1 0 -3 0.5l-4 1t-3.5 1t-2.5 0.5l-32 2
t-32 1h-5q-2 0 -5 -0.5t-5.5 -2t-2.5 -4.5v0q1 -1 2 -1.5l1 -0.5q9 -2 17.5 -5.5t17.5 -6.5q2 -1 3.5 -1h3h3.5h4q5 0 10.5 2t11 4.5t10.5 4.5t10 2q1 0 2 -1.5t1 -2.5v-1l-0.5 -1.5l-0.5 -1.5q-5 -1 -9.5 -3t-8.5 -3.5l-8 -3t-9 -2.5q-1 -1 -3 -1t-3.5 -0.5t-3.5 -1
t-3 -0.5l-1.5 -1t-1.5 -2l1.5 -2.5t1.5 -3.5q1 -1 1.5 -3.5t0.5 -3.5t-2 -2.5t-3 -1.5h-1l-2 1t-2 2v17q0 2 -4.5 4.5t-10.5 4.5t-11.5 4t-7.5 2q-1 0 -3.5 -0.5l-2.5 -0.5v-10q0 -1 -2.5 -1.5t-3.5 -0.5q-2 0 -2.5 0.5t-2.5 1.5v4v4z" />
</svg>
