<?xml version="1.0" standalone="no"?>
<!DOCTYPE svg PUBLIC "-//W3C//DTD SVG 1.1//EN" "http://www.w3.org/Graphics/SVG/1.1/DTD/svg11.dtd" >
<svg xmlns="http://www.w3.org/2000/svg" xmlns:xlink="http://www.w3.org/1999/xlink" version="1.1" viewBox="-10 0 266 256">
   <path fill="currentColor"
d="M137 246q0 3 0.5 4t3.5 1h1.5h0.5l3 -11v-35h17l2 2v2t0.5 5t0.5 6.5v5.5v4v7v6.5v4.5q2 3 5 3q2 0 4 -3v-6q0 -8 -0.5 -15.5t-0.5 -15.5q0 -4 1.5 -7t4 -6t4 -6t1.5 -8v-4v-7.5t-0.5 -9t-0.5 -8v-3.5l-5 -4l-2 -0.5t-5.5 -1l-7 -1t-5.5 -0.5h-1h-2q-9 0 -14.5 1.5t-9 5
t-5 9t-1.5 14.5v1q0 1 0.5 3.5t0.5 5t0.5 5t0.5 3.5q3 3 6 5.5t6 5.5v11q0 8 -1.5 15.5t-1.5 15.5zM93 208l6 27q0 1 1 1h2q2 0 3 -2t1 -5t-2 -6t-2 -6q-3 -13 -7 -25.5t-4 -25.5q0 -12 3 -21.5t8 -20.5q1 -4 3.5 -8t2.5 -8t-1.5 -7t-2.5 -6.5t-2 -6.5t-1 -6t1.5 -4.5t3 -4
t2.5 -5t1 -5.5q0 -4 -1 -8t-1 -8l0.5 -1.5t0.5 -2.5q2 0 4 -0.5l4 -1t3 -2t1 -3.5q-5 0 -9 1t-8 2.5t-8 2.5t-9 1q-1 0 -2 -1t-1 -3t-0.5 -3l-0.5 -1v-15q0 -2 -1.5 -2.5t-3.5 -0.5h-2t-1 2q-1 0 -1 3v3q0 6 2 11t2 10q0 2 -3.5 3.5t-7.5 3.5t-7 7t-3 14q1 1 3.5 5t5 9
l4.5 9l2 4v1q-1 1 -2 2.5t-1 2.5q-1 0 -1.5 2t-1.5 4t-2 3.5l-1 1.5q-4 11 -5.5 24.5t-1.5 25.5v9q-1 2 0 2.5t2 0.5q3 0 4.5 -5t2.5 -12.5t1.5 -16.5t1.5 -17t2.5 -13t5.5 -5q2 0 4 0.5t4 0.5t3 -2t1 -3q0 -3 -1 -5t-1 -4q0 -4 2 -6.5t6 -2.5q2 0 4 2t2.5 5t0.5 6v5
q0 7 -2.5 13t-6 11.5t-6.5 11.5t-3 14q0 5 0.5 12t2 14t3.5 13.5t5 11.5zM138 189l3 -2h1h1q2 0 6.5 0.5t9.5 1t9.5 0.5h6.5v1v1q0 5 -6 5h-23q-3 0 -5 -2.5t-3 -4.5zM137 180q-2 -1 -2.5 -2t-0.5 -3q0 -1 0.5 -3t2.5 -2h40l0.5 1t0.5 2v2v1q0 3 -2 4.5t-6 1.5h-4
q-1 0 -5.5 -0.5t-9 -0.5t-9 -0.5t-5.5 -0.5zM134 161q0 -2 1 -4t3 -3q1 0 3 -0.5t4.5 -0.5t4.5 -0.5t3 -0.5h3h3q1 0 3 0.5t4.5 0.5t5 0.5t3.5 0.5q1 1 1.5 2t0.5 3l-0.5 1.5t-1.5 1.5h-40l-0.5 -0.5zM118 111q0 9 4 14t10 8t13.5 4t14.5 1q5 0 11.5 -0.5t13 -2.5t11 -5.5
t4.5 -9.5v-22q0 -3 -3.5 -5.5t-9 -4t-12 -2t-12 -0.5h-9.5h-4q-8 0 -14 1t-10 3.5t-6 7.5t-2 13zM143 127q0 -2 1.5 -3.5t3.5 -2t4.5 -1t4.5 -0.5q5 0 10 1l10 2v2q0 1 -0.5 2t-1.5 2q-7 1 -11 1h-10h-8q-2 0 -2.5 -0.5t-0.5 -2.5zM126 121v-3q1 0 3 -0.5t4 -2t4 -2.5t3 -2
q1 -2 3 -4.5t4.5 -5t5 -4.5t5.5 -2h3.5t3.5 1q0 1 1 3.5t2 2.5q1 3 5 5.5t7.5 5.5t6.5 5t3 3q0 4 -3 4q-2 0 -5 -2t-6.5 -4t-8 -3.5t-9.5 -1.5q-4 0 -7 1t-5.5 2.5t-5 3.5t-6.5 5h-2q-2 0 -4 -1.5t-2 -3.5zM173 98q0 -3 2 -4t4 -1q5 0 7 1.5t3.5 3.5t1.5 5v7h-6l-11 -9
l-0.5 -1t-0.5 -2zM125 105q0 -4 1.5 -6t4 -3.5t5.5 -2t6 -0.5q1 0 2.5 0.5t1.5 2.5v0q-3 4 -7 7.5t-9 3.5h-3.5t-1.5 -2zM66 68q0 -6 2 -9t9 -3q2 0 4.5 3t4.5 7t3 8t1 5v1l-2 2l-2.5 2.5t-3 2.5t-1.5 2l-1 0.5t-2 0.5h-1q-1 0 -3 -3t-3.5 -6.5t-3 -7.5t-1.5 -5zM118 76
q0 2 1 2.5t2 0.5h1.5h1.5t3.5 -0.5t5.5 -1l6 -1t4 -0.5q2 -8 8 -13t13 -5q3 0 4 2l2.5 5l3 6t3.5 5q6 1 9.5 2t8.5 1q2 0 4.5 -0.5t2.5 -2.5q0 -3 -3 -5h-6.5t-7 -1t-6.5 -3t-3 -6l0.5 -0.5t0.5 -1.5q2 0 6 -0.5l8 -1t7.5 -1t3.5 -2.5h-0.5h-0.5q0 -1 -1 -2l-1 -1h-8
q-4 0 -8 0.5t-9 0.5v0q-2 0 -5 -0.5t-5 -0.5h-2v-8l1 -0.5t2 -0.5t3.5 -0.5t5 -0.5h5.5h4q2 -2 3.5 -4.5t2 -5.5t0.5 -6v-6q-1 0 -3.5 0.5l-2.5 0.5q-1 0 -1.5 0.5l-0.5 0.5l-3 14h-16v-20q0 -2 -1 -2.5t-3 -0.5t-3 3.5t-1.5 7.5t-0.5 8v5h-3q-8 0 -10 -4t-3 -11h-1.5h-0.5
q-2 0 -3.5 0.5t-1.5 2.5q-1 6 1 9.5t5.5 6t7.5 3t9 -0.5q1 1 1.5 2.5t0.5 2.5q0 2 -0.5 3t-1.5 2q-7 1 -16 1.5t-16 0.5v5h22l0.5 1l0.5 1v0.5v0.5q0 4 -4 6t-9 3t-9 2t-4 3zM88 56q0 -4 3 -5.5t6 -1.5h3q2 5 2.5 7.5t0.5 6.5q0 2 -1 5.5t-5 3.5q-2 0 -3.5 -2t-2.5 -4.5
t-2 -5.5t-1 -4z" />
</svg>
