<?xml version="1.0" standalone="no"?>
<!DOCTYPE svg PUBLIC "-//W3C//DTD SVG 1.1//EN" "http://www.w3.org/Graphics/SVG/1.1/DTD/svg11.dtd" >
<svg xmlns="http://www.w3.org/2000/svg" xmlns:xlink="http://www.w3.org/1999/xlink" version="1.1" viewBox="-10 0 266 256">
   <path fill="currentColor"
d="M119 247v0q1 1 2 2.5t2 1.5q2 0 4.5 -2t4.5 -5t3.5 -6t2.5 -4q1 -3 3 -8.5t4 -11.5t4 -10.5t4 -4.5h2q5 12 8.5 24t9.5 23q1 0 2 0.5l1 0.5l1 1q2 0 3 -2t1 -4v-2q-7 -9 -9.5 -18t-5.5 -19q-4 -11 -7.5 -21t-3.5 -22q0 -7 2 -9.5t7 -7.5q0 -2 0.5 -8t1 -13t1 -13.5
t0.5 -8.5v-1.5v-2.5v-3t-0.5 -4t-1 -3t-2.5 -1v0q-1 0 -3 1t-2 2v23h-14v-22l-0.5 -0.5t-1.5 -0.5q0 -1 -1 -1.5l-1 -0.5q-1 0 -1.5 0.5t-0.5 1.5q-2 6 -2 12v11v8v8t0.5 8t1.5 7q0 3 2 4t3.5 2.5t2.5 3t1 4.5v16q0 10 -1.5 18.5t-4.5 18.5q-1 4 -4.5 9t-7.5 10.5t-7 10.5
t-3 8zM69 168q0 2 0.5 8.5t2 15t3 18t4 17.5t5 13t4.5 5t3 -2t1 -4q0 -6 -2.5 -11t-3.5 -12q-4 -14 -6 -28.5t-2 -29.5q0 -8 3 -14.5t7 -12.5t7 -12.5t3 -13.5q0 -4 -1 -6t-2.5 -4t-2.5 -4t-1 -5q0 -4 2 -6.5t4 -4.5t4 -5.5t2 -9.5q0 -2 -1 -4.5t-2 -4.5t-1.5 -4.5
t-0.5 -4.5v-1.5v-0.5l3.5 -3.5l2.5 -2.5v-0.5v-0.5q0 -2 -1 -2.5t-3 -0.5t-4 1l-4 2t-3.5 1.5t-4.5 0.5h-2.5t-2.5 -1v-19q0 -2 -2.5 -2.5t-3.5 -0.5h-3t-1 2v0v1q0 1 0.5 4t1 6.5l1 7l0.5 3.5v2v3t-2 2l-8 4t-6 5t-3 6.5t-1 9.5q0 5 1.5 8.5t3 7.5l3 8t1.5 8q0 3 -2 6l-4 6
t-4 6.5t-2 8.5v40q3 0 5.5 -1t2.5 -5v-31q0 -2 0.5 -5t1.5 -6t3 -5.5t4 -2.5t3 0.5t3 0.5q3 0 3 -2q0 -3 -1 -5.5t-1 -4.5q0 -3 3.5 -5.5t6.5 -2.5h1l2 2t2.5 2t2.5 2t1 2v4q0 4 -1.5 7.5t-3 6.5t-4 6t-3.5 6q-5 8 -8 18t-3 20zM135 160q-4 0 -6.5 4.5t-4 11t-2 12.5
t-1.5 9.5t-1.5 5.5t-1.5 4t-1.5 4.5t-0.5 5.5q3 0 6 -3.5t5 -9t3.5 -12.5t2.5 -13t1.5 -11.5t0.5 -7.5zM172 160q0 7 1.5 14t3.5 14t4.5 13.5t3.5 13.5h1.5h1.5q3 0 4 -2t1 -5v-1v-1q-6 -13 -9.5 -24t-5.5 -24q-1 -2 -1.5 -2h-1.5q-2 0 -2.5 1t-0.5 3zM101 161q0 2 1 2.5
t2 0.5q4 0 8.5 -5.5t8 -13t6 -15t2.5 -11.5v-3v-2l-11 -22v0q0 -4 1.5 -7t3 -5.5l3 -5t1.5 -6.5q0 -2 -0.5 -3t-2.5 -1t-4.5 4t-4 8.5t-2.5 9t-1 7.5t1.5 6t1.5 7t-3.5 9.5t-8 11.5t-8 11t-3.5 9l0.5 0.5l0.5 0.5h1q5 0 8 -4.5t5.5 -10.5t5.5 -11t9 -5q0 10 -4.5 19
t-10.5 17q-1 2 -3.5 4t-2.5 4zM179 145q2 2 3.5 4.5t3.5 5t4 4.5t4 2t2 -1.5v-3.5q0 -4 -2.5 -7t-5 -5.5t-5 -6t-2.5 -9.5q0 -3 0.5 -4t3.5 -1t5 3t4 6.5t4.5 6.5t6.5 3q1 0 2 -0.5t1 -2.5q0 -4 -3 -7t-7 -6t-7.5 -6t-3.5 -8q0 -3 1 -5.5t2 -6t2 -6.5t1 -7q0 -3 -1 -7
t-3 -7.5t-4.5 -6t-6.5 -3.5q-1 0 -1.5 1.5l-0.5 1.5v1q0 2 1.5 4.5l3 5t2.5 5.5t1 7q0 5 -1.5 10t-3 9.5l-3 9t-1.5 9.5v3q0 1 0.5 3t1.5 4.5t1.5 4.5t0.5 3zM144 128q0 -7 2 -9t9 -2q3 0 3.5 1t0.5 4v6t-1 8t-3 7t-5 3t-4 -2.5t-1.5 -5t-0.5 -5.5v-5zM61 69v-5t1 -6t3 -5.5
t5 -2.5q2 0 3.5 4t2.5 9.5t1.5 10.5t0.5 7v3v2q-1 2 -3 3.5t-5 1.5t-5 -2.5t-3 -6.5t-1 -7.5v-5.5zM81 51v-2.5v-2.5q1 -2 3 -2.5t4 -0.5t3.5 1.5t2.5 4.5l2 6t1 5t-1 4.5l-2 5t-2.5 4t-4.5 1.5q-2 0 -3 -3t-2 -7t-1 -8v-6zM130 43q3 0 4 2t1.5 6t0.5 8t0.5 7.5t3 6t6.5 2.5
h6q2 0 6 -0.5t5 -0.5l1 -3v-2.5t0.5 -6t0.5 -7.5t1 -6q0 -5 3 -7t7 -2.5t8.5 0t8.5 0.5l2.5 -2.5t0.5 -2.5v-2t-1 -1h-3h-3q-5 0 -8.5 0.5t-8.5 2.5q-1 0 -2 -0.5t-2 -0.5q0 -1 -1 -1.5l-1 -0.5v-19q0 -1 -2 -1h-2q-3 0 -4 1.5t-0.5 4.5l1 6t-0.5 6t-3 4.5t-7 1.5
q-3 0 -4 -1.5t-2 -4.5v-2.5v-4.5v-5v-3q-4 0 -6 2t-2.5 5t-0.5 7v6q0 2 -3.5 2.5t-4.5 0.5h-2t-3.5 0.5t-3.5 1t-3 0.5l-1.5 1t-1.5 2q0 2 1.5 2.5t2.5 0.5q4 0 8 -1.5t8 -1.5zM144 66q0 -1 -0.5 -3t-0.5 -4t-0.5 -4t-0.5 -3v-1q0 -5 3 -6.5t7 -1.5h3q3 0 3 1v21q0 2 -2 3
t-4 1t-4.5 -0.5t-3.5 -2.5z" />
</svg>
