<?xml version="1.0" standalone="no"?>
<!DOCTYPE svg PUBLIC "-//W3C//DTD SVG 1.1//EN" "http://www.w3.org/Graphics/SVG/1.1/DTD/svg11.dtd" >
<svg xmlns="http://www.w3.org/2000/svg" xmlns:xlink="http://www.w3.org/1999/xlink" version="1.1" viewBox="-10 0 266 256">
   <path fill="currentColor"
d="M197 249l1.5 1.5t1.5 0.5q4 0 6 -3v-9v-18.5t-1 -19.5q-1 -10 -1.5 -20.5t-3.5 -19.5q-1 -3 -2 -3.5t-4 -2.5q0 -1 -1.5 -1.5l-1.5 -0.5h-21q-1 0 -1.5 -1t-0.5 -2t-0.5 -4.5t-0.5 -4.5q8 -1 16.5 -1.5t16.5 0.5q2 -1 2 -3.5v-3.5h-28q-3 0 -4.5 -3t-1.5 -5v-4h4
t5.5 -0.5t5.5 -0.5h4h1.5t3 -0.5t3.5 -1t2 -1.5v-1v-1l-0.5 -0.5l-0.5 -0.5h-5h-6h-6h-5q-1 0 -2.5 -0.5t-1.5 -1.5v-7q1 0 3 -0.5t5 -0.5t5.5 -0.5t3.5 -0.5h1.5h3t3.5 -1t2 -2v0v-1v0q0 -1 -0.5 -1.5l-0.5 -0.5h-25q-1 0 -1 -0.5t-0.5 -1.5t0 -2l0.5 -1q0 -4 0.5 -5
t3.5 -1t5.5 1t4.5 2.5t4 2.5t5 1q2 0 3 -1.5t3 -3.5v-0.5v-0.5q0 -2 -3.5 -3t-8 -2t-8 -2t-3.5 -4q0 -2 0.5 -2.5t2.5 -0.5q1 0 3 -0.5t4 -0.5t4 -0.5t3 -0.5l1 -1q1 -1 1.5 -2l0.5 -1q-1 -4 -5.5 -6.5t-9.5 -4t-9 -4t-4 -6.5q0 -2 1 -2.5t4 -1.5h4t6 -0.5t5.5 -0.5h4.5
q1 0 2 -1l2 -2l2 -2l1 -1v-19q0 -1 -1.5 -1h-2.5q-2 0 -3.5 2t-2 5t-0.5 6v4q-1 1 -3 2t-4 1h-4h-3h-2.5h-2.5l-2 -2v-23l-1.5 -1t-2.5 -2v0q-2 0 -3 2t-1 3q0 4 0.5 10.5t-2.5 10.5q0 1 -0.5 1.5l-0.5 0.5h-14q-3 0 -4 -3t-1.5 -6.5t-1.5 -6.5t-4 -3q-2 0 -3 1t-1 2v6.5
t1 7.5t2.5 6.5t5.5 2.5q1 0 4 0.5t6 0.5t5.5 -0.5t4.5 -0.5q2 1 2.5 2.5t0.5 3.5q0 5 -4.5 7t-9.5 4t-9.5 4t-4.5 6v2t2 2h10.5t9.5 4v1q0 1 -3 3.5t-6.5 6l-6.5 6.5t-4 5q-2 4 -3.5 10t-2 12.5t-0.5 12.5v11q0 4 4 4q1 0 2 -0.5t1.5 -1.5t1 -2.5t2.5 -1.5q1 0 3.5 -0.5
t5 -0.5t5.5 -0.5t4 -0.5h1h2v7t-3 5q-4 1 -9 1.5t-10 2.5t-8 5t-4 8q-1 8 -1 14v12v13v14v25l1 1h1q2 0 4.5 -2t2.5 -4q0 -8 -1 -15.5t-1 -14.5v-3v-3.5v-3.5v-2l2.5 -2.5t3.5 -2.5l4 -2l2 -1q3 -2 5 -4.5t4 -5.5t4 -5t5 -2q2 0 6.5 2.5t10 5.5t10 6t6.5 4v8.5t0.5 12.5
t0.5 12.5v8.5v2v4v4.5v2.5zM98 242q2 1 4.5 1.5t4.5 0.5q0 -5 -1.5 -9t-4 -8l-5 -8t-4.5 -8q0 -1 -1.5 -4.5t-2.5 -7t-2 -6.5t-1 -5l-0.5 -1t-0.5 -2q0 -12 3.5 -21.5t7.5 -17t7.5 -16t3.5 -19.5q0 -4 -1 -7.5t-2.5 -6.5l-3 -6t-1.5 -5q0 -4 3 -6t6.5 -4.5t6.5 -5.5t3 -9
q0 -2 -1 -4.5t-2.5 -4.5t-2.5 -4.5t-1 -4.5q0 -3 2 -4.5t4.5 -2t4.5 -1.5t2 -4q0 -2 -2 -3t-3 -1q-6 0 -11.5 2.5t-11.5 2.5q-5 0 -7 -1t-3 -3.5t-1.5 -5.5t-0.5 -7q0 -1 -1.5 -1.5t-2.5 -0.5q-3 0 -4 3t-1 6t1.5 6t1.5 6q0 2 -2.5 4t-6 4.5t-7 4.5t-5.5 5v4v5v9t1 9
q1 3 2.5 5t3 4.5l3 5t1.5 5.5q0 4 -1 6.5t-3 5t-3.5 5t-2.5 5.5q-5 17 -6.5 34t-1.5 34v4t0.5 6t0.5 5v3v3.5t0.5 7.5l1 8t1.5 7q0 3 1 6t5 3q2 0 3 -1t1 -3q0 -6 -1 -12.5t-2 -12.5t-2 -12.5t-1 -12.5v-6v-4q1 -3 1.5 -10t1 -14.5t1 -14.5t1.5 -10q1 -1 2 -3.5t1.5 -4.5
t1.5 -4t2 -2q2 0 3 1t1.5 2.5t2 2t3.5 0.5h2.5t1.5 -2q0 -5 -2 -9t-2 -8q-1 -2 0.5 -3t3.5 -2t3.5 -1.5t2.5 -0.5q4 0 6 2.5t2.5 5.5t1 6.5t0.5 5.5q0 9 -3.5 16t-7.5 14t-7.5 14t-3.5 16q0 10 1.5 18.5t4.5 16.5t7 15.5t8 16.5zM153 194l-1.5 0.5t-1.5 1.5v33q0 3 2 4.5
t4 2.5h10h5t6 -1t5.5 -2.5t2.5 -4.5v-31l-1.5 -2t-3.5 -2q-2 -1 -2.5 0.5t-1 4t-1 4.5t-2.5 2h-14q-1 0 -1.5 -1.5t-1 -3.5t-1 -3.5t-2.5 -1.5zM156 219q0 -5 3 -6.5t8 -1.5q1 0 3 0.5t3.5 1t2.5 1.5t1 2q0 6 -3.5 9.5t-9.5 3.5q-4 0 -6 -3.5t-2 -6.5zM154 161q1 0 3.5 1
t1.5 3q-1 5 -3.5 8.5t-6.5 6.5t-8 5.5t-8 4.5v-2.5v-2.5q0 -11 4.5 -17.5t16.5 -6.5zM169 159q6 0 10.5 0.5t7.5 2t5 5t2 9.5v4.5t-3 1.5q-1 0 -4.5 -1.5t-7 -4t-6.5 -4.5t-3 -3t-0.5 -5t-0.5 -5zM138 129v-2v-2q4 -2 7 -2h7h3h3t1 1v2v2v1v4q0 1 -0.5 1.5l-0.5 0.5h-18
q-1 0 -1.5 -0.5t-0.5 -1.5v-1v-3zM139 111q0 -2 2 -3.5t4 -2t4.5 -0.5h4.5h2h3l1 0.5l1 0.5v4.5v4.5h-20q-1 0 -1.5 -1.5t-0.5 -2.5zM157 88q2 0 3.5 1t1.5 4q0 1 -0.5 2.5t-2.5 1.5h-13q0 -3 3.5 -6t7.5 -3zM65 66q0 -3 0.5 -6t1.5 -5t2.5 -3.5t5.5 -1.5h1h1q1 2 2 6.5
t2.5 9l3 9t1.5 5.5t1 2l1 1q-1 2 -2.5 4t-3.5 3l-4 2t-3 1q-2 0 -4 -4t-3 -8.5l-2 -9t-1 -5.5zM88 50q-2 0 -2 -1.5v-2.5t1 -2t2.5 -2t3 -1h2.5q3 1 5 3t3 5t1 6v6v4t-0.5 3.5t-2 3t-4.5 1.5q-2 0 -3 -1.5t-2 -3.5q0 -1 -0.5 -3.5t-1.5 -5.5t-1.5 -5.5t-0.5 -3.5zM152 68v-1
q0 -2 1.5 -3.5t4 -2.5t5 -1.5t4.5 -0.5q3 0 6.5 2.5t5.5 5.5q-1 1 -2.5 1h-2.5q-4 0 -6 -2t-6 -2v9h-0.5h-0.5l-5 -2.5t-4 -2.5z" />
</svg>
