<?xml version="1.0" standalone="no"?>
<!DOCTYPE svg PUBLIC "-//W3C//DTD SVG 1.1//EN" "http://www.w3.org/Graphics/SVG/1.1/DTD/svg11.dtd" >
<svg xmlns="http://www.w3.org/2000/svg" xmlns:xlink="http://www.w3.org/1999/xlink" version="1.1" viewBox="-10 0 266 256">
   <path fill="currentColor"
d="M123 144q-2 3 -2 4.5v2v1.5v5q-3 18 -5.5 36t-4.5 36q-1 5 -2.5 9.5t-1.5 10.5q8 0 10.5 -4.5t3.5 -10.5l8 -63l3 -1t7.5 -2t10 -3t10 -5t7.5 -7.5t4 -10.5q1 -1 1.5 -7.5t1.5 -13.5t1.5 -13.5t0.5 -10.5v-2q0 -2 -1 -4t-4 -2q-4 0 -5 5.5t-1.5 13.5t-1 17t-3 17t-8.5 13
t-16 5q-3 0 -3.5 -3t-1.5 -5q1 -6 1 -11t0.5 -10t0.5 -9v-11v-7v-8.5t-1 -8.5t-3 -7q-2 -4 -6.5 -6t-9.5 -4t-10 -3.5t-9.5 -3.5t-7 -5.5t-2.5 -9.5q0 -7 3.5 -11t8.5 -6.5t11.5 -3t12.5 -0.5q7 0 15.5 1t17 3.5t14 7.5t5.5 13v3.5t-1 3.5q-3 4 -6.5 7t-7 5t-8 3t-10.5 1
q-3 2 -3 5q0 2 1.5 2.5t3.5 0.5q7 0 15 -2.5t14.5 -7t10.5 -10.5t4 -13t-4 -12.5t-10.5 -9t-15 -5.5t-16.5 -3.5t-16 -2t-13 -0.5q-4 0 -9 1.5t-9.5 3t-9 4.5t-6.5 6q0 1 -1 3.5l-2 5t-1.5 5t-0.5 4.5v0q0 9 2.5 13.5t7 7t9.5 3.5t10.5 2t10 3t7.5 7q2 4 3 9.5t1.5 10.5
t0.5 11v9v4v5v6v3z" />
</svg>
