<?xml version="1.0" standalone="no"?>
<!DOCTYPE svg PUBLIC "-//W3C//DTD SVG 1.1//EN" "http://www.w3.org/Graphics/SVG/1.1/DTD/svg11.dtd" >
<svg xmlns="http://www.w3.org/2000/svg" xmlns:xlink="http://www.w3.org/1999/xlink" version="1.1" viewBox="-10 0 266 256">
   <path fill="currentColor"
d="M113 248q-1 2 0.5 2.5t2.5 0.5h1.5h1.5q3 -5 5 -10t2.5 -10.5l1 -11t1.5 -11.5l1 -1q7 0 13.5 -1t11 -3.5t7 -7.5t2.5 -14q0 -2 -1.5 -3t-3.5 -1q-3 0 -3.5 3.5t-2 8t-4.5 8t-11 3.5h-3.5t-2.5 -2q0 -1 -0.5 -3.5t-0.5 -5v-4.5t-1 -3q-1 -6 -5 -8.5t-8.5 -4.5t-8 -4.5
t-3.5 -8.5q0 -4 2 -6.5t4.5 -4t5.5 -2t7 -0.5h6t7 1t5.5 3t2.5 6q0 5 -1.5 6.5t-4.5 2t-5.5 1.5t-4.5 4q1 2 3.5 2.5t4.5 0.5h3h2q5 -5 8.5 -9t3.5 -11q0 -4 -3.5 -8t-7.5 -4h-29q-2 0 -5 0.5t-5.5 2t-4 3.5t-1.5 5v0v3t0.5 4.5t0.5 4.5v3q3 4 7 6.5l8 5t6.5 5.5t2.5 9
q0 2 -1 4t-3 2h-2h-3t-4 -0.5t-4 -0.5h-2q-2 -1 -3.5 -4l-3 -6t-3.5 -5.5t-3 -2.5t-1.5 1.5t-0.5 2.5q0 8 2 12.5t6 7t9.5 3t13.5 0.5q1 0 1.5 0.5t0.5 1.5t-0.5 1.5l-0.5 0.5q0 1 -0.5 4.5t-0.5 4.5q0 2 -1 6t-2.5 9t-2.5 9.5t-1 6.5zM180 196q0 2 1.5 3.5t3.5 1.5
t3.5 -2.5t1.5 -3.5v-18v-17v-17t-2.5 -14.5t-8 -10t-16.5 -2.5h-44h-5l-23 1q-4 1 -8 1.5t-7 2.5q-6 6 -9.5 13.5t-4.5 16t-1 17.5v17v11q1 1 2 1.5l1 0.5h0.5h0.5q1 0 3.5 -2.5t2.5 -4.5v-2.5t-0.5 -3t-0.5 -3v-2.5v-1q0 -8 0.5 -17.5t3 -17.5t7.5 -13.5t16 -6.5h4t9 -0.5
t10.5 -0.5h8.5h1h2h5t9 0.5t9.5 0.5h5.5q6 1 10 1.5t6 3t2.5 6.5t0.5 12v9v15v15.5v9.5zM102 101q1 0 4 2t4 2q3 0 5 -2.5l4 -5l4 -5t6 -2.5q2 0 4 2t3.5 4t3.5 3.5t5 1.5q2 0 2.5 -1.5t0.5 -3.5t-1.5 -4t-3.5 -3.5t-4 -3.5t-2 -5t2 -6t4.5 -6t4.5 -6.5t2 -7.5q0 -3 -2 -5.5
t-4 -4.5l-4.5 -4.5t-3.5 -4.5q5 -6 9 -11.5t4 -14.5q-5 0 -7 3t-4 6.5t-4.5 6t-6.5 2.5q-3 0 -5 -2t-4 -4.5t-4 -4.5t-5 -2h-1l-1 1l-2 2v1q0 3 3 6t7 6t7 5t3 4l-0.5 0.5t-0.5 1.5l-4.5 4.5t-5 5.5t-4.5 6t-2 6t2 6t4.5 5t5.5 3.5t6 1.5q-1 3 -3.5 6t-5.5 5.5t-6 4.5t-7 2
h-1t-1 -1l-2 -1l-2 -1q-1 0 -3 -0.5t-4 -0.5t-3.5 0.5t-2.5 0.5q-4 -3 -4.5 -6t-0.5 -7v-3v-4q4 -2 9 -2h9l1.5 -3t0.5 -2q0 -2 -1.5 -3t-3.5 -1t-3.5 0.5t-3.5 0.5q-6 0 -7.5 -2t-1.5 -7v-3v-2q1 -2 3 -3t4.5 -1h4.5h4q2 -1 2.5 -1.5t0.5 -2.5v-2.5t-1 -1.5h-17l-1 -2v-2.5
v-3.5v-4.5v-2.5t-0.5 -2t-1.5 -2t-2 -1.5t-2 -0.5t-2 1.5l-1 1.5v6v6q0 4 0.5 11t0.5 14t0.5 13.5t0.5 12t0.5 9l0.5 3.5l6 6h2t5 0.5t6 0.5h5l2.5 -0.5zM155 98q0 2 2 3t4.5 1.5t4.5 0t3 -0.5q8 0 13.5 -2t7.5 -10q1 -4 1.5 -9t1 -10.5l1 -11t0.5 -9.5q0 -3 -1 -5t-1 -4
q0 -5 1.5 -8.5t1.5 -8.5q0 -4 -3.5 -6t-6.5 -2v20l-0.5 0.5l-1.5 1.5q-5 1 -11.5 1.5t-10.5 0.5q0 4 1.5 6t4 2.5t6.5 0.5t7 1q2 0 2.5 1.5t0.5 2.5q0 6 -3.5 7.5t-8 2t-8.5 1.5t-4 4q0 2 0.5 3t3.5 1h16l2 1.5t2 2.5v1v1q0 2 -0.5 4.5t-2 5t-3.5 4.5t-4 2q-1 0 -3.5 0.5
t-5 0.5h-4.5h-3t-1.5 0.5t-0.5 1.5zM115 64q0 -2 1.5 -4.5t4 -5l4.5 -4.5t5 -2q1 0 3 1.5t3.5 3l2.5 2.5l2 2v1q0 2 -1.5 4.5t-3 4.5t-4 3.5t-4.5 1.5t-4 -1t-4 -1.5t-3.5 -2t-1.5 -3.5z" />
</svg>
