<?xml version="1.0" standalone="no"?>
<!DOCTYPE svg PUBLIC "-//W3C//DTD SVG 1.1//EN" "http://www.w3.org/Graphics/SVG/1.1/DTD/svg11.dtd" >
<svg xmlns="http://www.w3.org/2000/svg" xmlns:xlink="http://www.w3.org/1999/xlink" version="1.1" viewBox="-10 0 266 256">
   <path fill="currentColor"
d="M188 251q1 2 1.5 2h1.5q2 0 3 -1t3 -4v-4v-5v-9t-0.5 -12t-1 -10.5t-1.5 -6.5v-34q-2 -5 -1.5 -10t0.5 -9q0 -1 -0.5 -5.5l-1 -9t-0.5 -9v-5.5v-11v-17v-17.5v-11.5q-1 -9 -6.5 -13t-13.5 -5.5t-16.5 -1t-14.5 0.5h-1l-3 0.5t-4 1.5l-0.5 -0.5l-0.5 -0.5v-31
q0 -2 -2.5 -2.5t-3.5 -0.5q-3 0 -4.5 2t-1.5 5q0 7 0.5 13t0.5 14h-38q-1 0 -4.5 1.5t-4.5 1.5h-1h-2q-3 2 -4.5 5.5t-2 8t-0.5 8.5v7q0 4 1 8t1 8q0 25 -1.5 50.5t-1.5 51.5q-1 11 -2 22.5t-1 22.5v5q2 3 4 3q3 0 5 -3.5t2 -5.5v-2v-6v-5v-2q0 -1 0.5 -4.5t0.5 -8t0.5 -8
t0.5 -4.5v-10v-15v-18v-18v-15v-10v-3.5t0.5 -5t0.5 -5v-3.5v-2v-1q0 -1 -0.5 -3t-0.5 -3l3 -26q0 -3 3 -5t7 -3t8 -1.5t6 -0.5h15h15q3 0 10 0.5t14.5 1t14.5 1t10 0.5q2 1 3 3.5t1 5.5q2 22 2.5 43.5l1 43t1 43.5t1.5 44v15zM154 243l1 0.5l1 0.5h1v0q2 0 3.5 -1t1.5 -3
q2 -12 2 -25v-24t-0.5 -21t-1.5 -20t-2.5 -20t-3.5 -21v-1q0 -4 2.5 -7.5t2.5 -8.5q0 -9 -4.5 -16t-12 -11t-16 -6t-16.5 -2v2.5t1 2.5l25 7q3 1 5.5 3t5 4.5t4 6t1.5 6.5q0 2 -1 5.5t-4 3.5t-5 -1t-4 -3t-4 -3.5t-4 -2.5q-9 -5 -20 -9t-22 -4h-3.5t-2.5 3q0 2 4 4
q1 0 4 0.5t7 1.5t7 1.5t5 0.5q2 1 7.5 3t11.5 5t10.5 6t4.5 5t-1.5 3t-2.5 1q-2 0 -5.5 0.5t-7.5 1l-8 1t-5 0.5h-0.5h-1.5h-0.5h-0.5l-2.5 -0.5t-5 -0.5h-4.5h-2h-2h-3h-3.5t-2.5 1t-1 3t1.5 3t2.5 1h3h5h4h3q10 0 20.5 -0.5t20.5 -4.5l3 2l0.5 2t1 4.5l1 5t0.5 4.5
q2 11 2.5 22t0.5 22q0 4 -0.5 8.5t-0.5 8.5v4v2.5t0.5 5t0.5 5v3.5v0q0 6 -0.5 12.5t-0.5 12.5v5zM84 152q0 3 3 4.5t6 2t6 0t4 -0.5h19h19q2 0 4 -1t2 -3q0 -3 -3 -5q-10 -1 -19 -1h-19h-4h-6h-6h-4t-1.5 2z" />
</svg>
