<?xml version="1.0" standalone="no"?>
<!DOCTYPE svg PUBLIC "-//W3C//DTD SVG 1.1//EN" "http://www.w3.org/Graphics/SVG/1.1/DTD/svg11.dtd" >
<svg xmlns="http://www.w3.org/2000/svg" xmlns:xlink="http://www.w3.org/1999/xlink" version="1.1" viewBox="-10 0 266 256">
   <path fill="currentColor"
d="M197 182q0 18 -1 35t-1 35q5 0 9 -3.5t4 -8.5q0 -29 -1 -56.5t-1 -55.5q0 -1 -0.5 -3l-0.5 -2v-4v-7v-7v-4q-1 -6 -1 -16t-1 -20.5t-3.5 -19.5t-8.5 -12q-12 -1 -25.5 -1.5t-26.5 -0.5l-3 -1v-18q0 -1 -2.5 -2l-2.5 -1v0h-1q-1 1 -3.5 1.5t-3.5 0.5l-0.5 0.5l-0.5 0.5v19
l-41 3q-5 1 -9.5 2.5t-8.5 4.5t-6 7t-2 8q-1 3 -1.5 11t-1 16.5t-1 16t-0.5 10.5v14v21v24v25v21v14v2t-0.5 4t-0.5 4v3v0q0 3 1.5 4.5t4.5 1.5q2 0 3.5 -1.5t2 -3.5l1 -4t0.5 -4v-52v-7.5v-13v-15.5t0.5 -15t0.5 -12.5v-7.5v-15.5t0.5 -16.5t2 -15.5t5.5 -14.5q2 -2 5 -3.5
t6.5 -2.5t7 -1t6.5 -1q10 -1 18.5 -2t19.5 -1h21q2 2 3 2h4h4t6.5 0.5t7 0.5h4.5q2 3 3.5 9.5t3 14.5t2 15t0.5 11v3.5v3.5q-1 2 -3 2.5t-3.5 1l-3 1t-2.5 1.5q-4 5 -6.5 11.5t-3.5 13.5t-1.5 13.5t-1.5 12.5q-2 3 -6 4.5t-7 1.5q-2 0 -4.5 -1t-4.5 -2.5t-3 -4t-1 -4.5
q0 -9 2 -17t4.5 -16.5t4.5 -17t2 -16.5v-9t-1 -10.5t-3.5 -9t-7.5 -3.5q0 9 1 18.5t1 19.5q0 8 -2 16t-4.5 16t-4.5 16t-2 16q0 5 3.5 9t7.5 7h2.5h3.5h3h2q6 0 9.5 -0.5t6 -2t4.5 -4t5 -6.5l4 -33q0 -2 1 -4.5l2 -5t2.5 -4.5t4.5 -2q0 1 0.5 3.5t0.5 3.5t0.5 4.5t0.5 7.5
t0.5 7.5t0.5 5.5v5.5v12.5v14v11zM82 241q0 3 0.5 4t3.5 1q4 0 6 -2t3.5 -5.5t2 -7t1.5 -6.5l0.5 -2.5t1.5 -5.5t1.5 -5.5t0.5 -3.5q4 -11 8.5 -21.5t5.5 -22.5q-2 0 -2 -2t-0.5 -4l-1 -4t-1.5 -3q-3 -2 -7 -3.5t-7.5 -3.5t-6 -5t-2.5 -8t2.5 -9t7 -7.5t9 -5.5t9.5 -4
q0 -1 0.5 -5t1.5 -9t1.5 -9t1.5 -5v-1v0q0 -2 -0.5 -5.5t-0.5 -7t-0.5 -7t-0.5 -4.5q-2 -4 -7 -4l-1.5 0.5t-1.5 1.5v18l-5 4h-13q-7 0 -13 2v1v1q0 2 0.5 3t2.5 1h27l0.5 1.5l0.5 1.5v1v1v1v1v2t-0.5 4t-0.5 3.5v2.5q-7 2 -12.5 5t-9.5 6.5t-6 8t-2 11.5q0 10 4.5 14.5
t9.5 7t9.5 6t4.5 10.5v1q-1 0 -2 2.5t-2 3.5v2t-0.5 4t-0.5 4v2q0 1 -1 3l-2 4t-2.5 4l-1.5 2q-2 5 -2 11t-2 11q-1 1 -2 3l-2.5 5l-2.5 5t-2 3v1v2z" />
</svg>
