<?xml version="1.0" standalone="no"?>
<!DOCTYPE svg PUBLIC "-//W3C//DTD SVG 1.1//EN" "http://www.w3.org/Graphics/SVG/1.1/DTD/svg11.dtd" >
<svg xmlns="http://www.w3.org/2000/svg" xmlns:xlink="http://www.w3.org/1999/xlink" version="1.1" viewBox="-10 0 266 256">
   <path fill="currentColor"
d="M162 178q1 2 2 6.5t2 9.5t2 9.5t2 6.5q0 2 2 8.5t4.5 14t6.5 13t7 5.5t3.5 -1t0.5 -3q0 -5 -3 -8.5t-4 -7.5q-3 -6 -6 -14t-6 -16.5t-5 -17t-2 -15.5v-3q8 -6 13.5 -14t5.5 -18q0 -4 -0.5 -7.5t-4.5 -5.5q-1 -1 -4.5 -2t-7 -2.5t-6.5 -3t-5 -1.5q-2 -1 -2.5 -2.5
t-0.5 -3.5v-3q0 -2 0.5 -5l1 -6t1 -5.5l0.5 -2.5l2 -1h3t6 -0.5t5.5 -1.5t2.5 -3t-0.5 -3t-2.5 -1h-3.5h-4.5h-5h-3q0 -1 -0.5 -4t-0.5 -4v-1q0 -3 0.5 -6t0.5 -6v-1.5v-2.5l-1 -1t-2 0l-2 2l-2 2q0 16 -1.5 29.5t-1.5 28.5l-2 2h-18q-1 0 -1.5 2l-0.5 2q0 1 0.5 2t1.5 1
q4 0 9.5 0.5t11.5 0.5t12 1t11 3q2 2 4 5t2 5q0 6 -3.5 12.5t-8.5 9.5q-3 -1 -5 -3t-4.5 -5t-7 -5t-14.5 -2q-1 0 -2.5 1t-1.5 2q0 3 4.5 4t9.5 2t9 4t4 10q0 3 -2.5 4.5t-7 2.5t-9.5 1.5t-9.5 1.5t-7 3t-2.5 5q9 0 17 -2t17 -4l1 -0.5l1 -0.5q2 0 3.5 0.5t1.5 3.5zM62 189
v5v7v6v3v2.5t0.5 5.5t0.5 5.5v2.5v5.5t0.5 6.5t1.5 5.5t4 2.5t3.5 -2t0.5 -5q0 -12 -1 -24t-1 -24q0 -8 0.5 -18t3.5 -20t8.5 -17.5t15.5 -10.5l1 -0.5t2 -0.5q5 0 9 3.5t4 8.5q0 3 -0.5 5t-1.5 3.5t-2.5 3t-2.5 4.5q-6 7 -8.5 15t-2.5 17v6t1 12t2 15t2.5 14.5t3.5 10.5
t5 4q2 0 3 -1l3 -3v-1q0 -3 -2.5 -5t-3.5 -5q-2 -4 -3.5 -10t-2.5 -12.5t-1.5 -12.5t-0.5 -10q0 -7 3 -13.5t7 -12.5t7 -11.5t3 -12.5q0 -4 -1.5 -7.5t-4.5 -6.5t-6.5 -4.5t-7.5 -0.5v-21q0 -3 4.5 -3.5t9.5 -0.5t9.5 -0.5t4.5 -4.5q0 -1 -0.5 -2.5t-3.5 -1.5h-1q-3 1 -9 1
t-13 0.5t-13.5 1t-8.5 0.5t-2.5 1t-0.5 2v2t1 2q1 0 3 -0.5t4 -0.5t4 0.5t3 0.5q3 0 3 0.5v2.5v3v3t-0.5 4l-1 4l-0.5 2q0 2 -1 3t-2.5 1.5t-3.5 1t-3 2.5q-1 0 -2.5 2l-3 4l-3 4t-2.5 3q-8 13 -10 27.5t-2 28.5zM63 108q1 0 1.5 0.5l0.5 0.5h0.5h0.5q2 0 3.5 -1.5t2 -4
l1 -5t0.5 -4.5q0 -9 -1 -18.5t-1 -19.5q0 -11 3.5 -17.5t14.5 -8.5q6 -1 10 -1h8h8h10q7 0 17 -1t19 0.5t16 6t8 13.5t2 19.5t1 19.5v1v1.5t-0.5 3.5t-0.5 3.5v2.5v2q0 2 0.5 3t2.5 1t3 -2t1 -4v-54q0 -6 -3 -10t-8 -6.5t-11.5 -4t-12.5 -2l-12 -1t-11 -1.5q-2 -1 -2.5 -3
t-0.5 -4t-0.5 -3t-4.5 -1q-3 0 -4 1t-1.5 2.5t-1 4t-1.5 4.5h-3h-5h-4.5h-3.5l-1.5 0.5t-3 0.5t-3.5 0.5l-2 0.5q-9 0 -15.5 2t-10 6t-5 10t-1.5 16q0 4 0.5 8t0.5 8q0 3 -0.5 6.5t-0.5 7.5v10t1 11zM80 56q0 3 3 4.5t6 1.5v0h7t10.5 -0.5t10.5 -0.5h7l2.5 -2.5t0.5 -2.5v-2
t-1 -1h-44q-2 0 -2 1v2z" />
</svg>
