<?xml version="1.0" standalone="no"?>
<!DOCTYPE svg PUBLIC "-//W3C//DTD SVG 1.1//EN" "http://www.w3.org/Graphics/SVG/1.1/DTD/svg11.dtd" >
<svg xmlns="http://www.w3.org/2000/svg" xmlns:xlink="http://www.w3.org/1999/xlink" version="1.1" viewBox="-10 0 266 256">
   <path fill="currentColor"
d="M193 249q1 1 1.5 1h1.5q8 0 9 -7v-4t-0.5 -6.5t-0.5 -6.5v-5v-17q0 -1 -1 -2.5l-1 -1.5v-79l-1 -12v-62q0 -6 -2 -9.5t-5.5 -5.5t-7.5 -2t-8 -1q-3 0 -8.5 -0.5t-11.5 -1t-11.5 -1t-7.5 -0.5t-2 -2.5v-6t-1 -6t-4 -2.5q-2 0 -3.5 2t-2 5t-0.5 5.5v3.5q-1 0 -1.5 0.5
t-1.5 0.5t-2.5 0.5t-3.5 0.5t-3.5 0.5l-1.5 0.5h-37q-2 0 -4.5 1.5t-4.5 4t-3.5 5t-1.5 5.5v3.5t-0.5 5t-0.5 4.5v3v6v11v14v14v11v6q-1 30 -3.5 60t-2.5 60q0 2 0.5 3t3.5 1q1 0 2.5 -3t3 -6.5t2 -7.5t0.5 -5v-12.5v-18.5v-23v-22v-19.5v-12.5v-5v-8.5t0.5 -9t0.5 -6.5v-1
t0.5 -2t0.5 -2.5v-1.5q1 -3 0.5 -10t0.5 -13.5t3.5 -12.5t8.5 -6l31 -3q2 -2 5.5 -2h6.5q30 0 59 3q3 1 5 3.5t3.5 5.5t2 6t0.5 6v103v10t0.5 15t0.5 15.5v10.5q0 1 -0.5 4.5t-0.5 8t-0.5 8.5t-0.5 5v6v6zM119 242q0 3 1 3.5t3 0.5q5 0 10 -6.5t9.5 -15.5t7.5 -17.5t3 -12.5
q0 -6 -3 -9.5t-7.5 -5t-10 -2.5t-10 -1.5t-8 -2.5t-3.5 -6q0 -2 2 -5t4 -3l39 -4v-1v-1q0 -2 -0.5 -3.5t-2.5 -1.5t-6 0.5t-9 1t-10.5 1.5t-10.5 2t-8 3t-3 4v18l8 4l0.5 0.5l0.5 0.5q0 2 -2 5.5t-5 7.5t-5.5 7t-3.5 5l-3 3l-4 4l-4 4l-2 2v5q5 0 9.5 -3t7.5 -7.5t5.5 -10
t6 -10t7.5 -7.5t10 -3h5t5 1t3 3t1 5q0 7 -2.5 13.5t-6.5 12.5t-9 11l-9 9v2zM163 126q0 2 1 7.5t2.5 12t3 13.5t3.5 13t3 9.5t2 3.5q3 0 3.5 -2.5t0.5 -4.5v-2v-1q0 -1 -1 -3.5l-2 -5l-2 -5l-1 -2.5q0 -1 -0.5 -5t-1.5 -8t-1.5 -7.5t-0.5 -4.5t-0.5 -2.5t-1.5 -3t-2 -3.5
t-2 -2q-3 0 -3 3zM91 123q-3 0 -3 1t-1 4v3t-0.5 4.5t-0.5 4.5v3q-1 1 -1.5 3.5t-1 6t-1 6.5t-1.5 4q0 3 -1 5l-2 4t-1.5 4.5t-0.5 4.5q4 0 7 -3t4.5 -7.5t2.5 -9t1 -7.5l0.5 -3t1 -6.5l1 -7t0.5 -5.5v-2q0 -3 -0.5 -5t-2.5 -2zM86 70q-1 4 -1 9.5t0.5 11.5t1.5 11.5t3 9.5
q1 2 4.5 4t7.5 3t7 2.5t3 2.5v22h2.5t2.5 -2q1 -5 1 -10q0 -4 1 -6.5t4 -4t9 -1.5q3 0 5 3v4v6.5t1 6t4 2.5q2 0 3 -2.5t1 -4.5q0 -3 -0.5 -5t-0.5 -5q0 -2 1.5 -4t4.5 -2.5t6.5 -1.5l7 -2t6 -3.5t2.5 -7.5q0 -2 0.5 -7.5t0.5 -11.5t0.5 -11.5t0.5 -7.5v-4q0 -1 -0.5 -3.5
t-2.5 -2.5t-3 1.5t-2 2.5t-2 2.5t-3 1.5t-6.5 -2l-9 -4t-8.5 -4.5l-4 -2.5q0 -1 1 -1.5l1 -0.5h3.5t5.5 -0.5t6 -0.5h4v0q4 0 7.5 0.5t7.5 0.5h3.5t1.5 -3t-3 -3h-3h-5h-5h-3h-4h-5h-5h-2h-7.5t-11.5 0.5t-11.5 0.5t-8.5 1q-5 0 -9.5 3t-5.5 8q-1 1 -1 3t-0.5 3.5t-0.5 2.5
v1zM106 115q-3 0 -7 -2.5t-4 -5.5l1 -1l1.5 -0.5t2.5 -0.5q3 0 11.5 -0.5t17.5 -1t17 -1t11 -0.5h3q3 0 3.5 1t0.5 3q0 4 -4 6t-8.5 3t-9.5 1h-7h-1h-5t-9 -0.5t-9 -0.5h-5zM147 87h16q3 0 3 1.5v2.5q0 2 -0.5 4.5t-2.5 2.5h-69v-5t1 -3t3 -1h5q7 -1 12.5 -1t10.5 -0.5
t10 -0.5h11zM96 80q0 -2 4.5 -5t10.5 -6t12 -5.5t7 -2.5q3 0 8.5 2t11.5 4.5t10.5 5.5t4.5 5t-0.5 3t-2.5 1h-65l-0.5 -1zM120 56v1v1q-3 1 -6 3t-6.5 4t-7 3.5t-6.5 1.5q0 -2 -0.5 -5t0.5 -5.5t2.5 -4.5t4.5 -2h18q1 0 1 1v2z" />
</svg>
