<?xml version="1.0" standalone="no"?>
<!DOCTYPE svg PUBLIC "-//W3C//DTD SVG 1.1//EN" "http://www.w3.org/Graphics/SVG/1.1/DTD/svg11.dtd" >
<svg xmlns="http://www.w3.org/2000/svg" xmlns:xlink="http://www.w3.org/1999/xlink" version="1.1" viewBox="-10 0 266 256">
   <path fill="currentColor"
d="M195 171v77l0.5 0.5t1.5 0.5q0 1 1.5 1.5l1.5 0.5q3 0 4.5 -3t1.5 -5v-120q0 -7 -0.5 -19.5l-1 -25t-1.5 -22.5t-5 -13q-4 -4 -12 -5.5t-17 -1.5h-17.5t-13.5 1l-2 -2v-17q0 -2 -1.5 -3.5t-3.5 -2l-4 -1t-3 -0.5q0 1 -0.5 3t-0.5 5v5v3v3t-0.5 3.5t-2 2.5t-3.5 1
q-7 0 -17 -0.5t-19 0.5t-16 5.5t-8 14.5q0 3 -0.5 9t-1 12.5t-1 12t-0.5 7.5q-1 32 -1.5 64.5t-1.5 64.5q0 4 -1.5 7t-1.5 7v3t3 1q2 0 5 -1.5t5 -3.5q-1 -17 1 -33.5t2 -33.5q0 -3 -1 -7t-1 -7v-2q0 -1 1 -3.5l1 -2.5q-1 -24 0 -48.5t3 -48.5q0 -4 4 -6t9 -2.5l10 -1
t8 -0.5h5.5t9.5 -0.5t9.5 -0.5h5.5h3q5 0 10.5 0.5t10.5 2.5h34q1 0 3 2l3 3q2 11 2.5 23t0.5 24v24v24q0 1 0.5 3t0.5 4t0.5 4.5l0.5 2.5v2.5t-0.5 3.5t-0.5 3.5t-1 1.5zM136 197q3 1 4 7t1.5 13t1 13.5t1.5 9.5h0.5h1.5q2 0 3.5 -1.5t1.5 -3.5q0 -8 -1 -15t-1 -15v-8
q5 -3 8.5 -6.5t5.5 -10.5v-15q0 -13 -0.5 -20.5t-4 -11.5t-11 -5t-21.5 -1h-7t-9.5 0.5t-8 2.5t-3.5 7v47q0 3 1.5 5t3.5 3.5l4 3t2 4.5q0 9 -2.5 17.5t-2.5 17.5q0 3 4 3h1q4 -3 5.5 -7.5t2 -9.5t0.5 -10v-9q0 -2 1.5 -3t3 -1.5t3.5 -0.5h4h7zM107 182v-1.5v-1.5
q11 -1 20 -2t19 -1h6q2 0 2 1.5v2.5q0 5 -3 7.5t-7 3t-9 0.5h-8h-13q-4 -2 -5.5 -4t-1.5 -5zM105 164q0 -4 2.5 -5.5t6 -2.5t7.5 -0.5t7 -0.5h1.5t2.5 -0.5t2.5 -0.5h1.5h7q2 0 5.5 -0.5t5.5 1.5v3v2q0 4 -2 6.5t-6 3.5l-36 1q-3 0 -4 -2.5t-1 -4.5zM125 133q6 0 12 0.5
t12 1.5q1 1 3 3.5t2 4.5l-2 2t-2.5 1.5l-3 1t-2.5 0.5h-39q0 -9 5.5 -12t14.5 -3zM99 107q3 4 6 6t6.5 3t7.5 1h9h3t4 -0.5t4 -0.5h3q10 -2 13 -4.5t4.5 -6t2.5 -7t6 -7.5q2 -1 5.5 -1.5t7 -0.5t6.5 -1t3 -4q0 -1 -2 -1.5l-2 -0.5h-4h-6h-6h-4l-2 -2v-15q0 -2 -5 -4
t-11 -2.5l-12 -1t-9 -0.5h-10q-1 0 -4.5 1t-7 2.5t-6 2.5t-2.5 2v17l-1 0.5t-1.5 1t-2 1t-1.5 1.5h-21l-0.5 1l-0.5 1q0 1 0.5 2l0.5 1q6 2 12 2h12q4 2 5 6.5t0 7.5zM133 107v-6q0 -7 3 -8.5t10 -1.5h5t4 2q-1 7 -5 12t-13 5q-1 0 -2 -0.5t-2 -2.5zM105 98v-3v-2
q2 0 5.5 -1t4.5 -1h1h1q1 0 4 1t4 1v1v0q0 1 -0.5 3t-0.5 4.5t-0.5 4.5t-0.5 3h-2.5h-2.5q-6 0 -9.5 -3t-3.5 -8zM104 77q0 -7 4 -9t10 -2q1 0 4 0.5t3 2.5v13q0 2 -3 2.5t-4 0.5q-6 0 -10 -1.5t-4 -6.5zM134 84q-2 -2 -2 -5v-5q0 -1 0.5 -2.5t0.5 -2.5l3 -3h2h3q8 0 12 3
t4 11q0 3 -4 4t-7 1t-5.5 -0.5t-6.5 -0.5z" />
</svg>
