<?xml version="1.0" standalone="no"?>
<!DOCTYPE svg PUBLIC "-//W3C//DTD SVG 1.1//EN" "http://www.w3.org/Graphics/SVG/1.1/DTD/svg11.dtd" >
<svg xmlns="http://www.w3.org/2000/svg" xmlns:xlink="http://www.w3.org/1999/xlink" version="1.1" viewBox="-10 0 266 256">
   <path fill="currentColor"
d="M55 245v1l2.5 2.5l2.5 2.5q2 0 4 -0.5t3 -2t2 -3.5t1 -4v-2q0 -1 -0.5 -4t-1 -6.5l-1 -7l-0.5 -3.5q-1 -26 -1.5 -52.5t0.5 -51.5l-2 -2l2 -1v-12q0 -3 0.5 -9t1 -12.5t0.5 -12.5t1 -8q-1 -5 3 -5h0.5h0.5q0 1 0.5 3t0.5 3q1 6 3.5 9.5t5.5 5.5t5 3t2 3q0 3 -2.5 4
t-5.5 1.5t-5.5 1t-2.5 3.5q0 2 3 2h6t5.5 1t2.5 5q0 3 -2.5 3h-6.5q-3 0 -6 1t-3 5v0q1 2 3.5 2h4.5h5h2l3 3v1.5v3.5v3.5v1.5q0 1 1 3.5t3 2.5h1v-4q0 -3 0.5 -5.5t0.5 -5t2 -4.5q1 -2 3 -2h4.5t4 -0.5t1.5 -3.5v0v0q0 -1 -0.5 -1.5l-0.5 -0.5h-11q-2 0 -2.5 -1.5
t-0.5 -2.5q0 -3 2.5 -4t6 -1t6 -0.5t2.5 -3.5q0 -1 -0.5 -2t-1.5 -1h-10q-1 0 -2 -1.5l-1 -1.5v-1q0 -2 2.5 -3t5.5 -3t5.5 -6t2.5 -10q0 -2 -0.5 -4t-3.5 -2h-1h-1l-3 14q0 1 -1 1h-2q-3 0 -3.5 -1.5t-0.5 -3.5v-4q0 -2 0.5 -6t0.5 -6v-3l2 -1l3 -0.5t7 -1t6 -0.5h1h1
q1 0 5.5 0.5t8.5 1t8.5 1t5.5 0.5q3 1 4.5 3.5t1.5 5.5v6v6v0q0 1 -2 1.5l-2 0.5l-1.5 -0.5t-1.5 -1.5q-1 0 -1.5 -0.5l-0.5 -0.5v-13h-1.5t-2.5 1q-1 0 -1.5 1t-0.5 2l2 13q0 3 2 3.5t4.5 1t4.5 2t2 4.5v3h-3t-6 0.5t-5 1.5t-2 4l0.5 0.5l0.5 0.5h12q2 0 3 1.5t1 3.5
t-2.5 2.5t-5.5 0.5t-6 0.5t-3 2.5q-1 1 -1 2v1h13l3 4v2.5v3.5v4v2q0 3 0.5 4t2.5 1q3 0 4 -3.5t1 -7.5t-0.5 -7.5t1.5 -3.5h15l0.5 -1l0.5 -1v-1v-1l-1 -0.5t-2 -0.5l-2.5 -0.5t-5 -0.5t-4.5 -0.5t-3 -0.5v0v-1q1 0 1.5 -1.5l0.5 -1.5l1 -3h12q1 0 1.5 -0.5t0.5 -1.5v-2v-1
h-14q-1 0 -1 -3v-3q0 -3 2 -3.5t5 -2t5 -5.5t2 -14q-3 0 -4.5 2t-2 4.5t-1.5 4.5t-4 2h-1l-0.5 -0.5l-0.5 -0.5v-6q0 -4 0.5 -8t6.5 -4q9 0 12.5 4t3.5 12q0 4 -1 7.5t-1 6.5q0 7 1 14l2 14v9t0.5 15.5t0.5 15.5v8t0.5 3.5t0.5 4.5t0.5 4.5l0.5 2.5v82q0 2 2 2.5t3 0.5
q4 0 5.5 -4t1.5 -8v0q0 -5 -0.5 -14t-1 -21t-1 -25t-1 -24.5t-0.5 -21t-1 -13.5q-1 -5 -1.5 -12t-1 -14.5t0 -14.5t0.5 -12q-1 -9 -0.5 -15t-1.5 -9.5t-7 -5.5t-16 -3h-6h-9h-9h-6l-6 -1v-19q0 -2 -2.5 -2.5t-4.5 -0.5q-1 0 -3 0.5t-2 2.5v17l-1 2h-7.5t-11.5 0.5t-11.5 1
t-7.5 1.5l-2.5 0.5t-3.5 0.5h-2h-3h-2h-2q-5 1 -7 7t-2.5 13.5t-0.5 14.5v10q0 1 -0.5 2.5t-0.5 3.5t-0.5 4l-0.5 2v134q0 1 0.5 4.5t1.5 4.5v1q0 2 -1 3.5t-1 3.5zM82 217q0 2 1 3.5t3 1.5h4.5h4.5q19 0 39 -1l40 -2q2 0 4 -1t2 -3t-0.5 -3.5t-2.5 -1.5h-24q-2 0 -2.5 -1
t-0.5 -3q0 -5 2.5 -7t6 -3.5t6.5 -5t3 -10.5v-6q-2 -2 -5 -4l-6 -4h-3h-6h-6h-4q-5 0 -14 -0.5t-17.5 1t-14 5.5t-5.5 13q0 6 3.5 8t8 3t8.5 2.5t4 5.5q0 2 -0.5 3t-2.5 3l-2 2h-22q-2 0 -2 2v3zM120 207q0 -3 1 -5t3.5 -3t5 -1h5.5h4t3 2l0.5 2l0.5 2v2t-0.5 2.5t-1 2.5
t-2.5 1h-18q-1 0 -1 -2v-3zM95 182q0 -3 4.5 -5t10.5 -3t11.5 -1.5t8.5 -0.5t8 0.5l10 1t9 2.5t4 5t-3 5t-6 3t-6.5 1.5t-4.5 0.5h-18h-6.5h-9.5t-8.5 -2t-3.5 -7zM79 152q0 3 2.5 4.5t5.5 1.5q13 0 25.5 -1.5t25.5 -2.5h6.5t10 -0.5t10 -0.5h6.5q3 -1 6 -5l-3 -2
q0 -1 -2 -1h-2q-15 0 -30 1.5t-29 1.5q-6 1 -9.5 0.5t-7.5 -0.5q-3 0 -6.5 0.5t-8.5 1.5v1v1zM76 123q0 8 1 10.5t3 2.5h6q3 0 7 3h15q6 0 14.5 0.5t17 0.5t16.5 -1t13 -4q3 -1 4 -3.5l2 -5t1.5 -5t0.5 -4.5t-1.5 -3.5t-3.5 -1.5q-3 0 -3.5 3t-2 6.5t-4.5 6t-11 2.5h-1
q-1 -3 -3.5 -6.5t-5.5 -7.5t-5.5 -7t-5.5 -6q0 -2 0.5 -8.5t0.5 -12.5q0 -7 -0.5 -13.5t-0.5 -8.5v-2.5t-0.5 -4t-1.5 -4.5t-2 -2q-2 0 -3.5 2t-1.5 4.5v5.5v4q0 7 1 13.5t1 13.5v4.5v2.5t-0.5 2.5t-1.5 3.5q0 2 -3 6.5t-6.5 9t-7 8t-4.5 3.5q-9 0 -12.5 -2t-4.5 -4.5
t-1 -4.5t-3 -2t-3 2.5v3.5zM111 130q0 -2 1.5 -5t4 -6t5.5 -5t5 -2q1 0 2 0.5t1 1.5q1 1 3.5 3t2.5 3q1 2 3 5.5l2 3.5l-3 3h-24q-1 0 -2 -0.5t-1 -1.5v0zM79 47q0 -2 1.5 -3t4 -1.5t4.5 -0.5h3h1l1 1v1q0 6 -1.5 11.5t-1.5 11.5q0 1 -2 1.5l-2 0.5q-2 0 -3.5 -3t-2.5 -7
t-1.5 -7.5t-0.5 -4.5z" />
</svg>
