<?xml version="1.0" standalone="no"?>
<!DOCTYPE svg PUBLIC "-//W3C//DTD SVG 1.1//EN" "http://www.w3.org/Graphics/SVG/1.1/DTD/svg11.dtd" >
<svg xmlns="http://www.w3.org/2000/svg" xmlns:xlink="http://www.w3.org/1999/xlink" version="1.1" viewBox="-10 0 266 256">
   <path fill="currentColor"
d="M200 249l3 1.5t3 0.5q1 0 2.5 -1.5t2 -3l1 -3t0.5 -3.5v-3q0 -1 -1 -7.5t-1.5 -13.5t-1.5 -13t-1 -8q0 -1 -0.5 -5t-0.5 -9t-0.5 -11t-1 -11t-0.5 -9v-5q-1 -6 -2.5 -12t-1.5 -13q0 -2 1.5 -4t3.5 -4t3.5 -4t1.5 -5q1 -3 1.5 -5.5t0.5 -5v-5v-6.5v-13q0 -5 -3.5 -8.5
t-8.5 -5.5t-10 -3t-8 -1l-3 -0.5t-6.5 -1.5t-7.5 -1.5t-6 -0.5h-1h-1q-1 0 -4 0.5t-4 1.5v2v3t2 2h4.5t7.5 0.5t7.5 0.5h5.5t6.5 1t9 2.5t8.5 4.5t4 7v27q0 2 -2 3.5t-4 1.5t-3.5 -2t-3 -4.5t-3.5 -5t-4 -3.5q-6 0 -10 -0.5t-7.5 -0.5t-7 -0.5t-8.5 -0.5h-9q0 1 -1.5 2
t-1.5 2l0.5 1.5t1.5 1.5h5h9h8h6q3 0 7 1.5t7 4.5t5 6.5t1 7.5q-1 3 -3.5 4.5t-5.5 2.5t-5.5 1t-4.5 1q-2 0 -6.5 0.5t-9.5 1l-10 1t-7 0.5v2t1.5 2t3.5 1h4h2q10 0 20 -2.5t19 -2.5q2 0 4 5t3 13t2 18t1.5 19t0.5 16t1 9v5.5t0.5 7.5t0.5 7.5v5.5q0 1 0.5 3.5t0.5 5.5
t-0.5 5.5t-0.5 3.5zM42 216v1l2 2l2 2h3h5.5h5.5h3q14 0 26.5 -1.5t25.5 -0.5q3 -1 5 -2t2 -3t-0.5 -2.5t-2.5 -0.5h-23l-4 -4v-3v-4v-3v-3.5v-3.5v-1q0 -2 0.5 -4t0.5 -4t0.5 -3.5l0.5 -1.5h20l1.5 -1.5t1.5 -2.5l0.5 -0.5l0.5 -0.5l-1 -1l-0.5 -0.5t-1.5 -0.5h-23v-30h23
q1 0 2 -1t2 -1v-1v0v-1l-2 -2t-2 -1h-21v-46q0 -3 3 -5t7.5 -3.5t8.5 -3t6 -4.5q4 -7 4.5 -14t0.5 -15v-15q0 -3 -2.5 -4t-4.5 -1q-3 0 -3 1v3q0 4 1 7.5t1 7.5q0 6 -1.5 12t-2.5 13q-1 2 -3.5 2.5t-5.5 0.5q-4 0 -5.5 -2t-1.5 -7q0 -9 1 -18t1 -18q0 -3 -1 -6.5t-5 -3.5
q-3 0 -4.5 1t-1.5 4v3v5v5v2q0 10 1 20t1 19q0 5 -2 10t-7 5q-2 0 -4.5 -0.5t-5 -1.5l-5 -2t-2.5 -3v-42q0 -3 -1.5 -4t-3.5 -1h-3.5t-2.5 1v10v19.5t3 19.5q2 5 6.5 7.5t9.5 3t9 1.5t5 3v3v4v4v2v4v4v4v2q0 2 -0.5 5t-1.5 3h-31l-4 4l4 4h31v26l-30 3q-2 0 -3.5 1.5
t-1.5 3.5t1.5 3t2.5 1q8 0 15.5 -1t15.5 -1v3.5v5v5.5v3v3t-0.5 6.5t-1.5 6t-3 2.5h-31l-1.5 1.5t-2.5 1.5v1zM139 171v0.5v0.5l0.5 1.5t1.5 1.5h10q2 0 8 0.5t12 0t10.5 -2t4.5 -4.5h-44l-1.5 0.5l-1.5 0.5v0.5v0.5z" />
</svg>
