<?xml version="1.0" standalone="no"?>
<!DOCTYPE svg PUBLIC "-//W3C//DTD SVG 1.1//EN" "http://www.w3.org/Graphics/SVG/1.1/DTD/svg11.dtd" >
<svg xmlns="http://www.w3.org/2000/svg" xmlns:xlink="http://www.w3.org/1999/xlink" version="1.1" viewBox="-10 0 266 256">
   <path fill="currentColor"
d="M192 223q2 2 2 6v7q0 4 0.5 7t3.5 3q1 0 4 -1t3 -2v-25l-0.5 -4.5t-1.5 -11t-2 -14.5l-2 -16t-2 -15t-2 -12q0 -1 -0.5 -3t-1 -4.5t-1 -4.5l-0.5 -2v-2v-3q0 -4 1.5 -7.5t3.5 -6.5t4.5 -6t4.5 -6q3 -7 3 -15v-15v-1q-4 -10 -9.5 -15t-13 -7t-16.5 -1.5t-18 0.5h-6
q-1 1 -1.5 2.5t-0.5 3.5q0 1 0.5 2t1.5 2q4 0 9.5 -0.5t11 -0.5t11.5 1t10.5 3.5t7 6t2.5 10.5q0 1 -0.5 6t-1.5 10t-2.5 9t-4.5 4q-2 0 -3 -3.5t-2.5 -7.5t-3.5 -7.5t-6 -4.5q-1 0 -4.5 -0.5t-7.5 -0.5t-7.5 -0.5t-5.5 -0.5h-3q-3 0 -6.5 1t-3.5 4q0 2 0.5 3t3.5 0h4h7h6h5
q3 1 5.5 2t4 3t2.5 4.5t2 5.5q1 2 1.5 3.5t1 2t0.5 1v2.5q0 4 -5.5 6t-12.5 3.5l-14 3t-11 2.5v1.5v1.5q0 3 3 3.5t5 0.5q5 0 9 -1.5l8 -3t8 -2.5t8 -1h1l1 0.5t2 0.5q0 2 0.5 6t0.5 6l0.5 1.5l1 3l1 3t1.5 1.5q0 2 0.5 6.5t1.5 9.5t1.5 9.5t0.5 5.5t0.5 3.5t1.5 3.5v37z
M46 209q0 2 1 4t3 2h0.5h0.5q1 0 3.5 -0.5t2.5 -1.5h3.5t5 -0.5t4.5 -0.5h3q14 -1 28 -1.5t28 -0.5q1 0 2 -2t1 -3t-1 -2.5t-2 -2.5q-2 0 -5 0.5t-6.5 0.5t-6 -1t-3.5 -5v-2t-0.5 -4.5l-1 -5t-0.5 -4.5v-2q0 -8 2.5 -11t5.5 -6t5.5 -8t2.5 -15q0 -6 -4.5 -11t-9.5 -5h-2
h-5.5t-7 0.5t-6.5 0.5h-3l-2 1t-3 1q-5 1 -8.5 1.5t-6 3t-3.5 6t-1 9.5q0 5 1 7.5t2.5 5t4 4.5t5.5 5v29q0 2 -1.5 5.5t-4.5 3.5h-17q-3 0 -3.5 2t-0.5 3zM83 199v-31l1 -1t2 -1h2.5h3.5h3h2l2 2v6q0 7 -0.5 13.5t-1.5 14.5h-11zM133 160q0 1 0.5 1.5l1.5 1.5h3.5h2.5
q9 0 16.5 -1t16.5 -1q1 0 2 -1l2 -2q0 -1 -0.5 -2t-1.5 -1h-38q-2 0 -3.5 1.5t-1.5 3.5zM75 155q-3 -2 -3.5 -5t-0.5 -7v-4t2 -5l6 -2t6.5 -1.5l7 -1t6.5 -0.5h1.5t3.5 0.5t3.5 0.5t2.5 1l0.5 0.5l0.5 0.5v16q0 2 -2.5 3.5t-5.5 2.5l-6 2t-4 1q-5 0 -9 -0.5t-9 -1.5zM51 96
q-3 1 -3.5 4.5t-0.5 5.5q9 0 19 0.5t20.5 0t20.5 -1.5t18 -4q1 0 1.5 -1.5l0.5 -1.5v-1q0 -1 -2 -2t-3 -2q-1 0 -3.5 0.5t-5 0.5t-5 0.5t-3.5 0.5h-2q-6 0 -6 -7q0 -5 3.5 -6.5t8 -3t8.5 -3.5t5 -8q1 -8 1.5 -14t0.5 -13v-10q-1 -2 -2 -2h-3h-3q-1 0 -2 2v4.5t-0.5 7.5
t-0.5 7.5v4.5q0 3 -0.5 6.5t-1.5 6.5t-3.5 5t-5.5 2q-2 0 -3 -1.5t-1.5 -3.5t-0.5 -4v-3q0 -11 1 -21.5t1 -21.5q0 -3 -2 -3.5t-4 -0.5q-1 0 -3 0.5t-2 2.5v52q0 3 -1.5 3.5t-3.5 0.5q-4 0 -6.5 -2.5t-3.5 -5.5t-1 -7v-6t-0.5 -5t-0.5 -6.5t-0.5 -6t-0.5 -4.5q-1 -1 -2.5 -2
t-3.5 -1v0l-1.5 1.5l-0.5 0.5v37q0 1 1.5 2t2.5 2.5t2.5 2.5l1.5 1q0 1 0.5 2t1 1.5l1 1l0.5 0.5q2 1 4.5 1.5l5 1t4 2.5t1.5 5q0 4 -3 5t-7 1q-1 0 -5 0.5t-8 0.5q-5 0 -8.5 -0.5t-5.5 -0.5z" />
</svg>
