<?xml version="1.0" standalone="no"?>
<!DOCTYPE svg PUBLIC "-//W3C//DTD SVG 1.1//EN" "http://www.w3.org/Graphics/SVG/1.1/DTD/svg11.dtd" >
<svg xmlns="http://www.w3.org/2000/svg" xmlns:xlink="http://www.w3.org/1999/xlink" version="1.1" viewBox="-10 0 266 256">
   <path fill="currentColor"
d="M65 247q0 1 2 1.5l2 0.5h1q2 0 3.5 -2.5t2.5 -3.5q0 -3 -0.5 -9t-0.5 -13v-16v-15q0 -8 0.5 -14t0.5 -8v-6.5t0.5 -9.5t0.5 -9v-6q5 -12 11.5 -17t19.5 -5h54l5 5l0.5 3t1.5 7t1.5 8.5t1.5 7.5v3t0.5 4t0.5 4v3q0 2 0.5 7t0.5 11t0.5 11t0.5 6v10v16v16v10h9
q1 0 1.5 -2.5t0.5 -3.5q0 -13 -1.5 -25t-1.5 -25q0 -3 0.5 -5t0.5 -5v-10.5t-0.5 -14t-2 -15.5t-3 -14.5t-4.5 -11.5t-7 -7q-2 0 -6 -0.5t-9 -1t-9 -1t-5 -0.5q-2 -1 -4.5 -2t-2.5 -3v-86q0 -3 -1 -3h-3t-4.5 1t-2.5 3v90l-3 1q-8 1 -15.5 1.5t-14 2t-11 6t-7.5 13.5
q0 4 -0.5 14t-1.5 21.5t-1.5 21.5t-0.5 14v3v7v8v6v4v7.5v7.5v4zM95 159v12t0.5 14t2.5 13t7 9h3q1 0 3 0.5t4 0.5h2q12 0 18 -0.5t9.5 -3.5t4.5 -9.5t1 -17.5v-20v-20q0 -1 -2 -2.5t-3 -2.5v0v0h-1q-1 1 -2.5 2l-1.5 1v23h-35v-20l-0.5 -0.5l-0.5 -0.5q-1 -1 -2.5 -1.5
l-1.5 -0.5q-2 1 -3 3.5t-1 4.5v3t-0.5 5t-0.5 5v3zM107 171l1 -2h1.5t4 -0.5t5 -0.5h3.5h3q3 0 6 -0.5t5 -0.5h4v5t-0.5 6.5t-0.5 6.5v4q0 4 -2 6t-4.5 3t-5.5 1.5t-7 0.5h-3q-3 0 -5 -0.5t-3.5 -2t-1.5 -3.5v-23zM51 97l0.5 1.5l0.5 1.5h2.5h2.5q6 0 10 -2t9 -6
q7 -5 11 -11.5t5.5 -14t1.5 -15.5v-17q0 -4 -1 -7.5t-6 -3.5h-2t-2 2v41q0 1 -0.5 2.5t-1.5 3.5t-1.5 3.5l-0.5 1.5q-1 1 -4 3l-6 4t-5.5 4t-3.5 3q-1 0 -4 2t-4 2q0 1 -0.5 1.5zM156 41v18t1.5 12t6.5 9.5t14 10.5l8 4t10 2q2 0 4.5 -0.5t2.5 -3.5v-2t-2 -2l-25 -12
q-4 -2 -7.5 -7.5t-3.5 -10.5q0 -3 0.5 -7l1 -8l1 -8t0.5 -7h1q0 -4 -2.5 -5t-5.5 -1h-2.5t-2.5 2v16z" />
</svg>
