<?xml version="1.0" standalone="no"?>
<!DOCTYPE svg PUBLIC "-//W3C//DTD SVG 1.1//EN" "http://www.w3.org/Graphics/SVG/1.1/DTD/svg11.dtd" >
<svg xmlns="http://www.w3.org/2000/svg" xmlns:xlink="http://www.w3.org/1999/xlink" version="1.1" viewBox="-10 0 266 256">
   <path fill="currentColor"
d="M103 181q0 11 5 20.5t12.5 17t16.5 14t18 11.5q3 2 5.5 4t6.5 2q3 0 5.5 -1t2.5 -4v-1v-1q-10 -7 -20.5 -13.5t-19.5 -14t-15 -17.5t-6 -22q8 0 15 4.5t15 10t15 10t15 4.5h4t2 -3q0 -1 -3 -4t-7.5 -6t-10.5 -6t-11.5 -6t-9.5 -5t-5 -3q-4 -2 -8.5 -6t-7.5 -7v-2
q0 -2 0.5 -4t1.5 -4t2.5 -3.5t3.5 -1.5q5 0 9.5 2.5t9.5 5.5t9.5 6t9.5 5l1.5 1l1.5 1l1 1l2 2t2.5 2t2.5 1q4 0 6 -1.5t2 -4.5v-3q0 -1 -2 -2q-1 -1 -5 -3l-8 -4l-8 -4t-6 -2q-2 -1 -5.5 -2.5l-7 -3t-5.5 -3t-2 -4.5q0 -1 1 -3.5t3.5 -5t4.5 -4t4 -1.5q6 0 10.5 3t9.5 6.5
t9.5 6.5t10.5 3q4 0 6.5 -1t2.5 -6q0 -2 -3.5 -4t-8 -4t-10.5 -4t-10.5 -4t-7.5 -4t-3 -3v-1q0 -1 0.5 -2.5t0.5 -2.5q0 -6 -4 -11.5t-9 -10t-9.5 -8t-4.5 -5.5t2 -3.5t4.5 -2.5t5.5 -1.5t4 -1.5q1 0 4 -1t6.5 -1.5t6.5 -1.5t4 -1h2q3 0 4.5 3t2.5 7.5t2 10t2 10.5t3.5 8
t6.5 3q3 0 5 -1.5t2 -4.5v-2v-1q0 -1 -2.5 -2.5t-2.5 -2t-1 -3t-1.5 -4.5t-1 -4.5t-1.5 -3.5q-3 -12 -3.5 -23t0.5 -23q-1 -3 -2.5 -3h-3.5h-2h-1.5t-1 0.5t-0.5 2.5v4v7q0 3 -0.5 6.5t-1.5 6.5q-9 2 -17 5t-18 3q0 -6 -0.5 -10t-0.5 -9v-1q0 -1 0.5 -2t0.5 -2.5t0.5 -2.5
l0.5 -1v-1q0 -4 -2.5 -7.5t-7.5 -3.5q-2 0 -3 0.5t-1 3.5q0 8 2 17t2 18v2.5v1.5l-1 2q-2 0 -7 1t-10.5 2t-10.5 2t-7 1q-3 1 -6 1.5t-6 2t-4.5 4t-1.5 5.5q5 0 11 -1.5t11.5 -3l11 -3t10.5 -1.5q6 0 6 6q0 1 -2 4.5t-5.5 7.5t-7.5 8.5t-7.5 9t-6 7.5t-3.5 4q-2 2 -6.5 5
l-9 6t-8 6.5t-3.5 5.5t1.5 3t3.5 1q5 0 11 -4t12 -10.5t11.5 -14.5t10.5 -14.5t8.5 -10.5t5.5 -4q3 0 6.5 2t6.5 5t5 6t2 6v2.5v2.5q-8 7 -15.5 15.5t-13 17.5t-9 19t-3.5 21z" />
</svg>
