<?xml version="1.0" standalone="no"?>
<!DOCTYPE svg PUBLIC "-//W3C//DTD SVG 1.1//EN" "http://www.w3.org/Graphics/SVG/1.1/DTD/svg11.dtd" >
<svg xmlns="http://www.w3.org/2000/svg" xmlns:xlink="http://www.w3.org/1999/xlink" version="1.1" viewBox="-10 0 266 256">
   <path fill="currentColor"
d="M76 175q0 3 0.5 9.5t2 15t3 17.5t4 16.5t4.5 12t5 4.5t3.5 -1.5t0.5 -3.5v-4q-5 -17 -8 -33.5t-3 -34.5v-3v-4.5v-4.5v-3q1 -1 2 -3t1 -3q1 -1 1.5 -2.5t0.5 -2.5q2 -4 5.5 -8t6.5 -8t5 -8.5t2 -9.5q0 -4 -1.5 -8t-4 -7t-5.5 -6t-7 -6v-1.5v-1.5q0 -2 0.5 -5.5t1.5 -7.5
t2 -7t3 -3q3 0 5.5 1.5t4.5 2.5t4 2.5t5 1.5h4l1 -1.5l1 -1.5q0 -5 -3.5 -7.5t-8.5 -4t-9 -3t-6 -4.5v-22q0 -2 -0.5 -4t-1.5 -4t-3 -3t-4 -1t-3 1t-2 3q2 8 2.5 13.5t0.5 12.5q0 4 -2.5 6t-6 3.5t-8 3t-8.5 3t-6.5 4t-2.5 5.5t2.5 2.5t3.5 -0.5q4 0 7.5 -1t6.5 -3t6 -4.5
t7 -3.5q1 0 1 2v3q0 10 -3.5 18.5t-9 16.5t-12 15t-12.5 13q-1 1 -1.5 2t-0.5 2v0q0 2 1.5 3t3.5 1q6 0 10 -5.5t8 -12t8 -12.5t10 -6q2 0 4.5 2t4.5 4.5t2.5 5t0.5 5.5q0 5 -2 9t-5.5 8t-7 7.5t-5.5 7.5q-4 6 -5 14t-1 15zM158 245q-1 4 1 4.5t4 0.5q5 0 5.5 -3.5t0.5 -8.5
q0 -21 -0.5 -42t-0.5 -42v-5v-7.5v-7.5v-5q0 -8 2 -13t5.5 -8t7 -5.5l7 -5t6 -6t2.5 -8.5q0 -7 -4.5 -11.5t-9.5 -9t-9 -9.5t-4 -12q0 -5 1.5 -8.5t1.5 -8.5q0 -2 -2 -3.5t-4 -1.5t-4 1.5t-2 5.5v29q0 2 -3 4l-7.5 5t-10 6.5t-10 6.5t-7.5 5.5t-3 3.5v2t2 1q7 0 13 -3.5
t12 -8.5t11.5 -8.5t9.5 -3.5q3 0 6 2t5.5 5t4.5 6.5t2 5.5q0 4 -2 6t-5 3.5l-6 3t-5 3.5q-5 7 -7 12.5t-4 14.5v23q0 15 1 30t1 30v4q0 2 -0.5 6.5t-0.5 9.5t-0.5 9.5t-0.5 5.5zM126 229q0 2 0.5 3t3.5 1t4.5 -5t2.5 -12.5t1.5 -16.5t1 -17.5t0.5 -15t1 -9.5v-47l-1.5 -1.5
t-2.5 -1.5h-1q-3 0 -3.5 1t-1 3t0 4t0.5 3t-0.5 4.5t-0.5 7t-0.5 7t-0.5 4.5v6v10v13v13v10v5q0 8 -2 15.5t-2 15.5zM191 164l5 63q0 1 1.5 3t3.5 2t3.5 -2.5t2.5 -4.5q0 -1 -0.5 -3t-0.5 -4.5t-0.5 -5l-0.5 -2.5q0 -1 -0.5 -3t-1 -4.5t-1 -4.5t-0.5 -3q-1 -7 -1 -15t-1 -16
q0 -3 -0.5 -10.5t-1 -16t-0.5 -16.5t-1 -11q0 -1 -1 -1.5t-2 -0.5q-5 0 -5 7v34q1 0 1.5 2.5t0.5 3.5l-0.5 0.5l-1.5 1.5v0v1q1 1 1.5 3.5z" />
</svg>
