<?xml version="1.0" standalone="no"?>
<!DOCTYPE svg PUBLIC "-//W3C//DTD SVG 1.1//EN" "http://www.w3.org/Graphics/SVG/1.1/DTD/svg11.dtd" >
<svg xmlns="http://www.w3.org/2000/svg" xmlns:xlink="http://www.w3.org/1999/xlink" version="1.1" viewBox="-10 0 266 256">
   <path fill="currentColor"
d="M172 107q2 15 2 31t0.5 32t2.5 31.5t7 30.5q1 2 2 5t3 6.5t4.5 5.5t5.5 2q2 0 4.5 -1t2.5 -4v-0.5v-1.5q-8 -18 -12.5 -34.5t-6 -33t-2 -33.5t-1.5 -38q1 -4 -1.5 -8.5t-6.5 -7.5q-7 0 -12 -0.5t-10 -0.5q-13 0 -25 2.5t-24 2.5q-2 0 -5 -0.5t-5.5 -1.5t-4 -3t-1.5 -5
q0 -5 2.5 -9t7 -6.5t9.5 -3.5t9 -1q1 0 4.5 -0.5t7.5 -0.5t7.5 -0.5t4.5 -0.5l3 -0.5l6 -1t5.5 -1t3.5 -0.5q8 -1 14 -1q5 0 9.5 -2t6.5 -6.5t2 -15.5q0 -2 -0.5 -5.5t-2 -6t-3.5 -5t-6 -2.5q-11 0 -21.5 -1t-21.5 -1h-2q-6 1 -13 1.5t-14.5 1t-14.5 2t-13 3.5v2v1
q0 5 3.5 6t7.5 1t6.5 -0.5t6.5 -1.5q2 0 7 -0.5t11 -1t13 -1t13 -1t11 -1t8 -0.5h2q4 0 6 1.5t3 3.5t1 4.5v5.5v3v3q-2 2 -4 3t-5 1t-7.5 0.5l-9 1t-8 0.5h-3.5q-10 1 -20.5 1.5t-20.5 3.5t-16.5 9.5t-7.5 18.5v6v9v10v5q0 10 -0.5 20.5t-1 20.5t-2 20t-4.5 20q0 1 -0.5 3.5
t-1.5 5.5t-1.5 6t-1.5 4q0 2 -2 6l-4 8t-3.5 7.5t-1.5 7.5q0 2 2 2.5t4 0.5q5 0 9 -6.5t7 -16.5t5.5 -22t4 -23t2.5 -20t1 -12q0 -1 0.5 -6t0.5 -10.5t0.5 -10.5t0.5 -7l0.5 -2.5t0.5 -3.5q2 -4 4.5 -3.5t6.5 0.5h5.5t10 -0.5t12 -1t12 -0.5t10 -0.5t5.5 -0.5h5q5 0 7.5 1.5
t3.5 6.5z" />
</svg>
