<?xml version="1.0" standalone="no"?>
<!DOCTYPE svg PUBLIC "-//W3C//DTD SVG 1.1//EN" "http://www.w3.org/Graphics/SVG/1.1/DTD/svg11.dtd" >
<svg xmlns="http://www.w3.org/2000/svg" xmlns:xlink="http://www.w3.org/1999/xlink" version="1.1" viewBox="-10 0 266 256">
   <path fill="currentColor"
d="M91 149q2 0 5 0.5t7 1.5t7.5 1.5t4.5 0.5t2.5 0.5t3.5 0.5t4 0.5l2 0.5q1 0 1.5 0.5t0.5 1.5v91q0 2 2 2.5t4 0.5q1 0 3 -0.5t1 -2.5v-7q0 -4 0.5 -9t0.5 -9v-7q0 -14 -1.5 -27.5t-1.5 -28.5q0 -2 5.5 -4t13 -4.5t14.5 -6.5t10 -12q3 -6 4 -13.5t1.5 -15t0 -15
t-0.5 -14.5v-25q-1 -3 -2.5 -4t-4.5 -1q-2 0 -2.5 1t-0.5 3q0 10 1 20t1 20v5v4q0 2 -0.5 6t-1 8.5t-1 8t-0.5 5.5q-5 9 -13.5 15t-20.5 6h-1l-0.5 -1t-0.5 -2q0 -17 -1 -33t-1 -34q0 -14 1.5 -28t1.5 -27v-6q0 -2 -3 -2h-3h-1t-2 0.5t-2 0.5t-1 1v129q-3 0 -6.5 0.5t-7 0.5
t-7.5 -1t-6 -2q-7 -4 -10.5 -13t-5.5 -18.5t-2 -19.5t-1 -16v-5v-7v-6.5v-4.5q0 -2 -1.5 -3.5t-3.5 -1.5t-3.5 1.5t-1.5 3.5v1q0 3 0.5 8.5t1 12.5t1 15t1 15t1 12.5t0.5 8.5q1 3 2.5 6t3 6.5t4 6t5.5 4.5z" />
</svg>
