<?xml version="1.0" standalone="no"?>
<!DOCTYPE svg PUBLIC "-//W3C//DTD SVG 1.1//EN" "http://www.w3.org/Graphics/SVG/1.1/DTD/svg11.dtd" >
<svg xmlns="http://www.w3.org/2000/svg" xmlns:xlink="http://www.w3.org/1999/xlink" version="1.1" viewBox="-10 0 266 256">
   <path fill="currentColor"
d="M75 234q3 0 11 0.5t17 1t17.5 1t11.5 0.5h1v0q3 0 9 -0.5t13 -1t13 -1t8 -0.5q1 0 3 -1l4 -2t3.5 -2t2.5 -2q2 0 3.5 -3t1.5 -4q3 -27 4.5 -53.5t0.5 -54.5l0.5 -2l1 -4t1 -3.5t0.5 -2.5t-0.5 -4t-0.5 -6.5t-0.5 -6.5l-0.5 -3v-3q0 -4 1 -7.5t1 -7.5q0 -7 -7 -7h-2t-3 1
q2 36 0.5 71.5t-4.5 70.5v2.5v3.5v4v3q-1 1 -2.5 2t-3.5 1q-1 0 -5 -3.5t-9 -7t-9 -7.5l-6 -6l-3.5 -3.5l-5 -5t-5.5 -5t-4 -3.5v-3t-0.5 -4.5t-0.5 -4.5v-3v-2v-2q1 -29 3 -59t2 -60q0 -2 -2.5 -4.5t-4.5 -2.5q-1 0 -3.5 2.5t-2.5 4.5v23l-1 5q0 2 -0.5 9.5t-0.5 17.5
t-0.5 19t-0.5 14v11v17v16v11q-7 3 -13 8l-12 10t-11.5 10.5t-11.5 10.5h-1q-1 0 -2.5 -1.5t-2 -3.5t-0.5 -4v-4q0 -34 1.5 -67.5t1.5 -67.5v-11q-1 -1 -2.5 -2t-2.5 -1h-1q-1 0 -2.5 0.5t-2 1t-1.5 1l-1 0.5v45q-1 5 -1 8v8q0 13 0.5 24.5t0.5 24.5v0q0 1 -0.5 3l-0.5 2v45
q0 3 2 5.5t5 4.5t6.5 3.5t5.5 2.5zM84 226q-1 -1 -1 -1.5v-1.5v-1q1 -1 3 -3.5t4.5 -5t5 -4.5t3.5 -3q2 -3 5.5 -6t7 -6.5t7.5 -6t7 -2.5q6 0 10 4l7 7l3 3t4.5 4t4.5 3.5t2 2.5l3 3t4.5 4t4.5 4l3 3q-1 0 -2 0.5t-2 0.5q-1 1 -4 1.5t-6.5 1t-6 0.5h-3.5l-3 0.5t-6 0.5h-7
h-6h-21t-21 -2z" />
</svg>
