<?xml version="1.0" standalone="no"?>
<!DOCTYPE svg PUBLIC "-//W3C//DTD SVG 1.1//EN" "http://www.w3.org/Graphics/SVG/1.1/DTD/svg11.dtd" >
<svg xmlns="http://www.w3.org/2000/svg" xmlns:xlink="http://www.w3.org/1999/xlink" version="1.1" viewBox="-10 0 266 256">
   <path fill="currentColor"
d="M55 234q1 0 3 0.5t5 1.5t5.5 1.5t3.5 0.5h3q2 0 9.5 -0.5t15 -1.5t14.5 -4t8 -8q1 -3 1.5 -6.5t0.5 -8v-7.5v-7q0 -27 -1 -53t-3 -53v-3.5v-6t-0.5 -6.5t-0.5 -4q-2 -4 -5 -4q-4 0 -6 2.5t-2 6.5v3q0 1 0.5 2.5t0.5 3.5t0.5 4l0.5 2v8v13v14v7t0.5 3.5t1.5 5.5t1.5 6
l0.5 3q0 1 -0.5 3.5t-0.5 6t-0.5 6t-0.5 3.5v3v4.5t-1 4.5t-3 2q-3 0 -7 -5.5t-6.5 -12.5t-4 -14t-1.5 -11v-108l-1 -1l-1 -1h-2h-3h-2.5h-1.5l-2 4v12v18v20v21v17.5v11.5q0 10 -0.5 18t-2.5 14t-6 12t-10 13l-2 -3l-0.5 -3.5t-0.5 -8t-0.5 -9.5t-0.5 -8q0 -12 -0.5 -23.5
t-1.5 -23.5v-7.5t-0.5 -11.5t-0.5 -11.5v-7.5q-1 0 -2 -1.5t-2 -2.5h-0.5h-0.5q-2 0 -4 2t-2 4v17q0 13 0.5 27.5t1.5 28.5t1.5 28t1.5 26q2 5 2.5 9t1.5 8t2.5 7.5t6.5 7.5zM60 213q0 -3 2.5 -10t6 -13.5t7 -12.5t5.5 -8q4 4 8.5 9t9.5 11t8 12t3 12q0 2 -0.5 3.5t-3.5 2.5
q-1 1 -4 1.5t-6.5 1t-6.5 1t-4 1.5h-2q-2 0 -6 -0.5t-7.5 -1.5t-6.5 -3t-3 -6zM137 136q0 1 0.5 3.5t0.5 3.5v6v10v9v6q1 14 3.5 23t7.5 14t13.5 6.5t21.5 1.5q12 0 18 -2t9.5 -6.5t5 -11.5t3.5 -17v-30v-14v-13v-13.5t-1 -14.5q-2 -5 -5 -9.5t-6 -8.5q-1 0 -3.5 -0.5
t-5.5 -0.5t-5.5 -0.5t-3.5 -0.5l-2 0.5t-3.5 0t-3.5 -1.5t-2 -3v-52q0 -3 -2.5 -4.5t-4.5 -1.5q-3 0 -4 2.5t-1 5.5v52q0 1 -5 2t-10.5 2.5t-10 5t-4.5 8.5v43zM147 157v-6q4 -2 9 -3t9 -1q2 0 4 0.5t3 3.5q0 3 0.5 9.5t1 14t0.5 14v8.5v2.5v1.5v3t-2 2h-16q-1 0 -2 -3.5
t-2 -8.5t-2 -11t-1.5 -11.5t-1 -9.5t-0.5 -5zM183 155q0 -2 1 -4t2 -3q1 0 3.5 -0.5l5 -1t4.5 -0.5h3h2q2 0 3 2.5t1 5.5v6v4v12.5t-1.5 14t-5.5 11.5t-11 4q-3 -3 -4 -9q0 -1 -0.5 -7t-1 -12.5t-1 -12.5t-0.5 -7v-3zM147 137v-36q0 -2 1.5 -5t3.5 -5t4.5 -3t5.5 -1
q5 0 5.5 3.5t1.5 8.5q0 4 0.5 10t0.5 11v9v4l-3 4h-20zM181 91l4 -4h2h3q7 0 10.5 2t4.5 6t1 10v12v16l-2 0.5t-3.5 1l-3 1t-2.5 0.5h-1q-5 0 -9 -2.5t-4 -8.5v-34z" />
</svg>
