<?xml version="1.0" standalone="no"?>
<!DOCTYPE svg PUBLIC "-//W3C//DTD SVG 1.1//EN" "http://www.w3.org/Graphics/SVG/1.1/DTD/svg11.dtd" >
<svg xmlns="http://www.w3.org/2000/svg" xmlns:xlink="http://www.w3.org/1999/xlink" version="1.1" viewBox="-10 0 266 256">
   <path fill="currentColor"
d="M125 246q0 4 4 4q5 0 9 -2.5t8 -6t7 -7.5t6 -7q6 -6 11 -12t10 -12.5t8.5 -13.5t5.5 -15q0 -1 0.5 -3t0.5 -4v-4.5v-2.5q0 -16 -4.5 -31.5t-12.5 -29.5q0 -1 -1.5 -2.5t-1.5 -2.5v-1v-3t2 -2h27l1.5 -1.5t1.5 -2.5h1q0 -2 -2.5 -3.5t-3.5 -1.5q-18 0 -36.5 0.5t-35.5 3.5
q-4 0 -5.5 1.5t-1.5 4.5h38q1 0 1 1.5v2.5q0 3 -2.5 5.5t-5.5 3.5l-4 4l-6 6t-5.5 6t-3.5 4q-1 0 -2 1t-2.5 2t-2.5 2t-2 1q0 1 -1.5 2l-1.5 1v0.5v0.5q0 2 1.5 2.5t3.5 0.5q3 0 6 -1.5t5.5 -3.5t5 -5t4.5 -5l3.5 -3.5l5.5 -5.5l5.5 -5.5l3.5 -3.5h1q1 0 1.5 1.5t1.5 3
t1.5 3t0.5 2.5l0.5 2t0.5 3q0 3 -0.5 4.5t-2 2.5t-3.5 2t-4 4q-2 2 -8.5 7.5t-13 11.5t-12.5 11.5t-9 8.5q-1 1 -1 2.5v3.5q6 0 11 -2.5t9.5 -7t8.5 -9t8 -8.5q5 -6 10 -9.5t10 -8.5v0q2 0 2.5 1t0.5 3v3v2q0 5 -1 7.5t-2.5 4t-3 3.5t-3.5 5q-1 2 -5 6l-8.5 8.5t-8.5 8
t-6 5.5t-5.5 4l-7 4t-6 5.5t-2.5 7.5q0 2 1.5 2.5t3.5 0.5t5.5 -2.5t8.5 -7t10.5 -10t10 -10.5t8.5 -9t6 -7q1 0 2 -1.5t2.5 -3t2.5 -2l1 -0.5h2v2.5v3.5t-0.5 3t-0.5 4t-0.5 3.5t-0.5 2.5q-1 4 -5.5 11t-10 14.5t-11 14t-9.5 9.5q-1 1 -4.5 3.5l-7 5t-7 5.5t-3.5 5v1z
M48 91v9v10t0.5 9l0.5 4v9t1 10t3.5 9t6.5 5q1 0 3 0.5t3.5 0.5t3 0.5l1.5 0.5q2 0 5.5 -0.5t8 -0.5t8 -0.5t4.5 -0.5q3 -1 4.5 -2t3 -2.5l3 -3t2.5 -4.5q0 -1 1 -4.5t1.5 -8t1.5 -8t1 -5.5v-3q0 -3 -1 -6t-1 -6q0 -6 1 -11t1 -11q0 -11 -1 -20.5t0 -19.5q0 -3 -1.5 -3.5
t-2.5 -0.5q-3 0 -4.5 1t-1.5 4v85l-1.5 0.5t-2.5 0.5q-2 0 -4 -4t-4 -9.5t-3 -10.5t-1 -7q0 -5 0.5 -10t0.5 -11q0 -4 -0.5 -8t-0.5 -9q0 -7 0.5 -14t0.5 -14v-4v-5v-5v-4q0 -2 -2.5 -2h-3.5h-4q-1 2 -1 4v4q0 7 0.5 14t0.5 14v2v5t-0.5 8.5t-0.5 8.5v5v3q0 4 0.5 8t0.5 9
v8.5t-1 9.5q-3 2 -5 4t-3.5 4.5t-4 4.5t-5.5 3l-2 -5v-2v-3v-4v-3q0 -17 1 -34t1 -35q0 -3 -1 -5.5t-5 -2.5q-1 0 -2.5 0.5l-1.5 0.5q-2 13 -2 27v27zM63 144v-1q6 -5 10 -10.5t10 -10.5v-1h1q2 0 4.5 3.5t4.5 7l4 7l2 3.5q0 3 -1.5 3.5t-3.5 0.5h-4t-2 2h-23q-2 0 -2 -1.5
v-2.5zM133 43q0 9 2.5 15t7.5 9t12.5 4.5t15.5 1.5q6 0 11 -3t9.5 -7t7 -10t2.5 -11q0 -10 -2 -15t-6.5 -7t-11.5 -2h-16q-8 0 -14.5 0.5t-10.5 2.5t-5.5 7.5t-1.5 14.5zM146 62q-2 -1 -2 -3v-3q0 -5 3.5 -7.5t8 -3t9.5 -0.5h9h2h3.5h3.5h2q2 1 2.5 2t0.5 3q0 5 -2 7.5t-5 4
t-6.5 1.5h-6.5h-10.5t-11.5 -1zM144 36q0 -3 3 -5.5t6.5 -4t7.5 -2t6 -0.5h5.5t7 1t6 3t2.5 5q0 2 -0.5 3.5t-2.5 0.5q-2 0 -7 0.5t-11 0.5t-11 0.5t-7 0.5h-1h-1q-3 0 -3 -3z" />
</svg>
