<?xml version="1.0" standalone="no"?>
<!DOCTYPE svg PUBLIC "-//W3C//DTD SVG 1.1//EN" "http://www.w3.org/Graphics/SVG/1.1/DTD/svg11.dtd" >
<svg xmlns="http://www.w3.org/2000/svg" xmlns:xlink="http://www.w3.org/1999/xlink" version="1.1" viewBox="-10 0 266 256">
   <path fill="currentColor"
d="M167 211q0 5 2 11.5t5.5 13t8.5 11t11 4.5q3 0 5 -1.5t2 -5.5v-0.5v-0.5q-1 -3 -3.5 -5t-5.5 -4.5t-5.5 -5t-3.5 -5.5q-1 0 -1 -2t-0.5 -4.5t-0.5 -4.5v-4q0 -4 1.5 -8t2.5 -7.5t2.5 -7.5t1.5 -8q0 -8 -4.5 -11t-9.5 -5t-9 -4t-4 -6q0 -6 2 -8t5 -3t6.5 -1.5t6.5 -3
t5.5 -8t2.5 -15.5v-23q1 0 3 -2.5l2 -2.5q1 -1 1.5 -2.5l0.5 -1.5v-18q0 -2 -1 -2.5t-3 -0.5q-3 0 -4 2t-1.5 4.5t-0.5 5.5v3q-6 4 -15 6.5t-17.5 4t-15.5 3.5t-9 5l1 1l2 2v0h1q1 0 6.5 -1t11.5 -1.5t11.5 -1.5t6.5 -1h3h2q3 0 3 2l-2 12l-2 0.5t-4 0.5q-2 1 -7 1.5t-11 1
t-11 1.5t-7 1t-2 2.5v3.5h43q1 0 1 2v3t-1 2.5t-2.5 2.5t-3 1.5t-2.5 0.5l-41 8v0.5v1.5q0 2 1.5 3.5t3.5 1.5h2t4 -0.5t4 -0.5h3h3h2t2 1v14l-17 17l-0.5 2t-0.5 3.5v3.5v3q0 4 0.5 7t2 6t4 6t5.5 7h1q4 0 4.5 -2.5t0.5 -4.5q0 -3 -1 -6t-2.5 -6t-3 -5.5t-1.5 -6.5
q0 -2 2 -5t5 -6t6 -5t6 -2t5.5 2t4.5 4.5t3.5 5.5t1.5 5q0 4 -1.5 7.5t-3.5 7t-3.5 7t-1.5 8.5zM59 133q0 11 0.5 19.5t3.5 14t9.5 8.5t19.5 3q5 0 10 -1.5t9 -4t6.5 -6.5t2.5 -9v-61l-0.5 -0.5t-0.5 -1.5q-1 0 -2 -0.5t-2 -0.5q-3 0 -4 2t-1.5 5l-1 6t-2.5 3h-8.5t-6.5 0.5
l-6 1t-8 0.5h-1l-1 -0.5t-2 -1.5q0 -2 -0.5 -4.5t-1 -4.5t-2 -3t-4.5 -1h-3t-1 3q-1 5 -1.5 9t-0.5 8v8v9zM73 153v-2v-2l2 -1h33l1 1v1.5t-0.5 3.5t-1.5 4t-1 3q-1 2 -3.5 3.5t-6 1.5h-6.5h-5q-12 0 -12 -13zM73 130v-3.5v-3.5q2 -3 6.5 -4t9.5 -1h10h9v22q-5 0 -9.5 -1
t-9.5 -1q-4 0 -7 1t-6 1q-2 0 -2.5 -2.5t-0.5 -5v-2.5zM67 42q0 2 1 7t2 10.5t2.5 9.5t2.5 5q4 4 9 5t11 1.5t11.5 0t10.5 -0.5q13 0 24 -1t19 -5.5t13 -13t5 -23.5q0 -3 -2 -4t-4 -1h-3.5t-3.5 1q0 2 -0.5 7.5t-2 11t-3 9.5t-4.5 4q-1 0 -2.5 -1.5t-3 -4t-3 -4.5t-2.5 -3
q-4 -3 -8 -4.5t-6 -5.5q-3 -2 -2.5 -4t0.5 -5q0 -4 1 -8t1 -8q0 -1 -1 -4.5t-3 -3.5h-10v5.5v7.5t-0.5 7.5t-0.5 5.5t-1 4.5t-2 4.5q-2 1 -5 4t-6.5 6t-7.5 5t-8 2q-3 0 -3 -1t-1 -5v-3t-0.5 -4.5t-0.5 -5v-2.5q-1 -3 -3.5 -2.5t-3.5 0.5h-4.5t-1.5 4zM97 70v-1v-1
q0 -2 3 -5t7.5 -5.5t9 -4.5t7.5 -2q2 0 4.5 1.5t5 3.5t5 4.5l3.5 3.5v1v1q0 2 -0.5 3t-2.5 2h-6q-9 0 -17 -0.5t-19 -0.5z" />
</svg>
