<?xml version="1.0" standalone="no"?>
<!DOCTYPE svg PUBLIC "-//W3C//DTD SVG 1.1//EN" "http://www.w3.org/Graphics/SVG/1.1/DTD/svg11.dtd" >
<svg xmlns="http://www.w3.org/2000/svg" xmlns:xlink="http://www.w3.org/1999/xlink" version="1.1" viewBox="-10 0 266 256">
   <path fill="currentColor"
d="M66 250q1 1 2 1h2q4 0 5.5 -3.5t2 -8.5t0.5 -11q0 -4 1 -7q0 -1 1.5 -1.5t3.5 -0.5h4t3 -1q2 -1 3.5 -2.5t3 -2.5t3.5 -2t4 -1v25q0 1 2.5 2.5t5 2t4.5 1t3 0.5h11h11q1 0 2.5 -0.5t4 -1.5t4 -2t1.5 -2v-27l2 -3q5 2 9.5 3t9.5 3q0 1 0.5 5t0.5 8.5t0.5 8t0.5 5.5
t-0.5 3.5t-0.5 2.5t0.5 2.5t1.5 2.5q1 0 2 0.5t2 0.5q3 -1 4.5 -4.5t1.5 -6.5q0 -13 -0.5 -27t-2.5 -27q-3 -5 -9.5 -7.5t-13.5 -3t-14 -0.5t-12 -1q-3 -1 -3.5 -2.5t-0.5 -3.5l0.5 -1.5t0.5 -3t1 -2.5t2 -1h49q2 0 3.5 -1t1.5 -3q0 -1 -0.5 -2t-1.5 -1h-51q-1 0 -1.5 -1
l-0.5 -1q0 -1 0.5 -2l0.5 -1l-0.5 -1t0 -2.5t0.5 -2t1 -0.5h38l3 -4q-2 -4 -2.5 -4.5t-3.5 -0.5q-6 0 -12.5 1t-13.5 1h-9q-1 -2 -1 -3v-3q0 -1 0.5 -3.5t2.5 -2.5h31l1 -0.5t1 -1.5q2 -6 5 -7.5t5.5 -1t4 0t1.5 -4.5q0 -3 -3 -5t-7 -2.5t-8.5 -1t-6.5 -0.5q-1 -1 -3 -1.5
t-4 -1.5t-4.5 -2t-3.5 -2q-1 0 -1 -0.5v-1.5q0 -3 2.5 -4t6 -1.5t8 -0.5t8 -0.5t6 -2.5t2.5 -5q0 -2 -6 -4t-12.5 -3.5t-12.5 -4.5t-6 -7v-1.5t1 -0.5l30 -3q4 -1 5 -3.5t3 -5.5q0 -1 0.5 -3.5t1.5 -5t1.5 -5t0.5 -3.5q2 -3 0 -3.5t-4 -0.5q-4 0 -5.5 2.5t-2 6t-1.5 7.5
t-4 6q-4 1 -11 2t-13 1h-3t-1 -3v-27q0 -2 -1.5 -4t-3.5 -2t-5 1.5t-3 3.5v24q0 2 -1.5 4.5t-4.5 2.5h-7t-8 -0.5t-7 -2.5t-4 -6q0 -4 0.5 -8t0 -7t-2.5 -5.5t-7 -2.5q-3 0 -3.5 2t-0.5 4q0 3 0.5 8.5t2 10.5t4.5 9t9 4h29l1 2t0 3q-2 4 -7 6.5l-10 5t-9 5t-4 6.5q0 2 1.5 3
t3.5 1t3.5 0.5t1.5 2.5t-3.5 4t-8.5 5t-9.5 5.5t-5.5 5.5q-2 2 -3.5 9t-2.5 15.5t-1.5 16.5t-0.5 11v4t0.5 4.5t2 4t3.5 1.5q1 0 2.5 -1.5t2.5 -4t1.5 -4.5l0.5 -2q1 0 4.5 -0.5t7.5 -0.5t8 -0.5t5 -0.5h4h2q1 0 2 0.5t2 0.5t1 1v12l-3 3l-38 4q-1 1 -3.5 4t-4.5 6
q-3 3 -4.5 10t-2 15t-1 15.5t-0.5 13.5v6zM114 223h30l1 6v1q0 2 -2 2.5t-4.5 1t-5 0.5h-3.5q-4 0 -7 -0.5t-5 -1t-3 -3t-1 -6.5zM129 193h1q3 0 6 1t6 2.5t4.5 4t1.5 4.5q0 6 -4.5 8t-11 2.5t-12.5 0.5h-9q0 -5 1.5 -8t4 -5.5t6 -4.5t6.5 -5zM116 182h6q1 1 1 2v2t-2.5 4
t-7 6t-9.5 6t-10 5.5t-9 4t-5 1.5v-3v-4.5v-5v-3.5q1 -4 5 -7t9.5 -4.5t11.5 -2.5t10 -1zM136 185v-1q0 -1 2.5 -1.5t3.5 -0.5h1h1q1 0 5.5 0.5l9 1l9 1t6.5 0.5q0 1 0.5 2.5t1 3.5t1 3.5t0.5 2.5v0.5v0.5q0 2 -1 3l-2 2q-4 -1 -10 -3t-12.5 -4.5t-11 -5.5t-4.5 -5zM85 148
v-1l0.5 -2t1.5 -2q2 0 6.5 -0.5t9.5 -0.5t9 -0.5t6 -0.5h2h2l2 0.5t2 1.5v4q0 2 -0.5 4t-3.5 2h-34q-1 0 -2 -2l-1 -2v-1zM88 134q-1 -1 -1 -2v-2q0 -2 1 -4.5t3 -2.5h33q2 0 3 1.5t1 3.5q0 4 -4 6h-2.5t-5 0.5t-4.5 0.5h-3l-0.5 0.5t-1.5 0.5l-0.5 -0.5t-1.5 -0.5h-3
t-5 -0.5t-5.5 -0.5h-3.5zM91 110q0 -3 4 -6t9.5 -5.5t10.5 -4t7 -1.5h2q1 0 2.5 0.5t1.5 1.5v17l-2 2l-3.5 0.5t-5.5 0.5q-1 0 -3 -0.5t-4 -0.5h-4h-2h-1.5h-4t-4.5 -0.5t-3 -2.5v0v-1zM137 109q0 -3 1 -6.5t6 -3.5q2 0 6 1t7.5 3l7 4t5.5 3v0q0 2 -2.5 3t-6.5 1.5t-7.5 0.5
h-5.5q-1 0 -4.5 -0.5t-4.5 -0.5q-2 0 -2 -2v-3zM115 77q0 -2 2 -3.5t4 -2.5t4.5 -1h3.5v13l-1 0.5t-2 0.5t-3 -0.5t-4 -1.5t-3 -2.5t-1 -2.5zM145 70q2 0 4.5 1.5t2.5 3.5l-0.5 0.5l-1.5 1.5q-1 0 -4.5 1t-4.5 1h-1q0 -2 1.5 -5.5t3.5 -3.5z" />
</svg>
