<?xml version="1.0" standalone="no"?>
<!DOCTYPE svg PUBLIC "-//W3C//DTD SVG 1.1//EN" "http://www.w3.org/Graphics/SVG/1.1/DTD/svg11.dtd" >
<svg xmlns="http://www.w3.org/2000/svg" xmlns:xlink="http://www.w3.org/1999/xlink" version="1.1" viewBox="-10 0 266 256">
   <path fill="currentColor"
d="M44 203q1 4 2 8.5t3 8.5t5 7t8 4q1 1 4.5 1.5l7 1t7.5 1.5t6 2h40q2 0 3 -1t1 -3t-1 -2.5l-3 -1.5q-1 0 -4 -0.5t-6 -0.5t-6 -0.5t-4 -0.5v-2v-4.5v-3.5v-3q0 -12 1.5 -23.5t5.5 -22.5q1 -1 3.5 -4.5l5 -7t5 -6.5t3.5 -4q2 -4 1.5 -7t-0.5 -7q0 -10 -3.5 -17.5t-8 -13.5
t-8 -11.5t-3.5 -11.5v-43q0 -3 2.5 -3.5t6.5 -0.5q3 0 6 -1t3 -5q0 -1 -0.5 -2t-1.5 -2h-3h-3h-4h-2h-16t-20.5 2t-19 6t-11.5 13q-2 5 -2 10t-2 10v47v24v23t0.5 22.5t1.5 24.5zM136 206q0 9 3.5 15t9.5 9.5t12.5 5.5t12.5 2t13 -1.5t12 -5t8.5 -9t3.5 -14.5v-1
q0 -7 -1.5 -15.5t-3 -17.5t-3 -17.5t-1.5 -15.5q0 -4 1 -8l2 -8t2 -8.5t1 -8.5q-7 0 -10.5 4.5t-5 10.5t-1.5 13.5v14.5t1 13t2.5 12t2 12t0.5 13v5v5q-3 4 -5.5 7t-5.5 4.5t-7 2t-9 0.5q-4 0 -8 -2t-7 -5.5t-5 -8t-2 -9.5q0 -10 4.5 -19t9.5 -17.5t9 -17t4 -19.5
q0 -10 -4 -18t-9 -16t-9.5 -16.5t-4.5 -18.5q0 -8 2.5 -14.5t7 -10.5t10.5 -6t13 -2q5 0 8.5 0.5t6 2.5t4 6t1.5 10q0 10 -4.5 16.5t-10 11t-10 6.5l-4.5 2q0 1 0.5 2.5t1.5 1.5h4q7 0 13.5 -2.5t11.5 -7.5t8 -12t3 -15q0 -15 -6.5 -24.5t-21.5 -9.5q-10 0 -16.5 0.5
t-10.5 2t-6 4t-4.5 6.5t-5 9t-7.5 12v6v5q0 13 4 21.5t9.5 16t9.5 15t4 18.5t-4 20.5t-9.5 18.5t-9.5 18.5t-4 19.5zM94 33q2 0 3.5 3.5t2 9.5t1 12.5t1 13.5t1 12.5t0.5 8.5q3 7 6 10.5l6 7t4.5 8t1.5 13.5q0 6 -2.5 11t-5.5 10t-6.5 9.5t-4.5 9.5q-1 1 -1.5 4t-0.5 4
q0 3 -0.5 9t-1.5 12.5t-1.5 13t-0.5 8.5q-1 3 -2.5 3.5t-3.5 0.5t-3.5 -1t-2 -3t-0.5 -5v-5v-173q0 -2 1 -3t3 -2t3.5 -1.5t2.5 -0.5zM53 123v-11v-14v-12v-6t0.5 -4t0.5 -7t0.5 -7.5t0.5 -5.5q0 -3 1 -6.5t2.5 -6t3.5 -4.5t6 -2q1 0 2 0.5t1 2.5l0.5 2.5t0.5 5t0.5 5
t0.5 3.5v65q0 1 0.5 4t1.5 4v1v1q0 1 -0.5 3t-1 4.5t-0.5 4.5v3v71q0 1 -2.5 1.5t-3.5 0.5q-3 0 -5 -3.5t-3.5 -8.5t-2.5 -10t-1 -6q-1 -8 -1.5 -17t-0.5 -17.5v-17v-16.5z" />
</svg>
