<?xml version="1.0" standalone="no"?>
<!DOCTYPE svg PUBLIC "-//W3C//DTD SVG 1.1//EN" "http://www.w3.org/Graphics/SVG/1.1/DTD/svg11.dtd" >
<svg xmlns="http://www.w3.org/2000/svg" xmlns:xlink="http://www.w3.org/1999/xlink" version="1.1" viewBox="-10 0 266 256">
   <path fill="currentColor"
d="M91 241q0 2 0.5 3.5t2.5 1.5q3 0 5 -3t3.5 -8t3 -10.5t2 -10.5t1 -9l0.5 -4q0 -1 0.5 -3t1 -4.5t1 -4.5t0.5 -3q1 -1 1 -5.5t0.5 -10t1 -10t0.5 -7.5l0.5 -2t0.5 -4t-0.5 -3.5t-0.5 -2.5q2 -2 4.5 -3t5.5 -1.5t6 -0.5h5h5h4l1 3q0 3 0.5 8t1 11t1.5 13t1.5 13t1 11t0.5 7
q0 1 1 4.5t1.5 8t1.5 8t1 4.5v5.5t1 6.5t3 5t5 2t4 -1.5t1 -4.5q0 -7 -2.5 -13.5t-3.5 -13.5q-4 -17 -7.5 -35.5t-3.5 -35.5v-1l0.5 -2t0.5 -3q1 0 4.5 -0.5t5.5 -0.5h42q2 -1 3.5 -2.5t1.5 -3.5t-2 -3.5t-4 -1.5q-5 0 -10 1t-10 1h-4q-4 0 -4 -1l-3 -3v-31q0 -3 -3 -4.5
t-7 -2l-8 -1t-5 -0.5q0 -2 -2 -1.5t-3 0.5q-2 0 -3 -2t-1 -7t2.5 -7.5t6 -4t7.5 -2.5t7 -1h4.5h6.5h7.5h4.5q3 -1 4.5 -3t2.5 -4.5t1 -5.5v-6v-7t-1 -7.5t-3 -6t-6 -3.5h-3q-2 0 -4.5 -0.5t-4.5 -0.5h-3q-9 0 -16 0.5t-16 1.5q-1 0 -3 1.5t-2 2.5q0 3 3 3.5t7 0.5h7.5h4.5
v22q0 3 -4.5 5t-9 5t-8.5 8t-4 14q0 6 2 8.5t5 3.5t7 1h8t7.5 1.5t5.5 4.5v4v4v7.5t-0.5 6.5t-2.5 5.5t-6 2.5h-4h-6h-6h-4t-4.5 0.5t-7.5 0.5t-8 0.5t-5 0.5h-2q-1 0 -2.5 -0.5t-1.5 -1.5v-26q0 -5 -2.5 -6.5t-6.5 -2t-9 -0.5t-9 -1t-6.5 -3.5t-2.5 -8.5q0 -7 4.5 -10.5
t11.5 -4.5t13.5 -1.5t9.5 -0.5q2 -1 5 -1.5t4 -0.5q4 -4 4.5 -9.5t0.5 -10.5q0 -3 -1 -6.5t-3 -6.5t-4.5 -5t-5.5 -2h-55q-1 0 -1.5 1l-0.5 1q0 1 0.5 2.5t1.5 1.5h22l1 3l0.5 2t0.5 3q0 2 -1 5.5t-2 7.5t-2 7t-2 4q-3 4 -5 6.5t-3.5 4.5t-2 5t-0.5 8v8q3 4 6.5 6t8 3t9.5 1
t10 1q2 1 3 3t1 4t0.5 4.5t0.5 4.5q0 3 -0.5 5.5t-3.5 4.5q-4 2 -10 3t-12 1t-12 -0.5t-10 -0.5l-4 5v1v0q0 1 0.5 2l0.5 1q1 1 5 1h5q10 0 20 -2t20 -2h7q1 0 1 1t0.5 2t0 2t-0.5 2v2v2l-7 63q-1 0 -1.5 2.5t-0.5 3.5v1.5t-0.5 3.5l-1 4l-0.5 2q-1 4 -2.5 7t-1.5 7zM102 27
q3 0 5 1.5t3.5 3.5t1.5 5v6v6q-2 2 -4.5 3t-6 1.5t-6.5 0.5h-5v-25l1.5 -0.5t4.5 -1t4 -0.5h2zM166 44q0 -4 0.5 -9.5t3.5 -8.5q1 0 3 -0.5t4 -0.5t3.5 -0.5t2.5 -0.5h1q1 0 2 1.5t1 3.5v4v3q0 8 -2.5 10.5t-10.5 2.5h-5q-2 -1 -2.5 -2t-0.5 -3z" />
</svg>
