<?xml version="1.0" standalone="no"?>
<!DOCTYPE svg PUBLIC "-//W3C//DTD SVG 1.1//EN" "http://www.w3.org/Graphics/SVG/1.1/DTD/svg11.dtd" >
<svg xmlns="http://www.w3.org/2000/svg" xmlns:xlink="http://www.w3.org/1999/xlink" version="1.1" viewBox="-10 0 266 256">
   <path fill="currentColor"
d="M124 247q0 1 1.5 1.5l1.5 0.5q3 0 4 -1.5t2 -3.5t1.5 -4.5t0.5 -3.5v-147h27q4 0 6 4t3.5 9t2.5 10t1 7q0 1 0.5 6.5t1 11.5l1 12t0.5 9v1v2v7t-0.5 12t-0.5 14.5t-0.5 14.5t-0.5 12v7v1v0v2.5t0.5 2.5l1 2t1.5 2q3 -1 4.5 -2.5t2.5 -4.5v-7t0.5 -11t0.5 -11v-7v-6
q0 -15 -0.5 -29t-2.5 -28q-2 -15 -3 -25.5t-5.5 -16.5t-13 -8t-25.5 -1l-2 -2v-5v-6q0 -2 0.5 -3.5t0.5 -3.5t0.5 -3l0.5 -1l4 -2h59l8 -2v-0.5v-0.5v-3.5t-2 -1.5h-2h-4h-4h-2q-14 0 -26.5 1t-25.5 1h-5q-2 -1 -2 -2v-2q0 -5 1 -10t1 -10v-9q-1 -1 -2 -3t-3 -1q-1 0 -3 2
l-2 2v28l-2 3l-1 0.5t-3 0.5t-4.5 0.5t-3.5 0.5h-6h-10h-10h-6h-5.5t-9.5 0.5t-9.5 0.5h-6.5q-1 0 -1.5 1l-0.5 1v3.5v2.5h2h3h4h2h7t11.5 -0.5t14 -1t14.5 -0.5t12 -0.5t6 -0.5h1q2 0 3 1t1 3v3q0 2 -0.5 4.5t-0.5 5.5t-0.5 5l-0.5 2l-3 2q-15 -1 -24.5 2t-14.5 8.5t-7 13
t-2.5 16.5t0 19.5t-0.5 21.5q0 1 -0.5 3.5t-1.5 3.5q1 9 0.5 16.5l-1 15t-0.5 15v15.5v4t2 3q3 0 4.5 -2t2 -5l1 -6t1.5 -5v-7v-11v-11.5v-7.5q0 -3 0.5 -8.5t0.5 -13t1 -15.5t1.5 -15t0.5 -13t1 -9q0 -6 2.5 -10t7 -6.5t10 -3.5t11.5 -1h3t2 1l3 3v2.5v4.5q0 10 -1 20.5
t-1 21.5v2q0 2 0.5 6.5t0.5 11t0.5 14t0.5 14v11v6.5v3q0 9 -1.5 17.5t-1.5 16.5v2v2z" />
</svg>
