<?xml version="1.0" standalone="no"?>
<!DOCTYPE svg PUBLIC "-//W3C//DTD SVG 1.1//EN" "http://www.w3.org/Graphics/SVG/1.1/DTD/svg11.dtd" >
<svg xmlns="http://www.w3.org/2000/svg" xmlns:xlink="http://www.w3.org/1999/xlink" version="1.1" viewBox="-10 0 266 256">
   <path fill="currentColor"
d="M115 245q0 2 1 3.5t3 1.5q4 0 5.5 -2t2 -5t0.5 -6v-6t0.5 -11t1 -18t0.5 -21t0.5 -21t0.5 -18t1 -11q0 -2 2 -2h3q5 0 7.5 2t6.5 6q-1 12 0 23.5t1 23.5q0 7 -1.5 13.5t-1.5 13.5q0 3 3 3t5.5 -3.5t2.5 -5.5q0 -11 1 -20t1 -20v-3v-3l-2 -3l-2 -3v-2v-4v-3v-2
q-1 -11 -5.5 -14.5t-9 -4.5t-8 -0.5t-3.5 -2.5v-19l1 -3h2h2q8 0 15 0.5t14 0.5q2 1 3 5t1.5 9.5t1 10.5t1.5 7v52l1 1l2 2h1q1 0 2 -1t2 -3t1 -3.5v-2.5v-48q0 -3 -1 -9l-2 -12t-3.5 -11t-6.5 -5h-36v-18q0 -1 2 -2.5t3 -2.5t4 -3.5t6.5 -5t6 -5l2.5 -2.5q7 0 13.5 6
t12.5 13t11 13t7 6t3 -2t1 -4q0 -9 -5.5 -15t-13.5 -10.5t-15.5 -9t-12.5 -9.5q0 -2 -1 -4.5t-2 -6t-1.5 -6.5t-1.5 -4q0 -2 -2.5 -5t-5.5 -3h-44q-1 1 -3 1.5l-2 0.5h-4.5t-7 0.5t-6.5 1t-4 0.5l-0.5 0.5t-0.5 1.5q0 2 0.5 3t3.5 2q2 0 5.5 -0.5t8 -1t8 -0.5t5.5 -1
q3 0 7 -0.5t7 -0.5h8t9.5 1t8 3.5t4.5 6.5q1 1 0 4.5t-1 4.5q-9 0 -17.5 -1.5t-17.5 -1.5h-5.5t-10.5 0.5t-13 1t-13 2t-9 3t-2.5 4t1.5 3t3 0.5h3l1.5 -0.5l3 -1l3 -1l1.5 -0.5q1 0 4.5 -0.5t7 -0.5t7 -0.5l3.5 -0.5q1 0 3 -0.5l2 -0.5h15h15.5t15.5 1q2 1 2 2v2
q0 5 -5 7.5t-12 4.5t-16 3t-17 1.5t-14.5 1t-8.5 0.5l-1.5 1.5t-0.5 1.5q0 2 0.5 2.5l1.5 1.5h13q7 0 15 -2t16 -2q1 0 3 1.5t2 3.5l-1 14l-4 3q-5 1 -13 1.5t-16 2t-14 5.5t-7 12v3v4v4v3q0 1 -1 2l-1 1q1 15 -0.5 28t-1.5 28q6 0 8.5 -6t3 -14t0 -16.5t0.5 -12.5
q0 -2 0.5 -6t1.5 -8t1.5 -8t0.5 -5l4 -4t4 -3q2 0 6 -0.5t8.5 -1.5t8.5 -1.5t6 -0.5h1h1q2 0 2.5 0.5t0.5 2.5v3q0 2 -0.5 5t-0.5 6t-0.5 4.5l-0.5 1.5l-21 7q-3 1 -5 5t-3 10t-1.5 12.5t-0.5 13v11.5t-1 7q0 7 -1.5 14t-1.5 13q0 5 4 5h1.5h1.5l4 -10v-16v-18t1 -18t2 -17
q2 -1 3.5 -3t4 -4t5 -3t4.5 -1q3 0 3.5 1t0.5 4t-1 5t-1 5t1 5t1 4q0 12 -1 23.5t-2.5 23t-2 22.5t-0.5 23z" />
</svg>
