<?xml version="1.0" standalone="no"?>
<!DOCTYPE svg PUBLIC "-//W3C//DTD SVG 1.1//EN" "http://www.w3.org/Graphics/SVG/1.1/DTD/svg11.dtd" >
<svg xmlns="http://www.w3.org/2000/svg" xmlns:xlink="http://www.w3.org/1999/xlink" version="1.1" viewBox="-10 0 266 256">
   <path fill="currentColor"
d="M128 246q0 2 0.5 3.5t3.5 1.5q2 0 5 -3t3 -5v-87q5 0 7.5 -0.5t4 0.5t2 3.5t2.5 8.5q0 1 0.5 3.5l0.5 2.5v53l1.5 1.5t2.5 1.5h1q2 0 4 -2t3 -5t1.5 -6.5t0.5 -4.5l-4 -41q-1 -2 -2 -5t-2 -5.5t-2.5 -5t-4.5 -4.5q-2 -1 -5 -1.5t-6.5 -1.5t-6 -2.5t-2.5 -4.5q0 -4 2.5 -6
t5.5 -3t6.5 -2t5.5 -3q3 -3 4.5 -6.5t2.5 -7.5t1 -8.5v-7.5v-2v-4v-3.5v-2.5q-1 -2 -2 -2.5t-3 -0.5q-3 0 -4 1t-1.5 3t-0.5 4v4q-6 1 -10 1t-7.5 0.5t-6.5 0.5h-8h-9q-2 -1 -2.5 -2.5l-1 -3t-1.5 -3t-3 -1.5q-3 0 -3.5 2.5t-0.5 5.5v2q0 1 0.5 4t0.5 6.5t0.5 7t0.5 4.5
q3 8 8.5 12t15.5 2q2 1 2 3.5v4.5v1v2t-0.5 2t-1.5 1q-6 1 -13 2.5t-11 6.5q-2 2 -3 7.5t-2 12.5t-2 15.5t-1.5 16t-1 13t-0.5 6.5t1 2.5t3 1.5t3.5 -1t2 -2.5t1 -3.5t0.5 -4v-4v-7v-7v-5q0 -2 1 -6.5t1.5 -10t1.5 -10t1 -6.5q3 0 4.5 -1.5t2.5 -3.5t3 -3t5 -1q2 0 3.5 0.5
t1.5 2.5v33q1 2 1.5 3.5t0.5 3.5q0 12 -1 24.5t-1 24.5zM52 140q0 4 4 4q3 0 6.5 -4t7 -11l7.5 -15t7 -16t5 -14.5t3 -9.5q11 1 23 0.5t23 -3.5q3 -1 6.5 -3t6.5 -4l6 -4t5 -2t3.5 1.5t2.5 3t1.5 3.5t1.5 3q0 1 1 3t1.5 4.5t1 4.5t1 2.5t1.5 2.5l2.5 5t3 5t1.5 3
q1 2 1.5 8.5t1.5 14t2.5 13t4.5 5.5q2 0 3 -2t1.5 -4t0.5 -5v-3q0 -10 -4.5 -21t-8.5 -20q-4 -7 -7.5 -14.5t-6.5 -15.5q-1 -3 -3.5 -5t-2.5 -6t0.5 -7.5t0.5 -7.5v-7l-4 -4t-6 -4q-12 -1 -24 -1h-25h-27q-3 0 -6 1t-3 4v1.5t2 1.5h19q2 0 2 2v2v3v4t-1 3t-2 1h-30
q-1 0 -3 2t-2 3q0 5 2.5 5.5t6.5 0.5t8 -0.5t8 -0.5h3t2 1v15q0 1 -2 1q-1 1 -2.5 2l-1.5 1h-17q-2 0 -3 1.5t-1 3.5t1.5 3.5t4.5 1.5l0.5 -0.5l0.5 -0.5h2.5h3.5t3.5 -0.5t2.5 -0.5v0h1h0.5h0.5l0.5 0.5l0.5 0.5v0.5v0.5q0 4 -2.5 11.5t-6.5 15t-8 14.5t-6 10t-4.5 6.5
t-2.5 6.5zM115 122q-5 -3 -5 -9q0 -2 0.5 -4t2.5 -4q8 0 17.5 -0.5t17.5 -0.5q1 0 3.5 -0.5t2.5 1.5q0 6 -1 10t-3.5 6t-7 2.5t-11.5 0.5h-1q-1 0 -3 -0.5t-4.5 -0.5t-5 -0.5zM97 63v-4.5t0.5 -5.5t1.5 -5.5t3 -3.5h11h9.5t13 0.5t11 2t4.5 5.5q0 5 -6 8t-14 4.5t-15.5 2.5
t-10.5 1q-2 0 -5 -1t-3 -4zM103 34v-3t0.5 -4t1.5 -3.5t3 -2.5h10q10 0 19.5 0.5t18.5 2.5q2 2 2 5v5l-0.5 2l-0.5 2l-1 2h-2h-3t-5 -0.5t-9.5 -1l-11 -1t-10.5 -1t-8.5 -1t-3.5 -1.5z" />
</svg>
