<?xml version="1.0" standalone="no"?>
<!DOCTYPE svg PUBLIC "-//W3C//DTD SVG 1.1//EN" "http://www.w3.org/Graphics/SVG/1.1/DTD/svg11.dtd" >
<svg xmlns="http://www.w3.org/2000/svg" xmlns:xlink="http://www.w3.org/1999/xlink" version="1.1" viewBox="-10 0 266 256">
   <path fill="currentColor"
d="M72 242q0 3 0.5 5t4.5 2q5 0 7.5 -3.5t1.5 -9.5v-44v-5q0 -2 -0.5 -8t-0.5 -12v-12v-8q0 -24 0.5 -49.5t4.5 -49.5h1h1q5 0 6.5 5t2 12t0.5 13t1 9v76q-1 5 -1 8.5v8.5v5q0 1 1 2.5t2 1.5h0.5h0.5q1 0 2 -1.5t1.5 -3.5t0.5 -3v-3v-6.5v-10t0.5 -12.5t0.5 -12.5v-10v-5.5
v-20v-11v-10v-10.5t-1 -12.5l-1 -1t-1 -2l-1 -1.5t-1.5 -3.5t-1.5 -3.5t-1 -2.5l-1 -0.5t-2 -1.5l-3 -0.5l-3 -0.5q-2 -2 -3 -6.5t-2 -9.5t-2.5 -9t-3.5 -4q-3 0 -4 2.5t-1 5.5t1.5 6t1.5 7t-2.5 5t-5.5 1.5l-6 1t-4 3.5q-4 12 -6 25t-3 26t-1 25.5t-1 25.5q0 1 -0.5 5.5
t-1 9.5t-1 9t-0.5 5v5v5q1 0 2 0.5l1 0.5h1q3 0 4.5 -4.5t2.5 -12t1.5 -16.5t1 -17.5t0.5 -14.5v-9q1 -3 1 -9t1 -13t1 -13.5t1 -8.5q0 -6 2 -10.5t6 -10.5h0.5h0.5q1 0 2 0.5t2 1.5v7q0 31 -1.5 61.5t-3.5 61.5v4q0 16 -1 30.5t-1 29.5zM180 182q3 0 5 5t3.5 11.5t3 14.5
t3 15t3.5 11.5t6 4.5q2 0 3 -1.5t1 -4.5q0 -7 -2.5 -14.5l-5 -15l-5 -15t-2.5 -15.5q0 -2 1.5 -4.5t3 -5.5t2.5 -6.5t1 -8.5t-2 -8t-5.5 -4l-7 -2t-7.5 -4h-6t-9 -0.5t-9.5 -0.5h-6.5h-11h-11q-2 -1 -2.5 0.5t-0.5 2.5q0 2 1.5 3t3.5 1.5t4 0.5h3h1l2 -0.5t3.5 -0.5t3 -0.5
t2.5 -0.5h12.5t15 2t12.5 6t5 12q0 2 -1.5 3t-3.5 1h-2l-1 -0.5t-2 -1.5t-2 -1.5l-1 -0.5q-6 -2 -13.5 -3.5t-15 -2l-15 -1t-13.5 -0.5q-4 0 -4 4q0 1 0.5 2.5t1.5 1.5q2 1 7 1t11 0.5t11.5 1t7.5 0.5h4t6 0.5t5 2t2 4.5t-4.5 4.5t-11 1.5h-14.5h-15t-11.5 1t-4.5 4q0 1 2 2
t3 1h3t4.5 0.5t4.5 0.5h3q12 0 23.5 -2t23.5 -2zM126 102q0 7 5 12.5t11 6.5h4h7h6h5h14t15 -1.5t11.5 -6t4.5 -13.5v-2q-4 -5 -7.5 -7.5t-9.5 -3.5h-20q-5 0 -12.5 -0.5t-15 0.5t-13 4.5t-5.5 10.5zM135 102q0 -7 8 -7q3 0 5.5 2t4 5t2 6.5t0.5 6.5q-4 0 -7.5 -0.5t-6 -2
t-4.5 -3.5t-2 -7zM157 93q10 0 15.5 6.5t5.5 15.5q-10 0 -15.5 -5.5t-5.5 -16.5zM179 97q0 -2 3 -3t5 -1q5 0 7.5 3t2.5 8q0 2 -1 4.5t-3 2.5t-4 -1.5t-4.5 -4t-4 -4.5t-1.5 -4zM125 79q0 1 1 1h2q2 0 2.5 -0.5t0.5 -2.5q1 -3 1.5 -7.5t1 -8.5t0.5 -8v-7q2 -4 6.5 -6.5
t10 -3t11 -0.5h9.5h16q3 1 5.5 3t4 4.5t2 6t1.5 6.5v4v7v6v4q-1 2 0.5 3t3.5 1q3 0 4 -2.5t1 -5.5v-12t-1 -14t-4 -12.5t-9 -5.5q-2 -1 -7.5 -1t-11 -0.5t-10.5 -0.5h-6h-2t-3 0.5t-3.5 0.5t-3.5 1h-1t-2.5 0.5t-2.5 0.5h-1q-8 1 -11.5 3.5t-4.5 6.5t-1 9.5v12.5v3t0.5 5
t0.5 5v4zM142 66q0 1 0.5 1.5l1.5 1.5h3h6h6h4h14t15 -2v-1q0 -1 -0.5 -2t-1.5 -1h-3q-1 0 -3.5 -0.5t-4.5 -0.5h-2h-10q-3 0 -7 0.5t-8 0.5t-10 1v0.5v1.5zM142 48q0 1 0.5 2t1.5 1h3h5.5h4.5h4h4h5.5h4.5h2h2.5h3.5t4 -0.5t3 -2.5v-1v-1l-0.5 -0.5l-0.5 -0.5
q-2 0 -4.5 -0.5t-5.5 -0.5h-5h-4h-14t-14 2v1.5v0.5z" />
</svg>
