<?xml version="1.0" standalone="no"?>
<!DOCTYPE svg PUBLIC "-//W3C//DTD SVG 1.1//EN" "http://www.w3.org/Graphics/SVG/1.1/DTD/svg11.dtd" >
<svg xmlns="http://www.w3.org/2000/svg" xmlns:xlink="http://www.w3.org/1999/xlink" version="1.1" viewBox="-10 0 266 256">
   <path fill="currentColor"
d="M154 180q-1 2 -3 5.5t-3 7l-2 7t-1 5.5v41q0 1 1.5 3t2.5 2h1q0 -1 1 -2t2 -1q0 -1 0.5 -3.5t0.5 -5v-5v-3.5q1 -3 1 -10t0.5 -14t2 -13t4.5 -8h1q3 0 4.5 1l3 2t2.5 2t3 2q2 0 5.5 1t7.5 2t7.5 2t5.5 1q3 0 4.5 -2t1.5 -4q0 -3 -6 -5.5t-13 -4t-13 -3t-6 -5.5
q0 -3 2.5 -5.5t5.5 -4.5t5.5 -4t2.5 -5q0 -2 -1.5 -3.5t-3.5 -1.5q-4 0 -7 2.5t-5.5 6t-4.5 6t-3 2.5h-5l-4 -4l-4 -4q-1 0 -2.5 -1.5t-3.5 -3t-3.5 -2.5t-1.5 -3v0v0q0 -1 1.5 -2l1.5 -1q17 0 33 -1.5t33 -2.5l0.5 -0.5l0.5 -0.5q1 -1 1 -3.5v-3.5q-19 0 -38 2t-39 2h-2h-4
t-3.5 -1t-1.5 -2q0 -4 4 -5t8.5 -2.5t8.5 -3.5t4 -8q-3 0 -7 1t-7.5 2.5t-7 2.5t-7.5 1q-1 0 -3 -0.5l-2 -0.5q-1 0 -2 -1t-2.5 -2t-2.5 -2.5l-1 -1.5v-0.5v-0.5l1.5 -2.5t3.5 -5.5t3.5 -6.5t1.5 -6.5q0 -7 -5 -9.5t-11 -3.5v-2.5v-2.5q0 -4 2.5 -6.5t6 -5t6 -5.5t2.5 -10
v-3.5v-3.5q-2 -3 -4.5 -4.5t-5 -2.5t-4.5 -2t-3 -3v-4.5t-1 -7t-3 -6t-5 -2.5q-2 0 -3 1.5t-1 3.5q0 4 1 7.5t1 7.5t-3 5.5t-7 3t-7.5 4t-3.5 9.5t3.5 10t7.5 4t7.5 3t3.5 8q0 4 -4 5t-8.5 2.5t-8.5 4.5t-4 12q0 5 3.5 7.5t8.5 4.5t10.5 2.5t8.5 0.5q1 1 3.5 3t4.5 5t4 5.5
t3 3.5l-1 3t-1 4h-56q-2 0 -2.5 2t-0.5 4q0 3 1 3.5t4 0.5q15 0 29.5 -2t29.5 -2q1 0 4 0.5t4 0.5l3 2t7 6t8.5 8t8 7.5t6 6.5zM79 242q0 2 1 4.5t4 2.5q4 0 6 -2.5t2.5 -6.5t0.5 -8v-6q0 -3 0.5 -10t1 -15t0.5 -15v-10q1 -2 3 -3t4 -1h1q3 1 5.5 3.5t2.5 6.5v29v4l1 30
q1 3 1.5 3.5t3.5 0.5q4 0 5.5 -2t2 -5t0.5 -6.5v-5.5q0 -16 -2 -30.5t-3 -29.5q-5 -2 -10 -2.5t-10 -2.5h-36q-2 0 -2 1.5v2.5q0 3 2.5 4t5.5 1.5t6.5 0t4.5 -0.5q2 1 2.5 2t0.5 3q0 16 -2.5 31.5t-2.5 31.5zM138 99q0 6 2.5 8.5t7.5 6.5h2q2 0 4 0.5t3 0.5h3q5 0 10 -0.5
t9.5 -2.5t7 -6t2.5 -10t-3.5 -8.5t-8 -4t-8 -3t-3.5 -5.5q0 -2 4 -3t8.5 -3t8 -5t3.5 -9q0 -8 -5.5 -13.5t-12.5 -8.5v-4t-1 -6t-2 -5.5t-4 -2.5q-4 0 -6 2.5t-2.5 6.5t0 7.5t0.5 6.5q-1 3 -3.5 3.5t-5.5 1t-5.5 3t-2.5 7.5q0 8 5 11.5t11 6.5v4q0 4 -2.5 6t-6 4t-6.5 5
t-3 9zM77 97q0 -3 1.5 -4.5t3.5 -2.5t4.5 -1.5t4.5 -0.5q5 0 7 1.5t2 6.5q0 6 -3.5 8.5t-9.5 2.5q-5 0 -7.5 -3t-2.5 -7zM150 97q0 -7 3.5 -8.5t11.5 -1.5q5 0 7.5 3.5t2.5 7.5q0 3 -1.5 5t-4 3t-5 1h-4.5h-4h-3q-3 -2 -3 -4.5v-5.5zM151 55q0 -5 3.5 -7.5t9.5 -2.5h5
q3 0 4.5 1t3 2.5t1.5 4.5q0 6 -4 8.5t-9 2.5t-9.5 -1.5t-4.5 -7.5zM78 53q0 -3 2 -5.5t5 -4t6.5 -2t6.5 -0.5t4 2.5t1 5.5q0 5 -2.5 9.5t-8.5 4.5q-5 0 -9.5 -2.5t-4.5 -7.5z" />
</svg>
