<?xml version="1.0" standalone="no"?>
<!DOCTYPE svg PUBLIC "-//W3C//DTD SVG 1.1//EN" "http://www.w3.org/Graphics/SVG/1.1/DTD/svg11.dtd" >
<svg xmlns="http://www.w3.org/2000/svg" xmlns:xlink="http://www.w3.org/1999/xlink" version="1.1" viewBox="-10 0 266 256">
   <path fill="currentColor"
d="M51 244q0 2 1 3.5t3 1.5q4 0 6.5 -2t4 -5.5t2 -7.5t0.5 -6t0.5 -4.5t0.5 -5.5t0.5 -5.5l0.5 -2.5v-22q0 -28 -1 -55t-1 -55q-1 -2 -1 -5v-7q0 -13 4.5 -18.5t17.5 -7.5q4 0 11 -1t14 -1.5t13 -1t7 -0.5h8h14h13h9l2 -0.5t4.5 -0.5t4 -0.5t2.5 -0.5q2 -3 2 -6
q0 -2 -0.5 -3t-2.5 -2h-3h-2q-4 0 -6.5 0.5t-5.5 1.5h-32q-1 0 -2 -2t-2 -5t-3.5 -5t-6.5 -2q-2 0 -4.5 1t-2.5 4l0.5 2l0.5 2q1 0 1 1v1q0 2 -0.5 2.5t-2.5 1.5q-4 0 -12.5 0.5t-17.5 2t-17 3t-12 4.5q-1 1 -2 3.5t-2 3.5q0 2 -0.5 5t-0.5 6.5v7v4.5v1v1v5.5t0.5 10t0.5 12
t0.5 12.5t1 10.5t0.5 5.5v1v1q-1 12 -1 26v27t-0.5 28t-1.5 27q-1 3 -2.5 5.5t-1.5 4.5zM80 193q0 2 1.5 3t3 1.5t3.5 1t4 0.5t5.5 -0.5t7.5 -1t7 -1t5 -0.5q20 -1 40 -1.5t41 -1.5q2 0 4.5 -1t2.5 -4q0 -2 -2.5 -5.5t-5.5 -3.5h-1v0q-1 0 -4 0.5t-6 0.5t-6 0.5t-4 0.5h-2
q-1 0 -3 -4.5t-4.5 -11.5t-4.5 -15t-3.5 -15.5t-2.5 -13t-1 -7.5v-5l3 -3h9t10.5 -0.5t10.5 -1.5t8 -3v-1.5v-1.5q0 -3 -0.5 -4t-2.5 -1.5t-3 -0.5h-4q-8 0 -15 1.5t-15 1.5h-3h-4q-2 -7 -2 -12v-12v-6l3 -2h32q2 0 4 -2t2 -4q0 -3 -3 -5h-20q-14 0 -27 1.5t-26 3.5
q-1 0 -3 0.5l-4 1t-3.5 1l-1.5 0.5q-2 1 -4 3.5t-3.5 5.5t-2.5 6t-2 5v38q2 2 2.5 6.5t0.5 10t1.5 11t6.5 7.5q1 1 3 1.5t4 1.5t4 1.5l2 0.5h37q2 0 3.5 2t2.5 5t1 5.5v3.5q0 5 -3 7t-7.5 3t-9.5 1h-9h-4h-9h-8h-4t-3.5 0.5t-5 0.5t-5 0.5t-3.5 0.5q-2 1 -3.5 2.5t-1.5 3.5z
M100 122v-4v-4q9 -4 19.5 -5.5t20.5 -1.5l0.5 0.5l0.5 0.5q3 3 4 7.5t1.5 9.5t0.5 9.5v7.5v3t-1 2h-35q-4 0 -6 -3t-3 -7.5t-1.5 -8.5t-0.5 -6zM99 100v-5q0 -10 1.5 -15.5t5.5 -8.5t10 -4t14 -1h3t2 2q1 6 2 11.5t1 12.5q0 3 -1 4.5t-5 1.5q-1 0 -4.5 0.5t-8 1t-8.5 1
t-6 0.5h-3h-2t-1 -1z" />
</svg>
