<?xml version="1.0" standalone="no"?>
<!DOCTYPE svg PUBLIC "-//W3C//DTD SVG 1.1//EN" "http://www.w3.org/Graphics/SVG/1.1/DTD/svg11.dtd" >
<svg xmlns="http://www.w3.org/2000/svg" xmlns:xlink="http://www.w3.org/1999/xlink" version="1.1" viewBox="-10 0 266 256">
   <path fill="currentColor"
d="M121 247q0 2 1.5 3t3.5 1q3 0 4.5 -2.5t2.5 -5.5v-10.5v-15.5v-15.5v-10.5v-3.5t0.5 -7t0.5 -6.5v-4v-4.5v-3v-3t1.5 -3.5t2.5 -1.5t4 0.5q1 0 3.5 -0.5t5.5 -0.5t5 -0.5t3 -0.5l3.5 -0.5l3.5 -0.5h1h1h3t1 1q1 5 1.5 12t0.5 14t0.5 13.5t2.5 9.5v40q0 3 1 4t3 1t4 -0.5
t3 -3.5v-13q0 -13 -1 -26.5t-3 -25.5q0 -3 -0.5 -6t-1.5 -7t-1.5 -8.5t-0.5 -7.5t1.5 -6.5l3 -7t3 -8t1.5 -9.5q0 -4 -5 -9.5t-11.5 -10t-13.5 -7.5t-10 -3h-3t-1 2q0 4 5.5 6.5t12 6t12 8.5t5.5 14v2.5t-0.5 3.5t-1.5 3t-3 1h-1v0q-1 0 -2 -2.5t-1 -3.5q-2 -3 -5.5 -5.5
t-8 -4.5t-8.5 -3t-8 -1q0 5 4 7.5t8.5 4t8.5 4t6 7.5q0 2 -1 5t-4 3h-27v-73h62q4 0 4.5 -3.5t0.5 -6.5q-13 0 -26 1t-26 1h-12q-1 0 -1.5 -1t-0.5 -2v-2v-1q0 -6 3.5 -10.5t9 -8t11.5 -6.5t11.5 -6t9 -5.5t3.5 -5.5q0 -2 -1 -3t-4 -1q-7 0 -12.5 4.5t-11 9.5t-11.5 9.5
t-14 4.5h-3t-3 -2q-10 -7 -20.5 -14t-20.5 -15h-1h-2q-2 0 -3.5 0.5t-1.5 2.5q0 5 6.5 10t14.5 9.5t16.5 8.5t13.5 6q2 0 2 2v3q0 4 -0.5 6.5t-1.5 6.5q-2 0 -4.5 0.5t-6 0.5t-6.5 0.5t-5 0.5v0h-1q-1 0 -6 -0.5t-11 -0.5t-10.5 -0.5t-6.5 -0.5h-5h-7q-3 2 -3 5v1l2 3h14
q10 0 19.5 -0.5t19.5 -0.5h15q2 1 2.5 2.5t1 4t0.5 4.5v3q0 37 -1.5 73t-3.5 73q-1 2 -2 6.5t-1 7.5zM69 170v76q0 3 1 3h2h3.5t2.5 -1v-6q0 -6 -1 -11t-1 -11q0 -7 0.5 -12.5t1 -11.5t1 -13t-0.5 -14q1 -1 1.5 -3.5t1 -4.5t0.5 -4v-2h3h4h4h3t4.5 -0.5t7.5 -1.5t6.5 -2
t2.5 -3v-1l-0.5 -0.5l-0.5 -0.5h-7q-5 0 -9.5 0.5t-9.5 0.5h-3t-2 -3q4 -10 13 -16t19 -10v-1v-1q0 -2 -1 -3t-3 -1q-6 0 -11 4t-9.5 8.5t-8 8.5t-5.5 4q-1 0 -2.5 -1.5t-3 -3.5t-2 -4t-0.5 -3q2 -7 8 -12.5t12.5 -9.5t11.5 -7t5 -6q0 -2 -1.5 -2h-3.5q-4 0 -9 3.5t-9 5.5
q-4 3 -8 5.5t-7 5.5t-4.5 7.5t-1.5 9.5q0 4 1.5 7.5t3 6t3 5.5t1.5 7v1v1q0 1 -0.5 3.5l-1 5l-1 5t-0.5 3.5z" />
</svg>
