<?xml version="1.0" standalone="no"?>
<!DOCTYPE svg PUBLIC "-//W3C//DTD SVG 1.1//EN" "http://www.w3.org/Graphics/SVG/1.1/DTD/svg11.dtd" >
<svg xmlns="http://www.w3.org/2000/svg" xmlns:xlink="http://www.w3.org/1999/xlink" version="1.1" viewBox="-10 0 266 256">
   <path fill="currentColor"
d="M46 243v3q0 2 2 4h2.5h1.5h3q3 0 3 -2q0 -1 0.5 -4t0.5 -6.5t0.5 -6.5t0.5 -4v-4v-7v-7v-4t0.5 -3.5t1 -5.5l1 -6l0.5 -3v-8q0 -4 -1 -6.5t-1 -5.5v-2q0 -1 1 -3.5t1.5 -5.5t1 -5.5t0.5 -3.5v-5v-9v-9v-6q0 -9 1.5 -19t1.5 -21v-2t-0.5 -5t-0.5 -5v-2q0 -9 5 -15t13 -7
q2 0 10 -1t17 -1.5t16.5 -1.5t9.5 -1h13.5h19.5h20h13q2 -1 3.5 -2.5t1.5 -4.5q0 -2 -1 -3t-4 -2h-3h-4.5h-4.5h-3q-9 0 -17 1t-17 1h-2.5t-1.5 -2v-15h-17v19l-1 0.5l-1 0.5h-2h-3h-4h-1q-3 0 -10.5 0.5t-15.5 1t-15.5 0.5h-10.5q-6 1 -9 8t-5 16t-2.5 17.5t-0.5 11.5v7v12
v12v7q-1 21 -3 41.5t-2 40.5l1 2.5l1 2.5v1q0 7 -2 15.5t-2 16.5zM140 247q0 3 2 3h5h2.5h2.5q0 -1 0.5 -3t0.5 -4t0.5 -4t0.5 -3v-1v-2q0 -2 -0.5 -8t-0.5 -12.5t-0.5 -12.5t-0.5 -8v-2.5t1 -3t1.5 -3t2.5 -1.5h50q4 0 4.5 -3t0.5 -5v-4.5t-3 -1.5q-12 0 -24 3t-25 3
q-1 0 -3.5 -0.5l-2.5 -0.5q-3 0 -3.5 -2.5t-0.5 -5.5v-1v-2t0.5 -2t1.5 -2q3 0 7.5 -0.5t10.5 -1.5t12 -2.5t11 -3.5t8 -5.5t3 -7.5v-39l-2 -2t-5 -4t-5.5 -3.5l-2.5 -1.5h-37q-1 0 -1.5 -1.5t-1 -3.5l-1 -4t-0.5 -3q0 -5 4 -7t10 -2.5t13 0t13 0.5t10 -1t4 -5q0 -1 -0.5 -2
t-2.5 -1h-51l-0.5 -0.5t-0.5 -1.5q-1 -1 -1.5 -4.5t-0.5 -5.5h-1h-1q-3 0 -4 1.5t-1.5 3.5t-0.5 4v4q-2 3 -5 3h-6t-6.5 0.5t-6.5 2.5h-26q-2 0 -3.5 1.5t-1.5 3.5q0 1 1 2t3 1h3.5h2.5q10 0 20.5 -1t21.5 -1q2 0 3.5 1.5t2.5 3.5t1.5 4.5t0.5 4t-1.5 2.5t-3 1.5l-3 1
t-2.5 0.5t-4.5 0.5t-7.5 1t-7 1t-5 0.5q-8 1 -11.5 4.5t-5 9.5t-1.5 12.5v13.5q0 12 3.5 18.5t10 8.5t15.5 2t19 -1q4 1 4 3v5v4t-4 3q-2 0 -8.5 1t-13.5 1.5t-13.5 1.5t-9.5 1h-3.5t-5 1t-4.5 2t-2 3t1 4t3 2h1l57 -9l4 2v9q0 13 -2 26.5t-2 26.5zM98 138v-2.5v-2.5l4 -1
l3.5 -0.5t8 -0.5t10 -0.5t8.5 -0.5h4q5 0 5.5 1t0.5 6q0 3 -0.5 6.5t-3.5 6.5h-2h-3h-3h-2h-9q-6 0 -10.5 -1t-7.5 -3.5t-3 -7.5zM150 132l2 -2q1 0 3.5 -0.5t6.5 -1.5t7 -1q6 -1 9.5 -1.5t9.5 -0.5q2 0 4 0.5t2 2.5q0 9 -7 15q-7 2 -16 4.5t-17 2.5h-2t-2 -1v-17zM134 97
q3 0 4 1t1.5 3t0.5 5v4v4v4q0 2 -5.5 2.5t-13 1t-14.5 0.5h-9q0 -8 0.5 -12t3 -6t7 -3t11.5 -3q5 0 7.5 -0.5t6.5 -0.5zM148 104q1 -2 2.5 -4.5l1.5 -2.5h35q2 0 2.5 1.5t0.5 3.5v4v2v5q0 2 -4.5 3t-9.5 1.5t-10 0.5h-7h-7q-1 -1 -1.5 -3.5t-1 -4.5l-1 -4zM65 37q1 0 1 2
q0 1 -1 1q-2 0 -2 -1q0 -2 2 -2z" />
</svg>
