<?xml version="1.0" standalone="no"?>
<!DOCTYPE svg PUBLIC "-//W3C//DTD SVG 1.1//EN" "http://www.w3.org/Graphics/SVG/1.1/DTD/svg11.dtd" >
<svg xmlns="http://www.w3.org/2000/svg" xmlns:xlink="http://www.w3.org/1999/xlink" version="1.1" viewBox="-10 0 266 256">
   <path fill="currentColor"
d="M58 246q0 2 1.5 3.5t4.5 1.5t4.5 -1t2.5 -2.5t1 -4v-4.5q2 -27 4 -53.5t4 -54.5v-2v-4v-4v-2q0 -2 0.5 -5.5t1 -6.5t1 -5.5l0.5 -2.5h11l1.5 -1.5l3.5 -3.5l4 -4l3 -3q0 -1 1.5 -2t2.5 -3t2 -3l2 -2l0.5 -0.5l0.5 -0.5q2 0 4 1.5t3 3.5t1.5 4.5t0.5 4.5t-1 4.5t-3 4.5
t-3.5 4t-2.5 4q-1 1 -0.5 3t-1.5 3q-3 0 -7 -0.5t-8.5 0t-7 3t-2.5 6.5h17l4 4v25h-20q-2 0 -3 2t-1 4l0.5 1.5t1.5 1.5h20l2 1v6q0 3 -0.5 10t-1 15t-1 14.5t-1.5 7.5q0 1 0.5 4.5t0.5 6.5q0 4 -0.5 7.5t-0.5 4.5t-0.5 3.5t-0.5 3.5v0v1q0 3 1.5 4.5t4.5 1.5q2 0 3 -1
t1.5 -2.5t0 -3.5t0.5 -4q0 -3 0.5 -9t0.5 -14t0.5 -17t1 -17t1 -14t0.5 -9q1 -2 3 -2.5t4 -0.5h4.5t2.5 -2q0 -1 0.5 -3.5l0.5 -2.5h-15v-25q0 -3 3 -3.5l6 -1t5.5 -1t2.5 -3.5v-2q-1 -1 -4 -1q-2 0 -4 -0.5t-3 -1t-1 -2.5v-1.5v-1.5q2 -3 4 -5t3 -3.5t1.5 -4t0.5 -5.5
q0 -4 -2.5 -9.5t-6.5 -10.5t-8.5 -9t-7.5 -4h-3t-1 2t1 3.5l2 3t2 3.5t1 3q0 2 -3 6t-7 8t-8 7t-6 3t-2 -1.5v-2.5v-9q0 -6 1 -11.5t3 -10t7 -6.5q10 -5 21 -7t23 -2h10h15h15h9q3 -1 3.5 -2.5t0.5 -3.5t-0.5 -3.5t-3.5 -1.5h-10q-10 0 -20 0.5t-21 0.5v-18q0 -1 -2.5 -1.5
t-3.5 -0.5h-3q0 1 -2 4t-2 4v0.5v1.5q0 2 1 4t1 4v3t-2 3q-11 -1 -19.5 1t-15 6t-10.5 11t-4 18l-8 105q0 1 -0.5 3t-1 4.5l-1 5t-0.5 3.5q0 2 -0.5 8.5t-1 14t-1 13.5t-0.5 9q-1 2 -1.5 3.5t-0.5 3.5zM154 245q0 2 1 3.5t4 1.5t5 -2.5t2 -5.5v-85l3 -2h14.5t14.5 -2
q1 0 1.5 -1t0.5 -2t-0.5 -2t-1.5 -2h-5q-5 0 -8.5 0.5t-8.5 0.5h-5.5t-4.5 -3v-4.5v-3.5q0 -10 2 -14.5t5.5 -5.5t7 -0.5t7 0.5t5.5 -0.5t2 -4.5q0 -3 -2 -4.5t-5 -1.5h-1h-1q-1 0 -2.5 0.5t-3 0.5t-3.5 0.5l-2 0.5q-2 0 -3.5 -0.5t-1.5 -2.5v-1.5v-0.5q2 -1 4.5 -3.5l5 -5
t4.5 -5.5t2 -6q0 -4 -1 -5l-4 -4q-1 -2 -4 -5l-6.5 -6.5l-6.5 -6.5l-4 -4h-2h-1t-3 1t-2 3q0 1 1 2.5l2 3l2 3t1 3.5q0 1 -2.5 5t-6 8t-6.5 7.5t-5 5.5v2q6 0 10.5 -3.5t7.5 -7.5t5.5 -7t4.5 -3q3 0 5.5 3t2.5 6v2v2l-3.5 3.5t-5 5.5t-4.5 5.5t-3 3.5q-2 3 -4 4t-4 1
t-4.5 0.5t-4.5 2.5l2 3q4 0 7 1.5t4.5 3.5t2 5.5t0.5 7.5q0 8 -3 11t-6 4t-5.5 1.5t-2.5 1.5q0 3 2 3h5.5t5 2t2.5 9v54q-2 3 -2 7.5v7.5v2t0.5 3t0.5 3v2z" />
</svg>
