<?xml version="1.0" standalone="no"?>
<!DOCTYPE svg PUBLIC "-//W3C//DTD SVG 1.1//EN" "http://www.w3.org/Graphics/SVG/1.1/DTD/svg11.dtd" >
<svg xmlns="http://www.w3.org/2000/svg" xmlns:xlink="http://www.w3.org/1999/xlink" version="1.1" viewBox="-10 0 266 256">
   <path fill="currentColor"
d="M142 188q2 0 4.5 4.5t5.5 11.5t6 14.5t6 14.5t6 11.5t6 4.5v0l1.5 -1.5l0.5 -0.5v-2.5v-2.5q0 -4 -1 -6t-2.5 -4.5t-3.5 -4.5t-3 -5q-5 -8 -8.5 -16.5t-6.5 -17.5v-0.5v-0.5q0 -1 3.5 -1.5t8 -1.5t8.5 -2t5 -5v-4.5v-7t0.5 -7t0.5 -4.5v-3q0 -3 -0.5 -6t-0.5 -8
q-1 0 -2 -0.5l-1 -0.5q-2 0 -3 1.5t-1 3.5v1l0.5 2l0.5 2l-1 0.5t-2 0.5l-27 4q-1 1 -2 -2t-2 -7t-2.5 -7t-3.5 -3q-3 0 -3 2v1.5v0.5q0 1 1 2.5t1.5 3.5l1 4t0.5 3v1v1q-1 1 -4.5 1.5t-7.5 1t-7.5 1t-5.5 1.5q-1 0 -4 -0.5t-6 0t-5.5 1.5t-2.5 4q0 1 0.5 2t1.5 1h6
q9 0 17.5 -2t16.5 -2q2 0 4 2t3.5 5t2 6t0.5 5t-1.5 3t-3 1h-3.5h-4l-2.5 1t-5 1.5t-5 1.5t-3.5 1t-4 0.5t-6.5 1t-6.5 1t-4 0.5t-2 0.5l-2 1l-2 1t-1 1.5q0 2 1 3t3 1q13 0 25.5 -3.5t24.5 -6.5h1h1zM60 230q0 1 0.5 1.5l0.5 0.5h1q1 0 3 -7t4 -17.5t3.5 -23.5t3 -24
t2.5 -20t1 -11t0.5 -7.5t0.5 -11.5t0.5 -11.5t0.5 -7.5q1 -2 1.5 -6.5l1 -9l1 -9t0.5 -6.5v-3v-5v-4.5v-3.5q3 -5 9.5 -8t13.5 -4.5t14.5 -2t12.5 -0.5h58q2 0 2.5 -1t0.5 -3q0 -3 -2 -4t-5 -1h-39q-1 0 -2 -1l-1 -1q0 -2 -0.5 -5.5t-0.5 -4.5q-1 -1 -2 -1.5l-1 -0.5h-1
q-2 0 -4 1t-2 3q0 3 0.5 5t0.5 4q0 3 -3 3.5t-5 0.5q-1 0 -5 0.5t-8 0.5h-8t-5 1l-2 0.5t-5 1.5t-5.5 2t-4.5 1q-2 1 -6 3.5t-5 5.5q-1 15 -2 30.5t-1 31.5l-0.5 5t-1.5 12.5t-1.5 16t-1 16.5t-1 15t-0.5 9q-2 12 -4 24.5t-2 24.5v6zM146 163q0 -3 2.5 -5t5.5 -2.5t6.5 -1
t6.5 -0.5t3.5 2.5t0.5 5.5q0 10 -5 13t-15 3q-2 0 -3 -1.5t-1.5 -4t-0.5 -5.5v-4zM90 130v0q1 1 1.5 2l0.5 1h5q13 0 19.5 -4.5t9 -10.5t3 -11.5t1.5 -5.5q5 -3 10.5 -2.5t10.5 -0.5q4 1 4 5.5t0.5 8.5t2.5 8t8 5q7 0 12 2t12 3h1q2 0 3 -1t1 -3t-0.5 -3.5t-3.5 -2.5h-3.5
h-5.5t-5.5 -0.5t-3.5 -0.5h-1.5t-3 -0.5t-3 -0.5h-1.5l-1.5 -1.5l-0.5 -0.5v-17l3 -2h29q1 0 1.5 -1.5l0.5 -1.5v-2t-2 -1h-3h-5.5h-5.5h-3q-8 0 -14.5 1t-14.5 1q-1 0 -1.5 -1t-0.5 -2v-1q0 -1 0.5 -4t0.5 -5v-2l1 -1q3 0 7 -0.5t8.5 -1t8 -2.5t4.5 -6q1 -2 0.5 -3t-0.5 -2
v-2.5t2 -2.5v-16q0 -1 -2.5 -2.5t-3.5 -1.5h-1q-1 0 -1.5 0.5t-0.5 1.5v2.5v3.5v4v2q0 6 -0.5 9t-2.5 5t-5 2.5t-8 0.5h-3t-2 -1v-27q0 -3 -0.5 -4t-3.5 -1l-1 0.5l-1 0.5q-2 15 -2 29l-1 3h-20v-25l-1 -0.5t-1 -1.5h-2.5h-2.5v27q0 5 3.5 6.5t7.5 2t8 0.5h6q3 1 3 3v4v5
t-3 3q-12 1 -23.5 1.5t-23.5 2.5l-1 2v1q0 1 1.5 2t2.5 1q5 0 10.5 -0.5t11.5 -0.5h4l2 1v13q0 1 -2.5 2t-3.5 1.5t-2.5 1.5t-3 1.5l-3 1l-1.5 0.5l-2 1t-4 1t-4 0.5t-3 0.5l-0.5 1t-1.5 2v1z" />
</svg>
