<?xml version="1.0" standalone="no"?>
<!DOCTYPE svg PUBLIC "-//W3C//DTD SVG 1.1//EN" "http://www.w3.org/Graphics/SVG/1.1/DTD/svg11.dtd" >
<svg xmlns="http://www.w3.org/2000/svg" xmlns:xlink="http://www.w3.org/1999/xlink" version="1.1" viewBox="-10 0 266 256">
   <path fill="currentColor"
d="M144 200q0 8 3 15t7.5 12.5t10 10.5t11.5 10q2 2 3 2.5t3 0.5q3 0 4.5 -2.5t1.5 -4.5q0 -4 -6 -7.5t-12.5 -9t-12.5 -12.5t-6 -17q0 -6 3.5 -11.5t7.5 -10t7.5 -10t3.5 -11.5q0 -7 -4 -10t-9 -5t-10.5 -4t-8.5 -6v-5q0 -4 1 -7.5t1 -6.5t-0.5 -4t-1.5 -4v-46l-1 -7h-1h-2
q-2 0 -3 1t-2 3t-1 4v4v1q0 1 0.5 2.5t1.5 1.5v47q1 3 1 6v6v3.5v3.5q-1 1 -3 3.5t-4.5 4.5l-5 4t-5.5 2q-6 9 -10 18t-6 18t-2 19v22v16q0 1 1 2.5t3 1.5t3 -1.5t1.5 -3.5t0 -4t-0.5 -4q0 -5 -0.5 -10.5t-0.5 -10.5q0 -11 1.5 -21t4.5 -21q3 -2 6 -6.5t6 -8.5t7 -7t10 -3
q2 0 6 0.5t8 1.5t6.5 3.5t2.5 5.5q0 7 -3 12.5t-6.5 10.5t-6.5 10.5t-3 12.5zM60 245q0 2 1.5 3.5t3.5 1.5q3 0 5 -3q3 -47 3 -94q0 -46 3 -93q0 -5 0.5 -8t5.5 -5q1 0 3.5 -1t5 -1.5t4.5 -1t3 -0.5t5.5 -0.5t9.5 -1t9 -1t6 -0.5l3 -1q16 0 32.5 -0.5t32.5 -1.5q2 0 2 -1v-2
q0 -2 -1.5 -3.5t-3.5 -1.5q-9 0 -17.5 1t-17.5 1h-3.5h-5.5q-2 0 -4 -0.5l-2 -0.5l-2 -1v-11q0 -2 -2.5 -3.5t-3.5 -1.5h-1q-1 1 -3 2.5t-2 2.5v12l-2 2q-13 0 -25.5 1.5t-24.5 3.5q-5 2 -8 7.5t-3 9.5q0 2 -0.5 5.5t-0.5 7t-0.5 6.5t-0.5 4v59l-0.5 1.5t-0.5 2.5v1v0v3.5
t0.5 5t0.5 5v2.5v4t-0.5 6.5t-0.5 7v4.5v8v14v12.5v9.5q-1 2 -2 5t-1 6v6v5zM117 59h-8t-9.5 1.5t-7.5 4.5t-3 8v36q0 3 2 5.5t5 3l6 1t6 0.5h4q2 0 5.5 -0.5t5.5 -1.5t2 -3v-1q0 -1 -0.5 -1.5l-0.5 -0.5h-19l-1.5 -1l-1.5 -1q-2 -2 -3 -4t-1 -6v0q0 -1 0.5 -2l0.5 -1
q6 -2 12.5 -3t12.5 -1q0 -1 0.5 -2l0.5 -1q-2 -5 -5 -5q-1 0 -1.5 0.5l-0.5 0.5q-4 0 -8 1t-9 1v0v0q-2 -1 -2.5 -2.5t-0.5 -3.5q0 -6 2 -9t6 -4.5t8.5 -2t9.5 -1.5l0.5 -0.5l0.5 -0.5v-1v0q0 -1 -1 -2t-1.5 -1h-2.5h-3zM148 116q0 1 0.5 2t2.5 1h4h4q12 0 18.5 -2t9.5 -6.5
t3.5 -12.5t0.5 -19v-13q-1 -3 -3.5 -5t-5.5 -3t-6 -1.5t-6 -0.5h-4.5t-7 0.5t-6 1.5t-2.5 4q0 2 1 3t3 1h2h1t3 -0.5t3 -1t2 -0.5v0h1l2 0.5l4 1t3.5 0.5h1.5q4 4 3.5 9t-0.5 10h-7t-10 0.5t-9 1.5t-4 3v1.5t1 1.5h25q3 0 3.5 2t0.5 4v3t-1 4t-2 3.5t-2 1.5h-24q-1 0 -2 2
t-1 3z" />
</svg>
