<?xml version="1.0" standalone="no"?>
<!DOCTYPE svg PUBLIC "-//W3C//DTD SVG 1.1//EN" "http://www.w3.org/Graphics/SVG/1.1/DTD/svg11.dtd" >
<svg xmlns="http://www.w3.org/2000/svg" xmlns:xlink="http://www.w3.org/1999/xlink" version="1.1" viewBox="-10 0 266 256">
   <path fill="currentColor"
d="M146 206q2 0 5 3.5t6.5 8.5t7.5 10.5t7.5 10.5t7 8.5t6.5 3.5t4.5 -2t1.5 -5q0 -5 -5 -10t-11 -9t-11 -9t-5 -10q0 -3 2.5 -3.5t6 -1t6 -2.5t2.5 -6v-22q1 0 3.5 -0.5t5 -1.5t5 -2.5t2.5 -3.5q0 -1 0.5 -3t0.5 -5t0.5 -5.5l0.5 -2.5q0 -1 0.5 -3.5l0.5 -2.5v-2.5v-4.5
v-2.5v-3.5q-2 -3 -5 -3h-1q-3 5 -7.5 7t-9 3t-7 2t-2.5 4h22q1 0 1 1v2v1.5t-1 1.5h-3.5t-5.5 0.5t-5.5 0.5h-3.5q-2 1 -3 1t-1 2q0 1 1 2t2 1h2.5h2.5h5l1.5 -1l1.5 -1q2 0 3.5 2t1.5 4q0 4 -3.5 4.5t-8.5 0.5q-4 0 -7.5 0.5t-3.5 3.5q0 1 1 1l7 5v1q0 3 -2 6
q-1 0 -3.5 0.5t-5.5 1t-5.5 1t-4.5 0.5t-3 -2t-1.5 -4t-1.5 -4t-3 -2t-2.5 1t-0.5 3v1l1 2t2 2v1v0v0q-5 3 -11 4.5t-12.5 2t-13 0t-11.5 -0.5q-1 0 -2 1.5l-1 1.5v0.5v0.5q0 3 2.5 3h4.5q10 0 20.5 -2t21.5 -2q3 0 5.5 2t2.5 5q0 2 -4.5 3.5t-11.5 2.5t-15 1.5t-15 1.5
t-11.5 2.5t-4.5 3.5t1.5 3t3.5 1q7 0 14.5 -1.5t14.5 -3.5t14 -3.5t14 -1.5zM70 40v8.5v13.5v13.5v9.5q0 5 -0.5 13l-1 16t-0.5 13.5t-1 6.5l-1 3v3t-0.5 7.5t-0.5 9v7.5q-1 16 -3 31.5t-2 31.5q2 0 4 -1.5t3 -3.5t1.5 -4.5t0.5 -4.5t0.5 -8t1.5 -12t1.5 -11.5t0.5 -7.5v-7
q2 -32 4 -63t5 -63q2 -3 6 -5t8.5 -3t9 -1.5t8.5 -0.5l6.5 -0.5t14.5 -0.5t16.5 -0.5t14.5 -1.5v0h1q1 0 3 0.5t5 0.5t5 0.5t3 0.5h2q3 0 4 -2t1 -4t-0.5 -4t-3.5 0h-11q-6 0 -11.5 0.5t-10.5 0.5q-8 0 -9 -2.5t-1 -5.5v-5.5t-6 -2.5v0q-1 1 -2.5 2l-1.5 1v13l-3 0.5t-5 1.5
h-12.5t-17.5 1.5t-16 5t-9 10.5zM151 192q0 -2 1 -3t2.5 -1.5t3.5 -0.5h3q3 0 4.5 0.5t1.5 3.5q0 2 -1 3t-2.5 1.5t-3.5 0.5h-3q-3 0 -4.5 -0.5t-1.5 -3.5zM125 164q0 1 1 3t2 3h1h1q0 -1 1 -2l1 -1l5 -36q0 -1 1 -2t2.5 -1.5t3 -0.5h2.5h1l1 0.5t2 0.5v15q0 7 -1 13.5
t-1 13.5q4 0 5.5 -5t2 -12t0.5 -14t-1 -10q1 -1 5.5 -2t9.5 -3t9 -5.5t4 -10.5v-36q-1 -3 -1 -6t-0.5 -5.5t-1.5 -4t-6 -1.5v20q0 1 -1 1h-2t-5 -2t-8.5 -5t-7.5 -6.5t-3 -6.5q0 -2 0.5 -5t3.5 -3h31l1 -0.5l1 -0.5h0.5t0.5 -1h-0.5h-0.5q0 -1 -0.5 -2l-0.5 -1h-61
q-6 0 -10.5 3t-5.5 10q-1 10 -1 18v17v7v6t0.5 6.5t0.5 7.5q5 5 10.5 6.5t11.5 2.5l2 4l-0.5 3t-0.5 6.5t-0.5 7.5t-0.5 6q0 1 -0.5 3.5t-0.5 3.5q-1 0 -1.5 1.5zM93 157q0 2 2 6t6 4h17l3 -3l-3 -3h-13l-1 -1l-2 -2v0v-1v0q1 -1 5 -2t5 -1h5t3 -3l-0.5 -1.5t-1.5 -1.5h-15
q-1 0 -1 -1.5v-2.5v-1v-1l19 -2v-3q0 -1 -3.5 -1.5t-5.5 -0.5t-3.5 0.5t-2.5 0.5t-2 -0.5t-2 -1.5q0 -1 -1 -2.5t-2 -2.5h-0.5h-0.5q-3 0 -3 2v3.5v5.5v6v4l-1 3t-1 4zM112 112l2 -2t2 -1h52q1 0 2 0.5t1 1.5h1v0q0 1 -1 1q0 1 -1 3t-2 3q-6 1 -12 1h-13q-3 0 -7.5 0.5t-9 0
t-8.5 -2t-6 -5.5zM109 95h61l1.5 0.5l1.5 0.5q0 1 1 2.5t0 1.5l-6 4q-1 -1 -4.5 -1t-7.5 -0.5t-7.5 -0.5h-4.5h-22q-1 0 -3.5 -0.5t-4.5 -1t-3.5 -2t-1.5 -3.5zM109 87v-0.5v-1.5t4.5 -4.5t10.5 -7t11.5 -5.5t7.5 -2h1.5h0.5q1 0 2 1l2.5 2.5t3 2.5l1.5 1l5 2.5l6 3t5.5 3.5
t2.5 4v1.5t-2 1.5h-4h-6.5h-6.5h-4h-20.5t-20.5 -2zM111 69v-2q1 -7 2 -10.5t3.5 -5.5t6 -2.5t11.5 -0.5h6q1 1 1 3v2q0 3 -3.5 6.5t-8 6t-9 4.5t-6.5 2q-3 0 -3 -3z" />
</svg>
