<?xml version="1.0" standalone="no"?>
<!DOCTYPE svg PUBLIC "-//W3C//DTD SVG 1.1//EN" "http://www.w3.org/Graphics/SVG/1.1/DTD/svg11.dtd" >
<svg xmlns="http://www.w3.org/2000/svg" xmlns:xlink="http://www.w3.org/1999/xlink" version="1.1" viewBox="-10 0 266 256">
   <path fill="currentColor"
d="M160 241q4 1 7 2.5l6 3t6.5 3t8.5 1.5q3 0 4.5 -2t1.5 -5q0 -4 -3 -6t-7.5 -3.5t-9.5 -2.5t-9 -2.5t-7 -4t-3 -5.5q0 -4 2 -7.5t4.5 -7t5 -7.5t2.5 -9q0 -4 -3 -5.5t-7 -2t-7 -2t-3 -5.5v-2.5t2 -2.5l22 -3q1 0 2.5 -1t1.5 -3v-18l3 -2h9q1 0 1.5 -1.5t0.5 -2.5
q0 -3 -3.5 -4t-6.5 -1q-8 0 -15.5 1t-15.5 1h-8l-0.5 -0.5t-0.5 -1.5l0.5 -1l0.5 -1v-3q0 -2 -1 -4.5t-4 -2.5h-2t-1 1v11l-3 3q-5 0 -11 1t-11.5 3t-10 5.5t-5.5 8.5q-1 0 -1.5 1.5l-0.5 1.5q1 3 2.5 6.5t3 6.5t3 6.5t1.5 6.5t-2.5 8.5t-5.5 11.5l-6 12t-3 11l0.5 2.5
t1.5 2.5q0 1 1 1q3 0 5.5 -3t4 -7.5t3 -9.5t2.5 -9.5t2.5 -7t4.5 -2.5v0l13 12h0.5h0.5q3 0 5 -1t2 -4v-1v-1q-2 -3 -4 -4.5t-4.5 -2.5t-4.5 -2.5t-4 -4.5q2 -2 5 -3.5l6 -3t6.5 -2t6.5 -0.5q1 0 4.5 2t6.5 5t5.5 6t2.5 5v1l-7 14t-4 15v1v2zM62 136v97q0 2 1.5 2.5t2.5 0.5
q3 0 4.5 -2.5t1.5 -4.5q-1 -34 0 -67t3 -66q0 -6 -0.5 -13t-0.5 -14q0 -6 1 -13t4 -12q1 -2 2.5 -3t3 -1.5t3.5 -1t3 -0.5q3 0 9 -1t11.5 -1.5t10 -1t5.5 -0.5h7.5h10.5h13h13h11h7q3 0 3 -1.5v-2.5v-2.5t-1 -2.5h-51q-1 0 -2 -1v0v-1l0.5 -1.5t0.5 -3.5t0.5 -3t0.5 -2v-1
v-2t-2 -1h-10q0 1 -0.5 2.5t-0.5 3.5v4v2q0 2 -2 4t-3 2h-27q0 2 -2.5 2h-2.5q-2 0 -4 -0.5t-3 -1.5q-3 3 -6 5t-5 4t-3.5 5t-2.5 8q0 5 -1 11t-1.5 13t-1 13.5t-0.5 11.5v1l0.5 1.5t0.5 2.5q1 1 1 5v5q0 7 -0.5 11.5t-1.5 11.5zM100 159q0 -4 3.5 -7t8.5 -5t10 -3t8 -1
q2 0 3.5 2t2 4.5t1 5.5t0.5 5q0 3 -3.5 5.5t-8 4.5t-9 3.5t-6.5 1.5t-3.5 -2t-3 -5t-2.5 -5.5t-1 -3.5zM144 149v-5l1 -1l17 -3q2 0 3 1.5t1.5 3.5t0.5 4v2v1q0 3 -1.5 5t-4.5 3t-6 1h-6h-1.5h-2.5q-1 -2 -1 -6v-6zM98 129v1.5t2 1.5q3 0 4 -3t1 -5v-3t0.5 -4t0.5 -4v-3
q2 -1 3.5 -1.5t3.5 -0.5h2t3 2v3v4t0.5 4t0.5 3t1 2.5t3 1.5h2t1 -2v-20q2 -2 4 -5t4 -5q0 -7 0.5 -12t0.5 -11q0 -11 -3.5 -17.5t-14.5 -6.5h-7t-8.5 1t-7.5 3.5t-3 6.5v30q2 3 2 5.5t1 4.5q1 4 3.5 6t2.5 5q0 5 -1 9t-1 9zM151 125q0 2 1 3t2 1q3 0 3.5 -3.5t1.5 -8
t2.5 -8t6.5 -3.5t5.5 3t0.5 7.5v8t4 3.5q1 0 2.5 -0.5t1.5 -2.5v-17l0.5 -1t1.5 -1q0 -1 2 -3t2 -3q2 -4 2.5 -9.5t0.5 -10.5v-10q0 -1 -1 -3t-1 -3q0 -5 -0.5 -8t-1.5 -4.5t-4 -2t-9 -0.5q-8 0 -13 0.5t-8 2t-5 6t-2 11.5q0 12 2 21.5t5 20.5v1v0q0 1 -0.5 2.5t-0.5 3.5
t-0.5 3.5t-0.5 2.5v1zM101 97q0 -2 2 -3.5t3 -1.5h16q2 0 2 1v2q0 2 -1 3.5t-3 1.5h-4.5h-4.5h-3h-3.5t-2.5 -1t-1 -2zM155 94v-1v-1q5 -1 11.5 -2t11.5 -1q3 0 3 2t-2 5t-4 4h-7h-4.5t-4.5 -0.5t-3 -1.5t-1 -4zM99 81q0 -4 3.5 -5.5t8 -2.5t9 -1h6.5v6.5t-1 3.5t-3 1t-6 1
h-2.5h-3.5t-4 0.5l-2 0.5h-1h-1q-2 0 -2.5 -1t-0.5 -3zM152 79q0 -1 0.5 -3t2.5 -2h25q1 0 1 2v2q0 2 -1.5 3t-4 1.5l-5 1t-3.5 0.5h-2.5t-4 0.5t-4.5 0.5h-3q-1 -1 -1 -2.5v-3.5zM153 66q0 -2 0.5 -3l1.5 -3q4 -2 8.5 -3t8.5 -1q3 0 6 0.5t3 4.5q0 3 -2 4.5t-5 2t-7 0.5h-5
h-7q-1 0 -1.5 -0.5t-0.5 -1.5zM101 65q0 -3 1.5 -5t4.5 -3t6 -1h5t5 0.5t3 4.5v1l-0.5 1t-1.5 1t-3.5 0.5t-5.5 1t-5 1t-4 0.5h-0.5h-0.5q-1 0 -2.5 -0.5t-1.5 -1.5z" />
</svg>
