<?xml version="1.0" standalone="no"?>
<!DOCTYPE svg PUBLIC "-//W3C//DTD SVG 1.1//EN" "http://www.w3.org/Graphics/SVG/1.1/DTD/svg11.dtd" >
<svg xmlns="http://www.w3.org/2000/svg" xmlns:xlink="http://www.w3.org/1999/xlink" version="1.1" viewBox="-10 0 266 256">
   <path fill="currentColor"
d="M152 101q2 8 3 16t1.5 16t2 16t3.5 15l1 1.5t1.5 3t1 2.5t0.5 2q5 21 10.5 39t16.5 37q1 2 3 2t3 -1t1 -3q0 -3 -1 -6t-3 -6l-18 -57q0 -9 -2.5 -18.5t-5.5 -19t-5.5 -18.5t-2.5 -18q0 -5 6 -6l27 -4q1 0 1 -1v-2v-2.5t-1 -1.5h-33l-0.5 -0.5l-1.5 -1.5t-1.5 -3t-1.5 -4
t-1.5 -4t-0.5 -3v-1v-1l1 -1l1 -1h25q1 0 2 -2.5t2 -6t1 -6v-3.5q0 -2 -1 -7.5t-2.5 -12t-4 -11.5t-4.5 -5v7v10v9.5v6.5l-0.5 2l-1 4t-1.5 3.5t-3 1.5h-12q-1 -4 -2 -11t-2.5 -14t-5 -12t-9.5 -5q0 1 0.5 2.5l0.5 1.5q0 1 1 4t2 7t1.5 7t0.5 4q2 9 3 19.5t1 19.5v7
q-2 2 -8.5 3t-13.5 1.5t-14 0.5t-10 1q-2 0 -6 0.5t-9 1t-9 1t-5 0.5q-3 1 -4.5 1t-1.5 2t1 3.5t3 0.5q1 0 5.5 0.5t5.5 0.5q11 0 22 -1.5t23 -1.5h25zM55 184q0 1 0.5 2t3.5 1h17q15 0 30 -1t29 -4q2 -1 2 -2v-2q0 -2 -1 -2.5t-2.5 -1t-3 0t-2.5 0.5q-16 0 -32.5 0.5
t-33.5 2.5q-3 1 -5 2t-2 4zM64 141v1l2 2h4h7.5h6.5h5h25.5t24.5 -3v-2q0 -1 -0.5 -2t-1.5 -2h-4h-6h-6h-5h-11t-10 0.5l-10 1t-12 0.5q-1 0 -2.5 0.5t-3 0.5t-2.5 1t-1 2z" />
</svg>
