<?xml version="1.0" standalone="no"?>
<!DOCTYPE svg PUBLIC "-//W3C//DTD SVG 1.1//EN" "http://www.w3.org/Graphics/SVG/1.1/DTD/svg11.dtd" >
<svg xmlns="http://www.w3.org/2000/svg" xmlns:xlink="http://www.w3.org/1999/xlink" version="1.1" viewBox="-10 0 266 256">
   <path fill="currentColor"
d="M143 246l-0.5 2.5t1.5 2.5q4 0 6 -4.5t3 -12t1 -15.5v-16v-14q0 -7 1 -9t3 -2.5t4 -0.5q6 0 9 4.5t4 11t1 13v9.5q1 2 1 5.5t0.5 6.5t1.5 5.5t4 2.5q2 0 2.5 -1t1 -3t0.5 -4v-4q0 -10 -1 -20t-5 -20q-2 -5 -6.5 -8t-9 -5t-8.5 -3t-4 -3q0 -1 1 -4t2 -3l17 -3q1 0 3.5 -3
t4.5 -5q1 -1 2 -2.5t1 -2.5v-20q0 -1 -1 -2.5t-3 -1.5h-1l-1.5 1.5l-1.5 1.5v20l-1 1l-2.5 2.5t-3 2.5t-2.5 2h-1.5h-2.5h-3h-2l-1 -0.5t-1 -1.5v-32q0 -2 -1 -2h-2q-3 0 -4 5.5t-1 12.5t-1 12.5t-6 5.5t-7.5 -3t-4 -7t-2 -8.5t-0.5 -8t-1 -6t-3 -1.5q-3 0 -3 2v3
q0 9 0.5 15.5t2.5 11.5t7 8t14 3q1 1 1.5 2.5t0.5 3.5t-0.5 3.5t-2.5 2.5l-17 5q-3 0 -5.5 4t-4.5 10t-3.5 12.5t-3 12.5t-2 11t-0.5 7q0 3 0.5 4.5t3.5 1.5q2 0 4 -2.5t3 -5.5q0 -5 0.5 -10.5t1 -11.5t2.5 -11.5t5 -9.5l3.5 -3.5l3.5 -3.5t4.5 -3t4.5 -1t2.5 2t0.5 4
q0 16 -1.5 32t-1.5 33zM55 240q1 2 2 2h2q3 0 4.5 -2t2 -4t0.5 -5v-6q0 -7 -1 -15t-1 -16v-12t3 -13q3 -5 6.5 -8t6.5 -5t5.5 -4t4.5 -4.5t3 -7t1 -12.5v-4.5v-3.5l-7 -6q-4 0 -8.5 -0.5t-8.5 -1.5t-6.5 -4t-2.5 -8q0 -6 2 -9.5t5.5 -5.5t8 -3.5t9 -3.5t8 -5t6.5 -9v-13v-8
v-12t-1.5 -11t-4.5 -5h-2.5t-1.5 2v20q0 2 -6 2.5t-13 0.5t-13 1t-6 5q0 2 1.5 3.5t2.5 1.5q9 0 17 -1t16 -3h1q2 0 2 3v4q0 8 -3 11.5t-7.5 5t-9.5 2.5t-9.5 3.5t-7.5 8t-3 15.5v5t1 5.5t2.5 5t4.5 2.5q1 1 4 1.5t6.5 1t6.5 1.5t4 1q3 2 4 5t1 7t-3 7t-7.5 6.5t-9 6.5
t-6.5 6t-3 8.5t-2 12t-1 12.5v9v3.5t0.5 5.5t0.5 6v3v4v5v6.5v3.5zM61 238q1 0 1 2t-1 2t-1 -2t1 -2zM126 70v27q0 3 4 5.5t10 4t14 2.5t15 1h12h8h9l2 -2l2 -2v-1q0 -3 -2 -4t-4.5 -1.5t-5.5 0t-4 0.5h-3h-3.5h-3.5h-1q-1 0 -2.5 0.5t-2.5 0.5q-4 0 -8 -1.5t-4 -5.5t2 -5
t4.5 -1.5t6 -1t6.5 -2t6 -5t4 -10.5q0 -1 0.5 -3.5t1.5 -2.5h3q3 0 6 -0.5t5.5 -2t2.5 -4.5v-1q-1 0 -2 -1.5t-2 -1.5v0h-1l-1.5 0.5t-2.5 0.5t-2 0.5t-2 0.5q-2 0 -3 -1.5t-1.5 -3.5t-1.5 -3.5t-4 -1.5h-0.5h-1.5q0 9 -4.5 11t-11.5 2h-1q0 -1 -0.5 -1.5l-0.5 -0.5v-12
q0 -2 1.5 -2.5t3.5 -0.5h4.5h3.5h3q1 0 2 0.5t2 0.5l1 -0.5t2 -0.5l2 -0.5t4 -0.5t3.5 -0.5t2.5 -0.5q2 -1 2.5 -2t0.5 -2v-2t-2 -1h-5q-8 0 -15.5 0.5t-15.5 0.5v-19l-0.5 -0.5t-1.5 -0.5l-1.5 -0.5t-1.5 -1.5h-1h-1q0 1 -1 2l-1 1v19l-1 0.5t-3 0.5h-3.5h-2.5q-1 1 -4.5 1
t-7.5 0.5t-7.5 0.5h-4.5l-2 2v0q0 2 1.5 3t3.5 2t3.5 1.5t2.5 0.5q0 9 -3.5 11.5t-8.5 3t-8.5 1.5t-3.5 7h18l3 3v0zM147 61v0q0 -2 -1.5 -3.5t-3.5 -2t-4.5 -0.5h-2.5v-11l2 -1t4 -1.5t4.5 -1t3.5 -0.5q2 0 3.5 2t1.5 4t-0.5 6.5t-0.5 10.5t-0.5 12.5t-1.5 11.5t-3 8t-4 3
q-1 0 -2.5 -0.5t-3.5 -1t-3 -2t-1 -2.5v-22l1.5 -1.5t4.5 -3l5 -2.5t2 -2zM158 73q0 -1 0.5 -5t2.5 -4h14q2 0 2.5 3t0.5 5t-1.5 3.5t-3.5 2.5t-4 1.5t-4 0.5q-7 0 -7 -7z" />
</svg>
