<?xml version="1.0" standalone="no"?>
<!DOCTYPE svg PUBLIC "-//W3C//DTD SVG 1.1//EN" "http://www.w3.org/Graphics/SVG/1.1/DTD/svg11.dtd" >
<svg xmlns="http://www.w3.org/2000/svg" xmlns:xlink="http://www.w3.org/1999/xlink" version="1.1" viewBox="-10 0 266 256">
   <path fill="currentColor"
d="M97 247q0 4 3 4t5.5 -5t4.5 -11.5t4 -12.5t5 -9q3 -5 7.5 -8t9.5 -5t10 -4.5t9 -5.5q0 -1 0.5 -3l1 -4t0.5 -3.5t1 -2.5v-1q0 -2 -2.5 -4.5l-3.5 -3.5h-5h-5q-7 0 -13.5 1t-13.5 1q-2 0 -5 -1t-5 -3v-2v-3q0 -3 1 -4.5t3 -3t4 -2.5t4 -3h22q1 0 2 -1t2 -3t1.5 -4l0.5 -2
v-5v-7v-7v-5h-5v11h-31v3q0 3 2 4q14 -1 28 1v0.5v0.5q0 4 -3 5.5t-7.5 2.5t-10 1.5t-10 2.5t-7.5 6t-3 12v7q2 4 6.5 5t8.5 1h2q2 -1 6 -1t8.5 -0.5t8.5 -1t5 -0.5q3 1 4.5 2.5t1.5 4.5q0 2 -4 4.5t-9.5 6t-12.5 8.5t-13 11.5t-9.5 15.5t-3.5 20zM76 106v34q2 0 5 -1t3 -5
v-28q0 -2 0.5 -3t2.5 -1t3.5 4t3 8.5t2.5 9t2 6.5l3 -1v-1.5v-2.5q0 -5 -1 -12t-3 -12q-1 -2 -3 -3t-4 -1.5t-3.5 -1.5t-1.5 -4q0 -2 1 -3.5t3 -2t3.5 -1.5t2.5 -3q0 -1 0.5 -2.5t0.5 -3.5t0.5 -3.5t0.5 -2.5v-1q0 -3 -2 -4.5t-3.5 -2.5l-3 -2t-1.5 -4v-2q2 -2 4 -3.5t3 -3
t1 -3.5v-6t-1.5 -6.5t-3.5 -4.5l-4 -4t-2 -7h-2l-2.5 3.5t-6 8t-6 8t-2.5 4.5q0 3 2 5t4.5 3.5t4.5 3t2 4.5t-2.5 4.5l-5 3t-5 4t-2.5 8.5v6l4 2t4 2.5l4 3t2 3.5t-3.5 5t-7.5 7t-7 10t-3 15q0 2 1.5 2.5t3.5 0.5q1 0 3 -0.5t2 -2.5q0 -1 0.5 -3t0.5 -4.5t0.5 -4.5t0.5 -3
t0.5 -3t1.5 -4t2 -3t3 -1zM173 105q0 4 -0.5 7t-0.5 6t0.5 6t1.5 6v0v0q3 0 4 -1.5t1 -3.5t0.5 -4t0.5 -4q0 -3 -0.5 -5.5t-0.5 -3.5q1 -1 2 -2.5t2 -1.5t2 1t1.5 2l1 2l0.5 1q0 1 1 3t1.5 4t1 4.5t1.5 3.5q0 1 1 1h2q2 0 3 -0.5t1 -3.5q0 -5 -3 -9.5t-6.5 -9t-7 -7
t-3.5 -3.5q0 -2 2 -3t4.5 -2.5t4.5 -4t2 -6.5q0 -5 -2.5 -7.5t-5 -4.5t-5 -3t-2.5 -3v-1l12 -12l0.5 -2t0.5 -4v-0.5v-0.5q0 -6 -1.5 -8t-3.5 -3t-4 -1.5t-3 -3.5v-3t-0.5 -4t-0.5 -3.5v-2.5h-1h-1h-2.5t-1.5 1v15q-4 2 -5.5 3.5t-2.5 3.5t-1.5 4t-0.5 5q0 6 1.5 8t3.5 3.5
t3.5 3t1.5 5.5q0 2 -1.5 3.5t-4 3t-4 4.5t-1.5 10q0 3 1.5 4t4 1.5t4.5 1.5t2 4l-0.5 1t-0.5 2q-8 5 -14 13.5t-6 18.5q5 0 7 -3.5t3.5 -8.5t3 -8.5t7.5 -3.5zM107 86q0 5 0.5 9.5t3 7t6.5 3.5t10 1q7 0 11.5 -0.5t6.5 -3t3 -6.5t1 -12v-6l-2 -1v0q-2 0 -3 2.5t-1 3.5h-11
q0 -1 -0.5 -4t0.5 -3q0 -1 0.5 -1.5l0.5 -0.5q7 0 11 -1t7 -8q1 -4 1.5 -8t0.5 -8q0 -2 -0.5 -4t-2.5 -2l-0.5 0.5l-0.5 0.5l-0.5 0.5t-1.5 0.5v6.5t-1 6.5t-3 5t-6 2h-4.5t-1.5 -4q0 -3 1.5 -5.5t3 -5.5t3.5 -5.5t3 -5.5q0 -1 1.5 -2.5l3 -3l3 -3l1.5 -1.5q0 -1 -1.5 -2
t-2.5 -1h-1l-2.5 1t-3.5 1q-2 0 -7 0.5t-11 1t-11 1t-7 0.5l-0.5 0.5t-1.5 0.5v1v0q1 2 2.5 2.5t3 0.5h3.5h2q1 1 2.5 3t2 4.5t1 4.5t1.5 3q1 3 2.5 4.5t1.5 4.5v3t-1 2h-13l-0.5 -1.5t-1.5 -2.5v-2.5t-0.5 -3.5t-0.5 -3.5v-1.5q0 -1 -1.5 -2t-1.5 -2q-1 0 -2 0.5t-1 1.5
v3.5v2.5q0 12 5.5 16t16.5 4q1 1 1 2v3q0 3 -1.5 4t-5.5 1q-3 0 -4 -0.5t-1.5 -1t-1 -1.5t-2.5 -3l-1 2v5zM114 100l-1.5 -3t-0.5 -3t1 -2.5t6 -0.5h4h7t7.5 -0.5t4.5 -0.5q0 7 -2 9t-9 2h-8.5t-8.5 -1zM166 78q0 -5 3.5 -7t8.5 -2q3 0 6 2.5t3 5.5q0 6 -4 7t-8 1t-6.5 -1
t-2.5 -6zM70 74q0 -5 5 -8t10 -3q4 0 5 3.5t1 6.5v2v3q-4 3 -6.5 4t-6.5 1q-8 0 -8 -9zM121 37v-1q3 -1 5 -1.5t5 -0.5t4 0.5t1 3.5v1.5v0.5l-7 12q-3 -2 -5.5 -6.5t-2.5 -8.5zM166 42q0 -4 3.5 -6.5t6.5 -2.5h4t4 1v3v3q0 4 -1.5 6.5t-6.5 2.5q-3 0 -6.5 -1.5t-3.5 -5.5z
M73 38q0 -4 3 -6t7 -2t6 3t2 7q0 3 -3.5 4.5t-6.5 1.5q-8 0 -8 -8zM105 15v5h18.5t18.5 -1q1 -1 2.5 -2t1.5 -2q0 -2 -2 -3t-4 -1h-1q-1 0 -4 1l-3 1q-2 0 -5.5 0.5t-8 1t-8 0.5h-5.5z" />
</svg>
