<?xml version="1.0" standalone="no"?>
<!DOCTYPE svg PUBLIC "-//W3C//DTD SVG 1.1//EN" "http://www.w3.org/Graphics/SVG/1.1/DTD/svg11.dtd" >
<svg xmlns="http://www.w3.org/2000/svg" xmlns:xlink="http://www.w3.org/1999/xlink" version="1.1" viewBox="-10 0 266 256">
   <path fill="currentColor"
d="M78 247l2 2h1h1q1 -1 2 -2.5t1 -3.5v-4v-2v-46.5t2 -47.5l0.5 -1l0.5 -1h2q2 0 3.5 4.5t2.5 10.5t2 11t1 6v5.5t0.5 9.5t0.5 10v7v12q0 1 0.5 3.5t0.5 5.5t0.5 5.5t0.5 3.5t0.5 1.5t1.5 0.5v0h1q1 0 1.5 -0.5t0.5 -1.5v-5q0 -3 0.5 -7t0.5 -8v-5v-6t-0.5 -8t-0.5 -7v-4
q0 -2 -0.5 -8.5t-1 -13.5t-1 -13t-0.5 -9l-1 -1.5t-2 -4t-2 -2.5t-3 -0.5t-4 -1.5t-3.5 -1.5t-1.5 -1.5v-35l1 -2q7 -4 11 -9t6.5 -10.5t3 -12t0.5 -14.5v-4q0 -2 -0.5 -4t-2 -3.5t-3.5 -1.5h-1h-2v5.5t-0.5 7.5t-0.5 7.5v4.5q0 2 -0.5 5t-1.5 6.5t-2.5 5.5t-4.5 2h-2t-1 -2
v-62q-3 0 -4.5 1.5t-2.5 3.5q0 3 -0.5 9.5t-0.5 14t-0.5 14.5t-0.5 9v13q0 2 -1 2h-2q-4 0 -5.5 -2t-2 -5t-1 -5.5t-2.5 -3.5v-27q0 -1 -1 -1.5t-2 -0.5v0q-2 0 -3 2t-1.5 4.5t-0.5 5v3.5q0 5 0.5 12t2.5 14t6 11.5t12 4.5v39l-2 0.5t-4 0.5q-4 1 -6.5 2t-4.5 2.5t-3.5 4
t-3.5 6.5v20q0 10 1 20.5t1 21.5q0 6 -1 12.5t-1 12.5q0 2 0.5 4t2.5 3q3 -1 4 -5.5t1.5 -9.5l1 -10t0.5 -8q0 -1 0.5 -3t0.5 -4.5t0.5 -5l0.5 -2.5q0 -1 -0.5 -2.5t-0.5 -3t-0.5 -3l-0.5 -1.5v-1v-1q0 -2 0.5 -7t0.5 -10.5t0.5 -10.5t0.5 -7q1 -3 3 -5t5 -2v0q2 1 3 3
t1 4.5v3.5v2v20v6v9t0.5 11.5t0.5 11.5v9v6v23zM138 140q3 26 3.5 53t0.5 53q3 0 4 -3l2 -6v-20q0 -14 -1 -28t-1 -28v-4v-6v-6v-4q1 -2 2 -2.5t3 -0.5q3 0 5 7t2.5 18t1 23.5t2 23t4 17.5t7.5 7v-14.5t-3 -14.5q-1 -1 -1.5 -3l-0.5 -2q-2 -16 -2 -31t-1 -31q-2 -5 -5 -7
t-6 -3t-5.5 -2t-2.5 -5v-26q0 -2 0.5 -3t1.5 -1.5t2.5 -0.5t2.5 -1l1.5 -1.5l3.5 -3.5l4 -4l3 -3q2 -2 3 -6t1.5 -8.5t0.5 -8.5v-8v-3t-0.5 -4t-1.5 -3.5t-3 -1.5q-1 0 -1.5 3.5t-1.5 8.5t-1.5 10.5t-2 10.5t-3.5 8t-4 3t-4 -0.5t-1 -3.5v-31t-2 -32h-3q-3 16 -2.5 32.5
t-0.5 32.5h-2h-1q-3 0 -4.5 -5t-2.5 -11.5t-1.5 -12.5t-0.5 -8q-1 -2 -3 -2h-3v10v10t1 9.5t3 9.5q1 2 3 4t4.5 4t4.5 4.5t2 4.5v33q0 2 -2 3t-4.5 2t-4.5 1.5t-3 2.5l-1 1.5t-1.5 3t-1.5 3t-1 2.5v11v17v17v12q0 8 -2 15.5t-2 16.5h4l1 -2.5t2 -5.5t2 -6.5t2 -5.5v-2v-2v-2
v-1q0 -1 0.5 -3.5t0.5 -3.5v-5.5v-7.5v-8.5v-5.5q2 -1 2.5 -7t0.5 -11q0 -6 1 -10.5t5 -4.5h2zM198 121q-2 0 -2 0.5t-1 3.5l-0.5 2t-1 3.5t-1 3.5t-1.5 2q0 1 -1 3.5t-2.5 5t-2.5 4.5t-2 2q-1 3 -3 4t-3.5 2.5t-2.5 3t-1 4.5q5 0 10.5 -3.5t10 -9t7.5 -11.5t3 -11
q0 -2 -1 -5.5t-5 -3.5zM168 116v3q5 0 10 -3.5t9 -8t7 -10.5t3 -10v-4v-4q-1 0 -1.5 -0.5t-0.5 -1.5h-1v0q-1 1 -2.5 2t-1.5 2l1 2q1 0 -0.5 2.5t-3.5 6t-4.5 7t-4.5 6.5l-1.5 2t-3 3.5t-3 3.5t-2.5 2zM194 21v0q-1 0 -1.5 1t-1.5 2q-1 8 -2.5 14t-3.5 11.5t-4.5 11
t-5.5 12.5v1v2q5 -2 10 -6.5t8.5 -10.5t5 -12t1.5 -12v-3.5t-1 -5t-2 -4t-3 -1.5z" />
</svg>
