<?xml version="1.0" standalone="no"?>
<!DOCTYPE svg PUBLIC "-//W3C//DTD SVG 1.1//EN" "http://www.w3.org/Graphics/SVG/1.1/DTD/svg11.dtd" >
<svg xmlns="http://www.w3.org/2000/svg" xmlns:xlink="http://www.w3.org/1999/xlink" version="1.1" viewBox="-10 0 266 256">
   <path fill="currentColor"
d="M148 247q2 3 3 3.5t3 0.5t3.5 -1t1.5 -4l4 -39q0 -5 4 -10.5t9 -11.5t11.5 -11.5t11.5 -10.5l8.5 -8.5t3.5 -5.5q0 -3 -2 -3h-5q-4 0 -9.5 3.5t-11 9t-11 13t-10 14.5t-7.5 13t-3 10q-1 2 -1 7.5t-0.5 11.5t-1.5 11.5t-1 7.5zM45 210q0 1 1.5 2.5t2.5 1.5q3 0 8.5 -1
t9.5 -2l70 -4q1 0 1.5 -1t0.5 -2t-0.5 -3t-2.5 -2h-21q-2 0 -3.5 -1.5t-1.5 -3.5v-5.5t-0.5 -9t-0.5 -8.5v-6v-3q0 -4 2 -6t4.5 -4t5.5 -4t3 -5q2 -4 2 -8.5v-9.5t-2 -8t-5.5 -4.5t-8 -2t-8.5 -0.5q-6 0 -13.5 1t-14 3.5t-11 7.5t-4.5 13v3.5t0.5 5.5t1 5t1.5 4q1 0 3 1
t4.5 2t5 1.5t2.5 1.5v42l-28 3q-2 0 -3 2t-1 4zM93 159h2.5t1.5 2l4 35q0 3 -1.5 5t-4.5 2q-1 0 -2.5 -0.5t-3 -0.5t-2.5 -1t-1 -2v-34q0 -3 2 -4.5t5 -1.5zM137 141q0 2 -1 3.5t-2 2.5t-1.5 2.5t-0.5 3.5q2 0 4 -0.5t5 -1.5q14 -14 29.5 -28t28.5 -28q1 -1 1.5 -3l0.5 -2
q0 -3 -1 -3.5t-3 -0.5q-4 0 -8 3.5t-8 7.5t-7 8t-5 6t-6.5 6t-9.5 9l-9.5 9.5t-6.5 5.5zM70 137q0 -4 1.5 -6.5t3.5 -4.5t5 -3t6 -3h26l3 4v5q0 11 -4 16.5t-16 5.5q-4 0 -8.5 -0.5t-8 -1.5t-6 -4t-2.5 -8zM48 93q0 2 1 3.5t3 1.5v0q2 0 6 -0.5t9 -1t9 -1t5 -0.5q3 -1 10 -1
t14.5 -0.5t14 -0.5h9.5v-1v-2v-1.5t-1 -1.5h-31l-0.5 -0.5t-0.5 -1.5l-0.5 -2t-0.5 -3q0 -6 4 -7.5t8.5 -2.5t8.5 -2.5t5 -6.5q0 -1 0.5 -4t1 -6.5l1 -7t0.5 -5.5v-2q0 -5 -1.5 -7t-6.5 -2h-3q-2 8 -2 16t-1 16q-2 3 -4 3.5t-5 0.5h-1h-2t-1.5 -0.5t-0.5 -1.5v-43
q0 -3 -2.5 -5t-4.5 -2q-3 0 -3 4v3q0 1 0.5 8t0.5 15t0.5 14.5t0.5 8.5v1v1l-0.5 0.5t-1.5 0.5h-1q-5 0 -9 -1t-4 -7q-1 -1 -1 -5t-1 -8.5t-1 -8t-1 -5.5l-0.5 -1l-0.5 -1h-4.5h-4.5v11q0 6 1 12.5t3.5 12t7.5 8.5q2 1 5.5 1h6t4.5 1.5t2 5.5v2q0 3 -2 3h-32q-6 0 -6 6z
M137 83q0 1 0.5 2.5t2.5 1.5h1q0 -1 1 -1.5t2 -0.5l25 -26q1 0 5.5 -3t10 -7t9.5 -8.5t4 -6.5q0 -3 -1.5 -5t-3.5 -2h-2h-1q-1 1 -3.5 4t-6 6t-6 5.5l-3.5 3.5t-2.5 2t-2.5 2l-27 27q-2 1 -2 2.5v3.5z" />
</svg>
