<?xml version="1.0" standalone="no"?>
<!DOCTYPE svg PUBLIC "-//W3C//DTD SVG 1.1//EN" "http://www.w3.org/Graphics/SVG/1.1/DTD/svg11.dtd" >
<svg xmlns="http://www.w3.org/2000/svg" xmlns:xlink="http://www.w3.org/1999/xlink" version="1.1" viewBox="-10 0 266 256">
   <path fill="currentColor"
d="M146 247q0 4 5 4q2 0 4 -1t3 -4q4 -17 8 -30.5t10 -26t14 -23.5t21 -22v-2q0 -3 -1 -4t-4 -1h-1.5h-1.5q-12 11 -21 23.5t-16 26.5t-11.5 28.5t-8.5 30.5v1zM89 230v1q1 1 2 3.5t1 3.5q2 1 4 0t3 -2.5t2 -3.5t1 -3v-44h35q2 0 5 -2t3 -5q0 -2 -2 -3.5t-5 -1.5l-2.5 0.5
t-4.5 0.5t-4.5 0.5l-2.5 0.5h-10h-9q-2 1 -2.5 -1.5t-0.5 -3.5q0 -2 2.5 -4t6 -3t6.5 -2t5 -2q2 -3 3.5 -6.5t2 -7.5l1 -8t0.5 -8q0 -6 -0.5 -10t-1.5 -10h-1h-1q-2 0 -3.5 1.5t-2.5 3.5t-3 3.5t-4 1.5q-1 0 -2.5 -0.5t-3.5 -1t-3 -1.5t-1 -2v-12l3 -3q5 0 10 -0.5t9.5 -2.5
t7 -5.5t2.5 -9.5q0 -1 -0.5 -3t-0.5 -3.5t-0.5 -3l-0.5 -1.5h-7q0 5 -0.5 9t-2.5 7t-5 4t-9 1q-2 0 -3.5 -0.5t-2.5 -2.5v-3v-3v-5t2 -4l1.5 -1l3 -2t3 -1.5t2.5 -0.5q2 -2 4 -6t3.5 -8.5t2.5 -8t3 -3.5h20q0 -5 -3.5 -6t-8.5 -1q-22 0 -44 2t-45 1q-3 0 -3.5 1.5t-0.5 2.5
t0.5 2.5t2.5 1.5h27l2 2v3t0.5 4l1 4l0.5 2q0 4 3 5.5t6.5 3t6 2t2.5 1.5v16q0 1 -1.5 1.5t-2.5 0.5h-1h-3q-7 0 -10.5 -1.5t-5.5 -3.5t-2.5 -5t-1 -5t-1.5 -3.5t-4 -1.5q-2 0 -3.5 1t-1.5 3q0 8 3 13t8.5 7.5t12 3.5t12.5 2q3 1 3 4.5v5.5q0 3 -1.5 5t-4 2.5t-5.5 0.5h-5
q-3 0 -4.5 -1.5t-2.5 -3t-2 -2.5t-3 -1h-1l-1.5 1.5t-2.5 1.5v3v3v3v3q1 0 1.5 2l1 4l1 4t0.5 3v2v5v4v2q1 4 4 6.5t7 4t8 2t7 0.5q2 0 2 2v3v2.5t-2 2.5q-6 1 -9.5 1.5t-9.5 0.5q-5 0 -10.5 -1t-10.5 -1q-4 0 -6.5 2.5t-2.5 6.5v1l1.5 0.5l1.5 0.5q1 0 3 0.5t4 0.5h4h3
q7 0 13.5 -1t13.5 -1h5q1 0 2 2t1 3q0 4 -1 9.5l-2 11t-2 10.5t-1 9zM143 152q0 2 1 3.5t3 1.5q3 0 5 -2.5t3.5 -5.5t3 -6.5t3.5 -5.5q0 -1 1.5 -3.5t3.5 -5.5t4.5 -6t3.5 -5t6 -6.5t9.5 -9.5t8.5 -9t4 -5q0 -3 -1.5 -5.5t-4.5 -2.5h-3q-17 15 -29.5 33t-21.5 38v1v1z
M77 153q-1 -1 -1 -2v-2v-2q10 -1 16.5 -2.5t15.5 -1.5q3 0 6 0.5t3 4.5q0 3 -2.5 4.5t-6 2t-6.5 0.5h-5h-10.5t-9.5 -2zM72 132q0 -3 2 -5q10 0 17.5 -1t16.5 -1h3t3.5 0.5t3 1.5t1.5 3q0 3 -2 4t-3 2q-5 0 -9 0.5t-7 0.5h-7h-7h-8q-2 -1 -3 -2t-1 -3zM145 86q0 1 1.5 3
t2.5 2t2 -1l2 -2t1.5 -2t0.5 -2l2 -3.5t4.5 -7.5t4 -7.5t2.5 -4.5q7 -10 16.5 -19.5l18.5 -18.5q1 -1 1 -2v-4q0 -3 -0.5 -4t-3.5 -1q-5 0 -9 3.5t-8 8.5t-6.5 10.5t-5.5 8.5q-3 4 -7.5 9t-8.5 10.5t-7 11.5t-3 12zM81 51v-1l0.5 -1.5t0.5 -2.5q4 0 6.5 -0.5t5 -0.5h5.5h6h7
q2 1 2.5 2t0.5 4t-1.5 5.5t-4.5 4t-6.5 2t-6.5 0.5q-5 0 -10 -3t-5 -9zM61 19q0 2 2 3t3 1h64q1 0 3 -1t2 -3v0q-1 -1 -2 -2.5l-1 -1.5h-66q-1 0 -3 1.5t-2 2.5z" />
</svg>
