<?xml version="1.0" standalone="no"?>
<!DOCTYPE svg PUBLIC "-//W3C//DTD SVG 1.1//EN" "http://www.w3.org/Graphics/SVG/1.1/DTD/svg11.dtd" >
<svg xmlns="http://www.w3.org/2000/svg" xmlns:xlink="http://www.w3.org/1999/xlink" version="1.1" viewBox="-10 0 266 256">
   <path fill="currentColor"
d="M85 211v23v4t1 5.5t2.5 5t3.5 2.5h1l4 -2v-6q0 -12 -2 -22.5t-2 -22.5q0 -14 3 -28t3 -28q0 -7 -2 -11t-4.5 -7.5t-4 -5.5t-1.5 -5v-2l2.5 -5t3.5 -6.5t3 -7t1 -6.5t-2 -4.5t-5 -2.5l-1.5 2.5t-3 6t-3 7.5l-3 8t-3 7t-2.5 4q-2 5 -5 8.5l-6 7t-5 7.5t-4 9q-5 13 -6 26
t-1 26v4.5t0.5 5.5t1.5 5.5t4 2.5q1 0 2 -1l2.5 -2.5t2 -3t0.5 -2.5t-0.5 -2.5t-0.5 -2.5v-13q0 -3 0.5 -9t1.5 -13t2.5 -14.5t4 -14t6 -10.5t7.5 -4t6 4q2 7 3.5 12.5t1.5 12.5q0 8 -2 18t-5 18v22zM123 242q0 2 1 3t2 1h3h3h2h3v-4t0.5 -6t0.5 -6v-4v-2q0 -4 -1.5 -9.5
t-1.5 -9.5q0 -2 -0.5 -9t-1 -14.5t-1 -14t-0.5 -9.5q-3 -5 -4.5 -12t-1.5 -13q0 -4 0.5 -9l1 -10t1.5 -10t3 -8q2 -4 6.5 -7.5l9 -7t8 -7t3.5 -7.5v-34l-2 -1q-1 -1 -4 -2l-6 -2t-5 -1.5t-4 -0.5h-2h-4h-5h-4h-3h-4.5h-5.5h-3q-1 1 -1.5 2.5t-0.5 2.5v2q2 0 6.5 0.5t9.5 0.5
t9.5 0.5t6.5 0.5l2.5 0.5t4.5 1.5l5 1v27q0 2 -4.5 6t-10 8.5t-10.5 10t-6 9.5v5q0 4 -0.5 8t-0.5 7v6v6t0.5 8t0.5 7v4t0.5 3.5t1 5.5l1 6l0.5 3q1 9 1 18t1 18q0 3 1.5 6.5t1.5 6.5q0 2 -0.5 5.5l-1 7t-1 6.5t-0.5 5v0.5v0.5zM204 241q1 3 3 4t4 1t3 -0.5t2 -2.5
q0 -1 0.5 -4.5t0.5 -4.5q0 -7 -1.5 -14t-4 -14t-5.5 -14t-5 -14q-2 -3 -3 -5.5l-2 -5t-1.5 -4.5t-0.5 -5v-2v-1q0 -1 1 -2t1.5 -2t1.5 -2l1 -1q5 -7 8 -16.5t2 -18.5q0 -2 -1 -4.5t-3.5 -5l-4.5 -4.5t-4 -2h-42q-4 0 -6.5 3t-2.5 7h49q1 0 1.5 1t1.5 2t1.5 2.5l0.5 1.5v1
q0 2 -1 6.5t-2.5 9t-3.5 8.5t-4 4q-3 0 -4.5 -1.5t-3 -3.5t-3.5 -4t-4 -3h-3h-3h-4h-2h-4.5h-7t-6.5 1.5t-3 4.5v0.5v0.5q1 1 2 1.5t2 0.5h24l2 1.5t3.5 3.5t3.5 3.5t3 3.5v0.5v1.5q0 4 -5.5 7.5t-12 7t-11.5 7t-4 6.5q1 2 2.5 2.5t2.5 0.5q5 0 8.5 -2t7 -4.5t7 -4.5t8.5 -2
q3 0 6.5 6t6 14.5t4.5 16t2 10.5q1 1 1 4t0.5 6.5t0.5 7v4.5zM41 88q0 1 1.5 1.5l3 1t2.5 0.5h2q2 0 3.5 -1t2.5 -1.5l2 -1t2 -0.5q6 -3 12 -7.5t10.5 -10t7.5 -11.5t3 -14q0 -6 -1.5 -12t-5 -10.5t-9 -7.5t-11.5 -3q-3 0 -4.5 0.5t-1.5 3.5t3.5 5.5t7.5 6t7.5 8t3.5 12.5
q0 6 -4 12t-10 11t-12.5 8.5t-12.5 5.5l-0.5 1.5t-1.5 1.5v1zM167 77q0 3 2 4t5 1q6 0 10.5 -0.5t8.5 -2t7.5 -4t7.5 -6.5q1 -1 2 -3l1 -2v-29q0 -1 -1 -2.5t-2.5 -3t-3.5 -2.5t-3 -1h-13h-4.5h-7.5t-7 1.5t-3 4.5v1.5t2 1.5h4.5h7.5h7.5h4.5q3 0 5.5 1.5t3.5 3.5v6
q0 4 -0.5 9.5t-1.5 8.5l-1.5 1.5t-2.5 3t-2.5 2.5t-2.5 1l-22 4l-0.5 0.5z" />
</svg>
