<?xml version="1.0" standalone="no"?>
<!DOCTYPE svg PUBLIC "-//W3C//DTD SVG 1.1//EN" "http://www.w3.org/Graphics/SVG/1.1/DTD/svg11.dtd" >
<svg xmlns="http://www.w3.org/2000/svg" xmlns:xlink="http://www.w3.org/1999/xlink" version="1.1" viewBox="-10 0 266 256">
   <path fill="currentColor"
d="M72 249q1 1 2.5 1.5t3.5 0.5q3 0 4 -2t1 -4v-2l-0.5 -1.5l-0.5 -1.5q-1 -2 -2 -6l-1 -4v-38q0 -5 2.5 -10.5t5.5 -12t5.5 -13t2.5 -13.5v-4.5t-1 -4.5q0 -3 -2 -4t-3.5 -2.5t-2.5 -3t-1 -4.5t1 -5.5t2.5 -4.5t2.5 -4.5t1 -6.5q0 -1 -0.5 -4t-0.5 -4q-1 -1 -2.5 -2
t-2.5 -1h-1q-1 0 -2 1.5l-1 1.5q1 13 -4.5 23t-12 20t-12 21t-5.5 23q0 2 1.5 3.5t2.5 1.5q3 0 5.5 -5.5t4.5 -12.5t4 -13.5t3 -8.5l1 -2t2.5 -4l3 -4l1.5 -2h2q2 0 4 2l4 4v8q0 6 -2 11.5t-4.5 10t-5.5 9.5t-5 11v3.5t-0.5 5.5t-0.5 6.5v5.5q-1 4 -1.5 10t-0.5 10
q0 5 2 10.5t3 10.5zM106 200q3 3 6 3.5t6 0.5q6 0 10.5 -1.5t9.5 -2.5h3h6h5h3q3 0 10.5 -0.5t15.5 -1t15.5 -1t10.5 -0.5q2 0 2.5 -1.5t0.5 -2.5q0 -3 -2 -4.5t-5 -1.5q-11 0 -21 1.5t-21 1.5v-4.5t-0.5 -7.5t-0.5 -7v-6q1 -2 1.5 -5t3.5 -4q8 -1 15 -2.5t16 -2.5v-2
q0 -1 -0.5 -2t-1.5 -2h-2.5h-3.5q-7 0 -14.5 2t-14.5 3h-4h-7h-6h-4t-4 0.5l-6 1t-5.5 1t-3.5 0.5t-1.5 0.5l-0.5 0.5v1v1l0.5 0.5t1.5 0.5h28l2 2v2.5v3.5q0 3 0.5 6.5t0 7l-1 7t-2.5 5.5q-4 0 -8.5 1t-9 1t-9 0.5t-7.5 0.5q-1 0 -4 1.5t-3 4.5h0.5h0.5zM120 109v8
q0 6 1 11.5t3 9.5t6 4q3 0 4 -1.5t2 -3.5q-6 -5 -7 -12t-1 -15q0 -4 1 -8.5t2.5 -9t2.5 -9t1 -9.5v-2v-3.5v-3.5v-2q-1 -2 -2 -3.5t-4 -1.5q-2 0 -3 0.5t-1 2.5q0 4 1 7.5t1 8.5q0 6 -2 11t-5 10v11zM147 107v3v4v4v2l0.5 1.5t1.5 3t1.5 3l0.5 1.5q0 1 0.5 2.5t1 3.5
t1.5 3.5t2 1.5q2 0 3 -1.5t1 -3.5q0 -4 -1 -8l-2 -8t-2 -8.5t-1 -8.5t1 -7.5t2 -6.5t2 -6.5t1 -7.5q0 -7 -1.5 -12t-7.5 -9h-1h-1q-1 1 -1.5 2l-0.5 1q0 4 3 8t3 8q0 5 -1 9t-2 8.5t-2 8.5t-1 9zM179 136q4 1 7 1q2 0 3.5 -2t1.5 -4t-1.5 -4l-3 -4t-2.5 -4t-1 -4v-19
q3 -6 4.5 -12t1.5 -13v0q-1 -5 -3.5 -9.5t-4.5 -8.5q-1 -1 -2.5 -1h-3.5h-2t-1 1q1 3 2.5 5.5t2.5 5l2 5t1 5.5q0 4 -1 7.5t-2.5 6.5t-2.5 6.5t-1 7.5q0 9 2 17t4 17zM91 59q0 4 -2.5 5.5t-5.5 3.5q-6 5 -12.5 10.5t-12 12t-9 13.5t-3.5 16q5 0 8 -2.5t5 -7t3.5 -8.5t4.5 -7
q1 -1 3 -3.5t4.5 -4.5t4.5 -4l3 -3l2 -1.5t3 -1.5l3 -3t4.5 -4t3.5 -3.5l1 -1.5v-18l-2.5 -1.5t-3.5 -1.5t-3.5 -0.5t-5.5 -1t-5.5 -1t-3.5 -0.5l-0.5 -0.5l-1.5 -1.5l-1 -1.5l-1 -1.5v-24l-1 -0.5l-2 -1t-2 -0.5h-1q-1 0 -2.5 0.5l-1.5 0.5q-1 0 -1.5 1t-0.5 2v1v0v0
q0 1 1 3.5t1 3.5v4t0.5 6t0.5 6v4q3 4 8 5.5t9.5 3t8 3t3.5 5.5zM109 44q6 1 10 1h9h6t6 -1l60 -3q3 0 3.5 -2.5t0.5 -4.5q-23 0 -46 2t-46 3q0 1 -1.5 2l-1.5 1v0.5v0.5v0.5v0.5z" />
</svg>
