<?xml version="1.0" standalone="no"?>
<!DOCTYPE svg PUBLIC "-//W3C//DTD SVG 1.1//EN" "http://www.w3.org/Graphics/SVG/1.1/DTD/svg11.dtd" >
<svg xmlns="http://www.w3.org/2000/svg" xmlns:xlink="http://www.w3.org/1999/xlink" version="1.1" viewBox="-10 0 266 256">
   <path fill="currentColor"
d="M120 247q1 2 2 2.5t3 0.5t4 -1t3 -3v-5.5v-7.5v-7.5v-4.5q0 -2 0.5 -5t0.5 -4q20 -2 40 -3.5t39 -1.5q1 0 1.5 -0.5t0.5 -1.5t0.5 -4t0.5 -4h-46v-12l1.5 -0.5t2.5 -1.5q1 0 4.5 -0.5t7.5 -1t7.5 -1t4.5 -0.5l1 -0.5l1 -0.5v-3.5v-3.5h-30q0 -7 0.5 -9t2.5 -2.5t6 -0.5
t10 -1q2 -1 2.5 -2t1.5 -2t1.5 -2t1.5 -1q2 -1 4.5 -0.5t5 0t4.5 -1.5t2 -4q0 -4 -6.5 -6.5t-14 -4t-13.5 -3.5t-6 -5v-1v-1q2 -1 7 -2.5l10 -3t9 -3t4 -2.5q0 -3 -6 -6.5t-13 -7.5t-14.5 -7t-11.5 -3q-3 0 -7.5 2.5t-10 7t-11.5 9.5t-10.5 10t-7.5 8.5t-3 5.5q0 1 2 1.5
t3 0.5h2q2 -2 4.5 -4t5 -3.5t5.5 -3t5 -1.5q3 0 6 1.5t5 3.5q-7 6 -11 10.5t-6.5 9t-3.5 10.5t-2 14q0 1 0.5 8t0.5 15v14t-1 8v3t-0.5 4t-0.5 4v2v9v8zM67 202q1 2 2 6t2 9.5t2 11.5t2.5 10.5t4 7.5t6.5 2q2 -1 3.5 -4.5t1.5 -5.5q0 -5 -2 -11.5t-4.5 -13t-4.5 -12.5
t-2 -12q0 -8 2 -16.5t4.5 -16t4.5 -15.5t2 -16q0 -6 -3 -10.5t-3 -10.5q0 -3 1.5 -5t2.5 -4t2 -4.5t1 -5.5q0 -4 -1 -7t-5 -3q-2 0 -2.5 0.5t-1.5 3.5q-2 6 -3.5 10t-4 6.5t-6 5t-9.5 6.5q-9 9 -13 20t-4 24v2v3.5v3.5v2q1 2 2 2h2h1.5t1.5 -2q2 -2 3 -6t1.5 -7.5t0.5 -7
t1 -5.5l0.5 -2t1.5 -4l2 -4l2 -4q1 0 1.5 -1.5t2 -3t3 -2.5t2.5 -1q3 0 5 2.5t3 6t1 7v5.5v2q0 1 -1 3t-2 5t-1.5 5t-1.5 2q0 3 -1 7.5t-2.5 9t-2 8t-0.5 4.5l-0.5 4t-0.5 6q0 1 0.5 5t0.5 5zM132 194q0 -1 -0.5 -4t1.5 -3q1 0 3 -0.5t5 -0.5t5 -0.5t3 -0.5h2h1q2 1 4 1.5
l2 0.5v12l-2 0.5t-4 0.5h-9h-10q-1 0 -1 -1t-0.5 -2t0 -2zM132 172q0 -4 1.5 -6t4 -3t5.5 -1h6h4.5t4.5 1v2.5v2.5q0 3 -1.5 5t-4 3t-5.5 1h-6h-4h-4q-1 -1 -1 -2v-3zM150 135q1 0 2.5 1.5t2 3.5l1 4t0.5 3v3h-3t-5 0.5t-5 1t-3 0.5h-1.5h-2.5q0 -2 1.5 -5t3.5 -5.5
t4.5 -4.5t4.5 -2zM165 137q2 0 6 0.5t7.5 2t6.5 3t3 3.5v0.5v0.5l-0.5 1t-1.5 1h-18q-1 0 -1.5 -1l-0.5 -1q0 -1 -0.5 -5t-0.5 -5zM140 115q0 -3 1.5 -5.5t3 -4t4.5 -3.5t5 -4h2q2 0 5 1.5t6 3.5t5.5 4.5t2.5 4.5q0 3 -2 4t-4 1t-3 -1.5l-2 -3t-2 -3.5t-3 -2q-1 -1 -2 0
l-1 1v14l-0.5 0.5t-1.5 0.5h-1q-1 0 -3.5 -0.5t-4.5 -1.5t-3.5 -2.5t-1.5 -3.5zM110 47q0 6 -0.5 13.5t0.5 13.5t4.5 10t11.5 4h7h4.5t5 -0.5t4.5 -1l2 -0.5l2 -4v-56l-7 -6q-1 -1 -3 -1h-5q-5 0 -9 0.5t-7.5 1.5t-6 4t-3.5 8v14zM49 82q0 1 1 3t4 2q2 0 4 -1.5t4.5 -3
t4.5 -3.5t3 -2q6 -3 9.5 -6t5.5 -6t3 -7.5t1 -10.5t-2 -12.5t-5.5 -12t-9 -8.5t-13.5 -3q0 5 3 9l6 8l6 8t3 9q0 8 -4.5 14t-9.5 10t-9.5 7t-4.5 6zM166 50v20v3.5t1 5.5t3 5t5 2h24q2 0 3.5 -1.5t2.5 -4t1.5 -5t0.5 -3.5v-49q0 -2 -2.5 -3t-5.5 -1.5t-5 -0.5h-4h-8
t-7.5 0.5t-6 3t-2.5 8.5v20zM120 73q0 -3 1.5 -4.5t4.5 -2t6 -0.5h5h7q1 2 1 3v2q0 7 -3.5 8t-9.5 1h-4q-3 0 -4.5 -0.5t-2.5 -2t-1 -4.5zM174 66h26q0 7 -5.5 9.5t-10.5 2.5h-6q-3 -2 -3.5 -5.5t-0.5 -6.5zM116 56q0 -3 2 -4.5t5 -3t6 -2t5 -0.5q3 0 4.5 0.5t3.5 1.5v2v2
q0 4 -1.5 5.5t-4 2t-5.5 0.5h-5q-1 0 -4 -0.5t-4 -0.5t-1.5 -0.5t-0.5 -2.5zM173 52v-4q6 -1 9.5 -1.5t9.5 -0.5h5l2 4v1q0 3 -2 4.5t-5 2t-6 0.5h-5q-4 0 -6 -1t-2 -5zM137 28q4 0 4.5 1t0.5 5v1.5v2.5q-6 2 -12.5 2h-12.5q0 -4 1.5 -6.5t4.5 -4t6.5 -1.5h7.5zM175 33
q0 -3 2 -4.5t4.5 -2t5.5 -0.5h5t3.5 2t1.5 4v1l-1 2.5t-3 2.5h-15q-2 0 -2.5 -2t-0.5 -3z" />
</svg>
