<?xml version="1.0" standalone="no"?>
<!DOCTYPE svg PUBLIC "-//W3C//DTD SVG 1.1//EN" "http://www.w3.org/Graphics/SVG/1.1/DTD/svg11.dtd" >
<svg xmlns="http://www.w3.org/2000/svg" xmlns:xlink="http://www.w3.org/1999/xlink" version="1.1" viewBox="-10 0 266 256">
   <path fill="currentColor"
d="M159 247q0 2 2 3t3 1q3 0 5 -2t2 -5v-83l3 -1.5t4 -1.5l2.5 -0.5t5.5 -0.5h5.5h4.5h3.5h7t6.5 -1.5t3 -4.5v0q0 -1 -0.5 -1.5l-0.5 -0.5h-39q-1 0 -3 -1.5t-2 -3.5v-26q0 -2 3.5 -2t8 -0.5t8.5 -2t5 -4.5q4 -18 4.5 -35.5t-0.5 -36.5q1 -2 1.5 -3.5t0.5 -4.5v-4
t-0.5 -4.5t-1.5 -4t-3 -2.5q-1 0 -3.5 1t-3.5 3q0 2 0.5 9.5t0.5 15.5t-0.5 15.5t-0.5 9.5v9q0 5 -0.5 10.5t-2.5 10t-6 6.5q-1 1 -3 1t-4.5 0.5t-5.5 0.5h-4q-8 0 -11 -3.5t-3.5 -8t-0.5 -9.5t-3 -9v-3.5v-5.5v-6v-4q0 -8 1 -15.5t1 -15.5q0 -3 -2 -6.5t-5 -3.5
q-2 0 -3 1.5t-1.5 3.5t-0.5 4.5v4.5q0 17 0.5 34.5t3.5 34.5q0 6 4 8.5t8 4t7 2.5t3 2v27l-0.5 1.5t-1.5 2.5q0 1 -0.5 2l-0.5 1h-36l-0.5 0.5t-0.5 1.5v1v0l1 2.5t2 2.5h35q1 0 1 1t0.5 2.5t0.5 3v2.5v22q0 15 -1.5 29.5t-1.5 28.5zM68 163v80q0 2 1.5 2.5t3.5 0.5
q3 0 5 -3q0 -1 -0.5 -4t-0.5 -6t0.5 -6t0.5 -4v-5v-8t1 -7t3 -5q1 0 2.5 -1l3 -2t2.5 -2t2 -1q1 -2 2 -6t1 -8.5v-8.5v-6l0.5 -1t1.5 -1q5 -3 9 -6t6.5 -6t3.5 -7.5t1 -11.5v-3q0 -4 0.5 -8.5t0.5 -8.5v-8v-5t-0.5 -8.5t-0.5 -8.5v-5t-0.5 -4t-1.5 -6t-1.5 -6t-1.5 -4
q0 -3 -2 -4.5t-4.5 -3t-4 -3t-1.5 -3.5v-27q0 -3 -1 -3.5t-3 -0.5q-3 0 -5 2t-2 6v7t0.5 10t1.5 10t4 6l6 4.5t3 5.5q4 8 4 18v18v12t-0.5 10t-0.5 10t-1 12q-2 3 -2.5 4t-2 2t-3 1h-4.5q0 -9 0.5 -19.5t0.5 -20.5t-1 -20l-2 -20h-3q-1 0 -2 0.5t-2 1.5v11q0 19 1 38.5
t1 38.5v14q0 1 -0.5 3.5t-1.5 5t-2 4t-3 1.5h-1q-1 -10 -2 -19t-1 -19q0 -5 1 -9.5t1 -9.5q0 -14 -1.5 -27t-0.5 -27q0 -4 -2.5 -5.5t-5.5 -1.5v79l-1.5 1.5t-1.5 2.5h-1q-1 0 -2 -1t-1.5 -2t-1.5 -2.5l-1 -1.5q0 -1 -0.5 -2.5t-1 -3.5t-1 -3.5t-0.5 -2.5v-23v-18t1.5 -16
t5.5 -14.5t12 -13.5v-2v-4v-3v-3q0 -2 0.5 -6.5t0 -8.5t-2.5 -7t-6 -3q-3 0 -4 0.5t-1 3.5q0 6 2 11t2 11q0 5 -2.5 8.5t-5.5 6.5l-6.5 6.5t-4.5 7.5q-2 4 -2 8v9v8.5v7.5v14q0 8 0.5 15t2.5 14.5t5 13.5q4 4 7 5.5t9 2.5z" />
</svg>
