<?xml version="1.0" standalone="no"?>
<!DOCTYPE svg PUBLIC "-//W3C//DTD SVG 1.1//EN" "http://www.w3.org/Graphics/SVG/1.1/DTD/svg11.dtd" >
<svg xmlns="http://www.w3.org/2000/svg" xmlns:xlink="http://www.w3.org/1999/xlink" version="1.1" viewBox="-10 0 266 256">
   <path fill="currentColor"
d="M123 210q3 4 8 10.5t11 13t12.5 12t10.5 5.5h1q0 -1 1.5 -2.5l2.5 -2.5v0q0 -3 -2.5 -5.5t-6 -5t-7 -4.5t-4.5 -4q-6 -4 -11 -10t-8 -12v-1v-1q0 -1 2 -2.5t3.5 -3.5t3.5 -4t2 -3q1 0 2 -2.5t1 -3.5l2 -1q7 -1 14.5 -2.5t13 -5t9.5 -9t4 -14.5q0 -6 -2.5 -10.5t-6 -7
t-8 -5t-8 -4.5t-6 -5t-2.5 -7q0 -2 1 -4.5t4 -2.5h33q3 0 3 -1v-3q0 -3 -0.5 -4t-3.5 -1q-9 0 -17.5 2t-17.5 2q-6 0 -10 -0.5t-11 -1.5q-1 -3 -1 -6v-5v-4v-4q1 -2 4 -2.5t7.5 -1l9 -1t8.5 -2t7.5 -5t5.5 -9.5q3 -9 4.5 -17t1.5 -17q1 -2 -1 -2.5t-3 -0.5h-3q-1 0 -2 2
v11.5t-1.5 12.5t-4 11.5t-7.5 9.5q-4 0 -9.5 1.5t-10.5 1.5h-4q-1 0 -1 -3v-10q0 -9 1 -17.5t1 -17.5v-10q-1 -2 -2 -2h-3t-3 0.5t-2 2.5v58q0 2 -1.5 2.5t-2.5 0.5q-4 0 -8.5 -1.5t-8.5 -4.5t-6 -7t-3 -9l-3 -32l-1 -0.5l-1 -0.5h-3.5h-3.5q0 11 2 22.5t5 22.5q3 7 8 10
t10 3.5t9 1.5t6 4v3v3q0 2 0.5 5t-1.5 5h-2.5h-3.5t-3.5 0.5t-2.5 0.5h-1v0q-1 0 -3.5 -0.5l-2.5 -0.5h-38h-3t-3 1q-1 0 -1.5 0.5t-0.5 1.5q0 2 3 3.5t5 1.5q7 0 14 -0.5t14 -0.5h11q2 0 2 2.5v2.5q0 6 -2.5 9.5t-6.5 5.5t-8 3.5t-8 5t-6.5 9.5t-2.5 16v2q3 7 7.5 11t10 6
t12 2h12.5l1.5 1.5t0.5 1.5v1v1.5t0.5 4.5t1.5 6.5t1.5 6.5t0.5 4zM125 142q-2 -3 -6 -3q-1 0 -2 0.5t-1 1.5v33q0 1 -0.5 1.5t-1.5 0.5h-4q-4 0 -8.5 -1.5t-8 -4t-6 -6t-2.5 -8.5q0 -6 2.5 -10t6.5 -7t9 -5t10 -5q2 -1 2.5 -3t1 -4.5t0.5 -4.5v-4q1 -3 3 -4.5t5 -2t6 -0.5
h6h5h3l4 3v16q1 1 3.5 2t5 2.5t5 2.5t3.5 2t3.5 2.5t4.5 3.5t3.5 4.5t1.5 4.5q0 6 -2.5 10.5t-6 8t-8.5 6t-10 2.5q-2 0 -3 -0.5t-1 -2.5q0 -4 1.5 -7.5t2.5 -7t2.5 -7t1.5 -7.5q0 -2 -0.5 -2.5t-1.5 -2.5h-4h-2t-3 2v3.5v5.5v4.5v3.5q0 2 -0.5 4t-1 4.5t-1 4.5t-0.5 3l-1 2
t-2 4.5t-2 4.5l-2 4q-2 3 -2.5 3.5t-2.5 0.5h-1h-1q-2 -6 -3 -12.5t-1 -13.5v-13.5t1 -11.5z" />
</svg>
