<?xml version="1.0" standalone="no"?>
<!DOCTYPE svg PUBLIC "-//W3C//DTD SVG 1.1//EN" "http://www.w3.org/Graphics/SVG/1.1/DTD/svg11.dtd" >
<svg xmlns="http://www.w3.org/2000/svg" xmlns:xlink="http://www.w3.org/1999/xlink" version="1.1" viewBox="-10 0 266 256">
   <path fill="currentColor"
d="M112 202l0.5 0.5t0.5 1.5q1 0 3 3.5t4.5 6.5t4.5 6.5l2 3.5q0 1 2.5 2.5t4.5 4t5 5t4 3.5q4 4 9.5 7t11.5 3q2 0 3.5 -1t1.5 -3q0 -1 -5 -3.5t-11 -6.5t-11.5 -8.5t-5.5 -10.5q0 -1 0.5 -3.5t1.5 -5t2 -4t3 -2.5h19.5t16.5 -2.5t11.5 -8.5t4.5 -18v-2v-3t-0.5 -3t-0.5 -2
q-3 -6 -7.5 -10.5t-9.5 -8t-10 -6.5t-9 -6.5t-6 -8t-1 -11.5q-3 1 -4 2.5t-1.5 3t0 3.5t0.5 3q0 7 3 11t7.5 7t10 5.5t9.5 5.5t7.5 7.5t3.5 11.5q0 5 -2.5 9.5t-6.5 7.5t-9.5 5t-11.5 2v0v-1q-1 0 -2.5 -0.5l-3 -1t-3 -0.5h-1.5v-43q0 -2 -1.5 -2.5t-3.5 -0.5t-3 0.5t-1 2.5
q0 6 1.5 13.5t1.5 14.5v7t-1 6q-1 2 -2 4.5l-2 5t-3 5t-5 2.5l-1 -0.5l-1 -0.5q-1 -1 -2.5 -3.5t-3 -5.5t-3 -6.5t-1.5 -5.5v-1q0 -2 0.5 -5.5t1 -6.5t0.5 -5.5v-2.5q0 -1 0.5 -2.5t0.5 -3v-2.5v-2q0 -3 -0.5 -3.5t-2.5 -0.5q-3 0 -4.5 2t-1.5 4.5v5.5t-1 4v26q0 1 -1.5 1.5
t-3 0.5t-3 0.5t-2.5 0.5q-5 0 -10 -1.5t-8.5 -4t-6 -6.5t-2.5 -9q0 -9 5.5 -14t12 -9t12 -9t5.5 -14q0 -1 -0.5 -4t-1 -5.5t-2 -5t-4.5 -2.5q-1 0 -2 1.5t-1 2.5q0 3 1 5t1 4q0 7 -2.5 10.5t-6.5 6t-8.5 5t-9.5 6.5q-3 2 -4 4.5l-2 5t-2 5.5t-3 5q2 11 7 17t11.5 9t15 3.5
t18.5 0.5zM135 110q0 1 0.5 2.5t2.5 0.5q1 0 2 -1t1 -2q1 -1 2 -2.5t1.5 -3.5t1.5 -3.5t1 -2.5q2 -13 4 -27.5t6 -27.5q0 -1 1 -1h2q4 0 6 2.5t3 6t1.5 7t0.5 6.5q0 8 -1.5 16t-3.5 16q0 2 -2 6t-2 7q0 2 0.5 2.5t2.5 0.5q3 0 5.5 -3.5t4 -8.5t3 -11t2.5 -12t1.5 -11t0.5 -7
q0 -8 -2 -13t-6 -8t-10 -4t-13 -2q-3 -1 -9 -1.5t-12.5 -1t-12.5 -1t-8 -1.5q-5 -1 -7.5 -3.5t-4 -5t-2.5 -4.5t-3 -2t-2.5 1l-1 2t-0.5 2.5v3.5q0 3 1.5 5t3.5 4t3.5 4t1.5 4q0 5 -1.5 10.5l-3 11l-3 11t-2.5 10.5v3l-0.5 1t-1.5 2.5t-1.5 3l-0.5 1.5q0 1 -0.5 2t-0.5 2
t0.5 2.5t3.5 1.5q4 -1 6 -5t3 -7q1 -1 1.5 -5t1 -8.5t1.5 -8t1 -4.5q0 -2 1 -5t2 -6.5t1.5 -7t1.5 -4.5t3 -2t3 -1q2 0 3.5 0.5t3.5 1.5t3 2.5t1 2.5t-0.5 2.5t-1.5 2.5q0 1 -0.5 3t-0.5 3q-2 10 -4 21t-5 21l-0.5 0.5l-1.5 1.5t-1 2v1q0 1 1 2t2 1v0.5v0.5q3 0 5 -2.5t3 -5
t1.5 -5.5t0.5 -4q1 -1 1 -3t0.5 -4.5t0.5 -4.5v-3q2 -8 4 -17t5 -17l1 -0.5l1 -0.5h11q1 0 1.5 0.5t1 1.5t0.5 2v2v4l-0.5 1.5l-1 3t-1 2.5t-0.5 2l-0.5 3t-0.5 6t-0.5 5.5t-0.5 3.5q-1 8 -4 16.5t-5 17.5v1z" />
</svg>
