<?xml version="1.0" standalone="no"?>
<!DOCTYPE svg PUBLIC "-//W3C//DTD SVG 1.1//EN" "http://www.w3.org/Graphics/SVG/1.1/DTD/svg11.dtd" >
<svg xmlns="http://www.w3.org/2000/svg" xmlns:xlink="http://www.w3.org/1999/xlink" version="1.1" viewBox="-10 0 266 256">
   <path fill="currentColor"
d="M70 243q0 6 6 6h2t1 -1q3 -5 2.5 -10t-0.5 -11v-5.5t0.5 -9t0.5 -8.5v-6l1 -0.5l1 -0.5l1.5 -1t3 -1.5t3 -1.5l1.5 -1q3 -2 4.5 -5t2 -7t1 -7.5t0.5 -6.5q1 -2 3 -4t4.5 -4l5 -4t3.5 -3q5 -6 7 -13.5t2 -15.5t-0.5 -16t-0.5 -15v-5v-8v-8v-5q-1 -4 -2.5 -8.5t-3.5 -8.5
q-1 -1 -3.5 -2l-5 -2t-4.5 -2.5t-2 -4.5l0.5 -1.5t0.5 -3.5t0.5 -3.5t0.5 -2.5v-2v-2q0 -3 -0.5 -6.5t-5.5 -3.5v0q-1 0 -2 1.5l-1 1.5v27q0 2 2 4.5t5.5 5t6 5.5t3.5 6q0 1 0.5 3l1 4l1 4t0.5 3v22v21q0 4 -1 9t-2.5 9.5t-4.5 8t-8 3.5v-85q0 -3 -0.5 -3.5t-2.5 -0.5
q-3 0 -4.5 9.5t-1.5 23v30t-0.5 30.5t-2.5 23t-6 9l-1 -1l-1 -1v-119q0 -2 -2 -3t-3 -1q-2 0 -3.5 1t-1.5 3v73q0 2 -1.5 6t-4.5 4t-5 -6t-3 -13t-1 -13.5v-8.5v-3v-8t0.5 -9.5t0.5 -8.5v-4q1 -8 5.5 -12.5t10.5 -9.5l2.5 -2.5l3 -3t2.5 -3l1 -1.5v-24q0 -2 -1.5 -3t-3 -1.5
t-3.5 -0.5h-3q0 6 1 11t1 10q0 4 -2.5 6.5t-6.5 5t-7.5 6t-6.5 8.5q-1 4 -2 9t-1 10.5v10.5v9v20q1 2 1.5 2.5t0.5 1.5v1v3t0.5 5t1 6.5t1 6.5t0.5 4q1 4 3 6t4 2.5t4.5 1t4.5 2.5t3.5 7.5t1.5 14.5q0 15 -1.5 30t-1.5 30zM138 146q2 4 2 11.5t1 15t4.5 13t10.5 5.5
q4 0 9 -0.5l10 -1t9 -1t8 -1.5q5 -1 7.5 -4.5t3.5 -8.5t1 -11t-0.5 -11.5t0 -10.5t2.5 -8v-4v-6v-6v-4v-13q0 -5 -0.5 -10.5t-1 -11.5t-1.5 -13l-3.5 -3.5l-3.5 -3.5t-4 -1.5t-6 -1.5t-5.5 -2t-2.5 -3v-37q0 -1 -2 -1h-3q-2 0 -3 0.5t-2 2.5v9t-0.5 10t-0.5 9.5t-1 8.5
q-2 3 -6 3.5t-6 2.5q-8 5 -11.5 11.5t-4.5 13.5t-0.5 15.5t0.5 17.5v30zM154 178q-6 -12 -7 -22.5t-1 -23.5q0 -2 0.5 -3t3.5 -2q11 -1 18.5 -1.5t17.5 -0.5h5h4l1 2l0.5 2.5t0.5 3.5q0 3 -0.5 5.5l-1 5l-1 5t-1.5 5.5q-1 8 -2 13t-3 8t-6.5 4t-13.5 1h-7.5t-6.5 -2z
M146 112v-5v-6v-4.5t0.5 -5t0.5 -6.5q4 -1 4.5 -5t1.5 -7.5t5.5 -6t16.5 -2.5q8 0 12 3t6.5 7.5t2.5 11v12.5q0 1 0.5 4t0 6t-1 5.5t-2.5 2.5h-41q-1 0 -3.5 -1t-2.5 -3z" />
</svg>
