<?xml version="1.0" standalone="no"?>
<!DOCTYPE svg PUBLIC "-//W3C//DTD SVG 1.1//EN" "http://www.w3.org/Graphics/SVG/1.1/DTD/svg11.dtd" >
<svg xmlns="http://www.w3.org/2000/svg" xmlns:xlink="http://www.w3.org/1999/xlink" version="1.1" viewBox="-10 0 266 256">
   <path fill="currentColor"
d="M70 159v88q0 1 2 1h3t3 -0.5t2 -2.5v-59q0 -2 1.5 -3t3.5 -2.5t3.5 -2.5t2.5 -3l0.5 -2t1.5 -5t1.5 -5t1.5 -4v-1.5t0.5 -3t0.5 -3v-1.5q1 -1 1.5 -2l0.5 -1q2 -2 3.5 -2.5t2.5 -1t2 -1.5t3 -4q4 -6 5.5 -13t1.5 -15t-0.5 -16t-0.5 -15q0 -2 0.5 -5.5t0 -7.5l-1 -8
t-2.5 -6q-1 -1 -2 -2.5t-3 -3t-4 -2.5t-4 -1q-1 -7 -1.5 -14t0.5 -13q-1 -2 -2.5 -3t-3.5 -1v0.5t-1 0.5q-1 4 -1 8v8q0 9 1.5 13t3.5 6t5 4.5t6 9.5v5v7v8v5v6v8v7v3v6t-1 8t-2.5 7t-5.5 3h-1l-0.5 -1.5l-0.5 -1.5v-23q0 -10 0.5 -19.5t0.5 -19.5v0q0 -1 -1.5 -4t-3.5 -4
l-2.5 2.5t-1.5 3.5v3v4v3v3q0 7 0.5 13t0.5 13v1v6t-0.5 10t-0.5 10v6q0 2 -0.5 6.5t-1 9.5t-1.5 9t-4 4l-2 -7v-100l-1.5 -1.5t-2.5 -1.5l-0.5 -0.5l-0.5 -0.5q-2 0 -2.5 2t-1.5 4v23v10.5t-0.5 12.5t-0.5 11v5l-2 6q-3 -1 -4.5 -6.5t-2 -12t0 -13t0.5 -9.5q0 -8 0.5 -15
t2 -12.5t5 -10.5t9.5 -12v-23q0 -3 -1 -3.5t-3 -0.5t-3 0.5t-2 3.5q0 8 -1 13.5t-3 10t-4.5 8.5t-5 9t-4 11t-1.5 14v3q0 3 0.5 8.5t1 12.5t1 13t0.5 8q1 6 2.5 8t3 2.5t3.5 0.5t5 2q2 0 2 2.5t0.5 5t0.5 5.5v4zM180 100q1 1 2 2.5t1 2.5l13 140q0 1 1 1.5t2 0.5q2 0 3.5 -1
t2 -3t0.5 -5v-4q0 -8 -1 -15.5t-2 -14.5q-3 -23 -5.5 -48t-2.5 -49v-13q6 -7 8 -15.5t2 -17.5q0 -12 -6.5 -17.5t-16 -7t-20 -1.5h-18.5h-2h-4t-4 0.5t-3 1t-1 3.5q0 1 0.5 2.5t2.5 1.5h53q1 0 2.5 3t2.5 7.5t2 8.5t1 5q0 5 -1 8t-3 7q-3 -1 -4.5 -3.5t-4.5 -4.5
q-4 -3 -8.5 -4t-9.5 -1.5t-9.5 -1t-7.5 -0.5q-1 0 -2.5 0.5t-3.5 0.5t-4 0.5t-3 0.5q-2 0 -2.5 0.5t-0.5 2.5v2t2 1h4.5h6.5h7.5h4.5q4 1 8 1.5t8 2t6 4.5t2 7v1v0q0 1 -0.5 1.5l-0.5 0.5q-4 1 -13 3t-18 3.5t-15.5 3.5t-6.5 4q0 3 3 3t6 -1t6 -1q4 0 4 3v6q0 5 -0.5 10.5
t-3.5 9.5h-11.5t-11.5 2v2v1.5t2 1.5h22l2 2v2.5v3.5v8t-2 8q-8 -1 -16 -0.5t-15 1.5q-1 0 -1 1v1q0 3 4 5h13q13 0 26.5 -1t26.5 -1q2 0 2 -1.5v-2.5q0 -2 -0.5 -3t-2.5 -1h-21q-4 0 -4.5 -3.5t-0.5 -5.5q0 -1 0.5 -3t0.5 -4t0.5 -4t1.5 -2h21q2 0 3.5 -1.5t1.5 -3.5l-3 -2
h-24q-1 0 -1.5 -1.5t-0.5 -2.5v-2q0 -1 0.5 -4.5t0.5 -7t0.5 -6.5t0.5 -4t0.5 -1.5l0.5 -0.5q6 -3 13 -4.5t13 -3.5z" />
</svg>
