<?xml version="1.0" standalone="no"?>
<!DOCTYPE svg PUBLIC "-//W3C//DTD SVG 1.1//EN" "http://www.w3.org/Graphics/SVG/1.1/DTD/svg11.dtd" >
<svg xmlns="http://www.w3.org/2000/svg" xmlns:xlink="http://www.w3.org/1999/xlink" version="1.1" viewBox="-10 0 266 256">
   <path fill="currentColor"
d="M156 95q0 2 -4 3t-9 2.5t-9.5 3.5t-6.5 6t-2.5 8.5t-1 9.5t-0.5 10v9q-1 12 -1.5 24t-3.5 24l-0.5 2l-0.5 2l-2 26t-1 26q5 0 9 -3q2 -16 2.5 -32t1.5 -32.5l2 -33t4 -31.5q0 -1 1 -4t2 -4q2 -3 4.5 -3.5t5.5 -2.5h18q0 1 0.5 1.5l0.5 0.5q1 0 3.5 -1l2.5 -1h2
q5 0 7.5 2.5t3.5 6.5q1 1 1.5 2l0.5 1q4 33 5.5 65.5t0.5 65.5q0 1 2 1h2q2 0 4 -1t2 -4q0 -33 -2 -65.5t-5 -65.5q-3 -8 -6.5 -10.5t-7 -3t-6 -0.5t-5 -1.5t-4 -6.5t-1.5 -16v-4.5v-4.5q1 -3 2.5 -4t4.5 -1q4 0 8 2t8 4.5t7.5 4.5t6.5 1l2 -1t3 -2l1 -1v-0.5v-0.5
q0 -3 -3 -5t-7.5 -3.5t-10 -3t-10 -2.5t-7.5 -3t-3 -4v-1.5v-0.5v-2.5t0.5 -5t0.5 -4.5v-2v-1q0 -1 -0.5 -4t-1.5 -5.5t-2.5 -4.5t-3.5 -2q-1 0 -2 1t-1.5 3t-0.5 3v3v3q0 1 0.5 3.5t0.5 5.5t0.5 5.5t0.5 3.5t-0.5 4t-1.5 4q-2 0 -8 2t-13 5.5t-12.5 7t-5.5 6.5q0 1 0.5 2.5
t2.5 1.5q4 0 8 -2.5t8 -6t8.5 -6t9.5 -2.5q2 0 3 1.5t1 4v4.5v2v10.5t-2 11.5zM68 245l3 1h1q3 0 5 -2.5t2 -5.5q0 -9 -1.5 -18.5t-1.5 -19.5q0 -5 0.5 -7.5t2 -5t3.5 -4.5t4 -6q4 -5 5 -11.5t2 -13.5q5 -1 8 -4t5 -7t3.5 -8t2.5 -8q0 -1 0.5 -2.5t0.5 -3.5v-3v-2
q0 -7 -0.5 -15t-1.5 -14q-1 -4 -3 -8t-4 -7.5t-3.5 -7t-1.5 -7.5v-1l7 -21q1 -1 0 -2t-2 -1.5t-2 -1.5t-2 -1q-3 0 -4.5 5t-3 11t-2 11t-0.5 6q0 4 1.5 7t3.5 6.5t4 6.5t3 6q2 7 2.5 13.5t0.5 14.5l-0.5 4t-1 9t-2 9.5t-4.5 4.5h-1v-4t-0.5 -6t-0.5 -6v-4v-3v-7v-7v-5
q0 -2 -0.5 -4.5t-1.5 -4.5t-2.5 -3t-4.5 -1q0 11 1 22t1 23v17q-1 2 -1.5 6t-2 7.5t-3.5 6.5t-5 3q0 -19 0.5 -38t0.5 -39v-6q0 -1 -1 -2t-2 -1l-1 0.5t-2 0.5l-0.5 0.5t-0.5 1.5q-1 6 -1.5 13.5t-0.5 15v14.5v12q0 2 -0.5 4.5t-2.5 2.5q-3 0 -4.5 -4.5t-2.5 -10t-1 -11
v-7.5v-10.5t1 -9.5q2 -6 5 -11.5t6 -10.5t5.5 -10.5t2.5 -11.5v-6t-1 -7.5t-3 -6.5t-5 -3q-4 0 -6 5q0 1 1 3.5l2 5t2.5 5t1.5 3.5q0 9 -3.5 15.5t-7.5 13.5t-7 14t-3 16q0 13 1.5 23.5t8.5 22.5q2 1 4 1.5t3.5 1.5t2 2.5t0.5 4.5v4v7t-0.5 7t-0.5 4v2v5v6v4v10v9.5t0.5 9
t0.5 10.5zM143 176q3 4 7.5 5t8.5 1q7 0 11 -2.5t6 -9.5q0 -2 0.5 -6.5t1 -10t0.5 -10.5t1 -7v0v-1v-2q0 -2 -0.5 -4t-1 -3.5t-1.5 -2.5h-1q-1 0 -4 1.5t-3 2.5v37l-3 9l-1.5 0.5l-1.5 0.5q-4 0 -7 -1.5t-4 -5.5q-1 -11 -1.5 -21t-0.5 -21q-4 0 -6.5 2.5t-2.5 6.5
q0 10 1.5 21t1.5 21z" />
</svg>
