<?xml version="1.0" standalone="no"?>
<!DOCTYPE svg PUBLIC "-//W3C//DTD SVG 1.1//EN" "http://www.w3.org/Graphics/SVG/1.1/DTD/svg11.dtd" >
<svg xmlns="http://www.w3.org/2000/svg" xmlns:xlink="http://www.w3.org/1999/xlink" version="1.1" viewBox="-10 0 266 256">
   <path fill="currentColor"
d="M70 246l2 2q1 0 2.5 1.5l1.5 1.5q2 0 3 -1.5t1.5 -3.5t0.5 -4v-2v-7v-11v-10.5v-7.5q-1 -3 1 -5t4.5 -4t4.5 -3.5t3 -4.5q1 -4 1 -8.5t2 -8.5l4.5 -4.5t5 -4.5t4.5 -4.5t4 -5.5q2 -4 2.5 -10t1 -12.5t0.5 -13v-10.5v-3q0 -3 0.5 -6t0.5 -7v-5v-4t-0.5 -6.5t-0.5 -6.5v-4
q0 -4 -2 -7t-4 -5.5t-4 -5.5t-3 -6v-4v-4q0 -4 1 -7t1 -6t-2 -3.5t-4 -0.5q-3 0 -4 3t-1.5 7.5t0 8.5t0.5 6v5.5v3.5l13 17v75q0 6 -3.5 11t-7.5 5v-89q0 -1 -2 -2t-3 -1t-2 0.5t-1 2.5v6v6v6v5t0.5 6.5t0.5 12.5t0.5 12.5t0.5 7.5q0 3 -0.5 8t-0.5 10.5t-0.5 11t-1.5 10.5
q0 1 -0.5 3t-1.5 4.5t-2 4t-2 1.5h-2t-1 -1v-45q0 -17 0.5 -33.5t0.5 -33.5q0 -2 -0.5 -3.5t-2.5 -1.5t-4.5 2t-2.5 4v84l-2 6h-1q-2 0 -3.5 -1t-2.5 -4q-1 -10 -1.5 -18t-0.5 -18v-16q0 -1 0.5 -6.5t1 -11.5t1.5 -11t1 -7v-0.5v-0.5q2 -6 5 -8.5t5.5 -5t4.5 -6.5t2 -13
v-7.5t-1 -8.5q-1 -2 -2 -2.5t-2 -0.5q-3 0 -5 2.5t-2 4.5v21q0 3 -1.5 4.5l-3.5 3.5t-4 3.5t-2 3.5q-5 12 -6.5 24t-1.5 26v12t0.5 19t2 18.5t5.5 10.5q2 2 6.5 4t6.5 5v7q0 12 -1 24.5t-1 25.5v13zM195 240q0 3 2 4t4 1q3 0 4.5 -3t1.5 -5q0 -31 -3 -61t-3 -61
q0 -1 -0.5 -5.5t-0.5 -10t-0.5 -10t-0.5 -5.5v-2q-2 -1 -7.5 -2.5t-10.5 -2.5t-9 -2t-4 -3v-9v-9q0 -1 0.5 -2.5t1.5 -1.5h35q2 0 3.5 -2t1.5 -4q0 -1 -2 -2t-3 -1h-9q-16 0 -32 0.5t-31 0.5l-11 2v2q0 3 2.5 5t5.5 2q2 0 4 -2h22q1 0 1.5 2.5t0.5 5v5.5v2v7q-3 4 -8 5
t-10 1.5t-9 3.5t-3 10q1 35 -1 69.5t-2 69.5v5v5q1 1 2 1.5t2 0.5q2 0 3 -0.5t2 -3.5l0.5 -2t0.5 -4t0.5 -4t0.5 -3v-2v-1q-1 -1 -1.5 -3.5l-0.5 -2.5q0 -1 0.5 -3.5l1 -5l1 -5l0.5 -2.5v-0.5v-1.5q0 -4 -0.5 -7.5t-0.5 -7.5q0 -2 0.5 -4t0.5 -5t-1 -6.5t-1 -6.5
q0 -1 0.5 -2.5t0.5 -2.5l4 -5t9 -10t9.5 -9l4.5 -4q1 0 6 3t10 6.5t9 7.5t4 5v12q0 2 0.5 8t1 13t1 13.5t0.5 7.5v7v10v10.5v6.5zM136 136q0 -11 0.5 -22.5t1.5 -22.5q3 -3 7.5 -4.5t7.5 -1.5h3q2 5 2 10v9v11q-1 3 -2.5 7t-4 8t-5.5 6.5t-7 2.5q-3 0 -3 -3zM168 95v-8
q1 -2 4 -2.5t4 -0.5q6 0 9 2.5t4.5 6.5t2 9t0.5 10q0 1 -0.5 4.5t-0.5 7.5t-0.5 7.5t-1.5 4.5h-0.5h-0.5v0h-1q-5 -5 -8.5 -9.5t-6 -9t-3.5 -10t-1 -12.5z" />
</svg>
