<?xml version="1.0" standalone="no"?>
<!DOCTYPE svg PUBLIC "-//W3C//DTD SVG 1.1//EN" "http://www.w3.org/Graphics/SVG/1.1/DTD/svg11.dtd" >
<svg xmlns="http://www.w3.org/2000/svg" xmlns:xlink="http://www.w3.org/1999/xlink" version="1.1" viewBox="-10 0 266 256">
   <path fill="currentColor"
d="M169 248q1 1 3 1.5l2 0.5q3 0 4.5 -2.5t1.5 -4.5v-5.5t-1 -5.5v-57q0 -1 -1 -4t-1 -4t0.5 -2.5t0.5 -3t0.5 -3l0.5 -1.5v-2q0 -12 -1 -24t-1 -25v-4v-5.5v-4.5v-2l2 -3q6 -3 11.5 -6t9.5 -7.5t6.5 -10t2.5 -12.5q0 -10 -3 -15.5t-8 -7.5t-11.5 -2h-14.5h-16.5t-15.5 1
q-1 0 -2 1.5t-2 2.5l0.5 1t1.5 2q2 0 8 -0.5t12 -0.5q7 0 13 0.5t8 0.5h3.5t5.5 0.5t5.5 1.5l2.5 1q2 1 2.5 2.5t0.5 2.5t0.5 4.5t0.5 4.5q0 3 -1 8t-3.5 9t-6 6.5t-7.5 2.5h-3l-1.5 -1.5l-2.5 -2.5t-2 -2.5t-2 -1.5l-1.5 -1l-1.5 -1h-28q-3 0 -3.5 1.5t-0.5 2.5t0.5 2.5
t1.5 1.5h28q2 0 2 2.5v3.5q0 2 -2 3.5t-4.5 2l-5 1t-4.5 0.5l-2.5 0.5t-4.5 0.5t-4 0.5t-3 0.5l-0.5 1.5t-1.5 1.5v1v1l2 1h6q5 0 9.5 -1.5t9.5 -1.5q4 0 5 2t1 6v48l2 3v3.5v6.5v8v6q0 17 -1 34t-1 34v4zM75 184v64h2.5t3 -0.5t3 -1.5t1.5 -2v-37q0 -1 0.5 -2l0.5 -1
q1 -1 2 -2.5t3 -3.5t3 -3.5t1.5 -2t1 -3t1.5 -4.5t1.5 -4t0.5 -3l1 -1l1 -1l9 -6q4 -2 6 -6t3 -8t1.5 -8.5t0.5 -8.5v-4t0.5 -9t0.5 -10v-9v-6q0 -4 -0.5 -9.5t-0.5 -9.5v-7l-1 -2.5t-1.5 -3t-0.5 -2.5t-0.5 -4.5t-0.5 -4v-2.5l-1.5 -1.5l-2.5 -2.5l-2.5 -2.5l-1.5 -1.5
q-4 -3 -4.5 -7.5t-0.5 -9.5q0 -4 1 -7t1 -7q0 -3 -0.5 -4.5t-3.5 -1.5q-1 0 -2.5 0.5t-1.5 1.5v3v4v4v3q0 9 0.5 16.5t5.5 14.5q1 1 3.5 2t2.5 3l3 17v64q0 2 -0.5 5t-1.5 6.5t-3 5.5t-5 2h-2t-2 -1v-92q0 -1 -2.5 -1h-3.5h-2t-1 3v2.5t0.5 3t0.5 3.5v2v93q0 1 -0.5 3.5
t-1.5 4.5t-2 3.5t-2 1.5h-2.5t-2.5 -2q-1 -29 -1 -58v-59q0 -1 -1.5 -1h-2.5q-3 0 -3.5 2t-0.5 4q0 17 1 33.5t1 33.5v23q-1 0 -2 0.5t-2 1.5v0q-2 0 -4.5 -3t-4 -7t-3 -7.5t-2.5 -5.5q0 -5 -0.5 -9t-0.5 -8v-7.5v-8.5q0 -10 0.5 -19.5t3 -18t7 -16.5t12.5 -15v-26
q0 -2 -2 -2.5t-3 -0.5q-4 0 -4 4t0.5 7.5t0.5 7.5q0 5 -2 8t-4.5 6t-5.5 6t-5 7q-2 6 -3 12.5t-1.5 13.5t-0.5 13.5v12.5v21t1.5 19.5t7 16.5t17.5 10zM132 227q0 2 0.5 3t3.5 1q1 0 2.5 -0.5t2.5 -1.5q1 -3 2 -11t1.5 -17.5t1.5 -17.5t1 -12q1 -3 1 -5q0 -3 -0.5 -5t0 -4
t1.5 -5v-3.5v-5.5v-6v-4q0 -2 0.5 -5.5t0 -7.5l-1 -8t-1.5 -6h-1h-2t-1 1q0 29 -1.5 55.5t-6.5 53.5q-1 3 -2 5.5t-1 5.5zM195 127q0 15 2 29.5t2 29.5q1 3 1 10t1 15t2.5 14t4.5 6q1 0 2.5 -0.5t1.5 -1.5v-6q0 -8 -1 -16.5t-3 -16.5t-3.5 -16t-2.5 -15v-11.5v-16.5v-17v-11
q0 -2 -1.5 -2h-2.5h-1h-1l-1 8v2.5v5.5v5v5zM179 43h-4h-2q-1 0 -2.5 0.5t-4 0.5t-4 0.5t-2.5 0.5h-6.5t-6 0.5t-4 2t-1.5 5.5q11 0 21 -1.5t21 -1.5q2 0 2.5 -1t0.5 -2q0 -2 -1 -2.5l-2 -1t-3 -0.5h-2z" />
</svg>
