<?xml version="1.0" standalone="no"?>
<!DOCTYPE svg PUBLIC "-//W3C//DTD SVG 1.1//EN" "http://www.w3.org/Graphics/SVG/1.1/DTD/svg11.dtd" >
<svg xmlns="http://www.w3.org/2000/svg" xmlns:xlink="http://www.w3.org/1999/xlink" version="1.1" viewBox="-10 0 266 256">
   <path fill="currentColor"
d="M182 182q2 9 3.5 17t2 16.5t1 16.5t2.5 17h1.5h1.5q4 0 5 -1.5t1 -5.5v-3v-2q0 -3 -1 -9t-1.5 -12.5t-1 -12t-1.5 -7.5q0 -3 -0.5 -6.5t-1.5 -7.5t-2.5 -7.5t-2.5 -6.5q-3 -4 -8.5 -6t-11.5 -3.5t-10 -4t-4 -8.5q0 -4 3.5 -6.5t8.5 -4t11 -2.5t11 -2t8.5 -2.5t3.5 -4.5
v-20l-6 -6h-1.5h-2.5h-3h-3q-3 0 -9 -0.5t-12 0t-11.5 2t-7.5 4.5l3 3h13v2.5t0.5 3.5t0.5 4v3l0.5 1l1 2t0.5 2v1q-1 3 -3.5 4.5t-5 2.5t-5 2.5t-2.5 4.5v19q0 2 3.5 4t8 4t8.5 3.5t5 2.5q1 0 2 1.5t2.5 3l3 3t2.5 1.5zM74 240q0 3 1 5t4 2t4 -2t1 -3v-39q0 -3 1 -5.5t3 -4
t4 -3.5t3 -5q2 -6 3 -12.5t1 -12.5l16 -15q1 -2 2.5 -7t2 -10.5t0.5 -11v-9.5v-13.5t-1.5 -14.5t-4.5 -13.5t-9 -11.5v-2v-4v-4v-2v-4v-4v-3v-2l1 -3l1 -3q0 -4 -1 -6t-5 -2q-3 0 -4 3.5t-1 5.5q0 3 1 5.5t1 5.5t-1 7t-1 8q0 6 2 10t4.5 6l5 4t2.5 4q1 6 1 10.5t0.5 8.5
t0.5 8v8v5.5v3.5q0 1 -0.5 2t-0.5 2t-0.5 2.5l-0.5 1.5v7.5t-0.5 6t-2.5 4t-7 1.5q0 -1 -0.5 -2.5t-0.5 -3.5t0.5 -4t1.5 -3v-50l-0.5 -1t-1.5 -2v0q-2 0 -2.5 8t-1 19t-1 24.5t-1.5 25t-2.5 19t-4.5 7.5v0q-1 0 -1.5 -1.5l-0.5 -1.5v-84v-2.5t0.5 -3t1 -3.5l0.5 -2
q0 -3 -1 -4t-3 -1q-3 0 -4 1.5t-2 4.5v3.5t-0.5 5t-0.5 5v3.5q0 3 -0.5 9t-0.5 13q0 6 0.5 12t0.5 9l-2 4q-2 0 -3.5 -1.5l-2.5 -2.5q-2 -8 -3.5 -16t-1.5 -17q0 -12 3 -23t10 -21q1 -2 3 -2.5t3 -1.5q1 -5 2 -7.5t1 -5.5v-5v-8v-5v-8t-1 -7t-4 -3t-4 1.5t-2 3.5
q1 7 1.5 11.5t0.5 10.5t-1.5 9.5t-3.5 7t-4.5 6.5t-4.5 8q-4 7 -5.5 14.5t-2.5 15.5t-0.5 15.5t0.5 14.5q0 10 3.5 14.5t7.5 7t8 4t4 6.5v4v7v7v4q0 13 -1 26.5t-1 26.5zM126 135q-2 4 -2.5 8t-0.5 8t-0.5 8t-1.5 7q0 1 -0.5 2l-1 2t-1 1.5t-0.5 1.5q-2 7 -2.5 16.5
t-2.5 17.5q-1 5 -3 10l-4 10t-3.5 10t-1.5 11q3 0 5 -0.5t4 -1.5q2 -4 3 -6.5l2 -5t1.5 -5.5t1.5 -8q4 -15 6.5 -29.5t4.5 -29t3.5 -29t3.5 -29.5l0.5 -2t1.5 -4t2 -4.5t1 -3.5q1 0 1.5 -1.5l0.5 -1.5q2 -2 5 -3t6 -1.5l6 -1t4 -0.5q2 0 6.5 -0.5t9.5 -0.5t9.5 0.5t5.5 0.5
q3 0 5.5 -1t2.5 -5q0 -3 -2.5 -4t-5.5 -1h-2.5t-5 0.5t-5 0.5h-2.5h-3.5h-3.5q0 -6 3.5 -8t7.5 -3.5l8 -3t4 -6.5t-1 -7.5t-3 -4t-5 -2t-7 -2.5q-3 -1 -6.5 -4.5t-6.5 -7.5t-6 -7t-4 -3q-3 0 -3.5 3t-0.5 5t2 6t2 6q0 1 -1.5 2t-2.5 2t-2.5 1.5t-1.5 1t-1.5 1.5t-2.5 2l-2 2
t-2 1t-3.5 1t-5.5 1.5t-5.5 1.5t-3.5 1t-1.5 0.5l-0.5 0.5v1v1l0.5 0.5t1.5 0.5h3h3q8 0 15 -3t13 -8q1 -1 1.5 -2l1 -2t1.5 -1.5t3 -0.5q1 0 5 1.5t7 3t6 4t3 5.5v2q-2 0 -4.5 1l-5 2t-4.5 2t-4 3l-1 2.5t-3 5l-4 5t-4 2.5q-1 0 -2.5 0.5t-4 0.5t-4.5 0.5t-3 0.5t-2.5 2
t-3.5 4.5t-3 4t-1 2.5zM171 124q-1 -1 -1 -2.5v-3.5t-0.5 -3.5t-0.5 -2.5v-3v-2t2 -1h2.5h3.5h2h4.5t4 0.5t1.5 2.5v11q0 1 -1.5 2t-4 2t-5 1.5t-3.5 0.5h-2q-2 0 -2 -2z" />
</svg>
