<?xml version="1.0" standalone="no"?>
<!DOCTYPE svg PUBLIC "-//W3C//DTD SVG 1.1//EN" "http://www.w3.org/Graphics/SVG/1.1/DTD/svg11.dtd" >
<svg xmlns="http://www.w3.org/2000/svg" xmlns:xlink="http://www.w3.org/1999/xlink" version="1.1" viewBox="-10 0 266 256">
   <path fill="currentColor"
d="M114 192q1 1 3 5t4.5 9.5t4.5 10t4 6.5q0 1 2 3l4.5 4.5l4.5 4.5t3 2q1 2 3 4.5l4 5t4.5 4t5.5 1.5q2 0 3.5 -0.5t1.5 -3.5q0 -5 -4.5 -9.5t-10 -8.5t-10.5 -8.5t-5 -10.5q0 -1 1.5 -3.5t3.5 -5.5t4 -5.5t3 -3.5q9 0 15.5 -1.5t11.5 -5t7.5 -9.5t2.5 -16v-9
q-5 -9 -13 -12t-17 -5q-2 -1 -2.5 -2t-0.5 -3v-2q9 -4 13 -10.5t5.5 -14.5t1.5 -16.5v-16.5q0 -1 0.5 -5.5l1 -9l1 -9t0.5 -5.5v-2v-3v-4.5t-3 -2.5q-2 0 -4.5 0.5t-2.5 1.5v12q0 2 -1.5 2.5t-2.5 0.5q-2 0 -5.5 -1.5t-7.5 -4t-7.5 -4.5t-4.5 -3v-7v-6l1 -2.5t1 -3.5
q-1 -2 -3 -3t-4 -1q-5 0 -5 6v21l-3 2t-5 2q-1 1 -3.5 2t-5 1.5t-4.5 1.5t-3 1l-2 -0.5l-2 -0.5v-3.5v-6t-1.5 -5.5t-4.5 -2l-1 0.5l-1 0.5v33v32v4v4.5t0.5 4.5t0.5 3q1 4 3.5 6.5t5 4.5t4 4t1.5 4q0 3 -2 5t-5.5 3.5t-7.5 2.5t-7.5 3.5t-6 6t-2.5 10.5q0 10 2.5 16t8 10
t12.5 5t17 0zM121 172v-18q0 -2 -1 -2h-2q-6 0 -6 6v24l-1 2h-3h-3q-6 0 -11 -2.5t-9 -7.5v-3.5t-0.5 -5t-0.5 -4.5v-3v-1q0 -4 4 -6.5t9 -4.5t9.5 -3.5t5.5 -4.5q1 -2 1.5 -4t0.5 -3.5t1.5 -2.5t4.5 -1q1 0 3.5 -0.5t6 -0.5t6 -0.5t3.5 -0.5q3 1 4 2.5t1.5 3t0.5 3.5t1 4
q2 2 3 2q2 0 5 1q8 3 14 9t6 15t-4.5 14.5t-13.5 5.5h-3t-2 -1v-23q0 -6 -6 -6h-1.5t-1.5 2v6v6q0 1 1 2.5t1 2.5q0 2 -1 6.5t-3 9t-4.5 8t-4.5 3.5q-4 0 -5.5 -4t-2 -9t-1 -9.5t-1.5 -6.5zM100 103v-2q8 -2 17 -2h17h5t6.5 0.5t6.5 0.5h4q3 2 3 5q0 6 -1.5 8.5t-4.5 3.5
t-7 1h-8q-1 0 -4 0.5t-3 1.5h-1q-5 0 -10 -0.5t-9.5 -2t-7.5 -5t-3 -9.5zM97 85q0 -7 7 -8q12 -1 22.5 -1.5t22.5 -0.5h3h4t3.5 0.5l1.5 0.5l1 1v11l-4 5h-32h-2.5t-5 0.5t-5 0.5h-2.5h-1q-6 0 -9.5 -1.5t-3.5 -7.5zM98 64q0 -5 2 -7.5t7 -3.5q1 -1 4 -2t7 -2.5t7 -2.5t5 -2
h4q3 0 8 1.5t9.5 3.5t8.5 5t4 7t-4.5 5.5t-10.5 2t-12 0t-9 -0.5l-1.5 0.5t-3 0.5t-2.5 0.5l-1 0.5h-5h-5h-6h-4q-2 -2 -2 -3v-3z" />
</svg>
