<?xml version="1.0" standalone="no"?>
<!DOCTYPE svg PUBLIC "-//W3C//DTD SVG 1.1//EN" "http://www.w3.org/Graphics/SVG/1.1/DTD/svg11.dtd" >
<svg xmlns="http://www.w3.org/2000/svg" xmlns:xlink="http://www.w3.org/1999/xlink" version="1.1" viewBox="-10 0 266 256">
   <path fill="currentColor"
d="M161 242q2 3 3.5 6t5.5 3q3 0 4.5 -2.5t1.5 -5.5q0 -5 -3 -10t-3 -11q0 -5 2.5 -9t6 -7.5t8 -6t8.5 -5.5q2 -1 4 -4t4 -6.5t3.5 -7t2.5 -5.5v-3.5v-4.5v-5v-3q0 -11 -1.5 -22t-5.5 -20.5t-12 -16t-21 -7.5l-1 -0.5t-1 -1.5v0v0q0 -3 1 -6.5t3 -5.5q0 -3 -0.5 -9t-0.5 -12
q0 -7 0.5 -13t0.5 -9v-2t0.5 -4t0.5 -4v-2q0 -4 -1.5 -6t-4.5 -2h-2.5t-1.5 1v37q-1 0 -1.5 2t-1.5 2v1q0 4 1 7t1 7v4v3q0 8 -1.5 11.5t-3.5 5.5t-5.5 3.5t-8.5 6.5l-3 3l-2 2q-2 5 -3.5 11.5t-2 13.5t-0.5 13.5v11.5q0 10 1 19t0 19q1 2 2 3.5t3 1.5h2t1 -2q0 -1 0.5 -4.5
t0.5 -4.5q0 -9 -1.5 -18t-1.5 -17q0 -2 0.5 -4t2.5 -2q5 0 8.5 4t6 8.5t5.5 8.5t6 4q2 0 2 -2v-4q0 -4 -3.5 -8.5t-8.5 -9t-10 -8t-8 -4.5q0 -1 -0.5 -1.5l-0.5 -0.5q0 -3 0.5 -6t1.5 -5.5t2.5 -4t4.5 -1.5q5 0 11.5 5t11.5 11.5t9 11.5t5 5q2 0 2.5 -1.5t0.5 -2.5
q0 -5 -3 -9t-7 -8.5t-8.5 -8t-9 -6.5t-7 -5.5t-2.5 -3.5q0 -2 1.5 -4t4 -3.5t5 -2t4.5 -0.5q11 0 18 6t10.5 15t4.5 20t1 20q0 1 0.5 4t0 6.5l-1 7t-2.5 4.5l-24 21q-4 -1 -6.5 2.5t-3.5 9t-1 10.5v7v12zM48 103v11v12.5t1 13t4 10.5q1 2 4 4l6 4t5.5 4t2.5 4v82q0 1 1 1.5
t2 0.5q4 0 5 -3.5t1 -6.5q0 -7 -1 -14.5t-1 -14.5v-4q0 -4 1 -5q5 -4 10 -9t7 -13v-3t0.5 -4t1 -4.5t1.5 -3.5q2 -3 4 -5t4 -3.5t3.5 -3.5t2.5 -6q3 -7 4.5 -16t1.5 -18t-0.5 -18t-0.5 -17v-14q-2 -5 -4.5 -9.5t-6.5 -8.5v-28l-1 -1.5t-2 -1.5h-1h-0.5h-0.5l-0.5 0.5
l-0.5 0.5q-1 4 -1 6.5t-0.5 5.5t-0.5 5.5v5.5q0 5 1.5 9t4 8t4 8t1.5 8v59v1.5t-0.5 4t-1.5 4.5t-1 3t-0.5 2.5t-1.5 2.5l-2 2t-2 1t-2 -1.5l-1 -1.5v-15q0 -15 0.5 -30.5t0.5 -30.5v-4.5t-3 -1.5h-2t-1 1q-1 1 -1 3.5t-0.5 5t-0.5 4.5v3v8v13v15v16v13v8v7.5t-1 8t-2.5 7.5
t-4.5 7h-1q-2 0 -2.5 -2.5t-0.5 -4.5l0.5 -2l0.5 -2v-2v-1q0 -1 -0.5 -3l-0.5 -2v-71q1 -6 2 -13t1 -12t-6 -5h-1q-1 0 -2 1.5l-1 1.5v72q0 5 -0.5 6t-4.5 1q-5 0 -7.5 -5t-3 -11.5t-0.5 -13.5v-10v-11t0.5 -12t2 -11.5t5.5 -9.5q1 0 3 -2l4.5 -4.5l4.5 -4.5l2.5 -2.5
t1.5 -3t2 -3.5v-3v-4.5t0.5 -5.5t0.5 -5v-1v-1q0 -3 -1.5 -6.5t-5.5 -3.5q-3 0 -3.5 1.5t-0.5 3.5q0 4 1 8.5t1 8.5q0 5 -3 8.5t-6.5 6.5t-6.5 6t-5 7q-1 1 -1.5 3.5l-1 5t-1.5 4.5t-1 3v22zM131 90l3 4q5 -5 8 -10.5t4 -12.5t1 -13v-13v-8q-1 -2 -3 -3.5t-4 -1.5t-3.5 2
t-1.5 4q0 5 2 9.5t2 9.5q0 6 -1 10t-3 9q0 2 -1 4.5t-1.5 4.5t-1 3.5zM187 47q0 2 0.5 9t2 14t4.5 12.5t6 5.5q2 0 3 -1.5t1 -3.5q0 -5 -2 -8.5t-3 -7.5q-2 -10 -3 -19.5t-1 -20.5q-1 -1 -2 -1h-2h-1.5t-1.5 1q0 2 -0.5 4t-0.5 5v5.5v3.5v2z" />
</svg>
