<?xml version="1.0" standalone="no"?>
<!DOCTYPE svg PUBLIC "-//W3C//DTD SVG 1.1//EN" "http://www.w3.org/Graphics/SVG/1.1/DTD/svg11.dtd" >
<svg xmlns="http://www.w3.org/2000/svg" xmlns:xlink="http://www.w3.org/1999/xlink" version="1.1" viewBox="-10 0 266 256">
   <path fill="currentColor"
d="M125 249q1 1 2 1.5t2 0.5q2 0 3.5 -0.5t1.5 -2.5v-41l1.5 -3t1.5 -5q1 -1 2 -2.5t2 -1.5h15l3 -3q-1 -2 -3 -3t-3 -1l-2 1t-3 1v0q-2 0 -2.5 -1t-0.5 -2q0 -3 2 -4.5t4.5 -2.5l5 -2t2.5 -4q1 -2 -1 -2.5t-3 -0.5q-3 0 -6 1.5t-5.5 4l-5 5t-4.5 3.5v0q-4 0 -5 -3.5
t-1 -6.5q0 -5 4 -9t9 -6.5t9.5 -5t4.5 -4.5t-2 -2h-4q-6 0 -11 2.5t-8.5 7t-5.5 9.5t-2 11q0 2 1 4t2.5 4l3 4t1.5 4v2q0 1 -0.5 2t-1 3t-1 3t-0.5 2q-1 3 -1.5 6t-0.5 6v6v7v4v5v6v3zM193 248q2 2 3 2.5t3 0.5q1 0 2 -0.5t2 -1.5v-5v-5q0 -7 -1 -14.5t-2 -14.5
q-1 -4 -3 -7.5t-2 -8.5q0 -2 1 -4.5t2.5 -5l3 -5t1.5 -5.5q0 -13 -7 -19t-20 -6v5q19 4 19 22q0 3 -0.5 4.5t-3.5 1.5t-5 -1.5t-4 -3.5l-4 -4t-4 -2h-4t-2 2q0 3 2.5 4t4.5 2t4 3t2 6q0 2 -1.5 3t-4 1.5l-5 1t-3.5 2.5l2 2h15q2 0 3.5 2t2 5t1 5.5t1.5 4.5q0 1 0.5 3.5
l0.5 2.5q0 2 0.5 5.5t0.5 7.5q0 5 -0.5 8.5t-0.5 5.5zM74 245q0 2 0.5 3t2.5 1t4 -1t2 -4v-42l1.5 -1t1.5 -2q7 -5 9.5 -11t4 -11t3.5 -10.5t8 -10.5q7 -6 9.5 -14.5t3.5 -16.5v-4v-7v-7v-6v-4v-6v-5v-2l-2 -6l-12 -17q-1 -1 -1.5 -4t-0.5 -4v-33l-1.5 -1t-1.5 -2h-1
q-2 0 -3.5 3t-1.5 4v2q0 3 0.5 6.5t0.5 7.5v7.5v3.5q0 1 0.5 3l1 4l1 4t0.5 3q3 4 5.5 7.5t4.5 7.5t3.5 8t1.5 9v2q0 2 -1 2v7t-0.5 8.5t-0.5 8v4.5q0 2 -0.5 5.5t-1.5 7.5t-3 6.5t-5 2.5h-1q-1 0 -1.5 -0.5t-0.5 -1.5v-66q0 -3 -1 -5t-4 -2v8v12v15t-0.5 15t-0.5 12v8v5.5
v8t-0.5 8t-0.5 5.5q-1 2 -1.5 4.5t-1.5 5t-3 4.5t-4 2q-1 0 -1.5 -0.5l-1.5 -1.5v-7v-11.5v-10.5v-8q0 -17 1 -33t1 -33v-4v-4q-1 -1 -1.5 -1h-1.5q-2 0 -2.5 0.5t-0.5 2.5l-3 73q0 1 -2 1.5l-2 0.5h-3q-3 -5 -6 -9.5t-5 -9.5v-17q0 -13 2.5 -27t10.5 -25l2 -2t4 -4.5
t4 -4.5t2 -3l0.5 -2t1.5 -3q0 -1 0.5 -3t1 -5t1 -4.5t0.5 -2.5v-6v-6q-1 -2 -3 -3.5t-5 -1.5h-2t-2 1v31q-7 9 -12.5 16t-8.5 15t-4.5 16.5t-1.5 19.5v8v4.5t0.5 5.5t1.5 8q0 1 0.5 4l0.5 3l14 14q3 1 5.5 2.5t4.5 3.5v5.5v8.5v8v5q0 13 -1 26t-1 26zM165 109q4 0 7 4.5
t6 9.5t7 9.5t9 4.5h3t1 -2v-1v0q-2 -3 -6 -6.5t-7.5 -7t-6 -7t-2.5 -7.5t3 -5.5t7 -2.5t8 -1h6v-4q0 -2 -0.5 -3t-2.5 -1q-3 0 -6.5 1t-6 2t-5.5 2t-6 1q-2 0 -3 -1.5t-1.5 -3.5t-1 -4.5t-0.5 -3.5v-3t2 -2h34q1 0 3 -2t2 -3q0 -3 -1.5 -3.5t-4.5 -0.5q-6 0 -12 1t-12 1
h-4.5h-4.5q-4 -1 -4.5 -4t-0.5 -5v-3.5t1 -3.5h4t6 -0.5t5.5 -0.5h3.5q2 0 4 -1t4.5 -2.5t4 -3.5t1.5 -4v-22q0 -3 -1 -3h-3h-3t-2 2v9t-1 9.5t-4 7.5t-9 3h-2.5t-3.5 -0.5t-3 -0.5t-2 -1v-1.5t-0.5 -3t-0.5 -3.5v-2v-2v-1v-3t0.5 -4.5t1 -4.5l0.5 -2q-2 -4 -3.5 -5.5
t-4.5 -1.5t-3.5 1.5t-0.5 4.5q0 8 1.5 16t1.5 16v4v7v7v4h-23q-1 0 -1.5 2l-0.5 2q0 1 0.5 2t1.5 1h26q1 0 1.5 3l1 6t1 6.5t0.5 5.5t-5 6t-10 8.5t-10 9.5t-5 11q4 0 7 -2t5 -5t4 -6.5t4 -6t5 -4.5t7 -2z" />
</svg>
