<?xml version="1.0" standalone="no"?>
<!DOCTYPE svg PUBLIC "-//W3C//DTD SVG 1.1//EN" "http://www.w3.org/Graphics/SVG/1.1/DTD/svg11.dtd" >
<svg xmlns="http://www.w3.org/2000/svg" xmlns:xlink="http://www.w3.org/1999/xlink" version="1.1" viewBox="-10 0 266 256">
   <path fill="currentColor"
d="M71 174q0 8 3 12.5t7 7t10 3.5l12 2q2 0 6 1l4 1l0.5 1t1 2.5t1 2.5l0.5 1q3 7 7.5 14t7.5 12q2 3 5 4t6 4q1 1 3.5 4.5t3.5 4.5h2.5h1.5q2 0 4.5 -1t2.5 -4q0 -1 -4 -5.5t-9 -9.5t-10 -9.5t-6 -5.5v-5l12 -12q6 1 14 0.5t15 -3t12 -7.5t5 -13q0 -6 -2.5 -11t-6 -9
t-8.5 -7.5t-9 -7.5q-1 0 -2 -2.5t-1 -3.5v-1q0 -4 1.5 -7.5t1.5 -6.5q0 -2 -0.5 -3.5t-2.5 -1.5t-3 0.5t-2 2.5q-1 6 -2 9.5t-1 8.5q0 7 4 11.5t8.5 8.5t8.5 8.5t4 11.5q0 5 -2 8t-5.5 5t-8 2.5t-8.5 0.5h-3t-2 -2v-25q0 -2 -1.5 -2.5t-2.5 -0.5q-3 0 -3.5 4.5t-1.5 10
t-1.5 11t-2.5 8.5q0 1 -1 2.5t-2.5 2.5t-2.5 2l-1 1h-3q-2 -6 -3 -10l-2 -8t-1.5 -8.5t0.5 -10.5q-1 -3 -3 -4t-4 -1v4.5t-0.5 7.5t-0.5 7v4t-0.5 3.5l-0.5 2.5q-1 1 -3 1h-2q-3 0 -7.5 -1.5t-8 -3.5t-6 -5t-2.5 -7q0 -7 4 -12t10 -9t12 -7.5t10 -8.5q0 -1 0.5 -4l0.5 -3
q0 -4 -0.5 -7.5t-1.5 -6t-3.5 -4t-6.5 -1.5q0 5 1 9t1 9q0 6 -2.5 9.5t-6.5 6t-9 4.5t-9 5t-7 7.5t-3 11.5zM132 109v6t1 8.5t2 8t4 3.5q1 0 2 -0.5t1 -2.5q0 -3 -0.5 -11.5t-0.5 -17.5t0.5 -17t0.5 -12v-7t1 -7.5t3 -6t6 -3.5q2 0 7 -1l10 -2l10 -2t7 -1q4 -2 5 -6t1 -9
t-2 -8t-5 -4.5t-7.5 -1.5h-9.5q-2 0 -7.5 -0.5t-11 0t-9.5 2.5t-4 6h44l0.5 1t1 2.5l1 3t0.5 2.5q0 3 -3 5t-7.5 3t-9.5 1.5t-10 1.5t-9.5 2.5t-6.5 4.5q-3 15 -4 29.5t-1 29.5zM161 81q0 6 1.5 12.5t4.5 12.5t6.5 12t7.5 11h3q3 0 4.5 -1t1.5 -4t-3 -7.5t-7.5 -10.5
t-7.5 -12t-3 -12q0 -2 0.5 -5t4.5 -3h16q1 0 1.5 -2l0.5 -2q0 -4 -2.5 -4.5t-4.5 -0.5q-6 0 -13 1t-11 5v5.5v4.5zM88 122q0 3 1 4.5t3 1.5q3 0 4.5 -1.5t1.5 -5.5v-22q0 -3 3.5 -3.5t7 -2.5t7 -6t3.5 -14q0 -2 -0.5 -4t-2.5 -4l-3 3q0 2 -0.5 5.5l-1 7t-2.5 5.5t-5 2h-3
t-2 -2v-25q0 -4 2 -5.5t5 -2.5t6 -1.5t5 -1.5q0 -1 0.5 -3t0.5 -4.5t0.5 -5l0.5 -2.5v-4q0 -2 -0.5 -3t-2.5 -1h-2t-1 2q0 1 -0.5 4l-1 6t-2 5.5t-4.5 2.5t-4 -2q-1 -1 -1.5 -4.5t-0.5 -4.5v-0.5v-0.5q0 -6 2.5 -9.5t6 -5.5t6.5 -3.5t3 -3.5t-1 -2.5t-3 -0.5t-5.5 1.5
t-6.5 3t-5.5 3.5t-2.5 3v23q0 2 -1.5 2.5t-2.5 0.5q-2 0 -4 -1t-3 -2l-3 -15l-0.5 -1l-0.5 -1q-1 0 -2 -0.5l-1 -0.5q-1 0 -2 0.5l-1 0.5q0 1 -0.5 3.5l-0.5 2.5q0 9 3.5 13.5t7 6t6.5 2.5t3 2v29q0 1 -1.5 1.5t-3.5 0.5h-2q-5 0 -6 -3.5t-1.5 -7.5t-1.5 -7.5t-5 -3.5
q-2 0 -4 3t-2 5q0 8 2 12t5 6t6 2.5l6 1t5 2.5t2 7q0 4 -1 8.5t-1 8.5z" />
</svg>
