<?xml version="1.0" standalone="no"?>
<!DOCTYPE svg PUBLIC "-//W3C//DTD SVG 1.1//EN" "http://www.w3.org/Graphics/SVG/1.1/DTD/svg11.dtd" >
<svg xmlns="http://www.w3.org/2000/svg" xmlns:xlink="http://www.w3.org/1999/xlink" version="1.1" viewBox="-10 0 266 256">
   <path fill="currentColor"
d="M164 196q1 2 3 7t4.5 10l5 10t3.5 6q0 3 2 6t3.5 6.5t4 6t5.5 2.5q2 0 4 -2t2 -3q0 -6 -3.5 -12t-8.5 -12t-9 -12.5t-4 -12.5v-3q4 0 8.5 -1.5t8 -4t5.5 -6t2 -8.5t-1 -9.5t-1 -8.5v-3v-3q2 0 4.5 -1l5 -2t4.5 -2.5t2 -3.5v-2t-2 -2h-8.5t-10 -1t-7.5 -3t-3 -8
q0 -5 2.5 -7.5t6.5 -4.5t6.5 -6t2.5 -12q0 -7 -3.5 -9t-10.5 -2q-10 0 -19.5 1t-20.5 2q-1 0 -1 1.5v2.5v2.5t1 1.5h3h3q8 0 15.5 -1t15.5 -1q1 0 2.5 0.5t2.5 0.5l0.5 3t0.5 4v1q0 4 -4 5.5t-9.5 2.5t-10.5 1h-7h-2.5t-3.5 -2q-6 1 -10.5 0.5t-7.5 -4.5q0 -1 -0.5 -3
t-0.5 -4.5t-0.5 -4.5t-0.5 -3v-1q0 -4 1 -8t2.5 -7t4.5 -5t8 -2q2 0 6.5 -0.5t10 -1t10 -0.5h7.5q1 -1 3 -2l4 -2t3.5 -2.5t1.5 -2.5v-21l-3 -3h-2t-5 -0.5l-6 -1t-5 -0.5h-6h-9h-9h-6t-3.5 -2.5t-2.5 -5t-2 -4.5t-3 -2t-3 1t-1.5 2.5t0 3t0.5 2.5q0 6 2.5 8.5t4.5 7.5h47
l0.5 0.5t0.5 1.5q1 1 1.5 2.5t0.5 2.5v0q0 6 -6 7.5t-14.5 2t-16.5 1t-13 3.5q-3 2 -4.5 4t-2.5 4.5l-2 5t-3 5.5v19q3 5 4.5 8.5t3 6t5.5 3.5t12 1l0.5 0.5l0.5 0.5v1q0 2 -1 4.5t-2.5 5t-4 4t-4.5 1.5l-25 3l-3 3q2 3 6.5 4t7.5 1t7.5 -0.5t9.5 -2t8.5 -4t5.5 -6.5
q1 -3 2 -5.5l2 -5t3 -4t6 -1.5h2t2 1q2 4 2.5 8.5t1.5 8.5q2 2 4.5 3.5l5 3t4.5 3t2 3.5q0 1 -0.5 3t-1 4.5t-2 3.5t-2.5 1h-23l-4 -3v-13l-1.5 -0.5t-2.5 -0.5h-1q-2 0 -3 1.5t-1 2.5q0 3 1 5t1 5v2t-2 1l-2 0.5t-4.5 0.5t-4.5 0.5t-3 0.5h-2h-4h-4h-2h-2.5t-3.5 1t-3.5 2
t-1.5 2v1l2 3h4.5h4.5q7 0 13 -1.5t12 -1.5q4 0 6.5 4t2.5 9v2t-1 2q-2 1 -6.5 1t-9.5 0.5t-9.5 1.5t-5.5 1t-4 -0.5t-6 0t-5 1.5t-2 3q0 3 1.5 4t3.5 1q11 0 22 -2.5t22 -2.5q2 0 3.5 0.5t2.5 2.5zM55 245q0 3 1 3.5t3 0.5q4 0 5.5 -2t2.5 -6q0 -14 0.5 -28t2.5 -28v-3
q3 -5 7 -8.5t7 -8.5q1 -2 1.5 -4.5t0.5 -5.5t0.5 -5t2.5 -4t3.5 -3l3 -2t2.5 -2t3 -4q3 -5 5 -12t2.5 -14t0.5 -14v-13v-15q-1 -6 -4.5 -11t-6.5 -9v-5v-5q0 -4 0.5 -8t0.5 -8q0 -3 -1.5 -4.5t-3.5 -1.5t-3 0.5t-2 2.5v13v9t1 7.5t2.5 7t4.5 8.5t3.5 11.5t0.5 12.5v11
q0 8 -1 15.5t-4 13t-8 5.5q0 -12 0.5 -23.5t0.5 -23.5v-15q0 -2 -1.5 -2.5t-2.5 -0.5q-2 0 -3 0.5t-1 2.5v1.5t0.5 3t0.5 2.5v1v1v1v5.5t-0.5 10t-0.5 10v5.5v5t-0.5 9t-1 11.5t-1 11.5t-2 8.5t-3.5 3.5q-3 0 -4 -2.5t-1 -5.5v-1q1 -1 1 -3t0.5 -4t0.5 -3.5v-2.5v-66l-3 -3
l-5 5v7v11v10.5v7.5v2.5t-0.5 4.5t-0.5 4v3v2.5t-0.5 3t-1 2.5t-1.5 1q-4 0 -6 -3t-2.5 -7.5l-1 -9t-0.5 -6.5q0 -8 0.5 -14.5t1.5 -12.5t4.5 -11.5t9.5 -10.5q5 -4 7 -8.5t3.5 -9t1.5 -10v-11.5q0 -2 -1 -5.5t-4 -3.5h-1q0 1 -1.5 1.5l-1.5 0.5q-2 17 -1 33q-2 2 -4 3.5
t-4 2.5l-4 2t-4 3q-4 5 -6.5 10.5t-3 12t-0.5 13v12.5v4q0 2 0.5 5.5t0.5 6.5v4t0.5 3t1.5 4t1.5 4t0.5 3q1 1 2 2.5t2 1.5h11q0 1 0.5 4t0.5 7.5v6.5q0 4 -0.5 12t-1 17t-1 17.5t-0.5 11.5q-1 3 -2 6.5t-1 7v7.5v6zM166 176v-2t0.5 -2.5t1 -2.5t1.5 -1h18q1 0 2 2t1 3
l0.5 0.5l0.5 0.5q0 3 -2.5 5t-5.5 3.5t-6 2t-5 0.5q-4 0 -5 -3t-1 -6z" />
</svg>
