<?xml version="1.0" standalone="no"?>
<!DOCTYPE svg PUBLIC "-//W3C//DTD SVG 1.1//EN" "http://www.w3.org/Graphics/SVG/1.1/DTD/svg11.dtd" >
<svg xmlns="http://www.w3.org/2000/svg" xmlns:xlink="http://www.w3.org/1999/xlink" version="1.1" viewBox="-10 0 266 256">
   <path fill="currentColor"
d="M60 245q0 2 1.5 3.5t3.5 1.5t4 -2.5t2 -4.5v-36q-2 -2 -1.5 -5.5t0.5 -6.5v-8l4 -4t4 -5t3.5 -6t2.5 -6l0.5 -2t1 -4.5t1 -4.5t0.5 -3l2.5 -2.5t3.5 -2.5t4 -2.5t3 -2.5q2 -3 4 -10t3 -15t2 -15.5t1 -11.5t-0.5 -9t-0.5 -10t-1.5 -9.5l-2.5 -7.5q-1 -1 -1.5 -2t-2 -2.5
t-2 -2.5t-1.5 -1q0 -1 -1.5 -4.5t-1.5 -5.5l1 -2l1 -2v-2.5v-4.5v-2.5v-3.5q-1 -1 -2 -1h-2t-3.5 2t-2.5 4v20q0 3 2 5.5l4 5l4 5t3 5.5q2 6 2.5 13t0.5 13q0 10 -2 21l-4 22q-1 1 -2 1.5t-2 0.5t-1.5 -0.5l-1.5 -1.5v-23q0 -11 1 -21.5t1 -21.5q-4 0 -7 1.5t-3 5.5
q0 3 0.5 5.5t1.5 6.5l-3 59q0 2 -1 5.5t-2 7.5t-3 6.5t-4 2.5h-1q-1 -4 -1.5 -7t-0.5 -6v-5v-7q0 -16 1.5 -32.5t3.5 -33.5v-1t0.5 -2.5t0.5 -3v-1.5q0 -2 -1.5 -2.5t-2.5 -0.5q-3 0 -4 4.5t-2 12t-1.5 16t-1 16.5t-0.5 15t-1 10l-0.5 0.5t-0.5 1.5h-1q-2 0 -3 -2.5t-1 -4.5
v-55q0 -5 1.5 -10t3.5 -9t5.5 -7.5t6.5 -7.5q1 -1 1.5 -2l0.5 -1v-29h-3.5h-2.5l-1.5 1.5l-0.5 0.5v11t-1.5 8.5t-4 7.5t-5.5 9q0 1 -1 2l-1 1q-4 14 -5 26t-1 26q0 4 -0.5 9.5t0 10.5t1.5 10t4 9q0 2 1.5 2.5l3 1l3 1t2 2t1 5t0.5 4.5v4.5v7.5v8v5q0 15 -1 29t-1 29z
M112 240q0 3 1 4t4 1t4.5 -3t1.5 -6t-0.5 -6.5t-0.5 -4.5q1 -31 2.5 -61t0.5 -60q0 -1 0.5 -2.5t1 -3.5t1.5 -4t1 -3v-1v-3v-3v-2q2 -18 10 -26.5t26 -11.5h5q15 0 23 7t8 22q0 3 0.5 10t0.5 16t0.5 19t0.5 19t0.5 16t0.5 10v13l1 67q0 2 1 2h3q5 0 5 -5q0 -37 -2 -73.5
t-1 -73.5l-1 -2t-1 -3v-4v-7v-7v-4t-0.5 -3t-1 -5t-1 -5.5t-0.5 -3.5q-1 -2 -4 -3.5l-5 -2.5t-5 -2t-7 -2.5t-7.5 -2.5t-4.5 -1l-2 -2v-20l-0.5 -0.5l-0.5 -0.5q0 -1 -1 -1t-1 1q-1 0 -3 0.5l-2 0.5v20q0 3 -2.5 4t-5.5 2t-6.5 1.5t-4.5 0.5q-7 2 -10.5 5.5t-6 8t-3.5 10
t-2 11.5l-6 142q-3 5 -3.5 11t-0.5 11zM160 238q0 2 0.5 4t3.5 2q2 0 3.5 -0.5t0.5 -3.5v-33v-34.5t0.5 -35t1.5 -33.5q2 -3 6 -3.5l8 -1t7.5 -0.5t3.5 -2v-1l-0.5 -0.5l-0.5 -0.5h-56l-0.5 1t-1.5 1v1v1q5 2 10.5 2h10.5q2 2 3.5 5t1.5 6v119q-1 2 -1.5 3.5t-0.5 3.5z
M140 126v17q0 1 -0.5 2.5t-1 4t-0.5 4v1.5q-1 18 -1.5 36t-0.5 35h2.5t3 -1t2.5 -2t0 -3q0 -23 2 -46t2 -46q0 -2 -0.5 -3.5t-3.5 -1.5q0 -1 -1 0t-2 1q0 1 -0.5 1.5zM184 222q0 1 1 1h2q2 0 2.5 -1t1 -2.5t0 -3.5l-0.5 -2q0 -23 -1 -45t0 -45q0 -1 -1 -2t-2 -1.5t-2 -0.5
h-2v6v8.5v9.5v5q0 4 0.5 14.5t0.5 22t0.5 21.5t0.5 15zM143 69q0 4 3 4q12 0 25 -1.5t24 -2.5l0.5 -0.5t1.5 -0.5v-1v-1q-1 0 -2 -0.5l-1 -0.5h-4h-6h-7h-3h-6h-6h-5.5h-2.5h-3t-4 0.5t-3 1t-1 2.5z" />
</svg>
