<?xml version="1.0" standalone="no"?>
<!DOCTYPE svg PUBLIC "-//W3C//DTD SVG 1.1//EN" "http://www.w3.org/Graphics/SVG/1.1/DTD/svg11.dtd" >
<svg xmlns="http://www.w3.org/2000/svg" xmlns:xlink="http://www.w3.org/1999/xlink" version="1.1" viewBox="-10 0 266 256">
   <path fill="currentColor"
d="M72 244q1 2 2 3.5t3 1.5t3 -1.5t1 -3.5q0 -1 0.5 -6t0.5 -10.5t0.5 -10.5t0.5 -7q0 -1 0.5 -4l0.5 -3q1 -2 3 -3.5l4 -3t3.5 -3.5t2.5 -4q0 -1 0.5 -3l1 -4t1 -3.5t0.5 -2.5q0 -3 1 -4.5t2 -2.5t2.5 -2t3.5 -3q3 -3 4.5 -7.5l3 -9t1.5 -9.5v-9v0v-11.5t-0.5 -17t-1 -16.5
t-0.5 -11q1 -4 -1 -6.5t-4.5 -5t-4.5 -5.5t-2 -9q0 -7 2 -14t2 -14q0 -3 -0.5 -5t-4.5 -2q-1 0 -2 0.5t-1 1.5q-1 5 -1.5 8.5t-0.5 7v7.5v8v14q2 4 5 7.5t4 7.5q1 2 1.5 5t0.5 6t0.5 5t0.5 3v3v8v8v6v5v8v7.5v5.5q0 4 -1.5 8.5t-5.5 6.5l-3 -3v-74q0 -1 -1.5 -1.5l-1.5 -0.5
q-2 0 -3.5 1.5t-1.5 3.5v93q0 3 -1.5 6.5t-4.5 5.5q-2 0 -3 -7.5t-1.5 -16t-0.5 -15.5v-9v-7.5t0.5 -6.5t0.5 -6.5t1 -8.5q-2 -2 -2 -4v-4q0 -5 1 -9.5t1 -9.5q0 -2 -0.5 -3t-2.5 -1t-3 1.5t-2 3.5v13v19v20v13v3.5t-0.5 5t-0.5 5t-1 3.5q-5 -2 -8 -8.5t-4.5 -14t-1 -15.5
t0.5 -12q0 -15 2 -27t10 -24q7 -10 9 -19.5t2 -21.5v-5v-5q0 -3 -1.5 -3h-3.5h-2t-3 2q0 1 0.5 5t0.5 8t-0.5 7.5t-0.5 5.5q0 6 -1.5 10t-4 7.5t-5.5 7t-5 7.5q-2 5 -3.5 9.5t-1.5 9.5v10v10q0 8 -0.5 18t1 19.5t6 16.5t14.5 9q0 2 0.5 5.5t0.5 8.5v7v6v20q0 12 -2 21z
M173 93v148q0 1 1 2.5t2 2.5l4 -5v-94l1.5 -1.5t2.5 -1.5q6 -1 9.5 3.5t4.5 11t1 13v10.5v3v4v5v4q0 9 -1 18t-1 18q0 2 0.5 4.5t3.5 2.5q4 0 4.5 -2l1.5 -6v-22q0 -15 -1.5 -30t-0.5 -31q-3 -9 -7.5 -11t-13.5 -1l-4 -4v-20h25q2 0 2.5 -2t0.5 -3v-2t-1 -2h-25l-0.5 -1
t-1.5 -2v-6q0 -5 1.5 -7.5t4 -4t5 -1.5t5 -1t4 -3t2.5 -6q0 -2 0.5 -6.5t1 -10t1 -10t0.5 -5.5v-5q0 -3 -0.5 -5t-4.5 -3l-3 3v1.5t-0.5 4t-0.5 5v3.5v5l-1 0.5l-1 0.5q0 1 1 2.5t1 2.5v1v5.5t-1 7t-3 6t-6 2.5q-2 0 -3.5 -1t-2.5 -3v-17q0 -10 1 -19t1 -18q0 -2 -0.5 -4
t-3.5 -2t-5 3v4v6v6v4q0 11 1 21t1 20v7.5t-2 7.5zM150 239q0 1 0.5 3t3.5 2h1l1 -1t1 -2v-165q0 -1 0.5 -3.5t1 -5.5t0.5 -6v-4v0v-1v-7.5t-0.5 -11.5t-1 -11t-0.5 -7h-0.5h-1.5t-2 0.5t-1 2.5v46q0 2 -1 6t-4 4q-2 0 -3 -0.5l-3 -1.5q-5 -10 -5 -20.5v-21.5q0 -1 -1 -1h-2
h-3t-1 1v11q0 4 -0.5 9t0 10t2 10t4.5 8q1 2 4 2t5.5 0.5t5 1.5t2.5 4v3q-1 1 -1 3t-0.5 4t-0.5 3.5v1.5l-2 3h-18l-3 3q0 1 0.5 1.5t1.5 0.5t3.5 0.5t3.5 1.5h14l2 1v17q0 2 -3.5 3t-8 2.5t-8 3.5t-3.5 6q-2 9 -2.5 18t-0.5 18.5v18.5t-1 16v10v11q1 1 2 1h2q3 0 4 -1.5
t2 -4.5v-3v-6v-5v-4v-4v-6v-5v-2q0 -2 -0.5 -6.5t-0.5 -10t-0.5 -10t-0.5 -6.5q1 -3 1.5 -6.5t1.5 -7.5t3 -6.5t5 -2.5q6 0 7 3t1 8q0 21 -1 42t-1 42z" />
</svg>
