<?xml version="1.0" standalone="no"?>
<!DOCTYPE svg PUBLIC "-//W3C//DTD SVG 1.1//EN" "http://www.w3.org/Graphics/SVG/1.1/DTD/svg11.dtd" >
<svg xmlns="http://www.w3.org/2000/svg" xmlns:xlink="http://www.w3.org/1999/xlink" version="1.1" viewBox="-10 0 266 256">
   <path fill="currentColor"
d="M132 249l2 1l2 1q3 -1 4 -3t1.5 -4.5t0.5 -4.5v-4q0 -5 -1 -9.5t-1 -10.5v-4.5v-6.5t1 -5.5t3 -2.5h1q1 0 3.5 0.5t3.5 1.5h55q1 0 2 -1.5t2 -2.5v0q0 -2 -1.5 -4t-3.5 -3q-1 0 -4 0.5t-7 0.5q-3 0 -6 -0.5t-4 -0.5q-2 0 -5 -2t-5 -1l1 -3v-24h28q3 0 3.5 -1t0.5 -3
t-1.5 -4t-3.5 -2h-24q-1 0 -1.5 -2l-1 -4t-0.5 -4v-3v-5t0.5 -5.5t2 -4t4.5 -1.5h26q0 -2 -0.5 -5.5t-4.5 -3.5h-25l-0.5 -0.5t-0.5 -1.5l-0.5 -3.5t-1.5 -4.5v-1v-1q0 -1 0.5 -3t0.5 -4.5t0.5 -4.5t0.5 -3t1 -1.5t2 -0.5q3 0 5.5 1t5.5 2.5t5.5 3t5.5 2.5h1q2 0 3.5 -1.5
t1.5 -3.5q0 -4 -4.5 -6.5t-9.5 -4t-9.5 -3.5t-4.5 -5q0 -5 5 -8t11.5 -6t11.5 -5.5t5 -6.5v-0.5v-1.5q-7 -3 -16 -7t-15 -9q-2 -2 -3 -4t-1.5 -3.5t-1.5 -2.5t-4 -1q-2 0 -3.5 1t-3 2.5t-2.5 3.5t-3 4q-1 1 -6 5l-10 8t-9.5 7.5t-4.5 5.5h0.5t0.5 1q2 2 6.5 4t9 4.5t8 5.5
t5.5 6l1 1l-0.5 0.5l-0.5 0.5q-10 11 -16.5 24t-9.5 28t-4 30t-1 30v1l0.5 1.5t0.5 3.5t0.5 4l0.5 2v2q0 4 -1 7t-1 7q0 10 0.5 19.5t1.5 19.5zM69 239q0 3 0.5 5t3.5 2t5 -2t2 -5v-34l1.5 -1.5l2.5 -2.5q5 -3 7 -7.5t3.5 -8.5t2.5 -7.5t3 -5.5q1 0 2.5 -1l3 -2l3 -2t1.5 -2
q2 -2 4 -5t4 -7t3 -8t1 -7v-71q0 -1 -1 -2.5t-2 -3.5t-2 -4.5t-2 -3.5q-1 -3 -3 -4.5l-4 -3t-3 -3.5t-1 -6t0.5 -8.5t0.5 -9.5v-2.5t-1 -1.5q-4 0 -6 2.5t-2.5 6t-0.5 7.5v7q0 7 3 11t6.5 8.5t6.5 9t4 11.5v27q0 4 0.5 9.5t0.5 11.5t-0.5 12t-2.5 11t-5.5 8.5t-8.5 3.5v-85
q-5 0 -7 2v7q0 4 1 8t1 8v1l-0.5 2.5t-0.5 5t-0.5 5l-0.5 2.5v5v9.5v11.5v12v9.5v5.5v5.5t-1 7.5t-3 6.5t-5 2.5q-2 0 -3 -1t-1 -4v-111q0 -1 -1 -1.5t-2 -0.5t-2.5 0.5t-1.5 1.5v85q0 2 -1.5 3.5t-3.5 1.5q-4 0 -6.5 -5.5t-4 -12.5t-2 -14t-0.5 -11q0 -11 0.5 -19.5
t1.5 -16t4.5 -14.5t10.5 -16q6 -7 8 -15t2 -17v-7l-2 -2t-2 -1v-0.5v-0.5q-2 0 -3.5 1.5l-2.5 2.5v4v6v5.5v3.5q-1 4 -3 8t-4.5 7.5t-5.5 7t-6 6.5q-3 5 -4.5 12t-2.5 14.5t-1 15.5v13v3q1 2 1.5 7t1 11t1 11t0.5 7l0.5 2t1.5 4t1.5 4l0.5 2l17 4l2 2v3v3.5v5.5v4
q0 12 -1 23t-1 23zM140 157h25l3 3v26q0 1 -2 2t-4.5 1.5t-5 0l-2.5 -0.5h-3h-4.5t-4.5 -1.5t-2 -3.5v-27zM141 141q0 -1 0.5 -5l1 -8t1.5 -7t2 -3h20l2 1v9v11t-2 11h-2h-3h-5.5t-6.5 -1t-5.5 -2.5t-2.5 -5.5zM146 109v-1.5v-1.5q0 -6 3 -10.5t6 -8.5q1 -1 3 -4t3.5 -4.5
l1.5 -1.5h5v30l1 4h-4q-6 0 -9 -0.5t-10 -1.5zM145 43q6 -3 12 -8t11 -10h1q3 0 7 1.5t8.5 3.5t8 4.5t3.5 5.5t-1.5 4.5t-3.5 2.5t-4.5 2t-4.5 1t-3 -1.5t-2 -2.5l-2 -2t-3 -1h-1l-1 0.5l-1 0.5v17l-3 2l-1 -0.5t-2.5 -1.5t-3.5 -2.5t-2.5 -2l-2.5 -2.5t-3.5 -4.5t-3.5 -4.5
z" />
</svg>
