<?xml version="1.0" standalone="no"?>
<!DOCTYPE svg PUBLIC "-//W3C//DTD SVG 1.1//EN" "http://www.w3.org/Graphics/SVG/1.1/DTD/svg11.dtd" >
<svg xmlns="http://www.w3.org/2000/svg" xmlns:xlink="http://www.w3.org/1999/xlink" version="1.1" viewBox="-10 0 266 256">
   <path fill="currentColor"
d="M112 186q1 7 2.5 14t4.5 13q2 4 6.5 10t9.5 12.5t10.5 11t8.5 4.5q4 0 6.5 -0.5t2.5 -4.5t-5 -8t-10 -7.5t-10 -7.5t-5 -8h1q0 -1 1.5 -2.5t2.5 -4t2.5 -4t2 -2.5l1.5 -3t1 -3q1 -2 0.5 -2.5t-0.5 -1.5v-2t1 -3q1 0 2 -0.5l1 -0.5l12 -2t11.5 -3t9 -6t3.5 -12
q0 -7 -2.5 -11t-6 -6.5t-8 -4t-8.5 -3.5t-6.5 -5.5t-2.5 -10.5v-2.5t1 -1.5h20q2 0 2 -2v-3q0 -2 -1 -3.5t-3 -1.5t-4 1t-4 1h-3l-2 -0.5t-4 -0.5t-4 -0.5t-3 -0.5v-4q0 -9 7 -14.5t16 -5.5q4 0 5 4q0 1 0.5 3.5l1 5t1 4.5t0.5 3q1 2 2 3.5t3 1.5q3 0 4.5 -2.5t1.5 -5.5
t-1.5 -7t-3 -7.5t-3 -7.5t-1.5 -8v-40q0 -1 -1 -1.5l-1 -0.5q-4 0 -5 3.5t-1 8.5q0 4 -1 8t-5 4q-8 0 -14 -5.5t-6 -13.5v-2.5v-1.5l3 -4h3.5t8 -0.5t7.5 -0.5h3q5 0 9.5 1t8.5 1q1 0 1 -0.5t1 -0.5l2 -1.5t2 -2t-0.5 -1.5t-0.5 -2q-8 0 -13 -0.5t-11 -0.5h-6.5t-7.5 1h-12
h-19t-18.5 -0.5t-12.5 -0.5h-1h-2h-5t-8.5 0.5t-8 0.5h-5.5q0 1 -0.5 1.5l-0.5 0.5v1v0q0 1 1 2t2 1q9 1 19.5 1.5t20.5 -0.5l1 2v2v3q0 6 -0.5 9t-2.5 4.5t-6 2.5t-9 2h-1h-1q-1 0 -2.5 -0.5l-1.5 -0.5v-16q0 -1 -1 -1.5t-3 -0.5h-1q-2 0 -3.5 0.5t-1.5 2.5q0 12 1.5 23.5
t1.5 23.5q0 7 -2.5 13.5t-2.5 13.5q0 2 4 2q2 0 3.5 -0.5t2.5 -2.5t0.5 -5.5t0 -7t2 -6t5.5 -2.5q6 0 9.5 2t5 5.5t1.5 7.5v9q-4 0 -7.5 -0.5t-7.5 -0.5q-3 0 -5.5 0.5t-2.5 4.5v1t1 1l21 3q1 0 1.5 0.5l0.5 0.5q0 1 0.5 2.5t0.5 2.5v0q0 5 -2.5 7.5t-7 4l-9 3t-9 4.5t-7 8
t-2.5 13q0 2 0.5 5.5t2 6.5t3.5 5.5t5 2.5h32zM119 167q1 -2 1.5 -4t0.5 -4q0 -3 -0.5 -4.5t-2.5 -4.5q-2 0 -4.5 1t-2.5 3v25h-22q-2 0 -4.5 -2t-4 -4.5t-2.5 -5t-1 -4.5q0 -3 1.5 -6.5t4.5 -4.5l25 -11v1q1 0 1 -1q1 0 3 -2l3 -3v-3v-4v-5v-3l0.5 -1l0.5 -1q6 0 12 -1
t12 -1q2 0 3 3t1.5 7.5t2.5 9.5t7 7q4 3 9 4.5t9 4.5l2 1v6q0 4 -2 7.5t-5 6t-7.5 4t-8.5 1.5q-1 0 -2 -0.5l-1 -0.5l-3 -24q0 -2 -1.5 -2.5t-3.5 -0.5t-3 1t-1 3q0 3 1 5l2 4v23q0 2 -1 5t-2.5 5.5t-3.5 5t-4 2.5q-1 0 -2 -1.5t-2 -3.5t-1.5 -4t-0.5 -3t-0.5 -5l-1 -8
t-1 -7.5t-0.5 -5.5zM115 110q-1 -9 -2.5 -14.5t-5 -8.5t-8.5 -5t-13 -5l-1.5 -0.5t-1.5 -1.5v-16q4 0 8.5 -1l9 -2t8.5 -3.5t6 -5.5q1 -2 1 -4.5t0.5 -5.5t0.5 -5.5t1 -5.5q4 -1 6 -1h6q5 0 7 3.5t3 8t1.5 9.5t3.5 8l2 1t2 2q1 0 4 1l6 2t5.5 1.5t3.5 1.5q5 3 5 7t-4.5 5.5
t-10 3t-10.5 4.5t-7 8q-3 6 -3 10t-1 6.5t-4 3t-11 0.5h-6z" />
</svg>
