<?xml version="1.0" standalone="no"?>
<!DOCTYPE svg PUBLIC "-//W3C//DTD SVG 1.1//EN" "http://www.w3.org/Graphics/SVG/1.1/DTD/svg11.dtd" >
<svg xmlns="http://www.w3.org/2000/svg" xmlns:xlink="http://www.w3.org/1999/xlink" version="1.1" viewBox="-10 0 266 256">
   <path fill="currentColor"
d="M142 188q1 4 4.5 7t6.5 5t5.5 4t3.5 3q4 9 6.5 16.5t9.5 14.5q2 2 4 4.5t4 4.5t4.5 3t6.5 1q3 0 5.5 -1t2.5 -5l-3.5 -2.5t-7.5 -5.5t-8 -6.5t-5 -4.5v-1.5v-1.5q0 -7 5.5 -13t11.5 -9q1 0 2 -0.5l1 -0.5q2 -1 3.5 -3t3.5 -3.5t3 -3l1 -1.5v-21q-2 -3 -2.5 -6t-3.5 -6
l-5.5 -5.5t-4 -4.5t-2.5 -5t-1 -7v-9l1 -2.5t1 -3.5q0 -6 -7 -6q-1 0 -3 0.5t-1 2.5v13v8.5t2 9.5q1 4 4 7.5l6 7t5 7.5t2 10q0 2 -0.5 4.5t-1 5.5t-2.5 4.5t-5 1.5h-0.5h-0.5l-0.5 -1t-0.5 -2v-21q0 -1 -2 -3.5t-4 -2.5q-1 0 -2 2.5t-1 3.5v2.5t0.5 4t0.5 4.5v3v3v4.5
t-1 7.5t-3 6.5t-5 2.5q-1 0 -2 -1.5l-2 -3t-1 -3.5v-3t-0.5 -5t-0.5 -8.5t-0.5 -8t-0.5 -5.5t-0.5 -2.5t-2.5 -0.5q-1 0 -3.5 1.5t-2.5 2.5v22q0 1 -1.5 1h-1.5h-1.5h-0.5q-1 0 -3.5 -2.5t-2.5 -3.5t-0.5 -4t-0.5 -4q0 -7 3.5 -12t8 -8.5t8 -7.5t3.5 -9q0 -2 -0.5 -6.5
t-1.5 -9t-2.5 -8.5t-3.5 -4q-3 0 -3 4q0 5 0.5 10.5t0.5 10.5q0 6 -3 10t-6.5 8t-6.5 8.5t-3 12.5l0.5 3.5t0.5 4.5zM47 184q0 8 4.5 12t10.5 6t11 3.5t6 3.5q4 12 10.5 22.5t17.5 18.5h1.5h1.5q3 0 4 -0.5t1 -3.5q0 -2 -3 -5t-6.5 -6t-6.5 -7.5t-3 -10.5t2.5 -9.5t6 -5.5
t8 -3.5t8 -3.5t6 -5t2.5 -9q0 -8 -2.5 -14t-5.5 -11.5t-5.5 -11t-2.5 -13.5v-2q0 -1 1 -3.5t1 -3.5l-2 -2t-3 -1t-4 2t-2 4v17q0 2 2.5 6t5.5 9t5.5 10t2.5 8t-0.5 5.5t-1.5 5.5t-3 4.5t-5 1.5q-2 0 -3.5 -1.5t-1.5 -2.5v-20l-1.5 -2t-2.5 -3h-1h-1q0 1 -1 1.5l-1 0.5v32
l-1 1l-2 2l-2 2t-2 1q-3 0 -5 -3t-2 -5v-25q0 -7 -5 -7h-2q-1 1 -1.5 4t-0.5 4v23q-1 1 -1.5 1h-1.5q-6 0 -10 -3t-4 -9q0 -9 4 -15t9 -11.5t9 -11.5t4 -15v-4.5t-0.5 -4.5t-2 -3.5t-4.5 -1.5q-1 0 -2 0.5t-2 1.5v20q0 1 -0.5 3t-0.5 3q-3 5 -7 9.5l-8 9t-6.5 10t-2.5 11.5z
M113 100l1 0.5l1 0.5q4 11 8 21.5t12 19.5q1 1 2 2.5t2.5 2.5t2.5 2l1 1h5q0 -5 -2 -8t-4.5 -6t-4.5 -5.5t-2 -7.5v-2.5v-2.5q3 -2 4.5 -4.5l3 -5l3 -5t4.5 -3.5q7 0 15 -0.5t15 -3t12 -7.5t5 -14q0 -8 -3 -13t-7 -8t-8.5 -5.5t-9 -4.5t-8 -5.5t-4.5 -8.5v-3t-0.5 -4
t-0.5 -4v-3l-5 -4l-3 3v2v3v6t0.5 7.5t1.5 7t3 4.5q4 3 9.5 5t11 4.5t9 6.5t3.5 12q0 2 -1 5.5t-3 6.5t-4.5 5t-5.5 2h-19v-33q0 -2 -2 -2h-3q-2 0 -3 0.5t-2 2.5v6v8v8v6l-0.5 1.5t-1 3.5t-1.5 4.5t-2 3.5q-1 3 -3.5 6t-5.5 3q-2 0 -3 -1.5t-2 -2.5q0 -2 -0.5 -5t-1 -6.5
t-1 -6.5t-0.5 -4v-24q1 -2 -0.5 -2.5t-3.5 -0.5t-3.5 1t-1.5 4v28l-2 2l-3 0.5t-4 0.5q-10 0 -16.5 -4.5t-6.5 -14.5q0 -6 2.5 -10t6.5 -7.5t8.5 -6.5t8.5 -5t6.5 -5t2.5 -6v-18q0 -2 -2 -2.5t-3 -0.5q-2 0 -3 2t-1 4.5t0.5 5l0.5 2.5l-0.5 1.5t-1.5 2.5t-1.5 2.5t-1.5 2.5
q-2 4 -8 7.5t-12 7.5t-10.5 9t-4.5 14q0 15 13 24q7 1 16.5 1.5t16.5 0.5z" />
</svg>
