<?xml version="1.0" standalone="no"?>
<!DOCTYPE svg PUBLIC "-//W3C//DTD SVG 1.1//EN" "http://www.w3.org/Graphics/SVG/1.1/DTD/svg11.dtd" >
<svg xmlns="http://www.w3.org/2000/svg" xmlns:xlink="http://www.w3.org/1999/xlink" version="1.1" viewBox="-10 0 266 256">
   <path fill="currentColor"
d="M72 247l1 0.5t2 0.5q3 0 5.5 -3.5t2.5 -6.5q0 -11 -2.5 -22t-2.5 -24q0 -4 2 -7t4.5 -5t4.5 -4.5t3 -6.5q0 -1 0.5 -2.5t0.5 -3t0.5 -3t0.5 -2.5l18 -21l3 -6v-2v-6.5v-7.5v-6v-8v-10v-9v-5v-3.5t-0.5 -5t-0.5 -4.5v-3v-5q-2 -4 -3 -7t-2.5 -6t-2 -6t-0.5 -7t1 -7t1 -6
q0 -6 -6 -6q-1 0 -2.5 0.5t-1.5 2.5v5.5t-0.5 8.5t-0.5 8.5v5.5v1q0 2 1 4.5t3 5t3 6t2 8.5q0 8 1.5 16t1.5 15v10.5t-0.5 11.5t-2 11.5t-5.5 9.5h-0.5h-0.5q-2 0 -2.5 -1.5t-1.5 -3.5t-1 -4v-2q0 -12 1.5 -23.5t1.5 -22.5v-4.5v-4.5t-1 -3t-3 -2q-1 0 -2 1.5t-1 3t-0.5 3
l-0.5 1.5q0 3 0.5 9.5t0.5 13.5t-0.5 13.5t-0.5 9.5v4.5t-0.5 8l-1 9t-1.5 6.5v3.5t-0.5 4.5t-2 3.5t-3.5 1.5t-2 -1t-1 -4v-1v-1q0 -1 0.5 -7t0.5 -13.5v-16v-16t0.5 -13t0.5 -7.5v-7v-7q-1 -2 -2 -2h-2h-1h-2l-2 61q-1 1 -2 2.5t-1 2.5q-7 -5 -8 -11.5t-1 -14.5
q0 -4 0.5 -8t1 -7.5t1 -7.5t1.5 -9q0 -1 1.5 -3t1.5 -3l0.5 -1.5t1 -2.5t1 -2.5l0.5 -1.5q4 -6 7 -10t5 -7.5t2.5 -8.5t0.5 -13v-4.5t-0.5 -4.5t-2 -3.5t-4.5 -1.5h-2t-2 1v30l-1 2l-1 1.5t-1.5 3l-1 3l-0.5 1.5q-5 7 -8 12.5t-5 12t-3.5 13t-1.5 15.5q0 7 1 13.5t2.5 12.5
t4.5 11.5t8 11.5l1 1l2 2l2 2l1 1v1q0 9 -1 17t-1 16q0 13 1 26t1 26zM123 205l-1 0.5l-1 0.5v3.5v3.5h2h3q4 -1 14.5 -1.5t22 -1t21.5 -1.5t14 -1q3 0 5.5 -1t2.5 -5q0 -3 -2.5 -3.5t-4.5 -0.5q-6 0 -13 1t-14 1l-3 -3v-7.5t-0.5 -9t-1 -9.5t-1.5 -9q2 -2 6.5 -3t10 -2
t9.5 -2t4 -3q0 -1 -0.5 -2.5t-1.5 -1.5h-22q-2 0 -3 -1.5t-1.5 -3.5t-0.5 -4v-3t0.5 -2.5t0.5 -2.5l1 -1l23 -3q3 -1 3.5 -1.5t0.5 -2.5q0 -4 -5 -4q-8 0 -16 1t-17 2h-4.5t-8 0.5t-8 0.5h-5.5q-1 1 -1 2v2v1.5t1 1.5h23q3 0 4 2t1 5q0 7 -1.5 10.5t-7.5 3.5q-3 1 -7 1.5
t-7 1.5l-3 1v6h23l1 1l0.5 1.5t0.5 4t0.5 4.5t0.5 3v10v8t-1 5.5t-3.5 3.5t-8.5 1q-1 0 -4.5 0.5t-7.5 0.5t-7.5 0.5t-4.5 0.5zM129 33q0 7 1.5 14t1.5 14q1 9 0.5 18t1 15.5t6.5 10.5t17 4h3h4t6.5 -0.5t6.5 -0.5h5q6 -3 9.5 -11t4.5 -17.5t1 -19v-15.5v-1q0 -1 -0.5 -4
t-0.5 -6v-5.5v-3.5q-1 -1 -2.5 -2t-2.5 -1q-2 0 -3.5 1.5t-1.5 3.5v2v5v4v3q-1 1 -2.5 2t-2.5 1t-3.5 -0.5t-5.5 -1.5t-5 -2t-2 -3v-21q0 -2 -2 -2h-3h-3t-2 2v20l-1 1t-2.5 2l-3 2t-2.5 1h-4.5h-2.5v-12q0 -2 -2 -2h-3q-5 0 -5 5zM141 95q0 -1 0.5 -2t2.5 -1q10 0 19.5 -2
t19.5 -2v9l-1.5 0.5l-1.5 0.5q-6 2 -10 2h-11h-12q-2 -1 -4 -1.5t-2 -3.5zM140 77v-3q10 -3 21 -4t21 -1q6 0 6 6q0 4 -5 6t-11.5 2.5t-13 0t-10.5 -0.5h-3.5h-3.5t-1 -2.5v-3.5zM138 58v-1v-1q2 -1 4.5 -3t5.5 -4t6 -3t5 -1t6 1.5t8 4t7 5t3 4.5t-4 2.5t-9.5 1t-11.5 0.5
h-8h-9q-2 -1 -2.5 -2t-0.5 -4z" />
</svg>
