<?xml version="1.0" standalone="no"?>
<!DOCTYPE svg PUBLIC "-//W3C//DTD SVG 1.1//EN" "http://www.w3.org/Graphics/SVG/1.1/DTD/svg11.dtd" >
<svg xmlns="http://www.w3.org/2000/svg" xmlns:xlink="http://www.w3.org/1999/xlink" version="1.1" viewBox="-10 0 266 256">
   <path fill="currentColor"
d="M111 203q2 1 3 2t1.5 2t1 2.5t2.5 3.5q3 3 9 9.5t12.5 13t13.5 11t12 4.5q4 0 5.5 -0.5t1.5 -4.5v-2v-1q-3 -1 -9 -4t-12 -7.5t-10.5 -8.5t-4.5 -8t4 -6t10 -2.5t12.5 -1t12 -2.5t9 -7t2.5 -13q-1 -7 -6 -12t-10.5 -8.5t-10.5 -6t-5 -3.5v-13q0 -1 -1.5 -1.5t-2.5 -0.5
q-3 0 -4 3t-1 6q0 8 4.5 12t9.5 7t9.5 6.5t4.5 10.5v3.5t-1 5t-2.5 4t-4.5 1.5h-15q-1 0 -1.5 -2t-0.5 -3v-1q0 -3 1 -5.5t1 -4.5t-0.5 -4.5t-1 -4.5t-2 -3.5t-3.5 -1.5t-2.5 1t-1 2.5l-1 3t-0.5 2.5t0.5 2t0.5 2t0.5 2l0.5 1v4q0 2 -0.5 5.5t-2 6.5t-3.5 5.5t-5 2.5
q-4 0 -5.5 -3t-2.5 -7.5t-1 -9t-0.5 -9t-2 -7.5t-4.5 -3t-4 3t-1 6v1q0 1 0.5 2.5t0.5 3.5t0.5 4t0.5 3v0.5v0.5q0 2 -0.5 3.5t-2.5 1.5q-5 0 -9 -0.5t-7 -2t-5 -4.5t-2 -7q0 -8 5 -12t10.5 -7t10.5 -6.5t5 -10.5q0 -2 -1 -5t-4 -3q-2 0 -3 1t-1 3v4t-1 3q-4 5 -9.5 7.5
t-10.5 5t-8.5 7t-3.5 15.5v4.5v4.5q3 4 7.5 6t9.5 3t10 1t10 -1zM177 142q0 2 0.5 3.5t2.5 1.5q3 0 4.5 -2t2.5 -4.5t1 -5.5v-4q0 -4 -1 -8t-2.5 -7l-3 -6t-1.5 -6v-3t2 -2q5 0 8 3t5 6t5 6t7 3v-10l-1 -1.5t-3 -3.5l-3.5 -3.5t-3.5 -2.5q-3 -3 -8 -5t-9 -5q-2 -1 -4 -4
t-3.5 -6.5t-3 -6t-2.5 -2.5q-2 0 -2.5 1.5t-0.5 3.5q0 5 1 10t5 7q0 7 2 12t3.5 9l3 8t1.5 9q0 4 -1 7.5t-1 7.5zM80 128q0 2 1 4.5t1.5 4.5t1.5 4l2 4h6v-25q5 -9 5 -16q0 -4 -2.5 -7t-2.5 -7v-1q1 -2 3.5 -6.5t2.5 -8.5q0 -3 -2.5 -4t-4.5 -1h-2l-5 16q-1 3 -6 5.5
t-10.5 6t-10 8.5t-5.5 13v3q0 1 0.5 3t1.5 3t3 1q4 0 6 -4.5t3.5 -10t5 -10t10.5 -4.5q3 0 4 3t1 6t-1 5.5t-2.5 4.5t-2.5 4.5t-1 5.5zM145 97q0 2 1 8t3 12.5t5 11.5t6 5q2 0 2.5 -1t0.5 -2q0 -2 -0.5 -4t-2 -3.5t-2.5 -3.5t-1 -4q-2 -4 -2.5 -7l-1 -6t-1 -6.5t-0.5 -8.5
l-0.5 -0.5t-0.5 -1.5h-1h-1l-2 2l-1 1q0 1 -0.5 4t-0.5 4zM125 86q0 3 1 11t3 16t5.5 14t8.5 6q0 -7 -1.5 -13t-3 -12.5t-3 -12.5t-1.5 -12q0 -7 1 -12.5t2.5 -11.5t2.5 -12t1 -12q0 -2 -1 -5.5t-2.5 -7t-4 -6t-5.5 -2.5q-2 -1 -3.5 1.5t-1.5 3.5q0 3 1 5.5t2.5 5t2.5 5.5
t1 7q0 11 -2.5 22t-2.5 22zM108 101v6.5t1 10t3 9.5t5 4q1 0 2 -0.5t1 -2.5q0 -5 -2.5 -9.5t-2.5 -9.5t2 -10t2 -10q0 -2 -1.5 -3t-3.5 -1t-3.5 2t-2 4.5t-0.5 5.5v4zM144 73q0 1 0.5 2.5t2.5 1.5q4 -1 6 -5.5t3 -10t1.5 -10.5t0.5 -8q0 -6 -1.5 -11t-9.5 -5q0 6 2 11t2 11
q0 3 -1.5 6.5t-2.5 6.5l-2 6t-1 5zM111 54q0 6 -1 11t-1 11q4 0 6.5 -3t3.5 -7t1 -8v-7t-0.5 -7t-2 -7t-4 -5t-6.5 -2q-2 0 -2.5 1t-0.5 2q0 3 1 5.5t2.5 5t2.5 5t1 5.5zM69 68q0 2 1 3t3 1h3l3.5 -3.5t5.5 -5t5 -5t3 -3.5q2 -2 3 -4t1 -5q0 -9 -7 -15.5t-16 -6.5v6q4 2 8 6
t4 8q0 6 -3 9t-6 5.5t-5.5 4.5t-2.5 5zM171 50q0 2 2 5t3 4l12 13h5h5.5t1.5 -4q0 -3 -3 -5t-7 -3.5t-7 -3.5t-3 -6q0 -2 1.5 -4t3.5 -4l3.5 -3.5l2.5 -2.5q0 -1 0.5 -2l0.5 -1q0 -2 -0.5 -3.5t-3.5 -1.5t-6.5 2t-5.5 5.5t-3.5 7.5t-1.5 7z" />
</svg>
