<?xml version="1.0" standalone="no"?>
<!DOCTYPE svg PUBLIC "-//W3C//DTD SVG 1.1//EN" "http://www.w3.org/Graphics/SVG/1.1/DTD/svg11.dtd" >
<svg xmlns="http://www.w3.org/2000/svg" xmlns:xlink="http://www.w3.org/1999/xlink" version="1.1" viewBox="-10 0 266 256">
   <path fill="currentColor"
d="M141 245q0 2 0.5 4t2.5 2q1 0 3.5 -0.5t2.5 -1.5v-60q0 -5 4 -7.5t8 -2.5q3 0 4.5 0.5t3.5 3.5q3 8 4 16t1 17v6v9q0 4 0.5 8.5t1.5 8.5h1h1q2 0 5 -1t3 -4v-35q-1 -2 -2 -8t-3 -12t-4.5 -11t-5.5 -5h-22q-2 0 -3.5 4.5t-2.5 11.5t-2 15.5t-1 16.5v14.5v10.5zM67 148v90
q0 3 1 3.5t3 0.5q4 0 5.5 -2.5t2 -6t0 -7t-0.5 -5.5q0 -8 -1 -15.5t-1 -15.5q0 -4 2 -7t5 -6.5t5.5 -7t3.5 -7.5v-2.5t0.5 -3.5t1 -3.5l0.5 -1.5q0 -1 0.5 -2.5t0.5 -2t2 -2t3.5 -3t3.5 -3l2 -1.5q3 -7 4 -15t1 -15v-13.5v-13.5t-0.5 -13.5t-2.5 -12.5q-1 -3 -3 -4.5
t-3.5 -3t-3 -3.5t-1.5 -5q0 -6 0.5 -12.5t0.5 -12.5q0 -1 -1.5 -2t-2.5 -1q-2 0 -4 0.5t-3 2.5v5.5v5.5q0 8 1 12t3 7t4 6.5t5 9.5q2 4 2.5 8.5t0.5 9.5v9.5v9.5v4v7v5v3l-0.5 3t-1 5.5t-2 4.5t-2.5 2q-2 0 -3 -3.5t-1.5 -8t-0.5 -8.5v-6v-4v-3.5t0.5 -6t1 -6t0.5 -3.5
t-0.5 -3.5t-0.5 -5.5t-0.5 -5.5l-0.5 -2.5q-1 -2 -1.5 -2h-1.5q-2 0 -3 0.5t-2 2.5v4v3q0 9 1 17t1 17v18v9t-1 12t-2 11.5t-4 6.5q-2 -1 -3.5 -3t-1.5 -5v-93l-0.5 -1.5l-0.5 -1.5v0h-1q-2 0 -3.5 5.5t-1.5 14v18.5v18q0 9 -0.5 15t-3.5 7l-1 -2q-1 -2 -2 -5.5l-1 -3.5v-56
q0 -1 0.5 -3t1.5 -5t2 -5.5t2 -4.5l1.5 -1.5t2.5 -3t2.5 -3l1.5 -1.5q3 -5 3 -11.5v-11.5q0 -3 -1 -6.5t-5 -3.5q-6 0 -7 6v22q0 1 -1 2.5t-2 2.5l-1 1.5t-2 1.5q-3 6 -5 12t-3 13t-1 13.5v13.5v15v1.5t0.5 3t0.5 3v1.5q1 6 1.5 10t2 7.5t5 5.5t9.5 3zM112 225q0 2 0.5 5.5
t2.5 3.5q3 0 4.5 -1.5t2.5 -3.5q0 -2 0.5 -4.5t0.5 -6v-6.5v-4v-6v-9v-10v-5q1 -9 5.5 -13.5t11 -6t14 -1.5h14.5h15q6 0 9.5 2t4.5 7t1 15v2q-1 0 -1.5 2.5t-0.5 3.5v1.5t0.5 3l1 3l0.5 1.5v9q0 4 -1 7.5t-1 6.5t0.5 6t4.5 3q2 0 3.5 -1t2.5 -4v-20q0 -12 -1 -24.5
t-1 -25.5q-3 -5 -5.5 -6t-8.5 -1q-5 0 -10 0.5t-9 0.5h-2q-1 0 -3.5 -1.5l-2.5 -1.5v-11q0 -2 3.5 -2.5t9 -0.5h11.5h11.5t9 -1t3.5 -3t-1.5 -3t-3.5 -1.5l-4 -1t-3 -0.5q-6 0 -11.5 1t-12.5 1h-6h-4l-2 -2v-67l1.5 -2l1.5 -2h8q9 0 14 2.5t7 7.5t2.5 12t0.5 16v2t-0.5 3.5
t-0.5 3.5v2v4.5t1 4.5t3 4t4 2q1 0 2.5 -0.5t1.5 -1.5v-7q0 -13 -1.5 -27t-3.5 -27q0 -5 -5 -6.5t-11 -2t-12 -0.5h-10q-2 -1 -2.5 -2t-0.5 -3q0 -4 3 -6q2 0 6.5 -0.5t9 -0.5t9 -0.5t6.5 -0.5q3 0 6 -0.5t3 -4.5q0 -3 -1.5 -4.5t-4.5 -1.5q-1 0 -3 0.5t-4.5 1t-4.5 1
l-2 0.5q-3 1 -11 1t-17 0.5t-17 1t-11 0.5h-4q-2 0 -5 0.5t-6 0.5h-4q0 3 1 5t5 2h1h4t6.5 -0.5t7 -0.5h4.5h4q4 0 7 1.5t3 6.5q0 3 -2 4.5t-5 2t-6 0.5q-4 0 -6 1q-2 0 -4.5 1t-5 1.5t-4.5 1l-2 0.5l-1 7l-0.5 5t-0.5 12t-0.5 14.5t-0.5 12.5v6q0 2 0.5 5.5t4.5 3.5h1
q1 -6 1 -13v-15q0 -7 0.5 -14t3.5 -12.5t8 -9t14 -3.5q3 0 4 1.5t1.5 3.5t0.5 4v4v58l-1 4q-19 -1 -38 1l-1.5 1.5t-0.5 1.5t0.5 2t3.5 1h31q3 0 4 3.5t1 5.5t-1 5t-4 4l-25 3q-1 0 -2 0.5t-2.5 1.5t-2.5 2l-1 1q-3 15 -4 32.5t-1 33.5zM131 99v1l1 0.5l1 0.5h13q1 0 1 -1
v-2v-1.5t-1 -1.5h-11q-1 0 -2 1.5t-2 1.5v1zM170 98v0l1.5 1.5l0.5 0.5h16l0.5 -0.5l1.5 -1.5v-2v-3h-4t-6.5 0.5t-6.5 1.5t-3 3zM143 71q-5 0 -8.5 2t-3.5 7h4t6 -0.5t5.5 -2t2.5 -3.5t-2.5 -2.5t-3.5 -0.5zM170 74v1q1 0 2 1l2 2h5h4q2 0 4 -0.5t4 -1.5t2 -4v0l-2 -2
t-1 -2q-1 0 -3 0.5t-4.5 0.5t-4.5 0.5t-3 0.5t-3 1t-2 3z" />
</svg>
