<?xml version="1.0" standalone="no"?>
<!DOCTYPE svg PUBLIC "-//W3C//DTD SVG 1.1//EN" "http://www.w3.org/Graphics/SVG/1.1/DTD/svg11.dtd" >
<svg xmlns="http://www.w3.org/2000/svg" xmlns:xlink="http://www.w3.org/1999/xlink" version="1.1" viewBox="-10 0 266 256">
   <path fill="currentColor"
d="M145 209q0 3 0.5 10t2 14t5 12t9.5 5q2 0 3.5 -1.5t1.5 -4.5v0q-9 -8 -12.5 -15.5t-3.5 -20.5q0 -12 5 -22t13 -19q3 -4 5 -5.5t4 -3.5t3 -4.5t2 -7.5q0 -2 -1.5 -5t-3.5 -6t-4.5 -5t-4.5 -1v-18q10 0 17 -4t10 -11t4.5 -15.5t1.5 -17.5v-6q0 -2 -0.5 -4.5t-1 -5.5
t-2.5 -6t-5 -4.5t-7 -2.5t-7.5 -1.5t-6.5 -1.5q-2 0 -2 -4v-7t-1 -7t-4 -3l-0.5 0.5l-0.5 0.5l-0.5 0.5l-0.5 0.5v19l-1 1l-1 1l-8 2t-7 2.5t-6 3.5t-6 6q0 6 -0.5 10.5t-1 8.5t-0.5 9v9v2v3q0 2 0.5 3.5t0.5 2.5q2 6 6.5 9t9.5 5t8.5 4t3.5 4q0 5 -3 9.5t-6.5 8.5t-7.5 8
t-7 8q-3 6 -7.5 17t-8 23.5t-5.5 24t-2 17.5q0 2 1 3t3 1q3 0 4.5 -1t2 -2.5t0.5 -3.5v-4v-5t0.5 -6t0.5 -5.5v-2.5q1 -3 2.5 -9.5t3.5 -14t5.5 -15t7 -14t7.5 -10.5t9 -4q1 0 3.5 0.5t4.5 1.5t3.5 2.5t1.5 3.5q0 3 -4 8.5t-9 12t-10 13.5t-6 12v3v4.5v4.5v3zM76 244
q1 1 2 1h2q3 0 4.5 -2t1.5 -5q0 -9 -2 -17t-2 -17v-4v-4q7 -5 9 -8.5t2.5 -6.5t1 -7t3.5 -10q1 -3 3.5 -5l5 -4l5 -4t3.5 -5q3 -5 3.5 -11t1 -12.5t0.5 -12.5t2 -12q-1 0 -1.5 -2.5t-0.5 -3.5v-4.5v-7.5v-7.5v-4.5q-1 -3 -3.5 -5.5l-5 -5t-4 -5t-1.5 -6.5t1.5 -8.5t1.5 -8.5
v-1q-1 -1 -2.5 -3t-2.5 -2l-1 0.5t-2 1.5l-0.5 0.5l-0.5 0.5q-1 1 -1 3t-0.5 4t-0.5 3.5v2.5v3t0.5 4t0.5 4t1 3q0 4 2 6.5t4 4.5t4 4.5t4 5.5v13v13q0 2 -0.5 7t-1 11t-1 11t-0.5 8q-2 3 -3.5 7t-5.5 4q-3 0 -3.5 -1.5t-0.5 -4.5q0 -13 1 -25.5t1 -25.5v-10q-1 -2 -2 -2h-2
q-2 0 -3 7.5t-1 18.5v24t-0.5 24.5t-2 19t-4.5 7.5q-2 0 -3 -2t-1 -3t-0.5 -4t-1 -6.5t-0.5 -6.5v-4v-7t0.5 -12.5t0.5 -15.5v-15t0.5 -12.5t0.5 -7.5v-2q0 -5 -4 -5q-3 0 -3.5 1t-0.5 4v62q0 1 -0.5 3t-1.5 2v1v0q-6 0 -8.5 -6t-4 -13.5t-1.5 -14.5v-10v-13q2 -3 2.5 -6.5
l1 -7t1.5 -7t3 -6.5q4 -4 9 -7.5t8 -7.5q1 -1 1 -4t0.5 -5.5t0.5 -5v-3.5t-0.5 -3.5t-1 -4t-1.5 -3t-3 -1.5t-2.5 1t-1.5 4v3.5v5.5v5.5v3.5q-8 7 -13 15t-7.5 16.5t-3.5 18t-1 20.5v16q1 2 1.5 4.5l1 5l1 5t1.5 3.5t4 3t6.5 5t6 5t2.5 3v17v7.5t0.5 11l1 13l1 13t0.5 11
v7.5zM165 198q0 5 2 8t4.5 4t6.5 1.5t8 0.5h9q5 -2 8.5 -5t3.5 -8t-2 -9t-4 -7l-4 -6t-2 -6v-0.5v-0.5q0 -1 0.5 -4t1 -7t1 -7t0.5 -4l0.5 -1.5t0.5 -2.5t-0.5 -3.5t-3.5 -2.5t-4 4.5t-1 10t-0.5 11t-1.5 8.5q-2 3 -6 5.5t-7.5 5.5t-6.5 6.5t-3 8.5zM173 198q0 -3 1.5 -6
t3.5 -5.5t5 -4t6 -1.5q2 0 3.5 2t3 5t2.5 5.5t1 3.5q0 4 -2 5.5t-5 2t-5.5 0.5h-4.5q-3 0 -5 -2.5t-4 -3.5v-1zM139 84q0 -3 1.5 -4.5t3.5 -2.5t5 -1h5h4t3 3v9v5t-0.5 5t-2 3.5t-4.5 1.5t-6 -2t-5 -4.5t-3 -6t-1 -6.5zM169 98q0 -1 -0.5 -3t-0.5 -4.5t-0.5 -5t-0.5 -3.5v-1
q0 -2 2 -3t4.5 -1.5t4.5 -0.5h3h0.5h0.5q3 0 6.5 0.5t3.5 4.5t-1 7.5t-3.5 6.5t-6 5t-6.5 2q-2 0 -4 -0.5t-2 -3.5zM139 62q0 -3 1 -6.5t3 -6.5t4.5 -5t6.5 -2q1 0 4 0.5t3 2.5v23h-2.5t-6 0.5t-5.5 0.5q-1 0 -1.5 0.5t-1.5 0.5q-3 0 -4 -2.5t-1 -5.5zM169 68v-24
q0 -3 2.5 -3h3.5q9 0 14 4.5t5 12.5v2q0 2 -1 5l-1 3h-23z" />
</svg>
