<?xml version="1.0" standalone="no"?>
<!DOCTYPE svg PUBLIC "-//W3C//DTD SVG 1.1//EN" "http://www.w3.org/Graphics/SVG/1.1/DTD/svg11.dtd" >
<svg xmlns="http://www.w3.org/2000/svg" xmlns:xlink="http://www.w3.org/1999/xlink" version="1.1" viewBox="-10 0 266 256">
   <path fill="currentColor"
d="M195 143v10t0.5 16t1 18.5t0.5 18.5t0.5 16t0.5 10v4q0 3 0.5 5.5t1.5 4.5t4 2q4 0 4.5 -3.5t0.5 -7.5v-3v-2q0 -1 -0.5 -3t-1 -5t-1 -5t-0.5 -3q-1 -12 -1.5 -24.5t-0.5 -24.5q0 -14 1 -28t1 -29q0 -8 -3 -12t-8.5 -5.5t-12 -1.5t-13.5 0.5t-14 0.5t-12 -2
q-2 -1 -2.5 -2.5t-1.5 -3.5t-1.5 -3.5t-2.5 -1.5h-2t-3 1v3v2q0 7 4 9.5t8.5 3t8.5 1t4 4.5v32l-3.5 0.5t-5.5 0.5h-3h-5h-5h-3q-4 1 -4 4q0 2 3.5 3t5.5 1q3 0 6 -1t7 -1q3 0 4.5 2t2 4t0 4.5t0.5 4.5v7.5v12t0.5 12t0.5 6.5v3v6v7v5v4v6.5v6.5v4l-0.5 2t-0.5 3h-0.5
t-0.5 1h1q0 1 1 2t2 1v0h1v0q1 0 2.5 -1.5l1.5 -1.5v-95q0 -2 1.5 -3.5t2.5 -1.5q2 0 5.5 -0.5t7 -0.5t7 -0.5t5.5 -0.5h1v0l1 0.5t1 1.5zM120 235q0 2 0.5 4.5t3.5 2.5q2 0 4.5 -6t4 -14.5t2.5 -18.5l2 -20t1.5 -17.5t0.5 -10.5q-3 0 -4.5 2t-2.5 3q-1 13 -2.5 28.5
t-4.5 27.5q0 1 -0.5 3t-1.5 4.5t-1.5 4.5l-0.5 2l-0.5 2t-0.5 3zM70 235q1 2 2 2h2q4 0 5 -2.5t1 -5.5v-32q0 -2 1.5 -3.5t3 -2t3 -1.5t2.5 -3q1 -3 2.5 -6t2.5 -6.5t2.5 -7t3.5 -5.5l6 -6t5.5 -6t4.5 -7t2 -8v-62q0 -6 -1.5 -10.5t-3.5 -9t-3.5 -9t-1.5 -9.5q0 -4 1 -7.5
t1 -7.5v-1v-1l-7 -6v0h-1v0v0q-1 0 -1.5 0.5l-0.5 0.5q-1 6 -1 9.5v8.5t0.5 9t2 7.5t3.5 7t3 8.5q4 9 3.5 20t-0.5 21q0 4 0.5 11.5t-0.5 15.5t-3.5 14t-7.5 6q-3 0 -3 -4v-1v-3t0.5 -4t1 -3.5t0.5 -2.5v-68q-1 0 -4 0.5t-3 2.5v7v10v11v7l-0.5 2.5t-0.5 5.5t-0.5 5t-0.5 3
v7v11v12v6t-0.5 3.5t-1 6t-1.5 6.5t-1 5q-1 2 -2 3l-2 2l-3 -3v-19v-3.5t-0.5 -5.5t-0.5 -5.5v-3.5q0 -16 1.5 -33t1.5 -33v-2.5v-3.5t-1 -3.5t-2 -1.5q-3 0 -6 4v23v8v12.5t-0.5 12.5t-0.5 7v5v3t-1 3.5t-2 3.5h-1q-2 0 -4 -2.5t-3 -5.5t-1.5 -6t-0.5 -4v-2v-3.5v-4.5v-4
q0 -14 1.5 -27.5t6.5 -26.5q1 -4 4 -6t5.5 -4t4.5 -4.5t2 -6.5v-22q0 -3 -2 -3.5t-3 -0.5q-4 0 -4 4t-0.5 9.5t-2.5 11t-9 9.5q-7 16 -10 33t-3 35q0 2 1 7.5t2 12t3.5 12t5.5 7.5q2 1 3.5 1.5l3 1t2.5 2t2 3.5v14q0 11 -1 21t-1 20v4v5.5v5.5v3zM182 229q-1 2 0 5t4 3
t3.5 -1.5t0.5 -5.5q0 -5 -2 -10t-3 -10q0 -2 -0.5 -6t-1 -9t-1 -9t-0.5 -5q0 -2 -1 -6.5t-1.5 -9t-1.5 -8.5t-2 -4t-2.5 0.5t-1.5 1.5v11zM104 155q1 0 1 2t-1 2t-1 -2t1 -2zM161 133v-30l0.5 -1t1.5 -1l1 -1t2 -1h24l5 4v30l-2.5 0.5t-4.5 1.5h-2h-4.5h-5.5h-3h-6h-4z
M132 111q0 2 0.5 5t2 6t4 5t5.5 2v-5.5t-0.5 -7t-2 -6.5t-4.5 -3q-2 0 -3.5 0.5t-1.5 3.5zM183 107q-4 0 -6 2.5t-3.5 6t-2 7.5t-0.5 6q3 0 5.5 -2t5 -4.5t4 -5.5t1.5 -6v0l-2 -2t-1 -2h-1zM132 57q0 6 1.5 9t9.5 3h55q1 0 1.5 -1t0.5 -2q0 -2 -1.5 -3.5t-3.5 -1.5
q-3 0 -6 1t-6 1t-5.5 -1t-5.5 -1q-1 0 -2 0.5l-1 0.5h-3.5h-5.5t-5.5 0.5t-3.5 0.5q-5 0 -7.5 -2.5t-4 -5.5t-2.5 -5.5t-3 -2.5q-1 0 -1.5 1.5t-0.5 3v3v2.5zM137 15h-2t-2 2v19q0 2 2 3.5t4.5 2.5t5 1.5t3.5 0.5h45q3 0 5 -1.5t2 -3.5q0 -3 -2 -4t-5 -1q-10 0 -20.5 1
t-21.5 1q-4 0 -6 -2t-3 -4.5t-1 -6t1 -6.5q-1 -2 -2 -2h-3z" />
</svg>
