<?xml version="1.0" standalone="no"?>
<!DOCTYPE svg PUBLIC "-//W3C//DTD SVG 1.1//EN" "http://www.w3.org/Graphics/SVG/1.1/DTD/svg11.dtd" >
<svg xmlns="http://www.w3.org/2000/svg" xmlns:xlink="http://www.w3.org/1999/xlink" version="1.1" viewBox="-10 0 266 256">
   <path fill="currentColor"
d="M114 192v10l2 2.5t4.5 6t5.5 7t5 5.5q2 4 7.5 8.5t11.5 9t12.5 7.5t10.5 3q3 0 5 -0.5t2 -3.5t-3 -5t-7 -3t-8.5 -2t-6.5 -3l-1.5 -2t-3.5 -3.5t-3.5 -3l-2.5 -2.5t-2 -1.5t-2 -1.5l-1.5 -1.5t-0.5 -2.5t1.5 -5t3 -6.5t3.5 -7t3 -4.5q8 0 16.5 -1t15 -3.5t11 -8.5
t4.5 -16q0 -6 -3.5 -10.5t-9 -7.5t-11.5 -5t-10.5 -4t-7.5 -4.5t-2 -6.5q0 -2 5 -3t11 -2.5t11.5 -4.5t8.5 -7q2 -5 3.5 -11.5t1.5 -12.5v-12.5v-11.5v-4v-6.5v-6.5v-4q-1 -3 -2 -7t-2.5 -7.5t-3.5 -6.5t-6 -3q-12 -2 -23 -2h-22h-6h-8h-9h-5q-10 1 -17 3t-11 6t-6 10.5
t-2 17.5q0 15 1.5 29.5t4.5 29.5q2 2 6.5 5t8.5 5.5t7.5 5t4.5 3.5v0q0 5 -3 7.5t-7.5 3.5t-10 2t-10 3t-7.5 6.5t-3 12.5q0 3 1.5 7.5t4 9t5.5 8t7 3.5h34zM118 184v-1l0.5 -4t0.5 -8t0.5 -7.5t0.5 -4.5v-4q0 -2 -1 -3t-4 -1q-2 0 -3.5 1.5t-1.5 5.5v23q0 2 -1.5 3t-3.5 1
q-4 0 -9.5 -0.5t-10.5 -2t-8.5 -5t-3.5 -9.5q0 -8 2.5 -12t6.5 -6t8.5 -3l9 -2t8 -2.5t4.5 -4.5l0.5 -1.5t0.5 -3v-3v-1.5l2 -2l1 -1h30q1 0 1.5 2t2 5.5t3 6.5t4.5 4q5 2 9.5 3t8 3t6.5 5t5 9v2q0 6 -3 10t-8 6t-11 2.5t-11 0.5v-4t-0.5 -6.5t-0.5 -6.5v-4v-4
q0 -2 -0.5 -4.5t-2 -4t-3.5 -1.5q-1 0 -2 0.5t-1 2.5l0.5 1t0.5 2.5v2.5v2v1q0 2 0.5 3.5t0.5 3.5v3q0 3 -1 9t-2.5 11.5t-4 10t-6.5 4.5q-2 0 -4.5 -3t-4 -7t-3 -7.5t-1.5 -5.5zM92 112q0 -2 5.5 -6t12.5 -8t13.5 -7t8.5 -3v24q0 2 -1 4t-4 2h-11h-12l-2 -0.5t-4.5 -1
t-4 -2t-1.5 -2.5zM140 108v-13t1 -12q3 -4 8 -7.5t9 -3.5h2t2 2v4.5t0.5 7.5t0.5 7.5v4.5v1q0 10 -3.5 14.5t-13.5 4.5h-2.5h-2.5l-1 -2v-8zM165 58q-3 0 -5.5 2.5l-5 5t-5 4.5t-5.5 2q-1 0 -3 -3.5t-4 -7.5t-3.5 -8t-1.5 -5q0 -3 2.5 -5t6 -3.5t7 -2t5.5 -0.5q7 0 12.5 1
t13.5 0l3 4v4t0.5 9t0.5 10.5v9.5v4v4v4t-0.5 6t-0.5 6v4q-1 3 -4.5 6.5t-7.5 3.5v-8t-0.5 -13t-0.5 -13v-9v-2t-0.5 -4t-1.5 -4t-2 -2zM81 83v-7t3 -6q1 0 3.5 -1t6 -2.5t6 -3t3.5 -2.5q5 -2 9 -5.5t10 -3.5q3 0 4 2t1 4v3q-9 7 -19 12.5t-21 11.5l-0.5 1l-0.5 1q0 2 1.5 2
h2.5q5 0 10 -3t10 -7t9.5 -7t9.5 -3q3 0 4 3t1 6q0 2 -6 6t-14 8t-15 6.5t-10 2.5q-4 0 -5.5 -1.5t-2.5 -4.5t-0.5 -6t0.5 -6zM76 58q0 -7 2 -11t6 -5.5t9 -1.5h11h4h5.5t5 1t2.5 3v1q-4 2 -8.5 4.5t-9.5 5.5t-10 5t-10 2q-2 0 -4.5 -0.5t-2.5 -3.5zM84 30v-1v-1
q12 -5 24.5 -6.5t25.5 -1.5h3h5.5h4.5h2l14 2t14 4l1 1l1 1q0 1 -1 2l-1 1q-3 0 -9.5 0.5t-14.5 1t-14.5 1t-9.5 0.5h-2.5h-5.5h-7h-4h-4h-6h-6h-4q-3 1 -4.5 0t-1.5 -4z" />
</svg>
