<?xml version="1.0" standalone="no"?>
<!DOCTYPE svg PUBLIC "-//W3C//DTD SVG 1.1//EN" "http://www.w3.org/Graphics/SVG/1.1/DTD/svg11.dtd" >
<svg xmlns="http://www.w3.org/2000/svg" xmlns:xlink="http://www.w3.org/1999/xlink" version="1.1" viewBox="-10 0 266 256">
   <path fill="currentColor"
d="M61 248q1 2 4 2q2 0 3.5 -1.5t2.5 -3.5t1.5 -4.5t0.5 -4.5q0 -5 -1 -10.5t-1 -10.5v-1q0 -2 0.5 -5.5t0.5 -6.5v-5.5v-3.5q1 -2 3 -4.5l4 -5t4.5 -4.5t3.5 -4q1 -1 1.5 -2.5t1 -3.5t0.5 -4v-2q2 -6 6 -10t7 -8.5t6 -9.5t3 -12v-50q0 -5 -2.5 -9t-5.5 -8t-5 -8.5t-2 -11.5
q0 -4 1 -8t1 -8q0 -3 -1.5 -5t-3.5 -2t-3.5 0.5t-1.5 2.5v31q0 1 2 5.5t4.5 10t5 10.5t3.5 8q0 1 0.5 3l0.5 2v3v5v4v3v9t-1 14t-3.5 13t-7.5 6l-0.5 -0.5l-0.5 -0.5l-0.5 -0.5t-1.5 -0.5v-15q0 -8 1 -15.5t1 -14.5v-1v-4t-0.5 -6.5t-1 -6.5t-0.5 -4q0 -2 -2.5 -2h-3.5v81
l-0.5 4t-1.5 8.5t-2.5 8t-4.5 3.5q-1 0 -2 -1.5t-1.5 -3t-0.5 -3v-1.5v-12q0 -15 1 -29t1 -28v-4v-6t-0.5 -6t-0.5 -4q-2 -7 -10 -7q0 5 1.5 10t1.5 11t-0.5 11.5t-1 10.5t-1 11t0.5 13q0 3 -1.5 3.5t-2.5 0.5q-3 0 -6 -2.5t-3 -6.5v-46q1 -2 1.5 -5t1 -5.5t1.5 -5.5t2 -5
q1 0 2 -1.5t3 -3t3.5 -3t1.5 -2.5q3 -3 4 -7.5t1.5 -9t0 -9t-0.5 -8.5q0 -3 -0.5 -6.5t-4.5 -3.5q-3 0 -4 4t-1.5 9.5t-0.5 11.5v7q-1 1 -1.5 2.5t-1.5 3.5t-2 3.5t-2 2.5q0 1 -2 3t-3 2q-3 5 -4 10.5t-1.5 11.5t-0.5 12v11v13t0.5 12t2 11.5t5.5 10.5q1 2 2.5 3t3 1.5
t3 1.5t2.5 3q0 2 0.5 7.5t0.5 12t0.5 12t0.5 7.5q0 1 -0.5 4.5t-0.5 7.5t-0.5 7.5t-0.5 4.5v4.5v6.5v2v3v4v2zM126 193q0 6 0.5 11.5t3 10t6.5 7t10 2.5q12 0 22.5 -1t22.5 -1q7 -3 9.5 -5t3 -4.5t1 -6t2.5 -9.5v-34q0 -4 -4 -6t-8.5 -3t-9 -1h-5.5h-2h-7t-10.5 0.5t-11 0.5
h-7.5q-4 1 -8 3t-6 6q-1 4 -1.5 8t-0.5 7.5v6.5v8zM134 198q0 -1 1.5 -3t3.5 -2h20l0.5 1.5t0.5 2.5v7q0 2 0.5 4t0 4t-1.5 3t-3 1q-4 0 -7.5 -1t-7 -3t-5.5 -5.5t-2 -8.5zM168 212q0 -11 3.5 -15.5t13.5 -4.5q6 0 9.5 2t3.5 9q0 4 -2.5 6.5t-6 4t-7.5 2t-7 0.5t-5 -0.5
t-2 -3.5zM133 178q0 -5 1.5 -8.5t5 -5t7.5 -2.5t8 -1q1 0 4 0.5t3 3.5v18l-2 2h-3h-4q-2 0 -5.5 0.5t-7 0t-5.5 -2t-2 -5.5zM170 161h19q1 0 2.5 1l3 2t2.5 2.5l1 1.5v14q0 1 -2.5 2l-2.5 1h-1h-1q-5 -1 -10 -1t-9 -2l-1.5 -1.5l-0.5 -0.5v-19zM137 126q0 4 2 8.5t7 6.5h3.5
h5.5h6h3h17t17 -2q4 -3 5 -7.5t1 -9.5q0 -7 -2.5 -10.5t-7 -5t-10 -1.5h-11.5l-0.5 -1.5t-0.5 -2.5v0q0 -2 1 -3.5t2 -2.5h7t8 -1t7.5 -3t4.5 -6q1 -1 1.5 -3t0.5 -4v-3.5v-1.5q0 -1 -1.5 -3t-2.5 -3.5t-2 -2.5t-2 -1h-24l-2 -2v-3v-3q0 -2 -0.5 -5t0 -5t2 -3.5t3.5 -1.5
q7 0 11.5 2.5t9 6.5t9.5 6.5t10 2.5v-6l-0.5 -1t-2 -2.5t-3 -2.5t-2.5 -2q-3 -3 -8 -5.5t-8 -3.5q-1 0 -3.5 -0.5t-5.5 -1t-5.5 -1t-3.5 -0.5l-2 -2v-17q0 -2 -2.5 -2h-2.5h-3t-2 2v17l-2 2q-1 0 -3.5 0.5t-5 1.5t-5 1.5t-3.5 1.5l-2 1t-3.5 2t-3.5 2.5l-2 1.5
q-1 1 -3.5 1.5t-4.5 1.5t-3.5 2.5t-1.5 4.5q0 2 1.5 2.5t3.5 0.5q3 0 7 -2t7.5 -5l7 -6t7.5 -4h2t2.5 0.5l3 1t2.5 0.5v20q0 3 -4.5 3.5t-9.5 1.5t-9.5 3.5t-4.5 7.5q0 6 2.5 9t5.5 5t7 3t7 2t5.5 2.5t2.5 4.5v3q0 1 -2 1q-4 0 -8.5 1t-8 3t-6 5t-2.5 9zM144 128
q0 -6 4 -8.5t9 -3.5t10.5 -1h8.5h15q2 2 3.5 4.5t1.5 5.5q0 5 -4 7t-9 2.5t-10 0t-7 -0.5h-3h-4.5h-5.5h-2q-2 -1 -4.5 -2.5t-2.5 -3.5zM145 80q0 -4 4.5 -6t10 -3t11.5 -0.5t9 0.5h9q2 1 4 3.5t2 4.5q0 3 -1.5 5t-4.5 2q-4 1 -8 1t-7.5 0.5t-7 0.5h-7.5h-5t-4 -0.5
t-3.5 -2.5t-1.5 -5z" />
</svg>
