<?xml version="1.0" standalone="no"?>
<!DOCTYPE svg PUBLIC "-//W3C//DTD SVG 1.1//EN" "http://www.w3.org/Graphics/SVG/1.1/DTD/svg11.dtd" >
<svg xmlns="http://www.w3.org/2000/svg" xmlns:xlink="http://www.w3.org/1999/xlink" version="1.1" viewBox="-10 0 266 256">
   <path fill="currentColor"
d="M137 175q0 19 -2.5 38t-2.5 38q4 0 6 -2t3 -5t1.5 -6t0.5 -6l3 -60q0 -1 3 -2t6 -3.5t6 -7t3 -11.5q0 -2 -0.5 -3.5t-3.5 -1.5h-1l-3 14l-1 0.5t-2 1.5t-2 1.5l-1 0.5q-1 1 -2 0.5l-1 -0.5q0 -7 0.5 -12.5t0.5 -10.5v-1q0 -1 -0.5 -3.5t-1.5 -2.5v-2q0 -1 0.5 -2t1.5 -1
h34v29l-1 5q-1 0 -2 -0.5t-2 -1.5l-1 -0.5l-1 -0.5v-15l-1.5 0.5t-2.5 0.5q-2 1 -2.5 2t-0.5 3q0 8 3 12.5t11 6.5l2 25q-1 0 -1.5 2l-0.5 2q0 1 0.5 2t0.5 2.5t0.5 2.5l0.5 1v7v11v11.5v7.5q0 1 1.5 4t3.5 3h0.5h0.5l1.5 -0.5l1.5 -0.5v-22q0 -13 -1 -25t-1 -25
q0 -3 2.5 -4.5l5 -3t4.5 -3t2 -4.5v-21q0 -2 -1 -2h-2h-2.5t-1.5 2v15l-1.5 2l-1.5 2h-1q-1 0 -2.5 -1.5t-1.5 -2.5v-26q0 -1 1.5 -2t3.5 -3l4 -4t2 -5v-15v-14q0 -1 -0.5 -4t-1.5 -4q-1 -2 -2.5 -2.5t-3.5 -1t-3.5 -1.5t-1.5 -4v-2.5v-1.5q1 -8 2 -9.5t3 -1l4 1t5 -3.5
q1 0 2 -2.5t1 -3.5v-26l-1 -1h-1q-2 0 -3 3t-1.5 7.5l-1 9t-2.5 6.5q-1 0 -2 -0.5l-1 -0.5q0 -8 0.5 -15t0.5 -14q0 -4 -4 -4q-2 0 -3 2.5t-1.5 5.5t-0.5 5.5v3.5t-0.5 3.5t-0.5 5.5t-0.5 5.5t-0.5 3.5l-1 0.5l-1 0.5q-4 0 -4 -3t0.5 -7t0 -7.5t-3.5 -3.5q-1 0 -2 0.5
t-1 1.5v18q0 3 2 4.5l4 3l4 3t2 5.5q0 3 -0.5 7t-4.5 5h-3.5t-6 0.5t-6.5 0.5h-4h-2q-1 0 -2.5 -0.5t-2.5 -2.5q-1 0 -1 -3v-3q0 -2 0.5 -5.5t1.5 -5.5l1.5 -1t3 -3t3 -3t2.5 -2q0 -1 0.5 -3t0.5 -4.5v-4.5v-4v-4v-3l-1.5 -0.5l-1.5 -0.5h-1h-1q0 1 -0.5 4t-1 6.5t-1 6.5
t-0.5 4t-0.5 2l-0.5 1l-0.5 0.5l-0.5 0.5l-0.5 -0.5l-0.5 -0.5l-0.5 -2l-0.5 -2v-31q-5 0 -6.5 2t-1.5 6v30q-6 0 -7.5 -3.5t-1.5 -8.5t-0.5 -8.5t-3.5 -3.5t-3 2v3q0 5 1 9t2 10q1 2 3 3t4.5 2t4 2t1.5 3v16q0 2 -1.5 3.5l-3 3l-3 3l-2.5 2.5v9q0 4 0.5 10t1.5 11
q1 2 3.5 5t2.5 7v8t-0.5 7.5t-1 7.5t-0.5 9q1 2 0 2.5t-2 0.5q-4 0 -5 -3t-1.5 -6.5t-1.5 -7t-3 -5.5q-1 0 -2 0.5t-1 1.5t-0.5 3l-0.5 2q0 9 2.5 13t5.5 6t5.5 3.5t2.5 4.5zM67 244l1.5 1.5l1.5 1.5q1 0 2.5 -1t2.5 -3t2 -3.5l1 -1.5v-7v-11v-10v-7q0 -1 0.5 -3.5l1 -5
t1 -4.5t0.5 -3l1.5 -1.5l3 -3t3 -2.5t1.5 -2q2 -2 3.5 -5.5l3 -7t2 -7.5t1.5 -6l2.5 -2.5l3.5 -3.5q6 -5 7.5 -9.5t2 -8t0.5 -6.5t2 -5v-61q0 -1 -1.5 -2t-3 -2.5t-3 -4t-1.5 -7.5q0 -6 1.5 -11.5t1.5 -11.5q0 -3 -0.5 -4t-3.5 -1q-2 0 -3.5 4t-2.5 9t-1 10v7v4.5v4.5
q4 5 6 9t3.5 8t1.5 9v11v6v10.5t-1 11.5t-2.5 11.5t-3.5 8.5t-5 3q0 -16 0.5 -30.5t0.5 -29.5v-10q-1 -1 -2 -1.5t-2 -0.5h-2.5t-1.5 1v3t-0.5 4.5t-0.5 5v3.5v10.5v16.5v17v11q-2 4 -2 9t-0.5 10t-1.5 9.5t-5 7.5l-2 -1v-4v-7v-8v-6q0 -18 1 -35.5t1 -34.5v-11
q-1 0 -2 -1.5t-2 -1.5v0h-0.5h-0.5l-0.5 0.5l-1.5 1.5q0 3 -0.5 10.5t-1 16t-1 17.5t-1 16t-1.5 11.5t-2 4.5q-4 0 -5.5 -2.5t-2 -6.5t-0.5 -8v-5q0 -2 -0.5 -7.5t0 -12.5t0.5 -15t1.5 -14.5t3 -12t4.5 -6.5l2 -0.5t3 -1.5q4 -2 6 -6t3 -9t1.5 -9.5t0.5 -8.5v-3.5t-2 -2.5
h-8l-0.5 4t-1.5 9t-1.5 10t-0.5 6q-1 2 -3.5 4t-5.5 4t-5 4t-2 3v2v3v3v1q0 6 -1 11.5t-1.5 10.5t-0.5 10.5v11.5v6v8.5v7.5v6q1 5 3 7.5t4 3.5t5 1q2 0 3.5 0.5t2.5 2t1 5.5q0 20 -2.5 39.5t-2.5 39.5v8zM146 119q-3 -2 -4.5 -5.5t-1.5 -7.5v-1q0 -2 2 -2l32 -1h5t6 1
t4.5 2t1.5 4q0 5 -2 7t-5 4h-3h-4h-3h-3h-12.5t-12.5 -1zM142 96v-2v-2q0 -3 1 -6.5t5 -3.5q7 -1 14 -1.5t14 -0.5q6 0 10.5 2t4.5 9v3q0 1 -1 2h-6t-8 0.5t-8 0.5h-6h-1v0h-4.5t-5.5 -0.5t-5.5 -0.5h-3.5z" />
</svg>
