<?xml version="1.0" standalone="no"?>
<!DOCTYPE svg PUBLIC "-//W3C//DTD SVG 1.1//EN" "http://www.w3.org/Graphics/SVG/1.1/DTD/svg11.dtd" >
<svg xmlns="http://www.w3.org/2000/svg" xmlns:xlink="http://www.w3.org/1999/xlink" version="1.1" viewBox="-10 0 266 256">
   <path fill="currentColor"
d="M112 177q0 10 2 19t5.5 16t9 14t13.5 14q4 3 9 6.5t10 3.5q4 0 4.5 -0.5t0.5 -4.5v-1.5v-1.5q-9 -4 -16 -9.5t-16 -9.5q-1 0 -1 -1v-2t2.5 -4.5t5.5 -7l6 -7t4 -4.5q6 0 13 -0.5t13 -2t10 -5.5t4 -12q0 -10 -4 -16t-9.5 -9t-10 -5t-4.5 -4v-18q-2 0 -3.5 1.5t-2 4
t-0.5 5.5v3q0 9 4 12t9 6t9 7t4 12q0 5 -3 8t-6.5 4.5t-8 1.5h-8.5h-2t-2 -1v-25q0 -1 -1 -1h-2h-2v4t-0.5 6t-0.5 6v4q-1 3 -2 7.5t-3 8.5t-5 7t-7 3q-3 0 -5 -3t-3 -7t-1.5 -8t-0.5 -5v-4t-0.5 -6.5t-0.5 -6.5v-5l-0.5 -0.5t-1.5 -0.5h-1v0q-1 0 -2 1t-1 2t-0.5 5.5
t-0.5 5.5zM68 177q0 6 2.5 11t6.5 8.5t9.5 6t11.5 2.5q3 0 6.5 -2.5t3.5 -5.5v-1q-4 -1 -9.5 -2t-10.5 -3.5t-8 -6t-3 -9.5q0 -5 3 -8.5t8 -6t10.5 -4t10.5 -4.5t8 -7t3 -12q0 -2 -0.5 -4.5t-4.5 -2.5q-1 0 -1.5 0.5t-0.5 2.5l-0.5 2t-0.5 4t-0.5 4l-0.5 2q-3 4 -7 6.5t-9 4
l-10 3t-8.5 4.5t-6 7t-2.5 11zM96 110h1.5t1.5 1v22q0 1 1 3.5t3 2.5h1q0 -1 1 -2q0 -6 0.5 -11.5t1.5 -11.5l1 -1l1.5 -1.5l1.5 -1.5t2 -1h19l0.5 -0.5l1.5 -1.5v-2v-3h-26l-1 -3t0 -3q1 -3 3 -4t5 -1t6.5 -0.5t6 -2.5t4.5 -6t2 -12q0 -3 -1.5 -9t-3.5 -8q-1 -1 -4.5 -2
t-7.5 -2.5t-7 -2.5l-3 -1q0 -5 1.5 -7.5t4.5 -3.5t7 -1h9q1 -1 1 -2t1 -1v-1q0 -3 -1 -3.5t-4 -0.5q-4 0 -8 0.5t-8 0.5v-12q0 -2 -2 -2.5t-4 -0.5q-3 0 -3.5 2.5t0 6t0.5 6.5t-2 3h-28v3.5v2.5q0 1 0.5 1.5l0.5 0.5h27q2 0 2.5 2.5t0.5 3.5q0 3 -3.5 4t-8 2.5t-9.5 3.5
t-9 5v5v5q0 9 1 13.5t4.5 7t8.5 3t13 1.5v9l-1.5 0.5t-3.5 1t-4 0.5h-4h-22q-4 2 -4 4q0 4 2.5 4.5t5.5 0.5q7 0 14 -1.5t14 -1.5zM144 116v4v5.5v4.5v1l3 3l3 -3q0 -13 0.5 -28t0.5 -28v-2q1 -2 2 -5t1 -4q2 -3 6 -5t9 -3t9.5 -1.5t8.5 -1.5t6.5 -4t2.5 -8q0 -8 -5.5 -12
t-13.5 -5h-3t-4 0.5t-4 0.5h-3h-1h-3h-3h-2l-1.5 0.5l-3 1t-3 1.5t-1.5 2t1.5 2.5t3.5 1.5h34l1 2l2 4v0.5v0.5q0 3 -4.5 5t-10.5 3.5t-11 2.5t-7 2q-2 2 -3 3.5t-2 3.5t-1.5 3.5t-2.5 3.5q-1 13 -1 24v24zM172 129q1 1 1.5 1h1.5h2t1 -1v-4v-3q0 -7 -2.5 -13t-2.5 -13
t3.5 -10.5t7.5 -6t7.5 -4t3.5 -4.5q0 -2 -1.5 -2.5t-3.5 -0.5q-7 0 -13.5 5t-8.5 11q-1 1 -1 4v5q0 9 1.5 18t3.5 18zM81 79v-1q1 0 1.5 -1t0.5 -2h3h4t3.5 -0.5t2.5 -0.5h2h2t1 1v10q0 2 -1.5 2h-2.5h-4.5t-5 -1t-4.5 -2.5t-2 -4.5zM119 74q3 0 4.5 1t1.5 4t-2 4.5t-5 2
t-5 0.5h-5v-11l1.5 -0.5t3.5 -0.5h3.5h2.5zM83 61q0 -2 2 -3t4 -1.5t4.5 -1t3.5 -0.5q2 0 3.5 1.5t1.5 3.5l-0.5 2.5l-0.5 2.5q0 1 -0.5 1.5t-1.5 0.5h-13q-2 0 -2.5 -2.5t-0.5 -3.5zM108 60v-1v-2l3 -1.5t3 -0.5q5 0 8 2t3 7q0 1 -0.5 2t-1.5 1h-12q-2 0 -2.5 -2.5
t-0.5 -4.5z" />
</svg>
