<?xml version="1.0" standalone="no"?>
<!DOCTYPE svg PUBLIC "-//W3C//DTD SVG 1.1//EN" "http://www.w3.org/Graphics/SVG/1.1/DTD/svg11.dtd" >
<svg xmlns="http://www.w3.org/2000/svg" xmlns:xlink="http://www.w3.org/1999/xlink" version="1.1" viewBox="-10 0 266 256">
   <path fill="currentColor"
d="M96 243v5t3 2h3t2 -1v-25q0 -2 4.5 -3t10 -1.5t11 -0.5h6.5h11q1 6 1.5 13.5t-0.5 13.5q2 1 2.5 2t2.5 1q3 0 4 -2t1 -4v-4q0 -1 -0.5 -6.5t-1 -11.5t-1 -11t-0.5 -7q-1 -9 -1 -15t-1.5 -10.5t-5.5 -8t-13 -7.5v-1v-2q0 -3 1.5 -4.5t4.5 -2.5t5.5 -2t4.5 -3q3 -5 3 -11.5
v-11.5v-10q-2 -5 -5 -6.5t-5.5 -2.5t-5 -2.5t-2.5 -4.5v-2q0 -2 1 -3q5 -2 9 -3.5t6 -4t3 -6.5t1 -11v-2.5t-0.5 -3t-1.5 -2.5t-2 -1q-3 0 -3 4q0 3 -0.5 8t-2.5 9t-9 4q0 -4 -0.5 -6t-0.5 -3t0.5 -3t1.5 -5t3 -5.5t4.5 -5t4 -5t1.5 -4.5q0 -4 -2 -6.5t-4.5 -4t-6 -3
t-6.5 -2.5t-3.5 -4l-1 -6t-1.5 -5.5t-4 -3.5q-2 0 -3 1t-1.5 2.5t-0.5 3v2.5v4l0.5 1t1.5 2.5t1.5 2.5t0.5 2q0 2 -2.5 4.5t-5.5 5t-5.5 5.5t-2.5 7q3 0 6 -1.5t5.5 -4l5 -5t3.5 -4.5h3q2 0 4 0.5t4 1.5t4 2.5t2 3.5v2q-1 0 -2.5 2l-3 4l-3 4l-1.5 2q-2 2 -2 6t-0.5 7.5
t-1.5 6t-4 2.5t-4.5 -2.5t-2.5 -6t-1 -7v-4.5h-1h-1h-1.5t-1.5 1v3v3q0 7 2.5 11t6 6t6.5 3.5t3 4.5q0 4 -3.5 5.5t-7.5 3.5t-7.5 5.5t-3.5 11.5q0 7 1 13t4 12q2 2 4.5 3l5 2t4 3t1.5 6v3t-2 1q-9 3 -13.5 5t-6.5 3.5t-2 3.5v5t-0.5 7t-2.5 10q0 2 -0.5 8.5t-1 13.5t-1 13
t-0.5 9v0zM55 243l2 4t3 2t3 -1.5t2 -3.5v-4t0.5 -6.5t1 -6t0.5 -3.5q0 -7 4 -12.5t7 -11.5q1 -4 2.5 -7.5t2.5 -7t3 -7t5 -6.5q0 -1 2 -3.5t3 -3.5q5 -16 5.5 -33t0.5 -34v-16q0 -7 -2 -15q0 -1 -1.5 -4t-3.5 -6.5t-3 -6.5t-1 -4v-22q-2 0 -4.5 1t-2.5 3v25q0 2 1.5 3.5
t2.5 3.5t2.5 4t1.5 4.5t0.5 8.5t1.5 12.5t1 12t1 7.5v10v11q-1 1 -2 7t-2 12.5t-2.5 12t-2.5 5.5q0 1 -1 0t-2 -1v-93q0 -1 -1 -1h-2q-3 0 -3.5 2.5t-1.5 4.5q0 3 0.5 8t0.5 10.5t0.5 11t0.5 7.5v0v1q0 2 -0.5 6t-0.5 10v12.5v12t-0.5 10t-0.5 5.5v5t-0.5 8t-2 7.5t-3.5 3.5
q-1 0 -2 -0.5t-1 -1.5v-13q0 -25 0.5 -50t2.5 -49v-2t0.5 -2.5t0.5 -2.5v-1q0 -1 -2 -3l-2 -2q-2 0 -4.5 2t-2.5 4v2q0 1 0.5 4t0.5 6v6v4v2v1v8v11v13t-0.5 13t-0.5 11v7q1 3 0 4t-3 1h-2t-1 -2q-2 -11 -2 -20v-20q0 -16 0.5 -31.5t4.5 -30.5l0.5 -1t0.5 -2q1 0 2.5 -2
t3.5 -4l4 -4l2 -2l0.5 -2.5t1 -5.5t0.5 -6t1 -5v-2q0 -2 -2 -4t-4 -2t-4 0.5t-2 3.5t1 6t1 7q0 2 -2.5 6.5t-6 9t-6 9.5t-2.5 10v70q0 1 -0.5 2.5t-0.5 3.5t-0.5 4t-0.5 3v1v0q0 2 0.5 4t1 4.5t1 4l0.5 1.5q0 1 1.5 2.5l3.5 3.5l3.5 3.5l1.5 1.5q0 1 0.5 2l0.5 1
q0 2 0.5 5.5t0.5 4.5q0 2 -0.5 5.5l-0.5 3.5v7.5t-0.5 11t-1 10.5t-1.5 8zM186 142q0 11 -1.5 22.5t-3.5 23.5t-4.5 23.5t-3.5 21.5q-1 4 -2.5 8t-1.5 8h4h4t1.5 -1l0.5 -1v-3t0.5 -4t0.5 -4v-3q1 0 1.5 -3t1.5 -6.5t1.5 -6t1.5 -3.5q0 -4 0.5 -10t0.5 -12.5t1 -13t2 -11.5
q0 -2 0.5 -8.5t0.5 -14t0.5 -14t0.5 -8.5v-11q0 -1 0.5 -3l0.5 -2h8l2 13q0 3 -0.5 12t-1 19.5t-1 19.5t-0.5 13v1.5v3.5v4v2q4 0 6.5 -3.5t3.5 -7.5v-4t0.5 -6t0.5 -5.5v-3.5v-6v-11v-13.5v-11.5v-8v-12v-13v-8q0 -1 -0.5 -2.5l-1 -3t-1.5 -2.5t-2 -1h-1q-1 0 -3 1t-2 2v23
l-1.5 1t-3.5 1h-1q-1 0 -2.5 -6t-2.5 -14t-1.5 -15.5t-0.5 -10.5q0 -5 2 -8.5t4.5 -6.5t4.5 -5.5t2 -5.5t-1.5 -3h-3.5q-4 0 -5 0.5t-3 4.5q-1 1 -2 3.5t-3 5.5t-3 5.5t-2 3.5v6q0 5 1 10t2.5 10.5t2.5 11t1 10.5q0 3 -1.5 3.5t-4.5 0.5t-5 -1.5t-2 -5.5v-1l0.5 -1.5
t0.5 -2.5t0.5 -2.5l0.5 -1.5v-2q0 -2 -1 -4.5t-4 -2.5h-2l-0.5 1.5t-0.5 3.5t-0.5 3.5t-0.5 2.5l0.5 2.5l1 5t0.5 5v2.5v2q0 21 -1.5 42t-1.5 42q2 0 3.5 -3t2.5 -7.5t2 -10t1 -10.5t0.5 -9.5t0.5 -5.5v-18v-2.5v-4t0.5 -4.5t0.5 -3t2 -1h3h3q1 0 2 1q0 6 0.5 9.5t0.5 7.5
t0.5 7.5t0.5 8.5zM105 207v-2.5t0.5 -3.5t2 -3t2.5 -1h11l2 2v1.5v2.5v3.5v3.5l-1 1.5l-1 1.5h-13q-3 0 -3 -2.5v-3.5zM132 211v-5q0 -5 1.5 -8t7.5 -3t6 7v3q0 1 -0.5 3t-1.5 3.5t-2 1.5h-1q-1 -1 -5 -1.5t-5 -0.5zM108 184q0 -5 2.5 -8.5t8.5 -3.5q4 0 4.5 3t0.5 6
q0 6 -2.5 8t-8.5 2q-4 0 -4.5 -2.5t-0.5 -4.5zM132 177q0 -2 0.5 -3.5t2.5 -1.5q3 0 5 1.5t3.5 4t2 5t0.5 4.5h-12q-1 0 -1 -1t-0.5 -3t-0.5 -3v-3zM113 137q0 -4 2.5 -5t5.5 -1t4 3t1 5v2t-0.5 2.5t-1 2.5t-1.5 1q-4 0 -7 -3.5t-3 -6.5zM134 139v-2.5v-2.5q3 0 6 -1t6 -1
q0 2 -0.5 4.5t-1.5 5t-2.5 4t-4.5 1.5t-3 -3v-5zM122 110q1 0 2.5 0.5t1.5 1.5v11q0 1 -0.5 1.5t-1.5 0.5h-1.5h-3h-3.5h-2v-5q0 -2 0.5 -4.5t2.5 -4t5 -1.5zM134 115q0 -2 1.5 -3.5t4.5 -1.5l2.5 0.5t2.5 1.5v11q0 1 -0.5 1.5t-2 0.5h-2.5h-1h-3q-1 -1 -1.5 -4t-0.5 -4v-2z
" />
</svg>
