<?xml version="1.0" standalone="no"?>
<!DOCTYPE svg PUBLIC "-//W3C//DTD SVG 1.1//EN" "http://www.w3.org/Graphics/SVG/1.1/DTD/svg11.dtd" >
<svg xmlns="http://www.w3.org/2000/svg" xmlns:xlink="http://www.w3.org/1999/xlink" version="1.1" viewBox="-10 0 266 256">
   <path fill="currentColor"
d="M126 233l17 18h10q0 -3 -1.5 -5t-4 -4.5t-4.5 -4t-4 -2.5q0 -1 -0.5 -1.5l-0.5 -0.5q0 -7 4 -10t9.5 -4t11 -1.5t9.5 -1.5q4 -2 8 -5t7 -6.5t5 -8t2 -9.5q0 -4 -2.5 -8t-5.5 -6.5t-7.5 -4.5t-7.5 -3q-5 -2 -8 -5t-5 -6t-4 -5t-4 -2v4q0 2 0.5 4.5t0.5 4.5t1 3q2 5 7 6.5
l10 3t9.5 5.5t4.5 13q0 6 -3 10t-8 6t-10 3t-10 1v-29q0 -2 -2 -4.5t-4 -2.5l-1 0.5t-2 0.5v4q0 4 1 7t1 7q0 2 -0.5 7t-1.5 11t-3.5 10t-6.5 4q-3 0 -5 -5t-3.5 -11t-2.5 -11.5l-1 -5.5q0 -3 1 -6.5t1 -6.5q0 -2 -1.5 -3t-3.5 -1q-1 0 -2 0.5t-2 1.5v3.5v3.5q0 6 1 11.5
t1 11.5q0 3 -3 3.5t-6 0.5q-2 0 -6 -1t-7.5 -2.5t-6 -3.5t-2.5 -5v-16l2.5 -2.5l3.5 -3.5l1 -0.5t2 -1.5l2.5 -1.5t4.5 -3t4.5 -3t2.5 -2.5q3 -1 5 -2t3.5 -2t2 -3t0.5 -6v-5q-1 -2 -2 -2h-2t-2.5 2t-2.5 4.5l-2 5t-3 3.5q-5 4 -10.5 7t-10.5 6.5t-8 9t-3 13.5q0 3 2 6.5
t4.5 6.5t5.5 5.5t6 2.5h26l2 2q1 3 3 6.5t4 6.5zM72 145q0 2 1 2.5t2 0.5q4 0 6 -3t3 -7.5t1 -10.5q0 -5 0.5 -11t1.5 -11t4 -8q2 -3 6 -5t8 -3.5t7.5 -2t7.5 -1.5h1h1q5 0 6.5 3t1.5 7v2.5v2.5q-2 0 -6 1t-8 3t-7.5 4t-3.5 5v27q0 1 0.5 1.5t1.5 0.5h2h3v-25l1 -1l2.5 -2.5
l3 -3l2.5 -2.5q3 -2 5 -1.5t5 0.5v33q0 1 1 2l1 1h1q1 0 2 -1.5t1 -2.5v-29q0 -2 3.5 -2.5t4.5 -0.5q5 0 7.5 2.5t4 6.5t2 9t1.5 9t2 6.5t3 2.5q3 0 4.5 -3.5t1.5 -5.5q0 -3 -1 -6t-2 -6.5t-2.5 -7t-1.5 -4.5q-2 -4 -6.5 -5.5t-9 -2.5t-8 -3t-3.5 -7q0 -2 0.5 -4t2.5 -3h4.5
h4.5h12.5t7 1.5t4.5 5t5 9.5q3 5 4.5 9.5t2.5 10.5q1 2 1 5t0.5 6.5t1 6.5t0.5 4t0.5 1.5t1.5 0.5q4 0 5 -4t1 -7q0 -2 -1.5 -9t-3.5 -15t-4.5 -15t-5.5 -9q-4 -2 -8.5 -3t-7.5 -5h-27l-0.5 -2.5t-0.5 -3.5q1 -1 2.5 -2t3.5 -2t4.5 -2t3.5 -3t2 -5t1.5 -5.5t2.5 -4t6 -1.5
q5 0 7 4.5t3.5 9.5t4 9.5t8.5 4.5h2h2l0.5 -1t0.5 -2q-1 -4 -3 -6l-4.5 -4.5t-4.5 -5t-2 -7.5v0q0 -1 0.5 -1.5l0.5 -0.5q4 -2 9 -2q4 0 9 -1q1 0 1 -1v-2q0 -3 -1.5 -3.5t-3.5 -0.5q-3 0 -5 0.5t-5 0.5t-3.5 -2t-0.5 -4q0 -3 1.5 -5.5t1.5 -5.5q0 -2 -0.5 -3t-3.5 -1v0
q-3 1 -4 3.5t-2 5.5t-1.5 6t-0.5 5q0 3 -2 3h-4t-4.5 -0.5t-3.5 -2.5v-6t-1 -8t-2.5 -7t-5.5 -3q0 6 1 11t1 11l-0.5 2.5l-0.5 2.5q0 1 -1.5 2t-2.5 1h-20l-3 -2v-2.5v-3.5q0 -4 0.5 -8t0.5 -8q0 -3 -0.5 -4t-3.5 -1h-3t-1 3v24q0 2 -2.5 2.5t-3.5 0.5q-6 0 -7.5 -3.5
t-2.5 -7.5t-3 -7.5t-10 -3.5q0 3 1 5.5t2.5 4.5t2.5 4.5t1 5.5v2t-2 2h-29q-1 0 -1 2v2v2t1 1h24q1 0 3.5 1t2.5 3t-3 5t-7 6t-7.5 5.5t-4.5 4.5q1 1 2.5 2t3.5 1q5 0 8.5 -3.5t5.5 -7.5q1 -1 2.5 -3t3.5 -5t3.5 -5.5t2.5 -3.5q2 -2 4 -2.5t5 -0.5q2 0 3 1t1.5 2.5t0.5 3.5
v3q1 4 3.5 6t5.5 4t5 3t2 2v1.5t-1 1.5q-10 1 -19 2.5t-15.5 4.5t-11.5 9t-7 17q-1 8 -2.5 17t-1.5 17zM120 55q0 -3 2 -4t5 -2t6 -1h5q1 0 4.5 0.5t4.5 0.5t1.5 0.5l0.5 0.5v1q0 8 -5.5 11t-11.5 3h-3.5h-2.5q-3 -2 -4.5 -4.5t-1.5 -5.5z" />
</svg>
