<?xml version="1.0" standalone="no"?>
<!DOCTYPE svg PUBLIC "-//W3C//DTD SVG 1.1//EN" "http://www.w3.org/Graphics/SVG/1.1/DTD/svg11.dtd" >
<svg xmlns="http://www.w3.org/2000/svg" xmlns:xlink="http://www.w3.org/1999/xlink" version="1.1" viewBox="-10 0 266 256">
   <path fill="currentColor"
d="M71 246q1 2 1.5 3.5t3.5 1.5h0.5h0.5q1 -1 3 -2.5t2 -2.5v-38q5 -4 8 -7.5t5 -7.5t2.5 -9t1.5 -11q1 -2 3 -2.5t4 -2.5q3 -7 5 -13.5t2.5 -13.5t0.5 -13v-15v-9v-13v-12t-1 -11q-1 -3 -3 -6l-4 -6t-3.5 -6t-1.5 -6q0 -7 1.5 -13t1.5 -12q0 -3 -0.5 -5.5t-4.5 -2.5
q-2 0 -3 2t-1.5 4.5t-0.5 5.5v4q0 7 0.5 13t1.5 14q1 3 4 7.5t4 8.5q3 10 4 21t1 22q0 2 -0.5 5.5t-0.5 9t-1 11t-2 10t-2 7.5t-3 3h-0.5h-0.5q0 -1 -0.5 -4t-0.5 -5.5t-0.5 -5.5t-0.5 -4v0q0 -13 1 -24.5t1 -24.5v-9q-1 -1 -1 -1.5t-1 -0.5l-2.5 -0.5t-3.5 -0.5v93v2v3.5
t-0.5 3.5l-0.5 2q0 1 -0.5 2.5t-1.5 3.5t-2 3t-3 1v0q-1 0 -1.5 -1l-0.5 -1v-109q0 -1 -1 -1.5t-2 -0.5l-1 1t-1 2t-0.5 3t-1 4.5t-0.5 5v3.5v63q0 2 -1 2.5t-3 0.5t-3.5 -1.5t-2.5 -3.5t-2 -4.5t-1 -3.5v-4.5t-0.5 -7.5t-0.5 -8v-6v-16v-14t1.5 -14t4.5 -13t8 -12
q4 -5 4.5 -11.5t0.5 -12.5v-5.5v-7t-1 -7t-2 -3.5h-1h-1l-2 1l-2 1v36q-3 3 -6 6.5t-5 7.5t-3.5 8.5t-1.5 7.5v33v32v7q0 3 0.5 7t2 7.5t4.5 5.5q1 1 3 2t4 1.5t3.5 1.5t2.5 3q1 8 1.5 14t0.5 13q0 11 -2 21t-3 20zM136 173q0 6 -0.5 14t0 17t3 16.5t7.5 11.5h3.5h3.5h7.5
t7 -0.5l7 -1t8.5 -1.5q2 0 4.5 -2.5t2.5 -4.5v-60l-0.5 -0.5t-0.5 -1.5q-1 0 -2 -0.5l-1 -0.5q-1 0 -3 -0.5l-2 -0.5v14l-2 1h-2h-2q-6 0 -8.5 -1.5t-3 -4.5t-0.5 -6v-6t-1 -4.5t-5 -1.5h-0.5h-0.5q-1 4 -1.5 6.5t-0.5 6.5q0 7 1.5 11t5 6t8.5 2.5t11 0.5l2 1v2v2
q0 4 -0.5 7.5t-5.5 3.5h-30l-0.5 -0.5l-1.5 -1.5q-1 -3 -1 -7v-8v-8.5v-6.5q0 -1 -1 -4t-3 -3q-1 0 -2 0.5l-1 0.5v3v4v4v2zM144 211v-2t2 -3q4 0 7.5 -0.5t6 -0.5h5.5h7h3.5h3.5q3 1 3 6q0 4 -2 7t-5 4.5t-6.5 2t-7.5 0.5q-8 0 -12.5 -3t-4.5 -11zM124 107q0 9 0.5 16
t3.5 11.5t8 6.5t15 2h8h7t7 -0.5t9 -0.5q3 -2 6 -3.5t5.5 -3t4 -4t1.5 -6.5v-3v-4.5v-5.5v-4v-3v-5.5v-4.5v-4q-1 -1 -3.5 -3t-3.5 -2h-52q-5 0 -9.5 2t-6.5 8v5.5v5.5zM144 136v-2q0 -5 1 -9.5t1 -9.5t-1.5 -10.5t-1.5 -10.5q0 -2 1 -2.5t3 -0.5q3 0 4.5 0.5l4.5 1.5
q-1 8 0 16.5t1 16.5q0 1 0.5 3t0 3.5t-1.5 3t-3 1.5q-1 0 -4.5 -0.5t-4.5 -0.5zM163 106q0 -8 1.5 -11t8.5 -3v28q0 1 1 2.5t1.5 3.5t1 3.5t0.5 2.5v0v1q0 1 -0.5 2l-0.5 1h-10l-1 -2l-0.5 -2.5t-0.5 -7t-0.5 -9t-0.5 -6.5v-3zM130 104v-3v-4q1 0 2.5 -2l1.5 -2h1h1
q0 6 2 11.5t2 12.5q0 1 0.5 3t0 5t-1.5 5t-3 2t-3 -3.5t-2 -8.5t-1 -9.5v-6.5zM180 104v-13q1 0 3 1t3.5 1.5t2.5 2t1 3.5v30q0 1 -2 2l-2 1q-5 -6 -5.5 -13.5t-0.5 -14.5zM119 77q1 3 5 3v0q1 0 2 -0.5t1 -1.5l17 -17q3 -2 4.5 -6t1.5 -8.5v-8.5v-7v-13q0 -1 -1 -1h-2
q-2 0 -2.5 1t-1 2.5t-0.5 3.5v3q0 4 0.5 7.5t0.5 7.5q0 6 -3 10.5t-7 8.5t-8.5 8t-6.5 8zM166 50q1 5 4.5 8.5t8 6.5t9 5.5t8.5 3.5h1q2 0 3.5 -1t1.5 -3q0 -4 -4.5 -6t-10 -5.5t-10 -9t-4.5 -16.5q0 -3 1 -6.5t1 -6.5t-0.5 -4t-3.5 -1q-2 0 -4 1.5t-2 3.5v1v6v8.5t0.5 8.5
t0.5 6z" />
</svg>
