<?xml version="1.0" standalone="no"?>
<!DOCTYPE svg PUBLIC "-//W3C//DTD SVG 1.1//EN" "http://www.w3.org/Graphics/SVG/1.1/DTD/svg11.dtd" >
<svg xmlns="http://www.w3.org/2000/svg" xmlns:xlink="http://www.w3.org/1999/xlink" version="1.1" viewBox="-10 0 266 256">
   <path fill="currentColor"
d="M60 32q0 6 -2.5 11t-5.5 10.5t-5.5 11.5t-2.5 13v65q0 3 2 7t3 7l1.5 1t3.5 2l3 1.5t1 1.5v84l1.5 1.5t2.5 1.5q2 0 3.5 -2t2.5 -4t1 -4.5t1 -4.5v0v-1q0 -2 -0.5 -7t-0.5 -10.5t-0.5 -10.5t-0.5 -7q1 -2 1.5 -2.5l1.5 -1.5l1.5 -1.5l2.5 -2.5q3 -5 4.5 -10.5t3.5 -10.5
v-2.5t0.5 -3.5t0.5 -3.5t0.5 -2t2 -2.5t3.5 -4l3.5 -3.5l1.5 -1.5q4 -4 5.5 -9.5t2.5 -11.5t1 -12v-11q0 -13 -0.5 -26t-3.5 -25q0 -4 -2.5 -7t-3.5 -7v-3.5v-5.5v-6v-4q-1 -7 -6 -7h-2t-2 2v2v4v3v2q0 8 1 11.5t2 6t3 5.5t4 9q3 7 3 15v17v7q0 2 -0.5 7.5t-1 12t-1 12
t-0.5 7.5q0 1 -1.5 3l-1.5 2q-1 0 -2.5 -0.5t-2.5 -0.5v-74q0 -2 -1.5 -2h-1.5q-2 0 -3.5 1.5t-1.5 3.5v28v5t-0.5 9.5t-0.5 11.5v11.5t-0.5 9.5t-0.5 5q0 10 -1 17.5t-5 15.5q-1 0 -1.5 -0.5t-0.5 -1.5l-0.5 -3.5t-0.5 -4.5v-14q0 -22 0.5 -43.5t0.5 -43.5v-5
q0 -1 -1.5 -1.5l-1.5 -0.5h-1q-2 0 -3 2.5t-1 3.5v60l-0.5 2.5t-1.5 3.5v2v2q1 0 1.5 3.5t0.5 4.5q-1 1 -1.5 1h-1.5h-1.5t-1.5 -1q-2 -3 -3 -8t-1 -10v-9.5v-7.5v-24.5t5 -24.5q1 -2 3 -5t4.5 -5.5t4 -5.5t1.5 -5v-28l-0.5 -1t-1 -1t-2 -0.5l-1.5 -0.5q-2 0 -3.5 2t-1.5 4
q0 4 1 7.5t1 7.5zM146 221q0 1 -0.5 2t-1.5 2.5t-1.5 2.5t-1.5 1h-23q-1 0 -2 1.5t-1 3t-0.5 3.5l-0.5 2q17 0 33 -2t32 -2l2 0.5t3.5 0.5t2.5 0.5t2 0.5h3h5h3.5t5 -0.5t4.5 -1.5t2 -3q0 -1 -0.5 -2t-1.5 -1q-2 -1 -6 -1h-7t-8 -0.5t-5 -2.5v-6t-0.5 -10.5t-0.5 -10.5v-7
v-3q0 -3 2.5 -4.5t6 -3.5t6 -5.5t2.5 -12.5q0 -5 -1.5 -10t-6.5 -9h-4h-5h-6h-3h-5h-6h-5h-3q-2 0 -6 0.5t-8.5 1.5t-8 3t-3.5 5v20q0 2 2 4t4 3.5t4.5 3t4.5 2.5v6.5t0.5 9.5t0.5 10v7l0.5 1zM165 184h4t4 2q1 8 2 18.5t1 18.5v1q-1 0 -2.5 2t-2.5 3h-6h-7q-1 -1 -3 -1.5
l-2 -0.5v-40q0 -1 1.5 -1.5t3.5 -1t4 -0.5h3zM139 164q0 -6 3.5 -9t8.5 -4t10.5 -1h10.5h12q6 4 6 12q0 3 -1 7t-3 6q-2 0 -6.5 0.5l-9 1l-9 1t-6.5 0.5h-3q-2 0 -4.5 -1.5t-4.5 -3.5t-3 -4.5t-1 -4.5zM123 123q0 1 0.5 2.5l0.5 1.5h3.5h4.5h4h3q15 0 28 -1t28 -1q2 -1 3 -2
t1 -2q0 -2 -0.5 -2.5l-1.5 -1.5h-3.5h-4.5h-5h-3h-4h-5h-5h-2q-1 0 -5.5 0.5t-9.5 1t-9 1.5t-5 1t-3 -0.5t-4.5 0t-4 1t-1.5 1.5zM128 89q0 5 -3 6.5t-7 2.5t-7 3t-3 7q4 0 11 -3t14.5 -7t13 -8t5.5 -7v-7t0.5 -10.5t0.5 -10.5v-7v-5v-6l-1.5 -3t-3.5 -1q-1 0 -2 1t-1 3v38
l-0.5 2t-1 3.5t-1.5 2.5t-2 1h-1q-1 0 -2 -1t-1 -2v-59l-1.5 -1.5l-1.5 -1.5q-1 0 -3 0.5l-2 0.5v53q0 2 -2.5 2h-2.5q-3 0 -5.5 -1.5t-2.5 -5.5v-34q0 -2 -2.5 -2h-2.5v39q0 7 5 10.5t11 1.5q1 1 1.5 2.5t0.5 3.5zM163 43v4.5v4.5l0.5 3.5t0.5 7t0.5 6.5t0.5 4q0 8 0.5 12
t2.5 6.5t5.5 4.5t10.5 5q4 2 9.5 4.5t10.5 2.5q3 0 4.5 -0.5t1.5 -4.5q0 -5 -4 -6t-8.5 -2t-8.5 -3t-4 -7q0 -3 2 -4.5t4 -2.5t4.5 -1.5t4.5 -1.5q3 -2 5 -5.5t3 -6.5v-3v-4.5v-4.5v-3v-4v-4.5v-3.5v-2q0 -3 -0.5 -7t-4.5 -4l-2 0.5t-2 1.5v37q0 2 -2.5 4.5t-4.5 2.5
l-1.5 -0.5l-1.5 -0.5q-1 0 -1.5 -1l-0.5 -1v-41q0 -1 -1.5 -1.5t-2.5 -0.5t-2 0.5t-2 1.5v11q0 9 1 18.5t1 18.5q0 1 -0.5 3t-1 5t-1 5t-1.5 2h-1q-1 -1 -2 -1.5l-1 -0.5q-3 -11 -3.5 -22.5t0.5 -23.5l-5 -5l-2 2v2.5v3.5z" />
</svg>
