<?xml version="1.0" standalone="no"?>
<!DOCTYPE svg PUBLIC "-//W3C//DTD SVG 1.1//EN" "http://www.w3.org/Graphics/SVG/1.1/DTD/svg11.dtd" >
<svg xmlns="http://www.w3.org/2000/svg" xmlns:xlink="http://www.w3.org/1999/xlink" version="1.1" viewBox="-10 0 266 256">
   <path fill="currentColor"
d="M198 246l1.5 0.5l1.5 0.5q1 0 2.5 -1t2.5 -2v-15q0 -11 -0.5 -23.5t-3.5 -24.5v-122q0 -7 -3.5 -9.5t-7.5 -3.5t-7.5 -2t-3.5 -5v-1q0 -1 0.5 -3.5t1.5 -2.5v-2v-1q-1 -1 -2 -3.5t-2 -2.5q-2 -1 -4 1t-1 5q0 15 -1 30.5t-1 31.5q0 7 1 11.5t3.5 7.5t6.5 5.5t10 5.5l1 0.5
l1 0.5q-2 24 0 48t3 48v5v8.5t0.5 8.5t0.5 6zM159 232v4t1 4.5t2 4t4 1.5q1 0 2 -0.5t1 -2.5q0 -5 -1.5 -9.5t-1.5 -9.5v-2v-3q0 -1 0.5 -2.5l0.5 -1.5q2 -6 5.5 -11t7.5 -10t6.5 -11t2.5 -12q0 -7 -2 -16t-4 -16q-3 -2 -4 -4t-2.5 -3.5t-4 -2.5t-6.5 -1q-5 0 -9 2.5t-7 6.5
t-4.5 9t-1.5 11q-1 3 -1.5 8.5t-0.5 10.5t-0.5 8.5t-0.5 4.5l2 9q3 -1 4 -5v-3.5v-4.5v-5.5v-3.5t1 -3.5t3 -2.5h1q2 1 4.5 4t4.5 6t4 5t3 2q3 0 3 -3q0 -5 -3.5 -8t-7.5 -6t-7 -6.5t-3 -8.5q0 -2 0.5 -5t3.5 -3l2 1t4 2.5t3.5 2.5t1.5 2l1.5 1.5l3 3l2.5 2.5l2 2h0.5h0.5v0
q1 0 1.5 -0.5l0.5 -0.5v-1q0 -3 -2.5 -6t-6 -5.5t-6.5 -5t-3 -4.5q0 -6 7 -6q4 0 7 4t5 9.5t3.5 11t1.5 8.5q0 5 -2.5 10.5t-6 11t-7 10.5t-5.5 8q-3 6 -3 12.5v11.5zM123 241q0 2 1 2.5t3 0.5h1.5t1.5 -1q2 -29 2 -57.5v-56.5q2 -7 6 -10t9 -7q5 -5 7 -12t2.5 -14.5t0 -15
t-0.5 -14.5v-4t0.5 -6.5t0.5 -6.5v-4v-1.5t-0.5 -3l-1 -3t-1.5 -2.5l-0.5 -0.5l-0.5 -0.5h-1v0q-1 0 -2 0.5l-1 0.5v20q-5 1 -9 1.5t-6.5 2.5t-4.5 5t-3 9q0 45 -1.5 89t-1.5 89zM72 197v4v8t0.5 12.5t0.5 12.5v9h0.5h1.5q2 0 4 -2.5t2 -4.5v-38q0 -1 0.5 -2l0.5 -1
q5 -7 8.5 -13.5t6.5 -14.5q1 -3 3.5 -5.5l5 -5t4.5 -5t2 -5.5v-63q1 -1 1.5 -3.5t0.5 -3.5q0 -6 -2 -10.5t-4.5 -9t-4.5 -9t-3 -9.5v-3.5v-5.5v-5.5v-3.5q0 -2 -1 -2h-2q-2 0 -2.5 2t-0.5 4.5v5v2.5v9q0 3 1 6.5t3.5 6.5t6.5 5q1 13 1 25v25v5v8.5v8.5v6l-0.5 3t-0.5 4
q-1 1 -1.5 2.5l-1 3t-1.5 2.5l-1 1h-4q0 -12 1 -24t1 -24v-5t-0.5 -6t-0.5 -6v-2v-2v-4t-0.5 -4t-2.5 -3h-1v0l-2 2l-1 1v87q0 1 -0.5 4t-1.5 6t-2.5 5.5t-3.5 2.5h-1q0 -1 -0.5 -4.5t-0.5 -7.5t-0.5 -7.5t-0.5 -4.5v-9v-13v-15v-16v-13v-8v-2t-0.5 -3.5l-1 -3t-1.5 -1.5h-1
l-2 2l-1 1v8q0 10 0.5 19t0.5 19v6t-0.5 11t-1.5 10t-2 4q-4 0 -5 -3l-4 -15v-1.5v-3.5v-5v-4q0 -6 -0.5 -13.5t0 -14.5t1.5 -14t3 -14q2 -5 4 -7.5t4 -3.5l4 -2t3.5 -3t2 -6t0.5 -11q0 -1 0.5 -3.5t0 -5.5t-1.5 -5t-3 -2q-1 0 -2 2.5l-1 2.5v17q-1 5 -4.5 8.5t-7.5 6.5
q-1 1 -1.5 1t-0.5 1q-3 5 -3.5 10.5t-3.5 10.5v14.5t-0.5 12.5l-1 12t-0.5 13t1.5 14.5t4.5 14.5q2 2 5 3t5.5 2t4.5 2.5t2 5.5q0 7 -1.5 14t-1.5 13zM136 83h13q0 4 -0.5 9t-2 9.5t-5 7t-9.5 2.5v-5.5v-4.5v-4.5t0.5 -5t0.5 -4v-1.5zM177 87l1 -2t2 -2h11l1 2t1 5.5t0.5 6
t0.5 3.5v3t-0.5 3.5t-1.5 2.5t-3 1q-4 0 -6.5 -2t-3.5 -6t-1.5 -8t-0.5 -7zM133 72v-2q0 -1 0.5 -2.5t0.5 -4t0.5 -4.5t0.5 -3q1 -3 3.5 -4t5.5 -1l2 0.5l2 0.5q0 1 0.5 3t1 5t0.5 5.5v3.5t-0.5 4t-1.5 3h-13l-0.5 -1t-1.5 -2v-1zM178 61q0 -1 0.5 -3t1 -3.5t1.5 -3t3 -1.5
q5 0 7.5 4.5t2.5 10.5q0 5 -1.5 7.5t-6.5 2.5q-3 0 -4.5 -1t-2.5 -3t-1 -4v-6z" />
</svg>
