<?xml version="1.0" standalone="no"?>
<!DOCTYPE svg PUBLIC "-//W3C//DTD SVG 1.1//EN" "http://www.w3.org/Graphics/SVG/1.1/DTD/svg11.dtd" >
<svg xmlns="http://www.w3.org/2000/svg" xmlns:xlink="http://www.w3.org/1999/xlink" version="1.1" viewBox="-10 0 266 256">
   <path fill="currentColor"
d="M73 244q0 2 1 3.5t3 1.5t4 -1.5t2 -3.5v-47q0 -2 1.5 -3t3.5 -2t3.5 -2.5t1.5 -3.5l5 -23l17 -17q2 -3 2 -6v-6t-0.5 -6.5t1.5 -6.5v-58q-4 -3 -6.5 -5.5t-4 -5t-2.5 -5.5t-1 -8v-21l-1 -1.5t-2 -1.5h-1v0q-1 0 -1.5 0.5t-0.5 1.5v37q0 2 1.5 3l3 2l3 2t1.5 2q3 7 4 14
t1 14v5.5v10.5t-0.5 13t-1.5 13t-3 10t-5 4h-1l-0.5 -0.5l-0.5 -0.5v-75q0 -1 -2.5 -2l-2.5 -1q-1 0 -1.5 1.5l-0.5 1.5v16v4t-0.5 6t-0.5 6v4v3t0.5 5t0.5 5v3v7v6.5t-0.5 10.5l-1 12t-1.5 11.5t-2 9t-3 3.5h-1l-0.5 -1l-0.5 -1q-1 -13 -1.5 -27t-0.5 -28.5v-28v-26.5
q-1 -1 -1.5 -1h-1.5q-2 0 -3.5 2t-1.5 4q0 1 0.5 2t0.5 2.5t0.5 2.5l0.5 1v1v1q0 1 -1 2.5t-1 2.5v16q0 9 1 17.5t1 16.5v1l-0.5 2t-1 3.5l-1 3t-1.5 1.5q-2 0 -3.5 -2.5t-2 -5.5l-1 -6t-0.5 -4v-55q0 -4 3 -9l6 -10t5.5 -11.5t2.5 -15.5v-2v-4v-3v-2q-1 -4 -2.5 -5t-4.5 -1
q-2 0 -3 1t-1 3v2q1 4 2 8.5t1 9.5q0 3 -1.5 6.5t-4 6.5l-5 6t-2.5 6q-4 11 -4.5 23t-0.5 23v14.5t1.5 16.5t5.5 13.5t11 6.5l2 6v69q-1 2 -1.5 3.5t-0.5 3.5zM126 241q0 1 1.5 2t2.5 1l0.5 -0.5l1.5 -1.5l0.5 -1.5l0.5 -1.5v-58q0 -2 2 -2h3q2 0 4 1t2 4v23q0 2 2 4
t4.5 2.5l5 1t3.5 0.5h7t7.5 -1t6 -3t3.5 -6q0 -6 1 -14t0 -15l0.5 -1t1.5 -1t2 1l2.5 2.5l2.5 2.5l1 1v61q0 2 1 2h2q7 0 7 -8q0 -9 -1.5 -18t-1.5 -18v-5v-10v-10v-5v-4.5t-0.5 -7.5t-1 -7.5t-0.5 -4.5q0 -3 -0.5 -6.5l-0.5 -3.5l-1.5 -1t-2.5 -2t-2.5 -1.5t-2.5 -0.5
t-4 -0.5t-6 -0.5t-6 -0.5t-4 -0.5l-3 -3q-1 0 -1 -1v-3v-6.5t0.5 -7l1 -7t2.5 -4.5q1 -1 3.5 -1.5t5.5 -1.5t5.5 -2t2.5 -3t-1 -2.5t-3 -0.5q-4 0 -7 1.5t-6 1.5q-4 0 -4 -3t2.5 -5t4.5 -2h3q1 1 2.5 1t4 1t4.5 1.5t3 0.5q2 1 3.5 4.5t2 8t0.5 8.5v6v3.5t0.5 5t0.5 5t1 2.5
q0 2 1 2h3q3 0 4 -0.5t1 -3.5q0 -10 -2 -21.5t-5 -21.5q-1 -4 -6 -6t-10 -2.5t-9 -1t-4 -2.5t5 -3t10.5 -3.5t10.5 -6t5 -9.5q0 -7 -2 -10.5t-9 -5.5h-6.5t-9.5 -0.5t-9.5 -0.5h-6.5q-7 -1 -9.5 -3.5t-3.5 -6t-1.5 -6t-5.5 -2.5q-3 0 -3 1v3q0 11 5.5 15.5t14 6t17.5 1
t15 0.5q5 4 5 9q0 3 -2.5 4.5t-6.5 2.5t-7.5 1.5t-5.5 1.5q-1 1 -3 3.5t-4.5 5l-4.5 4.5t-3 2q-7 0 -10.5 -2t-5 -5.5t-2 -7l-1 -7t-1.5 -5.5t-3 -2q-1 0 -2 0.5l-3 1.5v4q0 3 0.5 5t1 4.5t1.5 5t2 6.5t4 5.5t7 2.5t8 1.5t5 0.5q1 1 1.5 2t1 2.5t0.5 2.5v1v1v1q0 1 -0.5 3
l-0.5 2l-25 11l-1 1.5t-2 1.5v0.5v0.5q0 2 1.5 3t3.5 1h1q5 -3 10 -7t10 -6q2 1 2.5 3.5t1 5.5t0.5 5.5v3.5t-0.5 4t-0.5 4q-2 4 -6.5 5t-8.5 1.5t-8 1.5t-7 5q0 8 -0.5 17l-1 18t-1.5 18t-1 18v5q0 5 0.5 9.5t0.5 8.5v6zM150 201v-1l1.5 -2.5l1.5 -2.5h22l0.5 1.5t0.5 2.5
v1q0 2 -1.5 3.5t-4 2.5t-5.5 1h-4t-3 -0.5t-3.5 -1t-3 -1.5t-1.5 -3zM149 173q0 -3 1.5 -5.5t3.5 -4.5t5 -3t5 -1t4.5 1t5 3t4.5 4t2 4l-0.5 1l-0.5 1l-1 2t-2 3q-1 3 -1 5t-1 3.5t-3 2t-5 0.5h-9.5t-5 -1.5t-2 -5t-0.5 -9.5zM135 168v-4v-3q0 -4 0.5 -8.5t2.5 -7.5t5.5 -5
t8.5 -2q3 0 4.5 2.5t1.5 5.5q0 1 -2.5 5.5t-6 8.5t-6.5 7.5t-5 3.5q-1 0 -2 -1t-1 -2zM165 143q0 -2 1.5 -3t3 -1.5t3.5 -0.5h3q6 0 9 1t4.5 3t2 5.5t0.5 8.5v9q-1 0 -1.5 0.5l-0.5 0.5v0q-2 0 -6.5 -2.5t-8 -6.5t-7 -7.5t-3.5 -6.5z" />
</svg>
