<?xml version="1.0" standalone="no"?>
<!DOCTYPE svg PUBLIC "-//W3C//DTD SVG 1.1//EN" "http://www.w3.org/Graphics/SVG/1.1/DTD/svg11.dtd" >
<svg xmlns="http://www.w3.org/2000/svg" xmlns:xlink="http://www.w3.org/1999/xlink" version="1.1" viewBox="-10 0 266 256">
   <path fill="currentColor"
d="M112 203q5 3 9.5 11t10 16t11 14.5t12.5 6.5h2.5h3.5q1 -1 1 -2v-3q0 -3 -4.5 -6.5t-10 -7.5t-10 -8.5t-4.5 -10.5v-1q2 -4 6 -6t8.5 -3l9 -2t8.5 -3t6.5 -6t2.5 -10q0 -7 -2.5 -10.5t-5.5 -6t-7 -3.5t-7.5 -2.5t-5.5 -4t-2 -6.5t4.5 -4.5t10 -2t10.5 -4.5t5 -11
q0 -7 -5 -10.5t-11.5 -5t-13.5 -1.5t-11 1l-3 -3v-13l37 -3q3 -1 4 -2.5t1 -3.5q0 -4 -4 -4q-1 0 -1 0.5v0.5q-1 0 -2 0.5t-2.5 1t-3.5 0.5h-2l-2.5 0.5t-5 0.5t-5.5 0.5t-4 0.5h-2h-2q-3 0 -4.5 -0.5t-1.5 -3.5v-4t1 -3q2 0 5 -0.5t6.5 -1l7 -1t4.5 -0.5q3 -1 5.5 -1.5
t2.5 -4.5v-1l-1.5 -0.5l-1.5 -0.5h-1h-1q-5 1 -10.5 2t-10.5 1q-3 0 -4.5 -3t-1.5 -5v-2t1 -1l31 -3q1 0 1.5 -1.5t0.5 -2.5t-1.5 -2t-2.5 -1q-5 0 -10.5 1t-10.5 1q-4 0 -5 -0.5t-1 -4.5q0 -3 1 -4t4 -1h2q0 1 3 1t6.5 0.5t7 0.5h4.5h3.5h4.5t4 0.5t3 2.5q6 14 8 29t1 30
l8 116v18q0 1 2 3.5t3 2.5h0.5h0.5l3 -3l2 -2l-1 -24v-4q0 -4 -0.5 -11.5t-1.5 -16.5t-1.5 -19.5t-1.5 -19.5t-1.5 -16.5t-0.5 -10.5q0 -5 -0.5 -11.5t-1 -14.5t-1 -16.5t-1.5 -16t-3 -13t-4 -8.5q-3 -2 -7.5 -2.5t-10.5 -0.5h-12.5h-11.5t-8.5 -0.5t-3.5 -3.5t1 -5t1 -4v-4
t-2 -4h-4h-2q-1 0 -2.5 0.5t-1.5 1.5v18q0 1 -4.5 1h-10.5t-13.5 0.5t-14.5 2t-12 4t-6 6.5l1 1.5l1 1.5v1v1l-0.5 1t-0.5 2t-0.5 2l-0.5 1v2.5t-0.5 3.5t-0.5 3.5v1.5q0 3 -0.5 12t-1 19.5t-1 20.5t-0.5 15v14q-2 20 -3.5 40.5t-1.5 41.5v7q0 1 2 2t3 1q2 0 3.5 -1t2.5 -2
v-23t0.5 -22t1 -22.5t0.5 -22.5q0 -1 0.5 -3l0.5 -2q2 -18 2.5 -36t2.5 -36q1 -7 2.5 -14t5.5 -13q9 -3 19.5 -4t19.5 -1q6 0 6 7q0 4 -2.5 5.5t-6.5 2t-9 0.5q-4 0 -8 0.5t-6.5 1.5t-2.5 4q0 1 0.5 1.5t1.5 0.5h1h3q6 0 12 -2t12 -2q3 0 3.5 2.5t0.5 4.5q0 3 -4 5.5
t-9.5 3.5t-11 1.5t-7.5 0.5q-1 1 -1.5 2l-0.5 1v1v1l0.5 0.5l1.5 1.5v0h1q1 -1 5 -1.5t8 -1.5t8 -1.5t5 -0.5h2q3 0 3 2v4t-0.5 4.5t-3.5 3.5l-32 3q-1 0 -1.5 2t-0.5 3v2q9 0 18.5 -1.5t18.5 -1.5q0 7 -1.5 10t-4 4t-6 1t-7.5 0.5t-8.5 2.5t-8.5 7l-0.5 2.5l-0.5 2.5
q0 1 0.5 3.5t1 5.5t1.5 5t3 2h17q0 6 -2 9.5t-5.5 5.5l-7 4t-7 4.5t-5.5 6.5t-2 10q0 7 3 11t8 6t11 2t12 -1zM106 176q0 5 0.5 9t0.5 8v3t-3 1t-8 -2t-6 -5q-1 0 -1 -2.5v-3.5q0 -7 2 -10t5 -4t6.5 -1.5t6.5 -2.5t4 -6.5t1 -13.5q3 -2 7 -2h7h8q3 1 3.5 4t0 6.5t0 6.5
t3.5 4t7 2t7.5 2.5t5.5 4t2 7.5q0 4 -2 7t-5 4.5t-7 2.5t-7 1q0 -4 1 -8t1 -8q0 -2 -0.5 -4.5t-3.5 -2.5h-1l-0.5 0.5l-0.5 0.5l-5 26q-1 1 -3 2.5t-4 2.5q-3 -3 -5 -6t-3.5 -6t-2.5 -6.5t-2 -7.5l-0.5 -1.5l-0.5 -1.5h-8zM92 132q0 -8 7 -8t8.5 4.5t1.5 10.5h-4.5
t-5.5 -0.5t-5 -2t-2 -4.5zM113 123q0 -3 4 -3.5t5 -0.5q8 0 12 4.5t4 12.5q0 2 -3 2h-4q-6 0 -12 -4t-6 -11zM141 123q0 -3 2.5 -3.5t5.5 -0.5h4t5.5 1t4.5 2.5t2 3.5q0 5 -3.5 8t-8.5 3h-2.5t-3.5 -1q-2 -2 -4 -5.5t-2 -7.5z" />
</svg>
