<?xml version="1.0" standalone="no"?>
<!DOCTYPE svg PUBLIC "-//W3C//DTD SVG 1.1//EN" "http://www.w3.org/Graphics/SVG/1.1/DTD/svg11.dtd" >
<svg xmlns="http://www.w3.org/2000/svg" xmlns:xlink="http://www.w3.org/1999/xlink" version="1.1" viewBox="-10 0 266 256">
   <path fill="currentColor"
d="M70 249q0 1 1.5 1h2.5h2.5t1.5 -1v-3v-3v-4v-2q0 -10 -1 -20t-1 -20q0 -6 3.5 -11l7 -10t6 -10.5t0.5 -12.5q5 -4 7 -7t3.5 -5.5t2.5 -5.5t3 -7q1 -2 3 -2t4 -2l1.5 -1t3 -2.5t3 -2.5l1.5 -1q0 -1 1 -1h1q3 0 3 4v30l-2 1q-1 0 -3 0.5t-4 0.5t-4 0.5t-3 0.5h-2.5t-3 1
l-3 2t-1.5 2q10 0 12.5 4t2.5 12q0 18 -2.5 35t-2.5 34q2 0 4 -0.5t4 -1.5q0 -1 0.5 -3t0.5 -3.5v-3.5v-3q1 -2 1.5 -9.5t1 -16.5t0.5 -17t1 -12q0 -3 -0.5 -6t0.5 -5t2.5 -3.5t5.5 -1.5q3 0 4.5 1t2 3t0.5 4.5v4.5l4 34t1 34q1 2 4 2h3q0 -18 -2 -35t-2 -34v-5t1 -6
q0 -1 1 -2l2.5 -2.5l2.5 -2.5l1 -1q0 -2 -1.5 -3t-3.5 -1q-3 0 -4.5 1t-4.5 1q-4 0 -5.5 -3t-2 -6.5t-0.5 -7v-5.5q0 -4 1 -7t5 -3q2 0 3.5 1t2.5 2.5t2.5 2.5t2.5 1q2 0 3 -1t1 -2q0 -4 -3 -6t-6.5 -4.5t-6.5 -6t-3 -10.5v-7q2 -2 5 -3.5t4 -4.5q3 -4 4.5 -9t2 -10.5
t0 -10.5t-0.5 -10v-7q0 -1 -1 -1.5t-3 -0.5q-3 0 -3.5 2.5t-1 6t-0.5 6.5t-3 3l-22 3q-1 0 -1.5 1t-0.5 2q0 2 1 2.5t3 0.5q5 0 10 -1.5t11 -1.5q0 8 -0.5 13.5t-2.5 8.5t-7 5t-14 2h-3.5h-3.5q0 -10 -3.5 -19.5t-9.5 -17.5q0 -1 0.5 -5t0.5 -8t-0.5 -8t-0.5 -5
q0 -3 -0.5 -5.5t-4.5 -2.5q-2 0 -3 2.5t-1.5 6t0 7t0.5 5.5v9t1.5 9t3.5 7l4 6t3.5 6t1.5 8v47q0 1 -1 4t-2 5.5t-2.5 4.5t-3.5 2h-1q0 -1 -1 -2q0 -1 -0.5 -2.5t-0.5 -3.5v-4v-2q0 -3 -0.5 -10.5t-0.5 -15.5q0 -9 0.5 -16t0.5 -10q-1 -1 -2 -3t-3 -2v0v0l-1 0.5t-1 1.5
t-0.5 4t-0.5 6.5t-0.5 6.5t-0.5 5l0.5 2t0.5 4.5t0.5 4.5t0.5 3v3v8v8v7v5v8v7.5v4.5q0 4 -1.5 7.5t-4.5 5.5q-2 -1 -3 -3.5t-1 -4.5q0 -3 0.5 -5.5t0.5 -3.5t-0.5 -3t-1 -5t-0.5 -5v-3v-64q0 -1 -0.5 -2.5t-0.5 -2.5l-1.5 -1.5l-0.5 -0.5q-1 0 -2.5 0.5t-2.5 1.5l-1.5 10.5
t-0.5 8.5v5q0 1 0.5 6.5t1 11.5t0.5 11v7v1.5t-0.5 3.5l-1 4t-1.5 3h-1q-3 0 -4.5 -5.5t-2.5 -12.5t-1.5 -13t-0.5 -7v-3q1 -1 1 -5t0.5 -8.5t0.5 -8.5v-6q1 -5 3.5 -8t5 -6.5t5 -6.5t4.5 -7v-4.5t0.5 -7.5t0.5 -7v-5v-1q0 -2 -1.5 -3.5t-3.5 -1.5t-4 2t-2 5t1 6.5t1 6.5
q0 6 -3 10.5l-6 9t-5.5 9.5t-3.5 11v2v6v6v5v5v6v5v3t0.5 4t1 7.5t1 8.5t1.5 6q0 3 1 5.5t2.5 4.5t4 2.5t5.5 0.5q3 4 4 9t0.5 10.5t-0.5 11v10.5q0 1 0.5 6.5t1 12t1 12t0.5 6.5v18zM161 220q4 5 9.5 8t11.5 5.5t12.5 3.5t11.5 1q2 0 4 -1.5t2 -3.5q0 -1 -0.5 -3t-2.5 -2
l-22 -3q-1 0 -1.5 -1.5l-0.5 -1.5v-1v-2v-3.5t0.5 -5.5t1 -5.5t0.5 -3.5q1 -1 4.5 -2.5t6.5 -2.5t6 -3t3 -4l2 -46q0 -1 -1 -1.5t-2.5 -1t-2.5 -0.5h-2v4v6v6v4q-1 4 -1 9t-0.5 9t-3 7.5t-7.5 3.5h-1t-1 -2v-52q0 -3 2 -4t5 -2t5.5 -2t4.5 -3q3 -5 4 -10.5t1 -12.5v-3.5
v-2.5l-4 -4q-2 2 -3 4.5t-1.5 6t-0.5 6.5q0 4 -0.5 7t-2.5 4.5t-6 1.5q-2 0 -3 -2.5t-1.5 -6.5t-0.5 -8.5v-6.5q0 -6 3.5 -8.5t8 -5t8 -5.5t3.5 -9q0 -7 -3 -13t-8 -10h-2.5h-3.5h-3h-2q-5 0 -10 0.5t-8.5 3t-5.5 6t-2 9.5q0 5 1.5 8.5t4 6.5t5.5 5.5t7 5.5q0 7 0.5 11.5
t0.5 10.5v3v2.5t-1 3t-3 1.5q-1 0 -2.5 -2t-3 -4.5t-2 -5l-0.5 -2.5q0 -1 -0.5 -2.5t-0.5 -4t-0.5 -4t-0.5 -2.5h-1h-1l-1 1.5t-2 1.5v3v3q0 10 3 15t6.5 7.5t6.5 4.5t3 6q0 19 -0.5 38.5t-2.5 39.5q-1 1 -2 3t-3 2t-3 -1.5t-1 -3.5v-49q0 -1 -1 -3.5t-3 -3.5q-2 2 -3 5.5
t-1 5.5v6t0.5 9t0.5 9v5v20zM109 114l2 -24h17l0.5 1.5t1 4t1 4.5t0.5 4v1v0q0 1 -1 2l-2 2q-1 0 -3 1.5l-4 3l-4 3t-3 1.5h-1q-1 0 -2.5 -2zM169 69q-1 -4 0 -7t3.5 -5.5t5.5 -3.5t7 -1q6 0 10 4t4 11q0 6 -4 10.5t-10 4.5q-5 0 -10 -4t-6 -9z" />
</svg>
