<?xml version="1.0" standalone="no"?>
<!DOCTYPE svg PUBLIC "-//W3C//DTD SVG 1.1//EN" "http://www.w3.org/Graphics/SVG/1.1/DTD/svg11.dtd" >
<svg xmlns="http://www.w3.org/2000/svg" xmlns:xlink="http://www.w3.org/1999/xlink" version="1.1" viewBox="-10 0 266 256">
   <path fill="currentColor"
d="M135 169q0 12 4.5 19.5t13.5 15.5l0.5 0.5l0.5 0.5q4 7 7 14t7.5 12.5t10.5 10.5t15 7q1 1 4 1.5t4 0.5q3 0 4 -2t1 -4v-3q-1 0 -3 -1t-4 -1.5t-3.5 -1.5t-2.5 -1q-2 -1 -5 -2t-6.5 -2.5t-5.5 -3t-2 -3.5t1 -5.5t2.5 -7t3.5 -6.5t4 -3q3 -2 7.5 -3t8.5 -3.5t6.5 -5.5
t2.5 -8v-32l-13 -12v-12q0 -1 -1 -1.5l-1 -0.5h-1q-4 0 -5 2.5t-1 5.5q0 4 1.5 6.5t3.5 5l4 5t4 5.5q0 1 0.5 1.5t1.5 0.5v9q0 3 -0.5 7.5t-1.5 8.5t-3 7t-6 3h-3t-1 -2v-29q0 -2 -1.5 -4.5t-3.5 -2.5q-5 0 -5 4q0 5 1 9t1 9q0 2 -0.5 7.5t-2 12t-4 11.5t-5.5 5t-4.5 -3
t-2 -7t-0.5 -7.5v-5.5q0 -7 1 -14t1 -14q0 -2 -0.5 -4.5t-2.5 -2.5q-3 0 -4 1.5t-1 3.5v4v3t-0.5 4.5t-0.5 7t-0.5 7t-0.5 4.5t-1 1h-2q-4 0 -5.5 -2.5t-2 -6.5t-0.5 -8v-5v-4.5v-5.5q2 -4 4.5 -7l5 -6t4.5 -6t2 -7v-3v-2q-1 -2 -1.5 -2h-1.5q-3 0 -4 2t-1.5 4.5t-1 5.5
t-1.5 5l-2.5 2.5t-3.5 3t-3.5 3t-1.5 3.5q-2 4 -2 7v7zM48 235v2t1 2h18h17l40 -2l1.5 -1t1.5 -2t-0.5 -2.5t-2 -2l-3 -1t-2.5 -0.5h-3.5h-4.5h-5.5h-3.5q-2 -1 -2 -2v-2q0 -6 2 -9.5t5 -7t6.5 -6.5t5.5 -7q3 -3 4 -7.5t1 -9v-9.5v-9v-8.5t-2 -9.5q-1 -2 -2.5 -4.5t-3.5 -5
t-3.5 -5t-1.5 -5.5t3 -4t6 -2.5t6 -4t3 -8.5q0 -4 -2 -7t-5 -4.5t-6.5 -2.5t-7.5 -2v-2.5v-3.5v-5.5t4 -3.5q2 0 5 1t5 2t4.5 2t4.5 1h1l1.5 -0.5l1.5 -0.5q-1 -5 -7 -8.5t-12.5 -6t-11.5 -4t-5 -3.5v-10q0 -1 1 -2t2 -1v0q3 0 6.5 1t6.5 2l6 2t6 1t5 -1t2 -4
q0 -1 -0.5 -1.5l-1.5 -1.5q-3 -2 -7.5 -3.5t-9 -2.5t-9 -1.5t-7.5 -1.5l-0.5 -1t-0.5 -2q0 -2 1 -4.5t1 -5.5t-1.5 -4t-4.5 -1t-4 2t-1 4v13q-3 2 -7.5 3.5t-9 2.5t-9 2.5l-7.5 2.5q-2 1 -3 2t-1 2q0 3 1.5 3.5t3.5 0.5q4 0 8 -1.5t7.5 -3t7 -2.5t7.5 -1q1 0 2 1t1.5 3
t0.5 4v2q0 4 -5.5 7t-13 5.5t-15.5 6t-12 8.5q0 2 2 2.5t4 0.5q3 0 6 -1.5t6 -3.5t6 -3.5t7 -1.5v2.5v3.5v4v3q0 3 -3.5 3.5t-7 1.5t-6.5 3.5t-3 8.5q0 9 3 12.5t12 3.5v5q0 1 -2.5 3.5l-5 5t-4.5 5t-3 3.5q-3 2 -4 6t-1.5 8.5t0 9t0.5 7.5v6q0 4 0.5 7t1.5 6.5t3 5.5
q2 3 5 6t5 5.5t3 5.5t1 8v2q0 2 -0.5 3t-1.5 2t-3 1h-13l-2 2t-2 3v1zM59 163v-10q0 -6 3 -10q0 -1 1.5 -2t2.5 -2l2.5 -2.5l1.5 -1.5q1 -1 2.5 -3.5t3.5 -5t4 -4.5t4 -2q1 0 2 0.5t2 0.5l2 -0.5l2 -0.5h3q3 0 6.5 3.5t6.5 8.5t5 10.5t3 7.5v13q0 8 -1 13.5t-3 10.5t-5.5 10
t-7.5 11q-2 3 -3 6.5t-2.5 7.5t-3 6.5t-3.5 2.5q-6 0 -7.5 -2t-2 -5t0 -7t-1.5 -7q0 -1 -0.5 -2.5t-1.5 -3t-1.5 -2.5t-1.5 -1q-4 -7 -6.5 -10.5t-4 -6.5t-1.5 -8v-13zM73 165v7.5t0.5 7t2 6.5t4.5 5q1 0 4 0.5t4 0.5h4t7 -1t4 -2v-22l3 -3t2 -3v-1v-1q-1 -1 -4 -1h-5.5
t-4.5 -0.5t-2 -3.5q0 -2 1 -3.5t3 -2l4 -1t3 -0.5l0.5 -0.5l0.5 -0.5q0 -2 -0.5 -2.5t-1.5 -0.5q-7 -4 -8.5 -6.5t-1.5 -4v-3.5t-4 -4q-1 2 -1.5 4t-0.5 4t-1 4l-2 4q-2 0 -5.5 0.5t-4.5 1.5l-0.5 0.5t-1.5 0.5q1 2 3 3t3.5 1.5t3.5 0.5h3v3v4t-3 3h-14l-0.5 0.5l-1.5 1.5v1
q0 2 1 2h2.5h2.5q2 0 2 1zM84 184q0 -2 1.5 -3t3.5 -1h3.5h3.5q0 3 -2.5 5t-5.5 2q-2 0 -3 -0.5t-1 -2.5zM80 172v-2q0 -1 0.5 -3.5l0.5 -2.5h17v2t-0.5 3.5t-1.5 3.5t-2 2h-13q-1 0 -1 -2v-1zM170 130v3v2l5 5q2 -2 3 -5.5t1.5 -7t1 -6t2.5 -3.5q4 0 9 -0.5t9.5 -2
t7.5 -4.5t3 -8t-4 -7t-8.5 -3t-8 -2t-3.5 -4t3 -3t6.5 -1t6.5 -5t3 -14h-5q-2 5 -5.5 8t-8 4t-9.5 1.5t-10 1.5q-1 0 -4.5 0.5l-7 1l-7 1t-4.5 0.5t-3 1t-2 3v0l1.5 1.5l0.5 0.5h16q1 0 1.5 2t0.5 3q0 3 -4 5.5t-8.5 5.5t-8.5 5.5t-4 4.5t1.5 2.5t2.5 0.5q2 0 5.5 -1.5t7 -4
t6.5 -5t5 -5.5q1 -1 2 -4t2 -5.5t3 -4.5t5 -2q2 0 3 1t1.5 2.5t1 3.5t1.5 3q1 2 4 3t6 1.5t5.5 2t2.5 3.5t-0.5 3t-3.5 1q-1 0 -4 1t-6 1.5t-6.5 1.5t-4.5 1q-4 3 -5 7t-1 9zM83 104v-3v-3t0.5 -3t2.5 -1h13q2 0 2.5 2t0.5 3q0 5 -0.5 8t-2 4.5t-4.5 2t-8 0.5q-2 0 -3 -1.5
t-1 -3v-3.5v-2zM63 105q0 -4 2.5 -6t5.5 -2q4 0 4.5 1t0.5 4t-0.5 6t-3.5 3q-4 0 -6.5 -1.5t-2.5 -4.5zM108 97h2.5h1.5h4t3 1q0 1 0.5 2.5l0.5 1.5q0 5 -3.5 6.5t-8.5 1.5v-13zM84 86v-17q0 -1 1.5 -1.5l3 -1l3 -1t2.5 -0.5q6 0 7 3t1 8v2q0 1 -0.5 3t-1 3.5t-1.5 1.5h-15z
M145 65q0 2 1.5 2.5t3.5 0.5h1.5h1.5q2 0 7.5 -1t12 -2.5t12 -2.5t8.5 -1q1 -1 4.5 -2t4.5 -2l1 -0.5l1 -0.5v-11l-4 -1q-3 4 -8 6.5t-11 4t-12.5 2.5t-12 2t-8.5 2.5t-3 3.5zM141 45q0 2 2 3.5t4 1.5h1q3 -1 11.5 -2.5l17 -3t15.5 -4t8 -4.5q1 -1 1.5 -2.5t0.5 -2.5v-3
v-5.5v-4.5v-4q-3 0 -5 1t-2.5 3t-1 4.5t-0.5 6.5q-1 2 -5 4t-10 3t-12.5 2t-12 2t-9 2t-3.5 3z" />
</svg>
