<?xml version="1.0" standalone="no"?>
<!DOCTYPE svg PUBLIC "-//W3C//DTD SVG 1.1//EN" "http://www.w3.org/Graphics/SVG/1.1/DTD/svg11.dtd" >
<svg xmlns="http://www.w3.org/2000/svg" xmlns:xlink="http://www.w3.org/1999/xlink" version="1.1" viewBox="-10 0 266 256">
   <path fill="currentColor"
d="M124 153q2 0 4.5 5.5t5 12.5t4.5 13.5t3 7.5l1 1l2 2t1.5 2t1.5 1q2 3 5 8t7 10.5t8.5 12t8.5 11t8 8t8 3.5q2 0 4 -1t2 -4q0 -1 -0.5 -2.5t-1.5 -1.5l-27 -28q-1 -2 -1.5 -3.5t-1.5 -2.5t-2.5 -2t-3.5 -3q-3 -4 -7.5 -11.5t-8.5 -15.5t-7.5 -16t-3.5 -12t4.5 -6t9.5 -4
t9.5 -4.5t4.5 -5.5t-1.5 -3.5t-3.5 -0.5h-3l-18 9h-2h-2.5t-1.5 -1q-2 -7 -3.5 -13.5t-1.5 -13.5v-2.5t2 -2.5q8 0 15 -1t14.5 -2l15 -2t15.5 -1q1 0 1.5 -1.5t0.5 -2.5t-0.5 -2t-1.5 -1h-8q-11 0 -21.5 1.5t-21.5 1.5h-2h-4q-1 0 -2.5 -0.5t-2.5 -0.5t-2 -2t-1 -4v-4v-4
v-2.5v-2.5q4 -2 7.5 -2.5t7.5 -0.5q16 -1 23 -10.5t7 -25.5q0 -2 -1 -4t-3 -2q-1 0 -3.5 0.5t-2.5 2.5v7.5t-1 9.5t-3.5 8t-7.5 3h-20q-1 0 -1 -2v-3q0 -8 1.5 -15.5t1.5 -15.5q0 -2 -1 -4.5t-4 -2.5q-1 0 -2.5 1t-2.5 3t-1.5 3.5t-0.5 2.5v66l-2 4h-4t-10 0.5t-12.5 0.5
h-10.5h-8t-5 1t-3 3t-1 7q12 0 24 -2.5t24 -2.5h3.5h2.5q2 1 3.5 6t2.5 11.5t1.5 13t0.5 8.5q0 3 -2 5.5t-5 4.5t-6 3.5t-5 3.5q-4 4 -7.5 8.5t-6.5 10t-5.5 10.5t-4.5 10l-0.5 1t-1 3t-1.5 3l-2 2l-12 33v2q0 3 1 3.5t4 0.5q4 0 6.5 -4.5t4.5 -10.5t3 -11.5t2 -8.5
q1 -2 4 -7.5t6 -11.5t7 -12.5t8.5 -12t8.5 -8.5t8 -3z" />
</svg>
