<?xml version="1.0" standalone="no"?>
<!DOCTYPE svg PUBLIC "-//W3C//DTD SVG 1.1//EN" "http://www.w3.org/Graphics/SVG/1.1/DTD/svg11.dtd" >
<svg xmlns="http://www.w3.org/2000/svg" xmlns:xlink="http://www.w3.org/1999/xlink" version="1.1" viewBox="-10 0 266 256">
   <path fill="currentColor"
d="M99 195q0 2 0.5 6.5t1.5 11l2 13t2.5 12.5t3.5 9.5t4 3.5h1q1 -1 3.5 -2l2.5 -1q1 -1 1 -3v-3q0 -6 -2 -11.5l-4 -11t-3.5 -11.5t-1.5 -13q0 -9 2.5 -15t5.5 -11.5t5 -10.5t2 -12q0 -4 -3 -7t-7.5 -6t-9.5 -5t-8 -4q-5 -3 -8.5 -7.5t-6.5 -9t-4.5 -7.5t-3.5 -4h-1v0
q-3 0 -4.5 2t-1.5 4q0 7 2.5 11t5.5 7l5 5t2 6v0.5v0.5q-3 8 -6 15l-6 14l-6 14t-5 15q0 1 -0.5 4t-1.5 4q0 4 -2.5 9t-2.5 8q0 4 1 7.5t5 3.5q5 0 8 -3q0 -1 0.5 -3.5l1 -5l1 -5t0.5 -3.5v-2.5t0.5 -5t1 -4.5t0.5 -3q1 -6 3.5 -13l5 -14t6 -14l6.5 -13h2.5h2.5q2 0 5 1
t5.5 2.5t4.5 3.5t2 5v1v0q-3 5 -5.5 10t-4.5 11t-3.5 12t-1.5 12zM143 165v4v4t0.5 3.5l0.5 1.5q0 4 2 10.5t5.5 14t8 16t9 15t8.5 11t7 4.5t6.5 -1.5t3.5 -4.5v-2q-10 -9 -17 -17.5t-12 -18t-7.5 -20t-2.5 -23.5v-4t0.5 -6t2 -5.5t4.5 -2.5h3t4 2l2.5 2.5t5 4.5l5 4t3.5 3
q2 2 5 3.5t5 1.5q4 0 6.5 -2.5t2.5 -5.5t-5.5 -6t-12.5 -6t-12.5 -7.5t-5.5 -10.5q0 -1 0.5 -2l0.5 -1q1 -1 5 -3t7.5 -4.5t6 -5.5t2.5 -6q0 -2 -2 -4.5t-5 -2.5t-4.5 2t-3.5 5t-4.5 5t-5.5 2t-5.5 -3t-4 -7.5t-2.5 -8.5t-1 -6q0 -3 3 -4.5t8 -2t11 -0.5t11 -0.5t9.5 -2
t5.5 -4.5l-3 -3l-2 -0.5t-4 -0.5q-9 0 -18 1.5t-18 1.5h-4t-4 -1q-2 0 -2 -1v-3q0 -6 3 -9t7.5 -5t10 -3.5t9.5 -4.5q3 -1 4.5 -4.5t3 -7.5t2.5 -8t2 -6q-2 -4 -4 -5t-5 -1q-2 0 -3 2t-2 5t-1.5 7t-3 7.5t-6.5 6.5t-11 4l-3 -1t-3 -2v-25q0 -3 -2 -4t-5 -1q-2 0 -3.5 2
t-2 4.5t-0.5 5v3.5q0 10 2 19t2 18q0 1 -0.5 4.5t-0.5 4.5q0 2 -1.5 2h-2.5h-8.5t-12.5 0.5t-14.5 1t-14.5 0.5t-12.5 0.5t-7.5 0.5l-2.5 2.5t-1.5 3.5q0 3 3 4t6 1q9 0 17 -1t16.5 -2l17 -2t16.5 -1q4 0 6 1.5t2.5 3.5t1 5t1.5 6q2 8 6 15t4 15q0 4 -1.5 6.5t-3.5 5
t-3.5 5.5t-1.5 6q0 1 -0.5 3t-0.5 4v4v2z" />
</svg>
