<?xml version="1.0" standalone="no"?>
<!DOCTYPE svg PUBLIC "-//W3C//DTD SVG 1.1//EN" "http://www.w3.org/Graphics/SVG/1.1/DTD/svg11.dtd" >
<svg xmlns="http://www.w3.org/2000/svg" xmlns:xlink="http://www.w3.org/1999/xlink" version="1.1" viewBox="-10 0 266 256">
   <path fill="currentColor"
d="M107 145q0 23 -0.5 46t-2.5 45q0 1 -0.5 2.5t-0.5 3.5v3.5v2.5q6 0 8 -2t2.5 -6t0 -9t-0.5 -9q0 -2 0.5 -7.5t0.5 -12v-12v-6.5q1 -3 1 -10v-15v-16q0 -7 -1 -10q1 0 1.5 -0.5l0.5 -0.5l2 -2t2 -1h24q2 0 3 -1t1 -3t-1.5 -2.5t-3.5 -0.5q-6 0 -11.5 1t-11.5 1
q-3 0 -4.5 -2t-1.5 -4q0 -5 1 -10.5t6 -8.5h3t4.5 -0.5t5 -0.5h3.5q2 -1 2.5 -1.5t0.5 -1.5t-0.5 -3t-1.5 -2h-20q-2 0 -2.5 -2t-0.5 -4.5t-1 -5t-4 -2.5q-2 0 -3.5 1.5t-1.5 4.5v38l-3 4h-4t-6 0.5t-6 0.5t-4 1q-3 0 -5.5 0.5t-2.5 4.5q0 3 2 3h4q5 0 9.5 -1t9.5 -1h3h3
q1 4 1.5 6.5t0.5 6.5zM155 167v9q0 4 0.5 8t0.5 8t1 10q0 3 1 10.5t3 15t4 13t4 5.5q5 0 6 -2t1 -6v-3v-2l-1 -1.5t-1.5 -3.5t-1.5 -3t-1 -2l-0.5 -2t-0.5 -4.5t-0.5 -4t-0.5 -2.5q-1 -5 -2 -9.5t-2 -8.5t-1.5 -8.5t-0.5 -10.5v-16q0 -6 3 -6q4 0 6.5 3.5t4.5 8t5 8t7 3.5h5
t2 -3q0 -5 -4 -9.5t-8.5 -9l-8.5 -8.5t-4 -7q0 -5 2.5 -10.5t5.5 -10.5t5.5 -8.5t2.5 -4.5q0 -2 -2 -3.5t-4 -1.5q-3 0 -4.5 1.5t-3.5 4t-3.5 5t-3.5 3.5l-1 -1q-1 -1 -1.5 -3t-1.5 -5t-2 -6.5t-2 -5.5q-1 -5 -1 -9v-8v-6l5 -1h33q1 0 2.5 -1.5t1.5 -3.5t-0.5 -3.5
t-2.5 -1.5h-41l-0.5 -1t-0.5 -2v-2v-1q0 -6 3 -12q5 0 10.5 -1t10 -3t7 -6t2.5 -11q0 -4 -2.5 -6t-6.5 -2t-5 3t-1.5 6.5t-2 6.5t-6.5 3q-4 0 -5 -3t-1 -7t-1 -7t-5 -3q-1 0 -2.5 0.5t-2.5 3.5v7v10v10.5v6.5v2.5t-0.5 3t-0.5 2.5t-1 2l-0.5 0.5l-0.5 0.5h-2h-3h-3h-2
q-11 2 -22.5 3t-23.5 1h-3t-4 -0.5t-3.5 -0.5t-2.5 -1q-2 0 -2 -1.5v-2.5q0 -3 1 -5t1 -6v-2v-2q-2 -2 -3 -2h-3h-3t-2 2q-2 24 -4 47.5t-2 47.5v14t1 10t4.5 7t11.5 6q1 0 4 0.5t4 2.5v8q0 14 -3 27.5t-3 26.5q6 0 9 -4t3 -9q0 -1 0.5 -7.5t1.5 -15t1.5 -16.5t1.5 -13v-1
v-7q0 -4 -0.5 -9t-1.5 -9t-4 -4q-2 0 -2.5 0.5t-1.5 3.5v3t-0.5 4.5t-0.5 5v3.5q-1 1 -2 1.5t-2 0.5q-5 0 -7.5 -4t-3 -9t0 -10.5t0.5 -8.5v-16q0 -2 0.5 -8t1 -13t1 -13t0.5 -8q1 -3 5 -4.5t8.5 -2t9.5 -0.5h7h5.5t10.5 -0.5t10.5 -0.5h5.5h6h5q1 0 2 5t3 12t4 15.5
t3.5 16.5t2.5 13.5t1 7.5t-1.5 4.5t-1.5 5.5q-1 3 -1.5 5t-0.5 4v5v6zM132 223v2t0.5 2.5t1.5 3t2 1.5q3 0 4 -3t1 -5v-4q0 -1 -0.5 -3l-0.5 -2q-3 -17 -3 -34q0 -18 1 -34q-1 -2 -3 -3t-3 -1q-3 1 -3 2.5v3.5v4q0 2 0.5 7.5t0.5 12.5t0.5 15t0.5 15t0.5 12.5t0.5 7.5z" />
</svg>
