<?xml version="1.0" standalone="no"?>
<!DOCTYPE svg PUBLIC "-//W3C//DTD SVG 1.1//EN" "http://www.w3.org/Graphics/SVG/1.1/DTD/svg11.dtd" >
<svg xmlns="http://www.w3.org/2000/svg" xmlns:xlink="http://www.w3.org/1999/xlink" version="1.1" viewBox="-10 0 266 256">
   <path fill="currentColor"
d="M152 182q1 2 2.5 7.5t3 13t4 16t5 15.5t5.5 11.5t6 4.5h1l1.5 -1t2.5 -1v-5q0 -4 -1.5 -8t-4.5 -7q-3 -9 -6.5 -18t-6 -19t-4.5 -20t-2 -19q0 -1 0.5 -5.5l1 -9t2 -8t3.5 -3.5t3.5 1.5t3 4t3 4.5t2.5 4q1 0 3.5 1.5t3.5 1.5l3 3l4.5 4.5t4.5 5l2 2.5h6q0 -7 -4 -11
t-9 -7.5t-9.5 -7.5t-4.5 -11q0 -2 1 -3t3 -2q1 0 4 -0.5l6 -1t5.5 -2.5t3.5 -4q0 -1 -0.5 -2.5t-2 -2.5t-3 -1.5l-1.5 -0.5q-3 0 -5.5 1t-5 3t-4.5 3t-5 1t-5 -3.5t-3.5 -8t-2 -9t-0.5 -6.5q0 -1 0.5 -3.5l0.5 -2.5h31v-8h-34q-2 0 -2.5 -1.5t-1 -3.5t-0.5 -4v-2
q0 -1 0.5 -3l0.5 -2q2 -1 5.5 -1t7.5 -0.5t7.5 -2t5.5 -3.5q0 -7 0.5 -13t0.5 -12q0 -2 -0.5 -4t-2.5 -2t-2.5 0.5l-1.5 1.5q-1 3 -1.5 6l-1 6t-0.5 6v6h-2t-3.5 0.5t-3 0.5h-2.5h-1q-2 0 -4.5 -1t-2.5 -4v-24q-3 0 -5.5 0.5t-2.5 4.5q0 12 1.5 24t1.5 25v2t-1 2t-3.5 0.5
t-5.5 0.5t-5.5 0.5t-3.5 0.5q-4 1 -4 5q3 0 7 -0.5t8 0t7 3t4 6.5q1 1 2 5t2.5 8t2.5 8t2 5v2v1q0 3 -1.5 4.5t-3 3.5t-3 3.5t-2.5 3.5q-1 1 -1 4t-0.5 6t-0.5 6v4v9q0 3 0.5 6.5t0.5 7.5t1 9zM65 202q6 0 11 0.5t9.5 1t9 1.5t9.5 1h3q1 0 3.5 -0.5t5.5 -0.5t5.5 -0.5
t3.5 -0.5t1.5 -1t0.5 -2.5v-3v-1.5h-8h-11h-11.5h-7.5h-5q-3 0 -7 -1t-7 -2.5t-3 -5.5q0 -3 3.5 -5.5t8 -7t7.5 -11.5t2 -18q2 -4 6 -4h2q1 1 2.5 1.5l1.5 0.5v22q0 3 2.5 5.5t6 4.5t7 3t5.5 1t4.5 -0.5t2.5 -3.5t-2.5 -4.5t-6 -2t-6.5 -1.5t-4 -4q-2 -3 -2 -5.5v-4.5
t0.5 -5t0.5 -7h21q2 0 2 -1v-2q0 -3 -3 -5h-6q-13 0 -25 1t-25 3q-3 0 -6.5 0.5t-6 2t-4.5 4t-3 6.5v16v11.5t1 10.5t3.5 8.5t8.5 5.5zM60 170q0 -4 0.5 -8.5t2.5 -8.5t4.5 -7t6.5 -3t5 2.5t1 5.5t-1 7t-3 8t-4.5 7t-6.5 3q-3 0 -4 -1.5t-1 -4.5zM57 40v8.5v13.5v13v9l0.5 2
t1 5t1 5.5t1.5 4.5q0 2 0.5 4.5t3.5 2.5h42l1.5 -1t2.5 -2l2.5 -2.5l1.5 -1.5q0 -1 0.5 -3.5t0.5 -3.5q1 -1 1 -4.5t0.5 -7t0.5 -7v-5.5v-17l0.5 -2t1.5 -4.5t1.5 -4.5l0.5 -2v-10v-9q-2 -2 -2.5 -3t-3.5 -1t-3.5 3t-0.5 6t-0.5 5.5t-2.5 2.5h-36q-3 0 -3.5 -1.5t-0.5 -4
t-1 -4t-4 -1.5h-3q-1 0 -1.5 1.5t-1.5 3.5l-1.5 3t-0.5 2t0.5 3.5t0.5 3.5zM67 65v-3v-5v-5.5v-3.5q2 -2 6.5 -3t9 -1.5t9 -0.5h7.5l2 0.5l4 1t3.5 1.5t1.5 2v36l-6 13q0 1 -2 1.5t-3 0.5h-1.5h-3.5h-3h-2h-3h-3h-2.5h-2.5q-5 -2 -7.5 -5.5t-3 -8t-0.5 -10v-10.5zM73 74v1
q0 1 0.5 1.5t1.5 0.5h11h12q1 0 3.5 -1t2.5 -3t-1.5 -3t-3.5 -1.5t-4 -0.5h-2h-5.5t-6.5 0.5t-5.5 2t-2.5 3.5z" />
</svg>
