<?xml version="1.0" standalone="no"?>
<!DOCTYPE svg PUBLIC "-//W3C//DTD SVG 1.1//EN" "http://www.w3.org/Graphics/SVG/1.1/DTD/svg11.dtd" >
<svg xmlns="http://www.w3.org/2000/svg" xmlns:xlink="http://www.w3.org/1999/xlink" version="1.1" viewBox="-10 0 266 256">
   <path fill="currentColor"
d="M172 249q1 2 3 2q3 0 4.5 -3.5t1.5 -5.5v-3l-0.5 -1.5t-1 -3.5l-1 -4l-0.5 -2q0 -1 -0.5 -5t-1.5 -8.5t-1.5 -9t-1.5 -5.5l-0.5 -2t-0.5 -3v-2.5v-4.5v-4v-3q0 -10 1 -17.5t4 -16.5l0.5 -0.5l0.5 -0.5q5 0 8 5t5.5 10.5t5 10t5.5 4.5t5 -1.5t2 -5.5q0 -2 -3.5 -7
t-7.5 -11l-8 -12t-6 -10q1 -5 3 -8.5t4 -7.5l4 -8t2 -8q0 -2 -0.5 -4t-2.5 -2t-4 1.5t-3.5 3.5t-2.5 4.5t-1 3.5h-1h-1l-1.5 -1.5l-1.5 -1.5q0 -1 -0.5 -3.5t-1 -5.5t-1 -5.5t-0.5 -3.5v-3q0 -2 3.5 -3.5t8 -2.5t9 -1.5t5.5 -0.5v-3q0 -3 -1 -3.5t-4 -0.5q-4 0 -8.5 1
t-8.5 1q-3 0 -3.5 -2.5t-0.5 -5.5t1.5 -4.5t4 -2.5t5.5 -2t5.5 -3.5t4 -6.5t1.5 -12v-3v-4q-1 -1 -1.5 -1h-1.5q-4 0 -4.5 3.5t-1 8t-1.5 8t-6 3.5q-3 0 -3.5 -1.5t-0.5 -4.5q0 -4 0.5 -8t0.5 -8q0 -1 -1 -3.5t-2 -2.5q-2 0 -2.5 1t-1 2.5t-1 3.5t-0.5 3v5t-0.5 8.5
t-0.5 8.5v5q-1 2 -1 5.5t-0.5 6.5t-1 5l-0.5 2h-12v6h12l1 3q2 10 4.5 21.5t2.5 22.5q0 4 -1 10t-3 11.5t-4 11.5t-3 11v14q0 18 3 34t6 33zM110 241q2 1 2.5 1.5t2.5 0.5t4 -1.5t2 -3.5q-2 -15 -2.5 -30t-0.5 -29v-4v-5.5v-4.5v-2l3 -7l1.5 -0.5t4 -1t4.5 -1t4 -0.5h5
t3.5 -0.5t2.5 -2t1 -5.5q-11 0 -22 1.5t-22 1.5v-5.5v-7.5t-0.5 -7.5t-0.5 -5.5q1 -4 1.5 -7t4.5 -3q6 0 10.5 3.5t8.5 7.5t7.5 7t7.5 3q3 0 3.5 -1t0.5 -3q0 -5 -5.5 -9t-13 -7.5t-14.5 -6t-9 -5.5v-3.5v-5.5v-5.5v-3.5q0 -2 -0.5 -3.5t-2.5 -1.5h-0.5h-1.5q0 2 -0.5 6
l-1 8t-1 7.5t-1.5 4.5t-2 1.5t-2.5 1t-3 0.5t-2.5 1q-2 1 -8 4.5t-12 8t-10.5 9t-4.5 7.5q0 1 1.5 1.5t2.5 0.5q5 0 9.5 -4.5l9.5 -9.5t9.5 -9t9.5 -4q1 0 2 0.5t1 3.5v31l-0.5 0.5l-1 1t-2 1.5l-1.5 1h-39q-1 0 -2 1t-1.5 2.5t-0.5 3.5v2q9 0 17 -1t16 -1v5t0.5 7t0.5 8v4
t-1 3.5t-1 3.5t0.5 3.5t1.5 2.5q-1 2 -1.5 5l-1 6l-1 6t-1.5 5q-1 4 -2 9t-1 9q0 3 0.5 4.5t3.5 1.5q4 0 6.5 -6t3.5 -14.5t1.5 -19t0.5 -19.5t0.5 -16t2.5 -8q2 -2 5 -2h5h7v11.5t0.5 17.5t0.5 17v11v28zM110 65q2 3 7.5 7.5t12 9t12 8t7.5 3.5q3 0 3 -3q0 -4 -2.5 -6
t-5.5 -3.5t-5.5 -3.5t-3.5 -5q-1 -5 1 -7t6 -3t7.5 -2.5t4.5 -5.5v-5t0.5 -8t1 -8.5t0.5 -6.5l0.5 -1l0.5 -1q0 -2 -0.5 -3t-2.5 -1q-3 0 -4.5 4.5t-2 10t0 11t-0.5 8.5q-1 1 -2 1.5t-2 0.5q-2 0 -3 -0.5t-2 -1.5v-5q0 -7 1 -14t1 -14q0 -3 -0.5 -4.5t-3.5 -1.5q-2 0 -4 3
q0 2 -0.5 4.5t-0.5 6t-0.5 6.5t-0.5 4v15v4t-0.5 5t-1.5 4t-3 2t-3.5 -1.5t-2.5 -3.5t-1 -4v-4q0 -9 1 -17t1 -17q-1 0 -3 0.5t-2 2.5q-3 10 -3.5 20t-1.5 20zM47 88q0 3 3 3q2 0 8 -2.5t13 -5.5t13.5 -6t8.5 -5q3 -2 4.5 -6t1.5 -7q1 -5 1.5 -11.5t0.5 -12.5v-2
q0 -1 -0.5 -2.5l-1 -3t-2.5 -1.5t-3 3t-1 7v9v9t-1.5 7t-4.5 3h-1h-1q-1 -4 -1 -5.5v-5.5q0 -9 1 -18t1 -17q0 -3 -1 -4t-3 -1q-1 0 -3 0.5t-2 2.5v35q0 2 -2.5 2.5t-3.5 0.5q-5 0 -6.5 -3.5t-2 -8.5t0.5 -9.5t1 -6.5q-1 -1 -2 -1.5t-2 -0.5q-3 0 -3.5 3t-0.5 6v5q0 2 0.5 6
t1 7.5t1 6.5l0.5 3l3 3h11q1 0 2 1t1 2q1 4 -3.5 6t-10 4t-10.5 4.5t-5 6.5z" />
</svg>
