<?xml version="1.0" standalone="no"?>
<!DOCTYPE svg PUBLIC "-//W3C//DTD SVG 1.1//EN" "http://www.w3.org/Graphics/SVG/1.1/DTD/svg11.dtd" >
<svg xmlns="http://www.w3.org/2000/svg" xmlns:xlink="http://www.w3.org/1999/xlink" version="1.1" viewBox="-10 0 266 256">
   <path fill="currentColor"
d="M173 173v23q0 4 1 12t3 16.5t4.5 15t5.5 7.5q3 0 4 -3t1 -4v-2v-1l-0.5 -1t-1 -2.5t-1 -2.5t-0.5 -2q-1 -3 -2.5 -9t-2.5 -12t-2 -10.5t-1 -5.5v-3.5t-0.5 -6.5t-0.5 -7v-6v-5q0 -3 0.5 -6.5t0.5 -7v-4.5q1 -2 1.5 -4.5t3.5 -2.5t4.5 3t2.5 6t3 6t5 3t5 -1t2 -4
t-2.5 -6.5t-5.5 -6.5t-5.5 -6t-2.5 -7t1.5 -6t3.5 -3.5t4 -3.5t2 -5q0 -2 -0.5 -3.5t-2.5 -1.5t-3.5 1t-3 2.5t-3 2.5t-2.5 1q-2 0 -3 -2t-1.5 -5l-1 -6t-0.5 -4v-3t2 -2q1 0 3.5 -0.5t5.5 -0.5t6 -0.5t4 -0.5q3 -1 5 -3t2 -5h-31v-14l2.5 -1t6 -2.5t6.5 -3t4 -3.5
q1 -6 2 -12.5t1 -12.5v-8q0 -1 -1 -1h-2q-2 0 -2.5 0.5t-1.5 2.5v8t-1 10t-3.5 8.5t-7.5 3.5q-3 0 -3.5 -1t-0.5 -5q0 -5 0.5 -11t0.5 -12v-2v-3.5v-2.5v-3l-1 -0.5t-2 -0.5h-1q-1 0 -2.5 2t-1.5 3v64l-1 2h-3.5t-7 0.5t-6.5 0.5q0 1 -1 1q-2 0 -3 -2t-1.5 -4t0 -4t0.5 -3
q-1 -14 -2.5 -21t-6 -10t-12.5 -3t-21 -1l-2 -2v-20q0 -2 -1.5 -3.5t-3.5 -1.5l-1 1t-1.5 1t-1 0.5l-0.5 0.5v26q-7 0 -14 1t-13 3t-11 5.5t-8 10.5q-2 44 -2.5 87.5t-0.5 87.5q0 2 0.5 4.5t3.5 2.5q2 0 4 -2t2 -5v-57v-9l1 -84l3 -25q1 -2 5.5 -4t10.5 -4t11.5 -3t6.5 -1h2
h6.5h9.5t9.5 0.5t6.5 0.5l2 1t2.5 1t1.5 0.5l1 0.5l5 15l0.5 3.5t0.5 9v13v14.5t0.5 14t0.5 12q0 18 0.5 36t0.5 36v3v5t-0.5 8t-0.5 8v5v1q0 2 0.5 3.5t2.5 1.5t3.5 -0.5t2.5 -2.5v-8v-6.5v-5.5t-0.5 -6t-0.5 -7v-109q0 -1 2 -2t5 -2t6 -1h5q3 0 4 0.5t3 4.5q1 6 2.5 14.5
t1.5 16.5q0 3 -1 6l-2 6t-2 6.5t-1 7.5v22zM98 148q-1 16 -6.5 32.5t-12.5 31.5q-1 4 -3.5 7t-4 6.5l-3 7t-1.5 7.5q4 0 7.5 -4t7 -10t6 -13l5 -14t4 -13t1.5 -9h0.5h0.5q2 0 3.5 4t4 10.5t4.5 14t4 14t4.5 11t4.5 4.5q4 0 5.5 -2.5t1.5 -5.5q0 -2 -1.5 -6t-4 -7.5t-4.5 -7
t-3 -5.5q-8 -22 -11.5 -46t-3.5 -47v-3v-7v-11t0.5 -11t0.5 -7q2 -1 6 -1.5t8.5 -1t7.5 -1.5t3 -3q0 -3 -1.5 -3h-2.5h-24.5t-24.5 2q-1 0 -3 1t-2 3v1l0.5 1t1.5 1h19q2 0 3.5 2.5t1.5 5.5t-0.5 5.5l-0.5 2.5q0 4 0.5 13t1 19t0.5 19v13zM66 88q0 3 0.5 11.5t1 17.5t2 15.5
t4.5 6.5h13l3 -2q-2 -4 -4.5 -4.5t-4.5 -1t-3.5 -2.5t-1.5 -7q0 -3 2 -4t5 -1.5t5 -1t2 -2.5q0 -3 -2 -3h-6t-5.5 -1.5t-2.5 -8.5q0 -4 2.5 -5t5.5 -1.5l6 -1t5 -3.5l-1 -1h-14l-4.5 -4.5t-4.5 -2.5t-2.5 3t-0.5 4zM122 124q0 3 -2 5t-4 3.5t-4 3.5t-2 4q6 0 10 -1t6 -4
t2.5 -7.5t0.5 -10.5v-8v-8t-0.5 -8.5t-0.5 -9.5q-1 -1 -2 -3t-2 -2q-2 0 -2.5 1t-1 2.5l-1 3t-1 1.5h-2.5q-1 0 -3 0.5t-3 1t-1 2.5v0q1 0 4.5 1t4.5 1l2 2t1 2v12h-2h-3.5t-4 1t-2.5 2v0.5v0.5q0 2 2 2.5t4.5 1t4.5 2t2 6.5z" />
</svg>
