<?xml version="1.0" standalone="no"?>
<!DOCTYPE svg PUBLIC "-//W3C//DTD SVG 1.1//EN" "http://www.w3.org/Graphics/SVG/1.1/DTD/svg11.dtd" >
<svg xmlns="http://www.w3.org/2000/svg" xmlns:xlink="http://www.w3.org/1999/xlink" version="1.1" viewBox="-10 0 266 256">
   <path fill="currentColor"
d="M147 247l2 2l1 1h1q2 0 3.5 -1t1.5 -3l3 -67q1 -3 3.5 -4.5t4.5 -1.5h2h1q1 1 1.5 4t0.5 4v4q1 6 3 12l4 12t4.5 11.5t3.5 11.5q1 2 2.5 2.5t3.5 0.5q3 0 5 -2.5t2 -5.5v-2l-0.5 -1t-1.5 -2t-1.5 -2l-0.5 -1q-2 -7 -5.5 -14.5t-6 -15t-4.5 -15t-2 -15.5v-6q2 -3 5.5 -5
t7.5 -5t6.5 -6t2.5 -6q0 -2 -0.5 -3t-3.5 -1q-2 0 -5 1.5t-5.5 4l-4.5 4.5l-3 3q0 1 -1 1h-1l-1 -0.5t-2 -1.5q0 -5 -0.5 -8.5t-0.5 -7v-7v-7.5v-5q0 -1 2.5 -1.5t5.5 -1t5.5 -1t3.5 -0.5h2t4 -0.5t3.5 -0.5h2.5v-7q-7 0 -14 1t-14 1h-1q-2 -2 -2 -5.5v-5.5q0 -5 1.5 -7.5
t3.5 -4t4 -1.5q3 0 5.5 -0.5t5 -2.5t4.5 -7v-4.5t0.5 -7.5t1 -7.5t0.5 -5.5v0q0 -3 -1 -3.5t-3 -0.5q-4 0 -4.5 4.5t-1 10.5t-3.5 11.5t-11 7.5q-2 -1 -2.5 -2t-0.5 -3q0 -1 -0.5 -4t-0.5 -4q0 -8 1 -16t1 -16v-5t-3 -3q-5 0 -7 3.5t-2 7.5v1v1l0.5 2.5t0.5 3.5v65q0 1 -2 1
h-6q-4 0 -6.5 1.5t-2.5 5.5h19q1 0 1.5 5.5t1 12t0.5 13v8.5v13q-4 3 -7 8.5t-5 13t-3 16.5t-1.5 17t-0.5 16v12v8zM93 240q0 4 1 6.5t5 2.5h2t2 -2v-4.5v-7t0.5 -7t0.5 -4.5q0 -4 1 -9.5t4 -8.5q2 -4 5.5 -7t7 -6.5t6 -7t4.5 -7.5q2 -7 3.5 -13.5t1.5 -13.5t-2.5 -12t-6 -9
t-8 -8t-8.5 -8q-3 -2 -3.5 -5.5l-1 -7t-1.5 -6t-3 -2.5h-2.5t-1.5 1v16q0 2 -4.5 4t-10.5 4t-11 5.5t-5 8.5q0 4 4 4q3 0 6.5 -3l7 -6t7.5 -5.5t9 -2.5q7 0 12 4.5t8 11t4 13.5t1 13q0 7 -3.5 12.5t-8.5 10.5l-10 10t-7 12q-3 8 -4 17t-1 17zM61 196q0 3 5 3q1 0 2.5 -0.5
t3.5 -0.5q1 -1 3.5 -3l5 -4t5 -4.5t3.5 -2.5q0 -1 1.5 -2t3 -2.5l3 -3l1.5 -1.5q2 -2 4.5 -3.5t5 -3.5t4.5 -4t2 -4t-0.5 -3t-3.5 -1l-4 3t-9.5 7t-12 9t-11.5 9.5t-8.5 7.5t-3.5 4zM67 168q0 3 4 3q3 0 6.5 -2t6.5 -5t6 -5.5t6 -4.5q1 0 3.5 -0.5t3.5 -0.5q2 -1 3.5 -3
t1.5 -4q-2 0 -8.5 2.5t-14 6t-13 7.5t-5.5 6zM66 150q0 3 3 3q4 0 10 -2t12 -5.5t10 -8t4 -7.5h-6l-2.5 1.5t-5.5 3.5t-5.5 3.5t-3.5 1.5q-1 1 -3.5 2t-5.5 2.5l-5 2.5t-2 3zM101 57v5.5v3.5q0 1 -0.5 2l-1.5 3t-1.5 3.5t-1.5 2.5t-5.5 4.5t-10 7.5t-10 7.5l-4.5 3.5v11
l0.5 0.5t0.5 1.5h1q3 0 5 -1.5t3 -3t1.5 -4t1.5 -4.5q1 -1 4 -3t6 -4.5t5.5 -4.5t3.5 -3q4 -3 5 -5t4 -6v-40q0 -8 -5 -11t-11 -3h-8t-10 1t-8.5 3t-3.5 6q8 0 15 -2t14 -2q5 0 7.5 4t3 9t0.5 10.5v7.5zM123 111q0 1 0.5 1.5t2.5 0.5q3 0 4 -2.5t2 -5.5t1 -6v-5q1 -3 3 -5.5
t4.5 -4.5t4.5 -4.5t4 -5.5l0.5 -1.5l0.5 -1.5v-37q0 -3 -1 -5.5t-3 -5t-4 -3.5t-5 -1h-6t-8.5 0.5t-7.5 1t-3 1.5v1l1 2q3 1 6 1.5t6 0.5t6 -0.5t5 -0.5q4 0 5.5 3.5t2 8t0.5 9.5v6q0 5 -0.5 9.5t-2.5 10.5q-4 4 -7.5 7t-6 6.5t-4 7.5t-1.5 10v3t1 4zM56 79q0 1 1 2.5t3 1.5
t7 -2t10.5 -4.5t10 -5.5t4.5 -5t-1 -2.5t-3 -0.5l-5 2.5t-11 5t-11 5t-5 3.5zM135 63q-1 0 -5 2t-8.5 4t-7.5 4.5t-3 4.5q2 0 6.5 -1t9 -2.5t8 -4t5.5 -4.5q-1 0 -2 -1t-2 -1q0 -1 -1 -1zM55 62q1 2 2.5 2.5t3.5 0.5t7 -1.5t10 -4t9.5 -5t5.5 -4.5q0 -2 -1 -2h-2
q-2 0 -7.5 1.5t-11.5 3.5t-10.5 4.5t-5.5 4.5zM115 57v2t1 1q2 0 6 -0.5t7.5 -2t6 -3.5t2.5 -5q-7 0 -12 2t-11 5v0.5v0.5zM56 46q0 2 1 3t4 1l5 -2t11 -4t10.5 -4t4.5 -4q0 -4 -4 -4t-8 1.5t-8 3.5l-8 4t-8 2v1.5v1.5zM132 32q-2 0 -5 1t-5.5 2.5t-5 4t-2.5 4.5
q2 0 5.5 -0.5t7 -1.5t6 -2.5t2.5 -4.5t-3 -3z" />
</svg>
