<?xml version="1.0" standalone="no"?>
<!DOCTYPE svg PUBLIC "-//W3C//DTD SVG 1.1//EN" "http://www.w3.org/Graphics/SVG/1.1/DTD/svg11.dtd" >
<svg xmlns="http://www.w3.org/2000/svg" xmlns:xlink="http://www.w3.org/1999/xlink" version="1.1" viewBox="-10 0 266 256">
   <path fill="currentColor"
d="M70 246l1.5 1.5t2.5 1.5l1.5 -0.5l3 -1t2.5 -1.5t1 -2v-115l3.5 -1.5t9 -2.5t12 -2t12.5 -2t11 -2t7 -1q1 -1 3 -1.5t5 -1.5t5 -1.5t3 -1.5h3.5t5 -0.5l5 -1t3.5 -1.5l1 -0.5t2 -1.5l2 -2l2 -2q2 -3 3.5 -8.5t2 -11t0 -11.5t-0.5 -10v-3v-4v-4.5v-2.5q0 -1 -2 -3t-3 -2
h-1h-1q-1 0 -2.5 1.5l-1.5 1.5v15q0 1 -1 1.5t-2 0.5h-2h-3h-3t-4.5 0.5t-5 0.5h-3.5q-14 2 -28 5.5t-29 3.5h-6q-2 -3 -3 -5.5t-1 -5.5q0 -8 1 -13t4 -8t8 -5t13 -3q4 -1 12 -2t16.5 -2t15.5 -2t10 -1h4h7h6.5h4.5t3 -2t2 -3v-1q0 -2 -1.5 -4t-3.5 -2q-13 0 -26 3t-26 4h-3
h-6h-6h-3q-4 0 -10.5 1.5t-13 4t-11.5 6t-5 8.5l-2 70q2 4 2 10.5v10.5q0 9 -1 18t-1 18q0 5 1 10t1 11q0 4 -1 8.5t-1 8.5v3q0 1 0.5 3t0.5 4.5t0.5 5l0.5 2.5v1q0 4 -1 7t-1 6v8zM82 95v-5.5v-3.5l2 -2l81 -11h1q1 0 2 1t1.5 2.5t0.5 3v2.5q0 5 -2 9.5t-5 7.5
q-8 3 -17 5.5l-18 5t-18.5 4t-18.5 1.5q-1 0 -3.5 -0.5t-3.5 -0.5q-2 -4 -2 -9v-10z" />
</svg>
