<?xml version="1.0" standalone="no"?>
<!DOCTYPE svg PUBLIC "-//W3C//DTD SVG 1.1//EN" "http://www.w3.org/Graphics/SVG/1.1/DTD/svg11.dtd" >
<svg xmlns="http://www.w3.org/2000/svg" xmlns:xlink="http://www.w3.org/1999/xlink" version="1.1" viewBox="-10 0 266 256">
   <path fill="currentColor"
d="M58 184v64l1.5 1t2.5 1v0q3 0 4.5 -1.5t1.5 -4.5v-55v-11l-1 -59l1.5 -0.5t3.5 -0.5q1 -1 5.5 -2l9 -2l9 -2t6.5 -1q7 -4 10 -10t3.5 -14t0 -16t-0.5 -16v-3v-4v-3.5v-3.5q0 -2 -1.5 -2h-2.5q-2 0 -3 0.5t-1 3.5v19q0 1 -4.5 2t-10.5 1.5t-11.5 1.5t-7.5 1h-3q-1 0 -2 -1
l-1 -1v-22q0 -4 3 -6.5t8 -4t11 -2t11 -1.5t8.5 -2.5t3.5 -3.5q0 -3 -1.5 -4t-4.5 -1h-2h-1l-1 0.5t-2 0.5t-2 0.5l-1 0.5q-8 1 -15.5 2t-13 3t-8.5 7.5t-3 16.5q0 12 0.5 23t0.5 22q0 16 -0.5 31.5t-0.5 31.5v13t1 13zM144 241q0 2 2 2h3q2 0 3.5 -1t1.5 -4v-1l-1 -2
t-1.5 -4.5t-1 -4.5t-0.5 -3t-0.5 -4.5t-1 -7.5t-1 -7t-0.5 -4q-1 -12 -2.5 -25t-2.5 -26.5t-1.5 -27t-0.5 -25.5t1.5 -18.5t5 -10t7.5 -5t9.5 -2.5t12 -2.5t12.5 -5.5l1.5 -1.5l0.5 -0.5v-4.5v-4.5v-7.5t-0.5 -7t-2.5 -6.5t-5 -4h-14q-3 0 -9.5 -0.5t-13.5 0.5t-12.5 3.5
t-5.5 7.5q11 0 20.5 -1t19.5 -1q4 0 8.5 1t4.5 7q0 8 -3.5 11.5t-9 5t-11.5 3t-11.5 5.5t-9 12.5t-3.5 25.5q0 23 1 46.5t2 46.5q0 6 1 13t2.5 14t3 13.5t2.5 11.5zM184 228q2 5 2.5 8t5.5 5q1 -2 1.5 -4t0.5 -4v-5l-0.5 -1t-1.5 -2.5t-1.5 -3l-0.5 -1.5q-3 -11 -6 -22.5
t-5.5 -22.5t-4 -22.5t-1.5 -23.5v-3v-6t0.5 -5.5t0.5 -3.5q0 -7 4.5 -10.5t9.5 -5.5t8.5 -4t3.5 -5q0 -2 -1.5 -3t-3.5 -1q-5 0 -10 2t-10 6t-8 9t-3 10v4q0 2 -0.5 5t-0.5 7v3q0 12 1.5 22.5t2.5 22.5zM67 92v-5q0 -3 0.5 -4.5t1.5 -2.5t4 -2q3 0 8 -1t9.5 -2t8 -1.5
l3.5 -0.5l3 4v2v4q0 7 -2.5 11.5t-7 7.5t-10 4t-11.5 1q-3 0 -4.5 -1.5t-2 -3.5t-0.5 -5v-5z" />
</svg>
