<?xml version="1.0" standalone="no"?>
<!DOCTYPE svg PUBLIC "-//W3C//DTD SVG 1.1//EN" "http://www.w3.org/Graphics/SVG/1.1/DTD/svg11.dtd" >
<svg xmlns="http://www.w3.org/2000/svg" xmlns:xlink="http://www.w3.org/1999/xlink" version="1.1" viewBox="-10 0 266 256">
   <path fill="currentColor"
d="M47 248q0 2 1 2.5t3 0.5q3 0 4.5 -1.5t2.5 -3.5t1.5 -4.5t0.5 -4.5q2 -8 5 -13t5 -12l0.5 -1l1.5 -3l1.5 -3l0.5 -1q2 -6 3 -12t1.5 -12t1.5 -12t3 -12l9 -68q0 -1 1 -2.5t2 -2.5q12 -1 22 -2t19.5 -2t20 -2.5t22.5 -3.5q4 -3 6 -7t2.5 -8t1 -7t1.5 -3t3 -0.5t4.5 -1
t4.5 -1t3 -0.5q1 -1 3 -2t2 -3q0 -4 -3 -4.5t-5 -0.5q-3 0 -6.5 1t-6.5 3q-10 1 -21.5 2.5t-23.5 3t-23.5 2.5t-20.5 1h-3h-2q-2 -2 -2 -4v-4q0 -5 2 -7.5t6 -5.5q2 0 5 -0.5t7 -1t7 -1t5 -0.5q1 0 8.5 -0.5t17.5 -1t19.5 -1.5t14.5 -1q3 0 6.5 0.5t5.5 -1.5v-0.5v-0.5
q0 -5 -3.5 -6t-6.5 -1q-1 0 -3.5 0.5t-3.5 0.5h-8t-13 0.5t-15 0.5t-15 0.5t-12.5 1t-8.5 0.5q-4 0 -8 0.5t-7.5 2t-6 4t-3.5 7.5v5t-0.5 9t-0.5 9.5v6.5v4v9v8v5q-2 32 -7 65t-15 64q0 2 -2 7t-4.5 10t-4.5 10t-2 7zM106 95h-1l-2.5 2.5l-1.5 1.5v110q0 5 -1.5 10t-3 9.5
t-2.5 9.5t-1 10q3 0 5 -1.5t3 -3.5t1.5 -4.5t2.5 -5.5l3 -37l1 -0.5t2.5 -0.5h3h2.5h2.5t1.5 1v44q0 2 2 2h2q2 0 3.5 -0.5t1.5 -3.5v-43q1 0 2.5 -0.5t4.5 -1t4 -0.5h3h2v5v7v6v5v5t0.5 8t0.5 7.5v5.5q1 2 2.5 2h2.5q3 0 3.5 -1.5t0.5 -4.5q0 -7 -1 -13.5t-1 -12.5v-16
q2 -2 4 -2.5t5 -0.5h1h2l3 45q0 2 1 2h2h2t2 -2v-11q0 -6 -1 -12.5t-1 -12.5v-7q2 -2 5 -2h5h3h3q1 2 2 6.5t1 10.5t0.5 12.5t1.5 11.5t2.5 8.5t3.5 3.5q4 0 5 -1t1 -5q0 -8 -1.5 -15l-3 -14l-3 -14t-1.5 -14v-91q0 -2 -1.5 -2h-2.5q-3 0 -3 1.5t-1 5.5v7t-0.5 10.5
t-0.5 10.5v7l-1 2.5t-3 2.5h-13v-38q0 -2 -1 -2h-2t-2.5 0.5t-1.5 1.5v38h-13v-47l-1 -1t-2 -1h-1h-1l-0.5 1l-0.5 1q-1 1 -1.5 3l-0.5 2v42q0 1 -1.5 1.5t-3.5 0.5q-1 0 -4.5 -0.5t-4.5 -0.5v-36q0 -1 -2 -1.5t-3 -0.5q-2 0 -3 0.5t-1 3.5v33q0 3 -3 3.5t-4 0.5h-1.5
t-3 -0.5t-1.5 -1.5v-42l-0.5 -0.5l-1.5 -1.5v0zM108 184v-12v-9q0 -4 1 -7.5t4 -5.5t8 -2v36q0 3 -2 3.5t-3 0.5q-2 0 -4.5 -1t-3.5 -3zM139 147q1 0 2 0.5t2 0.5l1 5v30l-0.5 0.5l-1 1t-3 1t-3.5 0.5h-1h-1l-2 -1t-2 -2v-30q0 -2 1 -3t2.5 -1.5l3 -1t2.5 -0.5zM152 161v-12
q2 -2 4 -2.5t5 -0.5h2.5t2.5 2v31q0 4 -3 4.5t-5 0.5h-4q-1 -6 -1.5 -11t-0.5 -12zM172 154q0 -6 2.5 -7t7.5 -1q4 0 6 2t2.5 5.5t0 7.5t-0.5 8v2v3v3v2q0 2 -2 2.5t-3.5 1t-3.5 0.5h-4h-3q-1 -9 -1.5 -15t-0.5 -14zM176 48q2 0 2.5 1.5t0.5 2.5q0 4 -1.5 8t-5.5 6l-3 0.5
t-5 0.5q-18 3 -35.5 5.5t-35.5 2.5v-15l1 -0.5l1 -0.5q0 -1 2.5 -1.5t3.5 -0.5q19 -4 37.5 -6.5t37.5 -2.5z" />
</svg>
