<?xml version="1.0" standalone="no"?>
<!DOCTYPE svg PUBLIC "-//W3C//DTD SVG 1.1//EN" "http://www.w3.org/Graphics/SVG/1.1/DTD/svg11.dtd" >
<svg xmlns="http://www.w3.org/2000/svg" xmlns:xlink="http://www.w3.org/1999/xlink" version="1.1" viewBox="-10 0 266 256">
   <path fill="currentColor"
d="M159 228q0 2 -0.5 6t0 8t1.5 7t4 3q4 0 5 -2t1 -5q0 -5 -1 -9.5t-1 -9.5q0 -7 3 -12t7.5 -9.5l9 -9t7.5 -10.5q2 -5 3.5 -10.5t1.5 -11v-11.5v-11v-11q0 -4 -0.5 -8t-0.5 -9t-1 -12v-2.5t-0.5 -3.5t-1.5 -4t-3 -2h-9q-4 0 -10 -0.5t-11.5 0t-9.5 3.5t-4 8q8 0 15.5 -1.5
t14.5 -1.5t9.5 6.5t3.5 15t0.5 17t-0.5 12.5v9q0 4 -0.5 8.5t-2 9t-3.5 7.5l-24 29q-3 3 -3 8v9zM123 100q3 0 5.5 2t2.5 6v51q0 6 -2 11t-5 9t-6.5 7.5t-7 8t-5.5 10t-2 12.5q0 1 -0.5 5.5t-0.5 9v8.5v6h3.5t3.5 -1l1 -0.5l1 -0.5v-33q0 -5 3 -10t7 -9.5t8.5 -9.5t6.5 -9
q0 -2 0.5 -6.5t1 -9.5t1 -9.5t0.5 -6.5v-15v-8t-1 -12.5t-3 -11t-7 -4.5q-2 0 -8.5 2t-13.5 4t-12.5 4.5t-5.5 4.5q0 3 4 3q3 0 7 -1.5l8 -3t8 -2.5t8 -1zM82 19q-5 3 -7.5 8t-3.5 11t-1 12v12q-1 10 -1 21.5t-0.5 23.5t-1.5 24t-2 23q-1 10 -3 20.5t-3.5 21l-3 21
t-1.5 20.5q6 0 9 -3.5t4 -8.5t1 -10.5v-10.5q3 -29 6.5 -58t4.5 -59l3 -3h2.5t3.5 -0.5l4 -1t3 -0.5h5h8h8h6h5h8t8 -0.5t5 -0.5q2 -1 6 -1t7.5 -1t7 -2.5t4.5 -3.5q1 -4 2 -7t1 -6v-5v-7q0 -2 0.5 -5t0 -5.5t-1.5 -5t-3 -3.5q-4 1 -5 3.5t-1.5 4.5t-2 4t-6.5 2
q-14 1 -30.5 2t-31.5 1h-5h-4l-2 -1v-13l1.5 -1t3.5 -2l4 -2t4 -1q4 -2 10 -3t12.5 -2t13 -1.5t11.5 -0.5h37l6 -1v-2q0 -3 -1 -5h-5h-6h-6h-5q-20 0 -41 1.5t-41 6.5zM87 184q0 1 1.5 1h2.5q2 0 7 -1.5t10 -4t9.5 -5.5t4.5 -5q0 -3 -4 -3q-1 0 -6 2.5t-10.5 5t-10 5.5
t-4.5 5zM179 163q-1 0 -6.5 1t-12 3t-11 4.5t-4.5 4.5h5q1 0 6.5 -1t12 -2t11 -2.5t4.5 -4.5q0 -2 -1 -2.5t-4 -0.5zM90 151v0.5v0.5q1 0 2 0.5t1 1.5h1q4 0 9.5 -2t8.5 -3q1 0 2.5 -1t3.5 -1.5t3 -1.5l1 -1v-7l-29 10q0 1 -1 2t-2 1v0.5v0.5zM181 135q-2 0 -4.5 1t-4.5 2
q-2 0 -6 0.5t-7.5 1.5t-6.5 2.5t-3 5.5q2 0 8 -0.5t12.5 -2t11.5 -3t5 -3.5t-1.5 -3t-3.5 -1zM88 127q0 1 1 2t2 1h0.5h0.5l2 -1t3 -1q3 -1 7.5 -1t8 -1.5t6.5 -3.5t3 -7q-2 0 -7.5 1.5l-11 3t-10.5 3.5t-5 4zM148 122q-1 2 0.5 2.5t2.5 0.5q2 0 8 -1t11.5 -2.5t10.5 -3.5
t5 -4t-2 -2h-3t-6 0.5t-10.5 2t-10.5 3t-6 4.5zM80 68q0 -7 4 -10t9.5 -4t11.5 -0.5t12 0.5q10 -1 20.5 -2t21.5 -1h2l2.5 0.5t3.5 0.5v3v2q0 7 -4 10.5t-10 5t-12.5 1.5t-11.5 1h-4h-7.5h-8.5h-7h-4h-6h-5h-3l-3 -2l-0.5 -2t-0.5 -3z" />
</svg>
