<?xml version="1.0" standalone="no"?>
<!DOCTYPE svg PUBLIC "-//W3C//DTD SVG 1.1//EN" "http://www.w3.org/Graphics/SVG/1.1/DTD/svg11.dtd" >
<svg xmlns="http://www.w3.org/2000/svg" xmlns:xlink="http://www.w3.org/1999/xlink" version="1.1" viewBox="-10 0 266 256">
   <path fill="currentColor"
d="M76 248q1 2 2 2h2q2 0 3.5 -1.5t2 -3.5t0.5 -5v-4q0 -15 -1 -30t-1 -31q0 -7 2 -10.5t5 -5.5t6 -3.5t6 -4.5t4.5 -9t1.5 -15v-7q0 -2 -1 -2h-2h-2t-1 2q-1 2 -1.5 7.5t-2 10.5t-4.5 9t-8 4h-0.5h-0.5q0 -1 -0.5 -1.5l-0.5 -0.5v-57q8 0 13 -3t7.5 -8t3 -12t0.5 -14
q0 -3 -1 -6t-4 -3h-1.5t-1.5 2v3v5v4.5v2.5q0 2 -1 5.5t-2.5 7t-3.5 6t-4 2.5t-4 -1t-2 -3v-10t1 -12l2 -12t4 -10q2 -3 6 -4.5t7.5 -3.5t6.5 -4t3 -6q0 -5 -4 -5t-8.5 2.5t-8 5.5t-6.5 6.5t-6 6.5q-3 5 -4 11.5t-1 12.5v13.5t-1 12.5h-4q-5 0 -8 -3t-4 -7.5t-0.5 -9.5
t0 -9.5t-1.5 -7.5t-5 -3q-3 0 -4 0.5t-1 3.5v4v6.5t0.5 8.5t0.5 7.5v4.5q1 5 3.5 7.5t6.5 3.5t8.5 1.5t8.5 0.5v7t0.5 10t0.5 9.5v6.5v3v2v4t-0.5 6.5t-0.5 6.5v4h-2h-2q-6 0 -9.5 -2.5t-4.5 -6.5t-1 -8.5t-0.5 -8.5t-1.5 -6.5t-4 -2.5q-4 0 -5 1t-1 5v10t1.5 12t4.5 10.5
t8 4.5q3 1 5.5 0.5t3.5 -0.5q2 0 3.5 0.5t4.5 3.5q-1 42 1 85zM107 172l0.5 0.5l0.5 0.5l0.5 1l0.5 1h97q2 0 4.5 -2.5t2.5 -3.5q0 -2 -1.5 -3.5t-3.5 -1.5q-7 0 -14.5 1t-14.5 1h-3h-3h-3.5h-1.5l-3 -3v-2v-4v-5v-3q0 -19 1 -36.5t1 -35.5l3 -3q7 -1 17 -1.5t17 -2.5
q1 0 1 -1v-1q0 -4 -3 -4.5t-6 -0.5q-18 0 -37 1.5t-37 2.5l-1 1v1v1q0 1 0.5 2l0.5 1h32v8t0.5 12.5t0.5 12.5v9v1v1v5t-0.5 9t-0.5 9.5v5.5v5.5v4.5q0 3 -1 5.5t-3 4.5q-10 2 -20 2t-21 2l-0.5 0.5l-0.5 0.5l-0.5 0.5z" />
</svg>
