<?xml version="1.0" standalone="no"?>
<!DOCTYPE svg PUBLIC "-//W3C//DTD SVG 1.1//EN" "http://www.w3.org/Graphics/SVG/1.1/DTD/svg11.dtd" >
<svg xmlns="http://www.w3.org/2000/svg" xmlns:xlink="http://www.w3.org/1999/xlink" version="1.1" viewBox="-10 0 266 256">
   <path fill="currentColor"
d="M83 242q0 1 1 3t3 2t3.5 -1.5t1.5 -3.5v-11q0 -15 -0.5 -29.5t-0.5 -28.5v-5v-5q2 -2 4 -2t5 -1q6 -2 9.5 -6t5.5 -9t2.5 -10.5t0.5 -11.5v-10l-2 -2t-2 -1v0h-1q-1 0 -2 1t-1 2v10t-1 12t-4 10.5t-9 4.5h-1l-1 -1.5t-2 -1.5v-17v-8.5v-11.5t1.5 -11t5.5 -6l2 -1l2 -1
q6 -3 8.5 -7.5t4 -9.5t2 -10.5t0.5 -12.5q0 -2 -0.5 -3.5t-3.5 -1.5q-1 0 -2.5 0.5t-1.5 2.5v24q0 5 -4 7.5t-8 2.5q-3 0 -4.5 -0.5t-1.5 -3.5v-11q0 -5 0.5 -11t2 -11.5t4.5 -9.5q2 -3 5 -5t6 -3.5t5.5 -3t2.5 -4.5t-1 -3.5t-4 -0.5t-5.5 1t-5 3t-4.5 4.5t-4 4.5
q-5 5 -7 11t-2.5 13.5t0 14.5t-0.5 13q-1 2 -2.5 3.5t-3.5 1.5h-1v0l-9 -8v-29q0 -2 -3 -2h-2q-4 0 -4.5 1.5t-0.5 4.5v11.5t1.5 12t5 10t8.5 6.5q4 1 6.5 1t4.5 2q0 1 0.5 4.5t0.5 4.5v11t-0.5 16t-1.5 14t-3 6q-5 0 -7 -3t-2.5 -7.5t0 -10t0 -10t-1.5 -7.5t-5 -3l-1 0.5
t-2 1.5q-1 0 -1.5 1l-0.5 1l4 33q0 4 3 5.5t6 3.5t6 3t3 3q3 20 2.5 39.5t-0.5 39.5zM147 41h-1.5t-1.5 2v109q0 6 2 9.5t5.5 5t8 2t8.5 0.5q6 0 11.5 -0.5t10 -3t7 -7t2.5 -11.5v-104q0 -2 -2 -2h-2h-2t-2 2v60h-40v-60q0 -2 -1.5 -2h-2.5zM151 123v-8q6 -4 13.5 -4h14.5
h11l1 2v39q0 3 -2.5 5t-6 2.5t-7.5 0.5h-5q-7 0 -11 -1.5t-5.5 -4.5t-2 -8.5t-0.5 -14.5v-8z" />
</svg>
