<?xml version="1.0" standalone="no"?>
<!DOCTYPE svg PUBLIC "-//W3C//DTD SVG 1.1//EN" "http://www.w3.org/Graphics/SVG/1.1/DTD/svg11.dtd" >
<svg xmlns="http://www.w3.org/2000/svg" xmlns:xlink="http://www.w3.org/1999/xlink" version="1.1" viewBox="-10 0 266 256">
   <path fill="currentColor"
d="M60 246q0 2 1 2.5t2 0.5q8 0 12.5 -6.5t7.5 -15.5t4 -17.5t2 -12.5v-5t0.5 -8.5t0.5 -8.5v-7v-16q2 -2 5 -3.5l6 -3t5.5 -3.5t2.5 -5q1 -2 2 -6.5t2 -9.5t1.5 -9.5t1.5 -6.5v-2q0 -2 -1 -2.5t-3 -0.5t-3 0.5t-1 3.5l-3 23q-1 4 -4.5 7.5t-7.5 5.5l-1 -5v-46l0.5 -1
t0.5 -2q5 -3 8 -5t4.5 -2.5t2 -1t1 -2l1.5 -4.5t3 -8q1 -5 3 -7.5t2 -7.5q0 -3 -0.5 -5l-1.5 -6h-3q-3 0 -4 4.5t-2.5 11t-4 13t-7.5 10.5q0 1 -1 1t-1 -1l-0.5 -0.5l-0.5 -0.5v-40l1.5 -3.5t3.5 -5.5q1 -3 3.5 -4l5 -2t4.5 -2.5t2 -4.5q-12 0 -18 4.5t-8.5 12t-3 16t0 15.5
t0 12t-4.5 5q-6 0 -8 -3t-3 -7.5t-1 -9.5q0 -6 -0.5 -10.5t-2.5 -7.5t-6 -3q-2 0 -2 1.5v2.5v2q0 1 0.5 3.5t1.5 3.5l-0.5 2.5t-0.5 4.5v5q0 2 1 2q1 8 5.5 12.5t9 7t8.5 4t4 3.5v51q-8 0 -12 -3.5t-6.5 -9t-3.5 -12t-2 -12.5q-1 -2 -2 -2.5t-3 -0.5q-3 0 -3.5 1.5t-0.5 3.5
q0 8 2 15.5t5.5 13t9.5 10t14 5.5v16q0 9 -0.5 20t-2.5 22t-6.5 20.5t-12.5 16.5v0zM134 141q0 24 -3.5 46t-9.5 45q-1 3 -3.5 6.5t-2.5 7.5q7 0 11.5 -6t7 -14.5t3.5 -17t1 -13.5q0 -1 0.5 -4l1 -6t0.5 -6v-4q3 -2 3 -4.5v-5.5q0 -10 -1.5 -21t-1.5 -22v-1l1 -1.5l1 -1.5
q0 -10 -2 -19t-2 -19q0 -6 4.5 -9t11 -4.5t14 -3t14 -4.5t10.5 -8.5t4 -15.5q0 -11 -6.5 -15t-18.5 -4q-11 0 -21.5 1.5t-20.5 5.5q-2 0 -2 1v2q0 3 3 3q9 0 17.5 -2.5t16.5 -2.5h7.5t8 1t6 3.5t2.5 5.5q0 8 -3 12t-7.5 6t-11 3.5t-12.5 2.5t-11 3.5t-8 7t-3 10.5v10
q0 13 1 26t1 26zM159 155q1 7 4 19t8 25t10.5 24t9.5 15q3 -1 5 -2.5t2 -4.5q0 -1 -1.5 -4t-4 -7.5t-5.5 -9.5t-5.5 -9.5t-4 -8t-2.5 -3.5v-2v-2v-3v-1l-0.5 -1l-1 -2l-1 -2l-0.5 -1q0 -1 -0.5 -3.5t-1 -5.5l-1 -6t-0.5 -5v-1.5v-2.5v-3v-2q-1 -5 -2 -7.5t-1.5 -5.5t-1 -6.5
t-0.5 -8.5q0 -8 3 -13t8 -7.5t12 -3t14 -0.5l3 -3l-3 -3q0 -1 -2.5 -1h-3.5h-5.5t-4.5 1q-10 1 -15.5 4t-8 7t-3 10.5t-0.5 15.5q0 5 1.5 11t1.5 12v1q0 1 -1 3.5z" />
</svg>
