<?xml version="1.0" standalone="no"?>
<!DOCTYPE svg PUBLIC "-//W3C//DTD SVG 1.1//EN" "http://www.w3.org/Graphics/SVG/1.1/DTD/svg11.dtd" >
<svg xmlns="http://www.w3.org/2000/svg" xmlns:xlink="http://www.w3.org/1999/xlink" version="1.1" viewBox="-10 0 266 256">
   <path fill="currentColor"
d="M154 198q0 12 1.5 21t3.5 20q0 2 1 4t1.5 4t2 3t3.5 1q5 0 5.5 -2.5t0.5 -5.5q0 -5 -1.5 -9.5t-2.5 -9t-2 -9.5t-1 -11v-3v-5v-4v-3q1 -7 5 -12t9 -9l10 -8t9.5 -8.5t7 -9.5t2.5 -12v-51l-0.5 -2.5t-1 -6t-1.5 -7.5t-2 -6q-2 -6 -5.5 -9.5t-8 -5.5t-9.5 -3t-9 -2
t-6.5 -2.5t-2.5 -4.5q0 -4 0.5 -6.5t0.5 -5.5q0 -4 -0.5 -5t-4.5 -1h-3.5t-2.5 3q0 10 -0.5 15t-3 8t-5.5 4t-6.5 2.5t-7.5 4t-7.5 8.5t-5 12.5t-2 13.5t0 14.5t0.5 13.5v4v5v4.5v3.5q2 6 4.5 12.5t7 11.5t10 8t13.5 3q2 0 2.5 -1t0.5 -3t-2 -3.5t-4.5 -2.5t-5.5 -2t-4 -1
q-4 -6 -7 -10t-5 -9t-3 -10t-1 -12q0 -12 1 -23t5 -20t12.5 -15t22.5 -6t21.5 4t11.5 10.5t4.5 16.5t0.5 22v11t-1 12t-2.5 11.5t-4.5 10.5q-6 6 -13 12t-12.5 12.5t-9 14t-4.5 16.5zM46 100q0 5 1 12t2 13q1 4 4.5 6t7 3t6.5 1.5l3 0.5v103q0 3 1 3.5t3 0.5t3.5 -0.5
t1.5 -3.5v-101q0 -1 2.5 -2t5.5 -2t6.5 -2.5t4.5 -1.5q0 -6 1.5 -13.5t1.5 -14.5q0 -2 -1 -4t-4 -2h-2.5t-1.5 2v22q-2 2 -3.5 5t-5.5 3q-3 0 -4 -1t-1.5 -2.5t0 -3.5t0.5 -4v-8v-8t0.5 -8t0.5 -9q1 -2 3 -3t4.5 -1.5t5.5 -1.5t5.5 -4t4 -8.5t1.5 -14.5q0 -3 -1.5 -5
t-4.5 -2h-3v8t-1 9.5t-3 8t-7 4.5q-1 0 -2 -0.5t-2 -0.5v-8q0 -6 1 -13.5t4 -12.5q2 -2 6 -4.5t8 -5.5t7 -5.5t3 -4.5q0 -3 -1.5 -3.5t-4.5 -0.5q-2 0 -5.5 2t-6 4.5l-5 5t-4.5 3.5q-4 4 -6 11.5t-3 14.5t-2 12.5t-2 5.5h-1.5h-0.5q-1 0 -2 -1t-2 -2.5t-2 -2t-1 -1.5l-3 -23
l-1 -1t-2 -1h-1q-2 0 -3 2.5t-1 4.5q0 6 0.5 12t3 11t6.5 8t12 4v41q0 1 -1.5 1.5t-2.5 0.5q-4 0 -6 -3t-2 -6q0 -1 -0.5 -4t-0.5 -6t-0.5 -6t-0.5 -4q0 -2 -1.5 -2h-2.5q-2 0 -4 0.5t-2 3.5zM143 138q0 2 1.5 4t3.5 3.5l4 3t4 1.5q8 0 12.5 -1.5t6.5 -5t3 -8t3 -10.5
q1 -4 2.5 -6.5t3.5 -5t3 -5t1 -6.5q-5 0 -8 4t-5.5 9t-3.5 10.5t-1 9.5q-3 4 -8 6t-9 2q-3 0 -3.5 -2t-0.5 -4q0 -6 2 -11.5t2 -11.5v-3.5v-2.5l-5.5 -5.5t-4 -4.5t-3 -5t-1.5 -6q0 -5 2 -8t5 -5t6.5 -3t8.5 -1q2 0 5 0.5t5 1.5t3.5 2.5t1.5 5.5q0 6 -3 7.5t-7.5 2t-8.5 1
t-6 3.5q2 2 6 2h6h4h4q2 -2 4.5 -3.5t4.5 -3.5t3.5 -4.5t1.5 -5.5q0 -5 -3 -8t-7 -4.5t-8.5 -2t-7.5 -0.5q-11 0 -18.5 5.5t-7.5 17.5q0 4 2 7.5l4 7l4 7t2 8.5q0 6 -1 10t-4 11z" />
</svg>
