<?xml version="1.0" standalone="no"?>
<!DOCTYPE svg PUBLIC "-//W3C//DTD SVG 1.1//EN" "http://www.w3.org/Graphics/SVG/1.1/DTD/svg11.dtd" >
<svg xmlns="http://www.w3.org/2000/svg" xmlns:xlink="http://www.w3.org/1999/xlink" version="1.1" viewBox="-10 0 266 256">
   <path fill="currentColor"
d="M143 177q0 6 1.5 10.5t3.5 9.5q3 10 8 19.5t11 17t14 12t19 4.5q1 0 4 -0.5t4 -0.5l0.5 -0.5l0.5 -0.5v-1q0 -2 -1.5 -3t-4 -1.5t-4.5 -1t-3 -0.5q-6 -2 -10 -5t-7 -7t-6 -8.5t-7 -9.5l-2 -2l-1.5 -1.5t-1 -2t-0.5 -4.5t2 -5t4.5 -3.5t4.5 -4t2 -4.5l4 -26l1 -0.5t2 -1.5
q4 -1 7 -2t6.5 -2.5t6 -4t3.5 -6.5q3 -6 3.5 -12t0.5 -13v-13v-12v-23q-1 -1 -2 -3.5t-2 -3.5q-1 -3 -7 -5.5t-12 -4.5t-11 -3.5l-5 -1.5v-28q0 -1 -1.5 -3.5t-3.5 -1.5q-1 0 -2.5 1.5t-2.5 4t-2 4.5t-1 3t0.5 3t0.5 4t0.5 3.5l0.5 1.5v4q0 4 -3.5 5t-6.5 2q-12 4 -18 12
t-8.5 19t-2 23t0.5 23q0 12 3.5 18t8.5 9t9 4.5t4 3.5q0 4 -1 8t-1 8zM63 239q0 2 1.5 3.5t3.5 1.5q3 0 5 -2.5t3 -6t1 -7.5v-6v-5v-9.5t0.5 -11.5t0.5 -11.5v-9.5v-5v-3v-5v-5v-3q1 -3 3 -3.5t5 -1.5t6.5 -2t6.5 -5t5 -11.5t2 -19.5h-1.5t-3.5 0.5t-3 1t-1 2.5l-4 20
q0 3 -3.5 4.5t-5.5 1.5q-1 0 -2.5 -0.5t-1.5 -1.5v-49l2 -1q1 -1 4 -1t6 -1t6 -2.5t3 -4.5q1 -1 1.5 -3.5t1 -6t1 -6t0.5 -3.5l0.5 -3t0.5 -4q0 -3 -1 -3h-3h-2t-2 1v8.5t-1.5 9t-4.5 7.5t-7 3h-2t-1 -2v-2q0 -1 -0.5 -3t-0.5 -4v-2q0 -10 1 -16.5t4 -11t8 -7.5t14 -7v-3
v-2.5t-2 -1.5t-7 1.5t-10 4t-9 5t-5 5.5q-3 10 -3.5 21t0.5 22q-1 1 -2 1.5t-2 0.5q-4 0 -5 -2.5t-3 -4.5v-4.5v-5.5v-6v-4q0 -2 -1 -5t-4 -3q-4 0 -6.5 1.5t-1.5 6.5l5 26q0 5 3 6.5t6.5 2t6 1t2.5 2.5v45q0 3 -1 3.5t-3 0.5q-6 0 -7.5 -4.5t-1.5 -9.5q0 -3 0.5 -5t0.5 -4
q0 -8 -7 -8q-2 0 -3 1.5t-1.5 4l-1 5t-0.5 3.5q0 9 1.5 14t4.5 7.5t6 3.5t5.5 1.5t4 1.5t1.5 4q0 6 -1.5 11.5t-1.5 11.5l0.5 1.5t0.5 3.5t0.5 3.5l0.5 1.5v5q0 12 -2 24t-2 23zM154 162q0 -14 2 -28t2 -27q0 -7 -4 -9t-8.5 -2.5t-9 -0.5t-5.5 -3v-3v-3q0 -9 2 -14.5t6 -8.5
t10 -4.5t14 -1.5q9 0 15 1t10.5 3.5t7 8t3.5 15.5q1 1 1 4v4v3.5t-1 2.5l-1 2q-2 0 -6 -0.5t-8 0t-7.5 2.5t-3.5 5l-7 67q0 1 -0.5 3.5t-1.5 5t-2.5 4t-3.5 1.5h-1h-1q-2 -6 -2 -14v-13zM180 135v-4v-6t0.5 -6t0.5 -4q2 -3 5 -4.5t6 -1.5q1 0 2.5 0.5t1.5 1.5v22
q0 3 -1.5 5.5t-3.5 4.5t-4.5 3.5t-4.5 1.5l-0.5 -0.5l-0.5 -0.5l-0.5 -2t-0.5 -3.5v-3.5v-3zM128 123q0 -1 0.5 -3t0.5 -4.5t0.5 -5l0.5 -2.5q1 -3 3 -3.5t4 -0.5q3 0 5.5 1t3.5 4v12q0 1 0.5 5t0 8t-2 7t-3.5 3q-4 0 -6 -2.5t-3.5 -6t-2.5 -7t-1 -5.5z" />
</svg>
