<?xml version="1.0" standalone="no"?>
<!DOCTYPE svg PUBLIC "-//W3C//DTD SVG 1.1//EN" "http://www.w3.org/Graphics/SVG/1.1/DTD/svg11.dtd" >
<svg xmlns="http://www.w3.org/2000/svg" xmlns:xlink="http://www.w3.org/1999/xlink" version="1.1" viewBox="-10 0 266 256">
   <path fill="currentColor"
d="M80 245v1l1 2t1 3h2h2q4 0 5 -1t3 -4v-17q0 -14 -1 -28t-1 -28v-5v-8v-7v-6t2.5 -3t6.5 -2t7.5 -3t3.5 -5q2 -7 2 -11v-11v-9q-2 -2 -3 -2h-2q-3 0 -3.5 5t-0.5 10.5t-1.5 10.5t-7.5 5q-1 0 -2 -6t-2 -13t-1.5 -14t-0.5 -9v-3q13 -3 18.5 -9.5t5.5 -20.5q0 -3 -0.5 -5.5
t-3.5 -2.5q-2 0 -3.5 2t-1.5 4.5t-0.5 6t-1 6t-2.5 4.5t-6 2q-3 0 -4 -3t-1 -5q0 -3 0.5 -8l1 -10t2 -9t3.5 -7q2 -1 5 -1.5t6 -1.5t5.5 -2.5t2.5 -4.5t-2 -3.5t-4 -0.5q-3 0 -7 1.5t-8 4t-7 5t-5 5.5t-1.5 10.5t1 14.5t-0.5 12.5t-5 5.5t-6 -2t-3 -5t-1 -7t-1 -7t-2.5 -5
t-4.5 -2t-3.5 1.5t-0.5 4.5q0 4 0.5 8.5t2 9t4 8t6.5 5.5q3 1 6.5 1t5.5 2q1 5 2 11t1 11v2v4t-0.5 6.5t-0.5 6v4.5h-2h-2q-4 0 -6 -3t-3 -7.5t-1.5 -9t-0.5 -6.5q-2 -2 -5.5 -2h-5.5v9.5t1.5 10.5t3.5 9t7 6q2 0 4 0.5l4 1t3.5 2l2.5 2.5v7v11.5v10.5v7q0 15 -1 30.5
t-1 31.5zM129 151q0 4 -0.5 13t0 18t3 16.5t7.5 8.5q1 0 3.5 0.5t5.5 0.5h6h3h16q6 0 11 -2t8.5 -6t7.5 -13v-1v-1l-0.5 -2t-1.5 -3v-39q0 -1 -0.5 -2.5l-1 -3t-2 -2.5t-2.5 -1t-2.5 1.5t-1.5 2.5v2.5v4.5v5v3q0 3 -1.5 6.5t-4.5 3.5q-2 0 -7.5 0.5t-11.5 1.5t-11.5 1
t-7.5 1h-2q-1 0 -3 -0.5t-2 -1.5v-24l-1 -0.5t-2 -1.5v0h-1v0v0l-2 2l-2 2v10zM139 192v-7q0 -7 4.5 -10.5t10.5 -4.5t13 -0.5t13 0.5q3 0 4.5 1t2 3t0.5 4.5v4.5q0 6 -2.5 9t-6 4t-8.5 1h-10h-14q-2 0 -3.5 -1.5zM153 129q1 2 2 3.5t3 1.5q3 0 6.5 -3.5t8 -9.5t9 -13t8 -14
t5.5 -13t2 -9q0 -5 -3 -8t-7.5 -5t-9.5 -3t-9 -2.5t-7 -4t-3 -6.5t2 -6.5t4 -5.5l4 -6t2 -6q0 -2 -0.5 -4t-2.5 -2q-5 0 -8 3.5t-4.5 8.5t-2.5 10.5t-1 8.5v4v5q2 2 3 3.5t1 4.5v2q-8 10 -14.5 20t-16.5 18v1v1q0 2 1 2.5t3 0.5h1q3 -1 5.5 -3t5 -4.5t4 -4.5t2.5 -4
q3 -2 4.5 -5.5t3.5 -7l4 -7t5 -5.5q7 0 11.5 1.5t8.5 7.5v0q0 6 -3 13.5t-7.5 15t-10 14.5t-9.5 12z" />
</svg>
