<?xml version="1.0" standalone="no"?>
<!DOCTYPE svg PUBLIC "-//W3C//DTD SVG 1.1//EN" "http://www.w3.org/Graphics/SVG/1.1/DTD/svg11.dtd" >
<svg xmlns="http://www.w3.org/2000/svg" xmlns:xlink="http://www.w3.org/1999/xlink" version="1.1" viewBox="-10 0 266 256">
   <path fill="currentColor"
d="M119 246q0 2 0.5 3t3.5 1t4 -2t1.5 -5l1 -6t0.5 -5v-53q2 -6 3 -10.5t2.5 -8t4.5 -6.5t8 -6q2 1 2.5 2l1 2t0.5 2t1 3q2 5 7 6.5t10 2.5t10 3.5t6 7.5q1 18 1.5 35.5t1.5 35.5l0.5 1t1.5 1h1q3 0 4.5 -2t2.5 -5v-5v-6.5v-7.5v-5v-12v-12t-1 -11.5t-2 -12.5q-3 -2 -4 -4.5
t-4 -4.5q-3 -1 -8 -2.5t-10 -3.5t-8.5 -4.5t-3.5 -5.5t5 -5.5t11 -5t12 -5.5t8 -6q2 -2 3 -5.5t1 -6.5t-0.5 -6.5t-0.5 -5.5q1 -13 2.5 -26t1.5 -26v-3q0 -1 -0.5 -5t-0.5 -8t-0.5 -8t-0.5 -5q-1 -2 -2 -3t-3 -1q-1 0 -3 1t-2 3v41q1 1 1.5 3.5l0.5 2.5v1q0 6 -0.5 12
t-1 12.5t-1.5 13t-2 11.5q0 1 -1.5 3.5t-1.5 3.5l-1.5 0.5t-3 1.5t-3 1.5t-2.5 1.5q-1 0 -3 1t-4 1.5t-4 1.5t-3 1h-1q0 -1 -1 -1.5l-1 -0.5v-16q0 -5 4 -5.5l8 -1t7.5 -1t3.5 -4.5v-2t-1 -1h-20l-2 -2l0.5 -1.5t0.5 -4t0.5 -4.5t0.5 -3t0.5 -2l0.5 -1l19 -4l0.5 -0.5
l0.5 -0.5v-1v-1q0 -1 -0.5 -1.5l-0.5 -0.5h-17q0 -1 -0.5 -3t-0.5 -5t-0.5 -5t-0.5 -3q1 -1 1.5 -2t0.5 -2h4.5t6 -0.5t5.5 -2t2 -3.5t-0.5 -3.5t-2.5 -1.5h-15v-22q0 -2 -2 -3.5t-4 -1.5q-1 0 -2 0.5t-1 3.5v21q0 2 -2 3.5t-4 1.5q-1 0 -3.5 0.5l-5 1l-5 1t-3.5 0.5
q-1 1 -1.5 2t-0.5 2l0.5 0.5t1.5 0.5h21l1 1l1 1v5q0 6 -1.5 9.5t-3 4.5t-4.5 1h-5q-2 0 -4.5 1t-4.5 4q1 2 3.5 3t6 1.5t5.5 0.5h4v5v2t-0.5 4.5t-1 4t-1.5 1.5h-13q-1 0 -2 1.5t-1 2.5q-1 0 -1 1t1 1l0.5 1l0.5 1h16v28q0 1 -2.5 3t-6.5 4.5t-7.5 4.5t-4.5 4
q-2 4 -2.5 10.5t-0.5 11.5q0 1 -0.5 6t-0.5 12t-0.5 14.5t-1 14.5t-0.5 12v7v4zM76 247q1 1 2 1h3t3.5 -1t2 -3t0.5 -4v-3q1 -24 1.5 -48t0.5 -48l0.5 -1t1.5 -1t3 -1.5t4.5 -2.5t5 -2.5t3.5 -1.5q4 -6 4.5 -11.5t0.5 -13.5v-2v-3.5v-3.5v-2q-1 -1 -2 -1.5l-1 -0.5h-1
q-3 0 -4 4.5t-1.5 10.5t-1 11t-0.5 7q-2 1 -3.5 1.5t-3.5 0.5t-2.5 -0.5t-0.5 -1.5q-1 -1 -1 -5.5t-0.5 -9t-0.5 -8.5v-5v-3t0.5 -4t0.5 -4.5t1 -3.5q0 -2 2 -3.5t5.5 -3t6.5 -3t5 -5.5q1 0 1.5 -1.5l0.5 -1.5v-27q0 -1 -1.5 -1h-1.5q-4 0 -5 2.5t-1 6v8.5q0 4 -1 8t-3 6.5
t-6 2.5q0 -4 -0.5 -9.5t-1 -11.5t0.5 -11t3 -9q2 -1 4.5 -3t5.5 -4t5 -4t2 -4t-2 -2.5t-4 -0.5t-3 0.5t-1.5 1t-2 1t-4.5 2.5q-4 3 -6.5 8t-4 11t-2 12.5t-0.5 11.5t-1 8.5t-3 3.5q-1 0 -3 -2t-3 -4.5l-2 -5t-1 -3.5v-3.5v-5.5v-4.5v-3.5q-1 -2 -2 -2.5t-3 -0.5h-2t-1 1v9
v10.5t2 10.5q0 4 3 6t6.5 3.5t6 2.5t2.5 2v42q0 3 -1.5 3.5t-3.5 0.5q-5 0 -7 -2.5t-2 -6.5v-8.5v-8.5t-1 -6.5t-4 -2.5q-2 0 -3.5 0.5t-0.5 2.5v3q0 1 -0.5 3.5t-0.5 3.5v3q0 5 0.5 9.5t2 8t4.5 6t8 3.5q1 0 3.5 0.5t3.5 1.5v5q0 22 -1 43.5t-1 43.5q-2 2 -1.5 5t0.5 5v7z
" />
</svg>
