<?xml version="1.0" standalone="no"?>
<!DOCTYPE svg PUBLIC "-//W3C//DTD SVG 1.1//EN" "http://www.w3.org/Graphics/SVG/1.1/DTD/svg11.dtd" >
<svg xmlns="http://www.w3.org/2000/svg" xmlns:xlink="http://www.w3.org/1999/xlink" version="1.1" viewBox="-10 0 266 256">
   <path fill="currentColor"
d="M163 247q0 2 0.5 3t2.5 1t4 -1t3 -3l0.5 -2t1 -4.5t1 -4.5t0.5 -3l0.5 -1.5t1 -2.5t1 -1.5t0.5 -1.5q4 -13 7.5 -26.5t5.5 -26.5q2 -3 4 -3h5q0 14 -3 28l-6 28v9q4 0 6 -4q5 -15 8.5 -32.5t3.5 -33.5q0 -3 -0.5 -6t-4.5 -3h-1q0 1 -1.5 1.5t-3 1.5t-3 1.5l-1.5 0.5h-0.5
h-0.5h-0.5h-0.5l-0.5 -0.5l-0.5 -0.5q-1 -1 -1 -3t-0.5 -4l-1 -4l-0.5 -2q-1 -1 -1.5 -2t-2 -2.5t-2 -2.5t-1.5 -2v-0.5v-1.5q0 -3 2 -3.5l4 -1t3.5 -1.5t1.5 -4t-1 -3.5t-3 -0.5h-3.5t-3.5 2l-3 3l-3.5 3.5t-2.5 3l-1 1.5v2q0 1 1.5 2.5l3.5 3.5t3.5 4t1.5 3q1 0 1.5 1
t0.5 2v1v1q-1 0 -2 1.5l-1 1.5l-2 -0.5t-3 -1.5l-1.5 -0.5l-1.5 -0.5q-1 0 -2 0.5l-1 0.5q-1 9 -3.5 19.5t-4.5 19.5q-1 3 -2.5 6.5l-3 7t-3 6.5t-1.5 7q0 1 0.5 2.5t2.5 1.5q3 0 5 -4t4 -10.5t3.5 -14.5t3.5 -14.5t4 -10.5t5 -4t3.5 1t0.5 3q0 9 -2 17.5t-4.5 17t-5.5 17
t-5 15.5q-2 2 -3 3.5t-1 4.5zM76 247q0 2 1.5 2h2.5h2.5t0.5 -3v-38q0 -16 -0.5 -32.5t-0.5 -32.5q0 -2 2 -3.5t4.5 -2t5 -0.5t4.5 -2q5 -6 6 -13.5t1 -15.5v-4.5t-4 -2.5h-0.5h-1.5q0 3 -0.5 7.5t-2 9.5t-4 9t-6.5 4h-2.5t-1.5 -2v-41q0 -2 3.5 -3t7.5 -2.5t7.5 -4
t3.5 -6.5v-21l-0.5 -1t-1.5 -1l-1.5 -0.5l-1.5 -0.5q-2 0 -2 4t-1 9t-3 9t-6 4h-3t-2 -2v-3v-2q0 -8 2 -13t5 -9t7.5 -7.5t8.5 -7.5q0 -1 0.5 -2t0.5 -2t-0.5 -3t-3.5 -1q-2 0 -4.5 2t-5.5 4.5t-5 4.5t-4 3q-4 4 -5.5 11.5t-2.5 14.5t-1.5 12t-2.5 5q-4 0 -6 -2t-2.5 -5.5
t-0.5 -7.5t-0.5 -7t-1.5 -5.5t-5 -2.5q-1 0 -2 0.5t-1 1.5v4.5v4.5q0 9 1.5 14t4 7t5.5 2.5t5.5 0.5t4 1t1.5 3v12t0.5 9.5t1 9.5t0.5 10q0 3 -1.5 3h-3.5q-5 0 -7 -2t-2.5 -5.5t-0.5 -7.5t-0.5 -7.5t-2 -6t-4.5 -2.5t-3.5 1.5t-0.5 3.5q0 7 2 14.5t3 13.5q3 4 8 5.5t9 2.5
q2 5 2.5 11t1 12.5t0.5 12.5v10v1q0 2 -0.5 8t-1 12.5t-0.5 12.5v8v2v1v3.5t0.5 5l1 5zM110 234q0 2 0.5 3t2.5 1q3 0 6 -5.5t5.5 -13.5t4.5 -17t3.5 -17.5t3 -14t2.5 -6.5q2 0 3.5 -0.5l3 -1t2.5 -1l1 -0.5l1 2q1 0 1 2v3q0 15 -5.5 29t-12.5 26v1q0 2 1.5 2h2.5h3t3 -1
q3 -7 5.5 -14.5t4.5 -16t3.5 -16.5t3.5 -15v-1v-2q0 -3 -2 -6t-5 -3q-2 0 -4 2t-4 2q-3 0 -4.5 -2t-2 -4.5t-1 -5.5t-1.5 -5t-2.5 -3.5t-1.5 -5.5q0 -2 1.5 -3.5t1.5 -4.5q0 -1 -2 -2.5t-3 -1.5q-2 0 -3.5 2t-2.5 4.5t-1.5 5t-0.5 3.5q1 1 2 2.5t2 4t2.5 4t1.5 2.5t1 2l1 1
v1q0 2 -1.5 2.5t-2.5 0.5q-4 0 -7.5 -2t-6.5 -2l-0.5 0.5t-0.5 1.5q-1 8 -2 15t-3.5 14t-4.5 14l-4 14v1q0 1 0.5 1.5t2.5 0.5q3 0 5 -3t3 -7t1.5 -8t1.5 -7l0.5 -3t1.5 -7t2 -7.5t2 -4.5q1 -3 1.5 -3h2.5q3 0 5 1t2 5q0 8 -2 16.5t-5 16.5t-6 16.5t-6 15.5v1v2zM148 118v1
q0 2 1 2t2.5 -1.5l2.5 -2.5q0 -1 1 -4.5t2 -7.5t2 -7.5t1 -4.5q2 -6 2 -10t1 -7.5t3.5 -6.5t7.5 -5q1 0 1 -0.5v-0.5l0.5 0.5l0.5 0.5l1.5 0.5l1.5 0.5v3v3v3v3v20t-3 20l1 2q1 0 2.5 1l1.5 1q1 -1 2 -5l2.5 -10t2 -13t1 -13.5t1 -11.5t0.5 -7q0 -5 -3 -6t-6 -1t-4.5 1
t-3 2.5t-3.5 3t-5 1.5h-1q0 -1 -0.5 -3t-0.5 -4.5t-0.5 -4.5t-0.5 -3q-1 -3 -5 -5.5t-6 -3.5v-2v-1q0 -3 2.5 -4.5t6 -4t6.5 -5.5t3 -9q-4 0 -8 2.5t-7.5 6t-6.5 7t-5 6.5q-1 1 -1 2v1q0 2 2.5 4t5 5t5 6.5t2.5 9.5q0 5 -6 5q-4 0 -7.5 -2t-7.5 -2q-3 0 -6 2
q-3 10 -4.5 19.5t-5.5 19.5v1v1q1 0 1.5 1.5l0.5 1.5h1q4 0 6.5 -5t3.5 -11.5t2 -12.5t4 -8q2 0 4.5 0.5t5 1.5t4 2.5t1.5 4.5q0 9 -2.5 18.5t-2.5 18.5z" />
</svg>
