<?xml version="1.0" standalone="no"?>
<!DOCTYPE svg PUBLIC "-//W3C//DTD SVG 1.1//EN" "http://www.w3.org/Graphics/SVG/1.1/DTD/svg11.dtd" >
<svg xmlns="http://www.w3.org/2000/svg" xmlns:xlink="http://www.w3.org/1999/xlink" version="1.1" viewBox="-10 0 266 256">
   <path fill="currentColor"
d="M73 249q1 2 2 2h2q4 0 5 -2.5t1 -6.5q0 -19 -1.5 -38.5t-1.5 -38.5v-4v-7v-5.5v-4.5q0 -5 2.5 -7t6 -3.5l7 -3t4.5 -5.5t1.5 -7t1 -5t0.5 -4.5v-5.5v-4.5t-3 -2.5q-2 0 -3.5 2t-2 5t-0.5 5.5t-1 3.5q0 2 -0.5 3.5l-1 3l-1 3l-0.5 1.5h-10v-48q0 -1 4 -3t8.5 -5.5t8.5 -9
t4 -14.5q0 -3 -1 -6t-4 -3t-4 4t-1.5 9.5t-2 9.5t-6.5 4q-2 0 -3.5 -0.5t-2.5 -3.5v-3.5v-3.5v-4v-3q0 -8 4 -12.5t8 -6.5l7 -3.5t3 -4.5l-1.5 -1.5t-2.5 -1.5v0q-4 0 -7.5 1t-7.5 3.5t-7 5.5t-5 6q0 1 0.5 4.5t0.5 7.5t-0.5 7.5t-0.5 5.5q0 1 -0.5 3l-0.5 2h-9l-0.5 -3.5
t-1.5 -7.5t-3 -7.5t-6 -3.5q-3 0 -3.5 1.5t-0.5 3.5q0 8 1 13t4 8.5t7.5 5.5t11.5 4v48q0 1 -1 1.5t-2 0.5h-2h-1h-1h-2.5t-2.5 -0.5t-1 -1.5v-23q0 -2 -2 -3t-4 -1q-3 0 -4 3t-1 6q0 9 0.5 15t3 9.5t7 5.5t13.5 2q1 28 2.5 57t0.5 57zM100 220q0 1 1 2t2.5 1.5t3.5 0.5h3
q12 0 23.5 -1l23 -2t23.5 -2t24 0q2 -1 3.5 -2t1.5 -4q0 -1 -1 -2t-2.5 -1h-3.5h-2q-9 0 -17.5 1t-17.5 1q-6 0 -7 -3t-1 -9v-5t2 -5q5 0 12 -1.5t13.5 -4t11 -7t4.5 -12.5v-35q-1 -3 -1.5 -9.5t-0.5 -14.5v-16.5t-0.5 -15.5t-1.5 -11t-4 -4t-4 2.5t-1 5.5q0 9 0.5 19.5
t1.5 21l2 21t1 19.5v1v0l-3 16.5t-4 9t-9 4t-16 0.5v-19q0 -3 3 -4.5t6.5 -3.5t6 -5.5t2.5 -11.5l-0.5 -3t-0.5 -4q-1 -2 -3 -7.5t-4 -11.5t-4 -11t-2 -7q0 -1 -1 -2.5l-2 -3t-1.5 -3t-0.5 -2.5q-1 -5 2.5 -12l7.5 -15t7.5 -15.5t3.5 -12.5q0 -3 -0.5 -4t-3.5 -1q-4 0 -7 6
t-5.5 13.5l-4.5 13.5t-4 6q-3 0 -4.5 -3t-2 -7.5t-1.5 -9.5t-2 -9.5t-3 -7t-5 -2.5h-3.5t-1.5 3q0 6 2.5 12.5t6 14t6.5 15t3 13.5q0 3 -0.5 7t-4.5 6q-3 12 -5.5 24.5t-2.5 25.5v7q0 1 2.5 2t4.5 1.5l4 1t2 2.5v21l-0.5 1t-1.5 1l-2 1l-2 1h-1q-2 0 -4.5 -0.5t-5 -1.5
t-5 -2.5t-3.5 -3.5q0 -1 -0.5 -6.5t-0.5 -11t-0.5 -10.5t-0.5 -7v-5q0 -15 2 -30.5t2 -31.5q0 -4 -4 -4q-3 0 -4 1t-1.5 3t-0.5 4v4q-1 2 -1 6t-0.5 8t-0.5 7v4v31v31q1 13 9.5 19.5t20.5 4.5l3 3l0.5 2.5t0.5 3.5q0 8 -3.5 11.5t-9 4.5t-12 1t-12 -0.5t-9 0.5t-3.5 5z
M143 139q0 -2 1 -8.5t2.5 -13.5t3.5 -12.5t4 -5.5q1 0 1 0.5v0.5q1 0 1.5 0.5l0.5 0.5q3 6 4.5 10l3 8t2.5 8.5t2 11.5q-1 2 -2.5 3.5t-2.5 3.5h-4h-3h-5q-2 0 -4 -0.5t-3.5 -2t-1.5 -4.5z" />
</svg>
