<?xml version="1.0" standalone="no"?>
<!DOCTYPE svg PUBLIC "-//W3C//DTD SVG 1.1//EN" "http://www.w3.org/Graphics/SVG/1.1/DTD/svg11.dtd" >
<svg xmlns="http://www.w3.org/2000/svg" xmlns:xlink="http://www.w3.org/1999/xlink" version="1.1" viewBox="-10 0 266 256">
   <path fill="currentColor"
d="M174 129q8 0 9.5 4t2.5 12q0 5 0.5 11.5t0.5 13.5t0.5 14t1.5 13q0 3 1.5 11.5t3 18t4 17t4.5 7.5q1 1 4.5 1h4.5q0 -5 -1.5 -11l-3 -12t-3.5 -12t-3 -11q-1 -11 -2.5 -20t-2 -17.5t-0.5 -18t1 -19.5q-1 -5 -4.5 -8t-7.5 -3.5t-8.5 0t-7.5 0.5l-3 -2v-21l3 -8h36l1 -1.5
t2 -2.5v-0.5v-0.5v0q0 -1 -1.5 -2.5l-1.5 -1.5h-2.5t-3.5 0.5t-3.5 1t-2.5 0.5h-12t-19.5 0.5t-19.5 1t-12 0.5q-1 0 -1.5 1t-0.5 2l0.5 0.5t1.5 0.5q2 2 5.5 2.5t7 0.5t7 -0.5t6.5 -0.5l1 4v26l-1 3v41q0 3 -2 3.5t-4 0.5q-1 0 -2.5 -0.5t-1.5 -1.5q-3 -15 -4 -29.5
t-1 -28.5q0 -2 -1 -2h-3q-1 0 -1.5 0.5t-0.5 3.5v45q0 9 4 14t10 7.5t12.5 3t12.5 0.5q2 0 4 -1t2 -4q0 -2 -2 -2.5t-5 -0.5h-4.5t-2.5 -3v-2t-0.5 -3.5t-0.5 -3.5v-2v-7q0 -4 0.5 -7t0.5 -6t1 -7q2 -2 4 -2h4zM57 236q0 3 1 3h3q4 0 5 -1t2 -4v-23.5t0.5 -24.5t0.5 -24
t1 -23q1 -2 4 -2.5l6 -1t6 -1.5t3 -5q2 -8 2 -14v-13v-3v-4t-1 -4t-3 -2q0 1 -0.5 3.5t-2.5 3.5v2.5t-0.5 5t-0.5 5v2.5q0 2 -0.5 4.5l-1 5t-2 4.5t-3.5 2t-3.5 -1t-2.5 -3v-13v-16t1 -16q1 0 2 -1t2 -1t3 -0.5l4 -1t4.5 -1l2.5 -0.5q3 -1 4 -4.5t1.5 -7.5t0 -8t-0.5 -7v-3
v-4.5t-1 -4t-4 -1.5l-0.5 0.5l-0.5 0.5q-2 7 -2 15v13q-4 6 -9 6h-2.5t-1.5 -2v-26q0 -7 3.5 -10.5t8 -6t8 -4.5t3.5 -4q-1 -3 -3 -3.5t-4 -0.5q-9 0 -14 4.5t-7.5 10.5t-3 13t-1 13t-1 10t-2.5 4h-2t-1 -2l-3 -31q-1 -1 -2.5 -4t-2.5 -2l-3 3t-2 3v4v4v8t0.5 8t2 7.5
t3.5 6.5q2 2 4 2.5t3.5 1t2.5 2t1 4.5v4v8t-0.5 12.5t-0.5 12v7.5q0 1 -1.5 1.5l-1.5 0.5q-1 0 -2.5 -1.5t-2.5 -3.5t-1.5 -3.5l-0.5 -1.5v-27l-1 -1.5t-2 -1.5h-1h-1l-1.5 1.5l-1.5 1.5v3v4v4v3v11.5t1.5 10.5t5 8t9.5 4v89q0 1 -0.5 4.5t-0.5 4.5zM94 236q1 0 2 1.5t2 1.5
v0h1q1 0 2 -2q0 -1 0.5 -2.5l1 -3l1 -3l0.5 -1.5l11 -88v-8q0 -1 0.5 -2.5t0.5 -3.5t0.5 -3.5l0.5 -1.5q0 -2 0.5 -7t0.5 -11.5t0.5 -14.5t1 -15t0.5 -12v-6q1 -11 6 -16t12.5 -7t16.5 -1.5t18 -0.5h4q7 0 12.5 1t11.5 1h2.5h1.5q1 0 1.5 -1.5t0.5 -2.5v-1v-1
q-1 -4 -3.5 -4.5t-6.5 -0.5h-1q-1 0 -5 0.5t-9 0.5t-9 0.5t-5 0.5h-13.5t-17 1t-15.5 4.5t-8 10.5q-1 2 -1 6.5t-0.5 9.5t-1 9.5t-0.5 5.5q-1 4 -0.5 6.5t0.5 5t-0.5 4.5t-1.5 5q0 3 -0.5 10t-1 15t-1 15t-0.5 9q-1 4 -0.5 9.5t-1.5 10.5q-2 19 -5 38t-5 39zM133 58l0.5 0.5
l0.5 0.5l0.5 1l0.5 1h3h5.5h5.5h3h12t10 -0.5t10.5 -1t12.5 -0.5q1 -1 1.5 -2t0.5 -2v-1q0 -3 -2.5 -3.5t-4.5 -0.5q-11 0 -23 1t-23 1h-2t-4.5 0.5t-4.5 2t-2 3.5z" />
</svg>
