<?xml version="1.0" standalone="no"?>
<!DOCTYPE svg PUBLIC "-//W3C//DTD SVG 1.1//EN" "http://www.w3.org/Graphics/SVG/1.1/DTD/svg11.dtd" >
<svg xmlns="http://www.w3.org/2000/svg" xmlns:xlink="http://www.w3.org/1999/xlink" version="1.1" viewBox="-10 0 266 256">
   <path fill="currentColor"
d="M68 242q0 4 1 6t5 2t5 -3.5t1 -6.5v-29q0 -16 -0.5 -31.5t-0.5 -31.5q0 -5 2 -6t5.5 -1t6.5 -1t5 -5t3 -7t1.5 -6t0.5 -6v-8v-2v-4v-4v-2l-3 -1.5t-2 -0.5q-3 0 -4 3t-1 7v9t-1 9t-3 7t-7 3h-2q-3 -9 -4 -19.5t-1 -19.5q0 -6 3 -8.5t6.5 -4.5l7 -4t4.5 -7t2 -8t1 -5
t0.5 -4.5t0.5 -6.5v-4q0 -4 -1 -5q0 -1 -1 -1.5t-3 -0.5h-2v10q0 6 -1 12t-3 10.5t-8 4.5q-2 0 -3 -1.5t-1 -3.5v-2v-2q0 -1 0.5 -4.5t0.5 -7t0.5 -6.5t0.5 -4q1 -2 4 -6t6.5 -8t6 -6.5t2.5 -3.5q0 -2 -1 -3t-4 -1q-4 0 -9 3.5t-8.5 8t-5.5 10.5t-2 11q-1 2 -0.5 5.5
t0.5 7.5t-0.5 7.5t-1.5 6.5h-0.5h-0.5q-5 0 -6.5 -5t-2 -12t-1.5 -12t-5 -5q-3 0 -3.5 2t-0.5 4q0 8 1 13t3 13q0 1 0.5 1.5l0.5 0.5q1 1 2 3.5t2 3.5q3 3 5 3q3 0 5 0.5t3 3t1 10.5v15v16q0 1 -1 3t-3 2q-3 0 -5 -4t-2 -6q0 -1 -0.5 -4t-0.5 -6t-0.5 -5.5t-0.5 -3.5
q-1 -2 -2 -3t-3 -1q-1 0 -2 1t-2 3q0 1 -0.5 3t-0.5 3q0 3 0.5 8t2 10t4 9t6.5 4q3 1 6.5 0.5t5.5 3.5v31q0 17 -1.5 33.5t-1.5 33.5zM202 247q1 1 2.5 2t3.5 1q3 0 4.5 -3t1.5 -5q0 -4 -1.5 -6.5t-2.5 -6.5q-2 -7 -4.5 -16t-5.5 -18t-7 -17t-10 -14q-1 0 -4.5 -1t-7 -1.5
t-6.5 -1t-5 -1.5q-4 0 -8.5 -0.5t-7.5 -1.5t-5.5 -3.5t-2.5 -7.5q0 -7 4 -10.5t10 -5t13 -2t14.5 -1t13 -1.5t8.5 -4q1 -1 1.5 -3.5t0.5 -5.5v-5v-2v-12q-5 -7 -12 -8.5t-15 -1.5h-2q-3 0 -9.5 0.5t-14 0.5t-14 0.5t-9.5 0.5l-0.5 0.5t-1.5 0.5v1v1q1 1 1.5 3l0.5 2h26
l0.5 2t0.5 5.5t0.5 7t0.5 6.5q0 4 -2 6t-5 3.5t-6.5 3t-6 3.5t-4.5 6t-2 10q0 3 0.5 6.5t1.5 6.5t3.5 5.5t5.5 2.5l35 3l4 4l2 3t2 4q1 1 2 2.5l2 3l2 3l1 1.5l0.5 2.5t1.5 5t1.5 5t1.5 4.5q0 1 0.5 3.5l1 5l1 5t0.5 3.5t1 4l2 6t2 6.5t1 4.5zM162 117v-4v-3v-3v-5.5t1 -5
t2 -2.5h18q4 0 5 4t1 7q0 4 -1.5 7t-4.5 4.5t-6.5 2.5t-6.5 1q-2 0 -4.5 -0.5t-3.5 -2.5zM162 19q-1 0 -6 0.5t-10.5 2t-9.5 4t-4 5.5v26q0 2 3 3t7.5 2t8.5 1.5t5 0.5q6 0 12 -1t10.5 -4t7 -8t2.5 -13q0 -5 -2.5 -9t-6.5 -6t-8.5 -3t-8.5 -1zM143 41v-3.5v-3.5
q3 -2 7.5 -3.5t9.5 -1.5q2 0 5 1t5.5 2.5t4.5 3.5t2 5q0 4 -2.5 7t-6 4.5t-7.5 2t-6 0.5q-8 0 -10 -4.5t-2 -9.5z" />
</svg>
