<?xml version="1.0" standalone="no"?>
<!DOCTYPE svg PUBLIC "-//W3C//DTD SVG 1.1//EN" "http://www.w3.org/Graphics/SVG/1.1/DTD/svg11.dtd" >
<svg xmlns="http://www.w3.org/2000/svg" xmlns:xlink="http://www.w3.org/1999/xlink" version="1.1" viewBox="-10 0 266 256">
   <path fill="currentColor"
d="M165 206q0 6 3.5 13.5t8.5 14.5t11 12t11 5q2 0 3.5 -1t1.5 -4q0 -5 -4.5 -9t-9.5 -8.5t-9.5 -10.5t-4.5 -17q0 -4 2 -7.5t5 -6.5t5.5 -6.5t2.5 -7.5t-2.5 -6t-4.5 -3.5t-4.5 -3t-2.5 -4.5q0 -4 3 -5.5t6.5 -2.5t6.5 -3t3 -7v-3l-0.5 -1t-1 -2.5t-0.5 -2.5v-1q1 -3 5 -5
t7 -2q-1 -2 -2.5 -3.5t-2.5 -3.5q-1 0 -3.5 0.5l-5 1t-5 0.5h-3.5h-2h-2q-1 0 -4.5 -0.5t-4.5 -1.5q-1 0 -1.5 -2t-0.5 -3v-2t0.5 -4t0.5 -4.5t1 -3.5q0 -1 1 -4.5t4 -4.5q5 0 8.5 3.5t7 8t7.5 8t8 3.5q2 0 3 -1.5t1 -3.5v-2q-3 -3 -9 -7l-12 -8t-10 -8t-4 -7t2 -4.5t5.5 -2
t7.5 -1.5t7 -4.5t5.5 -9t2.5 -15.5q0 -2 -1 -3.5t-4 -1.5v0q-1 0 -2 0.5t-2 0.5q0 1 -1 1.5l-1 0.5v18q0 1 -2 2.5t-5 3t-5.5 2t-3.5 0.5h-2t-1 -2v-38l-1 -0.5l-1 -0.5q-1 -1 -3 -1.5l-2 -0.5h-29q-2 0 -2.5 1t-0.5 2q0 3 2 4h9q5 0 9 1t6.5 4t2.5 9q0 5 -0.5 9.5
t-1.5 10.5q-1 2 -2 2h-3h-2h-2q0 -1 -1.5 -2.5l-3 -3l-3 -3t-1.5 -2.5q-2 -1 -2 -3t-0.5 -4.5t-1 -4t-2.5 -1.5h-1q-1 0 -1.5 0.5t-0.5 1.5v2.5v3.5q0 9 4.5 14t10 7.5t10 3.5t4.5 2q0 4 -3.5 6.5t-8 5t-10 4.5t-10.5 5t-8 6.5t-3 8.5q6 0 10.5 -3t9 -6.5t9 -6.5t10.5 -3v4
v5.5v5.5v4t-0.5 3.5l-0.5 2.5h-10q0 4 -2 6t-5 3.5t-7 3t-7 3.5t-5.5 5.5t-2.5 9.5v1q1 3 2.5 5.5t3.5 5t3 5t1 5.5q0 1 -1 2.5t-3 3.5t-3.5 4t-2.5 3q-2 5 -5.5 12.5t-6 15.5t-4.5 15t-2 13q0 2 2 3.5t4 1.5t3.5 -4.5t3.5 -11t3.5 -14.5t3.5 -15.5t5 -13t6 -7.5h1h1
q2 3 3 5.5t2.5 5t3.5 4t5 1.5q2 0 3 -0.5t1 -3.5l-0.5 -1.5t-1 -2t-1.5 -2t-2.5 -3.5l-3 -4t-1.5 -3q0 -3 2 -5.5t4.5 -4t5.5 -3t5 -1.5q3 0 6 2t5 5t3.5 6.5t2.5 6.5q-5 6 -9.5 14.5t-4.5 16.5zM69 231v6t4 3q3 0 4.5 -1t2.5 -4q2 -26 2 -52.5t2 -52.5l-0.5 -1t0.5 -1
l1.5 -1.5l1.5 -1.5q8 -4 12.5 -5.5t7 -3.5t4 -7t3.5 -15v-1.5v-0.5q0 -3 -1.5 -3.5t-3.5 -0.5q-4 0 -5 2t-1.5 5t-0.5 6t-1.5 6t-5 5t-9.5 2v-40l1 -0.5t2 -0.5l2.5 -0.5t5 -1.5t4.5 -1.5t3 -0.5q2 0 3 -1.5t1.5 -3.5t1 -4.5t0.5 -4.5q1 -3 2 -4.5t1 -3t0.5 -2.5t0.5 -4
q0 -2 -1 -4t-3 -2q-5 0 -6 4t-2 9.5t-3 10t-9 4.5q-3 0 -3.5 -3.5t-0.5 -5.5q0 -12 4 -18t9 -9.5t9 -5t4 -4.5q0 -4 -1.5 -4.5t-4.5 -0.5t-7.5 2.5t-9 5.5t-8 6.5t-3.5 6.5v24q0 2 -2.5 4t-3.5 2q-2 0 -3.5 -1.5t-2.5 -3.5t-1.5 -4t-1.5 -3v-4v-5v-5.5v-3.5t-1 -1.5t-2 -0.5
q-2 0 -3 0.5t-1 1.5t-0.5 2.5t-0.5 2.5v4v1v6q0 2 0.5 4t0.5 4t1 6q1 2 3.5 4.5t6 4t6 2l2.5 0.5v41q-1 0 -3.5 0.5t-4.5 0.5t-3.5 -1t-1.5 -4q0 -1 -0.5 -4t-0.5 -6t-0.5 -5.5t-0.5 -3.5t-1 -2l-2 -2h-1q-3 0 -5 3.5t-2 6.5q0 8 1.5 13t4.5 8t6.5 4t6 2.5t4.5 3.5t2 6
q0 3 -0.5 5t-1.5 5q0 11 -0.5 22t-1 21.5t-1 21.5t-0.5 21zM134 140q0 -3 1.5 -5t4.5 -3t6 -1.5t6 -0.5q1 0 2.5 2t2.5 5t1.5 6t0.5 4l-1 0.5t-1 1.5l-2 1t-4.5 2t-4.5 2t-2 2l-1 0.5t-1 1.5v0q-3 0 -4.5 -2.5t-2.5 -5t-1 -5.5v-5zM162 130q0 -3 2 -4.5t4.5 -2t5.5 -0.5h5
q4 0 4.5 3.5t0.5 5.5q0 6 -3 10t-9 4q-3 0 -4.5 -2l-3 -4t-2 -5t-0.5 -5z" />
</svg>
