<?xml version="1.0" standalone="no"?>
<!DOCTYPE svg PUBLIC "-//W3C//DTD SVG 1.1//EN" "http://www.w3.org/Graphics/SVG/1.1/DTD/svg11.dtd" >
<svg xmlns="http://www.w3.org/2000/svg" xmlns:xlink="http://www.w3.org/1999/xlink" version="1.1" viewBox="-10 0 266 256">
   <path fill="currentColor"
d="M148 207q0 4 1 11.5t2.5 14.5t4 12.5t6.5 5.5q5 0 5 -5q0 -3 -1.5 -7t-3.5 -7.5t-3.5 -8t-1.5 -8.5q0 -9 4.5 -14.5t10.5 -10t12.5 -9.5t10.5 -12q3 -6 4 -13.5t1 -14.5q0 -15 -5.5 -28.5t-16.5 -23.5q-2 -1 -4.5 -2.5l-5 -3t-4.5 -3.5t-2 -5v-53q0 -1 0.5 -3.5t1.5 -3.5
v-1q0 -2 -2 -3.5t-4 -1.5h-2.5t-1.5 2v67q0 2 -1.5 4t-4 3.5t-5 2.5t-3.5 3q-1 0 -2.5 2.5t-3.5 4.5l-4 4l-3 3l-3.5 10.5t-2 9.5t-0.5 10v11v3v5v6v3q1 2 1.5 5.5l1 7t0.5 6.5v4t1.5 2t1.5 2q3 0 4 -1t2 -2.5t1 -3v-3.5q0 -9 -2.5 -17.5t-2.5 -16.5v-5q1 0 2 -1l1 -1h1
q4 0 8 4t7.5 9t6.5 8.5t4 3.5q3 0 3 -1.5v-2.5q0 -8 -4 -13t-9 -8.5t-10 -6t-7 -5.5v-3v-3v-3t0.5 -4t1.5 -3.5t3 -1.5q1 0 3 1t4.5 1.5t4 1.5t2.5 1q7 2 10.5 4.5t5 6t3 8t3.5 9.5q1 4 5 4q2 0 2.5 -1t0.5 -3v-2v-1l-1 -2.5t-2 -5.5l-2 -6t-1 -5q-2 -3 -7 -6.5t-10 -6
t-9 -4t-4 -2.5q0 -5 3 -7t7 -2q9 0 15.5 4.5t11 12t6.5 15.5t2 16v10.5t-1 10.5q-2 6 -5.5 9.5t-8 7t-9.5 6t-9 6t-6.5 7.5t-2.5 10zM72 238q0 2 1 3t4 1t5 -6.5t2.5 -14t1 -15.5t1.5 -12q0 -1 0.5 -5l0.5 -4v-46q0 -2 1.5 -3t3.5 -1.5t4.5 -1t3.5 -0.5q4 -1 6 -5.5
t3.5 -9.5t1.5 -10v-9q-5 0 -6.5 4.5t-2.5 9.5t-3.5 9.5t-9.5 4.5v-40q0 -1 2 -2t4.5 -1.5t4.5 -1t3 -1.5q2 -1 4 -4.5t3 -7.5t1.5 -8t0.5 -6v-7l-1 -0.5t-2 -0.5h-1q-5 0 -5.5 4t-0.5 8.5t-2 8.5t-9 4v-4.5t-0.5 -7.5t-0.5 -7v-5q0 -1 0.5 -4t1.5 -3q1 -3 4 -4.5l6 -3
t5 -3.5t2 -5q0 -2 -1 -3t-3 -1q-6 0 -12 2t-9 7q-3 4 -3 8.5v9.5q0 1 -0.5 2t-0.5 3t-0.5 3t-0.5 2v2.5v4.5v4v3l-3 3l-2.5 -1.5t-3.5 -3.5t-1.5 -5.5t-1 -7.5t-1.5 -7t-5 -3q-5 0 -5 6q0 12 4.5 19.5t15.5 11.5q1 1 2 1.5l1 0.5q2 3 2 7v7v6q0 5 -0.5 9.5t-1.5 8t-3 3.5
q-5 0 -7.5 -3t-3.5 -7.5t-1 -9v-7.5h-2h-2q-2 0 -3 1t-1.5 2.5t0 4t0.5 3.5q0 9 1.5 13.5t4 7t6 3t6 1.5t4 3t1.5 7q0 16 -1.5 34t-2.5 35q-1 5 -2.5 11t-1.5 12zM129 51q0 6 -2 10.5t-4 8.5t-4 7.5t-2 6.5q6 0 10.5 -3.5t6.5 -8.5t3 -10.5t1 -10.5v-6t-1 -8.5t-2.5 -8
t-3.5 -3.5t-3.5 1t-1.5 3q0 6 1.5 11t1.5 11zM178 49q0 3 0.5 9t2.5 11.5t4.5 9.5t6.5 4q2 0 3.5 -1.5t1.5 -3.5v-1q-1 -1 -2.5 -4l-3 -6t-2.5 -5.5t-2 -3.5q-1 -3 -1.5 -4t-0.5 -3q0 -7 2.5 -13.5t2.5 -12.5v-5t-3 -2q-4 0 -6 4t-2.5 9.5t-0.5 10.5v7z" />
</svg>
