<?xml version="1.0" standalone="no"?>
<!DOCTYPE svg PUBLIC "-//W3C//DTD SVG 1.1//EN" "http://www.w3.org/Graphics/SVG/1.1/DTD/svg11.dtd" >
<svg xmlns="http://www.w3.org/2000/svg" xmlns:xlink="http://www.w3.org/1999/xlink" version="1.1" viewBox="-10 0 266 256">
   <path fill="currentColor"
d="M74 244q2 4 6 4l0.5 -0.5l0.5 -0.5l5 -10v-87q6 -3 10 -6t6.5 -7t3.5 -9t1 -12v-10q-1 -2 -2 -2h-2q-2 0 -3 2t-1.5 5.5t-1 7.5t-1 7.5t-2 7t-3.5 4.5q-1 0 -2.5 -1t-2.5 -1v-43q0 -1 1 -3t2 -2q1 -1 3 -2t4 -2.5t3.5 -3t2.5 -1.5q3 -5 4 -11t1 -11q0 -3 -1 -6.5t-3 -3.5
h-0.5h-0.5l-1.5 1.5t-1.5 2.5v8q0 5 -1 8.5t-3.5 6.5t-6.5 3q0 -1 -0.5 -2.5t-0.5 -3.5v-4v-2v-13.5t1 -12t4.5 -10t9.5 -7.5q2 0 5 -1.5t4.5 -2.5l1.5 -1v-7q-6 0 -12 2.5t-12 6.5q-7 3 -9.5 10t-3 15t0 16t-0.5 15q0 4 -1.5 5t-4.5 1q-4 0 -6 -4t-2.5 -9t-0.5 -10t1 -7
q-1 -3 -3 -3h-2h-3t-2 3v4.5v4.5q0 9 1 14t3 7.5t6.5 4t11.5 3.5l1.5 1.5l0.5 0.5v12v8v7.5t-0.5 7.5t-1.5 10q0 2 -2 2h-2q-5 0 -7 -2.5t-2.5 -6t-0.5 -8v-8t-0.5 -6t-3.5 -2.5t-4.5 1.5t-2.5 4.5t-1 6v5q0 9 2 14t5.5 7.5t7 3t6.5 1.5t5 2t2 4v4.5t-2 3.5q1 17 0 32t-1 31
v3v3t0.5 4.5t0.5 5v3.5zM157 148q0 8 -2.5 11.5t-6.5 5.5t-9 3.5t-9 5.5l-1.5 1.5l-0.5 0.5v34q0 3 1.5 4.5t3.5 2.5t4.5 2t3.5 2h10h8t7 -0.5t7.5 -1t9.5 -0.5q9 -4 11 -11t2 -16q0 -13 -2.5 -19t-5.5 -8t-7.5 -2h-8t-5.5 -2.5t-2 -10.5t2 -11t5.5 -4l7 -2t7 -3.5t5.5 -9
t2 -19.5q0 -4 -0.5 -5t-3.5 -1t-4.5 5t-2.5 11t-3 11t-8 5q-1 0 -3.5 -1t-3.5 -3v-3v-4.5v-5.5v-3v-6v-7t0.5 -7t1.5 -6q0 -2 1.5 -3.5l1.5 -1.5h18l0.5 -1l0.5 -1v-1v-1q0 -1 -1 -1.5t-2 -0.5h-43q-3 0 -3.5 1t-0.5 2t0.5 2.5t1.5 1.5h11l3 4v2t0.5 4.5t0.5 3.5
q0 9 -0.5 16t-1.5 16q-1 4 -1 5t-2 1q-7 0 -10 -5t-4.5 -11t-2.5 -11t-4 -5h-2t-2 1v7q0 11 2 17t5.5 8.5t7 3.5t7 1t6 0.5t3.5 3.5v4.5v4.5zM134 194q0 -8 3.5 -12t8.5 -6t11 -2.5t11 -0.5h12q4 2 5 8t1 11q0 7 -2 11t-6 5.5t-9 1.5h-10h-7.5t-6.5 -2t-5.5 -4.5t-5.5 -7.5
v-1v-1zM115 75l3 4l1.5 -0.5t3 -1.5l3 -2t2.5 -1q4 -3 8.5 -9t8.5 -12t7.5 -12t6.5 -10l1.5 -1.5t1.5 -0.5h2q0 1 1.5 2.5t3.5 3t3.5 3l2.5 2.5l1.5 1.5l1.5 1.5q2 3 5.5 9t7 11.5t7.5 9.5t7 4q2 0 4 -0.5t2 -3.5v-2t-1 -1q0 -1 -2 -3.5t-4.5 -5.5t-4.5 -5.5t-3 -3.5
l-1.5 -1.5l-1.5 -1.5q-5 -7 -10 -15.5t-11 -13.5q-3 -1 -5.5 -1.5t-4.5 -0.5q-5 0 -8.5 3.5t-6 8.5t-4.5 10t-5 9q-6 7 -11.5 13.5t-11.5 12.5z" />
</svg>
