<?xml version="1.0" standalone="no"?>
<!DOCTYPE svg PUBLIC "-//W3C//DTD SVG 1.1//EN" "http://www.w3.org/Graphics/SVG/1.1/DTD/svg11.dtd" >
<svg xmlns="http://www.w3.org/2000/svg" xmlns:xlink="http://www.w3.org/1999/xlink" version="1.1" viewBox="-10 0 266 256">
   <path fill="currentColor"
d="M118 241q0 1 0.5 2.5l1 3t1.5 3t2 1.5q2 0 4.5 -2.5t2.5 -4.5q0 -10 -1 -20t-1 -20q0 -7 -0.5 -15.5t-0.5 -17.5t2 -17t7 -14q6 -8 12.5 -15.5t12.5 -15.5q3 -3 4 -7t4 -6q1 0 2.5 0.5l3 1t2.5 0.5h2q10 0 15.5 -2t8 -6t3 -10.5t0.5 -16.5v-6t-1 -7.5t-3 -6t-5 -3.5
l-26 -3l-1 -0.5t-1 -1.5q-2 -5 -2 -10q0 -6 1 -11q-1 -2 -2 -2h-3h-3t-2 2v19q0 2 -1 3.5t-2 1.5q-10 1 -16 2.5t-9.5 4.5t-5 9.5t-3.5 15.5v2v1q0 4 1.5 9t2.5 9q1 3 4 4t6 1.5t6.5 0t5.5 -0.5h3t2 -2q0 -3 -3.5 -3.5l-7 -1t-7 -1.5t-3.5 -5v-24q0 -7 5 -10t11.5 -4
t13 -0.5t9.5 0.5h13t8.5 2t5 6t1.5 13q0 5 -0.5 9.5t-3 8t-6.5 5.5t-10 2h-1l-2.5 -0.5t-3.5 -0.5q-1 -1 -1.5 -4.5t-0.5 -5.5q0 -1 1.5 -4t2.5 -4h3q3 0 6.5 -0.5t5.5 -2t2 -3.5t-1 -2.5t-3 -0.5h-1h-8t-12.5 0.5t-12.5 0.5h-8l-1.5 1.5t-0.5 1.5t0.5 2.5t1.5 1.5h16
l0.5 2.5t0.5 5.5v6v5q0 6 -2.5 11t-7 9.5l-9.5 9.5t-9.5 10.5t-7.5 11.5t-4 14q0 3 -0.5 11t-1 17t-1 16.5t-0.5 10.5v2v4v5v4v3v4v5v3zM157 177q-1 4 -0.5 11t1.5 15t3 16t5.5 15t8 11t10.5 4h4t3 -3q-14 -12 -21.5 -27.5t-7.5 -34.5q0 -3 3.5 -4.5t8 -2t9.5 -1.5t8 -2
q0 -1 2 -2t4 -2.5l4 -3t3 -2.5l2.5 -2.5t0.5 -3.5q0 -1 -0.5 -2.5t-1.5 -1.5q-4 0 -7.5 3t-6.5 6t-7 6t-9 3q-2 0 -3.5 -1t-1.5 -3v-1q0 -1 0.5 -2t1.5 -1q1 -1 3 -3.5t4.5 -5.5t5 -5.5t2.5 -3.5q1 -1 3.5 -2t4.5 -2.5t3.5 -3t1.5 -3.5q0 -3 -1 -3.5t-3 -0.5q-1 0 -2 0.5
l-1 0.5q-2 1 -5 4t-7 6.5t-7 7t-4 4.5q-1 2 -2.5 4.5t-2.5 4.5t-3 4t-4 2t-3 -2t-1 -4v-4v-3v-4v-4t1.5 -2t1.5 -2l2 -1.5l4 -3t3.5 -3l1.5 -1.5l2.5 -2.5l2.5 -2.5l2 -2l1 -1v-3h-8l-1 1l-2.5 2.5l-3 3l-2.5 2.5q-1 0 -1.5 1.5t-1 2.5t-1.5 1.5t-1 1.5l-2 2t-3 2q-2 3 -2 7
v7t0.5 5.5t1.5 4.5t2.5 4t4.5 5zM72 240q0 3 0.5 3.5t3.5 0.5t4 -0.5t3 -4.5v-23v-26.5t0.5 -26.5t2.5 -23q2 -2 4 -3t4.5 -1.5t4.5 -1t3 -2.5q4 -7 5.5 -13t1.5 -13v-6q-1 -2 -2 -2h-2q-2 0 -2.5 0.5t-1.5 2.5v7.5t-0.5 9t-3 7.5t-6.5 3q-2 0 -3 -1t-1.5 -3t-0.5 -4v-3v-11
t0.5 -9t2.5 -7.5t7 -6.5q8 -5 11 -13t3 -18q0 -2 -1 -4t-4 -2t-4.5 4.5t-1.5 10t-1 10t-4 4.5h-3t-2 -1v-12q0 -8 0.5 -14t4.5 -13q1 -2 3.5 -3l5 -2t4.5 -2.5t2 -4.5q0 -6 -6 -6l-1 0.5l-1 0.5q-8 6 -11.5 9t-5 6t-2 8t-1.5 17l-0.5 3l-0.5 3v13l-1 0.5t-1 1.5h-1
q-2 0 -5.5 -2.5t-4.5 -4.5v-3.5t-0.5 -6t-0.5 -6t-1 -3.5q0 -1 -0.5 -2t-1.5 -2l-2 -2t-2 -1q0 1 -1.5 2t-1.5 2v8v8q0 8 3.5 12t7.5 5.5t7.5 2t3.5 1.5v38q0 1 -0.5 2.5t-0.5 2.5h-1q-6 0 -9 -2.5t-4 -6t-1.5 -7.5t-0.5 -7.5t-1 -6t-3 -2.5q-6 0 -6 5v15.5t2.5 10t7.5 5.5
t14 3q2 0 2 1v2q0 13 -2 26t-2 25q0 1 1 3.5t1 3.5v5q0 9 -1.5 18t-1.5 19z" />
</svg>
