<?xml version="1.0" standalone="no"?>
<!DOCTYPE svg PUBLIC "-//W3C//DTD SVG 1.1//EN" "http://www.w3.org/Graphics/SVG/1.1/DTD/svg11.dtd" >
<svg xmlns="http://www.w3.org/2000/svg" xmlns:xlink="http://www.w3.org/1999/xlink" version="1.1" viewBox="-10 0 266 256">
   <path fill="currentColor"
d="M171 184q0 20 7.5 37t20.5 30q1 0 1.5 0.5l0.5 0.5q3 0 3.5 -2.5t1.5 -4.5v-1v-1q-4 -6 -8.5 -12.5t-8.5 -13.5t-6.5 -15t-2.5 -15q0 -8 3.5 -13.5t7.5 -10.5t7 -10.5t3 -11.5q0 -5 -1.5 -9.5t-3.5 -9t-3.5 -9t-1.5 -9.5v-5t1 -4t3 -2.5t4 -2.5t4 -2.5t2 -4.5q0 -2 -1 -5
t-4 -3h-1l-0.5 1.5l-0.5 1.5q-1 2 -3.5 4.5l-2.5 2.5q-9 6 -20.5 10t-21.5 7v0.5v1.5t1.5 2t3.5 1h4h3q1 1 1 4v4q0 6 -2 11t-5 9.5t-5 8.5t-2 8h5l1.5 -1.5t3.5 -3t3.5 -4t2.5 -3.5q2 -3 3.5 -7.5t2.5 -9.5l2 -10t1 -8q1 -2 2.5 -3.5t3.5 -1.5h1h1q1 4 2.5 9t2.5 11t2 11
t1 8q0 7 -3 12t-6.5 10t-6.5 10.5t-3 12.5zM71 133v109q0 2 1.5 2.5t3.5 0.5q1 0 3.5 -0.5t2.5 -2.5v-104q0 -2 2 -4t4 -3t4.5 -2t3.5 -4q3 -5 4 -11t1 -12q0 -2 -1 -4.5t-3 -2.5q-3 0 -3.5 4.5t-1 10t-1.5 9.5t-4 4h-2t-1 -1t-0.5 -4t-0.5 -6.5t-0.5 -6.5t-0.5 -5v-2v-3
l0.5 -2t0.5 -4.5t0.5 -4t0.5 -2.5q1 -2 3 -3l4 -2t4.5 -2t4.5 -3q1 -7 1 -11v-11v-6q-1 -3 -5 -3q-1 1 -1.5 5.5t-0.5 9t-1 8l-1 3.5h-8q-2 0 -2 -2.5v-2.5v-7t0.5 -8.5t1 -8.5t2 -6t4 -3.5l5 -3t4.5 -3t2 -4.5q0 -4 -3 -4q-10 0 -14.5 5.5t-7 14t-3 17t-0.5 14.5
q-1 0 -1.5 0.5l-0.5 0.5q-3 0 -3.5 -4t-1 -8.5t-1.5 -8t-4 -3.5t-3.5 1.5t-0.5 4.5v11.5t1.5 10t5 7t9.5 3.5v7.5t0.5 11t0.5 11v7.5v1q0 2 -2 3t-3 1q-4 0 -5.5 -4.5t-2.5 -10t-1.5 -10t-4.5 -4.5q-3 0 -4 1t-1 5q0 5 0.5 11.5t2.5 12t6 8.5t12 2zM109 235q1 0 2 1.5l1 1.5
h1q2 0 3.5 -5t2.5 -11.5t1 -12.5v-8q0 -13 -0.5 -26t-0.5 -26v-29t1 -28l0.5 -2l1 -4l1 -4t0.5 -4q2 -6 7 -9.5l10 -7t8.5 -7.5t3.5 -12q0 -6 -3 -11.5t-11 -5.5v0q-2 1 -5.5 1t-6.5 0.5t-5 0.5h-2q-1 0 -3 1.5t-2 2.5v1q0 1 0.5 1.5t1.5 0.5h22q3 0 4 2.5t1 4.5q0 6 -3 9.5
t-7.5 6.5t-8.5 6t-7 7q-2 4 -3.5 10.5t-2 13.5t-0.5 14v11v3.5v2.5v3t0.5 4.5t0.5 5v2.5q0 1 -0.5 2.5t-0.5 2.5q0 21 -1 41t-1 41v8zM133 233q0 2 2 2h2q3 0 4 -2.5t1 -5.5q0 -27 -1.5 -53.5t-1.5 -52.5v-5.5v-6.5t0.5 -6.5t1.5 -5.5q1 -3 3 -5.5t4.5 -4t4 -3t1.5 -4.5
q0 -1 -2 -1.5l-2 -0.5q-2 0 -3 0.5l-3 1.5q-6 5 -8.5 10t-4 10t-1.5 11v14q0 27 2 54t1 54zM162 67v5h10t11.5 -1.5t10.5 -4t9 -6.5v-1.5v-1.5q0 -3 -0.5 -4t-3.5 -1q-4 0 -5.5 2.5t-5.5 4.5q-6 3 -13 5t-13 3zM160 46q0 1 0.5 3t1.5 2l0.5 -0.5l0.5 -0.5q2 0 5 -1t6.5 -2
t6.5 -2t4 -1q3 -1 6.5 -3t6 -4.5t4 -5t1.5 -6.5v-2v-3l-1.5 -1t-2 -0.5t-1.5 2.5t-2 3l-1 1.5t-2.5 3l-2.5 2.5t-2 1q-2 2 -7 3.5t-9.5 3t-8 3t-3.5 4.5z" />
</svg>
