<?xml version="1.0" standalone="no"?>
<!DOCTYPE svg PUBLIC "-//W3C//DTD SVG 1.1//EN" "http://www.w3.org/Graphics/SVG/1.1/DTD/svg11.dtd" >
<svg xmlns="http://www.w3.org/2000/svg" xmlns:xlink="http://www.w3.org/1999/xlink" version="1.1" viewBox="-10 0 266 256">
   <path fill="currentColor"
d="M72 247q0 3 1 3.5t3 0.5t4 -1t3 -4q1 -23 1.5 -46t0.5 -45q0 -3 2.5 -5t6 -3t6.5 -2.5t4 -3.5t1.5 -5.5t1.5 -8t1.5 -8t0.5 -5.5v-1v-1l-2 -1.5t-3 -1.5v0v0q-2 0 -3 2.5t-1 6t-0.5 7.5t-1 7.5t-3 6t-6.5 2.5h-3t-1 -3v-39l1 -7q7 -2 12 -5.5t7.5 -8.5t3.5 -11t1 -14
h-3.5h-3.5q-1 0 -1.5 1l-0.5 1q0 1 -0.5 3.5t-1 5.5l-1 6t-0.5 4t-1.5 4.5t-4.5 3.5q-2 0 -3.5 -1.5t-2 -3.5t-1 -4.5t-0.5 -4.5v-1q0 -1 0.5 -4.5l1 -7t1 -6.5t0.5 -4q2 -3 5.5 -5t6.5 -3.5t5 -4t2 -7.5q-3 0 -8 2t-10 4.5t-8 6t-3 7.5v35q-6 0 -8.5 -2t-3.5 -5.5t-1 -6.5
q0 -4 -0.5 -7t-1.5 -5.5t-4 -2.5q-5 0 -6 2.5t-1 5.5q0 8 1.5 15.5t8.5 12.5q1 1 3.5 1.5t5 0.5t4.5 0.5t2 2.5v46q0 2 -2 3.5t-3 1.5q-5 0 -7 -3t-2.5 -7t-0.5 -9v-9t-1.5 -7t-4.5 -3q-5 0 -6.5 4t-1.5 7q0 4 0.5 9.5t2 10.5t4.5 9t8 5q3 0 6 -0.5t6 1.5v2v3v3v2
q0 20 -1 38.5t-1 39.5q0 1 -0.5 4t-0.5 4zM118 243v5t3 3q4 0 6 -4t2 -8q0 -6 -1 -12t-1 -12v-5v-5t0.5 -5t1 -8.5t0.5 -8.5v-5v-11v-13q0 -6 0.5 -12.5t3 -11.5t7.5 -8t12 -3h2h1q2 7 2 11.5v11.5v5v6t-2 2h-3h-3q-1 -1 -1 -2.5t-1 -3t-1 -3t-1 -2.5l-0.5 -0.5l-0.5 -0.5
h-1q-1 0 -1.5 0.5t-0.5 2.5v9.5t1 10.5t1.5 10t0.5 9q4 4 7.5 4.5t8.5 0.5q9 0 14 -1.5t7.5 -5.5t3 -10t0.5 -14v-16q0 -1 -0.5 -1.5t-1.5 -0.5h-1q-3 0 -3.5 2l-1 4t-2 4t-6.5 2h-1h-1q-1 -3 -1.5 -6.5l-1 -7t-0.5 -7v-5.5q0 -7 3.5 -8.5t9.5 -1.5q5 0 7.5 1.5t4 4t2 6
t2.5 7.5q0 28 1 55.5t1 55.5q0 1 1 2l2 2q2 0 3.5 -2t1.5 -3v-6v-8.5v-8.5v-5v-7v-9.5v-7.5v-4q0 -3 -0.5 -7.5t-0.5 -10.5v-12.5t-0.5 -12t-0.5 -10v-6.5q0 -10 -3 -14.5t-8 -6t-11.5 -1.5h-14.5v-17l2.5 -1.5t6 -3.5t6.5 -3.5t4 -3.5q0 -1 0.5 -3t1 -5t1 -5.5t1.5 -3.5
q0 -2 1 -4.5t3 -2.5q3 0 4.5 1.5t3 2.5t3 2.5t4.5 1.5t3.5 -2.5t0.5 -5.5q0 -2 -3.5 -4t-8.5 -4t-11.5 -4t-11.5 -4.5t-8.5 -5.5t-3.5 -7q0 -2 1 -4.5t1 -4.5q0 -3 -0.5 -5t-3.5 -2q-1 0 -3.5 0.5t-2.5 2.5v22q0 1 -3 2.5t-5 3.5q-2 0 -6 2.5t-8.5 5t-9 4.5t-5.5 3
q-2 0 -2.5 2.5t-0.5 3.5q6 0 11 -2.5t10 -5.5q1 1 1.5 2.5t1.5 2.5q0 1 1 4t1.5 7t1.5 7t1 4q1 1 2.5 2t3.5 2t3.5 2t1.5 2v17q0 1 -4 2.5t-9.5 4.5t-11 5.5t-6.5 4.5t-1.5 4t-1 4.5t-0.5 5v3.5t-0.5 5.5t-0.5 9.5t-0.5 9.5t-0.5 5.5q0 18 -0.5 36t-0.5 36zM148 170
q0 -2 2 -5.5t5 -3.5h22l0.5 2t0.5 3v1q0 5 -1.5 8t-4 4.5t-6 2t-7.5 0.5h-5q-3 -3 -4.5 -5.5t-1.5 -6.5zM147 65q0 -4 0.5 -8t2 -7.5t4 -6t7.5 -2.5q7 0 12 5t5 12t-0.5 11.5t-2.5 7t-6.5 3t-10.5 0.5q-7 0 -9 -4.5t-2 -10.5z" />
</svg>
