<?xml version="1.0" standalone="no"?>
<!DOCTYPE svg PUBLIC "-//W3C//DTD SVG 1.1//EN" "http://www.w3.org/Graphics/SVG/1.1/DTD/svg11.dtd" >
<svg xmlns="http://www.w3.org/2000/svg" xmlns:xlink="http://www.w3.org/1999/xlink" version="1.1" viewBox="-10 0 266 256">
   <path fill="currentColor"
d="M69 245q-1 3 1 4t4 1q3 0 4.5 -1.5t1.5 -5.5v-81v-2.5t-0.5 -3.5t-0.5 -3.5v-2.5v-1v-1q0 -4 1.5 -5t4.5 -1.5t5.5 -0.5t4.5 -2q4 -3 5.5 -8t2.5 -10.5t1 -10.5v-9q0 -2 -2 -2.5t-3 -0.5h-4q0 2 -0.5 5.5t-0.5 8t-0.5 8t-0.5 5t-1.5 4.5l-1.5 3l-1.5 0.5l-1.5 0.5h-1.5
h-2.5t-1.5 -0.5l-1.5 -1.5v-4v-4v-9t0.5 -7.5t1 -7.5t0.5 -10q1 -2 3 -2.5t4.5 -1t5.5 -1.5t5.5 -5t4 -10.5t1.5 -18.5q0 -3 -0.5 -5t-3.5 -2q-2 0 -3 0.5t-2 2.5q0 2 -0.5 5l-1 6t-0.5 6v4q-1 5 -3 8t-6 3q-1 0 -2 -0.5t-2 -1.5v-3v-4v-4v-3q0 -2 -0.5 -6t0 -8t1 -7.5
t2.5 -5.5l5 -2.5l6 -3t5 -3.5t2 -5q0 -2 -2.5 -2h-3.5q-5 0 -9 2t-7 5t-5.5 7t-3.5 9q0 1 0.5 5.5t0.5 8.5q0 5 -0.5 9t-0.5 6q0 3 -0.5 6.5t-3.5 3.5q-1 0 -1.5 -0.5l-0.5 -0.5q-4 -2 -5.5 -6.5t-2 -9.5t-0.5 -9.5v-8.5q0 -2 -3 -2h-3q-1 0 -2.5 0.5l-1.5 0.5l-1 3l3 28
q0 1 2 3.5t3 2.5l16 5l0.5 0.5t0.5 1.5q1 0 1.5 1.5l0.5 1.5q0 1 -1 3.5l-1 2.5v7t-0.5 10.5t-0.5 10.5v6l-2 2l-3 -0.5t-5 -1.5q-2 0 -3 -2.5t-1 -5v-5.5v-4t-0.5 -3.5t-0.5 -5t-0.5 -5t-0.5 -3.5q-1 0 -2 -0.5l-1 -0.5h-1q-2 0 -3.5 1.5t-2.5 3.5q1 8 0.5 15.5t1.5 13
t7 8.5t15 2q2 1 2 2.5v3.5q0 18 -1 35.5t-1 35.5v27zM169 245q-1 2 0.5 2.5t2.5 0.5q2 0 3.5 -0.5t2.5 -2.5v-26v-26t0.5 -26.5t1.5 -25.5q0 -2 1.5 -2h2.5q5 0 7.5 3.5t4 8t1.5 9.5v8q0 1 0.5 4t0.5 6t0.5 6t0.5 4v48q0 2 1.5 4t4.5 2v-0.5v-0.5q1 0 2 -0.5t1 -1.5v-3
q0 -2 0.5 -4.5t0.5 -4.5v-3v-4q0 -2 -0.5 -4.5t-0.5 -4.5v-2q0 -4 -0.5 -14.5t-1.5 -21.5t-2.5 -21.5t-1.5 -14.5q-1 -3 -3 -5t-5.5 -3t-7 -1h-5.5l-1 -2v-21l1 -1t2 -1h14h3t4.5 -0.5t4.5 -0.5h3v-1.5v-1.5v-2t-2 -2h-25q-2 0 -2.5 -2l-1 -4t-0.5 -4v-2v-7q3 -4 6.5 -4.5
t7.5 -1t8 -2.5t7 -7q0 -2 0.5 -6t0.5 -9t0.5 -9.5t0.5 -6.5v-1q0 -3 -1.5 -3.5t-3.5 -0.5q-3 0 -5.5 2t-2.5 5v2v1q0 1 0.5 2.5t0.5 4v4v2.5h0.5t0.5 1q0 8 -3 11t-11 3h-2.5t-3.5 -2v-9q0 -8 2 -16.5t2 -17.5q0 -3 -1 -5t-5 -2q-2 0 -3.5 0.5t-2.5 2.5q1 26 0.5 51.5
t-1.5 51t-1.5 51t-0.5 50.5q-2 5 -2 9v8v5q0 3 1 5zM141 243l1 0.5t1 1.5q1 0 2 0.5l1 0.5l1.5 -1.5l1.5 -1.5q1 -2 1 -7t0.5 -10t0.5 -10v-7v-28q1 -34 2.5 -68.5t0.5 -69.5q2 -4 2 -8v-9v-4.5v-4.5q0 -2 -1 -2.5t-3 -0.5q-1 0 -3 0.5t-2 2.5v47q0 2 -2 2h-3q-4 0 -6 -4
t-3 -7v-5t-0.5 -6.5t-0.5 -7v-4.5l-2 -2l-1 -1q-1 0 -3.5 0.5t-3.5 0.5v8v10t1 7.5t3 7.5t6 8q1 1 3 2t4 1.5t3.5 1.5t1.5 3v17h-27l-1 1.5t-2 2.5v0v1q0 3 3 3.5t5 0.5q4 0 7.5 -1t8.5 -1h3h2l3 4v2v3v6.5t-1 4t-3 2.5l-6 3q-1 0 -3.5 1.5t-5.5 3l-6 3t-4 1.5q-2 3 -3 7
t-1.5 8.5t-0.5 8.5v7q0 1 0.5 1.5l0.5 0.5q0 1 0.5 4.5t0.5 5.5v61q0 2 1 2h2q3 0 4 -1.5t1 -3.5v-4.5v-3.5t0.5 -3.5t0.5 -6t0.5 -6.5t0.5 -4l-0.5 -3.5t-1.5 -4.5v-55q0 -1 2.5 -3t6 -4l7 -4t4.5 -2h1l0.5 1l0.5 1q0 1 0.5 5t0.5 8v8v5v7v9t-0.5 7.5l-0.5 3.5v9.5v14.5
t-0.5 14.5t-0.5 8.5q0 1 -1 3.5t-1 3.5z" />
</svg>
