<?xml version="1.0" standalone="no"?>
<!DOCTYPE svg PUBLIC "-//W3C//DTD SVG 1.1//EN" "http://www.w3.org/Graphics/SVG/1.1/DTD/svg11.dtd" >
<svg xmlns="http://www.w3.org/2000/svg" xmlns:xlink="http://www.w3.org/1999/xlink" version="1.1" viewBox="-10 0 266 256">
   <path fill="currentColor"
d="M189 249q0 2 1.5 2h2.5q2 0 4 -0.5t2 -2.5v-33l-1.5 -4t-1.5 -6q-4 -9 -9.5 -12t-10.5 -4.5t-9 -3t-5 -7.5q-1 -5 -1.5 -10t-0.5 -9.5v-9.5v-10q0 -11 1 -20.5t1 -20.5v-7q-2 -1 -3 -1h-2h-2v9t-0.5 14t-0.5 14v9v21v21q0 7 3 10t6.5 4.5t7.5 2.5t7.5 3t6 5t2.5 9
q1 2 1 7.5t0.5 11.5t0.5 11v7zM75 236q0 1 1 2t2 1h1v0l2.5 -1t2.5 -2v-101q0 -1 2.5 -2.5t5.5 -3t5.5 -3.5t2.5 -4q1 -3 1.5 -6.5t0.5 -7.5v-8v-6h-3t-3 2q0 4 -0.5 9t-1.5 9t-3.5 6.5t-7.5 2.5q0 -5 0.5 -10t0.5 -10t0.5 -10t-0.5 -11q2 -3 4 -4t4.5 -1.5l5 -1t4.5 -1.5
q3 -8 5 -13.5t2 -13.5v-2v-2q-1 0 -2 -0.5t-2 -1.5h-1q-3 0 -3.5 4.5t-1 9.5t-2.5 9.5t-8 4.5q-2 0 -2.5 -1.5t-0.5 -3.5v-6.5t0.5 -7t1.5 -7t3 -5.5q1 -3 5.5 -4.5t8.5 -3t7 -3.5t3 -4q0 -3 -2 -3h-4h-4q-1 1 -3.5 2t-6 2.5t-6 3t-3.5 2.5q-6 3 -7 8.5t-1 12.5v4v5
t-0.5 5.5t-1.5 4.5h-1.5h-2.5h-1h-2t-2 -0.5t-1 -1.5v-25q0 -1 -2.5 -1.5l-2.5 -0.5q-2 0 -3 1t-1 3v3.5v3.5q0 8 1 12.5t3 7t4.5 3.5t4.5 1.5l4 1t2 2.5v10v9v6.5t-0.5 7.5t-0.5 9q-1 2 -3 1.5t-3 -0.5q-5 0 -7 -2.5t-2.5 -7t-0.5 -9v-8.5l-1.5 -1.5t-1.5 -0.5q-6 0 -6 5
v7.5v9.5t2 9t5 6q1 0 3 0.5t4.5 0.5t4.5 0.5l2 0.5q1 0 2 0.5t2 1.5v3v4.5v4.5v3q0 6 -1 11t-1 11q0 9 0.5 17t0.5 15.5t0.5 15.5t0.5 16zM115 149q0 11 4.5 15.5t14.5 4.5h2h3.5t3 -1t1.5 -3q0 -3 -3.5 -3.5l-7 -1t-7 -2.5t-3.5 -8q0 -2 0.5 -3.5t2.5 -2.5l16 -3h1v0
q0 -1 -1 -1q0 -1 -0.5 -1.5l-0.5 -0.5h-5q-3 0 -6 -0.5t-5.5 -2t-2.5 -4.5q0 -7 3 -10t7 -4t7.5 -1.5t3.5 -2.5q0 -3 -3 -3h-4q-2 0 -5.5 0.5t-6.5 1.5t-5.5 3t-2.5 5v6t-0.5 8.5t-0.5 9v5.5zM168 164v1l0.5 1t1.5 1h4h4q5 0 10 -1t8.5 -3t6 -6t2.5 -9v-16.5t-2 -13t-7 -8.5
t-15 -3h-6q-2 0 -4 0.5t-3.5 2.5t-1.5 6h25q1 0 1.5 1.5t1 3.5t0.5 4v2v3.5t-1 2.5h-4h-5h-4.5h-3.5q-3 0 -5.5 2t-2.5 5h25l0.5 1t0.5 2v5q0 5 -4 7.5t-9 3.5t-9 2t-4 3zM113 94q0 2 0.5 3t2.5 1v0q1 -1 2 -1.5t2 -0.5t3.5 -2t5.5 -4t5.5 -3.5l2.5 -1.5q5 -3 9.5 -6.5
t10.5 -3.5q5 0 11.5 3.5t13 7.5t12 8t8.5 4q2 0 4.5 -2t1.5 -5l-1.5 -2t-2.5 -3q-6 -3 -13 -5.5t-13.5 -5.5t-11 -7.5t-4.5 -12.5q0 -2 1 -5t3 -3q3 0 6.5 2t6.5 4l6 4t6 2t5.5 -1t2.5 -4q0 -2 -2 -4t-5 -3t-6 -1.5t-5 -1.5q-1 0 -3.5 -1t-5.5 -2t-5.5 -2t-3.5 -1
q-1 -1 -1 -2v-2q0 -4 0.5 -8.5t0.5 -8.5t-2 -5t-6 -1v25l-0.5 1l-0.5 1q-6 3 -10 4.5t-8 4t-8 5.5t-8 7q-1 0 -1.5 1.5l-0.5 1.5v1v1q1 0 2 0.5t2 0.5h3.5t2 -0.5l1.5 -1.5l2 -2t3 -2.5t4.5 -3.5t4.5 -3.5t3 -2.5h1h1q4 0 5.5 3t1.5 7t-3 7t-7.5 6.5t-10 6t-10 5t-8 5
t-3.5 5.5z" />
</svg>
