<?xml version="1.0" standalone="no"?>
<!DOCTYPE svg PUBLIC "-//W3C//DTD SVG 1.1//EN" "http://www.w3.org/Graphics/SVG/1.1/DTD/svg11.dtd" >
<svg xmlns="http://www.w3.org/2000/svg" xmlns:xlink="http://www.w3.org/1999/xlink" version="1.1" viewBox="-10 0 266 256">
   <path fill="currentColor"
d="M150 247q0 4 3 4q5 0 8 -7t5 -16.5t2.5 -18t1.5 -12.5v-13.5t1 -12t4.5 -9.5t10.5 -8h0.5h1.5h2t1 2v69l1.5 0.5t2.5 0.5v0.5v0.5q1 0 1 -0.5v-0.5q1 0 2.5 -0.5l1.5 -0.5v-81q0 -4 -1 -5t-3 -1q-3 0 -6 2t-6 5t-6 5.5t-7 3.5q-2 -10 -2 -21.5t1 -20.5q-1 -2 -1.5 -3.5
t-0.5 -3.5t3 -5t5 -3h29q3 0 3.5 -1t0.5 -3v-2.5t-1 -2.5h-8q-5 0 -10.5 1t-11.5 1v-12.5v-12.5t1.5 -12t5.5 -11h2h4h4h3q2 -1 2.5 -1.5t0.5 -2.5q0 -3 -3 -5h-5h-5q-10 0 -18.5 1t-18.5 1h-5.5h-4.5l-1 -2v-3v-5v-4.5v-2.5q0 -3 -1.5 -4.5t-3.5 -1.5t-3 0.5t-1 3.5v14v8
t0.5 8t1 7.5t0.5 8.5q4 6 8.5 7.5t11.5 1.5l1.5 -0.5t2.5 -0.5t2.5 -0.5l1.5 -0.5h2h2q3 0 4 1t1 4v2q0 2 -0.5 4t-0.5 4.5t-0.5 4l-0.5 1.5l-2 2h-46q-1 0 -3 1.5t-2 2.5q0 3 3.5 3.5t5.5 0.5q7 0 13.5 -0.5t13.5 -0.5h7l0.5 0.5t1.5 0.5v1q0 5 -6.5 10t-14.5 10t-14.5 8.5
t-6.5 6.5v0.5v0.5q1 0 1.5 0.5l0.5 0.5q6 0 11 -3.5t9.5 -7.5t9 -7t9.5 -3v3t0.5 4t0.5 5v2q0 1 -1 2.5l-1 1.5q-4 2 -8 4.5t-7 5t-6 5.5t-7 6t-8.5 4.5t-8.5 3.5q-3 2 -5 5t-2 7q8 0 15 -5t13 -11.5t12.5 -11.5t13.5 -5q3 0 4 3.5t1 6.5q0 5 -1.5 8.5t-4 5.5l-5 4t-6.5 5
q-10 9 -20.5 17.5t-19.5 19.5q0 3 1.5 3h2.5q5 0 9 -4t7 -6q2 -2 6.5 -6t9.5 -9t9.5 -9t6.5 -6q1 1 1.5 2t0.5 2q0 11 -1.5 24t-4.5 24q0 2 -1 4.5t-2.5 5t-2 5t-0.5 4.5zM70 235v5t3 2q4 0 5.5 -4t2.5 -9.5t1 -10.5v-7q0 -7 -1 -12t-1 -12v-9.5t0.5 -9t0.5 -9t1 -10.5
q2 0 5 -1t6 -2.5t5 -4t2 -4.5v-30l-0.5 -1.5t-1.5 -1.5v0q-3 0 -4.5 1.5t-1.5 4.5v1v2t0.5 4t0.5 3.5v2.5v3q0 2 -0.5 4.5t-2 5t-3.5 4.5t-4 2h-1q-1 0 -1.5 -1l-0.5 -1v-9q0 -12 1 -22t1 -22q1 -1 3 -1.5l4 -1t3.5 -1t2.5 -2.5q2 -2 3.5 -6t2 -8t1.5 -8t1 -7v-2q0 -4 -1 -6
t-4 -2h-3t-2 1q0 5 0.5 11t0 11t-3 8.5t-8.5 3.5v-4v-4q0 -2 0.5 -7t1 -11t1 -11t0.5 -7q2 -3 5.5 -4t6.5 -2t5.5 -2.5t2.5 -5.5q-4 0 -10 1t-10.5 3.5t-8 7t-3.5 11.5v33q0 1 -2.5 2t-3.5 1q-3 0 -5 -3t-2 -6v-24q-1 -2 -2 -2.5t-2 -0.5h-3.5t-2.5 1v7q0 6 0.5 12t1.5 14
q0 4 3.5 6t7 2.5t6.5 1t3 2.5v49q0 2 -1 2.5t-3 0.5t-5.5 -1t-3.5 -4v-26q0 -2 -2 -3t-3 -1q-2 0 -2.5 0.5l-1.5 1.5q0 2 -0.5 5t-0.5 6.5v7v4.5q0 6 3.5 10t8 6.5t8 4l3.5 1.5v69l-1.5 7.5t-0.5 6.5zM140 53q0 -5 2.5 -7t6 -3t7.5 -1h7q6 0 7 2.5t1 8.5q0 2 -0.5 5t-2.5 4
q-1 1 -5 1h-4h-6q-4 0 -7 -1t-4.5 -3t-1.5 -6z" />
</svg>
