<?xml version="1.0" standalone="no"?>
<!DOCTYPE svg PUBLIC "-//W3C//DTD SVG 1.1//EN" "http://www.w3.org/Graphics/SVG/1.1/DTD/svg11.dtd" >
<svg xmlns="http://www.w3.org/2000/svg" xmlns:xlink="http://www.w3.org/1999/xlink" version="1.1" viewBox="-10 0 266 256">
   <path fill="currentColor"
d="M115 185q0 4 5.5 6t13 3.5t16.5 2.5t17 3t13.5 5t7.5 8q0 2 1 5.5t1.5 6.5t1 5.5t0.5 3.5q1 1 0.5 3.5t-0.5 5.5t1.5 5.5t4.5 2.5q2 0 4.5 -2.5t2.5 -4.5v-0.5v-0.5q0 -1 -1 -5l-2 -8t-2 -7.5t-1 -4.5q-3 -11 -10.5 -17t-16.5 -8.5t-19.5 -3.5t-19.5 -3q-4 0 -6 -4t-4 -7
v-5.5v-9.5v-10v-6v-23.5t0.5 -24.5t2 -24.5t5.5 -23.5l5 -2.5t5 -3.5q1 0 3.5 -0.5t6 -1t6.5 -1t4 -0.5q2 0 8.5 -0.5t13.5 -0.5t13 0.5t9 0.5q3 -2 3 -5t-3 -4q-1 0 -4 -0.5t-6 -0.5h-7h-3h-13.5t-13.5 0.5t-13.5 2t-12 4.5t-9 7.5t-4.5 12.5q-1 4 -1 14.5t-1 22.5
t-1.5 22.5t-0.5 14.5v4v7.5v8.5v7v6v7.5v9.5v5zM70 227q0 1 0.5 3.5t2.5 3.5l6 -7v-74l2 -14q13 -5 17.5 -14.5t4.5 -22.5v-8l-2 -2l-1 -1l-0.5 -0.5l-0.5 -0.5q-5 0 -5.5 5t-0.5 11t-1 12.5t-6 8.5q-1 0 -3 -0.5t-3 -0.5q0 -8 -0.5 -13.5t-0.5 -10.5t0.5 -10.5t1.5 -11.5
q2 -2 4.5 -2.5t5 -1.5t5 -1.5t4.5 -2.5q2 -3 4 -7.5t3 -9.5t1.5 -10t0.5 -9q0 -2 -1 -3.5t-4 -1.5h-2t-2 2q0 1 -0.5 3t-0.5 5t-0.5 5.5t-0.5 3.5q0 2 -0.5 4.5l-1 5t-2 4.5t-4.5 3q-1 1 -4.5 0t-4.5 -1q0 -7 0.5 -13t2 -11t4.5 -9.5t9 -9.5q1 -1 3 -1.5t4 -1.5t3.5 -2
t1.5 -3t-1.5 -4t-3.5 -2q-1 0 -3.5 1t-3.5 2t-3.5 2.5l-5 3t-4.5 3t-3 2.5q-3 5 -5 10.5t-2.5 11t-1 11.5t-1.5 11l-1 0.5t-2 1.5v0h-1q-1 -1 -3.5 -3l-2.5 -2v-33q0 -1 -2.5 -1.5t-3.5 -0.5q-3 0 -3.5 2.5t-0.5 5.5v2v1q0 2 0.5 6.5t1 9.5t1 9.5t0.5 6.5q1 1 4 2l6 2t5 2
t2 2v45q0 3 -1 3h-3h-3t-4 -1t-3.5 -2.5t-1.5 -2.5v-30q0 -1 -3 -1.5l-3 -0.5q-1 0 -2.5 0.5t-1.5 1.5v6v5v2t0.5 2t0.5 2.5v1.5q1 8 1 13t1.5 7.5t6 3.5t13.5 1q3 2 3 5v9t-0.5 14.5t-0.5 14v9.5v19v20zM174 180q6 8 14.5 11.5t18.5 3.5q0 -4 -1 -5.5t-3 -2.5t-4.5 -1
t-4.5 -1t-4.5 -1.5t-4.5 -2t-3.5 -3t-1.5 -4.5q0 -2 1.5 -4t3 -4.5t3.5 -4.5l3 -3v-1v-1q0 -3 -1.5 -4.5t-2.5 -3t-2.5 -3t-1.5 -3.5q0 -1 2 -2t4.5 -1.5t4.5 -1t2 -3.5v-14l2.5 0.5t5.5 0.5t5 -1t2 -4q0 -4 -3 -4.5t-5 -0.5q-5 0 -9.5 1t-9.5 1h-5q-3 0 -4 -1
q-1 0 -1.5 -0.5t-0.5 -2.5t2 -3t5 -2l6 -2t6 -3.5t5 -7t2 -11.5q0 -6 -0.5 -9.5t-1.5 -9.5q-3 -2 -5 -2.5t-3.5 -1.5t-3 -1h-3.5q-5 0 -11.5 0.5t-12.5 3t-10 6t-4 10.5t1 13t5 11q7 1 11.5 2.5t4.5 8.5v2v3q-3 2 -7.5 3t-8.5 2t-6.5 3.5t-2.5 7.5q0 4 0.5 7.5t0.5 7.5
t-2 6.5t-4.5 5t-4.5 5t-2 6.5t4 4q2 0 3.5 -2t3 -4.5t2.5 -4.5t4 -2q2 0 3 1l2 2t2 1.5t2 0.5q4 0 4 -4q0 -3 -1.5 -5t-1.5 -5q0 -4 4 -5t7 -1q6 0 8.5 3t2.5 8q0 2 -0.5 4t-1.5 4t-2 4.5t-1 5.5l0.5 2.5zM166 121v17l-1.5 0.5l-1.5 0.5q-2 1 -3.5 1.5t-2.5 1t-2 0.5h-3h-2
t-2 -1v-11q0 -2 2.5 -3.5l5 -3t5.5 -2t5 -0.5zM173 127q0 -4 2.5 -5.5t6.5 -1.5q3 0 3.5 1.5t0.5 4.5q0 4 -1 4.5t-5 3.5l-0.5 0.5l-0.5 0.5q-4 0 -5 -3t-1 -5zM155 91q0 -3 2.5 -4t6 -1.5t7 0t4.5 0.5h13q1 1 1.5 2l1.5 3q-5 5 -10.5 5.5t-12.5 0.5h-5h-5q-3 -1 -3 -2v-4z
M180 64q3 1 6 3t3 6v4t-3 1q-1 0 -5 0.5t-8.5 0.5t-8 0.5t-5.5 0.5h-5q0 -6 1 -9.5t8 -4.5q1 -1 3 -1t5 -0.5t5.5 -0.5h3.5z" />
</svg>
