<?xml version="1.0" standalone="no"?>
<!DOCTYPE svg PUBLIC "-//W3C//DTD SVG 1.1//EN" "http://www.w3.org/Graphics/SVG/1.1/DTD/svg11.dtd" >
<svg xmlns="http://www.w3.org/2000/svg" xmlns:xlink="http://www.w3.org/1999/xlink" version="1.1" viewBox="-10 0 266 256">
   <path fill="currentColor"
d="M184 250q1 2 4 2q2 0 4 -2.5t2 -4.5v-1q-1 -11 -2.5 -21.5t-2.5 -20.5q0 -2 -1 -5.5t-2 -7.5t-1.5 -7.5t-0.5 -6.5t2 -4.5t4.5 -2.5t4.5 -2.5t2 -4.5t-1 -6t-1 -7q0 -1 1 -2t2.5 -2t2.5 -2t1 -4q0 -9 -2 -18t-2 -19q0 -7 1 -15t3 -15l-2 -2t-2 -1v0h-1q0 1 -1 2l-2.5 2.5
l-2.5 2.5t-2 1h-2h-3q-8 0 -11 -1.5t-3 -9.5q0 -5 4 -7.5t9.5 -4.5t9.5 -5.5t4 -10.5q0 -2 -1 -5.5t-3 -7t-4 -6t-4 -2.5t-4 1t-2 3v0.5v0.5q1 1 2 2.5t2.5 4t2.5 4.5t2 3v3q0 5 -3 7.5t-9 2.5q-2 0 -5.5 -3t-7 -7t-6 -7t-1.5 -4q0 -2 1.5 -3.5t3.5 -2.5t3 -2t1 -4
q0 -4 -4 -4q-7 0 -9.5 5t-2.5 11q0 7 3 11.5t8 8.5l1 1v1q0 3 -3 4t-5 1q-7 0 -11 -4t-7 -9h-3q-2 0 -3.5 0.5t-1.5 2.5v1v1q6 6 11.5 10t14.5 4q2 0 4.5 -0.5t4.5 -0.5v34l-0.5 0.5l-1.5 1.5l-1.5 0.5l-1.5 0.5l-18 -2v-21l-1.5 -1t-2.5 -1h-1h-1l-3 2v5q0 8 1 15t1 15
t-2 16t-5 16v1v2v2t2 2q4 0 6 -3t3 -6.5t1.5 -7t2.5 -6.5h2t4 -0.5t4 -0.5h3h2q3 0 4 2t1.5 5t0.5 6t2 4q4 -2 4.5 -5t1 -5.5t2.5 -4.5t9 -2t9.5 2.5t2.5 9.5q0 4 -3 4.5t-6 0.5v1q0 2 0.5 3.5t1.5 2.5t2 2.5t1 3.5q0 4 -0.5 5t-4.5 1q-1 0 -5.5 -2.5t-10 -6t-11.5 -6.5
t-10 -3v6q1 0 3.5 1t5 2.5t4.5 2.5t3 1q1 1 3 2t3.5 2.5l3 3t1.5 2.5q0 2 -2 3.5t-4.5 2t-5 0.5h-4.5h-3.5h-2.5q-2 -1 -3.5 -3.5t-3 -4.5t-3.5 -4t-5 -2q-2 -1 -3 1t-1 4q0 4 2 7t6 5.5t8 3.5t7 1q5 0 8.5 -1t8.5 -1q4 0 5.5 5t2.5 12t1 13v10q0 2 0.5 6.5t1 10t1 10.5
t0.5 7zM73 249q0 1 1.5 1h2.5q4 0 5 -3l2 -6q-1 -25 -0.5 -49.5t3.5 -49.5q2 -3 5 -4t5.5 -2.5t5 -3.5t3.5 -6q0 -1 0.5 -4t1 -6.5l1 -7t0.5 -6.5l0.5 -1l0.5 -1q0 -2 -0.5 -3.5t-3.5 -1.5l-1.5 0.5l-1.5 0.5l-2 2v8t-1 9.5t-3.5 8t-7.5 3.5v-3.5v-4.5v-5v-4v-3t0.5 -6
t0.5 -6v-4v-3v-3.5t1 -3t3 -2.5l1.5 -0.5t3 -0.5h3t1.5 -1q4 -2 6.5 -5.5t4 -7.5t2 -8t0.5 -8t-4 -4h-1l-1.5 1l-1.5 1q-1 0 -2 0.5l-1 0.5v16l-0.5 1t-1.5 2t-2.5 2t-2.5 1q0 1 -1.5 0t-2.5 -1v-12t2 -11.5t5 -10t10 -7.5v-1v-1q0 -3 -1.5 -3.5t-4.5 -0.5q-2 0 -5 1t-5.5 3
t-4.5 4t-3 4q-1 3 -1 8.5v11.5t-1 10.5t-5 4.5t-5.5 -3t-2 -7t0 -8t0.5 -6q-1 -2 -2 -2.5t-3 -0.5q-3 0 -4 2.5t-1 4.5q0 5 1 12t3 11q1 3 3.5 4.5t5.5 2.5t4.5 3t1.5 6v3q0 2 -0.5 7.5t-1 11.5t-1 11.5t-0.5 7.5l-0.5 0.5l-0.5 0.5h-1q-4 0 -7 -2.5t-3 -6.5v-24l-1 -0.5
l-1 -0.5q0 -1 -1.5 -1.5l-1.5 -0.5q-2 0 -4 1t-3 2v9v6.5t0.5 7.5t1.5 7.5t3 5.5t5 3l6 2t5 3t2 5q0 2 -0.5 3l-1.5 3l-2 44t-1 44v10zM116 197v1q0 1 1.5 2t1.5 2h10q2 0 9 -0.5t15 -1t14 -1.5t8 -2q-3 -4 -6.5 -4.5t-7.5 -0.5q-6 0 -11 0.5l-10 1t-10 0.5h-11l-1.5 1
t-1.5 2v0zM140 102h20q1 0 1.5 1l0.5 1v2v3v3v2l-0.5 0.5t-1.5 0.5h-20v-13zM191 106q0 2 -0.5 5.5t-1.5 3.5h-20v-2v-3.5t0.5 -3t0.5 -2.5t0.5 -2t1.5 -1h17q1 0 1.5 2.5zM169 84h21v7q0 1 -1 1.5l-1 0.5h-4h-5h-4h-3t-1.5 -0.5t-0.5 -1.5q-1 -1 -1 -3.5v-3.5z" />
</svg>
