<?xml version="1.0" standalone="no"?>
<!DOCTYPE svg PUBLIC "-//W3C//DTD SVG 1.1//EN" "http://www.w3.org/Graphics/SVG/1.1/DTD/svg11.dtd" >
<svg xmlns="http://www.w3.org/2000/svg" xmlns:xlink="http://www.w3.org/1999/xlink" version="1.1" viewBox="-10 0 266 256">
   <path fill="currentColor"
d="M68 246q0 2 0.5 3.5t2.5 1.5t3 -0.5l3 -1.5v-5.5t0.5 -8t0.5 -8v-5.5v-9v-13v-16v-16v-13v-9q1 -3 3 -3.5t4.5 -0.5t5 -0.5t5 -3t4.5 -8.5t3 -16v-6v-6q-1 -2 -1.5 -2h-2.5t-2 1t-1 4v4t-0.5 6.5t-1 6t-0.5 3.5q-1 3 -4 6t-7 3q-3 0 -4 -3t-1 -6v-1v-4v-4v-4v-7.5t0.5 -7
t2 -6.5t6.5 -4q11 -5 14.5 -15t3.5 -23q0 -2 -1.5 -4.5t-4.5 -2.5h-0.5h-0.5l-5 31l-2 1.5t-3 1.5q0 1 -1.5 1.5l-1.5 0.5h-1q-3 0 -3.5 -2.5t-0.5 -4.5q0 -8 0.5 -16t3 -14.5t7 -12.5t12.5 -9l1 -1.5t1 -2.5q0 -2 -1.5 -2.5t-3.5 -0.5h-1h-1q-1 0 -3 1.5t-4 3.5l-3.5 3.5
t-2.5 1.5q-6 5 -8 14t-3.5 17.5t-2.5 15t-4 6.5q-2 0 -3.5 -0.5t-2.5 -3.5q0 -1 -0.5 -3t-1 -5t-1 -5.5t-0.5 -3.5v-3v-4.5t-1 -4t-3 -1.5q-3 0 -4.5 2t-1.5 4q0 7 1.5 16t3.5 15q1 2 4 4t5.5 3.5t5 2.5t2.5 2v37q0 3 -1.5 5t-3.5 2q-1 0 -2.5 -1t-3 -2.5t-2.5 -3t-1 -2.5
v-28q-5 0 -7 2.5t-2 7.5v6t0.5 10.5t1.5 11t4 6.5h3t4 0.5t4 0.5h2q1 0 2 1t2 1v5v5v9.5t-0.5 16t-0.5 20t-0.5 19.5t-0.5 16v9v2zM124 232q2 4 5 6.5t7 1.5q1 0 4 0.5t6 0.5h5h4q3 0 9 0.5t12 0t11 -2.5t7 -7q1 -6 1 -12t0.5 -12t0.5 -12v-12v-25q-1 -1 -1.5 -1h-2.5h-2
t-1 1t-0.5 4t-0.5 6t-0.5 5.5t-0.5 3.5v2t-0.5 2.5l-1 3t-2.5 1.5v-0.5t-1 -0.5q-6 -3 -10.5 -6.5t-8.5 -8.5q-1 0 -1.5 -1.5l-0.5 -1.5v-19q0 -1 -1 -2t-2.5 -2t-3.5 -1.5t-3 -0.5v4v5.5v6.5v4q0 5 -1.5 8t-4 5t-5.5 4.5t-6 5.5h-5v-4v-6t-0.5 -6t-0.5 -4q-1 -3 -1.5 -3.5
t-2.5 -0.5q-1 0 -1.5 0.5t-1.5 0.5q-1 4 -1.5 7.5t-0.5 8.5q0 12 2 26.5t3 26.5zM132 220q0 -1 0.5 -2.5t1.5 -2.5q9 -1 16 -1.5t16 -0.5h16q2 2 2 3.5v2.5q0 3 -0.5 5t-2.5 5q-5 1 -8.5 2t-6.5 1h-6h-7h-7t-7 -1t-5 -3.5t-2 -7.5zM151 181h4q3 0 8 2t9.5 5.5t8 7t3.5 6.5v2
t-2 1q-13 1 -26 1.5t-27 0.5q0 -3 0.5 -4.5t1.5 -2t2 -1.5t3 -2l3 -3t4.5 -5t4.5 -5zM170 148q0 2 1 3.5t3 1.5q3 0 4.5 -2.5t3 -6t1.5 -7t1 -5.5q2 -4 7 -8.5l10 -9t9 -8.5t4 -8v-62q0 -3 -1 -7t-4 -5h-2h-3.5h-3.5h-2h-6t-10 0.5t-9 2t-4 3.5h5q3 0 6.5 0.5t6 0.5h4.5h3
t4.5 0.5t4.5 2t2 3.5v50q-1 1 -1.5 3.5t-0.5 4.5t-0.5 4.5t-1.5 4.5q-5 5 -10 9.5t-9.5 9.5t-8 10.5t-3.5 14.5zM153 61q0 12 -1 19t-3.5 12t-6.5 10t-11 13q-2 3 -3.5 7t-3 8.5t-2 8.5t-0.5 7q6 0 8 -3t3 -7.5t1.5 -9t3.5 -7.5q0 -1 2.5 -4t5 -6.5t5 -6t3.5 -4.5t2 -6t3 -7
v-59q0 -2 -1 -3t-3 -1.5t-4 -0.5h-3h-6t-11 0.5t-10.5 2t-4.5 4.5q0 2 2 2.5t3 0.5q5 0 8.5 -1t8.5 -1h5.5h3.5q4 2 5 6.5t1 9.5v9.5v6.5zM167 106q0 1 1 2t2 1q4 0 8.5 -1.5t8.5 -3.5t6.5 -5.5t2.5 -7.5q-1 0 -6 2l-10 4t-9 5t-4 4zM141 79q-1 0 -5.5 3t-9.5 6.5t-8.5 7
t-3.5 5.5q2 0 7 -2t10 -5t9 -5.5t4 -5.5q0 -2 -0.5 -3t-2.5 -1zM194 68q-1 0 -5.5 2t-9.5 5t-8.5 6t-3.5 4q3 0 7.5 -0.5t9.5 -2t8.5 -4.5t3.5 -7l-0.5 -1.5t-1.5 -1.5zM114 76q0 2 4 2q2 0 6.5 -1t8.5 -3.5t7 -5t3 -5.5q0 -2 -1 -3t-4 -1h-1h-1l-2.5 2.5t-4 3t-4.5 3
l-2 1.5l-1.5 0.5t-3 1.5l-3 2t-1.5 3zM195 42h-1q-1 1 -2.5 1.5t-3 1.5t-2.5 1.5t-2 0.5q-2 2 -4.5 3.5t-4.5 3l-4 3l-2 1.5v3q3 0 8 -1t9.5 -3.5t7.5 -5.5t3 -6v-1l-0.5 -0.5t-0.5 -1.5h-1zM143 34q-2 0 -6.5 1.5t-9 4.5t-8 6t-3.5 6q3 0 6.5 -1t7 -3t6.5 -3.5t7 -2.5v-8z
" />
</svg>
