<?xml version="1.0" standalone="no"?>
<!DOCTYPE svg PUBLIC "-//W3C//DTD SVG 1.1//EN" "http://www.w3.org/Graphics/SVG/1.1/DTD/svg11.dtd" >
<svg xmlns="http://www.w3.org/2000/svg" xmlns:xlink="http://www.w3.org/1999/xlink" version="1.1" viewBox="-10 0 266 256">
   <path fill="currentColor"
d="M176 248q0 2 1 2.5t3 0.5q3 0 4 -2t1 -4v-16q0 -11 -0.5 -22t-0.5 -22v-10q0 -2 1 -2h2h1.5t1.5 2q2 4 3.5 9t2 9.5t1 9.5t0.5 10v15q1 0 2 1t1 2h1q2 0 3 -2.5t1 -5.5v-6v-4q0 -5 -1 -11t-2.5 -13t-3 -13t-2.5 -11q-1 -3 -3 -4t-4.5 -2.5t-4 -3.5t-1.5 -6q0 -5 1 -6.5
t2.5 -2t3.5 -0.5q3 0 6 -2q1 0 2.5 -3t1.5 -5v-24l-1 -1l-2 -2v0h-1l-3 2v22q0 3 -1 3.5t-2 0.5t-3 -0.5t-2 -1.5v-33q5 -3 7.5 -9t3.5 -11q1 -1 3.5 -1.5t4.5 -1t4 -1.5t2 -3l-0.5 -0.5l-0.5 -0.5l-1 -0.5t-2 -0.5q-1 -1 -5 -1.5t-5 -0.5q-1 -2 -3 -4t-3 -4q-2 2 -3 3.5
l-2 3t-2.5 2.5t-4.5 1q-2 0 -3.5 -1.5t-2.5 -3.5t-2 -3.5t-2 -1.5q-3 0 -3 1.5v3t-1.5 3t-7.5 1.5v-18l3 -3h2h3q4 0 8 1t8 2.5t8.5 2.5t8.5 1l1.5 -0.5t1.5 -1.5t-1.5 -3.5t-2.5 -2.5l-41 -8v-2q0 -4 0.5 -8t0.5 -8q0 -2 -1 -3.5t-3 -1.5v0q-1 1 -2.5 1.5l-1.5 0.5v21l-4 2
q-3 0 -9.5 1.5t-13 3.5t-12 4.5t-5.5 4.5t2.5 3t4.5 1q4 -1 8 -2.5t8 -3.5t8.5 -3.5t9.5 -1.5h2t1 2l0.5 3t0.5 4t-0.5 3.5t-0.5 3.5t-0.5 3.5l-0.5 2.5h-9q0 -1 -0.5 -2.5t-1.5 -3t-1.5 -3t-1.5 -1.5q-2 0 -3 2l-2 4t-2 3.5t-4 1.5t-5 -1t-3.5 -2t-2.5 -2l-1 -1h-0.5h-0.5
q-1 2 -1.5 3.5t-1 2t-2 1l-4.5 1.5v1v2.5t1 0.5q5 3 6.5 5.5t2 5.5t1.5 6.5t5 7.5q0 1 0.5 3.5l1 5t0.5 5.5v4v1q0 4 -1 8.5t-2 8.5h-0.5h-0.5q-3 0 -3.5 -4t-1 -9.5t-1.5 -10t-5 -4.5q0 7 -0.5 12.5t0.5 9.5t4 7.5t9 6.5q1 0 1 2.5v2.5q0 5 -2.5 7.5t-5.5 5l-6 5t-3 7.5
l-3 46q-2 1 -2 3v4t0.5 3.5t2.5 1.5t3 -1.5l2 -3t1 -3v-3.5v-26q1 -6 2 -13.5t3 -13.5l1.5 -1.5t1.5 -0.5t2 0.5t1 1.5v75q0 1 2 2t3 1q3 0 3 -5q-1 -38 1 -76q1 -1 2.5 -1.5t2.5 -0.5q3 2 4.5 5t2 7.5t0.5 8.5v7q0 8 -0.5 17t-0.5 18v4t3 2h2t1 -2q0 -1 0.5 -5t1 -8.5l1 -9
t0.5 -5.5v-2v-2q0 -6 -1 -12.5t-1 -13.5v-2v-4t0.5 -3.5t0.5 -2.5l0.5 -2t2 -3.5l3 -3t3.5 -1.5t4.5 1.5t5 4.5t4.5 6t2 4q1 2 0 4.5t-2 6t-2 6t-2 3.5q-2 9 -3 19t-1 20v3t3 1q2 0 3 -2t1 -4t0.5 -6t0.5 -8.5t0.5 -9t0.5 -5.5q0 -3 0.5 -6.5t1.5 -7t3 -6t5 -2.5
q0 20 -0.5 38.5t-0.5 38.5zM65 202v21l3 19q0 1 1.5 1h2.5h2.5t1.5 -3v-9q0 -21 -1 -41.5t-1 -40.5q0 -3 1.5 -4.5t3.5 -2t4 -1.5t3 -3q2 -4 3.5 -7.5t2 -6.5t0.5 -6.5v-9.5q0 -1 -1 -3t-3 -2t-3 5t-1.5 10.5t-1.5 10.5t-5 5l-0.5 -0.5l-0.5 -0.5q-3 -4 -2.5 -11t0.5 -11v-3
v-4.5v-4.5v-3q2 -3 4 -3.5t5 -1.5q5 -2 7 -5.5t3 -8t1 -9.5v-8q0 -5 -5 -9l-1 2q0 1 -0.5 4t-0.5 6.5t-0.5 6.5t-0.5 4q0 2 -1 4.5t-3 3.5q-1 0 -3.5 -0.5l-2.5 -0.5v-17q2 -2 1.5 -5.5t-0.5 -5.5q1 -5 4.5 -8.5t7 -6t7 -4t2.5 -2.5q0 -3 -1.5 -3h-3.5q-9 0 -13.5 3.5
t-7 9.5t-3 13t-0.5 13t-1 11t-3 6q-3 -2 -5 -5.5t-2.5 -8t-0.5 -8.5v-7q-2 -4 -6 -4q0 7 -0.5 13t1 11.5t4.5 9.5t10 7v34l-1 6q0 1 -1 1q-2 0 -3 -1t-2 -2.5l-2 -3t-2 -2.5v-20q0 -2 -2 -2h-3h-2t-1 2l-0.5 2t-0.5 3q0 6 1 11t2.5 8.5t4.5 7t8 6.5l2 2l2 2q-1 14 -1 27.5
v27.5zM155 140q-1 -7 -1.5 -12t-0.5 -9v-9v-11v-16q1 -1 1 -3t1 -3.5t2 -2.5t3 -1h3.5t2.5 1v14l1.5 1t2.5 2l2.5 1.5t3.5 1.5l0.5 0.5t0.5 1.5v36q0 1 -1 1.5t-2 0.5q-3 0 -4 -3t-1 -7t-0.5 -8t-3.5 -5l-1 1v3v3v8.5t1 8.5q1 2 2.5 3t3.5 2t3.5 2t2.5 2q0 1 0.5 3t0.5 3
q0 3 -0.5 5.5t-1.5 5.5h-1h-1t-4 -2.5t-6 -6.5t-6 -7.5t-3 -4.5zM123 145q0 -1 1.5 -2t3.5 -2l4 -2t3 -2q2 -6 3.5 -12t1.5 -12q0 -2 -1 -4.5t-3 -2.5q-3 0 -3 4.5t-0.5 10t-2 10t-6.5 4.5v-30q0 -4 1.5 -6t4 -4t4.5 -4.5t2 -7.5q1 -4 1 -6.5t6 -2.5h2.5t1.5 3v67
q-1 2 -2.5 3.5t-2.5 3t-3 3t-3 1.5q-5 0 -9 -2.5t-4 -7.5zM115 82q0 -5 2 -6.5t7 -1.5q4 0 4.5 1.5t0.5 4.5q0 5 -1.5 8t-6.5 3q-4 0 -5 -3t-1 -6zM173 79v-2v-3q1 0 3 -0.5t3 -0.5h1h3t2 1v2.5v2.5t-0.5 3t-1.5 3.5t-2.5 3t-3.5 0.5q-3 0 -3.5 -3.5t-0.5 -6.5z" />
</svg>
