<?xml version="1.0" standalone="no"?>
<!DOCTYPE svg PUBLIC "-//W3C//DTD SVG 1.1//EN" "http://www.w3.org/Graphics/SVG/1.1/DTD/svg11.dtd" >
<svg xmlns="http://www.w3.org/2000/svg" xmlns:xlink="http://www.w3.org/1999/xlink" version="1.1" viewBox="-10 0 266 256">
   <path fill="currentColor"
d="M129 223v4q0 2 0.5 4.5t0.5 4.5v2v3t0.5 4t1.5 4t2 2q5 0 6 -3.5t1 -7.5v-4q0 -3 -1 -4v-2.5t-0.5 -3.5t-0.5 -4v-2v-3q0 -1 0.5 -3t0.5 -3.5v-1.5q0 -2 1.5 -7.5l3 -11t3 -10.5t2.5 -7v-2.5v-2.5q0 -5 -2.5 -8.5t-4.5 -7t-4.5 -7t-2.5 -9.5q0 -2 2 -3t4 -1t4 -0.5
t3.5 -2t2.5 -6t1.5 -10t1 -10.5t0.5 -7v-3t-0.5 -4t-1.5 -3t-3 -1q-3 0 -3.5 2t-0.5 5v5.5t-3 2.5h-13q-3 0 -2.5 -2t0.5 -4.5t-0.5 -5t-3.5 -2.5q-1 0 -2.5 1t-1.5 3v31l0.5 2t0.5 3q3 7 5 11.5t4 12.5q-1 2 -6 7l-10.5 10.5t-9.5 10t-4 5.5q0 4 3 4q5 0 9 -4t8 -7
q0 -1 2.5 -3l5 -4t4.5 -4t2 -3h1.5h0.5q2 0 3 1.5t2 3.5t1.5 3.5t0.5 3.5q0 4 -1.5 8t-4 8.5t-4.5 8.5t-3 8v4q0 2 -0.5 4.5t-0.5 4.5v3zM186 224v6.5t0.5 9t2.5 8t6 3.5q2 0 3 -2v-10q0 -6 -1 -12.5t-1 -13.5q0 -6 1.5 -11.5l3 -11l3 -11t1.5 -10.5t-3 -8t-6.5 -6t-6.5 -6
t-3 -8t2.5 -6.5t5.5 -3t5 -5t2 -10.5q0 -8 -1.5 -15.5t-1.5 -15.5q-1 -2 -1.5 -2h-1.5q-3 0 -4 1.5t-1.5 4t0 5t0.5 3.5l-4.5 1.5t-4.5 0.5q-5 0 -7 -2.5t-2.5 -5t-1 -4.5t-2.5 -2t-3 1.5t-1 3t0.5 3.5t0.5 3v9v7t0.5 8.5t0.5 9.5l0.5 0.5t1.5 0.5q0 1 1.5 1.5t3 1.5t3 1.5
t2.5 1.5v2.5v3.5q0 8 -3 13.5t-7 10t-7 9t-3 10.5q4 0 8 -3t7.5 -7t7 -8.5t5.5 -6.5l1 -0.5l1 -0.5q2 0 3.5 1.5t2 4t1 4.5t0.5 4q0 4 -0.5 7t-2 6t-2.5 6t-2 7q-2 7 -2 12v12zM66 244l2 1h1q2 0 3 -1.5t2 -4t1.5 -4.5t1.5 -3q1 -24 1.5 -48t-0.5 -47q0 -1 0.5 -1.5
t1.5 -0.5q5 -2 8 -3t4.5 -3t2.5 -5.5t3 -9.5q1 -3 1.5 -4l1 -2l1 -2t0.5 -3q0 -3 -1.5 -5t-4.5 -2t-3.5 4.5t-1 9.5t-2 9t-6.5 4h-3t-2 -2v-47l0.5 -0.5t1.5 -0.5q6 -3 10 -5.5t6.5 -6t3.5 -9t1 -13.5v-1q0 -1 -0.5 -2l-0.5 -1l-1 -1q-5 0 -6 4.5t-1 9.5t-1 9t-7 4h-2.5
t-1.5 -2q0 -1 -0.5 -4.5t-0.5 -4.5q0 -10 4 -19.5t12 -14.5q-1 -1 -2 -2.5t-2 -1.5l-1.5 0.5t-3.5 1.5t-3 2l-2 2q-4 4 -6.5 9t-3.5 11t-1 12v12q-1 0 -2 0.5t-2 0.5q-6 0 -7 -4.5t-1.5 -10t-1 -9.5t-6.5 -4q-2 0 -2.5 1t-0.5 3q0 6 0.5 12t3 10.5t6.5 7.5t11 4q2 7 2 16v16
v3v7v5.5v4.5q-1 0 -3 0.5l-2 0.5q-6 0 -7.5 -5t-2 -11.5t-1.5 -11.5t-5 -5q-1 0 -2.5 0.5t-1.5 1.5v6v8.5t1 9t3 8.5t6 6q2 1 3.5 1t3.5 0.5t3.5 1.5t2.5 2v5.5v6.5v8v4q0 17 -1 32.5t-1 31.5v18zM171 116q0 -1 1 -3l1 -2q1 -1 2 -1.5t2.5 -1l3 -1t2.5 -0.5h1q7 0 7 8
q0 5 -3 7.5t-8 2.5q-4 0 -6.5 -2.5t-2.5 -6.5zM128 115q0 -1 0.5 -3.5t2.5 -2.5l14 2v1.5v1.5q0 9 -8 9q-4 0 -6.5 -2t-2.5 -6zM105 83q0 2 1.5 2h2.5q3 0 7 -3t7.5 -7.5t5.5 -8.5t2 -7q1 -2 3.5 -5t5 -6.5t5 -6.5t3.5 -5q2 -2 3 -3.5t3 -1.5q4 0 8 2.5t8 5.5t7 7t6 6v0.5
v1.5v2t-2 1q-1 0 -4 0.5t-6.5 0.5t-6.5 0.5t-5 0.5h-5.5h-7.5t-7 1.5t-3 4.5v2.5t2 1.5h7h9h8t8.5 -0.5t10.5 -0.5q2 -2 3.5 -5t1.5 -4h1h1q5 3 10 8.5t8 8.5h1.5h1.5q2 0 3 -1t1 -3q0 -3 -3 -7t-8 -9t-11 -10t-11.5 -9.5t-10.5 -8.5t-8 -5q-1 -1 -2 -2.5t-1.5 -3t-1.5 -2.5
t-3 -1h-1h-1q-1 4 -5.5 9.5t-9.5 12.5t-10.5 14.5t-10 14t-7.5 11.5t-3 7z" />
</svg>
