<?xml version="1.0" standalone="no"?>
<!DOCTYPE svg PUBLIC "-//W3C//DTD SVG 1.1//EN" "http://www.w3.org/Graphics/SVG/1.1/DTD/svg11.dtd" >
<svg xmlns="http://www.w3.org/2000/svg" xmlns:xlink="http://www.w3.org/1999/xlink" version="1.1" viewBox="-10 0 266 256">
   <path fill="currentColor"
d="M143 201q2 6 3 12t3.5 11.5t5.5 10.5t7 9q3 2 4.5 4.5t5.5 2.5q2 0 3.5 -1t1.5 -3q0 -3 -3 -5t-7 -4.5t-7 -6t-3 -8.5q0 -2 0.5 -5t2 -5.5t3 -4.5t3.5 -2q1 0 2 1t2 3t1.5 4t0.5 3t0.5 3t0.5 4.5t0.5 4.5t0.5 3h2q3 0 3.5 -1.5t0.5 -4.5q0 -4 -1 -8.5t-2.5 -9t-2.5 -8.5
l-2 -8q-1 -2 -2 -2.5t-3 -0.5t-4 2t-3.5 5t-3 6.5t-2.5 4.5v1q-2 0 -2.5 -3.5t-1 -8t-2 -8t-5.5 -3.5q-2 0 -4 3t-4.5 7.5t-4.5 10.5t-4 11t-3 9.5t-1 7.5q5 0 7.5 -5t4.5 -11.5t4 -11.5t5 -5v0zM100 245q0 2 0.5 3t2.5 1q3 0 5.5 -5t4.5 -13t3.5 -17.5t2.5 -18t1.5 -14.5
t0.5 -7l6 -3t8.5 -4t8.5 -3.5t7 -0.5l27 6l2 2v4.5t0.5 7.5t0.5 7.5t1 4.5q0 1 0.5 4t1.5 7t1.5 7t0.5 4q0 2 1 7.5l2 11t2.5 9.5t4.5 4t4 -0.5t1 -4.5q0 -6 -2.5 -12t-4.5 -12q-3 -14 -5.5 -29t-2.5 -29v-7q1 -3 4 -3.5t5.5 -1.5t4.5 -4t2 -11v-3v-3q-1 -1 -1.5 -1h-1.5
q-2 0 -3 2t-1.5 4.5t-1.5 5.5t-2 4q-1 0 -2 -1t-2 -1v-18q-1 0 -2.5 0.5t-1.5 1.5l-3 18q0 1 -1.5 1.5l-1.5 0.5q-2 0 -3.5 -2t-2 -4l-1 -4t-0.5 -3h-3q0 8 1.5 12t4 6t4 3.5t1.5 3.5q0 3 -1.5 3h-3.5q-4 0 -7 -2t-5.5 -4.5t-4 -4.5t-2.5 -2h-1v0.5t-1 1.5l-2 2l-2 2t-2 1
q-1 1 -4 2.5l-6 3t-5.5 3t-3.5 1.5h-4v-2.5v-3t-0.5 -3l-0.5 -1.5q1 -2 3.5 -3t5.5 -2.5t5.5 -5t2.5 -10.5v-4q0 -2 -3 -2h-1q-1 0 -1.5 2l-1 4t-1.5 3.5t-3 1.5q-3 0 -3 -2.5t0.5 -5.5t0 -5.5t-2.5 -2.5t-3 2.5t-1.5 6.5t-1 7.5t-1.5 5.5v0.5t-1 0.5v-0.5v-0.5
q-1 0 -2.5 -0.5l-1.5 -0.5v-15q0 -1 -1.5 -1t-3 -0.5t-2.5 -0.5q0 1 0.5 3t0.5 5v4v3q0 4 3.5 6t6.5 4l0.5 0.5l0.5 0.5v3v3q0 6 -0.5 15t-2 18t-3.5 18t-4 15q-1 5 -3.5 10t-2.5 10zM68 239q0 2 1 4.5t3 2.5t4 -2.5t2 -4.5q0 -20 0.5 -41t1.5 -41q6 -3 9.5 -7t6 -9.5
t3 -11.5t0.5 -12q0 -3 -1.5 -5t-3.5 -2q-3 0 -3 4.5t-0.5 10.5t-1.5 12t-5 8q0 1 -2.5 0l-2.5 -1q0 -13 -0.5 -24.5t-0.5 -22.5q0 -2 2 -4t5 -4t5.5 -4t3.5 -4q3 -5 3 -11.5v-12.5v-6l-1.5 -1.5l-1.5 -1.5h-1h-1l-0.5 0.5t-0.5 1.5q-1 5 -1 10.5t-0.5 10t-2.5 7.5t-9 3v-9.5
t0.5 -12t1.5 -11.5t3 -8q1 -2 3.5 -3.5t4.5 -3.5l4 -4t2 -4q0 -3 -1 -3.5t-3 -0.5q-4 0 -8 2t-6.5 5.5t-4.5 8t-2 8.5q0 2 -0.5 7.5t-1 11.5t-0.5 11.5v7.5h-2q-2 0 -5 -1t-3 -4v-27l-1 -0.5t-2 -0.5q0 -1 -1.5 -1.5l-1.5 -0.5h-1h-1l-0.5 0.5t-0.5 1.5v2v3v3v3v6v8t1.5 7.5
t3.5 5.5q1 2 4 2t5.5 0.5t4.5 2t2 4.5v45q0 3 -1.5 3.5t-2.5 0.5q-5 0 -7 -4t-2 -8v-22q0 -2 -1.5 -2h-2.5h-2.5t-1.5 2v9v13t1 15q1 2 3.5 3l5 2t5.5 1h4l2 3v3v4q0 19 -2 37.5t-2 36.5zM150 139l1 0.5t2 0.5h1q2 0 2.5 -1.5t1 -4t0.5 -4.5t1 -4q1 -1 4.5 -2.5t7.5 -3.5
l8 -4l6 -3v0v-1v0q-1 -2 -2.5 -3.5t-3 -3.5l-3 -4t-1.5 -3q0 -7 2.5 -11t5.5 -8t5.5 -8t2.5 -9q0 -2 -1 -2.5t-2 -0.5q-2 0 -2.5 1.5t-1.5 4t-2 4.5t-2 3l-2 -2v-2.5t-0.5 -5.5t-0.5 -6.5v-5.5v-5q4 0 8 0.5t8 4.5q4 12 5.5 25.5t1.5 26.5h2q4 0 5.5 -2t1.5 -5t-1 -11
t-3 -16.5t-4 -16t-4 -9.5q-2 -4 -7.5 -4.5t-11.5 -0.5q-5 0 -10.5 -0.5t-8.5 -4.5q1 -4 1.5 -7.5t0.5 -7.5q0 -3 -1.5 -3.5t-3.5 -0.5t-2.5 0.5t-0.5 2.5q0 1 -0.5 3.5t-0.5 5t-0.5 5t-0.5 3.5l-1 2q-15 1 -23.5 4.5t-12.5 10t-5 16.5t-1 24v4v3l2 2l3 -3q0 -2 0.5 -6.5
l1 -9l1 -9t0.5 -6.5q1 -3 2 -6.5t3 -6.5t5 -4.5t7 -1.5q3 0 4.5 0.5t1.5 4.5v2t-1 1q0 1 -0.5 2l-0.5 1v2t0.5 2.5t0.5 2.5v1q1 1 0.5 3l-0.5 2h-4v-13l-1.5 -0.5l-1.5 -0.5q-1 0 -1.5 0.5l-0.5 0.5v18q6 3 8.5 9.5t0.5 12.5l3 3l4 -17q6 -5 8 -12t2 -14q-3 0 -3.5 1.5l-1 3
t-1.5 3t-4 1.5v-23h25q0 1 0.5 4l1 6t0.5 5.5v3.5t-0.5 4t-1.5 4l-0.5 1l-0.5 1q-2 -1 -3 -2.5t-1.5 -3.5t-0.5 -4v-3h-0.5h-0.5q-1 0 -1.5 1t-0.5 2.5v2.5v2q0 6 2 8.5t7 5.5v13l-0.5 1l-0.5 1h-1q-3 0 -4.5 -1.5t-2 -3.5t-1 -3.5t-2.5 -1.5q-3 0 -4 2t-2 4.5t-2.5 4.5
t-3.5 4q-2 1 -6 2l-8 2t-7 3t-3 7q5 0 10.5 -2t10 -4.5t8 -4.5t6.5 -2q5 0 9 2t8 6q-2 4 -6 5.5l-8 3t-7 4.5t-3 10v6z" />
</svg>
