<?xml version="1.0" standalone="no"?>
<!DOCTYPE svg PUBLIC "-//W3C//DTD SVG 1.1//EN" "http://www.w3.org/Graphics/SVG/1.1/DTD/svg11.dtd" >
<svg xmlns="http://www.w3.org/2000/svg" xmlns:xlink="http://www.w3.org/1999/xlink" version="1.1" viewBox="-10 0 266 256">
   <path fill="currentColor"
d="M169 200q2 3 3.5 11t3.5 16.5t4 15t6 6.5h1l1.5 -0.5l1.5 -0.5v-5v-5q0 -1 -1 -4l-2 -6l-2 -6t-1 -4q-3 -10 -5 -20.5t-2 -20.5q0 -3 0.5 -7.5l1 -9t2.5 -8t4 -3.5h2q2 2 4 4.5t5 5t6 4t6 1.5q2 0 3.5 -0.5t1.5 -3.5t-4 -6t-8.5 -6.5t-8.5 -7t-4 -8.5v-1q2 -4 5 -7t5 -7
t4 -7.5t2 -7.5q-4 0 -6.5 2t-4 5t-3.5 5t-5 2q-2 0 -3.5 -2.5t-2.5 -5.5t-1.5 -6.5t-0.5 -5.5v-3v-2l2 -2h21l1.5 -1.5t1.5 -2.5t0.5 -1h0.5q0 -2 -2 -2.5t-3 -0.5h-2q-1 0 -3.5 0.5t-5 0.5t-5 0.5t-3.5 0.5h-1v0v0q-1 0 -1.5 -0.5t-0.5 -1.5v-11q0 -1 0.5 -1.5t1.5 -0.5
l1.5 -0.5l1.5 -0.5h2h3h3h2q3 -1 4.5 -4t2.5 -6t1.5 -6.5t0.5 -5.5q0 -1 0.5 -3t0.5 -5v-5v-3q-4 0 -5.5 2t-2 5.5l-1 7l-1 7t-2.5 5.5t-6 2h-3t-2 -1v-5.5v-5.5q0 -6 1.5 -12.5t1.5 -13.5q0 -2 -1 -4t-4 -2h-1.5t-1.5 1l-2 6t-1 6v6v5v5v9v8v5t-0.5 3.5t-0.5 5.5t-0.5 5.5
t-0.5 3.5q-10 1 -21 1.5l-22 1t-21.5 2t-20.5 3.5q-3 2 -4 8t-1 12.5t-1.5 11.5t-6.5 5q-2 0 -3.5 -0.5t-0.5 -3.5v-16v-17q0 -4 0.5 -6t2 -3.5t3.5 -2.5t5 -3q2 -1 4 -4.5t3 -7.5t1.5 -7.5t0.5 -6.5v-7q-1 -1 -2 -1h-2q-3 0 -3.5 4t-1 9t-1.5 9t-6 4q-1 0 -1.5 -1t-1 -2.5
t-0.5 -3.5v-2q0 -7 1.5 -14.5t5.5 -12.5q1 -1 4 -3.5t6 -4.5t5.5 -4.5t2.5 -4.5q0 -3 -2 -3h-4h-3.5t-1 0.5l-1.5 1.5l-3 3q-7 6 -11 11t-5.5 11t-2 12.5t0.5 16.5q1 4 -3 4q-2 0 -2 -1t-1 -3q-3 -6 -3 -10.5t-1 -12.5q0 -1 -1 -1.5t-2 -0.5q-2 0 -3 0.5t-2 1.5v4v4q0 4 1 9
t2.5 9t5 7t8.5 5v38l-1.5 1t-1.5 2h-1q-4 0 -5 -4.5t-1.5 -9.5t-1.5 -9.5t-5 -4.5v31q0 4 2 6t4.5 3.5t5.5 2t5 2.5v10q0 19 -2.5 38t-2.5 38q0 3 0.5 4.5t3.5 1.5q2 0 5 -1t3 -4v-87q1 -1 2.5 -1.5t3.5 -1.5t3.5 -1.5t2.5 -0.5t1.5 -1l0.5 -1q1 -2 2.5 -8.5t3.5 -13
t3.5 -11.5t3.5 -5h19v25q0 1 -2.5 1h-3.5q-3 0 -4 -2.5t-1.5 -5.5t-1 -5.5t-1.5 -2.5t-2 0.5t-2 1.5v6q0 8 3 11t6.5 4t6.5 2.5t3 6.5v4q0 2 -0.5 4t-1.5 3.5t-3 1.5q-4 0 -5 -2t-2 -4.5t-2 -4t-3 -1.5t-2.5 1t-0.5 3q0 7 1.5 10t4 4t6.5 1.5t7 3.5l0.5 2.5t0.5 3.5
q0 3 -1 7t-6 4q-3 0 -4 -2.5l-2 -5t-2 -4.5t-4 -2v17q0 2 2.5 3.5t5.5 2t5.5 0.5t3.5 1q2 0 2 2v3v2q0 1 -0.5 3t-1.5 2h-23q-1 0 -3 2t-2 3q0 3 2.5 3.5t4.5 0.5h4q4 0 13.5 -1t20 -2t20 -1.5t13.5 -0.5l2 -2t1 -2v0v-1l-0.5 -1l-0.5 -1h-5q-3 0 -6.5 -0.5t-6 -2t-2.5 -3.5
q0 -6 2.5 -7t6 -2.5t6.5 -4.5t3 -12q0 -1 -0.5 -2t-2.5 -2q-3 1 -3.5 3t-0.5 4.5t-1 4t-6 1.5q-4 0 -5 -0.5t-1 -4.5q0 -9 3 -11.5t6.5 -4t6 -4t2.5 -10.5v-3t-3 -1q-2 0 -2.5 1.5t-1 3.5l-1 4l-0.5 2l-1.5 0.5l-1.5 0.5q-2 0 -3 -1.5t-2 -3.5t-1 -4v-3q0 -4 1 -6t3.5 -3
t5 -1.5t4.5 -2t3.5 -4.5t1.5 -9v-6q0 -1 -1 -1.5t-2 -0.5q-3 0 -3.5 3t-1 6.5t-1 6.5t-2.5 3t-4 -1t-3 -3q-1 -4 -1.5 -8.5t-0.5 -9.5q0 -4 3 -6t7 -3t8 -1h6h1q0 1 1.5 1.5l1.5 0.5q0 6 1.5 11t3.5 10t3.5 10.5t1.5 10.5q0 6 -2.5 11t-3.5 10q-2 5 -2.5 9l-1 8t-0.5 8v8v13
zM121 196q0 -3 -0.5 -11.5t-1 -18t-0.5 -17.5v-12v-1v0q0 -1 0.5 -3.5t1.5 -3.5v-33q0 -1 1 -1.5t2.5 -1t3 -0.5h2.5t3 0.5t2 2.5v90q0 2 -0.5 4.5t-1.5 4.5t-2.5 3.5t-3.5 1.5q-1 0 -3.5 -1t-2.5 -3zM101 78l1.5 0.5l1.5 0.5l1 -0.5t1 -1t0.5 -2t1.5 -2.5q0 -1 0.5 -5l1 -8
l1 -8t0.5 -6h8q2 0 1.5 5t-0.5 11t0.5 11t3.5 6q2 -1 3 -3.5t1.5 -5.5t0.5 -6v-5v-4.5t-0.5 -7.5t-2 -7t-4.5 -3h-26q-1 0 -1.5 1t-0.5 2q0 2 1.5 3.5t3 2.5t3 3t1.5 6q0 5 -1 9.5t-1 9.5v4zM138 75q0 3 4 3q1 0 2.5 -0.5t1.5 -2.5v-27l2 -2l3 -3h1q3 0 4.5 2t1.5 5v25
l0.5 0.5l0.5 0.5q1 0 2.5 -0.5l1.5 -0.5v-37l-5 -3h-22q-1 0 -2.5 1.5t-1.5 3.5v2q5 0 6.5 1.5t1.5 6.5q0 6 -1 12t-1 13z" />
</svg>
