<?xml version="1.0" standalone="no"?>
<!DOCTYPE svg PUBLIC "-//W3C//DTD SVG 1.1//EN" "http://www.w3.org/Graphics/SVG/1.1/DTD/svg11.dtd" >
<svg xmlns="http://www.w3.org/2000/svg" xmlns:xlink="http://www.w3.org/1999/xlink" version="1.1" viewBox="-10 0 266 256">
   <path fill="currentColor"
d="M121 248q1 2 2 2h3q4 0 6 -3t2 -7v-45l1 -0.5t2.5 -1t3.5 -1t3 -0.5h3h7h7h4q5 -1 9 -3.5t6.5 -6.5t5 -8.5t3.5 -8.5v-2q0 -3 -1.5 -4.5t-4.5 -1.5q-1 0 -3 2.5t-4 6.5t-3.5 7.5t-2.5 4.5q-2 3 -5.5 4t-7 1h-7.5h-6h-7l-3 -1v-1.5v-2.5v-1v-2t0.5 -2l0.5 -1q2 0 5 -0.5
t7 -1t7 -1t4 -1.5q4 0 5 -2t1 -4.5t0.5 -5t1.5 -4.5l3 -3l2 -2q1 -1 1 -4.5t0.5 -7t2 -6t4.5 -2.5t3.5 1.5t0.5 3.5q0 4 -1 7.5t-1 6.5q0 2 0.5 3.5t3.5 0.5q1 0 2.5 -1.5l1.5 -1.5l4 -24h0.5h1.5q3 0 5 2.5t3 5.5t1 6.5v5.5q1 2 1.5 2h1.5q3 0 4 -3t1 -5q0 -12 -4.5 -16.5
t-14.5 -5.5v-5q16 -2 16 -17q0 -6 -2 -8.5t-4.5 -4t-4.5 -3t-2 -5.5t2 -6t5 -4t5.5 -4.5t2.5 -7.5t-0.5 -7.5t-2 -4t-4.5 -2t-6 -3.5q-3 -1 -3.5 -3t0 -4l1 -4t0 -4t-3 -3t-7.5 -1v21q-5 1 -9.5 3.5t-4.5 7.5q0 6 2.5 9.5t6 6t6 5t2.5 5.5q0 5 -3 7.5t-6.5 4.5t-6 4t-2.5 8
q0 3 2 5t4.5 3.5t4.5 3.5t2 6v1v2q-1 0 -3 0.5t-4 1.5t-4 1.5t-2 1.5q-3 1 -4 4t-1.5 6.5t-0.5 7.5q0 3 -1 5l-2 3t-4.5 6t-4.5 5.5l-2 2.5h-16q0 -8 3 -11t6 -4t6 -1.5t3 -3.5v0q-4 -1 -6.5 -1.5t-5.5 -0.5h-1.5h-1.5q-7 2 -9 6t-3 8t-2 6.5t-7 2.5q-4 0 -5.5 -2t-2 -5
t-2 -5.5t-3.5 -2.5q-3 0 -3 2.5v4.5q0 7 3.5 10t8 4t8.5 1.5t4 1.5v11h-20q-4 0 -6.5 -3t-4 -6.5l-3 -7t-3.5 -3.5q-3 0 -4.5 2t-1.5 4t1.5 5.5t3.5 7.5t4.5 7t5.5 3h25q3 0 3 2.5v4.5q0 9 -1.5 19t-1.5 20v10zM67 110q0 3 -1.5 4t-3.5 1.5t-4.5 1t-3.5 1.5q-5 8 -6 15
t-1 16q6 0 8 -4t2.5 -9t1 -9t4.5 -4q1 0 1.5 1t1.5 1q0 1 0.5 2l0.5 1v21h2.5h2.5q0 -1 1 -1.5l1 -0.5v-23q1 0 4.5 -0.5t4.5 -0.5t2 1l1 1v18l1 1l1 1q1 1 2 1.5t2 0.5q2 -1 2.5 -3t0.5 -3q0 -5 -0.5 -11.5t-2.5 -11.5q-2 -1 -4.5 -2t-5.5 -1.5t-5 -2t-2 -4.5v-1
q8 -3 12.5 -7.5t4.5 -12.5q0 -5 -2.5 -8t-6 -5t-6 -3.5t-2.5 -3.5q0 -3 2.5 -4.5t6 -2.5t6 -2.5t2.5 -3.5v-15q0 -3 -2 -4.5t-4.5 -2.5t-4.5 -2.5t-2 -4.5q0 -1 -0.5 -2.5t-0.5 -3.5q0 -3 0.5 -4.5t0.5 -2.5q-1 -2 -2.5 -2h-2.5q-2 0 -3 0.5t-2 3.5q0 6 -1 9.5t-2.5 5
t-4 2.5t-4.5 2.5t-3.5 3.5t-1.5 7q0 3 2.5 6t5 5.5l5 5t2.5 6.5t-3 6l-6 4t-6 5t-3 7v1q0 1 0.5 3t1.5 2q0 1 0.5 2t0.5 2l14 6q1 1 1 2.5v2.5zM104 102q1 10 2 15.5t3.5 8t8.5 2.5h15t13.5 -0.5t6.5 -3.5t2 -8v-13v-6q0 -1 -1.5 -2l-1.5 -1q-2 -1 -3 0.5t-1.5 3t-1.5 3
t-4 1.5q-4 0 -5.5 -2t-1.5 -6q0 -5 3.5 -6.5t8 -2.5t8 -4.5t3.5 -12.5v-3v-3l-0.5 -1l-0.5 -1h-1q-2 0 -3 3t-2.5 7t-4 7t-7.5 3q-1 0 -2.5 -1.5l-1.5 -1.5v-12l1 -0.5l1 -0.5q5 -3 7 -5.5t3 -4.5t1.5 -5t3.5 -7q1 -2 2.5 -2.5l3 -1l3 -1t2.5 -2.5q-2 -3 -6 -3h-2q-1 0 -4 1
t-4 1h-47l-1 1t-1 2v1q0 2 1.5 2.5t4 1.5t4.5 2t3 3l0.5 1.5t1 3.5t1 3.5l0.5 1.5q2 2 4 3l4 2t3.5 2.5t1.5 5.5t-0.5 7t-4.5 3q-6 0 -8 -2t-3 -5t-2 -5.5t-4 -2.5q-4 0 -4 5q0 7 4 10.5t9 5t9 2.5t4 3q0 6 -1 8.5t-6 2.5q-2 0 -3.5 -1t-2.5 -2t-2 -1.5t-2 -0.5
q-2 0 -3.5 1.5t-2.5 3.5zM114 115q0 -2 4 -3t9 -2t9.5 -1.5l4.5 -0.5h1q1 1 2 1.5l1 0.5v2v2q0 4 -1.5 5.5t-4.5 2.5t-6.5 1h-6.5q-4 0 -8 -1.5t-4 -6.5zM179 95q0 -2 1.5 -4t3 -2.5t4 -0.5h4.5h2.5h3.5q1 1 1 2v2q0 3 -2 6.5t-6 3.5q-5 0 -8.5 -1t-3.5 -6zM62 87
q0 -2 1 -3.5t2.5 -1.5h3.5h4h7q1 1 1.5 3t0.5 4t-0.5 3.5t-2.5 2.5q-1 0 -3.5 0.5l-2.5 0.5q-5 0 -8 -2t-3 -7zM179 53q0 -3 1.5 -4.5t3.5 -3t4.5 -2t4.5 -0.5q3 0 5.5 1t2.5 4t-1.5 5t-3.5 3t-4 1h-4q-3 0 -6 -0.5t-3 -3.5zM119 46q0 -2 1.5 -3.5t3 -2t3.5 -0.5h4h2.5h3.5
q2 1 2 3v3q0 6 -2.5 7.5t-7.5 1.5q-4 0 -7 -2t-3 -7zM63 45q0 -1 0.5 -3.5t3.5 -2.5h13q1 0 1.5 2.5l0.5 2.5q0 3 -2 6.5t-6 3.5q-3 0 -7 -2.5t-4 -6.5zM106 19q0 3 3.5 4t5.5 1h7t12.5 -0.5t12 -1.5t5.5 -4t-1 -4t-4 -1h-7t-14.5 0.5t-13.5 1.5t-6 4z" />
</svg>
