<?xml version="1.0" standalone="no"?>
<!DOCTYPE svg PUBLIC "-//W3C//DTD SVG 1.1//EN" "http://www.w3.org/Graphics/SVG/1.1/DTD/svg11.dtd" >
<svg xmlns="http://www.w3.org/2000/svg" xmlns:xlink="http://www.w3.org/1999/xlink" version="1.1" viewBox="-10 0 266 256">
   <path fill="currentColor"
d="M169 189q2 0 3.5 4.5t3 11.5t3 15t3.5 15t4.5 11.5t5.5 4.5t4 -2t1 -4q0 -5 -1.5 -8l-3.5 -7q0 -1 -1 -4t-1.5 -6.5t-1 -6.5t-1.5 -3q-1 -7 -3.5 -12t-2.5 -12v-2q12 -11 19 -24t7 -29q0 -9 -3 -14t-7.5 -7.5t-9.5 -3.5t-9 -2t-7 -2t-3 -4v-2v-1v-5t0.5 -6.5t0.5 -6.5
t1 -5q-1 -1 0.5 -2t2.5 -1.5t2.5 -1t2.5 -0.5h5h9h9h6q1 0 1.5 -1t0.5 -3t-1 -3t-3 -1h-4h-4h-4t-6.5 -0.5t-6.5 -0.5h-4q-1 -1 -2.5 -1.5t-2.5 -1.5v-7q0 -6 1 -13t1 -13q0 -3 -2 -4.5t-4 -1.5t-4 0.5t-3 3.5q0 9 0.5 19t0.5 21t-1 21.5t-3 19.5q-1 2 -4 2h-7t-7 0.5
t-3 4.5v0.5v0.5l0.5 0.5l0.5 0.5q2 0 7.5 0.5t11 0.5t10.5 0.5t7 0.5q5 0 9.5 1t7.5 3t5 5.5t2 8.5q0 3 -1.5 10t-4 14t-5.5 13t-8 6q-1 0 -2 -2t-2 -3q0 -1 -0.5 -3.5t-1.5 -4.5t-1.5 -4.5t-0.5 -3.5q-2 -1 -4 -2.5t-3 -2.5h-4.5h-4.5h-4q-3 0 -5.5 0.5t-5 1.5t-3.5 3l3 3
h19q3 0 4.5 2.5t2.5 5.5t1.5 6.5t0.5 5.5q0 5 -3 7t-7 3.5t-9 2t-9 1t-6.5 2t-2.5 3.5t2 2q5 0 9.5 -1t9 -2.5t9 -2.5t9.5 -1zM65 208q6 1 11 1.5t11 0.5h6q3 0 5.5 -0.5t5 -1.5t6.5 -2q2 -1 3.5 -3.5l3 -5t2.5 -5.5t1 -5l3 -56l-2 -2t-3 -2v-0.5t-1 -0.5v0.5t-1 0.5l-1 1
l-2 2v8t-0.5 9t-2.5 7t-7 3q-6 0 -7 -4t-1 -9q0 -17 1.5 -34t0.5 -35l2 -2h26q1 0 3 -2t2 -4q0 -1 -1.5 -2.5t-2.5 -1.5h-6q-5 0 -8.5 1t-8.5 1q-2 0 -3 -1t-1 -2.5v-3v-3.5q0 -8 0.5 -16.5t0.5 -16.5v-7q0 -1 -0.5 -2l-0.5 -1h-11v49q0 2 -2 3.5t-3 1.5h-31q-2 0 -2.5 1.5
t-0.5 3.5t1 3h6h7t6 -0.5t6 -0.5t8 -1l2.5 1t2.5 2v48q-1 3 -1.5 7.5t-0.5 8.5v8.5v6.5l-3 3h-16q-1 0 -1.5 -1l-0.5 -1q0 -1 -1 -2.5t-1 -2.5q0 -4 2 -8.5t2 -9.5q0 -7 -7 -7q-6 0 -6 7v2v9t0.5 15t0.5 15.5v8.5q1 3 1.5 6.5t1.5 7.5t2.5 7t4.5 5zM65 173q0 -3 1.5 -4.5
t3.5 -2.5t5 -1t5 -1h5t8.5 -0.5t8 -0.5h5.5t3 1.5t1.5 3t0.5 3.5v4q0 5 -1 10t-3.5 8.5t-6 5.5t-9.5 2q-14 0 -20.5 -7t-6.5 -21z" />
</svg>
