<?xml version="1.0" standalone="no"?>
<!DOCTYPE svg PUBLIC "-//W3C//DTD SVG 1.1//EN" "http://www.w3.org/Graphics/SVG/1.1/DTD/svg11.dtd" >
<svg xmlns="http://www.w3.org/2000/svg" xmlns:xlink="http://www.w3.org/1999/xlink" version="1.1" viewBox="-10 0 266 256">
   <path fill="currentColor"
d="M177 184q2 1 3 6.5t2 13t2 16t3 15.5t5 11.5t7 4.5q3 0 3.5 -2.5t0.5 -3.5q0 -5 -2 -9t-4 -9q-1 -7 -3.5 -15t-4.5 -16t-3 -16t-1 -16q0 -4 3 -7.5t6.5 -7t6.5 -7t3 -8.5v-1v-4t-0.5 -6.5t-1 -6t-0.5 -4.5q-3 -7 -8 -10t-10 -3.5t-8.5 -1t-3.5 -3.5v-3q0 -3 0.5 -9
t0.5 -10v-4l4 -4h27q2 0 3.5 -1.5t1.5 -3.5t-2 -4t-4 -2q-8 0 -15 0.5t-14 0.5q0 -8 1.5 -16.5t1.5 -17.5q0 -7 -7 -7q-2 0 -3.5 0.5t-2.5 2.5q0 20 -1 40t-1 40l-3 4h-29q-1 0 -1.5 2t-0.5 3q0 2 1.5 2h3.5h2h6t10.5 -0.5t10.5 -0.5h7h1q12 0 17.5 4t5.5 16q0 2 -1 5.5
t-2.5 7.5t-3.5 7t-5 3h-1q-4 -8 -9.5 -13.5t-15.5 -5.5q-6 0 -12.5 1t-12.5 2q-2 0 -2 2.5v3.5h5h8h8h5q7 1 12.5 4t5.5 11q0 3 -3.5 5t-8.5 3t-10.5 2l-11 2t-8.5 2.5t-3 3.5q0 3 2 3h4q5 0 10 -1.5l10 -3t9.5 -3t7.5 -1.5q2 0 2.5 1t0.5 3q1 1 1.5 3l1 4l1 4t0.5 3z
M58 240q0 3 1.5 4t3.5 1q5 0 6 -3.5t1 -6.5v-1q0 -1 -0.5 -6t-1 -10.5t-1 -10t-0.5 -5.5v-7q0 -9 0.5 -17.5t3 -16.5t7 -15t12.5 -12h1q2 0 4.5 3t4 6.5l3 7t1.5 4.5q0 4 1 11t1.5 15.5t1.5 16t1 10.5v3q0 6 -0.5 11.5t-0.5 11.5q0 3 0.5 6.5t4.5 3.5l1 -0.5t2 -0.5
q1 -3 1.5 -5l1 -4t0.5 -4v-5v-3v-3q-1 -3 -1.5 -12.5t-1 -20t-1.5 -19.5t-1 -13q-1 -4 -3 -7.5l-4 -7t-4 -6.5t-2 -6q0 -1 0.5 -2t1.5 -2q3 -4 5.5 -6t4 -4.5t2.5 -5.5t1 -8q0 -6 -2.5 -10.5t-6 -8l-6 -6t-2.5 -5.5v-17q0 -2 2.5 -2h2.5q5 0 8 2.5t5.5 5t5 4.5t6.5 2
q3 0 3.5 -0.5t0.5 -2.5q0 -6 -3.5 -10t-9 -6.5t-10.5 -4.5t-9 -3v-4v-7v-6.5v-4.5q0 -2 -1 -4t-4 -2q-1 0 -3.5 0.5t-2.5 2.5v25q0 1 -3 2t-7.5 2t-10.5 2.5t-10.5 3.5t-7.5 5t-3 7v0q0 1 2 3t3 2h1q1 0 3.5 -1t5 -3t5 -3.5l2.5 -1.5q1 -1 3 -2t4.5 -2t4.5 -2.5t3 -1.5h1h1
q2 0 3 1t1 3v3v3q0 6 -2 9.5t-5 6.5t-6.5 5.5t-6.5 5.5t-5 6.5t-2 9.5q0 5 2.5 8.5t6 6.5t6.5 5.5t3 6.5q0 3 -2 5t-4.5 4t-5.5 4t-4 4q-4 6 -6 12.5t-3 13.5t-1 14v12q0 12 1 22t1 22zM75 98q0 -3 2 -6t4.5 -5.5t5.5 -4.5t6 -2t5.5 2.5t4.5 5.5t3.5 6.5t1.5 5.5q0 3 -1.5 6
t-4 6t-5 5t-5.5 2t-6 -2t-5.5 -5.5t-4 -7t-1.5 -6.5z" />
</svg>
