<?xml version="1.0" standalone="no"?>
<!DOCTYPE svg PUBLIC "-//W3C//DTD SVG 1.1//EN" "http://www.w3.org/Graphics/SVG/1.1/DTD/svg11.dtd" >
<svg xmlns="http://www.w3.org/2000/svg" xmlns:xlink="http://www.w3.org/1999/xlink" version="1.1" viewBox="-10 0 266 256">
   <path fill="currentColor"
d="M194 247q0 1 2 2.5t3 2.5v0q2 0 3.5 -1t2 -3t0.5 -3.5v-2.5q0 -4 -0.5 -9t-1.5 -10.5t-2 -10.5t-2 -8q0 -1 -1 -5t-2.5 -9t-3 -9.5t-1.5 -7.5l-1.5 -3t-0.5 -1.5v-0.5v-3q0 -4 2.5 -7t5.5 -6t5.5 -6t2.5 -7v-32q-3 -3 -5.5 -7t-5.5 -6t-7 -2.5t-7.5 -1t-6 -2t-2.5 -6.5
q0 -9 2.5 -13t6 -5.5t7.5 -1.5h8.5t6 -1.5t2.5 -5.5q0 -3 -3 -4t-5 -1q-5 0 -9.5 2t-9.5 2q-2 0 -3 -0.5t-1 -3.5v-27q0 -3 -2 -6t-5 -3q-1 0 -2.5 1t-1.5 3v69l-1 1.5t-1.5 2t-1 1.5l-0.5 1h-16q-1 0 -1.5 1.5t-0.5 2.5q0 3 3 4t5 1q8 0 14.5 -1t14.5 -1h5h5q7 2 9.5 8.5
t2.5 11.5q0 4 -0.5 8.5t-2.5 9t-4.5 8t-7.5 4.5q-3 -11 -11.5 -17.5t-20.5 -6.5q-1 0 -3.5 1.5t-1.5 3.5q0 2 5 3t10.5 3t10.5 6t5 13v1q-2 1 -7 2.5t-10.5 3.5t-10.5 4.5t-5 3.5t0.5 2t1.5 1h4q3 0 6 -1t5.5 -2.5l5 -3t6.5 -1.5q3 0 5 3t3.5 7t2 8t1.5 7v2.5t0.5 6t0.5 6
v2.5q1 6 2.5 10.5t2.5 9t1.5 9.5t0.5 10zM96 249q1 1 2 1.5t2 0.5q2 0 3 -1.5t1 -3.5v-15q0 -34 -1.5 -67t-1.5 -66q0 -6 4.5 -9t9.5 -6t9.5 -8t4.5 -15v-2q0 -1 -0.5 -3.5t-1 -5.5t-1 -5t-1.5 -3q0 -1 -2.5 -4t-5.5 -5.5t-5.5 -5l-3.5 -3.5q-5 -4 -11.5 -7.5t-12.5 -3.5
q0 6 6 10t13.5 8t13.5 8.5t6 12.5q0 3 -1 8t-3 9.5t-5.5 7.5t-8.5 3h-2t-2 -1v-7t-1 -8t-3 -7.5t-6 -5.5l-24 -11h-10q0 4 2.5 6t6.5 4t9 3.5t9 4t6.5 7t2.5 11.5v3v3l-2 1q0 1 -2 1h-3q-8 0 -15.5 -2t-15.5 -2q-2 0 -4 0.5t-2 2.5q0 3 2.5 4.5t5.5 2.5t6 1h4q2 0 5.5 0.5
t7.5 0.5t7.5 0.5t5.5 0.5q1 4 1.5 6.5t0.5 5.5v5v7v6v10t0.5 12.5t0.5 12.5v10.5v5.5q0 3 0.5 9t0.5 13v16v16q0 7 -0.5 13t-0.5 9zM54 187q0 2 1.5 3.5t3.5 1.5t4.5 -1.5t3.5 -3.5q1 -1 3 -4.5t4.5 -7.5l5 -8t3.5 -6q2 -2 3 -3.5t1 -3.5q0 -4 -4 -4q-2 0 -4.5 3t-5 6.5
t-4 7t-2.5 4.5t-2.5 3t-3.5 4.5t-4 4.5l-3 3v1zM111 159q1 1 3.5 4.5t5.5 8t5.5 8t3.5 4.5q2 3 3 4t3 1t3.5 -2t1.5 -4q0 -1 -3.5 -5.5t-8 -9.5t-8.5 -9t-5 -4h-1l-1.5 1.5t-1.5 2.5zM52 140q0 2 1.5 3t3.5 1h2l4 -4l6 -6t6 -5.5t4 -3.5q2 -3 5 -7t3 -7q0 -4 -4 -4l-2.5 2
t-6 5.5l-7.5 7.5t-7 7.5t-5.5 6.5t-2.5 4zM110 116q0 3 2 5.5t4 4.5l3.5 3.5t5.5 5t5.5 4.5t3.5 3q1 0 3.5 -2.5t2.5 -3.5v-1q0 -2 -3.5 -5t-8.5 -6.5t-10 -5.5t-8 -2z" />
</svg>
