<?xml version="1.0" standalone="no"?>
<!DOCTYPE svg PUBLIC "-//W3C//DTD SVG 1.1//EN" "http://www.w3.org/Graphics/SVG/1.1/DTD/svg11.dtd" >
<svg xmlns="http://www.w3.org/2000/svg" xmlns:xlink="http://www.w3.org/1999/xlink" version="1.1" viewBox="-10 0 266 256">
   <path fill="currentColor"
d="M76 249q0 1 1.5 1.5t2.5 0.5h2q3 0 7 -4.5t8.5 -12t8.5 -16t6.5 -17.5t4.5 -16t2 -12t-4.5 -8t-9.5 -5.5t-9.5 -5.5t-4.5 -8q0 -2 5 -3t11 -1.5t11 -2t5 -5.5v-1t-1 -1h-6q-6 0 -12 0.5t-13 0.5v-4v-4t0.5 -3.5t0.5 -5.5t0.5 -5.5t0.5 -3.5q3 -2 7 -3t8 -4q4 -2 6 -5.5
t3.5 -8t1.5 -9v-8.5v-4v-4t-1 -2t-1 -2q-2 -8 -4.5 -12.5t-5 -6t-5 -1.5h-5h-4.5t-3 -3q-1 -2 -1 -5q0 -4 -0.5 -8t-1.5 -7t-4 -3h-1q-1 0 -2 1.5l-1 1.5v22l-0.5 0.5t-1.5 0.5q-6 3 -11 4t-8 2.5t-5 6t-3 13.5q0 1 0.5 3.5l0.5 2.5v3v4v4v2q1 11 6 15.5t11 6t11 2.5t5 3
l-0.5 1l-0.5 1q0 3 -0.5 6t-1 6.5t-0.5 5.5v3l-2 1h-2.5h-2.5q-5 0 -8 -1t-4.5 -3.5t-2 -6t-0.5 -7.5q-2 -2 -4 -2h-2.5t-1.5 2v2.5v3.5q0 5 1 10.5t4 10.5q1 1 4.5 1.5t4.5 0.5t2.5 -0.5t3 -0.5t3.5 -0.5l2 -0.5h2q1 0 3 3t4 6.5t3.5 7t1.5 4.5q-1 2 -4 8.5t-7.5 13t-8 13
t-5.5 8.5q-2 3 -4.5 5.5t-5 5.5t-4 6t-1.5 7q0 2 0.5 3t2.5 1q4 0 8 -4.5t8 -11t8.5 -14t8.5 -15t6.5 -13.5t4.5 -9h2q5 0 8 3.5t3 8.5t-2.5 11.5t-5.5 13.5t-6.5 14l-5.5 11q-1 2 -3.5 4.5l-5 5t-4 5.5t-1.5 5zM168 164q1 0 3.5 6t5.5 15.5t6 20.5t6 20.5t5 16t3 6.5h1h2
q2 0 4.5 -2t2.5 -5v0q-4 -15 -9 -29t-10 -29l-2.5 -5t-3.5 -6t-3 -6t-1 -5q0 -3 3 -5.5t6.5 -6t6.5 -8t3 -10.5q0 -3 -0.5 -9t-2 -11.5t-5 -10t-7.5 -4.5h-25v-29l3 -3h29q3 0 3.5 -2t0.5 -4t-1.5 -4t-3.5 -2h-29l-2 -2q0 -1 0.5 -4t1.5 -4v-1v-2q0 -1 -0.5 -4t-0.5 -6
t-0.5 -6t-0.5 -4q-1 -2 -2 -3.5t-3 -1.5q-4 0 -5 2.5t-1 5.5v71q0 3 -2.5 4t-6 1t-6.5 1.5t-3 4.5t1 3h3q7 0 13.5 -0.5t13.5 -0.5h16q5 2 8 5.5t3 9.5q0 2 -0.5 6.5t-1.5 8.5t-3.5 7t-5.5 3q-2 0 -4 -2t-4 -4.5t-5 -5t-7 -2.5h-5.5t-7 0.5t-6 2t-2.5 4.5v0.5v0.5l0.5 0.5
l0.5 0.5h7.5t9 0.5t8 2.5t3.5 7t-5.5 7.5t-12 4t-12 4t-5.5 5.5v1.5v0.5q1 0 3 0.5t3 0.5q4 0 9 -2t9.5 -4l9 -4t6.5 -2zM101 71h5l2 2v2v3q0 7 -2.5 10.5t-6.5 5.5t-9.5 2h-11.5h-8q-2 0 -5 -2.5t-3 -3.5v-14q0 -1 5.5 -2t12.5 -1.5t13 -1t8 -0.5zM90 45q3 0 6 0.5t5.5 1.5
t4.5 3.5t2 6.5q0 1 -1 2.5t-2 2.5q-11 1 -22.5 1.5t-22.5 0.5q0 -7 3 -10.5t7 -5.5t9.5 -2.5t10.5 -0.5z" />
</svg>
