<?xml version="1.0" standalone="no"?>
<!DOCTYPE svg PUBLIC "-//W3C//DTD SVG 1.1//EN" "http://www.w3.org/Graphics/SVG/1.1/DTD/svg11.dtd" >
<svg xmlns="http://www.w3.org/2000/svg" xmlns:xlink="http://www.w3.org/1999/xlink" version="1.1" viewBox="-10 0 266 256">
   <path fill="currentColor"
d="M77 212v6v9t0.5 10t0.5 8.5v3.5l2 2h12q0 -10 -1 -20t-1 -20v-6t3 -5l26 -26q1 -1 2 -4t2.5 -6t2 -6t1.5 -4q0 -1 1 -4t1.5 -6.5t0.5 -6v-3.5q1 -12 -0.5 -26.5t-5.5 -27.5q-3 -3 -7 -4.5t-8.5 -2l-9 -1t-8.5 -0.5v-2q0 -1 3 -5t6.5 -9t7 -9t4.5 -4h16t15 -2v-2
q0 -3 -1.5 -4t-4.5 -1q-2 0 -5 0.5t-6 0.5q-2 0 -4 -1t-2 -4q0 -2 1 -4.5t1 -5.5q0 -2 -2 -3.5t-5 -1.5t-5 5t-5 11l-5.5 11t-5.5 5t-5 -5.5t-4.5 -12t-5.5 -12.5t-6 -6q-1 0 -1 0.5v0.5q-3 1 -4 2t-1 4q0 1 1 3l2 4t2 5t1 6h-19l-2 2l-3 3v0.5v0.5q0 2 0.5 2.5l1.5 1.5h2.5
h3.5q2 0 4 -0.5t4.5 -1.5t4.5 -2t4 -1q3 0 6 1.5t3 4.5v19l-1.5 2l-1.5 2q0 1 -0.5 2.5t-1.5 1.5q-2 1 -5 2t-5 2t-4.5 3t-4.5 4q0 1 -1.5 2l-1.5 1q-5 12 -6 23.5t-1 24.5q0 4 1.5 11.5t4.5 15.5t7.5 13.5t10.5 5.5q3 0 4.5 -1t1.5 -4t-1.5 -5.5t-3.5 -4.5t-4 -4.5t-3 -5.5
q-2 -4 -3 -9.5t-4 -9.5v-30q4 -5 5.5 -9t2.5 -7t2 -5t4 -3t8 -1.5t14 -0.5t14 2t7 6t2.5 10.5t0.5 14.5l0.5 3.5t0.5 5.5t-0.5 5t-0.5 4t-0.5 5l-1 8t-0.5 8t-1 5q-4 5 -6.5 9.5t-7.5 8.5t-9.5 7.5t-8.5 7t-6 8.5t-2 12zM169 165q3 0 5 5.5t3.5 14.5t3 20t3 20.5t3.5 16
t5 6.5t4.5 -1.5t2.5 -4t1 -5v-4.5q0 -9 -2.5 -17.5l-5 -17t-5 -17.5t-2.5 -18v-1v-1l15 -15q0 -1 1 -5t2.5 -8.5t2 -8.5l0.5 -4q0 -6 -2.5 -9.5t-6.5 -6t-8.5 -3.5t-8.5 -2t-6.5 -2t-2.5 -3v-4v-4t0.5 -6t0.5 -5.5v-4.5q1 -1 3.5 -2t3.5 -1t4.5 -0.5t7 -0.5h6.5h4q2 -1 2 -2
v-2v-3t-2 -2h-6q-4 0 -7.5 1t-8.5 1q-7 0 -7 -8q0 -5 1 -10t1 -11v-10q0 -2 -1.5 -2h-2.5q-3 0 -5 2t-2 5q-2 17 -2 35.5v36.5q-2 1 -5 1.5t-6 0.5t-5.5 1.5t-2.5 5.5q11 0 23.5 0.5t22.5 3.5q3 1 5 4t2 6q0 2 -0.5 6.5t-2 9t-4 7.5t-6.5 3q-3 0 -4 -2.5l-2 -5t-2.5 -5
t-4.5 -2.5h-26q-1 0 -1.5 1t-0.5 2q0 2 0.5 2.5l1.5 1.5q5 -1 10.5 -0.5t10 2t7.5 5t3 10.5v1.5v0.5l-41 7q-1 0 -1 1v2q0 4 3 4.5t6 0.5h1l1.5 -0.5l3 -1l3 -1l1.5 -0.5q1 0 3.5 -0.5t5.5 -1.5t5.5 -1.5t3.5 -0.5zM78 151q1 2 3 3t4.5 1.5t5 0.5h4.5t4.5 -1t4.5 -2.5
t3.5 -3.5t1.5 -5v-43q0 -1 -2 -1h-3q-2 0 -3 2.5t-1.5 5.5l-1 6t-0.5 4h-3h-2h-2h-2.5t-2.5 -1t-1 -2v-15q0 -1 -1.5 -1.5t-2.5 -0.5q-2 0 -3 3.5t-1 4.5v15v14.5t1 15.5zM85 146v-18q0 -1 1 -2t3 -1h4h2h3t2 1v8v9q-1 0 -1.5 1.5l-0.5 1.5h-13z" />
</svg>
