<?xml version="1.0" standalone="no"?>
<!DOCTYPE svg PUBLIC "-//W3C//DTD SVG 1.1//EN" "http://www.w3.org/Graphics/SVG/1.1/DTD/svg11.dtd" >
<svg xmlns="http://www.w3.org/2000/svg" xmlns:xlink="http://www.w3.org/1999/xlink" version="1.1" viewBox="-10 0 266 256">
   <path fill="currentColor"
d="M93 246q20 2 41.5 3.5t42.5 1.5h11q1 -1 1.5 -2.5t0.5 -2.5q0 -2 -1 -3t-6 -1h-45l-3 -4v-21l3 -2q10 2 16.5 1t10.5 -4t5.5 -9t1.5 -15q0 -3 -0.5 -4.5t-3.5 -1.5q-4 0 -5.5 3.5t-2 8t-1 8.5t-3.5 4h-18q-2 0 -2.5 -2t-0.5 -4.5v-4.5v-2v-4t0.5 -6t1.5 -5.5t3 -2.5h24
q0 1 2 1.5t3 0.5l4 -0.5t8.5 -1.5t8.5 -2t4 -2v-4h-125v9q13 0 26.5 -1.5t26.5 -1.5q1 0 2 1t1 2.5v2.5v2v5.5t-0.5 11.5t-0.5 14.5t-1 14t-2 10.5t-2 4l-18 -3l-0.5 -0.5t-0.5 -1.5q-3 -4 -3.5 -10t-1 -12.5t0 -12.5t0.5 -10q-1 -2 -2.5 -2.5t-3.5 -0.5t-3.5 1t0.5 4v15
q0 3 -0.5 8.5t-0.5 11.5t1.5 11t5.5 7zM89 157q0 1 0.5 3t3.5 1q1 0 2 -1.5t1.5 -2.5t1.5 -2.5l1 -1.5v-29q1 0 3.5 -1t3.5 -1q4 2 6 6.5t3.5 9.5t3 9t4.5 4t3.5 -2t0.5 -4q0 -3 -1.5 -7t-3.5 -8.5t-4.5 -8t-3.5 -3.5q-3 -2 -6 -3t-5 -2t-3 -2.5t-1 -5.5q0 -5 4 -6.5
t8.5 -2.5t8.5 -3.5t4 -8.5q0 -8 -4.5 -12t-9 -6t-8.5 -3.5t-4 -5.5v-0.5v-0.5l0.5 -2t1.5 -2q17 -6 29 -21v-2q0 -4 -4 -5q-1 0 -2.5 0.5t-2.5 1.5q0 1 -2 2.5t-4 3.5l-4 4l-3 3q-2 2 -5 2q-1 0 -1.5 -0.5t-0.5 -3.5v-24q0 -1 -2 -1.5t-3 -0.5h-2q0 2 -0.5 5t-0.5 6t-0.5 6
t-0.5 4t0.5 3t0 3.5t-1 2.5t-2.5 1q-6 0 -9 -3.5t-5 -8t-4.5 -8t-7.5 -3.5q-1 0 -3 0.5t-2 2.5q0 6 2.5 10t6.5 7t8.5 5t8 4t6 4.5t2.5 5.5q0 4 -5 5.5t-11 3t-11 5.5t-5 12q0 6 2 9t5.5 4t7.5 1t7.5 0.5t6 2t2.5 5.5t-2.5 6t-6 3.5t-7 2.5t-5.5 2q-1 1 -1.5 3t-1.5 4
t-2.5 4l-1.5 2q0 1 -1 3.5t-2.5 5t-2 5t-0.5 3.5q0 3 0.5 3.5t4.5 0.5q3 0 5 -3t3.5 -7.5t2.5 -8.5t3 -6l2.5 -2.5t3 -3.5t3.5 -3.5t3 -1.5v-1h1q1 0 2 0.5t1 1.5v14q0 6 -1 11.5t-1 12.5zM168 125q4 0 6.5 5t4 11t3.5 10.5t7 4.5q3 0 3.5 -1.5t0.5 -4.5q0 -4 -2 -7.5l-4 -7
l-4 -7t-2 -7.5q0 -3 2.5 -6t5.5 -6.5t5 -8t2 -10.5v-3.5v-2.5q-3 -4 -8 -5.5t-9.5 -2.5t-8.5 -1.5t-6 -3.5v-6v-4.5t1 -4.5q6 -1 9.5 -2t8.5 -1q3 0 5.5 1t5.5 1q2 0 5.5 -2t3.5 -5l-0.5 -2t-1.5 -2h-34l-0.5 -1.5t-1.5 -2.5v-5q0 -4 1 -7.5t1 -7.5q0 -3 -1 -5t-4 -2
q-6 0 -6 7v35q-2 3 -2 7.5v8.5l-3 1q-1 1 -3 1.5t-4.5 1t-4.5 1t-3 0.5l-1 1l3 3h4.5h6.5h7h5q3 0 7.5 0.5t8 1.5t6.5 3.5t3 7.5q0 3 -1 5t-3 7q-1 1 -2 2.5l-2 3t-2 2.5l-1 1h-1q-1 -2 -2.5 -4.5t-3.5 -5t-4 -4.5t-5 -2h-28q-1 0 -1 1.5v1.5v2t1 2q1 0 3.5 -0.5t5.5 -0.5
t5.5 0.5t3.5 0.5q2 0 5 0.5t5.5 2t4 3.5t1.5 5t-2 5t-6 3.5t-8.5 2.5t-8.5 2t-7 2.5t-3 3.5l0.5 1.5l0.5 1.5h1q10 0 18.5 -4t16.5 -9h1zM70 84q0 -6 5 -9.5t11 -3.5q2 0 3 1.5t1.5 4t0.5 5.5v4v4q-1 1 -3 1.5t-4 0.5t-4.5 -0.5t-4.5 -1t-3.5 -2t-1.5 -4.5zM98 88v-3v-3
q0 -2 -0.5 -3.5t0 -3t1.5 -2.5t3 -1q4 0 8 2.5t4 7.5q0 6 -3 8t-9 2q-1 0 -1 -0.5v-0.5q-1 0 -2 -1t-1 -2z" />
</svg>
