<?xml version="1.0" standalone="no"?>
<!DOCTYPE svg PUBLIC "-//W3C//DTD SVG 1.1//EN" "http://www.w3.org/Graphics/SVG/1.1/DTD/svg11.dtd" >
<svg xmlns="http://www.w3.org/2000/svg" xmlns:xlink="http://www.w3.org/1999/xlink" version="1.1" viewBox="-10 0 266 256">
   <path fill="currentColor"
d="M174 153h1q0 1 0.5 1.5t1.5 0.5q2 3 2.5 7t1 8.5t0.5 8.5v7l0.5 3t1.5 6t1.5 6l0.5 3q0 2 0.5 7t0.5 11t0.5 11t0.5 7q1 1 1.5 4.5t0.5 4.5h1h2q3 0 4 -3.5t1 -6.5q0 -7 -1 -13l-2 -12q-2 -19 -4 -35.5t-4 -34.5q0 -2 1.5 -3.5t3.5 -2.5q3 -7 4.5 -12.5t1.5 -11.5
q0 -7 -5 -11.5t-12 -7t-15 -3.5t-13 -1q0 2 2.5 3.5t6.5 3t8.5 3t8 3.5t6 5t2.5 8v4q0 1 -0.5 3t-1.5 3.5t-3 1.5q-3 0 -6 -1.5t-6 -3.5t-7 -3t-9 -1v0q-1 0 -1.5 0.5l-0.5 0.5v0.5v0.5q0 2 3 3.5l7 3.5t7.5 5t3.5 7q0 5 -4 7.5t-8.5 4.5t-8 3.5t-3.5 3.5v1q0 1 0.5 1.5
l0.5 0.5h1q3 0 6 -1.5l6 -3l6 -3l5 -2.5h1zM90 232q0 3 4 3h1q1 0 2.5 -1t3.5 -2l4 -2t3 -1l0.5 -1t1.5 -1q5 -3 10.5 -6.5t10 -8t7.5 -10t3 -11.5v-3v-4t-0.5 -3.5t-0.5 -2.5q-1 0 -2 -1t-1 -2q-4 -4 -8.5 -5.5t-9 -2t-7.5 -0.5t-4 -2h-24q-6 0 -9.5 -5t-5 -12t-2.5 -13.5
t-1 -9.5q0 -5 1 -9.5t1 -9.5q0 -13 -0.5 -26t-2.5 -25q0 -1 -1.5 -2l-1.5 -1h-1h-1l-0.5 1t-1.5 2v10v15.5v17.5t-0.5 17.5t-0.5 15.5v10v4q0 13 5.5 19t13.5 7.5t17 1.5t17 0.5t13.5 4t5.5 12.5q0 7 -3 12t-7.5 9.5t-9 7.5t-9 5t-7.5 4t-3 4zM111 140q4 4 6.5 5t8.5 1
t10.5 -2.5t4.5 -8.5v-5v-5t-0.5 -8t-0.5 -7.5v-5.5l-1.5 -1.5t-1.5 -0.5q-3 0 -3.5 3t-0.5 6t-2 6t-8 3q-4 0 -4.5 -1.5t-0.5 -3.5t-0.5 -3.5t-3.5 -2.5q-2 0 -2.5 3t-0.5 6.5v6v3.5v2v4v3v3zM76 120v6v7.5t1 6.5t4 4h8h3q3 0 5.5 -0.5t4 -2t1.5 -3.5v-28l-0.5 -0.5
l-0.5 -0.5h-1h-1q0 3 -0.5 5.5t-1.5 4t-3.5 2t-5.5 0.5q-5 0 -6.5 -2t-1.5 -4.5v-4t-2 -1.5h-1l-2 1v10zM83 129h15q0 3 -1 7t-6 4q-4 0 -6 -4t-2 -7zM118 129q0 -3 2.5 -3h4.5q4 0 5.5 0.5t1.5 3.5q0 4 -2 7t-6 3q-5 0 -5.5 -3.5t-0.5 -7.5zM79 67q0 5 0.5 11t2.5 10.5
t5.5 7.5t10.5 3q4 0 8 -1t7 -3q2 -7 3.5 -14t1.5 -14v-3t-0.5 -4t-1 -3.5t-2.5 -1.5l-1 1l-3 14l-2 1t-3 1h-3t-4.5 0.5t-4.5 0.5h-3q-3 -2 -4.5 -6t-3.5 -8v0h-1v0q-1 0 -1.5 1l-0.5 1v3v3zM89 85q0 -3 1.5 -4.5t4 -2t5 -0.5h4.5q4 0 4 4q0 3 -3 7t-7 4q-5 0 -7 -2.5
t-2 -5.5zM167 55q2 2 5.5 6t7.5 7.5t8 6.5t8 4q1 1 2.5 1.5l1.5 0.5q1 0 2 -1.5t2 -1.5q0 -1 -3.5 -4t-7.5 -6.5t-7.5 -6t-4.5 -3.5t-2 -3t-2 -4.5t-2 -4.5t-2 -3q0 -2 -1 -7t-2 -10.5t-2.5 -9.5t-3.5 -4h-1.5h-0.5q0 1 -0.5 4.5t-0.5 4.5t-0.5 3.5t-1 5.5t-0.5 6v4
q-1 6 -6 12.5t-10 12.5t-9 10t-4 5q6 0 11.5 -3.5t10.5 -8.5l9 -9t6 -4zM54 45q0 1 3 1.5l3 0.5h1h29t29 -3l1 -0.5l1 -0.5v-1q0 -2 -3 -2h-4h-4h-11t-15.5 0.5t-16 0.5h-10.5t-3 3v1z" />
</svg>
