<?xml version="1.0" standalone="no"?>
<!DOCTYPE svg PUBLIC "-//W3C//DTD SVG 1.1//EN" "http://www.w3.org/Graphics/SVG/1.1/DTD/svg11.dtd" >
<svg xmlns="http://www.w3.org/2000/svg" xmlns:xlink="http://www.w3.org/1999/xlink" version="1.1" viewBox="-10 0 266 256">
   <path fill="currentColor"
d="M58 206v45q3 0 7 -1t4 -5q0 -8 -0.5 -17.5t0 -19t0.5 -19t1 -18.5q2 -4 4.5 -6.5t6 -4t7.5 -1.5h9h4h5q2 1 4.5 2.5t4.5 3.5q2 19 3 39t0 39q0 1 0.5 3t1.5 3l0.5 0.5t1.5 0.5q2 0 3.5 -1.5l3.5 -3.5v-11v-11q0 -1 -0.5 -5.5t-0.5 -9.5t-0.5 -9.5t-0.5 -5.5
q0 -13 -0.5 -22t-3.5 -13.5t-10.5 -6.5t-22.5 -2q-3 0 -7.5 0.5t-8.5 1t-7 3t-5 6.5q0 2 -0.5 6.5t-1 9.5t-1 9.5t-0.5 5.5v4.5v3.5v2.5t-1 4.5zM174 171q3 0 5 5t4 12.5t3.5 16.5t3.5 16t4.5 12t5.5 5q4 0 5 -0.5t1 -3.5q0 -5 -1.5 -9.5l-3 -9t-3.5 -9t-3 -8.5q0 -2 -1 -6
t-1.5 -8.5t-1 -8.5t-1.5 -5t-1 -2.5v-2.5v-2q2 -3 4.5 -6.5t5 -7.5t4 -8t1.5 -9v-4v-6.5t-0.5 -6.5t-0.5 -4q-1 -5 -5.5 -9.5t-10.5 -4.5q-1 0 -3 -0.5t-5 -0.5t-5.5 -0.5t-3.5 -0.5l-1 -1q0 -1 -0.5 -3t-0.5 -4.5t-0.5 -5.5t-0.5 -5l0.5 -4t1.5 -5q0 -1 0.5 -1.5l0.5 -0.5
h27l0.5 -1l0.5 -1q1 -1 1.5 -3l0.5 -2q0 -2 -0.5 -4t-1.5 -2h-30q0 -1 0.5 -5t0.5 -8.5v-7.5v-6q0 -4 -1.5 -6t-4.5 -2q-2 0 -4.5 1t-2.5 4v68q0 4 -3 5t-6.5 1.5t-6.5 1t-2 3.5q0 1 1.5 2.5t1.5 2.5q12 -1 25 0t24 3q2 5 2 8.5v8.5v5.5t-1 7t-2.5 6t-5.5 2.5q-1 0 -3 -2
l-3.5 -3.5l-3.5 -3.5t-4 -2q-5 -2 -8.5 -2h-8.5q-2 0 -5 -0.5t-5.5 0t-4.5 2t-2 4.5q0 2 1.5 3t3.5 2h21q5 0 9 3.5t4 8.5q0 3 -4.5 6t-11 5t-12 3t-8.5 2q-2 1 -2.5 2t-0.5 3q0 4 4 4t9.5 -1.5t10.5 -3.5t9 -4t6 -2zM79 189q0 5 0.5 10t2 8.5t4.5 5.5t9 2q4 0 8 -1t4 -6
l2 -26q0 -3 -1.5 -5.5t-3.5 -3.5t-4.5 -1.5t-5.5 -0.5q-5 0 -9 1.5t-6 6.5v10zM93 181q1 0 2 0.5l2 1t1.5 1.5t1.5 1v6v5q0 2 -0.5 4.5t-1.5 4t-4 1.5q-2 0 -3.5 -1.5t-1.5 -3.5v-17q0 -1 1.5 -2t2.5 -1zM72 123q0 6 2 10t5.5 6t8 2.5t9.5 0.5h5.5h4.5q4 -1 5.5 -3.5
t2.5 -5.5t1 -6.5v-6.5q0 -5 -1.5 -8.5t-4.5 -5.5t-7 -2.5t-9 -0.5h-5h-5q-4 2 -6.5 3.5t-4 3.5t-1.5 5v8zM82 121q0 -5 2.5 -6t7.5 -1q7 0 10.5 1t3.5 8q0 6 -3 7.5t-8 1.5q-6 0 -9.5 -2t-3.5 -9zM50 104q0 3 1 3.5t4 0.5q5 0 9 -3t8 -6.5t8.5 -6.5t11.5 -3q5 0 9 2t8.5 4
t8.5 4t8 2q3 0 4.5 -0.5t1.5 -2.5q0 -5 -2.5 -7t-6.5 -3t-8.5 -2t-8.5 -3t-6.5 -6.5t-2.5 -12.5v-9q0 -1 0.5 -2l0.5 -1h1q4 0 7.5 2.5t6.5 5.5t6.5 6t7.5 3q3 0 4 -2t1 -4q0 -1 -0.5 -2t-1 -1.5t-1.5 -2.5t-2 -2q-1 -1 -3.5 -2.5t-5.5 -3t-5.5 -2.5t-3.5 -2q-2 -1 -4 -1.5
l-4 -1t-3 -2t-1 -3.5v-3.5t0.5 -5.5t1.5 -5t2 -2h15q1 0 3 -2t2 -3v-1.5v-0.5q0 -3 -2 -4t-4 -1q-9 0 -14.5 2t-8.5 6.5t-4.5 10.5t-1.5 14q-3 2 -8 4t-10 4.5t-8.5 5.5t-3.5 8q0 3 1 4t3 1q4 0 7 -2t5.5 -4.5t5.5 -4.5t6 -2q2 0 2.5 0.5t0.5 2.5v19q0 2 -5.5 4.5t-12.5 5.5
t-13 7t-6 9z" />
</svg>
