<?xml version="1.0" standalone="no"?>
<!DOCTYPE svg PUBLIC "-//W3C//DTD SVG 1.1//EN" "http://www.w3.org/Graphics/SVG/1.1/DTD/svg11.dtd" >
<svg xmlns="http://www.w3.org/2000/svg" xmlns:xlink="http://www.w3.org/1999/xlink" version="1.1" viewBox="-10 0 266 256">
   <path fill="currentColor"
d="M88 247q0 4 4 4t6 -3t2 -7v-2q-1 -1 -1.5 -4l-0.5 -3v-46q0 -2 3.5 -2.5t7 -2.5t7 -6.5t3.5 -15.5v-6t-3 -5h-1h-1l-1.5 0.5t-1.5 1.5t-0.5 3t-0.5 4.5t-0.5 5t-0.5 3.5q0 3 -1.5 6t-5.5 3q-1 0 -2 -2.5t-1 -5.5t-0.5 -6.5t-0.5 -4.5v-2.5t-0.5 -3.5l-1 -4t-0.5 -3
q-6 -3 -10 -6.5t-4 -11.5q0 -5 4 -6.5t8 -1.5q3 0 5.5 0.5t5.5 1.5t4.5 3t1.5 5t-1 6.5t-1 7.5q6 0 8 -4t2 -10q0 -2 -1 -5t-3 -5.5t-4 -4t-5 -1.5h-21q-3 0 -5 1.5t-3.5 3.5t-2 4.5t-0.5 5.5q0 6 2 9t4.5 5t5.5 3.5t4 6.5q1 4 1 10v11v9q-2 3 -6 3q-6 0 -7 -5t-1.5 -11
t-1 -11t-4.5 -5h-1l-0.5 1l-0.5 1v4.5v4.5v4.5v4.5q0 7 1 11t3 5.5t5.5 1.5h10.5q0 3 0.5 9.5t0.5 14v14.5v9q0 1 -0.5 2t-0.5 3t-0.5 3.5l-0.5 1.5v0.5v0.5zM182 197q1 1 1.5 2.5l0.5 1.5q2 11 3.5 21.5t4.5 21.5h2q4 0 6.5 -2t2.5 -6q0 -3 -1 -6.5l-2 -7t-2.5 -6.5
l-2.5 -5q-4 -12 -6.5 -25.5t-4.5 -24.5v-2q0 -2 1.5 -3t4 -1.5l5 -1t3.5 -2.5l1 -1t2 -2.5t2 -2.5l2 -2q4 -5 4.5 -12.5t0.5 -13.5q0 -14 -6.5 -20t-21.5 -7q-2 -1 -3 -2.5t-1.5 -4t-0.5 -4.5v-4v-2q0 -1 0.5 -2.5t0.5 -3.5t0.5 -3.5t0.5 -2.5q2 -2 6 -2h10q4 0 7.5 -1
t3.5 -5l-0.5 -1t-0.5 -2q-1 0 -1.5 -1l-0.5 -1h-23l-1 -1q0 -1 -0.5 -3.5t-0.5 -4.5q0 -6 1 -11t1 -11v-4t-3 -2q-2 0 -3.5 1l-4.5 3q0 1 -0.5 2.5t-0.5 3.5t-0.5 4t-0.5 3v11v17v17v11q-1 4 -4 5t-6 1.5t-5 1t-2 3.5q0 2 0.5 2.5t2.5 0.5h32q4 0 7 2.5t4 6t1.5 7.5t0.5 6
v7.5t-1 8.5t-3.5 7.5t-6.5 3.5q-3 0 -4.5 -2t-2 -4.5t-1.5 -5.5t-2.5 -5.5t-4.5 -4t-9 -1.5q-1 0 -4 -0.5t-5.5 0t-5 1.5t-2.5 4l0.5 0.5t1.5 0.5h10.5t7.5 1.5t5 5t2 10.5l-0.5 2.5t-0.5 3.5q-1 0 -4 0.5t-6 1.5t-6 1.5t-4 1.5q-1 0 -3 0.5t-3 0.5h-1h-2t-1 -1l-4 -45
q-2 -4 -2 -8t-1 -6.5t-4 -4.5t-10 -2h-21h-11h-10t-10 1t-12 2q-3 2 -4.5 5t-2 6.5t-0.5 7.5v7q-1 0 -1 5.5t-0.5 12t-0.5 13.5v10v3q0 2 0.5 3t2.5 1t3.5 -1.5t1.5 -3.5v-8.5t0.5 -14t0.5 -13.5v-9l2 -10t7 -8q1 0 4.5 -0.5t7.5 -1t7.5 -1t4.5 -0.5h2h6.5t12 0.5t12 2
t6.5 4.5q0 2 0.5 7.5t1 11.5t1 11.5t0.5 7.5v3q0 4 -1 8t-1 9q0 2 1 3.5t3 1.5q5 0 9 -1.5t8.5 -2.5l9 -2t8.5 -1q6 0 7 5zM54 27v1l0.5 2t1.5 4t1 4v3q1 2 1 8t0.5 12.5t1 12t2.5 6.5q2 3 5 3h5q8 0 12.5 -4t8.5 -11h5q1 0 2.5 2t3 3.5t3.5 3t2 2.5q1 0 2 0.5t2 0.5
q0 1 4 1h4q9 0 13.5 -2.5t5.5 -10.5q0 -2 0.5 -7.5t1 -11.5t1 -11t0.5 -7q1 -1 2 -5t1 -5v-1v0q-2 -2 -3.5 -3t-4.5 -1q-2 0 -3 1.5t-1 3.5v4q0 1 -1 3q0 1 -1.5 2t-4 1.5t-4 1t-1.5 1.5q0 3 2 3.5t4 0.5t4 0.5t2 3.5t-1 5.5t-3 4.5h-1.5h-2.5q-2 0 -5.5 -3l-7 -6t-5.5 -6.5
t-2 -4.5q0 -3 1.5 -4.5t3 -2.5t3 -3t1.5 -4t-0.5 -3.5t-3.5 -1.5q-2 0 -3.5 1t-2.5 2.5t-2.5 2.5t-2.5 1q-2 0 -3.5 -1t-3 -2.5t-3 -2.5t-3.5 -1v0q-1 1 -1.5 2l-0.5 1q0 2 1 4t2.5 3.5t2.5 3t1 3.5q0 3 -2.5 7t-5.5 6.5t-7 4.5t-8 2q-3 0 -3 -2.5v-4.5q0 -3 1 -4.5t3 -2.5
t5 -1.5t5 -2.5q-1 -2 -2 -3t-2 -1h-4h-5q-2 -1 -2 -3t-0.5 -4.5t-1 -4.5t-3.5 -2q-2 0 -3 1.5t-1.5 3.5t-1 4.5t-0.5 3.5zM104 63q0 -2 3 -5t4 -3q2 0 6 0.5t7.5 2t6.5 3.5t3 4q0 5 -4.5 8t-8.5 3q-1 0 -4 -1.5t-5.5 -4t-5 -4.5t-2.5 -3zM67 67q0 -7 4 -9t10 -2q2 0 3.5 0.5
t2.5 1.5t1.5 2.5l1.5 4.5q-4 4 -7 6.5t-9 2.5q-4 0 -5.5 -2t-1.5 -5zM90 49q0 -4 2.5 -7t6.5 -3t5 2.5t1 5.5t-1 5.5t-5 2.5t-6.5 -1.5t-2.5 -4.5z" />
</svg>
