<?xml version="1.0" standalone="no"?>
<!DOCTYPE svg PUBLIC "-//W3C//DTD SVG 1.1//EN" "http://www.w3.org/Graphics/SVG/1.1/DTD/svg11.dtd" >
<svg xmlns="http://www.w3.org/2000/svg" xmlns:xlink="http://www.w3.org/1999/xlink" version="1.1" viewBox="-10 0 266 256">
   <path fill="currentColor"
d="M168 206q0 3 0.5 10t2.5 14.5t4.5 13.5t6.5 6q2 0 3.5 -1t1.5 -4q0 -4 -1.5 -9.5t-3.5 -10.5t-3.5 -11t-1.5 -11q0 -9 3.5 -14.5t8 -10l8 -8t3.5 -7.5v-19q0 -2 -3.5 -4t-8 -4t-8 -5t-3.5 -9q0 -4 4.5 -5.5t9.5 -3t9.5 -4t4.5 -9.5q0 -3 -0.5 -5.5t-1.5 -6.5l-1 -0.5
t-2 -0.5v0q-3 0 -4 3t-2 7t-4 7t-11 3h-2t-2 -1v-22l1 -0.5t2.5 -1.5t2.5 -2t2 -1q3 -1 6 -1.5t6 -2t5 -3.5t2 -6v0v-1q0 -1 -0.5 -2.5t-0.5 -3.5t-0.5 -4l-0.5 -2l-1 -0.5l-1 -0.5q-3 0 -4 3l-2 6t-3 6t-7 3q-3 0 -5 -0.5t-2 -3.5q0 -9 2 -13.5t5 -6.5t6 -2.5t6 -2.5
t4.5 -5.5t1.5 -11.5v-9q0 -1 -2 -1h-3h-1h-1l-5 18q-1 4 -6.5 5.5t-12 2.5t-12 2.5t-5.5 4.5q0 4 4 4q2 0 4 -0.5t4 -0.5h2.5t1.5 1v22q0 3 -5 4t-10.5 2t-10 3t-4.5 7q7 0 12.5 -1t11.5 -1h2.5t1.5 1q1 6 1.5 11.5t0.5 10.5v3l-3 2q-2 0 -5.5 0.5t-7.5 1.5t-7.5 1.5
t-4.5 0.5l-5 2.5t-3 4.5q0 2 3 2.5t4 0.5q3 0 6 -1l6 -2t6 -2.5t6 -1.5q1 0 2 2t2 3.5t1.5 3.5l0.5 2q1 2 5 4t8 4.5t7.5 4.5t3.5 3v12l-19 19q-2 2 -3.5 5.5t-2 7t-0.5 7v6.5zM90 130v87q0 2 1.5 2h2.5q2 0 3.5 -1.5t2.5 -3t1 -4v-4.5v-91q0 -1 3.5 -2t8 -3t8 -5.5
t3.5 -9.5v-27q0 -1 -1.5 -1.5t-2.5 -0.5q-2 0 -3 0.5t-2 3.5q0 1 -0.5 3.5t-0.5 5.5t-0.5 5.5t-0.5 3.5v4.5t-1 4.5t-2.5 3.5t-4.5 1.5q-1 0 -2.5 -1.5t-1.5 -2.5v-34q0 -2 2.5 -3t5.5 -1.5t5.5 -1.5t2.5 -3l-0.5 -0.5l-0.5 -0.5l-0.5 -0.5l-0.5 -0.5h-36q-1 0 -1 1.5v2.5
q0 3 2 3.5t4.5 0t5 0t2.5 3.5v34q0 3 -3 3.5t-5 0.5q-4 0 -6 -3.5t-2.5 -8.5t-0.5 -10t-1 -7q0 -2 -2 -2h-2q-3 0 -4 1t-2 4q-1 1 -1 5v5q0 10 2.5 15t5.5 7.5t6.5 2.5t7 0.5t5.5 2t2 5.5q0 3 -0.5 5.5t-1.5 5.5zM60 211q0 2 1 4t4 2t4.5 -2t1.5 -5v-6v-4q0 -1 0.5 -3.5
t0.5 -5.5t0.5 -6t0.5 -4v-33q1 -3 1 -5v-5v-3.5t-0.5 -4.5t-1.5 -3.5t-3 -1.5q-4 0 -4.5 3t-0.5 5v52q-1 7 -2.5 13t-1.5 13zM115 206q0 3 1.5 5t3.5 2q3 0 3.5 -1.5t0.5 -4.5q0 -8 -1.5 -16.5t-1.5 -16.5v-9t-0.5 -12.5t-0.5 -12.5v-8q0 -3 -0.5 -4t-2.5 -1t-3.5 1.5
t-2 3.5t-1 4.5t-0.5 3.5q0 17 2 33.5t3 32.5zM51 63q0 2 1 3t3 1q3 0 7 -3.5t7.5 -8t7 -8.5t5.5 -6q1 -1 3 -2.5l2 -1.5q1 0 2.5 -1.5t3 -3.5t3 -3.5l2.5 -2.5h2q6 0 11 4.5t9.5 9.5t9 9.5t9.5 4.5q4 0 4 -3q0 -6 -3.5 -8t-7.5 -4q-2 -2 -6.5 -6t-9 -8.5t-9 -8.5t-6.5 -4
q-3 0 -6 2t-5 5t-4 5.5t-4 5.5q-3 3 -8 7t-10.5 8t-9 8.5t-3.5 9.5z" />
</svg>
