<?xml version="1.0" standalone="no"?>
<!DOCTYPE svg PUBLIC "-//W3C//DTD SVG 1.1//EN" "http://www.w3.org/Graphics/SVG/1.1/DTD/svg11.dtd" >
<svg xmlns="http://www.w3.org/2000/svg" xmlns:xlink="http://www.w3.org/1999/xlink" version="1.1" viewBox="-10 0 266 256">
   <path fill="currentColor"
d="M56 246v3t2 2q5 0 7.5 -5t3 -11.5t0.5 -13v-9.5v-6t0.5 -11t0.5 -11v-7v-1q0 -10 -1 -21t-2.5 -21.5t-3 -21.5t-1.5 -22q0 -9 4.5 -14.5t12 -8t15.5 -4t15 -4.5t12 -8t5 -16q0 -4 -1 -8t-2.5 -7.5t-5 -6t-7.5 -2.5h-2q-3 1 -9.5 1.5t-13.5 1.5t-13.5 1.5t-9.5 0.5
q-2 1 -4 3t-2 4t1 3t2.5 1h3h2.5q8 0 16.5 -2.5t17.5 -2.5t12 3t3 12q0 8 -4.5 11.5t-11.5 5.5t-15.5 3.5t-15.5 5t-11.5 10t-4.5 17.5q0 13 1 25.5t2.5 25t3 25.5t1.5 25q0 14 -1.5 27.5t-1.5 27.5zM143 195v7.5v12.5v12v8q0 1 0.5 3t1 4.5t1.5 4.5t3 2t3 -2t1 -3v-15v-33
t-1 -33q-1 -15 -4 -30t-3 -29v-8v-8.5t1 -8.5t4 -6q5 -6 11 -8t12.5 -3.5l13 -3t11 -4.5t8 -8.5t3.5 -14.5v-2q0 -2 -0.5 -3.5t-0.5 -3.5v-2q-1 -6 -5.5 -7.5t-9.5 -1.5h-12t-16 1t-14 3.5t-6 6.5h49q1 0 2.5 1t2.5 2v3.5v2.5v6t-1 3.5t-2.5 3t-5.5 2.5q-10 5 -21 8t-21 10
q-3 2 -5.5 3t-4.5 6q-1 7 -2 16.5t-1 17.5v3v3l0.5 2.5l1 5l1 5l0.5 2.5q1 2 1.5 8t1 13.5t1 14t0.5 10.5q0 6 -0.5 10.5t1.5 10.5zM100 242l1.5 3t2.5 1t3.5 -1.5t1.5 -4.5q0 -5 -0.5 -9.5t-2 -9t-2.5 -9t-1 -9.5l-8 -76q-1 -1 -1 -4v-5q0 -10 4 -15t9 -8t8.5 -5t3.5 -5
q0 -2 -0.5 -3t-2.5 -1q-4 2 -9.5 4t-10 5t-8 7t-3.5 10q0 17 1.5 34t4 33.5t5 33.5t4.5 34zM166 121q0 10 1 20.5t2 19.5q1 3 2.5 10.5t4 16.5t5.5 19t5.5 18t5.5 13.5t5 5.5q3 0 4 -1t1 -4q0 -6 -2 -12t-4 -12.5t-4.5 -12.5t-4.5 -11q-4 -16 -7.5 -33.5t-3.5 -35.5
q0 -8 2 -14t5.5 -9t8 -4.5t7.5 -3t5.5 -3t2.5 -3.5q0 -3 -1.5 -3.5t-3.5 -0.5q-8 0 -15 3t-11.5 8.5t-7 13t-2.5 15.5z" />
</svg>
