<?xml version="1.0" standalone="no"?>
<!DOCTYPE svg PUBLIC "-//W3C//DTD SVG 1.1//EN" "http://www.w3.org/Graphics/SVG/1.1/DTD/svg11.dtd" >
<svg xmlns="http://www.w3.org/2000/svg" xmlns:xlink="http://www.w3.org/1999/xlink" version="1.1" viewBox="-10 0 266 256">
   <path fill="currentColor"
d="M141 140v38l0.5 3t0.5 6.5t0.5 6.5t0.5 5q0 1 0.5 5.5t1 10.5l1 12t1.5 11.5t2.5 9t3.5 3.5q3 0 4.5 -2t1.5 -5q0 -8 -2 -15t-3 -14q-1 -21 -3 -41.5t-2 -41.5v-6v-9q0 -4 0.5 -8.5t0.5 -5.5q1 -7 3 -12t5 -9t7 -6t11 -4q1 0 5 -1l8 -2t7 -2.5t3 -4.5v-21q0 -4 -3 -6
t-6.5 -3t-7.5 -1h-7h-7.5t-7.5 0.5t-8 0.5t-9 1q-2 0 -2 2.5v4.5h43q4 0 4.5 2.5t0.5 4.5q0 8 -3 11.5t-8.5 5.5t-11 3.5t-11 5t-9.5 10.5t-5 20v37zM70 245v1l1 1.5t2 1.5h1q2 0 4 -1.5t3 -3.5q1 -7 1 -13.5t1 -12.5t2.5 -12t4.5 -12q2 -3 7.5 -5t12 -5t11.5 -7.5t6 -13.5
q1 -7 1.5 -12.5t0.5 -10.5v-10v-12v-17q-2 -4 -5.5 -8.5t-9.5 -4.5h-38q-1 0 -1.5 1.5l-0.5 1.5q0 2 1 2.5l3 1.5h3h5h5h3h4t6 0.5t6 0.5h4q4 2 5.5 5.5t2 8t0 8.5t-0.5 7v9.5t-0.5 13t-2 12.5t-4.5 10q-5 6 -11 9t-12 6.5t-11 8.5t-7 14q0 3 -0.5 8t-1 10.5t-1 10.5t-0.5 7
v1zM180 226q-1 2 -0.5 5t1.5 5.5t3 4.5t4 2q3 0 4 -1.5t1 -4.5q0 -6 -1.5 -12t-3 -12.5t-3 -12.5t-2.5 -11q0 -2 -1 -8t-1.5 -13t-1.5 -13.5t-1 -7.5t-0.5 -2t-0.5 -2.5t-0.5 -2.5l-0.5 -1v-3v-3q0 -7 1.5 -14.5t5.5 -14.5q1 -2 4.5 -3l7 -2t6.5 -2t3 -5t-2 -4h-5
q-5 0 -9.5 2t-9 6t-7 8.5t-2.5 9.5v47q0 1 0.5 3t1 4.5t1 4.5t0.5 3q0 3 1.5 10t2.5 15t2 15t2 10zM59 160q1 4 6 6h5h5q10 0 16 -1t9 -4.5t4 -10.5t1 -17v-6l-0.5 -0.5t-1.5 -0.5q-2 0 -3 1.5t-1.5 3.5l-1 4t-2.5 2h-25q-2 0 -2.5 -2l-1 -4t-1.5 -3.5t-3 -1.5q-3 0 -4 2
t-1 4q0 7 0.5 14.5t1.5 13.5zM68 151q0 -3 2 -4.5t4.5 -2t5.5 0t5 0.5h9q1 1 1.5 2t0.5 2t-0.5 1.5t-0.5 1.5q-1 1 -3 3.5t-3 2.5h-16q-3 0 -4 -2.5t-1 -4.5zM54 90q0 10 2.5 16t7.5 8.5t12 2.5h17h12q2 0 3.5 -1.5t2.5 -3.5q-1 -2 -5 -3h-5.5t-9 -0.5t-9 -0.5h-6.5
q-1 0 -3 -0.5t-3.5 -1t-3 -1.5t-1.5 -4v-19q0 -6 4.5 -8t11.5 -3t14.5 -1.5t14.5 -2.5t11.5 -6.5t4.5 -13.5q0 -5 -2 -10t-8 -6q-10 1 -21.5 0.5t-21.5 -1.5q-2 -1 -3 -4t-1.5 -6.5t-1.5 -5.5t-4 -2t-4.5 2t-1.5 5v4.5t0.5 5.5t1.5 5t3 2l2 0.5t3.5 0.5t3 0.5t2.5 0.5h7
t10.5 0.5t10.5 1t7 0.5q6 2 6 8q0 5 -2.5 7.5t-6 4t-8 1.5t-8.5 1q-1 0 -5.5 1t-9 1.5t-8.5 1.5t-6 1l-0.5 0.5t-0.5 1.5l-1 1.5t-1.5 3t-1.5 3l-1 1.5v3v3v4v2z" />
</svg>
