<?xml version="1.0" standalone="no"?>
<!DOCTYPE svg PUBLIC "-//W3C//DTD SVG 1.1//EN" "http://www.w3.org/Graphics/SVG/1.1/DTD/svg11.dtd" >
<svg xmlns="http://www.w3.org/2000/svg" xmlns:xlink="http://www.w3.org/1999/xlink" version="1.1" viewBox="-10 0 266 256">
   <path fill="currentColor"
d="M167 245q0 3 1 4.5t4 1.5t5 -6.5t2.5 -16t0.5 -20.5t1 -20.5t3 -16t6 -6.5q3 0 3 1.5v3.5q0 1 0.5 5l1 8l1 8t0.5 5v7q0 5 0.5 11t1 10.5t2.5 4.5q1 0 3.5 -0.5t3.5 -2.5v-4v-4q0 -8 -1 -15.5l-2 -15t-2 -15.5l-2 -16q0 -2 -2 -4t-4 -2q-3 0 -4.5 1.5t-2.5 4t-2 4t-3 1.5
t-3 -5t-2 -11t-1.5 -12t-0.5 -7t1 -3.5t2.5 -5.5t3 -5.5t2.5 -2.5h3t5 -0.5t5 -1t3 -0.5q3 0 5 -1t2 -4v-1l-1 -1t-1 -2h-4q-7 0 -15 1t-15.5 2.5t-15.5 2.5t-15 2q-1 0 -1.5 1.5l-0.5 1.5q0 1 2 3.5t4 2.5v0q7 -1 12.5 -2.5t12.5 -1.5l0.5 2l0.5 2q-2 4 -5 7.5t-7 7.5
t-8 7.5t-7 6.5v1v1l1 1h1h1q2 -1 4.5 -3t4.5 -4t4.5 -3.5t5.5 -1.5v0q1 1 2 3t2 3v1q0 3 -3.5 7t-8 8t-8.5 8.5t-6 9.5l1 1l2 2q1 0 4 -3.5t6.5 -7.5t6.5 -8t4 -4h1q2 0 3 1.5t1.5 4t0.5 5v3.5q0 6 -4 12t-9.5 12t-10 13t-4.5 15q5 0 8.5 -4t6.5 -9t5.5 -10t6.5 -8l1 1
q0 1 0.5 3.5t0.5 3.5q0 6 -1 12t-2.5 12t-2.5 12t-1 11zM81 120q0 17 -3 35.5t-7 35.5q-1 5 -2.5 10.5t-3.5 10.5t-3.5 10.5t-1.5 10.5q6 0 9 -3t4.5 -8t2 -10.5t1.5 -9.5q1 -2 2 -6.5t2 -9.5t1.5 -9t1.5 -6q0 -4 -0.5 -7.5t1.5 -7.5q0 -2 1 -8t1.5 -12.5t1 -12.5t1.5 -8v-3
q0 -5 -2 -8.5t-4 -6.5t-3.5 -6.5t-1.5 -7.5q0 -3 1.5 -5t4 -3t5.5 -2t4.5 -3.5t3 -5.5t2.5 -6.5t1.5 -7t0.5 -5.5h-5l-0.5 1.5t-1.5 3.5l-2 4t-2 3q-1 2 -1 3.5t-0.5 2l-1.5 1.5t-3 2q-2 -1 -2.5 -2t-0.5 -3q0 -4 1 -8t2.5 -7.5t3 -7.5t1.5 -8q0 -3 -0.5 -5.5t-4.5 -2.5
q-1 0 -2.5 1t-1.5 2q-1 1 -1 3.5t-1 5t-1 5t-1 3.5q0 2 -0.5 6t-1.5 8t-2 7t-2 3q-3 0 -4.5 -1.5t-2.5 -3.5t-1.5 -4t-0.5 -4v-6q0 -1 0.5 -2t0.5 -2.5t0.5 -3t0.5 -2.5q0 -2 -2 -3t-3 -1h-2.5t-1.5 1v29q0 4 1.5 5.5t4.5 3t5.5 2t4.5 1.5q0 5 1 9t1 9v2q0 1 -1 3t-1.5 4
l-1 4t-0.5 3q-2 7 -5.5 17.5l-7 21t-5.5 20.5t-2 17q0 1 0.5 1.5t2.5 0.5q3 0 5.5 -5.5t5 -14t4.5 -18.5t4 -19t4 -15t4 -8l2 4v3.5v5.5zM99 202l4 5l3 0.5t7 1.5t8 1.5t6 0.5h3h3h2.5h2.5q2 0 2 -1.5v-2.5q0 -3 -2.5 -3.5l-5 -1t-6 -0.5t-4.5 -2l-0.5 -2l-0.5 -2
q0 -7 2.5 -9t5.5 -3t5.5 -3t2.5 -9v-4q0 -4 -0.5 -6.5t-1.5 -5t-3 -2.5q-1 0 -2.5 0.5t-2.5 1.5q0 2 0.5 4.5t0.5 5.5t-0.5 6t-1.5 6h-0.5h-1.5l-1 -0.5t-1 -1.5t-0.5 -5t-0.5 -5v-8q0 -4 2 -8q1 -2 2.5 -3.5t3 -2.5t2.5 -2t1 -4v-5t-4 -3q-2 0 -2.5 1.5l-1 3t-0.5 3.5t-1 3
q-1 2 -5.5 4t-10 3.5t-9.5 4t-4 4.5t1.5 2h2.5q3 0 5.5 -1.5t6.5 -1.5q1 0 2.5 0.5t1.5 2.5v13q0 2 0.5 6t0 8.5t-1.5 7.5t-4 3h-2.5t-1.5 -1q-4 -13 -5 -26q0 -1 -1 -1.5t-2 -0.5t-2 0.5t-1 2.5zM97 128q0 2 2 2.5t3 0.5q3 0 7 -1t8 -2.5t7.5 -3.5t4.5 -4v-7q0 -5 -1 -9
t-1 -8q0 -5 1 -9.5t1 -10.5q0 -2 -1 -3.5t-3 -1.5h-2t-1 1v13q0 2 -4 3.5l-8 3t-7.5 2.5t-3.5 3t1 2.5t3 0.5q5 0 8.5 -1.5t7.5 -1.5h1q1 0 1.5 0.5l0.5 0.5v16q0 2 -4 3.5t-8.5 3t-8.5 3t-4 4.5zM137 94q0 2 1.5 2.5t2.5 0.5q2 0 4.5 -1t5 -2.5t4 -3.5t1.5 -4v-21
q0 -2 -2 -2.5t-3 -0.5q-4 0 -4 3t1 5.5t1 4.5q0 4 -2 7t-4 5l-4 4t-2 3zM175 60q-1 0 -2 0.5t-1 1.5v18q0 3 2 5.5t5.5 4t6.5 2t5 0.5h5.5t2.5 -4q0 -2 -3 -2.5t-7.5 -2t-7.5 -6t-3 -15.5l-1.5 -1.5t-1.5 -0.5zM103 68q0 2 0.5 3.5t2.5 1.5t2.5 -0.5t2.5 -1.5
q10 -7 20.5 -14t21.5 -12q1 0 4 0.5t5.5 1.5t5.5 1.5t4 1.5l2 0.5l2 0.5q3 1 5.5 3t5 3.5l5 3t5.5 1.5t4 -0.5t1 -3.5t-3.5 -5.5t-9 -5t-12 -4.5t-12 -3.5t-9 -3t-3.5 -2.5v-18l-1.5 -1.5t-2.5 -1.5h-1q-1 0 -2 1t-1.5 2.5t-0.5 3.5v2q0 3 1 6.5t1 7.5t-6.5 8t-15 8t-15 8
t-6.5 8z" />
</svg>
