<?xml version="1.0" standalone="no"?>
<!DOCTYPE svg PUBLIC "-//W3C//DTD SVG 1.1//EN" "http://www.w3.org/Graphics/SVG/1.1/DTD/svg11.dtd" >
<svg xmlns="http://www.w3.org/2000/svg" xmlns:xlink="http://www.w3.org/1999/xlink" version="1.1" viewBox="-10 0 266 256">
   <path fill="currentColor"
d="M126 249q1 1 2 1.5t2 0.5q2 0 4 -0.5t2 -3.5v-54l1 -1q7 -1 13 -1.5t11.5 -1t11.5 -0.5h13q1 0 3 -1l2 -1h1q2 0 3 4.5t1.5 11.5t1 15t1 15t1.5 11.5t3 4.5q3 0 4 -1.5t1.5 -4t0.5 -5.5v-4q0 -6 -1 -12.5t-2.5 -12.5t-2.5 -12t-1 -13q0 -4 2.5 -8t2.5 -10q0 -5 -1 -8.5
t-3.5 -5.5t-6.5 -3.5t-10 -2.5h-1h-2.5t-0.5 1q1 3 3.5 4.5t5.5 3t5 3.5t2 5t-3 3q-2 0 -4.5 -1.5t-5 -3.5t-5 -3.5t-5.5 -0.5l-1.5 1t-1.5 2l-0.5 0.5l-0.5 0.5q0 2 2.5 3.5t6 2.5t6 3.5t2.5 6.5v2q-1 0 -3 0.5t-4.5 0.5t-4.5 0.5t-3 0.5l-3 0.5l-3 0.5q-1 0 -2 -0.5
l-1 -0.5h-3h-6h-5h-3q-2 0 -3.5 -1.5t-1.5 -3.5q0 -4 3 -5t7 -2t7 -2.5t3 -4.5t-1 -3.5t-3 -0.5h-3q0 1 -2 2l-4 2l-4 2t-3 1l-3 -0.5l-3 -0.5q0 -5 2 -7t4.5 -3t4.5 -1.5t2 -3.5v-3q-8 0 -13.5 3t-10.5 9q-1 1 -1 2v1q0 2 1 4.5t2.5 4.5t2.5 4t1 5v4t-1 4q-1 3 -1 8.5
t-1 12t-1.5 12.5t-0.5 8v11v10zM68 236q1 3 2 3.5t3 0.5q3 0 6 -4.5t6 -10t5 -10.5t4 -7q0 -1 1.5 -3.5t2.5 -5t2 -4.5t2 -3q0 -2 1.5 -8.5t3 -13.5t2.5 -13t1 -8v-5v-7q0 -2 0.5 -5.5t0 -7.5t-1 -7.5t-2.5 -5.5q-3 -4 -6.5 -6.5l-7 -5t-5.5 -6t-2 -8.5v-6q0 -1 2.5 -2.5
t4.5 -2l2 -0.5q5 -2 7.5 -5.5t4.5 -8t2.5 -9.5t0.5 -9q0 -3 -3 -3t-4.5 4t-3 9t-3.5 9t-4 4t-3.5 -3t-1.5 -4v-36q0 -3 -2 -4t-4 -1t-3.5 0.5t-1.5 2.5v43q0 1 -1 1.5t-2 0.5q-3 0 -5 -1.5t-3 -3.5q0 -1 -0.5 -3.5l-1 -5t-1 -4.5t-1.5 -3q0 -1 -1.5 -3.5t-2.5 -3.5
q-1 0 -2 1t-2 1v3.5v3.5q0 4 0.5 8t1.5 8t3.5 7.5t6.5 4.5q3 2 5 2t4 3q0 1 1 3.5t1.5 5t0.5 5.5t1 3q0 2 1.5 3.5t3 2.5t2.5 2t1 3v1v1q-4 10 -8 19.5t-8.5 19t-9 18.5t-8.5 19q-2 3 -3.5 5.5t-1.5 5.5q0 4 4 4q2 0 3.5 -0.5t2.5 -3t4 -8.5t6 -12.5t6 -12t4.5 -8t4 -9
t5.5 -13t5.5 -11.5t3.5 -5h1l5 6v1.5v3.5v3v3q0 17 -4 33t-11 31q-2 5 -5 9.5t-5.5 9.5l-5 10t-3.5 9zM165 124v1q0 1 -0.5 4t-1.5 6.5t-1.5 6.5t-1.5 4v2q5 0 7.5 -4t4 -10t1.5 -11.5v-8.5q0 -9 -2.5 -13t-5.5 -5.5t-5.5 -3t-2.5 -5.5q0 -2 0.5 -3t2.5 -2l15 -3l1.5 -1.5
l1.5 -1.5v-1v-1l-0.5 -0.5t-1.5 -0.5h-2.5h-4.5h-4h-3q-3 -1 -4 -2.5t-1 -4t-0.5 -4t-2.5 -2.5l-3 1v27h-1h-1q-1 0 -2 -0.5l-1 -0.5q-7 -1 -10 -1.5t-4 -1t-1 -1.5l-0.5 -1.5t-1.5 -3t-4 -4.5l-2 2l-0.5 2.5t-0.5 5.5t-0.5 6.5t-0.5 5.5t0.5 6.5t0.5 9t0.5 9t0.5 6.5l3 6
t6 4q2 0 3.5 -1.5t3.5 -1.5t4 1t4 1t3.5 -1t1.5 -3q0 -3 -3 -3.5t-7.5 0t-7.5 -0.5t-3 -5t2.5 -5t6.5 -1q3 0 6 -0.5t3 -4.5q0 -1 -1.5 -2.5t-3.5 -1.5h-2h-4t-3.5 0.5l-1.5 0.5h-0.5h-0.5q0 -1 -0.5 -4.5t-0.5 -4.5t0.5 -1.5t1.5 -0.5t3 -0.5t5 -0.5t5 -1t3 -3q2 2 4.5 4
t6 3t5.5 3t2 4q0 3 -2 4.5t-4 2t-4 1.5t-2 3v1q1 1 3 1h3.5t2.5 0.5t1 3.5zM179 133q0 2 2 3t4 1q6 0 11.5 -3t7.5 -9v-4.5v-7.5v-7.5v-4.5l0.5 -2t0.5 -3.5t0.5 -3t0.5 -2.5t-0.5 -4t-1 -5.5t-1.5 -5t-2 -2.5q-2 -1 -4.5 -1.5l-2.5 -0.5v14q-1 0 -4 0.5t-6 1.5t-5.5 2
t-2.5 3v1q1 1 1.5 2l0.5 1h16q0 2 0.5 4.5t-1.5 3.5q-1 1 -3 1.5l-4 1t-4 1.5l-2 1q-1 0 -1.5 0.5t-0.5 1.5v0q0 3 2.5 3.5t5.5 0.5t6 1t3 4q0 4 -2.5 5.5t-5.5 2t-5.5 1.5t-2.5 4zM157 12q-2 0 -2.5 0.5t-0.5 2.5v22q0 3 -3.5 5t-8 4t-10 3.5t-10 4t-8 6t-3.5 7.5
q7 0 14 -3t13 -7t11.5 -7t9.5 -3q5 0 11.5 3l13 6t12.5 6t9 3q2 0 3.5 -1.5t1.5 -4.5q0 -4 -5.5 -7t-13 -5.5t-15 -4t-11.5 -3.5l-0.5 -0.5t-0.5 -1.5q-2 -5 -2.5 -11t0.5 -11q-2 -3 -5 -3z" />
</svg>
