<?xml version="1.0" standalone="no"?>
<!DOCTYPE svg PUBLIC "-//W3C//DTD SVG 1.1//EN" "http://www.w3.org/Graphics/SVG/1.1/DTD/svg11.dtd" >
<svg xmlns="http://www.w3.org/2000/svg" xmlns:xlink="http://www.w3.org/1999/xlink" version="1.1" viewBox="-10 0 266 256">
   <path fill="currentColor"
d="M154 244l1.5 2.5t2.5 2.5l1.5 -0.5t2.5 -1.5q0 -1 3 -4t3 -4v-4v-5v-5v-4q0 -9 -1 -17t-1 -17v-9q1 -4 1 -10t0.5 -11.5t0.5 -9.5v-4l4 -5h34q2 0 2.5 -1t1 -3t1 -3.5l0.5 -1.5q-10 0 -18.5 1t-18.5 1h-4h-4l-1 -2v-33q0 -1 2.5 -2t4.5 -2q6 -2 9 -3.5t5 -3.5t2.5 -5.5
t2.5 -10.5v-8t0.5 -13t0.5 -13t1 -9v-1.5t0.5 -3t0.5 -2.5v-2q0 -3 -2.5 -5t-4.5 -2h-1v0l-3 3t-3 2q1 7 1 15.5v17.5t-1 17.5t-3 16.5q-1 0 -5 0.5l-8 1t-7.5 1t-5.5 0.5h-1q-2 0 -4.5 -1.5t-4 -3.5t-3 -4.5t-1.5 -4.5v-49q0 -1 -0.5 -3.5t-1.5 -3.5h-2q-8 0 -8 9
q0 5 0.5 11l1 12l1 12t1.5 10q0 9 2.5 13.5t5.5 6.5t6.5 2.5t6.5 1t4.5 1.5t1.5 3l-2 32q0 3 -5.5 3t-12.5 -0.5t-12.5 1t-5.5 7.5h38q1 0 1.5 3t0.5 5q0 24 -1 48t-3 48zM51 111q0 11 0.5 20.5t3.5 16t10 10.5t19 4h8t7 -1.5t5 -6.5t3.5 -12t2.5 -15t1 -15.5v-12.5v-7v-4
v-3q0 -2 -0.5 -7.5t-1 -11.5t-1 -11.5t-0.5 -7.5t-1.5 -3t-3 -1.5t-2.5 -0.5q-2 0 -3 -1h-4t-7 -0.5t-7 -0.5h-3h-1q-3 0 -7 1.5t-7.5 4t-6 5.5t-3.5 6q0 8 -0.5 15t-0.5 13v13v13zM100 99q2 0 2.5 2.5t0.5 3.5v3q-1 6 -1 14t-1.5 15t-6 11.5t-13.5 4.5q-3 0 -7 -1.5
t-6.5 -4t-4.5 -6t-2 -7.5v-28l2 -0.5l4 -1t5 -1t5 -0.5q0 -1 3 -1.5t6.5 -1l7 -1t5.5 -0.5h1zM59 80q0 -3 1 -8t2.5 -10t4.5 -8.5t8 -3.5h21q1 0 2 2.5l1 2.5q1 3 1.5 6.5t1 7.5t1 7.5t0.5 5.5q0 5 -2.5 7.5t-6.5 3t-8.5 0t-8.5 -0.5h-16q-2 -3 -2 -6v-6z" />
</svg>
