<?xml version="1.0" standalone="no"?>
<!DOCTYPE svg PUBLIC "-//W3C//DTD SVG 1.1//EN" "http://www.w3.org/Graphics/SVG/1.1/DTD/svg11.dtd" >
<svg xmlns="http://www.w3.org/2000/svg" xmlns:xlink="http://www.w3.org/1999/xlink" version="1.1" viewBox="-10 0 266 256">
   <path fill="currentColor"
d="M163 247q1 3 2.5 3.5t3.5 0.5q3 0 5 -3.5t2 -6.5q0 -4 -0.5 -6t-1 -3.5t-1.5 -3.5t-1 -6q-3 -10 -5 -18t-7 -18q-1 -2 -3.5 -6t-5.5 -9t-5 -9t-2 -7t2.5 -5t5.5 -3q1 -1 3.5 -2.5t5.5 -3.5t5.5 -3.5t3.5 -2.5h2h2q5 0 9.5 2.5t9 5.5t8.5 5.5t7 2.5q1 0 1.5 -1l1 -2
t0.5 -2v-2q0 -4 -4.5 -7.5t-10 -6.5t-11 -5.5t-9.5 -3.5q-1 -1 -5 -1.5t-8.5 -1t-8.5 -1.5t-5 -1q-4 0 -6.5 -0.5t-5 -2t-4 -3.5t-1.5 -6t4 -5.5t8.5 -2t9.5 -1t8 -1.5q6 -8 7 -16.5t1 -17.5t-3 -17.5t-5 -16.5q-2 -5 -6 -7t-9 -2.5t-10.5 -0.5h-9.5t-9 1t-10 2.5t-8 5.5
t-3 9v43q0 9 4 13t9.5 5.5t9.5 3t4 3.5q0 6 -2 9.5t-5 5t-7.5 2.5t-9.5 2q-1 0 -5.5 2t-10.5 4.5t-12.5 5.5t-12 5.5t-9.5 5t-4 3.5l0.5 2t1.5 2l1.5 0.5t2.5 0.5q6 0 12 -3t11.5 -6.5t11 -6.5t11.5 -3q3 0 7 2.5t7.5 5.5t6.5 6.5t5 5.5v1q0 3 -3 7t-7.5 8.5t-8.5 9t-5 7.5
q-7 15 -11 31.5t-4 32.5q4 0 7 -1t5 -5v-2.5t0.5 -4.5t0.5 -4v-3q1 -2 1.5 -5.5t0.5 -4.5t2.5 -6t5.5 -11.5t6.5 -13.5t7.5 -13t7.5 -10t6.5 -4l0.5 1l0.5 1l1 1.5l1 1.5q12 18 17 38.5t7 41.5zM113 131q0 -3 3 -5t6.5 -2.5t7.5 -1t6 -0.5h6t7.5 1t6.5 2.5t3 3.5q0 3 -3 6
t-7 5t-8 3.5t-6 1.5t-5.5 -1.5t-7.5 -4t-6.5 -5t-2.5 -3.5zM106 69v-2.5v-1.5l2 -2l5 -0.5t11.5 -2t14 -2.5t11.5 -1q1 0 1 -0.5v-0.5l1 1l1.5 0.5l1.5 0.5v3v2.5v3.5v2q0 4 -0.5 8t-2 7t-5 4.5t-9.5 1.5q-7 0 -12.5 -0.5t-10 -2.5t-7 -6t-2.5 -12zM106 48q0 -5 1.5 -10
t5.5 -9q4 -1 7 -2t5.5 -1.5t5.5 -1t6 -0.5h3.5h3.5q4 4 7.5 8.5t3.5 9.5q0 4 -3 7q-9 1 -15.5 1h-14.5h-14l-1 -0.5l-1 -0.5v-1z" />
</svg>
