<?xml version="1.0" standalone="no"?>
<!DOCTYPE svg PUBLIC "-//W3C//DTD SVG 1.1//EN" "http://www.w3.org/Graphics/SVG/1.1/DTD/svg11.dtd" >
<svg xmlns="http://www.w3.org/2000/svg" xmlns:xlink="http://www.w3.org/1999/xlink" version="1.1" viewBox="-10 0 266 256">
   <path fill="currentColor"
d="M105 247v6q11 0 21 -5.5t19 -14t16 -18.5t13 -17q4 -1 6 -4t3.5 -6.5t1.5 -7.5v-7q0 -10 -4.5 -19.5t-11 -18t-14.5 -16t-14 -13.5v-1q0 -2 2 -3t4.5 -1h4.5h3h10t15 -0.5t15.5 -0.5h10.5q0 -1 1.5 -2l1.5 -1v-0.5v-0.5v-1l-1.5 -1.5l-1.5 -1.5h-6q-16 0 -32.5 2.5
t-32.5 2.5q-8 0 -16 -1t-16 -1h-3h-4h-3.5h-1.5h-7.5t-11.5 0.5t-11.5 0.5t-7.5 1q-1 0 -3 1t-2 2q0 4 3 6h4h3q12 0 23.5 -1.5t23.5 -1.5h6h5t1.5 1.5l0.5 1.5v1q0 1 -4 4.5t-9 7.5t-9.5 8t-5.5 4q-2 1 -5 3t-6.5 4.5t-6.5 4.5t-5 3q-2 0 -5 0.5t-3 3.5t2.5 4t4.5 1
q4 0 9 -2.5t10 -5.5t9 -6.5t7 -5.5l3.5 -3.5t5.5 -4.5t5.5 -4t2.5 -3q1 0 2 -0.5t2 -0.5q1 -2 3 -4.5t5 -2.5t5 1.5t3.5 4t2.5 5t1 4.5l-2 1.5t-3.5 3.5t-3 3.5t-2.5 2t-3.5 2.5t-5.5 4t-5.5 4l-2.5 2q-6 5 -11 10t-10 9q-6 5 -13 8.5t-13 7.5q-1 1 -1 2.5v2.5q0 2 1 3.5
t3 1.5q3 0 7.5 -2.5t10.5 -7t12.5 -10t12 -10t10 -9l6.5 -6.5q1 0 3 -2l4 -4l4 -4l2 -2q2 -2 2.5 -4.5t3.5 -2.5t3.5 1l1.5 3q1 0 2 1.5t2.5 3l2.5 2.5t1 2l0.5 1l0.5 1q0 2 -0.5 2.5l-1 1t-1.5 0.5t-3 2l-1.5 2t-3.5 4t-3.5 4t-2.5 3l-31 31q-1 0 -4.5 2.5t-7 6t-8 7
t-8 7.5t-6 6.5t-2.5 3.5q0 2 1.5 3t3.5 1t3 -0.5t2 -1.5q10 -8 19.5 -16t18.5 -17l6.5 -6.5l10 -10t10.5 -10t7 -6.5q0 -1 1.5 -2t2.5 -2.5l2 -3t2 -2.5v0v0q2 0 3.5 2t2 4.5t0.5 5.5v5q0 3 -0.5 5.5t-0.5 6.5q-7 8 -14.5 17.5t-15.5 18t-17.5 16t-20.5 11.5zM90 45v7
q0 9 0.5 13.5t2.5 7.5t6 5t11 5h45l2 -1l3 -1.5t2.5 -1t3 -1.5t2.5 -1.5l1 -0.5l5 -14v-32l-0.5 -2t-0.5 -3q-4 -4 -8 -7t-8.5 -4t-9.5 -1h-11q-4 0 -9 -0.5t-10.5 0t-10 2t-7.5 4.5l-0.5 1.5t-1 2.5t-1 2.5l-0.5 1.5l-3 4.5t-2 3.5t-1 4v6zM103 53q13 0 26 -2t26 -2
q4 0 6 1.5t2 5.5q0 2 -1 5.5t-2.5 6t-4 5t-5.5 2.5h-35q-4 0 -6.5 -3t-3.5 -6t-1.5 -7t-0.5 -6zM102 38q0 -5 4.5 -8.5t10 -5.5t11 -2.5t8.5 -0.5q6 0 13 1.5t12 2.5q0 1 0.5 2.5t0.5 3.5t0.5 3.5l0.5 1.5v1v1q-1 0 -2 1.5l-1 1.5q-13 2 -26.5 2.5t-25.5 0.5q-6 0 -6 -6z
" />
</svg>
