<?xml version="1.0" standalone="no"?>
<!DOCTYPE svg PUBLIC "-//W3C//DTD SVG 1.1//EN" "http://www.w3.org/Graphics/SVG/1.1/DTD/svg11.dtd" >
<svg xmlns="http://www.w3.org/2000/svg" xmlns:xlink="http://www.w3.org/1999/xlink" version="1.1" viewBox="-10 0 266 256">
   <path fill="currentColor"
d="M179 246l1 2.5t2 2.5q3 0 4.5 -2.5t2 -5.5t0.5 -6v-5q0 -13 -2.5 -26.5t-4.5 -27.5l-3 -9t-2 -10q0 -2 1 -4.5t2.5 -4.5t2 -4t0.5 -5q0 -7 -3 -12.5t-8 -9.5t-11 -6.5t-12 -5.5h-1q-1 0 -2 1.5t-1 3.5v1q5 3 10 5t9.5 5t7.5 7t3 11q0 2 -0.5 4t-3.5 2q-1 0 -3 -1
t-3.5 -2.5t-2.5 -3l-1 -1.5q-2 -1 -4.5 -2.5t-5.5 -3t-5.5 -3t-3.5 -1.5t-2.5 1t-1.5 2q0 2 4 4t9.5 4.5t9.5 6t4 6.5t-1 3.5t-3 0.5q-4 0 -7.5 -1t-6.5 -2l-6 -2t-6 -1q0 7 5.5 10t12.5 3q3 0 6 -0.5t6 -0.5h3.5t1.5 2q1 1 1.5 4t1.5 6t1.5 5.5t0.5 3.5q0 2 0.5 8t1.5 13.5
t1.5 14t0.5 9.5v3.5v5.5v5v3zM76 239q1 3 2 4t3 1q4 0 5 -3t1 -6q0 -8 -1 -14.5t-1 -13.5q0 -9 0.5 -18.5t4.5 -18.5q0 -2 3.5 -3t8 -1.5t9.5 -1t9.5 -2t7.5 -4.5t3 -7q-4 0 -7.5 1t-7 3t-7 3.5t-7.5 1.5q-2 0 -3 -1.5t-1 -3.5q0 -5 4 -8.5t8.5 -6t8 -4.5t3.5 -5
q0 -1 -1 -1.5t-3 -0.5t-5 1t-5.5 3l-5 4t-4.5 3q0 1 -1.5 2t-3 3t-3 3t-2.5 2v0h-1q-3 0 -3 -3q0 -8 4.5 -13.5t10 -9.5t10.5 -7.5t5 -6.5v-1.5t-2 -1.5q-4 0 -10.5 4.5t-13 10.5t-10.5 13t-4 13q0 2 1 4.5t2.5 4.5t2.5 4t1 4q0 5 -2 9t-2 9q-1 6 -1 10t-0.5 8t-0.5 8v10v5
v5q0 4 0.5 6.5t0.5 3.5zM56 118v1l1 2l1 2q1 0 2.5 -0.5t2.5 -0.5q0 -1 3 -2.5t6 -3.5t5.5 -3.5t3.5 -2.5q12 -6 24.5 -11.5t26.5 -5.5q13 0 27 3.5t24 9.5q1 1 2.5 2t3.5 2.5l4 3t3 1.5q2 0 3 -1t1 -3q0 -4 -2 -6.5t-5.5 -4t-7.5 -2t-6 -2.5q-1 0 -2 -0.5l-1 -0.5
q-10 -4 -19 -5t-19 -3q-1 0 -3.5 -1.5t-2.5 -2.5v-10l0.5 -0.5t1.5 -0.5q8 -3 13.5 -3.5t9 -2t6 -6t5.5 -14.5v-1q0 -1 -0.5 -2t-1.5 -2q1 -8 0 -13.5t-3.5 -9.5t-8 -5.5t-13.5 -1.5q-1 0 -3.5 0.5t-5.5 1l-6 1t-4 0.5h-5.5h-7.5t-7.5 1t-4.5 3q-1 1 -2 2.5t-2 3.5t-1.5 3.5
l-0.5 1.5v26q0 1 1.5 4t3.5 5.5t4 4.5t4 2h20v1.5v3t0.5 3.5t0.5 3v2q0 2 -2 3.5t-4.5 2t-5 0.5h-3.5t-3 1t-4 1.5t-4.5 1t-3.5 1.5q-5 1 -9.5 3.5t-9 5.5t-9.5 5l-10 4q0 1 -0.5 2.5l-0.5 1.5v1zM105 62q-2 -1 -3.5 -4.5t-1.5 -6.5v0q0 -1 0.5 -1.5l0.5 -0.5q12 -2 25.5 -4
t25.5 -2q1 0 2.5 0.5l1.5 0.5q2 1 2 2.5v2.5q0 5 -3 8t-7 5t-8.5 2.5t-8.5 0.5h-2q-1 0 -4.5 -0.5t-7.5 -1t-7.5 -1t-4.5 -0.5zM99 33q0 -3 2.5 -5.5t6.5 -4t8 -2t6 -0.5h3t5.5 -0.5t6.5 -0.5t5 -1h1q7 0 11 2t4 10v2.5t-2 1.5q-12 2 -25 3t-26 1h-4q-1 -1 -1.5 -2.5
t-0.5 -3.5z" />
</svg>
