<?xml version="1.0" standalone="no"?>
<!DOCTYPE svg PUBLIC "-//W3C//DTD SVG 1.1//EN" "http://www.w3.org/Graphics/SVG/1.1/DTD/svg11.dtd" >
<svg xmlns="http://www.w3.org/2000/svg" xmlns:xlink="http://www.w3.org/1999/xlink" version="1.1" viewBox="-10 0 266 256">
   <path fill="currentColor"
d="M157 185q0 3 1 9.5t1.5 13.5t1 13t1.5 9v5t0.5 6.5t2 6t5.5 2.5t4 -5v-0.5v-0.5v-2t-0.5 -2.5t-0.5 -2.5v-1q0 -1 -0.5 -4.5t-0.5 -8t-0.5 -8t-0.5 -4.5q-1 -4 -1 -8t-0.5 -8.5t-1.5 -9t-3 -7.5q-2 -5 -7 -6t-9.5 -1.5t-8 -2t-3.5 -7.5q0 -8 2 -11.5t4.5 -5.5t5.5 -2
t6 -0.5t5 -2.5t2 -7l-0.5 -2t-0.5 -3.5t-0.5 -3.5t-0.5 -3t-1 -3l-2 -4t-2 -3t-3 -1h-29q-2 1 -5 1.5t-6.5 1.5t-6 2.5t-2.5 3.5q-1 5 -1.5 9t-0.5 9q0 4 2.5 6t6 3t7.5 1h7l4 3v1.5v2.5v4q0 2 -0.5 4.5l-1 5t-2.5 2.5l-20 6q-4 1 -6.5 8.5t-4 16t-2 16.5t-0.5 11v12
q0 1 1.5 1h2.5q5 0 6 -5t1.5 -12t0 -13.5t0.5 -10.5q0 -1 1 -2.5t1.5 -3t2 -3.5t1.5 -3q2 -3 5.5 -5.5t6.5 -2.5q2 0 3.5 0.5t3.5 1.5v7q0 10 -0.5 19t-1.5 21q-1 2 -2 4.5t-1 4.5v3t1 3.5t2 2.5t3 1t4 -2t2 -5v-3.5v-5.5v-5.5v-3.5t0.5 -5.5t0.5 -9t0.5 -9t0.5 -5.5v-4.5
v-5t1.5 -4.5t4.5 -3q2 0 4 1t4 2.5t3.5 3zM111 131q0 -6 2.5 -9t6.5 -4t10 -1h10h2.5t3.5 0.5t3.5 1.5t1.5 2v13l-1.5 1t-1.5 2q-2 0 -5 0.5t-6 0.5h-6h-5h-3h-3h-4h-2q-3 0 -3 -2.5v-4.5zM56 114q0 3 1 3.5t4 0.5q4 0 8.5 -2t9 -4.5t8.5 -5.5t7 -5q3 -1 8.5 -3.5t12 -5
t12 -4.5t8.5 -2q8 0 16 3.5t15.5 7.5t15 7.5t14.5 3.5q2 0 3 -0.5l3 -1.5v-1.5v-2.5q0 -3 -5 -5.5t-12.5 -4.5t-16 -4t-16 -4.5t-12.5 -5.5t-5 -8q0 -2 4.5 -2t10 -2t9.5 -7.5t4 -16.5q0 -7 -2.5 -14.5t-8.5 -11.5h-2h-4h-4h-3h-3h-4.5h-3.5h-2q-8 1 -13 2t-7.5 4t-3.5 8
t-1 12v11t3 10q8 2 13 4t9 7v1v0v0q-4 4 -9 7t-10 5t-10.5 4t-10.5 5q-2 0 -6 2l-8 4l-8 4l-6 3q-1 0 -1.5 2t-0.5 3zM112 51v-1.5v-1.5l3 -1l2.5 -0.5t6 -0.5t6.5 -0.5t5 -0.5h8h8q1 1 1.5 2.5t0.5 2.5q0 4 -3 6.5t-7.5 4t-9 1.5h-7.5q-5 0 -9.5 -2.5t-4.5 -8.5zM112 34
q0 -3 2 -5t5 -3t5.5 -1.5t4.5 -0.5q1 0 3.5 -0.5t4.5 -0.5t4 -0.5l2 -0.5q10 0 10 10q0 2 -1 3t-4 2q-7 1 -12 1.5t-11 0.5h-3t-4.5 -0.5t-4 -1.5t-1.5 -3z" />
</svg>
