<?xml version="1.0" standalone="no"?>
<!DOCTYPE svg PUBLIC "-//W3C//DTD SVG 1.1//EN" "http://www.w3.org/Graphics/SVG/1.1/DTD/svg11.dtd" >
<svg xmlns="http://www.w3.org/2000/svg" xmlns:xlink="http://www.w3.org/1999/xlink" version="1.1" viewBox="-10 0 266 256">
   <path fill="currentColor"
d="M96 248q0 2 1.5 2.5t2.5 0.5q2 0 3 -0.5t1 -2.5v-85q0 -12 6.5 -18.5t17.5 -6.5h5q1 0 1.5 1t0.5 2v1q0 4 -2 6t-4 4.5t-4 5.5t-2 8t4 6.5t9 2t9 1.5t4 5t-1.5 6t-3.5 2.5t-5 1t-6 1.5t-5 4t-3 6.5t-1.5 7t-0.5 6.5v7t1 10.5t2.5 10t3.5 4.5t3.5 -1t1.5 -3q0 -8 -2.5 -16
t-2.5 -16v-8q2 -2 4 -5t6 -3q1 0 2 0.5t2 1.5q1 3 2 10.5t2 16t3 15t4 6.5q3 0 3 -3q0 -4 -1.5 -8.5t-2.5 -8.5q-2 -6 -2.5 -13.5t-0.5 -13.5q0 -5 2 -9.5t4 -8.5q0 -2 2 -2.5t3.5 -1.5t2.5 -2t1 -2v-1q0 -1 -0.5 -2l-0.5 -1q-4 1 -7 1h-6h-10t-10 -1q-1 -1 -1.5 -2t-0.5 -2
q0 -6 3.5 -8.5t8.5 -3t10 0t8 -0.5q1 0 3.5 -0.5l2.5 -0.5q3 0 7.5 1t8.5 2.5t6.5 4.5t2.5 8q0 6 -2.5 10t-6.5 6.5t-8.5 5t-7.5 6.5v4v4q0 2 1 9.5t4 15t6 13.5t8 6q2 0 2.5 -1.5t0.5 -2.5q0 -3 -1.5 -5t-3.5 -4q-4 -7 -7.5 -15t-3.5 -16q0 -3 2.5 -5.5t4.5 -2.5
q4 0 6.5 3.5t5 8t4 10.5t3.5 11t3.5 8t3.5 3q3 0 3 -2.5v-4.5q0 -5 -1 -7.5t-3 -5.5q-1 -2 -3 -5.5t-4 -7.5t-3.5 -7.5t-2.5 -4.5q0 -1 -0.5 -2t-0.5 -2q0 -2 0.5 -3l0.5 -1l1.5 -0.5t3.5 -2.5q3 -4 3.5 -9t0.5 -10v-7q0 -1 -1 -2t-2 -1q-2 -2 -6.5 -3.5t-9.5 -2.5t-8.5 -1
t-3.5 -1l-1 -12q-1 -2 1.5 -2.5t6 -0.5h8t8.5 -1.5t6.5 -4.5t2.5 -9q0 -1 -0.5 -3.5t-0.5 -3.5q-1 -2 -4 -3.5t-5 -1.5h-3.5h-5.5h-6h-4l-1 -1v-1v-1l1 -2t2 -2l14 -3l0.5 -1l0.5 -1q1 0 2 -2t2 -3l0.5 -0.5l0.5 -0.5q0 -3 -1 -6.5t-4 -4.5q-4 2 -4.5 5t-2.5 5.5t-5.5 4
t-13.5 1.5q-1 0 -2.5 -0.5t-2.5 -0.5l-3 -3v-12q0 -1 -1.5 -1.5t-2.5 -0.5l-2 0.5t-2 1.5v14l-1.5 1t-2.5 2h-0.5h-0.5q-4 0 -9.5 -0.5t-9.5 -2.5q-2 -1 -2.5 -2.5t-1 -2.5t-1.5 -2t-4 -1q0 7 3 10t6.5 4t6.5 2.5t3 5.5q0 3 -1 4t-3 1.5t-4 0.5h-4h-3.5t-5 0.5t-5 0.5h-3.5
q0 1 -1 2t-1 2l2.5 1.5l2.5 1.5h1q5 0 9.5 -1t8.5 -1h3.5h2.5q1 2 1.5 4t0.5 4t-0.5 3.5t-1.5 2.5q-11 0 -18 4t-11 10.5t-6 14.5t-2.5 17t0 18t0.5 17v9v8t0.5 9t0.5 11zM52 101v6q0 4 0.5 8t0.5 7v4q0 6 -0.5 12.5t1 12.5t5 9.5t11.5 3.5h6.5t6 -1t4 -3.5t2.5 -6.5v-4
t0.5 -7t0.5 -7.5v-4.5v-7q0 -15 -0.5 -30.5t-2.5 -30.5q-1 -2 -3.5 -4.5t-5.5 -1.5l-20 1l-2 2l-0.5 2.5t-1 6l-1 7t-0.5 5.5v3q0 3 -0.5 6t-0.5 7v5zM61 142v-24q0 -1 1.5 -4t2.5 -3h18v4t-0.5 6t-0.5 5.5v3.5v7.5t-0.5 9t-2.5 7.5t-6 3t-6 -1.5t-3 -3t-1.5 -4t-1.5 -6.5z
M141 141v-5q3 -2 6 -1.5t5 0.5h6q2 0 2 1v3q0 1 -0.5 4.5t-2.5 3.5h-14l-1 -0.5l-1 -0.5v-5zM141 121v-1v-2t0.5 -2t1.5 -1t3 -0.5t4.5 -0.5t5 -0.5l2.5 -0.5h1h1q2 0 2.5 1t0.5 3q0 7 -2 9.5t-9 2.5q-5 0 -8 -1t-3 -7zM171 120v-1v-2.5t0.5 -2.5l0.5 -1h17q1 0 1.5 1t0.5 2
v2v1v3q0 1 -2 2h-2t-4 0.5t-3.5 1t-2.5 0.5h-3q-2 0 -2.5 -1.5t-0.5 -4.5zM140 105q0 -3 1 -4.5t3.5 -2t5 -0.5h4.5q4 0 6.5 0.5t2.5 5.5v3h-3.5t-5 0.5t-5 0.5h-3.5h-1h-1l-2 -1t-2 -2zM61 101v-3q0 -1 -0.5 -2.5t-0.5 -3.5v-2v-8q0 -5 1.5 -9t4 -6.5t8.5 -2.5q3 0 4 4t2 9
t1 10v7v7l-2 3h-2h-4h-6t-6 -3zM106 77q0 1 0.5 1.5l0.5 0.5h1q2 0 2 -2q0 -3 1 -6.5t4.5 -6t11.5 -2.5q4 0 6.5 0.5t3.5 1.5t2 3.5t1 6.5h5v-4.5v-7t-0.5 -6.5t-0.5 -5q0 -1 -0.5 -3t-1.5 -4.5t-2.5 -4.5t-3.5 -2h-3.5h-4.5q-9 0 -13.5 1t-6.5 4t-2.5 8.5t-0.5 13.5v3v4
t0.5 4zM196 62q0 4 0.5 8t3.5 7l1 1l0.5 -0.5l0.5 -0.5l1.5 -1t1.5 -2v-2v-3v-4v-2v-7t-0.5 -6.5t-1.5 -7t-4 -5.5h-4.5h-5.5q-14 0 -20.5 5t-6.5 20v9q0 1 0.5 1.5l0.5 0.5h1q2 0 2.5 -2t1 -4.5t2 -4t4.5 -1.5h19zM112 51q0 -3 1.5 -4.5t4.5 -2t5.5 -1t5.5 -0.5q6 0 6 7v3
t-2 3h-3h-3h-4h-5.5t-4 -1.5t-1.5 -3.5zM171 50q0 -3 2 -4t4.5 -1.5t5.5 -1t4 -0.5q3 0 6 1t3 5v1l-2 2l-1 1h-21q-1 0 -1 -1.5v-1.5zM102 22q0 2 1.5 4t3.5 2q11 0 21 -2t21 -1q2 0 2.5 -1t0.5 -2v-2t-1 -1h-47q-1 0 -1.5 1t-0.5 2zM162 21q0 3 3 3.5t4 0.5h3h2
q1 0 5.5 -0.5t9 -0.5t9 -0.5t6.5 -0.5q2 1 2.5 -1t0.5 -3q0 -4 -3 -4.5t-6 -0.5t-9 0.5l-12 1t-10.5 2t-4.5 3.5z" />
</svg>
