<?xml version="1.0" standalone="no"?>
<!DOCTYPE svg PUBLIC "-//W3C//DTD SVG 1.1//EN" "http://www.w3.org/Graphics/SVG/1.1/DTD/svg11.dtd" >
<svg xmlns="http://www.w3.org/2000/svg" xmlns:xlink="http://www.w3.org/1999/xlink" version="1.1" viewBox="-10 0 266 256">
   <path fill="currentColor"
d="M184 156q0 13 -5 20.5t-13.5 12t-18.5 8t-19 7.5l-1 2q-3 5 -4.5 11t-2 12t-0.5 12v11q6 0 9 -4t3.5 -10t0 -12.5t0.5 -9.5q4 -5 8 -7.5t8.5 -4.5t9.5 -3t10 -3q8 -3 12.5 -8t7.5 -11.5t4 -14t1 -13.5q0 -18 -5.5 -27t-14 -13.5t-20.5 -5t-26 -1.5l-2 -0.5t-3 -1.5v-1.5
v-2.5q0 -4 3 -6t7.5 -3t10.5 -1t11 -0.5t9.5 -1.5t6.5 -4q2 -4 3 -9t1 -10.5t-0.5 -10.5t-0.5 -8v-20q-1 -2 -2 -3.5t-4 -1.5t-4 2.5t-1 5.5t-0.5 5.5t-3.5 2.5h-31q-2 0 -2.5 -3.5t-1 -7.5t-2 -8t-6.5 -4q-1 0 -3 0.5t-1 3.5q0 3 0.5 8t2 9t4.5 7t8 3h37q0 1 0.5 2.5
t-0.5 2.5q0 2 -5 3.5t-12.5 2t-16 1t-16.5 0.5q-7 0 -12.5 -0.5t-6.5 -0.5h-6l-3 -25q0 -2 -1.5 -2h-2.5q-4 0 -6 4v2v3q0 2 0.5 6t1 9.5t1 11.5t1.5 11t1.5 8.5l0.5 3.5q2 2 7 2.5l10 1t9 2.5t4 6q0 2 -0.5 4t-4.5 3q-6 1 -11 1.5t-9.5 2t-8 4t-7.5 7.5l-1.5 1.5l-1.5 1.5
q-1 1 -2 3.5t-2 6t-2 6t-1 3.5v6q0 14 2 24.5t7 17t14.5 10t24.5 3.5h5.5t2.5 -4q0 -3 -3.5 -4t-8 -1.5t-10.5 -2t-11 -5t-8.5 -10t-3.5 -18.5q0 -14 3 -23t9 -14t15.5 -7t24.5 -2h3t3 2q-3 3 -4 8t-1.5 9.5t-2 8t-7.5 6.5l-1.5 0.5l-1.5 0.5q-2 1 -2.5 1.5l-1 1t-1.5 0.5
h-3h-2.5t-1.5 -3l0.5 -2t0.5 -4t0.5 -3.5l0.5 -1.5v-2v-2v-4.5t-3 -1.5h-2t-2 2q1 7 0 13.5t-1 14.5v1v2t0.5 4.5t0.5 4.5v3q2 3 9.5 5t16 3.5t16.5 2t11 0.5q4 0 4.5 -1t0.5 -5v-2v-2q-2 0 -5.5 -0.5t-7.5 -1l-8 -1t-5 -0.5q-2 0 -5 0.5t-6.5 0t-6 -1.5t-4.5 -4v0v0
q0 -3 1.5 -4t3.5 -2q1 0 3 -1.5t4.5 -3t4.5 -3t3 -1.5q1 -1 2 -1h1q5 0 9 2.5t7.5 5.5t6 5.5t4.5 2.5q6 0 6 -5v-1q-2 -2 -6 -5t-8.5 -5.5t-8 -4.5t-3.5 -3v-23q0 -2 2.5 -3t3.5 -1q8 0 16 1.5t16 3.5q5 8 8 18.5t3 19.5zM95 82l-1 -2q0 -1 -1 -2.5t-1.5 -3t-1.5 -3.5l-1 -2
v-1v-0.5v-0.5l1.5 -1.5l1.5 -1.5q17 -2 35 -3.5t36 -1.5h3q0 10 -5.5 15t-13.5 7t-17 2h-16v0h-3.5t-5.5 -0.5t-5.5 -0.5h-4.5z" />
</svg>
