<?xml version="1.0" standalone="no"?>
<!DOCTYPE svg PUBLIC "-//W3C//DTD SVG 1.1//EN" "http://www.w3.org/Graphics/SVG/1.1/DTD/svg11.dtd" >
<svg xmlns="http://www.w3.org/2000/svg" xmlns:xlink="http://www.w3.org/1999/xlink" version="1.1" viewBox="-10 0 266 256">
   <path fill="currentColor"
d="M83 127v7v10.5t0.5 10.5t0.5 7q0 1 -0.5 6t-1 11.5t-1 14t-1.5 14t-1 11.5v7q0 1 -0.5 4.5t-0.5 7.5v7.5v5.5q1 0 2.5 -0.5t3.5 -1.5t3.5 -2t1.5 -2l3 -114q0 -1 1.5 -3.5t2.5 -2.5h1h2q4 0 6 3t3 7.5t1 9v7.5q0 2 0.5 8t1 13.5t0.5 14v9.5v6v7.5v8.5v5q4 0 6 -3t3.5 -7
t2 -8t0.5 -6v-10t-1 -16t-2 -18.5t-2.5 -17.5t-3.5 -13.5t-5 -6.5l-2 -0.5t-4.5 -0.5t-4 -0.5t-2.5 -0.5l-0.5 -3t-0.5 -4v-2q0 -3 0.5 -5.5t1 -4.5t1.5 -3l17 -5q3 -1 5 -6.5t3 -12.5t1.5 -13.5t0.5 -9.5v-4v-4q-1 -2 -2.5 -2h-2.5h-3t-2 2l-4 35q0 2 -1 2.5l-3 1.5t-3.5 1
h-2.5h-2t-1 -2v-3q0 -3 -0.5 -6.5t-0.5 -6.5v-4q0 -10 1 -19.5t1 -19.5q0 -3 -1.5 -5t-4.5 -2q-1 0 -3.5 0.5t-2.5 3.5v64q0 3 -2.5 3.5t-4.5 0.5q-5 0 -7 -5t-2 -11.5t0.5 -13t0.5 -9.5q0 -2 -1 -5.5l-1 -3.5h-10q-1 0 -1.5 3l-0.5 3v3l0.5 1t0.5 2t0.5 2l0.5 1q0 2 0.5 7
t1 10.5t1 10t0.5 6.5q0 4 3.5 5t8 1t8 1.5t3.5 5.5q0 5 -1 9.5t-1 9.5q-8 0 -13.5 4t-9 11t-5.5 16.5t-3 18.5t-1.5 17t-0.5 12v2v3v4v2v3v3v3v3l1.5 1.5t2.5 1.5l2 -1.5t3 -1.5q0 -4 0.5 -12.5t1.5 -18.5t2 -20.5t3.5 -19.5t6 -14.5t9.5 -5.5zM173 140v22.5t2 23.5q0 2 1 7
t3 11t4.5 12.5t5 12t5.5 9t6 3.5t4.5 -1.5t1.5 -4.5q0 -2 -2.5 -8t-5 -12.5t-5.5 -12t-5 -8.5q-1 -10 -3 -22t-2 -22q0 -22 3.5 -42t8.5 -41q0 -2 1 -5.5t1 -4.5q0 -3 -2.5 -6.5t-6.5 -3.5h-3h-4.5h-4.5h-3h-17t-16 2v1v1q0 2 0.5 3.5t3.5 1.5h35q1 0 2 1t1.5 2.5t0.5 2.5v2
v3q-3 10 -5 19t-3 17.5t-1.5 17.5t-0.5 19z" />
</svg>
