<?xml version="1.0" standalone="no"?>
<!DOCTYPE svg PUBLIC "-//W3C//DTD SVG 1.1//EN" "http://www.w3.org/Graphics/SVG/1.1/DTD/svg11.dtd" >
<svg xmlns="http://www.w3.org/2000/svg" xmlns:xlink="http://www.w3.org/1999/xlink" version="1.1" viewBox="-10 0 266 256">
   <path fill="currentColor"
d="M146 247q0 3 2 3.5t4 0.5q4 0 9 -7t9.5 -18t9 -24.5t7.5 -26.5t5 -23.5t2 -16.5t-3 -11t-7.5 -9.5t-9 -8.5t-7.5 -7q-1 -2 -2 -5.5t-1 -5.5q0 -4 0.5 -9.5t2.5 -8.5q2 0 6 -0.5t9 -1t9 -0.5h6h5q2 0 4.5 -1t4.5 -2t3 -4q-3 -5 -9 -5q-20 0 -40 2.5t-40 2.5q-1 0 -3 0.5
t-3 1.5v1v1v3t1 2h33l2 1q-1 2 -1 5v7v7.5t1 4.5q0 8 5 13t10 9.5t9.5 10t4.5 12.5q0 8 -2 18t-5 20.5t-7 20t-7 16.5q-1 2 -4 6.5t-5.5 9.5t-5 9.5t-2.5 6.5zM72 240q0 3 2 4.5t4 1.5q4 0 4.5 -4t0.5 -7q0 -19 -0.5 -38t-0.5 -38v-4v-7t0.5 -11t0.5 -11v-7q1 -1 2 -1.5
t2 -0.5q5 0 7.5 6.5t3.5 15t1.5 16.5t0.5 11q0 9 -1 17.5t-1 17.5v3.5v3.5q0 2 1.5 2h2.5q3 0 5 -3t2 -6v-49q0 -1 -0.5 -3.5t-0.5 -3.5v-3v-3v-4v-2q0 -1 -0.5 -2t-1.5 -2.5t-1.5 -2.5t-0.5 -2v-1.5t-0.5 -3.5t-0.5 -3v-2q-1 -4 -4.5 -5.5t-7 -2.5t-6.5 -2t-3 -2v-12
q0 -2 4.5 -3.5t10 -4t10 -6t4.5 -10.5v-27q0 -2 -1.5 -2.5l-3 -1l-3 -1l-1.5 -0.5v29q0 5 -3.5 8.5t-7.5 3.5q-3 0 -4 -1.5t-2 -3.5v-17q0 -8 1 -16t1 -16v-3q0 -3 -0.5 -4.5t-2 -2.5t-2.5 -1q-3 0 -4 1.5t-1 4v5v3.5v3v7v6v4t-0.5 5.5t-0.5 9t-0.5 9t-0.5 5.5q0 2 -2 2h-2
q-5 0 -7 -4t-3 -9.5t-1 -11t1 -8.5q-1 -3 -3 -5t-6 -2q-3 0 -3 5q0 7 1.5 17t3.5 18q2 4 5 5.5t7 3t6.5 2.5t2.5 3q0 7 -3.5 11t-8 7.5t-9 7.5t-5.5 11v3.5t-0.5 5.5t-0.5 5.5v4.5v3v3t-0.5 2.5t-1.5 3.5q0 2 -0.5 8t-1 13t-1 13t-0.5 8v6q0 3 0.5 5t3.5 2t5 -6.5t3 -16.5
t1.5 -22t1.5 -23t4 -19.5t8 -12.5q1 1 2 2.5t1 2.5q0 19 1 37t1 36v12v10t-0.5 10.5t-1.5 12.5q0 1 -0.5 3z" />
</svg>
