<?xml version="1.0" standalone="no"?>
<!DOCTYPE svg PUBLIC "-//W3C//DTD SVG 1.1//EN" "http://www.w3.org/Graphics/SVG/1.1/DTD/svg11.dtd" >
<svg xmlns="http://www.w3.org/2000/svg" xmlns:xlink="http://www.w3.org/1999/xlink" version="1.1" viewBox="-10 0 266 256">
   <path fill="currentColor"
d="M185 248l1.5 1.5l0.5 0.5h1h1l0.5 -0.5t0.5 -1.5q1 -1 2 -3t1 -3v-51q-4 -10 -6 -21t-5 -21.5t-8 -20.5t-14 -17q-2 -2 -6 -4t-8.5 -4t-8.5 -4t-4 -4v-1h1q0 -1 0.5 -4.5t0.5 -4.5q15 1 24 -1t14.5 -7.5t7.5 -15t2 -22.5q0 -2 -0.5 -5.5t-0.5 -4.5q0 -2 -1.5 -2h-2.5h-2
q0 2 -0.5 7t-1.5 10.5t-1.5 10t-1.5 6.5q-1 5 -3.5 7t-6 3t-8 1h-8.5h-8q-2 -3 -2 -4v-3q0 -12 1 -23.5t1 -23.5q0 -3 -1.5 -4.5t-4.5 -1.5q-2 0 -3 0.5t-1 3.5v54q0 1 -1 2l-2 2h-1q-2 0 -5.5 -0.5t-7.5 -1t-7.5 -1t-4.5 -1.5q-5 -3 -7 -8t-2.5 -11.5t-0.5 -12v-9.5
q-1 -1 -2.5 -3t-2.5 -2h-1v0q-2 1 -3 3t-1 4v1q1 14 2 23.5t5 16t12.5 9.5t24.5 4q2 0 2 2.5v2.5q0 5 -4 8t-9.5 6l-11 6t-8.5 7q-11 13 -15 28.5t-6 31.5q0 6 -1 16.5t-2 20t-2 16.5l-1 7l2 10q5 -2 6.5 -6.5t1.5 -10v-11.5t1 -9q1 -2 1.5 -4l0.5 -2q0 -2 0.5 -7.5t1 -12
t1 -12.5t0.5 -7q1 -5 2 -11t3.5 -12t5.5 -11t8 -8l2 -1.5t3 -1.5q1 -1 3 -2.5t4 -3.5t4 -3t4 -1q3 0 4 2.5t2 5.5t1 6v4q0 4 -1 8.5t-1 8.5q0 2 1 3.5t1 3.5t-1.5 3.5t-4 2.5t-5 1h-4.5q-5 0 -5.5 -3.5t-0.5 -6.5q0 -5 -1 -8t-5 -3v42q0 4 1 7.5t3.5 6.5t5.5 5t7 2h27
q7 0 10.5 -4t5.5 -9.5t2.5 -11.5t0.5 -10q0 -2 -0.5 -6.5l-1 -9t-2 -8.5t-2.5 -5q-4 1 -4.5 4.5t-1.5 7t-2.5 6.5t-6.5 3h-3t-3 -3q0 -5 -0.5 -9t-1 -7.5t-0.5 -6.5v-8v-4q0 -4 1 -4q0 -4 1.5 -5t4.5 -1q11 0 19 9t12.5 22t7 29.5t4 31.5t1.5 28t1 18zM110 190
q-2 -1 -2.5 -3.5t-0.5 -3.5v-4q0 -2 0.5 -4.5t1 -4t2.5 -2.5h9t7.5 -0.5t6.5 -1t8 -0.5q4 0 7.5 1t3.5 6q0 11 -6 14.5t-16 3.5h-10.5t-10.5 -1z" />
</svg>
