<?xml version="1.0" standalone="no"?>
<!DOCTYPE svg PUBLIC "-//W3C//DTD SVG 1.1//EN" "http://www.w3.org/Graphics/SVG/1.1/DTD/svg11.dtd" >
<svg xmlns="http://www.w3.org/2000/svg" xmlns:xlink="http://www.w3.org/1999/xlink" version="1.1" viewBox="-10 0 266 256">
   <path fill="currentColor"
d="M80 147q0 26 -1.5 52.5t-1.5 52.5q4 0 6 -2t3 -4.5t1 -6.5v-7t-1 -8.5t-1 -9.5q0 -18 0.5 -37.5t2.5 -38.5q1 0 2 -1t1 -2h1q2 0 4 1.5t3 3.5l2 4t1 4q1 2 1.5 7l1 10t1 9t0.5 5v10.5v16t0.5 15.5t0.5 10q1 0 2 -1t2 -3t1.5 -3.5t1.5 -2.5v-19q0 -13 -1.5 -27.5
t-3.5 -28.5q-1 -8 -4.5 -12t-7 -5t-6.5 -2t-3 -4v-17l2 -4q11 0 16 -7.5t7 -17t1.5 -20t-0.5 -18.5q-6 0 -8 4t-2.5 10t0 13t0 13t-2.5 10.5t-8 4.5l-2.5 -0.5t-2.5 -1.5v-39q0 -1 -0.5 -4t-0.5 -4v-2t0.5 -3.5t0.5 -3v-2.5v-10v-10q0 -1 -2 -2t-3 -1t-2.5 1t-1.5 2
l-0.5 2.5t-0.5 3.5q0 4 0.5 7.5t1.5 8.5v53q0 2 -1 4t-3 2q-5 0 -7 -4t-3 -9t-1 -10q0 -6 -1 -8v-4t-0.5 -6t-0.5 -5.5v-3.5q-1 -2 -2 -2.5t-3 -0.5t-3 0.5t-2 2.5q2 6 2 13t1 14t2.5 14t5.5 12q2 2 5 2.5l6 1t5 1t2 1.5v21q0 1 -2 2.5t-4 2.5t-4 1.5t-3 0.5q-8 6 -11.5 14
t-4.5 17t-1 18.5v17.5q-1 7 -3 13t-2 12q0 2 1 3.5t3 1.5q1 0 3 -0.5t3 -1.5l4 -62q1 -3 1.5 -8t2 -9.5t4 -7.5t7.5 -3q2 0 2.5 1t1 2.5t0.5 3.5v3zM120 171q0 3 2 4t4 1q11 -1 21 -1h21.5h21t20.5 -2q1 0 1.5 -1.5l0.5 -1.5q0 -1 -0.5 -2t-1.5 -2l-0.5 -0.5l-0.5 -0.5h-37
v-59q1 0 3.5 -0.5t5 -0.5t4.5 -0.5t3 -0.5h4h5.5t5 -1t3.5 -3q0 -2 -2 -3.5t-3 -1.5q-5 0 -10.5 0.5t-10.5 0.5h-5l-1 -1v-58l0.5 -2t0.5 -3h1q0 -3 -2.5 -3.5t-4.5 -0.5h-3q-2 0 -2 1v66l-1 1q-2 0 -6 0.5t-8.5 1t-8.5 1t-6 1.5h-3.5t-1.5 2t1 3t2.5 1h3.5h2q5 0 10.5 -1
t10.5 -1h3t2 2v9q0 12 -0.5 24t-2.5 24q0 2 -2 2.5t-4.5 1t-4.5 0t-3 -0.5q-2 1 -5.5 1.5t-7.5 1t-7.5 0.5t-5.5 1l-0.5 0.5z" />
</svg>
