<?xml version="1.0" standalone="no"?>
<!DOCTYPE svg PUBLIC "-//W3C//DTD SVG 1.1//EN" "http://www.w3.org/Graphics/SVG/1.1/DTD/svg11.dtd" >
<svg xmlns="http://www.w3.org/2000/svg" xmlns:xlink="http://www.w3.org/1999/xlink" version="1.1" viewBox="-10 0 266 256">
   <path fill="currentColor"
d="M145 169v13t0.5 13t2.5 12t5 11q4 5 7.5 11t8 10.5t9.5 8t12 3.5h3.5h3.5q0 -1 0.5 -2t0.5 -2v0q0 -2 -3 -5.5t-7.5 -7t-9.5 -7.5t-9.5 -8t-7.5 -8.5t-3 -8.5v0q0 -1 0.5 -1.5l0.5 -0.5q1 -1 4 -3l3 -2q2 -2 4.5 -6.5t4 -9l2.5 -7.5t2 -3q7 -4 11 -5.5t6.5 -4t4.5 -6.5
t5 -12q1 -1 1.5 -3l0.5 -2v-33q0 -6 -3.5 -8t-8 -3t-9 -1.5t-7.5 -2.5v-5q0 -7 1.5 -13t3.5 -15q3 -3 7 -5t8 -3.5t6.5 -3.5t2.5 -5q0 -2 -0.5 -4t-3.5 -2v0q-1 1 -3.5 2t-5.5 2t-5.5 2.5t-3.5 2.5q-5 2 -8 6.5t-5 10t-2.5 11t-1.5 10t-1.5 7.5t-2.5 4q-1 0 -4 -0.5t-4 -0.5
q0 -12 2 -23t3 -22q-2 -4 -5.5 -7t-7.5 -4.5t-8 -2t-8 -0.5q-3 0 -5 0.5t-2 4.5t4 4.5t8.5 1t8.5 3t4 11.5t-1 18t-3 17q-2 2 -7 2.5t-7 0.5q-4 1 -6.5 5t-3.5 9.5t-1 10.5v9v17q0 6 2 10.5t6.5 7.5t13.5 7zM78 240q0 3 0.5 5t3.5 2t4 -1.5t2 -4.5v-3.5t0.5 -5t0.5 -4v-2.5
v-80q0 -1 1.5 -2.5l1.5 -1.5q4 -1 6 5t3.5 15.5t2.5 21t1.5 21.5t2 16.5t3.5 6.5q3 0 3.5 -3t1.5 -6v-2t0.5 -4t0.5 -4v-3q0 -8 -0.5 -17t-2 -18t-4 -18t-6.5 -15q-2 -3 -4 -3.5t-4 -0.5t-3.5 -1t-3.5 -4q0 -1 0.5 -3t0.5 -4.5t0.5 -4.5t0.5 -3v0v-2l-1 -2l-1 -2v-1
q0 -2 2.5 -3.5t5.5 -3t7 -2.5t6 -3q3 -13 5 -26t2 -26q0 -2 -1 -4t-4 -3l-1.5 0.5l-1.5 0.5l-2 2q0 2 -0.5 6.5t-0.5 9t-0.5 9t-0.5 6.5q0 3 -0.5 6.5t-1.5 7t-3 5.5t-5 2q-4 0 -5 -1.5t-1 -4.5v-5q0 -3 0.5 -10t0.5 -15t0.5 -15t0.5 -9q1 -4 1.5 -6.5t0.5 -6.5t-1 -5t-4 -1
q-2 0 -4.5 0.5t-2.5 3.5v71q0 3 -0.5 4t-3.5 1q-2 0 -4 -1.5t-3 -3.5t-1 -4.5t-1 -4.5v-4t-0.5 -6t-0.5 -6v-4v-21q-1 -2 -2.5 -2.5t-3.5 -0.5t-3.5 0.5t-1.5 3.5q0 12 0.5 24.5t3.5 24.5q2 5 5 8t6.5 5t6 3.5t2.5 2.5v27l-0.5 0.5t-1.5 0.5q-3 1 -5.5 1.5t-4.5 1.5t-4 2.5
t-4 4.5q-1 3 -2.5 9t-2.5 13.5t-2.5 17t-2 18t-1 15t-0.5 10.5q3 0 7 -1.5t4 -6.5l8 -64q1 -1 1 -3t1 -4t2.5 -3.5t3.5 -1.5q1 0 1.5 0.5l0.5 0.5q1 6 1.5 12.5t0.5 13.5v13.5v12.5v33q-2 4 -2 6v5zM155 185v-15v-15q0 -3 0.5 -11t1 -16.5t1 -16.5t0.5 -11q1 -2 2 -2h2
q4 0 5 3t1 7v52q0 2 -0.5 6.5t-2 8.5t-3 7.5t-4.5 4.5q-1 0 -2 -1zM132 126v-4v-4.5v-4.5v-4q0 -4 4 -6.5t8 -2.5h1.5t1.5 1v4v5v6v3v5v6v5v3l-0.5 2t-0.5 4.5t-0.5 4.5t-0.5 3q0 3 -0.5 4.5t-2.5 1.5q-5 0 -7 -4.5t-2.5 -10t-0.5 -10.5v-7zM177 101l2 -3l2 -0.5t3 -0.5
q4 0 6.5 1.5t4 4t2 6t0.5 7.5v12t-1.5 13.5t-5 11t-10.5 4.5h-2t-1 -2v-54z" />
</svg>
