<?xml version="1.0" standalone="no"?>
<!DOCTYPE svg PUBLIC "-//W3C//DTD SVG 1.1//EN" "http://www.w3.org/Graphics/SVG/1.1/DTD/svg11.dtd" >
<svg xmlns="http://www.w3.org/2000/svg" xmlns:xlink="http://www.w3.org/1999/xlink" version="1.1" viewBox="-10 0 266 256">
   <path fill="currentColor"
d="M77 141v110q6 0 7 -3l3 -9v-5v-8.5v-8.5v-5q0 -16 -1 -30t-1 -30v-16q0 -2 1 -3.5t3 -1.5q3 0 5.5 3.5t4.5 9t2.5 12.5t1 13t1 11t0.5 7q0 10 -2 20.5t-2 19.5q0 4 4 4t5.5 -6t2.5 -13.5t1 -15.5v-10q0 -14 -2 -30t-9 -29q-1 -1 -3.5 -2l-5 -2t-4.5 -2t-2 -2l-2 -21
q0 -1 1 -1.5t2 -0.5l2 -1t4 -1.5t4 -1.5l2 -1q1 0 1.5 -0.5t0.5 -1.5q1 -1 2 -3t2 -4.5t1.5 -4l0.5 -1.5q1 -3 1.5 -7t0.5 -8.5v-8.5v-9v-9q-1 -1 -2 -3t-2 -2h-1q0 1 -1.5 2t-1.5 2q-1 13 -1.5 25.5t-4.5 25.5q-2 1 -2.5 1.5t-2.5 0.5q-1 0 -2 -0.5t-2 -1.5v-10
q0 -12 0.5 -24.5t0.5 -24.5v-13q0 -1 -1 -1h-2q-3 0 -3.5 2t-1.5 5q-1 16 -0.5 33.5t-2.5 34.5h-1.5h-1.5q-5 0 -7.5 -4t-4 -10t-1.5 -13t-0.5 -13t-1.5 -10t-4 -4t-4.5 1t-1.5 3v1v1q0 2 0.5 6.5l1 9t1 8t0.5 4.5q1 6 2.5 13t5.5 12q3 5 6.5 5.5t6.5 1t4.5 2.5t1.5 11
q0 5 -1.5 7t-3.5 3t-5 1.5t-6 3t-5.5 6.5t-4 8.5t-2 9t-1.5 8.5q0 3 -0.5 10t-1 13t-1 11l-0.5 5v6l-1 26l1 0.5t2 0.5l0.5 0.5l0.5 0.5q2 0 4 -3t3 -6q-1 -15 0.5 -29.5t3.5 -30.5q1 -2 2 -7t2.5 -10.5t4 -9.5t5.5 -4v0v0zM150 144q-1 0 -5 1t-8.5 1.5t-8.5 1.5t-6 1
q-2 1 -5 1.5t-3 3.5v1l1 1l41 -1h5h5.5t7.5 -0.5t7.5 -0.5h4.5t4.5 -0.5l7 -1t6.5 -2t3 -4.5q-1 -1 -2 -2.5l-1 -1.5h-35q-1 0 -2.5 -1t-2.5 -2v-17q0 -5 -0.5 -12t0.5 -13t3.5 -10t9.5 -4q2 -1 5.5 -0.5t7 0t6.5 -2t4 -4.5q1 -2 0 -3t-2.5 -1.5t-3 -0.5h-1.5h-2h-2
q-3 0 -11 1t-17 2t-17 2t-11 2h-2.5t-5 0.5t-4.5 2t-2 2.5q0 2 1.5 3.5t3.5 1.5h1q1 0 3.5 -1t5 -1.5t4.5 -1t3 -0.5h3t4 0.5t4 0.5h3v3.5v6.5v5.5v3.5q0 4 -0.5 10.5t-1 12.5t-1 10.5l-0.5 4.5z" />
</svg>
