<?xml version="1.0" standalone="no"?>
<!DOCTYPE svg PUBLIC "-//W3C//DTD SVG 1.1//EN" "http://www.w3.org/Graphics/SVG/1.1/DTD/svg11.dtd" >
<svg xmlns="http://www.w3.org/2000/svg" xmlns:xlink="http://www.w3.org/1999/xlink" version="1.1" viewBox="-10 0 266 256">
   <path fill="currentColor"
d="M77 250q0 1 1 1.5t2 0.5q3 0 4.5 -2.5t2.5 -4.5q-1 -31 0 -62t3 -61l0.5 -0.5l0.5 -0.5q3 0 5 4t3.5 10t2 13.5t1 13.5t0.5 10v5q0 8 -1 15.5t-1 15.5v11q1 2 2 2h2q3 0 4 -1t2 -4v-30v-16.5t-1 -16t-2 -15.5t-4 -16q0 -1 -1.5 -2.5l-3 -3l-3 -3l-2 -2t-3 -1.5t-3.5 -2
v-0.5v-0.5q0 -3 2.5 -5.5t6.5 -4.5t7.5 -3.5t5.5 -3.5q1 -3 2 -5.5t1.5 -5.5l1 -6t1.5 -5v-29q0 -2 -3 -3t-4 -1v5.5t-0.5 9.5t-0.5 9.5v6.5t-0.5 6t-2 7.5t-3.5 6t-6 2.5t-6 -3.5t-2 -7.5v-6q0 -3 0.5 -10.5t1 -15.5t1 -15.5t0.5 -10.5q0 -4 -2 -5.5t-5 -1.5h-2t-2 2v6v5
q0 4 0.5 11.5t0.5 16t0.5 16t0.5 10.5q0 1 -0.5 2.5t-0.5 3t-1 2.5t-2 1q-5 0 -7.5 -4t-3.5 -9.5t-1.5 -12t-1.5 -12t-2 -9.5t-4 -4q-2 0 -2.5 0.5l-1.5 1.5v6v5q0 11 2 20t6 20q4 5 9.5 6.5t10.5 4.5v5q0 5 -3 7.5t-7.5 4t-8.5 4.5t-5 8q-3 7 -4.5 18t-3 23t-2 23t-0.5 18
v9q-1 3 0.5 3.5t3.5 0.5t3 -0.5t3 -3.5q1 -12 1 -24.5t1 -25.5t4 -25t10 -23l1 -0.5t2 -0.5l0.5 -0.5l0.5 -0.5l0.5 0.5l0.5 0.5l0.5 0.5l0.5 0.5v31q0 22 -1.5 44t-1.5 44v8zM130 183q0 7 2.5 12t6.5 7.5t9.5 4t11.5 1.5t11.5 -1t11.5 -4q1 -1 2 -2.5t2.5 -3l2.5 -2.5l1 -1
v-29q0 -2 -2.5 -4.5t-5.5 -4.5t-6 -3t-5 -1h-2t-3 1t1 2l15 16l0.5 2t0.5 3q0 12 -6 17t-17 5q-3 0 -5.5 -0.5t-5 -0.5t-5.5 -1l-6 -2q-2 -2 -2 -3.5v-4.5q0 -11 4 -18t9.5 -11.5t10 -8t4.5 -9.5v-26q0 -2 -1.5 -4.5t-3.5 -2.5q-1 0 -1.5 1l-0.5 1l-3 32q-4 4 -8.5 9
t-8 10.5t-6 11.5t-2.5 12zM173 78q0 7 2 13.5t5 12.5t7 11.5t8 11.5q2 1 2.5 1.5t1.5 0.5q3 0 5 -2t1 -5q0 -3 -1.5 -5t-3.5 -3.5l-4 -3t-4 -4.5q-6 -8 -8 -17.5t-2 -20.5q0 -9 1 -18.5t1 -18.5q0 -2 -1 -4.5t-4 -2.5q-2 0 -3 1.5t-2 3.5q1 13 0 24.5t-1 24.5zM119 121v1
l0.5 0.5t1.5 0.5l1 -0.5t2 -0.5q10 -10 17 -20.5t11 -23.5q0 -3 0.5 -5.5t0.5 -5t0.5 -5t1.5 -4.5v-26q0 -3 -1.5 -4t-3.5 -1h-3t-2 2v8v11v12v8q-1 11 -5 19.5t-9 17.5l-3 3t-4 4.5t-3.5 4.5t-1.5 4z" />
</svg>
