<?xml version="1.0" standalone="no"?>
<!DOCTYPE svg PUBLIC "-//W3C//DTD SVG 1.1//EN" "http://www.w3.org/Graphics/SVG/1.1/DTD/svg11.dtd" >
<svg xmlns="http://www.w3.org/2000/svg" xmlns:xlink="http://www.w3.org/1999/xlink" version="1.1" viewBox="-10 0 266 256">
   <path fill="currentColor"
d="M82 247q0 4 4 4q3 0 6 -1.5t3 -5.5v-90q1 -3 1 -9.5v-13.5t1 -12.5t3 -5.5t3.5 1t3.5 3t3 3.5t1 3.5v9.5t0.5 13.5t0.5 14v9v2v4.5v4.5v4q0 9 -0.5 18.5t-0.5 18.5q0 4 3 4t5 -3t2 -6v-79v-2.5t-0.5 -6t-1 -6.5t-1.5 -5q-1 -4 -4 -6.5t-6.5 -4.5t-6.5 -3.5l-3 -1.5v-20
q10 -1 15 -3.5t8 -7.5t4 -11.5t2 -15.5v-3q0 -3 -0.5 -5.5t-3.5 -2.5h-2t-3 1v4.5t-0.5 6t-0.5 6.5v4q-1 2 -1.5 5t-1.5 6t-3 5.5t-6 2.5q-3 0 -4.5 -2.5t-1.5 -5.5q0 -2 0.5 -4t1.5 -4q1 -11 1.5 -19t0.5 -18v-6q-1 -1 -2 -1.5t-2 -0.5q-2 0 -3.5 0.5t-2.5 3.5q1 14 0 28
t-1 29h-2t-2 0.5t-2.5 1t-1.5 -0.5q-2 0 -3.5 -2t-3.5 -4.5t-3 -4.5t-1 -4v-29q0 -2 -1 -2.5t-3 -0.5t-3 1t-3 4v9q0 3 0.5 7.5l1 9t1.5 9t2.5 6.5t5.5 3.5t7.5 3t6 3.5t2.5 5q0 7 -1.5 10t-3.5 5t-5 3t-6 2.5t-5.5 4.5t-5.5 9q-3 8 -4.5 20t-2.5 25.5t-1 25.5t-1 20v5
q0 4 0.5 5.5t3.5 1.5q4 0 6.5 -4t2.5 -8q-1 -18 0 -35t4 -34q1 -2 1.5 -7t1.5 -10.5t3 -10t5 -4.5q2 0 3 0.5t2 1.5q0 1 0.5 3t0.5 4t0.5 4t0.5 3v2q0 12 -1.5 24.5t-1.5 24.5v7v13v13v8q-1 6 -2.5 13t-1.5 13zM188 246l3 1.5t3 0.5q1 0 3 -0.5t2 -3.5v-74l1 -3l1 -3v-2
q0 -7 -0.5 -15.5t-0.5 -17.5t-0.5 -17t-0.5 -16q0 -12 -3 -16.5t-8 -6t-12.5 -1.5t-16.5 -1q-3 -2 -3 -5v-5v-3q0 -2 0.5 -6l0.5 -4h39q2 0 4 -1.5t2 -2.5l-3 -3h-40v-23q0 -1 -3 -2.5t-4 -1.5h-1l-3 3t-2 4v0.5v0.5q1 0 1.5 1t0.5 2v82q0 1 1 3.5l2 5t3 4t3 1.5h33v17l-2 2
q-5 0 -11.5 1t-12 3t-10 6t-5.5 11q-1 17 -2 36t-1 37v6v4l2 2q1 1 3 -1t3 -4.5t2 -2.5v-58q0 -15 6.5 -23.5t21.5 -8.5h2.5h1.5q1 0 1.5 0.5t0.5 1.5v55q-2 2 -2 3.5v4.5t1 7t1 8q0 3 -1 6.5t-1 6.5v3v2zM156 99q0 -3 -0.5 -6t0 -5.5t2 -4.5t4.5 -3h9h3.5h5.5t5.5 1.5
t2.5 3.5v22l-0.5 1.5l-0.5 1.5q0 1 -1 1.5l-1 0.5h-25l-0.5 -1t-1.5 -2.5t-1.5 -3.5t-0.5 -3v-3z" />
</svg>
