<?xml version="1.0" standalone="no"?>
<!DOCTYPE svg PUBLIC "-//W3C//DTD SVG 1.1//EN" "http://www.w3.org/Graphics/SVG/1.1/DTD/svg11.dtd" >
<svg xmlns="http://www.w3.org/2000/svg" xmlns:xlink="http://www.w3.org/1999/xlink" version="1.1" viewBox="-10 0 266 256">
   <path fill="currentColor"
d="M81 249q0 2 3 2q5 0 6 -3.5t1 -6.5q0 -18 -1 -35t-1 -34v-41q0 -1 0.5 -3.5t1.5 -3.5h0.5h1.5q4 0 6 2.5t3.5 6.5t2 8t0.5 7v5v9v10v6l1 3l1 3v5q0 8 -1 16t-1 16q0 2 0.5 3.5t3.5 1.5q2 0 3 -1t2 -3v-4v-8v-7v-5v-15q0 -8 -0.5 -14.5t-0.5 -14t-1 -17.5q-1 -7 -4.5 -12
t-7.5 -7.5t-7.5 -4.5t-3.5 -4v-13q0 -1 2.5 -2l2.5 -1l1.5 -1t3.5 -1.5t3 -1t2 -0.5q5 -2 7 -6.5t2.5 -10.5t0.5 -12v-10v-2v-3.5v-2.5v-3q-1 -1 -2 -3t-2 -2h-1l-2 2l-2 2q1 6 1 11.5t-0.5 11t-2 10.5t-4.5 10h-2h-2q-2 0 -4 -0.5t-2 -4.5v-40l1.5 -4.5t0.5 -4.5v-3
l-0.5 -1.5t-0.5 -3t-0.5 -3t-0.5 -2.5l-1.5 -0.5l-1.5 -0.5h-1h-1q-1 1 -3 2.5t-2 2.5v61q0 2 -1.5 3t-3.5 1q-4 0 -5.5 -3.5t-2 -9t-1 -12t-1 -12t-2 -9t-4.5 -3.5q-4 0 -4.5 3t-0.5 6q0 4 0.5 9t1.5 10.5t2.5 11t3.5 9.5q3 5 6 6.5t6 2t4.5 2.5t1.5 9t-3 10t-7 5t-8.5 5
t-7.5 8q-2 2 -2.5 6t-0.5 8.5v9v6.5v3q0 2 -0.5 5.5t-0.5 6.5v6v4t0.5 6t0.5 6v5l0.5 2.5t0.5 3.5t-0.5 3l-1 4l-1 4l-0.5 2v1v1q0 1 1.5 2l1.5 1h1q3 0 5 -2.5t3 -6.5t1 -8v-6q0 -10 -1 -19.5t-1 -19.5v-5v-6v-5.5v-2.5l4 -15q0 -2 2 -3t4.5 -2t5.5 -1h4v2v2.5v2.5v2v14
t0.5 20t0.5 23.5v24t0.5 20.5t0.5 13zM161 242q0 3 1.5 5t4.5 2t4.5 -3.5t1.5 -6.5v-109q9 0 13.5 3.5t6.5 9.5t2.5 13t0.5 15v11v16v17v11q-1 2 1 2.5t3 0.5q3 0 4.5 -2t1.5 -5v-1l-0.5 -2t-0.5 -3.5t-0.5 -3l-0.5 -1.5v-9v-15v-16v-9v-4t-0.5 -6.5l-1 -7t-1.5 -5.5
q-4 -9 -8.5 -12t-9 -5t-7.5 -4.5t-3 -11.5v-8q1 -3 3 -4.5t5 -2t5.5 -1t4.5 -1.5q4 -2 6 -6.5t2.5 -10.5t0 -11t-0.5 -8v-15q0 -2 -1 -2h-2q-3 0 -4 3.5t-1 8.5v11t-1 11.5t-3 9t-6 3.5h-2t-2.5 -0.5t-2.5 -0.5t-1 -1v-65q0 -2 -2 -3t-3 -1q-2 0 -4.5 2.5t-2.5 4.5t0.5 3
t1.5 2q0 3 0.5 8.5t0.5 12t0.5 12t0.5 7.5v4v5t-0.5 6t-2 5t-4.5 2q-1 0 -3 -1t-4 -2.5t-3 -3.5t-1 -3l-4 -35l-0.5 -0.5t-0.5 -1.5q-1 0 -2 -0.5t-2 -0.5l-0.5 0.5l-0.5 0.5v9q0 5 -0.5 10.5t0.5 11t2.5 10.5t5.5 9q1 0 3.5 0.5t5.5 1.5t5.5 2t3.5 3q1 5 1.5 9t0.5 9
q0 3 -3.5 5.5t-7.5 4.5t-8 5t-6 8q-1 4 -1 6t-0.5 4l-1 4t-2.5 5q-1 7 -2 12.5t-1 11v11.5v12v4v6v6v3q0 2 1 2h2q3 0 4 -2t1 -5v-16q0 -3 0.5 -9t1 -13t1 -13t0.5 -8q1 -3 2 -7t2.5 -8.5t4 -8t6.5 -3.5h3t2 1q0 9 0.5 16.5t1 14.5t0.5 14v15q0 13 -2 25t-2 25z" />
</svg>
