<?xml version="1.0" standalone="no"?>
<!DOCTYPE svg PUBLIC "-//W3C//DTD SVG 1.1//EN" "http://www.w3.org/Graphics/SVG/1.1/DTD/svg11.dtd" >
<svg xmlns="http://www.w3.org/2000/svg" xmlns:xlink="http://www.w3.org/1999/xlink" version="1.1" viewBox="-10 0 266 256">
   <path fill="currentColor"
d="M173 175q0 1 1 4.5t2 7.5t2 7.5t1 4.5q1 4 2 11.5t2 15.5t2.5 14.5t3.5 8.5q1 0 2 0.5t2 0.5q3 0 4.5 -3t1.5 -6v-1.5v-2.5q-1 -3 -2.5 -10.5t-3.5 -16t-3.5 -16t-2.5 -9.5q0 -4 -1.5 -7.5t-1.5 -7.5q0 -2 1.5 -3.5t3.5 -2.5t4.5 -2.5t3.5 -2.5q4 -6 6.5 -14.5t2.5 -15.5
q0 -9 -2.5 -14.5t-6.5 -8.5t-10.5 -4t-13.5 -1q-1 0 -1.5 -0.5t-0.5 -1.5v0v0q0 -9 0.5 -18t0.5 -19q5 0 9.5 2t9 4.5t9 4.5t9.5 2q0 -8 -6 -12.5t-12.5 -6.5t-12 -3t-5.5 -3v-31q0 -3 -2.5 -4t-4.5 -1q-1 0 -3 0.5t-2 3.5v24q0 3 -3.5 6t-8 5.5t-10 5t-10.5 5.5t-8 6.5
t-3 7.5q0 3 2 3.5t4 0.5t3 -1t4 -3q1 -1 4.5 -3.5t7 -5.5t7 -5.5t4.5 -3.5h5l0.5 1.5t0.5 3.5t0.5 4.5t0.5 3.5v2.5v2.5v3v2q0 2 -0.5 4.5t-0.5 5.5t-0.5 4.5l-0.5 1.5l-2 2h-3.5t-5 0.5t-5.5 0.5h-4q-1 1 -3 1.5l-4 1t-3.5 2t-1.5 2.5t0.5 1.5l0.5 0.5l6 1h6t8.5 -0.5
t8.5 -0.5h6h1h2h4.5t7 0.5t7 0.5h4.5q2 2 3.5 4.5t2 5t1 5.5t0.5 5q0 3 -1 7t-3 7.5t-4.5 6t-5.5 2.5t-4 -3.5t-3 -8t-7 -8t-15 -3.5q-6 0 -12 0.5t-13 1.5q-4 2 -4 5l0.5 1.5t1.5 1.5h35q2 0 3 2t2 4.5t1.5 5.5t0.5 4v2t-1 2l-3 1l-38 5l-1.5 1.5t-1.5 2.5v0q0 3 3 3.5
t5 0.5q9 0 17.5 -2.5t17.5 -2.5q2 0 4 0.5t3 3.5zM77 230q-1 3 0.5 3.5t3.5 0.5t4.5 -1t2.5 -4v-113l2 -2q4 2 6.5 10t4.5 18t3 18.5t1 12.5q0 8 -1 15.5t-1 15.5q0 3 0.5 4t4.5 1q3 0 4 -1t3 -4v-12q0 -6 -0.5 -15t-1.5 -19t-2.5 -19.5t-4.5 -14.5q-1 -4 -4.5 -8l-7 -8
t-6 -7t-2.5 -5q0 -4 0.5 -6t1.5 -5q7 -2 13.5 -5t8.5 -12q0 -1 0.5 -4.5t1.5 -8t1.5 -8t1.5 -5.5v-3q0 -4 -1 -4.5t-4 -0.5q-4 0 -5.5 3t-2 7.5t-0.5 9.5t-1 10t-3 8t-6 3q-1 0 -2 -0.5t-2 -1.5v-13q0 -10 1 -20.5t1 -21.5q0 -2 -0.5 -4.5t-3.5 -2.5h-1q-1 0 -3.5 1.5
t-3.5 1.5v8.5v13.5v13.5v8.5v3.5t-0.5 4.5t-0.5 4.5v2.5h-3q-3 0 -4.5 -1.5t-2.5 -3.5t-1.5 -4.5t-0.5 -5.5q0 -1 -0.5 -4.5t-0.5 -8t-0.5 -8t-0.5 -5.5h-4q-2 0 -4.5 1t-2.5 4v1.5t0.5 2.5t0.5 2.5v1.5q1 5 1 11t1 11.5t4 9.5t9 6q1 0 4.5 0.5t4.5 2.5v3v3q0 5 -2.5 7.5
t-5.5 4.5t-6.5 4t-5.5 6q-1 1 -1.5 2.5t-1 4t-1 4.5l-0.5 2q0 1 -0.5 3l-0.5 2q-1 17 -2.5 33.5t-1.5 32.5v4v4.5v4.5v3q1 2 2 2h2q5 0 6.5 -6.5t2 -17t0 -23t0.5 -24t3.5 -20.5t8.5 -13l4 4v3t0.5 7.5t0.5 9.5v8v2v5v6v4q0 14 -0.5 28.5t-0.5 29.5v11z" />
</svg>
