<?xml version="1.0" standalone="no"?>
<!DOCTYPE svg PUBLIC "-//W3C//DTD SVG 1.1//EN" "http://www.w3.org/Graphics/SVG/1.1/DTD/svg11.dtd" >
<svg xmlns="http://www.w3.org/2000/svg" xmlns:xlink="http://www.w3.org/1999/xlink" version="1.1" viewBox="-10 0 266 256">
   <path fill="currentColor"
d="M74 243q0 3 0.5 4.5t3.5 1.5q2 0 3.5 -1.5t2.5 -3.5t2 -4.5t1 -4.5v-117q0 -1 1 -3t3 -2t3.5 2.5t2.5 6.5t1.5 7.5t1.5 5.5v3.5t0.5 5t0.5 4.5v2v8.5v12.5v15v15v12.5v8.5q1 1 1.5 1h1.5q2 0 5 -2t3 -4l-3 -80q-1 -3 -2 -8.5t-2.5 -11.5t-3.5 -10.5t-5 -5.5h-3t-3 -0.5
t-2 -1.5t-1 -4q0 -2 1.5 -3.5t3.5 -2t4.5 -1t3.5 -1.5q1 0 2.5 -2t2.5 -4.5t2.5 -5t3.5 -3.5v-40q-5 0 -7 1t-3 5v19v5.5t-1 7t-3 5.5t-5 2q-4 0 -4.5 -3.5t-0.5 -6.5v-49q0 -3 -1.5 -4t-3.5 -1.5t-4 -0.5h-3q0 9 4 16v44q0 1 -0.5 2.5t-1.5 2.5q0 2 -1 2q-6 0 -8.5 -3.5
t-3.5 -8.5t-1.5 -10.5t-1 -10.5t-2 -8t-4.5 -3q-4 0 -4 3q0 4 1 10.5t2.5 13.5t3.5 13t5 9q2 2 4.5 2.5t5 1.5t4.5 2.5t2 4.5q0 4 -3 6.5t-6.5 5.5t-7 7t-5.5 11q-3 8 -4 16t-1.5 15.5t-0.5 16.5v17v4l-1 26q0 2 2 2h2h2.5t1.5 -2q1 -14 1.5 -26.5t1.5 -25.5t2.5 -26
t5.5 -26q1 -1 2.5 -1.5t2.5 -0.5q4 0 4.5 2t0.5 5v3.5t-2 3.5v78l-1 4q0 9 -1 16.5t-1 16.5zM133 200q0 11 1.5 17.5t6 10t11 5t16.5 1.5q6 0 13.5 -3.5t12.5 -8.5q1 -3 2.5 -10t2 -15l1 -16t0.5 -12v-4q0 -3 -1 -5.5t-2 -4.5t-3 -2t-4 1t-2 3v17l-1 0.5t-1 1.5q-1 0 -2.5 1
l-1.5 1l-40 -2v-20q-2 0 -5 1t-4 3v12q0 5 1 10t1 10q0 2 -1 4t-1 4zM168 186h14q3 0 4.5 1.5t1.5 4.5v1q-1 8 -2 13.5t-3.5 9t-6.5 5t-14 1.5h-4.5t-6.5 -1.5t-5.5 -3t-2.5 -4.5v-23q0 -1 0.5 -1.5l0.5 -0.5q6 -2 12 -2h12zM126 106v12.5t2 11t6 8t11 4.5q2 0 5.5 0.5
t7 0.5h7h4.5t3 -0.5l2 -0.5q1 0 4 -0.5t6 -0.5t5.5 -0.5t4.5 -0.5q6 -4 7.5 -9.5t1.5 -13.5q0 -6 -1 -11.5t-7 -7.5h-13q-2 0 -8 -0.5t-12.5 0t-11.5 2t-5 4.5q0 1 0.5 2.5t1.5 1.5h41q2 0 3.5 1t2 2.5t0.5 3.5v2q0 2 -0.5 5t-2 5.5t-3.5 4t-4 1.5h-39q-3 0 -5.5 -3.5
t-3 -8.5t-0.5 -10v-6v-7q0 -3 0.5 -6.5t2 -6.5t4.5 -5h2t4 -0.5t3.5 -0.5h2.5h37q4 0 7 -2.5t4.5 -6t2 -7.5t0.5 -8q0 -10 -3 -14t-13 -5h-9h-13h-14h-9q-2 -1 -3.5 -5t-2 -8t-2 -7.5t-5.5 -3.5l-0.5 0.5l-0.5 0.5l-2 2l-3 3v1q0 4 2 9t4.5 9.5t6.5 7.5t8 3h4q1 0 3 -1
q1 -1 5 -1t8 -0.5t8 -0.5h5h5h5.5t4.5 3v8v3v5t-1 3.5t-2 2.5h-35q-2 0 -5.5 0.5l-7 1t-7 2t-4.5 3.5q-1 1 -1.5 3t-1.5 4l-2 4t-2 3v3v4.5v4.5v3z" />
</svg>
