<?xml version="1.0" standalone="no"?>
<!DOCTYPE svg PUBLIC "-//W3C//DTD SVG 1.1//EN" "http://www.w3.org/Graphics/SVG/1.1/DTD/svg11.dtd" >
<svg xmlns="http://www.w3.org/2000/svg" xmlns:xlink="http://www.w3.org/1999/xlink" version="1.1" viewBox="-10 0 266 256">
   <path fill="currentColor"
d="M80 212l1 37q0 1 1 1.5t2 0.5q5 0 6 -3.5t2 -8.5l-2 -50t-1 -50v-8q0 -2 1.5 -2h2.5q5 0 8 7t5 16t2.5 18t0.5 13v1v4.5t-0.5 8t-0.5 8v4.5v5v7t4 3t6 -3.5t2 -8.5v-2t-0.5 -4.5t-0.5 -4v-2.5t-0.5 -5.5t-0.5 -10.5t-0.5 -12t-0.5 -9q0 -4 -1 -10.5t-3 -13t-5.5 -11.5
t-7.5 -8l-1.5 -0.5t-2.5 -0.5t-2.5 -0.5l-1.5 -0.5l-0.5 -0.5l-0.5 -0.5v-15q0 -1 0.5 -1.5l0.5 -0.5q8 -4 12 -7.5t5.5 -8t1.5 -11t1 -15.5v-1v-3v-4t-0.5 -6t-1.5 -5t-2 -2t-2 0.5t-2 0.5q0 1 -1 1.5l-1 0.5v44l-2.5 2.5t-4.5 3.5q-1 0 -2.5 -0.5l-1.5 -0.5v-72
q0 -3 -2.5 -3.5t-3.5 -0.5t-3 0.5t-2 3.5v72q-3 0 -4 0.5t-1.5 0.5h-1t-1.5 -2q-4 -4 -5.5 -12l-3 -16t-2.5 -14t-3 -6q-4 0 -5.5 4t-1.5 7q0 10 1 18.5t4 15t8.5 10.5t15.5 7v16q0 1 -1 1.5l-1 0.5q-8 5 -13 10t-7.5 11t-4 13.5t-2.5 17.5v7v6q0 2 -0.5 5t-2.5 7v30
q0 3 2.5 3h4.5h3t1 -3q1 -5 1 -13v-17t1 -18.5t2.5 -18t4 -15t5.5 -10.5q1 0 2 -1t2 -1l0.5 1l0.5 1q0 3 0.5 8.5t0.5 13t0.5 15.5t0.5 15v13v8v5zM124 190q0 2 1.5 4t4.5 2l1.5 -0.5t3 -0.5t2.5 -0.5t2 -0.5t5.5 -0.5t11 -1l13 -1l13 -1t11 -1t5.5 -0.5h3t4 -1t3 -2t1 -3
q0 -3 -2.5 -4t-4.5 -1h-1h-2t-3.5 0.5t-3.5 0.5h-2q-1 0 -3 -1.5l-2 -1.5v-98q4 0 6.5 0.5t5.5 0.5t5 -1.5t2 -5.5q0 -2 -1 -3.5t-4 -2.5q-1 -1 -4.5 -2.5t-7 -3.5t-7 -3.5t-4.5 -2.5l-2 -1t-3 -1l-1.5 -0.5l-1.5 -0.5q-2 -3 -2 -9v-13.5t-0.5 -11.5t-4.5 -5q-2 0 -3.5 0.5
t-3.5 1.5v7q0 5 1 10t1 10q0 8 -4 14t-9.5 11.5t-12 10.5t-10.5 10v2q0 3 3 3h2q1 0 3.5 -1.5t4.5 -3t4 -2.5t3 -1t2 2.5t1.5 6t0 7t-0.5 4.5t0.5 3.5t0.5 5.5t0.5 6l0.5 3v1q0 4 -1 8.5t-1 8.5q0 8 1 15t1 15v13q-2 1 -5.5 1h-6.5t-6 1t-3 5zM153 179q0 -26 -1.5 -51.5
t-1.5 -50.5q0 -6 3 -10.5t9 -4.5q5 0 8 4t4.5 9.5t1.5 11.5v10v4t-0.5 6.5t-0.5 6.5t-1 3v61q-1 1 -2.5 2t-3.5 1h-4h-3h-4h-3z" />
</svg>
