<?xml version="1.0" standalone="no"?>
<!DOCTYPE svg PUBLIC "-//W3C//DTD SVG 1.1//EN" "http://www.w3.org/Graphics/SVG/1.1/DTD/svg11.dtd" >
<svg xmlns="http://www.w3.org/2000/svg" xmlns:xlink="http://www.w3.org/1999/xlink" version="1.1" viewBox="-10 0 266 256">
   <path fill="currentColor"
d="M121 153q2 0 3.5 0.5t1.5 4.5v71q0 1 1.5 1.5t2.5 0.5t4 -1.5t3 -3.5v-40v-4l-1 -25q0 -3 2.5 -4t4.5 -1q3 0 5 1.5t4 4t3 4.5t2 3q2 5 3 12.5l2 15t2.5 13.5t4.5 6q4 0 5.5 -3.5t1.5 -6.5q0 -4 -1 -11.5t-3.5 -15t-6 -14.5t-7.5 -10q-1 -2 -5 -3.5l-8 -3t-7.5 -3
l-3.5 -1.5q0 -4 2 -5.5t5.5 -2t7.5 -0.5t7.5 -1.5t5.5 -5.5t2 -11v-3.5t-1 -2.5h-8q0 3 -1 6t-2 5.5t-3.5 4.5t-6.5 2q-1 0 -2 -0.5l-3 -1.5v-3t-0.5 -4t-0.5 -4v-3t-1.5 -2.5t-2.5 -1.5h-1l-2 0.5t-2.5 1l-1 1l-0.5 0.5v15q0 1 -1 1t-2 0.5t-3 0.5h-1q-5 0 -7.5 -1.5
t-4 -3.5t-2 -5t-1.5 -7h-1h-1q-4 0 -4 3v5q0 5 1 9t6 5q1 0 4 0.5l6 1l6 1t4 0.5v9l-3 2q-10 4 -15.5 8.5t-8.5 15.5q-1 3 -1.5 5t-2.5 5q-1 1 -1 5.5t-0.5 9l-1 9t-0.5 5.5v1v1q0 2 1.5 3.5t3.5 1.5q3 0 4.5 -2.5t1.5 -5.5v-4.5v-6.5v-7v-4q1 -4 2 -9.5t3.5 -10.5t6 -8.5
t8.5 -3.5zM64 108q0 3 1.5 3.5t3.5 0.5h2h2q23 -14 48 -24q2 0 3 1.5t2 3.5t2.5 3t3.5 1t2.5 -1.5t0.5 -4t0.5 -5t1.5 -2.5q3 0 6.5 -0.5t7 -2t6 -3.5t2.5 -5q-6 0 -11 0.5t-11 0.5v-5t5 -2t10 0.5t11 1.5q9 7 13 17t5 22h3q3 0 5 -1.5t2 -4.5q0 -5 -1.5 -10t-4.5 -10
t-6 -9.5t-6 -8.5q-3 -3 -7.5 -4.5t-9.5 -2t-9.5 0t-9.5 0.5l-3 -1v-1.5v-1.5q0 -5 3 -7.5t8 -3.5t11 -1.5t11 -2t8 -4t3 -7.5q0 -8 -2.5 -13t-6.5 -7t-10 -2h-14h-8q-3 0 -6.5 0.5t-7 0.5t-8.5 1q-2 1 -3.5 2t-1.5 3q0 1 0.5 2t1.5 2q2 0 7.5 -0.5t11.5 -0.5q7 0 12.5 0.5
t7.5 0.5h3t4.5 0.5t4.5 0.5h3q2 1 1.5 3.5l-0.5 2.5q0 7 -4 8.5t-9.5 2t-11.5 0.5t-11 3q-2 2 -3 4t-1 4v4.5t-2 4.5q0 1 -1 2t-2 1h-6q-5 0 -9.5 -0.5t-8.5 -3.5q0 -1 -0.5 -4t-1.5 -6.5t-2 -6.5t-1 -4l-2.5 -5t-3.5 -1t-4 1.5t-1 3.5v3q0 1 0.5 3.5t1.5 5t1.5 4.5t1.5 3
q2 7 4.5 10.5t6.5 5t9 1.5t12 -1q4 1 6 4t2 6q0 1 -4.5 3t-11.5 4.5t-15.5 5t-15.5 5.5t-11.5 6.5t-4.5 6.5z" />
</svg>
