<?xml version="1.0" standalone="no"?>
<!DOCTYPE svg PUBLIC "-//W3C//DTD SVG 1.1//EN" "http://www.w3.org/Graphics/SVG/1.1/DTD/svg11.dtd" >
<svg xmlns="http://www.w3.org/2000/svg" xmlns:xlink="http://www.w3.org/1999/xlink" version="1.1" viewBox="-10 0 266 256">
   <path fill="currentColor"
d="M77 245q0 2 0.5 4t2.5 2t3 -1.5t2.5 -3t2 -4t0.5 -3.5v-15v-43.5t-3 -42.5v-1.5v-2.5q0 -2 1 -3t3 -1q3 0 4 1.5t2 3.5t1.5 4.5t0.5 3.5v5t0.5 8.5t0.5 8.5v6v4.5v7.5v7.5v5.5q1 1 1.5 2t0.5 3v2l-0.5 1.5t-0.5 3t-0.5 3l-0.5 1.5q0 3 2 4t4 1h2q2 0 2 -1v-3.5v-3.5v-3.5
v-2.5q0 -3 -0.5 -8.5t-1 -12t-1 -14t-1 -14t-1 -12t-0.5 -8.5q-1 -5 -4.5 -8t-6.5 -6t-5.5 -6.5t-2.5 -9.5q0 -1 0.5 -3.5l0.5 -2.5l15 -8q2 -2 3.5 -8.5t2 -14t1 -14.5t0.5 -8q0 -3 -1.5 -6t-4.5 -3l-1 1l-1 0.5l-1 0.5q1 10 0.5 21.5t-1.5 22.5q-1 1 -3 1h-3q-2 0 -4 -0.5
t-4 -4.5q1 -13 0.5 -27t-1.5 -28q-2 -1 -3.5 -2t-3.5 -1t-2.5 1t-0.5 3q0 11 1.5 21.5t1.5 21.5v3v4.5v4.5v3q-1 2 -2 3.5t-3 1.5l-0.5 -0.5l-0.5 -0.5q-2 0 -3.5 -2t-2.5 -2l-3 -39q0 -3 -3 -4t-6 -1v5t0.5 8.5t0.5 8v5.5v7.5t1 8.5t3 7.5t6 4.5l8 2t7 4v7q0 9 -2.5 12
t-5.5 5.5t-6.5 5.5t-5.5 11q-5 17 -6 37t-1 39q0 2 0.5 5t4.5 3q2 0 3.5 -1t1.5 -6v-16t0.5 -20.5t1.5 -20.5t3 -17q0 -1 1 -3t1.5 -3.5t1.5 -2.5l1 -1h7v8.5v12.5t0.5 14.5t0.5 14.5v13t1 8v11q0 8 -1 15t-1 15zM158 241q0 7 7 7q4 0 5 -3t1 -7q0 -17 -1.5 -33.5
t-1.5 -33.5v-3v-6t0.5 -9t0.5 -9v-6q0 -3 1.5 -3.5t3.5 -0.5q4 0 6 3t3 7.5l2 9t3 6.5q0 1 0.5 6t1.5 10l2 10t1 7l0.5 2l0.5 2l0.5 1.5l0.5 1.5q0 1 -0.5 1.5t-0.5 1.5v1t-0.5 2.5t-0.5 3v1.5q0 1 1 3t3 2t3.5 -1.5t1.5 -3.5v-2q0 -2 0.5 -3.5t0.5 -2.5v-2q0 -5 -0.5 -12.5
t-2 -16t-3.5 -17t-5.5 -16t-8 -13t-10.5 -6.5q-1 -1 -3 -1.5l-2 -0.5v-19q0 -1 2 -1.5t5 -1t6 -0.5h5q3 0 5 0.5t3 4.5q0 1 0.5 3t0.5 4.5t0.5 5l0.5 2.5q0 3 1 3.5t3 0.5q3 0 4 -1.5t1 -4.5q0 -12 -1.5 -23t-1.5 -23q0 -1 -1.5 -1.5t-2.5 -0.5q-2 0 -2.5 1t-1.5 5v2
t-0.5 4.5t-0.5 5v2.5q-1 1 -4 2t-6.5 1.5t-7 0.5h-4.5l-2.5 -2.5l-2.5 -2.5v-0.5v-1.5q0 -7 1 -10.5t3 -4.5t4 -1q3 0 5.5 -0.5t4.5 -1.5t4 -5q2 -6 2.5 -10.5t0.5 -10.5v-6q-1 -2 -2 -2.5t-3 -0.5h-2.5t-1.5 2v18q0 2 -1.5 3t-4 2t-4.5 1.5t-4 0.5l-1.5 -0.5t-1.5 -1.5v-37
q0 -2 -3 -4t-5 -2h-0.5h-0.5l-1.5 0.5l-1.5 0.5v5q0 8 1.5 16.5t1.5 17.5q0 3 -2.5 5.5t-5.5 2.5q-4 0 -6 -2.5t-2.5 -5.5t0 -6.5t0.5 -5.5q-2 -3 -3 -3.5t-3 -0.5q-3 0 -3.5 1t-0.5 3v6t0.5 8.5t2 8t5.5 3.5h18q1 0 1 2.5t0.5 5.5t0.5 6v3v5l-2 2h-2t-5 0.5t-6 0.5h-5h-1
h-1q-4 0 -5 -2.5t-1 -6.5t-2 -7t-9 -3q0 6 1.5 11t1.5 11q0 5 -1 9.5l-2 9l-2 9t-1 8.5q5 0 7.5 -3.5t4 -8t2 -9.5t0.5 -8l2 -2h24q2 0 2.5 2t1 4.5t0.5 4.5v2v4t-1 4q-9 8 -15 18t-9 21.5t-4 23t-1 24.5v4.5v4.5t1.5 1.5t2.5 0.5q2 0 3.5 -4.5t2.5 -12t2 -16.5t2.5 -17.5
t2.5 -15.5t3 -11q0 -1 1 -1.5t2 -0.5q2 0 3.5 1.5t2.5 3.5t1.5 4t0.5 4v2v2.5t-0.5 3.5t-1 3.5t-0.5 2.5v65q-1 3 -1 5v5z" />
</svg>
