<?xml version="1.0" standalone="no"?>
<!DOCTYPE svg PUBLIC "-//W3C//DTD SVG 1.1//EN" "http://www.w3.org/Graphics/SVG/1.1/DTD/svg11.dtd" >
<svg xmlns="http://www.w3.org/2000/svg" xmlns:xlink="http://www.w3.org/1999/xlink" version="1.1" viewBox="-10 0 266 256">
   <path fill="currentColor"
d="M69 245q0 2 1 4t4 2t5 -5.5t2.5 -14t1 -19.5t0.5 -22v-22.5v-19.5t1.5 -14t3.5 -5q1 0 2 2t2 3q1 2 2 5.5l2 7t1.5 6l0.5 2.5v61q0 1 -0.5 3l-0.5 2v1q0 2 0.5 3t2.5 1q4 0 6 -3.5t2 -7.5t-1 -8t-1 -8q0 -3 1 -5t1 -5q0 -13 -0.5 -26t-4.5 -25q-1 -4 -3.5 -7.5t-6 -6.5
t-5.5 -5.5t-2 -3.5v-3v-4t0.5 -7t0.5 -7v-4q2 -3 5 -4t6 -2.5t5.5 -3t2.5 -3.5q0 -1 1 -4t1.5 -6.5t1 -6.5l0.5 -3q0 -1 0.5 -3l0.5 -2v-6v-6t-3 -3q-4 0 -5.5 3t-1.5 7.5v9.5t-0.5 9.5t-2.5 7.5t-7 3q-1 0 -2.5 -0.5t-1.5 -1.5v-5v-5q0 -12 1.5 -24t1.5 -24q0 -2 -2 -4
t-4 -2t-3.5 0.5t-1.5 2.5v61l-1.5 1.5l-1.5 1.5h-1q-4 0 -5.5 -2t-3 -5.5t-1.5 -6.5t-1 -6v-3.5t-0.5 -6t-0.5 -6v-4.5q-1 -2 -2.5 -2.5t-3.5 -0.5q-1 0 -2.5 0.5t-3.5 1.5q1 4 1.5 10.5t1.5 13t3 12t4 8.5q2 2 4 3t4 1.5t4 1.5t3 4v9q0 9 -1 13.5t-3 6.5t-4 2.5t-4.5 1.5
t-5 3.5t-3.5 8.5q-4 11 -5.5 22l-3 22t-2 22t-2.5 22v2v0q0 1 1.5 1.5l1.5 0.5q3 0 5 -2t3 -5t1.5 -9.5t1 -14t1.5 -14.5t1 -10t1 -10l2 -14t3.5 -12.5t6.5 -5.5h1.5t1.5 1v6v9v9v6q0 21 -2.5 41.5t-2.5 41.5zM127 165v21t2 17.5t8 11.5t19 4h13q6 0 11.5 -1.5t9 -5
t4.5 -10.5q1 -12 1.5 -23t0.5 -22q0 -1 -0.5 -4.5l-1 -7t-2.5 -6t-5 -1.5l-1.5 1t-1.5 2v22q0 2 -3 3t-6 1h-3h-3.5h-2.5l-1 -2v-50h46q2 0 2 -2v-3v-2t-2 -2h-10q-7 0 -14.5 1t-14.5 1q-2 0 -3.5 -0.5t-2.5 -3.5q-1 -5 -1 -9v-9v-4.5t1 -4.5q1 0 3.5 -0.5l5 -1l5 -1
t3.5 -1.5q2 -1 4 -2.5t3 -4l2 -5t2 -4.5v-30q0 -2 -2 -2h-2q-4 0 -5.5 2.5t-2 6t-0.5 8v9t-1 8t-3 4.5q-1 0 -3 0.5t-4 0.5t-4 0.5l-2 0.5q-1 0 -3 1l-2 1h-1h-1q-1 0 -2.5 -0.5t-3.5 -1t-4 -0.5h-3q-2 -3 -2.5 -9.5t-1 -13.5t-1.5 -12t-5 -5q-1 0 -1 0.5v0.5q-1 0 -2 1
t-1 2v4v6.5t0.5 6.5t0.5 4t0.5 2.5t1 3.5l1 4t1.5 3q0 2 1 5.5t3 4.5q3 1 4 1.5t2 0.5t3 -0.5t4 -0.5v34l-3 1h-6h-9h-8.5h-5.5q-2 0 -4.5 0.5t-4.5 1.5t-3.5 2.5t-1.5 4.5q11 0 20.5 -1t20.5 -1h3t2 2q2 5 2 8v8v8.5t-0.5 7.5t-0.5 8t-1 9q-1 2 -4.5 2h-5.5h-2h-2l-3 -4
v-19q0 -2 -2 -3t-3 -1t-2 0.5t-2 1.5v4v7v6v4zM135 183q0 -2 0.5 -3.5t3.5 -2.5q5 -1 11 -1.5l12 -1t12 -0.5h10v28q0 4 -3.5 5.5t-8 2t-9.5 0.5h-7h-12q-3 -2 -5 -5.5t-2.5 -7t-1 -7.5t-0.5 -7z" />
</svg>
