<?xml version="1.0" standalone="no"?>
<!DOCTYPE svg PUBLIC "-//W3C//DTD SVG 1.1//EN" "http://www.w3.org/Graphics/SVG/1.1/DTD/svg11.dtd" >
<svg xmlns="http://www.w3.org/2000/svg" xmlns:xlink="http://www.w3.org/1999/xlink" version="1.1" viewBox="-10 0 266 256">
   <path fill="currentColor"
d="M124 247q0 1 1 2.5t3 1.5t3.5 -2.5t1.5 -4.5v-47l1.5 -2t2.5 -2q2 0 4 2.5t3.5 5.5t2.5 6t1 5q0 1 0.5 4t1 6.5l1 7t0.5 4.5l0.5 0.5l0.5 0.5h1q2 0 3.5 -1.5t1.5 -3.5q0 -4 -0.5 -8.5t-2 -9.5t-3 -9t-4.5 -7q-1 -1 -3.5 -2.5t-4.5 -3l-4 -3t-2 -4.5t3 -4t6 -2.5t6 -6
t3 -15.5h-5q0 3 -0.5 5.5t-1.5 5t-2.5 4t-4.5 1.5h-2h-1q0 -1 -0.5 -3t-0.5 -3.5t-0.5 -3.5t-0.5 -3q0 -2 -1 -4.5t-3 -2.5q-4 0 -4 4v2l0.5 1.5t0.5 3t0.5 2.5l0.5 1v1q0 4 -1.5 5.5t-4.5 1.5q-5 0 -7 -2.5t-3 -5.5t-2 -5.5t-2 -2.5q-2 0 -2 1.5v2.5q0 9 3.5 12.5t8 5t8 2
t3.5 2.5q0 3 -1.5 4.5t-4 3t-5 2.5t-3.5 2q-3 3 -5.5 8.5t-4 12t-2.5 13t-1 10.5q4 0 6 -3.5t3 -8t2 -10t2 -10t3.5 -8t6.5 -3.5h1v0l0.5 0.5t1.5 0.5q-2 12 -2.5 25t-0.5 25zM78 244l1 0.5l1 0.5q2 0 4.5 -2.5t2.5 -5.5v0v-2t-0.5 -2.5t-0.5 -2.5v-2v0v-19t0.5 -18l1 -18
t2.5 -19q0 -4 2.5 -5.5t6 -2t7 -0.5h6.5q1 0 3 -0.5l4 -1t3.5 -1l1.5 -0.5v-5q-6 0 -10.5 2t-9.5 2q-2 0 -5 -0.5t-3 -2.5l0.5 -0.5t0.5 -1.5q1 -1 4.5 -4t7.5 -6t7.5 -6t3.5 -4q0 -2 -1 -2.5t-3 -0.5q-4 0 -7.5 2.5t-6.5 5.5l-2.5 2.5l-3.5 3.5t-3.5 4t-2.5 2q0 1 -1 1h-1
q-4 0 -4.5 -3t-0.5 -5q0 -7 4 -11t9.5 -7t9.5 -5.5t4 -5.5q0 -1 -1 -1h-1q-5 0 -10.5 2.5t-10.5 7t-8.5 10t-3.5 10.5q0 4 1.5 6.5t3 4.5t2.5 4t1 4v2v1l-0.5 2.5l-0.5 2.5q-2 19 -4 39t-2 38v2l0.5 1.5t0.5 3.5t0.5 3.5t0.5 2.5zM176 241q-1 2 0.5 2.5t2.5 0.5q2 0 3 -1.5
t1.5 -3.5t0.5 -4.5v-3.5q0 -17 -2 -34l-4 -34q0 -4 -1 -8t-1 -8v-1q6 -5 8 -10.5t2 -12.5q0 -4 -1 -7t-3.5 -5.5t-5 -4t-5.5 -4.5q-7 -2 -12 -3t-11 -1h-3t-2 2t5 3.5t11 3t12 4.5t7 8q0 1 -0.5 4.5t-0.5 5.5q-1 1 -1.5 2.5t-2.5 1.5q-1 0 -2.5 -1.5t-2.5 -3.5t-2.5 -3.5
l-2.5 -2.5q-4 -4 -10.5 -5.5t-12.5 -1.5q-2 0 -3 0.5t-1 2.5v1.5t1 1.5l17 2q2 1 3.5 2.5t3.5 4t3 5t1 4.5t-2 2q0 1 -2 1h-3q-4 0 -8 -1.5t-8 -1.5h-3.5t-2.5 2v0q0 1 0.5 1.5l0.5 0.5q1 0 3 1t4 1.5t3.5 1t2.5 0.5t3.5 0.5t4.5 0.5q3 0 5.5 -0.5t3.5 -0.5q5 23 7.5 46.5
t1.5 47.5zM71 99q0 2 0.5 2.5t3.5 0.5t8.5 -3t11 -8t9.5 -10t4 -9q-2 0 -8 3.5t-12.5 8.5t-11.5 9.5t-5 5.5zM121 98q2 3 4 3t3 -1.5t1.5 -3t0.5 -3.5v-3q0 -7 -1 -14t-1 -13v-3q6 -1 12.5 -1h13.5q6 0 12.5 -0.5t12.5 -0.5l2 -2l1 -1v-1q0 -1 -1.5 -2t-2.5 -1q-6 1 -10 1.5
l-8 1t-8.5 0.5h-9.5h-2h-4h-4h-2q-1 -1 -1.5 -3.5l-0.5 -2.5v-1v-1q0 -1 0.5 -3t0.5 -5t0.5 -5t0.5 -3q2 -3 6.5 -5t9.5 -4t8.5 -3.5t3.5 -4.5q0 -2 -1 -2.5t-3 -0.5q-4 0 -9 1.5t-10 4t-8.5 6t-4.5 8.5v4t-0.5 6.5t-0.5 7v4.5l-3 3h-10q0 -3 -1 -7.5l-2 -9t-3.5 -8
t-6.5 -3.5q-2 0 -2.5 1.5t-0.5 2.5q0 3 1 5.5t2.5 5t2.5 5.5t1 6v2t-1 2h-16q-1 0 -2 1.5l-1 1.5v1v1q1 2 2 3t4 1q8 0 15.5 -2t15.5 -2h2t2 1q1 8 1 17.5v17.5zM139 72l0.5 1t0.5 2l0.5 0.5t1.5 0.5q9 4 17.5 9t17.5 10l1 1q4 0 4 -5v-1q-1 -2 -7 -5.5t-13.5 -6.5
t-13.5 -5.5t-7 -2.5h-1t-1 2zM157 28q-2 0 -4 3t-3.5 6.5t-2.5 7t-1 5.5q3 0 5 -2t4 -4.5t3.5 -5t3.5 -4.5v-2q0 -2 -1.5 -3t-3.5 -1z" />
</svg>
