<?xml version="1.0" standalone="no"?>
<!DOCTYPE svg PUBLIC "-//W3C//DTD SVG 1.1//EN" "http://www.w3.org/Graphics/SVG/1.1/DTD/svg11.dtd" >
<svg xmlns="http://www.w3.org/2000/svg" xmlns:xlink="http://www.w3.org/1999/xlink" version="1.1" viewBox="-10 0 266 256">
   <path fill="currentColor"
d="M75 244q0 2 1 4.5t3 2.5t3.5 -2t2 -5t1 -5.5t0.5 -3.5v-10v-16v-18v-19v-15v-10q0 -2 0.5 -7t0.5 -10t0.5 -9.5t0.5 -6.5q0 -1 1.5 -1.5l1.5 -0.5h1q2 0 4.5 1t2.5 4q0 2 1 6t1.5 7.5t0.5 7v3.5v72h3.5t1.5 -2q1 -5 1.5 -11.5t0.5 -12.5v-12v-10v-31q-1 -3 -1 -6.5
t-0.5 -7t-1 -6.5t-2.5 -6t-4.5 -4t-5 -2.5t-4 -3.5t-1.5 -7q0 -3 2 -5t5 -4t5.5 -3.5t4.5 -4.5q4 -9 5 -18t1 -18v-6q0 -2 -1 -2h-2q-3 0 -4 3t-1.5 8t0 10.5t-0.5 10.5t-2.5 8.5t-5.5 3.5q-2 0 -4 -0.5t-2 -3.5l0.5 -1l0.5 -1v-4.5t0.5 -7.5t0.5 -7.5v-4.5v-1v-1v-3.5
t-0.5 -5.5t-0.5 -6v-4v-3t-0.5 -3.5t-1.5 -2.5t-4 -1h-1.5t-1.5 1v56q0 1 -1 3.5t-3 2.5q-4 0 -6 -4t-3 -9t-1.5 -11t-1.5 -11.5t-2.5 -9t-5.5 -3.5q-3 0 -3 5q0 3 0.5 10t1.5 15t3 14.5t4 7.5q1 1 3 1.5t4.5 1t4.5 1t3 0.5q3 1 3 1.5v2.5q0 4 -0.5 8.5t-2.5 8.5
q-5 0 -9 2.5t-7 6.5t-4.5 9.5t-2.5 10.5v8t-0.5 14t-1 17.5t-1 17t-0.5 14v7.5v5q0 4 0.5 5t3.5 1h2.5t1.5 -2t0.5 -6.5t0.5 -11t0.5 -13t1 -12.5t0.5 -10.5v-7.5q0 -1 0.5 -5t1 -9.5t1.5 -11t2 -10.5t3.5 -8t5.5 -3q1 0 2 1t1 3v66q-1 1 -1.5 3.5t-0.5 3.5v33
q0 5 -1.5 10.5t-1.5 10.5zM195 233q0 2 1 3t3 1q3 0 4.5 -1.5t2 -4.5t1 -5.5t0.5 -4.5q0 -1 -0.5 -3l-0.5 -2v-1t-0.5 -2.5t-0.5 -2.5v-1v-4.5t0.5 -7.5t0.5 -7.5v-4.5v-13v-12q0 -6 -1 -13v-9v-13v-16v-16v-14v-9v-6.5t-0.5 -9t-0.5 -9t-1 -6.5q-1 -4 -2 -6t-4 -3h-5h-6.5
h-6.5h-4h-6h-7.5h-5.5h-3q-2 0 -6 0.5t-8 2t-7 3.5t-3 6q-1 2 -1.5 7.5l-1 11l-1 11t-0.5 7.5v6v10v11v6q0 15 -1.5 29.5t-1.5 29.5v3.5t0.5 5t0.5 5v3.5v1q0 9 -1.5 19.5t-1.5 19.5q0 4 3 4q7 0 7 -7q-1 -42 0.5 -84t4.5 -83v-2.5v-3.5v-5t2 -3q4 -3 9 -5t11 -2.5t11.5 0
t10.5 0.5h1h3.5h2.5h3q2 2 4 6t2.5 9t1 9.5t0.5 7.5q0 4 -1 7t-1 7q0 11 1 21.5t1 21.5q0 27 -1 53.5t-1 53.5zM150 137q0 2 -0.5 5t0 6t1.5 5.5t3 3.5h2.5h2.5h3h2q4 0 8 -0.5t7 -2t4.5 -4.5t1.5 -9v-5v-10v-10v-6t0.5 -3t0.5 -4.5t0.5 -5l0.5 -2.5v-2q0 -2 -1.5 -4
t-3.5 -2q-1 0 -2.5 0.5t-1.5 1.5v21q0 1 -2 2t-4.5 1.5t-4.5 0.5h-1h-3h-2l-3 -4v-3v-5v-4.5v-2.5l-2 -4t-2 -2h-1v0l-1 1l-1 1q1 12 0 23t-1 23zM156 121h20q2 0 2.5 1.5t0.5 3.5q0 3 -0.5 7t-1.5 8t-3 6.5t-6 2.5h-4t-3.5 -1t-3 -2.5t-1.5 -3.5v-22zM143 64v1l1.5 1.5
l1.5 1.5h7h9q5 0 11 -0.5t10.5 -2.5t4.5 -6h-7h-10t-10 0.5t-7 0.5h-2q-1 0 -3 0.5t-3.5 1t-2.5 1.5v1z" />
</svg>
