<?xml version="1.0" standalone="no"?>
<!DOCTYPE svg PUBLIC "-//W3C//DTD SVG 1.1//EN" "http://www.w3.org/Graphics/SVG/1.1/DTD/svg11.dtd" >
<svg xmlns="http://www.w3.org/2000/svg" xmlns:xlink="http://www.w3.org/1999/xlink" version="1.1" viewBox="-10 0 266 256">
   <path fill="currentColor"
d="M78 248q0 1 1 1.5t2 0.5v0q3 0 4.5 -2t2 -5l1 -6t0.5 -4q0 -28 -1.5 -55t-1.5 -54q0 -3 0.5 -5.5t4.5 -2.5h2q5 6 6.5 14.5t1.5 16.5q0 1 0.5 6t0.5 11t0.5 11t0.5 6v8v12.5v12.5v8q3 0 5.5 -2.5t3.5 -5.5v-10q0 -20 -0.5 -41t-4.5 -41q-2 -5 -4.5 -7.5t-5.5 -3.5l-6 -2
t-5 -5q0 -1 -0.5 -3.5l-0.5 -2.5q0 -7 3 -10t6.5 -5.5t7 -5.5t4.5 -9v-6.5t0.5 -9.5t0.5 -10v-7v-2q0 -2 -1.5 -5t-3.5 -3l-0.5 0.5l-0.5 0.5q-1 0 -2 1.5l-1 1.5l-3 39q-1 7 -7 7q-2 0 -3 -2.5t-1 -4.5v-55q0 -2 -2 -2h-3h-2.5t-2.5 2v62q0 1 -1.5 1h-2.5q-2 0 -5.5 -2
t-4.5 -6l-3 -38q0 -1 -1.5 -1h-2.5h-2t-2 1v3.5v5.5v5v3v16q0 7 2 12t7 8t15 3l1 2v18l-0.5 0.5t-0.5 1.5l-8 2t-7 3t-5.5 5t-3.5 9q0 2 -0.5 6.5t-1 9.5l-1 10t-0.5 7q0 5 -0.5 10.5t-0.5 12v12.5v11q0 2 -0.5 4.5t0 5t1.5 4t4 1.5q4 0 5.5 -2t1.5 -7v-38t2 -38
q0 -3 1 -6.5t2.5 -6t4 -4.5t5.5 -2q2 0 3 2t1 3q0 32 1 63t1 63zM173 212q0 1 3 7.5t6.5 13t7 12t5.5 5.5h13q1 0 1 -2v-3v-2t-1 -3q-3 -3 -7 -6.5t-8 -7.5t-6.5 -9t-2.5 -10q0 -6 3 -11t6 -9.5l6 -9t3 -10.5t-3 -9.5t-7 -6t-6.5 -5t-2.5 -6.5v-1.5v-1.5q9 -4 14.5 -9
t5.5 -16q0 -5 -1.5 -8.5t-1.5 -8.5v0q5 -2 6.5 -4t1.5 -7q-9 0 -18 2t-18 2h-5q-1 -4 -1.5 -7t-4.5 -3h-2.5t-2.5 2v11q0 1 -2 1.5t-5.5 1.5t-7.5 2t-7.5 3.5t-5.5 6.5t-2 11t2 13.5t4 12.5t3.5 11.5t1.5 11.5q0 3 -0.5 5t-1.5 4.5l-2 5t-2 5.5q-3 13 -3.5 26.5t-0.5 26.5
q3 0 6.5 -0.5t3.5 -4.5l4 -51q0 -2 1.5 -2h1.5q3 0 5 2t5 2t4 -1t1 -4q0 -4 -3 -8t-6 -7v-2l14 -14q0 -1 2 -1.5l2 -0.5h1h1q1 0 2.5 0.5t2.5 1.5q1 0 3 2t4 4.5t4 4.5l3 3l2 3v1q0 6 -3 11l-6 10t-6 10.5t-3 13.5zM136 124q0 -10 3.5 -16.5t14.5 -6.5h2t2 1q0 8 3 16t3 15
q0 3 -2 6t-4.5 5.5t-6 4t-6.5 1.5t-3.5 -2t-0.5 -5q-1 0 -1.5 -2.5t-1.5 -6t-1.5 -6t-0.5 -3.5v-1zM168 103q0 -2 0.5 -3t1.5 -2q5 -2 7.5 -2h6.5h2h2l4 10t2 11q0 2 -2 4.5t-5 4t-6 2.5t-5 1q-3 0 -4.5 -3t-2 -7.5l-1 -9t-0.5 -6.5zM126 76q0 1 0.5 1.5t1.5 0.5l2 -0.5
t3 -1.5l0.5 -0.5l0.5 -0.5l3 -27q1 -3 4.5 -5.5t6.5 -2.5q5 0 6 4.5t1.5 9.5t2 9.5t5.5 4.5q2 0 4 -1.5t2 -3.5q0 -5 -2.5 -10t-2.5 -10q0 -2 1 -3.5t3 -2t4 -0.5h4q4 0 6.5 2.5t4 6.5t3 9t3 9t4.5 6.5t7 2.5q3 0 3.5 -1t0.5 -4q0 -2 -2 -6t-5 -8l-6 -8t-4 -7q2 -2 5 -2.5
t5.5 -1t4.5 -2t2 -3.5v-2.5t-2 -1.5l-2.5 -0.5l-2.5 -0.5q-1 0 -3 0.5t-3 0.5t-7.5 0.5t-13.5 1.5t-13 1.5t-8 0.5q-8 1 -13.5 3.5t-8.5 7t-4 11t-1 15.5v5v4z" />
</svg>
