<?xml version="1.0" standalone="no"?>
<!DOCTYPE svg PUBLIC "-//W3C//DTD SVG 1.1//EN" "http://www.w3.org/Graphics/SVG/1.1/DTD/svg11.dtd" >
<svg xmlns="http://www.w3.org/2000/svg" xmlns:xlink="http://www.w3.org/1999/xlink" version="1.1" viewBox="-10 0 266 256">
   <path fill="currentColor"
d="M76 249l1 0.5t2 1.5h1q4 0 5.5 -4t1.5 -8q0 -18 -1 -36t-1 -37v-11v-10t0.5 -10.5t1.5 -11.5h1q1 0 2 0.5t1.5 1.5t1 3.5t1.5 5t1.5 4t0.5 2.5v4t0.5 8.5t0.5 8.5v7v5l1 64q0 2 1.5 2h1.5q3 0 5 -2.5t2.5 -6t0.5 -7v-5.5q0 -9 -0.5 -21t-1 -24.5t-2 -24.5t-3.5 -20
q-1 -6 -4 -8.5l-6 -5t-5 -5t-2 -7.5t2.5 -7l5 -4t6 -4t5.5 -5q1 -6 1.5 -10.5t1 -8.5t0.5 -8v-9v-2v-4v-3.5v-2.5q-1 -1 -2.5 -1.5t-3.5 -0.5t-3 4t-1.5 9.5t0 12.5t-0.5 12.5t-2.5 9.5t-5.5 4h-1l-2 -10v-60l-0.5 -0.5l-1.5 -1.5v0q-3 0 -6 3t-3 6v62q-4 0 -5.5 -4
t-2.5 -9.5t-1.5 -12t-1.5 -12t-2.5 -9.5t-5.5 -4q-3 0 -4 1t-1 4q0 6 0.5 12.5t1.5 13.5t3 13.5t5 11.5q2 4 4.5 4.5t5 0.5t4.5 2t2 9q0 4 -2.5 6.5l-5 5t-6 4.5t-5.5 5q-3 4 -4.5 8.5t-2 9.5t-0.5 10.5t-1 9.5v78q0 1 1.5 1.5l1.5 0.5q3 0 5 -3t3 -6q0 -22 -0.5 -44.5
t2.5 -44.5q0 -2 0.5 -6t2 -7.5t3.5 -6t5 -2.5l0.5 1l0.5 1q3 17 2.5 34t0.5 34v1q0 9 -0.5 17t-0.5 17v4v6v7v4zM123 248q0 1 1 1h2q3 0 4 -1t2 -4v-21v-8v-8.5t1 -8.5t2 -7l2.5 -1.5l2.5 -1.5q0 -1 2 -2.5t4 -3.5t4.5 -4t3.5 -3l2.5 -2.5t0.5 -1t1 -0.5h4h4q3 2 7.5 3.5
t9 3.5t7.5 5.5t3 7.5v57l0.5 0.5t1.5 0.5h2h2h2h1l2 -5v-2.5v-6.5v-6v-5q0 -28 -0.5 -55t-1.5 -54v-6.5t-0.5 -4.5t-1.5 -4t-2 -5q-1 0 -1.5 -1l-0.5 -1h-30v-16q0 -2 3 -2.5t6.5 -0.5t8 -1t8.5 -3.5t6.5 -8t2.5 -15.5q0 -4 -0.5 -8t-1.5 -7.5t-3.5 -5.5t-7.5 -3h-4.5
t-7.5 -0.5t-7.5 -0.5h-5.5h-21q-2 -3 -5 -6t-7 -3q-2 0 -2.5 1.5t-0.5 4.5q0 5 2.5 7.5t5 4t5 2.5t2.5 4v3q-1 1 -4.5 4t-3.5 4q-2 2 -5 5.5t-5.5 7t-5 6.5t-2.5 4q0 2 2 2h2q6 0 12 -4.5t11 -10.5t9 -13t7 -12h25q2 0 3 2t1 4.5v5.5v3q0 6 -2 9.5t-6 5.5t-8.5 3t-9.5 2
q-4 3 -5 6.5t-1 7.5v7t-2 6q-11 0 -17 2.5t-9 7.5t-3 12.5t-1 18.5v6.5t-0.5 11.5t-0.5 11.5v6.5v5q0 5 -0.5 11t-0.5 13v10v7t0.5 11.5t0.5 11.5v8zM134 175v-7v-9.5t1 -8.5l3.5 -4t8 -8.5t8.5 -8t5 -4.5h0.5h0.5h1l26 15l3 5v27h-2.5t-3.5 -1l-1 -1.5t-2 -1.5l-1.5 -1
t-3 -1.5t-3 -1.5l-1.5 -1q-4 -2 -4.5 -6.5t-0.5 -8.5t-1 -7t-6 -3q-1 0 -1.5 3t-1.5 7.5t-2.5 9t-4.5 7.5q-1 0 -2.5 2t-3.5 3.5t-4 3.5t-3 2h-1h-2t-1 -1zM134 132v-11t1.5 -9t5 -6.5t9.5 -2.5q2 0 4 1.5t2 4.5q0 5 -1.5 8.5t-4 6.5t-5.5 6l-7 7h-0.5h-0.5q-2 0 -2.5 -1.5
t-0.5 -3.5zM166 110q0 -6 3.5 -7t8.5 -1h5t4 1t3.5 3t1.5 5l-0.5 1t-0.5 2v2.5t-0.5 5t-0.5 5v3.5h-3q-2 -2 -5.5 -3.5t-7 -4t-6 -5.5t-2.5 -7z" />
</svg>
