<?xml version="1.0" standalone="no"?>
<!DOCTYPE svg PUBLIC "-//W3C//DTD SVG 1.1//EN" "http://www.w3.org/Graphics/SVG/1.1/DTD/svg11.dtd" >
<svg xmlns="http://www.w3.org/2000/svg" xmlns:xlink="http://www.w3.org/1999/xlink" version="1.1" viewBox="-10 0 266 256">
   <path fill="currentColor"
d="M81 248q1 2 2 2.5t3 0.5t4 -2t2 -5q0 -23 -1.5 -45.5t-1.5 -45.5v-4v-6.5v-5.5v-5t1 -1.5t2 -0.5h1q5 9 8.5 19.5t5.5 22.5t3 23.5t1 20.5q0 6 -0.5 9.5t-0.5 7.5q0 2 1.5 4t3.5 2q1 0 2 -0.5t2 -2.5q0 -1 0.5 -4.5t0.5 -4.5q0 -25 -4 -48t-11 -47q-2 -6 -5 -8t-6 -3.5
t-5 -5t-2 -10.5v-2l1 -2t1 -3q10 -3 15.5 -9t6.5 -16q1 -5 1.5 -9l1 -8l1 -8t0.5 -8q0 -1 -0.5 -2.5t-0.5 -3t-1 -3t-2 -1.5q-3 0 -4 4t-1.5 10.5t-1 14t-1.5 13.5t-3.5 10t-7.5 4q-2 0 -3.5 -0.5t-1.5 -2.5v-64q0 -2 -1.5 -4t-2.5 -2h-1q0 1 -2 3t-2 3v2q0 1 -0.5 3t-0.5 4
v2q0 8 1 16.5t1 16.5v4q0 4 -0.5 8.5t-1.5 7.5t-3 3t-4 -1t-3.5 -3t-2.5 -4.5t-1 -4.5t-0.5 -7.5t-0.5 -11.5t-0.5 -11.5t-0.5 -7.5v-1.5t-0.5 -3t-1.5 -2.5t-2 -1t-2 2t-2 3v2.5v3.5v4v2v3v4v3v2t0.5 5.5t1 9.5t1 9.5t0.5 5.5q2 3 6 4.5t7.5 3t6.5 2.5t3 2v21q0 3 -3 4
t-5 3q-2 1 -5 3.5l-3 2.5q-3 5 -5.5 12t-4 15t-2.5 15.5t-1 12.5v5v1.5t0.5 3t1 3.5l0.5 2q0 8 -2 15.5t-2 14.5q0 3 1 5t5 2h3t3 -1v-16v-11.5t0.5 -15.5t0.5 -14v-8t1 -9t2.5 -14t3.5 -13t5 -7l2.5 0.5t3.5 0.5q0 30 1 58t1 59zM132 169q0 2 0.5 6.5t1 10.5t1 13t1.5 12.5
t2.5 9.5t3.5 5q14 3 29 4t29 1q3 0 6 -1.5t3 -5.5v-3q0 -2 -2 -2h-51q-5 0 -8 -2t-3 -7q0 -2 3.5 -7t8 -9.5l8.5 -8.5t6 -4q4 0 8 3.5t7.5 7.5t7 7t6.5 3t4 -2.5t1 -5.5q0 -4 -4.5 -7t-10.5 -6t-11 -7t-5 -10t1.5 -9t4 -4.5t5.5 -2l6 -1t6 -2t5 -4.5q5 -8 5.5 -16t0.5 -17
v-2q0 -3 -0.5 -6t-1.5 -6.5t-2.5 -6.5t-3.5 -4q-3 -2 -5.5 -2.5t-4.5 -1.5t-3.5 -2.5t-1.5 -5.5q0 -6 1.5 -12t3.5 -12t4 -12.5t2 -12.5q0 -3 -0.5 -5t-3.5 -2t-5 2t-2.5 5t-0.5 7v6t-0.5 5t-2.5 2l-23 2l-1 -1l-2 -2l-2 -2t-1 -2q-2 -3 -2 -6.5t-1 -7t-3 -6t-6 -2.5
q0 8 2 15t3 16l0.5 3t0.5 6.5t0.5 6.5t0.5 4l0.5 2t1 4.5t1 4.5l0.5 2v1v1q-6 3 -10 6t-6.5 7t-3.5 9t-1 12q0 11 2 17t5.5 9t7.5 4t8 1.5t7.5 2t5.5 5.5v3t0.5 4.5t0.5 5v3.5v1v0q0 1 -1 1.5t-2 2t-2 2.5l-1 1q-2 2 -4.5 4t-5 4.5t-4.5 4l-2 1.5h-2v-4v-6v-7v-4v-3.5
t-0.5 -5.5t-2 -5.5t-3.5 -2.5t-3 0.5t-1 3.5v11zM137 121v-1l1 -0.5l1 -0.5q14 0 27.5 -1t27.5 -1h1.5t1.5 2v3v4q0 5 -2 8.5t-6 5t-8.5 2t-9.5 0.5q-7 0 -12 -0.5t-9 -2.5t-7 -6t-6 -11v-1zM139 104q0 -8 6 -13q2 0 5.5 -0.5t7.5 -1t7.5 -1t5.5 -0.5h8q5 0 9 1t6.5 3.5
t2.5 7.5v5t-3 3t-10 0.5t-14.5 1t-14.5 0.5h-10h-1q-2 0 -3.5 -1.5t-1.5 -4.5zM175 51h1.5t1.5 1v7q0 4 -0.5 8t-1.5 7t-4 5t-7 2h-2q-1 0 -3 -2t-2 -3v-24h3t6.5 -0.5t5.5 -0.5h2z" />
</svg>
