<?xml version="1.0" standalone="no"?>
<!DOCTYPE svg PUBLIC "-//W3C//DTD SVG 1.1//EN" "http://www.w3.org/Graphics/SVG/1.1/DTD/svg11.dtd" >
<svg xmlns="http://www.w3.org/2000/svg" xmlns:xlink="http://www.w3.org/1999/xlink" version="1.1" viewBox="-10 0 266 256">
   <path fill="currentColor"
d="M130 247l2 2h1q3 0 5 -1.5t2 -5.5v-75q0 -1 2 -1.5t3 -0.5h1l1.5 0.5t3 0.5t2.5 0.5l1 0.5h1q1 0 3.5 -1t2.5 -3v-1l-2 -1q-1 -1 -2.5 -1t-3.5 -1t-4 -1t-3 -1v-1v-2q0 -3 2 -4.5t4.5 -3t4.5 -3t2 -3.5t-0.5 -3.5t-2.5 -1.5q-3 0 -5.5 2t-4.5 4t-4.5 4t-5.5 2q0 -6 1 -10
t3.5 -6.5t7 -5t10.5 -6.5v-1q0 -2 -2.5 -2h-3.5q-5 0 -8.5 1.5t-6 4.5l-5 6t-5.5 5v8q0 5 1 7.5t2.5 4.5t2.5 4t1 4q0 18 -2.5 35.5t-2.5 34.5v3.5t0.5 5t0.5 4.5v3zM191 244q0 2 1 2.5t2 0.5q2 0 4.5 -2t2.5 -5l-1 -30v-4q0 -2 -0.5 -7t-1.5 -11t-1.5 -11t-0.5 -7v-2
q0 -4 1.5 -6.5t3.5 -5t3.5 -6t1.5 -9.5q0 -7 -2.5 -12t-7 -8t-10.5 -4.5t-13 -1.5q0 4 1.5 6t4.5 3t6 1.5t6 2t5 5t2 9.5v3t-0.5 2.5t-1.5 2l-1 1.5h-1h-1q-4 -6 -9.5 -9.5t-12.5 -3.5h-1q0 1 -0.5 1.5l-0.5 0.5v1q0 2 2 3.5t5 3t5.5 3t3.5 3.5l-0.5 1.5t-1.5 1.5
q-1 2 -4 2.5t-5.5 1t-4.5 1t-2 3.5v0q0 1 1 1.5l1 0.5h18l0.5 1.5t1 3.5t0.5 4.5t1 3.5q2 15 2 32t-1 32zM79 239q0 3 1 5t4 2t5 -4q1 -30 1.5 -60t-0.5 -60q1 -2 3 -2q4 0 6.5 5t3.5 11.5t1.5 12t1.5 7.5v57q0 3 1 3.5t3 0.5h2.5t1.5 -2v-25q0 -16 -0.5 -34t-5.5 -34
q-1 -2 -3 -3.5t-4.5 -3t-5.5 -2t-5 -0.5v-19q0 -1 3 -2t6.5 -2.5t7 -3.5t4.5 -6q1 -6 2 -17t1 -20v-4.5t-4 -2.5q-2 0 -3 3.5t-1.5 8.5t-0.5 11t-0.5 11.5t-3 9t-6.5 3.5q-1 0 -3 -0.5t-2 -2.5v-65q0 -2 -1 -2.5t-2 -0.5q-3 0 -5 1q-1 8 -1.5 17t-0.5 18v17.5v14.5
q-1 2 -2.5 2.5t-3.5 0.5q-3 0 -4.5 -3t-2 -6t0 -6t0.5 -5v-24l-3.5 -3.5t-3.5 -1.5q-3 0 -4 2.5t-1 5.5v5q1 2 1 6t0.5 8.5t0.5 8v4.5q1 6 2.5 9t4 4.5t6.5 2t9 0.5v23l-1.5 0.5t-2.5 0.5q-2 1 -4.5 1.5t-5.5 1.5t-5 2t-3 3q-3 10 -4 22t-1.5 25t-0.5 26q0 12 -1 22v1
q0 4 4 4q3 0 5.5 -3.5t2.5 -6.5q-1 -22 0.5 -43t4.5 -42l1.5 -1l3 -2l3 -2l1.5 -1h1h1l0.5 0.5l0.5 0.5q2 10 2 19v19q0 20 -1.5 39.5t-1.5 39.5zM122 97v5q18 0 36 -0.5t37 -1.5h1q2 0 4 -0.5t4.5 -1t2.5 -1.5v-1v-1l-2 -2l-3 -3v0q-5 0 -10 1t-10 1h-4.5h-2.5l-1 -2
l-0.5 -2t-0.5 -4q0 -3 0.5 -7t3.5 -6q5 -1 10.5 -1.5t10.5 -1.5v-2v-1q0 -3 -0.5 -4t-3.5 -1q-5 0 -10 0.5t-10 0.5v-17l1 -1.5t2 -1.5q2 -2 4.5 -2.5t5.5 -1t5 -0.5h4q2 0 2 -1.5v-2.5q0 -3 -3 -3.5t-6 -0.5q-2 0 -7 0.5t-11.5 0.5t-13.5 1t-13 1.5t-10 2t-4 3.5q0 3 2 3.5
t4 0.5q5 0 9 -0.5t8 -0.5h4.5t3.5 3v2.5t0.5 3.5t0.5 4t1 3v1q0 6 -4.5 6.5t-10 0t-10 0t-4.5 5.5v1q0 1 0.5 1.5l0.5 0.5h29v21z" />
</svg>
