<?xml version="1.0" standalone="no"?>
<!DOCTYPE svg PUBLIC "-//W3C//DTD SVG 1.1//EN" "http://www.w3.org/Graphics/SVG/1.1/DTD/svg11.dtd" >
<svg xmlns="http://www.w3.org/2000/svg" xmlns:xlink="http://www.w3.org/1999/xlink" version="1.1" viewBox="-10 0 266 256">
   <path fill="currentColor"
d="M75 226v18q0 1 2 3t3 2h1q1 0 2.5 -1.5t2.5 -4t1.5 -5t0.5 -3.5q0 -17 -1 -33.5t-1 -32.5v-41q1 -2 2 -2h2q4 0 6.5 3t3 7.5t0.5 9v7.5v6t0.5 8.5t0.5 8.5v5l0.5 1.5t0.5 3.5t0.5 3.5l0.5 1.5v10v14v15v9l2 5q4 -1 7 -5.5t3 -9.5t-1 -11.5t-1 -11.5q-1 -9 -1.5 -19
t-1 -20.5t-2 -20.5t-3.5 -20l-1 -1.5l-1 -1.5q-3 -4 -6 -5t-5.5 -2t-4 -2.5t-1.5 -3.5q0 -9 1 -12t3 -4t5.5 -2.5t7.5 -5.5q3 -3 4.5 -9.5t2.5 -13.5t1 -13.5v-10.5q0 -3 -1 -4.5t-5 -1.5q-2 0 -3.5 1.5t-1.5 4.5q0 1 0.5 3.5t0.5 3.5v8t-1 12t-3.5 10.5t-5.5 4.5h-1
q-1 0 -2.5 -0.5t-1.5 -1.5v-61q0 -3 -1.5 -3.5t-2.5 -0.5q-2 0 -2.5 0.5l-1.5 1.5q-1 15 -1.5 31t0.5 31q0 2 -2 2.5t-3 0.5q-9 0 -12.5 -5t-4 -12.5t0 -15.5t1.5 -14q-1 -1 -2 -1h-3h-3t-2 1v40q0 7 5 10t10.5 4t10.5 2.5t5 4.5v1v3.5t-0.5 5t-0.5 5v3.5q-3 3 -6 4.5
t-6 3.5q-8 7 -12.5 17t-5.5 20q0 3 -0.5 13t-0.5 21t-0.5 20.5t-0.5 13.5v4v3t2 2q1 0 1 -0.5v-0.5q1 0 3 -0.5t3 -0.5q3 -7 3.5 -16t0.5 -18t-0.5 -18.5t0.5 -17.5q0 -3 1 -9t2.5 -12t3.5 -11t6 -5q3 0 4.5 3.5t2 8.5t0.5 10v6v17v16v5.5t-0.5 7.5t-0.5 8v5v2.5v3.5t-0.5 4
t-1.5 3zM145 221q4 1 7.5 2t6.5 1.5t6 0.5h8q3 0 8.5 -0.5t10.5 -1.5t8.5 -4t3.5 -8v-68q0 -3 -2.5 -3.5t-3.5 -0.5t-3.5 0.5t-2.5 1.5v20h-16l-3 -7v-39q0 -1 0.5 -1.5l0.5 -0.5q1 -1 2.5 -1t3 -0.5t3 -0.5h1.5h2h4h4h2h3t4.5 -0.5t4.5 -0.5t3 -1q1 0 1 -1.5v-2.5
q0 -6 -6 -6q-1 0 -3 0.5t-4.5 0.5t-5 0.5l-2.5 0.5h-3.5h-3.5h-4h-4q-3 -1 -3 -3v-4q0 -4 3 -6t7.5 -4t9 -4.5t6.5 -6.5q4 -8 4.5 -16.5t0.5 -17.5v-3.5t-0.5 -4.5t-2 -3.5t-4.5 -1.5t-4 3.5t-1 8.5q0 6 0.5 12t-1 11.5t-4.5 9t-10 3.5h-3t-2 -1v-59l-1.5 -0.5t-2.5 -0.5h-2
q-2 0 -3 1t-2 4q1 13 0.5 27t-2.5 28l-0.5 0.5l-0.5 0.5q-5 0 -7.5 -3t-4 -7t-2 -9l-1 -10t-1.5 -9.5t-4 -6.5q-4 2 -4.5 4t-0.5 6q0 2 0.5 6.5t1.5 9.5t2.5 9t2.5 5q2 3 6 5.5t7.5 5.5t6.5 6t3 7q0 3 -2 6t-5 6q-2 0 -6 -0.5t-9 -0.5t-9 0.5t-6 0.5q-1 0 -4 0.5t-4 0.5v1v1
v3t2 2h38q1 0 2 2.5l1 2.5v3.5v5.5v5v3v5v6v4v3v3.5t-0.5 4.5t-2 3.5t-3.5 1.5q-3 0 -6.5 -1.5t-3.5 -5.5v-2t0.5 -3.5t0.5 -3.5v-2v-2q0 -3 -1 -5t-4 -2q-4 0 -4.5 3.5t-0.5 6.5v3v2q0 1 0.5 3t0.5 4t0.5 4t0.5 3l-0.5 2t-0.5 4.5t-0.5 4.5l-0.5 2v1q0 10 1.5 20.5
t7.5 18.5zM146 184q0 -4 5 -7t12 -4t14 -1.5t10 -0.5h1l1.5 0.5t1.5 1.5v35l-1.5 0.5t-1.5 1.5q-3 1 -5.5 1t-4.5 0.5t-4.5 0t-6.5 -0.5h-3h-4.5h-4.5h-2q-3 -1 -4 -4.5t-2 -8t-1 -8.5v-6z" />
</svg>
