<?xml version="1.0" standalone="no"?>
<!DOCTYPE svg PUBLIC "-//W3C//DTD SVG 1.1//EN" "http://www.w3.org/Graphics/SVG/1.1/DTD/svg11.dtd" >
<svg xmlns="http://www.w3.org/2000/svg" xmlns:xlink="http://www.w3.org/1999/xlink" version="1.1" viewBox="-10 0 266 256">
   <path fill="currentColor"
d="M153 248q0 3 4 3q5 0 7 -5t2.5 -13.5t0 -18t-0.5 -18.5t0.5 -16t3.5 -9q2 0 6 0.5t9 0.5t9 -0.5t6 -0.5h2.5t3.5 -0.5t3 -1.5t1 -3t-1.5 -3t-3.5 -1q-7 0 -14 0.5t-14 0.5h-3t-4 -1q-1 -4 -2 -7t-1 -7q0 -2 0.5 -3t2.5 -2q13 0 20 -2t10 -6.5t3.5 -12.5t0.5 -19
q-5 0 -7 2.5t-3 6.5t-1 8.5v7.5q-2 3 -5 4t-7 1q-3 0 -6.5 -0.5t-5.5 -0.5v-23l1 -5q8 -3 12 -6.5t5.5 -7.5t2 -10t-0.5 -14l4 -2h17q2 0 2.5 -2t0.5 -3q0 -2 -0.5 -3.5t-2.5 -0.5h-17h-18.5t-18.5 1q-2 1 -8.5 1.5l-13 1t-11.5 2t-5 2.5l0.5 1.5t1.5 1.5h19l1.5 1t1.5 2
t0.5 4.5t1.5 5.5v3t0.5 5.5t0.5 5.5v4q1 2 3 3t4.5 1.5t4.5 1.5t2 3v27l-1 2h-2h-3h-6q-3 0 -6 -0.5t-5.5 -2t-2.5 -4.5v-17q-1 -2 -2 -5t-4 -3h-1l-1 0.5t-2 0.5v2.5v3.5v3v2q0 10 1.5 15.5t5 8.5t10 4t16.5 1q2 2 2.5 4t0.5 4v3t-0.5 4t-1.5 3.5t-2 1.5h-27q-1 1 -2.5 1.5
t-3 1.5t-2.5 1.5t-1 2.5v0q0 1 0.5 1.5l0.5 0.5h5.5h5.5q6 0 11.5 -1t11.5 -1q1 0 2.5 0.5t1.5 3.5v9q0 16 -2.5 32t-2.5 32zM70 240q0 2 1 2h2q2 0 3 -1.5t2 -3.5q2 -29 3.5 -57.5t4.5 -57.5q0 -1 0.5 -1.5l0.5 -0.5h0.5h0.5q2 0 4 3t3 7t2 8.5t1 5.5q0 2 0.5 5t0.5 6
t0.5 6t0.5 4v10v15v15v10q0 2 0.5 2.5t2.5 0.5t3 -2t1.5 -5t0.5 -5.5v-3.5q0 -20 -2 -39t-5 -38q0 -1 -0.5 -3.5l-0.5 -2.5q-1 -1 -3 -2.5l-4 -3l-4 -3t-2 -2.5v-11q0 -1 2.5 -2t3.5 -2q7 -2 10 -5t5 -11q0 -2 0.5 -7t1.5 -10.5t1.5 -10t0.5 -5.5v-2v-2q0 -3 -0.5 -5
t-3.5 -2q-2 0 -3.5 1l-1.5 1v4v5v5.5v3.5q0 3 -0.5 8t-1.5 10.5t-3 9.5t-6 4q-3 0 -4 -0.5t-1 -2.5q0 -16 1.5 -31.5t1.5 -30.5q0 -2 -0.5 -4.5t-3.5 -2.5q-1 0 -2.5 1t-2.5 2v23q0 1 -0.5 5t-0.5 9t-0.5 9.5t-0.5 5.5l0.5 3.5t0 7t-1 6t-3.5 2.5q-6 0 -9 -4t-4 -10t-1 -13
v-13t-1.5 -10.5t-4.5 -4.5q-4 0 -4 1.5v4.5v6.5t0.5 10.5t1 12.5t2 12t3 9.5t4.5 4h12q2 0 2.5 1.5t1 3.5t0.5 4.5v3.5q0 2 -0.5 3.5t-3.5 2.5l-15 5q-2 1 -4 6.5t-3.5 12t-2.5 12.5t-1 7l-3 57q-1 2 0 2.5t3 0.5q3 0 5 -7t2.5 -17.5t1 -23t1.5 -23t4 -17.5t9 -7q1 0 2 0.5
l3 1.5l0.5 1.5t0.5 3t0.5 3t0.5 2.5q0 12 -1.5 24l-3 24t-3 24.5t-1.5 24.5q0 1 0.5 5.5t0.5 5.5zM152 91q0 -1 -0.5 -3t-1 -5t-0.5 -5.5v-3.5v-2v-4t2 -2h21q3 0 4 3t1 5v2v2t-0.5 4.5t-0.5 4.5v3q-2 3 -5 4t-6 1h-4h-4.5t-4 -1t-1.5 -3zM132 33q0 1 0.5 1.5t1.5 0.5
t2.5 0.5t3.5 0.5h4h2h3h4t3.5 -0.5l1.5 -0.5h7h10.5t10 -0.5t7.5 -0.5q1 0 3 -1.5t1 -3.5q0 -2 -1.5 -2.5t-2.5 -0.5q-15 0 -29.5 2t-29.5 1l-1.5 1.5t-0.5 2.5z" />
</svg>
