<?xml version="1.0" standalone="no"?>
<!DOCTYPE svg PUBLIC "-//W3C//DTD SVG 1.1//EN" "http://www.w3.org/Graphics/SVG/1.1/DTD/svg11.dtd" >
<svg xmlns="http://www.w3.org/2000/svg" xmlns:xlink="http://www.w3.org/1999/xlink" version="1.1" viewBox="-10 0 266 256">
   <path fill="currentColor"
d="M76 243q0 2 0.5 3t2.5 1q3 0 6.5 -2.5t3.5 -6.5v-107l1 -1.5t2 -1.5l1 0.5t2 0.5q3 3 4.5 7t2.5 8.5t1.5 8.5t0.5 7q0 1 0.5 5.5t0.5 9.5t0.5 10.5t0.5 8.5v5v8.5v7.5v6q5 0 6 -2.5l3 -7.5v-13q0 -10 -0.5 -19t-0.5 -19q0 -4 2.5 -6t6 -3t7 -1.5t5.5 -0.5h66q2 0 4.5 -2
t2.5 -5t-2.5 -4t-4.5 -1q-4 0 -8 0.5t-7 2.5h-46q-3 0 -3 -3v-1.5v-0.5q5 -5 10 -12t7 -15h2q5 0 8 4t5.5 8l5 8t7.5 4q3 0 4 -1.5t1 -4.5v-2v-2l-25 -28v-0.5v-1.5t2.5 -4.5t5.5 -8t5.5 -8.5t3.5 -5l2.5 -5t2.5 -6.5t2 -6l1 -2.5l14 -4q1 0 1.5 -1.5t0.5 -2.5
q0 -4 -1.5 -4.5t-3.5 -0.5q-5 0 -9.5 2t-9 2.5t-13.5 0t-18 0t-16.5 2.5t-9.5 6l1 2h1.5h3.5h3h3q9 0 17.5 -1t17.5 -1q3 0 4.5 0.5t1.5 4.5v2q-1 1 -2 3.5t-3 5t-3 4.5t-2 3q0 1 -1 3t-2.5 3.5l-3 3t-2.5 1.5h-2q0 -1 -1.5 -2.5l-3.5 -3.5t-3.5 -4t-2.5 -3t-2 -3t-2 -3.5
t-2.5 -2.5t-3.5 -1t-3 1t-1 3q0 3 3.5 7t7 8.5l7 9t3.5 9.5q0 2 -3 7.5t-6.5 12.5t-7 13.5t-4.5 9.5q0 1 -0.5 2.5l-0.5 1.5q-1 0 -2.5 0.5t-3 0.5t-3 0.5t-2.5 0.5h-3q-2 0 -3.5 -2t-2 -5t-1.5 -6t-3 -5q-2 -3 -4.5 -5t-5 -4.5t-4 -5.5t-1.5 -7t0.5 -6.5t0.5 -7.5
q24 -4 24 -32v-1q0 -2 -0.5 -5.5t-0.5 -8t-0.5 -8t-0.5 -5.5t-2 -2h-3q-2 0 -3 0.5t-1 3.5v35q0 5 -3 9t-8 4v0l-2 -2t-1 -2q-1 -9 -1.5 -16.5t-0.5 -15.5q0 -4 1 -8t1 -7v-6t-0.5 -6t-2 -5t-4.5 -2q-4 0 -5 3.5t-1 7.5q0 13 1.5 26t1.5 26v3.5t-1 3.5h-4q-7 0 -10 -5
t-4 -12.5t-0.5 -15t-0.5 -12.5q-1 -2 -2 -2.5t-3 -0.5q-4 0 -5 2t-1 6v10q0 5 0.5 11t2 11.5t4.5 9.5q3 5 7.5 6.5t8 2.5t6 4t2.5 12q0 4 -2 6t-5 3.5l-6 3t-5 4.5q-7 9 -9 20t-2 22v8v10t0.5 15t0.5 15v10l1.5 1.5t2.5 0.5t3.5 -2.5t2.5 -5.5v-9t0.5 -15t0.5 -15v-10v-2
q0 -1 0.5 -2.5t0.5 -3.5t0.5 -4t0.5 -3q-1 0 -1.5 -0.5l-0.5 -0.5q0 -4 1 -8.5t2.5 -8.5t4 -7t6.5 -3q2 0 2.5 0.5t0.5 4.5v70q-1 10 -2 21t-1 21zM142 227q3 2 5 2h6h9q6 0 11.5 -1t10 -4t5.5 -9q0 -11 0.5 -20.5t0.5 -19.5v-5t-0.5 -5.5t-2 -4t-3.5 -1.5q-4 0 -4.5 2.5
t-0.5 6.5v6.5t-3 4.5q-8 2 -14 2h-14h-8l-1 -2v-15q-3 0 -5.5 1.5t-2.5 4.5v2v7.5t0.5 11.5t1 11t0.5 8l0.5 1.5l0.5 1.5q0 1 1.5 3t2.5 4.5t2 4.5t2 2zM140 195l3 -3l2 -0.5t5 -0.5t6 -0.5t5 -0.5h7h7q3 3 3.5 5.5t0.5 7.5q0 8 -4 11t-11 3h-4.5t-7.5 -0.5t-7 -1.5t-3 -4z
" />
</svg>
