<?xml version="1.0" standalone="no"?>
<!DOCTYPE svg PUBLIC "-//W3C//DTD SVG 1.1//EN" "http://www.w3.org/Graphics/SVG/1.1/DTD/svg11.dtd" >
<svg xmlns="http://www.w3.org/2000/svg" xmlns:xlink="http://www.w3.org/1999/xlink" version="1.1" viewBox="-10 0 266 256">
   <path fill="currentColor"
d="M73 249q1 1 2 1.5t2 0.5q3 0 4.5 -2t2 -4.5t0.5 -5.5v-5v-66q0 -2 0.5 -6.5t1 -10t0.5 -10.5v-7v-3.5t0.5 -4t1.5 -3t3 -1.5q4 0 6.5 3t3.5 7.5t1.5 9t0.5 7.5v4v7q0 3 0.5 7t0.5 7v14q0 6 -0.5 12.5t-0.5 13t-1 14.5q0 2 0.5 2.5t2.5 0.5q3 0 4.5 -2.5t2.5 -6.5t1 -7.5
v-5.5v-10.5t-0.5 -16.5t-1 -19t-1.5 -19t-2 -15.5t-3 -8.5q-2 -3 -4 -4l-4 -2l-4 -2l-4 -2v-3t-0.5 -4.5t-0.5 -4.5v-3v-1q0 -3 2 -5t5 -3.5t6.5 -3.5t5 -4t3 -7t2.5 -10.5t1.5 -11t0.5 -8.5v-1v-2.5t-0.5 -3t-0.5 -2.5v-2q-1 0 -2.5 -1t-2.5 -1t-2 2.5l-1 2.5q1 10 0 20
t-3 20q-1 2 -3 3t-4 1t-3.5 -1.5t-2.5 -4.5v-16q0 -10 1 -19t1 -18q0 -4 -1 -5.5t-3 -1.5q-7 0 -7 8v1v3.5t0.5 6t0.5 6.5v4v2q0 9 -0.5 17t-0.5 17q-8 0 -11.5 -4.5t-4.5 -11t-1 -14.5v-14q-1 -2 -3 -2h-2h-3q-1 0 -2 2v2v4v4v2q0 8 1 15t4 13t8 10.5t14 5.5v2q0 10 -2 15
t-4.5 8t-5.5 4t-6 3.5t-5.5 6.5t-3.5 13q0 1 -0.5 7.5t-1 14t-1 13.5t-0.5 8l-0.5 3.5l-1 7t-1 6.5t-0.5 4v4v5v4v4l1 1t2 1q4 0 6 -7.5t2.5 -18.5t1 -23.5t2 -23.5t4 -18.5t7.5 -7.5q2 0 3.5 1t0.5 5v15q0 25 -2 49t-2 49v6zM122 163q3 3 3.5 8t1 9.5t3.5 8.5t13 7h18
q16 0 24.5 -1t13.5 -4.5t7 -12t6 -24.5l0.5 -2t0.5 -3v-84l-0.5 -1.5t-1.5 -3t-1.5 -3t-1.5 -2.5q-3 -5 -7.5 -7t-10 -3t-11 -0.5t-10.5 0.5q-10 0 -18 0.5t-14.5 3.5t-10 9.5t-4.5 17.5v7t-0.5 10.5t-0.5 10.5v6v1q0 2 -0.5 3.5t-0.5 3.5v3q0 11 1.5 21t0.5 21zM129 137v-3
v-5t0.5 -9t0.5 -9.5v-5.5q1 -13 1 -22.5t3 -16.5t10 -10t21 -3h20t12.5 3t6 10t1.5 20v25v23q-2 7 -2.5 13l-1 12t-1.5 11t-3.5 9t-7.5 6.5t-14 2.5h-3q-4 0 -4 -1q-2 0 -2 -1v-2q0 -14 2 -28t3 -28q-1 -3 0.5 -3.5t3.5 -0.5q4 0 6 5t3 11t1 12v7q0 4 -1 7.5t-1 6.5t4 3h1
t1 -2v-51q0 -1 -2.5 -3l-2.5 -2q-1 0 -2.5 -0.5t-3.5 -0.5t-3.5 -0.5t-2.5 -0.5v-2v-2q0 -5 3 -7.5t7 -4.5t7.5 -5t4.5 -10v-3v-4.5v-4.5v-3q-5 0 -6 4t-2 8.5t-4 8.5t-10 4v-32q0 -1 -2 -1h-3h-1l-3 28q0 1 -1.5 1h-2.5q-5 0 -6.5 -3.5t-2.5 -8t-1.5 -8t-2.5 -3.5
q-1 0 -2 0.5t-1 1.5v21q0 4 3.5 5l7 2t7 2.5t3.5 4.5v11q-8 1 -12.5 7.5t-6.5 15.5t-2 18v16q1 0 2 0.5t2 0.5t2 -0.5t1 -2.5q0 -1 0.5 -5t0.5 -8t0.5 -8t0.5 -6q1 -5 3 -10t8 -5v4.5v4.5v6t-0.5 7.5t-1 6.5l-0.5 3l-1 3v19q0 2 -2 3.5t-4 1.5q-7 0 -10.5 -3t-6 -8t-3.5 -11
l-2 -12q-2 -4 -2.5 -8t-0.5 -9z" />
</svg>
