<?xml version="1.0" standalone="no"?>
<!DOCTYPE svg PUBLIC "-//W3C//DTD SVG 1.1//EN" "http://www.w3.org/Graphics/SVG/1.1/DTD/svg11.dtd" >
<svg xmlns="http://www.w3.org/2000/svg" xmlns:xlink="http://www.w3.org/1999/xlink" version="1.1" viewBox="-10 0 266 256">
   <path fill="currentColor"
d="M167 193q0 5 3 14.5t7.5 19t10 16.5t11.5 7q3 0 4 -2t1 -5q0 -4 -1 -6t-3 -3.5t-4.5 -3.5t-4.5 -5q-5 -7 -9 -15t-4 -17q0 -6 3.5 -9t7.5 -6.5t7 -7.5t3 -10v-5.5t-1 -5.5t-3.5 -5t-3.5 -3h-20q-3 0 -3.5 -2.5t-0.5 -4.5v-3q0 -1 2 -2q8 1 13 -0.5t9 -9.5v-7.5t1 -6.5
t1 -6v-7v-9t-2 -9q-2 -2 -4 -2q-4 0 -4.5 3t-0.5 6t-1 6t-4 3h-25q-2 0 -2.5 -2t-1 -4.5l-1 -5t-2.5 -3.5v0h-1l-2 2t-1 2v0q0 10 1 22t2 21q2 4 6 6t7 3v5q0 3 -2 6t-5 6l-6 6t-5 6.5t-3.5 7.5t-2 9t-0.5 9.5v8.5q0 10 1.5 22t2.5 21q1 2 2.5 4.5t3.5 2.5q3 0 4.5 -2.5
t1.5 -5.5q0 -7 -1.5 -12.5t-3.5 -11.5v-45q0 -4 2.5 -7.5t6.5 -6t8.5 -4t7.5 -1.5t6.5 0.5t6.5 1.5t5.5 3.5t2.5 5.5q0 6 -3.5 9.5t-8 6.5t-8 7t-3.5 10zM82 247q0 1 2 1h2q3 0 5 -2.5t2 -5.5v-108q0 -1 1 -1h3t3.5 1.5t2.5 4.5t1.5 5.5t1.5 4.5v3.5t0.5 4.5t0.5 4v3
q0 3 0.5 11t0.5 18q0 9 -0.5 17t-0.5 11l1.5 1.5t1.5 0.5q3 0 5 -2t2 -5v-6v-8.5v-8.5v-6v-24.5t-3 -24.5q-1 -4 -3 -7t-5 -5q-1 0 -3 -0.5t-4.5 -1t-4.5 -1t-3 -0.5q2 -5 2 -12v-11q2 -3 5.5 -3.5t5.5 -1.5q6 -2 9 -7t4 -11t0.5 -12.5t-0.5 -11.5v-11l-2 -4h-8q0 8 1 15
t1 15v9q-2 5 -5 8.5t-8 3.5q-1 0 -2 -2.5l-1 -2.5v-4v-6v-6v-3q0 -12 1 -22.5t1 -21.5q0 -2 -2.5 -4.5t-4.5 -2.5t-3.5 1t-2.5 4v6q0 11 0.5 22t0.5 21v19q0 1 -2 2.5t-3 1.5q-5 0 -7 -4t-3 -9t-1.5 -10t-0.5 -7v-19q0 -3 -2 -5t-4 -2q-3 0 -5 3v6q0 9 1 17.5t2 17.5
q1 8 5 12t8.5 6t8 3t3.5 2v18q0 3 -3.5 4t-8 3t-9 5.5t-5.5 11.5q-2 19 -2.5 37.5t-2.5 37.5q-1 1 -1.5 2t-0.5 2l0.5 1.5t1.5 1.5h1.5h2.5h4t3 -3l5 -80q0 -4 4 -6.5t7 -2.5h2t2 2v88q-1 4 -1 8v8v9zM150 116v-16q1 0 5 -0.5t9.5 -1.5t9.5 -1l1 -0.5t2 -0.5q2 0 3 1.5
t1.5 3.5t0.5 5v4v8q-1 2 -4 2.5l-6 1t-6 0l-3 -0.5h-5h-3zM125 72q0 1 1 1.5t2 0.5q7 0 12 -4t8 -10t4.5 -13t1.5 -13v-2q0 -2 -0.5 -3.5t-0.5 -3.5v-2q0 -2 -1.5 -3.5t-3.5 -1.5h-1q0 1 -0.5 1.5t-1.5 0.5q0 1 0.5 4.5t0.5 6.5q0 4 -0.5 7.5t-0.5 4.5q0 4 -2 8t-5.5 7.5
t-7 6.5t-5.5 5v0.5v1.5zM172 22q0 11 0.5 18.5t3 13t8 9t15.5 6.5h2q2 0 5 -1.5t3 -4.5q0 -1 -2 -2.5t-4 -2.5t-4 -1.5t-3 -0.5q-2 -1 -4 -3l-3.5 -3.5l-3 -3l-2.5 -2.5v-26l-2 -1.5l-2 -1.5q-1 0 -3.5 1.5l-2.5 1.5l-0.5 1.5t-0.5 2.5z" />
</svg>
