<?xml version="1.0" standalone="no"?>
<!DOCTYPE svg PUBLIC "-//W3C//DTD SVG 1.1//EN" "http://www.w3.org/Graphics/SVG/1.1/DTD/svg11.dtd" >
<svg xmlns="http://www.w3.org/2000/svg" xmlns:xlink="http://www.w3.org/1999/xlink" version="1.1" viewBox="-10 0 266 256">
   <path fill="currentColor"
d="M196 247q1 4 5 4q3 0 5.5 -2.5t2.5 -4.5q0 -1 -0.5 -1.5t-0.5 -1.5l-7 -45q-1 -5 -5.5 -8t-10.5 -5t-12.5 -3t-12.5 -2t-9.5 -2t-3.5 -3v-61q0 -2 -1.5 -3.5t-3.5 -2t-4.5 -0.5h-4.5q-5 0 -8.5 1t-5.5 4t-2.5 7.5t-1.5 9.5v6v10v10v6v7t-0.5 10.5t-0.5 10.5v6v6.5
t0.5 9.5t0.5 10v7q1 0 2 0.5l1 0.5h1h1l3 -1v-10.5v-14.5v-18v-18v-15v-10v-3.5t0.5 -5.5t0.5 -6t1 -4q0 -4 2.5 -7t6.5 -3q3 0 5 3t2 5v48q0 7 2.5 10.5t7 5t10 2.5t10.5 2t9.5 2.5t7.5 5.5q3 5 5 11.5t2.5 13.5t0.5 14v12zM73 236q0 3 2 3.5t4 0.5q1 0 2 -0.5l1 -0.5l3 -9
v-3q0 -2 0.5 -5t0.5 -6v-4q0 -18 -1 -35t-1 -35v-20q0 -1 0.5 -3l0.5 -2h0.5h0.5h0.5h0.5q2 2 3 6l2 8t1.5 8t1.5 7v4.5t0.5 7.5t0.5 7.5v4.5q1 1 1.5 2l0.5 1v1q0 1 -1 1.5t-1 2.5v2l0.5 2.5t0.5 5t0.5 4.5l0.5 2l-0.5 1t-0.5 2.5t-0.5 2.5l-0.5 1v6v7q1 1 1.5 1h2.5
q3 0 6 -5v-4v-4q0 -18 -2 -36t-4 -35q-2 -7 -3.5 -13t-1.5 -14q-1 -1 -2.5 -1.5t-3.5 -1.5t-3.5 -1.5t-1.5 -1.5v-16q0 -2 1.5 -2.5t3.5 -1l4 -1t3 -0.5q4 -3 6.5 -9t3.5 -12.5t1.5 -13t0.5 -9.5q0 -5 -2.5 -6.5t-7.5 -1.5q0 3 0.5 10.5t0 15t-3 13.5t-7.5 6q-2 0 -3 -2
t-1 -4q0 -11 1.5 -22.5t1.5 -22.5q0 -4 -1.5 -5.5t-5.5 -1.5h-1v0l-0.5 0.5t-0.5 1.5v40q0 1 -0.5 2.5t-1 4t-0.5 4v2.5l-1.5 1.5t-1.5 0.5q-3 0 -4.5 -3t-2.5 -6t-1 -6.5v-4.5t-0.5 -5t-1 -8.5t-0.5 -8.5v-5h-1.5h-2.5q-4 0 -4.5 0.5t-0.5 4.5v11v12.5t1 12t3 9.5
q3 4 6 4.5t5.5 1t4.5 3t2 9.5v4q0 2 -2 4l-1.5 1l-3 2l-3 2l-1.5 1q-4 3 -6 8.5t-3 11l-2 11t-2 9.5q-1 17 -3 36.5t-2 37.5q0 3 1 3.5t4 0.5h3t2 -2l3 -50q1 -4 1.5 -8t0.5 -9v-8q0 -5 1 -9t1.5 -8.5t1.5 -8t3 -6t7 -2.5v108l-0.5 2.5l-1 5l-1 5t-0.5 3.5v1zM156 90v3
q0 4 0.5 12l1 16t1 14t0.5 8q1 7 5.5 11t11 5.5t13.5 2t13 0.5h3t2 -2v-1v0l-2 -2t-1 -2l-19 -3l-0.5 -1t-0.5 -3t-0.5 -4.5t-0.5 -3.5v-8v-7q3 -2 7 -3t7.5 -2t6.5 -3t3 -8v-36q0 -4 -3 -5.5t-6 -1.5q0 11 -0.5 22.5t-1.5 21.5q-1 3 -4.5 3.5t-5.5 0.5h-1q0 -1 -1 -3.5
t-1 -3.5v-1q0 -10 1.5 -19t1.5 -19v-9q0 -3 -1 -4t-4 -1h-3q-3 23 -3 47v47q0 1 -1 1h-2q-2 0 -3 -1.5t-2 -3.5q-2 -14 -2.5 -29t-0.5 -30q0 -1 -1.5 -2t-3.5 -1t-2.5 3t-0.5 5zM106 86q0 1 0.5 2.5t1.5 1.5t3 -1t4 -2.5t3.5 -2.5l1.5 -1q12 -8 17 -19.5t5 -25.5v-4v-4
q-1 -3 -2.5 -3.5t-3.5 -0.5h-3q-1 0 -2 2l1.5 6t0.5 6q0 8 -2.5 15.5t-7.5 14.5q-1 2 -4 4t-6 3.5t-5 3.5t-2 5zM195 19q-3 0 -5 2t-3 5t-2.5 6.5t-2.5 5.5q-3 3 -7 5.5t-8.5 5t-7.5 5.5t-3 7q5 0 13 -3.5t15 -9.5t12 -13t5 -13q0 -3 -2 -3h-4z" />
</svg>
