<?xml version="1.0" standalone="no"?>
<!DOCTYPE svg PUBLIC "-//W3C//DTD SVG 1.1//EN" "http://www.w3.org/Graphics/SVG/1.1/DTD/svg11.dtd" >
<svg xmlns="http://www.w3.org/2000/svg" xmlns:xlink="http://www.w3.org/1999/xlink" version="1.1" viewBox="-10 0 266 256">
   <path fill="currentColor"
d="M74 155q0 24 -1.5 46.5t-1.5 46.5q5 0 8 -2.5t3 -7.5v-4.5t-1 -3.5v-5q0 -4 -0.5 -8t-0.5 -7v-5v-7t0.5 -8t0.5 -7v-4v-11.5t0.5 -17.5t1 -17.5t1.5 -11.5q0 -2 1 -2h2q3 0 4.5 3t1.5 5q0 1 0.5 3l1 4l1 4t0.5 3v5q0 3 0.5 7t0.5 7v5q0 15 -1 29t-1 29v2.5t2 1.5
q1 0 2 -1.5t1.5 -2.5t0.5 -2.5v-1.5q0 -3 0.5 -8.5t0.5 -11.5t0.5 -12t0.5 -8v-23v-23q-1 -1 -1.5 -3l-1 -4t-1.5 -4t-1 -3l-0.5 -1.5t-1.5 -1.5q-2 -2 -4.5 -3t-4.5 -2t-3.5 -3t-1.5 -6t3 -5.5t6.5 -3l7 -3t5.5 -4.5q1 -9 2.5 -18.5t1.5 -18.5v-4q-1 -1 -1.5 -2l-0.5 -1h-7
v9t-0.5 10.5l-1 11t-1.5 10.5q-1 3 -3 4t-4 1q-3 0 -4 -0.5t-1 -3.5q0 -18 1.5 -35t1.5 -34q0 -3 -2 -4t-5 -1h-3t-3 2v11v11l0.5 3.5t0.5 7t0.5 7t0.5 4.5v5t-0.5 8.5t-1 8t-0.5 5.5t-1.5 3t-3.5 1q-3 0 -4.5 -3t-2 -7.5t-0.5 -10v-10.5t-1.5 -8t-5.5 -3q-3 0 -4 1t-1 4
q0 9 2.5 18.5t2.5 18.5q2 3 5.5 4.5t6.5 2.5t5.5 2.5t3.5 4.5q1 6 -1.5 8.5t-5.5 4.5t-6.5 4t-5.5 7q-4 10 -5.5 21.5t-2.5 21.5q0 2 -0.5 8.5t-1 14.5t-1 15.5t-0.5 10.5v2v3.5v3.5v2q5 0 8 -4t3 -9v-36l2 -3q0 -13 1 -26t6 -25q2 -3 5 -3t3 3v6v9.5v9.5v5zM152 182v59
q0 1 1 1.5t2 0.5t2.5 -0.5t1.5 -1.5v-57h14q0 1 -0.5 4.5t-0.5 7.5v7v4q0 2 0.5 6.5t0.5 9t0.5 9t0.5 6.5h1h1h2.5t1.5 -2v-51q0 -1 1.5 -2t3 -1.5t3.5 -0.5h2h1l2 1q3 5 3 12v11v27q0 2 1.5 3t3.5 1q3 0 4.5 -1t1.5 -3q0 -11 -2.5 -21t-2.5 -21v-7v-13v-12v-7v-6t-0.5 -9
t-0.5 -9.5t-1 -5.5v-3v-4t-1 -3t-3 -1h-2.5t-1.5 1v24l-1.5 0.5t-2.5 1.5q-1 0 -2.5 0.5t-2.5 0.5h-1v0q-1 0 -3 -2t-2 -3v0q0 -5 1 -10t1 -9q0 -2 -0.5 -5t-0.5 -4t-1 -1.5t-2 -0.5q-5 2 -5 7.5t0.5 11.5t0 11t-6.5 5q-4 0 -4.5 -3t-0.5 -7q0 -9 0.5 -18t1.5 -19
q4 -2 8.5 -2.5t8.5 -1.5q1 0 1.5 -1t0.5 -2v0v-1q-1 0 -3.5 -1l-2.5 -1h-1h-1q-2 0 -6.5 0.5t-9.5 0.5t-9.5 0.5t-5.5 0.5q-3 0 -3.5 1t-0.5 2q0 3 2.5 3h5.5t5.5 0.5t2.5 3.5q0 12 -0.5 23t-0.5 22h-8v-30l-1.5 -1.5l-1.5 -1.5h-1h-1q-1 0 -1.5 0.5l-0.5 0.5v32l-4 0.5
t-7 1.5h-1v0q-1 -1 -1.5 -2l-0.5 -1v-4v-6v-5.5v-3.5q0 -3 -1 -5.5t-4 -2.5h-1q-1 20 -2 40.5t-1 41.5q-1 10 -2.5 19.5t-1.5 18.5q0 3 0.5 4.5t4.5 1.5q2 0 2.5 -0.5t0.5 -2.5q2 -5 2 -9v-8v-7.5v-10.5q0 -1 0.5 -3.5t0.5 -4.5t0.5 -3.5l0.5 -1.5h12v35q-1 3 -1 4.5v4.5v4
t3 2q1 0 3.5 -2t2.5 -3v-45q0 -1 1 -1.5t3 -0.5t3.5 -0.5t2.5 -0.5zM130 146h3.5t2.5 3v24q0 3 -3 4t-5 1h-1h-2.5t-2 -0.5t-0.5 -1.5v-24q0 -4 2 -5t6 -1zM142 174v-4v-5v-9t3 -8q0 -1 1 -1h1q2 0 3.5 1.5t1.5 3.5v21q0 1 -3 2t-4 1h-1.5t-1.5 -2zM159 145q1 0 4 0.5t4 0.5
t1.5 0.5t0.5 1.5q1 3 1 5.5t0.5 4.5t0.5 4v5v3t-1 3t-2.5 1h-3.5h-3.5t-1.5 -3v-26zM178 173v-25q0 -1 1.5 -2t3 -1.5t3 -0.5h2.5q2 0 2.5 1t2.5 3v2.5t0.5 5t0.5 4.5v3v3q0 1 -0.5 4t-2.5 3h-13zM162 45q3 0 7 4.5t7.5 11t8 14.5t8 14.5t7 11t5.5 4.5q3 0 4 -1.5t1 -4.5
q0 -4 -3 -7t-5 -6q-1 -2 -4 -6.5t-6 -9.5t-6 -9.5t-4 -6.5q-2 -2 -4 -6.5l-4 -9t-4.5 -8t-5.5 -3.5q-4 0 -8 5t-8 11.5t-7 13t-5 8.5q-7 9 -15 18t-15 17v1h5l1 -1t3 -2.5t3.5 -3t3.5 -2.5l1.5 -1.5l3 -3l3 -3l1.5 -1.5l1.5 -1l1.5 -1q2 -2 5.5 -8t7.5 -12t8 -11t7 -5z" />
</svg>
