<?xml version="1.0" standalone="no"?>
<!DOCTYPE svg PUBLIC "-//W3C//DTD SVG 1.1//EN" "http://www.w3.org/Graphics/SVG/1.1/DTD/svg11.dtd" >
<svg xmlns="http://www.w3.org/2000/svg" xmlns:xlink="http://www.w3.org/1999/xlink" version="1.1" viewBox="-10 0 266 256">
   <path fill="currentColor"
d="M77 243v5t3 3q1 0 3 -1.5t3 -3.5l2 -4t1 -4v-15.5t0.5 -14t0.5 -14v-15.5t-0.5 -16t-0.5 -16v-5v-7v-6.5v-4.5q1 -1 1.5 -2.5t1.5 -2.5q4 2 6 5.5t3 8t1.5 9t0.5 7.5v5v9v8v5q0 3 0.5 8.5t1 12t0.5 12t1 8.5q0 2 3 2t4.5 -3.5t1.5 -6.5v-2v-1q0 -1 -0.5 -3.5t-1 -6t-1 -6
t-0.5 -3.5q-2 -13 -2 -26t-1 -26q-1 -7 -4.5 -12t-7 -8.5t-7 -6t-3.5 -5.5t1.5 -4.5t3.5 -2.5t4.5 -1.5t4.5 -1.5q4 -2 7 -8.5t4.5 -14t2 -15t0.5 -11.5v-2.5v-2.5q-1 -1 -2 -1.5t-3 -0.5q-3 0 -4 4t-1.5 9.5t-0.5 11.5q0 7 -0.5 12.5t-2.5 9t-6 3.5h-2.5t-2.5 -2
q0 -3 -0.5 -6t-0.5 -6v-6v-6q0 -9 1 -17.5t1 -17.5q0 -3 -1.5 -5t-5.5 -2h-2t-2 2v5v5q0 10 0.5 20.5t0.5 20.5v12l-1 3h-1.5h-2.5q-6 0 -8.5 -4t-2.5 -10v-5v-9v-8v-6l-1 -0.5t-2 -1.5l-2 -2t-2 0l-1.5 1.5l-2.5 2.5v1v1q0 2 0.5 6t0.5 7.5t0.5 6.5l0.5 3q0 1 0.5 5t1.5 8
l2 8t3 4l17 3l0.5 3t0.5 5q0 4 -2.5 6.5t-6 5l-7 5t-3.5 7.5q-3 20 -5.5 39.5t-2.5 39.5v13l1.5 1l1.5 1l0.5 0.5l0.5 0.5q2 0 3.5 -2.5t1.5 -4.5q0 -1 0.5 -4t0.5 -6.5t0.5 -6.5t0.5 -4v-9.5v-14.5t0.5 -16.5t2 -16t4.5 -12t7 -4.5h1l0.5 1l0.5 1v16q0 18 -0.5 35t-0.5 35
q-1 8 -2 15.5t-1 15.5zM152 200q1 0 3 3t4.5 8t5.5 10.5t6.5 10.5t7 8t7.5 3q2 0 3 -0.5t1 -3.5t-3 -7.5t-6.5 -8.5t-7.5 -7.5t-5 -6.5q-1 -1 -2 -3t-2 -4.5l-2 -5t-2 -2.5v-2q0 -3 5 -6t11 -5t10.5 -4.5t4.5 -5.5q0 -2 -1 -3t-4 -1q-4 0 -7.5 2t-6.5 4.5t-6.5 4.5t-8.5 2
q-2 0 -3 -1t-1.5 -2.5t-0.5 -4v-5.5l-0.5 -1t-1.5 -2.5t-1.5 -2.5t-0.5 -2v-0.5v-1.5q0 -3 2 -3.5t4.5 -0.5h5.5t5 -1h29q1 0 3 -1.5t2 -2.5v-1l-2 -3q-1 0 -2.5 -0.5t-4 -0.5h-4.5h-2h-6.5t-9.5 1t-9.5 1.5t-5.5 0.5h-2q-1 0 -2.5 -0.5t-1.5 -2.5q0 -1 0.5 -3.5t0.5 -3.5
l1 -0.5l1 -0.5l14 -3q2 -1 2.5 -3l1 -4l1 -4t2.5 -2q3 0 4.5 2t3 4.5t3.5 4.5t4 2t3 -1t1 -3q0 -5 -3 -9t-6.5 -8t-6.5 -8t-3 -9v-1q3 -1 8 -1.5t9.5 -1t8 -1.5t3.5 -4t-1.5 -4.5t-4.5 -1.5q-6 0 -12 1.5t-12 1.5q-4 0 -6 -2.5t-2 -7.5q0 -3 3 -4t7.5 -1.5t9.5 -0.5
q6 0 10.5 -0.5t7.5 -2t3 -6.5h-38q-2 0 -2.5 -2.5t-0.5 -3.5q0 -4 4.5 -5t10 -1.5t10 -1.5t4.5 -6v-16q0 -3 -2 -3.5t-4 -0.5t-2.5 3t-1 7t-2.5 7t-8 3h-1h-2h-2t-1 -1v-22l-1 -0.5t-2 -0.5q-1 -1 -3 -1.5l-2 -0.5q0 1 -1.5 2l-1.5 1v42q0 2 -5 2.5t-11.5 1t-11.5 1.5t-5 4
v2.5t1 1.5h32q1 0 1.5 2t1 4.5t0.5 5.5v3q0 3 -4.5 5.5t-10 5t-11.5 4.5l-9 3q-1 1 -2.5 2l-3 2t-2.5 2l-1 1v5q7 0 12 -3l10 -6t10.5 -6t11.5 -3q5 0 7.5 4t2.5 8q0 2 -1 2.5t-2 0.5t-2 0.5t-1.5 1.5t-1 5.5t-0.5 5.5q-1 1 -2 1.5t-3 0.5t-3 -2t-1.5 -4.5t-1.5 -4.5t-4 -2
h-0.5h-1.5v3.5t-0.5 4.5t-0.5 4.5v3.5v1t0.5 2.5t0.5 2.5v1q0 3 -1 7t-3 6h-5h-7t-7 1.5t-3 3.5q0 3 1 3.5t4 0.5q4 0 8 -0.5t8 -0.5q2 0 4 4t3.5 9.5t2 10.5t0.5 8t-5 8.5t-11 11.5t-11 11.5t-5 8.5l0.5 0.5t0.5 1.5h5q3 0 5 -1.5t3.5 -3t2.5 -3.5t3 -5q0 -1 2 -3t4.5 -5
t4 -5.5t2.5 -3.5q1 0 2 -0.5t2 -0.5v0z" />
</svg>
