<?xml version="1.0" standalone="no"?>
<!DOCTYPE svg PUBLIC "-//W3C//DTD SVG 1.1//EN" "http://www.w3.org/Graphics/SVG/1.1/DTD/svg11.dtd" >
<svg xmlns="http://www.w3.org/2000/svg" xmlns:xlink="http://www.w3.org/1999/xlink" version="1.1" viewBox="-10 0 266 256">
   <path fill="currentColor"
d="M83 235v8.5t3 7.5h1.5h1.5q2 0 4 -0.5t3 -2.5v-13v-10.5t-2 -10.5v-91q0 -2 1 -2.5t2 -0.5q2 0 3.5 3t2 7t1 7.5t0.5 4.5q0 2 -0.5 4.5t-0.5 4.5q0 16 1.5 32t0.5 33q1 1 2 2.5t3 1.5t3 -2.5t1.5 -5t0.5 -5.5v-4v-1q0 -2 -0.5 -7t-0.5 -11t-0.5 -10.5t-0.5 -7.5v-4
l-1 -49l3.5 -1.5t7.5 -3t7.5 -2.5t4.5 -1q2 0 4 2t3.5 4.5t2 5.5t0.5 5t-3 3t-6.5 2t-7 1.5t-4.5 1.5v2v2.5t1 1.5h20l1 1.5t2 2.5l0.5 1t0.5 2q0 6 -4 7.5t-9 2t-9.5 1.5t-4.5 6v2t2 2h5q5 0 10.5 -1.5t10.5 -1.5q2 0 4.5 6t6 15.5t7.5 20.5t7.5 20.5t7 15.5t5.5 6
q4 0 5 -3.5t1 -5.5q0 -3 -2 -7t-4 -8.5t-4.5 -8.5t-3.5 -6q-4 -11 -8 -21.5t-8 -20.5q2 -4 5.5 -5.5t7.5 -2.5t7 -2.5t3 -6.5v-31q0 -1 -0.5 -2.5l-0.5 -1.5l-0.5 -0.5t-0.5 -1.5q0 -3 2 -4.5t4 -2t4 -1.5t2 -4q0 -2 -0.5 -3t-2.5 -1h-16q-1 0 -2 -2t-1.5 -4.5t-0.5 -4.5v-4
v-2.5v-1.5l2 -1h2.5h4.5h5h3q3 0 4.5 -1t1.5 -4t-1.5 -4t-4.5 -1h-28q-2 0 -2.5 -1t-0.5 -2v-1.5v-1.5q13 -1 19.5 -7t6.5 -20q0 -3 -1.5 -5.5t-5.5 -2.5t-5.5 3t-1.5 6.5t0.5 7.5t0.5 6q0 3 -3 3.5t-5 0.5q-1 0 -3 -0.5t-2 -2.5v-35q0 -2 -2 -3t-3 -1q-2 0 -3 0.5t-1 2.5
v35l-0.5 0.5t-1.5 0.5l-4 2t-4 1q-3 0 -3 -3.5t-0.5 -7.5t-1.5 -7t-5 -3q-3 0 -3 3t0.5 5.5t0.5 4.5t0.5 4t-0.5 5q5 2 10.5 4t9.5 5l0.5 1.5l0.5 1.5q0 4 -1.5 4.5t-5.5 0.5h-28l-0.5 -0.5l-0.5 -0.5q-1 -1 -1.5 -2.5l-0.5 -1.5q0 -1 1 -2.5t1 -2.5v-2v-8t-1 -9.5
t-3.5 -7.5t-7.5 -3q0 6 1 11t1 10v6t-1 8.5t-2.5 7.5t-3.5 3h-1.5t-1.5 -2v-12q0 -10 1 -19.5t1 -19.5v-2q0 -1 -0.5 -2.5t-0.5 -3t-0.5 -3t-0.5 -2.5q0 -2 -2 -2h-3q-3 0 -6 1.5t-3 5.5q0 3 1.5 6.5t1.5 6.5t-0.5 6t-0.5 5v2.5t1 2.5v2v4v4v2t0.5 4.5t0 7t-1.5 6t-4 2.5
t-4 -4t-1 -6q0 -6 1 -12t1 -12v-4q0 -3 -1 -3l-2 -3h-13q0 11 1 22l2 22q0 1 0.5 3l0.5 2q2 4 5.5 5.5t7 2.5t6 2t2.5 4v2v2.5t-0.5 3t-0.5 3.5v2q-6 1 -10 3.5t-6 6.5t-3.5 9t-1.5 11l-0.5 2.5t-1.5 2.5q1 2 1 7.5t0.5 12t0.5 12v8.5v30v3.5t1 5t2 4.5t3 2l1 -1q1 0 2 -1
l1 -1v-85l1 -1.5t1.5 -4t1.5 -5t1.5 -4.5t1.5 -3t3 -1h1q0 1 0.5 4t0.5 6v5.5v3.5v41v39q-1 5 -1 9v8zM156 136v0q0 -1 0.5 -2l0.5 -1q1 -1 3.5 -1t5 -0.5t4.5 -1t3 -0.5h1q3 0 3.5 3t0.5 6q0 7 -3.5 8t-10.5 1q-1 0 -2.5 -1t-3 -3t-2 -4t-0.5 -4zM146 87q0 -2 0.5 -4.5
t1 -4t2.5 -3t4 -1.5t6 0.5t4 3.5l5 18l9 10l0.5 0.5t0.5 1.5q0 3 -1 6l-2 6q-4 1 -7 2t-7 1q-3 0 -5 -0.5t-3 -2t-1.5 -3t-0.5 -4.5q0 -1 -1 -3.5t-2 -6t-2 -6.5l-1 -3v-3.5v-3.5zM97 93q0 -3 1.5 -4.5l3 -3t3.5 -3t3 -3.5q1 0 2 -1l1 -1h24q1 0 1 1v2q0 8 -2.5 11.5t-6 5.5
t-8 3.5t-8.5 7.5h-2q-6 0 -9 -5t-3 -10z" />
</svg>
