<?xml version="1.0" standalone="no"?>
<!DOCTYPE svg PUBLIC "-//W3C//DTD SVG 1.1//EN" "http://www.w3.org/Graphics/SVG/1.1/DTD/svg11.dtd" >
<svg xmlns="http://www.w3.org/2000/svg" xmlns:xlink="http://www.w3.org/1999/xlink" version="1.1" viewBox="-10 0 266 256">
   <path fill="currentColor"
d="M157 246q0 3 0.5 4t3.5 1q2 0 4 -2t2 -5v-4.5v-3.5q0 -21 -1.5 -42t-1.5 -41q0 -5 2.5 -6t6.5 -1t6.5 2t3 5.5t0.5 7t1 7.5q1 5 2 9t1 8v40q0 3 1 5t4 2q2 0 3 -3t1 -4v-19q0 -15 -1 -29.5t-5 -29.5q-2 -1 -2.5 -2.5t-1 -2.5t-1.5 -2t-4 -2q-1 0 -3 -0.5l-4 -1t-4 -0.5
h-3q-3 0 -3 -2.5v-4.5v-5q0 -2 2 -4q6 -1 11.5 -1.5t8.5 -3t5 -6.5t2 -13q0 -11 -5.5 -15t-15.5 -4q-7 0 -14 0.5t-13 3t-9.5 7.5t-3.5 15q0 7 4 10t8.5 4.5t8.5 2t4 2.5v14l-1.5 0.5t-1.5 1.5q-3 1 -5.5 1.5t-4.5 1t-3.5 2t-3.5 4.5q-1 3 -2 7t-2 9t-2 9.5t-2 8.5
q-1 11 -1 23v23q0 3 0.5 4t3.5 1h1h1q3 -4 4 -11.5t1.5 -17t0.5 -20t1 -18.5t4 -13.5t9 -5.5h1q1 0 2 1q0 7 0.5 12.5t0.5 10v9.5v11q0 14 -0.5 28t-0.5 28zM78 242q0 2 0.5 4t3.5 2t5.5 -4t2.5 -8v-111q0 -1 1.5 -1.5l1.5 -0.5q2 0 3.5 2t2.5 4t1 4t1 3q0 3 0.5 8.5t0.5 12
t0.5 14.5t1 14.5t1 12t0.5 8.5v4v6v7v4l1.5 1t1.5 2h1q1 0 2 -2t2 -3v-11v-11l-0.5 -2t-0.5 -4t-0.5 -3.5l-0.5 -1.5v-19q0 -9 -0.5 -18.5t-2.5 -18.5t-6 -17q-1 -4 -3.5 -5t-4.5 -2t-3 -3.5t-1 -7.5t1.5 -7t4.5 -3.5t6 -2.5t6 -4q3 -9 4 -18.5t1 -17.5v-1q0 -2 -1 -5.5
t-1 -4.5l-0.5 -0.5l-0.5 -0.5q-1 0 -2.5 0.5t-2.5 0.5q0 4 0.5 11t-0.5 14.5t-3.5 13t-7.5 5.5q-2 0 -3 -1t-1 -4v-58l-2 -1.5l-2 -1.5h-1q-2 0 -4 2.5t-2 4.5q0 12 1.5 25t1.5 26q0 2 -1.5 5t-4.5 3t-4.5 -3.5t-2 -8t-0.5 -10v-10.5t-1 -8.5t-4 -3.5t-4.5 3.5t-1.5 6.5
q0 4 0.5 9t1 9.5t1 8.5t0.5 6q1 1 2.5 3t2.5 2q1 2 3.5 2.5l5 1t4.5 1t2 2.5v5v7t-2 6q-5 2 -8.5 5t-5.5 6t-4 7.5t-3 9.5q0 9 -1 19.5t-1.5 21.5l-1 22t-0.5 21v3.5t0.5 3t1.5 2.5t2 1q2 0 3.5 -1.5t2.5 -3.5v-29q1 -3 1.5 -12t1 -19t1.5 -18.5t1 -12.5l0.5 -3t1.5 -5.5
t3 -5t3 -2.5q2 0 3 2.5t1 4.5v33q0 21 -1.5 41t-1.5 41zM142 102q0 -6 3.5 -9.5t8.5 -5t10.5 -2t9.5 -0.5q3 0 5.5 2t2.5 6q0 3 -0.5 7.5t-0.5 5.5l-3 3h-2t-5 0.5t-6 0.5h-5q-1 0 -2 0.5t-2 0.5q-2 0 -4.5 -0.5t-4.5 -1.5t-3.5 -2.5t-1.5 -4.5zM161 45q5 0 10 2.5t10 6
t9 7.5l7 7h0.5h0.5q2 0 3 -2.5t1 -4.5q0 -3 -2 -5.5t-5 -4t-6 -2.5t-5 -2q-1 -1 -3.5 -2t-5 -2.5l-5 -3t-3.5 -2.5q-2 -1 -1.5 -5.5t0.5 -8.5t-0.5 -7.5t-4.5 -3.5h-1q-2 1 -3.5 2.5t-1.5 2.5v19q0 4 -5.5 7t-12.5 6t-12.5 6t-5.5 7v0.5v0.5l1 0.5t2 0.5v0h1q1 0 2.5 -0.5
t2.5 -0.5q2 -1 6 -3.5t9 -5.5t9 -5.5t6 -3.5h3z" />
</svg>
