<?xml version="1.0" standalone="no"?>
<!DOCTYPE svg PUBLIC "-//W3C//DTD SVG 1.1//EN" "http://www.w3.org/Graphics/SVG/1.1/DTD/svg11.dtd" >
<svg xmlns="http://www.w3.org/2000/svg" xmlns:xlink="http://www.w3.org/1999/xlink" version="1.1" viewBox="-10 0 266 256">
   <path fill="currentColor"
d="M72 250q0 2 1 2.5t2 0.5t2 -1.5t2 -3.5t1.5 -4t0.5 -3v-104q0 -1 0.5 -2.5t0.5 -3.5t1 -4t1 -4h1q3 0 5.5 2.5t4 5.5t2 6.5t1.5 5.5v7.5t0.5 11l1 13t0.5 12.5t0.5 11t0.5 7v1q0 4 -1 7.5t-1 7.5q4 0 6 -4t2 -8v-3q0 -2 -0.5 -8t-1 -13.5t-1 -15.5t-1 -15t-1 -13t-0.5 -9
q-1 -6 -4 -9t-6.5 -4.5t-6 -2t-2.5 -1.5v-1q0 -1 0.5 -4t0.5 -6v-6v-4l2 -1q1 0 3 -1t4 -1.5t4 -0.5t2 -1q4 -2 6.5 -8.5t3 -14.5t0.5 -15.5v-10.5v-2.5t-0.5 -2.5t-1.5 -2t-3 -1l-2 2t-1 2q0 9 -0.5 19t-1.5 20q-1 3 -4 5.5t-6 2.5h-2.5t-2.5 -1v-21q0 -10 1.5 -20t1.5 -20
q0 -2 -1.5 -5t-4.5 -3h-1v0q-1 0 -2 1t-1 2t-0.5 3t-0.5 4t-0.5 4l-0.5 2v11v16.5t0.5 16t0.5 11.5h-4h-4.5t-4.5 -1t-3 -3l-3 -43q0 -1 -1 -1h-2h-1.5t-1.5 1v43q0 5 2 8t5.5 4t7.5 1.5t7 0.5q2 2 2 3.5v3.5q0 6 -2.5 9.5t-5.5 6t-6 5.5t-5 8q-5 10 -6.5 21t-2 22t0 22.5
t0.5 20.5v3.5t3 1.5h2t1 -1q3 -18 3.5 -36t2.5 -36q1 -2 1.5 -5.5t1.5 -7t2.5 -6t4.5 -2.5h2t1 2v40q0 19 -0.5 37.5t-0.5 37.5v6zM200 231q1 2 2.5 2h2.5q3 0 4 -2.5t1 -6.5v-10v-16.5v-16.5v-11v-14v-18v-15v-8v-5.5t-0.5 -9.5t-0.5 -10v-7t-1 -6.5t-2 -10t-3.5 -9.5
t-5.5 -5l-19 -5l-5 -5v-19q0 -1 -1 -2q-1 0 -3.5 -1.5t-3.5 -1.5h-1v0q-1 0 -1.5 1.5l-0.5 1.5v26l-2 2q-1 0 -3.5 0.5t-6 1t-6 1t-3.5 0.5l-1.5 0.5t-1.5 1.5q-6 5 -9 13.5t-3.5 18t-0.5 18.5v16l-4 54t-9 52l0.5 0.5l1.5 1.5v0q2 0 3.5 -1.5t2.5 -3.5l2 -4t1 -3
q1 -4 2 -10.5l2 -13l2 -13t1 -11.5q0 -4 -0.5 -7.5t-0.5 -7.5q0 -5 0.5 -9t1.5 -7l2.5 -2.5t3.5 -2.5t3.5 -2t2.5 -1q3 -4 6 -8.5t5.5 -9.5t3.5 -10.5t1 -10.5q0 -6 -1 -13t-1 -14v-3v-3q1 0 2.5 -0.5t3.5 -1t3.5 -1l1.5 -0.5h2q3 0 5 1t2 4q0 7 -2 14t-2 14q0 8 2.5 16
t6.5 14.5t9 12.5t11 11v4v4.5v5.5v3q0 14 -1 29t-1 29v15zM133 213q1 0 3.5 0.5t5.5 0.5t5.5 0.5t3.5 0.5v0h9.5t14 -1t13 -2t5.5 -3v-0.5v-0.5q-1 -1 -4.5 -1.5t-7 -0.5t-6.5 -0.5t-3 -2.5l-2 -44q0 -4 3 -5t7 -1h7.5t3.5 -3v-2.5t-2 -0.5h-8h-9h-9t-9 0.5t-11 0.5
q-1 0 -1.5 0.5t-0.5 1.5v0v0v1v0q0 1 1 2l1 1h17q1 0 1.5 2.5t0.5 4.5v8v7.5t-0.5 13t-1.5 12t-3 5.5h-21l-1 2t-2 3v0v1v0zM133 118q0 -13 2 -26.5t5 -26.5q1 -7 7 -7h1h1q2 6 2 10.5v9.5q0 2 -0.5 9.5t-2 15t-4 13.5t-7.5 6q-3 0 -3.5 -1t-0.5 -3zM183 94v-2v-4v-4v-2v-4
v-4v-4v-2v-1.5t0.5 -3t1.5 -2.5t2 -1q3 0 5 1.5t3.5 4t2.5 5.5t1 5q0 1 0.5 4t1 7t1 7.5t0.5 6.5v0v1v4.5t-0.5 5l-1 5t-0.5 3.5t-1 1.5t-2 0.5v0q-2 0 -4 -3.5t-4 -8t-3.5 -9.5t-2.5 -7z" />
</svg>
