<?xml version="1.0" standalone="no"?>
<!DOCTYPE svg PUBLIC "-//W3C//DTD SVG 1.1//EN" "http://www.w3.org/Graphics/SVG/1.1/DTD/svg11.dtd" >
<svg xmlns="http://www.w3.org/2000/svg" xmlns:xlink="http://www.w3.org/1999/xlink" version="1.1" viewBox="-10 0 266 256">
   <path fill="currentColor"
d="M78 244q0 4 0.5 5t3.5 1t5 -1.5t2 -5.5v-123q0 -1 1 -1h2q3 0 5.5 5.5t4 15t2 20.5t1 21t0.5 18v11q0 5 -1 10t-1 10q0 3 1 3.5t4 0.5q2 0 3 -3l2 -6v-16q0 -23 -1 -45t-4 -44q-2 -4 -5.5 -6t-6.5 -3.5t-5 -4t-2 -8.5q0 -3 1.5 -5t3.5 -3t5 -1.5t5.5 -2t4.5 -4.5t2 -8
q0 -1 0.5 -5t1 -9l1 -10t0.5 -7v-2v-2q0 -1 -0.5 -2l-0.5 -1h-8v11t-1 15.5t-4 14t-9 6.5q-2 0 -2.5 -2l-1 -4t-0.5 -4v-4q0 -3 0.5 -5l1.5 -6v-41q0 -2 -1.5 -3.5t-3.5 -1.5q-4 0 -5 3v54v3t-0.5 4t-0.5 3.5v1.5h-12q-2 0 -3 -3t-1.5 -8t-0.5 -10.5t-0.5 -10t-2 -7.5
t-5.5 -3q-2 0 -3 1t-2 3v6q0 8 1.5 16.5t3.5 17.5l1 0.5l1 0.5q1 2 3.5 4l2.5 2h18v15q0 1 -2.5 3t-6 4.5t-7 5.5t-3.5 6q-4 12 -5.5 24t-2 24t0 24t0.5 24q-2 4 -2 7t1.5 4t3.5 3h1v0q3 0 4 -8.5t1 -21.5v-28t1.5 -27.5t4.5 -21t10 -8.5h1q2 4 2 9v9q0 27 -1.5 54t-1.5 53z
M150 66q-1 3 -3.5 4t-5 1.5t-5.5 1.5t-4 4q-3 8 -4 19.5t-1 24.5t0.5 25.5t-0.5 20.5l-2 40t-1 40q2 0 4.5 -1t3.5 -3q0 -1 0.5 -4t0.5 -6t0.5 -5.5t0.5 -3.5v-30q1 -19 1.5 -37.5t1.5 -37.5v-10t1 -13.5t3 -12t6 -6.5l40 -5q4 0 6.5 -2t4 -5t2 -7t0.5 -7v-6q0 -1 -1 -2
t-2 -2.5t-2 -2.5t-2 -1h-50l-2 0.5l-4 1t-3.5 2t-1.5 3.5t1.5 2h3.5q10 0 20.5 -1t21.5 -1h5q3 0 3 1l2 1v3v3t-0.5 3.5t-1.5 5t-2.5 4t-4.5 1.5h-30zM145 174v27q0 3 0.5 6.5t2 6.5t4 5.5t6.5 2.5h24q3 0 5.5 -2t4 -4.5t2.5 -5.5t1 -6v-61q0 -2 -2 -2h-2q-3 0 -4 3.5
t-1 8.5v10.5t-2 8.5h-4q-4 0 -5.5 -1.5t-1.5 -5.5v-3v-8.5t0.5 -12t0.5 -12v-7.5q0 -4 2 -5.5t5.5 -2t8.5 -0.5q4 0 7.5 -0.5t6.5 -2t3 -4.5q0 -2 -0.5 -3t-3.5 -1q-1 0 -2.5 0.5t-3.5 0.5t-3.5 0.5l-1.5 0.5h-3q-3 0 -5.5 -0.5t-4.5 -0.5h-3v-21q0 -3 -2 -3h-3t-3 1t-2 3
v19l-0.5 1l-0.5 1q-2 1 -6 1.5l-8 1t-6.5 1.5t-2.5 3q0 4 3.5 4.5t5.5 0.5t4.5 -1t5.5 -1v0l2 2l2 2v6q0 12 -1.5 23t-0.5 22q-1 3 -2.5 3.5t-3.5 0.5q-5 0 -5 -7q0 -2 -0.5 -5t-0.5 -7q0 -3 0.5 -6t0.5 -5l-2 -1h-1h-1l-1 1.5t-2 1.5v28zM151 196q0 -1 0.5 -3t1 -4.5
t1 -4.5t1.5 -2h29q1 0 2 3t1 4q0 14 -6.5 19t-19.5 5q-3 0 -4.5 -1.5t-3 -4.5t-2 -6t-0.5 -5z" />
</svg>
