<?xml version="1.0" standalone="no"?>
<!DOCTYPE svg PUBLIC "-//W3C//DTD SVG 1.1//EN" "http://www.w3.org/Graphics/SVG/1.1/DTD/svg11.dtd" >
<svg xmlns="http://www.w3.org/2000/svg" xmlns:xlink="http://www.w3.org/1999/xlink" version="1.1" viewBox="-10 0 266 256">
   <path fill="currentColor"
d="M184 176q1 3 2 10t2 15t2.5 17t3 16t3.5 12t4 5q4 0 5.5 -2t1.5 -6q0 -9 -2 -17.5t-4.5 -17t-4.5 -17.5t-2 -18q0 -3 1 -5l2 -4t2.5 -4t2.5 -5q3 -7 4 -14.5t1 -15.5q0 -13 -7 -18t-18 -5q-1 0 -3.5 -0.5t-4.5 0t-4 1.5t-2 3t0.5 3t3.5 1q1 0 3.5 0.5t5.5 1t6 0.5h4
q5 3 5.5 7.5t0.5 9.5v6t-1 8t-2.5 7t-3.5 3h-1v0q-2 -2 -3 -4.5t-3 -4.5t-4.5 -3t-5.5 -1h-4t-3.5 1t-2.5 2t-1 3v0.5v0.5l0.5 1t1.5 1h12q1 0 2 1.5t1 3.5t0.5 3.5t0.5 2.5q0 3 -3 5t-7.5 3t-9.5 1.5t-9 1t-7 1.5t-3 4v0q0 1 0.5 1.5t1.5 0.5h13q7 0 12.5 -1t10.5 -1h2h2z
M123 164v24v8t0.5 13.5t0.5 13.5t1 8q0 1 -0.5 3.5t-0.5 5.5t1 5.5t3 2.5q1 0 2.5 -0.5t1.5 -1.5v-94q0 -4 2 -5.5t5 -2l6 -1t5 -0.5q1 0 1.5 -0.5l0.5 -0.5v-4v-4h-18l-0.5 -1.5t-1.5 -2.5v-3.5v-5.5v-3v-3l4 -3h3.5t5 -0.5l5 -1t3.5 -0.5q4 0 4.5 -0.5t0.5 -2.5t-0.5 -4.5
t-2.5 -2.5h-20q0 -1 -0.5 -4t-0.5 -4q2 -6 6.5 -10t9.5 -7.5t9 -8.5t4 -13q0 -4 -1 -8.5t-1 -8.5q-4 -4 -7.5 -4.5t-8.5 -0.5h-5.5h-6.5t-6 1.5t-4 3.5q1 2 3.5 3.5t4.5 1.5l3 -1l3 -1h6q12 0 12 13q0 5 -2.5 8.5t-6.5 6.5t-8.5 6t-6.5 6q-5 6 -6.5 15.5t-1.5 16.5
q0 4 1 7.5t1 7.5t-0.5 7t-1.5 7v24zM72 234q0 2 0.5 5.5t4.5 3.5q2 0 4 -3.5t2 -5.5v-51q0 -1 0.5 -3.5t0.5 -3.5v0q0 -4 -0.5 -7t-0.5 -6v-9.5v-13t2 -12t5 -5.5t4.5 4.5t2.5 10.5t1.5 11.5t0.5 7.5t0.5 5.5t0.5 7.5t0.5 7.5l0.5 3.5v43q0 2 1.5 2h2.5t3 -0.5t1 -4.5v-3
v-5.5v-5.5v-3v-5v-5.5v-4.5v-3q0 -3 -0.5 -11t-1.5 -17t-1.5 -17t-0.5 -11q0 -4 -3 -7t-7 -5t-7.5 -3l-3.5 -1v-18q0 -1 3.5 -3t7.5 -4.5t7.5 -7t4.5 -10.5v-4t0.5 -7.5t1 -9.5t0.5 -7v-2q0 -3 -1 -5.5t-4 -2.5t-4 3.5t-1 9v12t-0.5 12t-2.5 9t-7 3.5h-2q-2 0 -3 -1v-13
q0 -10 1 -20t1 -20v-13q-1 -2 -2 -3t-3 -1q-6 0 -6 7v64q-1 0 -3.5 0.5t-3.5 -0.5q-3 0 -4.5 -4t-1.5 -9t0.5 -11t-0.5 -11t-3.5 -8.5t-8.5 -3.5v12t0.5 12t1.5 12t4 11q0 2 3.5 4t7 3.5t6 2.5t2.5 2v21q0 1 -1.5 1.5l-1.5 0.5q-5 2 -8 3.5t-5.5 4t-4.5 5.5t-3 9
q-1 17 -3 35t-2 36v3v4.5v5.5v3l3 1.5t2 0.5q3 0 4 -7.5t1.5 -18.5t1 -24t1.5 -24t3.5 -18.5t7.5 -7.5q3 0 4 3t1 7v7.5v5.5q0 21 -1.5 41.5t-1.5 41.5zM168 76q0 2 1.5 3.5t4.5 1.5q4 0 9.5 -0.5t10.5 -2t9 -4.5t6 -8q0 -1 0.5 -5t0.5 -5q0 -7 -1 -11t-3 -7t-6.5 -4
t-11.5 -1h-3t-4.5 0.5t-4.5 1.5t-2 3q0 3 4 3h8t8 0.5t4 2.5v18q0 5 -4.5 6.5t-10.5 2t-10.5 1.5t-4.5 4z" />
</svg>
