<?xml version="1.0" standalone="no"?>
<!DOCTYPE svg PUBLIC "-//W3C//DTD SVG 1.1//EN" "http://www.w3.org/Graphics/SVG/1.1/DTD/svg11.dtd" >
<svg xmlns="http://www.w3.org/2000/svg" xmlns:xlink="http://www.w3.org/1999/xlink" version="1.1" viewBox="-10 0 266 256">
   <path fill="currentColor"
d="M180 146v57q0 3 1.5 11l3 16t4 14.5t4.5 6.5q4 0 5.5 -2.5t1.5 -6.5q0 -6 -3 -12q-4 -14 -7 -27.5t-3 -27.5v-3.5t2 -2.5q3 0 4.5 2.5t3.5 5t4.5 5t7.5 2.5q0 -5 -2 -10t-4.5 -9t-6 -8t-6.5 -8v-2q0 -5 2 -10.5t4 -11.5t4 -11.5t2 -10.5q0 -2 -1.5 -3.5t-3.5 -1.5t-3 0.5
t-2 2.5q0 1 -0.5 3.5t-1 4.5t-1 4.5t-0.5 3.5l-2 4t-4 2h-1q-2 -13 -5 -25t-3 -26q0 -2 1.5 -4t3.5 -2h19q3 0 3.5 -2.5t0.5 -3.5q0 -3 -1 -4t-4 -1q-4 0 -7.5 1t-7.5 1h-4.5h-3.5t-1 -2v-3q0 -5 3.5 -6t7.5 -1.5t7.5 -2t3.5 -5.5v-21l-0.5 -0.5l-0.5 -0.5q-1 -1 -4 -1h-4
v19q0 1 -1.5 2t-3.5 2t-3.5 1.5t-1.5 -0.5l-2 -3v-22q0 -1 -2.5 -1.5t-3.5 -0.5t-3 0.5t-2 3.5v44l-2 2h-1.5t-3.5 0.5t-4 0.5h-4q-4 1 -8.5 1.5t-8.5 0.5h-4t-3 -3v-23q0 -1 -1 -3t-3 -2t-4 1.5t-2 3.5v2q0 1 0.5 2.5t0.5 3.5t0.5 3.5t0.5 2.5v8v13v13v9v50.5t-3 50.5
q-1 5 -2 10.5l-2 11l-2 11t-1 10.5q3 0 4.5 -1.5t3 -3.5t2.5 -4.5t2 -4.5q0 -12 2 -23.5t2 -23.5q2 -26 2 -52t2 -52q8 -1 16.5 -3t17.5 -2q3 0 5 4t2.5 9t1 10.5t0.5 8.5l6 22t5 23zM66 235v3v3.5v2.5v2l3 3q3 -2 4.5 -5t2.5 -7q-1 -26 -0.5 -52.5t1.5 -52.5q0 -1 1 -4
t3 -3t3.5 3t3 8t2.5 11t1.5 11t1 9.5t0.5 5.5v15q1 2 1 7t0.5 10.5t0.5 11v7.5h1h1q3 0 4 -3t1.5 -6.5t0.5 -6.5v-5v-1v-2.5t-0.5 -3t-0.5 -3v-2.5q-1 -8 -1.5 -17t-1.5 -17.5t-2.5 -17t-4.5 -16.5q-1 -2 -3 -3.5t-4.5 -2.5t-4 -2.5t-1.5 -3.5v-15l0.5 -0.5t1.5 -0.5
q0 -1 1.5 -1t3.5 -0.5t3.5 -0.5h2.5l3 -5l0.5 -4.5t1 -9.5t1 -11t0.5 -9q0 -1 0.5 -3.5t0.5 -5.5v-5v-4q-3 0 -4.5 1.5t-2.5 4.5q0 5 0.5 11t0 11.5t-2 11.5t-4.5 10h-2h-1q-2 0 -4 -1t-2 -3q0 -15 1 -29t1 -28v-9q0 -1 -1.5 -1.5t-2.5 -0.5q-3 0 -4.5 1t-2.5 5v10
q0 9 0.5 18t0.5 18v13q0 4 -1 5.5t-5 1.5q-2 0 -4.5 -1t-2.5 -4v-43h-3h-3.5t-3 1t-1.5 3q0 4 0.5 10.5t0.5 14t1 14t3 8.5q2 5 5.5 5h7t5.5 2t2 10q0 5 -3.5 8t-7.5 6t-8 8.5t-4 15.5q0 2 -0.5 7.5t-0.5 13t-0.5 16t-1 16t-0.5 13v7.5v2q0 2 0.5 5t3.5 3q2 0 3.5 -3.5
t1.5 -5.5v-10v-16v-15.5v-10.5t0.5 -9.5t2 -13t4 -11.5t6.5 -5h2v3t0.5 4.5t0.5 4.5v3v3v3.5t-1 3.5v58q-2 6 -2 12.5v12.5zM132 138v4l1 3t1 4q0 8 -0.5 16t1 15t5.5 12t14 5q6 0 9.5 -3.5t4.5 -10.5q0 -3 0.5 -8.5t0.5 -12v-11.5v-7v-2.5v-3.5t-0.5 -3.5t-0.5 -2.5
l-1.5 -3t-1.5 -1q-4 0 -4.5 3t-0.5 7v7q0 4 -2 4l-13 3q-2 1 -2.5 -3t-0.5 -8.5t-1 -8t-4 -2.5q-4 2 -4.5 3.5t-0.5 4.5zM142 169v-7q2 -3 6 -3h4h4t3.5 1t1.5 2v8v6t-1 5.5t-3 3.5t-5 1q-4 0 -6 -1.5t-3 -3.5t-1 -5.5v-6.5zM131 106q0 1 1 1.5t2.5 1t2.5 1t2 0.5l2.5 -0.5
t5.5 -1l6 -1t5 -0.5l1.5 -0.5t2.5 -1t2 -1.5t0 -3q0 -3 -1.5 -3h-3.5h-3q-1 0 -4.5 1t-7 1.5t-7 1.5t-5.5 1l-0.5 1l-0.5 1v1z" />
</svg>
