<?xml version="1.0" standalone="no"?>
<!DOCTYPE svg PUBLIC "-//W3C//DTD SVG 1.1//EN" "http://www.w3.org/Graphics/SVG/1.1/DTD/svg11.dtd" >
<svg xmlns="http://www.w3.org/2000/svg" xmlns:xlink="http://www.w3.org/1999/xlink" version="1.1" viewBox="-10 0 266 256">
   <path fill="currentColor"
d="M81 249l0.5 1t1.5 1q2 0 3.5 -2t3 -4.5t2 -5t1.5 -3.5v-23q0 -16 -1 -31t-1 -30v-14q0 -1 0.5 -2t1.5 -2v0q4 0 6 5.5t2.5 12l1 13t1.5 8.5q0 1 0.5 3t1 4.5t1 4.5t0.5 3t0.5 4t0.5 7t0.5 7.5t0.5 5.5v3v5v5v3l0.5 1l0.5 1q3 0 4.5 -1.5t2.5 -3t1 -4v-4.5v-7
q0 -3 -0.5 -11t-1.5 -17.5t-1.5 -18t-1.5 -11.5q0 -1 -1 -3.5t-2 -5.5l-2 -6t-1 -4q-2 -5 -6.5 -7t-9.5 -4q-2 -2 -2 -5.5v-5.5q0 -6 1.5 -8t4 -3t5.5 -1.5t7 -4.5q3 -3 5 -10t3 -14.5t1 -15v-11.5q0 -3 -2 -4t-5 -1q-4 0 -5 3.5t-1 9t0.5 12t0 12t-2.5 9.5t-7 4
q-4 0 -4.5 -3t-0.5 -8q0 -12 1 -24t1 -24v-3v-4v-4v-3l-0.5 -1t-1.5 -1v0q-4 0 -6.5 3.5t-2.5 6.5v63l-1.5 1.5t-2.5 1.5v0q-5 0 -6.5 -3.5t-1.5 -9t0.5 -12t0 -12.5t-2.5 -9.5t-7 -3.5q-2 0 -3.5 1.5t-1.5 4.5v9t1 15t2 14.5t4 9.5t6.5 4.5t6.5 3t5 4.5t2 9q0 5 -2 7.5
t-5.5 4l-7 3t-5.5 5.5q-3 5 -3 10t-1 10q-1 15 -3 30t-2 30v16q1 0 2 1.5t2 1.5h1q3 0 5.5 -3.5t2.5 -6.5v-61q0 -1 0.5 -3t1.5 -4q2 -4 2.5 -7.5t2.5 -9.5q0 -2 1.5 -2h2.5h2t2 2v3.5t0.5 5.5t0.5 6v4q0 4 0.5 11t0.5 16v19v19t-0.5 16.5t-0.5 10.5zM176 133h-12t-16 2
t-14 6t-6 11v42q0 2 0.5 7t2.5 10t4 9t6 5t7.5 2t6.5 1h6h8q3 0 9 -0.5t11.5 -2t9.5 -5t4 -8.5v-58q-3 -6 -4 -10.5t-3.5 -7t-6.5 -3t-13 -0.5zM137 189q0 -4 4 -6t7 -2q1 0 3 0.5t4.5 1t4.5 2t2 3.5v7t-0.5 10t-2.5 8.5t-6 3.5q-5 0 -8 -3t-5 -7.5t-2.5 -9.5t-0.5 -8z
M169 195q0 -9 4.5 -11.5t12.5 -2.5q5 0 6.5 2.5t1.5 6.5v3q-1 1 -1 3t-1 5t-1.5 5.5t-0.5 3.5q-2 4 -5.5 4.5t-7.5 0.5h-4q-2 -1 -2.5 -4l-1 -6t-0.5 -5v-5zM137 166q0 -4 0.5 -8t2 -7t4.5 -5t9 -2v0v0q1 0 2.5 1t2.5 1v4t0.5 6.5t1 6t0.5 4.5v1q0 2 -1.5 3t-3.5 1.5t-4 0.5
h-4h-3h-3q-4 -1 -4 -3v-4zM168 149q0 -2 2.5 -3.5t5 -2t5.5 -0.5h4q3 0 4.5 2t2 5t0.5 6v5v8q-2 3 -6 3h-6h-7q-3 -1 -3.5 -4t-1 -6.5t-0.5 -7.5v-5zM134 93q0 11 5.5 17.5t16.5 6.5h2q2 -1 6 -1t8.5 -0.5t8 -1t4.5 -0.5q5 -1 7.5 -4t4 -7t1.5 -8.5v-8.5q0 -9 -6 -12.5
t-14 -3.5q-6 0 -13.5 1t-14.5 3t-11.5 6.5t-4.5 12.5zM145 99q0 -6 2.5 -9.5t6.5 -5t9 -1.5h10h5h6q2 1 3.5 4t1.5 6q0 5 -4 7.5t-9 4t-10 1.5h-8q-4 0 -8.5 -1t-4.5 -6zM128 49v2.5t2 2.5h5q4 0 10.5 -0.5t14.5 -1l16 -1t14 -1t10.5 -1.5t4.5 -2v-8h-3h-3h-3.5h-1.5
q-4 1 -13 2t-19.5 1.5t-19.5 1.5t-12 2q-2 0 -2 1v2z" />
</svg>
