<?xml version="1.0" standalone="no"?>
<!DOCTYPE svg PUBLIC "-//W3C//DTD SVG 1.1//EN" "http://www.w3.org/Graphics/SVG/1.1/DTD/svg11.dtd" >
<svg xmlns="http://www.w3.org/2000/svg" xmlns:xlink="http://www.w3.org/1999/xlink" version="1.1" viewBox="-10 0 266 256">
   <path fill="currentColor"
d="M153 246l1 0.5t2 0.5h1v0q1 0 2.5 -1.5l1.5 -1.5v-21q0 -4 3.5 -7.5t8.5 -6.5t11 -6.5t11 -7t8.5 -7.5t3.5 -9q0 -11 -1.5 -20.5t-5.5 -16.5t-11.5 -11t-19.5 -4q-11 0 -19.5 6t-14.5 14.5t-9 19t-3 20.5q0 1 0.5 4t0.5 4t1 1h2q3 0 4.5 -2.5t2 -6t0.5 -7.5t0.5 -7.5
t1.5 -6t4 -2.5q4 0 6 4t3 8.5t3 8.5t5 4t3.5 -2t0.5 -4q0 -5 -2.5 -9t-5.5 -8l-6 -8t-3 -9q0 -3 3 -6.5t6 -3.5q2 -1 5 2t5.5 8t5 10.5t4.5 10.5t3.5 8.5t2.5 3.5q2 0 3 -1.5t1 -3.5v-1v-1l-8 -25l-9 -10v-6q9 0 15 2.5t9.5 7t4.5 11t1 16.5v12q-5 6 -10 9.5t-10 6t-9 5
t-7.5 6.5t-5 10t-1.5 15v11zM74 226v3.5t3 2.5q2 0 3 -1.5t2.5 -3t2 -3t0.5 -2.5q2 -27 2 -54q0 -28 1 -55v-5v-6.5t1 -5.5t4 -2t4 1.5l3 4.5q1 17 2 32.5t1 31.5q0 11 -1.5 21.5t-1.5 20.5l0.5 1.5l0.5 1.5h1q2 0 3.5 -1t3 -2.5t2.5 -3.5t2 -2v-22q0 -10 -1 -20.5t-2 -20.5
t-2 -20.5t0 -20.5q-4 -5 -9 -7t-11 -5v-4q0 -5 2.5 -7t5.5 -3t6.5 -2.5t5.5 -5.5q3 -7 4 -15t1 -16v-3t-0.5 -4t-1.5 -3.5t-3 -1.5t-3.5 1t-1.5 2q0 7 -0.5 16t-1.5 16q0 3 -2.5 4t-4.5 1h-1q0 -1 -1.5 -1.5l-1.5 -0.5v-37q0 -1 -0.5 -3t-1 -3.5t-2 -3t-3.5 -1.5t-3 2.5
t-1 6v6.5v5v1q0 1 0.5 2.5t0.5 2.5v24l-2.5 1.5t-3.5 1.5h-2h-1.5t-1.5 -1q-3 -4 -4 -8.5t-1.5 -9t0 -9t0.5 -9.5q-1 -2 -2 -3.5t-4 -1.5q-1 0 -2.5 0.5t-2.5 3.5v4v4q0 2 0.5 8.5t1.5 13.5t2.5 12t3.5 5h16q1 0 2 1t1.5 2.5t0.5 2.5v2q0 3 -2 5t-4.5 3l-5 2t-5.5 3.5
t-5 6.5t-3 11l-6 69q-2 6 -2.5 9.5t-0.5 8.5v4l1 1t2 1h1q3 0 5 -3.5t4 -6.5q0 -2 0.5 -8t0.5 -13t0.5 -13.5t0.5 -8.5q1 -2 1 -7.5t0.5 -11.5t1 -12.5t1.5 -11.5t3 -8.5t5 -3.5q2 0 3.5 1t2.5 3v11q0 4 0.5 8.5t-1.5 8.5q0 13 -0.5 25.5t-1.5 24.5t-2 24.5t-1 24.5z
M143 107h7t10.5 0.5t10.5 0.5h7h14h14l1.5 -1t1.5 -2t-1 -2t-2.5 -1.5l-3 -1l-1.5 -0.5h-6t-8 -0.5t-8 -0.5h-6q-3 -1 -4 -2.5t-1 -4.5q0 -5 3.5 -7t8 -3t9.5 -2.5t7 -4.5q1 -5 1.5 -9.5t0.5 -8.5q0 -3 -1.5 -4t-4.5 -1q-2 0 -3 0.5t-1 3.5l-0.5 2.5t-0.5 4.5t-0.5 4t-0.5 3
l-0.5 1l-0.5 1q-1 0 -4.5 0.5t-5.5 0.5v0h-1h-0.5h-0.5l-0.5 -0.5l-0.5 -0.5l-3 -31q-1 -1 -4.5 -2t-8 -1.5t-8.5 -2.5t-4 -6t2 -6.5t5.5 -3.5t7 -1.5t7.5 -0.5h5.5t7 0.5t5.5 2.5t2 6q0 2 -1 4l-2 4t-2 3.5t-1 3.5t1.5 3t3.5 1q4 0 6.5 -2.5t4.5 -6.5t2.5 -8t0.5 -7
q0 -2 -2 -4t-4.5 -3.5l-5 -3t-4.5 -1.5h-34q-1 0 -3 1.5t-3.5 3t-3.5 3t-2 2.5t-0.5 4t-0.5 4q0 6 2 9.5t4.5 5t5.5 2t5.5 1t4.5 1.5t3 5v2.5t0.5 6t0.5 6.5v4v4v4v5.5t-0.5 6.5t-0.5 5v2l-2 2h-13q-1 0 -1.5 -1.5t-1.5 -2.5t-1.5 -2.5l-0.5 -1.5v-29q0 -1 -2.5 -1.5
l-2.5 -0.5q-4 0 -5 3t-1 6v11q0 6 1 11t3.5 9t8.5 7z" />
</svg>
