<?xml version="1.0" standalone="no"?>
<!DOCTYPE svg PUBLIC "-//W3C//DTD SVG 1.1//EN" "http://www.w3.org/Graphics/SVG/1.1/DTD/svg11.dtd" >
<svg xmlns="http://www.w3.org/2000/svg" xmlns:xlink="http://www.w3.org/1999/xlink" version="1.1" viewBox="-10 0 266 256">
   <path fill="currentColor"
d="M187 170q0 7 -2.5 15t-7 15t-9.5 14t-9 13q-2 3 -5.5 5.5t-6.5 5t-5 5.5t-2 7q5 0 10.5 -2.5t10 -7t8 -10t6.5 -9.5q1 -2 3 -6.5t4.5 -9.5t4.5 -9.5t3 -5.5q0 -1 0.5 -2.5t1.5 -3t1 -3v-2.5v-30q0 -2 -3.5 -7.5t-6.5 -11.5l-5.5 -11t-2.5 -7v-1l1 -1t2 -1h23l3 -4
q-1 -3 -3 -4t-5 -1q-2 0 -5.5 0.5t-6.5 0.5t-6 1t-5 3h-48q-1 0 -1 2v2v2.5t1 1.5h35l0.5 1.5l0.5 1.5q-1 1 -3 2l-2 1q-7 5 -15 11.5t-16 11.5v4q6 0 11 -2.5t10 -6.5t9 -8l7 -7l2 -1h1q2 0 3.5 1t3 2.5t2.5 3t1 3.5q0 3 -3.5 6t-8 6t-9 5.5t-7.5 4.5l-2.5 2.5t-4 3.5
t-4.5 3.5t-3 2.5l-2.5 2.5t-0.5 2.5q0 1 0.5 2t1.5 1q3 0 9.5 -5t13.5 -10.5t14 -10.5t10 -5q4 0 5.5 3t1.5 6q0 5 -4 10t-9 9.5t-10.5 8t-9.5 6.5q-2 2 -6 5t-7.5 6.5l-6.5 6.5t-3 6q5 0 10.5 -3t11 -7.5t11 -10t9.5 -10t7 -7.5t5 -3q1 0 2 0.5t1 1.5zM83 119v41.5t-1 41.5
l-2 16t-1 16q4 0 6.5 -2.5t3.5 -6t1 -7.5v-8v-8t0.5 -13.5t0.5 -14v-7.5v-46q3 -5 9 -5h2q1 2 2 5.5t2 6.5t1.5 6t0.5 5v76q6 0 7 -3t1 -10v-3.5v-7.5v-9v-7v-15t-0.5 -13t-1 -13t-1.5 -15q-1 -1 -2.5 -3t-2.5 -3q0 -1 -0.5 -1.5l-0.5 -0.5q-2 -1 -5 -1.5t-5.5 -1.5t-4 -2.5
t-1.5 -4.5q0 -5 2.5 -6.5t6 -3t7.5 -3t6 -4.5q1 -2 2 -8l2 -12t1 -12v-9t-0.5 -5t-3.5 -5v0h-1q-1 0 -2 1.5l-1 1.5q0 3 -0.5 10.5t-1.5 16t-3 15t-6 6.5q-2 0 -3 -0.5t-2 -2.5v-21v-12v-10t0.5 -10.5t1.5 -11.5q1 -4 -1 -4.5t-4 -0.5h-2t-3 2q-1 17 -1 34t-2 34q1 2 0 2.5
t-3 0.5q-1 0 -2.5 -1t-2.5 -2.5l-2 -3t-1 -3.5v-35q0 -1 -2 -3t-4 -2q0 1 -1.5 2t-1.5 2v17v13.5t2 12.5q1 4 4 6t6.5 3.5t5.5 3.5t2 7v6q-5 2 -9 5t-8 7q-1 1 -2.5 7.5t-2.5 16t-2.5 20t-2.5 20t-1.5 16.5t-0.5 9q0 3 0.5 5t3.5 2q2 0 3 -0.5t2 -2.5q1 -10 2 -21.5
t1.5 -22.5t2 -22.5t4.5 -21.5q0 -1 2.5 -3.5t3.5 -2.5q0 -1 1.5 0t2.5 1zM137 66q0 6 1.5 11t3.5 8.5t6.5 5.5t11.5 2q4 0 8.5 -0.5t9 -2t8 -3.5t5.5 -6t2.5 -6.5l1 -5t0.5 -4.5v-6q0 -3 0.5 -7.5t0 -8.5t-2 -7t-4.5 -4q-2 -1 -4 -1.5t-4.5 -1.5t-4 -1.5l-1.5 -0.5h-2
q-1 0 -3 -0.5t-3 -0.5h-3t-5.5 0.5t-5.5 0.5q-6 2 -9 6.5t-4.5 10t-2 11.5t-0.5 11zM145 64h38q2 0 2.5 2t0.5 3q0 6 -2.5 9t-6 4t-7.5 1.5t-9 0.5q-10 0 -13 -5.5t-3 -14.5zM145 49q0 -1 1 -3t2 -3.5t2.5 -3t2.5 -1.5h31q1 0 1.5 1.5t1 3.5t0.5 3.5v1.5v3t-2 2
q-5 1 -8.5 1.5t-8.5 0.5h-5.5t-7.5 -0.5t-7 -1.5t-3 -4z" />
</svg>
