<?xml version="1.0" standalone="no"?>
<!DOCTYPE svg PUBLIC "-//W3C//DTD SVG 1.1//EN" "http://www.w3.org/Graphics/SVG/1.1/DTD/svg11.dtd" >
<svg xmlns="http://www.w3.org/2000/svg" xmlns:xlink="http://www.w3.org/1999/xlink" version="1.1" viewBox="-10 0 266 256">
   <path fill="currentColor"
d="M102 243q4 0 13.5 1t20 1.5t20 1t12.5 1.5h2h2q1 0 3.5 -0.5t6 -0.5t6 -0.5t3.5 -0.5q3 0 3 -2v-3q0 -2 -1.5 -3l-3 -2t-3.5 -1h-4q-8 0 -17 1t-17 1h-2h-2.5h-3.5h-1l-2.5 -1t-2.5 -2v-20q0 -2 5 -3t10.5 -2t10.5 -2t5 -3v-21q0 -1 -2 -2.5t-3 -2.5h-0.5h-0.5
q-3 0 -3.5 3.5t-1 8t-2.5 8t-8 3.5t-8 -2t-3 -5.5t-0.5 -7.5t1 -8.5t0 -8t-2.5 -5.5q-3 -2 -8.5 -3t-11.5 -1.5t-10.5 -1.5t-4.5 -3v-11l1 -0.5t2.5 -1l3 -1t3.5 -0.5q4 -1 7 -1.5t6 -0.5h6.5h8.5h3h7h5.5h4.5q4 1 6 3.5t2 6.5q0 6 -4 8.5t-8.5 3.5t-8.5 2t-4 5q0 2 2 2h3
q15 0 22.5 -5.5t7.5 -19.5q0 -7 -4.5 -10.5t-10.5 -4.5t-13 -0.5t-12 0.5h-7q-1 0 -5.5 0.5l-9 1l-9 1t-5.5 0.5q-3 2 -5 4t-2.5 3.5t-1 4t-0.5 5.5q0 8 2.5 11.5t7 5.5t10.5 2.5t14 0.5q3 10 3 21v20v4v5v5.5v3.5q-1 1 -1.5 2.5t-1.5 2.5h-9q-10 0 -15 -4t-7.5 -9.5t-3 -12
t-0.5 -12.5t-1 -9.5t-4 -3.5q-2 0 -3 1t-1.5 2t-0.5 2.5v2.5q0 9 0.5 17.5t1.5 15.5q3 8 9 13.5t15 5.5zM79 82q4 0 5.5 3t2 7.5t0 10t-0.5 10.5t0.5 8t4.5 3h1q1 -10 1.5 -20t0.5 -20q2 -1 3.5 -1.5t3.5 -0.5q3 0 4.5 2t1.5 5.5t-0.5 7t0 7t1.5 5.5t3 2h3.5t0.5 -3l0.5 -2
t0.5 -4v-4v-2q0 -8 -0.5 -12.5t-2 -7t-6 -3.5t-13.5 -2q-2 -2 -2 -3.5v-3.5q0 -3 2 -4.5t4.5 -2.5t6 -2.5t6.5 -4.5t5 -8t2 -14q0 -3 -1.5 -4t-5.5 -1h-4v3t-0.5 4.5t-0.5 5v2.5q-1 4 -2 5.5t-2 2t-3.5 0.5h-5.5v-31l-1 -1l-2 -2t-1.5 -2l-0.5 -1q-2 1 -4 3t-2 3v31
q0 1 -1 2t-2 1h-1q-5 0 -6.5 -3.5t-2 -8t-1.5 -8t-5 -3.5h-2t-2 2v4.5v4.5v7t2 7q1 0 2.5 1t3.5 1.5t3.5 1l1.5 0.5q1 1 3 1t4 0.5t3.5 1t1.5 1.5v12q0 1 -3 1.5t-6.5 1.5l-7 2t-4.5 3q-1 4 -1.5 7.5t-0.5 6.5v6v7v7l1 1.5t2 1.5h1q2 0 3.5 -1t2.5 -2q0 -1 -0.5 -4t-0.5 -7
q0 -3 0.5 -6t0.5 -5q0 -4 2 -6.5t6 -2.5zM154 85h1q2 1 4 2.5t2 2.5v31l1 0.5t2 0.5v0q3 0 4.5 -2.5t2.5 -5.5t1 -6v-4v-18q-1 -2 0.5 -2.5t3.5 -0.5q4 0 6 2.5t2.5 6t0.5 7.5v7.5t1 6t4 2.5q1 0 2 -0.5t1 -1.5t0.5 -4.5t0.5 -4.5q0 -12 -2 -18t-5 -8t-6 -2t-6 -0.5t-5 -2
t-2 -6.5q0 -3 2 -5t5 -3l6 -2t6 -3t5 -5t2 -9v-4.5t-0.5 -5.5t-2 -5t-4.5 -2v0q-1 0 -2.5 1.5l-1.5 1.5v17q0 3 -3 5.5t-6 2.5v0q-1 0 -3 -2l-3 -3q0 -1 0.5 -4.5t0.5 -6.5q0 -4 -0.5 -7.5t-0.5 -4.5v-3t-1 -4t-2 -3t-3 -1h-3t-2 2v10q0 6 1 11t1 10q0 1 -0.5 3t-0.5 3
l-1 0.5t-2 1.5h-1q-4 0 -6.5 -3.5t-3.5 -7.5t-1 -8.5t1 -7.5l-2 -2h-1h-1q-1 1 -3 1.5l-2 0.5v22l5 9l15 3q3 1 4.5 4t1.5 5q0 4 -2 6t-4.5 3t-6 2t-6 3t-4 6t-1.5 10q0 2 -0.5 5t0 5.5t2 4.5t4.5 2t3.5 -2.5t1 -5.5t0 -7.5t0 -8t2 -5.5t4.5 -2z" />
</svg>
