<?xml version="1.0" standalone="no"?>
<!DOCTYPE svg PUBLIC "-//W3C//DTD SVG 1.1//EN" "http://www.w3.org/Graphics/SVG/1.1/DTD/svg11.dtd" >
<svg xmlns="http://www.w3.org/2000/svg" xmlns:xlink="http://www.w3.org/1999/xlink" version="1.1" viewBox="-10 0 266 256">
   <path fill="currentColor"
d="M182 191q0 2 -0.5 7.5t0 12t1 13.5t1.5 13t2.5 10t3.5 4q4 0 4.5 -1.5t0.5 -5.5q0 -16 -3 -31.5t-3 -31.5v-5v-7t0.5 -7.5t0.5 -4.5q1 -3 3 -5q2 2 3 5t2.5 5.5l3 5t4.5 2.5h1l1.5 -0.5t1.5 -1v-2.5v-2v-3t-0.5 -1.5l-1.5 -1.5t-3 -4q0 -1 -2 -3.5t-3.5 -5.5t-3 -5.5
t-2.5 -2.5v-2q0 -5 1.5 -9t3.5 -8t3.5 -8t1.5 -9q0 -2 -0.5 -4t-3.5 -3q-3 1 -4 4t-2 6.5l-2 7t-4 5.5q-3 -2 -4 -5.5t-1.5 -7.5t-0.5 -8v-7q0 -1 -0.5 -3.5t-0.5 -6t-0.5 -6.5t-0.5 -5v-2q0 -1 1 -3t2 -3h16q4 0 5.5 -0.5t1.5 -4.5q0 -1 -0.5 -2.5t-3.5 -1.5h-22
q-1 0 -1 -2v-3q0 -3 3.5 -4t8 -2t8 -4.5t3.5 -11.5q0 -3 -0.5 -5.5t-3.5 -2.5h-3.5t-2.5 1v13q0 1 -1.5 1.5t-3.5 0.5h-1h-1h-2t-2 -0.5t-1 -1.5v-13q0 -2 -2 -2.5t-3 -0.5h-2.5t-1.5 2v33q0 1 -2.5 3t-3.5 2h-25q-3 1 -4.5 1h-3.5h-1h-1l-3 -20l-1 -0.5l-1 -0.5
q-1 0 -2.5 0.5t-1.5 1.5v10q0 7 0.5 14t0.5 14v7q0 6 -0.5 12.5t-1 13.5t-2.5 13t-4.5 9.5t-7.5 3.5q-2 0 -3 -3t-1.5 -7t-1.5 -8t-3 -6q-2 -1 -4 -3t-4.5 -4t-4 -4t-1.5 -5q0 -5 2.5 -6.5t6 -2.5t7.5 -2.5t6 -5.5q1 -3 2 -7.5t1 -9v-9v-7.5v-8q0 -2 -1 -2h-2h-2t-1 2
q0 1 -0.5 3.5t-0.5 5.5t-0.5 6t-0.5 4v6t-0.5 7.5t-2.5 6t-6 2.5q-2 0 -3 -0.5t-2 -2.5v-12q0 -12 1.5 -23.5t1.5 -22.5q0 -2 -0.5 -3t-2.5 -1h-2t-3.5 1t-2.5 1.5t-1 2.5v31l1 2l-1 25q-1 0 -2 0.5t-2 0.5q-4 0 -5.5 -3.5t-3.5 -6.5q0 -1 -0.5 -4.5t-0.5 -7.5t-0.5 -7.5
t-0.5 -4.5t-0.5 -4t-0.5 -4h-1h-1q-3 0 -3.5 1t-0.5 4q0 10 1 19t0 19l2 3l15 5q1 0 2 1.5t2 1.5v0v1q0 6 -2 9t-5 5.5t-6.5 4.5t-5.5 7q-4 7 -6 17.5t-2.5 21.5l-1 22t-1.5 19v0v1q0 1 0.5 3.5t0.5 3.5v0q0 3 -0.5 5.5t-0.5 4.5q0 4 4 4v0q1 -1 2.5 -2l1.5 -1
q0 -12 0.5 -23.5t1.5 -22.5t2.5 -22t4.5 -23q1 -1 1.5 -3t2 -3.5l3 -3t2.5 -1.5t1.5 0.5t0.5 1.5v50q0 1 -1 3.5t-1 3.5v1q0 3 1 6t1 6q0 11 -1 20.5t-1 20.5q-3 2 -3 5.5v6.5v3.5v3.5q1 1 1.5 1h1.5q2 0 3.5 -1t2.5 -3t1.5 -4t0.5 -3v-6v-10v-10.5v-6.5q0 -1 0.5 -4t1.5 -4
v-75q0 -1 1 -3.5t3 -2.5t4 3t3 7.5l2 9t1 6.5q0 1 0.5 4.5t0.5 7.5t0.5 8t0.5 6v11q0 9 -1 18.5t-1 18.5q0 2 0.5 4.5t2.5 2.5q4 0 4.5 -3.5t0.5 -6.5v-5.5t0.5 -9.5t0.5 -9.5v-5.5v-4.5t-0.5 -7.5t-0.5 -7.5v-4.5v-6q0 -2 2.5 -4.5l5.5 -5.5t6 -5.5t5 -5.5q1 -2 1.5 -9
l1 -14t2 -12.5t4.5 -5.5h13q1 0 1.5 1t1 2.5t0.5 3v1.5q0 3 -1.5 4.5t-3.5 2.5t-4 2.5t-2 4.5v2q0 1 -0.5 3t-0.5 3v2q0 6 2 10.5t2 9.5v1q0 1 -2 4t-3 3q0 1 -1 2.5t-2 3.5l-2 4t-1 3q-1 2 -1 3v2t-0.5 1.5t-1.5 2.5q-1 13 -3 26t-2 26v5v5q1 2 2 3t3 1l1.5 -0.5t1.5 -1.5
l5 -61q2 0 2.5 -3.5l1 -7t2 -6.5t4.5 -3h1l11 11q1 -1 1 -2v-2q0 -4 -2.5 -6t-2.5 -5t1.5 -4t3.5 -1t4 0.5t3 3.5v2.5t0.5 3.5t0.5 4v3v1q0 7 -1.5 13t-4 12.5t-4 13t-1.5 13.5v6v6.5t0.5 7.5t1.5 6h2h2t2 -2q-1 -11 -0.5 -20.5t2 -19t3.5 -19t4 -20.5v-2v-3l-0.5 -2.5
t-1 -4.5l-1 -4t-0.5 -3l2 -4t2.5 -4t3 -3.5t3.5 -1.5t3 2l2 4t1.5 4.5t0.5 3.5t-0.5 2t-0.5 2l-0.5 2l-1 4l-1 4l-0.5 2q-1 8 -1 18v18zM144 118v-3.5v-3.5q1 -2 3 -2q3 0 4.5 2.5t2.5 6t1 7v4.5v6l-1.5 0.5t-1.5 1.5h-1q-3 0 -4.5 -2.5t-2 -5.5t-0.5 -6v-5zM156 109
q0 -3 2.5 -3.5t4.5 -0.5q3 0 4.5 0.5t3.5 3.5v7q0 1 -0.5 3t-1 4.5t-1.5 4t-4 1.5q-2 0 -3.5 -3t-2.5 -6t-1.5 -6.5t-0.5 -4.5zM157 97q-2 -2 -2 -3.5v-3.5q0 -3 1.5 -4.5t4 -2t5.5 -1t5 -0.5t3.5 1.5t2 3.5t0.5 4.5v4.5v2t-2 2q-4 -1 -9 -2t-9 -1zM128 70q0 -4 4 -6
t9.5 -2.5t10.5 0t9 0.5h4.5h5.5q2 1 2.5 3t0.5 5v3q-3 0 -7 1t-7 2h-30q-1 0 -1.5 -1t-0.5 -2v-2v-1z" />
</svg>
