<?xml version="1.0" standalone="no"?>
<!DOCTYPE svg PUBLIC "-//W3C//DTD SVG 1.1//EN" "http://www.w3.org/Graphics/SVG/1.1/DTD/svg11.dtd" >
<svg xmlns="http://www.w3.org/2000/svg" xmlns:xlink="http://www.w3.org/1999/xlink" version="1.1" viewBox="-10 0 266 256">
   <path fill="currentColor"
d="M160 150v98l1 0.5t2 0.5q2 0 4.5 -2.5t2.5 -5.5v-3v-7t-0.5 -12.5t-0.5 -12.5v-8v-1q0 -12 2 -24t1 -24q0 -1 2.5 -1.5t3.5 -0.5q5 1 7 4.5t2 8t0.5 9t2.5 7.5v50q0 1 2.5 1.5l2.5 0.5q2 0 3.5 -1.5t2 -3.5t1 -4.5t0.5 -3.5v-3.5v-2.5q-1 -3 -1.5 -9.5t-1 -14.5t-1 -15.5
t-1.5 -10.5q0 -5 -1.5 -8t-4.5 -7q-2 -3 -4.5 -4t-4.5 -1h-4t-3.5 -1.5t-2 -4.5t-0.5 -10v-3v-4q2 -2 6.5 -3.5t6.5 -2.5q4 -1 6.5 -5.5t3.5 -9.5t1 -10.5v-8.5t-1 -5.5t-4 -2.5h-1v0q-1 0 -2 1l-1 1l-3 31q0 1 -3 2t-4 1q-2 0 -4.5 -1t-2.5 -4q0 -6 1 -12t1 -12v-13
q-1 -1 -3 -2t-3 -1h-2.5t-1.5 2v42h-4q-2 0 -4 -0.5t-4 -1.5t-2 -3v-28l-0.5 -1t-1.5 -1l-1.5 -0.5l-1.5 -0.5q-1 0 -1.5 1t-1 2.5t-0.5 3.5v2q0 5 0.5 9t1.5 11q1 8 4 11t6.5 4.5t6 2t2.5 2.5v22q0 1 -2 2t-4.5 1.5l-5 1t-3.5 1.5q-3 2 -5.5 8t-4 13.5t-2.5 16t-1.5 16.5
t-1 14t-0.5 10q0 2 1 2.5t3 0.5q4 0 7 -3v-5t0.5 -6.5t0.5 -6.5v-4v-4v-6v-7v-3q0 -3 1 -7.5t2 -9.5t3 -9t5 -5q0 -1 2.5 0t3.5 1zM65 244q0 3 1 3.5t3 0.5q5 0 9.5 -3.5t7.5 -7.5q1 -1 3 -4t4 -5.5t4 -5.5t3 -4q0 -3 1.5 -6.5t3 -6.5t3 -6.5t1.5 -7.5t-3 -6.5l-6 -5
t-5.5 -5.5t-2.5 -7q0 -1 0.5 -3.5t2.5 -2.5l26 -4q1 -1 2.5 -2t1.5 -3t-1 -2.5t-2 -0.5h-3q-1 0 -5 0.5t-9 1.5t-9 1.5t-5 0.5q-2 0 -7.5 0.5t-11 0.5t-10.5 0.5t-7 0.5q-3 1 -5 3t-2 5q0 2 2 2.5t4 0.5q8 0 15 -1.5t15 -1.5v15q0 2 2 3.5t5 3t5 3.5t2 5q0 6 -4 13t-9 13.5
t-11 12.5l-9 9v3zM72 141h4t5.5 0.5t5.5 0.5h4v0q9 0 15.5 -1.5t10 -5t5.5 -10t2 -15.5q0 -12 -5.5 -17.5t-17.5 -5.5l-1 -2v-12q0 -2 3.5 -3t8 -4t8.5 -9.5t4 -18.5q0 -2 -0.5 -4.5t-3.5 -2.5q-2 0 -3 1.5t-1.5 3t-0.5 3.5t-1 3q0 1 -0.5 3t-1 4.5t-1.5 4.5t-1 3
q-2 2 -4 1.5t-5 -0.5v-35q0 -2 -1 -2.5t-3 -0.5h-2h-1.5t-2 0.5t-0.5 1.5v37q0 1 -2 1.5t-3 0.5q-4 0 -6 -4t-3 -7q0 -1 -0.5 -3.5t-1 -5.5t-1 -5t-0.5 -3q-1 -2 -2 -2h-2h-1.5t-1.5 2v23l0.5 1t0.5 2q3 4 7 5.5t7.5 3.5t6 5t2.5 8v3t-2 3l-21 6q-1 0 -2 1.5l-2 3t-1.5 3
t-0.5 2.5v10.5t0.5 10.5t3 9.5t6.5 7.5zM72 126q0 -5 2.5 -6.5t5.5 -2t7 -0.5t6 -1q1 0 3 -0.5l2 -0.5l2 -0.5t3 -0.5q2 0 4 0.5t5 1.5v5q0 5 -2.5 7.5t-6 4t-8 2t-7.5 0.5q-2 0 -5 -0.5t-5 -1.5t-4 -3t-2 -4zM72 106q0 -4 3 -6.5t6.5 -4t7.5 -2t6 -0.5h5.5t5 1t4.5 3t2 5
v2.5t-2 2.5q-8 1 -14.5 1h-13.5q-1 0 -2.5 0.5t-3.5 0t-3 -1t-1 -1.5zM161 37l-31 17q-3 2 -3.5 4t-0.5 5q5 0 9.5 -3l9 -6t8.5 -5.5t8 -3.5q3 0 8 1t10 3t9.5 4t7.5 4q1 1 1.5 2t1 1.5l0.5 0.5h2q3 0 5 -1.5t2 -4.5q0 -5 -5.5 -7t-12.5 -4t-12.5 -4t-5.5 -6v-20
q0 -2 -3 -2.5t-4 -0.5h-2.5t-1.5 1v25z" />
</svg>
