<?xml version="1.0" standalone="no"?>
<!DOCTYPE svg PUBLIC "-//W3C//DTD SVG 1.1//EN" "http://www.w3.org/Graphics/SVG/1.1/DTD/svg11.dtd" >
<svg xmlns="http://www.w3.org/2000/svg" xmlns:xlink="http://www.w3.org/1999/xlink" version="1.1" viewBox="-10 0 266 256">
   <path fill="currentColor"
d="M116 245q0 1 1 3.5t3 2.5q1 0 2.5 -1.5t2.5 -1.5l0.5 -0.5t0.5 -1.5t0.5 -5.5t0.5 -9.5t0.5 -9.5t0.5 -6.5v-2v-2l-0.5 -2.5t-0.5 -5.5t-0.5 -5.5l-0.5 -2.5q0 -1 0.5 -3.5t0.5 -6t1 -6l1 -2.5h3h3q7 0 10.5 4.5t4.5 11.5t1 14v13q0 1 0.5 2.5t0.5 3.5v3v3q3 0 5.5 -1.5
t2.5 -5.5q0 -2 -0.5 -9t-1 -14.5t-2 -14t-2.5 -8.5q-2 -4 -6.5 -5t-8.5 -2.5t-7 -3.5t-3 -7v-2v-2q1 -1 3 -1.5l4 -1t4 -0.5h3q5 -2 9 -3.5t6 -4.5t3 -7t1 -11q0 -2 -0.5 -3t-3.5 -1t-3.5 3.5t-1.5 7.5t-2 7.5t-6 3.5h-2h-4h-4h-3v-32h41l0.5 1t1.5 2q2 6 3.5 14t1.5 16
t-0.5 16t-0.5 14q2 3 2.5 7t0.5 8t-0.5 8t0.5 8l1 1.5l1 1.5v3v4v4v2v5t0.5 6.5t0.5 6.5v4q1 0 2 0.5l1 0.5q5 0 6.5 -4t1.5 -8q0 -3 -0.5 -7.5t-2.5 -7.5q-3 -19 -4 -38t-2 -39l-0.5 -2t-0.5 -3t0.5 -3l0.5 -2v-1.5t0.5 -3t0.5 -2.5v-2t-0.5 -3l-1 -4l-1 -4l-0.5 -2l-3 -3
h-1.5t-3.5 -0.5t-4.5 -0.5h-3.5h-15h-16h-8t-12.5 0.5t-12.5 0.5h-8t-6 0.5t-8 1.5t-7.5 3t-3.5 5v6.5v4.5t-0.5 4t-2.5 5q-1 26 -3.5 51t-5.5 51v3q0 2 1 3.5t3 1.5t3 -2.5t2 -3.5q0 -1 0.5 -2.5t1 -3.5t1 -3.5t0.5 -2.5q1 -25 3 -49t4 -49q0 -1 0.5 -4.5t1.5 -4.5
q0 -3 3.5 -6t6.5 -3h32l2 3v7q0 6 -0.5 11t-0.5 11h-17q-1 0 -2 -1.5t-2 -3.5t-1.5 -4.5l-0.5 -2.5v-1l1 -2.5t1 -3.5q0 -2 -1 -2.5t-2 -0.5q-2 0 -3 1.5t-1.5 3t-0.5 3.5v2q0 8 2 11.5t5 5t6.5 2t6.5 1.5t5 3.5t2 7.5v2v3q-13 2 -19 6t-8 11t-2 16t-2 20l-0.5 2.5t-0.5 3.5
l0.5 0.5l0.5 0.5h1q2 0 4 -2.5t2 -4.5v-3v-5v-5v-3q0 -1 0.5 -3.5t0.5 -5.5t0.5 -5.5t0.5 -3.5q2 -2 2.5 -4.5t3.5 -4.5q1 0 4 -2t4 -2h1h1l3 1v25v25q0 5 -1.5 9t-1.5 9zM69 99q0 1 1 1.5t3 0.5q5 0 9 -4t7 -9t6 -9.5t6 -4.5h1h1l13 18q1 1 2.5 1.5t2.5 0.5q2 0 3 -0.5
t1 -2.5q0 -1 -3.5 -5t-7.5 -10t-7.5 -12t-3.5 -12v-7.5v-11.5v-12.5v-7.5q-1 -2 -2 -2h-2h-2t-2 2v4v4q0 5 1 8.5t1 6.5v3v6t-0.5 8.5l-1 9t-0.5 5.5q-3 3 -3.5 5t-3.5 6l-3.5 3.5l-7 7l-6 6t-2.5 3.5zM163 77q4 0 7 3.5t5.5 7l5 7t6.5 3.5q2 0 3 -1.5t1 -3.5q0 -4 -3 -7
t-7 -6t-8 -6.5t-6 -7.5q0 -2 0.5 -6.5t1 -10t1 -10t0.5 -6.5l1 -2.5t1 -3.5v-0.5v-1.5v-4t-0.5 -4t-1.5 -3.5t-3 -1.5t-3.5 1.5t-1.5 3.5v49l-1 0.5t-2 2t-2 2.5t-1 2q-2 1 -4.5 4t-6 6.5l-6.5 6.5l-4 4v3q5 0 8.5 -3t7 -7t6 -7t6.5 -3zM73 34v2q0 2 0.5 7t0.5 10.5
t0.5 10.5t0.5 7q0 1 1 1v0q2 0 4 -1.5t2 -3.5v-32q0 -3 -1.5 -4t-3.5 -1q-4 0 -4 4zM182 35v26q0 1 0.5 2t1.5 1v0h1l2.5 -2.5l1.5 -1.5v-31q0 -2 -2 -2h-2q-2 0 -3.5 0.5t-1.5 2.5t0.5 2.5t1.5 2.5zM138 58q0 1 0.5 3t1.5 2q2 0 3 -3.5t2 -8t1.5 -9t0.5 -5.5v-3t-0.5 -4.5
t-1.5 -2.5q-2 0 -3 4t-2 9.5t-1.5 10.5t-0.5 7zM116 25v30q0 3 3 3t4.5 -2.5t1.5 -6v-7v-5.5q0 -6 -1 -9t-8 -3z" />
</svg>
