<?xml version="1.0" standalone="no"?>
<!DOCTYPE svg PUBLIC "-//W3C//DTD SVG 1.1//EN" "http://www.w3.org/Graphics/SVG/1.1/DTD/svg11.dtd" >
<svg xmlns="http://www.w3.org/2000/svg" xmlns:xlink="http://www.w3.org/1999/xlink" version="1.1" viewBox="-10 0 266 256">
   <path fill="currentColor"
d="M189 249q-1 0 -1 1q0 2 1 2q2 0 2 -2q0 -1 -2 -1zM80 240q0 1 0.5 1.5t2.5 0.5q3 0 5 -2.5t2 -5.5v-4v-12t-0.5 -21t-0.5 -21v-12v-3v-2v-5t0.5 -8t0.5 -8v-5h1.5h0.5q2 0 4 4.5t3.5 10t2 11t0.5 6.5q0 3 0.5 10t1 15t0.5 15v10h1h1q4 0 4 -2.5v-5.5q0 -17 -1 -34t-5 -34
v-1.5t-0.5 -3.5t-0.5 -3.5t-0.5 -2l-2 -2l-3.5 -3.5l-3.5 -3.5t-1.5 -2.5q-2 -2 -2 -4v-5v-3q0 -2 0.5 -5t1.5 -3l13 -3q3 0 4.5 -5.5t2.5 -13t2 -14t1 -9.5v-4t-0.5 -5t-2 -4t-3.5 -2q-3 0 -3.5 3.5t-0.5 9.5q0 5 0.5 11.5t-0.5 12t-3.5 9.5t-7.5 4t-5 -7v-2t0.5 -4.5
t0.5 -4.5v-3v-3.5t-0.5 -7.5t-0.5 -7.5v-4.5v-2.5t0.5 -4.5t0.5 -4v-3v-8v-7q-1 -2 -3.5 -2.5t-5.5 -0.5t-3 3v1q0 1 0.5 2.5t0.5 3t0.5 2.5t0.5 2v5.5v9.5v9.5v6.5l0.5 2l0.5 2v2q0 3 -0.5 5.5t-0.5 5.5t0.5 6t0.5 6h-11l-0.5 -0.5t-0.5 -1.5l-1 -2l-1 -2v-31q0 -2 -2 -4
t-4 -2h-1.5t-1.5 1v18v7v8.5t0.5 9t2.5 7.5t5 3t6 0.5t5.5 2.5t2.5 8q0 9 -2 11.5t-4.5 3l-5 1t-5.5 5.5q-5 10 -6.5 20.5t-1.5 22.5q0 11 0.5 22.5t-0.5 21.5v3q0 2 0.5 3.5t4.5 2.5q2 -1 4 -3.5t2 -5.5v-51v-3.5t0.5 -5.5t0.5 -5.5v-3.5q1 -2 1.5 -4.5t1.5 -5t2 -4.5t3 -2
q1 0 3 0.5t3 0.5q0 8 -1 15.5t-1 14.5q0 9 1 16.5t1 15.5t-1 15.5t-1 15.5v3t0.5 5t0.5 5v3zM122 238q0 2 2.5 3t4.5 1t3 -3t1 -5v-52q0 -1 2.5 -2t5.5 -1h6h4t3 0.5l2 0.5l1 1l2.5 15t1.5 16q0 1 -0.5 2l-1.5 3v21h8l0.5 -1t0.5 -2t0.5 -2.5t0.5 -2.5v-52h22l0.5 0.5
l1.5 1.5l0.5 1l0.5 1v55q0 3 1 4t3 1q3 0 5 -1t3 -4v-3v-3.5v-3.5v-3q0 -25 -2 -50.5t-4 -50.5q-2 -3 -5.5 -4t-6 -2t-4.5 -3t-2 -8q0 -15 1 -30t3 -30q1 -1 1.5 -3l0.5 -2h15l2 -3l0.5 -1t0.5 -2l-0.5 -1t-0.5 -1.5t-0.5 -1t-1.5 -0.5h-1v0h-9t-10 0.5t-8.5 0.5h-3.5
l-1.5 0.5t-2.5 0.5t-2 0.5l-1 0.5h-1v0h-0.5h-0.5l-2 -1t-3 -1l-2 0.5l-4 1t-3.5 1t-2.5 0.5t-3.5 0.5t-5.5 0.5t-5.5 -0.5t-3.5 -0.5q-3 0 -3.5 1.5t-0.5 3.5q0 3 3 4t6 1.5t6 0t4 -0.5l2 1v4v9.5t0.5 11.5t0.5 9v2v1v7t-0.5 10.5t-0.5 10.5v6q0 3 -1 3.5t-2 0.5
q-2 0 -3.5 -1t-3.5 -1q-5 0 -7 2.5t-3 6t-0.5 7.5t0.5 7v5l1 1v56q0 1 -0.5 3.5t-0.5 3.5v24q-1 1 -1.5 2zM139 172q0 -2 3.5 -4.5t7.5 -5.5t7.5 -5.5t4.5 -2.5q2 0 4.5 2t5.5 4t5 4.5t3 4.5q-1 2 -6 3t-11 1h-11.5h-6.5h-3t-3 -1zM171 147q0 -1 2 -3t4.5 -5t4.5 -5.5
t3 -3.5h1q1 0 2.5 2t3 5t2 6t0.5 4v3.5t0.5 6t0.5 5.5v4q-3 0 -7 -2t-8 -5.5t-6.5 -6.5t-2.5 -5zM133 134h2h4t3.5 0.5t2.5 1.5q2 1 5 4.5t4 5.5q1 0 1.5 0.5l0.5 0.5l-0.5 2t-1.5 3l-2 1.5t-4.5 3t-4.5 2.5t-2 2q-2 1 -2.5 1h-2.5q-1 0 -2 -0.5t-1 -2.5v-25zM147 127v0
q0 -1 1 -1.5t2 -0.5h27l0.5 0.5l1.5 1.5v1v0l-2.5 2.5t-3 3.5t-3 3.5t-2.5 1.5q0 1 -2.5 2t-3.5 1h-1v0q-4 -2 -8.5 -5.5t-5.5 -8.5v-1zM166 97q5 0 6 3.5t1 8.5v6q-2 1 -5.5 1h-4.5h-7q-1 0 -2 -0.5l-1 -0.5v-13q0 -2 1.5 -3t4 -1.5t4.5 -0.5h3zM165 69q5 0 7 1.5t2 6.5
q0 4 -0.5 6.5t-4.5 4.5h-2.5h-2.5h-2h-4t-3.5 -1t-1.5 -2v-11q0 -1 1.5 -2t3.5 -1.5l4 -1t3 -0.5zM156 58q-2 -2 -2.5 -4t-0.5 -4q0 -5 3 -6t7 -1h2h4t3.5 1t1.5 2v11l-1 1.5t-2 1.5h-1h-1h-2t-4 -0.5t-4 -0.5t-3 -1z" />
</svg>
