<?xml version="1.0" standalone="no"?>
<!DOCTYPE svg PUBLIC "-//W3C//DTD SVG 1.1//EN" "http://www.w3.org/Graphics/SVG/1.1/DTD/svg11.dtd" >
<svg xmlns="http://www.w3.org/2000/svg" xmlns:xlink="http://www.w3.org/1999/xlink" version="1.1" viewBox="-10 0 266 256">
   <path fill="currentColor"
d="M177 247q0 1 1 2l2 2h1q2 0 3.5 -1.5t2.5 -3.5t1 -4.5v-4.5q0 -12 -1 -24t-1 -25q0 -1 0.5 -2.5l0.5 -1.5l3 -4h14q1 0 1.5 -1t0.5 -2.5v-2.5v-1v-1v-1q-1 -1 -3.5 -1.5t-3.5 -0.5l-1.5 0.5t-3 0.5t-3 0.5l-1.5 0.5h-3h-6.5h-7.5h-6h-4h-7h-7h-4q-5 -2 -7 -8.5t-2.5 -15
t-0.5 -17.5t-0.5 -17t-2 -13t-5.5 -5q-1 0 -2 1t-1 3v9q0 7 0.5 15.5l1 17t2.5 16.5t4 15q1 3 3.5 4t5.5 1t5.5 0.5t3.5 2.5v5v4q0 11 -1 21t-1 20v9l1 2.5t2 2.5q3 0 4 -2t1 -4t0.5 -6t1 -8.5t1 -8.5t0.5 -5v-3v-6v-6v-3q0 -2 0.5 -4.5t1.5 -4.5t2.5 -3t3.5 -1q1 0 4 0.5
t4 0.5q0 3 0.5 9.5t0.5 14.5t0.5 14.5t0.5 9.5v19zM78 242v5t4 2q2 0 3 -1t2 -2.5t1.5 -4t0.5 -3.5q0 -31 0.5 -59.5t0.5 -57.5q1 0 3.5 -0.5t3.5 -0.5q2 0 4 7t3.5 16t2.5 17t1 9v4v7v6v4q0 2 0.5 5t0.5 6.5t0.5 7t0.5 4.5t1 2t2 1h1v0q1 0 2.5 -1t1.5 -2l0.5 -2l1 -4
t1 -3.5l0.5 -1.5q0 -1 -0.5 -2t-0.5 -2.5t-0.5 -2.5t-0.5 -2q-1 -8 -1.5 -17.5t-2 -19t-3.5 -19t-6 -17.5q-2 -4 -4.5 -6.5t-5 -4t-4.5 -3t-2 -5.5v-1t1 -1v-3v-4t0.5 -3.5t0.5 -2.5l0.5 -1t1.5 -1l9 -5q5 -2 6.5 -7t2.5 -10.5t1 -11.5v-9v-4q0 -1 -0.5 -3t-1.5 -3t-3 -1
t-3 0.5t-2 2.5v25q0 4 -2 8.5t-7 4.5q-2 0 -3 -1t0 -4q0 -1 -0.5 -2.5t-0.5 -3.5v-4v-2q0 -9 1 -18.5t1 -17.5q0 -3 -1 -5t-4 -2h-2t-3 1q0 1 -1 1.5l-1 0.5v57q0 1 -1 1.5t-2 0.5h-2h-1q-2 0 -3.5 -1.5t-2.5 -4t-1 -5v-4.5v-20q-1 -2 -3 -4t-4 -2t-4 1.5t-2 3.5v1
q1 9 1.5 17t2.5 14t6.5 9.5t14.5 4.5l2 4l-2 22q-10 2 -15 9t-7.5 15.5t-3 18.5t-1.5 19l-2 18t-1 18v4t3 2q4 0 5.5 -1.5t2 -4t0.5 -5.5v-5t0.5 -5.5t0.5 -7.5t0.5 -7.5t0.5 -4.5q1 -12 3.5 -24t5.5 -23q1 -2 1 -2.5t2 -0.5t3 1t1.5 2.5t0.5 3v3.5v7.5v12.5v12v8
q0 18 -0.5 35.5t-0.5 34.5zM145 106v9v4t0.5 6.5t0.5 7v4.5q1 7 2.5 11t5 6.5t8.5 3t12 0.5q11 0 16 -3.5t7 -9.5t2 -14v-17v-22q-2 -5 -7.5 -5.5t-10.5 -0.5q-4 0 -9.5 -0.5t-11 0.5t-10 3.5t-5.5 7.5v9zM156 142v-1l0.5 -1.5l0.5 -1.5q7 -1 11 -1.5t10 -0.5h4t5 1q1 1 1 4
t-2 5t-5 2.5t-5.5 1t-4.5 0.5h-5q-2 0 -4.5 -1t-4 -2.5t-1.5 -4.5zM154 124q0 -2 0.5 -4t2.5 -3q4 -1 6.5 -1t5 -0.5t4.5 -0.5h5h7q2 1 3.5 3.5t1.5 4.5t-1.5 3.5t-3.5 1.5h-23l-1 0.5t-2 0.5t-2 0.5l-1 0.5q-1 0 -1.5 -1.5t-0.5 -3v-1.5zM154 104q0 -2 1 -3.5l2 -3
t2.5 -2.5t2.5 -1h23q2 0 2.5 1.5t0.5 3.5t-0.5 3.5t-2.5 2.5q-1 0 -4.5 0.5t-7.5 0.5t-7.5 0.5t-4.5 0.5h-3q-2 0 -3 -0.5t-1 -2.5zM124 16v1q0 3 0.5 7t1 8.5t1 8t0.5 4.5q1 5 1.5 9t1.5 7.5t3.5 5.5t8.5 2q1 0 5 0.5t8.5 0.5t8.5 0.5t5 0.5h6h6.5t6.5 -0.5t6.5 -0.5
t7.5 -1q3 -1 3.5 -3t0.5 -5h-61q-7 0 -7 -6q0 -3 2.5 -6t5.5 -3h32q7 -3 10.5 -4t5 -2t2.5 -4.5t2 -11.5v-3q0 -3 -1.5 -6.5t-5.5 -3.5q-3 0 -4 2.5t-1.5 6.5l-1 8t-2.5 5q-11 2 -18 3t-16 1h-2t-4 -0.5t-3.5 -1t-1.5 -2.5v-16q0 -3 -2.5 -4t-4.5 -1t-4 1t-2 3z" />
</svg>
