<?xml version="1.0" standalone="no"?>
<!DOCTYPE svg PUBLIC "-//W3C//DTD SVG 1.1//EN" "http://www.w3.org/Graphics/SVG/1.1/DTD/svg11.dtd" >
<svg xmlns="http://www.w3.org/2000/svg" xmlns:xlink="http://www.w3.org/1999/xlink" version="1.1" viewBox="-10 0 266 256">
   <path fill="currentColor"
d="M69 246q0 5 4 5t5.5 -3.5t1.5 -7.5v-10v-16t-0.5 -19t-0.5 -19v-16v-10v-3v-3v-4t0.5 -6.5t0.5 -7v-4.5q1 -1 2 -1.5t2 -0.5q2 0 3 3t1.5 6t1 7t0.5 5q0 2 0.5 10t1.5 17.5t1.5 17.5t0.5 10q1 1 1 6v9v10q0 4 -1 6q1 1 2 1h2q2 0 3 -2t1 -4v-4t0.5 -6t0.5 -6v-3
q0 -18 -2 -35.5t-3 -35.5l-0.5 -3.5t-1.5 -4.5q-1 -5 -3.5 -8t-5.5 -5.5t-5 -5.5t-2 -8v-2.5v-3.5q1 -2 4 -2.5t5.5 -1t5 -2.5t3.5 -8v-6t0.5 -10t0.5 -9.5v-6.5l0.5 -1l0.5 -1q0 -2 -1.5 -4.5t-4.5 -2.5l-1.5 0.5t-1.5 1.5v35q0 2 -1 3t-2.5 1.5t-3.5 1t-3 0.5
q0 -12 0.5 -23t0.5 -23v-12q-2 -8 -9 -8q0 17 -0.5 34t-1.5 34q-3 0 -3.5 -2.5t-1.5 -4.5q0 -1 -0.5 -3t-1 -4.5t-1 -4t-0.5 -2.5t-0.5 -4t-1 -6.5t-1 -6.5t-0.5 -5q-1 -2 -2 -2h-2q-6 0 -6 6v2v1q1 2 1.5 7t1.5 11t1.5 11t0.5 7q1 4 4 5.5t6 2.5t5 3t2 7q0 4 -1.5 7t-3.5 5
t-5.5 3.5t-6.5 2.5q-5 13 -6.5 27t-1.5 29q0 14 0.5 28.5t-0.5 28.5v1q0 3 2 4t4 1q1 0 2.5 -0.5t1.5 -3.5v-5t0.5 -7t0.5 -7.5v-4.5v-60q0 -1 0.5 -4t1 -5.5t1 -5.5t0.5 -4q1 -2 2.5 -4.5t4.5 -2.5h0.5h0.5q2 4 2.5 10t0.5 12.5v12.5v10v4.5t-1 3.5v11v17v16.5v10.5
l-0.5 2.5t-0.5 4.5t-0.5 4t-0.5 3v2zM136 246h5t8.5 0.5t8 0.5h5.5h1h1q7 0 13 -0.5t11.5 -2.5t10 -6.5t5.5 -12.5v-3q0 -3 0.5 -5.5t0.5 -4.5v-3v-6.5v-9.5t-0.5 -10t-1.5 -9.5t-2.5 -7.5t-4.5 -3q-2 0 -2.5 2.5t-0.5 4.5q0 3 -0.5 5t-2.5 2h-28l-4 -16q0 -1 -1 -1h-2h-1.5
t-1.5 1v18q0 3 2.5 5t5.5 3t6.5 1.5t4.5 0.5h1.5t2.5 -0.5t2.5 -1l1.5 -0.5h5h4t4 2q0 2 1 5t0 3l-1 2l-3.5 0.5t-8 1t-9.5 0.5h-8h-19q-1 2 -3 2h-4q-4 0 -5 -5.5t-1.5 -12t-1.5 -12t-5 -5.5q-3 0 -3.5 2.5t-0.5 5.5l0.5 2l0.5 2v4.5v7.5t0.5 7.5t0.5 4.5v12t1 12t3.5 10.5
t8.5 7.5zM145 234q-5 -2 -9.5 -7.5t-4.5 -11.5q0 -2 2 -3t5.5 -1.5t6 -0.5h3.5q10 -1 19.5 -2.5t19.5 -1.5q2 0 5.5 1t3.5 5q0 13 -5.5 18t-16.5 5h-14t-15 -1zM130 119v34l1 0.5t1 1.5h1h1l0.5 -1t1.5 -1q0 -1 2 -4l2 -3v-29q4 0 6.5 2.5t3.5 6t1 7.5v7t1 5.5t3 2.5t2.5 -1
t1 -3t0.5 -3.5v-2.5q0 -13 -2.5 -18t-6.5 -7.5t-7 -3t-3 -3.5v-3q1 0 3 -1l4 -2t3.5 -2t2.5 -2q2 -1 2.5 -3t0.5 -4v-4v-4q0 -6 -0.5 -10t-2.5 -6.5t-5.5 -4.5t-8.5 -3q0 -1 -0.5 -2l-0.5 -1q0 -3 3 -5l6 -4t5.5 -6t2.5 -12q0 -2 -0.5 -4t-3.5 -2q-2 0 -2.5 2.5t-1 6t-1.5 6
t-5 2.5t-4 -4t0.5 -9t-1 -9t-9.5 -4q0 6 1.5 11t1.5 11q0 2 -1.5 5t-3.5 3q-3 0 -4 -3t-1.5 -6.5t-1 -6.5t-4.5 -3v0q-1 0 -1.5 0.5l-0.5 0.5v3.5v2.5v4v2q1 6 3 8t4 3t4 1t4 0.5t3 2t1 5.5t-3.5 4.5t-7.5 2t-7.5 6.5t-3.5 17q0 8 3.5 11t7.5 4t7.5 2t3.5 5q0 2 -2 3.5
t-5 3.5l-6 4t-4 5q-1 1 -1.5 4l-1 6l-1 6t-0.5 4v3q0 2 1 3t3 1q1 0 2.5 -0.5t1.5 -2.5l4 -23q0 -5 2.5 -5.5t5.5 -0.5zM181 122h1l1.5 0.5t1.5 1.5v27q0 1 0.5 1.5l0.5 0.5q2 0 3.5 -1.5t1.5 -3.5v-28l0.5 -0.5t1.5 -0.5h1q3 0 4.5 2t2 6t0.5 8t0.5 7.5t1.5 6t4 2.5t4 -3.5
t1 -6.5q0 -5 -0.5 -12t-3.5 -12q-1 -3 -3.5 -4t-5 -1.5t-4.5 -1.5t-2 -4q0 -2 3 -3.5t7 -2t7 -2t3 -5.5v-2q0 -2 0.5 -3.5t0.5 -2.5v-2v-4t-0.5 -6t-1 -5.5t-1.5 -3.5q-1 -2 -4.5 -3t-7 -1.5t-6 -1.5t-2.5 -4q0 -1 0.5 -2.5t1.5 -1.5q9 -1 13 -4t4 -13v-4q0 -3 -0.5 -5
t-1.5 -3.5t-3 -1.5h-1q-1 1 -2 1.5l-1 0.5v20l-3 0.5t-4 0.5l-0.5 -1l-0.5 -1v-22q0 -3 -2.5 -4.5t-4.5 -1.5l-1.5 1.5t-1.5 2.5v20q0 1 -0.5 2t-0.5 2q-1 0 -1.5 1l-0.5 1l-1.5 -1l-1.5 -1l-2 -2l-3 -15l-1.5 -1l-1.5 -1h-1h-1v10t2 11q1 2 3.5 3.5t5 2t4.5 2.5t2 5
q0 4 -3 5t-6 2.5t-5.5 6.5t-2.5 17q0 10 5 14t14 5v2q0 4 -2.5 5.5t-6 2.5t-6 2t-2.5 5v26l0.5 0.5t0.5 1.5h1h1l1.5 -1.5l0.5 -0.5v-4v-6.5t0.5 -6.5t0.5 -4q1 -5 6 -5zM173 86h3t4 0.5t3.5 1.5t1.5 3q0 3 -2.5 4t-4.5 1t-3 -1t-1.5 -2.5t-0.5 -3.5v-3zM118 91q0 -3 3 -4
t5 -1q4 0 4 3.5v6.5h-3t-4 -0.5t-3.5 -1.5t-1.5 -3zM140 89q0 -3 1 -4t3 -1t3.5 0.5t2.5 3.5q0 1 -0.5 2t-2 2t-2.5 2t-2 1q-2 0 -2.5 -2.5t-0.5 -3.5zM192 84h13q0 4 -2.5 7.5t-5.5 3.5q-4 0 -4.5 -3t-0.5 -8zM118 75q0 -4 3 -6t6 -2t3.5 2t0.5 4q0 4 -3 5t-6 1q-4 0 -4 -4
zM174 71q0 -3 2.5 -3.5t4.5 -0.5h1.5h2.5q0 1 0.5 2t0.5 2q0 6 -5 6q-3 0 -5 -1t-2 -5zM139 73q0 -3 1.5 -4.5t3.5 -1.5q3 0 4 3.5t1 5.5h-2h-3.5t-3 -1t-1.5 -2zM198 67q3 0 5 1.5t2 4.5v1q0 1 -0.5 1.5l-0.5 0.5h-13q0 -5 1.5 -7t5.5 -2z" />
</svg>
