<?xml version="1.0" standalone="no"?>
<!DOCTYPE svg PUBLIC "-//W3C//DTD SVG 1.1//EN" "http://www.w3.org/Graphics/SVG/1.1/DTD/svg11.dtd" >
<svg xmlns="http://www.w3.org/2000/svg" xmlns:xlink="http://www.w3.org/1999/xlink" version="1.1" viewBox="-10 0 266 256">
   <path fill="currentColor"
d="M68 86q0 5 -2 8t-4.5 5t-6 4.5t-6 6t-4 9t-1.5 14.5v115q2 0 4 -1.5t3.5 -3.5t2.5 -4.5t1 -5.5v-2q0 -1 -0.5 -2.5t-0.5 -3t-0.5 -3t-0.5 -2.5v-85q1 -3 1 -7.5t1 -8.5t2.5 -7.5t5.5 -3.5q3 0 3.5 3t1.5 5q0 4 -0.5 12t-0.5 19v21v22q0 10 0.5 18t0.5 12v4.5v7.5t0.5 8
t0.5 5l1.5 1.5t1.5 0.5q2 0 3.5 -2t2 -5l1 -6t0.5 -5q0 -25 -1.5 -50.5t-1.5 -50.5v-6v-4.5v-5t1 -6.5h1h1q3 0 4.5 3.5t2.5 8.5t1.5 9.5t0.5 5.5v5v9v8v5t0.5 5t0.5 8t0.5 8t0.5 5v9.5v14.5v13.5v9.5q0 1 0.5 3.5t0.5 3.5l0.5 1t1.5 1q2 0 3.5 -2t2 -4t0.5 -4v-4
q0 -4 -0.5 -8.5t-0.5 -9.5q0 -4 0.5 -8.5t0.5 -8.5v-10.5t-0.5 -17t-1 -20t-2 -19.5t-2.5 -16t-3 -9t-4 -2.5t-4 -0.5t-3.5 -0.5t-2.5 -3.5l-0.5 -2.5t-0.5 -3.5q0 -5 1.5 -7.5t3.5 -4t5 -3t5.5 -4t4.5 -7t3 -12.5v-8v-4t-0.5 -6t-2 -5.5t-3.5 -2.5q-3 0 -3.5 6t-0.5 13.5
t-1 15t-5 10.5l-5 -5q1 -25 -1 -49q0 -3 -1.5 -3.5t-2.5 -0.5h-2.5t-1.5 2q0 1 -0.5 3t-0.5 5v4v3q0 8 1 16.5t1 16.5q0 3 -1.5 5.5t-4.5 2.5t-4.5 -3t-2 -8t-1 -10.5t-1 -10t-2 -8t-3.5 -3.5t-3 0.5t-1 3.5v5v5v8.5t1 11t2 10t4 6.5q2 1 5 1.5t5 1t4 2t2 5.5zM175 215
q2 0 3.5 4.5t2.5 10l2 11t1 7.5q3 0 6.5 -1t3.5 -6q0 -4 -1.5 -8t-3 -7.5l-3 -7t-1.5 -8.5v-1q1 -5 2.5 -9t1.5 -9q0 -6 -3 -10t-7.5 -6t-9.5 -2.5t-10 -0.5q-1 0 -4 0.5t-6 0.5t-6 0.5t-5 0.5l-1 0.5t-1 1.5h-1l0.5 0.5l0.5 0.5q0 1 0.5 2l0.5 1h35q1 0 2.5 0.5t3 2l3 3
t1.5 2.5q0 2 -1.5 6t-4.5 4h-1q-3 -2 -5 -3.5t-4 -2t-4.5 -1t-6.5 -0.5h-2h-4t-6 0.5t-5.5 0.5h-3.5v2v2.5t2 1.5h30l1.5 1t2.5 2q1 0 1.5 0.5t0.5 1.5v0v1q0 1 -1 1.5l-1 0.5q-1 0 -4.5 0.5t-7.5 1l-8 1t-5 0.5q-2 1 -5 1.5t-5 1t-3.5 2.5t-1.5 4q10 0 19 -1.5t19 -1.5h7z
M194 45q1 19 1.5 37.5t0.5 37t0.5 37.5t2.5 37v13.5v13.5q0 6 0.5 12.5t2.5 13.5h1h1q3 0 5 -2.5t2 -5.5q0 -7 -0.5 -13.5t-1 -12.5t-1.5 -12.5t-1 -13.5q-2 -34 -1.5 -67.5t-1.5 -67.5q-1 -9 -3 -14.5t-6 -8.5t-9.5 -4.5t-14.5 -1.5h-1q-3 0 -7.5 0.5t-9 0.5t-8 0.5
l-3.5 0.5q-3 0 -6.5 1t-7.5 3t-7 4.5t-4 4.5q-1 3 -1 8.5t-0.5 11.5t-0.5 11.5v7.5v6v12v15.5v17.5v16v14v9v14v17v17v14v9q0 1 1.5 3.5t2.5 2.5t3 -1.5t2 -2.5v-18v-15q0 -7 -1 -15v-37v-48.5t1 -47.5q1 -9 4 -14.5t7.5 -8.5t10.5 -4t13 -1h10.5t10 1t8.5 4t6 9zM165 91h-8
t-10 1t-9 4t-4 8v44q0 6 3.5 8.5t8 4t9.5 1.5h8t7 -0.5t7.5 -2t6 -4.5t2.5 -8v-43q-2 -4 -3 -7t-5 -6h-2.5h-4.5h-4h-2zM145 147q0 -4 1.5 -5.5t4.5 -1.5h26q1 0 1 1.5v2.5q0 3 -1.5 6.5t-4.5 3.5h-22q-3 0 -4 -2.5t-1 -4.5zM140 131v-1q0 -3 0.5 -6t2.5 -4q1 0 4 -0.5
t5.5 -1t5 -0.5h3.5h3h6.5t7.5 2q1 1 1.5 3t0.5 4q0 3 -2.5 4.5t-6 2t-7 0t-6.5 -0.5h-9q-4 0 -9 -2zM142 109q0 -5 2.5 -7t6.5 -3t8 -1h7h3t3.5 0.5t3 1.5t1.5 3v1q-1 1 -1.5 3l-0.5 2q-5 2 -10 2h-10h-12l-0.5 -0.5t-0.5 -1.5v0zM134 74q0 2 1 2.5t3 0.5v0q1 0 3.5 -0.5
t3.5 -0.5h36q2 0 3 -2t1 -4q0 -1 -0.5 -2t-1.5 -1h-2l-2 0.5t-4.5 0.5t-4.5 0.5t-3 0.5h-6.5t-9.5 0.5t-9.5 0.5h-5.5q-2 1 -2 2v2zM136 52q0 1 0.5 2.5t1.5 2.5h9h8q4 0 7.5 -0.5t7 -0.5t8.5 -1q1 0 3 -1t2 -3t-1.5 -3t-3.5 -1q-9 0 -20 1.5t-20 1.5z" />
</svg>
