<?xml version="1.0" standalone="no"?>
<!DOCTYPE svg PUBLIC "-//W3C//DTD SVG 1.1//EN" "http://www.w3.org/Graphics/SVG/1.1/DTD/svg11.dtd" >
<svg xmlns="http://www.w3.org/2000/svg" xmlns:xlink="http://www.w3.org/1999/xlink" version="1.1" viewBox="-10 0 266 256">
   <path fill="currentColor"
d="M122 236v3q0 2 0.5 4t0.5 3v2l3 3q1 -2 3 -4t3 -4q0 -5 -0.5 -12t-0.5 -14t0.5 -14.5t1.5 -13.5q1 -3 3.5 -4.5t5.5 -2.5t5.5 -2t2.5 -3v-0.5v-1.5h-2h-3.5t-3 -0.5t-2.5 -2.5v0q0 -3 1.5 -5.5t4 -4.5t4 -4.5t1.5 -5.5q0 -1 -0.5 -2.5t-2.5 -1.5q-3 0 -5.5 3.5t-4.5 8
t-4.5 8t-4.5 3.5h-1l-0.5 -0.5l-0.5 -0.5q0 -1 -0.5 -3.5t-0.5 -3.5q0 -3 2 -6t4 -5.5l4 -5t2 -6.5q-4 0 -8 2.5t-6.5 6t-4 8t-1.5 8.5t3 8.5t6 6.5v7q0 12 -2 24.5t-2 24.5zM156 237q0 2 1 4t3 2q3 0 4.5 -1.5t1.5 -4.5v-1v-9t-0.5 -12.5t-0.5 -12.5v-8l1 -10h17q2 0 3 2.5
t1 4.5q1 5 1 11.5t0.5 13t0.5 13.5v13q0 1 1.5 1h2.5h3t2 -3v-4v-6v-6v-4v-5v-7v-6v-2q0 -1 -0.5 -3.5t-1 -4.5t-1 -4.5t-0.5 -3.5v-1q0 -2 1 -4t2.5 -4.5t2.5 -5t1 -5.5q0 -12 -6.5 -17t-17.5 -5q0 3 2.5 5t5.5 3.5t6 4t3 6.5q0 2 -0.5 5.5t-2.5 4.5q-5 -3 -6 -6t-2.5 -5.5
t-4.5 -4t-10 -1.5q0 3 2 5t4.5 4l5 4t2.5 6q0 1 -0.5 2.5t-2.5 1.5h-14l-1 -2l-0.5 -2.5t-0.5 -7t-0.5 -8.5t-0.5 -7v-4v-4q0 -5 1 -8.5t7 -3.5t11 1t11 1q3 0 4.5 -1.5t1.5 -3.5v-2.5t-1 -1.5h-32l-3 -2l0.5 -3t1.5 -4q0 -1 1 -2t2 -1l10 -2t8 -2.5t5.5 -5.5t2.5 -10
l-0.5 -2.5t-0.5 -3.5l-1 -1l-2 -2v0q-2 0 -3 3t-2 7t-3.5 7.5t-7.5 3.5q-1 1 -5 0.5t-5 -0.5q0 -1 -0.5 -2.5t-0.5 -3t0.5 -3.5t1.5 -3l1.5 -0.5t3 -1.5t2.5 -1.5t2 -0.5q3 -2 3.5 -6t0.5 -8t0.5 -6.5t2.5 -2.5h20q1 0 3 -2.5t2 -3.5t-1 -2.5t-3 -1.5h-12l-0.5 -0.5
t-0.5 -1.5v-2v-3q0 -3 1.5 -6t1.5 -7q0 -3 -1 -6t-5 -3q-1 0 -3.5 1.5t-2.5 3.5v24l-0.5 0.5t-1.5 0.5h-2.5h-2.5q0 -10 0.5 -19.5t0.5 -19.5q0 -2 -0.5 -4t-4.5 -2q-3 0 -4.5 2t-1.5 5v6v5q0 6 1 12.5t1 12.5q0 3 -2 4t-4 1t-4 -0.5t-2 -2.5v-37q0 -3 -1 -3.5t-3 -0.5
q-1 0 -2.5 0.5t-1.5 1.5v38q0 2 -1 4t-4 2q-4 0 -4.5 -4.5t-0.5 -10t-0.5 -10t-5.5 -4.5q-1 0 -2 0.5t-1 1.5v1q0 1 0.5 4.5l1 7l1 7t0.5 4.5v0q0 4 -3 5t-6.5 1t-7 -0.5t-4.5 -0.5v-20l-2 -2h-1v0q-1 0 -1.5 0.5t-0.5 1.5q-1 3 -1 11t-0.5 15.5t-2.5 14t-6 8.5
q-1 0 -2.5 -0.5t-2.5 -0.5v-1.5v-1.5q0 -1 0.5 -4t1.5 -4v-9t0.5 -15t0.5 -14.5v-9.5v-2q0 -2 -1.5 -3.5t-3.5 -1.5t-3.5 1t-1.5 3q0 16 -0.5 31t-1.5 31l-0.5 0.5l-0.5 0.5h-1q-3 0 -4.5 -2.5t-2.5 -6.5t-1 -8v-5q0 -2 -0.5 -5t-0.5 -7t-0.5 -7.5t-0.5 -4.5q-1 -2 -3 -3.5
t-4 -1.5h-1l-1 2v6q0 5 0.5 9t1 8.5t2 9t2.5 10.5q1 5 3.5 8t5 5t4.5 3t2 2v17l-0.5 0.5l-0.5 0.5q-9 6 -14.5 11.5t-6.5 15.5q-1 1 -1 5t-0.5 8.5t-1 8.5t-0.5 5q-2 12 -2.5 22t-1.5 22v2q0 4 4 4q3 0 4 -1t1 -3q0 -15 1 -30t2 -29q1 -2 2 -6.5t2.5 -9.5t3.5 -9t5 -4h1v0
l0.5 0.5l1.5 1.5v1v0l-2 10q1 20 -0.5 39t-1.5 39v16q1 2 3 2h2q3 0 4.5 -1.5t1.5 -4.5v-95q0 -1 1.5 -3t2.5 -2h1q4 8 6 16.5t2.5 18t0 18.5t0.5 17v1q0 4 -1 7.5t-1 7.5v3.5t2 1.5q3 0 6 -3v-21v-20q0 -2 -0.5 -8.5t-1 -13.5t-1 -13t-0.5 -9q-2 -7 -4.5 -10.5t-7.5 -7.5
l-2 -1v-17q0 -1 2.5 -2l5 -2t5.5 -3.5t4 -5.5q0 -1 0.5 -4l1 -6t1 -5.5t0.5 -4.5q0 -1 3.5 -1.5t8 -1t9.5 -0.5h5q3 0 4.5 2.5t2.5 6t1.5 6.5t1.5 5q0 2 2 2.5t4 1.5t3 2t1 3t-0.5 5t-2.5 4h-2.5h-2.5q-9 0 -11.5 -3.5t-3 -7.5t-0.5 -7t-3 -3h-1l-0.5 0.5l-0.5 0.5
q0 1 -0.5 3l-0.5 2q0 4 0.5 7l1 6t2.5 5t6 3q1 0 3.5 0.5t5.5 1.5t6 1.5t4 0.5v3t-1 4.5t-2 4t-3 1.5h-31q-2 0 -2 1.5v2.5q0 2 1 2.5t4 0.5h33l1 3q-1 19 1 38.5t2 38.5v7v3t-0.5 4.5t-0.5 5v2.5zM148 75q0 -7 4.5 -9t10.5 -2q4 0 6.5 3.5t2.5 7.5q0 2 -1.5 4t-4 3t-5 1.5
t-4.5 0.5q-4 0 -6.5 -2t-2.5 -7z" />
</svg>
