<?xml version="1.0" standalone="no"?>
<!DOCTYPE svg PUBLIC "-//W3C//DTD SVG 1.1//EN" "http://www.w3.org/Graphics/SVG/1.1/DTD/svg11.dtd" >
<svg xmlns="http://www.w3.org/2000/svg" xmlns:xlink="http://www.w3.org/1999/xlink" version="1.1" viewBox="-10 0 266 256">
   <path fill="currentColor"
d="M64 134q2 12 3 25t1 26t-0.5 26t-0.5 26v3q0 3 0.5 5t1.5 4t3 2q4 0 5.5 -2t1.5 -5q0 -27 -2.5 -53.5t-2.5 -53.5v-4.5t2 -2.5h1l2 2t1 2q4 11 5.5 21.5t2 21t0.5 21.5t1 24l0.5 0.5t1.5 0.5v0q2 0 4 -2.5t2 -4.5v-11q0 -20 -1.5 -40.5t-8.5 -39.5q0 -1 -2 -2l-4 -2
t-3.5 -2t-1.5 -3v-18l3 -4q5 -4 7.5 -8.5t4 -9.5t1.5 -11v-13v-14q0 -1 -1.5 -1.5l-1.5 -0.5h-0.5h-0.5h-1l-0.5 0.5t-0.5 1.5v18q0 2 -0.5 6.5t-1.5 9t-2.5 8t-4.5 3.5l-1.5 -0.5t-1.5 -2.5v-65q0 -3 -1 -3.5t-3 -0.5t-3.5 1t-2.5 3v20q0 10 1 19t1 19v3v2.5t-1 3t-2 1.5
q-2 0 -3.5 -2l-3 -4t-2 -4.5t-0.5 -3.5v-26q0 -3 -2 -3.5t-4 -0.5t-4 1.5t-2 3.5v2q1 3 1.5 8.5t1.5 11t1.5 10.5t0.5 6q1 4 2.5 5.5t4.5 3.5q3 1 6.5 2t5.5 5v4v4q0 6 -1.5 9.5t-4 6t-5.5 5t-6 7.5l-1 5t-2 11t-2.5 12t-1.5 8v64q0 1 2 1h3h3t2 -3q0 -4 0.5 -12t1 -17
t0.5 -17v-11q0 -10 0.5 -19t2.5 -19l1.5 -2.5t2.5 -2.5l1.5 0.5t1.5 1.5zM198 189q0 2 0.5 8t0.5 12.5t0.5 12.5t0.5 8q0 1 -0.5 4t0 6.5t1.5 6t4 2.5q2 0 3 -1.5t2 -3.5v-10q0 -17 -1.5 -34.5t-3.5 -34.5q-1 -11 -3 -20t-2 -20v-5v-5q7 -6 10 -16.5t3 -19.5q0 -7 -4 -12.5
t-10 -9.5t-12.5 -6t-12.5 -2q0 4 2.5 6.5t5.5 4.5t7 4t7 4.5t5.5 6.5t2.5 10q0 2 -0.5 5t-1.5 6t-2.5 5t-3.5 2h-0.5h-0.5q0 -3 -2 -6.5t-5 -7t-6.5 -5.5t-6.5 -2q-1 0 -2 0.5t-1 2.5q0 4 2.5 7t5.5 5.5t6 5.5t3 8t-4 7.5t-8.5 4t-8 3t-3.5 4.5q0 2 2 2h3q4 0 8.5 -1.5
t8.5 -1.5q3 0 4.5 3.5t2 9t0 10.5t-0.5 7v7l-1 5h-24l-0.5 1l-0.5 1q-1 1 -1.5 2.5l-0.5 1.5l1.5 1.5l1.5 1.5h1h1h3.5t5 -0.5t5 -0.5h3.5h3q5 0 6 3t2 7zM102 218l0.5 0.5l1 1t2.5 1t3 1.5h12q2 0 6.5 -0.5t10 -1t11.5 -1t11.5 -1.5t8.5 -2.5t3 -3.5q0 -4 -3.5 -4.5
t-8 -0.5t-8.5 0.5t-4 -1.5v-27q0 -4 2 -6t4.5 -5.5t4 -7.5t1.5 -11q0 -8 -3.5 -11t-11.5 -3h-12t-12.5 1.5t-9.5 5.5t-4 11q0 5 2 7.5t4.5 4.5l5 4t3.5 6v12q0 7 -0.5 11.5t-2 8t-5 5.5t-10.5 3q-1 0 -1.5 1t-0.5 2zM132 173l0.5 -0.5l1.5 -1.5h1q1 0 3 1.5t2 2.5v7v7v6
t-0.5 6.5t-0.5 8.5h-9q0 -19 2 -37zM117 156q0 -4 2.5 -6.5t6 -4t7.5 -1.5h8q5 0 8 2.5t3 7.5q0 3 -2.5 6.5t-4.5 4.5q-1 0 -5.5 -0.5t-9.5 -1.5t-9 -2.5t-4 -4.5zM100 114l0.5 0.5l0.5 0.5l0.5 0.5l0.5 0.5q1 1 5 1h4q13 0 25 -2.5t24 -1.5q1 0 1.5 -1t0.5 -2.5v-2.5v-2
h-23v-16l0.5 -0.5t0.5 -1.5q3 -1 5 -1.5t3.5 -1t3 -1.5t3.5 -4q1 -6 1.5 -10.5t1 -8.5l1 -8t0.5 -9q0 -1 -0.5 -3.5t-0.5 -3.5q0 -2 -1.5 -2h-2.5h-2t-2 2v3.5t-0.5 5.5l-1 6t-0.5 4v5.5t-0.5 7.5t-2.5 6.5t-5 2.5h-1q-1 0 -1.5 -1.5l-0.5 -1.5v-15q0 -7 1 -13.5t1 -13.5v-5
t-0.5 -5.5t-2 -4.5t-3.5 -2h-1l-1.5 1l-1.5 1v9v13v13.5v9.5q0 1 -0.5 3t-0.5 5t-0.5 5.5t-0.5 3.5h-2q-3 0 -5 -2.5t-3 -6.5t-1.5 -7.5t-0.5 -6.5v-3.5t-0.5 -5.5t-0.5 -5.5v-3.5h-7v3v5.5v5v3.5t0.5 5.5t1 9.5t2 9t3.5 5t5 2t5 1.5t3.5 2.5t1.5 6q0 5 -3 8t-6.5 4t-8 1.5
t-7.5 0.5q-1 0 -2 1t-1 2l-0.5 0.5z" />
</svg>
