<?xml version="1.0" standalone="no"?>
<!DOCTYPE svg PUBLIC "-//W3C//DTD SVG 1.1//EN" "http://www.w3.org/Graphics/SVG/1.1/DTD/svg11.dtd" >
<svg xmlns="http://www.w3.org/2000/svg" xmlns:xlink="http://www.w3.org/1999/xlink" version="1.1" viewBox="-10 0 266 256">
   <path fill="currentColor"
d="M157 245l0.5 1.5t1 2.5t1.5 1.5t2 0.5l2.5 -2.5l2.5 -2.5v-5v-8v-7v-5q0 -1 0.5 -3t0.5 -3v-60h40q3 0 4 -1.5t1 -3.5q0 -3 -1 -4t-3 -1q-5 0 -10 1.5t-11 1.5h-2h-3.5t-5 -0.5t-4.5 -0.5h-3q-2 -1 -2 -3v-3q0 -4 2.5 -5t6 -2t7.5 -1.5t7.5 -3t6 -8t2.5 -16.5
q0 -10 -1 -14.5t-4 -7t-8.5 -3.5t-14.5 -2h-2q-11 0 -18.5 1t-13 5t-8.5 11t-3 18q0 8 2.5 12.5t7 7t10 3.5t12.5 1q1 1 1.5 2t0.5 3t-0.5 3l-1.5 3q-2 0 -5.5 0.5t-8 0.5t-8 0.5t-5.5 0.5t-4 -0.5t-4 0t-3.5 1.5t-2.5 3q1 3 2 3.5t3 0.5q7 0 14.5 -1t15.5 -1h3.5t2.5 3v4v6
v6v4q0 8 -1 16.5t-1 16.5q0 4 1 7.5t1 7.5t-1 8.5t-1 9.5zM75 231q0 2 0.5 4t2.5 2q4 0 6 -3t2 -7v-107q0 -1 1.5 -3t2.5 -2q3 0 5 6.5t3.5 17t2.5 22.5t1.5 22.5t0.5 19v10.5l1.5 1.5l0.5 0.5h0.5h0.5q2 0 3.5 -2.5t2.5 -3.5v-11q0 -20 -2.5 -40.5t-7.5 -40.5
q-1 -4 -3.5 -6t-5.5 -4t-5 -5t-2 -8v-3.5v-3.5q2 -1 4 -1.5l4 -1l4 -1t4 -2.5q1 -1 2.5 -7t2.5 -13t2 -13.5t1 -8.5t-0.5 -3t-2.5 -1q-3 0 -4.5 2.5t-2.5 6t-1 7.5v5t-0.5 4l-1 6t-1 5.5t-1.5 3.5q0 2 -1.5 2.5t-3.5 0.5h-2t-2 -2v-2v-4v-4v-3q0 -9 1 -18.5t1 -19.5v-12
l-2 -2l-1 -1h-1q-3 0 -5 2.5t-2 5.5l0.5 2l0.5 2v1v2v10.5t-0.5 16t-0.5 16v10.5h-2h-2q-5 0 -6.5 -3t-2.5 -8v-28q-1 -4 -4.5 -4.5t-6.5 -0.5q0 7 -0.5 16.5t1 18t7 13.5t16.5 4l1 1v17q0 3 -1.5 4t-3.5 2t-4 1.5t-3 2.5q-8 10 -10.5 22.5t-3 25t-0.5 25.5t-2 25v1v1
q0 2 0.5 3.5t2.5 1.5q3 1 5 -1.5t3 -4.5v-8.5v-12.5v-13.5v-8.5v-6t1 -9.5t2 -12t2 -11.5t3 -9t4 -5q1 0 3 0.5l2 0.5q0 26 -1 51.5t0 51.5q-1 3 -1.5 5t-0.5 5zM136 116l0.5 -1.5t0.5 -2.5q3 -3 8 -3h9q3 0 5 1.5t2 4.5q0 2 -0.5 4.5l-1 5t-2 4t-3.5 1.5q-9 0 -13.5 -3
t-4.5 -11zM168 122q0 -7 3 -10t11 -3h4q3 0 4 2v4q0 7 -5.5 10t-13.5 3q-2 0 -2.5 -1.5t-0.5 -4.5zM135 100q0 -3 2.5 -5.5t5.5 -4.5t6.5 -3t6.5 -1q1 0 3 1t2 3q0 7 -2.5 10t-10.5 3h-2t-4.5 -0.5t-4.5 -1t-2 -1.5zM170 98v-1v-2q0 -5 1.5 -7t5.5 -2q5 0 9 2t4 8v2t-1 2h-8
h-5.5t-5.5 -2zM173 66q4 1 7 1h7q8 0 12 -2.5t5 -7.5t1 -11v-12v-3v-4v-4v-2q0 -1 -0.5 -1.5t-1.5 -0.5t-3 -0.5l-2 -0.5v13q0 1 -3 1.5l-6 1l-6 1t-4 0.5t-2 -0.5t-1 -2.5t1 -3t1 -3q0 -4 -4 -4q-3 0 -4.5 2t-1.5 4v9t0.5 10.5t1.5 10t3 8.5zM123 23v13.5t1.5 14t5.5 11
t12 4.5q9 0 12.5 -4t5 -9.5t1.5 -12v-13.5v-5q-1 -1 -2.5 -1.5t-2.5 -0.5l-2 0.5t-2 1.5v14h-19v-11l-1.5 -0.5t-2.5 -0.5t-3 -0.5t-3 -0.5zM178 49v-4t3 -3h11q1 0 1.5 1t1 2.5t0.5 3v2.5q0 4 -3.5 7t-8.5 3q-2 0 -3 -1.5t-1.5 -3.5t-0.5 -4v-3zM133 50q0 -4 2 -5.5t5 -2
t6.5 -0.5h6.5q0 3 -2 7.5t-3 6.5h-2.5h-2.5q-4 0 -7 -0.5t-3 -5.5z" />
</svg>
