<?xml version="1.0" standalone="no"?>
<!DOCTYPE svg PUBLIC "-//W3C//DTD SVG 1.1//EN" "http://www.w3.org/Graphics/SVG/1.1/DTD/svg11.dtd" >
<svg xmlns="http://www.w3.org/2000/svg" xmlns:xlink="http://www.w3.org/1999/xlink" version="1.1" viewBox="-10 0 266 256">
   <path fill="currentColor"
d="M130 247q0 4 3 4q4 0 6 -3t2 -6q0 -11 -1 -21t-1 -20v-6v-4l1 -3h2h2q4 0 7.5 3t5.5 7.5t3.5 9.5t2.5 8q0 2 0.5 5t1 6.5l1 7t0.5 4.5h3h2t2 -2v-2v-3q0 -10 -2 -19t-7 -19q-2 -3 -6 -5.5t-8.5 -5t-7.5 -5t-3 -5.5t2 -4.5t5 -2t6.5 -1t6.5 -3t5 -7t2 -13.5q-6 0 -7 2.5
t-2 5.5t-3.5 6t-10.5 3q-2 0 -2.5 -0.5t-0.5 -3.5v-20q0 -3 -1.5 -3h-3.5q-3 0 -3.5 3t-0.5 7.5t0.5 8.5t-1.5 6l-1 2h-14q-3 0 -4 -3t-1.5 -6.5t-1 -6t-4.5 -2.5h-1l-1 1q-1 1 -1.5 2l-0.5 1l3 14q1 4 5.5 5t9 1t8.5 1t4 5q0 5 -2.5 7.5t-6.5 4.5t-8 4.5t-7 6.5q-2 4 -4 9
t-3 10.5t-1.5 11t-1.5 9.5v2q0 1 0.5 2.5t2.5 1.5q1 0 3 -0.5t3 -2.5q0 -1 0.5 -4.5t1.5 -7.5t1.5 -7.5t0.5 -5.5l2.5 -7.5t3.5 -9t5.5 -7.5t7.5 -3h1.5h0.5l2 8v46l-1.5 4.5t-0.5 3.5zM59 237q0 2 1 2.5t3 0.5q4 0 5.5 -2t1.5 -5v-37q0 -2 0.5 -7.5t0.5 -11.5t0.5 -11.5
t0.5 -6.5v-4v-3t0.5 -2.5t0.5 -4.5v-10.5v-15.5v-15.5v-10.5q0 -1 0.5 -3t0.5 -4t0.5 -3.5l0.5 -1.5l2 -1h22v24q0 2 -1 2.5t-3 0.5q-1 0 -2.5 -0.5l-3 -1t-2.5 -1.5t-1 -2v-12q0 -1 -1.5 -1.5t-2.5 -0.5q-2 0 -2.5 2t-0.5 4v2q1 1 1.5 4.5t0.5 4.5q1 3 3.5 4.5t5.5 2.5
t5.5 1.5l2.5 0.5v18h1.5t3 -0.5t1.5 -1.5v-13q0 -2 3 -2.5t6.5 -2t6.5 -4.5t3 -10v-8q-1 0 -2 -0.5l-1 -0.5h-1h-1l-1 0.5l-1 0.5v12l-1.5 1.5t-2.5 1.5q0 1 -1.5 1.5l-1.5 0.5l-1.5 -0.5t-1.5 -1.5v-19q0 -4 3.5 -6t7.5 -2.5t8 -0.5h7v-2q0 -2 -1 -4t-3 -2q-4 0 -8 1t-8 1
q-3 0 -3.5 -1t-0.5 -4q0 -4 2 -6.5t5 -4.5t5.5 -4.5t2.5 -7.5q0 -3 -0.5 -5t-3.5 -2t-4 2.5l-2 5t-3 4.5t-7 2q-3 0 -5 -1t-3 -2.5t-2 -3.5t-2 -5h-5q0 1 0.5 5t0.5 5q0 4 2 5.5t4 2l4 1l2 0.5v15h-26l2 -35q0 -3 5 -4.5t11.5 -3t12.5 -2.5t8 -1h4h7h7h4h4.5t7.5 -0.5
t7 -0.5h4v0q8 0 15 0.5t14 0.5h8q3 -2 3 -6q0 -1 -0.5 -2.5t-2.5 -1.5h-39q-3 1 -4.5 1h-2.5h-3h-5q-9 1 -17.5 1.5t-17.5 1t-17.5 2t-17.5 4.5q-2 2 -3 5.5t-2 6.5q-2 49 -2 98t-4 98v3zM160 123q0 6 2.5 10t6.5 6t8.5 3.5t9.5 2.5v0h1q1 0 2.5 -0.5t2.5 -0.5v-1
q0 -5 -4 -7t-8.5 -3t-8.5 -2.5t-4 -6.5q0 -3 3.5 -4l7 -2t6.5 -4t3 -9q0 -4 -2.5 -5t-5 -1t-5 -1t-2.5 -5q0 -2 2.5 -3t6 -2.5t6.5 -3.5t3 -6q0 -2 -1.5 -5.5t-4.5 -3.5h-1q-1 4 -2 7.5t-4 4.5q-9 3 -17.5 5.5t-17.5 4.5q-1 1 -4 1.5t-5 0.5q0 1 -0.5 2l-0.5 1q0 1 1 1.5
l2 1t2 2t1 4.5q0 5 -3.5 7.5t-7 4l-7 3t-3.5 3.5t1 2.5t2 0.5q2 0 4.5 -1l5 -2l5 -2t3.5 -1q4 -2 6 -7t4 -9.5t5 -8.5t10 -4l0.5 1t1.5 1q0 1 0.5 2.5t0.5 2.5l4.5 4.5l4.5 4.5v0.5v1.5q0 2 -2.5 2.5t-5.5 2t-5.5 3.5t-2.5 6zM142 73q0 2 1.5 3t2.5 1q3 0 6 -3l32 -8
q1 0 2.5 -2.5t1.5 -4.5t-1 -5t-3 -3q-1 0 -1.5 0.5l-0.5 0.5l-2 3t-2 4l-2 2q-2 0 -7.5 1.5t-11.5 3t-10.5 3.5t-4.5 4zM178 31l-4 6t-5 6q-2 1 -7.5 2t-11.5 2t-10 2.5t-4 5.5q8 0 15.5 -0.5t15.5 -2.5q1 -2 3.5 -2.5t5 -1.5t5 -2.5t3.5 -5.5q0 -1 -0.5 -2.5l-1 -3
t-1.5 -2.5t-3 -1v0z" />
</svg>
