<?xml version="1.0" standalone="no"?>
<!DOCTYPE svg PUBLIC "-//W3C//DTD SVG 1.1//EN" "http://www.w3.org/Graphics/SVG/1.1/DTD/svg11.dtd" >
<svg xmlns="http://www.w3.org/2000/svg" xmlns:xlink="http://www.w3.org/1999/xlink" version="1.1" viewBox="-10 0 266 256">
   <path fill="currentColor"
d="M114 248q0 1 2 1.5t3 0.5q2 0 3 -2t1.5 -4t1 -4.5t0.5 -3.5l4 3h3h4h7t11 -0.5t12.5 -1t11.5 -1.5t8.5 -2t3.5 -3l-0.5 -0.5t-1.5 -0.5q-3 -1 -7 -0.5t-8 0t-6 -2.5t-2 -7q0 -4 2 -5t5.5 -2t7 -1.5t5.5 -2.5q3 3 5 9.5t3.5 13t3 11.5t3.5 5q3 0 4 -2t1 -5q0 -5 -1 -10.5
t-3 -11t-3.5 -10.5t-3.5 -11q0 -1 -2 -2.5l-4 -3t-3.5 -3l-2.5 -2.5t-3.5 -1.5t-4.5 -1t-4.5 -0.5h-2.5q-1 0 -1.5 -1t-0.5 -2v-2v-1v-2v-3q9 -3 15 -4.5t10 -4t6 -8t2 -16.5v-9q-2 -4 -6.5 -6t-9.5 -3t-9.5 -0.5t-7.5 0.5q-1 -2 -1.5 -3.5t-0.5 -3.5q0 -3 4.5 -4.5t10.5 -3
t11.5 -3.5t8.5 -6q0 -5 0.5 -9t0.5 -8v-3.5t-1 -2.5t-2 -1h-2h-2q-2 0 -3.5 0.5t-1.5 1.5v19q0 1 -2 2t-4.5 1.5l-5 1l-2.5 0.5q-4 0 -6 -1.5t-2 -5.5t1.5 -6t4 -3.5t5.5 -3.5t4 -4q0 -1 0.5 -2.5t1 -3.5t0.5 -4v-2v-3q0 -3 0.5 -4.5t1.5 -3t3 -1.5h20q1 0 2 -1t1.5 -3
t0.5 -3.5v-1.5q-12 0 -23.5 1.5t-24.5 1.5q-1 0 -6 0.5t-11 0.5t-11.5 0.5t-6.5 0.5h-5h-3q-2 0 -4 0.5t-4 1.5v1q0 1 0.5 2t1.5 1h29v22q0 3 1.5 4.5t4 2.5t4.5 2t3 4v2t-0.5 4.5t-0.5 4v2.5h-3t-4.5 0.5t-4.5 0.5h-3q-5 -1 -8 -3t-5 -5.5t-2 -7t-0.5 -6.5t-1.5 -5t-3 -2
q-3 0 -4 2t-1 5q0 4 0.5 8.5t1.5 8t3.5 6.5t7.5 4q1 0 5 0.5l8 1t8 0.5t5 1q3 1 3 4v5v2.5t-3 0.5q-1 0 -4 0.5t-6.5 1t-6.5 1t-4 0.5q-3 2 -4 4.5t-2 6.5t-1 7.5v5.5v2v2v3.5v1.5q3 6 8 8.5t10 4t9 2t4 4.5t-2 5.5t-5.5 2.5l-7 2t-5.5 2q-11 10 -17 24t-6 29v5zM67 235
q0 2 1 5.5t4 3.5q2 0 3.5 -2.5t2 -5.5t0.5 -6v-4v-26v-28t0.5 -28t1.5 -27q1 -3 4 -3t5 2.5t3 5.5t1.5 6t0.5 4v5v9v8v5v13t0.5 11.5t0.5 11v11.5l1 1l1 1h1q1 0 3 -2.5t2 -4.5v-53q-1 -5 -1 -10.5t-1 -11t-2.5 -10.5t-4.5 -8t-5.5 -3.5t-4.5 -1.5t-3 -2.5t-1 -6.5v-5
q2 -3 4 -4t5 -1q7 -1 10.5 -5t4.5 -9.5t1 -12v-12.5v-3t-0.5 -4.5t-0.5 -3.5v-3t-1 -1.5t-2 -0.5q-3 0 -4 3v6.5t-0.5 9.5t-1 9.5t-0.5 6.5q0 5 -2 8t-8 3q-3 0 -4 -0.5t-1 -4.5v-3q0 -3 0.5 -9.5t1 -13.5t1 -13.5t0.5 -9.5l-2 -9h-6l-0.5 1t-0.5 2.5t-0.5 3t-0.5 2.5v17
v3.5t-0.5 5.5t-0.5 5.5v3.5v17q0 2 -2 2h-2q-4 0 -7 -3t-3 -8v-33q0 -1 -1 -1.5t-2 -0.5q-2 0 -3.5 1.5t-1.5 3.5v3q0 2 0.5 7t0.5 10.5t0.5 10.5t0.5 7q2 6 4.5 8t5 3l5 2t4.5 4v5q0 5 -2 8t-5 5t-5.5 4.5t-3.5 6.5q-6 22 -9.5 46t-3.5 47q4 0 7 -1.5t5 -4.5q0 -2 -0.5 -5
t-0.5 -7t0.5 -7.5t0.5 -4.5q0 -3 0.5 -11t1.5 -16.5t2 -16.5t2 -11l0.5 -2l1 -4t2 -3.5t2.5 -1.5q2 0 3.5 3t2 6.5t0.5 7.5v5q0 24 -2.5 48.5t-2.5 49.5zM153 190q1 0 1.5 1.5l1 3t0.5 3v1.5v6q-1 1 -2.5 1.5t-2.5 1.5l-2.5 0.5t-4.5 1l-4 1t-3 0.5v2v1t2 1h15q1 0 1.5 1
l0.5 1v5v4t-2 4q-6 0 -13.5 1.5t-14.5 1.5q0 -3 0.5 -6.5t1.5 -6t2.5 -6t2.5 -7.5t2.5 -6.5l1.5 -2.5l16 -8v0zM165 205q0 -1 -0.5 -3.5t-1.5 -3.5v-2q0 -2 2.5 -3t4.5 -1q6 0 10 4.5t4 9.5h-0.5h-1.5h-3.5t-5 -0.5t-5 -0.5h-3.5zM135 155q0 -2 1.5 -3t3 -1.5t3.5 -0.5h3
q6 0 8.5 1t2.5 7q0 2 -0.5 4t-2.5 3l-2.5 0.5l-2.5 0.5q-4 0 -9 -3t-5 -8zM165 156q0 -6 4 -7t9 -1h4h3q2 1 2 2.5v2.5q0 3 -1.5 5t-4 3t-5.5 1h-6q-4 0 -4.5 -1t-0.5 -5zM134 139q0 -3 2 -4.5t5.5 -3t6.5 -2t5 -0.5q4 0 4 2.5v5.5v5l-0.5 0.5l-0.5 0.5h-19q-2 0 -2.5 -1.5
t-0.5 -2.5zM165 135v-2v-2q2 -2 5 -2h5q5 0 9 1.5t4 8.5v1q-4 1 -8.5 1.5t-8.5 0.5t-5 -2t-1 -5zM149 59v-2t2 -3q5 0 9 -0.5t8 -0.5h3t2 1v16q0 2 -2 3.5t-5 2.5t-5.5 1.5t-3.5 0.5q-3 0 -4.5 -2t-2 -5l-1 -6t-0.5 -6zM126 32q0 2 2 3t4 1q15 0 31 -2t31 -3q3 0 3.5 -1.5
t0.5 -2.5t-0.5 -2.5t-1.5 -1.5h-9q-1 0 -6 0.5t-11.5 1t-14.5 1t-14.5 1.5t-10.5 2.5t-4 2.5z" />
</svg>
