<?xml version="1.0" standalone="no"?>
<!DOCTYPE svg PUBLIC "-//W3C//DTD SVG 1.1//EN" "http://www.w3.org/Graphics/SVG/1.1/DTD/svg11.dtd" >
<svg xmlns="http://www.w3.org/2000/svg" xmlns:xlink="http://www.w3.org/1999/xlink" version="1.1" viewBox="-10 0 266 256">
   <path fill="currentColor"
d="M70 248q0 2 0.5 2.5t2.5 0.5q3 0 5 -2t2 -5v-79q1 -3 1 -9q0 -7 0.5 -14t1.5 -12.5t4 -5.5t4.5 2t2 4.5t1 5.5t0.5 5v85q0 3 0.5 3.5t2.5 0.5t3 -1.5t1.5 -4t1 -4.5t0.5 -3v-24v-18.5t-0.5 -18.5t-1.5 -18.5t-3 -18.5q-1 -1 -3.5 -2t-5.5 -2t-5 -2.5t-2 -3.5q0 -7 2 -10
t4 -4.5t5 -2.5t5 -5q4 -5 5.5 -11.5t2.5 -13.5t1 -13v-13q-1 0 -4 0.5t-3 1.5q-1 12 -2.5 22t-3.5 21q-1 1 -2.5 2t-3.5 1h-1l-1 -0.5t-2 -1.5v-16q0 -11 1 -22t1 -23v-7l-1.5 -0.5t-2.5 -0.5l-1.5 0.5t-2.5 0.5l-0.5 0.5l-1.5 1.5q-1 8 -1 17t0.5 17.5t0 17.5t-2.5 18
l-1.5 0.5l-1.5 0.5h-1v0q-4 -3 -6 -8t-3 -11t-1 -11.5t-0.5 -10t-2.5 -7t-7 -2.5v6v9t0.5 9.5t0.5 6.5q0 1 0.5 3.5l1 5t1.5 5t1 4.5q3 5 7 6t7 2.5t5 4.5t2 12q0 3 -2.5 4t-5 1.5t-5.5 1.5t-4 3q-5 7 -8 19.5t-4.5 26.5t-2 27.5t-0.5 22.5v2v3.5v3.5v2q1 1 2.5 2t3.5 1h1
l1 -1l2 -2q3 -23 3.5 -46t3.5 -46q1 -2 1 -4t1 -4t2.5 -3.5t4.5 -1.5q2 0 3 1.5t1 3v3.5v3q0 29 -2 57t-2 57zM156 248q0 3 3 3q4 0 6.5 -3t2.5 -7q0 -19 -2 -38t-2 -38v-4.5v-3.5l1 -4h1.5h2.5q5 0 9 5.5t5.5 13t2.5 15t1 10.5q1 2 1 6.5t0.5 10t1 10t0.5 5.5q1 1 2 2.5
t2 1.5v0q3 0 4 -1.5t1.5 -3.5t0.5 -4v-4v-5l-11 -57q-1 -6 -5.5 -7.5t-9 -2.5t-7.5 -2.5t-3 -6.5v-2.5v-2.5q8 -2 14 -2.5t10.5 -2.5t6.5 -7t2 -15q5 -3 7.5 -6t3.5 -7t1 -8v-11v-3v-3l-1 -1.5t-2 -1.5q-3 -1 -4 1t-2 4.5t-4 5t-9 2.5q-2 0 -3 -1t-1.5 -2.5t-2 -2.5t-2.5 -1
l-0.5 0.5t-1.5 0.5v2.5t-0.5 4.5t-0.5 4v3q0 7 1 9.5t3 3.5t4.5 2.5t5.5 5.5q0 6 -1.5 9.5t-4 5t-6.5 2t-10 0.5q-1 0 -2.5 -0.5t-0.5 -3.5v-14v-10v-8.5t0.5 -9.5t0.5 -11q1 -2 2.5 -3t3.5 -1.5t4 -0.5h3q2 -1 4 -5.5t3 -10.5t1.5 -11.5t0.5 -8.5v-8l-0.5 -0.5l-0.5 -0.5
q-2 -1 -5.5 -1h-3.5v13q0 1 -1 1t-3 0.5t-4 0.5h-4h-7h-7q-1 0 -2.5 -0.5t-1.5 -1.5v-11l-1.5 -1t-2.5 0l-1.5 1t-1.5 2v29q0 2 1.5 4l3 4t2.5 4t1 3v1l-1 0.5t-1 1.5q-1 4 -2.5 6.5t-3 4t-4.5 2t-7 0.5h-6q-2 -2 -2.5 -5.5t-0.5 -6.5h-1h-1h-1.5t-1.5 2v27q0 1 2.5 3.5
l3.5 3.5q1 0 2 0.5t2.5 0.5t2.5 0.5l1 0.5q1 0 1.5 0.5l0.5 0.5v2.5t0.5 4t0.5 4v2.5t0.5 2.5t0.5 3.5t0.5 3t1.5 1h19q1 0 1.5 1t0.5 2v2v3q0 4 -2 6.5t-5 4.5t-5.5 4t-5.5 4q-2 4 -5 13t-5 19.5t-3 20t-1 14.5q5 0 6.5 -1.5t3.5 -5.5q0 -2 1 -8t2 -12.5t2 -12.5t1 -9
q1 -1 1.5 -4.5t1.5 -7t3 -6.5t5 -3t4.5 3t1.5 5v73q0 1 -0.5 5t-0.5 5v2zM138 112q0 -3 2 -4.5t4 -2.5t4 -2.5t2 -4.5v-30q0 -1 0.5 -1.5l0.5 -0.5q2 0 4 2t2 3v7v11v10.5t-0.5 11t-0.5 12.5q-1 1 -2.5 2t-3.5 1q-6 0 -9 -4t-3 -10zM121 92q0 -1 1 -2.5t3 -2.5h2t4.5 -0.5
t4.5 -0.5h2h3q3 0 3.5 1t0.5 3q0 4 -2.5 7t-6.5 3q-1 0 -3.5 -0.5t-5 -1.5t-4.5 -2.5t-2 -3.5zM183 95v-8l1 -0.5t2 -0.5q0 -1 1 -1t2.5 -0.5t3.5 -0.5h2h1q2 0 3 1.5t1 3.5q0 1 -0.5 2.5l-1 3t-1.5 3t-2 0.5zM146 48q0 -2 3.5 -4t8 -3.5t9 -2t6.5 -0.5q1 0 2 0.5t1 1.5v11
q0 1 -0.5 1.5l-0.5 0.5q-1 1 -3 2l-2 1h-17q-1 0 -3.5 -2.5l-3.5 -3.5v-0.5v-1.5z" />
</svg>
