<?xml version="1.0" standalone="no"?>
<!DOCTYPE svg PUBLIC "-//W3C//DTD SVG 1.1//EN" "http://www.w3.org/Graphics/SVG/1.1/DTD/svg11.dtd" >
<svg xmlns="http://www.w3.org/2000/svg" xmlns:xlink="http://www.w3.org/1999/xlink" version="1.1" viewBox="-10 0 266 256">
   <path fill="currentColor"
d="M62 244q0 2 0.5 3.5t2.5 2.5q2 0 3 -1t2.5 -3t2 -3.5t0.5 -2.5v-48v-3.5t0.5 -7t0.5 -7v-3.5v-5q0 -3 0.5 -8l1 -10t1 -9.5t1.5 -7t3 -2.5t4 2t2 4q1 1 1 3t0.5 4.5t0.5 5v2.5v5v9v10v8v5v7v5.5v3.5l-2 3l2 17l0.5 1t1.5 1l1.5 -1l1.5 -1v-3t0.5 -4t0.5 -4v-2v-32v-32
q0 -6 -0.5 -11t-2 -9t-5 -6.5t-9.5 -2.5l-1.5 -3t-0.5 -2q0 -7 1 -10.5t2 -5t3 -2l4 -1t4.5 -2t4.5 -5.5q3 -4 4 -10.5t1.5 -13.5t0.5 -14v-11h-6q0 12 -1.5 23.5t-4.5 22.5q-2 4 -6 4q-2 0 -3 -0.5t-2 -1.5v-16q0 -13 0.5 -25t0.5 -24v-5.5t-3 -2.5h-3t-1 2q-1 2 -1.5 9
t-1 14.5t-1 14t-0.5 9.5v4.5v6.5v7v4q0 3 -0.5 3.5t-2.5 0.5q-4 0 -6 -4t-2.5 -9.5t-0.5 -12t-0.5 -11.5t-2 -9t-4.5 -4q-2 0 -3.5 1.5t-1.5 3.5q0 1 0.5 1.5l0.5 0.5q0 3 0.5 8.5t1.5 11.5t1.5 11t0.5 7l0.5 2t1.5 2q2 3 5 5t5.5 3t4.5 3t2 6q0 9 -2.5 12.5t-6 6t-7 5.5
t-5.5 10q-2 10 -3 21.5t-1.5 22.5l-1 22t-0.5 20v3q0 2 0.5 3t3.5 1q1 0 2.5 -1t1.5 -3l5 -74q0 -2 1 -5.5t2 -7.5t2.5 -6.5t3.5 -2.5t2.5 0.5l1.5 1.5v10q0 26 -2.5 51.5t-2.5 50.5zM91 244q0 3 3 3q6 0 11.5 -7t9.5 -16t8 -17t8 -9q1 -1 3 2.5t4.5 8t4 9t2.5 5.5l1 1.5
t2 3.5t2 3.5l1 1.5l1 1.5t1.5 3.5t1.5 3.5l1 1.5h3q4 0 4.5 -1t0.5 -5t-1.5 -7.5t-4 -6.5l-5 -6t-3.5 -6q-3 -4 -4 -7t-2 -5.5t-3 -5.5l-4 -6v-11q0 -13 1.5 -25.5t1.5 -24.5v-4v-4t-1.5 -1.5t-2.5 -0.5l-1 0.5l-1 0.5q0 1 -0.5 2.5t-0.5 4t-0.5 4t-0.5 2.5t-0.5 3l-0.5 2
q-1 7 -0.5 14t0.5 14t-1 13.5t-4 12.5q-2 3 -5 7t-6.5 9.5t-8 11.5t-8 11.5t-5.5 9.5t-2 6zM173 128q-5 0 -6.5 2.5t-1.5 6.5v49q0 6 3.5 8.5t7.5 3.5t9 1h8t8.5 -2t7.5 -6q1 -10 1 -21v-20v-25q-1 -1 -2 -1.5t-3 -0.5q-1 0 -2 0.5t-1 1.5v5v6v7v4q0 5 -1.5 7t-5.5 2
q-1 0 -2.5 -0.5t-1.5 -1.5v-12v-12v-10.5t0.5 -11.5t1.5 -13q0 -2 0.5 -6l0.5 -4l21 -3q2 -1 2 -2.5v-2.5v-2t-2 -2h-16q-3 0 -4 -2.5t-1 -4.5q0 -6 1 -11t1 -11v-7q-2 -2 -6 -2q-1 0 -2.5 0.5t-1.5 3.5v10.5t-0.5 16.5t-0.5 16.5v10.5q-1 7 -1 15v16t-1 15.5t-3 14.5
l-1.5 1.5t-2 0t-2.5 -0.5h-1v-27zM153 132h-2t-1 2v53q0 1 0.5 1.5l0.5 0.5h1q1 0 2.5 -2t1.5 -3v-50q0 -2 -1 -2h-2zM172 175v-5t2 -5q4 -1 7.5 -1h8.5h2h4t3 1t1 3v1v3v4.5t-0.5 4.5t-0.5 3q-1 2 -3.5 3.5t-5 1.5h-5.5h-5t-4.5 -1t-2.5 -3.5t-1 -5v-4.5zM113 133
q-2 0 -2.5 1t-0.5 3v47q0 1 0.5 1.5l0.5 0.5q3 0 4 -3t1 -6q0 -2 0.5 -7t1 -10.5t0.5 -10v-5.5q0 -3 -1 -7t-4 -4zM103 116v1l2 1h1q4 0 7.5 -3t7 -6.5t7.5 -7t8 -3.5q5 0 7.5 3t5 6.5t4.5 6.5t6 3q3 0 4 -1t1 -4q0 -4 -3.5 -7.5t-8 -6t-7.5 -6t-3 -8.5q0 -15 1.5 -30.5
t1.5 -30.5v-7q0 -1 -0.5 -1.5t-1.5 -0.5v0h-1q-2 0 -4.5 1t-2.5 4v18v9.5t-0.5 13t-0.5 13v9.5q-2 4 -6.5 8.5t-10 9t-10 8.5t-4.5 8zM154 83q0 2 0.5 3.5t2.5 1.5t3.5 -1.5t1.5 -3.5q1 -2 1 -7.5t0.5 -12t1 -12t0.5 -7.5v-2q0 -2 -1.5 -4.5t-4.5 -2.5q-2 0 -3 2
q0 3 -0.5 9.5t-0.5 13t-0.5 13t-0.5 9.5v1zM111 85l1 0.5l1 0.5l1 1q2 0 3.5 -5.5t2.5 -12t1 -12.5v-8v-10q0 -1 -1 -1.5t-2 -0.5t-2 0.5t-2 1.5q0 10 -1.5 19t-1.5 18v9z" />
</svg>
