<?xml version="1.0" standalone="no"?>
<!DOCTYPE svg PUBLIC "-//W3C//DTD SVG 1.1//EN" "http://www.w3.org/Graphics/SVG/1.1/DTD/svg11.dtd" >
<svg xmlns="http://www.w3.org/2000/svg" xmlns:xlink="http://www.w3.org/1999/xlink" version="1.1" viewBox="-10 0 266 256">
   <path fill="currentColor"
d="M184 160q3 0 4.5 2.5t2 5.5l1 6t0.5 4v68q0 2 1.5 3.5t2.5 1.5q2 0 3.5 -1.5t2.5 -3t1.5 -3.5t1.5 -4q-1 -2 -1 -7.5t-0.5 -12.5t-1 -15t-0.5 -15t-0.5 -12.5t-0.5 -7.5t0.5 -5.5t0 -6.5t-2.5 -5.5t-5 -2.5h-1q-1 1 -3.5 1t-6 0.5t-6 1t-3.5 0.5q-1 1 -3 5t-3.5 8.5
t-3 7.5l-1.5 3h-11l-0.5 -3t-1 -4.5t-0.5 -4.5t-1 -5.5t-2.5 -4.5t-4.5 -2q-10 0 -14.5 2.5t-6.5 6t-2.5 9.5t-1.5 13v67q6 0 8 -6.5t2.5 -16.5t0 -21.5t-0.5 -21t1.5 -16t6.5 -6.5q3 0 4.5 2t2 5.5l1 7t2 7t4.5 5.5t9 2q7 0 10.5 -2.5t5 -5.5t2 -7t1.5 -7.5t2.5 -6
t4.5 -2.5zM73 246q1 1 2.5 1.5t2.5 0.5q2 0 3.5 -1.5t2 -4t1 -4.5t0.5 -3v-102l1 -21q1 -1 2 -1.5t2 -0.5q3 0 4 4t2 6q0 1 0.5 3.5t0.5 4.5t0.5 4t0.5 3v9v14t0.5 16.5t0.5 16v14v9.5l0.5 0.5t1.5 0.5l1 -0.5t2 -0.5q0 -1 0.5 -2.5t1 -4t1 -4t0.5 -2.5v-2v-3
q0 -1 -0.5 -6.5t-0.5 -12t-0.5 -12t-0.5 -6.5q0 -12 0.5 -24.5t-3.5 -24.5q-1 -3 -3.5 -5t-5.5 -3.5t-5 -3t-2 -5.5t1.5 -5.5t3.5 -2.5t4.5 -2t5 -3t4.5 -7.5t3 -12t1 -12.5v-9t-2 -3.5t-4 -0.5h-2t-2 2v4.5t-0.5 8t-0.5 8v4.5q-1 2 -1 5t-3 5q-1 1 -3.5 2l-2.5 1l-2 -1v-47
q1 -1 1.5 -4t0.5 -4v-2q0 -2 -1 -4t-4 -2q-2 0 -3 0.5t-3 2.5l-2 1v57l-0.5 1.5t-1.5 1.5v0q-4 0 -5.5 -1.5t-3 -4.5t-1.5 -6t-1 -6v-4t-0.5 -6t-0.5 -6v-4q-1 -3 -2.5 -3.5t-3.5 -0.5q-5 0 -5 7q0 3 0.5 6t0.5 7q1 5 1.5 11.5t2.5 11.5t6.5 8t11.5 2q2 2 2 4v4q0 4 -1.5 6
t-4.5 3.5t-6 2.5t-5 3q-3 3 -4.5 11t-2 17t-0.5 17.5t-1 12.5v53q0 2 1.5 2.5t2.5 0.5q3 0 4 -1t1 -4v-6v-10v-10.5v-6.5q0 -1 0.5 -3.5t0.5 -5.5t0.5 -5.5t0.5 -3.5v-6v-11t1 -12.5t2 -12.5t3 -9.5t5 -3.5h2t1 2v44l-1 2.5t-1 3.5l0.5 2.5t0.5 5.5t0.5 5t0.5 3v3
q0 10 -1 19.5t-1 19.5v24zM121 141q0 2 1.5 3.5t3.5 1.5q7 0 7 -8h62q2 0 4 -2.5t2 -4.5v-1l-3 -3h-5q-6 0 -11 0.5t-10 0.5h-1q-1 0 -2.5 -0.5t-2.5 -0.5v-2.5v-1.5v-2q0 -2 0.5 -3l1 -2t1.5 -1h21q2 0 3 -2t1 -4q0 -1 -0.5 -2.5t-1.5 -1.5h-24q-2 0 -2 -1.5v-2.5t1 -4
t2 -3h20q3 0 3.5 -1.5t0.5 -3.5q0 -9 -4 -13.5t-8.5 -6.5t-8.5 -3t-4 -4v-1q2 -2 6.5 -3l9 -2t7.5 -3t2 -7l-1 -1l-1.5 -1.5t-2.5 -2t-3.5 -3.5t-3.5 -3t-2 -2q-1 -1 -3 -4t-4.5 -6t-5 -5.5t-4.5 -2.5q-3 0 -5 0.5t-3 2l-2 3t-2 4.5l-22 23v1q0 2 2 3.5t5 3t5 3t2 4.5
q0 2 -1.5 4t-4 4.5l-5 5t-3.5 5.5q-2 4 -3.5 12t-2 16.5l-1 17t-0.5 13.5zM133 123q0 -3 1.5 -4.5t4.5 -2t6 -0.5h5q7 0 7 6q0 2 -1 4t-4 2h-18q-2 0 -1.5 -2t0.5 -3zM134 102v-2t0.5 -2.5t1.5 -2.5t3 -1l16 2q1 0 1.5 3t0.5 4q0 3 -1.5 3.5t-3.5 1t-4.5 0.5h-3.5
q-4 0 -7 -0.5t-3 -5.5zM139 83q0 -1 1.5 -3.5t3.5 -4.5t4 -3.5t2 -2.5l1 -1h1q2 0 2.5 1.5t0.5 3v3.5v2v3.5v3.5q-2 1 -4.5 1.5t-5.5 0.5q-2 0 -4 -0.5t-2 -3.5zM165 78l1 -1l2 -2v0q1 0 3 1t3.5 2t2.5 2.5t1 2.5t-0.5 1.5l-0.5 0.5q-1 0 -4 0.5t-4 0.5q-3 0 -4 -3t0 -5z
M142 48q0 -1 0.5 -2t1.5 -1q1 -1 2.5 -3t3.5 -4l4 -4t3 -2h1q2 0 4.5 1t5 2.5t4.5 4t2 5.5q0 2 -2 3.5t-4 1.5t-3 -1.5l-2 -3l-2 -3t-3 -1.5l-0.5 1l-0.5 1q-1 1 -1 2.5t-0.5 3t-0.5 3v2.5h-1.5h-1.5q-3 0 -6.5 -1.5t-3.5 -4.5z" />
</svg>
