<?xml version="1.0" standalone="no"?>
<!DOCTYPE svg PUBLIC "-//W3C//DTD SVG 1.1//EN" "http://www.w3.org/Graphics/SVG/1.1/DTD/svg11.dtd" >
<svg xmlns="http://www.w3.org/2000/svg" xmlns:xlink="http://www.w3.org/1999/xlink" version="1.1" viewBox="-10 0 266 256">
   <path fill="currentColor"
d="M75 245q0 3 0.5 4.5t3.5 1.5q2 0 3.5 -1.5t2.5 -3.5t1.5 -4.5t0.5 -4.5q0 -3 -0.5 -9.5t-0.5 -15.5v-17v-18q0 -9 0.5 -15.5t0.5 -9.5v-7v-10.5t0.5 -10t0.5 -6.5h1h1q4 0 5.5 5t2.5 11.5t1 13v8.5q0 5 -1 10t-1 10q0 8 0.5 14.5t1 12.5t0.5 12.5v14.5q1 2 1.5 2.5
t1.5 0.5q3 0 3.5 -2.5t1.5 -4.5v-9v-12.5v-12.5v-8q0 -9 0.5 -17t0 -15.5t-1 -14.5t-1.5 -16q0 -1 -0.5 -3.5l-0.5 -2.5q-2 -3 -5 -3.5t-5.5 -1.5t-4 -2.5t-1.5 -5.5v-7.5t1 -8.5q5 0 7.5 -1t4 -3t2.5 -4.5t2 -6.5q0 -2 0.5 -6.5t1.5 -9.5t1 -9.5t1 -6.5v-4q0 -4 -1 -5
t-4 -1q-2 0 -4.5 0.5t-2.5 2.5v34q0 1 -1 4t-2 4l-1 2h-1h-1l-0.5 -0.5l-1.5 -1.5v-3t-0.5 -5t-0.5 -5v-3v-1v-1q0 -3 0.5 -8t1 -9.5t1 -9.5t0.5 -9v-2v-2.5t-0.5 -2.5t-1.5 -1h-9v64l-1 1.5t-2 1.5l-0.5 0.5l-0.5 0.5q-3 0 -5 -3t-2 -6l-3 -39q0 -1 -2.5 -2t-4.5 -1
t-2.5 1.5t-0.5 3.5v3q0 2 0.5 6t1 8.5t1 8t0.5 4.5q1 2 1 5.5t1 7t3 6.5t5 3.5t6 0t5 2.5v4t-0.5 6l-1 6t-1.5 5q-8 0 -12.5 3.5t-6 9t-2 12t-1.5 13.5q-2 13 -3 24.5t-1 23.5v15t2 15q1 1 2 1h2h2t2 -1q1 -13 1 -25.5v-25t1 -24.5t4 -24q1 -1 1.5 -2.5t1.5 -3t2.5 -2.5
t2.5 -1q2 0 3 3.5t1 5.5q0 30 -2 59t-2 59zM181 173q2 0 5 2.5t5.5 5.5t4 6t1.5 5v55q0 2 1.5 2h2.5q3 0 5 -3.5t2 -6.5v-124q0 -12 -2.5 -18.5t-7.5 -10t-13 -5t-18 -2.5l-1 -1l-0.5 -1.5t-0.5 -3.5v-4v-3v-8v-10.5t2 -9.5t7 -4q2 0 3 6t3.5 13t6.5 12.5t12 5.5h4t2 -4
q0 -2 -2.5 -4.5t-6 -5t-6 -6t-2.5 -8.5q0 -4 3 -4t5 1t5 1t4.5 -1t1.5 -4v-3t-2 -2q-11 -3 -22 -4.5t-22 -1.5q-2 0 -5 0.5l-3 0.5q-2 0 -6.5 1t-9.5 2t-9.5 2t-6.5 1q-1 2 -1.5 4.5t-0.5 4.5q5 0 9.5 -1t9 -2.5t9.5 -2.5t9 -1v44l-3 3q-5 1 -10 1.5t-9 2.5t-7.5 5.5
t-5.5 9.5q1 30 0 60t-1 61v21q0 2 1.5 2h2.5q2 0 3 -0.5t2 -3.5v-42l0.5 -2t0.5 -4t0.5 -4t0.5 -3q1 -1 2 -3t2 -4.5t2.5 -4t3.5 -1.5q3 0 4.5 2t3 5.5t3.5 6t6 3.5v11v12q0 1 -0.5 2.5t-0.5 4t-0.5 4.5t-0.5 3v3.5t0.5 5.5t0.5 5.5t1 3.5q0 1 1 1.5t2 0.5h1l3.5 -3.5
l3.5 -3.5v-4v-6.5v-6.5v-4v-16t-2 -17l11 -12h1h2zM189 161q0 -3 1.5 -4.5t4.5 -1.5h1q0 1 0.5 5t0.5 5t-0.5 4t-0.5 4q-3 -2 -5 -5.5t-2 -6.5zM148 162q0 -4 3 -7l5 -5l0.5 0.5l1.5 1.5v1.5t0.5 3t0.5 3.5v3v1v0q0 3 -1 5.5t-4 2.5q-1 0 -2 -1t-2 -3t-1.5 -3.5t-0.5 -2.5z
M129 164q0 -2 1 -3t3 -1t3 0.5t1 2.5q0 3 -2 4.5t-4 1.5t-2 -2v-3zM167 160v-4t2 -3q4 0 6 3.5t2 6.5t-2.5 4.5t-5.5 1.5q-1 0 -1.5 -1.5t-0.5 -3v-2.5v-2zM129 136l2 -2t4 -4.5t4 -4.5l2 -2q3 0 5.5 1t4.5 3t3.5 4t1.5 5v4l-1.5 0.5t-2 1t-1.5 2t-3 3t-3 3t-2 2.5h-1h-1
q-3 0 -5 -1.5t-3.5 -4t-2.5 -5t-1 -5.5zM165 138v-1h1l14 -16v0h2q0 1 0.5 1.5l0.5 0.5l1 1.5l2 3t2 2.5l1 1q2 2 3.5 2h2.5t1.5 1.5t0.5 4.5q0 1 -2 3t-5 4.5t-5.5 4l-2.5 1.5q-2 0 -4.5 -1.5t-5.5 -4t-5 -4.5t-2 -4zM188 111q0 -3 2 -5.5t5 -2.5q1 0 1.5 1t1 3t0 3.5
l-0.5 1.5v3v3.5t-0.5 3t-2.5 1.5q-1 0 -2.5 -1t-2 -3l-1 -4t-0.5 -4zM135 105v0q1 0 2 1l2 2v0.5v0.5v0.5v0.5l-8 8v-12l1 -0.5t2 -0.5h1zM150 110q0 -3 2 -6t6 -3v14l-1.5 1.5l-1.5 1.5h-1q-2 0 -3 -3t-1 -5zM165 105q3 0 6 2t3 5q0 2 -1.5 4t-3.5 2t-2.5 -1.5t-1 -4
t-0.5 -4.5v-3zM167 94v-1q1 -2 2 -2h20l2 2q-2 2 -5.5 6t-7.5 4l-2 -1t-4 -2.5t-3.5 -3t-1.5 -2.5zM150 91h3.5t2.5 3v1q-5 1 -9 2t-8 1q0 -2 1 -3.5t2.5 -2.5t3.5 -1h4zM140 43q-3 2 -3.5 3l-1 2t-1 2.5t-2.5 3.5q-1 2 -3 3.5t-3.5 3t-3 2.5l-4.5 3q-1 1 -1.5 3.5t-0.5 3.5
q6 0 11 -2t8.5 -5.5t6 -8t2.5 -10.5q0 -1 -0.5 -1h-0.5q0 -1 -1 -2t-2 -1z" />
</svg>
