<?xml version="1.0" standalone="no"?>
<!DOCTYPE svg PUBLIC "-//W3C//DTD SVG 1.1//EN" "http://www.w3.org/Graphics/SVG/1.1/DTD/svg11.dtd" >
<svg xmlns="http://www.w3.org/2000/svg" xmlns:xlink="http://www.w3.org/1999/xlink" version="1.1" viewBox="-10 0 266 256">
   <path fill="currentColor"
d="M120 197q0 5 2.5 8t6 4.5t7.5 2t7 1.5q2 1 2.5 2.5t1 3.5l1 4l0.5 2q2 5 6 10t9 8.5t10.5 6t11.5 2.5q2 0 4 -0.5t2 -3.5q0 -4 -4 -6t-9 -4t-9 -4t-4 -7t2 -8.5t5.5 -5.5t8 -3.5t7.5 -3.5t5.5 -5.5t2.5 -7.5q0 -7 -3.5 -10.5t-7.5 -5.5t-7.5 -3.5t-3.5 -5.5q0 -3 1.5 -5
t3.5 -3.5t4.5 -2t5.5 -0.5q2 0 4 1.5l4 3t4.5 3t5.5 1.5q1 0 2.5 -1t1.5 -3q0 -3 -2 -4.5t-4.5 -3t-4.5 -3t-3 -4.5q0 -9 -1 -14.5t-3.5 -8.5t-8 -4t-16.5 -1h-18h-17q-4 0 -4 3q0 1 1 2t3 1q1 0 6 0.5t10 0.5t9.5 0.5t6.5 0.5h6.5t7 1t6 2.5t2.5 6.5q0 3 -1 4.5t-4 1.5
q-1 0 -2 -0.5l-1 -0.5q-1 0 -2 -0.5l-2 -1t-2.5 -1l-1.5 -0.5q-9 -2 -19 -3.5t-20 -1.5h-3.5t-4.5 0.5t-3.5 1.5t-1.5 3v0q0 1 1 2t2 1q13 0 27 0.5t27 4.5l0.5 0.5t0.5 1.5t-1.5 3.5t-2.5 2.5h-42q-1 0 -2.5 1t-2.5 2q2 3 5.5 4t5.5 1v3q0 5 -2.5 7.5t-6 5.5t-6 7t-2.5 11z
M73 244v2q0 1 0.5 2.5l0.5 1.5v0.5t1 0.5q4 0 5.5 -3t2.5 -7q2 -26 2.5 -51.5t0.5 -51.5q0 -2 0.5 -5.5t0.5 -7.5t-0.5 -7.5t-0.5 -5.5q0 -3 1 -3.5t3 -0.5q3 0 6 3t3 6v102q5 0 7 -3.5t2 -8.5q0 -4 -1 -7.5t-1 -7.5q0 -8 1 -15t1 -14q0 -14 -0.5 -29t-4.5 -28
q-2 -3 -4.5 -4.5t-5 -2.5t-4 -3t-1.5 -6q0 -3 1.5 -5t4 -4t5 -3.5t4.5 -3.5q5 -7 6.5 -15.5t1.5 -16.5v-2.5v-3.5l-1.5 -1.5t-1.5 -0.5q-2 0 -3 1.5t-2 3.5q0 1 -0.5 4.5t-1.5 8t-1.5 8t-0.5 4.5q-1 3 -3 5.5t-5 2.5t-4 -2t-1 -4v-3q0 -2 0.5 -8t1.5 -13t1.5 -13t0.5 -7v-2
v-1q-1 -1 -2 -3.5t-2 -3.5v0h-1l-2.5 1t-2.5 3l-3 54l-0.5 1l-0.5 1h-1q-3 0 -5 -2.5t-2.5 -6.5t-0.5 -8.5t-1 -8.5t-2 -6.5t-4 -2.5q-1 0 -1.5 0.5l-1.5 1.5v8q0 6 1 13t4 14q1 3 4 4l6 2t5 2.5t2 5.5q0 5 -2 7t-4.5 3.5t-5.5 3t-5 4.5q-4 5 -5.5 10.5t-2.5 11t-1.5 11
t-1.5 11.5q0 3 -0.5 11.5t-1 17.5t-1 17.5t-0.5 11.5v6v3t2 2q3 0 4 -2.5t2 -5.5t1 -6v-3v-7v-10v-10.5v-6.5q1 -2 1.5 -7.5t1.5 -12t2 -14t3 -13.5t4.5 -10.5t5.5 -4.5h1q0 1 1 2l2 2v7q0 23 -1 47t-2 47q-1 9 -2 17t-1 16zM154 216q-1 -9 -2.5 -18t-1.5 -18l-4 3l-3 19
l-1 1.5t-2 1.5v0q-5 0 -8.5 -2.5t-3.5 -7.5q0 -4 2.5 -7t6 -7l7 -8t4.5 -10q1 0 2.5 -0.5t3.5 -0.5t3.5 -0.5t2.5 -0.5h3q2 0 3 1.5t1.5 3.5t0.5 4v4v1q-1 2 -2 3t-2 1.5t-1.5 1.5t-0.5 4v2v6v4v4l-0.5 1.5t-0.5 3t-0.5 3.5l-0.5 2q0 1 -1 4t-3 3v0l-1.5 -1.5zM171 180
q6 0 11 3.5t5 9.5q0 5 -3.5 7t-7.5 2h-2h-1q-1 -6 -1.5 -11.5t-0.5 -10.5zM119 105q1 2 4 3h11q17 0 33 -1t33 -1q2 1 3 0t1 -3t-1.5 -2.5t-2.5 -1t-3 -0.5h-3t-4.5 -0.5t-7.5 -0.5t-7.5 0.5t-5.5 0.5q-1 -1 -1 -2v-3q0 -5 3 -6.5t8 -3.5l2 1l2 1h6h7q1 -1 2 -2.5t1 -2.5v-1
v0q-1 -4 -3 -4.5t-6 -0.5q-12 0 -23.5 2.5t-24.5 2.5h-3q-1 0 -3.5 -1l-2.5 -1q-2 0 -4.5 2.5l-3.5 3.5q0 1 1.5 2t3.5 1h24q1 0 3 1.5t2 2.5q0 3 -2.5 6.5t-5.5 3.5h-29zM131 42v3.5t0.5 5t0.5 5t1 3.5v4q0 3 0.5 5t1.5 4t3 2q3 0 4 -3t1 -5q0 -5 -0.5 -10.5t-0.5 -10.5
t2 -8t7 -3q3 0 4.5 2.5t2.5 6t1 7.5t1.5 7.5t3.5 6t6 2.5q0 -7 -2.5 -14t-2.5 -15q0 -4 1.5 -6.5t5.5 -2.5q5 0 7 5t3.5 11t3.5 10.5t8 4.5q3 0 4 -0.5t1 -4.5q0 -3 -2 -6t-4.5 -6t-4.5 -6t-2 -7t2 -5t4.5 -1.5t4.5 -1.5t2 -4q0 -1 -0.5 -2t-1.5 -1h-1.5h-2.5q-3 0 -5.5 1
t-5.5 2q-5 1 -14 2.5t-17 4t-14 7t-6 11.5z" />
</svg>
