<?xml version="1.0" standalone="no"?>
<!DOCTYPE svg PUBLIC "-//W3C//DTD SVG 1.1//EN" "http://www.w3.org/Graphics/SVG/1.1/DTD/svg11.dtd" >
<svg xmlns="http://www.w3.org/2000/svg" xmlns:xlink="http://www.w3.org/1999/xlink" version="1.1" viewBox="-10 0 266 256">
   <path fill="currentColor"
d="M145 133q0 3 -2 5.5t-5 5t-5.5 4.5t-3.5 5q-2 5 -3 10.5t-1 10.5v75q0 1 1 1.5t2 0.5q3 0 4.5 -3.5t1.5 -5.5q0 -5 -1 -9t-1 -8q0 -3 1 -6.5t5 -3.5h60q1 0 1.5 -1.5t0.5 -2.5t-0.5 -3t-2.5 -2h-33l-2 -3v-12l2 -2h22l0.5 -1t0.5 -2v0v-1q0 -1 -0.5 -2l-0.5 -1h-22l-2 -3
v-11l2 -4h22l0.5 -0.5t0.5 -1.5q1 0 1 -2v-2h-24q-1 0 -1.5 -1.5t-1 -3.5t-0.5 -3v-2q0 -1 0.5 -3t0.5 -3t1.5 -1.5t2.5 -0.5t2 0.5l1 0.5l21 10h1q2 0 4 -1.5t3 -2.5q-2 -4 -7 -6t-10 -3.5t-9 -3t-6 -4.5q1 -2 3.5 -3t4.5 -2.5l4 -3t2 -4.5q0 -4 -3 -5.5t-6.5 -3t-6.5 -5
t-3 -9.5q0 -7 0.5 -12t1.5 -9.5t3.5 -9t7.5 -9.5q0 -1 1 -2t2 -1h35q0 -3 -1 -4t-2.5 -1.5t-3.5 -0.5h-4q-1 0 -3.5 -0.5t-5.5 -0.5t-5.5 -0.5t-3.5 -0.5t-1.5 -1.5t-0.5 -2.5q0 -3 1.5 -5.5l3 -5t2.5 -5t1 -5.5t-1.5 -3.5t-3.5 -0.5t-5.5 6.5t-7 15t-7.5 17t-9 11.5
q-1 -1 -2 -6t-2.5 -10.5t-2.5 -12t-2.5 -12t-3 -9t-4.5 -3.5q-1 0 -2.5 1t-1.5 3v1l2 6l2 6t1.5 6.5t0.5 7.5v1.5t-2 1.5h-21l-1 1.5t-2 2.5v1v1l0.5 0.5t1.5 0.5h27q1 0 1.5 1t1 2.5t0.5 2.5v2v0.5v0.5q0 1 -2 3.5l-2 2.5q-2 3 -3 5t-2 3t-2.5 1.5t-4.5 0.5t-4.5 -1.5
t-2.5 -3.5t-2.5 -3.5t-3.5 -1.5h-1v0q-1 1 -1 3t-0.5 4t-0.5 4v3q0 5 0.5 8.5t1.5 6.5t4 4t8 1h3.5t5 -0.5t4.5 -1.5t2 -2l3 -28q0 -2 2 -2h2q3 0 3.5 1.5t0.5 4.5v2q0 2 -0.5 5t-0.5 6t-0.5 6l-0.5 3q0 3 -1 4.5t-3 3t-3.5 2.5t-3 2.5t-4 3.5t-4.5 4t-3.5 4l-1.5 2v3
q2 0 4.5 0.5t5.5 2t5 3t2 3.5zM70 240q-1 3 0.5 3h2.5q3 0 5 -3t3 -7t1 -7.5v-5.5v-9v-15v-16v-9v-8t0.5 -13t0.5 -13v-8q0 -3 1.5 -3.5t2.5 -0.5q3 0 3 0.5t1 3.5q2 4 3 10.5t2 10.5v4.5t0.5 7.5t0.5 7.5v4.5v57l1.5 1.5t1.5 0.5q3 0 4.5 -3t1.5 -5v-5v-6.5v-7.5v-4v-6
v-7.5v-6.5v-3q0 -3 -0.5 -10t-1 -14.5t-1.5 -14.5t-1 -10q0 -4 -3 -6.5t-6.5 -4.5t-6.5 -4t-3 -5q0 -4 2 -6.5t4.5 -4.5t5.5 -3.5t5 -5.5q2 -3 3 -7t1.5 -8t0.5 -8.5v-8.5v-4v-5l-3 -1.5t-3 -0.5h-2v9.5v11t-1 11t-3 8.5q-2 2 -4 1.5t-4 -0.5q0 -14 1.5 -28.5t1.5 -28.5v-2
v-2.5t-0.5 -5t-0.5 -4.5v-3q-1 -1 -3 -1.5l-2 -0.5l-1.5 0.5t-1.5 1.5q-1 0 -1.5 0.5t-0.5 1.5v64v3v4t-1 3.5t-3 1.5q-5 0 -7.5 -3.5t-3.5 -9t-1 -11.5v-11t-1 -9t-3 -4q-1 0 -2.5 0.5t-1.5 1.5q0 2 -0.5 6t-0.5 8.5t-0.5 9t-0.5 5.5t0.5 2.5t0.5 3.5t0.5 3.5t0.5 2.5
t0.5 3l1 4t1.5 3.5t3 1.5h17v16q-8 3 -12 5.5t-5.5 5t-2.5 5t-1.5 5t-2 6t-4.5 8.5q1 10 0.5 20t-1.5 19.5t-2 19.5t-1 20v0q0 1 1 2t2 1h1q2 0 4 -2t3 -4v-16v-2t0.5 -2.5t0.5 -2.5v-1q0 -1 0.5 -5.5t1 -10t1 -11.5t1 -11.5t0.5 -9.5t1 -5v-2.5t0.5 -4t1 -4.5t1.5 -3
q0 -3 2 -6.5t5 -3.5q1 0 2 1t1 3v23q0 23 -1.5 44.5t-2.5 43.5zM145 190h3h3q0 2 1.5 6t1.5 7v0q-1 1 -2.5 3t-2.5 2h-17v-3v-4v-4v-3q1 -2 2.5 -3t3.5 -1.5t4 0t3 0.5zM132 178q0 -8 2.5 -10t9.5 -2h3q3 0 4 1t1 3v4v3v2q0 1 -0.5 2l-0.5 1h-17q-2 0 -2 -2v-2zM138 153v-2
v-1l11 -11h2q1 0 2 0.5t1 1.5v1q0 1 -0.5 3.5t-0.5 4.5t-0.5 4.5t-0.5 3.5q-2 1 -4 1h-4q-4 0 -5 -1t-1 -5zM141 119l0.5 -0.5l0.5 -0.5l9 -9h1q2 0 4.5 0.5l5 1t4.5 2.5t2 4q0 4 -4 4q-2 0 -3.5 -1t-3.5 -1h-0.5h-1.5q0 1 -1 4t-2 4l-0.5 1l-0.5 1q-3 0 -6.5 -3.5
t-3.5 -6.5zM175 66l-1.5 0.5l-1.5 0.5v31l3 2t5 3l2.5 0.5t5 0.5h4.5h3q2 0 5 -2t4 -4q1 -7 1.5 -13.5t0.5 -13.5q0 -3 -1 -5t-5 -2q-2 0 -2.5 1.5l-1 3t-1 3.5t-2.5 2h-12q-1 0 -1.5 -1.5l-1 -3t-1 -2.5t-2.5 -1zM123 90q0 -3 2 -4t4.5 -1.5t5.5 -0.5h4q0 1 -0.5 4.5
t-0.5 4.5t-0.5 2.5l-0.5 1.5h-11q-2 0 -2.5 -3t-0.5 -4zM178 89q0 -6 7 -6q3 0 6.5 1.5t3.5 5.5q0 5 -2.5 6t-6.5 1q-3 0 -5.5 -2t-2.5 -6z" />
</svg>
