<?xml version="1.0" standalone="no"?>
<!DOCTYPE svg PUBLIC "-//W3C//DTD SVG 1.1//EN" "http://www.w3.org/Graphics/SVG/1.1/DTD/svg11.dtd" >
<svg xmlns="http://www.w3.org/2000/svg" xmlns:xlink="http://www.w3.org/1999/xlink" version="1.1" viewBox="-10 0 266 256">
   <path fill="currentColor"
d="M143 196q0 6 4 15.5t10.5 18.5t14 15.5t14.5 6.5q4 0 5 -1t1 -4t-6 -8t-13.5 -12t-13.5 -15t-6 -18q0 -6 5 -9t10.5 -6t10.5 -8t5 -14v-7q-2 -3 -7 -5t-10 -3.5t-8.5 -3.5t-3.5 -6v-23l3 -1.5l5 -2.5q1 -1 5.5 -2t9.5 -2.5t9 -3t4 -2.5v-16q0 -1 -1 -1.5t-2.5 -0.5h-2.5
h-2q-4 0 -4.5 3.5t-1.5 6.5q-9 6 -20 10l-22 8q-2 1 -7.5 3t-13.5 4.5t-16 6t-15 7t-11.5 6.5t-4.5 5q0 3 1 3.5t4 0.5q4 0 8.5 -1.5t8.5 -4t7.5 -5t6.5 -3.5v-1q3 0 4 2t1.5 4.5t0.5 4.5v4q0 8 -2.5 16t-7.5 15t-11 13t-13 11q-2 -1 -3.5 1.5t-1.5 4.5q0 3 4 3t7.5 -1.5
t6.5 -4.5t6 -5.5t5 -4.5q8 -11 14 -23t6 -25q0 -4 -2 -8.5t-2 -8.5q0 -2 3.5 -4t8 -4t9 -3t6.5 -1h3t2 2v23l3 3l5 5q1 2 4.5 3t6.5 2t5.5 2.5t2.5 5.5q0 5 -4.5 9t-10.5 7.5t-11 8.5t-5 13zM69 100q0 2 1.5 3t2.5 1q6 0 11.5 -2.5t11.5 -5t11 -5.5t10 -5q7 -3 14 -5l14 -4
q10 -3 19 -7t20 -6q2 -2 2.5 -3t0.5 -3v-4t-0.5 -4t-2 -3.5t-4.5 -1.5t-3.5 1.5t-1 4t-0.5 4.5t-2 3q-3 2 -7 2q-3 0 -6 1l-10.5 3.5l-18 6t-21.5 8t-20.5 8.5t-15.5 8t-5 5zM63 64q0 2 2 2.5t4 0.5q6 0 12 -1.5t12.5 -4.5t12.5 -5.5t11 -4.5q7 -3 15 -4.5t15.5 -3.5l15 -4
t14.5 -5q2 -1 3 -3t1.5 -4l1 -4t0.5 -3q0 -3 -2 -5t-5 -2t-4 2t-1 4.5t-0.5 4.5t-2.5 2q-2 1 -6 2t-9 2.5t-9 3t-6 1.5q-2 1 -9 2.5t-15 4t-17 5.5t-16.5 6t-12.5 6t-5 5z" />
</svg>
