<?xml version="1.0" standalone="no"?>
<!DOCTYPE svg PUBLIC "-//W3C//DTD SVG 1.1//EN" "http://www.w3.org/Graphics/SVG/1.1/DTD/svg11.dtd" >
<svg xmlns="http://www.w3.org/2000/svg" xmlns:xlink="http://www.w3.org/1999/xlink" version="1.1" viewBox="-10 0 266 256">
   <path fill="currentColor"
d="M181 195q0 4 0.5 9.5t1.5 12t3 13t4.5 12t6 9t7.5 3.5t5 -1.5t1 -4.5q0 -5 -3 -11.5t-6.5 -13.5t-6.5 -14t-3 -13q0 -8 3.5 -14.5t7.5 -12.5t7 -12t3 -14q0 -6 -2 -9t-5 -4.5t-6.5 -2l-7 -1t-5.5 -2t-2 -4.5q0 -4 3.5 -6.5t8.5 -3.5t9.5 -1.5t6.5 -1.5l0.5 -2t1.5 -4
t1.5 -3.5t0.5 -2.5q0 -2 -2 -5.5t-5 -3.5q-2 0 -3 1.5t-1.5 3.5l-1 4t-0.5 4q-1 2 -6 3.5t-11.5 2.5t-14 2t-14 2t-11 3t-4.5 4q0 3 1.5 3.5t4.5 0.5q5 0 10.5 -2t11.5 -2q3 0 3.5 2.5t0.5 5.5t-2 6t-5 6.5t-5.5 6.5t-4.5 5l-3.5 3.5t-5 4.5t-4 4t-2.5 2q-1 1 -4 2t-6 2.5
t-5.5 3.5t-2.5 5q0 1 1 2t2 1h2h2q9 0 15.5 -5.5t13 -13t12.5 -14.5t13 -12h2q7 0 10.5 1.5t3.5 8.5q0 3 -2.5 8.5t-5.5 12t-6.5 12t-5.5 9.5v10zM41 36q0 3 0.5 9t1 14t1 17t0.5 17t0.5 14t0.5 9q1 11 2.5 18.5t5.5 12.5t11.5 7.5t18.5 2.5q8 0 14.5 -0.5t12 -2t10.5 -5
t10 -10.5l0.5 -1.5l0.5 -1.5v-46q2 -4 2 -5.5v-5.5v-3v-3t-0.5 -4.5t-1 -4t-0.5 -2.5v-1v-1l0.5 -2t1 -4.5t0.5 -4.5v-3v-2v-1q0 -1 -0.5 -4t-0.5 -6t-0.5 -6t-0.5 -4t-1.5 -1.5t-3.5 -0.5q-1 0 -3.5 0.5t-2.5 3.5v58q0 3 -3 3h-5h-5.5t-6.5 -1t-5 -3t-2 -6v-46
q0 -3 -1.5 -3h-3.5q-5 0 -6.5 1.5t-1.5 5.5v2q0 2 0.5 9t1 14.5t1 14t0.5 9.5q2 6 5.5 9t7.5 3.5t9.5 0.5t11.5 -1q3 1 3 3.5v4.5q0 4 -0.5 6t-2.5 2.5t-5 0.5q-2 0 -6 1q-1 0 -3 0.5t-4.5 0.5t-5 0.5l-2.5 0.5h-19h-12l-4 -4l-0.5 -2.5t-0.5 -5.5t-0.5 -6t-0.5 -5v-12.5
v-18.5v-18.5v-12.5q-1 -2 -2 -2.5t-3 -0.5q-4 0 -5.5 3t-2.5 6zM58 129q0 -1 1.5 -2.5t2.5 -1.5q9 -2 17 -2h18h4h6h6h4q2 1 2.5 2.5t0.5 3.5q0 6 -3.5 9.5t-8.5 5t-10.5 2t-9.5 0.5t-9 -1t-10.5 -2.5t-8.5 -5t-2 -8.5zM144 83v2t2 1h9q4 0 13 -1t18 -3.5t16.5 -4.5t9.5 -5
q1 -1 1.5 -4.5t0.5 -5.5q0 -4 -1 -7.5t-6 -3.5l-0.5 0.5l-0.5 0.5q-4 3 -5 5t-1 4.5t-0.5 4t-2.5 3.5q-3 2 -10 3.5t-15 2.5t-15.5 2.5t-12.5 3.5v1v1zM148 50q0 2 1 2.5t3 0.5q9 0 16 -2t15 -5q5 -2 10 -3t9 -3t6 -5.5t2 -9.5v-7q-2 -3 -3.5 -4.5t-4.5 -1.5t-4.5 3t-2 6.5
t-0.5 6.5v4q-1 1 -5 1.5t-9.5 2l-11 3t-10.5 3.5t-8 4t-3 4z" />
</svg>
