<?xml version="1.0" standalone="no"?>
<!DOCTYPE svg PUBLIC "-//W3C//DTD SVG 1.1//EN" "http://www.w3.org/Graphics/SVG/1.1/DTD/svg11.dtd" >
<svg xmlns="http://www.w3.org/2000/svg" xmlns:xlink="http://www.w3.org/1999/xlink" version="1.1" viewBox="-10 0 266 256">
   <path fill="currentColor"
d="M179 196v13t2 12q0 1 2 6t5 10.5t5.5 9.5t4.5 4q4 0 6.5 -0.5t2.5 -4.5q0 -2 -1.5 -5l-3 -6t-3 -5.5t-2.5 -4.5q-4 -9 -6 -19.5t-2 -20.5v-4v-3q0 -2 1 -6t2.5 -9t2.5 -9t2 -6q1 -4 -1 -6.5t-5 -3.5t-7.5 -1.5t-8 -1t-6 -2.5t-1.5 -5q1 -7 4 -10t7 -4.5t8 -2.5t8 -2.5
t6.5 -4.5t2.5 -8v-4t-1 -4q0 -1 -2 -1h-3q-2 0 -3 1t-1.5 3t-1 4.5t-0.5 3.5l-46 21q-2 3 -6.5 4.5t-9 2.5t-8 3t-3.5 8q6 0 11 -1.5t9 -3.5t8.5 -5t9.5 -7h0.5h0.5v0v0l2 2l2 2q-4 11 -8 21t-12 19q0 1 -1 3t-2.5 4t-2.5 4t-2 2q-1 2 -2.5 3t-3.5 2t-3.5 2.5t-1.5 3.5
t1 2.5t3 0.5q6 0 10.5 -3.5t8.5 -9.5t7.5 -12.5t6.5 -12.5t5.5 -10t5.5 -4h5t5.5 1t4 2t1.5 4q0 2 -0.5 7t-2 10.5t-3 10.5t-2.5 6v15zM78 231v2t0.5 2t0.5 2t1 1h8l2 -3v-3.5v-5.5v-5v-3v-3.5t0.5 -5.5t0.5 -5.5v-3.5v-77q2 -3 7 -4.5l10 -3t8.5 -3t3.5 -3.5t-1.5 -2.5
t-3.5 -0.5t-7.5 0.5t-11 1.5t-10 3.5t-4.5 5.5q0 1 -0.5 3.5t-0.5 5t-0.5 5t-0.5 3.5q0 23 -1 48.5t-1 48.5zM122 79l11 22q0 1 1 1.5t2 0.5q2 0 3.5 -1.5t1.5 -3.5q0 -5 -2 -10t-4.5 -10t-5.5 -10l-6 -10q-5 -11 -9.5 -22.5t-9.5 -22.5q-1 -2 -2 -2h-2h-2.5t-3.5 2
q-6 14 -13.5 27.5t-14.5 27.5q-2 3 -5 7t-5.5 9t-4.5 9.5t-2 9.5q1 0 2 -0.5t3 -0.5t3.5 -0.5l1.5 -0.5q2 -1 5.5 -6.5t7.5 -13t8 -16.5t8 -16.5t7 -12t5 -4.5q1 0 4 5t6.5 12t6 12.5t2.5 7.5v0v0q0 1 -1 2t-1 2h-6t-8.5 0.5t-8.5 0.5h-6t-5 0.5t-3 3.5v1l0.5 0.5t1.5 0.5h2
q3 0 5.5 0.5t4.5 0.5h3h12q7 0 13 -2zM149 88q0 2 3 2q1 0 5.5 -1t10 -3t11.5 -4t11 -4.5t8.5 -5t3.5 -3.5v-4.5t-1 -5.5t-2.5 -5t-4.5 -2h-2.5t-1.5 2v12q0 1 -3 2.5t-7.5 3t-10 3.5t-10 4t-7.5 4.5t-3 4.5zM142 62q0 2 1.5 2.5t2.5 0.5h2h1q6 -3 12.5 -6t13.5 -7t12.5 -8
t9.5 -9v-3v-4.5t-0.5 -5t-1.5 -4t-4 -1.5q-1 0 -2 0.5t-2 1.5v3t-0.5 4t-0.5 4v3t-1 2l-1 1q-2 1 -6.5 3.5t-9.5 5t-9.5 4.5t-6.5 3q-3 2 -6.5 3.5t-3.5 6.5z" />
</svg>
