<?xml version="1.0" standalone="no"?>
<!DOCTYPE svg PUBLIC "-//W3C//DTD SVG 1.1//EN" "http://www.w3.org/Graphics/SVG/1.1/DTD/svg11.dtd" >
<svg xmlns="http://www.w3.org/2000/svg" xmlns:xlink="http://www.w3.org/1999/xlink" version="1.1" viewBox="-10 0 266 256">
   <path fill="currentColor"
d="M57 201v6.5t0.5 10l1 11t1.5 10.5t3 8t4 3q4 0 5 -2t1 -5q0 -5 -2 -10t-2 -10v-0.5v-0.5l0.5 -2l0.5 -2q0 -1 -0.5 -4l-0.5 -3v-2.5v-4.5v-4v-5v-2v-5v-5v-3q2 -8 7 -11t11.5 -5t13.5 -4t11 -8q3 -4 5 -12t3 -16t1 -16v-14v-9t-1 -10t-3.5 -8t-8.5 -3h-5.5t-7.5 0.5
t-8 0.5h-5q-1 1 -2.5 2t-1.5 2v1l1 1.5t2 1.5h27l1 1t1 2q1 1 1.5 3.5l1 5t0.5 4.5v3v12v11l-0.5 3t-1 7t-1.5 7.5t-1 5.5q-1 5 -4 8.5t-7.5 5t-9.5 3t-9 2.5q-6 2 -9.5 3t-6.5 7q-3 9 -3.5 17t-2.5 17v0zM152 185q0 6 4.5 16t11 20t14 17.5t14.5 7.5q2 0 3.5 -1.5t1.5 -4.5
q0 -1 -4.5 -6t-10.5 -10.5t-11 -11t-7 -9.5q0 -1 -1 -4.5l-2 -7l-2 -7t-1 -4.5q0 -7 5 -12t11 -9t11 -8.5t5 -12.5q0 -6 -2.5 -10t-6 -6.5t-8.5 -4.5t-10 -3v-7v-3v-4.5t0.5 -4t2.5 -2.5l22 -7q1 0 2.5 -2t2.5 -3v0q0 -1 -0.5 -2.5t-1 -3.5t-1.5 -3.5t-3 -1.5t-3 1t-1.5 2.5
t-1 3.5t-2.5 3q-1 1 -5 2t-9.5 3t-11.5 4t-11 4t-8.5 3.5t-3.5 2.5q0 4 4 4v0q1 0 2.5 -0.5t2.5 -1.5t2.5 -1.5l1.5 -0.5l6 -2t4 -1l1 2v2v2v4v3t-0.5 4t-0.5 3l-7 7t-10.5 9.5t-10 8.5t-4.5 5q0 2 1.5 2h2.5q3 0 5 -0.5t4 -3.5l23 -22h0.5h1.5q2 0 6 1t7.5 3.5t6 5t2.5 6.5
v3q-5 5 -11 9.5t-10.5 9.5t-8 11t-3.5 14zM60 112v11.5t2 9.5t6 6t11 2q9 0 13.5 -2t6 -5.5t1 -9.5t0.5 -14v-3v-2.5t-2 -1.5h-1l-3 3l-3 3h-21q-1 0 -1.5 -1t-1 -2.5t-1 -2.5t-2.5 -1t-2.5 0.5t-1.5 2.5v7zM69 122q0 -1 1 -2.5t3 -1.5h18l1 0.5l1 0.5v4q0 7 -3 8t-9 1h-4
h-4q-1 -1 -2.5 -4t-1.5 -5v-0.5v-0.5zM60 73q0 9 2 13t6.5 6t10.5 2t14 1h2q1 0 2.5 -0.5t3 -0.5t2.5 -1t1 -3t-4.5 -2.5t-10 -1t-11.5 -1t-8 -2.5q-3 -4 -3 -10v-11q0 -6 3.5 -8t9 -2.5t12 -0.5t12 -1t9 -4t3.5 -11q0 -11 -4 -13.5t-15 -2.5h-8.5h-9t-9 1t-7.5 3
q0 1 -0.5 1.5l-0.5 0.5q0 2 0.5 3t3.5 1h40q1 0 2 2.5l1 2.5v0q0 6 -3.5 7t-9 1h-12t-12 2t-9 8.5t-3.5 20.5zM137 74q0 3 3 3h2q2 -1 8.5 -3t13.5 -4.5t13.5 -5t8.5 -3.5t5.5 -2.5t3.5 -4.5v-4q0 -3 -0.5 -5t-2 -4t-3.5 -2h-1q-1 1 -2 1.5l-1 0.5v11q0 1 -4 2.5t-9.5 3.5
t-10.5 3.5t-6 2.5q-1 0 -3 1t-5 2t-5 2t-4 1q-1 1 -1 2v2zM133 48q-1 1 0 2l1 1h2.5h1.5q2 0 6.5 -1t10 -2.5t12 -4t12 -4.5t9.5 -4.5t6 -3.5v-3t0.5 -4t0.5 -4v-2v-2q0 -2 -1 -4.5t-4 -2.5q-4 0 -4.5 2.5t-0.5 6t-0.5 7t-4.5 4.5q-1 1 -4 2t-7 2t-7 2t-4 1q-2 1 -6 2l-8 2
t-7 3t-4 5z" />
</svg>
