<?xml version="1.0" standalone="no"?>
<!DOCTYPE svg PUBLIC "-//W3C//DTD SVG 1.1//EN" "http://www.w3.org/Graphics/SVG/1.1/DTD/svg11.dtd" >
<svg xmlns="http://www.w3.org/2000/svg" xmlns:xlink="http://www.w3.org/1999/xlink" version="1.1" viewBox="-10 0 266 256">
   <path fill="currentColor"
d="M45 249q1 2 2 2h3q3 0 4.5 -2t2 -4.5t0 -5.5t-0.5 -6v-5t-1 -5v-94l3 -21q1 -4 6 -5.5t10.5 -2.5t9.5 -2.5t4 -4.5q-1 0 -2 -1.5t-2 -1.5v0h-1v0q-2 0 -5.5 1t-7.5 2t-7.5 2t-4.5 1q-5 5 -7 8.5t-4 9.5q0 24 -1 48t-1 48v8v11.5v11.5v8v0zM189 206q0 4 0.5 11t2.5 14
t6 12.5t10 5.5q3 0 4.5 -1t1.5 -4t-1.5 -5.5t-3 -4.5t-3 -4.5t-2.5 -4.5q0 -1 -1 -3.5t-1.5 -5l-1 -5t-0.5 -3.5v-5q0 -6 1 -12t3 -11q1 -5 3.5 -10t2.5 -9t-1 -7.5t-5 -5.5q-1 0 -3.5 -0.5t-5.5 -1t-5.5 -1t-3.5 -1.5q-5 0 -5 -5v-1q0 -1 0.5 -3t0.5 -4.5v-5v-3.5
q3 -3 7.5 -4.5t8.5 -2.5t7.5 -3.5t3.5 -6.5v-6q0 -3 -1 -5t-2.5 -3.5t-5.5 -1.5q0 8 -4.5 13.5t-11 8.5t-14.5 5t-14.5 4t-11 5t-4.5 7q0 1 1.5 1.5t3 0l1.5 -0.5q3 0 5 -1t4.5 -2l5 -2t4.5 -1h3t3 2v4v4q0 12 -4.5 21.5t-10.5 19.5q0 1 -0.5 1.5l-0.5 0.5q-1 0 -1.5 1.5
l-0.5 1.5l-1.5 1.5t-2.5 3t-2.5 3t-1.5 2.5v1q0 4 3 4q4 0 7.5 -3.5t7 -9t6.5 -11.5l5.5 -11t5 -8.5t4.5 -3.5t4.5 0.5t5 1.5t4.5 2.5t2 3.5l-0.5 2.5t-0.5 3.5q-4 11 -7 20.5t-3 20.5zM119 240q0 3 1.5 5t4.5 2q4 0 6 -3.5t2 -7.5q0 -34 -2 -67.5t-6 -67.5q-1 -3 -3.5 -5.5
t-6 -4t-7.5 -1.5h-7t-4 0.5t-3 4.5q1 3 4.5 3.5t6.5 0.5t6 1t4 5t1.5 8t1 8.5t1 8.5t1.5 8v32q1 1 1.5 3.5t0.5 3.5v0v1v14q0 8 -0.5 15.5l-1 15t-1.5 14.5v3zM69 166q0 3 0.5 5.5t1.5 5.5t3 4.5t5 1.5l4 -0.5t9 -1.5t9 -2t4 -2v-57q0 -1 -1 -2.5t-3 -1.5t-2.5 3.5t-0.5 7.5
t-0.5 7.5t-1.5 3.5h-15v-18q0 -2 -1.5 -2.5t-3.5 -0.5t-3 1.5t-2 3.5v8t-0.5 13t-0.5 12.5t-1 8.5v2zM79 172v-3.5t-0.5 -5t-0.5 -4.5v-3v-3q0 -4 4 -5.5t7 -1.5h2q2 0 3.5 0.5l3 1t1.5 1.5v20q0 2 -1.5 3.5t-3.5 2t-4.5 0.5h-3.5q-2 0 -4 -1t-3 -2zM142 95v5q8 0 12.5 -1
t11.5 -4h2l18 -8l18 -8q1 -1 2 -2.5t1 -3.5v-1v-2.5t-0.5 -4.5t-0.5 -4v-3q-2 -2 -4 -2.5t-4 -0.5h-1l-0.5 0.5t-1.5 0.5q1 6 1.5 10t-2.5 8q-1 1 -4.5 3t-9 4.5t-11.5 5t-12 4.5t-10 3t-5 1zM43 77q0 2 1.5 2.5t2.5 0.5q5 0 7.5 -1.5t6.5 -4.5q7 -4 11 -8.5t6 -9t2.5 -10.5
t0.5 -13v-3v-4.5v-4.5v-3q-1 -2 -2.5 -3t-3.5 -1t-4 1.5t-2 3.5v2q1 1 1 4.5t0.5 7t0.5 7v3.5v1q0 7 -4.5 12.5t-9.5 9t-9.5 6.5t-4.5 5zM96 30q0 7 0.5 14.5t3 13.5t7.5 10t14 4q1 0 3.5 -1t2.5 -3q0 -1 -3.5 -3t-8 -5.5t-8 -9.5t-3.5 -15q0 -4 1.5 -7.5t1.5 -8.5
q0 -3 -1.5 -3h-3.5h-3.5t-2.5 2v12zM192 37q0 4 -3.5 6.5t-9.5 4.5t-12.5 4t-12.5 4t-9.5 5t-3.5 7q3 0 9 -1t12.5 -3t14 -5t13 -6t9 -6t3.5 -6v-5.5t-0.5 -6t-2 -5t-4.5 -2.5q-2 0 -3.5 2t-1.5 4q0 3 1 5t1 4z" />
</svg>
