<?xml version="1.0" standalone="no"?>
<!DOCTYPE svg PUBLIC "-//W3C//DTD SVG 1.1//EN" "http://www.w3.org/Graphics/SVG/1.1/DTD/svg11.dtd" >
<svg xmlns="http://www.w3.org/2000/svg" xmlns:xlink="http://www.w3.org/1999/xlink" version="1.1" viewBox="-10 0 266 256">
   <path fill="currentColor"
d="M180 202q0 5 1 13t3 16t6.5 14t10.5 6q2 0 4 -0.5t3 -2.5q-1 -4 -3.5 -7.5t-5.5 -6.5t-5 -6t-3 -7q-1 -6 -2 -11t-1 -10v-3l8 -34q2 -2 3.5 -5t2.5 -6t1.5 -6t0.5 -6q0 -6 -5 -8.5t-10.5 -4t-11 -2.5t-7.5 -5v-3.5v-4.5v-4v-3q0 -1 1 -3l1 -2l24 -11q1 -2 2 -2.5l2 -1
t1.5 -1.5t0.5 -4q0 -1 -0.5 -3t-1 -3.5t-1.5 -3.5t-2 -2q-3 0 -4.5 1.5t-2 3.5t-0.5 4t-1 4q-1 3 -5.5 5.5t-10.5 5.5t-12.5 5.5t-12 5.5t-9.5 6.5t-4 8.5q4 0 7 -1.5t6 -3.5t5.5 -3.5t6.5 -1.5q2 0 3 1t1 3v4v4v0q-4 12 -8.5 23t-10.5 23q0 2 -2 4t-4 4.5t-3 5t-1 4.5t1 2
h2h2h1q4 -3 8 -8t7 -11l6 -12t4 -11v-1.5t0.5 -2.5t0.5 -2.5v-1.5l1.5 -1l1.5 -1h8h5.5t4.5 0.5t3.5 2t1.5 4.5v1q-3 11 -6 23.5t-7 22.5v14zM53 242q0 2 1 3t3 1q4 0 6.5 -2.5t4.5 -5.5t3 -6.5t2 -6.5q1 0 3 -2.5t2 -3.5q1 -2 2 -6.5t2.5 -8.5t3.5 -7t5 -3q2 0 4 4t4 9.5
t4 12t4.5 12t5.5 9.5t6 4q2 0 4 -2t2 -5t-3 -5.5t-5 -5.5q-3 -4 -7 -11t-7.5 -14.5t-6 -15.5t-2.5 -13v-1q0 -1 0.5 -4t0.5 -4v-75l-1 -0.5t-2 -1.5v0h-1q-1 6 -3 11v77q0 4 -2.5 9.5t-5.5 11.5t-6 11.5t-5 8.5q-1 1 -2 3t-3 5t-3.5 5.5t-2.5 3.5q-2 3 -2.5 3.5l-1.5 1.5
t-1 1.5v2.5zM61 180v4t3 2t5.5 -2.5t2.5 -4.5l2 -29v-5l1 -36q0 -2 -1.5 -2.5t-3.5 -0.5q-1 0 -1.5 0.5l-1.5 1.5q1 17 -1 34t-5 33v5zM109 180q0 3 2 3h3q4 0 5.5 -1.5t1.5 -5.5q0 -8 -2 -17.5t-2 -18.5q0 -8 2 -15.5t2 -14.5q0 -5 -6 -5h-2.5t-1.5 1q-2 11 -2 23v23v28z
M51 89q0 2 2 2.5t4 0.5q5 0 10 -4t9 -8.5t7.5 -8.5t6.5 -4q5 0 8.5 3t7 7t7 7t7.5 3q2 0 3.5 -0.5t1.5 -2.5t-4 -6t-10 -8t-11 -7t-6 -4v-8q0 -8 0.5 -15.5t0.5 -15.5v-5q0 -1 -0.5 -2l-0.5 -1h-8v42q0 4 -2.5 8t-6.5 7t-8.5 6t-8.5 5.5t-6.5 4.5t-2.5 4zM190 53
q-8 2 -14 6.5t-13 7.5q-3 1 -8 2.5t-8 3.5q-6 4 -6 12q2 0 7.5 -2.5t12 -5.5t13.5 -7t13 -7.5t9.5 -6.5t3.5 -4v-0.5v-0.5l-0.5 -2t-0.5 -3q-1 0 -1.5 -1.5l-0.5 -1.5q-1 0 -4 -0.5l-3 -0.5v11zM50 61q0 2 1 2.5t3 0.5q4 0 7.5 -3t6 -7.5t3.5 -9t1 -8.5v-3.5t-0.5 -4.5
t-2 -3.5t-3.5 -1.5t-3.5 1.5t-1.5 3.5t0.5 4t0.5 4q0 5 -1.5 8t-4 6t-4.5 5t-2 6zM106 25q0 4 1 9.5t3 11t5.5 9.5t8.5 4q3 0 4 -1t1 -4q0 -2 -1.5 -3t-3.5 -2t-4 -1.5t-3 -2.5q0 -1 -0.5 -4.5t-1 -6.5t-1 -6.5t-0.5 -4.5q0 -2 -0.5 -2.5t-2.5 -0.5t-3.5 1.5t-1.5 3.5z
M138 48q0 2 2 2h3q3 0 5.5 -1t4.5 -2.5t4.5 -2.5t5.5 -2q4 -1 9 -2.5t10 -2.5q1 -1 4 -2l3 -1q5 -3 6.5 -6.5t1.5 -8.5q0 -3 -2.5 -5t-5.5 -2q-1 0 -1.5 0.5t-1.5 2.5v6v5q-1 3 -8 5t-15 4.5t-15.5 5.5t-9.5 7z" />
</svg>
