<?xml version="1.0" standalone="no"?>
<!DOCTYPE svg PUBLIC "-//W3C//DTD SVG 1.1//EN" "http://www.w3.org/Graphics/SVG/1.1/DTD/svg11.dtd" >
<svg xmlns="http://www.w3.org/2000/svg" xmlns:xlink="http://www.w3.org/1999/xlink" version="1.1" viewBox="-10 0 266 256">
   <path fill="currentColor"
d="M67 123q-4 1 -6 4.5t-2.5 7.5t-0.5 8v7v93v2t0.5 2.5t1 2.5t2.5 1t4 -2t2 -4t0.5 -6.5t0.5 -9.5v-10v-6q0 -12 -1 -24t-1 -24q0 -13 0.5 -20.5t4 -12t11.5 -5.5t22 -1q3 0 6 0.5t5 2.5q2 1 3 6t1.5 12t0.5 15t0.5 15.5t1 13.5t1.5 9v45q0 2 1.5 2.5t3.5 0.5t4 -1.5
t2 -3.5q0 -15 -1.5 -30t-3 -29.5t-3 -29.5t-1.5 -30q-1 -1 -1.5 -2t-1.5 -2h-4h-6h-5h-4h-18.5t-18.5 3zM174 194q0 14 5.5 27t13.5 25l4 4t4 1q2 0 4 -0.5t2 -3.5t-3 -7t-5 -6q-6 -10 -11 -20.5t-5 -22.5q0 -7 2.5 -12t5.5 -10.5t5.5 -11t2.5 -11.5v-3.5t-0.5 -3.5
t-1.5 -3.5t-2 -2.5l-20 -4q-2 -1 -1.5 -3t0.5 -3q0 -8 3.5 -10.5t8 -4t8.5 -3t4 -7.5v-2l-2 -11l-1 -0.5t-2 -0.5v0v0q-3 0 -4 2t-1 4v6t-2 4t-5.5 2t-8 2.5t-8.5 3t-5 1.5q-3 1 -6.5 2t-7 3t-5.5 4.5t-2 6.5q3 0 6 -1.5t5.5 -2.5l5 -2t4.5 -1h4t2 2v1q-1 2 -2 5t-1.5 6.5
t-1.5 6l-1 2.5q-1 1 -2.5 4t-3 6.5t-3 6.5t-2.5 4q-1 2 -2.5 3t-3 2.5t-2.5 3t-1 4.5q0 1 1.5 1.5t3.5 0.5q3 0 6 -3t5 -7.5t4.5 -10t5 -10t5 -7.5t6.5 -3q6 0 10 2.5t4 8.5q0 5 -2.5 10t-5.5 10.5t-5.5 11.5t-2.5 15zM78 169v10t2 9t5.5 6.5t9.5 2.5t8.5 -1.5t3.5 -4.5
t1.5 -7t2.5 -9l-3 -27l-4 -2h-19q-3 0 -4.5 3.5t-2 7.5t-0.5 8v4zM98 150q2 0 3 1.5t1.5 4t0.5 4.5v3v5t-0.5 6t-0.5 6v4q-4 5 -9 5q-2 0 -4 -2t-2 -4v-25q0 -5 4 -6.5t7 -1.5zM64 99q1 2 4.5 3.5t8 1.5h9h5.5q8 0 13.5 -0.5t8.5 -2.5t5 -6t2 -12q0 -7 -2.5 -11t-7 -5.5
t-10 -2t-11.5 -0.5q-4 0 -8.5 1t-8.5 2.5t-7 5t-3 8.5t0.5 8.5t1.5 9.5zM73 86q0 -3 2 -6t4.5 -4.5t6 -2.5t6.5 -1v0h3.5t4.5 0.5t4.5 0.5h3.5q2 3 2.5 5t0.5 6q0 5 -2.5 7.5t-6 4t-7.5 1.5h-8h-8q-6 -4 -6 -11zM137 94q0 1 1 1.5t3 0.5q4 0 11 -2.5t14.5 -6t14 -7
t11.5 -5.5q3 -2 3.5 -5t0.5 -6v-3.5t-1 -4.5t-2.5 -3.5t-3.5 -1.5h-2t-1 1q1 8 -0.5 12t-4.5 6.5t-8 4t-11 4.5q-1 1 -4 2.5t-6.5 3t-6.5 3t-4 2.5q-1 0 -2 1t-1 2h-0.5t-0.5 1zM181 19v21q0 1 -3.5 3t-8 4l-9 4t-6.5 3l-5 2.5t-5 3l-2 1.5v3h8l40 -18q2 -1 3 -3t1 -4
q0 -4 -0.5 -7.5t-2 -6.5t-3.5 -4.5t-7 -1.5zM49 59v1l1 1l2 2v0h1v0h1q6 -3 10.5 -6t11.5 -6q3 -1 5 -3.5t4 -4.5t4 -3.5t6 -1.5t8 3t7.5 6.5t7.5 6.5t8 3q3 0 4.5 -2t1.5 -4t-4.5 -5.5t-10.5 -6.5t-12 -5l-9 -3v-20h-3t-3.5 0.5t-3 1.5t-1.5 3v3v5v4v3q-3 4 -9 7.5l-12 7
t-10.5 6.5t-4.5 7z" />
</svg>
