<?xml version="1.0" standalone="no"?>
<!DOCTYPE svg PUBLIC "-//W3C//DTD SVG 1.1//EN" "http://www.w3.org/Graphics/SVG/1.1/DTD/svg11.dtd" >
<svg xmlns="http://www.w3.org/2000/svg" xmlns:xlink="http://www.w3.org/1999/xlink" version="1.1" viewBox="-10 0 266 256">
   <path fill="currentColor"
d="M174 192q0 15 6 29t14 27q1 0 2.5 1.5t2.5 1.5q2 0 5 -2t3 -4q0 -3 -1.5 -5.5t-4 -5l-5 -5t-3.5 -4.5q-5 -7 -8 -15.5t-3 -17.5q0 -5 1.5 -9t4.5 -7.5t7 -6t9 -6.5q1 0 1.5 -2t0.5 -3.5v-3v-2.5v-8q-3 -3 -6.5 -5t-7 -5t-5.5 -5.5t-2 -7.5q0 -6 2 -8.5t5 -4.5t5 -5t2 -8
q0 -2 -0.5 -5t-3.5 -3q-2 0 -3 1.5t-1.5 4t-1 4.5t-1.5 3q-4 3 -10 5.5t-12.5 4t-12.5 3t-12 1.5q-1 1 -1 1.5v1.5q0 4 3 4t6 -1t6 -1t3.5 3t0.5 6q0 6 -2 12t-4.5 11.5t-5.5 11t-6 10.5v1v1v2.5t2 1.5l2 -2l2 -2q6 -8 9.5 -14.5t5.5 -13t3.5 -13.5t2.5 -17q0 -2 1.5 -3.5
t3.5 -1.5q3 0 4.5 3t1.5 6v6v5q2 2 5 4l6 4t5.5 4.5t2.5 6.5q0 6 -4 9.5t-8 7.5t-8 9.5t-4 14.5zM52 240q0 1 1 3.5t3 2.5h1l1 -0.5t2 -0.5q1 -12 1.5 -23.5t-0.5 -23.5q0 -2 2 -2.5t3 -0.5q2 0 4 1t2 4v28q0 1 1 1.5l1 0.5h1q3 0 3.5 -2t0.5 -4v-5q0 -2 -0.5 -5t-0.5 -6.5
t-0.5 -6.5t-0.5 -4q0 -6 -2.5 -8.5t-5 -3.5t-4.5 -1t-2 -1v-12l1.5 -0.5l1.5 -0.5l2 -0.5t4 -0.5t4.5 -0.5t3.5 -0.5h1q2 0 3 1.5t1 3.5v3.5v2.5t0.5 4t0.5 6.5t0.5 6.5t0.5 4v2v4.5v5.5v4v3v4.5v4.5v4l-1.5 3t-0.5 3t1 4.5t4 2.5q1 0 1.5 -0.5l1.5 -1.5v-13q0 -12 -1 -24
t-1 -24v-3v-5t1 -4t2 -2h19q3 0 3 3v4q0 4 -2 6t-5.5 3t-5.5 2t-2 3v43q0 1 1 1.5t2 0.5q3 0 3 -4v-38q0 -2 1.5 -2.5t3.5 -0.5t3 2t1 4v33q2 5 2 10v8h4.5t4.5 -1v-7q0 -9 -1.5 -18t-1.5 -18v-9v-14v-14v-8v-5t-0.5 -9t-1 -9t-0.5 -5q0 -3 0.5 -7.5t0 -9t-1.5 -9t-3 -6.5
q-3 -3 -7 -3.5t-8 -0.5t-7 -1.5t-3 -6.5q0 -4 1 -5.5t2.5 -1.5h4h4.5q5 -1 8.5 -2.5t7.5 -1.5q3 0 4.5 1t3.5 2t3.5 1.5t3.5 0.5t3 -0.5t1 -2.5t-2.5 -4.5t-5.5 -4l-6 -3t-3 -2.5v-16l-2.5 -2.5t-4.5 -3.5q-2 -2 -5 -3t-6.5 -1.5t-6 -1.5t-4.5 -4v-3.5t-0.5 -4.5t-0.5 -4.5
v-3.5q-1 -2 -1.5 -2.5t-1.5 -0.5h-2t-1 2l-0.5 2t-0.5 4t-0.5 3.5t-0.5 2.5t-0.5 2.5t-1.5 1.5h-17q-2 0 -2.5 1.5t-0.5 2.5v2.5t2 1.5h18q1 0 1.5 1t0.5 2l0.5 3.5t1.5 5.5v1q0 2 -1.5 2h-2.5q-9 0 -17 -0.5t-17 -0.5l0.5 1.5t0.5 2.5t1 1.5t3 0.5h9q6 0 11.5 1t9 4t3.5 10
l-0.5 1.5t-1.5 1.5h-29q0 1 0.5 2t0.5 3t1 2h24l3 7l-0.5 0.5t-1.5 0.5q-3 2 -8 3t-9 2.5t-7 4.5t-4 8v12v18t-0.5 21.5t-0.5 21.5v18v12v3v6v5v3q0 1 -0.5 2.5t-0.5 3t-0.5 3l-0.5 1.5v0.5v1.5zM65 159q0 -2 1 -4t2 -3t3 -2.5t3 -3.5q3 -5 3.5 -13t0.5 -14q0 -2 -0.5 -5.5
t-0.5 -4.5l-3 -3q-2 4 -2 10.5t-0.5 13.5t-2.5 11.5t-7 4.5q0 -9 0.5 -19.5t2.5 -20.5l3 -3t5 -3.5t5.5 -2t4.5 -0.5h2.5t1.5 3v12v12q0 4 -0.5 9.5t-0.5 10.5t-0.5 9l-0.5 4l-5 5h-14l-0.5 -0.5t-0.5 -1.5v-1zM91 157v-18v-19t2 -19l1.5 -0.5t3.5 -1l4 -1t3 -0.5q2 0 4 1.5
t3 4t1.5 5t1.5 4.5v1v4.5t0.5 8t0.5 8.5v5v2q0 2 -1 4.5t-3 2.5q-3 0 -4.5 -3t-2.5 -7.5t-1 -10.5t-0.5 -10.5t-1 -8t-1.5 -4.5h-1v0h-1l-0.5 1t-1.5 2v11q0 6 0.5 13.5t3.5 13.5q1 3 4.5 6t3.5 7v1l-1.5 1.5l-0.5 0.5h-6q-2 0 -5.5 -0.5t-4.5 -4.5zM144 89q0 2 1 2.5t3 0.5
q4 0 11 -2t14.5 -4.5t14 -6t8.5 -6.5v-3.5v-2.5q0 -1 0.5 -3t0 -4t-1.5 -3.5t-2 -1.5h-3t-2 2v2.5t-0.5 3.5t-0.5 4v3l-1 1.5l-1 1.5l-39 13q-1 0 -1.5 1t-0.5 2zM93 69q0 -2 1.5 -4t3.5 -2q3 0 6 1t3 4t-3 3.5t-5 0.5h-4q-2 0 -2 -3zM147 57q0 2 2.5 3.5t4.5 1.5l2 -0.5
t2 -1.5q1 0 4 -1.5t6.5 -3t6.5 -3t4 -1.5q1 -1 3.5 -2l5 -2t4.5 -2.5t2 -3.5v-19q0 -1 -1.5 -1.5t-2.5 -0.5q-2 0 -3 2t-1 4.5t0.5 5t0.5 3.5q-1 3 -6 6t-11.5 6t-12.5 5t-10 3v2zM94 42q7 0 11 0.5t6.5 2t3 5.5t0.5 11q-1 0 -4 -0.5t-7 -1.5t-7 -2t-3 -2v-13z" />
</svg>
