<?xml version="1.0" standalone="no"?>
<!DOCTYPE svg PUBLIC "-//W3C//DTD SVG 1.1//EN" "http://www.w3.org/Graphics/SVG/1.1/DTD/svg11.dtd" >
<svg xmlns="http://www.w3.org/2000/svg" xmlns:xlink="http://www.w3.org/1999/xlink" version="1.1" viewBox="-10 0 266 256">
   <path fill="currentColor"
d="M77 223h16t23.5 0.5t24 0.5h15.5h9h7h5t8.5 -0.5t8.5 -0.5h5q2 -1 2 -2v-2q0 -2 -0.5 -3t-2.5 -2h-4h-4h-2h-3h-2h-1h-5t-8.5 0.5t-9 0.5h-5.5h-4t-5.5 -0.5t-5 -0.5h-2.5l-2 -4v-44l4 -2h6t8.5 -0.5l9 -1t5.5 -0.5q8 -1 13.5 -6t5.5 -13v-50q0 -7 -6 -7q-2 0 -3.5 0.5
t-2.5 2.5q1 13 0.5 27t-2.5 27q0 5 -4.5 7.5t-9.5 3t-10 0t-8 -0.5h-3t-3 -1v-9.5v-14.5t-0.5 -16.5t-0.5 -16.5v-14v-9v-5v-3.5t0.5 -3.5t1.5 -3t3 -1h12.5h14.5q7 0 14.5 -0.5t13.5 -1.5q3 -1 3.5 -3.5t0.5 -4.5q-34 0 -68 1t-69 3q-1 1 -3 2t-2 3v1q1 0 2 1.5t2 1.5h7
q15 0 29 -0.5t28 -0.5v150l-2 6h-4t-7.5 0.5t-7.5 0.5l-2 0.5t-3 0.5q-5 0 -9 -2.5t-6.5 -6t-4 -8.5t-1.5 -10v-93h-4.5t-4.5 1l-0.5 0.5l-0.5 0.5q0 2 -0.5 6.5t-0.5 9.5t-0.5 10t-0.5 6v4q0 16 0.5 32t1.5 32v5.5t1 9.5t3 8t6 2z" />
</svg>
