<?xml version="1.0" standalone="no"?>
<!DOCTYPE svg PUBLIC "-//W3C//DTD SVG 1.1//EN" "http://www.w3.org/Graphics/SVG/1.1/DTD/svg11.dtd" >
<svg xmlns="http://www.w3.org/2000/svg" xmlns:xlink="http://www.w3.org/1999/xlink" version="1.1" viewBox="-10 0 266 256">
   <path fill="currentColor"
d="M55 246v3t3 1t4.5 -3t2 -6.5l1 -7t0.5 -4.5q0 -5 0.5 -13l1 -16t1 -14.5t0.5 -8.5v-15.5v-23.5v-29v-28v-24.5v-15.5q1 -4 5 -6t7 -3q3 0 9.5 -0.5t14 -1t14.5 -1t10 -0.5q2 0 8 -0.5t14 -1t17 -1t16 -1.5t12 -2t5 -2t-0.5 -3t-2.5 -1h-13q-10 0 -19.5 0.5t-18.5 2.5
l-77 6q-3 0 -5 1.5t-3 4l-2 5t-1 4.5v5t-0.5 8.5t-0.5 9.5v7v3q0 19 0.5 37t0.5 37q0 25 -2 49t-2 49zM106 236h60q1 0 4 0.5t7 0.5t7 0.5t4 0.5h2q2 0 5 -1t3 -4q0 -1 -2 -3t-3 -2h-42q-1 0 -2 -1.5t-1.5 -3t-0.5 -3.5v-3q0 -3 5 -4t11 -2.5t11 -3.5t5 -7v-24q0 -1 -1 -1.5
l-1 -0.5q-1 0 -2 -0.5l-1 -0.5q-1 0 -2 1t-1 2q-1 4 -1 9t-1 9.5t-4.5 7.5t-9.5 3h-2q0 -1 -1.5 -1.5l-1.5 -0.5v-30q0 -5 -3.5 -6t-6.5 -1v58q0 1 -1.5 2.5l-2.5 2.5h-6q-7 0 -12 -1t-8 -3t-5 -6.5t-2 -11.5v-4.5v-7.5v-8v-5t-1.5 -1.5t-2.5 -0.5h-2v4t-0.5 5.5l-1 5
t-0.5 3.5v4v8.5t1 10.5t3.5 9t6.5 6zM102 158q0 2 0.5 3.5t3.5 1.5t3 -1.5t1 -5.5v-4v-8v-8v-4v-4v-6t0.5 -6t0.5 -4h1.5h1.5h3t1.5 1l1 2l1.5 3q3 9 3.5 18.5t0.5 18.5h2q2 0 3 -1.5t2 -3.5v-10q0 -2 -0.5 -6.5t-0.5 -9t-1 -8t-3 -5.5t-4.5 -3.5t-5.5 -3t-4.5 -3.5t-1.5 -5
v-1.5v-1.5q2 -2 5 -3t6 -2.5t5 -3.5t2 -6v-1q0 -1 -0.5 -5t-1 -8.5t-0.5 -8v-5.5q-1 0 -1.5 -0.5t-0.5 -1.5h-1v0q-2 1 -2.5 3t-0.5 3.5v2.5v2q0 2 -0.5 4.5t-0.5 5.5t-0.5 6t-0.5 4l-3 3q-2 -1 -4 -3.5t-2 -4.5q0 -6 0.5 -11.5t0.5 -10.5v-3v-2l-1 -1h-26l-0.5 0.5
l-0.5 0.5v1v0q0 1 0.5 1.5l0.5 0.5h16l0.5 0.5l1.5 1.5l0.5 1t0.5 2v27q0 1 -2 1.5t-3 0.5q-4 0 -5 -4t-1.5 -8.5t-1 -8.5t-2.5 -4v0h-1q0 1 -1 3.5t-2 2.5v2q0 7 1.5 11.5t3.5 7t4.5 3.5t4.5 2t3.5 2.5t1.5 4.5t-2 5.5t-4.5 4t-5.5 3.5t-5 4q-2 9 -3.5 15t-1.5 15v10
q1 1 1.5 1h1.5q3 0 3.5 -3t1 -8t1 -10.5t1.5 -10.5t3 -8.5t6 -3.5q2 0 2.5 2t0.5 4q0 10 -0.5 20t-0.5 20zM166 157q0 2 1.5 3.5t3.5 1.5h1v0q0 -1 0.5 -3.5t0.5 -5t1 -5t2 -4.5v-27q0 -1 1 -2.5t2 -2.5v0q6 0 8.5 5.5t3.5 12.5t1 13.5t1 9.5h0.5h0.5q4 0 5.5 -2.5t1.5 -5.5
v-9t-0.5 -9.5t-1.5 -8.5t-3 -7q-3 -4 -6.5 -5t-6.5 -2t-5.5 -3t-2.5 -7q0 -3 3.5 -4t8 -3t8 -4.5t3.5 -6.5v-30q0 -2 -2 -2h-3h-1.5t-1.5 2q-1 6 -1.5 14.5t-0.5 15.5q-1 2 -3 2.5t-5 0.5q-2 0 -2.5 -0.5t-0.5 -4.5v-30l-3 -1h-7h-10h-3.5t-3.5 0.5t-3 0.5h-1v4h18
q1 0 2.5 2.5l1.5 2.5v5t0.5 6.5t0.5 7v4.5v3q0 2 -1.5 2.5t-3.5 0.5q-7 0 -10 -3.5t-4 -7.5t-1 -8t-2 -4t-2.5 1t-0.5 3q0 6 1.5 11.5t5.5 10.5q1 3 4.5 3.5t6.5 0.5t5 2t2 6q0 3 0.5 4t-1.5 2q-1 1 -3 2t-4.5 2.5t-4.5 3t-3 1.5q-3 3 -5 7.5t-3.5 9.5t-2 10t-0.5 9v5
q1 1 2 1.5t2 0.5h1q0 -3 1.5 -10t3.5 -14.5t5 -13t7 -5.5h2t2 2v9q0 9 -1 17.5t-1 16.5z" />
</svg>
