<?xml version="1.0" standalone="no"?>
<!DOCTYPE svg PUBLIC "-//W3C//DTD SVG 1.1//EN" "http://www.w3.org/Graphics/SVG/1.1/DTD/svg11.dtd" >
<svg xmlns="http://www.w3.org/2000/svg" xmlns:xlink="http://www.w3.org/1999/xlink" version="1.1" viewBox="-10 0 266 256">
   <path fill="currentColor"
d="M148 203q0 5 -2 10.5t-4.5 11.5t-5.5 11.5t-4 9.5q-1 0 -1 2.5v2.5q5 0 9.5 -6t7.5 -14.5t5 -16.5l3 -12h10q1 0 1.5 3t0.5 5q1 9 2.5 17.5t3.5 16.5q0 1 0.5 2t1.5 2l2 2t2 1q2 -1 3 -2.5t1 -3.5q0 -3 -1.5 -8l-3 -10l-3 -10t-1.5 -10v-3t1 -4q5 -2 8 -5.5t4 -9.5v-19
q0 -7 0.5 -13t-1 -11t-5 -8t-11.5 -3q-13 0 -19.5 2.5t-10 8t-4 14t-0.5 19.5v4t0.5 6t0.5 6v3q0 2 2 2.5t4 1.5t3 2t1 3zM84 128v97q0 1 1.5 2t2.5 1q1 1 2 0t1.5 -2.5t0.5 -3v-2.5q0 -26 -1 -51t-1 -51q0 -16 1.5 -32t1.5 -33q0 -2 -2.5 -3t-6 -1.5t-6.5 -2t-3 -5.5
q0 -2 0.5 -4.5t2.5 -4.5q1 0 3.5 0.5t5.5 0t5.5 -2t2.5 -3.5t-0.5 -3t-2.5 -1h-3h-5h-4h-3q-1 -2 -1 -4.5t-1 -5t-2 -3.5t-4 -1v41q-6 1 -10 4t-6 7.5t-3 10.5t-1 11v1q1 1 1.5 2.5t0.5 2.5v21q0 11 -1.5 22t-1.5 22v1v6t0.5 10.5t0.5 10.5v6v1v1q0 1 -0.5 4.5t-1 8t-1 8.5
t-0.5 5v5v4q0 1 0.5 1.5t1.5 0.5q3 0 5 -2.5t3 -6t1.5 -7t0.5 -4.5v-95l2 -9l1.5 -1t3.5 -1h3.5h5.5h4.5h4.5q0 2 1.5 4.5t1.5 3.5v4t-0.5 6t-1 5.5t-0.5 3.5zM107 223q0 2 1 2.5t3 0.5q3 0 4.5 -7t2 -17t1 -22t1.5 -23t3.5 -19.5t8.5 -10.5q0 -1 3 -1.5t4 -0.5l2 -0.5
t3.5 -1l3 -1t2.5 -0.5t5 -0.5t8.5 -1t8.5 -1t5 -0.5q3 -2 4.5 -5.5t2 -7t0.5 -7.5v-7q0 -1 -0.5 -2.5t-0.5 -3.5v-4v-3t-1.5 -3t-2.5 -2h-20q-1 0 -1.5 -1.5t-0.5 -2.5v-2v-1v-2q0 -2 0.5 -3t1.5 -1h20l2 -1.5l2 -1.5q0 -1 0.5 -1h0.5q0 -1 -0.5 -1h-0.5q0 -1 -1.5 -2
l-1.5 -1h-41q-1 0 -3 0.5t-3.5 1t-3.5 1.5t-2 2q4 5 9 5q2 0 4 -1t4 -1h2.5t3.5 1v3.5v2.5v7.5t-1 9t-2.5 7.5t-4.5 3h-3t-1 -1v-15q0 -1 -0.5 -2.5l-1 -3t-0.5 -2.5v-1h-6v3v4v4.5v2.5q0 2 0.5 5t1.5 6t2.5 5.5t4.5 2.5h7t8 -0.5l8 -1t6 -0.5q1 0 2.5 -0.5t2.5 -0.5
q2 0 2.5 1.5t0.5 3.5t-1.5 5.5t-5.5 3.5q-11 1 -21 2t-17 4.5t-11.5 11t-6.5 21.5q0 1 -0.5 6.5l-1 11t-1 10.5t-0.5 7q-1 8 -2 17t-1 18zM143 186l0.5 -1t0.5 -2q1 0 5 -0.5t8.5 -1t8 -1t5.5 -0.5h3q3 0 4 1t1 4q0 4 -2.5 6t-5.5 2.5t-7 0.5h-6h-4.5h-5.5q-3 -1 -4 -3
t-1 -5zM142 167q0 -4 4.5 -5.5t9.5 -2.5t10 -1h6h5t3 4t-1 5.5t-2.5 2.5t-4 1.5t-4.5 2.5h-4h-5h-4t-6 -0.5t-5 -2t-2 -4.5zM148 150v-1.5v-1.5q0 -3 2 -5t5 -2.5t6 -0.5h6h6q3 0 6 2v4q0 4 -2 5.5t-7 1.5h-1h-1q-1 0 -4 -0.5t-6 -0.5t-6 -0.5t-4 -0.5zM147 31q-3 2 -6.5 2
t-5.5 1q-9 2 -13.5 3.5t-6 4.5t-2 8t-1.5 14q-2 12 -3 24.5t-1 24.5q6 0 7.5 -3t2.5 -9q0 -2 0.5 -8t0.5 -13v-13.5v-8.5q1 -6 2 -8.5t3.5 -4t6 -2t8.5 -1.5q4 -1 6.5 -1.5t5.5 -1t5.5 -1t6.5 -0.5h3t4.5 0.5t3.5 0.5h3t3.5 0.5t4.5 1.5t3.5 2.5t2.5 3.5q1 15 1.5 29.5
t0.5 29.5q-1 3 0.5 3.5t2.5 0.5q4 0 5.5 -4.5t1.5 -7.5v-3.5t-2 -4.5v-27t-2.5 -18.5t-10.5 -11t-26 -4.5q-4 -1 -4.5 -4.5t0 -7t-0.5 -6t-5 -2.5q-2 0 -3.5 3t-2 7t0 7.5t0.5 4.5zM156 89v-2q0 -1 0.5 -2.5l0.5 -1.5h17v13h-5h-6t-5 -1.5t-2 -5.5zM60 82q0 -6 0.5 -10.5
t2.5 -7.5t5.5 -5t9.5 -2h2t3 1q1 0 2 2.5t1 3.5l-2 28h-21l-3 -3v-3v-4z" />
</svg>
