<?xml version="1.0" standalone="no"?>
<!DOCTYPE svg PUBLIC "-//W3C//DTD SVG 1.1//EN" "http://www.w3.org/Graphics/SVG/1.1/DTD/svg11.dtd" >
<svg xmlns="http://www.w3.org/2000/svg" xmlns:xlink="http://www.w3.org/1999/xlink" version="1.1" viewBox="-10 0 266 256">
   <path fill="currentColor"
d="M181 185q1 2 2.5 7.5t4 13t5 15.5t4.5 14.5t3.5 11t2.5 4.5q4 0 5 -2.5t1 -5.5q0 -8 -3.5 -16t-7.5 -16t-7 -15.5t-3 -15.5v-1l1.5 -1t2.5 -2.5t2.5 -3l1.5 -1.5q1 -1 2 -3t1 -3v-34l-1.5 -1t-3.5 -2l-4 -2l-4 -2q-4 -2 -9 -2h-9h-8h-7.5t-7.5 0.5t-9 1.5l-0.5 0.5
t-0.5 1.5l0.5 1.5l0.5 1.5l52 3q1 0 2 2l2 4t1 4v3v5t-0.5 6t-2 5.5t-3.5 2.5q-3 0 -5.5 -2.5t-4 -5.5t-4 -5.5t-5.5 -2.5h-40q-1 0 -1.5 1.5t-0.5 2.5q0 3 3 4t6 1h1.5h1.5q1 0 4 -0.5t6.5 -1t6.5 -1t5 -1.5q1 1 4 2.5t6 4t5 5.5t1 6t-4 5t-6.5 2h-7h-5.5h-4t-6 0.5t-6 0.5
h-4v2v1v2.5t2 1.5h3q3 0 6 0.5t6 0.5h4h5.5h7.5t7.5 -0.5t6.5 -1.5zM47 152q0 19 1 32t6 21t16.5 11.5t32.5 3.5h6.5t9 -0.5t8 -2t5.5 -5.5q-1 -3 -3.5 -3h-4.5q-6 0 -10.5 1t-10.5 1q-1 0 -6 -0.5t-10.5 -1t-10 -1.5t-4.5 -2t2 -3.5t3 -4.5l1 -1.5l1 -1.5l3 -71
q0 -1 2.5 -2.5t3.5 -1.5t3 0.5t3.5 0.5t2.5 0.5l1 0.5l3 7v69q0 1 1 1.5l1 0.5h1h1l0.5 -0.5l1.5 -1.5l0.5 -2.5l1 -5t1 -4.5t0.5 -3v-2q0 -6 -1 -12t-1 -12v-9t0.5 -8t0.5 -8.5t1 -9.5q1 0 4 -1.5t4 -1.5l2.5 -1.5t2.5 -2.5q0 -3 -2 -4t-4 -1q-4 0 -8 1t-8 1
q-2 0 -3.5 -1.5l-2.5 -2.5v-9v-10l1 -2t1 -3l-1 -1l-1 -1v-2t0.5 -4t1 -3.5t0.5 -2.5q0 -3 0.5 -3.5t2.5 -0.5q3 0 6 2t5.5 4.5t5 4.5t6.5 2q2 0 2.5 -1.5t0.5 -4.5v-1q-2 -4 -4 -6t-4 -3t-4.5 -2t-6.5 -3q-5 -3 -6.5 -7t-2 -8t-1 -6.5t-4.5 -2.5l-0.5 0.5l-0.5 0.5l-5 18
q-2 1 -5 3l-6 4t-6 3.5t-5 1.5h-3t-2 -2v-23q0 -3 5.5 -5.5t12 -4t13 -2.5t8.5 -1h1h2.5t4 0.5t4.5 0.5t2 1h2h1q3 -1 6.5 -2.5l3.5 -1.5v-6h-7h-11.5t-11.5 0.5t-8 0.5h-10t-11.5 1.5t-9.5 4.5t-5 9q0 2 -0.5 5t-1 6.5t-1 5.5l-0.5 2q-1 24 -1.5 49t-0.5 49zM56 171v-52
q1 -4 1 -7v-7q0 -1 0.5 -4.5t0.5 -7.5t0.5 -7.5t0.5 -5.5t4 -4.5t9 -4.5t9.5 -3.5t5.5 -1.5v44l-2 2h-4t-6 0.5t-6 0.5t-4 1l-1.5 0.5l-1.5 0.5v1q0 2 1.5 3t3.5 2t4 1h2v16v22t-1 23q0 2 -0.5 4.5t-1 5.5t-1 5l-0.5 2l-2 2q-4 -3 -5.5 -6.5t-2.5 -7.5t-1.5 -8.5t-1.5 -8.5z
M158 99q2 0 7.5 0.5t11.5 1t11.5 0.5h7.5h1q1 0 1.5 -1t0.5 -2q0 -3 -3 -4t-8 -1h-11t-11 -1t-8 -3t-3 -8q0 -5 3.5 -8t8.5 -4t11 -2t11 -3t8.5 -5.5t3.5 -11.5v-5t-2 -5q0 -1 -1.5 -2.5t-2.5 -3t-2.5 -3l-1.5 -1.5h-36q-3 0 -3.5 -2t0 -5t0 -5t-3.5 -2h-2q-1 6 -1.5 12
t-2 11.5t-4 10.5t-8.5 9q1 3 2.5 3.5t3.5 0.5q5 0 7 -4t4 -8.5t4.5 -8.5t8.5 -4h24q4 0 5.5 3.5t1.5 6.5q0 6 -3 8.5t-7.5 4t-10 2.5t-10.5 3t-8 6.5t-3 12.5q0 6 1.5 11t7.5 6z" />
</svg>
