<?xml version="1.0" standalone="no"?>
<!DOCTYPE svg PUBLIC "-//W3C//DTD SVG 1.1//EN" "http://www.w3.org/Graphics/SVG/1.1/DTD/svg11.dtd" >
<svg xmlns="http://www.w3.org/2000/svg" xmlns:xlink="http://www.w3.org/1999/xlink" version="1.1" viewBox="-10 0 266 256">
   <path fill="currentColor"
d="M95 250l0.5 0.5t0.5 1.5h1h1q0 -1 2 -2.5t2 -2.5q0 -27 0.5 -55.5t2.5 -55.5q5 -3 9.5 -6t8 -6.5t5.5 -8t2 -10.5q0 -11 -6 -16.5t-14.5 -8t-18.5 -2.5h-18h-12q-1 0 -1.5 1.5t-0.5 2.5q0 2 1 3.5t4 0.5q7 0 17 -1t18.5 0t14.5 5.5t6 14.5q0 3 -0.5 6.5t-2.5 6.5t-4.5 5
t-6.5 2q-1 0 -2 -1.5t-2 -3.5t-2 -3.5t-2 -2.5q-9 1 -17.5 -0.5t-17.5 -1.5q-2 0 -3 1.5t-1 3.5q0 1 1 3t3 2h30q2 0 3 2t1 3q0 3 -2 4t-4.5 2t-5 1h-3.5h-4h-7h-6h-4q-2 1 -2.5 2t-0.5 3t1 2.5t3 0.5q8 0 15.5 -1.5t15.5 -1.5h3q0 1 0.5 2t0.5 2.5t0.5 3t0.5 2.5v1
q0 23 -2 45.5t-2 45.5q0 1 0.5 4.5t0.5 4.5zM175 175q1 0 2 2.5t1.5 4.5l0.5 2l5 63q0 1 1 2t2 1t1.5 -0.5l1.5 -1.5t2 -1.5t1 -1.5v-4v-4q0 -14 -2.5 -28t-2.5 -29v-2v-3v-3.5t1 -2.5q1 -3 4 -6t5 -6.5t3.5 -7t1.5 -7.5q0 -11 -4 -18t-10.5 -10t-15.5 -4t-19 -1h-2h-4h-3
h-3l-1 1.5t-2 1.5v1v1l2 2q9 -1 18 -1t17 2.5t12.5 8.5t4.5 17q0 4 -2.5 7.5t-5.5 5.5q-2 -5 -7 -10t-12 -5h-6q-4 0 -9 0.5t-8.5 2t-3.5 4.5q0 1 2 1.5t3 0.5q5 0 10 -1.5t11 -1.5q5 0 8 4t3 9t-3 8t-6.5 5t-8 3t-8.5 2t-6.5 2.5t-2.5 3.5v2t1 1q4 0 9.5 -2t10 -4t8.5 -4
t5 -2zM117 146v84v4t1 4t2.5 3.5t3.5 1.5q3 0 3.5 -2t0.5 -4q0 -4 -1.5 -7.5t-1.5 -7.5q0 -3 -0.5 -10t-0.5 -15t-0.5 -15t-0.5 -10v-4.5v-7.5v-6.5v-4.5q0 -2 -2.5 -2.5t-3.5 -0.5zM64 238q0 3 4 3q2 0 3.5 -2t2.5 -4t2 -4.5t1 -3.5q0 -3 1 -9t1.5 -13t1 -13.5t1.5 -8.5v-2
v-4v-4v-3v-3v-4v-4v-3q-1 -2 -2 -2.5t-3 -0.5h-2t-1 1v26t-2 26q0 4 -1.5 8t-3 8.5t-2.5 8.5t-1 7zM62 99q0 1 1.5 2t3 1.5t2.5 0.5h2l1 -0.5t2.5 -0.5t2.5 -0.5t2 -0.5h22l1.5 -1t1.5 -2v-1v0l-6 -2h-32l-1.5 1.5l-1.5 1.5l-0.5 0.5zM152 67q0 9 4 13.5t10.5 6.5t14 3
t14.5 2h1h1q3 0 3.5 -1t0.5 -3q0 -4 -3 -5.5t-8 -2t-10 -0.5q-6 0 -11 -0.5t-8 -2.5t-3 -6q0 -2 0.5 -4t1.5 -3.5t2 -3.5t2 -2q5 0 11 -0.5t11.5 -2t9 -5t3.5 -10.5q0 -6 -5 -9.5t-11.5 -5t-13.5 -2t-11 -0.5q-3 -2 -4.5 -5t-4.5 -6q-1 0 -3.5 5.5t-5 12t-4.5 12t-2 6.5
q0 2 1 2.5t3 0.5h3q1 0 3 -3.5t3 -4.5l0.5 -2.5t1.5 -3.5q0 -1 0.5 -2l0.5 -1h32q3 0 4 2.5t1 4.5q0 3 -2 5t-5 2q-1 0 -4 1t-7 1.5t-7.5 1.5t-4.5 1q-4 2 -4.5 6.5t-0.5 7.5zM91 42q4 1 8 5t7.5 8.5t6.5 8t6 3.5q2 0 3 -1.5t1 -3.5q0 -3 -2.5 -6.5t-6.5 -6.5t-7.5 -5.5
t-5.5 -4.5v-1q0 -4 3 -6.5t7 -5t7.5 -5t3.5 -6.5q0 -2 -1 -2.5t-3 -0.5q-4 0 -7.5 3.5l-7 7l-6.5 6.5t-6 2t-6.5 -3.5t-6 -5.5t-6 -5.5t-7.5 -2.5q-3 0 -3.5 1t-0.5 4t3.5 4.5t7 3.5l7 4t3.5 6t-4 6t-9 4t-9 4t-4 6q0 2 1 3t3 1q4 0 9 -3t9.5 -7t8 -6.5t4.5 -2.5z" />
</svg>
