<?xml version="1.0" standalone="no"?>
<!DOCTYPE svg PUBLIC "-//W3C//DTD SVG 1.1//EN" "http://www.w3.org/Graphics/SVG/1.1/DTD/svg11.dtd" >
<svg xmlns="http://www.w3.org/2000/svg" xmlns:xlink="http://www.w3.org/1999/xlink" version="1.1" viewBox="-10 0 266 256">
   <path fill="currentColor"
d="M60 235q0 3 1.5 4t4.5 1q15 0 29.5 -1.5t29.5 -1.5q4 0 12.5 -0.5t19 -0.5t19.5 -0.5t13 -0.5q4 -1 5.5 -4.5t1.5 -8.5q-14 0 -28.5 2t-28.5 2q-4 0 -5.5 -1t-1.5 -6v-9t0.5 -10t2 -10t3.5 -8q5 -7 11 -10.5t10.5 -7t7.5 -8.5t3 -15q0 -8 -2.5 -13t-6 -8t-8 -5t-8 -4.5
t-6.5 -5t-3 -6.5q0 -3 0.5 -4t3.5 -2q5 -1 11 -1.5t12.5 -0.5t12.5 -0.5t11 -2.5v-2v-2q0 -2 -0.5 -4t-2.5 -3h-6q-9 0 -17 2t-16 2h-5h-3l-2 -2l-0.5 -2t-0.5 -5t-0.5 -6t-0.5 -5v-6q0 -7 3 -9.5t6.5 -3t8.5 0t9 0.5t6.5 -1t2.5 -6q0 -2 -1.5 -3.5t-3 -1.5h-3.5h-4
q-12 0 -24.5 1.5t-24.5 3.5q-14 3 -21.5 5t-12 6t-6 12.5t-2.5 24.5v3v2q1 4 1 9t0.5 10.5t0.5 9.5v5q1 11 4.5 17t9 8.5t13 3t16.5 0.5h8t7.5 -0.5l7 -1t8.5 -2.5q1 0 1.5 -1t0.5 -3q0 -1 -1 -2l-3 -3h-40q-7 0 -11 -2t-6 -6t-2.5 -9t-0.5 -11v-8t3 -6q2 0 6.5 -0.5
t9.5 -0.5t9.5 -0.5t6.5 -0.5h5h5q2 10 7.5 15.5t11 10.5t9.5 9.5t4 11.5q0 9 -5 14t-11 9.5l-12 9t-7 12.5q-2 8 -2.5 16t0.5 16q-1 2 -2.5 4t-2.5 3q-13 0 -26 1.5t-26 0.5q-2 1 -2.5 3t-0.5 4zM80 83q0 -12 2.5 -19.5t8 -11t13 -5t18.5 -1.5v40h-41l-0.5 -1.5z" />
</svg>
