<?xml version="1.0" standalone="no"?>
<!DOCTYPE svg PUBLIC "-//W3C//DTD SVG 1.1//EN" "http://www.w3.org/Graphics/SVG/1.1/DTD/svg11.dtd" >
<svg xmlns="http://www.w3.org/2000/svg" xmlns:xlink="http://www.w3.org/1999/xlink" version="1.1" viewBox="-10 0 266 256">
   <path fill="currentColor"
d="M110 167q0 12 1 23.5t4 23.5l0.5 3.5t2 7.5t3 8.5t3 8.5t4 6t3.5 1q5 -1 5 -3.5v-6.5q0 -3 -0.5 -5t-1.5 -4t-2.5 -4t-1.5 -4q-4 -15 -7.5 -29t-3.5 -30q0 -13 3.5 -26.5t7 -26.5l7 -26t3.5 -27q0 -5 -1 -12.5t-3 -14.5t-6.5 -12t-12.5 -5q-1 0 -3.5 1.5t-2.5 3.5
t2.5 4.5t4.5 3.5q5 7 8.5 16.5t3.5 17.5q0 6 -1.5 12t-3 11.5t-3.5 11.5l-4 12q-5 14 -6.5 29t-1.5 31zM70 183v5v6v6v2q0 1 0.5 4t1 7.5t1 8.5t0.5 6q1 2 1.5 4.5t1.5 4.5t2.5 4t3.5 2q3 0 5 -0.5t2 -3.5q0 -1 -0.5 -1.5t-0.5 -1.5l-1 -3.5l-2 -7t-2 -6.5t-1 -4
q-1 -1 -1 -5t-0.5 -9t-1 -9.5t-1.5 -7.5v-5q0 -6 1 -12.5t2.5 -13t2.5 -13t1 -13.5q0 -4 -4 -4q-2 0 -3.5 0.5t-2.5 3.5q-4 13 -4.5 27.5t-0.5 28.5zM151 153l6 46q1 3 3 9.5t5.5 13t7.5 11.5t8 5q6 0 6 -6v-2v-2q-3 -4 -6.5 -8.5t-6 -10t-5 -10.5t-3.5 -10q-2 -6 -1.5 -10
t-2.5 -8v-15q0 -7 1 -13.5t1 -13.5q0 -2 -1 -4t-3 -2h-1v0l-3.5 3.5t-2.5 3.5v11.5t-2 11.5zM154 104v1l2 2t1 2q4 0 7.5 -4t6.5 -9.5t4.5 -11.5t1.5 -8v-2v-4.5v-5.5v-4v-3v-4.5v-4.5v-3q-2 -5 -5 -10t-9 -5q-2 0 -3 0.5t-1 3.5q0 2 1.5 5.5l3 7t2.5 7.5t1 7q0 12 -4 22
t-9 21v0zM73 103q0 2 2 3t4 1q5 0 8 -4.5t4 -8.5q1 -2 1.5 -7t1 -10.5t1 -10.5t0.5 -7v-1v-1q0 -3 -1 -7.5t-3.5 -8t-6 -6t-7.5 -2.5t-4 3v2q5 3 7.5 7t3.5 8.5t1 10.5v10q0 5 -1.5 9t-4 8t-4.5 6.5t-2 5.5z" />
</svg>
