<?xml version="1.0" standalone="no"?>
<!DOCTYPE svg PUBLIC "-//W3C//DTD SVG 1.1//EN" "http://www.w3.org/Graphics/SVG/1.1/DTD/svg11.dtd" >
<svg xmlns="http://www.w3.org/2000/svg" xmlns:xlink="http://www.w3.org/1999/xlink" version="1.1" viewBox="-10 0 266 256">
   <path fill="currentColor"
d="M137 117v19q0 7 2 13t7 11t16 9q0 1 3.5 2t3.5 2q1 0 2 1l2.5 2.5l2.5 2.5t2 1q2 4 4 10.5t3.5 14t2.5 15.5t2 14.5t3 10.5t4 4q4 0 5.5 -3.5t1.5 -6.5v-2v-1l-14 -54q-1 -5 -4 -8.5t-7 -5.5t-9 -3.5t-9 -3.5t-7.5 -5t-5.5 -7v-5.5t-0.5 -7.5t-0.5 -7.5v-5.5v-10v-12
v-13.5t0.5 -16.5t0.5 -13.5v-5.5l4 -3l3 -0.5t5 -0.5h7q5 0 9 1.5t7 4t3 7.5q0 7 -3.5 12.5t-7.5 11t-7 11t-3 13.5q0 4 1.5 8.5t4.5 8.5t7 6.5t9 3.5q2 0 3 -0.5t1.5 -2t0.5 -2.5v-2v-4q-7 -3 -12.5 -8t-5.5 -13q0 -6 3 -10.5t7 -9.5t7 -10t3 -13t-3.5 -12.5t-9 -6.5
t-12.5 -2.5t-14 -0.5q-3 0 -5 1t-4 1q-3 0 -5 -1t-6 -1h-2t-3.5 0.5t-3 1.5t-1.5 2q0 2 2 2.5t5 0.5q2 0 4 0.5t3 2.5v8q0 15 -1 30t-1 30zM78 152v7q0 4 0.5 8t0.5 8v4v1.5t0.5 3.5t0.5 4v3t0.5 5.5t1.5 10.5t2.5 12.5t3 12.5t3 10t3.5 4q3 0 5.5 -2t3.5 -5
q-9 -19 -12.5 -37.5t-3.5 -39.5q0 -14 0.5 -29t2.5 -29q1 -11 3 -20.5t2 -20.5q0 -7 -1 -12t-2 -10.5t-2.5 -10.5t-2.5 -11q0 -1 -1 -2t-2.5 -2t-2.5 -2t-2 -1q-4 0 -5.5 0.5t-1.5 3.5v1v2q9 11 12 22.5t3 24.5q0 17 -2.5 33t-4.5 32l-1 3v3t-0.5 5t-0.5 6v4zM52 172
q0 11 2 22t5 21l1 2.5l2 5t2 4.5t2 2q3 2 4.5 -0.5t1.5 -5.5q0 -5 -1 -10.5t-3 -11t-3.5 -10.5t-2.5 -11v-17q0 -11 1.5 -21.5t1.5 -22.5q-5 0 -7 4q-3 13 -4.5 24.5t-1.5 24.5zM105 191q1 4 1.5 9t1.5 9.5t3 8t7 3.5q4 0 4 -3v-6q0 -6 -3 -11.5t-5 -10.5q-2 -8 -3.5 -17
t-1.5 -17q0 -9 2 -18t2 -17v-1v0q-2 -2 -3 -3.5t-4 -1.5q-1 0 -2.5 4t-2 9.5l-1 11t-0.5 7.5q0 11 1.5 23t3.5 21zM64 74q0 4 -1 7.5t-2.5 7t-2.5 7t-1 6.5q6 0 9.5 -3.5t5 -9t2 -11.5t0.5 -10v-8t-1.5 -8t-3.5 -7t-7 -6h-1h-1q-4 0 -4 4v1l1 2l2 4l2 4t1 3q1 3 1.5 8t0.5 9
zM101 96l1.5 1.5l0.5 0.5h1q5 0 8.5 -4t5 -9.5t2 -11t0.5 -9.5q0 -3 -0.5 -8.5t-1.5 -10t-4 -8t-8 -3.5q0 8 2 16t2 16q0 9 -2 16t-7 14z" />
</svg>
