<?xml version="1.0" standalone="no"?>
<!DOCTYPE svg PUBLIC "-//W3C//DTD SVG 1.1//EN" "http://www.w3.org/Graphics/SVG/1.1/DTD/svg11.dtd" >
<svg xmlns="http://www.w3.org/2000/svg" xmlns:xlink="http://www.w3.org/1999/xlink" version="1.1" viewBox="-10 0 266 256">
   <path fill="currentColor"
d="M118 247q0 4 4 4t7.5 -5t6.5 -11.5t5 -13t3 -9.5q0 -1 1 -3.5t1.5 -5t1.5 -5t2 -3.5q2 -5 4.5 -10.5t3.5 -11.5q0 -2 0.5 -5.5t1 -8t1 -7.5t0.5 -4v-12q0 -10 -1 -19.5t-4 -19.5v-1q0 -2 4.5 -3.5t9.5 -3t10 -2t6 -0.5q5 0 8.5 5t3.5 10q0 9 -4 16l-8 14t-7.5 14.5
t-3.5 15.5q0 3 1.5 11t4 17.5t5.5 20t6.5 19t7 14t6.5 5.5t6 -1t3 -5v-1l-1 -1.5l-1 -1.5l-1 -1l-1 -1l-1.5 -2t-2.5 -4.5t-2.5 -4.5l-1.5 -2q-8 -14 -13 -30t-5 -32q0 -7 2.5 -14t6 -13.5t7.5 -13t7 -12.5v-3v-4q0 -3 -1 -6.5t-3 -7t-5 -6t-7 -2.5h-5q-1 0 -5.5 1t-9.5 1.5
t-9.5 1t-6.5 0.5q-4 -3 -5.5 -6.5t-1.5 -8.5q0 -7 2.5 -13.5t6.5 -13t8 -12t7 -10.5q0 -4 -1.5 -5.5t-4.5 -1.5q-5 0 -9.5 7.5t-8 17t-5.5 19t-2 12.5q0 4 1 8t1 8t-3 5t-6.5 1t-6.5 1t-3 4t4 3t8 -1.5t8 -1.5h1l2 1q1 6 1.5 10t1 7.5t0.5 7.5v8q0 13 -1.5 27t-5 27.5
t-8 26.5t-11.5 25l-1 1.5l-2 3l-2 3t-2 2.5v1zM87 242q2 4 4 5t5 1t4 -1t1 -5q-1 -3 -2 -6.5t-3 -7.5t-3 -7.5t-2 -6.5q-3 -12 -4.5 -24t-1.5 -24q0 -6 0.5 -11t0.5 -10t0.5 -10.5t0.5 -11.5q2 -14 4.5 -27t2.5 -27v-6.5t-0.5 -10t-2 -11.5t-3 -10.5t-4.5 -7.5t-7 -3
q-2 0 -4 0.5t-2 2.5q0 4 3 6.5t5 5.5q2 5 4 10.5t3 12t1 12v10.5q0 4 -0.5 8t-2 8t-2.5 8t-2 7q-2 8 -2.5 17.5t-0.5 17.5q0 25 2.5 48.5t7.5 47.5zM44 160q0 2 0.5 7.5t1.5 13.5t3 16.5t4 15.5t5 12t7 5q0 1 2 0t3 -1v-2.5v-1.5v-2.5v-1.5q0 -1 -1 -3t-2.5 -4.5t-2.5 -4.5
l-1 -2q-1 -2 -2 -5.5t-2.5 -8t-2.5 -8t-2 -5.5q1 -5 -0.5 -10t-1.5 -10q0 -8 2 -14.5t2 -13.5v-4v-3q0 -2 -1 -2.5t-3 -0.5q-3 0 -4.5 5.5t-2.5 12.5t-1 13v7zM99 155v1q1 3 2 9t2 12.5t2 11.5t1 6q0 2 1 6l2 8t2.5 7t4.5 3t4.5 -2.5t1.5 -4.5v-2l-11 -32q1 -7 -0.5 -14.5
t-1.5 -14.5q0 -8 1.5 -14.5t1.5 -14.5q-6 0 -8.5 4.5t-3.5 10.5t-1 11.5v8.5zM51 105v1v2t0.5 2t1.5 1q4 0 6.5 -4t4.5 -9t3 -10t1 -8v-2.5t-0.5 -6t-0.5 -6.5v-5q-1 -2 -1.5 -6t-2 -7.5t-4 -6t-7.5 -2.5q-1 0 -2 1t-1 2v0.5v0.5q1 1 2 3t2 4.5t2 4.5t1 3l0.5 2t0.5 5
t0.5 5.5t0.5 4.5v2v3q0 1 -0.5 3t-0.5 4.5t-0.5 4.5t-0.5 3q-3 2 -4 4.5t-1 6.5zM115 60q0 7 -0.5 11t-1.5 8t-2.5 7.5t-4.5 9.5v1v1q7 0 11 -5t6 -11.5t2 -14v-11.5v-2q0 -1 -1 -4l-2 -6t-2 -5.5t-2 -3.5t-2.5 -2t-3.5 -1q-4 0 -4 4q0 3 1 6t2.5 6t2.5 6t1 6z" />
</svg>
