<?xml version="1.0" standalone="no"?>
<!DOCTYPE svg PUBLIC "-//W3C//DTD SVG 1.1//EN" "http://www.w3.org/Graphics/SVG/1.1/DTD/svg11.dtd" >
<svg xmlns="http://www.w3.org/2000/svg" xmlns:xlink="http://www.w3.org/1999/xlink" version="1.1" viewBox="-10 0 266 256">
   <path fill="currentColor"
d="M80 222q2 3 3 7.5t2.5 9.5t4 8.5t6.5 3.5q2 0 3.5 -1t1.5 -4l-0.5 -1t-0.5 -2l-1.5 -2l-1.5 -2q0 -1 -0.5 -2.5l-1 -3t-1 -3.5l-0.5 -2l-1 -1.5t-1.5 -3t-1.5 -3l-1 -1.5q-4 -11 -5.5 -23t-1.5 -23v-9q0 -1 0.5 -6t1 -11t1.5 -10.5t1 -6.5q3 -7 6.5 -16.5t6 -19.5t4 -20
t1.5 -17q0 -5 -1 -13.5t-3.5 -16t-7 -13t-10.5 -5.5h-3t-2 1q0 2 2.5 5t6 6.5t6 7t3.5 5.5t1.5 5.5t0.5 7.5v7v6q0 6 -1.5 12l-3 12t-3.5 11.5t-4 11.5q-5 14 -6.5 28t-4.5 28q0 1 -0.5 2.5t-0.5 3.5v3v2q0 12 2.5 23.5t4.5 24.5zM183 243q1 2 3 3.5t4 1.5h1q0 -1 1 -2t2 -1
v-9q0 -25 -1 -48.5t-1 -48.5q0 -5 -1 -10.5t-5 -7.5q-1 -1 -3.5 -2.5l-5 -3t-5 -3.5t-3.5 -2q-2 -2 -2.5 -3t-0.5 -3q0 -6 3 -10t7 -6t8.5 -3t8.5 -3t7 -4.5t3 -6.5v-26q0 -2 -2.5 -3.5t-5.5 -3.5t-6 -3.5t-4 -1.5h-6h-6h-11t-9 1.5t-7.5 4t-6.5 7.5q-1 2 -3 5.5t-2 4.5v94
l-4 45q-2 2 -3.5 7.5t-3 12t-3 12.5l-2.5 10v2q0 1 0.5 2t1.5 1q2 0 4 -1.5t3 -3.5l2 -4t1 -4q1 -2 2 -6t1.5 -8t1.5 -8t1 -5t0.5 -6t1 -11t1 -10.5t0.5 -6.5q2 -3 2.5 -8t0.5 -8v-90q0 -7 2.5 -11.5t7 -6.5t10 -3t11.5 -1t10 0.5t6.5 2.5t3.5 6t1 10v10q-2 4 -4.5 6t-5.5 3
t-6.5 2t-7 3.5t-6.5 6.5t-5 11v0.5v0.5q0 6 2 9t4.5 6t6 5t6.5 5t5 7t2 9q0 17 -1 33t-1 33v34zM53 173q0 11 0.5 23t2.5 23q0 1 0.5 3t1.5 4t2 3.5t3 1.5q3 0 3.5 -2t0.5 -5q0 -7 -1 -14t-2.5 -14.5t-2.5 -15t-1 -14.5q0 -5 2.5 -11t2.5 -12v-6q1 -6 3 -11t2 -11
q0 -2 -0.5 -3.5t-2.5 -1.5q-3 0 -5 4t-3.5 10.5t-2.5 14t-1.5 14.5t-1 12.5t-0.5 7.5zM97 158q0 12 0.5 22.5t3.5 21.5q1 2 1.5 5t1.5 6.5t2.5 6t3.5 2.5t3 -2t1 -4q0 -4 -1.5 -7l-3.5 -7q-1 -6 -2.5 -11t-2 -9.5l-1 -9t-0.5 -9.5q0 -12 2.5 -24t2.5 -25q-4 0 -6 3.5
t-3.5 8.5t-1.5 10v7v15zM60 90q0 2 2 2h3q4 0 6.5 -4t4 -9t1.5 -10v-8t-0.5 -8t-2 -10.5t-4.5 -9t-8 -3.5q-1 0 -2 0.5t-1 1.5q0 4 1 7.5t2.5 7.5l3 8t1.5 8q0 8 -2 13.5t-4 12.5q-1 0 -1 1zM118 54v10t-2 10q0 3 -1.5 5l-3 4t-2 4.5t-0.5 5.5q5 0 8.5 -5t5.5 -12t3 -13.5
t1 -9.5q0 -1 -0.5 -5.5t-1.5 -9.5t-3.5 -9t-5.5 -4q-1 0 -2.5 0.5t-1.5 1.5q0 3 1 5.5t2 6l2 7t1 8.5zM151 61q0 3 2 4t5 1h1l2.5 -0.5t3.5 -0.5t4 -0.5t6.5 -0.5t6.5 -0.5t4 -0.5t2 -1t1 -2v-1q0 -2 -2.5 -3t-3.5 -1q-8 0 -16.5 1.5t-15.5 1.5v2v1z" />
</svg>
