<?xml version="1.0" standalone="no"?>
<!DOCTYPE svg PUBLIC "-//W3C//DTD SVG 1.1//EN" "http://www.w3.org/Graphics/SVG/1.1/DTD/svg11.dtd" >
<svg xmlns="http://www.w3.org/2000/svg" xmlns:xlink="http://www.w3.org/1999/xlink" version="1.1" viewBox="-10 0 266 256">
   <path fill="currentColor"
d="M67 164q0 7 1 15.5t2.5 17.5t3.5 18t3 15q0 2 1 4.5t2.5 6t4 6t4.5 2.5t2.5 -1.5t0.5 -3.5v0v0q-8 -21 -12.5 -43t-4.5 -44q0 -16 3 -32.5t6 -30.5q2 -9 4.5 -17.5t2.5 -19.5q0 -6 -1 -13t-3 -13.5t-6.5 -12t-11.5 -7.5l-1 1.5l-1 1.5q0 4 2 7t4 6.5t4.5 6.5t3.5 6
q1 6 1 10v11q0 9 -1.5 17.5t-4 17.5t-4.5 17.5t-3 16.5v4.5t-0.5 9l-1 11t-0.5 8.5v1zM165 242q0 1 1 2t2 1q2 1 4 -0.5t2 -4.5q0 -1 0.5 -2.5t0.5 -4.5v-4v-3q0 -20 -1 -39t-1 -39v-3v-4v-4.5v-2.5q0 -1 0.5 -1.5l0.5 -0.5q1 0 2.5 -1l1.5 -1h34l1.5 -1.5l2.5 -2.5v-1
q0 -3 -2.5 -4t-3.5 -1q-6 0 -11.5 1t-10.5 1q-2 0 -4 0.5t-4.5 0t-4 -1t-2.5 -2.5v-4v-5q0 -11 0.5 -14.5t3 -4t6.5 0.5t10 -3q3 -1 5 -7.5t3 -14t1 -14.5v-10v-4.5v-6.5t-1 -5.5t-3 -2.5q-4 0 -5 3v3v4v4v2q0 3 -0.5 7.5l-1 9t-0.5 7.5v4q-1 6 -3 10t-5 5.5t-7.5 2
t-10.5 0.5h-5.5t-6.5 -1t-5.5 -3t-2.5 -6v-47q0 -2 -1.5 -2h-2.5t-3 0.5t-2 3.5v42q0 9 4 12t8 4.5t8.5 3.5t4.5 6q0 1 0.5 3.5t1.5 5t1.5 5t0.5 3.5v1q0 2 -2.5 4t-4.5 3q-1 0 -4.5 0.5t-7.5 0.5t-7.5 0.5t-5.5 0.5t-5 -0.5t-5.5 0t-4 2t-1.5 4.5q10 0 19.5 -1t19.5 -1
q1 0 2.5 1t2.5 3q3 13 3 27q0 13 -0.5 27t-0.5 27q0 14 2 27zM42 163v8v8.5v8.5v3q0 3 1.5 10.5t3.5 15t5 13.5t6 6t3.5 -1.5t0.5 -4.5v-3l-1 -3l-2 -6t-2 -5.5t-1 -3.5q-7 -25 -7 -51q0 -8 1.5 -16t1.5 -16q0 -3 -0.5 -4.5t-2.5 -1.5t-3.5 2t-2 4.5l-1 5t-0.5 3.5v4v7.5
v9.5v7zM103 226q1 1 2.5 2t2.5 1q3 0 4.5 -2t1.5 -4q0 -3 -2.5 -6t-3.5 -6q-3 -15 -6.5 -27.5t-3.5 -28.5q0 -6 1.5 -13t1.5 -13q0 -3 -0.5 -5t-3.5 -2q-2 0 -3 1.5t-2 3.5v24q0 20 2.5 38t8.5 37zM54 70q0 9 -2.5 16.5t-2.5 15.5q5 0 8 -4t4 -9.5t1 -11.5v-9v-7
q0 -6 -1 -11.5t-3 -10t-7 -4.5q-4 0 -4 4t2 6.5t3 6.5q2 4 2 8.5v9.5zM100 90v1l1.5 1.5l0.5 0.5q4 0 7 -4.5t4 -10t1.5 -11t0.5 -8.5v-9t-1 -10t-4 -8.5t-9 -3.5q0 1 0.5 3t0.5 3l0.5 1l1 2l1 2l0.5 1q1 5 1.5 11.5t0.5 11.5q0 3 -1 6.5t-2.5 7t-2.5 7t-1 6.5z" />
</svg>
