<?xml version="1.0" standalone="no"?>
<!DOCTYPE svg PUBLIC "-//W3C//DTD SVG 1.1//EN" "http://www.w3.org/Graphics/SVG/1.1/DTD/svg11.dtd" >
<svg xmlns="http://www.w3.org/2000/svg" xmlns:xlink="http://www.w3.org/1999/xlink" version="1.1" viewBox="-10 0 266 256">
   <path fill="currentColor"
d="M155 246q0 1 2 2.5t2 2.5q2 0 3.5 -1.5t2.5 -4.5t1.5 -5.5t0.5 -4.5q0 -11 -1 -22t-2 -22.5t-1.5 -22.5t-0.5 -22h35l1 -1l2 -2l0.5 -0.5l0.5 -0.5v-15q-3 -3 -5.5 -7.5t-4 -9.5t-2 -10.5t-0.5 -8.5v-11v-16v-16.5v-11.5q-1 -2 -4 -3t-6 -1q-1 -1 -4 -1t-6 -0.5t-5 -0.5
h-3q-2 0 -5.5 0.5t-7.5 1t-7.5 1t-4.5 0.5q-2 1 -4.5 2.5t-2.5 3.5l0.5 0.5l0.5 0.5l1 0.5t2 0.5h3h5h4.5h2.5l2 2v91l-0.5 1t-1.5 1q-3 1 -8 2t-7 1h-13q-1 0 -1 1.5v2.5v2.5t3 1.5h28l0.5 1t0.5 3t0.5 4.5t0.5 3.5q1 22 2.5 43.5t0.5 43.5zM78 165q0 2 1 8.5t2 15t3 17.5
t4 16.5t5 12t7 3.5q1 -2 1.5 -4t0.5 -4t-0.5 -3l-1 -2t-1 -1.5t-1.5 -2.5q0 -2 -1 -5l-2 -6t-2 -5.5t-1 -3.5q-3 -13 -3 -27.5v-27.5v-3v-3v-3v-1q0 -2 0.5 -7.5t1 -11.5t1 -11t0.5 -8q4 -9 5.5 -19t1.5 -20q0 -3 -1 -11t-3 -16t-5 -14.5t-8 -6.5q-2 0 -3.5 0.5t-1.5 2.5
q0 5 2 8.5t4 7.5l4 8t2 9v34q-1 4 -2.5 8.5t-2 9t-1 8.5t-0.5 7q-1 1 -1.5 3.5l-1 5t-0.5 5v3.5v3v4v4v3t-0.5 4t-0.5 6.5t-0.5 6t-0.5 3.5zM53 162v6v6v6v2q0 2 1 6t2 9t2.5 11t3 11t3 8.5t3.5 3.5t4 -2l3 -3q-12 -32 -12 -66q0 -10 1 -21.5t3 -21.5q0 -1 -1 -3t-3 -2
q-3 0 -4.5 4t-3 9t-2 10t-0.5 7v3v5.5v6.5v5zM103 145q0 16 2.5 31.5t6.5 30.5q1 1 1.5 3.5t1.5 4.5t3 4t4 2l2 -0.5t2 -1.5l0.5 -2l0.5 -2q0 -5 -2.5 -8t-4.5 -7q-4 -14 -6.5 -27.5t-2.5 -27.5q0 -7 1 -13t1 -13l-0.5 -3t-0.5 -4l-1 -1l-2 -2v0v0h-1l-2 2l-1 1
q-2 9 -2 16.5v16.5zM159 129q0 -22 1 -44t1 -44h17l0.5 1t0.5 2l0.5 1.5t0.5 2.5q0 9 -1 17t-1 16q0 6 0.5 12t1.5 11.5t3 11t4 11.5q1 1 2 4l1 3l-1 2h-3.5t-7 0.5t-6.5 0.5h-5q-4 0 -6 -1.5t-2 -6.5zM59 97q0 2 0.5 3.5t3.5 1.5t6 -3.5t5 -8.5t3 -10t1 -8t-1 -9.5
t-3.5 -12.5t-5.5 -10.5t-8 -4.5h-1.5h-2.5l-0.5 1t-0.5 2l0.5 1.5l0.5 1.5q1 1 2 2.5t2 3.5t1.5 3.5t1.5 1.5l1 2q2 3 2 7v9t-1 8.5t-2.5 6.5t-2.5 6t-1 6zM106 91l0.5 1t1.5 2l0.5 0.5l0.5 0.5h1q4 0 6.5 -4.5t4 -11t2.5 -12.5t1 -10q0 -2 -0.5 -6.5t-2 -9t-3.5 -8t-6 -3.5
q-2 0 -2.5 1.5t-0.5 2.5q0 6 2.5 12t2.5 12q0 5 -1 9t-2.5 8t-2.5 8z" />
</svg>
