<?xml version="1.0" standalone="no"?>
<!DOCTYPE svg PUBLIC "-//W3C//DTD SVG 1.1//EN" "http://www.w3.org/Graphics/SVG/1.1/DTD/svg11.dtd" >
<svg xmlns="http://www.w3.org/2000/svg" xmlns:xlink="http://www.w3.org/1999/xlink" version="1.1" viewBox="-10 0 266 256">
   <path fill="currentColor"
d="M196 224q2 3 2 7.5t0.5 9t2.5 7.5t7 3h3q3 0 3 -2v-6q0 -10 -2.5 -19.5t-5.5 -20.5v-1q0 -1 -0.5 -3t-1 -4.5t-1.5 -4.5t-1 -3q-1 -10 -3.5 -21.5t-2.5 -21.5q0 -3 2 -6.5t4.5 -6.5t5.5 -6t4 -6q3 -10 4 -17.5t1 -16.5q0 -7 -3 -11.5t-8 -7t-11 -4t-12 -1.5t-11.5 0.5
t-12.5 1.5q-2 1 -2 1.5v1.5q0 2 1.5 3t3.5 2q6 1 13.5 0.5t15 0.5t12 5t4.5 12q0 2 -0.5 6.5t-1.5 9t-3 8t-5 3.5q-4 0 -5.5 -2t-2 -4.5l-1 -5t-2.5 -5t-5 -4.5t-9 -2h-6h-7.5t-6.5 1.5t-3 4.5v2t2 2h24q1 0 2.5 1t2.5 2q2 6 3.5 11.5t1.5 11.5q0 4 -2.5 6t-6.5 3t-8.5 1h-9
t-8 1.5t-4.5 3.5q1 4 3 4.5t5 0.5q7 0 13.5 -1.5t13.5 -1.5q3 0 4.5 2t2.5 4q1 18 3.5 35.5t4.5 36.5zM131 60q-2 46 -4 91t-9 90v2v2q8 0 10 -4t2.5 -9.5t0 -11t2.5 -9.5q0 -4 0.5 -10.5t1 -15.5t1 -18.5t1 -18.5t0.5 -16t1 -10v-3v-10t0.5 -11.5t0.5 -10v-5.5
q0 -2 0.5 -7.5l1 -11t1.5 -10.5t2 -6q2 -2 5.5 -3.5t7 -2t6.5 -0.5h7q2 0 7.5 -0.5t11.5 -0.5t11 -0.5t7 -0.5q1 1 3.5 1.5t3.5 0.5h2q2 0 4 -2.5t2 -4.5v-1q0 -1 -1 -2l-1 -1h-21q-11 0 -22.5 -0.5t-21 1.5t-16 8.5t-8.5 20.5zM66 187q1 3 2 8t2.5 10.5t3.5 11.5t4.5 10.5
t6 7.5t8.5 3q3 0 4 -1t2 -5q0 -1 -0.5 -2t-1.5 -2q-3 -3 -5.5 -7.5t-4 -9t-3.5 -9t-5 -9.5q0 -1 -0.5 -5l-1 -8l-1 -8t-0.5 -6v-9q0 -13 2.5 -26t5 -25.5t5 -25.5t2.5 -27q0 -3 -0.5 -10t-1.5 -14.5t-4 -12.5t-7 -5h-3t-2 1v5q0 5 1.5 9t4 8.5t4 9t1.5 10.5q0 8 -1 17
t-3.5 18l-5 18t-5.5 16q0 1 -0.5 2.5l-0.5 1.5q-1 10 -1.5 20.5t-0.5 19.5v4v6v6v4zM38 172v6q0 3 0.5 6.5t0.5 6.5v2q0 3 0.5 8t2.5 10.5t4.5 9.5t5.5 4q5 0 5.5 -2.5t0.5 -5.5q0 -7 -2.5 -13t-4.5 -12q-1 -7 -1 -15v-15q0 -6 1 -12t2.5 -12t2.5 -12t1 -12q0 -2 -1.5 -2.5
t-3.5 -0.5h-0.5h-0.5l-2 2t-2 3q-3 7 -4.5 14t-2.5 13.5t-1.5 13.5t-0.5 15zM87 149q1 2 1 6t0.5 8.5t1 8.5t1.5 6q0 4 1 9t2.5 9.5t3.5 8.5t5 8h1q4 0 5 -3t1 -5q0 -7 -2 -12.5l-4 -11t-3.5 -11t-1.5 -11.5q0 -10 1.5 -19t1.5 -19v-7l-1.5 -1l-1.5 -1q-5 2 -6.5 6.5
t-2.5 10.5t-1 11.5t-2 8.5zM47 95q0 2 1 2.5t3 0.5q5 0 8.5 -5t5.5 -12t2.5 -14t0.5 -11q0 -2 -0.5 -6t-1.5 -7.5t-3 -6.5t-4 -3q-3 0 -4.5 0.5t-1.5 3.5q0 7 2.5 13t2.5 12q0 5 -0.5 9t-2 7.5t-3.5 7t-5 7.5v1v1zM100 91q0 3 1 3.5t3 0.5q4 0 7 -4.5t4.5 -10.5t2 -12
t0.5 -9v-5q0 -5 -0.5 -10.5t-2.5 -9.5t-6 -4q-2 0 -3 2t-1 4q0 3 0.5 6.5l1 7t1 6.5t0.5 5v2q0 4 -1 7.5t-2.5 7t-3 6.5t-1.5 7z" />
</svg>
