<?xml version="1.0" standalone="no"?>
<!DOCTYPE svg PUBLIC "-//W3C//DTD SVG 1.1//EN" "http://www.w3.org/Graphics/SVG/1.1/DTD/svg11.dtd" >
<svg xmlns="http://www.w3.org/2000/svg" xmlns:xlink="http://www.w3.org/1999/xlink" version="1.1" viewBox="-10 0 266 256">
   <path fill="currentColor"
d="M163 122q-1 32 0 64t3 64h1h1q3 0 4.5 -1.5t2 -4t0 -5.5t-0.5 -5q0 -28 -1.5 -56t-1.5 -56q3 0 4 -0.5t2 -0.5q2 0 3 0.5t4 2.5q0 1 1 4l2 6t1.5 5.5t1.5 3.5l0.5 1l1 2l1 2l0.5 1q0 1 -0.5 3.5t-1.5 2.5v3q0 13 2.5 25.5t2.5 25.5q0 2 0.5 7t0.5 10t0.5 9.5t0.5 6.5
l0.5 0.5l0.5 0.5q2 0 3 -1t2 -3v-5q0 -3 0.5 -7t0.5 -8v-4q0 -23 -1.5 -46t-8.5 -45q-4 -5 -8.5 -7t-8.5 -4t-6.5 -5t-2.5 -9q0 -1 0.5 -2t0.5 -2.5t0.5 -3t0.5 -2.5q2 -1 3.5 -1h2.5h2.5h4.5q6 -2 9 -6.5t4 -10t1 -11.5v-11v-5t-0.5 -6t-2 -5t-4.5 -2t-3.5 3t0 8t0.5 10.5
t-1 10t-3.5 8t-7.5 3.5h-1h-1t-2 -0.5t-1 -1.5v-55q0 -3 -2 -4t-4 -1h-3t-2 2v53q0 1 0.5 4t0.5 4q0 2 -1.5 3.5t-3.5 1.5q-4 0 -6.5 -1.5t-4 -4t-2 -6t-1.5 -6.5q0 -1 -0.5 -4.5t-0.5 -7.5v-7.5v-5.5q-1 -1 -2 -3t-2 -2t-1 0.5v0.5q-3 2 -4 2.5t-1 3.5v2q0 1 1 6t1.5 10
l1 10t1.5 7l0.5 1.5t2 3.5t2.5 4l1 2l18 4q1 1 1 1.5v1.5v2v3t-0.5 5t-0.5 5v3l-2 1q0 1 -1.5 1.5l-1.5 0.5q-9 6 -14.5 13.5t-6.5 19.5q0 3 -0.5 9.5t-1 13.5t-1 13.5t-0.5 9.5q1 2 1 6v9v11q0 5 0.5 9.5t1.5 7.5t3 3t3.5 -0.5t1.5 -2.5q0 -8 -1 -15.5t-1 -15.5v-4
q0 -3 0.5 -5t0.5 -4v-2v-7t0.5 -10.5t0.5 -10.5v-7q0 -3 1 -8.5t3 -11t5 -9.5t8 -4v0h1l1.5 0.5zM78 187q2 2 2.5 7.5t0.5 12t0.5 14t1.5 13.5t3 9.5t6 3.5q1 0 3.5 -1t1.5 -4q0 -4 -1.5 -9t-3 -9.5l-3 -9t-1.5 -9.5v-56q4 -20 7 -41t3 -41q0 -5 -0.5 -14t-2.5 -17.5
t-6.5 -15t-12.5 -6.5q-2 0 -3 0.5t-1 2.5v0.5v0.5q4 7 7.5 13.5t5.5 13t3 13.5t2 16q-2 3 -2 5.5v6.5q-3 21 -6.5 42.5t-3.5 42.5v3v5v5v3zM53 217q1 2 1.5 5.5l1 7t2 6t4.5 2.5q4 0 5.5 -2t1.5 -6q0 -3 -1 -7t-2.5 -8.5t-3 -8.5t-1.5 -8q-1 -2 -0.5 -5.5t-1.5 -5.5v-3v-4
v-4v-2q0 -8 1 -14.5t3 -13.5t3 -13.5t1 -12.5q0 -3 -0.5 -4t-4.5 -3q-4 3 -6 11t-3.5 17.5t-1.5 17.5v11v6q0 2 0.5 8t0.5 12.5t0.5 12.5t0.5 8zM100 181l4 33q0 2 2.5 4.5t4.5 2.5q4 0 4 -4q0 -6 -2.5 -13.5t-3.5 -13.5q-2 -8 -2 -13.5v-13.5q0 -11 1.5 -22t1.5 -22v-3v-3
l-0.5 -1l-0.5 -1h-0.5h-0.5q-3 0 -4 2.5t-1.5 6t-0.5 6.5v4t-0.5 4t-1 6.5t-1 6.5t-0.5 4v5t0.5 8t0.5 7.5v4.5v5zM59 93q0 4 3 4q4 0 6.5 -3.5t3.5 -8t1.5 -9t0.5 -7.5q0 -4 -1 -10t-3.5 -12.5t-6 -11t-8.5 -4.5q-4 0 -4 4v1q4 5 6 9.5t3.5 9.5t1.5 10v11q0 5 -1.5 9
t-1.5 8zM104 93q1 1 2 1h3q4 0 6.5 -3.5t3.5 -8.5t1.5 -10t0.5 -8q0 -2 -0.5 -7.5t-2 -11.5t-4 -10.5t-5.5 -4.5t-3.5 1t-0.5 2q0 6 2.5 14t4.5 14q0 3 -0.5 7.5t-1.5 8.5t-2.5 8t-3.5 8z" />
</svg>
