<?xml version="1.0" standalone="no"?>
<!DOCTYPE svg PUBLIC "-//W3C//DTD SVG 1.1//EN" "http://www.w3.org/Graphics/SVG/1.1/DTD/svg11.dtd" >
<svg xmlns="http://www.w3.org/2000/svg" xmlns:xlink="http://www.w3.org/1999/xlink" version="1.1" viewBox="-10 0 266 256">
   <path fill="currentColor"
d="M89 248q3 3 7 3q2 0 2.5 -1t0.5 -2.5v-3.5v-2q0 -9 -3 -20t-7 -20v-56q0 -10 3.5 -21t6.5 -21q4 -12 5 -25t1 -26v-13q-1 -3 -2 -8.5t-2.5 -10.5t-4.5 -8.5t-8 -3.5q-2 0 -3 1.5t-1 2.5v1.5v0.5q1 0 2 1.5l2 3l2 3t1 2.5t1 4t2 7t2 7t1 5q1 0 1 2v3q0 14 -3 27.5t-6 26.5
q0 4 -2.5 6.5t-3.5 6.5t-2 9t-1.5 10l-1 10t-0.5 10v1v0q1 4 1.5 12.5t1 18.5t1.5 19t1 13l0.5 2t1 2.5t1 1.5l0.5 1q1 2 1 4t0.5 5t1 5.5t0.5 3.5zM52 175v4v4v3v2q0 1 1 5.5t1.5 10t1.5 11t1 8.5q1 2 1 5.5t1 6.5t2.5 5.5t5.5 2.5q2 0 4 -2t2 -4v0q0 -1 -1 -5t-2 -8.5
t-2 -8.5t-1 -5q-2 -10 -2.5 -20t-0.5 -20q0 -7 1 -13.5l2 -13t2 -12.5t1 -13q0 -3 -1 -4t-4 -1h-1.5h-1.5q-1 2 -1.5 5t-1.5 7t-2 7.5t-1 4.5q-1 2 -1 5.5v7t-0.5 6.5t-2.5 6v2v4.5v4.5v2zM101 164q0 7 0.5 13t1.5 11.5t2.5 11t3.5 12.5q1 3 1.5 7t1.5 8t4 7t7 4q3 1 4 -1.5
t1 -4.5t-1 -3.5l-2 -3l-2 -3t-1 -3.5q-3 -6 -5 -12t-4 -13q0 -1 -1 -5t-2 -5v-4v-6v-5v-4q0 -11 2 -21.5t2 -21.5q0 -2 -1 -3t-3 -1h-2.5t-2.5 2q-3 11 -3.5 21.5t-0.5 22.5zM137 162q0 5 0.5 14t2 18.5t4.5 17.5t8 11q2 1 4 1h5h5h4l3 1l3 1l1 -0.5l2 -1l2 -1t2 -0.5
q2 -1 4.5 -1t4.5 -0.5t4 -1.5t4 -4q2 -11 2.5 -22.5t0.5 -22.5q0 -6 -0.5 -11t-0.5 -11q-1 -1 -2 -1h-2t-3 0.5t-2 2.5v15q0 2 -4.5 2.5t-10.5 1t-11 1t-7 0.5h-6q-3 -1 -3.5 -4.5t-1 -7.5t-1.5 -7t-5 -3q-2 0 -3.5 1t-2 3t-0.5 4v5zM150 191q0 -4 0.5 -7.5t6.5 -4.5
q1 0 4.5 -0.5t7.5 -1l8 -1t6 -0.5h3q4 0 5 2.5t1 5.5q0 2 0.5 7.5t-0.5 10.5t-3 9t-6 4h-25q-3 0 -4.5 -3.5t-2 -7t-1 -7.5t-0.5 -6zM134 125q2 4 7 6.5t11.5 3t12.5 0.5h10h12.5t9 -1.5t5.5 -6t2 -12.5t-1.5 -12t-4 -5.5t-8.5 -1.5h-12h-13.5t-12.5 3v3v2t2 2h6
q7 0 14.5 -1t14.5 -1h3h2l1 2l0.5 1.5t0.5 2.5v4t-1 5.5t-2.5 4.5t-3.5 2h-34q-8 0 -9.5 -4t-1.5 -10v-9t1 -10t4 -8.5t9 -4.5l37 -3q3 0 4.5 -2t3 -4.5t2 -5t0.5 -3.5v-1v-1v-3t-0.5 -4.5l-1 -5l-0.5 -2.5q0 -1 -3.5 -2t-8.5 -1.5t-10.5 -1.5t-11 -1.5t-10 -0.5h-5.5
q-2 -1 -3 -3.5t-1.5 -4.5t-2 -4t-4.5 -2h-1t-1 1t-0.5 5t-1.5 5v3q0 4 4 6t10 2.5t13.5 0.5t13.5 0.5t10 2t4 5.5q0 7 -2.5 10.5t-7 5t-10.5 1.5t-12 1q-1 0 -3.5 0.5t-5.5 1t-5.5 1t-3.5 0.5l-4.5 4.5t-3.5 4.5q-1 5 -1 8t-0.5 6.5t-0.5 6.5v7v12zM59 99q0 2 1.5 3.5
t3.5 1.5t4.5 -2.5t4 -5.5t2.5 -6.5t2 -5.5q0 -1 0.5 -4t1 -6.5t0.5 -6.5t1 -5v-0.5v-1.5q0 -2 -0.5 -7t-2 -10t-4.5 -8.5t-7 -3.5h-1l-1.5 0.5l-1.5 0.5v5q0 3 0.5 4t1 2.5t1.5 2.5t2 4t1.5 7.5t0.5 8.5q0 10 -3.5 16.5t-6.5 15.5v1v0zM112 93l1.5 1.5t1.5 0.5q5 0 7.5 -5
t3.5 -11.5t1.5 -13t0.5 -7.5q0 -3 -0.5 -5.5t-0.5 -5.5t-1 -6t-1 -7q-1 -3 -4.5 -3.5t-6.5 -0.5q0 8 2.5 15.5t2.5 15.5q0 9 -2.5 16t-4.5 16z" />
</svg>
