<?xml version="1.0" standalone="no"?>
<!DOCTYPE svg PUBLIC "-//W3C//DTD SVG 1.1//EN" "http://www.w3.org/Graphics/SVG/1.1/DTD/svg11.dtd" >
<svg xmlns="http://www.w3.org/2000/svg" xmlns:xlink="http://www.w3.org/1999/xlink" version="1.1" viewBox="-10 0 266 256">
   <path fill="currentColor"
d="M170 181q4 0 6 5.5t3 13t1 16.5t1 16.5t2.5 13t4.5 5.5t5 -2.5t2 -6.5v-1v-1q0 -1 -0.5 -3.5t-1.5 -2.5v-5t-1 -10t-1.5 -11.5t-0.5 -9.5v-0.5v-0.5q0 -1 -0.5 -3t-1.5 -4t-1.5 -4t-0.5 -3q-1 -1 -1.5 -2l-0.5 -1q-4 -5 -9 -6.5t-11 -1.5h-12.5t-11.5 -1.5t-8 -6
t-3 -13.5q0 -2 1.5 -4t3.5 -2h47q3 0 4.5 -3.5t2.5 -9t1 -11.5t0.5 -11.5t0.5 -9.5t2 -5t5.5 -1t7 -0.5t6.5 -1.5t3 -4v-1l-1 -0.5l-1 -0.5q-4 -3 -9 -3h-10l-1 -2v-3.5v-4.5v-5.5v-3.5q-1 -6 -6 -6h-3t-2 3v25h-19q-1 0 -1 -1v-2.5v-2.5v-1v-4v-4.5t0.5 -6.5t0.5 -6v-5
l0.5 -0.5t1.5 -0.5q0 -1 1.5 -2l1.5 -1h37v-8q-1 0 -3.5 -0.5t-5.5 -0.5t-5.5 -0.5t-3.5 -0.5t-2 0.5t-3 0.5t-3.5 0.5l-1.5 0.5h-2h-3q-3 0 -5 -1t-2 -4q0 -4 0.5 -7t0.5 -7q0 -3 -1 -7t-6 -4q-7 0 -7 8v1.5v0.5l1 3l1 3v1q0 7 -1 10.5t-4 4.5t-7.5 1h-11.5h-3t-4 0.5
t-3.5 0.5h-1.5v5h29q1 0 1.5 0.5t0.5 1.5l1 2l1 2v27q0 1 -1.5 2.5t-2.5 1.5l-2 0.5t-4 0.5h-3.5h-2.5l-0.5 0.5l-0.5 0.5l-1 -1l-1.5 -0.5l-1.5 -0.5v-25q0 -1 -1.5 -1h-2.5t-3.5 1t-2.5 4v21q0 1 -1.5 1.5l-3 1t-3 0.5h-2.5h-4t-2 -3q0 -4 2.5 -8.5t3.5 -8.5
q1 -3 1.5 -5.5t0.5 -4.5v-5v-7v-2v-4.5v-4.5v-2q-1 -4 -2.5 -7t-5.5 -3q-3 0 -3.5 2t-0.5 4q0 4 2 8.5t2 8.5q0 8 -2 15.5t-4 14.5q-1 0 -2.5 3l-1.5 3q0 1 0.5 3l1 4t1.5 3.5t2 1.5h17l2 2l1 1.5l1 1.5v31l0.5 2.5t0.5 3.5v5.5v7.5v8v5q2 6 6.5 10.5t10.5 5.5q2 0 6.5 0.5
t10 0.5h10h6.5zM62 149v4v6v5v2q0 2 1 8t3 14l4 16t4.5 14.5t5.5 11t6 4.5q2 0 3 -0.5t1 -3.5v-1q0 -1 -1.5 -3t-1.5 -3t-1 -4l-2 -6t-2 -6.5t-1 -5.5q-4 -14 -6 -27t-2 -28q0 -14 2.5 -26.5t6 -25t6 -25.5t2.5 -26v-8t-1.5 -10.5t-4.5 -9.5t-8 -4q-2 0 -3.5 0.5t-1.5 2.5v2
q1 1 1.5 2.5t2 3.5t2.5 4t1 3q1 2 1 5v6v6v6q0 4 -0.5 8t-1.5 7.5l-2 7t-2 8.5q-4 16 -7.5 32t-3.5 34zM41 158v5t0.5 6t0.5 5v2v3.5t1 6t1.5 7t0.5 5.5q0 3 0.5 6.5t1.5 6.5t3 5t6 2q2 0 3 -0.5t1 -2.5q0 -6 -1 -12.5t-2.5 -12.5t-3.5 -12t-2 -12v-3v-4.5v-4.5v-5
q0 -10 2 -19.5t2 -19.5q0 -2 -0.5 -3t-3.5 -1t-5 1.5t-3 4.5q-1 12 -1.5 22.5t-0.5 23.5zM89 158q1 2 1.5 7t1 11.5t1.5 13t2.5 12t4 9t6.5 3.5q2 0 3.5 -0.5t1.5 -3.5v-1v-1q-1 -1 -2 -4t-2.5 -6t-2.5 -5.5t-1 -3.5l-1 -1.5l-1 -1.5q-3 -20 -4.5 -39.5t0.5 -39.5l-2 -1h-1
h-1l-1 1q-1 1 -2 4.5l-1 3.5v43zM129 135v-37q0 -1 2 -2t5 -1h5h4h3l1 2.5t1 3.5v31l-1.5 2.5t-2.5 3.5h-1h-2q-1 0 -4.5 -0.5t-5.5 -0.5h-2zM162 135q0 -5 -0.5 -8.5t-0.5 -6.5v-6v-8v-10q0 -1 2 -2t4 -1h4.5h4.5q1 0 2 0.5t1 1.5v2v2.5v2.5v2v7.5t-0.5 7t-1.5 7t-2 7.5
q-1 3 -3 3.5t-4 0.5h-3t-3 -2zM45 82q0 3 1 3.5t4 0.5q5 0 8 -4.5t4.5 -10t2 -11t0.5 -8.5v-6.5t-1.5 -9t-4 -8t-6.5 -3.5h-1l-1 1l-1 1q-1 0 -1 3v2q0 4 0.5 6.5t2.5 5.5q1 1 1 5v5q0 5 -1.5 9t-3 7.5t-2.5 6t-1 5.5z" />
</svg>
