<?xml version="1.0" standalone="no"?>
<!DOCTYPE svg PUBLIC "-//W3C//DTD SVG 1.1//EN" "http://www.w3.org/Graphics/SVG/1.1/DTD/svg11.dtd" >
<svg xmlns="http://www.w3.org/2000/svg" xmlns:xlink="http://www.w3.org/1999/xlink" version="1.1" viewBox="-10 0 266 256">
   <path fill="currentColor"
d="M72 145q0 1 0.5 3.5t0.5 4.5v4v2q0 3 0.5 8.5t1.5 11.5t1.5 11t1.5 7q0 4 2.5 11.5t5.5 16t7.5 14.5t8.5 6q5 0 5 -5q0 -2 -3 -8.5t-7 -13.5t-7 -14t-4 -10v-3v-5v-5v-3q-1 -9 -2 -17.5t-1 -17.5q0 -11 2 -21.5t5 -21.5t5 -21.5t2 -21.5q0 -3 -1 -9t-3.5 -11.5t-6 -9.5
t-8.5 -3q-1 1 -1.5 2l-0.5 1v2q0 3 1.5 7t3 7.5t2.5 7.5t1 8q0 11 -1.5 22t-4 21.5t-4.5 21t-2 21.5zM51 164v25q0 2 1 6t2 9t2.5 10t3.5 9.5t4 7.5t5 3t4 -2t1 -5q0 -6 -2 -12.5t-4.5 -13t-4.5 -14t-2 -16.5q-2 -2 -2 -5v-5q0 -5 1 -10t1 -11v-9q-1 -1 -2 -1h-3t-3 3t-2 5
v26zM97 137q0 10 1 22.5t3 25t6 24t10 20.5h3q2 0 5.5 -2t4.5 -5q0 -1 -2 -5t-5 -8t-6 -8.5t-4 -6.5q-1 -3 -1 -9.5t-0.5 -14.5l-1 -16t-1.5 -14.5t-2.5 -10.5t-4.5 -4t-5 3v9zM145 204q1 4 5 6.5t8.5 3.5t9 1.5t7.5 0.5t6.5 -2t6 -5t4.5 -6.5t2 -6.5q0 -9 -2.5 -18.5
t-1.5 -18.5l-10 -22q0 -1 -1 -1.5t-2 -0.5q-2 0 -2.5 2t-0.5 4v2v2l0.5 1.5l1 3l1 3t0.5 2.5v2v4v3v2q1 8 3.5 14t2.5 14q0 3 -2 5.5t-4.5 3.5t-6 1h-6.5q-1 0 -5 0.5t-6 -1.5q-1 -4 -1 -6.5t-0.5 -4.5t-0.5 -4v-5q0 -9 1.5 -18.5t1.5 -18.5q0 -4 -1 -6t-5 -2q-2 0 -3 6
t-1.5 13.5t-0.5 14.5v10v1q0 1 0.5 4t0.5 6.5t0.5 6.5t0.5 4zM115 131q0 2 2 3t3 1q4 0 8.5 -4.5t9.5 -10.5t11.5 -10.5t14.5 -4.5q5 0 10 2.5t10 6.5t9 8.5t7 7.5h3h4t3 -2v-1.5v-2.5q0 -5 -3 -8.5t-7.5 -5.5t-9.5 -3.5t-9.5 -3t-8 -4t-3.5 -5.5v-27q0 -1 1 -3.5t3 -2.5
q6 0 10 2t8 5t7 5t7 2q3 0 3.5 -1t0.5 -4q0 -2 -2.5 -4.5l-5.5 -5.5t-6.5 -5t-4.5 -2.5t-4.5 -1.5t-7.5 -1.5t-7 -1t-3 -1.5v-16q0 -1 -1.5 -1.5t-2.5 -0.5q-2 0 -3 3.5t-2 4.5v12q-2 3 -7 5.5l-11 5.5t-10.5 6t-4.5 5v1q1 1 2 1.5t2 0.5q3 -1 6.5 -2.5t6.5 -3.5t6 -3t6 -1
h2.5t1.5 1q0 8 1 14t1 13q0 2 -3.5 5t-8.5 6.5t-11 8t-11 8t-8.5 6.5t-3.5 5zM53 105q0 1 0.5 2.5t2.5 0.5q9 -6 12 -15t3 -19q0 -4 -1 -8.5t-3 -8.5t-5.5 -7t-8.5 -3q-2 0 -4 0.5t-2 3.5q-1 1 0.5 3.5t4 5t4 5t2.5 4.5v2v3.5v2.5v3q0 4 -0.5 7t-1.5 6t-2 5.5t-1 6.5z
M100 98h1q0 1 0.5 1.5l0.5 0.5h1q6 0 9.5 -4t5 -10.5t2 -13t0.5 -10.5q0 -9 -4 -13.5t-13 -4.5q0 4 1 8l2 8t2 8.5t1 8.5t-1.5 6.5l-3 5t-3 4.5t-1.5 5z" />
</svg>
