<?xml version="1.0" standalone="no"?>
<!DOCTYPE svg PUBLIC "-//W3C//DTD SVG 1.1//EN" "http://www.w3.org/Graphics/SVG/1.1/DTD/svg11.dtd" >
<svg xmlns="http://www.w3.org/2000/svg" xmlns:xlink="http://www.w3.org/1999/xlink" version="1.1" viewBox="-10 0 266 256">
   <path fill="currentColor"
d="M145 248q0 2 0.5 3t2.5 1t4.5 -3.5t5.5 -8.5t6.5 -11.5t6 -12.5t4.5 -11t3 -7t2 -5.5t2 -7.5t2 -7t1 -4q2 -4 2 -10.5v-11.5q0 -8 -4.5 -13t-10 -7.5t-10 -5t-4.5 -7.5v-2q0 -1 0.5 -3.5l1 -5t1 -4.5l0.5 -2l1 -2h42q0 -1 -0.5 -3.5l-0.5 -2.5q0 -1 -0.5 -1.5t-1.5 -0.5
h-8q-18 0 -36 1.5t-36 3.5l-0.5 1l-0.5 1q0 3 3 4t5 1q4 0 8.5 -1.5t8.5 -1.5t5 3t1.5 7t0.5 8v5q1 5 4 8t7 5.5l8 5t7 5.5v7q0 8 -1.5 16t-4 16t-5.5 15.5t-6 14.5q-2 3 -4.5 7t-5 8.5t-4.5 9t-2 6.5zM76 156v20q0 2 1 7t2 12t2.5 14.5t3.5 13.5t4 10.5t4 5.5q3 0 3.5 -1.5
t0.5 -2.5v-2v-2l-1.5 -1.5l-2.5 -2.5q-1 -5 -1 -10.5t-2 -10.5q-3 -14 -4.5 -27.5t-1.5 -27.5q0 -12 2 -23.5t4.5 -23t4.5 -23.5t2 -24v-3v-4.5v-3.5v-2q-1 -2 -1.5 -5.5t-1.5 -8t-2 -8t-1 -5.5q-1 -3 -3.5 -5t-6.5 -2h-2t-1 2l4 12t4 12.5t3.5 13t1.5 13.5q0 10 -3.5 20
t-5.5 19q-3 14 -4.5 27t-1.5 27zM60 215q2 1 2.5 2.5t1 3.5t1.5 3.5t3 1.5t2.5 -2.5t0.5 -3.5q0 -7 -2.5 -13.5t-3.5 -13.5q-1 -4 -1.5 -7.5t-0.5 -7v-6.5v-8q0 -7 1 -14.5t2.5 -14.5t2.5 -14t1 -14h-7l-0.5 1.5t-1 4t-1.5 5t-1 3.5q-6 27 -6 53v5q0 2 1 7t2.5 11t2.5 11
t1 7zM95 159q0 12 1.5 23.5t4.5 22.5q0 1 1 4t2.5 5.5l3 5t3.5 2.5q1 0 2 -1t1 -2q0 -2 -1 -4t-2 -4.5l-2 -5t-2 -3.5q-1 -2 -1.5 -6.5t-1.5 -10t-2 -10.5t-1 -7v-1v-2v-7t0.5 -8.5t1 -8t1.5 -6.5q0 -6 2 -11t2 -10q0 -4 -4 -4q-3 0 -4 2.5t-2 6t-1 7v4.5t-0.5 3.5t-0.5 4.5
q0 3 0.5 5t0.5 3l-2 3v2v2.5v3.5v2zM63 89v3t2 2q5 0 8 -5.5t4 -12.5t1 -13.5v-8.5t-0.5 -6t-2 -7.5t-4 -6t-6.5 -2.5q-1 0 -2 1.5t-1 2.5q0 4 1 7t2.5 6.5t2.5 7t1 7.5q0 3 -1 6.5t-2 6t-2 6t-1 6.5zM111 59q0 4 -1 8l-2 8l-2 8t-1 8h2.5t2.5 -2q2 -4 4 -7.5t3.5 -7t2 -7
t0.5 -7.5v-8t-1 -10.5t-3.5 -9t-7.5 -3.5h-1.5t-1.5 2q5 5 5.5 13t0.5 15zM127 75v1l1 0.5l1 0.5q8 0 12 -3.5t6.5 -9t3 -12t1.5 -11.5q2 -2 6 -2.5t6 -0.5t3 3t1.5 7.5t0.5 8.5t2 6q2 3 3.5 4.5t3 2t3 1.5t4.5 2q2 1 4 2.5t4 1.5q3 0 4 -1.5t3 -3.5q-3 -5 -7 -7t-7.5 -3.5
t-6.5 -4.5t-3 -10q0 -6 4 -7.5t8.5 -1.5t8 -0.5t3.5 -4.5q0 -3 -2 -3.5t-3 -0.5q-14 0 -27.5 2t-27.5 2l-2 0.5t-3.5 0.5t-3.5 0.5l-2 0.5q-4 2 -4 6h15q1 0 1.5 1t0.5 2v2v4q0 6 -2.5 10t-5 6.5t-5 4.5t-2.5 4z" />
</svg>
