<?xml version="1.0" standalone="no"?>
<!DOCTYPE svg PUBLIC "-//W3C//DTD SVG 1.1//EN" "http://www.w3.org/Graphics/SVG/1.1/DTD/svg11.dtd" >
<svg xmlns="http://www.w3.org/2000/svg" xmlns:xlink="http://www.w3.org/1999/xlink" version="1.1" viewBox="-10 0 266 256">
   <path fill="currentColor"
d="M119 245q0 3 0.5 4.5t3.5 1.5q2 0 4 -1.5t3 -3.5t1.5 -4.5t0.5 -4.5q0 -1 0.5 -4.5t0.5 -7t0.5 -6.5t0.5 -4v-24v-7t0.5 -8t0.5 -6.5v-2.5l3 -4l4.5 -0.5t10.5 -1t13 -1t11 -0.5h4h3l0.5 2.5t0.5 4.5v4v6v7v3q0 4 1 11.5t2 16.5t2 16.5t2 10.5q0 1 1 4t3 3q4 0 6 -3t2 -6
v-2.5v-2.5l-1 -2t-1.5 -4.5t-1 -4.5l-0.5 -2q-2 -12 -3.5 -24.5t-1.5 -24.5v-4.5v-3.5l4 -3h4h6t5.5 -1.5t2.5 -3.5q0 -4 -3 -6q-2 0 -4.5 0.5t-6 0.5t-6 -1t-3.5 -3q0 -1 -0.5 -4.5t-0.5 -7t-0.5 -6.5t-0.5 -4v-2q0 -6 1.5 -8.5t3.5 -4t4.5 -1.5h4t3 -1.5t1.5 -4.5t-2.5 -4
t-5.5 -0.5t-5.5 0.5t-2.5 -2v-29q0 -5 -3.5 -7.5t-8 -3.5t-9.5 -0.5t-8 -0.5v-2.5v-1.5q0 -5 0.5 -8.5t1.5 -9.5l3 -3t4 -2h1.5t3 0.5t3 0.5h2.5h4t7 -0.5t7.5 -0.5h4.5q0 -1 1.5 -2t1.5 -2v-1q0 -1 -1.5 -2t-3.5 -1.5t-4 -0.5h-3h-3h-1q-1 0 -2 0.5t-2 0.5t-2 0.5l-1 0.5
q-16 1 -32 1.5t-31 1.5q-1 0 -1.5 0.5t-0.5 1.5v1v1l0.5 1t1.5 1h31v23q0 2 -2 2.5t-6 1t-8 2.5t-7 6.5t-4.5 12t-0.5 20.5q-1 2 -3 3t-4.5 2t-4.5 1.5t-3 0.5v2v1.5t1 1.5h12l2 2v3.5t-0.5 9t-1 10.5t-0.5 9q0 2 -0.5 5l-0.5 3h-12q-1 0 -1.5 2.5t-0.5 4.5v2h13
q0 21 -2 41.5t-2 40.5zM74 208q3 2 4 8.5l2 13t3.5 11.5t7.5 5q2 0 3 -2t1 -5v-2t-0.5 -1.5t-1 -1.5t-1.5 -4q-1 -1 -2 -3.5t-2 -5.5t-2 -5t-1 -3q-5 -16 -6.5 -32.5t-1.5 -32.5q0 -12 2 -23.5t4.5 -23t4.5 -23t2 -23.5v-2v-5v-4v-2q-1 -4 -2.5 -9t-4.5 -9.5t-6.5 -8
t-8.5 -3.5q-1 0 -2 1t-1 3l1 1.5t1 2.5l1.5 2t3.5 4.5t3.5 4t1.5 2.5q3 5 3 10v11q0 7 -1 14.5t0 14.5l-10 37q0 8 -2 14v41q2 8 3.5 16.5t3.5 16.5zM40 171q0 16 3.5 34.5t8.5 34.5l2 0.5t3 0.5q4 0 5 -1t1 -6v-4l-0.5 -2t-1.5 -4t-1.5 -4l-0.5 -2q-4 -13 -5.5 -26.5
t-1.5 -27.5q0 -12 2.5 -23.5t2.5 -23.5q0 -5 -5 -5q-2 0 -3.5 3.5t-3 9t-2.5 12.5t-1.5 13.5t-1 12t-0.5 8.5zM100 220q1 1 2.5 3t2.5 2t3.5 -0.5t3.5 -1.5v-0.5v-1.5q0 -6 -3.5 -11.5t-5.5 -11.5q-2 -9 -3 -19t-1 -19q0 -11 0.5 -21.5t0.5 -20.5v-4.5t-3 -3.5q-3 2 -4 5
t-1 5q0 1 -0.5 6.5t-1 12.5l-1 14t-1.5 12v1q0 6 1.5 13t3 14.5t4 14t3.5 12.5zM137 151v-3v-4.5v-4.5v-3q0 -4 -0.5 -8.5t0 -8t3 -6.5t7.5 -3l2 0.5t3 1.5q1 0 1.5 1l0.5 1v32q0 2 -1.5 3.5t-3.5 2.5t-4.5 1h-3.5h-2.5t-1.5 -2zM164 151v-36q0 -2 1.5 -3t3 -1.5t4.5 -0.5h3
h3h3q0 2 0.5 5t0.5 6.5t0.5 6.5t0.5 4v1v1q0 2 -0.5 4t-1 4.5t-0.5 4v1.5l-4 3h-14zM137 93v-9t1 -9t3.5 -7t7.5 -3q2 0 3.5 0.5t1.5 3.5v28q0 4 -4 5.5t-6 1.5h-6q-2 -3 -1.5 -6t0.5 -5zM164 93l1 -27h13q2 0 3 3t1.5 6.5l1 7l0.5 3.5q0 7 -2 11.5t-10 4.5q-3 0 -6 -2.5
t-2 -6.5zM52 92q0 2 1.5 2.5t2.5 0.5q3 0 4 -0.5t3 -3.5q1 -1 2 -3.5t2 -5.5t2 -5.5t1 -3.5v-4q0 -1 -0.5 -6.5t-2 -11t-4 -10.5t-4.5 -5q-3 0 -4.5 1t-1.5 4q0 5 3 12.5t3 14.5q0 4 -1 7t-2.5 6t-2.5 5.5t-1 5.5zM97 92v1l2 2v0q6 0 10 -4t6 -10t3 -12t1 -11q0 -1 -1 -6.5
t-3 -11.5t-5 -10.5t-7 -3.5l-1.5 1.5t-1.5 2.5q2 8 4.5 14.5t2.5 14.5q0 6 -1.5 11t-3.5 9.5t-3.5 7.5t-1.5 5z" />
</svg>
