<?xml version="1.0" standalone="no"?>
<!DOCTYPE svg PUBLIC "-//W3C//DTD SVG 1.1//EN" "http://www.w3.org/Graphics/SVG/1.1/DTD/svg11.dtd" >
<svg xmlns="http://www.w3.org/2000/svg" xmlns:xlink="http://www.w3.org/1999/xlink" version="1.1" viewBox="-10 0 266 256">
   <path fill="currentColor"
d="M182 166q4 2 6 9t3 16.5t1.5 20t1 19.5t1.5 14.5t5 5.5h1.5h2.5q2 -2 1.5 -5.5t-0.5 -5.5v-18.5t-1.5 -21.5t-4.5 -21.5t-8 -17.5q-3 -4 -8.5 -4.5t-11 -1.5t-10 -3t-4.5 -9q0 -6 3.5 -8t8.5 -2t11 0.5t11.5 -1t9 -5.5t3.5 -12q0 -4 -1 -7.5t-2.5 -6.5t-4 -4.5t-6.5 -1.5
h-5q-2 0 -7.5 0.5t-12 1t-11.5 1t-8 0.5q-1 1 -1 1.5v1.5v2.5t1 1.5h14q2 0 2.5 2l1 4t0.5 4v2q0 5 -2.5 8t-5.5 5.5t-5.5 6t-2.5 9.5q0 8 3 11.5t8 5.5t11 2.5t12 0.5zM117 236q0 4 4 4q5 0 9 -5q2 -33 3.5 -66.5t3.5 -67.5q1 -4 1.5 -8.5t3.5 -8.5q6 0 11.5 -1t10.5 -1
t9.5 -0.5t10.5 -0.5q5 0 9.5 1t9.5 1q2 0 3 -1.5t1 -3.5t-0.5 -2t-1.5 -2l-1 -3h-30l-0.5 -1l-0.5 -1q-1 -1 -1.5 -2l-0.5 -1q0 -1 0.5 -2t1.5 -1q4 -6 8.5 -7t8.5 -2t6.5 -3.5t2.5 -11.5q0 -7 -4 -9.5t-10 -2.5h-5.5h-9.5h-8.5h-5.5q-2 -2 -2.5 -5l-1 -6t-1.5 -5t-5 -2
q-2 0 -3 2t-1 4q0 6 2.5 10.5t2.5 9.5q0 4 -3.5 6.5t-7.5 4.5t-7.5 4.5t-3.5 6.5q0 2 1 3t4 1h1q1 0 3.5 -1.5l2.5 -1.5l19 -18q2 -3 8 -3.5t10 -0.5h3q3 0 5.5 0.5t4 2t1.5 3.5t-1.5 3.5t-4 2.5t-4.5 1.5t-4 0.5q-4 2 -6.5 5.5t-3.5 7t-2 6.5t-2 3q-7 2 -13 3t-13 5
q-2 1 -3 3.5t-1.5 5.5l-1 6t-2.5 5q1 8 0.5 15t-1 14.5l-1 15t0.5 15.5q-1 2 -2 6.5t-1 9.5v10v8q0 1 -0.5 4t-0.5 6t-0.5 6t-0.5 4t-0.5 4t-1 6.5l-1 7l-0.5 3.5v1zM71 139q0 3 1 11.5t3 19t4 21.5t5 20t6.5 15t6.5 6t4 -1.5t1 -3.5q0 -5 -2.5 -8.5t-3.5 -7.5
q-6 -18 -10 -36.5t-4 -36.5q0 -12 1 -22.5t5 -21.5q1 -5 3 -9t3 -8t2 -8.5t1 -9.5v-6.5t-0.5 -10t-2 -11.5t-3.5 -10.5t-5 -7.5t-8 -3q-2 0 -4 0.5t-2 3.5v2l0.5 0.5l1 1l2.5 2.5q4 6 7.5 15t3.5 17q0 11 -3 23t-7 22q-1 2 -2 7.5t-2 11.5t-1.5 10l-0.5 4v9zM49 170v5
t0.5 9.5t1 11.5t2 11t3 8t4.5 3q2 0 4 -0.5t2 -3.5q0 -6 -1.5 -11.5t-2.5 -10.5q-2 -10 -2.5 -20t-0.5 -20q0 -5 1 -11.5t2.5 -12.5l3 -12t1.5 -11q0 -6 -6 -6q-4 0 -5.5 4t-3 9t-1.5 10v7q-1 8 -1.5 19.5t-0.5 21.5zM102 197q0 1 2.5 4t3.5 3l2 2l1 1q0 1 1 1q3 0 4.5 -2
t1.5 -5q0 -1 -1.5 -3.5t-2.5 -5t-2.5 -5t-1.5 -4.5q-3 -12 -5 -24.5t-2 -24.5q0 -6 1 -12t1 -12v-6q-1 0 -2.5 -1.5t-2.5 -1.5l-1 0.5t-2 1.5q0 6 -0.5 10.5l-1 9t-0.5 8.5v10v6q0 3 1 4q0 2 1 8.5t2 14t1.5 14t1.5 9.5zM173 117q0 -4 0.5 -7.5t3.5 -5.5h6h5q1 1 2 1.5
l1 0.5v12l-4 5h-13l-0.5 -0.5t-0.5 -1.5v-1v-3zM56 82q0 2 0.5 3.5t2.5 1.5q4 0 7 -4.5t4.5 -10t2.5 -11t1 -7.5q0 -3 -0.5 -7.5t-2 -8.5t-4 -6.5t-6.5 -2.5q-3 0 -3.5 1.5t-0.5 4.5q0 5 1.5 9.5t1.5 9.5q0 7 -2 14t-2 14zM102 84q0 1 0.5 2t2.5 1q5 0 7.5 -4.5t4 -10.5
t2 -12t0.5 -9q0 -5 -0.5 -8.5t-1.5 -9.5l-4 -4t-5 -2q-2 0 -3.5 1.5t-1.5 3.5q0 1 1.5 4.5t1.5 4.5v29q-1 3 -2.5 7t-1.5 6v0v1z" />
</svg>
