<?xml version="1.0" standalone="no"?>
<!DOCTYPE svg PUBLIC "-//W3C//DTD SVG 1.1//EN" "http://www.w3.org/Graphics/SVG/1.1/DTD/svg11.dtd" >
<svg xmlns="http://www.w3.org/2000/svg" xmlns:xlink="http://www.w3.org/1999/xlink" version="1.1" viewBox="-10 0 266 256">
   <path fill="currentColor"
d="M158 146v102q0 1 1.5 1.5t2.5 0.5t2.5 -1t2.5 -2.5l2 -3l1 -1.5v-93q0 -2 1.5 -3.5t3.5 -1.5h40q3 0 3.5 -1t0.5 -3q0 -4 -2.5 -6t-6.5 -2q-8 0 -16 1t-16 1h-5h-3l-2 -2q1 -3 1 -7v-7.5t0.5 -7t3.5 -5.5q9 -1 16.5 -1.5t16.5 -0.5q2 -1 2.5 -2t0.5 -2q0 -3 -3 -4.5
t-5 -1.5h-2t-2 1h-3t-6.5 1t-6 1.5t-3.5 0.5h-0.5h-0.5q-3 0 -4.5 -1t-2 -2.5t-0.5 -3.5v-5q0 -1 1 -5.5t3 -9t4 -8.5t3 -4h34q1 0 2 -1.5l1 -1.5v-1q0 -4 -2 -5t-6 -1q-5 0 -11 0.5t-12 0.5q0 -4 1.5 -8t3 -7.5t3 -7.5t1.5 -8q0 -3 -1.5 -5t-4.5 -2h-1l-1.5 1t-1.5 2
q-1 9 -4 17.5t-7 16.5q0 2 -0.5 5t-2.5 6t-3.5 5.5t-3.5 2.5q-3 0 -4.5 -2.5t-2 -6t-1.5 -7t-2 -5.5l-4 -29q-1 -2 -3 -2h-3q-3 0 -4.5 0.5t-1.5 3.5q0 7 2.5 13t2.5 13q0 4 -3 5t-7 1t-7.5 0.5t-3.5 4.5v2t2 1h3h4q4 0 7 -0.5t6 -0.5q4 0 6.5 3t4 7.5t2.5 9.5t1 7
q0 3 -0.5 6.5t-3.5 5.5h-4t-6.5 0.5t-7 0.5h-4.5t-3.5 0.5l-5 1t-4.5 1.5t-2 4q0 1 0.5 1.5t1.5 0.5h8q7 0 14 -1t14 -1q1 0 2.5 0.5t1.5 2.5v24l-2 4h-2t-5 0.5t-6.5 0.5h-5.5h-6q-1 0 -3.5 0.5t-5.5 1t-5.5 0.5h-3.5q-2 1 -2 4q0 1 1 2t4 1h40zM65 186q1 3 2.5 8t2.5 11.5
t2.5 12.5t4 11.5t5 9t6.5 3.5q3 0 3.5 -2t0.5 -5q0 -4 -1 -7.5t-3 -7.5t-4 -7.5t-3 -6.5q-4 -11 -6 -22t-2 -23v-4q0 -5 1 -13t1.5 -16.5t1.5 -15t1 -7.5q1 -5 2.5 -10.5t3 -10.5l3 -10t1.5 -10q0 -10 -1 -20.5t-1 -20.5l-1 -1l-1.5 -1.5t-2 -1.5t-3 -2.5t-3 -2.5t-2.5 -2
h-2q-3 0 -3 4t2 6t3 5q0 1 1 4t2 6.5t1.5 6l0.5 2.5v3.5v3.5q0 7 -1 16.5t-3 19t-4.5 18.5t-4.5 16v63zM39 161q0 16 2.5 31t6.5 30q1 1 1.5 3.5t1.5 4.5t2.5 3.5t3.5 1.5q3 0 4.5 -1.5t1.5 -4.5q0 -4 -2.5 -7t-3.5 -6q-6 -13 -8 -28.5t-2 -29.5q0 -6 1 -11t2.5 -10.5
t2.5 -11t1 -10.5q0 -2 -1.5 -3.5t-3.5 -1.5h-3t-2 1q0 2 -0.5 5.5t-1 8t-1 8t-1.5 4.5q0 1 -0.5 3l-0.5 2v4v6v6v3zM103 217q1 1 2 1.5t2 0.5q5 -1 6 -2t1 -4q0 -4 -2 -8t-4 -7.5t-4.5 -7.5t-2.5 -7q-2 -4 -2.5 -8.5t-1 -9.5t-0.5 -9.5v-8.5q0 -9 2.5 -17.5t2.5 -16.5
q0 -5 -5 -5q-3 0 -4.5 2t-2.5 5t-1 6v5v18q0 11 1 20t2.5 18t4.5 17t6 18zM44 89v3t2 2t4 -1.5t3.5 -3.5l3 -4t1.5 -3q1 -1 1 -4.5t1 -7.5t1 -7.5t1 -4.5v-1q0 -2 -0.5 -5.5t-2 -7.5t-3.5 -6.5t-6 -2.5q-3 0 -3 4q0 6 1 11t1 11q0 5 -1 8.5l-2 7t-1.5 6.5t-0.5 6zM102 47v1
q0 2 -0.5 5.5t-0.5 7v6v2.5q-1 4 -2 6.5t-2.5 5t-2.5 5.5t-1 7q5 0 8.5 -5t6 -11.5t3.5 -13t1 -8.5q0 -1 -0.5 -6t-1.5 -10t-3 -9.5t-5 -4.5q-1 0 -1.5 1t-0.5 2v1.5v1.5q0 4 1 8t1 8z" />
</svg>
