<?xml version="1.0" standalone="no"?>
<!DOCTYPE svg PUBLIC "-//W3C//DTD SVG 1.1//EN" "http://www.w3.org/Graphics/SVG/1.1/DTD/svg11.dtd" >
<svg xmlns="http://www.w3.org/2000/svg" xmlns:xlink="http://www.w3.org/1999/xlink" version="1.1" viewBox="-10 0 266 256">
   <path fill="currentColor"
d="M66 139q0 23 3.5 46t10.5 45q0 2 1 5t2.5 6t3 5t3.5 2t3 -1.5t1 -3.5v0v-1q-9 -21 -13.5 -43t-7.5 -44v-8q0 -11 2.5 -21t5.5 -20t5.5 -20t2.5 -21v-18q0 -3 -1 -9.5t-2.5 -13t-4 -11t-5.5 -4.5t-4 1t-1 4v1t1 2l0.5 2t1.5 3.5t1.5 3.5l0.5 2q1 1 1.5 5.5t1.5 9.5l2 10
t2 7v2q0 6 -1.5 15t-4 18.5t-5 18t-5.5 12.5v3q0 1 -0.5 3t-0.5 4v3zM133 234q-2 2 -2 6v5q6 0 9.5 -6t5.5 -14.5t3 -17t2 -12.5l1 -2t1.5 -5t1.5 -5l1 -2v-2.5t0.5 -3.5t0.5 -4v-3t0.5 -4.5t0.5 -7.5t0.5 -8t0.5 -6v-3q0 -2 -1 -8t-2.5 -12t-4 -10.5t-5.5 -4.5
q-11 0 -17 6.5t-9 16.5t-4 20.5t-1 17.5v12t2 12h1h1q2 0 3 -0.5t1 -3.5v-46l1 -2t2.5 -4.5t2.5 -5t2 -4.5q1 -1 2 -2.5t2 -3.5t3 -3t3 -1q3 0 4.5 2t3 4.5t2 5.5t0.5 4v2v4v5v3v11t-0.5 12.5t-2 12t-4.5 8.5zM167 147q0 3 0.5 11t2 19t4 22.5t5.5 21.5t6.5 16.5t8.5 6.5
q2 0 2 -2v-4q0 -3 -1.5 -6.5t-3.5 -7.5q-1 -2 -2.5 -6.5t-3 -8.5t-2.5 -7t-1 -4q-4 -11 -5 -23.5t-1 -24.5q0 -3 -0.5 -9.5t0.5 -12.5t3 -11t7 -7q7 6 10.5 14t4.5 17t0.5 18.5t-0.5 16.5h3.5t2.5 -2q0 -1 0.5 -4.5t0.5 -7.5t0.5 -7t0.5 -5v-1q0 -5 -1 -12.5t-4 -15
t-7.5 -13t-11.5 -5.5h-4t-4 2q-7 11 -8.5 21t-1.5 21zM46 163v9.5t1 14t2 16.5t3 16t4 11.5t4 4.5h2t1 -1v-6q0 -8 -2.5 -15t-3.5 -15q-1 -6 -1.5 -11.5t-1 -10t-0.5 -9.5v-11t1 -12t1 -12q0 -2 -1.5 -3t-3.5 -1h-0.5h-0.5l-1 0.5t-2 0.5q0 6 -0.5 10t-0.5 8v8v8zM89 155v4
v5v5v2q0 2 1 6.5t2 10t3 12t4 11.5t4.5 8.5t5.5 3.5t3 -5q0 -2 -1 -3.5t-2.5 -3.5t-2.5 -4l-2 -4q-4 -11 -6 -22t-2 -23q0 -8 1 -14.5t1 -13.5q0 -2 -0.5 -4t-2.5 -2l-1 1l-0.5 0.5t-1.5 0.5q-2 8 -2.5 14.5t-0.5 14.5zM47 104q0 1 1.5 1h1.5q7 0 11.5 -6t6.5 -14t3 -16
t1 -12q0 -2 -1 -7t-2.5 -10t-4 -8.5t-6.5 -3.5q-2 0 -3 0.5t-1 2.5q0 4 1 8t2.5 8.5t3 8.5t1.5 8v1q-1 2 -1.5 5.5t-1 6.5t-1 5.5t-0.5 3.5q0 2 -2 4.5t-4 4.5t-3.5 4t-1.5 5zM104 58q0 5 -1 10.5t-2.5 10.5t-2.5 10t-1 10q4 0 7 -3.5t5 -6.5q0 -1 0.5 -4.5t1 -7.5t1 -7.5
t0.5 -4.5v-1v-2v-8.5t-1 -13.5t-4 -13t-9 -6q0 5 1 9.5l2 9l2 9t1 9.5zM170 51q0 6 2 13.5t6 13.5t10 10.5t13 4.5v-7l-9 -9t-7 -9t-5 -10t-2 -12t2 -13.5t2 -13.5v-5q-1 -2 -2 -2h-3t-3.5 1.5t-1.5 5.5v25q-1 2 -1.5 3.5t-0.5 3.5zM125 88v3q6 0 9 -2t5 -4t4 -4.5t4 -2.5
q3 -7 4 -14.5t1 -15.5q0 -2 0.5 -7.5t0 -11.5t-2.5 -11t-6 -5q-2 0 -3.5 1t-1.5 4q0 8 2 17t2 18q0 4 -1.5 9t-4 9.5t-5.5 9t-7 7.5z" />
</svg>
