<?xml version="1.0" standalone="no"?>
<!DOCTYPE svg PUBLIC "-//W3C//DTD SVG 1.1//EN" "http://www.w3.org/Graphics/SVG/1.1/DTD/svg11.dtd" >
<svg xmlns="http://www.w3.org/2000/svg" xmlns:xlink="http://www.w3.org/1999/xlink" version="1.1" viewBox="-10 0 266 256">
   <path fill="currentColor"
d="M193 245q0 3 1 4.5t3 1.5q3 0 5 -3t2 -5v-84q0 -1 -0.5 -4t-1 -7l-1 -8t-0.5 -7q-1 -1 -1 -3.5t-0.5 -5t-1.5 -5t-2 -4.5q-2 -4 -7 -7l-10 -6t-9 -6.5t-4 -7.5q0 -5 3 -7.5t7.5 -4t9 -2t7.5 -1.5q2 -2 3 -4t1 -4q0 -1 0.5 -3t0.5 -4v-4v-2q0 -9 -0.5 -15t-1.5 -14
q-1 -3 -2 -3.5t-3 -0.5q-1 0 -2.5 0.5t-1.5 1.5v13q0 1 -5.5 2t-12.5 2.5t-14.5 2.5t-10.5 2q-1 0 -3.5 1t-2.5 3v1l1 1t1 2q3 -1 5 -1.5t5 -0.5q2 0 4.5 2t2.5 4v18l-2 1t-3 2l-2.5 0.5t-4.5 0.5h-4h-3l-1.5 1.5t-0.5 1.5q0 3 2 3.5t5 0.5t5 -1t5 -1t4 1.5t2 3.5t1.5 4.5
t1.5 4.5q1 4 3.5 7t6 5l7 4t6.5 4q3 3 5 8.5t3.5 12t2 14.5t0.5 15.5v13.5v10v13v10.5t-0.5 11.5t-1.5 13q-1 2 -1 3.5v3.5zM52 173v8t1 13.5l2 15t3 14t4.5 10.5t6.5 4q3 0 5 -1t2 -4v-1q-5 -13 -10 -27.5t-5 -28.5q0 -7 1 -14.5t2.5 -14.5t2.5 -14t1 -14q0 -3 -0.5 -4.5
t-3.5 -1.5t-5 3.5t-3 9.5t-2 13t-1.5 13.5t-0.5 12v8.5zM79 166v7v8.5t0.5 9t0.5 7.5q1 3 3.5 9t5 12.5t5.5 12t5 5.5t3.5 -1.5t1.5 -3.5v-1v-1l-6 -16t-5.5 -16t-4.5 -16.5t-2 -17.5q0 -12 2.5 -22.5t5 -21.5l5 -22t2.5 -22v-9t-0.5 -12.5t-2 -13t-4 -12t-6.5 -9t-9 -3.5
v10q7 6 8.5 10.5t2 8t1 7.5t3.5 9q0 2 -0.5 6.5t-1 9.5t-0.5 10t-1 7l-0.5 3t-0.5 4q-5 17 -8 32t-3 32zM101 165q0 3 0.5 9t1.5 12.5t3 14t4 13.5t4.5 9.5t5.5 3.5t5 -1t2 -4v-2.5t-0.5 -1l-1 -1t-1.5 -2.5t-2.5 -6t-3.5 -7.5t-3.5 -6.5t-1.5 -4q-2 -7 -2.5 -14t-0.5 -14
q0 -6 1 -11.5t2 -10.5l2 -10t1 -10q0 -2 -0.5 -3.5t-2.5 -1.5q-1 0 -1.5 0.5l-1.5 1.5q0 1 -1 2.5t-2 3.5l-2 4l-1 2v1v1v1.5t0.5 3t0.5 3v1.5v1v1v1v0q0 1 -1.5 2t-1.5 2q-1 3 -1 8v9zM133 152v10v11t0.5 11.5t1.5 9.5q0 1 1 3t2.5 4.5t2.5 2.5h25q2 0 4.5 -1t4 -2.5
t3 -3.5t1.5 -4v-5v-8.5v-7.5v-6v-20q0 -12 -2 -22l-1 -1.5t-2 -1.5h-1v0q-1 0 -1.5 0.5t-0.5 1.5v23q0 1 -3 1.5t-7 1t-8 0.5h-6h-0.5h-0.5q-1 0 -2.5 -0.5t-2.5 -0.5v-3v-3v-3v-2l0.5 -1.5t0.5 -3.5t0.5 -3t0.5 -2q0 -3 -1 -4t-4 -1h-2t-1 1q-1 0 -1.5 2.5t-0.5 3.5v23z
M143 193q0 -1 -0.5 -4t-0.5 -6t-0.5 -6t-0.5 -4t-0.5 -3l-0.5 -2v-1v-1q0 -1 0.5 -4.5t0.5 -4.5q1 0 4 -0.5t6.5 -1t6 -1t4.5 -0.5h1h1q3 0 4.5 2t2 4.5t0.5 6v5.5t0.5 5.5t0 7t-1.5 6.5t-4 5q-5 1 -8.5 1.5t-8.5 0.5q-2 0 -4 -0.5t-2 -4.5zM60 91q0 3 1 5.5t5 2.5
q3 0 4.5 -3t1.5 -6q0 -1 0.5 -4t0.5 -8t0.5 -10t0.5 -8v-1q0 -4 -1.5 -8.5t-4 -8t-6.5 -5.5t-9 -2q0 3 1 5.5t2.5 4.5l3 4t2.5 5q1 6 1 10v10v11q0 1 -1.5 3t-1.5 3zM116 65q0 9 -2.5 17t-2.5 16q5 0 8.5 -3.5t5 -8.5t2 -10.5t0.5 -9.5v-1q0 -2 -1 -6t-2 -9t-2 -9t-1 -6
l-3.5 -3.5t-5.5 -2.5q-4 0 -4 4t1.5 7.5l3 7t2.5 7.5t1 10zM165 53q0 -3 1.5 -4.5t4.5 -2.5t6 -1.5t5 -0.5q4 0 6 4.5t2 7.5q0 4 -2.5 6.5t-5.5 4t-6.5 2t-6.5 0.5h-3q0 -4 -0.5 -7.5t-0.5 -8.5z" />
</svg>
