<?xml version="1.0" standalone="no"?>
<!DOCTYPE svg PUBLIC "-//W3C//DTD SVG 1.1//EN" "http://www.w3.org/Graphics/SVG/1.1/DTD/svg11.dtd" >
<svg xmlns="http://www.w3.org/2000/svg" xmlns:xlink="http://www.w3.org/1999/xlink" version="1.1" viewBox="-10 0 266 256">
   <path fill="currentColor"
d="M112 247q0 2 1 3t3 1q6 0 11 -6t9.5 -15t8 -20t7 -20t5 -15t2.5 -6t3.5 6t6.5 14.5t8.5 18.5t9 19t9 15t9.5 6q2 0 3.5 -1.5t1.5 -3.5q0 -3 -4 -9t-9 -13t-9.5 -13.5t-6.5 -9.5q-3 -6 -5 -11.5t-3 -11.5t-2.5 -12t-4.5 -12q0 -1 -1.5 -2.5t-1.5 -2.5v-1v-2q0 -6 4 -6.5
t10 -0.5q7 0 12 1.5t5 9.5q0 7 -3 14t-7 13v5h5l1 -0.5t2.5 -2t2.5 -3t2 -2.5q3 -4 5 -9.5t2 -10.5q0 -3 -0.5 -7t-2 -7t-4 -5.5t-6.5 -2.5h-28q-1 0 -1.5 -0.5t-0.5 -1.5v-2v-2v-1.5v-1.5q0 -2 0.5 -5t1 -5.5t0.5 -4.5v-2l2 -2h1t3.5 -0.5t4.5 -0.5h3t4 -0.5t5.5 -1t5 -1.5
t2.5 -2v-19l-0.5 -0.5t-1.5 -0.5l-1 -1t-2.5 -2t-2.5 -1.5t-2 -1.5h-4t-6 -0.5t-5.5 -0.5h-3.5l-2 -2v-20q0 -1 2 -1h3q5 0 9 2.5t7.5 5l7 5t6.5 2.5q2 0 4 -1.5t2 -4.5q0 -2 -1 -3.5t-3 -2.5q-9 -3 -18.5 -7t-18.5 -8l-1 -0.5l-1 -0.5v-17q0 -1 -0.5 -1.5t-1.5 -0.5h-2h-1
q-2 0 -4 1t-2 4t1 5.5t1 5.5q0 2 -0.5 3l-1.5 3q-3 1 -8 3.5t-10.5 5.5t-9.5 6.5t-5 7.5q1 0 2.5 0.5t2.5 0.5q3 0 6 -2t6 -5t6.5 -5t7.5 -2h2q2 1 3 4t1.5 6.5t0.5 6.5v4t-1 3t-2 2l-22 4v3h20l1.5 0.5t1.5 1.5l1 0.5l1 0.5v12q0 3 -5 3.5t-11 2.5t-10.5 7t-4.5 18
q0 8 4.5 11t10.5 3.5t11 0.5t5 3q0 9 -3.5 22t-8.5 26t-11 25t-12 21l-2.5 2.5l-2.5 2.5t-2 2.5t-1 3.5zM69 159q0 22 2.5 42t11.5 40q0 1 1 1.5t2 0.5q2 0 3.5 -1.5t1.5 -3.5q0 -5 -2 -9.5t-3 -9.5q-1 -6 -2 -10.5t-2 -9.5t-1.5 -10.5t-0.5 -12.5l-0.5 -3t-0.5 -7v-8v-6v-5
v-7t0.5 -7.5t0.5 -4.5q2 -6 3.5 -13.5t2.5 -16t1.5 -17t0.5 -14.5v-15t-2 -14q0 -1 -1.5 -5t-3.5 -8.5t-3 -8t-2 -3.5h-12q0 3 0.5 4t1 1.5t1.5 1t3 3.5q2 4 4 9t3 10.5l2 11t1 10.5t-0.5 12t-1 13.5t-1.5 13t-4 12.5q0 2 -0.5 7t-1 11t-1 11t-0.5 7l-0.5 3t-0.5 5zM44 160
v8.5t1 14t2.5 16t3 15.5t3.5 11t4 4q1 0 3 -2t2 -3v-1q0 -3 -0.5 -6t-2.5 -5q-5 -22 -5.5 -46t0.5 -46q0 -1 -1.5 -2t-1.5 -2h-1q-2 0 -3.5 2.5t-2.5 4.5q1 10 0 18.5t-1 18.5zM92 150v8q1 2 1.5 7.5t1 12t1.5 12t1 8.5q1 1 1.5 4.5t1.5 7.5t2.5 6.5t4.5 2.5q5 0 5 -5v-0.5
v-1.5l-1 -3.5t-2 -7.5t-2 -7.5t-2 -4.5q-2 -13 -3 -24.5t-1 -24.5q0 -4 1 -8.5t1 -8.5q0 -3 -1 -5t-3 -2t-3.5 0.5t-1.5 3.5q0 5 -0.5 8.5l-1 7t-0.5 6.5v8zM130 122q0 -3 1.5 -6.5t3 -6t4.5 -4t6 -1.5q4 0 6 1.5t3 4t1 5.5v6q0 5 -2 7.5t-7 2.5h-4.5t-5 -1t-4.5 -3t-2 -5z
M53 92q0 4 4 4q3 0 5 -3.5t2.5 -8.5t0.5 -9.5v-6.5q0 -4 -0.5 -9t-2 -9t-4.5 -6.5t-9 -2.5q0 4 1.5 8.5t2.5 9.5t2.5 10t1.5 11q0 3 -2 6t-2 6zM103 61q0 4 -1 8.5l-2 9t-2 8.5t-1 8q5 0 8 -4t4.5 -9.5t1.5 -11v-9.5v-8q0 -5 -1 -8.5t-4 -6t-9 -2.5q0 3 1 6l2 6l2 6t1 7z
M163 83q0 -4 1 -5.5t3 -2t5 -0.5h6q4 0 6 3t2 7q0 6 -4 7t-9 1h-8q-2 -3 -2 -5v-5z" />
</svg>
