<?xml version="1.0" standalone="no"?>
<!DOCTYPE svg PUBLIC "-//W3C//DTD SVG 1.1//EN" "http://www.w3.org/Graphics/SVG/1.1/DTD/svg11.dtd" >
<svg xmlns="http://www.w3.org/2000/svg" xmlns:xlink="http://www.w3.org/1999/xlink" version="1.1" viewBox="-10 0 266 256">
   <path fill="currentColor"
d="M195 168q-3 4 -8.5 7.5t-10.5 7.5t-8.5 9t-3.5 11v50q3 0 6 -2.5t3 -6.5q0 -9 -1 -18t-1 -18q0 -6 2.5 -10t6.5 -6.5t8.5 -5.5t8.5 -7.5t6.5 -11.5t2.5 -19v-4v-9.5v-11.5v-9v-7v-10.5v-10.5v-7v-1.5t-0.5 -3.5t-0.5 -3.5v-2.5q-3 -8 -5.5 -12.5t-5.5 -6t-6 -1.5h-6
t-6 -1.5t-6 -5.5v-6v-6q0 -1 0.5 -4l0.5 -3q0 -1 -0.5 -2.5t-1 -3.5t-1.5 -3t-3 -1q-3 0 -5 3t-2 5q0 4 1 7.5t1 7.5v8q-2 3 -5 3t-6 2q-11 4 -16 10t-6 18q0 3 -0.5 8t-0.5 10t-0.5 9t-0.5 5q0 3 0.5 10.5t1 16t1 16t1.5 10.5q1 7 2 11.5t3 8t6 6t11 4.5l0.5 0.5l0.5 0.5
q2 0 4.5 -1.5t2.5 -3.5t-2 -3t-4 -1.5t-4.5 -1t-4.5 -1.5q-4 -4 -6.5 -12t-3.5 -17.5t-1 -18.5v-14v-7v-11t0.5 -12.5t1 -12.5t2 -10t3.5 -5q1 -1 4 -2t5.5 -2.5t5 -2.5l2.5 -1h5q7 0 12.5 0.5t9.5 2.5t7 6t4 11q0 2 0.5 5t1 6.5t1 6l0.5 2.5v4t0.5 7.5t0.5 9.5v7v6
t-0.5 8.5t-0.5 8.5v5l-2 10t-1 10zM76 155v6v6v5.5v2.5q0 1 1 5t2 9.5t2 10.5t2 7q0 2 0.5 5.5t2 6.5t3.5 5.5t4 2.5q4 0 4 -3t-1 -7l-2 -8t-2.5 -7.5t-2.5 -6.5q-3 -12 -4.5 -24.5t-1.5 -24.5q0 -13 1.5 -25.5t3.5 -25t4 -25.5t2 -25q0 -3 -0.5 -8t-2 -10.5t-4 -9
t-7.5 -3.5h-2.5t-1.5 2q0 1 1.5 5t3 8.5t3 8.5t2.5 5v3v5v4v3v3.5v5.5v4v2q0 2 -1.5 7.5t-2.5 11l-2 11t-2 7.5q1 10 -0.5 22t-1.5 23zM51 145q0 14 1 28t4 28q0 2 0.5 4.5t2 5t3 4.5t3.5 2t3.5 -2t1.5 -4v0q-3 -10 -4.5 -21t-5.5 -21v-22q0 -9 1 -17.5t1 -16.5
q0 -2 -1.5 -3.5t-3.5 -1.5l-0.5 0.5t-0.5 1.5q-2 2 -3 4.5t-1.5 4.5t-0.5 4.5v5.5v16zM95 138q0 5 1 11.5t1.5 13.5t2 13.5t2.5 11.5q0 3 1 6.5t2.5 7.5t3.5 7t5 3q1 0 2 -0.5t2 -0.5v-2.5v-2.5v-1.5v-1.5q0 -1 -1 -2t-2 -3t-1.5 -3.5l-0.5 -1.5q-4 -11 -5.5 -21.5
t-4.5 -21.5v-37l-0.5 -1.5l-0.5 -1.5l-1.5 -1.5l-0.5 -0.5l-1.5 0.5t-1.5 1.5t-0.5 5t-0.5 8.5t-0.5 8.5t-0.5 5v1zM143 116v8v7.5t0.5 7.5t0.5 9q0 1 1 3.5t2 4.5t2.5 3.5t2.5 1.5h24q5 0 8.5 -4t4.5 -9q0 -1 0.5 -4t0.5 -5.5v-4.5v-2l-1 -1q0 -1 0.5 -3t1 -4.5t1 -4.5
t0.5 -3v-1v-2q0 -1 -0.5 -2.5t-0.5 -3.5t-0.5 -4t-0.5 -3t-1 -1.5t-2 -0.5q-2 0 -2.5 4t-0.5 9v10t-2 8v0q-3 0 -5 -1.5t-3.5 -4t-2.5 -5t-1 -4.5q0 -6 2 -11l4 -10t4.5 -10t2.5 -10q0 -2 -0.5 -3.5t-3.5 -1.5t-4 4.5t-2 9.5t-2.5 9.5t-4.5 4.5q-5 0 -7 -4t-3 -8.5t-3 -8
t-8 -3.5q0 6 2.5 11t6 10t6 10t2.5 12q0 2 -1 6t-3 7.5t-4.5 6.5t-5.5 4v-39l-0.5 -0.5t-1.5 -0.5l-0.5 -0.5l-0.5 -0.5l-0.5 0.5l-0.5 0.5l-0.5 2l-0.5 2v3v3.5v3.5v3zM164 131q0 -1 1 -1h1t4 2.5t5.5 6t4.5 6.5t2 5t-4 3t-9.5 1.5t-10.5 0.5h-7q0 -3 1.5 -6t3.5 -6.5
t4 -6.5t4 -5zM57 88q0 2 0.5 3.5t3.5 1.5q2 0 3 -1.5l3 -4.5q0 -1 1 -4t1.5 -6.5l1 -7t1.5 -4.5v-4q0 -3 -0.5 -7t-1 -8.5t-2.5 -7.5t-6 -3q-2 0 -3.5 1.5t-1.5 3.5t2 4t3 5v5v5q0 8 -2.5 15.5t-2.5 13.5zM100 86q0 1 0.5 2t1.5 1q4 0 7 -4.5t5 -10.5t3 -12t1 -8v-6t-0.5 -8
t-2 -7t-5.5 -3q-1 0 -2.5 0.5t-1.5 2.5l3 12t1 10q0 5 -2 9.5t-3.5 8.5t-3 7.5t-1.5 5.5z" />
</svg>
