<?xml version="1.0" standalone="no"?>
<!DOCTYPE svg PUBLIC "-//W3C//DTD SVG 1.1//EN" "http://www.w3.org/Graphics/SVG/1.1/DTD/svg11.dtd" >
<svg xmlns="http://www.w3.org/2000/svg" xmlns:xlink="http://www.w3.org/1999/xlink" version="1.1" viewBox="-10 0 266 256">
   <path fill="currentColor"
d="M132 248q1 2 2 2h2q4 0 5 -3t1 -6q0 -16 -2 -32t-2 -33q0 -12 2.5 -24t7 -22.5t11.5 -20t18 -15.5q5 -4 10 -6.5t9.5 -6t7.5 -7.5t3 -11q1 -2 -0.5 -7.5t-4 -11t-5.5 -9.5t-7 -4h-24l-1.5 0.5t-3.5 1.5t-4 2.5t-3 2.5q-5 3 -10.5 11t-10 17.5t-7.5 18.5t-3 15q5 0 8 -4.5
t5 -10.5l4 -12t5 -8q4 0 7.5 3t6.5 6.5t5 7.5t2 7q0 4 -2.5 7t-6 6l-7 6t-5.5 6q-5 9 -8 18.5t-4.5 19t-2 19.5t-0.5 20q0 15 0.5 28t1.5 29zM85 235q3 6 5.5 8t9.5 2l-0.5 -3t-1.5 -4l-0.5 -1.5t-1.5 -3.5t-1.5 -3.5t-1.5 -1.5q-1 -4 -1.5 -8.5l-1 -9t-1 -8.5t-2.5 -8
q-1 -13 -1.5 -23t-0.5 -21q0 -19 4 -38t8 -37v-1v-1q0 -13 -1 -26t-4 -25q-1 -1 -2 -3t-3 -4l-3.5 -3.5t-3.5 -1.5q-3 0 -3 4q0 7 1.5 12t4 10t4.5 11t2 12q0 12 -2 23.5t-4.5 23t-4 23.5t-1.5 23q0 22 2.5 41.5t5.5 41.5zM52 231q4 6 9 6q2 0 4.5 -0.5t2.5 -3.5
q0 -1 -1 -5.5t-2.5 -9t-3.5 -9t-3 -5.5q0 -12 -0.5 -20.5t-0.5 -18.5v-12.5t1 -13.5l0.5 -1t1 -2.5t1.5 -3l1 -1.5v-2.5v-4.5v-3.5v-2.5q-1 -2 -1.5 -2h-2.5t-3 0.5t-3 2.5q-1 4 -1 8t-1 8.5t-1.5 8.5t-1.5 7v5t-0.5 6.5t-0.5 7.5v4q0 9 0.5 15.5l1 13t1.5 13.5t3 15z
M98 165q0 4 0.5 10t1.5 13t2 14.5t2.5 13.5t4 10t5.5 4q1 0 1 -0.5v-0.5q2 0 3 -2.5t1 -4.5q0 -3 -1.5 -7t-3.5 -8.5t-3.5 -8t-1.5 -6.5q-2 -7 -2 -14.5v-15.5q0 -9 2 -18.5t2 -18.5q0 -3 -0.5 -4.5t-3.5 -1.5q-4 0 -5.5 6.5t-2.5 14.5t-1 16v9zM161 216q1 2 4.5 4.5
t5.5 2.5h13t10 -1.5t7.5 -5t5.5 -10.5v-3q0 -3 0.5 -5.5t0.5 -4.5v-3q0 -15 -1.5 -28.5t-0.5 -28.5q-2 -3 -3.5 -4t-3.5 -1t-3.5 1.5t-1.5 3.5q0 5 1 9t1 9v3v3v4v2q-1 2 -3.5 2.5l-5 1t-5.5 0.5h-4q-3 0 -5.5 -0.5t-4 -1t-3 -2.5t-1.5 -5q0 -1 -0.5 -5t-0.5 -8.5t-0.5 -8.5
t-0.5 -5l-1.5 -1l-1.5 -1h-1q-2 0 -3 1t-1 2.5v3.5v2q0 9 1 17t2 17q1 6 1 11.5v11t0.5 10.5t2.5 11zM167 204q-1 -7 -1.5 -12t-0.5 -11v-3q0 -3 2 -3q8 1 13.5 -0.5t12.5 -1.5h2q2 0 2 2v6v12t-1 13q-5 4 -8.5 4.5t-8.5 0.5h-3.5h-3.5q-1 -1 -2.5 -3.5t-2.5 -3.5zM58 95
q0 3 0.5 4t3.5 1q4 0 6 -3.5t3 -9t1 -10.5v-7q0 -1 -0.5 -2.5t-0.5 -4t-0.5 -5t-0.5 -4.5t-1 -6.5t-2 -8.5t-3.5 -7t-5.5 -3t-5 0.5t-2 3.5q0 4 3 7.5t4 7.5q1 3 1.5 5.5t0.5 4.5v5v7q0 7 -1 13t-1 12zM105 93q0 2 0.5 3t3.5 1q2 0 4 -3t3 -7t2 -9t1.5 -9.5t1 -8t0.5 -4.5
q0 -2 -0.5 -5l-0.5 -3q0 -1 -0.5 -3l-0.5 -2q0 -1 0.5 -4l0.5 -3v-2q0 -5 -3 -8.5t-8 -3.5q-3 0 -3.5 2t-0.5 6t0.5 7t4.5 7q0 1 0.5 3.5t0.5 4.5v5v2q0 6 -1 10.5t-2 8.5t-2 7t-1 8zM152 54q0 -3 2.5 -6t6.5 -5.5t8.5 -4t6.5 -1.5q5 0 9 3t7 7t4 8.5t1 9.5q0 3 -2 6
t-4.5 5.5t-6 4t-6.5 1.5h-2.5h-1.5l-1 -1l-1 -1v-1.5t-0.5 -3t-0.5 -2.5t-1 -1q-1 -3 -4 -5l-6 -4t-5.5 -4t-2.5 -5z" />
</svg>
