<?xml version="1.0" standalone="no"?>
<!DOCTYPE svg PUBLIC "-//W3C//DTD SVG 1.1//EN" "http://www.w3.org/Graphics/SVG/1.1/DTD/svg11.dtd" >
<svg xmlns="http://www.w3.org/2000/svg" xmlns:xlink="http://www.w3.org/1999/xlink" version="1.1" viewBox="-10 0 266 256">
   <path fill="currentColor"
d="M153 251l2 0.5t3 0.5t3.5 -2t3.5 -3v-8q0 -9 -1 -17t-2.5 -17t-2.5 -17t-1 -17q0 -7 4 -10t10.5 -4t13.5 -0.5t11 0.5q1 0 2 -1.5t2 -1.5v-1q0 -3 -1.5 -4t-3 -1.5t-3.5 -0.5h-4q-5 0 -9 0.5l-8 1t-8.5 1.5t-10.5 2q-2 0 -3.5 1.5t-1.5 3.5v3v5.5v5.5v3q0 17 1 33l2 32
q0 1 0.5 2.5t0.5 3.5t0.5 3.5t0.5 2.5zM63 148q0 5 1 10.5t2 11.5t2.5 11.5t1.5 10.5q1 1 2 5.5t3 11t4 13.5t4.5 13t5 10t3.5 4q3 0 5 -3.5t2 -5.5q0 -5 -3.5 -9t-5.5 -8q-4 -9 -7.5 -20t-5.5 -20q-3 -9 -3.5 -20.5t-0.5 -21.5q0 -11 2.5 -22t5 -21.5t4.5 -21.5t2 -23v-2
v-4v-4v-3l-4 -10t-4.5 -9t-7 -6.5t-11.5 -2.5q0 3 1 5t2.5 4t3.5 3.5t3 4.5q5 7 7 15t2 17q0 10 -3.5 19.5t-5.5 18.5q0 5 -1.5 11.5t-2.5 13t-2 12.5t-1 12zM37 161q0 3 1 10.5t2 16.5t3 18.5t4.5 17.5t5.5 13.5t7 5.5h2t2 -2v-3v-3v-3.5v-2.5l-1 -1l-2 -2t-1.5 -2l-0.5 -1
q-2 -4 -4 -11.5t-3.5 -16t-2 -16.5t-0.5 -13q0 -9 1 -18.5t1 -19.5q0 -2 -1.5 -4t-4.5 -2t-4.5 5.5t-2 12l-1 13t-0.5 8.5zM88 150q0 15 1.5 24t4 16.5t6 15.5t8.5 20h2h2q2 0 5 -1t3 -4q0 -4 -2 -8t-4.5 -8t-5.5 -8t-5 -7q-3 -7 -3.5 -13t-2.5 -12v-34q1 -3 1.5 -5t0.5 -5
q0 -1 -1 -3t-4 -2h-1l-1 0.5t-2 0.5q-1 6 -1 10t-0.5 7.5t-0.5 7.5v8zM103 144q0 3 3 3q4 0 9 -4t9.5 -9.5t8 -11t5.5 -8.5l2 -2.5t4 -5.5t4 -5.5t3 -4.5l1.5 -1.5t2.5 -0.5q3 0 5.5 1t4.5 3l22 23q1 1 3.5 4.5t5.5 7t6.5 5.5t5.5 2q3 0 5.5 -2.5t3.5 -5.5l-1.5 -1.5l-3 -3
l-3 -3l-2.5 -2.5q-2 -2 -7.5 -6t-12 -9t-12 -9.5t-7.5 -6.5q-1 0 -1 -1q0 -3 4 -3.5t9 -1.5t9.5 -2t6.5 -5q1 -4 2 -7t1 -6v-6v-7v-3v-5v-4v-3q-1 -2 -2.5 -2.5t-3.5 -0.5h-2q-1 1 -1 4v7t-1 6t-3 3t-4.5 -1.5l-5 -3l-5 -3t-3.5 -3.5q-2 -1 -2.5 -4t0 -6.5t1 -7.5t0 -7
t-2 -5t-5.5 -2l-2 -0.5t-2 1.5v30l-1.5 1.5t-2.5 1.5q-1 1 -3.5 2.5t-5 3.5t-4.5 3t-3 1q-4 0 -4 -3t1 -5t1 -5t-1 -5.5t-5 -2.5t-4.5 3.5t-0.5 6.5v8t1 8.5t2 8.5t3 7t4.5 4.5t5.5 2.5t5 2.5t2 4.5q0 4 -3.5 8t-8 9.5t-9.5 10.5l-10 10t-8 9t-3 7zM140 126q0 1 1 2.5t2 2.5
h3h3h7t9.5 -0.5t8.5 -2t4 -4.5q0 -1 -0.5 -2t-1.5 -1h-14h-14q-2 0 -5 0.5t-3 4.5zM45 101q0 2 0.5 3.5t3.5 1.5q5 0 7.5 -5t4 -12t1.5 -13.5v-9.5t-0.5 -8.5t-2.5 -11t-5 -9t-8 -3.5q-4 0 -4 3q0 5 3 10l6 10v2v3.5v3.5v2q0 5 -1 9l-2 8l-2 8t-1 8zM92 99v0q0 1 1.5 1.5
l1.5 0.5l1.5 -0.5t1.5 -1.5q1 0 3.5 -2.5l3.5 -3.5q0 -2 1.5 -5.5t3 -7.5t2.5 -8t1 -5v-3v-3v-7.5t-1.5 -9t-3.5 -7.5t-6 -3q-3 0 -3.5 1t-0.5 3q0 7 3 15.5t3 15.5q0 4 -2 7.5t-4.5 7.5t-4 7.5t-1.5 7.5zM134 70q0 -1 3.5 -4.5t8 -7.5t8.5 -7t5 -3q2 0 6.5 3.5t9 7.5
t8.5 7.5t4 5.5t-3.5 3t-7.5 1t-8.5 0.5t-5.5 0.5h-6.5t-9 -0.5t-8.5 -2t-4 -4.5z" />
</svg>
