<?xml version="1.0" standalone="no"?>
<!DOCTYPE svg PUBLIC "-//W3C//DTD SVG 1.1//EN" "http://www.w3.org/Graphics/SVG/1.1/DTD/svg11.dtd" >
<svg xmlns="http://www.w3.org/2000/svg" xmlns:xlink="http://www.w3.org/1999/xlink" version="1.1" viewBox="-10 0 266 256">
   <path fill="currentColor"
d="M87 245l0.5 1t1.5 2t2 1.5t2 0.5q3 -1 3.5 -2.5t0.5 -2.5q0 -6 -1.5 -11.5t-3.5 -11t-3.5 -11t-1.5 -11.5q-1 -9 -1.5 -20.5t-0.5 -21.5v-5v-4l10 -83v-4v-4q0 -6 -0.5 -14.5t-2.5 -16t-7 -13t-14 -5.5q0 1 2 6t4.5 11t4.5 11.5t3 6.5v36q-2 3 -2.5 7.5l-1 9t0 8.5t0.5 7
q-1 6 -3 12t-2 12v4.5v4.5t-0.5 4.5t-1.5 4.5v3v4v4v3v9t0.5 7.5t0.5 8t1 9.5q1 1 1.5 5t1.5 8.5l2 9t1 6.5q1 1 1 3t1 4t1.5 4t0.5 3zM147 245l1.5 0.5t2.5 1.5v0q2 0 3.5 -2.5t2.5 -4.5v-2.5t0.5 -3.5l1 -4t0.5 -3t-0.5 -4t-0.5 -7v-6.5v-4.5h22q3 0 4.5 -3t1.5 -5v-21
q0 -4 2 -5.5t5 -2t5 -1.5t2 -4q0 -2 -2 -3t-4 -1q-7 0 -14 1.5t-14 1.5h-7q-1 -1 -1 -2.5t-0.5 -4t-0.5 -4v-2.5q0 -5 4.5 -7t10 -2.5t10 -2.5t4.5 -7v-26q2 -1 4 -3t2 -5h-30l-3 2q0 -1 -0.5 -2.5t-0.5 -2.5q0 -7 2.5 -11t5.5 -5.5t6.5 -2l7 -1t5.5 -1.5t2 -4q0 -2 -1 -3
t-3 -1q-1 0 -6.5 1l-11 2t-9.5 3t-4 4q0 4 -0.5 10l-1 12t-1.5 12t-1 11q0 2 1.5 4.5t1.5 4.5q0 4 -0.5 7.5t-1.5 8.5v69q-2 5 -2 10v10v2v4v4v2zM49 182v4v5v4v2q0 1 0.5 4.5t1 7.5t1 7t0.5 5q0 1 1 3t1.5 4t2 4t3.5 2q7 0 7 -7v-1q-1 -3 -1.5 -7.5t-2 -9.5t-2.5 -9.5
t-2 -7.5v-3v-5.5v-5.5v-3q0 -8 0.5 -15.5t1.5 -15l2 -15t1 -14.5q-6 0 -8.5 3.5t-3.5 8.5t-1 10.5v9.5q-1 1 -1 3.5t-0.5 5.5t-0.5 5.5v3.5v3v4.5v5.5v4zM96 186q3 3 3.5 8.5t1 11.5t2 10.5t6.5 4.5q2 0 4 -0.5t2 -3.5q0 -6 -2 -12.5t-3.5 -12.5t-3.5 -13t-2 -15
q0 -11 3 -22.5t3 -22.5q0 -2 -1 -3.5t-4 -1.5t-4.5 3t-2 7t-0.5 8v6q0 1 -0.5 3.5t-0.5 6t-0.5 6t-0.5 3.5v15v14zM159 196q0 -1 -0.5 -2.5t-0.5 -2.5v-4v-2v-6t0.5 -5.5t2.5 -4t6 -1.5l1 0.5t2.5 0.5t2.5 0.5t2 0.5l0.5 0.5t0.5 1.5q1 1 1 4v4q0 5 -0.5 8t-1.5 5t-4 3t-8 1
h-2q-2 0 -2 -1zM124 101v6t0.5 9t1 9.5t0.5 5.5h6q1 0 1.5 -1t1 -3t1 -3.5t0.5 -3.5l-0.5 -1.5t-0.5 -3t-0.5 -3l-0.5 -1.5v-3v-5v-6v-5v-3v-6v-5v-4q2 -4 2.5 -8t1.5 -7t3.5 -5.5t7.5 -3.5q1 0 3.5 -0.5t5 -1.5t5 -1h2.5q0 -1 2 -1h2h7t7.5 0.5t6.5 2.5t3 6q0 1 0.5 4
t0.5 6t0.5 5l0.5 2q0 1 0.5 2.5t0.5 2.5q2 11 3 25t0 26q1 2 2.5 2h2.5q2 0 3.5 -1t1.5 -4q0 -1 0.5 -4t0.5 -4q0 -15 -2 -31t-4 -31q0 -6 -3 -9t-6.5 -4t-8 -1.5t-8 -0.5t-6 -1t-2.5 -4v-19q0 -3 -2 -4t-4 -1h-3t-2 2v27l-2 2h-2.5t-4 0.5t-4 0.5t-2.5 1q-1 0 -4 0.5
l-3 0.5q-5 3 -7.5 10.5t-3.5 16t-1.5 17t-0.5 12.5zM159 127l1 -21l3.5 -0.5t4.5 -1.5h1q8 0 8 7v2t-1 1v1t-0.5 2t-0.5 2v1q0 1 0.5 3l0.5 2q0 1 -1.5 3.5t-2.5 2.5h-12zM54 98q0 3 3 3q6 0 9 -4.5t4.5 -10.5t1.5 -12v-9q0 -5 -0.5 -10.5t-2 -10t-5 -8t-9.5 -3.5
q0 3 0.5 7.5t3.5 6.5q0 4 0.5 7t0.5 6v6v6t-1 7l-2 6t-2 6.5t-1 6.5zM103 94q0 2 3 2t5.5 -4.5t4 -10t2 -11t0.5 -7.5q0 -5 -0.5 -11t-2.5 -12t-5.5 -10.5t-10.5 -4.5q0 5 1.5 9t3.5 8.5t3.5 9t1.5 9.5q0 10 -1.5 17t-4.5 15v1z" />
</svg>
