<?xml version="1.0" standalone="no"?>
<!DOCTYPE svg PUBLIC "-//W3C//DTD SVG 1.1//EN" "http://www.w3.org/Graphics/SVG/1.1/DTD/svg11.dtd" >
<svg xmlns="http://www.w3.org/2000/svg" xmlns:xlink="http://www.w3.org/1999/xlink" version="1.1" viewBox="-10 0 266 256">
   <path fill="currentColor"
d="M71 146q0 14 1.5 25.5t3.5 22.5t4.5 22.5t5.5 23.5q1 2 2 5t3 4q4 1 5.5 -1.5t1.5 -5.5q0 -5 -1.5 -9.5t-3.5 -9t-4 -8.5t-3 -9q-2 -14 -4.5 -29t-2.5 -30q0 -11 2 -23t4.5 -23.5t4 -23t1.5 -22.5v-10.5t-1.5 -15t-4 -13.5t-7.5 -6q-3 0 -3.5 1.5t-0.5 3.5q0 5 1.5 9.5
t3.5 9t3.5 9.5t1.5 10v3.5t-0.5 6t-0.5 6v3.5q0 2 -1.5 7.5t-3.5 12t-3.5 12.5t-1.5 7q-2 8 -2 18v17zM124 237q0 2 1 3t4 1q2 0 3.5 -1t3.5 -4v-13v-10t-2 -10v-4v-6v-6v-4v-5v-7v-6v-3q0 -1 0.5 -5.5t0.5 -9.5t0.5 -9t0.5 -5q0 -6 1.5 -9t4 -4t6.5 -1h10h4l2 4v7
q0 11 -0.5 20t-1.5 20h-5l-2.5 0.5t-3.5 -1.5l-4 -17h-1h-1q-4 0 -5 1t-1 5t2 8.5t2 8.5q0 1 -0.5 3t-0.5 4t-0.5 4l-0.5 2v1v1q0 2 0.5 6.5l1 9t2 9t4.5 6.5q4 1 7 2t6 1h6h7h10t9 -1.5t7 -5t3 -9.5v-56q0 -2 -2 -5t-6 -3v0q-1 0 -2 1t-2 1v7t-1 7.5t-3 6t-6 2.5h-1h-2.5
t-2 -0.5t-0.5 -1.5v-42l1 -7h4t6 -0.5t6 -0.5h4q2 -1 4.5 -1t5 -0.5t4.5 -2t3 -3.5t0 -3t-2.5 -1.5t-3 -0.5h-1.5q-6 0 -12 1.5t-11 1.5q-2 0 -4 -0.5t-3 -2.5q1 -5 1 -9t-1 -6.5t-4 -3.5t-8 -1v26h-28v-26q0 -3 4 -5.5t9 -3.5t9.5 -1.5t6.5 -0.5q9 -1 15.5 -1.5t10.5 -2.5
t5.5 -7t1.5 -15q0 -6 -1 -10.5t-3.5 -7t-7 -3.5t-11.5 -1q-1 0 -3.5 0.5t-5 0.5t-5 0.5t-3.5 0.5q-2 0 -6.5 0.5t-9 1.5t-8 2.5t-3.5 3.5t1 3t3 1h9q8 0 16 -1t17 -1q5 0 9 5v7q0 5 -0.5 8.5t-5.5 5.5q-11 0 -20 0.5t-16 3.5t-11.5 9t-6.5 18q0 3 -0.5 8t-0.5 10.5v10.5v10
q0 6 0.5 12.5t0.5 13.5v2v3.5t-0.5 5.5t-0.5 6v3v3t-0.5 8t-0.5 11v12.5t-0.5 12t-0.5 9.5v1zM40 146v2q0 3 0.5 9t1.5 12.5t2 12t1 6.5q0 3 1.5 9.5t3.5 13.5t4.5 12.5t5.5 5.5q4 0 4.5 -1.5t0.5 -4.5v-4q-1 -2 -2.5 -7t-3 -10.5l-3 -11t-1.5 -7.5q-1 -1 -1.5 -4l-1 -6
t-1 -5.5t-0.5 -3.5q0 -13 2 -25t2 -25v-6q-1 0 -2 -0.5t-2 -0.5q-2 0 -4 5t-4 11.5t-2.5 13t-0.5 9.5zM92 134q0 13 1 24.5t3 23.5q1 2 3 8t4.5 12.5t5 11.5t4.5 5q2 1 3.5 -1.5t1.5 -3.5q0 -6 -2.5 -11.5t-5.5 -10.5t-5 -10.5t-2 -11.5v-59q0 -1 -2 -1.5t-3 -0.5q-2 0 -3 1
t-2 3v4t-0.5 6.5t-0.5 6.5v4zM151 192v-1.5v-3.5v-3.5v-1.5q7 -3 16.5 -4t17.5 -1q4 0 6 2t2 7v5.5t-0.5 10t-2.5 9.5t-6 4h-23q-4 0 -6 -3t-3 -6.5t-1 -7v-6.5zM48 86q0 2 0.5 3t2.5 1q4 0 6.5 -4t4 -9.5t2.5 -10.5t1 -7t-0.5 -7.5t-2 -11t-4.5 -10t-8 -4.5q-1 0 -2.5 0.5
t-1.5 2.5v0.5v0.5l6 16t3 17q0 3 -1.5 6t-2.5 5.5t-2 5.5t-1 6zM103 87l0.5 1.5l0.5 1.5q6 -2 9.5 -8t5 -13t2 -14.5t0.5 -11.5q0 -1 -0.5 -5t-2 -7.5t-4 -6.5t-5.5 -3t-4.5 1.5t-1.5 5.5q2 1 3.5 3.5t2.5 6t1.5 6.5t0.5 6v3.5t-0.5 6t-0.5 6t-1 3.5q0 2 -1 4t-2.5 4.5
t-2 4.5t-0.5 5z" />
</svg>
