<?xml version="1.0" standalone="no"?>
<!DOCTYPE svg PUBLIC "-//W3C//DTD SVG 1.1//EN" "http://www.w3.org/Graphics/SVG/1.1/DTD/svg11.dtd" >
<svg xmlns="http://www.w3.org/2000/svg" xmlns:xlink="http://www.w3.org/1999/xlink" version="1.1" viewBox="-10 0 266 256">
   <path fill="currentColor"
d="M166 187q0 16 -1 32t-1 32h12v-43q-2 -3 -2 -5.5v-5.5q0 -8 1 -15t1 -16l1 -0.5t2 -0.5q4 0 7 4.5t5 10t3 11.5t1 9v31q0 2 1 4t3 2q1 0 2.5 -1t2.5 -2v-4v-5v-5v-4v-12q0 -6 -0.5 -12.5t-2.5 -12.5t-5 -11q-2 -3 -5.5 -5t-7.5 -4.5t-6.5 -5t-2.5 -5.5q0 -2 1 -6t4 -5
q2 0 5 0.5t6.5 0t7 -1.5t4.5 -4q0 -1 0.5 -4t1 -6.5t1 -6.5t0.5 -4v-1v-2.5t-1 -3.5t-2 -3t-3 -1h-1.5t-1.5 2v10t-1.5 9t-5 6t-10.5 2q-1 0 -2 -1.5t-1 -2.5v-28l1 -3q8 -1 13 -2.5t8 -4t4.5 -7.5t1.5 -13t-0.5 -13t-1.5 -14q-3 -7 -8 -8.5t-13 -1.5h-10t-15 1.5t-13.5 4.5
t-5.5 9v34l1 2.5t2 3.5q3 5 7.5 7t8.5 2.5t7 1t3 3.5v30h-15l-4 -3v-21l-2 -0.5t-4 -0.5v0h-1q-1 0 -2 0.5l-1 0.5v6q0 9 2 14t5.5 7.5t7 4t7 2.5t5.5 2.5t2 4.5q0 7 -1 9t-3.5 2.5t-5.5 1t-7 3.5q-2 1 -3.5 3.5t-2.5 4.5t-2.5 3.5l-3.5 3.5q-1 14 -4 27t-3 26q0 3 0.5 4
t3.5 1h3t3 -1q1 -16 3 -29t4 -28q1 -4 5 -7.5t8 -3.5h2l1 2q3 4 3 9v9v1zM80 153q0 21 4.5 40t9.5 39q1 2 1 4t0.5 3.5t1.5 3t4 1.5q2 0 5 -2t3 -5t-2 -6t-3.5 -5.5t-3.5 -5.5t-2 -6q-3 -16 -5.5 -31t-2.5 -31q0 -10 1.5 -20.5l3 -21t3 -21.5t1.5 -21v-4v-5v-4v-2
q0 -1 -0.5 -3t-0.5 -5t-1 -5.5t-1 -3.5q-1 -3 -2 -7t-3 -7.5t-4.5 -6.5t-5.5 -3t-5 1.5t-2 4.5t1.5 4.5t3 3.5l3 4t1.5 4q3 6 4.5 11t2 9.5t1 10t0.5 11.5q0 7 -1 12.5t-2.5 11.5t-3 11.5t-2.5 11.5q-1 8 -1.5 15t-0.5 15zM52 166q0 2 1 7.5t2 13t3 15.5t4.5 15t5 11.5
t5.5 5.5q1 0 2.5 -1t2.5 -2.5t2 -3.5t1 -3v-2q0 -2 -1 -2q0 -1 -0.5 -2.5t-2 -3.5t-2.5 -4l-1 -2q-4 -11 -6 -21.5t-2 -22.5q0 -10 2 -18t5 -18v-1.5v-1.5q0 -3 -2 -5.5t-5 -2.5h-1q-1 0 -2 0.5t-2 1.5q-1 5 -2.5 11t-3 12.5t-2.5 12.5t-1 11zM101 177q1 3 2.5 10t3.5 14.5
t5 13t7 5.5q5 0 5 -5q0 -3 -1 -6t-2.5 -6t-3.5 -6t-2 -6q-3 -10 -4 -20t-1 -20q0 -7 1.5 -13.5t1.5 -12.5q0 -3 -1 -5t-4 -2q-1 0 -2.5 0.5t-1.5 1.5q-1 6 -2 11t-1.5 10t-0.5 9v11v3t0.5 5t0.5 5v3zM63 97q0 5 5 5q6 0 9 -5q1 -7 1.5 -12t0.5 -11q0 -2 -1 -9t-2.5 -14
t-3.5 -12.5t-4 -5.5h-11q-1 0 -1.5 2t-0.5 3q0 4 2 7.5l4 7t4 8t2 9.5q0 7 -2 14t-2 13zM115 67q0 5 -1 9t-2.5 7.5t-2.5 7t-1 7.5q6 0 10 -3.5t5.5 -8t2 -10t0.5 -10.5q0 -3 -1 -8.5t-2.5 -11.5t-4.5 -10.5t-6 -4.5t-4 1t-1 4q0 5 2.5 10t5.5 10v2v3.5v3.5v2zM146 73v-2v-3
q4 -1 6.5 -1.5t6.5 -0.5q5 0 6 4t1 8q0 2 -1 5.5t-3 3.5h-11q-2 0 -3 -2t-1.5 -4t-0.5 -4.5v-3.5zM185 62q10 0 10 8q0 5 -3.5 10t-8.5 5h-1q-1 0 -2.5 -0.5t-2 -1l-1 -1l-0.5 -0.5v-16q0 -1 1 -2t3 -1.5t3.5 -0.5h1.5zM145 54q0 -6 4 -10t9 -4q4 0 5.5 2.5t1.5 6.5
q0 7 -4.5 9t-10.5 2q-3 0 -4 -1.5t-1 -4.5zM181 39q5 0 9.5 3t4.5 8q0 3 -2 4t-4 1.5t-5 0.5h-5q-1 0 -3 -0.5t-2 -2.5v-11q0 -3 2.5 -3h4.5z" />
</svg>
