<?xml version="1.0" standalone="no"?>
<!DOCTYPE svg PUBLIC "-//W3C//DTD SVG 1.1//EN" "http://www.w3.org/Graphics/SVG/1.1/DTD/svg11.dtd" >
<svg xmlns="http://www.w3.org/2000/svg" xmlns:xlink="http://www.w3.org/1999/xlink" version="1.1" viewBox="-10 0 266 256">
   <path fill="currentColor"
d="M73 217q2 4 3.5 8t3 8.5l3 9t3.5 8.5h3q3 0 3.5 -1t0.5 -4q0 -5 -2.5 -10.5t-4.5 -10.5q-5 -17 -7.5 -32.5t-2.5 -32.5q0 -14 2.5 -27.5t5.5 -26.5t5 -26.5t2 -27.5q0 -10 -4.5 -19t-8.5 -18q-1 -1 -3.5 -2t-3.5 -1q-2 0 -2.5 2t-0.5 3q0 4 2 9t5 10.5t5.5 11.5t2.5 10
q1 14 -1.5 27.5t-6 27t-6.5 27t-3 26.5v3q0 2 0.5 4t0.5 3v2q0 2 0.5 7.5t1.5 11.5t2 11.5t2 8.5zM55 236q0 1 2 2.5t3 2.5t3 -1.5t2 -3.5q0 -4 -0.5 -6t-1.5 -3.5t-1.5 -3t-1.5 -5.5q-4 -13 -5.5 -25.5t-1.5 -26.5q0 -11 2 -21.5t2 -21.5q0 -1 -0.5 -4l-0.5 -3q0 -2 -1 -2
h-2q-4 0 -6 6.5t-3 15t-1 16.5v11q0 19 2.5 37t9.5 36zM91 157q0 2 0.5 9t1.5 15.5t2.5 18t4 17t5.5 13t8 5.5q2 0 3.5 -2.5t1.5 -4.5q0 -3 -2 -4.5t-3 -3.5q-3 -5 -5.5 -12t-3.5 -13q0 -2 -0.5 -5.5l-1 -7t-1.5 -7t-2 -6.5v-34l3 -7.5t1 -7.5q0 -2 -0.5 -4t-3.5 -2
q-5 0 -6.5 5.5t-2 12.5t0 14t0.5 11zM119 132v17t0.5 20.5t2 20t4.5 15.5q2 4 9.5 7t16.5 4t17 1.5t12 0.5q6 0 11.5 -0.5t12.5 -0.5q0 -1 1 -1.5l1 -0.5q0 -1 0.5 -2l0.5 -1q0 -3 -3.5 -4t-5.5 -1q-8 0 -16.5 0.5t-16.5 0.5h-11t-11.5 -2t-9 -5.5t-3.5 -10.5
q-1 -3 -1.5 -10t-1 -14.5t-1 -13.5t-0.5 -9v-34q1 -3 -0.5 -3h-3.5h-2t-2 2v4v7.5v7.5v5zM139 133v14t1 16t4 14.5t8 11.5h3h3.5h3.5h3h12.5t12.5 -2q5 -3 7 -8.5t2.5 -12t0.5 -12.5v-11q0 -12 -1 -23t-4 -22q-2 -4 -6 -4.5t-8.5 -0.5t-7.5 -0.5t-3 -4.5v-2q0 -1 0.5 -4
t1 -7t0.5 -7v-4q1 -2 2.5 -3t3.5 -1h4h3h4.5t7 -0.5t7 -0.5t4.5 -1q1 0 1.5 -1l0.5 -1v-2q0 -2 -3.5 -3.5t-5.5 -1.5q-5 0 -11 1t-11 1q-3 0 -5 -1.5t-2 -4.5v-3l0.5 -2.5t1 -4.5l1 -4t0.5 -3q-2 -3 -5 -5.5t-7 -2.5v0h-1l-0.5 0.5l-0.5 0.5v31q0 1 -1 1.5l-1 0.5
q-3 1 -7.5 2t-9.5 1.5t-9 0.5h-7q0 1 -0.5 2t-0.5 2q0 3 1.5 4t5.5 1q7 0 14 -1t15 -1v26q0 3 -2.5 4.5t-5 2t-5.5 1t-4 2.5q-2 3 -3 7t-1.5 8.5t-0.5 8.5v8zM152 178q0 -1 -0.5 -3l-1 -4l-1 -4t-0.5 -3v-1q0 -3 3 -5q9 -1 19 -2.5t19 -1.5q0 5 -1 9.5t-2.5 8.5t-5 6.5
t-8.5 2.5h-11t-10 -3zM147 147v-6q0 -6 4 -8.5t9.5 -3t11.5 0.5t12 0l6 2l-2 13q0 1 -5.5 2t-12 1.5t-12.5 1t-7 0.5v0l-2 -2t-2 -1zM147 118q0 -5 1.5 -7.5t4 -3.5t5.5 -1.5t6 -3.5h18q2 0 3 2t2 4.5t1.5 5t0.5 3.5q0 2 -1.5 3t-3.5 2q-2 0 -5.5 0.5t-8 0.5t-8 0.5
t-5.5 0.5h-4q-4 0 -5 -1t-1 -5zM50 96v2t2 1q3 0 5.5 -2.5t4 -6t2.5 -7.5t1 -6q0 -5 -0.5 -10.5l-1 -11t-2.5 -10.5t-5 -9q0 -1 -2 -1.5t-4 -0.5h-3.5h-1.5q0 5 1.5 10t3.5 10t3.5 10t1.5 11t-2.5 11t-2.5 10zM98 94q0 3 1 3.5t3 0.5q5 0 8 -4t4.5 -9.5t1.5 -11v-8.5v-9
t-1 -12.5t-3.5 -11t-7.5 -4.5q-1 0 -3 0.5t-2 2.5q0 3 1 6.5t2.5 7t2.5 7.5t1 7v6.5v6.5q0 4 -0.5 7.5t-1.5 5.5l-1 1t-2 2.5l-2 3l-1 1.5v1z" />
</svg>
