<?xml version="1.0" standalone="no"?>
<!DOCTYPE svg PUBLIC "-//W3C//DTD SVG 1.1//EN" "http://www.w3.org/Graphics/SVG/1.1/DTD/svg11.dtd" >
<svg xmlns="http://www.w3.org/2000/svg" xmlns:xlink="http://www.w3.org/1999/xlink" version="1.1" viewBox="-10 0 266 256">
   <path fill="currentColor"
d="M200 248q1 1 2.5 1h2.5q5 0 6 -3t1 -7q0 -10 -0.5 -20t-4.5 -18v-49q0 -19 1 -37t1 -37v-6t-0.5 -7.5t-2 -7t-4.5 -5.5h-7.5t-8.5 -0.5t-7 -2.5t-3 -6v-3q0 -3 0.5 -5l1 -4t1.5 -2h31q2 0 2 -2v-3q0 -3 -1.5 -3.5t-4.5 -0.5h-5t-10.5 0.5t-13.5 1t-13 1t-10 1.5t-4 2v3
t2 2h14v16q0 2 -1 2h-2q-9 0 -13 -2.5t-5 -7t-1 -9t-0.5 -8.5t-2 -7t-6.5 -3q0 5 -0.5 10.5t0 11t1.5 10.5t4 10l1.5 1.5l0.5 0.5h20l1 1.5t2 3.5q0 1 0.5 4l0.5 3q0 5 -2.5 8.5t-6.5 3.5h-30l-0.5 0.5l-1.5 1.5v0q0 2 2.5 4t4.5 2h23v1l-1.5 2t-3.5 4t-4.5 4t-3.5 3
q-3 3 -7.5 5t-8.5 4.5t-7.5 5t-3.5 5.5q8 0 15 -3.5t13 -8t10.5 -8t8.5 -3.5q1 0 2 1.5t2 4t1.5 4.5t0.5 3v2q-1 0 -2 2.5t-1.5 3.5t-2 3.5t-3.5 5t-3.5 5t-2.5 2.5q-1 2 -1.5 6.5t-1.5 9.5t-1.5 9t-0.5 6q0 1 0.5 5t1 8.5t0.5 8.5v5v50q1 2 2 2h2q2 0 3.5 -0.5t2.5 -2.5v-8
q0 -17 -1 -34t-1 -34q0 -9 1.5 -18t6.5 -18l5 -5t3.5 -4t2.5 -4t1 -6q0 -5 -2 -7.5t-4 -4.5l-4 -4t-2 -5t3 -4t6 -1h6.5h4.5h2h3.5h3.5h2q2 1 2 3v3q0 4 -0.5 6.5l-1.5 7.5v7v10v10v7q0 14 0.5 27.5t1.5 26.5t1.5 26.5t-0.5 27.5zM70 150q0 3 0.5 11t2 17.5t3.5 20.5t4 19.5
t5 14t5 5.5t4 -1.5t2 -3.5q0 -5 -1.5 -10.5t-3.5 -11t-4.5 -10.5t-3.5 -10q-2 -8 -3.5 -19t-1.5 -20q0 -17 5 -33t10 -33q3 -9 3 -19v-19q0 -4 -1 -10t-3.5 -12t-6 -10.5t-9.5 -4.5q0 8 3.5 16t6.5 16v37l-0.5 1.5l-1 3t-1.5 3.5t-1 3q-1 1 -2.5 3l-1.5 2q-4 13 -6 27t-2 27
zM57 98q-2 0 -4 2t-3 4.5t-1.5 5.5t-1.5 4q0 1 -0.5 3l-1 4l-1 4l-0.5 2v50q0 5 1.5 11t3.5 12t4.5 12t3.5 11q1 1 2 1h1q3 0 5 -2t2 -5t-1.5 -6.5t-3 -6.5t-3 -6.5t-2.5 -6.5q-2 -9 -2.5 -20t-0.5 -20v-5.5v-4.5t0.5 -4t1 -7t1 -7.5t0.5 -5.5q1 -4 2 -7.5t1 -7.5v-3t-3 -1z
M91 155q0 15 3 31t10 29h0.5h0.5q3 0 4.5 -1.5t1.5 -4.5q0 -2 -0.5 -4.5t-1.5 -5t-2.5 -4.5t-2.5 -2q-3 -12 -3 -22v-23v-4v-7.5v-7.5v-4q1 -5 3 -9.5t2 -9.5q0 -2 -1 -3.5t-3 -1.5q-3 0 -4.5 4t-2.5 9.5t-1.5 11t-0.5 7.5l-0.5 3t-0.5 6t-0.5 6.5t-0.5 5.5v1zM115 197
q0 4 4 4h2q1 -1 3.5 -2l2.5 -1l4 -4l4 -4l3.5 -3.5l1.5 -1.5v-8h-5l-19 19l-0.5 0.5zM164 182v1h1l16 16h3q2 0 3.5 -0.5t1.5 -2.5v-0.5v-1.5q-2 -1 -4 -4t-5 -5.5t-6 -4.5t-6 -2q-4 0 -4 4zM138 133q-1 0 -5 3t-8 7t-7 8t-3 7q3 0 7.5 -2.5t8.5 -5.5t7.5 -6.5t3.5 -7.5
q0 -1 -0.5 -2t-3.5 -1zM169 140q0 1 2.5 4t6 5.5t6.5 4t5 1.5q4 0 4 -3q0 -2 -2.5 -4.5t-5.5 -4.5t-6 -3.5t-5 -1.5h-1q-1 0 -2 0.5l-1 0.5q-1 0 -1 1zM103 82v3t1 1q11 -7 14 -17.5t3 -22.5v-3.5v-2.5q-1 -2 -1.5 -4t-2 -4t-2.5 -3.5l-1 -1.5h-7q0 6 2 11.5t2 11.5
q0 4 -1 8.5t-3 8t-3 7.5t-1 8zM56 78q-1 3 1 3.5t3 0.5h2h2q4 -7 5 -14t1 -14v-7t-1.5 -8t-4 -6.5t-6.5 -2.5q-2 0 -4 0.5t-2 2.5q0 3 1.5 6t3 6.5t2.5 7t1 6.5v2q0 1 -0.5 3t-1.5 5t-1.5 5.5t-0.5 3.5zM173 77v-3t0.5 -5.5t0.5 -4.5q1 -1 1.5 -2l0.5 -1l2 -2h16
q1 0 2.5 2.5t2.5 3.5q0 1 0.5 3t0.5 4v3.5v2.5h-24z" />
</svg>
