<?xml version="1.0" standalone="no"?>
<!DOCTYPE svg PUBLIC "-//W3C//DTD SVG 1.1//EN" "http://www.w3.org/Graphics/SVG/1.1/DTD/svg11.dtd" >
<svg xmlns="http://www.w3.org/2000/svg" xmlns:xlink="http://www.w3.org/1999/xlink" version="1.1" viewBox="-10 0 266 256">
   <path fill="currentColor"
d="M134 244q0 1 1.5 3t2.5 2q4 0 6.5 -6t4.5 -15t4 -19t3 -19t1.5 -15t0.5 -7v-6t0.5 -9t0.5 -9v-6q1 0 2 -1t2.5 -2t2.5 -1.5l1 -0.5h1q2 0 3.5 1.5t2 3.5t1.5 4t1 3q-1 16 0 32t3 33q-2 3 -2 7v8v5.5t0.5 7.5t2 7t4.5 3q2 0 3.5 -1.5t2 -3t1 -3.5t0.5 -3q0 -24 -2 -49.5
t-5 -49.5q0 -4 -2 -6.5t-5 -3.5t-6.5 -1h-7.5t-6 0.5t-4.5 0.5t-5.5 0.5t-8 -0.5q0 1 -1.5 2t-1.5 2v0q0 3 2.5 3.5t5 0.5t5 1t2.5 5q0 8 -0.5 18t-2 20.5t-3 20.5t-2.5 18q-1 2 -2 5t-2.5 7t-3 7.5t-1.5 5.5zM71 156q0 23 4 45t16 42h1h2q2 0 3 -1t1 -4q0 -5 -3 -10.5
t-4 -11.5q-3 -18 -7 -35t-4 -35q0 -17 3 -34t7 -34v-47q0 -3 -2 -6t-4.5 -6.5t-5.5 -5.5t-6 -2t-4.5 0.5t-1.5 3.5v1v2q5 6 8.5 10t5.5 8.5t2.5 10t0.5 12.5q0 6 -1 11.5t-2.5 10.5l-3 10t-1.5 11q-2 13 -3 26.5t-1 27.5zM60 229q1 2 3 4.5t5 2.5q4 0 3 -5
q-3 -12 -5.5 -24.5t-5.5 -25.5v-66q0 -3 -1.5 -3h-2.5q-6 0 -6 6v72l0.5 1.5t0.5 3.5q2 4 3 8t2 8.5t1.5 8.5t2.5 9zM93 139v2v1v1t0.5 2t0.5 2v1q1 2 1.5 7t1 10.5l1 11t0.5 6.5q0 2 2 9.5t5 15.5t6.5 14t6.5 6q3 -1 3 -3v-4q0 -6 -2.5 -12.5t-5.5 -13.5l-6 -14t-3 -15v-51
q0 -2 -0.5 -2.5t-2.5 -0.5h-2t-1 2q0 1 -1 4t-2 7t-1.5 7t-0.5 5v1v1zM120 147q0 1 1 2.5t2 1.5q4 -2 5 -8q-2 -25 3 -51q2 -2 3.5 -2h3.5q3 0 4 1t1.5 3t0.5 4v6q1 2 5 3t9 2t9.5 1h5.5h11q1 0 2 -1.5l1 -1.5l0.5 -0.5l0.5 -0.5l-0.5 -0.5l-0.5 -0.5l-0.5 -1l-0.5 -1h-33
l-1 -1.5t-1 -3.5l-0.5 -2.5t-1.5 -3.5v-1v-1q1 -1 2 -2.5t2 -1.5h32q0 -3 -2 -5.5t-5 -2.5h-27q-2 0 -2 -2v-2q0 -2 0.5 -3.5l1 -3t1.5 -2.5t3 -1h1q2 0 5.5 0.5t7 0.5h6h3.5t4 0.5l6 1t5.5 2.5t2.5 5v68q0 1 1.5 3t2.5 2t2.5 -1.5t2.5 -3.5t1.5 -4t0.5 -3v-5t0.5 -7t0.5 -7
v-5v-6t-0.5 -8t-0.5 -7v-3q0 -3 -0.5 -7.5t-1.5 -9.5t-4 -8.5t-7 -4.5h-3h-4h-4h-2h-6t-9 -0.5t-9 -0.5h-6v-8v-10t2 -11q1 -2 3.5 -2.5t4.5 -0.5q4 0 5 3t1.5 6t1.5 6.5t5 4.5q1 0 3.5 0.5t6 1l7 1t5.5 0.5h1q2 0 3.5 -1.5t1.5 -3.5v-3.5t-1 -2.5h-23q-1 0 -1.5 -1t-0.5 -2
v-2v-2v-3.5t2 -2.5q6 -2 13.5 -2.5t14.5 0.5q0 -1 1.5 -2l1.5 -1v-1v-1q-1 -4 -3.5 -4.5t-7.5 -0.5q-9 0 -20 0.5t-20 2.5q-6 1 -9 4.5t-4.5 8t-1.5 8.5v9v7t-2 3h-10l-3 -38q-1 -2 -2 -2h-2q-3 0 -4.5 4t-1.5 7q0 7 1.5 14t3.5 13q1 6 4.5 8.5t7 3.5t6 1t2.5 2v11
q0 1 -0.5 1.5t-1.5 0.5q-6 3 -10.5 4t-6.5 3t-3 6t-1 12v21v21zM53 88v3q0 3 3 3q4 0 6.5 -4.5t3 -10t0.5 -11.5v-7v-8.5t-1.5 -10.5t-4.5 -9t-8 -4q-1 0 -2.5 0.5t-1.5 2.5t1.5 4.5t3 6l3 7t1.5 6.5q0 9 -2 16.5t-2 15.5zM98 87v4.5t3 2.5q4 0 7 -5t4.5 -11.5t2 -13
t0.5 -8.5q0 -5 -0.5 -11t-2 -11.5t-5 -9t-10.5 -3.5q0 5 1 8.5t2.5 7t2.5 7.5t1 11q0 5 -1 9l-2 8t-2 7.5t-1 7.5z" />
</svg>
