<?xml version="1.0" standalone="no"?>
<!DOCTYPE svg PUBLIC "-//W3C//DTD SVG 1.1//EN" "http://www.w3.org/Graphics/SVG/1.1/DTD/svg11.dtd" >
<svg xmlns="http://www.w3.org/2000/svg" xmlns:xlink="http://www.w3.org/1999/xlink" version="1.1" viewBox="-10 0 266 256">
   <path fill="currentColor"
d="M156 221q0 2 1 6.5t2 10t2.5 9.5t2.5 4q3 0 4 -3q1 -1 1 -3v-3q0 -6 -2 -10.5t-2 -8.5q0 -6 2.5 -10t6 -7t8 -5t8.5 -4.5t7.5 -6t5 -8.5t1.5 -10v-11q0 -9 -1 -18t-4.5 -15.5t-10 -11t-16.5 -4.5q-15 0 -23 8t-12 20t-4.5 25.5t-0.5 23.5v3v3v4v3l1 1.5t2 1.5t2.5 -0.5
t2.5 -1.5q2 -9 1.5 -19t1.5 -20h1q4 0 7.5 3.5t6 8.5t5.5 9t6 4t3 -5q0 -6 -4.5 -11.5t-9.5 -10.5t-9.5 -8.5t-4.5 -4.5t0.5 -3.5t1.5 -5t2.5 -4.5t3.5 -1q6 1 11 6t9 11t7.5 10.5t6.5 4.5q2 0 2.5 -2t0.5 -4q0 -7 -4.5 -12t-10 -9t-11.5 -7.5t-10 -8.5q1 -2 3.5 -3t5 -1.5
t5.5 -1t5 -0.5q4 0 8 2.5t7 6.5t5.5 8.5t2.5 8.5v32q0 5 -3 8t-7.5 6t-9.5 5.5t-9 6t-7 8t-3 11.5zM73 126q0 24 4.5 48t11.5 48q0 2 2 4t4 2t2.5 -1.5t0.5 -3.5q0 -6 -2.5 -12.5t-3.5 -13.5q-4 -17 -7.5 -35t-3.5 -35q0 -4 1.5 -7.5t1.5 -7.5q2 -8 3.5 -15.5t3.5 -15.5
t3 -16t1 -16q0 -4 -1 -10.5t-3.5 -12.5t-6 -10.5t-8.5 -4.5q-1 0 -3 0.5t-2 1.5v1q6 8 10.5 17t4.5 19q0 9 -2 19t-4.5 19t-4.5 18.5t-2 19.5zM50 157v5t0.5 6.5t0.5 6.5v3q0 3 1 10t3.5 15t5.5 14.5t7 7.5q2 0 3 -2.5t1 -3.5q0 -3 -1 -7t-2.5 -8t-3 -7.5t-2.5 -6.5
q-2 -8 -2.5 -17t-0.5 -17q0 -12 1.5 -23t1.5 -22q0 -4 -4 -4q-2 0 -3.5 1.5t-2 3.5l-1 4t-0.5 4q0 1 -0.5 3.5t-0.5 4.5v4v3v3q0 2 -0.5 5.5t-0.5 7.5v6zM100 188l2 6t2 6.5t3 6.5t5 4q2 1 3.5 -1.5t1.5 -3.5t-0.5 -2l-0.5 -1l-1 -2t-2 -4.5t-1.5 -4.5l-0.5 -2
q-3 -7 -5 -12.5t-3 -11.5t-1.5 -12t-0.5 -13q0 -8 1.5 -16t1.5 -16v-3.5t-3 -1.5q-2 0 -3.5 5t-2.5 11.5t-1.5 12.5t-0.5 8t0.5 5.5l0.5 3.5q0 2 0.5 7.5t1.5 11.5t2 11.5t2 7.5zM124 75q0 14 8 21t21 7q1 0 3.5 -0.5t5.5 -0.5t5 -0.5t3 -0.5q12 -1 19.5 -1.5t11.5 -4t5 -11
t1 -21.5v-2v-5v-4v-3t-1 -4.5t-1.5 -4.5t-2 -2t-2.5 -2.5t-2.5 -2l-1.5 -0.5h-55l-12 6l-2 3l-0.5 3t-1 7.5l-1 9t-0.5 7.5v6zM55 90q0 4 4 4t6.5 -4.5t4 -9.5t2 -10t0.5 -6v-1.5v-0.5q0 -2 -1 -5t-2 -7t-2 -7t-1 -4q-2 -4 -4 -5.5t-5 -1.5q-2 0 -3.5 0.5t-1.5 2.5
q0 4 1.5 7.5l3 7t2.5 7t1 6.5q0 7 -2.5 13.5t-2.5 13.5zM106 57q0 5 -1 9.5t-2.5 9t-2.5 9t-1 9.5q5 0 8.5 -5.5t5 -12.5t2 -14t0.5 -10v-6.5t-1 -8.5t-3 -7.5t-5 -3.5t-3 3q0 7 1.5 14t1.5 14zM164 74q3 0 4 1t4 3q0 1 1.5 2.5t3.5 3t3.5 3t1.5 2.5l0.5 0.5l0.5 0.5
q0 1 -0.5 2.5t-1.5 1.5h-11q2 -3 1.5 -4t-0.5 -4h-2h-2q-1 0 -4.5 0.5t-4.5 1.5l-0.5 1.5t-1 2.5t-1 1.5l-0.5 0.5h-11q0 -3 2 -6.5t5.5 -6.5t7 -5t5.5 -2zM130 81v-9v-6t0.5 -7.5t2 -6.5t5.5 -3h0.5h1.5l16 17v6q-2 2 -4.5 4t-5.5 5t-5.5 5t-4.5 2q-1 0 -2 -1t-1.5 -2
t-1.5 -2t-1 -2zM173 68v-2v-1l3 -3t4 -4.5t4 -4t3 -2.5t2.5 -2l1.5 -1q3 -1 4.5 1.5t2 6t0.5 7.5v4q0 5 -1.5 9.5t-1.5 9.5h-3q-2 0 -5 -2.5t-6 -5.5t-5.5 -6t-2.5 -4zM184 74q0 1 0.5 2t1.5 1h1q1 0 2 -1l1 -1v-13h-4l-0.5 1t-0.5 2.5t-0.5 3.5t-0.5 3v2zM138 65v3v3t1 3
t3 1t2 -1v-2v-4v-4.5t-1 -4t-3 -1.5v0v0q-1 0 -1.5 1l-0.5 1v3v2zM141 43l3 -3h14v2v1q0 1 -1 2l-1 1l0.5 0.5l1.5 1.5h1q2 0 4 -0.5l4 -1t3 -2t1 -4.5h13q0 3 -2.5 6.5t-5.5 7t-6.5 6t-5.5 2.5h-0.5h-0.5q-6 -4 -11.5 -9t-10.5 -10z" />
</svg>
