<?xml version="1.0" standalone="no"?>
<!DOCTYPE svg PUBLIC "-//W3C//DTD SVG 1.1//EN" "http://www.w3.org/Graphics/SVG/1.1/DTD/svg11.dtd" >
<svg xmlns="http://www.w3.org/2000/svg" xmlns:xlink="http://www.w3.org/1999/xlink" version="1.1" viewBox="-10 0 266 256">
   <path fill="currentColor"
d="M78 249q1 0 2 0.5t1 1.5h1h1q0 -1 1.5 -1.5l1.5 -0.5v-2v-2q0 -4 -1 -8t-2.5 -7.5t-3.5 -7.5t-3 -8q-3 -12 -4.5 -24.5t-1.5 -24.5q0 -14 2.5 -27.5t5.5 -27t5.5 -27t2.5 -26.5v-4v-6v-5v-2q0 -5 -0.5 -7.5t-2 -4.5l-3 -4t-4.5 -5q0 -1 -0.5 -2.5t-1.5 -3t-2 -2.5t-2 -1
q-3 0 -4 2t-1 4t1 4.5t2.5 4.5t2.5 4.5t2 3.5q3 6 4 13t1 14q0 5 -0.5 9.5t-1.5 9.5t-2 9.5t-1 8.5q-4 7 -6.5 16.5t-3.5 20t-1.5 20.5t-0.5 18t1.5 18.5t3.5 21t5 20.5t7 17zM122 244q0 1 2 3t3 2l1.5 -0.5t1.5 -1.5q1 0 2.5 -1t1.5 -2v-64q6 1 9 -3.5t5 -10.5t2.5 -12.5
t1.5 -10.5v-3.5v-5.5v-6v-4h-6q-1 0 -1 3.5t-0.5 8.5t-0.5 11.5t-1 11.5t-3 8.5t-6 3.5q-2 0 -3 -3t-1 -5q0 -11 1.5 -22t2.5 -22v-2v-4t0.5 -4l0.5 -2q3 -4 6.5 -6t6.5 -5t4 -8.5t1.5 -11.5t0.5 -12v-9h-3t-3 2q0 5 -0.5 9t-1 7.5t-1.5 7t-2 8.5q0 1 -1 4t-3 3h-1
q0 -1 -0.5 -1.5l-0.5 -0.5v-6v-5v-9v-8t1 -8.5t2 -10.5q1 -3 3.5 -5t5.5 -4t5.5 -3.5t2.5 -4.5t-1 -4t-4 -1q-1 0 -4 2t-6 4.5t-5.5 5.5t-2.5 4q-3 5 -3.5 11t-0.5 11.5v11t-1 11.5l-0.5 1.5l-1 3t-0.5 3v2.5h-1h-1q-2 0 -3 -3t-1.5 -7t-0.5 -7.5v-3.5q0 -6 1 -10t1 -9v-1
l-0.5 -0.5l-0.5 -0.5h-1h-1q-1 0 -2 1.5l-1 1.5v40l9 10v1v3v4v3q0 13 -1 25.5t0 25.5l-2 2l-1 1h-1q-3 0 -5 -1.5t-3 -4.5t-1 -6v-5q0 -6 0.5 -12t0.5 -13v-2v-4t-1 -3.5t-3 -1.5h-1l-3 7v2v4.5v4.5v4v6v7.5v6.5v3q0 1 0.5 4.5t1.5 3.5q2 3 5 4.5l6 3t5 3.5t2 6
q0 9 -1 18.5t-1 19.5v17zM40 174v7v9v7v4q0 2 0.5 5l1 6t2 5.5t4.5 2.5q2 0 4 -0.5t2 -3.5v-1l-0.5 -2l-1 -4t-0.5 -3v-2l-1 -2l-1 -2q-1 -5 -1.5 -9.5t-0.5 -8v-8v-10.5v-4v-7q0 -3 0.5 -6.5t0.5 -4.5q1 -5 3 -12t2 -12q0 -3 -1 -4t-4 -1q-2 0 -3.5 1t-2 3l-1 4t-0.5 3.5
t-0.5 4.5t-0.5 7t-0.5 7t-0.5 4v4v7.5v8.5v7zM85 184q1 2 1.5 7t1.5 10t3.5 9t7.5 4q1 0 3 -1t2 -3t-1 -4t-2.5 -4t-2.5 -4t-2 -3q-4 -9 -5.5 -19t-1.5 -19t2 -17.5t2 -17.5v-4q-1 -1 -2 -1.5t-2 -0.5t-1.5 2t-1 4.5t-0.5 4.5v2v4t-0.5 7t-0.5 7.5v4.5l-0.5 2t-0.5 4v5v5v3
v5q0 2 0.5 4.5t0.5 3.5zM167 130q-3 0 -3.5 1t-0.5 5v59q0 1 1 3t2.5 4t4 3t3.5 1h23l1 -1l2 -2l2 -2t2 -1q0 -1 0.5 -2t0.5 -2v-64q0 -2 -2 -2.5t-3 -0.5h-2.5t-2.5 2v5q0 4 1 7t1 6v2.5t-2 1.5q-5 1 -9 1.5t-9 0.5q-3 0 -4.5 -2t-1.5 -4.5t0.5 -6t0.5 -5.5q0 -3 -1 -5
t-4 -2zM173 191q-1 -7 -1.5 -11.5t-0.5 -10.5v-2v-3q5 -1 10.5 -2t11.5 -1q1 0 2 0.5t2 2.5v4v3v7t-0.5 8t-1.5 7t-4 5h-3h-3q-4 0 -7 -1t-5 -6zM171 111q0 1 1.5 1.5t3.5 0.5h3.5h1.5q2 0 5.5 0.5t6.5 0t5.5 -1.5t2.5 -4q0 -1 -1 -2t-3 -1q-1 0 -3.5 0.5t-5.5 0.5t-5.5 0.5
t-3.5 0.5h-1.5t-3 0.5t-2.5 1t-1 2.5zM187 60q3 0 4 2t1.5 4.5l1 5t0.5 3.5q1 2 3 7t5 10.5t5 10.5t3 7h2h2q3 0 3.5 -1.5t0.5 -4.5v-2q-2 -6 -4.5 -10t-4.5 -7.5t-4.5 -8t-4.5 -10.5q0 -1 -1 -5t-2.5 -8.5t-3.5 -8t-5 -3.5t-5 2t-3 5t-1.5 6t-1.5 5q0 2 -2 6l-4.5 9l-4.5 9
l-3 6q0 1 -1.5 3l-3 4t-2.5 4.5t-1 4.5q0 1 0.5 2t1.5 1q3 0 6.5 -4.5t6.5 -10.5t5.5 -11.5t3.5 -8.5q0 -1 1.5 -2.5t2.5 -3.5t1.5 -4t1.5 -3h0.5h0.5zM91 92v5q6 0 9.5 -4.5t5 -10.5t2 -12.5t0.5 -10.5v-8.5t-1 -7t-3.5 -4.5t-8.5 -2q0 3 1 5.5l2 5l2 5t1 4.5q0 11 -1.5 19
t-8.5 16zM48 91q0 3 4 3t6 -3t3.5 -7t1.5 -8v-7v-11q0 -5 -1 -9.5t-4.5 -7.5t-9.5 -3q0 4 0.5 7t2 6t2.5 6t1 7q0 3 -1 7t-2 7.5t-2 6.5t-1 6z" />
</svg>
