<?xml version="1.0" standalone="no"?>
<!DOCTYPE svg PUBLIC "-//W3C//DTD SVG 1.1//EN" "http://www.w3.org/Graphics/SVG/1.1/DTD/svg11.dtd" >
<svg xmlns="http://www.w3.org/2000/svg" xmlns:xlink="http://www.w3.org/1999/xlink" version="1.1" viewBox="-10 0 266 256">
   <path fill="currentColor"
d="M189 242v2.5t0.5 3t1.5 2.5t3 1q3 0 5 -2t3 -5.5t1.5 -7t0.5 -4.5v-2.5t-0.5 -3.5t-1 -3.5t-0.5 -2.5t1 -3.5l1 -2.5v-74v-1.5t-0.5 -3.5t-1 -3.5t-0.5 -2.5v-1q0 -1 -0.5 -3t-1.5 -4t-2 -3.5t-2 -1.5h-50v-9.5t1.5 -5.5t5 -3t10.5 -1q2 -1 9 -1t14.5 -0.5t14.5 -0.5h10
l0.5 -1.5t0.5 -2.5q0 -2 -1 -3t-2.5 -1h-3.5h-3h-6q-1 0 -3.5 0.5t-3.5 0.5q-11 1 -21 1t-18 2.5t-12.5 9t-4.5 20.5l0.5 1.5l0.5 1.5v3q0 10 -0.5 19t-0.5 18q0 7 0.5 12t2 8.5t5.5 6.5t10 5q1 0 3 0.5l2 0.5h33l3 4q-1 10 -2 20.5t-1 20.5zM74 160q0 2 0.5 8.5t1 15t2 17
t3.5 16t5 12.5t7 5t4.5 -1.5t0.5 -5.5t-1 -9t-3 -9.5l-4 -9t-4 -8.5q0 -5 -0.5 -9.5t-1 -8t-0.5 -7.5v-9q0 -7 1 -15.5t2 -16.5l2 -16t2 -14q2 -11 4.5 -21t2.5 -21q0 -4 -0.5 -11t-2.5 -13.5t-6 -11t-11 -4.5q-2 0 -4 0.5t-2 3.5q0 1 2.5 4.5t5 8t5 8.5t3.5 6v9
q0 13 -3.5 25t-5.5 25q-2 14 -3.5 28.5t-1.5 28.5zM58 225q0 1 2.5 2t4.5 1q1 1 2 0t1.5 -2.5t0.5 -3.5v-3q0 -3 -1 -7t-3 -7.5t-3.5 -7t-2.5 -6.5q0 -3 -0.5 -7t-0.5 -8.5v-8.5v-8v-7v-7.5t0.5 -7t0.5 -8.5l2.5 -7.5t1.5 -6.5q0 -1 -0.5 -2t-1 -2.5t-1.5 -2.5t-2 0
q-5 2 -7 6.5t-2.5 10t-1 10.5t-1.5 9v3v5.5v5.5v4q0 17 2.5 32t9.5 31zM99 144v3q0 1 0.5 4t0.5 7t0.5 7.5t0.5 4.5q0 4 1 12t2.5 16t5 14.5t9.5 6.5q3 0 4 -2.5t1 -4.5v-2l-1.5 -2.5t-1.5 -3.5t-1 -3.5t-2 -5.5l-2 -6t-2 -5q-3 -9 -4 -19.5t-1 -20.5t1.5 -20t1.5 -22
q-7 0 -10 5t-3.5 12t0 14t0.5 11zM144 160l2 -3l3.5 -0.5t8.5 -0.5t10.5 -0.5t8.5 -0.5h8h4l2 2v1.5t0.5 4t0.5 5v3.5t0.5 3t0.5 4q0 4 -1.5 6.5t-4 3.5t-6 1h-8.5h-6.5t-9.5 -1.5t-9 -3.5t-4 -6v-18zM144 129l4 -3l2 -0.5t5.5 -0.5t6.5 -0.5t6 -0.5h1h2h3h2q9 0 12 3.5
t3 12.5v3t-2 2q-9 2 -14.5 2h-13.5h-2.5h-3.5h-3.5h-2.5l-2.5 -1t-2.5 -2v-15zM54 91q0 2 0.5 4t2.5 2q5 0 8 -4t4 -9t1.5 -10.5t0.5 -8.5v-8t-1.5 -9.5t-4.5 -8t-8 -3.5t-5 4q0 9 3 17.5t3 17.5q0 5 -2 8.5t-2 7.5zM111 43v39l0.5 0.5l1.5 1.5v0q4 0 6 -4.5t3 -10.5t1 -11
v-7v-2v-4v-3v-2q-2 -4 -4 -7t-6 -3q-3 0 -4 0.5t-1 3.5q0 2 0.5 4t2.5 5zM146 69q11 6 25 6h10.5t11.5 -2t9 -5.5t4 -10.5v-32q0 -8 -7 -8q-1 0 -4 0.5t-3 2.5v20h-38v-17q0 -2 -2 -2.5t-4 -0.5q-1 0 -2.5 0.5t-1.5 2.5v3.5v5.5v4.5v3.5v14t2 15zM154 57q0 -3 0.5 -5.5
t4.5 -4.5h4t6.5 -0.5t6.5 -0.5h5h4q2 0 4.5 2t2.5 5q0 5 -2 7.5t-5.5 4t-7.5 2t-7 0.5q-6 0 -11 -1.5t-5 -8.5z" />
</svg>
