<?xml version="1.0" standalone="no"?>
<!DOCTYPE svg PUBLIC "-//W3C//DTD SVG 1.1//EN" "http://www.w3.org/Graphics/SVG/1.1/DTD/svg11.dtd" >
<svg xmlns="http://www.w3.org/2000/svg" xmlns:xlink="http://www.w3.org/1999/xlink" version="1.1" viewBox="-10 0 266 256">
   <path fill="currentColor"
d="M130 175q-8 6 -11.5 15.5t-4.5 20t-0.5 21t0.5 19.5q3 0 6 -2t4 -5q0 -2 -0.5 -7.5t-0.5 -11.5t0.5 -11t0.5 -7q0 -5 1.5 -10.5t4.5 -10t8 -7.5t11 -3q2 0 3 2t1.5 4.5t0.5 5v3.5q0 2 -2 4l-2 2q-1 0 -3 0.5t-4 0.5t-4 0.5l-2 0.5q-1 0 -3 0.5t-2 1.5v0v1q0 1 0.5 2
l0.5 1h18l1 1l1 1q0 1 0.5 3.5l0.5 2.5q0 1 -1 2.5t-2 2.5q-1 0 -3 0.5l-4 1t-4.5 1l-2.5 0.5q-2 1 -4 1.5t-3 1.5q1 3 2.5 3.5t3.5 0.5h8t11.5 -0.5t13 -1.5t12 -2t9 -2t3.5 -3v-1v0q-1 0 -2 -1l-1 -1h-24q-1 0 -2 -1t-1 -2t-0.5 -2.5t-0.5 -2.5q0 -4 3 -5.5t7.5 -2
t9.5 -0.5t8 -1v-0.5v-1.5l-0.5 -1.5t-1.5 -1.5h-24q-1 0 -1.5 -2t-1 -5t-0.5 -5.5v-3.5l1.5 -1.5l1.5 -1.5h4.5h5.5q10 0 15.5 4.5t8 11.5t2.5 15.5t1 16.5v4.5v7.5v7v5t1 2.5t2 0.5q4 0 6 -2.5t2 -5.5v-3v-2t-0.5 -2.5t-0.5 -2.5v-1q-1 -2 -1.5 -7l-1 -10t-1 -9.5
t-0.5 -7.5q-1 -3 -2 -8t-3 -9.5t-4.5 -7.5t-7.5 -3h-5h-7h-7.5h-4.5l-5 -2v-1v-2q0 -1 -0.5 -3.5t1.5 -2.5l29 -7q3 -1 5 -3t3 -5t1.5 -6.5t0.5 -5.5q0 -10 -3 -15t-7.5 -7t-10.5 -2h-10t-8 -1t-3 -6q0 -2 3.5 -3.5t8.5 -2.5t10.5 -2.5l11 -3t8.5 -4t3 -6.5q0 -2 -0.5 -3.5
t-2.5 -1.5q-3 0 -6.5 3.5t-6.5 4.5q-7 4 -13 5.5t-14 1.5v-2v-4v-3v-3q0 -3 2.5 -4t6 -2t7 -1.5t7 -2.5t5.5 -5.5t2 -9.5v-4v-4q-4 -2 -9.5 -3t-11.5 -1.5t-11 -0.5h-9q-4 -2 -5.5 -6.5t-2.5 -9t-3.5 -8t-6.5 -3.5q-3 0 -3.5 1.5t-0.5 3.5q0 4 2 7.5t4.5 7t4.5 7t2 7.5
t-2.5 6.5t-6 4.5t-6 4t-2.5 5q0 2 1.5 2h3.5q5 0 8 -3t6 -7t8 -7.5t14 -3.5h5t6 0.5t5 2t2 4.5q0 1 -1.5 2.5l-3 3t-3.5 2.5t-3 1t-3 1t-4 1.5t-4.5 1.5l-2.5 1q-4 4 -5 9.5t-2 11.5h-1q-4 0 -8.5 -1.5t-8.5 -3t-8 -3.5t-6 -4q-1 0 -1.5 1l-0.5 1q0 1 0.5 2t1.5 1l2 2
l2.5 2.5l2.5 2.5l1 1q3 2 7 2.5t8 1.5t6.5 2.5t2.5 6.5v5q-2 2 -3.5 1.5t-4.5 -0.5q-15 2 -20.5 9t-5.5 23q0 2 0.5 4.5t1.5 4.5t2 3.5t3 1.5l26 5q2 1 3 2.5t1 3.5q0 3 -1.5 4t-2.5 1q-2 1 -4.5 1.5t-5.5 1.5t-6 1.5t-4 0.5zM67 163q0 8 0.5 13.5t1.5 11.5t2 11.5t3 12.5
q1 5 2 10.5t3 10.5t5.5 8.5t10.5 3.5q0 -6 -1.5 -10.5t-3.5 -9t-4.5 -9t-3.5 -9.5q-4 -17 -5.5 -33t-1.5 -34q0 -9 2 -18t4 -18.5l4 -19t2 -18.5q0 -4 -1.5 -11t-4 -13.5t-6.5 -11.5t-9 -5q-3 0 -3.5 1t-0.5 4t2 6t4.5 6l5 6t3.5 6q1 4 1.5 8.5t0.5 9.5v4q-1 2 -2 7t-2.5 11
t-2.5 11t-1 7q-3 12 -3.5 25.5t-0.5 25.5zM50 122q-2 0 -3.5 3.5t-1.5 4.5v61q0 3 1 11t3.5 16t5.5 14.5t7 6.5q3 0 4.5 -2t1.5 -5t-1.5 -6t-3 -6.5t-3 -6.5t-2.5 -6q-3 -8 -4 -18.5t-1 -18.5v-1q0 -1 0.5 -6t0.5 -10t0.5 -10t0.5 -6v-6v-5l-2 -2t-2 -1q0 -1 -1 -1zM87 160
v7.5t1 12t2.5 13.5t3 12.5t3.5 9t5 3.5q4 0 4 -4v-1v-1q-7 -15 -10 -29t-3 -31v-1q0 -1 0.5 -4t1 -6.5l1 -7t0.5 -4.5t-0.5 -2l-0.5 -1h-1h-1q-1 0 -2.5 2t-2.5 2q0 5 -0.5 8.5t-0.5 7v6.5v8zM127 142v-2q2 0 4.5 -0.5t5.5 -1t5.5 -1t3.5 -0.5q2 0 3.5 1.5t2 3.5l1 4t0.5 3
t-1 1.5t-2.5 0.5h-3.5h-1h-5.5t-6 -1t-4.5 -3t-2 -5zM159 140v-2t2 -1q1 0 3.5 -0.5t5 -0.5t5 -0.5t3.5 -0.5q3 0 6.5 1t3.5 4q0 2 -1 3.5t-4 3.5q-1 0 -3 0.5t-4.5 1l-5 1t-3.5 0.5h-2q-4 0 -5 -3t-1 -7zM127 128q0 -3 2 -5.5t5 -5t6 -3.5t6 -1q2 0 3.5 1.5t2 3t1 3.5
t0.5 4q0 1 -0.5 3t-2.5 2h-21q-1 0 -1.5 -0.5l-0.5 -0.5v-1zM159 121v-4t3 -2h23q3 0 4 2.5t1 4.5t-0.5 3.5t-3.5 1.5q-1 0 -3.5 0.5t-5.5 0.5t-6 0.5t-4 0.5h-0.5h-0.5q-4 0 -5.5 -2t-1.5 -6zM56 83q0 5 -1 10.5t-1 11.5q4 0 6 -2t3.5 -5t2.5 -6.5t1 -6.5v-1
q0 -4 -0.5 -9.5t-2 -10.5t-4.5 -9t-8 -4h-2t-2 2q1 1 2 4.5t2.5 7t2.5 7t1 4.5v3.5v3.5zM95 94q0 1 0.5 2t1.5 1q4 0 6 -3t3 -7t1.5 -8t0.5 -7v-8.5t-1.5 -10.5t-4 -8.5t-8.5 -3.5q0 4 1 7.5t2 7.5t2 7.5t1 7.5q0 7 -2.5 12t-2.5 11z" />
</svg>
