<?xml version="1.0" standalone="no"?>
<!DOCTYPE svg PUBLIC "-//W3C//DTD SVG 1.1//EN" "http://www.w3.org/Graphics/SVG/1.1/DTD/svg11.dtd" >
<svg xmlns="http://www.w3.org/2000/svg" xmlns:xlink="http://www.w3.org/1999/xlink" version="1.1" viewBox="-10 0 266 256">
   <path fill="currentColor"
d="M78 245q2 3 6 3q3 0 4.5 -2t1.5 -4q0 -5 -2 -8.5t-3 -6.5q-2 -5 -3 -8.5t-1.5 -7l-1 -7t-1.5 -8.5v-4t-0.5 -7t-0.5 -7.5v-4.5v-1v0q0 -3 0.5 -6.5t0.5 -7.5v-6.5v-2.5q1 -3 2 -9.5l2 -13t1.5 -12.5t1.5 -8q1 -5 2.5 -10.5l3 -11t3 -11.5t1.5 -11q0 -1 -0.5 -5.5t-1 -10
t-1.5 -12t-3 -11.5t-4.5 -8.5t-6.5 -2.5l-1.5 0.5t-3 1.5t-2.5 2t-1 3q1 2 3 5t4 4q0 2 1 5.5t2.5 7t2 7.5t0.5 6q0 12 -1.5 22.5t-4 21t-4.5 21t-3 21.5q-1 2 -1.5 5t-1 7t-0.5 7v5v1q0 3 0.5 10t1 15t1 15.5t0.5 10.5q6 14 8 29zM184 243q0 1 1.5 2t1.5 2h1q4 0 6 -4
q1 -7 1.5 -15t0.5 -16.5t-0.5 -16.5t-0.5 -14q1 -2 4 -3t5.5 -1.5t5 -1.5t2.5 -4q0 -2 -0.5 -3t-3.5 -1h-1t-2.5 0.5t-3 0.5h-1.5h-1h-1l-1.5 -0.5l-1.5 -0.5v-17q0 -1 2 -1t4.5 -0.5t4 -2t1.5 -6.5h-13v-19l-0.5 -1.5t-1.5 -1.5l-1.5 -2t-3 -4.5l-1.5 -2.5h-17q-1 0 -1 -1
t-0.5 -2.5t-0.5 -2.5v-1q0 -4 2.5 -5.5t5.5 -2t6.5 -1t6.5 -3t4.5 -7.5t1.5 -14q1 -2 4 -3t5.5 -2t4.5 -2t2 -4t-2.5 -3.5t-5 -0.5t-5 -0.5t-2.5 -4.5q0 -6 2.5 -8t6 -2.5t6 -1t2.5 -4.5q0 -2 -2 -3.5t-4 -1.5l-2 1l-2 1h-2q-3 0 -3 -3v-6.5t-1 -6t-7 -2.5h-1h-1t-2 0.5
l-1 0.5v18l-2 2h-2.5t-4.5 0.5t-4.5 0.5t-2.5 1q-1 0 -2 0.5t-2 0.5h-19v-16q0 -1 -1.5 -1.5l-1.5 -0.5q-1 0 -4 1t-3 3v14q0 2 -1.5 2.5t-4 1t-4.5 1t-3 2.5q1 1 3.5 1t4.5 0.5t3.5 1t1.5 2.5v13q0 2 -2 2t-5 0.5t-5 1.5t-3 4q1 0 2 0.5t2 0.5q0 1 1 1v-1h2t2.5 -0.5
t2.5 -0.5h2v0v0h1v0q1 0 2 1.5l1 1.5q-1 8 0.5 12t4 6t5.5 2.5t5.5 1t4.5 1.5t2 5t-2.5 6.5t-6 4t-7.5 3t-7 4.5t-4 6t-1 6.5t-0.5 7t-2.5 6.5q-1 0 -3 0.5l-4 1l-4 1l-2 0.5q-1 0 -1.5 0.5t-0.5 1.5v1q0 1 2.5 1.5t5 2t5 4.5t2.5 9v2.5t-0.5 3t-1.5 3t-2 1.5h-14l-1 2l-1 2
v1q0 2 1.5 2.5t2.5 0.5q3 0 5 -1t5 -1h2t2 2v4.5v4.5v3v3v3v1q0 2 -0.5 7t-1 10.5t-1 10.5t-0.5 6q0 2 1 4t3 2t3.5 -1.5t2 -3.5l1 -4t0.5 -3v-4v-8v-7v-4q0 -2 0.5 -6t0.5 -7.5t0.5 -6.5l0.5 -3l1 -3l4 -0.5t6 -1.5q5 0 8 -0.5t6 -0.5t6 -0.5t7 -0.5q2 0 4.5 0.5l2.5 0.5
l4 3v7q0 10 -1 20.5t-1 20.5v3v3v4v2zM44 179v6v6.5v6.5v3q0 1 0.5 4t0.5 6.5t0.5 7l0.5 3.5v4.5t0.5 5.5t2 5t4.5 2q4 0 4.5 -3.5t0.5 -6.5q0 -12 -2 -24t-2 -25q0 -8 1 -16.5t2 -16.5t2 -16.5t1 -16.5q0 -2 -1 -2.5t-3 -0.5q-6 0 -6.5 3t-1.5 8q-1 3 -1.5 8.5l-1 11l-1 11
t-0.5 7.5v3v5v6v5zM100 224q0 1 2 2t3 1q3 0 3.5 -1.5t0.5 -3.5v-1.5v-1.5q0 -1 -1.5 -3.5t-1.5 -3.5q-1 -1 -1.5 -4t-1.5 -6.5t-2 -6.5t-1 -4q-1 -4 -1.5 -8.5l-1 -9t0 -9t0.5 -8.5v-4v-6v-6v-4q3 -4 3 -7.5v-7.5v-6l-1 -2h-1q-2 0 -4 4t-3 9t-1.5 10t-0.5 6v14
q0 17 2.5 34t7.5 34zM137 167v-2v-2t0.5 -4t0.5 -5v-2h17l1 2.5t1 5.5t0.5 5.5t0.5 3.5t-0.5 2.5t-2.5 1.5h-17q-1 0 -1 -1v-2v-2v-1zM167 164q0 -7 1 -11t8 -4h2h3q0 1 1 4.5t2 4.5v2q0 6 -1 9t-7 3q-5 0 -7 -2t-2 -6zM140 138q0 -3 0.5 -6.5t2 -6t4 -4.5t5.5 -2t4 1.5
t1.5 4t0.5 5.5v5q0 9 -10 9q-4 0 -6 -1.5t-2 -4.5zM168 140l-0.5 -2t-0.5 -3q0 -4 0.5 -9t3.5 -8h2h2q5 0 6 3.5t1 8.5q0 6 -1.5 9t-8.5 3h-3q-1 0 -1 -2zM49 90q1 2 2 3t3 1q5 0 7.5 -4.5t3.5 -10.5t1.5 -12t0.5 -9t-0.5 -6.5t-2 -7t-3.5 -6t-6 -2.5q-2 0 -4 1t-2 3
q0 3 1 6.5t2.5 6.5t2.5 6t1 7q0 6 -2 12t-5 12zM99 88q0 2 0.5 2.5t2.5 0.5t5 -2t4.5 -5t3 -6.5t1.5 -5.5v-28q0 -1 -1 -4t-2.5 -6t-3.5 -5.5t-4 -2.5h-1q0 1 -2 3l-2 2l-1 1l0.5 0.5l0.5 0.5q1 5 2 8.5l2 7t1.5 7t0.5 9.5q0 3 -1 6t-2.5 6.5t-2.5 6.5t-1 4zM146 75v-5
q3 -1 5 -1h4q6 0 6 5v4t-0.5 4t-1.5 3.5t-3 1.5q-3 0 -5 -1t-3 -2.5t-1.5 -4t-0.5 -4.5zM179 65q4 0 4.5 1.5t0.5 5.5q0 7 -4 11t-11 4v-18q0 -1 1.5 -2t3 -1t3 -0.5t2.5 -0.5zM152 43q5 0 7 2.5t2 7.5q0 4 -1.5 6t-5.5 2h-2t-2.5 -0.5t-2.5 -1t-1 -2.5v-11q0 -2 2.5 -2.5
t3.5 -0.5zM169 54q0 -4 1.5 -8.5t6.5 -4.5t7.5 3t2.5 8q0 4 -3.5 5t-7.5 1l-2 -0.5t-3 -0.5q-2 0 -2 -1v-2z" />
</svg>
