<?xml version="1.0" standalone="no"?>
<!DOCTYPE svg PUBLIC "-//W3C//DTD SVG 1.1//EN" "http://www.w3.org/Graphics/SVG/1.1/DTD/svg11.dtd" >
<svg xmlns="http://www.w3.org/2000/svg" xmlns:xlink="http://www.w3.org/1999/xlink" version="1.1" viewBox="-10 0 266 256">
   <path fill="currentColor"
d="M170 236q0 2 1 4.5l2 5t2.5 4.5t3.5 2q3 0 3 -2v-4q0 -5 -1.5 -8.5t-1.5 -8.5q0 -6 1 -10.5t2.5 -9t4 -8.5t5.5 -8l1 -1.5l1 -1.5q4 -11 5.5 -21t1.5 -21q0 -4 -0.5 -10.5t-0.5 -13t-1 -12.5t-3 -8q-3 -5 -8 -6t-10 -2.5t-8.5 -4.5t-3.5 -10q0 -4 3.5 -7t7.5 -5t8 -3.5
t7 -1.5q0 -1 1 -2l1 -1q0 -2 1 -5l1 -3v-39q0 -2 -1.5 -2.5t-3.5 -0.5q-1 0 -3 0.5t-2 2.5v17q0 2 -4 2h-8.5t-8.5 1t-4 4t3 3h0.5h0.5q1 0 4 -0.5l6 -1l6 -1t4 -0.5t1 2v2q0 9 -2 12.5t-5 5.5t-7 2.5t-7 2.5t-5 7t-2 14q0 7 4 9.5t9.5 4t9.5 2.5t4 4q0 4 -4 6.5t-9 5.5
t-9.5 6t-4.5 8q5 0 9.5 -2.5t8.5 -6.5l7 -7t5 -3t3 2t1.5 4.5t0 5t-0.5 3.5v2.5v2.5q-4 0 -8.5 2.5t-8.5 5t-8 5.5t-8 5v3q5 0 9.5 -2t8.5 -4.5t7.5 -5t6.5 -2.5h0.5h0.5q1 4 1.5 7.5t0.5 7.5t-0.5 8.5t-2 9.5t-3 9t-3.5 8q-2 3 -5 6.5t-5 6.5q-1 3 -2 7.5t-1.5 9l-1 9
t-0.5 7.5zM126 239q0 1 0.5 3l1 4t1.5 3t3 1q1 0 3 -1t2 -3v-35q0 -5 2.5 -9.5l5 -9t5 -9.5t2.5 -11v-66q0 -4 -4.5 -6t-9.5 -2.5t-9.5 -1t-4.5 -1.5v-19q0 -3 3.5 -4.5t8.5 -3.5t9 -4t6 -5q0 -8 0.5 -17.5t0.5 -18.5v-3v-4.5t-1 -4.5t-3 -2t-3 1.5t-1 3.5v21q0 2 -4 2.5
t-8.5 0.5t-8.5 1t-4 3t1.5 3t3.5 1h1q1 0 3 -0.5t5 -1t5 -1t3 -0.5v-1h1q1 0 2 0.5t1 1.5v3v2q0 5 -2 7t-5 3.5t-7 2.5t-7 3.5t-5.5 8t-2.5 15.5q0 6 2.5 8.5t5.5 3.5t7 1t7.5 1t5.5 4t2 9v52l-0.5 2t-1 4.5l-1 5t-1.5 4.5q-1 3 -3 5.5t-4 5.5t-3.5 5.5t-2.5 5.5q-1 8 -2 17
t-1 16zM74 137q0 1 0.5 9.5t1.5 20.5t2.5 26t3.5 25.5t4.5 19.5t5.5 8q2 0 2.5 -2t0.5 -4v-2l-10 -39q1 -2 0.5 -5t-1 -6.5t-1.5 -6.5t-1 -5v-3v-5.5v-7.5v-6v-4v-6.5v-6.5v-4q2 -9 4 -17.5t3.5 -17.5t3 -17.5t1.5 -17.5v-13.5t-2 -15t-6 -12.5t-12 -5q0 4 2 6.5t4 4.5
t4 4.5t2.5 5.5t0.5 4.5v3v2.5t1 4v2t0.5 4t0.5 4v2v4q0 1 -0.5 3.5t-0.5 4v1.5q0 2 -1 7t-2 10.5t-2.5 10.5t-1.5 7l-2.5 5t-2.5 6.5t-1.5 7t-0.5 6.5zM55 174q0 3 0.5 8.5t1 12t1.5 13t2.5 12t4.5 9.5t8 4q0 -4 -1.5 -9.5t-3 -12t-3.5 -12t-3 -8.5v-16q0 -11 1.5 -22
t1.5 -22v-4l-1 -1t-2 -1v0q-2 0 -3.5 7t-2 15.5t-1 16.5t-0.5 10zM94 168q0 9 0.5 19t3.5 19q0 1 1 3t2 3.5t2 3.5l1 2v3v3.5t0.5 3t2.5 1.5h1q1 0 1.5 -0.5l1.5 -1.5v-2v-2q0 -3 -1 -7.5t-2.5 -8.5l-3 -8t-2.5 -6q-2 -8 -2 -17v-17q0 -5 0.5 -10t0.5 -9v-3v-5t-0.5 -3.5
t-2.5 -1.5q-1 0 -2 5.5t-1.5 12.5t-0.5 13.5v9.5zM140 161q-1 0 -6.5 4.5t-11.5 9.5t-11 10t-5 7q5 0 10.5 -3t11 -7.5t9.5 -9.5t4 -9v0q0 -1 -0.5 -1.5zM156 186q0 2 1.5 2h2.5q2 0 7 -3t10 -7t8.5 -8t3.5 -5t-0.5 -1.5t-2.5 -0.5t-4 1t-4.5 3.5l-4.5 4.5t-4 3l-2 1
t-3.5 2.5t-3.5 2.5l-2 1q0 1 -0.5 2t-1.5 1v1zM106 161l1.5 1.5t2.5 0.5q1 0 6 -2.5t10.5 -6t10 -7t4.5 -5.5q0 -3 -3 -3q-2 0 -6.5 3t-10 7t-10 8t-5.5 4zM106 140v0q1 1 2 1t2 1v0q2 0 7 -3t10 -7.5t9 -9t4 -6.5q0 -1 -0.5 -2t-2.5 -1q-2 1 -3 2l-2.5 2.5l-3 3t-2.5 1.5
l-1.5 1.5t-3.5 2.5l-4 2t-2 2q-1 1 -4 4.5t-5 4.5v1zM58 107q0 3 0.5 4t3.5 1q2 0 3 -1.5t2 -3.5q0 -1 1 -5.5l2 -9t1.5 -8.5t0.5 -5v-2v-1v-8t-0.5 -9t-0.5 -7.5v-3.5l-6 -12l-1 -0.5t-2 -0.5v0q-2 0 -3.5 0.5t-1.5 2.5q0 3 2 6q1 1 1.5 4t1.5 6.5t1.5 6.5t0.5 4v5
q0 10 -2 17.5t-4 16.5v3zM105 61q0 7 -0.5 15.5t-2.5 15.5q0 3 -1.5 5.5t-2.5 4.5t-1.5 4.5t-0.5 5.5h4l0.5 -1.5t1.5 -3t1.5 -3.5t1.5 -3q5 -14 5.5 -27.5t0.5 -28.5q0 -1 -0.5 -4t-1.5 -5.5t-2.5 -4.5t-2.5 -2q-2 0 -2.5 0.5t-0.5 2.5q0 7 2 14t2 15z" />
</svg>
