<?xml version="1.0" standalone="no"?>
<!DOCTYPE svg PUBLIC "-//W3C//DTD SVG 1.1//EN" "http://www.w3.org/Graphics/SVG/1.1/DTD/svg11.dtd" >
<svg xmlns="http://www.w3.org/2000/svg" xmlns:xlink="http://www.w3.org/1999/xlink" version="1.1" viewBox="-10 0 266 256">
   <path fill="currentColor"
d="M177 246q0 2 0.5 3t2.5 1q3 0 4 -1.5t2 -3.5t1 -4v-4q0 -13 -1.5 -25.5t-1.5 -25.5q0 -2 -0.5 -4t0 -4.5t1.5 -4t3 -1.5q6 0 9 5t4.5 12.5t1.5 15.5v11v3.5v5.5v5.5v3.5q1 0 2 1l1 1h1q4 0 5 -3t1 -6v-4q-1 -3 -1.5 -9t-1.5 -12.5t-2 -12.5t-2 -8l-0.5 -2.5t-1.5 -5.5
t-2.5 -5t-3.5 -3q-4 -1 -7 -1.5t-5 -1.5t-3 -3.5t-1 -7.5v-3q0 -1 2 -2q8 0 12.5 -2.5t7 -6.5t3 -9.5t0.5 -13.5h-6q0 2 -0.5 6t-1.5 8t-3 7t-6 3q-5 0 -6 -4.5t-1 -10t-0.5 -10t-3.5 -4.5q-1 0 -2 0.5t-1 1.5v24l-2 3h-1h-2q-6 0 -9 -3t-4.5 -6.5t-2.5 -6.5t-3 -3v0
q-1 0 -1.5 0.5t-0.5 1.5v0v1q0 2 0.5 4t1 4.5t1 4.5l0.5 2q3 5 7 6.5t7.5 2t6 2.5t2.5 10q0 3 -2 5t-4.5 3.5t-5.5 3t-5 3.5q-2 5 -4 12t-2.5 14.5l-1 15t-0.5 11.5q0 1 0.5 4t0.5 4t1 1.5t2 0.5q2 0 3 -2t1.5 -5t0 -5.5t-0.5 -4.5t1 -7t1.5 -11t1 -11t0.5 -7q0 -4 2.5 -8
t7.5 -4q2 0 2.5 1.5t0.5 3.5v47q0 1 1.5 4t1.5 4l-0.5 2t-0.5 3.5t-0.5 3.5l-0.5 2v4zM64 164q0 21 3 40t10 38q1 3 1.5 3h2.5t4 -1t2 -3q0 -4 -1.5 -8l-3 -8l-3 -8t-2.5 -7q-7 -21 -7 -41v-7t1 -5q0 -2 0.5 -8t1 -13t1.5 -13t2 -9q5 -12 6.5 -26t1.5 -27v-4v-4.5v-5.5v-3
q-1 -4 -2.5 -8.5t-4 -8t-6 -6t-8.5 -2.5q0 5 2.5 9t5.5 8.5t5.5 9t2.5 8.5q0 9 -1.5 17l-3 16t-3.5 16l-4 16q-2 11 -2.5 22.5t-0.5 22.5zM134 242q0 2 1.5 2h2.5q3 0 4 -2t1 -5v-1q0 -3 -0.5 -10t-1 -14.5t-1 -14t-0.5 -9.5l-1.5 -4.5t-0.5 -3.5v-4v-4v-5t-0.5 -8t-0.5 -8
v-5v-4v-8.5v-9.5v-7v-5v-6v-5v-3l1 -1l-1 -2v-3v-5q0 -9 1.5 -19t1.5 -19q0 -6 -4 -9.5t-10 -5.5t-12 -3t-10 -3v0v0h-1v0l-2 2l-1 1l1 2q1 0 2 0.5t2.5 1.5t2.5 1.5t1 1.5q0 2 0.5 7t0.5 11t0.5 11t0.5 7v1v1q0 1 -0.5 4t-0.5 6t-0.5 5.5t-0.5 3.5v121l2 11q0 1 0.5 1h0.5
q3 0 4.5 -3t1.5 -7.5v-8.5v-6q0 -3 -0.5 -5t-1.5 -5v-49v-26v-24t0.5 -24t1.5 -26q1 -1 2.5 -1.5t3.5 -0.5q4 0 6 2.5t2 6.5q0 17 -1.5 33t-1.5 33q0 16 1 31.5t1 32.5v5q0 15 1.5 28t1.5 28zM45 194q0 3 -0.5 10t0 14.5t2 13t5.5 5.5q3 0 4.5 -2t1.5 -4q0 -8 -2.5 -15.5
t-2.5 -14.5v-4t-0.5 -6.5t-0.5 -7.5v-6q0 -14 2 -27t2 -26v-3v-3.5t-0.5 -3.5t-2.5 -2q-3 0 -4 2.5t-1 4.5t-0.5 7t-0.5 11t-0.5 13t-1 13t-0.5 11v7v13zM93 215q1 1 2.5 1.5t2.5 0.5q0 -10 -2 -21t-5 -20v-47q2 -2 2 -4v-5v-4t-3 -2t-3 2v5l-0.5 2t-0.5 4t-0.5 4l-0.5 2v4
v6v8v6q0 15 1.5 29.5t6.5 28.5zM197 96q3 0 4.5 2l3 4l3 4t4.5 2h1l0.5 -1.5t1.5 -1.5v-1q0 -3 -1.5 -4.5l-3 -3l-3 -3t-1.5 -3.5t2 -4.5t3 -4.5v-19q0 -1 -0.5 -2t-0.5 -2l-2 -2l-2 -2l-2 -2l-1 -1h-23q-1 0 -1 -2v-3q0 -2 1 -3.5t2.5 -2t3.5 -1t4 -0.5q1 0 3.5 -0.5
t5 -0.5h5h2.5q0 -1 0.5 -1.5t0.5 -1.5q0 -2 -0.5 -3t-3.5 -1h-21l-3 -17q0 -1 -1.5 -1.5l-1.5 -0.5q-4 1 -4.5 3t-0.5 5q0 5 1 10t1 12v4.5v3.5l-5 7l1 1h31q1 0 1.5 1.5l1 3t0.5 3.5v3v2q0 1 -0.5 2.5t-0.5 3t-0.5 2.5t-0.5 2h-1h-2q-3 0 -5.5 -1.5t-5.5 -3.5t-7.5 -3.5
t-11.5 -1.5v5l2 0.5l4 1l4 1l2 0.5q2 0 3.5 1t3.5 2.5t3.5 2.5t1.5 3q0 3 -4 4t-8.5 2t-8.5 2.5t-5 4.5h4q7 0 13.5 -2.5t13.5 -2.5zM53 70v1q0 1 -0.5 4.5t-1 7.5t-1 7.5t-1.5 4.5v3v2q5 0 7.5 -3t3.5 -8t1 -10v-8q0 -2 -0.5 -7.5t-2 -12t-4 -12t-5.5 -5.5q-2 0 -2.5 2
t-0.5 3q0 4 1 8t2.5 7.5t2.5 7.5t1 8zM150 25v1q0 4 1 7t1 5.5t0.5 5.5t0.5 8v9.5v14.5t0.5 15t0.5 10q2 0 3.5 -1.5t1.5 -2.5v-26v-26v-2.5t-0.5 -5t-0.5 -5v-2.5q0 -3 -1 -5t-4 -2l-1.5 0.5t-1.5 1.5v0zM97 65q0 8 -2 15.5t-2 15.5q2 0 3 -1t1.5 -2.5t1.5 -3t2 -2.5
q1 -9 1.5 -15t0.5 -14q0 -2 -0.5 -5t-1.5 -6.5t-2.5 -6.5t-4.5 -3q0 8 1.5 14t1.5 14z" />
</svg>
