<?xml version="1.0" standalone="no"?>
<!DOCTYPE svg PUBLIC "-//W3C//DTD SVG 1.1//EN" "http://www.w3.org/Graphics/SVG/1.1/DTD/svg11.dtd" >
<svg xmlns="http://www.w3.org/2000/svg" xmlns:xlink="http://www.w3.org/1999/xlink" version="1.1" viewBox="-10 0 266 256">
   <path fill="currentColor"
d="M75 152q0 18 2.5 35.5t5.5 35.5q0 1 2 5.5l4 9t4 8.5t3 4q3 0 4 -2t1 -4q0 -6 -3 -12t-5 -11l-1.5 -5.5t-3 -12t-2.5 -12.5t-1 -7v-55q3 -16 4 -31t1 -30v-19l-0.5 -2t-1 -5t-1 -5.5t-0.5 -3.5l-2 -6t-3 -6t-4 -5.5t-6 -2.5q-2 0 -3 2t-1 4q0 5 2 9t4 8.5l4 9t2 9.5
l-1 41v5q0 2 -0.5 7t-1.5 11t-1.5 10.5t-0.5 7.5v15zM52 198q0 1 1 2t1 2t1.5 5.5t2.5 9.5t2.5 9.5t1.5 5.5t1 3.5t2 4.5t2.5 4t3.5 2t3 -1.5t1 -4.5t-1 -7t-3 -9t-3.5 -9.5t-2.5 -8.5q-3 -11 -4 -23t-1 -24q0 -10 1.5 -20t1.5 -20q0 -2 -0.5 -3.5t-3.5 -1.5q-2 0 -3.5 5.5
t-3 12.5t-2 13.5t-0.5 8.5q0 6 0.5 11t1 10.5t0.5 11v11.5zM96 153q0 14 1.5 26.5t5.5 25.5q0 2 1.5 7.5t4 11.5t5 10.5t6.5 4.5q2 0 3 -1.5t1 -3.5v-2l-1 -2t-2.5 -4t-2 -4t-1.5 -3q-5 -11 -7.5 -23.5t-3.5 -24.5l-2 -3v-3.5v-4.5q0 -9 2 -18.5t2 -18.5v-7q-1 -2 -2 -2h-2
q-3 0 -5 5t-2.5 11.5t-0.5 12.5v10zM121 142v18.5t1 21.5t2.5 21.5t5.5 17.5q1 2 3.5 3t5.5 2t5.5 1.5t3.5 1.5h39q6 0 9 -5.5t4.5 -13t2.5 -15t1 -10.5v-7v-12t-0.5 -14.5t-2 -14t-4 -10.5t-7.5 -5q-2 0 -4.5 -0.5t-6 -0.5t-6.5 -0.5t-6 -0.5q0 4 2 6t5 3t6.5 1.5t6.5 2.5
t5 5.5t2 10.5v2.5t-0.5 3t-1.5 2.5t-2 1h-1q-4 -3 -6.5 -5.5t-5 -4t-5.5 -2t-7 -0.5q0 5 4.5 8.5t10 6t10 7t4.5 12.5v3t-0.5 4.5t-1.5 4.5t-3 2q-3 0 -5.5 -1.5t-5 -3.5t-5.5 -3t-6 -1q0 5 3.5 7.5t7.5 5t7.5 5t3.5 7.5q0 4 -2.5 6t-6.5 3.5t-8 1.5h-7t-7.5 0.5t-9 -0.5
t-8 -3t-5.5 -7v-2q0 -5 3.5 -8t8 -5.5t8 -5.5t3.5 -7q0 -2 -2 -2h-4h-2l-2.5 2.5l-3.5 3.5t-4.5 4t-4.5 2l-1 1q-2 0 -2.5 -2.5t-1 -6t-0.5 -7v-4.5v-6q2 -1 6 -3.5t7.5 -5t6.5 -5.5l3 -3q0 -5 -4 -5h-1.5h-1.5q0 1 -1.5 2l-3 2l-3 2l-1.5 1q-1 0 -3.5 -0.5l-2.5 -0.5v-4.5
v-5t0.5 -5t2.5 -4.5q1 -1 4.5 -2t6.5 -2.5t5.5 -3t2.5 -3.5q-2 -2 -4 -2h-4q-5 0 -9.5 1.5t-7.5 4.5t-5 7t-2 9zM178 42q2 0 4 5.5t3 13t2 16.5t2.5 16.5t3 12.5t4.5 5t5 -3t2 -6v-1.5v-1.5q-6 -12 -8 -23.5t-2 -24.5v-2.5v-2.5q1 -2 3 -3t3.5 -1.5t3 -2t1.5 -4.5v-2t-1 -2
h-6q-2 0 -8.5 1t-14 2.5t-16 3.5t-15.5 4t-11.5 4t-3.5 5v15v9v5.5t0.5 5.5t0.5 9q1 1 1 2.5t0.5 3t1 2.5t2.5 1q3 0 4 -2t1 -5q0 -7 -1 -13.5t-1 -13.5v-3v-3v-4v-3q1 -5 4.5 -7.5t8.5 -2.5h4q0 3 0.5 8.5t1 11.5t1 11.5t0.5 7.5v3v5.5t0.5 5.5t1.5 2h6v-51q0 -6 4 -7.5
t8 -1.5zM55 95q0 1 0.5 2t2.5 1t4 -2l3 -3q2 -7 3 -12t1 -11q0 -3 -1 -9.5t-2.5 -12.5t-5 -10.5t-9.5 -4.5v0q-1 0 -2 1l-2 2v1v1q1 0 1.5 1.5t2 3t2.5 3l1 1.5q0 1 0.5 2t1.5 2q1 6 1 10.5v11.5q0 5 -1 10.5t-1 11.5zM103 89q0 2 0.5 4t2.5 2q4 0 6 -4t2.5 -9.5t1 -10.5
t0.5 -7q0 -3 -0.5 -9.5t-1.5 -13t-4 -12t-8 -5.5q-2 0 -2.5 2t-0.5 4q0 4 1.5 8t3 7.5t3 7.5t1.5 9q0 7 -2.5 14t-2.5 13z" />
</svg>
