<?xml version="1.0" standalone="no"?>
<!DOCTYPE svg PUBLIC "-//W3C//DTD SVG 1.1//EN" "http://www.w3.org/Graphics/SVG/1.1/DTD/svg11.dtd" >
<svg xmlns="http://www.w3.org/2000/svg" xmlns:xlink="http://www.w3.org/1999/xlink" version="1.1" viewBox="-10 0 266 256">
   <path fill="currentColor"
d="M171 217q0 8 2 12.5t7 8.5q2 1 4.5 3t5.5 4t6 3.5t5 1.5q3 0 5.5 -1t2.5 -4q0 -2 -4 -5t-9.5 -7t-10.5 -7t-6 -6v-1q0 -5 3 -9t7 -7.5t7 -7.5t3 -10q0 -5 -2 -8t-5.5 -4.5t-7.5 -2t-7 -2t-5.5 -3.5t-2.5 -7q0 -4 2.5 -5.5t6 -2t7.5 -1t7.5 -2.5t6 -6t2.5 -12v-8t-1.5 -7
t-4 -4.5t-7.5 -2.5h-4t-6 -0.5t-6 -0.5h-4v-8l1 -0.5t2 -1.5q3 0 7 -1t8 -1t8 -0.5t7 -0.5q1 -1 2.5 -4t1.5 -4v0v-1v-3t-0.5 -4t-0.5 -3.5v-2.5t-1.5 -1.5l-1.5 -0.5q-3 1 -3.5 4t-1.5 6t-2 5.5t-4 2.5h-18l-0.5 -1t-0.5 -2v-7v-6q9 -1 12.5 -2t4.5 -2.5t0.5 -5t2.5 -9.5
q2 -2 4.5 -2.5t5.5 -0.5t5.5 -1t2.5 -4q0 -4 -4 -4q-6 0 -12 0.5t-11 2.5h-9h-13h-13h-9h-2.5t-3.5 0.5t-4 0.5t-3 1q-1 0 -1 0.5v1.5v2.5t1 1.5h16l1.5 3t1.5 4q2 6 5 8t5.5 3.5t4 3.5t1.5 7q0 2 -1 4t-2 3h-6q-9 0 -12.5 -2.5t-4 -5.5t-1 -5.5t-4.5 -2.5q-1 0 -1.5 1
t-0.5 2.5v2.5v2q0 7 3 10t7.5 4.5t10 1t10.5 0.5q2 1 2 2.5v3.5v3q0 1 -2 2q-8 1 -14 2.5t-9 4t-4.5 7.5t-1.5 14q0 7 2 10t5.5 4.5t7.5 1.5t7.5 1t6 3t2.5 7t-1.5 7.5t-4 4.5l-5 4t-5.5 6q-6 8 -7.5 18t-1.5 20v3v4v4v2q0 4 1 5.5t3 1.5t3.5 -0.5t3.5 -1.5v-4v-4
q0 -1 -0.5 -4t-0.5 -7t-0.5 -7.5t-0.5 -4.5v-1q0 -6 2.5 -12t7 -10.5t10 -7t11.5 -2.5h4.5t5 1.5t4 3t1.5 4.5q0 4 -3 8t-6.5 7.5t-6.5 8t-3 9.5zM74 184q0 2 1 7.5t2.5 11t2.5 10.5t2 7q0 2 0.5 5t1.5 6t3 5.5t5 2.5q2 0 3.5 -1t1.5 -3q0 -3 -2 -7l-3 -6q-2 -8 -5 -17
t-4 -18q-2 -10 -2.5 -22t-0.5 -23v0q0 -1 0.5 -2.5t0.5 -3t0.5 -2.5t0.5 -2l0.5 -2l0.5 -2q2 -8 4.5 -17t4.5 -18t4 -18.5t1 -17.5q0 -16 -6.5 -26t-18.5 -20h-1q-1 0 -2.5 2.5t-1.5 3.5q0 2 2 4t4.5 4t4.5 4t2 3q5 6 5.5 15.5t0.5 16.5q0 8 -1.5 15t-3.5 14l-4 14t-3 14
q-2 8 -2 16.5v15.5q0 8 1 15.5t1 15.5zM49 143v48q0 3 0.5 9.5t2.5 13t4.5 11.5t6.5 5q2 0 3.5 -0.5t1.5 -3.5v-1q-3 -7 -5 -13t-3.5 -12t-2 -12.5t-0.5 -14.5q0 -14 1.5 -27.5t1.5 -27.5v-6l-2 -2l-1 -1h-0.5h-0.5q-3 0 -4 4.5t-1.5 10.5t-0.5 11.5t-1 7.5zM95 141
q0 3 0.5 10t1.5 15.5t2 17.5t2.5 16.5t4.5 12.5t6 5q1 0 4 -0.5t3 -3.5q0 -1 -1 -4.5t-2.5 -6.5l-3 -6l-2.5 -5q-3 -5 -4.5 -11.5t-2 -13t-0.5 -13v-12.5v-3v-6v-6v-4q1 -1 1.5 -4t0.5 -4v0q0 -3 -0.5 -4.5t-3.5 -1.5q-2 0 -3.5 4t-2 10t-0.5 11v7zM141 142q0 -1 -1.5 -2
l-1.5 -1v-0.5v-0.5v-0.5v-0.5l1.5 -0.5l1.5 -0.5q6 -1 10.5 -1.5t8.5 -0.5h8h9h10l1 1.5t2 1.5v0.5v0.5q0 2 -3 3.5t-6.5 2t-7 0t-4.5 -0.5h-7h-7t-6.5 -0.5t-7.5 -0.5zM138 124q0 -4 4 -6.5t7 -2.5h39q3 0 3 2.5v3.5v3.5t-3 1.5h-48q-1 0 -1.5 -0.5l-0.5 -0.5v-1zM58 91
q0 2 0.5 3t4.5 1t6 -4t2.5 -9.5t0.5 -10.5v-7q0 -3 -0.5 -7.5t-1.5 -8.5t-3.5 -7t-7.5 -3h-3.5t-2.5 2q0 3 2 5t3 4q2 6 3.5 14t1.5 14q0 3 -2.5 6.5t-2.5 7.5zM100 90q0 3 4 3q1 0 3 -2t3.5 -4.5t2.5 -5t1 -4.5v-34q0 -6 -2.5 -9.5t-8.5 -3.5q0 6 1 10t2.5 8.5t2 9
t-0.5 10.5l-1 2t-1.5 5t-1.5 6t-2 4q0 1 -0.5 2t-1.5 1v2zM151 53v-1l0.5 -0.5l0.5 -0.5q1 0 4.5 -0.5t7.5 -0.5t7 -0.5t5 -0.5h6q0 8 -4 11.5t-12 3.5h-7q-2 0 -4 -1t-3 -3.5t-1 -6.5zM140 28q0 2 2 3t3 1q7 0 12.5 -0.5l11 -1t11.5 -0.5h13q3 2 4 -0.5t1 -3.5
q0 -2 -0.5 -3.5t-3.5 -1.5h-6.5t-11 0.5l-13 1t-12 1t-8.5 1.5t-3 3z" />
</svg>
