<?xml version="1.0" standalone="no"?>
<!DOCTYPE svg PUBLIC "-//W3C//DTD SVG 1.1//EN" "http://www.w3.org/Graphics/SVG/1.1/DTD/svg11.dtd" >
<svg xmlns="http://www.w3.org/2000/svg" xmlns:xlink="http://www.w3.org/1999/xlink" version="1.1" viewBox="-10 0 266 256">
   <path fill="currentColor"
d="M118 245q0 3 0.5 4.5t3.5 1.5q2 0 3 -0.5t2 -2.5v-13.5v-20.5v-25v-24v-21.5v-13.5q0 -1 0.5 -5.5t0.5 -9.5t0.5 -9.5t0.5 -6.5q1 -6 2.5 -14t5.5 -13q5 -6 12 -8.5t14.5 -3l15 -1t13.5 -2.5t10 -7t4 -14q0 -6 -2 -9.5t-5 -5.5t-7.5 -3t-10.5 -1q-12 0 -26 1.5t-26 3.5
q-2 0 -2.5 0.5t-0.5 2.5v1.5t1 1.5h10q11 0 21 -1t21 -1h3h4h4h3q3 3 4 5.5t1 5.5q0 7 -4.5 10t-11 4t-15 1.5t-16 2.5t-13.5 5.5t-9 11.5q-5 14 -7 28.5t-2.5 29t-0.5 29.5t-1 30v0v1q1 1 1.5 3t0.5 3v4v5v6v3q0 8 -1 15.5t-1 15.5zM198 242l1 1.5t2 1.5h1q1 0 2 -1.5
t2 -3.5v-3t0.5 -4t0.5 -4v-3v-5v-9v-10v-9v-8v-9v-9v-4t-0.5 -6.5t-1 -12l-1 -13t-0.5 -10.5q0 -6 -2.5 -9.5t-5.5 -5t-7.5 -2t-9.5 -0.5q-1 -1 -1.5 -2l-0.5 -1v-4t0.5 -6t1.5 -5t3 -2h29q0 -6 -3 -7.5t-8 -1.5h-8.5t-12.5 0.5l-14 1t-12.5 1t-9 2t-3.5 2.5v1q0 1 0.5 1.5
t1.5 0.5h26l1 1t1 2v3v5v3v5q-2 2 -4.5 3t-5.5 1.5l-6 1t-5.5 4t-4.5 9.5t-2 17q0 1 -0.5 6.5t-0.5 11.5t-0.5 11t-0.5 7v4v7.5v9.5v7v6v8.5v8.5v5v2q0 2 0.5 3.5t1.5 3t2 1.5t2 -1.5t1.5 -2.5t1.5 -2.5l1 -1.5q0 -1 -1 -3.5l-1 -2.5q0 -2 -0.5 -5.5t-0.5 -6.5t-0.5 -6
t-0.5 -4q0 -2 0.5 -6.5t0.5 -9t0.5 -8.5t0.5 -6q1 -2 3 -2.5t4 -0.5t4 -0.5t2 -2.5v-1.5v-0.5h-2.5t-3.5 -0.5t-3.5 -1l-1.5 -0.5q-2 0 -2 -2v-3q0 -9 2.5 -12.5t5.5 -5t5.5 -1.5t2.5 -2q0 -3 -3 -3h-4.5t-5 -2.5t-2.5 -9.5q0 -6 5 -8.5t10 -2.5q1 0 3.5 0.5t2.5 3.5v67
q-4 14 -4 29v30h3t2 -1q1 0 2 -0.5l1 -0.5l2 -16v-85v-5.5t0.5 -9t0.5 -8v-5.5q1 -1 3.5 -1.5t3.5 -0.5h0.5h1.5q3 0 5.5 2t4 4.5t2 5.5t0.5 6t-2 4.5t-5 2t-5.5 1t-3.5 3.5l2 1h14v1.5t0.5 4t0.5 5v3.5v3v2t-1 2h-2.5t-3.5 0.5t-4 0.5h-3t-3 1.5t-2 2.5v1l1.5 1.5l0.5 0.5
h16l1 2t1 5t0.5 5.5t0.5 3.5v1q-1 5 -2 9.5t-1 9.5v1v2t0.5 2t0.5 2.5v1.5v2t-0.5 3.5t-0.5 3.5v2v8v8zM74 201q2 3 3.5 9.5t3.5 13.5t5 12.5t6 5.5q5 0 5 -4v-2l-1 -1l-0.5 -1l-1 -2l-1 -2l-0.5 -1q-2 -7 -5 -16t-5.5 -17.5t-3.5 -17.5t-1 -17q0 -15 2.5 -29t5.5 -28
q1 -7 2.5 -12.5t3 -11.5t2.5 -12t1 -13q0 -4 -1 -11.5t-3.5 -15t-6 -13.5t-8.5 -6q-3 0 -4 0.5t-1 3.5q0 5 3 7.5t5 5.5q4 8 6 17.5t2 18.5q0 10 -2.5 21t-6.5 21l-0.5 1l-1 2t-1.5 2l-1 1q-2 11 -3 23.5t-1 23.5v2q0 2 0.5 8t1.5 12.5t1.5 12.5t0.5 9zM46 174v6.5v11
t0.5 14t2 13.5t4 9.5t6.5 3.5q2 0 2.5 -1t0.5 -2q0 -7 -1.5 -15t-4.5 -14v-45q0 -1 1 -7t2 -12.5t2 -12.5t1 -8t-1.5 -3t-3.5 -1q-3 0 -4 4l-0.5 2t-0.5 4t-0.5 3.5t-0.5 2.5t-0.5 2.5t-1 4t-1 4t-0.5 2.5q-1 8 -1.5 16.5t-0.5 17.5zM93 152q0 2 0.5 7t1 12.5t1.5 16
t2.5 15.5t3.5 11t5 4t3.5 -1.5t0.5 -3.5q0 -1 -0.5 -2.5l-0.5 -1.5q0 -1 -1 -4t-2 -7t-2 -7.5l-1 -3.5q-1 -6 -2 -14t-1 -15q0 -11 1.5 -22t1.5 -22v-3t-2 -1h-1v0q-1 0 -2 1t-1 2q-2 9 -3.5 19.5t-1.5 19.5zM56 94q0 2 1 2.5t3 0.5q4 0 6 -3.5t3 -8t1 -8.5v-7q0 -13 -4 -23
t-13 -17h-0.5h-0.5h-0.5h-0.5q-1 0 -2 0.5l-1 0.5v8q5 3 7.5 6.5t3.5 7.5t1 9v10q0 3 -0.5 6.5t-1.5 6t-1.5 4.5t-0.5 5zM109 59q0 6 -1 12.5t-2 11.5q0 1 -1.5 2.5l-2.5 2.5v3.5v3.5q6 0 9 -4t4 -9.5t1.5 -11.5t0.5 -9t0.5 -8.5t-0.5 -11t-3 -9.5t-7 -4q-1 0 -3 0.5t-2 2.5
q1 1 2 4l2 6l2 6t1 5v3v4z" />
</svg>
