<?xml version="1.0" standalone="no"?>
<!DOCTYPE svg PUBLIC "-//W3C//DTD SVG 1.1//EN" "http://www.w3.org/Graphics/SVG/1.1/DTD/svg11.dtd" >
<svg xmlns="http://www.w3.org/2000/svg" xmlns:xlink="http://www.w3.org/1999/xlink" version="1.1" viewBox="-10 0 266 256">
   <path fill="currentColor"
d="M128 244q0 2 0.5 4.5t3.5 2.5t5 -3.5t3 -5.5q0 -2 -0.5 -5.5t-0.5 -7.5t0.5 -7.5t0.5 -5.5v-9t1 -12.5t2 -12t3 -6.5q0 -1 3 -2.5t3 -2.5q3 -2 4.5 -5t2 -6.5t0.5 -7.5v-8q-5 0 -6.5 3t-1.5 6q0 4 -0.5 6.5t-6.5 2.5v-23q0 -1 1.5 -2t1.5 -2q4 -1 8 -1.5t8 -0.5
q5 0 9 0.5t7 0.5h0.5h1.5q0 1 0.5 4.5t0.5 4.5v3v2v3t-0.5 4t-0.5 4v3q-1 0 -1.5 0.5l-0.5 0.5h-1q-3 0 -3.5 -2.5t-1 -6.5t-1 -7t-2.5 -3q-3 0 -3.5 3t-0.5 5q0 7 1 11.5t3 6.5t4 3t3.5 1.5l3 1t1.5 3.5v16.5t0.5 17.5t1 17.5t1.5 15.5q1 2 2 2h2q3 0 5 -2.5t2 -4.5
q0 -8 -1 -16t-2 -15.5t-2 -15.5t-1 -15q0 -3 1.5 -4t3.5 -2t4.5 -1.5t4.5 -2.5t3.5 -5.5t1.5 -10.5v-3.5v-2.5q-1 -4 -4 -5t-6 -1v21h-8q-1 -7 -1 -12.5v-11.5q0 -5 2 -8t4.5 -5.5t4.5 -6t2 -9.5q0 -3 -0.5 -7.5t-1.5 -8.5t-3 -7t-7 -5h-2.5h-4.5h-5h-2h-16t-17 2t-13.5 7
t-5.5 14q0 5 1 10.5t3 10.5q0 1 1.5 2.5t2.5 3l2 3t1 3.5v2v5t-0.5 8.5t-0.5 8.5v6l-0.5 0.5t-1.5 0.5q-5 0 -6 -3.5t-1.5 -8t-1.5 -8.5t-5 -4q-3 0 -3 5q0 10 2.5 16.5t11.5 10.5q1 0 2 0.5t1 1.5v4.5v4.5q0 15 -2.5 29t-2.5 28zM72 149v5v6v5.5v2.5q0 1 0.5 6t1.5 11l2 12
t2 10q1 2 2 8.5t2.5 13t4 11.5t4.5 5q1 0 2.5 -0.5t1.5 -1.5v-3v-2q0 -11 -3 -20t-6 -19q-3 -11 -4.5 -24t-1.5 -25q0 -14 2 -27t4.5 -26t5 -25.5t2.5 -26.5v-2v-3v-3.5v-2.5q-2 -2 -3.5 -6.5t-4 -8.5t-5.5 -7t-8 -3q-3 0 -3 4v0.5v0.5l1 1.5l2 3l2 3l1 1.5q4 7 6.5 14
t2.5 15q0 1 -0.5 3t-0.5 3t-1 5.5t-2 9.5l-2 10t-1 6q-3 15 -4.5 29.5t-1.5 30.5zM48 179q0 1 0.5 2.5t1 3.5l1 4t0.5 2.5t0.5 3t1.5 5.5t1 5.5t1 2.5q0 3 1 7t2.5 8t3.5 6.5t4 2.5q4 0 5 -2.5t1 -5.5q0 -5 -2 -9.5t-4 -8.5q-1 -2 -2 -7.5t-2 -11.5t-2 -11.5t-1 -7.5v-19
v-23l0.5 -1.5t0.5 -3t0.5 -3.5t0.5 -3l0.5 -2.5t0.5 -3.5q0 -3 -1 -4t-3 -1q-3 0 -5 2.5t-2.5 6t-1 6.5t-1.5 6v54zM94 150q0 17 3 33.5t9 32.5q2 3 2.5 5t2.5 2q3 0 5 -2t2 -5t-1.5 -7t-3.5 -8l-4 -8t-3 -8q0 -2 -0.5 -6l-1 -8t-1 -7.5t-0.5 -4.5v-2v-4.5v-4.5v-4
q0 -10 1 -19t1 -19q0 -2 -1 -2.5t-4 -0.5h-3q-1 4 -2 10.5t-1 12.5v13v11zM136 118v-3t2 -3q5 -1 11.5 -1.5t13.5 -1t13.5 -0.5h12.5q2 0 3 1.5t1 4.5q0 5 -4.5 8t-9.5 3h-38q-4 0 -4.5 -3t-0.5 -5zM136 101q0 -6 5.5 -8.5t13 -3.5t15 -0.5t9.5 0.5q7 0 9.5 1t2.5 8v3
q-11 2 -23 2.5t-23 0.5h-6t-3 -3zM99 76q0 1 1 1.5t3 0.5q3 0 5.5 -3t4 -7t1.5 -8v-7v-11.5t-1.5 -12t-5.5 -9.5t-11 -4q0 4 1.5 8.5t3.5 9t3 9t1 8.5q0 1 -0.5 3t-1 4.5l-1 5t-0.5 3.5l-0.5 1t-1 2.5l-1 3l-0.5 1.5v1zM50 27q0 3 1 6.5t2 5.5q1 5 1.5 9.5t0.5 9v8.5v11
q5 0 7 -1t4 -6v-3v-3.5v-4.5v-2v-7.5t-1.5 -11.5t-4 -10.5t-6.5 -4.5h-1l-2 2t-1 2v0zM119 29v1l0.5 2l1 4l1 4l0.5 2l0.5 1.5t0.5 3t0.5 3l0.5 1.5q1 3 3.5 4.5t5 2.5t4.5 2.5l2 1.5v13l1 0.5l1 0.5h1h1q2 -3 2.5 -6t1 -5t2 -4t6.5 -3q1 -1 2 -1.5l1 -0.5q4 -4 5.5 -11.5
t1.5 -11.5q0 -2 -2.5 -4.5t-4.5 -2.5q-4 0 -4.5 4t0 8.5t0 8t-4.5 3.5h-1h-1q0 -1 -0.5 -4t-0.5 -4v-5v-8v-8v-6t-1.5 -2.5t-2.5 -0.5t-2.5 0.5t-1.5 1.5v34l-0.5 1t-1.5 1v0v0h-1v0q-3 -2 -4.5 -5t-2 -6t0 -6.5t0.5 -5.5q-2 -2 -3 -2h-2q-2 0 -3.5 1t-1.5 3zM168 32
q0 2 0.5 6l1 8t2.5 7.5t4 4.5q1 0 3.5 0.5t2.5 2.5q1 1 1 4v5t0.5 4.5t2.5 1.5h1l1 -0.5t2 -0.5q1 -6 1 -8.5t1 -4t3 -2.5t6 -4q3 -2 4.5 -4.5t2.5 -6t1 -6.5v-6v-4v-4q-2 -3 -5 -3h-1.5t-1.5 1v4t-0.5 6t-0.5 5.5t-1 3.5q0 3 -0.5 4t-2.5 1t-2.5 -1.5t-0.5 -4v-4.5v-3v-4
t-0.5 -6.5t-1 -6.5t-0.5 -5q1 -2 0 -2.5t-2 -0.5q-2 0 -3 1.5t-1.5 3t-0.5 3.5v3q0 7 0.5 13t0.5 14q-1 3 -5 3q-3 0 -3.5 -3.5t-0.5 -7.5t-0.5 -7.5t-4.5 -3.5q-2 0 -2.5 1t-0.5 3z" />
</svg>
