<?xml version="1.0" standalone="no"?>
<!DOCTYPE svg PUBLIC "-//W3C//DTD SVG 1.1//EN" "http://www.w3.org/Graphics/SVG/1.1/DTD/svg11.dtd" >
<svg xmlns="http://www.w3.org/2000/svg" xmlns:xlink="http://www.w3.org/1999/xlink" version="1.1" viewBox="-10 0 266 256">
   <path fill="currentColor"
d="M76 248q1 1 5 1.5t5 0.5h1q2 0 2.5 -1t0.5 -2v-1.5v-0.5q-9 -16 -14 -32t-5 -34q0 -20 2.5 -39t6.5 -38q2 -11 5 -20t3 -21q0 -3 -1.5 -10.5t-4 -15t-6 -13t-7.5 -5.5q-2 0 -3.5 0.5t-1.5 3.5q0 1 1.5 3.5t2.5 4.5t2.5 4t2.5 3q4 6 5.5 13.5t1.5 15.5q0 7 -1.5 13
t-3.5 12.5t-4 12.5t-3 13q-1 3 -1.5 9t-1.5 12t-1.5 10.5t-0.5 5.5t-0.5 3.5t-0.5 6.5v7v6q0 10 1 19t3 18t4.5 17.5t5.5 17.5zM106 237q0 2 0.5 3.5t2.5 1.5q3 0 5 -2.5t3 -4.5q0 -3 1 -9t1.5 -13.5t1.5 -15.5t2 -15.5t1.5 -13t0.5 -8.5v-4v-7v-7v-4q1 -12 3 -23.5t2 -24.5
q1 0 1.5 -0.5t0.5 -1.5q1 0 3.5 -1t3.5 -2q8 -5 12.5 -11t5.5 -16q1 -4 1 -7t1 -5t3 -3t6 -1h4q2 0 2 2q-1 8 0 15t4.5 13t9 9.5t13.5 3.5v7.5v12v11.5v8t-0.5 5.5t-0.5 4.5v58q0 2 0.5 6.5t1 10t1.5 11.5t2.5 10.5t3 8t3.5 3.5q3 0 3 -1.5v-3.5q0 -9 -1.5 -19.5t-5.5 -20.5
v-71q2 -3 2.5 -9t1 -12.5t0.5 -12.5v-10v-16t-2 -15l-2 -2q-4 -5 -8.5 -7.5t-9 -3.5t-8.5 -1.5t-6 -2.5q-1 -2 -1 -5v-8q0 -5 -1.5 -8t-5.5 -3v0q-2 1 -3.5 1.5l-1.5 0.5v22l-4 4h-18q-1 0 -2.5 2t-3.5 4l-3 3q-1 3 -3.5 5.5t-3.5 5.5v5t-0.5 8.5t-0.5 8.5v5t-1 3l-1 2
q-3 35 -5 68.5t-7 67.5q0 3 -2 5.5t-2 5.5zM39 187v20q0 2 0.5 7t1.5 10.5t3 9.5t4 4t3.5 -2.5t1.5 -3.5q0 -5 -1 -10l-2 -10l-2 -10t-1 -10q0 -7 0.5 -14l1 -14t1 -14.5t1.5 -16.5q0 -4 2 -8t2 -8q0 -2 -2 -3.5t-4 -1.5q-3 0 -5 4q0 2 -0.5 8.5t-1 13.5t-1 13.5t-0.5 8.5
q0 1 -1 3.5t-1 3.5v20zM86 158q0 2 0.5 7.5t1 11.5t1 11.5t1.5 7.5q0 3 0.5 7.5t2 8t4 6t7.5 2.5v-4t-0.5 -1.5t-1.5 -1t-2 -4.5q-3 -6 -4 -15t-1 -17q0 -16 2.5 -32.5t2.5 -33.5h-1.5t-3 0.5t-2 1.5t-0.5 3q0 1 -0.5 5t-1 8.5t-1 8t-0.5 5.5q-1 3 -1.5 7.5t-2.5 7.5z
M130 210v1v0l2 2t2 1h9h10h7.5t11.5 -0.5t11.5 -0.5h7.5q2 -1 2 -1.5v-2.5v-0.5v-1.5q-7 -1 -15 -1.5t-14 0.5l-1 -2l-0.5 -3.5t-0.5 -5.5v-4q0 -2 0.5 -4.5t0.5 -3.5v-2q0 -2 0.5 -4.5t2.5 -3.5q1 1 3.5 1h4.5h5.5t3.5 -1q1 0 3 -1t2 -2v-1q0 -1 -0.5 -1.5t-1.5 -0.5
q-5 1 -10 0.5t-10 -2.5q-1 0 -1.5 -0.5t-0.5 -1.5v-20q0 -4 4.5 -5t9.5 -0.5t9 0t4 -4.5q0 -2 -0.5 -3t-2.5 -1h-19l-1 -1l-0.5 -2t-1 -4.5t-0.5 -5v-4.5v-2q0 -4 3 -5.5t7 -2t7 -1t3 -3.5v-1l-0.5 -1l-0.5 -1h-14q-3 0 -3.5 -2.5t0 -5.5t0 -6t-4.5 -3q-3 0 -3.5 3t-0.5 7
t-0.5 7t-2.5 3h-18l0.5 2.5t2.5 2.5h13q1 0 2 2.5t1 3.5l0.5 0.5l0.5 0.5q0 1 -0.5 1.5l-0.5 0.5v4.5t-0.5 5t-0.5 4.5v2l-2 2h-18l-2 3q0 1 2.5 3t4.5 2l1.5 -0.5t3 -0.5t3 -0.5t2.5 -0.5h2l1.5 0.5t1.5 1.5v27l-1.5 0.5t-1.5 1.5q-1 0 -3.5 0.5t-5.5 0.5t-5.5 0.5
l-2.5 0.5q-1 0 -1.5 0.5l-0.5 0.5v0.5v0.5v0.5v0.5l0.5 1t1.5 1h18q1 0 1.5 2.5t0.5 4.5q0 5 -1 12.5t-2 12.5q-1 0 -2 0.5t-2 0.5t-3.5 0.5t-5.5 0.5q-2 0 -4.5 -0.5t-3.5 -0.5q0 1 -1 1.5l-1 0.5v1zM51 72l-1 2l-2 4t-1.5 4.5l-0.5 2.5q0 1 -0.5 3.5l-0.5 2.5q5 0 8 -2
t4.5 -6t2.5 -8.5t1 -7.5q0 -5 -1.5 -12t-3.5 -11l-2 -2l-2.5 -2.5l-2.5 -2.5l-1 -1h-5q0 4 1.5 7.5t4.5 5.5q0 2 0.5 5t0.5 6.5t0.5 6.5t0.5 5zM103 56q0 7 -1.5 12.5t-1.5 12.5v3v3q4 -2 6.5 -5.5t3.5 -7.5t1.5 -8.5t0.5 -8.5q0 -3 -0.5 -7.5t-1.5 -8t-4 -6t-7 -2.5
q0 4 0.5 7t1.5 5t1.5 5t0.5 6zM183 46h13q2 0 3 2t1.5 4t0.5 4v2q0 1 0.5 4t0.5 6.5v6.5v4q-6 0 -10 -3.5t-6 -8.5t-2.5 -10.5t-0.5 -10.5zM132 68q0 -3 0.5 -7t2 -7.5t4.5 -5.5t7 -2t4.5 3t0.5 5q0 3 -0.5 7t-2.5 7.5t-4.5 6t-7.5 2.5q-3 0 -3.5 -3t-0.5 -6z" />
</svg>
