<?xml version="1.0" standalone="no"?>
<!DOCTYPE svg PUBLIC "-//W3C//DTD SVG 1.1//EN" "http://www.w3.org/Graphics/SVG/1.1/DTD/svg11.dtd" >
<svg xmlns="http://www.w3.org/2000/svg" xmlns:xlink="http://www.w3.org/1999/xlink" version="1.1" viewBox="-10 0 266 256">
   <path fill="currentColor"
d="M64 245v2q0 2 1 2q0 1 0.5 1.5l0.5 0.5q3 0 4.5 -3.5t3 -8t2.5 -10.5t1.5 -11.5t0.5 -9.5v-6q0 -1 0.5 -5t0.5 -9.5t0.5 -10.5t0.5 -8v-5q0 -4 -0.5 -7t-0.5 -5.5t-0.5 -6t-0.5 -8.5l1 -2t2 -2l89 -5q1 0 3.5 -0.5t2.5 -2.5q-1 -2 -2.5 -2.5t-3.5 -0.5q-26 0 -52 2t-52 1
l-1.5 0.5t-1.5 1.5v0v1l1.5 1.5t3 4.5t3 6.5t1.5 7.5q0 22 -1 44t-5 44q-1 2 -1.5 4t-0.5 5zM99 192q-1 0 -2.5 0.5l-1.5 0.5v40v3.5t1 5t2.5 4.5t3.5 2q1 0 2 -0.5t1 -1.5v-1.5v-1.5q0 -6 -2 -11t-2 -11v-28l-0.5 -0.5t-1.5 -0.5zM155 206q0 3 1.5 9.5t4 13.5t6 12t6.5 4
q2 -1 2.5 -2t0.5 -3v-1v0q-7 -10 -10.5 -20.5t-4.5 -22.5h-2h-2t-2 2v4v4zM123 213q0 3 0.5 7.5t1.5 9.5t2.5 8.5t5.5 3.5q5 0 5 -6q0 -1 -0.5 -2l-0.5 -1q-1 -1 -1.5 -3.5t-1 -4t-1.5 -3l-1 -1.5v-3.5t-0.5 -6l-1 -7t-1.5 -5.5v-1q0 -5 1.5 -9t3.5 -8.5t3 -8.5t1 -9
q0 -3 -0.5 -7.5t-2.5 -8.5t-4.5 -7t-6.5 -3q0 8 5 15q0 1 0.5 2.5t0.5 3.5v3v2q0 7 -1.5 12.5t-2.5 11.5l-2 12t-1 14zM158 166q0 5 -1.5 10.5t-1.5 10.5q4 0 6.5 -2t3.5 -5.5t1 -7v-7.5q0 -1 -1 -5.5t-2.5 -9t-4 -8t-4.5 -3.5h-2t-1 1q0 3 1 6t2.5 6t2.5 6.5t1 7.5zM99 181
v1.5t2 1.5t4 -2t3.5 -5t2 -6t0.5 -4v-6.5t-1.5 -9t-3.5 -8.5t-6 -4h-1l-1 3q0 1 1 3t2 4.5t2 5.5t1 4q0 6 -2.5 11t-2.5 11zM168 102q2 0 5.5 6t7.5 12.5t7 12t5 5.5q1 0 2.5 -0.5t1.5 -3.5q0 -5 -2.5 -9.5t-5.5 -8.5t-6.5 -8.5t-4.5 -9.5q0 -1 1 -3t2 -4.5t2 -4.5t1 -3v-2
v-3q0 -9 -2 -14t-5.5 -7t-7 -3t-7 -1.5t-5.5 -1.5t-2 -4q0 -2 1 -5.5t5 -3.5h26q1 0 2.5 -1.5t1.5 -2.5v-1l-0.5 -1l-0.5 -1h-27q-3 0 -4 -2t-2 -4.5t-2 -4.5t-4 -2q-1 0 -2.5 0.5t-1.5 2.5q0 1 0.5 4.5t0.5 7.5t-0.5 7.5t-0.5 4.5t-0.5 3.5l-0.5 2.5q-1 2 -3.5 2h-5.5
q-2 0 -4 0.5t-2 3.5v0l6 3h30q3 0 5 1t2.5 2.5t0.5 3.5v5v8q0 2 -0.5 5.5t-1.5 3.5h-6l-12 -12l-3 -0.5t-5 -1.5h-2q-1 0 -3 0.5l-4 1t-4 1.5t-2 3v1l2 1h7t9.5 1t8.5 3.5t4 6.5t-5 6t-11 3t-11 2t-5 3t2 2h3q5 0 9.5 -1t8.5 -2.5t7.5 -3t6.5 -1.5zM83 87h1l4 2v31
q1 0 3 -0.5t2 -1.5q0 -2 0.5 -5.5t0.5 -7t0.5 -7t0.5 -4.5t-0.5 -3t-0.5 -3q1 0 3.5 -0.5t3.5 -0.5q3 1 5 4.5t4 7.5t3 8t1 6h2q2 0 3 -2t1 -4q0 -8 -4 -13t-8.5 -8.5t-9 -6t-4.5 -5.5l0.5 -1.5l0.5 -1.5q4 -1 7.5 -2t6 -2.5t4 -4t1.5 -7.5v-4t-3 -3q-2 2 -3 4t-1.5 4.5
t-2 4t-5.5 1.5t-4.5 -1.5t-0.5 -4.5q0 -6 3.5 -8t7 -3.5t6.5 -5t3 -11.5v-4v-3l-1 -1.5t-1.5 -1.5t-1.5 0.5t-2 1.5v3.5t-1.5 6t-3 6t-4.5 2.5q-1 0 -2.5 -1t-1.5 -2v-22q0 -1 -2 -2t-3 -1h-1l-2 8v1v1l0.5 2.5t0.5 5t0.5 4.5t0.5 3t-0.5 2.5t-1.5 1.5h-10q0 -1 -0.5 -3.5
t-1.5 -5t-2.5 -4.5t-3.5 -2q-3 0 -3 4q0 11 5.5 15t15.5 5v15h-10q-3 0 -3.5 -2t-1.5 -4t-1.5 -4t-3.5 -2q-2 0 -4 3q2 6 3.5 9.5t3.5 5t6 2t11 0.5v6q-5 2 -10.5 5.5t-9.5 8t-6.5 10.5t-2.5 12q0 2 1 3.5t3 1.5q4 0 5.5 -5t3 -10.5t4 -10.5t8.5 -5z" />
</svg>
