<?xml version="1.0" standalone="no"?>
<!DOCTYPE svg PUBLIC "-//W3C//DTD SVG 1.1//EN" "http://www.w3.org/Graphics/SVG/1.1/DTD/svg11.dtd" >
<svg xmlns="http://www.w3.org/2000/svg" xmlns:xlink="http://www.w3.org/1999/xlink" version="1.1" viewBox="-10 0 266 256">
   <path fill="currentColor"
d="M155 239v4t0.5 4t1.5 3t4 1t5.5 -3t2.5 -6q0 -8 -1 -16t-1 -17v-3t0.5 -4t0.5 -4v-2l1 -2h40q1 0 1 -1.5v-2.5q0 -2 -1 -3.5t-4 -1.5h-5.5t-9 0.5t-8.5 0.5h-6h-2q-3 0 -4.5 -2.5t-1.5 -5.5q0 -2 1.5 -4t3.5 -4q9 -1 14.5 -3.5t7.5 -7.5t2 -11.5v-15.5v-2v-5.5v-4.5v-3
q-1 -1 -2.5 -2t-3.5 -1h-1.5h-0.5q-1 1 -1.5 2.5t-1.5 3l-2 3t-3 1.5q-7 0 -10 -2t-3 -9q0 -4 4 -6t9.5 -3t12 -1.5t10.5 -3.5q1 -6 2 -11.5t1 -11.5q0 -2 -1 -5.5t-4 -3.5h-2t-1 2q-2 9 -2.5 14.5t-2.5 8.5t-7.5 4t-15.5 1v-14l0.5 -0.5t1 -0.5t2 -0.5l3 -1l3 -1t2.5 -1.5
t2 -5t1.5 -8.5t1 -8t3.5 -3.5h21q1 0 1 -2v-2q0 -3 -1 -4t-3 -1q-9 0 -19 0.5t-20 1.5t-20.5 1.5t-18.5 2.5h-3.5t-3 0.5t-2.5 1.5t-1 2v2t2 1h21l1 2q0 10 3 14.5t6 7t5.5 3.5t2.5 5t-2.5 7t-6.5 3q-7 0 -11.5 -1.5t-6.5 -4.5t-3 -8t-1 -11q-1 -1 -2 -1.5t-2 -0.5h-2h-1v5
v7.5t1 7.5t2 6q2 3 5 4.5t7 2t7.5 1t6.5 1t5 2.5t2 5q0 1 -0.5 2.5l-1 3t-1.5 2.5t-2 1h-17q-2 -3 -3.5 -4.5t-4.5 -1.5q-2 0 -3 0.5t-1 2.5v2v7t0.5 10.5t0.5 10.5v7q2 5 4 8.5t7 4.5q2 0 4 0.5t4.5 0.5t5 0.5t3.5 0.5q1 2 1.5 4t0.5 4q0 3 -1.5 5.5t-5.5 2.5h-29
q-2 0 -2.5 2t-0.5 3v1q3 2 6 2h6q7 0 13.5 -0.5t12.5 -0.5q0 11 -0.5 22t-0.5 22zM75 202q2 2 3.5 7.5t3.5 11.5t4 10.5t4 4.5q3 0 4 -0.5t1 -3.5q0 -7 -2.5 -13.5t-4.5 -12.5q-4 -15 -6 -28t-2 -27q0 -15 2 -29t5 -29q0 -4 1 -7.5t1.5 -7t1.5 -7.5t1 -8t-0.5 -12.5
t-2.5 -17t-6 -15t-12 -6.5q-3 0 -3.5 1.5t-0.5 4.5q0 2 2.5 5.5t5 8l5 9t2.5 9.5q0 12 -2 24.5t-4 24.5l-4 24t-2 24v1q1 0 1.5 1t0.5 2q-1 12 0 25.5t3 25.5zM46 166v1q0 3 0.5 7t0.5 8t0.5 7.5l0.5 3.5q0 5 1 11t3 11t6 8.5t10 3.5q0 -8 -2.5 -14t-4.5 -14
q-3 -9 -3.5 -18.5t-0.5 -19.5q0 -5 1 -11t2.5 -11.5t2.5 -11t1 -9.5q0 -2 -0.5 -3.5t-2.5 -2.5q-4 -1 -6.5 4t-4 12t-2 13t-0.5 8q0 1 -0.5 3.5t-0.5 5t-0.5 5l-0.5 2.5v1zM100 114q-3 0 -4 2t-1 4v62l1 2.5t2 6.5t2.5 8t2.5 7q1 4 2 6.5t6 2.5h4.5t2.5 -3q0 -2 -1 -3t-3 -2
q-5 -13 -9 -27t-4 -29q0 -7 1 -14.5t1 -14.5v-3.5v-2.5q-1 -2 -1.5 -2h-1.5zM137 157q0 -3 0.5 -4t2.5 -2q6 -1 10 -1t7.5 -0.5t6.5 -0.5h9h8q2 1 2.5 2t0.5 3q0 4 -3 5.5t-6.5 2.5t-7.5 1.5t-6 0.5h-7t-7.5 -0.5t-6.5 -2t-3 -4.5zM135 137v-2.5t2 -2.5q6 -1 14 -2.5
t14 -1.5h6h7.5t6 1t2.5 4t-1 5.5t-3 4.5h-8t-11 0.5t-11.5 0.5h-7.5h-3q-7 0 -7 -7zM98 95v1.5t2 1.5q5 -3 8 -8.5t4.5 -11t1.5 -12v-12.5q0 -3 -0.5 -8.5t-1.5 -11t-4 -9.5t-7 -4q0 10 2 19.5t2 18.5q0 5 -1 9.5t-2.5 9t-2.5 8.5t-1 9zM49 93l1.5 1.5l1.5 1.5h1q5 0 8 -4.5
t4.5 -10.5t1.5 -12v-9v-7t-1 -8t-3.5 -7t-6.5 -3q-2 0 -3.5 0.5t-1.5 3.5q0 7 2.5 14.5t2.5 15.5q0 3 -1 6.5t-2.5 7t-2.5 6t-1 4.5zM153 64v-3v-2l4 -3l16 -2l3 2v4q0 9 -3.5 12t-13.5 3q-3 0 -4 -1t-1.5 -3t-0.5 -4v-3zM132 27l0.5 1.5t1.5 1.5h7q15 0 29.5 -1t29.5 0
q2 -1 2 -3v-2q0 -7 -6 -7q-1 0 -2 0.5t-2.5 0.5t-3 0.5l-1.5 0.5q-1 0 -2.5 0.5t-3.5 0.5t-3.5 0.5l-1.5 0.5h-7t-10.5 0.5t-11 0.5h-7.5q-1 0 -4 1.5t-4 3.5z" />
</svg>
