<?xml version="1.0" standalone="no"?>
<!DOCTYPE svg PUBLIC "-//W3C//DTD SVG 1.1//EN" "http://www.w3.org/Graphics/SVG/1.1/DTD/svg11.dtd" >
<svg xmlns="http://www.w3.org/2000/svg" xmlns:xlink="http://www.w3.org/1999/xlink" version="1.1" viewBox="-10 0 266 256">
   <path fill="currentColor"
d="M65 123q0 3 0.5 14t2 25t3 29.5t4.5 28.5t6 21.5t7 8.5q2 0 4 -1.5t2 -3.5q0 -4 -1 -7.5t-3 -7.5t-3.5 -8t-2.5 -7q-4 -21 -6 -40.5t-2 -40.5v-6v-10v-9.5v-6.5q1 -3 1.5 -8t2 -11t2.5 -11t2 -7v-12q0 -4 1 -11t0 -14t-3.5 -12t-9.5 -5q-2 0 -3 1t-1 3q0 4 1.5 7.5t3 8
t2.5 9.5t1 10v4q0 3 -1.5 9.5t-2.5 14t-2 14t-2 8.5q-1 6 -2 11.5t-1 11.5zM171 244q0 3 1 3.5t4 0.5q4 0 5 -3.5t1 -6.5v-39.5t-2 -39.5q0 -12 -1.5 -24.5t-1.5 -24.5q0 -9 0.5 -17t1.5 -17q3 -3 7.5 -4t9.5 -1t9.5 -1t7.5 -6q0 -1 0.5 -4l1 -6t1 -5.5t0.5 -4.5
q0 -1 -0.5 -4t-2 -6t-3 -5t-4.5 -2h-33q-3 0 -5 2.5t-2 4.5q0 3 2.5 3.5t4.5 0.5q5 0 9.5 -1t9.5 -1q6 0 8.5 4.5t2.5 9.5v6q-2 3 -5 4.5t-6 2t-6.5 0.5t-6.5 1q-5 1 -7.5 6t-3.5 11t-0.5 12t0.5 9q0 25 2.5 50.5t2.5 50.5q0 11 -1 21t-1 20zM187 119v0q3 20 4.5 40t3.5 40
q0 3 1 10.5t2.5 15.5t3.5 14t6 6q2 0 4 -2t2 -4v-2l-9 -45q0 -7 -1.5 -13.5t-2.5 -13.5l-2 -24t-1 -24v-3v-4.5v-4.5v-3q1 -3 3.5 -3.5l5 -1t4.5 -1.5t2 -5q0 -2 -1.5 -3t-3.5 -1q-7 0 -11 3t-6.5 7.5t-3 10.5t-0.5 11zM42 159q0 3 1 9.5t1.5 14.5t1 14.5t0.5 9.5
q1 8 5 16.5t8 15.5h1h1q6 0 6 -6q0 -5 -2 -9t-4 -7.5t-4 -7.5t-3 -9q-1 -3 -1.5 -9.5t-1 -13.5t-1 -13.5t-0.5 -10.5v-4q1 -2 1.5 -7t1.5 -11t1.5 -11t0.5 -7q0 -1 -1.5 -3.5t-3.5 -2.5q-3 -1 -4.5 5t-2.5 14.5t-1.5 16t-0.5 10.5l0.5 2.5t0.5 3.5zM134 235q0 2 1.5 2h2.5
q4 0 5.5 -2.5t1.5 -5.5q0 -11 -1.5 -21.5t-1.5 -21.5v-2q0 -2 0.5 -3.5t1 -2.5t1.5 -1l15 -4l1 -1v-1v-1l-0.5 -1.5l-0.5 -1.5h-19v-18l0.5 -0.5l0.5 -0.5q1 0 2.5 -0.5t4 -1t4 -1t2.5 -0.5q3 -3 4 -8.5t1 -11.5v-12v-8q0 -7 -1 -12.5t-1 -13.5q-2 -2 -5.5 -3.5t-7 -2
t-6 -1.5t-2.5 -3v-1q0 -2 0.5 -6.5t1 -7t0.5 -3.5l19 -3q2 -1 3 -2.5t1 -2.5t-0.5 -2t-1.5 -1h-21l-0.5 -2t-0.5 -4t-0.5 -4.5t-0.5 -4.5v-2v-3.5t-1 -2.5t-3 -1q-1 0 -3.5 1.5t-2.5 3.5v20q0 2 -2.5 2h-5.5t-5.5 0.5t-2.5 3.5l0.5 1t0.5 2h2h4t4 0.5l2 0.5q1 0 2 0.5t1 1.5
v17q0 4 -3 5t-7 2.5t-7 3.5t-3 8v43q0 2 1 6.5t2 6.5q5 0 8.5 0.5t6.5 1.5t4.5 3.5t1.5 7.5q0 6 -2 8.5t-5 3.5t-7 0.5t-7 -0.5t-5 0.5t-2 3.5v1v2h3t4.5 0.5t4.5 0.5h3h6.5t6.5 2q2 14 3 28t0 27zM86 137v4v4.5v4.5v3l0.5 2.5t0.5 4.5t0.5 4t0.5 3t0.5 6t1.5 11.5t2.5 13.5
t3.5 13t4 9.5t5 3.5t3.5 -1.5t0.5 -4.5l-0.5 -1.5l-0.5 -1.5v-1.5t-1 -1.5t-1.5 -2.5l-0.5 -1.5q-4 -13 -7.5 -25t-3.5 -26v-10t-0.5 -15.5t-0.5 -16.5v-10h-4l-0.5 2t-1 5l-1 6t-0.5 4v3v3.5v4.5v4zM115 121v-6q1 -3 2.5 -3.5t3.5 -0.5q4 0 5.5 2.5t2.5 5.5t0.5 6.5
t-0.5 5.5v4v3q0 2 -3 2h-3q-3 0 -5 -2t-3 -5t-0.5 -6t0.5 -6zM139 111h12v3.5v5.5t-0.5 5.5t-0.5 3.5q0 3 -1.5 7t-5.5 4h-1l-2 -2l-1 -1v-26zM115 102v-7q0 -6 1 -9t7 -3q3 0 4.5 1.5t2 3.5t0 5t-0.5 5q0 3 -0.5 4.5t-3.5 1.5t-5 -0.5t-5 -1.5zM137 97q0 -1 0.5 -2.5
t0.5 -3.5t0.5 -4t0.5 -3q1 -1 3 -2t3 -1q2 1 3 2.5t1.5 4t0.5 4.5v4q0 4 -1 5t-5 1h-3h-2q-1 -1 -1.5 -3zM44 85q0 2 0.5 4t2.5 2q4 0 6.5 -6t4 -13.5t2 -13.5t0.5 -7v-6t-1 -6.5t-3 -6.5t-6 -3q-2 -1 -3 1.5t-1 4.5q0 5 1.5 10t1.5 11q0 7 -2.5 14.5t-2.5 14.5zM89 89
l0.5 0.5l1.5 1.5v0h1q3 0 5.5 -3t4.5 -7.5t3.5 -9t1.5 -6.5l-0.5 -2.5t-0.5 -6t-0.5 -7t-0.5 -5.5q0 -4 -1.5 -9t-6.5 -8q-2 1 -2.5 2t-0.5 3q0 5 0.5 10t0.5 11q0 9 -0.5 16t-3.5 15q-1 1 -1.5 3z" />
</svg>
