<?xml version="1.0" standalone="no"?>
<!DOCTYPE svg PUBLIC "-//W3C//DTD SVG 1.1//EN" "http://www.w3.org/Graphics/SVG/1.1/DTD/svg11.dtd" >
<svg xmlns="http://www.w3.org/2000/svg" xmlns:xlink="http://www.w3.org/1999/xlink" version="1.1" viewBox="-10 0 266 256">
   <path fill="currentColor"
d="M153 237v3v3.5t1 3t2 1.5q4 0 5.5 -2t1.5 -6q0 -3 -1 -6t-1 -7q0 -7 3 -12t7 -9.5t9.5 -8t9.5 -8.5t7 -11.5t3 -15.5q0 -10 -1 -20q-1 -2 -1.5 -3.5t-1.5 -3.5t-1.5 -3.5t-0.5 -3.5q-4 -2 -7.5 -5t-7.5 -5v-17q0 -4 3.5 -7t8 -6.5t9 -6.5t5.5 -7q1 -5 1 -12.5v-12.5v-13
q-1 -4 -3 -8t-6 -6h-4t-6 -0.5t-6 -0.5h-4h-1h-1q-2 0 -5.5 0.5t-4.5 0.5v3q0 1 0.5 2t1.5 2q1 0 3.5 -0.5t4.5 -0.5q3 0 5.5 0.5t3.5 0.5h1h3.5t3.5 0.5t2 1.5v1v0v0.5v0.5q-3 2 -6.5 3.5l-7 3t-7.5 2.5t-6 2q-1 0 -1.5 1.5t-0.5 2.5q3 0 7 -1t7.5 -2l7 -2t7.5 -1
q2 0 2.5 1.5t0.5 3.5q0 1 -4 3.5t-10 5t-11 4.5t-7 3v2q0 1 0.5 2t2.5 1v0v0q3 -1 6.5 -3t7 -3.5l7 -3t6.5 -1.5q2 0 2 2v3q0 4 -5 6.5t-11 4.5t-12 3.5t-8 4.5q1 2 2 3t2 1t1.5 -0.5l0.5 -0.5q1 0 3.5 -1t5.5 -2t5.5 -1.5t3.5 -1.5h0.5h1.5t1.5 0.5l1.5 1.5q-1 1 -3.5 3
t-5 4.5l-4.5 4.5t-2 3q-2 2 -3 4.5t-1.5 6t-0.5 6.5v4h-11l-0.5 -1t-0.5 -2v-1v0v-2t0.5 -2.5t0.5 -3v-2.5v0v-1q0 -2 -2 -3.5t-4 -1.5t-2.5 2.5t-0.5 5.5v6t-1 5q-2 1 -3.5 1.5t-3.5 1t-4 0.5t-3 1l-2.5 2.5l-3 3l-3 3l-2.5 2.5l-1 2.5l-2 5t-2.5 4.5t-1.5 3q-1 2 -3 3
t-3.5 1.5t-3 1.5t-1.5 4v0q1 1 2 1.5l1 0.5q6 0 10.5 -3t9.5 -5l22 -5.5t22 -3.5q1 0 2 -1t1 -2v0q0 -3 -2.5 -3.5t-4.5 -0.5h-2.5t-2.5 1l-30 8h-8l3 -5l3 -3l4 -4l3.5 -3.5l1.5 -1.5l5 -1h26l1.5 0.5t3.5 1.5l4 2t3 2q3 2 4.5 5.5t2 7.5t0.5 8.5v7.5q0 9 -1 14t-3 8.5
t-5 5.5t-6.5 4.5t-7 5.5t-7.5 8q-5 7 -6.5 15.5t-1.5 16.5zM72 172q1 2 1.5 5.5t0.5 6.5v7v5q3 10 6 19.5t7 18.5h1h1q3 0 3.5 -1t0.5 -4v-2v-2q-6 -17 -10.5 -35.5t-4.5 -37.5q0 -12 0.5 -24.5t3.5 -25.5q1 -2 2.5 -6l3 -8t2.5 -8t1 -8v-47l-0.5 -2l-0.5 -2l-2.5 -2.5
l-3 -3l-2.5 -2.5l-1 -1h-5v1q3 10 6 21.5t3 21.5t-2 19.5t-5 19t-5.5 19t-2.5 19.5v1q0 2 0.5 7.5t0.5 11.5t0.5 11.5t0.5 7.5zM186 167q-9 0 -17.5 3.5t-16.5 9t-14.5 12.5t-11.5 13q0 1 -0.5 2t-1 2.5t-1 2.5l-0.5 1q-2 4 -3.5 6t-1.5 7q5 0 8.5 -3t5.5 -7.5l4 -9t5 -8.5
q5 -5 10 -8.5t10.5 -6.5t11 -5.5t11.5 -5.5q1 -1 1.5 -2t0.5 -3zM49 144v8.5t0.5 14.5t1.5 17t3 16.5t4.5 12.5t6.5 5q2 0 3 -0.5t1 -2.5q0 -3 -0.5 -5t-1.5 -3.5t-1.5 -3l-1.5 -4.5q-2 -7 -3.5 -14t-2.5 -14t-1.5 -13.5t-0.5 -14.5q0 -5 1.5 -10.5t3 -10.5t2.5 -10t1 -10
q0 -2 -1.5 -3t-3.5 -1t-3.5 3t-3 8t-2 10.5t-1 10.5t-0.5 9v5zM91 147v1q0 1 0.5 3.5t0.5 5.5t0.5 5.5t0.5 3.5v3v4v4v3l0.5 1.5t1.5 3.5t1.5 3.5l0.5 1.5q1 1 1 3t0.5 4.5l1 5l0.5 2.5q1 1 2 3t2 2q3 0 4.5 -2.5t1.5 -4.5q0 -1 -0.5 -1.5t-0.5 -1.5t-1 -2t-2 -3q0 -2 -1 -5
l-2 -6t-2 -5.5t-1 -3.5v-3.5t-0.5 -8t-1 -9.5t-1.5 -7v-2q0 -11 2.5 -20.5t2.5 -19.5v-3v-3l-2 -1q-3 2 -4.5 6t-2 8.5t-0.5 9.5v8l-0.5 2.5t-0.5 5.5t-0.5 5.5t-0.5 3.5v0zM111 181q0 1 1 1.5t3 0.5q3 0 7 -2.5t8.5 -5.5l9 -6l7.5 -5l2 -0.5t3.5 -0.5t3 -0.5t2.5 -0.5
q1 -1 4.5 -2t8 -3t8 -4t3.5 -3q0 -2 -1.5 -2h-3.5h-2q-1 0 -2 0.5l-3 1.5l-3 1.5t-2 0.5q-7 3 -13.5 5.5l-13 5t-12.5 6t-14 8.5l-0.5 1t-0.5 2v1zM124 110q0 1 0.5 3t2.5 2v0q2 -1 4 -4t3.5 -5.5l3 -5t2.5 -3.5q0 -1 2 -2.5t4 -4t3.5 -4l2.5 -2.5q3 -3 4 -7.5t1.5 -9.5
t0.5 -10v-9v-12q-1 -2 -2 -5t-2.5 -6t-4 -5t-5.5 -2h-22q-1 0 -1.5 1t-0.5 2l1.5 1.5l1.5 1.5h3.5t5 0.5t5 0.5h3.5q2 1 4 1.5t2 3.5v0.5v0.5q-2 1 -6 2.5t-8.5 3t-8 4t-3.5 4.5h5q3 0 6 -1t5 -2t5 -2t5 -1q3 0 4 1t1 4t-2.5 5.5t-6 4t-7.5 2.5t-7.5 2.5t-5.5 3.5t-2 6
q4 0 8 -1.5t7 -3.5l6 -4t6 -2t4 2t1 4q0 3 -5.5 6t-12.5 6t-13 6t-6 6q0 2 1.5 2h2.5q3 0 7 -2t7 -4.5t6.5 -4.5t7.5 -2q0 5 -3.5 9t-8 7.5t-8 8t-3.5 9.5zM99 95q-1 0 -1 2q0 1 1 1t1 -1q0 -2 -1 -2zM56 84q0 1 0.5 2t2.5 1q3 0 5.5 -4t4 -9.5t2.5 -10.5t1 -7t-1 -7
t-2.5 -10t-4 -8.5t-6.5 -3.5q-2 0 -2.5 1.5t-0.5 2.5q0 4 2.5 8.5t3.5 7.5v22q-1 4 -3 7.5t-2 7.5zM96 84q0 1 1 1.5t2 0.5q4 0 6.5 -3t3.5 -7l2 -8t3 -6v-21q-2 -3 -2.5 -5.5t-1 -4.5t-2 -3.5t-5.5 -1.5q0 6 1 12t1 12t-0.5 10t-1.5 7.5t-2.5 7t-4.5 8.5v1z" />
</svg>
