<?xml version="1.0" standalone="no"?>
<!DOCTYPE svg PUBLIC "-//W3C//DTD SVG 1.1//EN" "http://www.w3.org/Graphics/SVG/1.1/DTD/svg11.dtd" >
<svg xmlns="http://www.w3.org/2000/svg" xmlns:xlink="http://www.w3.org/1999/xlink" version="1.1" viewBox="-10 0 266 256">
   <path fill="currentColor"
d="M118 247q1 2 2 3t3 1q3 0 4.5 -2t3.5 -5v0q0 -5 -0.5 -9t-0.5 -8v-8q7 -3 18 -4.5t23 -2t23.5 -0.5h19.5q0 -4 -2.5 -5.5t-6 -2t-7 0t-5.5 0.5q-5 0 -8.5 0.5t-8.5 0.5q-3 0 -5 -1t-2.5 -3t-0.5 -4v-6v-4v-3l30 -3q2 0 2 -1v-2q0 -2 -1 -2.5t-3 -1t-4 0l-2 0.5
q-5 0 -9.5 1t-9.5 1l-1.5 -0.5l-1.5 -0.5q-1 -4 -1.5 -8t-0.5 -8q0 -2 0.5 -4t2.5 -2l29 -5v-4h-4.5h-7.5h-8t-5 -1q-1 0 -3.5 -0.5t-3.5 -0.5v-4v-4v-5.5t2 -5.5l2 -0.5t3 -0.5q4 0 8 2t7 4t7 4t7 2t3.5 -2.5t0.5 -4.5q0 -3 -3 -5t-7 -3.5t-8 -1.5t-6 -1l-2.5 -0.5
t-4.5 -1.5t-4 -1.5t-3 -0.5v-0.5v-0.5q0 -3 1 -4t3 -1.5l4 -1t3 -0.5q1 -1 4 -2l6 -2t5.5 -1.5t4 -1t1.5 -1.5v-2q0 -4 -5 -6t-11 -3.5t-11 -3.5t-5 -6v-1.5v-0.5q7 -2 13 -1.5t10.5 -0.5t7.5 -5t4 -14q0 -1 0.5 -3.5t0.5 -6t0.5 -6.5t0.5 -4v-4q0 -4 -3 -5.5t-7 -1.5
q0 9 -0.5 17.5t-0.5 17.5q0 1 -0.5 2t-1.5 1h-2h-2h-1h-1l-20 -19v-27q0 -2 -1 -2.5t-3 -1t-3.5 -1l-1.5 -0.5v30q0 3 -2.5 6.5t-6 6.5t-6.5 5.5t-5 4.5q-5 -5 -5 -10q0 -2 1 -4.5t1 -4.5v-4t-1 -6t-2.5 -5t-3.5 -2q-3 0 -3.5 1t-0.5 4q0 8 0.5 15.5t2.5 13.5t7.5 9.5
t15.5 4.5q1 1 1 1.5v1.5q0 5 -5 8t-11.5 6t-12 7t-5.5 9q0 2 4 3t9 2t10 1.5t8 2.5q-2 3 -4.5 6.5t-5 6.5t-4.5 6.5t-3 7.5q-3 8 -4.5 16.5t-2 16t-1 15.5t-1.5 17q0 8 -1.5 16t-1.5 15v4v3zM67 152q0 23 3.5 47t14.5 45q0 1 0.5 1.5l0.5 0.5q3 0 5.5 -2t2.5 -4
q0 -4 -2.5 -9t-3.5 -9l-1 -2.5t-2.5 -5t-2 -4.5t-1.5 -2q-4 -14 -6 -29t-2 -29q0 -5 0.5 -11.5t1.5 -12.5l2 -12t3 -12q1 -4 2.5 -8t3 -7.5t2 -7.5t0.5 -9q0 -3 -0.5 -9t-1 -12.5t-2 -13t-4 -12t-6 -9t-7.5 -3.5v11q1 2 2.5 5.5l3 7t3.5 7t2 4.5q1 3 1.5 6t0.5 6v6v5
q0 6 -1 12.5t-2.5 12.5t-3.5 12t-3 12q0 1 -0.5 3l-1 4t-1 3.5t-0.5 2.5v4v6v7v4zM43 179q1 1 1.5 5.5t1.5 10.5l2 12t3 11t4 8.5t5 3.5t3.5 -1.5t0.5 -4.5q0 -6 -3 -11.5t-4 -11.5q-1 -12 -3 -23.5t-2 -23.5q0 -9 2 -16.5t2 -15.5q0 -2 -1.5 -3.5t-4.5 -1.5q-2 0 -3 1.5
t-2 4t-1 5t-1 3.5v48zM88 152v15.5t1.5 20t4.5 19t8 12.5h1q3 0 3.5 -2t0.5 -4q0 -6 -3 -12.5t-5 -11.5q-3 -11 -4 -21.5t-1 -21.5q0 -6 2 -11.5t2 -11.5v-4t-3 -2t-4.5 2.5t-2 6t-0.5 7v5.5v14zM130 199v-5t3 -4q1 0 4 -0.5t6.5 -1l7 -1t4.5 -0.5h1q3 0 3.5 2t0.5 4
q0 5 -1 8.5t-3.5 5t-6.5 2.5t-8 1h-4t-4 -1q-3 -1 -3 -4.5v-5.5zM131 178q0 -7 1 -11t3.5 -6.5t6.5 -3t11 -0.5h1h2.5h2.5t1 1v18q0 2 -3 3t-6 1.5t-7 0.5h-3h-4h-4t-1.5 -1l-0.5 -1v-1zM137 147q0 -3 1.5 -6.5t3.5 -7.5t5 -6.5t6 -2.5q2 0 3.5 0.5t1.5 3.5v19l-1.5 0.5
t-2.5 1.5h-2.5t-3.5 0.5t-4 0.5h-3h-1q-2 0 -2.5 -1t-0.5 -2zM136 102q0 -2 3 -5t6.5 -5.5t7.5 -4.5t6 -2t5 0.5t6.5 2t6 3.5t2.5 5t-3 4t-5 1q-3 0 -4 -1.5t-1.5 -3t-1 -2.5t-2.5 -1h-3t-2 1v13q0 1 -1.5 2l-1.5 1h-1v0q-2 0 -4.5 -0.5t-5.5 -1.5t-5 -2.5t-2 -3.5zM43 98
q0 2 1.5 2.5t3.5 0.5q4 0 6 -3t3 -7t1.5 -8.5t0.5 -6.5q0 -4 0.5 -9.5t0 -10.5t-2 -9t-6.5 -4q-1 0 -3.5 0.5t-1.5 2.5q3 8 3.5 14t0.5 13q0 5 -1 8t-2.5 5.5t-2.5 5t-1 6.5zM93 96q0 2 1 2.5t3 0.5q3 0 5.5 -3t4.5 -7t2.5 -8t0.5 -6v-1v-4.5t-0.5 -7.5t-0.5 -7.5v-4.5
q0 -2 -0.5 -4l-1 -4t-1.5 -3.5t-4 -1.5q-2 0 -2.5 1.5t-0.5 3.5q0 5 1 10t1 11q0 5 -0.5 11t-2.5 12q-1 3 -3 5t-2 5zM145 66v-1.5v-0.5l15 -13v0h1q2 0 4.5 1.5t4.5 3.5t3.5 4t1.5 4v2t-1 1t-4 0.5t-7 0.5t-7 0.5t-4 0.5h-2q-2 0 -3.5 -0.5t-1.5 -2.5z" />
</svg>
