<?xml version="1.0" standalone="no"?>
<!DOCTYPE svg PUBLIC "-//W3C//DTD SVG 1.1//EN" "http://www.w3.org/Graphics/SVG/1.1/DTD/svg11.dtd" >
<svg xmlns="http://www.w3.org/2000/svg" xmlns:xlink="http://www.w3.org/1999/xlink" version="1.1" viewBox="-10 0 266 256">
   <path fill="currentColor"
d="M87 248l1 1l2 2v0q2 0 2.5 -1.5t0.5 -2.5q0 -5 -2 -10t-4 -9.5t-4.5 -9.5t-3.5 -10q-4 -12 -4.5 -24.5t-0.5 -24.5q0 -10 2 -19.5l4 -19t3.5 -19t1.5 -19.5q0 -2 -0.5 -7.5t-2 -12t-4 -11t-5.5 -4.5h-3t-2 2v1q1 0 1.5 2t1.5 4t2 3.5t1 2.5q2 3 2.5 5.5t1 4.5t0.5 4v6
q0 10 -2 19.5t-3.5 18.5t-3 18.5t-1.5 19.5q0 13 1.5 24t3.5 21.5t5.5 21.5t8.5 23zM197 246q0 1 1 2.5t2 2.5q1 0 2 -0.5t2 -2t1.5 -2.5t0.5 -2v-1q0 -1 -1 -4.5t-1.5 -7.5t-1.5 -7.5t-1 -4.5v-2.5t-0.5 -3.5t-0.5 -4v-2q0 -3 -0.5 -11t-0.5 -16.5t-0.5 -16.5t-0.5 -11
q1 -3 1.5 -7t1.5 -8.5t1.5 -9t0.5 -8.5t-2 -6t-5.5 -3t-7 -1h-6.5q-2 0 -5 -0.5t-4 1.5q3 3 3.5 4.5t0.5 4.5q0 14 -1.5 27.5t-1.5 27.5v7q0 2 0.5 6t0.5 7t0.5 5.5l0.5 2.5l1 3l3 -3v-4.5v-7.5v-8.5v-4.5t0.5 -5.5t0.5 -9.5t0.5 -9.5t0.5 -5.5q0 -3 -0.5 -8t0 -10t2 -9
t5.5 -4q5 0 5 3v6q0 12 -1.5 23.5t-1.5 22.5q0 19 1.5 38t4.5 37zM123 203v11.5t1 15.5t2.5 13.5t4.5 5.5t3.5 -1t0.5 -3v-4t-2 -4q0 -2 -0.5 -8t-1 -12.5t-1 -12.5t-0.5 -8v-1v-4v-4v-3v-8.5t2 -9.5v-7.5v-11.5v-11.5v-7.5v-2t0.5 -4t0.5 -3.5v-2.5v-1q0 -4 -1.5 -6
t-4.5 -3t-6 -1h-7q-1 0 -4.5 0.5t-4.5 0.5t-1.5 0.5l-0.5 0.5v0.5v0.5q0 1 1 2t2 1.5l2 1t1 2.5q-2 19 -3.5 38t-1.5 38q0 4 4 4q2 0 3 -6t1 -15.5v-20.5t1 -20t3 -15t6 -6h1l1 1l2 2v2.5v3.5q0 3 -0.5 6t-1.5 6v18t-0.5 17.5t-0.5 17v17.5zM157 172q0 18 1.5 35.5t5.5 35.5
q0 3 0.5 4t2.5 1t3.5 -1t0.5 -4q-2 -10 -3 -19.5t-2 -18.5t-1.5 -19t-0.5 -21t1.5 -21.5t1.5 -21.5v-9q0 -2 -2 -3t-4 -1t-4.5 -0.5t-6 -0.5h-6.5h-3q0 3 1 5v3t0.5 4t0.5 3v3q0 13 -1 25.5t-1 25.5v24l1 1l1 1l0.5 -0.5l0.5 -0.5l0.5 -1t0.5 -2q0 -19 0.5 -39t2.5 -39
q2 -3 3.5 -6t5.5 -3q2 0 3 2t1 4q0 13 -2 26.5t-2 27.5zM50 195q1 1 1.5 5.5t1.5 10.5t2.5 12t3 11t4 8.5t4.5 3.5q4 0 4 -4v-2l-9 -21q1 -4 -0.5 -7.5t-2.5 -7.5q0 -5 -0.5 -9t-0.5 -8v-8v-8q0 -11 1.5 -22t1.5 -22q0 -2 -0.5 -3.5t-2.5 -1.5t-3 1.5t-2.5 3t-2 3t-0.5 3.5
v62zM92 216q2 3 3 6.5t2 6.5t3 5t7 2q0 -2 -1.5 -6.5t-3.5 -10t-4 -10.5t-3 -8q0 -1 -1 -4.5t-2 -4.5v-20q0 -11 1.5 -22t1.5 -22v-3.5t-2 -2.5t-3 2.5t-1.5 5.5l-1 6t-0.5 4v49zM91 106l1 4q4 -4 7.5 -10t3.5 -11v-24q0 -3 -2.5 -6t-5.5 -3q0 5 1 10t1 10q0 8 -1.5 15
t-4.5 15zM56 104v3t3 2q1 0 2.5 -1.5t2.5 -3.5t2 -3.5t1 -2.5v-11v-10q0 -4 -1 -8t-4 -7t-9 -3q0 4 1 7.5l2 7l2 7t1 7.5q0 3 -1.5 7t-1.5 9zM117 71v1q1 9 2.5 12.5t4 5t7.5 1.5q4 0 11 1q1 0 2 0.5t1 1.5q10 -1 19 -0.5t16 -2t11 -8t4 -16.5q0 -9 -5.5 -11.5t-13.5 -2.5
q-5 0 -9.5 0.5t-9.5 0.5q0 -1 0.5 -4t0 -5.5l-1 -5t-3.5 -2.5q-1 0 -3 0.5t-2 1.5v12q0 2 -2 2.5t-5.5 1t-7.5 0.5t-8 1.5t-6 5t-2 9.5zM145 63l0.5 -1t1.5 -2h5q3 0 5 2t3.5 5t2.5 6.5t1 6.5q0 4 -0.5 5t-4.5 1t-6.5 -2.5t-4 -6t-2.5 -7.5t-1 -7zM125 72q0 -4 2.5 -6.5
t6.5 -2.5q3 0 3.5 1.5t1.5 3.5q1 1 2 4t2 5t1.5 4l0.5 2l-1 2h-15q-2 0 -2.5 -2t-0.5 -4t-0.5 -4t-0.5 -3zM165 62q2 -2 5.5 -2h5.5q5 0 8.5 1t3.5 7q0 2 -0.5 5t-1.5 5t-3 3.5t-5 1.5t-5 -2.5t-3.5 -6t-2.5 -7t-2 -5.5z" />
</svg>
