<?xml version="1.0" standalone="no"?>
<!DOCTYPE svg PUBLIC "-//W3C//DTD SVG 1.1//EN" "http://www.w3.org/Graphics/SVG/1.1/DTD/svg11.dtd" >
<svg xmlns="http://www.w3.org/2000/svg" xmlns:xlink="http://www.w3.org/1999/xlink" version="1.1" viewBox="-10 0 266 256">
   <path fill="currentColor"
d="M148 221q0 3 1.5 8t4 10t5.5 8.5t6 3.5q1 0 2.5 -1.5t1.5 -3.5q0 -3 -1.5 -6t-3.5 -6.5t-4 -6.5t-2 -7q0 -6 3 -10t7.5 -7t9.5 -5.5t9 -6.5t7 -9t3 -13q0 -5 -1.5 -10.5t-4.5 -10t-7 -7t-10 -2.5q-10 0 -20 2.5t-17 7.5t-11 13t-4 20q0 2 -0.5 5.5t0 7.5t1.5 7t4 3
q2 0 3 -0.5t1 -2.5q0 -6 -0.5 -11t-0.5 -11v-9q0 -1 1 -1h2q3 0 5.5 2.5t5 6.5t4.5 8t5 6q2 -1 2.5 -2.5t0.5 -3.5q0 -4 -3 -8t-6.5 -7.5l-6.5 -6.5t-3 -7v-1l1.5 -1.5l3 -3t3.5 -3t4 -1.5q3 0 6 5t5.5 10.5t5 10.5t4.5 5h1l1.5 -0.5t1.5 -1.5v-2v-2q0 -4 -2 -7t-4.5 -6
t-4 -5.5t-1.5 -6.5v-1.5t1 -1.5h3.5h2.5q5 0 9 2t6 5.5t3 8t1 9.5q0 6 -3 10.5t-7.5 8t-9.5 6.5t-9.5 6.5t-7.5 8t-3 11.5zM71 139q0 10 0.5 18.5t1.5 17.5t2.5 17.5t3.5 18.5q0 2 1 6t2.5 7.5t3.5 6.5t5 3q2 0 3 -0.5t2 -2.5q-3 -5 -6 -13t-5.5 -17t-4 -17t-1.5 -13v-66
q1 -1 2 -5.5t2.5 -9t3 -8.5t1.5 -6q2 -6 2 -12.5v-12.5v-3v-5v-5v-3q-2 -3 -4 -7t-5 -7.5t-6.5 -5.5t-7.5 -2v5q2 2 4.5 5t4.5 6t3.5 5.5t2.5 3.5v15q0 8 -1.5 15.5t-3 14.5t-3.5 14.5t-3 15.5v5v8v8v5zM55 202q0 1 0.5 3t1.5 4t2 3.5t3 1.5t3.5 -1t1.5 -3q0 -6 -2 -10.5
t-3 -8.5q-1 -5 -1.5 -10l-1 -10t-0.5 -10v-9v-1q0 -1 0.5 -6t0.5 -11t0.5 -11.5t0.5 -6.5v-8v-7q-1 -2 -1.5 -2h-1.5h-2t-1 2q-1 11 -3 24t-2 25t1.5 26t3.5 26zM91 139v24q0 3 1 9.5t3 13.5t4.5 12t4.5 5h1l1.5 -0.5l1.5 -0.5v-2.5v-1.5q0 -4 -1 -8t-3 -8t-3.5 -8.5
t-1.5 -8.5q-1 -8 -1.5 -17.5t-0.5 -18.5q0 -6 2 -12t2 -12q0 -1 -1 -2.5t-3 -1.5l-1 0.5t-2 0.5q-1 1 -1.5 3t-0.5 4t-0.5 3.5t-0.5 2.5v24zM136 126v3t3 1h1q3 -12 3.5 -25.5t-0.5 -25.5l0.5 -2t1.5 -2v-0.5t1 -0.5v1l4 6v42q3 0 4.5 -3t2 -7t0.5 -8v-6v-5t-0.5 -8.5
t-0.5 -8.5v-5q-2 -2 -4.5 -2.5t-4.5 -1.5t-3 -2.5t-1 -3.5q0 -5 2.5 -6.5t5.5 -3t5.5 -4t2.5 -8.5q0 -5 -1 -8t-6 -3v17l-1 0.5l-1 0.5l-4 2q0 -1 -0.5 -2.5t-0.5 -2.5t-0.5 -4.5t-0.5 -7.5t-0.5 -7.5t-0.5 -4.5l-4 -5q-3 2 -3 6t0.5 8t0.5 9v11l-1 1h-1q-4 0 -5 -3t-1.5 -7
t-1.5 -7t-6 -3q0 10 2.5 15t5.5 7.5t5.5 3.5t2.5 3q1 4 -1.5 6.5t-5.5 4.5t-5.5 4.5t-2.5 6.5q0 2 -1 7.5t-1.5 12t-1 12t-1.5 8.5v0q0 3 1 4.5t3 1.5q3 0 4 -4t1 -10v-13t1 -13t2.5 -10t5.5 -4h1l1 2v18q0 8 -0.5 16t-0.5 17zM178 82v45l2 1h1h1l0.5 -0.5l0.5 -0.5
q1 -8 2 -18t1 -18l-0.5 -2.5t-0.5 -3.5v-2q0 -3 1 -5t3 -3q3 2 4 5.5t1 6.5v7.5t0.5 12t0.5 12.5v8h3h2t1 -2l0.5 -2.5t0.5 -5t0.5 -4.5t0.5 -3v-2v-8t-1 -10.5t-2 -10t-3 -7.5q-1 -2 -3 -2.5t-3.5 -1t-3 -1.5t-1.5 -4q0 -4 3 -6t7 -3.5t7 -4.5t3 -11q0 -2 -1.5 -5t-4.5 -3
q-1 0 -2 0.5t-1 1.5t-0.5 2.5t-0.5 3.5t-0.5 3.5t-0.5 2.5q0 3 -0.5 4t-2.5 1t-3 -0.5t-1 -2.5v-30q0 -1 -2 -2t-3 -1q-2 0 -2.5 1t-0.5 4v32l-0.5 1t-1.5 1v0q-4 0 -5 -3.5t-1.5 -7.5t-1 -7.5t-3.5 -3.5q-1 0 -1.5 1t-0.5 2v4.5t0.5 5.5t1 5.5t1.5 3.5q1 2 3 3t4 1.5
t3.5 1.5t1.5 4t-1 4t-3 1.5t-4.5 1.5t-3.5 3q-3 3 -4 9.5t-1.5 14.5t-0.5 15v9v3.5t2 1.5h1q1 -2 1.5 -6.5t1 -10t0.5 -11.5t1 -11t2.5 -8.5t4.5 -3.5l0.5 0.5l0.5 0.5zM56 81l1 1l2 2h0.5h0.5q2 0 4 -3.5t3 -7.5l2 -8t1 -6q0 -4 -1 -8t-3 -7.5t-5.5 -6t-8.5 -2.5
q0 3 1.5 6.5t2.5 6.5l2 6t1 7q0 2 -0.5 4.5t-1 5.5t-1 5.5t-0.5 4.5zM105 51q0 8 -2.5 16.5t-2.5 16.5q4 0 6.5 -2.5t3.5 -6.5t1.5 -8t1.5 -8v-3v-5t-0.5 -5.5t-1.5 -6.5t-3 -5t-5 -2q-2 0 -2.5 1t-0.5 2v1q1 1 1.5 3t1 4.5t1.5 4.5l1 2v1z" />
</svg>
