<?xml version="1.0" standalone="no"?>
<!DOCTYPE svg PUBLIC "-//W3C//DTD SVG 1.1//EN" "http://www.w3.org/Graphics/SVG/1.1/DTD/svg11.dtd" >
<svg xmlns="http://www.w3.org/2000/svg" xmlns:xlink="http://www.w3.org/1999/xlink" version="1.1" viewBox="-10 0 266 256">
   <path fill="currentColor"
d="M184 247q0 2 1 3t3 1q1 0 3 -0.5t2 -2.5v-66l1.5 -0.5t2.5 -1.5h1h3.5t4.5 -0.5t4.5 -0.5h3.5q1 -1 1.5 -2t0.5 -2l-0.5 -1t-0.5 -2q-5 -1 -11 -1.5t-11 -0.5q-2 -1 -1.5 -3.5t0.5 -3.5q0 -5 2.5 -6.5t6 -3.5t6 -6.5t2.5 -16.5v-3v-3t-0.5 -2l-0.5 -1h-9v23q0 2 -1.5 2
h-2.5h-2t-1 -2v-31q0 -2 -2 -2.5t-3 -0.5q-3 0 -3 5v31q0 2 -1.5 3t-3.5 1q-5 0 -6 -4t-1 -9t-0.5 -9t-3.5 -4t-3.5 2t-0.5 3q0 2 0.5 6t1.5 8t2 7.5t2 3.5q3 1 5.5 1.5t4.5 1.5t3 3t1 6v2v2.5t-1 2t-2 0.5h-19l-0.5 1t-0.5 2v0q0 2 1.5 3t2.5 1h18l0.5 1l0.5 1q1 1 1.5 2.5
t0.5 2.5v50q-1 3 -1.5 5t-0.5 5zM60 159v16t2 16q0 2 1.5 7t3.5 11.5t4.5 13t4.5 12t4 9.5t4 4t4 -2.5t2 -4.5v-2v-1q-11 -20 -16.5 -39.5t-5.5 -43.5q0 -12 2 -23.5t4.5 -23t4.5 -22.5t2 -23v-20q-2 -3 -3.5 -7t-4.5 -8t-6 -6.5t-8 -2.5q0 5 2 10t4 9.5t4 9.5t4 9v2.5v3.5
v4v2v3v3.5v3v1.5q-1 3 -2 9.5t-2.5 13l-3 13t-2.5 8.5q0 1 -1 3t-1 4t-0.5 3.5t-0.5 2.5v2.5v6.5v6.5v6.5zM150 243l1 0.5t2 0.5v0.5t1 0.5q4 0 4.5 -3.5t0.5 -6.5q0 -18 -2 -36t-3 -36v-13.5v-20.5v-21v-13v-6v-4t-1 -3.5t-2 -4.5l-0.5 -1l-0.5 -1h-16l-0.5 -1.5t-1.5 -2.5
v-1q0 -3 4 -5t8 -4.5t8 -6t4 -11.5q0 -9 -3.5 -12t-9 -3.5t-11.5 -0.5t-12 -3q-2 -1 -3 -2.5t-1.5 -3.5t-1.5 -3.5t-4 -2.5q-2 -1 -3 1.5t-1 3.5q0 3 1 5l2 4l2 4t1 5q0 1 -1 3.5t-3 4.5t-4 3.5t-3 1.5t-2 -1.5t-2.5 -3l-3 -3t-1.5 -2.5q-3 1 -3.5 2t-0.5 3t1 4.5t3 3.5v3v4
v4v3q0 8 -2 14.5t-2 11.5q0 2 0.5 3t2.5 1t3 -1.5t2 -3.5t1.5 -4t0.5 -4q0 -1 0.5 -4t0.5 -6.5t0.5 -6.5t0.5 -5l2.5 -2.5l6 -6l6.5 -6.5t3 -4l1 -1.5l1 -1.5q3 -3 5.5 -3h6.5h4.5t5 1t4 2.5t1.5 4.5q0 4 -2 6.5t-4.5 4t-5.5 3.5t-6 5t-4.5 7t-6.5 7q-2 1 -4 1.5l-4 1
t-3.5 1.5t-2.5 4q-4 11 -5 24t-0.5 26.5t1 26.5t0.5 24q0 1 -0.5 6.5t-0.5 11.5t-0.5 11.5t-0.5 6.5v1v3v2.5v1.5q0 1 -0.5 3t0 3.5l1 3t2.5 1.5q1 0 2 -0.5t1 -1.5l3 -50q0 -1 3.5 -4.5t8 -7.5t8.5 -7l4 -3q2 0 4.5 2t5.5 4t5 5t2 5v17v9t0.5 13t1 13t0.5 9zM41 163
q0 17 1.5 31t6.5 30l2.5 5t4.5 3q2 0 3 -1.5t1 -3.5q0 -5 -2.5 -9t-3.5 -10q0 -2 -1 -6.5l-2 -9t-1.5 -8.5t-0.5 -5v-3v-6.5v-6.5v-6q0 -12 1.5 -23t1.5 -23q0 -2 -0.5 -4t-3.5 -2q-2 0 -3.5 2t-1.5 3q-1 8 -1 14.5t-0.5 12.5t-0.5 12v14zM87 207l1 0.5t2 0.5v1h1v0
q1 0 1 -1l0.5 -1t0.5 -2v0q0 -7 -1 -13.5t-2 -13.5t-2 -13.5t-1 -13.5q0 -8 1.5 -15.5t1.5 -16.5v-1.5t-0.5 -3.5t-1 -3t-2.5 -1q-1 0 -2.5 2t-1.5 3l-3 44q3 11 4 23.5t4 24.5zM109 127l15 -12h3q1 0 2.5 1t3.5 2t4 2.5t3 1.5q3 3 4.5 7t2 8t0 8.5t-0.5 8.5v9q0 2 -3 2
h-0.5h-0.5l-8 -8l-3 -28l-1.5 -1.5t-2.5 -1.5v0q-2 0 -3 2.5t-1 3.5v2t0.5 4t0.5 4v2v4v7t-1.5 7.5t-4.5 6t-7 2.5h-1l-0.5 -0.5l-0.5 -0.5v-43zM109 112v-7q0 -5 0.5 -8.5t1.5 -6.5t4 -5t8 -2v22q0 2 -1.5 3t-3 2.5t-3.5 2t-3 0.5h-2t-1 -1zM134 82h0.5h1.5l3 0.5t4 1.5
q2 5 2 9v10v4.5v4.5l-0.5 0.5t-1.5 0.5h-1l-2 -0.5t-4 -1.5t-3.5 -2t-1.5 -2v-23q0 -2 1 -2h2zM195 74q0 8 -4.5 13.5t-10 9t-10 7t-4.5 8.5q7 0 14 -3t12.5 -8t9 -11.5t3.5 -13.5q0 -10 -4.5 -14t-9.5 -6.5t-9.5 -4t-5.5 -6.5q0 -3 3.5 -5.5t8 -4.5t8.5 -4t4 -5
q0 -2 -1 -2.5t-3 -0.5q-4 0 -8.5 1.5t-8.5 4.5t-6.5 6.5t-2.5 7.5q0 3 1 5.5t2.5 4.5t3 3.5t1.5 2.5v0.5v0.5l-2 2t-2 2.5t-2.5 3l-1.5 1.5q-1 2 -2.5 3.5l-3 3t-2.5 3.5t-1 3q0 3 3 3v0h1q1 0 3 -0.5l2 -0.5l19 -19v0v0q3 0 4.5 3.5t1.5 5.5zM46 93q0 3 4 3q3 0 5 -3
t3.5 -7t1.5 -8v-6v-6.5t-1.5 -9.5t-3.5 -8.5t-6 -3.5q-2 0 -2.5 1.5t-0.5 3.5q0 6 1 11t1 11t-1 11.5t-1 10.5z" />
</svg>
