<?xml version="1.0" standalone="no"?>
<!DOCTYPE svg PUBLIC "-//W3C//DTD SVG 1.1//EN" "http://www.w3.org/Graphics/SVG/1.1/DTD/svg11.dtd" >
<svg xmlns="http://www.w3.org/2000/svg" xmlns:xlink="http://www.w3.org/1999/xlink" version="1.1" viewBox="-10 0 266 256">
   <path fill="currentColor"
d="M195 207v40q0 2 1 2h2q3 0 5 -3v-4v-4q0 -17 -2.5 -34t-2.5 -34v-1v0q0 -1 0.5 -2t1.5 -2t1.5 -2t1.5 -1q1 -1 2 -2.5t1 -2.5t0.5 -3t0.5 -4.5t0.5 -5t0.5 -3.5q-2 -4 -5 -6.5t-7.5 -4.5t-8.5 -3t-8 -1q0 3 3.5 5t7 4.5t7 6t3.5 8.5q0 2 -1 4t-3 2t-5.5 -2.5t-7.5 -5.5
t-8.5 -5.5t-9.5 -3.5q0 1 -0.5 1.5l-0.5 0.5v1q0 2 3.5 4t7.5 5t7.5 6.5t3.5 10.5h-20l0.5 2.5t2.5 2.5h21l1 4.5t1.5 10l1 11t1.5 8.5zM75 217q1 1 2 4t2 7t2.5 7t1.5 4q1 3 2 4t4 1q2 0 3 -0.5t1 -3.5v-2q-8 -17 -12 -35t-4 -37q0 -18 2 -35t7 -35q3 -9 3.5 -18t0.5 -18
q0 -8 -1.5 -17t-7.5 -15q-1 -1 -2.5 -3t-3.5 -3.5t-3.5 -3l-1.5 -1.5h-5v5q5 6 8 10.5t5 10t3 11t1 12.5q0 12 -2 23t-4.5 22.5t-4 23.5t-1.5 24v6v7.5v7.5v3q0 4 1 8.5t2 8.5t2 8.5t0 8.5zM124 176q0 3 -1.5 7t-2.5 8q0 7 -0.5 13.5t-1 12.5t-0.5 13v15q1 0 4 -0.5t3 -2.5
q0 -7 -0.5 -15.5t0 -17.5t1.5 -17.5t4 -15.5h5.5t7.5 -1t7 -2.5t3 -3.5q0 -1 -0.5 -2.5t-1.5 -1.5l-1 0.5t-2 0.5t-2 0.5l-1 0.5h-5q-3 0 -4 -0.5t-1 -3.5v-3q2 -1 4.5 -3.5l5 -5t4 -5.5t1.5 -5q-5 0 -7.5 3t-5 6.5l-5 7t-6.5 3.5t-5 -3.5t-1 -6.5q0 -5 2.5 -8t5 -5l5 -4
t2.5 -5v-1l-1 -0.5l-1 -0.5v0q-5 0 -8.5 2.5t-6 7t-3.5 9t-1 8.5t1.5 6.5t3.5 5t3.5 5t1.5 5.5zM49 168v6v8v7v4l0.5 3.5l1 7t1 7.5t0.5 6q1 1 1.5 3.5t1.5 4.5t2.5 3t2.5 1q2 0 3 -2.5t1 -3.5v-1q-1 -1 -2 -5.5t-2 -9.5t-2 -9t-1 -5v-3.5v-6v-6.5v-6q0 -16 2.5 -30.5
t2.5 -30.5q0 -1 -1 -2.5t-3 -1.5h-1l-0.5 0.5l-0.5 0.5q-2 9 -3 18t-4 18v5v7v8v5zM94 217q0 1 1 2t2 1.5t2.5 0.5h1.5q0 -5 -1 -10.5l-2 -11t-2.5 -10.5t-1.5 -11q0 -8 1 -16.5t2.5 -17t2.5 -17t1 -17.5q0 -1 -0.5 -2.5t-2.5 -1.5q-1 0 -1.5 1t-1 2.5t-1 2.5t-0.5 2
q0 3 -1 9.5t-1.5 13t-1 11.5t-0.5 6l-0.5 2.5t-0.5 5.5v6v5v11q0 6 0.5 11t1.5 10t3 12zM117 114l0.5 0.5l1.5 1.5h1v0l3 -3l2 -2v-47q0 -9 3.5 -15t9.5 -9.5t13 -5t15 -1.5t14 1t10 3.5t6 7.5t2 14v57q4 0 6 -2.5t3 -6t1 -7.5v-7q0 -5 -0.5 -12t-1 -14.5t-1 -14t-2.5 -11.5
q-3 -6 -7 -9t-8.5 -3.5t-9.5 -0.5t-9 -1t-6.5 -4t-3.5 -11q-3 -2 -6 -2v3v4.5v5v2.5q0 1 -0.5 2t-1.5 1q-10 2 -16.5 6t-10 9.5t-5 12.5t-2 14.5t0 15.5t-0.5 16v6v6zM157 85v27q0 1 1 1.5l1 0.5q4 0 5 -5t0.5 -11.5t0 -11.5t2.5 -5h24q1 0 1.5 -1t0.5 -2v0v-1
q0 -1 -0.5 -1.5t-1.5 -0.5h-25q0 -4 -0.5 -7t-0.5 -5q0 -3 0.5 -6t1.5 -6q1 -2 2.5 -3t3 -1.5t3 -1.5t1.5 -4q-8 0 -11 2.5t-4.5 7t-1.5 10t-1 11.5q-1 4 -4.5 4.5t-8 0.5h-8t-3.5 4v1q2 1 5 1t5.5 0.5t5.5 0t5 -0.5zM141 91q0 2 -1.5 3.5t-2.5 3.5t-2 4.5t-1 3.5q4 0 6 -1
t3 -3.5t1.5 -5t0.5 -5.5h-4zM174 92q0 3 1.5 7t2.5 7h1.5h0.5q3 0 3.5 -1.5t0.5 -3.5q0 -4 -3 -8t-7 -3v2zM62 70q0 6 -2 10.5t-2 9.5q4 0 6.5 -2t4 -5.5t1.5 -7v-6.5q0 -2 -0.5 -7t-2.5 -10t-4.5 -8.5t-6.5 -2.5q-1 0 -2 1.5t-2 2.5v0q0 2 1.5 4.5t3.5 6t3.5 7t1.5 7.5z
M104 63q0 5 -1.5 9t-1.5 9v2q3 -1 5.5 -4.5t3.5 -7.5t1.5 -8t0.5 -7t-1 -6t-2.5 -6t-4 -5t-5.5 -2q0 4 0.5 7t1.5 6t2 6.5t1 6.5zM141 51v2v2.5v3v2.5q1 1 2 4.5t2 3.5h1v-3v-3v-3v-3t-0.5 -3.5l-0.5 -2.5h-4zM175 65q0 1 0.5 2t1.5 2q1 -2 2.5 -3.5t3 -3.5t2.5 -4t1 -4
l-0.5 -0.5l-0.5 -0.5h-1q-1 0 -3 1.5t-3 3.5l-2 4t-1 3z" />
</svg>
