<?xml version="1.0" standalone="no"?>
<!DOCTYPE svg PUBLIC "-//W3C//DTD SVG 1.1//EN" "http://www.w3.org/Graphics/SVG/1.1/DTD/svg11.dtd" >
<svg xmlns="http://www.w3.org/2000/svg" xmlns:xlink="http://www.w3.org/1999/xlink" version="1.1" viewBox="-10 0 266 256">
   <path fill="currentColor"
d="M66 184q1 2 2 8t2 13.5t2.5 15.5t3.5 15t4 11t5 4t4 -1t1 -3v-1.5v-1.5q-3 -11 -5.5 -21t-5 -20.5t-4 -21t-1.5 -21.5v-11q0 -2 1 -8t2 -12.5t2 -12.5t2 -8q0 -1 0.5 -2l0.5 -1q2 -7 3.5 -12.5t2.5 -11t1.5 -11t0.5 -13.5q0 -3 -0.5 -10t-2 -14.5t-5.5 -13t-10 -5.5
q-2 0 -4 0.5t-2 2.5t2 5l4 6l4 6t3 6q1 5 1.5 12t0.5 14q0 9 -2 17t-5 17q-4 16 -6 31.5t-2 31.5v5v6v6v4zM58 109q-4 0 -7 1.5t-4 4.5t-1.5 7t-0.5 8v57q0 1 1 5.5t2 10.5t2.5 12.5t2.5 9.5q1 2 1.5 4.5t1.5 4.5t2.5 4t3.5 2t4 -1.5t2 -3.5q0 -7 -3.5 -14t-5.5 -13
q-3 -13 -4.5 -24.5t-1.5 -25.5q0 -12 2.5 -24.5t2.5 -24.5zM92 213q0 2 1 5.5t1.5 7t2.5 6.5t5 3t4.5 -3t1.5 -5t-1 -4t-2.5 -4.5t-2.5 -4.5t-2 -5q-4 -12 -5.5 -25.5t-1.5 -26.5q0 -9 2 -18t2 -18v-9q-1 0 -1.5 -0.5l-0.5 -0.5h-1q-2 0 -2.5 2.5t-1.5 3.5q0 1 -0.5 3l-1 4
t-1 3.5t-0.5 2.5v4v6v6v3v5v6v5.5v2.5q0 3 0.5 9t1.5 13.5t1.5 13.5t1.5 9zM112 221v0.5t1 0.5l12 2h4h10.5t15 0.5t16.5 0.5h15.5h13.5h2h1.5t3 -0.5t2.5 -1.5t0 -2q0 -1 -2 -3t-3 -2h-9q-20 0 -40 0.5t-39 0.5q-4 0 -4 4zM125 180q0 5 0.5 8.5t2 6t4.5 3.5t8 2
q2 0 5.5 0.5t7 0.5t6.5 0.5t4 0.5l2.5 -0.5t5.5 -1l6 -1t5 -1.5q5 -1 7.5 -3t4 -5t1.5 -6.5v-8.5q0 -7 -2 -11t-6 -6t-9.5 -2.5t-11.5 -0.5q-9 0 -16 0.5t-12.5 2.5t-9 7.5t-3.5 14.5zM137 192q-1 0 -2 -2t-1 -3t1.5 -3t2.5 -2h42q2 0 2 1.5v2.5q0 3 -3 4.5t-7 2.5t-8 1h-6
q-6 0 -10 -0.5t-11 -1.5zM138 175q-2 0 -2.5 -1.5t-0.5 -2.5q0 -4 3 -6t7.5 -2.5t8.5 -0.5h6q4 0 8 -0.5t7.5 0.5t6 3t2.5 6v4h-5t-6.5 0.5t-7 0.5h-4.5h-1h-1h-4t-6 -0.5t-6 -0.5h-5zM116 112q0 12 3.5 18.5t10.5 9t16 3t19 0.5h12q6 0 10 -1t8.5 -4t8.5 -8q1 0 1.5 -1.5
l0.5 -1.5q0 -1 0.5 -3t0.5 -4t0.5 -4t1.5 -4v-4v-4v-7t-1.5 -8t-3.5 -7t-6 -5h-4.5h-7.5t-7.5 -0.5t-4.5 -0.5h-1h-1q-2 0 -8 0.5t-12.5 1t-12.5 1t-9 0.5q-5 1 -7.5 5t-4 9t-2 10t-0.5 9zM125 112q0 -10 1.5 -15.5t5 -8t10 -3.5t15.5 -1h1h7t10.5 0.5t10.5 1t7 0.5t3 0.5
t2 2.5v10v11t-1.5 11.5t-5.5 9.5t-11 4h-37q-5 0 -8 -2t-5.5 -5.5t-3.5 -7.5t-1 -8zM142 116q1 2 4.5 4t5.5 2h27q2 0 4 -1.5t3 -4t1.5 -5t0.5 -4.5v-0.5v-0.5q0 -1 -0.5 -4t-0.5 -4l-2 -1h-15q-4 0 -9 -0.5t-9.5 0.5t-7.5 4t-3 9q0 1 0.5 3t0.5 3zM148 109q0 -2 3 -4t5 -2
h24q0 2 -0.5 4l-1 4t-2 3.5t-4.5 1.5h-19q-3 0 -4 -2.5t-1 -4.5zM50 91v1q0 1 0.5 2.5t1.5 2.5v0v0q5 0 7.5 -5t3.5 -11t1.5 -12t0.5 -8q0 -9 -2 -16t-7 -15h-2q-4 0 -5 2.5t-1 5.5t1 6t2 6.5t1.5 7.5t0.5 8q0 6 -1.5 12.5t-1.5 12.5zM97 92q0 1 0.5 2t1.5 1q2 0 4 -2
t3.5 -5t2 -6t0.5 -5l0.5 -2.5t0.5 -5.5v-5.5v-3.5v-4.5v-5.5t-0.5 -5l-0.5 -2v-5t-1 -5.5t-3 -4t-4 -1.5q-3 0 -3.5 0.5t-0.5 3.5t1 8t4 8v3v3.5v3.5v2q0 9 -2.5 17t-2.5 16zM180 55q0 1 4 3.5t8.5 5.5t8 5.5l3.5 2.5q7 0 7 -7q0 -4 -2.5 -7.5t-7 -5.5t-10 -3.5t-10 -2.5
t-8 -2t-4.5 -3v-22q0 -4 -1.5 -5.5t-4.5 -1.5t-6 1t-3 5v1l0.5 2.5t1 6t0.5 6v2.5q0 5 -3 7.5t-7 4.5t-9 3t-9.5 2.5t-7.5 4t-3 6.5q0 2 2 2h4q3 0 7.5 -2t10 -5.5t11.5 -5.5t11 -2h1q1 0 3.5 0.5t5 1.5t4.5 1.5t3 0.5z" />
</svg>
