<?xml version="1.0" standalone="no"?>
<!DOCTYPE svg PUBLIC "-//W3C//DTD SVG 1.1//EN" "http://www.w3.org/Graphics/SVG/1.1/DTD/svg11.dtd" >
<svg xmlns="http://www.w3.org/2000/svg" xmlns:xlink="http://www.w3.org/1999/xlink" version="1.1" viewBox="-10 0 266 256">
   <path fill="currentColor"
d="M159 200q0 11 3.5 21t10.5 18q4 4 7.5 8t10.5 4q2 0 3.5 -1.5t1.5 -3.5v-1q-12 -9 -20 -21t-8 -27q0 -4 6 -10l13 -13t13 -14.5t7 -14.5v-2.5t0.5 -6t0.5 -7v-6.5v0v-1q0 -1 -1 -4t-2 -6.5l-2 -7t-1 -4.5q-3 -3 -7 -6t-8 -5.5t-6.5 -6t-2.5 -8.5t2.5 -6t6 -1.5t7.5 -1
t7.5 -2.5t6 -6.5t2.5 -14.5q0 -8 -5 -11.5t-12 -5t-15 -1.5h-14v0q-3 0 -7.5 0.5t-9.5 1t-8.5 1l-3.5 0.5q-6 1 -11 5.5t-5 11.5q0 12 4 16.5t11 6t15 1t16 1.5q3 1 4 3.5t1.5 6t1.5 6.5t3 4l2 1.5l2 1.5l8.5 8.5t6 7t4 8t1.5 11.5q0 10 -3 18.5t-10 16.5q-1 1 -2 2.5
t-2.5 3t-2.5 2l-1 0.5h-2q-2 4 -5 7.5t-6 6.5t-4.5 7t-1.5 9zM67 154q0 19 4 37.5t9 36.5q1 2 2 3.5t3 1.5q3 0 4 -1t1 -4q0 -5 -1.5 -10l-3 -10t-3.5 -10t-3 -9q-3 -10 -3.5 -21t-0.5 -22q0 -12 2.5 -23t5 -22.5l5 -23t2.5 -23.5q0 -5 -0.5 -12t-2.5 -13.5t-6 -11.5t-11 -5
q0 5 2 10t4.5 10t4.5 10t2 11q0 7 -1 12.5t-2 10.5t-3 10t-3 11q-3 13 -5 28t-2 29zM56 218q1 2 2 2h2q2 0 4 -2.5t2 -5.5q0 -5 -3 -10t-4 -10q0 -2 -0.5 -6.5l-1 -9t-1 -8.5t-0.5 -6v-12q0 -8 2 -16.5t2 -15.5q0 -2 -1 -4t-3 -2q-4 0 -5.5 3t-2 7t-1 7.5t-0.5 6.5v42
q3 10 4.5 20t4.5 20zM99 214q1 0 1.5 0.5l0.5 0.5h1q3 0 4.5 -2t1.5 -5q0 -5 -3 -9t-4 -9q-3 -10 -4 -18.5t-1 -19.5q0 -9 1 -17.5t1 -17.5v-3t-3 -2q-1 0 -2.5 5t-2.5 11t-1.5 12.5t-0.5 8.5q0 17 3 33t8 32zM117 167q0 4 2 6t5 3.5t6.5 2.5t5.5 1q3 0 5 -0.5t5 -3.5
q0 -1 1.5 -3t3 -5t3 -5.5t1.5 -3.5q1 -2 4 -3.5t5.5 -2.5t4 -2.5t1.5 -4.5q-10 0 -15 4t-8 9t-5 9t-8 4q-3 0 -6 -2.5t-3 -5.5q0 -2 4.5 -7t10.5 -10t11 -9t7 -4q3 0 5.5 1t4.5 1q4 0 6 -1.5t3.5 -3.5t2 -5t0.5 -6t-1.5 -6.5t-3.5 -7t-5 -6t-6 -3.5q-1 0 -3 -0.5l-4 -1
l-4 -1l-2 -0.5q-3 -1 -4 -4t-1.5 -6t-1 -5t-3.5 -2q-1 0 -3 1t-2 2v2l0.5 1.5t0.5 3t0.5 2.5t0.5 2q0 2 -4.5 3.5t-10 4.5t-10 7.5t-4.5 12.5q0 3 0.5 5.5t2 5t4 3.5t5.5 1h1l2 -0.5t5 -1t5 -1l2 -0.5h1h2q2 0 3.5 0.5t1.5 2.5q0 6 -4 9t-9.5 5.5t-9.5 7t-4 11.5zM115 119
q0 -4 3.5 -8t8.5 -7t10 -4.5t9 -1.5q5 0 9.5 2t8 5t6 7t2.5 8q0 3 -1 5t-4 2q-4 0 -7.5 -2.5t-7.5 -4.5h-1q-1 0 -4.5 1t-7 2.5t-7.5 2.5t-8 1t-6.5 -1.5t-2.5 -6.5zM96 89q0 1 0.5 2t2.5 1t4 -4t4 -9.5t3 -10.5t1 -7v-1q0 -2 -0.5 -5.5t-1 -8t-1 -8t-0.5 -5.5l-4 -6t-5 -3
h-1v0l-0.5 0.5t-1.5 0.5v1q0 4 1 7.5t2.5 7.5t2.5 8t1 7q0 5 -1 9t-2.5 8t-2.5 7.5t-1 8.5zM58 82v3.5t3 2.5t5 -3.5t3 -8t1.5 -8.5t0.5 -6t-1 -7.5t-2 -11.5t-3.5 -10.5t-6.5 -4.5q-2 0 -3.5 1t-1.5 3q0 3 1 7t3 7.5t3 7.5t1 8q0 5 -1.5 9.5t-1.5 10.5zM147 35
q0 -1 1.5 -1.5t3.5 -0.5h3.5h1.5q5 0 8 2t5.5 4.5t4.5 6.5t4 7q1 1 1.5 2l0.5 1v1q0 2 -1.5 3t-3.5 1h-4h-3h-5.5t-4.5 -3q-3 -4 -6.5 -10t-5.5 -12v-1zM126 47q0 -4 2.5 -8t7.5 -4q3 0 5 2.5t3.5 5.5t2.5 7t1 6q0 3 -2 3.5t-5 0.5q-5 0 -10 -3.5t-5 -9.5zM177 33h2
q1 0 3 0.5t4.5 0.5t4.5 0.5t3 0.5q5 3 5 10v3q0 3 -0.5 4.5t-2 2.5t-3.5 1q-3 0 -5.5 -2.5t-5 -6.5t-4 -8t-1.5 -6z" />
</svg>
