<?xml version="1.0" standalone="no"?>
<!DOCTYPE svg PUBLIC "-//W3C//DTD SVG 1.1//EN" "http://www.w3.org/Graphics/SVG/1.1/DTD/svg11.dtd" >
<svg xmlns="http://www.w3.org/2000/svg" xmlns:xlink="http://www.w3.org/1999/xlink" version="1.1" viewBox="-10 0 266 256">
   <path fill="currentColor"
d="M202 242q0 6 6 6q2 0 4 -1t2 -4q0 -16 -0.5 -30.5l-1 -29t-0.5 -29.5v-31q-1 -13 -6 -16.5t-18 -2.5q-2 0 -2.5 -3.5l-0.5 -3.5v-1v-1v-5t0.5 -8t0.5 -8v-5q2 -6 9 -6h1.5h1.5q2 2 3 5.5t1 4.5t-1 3l-1 2v3v5v4v4q1 1 1.5 1h1.5q4 0 5.5 -3t2.5 -6v-3v-4.5v-4.5v-3v-9.5
t-0.5 -13t-2.5 -11.5t-6 -5h-5.5h-5.5h-14t-12.5 2t-8.5 7t-4 14v2v5v4v4v3v5v4.5v3.5q1 2 2 5t3 4l3 -3v-7t0.5 -10t0.5 -10v-7q1 -6 3 -9.5t5 -5t7.5 -2t10.5 -0.5q4 0 7 0.5t6 2.5v5v3.5t-2 2.5l-18 3l-0.5 0.5l-1 1t-1 2l-0.5 1.5q-1 9 -1.5 20t-0.5 20l-1 1
q-1 1 -4 1.5t-5.5 1t-5.5 1.5t-4 1t-3.5 1.5t-2.5 3.5l-3 15v57l-1 8l-1 52h2h1h3t2 -1q1 -4 1.5 -7t0.5 -6v-6v-7q0 -13 -1 -26.5t-1 -26.5v-7v-8v-7v-3l0.5 -2.5t1 -6t1 -6.5t0.5 -5q1 -4 5 -6t8.5 -3t9.5 -0.5t7 0.5h3h4h4h2q2 0 3 2t1.5 4t0.5 3.5v2.5v8v13v13v8
q0 1 0.5 3.5t0.5 5.5t0.5 6l0.5 3v14v14q-1 2 -2 6t-1 8v9v7zM59 140q0 3 1 11.5t2 20.5t3.5 25t5 24t6.5 18t9 7q4 0 4.5 -1t0.5 -5t-2 -7.5l-4 -7t-4 -7.5t-3 -7q-5 -19 -7 -38t-2 -39q0 -11 2 -21.5t5 -20.5t5.5 -20.5t2.5 -21.5v-9t-1 -12.5t-3.5 -11.5t-7.5 -5
q-3 0 -4.5 1t-1.5 4v1q0 1 1 2.5l2 3t2 3.5l1 2q1 4 1 10.5v10.5q0 11 -2 22.5t-4.5 22.5t-5 22.5t-2.5 22.5zM45 148q0 16 1.5 32.5t5.5 33.5q1 3 1 5.5v4t1 3.5t2 5h3h2t1 -1t0.5 -4l0.5 -3q0 -7 -2 -13t-3 -13q-5 -27 -5 -55q0 -6 1 -11.5t1 -11.5q0 -2 -1.5 -4t-4.5 -2
v0q-1 0 -1.5 0.5l-0.5 0.5q-2 7 -2 16v17zM77 118q0 24 2.5 47.5t9.5 46.5q1 3 2.5 4t4.5 1q2 0 3 -0.5t1 -2.5q0 -3 -2 -5t-3 -4q-3 -12 -6 -22.5t-3 -24.5v-7.5v-11.5v-11.5v-7.5q0 -1 -1 -1.5l-1 -0.5h-3.5h-3.5zM97 191q2 4 5.5 6.5t8 3.5t9.5 1h10h2h4t4 -1t2 -3
q0 -3 -3.5 -3h-7.5h-7.5t-3.5 -3v-15q0 -2 2.5 -2.5t5.5 -1t6 -2t3 -5.5v-40q0 -3 -2 -3.5t-4 -0.5v6v10.5v10v6.5v5q0 2 -0.5 3.5t-2 3t-3.5 1.5q-3 0 -4.5 -6t-2 -13t-0.5 -13v-8v-2q1 -7 1.5 -8.5t1.5 -2t2.5 -1t3.5 -4.5q2 -1 2 -3.5v-5.5v-4.5v-4.5q0 -1 0.5 -3l1 -4
l1 -4t0.5 -3v-1v0q0 -2 -1 -4.5t-3 -2.5q-3 0 -4 1t-1 2.5t0.5 3.5t0 4t-3 3t-8.5 2q-2 0 -4.5 0.5t-4 0.5h-2.5v6h20q0 1 -0.5 3.5t-1 5.5t-1 5.5t-1.5 2.5h-20q-3 0 -4 2.5t-1 3.5h3.5h5t5 0.5t3.5 0.5l1.5 0.5l1.5 0.5q-1 12 0.5 23t1.5 23v13l-0.5 2.5t-1 5.5t-1 5
t-2.5 2t-3 -1.5t-2 -3.5t-1.5 -4t-1.5 -3v-4.5t-0.5 -7.5t-0.5 -7.5v-5.5v-17q-1 -2 -1 -3.5t-2 -1.5q-3 0 -3.5 3.5t-0.5 5.5v6q1 2 1 8t0.5 13t1 13t1.5 9zM168 127v0l-2 2l-1 1v61q0 2 1 4t3.5 3t4.5 1.5t4 0.5q8 0 12 -3t5.5 -8t1.5 -11.5v-12.5q0 -10 -1 -19t-1 -19
l-1 -1l-2 -2v0h-1q-2 1 -2.5 3t-0.5 4q0 3 0.5 6t0.5 6q0 11 -10 11h-1t-2.5 -0.5t-2.5 -0.5t-1 -1v-23l-1 -0.5t-2 -1.5h-1zM172 163l3 -3h13v28q0 2 -3.5 3t-5.5 1q-3 0 -5 -1t-2 -5v-23zM83 100l1 0.5t2 0.5q4 -1 7 -6.5t5 -11.5t3 -11.5t3 -5.5q4 -1 7 -0.5t6.5 0
t6.5 -1.5t7 -3q2 -2 2.5 -5t0.5 -6v-7.5v-6.5v-7q-1 -2 -2 -2h-2q-2 0 -4.5 0.5t-2.5 2.5v23q0 3 -2 4t-4.5 1.5t-4.5 0.5h-4h-4q-1 -2 -1 -6q0 -5 -0.5 -10t-2 -8t-6.5 -3q-1 0 -2.5 1.5t-1.5 2.5q0 5 2 10t2 10q0 2 -0.5 5.5t-0.5 4.5q0 3 -1.5 8t-3.5 10.5t-4 10t-1 5.5z
M47 92q0 2 0.5 3.5t2.5 1.5q4 0 6.5 -5t3.5 -10.5t2 -11.5t1 -8v-7t-1 -8.5t-3 -8t-7 -3.5q-2 0 -3 1.5t-1 3.5q0 3 1 7l2 8t2 7.5t2 6.5q-2 5 -5 11t-3 12z" />
</svg>
