<?xml version="1.0" standalone="no"?>
<!DOCTYPE svg PUBLIC "-//W3C//DTD SVG 1.1//EN" "http://www.w3.org/Graphics/SVG/1.1/DTD/svg11.dtd" >
<svg xmlns="http://www.w3.org/2000/svg" xmlns:xlink="http://www.w3.org/1999/xlink" version="1.1" viewBox="-10 0 266 256">
   <path fill="currentColor"
d="M134 247q0 2 1.5 3t2.5 1q3 0 5 -1.5t3 -3.5q0 -1 0.5 -3.5t1 -5.5t1 -5.5t0.5 -3.5l1 -2l1 -2v-11t1 -11t4 -8.5t10 -3.5q3 0 5.5 4.5t4 11.5t2.5 14.5t2.5 14.5t4 11.5t6.5 4.5q2 0 3.5 -1.5t1.5 -3.5q0 -6 -2.5 -13t-5.5 -13.5t-6 -13.5t-3 -14q0 -1 2 -2.5t4 -2l4 -1
l2 -0.5q5 -2 7 -8t2.5 -13t0.5 -14v-11v-2v-4t-0.5 -3.5t-0.5 -2.5q-1 -2 -1 -5q0 -2 -1 -5q-1 -2 -2 -2t-2.5 -0.5t-2.5 -1t-1 -2.5q0 -5 1.5 -8t3.5 -5t4.5 -4t5.5 -5q1 -5 1.5 -8.5t0.5 -8.5q0 -3 -1 -5.5t-5 -2.5v0h-1q-1 1 -1 5v6t-0.5 6t-3.5 3v-1q-2 -5 -2.5 -10.5
t-1.5 -10.5l-0.5 -0.5l-0.5 -0.5h-0.5h-0.5h-0.5h-0.5q-1 2 -1.5 6t-0.5 8.5t-0.5 8t-2.5 3.5q-3 0 -3.5 -3t-1 -6.5t-0.5 -6.5t-2 -3q-3 0 -3 3v3q0 5 0.5 9t2.5 8q1 2 2.5 3t3 2.5l3 3t1.5 3.5q0 6 -2 8.5t-5.5 3t-8 0t-9.5 -0.5h-1.5t-3 0.5t-2.5 0.5h-2v0h-1
q-3 0 -5.5 -2t-2.5 -5q0 -5 2 -9t5 -8t5 -8t2 -9v-2.5t-0.5 -3t-1.5 -2.5t-2 -1q-2 0 -2 3v7t-0.5 7t-3.5 3h-0.5h-0.5l-2 -2l-1 -1v-18q0 -3 -3 -3q-2 0 -2.5 1t-0.5 3v20l-1 1.5t-2 1.5v0h-1t-1.5 -1t-1.5 -2.5t-1.5 -2.5l-0.5 -1q0 -1 -0.5 -3l-1 -4l-1 -4t-0.5 -3l-2 -2
l-1 2v18q0 5 2.5 6.5t5.5 2.5t6 4t3 12q0 5 -2 8.5l-4 7t-3.5 7.5t-1.5 9v5q0 1 0.5 5.5t0.5 9t0.5 8.5t0.5 6q1 4 3 6t4.5 3t4 2.5l3.5 3.5v4.5v5.5q0 11 -3.5 22.5t-7.5 21.5v0.5v0.5zM66 153q0 4 1 12t2.5 18.5t4 21.5t5.5 20t6.5 15t7.5 6q2 0 3.5 -0.5t1.5 -2.5v-1
q-10 -20 -17.5 -41.5t-7.5 -44.5q0 -13 3 -25.5t6.5 -24.5t6.5 -24.5t3 -25.5v-2v-3v-3.5v-2.5q-1 -3 -2.5 -7t-3.5 -8.5t-5 -7.5t-6 -3q-2 0 -3.5 0.5t-0.5 2.5q0 5 2.5 9l5 8t4 8.5t1.5 11.5q0 6 -1 11.5t-2.5 10.5t-3.5 10.5t-4 10.5q-3 13 -5 25.5t-2 25.5zM49 160v7v8
v7v4l0.5 4t1.5 9t2 9.5t1 7.5q0 2 1 5.5l2 7t3 6t5 2.5q2 0 2.5 -1t1.5 -5v-1q0 -3 -1 -5.5t-2 -5.5t-2.5 -5.5t-2.5 -5.5q-3 -13 -4.5 -25t-1.5 -26q0 -11 2 -21t2 -21q0 -2 -0.5 -3t-2.5 -2l-5 5l-0.5 1.5t-0.5 3.5t-0.5 4.5t-0.5 3.5v5v9v10v8zM90 147v24l0.5 3t1 6.5
t1 6.5t0.5 5t1.5 6.5t3.5 10t4 9.5t3 4q3 1 4 -1.5t1 -3.5q0 -3 -1 -6.5t-2.5 -6.5l-3 -6t-2.5 -6q-2 -10 -2.5 -19.5t-0.5 -19.5q0 -9 0.5 -18t0.5 -18v-3.5t-2 -2.5t-3 1.5l-2 3t-1.5 3.5t-0.5 3v25zM163 164h24q2 0 2 3v3q0 6 -4.5 9t-10 4t-12 1h-9.5q-2 0 -4 -0.5
l-4 -1t-3.5 -1.5t-1.5 -3v-10q0 -2 3 -2h6.5h7.5t6 -2zM137 151q0 -3 1 -4t4 -2q1 0 5 -0.5t9 -0.5t9 -0.5t5 -0.5h2h2.5h3.5h3h5h5q2 1 2 3v3q0 3 -0.5 5t-4.5 3q-10 1 -17.5 1.5t-16.5 0.5h-5t-5.5 -0.5t-4.5 -2.5t-2 -5zM137 134q0 -5 3.5 -8t9 -4t11 -1h8.5t7 -0.5
t7.5 0.5t6 3t2.5 7l-0.5 1.5l-0.5 1.5q-3 2 -8 3t-10 1h-10h-9h-3q-2 0 -4.5 -0.5t-4.5 -0.5h-4q-1 0 -1 -0.5v-2.5zM161 110l2 2q2 -2 3 -5t1.5 -6.5t0 -6.5t-0.5 -5t0.5 -6t0.5 -9t0.5 -9t0.5 -6q2 -1 5.5 -1.5t7.5 -1.5t7.5 -2.5t5.5 -3.5q2 -6 3 -10.5t1 -10.5
q0 -3 -1 -5t-4 -2h-3q0 4 -1 9t-2.5 8.5t-4.5 6t-8 2.5h-2h-1l-2 -3v-4v-6v-7v-4v-3v-4t-1 -3.5t-3 -1.5t-3.5 0.5t-1.5 2.5q0 3 1 5.5t1 5.5v1q0 1 -0.5 4t-0.5 6.5t-0.5 6.5t-0.5 4q0 2 -2 2h-3t-4 -1t-5.5 -2t-4.5 -2.5t-2 -3.5v-16l-1 -0.5t-2 -0.5t-3.5 -0.5l-2.5 -0.5
q0 6 1.5 13.5t3.5 11.5q1 2 5 4t8.5 3.5t8 2t3.5 1.5v51zM52 90q0 3 1.5 3.5t3.5 0.5q4 0 6.5 -3.5t3.5 -8t1 -9.5v-7v-3v-3v-4v-2q-1 -4 -3.5 -7.5t-6.5 -3.5q-2 0 -3 1t-1 3q0 4 2.5 9t2.5 11q0 3 -1 6t-2.5 6t-2.5 5.5t-1 5.5zM98 90v2.5t1 1.5q4 0 7 -5t5 -11.5t2.5 -13
t0.5 -8.5q0 -3 -0.5 -6.5t-1.5 -6.5t-3.5 -5t-6.5 -2q0 6 2.5 10.5t2.5 9.5q0 6 -1.5 10.5l-3 9t-3 8t-1.5 6.5z" />
</svg>
