<?xml version="1.0" standalone="no"?>
<!DOCTYPE svg PUBLIC "-//W3C//DTD SVG 1.1//EN" "http://www.w3.org/Graphics/SVG/1.1/DTD/svg11.dtd" >
<svg xmlns="http://www.w3.org/2000/svg" xmlns:xlink="http://www.w3.org/1999/xlink" version="1.1" viewBox="-10 0 266 256">
   <path fill="currentColor"
d="M67 155v0.5v0.5q0 9 0.5 22t2.5 26t5.5 25.5t9.5 21.5h2q3 0 3 -2v-4q0 -8 -3 -16t-5 -16q-3 -12 -4 -24.5t-1 -24.5v-17.5t1.5 -21.5t4 -21.5t7.5 -16.5v-43q0 -4 -2 -9.5t-5.5 -10t-8 -7.5t-9.5 -3q0 6 2.5 11.5t6 11t6 11t2.5 11.5q0 9 -1 15t-2 11.5t-2.5 11
t-3.5 13.5q0 1 -0.5 5.5t-1 9.5t-1 9t-0.5 5t-0.5 3t-1 4.5t-1 4.5t-0.5 3v0.5v0.5zM121 200v11t1.5 12.5t4 12t6.5 8.5l1 1.5t2 2.5t2.5 2t2.5 1h56q1 0 3 -0.5t2 -1.5q6 -3 9 -6.5t4.5 -8t2 -9t0.5 -10.5q0 -16 -1.5 -25t-6 -13t-13 -4.5t-24.5 -0.5q-7 0 -16 0.5
t-16.5 3.5t-13 8.5t-6.5 15.5zM40 181q0 3 0.5 8.5t1.5 12.5t2.5 14.5t3 13.5t4 10t5.5 4t4 -1t3 -4v0v-1q-1 -1 -2 -3.5t-2 -3.5q-3 -12 -6.5 -24.5t-3.5 -25.5q0 -8 0.5 -16t2 -15t3 -14.5t3.5 -15.5v-1v-2q0 -2 -1.5 -3t-3.5 -1q-3 0 -4.5 2.5t-2.5 4.5q-3 15 -5 30
t-2 31zM132 209q0 -5 0.5 -9t2 -7t4 -5.5t7.5 -5.5q1 -1 2 -1.5t2 -0.5h47q4 0 6 4.5t3 9.5t1 10.5v7.5v5.5t-0.5 5l-1 5l-1.5 7.5q-2 2 -5 3.5t-6.5 3t-6.5 2t-5 0.5h-38q-3 0 -5 -4.5t-3.5 -11t-2 -12t-0.5 -7.5zM90 161v11v9t0.5 8.5t1.5 10.5q0 3 1 9t3 12t4.5 10.5
t5.5 4.5t3.5 -1.5t0.5 -4.5v-2.5v-1.5q0 -1 -1.5 -2.5l-2.5 -2.5q-4 -9 -6.5 -21.5t-2.5 -22.5q0 -15 2.5 -29t2.5 -28q0 -2 -2 -3t-3 -1q-2 0 -2.5 0.5l-1.5 1.5q-3 5 -3 12v11v20zM149 210q0 6 2 10t5 5.5t8 2t11 0.5h4.5t4.5 -0.5t4 -1.5t3 -3q2 -6 2.5 -9t0.5 -7
t-2 -6.5t-4.5 -3.5t-6.5 -1h-7q-3 0 -7 0.5t-8 2t-7 4t-3 7.5zM156 211q0 -3 2.5 -4.5t5.5 -2.5t6.5 -1h4.5h4h3q2 1 3 3t1 4v2.5t-0.5 3t-1 2.5t-2.5 1h-19q-4 0 -5.5 -3t-1.5 -5zM113 157q-1 2 -1.5 3.5t-0.5 3.5h7l7 -3.5t10.5 -5t10.5 -5t7 -2.5q0 -1 2 -1.5t4.5 -1.5
t4.5 -1.5t4 -1.5v0h1q1 1 3 1.5t4.5 1.5t4.5 1.5t3 1.5q1 0 2 0.5t2 0.5q1 1 4 3t7 4.5t7 4.5t5 3h2q3 0 4 -1t1 -4q0 -5 -3.5 -7.5t-9 -4.5t-11.5 -3.5t-11 -2.5t-8.5 -3t-3.5 -5v-21q0 -2 2 -2h3q4 0 8 2t7.5 4t7 3.5t8.5 1.5q4 0 4 -4q0 -3 -1.5 -5.5t-5.5 -3.5l-30 -8
q-3 -1 -3 -3v-4q0 -3 2.5 -6t5.5 -5.5t6.5 -5t5.5 -4.5h1q3 0 5 3.5t4.5 7.5t4.5 7.5t6 3.5q1 0 2 -1l1.5 -1.5t0.5 -2v-1.5q0 -2 -3 -6.5t-7.5 -9t-8.5 -8t-7 -3.5h-1l-1.5 1.5l-3 3l-3 3t-2.5 1.5q-1 2 -1.5 4t-3.5 2q-1 0 -1.5 -0.5l-1.5 -1.5v-3v-3q0 -5 0.5 -9t1.5 -10
l3 -3t4 -2h0.5h0.5l2 1t3 1l3.5 0.5l7 1t7.5 1t7 0.5v0.5t1 0.5q4 0 4 -4q0 -2 -1 -3t-3 -2q-3 1 -9 1q-5 0 -10.5 -0.5t-10.5 -2t-8 -3.5q0 -2 0.5 -6.5t-0.5 -8t-3 -7t-6 -3.5q-1 0 -2.5 2t-1.5 3v22l-2 2q-1 0 -4.5 0.5t-8 1t-8 1t-5.5 0.5h-1.5t-3 0.5t-2.5 1.5t-1 2
q0 2 3 2.5t4 0.5q6 0 11 -1.5t11 -2.5q4 0 6 4.5t2.5 10.5t0.5 11.5v8.5q-1 0 -3 1t-2 0q-3 -1 -5 -4.5l-4 -7t-4.5 -6t-5.5 -2.5t-6.5 4t-6.5 9.5t-5.5 11t-2.5 7.5q5 0 7.5 -3t4.5 -6.5t4 -6.5t6 -3q3 0 4.5 1.5t2 3.5t2 4t2.5 3q2 1 4 1.5t3.5 1t2 2t0.5 3.5q0 4 -3 6
t-7.5 3.5t-10 3t-10.5 3t-8 4.5t-3 7q6 0 11 -2t9 -4l8 -4t7 -2t5 3q0 1 0.5 3t1 4.5t0.5 4.5v3v1q0 4 -3.5 7t-8 5t-9 3.5t-7.5 3.5q-1 0 -4 1.5l-6 3l-6 3t-4 1.5zM52 91q0 4 4 4q8 0 9 -8v-15v-8q0 -6 -1 -12t-3.5 -10t-7.5 -4q-2 0 -3.5 1.5t-1.5 3.5q0 3 1.5 6t2.5 6.5
t2.5 7t1.5 7.5q0 6 -2 11t-2 10zM100 89q0 2 1 2.5t2 0.5q4 0 6 -4.5t3 -10t1 -11v-8.5v-5.5t-1 -7.5t-3 -6.5t-6 -2.5q-2 0 -2.5 1.5t-0.5 2.5v1v0q0 1 2 4t3 4v2.5v3.5v3v2q0 8 -1.5 14.5t-3.5 13.5v1z" />
</svg>
