<?xml version="1.0" standalone="no"?>
<!DOCTYPE svg PUBLIC "-//W3C//DTD SVG 1.1//EN" "http://www.w3.org/Graphics/SVG/1.1/DTD/svg11.dtd" >
<svg xmlns="http://www.w3.org/2000/svg" xmlns:xlink="http://www.w3.org/1999/xlink" version="1.1" viewBox="-10 0 266 256">
   <path fill="currentColor"
d="M171 208q0 1 0.5 4.5t1 8.5t1.5 10t2 9.5t3 7.5t4 3q6 0 6 -6t-1.5 -11.5l-3 -11t-2.5 -11t-1 -10.5v-2v-4t0.5 -6.5t0.5 -6v-3.5q1 -1 1.5 -2t0.5 -2h1q1 0 2.5 1.5t2 3l1 3t1.5 2.5q0 1 1 2.5t2 3.5t1.5 4t1.5 2q2 2 4 2h5h3q1 -1 2.5 -3t1.5 -3q-1 -1 -3 -2.5t-4 -3.5
t-3.5 -4t-2.5 -3l-1.5 -2.5t-2.5 -4.5t-2 -4.5t-2 -2.5l-2.5 -5t-1.5 -6q0 -5 2 -9t4.5 -7.5t5 -7.5t2.5 -8q0 -3 -1 -5t-4 -2t-4.5 2.5t-3 6t-3 6.5t-3.5 5q-2 -1 -3.5 -5.5t-3 -11t-2 -12t-0.5 -8.5v-2h2.5t5 -0.5t4.5 -0.5h3q3 -1 5.5 -1.5t2.5 -4.5q0 -2 -3 -2.5
t-5 -0.5q-3 0 -5.5 1t-6.5 1q-5 0 -5 -5t3.5 -6.5t7.5 -2.5t8 -2.5t4 -6.5q0 -2 0.5 -6t0.5 -8.5t0.5 -8.5t0.5 -6v-1q0 -2 -2 -4.5t-4 -2.5h-1q-1 0 -1 1q0 2 -0.5 8t-1 12.5t-1 11.5t-2.5 5h-10l-1 -2.5t-1 -3.5v-1v-1q0 -1 0.5 -6.5t1 -11.5t1 -11t0.5 -7v-1v-1
q0 -2 -1 -4t-3 -2t-3.5 2t-1.5 3v3v5v5v3q0 3 -0.5 10t-0.5 15.5t-0.5 16t-0.5 10.5l-0.5 0.5l-0.5 0.5q-5 1 -11 2t-12 1.5t-11.5 0.5t-9.5 1q-3 0 -4 2t-1.5 5t-0.5 5.5t-2 4.5q1 23 -1 46.5t-3 46.5v18q-4 6 -4 11q0 2 2.5 4.5t4.5 2.5q0 -1 2 -2.5t2 -2.5t0.5 -4.5
t0.5 -8t0.5 -8t0.5 -4.5v-1.5t0.5 -3t0.5 -3v-1.5v-7v-12v-12v-7q1 -6 1.5 -16t1 -19.5t1 -16l0.5 -6.5l4 -5h3t4 -0.5t4.5 -0.5h2.5q1 0 2 -0.5t2.5 -0.5t3 -0.5t2.5 -0.5t3.5 -0.5t5 -0.5t4 -0.5t1.5 0.5l3 3l8 40q2 4 2.5 8t0.5 8q0 7 -1 13.5t-2.5 13t-2.5 13t-1 13.5z
M80 235q0 2 1.5 2.5t3.5 0.5q3 0 3.5 -1.5t0.5 -4.5q0 -5 -2 -7.5t-3 -6.5q-1 -3 -2 -7.5l-2 -9t-1.5 -8l-0.5 -3.5v-2.5v-4.5v-4v-4q0 -14 1.5 -27.5l3 -27l3 -27t1.5 -27.5v-6.5t-1 -11t-2.5 -13t-3.5 -12t-4.5 -9t-6.5 -3.5t-4 4q0 3 2 5t3 5q3 10 6.5 21t3.5 22
q0 10 -1.5 20.5t-3 20.5t-3 20.5t-2.5 20.5v4v6v6v3t-0.5 2.5t-0.5 2.5q0 10 1 17t2.5 13.5t3 14t4.5 16.5zM134 199q0 1 0.5 3t1 4.5t1 5.5t0.5 4t0.5 3t1.5 2q1 4 1.5 7t2 5t4 3t7.5 1q0 -5 -2 -9.5t-4.5 -9t-4 -9t-1.5 -10.5t4 -10t9 -7t9 -7t4 -11v-23q0 -3 -2 -3.5
t-4 -0.5v5v5.5t-0.5 7t-0.5 7v4.5q-1 2 -2 3.5t-3 1.5q-3 0 -5 -3v-3v-3.5v-3.5v-2v-8q0 -4 0.5 -7.5t0.5 -7t1 -8.5q1 -1 3 -1.5l4 -1t3.5 -1.5t1.5 -3h-31q-2 0 -5 1t-4 3q1 2 3 2.5l4 1t4.5 0t3.5 -0.5l3 3q0 1 0.5 4t0.5 5v3v6.5t-1.5 6t-3.5 2.5q-3 0 -4 -2.5
t-1.5 -6.5t0 -7t0.5 -5q0 -1 -1 -1h-2q-2 0 -2.5 0.5t-0.5 2.5v19q0 4 2 5t4.5 1t5.5 0.5t3 2.5q0 1 0.5 3t0.5 4t0.5 3.5t0.5 2.5v2v1q-4 4 -7.5 8.5t-3.5 10.5zM45 186q0 4 0.5 9t2 10t4 9t6.5 4q2 0 3 -1t1 -4v-2l-0.5 -2l-0.5 -2q-1 -3 -1.5 -7.5t-1.5 -8.5t-1.5 -7
t-0.5 -4q0 -14 1.5 -26.5t4.5 -25.5q1 -3 2.5 -6.5t1.5 -6.5q0 -2 -0.5 -3t-3.5 -1l-2 0.5t-2 1.5q-1 2 -2 6t-2.5 8.5t-2.5 9t-1 5.5q-1 1 -1.5 3l-0.5 2q0 2 -0.5 7.5t-1 11.5t-1 11.5t-0.5 7.5v1zM87 147q0 2 0.5 6.5t0.5 9.5t0.5 9.5t0.5 6.5v6.5t0.5 9.5t2 8.5t5.5 3.5
q2 -1 2.5 -2.5t0.5 -3.5q0 -4 -1.5 -9.5t-1.5 -9.5q0 -1 -0.5 -5.5t-1 -9.5t-0.5 -9.5v-7.5v-3v-3q0 -1 1 -6t1.5 -10t1.5 -9.5t1 -5.5v-1v0v-1v0q-1 0 -2 -1.5l-1 -1.5h-0.5h-0.5q-3 0 -4.5 5.5t-2 12l-1 13t-1.5 8.5zM53 92q0 2 1 4.5t4 2.5q1 0 2 -1.5l2 -3t1.5 -3
t0.5 -2.5v-39q0 -7 -5 -10.5t-11 -3.5q0 4 1 7.5t3 7.5t3 7.5t1 7.5q0 7 -1.5 13.5t-1.5 12.5zM97 63q0 7 -2 13.5t-2 12.5q2 0 4.5 -0.5t3.5 -2.5q0 -1 0.5 -4.5t0.5 -6.5t0.5 -6.5t0.5 -4.5v-2q0 -2 -0.5 -7t-2 -11t-3.5 -10.5t-5 -4.5q-2 0 -2.5 1t-0.5 3q0 4 1 7.5
t2.5 7.5t3 7.5t1.5 7.5zM111 42q0 12 1 19.5t5.5 11.5t11.5 5.5t19 1.5q4 0 5.5 -0.5t1.5 -3.5t-2.5 -4t-5.5 -1t-5.5 -0.5t-2.5 -3.5v-12q0 -1 0.5 -1.5l0.5 -0.5q5 -2 8 -3.5t4.5 -3t2.5 -5t1 -8.5q0 -3 -0.5 -6.5t-4.5 -3.5q-1 0 -2.5 1.5t-1.5 3.5q0 1 -0.5 3t-0.5 4
t0.5 4t0.5 3q-1 1 -3 1.5l-2 0.5l-0.5 -0.5l-1.5 -1.5l-0.5 -1.5l-0.5 -1.5v-25l-0.5 -0.5l-1.5 -1.5h-1q-2 0 -4 2t-3 5v15v12q0 7 2 13q-2 1 -2 2.5t0.5 3.5t0 3.5t-3.5 1.5q-2 0 -3.5 -1.5t-2.5 -4t-1.5 -5t-0.5 -3.5v-4v-7v-6v-5t-1 -3.5t-3 -1.5q-1 0 -2 0.5t-1 1.5v11
z" />
</svg>
