<?xml version="1.0" standalone="no"?>
<!DOCTYPE svg PUBLIC "-//W3C//DTD SVG 1.1//EN" "http://www.w3.org/Graphics/SVG/1.1/DTD/svg11.dtd" >
<svg xmlns="http://www.w3.org/2000/svg" xmlns:xlink="http://www.w3.org/1999/xlink" version="1.1" viewBox="-10 0 266 256">
   <path fill="currentColor"
d="M147 163h1q1 1 2.5 1.5l1.5 0.5v85q0 1 1.5 1.5t2.5 0.5q2 0 3.5 -1.5t1.5 -5.5v-15q0 -14 -1 -27.5t-1 -27.5v-3t1 -4t2 -3.5t3 -1.5q4 0 7 3.5t5 9t3 12t1.5 12.5t0.5 11v7t0.5 5.5t0.5 7.5t0.5 7.5t0.5 5.5l0.5 0.5l0.5 0.5h0.5h0.5q3 0 5 -2t3 -4.5t1 -5.5v-5
q0 -6 -0.5 -14t-1.5 -16.5t-2.5 -16.5t-3.5 -13q-2 -4 -6.5 -6l-9 -4t-7.5 -4t-3 -5t1.5 -4t4.5 -2q1 0 5 -0.5l8 -1t7.5 -1t5.5 -0.5q3 -2 4 -5t1.5 -6t1 -6.5t1.5 -5.5q1 -3 3 -5t4 -3.5t3.5 -4t1.5 -7.5q0 -6 -1.5 -8t-3.5 -3t-4 -1.5t-2 -3.5q0 -5 2 -6.5l4 -3t4 -4
t2 -10.5q0 -1 -0.5 -3l-0.5 -2q0 -1 -1.5 -2.5t-2.5 -3t-2.5 -2.5t-2.5 -1q0 -1 0.5 -3.5t0 -4.5t-1.5 -3.5t-3 -1.5h-2.5t-2.5 2v12q0 1 -1 2t-3 2t-3.5 2.5t-2.5 1.5v4v4q0 4 1 6.5t2.5 5t3 4.5t1.5 5q0 2 -1.5 3.5t-3 3.5t-3 3.5l-1.5 1.5v16q2 1 4.5 4t2.5 7t-1.5 6.5
t-4 4t-6 2.5t-7.5 1q-5 0 -7.5 -1.5t-2.5 -6.5q0 -4 1.5 -6t3.5 -3.5l4 -3t4 -4.5q1 -5 2 -10.5t1 -11v-10.5v-10v-8t-0.5 -8t-2 -7.5t-5.5 -5.5v-20q0 -3 -2 -3.5t-3 -0.5q-2 0 -4 0.5t-2 3.5v22q-5 0 -8 3t-4 8v21v20t1 20q3 2 5 5.5t2 6.5t-1 6.5t-5 3.5t-8 -0.5t-6.5 -2
t-4.5 -4t-2 -7.5q0 -2 1.5 -3.5t3 -2.5t2.5 -2.5t1 -2.5v-18q-1 0 -2 -1l-2 -2t-2 -2.5t-2 -1.5v-2.5v-2.5q0 -3 2 -5.5l4 -5t3.5 -5.5t1.5 -8v-2v-1l-10 -6v-17q-6 0 -7.5 2t-1.5 4.5t-0.5 5.5t-3.5 6q-4 4 -6 6.5t-2 8.5q0 3 2 5t4 3.5l4 3t3 5.5q0 3 -2.5 5.5l-5 5t-5 6
t-2.5 8.5t2 7t4.5 2.5t5 0.5t3.5 3q0 9 1 14t4 7t8 2.5t14 0.5q5 4 5 10q0 3 -3.5 5t-8 4t-8 5t-5.5 9q0 3 -1 8.5t-1.5 12t-1 12t-1.5 7.5v3q0 6 1.5 11t0.5 11q1 1 2.5 1h3.5h2.5t0.5 -3v-8.5v-13.5v-14.5v-8.5q1 -9 3 -16t10 -13v0zM71 215l8 30q0 1 1.5 1.5t2.5 0.5
q3 0 4 -2t1 -4v-1v-1l-0.5 -1.5t-1 -2.5t-1 -2.5l-0.5 -1.5q-2 -7 -3.5 -14.5t-3 -15.5t-3 -15.5t-1.5 -14.5v-2v-6.5v-6.5v-5q0 -17 1.5 -35t7.5 -34v-50q0 -3 -1.5 -6.5t-4.5 -7t-6 -5.5t-6 -2q-2 0 -3.5 0.5t-1.5 2.5q0 3 1.5 5.5t3.5 4.5t4 4.5t3 4.5q3 7 3.5 14t0.5 15
q0 10 -2 21t-4.5 21.5t-4.5 21t-2 21.5q0 12 1.5 24.5t3.5 24.5q0 2 0.5 4.5t1.5 5t1 5v4.5zM45 158q0 18 2.5 36t6.5 35q1 3 2.5 5.5t4.5 2.5t3.5 -1t0.5 -4t-0.5 -5t-2.5 -5q-1 -3 -2 -10t-2.5 -14.5t-2.5 -14.5t-1 -10v-12q0 -12 1.5 -23.5t1.5 -22.5v-4.5t-3 -1.5h-1
q-2 0 -3 4t-2 9.5t-1.5 11.5t-1 11.5t-0.5 9v3.5zM94 215q0 1 1 3l2 4t2 3t3 1t3.5 -1.5t1.5 -3.5v-1t-1 -2l-1 -3t-2 -6.5t-1.5 -6.5t-0.5 -4q-1 -1 -1.5 -5.5t-1 -11t-1.5 -13t-1 -9.5q-1 -4 -1.5 -8t-0.5 -8q0 -8 1.5 -15.5t1.5 -15.5q0 -2 -0.5 -3.5t-3.5 -3.5
q-2 1 -3 3.5t-1.5 5t-1 4.5t-0.5 3t-0.5 4t-0.5 6v6v4q0 19 2.5 37t5.5 37zM163 82h4t3 3v7v6t-1 5.5t-2.5 4t-5.5 1.5q-2 0 -4 -1t-2 -4v-17q0 -4 3 -4.5t5 -0.5zM114 101q0 -3 2.5 -5t5.5 -2q4 0 5.5 1t1.5 5t-2 5.5t-7 1.5q-2 0 -4 -1.5t-2 -4.5zM190 100q0 -3 2.5 -5
t5.5 -2t3.5 1.5t0.5 3.5q0 4 -2.5 5t-4.5 1t-3.5 -1t-1.5 -3zM90 94v2t1 2q3 0 5.5 -3.5t3.5 -8t1.5 -9t0.5 -6.5v-14v-14v-4t-1 -3.5l-2 -3t-3 -1.5q-3 0 -4.5 3t-1.5 6q0 2 1 5l2 6l2 6t1 6q0 4 -1 7.5t-2 7.5l-2 8t-1 8zM49 88q0 3 4 3t6 -3.5t3 -9t1.5 -10.5t0.5 -7
q0 -3 -0.5 -7t-1.5 -7.5t-2.5 -6t-5.5 -2.5q-1 0 -2 0.5t-1 2.5q0 1 0.5 3.5t1.5 2.5v33l-3 4.5t-1 3.5zM153 61q0 -2 0.5 -4.5t1.5 -4.5t2.5 -3.5t3.5 -1.5q3 0 5 2t3 4.5t1 5.5v5v7q-2 2 -4.5 2h-4.5h-4q-2 0 -2 -1q-1 -1 -1.5 -5t-0.5 -5v-1zM191 62q0 -3 3 -5t5 -2
t3.5 1.5t1.5 3.5q0 4 -1.5 6t-5.5 2q-3 0 -4 -1t-2 -5zM118 65q-1 -1 -1 -3v-2q0 -3 1 -5.5t5 -2.5q2 0 4.5 1.5t2.5 3.5q0 4 -2 6.5t-5 2.5h-3t-2 -1z" />
</svg>
