<?xml version="1.0" standalone="no"?>
<!DOCTYPE svg PUBLIC "-//W3C//DTD SVG 1.1//EN" "http://www.w3.org/Graphics/SVG/1.1/DTD/svg11.dtd" >
<svg xmlns="http://www.w3.org/2000/svg" xmlns:xlink="http://www.w3.org/1999/xlink" version="1.1" viewBox="-10 0 266 256">
   <path fill="currentColor"
d="M192 196q1 6 0.5 12.5t-0.5 13.5t0.5 14t2.5 13h0.5h1.5q3 0 4.5 -2.5t1.5 -4.5q0 -10 -2 -19.5t-2 -19.5v-2q0 -1 0.5 -3t0.5 -3v-2q0 -3 2.5 -5t3.5 -4q3 -9 3 -19v-18v-4v-6v-6v-3q-1 -2 -1.5 -4.5t-2 -4.5t-3 -3.5t-4.5 -1.5h-21q-3 0 -4.5 1.5l-3 3t-2.5 4t-2 3.5v5
t0.5 7t0.5 7.5v4.5v5v7v7v4q0 2 1 5l2 6t1.5 6t0.5 5q0 11 -2 21t-4 21v1v1q0 3 0.5 4t3.5 1q4 0 5.5 -4t1.5 -10q0 -5 -0.5 -12t0 -13t3.5 -10t9 -4q2 0 2.5 1.5t1.5 3.5zM124 240q0 2 1.5 3t3.5 1t3 -1l3 -3q-1 -14 0 -25t1 -24v-7v-2t-0.5 -2t-0.5 -2.5v-1.5q0 -1 0.5 -3
t0.5 -3v-1q0 -3 0.5 -9.5l1 -13l1 -13t0.5 -8.5h2q4 0 5 3t1 7v7.5v4.5q0 6 1.5 11t1.5 11v7l-0.5 2t-0.5 4t-0.5 4l-0.5 2q0 1 0.5 2.5t0.5 3.5t0.5 4l0.5 2q0 1 -1 3.5l-1 2.5v3v4v1.5v3t0.5 3t1.5 1.5h1q1 -1 2 -1.5l1 -0.5v-79q-2 -3 -2 -7.5t-1 -8.5q0 -2 -2 -4t-4 -3
l-4 -2t-2 -2v-10q1 0 3.5 -1t5.5 -2t5.5 -2t2.5 -3v-21l-1.5 -1.5l-1.5 -1.5q-1 -1 -3 -2t-4 -1.5t-3.5 -1l-1.5 -0.5q0 -1 -0.5 -3t-0.5 -3q0 -7 3 -8.5t6 -2.5t5.5 -3.5t2.5 -11.5l0.5 -1.5t0 -3t-0.5 -3.5t-1 -2q-1 -1 -2.5 -1h-1.5v14l-1.5 1.5t-2.5 1.5q0 1 -1.5 1.5
l-1.5 0.5q-1 0 -2 -1t-1 -2v-26q0 -1 -1.5 -1h-2.5q-2 0 -3.5 1.5t-1.5 4.5v1q0 2 0.5 5.5t0.5 7t0.5 7t0.5 4.5q-1 2 -2 2h-2q-6 0 -8 -3t-2.5 -7t-1 -7t-3.5 -3q-2 0 -2.5 2t-0.5 4v3.5t0.5 5.5t1.5 5.5t3 2.5l14 3l1 2v1.5v2.5q0 5 -1 8t-3.5 4.5t-4.5 2.5t-4 2.5
t-3.5 4.5t-1.5 8v4v4q1 3 3.5 3.5l5 1l5 1t3.5 3.5q-1 9 -3.5 12t-5 3.5t-5 1.5t-3.5 6q-2 7 -3 13.5t-2 13.5t-1.5 14t-1.5 15q0 6 -1.5 13t-1.5 13q0 4 4 4q2 0 4 -3v-2.5v-3.5v-3.5v-2.5v-2t0.5 -2t0.5 -2.5v-1.5q1 -9 1.5 -16.5l1 -15t1.5 -15t4 -15.5q1 -2 2 -2.5
t2 -0.5q2 0 3.5 1.5t1.5 3.5q-1 26 -2 51.5t-3 51.5l-0.5 2.5t-0.5 3.5v0zM65 197q0 1 0.5 5t1.5 9t2 10.5t2.5 10.5t3.5 8t3 3q3 0 7 -2v-4q0 -4 -1.5 -8t-3.5 -8l-4 -8t-2 -8q-1 -9 -1.5 -19t-0.5 -18t1 -13.5t3 -13.5q0 -3 2 -11t4 -16.5t4 -16t3 -10.5t1 -6t0.5 -5
t0.5 -4.5v-5.5t-1 -11.5t-3.5 -17.5t-6.5 -16t-10 -7q-2 0 -3 1.5t-1 4.5l0.5 0.5t0.5 1.5q8 9 12 21.5t4 24.5q0 7 -1.5 14t-3.5 14l-4 14t-3 15q-3 18 -4.5 35.5t-1.5 36.5zM48 212l2 2l1 1h1h1q1 0 2 -1t1 -2v0q0 -7 -1.5 -14t-1.5 -14q0 -18 3 -35t6 -33v-3q0 -2 -1 -3
t-3 -1q-1 0 -2 0.5t-2 1.5q-1 8 -2.5 16.5l-3 17t-2.5 17.5t-1 17v2q1 1 1 6t0.5 10t1 9.5t0.5 5.5zM85 162v13.5t0.5 12t1.5 11.5t4 12h0.5h0.5h2t1 -2v-3.5v-3.5q0 -2 0.5 -5.5t-1.5 -5.5q-1 -8 -1.5 -13.5t-0.5 -12.5q0 -6 1.5 -13t3 -13.5t2.5 -13t1 -13.5q-3 0 -5.5 3
t-3.5 7.5t-2 10.5t-1.5 11.5t-1 10.5t-1.5 7zM175 185q0 -1 -0.5 -2.5t-1 -3.5t-0.5 -3.5t-1 -2.5v-2v-1q1 -1 2.5 -3t2.5 -2h20q2 0 2.5 2t0.5 4q0 9 -6 12.5t-14 3.5q-2 0 -2.5 -0.5t-2.5 -1.5zM200 142v3v4v3.5v2.5l-1 1.5l-1 1.5q-5 1 -8 1.5t-7 0.5h-3q-1 0 -2.5 -0.5
t-2.5 -1l-1 -0.5v-11l1 -1.5t2 -1.5q2 0 5 -0.5t6.5 -0.5t6.5 -0.5t5 -0.5zM172 131q0 -8 4.5 -9.5t10.5 -1.5h5h3q1 0 3 0.5t2 1.5v12l-2 1q0 1 -2 1t-4.5 0.5t-5 0.5h-4.5q-3 0 -6.5 -0.5t-3.5 -5.5zM186 104q0 2 1 2.5t2 0.5q3 0 5 -2q7 -7 11.5 -15t4.5 -19q0 -9 -5 -13
t-11 -6t-11 -3t-5 -4q0 -5 4 -7t8.5 -3t8.5 -2t4 -4q0 -2 -1.5 -2.5t-2.5 -0.5q-3 0 -8 1t-9.5 3t-7.5 5t-3 8q0 4 1.5 7t3.5 4.5l4 3t2 4.5q0 4 -2.5 8.5t-5.5 8.5t-5.5 8t-2.5 8v0.5v0.5q1 0 1.5 0.5l0.5 0.5q4 0 7.5 -5.5t7 -12.5t6.5 -12.5t7 -5.5q2 0 3 1.5t1.5 3
t0.5 4.5v4q0 10 -3.5 16.5t-11.5 13.5v0zM121 88q0 -3 1.5 -6.5t6.5 -3.5q1 0 1.5 1t1 2.5t0.5 3v2.5v6q-1 2 -3 2.5t-4 0.5q-3 0 -3.5 -2.5t-0.5 -5.5zM145 78q5 0 5 6q0 4 -2 8t-7 4v-17q0 -1 1.5 -1h2.5zM53 85q0 2 0.5 2.5t2.5 0.5q4 0 6 -4t3 -9.5t1.5 -10.5t0.5 -7
t-0.5 -5.5t-2 -7t-3.5 -6.5t-4 -3q-4 0 -4 4q0 6 2.5 11.5t2.5 11.5t-2.5 11.5t-2.5 11.5zM103 66q0 3 -1 5.5l-2 5t-1.5 5t-0.5 5.5q4 0 6.5 -4t3.5 -9.5t1 -11.5v-8q0 -1 -0.5 -5t-1.5 -7.5t-3 -6.5t-4 -3q-1 0 -2 0.5t-1 2.5v0q0 1 0.5 2t1 3t1 3l0.5 1q0 2 -0.5 3t1.5 2
q1 1 1 3.5t0.5 5t0.5 5v3.5z" />
</svg>
