<?xml version="1.0" standalone="no"?>
<!DOCTYPE svg PUBLIC "-//W3C//DTD SVG 1.1//EN" "http://www.w3.org/Graphics/SVG/1.1/DTD/svg11.dtd" >
<svg xmlns="http://www.w3.org/2000/svg" xmlns:xlink="http://www.w3.org/1999/xlink" version="1.1" viewBox="-10 0 266 256">
   <path fill="currentColor"
d="M65 166v11v11t0.5 12t1.5 11q0 3 1.5 9.5t4 13t5.5 12t6 5.5t4 -1.5t1 -4.5q0 -4 -1.5 -6t-3.5 -6q-4 -11 -7 -23.5t-4 -24.5v-2q0 -3 -0.5 -7t-0.5 -7v-7v-16.5t0.5 -18t2 -18.5t4.5 -16l1 -1.5t1 -2.5q1 -9 1.5 -17.5t0.5 -19.5v-20q-1 -4 -2 -7.5t-2.5 -6t-4.5 -4
t-7 -1.5v5q0 1 1.5 4t2.5 6.5l2 7t1 4.5t0.5 5.5t0.5 7.5q0 13 -1.5 26.5t-3.5 26.5l-0.5 1.5l-1 3l-1 3l-0.5 1.5q-1 6 -1.5 12.5t-0.5 13.5v13v12zM205 243q0 1 1 1.5t2 0.5q3 0 4 -1.5t1.5 -3t0.5 -3.5v-4q0 -24 -1 -47.5l-2 -47t-1.5 -47.5t-0.5 -48q1 -7 -2.5 -10.5
t-9 -5t-11.5 -1.5h-12v-3t-0.5 -4t-1.5 -3.5t-3 -1.5t-2.5 1t-2.5 3v13v11t0.5 14t2.5 13t7 8q1 0 4 0.5t6.5 1t6.5 1t4 0.5q2 1 3 2t2 3q-1 21 -0.5 42.5t1.5 42.5q1 0 1.5 2l0.5 2v1q0 3 -1 5.5t-1 5.5q0 14 1 28.5t3 28.5zM113 133q0 28 -2 55.5t-2 55.5q4 0 6.5 -3t3 -6
t1 -7t0.5 -7v-9q-2 0 -2 -0.5v-1.5v-14q0 -6 3 -12v-3v-4v-4v-3q0 -9 -1 -17.5t-1 -16.5q0 -6 1 -12t1 -12q0 -4 -1 -7.5t-1 -7.5t5 -6t10.5 -4t11 -5.5t6.5 -9.5q1 -8 1 -14v-14q0 -2 0.5 -6t0 -8.5t-2 -7.5t-4.5 -3t-3.5 2t0 4t0.5 4q0 1 -2 2q-10 1 -17.5 4.5t-11.5 12.5
q0 7 -0.5 12t-0.5 9.5t-0.5 9.5t-0.5 10q0 11 1 22t1 22zM156 184v0q1 0 1.5 0.5l0.5 0.5q2 7 2.5 14.5t0.5 14.5v15.5v13.5h1h2q3 0 4 -2.5t1 -6.5q0 -10 -1.5 -20.5t-1.5 -21.5v-3t0.5 -3.5t1.5 -2.5t4 -1q2 0 3.5 1.5t2.5 4t1.5 5t0.5 3.5q0 2 0.5 6l1 8t0.5 8v6l1.5 0.5
l1.5 0.5q2 0 3.5 -2.5t1.5 -4.5v-1q0 -2 -0.5 -6.5t-0.5 -9.5t-1 -10t-3 -7q-1 -3 -4 -4.5l-6 -3t-5.5 -3t-2.5 -3.5v-1.5t1 -2.5q2 -2 6 -2.5t6 -0.5q5 -1 7.5 -3.5t4 -6t2 -7.5t0.5 -8q0 -1 -0.5 -4t-0.5 -4q-2 -3 -6.5 -4.5t-9 -2t-8 -0.5t-3.5 -2v-7q0 -1 3 -1.5t7 -1.5
t7.5 -1.5l3.5 -0.5v-18l-0.5 -0.5l-1.5 -1.5v0q-2 0 -3.5 2t-2 4.5t-0.5 4.5v2q-2 2 -3.5 2h-3.5h-2.5h-3t-1.5 -2v-19l-1.5 -1.5t-2.5 -1.5t-2.5 0.5t-1.5 1.5v20q0 3 -2.5 3.5t-3.5 0.5q-3 0 -5 -2t-3 -4l-2 -4t-3 -2t-2.5 1.5t-0.5 2.5q0 6 2 8.5t4.5 3.5t6 1t6 1t4.5 3
t2 7q0 3 -4 3.5t-8.5 1t-8 2t-3.5 5.5v19q0 2 2 4t2 3q2 0 5 0.5t6.5 1.5t6 2.5t2.5 4.5q0 4 -2.5 6t-5 3.5t-6 3.5t-4.5 5q-2 4 -3 8.5l-2 9t-1.5 9t-0.5 8.5q0 5 5 5q2 0 3 -3t1.5 -8t0.5 -10.5t1 -10.5t3 -8t7 -3zM41 171v8t0.5 13.5t1.5 16t2.5 15.5t3.5 11.5t6 4.5
q3 0 4 -3t1 -5q-5 -15 -8 -30.5t-3 -30.5q0 -14 2.5 -28.5t2.5 -29.5q0 -1 -1 -2.5t-3 -1.5q-3 0 -4 3.5t-2 5.5q0 3 -0.5 9t-1 13.5t-1 13.5t-0.5 9v8zM86 185q1 2 2 8t2.5 12.5t3.5 11.5t4 5q3 0 3.5 -1.5t0.5 -4.5q0 -4 -2 -8.5t-3 -9.5q-2 -10 -3.5 -20t-1.5 -21
t1.5 -22t1.5 -21v-5q0 -1 -1 -1.5t-2 -0.5h-1q-1 0 -2 5.5t-2 12.5t-2 13.5t-1 8.5v2v1v7t0.5 10.5t1 10.5t0.5 7zM148 154v-5v-8t1.5 -7t5.5 -3h1.5h1.5q1 5 1.5 8t0.5 7q0 1 -0.5 4l-0.5 3q-1 3 -2 3.5t-3 0.5q-1 0 -3.5 -0.5t-2.5 -2.5zM166 153v-4v-3v-8.5t2 -7.5v0
q2 0 3 2.5t2 6t1 7.5v5v4.5t-3 1.5q-2 0 -3 -1t-2 -3zM177 136q0 -2 0.5 -4t3.5 -2t5.5 2t2.5 5q0 4 -2 8t-5 7q-2 -4 -3.5 -8t-1.5 -8zM142 136q2 1 2 3v4v3t-2 3v-13zM87 90v1l2 2l1 1q6 -4 8.5 -9.5t3.5 -11.5t1 -12v-13v-5t-1 -6t-3 -5.5t-5 -2.5q-2 0 -2 1.5v3.5
q0 3 1 6t1.5 6t1.5 6t1 6q0 7 -0.5 10.5t-2 6.5t-3 6.5t-4.5 7.5v1zM47 87q0 4 3 4t5 -1.5t3 -3.5q1 -9 1.5 -14.5t0.5 -13.5v-11q-2 -3 -2.5 -6t-1.5 -5t-3 -3.5t-7 -1.5q0 5 1 9t2 8.5l2 9t1 9.5q0 2 -1 5t-1.5 5t-1.5 4.5t-1 5.5zM121 67l3 -3h20q1 0 1 2.5v2.5
q0 3 -2 5.5t-5 4.5t-7 3t-6 1h-1l-1.5 -0.5l-1.5 -0.5v-15zM176 64v-5l2 -0.5l2 -0.5h1h1h3.5t5 0.5t4.5 0.5h3q2 0 2 3v4v3t-2 3h-4h-4h-6q-2 0 -4 -0.5t-3 -2.5t-1 -5zM121 51q0 -3 2 -5.5t4.5 -3.5t5.5 -1.5t6 -0.5q4 0 6 1.5t2 5.5v2q0 1 -0.5 3t-0.5 3t-1 1l-21 2
q-1 0 -1.5 -1l-1 -2t-0.5 -2.5v-1.5zM172 43v-2t0.5 -2.5t1 -2.5t2.5 -1h17q1 0 2 1t1.5 1t1 0.5l0.5 0.5v13h-24l-0.5 -1t-1.5 -2v-5z" />
</svg>
