<?xml version="1.0" standalone="no"?>
<!DOCTYPE svg PUBLIC "-//W3C//DTD SVG 1.1//EN" "http://www.w3.org/Graphics/SVG/1.1/DTD/svg11.dtd" >
<svg xmlns="http://www.w3.org/2000/svg" xmlns:xlink="http://www.w3.org/1999/xlink" version="1.1" viewBox="-10 0 266 256">
   <path fill="currentColor"
d="M148 219l2.5 1.5t2.5 3.5v24q3 0 6 -1t3 -4v-19l0.5 -0.5t0.5 -1.5q1 0 2 -0.5l1 -0.5h22q1 0 1.5 1t0.5 2.5v2.5v2v3l-1 2l-1 2q0 1 1 3t2 2l7 -6v-53q0 -2 -2.5 -5t-4.5 -5q-8 1 -14 0t-14 -1h-1q-2 0 -6.5 0.5t-9.5 1t-9.5 1t-5.5 0.5q-8 2 -11 8t-4 14t-0.5 16
t-0.5 14l-1 2l-1 2q0 2 2.5 4.5t3.5 2.5q3 0 3.5 -1.5t0.5 -3.5t0.5 -4t1.5 -4t4.5 -3.5t9.5 -1.5h4.5h4.5zM68 153q0 2 1 9.5t3 17.5t4.5 20.5t6 19.5t6.5 15t7 6q2 0 2.5 -0.5t0.5 -4.5q0 -3 -1.5 -7.5t-4 -9l-5 -9t-3.5 -8.5q-2 -7 -3.5 -12.5t-2.5 -11.5t-1.5 -12
t-0.5 -13q0 -13 2 -26t4.5 -26.5t4.5 -26.5t2 -26v-16q0 -2 -1 -5t-2 -5.5t-3 -4.5t-5 -2q-1 0 -3.5 0.5t-2.5 2.5q0 1 2 3.5t3.5 5.5t2.5 6t1 4v3.5v5.5q0 14 -2 27t-5 26t-5 26.5t-2 27.5zM49 161q0 2 0.5 8t1.5 13t2.5 15t3.5 14.5t4.5 11t5.5 6.5q1 0 2 -0.5t1.5 -1.5
t0.5 -2.5v-2.5q0 -3 -1 -6t-2.5 -6.5t-3.5 -7t-2 -6.5q0 -2 -0.5 -5t-1 -6.5t-1 -6.5t-0.5 -4v-2v-5v-6v-4q0 -13 1.5 -25.5t1.5 -25.5q-3 0 -5.5 3.5t-4 9t-2 12t-1 12.5t-0.5 11v7zM138 213l-0.5 -0.5l-0.5 -0.5v-1q0 -2 2.5 -4.5t6 -4t7 -2.5t5.5 -1q1 0 4 1t5 2.5t4 3.5
t2 4v2t-2 1q-1 0 -3.5 0.5t-5 0.5t-5 0.5t-3.5 0.5t-3 -0.5t-4.5 -0.5t-5 -0.5t-3.5 -0.5zM87 153q0 2 0.5 5.5t1.5 8t2 8t2 5.5t2.5 6t3 9t3 9t2.5 6h1q2 0 3 -1.5t1 -3.5q0 -1 -0.5 -2t-1.5 -2q-4 -14 -7 -29t-4 -29q0 -1 0.5 -5t0.5 -8.5t0.5 -8.5t0.5 -5v-5v-4t-3 -2
q-1 0 -2 0.5t-1 1.5q-3 11 -4 23t-1 23zM168 196q0 -1 2.5 -3.5t5 -4.5t5.5 -3.5t4 -1.5t2 1.5l1 1.5q0 1 0.5 3t0.5 4t0.5 3.5t0.5 2.5q0 2 -1.5 5t-3.5 3t-5 -1t-5.5 -2.5t-4.5 -4t-2 -3.5zM128 186h1l16 8v0.5v1.5q0 2 -2.5 4t-6 3.5t-7 2t-5.5 0.5v-2.5v-4v-4v-2.5t1 -4
t3 -3zM138 181v-1q4 -1 9 -1t9.5 -0.5t9.5 -0.5h7q0 4 -1.5 6.5t-4.5 4t-6 2t-6 0.5q-2 0 -5 -0.5t-5.5 -2t-4.5 -3.5t-2 -4zM131 143q0 6 3 8.5t8 3.5t10 0.5t10 -0.5q4 0 10 0.5t11.5 -1t9 -4.5t3.5 -10q0 -4 -1.5 -7t-4.5 -4t-7 -1.5t-8 -0.5q-10 0 -20 1t-20 4
q-3 2 -3.5 4.5t-0.5 6.5zM138 144q0 -4 5 -6t11 -3t12 -1.5t7 -0.5h3.5t3.5 0.5t3 2t1 3.5t-2 5.5t-5 3.5h-35q-1 0 -2 -1.5t-2 -2.5v0v0zM115 102v5v6.5t1.5 5.5t4.5 2q1 0 3.5 -1l2.5 -1h77q1 0 1.5 -2l0.5 -2q0 -2 -2 -4.5t-3.5 -5t-3 -5.5t-1.5 -5q0 -4 2.5 -7t2.5 -7
q0 -3 -2 -5t-4 -3t-3.5 -3t-1.5 -4q0 -5 3 -7t6.5 -2t6.5 -0.5t3 -2.5q0 -4 -2.5 -4h-5.5t-5.5 -1t-2.5 -6t2 -6.5t5 -1.5h5q2 0 2 -2q0 -3 -2 -3.5t-5 -0.5h-5t-2 -2v-11l-1.5 -1t-1.5 -2h-1h-1q-1 1 -2.5 2l-1.5 1v15h-12v-5.5t-4 -2.5h-2v2.5t-0.5 5t-0.5 4.5v3v1
q0 1 0.5 3.5l1 5t1 4t0.5 2.5q2 0 4.5 0.5t4.5 1.5t3.5 3t1.5 4v2v1q-7 6 -11 10t-6 8.5t-2.5 10.5t-0.5 15h-11q-1 0 -2 -1.5t-1 -3v-2.5v-2q0 -3 1 -6t2 -5.5l2 -5t1 -5.5t-1.5 -5t-4 -3.5t-4 -3t-1.5 -4.5t2 -4t5 -1t5 -0.5t2 -2.5v-1q0 -1 -0.5 -2l-0.5 -1q-1 0 -3 -0.5
t-3.5 -0.5t-3.5 -1t-3 -1v-2.5v-1.5q0 -4 2 -5.5t5 -1.5t5 -1t2 -3t-1 -3t-2.5 -1h-3h-2.5q-3 -1 -3.5 -3.5t0 -5t0 -5t-4.5 -2.5h-3t-3 2v16l-2.5 0.5t-4.5 0.5h-1h-2.5t-1.5 -1v-13h-1h-3q-2 1 -2.5 2.5t-0.5 3v3.5v3q0 10 1.5 14.5t3.5 7t4.5 3t4.5 0.5t4 1t2 4l-3 4.5
t-7 11.5t-7 14t-3 12zM121 110q0 -1 0.5 -4l1 -6l1 -6t0.5 -4q1 -5 4 -10t7 -7h1q4 0 5.5 2.5t1.5 6.5q0 5 -2.5 9t-2.5 9q0 3 2 5.5t2 5.5q0 2 -2.5 2h-4.5q-1 0 -3.5 0.5t-4.5 0t-3.5 -1t-2.5 -2.5zM168 106q0 -2 1.5 -7t3.5 -10.5t5 -10t6 -4.5t5 2.5t2 6.5q0 2 -0.5 3.5
t-1.5 3.5l-2 4t0 4l0.5 1.5t1.5 3t1.5 3l0.5 1.5l0.5 0.5t0.5 1.5t-1.5 1.5t-3.5 1t-4 0.5h-3h-3t-4 -0.5t-3.5 -1.5t-1.5 -4zM54 90q0 2 1 2.5t3 0.5q4 0 6 -4.5t3 -10t1 -11v-7.5v-6t-1 -9t-2.5 -9t-4.5 -4h-1q-1 0 -1.5 0.5t-0.5 1.5v5v5.5t2 4.5v3v3v4v3q0 4 -0.5 8
t-1.5 7l-2 6t-1 7zM103 51q0 10 -3 20.5t-3 20.5q3 0 5 -2t3 -5t1.5 -6t0.5 -5q0 -1 0.5 -4t0.5 -6t0.5 -5.5t0.5 -3.5l-0.5 -2.5t-0.5 -5.5t-0.5 -6t-0.5 -4t-0.5 -2l-1 -2l-1 -2t-2.5 0q-2 0 -2.5 2t-0.5 3q0 4 2 7.5t2 7.5zM130 38h4q0 1 0.5 2l0.5 1v0.5v0.5
q0 4 -0.5 5.5t-4.5 1.5h-4q-1 0 -2 -0.5l-1 -0.5v-8q0 -1 1 -1.5t2 -0.5h3h1zM173 44q0 -3 1.5 -4.5t4.5 -1.5t4 1t1 5q0 3 -1 4t-5 1h-4q-1 -1 -1 -2.5v-2.5z" />
</svg>
