<?xml version="1.0" standalone="no"?>
<!DOCTYPE svg PUBLIC "-//W3C//DTD SVG 1.1//EN" "http://www.w3.org/Graphics/SVG/1.1/DTD/svg11.dtd" >
<svg xmlns="http://www.w3.org/2000/svg" xmlns:xlink="http://www.w3.org/1999/xlink" version="1.1" viewBox="-10 0 266 256">
   <path fill="currentColor"
d="M56 247q0 3 1.5 3h3.5q4 0 7 -3.5t6 -9t5 -12t3.5 -13.5t2.5 -12.5t1 -8.5q0 -6 -3 -9.5t-6.5 -7.5t-6 -8.5t-2.5 -10.5t3.5 -9.5t8.5 -5t11 -2t10 -0.5q9 0 14.5 6t5.5 15q0 3 -1 6t-3 5.5t-3.5 5.5l-2.5 5q-2 4 -2 8.5v8.5t1 12t3 16t5 14t7 6q2 0 2.5 -1.5t0.5 -4.5
t-2 -7t-4 -7q-1 -2 -2 -6t-1.5 -8.5t-1.5 -8.5t-1 -7q0 -6 2 -11t4.5 -9.5t4 -9t1.5 -9.5q0 -9 -1.5 -13.5t-5 -7t-8.5 -3.5t-11 -4q-2 -1 -2.5 -2.5t-0.5 -3t-1 -3t-3 -1.5t-2.5 1.5t-1 3.5l-1 4t-1.5 2q-6 3 -11.5 4.5t-10 4t-7 6.5t-2.5 13q0 6 3 11t6.5 9.5t6.5 9t3 9.5
t-2 10.5t-4.5 11t-5 10.5l-4.5 9q-1 2 -3 4.5t-2 4.5zM168 247q0 3 3 3q4 0 5.5 -3.5t2 -8t0.5 -9v-6.5q0 -12 -2 -23t-2 -22q0 -2 0.5 -4t0.5 -4t1 -4t1 -3h7q3 0 5 -3l1 -1t0 -2q0 -3 -1.5 -3h-3.5h-6t-11 0.5t-11 2.5t-5 5q0 1 2 1h4q3 0 5.5 0.5t3.5 2.5q-1 13 0 24
t1 23q0 8 -0.5 16.5t-0.5 17.5zM93 247q1 2 1.5 2h1.5q2 0 2.5 -0.5t1.5 -2.5q0 -2 0.5 -5.5t0.5 -8.5v-8v-5q0 -14 -1 -27.5t-1 -27.5q0 -3 2.5 -3.5t5.5 -1t5.5 -1.5t2.5 -6q-10 0 -19 1t-19 3q-1 0 -2 1t-1 2v0v1q0 1 0.5 1.5t1.5 0.5h16v3.5t0.5 5.5t0.5 5.5v3.5v67z
M140 243q0 2 0.5 3t2.5 1q4 0 7.5 -7t6 -16t3.5 -18t1 -13q0 -6 -2 -9.5t-4.5 -6.5t-5 -7.5t-2.5 -11.5v-8q4 -7 11 -9t14 -2q5 0 9.5 0.5t8 3t5.5 6t2 9.5t-1.5 12t-4 11.5t-4 11t-1.5 11.5q0 4 0.5 11t2.5 14t5 12t8 5q2 0 2.5 -1t1.5 -1v-4q-6 -10 -8.5 -17.5t-2.5 -18.5
q0 -7 1.5 -12t4 -10t4.5 -9.5t3 -10.5q1 -11 -4.5 -18.5t-15.5 -11.5q-3 -2 -5.5 -4t-4.5 -4.5t-3.5 -4t-2.5 -1.5q-2 0 -3 0.5t-1 1.5q-2 7 -3 9t-3 3t-5 2t-10 5q-1 1 -2 2.5t-2 3.5t-2 3.5t-2 2.5t-1 3v3q0 6 2.5 11t5 9.5t4.5 9.5t2 10q0 11 -2.5 21t-6.5 20
q-2 1 -2.5 2.5t-0.5 2.5zM121 66h2.5t1.5 1v56l2 -0.5t3.5 -1t2.5 -1t1 -2.5v-27l2 -3v-21l3 -2h19q3 0 3.5 -3t0.5 -4q-15 0 -29.5 0.5t-29.5 2.5q-1 1 -1 3q0 5 6 5l2 -0.5l4 -1t3.5 -1t2.5 -0.5h0.5h0.5zM58 115q0 2 2.5 2.5t3.5 0.5q5 0 13.5 -2.5t16.5 -6.5t14 -8.5
t6 -9.5t-3.5 -7.5t-7.5 -5t-7.5 -6t-3.5 -10.5t4 -11.5t10.5 -7t13 -3.5t11.5 -1h2q1 0 4.5 0.5t7.5 1t7.5 0.5t5.5 1q1 0 3.5 1.5t4.5 3.5t3.5 4t1.5 4q0 8 -4 12.5t-9 8t-9.5 7t-4.5 8.5t6 9t14.5 6.5t16 4t11.5 1.5h5q3 -1 3 -4t-3 -4.5t-8.5 -2.5t-11.5 -1.5t-11.5 -1.5
t-9 -3t-3.5 -6q0 -3 3.5 -5t8 -4t8.5 -4t5 -6q2 -4 2 -7.5v-7.5q0 -7 -3.5 -11.5t-8.5 -7t-11.5 -3.5t-11.5 -1.5t-8.5 -1.5t-3.5 -3v-15q0 -1 -2 -1.5t-3 -0.5t-3.5 1t-2.5 2v17q0 1 -3 1.5t-7.5 1.5t-9.5 3t-10 6t-8 10t-3 16q0 4 3.5 7t7 5.5l7 5t3.5 7.5q0 3 -3.5 5
t-8 4t-10.5 3t-11 2.5t-8 3t-3 4.5z" />
</svg>
