<?xml version="1.0" standalone="no"?>
<!DOCTYPE svg PUBLIC "-//W3C//DTD SVG 1.1//EN" "http://www.w3.org/Graphics/SVG/1.1/DTD/svg11.dtd" >
<svg xmlns="http://www.w3.org/2000/svg" xmlns:xlink="http://www.w3.org/1999/xlink" version="1.1" viewBox="-10 0 266 256">
   <path fill="currentColor"
d="M123 177q2 0 5 5.5t6.5 14t8 18t8.5 17.5t8.5 13.5t7.5 5.5t3 -2v-5t-1.5 -6t-4 -6t-5.5 -5.5t-4 -4.5q-4 -7 -6.5 -13t-5.5 -12q-3 -5 -5.5 -11t-4.5 -12t-3 -12.5t-1 -11.5q0 -10 0.5 -22.5t2.5 -23.5l0.5 -2l0.5 -2q0 -3 -2 -5t-5 -2q-2 0 -3 4t-1.5 9t-0.5 9v6v4
t-0.5 7t-0.5 7v4v14q-1 3 -2 5.5t-2.5 5t-3 4.5t-2.5 5q-2 9 -6 18t-9.5 18t-12 16.5t-13.5 13.5v7q8 0 14 -5t9 -13v-0.5v-0.5q3 -4 6.5 -8.5t6.5 -9.5t5.5 -10.5t4.5 -10.5q1 -3 1.5 -5t1 -3.5t1.5 -3t4 -3.5zM81 181q0 2 1.5 2.5t3.5 0.5q4 0 6.5 -7.5t4.5 -17.5t2.5 -20
t0.5 -14v-5q-1 -2 -2 -2h-3t-3 0.5t-2 2.5q-1 15 -3 29.5t-6 29.5v1zM149 130q0 2 0.5 6.5t1 10t2 11.5t3 11.5t4 8.5t4.5 3q3 0 4 -2.5t1 -4.5q0 -3 -1.5 -5.5t-1.5 -5.5q-3 -11 -4 -21.5t-3 -21.5q0 -2 -1 -2h-2q-5 0 -6 4t-1 8zM134 87q4 0 8 3t7 7l6 8t6 7q1 0 3 2t5 4
t5 4t3 2q1 2 2.5 4t3 3.5t3.5 2.5t5 1h2h2q1 -1 1.5 -2.5t0.5 -2.5l-0.5 -2t-1.5 -2q-13 -11 -27 -21.5t-25 -23.5v-1q0 -4 5 -7.5t11 -6.5t11 -7.5t5 -10.5q0 -1 -2 -4l-5 -7.5t-6.5 -9.5t-6.5 -9t-5.5 -6.5t-3.5 -2.5q-2 0 -3.5 1.5t-1.5 3.5q0 3 2.5 4.5t2.5 3.5t-5.5 6
t-13.5 9t-17.5 11t-17.5 11.5t-13.5 10t-5.5 6.5q0 3 1.5 3.5t3.5 0.5q1 0 5.5 -3t11 -7.5t14 -9.5t14 -9.5t11 -8t6.5 -4.5l2 -2t2 -1.5t1.5 -1t2.5 -0.5q3 0 5 2t3.5 4.5l3 5t1.5 4.5q-5 8 -12.5 15t-16 12.5t-17.5 10.5t-17 10q-10 5 -19 12t-20 12q1 3 2.5 3.5t3.5 0.5
q6 0 11.5 -3t11 -7t11.5 -9t11.5 -9t11.5 -7t12 -3z" />
</svg>
