<?xml version="1.0" standalone="no"?>
<!DOCTYPE svg PUBLIC "-//W3C//DTD SVG 1.1//EN" "http://www.w3.org/Graphics/SVG/1.1/DTD/svg11.dtd" >
<svg xmlns="http://www.w3.org/2000/svg" xmlns:xlink="http://www.w3.org/1999/xlink" version="1.1" viewBox="-10 0 266 256">
   <path fill="currentColor"
d="M52 248l1.5 1t2.5 2v0q2 0 4.5 -3t3.5 -5q3 -21 4 -42t1 -42.5t0.5 -43t2.5 -42.5q0 -1 0.5 -4.5t1.5 -3.5q2 -3 10 -6t17.5 -4.5t18.5 -2t12 -0.5h18q9 0 18.5 2t16 7t7.5 15v4v8v7v4q1 30 3 60t2 60q0 5 -0.5 10t-0.5 11t6 6q5 0 6 -3t1 -7q0 -38 -2 -76t-5 -75
q0 -7 -0.5 -12.5t-2.5 -10t-6 -7.5t-12 -5q-3 0 -9 -1t-12.5 -2t-12.5 -2t-8 -1v-28q0 -3 -2.5 -4t-4.5 -1h-3q-1 0 -2 2q0 2 0.5 6.5t0.5 9.5t-1 9.5t-3 6.5q-1 1 -5 1.5t-5 0.5t-3.5 0.5l-2.5 0.5q-7 1 -15 1.5t-15 2.5t-12 6.5t-5 12.5q0 2 -0.5 6.5t-1 10t-0.5 10.5v8
q-1 26 -0.5 52.5t-2.5 53.5q-1 7 -2.5 14.5t-1.5 14.5v7zM82 241q0 3 1.5 4t4.5 1q2 0 6.5 -5t9 -12t8.5 -13.5t6 -8.5q1 -3 2 -6.5t2.5 -7t3.5 -6.5t5 -5l1 2l29 59l1 1l2 2h1q8 0 8 -7q0 -2 -1.5 -5.5t-3.5 -6t-4 -5.5t-3 -6q-1 0 -2 -2.5t-2.5 -5t-2.5 -5t-2 -3.5
q-7 -15 -12 -31.5t-5 -33.5q0 -2 0.5 -8.5t1 -14.5t0.5 -14.5v-8.5v-12v-12q0 -2 -2 -2h-3h-3q-1 0 -2 2v29v23t-0.5 22.5t-2.5 22.5t-6 22q-2 3 -5 8t-7 11.5l-8 13t-7.5 11.5t-6 8.5t-2.5 4.5zM89 169v3t2 2q4 0 6 -4.5t3 -10t1.5 -10.5t0.5 -7q0 -1 0.5 -3.5t0.5 -5.5
t0.5 -5.5t0.5 -3.5v-3v-5.5v-6.5v-5v-4v-6v-6v-3q-2 -4 -5 -4q-2 0 -3.5 1t-1.5 3v1t0.5 2.5t0.5 3v1.5l0.5 2.5t0.5 3.5q0 2 -0.5 5l-0.5 3v10.5t-0.5 13t-0.5 11.5v6q-1 6 -3 10.5t-2 10.5zM172 168q2 3 5 3t4.5 -1.5t1.5 -4.5q0 -2 -1.5 -4t-2.5 -5q-4 -12 -8 -24.5
t-4 -25.5q0 -5 2 -9.5t2 -9.5q0 -3 -0.5 -4.5t-3.5 -1.5q-2 0 -3.5 0.5t-2.5 1.5q0 1 -0.5 4.5l-1 7t-0.5 6.5v5v0q0 15 4 31.5t9 30.5z" />
</svg>
