<?xml version="1.0" standalone="no"?>
<!DOCTYPE svg PUBLIC "-//W3C//DTD SVG 1.1//EN" "http://www.w3.org/Graphics/SVG/1.1/DTD/svg11.dtd" >
<svg xmlns="http://www.w3.org/2000/svg" xmlns:xlink="http://www.w3.org/1999/xlink" version="1.1" viewBox="-10 0 266 256">
   <path fill="currentColor"
d="M51 249v1q1 0 1.5 0.5l0.5 0.5h1q3 0 9.5 -3.5t13 -8.5t11.5 -10t5 -8q2 -2 5 -4.5t6 -6t6 -6.5l4 -4q0 -1 2 -3.5t4 -5.5t4 -5.5t4 -2.5q1 0 4.5 5t9.5 12.5t13 16.5t15 17t15.5 13t14.5 5v-4l-1 -1l-2.5 -2.5l-3 -3l-2.5 -2.5q-6 -5 -11.5 -10l-11 -10t-10.5 -10.5
t-11 -13.5q-1 -2 -2.5 -6.5l-3.5 -10.5t-4 -12.5t-3.5 -11.5t-3 -8.5t-2.5 -3.5h-1l-0.5 0.5l-0.5 0.5q-2 12 -4 20.5t-5.5 15.5t-9 13.5t-14.5 16.5q-7 8 -13.5 15.5t-16.5 13.5q-1 -1 -3 0.5t-3.5 3.5t-3.5 4t-2 3zM60 176q0 1 0.5 2.5t1.5 1.5q6 0 11 -6t8 -14.5t5.5 -17
t2.5 -13.5q0 -6 -2 -12.5t-7 -10.5l-1 2v27q-1 6 -3 11t-4.5 9.5t-6 9.5t-5.5 9v1v1zM179 93l-0.5 0.5l-0.5 0.5q-2 1 -3.5 3t-2.5 4.5t-2 4.5t-1 3v33q0 4 2.5 10.5t6.5 12.5t8.5 10.5t9.5 4.5v0l2 -2v-1v-1l-1 -1.5t-2 -3.5t-2.5 -3.5l-1.5 -1.5q-4 -7 -7.5 -16t-4.5 -17
v-7.5v-12v-12.5v-8zM100 66q1 2 4 7t6 11l5.5 11l3.5 7q0 1 1 3t1.5 5t1.5 5t1 3l2 2v0q3 0 5.5 -5l6 -12t6.5 -16t6 -16t5.5 -12t3.5 -5h44q1 0 2 -1l2 -2q0 -1 -0.5 -3t-1.5 -2h-39q-1 0 -1.5 -2l-0.5 -2q0 -5 1.5 -8.5t2.5 -7t2.5 -7.5t1.5 -8q-5 0 -8 4.5t-5 10t-4 11.5
t-4 9q-2 1 -7 2t-11 1.5t-12 0t-10 -0.5h-7q-1 -1 -2.5 -6l-3 -10t-3.5 -9t-5 -4t-3 3q0 6 2.5 10.5t2.5 9.5q0 2 -1.5 4.5t-3.5 2.5h-30q-1 0 -1.5 1t-0.5 2v0q0 2 2 3.5t3 1.5h37l0.5 0.5t1.5 0.5q0 1 0.5 4zM110 62q0 -2 2 -3t5 -2t5 -1h4h4h6t6 -0.5t4 -0.5q0 4 -1 9.5
t-4 10.5t-6 8.5t-8 3.5q-3 0 -6 -3t-5.5 -7t-4 -8t-1.5 -7z" />
</svg>
