<?xml version="1.0" standalone="no"?>
<!DOCTYPE svg PUBLIC "-//W3C//DTD SVG 1.1//EN" "http://www.w3.org/Graphics/SVG/1.1/DTD/svg11.dtd" >
<svg xmlns="http://www.w3.org/2000/svg" xmlns:xlink="http://www.w3.org/1999/xlink" version="1.1" viewBox="-10 0 266 256">
   <path fill="currentColor"
d="M48 246q0 3 1 4t3 1q5 0 8.5 -4.5t5 -10.5t2.5 -12t2 -9q4 -10 7.5 -20.5t3.5 -20.5l0.5 -1t1.5 -1h1q1 0 2 2t1.5 4.5l1 5l0.5 2.5q3 9 8.5 16.5t8.5 15.5q1 1 2.5 4.5l3 7t2.5 7t1 4.5q1 3 2.5 3.5t3.5 0.5q3 0 4.5 -2.5t1.5 -5.5q0 -5 -2.5 -9t-6 -8t-6.5 -8l-6 -8
q-5 -9 -9 -19.5t-8 -20.5q0 -3 -0.5 -10t-1 -16t-1 -19t-1 -19t-1 -16t-0.5 -10v-1v-1q0 -2 0.5 -9t1 -14.5t0.5 -14.5v-9v-4q0 -3 -0.5 -4.5t-3.5 -1.5t-4.5 2t-2.5 5v9q0 25 1.5 49.5t1.5 48.5v4v6v6v4q-1 2 -1.5 5t-1.5 6t-1.5 5.5t-0.5 3.5l-0.5 0.5t-0.5 1.5
q-2 12 -4.5 23t-6.5 22q-1 3 -3 7t-4.5 8.5t-4 8t-1.5 6.5zM103 164q1 2 3 5.5t4.5 7.5t5 7.5t3.5 5.5q2 2 5 4.5t6 5.5t6.5 5t5.5 5h27q5 0 9.5 -2.5t7.5 -6.5t5 -9t2 -10q0 -3 -1 -6.5t-2 -6.5l-2 -6t-1 -6v-4.5t1 -3.5q1 -3 4 -4t6.5 -2.5t5.5 -3t2 -4.5t-1 -3.5t-4 -0.5
q-10 0 -16 7t-6 17q0 7 1 14t1 14v10q-2 2 -4.5 4t-6 3t-6.5 1.5t-6 0.5q-10 0 -18 -7t-14.5 -15t-11 -15t-6.5 -7t-3.5 1.5t-1.5 3.5v1zM122 81v2v4.5t0.5 8t1 10t0.5 10t0.5 8t0.5 4.5q0 5 0.5 12t2 13.5t5 11t10.5 4.5q8 0 12 -4.5t5.5 -11t1 -14t-0.5 -12.5q1 -2 5 -3.5
t9 -4t9 -6t4 -8.5v-68q0 -1 -1.5 -1h-2.5t-3 1.5t-2 3.5v51q0 3 -0.5 7.5t-2.5 8t-4.5 6.5t-6.5 3q-1 0 -1.5 -0.5l-0.5 -0.5l-2 -13v-86q0 -1 -2.5 -2l-2.5 -1h-1v0q-1 0 -2 0.5t-2 0.5q0 1 -0.5 5t-0.5 5v1q0 21 1.5 41.5t1.5 41.5v4.5v3.5l-2 2q1 2 1 6t0.5 8.5t0.5 8.5
v5q0 2 -0.5 5.5t-2.5 5.5l-2 0.5t-3 0.5q-2 0 -4 -0.5t-4 -1.5q-3 -31 -5 -60.5t-1 -60.5q0 -2 -1.5 -2h-2.5h-2t-2 2v8.5t-0.5 13.5t-0.5 13v9v1zM53 147l1 2.5t2 2.5t2.5 -1t2.5 -2v-7.5t0.5 -12t0.5 -12v-7.5q0 -1 0.5 -3t0.5 -5v-6v-4q0 -9 -0.5 -16t-1.5 -15
q-1 -2 -2 -2h-2q-2 0 -4 1.5t-2 3.5q0 21 1.5 41.5t0.5 41.5zM97 78q0 13 2.5 27t3.5 25v4q0 3 0.5 5t1.5 3.5t4 1.5h2t1 -2v-1q0 -2 0.5 -3.5t0.5 -3.5v-2q0 -9 -2 -17t-3 -17q0 -2 -1 -7.5t-1.5 -11.5t-0.5 -11.5v-8.5q-1 -1 -2 -1h-2q-2 0 -3 2.5t-1 5.5v7v5z" />
</svg>
