<?xml version="1.0" standalone="no"?>
<!DOCTYPE svg PUBLIC "-//W3C//DTD SVG 1.1//EN" "http://www.w3.org/Graphics/SVG/1.1/DTD/svg11.dtd" >
<svg xmlns="http://www.w3.org/2000/svg" xmlns:xlink="http://www.w3.org/1999/xlink" version="1.1" viewBox="-10 0 266 256">
   <path fill="currentColor"
d="M52 245q0 2 1 4t3 2q3 0 6 -2t5 -5t3.5 -6l2.5 -5t4 -9t7 -15t7 -15t4 -10l0.5 -0.5t1.5 -0.5v0v0q1 0 3 4.5t5 12t6.5 16t7 15.5t7.5 12t7 5t4 -3t1 -5q0 -5 -3.5 -11t-8 -13t-9 -13.5t-6.5 -11.5q-2 -6 -4 -14t-3.5 -17.5t-2 -18t-0.5 -13.5q0 -1 0.5 -3.5l1 -5l1 -5
l0.5 -2.5q0 -1 0.5 -2.5t0.5 -3.5t-0.5 -3.5l-0.5 -1.5q6 -1 10 -1.5t7 -0.5h7h8h4h4q2 4 2 7.5t1 8.5q1 3 2.5 7t2.5 8l2 8t1 8q0 3 -1 7t-2 8.5t-2.5 9t-1.5 9.5q0 3 1.5 9t3 14t4 16t6 14.5t6.5 11t6 4.5t4 -2t1 -4v-2q-4 -7 -8.5 -15t-7.5 -16.5t-5.5 -17t-2.5 -17.5v-5
q0 -4 1 -6.5t2.5 -4.5t4.5 -3q9 7 16 15.5t16 15.5q1 0 2 0.5l1 0.5q2 0 4.5 -1t2.5 -3q0 -3 -2 -5.5t-4.5 -4.5t-5.5 -3.5t-4 -1.5l-21 -21l-0.5 -1.5l-0.5 -1.5q0 -5 2.5 -8t5.5 -5.5t5.5 -5.5t2.5 -8h-7l-11 11q-1 1 -2.5 2t-2.5 1q-2 0 -3.5 -3t-2.5 -7.5t-1.5 -8.5
t-0.5 -5v-6q1 -1 2.5 -2t2.5 -1h40q1 0 2.5 -1.5t1.5 -2.5v-1l-1.5 -1.5l-1.5 -1.5h-47q0 -4 0.5 -9t4.5 -8q10 1 15 0t8 -4t4.5 -8.5t3.5 -14.5q1 -4 3 -8t2 -9q0 -3 -1 -5t-5 -2q-2 0 -3 3.5t-1.5 8t-1.5 10t-3.5 10.5t-7.5 8.5t-13 3.5q-1 -1 -1 -3v-5q0 -5 1.5 -10
l3 -10l3 -10t1.5 -10q0 -3 -1.5 -5t-4.5 -2q-4 0 -6 6t-3 15t-1.5 19.5t-1 19.5t-2 15t-4.5 6h-35q0 -1 -0.5 -3.5t-0.5 -5t-0.5 -4.5t-0.5 -3v-2q0 -2 1 -3t4 -3h4t6 -0.5t5.5 -0.5t3.5 -1q4 0 4.5 -0.5t0.5 -2.5v-2.5t-2 -2.5q-1 0 -3.5 0.5l-5 1t-5 0.5h-3.5h-1.5h-2.5
q-4 0 -5 -2t-1 -5q0 -6 3 -8.5t7 -3.5t9 -1h10l0.5 -1l0.5 -1v-1q0 -3 -1.5 -3.5t-3.5 -0.5q-6 0 -10.5 1t-9.5 1q-1 0 -2 -0.5t-1 -1.5v-23q0 -2 -1.5 -2h-2.5q-4 0 -4.5 3.5t-0.5 6.5v3v2t0.5 4t0.5 3.5v2.5l-3 3h-32l-0.5 1.5t-0.5 2.5v0v1q0 1 1.5 2l1.5 1h28q2 0 3 2
t1.5 4t0.5 3.5v1.5q0 3 -3 4.5l-5 2.5h-5t-8.5 0.5t-8 0.5h-5.5q-1 1 -1 2v2q0 3 2 3.5t4 0.5q6 0 12 -1t12 -1h2q3 0 3 2v19l-1 1l-1 1q-4 1 -9.5 1.5t-11.5 1t-11 0.5h-9q-3 -1 -3.5 0.5t-0.5 3.5t1 3t3 1q11 0 21.5 -1.5t20.5 -1.5q0 1 0.5 4t0.5 4l-0.5 2.5t-1 5.5
t-0.5 5.5v3.5v15.5t-0.5 14.5t-2 14t-5.5 14q-5 11 -12 21t-12 20q0 1 -0.5 3l-0.5 2q-3 4 -6.5 7t-3.5 8zM55 185q0 4 4 4q5 0 7.5 -7.5t4 -17t2 -18.5t0.5 -12v-4v-4q-1 -1 -2.5 -2t-2.5 -1l-1 0.5t-2 0.5q0 1 -1 1.5l-1 0.5q2 15 -1 29.5t-6 28.5q-1 0 -1 1zM119 130
q0 2 0.5 7t1 11.5t1.5 13.5t2.5 12.5t3.5 9.5t3 4q3 0 4 -1t1 -3q0 -4 -1 -6.5t-2 -5.5l-7 -44q0 -2 -1 -4t-3 -2q-3 0 -3 3.5v4.5z" />
</svg>
