<?xml version="1.0" standalone="no"?>
<!DOCTYPE svg PUBLIC "-//W3C//DTD SVG 1.1//EN" "http://www.w3.org/Graphics/SVG/1.1/DTD/svg11.dtd" >
<svg xmlns="http://www.w3.org/2000/svg" xmlns:xlink="http://www.w3.org/1999/xlink" version="1.1" viewBox="-10 0 266 256">
   <path fill="currentColor"
d="M55 249q0 2 1.5 2.5t2.5 0.5t4 -0.5t3 -2.5v-14l1 -0.5t1 -1.5t-0.5 -3.5t-1.5 -2.5v-17v-18q0 -2 0.5 -8.5t1 -13.5t1 -13.5t1.5 -9.5q1 -4 2 -9l2 -10t1.5 -9.5t0.5 -8.5q1 -3 3.5 -4t5.5 -1.5t6.5 0t5.5 -0.5q1 0 2.5 -1t4 -2t4.5 -2l2 -1q2 -2 2 -4q0 -1 -1 -2t-3 -1
q-5 0 -8.5 2t-8.5 2l-1 -2.5l-1 -2.5q2 -3 5.5 -5l7 -4t6 -4t2.5 -4q0 -3 -1.5 -4.5t-4.5 -1.5t-8 4.5t-9.5 10t-8.5 10t-6 4.5q-1 0 -2.5 -1.5t-2.5 -3t-1.5 -3.5t-0.5 -3q0 -5 5 -9.5t11.5 -8.5t12.5 -7t7 -6q0 -1 -0.5 -2t-2 -1.5l-3 -1t-2.5 -0.5h-2q-8 4 -14.5 9
t-13.5 10l-1 1t-2.5 2t-2 2.5t-0.5 2.5v20q0 2 1.5 3l3 2t3.5 2t2 4q0 5 -2.5 10.5t-2.5 11.5q-1 4 -1 7.5t-0.5 7t-1 6.5t-1.5 7q0 2 -0.5 8.5t-1 13.5t-1 13.5t-0.5 9.5v3v6.5v7.5v6v5v7v7v5zM188 247q1 1 2 1.5t2 0.5q3 0 4 -1.5t1.5 -3t0.5 -4.5v-3q0 -5 0.5 -9.5
t0.5 -9.5t-1 -9.5t-3 -8.5q0 -14 -1 -26.5t-3 -26.5q0 -7 -2.5 -14t-2.5 -14v-4t1 -4l1.5 -1.5t3.5 -3t3.5 -3.5t2.5 -2q2 -2 2 -4.5v-5.5q0 -5 -2.5 -10.5t-6.5 -10t-9 -8t-10 -3.5v4l6 6t5.5 7t4.5 8t2 8q0 2 -1.5 5.5t-5.5 3.5q-1 0 -4.5 -5t-7.5 -11t-9 -11t-11 -5
q-2 0 -3.5 1.5t-1.5 3.5q0 1 4 4t9 7t9 8.5t4 9.5q0 2 -2 2.5t-4 0.5q-6 0 -8.5 -2.5t-4.5 -5.5t-3.5 -5.5t-5.5 -2.5q-2 0 -2.5 1t-0.5 3q0 1 0.5 2.5t1 2l2 2l3.5 3.5q5 6 10.5 7.5t10 2.5t7.5 3t4 8v3t0.5 5t1 5.5t0.5 4.5v1q3 26 5 51.5t1 51.5zM79 241q1 2 2.5 2.5
t2.5 0.5q6 0 11 -6t10 -13t9.5 -13t9.5 -6q3 0 6 2l3.5 3.5t5.5 5t5.5 5l3.5 3.5q1 2 2.5 4.5t3 4.5t4 3.5t5.5 1.5t4.5 -1.5t1.5 -4.5q0 -1 -2.5 -4t-7 -6.5t-9 -7.5t-9.5 -8t-8 -8t-5 -8v-9v-8t2 -8q8 -1 15 -2t11 -4t6 -8t2 -15v-2v-3v-3v-2l-3 -1.5t-3 -0.5q-1 0 -3 0.5
t-2 1.5v19h-2l-20 -19l-1 -3v-13v-28t1 -28q1 -3 4.5 -4t9 -1t12 0.5t11.5 -0.5t8.5 -4.5t3.5 -11.5t-3 -12t-7.5 -6t-10.5 -2.5t-13 -0.5h-5.5h-4.5l-3 2h-34q-2 -1 -4 -1.5t-4 -0.5q-3 0 -5 1t-2 4q0 1 1 3t3 2h34v1t0.5 3.5t0.5 4.5v3v10v10v3t-0.5 4.5t-0.5 4.5v2
q-1 8 -0.5 15t0.5 15q0 7 -0.5 14t-1.5 14q-2 2 -4.5 5t-4.5 5t-5 3.5t-6 1.5q0 -1 0.5 -4t0.5 -6.5t-1 -5.5t-4 -2t-4 0.5t-1 4.5v8.5t1.5 9.5t4 9t5.5 7q2 2 5.5 2t6 0.5t4.5 2t2 5.5v2v5t-0.5 6t-0.5 5.5t-1 2.5q0 3 -3 7t-7.5 9t-9.5 10.5t-9 10t-7 7.5zM94 179
q0 1 -1 4.5t-1.5 7.5t-1.5 7.5t-1 4.5v4v3q5 0 7.5 -3t3.5 -7t1 -9v-9v-5q-1 -1 -1.5 -1t-0.5 -1h-1h-1q0 1 -1.5 2t-1.5 2zM152 182l0.5 4.5t1.5 10t2.5 9.5t3.5 4h1l3 -3v-6q0 -2 -0.5 -6.5t-1.5 -8.5t-2.5 -7.5t-3.5 -3.5q-3 0 -3.5 2t-0.5 5zM102 153l4.5 -4.5t6 -5
t7 -4t5.5 -1.5q4 0 7 1.5t6.5 4t6 5l4.5 4.5q-7 3 -14.5 4t-14.5 1h-10l-3.5 -1.5t-4.5 -3.5zM133 40v-16l2 -1h2h4h4h3l2 -1l2 -1h0.5h0.5q3 0 6 0.5t5.5 1.5t4 3t1.5 5q0 5 -2 7.5t-6 3.5t-8 1h-9h-5h-4z" />
</svg>
