<?xml version="1.0" standalone="no"?>
<!DOCTYPE svg PUBLIC "-//W3C//DTD SVG 1.1//EN" "http://www.w3.org/Graphics/SVG/1.1/DTD/svg11.dtd" >
<svg xmlns="http://www.w3.org/2000/svg" xmlns:xlink="http://www.w3.org/1999/xlink" version="1.1" viewBox="-10 0 266 256">
   <path fill="currentColor"
d="M164 248q1 1 2 1h2q2 0 3 -1t2 -3v-5v-7v-8v-4q0 -11 -0.5 -21t-0.5 -20v-6q2 -1 4.5 -1.5t5.5 -1t5.5 -1t3.5 -0.5q3 -2 4.5 -5.5t2 -7.5t0.5 -8v-7v-12l-1 -2.5t-2 -2.5t-3 2l-3 3q1 4 1.5 9.5t-0.5 11t-3.5 9.5t-8.5 4q-2 0 -5 -0.5t-3 -2.5v-34q0 -1 4 -3t8.5 -5
t8.5 -7t4 -11q0 -5 -2.5 -8.5t-6 -5t-8 -1.5h-9.5q-4 0 -9.5 0.5t-10.5 2.5t-9 5.5t-4 8.5q0 7 2.5 10.5t6 5.5t8 3.5t8.5 4.5q2 7 2 13v13v11q1 3 -0.5 3.5t-3.5 0.5q-4 0 -5.5 -2t-2.5 -5t-2 -6.5t-3 -5.5v-19q0 -1 -2 -1.5t-3 -0.5q-2 0 -2.5 1t-0.5 3v1.5v0.5q0 1 0.5 4
t1.5 6.5t1.5 6.5t0.5 4q2 7 2.5 11.5t2 6t5 2t11.5 0.5q0 18 1 36.5t0 36.5zM54 227q0 2 0.5 3.5t2.5 1.5q1 0 3 -1.5t3.5 -3.5t2.5 -3.5l1 -1.5l20 -61v-9h2h3t3 5.5t5 14.5t6.5 19t7 18.5t6.5 14t6 5.5q2 0 4 -2t2 -5q0 -1 -2 -5t-4.5 -8.5t-5 -8t-3.5 -5.5
q-3 -7 -5.5 -14t-6.5 -14q-2 -5 -2 -10t-3 -9q-1 -2 -1.5 -7t-1 -10.5t-1.5 -10t-1 -6.5q0 -1 -0.5 -2.5t-0.5 -2.5q-2 -23 -2 -47v-47q0 -1 -2.5 -1.5l-2.5 -0.5h-1h-1q-1 0 -2 0.5t-1 1.5v20q0 20 2.5 38.5t2.5 37.5v14q-2 2 -2 3.5v2.5v2v4q-2 6 -4 13.5t-4.5 15
t-5.5 14.5t-5 13q-1 4 -3.5 8t-4 8.5l-3 9t-1.5 8.5zM60 134q-1 3 0.5 3.5t2.5 0.5q4 0 5 -2.5t1 -5.5v-73q0 -2 -2 -3t-4 -1q-1 0 -2 1t-1 2v3v3v6t1 6v6.5t-0.5 10t-0.5 10.5v7v13v13zM105 61q0 17 0.5 33t1.5 33v2t0.5 2l1 2t2.5 1t3 -1t2 -3v-4v-4q0 -18 -1 -36t-1 -36
q0 -2 -2 -2h-2h-2q-2 0 -3 2v11zM145 105q0 -4 2.5 -6.5t6 -3.5t7.5 -1.5t7 -0.5h5.5t6.5 1t4.5 3t1.5 5q0 4 -2 7t-5 5t-7 3t-7 1t-6.5 -0.5t-6.5 -2t-5 -4t-2 -6.5zM197 28q-2 0 -8 0.5t-13.5 1t-16.5 1.5t-16 3t-12 4.5t-5 5.5v34q0 1 1 1.5t2 0.5q4 0 5 -2t1 -6v-23
q1 -1 2.5 -3t3.5 -3.5l4 -3t4 -1.5h1l0.5 1l0.5 1l3 31l4 4l3 -3q1 0 1 -2v-4q0 -5 -1 -11t-1 -12v-3t3 -2h13q0 3 1 9.5t2.5 13.5t5 12t8.5 5h3t2 -2v-1q-2 -4 -6.5 -8.5t-5.5 -9.5q-1 -7 -1 -15v-2.5t1 -2.5h15q2 0 2.5 -1.5t0.5 -3.5t-2.5 -3t-4.5 -1z" />
</svg>
