<?xml version="1.0" standalone="no"?>
<!DOCTYPE svg PUBLIC "-//W3C//DTD SVG 1.1//EN" "http://www.w3.org/Graphics/SVG/1.1/DTD/svg11.dtd" >
<svg xmlns="http://www.w3.org/2000/svg" xmlns:xlink="http://www.w3.org/1999/xlink" version="1.1" viewBox="-10 0 266 256">
   <path fill="currentColor"
d="M80 246q0 4 4 4q5 0 8 -2.5t5 -6.5l4 -8t4 -7l1.5 -1t3 -2.5l3 -3l1.5 -1.5q0 -1 1.5 -4t3 -6.5t2.5 -6.5t2 -4q0 -1 1 -3t2 -3.5l2 -3l1 -1.5h3l1.5 3.5t2.5 5.5q6 13 11.5 24.5t12.5 23.5q2 4 4 5t5 1t5.5 -1.5t3.5 -4.5q0 -1 -0.5 -2t-1.5 -1q-7 -8 -14.5 -15.5
t-11.5 -17.5l-3 -6t-3.5 -9t-3.5 -9.5t-2 -6.5q-3 -23 -2 -47q-1 -1 -2 -1h-3h-3t-1 2l-3 42q0 8 -5 18t-12 20.5t-14.5 19.5t-12.5 14v1v1zM77 206q0 2 0.5 3t1.5 1q3 0 5 -1.5t3.5 -3.5t2.5 -4.5t2 -5.5q2 -11 4 -21t2 -21v-5q-1 0 -2 -1l-1 -1q0 -1 -1 -1v0q-1 0 -1 1
l-2 1.5t-2 2.5q0 8 -0.5 15t-1.5 13.5t-3.5 12.5t-6.5 13v2zM163 147q0 2 0.5 7t2 12t3.5 14t4 13.5t4.5 10t5.5 3.5t3.5 -1.5t0.5 -3.5q0 -7 -3 -11.5t-5 -9.5q-3 -9 -4 -17.5t-3 -16.5q-1 -2 -2 -3.5t-3 -1.5q-4 0 -4 5zM80 124q0 2 0.5 4t3.5 2q2 0 4 -1t2 -4v-43
q0 -3 0.5 -4t2.5 -1t3.5 2l3 4t2.5 4.5t1 3.5v31q4 0 6.5 -3t5.5 -5q3 -1 4.5 -3t3 -4.5t3.5 -4t4 -1.5q4 0 5.5 2.5t2.5 5t2.5 5t3.5 2.5h1v0q1 0 2 -1t1 -2l-2.5 -5t-3.5 -6t-3.5 -5.5t-1.5 -5.5q0 -2 2 -5t4 -6.5t3.5 -7.5t1.5 -8t-2 -7l-4 -6l-4 -6t-2 -6t2 -5.5l4 -5
t4 -4.5t2 -5q0 -4 -3 -4q-2 0 -4 2.5t-4 5.5t-3.5 5.5t-3.5 3.5q-1 -1 -1.5 -4t-1.5 -6t-2.5 -5.5t-4.5 -2.5q-2 0 -2.5 1.5t-0.5 3.5q0 3 1.5 5.5t3.5 5t3.5 5t1.5 5.5v2q-1 2 -3.5 4t-5 5t-4.5 5.5t-2 5.5q3 0 5.5 -2t4.5 -4.5t4 -4t5 -1.5t5 2.5t3 6.5t2 7.5t1 5.5
q-1 1 -2 2.5t-2.5 3.5t-3 3t-3.5 1t-3.5 -2t-2.5 -4.5t-2.5 -4.5t-3.5 -2q-4 0 -4 3t2 5t4 4.5t3.5 5t1.5 4.5t-1 4.5t-3 4l-4 3t-4 1.5q-1 0 -3 -4t-4 -9t-3.5 -10t-2.5 -6q-2 -3 -3.5 -4t-3 -1.5t-3 -2t-1.5 -4.5q0 -5 2.5 -5.5t6 -1.5t6.5 -3.5t3 -10.5q0 -1 0.5 -3.5
t0.5 -5v-5v-3.5h-5q-1 0 -1 3.5t-1 6.5v5q0 2 -0.5 4.5t-2 4t-5.5 1.5q-3 0 -3.5 -3.5t-0.5 -6.5q0 -6 1 -11.5t1 -11.5q0 -4 -4 -4q-3 0 -4 2.5t-1 4.5t1 4t1 5q0 1 -0.5 4.5t-1 7.5t-1 7t-1.5 3q-3 0 -5 -2t-2.5 -5t-0.5 -7t-0.5 -7t-1.5 -5t-4 -2v0l-0.5 0.5l-1.5 1.5v5
v5q0 7 1.5 11.5t3.5 6.5t4 2.5l4 1t3.5 1t1.5 2.5v12q-9 0 -14 4.5t-7.5 11t-3 14.5t-0.5 16q0 2 1 3.5t3 1.5q3 0 5 -3v-9.5t0.5 -8t2 -7.5t3.5 -9q0 -1 1.5 -4t4.5 -3q2 0 2.5 1.5t1.5 3.5v2v3v4v2q0 7 -1.5 14.5t-1.5 14.5zM189 125q2 3 5 3q1 0 1.5 -0.5l1.5 -1.5v-12
q0 -9 -0.5 -18t-3.5 -17q-2 -4 -5 -5t-5.5 -1.5t-4.5 -2.5t-2 -9q0 -3 1.5 -3.5t4 -0.5h5.5t5.5 -1.5t4 -6t1.5 -13.5v-2v-3.5t-0.5 -3.5l-0.5 -2l-2 -2t-2 -1q-2 0 -2.5 1t-1 2.5t-0.5 3.5v1v3.5t-0.5 5.5t-0.5 5.5v3.5q-1 2 -2 2.5t-3 0.5q-3 0 -4 -1.5t-1.5 -3.5t-0.5 -4
v-4q0 -6 1 -11.5t1 -11.5v-1l-2 -2l-2 -2v-0.5v-0.5v-0.5v-0.5v-0.5v-1t-1 0t-4 1.5v2v5v4v14.5t-1 14.5q-1 0 -2 1l-1 1q-2 0 -3 -1.5t-1.5 -3l-1 -3t-0.5 -2.5v-1v-1t0.5 -2.5t0.5 -2.5v-1q1 0 1 -1v-1t-0.5 -2.5t-3.5 -1.5q-2 0 -3 3t-1 5q0 1 0.5 4l1 6t1 5.5l0.5 2.5
q0 2 2.5 2.5t4.5 2.5t4 5t2 8v5q-7 -1 -11 3t-5.5 10t-1.5 12v11v9l2 2l1 1h1v0h0.5h0.5l0.5 -0.5l0.5 -0.5q0 -1 0.5 -3.5t0.5 -5t0.5 -4.5t0.5 -3v-3v-5v-4v-3q0 -2 1.5 -5t4.5 -3q1 0 2.5 1.5t1.5 3.5v38h5l0.5 -3t0.5 -4t0.5 -3.5t0.5 -5t0.5 -5.5t0.5 -4v-3q0 -2 -1 -4
t-1 -4t1.5 -5t3.5 -5q4 3 6 8.5t2.5 12t0.5 13.5t-1 11z" />
</svg>
