<?xml version="1.0" standalone="no"?>
<!DOCTYPE svg PUBLIC "-//W3C//DTD SVG 1.1//EN" "http://www.w3.org/Graphics/SVG/1.1/DTD/svg11.dtd" >
<svg xmlns="http://www.w3.org/2000/svg" xmlns:xlink="http://www.w3.org/1999/xlink" version="1.1" viewBox="-10 0 266 256">
   <path fill="currentColor"
d="M41 247q0 4 4 4q3 0 6.5 -4.5t7 -11t7.5 -14.5t7 -16t5 -14l3 -9h1h1q3 0 5 4.5t4.5 11.5t5 15t5 15t5.5 11.5t7 4.5t5 -3t1 -5q0 -3 -2 -6.5l-4 -7t-4.5 -6.5t-3.5 -5q-1 -1 -3 -5t-4 -9t-4 -10.5t-4 -10.5t-3 -9t-1 -6q-1 -5 -0.5 -8.5t0.5 -6.5t-0.5 -6t-1.5 -8v-117
q0 -1 -2.5 -2l-2.5 -1l-1 -1q-2 0 -3 2l-2 4t-1 4.5v3.5v16.5t4 16.5q0 2 -0.5 8t-0.5 13q0 6 0.5 12t0.5 8v10t0.5 17.5t0.5 17.5v10q0 8 -2 15t-5 14.5t-6.5 14.5l-6.5 13l-3.5 7t-5.5 10.5t-5.5 10.5t-3.5 6v2zM132 146v9v14t0.5 17t2 16.5t3.5 13t6 6.5h5h6.5h6.5h5h6
h6.5h6.5h3q2 0 4.5 -0.5t5.5 -1.5t5.5 -2.5t3.5 -3.5q2 -9 2 -18v-18v-5v-6q0 -4 -0.5 -7t-0.5 -4l-0.5 -1.5t-1.5 -2.5l-2 -2t-3 -1q0 1 -1.5 2t-1.5 2v22q0 -1 -1.5 -2t-2.5 -2t-2.5 -1.5t-1.5 -1.5q-1 0 -2 -0.5l-2 -1l-2 -1t-1 -1.5q-7 -3 -9 -7.5t-2.5 -8t-1.5 -6
t-4 -2.5t-4 2.5t-1.5 5.5t-1 7t-2 7t-4.5 5.5t-10 2.5h-1q-2 -7 -2 -13v-13v-15q3 -4 6.5 -7.5t6.5 -7.5t5 -8.5t3 -9.5q0 -7 0.5 -11.5t0.5 -9v-9.5v-11v-3v-5v-5v-3q0 -2 -0.5 -4t-1.5 -4t-2.5 -3.5t-3.5 -2.5h-14h-11t-10 2l-0.5 0.5t-0.5 1.5l0.5 1.5l0.5 1.5h28
q2 0 4.5 2.5t2.5 4.5v52q0 5 -2 9t-5 7l-6.5 6.5t-5.5 6.5q-2 2 -2.5 5.5t-1 7.5t-0.5 7v6zM143 203v-2.5t1 -1.5q12 -2 25 -3.5t25 -1.5q2 0 3 1t1 3q0 6 -3 9.5t-7.5 5t-9.5 2t-10 0.5h-3h-4h-4t-2 -1q-4 -1 -8 -4t-4 -7zM141 185v-1.5v-1.5q4 -2 7.5 -4.5t6.5 -5
t6.5 -4.5t8.5 -2q4 0 8 2t7.5 4.5l7 5t6.5 4.5q0 2 -1.5 3.5t-3.5 1.5q-3 0 -9.5 0.5t-14 1t-14.5 1t-10 1.5h-1q-3 0 -3.5 -1.5t-0.5 -4.5zM103 153l0.5 0.5t1.5 0.5h0.5h0.5q2 0 3.5 -1.5t2 -4t0.5 -5.5v-4q0 -18 -1.5 -36t-2.5 -37v-3t-0.5 -5t-0.5 -5.5v-2.5
q-1 -1 -2 -1.5l-1 -0.5q-2 0 -3 1.5t-1 3v3.5v3q0 12 0.5 24l1 24t1 23.5t0.5 22.5zM52 147q0 2 1.5 4t3.5 2t3 -3.5t1.5 -8l1 -9t1.5 -5.5v-71l-1 -0.5t-1 -1.5q-1 0 -2 -0.5l-1 -0.5q-1 0 -2.5 1.5l-1.5 1.5q1 11 0.5 22.5t-1.5 23t-1.5 22.5t-0.5 23zM177 144q0 3 1 5
t4 2t3.5 -2.5t1 -5.5t1 -6.5t1.5 -4.5q2 -4 6 -7.5t7.5 -6.5t6.5 -6.5t4 -8.5q1 -8 2 -14t1.5 -11.5t0.5 -11.5v-13v-4v-6v-5v-4q-1 -3 -4.5 -7t-6.5 -4h-31l-1.5 -0.5l-1.5 -0.5q-2 0 -2 1.5v2.5v3q12 1 19 0.5t11.5 1.5t6 7t1.5 18v12t-0.5 12.5t-2 12.5t-4.5 11
q-3 6 -7.5 10t-8 8.5t-6 9.5t-2.5 12zM122 92q-2 1 -2 3v3q3 0 7.5 -0.5t9 -1.5t7.5 -3.5t4 -7.5h-2h-2q-6 0 -11 2t-11 5zM198 85q-4 0 -6.5 0.5t-5.5 1.5q-2 1 -5 1.5t-5 1.5t-4 1.5l-2 0.5v6q3 0 7.5 -0.5t9 -2t8 -4t3.5 -6.5zM120 73q0 4 4 4h0.5h1.5l2.5 -0.5t3.5 -1.5
q3 -1 6.5 -2t6 -2t3.5 -1v-6h-3t-2 1q-2 0 -5 1t-6.5 2t-6.5 2t-5 2v1zM192 64q-2 0 -5 0.5t-6 2t-4.5 3.5t-1.5 5h6t7.5 -0.5t6.5 -2t3 -4.5q0 -2 -1.5 -3t-4.5 -1zM120 51l2 2t2 1v0q6 0 12 -2t12 -2v-6h-6.5t-8.5 1t-8 2.5t-5 3.5zM172 51l3 3q2 0 5.5 -0.5t7 -2l7 -3
t3.5 -3.5q0 -3 -2.5 -3h-3.5q-6 0 -10.5 3.5t-9.5 5.5z" />
</svg>
