<?xml version="1.0" standalone="no"?>
<!DOCTYPE svg PUBLIC "-//W3C//DTD SVG 1.1//EN" "http://www.w3.org/Graphics/SVG/1.1/DTD/svg11.dtd" >
<svg xmlns="http://www.w3.org/2000/svg" xmlns:xlink="http://www.w3.org/1999/xlink" version="1.1" viewBox="-10 0 266 256">
   <path fill="currentColor"
d="M124 248q0 1 1 2t3 1t3.5 -1t3 -2.5t2.5 -3l1 -1.5q1 -1 2.5 -3l3 -4l3 -4t2.5 -3t3.5 -5.5t5.5 -9t5.5 -9t3.5 -5.5l0.5 -0.5l0.5 -0.5q2 0 5 4t6 9.5t6.5 12.5t7 12.5t6.5 9.5t6 4t4 -1t1 -3q0 -4 -2 -8.5t-5.5 -8.5t-7 -7.5t-5.5 -6.5q-6 -9 -9.5 -19.5t-3.5 -21.5
t0.5 -22t0.5 -22v-8l-1 -1l-2 -2h-1q-1 0 -2.5 2t-1.5 3l-3 60q0 2 -4 8.5t-8.5 13.5t-8.5 12.5t-5 6.5t-3.5 3t-4.5 4.5t-4.5 4.5t-3.5 3q-1 3 -1 7zM46 144v1q0 1 0.5 3.5t0.5 5t0.5 5t0.5 3.5v20t3 15t9.5 9.5t20.5 3.5h7q4 0 9 -0.5t9 -2t6 -3.5q7 -7 10.5 -16t5 -19
t1.5 -20v-20v-19q0 -3 -2.5 -5.5t-5.5 -4.5t-6.5 -3.5t-6.5 -1.5q-4 0 -4 4q0 3 3 4t6 2.5t6 6t3 13.5v7q-1 1 -2.5 2t-3.5 1q-1 0 -2.5 -1l-3 -2t-3.5 -1.5t-4 -0.5q0 5 3 7t6 3.5t6 6t3 14.5q0 6 -6 6q-4 0 -7 -1.5t-6 -1.5q0 5 2 6.5t4.5 2.5t4.5 2.5t2 5.5q0 10 -6 14.5
t-15 4.5l-1.5 -0.5t-1.5 -1.5v-99q0 -2 1.5 -5.5t3.5 -4.5l23 -12q2 -1 3 -3t1.5 -5t0.5 -6v-4v-6t-4 -6l-2.5 -0.5t-4.5 -1.5t-4.5 -1.5l-2.5 -0.5q-1 0 -2 -0.5t-2.5 -0.5t-2.5 -0.5t-2 -0.5q-5 -1 -8 -6t-5.5 -10l-4.5 -9t-3 -3q-3 0 -3.5 1.5t-0.5 3.5q0 4 2 8.5t4 8.5
t4 7t2 5q0 4 -2.5 6.5t-6.5 5.5t-8.5 5.5t-8.5 5t-6.5 4.5t-2.5 3q0 2 1 2.5t3 0.5q8 0 14 -4.5t11.5 -10.5t10 -11t10.5 -5q3 0 4.5 1l3 2t2.5 2.5t3 2.5v3.5v2.5q0 5 -1.5 7.5t-4.5 4.5t-6.5 3.5t-6.5 4t-5.5 7t-3.5 10.5q0 2 -0.5 5t-0.5 6.5t-0.5 6l-0.5 2.5v19v20v21
t-1 20q-1 0 -2 0.5l-1 0.5q-2 0 -5 -0.5t-6.5 -1.5t-6 -3t-2.5 -5v-16q0 -2 2 -3.5t4.5 -3.5t5 -3.5t2.5 -2.5t-1 -2.5t-2 -1.5q-4 0 -6.5 2t-4.5 3h-1h-1l-1 -0.5l-1 -0.5v-19q0 -1 2.5 -2.5t5.5 -3.5t5.5 -4.5t2.5 -7.5h-2h-1l-1.5 0.5t-3 1.5t-3 1.5l-1.5 0.5h-1
q-2 0 -2.5 -1t-0.5 -3q0 -9 1.5 -13t3.5 -6t5.5 -4.5t7.5 -7.5q0 -1 -1 -2.5t-2 -1.5l-2 1t-3 1q-1 1 -2.5 1.5t-4 1.5t-4.5 2t-2 2q-1 0 -1.5 1t-0.5 2q-2 10 -2.5 21.5t-0.5 20.5zM191 148q0 8 2 16.5t4 16.5q0 2 0.5 4.5t2 5t3 4t4.5 1.5q1 0 3 -1t2 -3t-1.5 -4.5
t-2.5 -5t-2.5 -5t-2.5 -4.5q-2 -8 -2.5 -15.5t-0.5 -15.5q-2 -4 -5 -4q-2 0 -2.5 1t-1 2.5t-0.5 3.5v3zM152 138q-2 0 -3.5 4.5t-2 10t-0.5 11t-1 7.5q0 3 -1.5 6t-3.5 6t-3 5.5t-1 5.5q4 0 7 -3t5 -8t3.5 -11t2.5 -11.5t1 -10v-6.5v-4t-3 -2zM177 105q6 0 10.5 4.5t8.5 9
t7 9t6 4.5t4 -2.5t1 -4.5q0 -3 -0.5 -3t-1.5 -2q-1 -1 -4 -3t-6.5 -5t-6 -5.5t-3.5 -2.5l-7 -7t-3 -8q0 -3 1 -5t1 -5v-2q0 -1 -0.5 -5t-0.5 -8.5t-0.5 -8t-0.5 -4.5v-1q0 -7 1.5 -13t1.5 -12q0 -4 -2.5 -4h-4.5h-3.5t-2.5 2v7v8.5t2 7.5v51q0 2 -5 6t-10.5 8.5t-10.5 8.5
t-5 6t1.5 2.5t2.5 0.5h2q1 -1 3 -3.5t4 -4.5l4.5 -4.5t3.5 -2.5q2 -3 5.5 -6t7.5 -3zM145 94q0 3 4 3q3 0 5 -3t4 -7t3 -8.5t1 -6.5v-12t-2 -13q0 -1 -1 -1h-2q-2 0 -2.5 0.5t-0.5 2.5v6v9v9v6q0 4 -1 5t-1.5 2t-2.5 2t-4 4v0.5v1.5zM202 41q-5 0 -5 6v42q0 2 2 3.5t5 3t6 2
t5 0.5q0 -4 -2 -6.5l-4 -5l-4 -5t-2 -6.5v-1q1 -1 1 -3.5t0.5 -5t0.5 -4.5v-2l1 -2t1 -3v-1v-3q0 -3 -0.5 -4.5t-1.5 -3t-3 -1.5z" />
</svg>
