<?xml version="1.0" standalone="no"?>
<!DOCTYPE svg PUBLIC "-//W3C//DTD SVG 1.1//EN" "http://www.w3.org/Graphics/SVG/1.1/DTD/svg11.dtd" >
<svg xmlns="http://www.w3.org/2000/svg" xmlns:xlink="http://www.w3.org/1999/xlink" version="1.1" viewBox="-10 0 266 256">
   <path fill="currentColor"
d="M47 246q0 3 0.5 4t3.5 1t6.5 -6t6 -14t4.5 -15.5t3 -11.5q1 -1 2 -5t2.5 -8t2.5 -7.5t2 -5.5l1 -2q2 2 4 8t3.5 14.5t3 17.5t3 17t3.5 13t4 5q3 0 3.5 -3t0.5 -6q0 -5 -2 -12.5t-4 -16t-4.5 -16.5t-2.5 -14l-0.5 -1.5t-0.5 -3.5t-0.5 -3.5l-0.5 -1.5q-1 -11 -1.5 -22
t-0.5 -22v-22t-1 -22v0q0 -15 1.5 -29.5t1.5 -29.5v-10q0 -2 -1.5 -2h-2.5h-2.5t-1.5 2l-2 13v10.5v15.5v19v18v16v10q0 18 -4 33.5t-9 31.5q-1 4 -2.5 9.5t-3 11.5t-3.5 11.5t-4 10.5q-3 5 -5.5 9.5t-2.5 10.5zM177 156q-2 0 -6 0.5t-9 0.5t-10 1t-9.5 2t-7.5 3t-3 5v45
q0 5 2.5 8t6.5 5t8.5 2.5t8.5 0.5q15 0 25 -0.5t16 -4t8.5 -12.5t2.5 -25q0 -11 -1 -17t-4.5 -9t-10 -4t-17.5 -1zM138 205q0 -2 1.5 -3.5t3.5 -1.5h23q1 0 1.5 2t0.5 3v4.5v5t-1 4.5t-2 2h-3.5h-3.5q-3 0 -7 -1t-6.5 -2.5t-4.5 -4.5t-2 -8zM176 204q0 -3 1.5 -4.5t3.5 -2
t5 -0.5h5l2.5 0.5t3.5 0.5t1.5 1t0.5 2v2v1q0 9 -5 12t-13 3q-3 0 -4 -1.5t-1 -4v-5v-4.5zM138 182q0 -5 2.5 -8t5.5 -5.5t7 -3t8 -0.5q2 0 3 1t1.5 3t0.5 4v3q0 8 -1.5 11.5t-10.5 3.5h-5.5t-5 -1t-4 -3t-1.5 -5zM174 183q0 -2 0.5 -5.5t1 -6.5t2 -5.5t5.5 -2.5q9 0 13 5
t4 15q0 1 -0.5 4t-2.5 3h-21l-1 -2q-1 -1 -1 -2v-3zM57 42v13.5v20.5v20.5v13.5q-1 11 -3.5 21t-2.5 21q5 0 7.5 -3.5t4 -8t1.5 -10t1 -8.5q0 -2 0.5 -4.5t0.5 -5.5v-5.5v-2.5q0 -1 0.5 -4.5t0.5 -8.5v-9v-7v-6v-9q0 -4 -0.5 -8.5t-0.5 -5.5q0 -2 -1 -3.5t-3 -1.5h-3t-2 1z
M101 100v18v8v8.5t1 9t4 6.5h1q1 0 2.5 -2t1.5 -3v-58q-1 -1 -1.5 -2.5t-0.5 -2.5v-0.5v-1.5q0 -6 2 -12t2 -13q0 -1 -0.5 -4.5t-0.5 -4.5q0 -3 -2.5 -4.5t-5.5 -1.5q0 15 -1.5 30t-1.5 30zM168 148q0 1 0.5 1.5l0.5 0.5h1h1l2.5 -2.5t1.5 -2.5v-38q-1 -1 -1.5 -3.5
t-0.5 -3.5q0 -3 3 -4.5t5 -1.5h25q2 0 4 -2t2 -4v-1q0 -1 -0.5 -2.5t-1.5 -2.5h-2.5h-3.5q-8 0 -15.5 1.5t-15.5 1.5q0 -4 0.5 -11t1 -14.5t1.5 -14.5t3 -9q2 -3 6 -4.5t8 -3.5t7 -4t3 -6q0 -3 -1.5 -4t-4.5 -1t-8.5 3t-10.5 7.5t-8.5 9.5t-3.5 9v45h-29q-3 0 -5 1.5t-2 3.5
q0 1 0.5 2t1.5 1h11q6 0 10 -0.5t9 -0.5h1h2q1 14 1 27t2 27zM185 101q0 5 0.5 10.5t2 11t4.5 10.5t7 9q2 -2 2.5 -3.5t0.5 -3.5q0 -3 -1 -8.5t-3.5 -11.5t-6 -10t-6.5 -4zM137 136q0 1 1 1.5t2 0.5q3 0 5 -3.5t3.5 -8.5t2.5 -10t1 -7q0 -4 -4 -4q-1 0 -3 4.5t-4 10t-3 10.5
t-1 6zM142 51q0 1 0.5 4.5t1.5 8t2 7.5t3 3t3 -2.5t1 -4.5v-1v-1q0 -1 -0.5 -3.5t-1 -5.5l-1 -6t-0.5 -4q-1 -1 -2 -1.5l-1 -0.5h-0.5h-0.5q-2 0 -3 2.5t-1 4.5zM199 42q-3 2 -5.5 5.5t-4.5 8t-3 8.5t-1 8q3 0 6 -3t5.5 -6.5t4 -7.5t1.5 -7v-2v-2l-1.5 -1z" />
</svg>
