<?xml version="1.0" standalone="no"?>
<!DOCTYPE svg PUBLIC "-//W3C//DTD SVG 1.1//EN" "http://www.w3.org/Graphics/SVG/1.1/DTD/svg11.dtd" >
<svg xmlns="http://www.w3.org/2000/svg" xmlns:xlink="http://www.w3.org/1999/xlink" version="1.1" viewBox="-10 0 266 256">
   <path fill="currentColor"
d="M124 168v7t-0.5 9t-1 9.5t-1.5 7.5q-3 6 -10 13.5t-14 14.5t-12.5 13t-5.5 9h2h4t4 -0.5t3 -1.5t3.5 -3t5 -5t5 -5t3.5 -3q0 -1 1.5 -2.5t3 -3.5t3 -4.5t2.5 -3.5t2 -2.5l2 -3t2 -2.5t3 -1t6.5 6t10 13.5t11 13.5t9.5 6q2 0 4 -1t2 -4q0 -2 -1.5 -4t-3.5 -3.5t-4.5 -3
t-3 -2.5t-2.5 -2.5t-3.5 -3.5t-3.5 -3.5t-3 -2.5q0 -4 -2 -7.5t-4.5 -6.5t-4.5 -7t-2 -9v-5v-5.5t0.5 -9t0.5 -8.5v-6q2 -3 7 -4.5t9 -4.5q1 -1 2.5 -9t2 -17l1 -18t0.5 -12q0 -2 -1 -3t-4 -3h-1v0v0q-1 1 -2.5 2l-1.5 1v17l-2 1l-2 0.5t-4 0.5t-4.5 0.5t-3.5 0.5h-2h-1
q-1 0 -3 -0.5t-3.5 -0.5t-3 -0.5l-1.5 -0.5v-18l-0.5 -0.5l-0.5 -0.5q-1 0 -4 -0.5t-4 -0.5v9v13v13v8v5t1 5.5t2 5.5t3 4t4 1q1 0 2 0.5l2 1t3 3.5v14zM71 216q0 1 1 3t3 2t5 -3l7 -7t7.5 -9t7 -9.5t5.5 -8.5t2 -6t-1 -2.5t-3 -0.5q-3 0 -4.5 2l-3 4t-2.5 4.5t-1 3.5
q-1 2 -5 5.5t-8 7.5t-7 8t-3 6zM145 176q0 5 3.5 10.5t8 11t10 10t8.5 6.5q1 0 1.5 0.5t1.5 0.5q2 0 3.5 -1.5t1.5 -4.5v-0.5v-0.5l-32 -30q-1 -1 -3 -1.5t-3 -0.5zM62 184v6q5 0 11.5 -5t12 -12t9 -14.5t3.5 -12.5q0 -6 -3 -11l-6 -10l-6 -10t-3 -10q0 -3 1 -6t2.5 -6l3 -6
t2.5 -4v-2q0 -2 -1 -4t-4 -2h-1l-3 2q-4 7 -6.5 13t-4.5 14v1v0q1 3 2.5 5.5t2.5 5.5l2 6t1 5q0 5 -4 8t-9 6t-9.5 7t-4.5 11q4 0 8 -2t7.5 -4.5t7 -5.5t5.5 -5q1 -3 2 -4t4 -1q2 0 2.5 1t1 2.5t0.5 3.5v3q0 5 -3 10.5t-7 10.5t-8 9t-8 7zM187 183q1 0 2.5 0.5t2.5 0.5
q2 0 3.5 -1.5t1.5 -2.5v-2q-3 -3 -7 -6t-7 -6.5t-5.5 -8t-2.5 -8.5q0 -3 1 -6t4 -3t5.5 2t5 5t4.5 5t5 2q2 0 4 -1t2 -4t-3.5 -6t-7.5 -5.5t-7.5 -5t-3.5 -6.5q0 -5 2 -10t2 -10q0 -10 -3 -16.5t-11 -12.5l-0.5 -0.5t-1.5 -0.5q-3 0 -3 4q0 6 3 10.5t6 8.5q0 1 0.5 4.5
t0.5 4.5q0 6 -2 11.5t-4.5 10.5t-4.5 9.5t-2 8.5q1 6 2.5 10.5t4 8.5t6.5 8zM115 118v0q0 -1 1 -1.5t2 -0.5h4t6.5 -0.5t6.5 -0.5h4h3q2 0 3.5 2t1.5 4q0 1 -0.5 5l-1 8t-2 7.5t-4.5 3.5h-15q-3 0 -5 -4t-3 -9t-1 -9v-5zM57 37h40q2 0 3 2.5t1.5 6.5t1 8.5t2.5 8.5t6.5 6.5
t12.5 2.5q10 0 16.5 -1.5t10 -5t5 -10t1.5 -16.5q0 -1 0.5 -1.5t1.5 -0.5t4.5 -0.5t4.5 -0.5h30q2 -1 2 -2v-3q0 -2 -0.5 -3t-2.5 -1q-7 0 -14 1t-14 1q-2 0 -5 -0.5t-4 -0.5l-2 -1v-18q0 -2 -3 -2h-2q-2 0 -4.5 1t-2.5 4v16q0 2 -2.5 2h-2.5h-4q-2 0 -6.5 -0.5t-8 -0.5
t-6.5 -0.5l-3 -0.5l-3 -1v-3.5t-0.5 -5t-2 -4t-3.5 -1.5h-1.5t-1.5 2q1 3 1 8q0 4 -4 7q-4 0 -9 -0.5t-10 0t-10.5 0.5t-9.5 1q-2 1 -2 3.5v2.5zM110 43v-2v-2l2 -2h33q2 0 2.5 2t0.5 3v2v1q0 1 -0.5 3.5t-1 4.5t-1 3.5l-0.5 1.5l-3 4h-24q-3 0 -4.5 -2.5t-2.5 -5.5t-1 -6
v-5z" />
</svg>
