<?xml version="1.0" standalone="no"?>
<!DOCTYPE svg PUBLIC "-//W3C//DTD SVG 1.1//EN" "http://www.w3.org/Graphics/SVG/1.1/DTD/svg11.dtd" >
<svg xmlns="http://www.w3.org/2000/svg" xmlns:xlink="http://www.w3.org/1999/xlink" version="1.1" viewBox="-10 0 266 256">
   <path fill="currentColor"
d="M175 248v2t3 1t5 -3.5t2 -5.5v-2v-8.5t-0.5 -15.5t-0.5 -19t-0.5 -19t-0.5 -16v-9v-1v-1l1 -1.5l1 -1.5h28q3 0 3.5 -0.5t0.5 -2.5t-1.5 -3.5t-4.5 -1.5h-1.5t-3.5 0.5t-4 0.5h-2h-7h-5l-3 -3l-0.5 -4t-0.5 -9t-0.5 -10.5t-0.5 -8.5v-4v-3t-1 -2t-4 -1q0 6 -0.5 11.5
t-0.5 10.5t-0.5 10.5t-0.5 12.5q-2 0 -5.5 0.5l-7 1l-7 1t-6.5 1.5v1v0.5v0.5l0.5 0.5l0.5 0.5h25v91l-0.5 3t-0.5 4v2zM33 246q0 3 3 3t6 -5.5t5.5 -13.5t5 -17.5t5 -18t4 -14t3.5 -5.5q1 0 1 0.5v0.5q2 0 2.5 2.5t0.5 4.5v4v2q1 3 2.5 10.5t3 15.5t3 15.5t1.5 9.5q1 6 3 7
t8 1q0 -10 -2.5 -21.5t-6 -23.5l-7 -24t-5.5 -22v-4q0 -4 0.5 -6l1.5 -6q-1 -29 1 -58t2 -59v-3.5v-3.5q-1 -2 -3 -3t-4 -1t-3 1.5l-2 3t-1 3.5v3q0 12 1.5 23t1.5 22q0 17 1 35t-2 34q-3 12 -6 25t-6.5 25.5t-7.5 25t-7 23.5q-2 2 -2.5 4t-0.5 5zM130 240q0 1 0.5 1.5
l0.5 0.5q2 0 3.5 -1.5t1.5 -3.5q2 -19 2.5 -37.5t0.5 -36.5v-37q0 -19 1 -38v-5v-5q-1 -5 -3.5 -8t-5.5 -4.5t-5.5 -1.5t-2.5 -1v-20h17l3 -4l-3 -4h-16l-0.5 -0.5l-0.5 -0.5v-1v-1l0.5 -2.5l0.5 -2.5q0 -2 -2 -4.5t-4 -2.5q-1 0 -2.5 0.5t-1.5 1.5v42q0 1 -0.5 1.5
l-0.5 0.5q-2 2 -3.5 3t-3 2.5t-2.5 3t-3 3.5q0 2 -0.5 5.5t-0.5 7.5v7.5v5.5v4t0.5 6.5t0.5 6v3.5v5q0 9 -1.5 18.5t-1.5 19.5q-1 18 -1.5 37t-0.5 37q4 0 6 -1.5t2 -5.5q1 -26 3 -51.5t1 -51.5l1 -3l2 -0.5t5 -1t5.5 -1t4.5 -1.5h2q3 0 3 3q0 20 -1 39.5t-1 38.5v8v10
q0 5 0.5 10t0.5 7zM151 240q1 2 2 2h2q2 0 3 -1.5t1 -3.5q1 -3 1.5 -9.5t1 -13.5t1 -13.5t0.5 -9.5v-12v-12l-0.5 -1t-1.5 -1h-1h-1l-0.5 1l-0.5 1q-2 18 -3 36.5t-4 36.5zM191 170q0 1 1 7t2 14t2.5 17t3.5 16.5t3.5 12.5t2.5 5q3 0 3.5 -2t0.5 -4v-8q0 -5 -0.5 -9t-1.5 -8
t-3 -7q0 -1 -1 -6t-1.5 -10.5t-1.5 -10.5t-1 -7q0 -1 -1 -3.5t-3 -2.5q-3 0 -4 2t-1 4zM43 143q0 1 0.5 1.5l0.5 0.5q3 0 3.5 -1.5t1 -3.5t0.5 -4v-3t0.5 -6t0.5 -10.5t0.5 -10t0.5 -6.5v-17v-4t0.5 -8t0.5 -7.5v-4.5v-3q0 -1 -0.5 -4t-3.5 -3v0v0q-1 0 -2 1t-2 1v10.5
t-0.5 16t-0.5 16v10.5l-0.5 2.5t-0.5 5.5v7v4v4v6t0.5 6t0.5 4zM84 134l1.5 1.5l0.5 0.5h1h1q1 0 1 -2q2 -3 2.5 -7t0 -8t-0.5 -8v-7v-8.5t0.5 -11.5t1 -11t0.5 -7v-1.5t0.5 -3.5t0.5 -3.5v-1.5q0 -2 -1.5 -3.5t-3.5 -1.5t-2.5 0.5l-2.5 2.5v13v13l0.5 1.5t1 3.5t0.5 3.5
v1.5v6t-0.5 10.5t-1 10t-0.5 6.5v6v5zM158 133q0 1 1 1.5t2 0.5q4 0 4 -5v-2q0 -1 -0.5 -4t-1 -6.5t-1 -6t-1.5 -4.5q0 -1 -2 -1.5t-3 -0.5q0 7 0.5 14t1.5 14zM193 129q0 4 3 4q2 0 3.5 -3t3 -6.5t2 -7t0.5 -5.5v0q0 -1 -0.5 -2t-1.5 -2h-0.5h-0.5q-1 0 -2.5 3.5l-3 7
t-2.5 7.5zM108 116v-14v-14v-2.5t0.5 -5t1.5 -5t3 -2.5h11q3 0 4.5 3t2 7t0.5 8v5v10t-1 11q-1 1 -3 1t-4 0.5t-4 0.5h-3h-3q-2 0 -3 -0.5t-2 -2.5zM202 87q3 0 4 3t2.5 7t4.5 7.5t10 3.5q0 -5 -2 -8t-4.5 -6.5t-4.5 -6.5t-2 -7v-31q0 -6 -5 -9t-10 -3l-36 2l-1 1.5t-2 1.5
v1v1l1 1l1 1h21h6t6 0.5t5 0.5h2l3 4v14q-9 0 -18.5 -2t-19.5 -2h-2.5h-3.5t-3 0.5t-1 2.5v0v0q0 1 1.5 2t1.5 2h10.5t11.5 1t11 2.5t9 4.5v1v1l-1 2.5t-2 2.5l-39 4l-0.5 1t-0.5 2t0.5 1.5l0.5 0.5h13q9 0 16.5 -1t15.5 -4h0.5h0.5z" />
</svg>
