<?xml version="1.0" standalone="no"?>
<!DOCTYPE svg PUBLIC "-//W3C//DTD SVG 1.1//EN" "http://www.w3.org/Graphics/SVG/1.1/DTD/svg11.dtd" >
<svg xmlns="http://www.w3.org/2000/svg" xmlns:xlink="http://www.w3.org/1999/xlink" version="1.1" viewBox="-10 0 266 256">
   <path fill="currentColor"
d="M126 184q2 0 5 5t7.5 12t9.5 16t10 16.5t10 12.5t8 5q7 0 7 -7q0 -2 -1.5 -4t-3 -3t-3.5 -2t-3.5 -3t-3.5 -4.5t-4.5 -5.5t-4.5 -5.5t-3 -3.5q-2 -2 -3.5 -5t-3 -6.5t-3 -6t-4.5 -4.5q-7 -17 -8.5 -34t-0.5 -36q-1 -2 -2 -2.5t-3 -0.5q-1 0 -2 0.5l-3 1.5v15t-0.5 16.5
t-1.5 16t-5 14.5t-8 12t-8 11q-3 5 -5.5 10.5t-5.5 10.5l-4 4l-5.5 5.5l-5 5t-2.5 3.5q0 2 0.5 3.5t1.5 1.5q4 0 9.5 -5t10.5 -12t10.5 -15.5t10 -16t7.5 -12t4 -4.5zM69 190l0.5 1.5l0.5 1.5h1q6 0 9 -3t5.5 -7t4 -9t2.5 -9q1 -1 2 -4.5l2 -7t2.5 -7t1.5 -4.5q0 -3 -1 -5
t-4 -2t-4 2.5t-2 6t-1 6.5v4q-1 3 -4 9t-6.5 12t-6 10.5zM156 135q0 5 3.5 13t8 16.5t9.5 15.5t9 10v0h1q2 0 3.5 -1.5t1.5 -4.5q0 -1 -2 -5.5t-5.5 -10.5t-7.5 -12.5t-8 -12t-6.5 -9.5l-2.5 -4q-2 0 -3 1.5t-1 3.5zM88 98q0 8 -1 15.5t-1 15.5q6 0 9 -6q1 -13 2 -26.5
t0 -26.5q2 -3 6 -6.5t6 -4.5h1v0h1l0.5 0.5l1.5 1.5v7t0.5 11t0.5 11.5v7.5v2.5t-0.5 3t0 3t2.5 2.5v0h1l2 -2l1 -1v-60q0 -2 -0.5 -2.5t-2.5 -0.5h-1v0q-1 1 -2.5 2t-3.5 3t-3.5 3t-1.5 2l-2 1h-1h-2t-1 -1v-30q0 -3 4 -3h9t9 -0.5t4 -4.5q0 -2 -1 -3t-3 -1h-1
q-7 0 -14 0.5l-14 1t-14 0.5t-15 1q-1 0 -3 2l-2 2q0 1 0.5 2l0.5 1h25q1 0 1.5 1l0.5 1v1q0 3 -4 5.5t-9 4.5t-9.5 4.5t-4.5 4.5t1 2.5t3 0.5q4 0 7.5 -1.5t6.5 -3.5t6 -3.5t7 -1.5q0 2 0.5 3t0.5 2t-0.5 2.5t-1.5 2.5q-2 1 -6 4t-9 6.5t-9 6.5t-6 4t-3.5 3t-1.5 5
q5 0 9 -2.5t8 -5.5t8 -5.5t9 -2.5q2 0 2.5 3t0.5 4q0 5 -3 8t-7 6t-9 6t-9.5 6.5t-7 7.5t-2.5 10q4 0 8.5 -2.5t8.5 -6.5t7.5 -8.5t6.5 -7.5h2q1 0 1 2t0.5 4.5t0.5 4.5v2zM166 81v39q5 0 7.5 -2.5t3 -6.5t0.5 -8.5v-8.5q0 -7 -1 -12.5t-1 -11.5v-2l1 -1.5t2.5 -2.5t2.5 -2
t2 -1q0 -1 1 -1h2h2t2 2v47q0 1 2 1h3q3 0 4 -2t1 -5v-2q0 -3 -0.5 -10.5t-1 -16t-1 -16t-0.5 -10.5l-2 -2l-1 -1h-1q-2 0 -4 1t-4 2.5t-4.5 3t-4.5 2.5q-4 -6 -4 -14.5v-14.5q0 -4 2 -6t6 -2q1 0 3.5 -0.5t6.5 -0.5q3 0 6 0.5t4 0.5q2 0 2.5 -1.5t0.5 -2.5q0 -6 -5 -6
q-13 0 -26 1.5t-25 2.5q-1 0 -3 -0.5t-4.5 0t-4 1.5t-1.5 3t2 3.5t4 1.5q3 0 6.5 -1t6.5 -1t4.5 0.5t1.5 3.5q0 5 -3 8.5t-7.5 6.5t-9 5.5t-6.5 5.5l1 0.5t2 1.5h1q5 0 8.5 -2.5t6 -5.5t5 -5.5t5.5 -2.5t3.5 1t0.5 3q0 5 -4.5 8.5t-10.5 7.5t-11 8.5t-7 10.5v0.5v0.5v0v1
l0.5 0.5l0.5 0.5h1q4 0 7.5 -3.5t6.5 -8t6.5 -8.5t7.5 -4t4 3v6v4l-3 3l-4.5 4.5l-5 5t-2.5 3.5q-3 2 -6 4.5t-5.5 5.5t-4.5 6t-2 6v3t2 1l3.5 -3.5l5 -5l5 -5l3.5 -3.5t2 -3t2 -3l2.5 -2.5t3.5 -1.5q1 0 1.5 0.5t1.5 0.5z" />
</svg>
