<?xml version="1.0" standalone="no"?>
<!DOCTYPE svg PUBLIC "-//W3C//DTD SVG 1.1//EN" "http://www.w3.org/Graphics/SVG/1.1/DTD/svg11.dtd" >
<svg xmlns="http://www.w3.org/2000/svg" xmlns:xlink="http://www.w3.org/1999/xlink" version="1.1" viewBox="-10 0 266 256">
   <path fill="currentColor"
d="M198 249q0 1 1 1.5t2 0.5t2 -0.5t1 -1.5v-3q0 -1 0.5 -3.5t0.5 -4.5v-2q0 -12 -3 -22.5t-3 -21.5q0 -4 1.5 -7t3.5 -6.5t3.5 -6.5t1.5 -7q0 -12 -7 -17.5t-18 -5.5q0 4 2 5.5t5 2.5t5 2.5t2 3.5v15q0 1 -1.5 2t-2.5 1v0.5v0.5q-1 0 -1 -0.5v-0.5q-1 0 -3 -2t-2 -3
q-2 -1 -4 -1h-4t-3.5 -1t-2.5 -3v-7q0 -5 1 -9t1 -8v-3t-1 -3.5t-1.5 -2.5t-2.5 -1q-1 0 -3.5 1t-6 3t-7.5 3t-8 1q-3 0 -5.5 -1t-5 -2.5l-5 -3t-6.5 -1.5v43q0 7 4 10.5t9.5 6t11.5 3.5t10 1q1 1 2.5 2l1.5 1q0 3 -4 6t-9.5 6t-11 5.5t-7.5 4.5v3v4q0 2 0.5 5.5t1.5 7t3 6
t5 2.5q2 0 3 -1t1 -3q0 -3 -1 -5t-2.5 -4.5t-2.5 -4.5t-1 -5q-1 -4 2.5 -6t6.5 -2q2 0 3.5 3.5t3.5 8t4.5 8t6.5 3.5q5 0 5 -4q0 -1 -0.5 -1.5l-0.5 -0.5l-11 -15v-3q0 -2 3 -6t7.5 -7t9.5 -5.5t8 -2.5q2 0 4 4t3 9t2 12t1.5 13t0.5 10.5t1 6.5zM51 236q0 3 0.5 5t3.5 2
t5.5 -3.5t4 -9.5t3 -13t2.5 -13.5t1.5 -12t1.5 -8.5q0 -2 0.5 -4.5l1 -5t1 -4l0.5 -1.5h2l1 1t1.5 2t1.5 2.5t1 2.5t0.5 4t1 6.5t1 6t0.5 3.5q1 2 2.5 8.5t3 13.5t3.5 12.5t4 5.5t2 -2v-4q0 -5 -1 -10.5t-2.5 -11.5t-3.5 -11.5t-3 -10.5q-5 -22 -8.5 -43.5t-3.5 -44.5v-12
v-12t1 -12t3 -12v-25q0 -2 -2 -2.5t-3 -0.5t-3 0.5t-2 2.5v105l-0.5 3t-1 7l-1 8t-1.5 7v1.5t-0.5 2.5t-0.5 2.5v1.5q-1 13 -3.5 26.5t-6.5 26.5q-2 5 -4.5 9.5t-2.5 10.5zM108 238q-1 2 0.5 2.5t3.5 0.5q3 0 3.5 -1.5t0.5 -4.5v-6q0 -2 -0.5 -8.5t-1 -14.5t-1 -14.5
t-0.5 -8.5q0 -4 0.5 -13t1.5 -19.5t1.5 -19.5t1.5 -13q1 -3 4 -6.5t7 -3.5q3 0 5 3t3.5 6.5t4 6.5t9.5 3h2q8 -2 12 -4.5t5.5 -4.5t2 -4t0.5 -4v-2.5t3 -2.5q4 -1 8.5 -1.5t8 -2t6 -4.5t2.5 -9q0 -2 -1.5 -5t-3.5 -5h-4t-6 -0.5t-6 -0.5h-4q-2 0 -2.5 -1l-1 -2t-0.5 -2.5
t-1 -3.5t-3.5 -3t-5 -1.5t-4.5 -1.5t-2 -3v-2v-4t0.5 -6l1 -6t0.5 -4q3 -2 6 -2q2 0 2.5 2.5t1.5 6t2.5 7.5t3.5 7.5t6 6t10 2.5h1l2 -2t1 -2q0 -3 -3 -4t-6.5 -3t-6.5 -6.5t-3 -14.5h5h6h6h4q2 0 5 -0.5t3 -4.5q0 -2 -2 -3.5t-4 -1.5q-8 0 -16.5 1t-16.5 1q-5 0 -6 -2.5
t-1 -4.5q0 -3 -0.5 -5.5t-3.5 -2.5h-0.5h-0.5l-3 18h-37l-0.5 0.5l-1.5 1.5v0v1v0v1q1 0 2.5 0.5t2.5 0.5t4 0.5t6 0.5t6 0.5t4 0.5v1q0 4 -2.5 7.5t-6 6.5t-6 6.5t-2.5 7.5q5 0 9.5 -3t7.5 -7t5 -9t2 -10h1h1h2.5t2.5 2v2.5t0.5 3.5t0.5 4v3v2q0 4 -2 7t-4.5 5t-5.5 4.5
t-5 6.5h-6t-6 0.5t-6 1.5t-5 4l2 2q4 0 7.5 -0.5t6.5 0.5t4.5 3t1.5 7q0 4 -2.5 6t-6 4t-6.5 3.5t-5 4.5q-2 4 -3 10.5t-1.5 14t-0.5 14.5v11q0 1 -0.5 6t-0.5 10.5t-0.5 10.5t-0.5 6v10v8v7.5t0.5 7t1.5 9.5zM171 185q0 -3 1 -7.5t4 -6.5q5 2 7.5 4.5t2.5 8.5q0 2 -1 3
t-2.5 1.5t-3.5 1t-4 0.5q-4 0 -4 -5zM139 181q0 -2 1 -4.5t2 -4.5t3 -4t4 -2t4 3t4 6.5t3 6.5t1 5h-10t-10 -3q-1 0 -1.5 -0.5t-0.5 -2.5zM129 166q0 -3 1 -4t4 -1q1 0 3.5 0.5t2.5 2.5v2q-1 1 -2 3t-1.5 3.5t-1.5 2.5l-1 1h-3l-0.5 -1t-1 -3t-0.5 -3v-3zM159 162
q4 0 6.5 0.5t2.5 4.5q0 2 -1 5t-3 3l-1 -1l-0.5 -1.5l-1 -3t-1.5 -3t-1 -2.5v-1v-1zM168 141v3t-0.5 4.5t-1.5 4.5t-2 2h-11q1 -5 5 -9.5t10 -4.5zM129 149q0 -1 1 -1q0 -1 0.5 -5t0.5 -5q2 1 4.5 2.5t4.5 3.5t3.5 4.5t1.5 4.5h-14l-0.5 -1.5l-0.5 -1.5q-1 0 -1 -1v0z
M150 145v0q2 0 2.5 1t0.5 2h-3v-3zM48 125l1 10h1h1q3 0 4.5 -1.5t2 -3.5t0.5 -4.5v-4.5v-8.5t0.5 -16.5t0.5 -16.5v-9.5v-1q0 -2 -1 -4.5t-3 -2.5h-2.5t-1.5 1v9.5v13.5v13.5v8.5v4.5t-0.5 4.5t-0.5 4t-1 2zM91 82q0 5 0.5 12.5t0.5 15t0.5 13l0.5 5.5l5 5l1 -6v-59l-1 -6
h-1h-1l-1.5 0.5l-1.5 0.5q0 1 -0.5 4t-0.5 5.5t-0.5 5t-0.5 4.5zM141 111q0 -3 2 -4t5 -1.5t6 -0.5h5h3h4l1 1.5l1 1.5v1v0q0 2 -1.5 4t-3.5 3t-4.5 1.5t-4.5 0.5h-3.5t-4.5 -1t-3.5 -2.5t-1.5 -3.5zM139 95q0 -3 1.5 -5.5t3.5 -4.5q6 -1 10 -1.5t9 -0.5h3t2 2v13h-27
q-1 0 -1.5 -1t-0.5 -2zM176 95v-4q0 -4 1 -5t5 -1q3 0 5 0.5t2 4.5t-2 5.5t-6 1.5q-2 0 -2.5 -0.5t-2.5 -1.5zM154 68q6 -1 8.5 1.5t2.5 7.5h-22q0 -2 1.5 -3.5t3.5 -2.5l4 -2z" />
</svg>
