<?xml version="1.0" standalone="no"?>
<!DOCTYPE svg PUBLIC "-//W3C//DTD SVG 1.1//EN" "http://www.w3.org/Graphics/SVG/1.1/DTD/svg11.dtd" >
<svg xmlns="http://www.w3.org/2000/svg" xmlns:xlink="http://www.w3.org/1999/xlink" version="1.1" viewBox="-10 0 266 256">
   <path fill="currentColor"
d="M111 245q0 2 0.5 3t1.5 2q3 0 6.5 -1.5t3.5 -4.5v-2l-0.5 -1.5t-0.5 -3.5t-0.5 -3.5t-0.5 -2.5t0.5 -3.5t1.5 -2.5v-96l3 -3l20 -5q4 -1 5.5 -4t2 -7t0.5 -8t1 -6v-28l-0.5 -0.5l-0.5 -0.5h-1q-2 0 -4 3t-5 3l-16.5 4.5t-7.5 4.5t-2 9v17q0 1 -0.5 4t-0.5 6.5t-0.5 6.5
t-0.5 4v7v13v16v16v13v7q0 4 -1 9.5t-1.5 11.5t-1.5 12t-1 11zM202 244q2 2 3 3.5t3 1.5t4.5 -1.5t1.5 -3.5l-3 -11q1 -37 0 -74.5t-3 -74.5l-0.5 -1t-1 -3t-1 -3t-1.5 -2t-3.5 -2t-5 -1.5l-5 -1t-4.5 -0.5q-3 0 -6.5 -1.5t-6.5 -1.5q-5 0 -5 5t0.5 9t1 8.5t0.5 8.5v10
q4 9 11.5 11.5t16.5 3.5q3 31 4 60.5t0 60.5zM159 204q-8 -1 -12 4t-6.5 11.5t-3 14t-0.5 12.5q5 0 7 -1.5t2.5 -3.5t0.5 -5t2 -7q1 0 1 -2v-2q0 -1 -0.5 -3.5t-0.5 -3.5v-1q0 -2 1 -4.5t4 -2.5q1 0 3 0.5t2 1.5v30q0 2 1 2h2h2.5t1.5 -2v-30l1.5 -0.5t2.5 -0.5l0.5 -0.5
t1.5 -0.5q2 0 2.5 1l1.5 3q1 1 1 4.5v7.5t0.5 8t0.5 5q1 4 1.5 4.5t3.5 0.5t4 -1.5t1 -4.5v-7.5t-1 -9.5t-3 -9t-6 -6q-1 -1 -3 -1.5l-4 -1t-3.5 -1.5t-2.5 -3q6 -4 11 -5t8.5 -2t5 -4t1.5 -12q0 -6 -1.5 -9.5t-4.5 -5t-6 -2l-6 -1t-4.5 -1.5t-1.5 -4v-2q0 -2 1 -3l15 -3
q2 0 3 -2.5t1.5 -5l1 -5t0.5 -3.5q-3 0 -5 1.5t-3.5 4t-3.5 4t-5 1.5h-2q-1 0 -2.5 -0.5l-1.5 -0.5v-16l-1.5 0.5t-2.5 1.5q-1 0 -1.5 2l-1 4t-0.5 4v2h-3h-2q-3 0 -4.5 -0.5t-3 -1.5t-2 -2t-1.5 -1q-3 0 -3.5 1t-0.5 3q0 5 3.5 6.5t7.5 2t7.5 1.5t3.5 6q0 6 -4 7.5t-9 2.5
t-8.5 4t-3.5 12t3.5 12t8 4t8 2t3.5 6v2zM43 242q0 1 1 1.5t2 0.5h2h1q4 0 7.5 -4.5t6 -11t4 -13t2.5 -9.5q1 -2 2 -5.5l2 -7t2.5 -7t1.5 -4.5l0.5 -1t1.5 -1h1q1 0 3 5.5t3.5 12.5l3 14t2.5 10q1 4 1 8.5t1 7.5t3.5 5t7.5 2q0 -8 -1.5 -16t-4 -15.5l-5 -15t-4.5 -15.5
q-4 -22 -4.5 -45t-0.5 -45v-4q0 -1 0.5 -6t0.5 -12v-14.5t0.5 -14t0.5 -12v-6.5v-1v-1q0 -1 -0.5 -4t-1.5 -4h-1h-1q-3 0 -3.5 1t-0.5 4q0 1 -0.5 3.5t-0.5 5t-0.5 4.5t-0.5 3q0 2 0.5 8t0.5 12v12v8v8l1 40q-1 1 -1.5 4.5t-1 7.5t-0.5 8v7q0 1 -0.5 4t-1 5.5t-0.5 5v2.5
q-1 8 -5 15t-7 14q-2 7 -4 14.5t-5 14.5q-1 1 -2.5 3t-3 5t-3 5.5t-1.5 3.5zM152 169l5 -5q3 1 3 4.5v5.5v8t-1 8h-1h-1l-2.5 -1.5t-2.5 -2.5v-17zM165 172v-4t3 -2v0v0q1 0 2.5 1.5l1.5 1.5v17q0 1 -2 2h-1q-2 0 -3 -2t-1 -4.5v-5.5v-4zM176 167q6 0 7.5 3t1.5 8q0 3 -1 6
t-4 3h-1t-1 -1q0 -3 -1 -9t-1 -10zM141 179v-3t1 -4t2 -3t3 -1v17q-4 0 -5 -1t-1 -5zM54 139q0 2 1.5 2.5t3.5 0.5t4.5 -2t2.5 -4v-66q0 -1 -1.5 -1.5t-2.5 -0.5q-3 0 -3.5 3t-0.5 5q0 10 -0.5 18t-1 15t-1.5 14.5t-1 15.5zM98 129v2v4t1 3.5t2 1.5h1l1 -2t2 -2v-13.5
t0.5 -19.5t0.5 -19.5v-13.5v-1q0 -2 -0.5 -3t-2.5 -1q-3 0 -3.5 3.5t-0.5 5.5q0 10 0.5 19t0.5 19q0 4 -1 8.5t-1 8.5zM123 110q0 -3 2 -4t4.5 -1.5t5.5 -0.5h5h3h3l0.5 0.5l0.5 0.5v0.5v0.5q0 3 -1.5 5.5t-4 3.5t-5.5 2t-5 1q-4 0 -6 -2.5t-2 -5.5zM176 99h19q2 0 3 2.5
t1 4.5v6t-3 3q-10 0 -15 -3.5t-5 -12.5zM143 81q3 0 4.5 1.5t1.5 4.5t-2.5 5t-6.5 3t-8 1h-6v-12l2.5 -0.5l5 -1t5.5 -1t4 -0.5zM175 80v-1l0.5 -0.5l0.5 -0.5h19q2 0 2.5 3t0.5 4v1v2t-0.5 2t-1.5 1h-18l-0.5 -0.5l-1.5 -1.5l-0.5 -3t-0.5 -5v-1zM120 21v19q0 2 2 3t5 2
t5.5 1.5t3.5 1.5t1.5 3t0.5 3.5t1 3t3 1.5q3 0 3.5 -1t0.5 -3t-0.5 -4t0.5 -3q0 -2 2.5 -2.5t5.5 -2.5t5.5 -6t2.5 -12v-3.5v-2.5l-3 -3q-2 2 -2 5.5t-1 7.5t-2.5 6.5t-5.5 2.5h-1l-0.5 -1.5l-0.5 -1.5q-1 -1 -1 -3.5t-0.5 -6t-0.5 -6v-3.5h-6v19l-1.5 1.5t-2.5 1.5v0v0h-1
q-1 0 -3 -0.5t-2.5 -1t-1.5 -1l-1 -0.5v-14h-5zM170 28v7.5t1.5 3.5t4.5 2t7 2q2 1 2.5 3.5t0.5 5t1 5t4 2.5l1 -0.5t1 -1.5v-1v-3v-3v-2q0 -3 3.5 -4t7.5 -2.5t7 -5t3 -10.5v-2v-4t-1 -4t-2 -2t-2 0.5t-1 1.5t-0.5 2.5t-0.5 3.5t-0.5 4t-0.5 3t-1.5 3.5t-2.5 2.5h-1
t-2.5 -0.5t-2.5 -1l-1 -0.5v-19l-1.5 -1t-2.5 -2h-1h-1l-0.5 0.5t-0.5 1.5q-3 4 -3 10v11q-1 1 -1.5 1h-1.5q-4 0 -4.5 -2t-1 -5t-0.5 -5.5t-3 -3.5l-3 3v2.5v3.5z" />
</svg>
