<?xml version="1.0" standalone="no"?>
<!DOCTYPE svg PUBLIC "-//W3C//DTD SVG 1.1//EN" "http://www.w3.org/Graphics/SVG/1.1/DTD/svg11.dtd" >
<svg xmlns="http://www.w3.org/2000/svg" xmlns:xlink="http://www.w3.org/1999/xlink" version="1.1" viewBox="-10 0 266 256">
   <path fill="currentColor"
d="M177 246q0 2 1.5 3.5t3.5 1.5h2q0 -4 1 -7.5t2 -7.5v-38q-1 -2 -1.5 -5t-0.5 -5v-5.5v-3.5q0 -2 -0.5 -5.5t-0.5 -8t-0.5 -8t-0.5 -4.5q-1 -3 -2 -7.5t-2.5 -9.5l-3 -10t-3.5 -9q2 -1 4.5 -3.5t4.5 -5t3 -5.5t1 -6q0 -6 -3.5 -11.5t-8 -10t-10 -8t-9.5 -7.5l-2 -2
l-2.5 -2.5t-3 -2.5t-2.5 -2h-2h-3h-2h-2q-3 0 -6 -1l-6 -2t-6.5 -2t-6.5 -1q-1 0 -4 1t-3 3v1l2 2l1 1l30 8l2 2q2 3 3.5 3.5t5.5 1.5l9 4.5t8.5 6t6.5 7.5t4 10q1 2 0 4.5t-2.5 4.5t-3.5 3.5t-4 1.5h-1l-6 -6t-7 -6t-8 -5t-8 -3t-11.5 -2.5t-14.5 -3.5t-12.5 -5.5
t-5.5 -9.5q0 -7 2 -13.5t4.5 -13.5t4.5 -13.5t2 -13.5q0 -1 -0.5 -1h-0.5q0 -1 -1 -2l-1 -1q-4 0 -6 3.5t-3 7.5t-1 8v6q-2 5 -3.5 10l-3 10t-2.5 10t-1 11v3t1 3q1 2 7.5 3.5t15 4t17.5 5t17 5.5t13 6.5t5 7.5q0 2 -3.5 3t-7.5 2.5t-8 2t-6 0.5q-1 0 -4.5 0.5t-7.5 0.5
t-7 0.5t-4 0.5h-7.5h-11.5h-11.5h-7.5q-1 0 -1.5 1l-0.5 1v1q0 2 1.5 3.5l2.5 2.5h6h6h7h11t11 -0.5t7 -0.5q3 -1 9 -2l12 -2t11.5 -3t7.5 -6q2 2 5 9.5t5 17t4 18t2 11.5t-1 5.5t-1 5.5q0 12 1.5 24.5t1.5 24.5v2.5t-0.5 3t-0.5 3v1.5z" />
</svg>
