<?xml version="1.0" standalone="no"?>
<!DOCTYPE svg PUBLIC "-//W3C//DTD SVG 1.1//EN" "http://www.w3.org/Graphics/SVG/1.1/DTD/svg11.dtd" >
<svg xmlns="http://www.w3.org/2000/svg" xmlns:xlink="http://www.w3.org/1999/xlink" version="1.1" viewBox="-10 0 266 256">
   <path fill="currentColor"
d="M60 247q0 2 3 2.5t4 0.5q4 0 10.5 -5.5t12.5 -12.5t11.5 -14t8.5 -10q0 -1 2 -3t4.5 -4t4.5 -4l3 -3h2h3.5t2.5 1l21 21q6 2 10.5 7t9.5 10t10 9.5t12 4.5q2 0 2.5 -1t0.5 -3v-3q-12 -12 -23.5 -21t-24.5 -19q-4 -3 -6.5 -5t-6.5 -4v-4q0 -3 0.5 -5t1.5 -3.5l2 -3t2 -4.5
l35 -35l0.5 -1l0.5 -1q0 -4 -4 -4q-2 0 -6 2.5t-8 6.5t-7.5 8t-5.5 5q-2 3 -4.5 7t-5.5 8t-6 6.5t-7 2.5h-3l-3.5 -3.5l-5.5 -5.5l-6 -6l-4 -4l-1 -1t-2 -1.5t-2 -1.5l-1 -1q-1 0 -2 -1t0 -2q-1 -1 -2.5 -2t-3.5 -2.5t-4 -2.5t-4 -1h-1l-3 1q1 8 7.5 14t13.5 11.5t12.5 10.5
t5.5 9q0 3 -4 7.5t-10.5 10.5t-14 12.5t-13.5 12.5t-10 10.5t-4 6.5zM67 132q0 2 1.5 4t3.5 2h1h1q1 -1 3.5 -2t2.5 -2l15 -19q4 -2 8 -7l8 -10t8 -9t8 -4q3 0 6 1.5t5 3.5q2 1 7 5.5t10.5 9t10 8.5t6.5 6h1.5h1.5q3 0 4 -1t1 -4t-2.5 -6t-7 -6.5t-10 -6.5t-10.5 -6.5
t-8.5 -7.5t-4.5 -7v-1v-1q0 -1 2 -4l4 -6t4 -5.5t3 -3.5q0 -1 2.5 -3.5t5 -5.5t5 -5.5l3.5 -3.5t3 -3.5t4.5 -5.5t4 -5.5t1.5 -4.5q0 -6 -6 -6q-3 0 -6.5 4.5t-8.5 11t-10 14t-10 13.5t-8.5 9.5t-5.5 1.5l-23 -22q-2 0 -4.5 -4t-5.5 -8.5t-7 -8t-9 -3.5q-2 0 -4 1t-2 4
t2 6.5t5.5 6t6.5 5t5 4.5q2 1 4.5 3.5l5.5 5.5l6 6l4 4q0 2 1.5 3t3.5 2.5t3.5 3t1.5 3.5q0 1 -4 5.5t-9.5 10t-12 12.5t-12 12.5t-9.5 10t-4 5.5z" />
</svg>
