<?xml version="1.0" standalone="no"?>
<!DOCTYPE svg PUBLIC "-//W3C//DTD SVG 1.1//EN" "http://www.w3.org/Graphics/SVG/1.1/DTD/svg11.dtd" >
<svg xmlns="http://www.w3.org/2000/svg" xmlns:xlink="http://www.w3.org/1999/xlink" version="1.1" viewBox="-10 0 266 256">
   <path fill="currentColor"
d="M163 246q0 2 1 3.5t3 1.5t3 -1.5t2 -3.5t1.5 -4t0.5 -3q0 -6 -0.5 -11.5t-0.5 -11.5v-5t4 -3h15q1 0 2 2t1.5 4t0.5 3.5v1.5v13q0 1 0.5 2.5t0.5 3.5t0.5 4l0.5 2q1 2 1.5 2h1.5q2 0 3 -0.5t2 -2.5v-11q0 -16 -1.5 -31.5t-1.5 -30.5q0 -8 1.5 -15t1.5 -15q0 -1 -1 -2
t-2.5 -2t-2.5 -2t-2 -1q-1 1 -1.5 4t-1 5.5t-1.5 4.5t-4 2h-13l-0.5 -0.5t-0.5 -1.5v0v-1v-3.5t0.5 -5.5t0.5 -5.5v-3.5q4 -2 7.5 -3t6.5 -1.5t5.5 -1t5 -2t3.5 -5.5t1 -11q0 -2 -0.5 -4.5t-1.5 -5.5t-3 -4.5t-5 -1.5h-38q-1 0 -1.5 1t-0.5 2t1 2.5t3 1.5h33l3 4l0.5 2
t0.5 3q0 7 -3 10t-10 3q-4 0 -6 -1.5t-3 -4t-3 -4.5t-6 -2q-1 0 -4 -0.5t-6 -0.5t-6 -0.5t-5 -0.5q0 -1 -1 -4t-2 -6.5t-2.5 -6t-3.5 -2.5q-3 0 -3 1.5v3.5v5.5t1 6.5t3 5.5t5 2.5q2 1 5 1t6.5 1t6.5 1t5 1t2.5 2t0.5 3v3t-2 2h-35q-2 0 -2.5 2t-0.5 3t0.5 2t1.5 2h9
q6 0 11.5 -1t11.5 -1h1q1 0 2.5 0.5t2.5 1.5v9v7.5t-0.5 7t-0.5 7t-1 8.5q-1 2 -2.5 3t-4 1h-5h-3.5t-4 -1.5t-3 -2.5v-27q0 -1 -1.5 -1.5l-1.5 -0.5q-4 0 -3 4q0 17 -1 33.5t-3 33.5q0 5 -1.5 9.5t-1.5 9.5q0 2 0.5 4t2.5 2h1.5h0.5q4 -2 5.5 -5.5t1.5 -6.5t-0.5 -6t0.5 -5
t4.5 -3.5t10.5 -1.5q3 0 5 1.5t2 4.5q0 2 -0.5 6t-1 8.5t-0.5 8.5v5v2zM109 157q0 2 -0.5 8t-0.5 13t-0.5 15t-1 15t-0.5 12.5v8.5q0 1 -0.5 3.5t-0.5 5.5v6v4q4 0 5.5 -1t3.5 -4q-1 -14 -0.5 -28.5t1.5 -29l2 -29t2 -28.5v-10t0.5 -15t1.5 -15t2 -10q1 -2 3.5 -2.5
t4.5 -0.5q5 0 10 1t11 1q7 0 13.5 -0.5t15.5 -1.5q1 0 3 -1.5t3 -3.5l3 -14q1 -3 3.5 -3.5t6 -0.5t6 -1t2.5 -4t-3 -4t-5 -1q-16 0 -32 1.5t-33 1.5h-7q-2 -1 -2.5 -2t-0.5 -3q0 -3 1 -4.5t3 -2.5t4.5 -1.5t4.5 -0.5h2t4.5 -0.5t5 -0.5h4.5t7.5 -0.5t12.5 -0.5t13 -0.5
t8 -0.5l5 -5v-1v0l-2 -2t-2 -1h-5q-11 0 -21.5 0.5t-20.5 2.5q-6 1 -11.5 1t-9.5 1.5t-6.5 4t-4.5 8.5q-1 3 -1.5 9t-1 13.5t-1 16t-1 16t-1 13.5t-0.5 9v6v11v10v6t-1 4.5t-1 5.5zM50 243q1 3 5 3q2 0 3.5 -1t2.5 -3q2 -12 2.5 -24t0.5 -24v-23.5v-23.5q0 -2 0.5 -7.5
l1 -11t1 -10t2.5 -5.5q1 -1 3 -1h4h3t3.5 0.5t3 1.5t1.5 3v9v11.5v12.5v8v11v12.5v11.5v6t-0.5 6t-1.5 10.5t-1.5 10.5t-0.5 6v3q0 1 0.5 2t1.5 1q2 0 5 -1.5t3 -4.5v-17v-12.5t0.5 -19t0.5 -21.5v-21.5t0.5 -18.5t0.5 -13q-1 -1 -2.5 -3.5t-2.5 -2.5h-21l-1 -3l-0.5 -3
t-0.5 -5q0 -9 2 -13.5t5 -6t6.5 -1t7 0.5t6 -2t4.5 -7q1 -7 1.5 -11.5t1 -8.5t0.5 -8v-9v-12q0 -2 -1 -2.5t-2 -0.5q-4 0 -5 3q1 10 0.5 21t-2.5 21q-2 6 -7 7t-10 1h-2t-1 -1v-49q0 -2 -2 -2.5t-4 -0.5h-2.5t-1.5 3q-3 21 -3.5 43.5t-0.5 42.5v3v5v5v3q-2 27 -3 53t-1 54
q-1 4 -2 10t-1 10zM144 193q0 -5 2 -7.5t5 -3.5t7 -1h9q0 4 -0.5 8t-1.5 6.5t-4 4.5t-7 2q-10 0 -10 -9zM173 194q0 -7 3 -9.5t9 -2.5t8 2t2 8v3v2q-2 3 -6 3.5t-7 0.5h-3h-3q-2 -2 -2.5 -3.5t-0.5 -3.5zM174 168q0 -3 1 -6t4 -4h6q5 0 7.5 1.5t2.5 8.5q0 2 -1 3.5t-3 2
t-4 0.5h-3h-7q-1 -1 -2 -3t-1 -3zM126 67q-2 -1 -2.5 -2t-0.5 -3t0.5 -4t2.5 -3q8 -1 17.5 -2t17.5 -1h2h3.5h5.5t5.5 0.5t3.5 0.5l0.5 0.5t0.5 1.5t-0.5 3t-1.5 4t-2.5 3.5t-3.5 1.5q-1 0 -4.5 0.5t-7 0.5t-7 0.5t-4.5 0.5q-2 0 -5.5 -0.5t-7 -0.5t-7 -0.5t-5.5 -0.5z" />
</svg>
