<?xml version="1.0" standalone="no"?>
<!DOCTYPE svg PUBLIC "-//W3C//DTD SVG 1.1//EN" "http://www.w3.org/Graphics/SVG/1.1/DTD/svg11.dtd" >
<svg xmlns="http://www.w3.org/2000/svg" xmlns:xlink="http://www.w3.org/1999/xlink" version="1.1" viewBox="-10 0 266 256">
   <path fill="currentColor"
d="M63 247q1 2 2 3t3 1t3 -1t2 -3q0 -2 0.5 -7.5t1 -11.5l1 -12t0.5 -8q1 -5 2.5 -14t4 -18t6.5 -16.5t9 -8.5q12 -4 24.5 -4.5t24.5 -0.5h9q2 0 3 4t1.5 8.5t1 8.5t0.5 5q1 14 4 27.5t8 26.5l0.5 1.5l0.5 1.5q0 1 0.5 2t0.5 2.5t0.5 2.5t0.5 2t1 2.5t1.5 3t1.5 2.5l1 1h14
q0 -4 -1.5 -8.5t-3.5 -8.5t-4 -8.5t-3 -8.5q-6 -15 -9 -31t-3 -32t1 -31t1 -31q0 -3 -0.5 -7t-1.5 -7.5t-3.5 -5.5t-6.5 -2h-17q-17 0 -33.5 0.5t-33.5 0.5v-24q0 -2 1.5 -2.5t4 -1t4.5 -1t3 -0.5l41 -3h46l6 -2v-1.5v-1.5v-2v-2t-0.5 -2t-1.5 -1h-3h-3q-7 0 -13.5 1.5
t-14.5 1.5q-15 1 -30.5 2.5t-30.5 1.5q-3 0 -5 -1.5t-2.5 -3.5t-1 -4.5t-0.5 -5.5q-2 -3 -5.5 -3.5t-6.5 -0.5q0 16 1 34t1 34q0 5 0.5 11t2.5 11.5t5.5 9.5t10.5 4q4 0 7 -1t6 -1q6 0 11.5 1t10.5 1q7 0 14 -1t14 -1h3.5h2.5l4 3v18l-62 7l-1.5 0.5t-3 1.5t-3 2.5t-2.5 1.5
q-7 6 -12 17t-8 23.5t-4 24.5t-1 22v13zM85 103q-4 -2 -4.5 -7t-0.5 -9v-7q0 -1 2 -2t4.5 -1t4.5 -0.5t4 -1.5h7.5t11.5 -0.5t11.5 -0.5h7.5h5q6 0 11 0.5t7.5 2.5t4 6t1.5 10v4.5v2.5l-4 3q-1 0 -3.5 0.5t-6 0.5t-6.5 0.5t-4 0.5l-2 0.5t-3 1.5h-2h-4h-4h-2h-10t-8 -0.5
t-8.5 -1t-9.5 -2.5z" />
</svg>
