<?xml version="1.0" standalone="no"?>
<!DOCTYPE svg PUBLIC "-//W3C//DTD SVG 1.1//EN" "http://www.w3.org/Graphics/SVG/1.1/DTD/svg11.dtd" >
<svg xmlns="http://www.w3.org/2000/svg" xmlns:xlink="http://www.w3.org/1999/xlink" version="1.1" viewBox="-10 0 266 256">
   <path fill="currentColor"
d="M80 237q0 1 -0.5 3t0 4t1.5 3.5t3 1.5t3.5 -1.5t2.5 -3.5t1 -4.5v-4.5v-2v-6v-6v-4q0 -9 -1 -17.5t-1 -16.5v-4q0 -2 1 -3v-7.5t0.5 -9.5t0.5 -8v-3l3 -2h22q1 0 2 -1.5t2 -1.5v-1q0 -1 -2 -2.5t-3 -1.5h-24v-27l3 -2t7 -5t7 -6.5t4 -7.5l3 -39q1 -4 1 -7q0 -2 -1 -3.5
t-3 -1.5t-4 1t-2 3v42l-1 1t-1.5 2.5t-1.5 3.5t-2 3q-1 2 -4 1.5t-5 -0.5q0 -17 0.5 -34t0.5 -34v-14q-1 -3 -4 -3q-1 0 -3 0.5t-2 2.5v74l-2 11v1q-3 0 -5 -2t-3.5 -5t-2.5 -5.5t-1 -4.5l-3 -43q0 -1 -1.5 -1.5t-2.5 -0.5v0h-1q-1 0 -2 0.5t-1 1.5v6v18.5t2.5 18t7.5 15.5
t13 11v29l-3 3h-33q0 3 1 6t5 3q6 0 11.5 -1t11.5 -1h3.5h2.5l1 2l0.5 3t0.5 7v7v6q0 17 -1 32.5t-1 31.5zM120 203h7t11.5 0.5t13.5 0.5t13.5 0.5t11.5 0.5h7h14h13q1 -1 1.5 -2t0.5 -3q0 -1 -0.5 -2.5t-1.5 -1.5h-38l-1 -3l-0.5 -4t-1 -9.5t-0.5 -8.5v-5v-1v-2v-2t2 -1h22
q2 0 2.5 -2t0.5 -3v-2.5t-2 -1.5h-65l-0.5 0.5t-0.5 1.5v1v1l1 1.5t2 1.5l2 2l1 1h24v29l-0.5 1.5t-1.5 1.5q0 1 -0.5 1.5l-0.5 0.5h-34l-2 1l-4 2l-0.5 1l-0.5 1v1v0q0 1 2 1.5t3 0.5zM132 111v4v4v4v2l1 3l2 6t2.5 5t3.5 2t2 -2v-3q0 -7 -2.5 -13.5t-2.5 -13.5
q0 -6 1 -10.5t2.5 -9.5t2.5 -10t1 -10v-11q-1 -2 -2.5 -5.5t-4.5 -3.5t-3 4q0 5 1.5 9.5t1.5 10.5t-1.5 12.5t-4.5 12.5v3v3.5v4.5v2zM179 108q0 2 1.5 7.5t3.5 11t4.5 10t6.5 3.5q1 0 2 -1.5t1.5 -2t-1.5 -4t-4 -8t-3.5 -8.5t-2.5 -7q0 -4 1 -9t2.5 -9.5t2.5 -9t1 -9.5
v-4.5v-4.5q-1 -2 -2 -4.5t-2 -4.5t-2.5 -3.5t-3.5 -1.5q-3 0 -3 4q0 5 1.5 10t1.5 11q0 9 -2.5 17.5t-2.5 16.5zM156 107v7t0.5 9.5t2.5 8t5 3.5q2 0 3 -0.5t1 -2.5q0 -3 -2 -7t-2 -7v-3t-0.5 -4t-0.5 -4v-2q0 -10 2.5 -18.5t2.5 -17.5q0 -3 -0.5 -6.5t-2 -6.5t-3.5 -5.5
t-5 -2.5q-2 0 -2.5 1t-0.5 2q0 3 1 5l2 4t2.5 4t1.5 6q0 10 -2.5 18.5t-2.5 18.5zM127 38q1 1 2.5 2t2.5 1h3h5.5h4.5h4h4h5.5h4.5h2h8.5t11.5 -0.5t11.5 -0.5h8.5q1 -1 1.5 -2t0.5 -2q0 -2 -1 -2.5t-3 -0.5h-12h-12h-9t-14.5 0.5t-14 0.5h-9.5q-3 1 -5 4z" />
</svg>
