<?xml version="1.0" standalone="no"?>
<!DOCTYPE svg PUBLIC "-//W3C//DTD SVG 1.1//EN" "http://www.w3.org/Graphics/SVG/1.1/DTD/svg11.dtd" >
<svg xmlns="http://www.w3.org/2000/svg" xmlns:xlink="http://www.w3.org/1999/xlink" version="1.1" viewBox="-10 0 266 256">
   <path fill="currentColor"
d="M154 231v5q0 4 0.5 7t2 5.5t3.5 2.5q3 0 4 -1t1 -4q0 -5 -1.5 -8.5t-1.5 -7.5q0 -6 3.5 -10t9 -7.5t11.5 -6.5t9 -7q4 -7 6.5 -16t2.5 -17q0 -4 -0.5 -6t-1.5 -7q-2 -11 -5 -16t-8 -7t-11.5 -3.5t-15.5 -3.5q-2 -1 -2.5 -2.5t-0.5 -3.5t-0.5 -4t-2.5 -2q-3 0 -4 1.5t-1 3
v3t-2 2.5q-10 5 -17.5 8.5t-12 8.5t-7 13t-2.5 21q0 8 1.5 15.5t5 13.5t10 9.5t15.5 3.5q2 0 3.5 -0.5t1.5 -2.5q0 -1 -1.5 -2t-2.5 -1q-1 -1 -3.5 -1.5t-4.5 -1.5t-4.5 -2t-3.5 -1q-3 -2 -4.5 -5.5t-2.5 -7.5t-1 -7.5v-7.5v-12.5t1.5 -10t4.5 -8.5t9 -7q6 -4 11 -6.5
t12 -2.5h2l1.5 1t3 1.5t2.5 1l1 0.5q4 2 9 3.5t9 3.5t7 5t3 9v31q0 6 -3 9.5t-7.5 6.5t-10 5.5t-10 6t-7.5 8.5t-3 12zM78 235q0 2 1 2.5t3 0.5h2.5t2.5 -2l2 -10v-99l2 -1q1 0 3 -0.5t4.5 -0.5t4.5 -0.5t3 -0.5t2.5 -1t1.5 -3v-2.5t-1 -1.5h-19v-12l2.5 -1.5t6 -4t6 -6
t2.5 -7.5v-44q0 -1 -3 -1.5l-3 -0.5q0 2 -0.5 7.5t-0.5 11.5v11.5v7.5q0 3 -0.5 6t-1.5 5.5t-3 4.5t-5 2v-71l-0.5 -0.5l-1.5 -1.5l-1 -0.5l-1 -0.5q-2 0 -4 0.5l-2 0.5v69q0 2 -1.5 2h-2.5h-2q-4 -5 -5 -11.5t-1.5 -13t0 -13t0.5 -11.5q0 -2 -1 -3.5t-4 -1.5q-1 0 -2 0.5
t-1 1.5v15q0 4 -0.5 9t0 10t1.5 10t3 9q2 3 5 4.5t6 2.5t4.5 2t1.5 5q0 3 -0.5 6.5t-4.5 4.5h-5t-6.5 0.5t-6.5 0.5h-4q-2 0 -2 3q0 1 0.5 2t2.5 1h24q0 24 -0.5 48t-0.5 49v12zM152 186q1 4 1.5 7.5t1.5 7.5h4q0 -8 1.5 -11t3 -4.5t3.5 -1.5h4.5t4.5 -1.5t3 -6.5
q2 -7 2.5 -10.5t0.5 -8.5v-3.5v-3.5l-1.5 -1t-1.5 -2h-0.5h-0.5v0h-1l-0.5 0.5t-0.5 1.5v10t-1.5 9t-4.5 6.5t-10 2.5v-38q0 -2 -1 -2h-2t-3 0.5t-2 2.5v36l-1 1l-2 2h-0.5h-0.5q-3 0 -4.5 -3t-1.5 -6q-1 -1 -1 -3.5t-0.5 -5.5t-0.5 -5.5v-3.5q0 -2 -1 -2h-2q-2 0 -2.5 1.5
t-0.5 3.5q0 7 0.5 12t2 8.5t5 6t10.5 4.5zM172 112q0 2 1 4.5t3 2.5q3 0 4 -2t1 -4.5t0.5 -4.5t1.5 -4q3 -2 5.5 -4.5t5 -4.5t4 -5t1.5 -7v-35q0 -6 -4 -10t-9 -6t-11 -3t-10 -1q-2 -1 -2 -3.5v-4.5v-4.5t-1 -1.5h-8v14l-2 2q-8 3 -14 6.5t-11 8t-7.5 10.5t-2.5 14
q0 4 0.5 11t2.5 13.5t5.5 11.5t9.5 5q2 0 3.5 -0.5t1.5 -2.5v-1v0q-5 -5 -7.5 -8.5t-4.5 -7.5t-2 -9v-11v-12q2 -3 4 -5.5t3.5 -5t4 -4.5t6.5 -3q1 -1 3.5 -1.5t5 -1.5t4.5 -1.5t3 -0.5h2h3q1 0 4.5 0.5t3.5 1.5q6 1 10 3t6 5t2.5 7.5t0.5 10.5q0 7 -0.5 13.5t-2.5 13.5
q-2 1 -4.5 3.5l-5.5 5.5t-5 6.5t-2 6.5zM137 53q0 8 -0.5 13.5t0.5 9t4 6.5t11 6q2 1 2 3.5v5t0.5 4.5t2.5 2t3 -1.5t1.5 -3.5t0 -4t0.5 -3q1 -3 4 -4t6.5 -2t6.5 -3t3 -7v-21q0 -1 -2 -1.5t-3 -0.5l-1 0.5t-1 1.5v19q0 3 -3.5 5.5t-6.5 2.5v0q-1 0 -1.5 -0.5l-0.5 -0.5v-32
q0 -1 -2 -3.5t-3 -2.5h-1q0 1 -1 1.5l-1 0.5v33q0 1 -2 2.5t-3 1.5q-2 0 -3.5 -1t-2.5 -2q0 -2 0.5 -6.5t0 -8.5t-2 -7t-5.5 -3z" />
</svg>
