<?xml version="1.0" standalone="no"?>
<!DOCTYPE svg PUBLIC "-//W3C//DTD SVG 1.1//EN" "http://www.w3.org/Graphics/SVG/1.1/DTD/svg11.dtd" >
<svg xmlns="http://www.w3.org/2000/svg" xmlns:xlink="http://www.w3.org/1999/xlink" version="1.1" viewBox="-10 0 266 256">
   <path fill="currentColor"
d="M133 248l3 3l3.5 -3.5t2.5 -4.5v-35l2 -2h2.5t6 -0.5t7.5 -0.5h6h18q1 -2 1 -3.5v-3.5q0 -3 -2 -3.5t-5 -0.5q-8 0 -15.5 1.5t-15.5 1.5q-4 0 -4.5 -1t-0.5 -5v-4q0 -2 2 -3q7 0 11.5 -2.5t7.5 -7.5t4.5 -10.5t1.5 -11.5q0 -3 -1.5 -3.5t-3.5 -0.5q-3 0 -4 4.5t-2 9.5
t-3.5 9t-9.5 4h-2t-1 -2v-33h24q2 0 3 -3t1 -4q-12 0 -24 0.5t-23 1.5l-16 2t-14 3.5t-10.5 8t-5.5 14.5q-1 3 -1.5 10.5t-1.5 16t-2 16.5t-1 11q-3 9 -3 19v4t3 2t6 -3q0 -2 0.5 -8t1.5 -12.5t1.5 -12.5t0.5 -9q1 -4 1 -11.5t1.5 -15.5t4 -15t7.5 -10q4 -2 9 -2.5t10 -0.5
h10.5h9.5q0 1 0.5 2.5t0.5 2.5q-1 3 -1.5 7.5t-0.5 8.5t-0.5 7l-0.5 3l-2 3l-1.5 0.5l-1.5 0.5q-6 0 -8.5 -3.5t-3.5 -8t-1.5 -8t-3.5 -3.5q-1 0 -1.5 1.5t-0.5 2.5q0 7 1.5 12.5t5 8.5t8.5 4.5t12 1.5v2.5v1.5q0 2 -0.5 5t-2.5 5h-9t-10 0.5t-10.5 1t-9.5 1.5l-1.5 1
t-1.5 2l0.5 1.5t1.5 1.5h41v40zM173 108q1 2 3 6.5t4.5 9.5l4.5 9t4 4q1 0 1 -1q1 0 2.5 -2t1.5 -4q0 -4 -2 -7.5t-4.5 -7t-5 -6.5t-2.5 -7q0 -2 1.5 -4.5t2.5 -5t2 -5.5t1 -6q0 -5 -0.5 -8t-2.5 -9q-2 -2 -6 -2.5t-8 -1.5t-7 -1.5l-3 -0.5v-12q0 -1 1 -2t2.5 -1.5t2.5 -1
l1 -0.5h17l2 -2l2 -2v-1q0 -3 -2 -3.5t-4 -0.5q-3 0 -6 1t-7 1h-1.5t-2.5 -0.5l-2 -1t-1 -1.5v-19q0 -1 -2.5 -2l-2.5 -1h-0.5h-0.5q-2 0 -3.5 1t-1.5 3v43q0 1 -1 2t-2 1q-1 1 -5 1.5t-5 0.5l-1 1q0 1 1 3t3 2h34q1 0 2 2t1.5 4.5t0.5 4.5v4q0 3 -1.5 6t-4.5 5l-1.5 -1
l-3 -2t-2.5 -1.5t-2 -1.5l-1 -0.5l-1 -0.5h-24q-1 0 -1.5 0.5l-0.5 0.5v2.5v2.5h24q3 0 4.5 2.5t1.5 4.5q0 4 -4.5 5.5t-10 3t-10 3t-4.5 5.5q5 0 9 -0.5t8 -1.5t8 -3.5t8 -2.5h2h1zM62 133l1 2h1q3 0 4 -3t2 -7.5t1.5 -10t2.5 -10.5t5 -8t8 -3q2 0 3.5 1.5t1.5 3.5v32
q0 1 0.5 1.5l0.5 0.5h1q2 0 3 -2.5t1 -3.5v-30q0 -1 1.5 -2.5t2.5 -1.5q7 0 10.5 5t6 11.5t3.5 12t3 5.5q1 0 1.5 -1t1 -2.5t1 -2.5l0.5 -1v-1q0 -5 -1.5 -10t-4.5 -9.5t-6.5 -8t-8.5 -4.5l-1.5 -0.5t-2.5 -0.5h-2t-1 -1q-4 -1 -4 -4q0 -1 5 -3.5t10.5 -6t10 -8t4.5 -10.5
v-2t-2 -1q-3 0 -5 3t-4 6.5t-5 6t-8 2.5h-1.5h-2.5q-2 -2 -1.5 -5t0.5 -4q0 -5 1.5 -8t4.5 -4.5t6.5 -3t7.5 -4.5q5 -3 7 -8.5t4 -10.5q-1 -1 -1.5 -1h-1.5q-4 0 -6 3t-4 6.5t-4.5 6.5t-6.5 3h-2t-2.5 -0.5t-1.5 -1.5v-25q0 -1 -1 -1h-2h-1v0q-1 0 -2.5 0.5l-1.5 0.5v26
q-1 0 -3.5 0.5t-3.5 0.5q-2 -1 -4 -4.5l-4 -7t-3.5 -6.5t-3.5 -3t-3 1t-1 3q0 3 1 6t2.5 6t4 5.5t4.5 3.5q1 1 3 1.5t4.5 1t4 1.5t1.5 2v18q0 1 -1.5 1.5t-2.5 0.5h-1q-4 0 -6.5 -3t-4.5 -6.5t-4 -6t-6 -2.5q-1 0 -1.5 1t-0.5 2q0 6 4.5 10.5t10 8t10.5 5.5t5 5t-3 5t-7 4
l-8 4t-6 5q-4 6 -5 14t-1 15v2.5v2.5z" />
</svg>
