<?xml version="1.0" standalone="no"?>
<!DOCTYPE svg PUBLIC "-//W3C//DTD SVG 1.1//EN" "http://www.w3.org/Graphics/SVG/1.1/DTD/svg11.dtd" >
<svg xmlns="http://www.w3.org/2000/svg" xmlns:xlink="http://www.w3.org/1999/xlink" version="1.1" viewBox="-10 0 266 256">
   <path fill="currentColor"
d="M141 137q0 12 4 18t10 10t12.5 8t12.5 10q0 1 1.5 2.5t2.5 3t1.5 2.5l0.5 1q1 2 1 7.5t0.5 12t0.5 14t1.5 13.5t3.5 10t6 4q3 0 6 -2.5t3 -6.5q0 -7 -1.5 -15.5t-2.5 -15.5q0 -1 -0.5 -4.5t-1.5 -7.5l-2 -8t-1 -7q-1 -6 -4 -10.5t-7 -7.5t-9 -5.5t-10 -5.5
q-8 -4 -11.5 -9t-4.5 -11t-1 -13v-15q0 -10 1 -19.5t1 -19.5v-8q0 -2 -1.5 -2h-2.5q-4 0 -5.5 3.5t-2 8t0 8.5t0.5 6t-0.5 8.5t-0.5 14t-0.5 14t-0.5 8.5v6zM91 172q0 3 1 9t2.5 14t4 16t5 15.5t6 12t6.5 4.5q4 0 5.5 -2t1.5 -6q0 -3 -1.5 -7t-4 -8l-5 -8t-3.5 -7
q-5 -10 -6 -20t-1 -21q0 -12 1.5 -23.5t1.5 -24.5q0 -7 -2 -11.5t-5 -6.5t-5 -4.5t-2 -5.5q0 -4 1 -7.5t2 -7.5q1 -6 2.5 -9t3 -4t5.5 0t10 1v25q0 2 1 3t3 1q3 0 4 -4q0 -15 1.5 -30.5t1.5 -30.5v-5t-4 -1t-4.5 1t-0.5 5q0 2 -0.5 5t-1 6.5t-1 6.5t-0.5 4q-1 0 -2 0.5
t-2 0.5h-2.5h-5t-4.5 -0.5t-3 -0.5q0 -5 0.5 -9t0.5 -7q0 -4 -0.5 -7l-1.5 -9l-0.5 -0.5l-0.5 -0.5q-1 -1 -3 -2l-2 -1h-1h-1q-3 1 -4 2.5t-1 4.5v1l0.5 1t0.5 2t0.5 2l0.5 1q0 2 0.5 5t1 6.5t1 6.5t0.5 4q0 4 -2 5.5t-5.5 2t-7 0t-7 0t-5.5 2t-2 5.5t1.5 4.5t4.5 0.5
q5 0 10 -2t9 -2q2 0 2 2v3v4l-0.5 1t-1 2.5t-1 2.5l-0.5 1v3v4v3v2q0 2 -2 5.5t-4 7.5t-4.5 7.5t-3.5 6.5q-2 3 -5.5 6t-6.5 6.5t-5 7t-2 8.5h7l2 -2l4 -4t4.5 -5t4.5 -4q1 -1 3.5 -5.5l5 -9t5 -8.5t3.5 -4q4 0 5.5 2.5t2.5 6t1 7.5v6q0 12 -2.5 23t-2.5 23zM175 97
q0 10 4 20.5t9 18.5q1 1 3 3.5l2 2.5h13q1 0 1.5 -2.5l0.5 -2.5q0 -5 -1.5 -7t-4 -3t-4.5 -2t-4 -4q0 -2 -1.5 -4.5t-2.5 -5.5t-1.5 -6t-0.5 -5q0 -7 2.5 -12l5 -10l5 -10t2.5 -12q0 -10 -4.5 -14.5t-11 -6t-14 -2t-12.5 -1.5h-2.5t-3.5 -0.5l-4 -1t-3 -0.5h-1h-1q-2 1 -5 2
t-3 4q0 4 3 5.5t7.5 2t10.5 0.5h12q5 0 10 0.5t7 2.5l0.5 2t0.5 4t0.5 4t0.5 3q-1 5 -3 9.5t-5 9t-5 9t-2 9.5z" />
</svg>
