<?xml version="1.0" standalone="no"?>
<!DOCTYPE svg PUBLIC "-//W3C//DTD SVG 1.1//EN" "http://www.w3.org/Graphics/SVG/1.1/DTD/svg11.dtd" >
<svg xmlns="http://www.w3.org/2000/svg" xmlns:xlink="http://www.w3.org/1999/xlink" version="1.1" viewBox="-10 0 266 256">
   <path fill="currentColor"
d="M156 195q2 0 4.5 3.5t6 9.5t7.5 12.5t8 12.5t9 10t9 4q2 0 4 -0.5t2 -2.5q0 -3 -3 -7t-8 -9t-10.5 -11t-10 -12t-8 -12t-3.5 -11q0 -6 4.5 -9t10 -5.5t9.5 -4.5t4 -5t-1 -4t-4 -1t-6 2l-6 4l-6 4t-7 2q-2 0 -3.5 -1.5t-2.5 -4t-1 -5v-4.5t2 -4t4.5 -3.5t4.5 -2.5l4 -2
l0.5 -1t0.5 -2q1 -2 1.5 -5.5t1.5 -7.5t1.5 -7t0.5 -4v-6v-5q0 -3 0.5 -5t2.5 -6h1h2q2 0 3 1.5t2.5 3t2 3.5t1.5 3q0 2 0.5 4.5t1.5 5.5t1.5 5.5t1.5 3.5v4.5t0.5 6t0.5 6.5v4t1 2t2 1.5t2.5 0.5h2.5l0.5 -0.5l1 -1t1 -1.5l0.5 -1q0 -2 -0.5 -7.5t-2 -12t-3.5 -14t-4.5 -13
t-5 -9.5t-6.5 -4q-7 0 -10.5 2t-5 5.5t-2 8.5t-0.5 11q0 1 -0.5 6t-1.5 10.5t-3 10t-5 3.5q0 -1 -2 -2.5t-2 -2.5q-1 0 -1 -1q0 -10 2 -19.5t2 -18.5q0 -3 -1 -6t-2.5 -6t-4 -4.5t-5.5 -1.5q-1 0 -2 0.5t-3 1t-3 1t-2 0.5q-4 6 -6.5 12.5t-3.5 13.5t-1 14v14v17q0 1 0.5 1.5
l0.5 0.5q4 0 6 -2t3 -5q0 -2 -0.5 -7t-0.5 -11t0.5 -11.5t0.5 -7.5q0 -3 0.5 -7t2 -7.5t4 -5.5t6.5 -2q1 0 2 1t1.5 3t0.5 3.5v2.5q0 9 -1.5 18t-1.5 18q0 6 1 12.5t2.5 12.5t2.5 12t1 12q0 4 -3.5 8.5t-4.5 7.5q-5 11 -10.5 21t-11.5 22v0q0 3 1.5 3h3.5q3 0 6 -3.5t5 -9
t4 -11.5t4 -11t4 -8.5t5 -3.5zM72 236q1 2 2.5 2.5t3.5 0.5h2t2 -2v-6q0 -7 -1 -15t-2.5 -15.5t-2.5 -15.5t-1 -16q0 -4 1 -8.5t2.5 -9.5t3.5 -9.5t5 -8.5l1 -1l2 -2l2 -2t1 -2v-22q0 -4 -2.5 -6l-5 -4t-5 -4.5t-2.5 -5.5v-4q0 -1 0.5 -3.5l1 -5t0.5 -5v-3.5q2 -3 6 -4t6 -1
q1 0 2 1t1.5 2.5t0.5 3v1.5q1 1 1.5 5t1 8.5t1.5 8t1 5.5h0.5h0.5q3 0 4 -1.5t3 -3.5v-1v0v-1l-1.5 -3l-1.5 -3q-2 -6 -3.5 -13t-1.5 -14t1 -13.5t1 -13.5q0 -2 -1 -4t-3 -2h-1q-1 1 -2 1.5l-1 0.5v26q0 1 -1 1.5l-1 0.5q-1 1 -3.5 1.5l-2.5 0.5q-6 0 -7 -5l-5 -25
q0 -2 -1.5 -2.5t-3.5 -0.5t-4 1.5t-2 3.5q0 4 1 7t3 6.5t3 6.5t1 7q0 3 -3.5 4t-8.5 1.5t-10 2t-7 4.5v1q0 2 3 3t4 1q4 0 7 -2t7 -2h3t3 2l0.5 3l0.5 3q0 7 -4 12.5t-8.5 10.5t-8.5 9.5t-4 10.5q0 1 0.5 2t2.5 1v0q2 -2 5 -5.5t6.5 -7.5t6.5 -6.5t6 -2.5q1 0 3.5 1t4 3l3 4
t1.5 4q0 5 -1.5 10.5t-4 11.5t-6 11t-6.5 8v62q3 5 4 12t1 13zM160 45q7 0 12.5 3t10.5 6.5t10.5 6.5t11.5 3h4t2 -3t-2 -5q-9 -7 -19 -11.5t-21 -7.5l-4 -3v-19l-1 -1l-2 -2t-2.5 -1h-2.5l-0.5 1t-0.5 2v23q0 2 -6.5 4.5t-14 6t-14 6.5t-6.5 7q0 2 4 2h0.5h0.5
q2 -1 5.5 -2.5t7 -3.5t7 -3.5t5.5 -1.5l1.5 -1t3.5 -2.5t3.5 -2.5t2.5 -1h1.5h2.5z" />
</svg>
