<?xml version="1.0" standalone="no"?>
<!DOCTYPE svg PUBLIC "-//W3C//DTD SVG 1.1//EN" "http://www.w3.org/Graphics/SVG/1.1/DTD/svg11.dtd" >
<svg xmlns="http://www.w3.org/2000/svg" xmlns:xlink="http://www.w3.org/1999/xlink" version="1.1" viewBox="-10 0 266 256">
   <path fill="currentColor"
d="M118 223v5.5t1 6.5t2.5 5.5t4.5 4.5q3 1 5.5 2.5t4.5 2l4 1t5 0.5t5.5 -1t2.5 -5q0 -2 -4.5 -4t-9.5 -4.5t-9 -7t-4 -11.5q0 -3 1.5 -5.5l3 -5l3 -5t1.5 -5.5q0 -4 -3.5 -7.5t-7.5 -5.5t-7.5 -3l-3.5 -1v-11q0 -1 3.5 -2.5t8 -2t8.5 -1t6 -0.5q4 0 6 2t2 5q1 2 1.5 5.5
l1 7l1 7t0.5 5.5q1 2 2 2.5t3 0.5q6 0 6 -5q0 -3 -1 -5.5t-2 -4.5q-1 -4 -1.5 -9.5t-1 -11.5t-1 -11.5t-0.5 -10.5q0 -1 -1 -1h-2q-4 0 -4.5 2.5t-0.5 5.5v5.5t-2 2.5h-27q-3 0 -4 -2t-2 -5t-1.5 -5.5t-3.5 -2.5t-4.5 1t-2.5 4q1 1 2.5 4.5t2.5 4.5v0v1v1v1q-1 0 -4.5 0.5
t-4.5 1.5h-6.5t-9.5 0.5t-9.5 0.5h-6.5q-2 1 -2.5 3t-0.5 4t1 2.5t4 0.5q8 0 16.5 -2t16.5 -2q3 0 4 0.5t1 3.5q0 4 -1.5 6.5t-4 4t-5 3.5t-4.5 5q-6 9 -8.5 19.5t-5.5 22.5q0 3 -1.5 5t-1.5 5t1.5 5.5t4.5 2.5q4 0 6.5 -3.5t3.5 -9t1.5 -12.5t1.5 -13.5t3 -12t6 -8.5h3h3
q3 0 6 0.5t5.5 1.5t4 3.5t1.5 5.5t-1 5.5l-2 5t-1.5 5t-0.5 6.5zM174 127q0 1 0.5 5.5t1 9.5t1 9t1.5 6q0 2 0.5 8.5t2 16.5t3.5 20.5t3.5 20t3.5 16.5t4 9l2.5 0.5t3.5 0.5h2q3 0 3 -1.5v-3.5q0 -4 -1 -8.5t-3 -9t-3.5 -9.5t-2.5 -9q-5 -22 -7.5 -43.5t-6.5 -43.5v-1
q0 -4 2.5 -7.5t5.5 -7t5.5 -7t2.5 -8.5q0 -7 -5 -11t-11 -6t-11 -3.5t-6 -3.5q-1 -3 -1.5 -5t-0.5 -4t0.5 -4.5t0.5 -5.5q5 0 9.5 0.5t8.5 0.5h2q1 0 4.5 -0.5t4.5 -1.5q2 -1 2 -2v-2v-2t-2 -1h-28v-20q0 -2 -2 -3.5t-4 -1.5q-3 0 -5 2t-2 5q0 5 1.5 12t1.5 13v3.5v5t-0.5 5
t-0.5 3.5t-1 2.5t-2 1.5h-4.5t-7 0.5t-6.5 1.5t-3 5q0 2 4 2.5t11 0.5h13t13 1.5t10.5 4.5t4.5 8q0 2 -0.5 4.5t-1.5 4.5t-2.5 4t-3.5 2q-4 0 -5.5 -3t-4.5 -4q-4 -1 -9.5 -1h-9.5h-9q-2 0 -2 1v2v2t2 1h4.5t7 0.5t7 0.5h4.5t2.5 0.5t3 1.5t3 1.5t1.5 1.5l-0.5 1t-1.5 2
q-2 3 -7 5t-10.5 2.5t-10.5 1t-8 0.5h-2h-3v-3.5t-0.5 -5t-0.5 -5v-3.5v-3v-6v-7v-3q-1 -7 -5.5 -10.5t-10.5 -5.5t-11 -2.5t-5 -1.5v-50q0 -1 -1 -2t-3 -1.5t-3.5 -0.5h-1.5v51l-2 6q-4 -1 -8 0t-8 3t-7.5 4.5t-6.5 4.5q0 5 -1 11.5t-1.5 13t-1 13.5t-0.5 12t1.5 7t6.5 2h1
h2l1 -3v-44q0 -8 5.5 -11.5t13.5 -3.5q3 0 4 3t1 6.5v7.5q0 3 1 4q0 9 -0.5 15.5t-0.5 15.5v2q0 2 0.5 4t1.5 3t3 1l0.5 -0.5l0.5 -0.5l2 -4l1 -2v-55l2 -1l2 -0.5l2 -0.5q6 0 9.5 1.5t5.5 4.5t2.5 7t0.5 9v38q0 2 1 2.5t2 0.5q2 0 3 -1t1.5 -3t1 -3.5t2.5 -1.5
q5 -1 9.5 -1.5t9.5 -2t9.5 -2.5t9.5 -1q2 0 2.5 1zM75 84q-2 1 -3 3.5t-1 4.5v31q0 3 0.5 3.5t2.5 0.5q1 0 3 -1t2 -3v-36zM102 119l0.5 1t1.5 2l0.5 0.5l0.5 0.5l1.5 -0.5l1.5 -0.5q1 0 1.5 -0.5l0.5 -0.5v-35q0 -1 -1 -1.5t-2 -0.5h-1q-2 0 -3.5 2t-2 4.5t-0.5 4.5v3
l0.5 1.5t1 3.5t1.5 3.5l1 1.5v2v1q0 1 -0.5 2t-0.5 2.5t-0.5 2.5zM59 64q0 2 0.5 3.5t2.5 1.5q4 0 6.5 -3t3.5 -7t1.5 -8t0.5 -6v-5v-8t-1.5 -7t-4.5 -3h-1l-1 0.5t-1 1.5v31q-3 1 -4.5 4t-1.5 5zM113 62q1 0 2.5 0.5t2.5 0.5q3 0 3 -1v-3q0 -9 -1.5 -19t-1.5 -19
q-1 -2 -2 -2h-2q-3 0 -4 1t-2 4v10q0 7 1.5 13.5t3.5 14.5z" />
</svg>
