<?xml version="1.0" standalone="no"?>
<!DOCTYPE svg PUBLIC "-//W3C//DTD SVG 1.1//EN" "http://www.w3.org/Graphics/SVG/1.1/DTD/svg11.dtd" >
<svg xmlns="http://www.w3.org/2000/svg" xmlns:xlink="http://www.w3.org/1999/xlink" version="1.1" viewBox="-10 0 266 256">
   <path fill="currentColor"
d="M124 174v75q0 2 2 2h3q6 0 6 -7q0 -13 -0.5 -26t-0.5 -26v-7v-6.5t0.5 -7t0.5 -8.5q1 -2 3 -3t4.5 -1h4.5t4 -1h38q1 0 2 2q1 1 2 3t1 3v2v4v4v2q0 1 0.5 4.5t1 7.5t1 7.5t0.5 4.5q0 2 0.5 8.5t0.5 13.5t-0.5 13.5t-0.5 8.5q-1 3 0.5 4t3.5 1q3 0 4 -1t2 -4v-2v-4v-4v-2
v-9v-16t-0.5 -19.5t-2 -19t-3.5 -14t-5 -6.5h-4h-6h-6h-4h-6h-6h-5.5h-2.5q-2 0 -6.5 0.5t-9 1.5t-8.5 2.5t-5 5.5zM92 243q2 3 3.5 4.5t5.5 1.5q3 0 3.5 -1.5t0.5 -4.5v-3q0 -1 -1 -3.5t-2 -6t-2 -6t-1 -3.5q-3 -10 -3.5 -21.5t-0.5 -21.5q0 -8 1 -14.5t3 -13.5l4 -14
l4 -14q-2 -6 -6.5 -10.5t-8.5 -7.5t-7.5 -5t-3.5 -4q0 -6 2 -12t1 -13q4 -1 7 -1.5t6 -0.5h3t2 2v18q7 0 8 -2t1 -7q0 -6 -0.5 -11.5t-0.5 -11.5q0 -5 0.5 -11t0.5 -12q0 -1 -0.5 -4t-3.5 -3v0q-2 0 -3.5 1.5l-1.5 1.5v27q0 1 -1 1.5l-3 1.5t-4 1.5t-3 0.5t-3.5 -1t-2.5 -3
v-31q0 -3 -3 -4t-5 -1q-4 0 -4 3.5v6.5q0 5 1.5 10.5t1.5 10.5q0 7 -2 10t-4.5 4.5t-6 1.5t-6 0.5t-4.5 1.5t-2 4q0 2 1.5 4t4.5 1l1.5 -0.5l3 -1l3 -1t2.5 -0.5h1h2q3 0 4 2t1 5q0 17 -7.5 33t-16.5 31q-1 0 -1.5 1.5l-0.5 1.5v1v1q1 0 2 1.5l1 1.5q5 0 8.5 -3.5t5.5 -8.5
t3.5 -10.5t3 -10.5t4 -8t6.5 -3q6 0 10 5t4 11q0 4 -1.5 8.5t-3 9.5t-3.5 9.5t-3 8.5q-2 6 -2 13v13q0 7 1 13.5l2 13t2.5 13.5t2.5 14zM143 190q0 7 4 12t11 5q8 0 16.5 -3t13.5 -8v-0.5v-0.5q0 -10 -4.5 -16.5t-14.5 -6.5q-5 0 -9.5 1t-8 3t-6 5.5t-2.5 8.5zM151 191
q0 -3 1.5 -5t4 -3t5.5 -1.5t6 -0.5q2 0 5.5 1t3.5 6q0 7 -5 9t-11 2q-4 0 -7 -1.5t-3 -6.5zM134 125q0 6 3.5 8.5t8 3.5t9.5 1h9h16q7 -3 10 -7.5t3 -11.5t-3 -10.5t-7.5 -5t-10 -2t-10.5 -0.5q-13 0 -20.5 5t-7.5 19zM144 120q0 -4 2.5 -6.5t6 -3.5t8.5 -1h7q5 0 9.5 1
t4.5 8q0 5 -2.5 7.5t-5.5 4t-7.5 1.5h-8.5q-5 0 -9.5 -2t-4.5 -9zM122 96q0 1 0.5 2t1.5 2q6 -2 11 -5.5t10 -7.5t9 -7.5t7 -3.5q2 0 2.5 0.5t2.5 1.5q1 1 5 3t8.5 4.5t8 5t5.5 3.5h12q0 -7 -6 -10l-33 -16q-2 -1 -2 -2v-2v-3t2 -2h27q1 1 2.5 1.5t3.5 0.5q3 0 4 -1t1 -4
t-3 -4.5t-7 -2t-8.5 0t-8.5 0t-7 -1.5t-3 -4v-1q0 -1 0.5 -3t0.5 -4v-4v-3q2 -2 5 -3t6.5 -2t6 -2.5t2.5 -4.5q0 -2 -1.5 -3t-3.5 -1q-1 0 -5.5 1t-8.5 3t-7.5 4.5t-3.5 4.5v22l-5.5 1.5t-11.5 3t-11.5 4t-5.5 4.5t0.5 3t2.5 1q4 0 7.5 -2t7.5 -3l2 0.5t4 0.5h3.5h2.5
q0 7 -2.5 11.5t-7 8t-10 6.5t-12.5 7v2z" />
</svg>
