<?xml version="1.0" standalone="no"?>
<!DOCTYPE svg PUBLIC "-//W3C//DTD SVG 1.1//EN" "http://www.w3.org/Graphics/SVG/1.1/DTD/svg11.dtd" >
<svg xmlns="http://www.w3.org/2000/svg" xmlns:xlink="http://www.w3.org/1999/xlink" version="1.1" viewBox="-10 0 266 256">
   <path fill="currentColor"
d="M162 194q1 3 3.5 8.5t6 12t7.5 13t8.5 12t8.5 8.5t8 3v-7l-1.5 -1.5t-3 -3.5t-3 -3.5t-1.5 -2.5q-1 -1 -5 -6.5t-7.5 -12t-6.5 -12t-3 -6.5q0 -3 4 -4t9 -4.5t9.5 -9t4.5 -16.5q0 -4 -1 -9t-1 -10q0 -2 3 -5l6 -6l6 -6t3 -7q0 -1 -2 -2.5t-4 -1.5q-3 0 -4.5 2.5t-2.5 5.5
t-2.5 5.5t-5.5 2.5q-2 0 -3 -0.5t-1 -3.5q0 -2 1 -5t1 -5q0 -3 -1 -6t-1 -6q0 -2 1 -4t3 -2q3 0 4 1.5t1.5 3.5t1 3.5t2.5 1.5t3.5 -1t1.5 -3q0 -7 -2.5 -9t-8.5 -2q-7 0 -10.5 1.5t-3.5 8.5q0 4 1 6.5t1 6.5l-0.5 1.5l-0.5 1.5q0 1 -0.5 1.5t-1 2t-1 2t-0.5 1.5
q0 3 2.5 6.5t4.5 5.5v19h-26q-1 0 -2 -2t-2 -5t-1.5 -5.5t-0.5 -3.5v-45q0 -1 2.5 -2l2.5 -1h1v0q1 0 2.5 0.5l1.5 0.5v41q1 0 2 -0.5t2.5 -1t2.5 -1t0 -2.5q0 -1 0.5 -5t0.5 -6q0 -5 -1 -11t-1 -12q0 -3 2.5 -5.5t6.5 -4t6.5 -3.5t2.5 -5v-39q0 -2 -3 -3.5t-7 -2.5t-8 -2.5
t-5 -2.5v-2v-3t1 -1t3 -0.5t4 -0.5t4 -0.5l2 -0.5q2 0 3 -0.5t1 -2.5t-4 -3t-9.5 -1.5t-10 -0.5h-6.5h-1l-1.5 0.5l-3 1l-3 1l-1.5 0.5q-1 0 -2 0.5t-2.5 1t-3 0.5h-2.5q-2 1 -3 5.5t-1.5 10.5t0 11.5t0.5 7.5q0 4 -0.5 8.5t0 9.5t0.5 9t1 6q2 2 5 3.5t5.5 2.5t5 3t2.5 5v57
l-4 3h-2h-4q-6 0 -12.5 -1t-13.5 -1h-4q-1 1 -1.5 2t-0.5 3t3.5 4t5.5 2q7 0 13.5 -1t13.5 -1q1 0 5 0.5t5 0.5q2 0 2.5 1.5t1 3.5t0 4.5t-0.5 3.5l0.5 2.5t-1.5 2.5h-41q-2 0 -4.5 1.5t-3.5 3.5q1 1 2.5 2t2.5 1h1q1 0 6.5 -0.5t11 -0.5h11h6.5h2h1q1 0 5 0.5t5 0.5z
M70 213l5 28q0 2 3 3t4 1q3 0 5 -3t2 -6l-0.5 -0.5t-1.5 -0.5l-0.5 -2t-0.5 -3q-3 -13 -6.5 -26t-3.5 -26q0 -2 0.5 -6t0.5 -9t0.5 -9t2.5 -5q2 -5 4.5 -8t4.5 -6t3 -6t1 -9t-3.5 -10t-7.5 -6.5t-7 -5t-3 -6.5q0 -3 -0.5 -6.5t0.5 -7t3 -6t5 -2.5q4 0 5.5 1.5t2 4t0.5 5.5
t1 5.5t3 4.5t6 2q0 -9 -2 -16.5t-2 -14.5t1.5 -13.5t1.5 -13.5v-4q0 -1 -1.5 -1.5l-1.5 -0.5h-1h-1l-1 1.5t-1.5 2l-1.5 1.5l-1 1v24q0 1 -1.5 1.5l-3 1t-3 0.5h-2.5h-1h-1l-3 -42q0 -1 -2.5 -3.5t-4.5 -3.5h-1q-1 0 -2 0.5t-1 1.5l-0.5 2.5l-0.5 2.5q0 8 2 15t2 14v2
q0 1 -0.5 2.5t-0.5 3.5t-0.5 4t-0.5 3q-1 2 -4.5 2.5t-7 0.5t-6 1t-2.5 4q0 2 2 3.5t4 2.5q1 0 2.5 -0.5l3 -1l3 -1t2.5 -0.5h1q1 0 1.5 0.5t0.5 2.5q0 6 -0.5 11t-2.5 9.5t-4.5 9t-4.5 9.5q-2 3 -5 7t-3 8v2.5t2 1.5q4 0 7 -4.5t5.5 -10t5.5 -10t6 -4.5t4 0.5t4 3.5
q1 0 2.5 1.5t2.5 3t2 2.5l1 1v14l-1.5 2t-2.5 3q-5 3 -7.5 7.5t-4 9.5t-1.5 10v11q0 4 -0.5 9t0 10.5t1 10.5t2.5 7zM166 172q0 -3 2 -4.5t6 -1.5h6.5t6.5 2v3q0 6 -3.5 9t-9.5 3q-5 0 -6.5 -3.5t-1.5 -7.5zM110 136l2 0.5t4.5 0.5t4.5 0.5t3 0.5h2q3 0 5 -0.5t5 -1.5
q1 0 1 -1v-2q0 -2 -1 -2t-2.5 -0.5t-2.5 -1t-1 -2.5q0 -4 2 -5.5t5 -3t5 -4t2 -8.5v-3.5t-2 -2.5t-3 2t-1.5 5t-1.5 5t-4 2q-2 0 -2.5 -4.5t-0.5 -10.5t-1 -10.5t-5 -4.5h-0.5h-0.5l-0.5 1l-0.5 1v39q0 2 -1.5 3.5t-3.5 1.5t-3.5 -1.5t-1.5 -3.5v-17q0 -1 -1 -2l-2 -2h-1h-1
q0 1 -0.5 1.5l-0.5 0.5v24q0 1 2 3zM144 83q0 -4 4 -4h1q1 0 4.5 0.5t7 0.5t6.5 0.5t4 0.5t2 0.5t1 1.5v0q0 3 -2 4t-5 1.5t-5 0.5h-4h-4.5h-4.5q-2 -1 -3.5 -2.5t-1.5 -3.5zM143 72l-1.5 -4.5t-0.5 -3.5t4 -3.5t9 -2l10 -1t8 -0.5h7q3 1 3 3.5v4.5q0 4 -0.5 5.5t-3.5 2.5
h-13h-11t-11 -1zM163 37q5 0 9 2t8 6v2q0 6 -6 6l-2 -0.5t-3 -1.5q-5 1 -13 1.5t-14 0.5q0 -9 6.5 -12.5t14.5 -3.5zM152 24q2 0 3 1.5t1 3.5q0 1 -0.5 1.5l-0.5 0.5l-11 3v-1.5v-1.5q0 -2 2 -4.5t6 -2.5z" />
</svg>
