<?xml version="1.0" standalone="no"?>
<!DOCTYPE svg PUBLIC "-//W3C//DTD SVG 1.1//EN" "http://www.w3.org/Graphics/SVG/1.1/DTD/svg11.dtd" >
<svg xmlns="http://www.w3.org/2000/svg" xmlns:xlink="http://www.w3.org/1999/xlink" version="1.1" viewBox="-10 0 266 256">
   <path fill="currentColor"
d="M87 200q0 14 2 23.5t7.5 15.5t14 8.5t22.5 2.5q11 0 19.5 -2t14.5 -6.5t9 -12.5t3 -20q0 -9 -3.5 -15t-8 -9.5t-10.5 -5t-10.5 -2.5t-8 -1.5t-3.5 -1.5v-11l2 -2q11 1 18 -1t14 -10q0 -1 0.5 -2t0.5 -2v-28q0 -4 -3 -8t-7.5 -6t-9.5 -3t-8 -1l-4 -3v-30q0 -1 3 -1h3
q7 0 14 2.5t14 5.5t14 5.5t14 2.5h6q2 0 2 -1.5v-2.5q0 -3 -1 -6t-4 -5q-1 0 -3.5 -0.5t-5.5 -1t-5.5 -1t-3.5 -0.5q-2 0 -9.5 -2.5t-15.5 -5t-14.5 -5t-7.5 -3.5v-3.5t-0.5 -5.5t-0.5 -5.5v-3.5q0 -2 -0.5 -6t-2 -7.5t-3.5 -6t-5 -2.5t-3.5 1t-0.5 3q0 6 1 11.5t1 11.5
q0 7 -5.5 12.5t-14 10t-18.5 8t-18.5 6.5t-14 6t-5.5 7q0 3 2 4.5t5 1.5t5.5 -0.5t5.5 -1.5q2 -1 7.5 -3.5t11.5 -5.5l11 -5.5l7 -3.5q4 -2 7.5 -3t7.5 -1t5.5 2.5t2 6t0.5 7.5v6v8l-2 3q-8 2 -13.5 4t-9.5 5t-6 8.5t-2 14.5q0 13 7.5 22t20.5 9l1 2l0.5 1.5t0.5 2.5v5
q0 4 -2 5q-6 0 -11 0.5t-10 1.5q-2 1 -4 3.5l-4 5t-3.5 5.5t-1.5 5zM98 208q0 -6 4.5 -10t10.5 -6.5t12.5 -3.5t11.5 -1t10 1t10 2.5t7.5 5.5t2.5 10v3q-2 9 -4.5 14.5t-6.5 8.5t-10 4t-15 1q-10 0 -15.5 -0.5t-9 -3.5t-5 -8t-3.5 -14v-3zM103 133q0 -6 3 -10t7.5 -6.5
t10 -3.5t10.5 -1h10t11 2q3 1 3.5 5.5t0.5 7.5q0 7 -1.5 12t-6.5 9q-4 1 -7.5 1.5t-6.5 1t-6 0.5h-7q-9 0 -15 -4t-6 -14z" />
</svg>
