<?xml version="1.0" standalone="no"?>
<!DOCTYPE svg PUBLIC "-//W3C//DTD SVG 1.1//EN" "http://www.w3.org/Graphics/SVG/1.1/DTD/svg11.dtd" >
<svg xmlns="http://www.w3.org/2000/svg" xmlns:xlink="http://www.w3.org/1999/xlink" version="1.1" viewBox="-10 0 266 256">
   <path fill="currentColor"
d="M133 161q0 8 4.5 11.5t10.5 5t12 2.5t9 4q4 3 6.5 7t4 9t2.5 10t1 9q0 2 0.5 6.5t0.5 9.5t0.5 9.5t0.5 6.5h2q5 0 6.5 -3.5t1.5 -8.5q0 -4 -1 -12.5t-3 -17.5t-4 -16.5t-4 -9.5q-3 -5 -10 -7.5t-14 -4.5t-12.5 -4t-5.5 -5q0 -6 1.5 -9.5t4.5 -5t6.5 -2.5t7 -1.5t7 -1.5
t6.5 -3q1 -2 3.5 -4t2.5 -3v-14q0 -1 -1.5 -3t-3.5 -5l-4 -6t-3 -5q-1 -1 -4 -3.5t-4 -3.5v-12v-8t2 -9v-41q0 -2 -1.5 -3t-3.5 -1t-3 1l-3 3q1 16 0 32t-1 33q0 4 -0.5 9t-0.5 11t0.5 11t1.5 10l1.5 1.5t1.5 0.5q3 0 3.5 -3t1.5 -5v-3t0.5 -4.5t0.5 -4.5v-3h1q2 0 3.5 1.5
t3 4t2.5 5.5t1 4q0 6 -3 8.5t-7 4t-9 3t-9.5 4t-7 7t-2.5 12.5zM72 241v2.5t1 1.5q5 0 7 -3.5t3 -7.5t1 -8.5v-6.5v-44q2 -4 5.5 -4.5t6.5 -2t5.5 -5.5t2.5 -15q0 -5 -0.5 -9.5t-2.5 -7.5t-5 -5.5t-9 -3.5v-3t-0.5 -4.5t-0.5 -4.5v-3v-1q0 -6 2.5 -8t6 -4.5t6.5 -7t3 -15.5
q0 -10 -3 -16t-14 -7v-35l-2 -0.5l-2 -0.5l-0.5 -0.5l-0.5 -0.5q-2 0 -3.5 1.5t-1.5 3.5v29q0 2 -3.5 3t-7.5 3.5t-7.5 7.5t-3.5 15t3.5 14t7.5 6t7.5 5t3.5 12q0 6 -2 8.5t-4 4.5t-5 3.5t-5.5 3.5t-4 6t-1.5 11q0 12 2.5 16.5t5.5 6t6 1.5t4 3q2 3 2 7v7q0 13 -1.5 26
t-1.5 26zM65 150q0 -8 5 -13.5t13 -5.5q7 0 10.5 4.5t3.5 10.5q0 8 -4.5 13t-12.5 5t-11.5 -3t-3.5 -11zM122 115v3t2 2q6 -3 7.5 -7.5t1.5 -11.5v-56l-1.5 -0.5t-1.5 -1.5h-1h-1l-2 1t-2 2v58q-1 3 -1.5 5.5t-0.5 5.5zM189 98q1 4 1.5 7.5t1.5 6.5t3.5 4.5t7.5 1.5
q0 -6 -1 -12t-2.5 -12.5t-3 -12.5t-1.5 -13t1.5 -12.5t3.5 -12.5v0q0 -3 -2 -4.5t-4 -1.5t-3.5 1.5t-2.5 3t-1.5 3.5t-0.5 3v4q0 3 0.5 9.5t1 13.5t1 13.5t0.5 9.5zM64 73q0 -10 6.5 -13t14.5 -3h4h4q3 3 3.5 7t0.5 7q0 1 -0.5 4.5t-0.5 4.5q-3 4 -6.5 6.5t-9.5 2.5
q-8 0 -12 -4.5t-4 -11.5z" />
</svg>
