<?xml version="1.0" standalone="no"?>
<!DOCTYPE svg PUBLIC "-//W3C//DTD SVG 1.1//EN" "http://www.w3.org/Graphics/SVG/1.1/DTD/svg11.dtd" >
<svg xmlns="http://www.w3.org/2000/svg" xmlns:xlink="http://www.w3.org/1999/xlink" version="1.1" viewBox="-10 0 266 256">
   <path fill="currentColor"
d="M120 228v5.5t0.5 7t2 6t4.5 2.5t4.5 -1t1.5 -4v-78h66q2 0 3.5 -1.5t1.5 -3.5v-1.5t-2 -1.5q-1 0 -3 -0.5t-4.5 -0.5h-5h-3.5h-2h-4.5t-4.5 0.5t-3 0.5h-2h-5h-5h-4h-3h-6h-4.5h-2.5q-4 -1 -5 -2.5t-1 -4.5t2 -5.5t4.5 -4.5t5.5 -4.5t4 -4.5q0 -1 0.5 -4t0.5 -4
q0 -8 -3 -11t-6.5 -4.5t-6 -2.5t-2.5 -6q0 -6 2.5 -8t6 -4t6.5 -5t3 -10q0 -2 -0.5 -4l-0.5 -2l-14 -14v-1.5v-2.5q0 -4 0.5 -5t4.5 -1q11 0 21 3.5t20 7.5q2 1 3.5 2.5l3.5 3.5t4 3t4 1t2.5 -1t0.5 -3q0 -4 -6.5 -8t-15 -8t-16.5 -7t-12 -4h-2.5t-4.5 -0.5t-4 -1.5t-3 -3
q0 -2 0.5 -4.5t0 -5t-2 -4.5t-4.5 -2t-3 3v7t-1.5 7.5t-6.5 5.5q-1 0 -4.5 1t-8 2t-8 2t-4.5 1q-2 1 -8 2.5t-11.5 4t-10 5t-4.5 5.5t1 4t3 1q1 0 2 -0.5l1 -0.5q2 0 6 -2t9 -4t9 -4l6 -3l12 -4t12 -2t6 6q0 4 -3 6.5t-6.5 5t-6.5 5.5t-3 9q0 5 2.5 7.5t6 5t6 5.5t2.5 8v3v2
q-3 2 -6.5 3.5t-6.5 3t-5 4.5t-2 8q0 8 3 11t7 5l7 3.5t3 6.5q0 1 0.5 4t-1.5 3h-11t-16.5 0.5t-16.5 1t-11 0.5q-1 0 -3.5 -0.5t-5.5 -0.5t-5 1t-2 4q0 2 1 3t3 1h3.5h3.5q12 0 24.5 -1t24.5 -1h8l3 2v2v2q0 6 -0.5 11.5l-1 11t-0.5 11.5v12l-1 2l-0.5 3t-0.5 5zM113 125
q0 -3 1.5 -5t4 -3.5t5.5 -2t6 -0.5q7 0 10.5 2t3.5 9q0 4 -1.5 6t-3.5 3.5t-5 2t-6 0.5q-6 0 -10.5 -2.5t-4.5 -9.5zM56 133q0 1 1 1.5l2 1t2.5 0.5h1.5q1 0 2.5 -0.5l1.5 -0.5l30 -19l0.5 -1l0.5 -1q0 -2 -0.5 -3.5t-3.5 -1.5q-2 0 -8 3.5t-12.5 7.5t-12 8t-5.5 5zM156 113
q0 1 2.5 2.5t6 4t7.5 4.5l8 4t7 3t4 1q3 0 3 -1.5v-3.5t-4 -5.5t-9.5 -6t-11 -4.5t-8.5 -2q-2 0 -3.5 0.5t-1.5 3.5zM56 95v1q1 1 1.5 2t0.5 2h4q2 0 8 -2t11.5 -4.5t10 -5.5t4.5 -6q0 -2 -1 -3t-3 -1t-7.5 2.5t-12 5.5t-11.5 6zM161 78q0 3 4 6t8.5 5.5t9.5 4t7 1.5
q3 0 4.5 -0.5t1.5 -3.5q0 -2 -4.5 -5t-10 -6t-11 -4.5t-6.5 -1.5q-2 0 -2.5 1t-0.5 3zM117 73q0 -4 1.5 -5.5t3.5 -2.5t4.5 -1h5.5q4 0 7.5 2.5t3.5 8.5q0 2 -1 4.5t-4 3.5q-1 0 -3.5 0.5l-2.5 0.5q-7 0 -11 -2t-4 -9z" />
</svg>
