<?xml version="1.0" standalone="no"?>
<!DOCTYPE svg PUBLIC "-//W3C//DTD SVG 1.1//EN" "http://www.w3.org/Graphics/SVG/1.1/DTD/svg11.dtd" >
<svg xmlns="http://www.w3.org/2000/svg" xmlns:xlink="http://www.w3.org/1999/xlink" version="1.1" viewBox="-10 0 266 256">
   <path fill="currentColor"
d="M142 161q2 0 6 0.5t4 4.5v79q0 3 1 3.5t2 0.5q3 0 6 -4v-24q0 -13 -1.5 -25t-1.5 -24v-9q5 -2 7.5 -2h6.5h2.5t2.5 2l4 69l1 1.5t2 1.5h0.5h0.5q2 0 3 -2t1 -4v-3t-2 -3q0 -7 -0.5 -12.5t-0.5 -10.5v-11v-12v-18q1 -2 4.5 -3.5t6.5 -1.5q4 0 5.5 5.5t2.5 14t1 18t1 18
t3.5 14t7.5 5.5q0 -12 -2.5 -23.5t-4.5 -23.5q-1 -4 -1 -10.5t-2 -10.5v-88q2 -3 3.5 -7.5t2.5 -10t1.5 -10.5t0.5 -9q0 -3 -1 -3.5t-4 -0.5h-3q-1 0 -2 2v4t-0.5 6.5t-0.5 7v4.5q-1 3 -2 7.5t-1.5 9t-1.5 7.5l-1 3h-12l-1 -1q0 -1 -0.5 -4.5t-0.5 -5.5q0 -9 2 -18t2 -18
q0 -3 -1 -3.5t-4 -0.5h-3q-2 0 -2 2v42q0 4 -2.5 5t-5.5 1t-5.5 -1l-2.5 -1q0 -14 0.5 -28t0.5 -28q0 -5 -2.5 -8.5t-8.5 -3.5q0 13 1 25t1 25v9t-1 9q-1 0 -2.5 0.5t-3.5 0.5t-4 0.5l-2 0.5h-2q0 -10 1 -19.5t1 -19.5v-4.5v-4.5q-1 -2 -2.5 -3t-2.5 -1q-2 0 -3.5 0.5
t-1.5 1.5v50q0 1 -2 2t-4 1.5l-4 1l-2 0.5h-2.5t-1.5 -2v-48q0 -2 -1 -3t-3 -1.5t-3.5 -1t-3.5 -0.5q0 17 2.5 33t2.5 33q0 15 -1 31.5t-3 32.5q0 1 -0.5 2t-1.5 1v0h-1h-5t-7 -0.5t-7.5 -0.5h-4.5l-0.5 -1t-1.5 -1v-1v-1q1 -5 1 -13t0.5 -15.5t0.5 -12.5v-5l3 -4h18
q0 -4 -3.5 -6t-7 -2t-7 -0.5t-3.5 -1.5v-33q0 -4 2.5 -6t6 -2.5t7 -1.5t4.5 -3l-3 -4h-2h-3q-12 0 -23 1.5t-23 2.5l-1 1.5l-1 1.5q0 1 1 2l1 1h24v43h-24q-1 0 -1.5 1.5t-0.5 2.5q0 3 1.5 5t4.5 2q5 0 10 -1t10 -1v52h-27q-1 0 -2 2t-2 3v1q0 3 2 4.5t5 1.5q13 0 26.5 -2
t26.5 -2h3h2l1 4l0.5 1t0.5 3v2v2q0 7 -1 13.5t-2 12.5t-2 12.5t-1 12.5q4 0 7 -4.5t4.5 -12t1.5 -17t0.5 -18t0.5 -16t1 -10.5q0 -1 1 -1.5l1 -0.5q1 0 3 0.5t4.5 1t4 1.5t2.5 2v4v6v6v3q0 12 -2 23t-2 22v4v5q1 0 2 1.5t2 1.5v0h1q2 0 3.5 -2.5t2.5 -4.5q0 -3 -0.5 -10.5
t-0.5 -16.5t0.5 -17t0.5 -11v-2.5v-3.5t0.5 -3.5t0.5 -2.5h2h2zM137 151v-2q0 -3 0.5 -10.5t1 -16t1 -16t0.5 -10.5q2 -5 4 -5.5t8 -0.5v61l-2 3h-1.5h-1.5h-3h-3.5t-2.5 -0.5t-1 -2.5zM158 154v-52l0.5 -1l1.5 -3t1.5 -3.5t0.5 -2.5l1 -1l1 -1h12v1.5t0.5 3t0.5 3.5v3v4
t0.5 9t0.5 9v8v6q0 3 -0.5 6t-0.5 5v3l-3 3h-16zM114 147v-15q0 -10 0.5 -17t1.5 -16q1 -2 2.5 -3.5t4 -1.5h4.5h5v2v4v4v2q0 2 -0.5 8t-1 12.5t-0.5 12.5v8q0 3 -1 3.5t-3 0.5h-1q-2 -1 -5.5 -2t-5.5 -2zM190 90q2 0 4.5 2.5t4.5 3.5v46q0 2 -1.5 4t-4 3t-5 1.5t-4.5 0.5
v-50q0 -4 1 -7.5t5 -3.5z" />
</svg>
