<?xml version="1.0" standalone="no"?>
<!DOCTYPE svg PUBLIC "-//W3C//DTD SVG 1.1//EN" "http://www.w3.org/Graphics/SVG/1.1/DTD/svg11.dtd" >
<svg xmlns="http://www.w3.org/2000/svg" xmlns:xlink="http://www.w3.org/1999/xlink" version="1.1" viewBox="-10 0 266 256">
   <path fill="currentColor"
d="M97 247q0 4 3 4q2 0 3.5 -1.5t2.5 -3.5l2 -4t1 -4l7 -112q0 -17 1.5 -34.5t1.5 -34.5v-7v-10q0 -6 -0.5 -11t-0.5 -7q1 -3 -0.5 -3.5t-3.5 -0.5t-3.5 0.5t-1.5 3.5l-0.5 2.5t-0.5 3.5q0 15 1 29t1 29v31q0 3 -0.5 9.5t-1 15t-1.5 17.5t-1.5 17t-1 14.5t-0.5 10.5
q-2 3 -2 5v5v5.5v6.5q0 1 -1 4t-1.5 7t-1.5 7.5l-1 3.5v2zM128 247q0 2 1.5 3t2.5 1h1q1 -1 3 -1.5l2 -0.5q0 -16 -0.5 -31.5t2.5 -31.5q0 -1 0.5 -3.5t1.5 -5.5t2 -4.5t3 -1.5t3.5 1.5t2 4.5t1 5.5t1.5 3.5q0 2 2.5 9.5t5.5 15.5t5 15t3 9q1 4 1.5 6.5t1.5 4.5t3 2.5t6 0.5
q0 -7 -2 -14.5t-5 -14t-6.5 -13t-4.5 -14.5q-1 -1 -2 -5t-2 -7.5t-2 -6.5l-1 -3q-2 -5 -3.5 -9t-1.5 -10q0 -4 1.5 -7t3.5 -5q1 -1 3.5 -4l5 -6t5.5 -6l4 -4t1.5 -3.5t0.5 -4.5h-5l-20 21h-0.5h-0.5q-2 0 -3.5 -5t-2 -11t-0.5 -12v-7v-12q2 -3 4.5 -4t4.5 -1q3 0 5.5 -0.5
t5 -2t4.5 -6.5t3 -14q0 -4 0.5 -8.5t1 -9.5l1 -10t0.5 -9q0 -3 -1 -4t-3 -1t-3 0.5t-1 1.5q0 2 -0.5 6.5t-0.5 9.5t-0.5 9.5t-0.5 6.5q0 5 -0.5 9.5t-2 8t-5 5.5t-8.5 2h-2.5t-1.5 -1v-14q0 -11 1.5 -19.5t3.5 -18.5v-1q0 -3 -1 -5.5t-4 -2.5q-2 0 -3 2.5t-1 4.5
q-1 2 -1.5 8t-1 12.5t-1 12.5t-0.5 9v1v3.5v3.5v3q0 10 1 18.5t2.5 17.5t2.5 18t1 18q0 5 -1.5 9t-3.5 7.5t-4 7.5t-3 9q-3 17 -4 34t-1 35zM202 249l1 1l1 1h4h4q0 -8 -1.5 -17t-3.5 -17.5t-3.5 -16.5t-1.5 -17q0 -5 1 -7.5t1 -6.5v-0.5v-0.5q0 -1 -1.5 -3t-2.5 -3v-1
q0 -2 1 -4t1 -6v-2v-2q0 -1 -1.5 -2.5l-1.5 -1.5q-1 -3 -1.5 -9t-0.5 -10q0 -25 1.5 -49.5t3.5 -49.5q0 -1 0.5 -4.5t0.5 -4.5h-5t-5 2q-4 22 -4 44v43v8v12v12v8q1 2 1.5 5t0.5 7v6v5q0 1 0.5 4.5t1 9t1.5 11.5t1.5 11.5t1 10.5t0.5 8l1 3t1 4t0.5 3.5t1 5.5l1 6t0.5 4z
M48 176q0 2 0.5 3.5t2.5 3.5q5 -2 11.5 -3t13 -1.5t12.5 -0.5h11l3 -4l-1.5 -0.5l-1.5 -0.5q-1 -1 -4 -1t-5.5 -0.5t-5 -0.5h-3.5l-2 -2v-5v-7v-9t0.5 -13t1 -13t0.5 -8q3 -3 8 -4l10 -2v-6h-18v-46l2 -1.5t3 -1.5l0.5 -1l0.5 -1h3t4.5 -0.5t4.5 -1.5t2 -3q0 -1 -0.5 -2
t-1.5 -2h-10q-3 0 -9.5 0.5t-13.5 1.5t-12 2.5t-5 4.5v2.5t2 1.5h20v46q0 1 -1.5 1.5t-2.5 0.5q-1 1 -3.5 1t-5 0.5t-5.5 0.5h-4v1v2q0 3 2.5 4t6 0.5t7.5 -1t6 2.5q-1 13 0 26t1 26v3q0 3 -1 3h-22q-1 0 -1 1.5v2.5z" />
</svg>
