<?xml version="1.0" standalone="no"?>
<!DOCTYPE svg PUBLIC "-//W3C//DTD SVG 1.1//EN" "http://www.w3.org/Graphics/SVG/1.1/DTD/svg11.dtd" >
<svg xmlns="http://www.w3.org/2000/svg" xmlns:xlink="http://www.w3.org/1999/xlink" version="1.1" viewBox="-10 0 266 256">
   <path fill="currentColor"
d="M120 85q1 36 -2 72t-7 71q0 6 -1.5 11t-1.5 11q3 0 5.5 -2.5t4 -5.5t2 -7t0.5 -7v-6t0.5 -8.5t0.5 -8.5v-5l0.5 -1.5t0.5 -3t0.5 -3t0.5 -2.5v-6v-10v-10v-5q0 -12 1.5 -25t3.5 -24q2 -3 6 -4.5t8 -2.5t9 -1h7h5t4 3q0 4 0.5 8t0.5 8t0.5 7.5t0.5 7.5t-1 8t-5 4
q-8 0 -11 -3.5t-5 -10.5h-4q0 5 -0.5 14t0.5 18t3.5 16.5t8.5 9.5h3h5.5h4.5h3h9t9.5 -0.5t8 -3.5t4.5 -8v-21q0 -3 0.5 -7t0 -8.5t-0.5 -8.5t-1 -8h-2q-1 0 -2 0.5t-1 1.5v14q0 3 -3 3.5t-5 0.5h-3t-4 -0.5t-4 -1.5t-2 -2v-37l2 -3l3 -0.5t7.5 -0.5t9 -0.5t7.5 -0.5h4h4.5
t4 -1t1.5 -4q0 -4 -4 -4q-10 0 -20 1t-19 1v-21q0 -1 -3 -2.5t-4 -1.5v25l-3 2h-2t-4.5 0.5t-5.5 1t-5 0.5h-9h-9l-1.5 -3t-0.5 -2v-3q0 -1 0.5 -3.5t0.5 -5.5t0.5 -6t0.5 -4l0.5 -0.5l1.5 -1.5q7 -4 14 -5.5t16 -2.5q8 -1 15.5 -1t12.5 -1.5t8 -6.5t3 -16v-5.5v-4.5
q-2 -5 -5 -7h-12q-16 0 -31 2t-30 1q-1 1 -1.5 2t-0.5 2v3v1q13 0 26.5 -1.5t27.5 -1.5h16q2 2 2.5 3t0.5 3q0 9 -3 13.5t-8.5 5.5t-12 1t-13.5 1q-3 0 -8.5 0.5t-10.5 2t-9.5 3.5t-5.5 6q0 1 -0.5 2.5t-0.5 3.5t-0.5 4l-0.5 2q0 1 -0.5 4zM150 161v-3.5v-2.5l2 -2h41
q2 0 2.5 2.5t0.5 4.5q0 4 -0.5 8.5t-1.5 9.5q-1 2 -4.5 4.5t-5.5 2.5h-26q-3 0 -4.5 -3t-2.5 -7t-1 -8v-6zM38 175v1q1 0 2 1.5t2 2.5h7q7 0 13.5 -0.5l13 -1l13 -1t14.5 -1.5v-2q0 -2 -0.5 -3.5t-2.5 -1.5q-5 0 -9 1t-8 1q-3 0 -4.5 -0.5t-1.5 -4.5t1 -8.5t1 -9.5
q0 -11 -1 -21.5t-1 -21.5v-2.5t2 -1.5h19q2 0 2.5 -1t0.5 -2q0 -3 -2 -4h-3.5t-5.5 -0.5t-5.5 -1t-3.5 -0.5t-2 -0.5t-2 -1.5v-3v-4.5v-4.5v-3v-9q0 -5 0.5 -8.5t0.5 -8t1 -9.5q0 -1 0.5 -3t1.5 -2l22 -4l-2 -5h-5h-7h-1.5t-3.5 0.5t-3.5 0.5h-1.5q-7 1 -11.5 1t-8.5 -0.5
t-8.5 0t-10.5 1.5v1.5v0.5q0 2 0.5 3.5t3.5 1.5h25l0.5 1.5t1.5 2.5v5v7q-1 5 -1.5 12t-1 13.5t-1 11.5l-0.5 5l-3 2h-24q-1 0 -1.5 1t-0.5 2q1 1 2.5 3t3.5 3v0q4 0 8 -1.5t8 -1.5q6 0 8.5 2.5t2.5 8.5q0 14 -1.5 27t-0.5 27l-4 4h-25l-0.5 1t-1.5 2v1z" />
</svg>
