<?xml version="1.0" standalone="no"?>
<!DOCTYPE svg PUBLIC "-//W3C//DTD SVG 1.1//EN" "http://www.w3.org/Graphics/SVG/1.1/DTD/svg11.dtd" >
<svg xmlns="http://www.w3.org/2000/svg" xmlns:xlink="http://www.w3.org/1999/xlink" version="1.1" viewBox="-10 0 266 256">
   <path fill="currentColor"
d="M143 243q0 1 0.5 3t2.5 2q1 0 2.5 -2t1.5 -3v-6.5v-10.5v-10v-7q0 -1 0.5 -4t0.5 -6.5t0.5 -6.5l0.5 -3v-1v-1q0 -1 -0.5 -2.5t-0.5 -3.5t-0.5 -3.5t-0.5 -2.5v-153q0 -1 -0.5 -2t-1.5 -2h-1v0q-1 1 -2.5 1.5l-1.5 0.5v37q0 2 -1.5 2.5t-3.5 1t-4 0.5h-3t-3.5 -0.5
t-4.5 -1.5t-3.5 -3t-1.5 -4v-20l-0.5 -1.5l-0.5 -1.5l-1.5 -1.5l-0.5 -0.5q-1 0 -2 0.5t-1 1.5v11v8t0.5 7.5t2.5 6.5t7 4q1 0 4 0.5t6 0.5t5.5 0.5t4.5 0.5l1 3v24q0 3 -2.5 4t-5.5 1h-8h-7.5t-6 2t-2.5 5q8 0 16 -0.5t16 -0.5v31l-23 4l-3 3l-0.5 2t-1 4.5l-1 5t-1.5 4.5
q-2 16 -3.5 34t-1.5 34v7q1 1 2 1h3t3 -0.5t2 -2.5v-36v-10t0.5 -12t1.5 -12t3 -10.5t6.5 -7.5t11.5 -3h1q0 1 1 3t1 4t0.5 3.5l0.5 1.5v6v8.5v8.5v6q0 15 -1 29.5t-1 30.5zM170 243q-1 3 0.5 3.5t2.5 0.5t2 -0.5t1 -1.5t0.5 -3.5t1 -4.5t0.5 -4.5v-3.5v-1q0 -21 -1.5 -42.5
t-1.5 -43.5h18l1 1t1 1.5t0.5 2.5l0.5 2q1 2 1.5 6l1 8t1 7.5t0.5 4.5v3v5v6v3v3t0.5 4.5t0.5 5v2.5q0 2 0.5 6t0.5 9v9v6q1 0 3.5 -0.5t2.5 -1.5v-11v-10v-2t-0.5 -4t-0.5 -3.5v-2.5q-1 -6 -0.5 -14t0.5 -16t-1.5 -15.5t-5 -12.5t-9.5 -7.5t-16 -0.5l-2 -29l0.5 -0.5
l1.5 -1.5l2.5 -0.5t4.5 -0.5h1q3 -1 7 -1t7.5 -0.5t6.5 -0.5h3l1 -2l-3 -3l-2.5 -0.5t-3.5 -0.5q-2 0 -5.5 0.5l-3.5 0.5h-2.5t-3 0.5t-3 0.5h-1.5q-1 0 -3 -2t-2 -3v-27q10 0 16 -2t8.5 -6.5t3 -11.5t0.5 -16v-7l-0.5 -0.5t-1.5 -0.5v0h-1v0q-1 0 -1.5 0.5l-0.5 0.5l-3 28
q-1 2 -3 4t-4.5 3t-5 1h-4.5h-2t-1 -2v-2.5v-3.5q0 -8 0.5 -16.5t0.5 -16.5v-5q-1 -1 -2 -1h-2h-2q0 3 -0.5 10.5t-0.5 16.5v19t-0.5 19.5t-0.5 16.5v11v18q0 30 1 60t1 60zM37 170q0 1 2.5 2l2.5 1q1 0 5 0.5t5 0.5q2 0 5.5 -0.5t4.5 -0.5q2 0 7.5 -0.5t11.5 -1.5
t11.5 -1.5t7.5 -1.5v-2q0 -1 -0.5 -2t-2.5 -1h-22l-2 -2l2 -1v-53q0 -1 3 -1.5t7 -1t7 -1.5t3 -3v-2t-2 -1h-16v-55l1 -0.5t2 -1.5h3.5t5 -0.5t5 -0.5h3.5v-1q0 -3 -2 -3.5t-4 -0.5h-6h-9t-11 0.5t-11 1t-8 2t-3 3.5t1.5 2.5t3.5 0.5h2q1 0 3 -0.5t4 -0.5t4 -0.5l2 -0.5h2v0
q1 1 2.5 2t1.5 2v49l-1.5 0.5t-2.5 1.5h-4t-6 0.5t-6 0.5h-4q-1 1 -1.5 2.5t-0.5 2.5q0 3 3 3.5t6 0.5t5.5 -1t5.5 -1h2.5t1.5 2q1 6 1 10.5t0.5 9t0.5 8.5v10v15q-1 2 -2 3t-3 1.5t-4 0.5h-3h-3.5t-5.5 0.5t-6 0.5h-4q0 1 -0.5 2t-0.5 2zM143 63q2 0 2 1q0 2 -2 2
q-1 0 -1 -2q0 -1 1 -1z" />
</svg>
