<?xml version="1.0" standalone="no"?>
<!DOCTYPE svg PUBLIC "-//W3C//DTD SVG 1.1//EN" "http://www.w3.org/Graphics/SVG/1.1/DTD/svg11.dtd" >
<svg xmlns="http://www.w3.org/2000/svg" xmlns:xlink="http://www.w3.org/1999/xlink" version="1.1" viewBox="-10 0 266 256">
   <path fill="currentColor"
d="M190 248l1 1l2 2h1q3 0 4 -2.5t1 -5.5q0 -7 -2 -13t-6 -12q-4 -8 -8.5 -12.5t-9.5 -7.5t-12 -4t-16 -1q-12 0 -23 1t-22 1h-6.5t-6 -1t-4.5 -3t-2 -6v-2v-2l1.5 -0.5l1.5 -0.5q11 -3 21 -4.5t20.5 -3t21 -2.5t21.5 -2q5 -2 8 -3.5t5 -3.5t3 -5t1 -7q0 -10 -2.5 -15
t-7.5 -7t-12 -2h-15q-2 0 -5 0.5l-3 0.5h-8.5t-12 0.5t-14 0.5t-14.5 0.5t-12.5 0.5h-8.5q0 1 -2.5 2.5t-2.5 3.5t1.5 3t3.5 1h2q1 -1 4 -1.5t6 -1.5t5.5 -1.5t4.5 -0.5t4 1t2 4v31l-21 6q-6 2 -6.5 5t-0.5 7q0 5 2 8.5t5 5t7.5 2t8.5 0.5q11 0 22 -1.5t22 -1.5q10 0 20.5 2
t18.5 8q11 17 14 38zM107 154l16 -3h51q0 6 -3 8t-7 3t-8 1h-9q-8 1 -16.5 3t-17.5 2h-1h-2t-2 -0.5t-1 -1.5v-12zM105 138v-2v-2l3 -1h3t7.5 -0.5t9 -0.5h7.5h1h1h6.5h10t10 0.5t6.5 0.5q3 1 4 2.5t1 4.5q0 2 -1 3.5t-4 1.5h-63q-1 0 -1.5 -0.5l-0.5 -0.5v-3v-3zM57 111
q0 4 3 4h1q1 0 5 -0.5l8 -1t7.5 -1t4.5 -0.5h13q1 0 3 -0.5t4 -0.5t3.5 -0.5l1.5 -0.5l3 -3q-1 -2 -2 -2.5t-3 -0.5h-2q-1 0 -2.5 0.5t-3.5 0.5t-4 0.5l-2 0.5h-1h-1l-0.5 -0.5t-0.5 -1.5v-6q0 -7 1 -10t3.5 -5t6.5 -3t10 -1q1 -1 3 -1t4 -0.5t4 -0.5h2h15h14q2 0 4 1.5
t4 3.5v3v3q0 5 -1.5 8t-4 4.5t-6.5 2t-9 0.5q-2 1 -2.5 3t-0.5 3h54l1 -1l2 -2v-0.5v-0.5v0v-1l-0.5 -0.5t-1.5 -0.5h-15q-4 0 -5.5 -2t-2 -5t0 -6t0.5 -6q8 0 15.5 1t15.5 1h3.5t1.5 -3v-1.5t-2 -1.5q-7 -3 -15 -4l-16 -2q-3 -2 -4 -4.5t-1 -6.5v-2.5v-3.5q1 0 2.5 -1
t2.5 -1l2.5 -0.5t5.5 -0.5t5 -0.5t3 -0.5v-0.5v-0.5v-2.5t-1 -1.5h-17l-3 -1v-1v-2q0 -5 2 -8t4.5 -4t5.5 -0.5t6 0.5t4.5 -0.5t1.5 -3.5v-1l-3 -3h-5q-10 0 -19 2t-20 1q-1 1 -2.5 2t-1.5 2v1h8t6.5 1t4 3.5t1.5 6.5v2v2q-1 0 -2 0.5l-1 0.5q-1 0 -3 0.5t-3.5 1t-3.5 0.5
h-3l-0.5 0.5t-0.5 1.5v0v1q0 1 0.5 1.5l0.5 0.5h13q2 0 3 1.5t1 4.5v5v4q0 3 -3 3h-1q-2 0 -5 -0.5t-6 -1.5t-5.5 -1t-3.5 -1q-3 0 -5.5 -0.5t-3.5 -3.5q-1 -12 -1.5 -24.5t-0.5 -25.5q-1 -2 -2 -2.5t-3 -0.5t-3 0.5t-2 2.5q2 11 2.5 20t0.5 21v3v4v3.5v1.5l-3 3l-2.5 0.5
t-5.5 1t-6.5 1t-5.5 0.5h-2q-4 0 -5.5 -3t-1.5 -6q0 -4 2.5 -5t6 -1.5t6 -1t2.5 -3.5v-1q-1 0 -1.5 -0.5l-0.5 -0.5h-12q-2 0 -2.5 -2t-0.5 -4q0 -1 0.5 -4.5t2.5 -3.5l17 -3l0.5 -1t0.5 -2v-1q0 -1 -0.5 -1.5t-2.5 -0.5h-1h-2t-2 0.5t-2.5 0.5h-1.5q-2 1 -7.5 1.5t-12 1
t-12 1.5t-7.5 1l-2 1v1v1q1 0 1.5 1.5l0.5 1.5h20l1.5 2.5l1.5 2.5v0q0 4 -2.5 6t-5.5 2.5l-6 1t-6 0.5v2q0 4 4 4q3 0 6.5 -1t6.5 -1q4 0 4 3v6t-0.5 6.5t-3.5 4.5q-2 1 -5.5 1.5t-7 1.5l-7 2t-4.5 1q-3 1 -5.5 2t-2.5 4q0 1 1 2.5t2 2.5v0h1q7 -1 13.5 -4t12.5 -5h2
q2 0 3 1.5t1 4.5t-0.5 6.5t-3.5 5.5q-5 0 -11.5 1t-11.5 2v1v1z" />
</svg>
