<?xml version="1.0" standalone="no"?>
<!DOCTYPE svg PUBLIC "-//W3C//DTD SVG 1.1//EN" "http://www.w3.org/Graphics/SVG/1.1/DTD/svg11.dtd" >
<svg xmlns="http://www.w3.org/2000/svg" xmlns:xlink="http://www.w3.org/1999/xlink" version="1.1" viewBox="-10 0 266 256">
   <path fill="currentColor"
d="M126 151q0 18 -4 34.5t-12 33.5q-1 4 -4 7.5t-5.5 6.5t-4.5 7t-2 8q6 0 9.5 -1.5t6 -4.5t4 -7t3.5 -8q6 -12 9.5 -23t5.5 -22.5t3 -23t0 -24.5q2 -3 5 -4.5t6.5 -2.5t6.5 -1.5t6 -1.5v21l-11 57v2v1q0 3 1.5 6t4 4.5t5.5 2.5t6 1q9 0 13.5 -5t5.5 -13t1 -16.5v-15.5
q1 -6 3.5 -13t2.5 -12q0 -1 -1 -1l-0.5 -1l-0.5 -1h-1h-1l-1.5 1.5t-1.5 2.5q-1 1 -2 4.5t-2.5 7.5t-2 7.5t-1.5 4.5v9.5t-0.5 13t-2.5 11.5t-7 5q-9 0 -9 -9v-2l9 -46q-1 -4 -1 -8.5t0.5 -8.5t1.5 -8t4 -7q1 0 4 -0.5t6 -0.5t5.5 -0.5t3.5 -0.5h2q2 0 4 1.5t3 4t1.5 4.5
t0.5 4q0 8 -1 16t-1 16q0 3 0.5 9.5t2 15.5t3 18.5t4 17.5t6 13t7.5 5h0.5h0.5l4 -4t1 -4v-1v-1q-9 -16 -15 -32.5t-6 -35.5q0 -9 1 -17t1 -17v-2v-4v-3v-2q-1 -1 -1.5 -2.5t-2 -3.5t-2.5 -3t-2 -1h-32v-30h32l13 -14v-1.5v-2.5q0 -10 -2.5 -15.5t-7 -8t-9.5 -3t-10 -0.5
t-9 -1t-7 -5v-13q0 -3 -1 -3.5t-2 -0.5h-2q-1 0 -3 1l-2 1v20l-2 0.5t-4 1.5t-4.5 1.5t-4.5 0.5q-6 1 -11.5 2.5t-9 4.5t-6 7.5t-2.5 12.5q0 2 0.5 5t1.5 5.5t3 5t5 2.5h35q1 0 1.5 2t0.5 3v2v2v5t-0.5 6.5t-1 6l-0.5 2.5q0 4 -3 6t-6 3.5t-6 2.5t-4 1l-1 1q-5 0 -7 -4
t-3.5 -8.5t-4 -8.5t-6.5 -4h-2l-1.5 1l-1.5 1v1v1q2 5 5.5 9.5t3.5 9.5q0 3 -2 5.5t-4 3.5l-21 7q-2 1 -2 3.5v3.5q4 0 7.5 -1.5l7 -3l7 -3t7.5 -1.5q1 0 2 0.5t1 1.5v12zM29 181q0 2 0.5 5t2.5 5h5h5q4 0 11 -0.5t15.5 -1t15.5 -1t10 -1.5q5 0 6.5 -2t1.5 -6h-24l-2 -3
v-5.5t-0.5 -13.5t-0.5 -16.5v-14.5q-1 0 -1 -1v-3v-1t0.5 -2l1 -2l0.5 -1h16q2 0 2 -2v-3v-2t-2 -2h-17v-58h16q1 0 1.5 -2t0.5 -3t-1 -2t-2.5 -1h-3.5h-3q-11 0 -23.5 0.5t-22.5 1.5l-1.5 1.5l-1.5 1.5v1q0 2 2 3.5t4 1.5q5 0 9.5 -1t9.5 -1q3 0 4 1.5t1 4.5q0 13 -1 25
t-1 25l-2 3h-23q-2 0 -3.5 2.5t-1.5 3.5l5 2h29v7q-1 6 -1 15t-0.5 17t-0.5 14v6l-4 5h-31zM124 62q0 -6 4 -10t9.5 -6t11.5 -3t11 -1q0 3 0.5 4t0.5 2t0.5 2t0.5 3v3v2.5t-0.5 4.5t-0.5 4.5t-1 2.5q-4 1 -6.5 1.5t-5.5 0.5h-6h-6h-8q-3 -2 -3.5 -4.5t-0.5 -5.5zM171 55v-9
l0.5 -1.5t1.5 -1.5h20q2 0 4 1.5t3.5 4t2 5.5t0.5 5q0 5 -2 7.5t-5.5 4t-7.5 1.5h-8q-3 0 -5 -1.5t-3 -4t-1 -6v-5.5z" />
</svg>
