<?xml version="1.0" standalone="no"?>
<!DOCTYPE svg PUBLIC "-//W3C//DTD SVG 1.1//EN" "http://www.w3.org/Graphics/SVG/1.1/DTD/svg11.dtd" >
<svg xmlns="http://www.w3.org/2000/svg" xmlns:xlink="http://www.w3.org/1999/xlink" version="1.1" viewBox="-10 0 266 256">
   <path fill="currentColor"
d="M201 242q1 2 2.5 5.5t3.5 3.5h0.5h0.5q1 -1 1.5 -3l1 -4t0.5 -3.5v-1.5v-162l-5 -34q0 -1 -1 -3t-2.5 -4t-3.5 -3t-3 -1h-24q-2 0 -2 -3t-0.5 -6t-1.5 -5.5t-4 -2.5h-3t-2 2v16l-1.5 0.5t-2.5 0.5q-12 2 -18.5 2t-10.5 2.5t-5.5 8.5l-4.5 18q-1 21 -2 43t-2 44.5
t-1.5 44.5t-0.5 43q0 2 1 4t3 2q1 0 1 -1l1.5 -0.5l1.5 -0.5q1 -3 1 -9t0.5 -12.5t0.5 -12.5v-8v-7v-12v-12v-7v-22v-23t1 -23.5t2 -23.5q1 -1 1 -4.5t0.5 -7l1 -7t2.5 -5.5q1 0 2 -1t2.5 -1.5t2.5 -0.5h1q2 0 7.5 -0.5t11.5 -1t11 -0.5h7h10h10q4 2 5 5t3 7v14t2 14v131
q-2 4 -2 9v9v2v2.5v3.5v2zM130 184v0v1l1.5 1.5l1.5 1.5h7q10 0 20 -0.5t20 -0.5q2 0 4.5 -0.5t4.5 -1.5t3.5 -2.5t1.5 -4.5h-31t-30 2l-1.5 1.5l-1.5 1.5v1zM45 167v1q1 0 1.5 1.5l0.5 1.5h3h4.5h4.5h3h10h10t10 -0.5t11 -1.5l0.5 -1l0.5 -1q0 -2 -0.5 -3.5t-3.5 -1.5h-17
l-1 -1v-56l1 -1q1 0 4 -0.5t6.5 -1t6 -2t2.5 -3.5t-0.5 -2.5t-3.5 -1.5l-2.5 -0.5t-4.5 -0.5t-4.5 -0.5t-3.5 -0.5l-1 -3v-4v-6v-3v-5v-4v-2v-5t0.5 -6.5t1.5 -6.5t3 -3h7t6.5 -1t4 -3t1.5 -6h-52l-1 0.5l-1 0.5q-1 1 -1.5 2l-0.5 1q1 2 2 4.5t2 2.5h19v50h-24q-2 0 -2 2.5
v2.5q0 2 0.5 4t2.5 2h22v57h-25l-0.5 1.5t-1.5 2.5v1zM135 143q0 8 3.5 12.5t9 6t12.5 1t13 -0.5h3h4h5h3q2 0 2.5 -0.5t0.5 -2.5v-2.5t-1 -1.5l-44 -3l-3 -7v-38q0 -7 3 -10.5t8 -5.5t10.5 -2.5t10.5 -0.5h3.5t3.5 1t3 2.5t1 3.5v33q0 3 -1.5 4.5t-4 2.5t-5 1h-3.5h-6h-4
q-1 0 -1.5 -0.5l-0.5 -0.5v-21q0 -3 2 -3.5t4 -0.5t3.5 2.5t2 6t0.5 7t1 5.5q2 -1 3 -3t1.5 -5t0.5 -5v-4q0 -3 -1.5 -5t-3.5 -4h-2.5h-3.5q-9 0 -11.5 4t-2.5 13v5v6.5t1 5.5t4 2h28q2 0 3 -1.5t1.5 -4t0.5 -4.5v-2v-3v-7t0.5 -8t0.5 -7q0 -1 -0.5 -4t-0.5 -5v-5v-2l-1 -2
l-3 -0.5t-7 -1t-8.5 -1t-6.5 -0.5h-1h-1q-12 0 -17.5 5t-8 12.5t-2.5 17.5v18v7zM135 67q0 1 0.5 2.5t2.5 0.5q1 0 2.5 0.5t3.5 0.5h3h3q6 0 10.5 -0.5t8.5 -0.5t9 -0.5t12 -0.5q1 -1 1 -2v-2v-1.5t-1 -1.5h-4h-5h-5h-4h-16.5t-17.5 2q-2 0 -2.5 0.5t-0.5 2.5z" />
</svg>
