<?xml version="1.0" standalone="no"?>
<!DOCTYPE svg PUBLIC "-//W3C//DTD SVG 1.1//EN" "http://www.w3.org/Graphics/SVG/1.1/DTD/svg11.dtd" >
<svg xmlns="http://www.w3.org/2000/svg" xmlns:xlink="http://www.w3.org/1999/xlink" version="1.1" viewBox="-10 0 266 256">
   <path fill="currentColor"
d="M151 246q0 4 5 3q5 0 10.5 -6.5t10.5 -16t10.5 -20.5t9 -22t6 -20t2.5 -13q0 -5 -4 -9t-9.5 -7t-11 -5t-8.5 -3q-1 0 -3.5 -2t-5.5 -3.5t-5.5 -3.5t-4.5 -3q-2 -2 -2.5 -3t-0.5 -3v-2v-1h8.5t13 -0.5l13 -1t8.5 -0.5h3q3 0 5.5 1t5.5 1q2 0 3.5 -0.5t1.5 -3.5v-1
q-1 -1 -1.5 -2t-0.5 -2h-28h-29q-2 0 -9 0.5t-15 0.5t-14.5 0.5t-9.5 0.5l-1 0.5t-1 1.5v1v1l1 1l1 1h33l1 1t1 2v1v0q-1 1 -4 4.5t-7 7.5l-8.5 8.5t-8 8.5t-6 7.5t-2.5 4.5q7 0 13 -5.5t10.5 -12t9 -12t7.5 -5.5h0.5h0.5l10 8v1v2q0 2 -1 4.5t-2.5 4.5t-3.5 3.5t-3 3.5
q-1 1 -2 3.5t-3 5t-3.5 4.5t-1.5 3q-1 0 -2 2t-3 4t-4 4.5t-3 3.5l-1.5 1.5t-3 3.5t-3 3t-2.5 2v1v2t0.5 2.5t2.5 1.5t4.5 -2.5l6 -6t6.5 -8l6 -9t5 -8.5t2 -6q1 1 3.5 -2t5 -6.5t5.5 -6.5t3 -4q1 1 3 1.5t4 2t4 2.5t3 1q1 1 1 1.5v2.5t-2.5 5.5t-3.5 6.5q-1 1 -2 3.5
t-2 3.5t-4 6t-6.5 11t-7 11t-4.5 6q0 1 -1 4t-2 3q0 1 -2.5 3t-4.5 5t-4 5.5t-2 4.5t1.5 3.5t3.5 1.5t6.5 -6t9.5 -15t11 -19.5t11 -19t9 -14.5t6 -6q3 0 4.5 2t2 5t0.5 7v4v4.5v5.5q-5 11 -11 22.5t-12 22.5q-1 1 -4.5 5.5t-7 9.5t-6.5 9t-3 5zM45 167q0 4 2.5 4.5t5.5 0.5
q12 0 25 -1.5t25 -2.5q2 1 3 -0.5t1 -2.5q0 -2 -1 -3.5t-3 -1.5h-18q-1 -5 -1.5 -8t-0.5 -5.5v-5.5v-7q0 -5 0.5 -10l1 -10t0.5 -10v-12l1.5 -0.5l1.5 -0.5q1 0 3.5 -0.5t5 -0.5h4.5h3q0 -2 -1.5 -4.5t-2.5 -2.5h-15v-46l1.5 -0.5t1.5 -1.5q5 -2 9 -2.5t9 -0.5q2 -1 2 -2v-2
q0 -3 -2.5 -3h-4.5h-4h-9.5t-14 0.5t-14.5 0.5h-9q-1 1 -2 2.5t-2 1.5v1v1q1 0 2 1.5t2 1.5h3h3h4.5h2.5h1.5t3 -0.5t2.5 -0.5h2t3 0.5l2 0.5v51h-28v1t0.5 2l1 2l0.5 1h26v66l-4 4h-25q-2 0 -2.5 2t-0.5 3zM128 50q0 5 0.5 10.5t2.5 10.5t6 8t11 3h30q3 0 6.5 -2t6 -4.5
t4.5 -6t2 -6.5v-37q0 -5 -5 -9t-10 -4h-34q-7 0 -11 4t-6 9.5t-2.5 12t-0.5 11.5zM136 57v-2.5v-1.5l4 -2l4.5 -0.5t11 -0.5t13.5 -0.5t11 -0.5h4h2q2 0 2 2v3v3q0 7 -2.5 11t-7.5 5.5t-10.5 1.5h-11.5h-10q-5 -3 -7.5 -7.5t-2.5 -10.5zM136 37q0 -7 3.5 -11t8.5 -5.5t11 -1
t12 0.5q7 0 12 3t5 11q0 2 -0.5 5t-4.5 3h-45q-2 0 -2 -2v-3z" />
</svg>
