<?xml version="1.0" standalone="no"?>
<!DOCTYPE svg PUBLIC "-//W3C//DTD SVG 1.1//EN" "http://www.w3.org/Graphics/SVG/1.1/DTD/svg11.dtd" >
<svg xmlns="http://www.w3.org/2000/svg" xmlns:xlink="http://www.w3.org/1999/xlink" version="1.1" viewBox="-10 0 266 256">
   <path fill="currentColor"
d="M170 202q0 2 0.5 6t1.5 9.5t2 11.5t3 11t5 8t6 3q5 0 5 -5q0 -3 -1.5 -5.5t-2.5 -5t-2.5 -5t-2.5 -4.5q-2 -8 -3 -16.5t-1 -16.5q0 -7 3 -13.5t7.5 -12t9.5 -11t9 -10.5q5 -6 7.5 -14.5t3.5 -17t1 -16.5v-16v-21q-2 -9 -8 -15t-16 -6q-11 0 -17 4t-9 10.5t-4 15t-1 18.5
v19v21v1.5t0.5 3.5t0.5 3.5t0.5 2.5t1 4.5t1.5 6.5t2.5 5.5t3.5 2.5t2.5 -1.5t0.5 -2.5q0 -5 -2 -8.5t-3 -7.5q-1 -5 -1.5 -9t-0.5 -7t0.5 -6.5t0.5 -8.5q7 0 10 4.5t4.5 10.5t2.5 11t3 5q3 0 3 -3v-4q0 -3 -0.5 -7t-2 -8.5t-4 -8t-5.5 -4.5q-3 -2 -5.5 -2.5t-3.5 -1t-2 -2
t-1 -5.5v-5t0.5 -6t1.5 -5t4 -2q6 0 9 4t5 8.5t4.5 8t5.5 3.5q0 -10 -4 -15.5t-9 -9t-9 -5.5t-4 -6q0 -1 0.5 -3.5t1.5 -5t2.5 -4t3.5 -1.5h22q2 0 3.5 3.5t2.5 8.5t1.5 9.5t0.5 6.5v17t-1.5 17.5t-4 17t-7.5 15.5q-6 8 -11.5 14.5t-10 13t-7 14t-2.5 17.5zM35 173
q0 4 1.5 7t4.5 3q14 0 28 -1.5t27 -2.5q1 0 2 -0.5l1 -0.5v-1v-1q0 -1 -1.5 -2.5l-1.5 -1.5h-22v-51q0 -3 3 -4.5t6.5 -2t6.5 -1t3 -3.5v-1q-1 0 -2 -0.5t-2 -0.5l-2 -0.5t-4 -0.5t-4 -0.5t-3 -0.5v-10v-10q0 -2 0.5 -6.5t0.5 -10t0.5 -10t0.5 -6.5l1 -0.5t2 -1.5
q1 0 3 -0.5t4.5 -1t4.5 -1t3 -0.5v-0.5v-1.5q0 -2 -1.5 -2.5t-3.5 -0.5h-40h-2t-2.5 0.5t-2.5 1.5t-1 2v1q0 1 1.5 2l1.5 1h22q1 0 1 2v3v2q0 1 -0.5 3.5t-0.5 3.5v44h-24q-1 0 -1 1.5v2.5q0 3 2.5 4t4.5 1q5 0 8 -0.5t8 -0.5v51l-5 5h-26zM101 126v11t1.5 11t5 9t10.5 6
l1 -0.5t2.5 -0.5t2.5 -0.5t2 -0.5h2.5t5 -0.5t4.5 -0.5t3 -1q6 -2 9 -8t4 -13.5t0.5 -15t-0.5 -12.5v-15q0 -3 -1 -3.5t-2 -0.5h-2.5t-1.5 2v23l-1 3q0 1 -2 1h-3h-4q-2 0 -3 -1q-1 0 -2 -0.5l-1 -0.5v-58q0 -1 1 -1.5t2 -0.5t4 -0.5t6 -0.5t6 -0.5t4 -0.5l2 -1l-4 -4h-18
l-0.5 -1.5t-1.5 -1.5v-1v-1q1 -1 1.5 -5.5t1 -10t1 -10t0.5 -5.5v-1v-1q0 -2 -1.5 -3.5t-3.5 -1.5q-4 0 -4 3q0 2 -0.5 7t-1 10.5t-1 10.5t-0.5 7q0 5 -3.5 6.5t-8 2t-9.5 0.5h-7v0.5v0.5v2.5t2 1.5h25q1 0 1 2.5v4.5v2q0 6 -0.5 14t-0.5 16v13.5v5.5l-2 1h-13
q0 -7 0.5 -13.5t0.5 -13.5q0 -2 -1 -2.5t-2 -0.5t-2 0.5t-1 1.5q-1 6 -1.5 10t-0.5 8v8v9zM108 130v-3t3 -1h35q1 0 1 3v3q0 10 -5 16t-16 6q-7 0 -10.5 -1t-5.5 -3.5t-2 -7.5v-12z" />
</svg>
