<?xml version="1.0" standalone="no"?>
<!DOCTYPE svg PUBLIC "-//W3C//DTD SVG 1.1//EN" "http://www.w3.org/Graphics/SVG/1.1/DTD/svg11.dtd" >
<svg xmlns="http://www.w3.org/2000/svg" xmlns:xlink="http://www.w3.org/1999/xlink" version="1.1" viewBox="-10 0 266 256">
   <path fill="currentColor"
d="M103 247q0 1 0.5 2t2.5 1h106q2 0 3 -1t1 -2q0 -2 -1 -3t-3 -1h-32q-1 0 -1.5 -1t-1.5 -2.5t-1.5 -2.5t-0.5 -2v-1t0.5 -2.5t1 -2.5l0.5 -1v-7.5t0.5 -11t0.5 -11v-7.5l2 -2q1 0 3.5 -1.5t5.5 -3t5.5 -3t3.5 -1.5q1 -4 1.5 -8.5t0.5 -8.5q0 -7 -3 -11.5t-7.5 -7t-10.5 -3
t-12 -0.5q-7 0 -14.5 0.5t-14.5 3t-11.5 7.5t-4.5 14q0 8 4 11.5t8.5 5.5t8.5 3.5t4 5.5q0 12 -0.5 24.5t-0.5 25.5h-42q-1 0 -1 2v3zM161 189q3 0 5 1t3 3.5t1 5.5v7q0 1 -0.5 6.5t-1 12t-1 11.5t-1.5 5h-16q0 -10 1 -20t1 -19v-6q0 -2 0.5 -4t2.5 -2.5t6 -0.5zM31 202v2
t2 2h2h3h3h3h3h3.5h3.5h1q3 0 9.5 -0.5t14 -0.5t14 -0.5t8.5 -0.5v-1q0 -3 -2 -4.5t-5 -2.5h-19q0 -2 -0.5 -9.5t-1 -16t-0.5 -15.5v-11v-3q0 -4 3.5 -4.5t6.5 -0.5q4 0 7.5 -1t3.5 -4v-1q-1 0 -2 -1l-1 -1h-3.5t-5 0.5t-4.5 0.5h-3v-59l1 -1.5t2 -1.5t2.5 -0.5t3.5 -0.5
t4 -0.5t3 -0.5v-2q0 -3 -3.5 -4t-6.5 -1h-1h-8t-13 0.5t-13 0.5h-8q-2 3 -2 5v4h3.5t5.5 -0.5t5 -0.5h4l1 -0.5t2 -0.5t2 -0.5l1 -0.5q3 0 4.5 2t1.5 5v4q0 6 -0.5 14t-0.5 15.5t-0.5 13l-0.5 5.5l-4 4h-22q-1 0 -2 1.5t-2 2.5l1 1.5l1 1.5q0 1 1 1.5l1 0.5h28v5.5v4.5
q0 5 -0.5 13t-0.5 16t-0.5 13.5l-0.5 5.5l-2 2h-29q-2 0 -2 2v3zM131 167q0 -8 4.5 -13t12.5 -5h32q3 0 5 1t3 3.5l2 5t1 4.5q0 10 -7 14.5t-16 4.5q-3 0 -9 -0.5t-12.5 -2t-11 -4.5t-4.5 -8zM127 117v0.5v1.5q1 1 2.5 2l1.5 1h65v-5h-69zM126 87q0 7 -4 10t-8.5 4.5t-8.5 3
t-4 5.5q4 0 12 -2t16 -5.5t15 -7t8 -6.5q0 -2 0.5 -8t1 -12.5t1 -12t1.5 -8.5v-10v-10q-1 0 -1.5 -1l-0.5 -1h-1h-1l-1.5 1t-2.5 1v41v6.5t-1 6.5t-3 5t-6 2h-1h-2t-1.5 -0.5t-0.5 -1.5v-59q0 -1 0.5 -4.5t1.5 -4.5v-2q0 -3 -1.5 -3.5t-3.5 -0.5t-4 0.5t-2 4.5q0 9 1 19
t1 20q0 1 -0.5 1.5l-0.5 0.5v2.5v3.5t-0.5 3.5l-0.5 1.5q-1 1 -2 1h-2q-2 0 -4.5 -1.5t-4 -3.5t-2.5 -5t-1 -5v-5.5t-0.5 -7.5t-1 -7.5t-0.5 -5.5l-1.5 -1.5t-1.5 -2.5h-0.5h-0.5q-3 0 -3.5 2.5t-0.5 4.5q0 9 1 19t4 18q1 4 4.5 5t7.5 2t7.5 3t3.5 7zM171 66q0 10 1 15
t3.5 7.5t7 4.5t11.5 5t14 7.5t14 4.5q1 0 3 -1.5t3 -2.5q-1 -1 -3 -2t-3 -2q-1 0 -4 -1t-6.5 -2.5t-6.5 -2.5t-4 -1q-2 -1 -2.5 -1.5t-0.5 -1.5v-1.5t-2 -1.5q2 -9 6 -12t8.5 -3.5t7.5 -2t4 -6.5q0 -2 0.5 -6.5t0.5 -9.5t0.5 -9.5t0.5 -5.5v-2q0 -4 -3 -4t-4 3t-1.5 7.5
t0 9.5t-0.5 9t-3 7t-7 3h-2.5t-1.5 -2v-52l-0.5 -0.5l-0.5 -0.5q-2 0 -3.5 1t-2.5 2q0 9 0.5 18.5t0 19t-1.5 18.5t-4 18h-1q-2 0 -4 -1.5t-3.5 -4t-2 -5t-0.5 -4.5v-50l-0.5 -0.5l-0.5 -0.5l-0.5 -0.5l-0.5 -0.5l-0.5 0.5l-0.5 0.5q-3 10 -3.5 21t-0.5 22z" />
</svg>
