<?xml version="1.0" standalone="no"?>
<!DOCTYPE svg PUBLIC "-//W3C//DTD SVG 1.1//EN" "http://www.w3.org/Graphics/SVG/1.1/DTD/svg11.dtd" >
<svg xmlns="http://www.w3.org/2000/svg" xmlns:xlink="http://www.w3.org/1999/xlink" version="1.1" viewBox="-10 0 266 256">
   <path fill="currentColor"
d="M38 242q0 5 1 7t6 2q23 0 47 -1.5t48 -2.5h7.5h12t14.5 -0.5t14.5 -0.5h12h8.5q1 -1 1 -2v-2q0 -2 -1.5 -3t-3.5 -1t-3.5 0.5t-3.5 1.5h-58q-1 0 -4.5 -0.5t-4.5 -2.5q0 -1 -0.5 -4t-0.5 -6.5t-0.5 -6.5t-0.5 -4v-2q0 -3 2.5 -4t5.5 -1h6h3q2 0 7.5 -0.5t12 -1t11.5 -1
t7 -0.5q1 0 1.5 -1l0.5 -1v-1v-1l-0.5 -0.5t-1.5 -0.5h-51q-3 0 -3.5 -2.5t-0.5 -3.5v-3q0 -2 0.5 -5t0.5 -5.5t0.5 -4.5l0.5 -2l2 -2h13q3 0 10 -0.5t14.5 -0.5t14.5 -0.5t10 -0.5q3 -1 3.5 -3.5t0.5 -5.5q-9 0 -17.5 2t-17.5 2q-30 1 -59 2t-59 1v6q11 0 21 -1t21 -1h5
l2 0.5t4.5 0.5t4.5 0.5l2 0.5q1 0 2.5 -0.5t2.5 -0.5t2.5 -0.5l1.5 -0.5h3.5h3.5v26l-2 3l-1 0.5t-2.5 1t-3.5 0.5h-3q-2 0 -8.5 0.5t-14 0.5t-13.5 0.5t-9 0.5v1q0 2 0.5 3t1.5 1h16q10 0 19.5 -0.5t19.5 -0.5v29l-2 1l-5.5 0.5t-14 1t-17.5 0.5h-14h-6.5h-8.5h-9h-7z
M184 156v2q3 0 7.5 -4t8.5 -8.5t7 -9t3 -6.5v-19q0 -3 -4 -5t-10 -3.5t-12.5 -3t-12.5 -3l-10 -2.5t-4 -2v-3v-3v-3.5v-2.5h59q1 0 1 -1.5v-2.5q0 -3 -1.5 -3h-3.5h-5q-6 0 -14 0.5t-16.5 0.5t-17 0.5t-15 1t-11 0.5h-4.5l-7 2v3h26v3t1 3.5t1 3.5v3q-2 3 -4 5.5t-4.5 5
t-4.5 5.5t-2 6q4 0 6.5 -2.5t4.5 -6t4.5 -6t6.5 -2.5q2 0 4 1l4 2q0 1 -0.5 2.5l-1 3l-1 3l-0.5 1.5q-1 3 -4.5 8t-7.5 10t-6.5 9t-2.5 5q7 0 11.5 -6.5t8.5 -14t8 -13.5t10 -6q1 0 3 -0.5t3.5 0l3 1t1.5 2.5t-1 4t-2.5 4t-2.5 4t-1 4l-21 24q-1 1 -1.5 3t-0.5 4h2l2 -1.5
t4 -4t4 -4.5l4 -4q1 -2 3.5 -6t5 -8.5t6 -8t6.5 -3.5h3q3 0 3 2v14q-2 1 -3.5 4t-4 7l-5 8t-6.5 7zM53 121q0 3 1 8.5t3 11.5t4.5 10.5t4.5 4.5q3 0 3.5 -2.5t0.5 -4.5q0 -4 -1 -7.5t-2 -7.5t-2.5 -8t-1.5 -8q0 -8 2 -15.5t2 -16.5q0 -1 -0.5 -2t-2.5 -1t-3.5 2.5t-2.5 4.5
q0 1 -1 5.5t-1.5 9t-1.5 9t-1 5.5v2zM79 94q0 4 0.5 12.5t2 18t4 17.5t7.5 10q3 -2 3 -6v-1l-1.5 -1.5l-1.5 -1.5q-1 -2 -2 -7t-2 -10.5t-2 -10.5t-1 -7v-2v-4.5v-4.5v-5q0 -6 1 -12.5t2.5 -12.5t2.5 -12.5t1 -12.5v-11t-1.5 -11t-5 -9t-9.5 -4q0 4 1.5 8t3.5 7.5l4 7t2 7.5
q0 8 -1.5 15l-3 14t-3 14.5t-1.5 14.5zM99 96q0 3 0.5 7.5t1 9.5t2 11t3.5 10.5t5.5 7t7.5 2.5q0 -4 -0.5 -5t-2 -1.5t-2.5 -1t-2 -3.5q-5 -11 -6.5 -23t-0.5 -23l-4 -4l-1 4l-0.5 3.5t-0.5 5.5zM109 37q0 5 -2 9t-3.5 8l-3 8t-1.5 8q5 0 8 -4.5t4.5 -11t2 -12.5t0.5 -9v-3
v-4t-0.5 -4t-0.5 -3q0 -2 -2 -4.5t-5 -2.5q-2 0 -2.5 1t-0.5 3q0 5 3 10.5t3 10.5zM65 46q0 4 -1 6.5t-2.5 5.5t-2.5 5.5t-1 5.5q5 0 8.5 -3t5 -7t2 -8.5t0.5 -8.5q0 -2 -1.5 -5.5t-3 -6.5t-2.5 -5.5t-2 -3.5q0 -1 -1.5 -1.5l-1.5 -0.5q-3 0 -3.5 1t-0.5 2q0 3 1 5.5t2.5 5
t2.5 6t1 7.5zM143 43v8q0 3 1 5.5t3 4t6 3.5h6h5h3h4h3h2l3 -0.5l6 -1l6 -1t4 -0.5q3 -1 5 -4.5t3 -7.5t1 -8v-7q0 -8 -1.5 -12t-4.5 -6t-8 -2h-13h-5h-4t-7 0.5t-7 1t-4 0.5q-4 1 -5.5 4.5t-2 7.5t0 8t0.5 7zM148 46v-1l1.5 -1t2.5 -1q5 0 9.5 -0.5t8.5 -0.5h7.5h8.5h9
q1 0 1.5 1t0.5 2q0 6 -3.5 8.5t-8.5 4t-10.5 1.5h-8.5h-11q-4 -2 -5.5 -5.5t-1.5 -7.5zM149 31q0 -5 4 -7.5t9 -3t10.5 0t8.5 0.5h12q3 1 4 4.5t1 6.5v1l-0.5 1t-1.5 1q-8 1 -14 1.5t-14 0.5h-5t-6 -0.5t-5.5 -1.5t-2.5 -4z" />
</svg>
