<?xml version="1.0" standalone="no"?>
<!DOCTYPE svg PUBLIC "-//W3C//DTD SVG 1.1//EN" "http://www.w3.org/Graphics/SVG/1.1/DTD/svg11.dtd" >
<svg xmlns="http://www.w3.org/2000/svg" xmlns:xlink="http://www.w3.org/1999/xlink" version="1.1" viewBox="-10 0 266 256">
   <path fill="currentColor"
d="M121 226q0 9 4.5 13.5t11 7t13 2.5h12.5h1q2 0 6.5 -0.5t9 -0.5t7.5 -0.5l3 -0.5q7 -1 11 -5.5t6 -11t2 -13.5v-13q0 -8 -0.5 -13.5t-1.5 -13.5q-2 -5 -6.5 -7t-10 -3.5t-10.5 -1.5h-9l-2 -1l-0.5 -4.5t-0.5 -10t-0.5 -11.5t-0.5 -10v-11v-9l0.5 -2t1.5 -2h45
q1 0 1.5 -1.5l0.5 -1.5q0 -1 1 -2.5l1 -1.5q-1 -3 -3.5 -3.5t-4.5 -0.5q-10 0 -19 2t-19 2h-5t-2 -4v-2q1 0 2.5 -2.5l1.5 -2.5v-3v-6v-5v-3q0 -2 0.5 -5.5l1 -7t1 -7.5t0.5 -5q2 -4 6 -7.5l8 -7t7.5 -6.5t3.5 -6t-1 -4t-4 -1t-5.5 1.5t-5 4l-5 5l-4.5 4.5q-5 5 -7.5 11.5
t-3 14t-0.5 15t-1 14.5q0 1 -1 3t-1 3l1 2.5l1 2.5v1v1v0v0q0 1 -1.5 2l-1.5 1h-42q-1 0 -1.5 2t-0.5 3t0.5 2.5t1.5 1.5h43q0 4 -1 5.5t-3 2.5t-4.5 1.5t-4.5 3.5q-3 3 -6 7t-5.5 8l-5 8t-6.5 7v6h5l2 -1.5t4 -4t4.5 -5t3.5 -4.5q2 -2 3.5 -5t3.5 -6t4 -5.5t5 -2.5v42l-2 1
q-4 1 -9 2t-10 3t-8.5 5t-3.5 9v6v8v8v5t-0.5 3t-0.5 4.5t-0.5 5zM130 226l1 -15q1 0 5 -0.5t9.5 -0.5t8.5 -1h3h2v29l-2 2h-1.5h-2.5q-2 0 -6 -0.5t-8 -2.5t-7 -4.5t-2 -6.5zM191 209h1h2.5t2.5 0.5t1 1.5v3.5v3.5q0 7 -2.5 11.5t-6 6.5t-9 3t-10.5 1v-29h1.5t4 -0.5
t5.5 -0.5t4 -1h3h3zM131 195q0 -11 7 -16.5t17 -5.5h2.5t1.5 2v27h-24q-3 0 -3.5 -2.5t-0.5 -4.5zM170 175h20q2 0 3 1.5l2 3t2 3.5t1 3v3.5v4.5v5v3h-28v-27zM39 188q0 3 1.5 3.5t4.5 0.5v0h1q1 0 4.5 -1t4.5 -2h55q2 0 2 -2v-3v-2t-2 -2h-24v-52h19q2 0 2 -2v-3v-3.5
t-2 -2.5h-20q0 -4 -0.5 -11.5t-0.5 -15t2 -13.5t5 -7h6h3.5h3.5t5 -1v-1.5v-0.5q0 -4 -2.5 -5t-4.5 -1h-5q-3 0 -10 0.5t-14.5 0.5t-14.5 0.5t-10 0.5q-1 0 -2 1.5t-1 2.5h-0.5t-0.5 1l0.5 0.5l0.5 0.5q0 1 1.5 2.5l1.5 1.5h26v46h-24l-4 5l4 4h22v51l-1 2h-3.5h-5.5h-5.5
h-3.5h-4t-4.5 1t-4 2.5t-1.5 3.5zM175 112q0 3 4 9.5t9 13.5t10.5 12t7.5 5q4 0 5 -1t1 -4l-0.5 -1l-0.5 -1q-2 -3 -6.5 -8.5t-10 -11t-11 -9.5t-8.5 -4zM121 54q1 1 4.5 6l7 10t6.5 9.5t5 6.5l3 3t4 1q0 -3 -3 -10.5t-7 -15t-8.5 -13t-7.5 -5.5t-3.5 1t-0.5 4v1v2zM171 84
v4q5 0 11.5 -4.5t12.5 -10.5t10 -12t4 -9h-8z" />
</svg>
