<?xml version="1.0" standalone="no"?>
<!DOCTYPE svg PUBLIC "-//W3C//DTD SVG 1.1//EN" "http://www.w3.org/Graphics/SVG/1.1/DTD/svg11.dtd" >
<svg xmlns="http://www.w3.org/2000/svg" xmlns:xlink="http://www.w3.org/1999/xlink" version="1.1" viewBox="-10 0 266 256">
   <path fill="currentColor"
d="M209 250l1 0.5l1 0.5h1h1l1.5 -1.5t2.5 -1.5v-41v-41q0 -3 -0.5 -11t-0.5 -17t-0.5 -17t-0.5 -11q-1 -6 -1.5 -12t-2.5 -11.5t-6 -10t-10 -5.5q-2 -1 -5.5 -1.5t-7.5 -1l-8 -1t-5 -0.5q-2 0 -2 -1v-2q0 -9 1 -18.5t1 -18.5v-2v-4v-4v-2q0 -1 -1.5 -2t-2.5 -2v0q-3 0 -4 3
t-1 5v3l0.5 1.5t0.5 2.5t0.5 2.5t0.5 2.5l-0.5 1t-0.5 2.5t-0.5 3l-0.5 1.5v5.5v8.5v7.5v5.5l-2 3q-10 1 -18 2.5t-13.5 5t-9.5 10t-6 15.5q-2 35 -3 69t-1 68q0 2 1.5 4.5t3.5 2.5t3 -2t2 -5.5t1 -6v-3.5v-1.5v-0.5q0 -1 -1 -4.5t-1 -4.5v-42v-39t2 -38q1 -3 2.5 -5.5t3 -4
t3 -3.5t2.5 -4q1 -1 4.5 -2t7.5 -1.5t7 -1.5t5 -1h4.5h6.5q12 0 19.5 0.5t12.5 3t7 9t2 17.5q0 1 0.5 5t1 9t1 10.5t1 10.5t0.5 9v5v11v17v20v19v17v11zM164 141h-9q-5 0 -10 1t-8.5 3.5t-3.5 7.5v35q0 8 4.5 10.5t10.5 2.5h6.5h9.5q6 0 11 -0.5t9.5 -2.5t7.5 -5t3 -8v-33
q0 -5 -4.5 -7.5t-9.5 -3t-10 -0.5h-7zM138 181q0 -2 0.5 -4.5t3.5 -2.5h12q2 0 3 2t1 4v4v3q0 4 -1.5 6t-4.5 2q-8 0 -11 -3.5t-3 -10.5zM163 181q0 -3 1.5 -5.5t4 -3.5t5.5 -1h7q3 0 5.5 0.5t2.5 4.5q0 1 -0.5 3.5t-2 5.5t-3 5t-3.5 2h-15l-0.5 -1.5t-0.5 -3.5t-0.5 -3.5
t-0.5 -2.5zM36 179q0 4 2 4h5q12 0 25.5 -1t25.5 -2q0 -1 0.5 -1.5l0.5 -0.5q0 -2 -0.5 -2.5l-1.5 -1.5q-2 0 -5 0.5t-6.5 0.5t-6 -1.5t-3.5 -4.5v-13v-5.5v-7.5t1 -7.5t3 -4.5t4.5 -1.5t5.5 -0.5t5 -1t2 -3q0 -3 -3 -3h-6.5t-6.5 -1t-3 -7q0 -9 1 -18t1 -17q1 -2 3 -3
t5 -1.5t5.5 0t3.5 0.5v-2q0 -3 -2 -3.5t-4 -0.5h-5q-2 0 -7.5 0.5t-11.5 0.5t-11.5 0.5t-7.5 0.5t-2.5 1t-0.5 2.5v2.5v1q6 0 12 -1t12 -1v0q1 0 1.5 1l0.5 1v44h-1t-2.5 0.5t-3 0.5h-2.5t-3 0.5l-4 1t-4.5 0.5h-2.5v2v2.5t1 1.5h20q2 0 2.5 1.5t0 3l-0.5 1.5q0 9 -0.5 19
t-1.5 18q-1 0 -4.5 0.5t-7 0.5t-7 0.5t-4.5 0.5q-4 0 -5 0.5t-1 2.5zM136 161q0 -3 1.5 -5.5t4 -5t5.5 -3.5t6 -1q2 1 3.5 3t1.5 5v5.5v4.5v2q-5 0 -8.5 0.5t-8.5 0.5q-3 0 -4 -1t-1 -5zM165 164q0 -1 -0.5 -5t-0.5 -6v-1q0 -3 3.5 -5.5t7.5 -1.5q14 2 14 15q0 2 -1 3
t-2.5 1.5t-3.5 1t-4 0.5q-3 0 -5.5 -0.5zM138 109q0 5 1.5 8t4.5 4.5t7 1.5h9q2 0 6 0.5t8.5 0t8 -1.5t4.5 -4q0 -1 0.5 -3.5t0.5 -5.5t0.5 -6t0.5 -4v-2q0 -2 -1 -2.5t-3 -0.5q-9 0 -18 1t-18 1h-2q0 -1 -2.5 -2.5l-2.5 -1.5h-1h-1q0 1 -0.5 3t-0.5 4.5t-0.5 5t-0.5 3.5v1z
M143 108q0 -2 0.5 -3t3.5 -3q4 0 7 -0.5t6 -0.5h5h7h8q2 0 2 3v3q0 5 -2 7.5t-5 3t-8 0.5h-8h-12q-2 -1 -3 -4t-1 -6zM107 61q0 2 1.5 2.5t3.5 0.5h2l0.5 -0.5t1 -0.5t2.5 -1q7 -3 11 -4.5t6.5 -4t3.5 -6.5t1 -11v-3v-2l-4 -4l-3 4q0 8 -1.5 12.5t-4 7.5t-6 4t-7 1.5
t-5.5 1.5t-2 3zM188 25v4t0.5 6.5t0.5 6.5v4q0 2 1 4t3 3q5 4 10.5 7.5t12.5 3.5h3.5t2.5 -3t-4 -4.5t-9 -2.5t-9 -2.5t-4 -5.5v-19q0 -1 -1 -2h-3.5h-3.5z" />
</svg>
