<?xml version="1.0" standalone="no"?>
<!DOCTYPE svg PUBLIC "-//W3C//DTD SVG 1.1//EN" "http://www.w3.org/Graphics/SVG/1.1/DTD/svg11.dtd" >
<svg xmlns="http://www.w3.org/2000/svg" xmlns:xlink="http://www.w3.org/1999/xlink" version="1.1" viewBox="-10 0 266 256">
   <path fill="currentColor"
d="M110 247v1l1 1l2 2h1h1q0 -1 1 -2t2 -1q0 -2 0.5 -5.5t1.5 -7t1.5 -7t0.5 -4.5q1 -4 0.5 -6t-0.5 -4q0 -1 0.5 -3.5t2.5 -5.5q4 -5 8.5 -7.5t9 -4.5t8 -5t4.5 -10q1 -1 1 -3.5t0.5 -6t1 -6.5t0.5 -4v-1v-1q0 -2 -0.5 -6.5t-1 -9.5t-0.5 -9.5t-1 -5.5q0 -4 -3 -5.5
t-6.5 -3t-6 -2.5t-2.5 -2v-11q7 -1 12 -2t8 -3.5t4.5 -6.5t1.5 -11v-4.5t-3 -1.5q-2 0 -2.5 1t-0.5 3q0 1 -0.5 2.5t-0.5 3.5t-0.5 4l-0.5 2q-1 4 -5.5 4.5t-8.5 0.5h-2t-2 -2v-18q0 -2 3 -2.5t6.5 -2.5t5.5 -7t0 -15q1 -2 3 -2.5l4 -1t3.5 -1t2.5 -1.5q-1 -1 -2.5 -2
t-2.5 -2h-1h-1q-1 0 -4.5 0.5t-9 1l-11 1l-11 1t-9 1t-5.5 0.5t-4 0.5t-2 3.5v1q6 0 8.5 2t3.5 4t1 5t1 6t4 5.5t9 4.5v18q0 2 -2.5 2h-3.5q-3 0 -5.5 -0.5t-6.5 -1.5l-1 -3l-0.5 -2.5l-1 -5l-1 -5l-0.5 -2.5l-1.5 -1.5l-0.5 -0.5h-1q-2 0 -2 1.5v3.5q0 4 1 7.5t2 9.5
q1 4 5 5t8 1.5t7.5 0t3.5 1.5v11q0 1 -2.5 2t-5 1.5l-5 1t-3.5 1.5q-6 7 -9 16t-3.5 19t-0.5 20v18h6v-32h4l1 1t2 2.5t2.5 2.5t2.5 2q2 3 3.5 5.5t3 4t3.5 2t6 0.5q0 -6 -4 -10t-8.5 -8t-8 -8t-3.5 -10q0 -3 0.5 -5t4.5 -2v0h1q3 2 6 5t6.5 5.5t7.5 4.5t8 2q0 -5 -4.5 -8
l-9 -6t-8.5 -6t-4 -7q0 -5 3 -5.5t7 -0.5q10 0 15 3t7 8.5t2.5 12.5t0.5 16q0 10 -3.5 15.5t-8.5 9.5t-11 7.5t-11 9.5q-2 5 -3.5 10.5t-3 11.5t-2 12t-0.5 11zM171 180q1 5 3.5 9t5.5 8t6.5 7.5t6.5 7.5q3 3 5 9t3 12.5t2.5 11.5t3.5 6q3 -2 4 -4.5t1 -5.5q0 -4 -1 -9
t-2.5 -10t-4 -9.5t-5.5 -7.5q-3 -4 -7.5 -7.5t-8 -7.5t-5.5 -8t-2 -11q0 -2 1.5 -3t3.5 -1q4 0 7.5 1.5t7.5 3.5t8.5 4t9.5 2v-3t-2 -3q-1 0 -3.5 -1t-5.5 -2l-6 -2t-4 -1q-2 -1 -5 -2t-5 -2.5l-4 -3t-2 -5.5q0 -1 0.5 -2.5t3.5 -2.5h2h3q3 0 6.5 1t6.5 2t6.5 2t6.5 1v-4
t-1 -3q-2 0 -7 -1t-10.5 -2.5t-10 -2.5t-4.5 -2v-11q0 -2 1.5 -2h2.5q4 0 8 1t8 2.5t8 2.5t8 1q0 -4 -2.5 -6t-6.5 -3t-8.5 -1.5t-8 -1t-6.5 -2.5t-3 -6q0 -5 2.5 -7.5t6 -3.5t7.5 -1t8 -1t6 -4.5t2 -10.5v-3v-5.5t-1 -4.5t-4 -2h-20l-3 -5v-18l3 -3q1 -1 5 -1h8t7.5 -0.5
t3.5 -3.5v-1l-1.5 -1.5l-0.5 -0.5h-24v-20q0 -1 -1 -2t-2 -1v0h-1q-1 0 -2 0.5l-1 0.5v49q0 6 2 8.5t5.5 3t7.5 0.5t8 1q2 1 3 3.5t1 4.5q0 6 -3.5 8.5t-8 3t-9 1.5t-6.5 6q-3 4 -4.5 11.5t-2 16t-0.5 16.5v14v4v5v6v4zM113 246q1 0 1 2q0 1 -1 1t-1 -1q0 -2 1 -2zM42 173
q0 3 2 3q1 0 3.5 0.5t3.5 0.5q4 0 10.5 -0.5t13.5 -1.5t12.5 -2t5.5 -3q0 -1 -0.5 -1h-0.5q0 -1 -0.5 -2l-0.5 -1h-17v-57q0 -2 2 -2.5t4 -0.5h5t3 -2q0 -1 0.5 -3.5l0.5 -2.5h-14l-1 -2l-0.5 -3.5t-0.5 -8t-0.5 -9t-0.5 -7.5v-2v-4.5v-4.5v-3v-6v-4l3 -3l14 -3
q1 0 1.5 -0.5t0.5 -1.5v-1q0 -2 -2 -2h-3h-5q-3 0 -9 0.5t-11.5 0.5t-9.5 0.5l-4 0.5l-3 3l3 3h17v58q0 1 -1 1.5t-2 0.5h-3t-4 0.5t-4 0.5t-3 1q-2 0 -2 2v3h18l1 2l0.5 6t0.5 13.5t0.5 16t0.5 13.5v2v2v2.5t-2 2.5h-19q-2 0 -2.5 2t-0.5 3zM121 53v-4.5t3 -2.5q1 0 3 -0.5
t4 -0.5t4 -0.5t3 -0.5h3q3 0 4 3t1 6t-1.5 5.5t-4 4t-5.5 2t-6 0.5q-5 0 -6.5 -3.5t-1.5 -8.5zM110 23v1l1 1h8h12.5t12.5 -1q1 0 3 -0.5t3.5 -1t2.5 -1t1 -1.5v-3h-4.5h-5.5q-1 1 -6 1t-10 0.5l-10 1t-7 0.5q0 1 -0.5 1.5l-0.5 0.5v1z" />
</svg>
