<?xml version="1.0" standalone="no"?>
<!DOCTYPE svg PUBLIC "-//W3C//DTD SVG 1.1//EN" "http://www.w3.org/Graphics/SVG/1.1/DTD/svg11.dtd" >
<svg xmlns="http://www.w3.org/2000/svg" xmlns:xlink="http://www.w3.org/1999/xlink" version="1.1" viewBox="-10 0 266 256">
   <path fill="currentColor"
d="M111 247q-1 3 1 3.5t3 0.5h2.5t2.5 -2v-5v-5v-13t-0.5 -16t-2.5 -16t-5 -12q-3 -6 -10 -8t-13 -3.5t-11 -4t-5 -7.5q0 -1 0.5 -3t1.5 -4t2 -3t2 -1l39 -6q4 0 5.5 -2t2 -5t0.5 -6v-6v-10q-4 -6 -8 -8t-11 -2q-6 0 -11 0.5l-10 1t-10.5 0.5h-13.5q-2 -1 -2.5 0.5t-0.5 3.5
q0 1 0.5 3.5t2.5 2.5h20l0.5 0.5l0.5 0.5q3 3 2.5 5t-0.5 7v8q-3 2 -5.5 3t-5.5 1.5t-5 1t-4 2.5t-3 5.5t-1 10.5q0 8 1 11t3.5 4.5t6 1.5t8.5 2q1 0 3 1.5l2 1.5h2.5t3 0.5t3 0.5h1.5q2 1 4 1.5t3 0.5q3 4 5 12t2.5 17.5t0.5 18.5t1 14zM182 242q1 1 1.5 2.5l1 3t1 2.5
t2.5 1q7 0 7 -8v-2q-5 -15 -8.5 -30.5t-3.5 -31.5q0 -14 4 -27.5t10 -25.5q3 -8 6.5 -15.5t3.5 -16.5v-6q-3 -3 -8 -6.5t-9.5 -6.5t-8 -5.5t-3.5 -5.5q0 -5 2.5 -9t2.5 -8q0 -2 -1 -5.5t-3 -3.5l-37 -8l-2 -0.5l-2 -0.5q-3 0 -5.5 1t-2.5 4t3 5q1 0 4 0.5l6 1l6 1t4 1.5
q1 0 4 0.5t6 1.5t5 2.5t2 3.5q0 6 -3.5 12.5t-6.5 11.5q-3 7 -6.5 14t-6.5 14t-4.5 14.5t-1.5 15.5t3.5 13t8.5 8.5t10.5 7t9.5 8.5q-1 19 1.5 37t7.5 35zM150 129v-4.5t1 -4.5l2 -4t4 -2l1 0.5l1 0.5l21 11q3 2 3 3.5v4.5v1.5v1.5l-9 20q-1 2 -5 -0.5t-8 -7.5t-7.5 -10.5
t-3.5 -9.5zM95 125q0 -1 0.5 -3l1 -4t1.5 -3.5t2 -1.5h14l0.5 1.5t0.5 3v2.5v2q0 7 -4 9.5t-10 2.5h-4q-1 -2 -1.5 -4t-0.5 -5zM160 99q0 -3 2 -4t3 -3l1.5 -6t1 -3.5t1.5 -2t5 -0.5q3 0 7 1.5t7.5 3.5t6 5.5t2.5 7.5q0 2 -0.5 5.5t-1.5 7t-3 5.5t-4 2t-6.5 -2t-9 -4.5
t-8.5 -6t-4 -6.5zM50 90q0 3 1 4t3 1q3 0 5.5 -3t4.5 -7l3.5 -7t2.5 -3l6 3q1 0 4.5 0.5t5.5 0.5h3.5h4.5t4 -0.5l2 -0.5h2.5t3 -1t2.5 -2t1 -2v0v-1l-1 -1.5t-2 -1.5t-4.5 -0.5t-7.5 -1t-7.5 -0.5h-4.5h-2.5h-3.5q0 -2 2 -8t5 -12l5.5 -11t4.5 -5h1l33 59l2.5 2.5t3.5 1.5
v-1q1 0 2 -0.5l1 -0.5v-2.5v-1.5q0 -5 -1.5 -8.5t-4.5 -6.5t-5 -6.5t-2 -7.5q-1 -1 -3 -4.5t-4.5 -7l-5 -7t-2.5 -4.5q-2 -3 -3 -7t-2.5 -8t-3.5 -7t-6 -3q-2 0 -4 4l-4.5 9t-4.5 10t-4 7q-1 2 -4.5 8t-7 12.5t-6.5 12.5l-4 8q-1 1 -2.5 4t-1.5 4z" />
</svg>
