<?xml version="1.0" standalone="no"?>
<!DOCTYPE svg PUBLIC "-//W3C//DTD SVG 1.1//EN" "http://www.w3.org/Graphics/SVG/1.1/DTD/svg11.dtd" >
<svg xmlns="http://www.w3.org/2000/svg" xmlns:xlink="http://www.w3.org/1999/xlink" version="1.1" viewBox="-10 0 266 256">
   <path fill="currentColor"
d="M171 206q0 5 3 8.5t5 7.5t3.5 9t4 9.5t6 7.5t8.5 3q3 0 5.5 -0.5t2.5 -3.5q0 -4 -4.5 -9.5t-10 -12t-10 -13.5t-4.5 -15q0 -5 2.5 -9.5t5.5 -8.5t7 -8l7 -7q2 -3 2 -5v-5q0 -6 -2.5 -10t-6.5 -6.5l-8 -5t-7 -7.5q0 -1 -1 -4t-1.5 -6.5t-1 -6t-0.5 -4.5l-0.5 -0.5
t-0.5 -1.5q0 -5 3 -7t7 -3.5t7 -3.5t3 -7q0 -2 -0.5 -3t-3.5 -1h-2.5t-1.5 1q-2 1 -5.5 3.5t-8.5 5.5t-11 6.5t-11 7t-8.5 5.5t-5.5 3q-3 2 -5 3t-2 5t3 4q2 0 3.5 -1t3.5 -1t3.5 1t1.5 3q0 8 -1 15.5t-3 14.5t-5.5 13t-10.5 11v8q7 0 11.5 -5t7 -12t4.5 -14.5t5 -12.5v-30
l0.5 -1.5t1.5 -2.5l0.5 -0.5l0.5 -0.5q2 -1 5 -3t4 -2v0q2 0 2.5 2t1.5 3v4t0.5 6.5t1 6.5t0.5 4q0 4 2 7t5 4.5t6.5 3t6.5 2.5q2 3 3 5.5t1 5.5q0 2 -0.5 4t-1.5 3l-19 20l-0.5 1.5t-1 3.5l-1 4t-0.5 4v0v1q0 1 0.5 3l0.5 2q0 1 -0.5 3zM93 237q1 1 1.5 3.5t1.5 4t2.5 2.5
t3.5 1t4 -1t2 -3l-0.5 -0.5l-0.5 -0.5l-0.5 -1t-1 -2.5t-0.5 -2.5t-0.5 -1.5t-1 -2l-0.5 -1.5q-3 -11 -4 -20.5t-1 -20.5v-17t3 -16q2 -6 5 -10.5l6 -9t5 -9.5t2 -12q0 -4 -3.5 -6.5t-7.5 -5t-8.5 -4.5t-6.5 -5q0 -1 1 -2.5t2.5 -4t2 -4t1.5 -2.5v-1v0q-1 -2 -3.5 -3
t-3.5 -1h-1q-3 0 -8 0.5t-11 0.5t-11.5 0.5t-7.5 0.5q-3 1 -3.5 2t-0.5 3q0 1 0.5 2l1.5 3h5q6 0 12.5 -1t12.5 -1q3 0 3 4q0 2 -2 5.5t-4.5 8t-5.5 8t-4 3.5l-14 27v2v2l1 1.5t1.5 3t1.5 3t1 2.5q3 6 7 8.5t8 3.5t8 1.5t6 3.5q-1 9 -0.5 16t1.5 14.5t1.5 15t1.5 16.5z
M66 148q0 -4 2.5 -7.5t6.5 -3.5q2 0 6 0.5t8 2t6.5 4t2.5 5.5q0 5 -3.5 9.5t-9.5 4.5q-2 0 -5.5 -1.5t-6.5 -3t-5 -4.5t-2 -6zM77 122q0 -2 1 -4.5t3 -4.5t4 -3t4 -1q1 0 4 0.5t6 1.5t5.5 2.5t2.5 3.5v12q-1 0 -1.5 1t-0.5 2.5t-0.5 2t-3.5 0.5q-2 0 -6 -1t-8 -2.5t-7 -4
t-3 -5.5zM133 80q0 2 0.5 2.5t2.5 0.5l2 -0.5t3 -0.5q1 -1 3.5 -3t5.5 -4l6 -4t4 -2q2 -2 8 -4.5t11.5 -5.5t9.5 -6t4 -7q0 -2 -1 -2.5t-3 -0.5t-7 2t-11 5.5t-13 8t-12.5 8.5t-9 7.5t-3.5 5.5zM49 55q0 2 1 3t2.5 1h3h2.5q14 0 28.5 -2t27.5 -3q2 -1 2.5 -2t0.5 -3v-2
t-2 -1h-8q-12 0 -25 1t-25 2q-4 1 -6 2t-2 4zM134 45q0 2 1.5 2.5t2.5 0.5h1.5h1.5q1 -1 3 -2t4 -2.5t4 -2.5t3 -1q3 -2 7.5 -4.5l9 -5t8.5 -5t7 -5.5l0.5 -2t0.5 -3v-1v0l-0.5 -1l-0.5 -1h-1q-6 0 -11 3.5t-9 6.5q-1 1 -5.5 3.5t-9 6t-9 6.5t-5.5 3q0 1 -1 2t-2 1v1zM49 25
q0 7 6 7t11.5 -1.5t11.5 -1.5q2 -1 7.5 -1t12 -0.5t12.5 -0.5h9q3 -2 3 -5t-3 -4t-6 -1q-14 0 -30.5 1.5t-30.5 1.5q-3 0 -3 2v3z" />
</svg>
