<?xml version="1.0" standalone="no"?>
<!DOCTYPE svg PUBLIC "-//W3C//DTD SVG 1.1//EN" "http://www.w3.org/Graphics/SVG/1.1/DTD/svg11.dtd" >
<svg xmlns="http://www.w3.org/2000/svg" xmlns:xlink="http://www.w3.org/1999/xlink" version="1.1" viewBox="-10 0 266 256">
   <path fill="currentColor"
d="M196 47q0 4 -3 7t-6.5 6t-8.5 6.5t-9 7.5t-6.5 10t-2.5 15v145q0 2 1.5 4.5t4.5 2.5t4.5 -4t1.5 -7q0 -4 -0.5 -6t-2.5 -7v-119l2 -23q0 -1 1.5 -2.5t3 -3.5t3.5 -4t4 -3q4 -4 8 -5.5t7.5 -3.5t6 -5.5t2.5 -11.5q0 -3 -1 -7t-2.5 -7t-4.5 -5.5t-7 -2.5l-32 -4
q-5 -2 -11.5 -4.5t-12.5 -2.5q-4 0 -4 5q0 3 2.5 5t6 2.5l7 1t4.5 0.5q2 2 2.5 3t0.5 3q0 4 -2.5 9t-5.5 9t-7 8l-6 6v4q6 0 11.5 -6t9.5 -13t6.5 -13t3.5 -6h21q3 0 5 1.5t3 4t1.5 5.5t0.5 5zM126 226l-0.5 2t0 3.5l1 3t1.5 1.5q3 0 5 -7.5t4 -19.5t3 -26.5t2 -28
t1.5 -24.5t0.5 -16v-17q-1 -1 -1 -2.5t-1 -3.5t-2 -3.5t-2 -1.5h-1q0 1 -1 1.5l-1 0.5l-3 77q0 8 -1 15.5t-2.5 15t-2 15t-0.5 15.5zM187 160q1 3 2 10t1.5 15.5t1.5 17t2 16t3 12t4 4.5h1v0l3 -3t2 -3v0q0 -5 -1.5 -9.5t-1.5 -9.5q-2 -14 -4 -29.5t-3 -29.5v-13t-0.5 -19.5
t-0.5 -19.5v-13h-2h-2h-2.5t-2.5 2v72zM49 90q0 15 1 23.5t5 13.5t11.5 6.5t21.5 1.5h3t5 -0.5t5 -0.5h3q7 -2 10 -4.5t4.5 -6t1.5 -8.5t1 -13v-6.5t0.5 -11.5t0.5 -12v-9v-6v-5t-0.5 -7.5t-1.5 -7t-2 -4.5l-14 -7l-1.5 -0.5t-3 -0.5h-4.5h-3h-10q-6 0 -11 1t-9.5 4t-7.5 8
q-2 13 -3.5 25.5t-1.5 26.5zM57 90q0 -1 0.5 -2.5t1.5 -1.5h21v38q0 2 -1 3t-2 1q-6 0 -10 -4t-6 -10t-3 -12.5t-1 -11.5zM90 86h22v14t-1.5 12.5t-5.5 9.5t-12 4q-1 0 -2 -0.5t-1 -1.5v-38zM59 72l3 -30q0 -2 2 -3l4 -2t4 -1.5t3 -1.5h1q2 0 3.5 1.5l2.5 2.5v1v1
q0 4 -0.5 9.5t-0.5 11t-0.5 9.5l-0.5 4l-1 3h-17q-1 0 -1 -1q-1 -1 -1.5 -2.5zM90 70q0 -8 1 -16.5t1 -17.5q7 0 11.5 2t6.5 5.5t2.5 9.5t0.5 13v5v3q0 1 -1 2l-1 1h-16q-1 0 -2.5 -2t-2.5 -3v-2z" />
</svg>
