<?xml version="1.0" standalone="no"?>
<!DOCTYPE svg PUBLIC "-//W3C//DTD SVG 1.1//EN" "http://www.w3.org/Graphics/SVG/1.1/DTD/svg11.dtd" >
<svg xmlns="http://www.w3.org/2000/svg" xmlns:xlink="http://www.w3.org/1999/xlink" version="1.1" viewBox="-10 0 266 256">
   <path fill="currentColor"
d="M167 200q0 15 8 27t18 22h2q5 0 5 -6q0 -4 -3.5 -9.5t-8.5 -12t-9 -13t-4 -13.5v-1l0.5 -1t1.5 -2t3 -5.5t4.5 -8.5t5 -8.5t3.5 -5.5v-3v-3q0 -8 -3.5 -12t-7 -6l-7 -4t-3.5 -7q0 -3 2 -5.5t4.5 -4l5 -3t4.5 -2.5h1h1q4 0 6.5 2t6.5 2q2 0 3.5 -1.5t1.5 -4.5l-6 -6
t-4.5 -6.5t-2.5 -8t-1 -10.5q0 -3 2.5 -4t5 -1t5 -1t2.5 -4q0 -1 -0.5 -2.5t-1.5 -1.5h-33l-2 -1v-2v-3v-4v-3l1 -1.5l1 -1.5l23 -7q2 0 3 -2t2 -5t1.5 -5.5t0.5 -3.5q0 -4 -1.5 -8t-5.5 -4h-2.5t-1.5 2q0 6 -1 10t-3 6.5t-6 3.5t-9 1v-23q0 -3 -1.5 -3.5t-3.5 -0.5
q-1 0 -4 1t-3 3v23h-3h-4h-4h-2t-3 -0.5t-2 -1.5q-1 -1 -1.5 -4.5t-0.5 -6.5t-1 -5.5t-4 -2.5t-4 2t-1.5 5t-0.5 6v4q0 6 5 8.5t11 3t11 1.5t5 5v18l-1 1.5t-3 1.5l-2 1t-4.5 2t-4.5 1.5t-3 0.5q-3 1 -4.5 4t-3.5 6v22q-6 1 -10 3t-4 9q4 0 6.5 -2t6.5 -2q1 0 2.5 1.5t2 4
t0.5 5v4.5q0 3 -1 5.5t-2.5 4.5t-3.5 4t-3 4q-3 8 -5.5 17t-4 18.5t-2 19.5t-0.5 18v12q1 3 2.5 4t4.5 1h2t2 -2q-1 -23 1 -44.5t8 -43.5l1.5 -1.5t1.5 -0.5t1.5 0.5l0.5 0.5q1 1 2 4.5t2.5 7t3.5 6.5t4 3h1l1 -0.5l1 -0.5q1 -1 1 -3v-2q0 -4 -1.5 -7.5t-3 -6.5t-2.5 -6.5
t-1 -7.5q0 -1 1 -2.5t2.5 -2.5l3 -2t3.5 -1v0q1 0 1 1l1.5 3l1.5 3q2 3 5 5t5.5 4t5 4.5t2.5 6.5q0 6 -3 11t-5.5 10t-5.5 10.5t-3 12.5zM53 131q1 4 2 7.5t3 6.5t5 4.5t7 1.5h30q6 0 9.5 -4.5t5 -11t2 -13.5t0.5 -11q0 -1 0.5 -5.5t0.5 -9.5t0.5 -9t0.5 -5v-3v-3
q0 -8 -3.5 -15t-11.5 -9h-14q-16 0 -23.5 2.5t-11 8.5t-3.5 16v27v5q0 3 0.5 7t0.5 8v5zM61 115v-7q0 -2 2.5 -3t5.5 -1.5l6 -1t4 -0.5v34q0 3 -2.5 5t-4.5 2q-4 0 -6.5 -3.5t-3.5 -8t-1 -9v-7.5zM90 140v-3.5v-4.5t-0.5 -4.5l-0.5 -2.5v-1v-1q0 -3 0.5 -7.5t0.5 -7.5v-3
l2 -2h2h3q8 0 10 3t2 12q0 2 -0.5 6.5t-2.5 8t-4.5 6t-6.5 2.5h-2t-3 -1zM146 117q0 -3 1.5 -6t3 -5.5l3 -5t1.5 -5.5q-2 0 -4 0.5t-4 0.5q-3 0 -3 -3t1.5 -5t3.5 -3.5t4.5 -2t4.5 -0.5h2t1 1q0 2 0.5 6.5t0.5 9.5t0.5 9.5t0.5 6.5v2q0 2 -0.5 2.5t-3.5 1.5q-1 2 -4.5 4
t-4.5 1l-3 -3q0 -1 -0.5 -3t-0.5 -3zM169 108v-2.5v-3.5v-3.5v-2.5v-7.5t1 -6.5t3.5 -4t7.5 -1q3 0 4 1t1.5 3.5t0.5 4.5v5q0 1 -0.5 2t-1.5 2q-3 -4 -6 -4q-4 0 -4 4v1l3 3l2 2v0.5v0.5q0 3 -2 6t-5 3h-1l-1.5 -1t-1.5 -2zM60 88q0 -4 0.5 -8.5t2 -9t4.5 -7t8 -3.5
q3 -1 4 2t1.5 6.5t0.5 7v4.5v10q-2 4 -6 4.5t-8 0.5h-3h-2l-1 -2l-0.5 -2t-0.5 -3zM90 84v-6t0.5 -6.5t1 -6.5t2.5 -5h4q4 0 6 2t3.5 5t1.5 6.5v7.5l0.5 2t0 4l-1 4t-2.5 2h-14l-2 -2v-7z" />
</svg>
