<?xml version="1.0" standalone="no"?>
<!DOCTYPE svg PUBLIC "-//W3C//DTD SVG 1.1//EN" "http://www.w3.org/Graphics/SVG/1.1/DTD/svg11.dtd" >
<svg xmlns="http://www.w3.org/2000/svg" xmlns:xlink="http://www.w3.org/1999/xlink" version="1.1" viewBox="-10 0 266 256">
   <path fill="currentColor"
d="M161 219q0 3 1 8t2.5 10t4.5 8.5t7 3.5q2 0 4.5 -0.5t2.5 -3.5q0 -4 -2 -7.5t-4.5 -7.5t-4.5 -7.5t-2 -7.5q0 -7 4.5 -11.5t9.5 -8.5t9.5 -8.5t4.5 -10.5v-2q0 -2 0.5 -4t0.5 -4v-3v-3t-0.5 -4t-0.5 -4v-2q0 -6 -6 -10.5t-13 -8.5t-12.5 -6.5t-5.5 -3.5v-17
q0 -1 -2.5 -2.5t-3.5 -2.5h-1h-1q0 1 -0.5 2l-0.5 1v19l-2 3l-3 1.5t-7.5 4t-9.5 4.5t-8 4l-3.5 1.5t-7.5 3t-7.5 2.5t-4.5 2q-1 0 -3 1t-2 3q0 1 1.5 2t3.5 1q5 0 9 -3t8 -4q3 -2 9 -4.5l12 -5t12 -4.5t10 -2q7 0 13 3t10 7.5t6.5 10.5t2.5 13q0 5 -3 11t-7.5 11.5t-9.5 10
t-8 7.5q-1 4 -1.5 7t-0.5 7zM107 215q0 2 1 3t3 1t3.5 -0.5t3.5 -1.5q8 -5 16 -11t15 -12t14 -12.5t15 -11.5l2.5 -2.5t1.5 -2.5q-1 0 -2 -1.5t-2 -1.5h-1v0q-2 0 -3.5 1t-3.5 1.5t-3 1l-1 0.5l-25 25q-2 1 -7.5 4t-11.5 7t-10.5 8t-4.5 5zM105 191q0 3 4 3q2 0 7.5 -2.5
t12 -6.5t13 -9t12.5 -9.5t9.5 -7.5t3.5 -5q0 -1 -1.5 -3t-2.5 -1q-1 0 -2.5 1t-2.5 2q-6 5 -12 9.5t-12.5 9t-13 8.5t-13.5 8q-2 1 -2 1.5v1.5zM155 138q-2 2 -7 5t-11 6t-13 7t-12.5 7.5t-8.5 6.5t-3 4q7 0 14 -2.5t13.5 -6.5t12.5 -8.5t12 -8.5q4 0 6 -1t2 -5q0 -5 -4 -5z
M149 75q0 5 -2 8t-5 5t-6.5 4.5t-5.5 5.5q-2 2 -3 6t-1.5 7.5t-0.5 7.5v7q4 0 6 -3t3.5 -6.5t2 -7t1.5 -5.5q1 -4 4 -7t6 -6.5t5.5 -7.5t4.5 -10v-3v-5.5v-5.5v-3v-5v-6v-5v-2q0 -3 -0.5 -7t-1.5 -8t-3 -7t-6 -3q-2 0 -7 1t-10 3t-8.5 3.5t-3.5 3.5q0 3 1.5 3h4.5
q5 0 9 -1.5t10 -1.5q2 0 4.5 1t2.5 5v0q-3 1 -8.5 2.5t-11 3.5t-9.5 5t-4 7q9 0 15.5 -3.5t14.5 -8.5h1q2 0 2.5 2.5t0.5 3.5q0 2 -4.5 4t-10 4.5l-11 5t-7.5 5.5q0 1 1 1.5t2 0.5q3 0 6.5 -2t6.5 -3.5t6.5 -3t6.5 -1.5t4 0.5t1 3.5q0 4 -5.5 7t-11.5 5.5t-11.5 5.5t-5.5 8
q4 0 8 -2t7.5 -4.5t7 -4.5t5.5 -2q3 0 3 2v3zM179 107q0 2 0.5 5t1.5 6t3 5t5 2q2 0 3.5 -1.5t1.5 -3.5q0 -5 -2.5 -8.5t-3.5 -7.5q-1 -2 0 -4t2 -4.5t3 -4t4 -1.5q6 -9 7 -19.5t1 -20.5v-1q0 -2 -0.5 -6.5t-1.5 -9t-1.5 -9t-0.5 -6.5q-1 -4 -3.5 -5t-7.5 -1q-1 0 -5 1
t-8.5 3t-8.5 4t-5 4q0 2 1.5 2h2.5q5 0 10 -1t10 -1h5l2 2q-1 1 -5 3t-9 3.5t-10 4t-7 6.5q0 1 1.5 1h2.5q2 0 5 -1t5.5 -2.5t5.5 -3t6 -1.5q6 0 6 7q0 2 -4.5 3t-10 3t-10 5t-4.5 8q3 0 7 -1.5t7 -3t5.5 -3t4.5 -1.5q3 0 4 0.5t1 2.5q0 4 -4 7t-10 6t-11 6t-7 6l1 1.5
t2 1.5h1q2 0 5 -1.5t6.5 -3.5t6.5 -3.5t6 -1.5q0 6 -1.5 9.5t-4 6t-4.5 6t-2 11.5zM49 87q0 10 6.5 15.5t16.5 5.5h9.5t10 -1t8.5 -3.5t5 -7.5q2 -6 3.5 -11.5t1.5 -11.5v-11t-1 -14t-4 -13t-9 -6h-3h-3h-4h-3h-12.5t-13.5 3q-2 2 -3.5 5t-2.5 6q0 11 -1 22t-1 22zM59 79
q0 -3 1.5 -6t5.5 -3h3.5t3.5 2q1 5 1 8.5v8.5q0 4 -1 6.5t-6 2.5q-2 0 -4 -2.5t-3 -5.5t-1 -6.5v-4.5zM92 68q5 0 7 1.5t2 5.5q0 3 -0.5 7t-2 7.5t-4 6t-6.5 2.5h-2.5t-2.5 -2v-23q0 -2 1.5 -3t2.5 -1.5t3 -0.5h2zM60 55v-5.5t1 -5t3 -3.5t5 -1h3t2 3v16q0 1 -1 1.5
t-2.5 0.5h-2.5h-1q-7 0 -7 -6zM83 49q0 -6 2 -8.5t8 -2.5q5 0 6.5 4t1.5 8v2q0 1 -0.5 3t-0.5 3t-1 1h-12q-1 0 -1.5 -1.5l-1 -3t-1 -3.5z" />
</svg>
