<?xml version="1.0" standalone="no"?>
<!DOCTYPE svg PUBLIC "-//W3C//DTD SVG 1.1//EN" "http://www.w3.org/Graphics/SVG/1.1/DTD/svg11.dtd" >
<svg xmlns="http://www.w3.org/2000/svg" xmlns:xlink="http://www.w3.org/1999/xlink" version="1.1" viewBox="-10 0 266 256">
   <path fill="currentColor"
d="M66 241v2.5t0.5 3t2 3t2.5 1.5q2 0 3 -2t1 -4q0 -5 -1 -11t-1 -11v-11.5t1 -13t2.5 -12.5t4.5 -10q3 -5 7.5 -9.5t9 -9.5t7.5 -10.5t3 -11.5v-1q0 -1 -0.5 -3t-0.5 -4t-0.5 -4t-0.5 -3q-3 -4 -6.5 -6t-8 -3t-8.5 -1.5t-7.5 -2t-5.5 -5t-2 -9.5t2 -9.5t5.5 -5t7.5 -2
t7.5 -1t6.5 -2t5 -5.5q2 -5 3 -11.5l2 -13t1 -13.5v-12q0 -2 -0.5 -4.5t-3.5 -2.5h-1l-0.5 0.5t-0.5 1.5l-0.5 2.5t-0.5 4.5t-0.5 4t-0.5 3t-0.5 2t-1.5 1h-10t-13.5 0.5t-11.5 3t-5 8.5q8 0 14 -1t13 -1h10q3 1 3.5 2t0.5 2q0 10 -2 14.5t-5.5 6.5t-7 2t-7.5 0.5t-7.5 2.5
t-5.5 7q-1 0 -2 2.5l-2 5t-1.5 5.5t-0.5 4q0 10 3 14.5t7.5 7t10 3t10.5 1.5t8 3.5t3 8.5q0 3 -0.5 6.5t-2.5 7t-4.5 5.5t-5.5 2h-3t-1 -2h-13l-0.5 -1.5t-0.5 -2.5l-0.5 -0.5t-0.5 -1.5q0 -2 2 -2.5t4 -0.5t4 -0.5t2 -4.5q0 -2 -0.5 -2t-2.5 -1q-5 -2 -6.5 -4.5t-1.5 -4.5
t-0.5 -3.5t-2.5 -1.5t-2 2t-0.5 4.5t-3 5t-9.5 2.5v1v1q0 5 3 5t7 -1q0 1 0.5 3l0.5 2v1v1q0 1 -1.5 2l-1.5 1h-12q-1 0 -1.5 0.5t-0.5 1.5v0v1q0 1 0.5 2.5t1.5 1.5h33q0 3 -1 5t-2 4.5t-2.5 4.5t-2.5 5q-4 12 -5.5 24t-1.5 24v4q0 2 0.5 4.5t0.5 5.5v3zM100 214q0 5 4 5
q10 0 20.5 -0.5t21.5 -1.5t21 -2.5t19 -2.5q3 0 6.5 -0.5l7 -1t6 -1l2.5 -0.5l3 -3q-1 -3 -2 -3h-3q-22 0 -44 2.5t-43 3.5h-4t-6.5 0.5t-6 1.5t-2.5 3zM120 166q0 9 2.5 16.5t12.5 10.5h19h17t14 -3t9.5 -9t3.5 -17v-9q0 -5 -1 -8.5t-3.5 -6t-7.5 -4.5h-10h-10
q-1 0 -5.5 0.5t-9.5 1t-9.5 1t-6.5 0.5q-6 1 -8.5 3.5t-4 6t-2 8t-0.5 9.5zM127 172q0 -3 2 -4.5t5 -1.5h6h4h8q1 3 1.5 5.5t0.5 6.5v5q0 2 -2 4h-5q-3 0 -6.5 -1t-6.5 -2.5t-5 -4.5t-2 -7zM161 166l2 -2h2t4.5 -0.5t5.5 -0.5h5h5q3 0 4.5 1t1.5 4q0 6 -2 9t-6 5t-8 2.5
t-9 0.5h-2.5t-2.5 -1v-18zM127 155q0 -4 2.5 -6.5t6 -4t7.5 -2t7 -0.5h2t2 2v14l-2 2h-3h-5h-3h-6t-5.5 -1t-2.5 -4zM161 153q0 -4 1.5 -6.5t3.5 -3.5t5 -1h7q6 0 9 1.5t3 8.5l-0.5 2t-0.5 3l-24 1q-3 0 -3.5 -1.5t-0.5 -3.5zM120 114q-2 -1 -3 2t-1 4q11 0 21.5 -0.5
t21.5 -1.5t21.5 -1.5t21.5 0.5l2 -2l1 -1q1 -3 -0.5 -4t-3.5 -1.5t-4 -0.5h-2q-1 0 -4 0.5l-3 0.5h-8t-11.5 0.5t-14 1t-14.5 1t-12 1t-8 1.5zM120 72q0 8 1.5 13.5t5 8t9 3t13.5 0.5h19t15.5 -3t10.5 -9t4 -18q0 -1 -0.5 -4.5t-0.5 -5.5q-1 -4 -4.5 -6.5t-8.5 -4t-10 -2
t-9 -0.5q-9 0 -17 0.5t-14.5 3t-10 8t-3.5 16.5zM128 81v-2.5t2 -1.5h22q1 0 1.5 1.5t0.5 3.5v2q0 4 -1.5 5.5t-5.5 1.5q-3 0 -6 -0.5t-6 -1.5t-5 -3t-2 -5zM167 73h1q1 0 3.5 0.5t5.5 0.5t5.5 0.5t3.5 0.5q2 0 2 1v2q0 3 -2.5 5.5t-6.5 3.5t-7.5 1.5t-5.5 0.5h-3t-2 -1v-11
q0 -2 2.5 -3l2.5 -1h1zM128 64q0 -4 2.5 -6t6 -3.5t7 -1.5h6.5q4 0 4.5 3t0.5 7q0 2 -1.5 3.5t-3.5 1.5h-18q-3 0 -3.5 -1.5t-0.5 -2.5zM161 61q0 -5 4 -7.5t9 -2.5q8 0 11.5 4t3.5 12h-26q-1 0 -1.5 -2.5t-0.5 -3.5zM122 31q0 2 2.5 2.5t4.5 0.5h4q4 -1 13.5 -1.5t20.5 -1
t20.5 -1.5t12.5 -1q1 -1 1 -1.5v-1.5q0 -3 -2.5 -4t-5.5 -1q-4 0 -8.5 1t-7.5 2h-6h-13.5t-16 1t-13.5 2.5t-6 3.5z" />
</svg>
