<?xml version="1.0" standalone="no"?>
<!DOCTYPE svg PUBLIC "-//W3C//DTD SVG 1.1//EN" "http://www.w3.org/Graphics/SVG/1.1/DTD/svg11.dtd" >
<svg xmlns="http://www.w3.org/2000/svg" xmlns:xlink="http://www.w3.org/1999/xlink" version="1.1" viewBox="-10 0 266 256">
   <path fill="currentColor"
d="M66 176q4 10 10.5 14.5t15 6t18.5 1.5t19 0.5t17 2.5t13 8q2 3 6 10l8 14t8 12.5t6 5.5t5.5 -1t3.5 -4q0 -7 -4 -15t-10 -15.5t-13 -13t-13 -7.5q-3 -1 -7 -1.5l-8 -1t-8 -2.5t-6 -5q0 -7 -1 -12.5t-1 -12.5q0 -3 3 -4t7 -1.5t9 -0.5t9.5 -1t8 -3.5t5.5 -7.5
q1 -5 1.5 -10l1 -10t0.5 -10v-10v-3q0 -4 -2 -7t-7 -3v0q-1 1 -2.5 2t-1.5 2v36q0 4 -3 7t-7 4.5t-8.5 2.5t-7.5 1h-1q0 -1 -1.5 -1.5l-1.5 -0.5q-1 -5 -1 -15v-20t-1 -18.5t-4 -10.5q-5 -1 -11.5 -2t-12 -3.5t-9.5 -6.5t-4 -11t2 -11t5.5 -7t8.5 -4.5t10 -3.5h23q4 0 7 2.5
t4.5 6.5t2.5 8t1 7q0 9 -5 14.5t-13 10.5v0.5v1.5q0 3 2 3h4q6 0 11 -3t8 -7.5t4.5 -10.5t1.5 -11v-5v-5q-3 -4 -6 -8.5t-8 -8t-10 -5.5t-10 -2h-2q0 1 -2 1.5l-2 0.5q-11 1 -19.5 1.5t-15 3.5t-10.5 10.5t-4 20.5q0 1 0.5 4l0.5 3q1 9 5 13t8.5 6t9.5 2.5t9 1.5t6.5 4.5
t2.5 10.5v79q0 2 -1 6t-5 4q-15 0 -23 -7t-9 -22l-5 -63l-0.5 -0.5l-1 -1t-1.5 -1t-2 -0.5l-3 1.5l-3 1.5v6v5q0 4 1 13.5t2 20.5t2 20.5t1 13.5z" />
</svg>
