<?xml version="1.0" standalone="no"?>
<!DOCTYPE svg PUBLIC "-//W3C//DTD SVG 1.1//EN" "http://www.w3.org/Graphics/SVG/1.1/DTD/svg11.dtd" >
<svg xmlns="http://www.w3.org/2000/svg" xmlns:xlink="http://www.w3.org/1999/xlink" version="1.1" viewBox="-10 0 266 256">
   <path fill="currentColor"
d="M70 246q0 3 2 3.5t5 0.5t5 -1.5t3.5 -4t2.5 -5.5t1 -6v-8v-12v-11.5v-7.5q4 -11 4 -23.5t1 -22.5q1 -29 2.5 -57.5t0.5 -57.5q2 -3 2 -6v-6v-7q-2 -3 -3.5 -4t-3.5 -1t-3.5 0.5t-2.5 1.5v3v3q0 6 0.5 11.5t0.5 10.5q0 3 -1 4t-3 1.5t-4 0.5h-5v0q-2 0 -4 -0.5l-2 -0.5
v-16q0 -1 -1 -1.5t-3 -1t-3.5 -1l-1.5 -0.5q-1 0 -2 0.5t-1 1.5q-2 10 -2 19.5v20.5v22q0 1 1 3t3 2q5 0 7 -4.5t2.5 -10.5t0.5 -11.5t2 -7.5q2 0 5.5 -1t5.5 -1h1q1 0 3 0.5t2 1.5v41q-1 2 -1.5 6t-0.5 7q0 4 0.5 7t0.5 5q-2 4 -4.5 6.5t-6.5 2.5q-2 0 -5 -1t-3 -2v-21
q0 -2 -1.5 -3t-3.5 -2t-4 -1.5t-3 -0.5v56l-3 2q0 2 -0.5 6t-1 9t-1 9t-0.5 5q-1 6 -4 10.5t-3 10.5q0 2 1.5 5.5t4.5 3.5t5 -2.5t3 -5.5t1.5 -6t1.5 -5q0 -3 1 -9.5t1.5 -14t1 -14t1.5 -9.5q2 -3 4 -5.5t6 -2.5t7 2t3 6v2q0 1 -0.5 3.5t-1 5.5t-1 5.5l-0.5 2.5
q-2 13 -2.5 26t-2.5 27q-1 5 -3.5 10t-2.5 10zM99 186v2.5t2 1.5h17q22 0 43.5 -0.5t43.5 -2.5l2 -0.5t4.5 -1t4 -1.5t1.5 -3t-1.5 -3t-3 -1.5l-3 -1t-2.5 -0.5h-2q-3 0 -8.5 0.5t-12.5 0.5t-15 0.5t-15 1t-13 1t-8 0.5h-6l-25 1q-2 0 -2.5 2t-0.5 4zM117 136q1 1 2 3t2 3
q0 1 0.5 3t0.5 3q3 3 6.5 5t8 3t9 1.5t7.5 0.5q9 0 15.5 -0.5t11 -3t8 -7t5.5 -13.5l2 -8t1 -8v-6.5t-0.5 -10t-1.5 -11.5t-3 -10.5t-4.5 -7.5t-7.5 -3h-41q-9 0 -13.5 5t-6 12.5t-1.5 15v13.5v21zM127 126q0 -1 0.5 -3t1 -3.5t1.5 -3t3 -1.5q12 -1 24.5 -1.5t25.5 -0.5
q0 10 -1.5 17t-5 10.5t-10 4.5t-16.5 1q-6 0 -10.5 -0.5t-7 -2.5t-4 -6t-1.5 -11zM127 93q0 -5 4 -8t9 -4.5t10.5 -1.5h8.5q5 0 10 1t8.5 3t5.5 6t1 11q0 1 -1 2t-2 1h-50q-1 0 -2 -1t-1.5 -3t-0.5 -3v-3zM106 43q0 3 2.5 3.5t4.5 0.5q25 0 50.5 -1.5t49.5 -1.5q2 -1 2 -2.5
v-2.5q0 -3 -2 -5t-5 -3h-9q-2 0 -10 0.5t-18.5 1t-22 1.5t-21 2t-15.5 3t-6 4z" />
</svg>
