<?xml version="1.0" standalone="no"?>
<!DOCTYPE svg PUBLIC "-//W3C//DTD SVG 1.1//EN" "http://www.w3.org/Graphics/SVG/1.1/DTD/svg11.dtd" >
<svg xmlns="http://www.w3.org/2000/svg" xmlns:xlink="http://www.w3.org/1999/xlink" version="1.1" viewBox="-10 0 266 256">
   <path fill="currentColor"
d="M80 196q0 14 -1 27.5t-1 27.5q5 0 8.5 -1t3.5 -6q0 -4 -0.5 -6t-1.5 -5v-9v-13v-13v-9q0 -21 1 -42l2 -42t2.5 -42t1.5 -43q0 -1 -1.5 -4t-3.5 -3q-1 1 -3 2t-3 1q0 2 0.5 6t0.5 9q0 4 -0.5 8t-0.5 6v3v4.5t-0.5 4l-0.5 1.5l-3 3h-13l-2 -2v-3.5t-0.5 -6t-1 -6t-0.5 -3.5
q0 -2 -2 -4t-4 -1q-1 0 -2 1t-1 2q-2 18 -2 35.5v35.5q4 0 6.5 -4.5t3.5 -8.5v-4v-6v-6v-4l3 -7l13 -3l1.5 0.5t1.5 1.5q1 0 1.5 0.5l0.5 0.5v3v3q0 18 -2 36t-1 36q-1 3 -4 5h-6h-7l-1.5 -1l-1.5 -1v-26q0 -3 -1 -3.5t-3 -0.5q-1 0 -2.5 0.5t-1.5 1.5v7.5t-0.5 11t-0.5 13
t-0.5 13t-0.5 11v7.5v3v4v5v3l-0.5 1.5l-0.5 1.5q-1 1 -1.5 4l-1 6l-1 6t-0.5 4q0 2 1.5 2.5t2.5 0.5q4 0 5.5 -3l2.5 -5v-7.5t0.5 -11t0.5 -11v-7.5v-16q1 -2 2 -3t3 -1.5t4 -0.5h4q3 0 4.5 1t2.5 4q0 1 0.5 5t0.5 8.5t0.5 8.5t0.5 6v1.5v1.5zM124 246q0 2 0.5 3.5t2.5 1.5
q4 0 7 -8.5t5 -21.5t3.5 -28t3 -29.5t3 -26t3.5 -15.5q1 0 3 -0.5t4.5 -0.5t4.5 -0.5t3 -0.5h1q2 0 3.5 10t3 24.5t3 31t3.5 31.5t4 24.5t4 9.5q4 0 5.5 -4t1.5 -7q0 -4 -1 -7.5l-2 -7l-2 -7t-1 -7.5q-1 -2 -1 -7.5t-0.5 -11.5t-0.5 -11.5v-7.5q-3 -5 -4 -10.5t-1 -11v-11.5
v-11v-3.5v-3.5q2 -2 4 -3.5l4 -3t4.5 -3.5t4.5 -5t2.5 -7.5t0.5 -10.5v-9.5v-8.5v-15q-1 -4 -2 -5t-5 -1q-3 0 -5 2t-2 5v6.5t1 5.5l-1.5 1.5l-0.5 0.5q-1 0 -2.5 0.5t-3 0.5t-3.5 0.5l-2 0.5h-5.5t-11 0.5t-13.5 0.5h-12v0h-1l-2.5 -1t-2.5 -2v-16q0 -1 -1.5 -2t-1.5 -2
h-0.5h-0.5h-0.5h-0.5q0 1 -1.5 2t-1.5 2t-0.5 5t-0.5 8.5t-0.5 8.5t-0.5 6v2q0 2 0.5 6t0.5 8.5t0.5 8t1.5 4.5q2 2 5.5 3.5t7 2.5t6.5 2t3 4q0 9 -1.5 17t-3.5 15.5t-3 15.5t-1 18q-3 8 -4 17t-2 19q0 5 -2.5 10t-2.5 10zM127 88v-1q1 0 3 -2l2 -2q2 0 6.5 -0.5t10 -0.5
t10 -0.5t6.5 -0.5h12h11q3 1 3 3v4q0 10 -4 15t-10.5 7t-14.5 2h-16q-4 0 -7.5 -2t-6 -5.5t-4 -7.5t-1.5 -9zM104 33q0 3 3 4t5 1q13 0 25 -1l24 -2t24 -1.5t24 -0.5q4 -2 4 -7q0 -1 -0.5 -1.5l-1.5 -1.5h-7q-12 0 -24 1l-24 2l-24 2t-24 0q-4 2 -4 5z" />
</svg>
