<?xml version="1.0" standalone="no"?>
<!DOCTYPE svg PUBLIC "-//W3C//DTD SVG 1.1//EN" "http://www.w3.org/Graphics/SVG/1.1/DTD/svg11.dtd" >
<svg xmlns="http://www.w3.org/2000/svg" xmlns:xlink="http://www.w3.org/1999/xlink" version="1.1" viewBox="-10 0 266 256">
   <path fill="currentColor"
d="M152 175q1 0 3.5 5.5t6.5 14t8.5 18.5t9 18.5t8.5 14t7 5.5t4 -2.5t1 -4.5q0 -5 -1.5 -8.5t-4 -6.5t-5 -5.5t-4.5 -6.5l-0.5 -1.5t-1 -2.5t-1 -2.5l-0.5 -1.5q-3 -7 -7.5 -12.5t-7.5 -11.5t-5.5 -12.5t-2.5 -15.5v-3v-3q2 -3 5.5 -3.5t6.5 -0.5q6 0 9 1t4.5 3.5t2 6
t0.5 8.5v9l-1 3l-1 3q0 4 0.5 4.5t3.5 0.5t5 -1t3 -3t1 -4.5v-4.5v-9t-1 -11t-3.5 -9t-8.5 -4h-28l-1 -2l-0.5 -2t-0.5 -3v-5t2 -5q8 0 18 -1t18 -2q4 -2 4.5 -6.5t0.5 -7.5v-3t-0.5 -4t-1.5 -3.5t-3 -1.5h-34v-21q1 0 4 -0.5t4 -0.5t3.5 0.5t4.5 1l4 1t3 0.5q3 1 5 2.5
t4 3.5t4 3t5 1q2 0 3.5 -0.5t1.5 -4.5q0 -2 -2.5 -4t-6 -4t-7.5 -3t-5 -2q-2 0 -5 -1t-7 -1.5t-7 -1t-4 -1.5q-3 0 -3 -3q0 -2 0.5 -5t0 -5.5t-3.5 -2.5q-2 0 -3.5 1t-2 3l-1 4t-1.5 3q-1 3 -5 5t-8.5 3.5t-10.5 3t-10.5 3t-7.5 3.5t-3 5t4 3t9 -1.5t10.5 -3.5t10.5 -4t8 -4
h0.5h0.5h0.5h0.5q3 4 3.5 8t0.5 8v3t-1 2l-3 4h-1.5t-3.5 0.5t-4.5 0.5h-3.5t-4.5 0.5t-7.5 0.5t-7.5 0.5t-4.5 0.5q-2 0 -2.5 2t-0.5 3h6h9t9.5 -0.5t5.5 -0.5h1t2.5 -0.5t2 -0.5h1.5h1q2 0 3 2t1 4t-1 4.5t-3 3.5q-8 1 -17.5 1.5t-17.5 2.5q-2 1 -2.5 3t-2.5 3q0 1 -0.5 3
t-0.5 4.5t-0.5 4.5t-0.5 3v0.5v0.5q0 3 1.5 4.5t3.5 2.5t4.5 1h3.5h31q0 1 0.5 2l0.5 1v1q0 8 -4 19t-10 22t-13 21t-11 17q-1 0 -2 1t-2 2.5t-2 2.5l-1 1v2v2q0 2 0.5 4t3.5 2h1q7 -5 13 -13t11 -16.5t9 -17.5t6 -17v-2t0.5 -2.5t0.5 -2.5v-2q1 0 2 -0.5t2 -0.5h1zM78 236
v2.5t3 2.5q1 0 2.5 -0.5t3.5 -1.5t3 -2.5l1 -1.5v-84v-3t0.5 -4.5t0.5 -4.5v-2v-10v-17v-17v-10q0 -4 0.5 -13.5t0.5 -20.5t0.5 -20.5t0.5 -13.5q-1 -1 -2 -1h-2q-2 0 -3.5 0.5t-2.5 2.5v3.5t-0.5 5.5t-0.5 5.5t-1 3.5v1.5t-0.5 3t-0.5 3v1.5v2t0.5 2.5t0.5 2.5v1q0 1 0.5 1
t0.5 1q0 4 -4.5 5.5t-7.5 1.5q-4 0 -4.5 -4t-0.5 -8.5t-1 -8.5t-6 -4h-1l-2 2t-1 2v62q4 0 6.5 -2.5t3.5 -6t1.5 -8t0.5 -8t0.5 -6t1.5 -2.5h13v72l-1 1t-2 1h-7h-7q-2 -2 -2 -7v-8q0 -5 -1 -8t-4 -3q-2 0 -3 1.5t-2 3.5q1 11 0.5 22t-1.5 21.5t-1.5 21.5t-0.5 23v7l1.5 1
l1.5 1q2 0 4 -2l3 -3q0 -1 0.5 -3.5t1 -5.5t1 -5.5t0.5 -3.5v-3v-4v-5v-3q0 -3 0.5 -8l1 -10t1 -8.5l0.5 -3.5l15 -2q1 0 1.5 1.5l0.5 1.5q0 21 -2.5 42t-2.5 42zM112 135v-5.5t3 -4.5q1 0 5 -0.5l8 -1l8 -1t5 -0.5t3.5 -0.5l2.5 -0.5v17q0 1 -3 1.5t-7.5 1t-8 0.5h-4.5h-11
q-2 0 -1.5 -3zM157 109q0 -3 1.5 -5t3.5 -3t4.5 -1.5t5.5 -0.5h2q1 0 2.5 0.5t3.5 0.5t4 0.5t3 0.5q2 0 1.5 2.5t-0.5 3.5q0 4 -2 5.5t-5 2.5t-6 1h-6q-1 0 -4 -0.5t-4 -0.5q-3 0 -3.5 -2t-0.5 -4zM203 27h-2h-1.5t-3.5 0.5t-4 0.5h-2q-2 1 -7.5 1t-12.5 0.5t-15 0.5
t-15.5 0.5t-12.5 1t-7 0.5h-5t-5.5 0.5t-4 2t-1.5 5.5h97q3 0 5 -3t2 -5q0 -1 -1.5 -3t-3.5 -2z" />
</svg>
