<?xml version="1.0" standalone="no"?>
<!DOCTYPE svg PUBLIC "-//W3C//DTD SVG 1.1//EN" "http://www.w3.org/Graphics/SVG/1.1/DTD/svg11.dtd" >
<svg xmlns="http://www.w3.org/2000/svg" xmlns:xlink="http://www.w3.org/1999/xlink" version="1.1" viewBox="-10 0 266 256">
   <path fill="currentColor"
d="M179 246q1 2 2.5 3t2.5 1q4 0 5.5 -3.5t1.5 -6.5q0 -10 -1 -20t-2.5 -20l-3 -20t-1.5 -20q-2 -2 -2 -4.5v-5.5t1.5 -5t3.5 -4.5t3.5 -5t1.5 -5.5q0 -6 -3 -10.5t-9 -9.5v-1q0 -1 2.5 -2t4.5 -2h3.5h5.5h5.5h3.5q3 1 3.5 -0.5t0.5 -3.5q0 -1 -0.5 -2t-1.5 -2h-12
q-8 0 -16 1t-16 1h-5.5h-3.5l-2 -2v-27h35q4 0 6.5 -2.5t4 -6.5t2 -8t0.5 -7q0 -1 -0.5 -3t-2.5 -2t-5 1t-3 2v13q0 1 -1 2t-2.5 1.5l-3 1t-2.5 0.5h-10h-11q-3 -1 -4 -2t-1 -4t1 -5t1 -5q0 -5 -1.5 -8t-6.5 -3v2q0 2 -1 2q0 1 -0.5 3.5t-0.5 3.5q0 3 0.5 8t0 10t-2.5 9
t-8 4q-9 0 -14 -1.5t-7.5 -5t-3.5 -9t-1 -14.5q-1 -1 -2.5 -2t-2.5 -1t-1.5 0.5t-0.5 1.5v4v4q0 11 3 16.5t7.5 8.5t10 4t9.5 1h8t3 1v14l-46 3q-1 0 -3 1.5t-2 2.5v1l1.5 1.5l1.5 1.5q14 -1 26 -2t26 -1h24q1 0 1.5 1.5t0.5 2.5v3v1q0 2 1.5 3l3 2t2.5 2.5t1 5.5
q0 2 -0.5 4t-1.5 4.5t-2.5 4t-3.5 1.5q-1 0 -4.5 -4.5t-9 -9.5t-12 -9t-11.5 -4h-1q-1 1 -2 1.5l-1 0.5q1 3 6.5 5.5l11 5t9.5 6t4 9.5q0 2 -1.5 3t-4 1.5t-4.5 0.5h-3q-8 0 -15 -3t-13 -7t-11.5 -7t-12.5 -3q0 4 6 9t14 9t15.5 6.5t11.5 2.5h4.5h7.5h7.5h4.5q3 5 4.5 10
t2 11t0.5 11v11t1 11t1.5 12.5t1 12.5t-0.5 12zM74 181q0 17 -1 34t-1 34q1 0 3 -0.5t3.5 -1t2.5 -2t1 -2.5v-148q1 0 1.5 -2.5t0.5 -3.5v-1v-1q0 -2 -0.5 -2.5t-1.5 -2.5v-64q0 -1 -1 -2l-2 -2h-1h-1l-1.5 0.5t-1.5 1.5v19q0 18 1 36.5t1 37.5v2v5v5v2q-1 1 -1.5 2t-0.5 2
t-0.5 3.5t-0.5 5.5t-0.5 5.5t-0.5 3.5l-11 2l-3 -4v-2v-4v-4v-3q-1 -1 -2.5 -4t-3.5 -3h-1q-1 1 -2 1.5l-1 0.5v6q0 5 0.5 9.5t0.5 9.5q0 12 -1.5 24.5t-1.5 25.5q0 2 1 2.5t3 0.5q3 0 5 -3.5t2.5 -8.5t0 -11.5t-0.5 -11.5t0.5 -9t1.5 -4l13 -3l2 5v3v7v7v7zM99 179v0.5v0.5
l1.5 1.5l1.5 1.5h12h6.5h10.5h11.5t10.5 -0.5t8.5 -2t3.5 -4.5l-0.5 -1.5t-1.5 -1.5h-36q-6 2 -14 2q-7 0 -13 1q0 1 -0.5 1.5l-0.5 0.5v0.5v0.5zM51 99l2 6l0.5 0.5l0.5 0.5q1 0 2 -0.5t2 -1.5q1 -12 1 -21v-20v-4v-5v-6v-4q0 -5 -3.5 -6t-6.5 -1v10t2 10v42zM94 27
q0 1 1.5 1.5t3.5 0.5h3h2q12 0 24.5 -1t24.5 -2t24.5 -1.5t24.5 -0.5q2 0 2 -1.5v-2.5q0 -3 -3 -4.5t-7 -1.5h-8h-6h-2q-1 0 -2.5 0.5t-3.5 0.5t-3.5 0.5t-2.5 0.5q-4 0 -13.5 0.5t-20 1t-20 1t-13.5 0.5q-2 1 -3.5 3.5t-1.5 4.5z" />
</svg>
