<?xml version="1.0" standalone="no"?>
<!DOCTYPE svg PUBLIC "-//W3C//DTD SVG 1.1//EN" "http://www.w3.org/Graphics/SVG/1.1/DTD/svg11.dtd" >
<svg xmlns="http://www.w3.org/2000/svg" xmlns:xlink="http://www.w3.org/1999/xlink" version="1.1" viewBox="-10 0 266 256">
   <path fill="currentColor"
d="M76 249q0 1 1 1.5t2 0.5q5 0 6.5 -2.5t1.5 -5.5q0 -30 -2.5 -59t-2.5 -58v-7l1 -1t2.5 -2t2.5 -2t2 -1q1 -1 3.5 -4.5t4.5 -6.5t4 -5.5l2 -2.5q2 0 3.5 1.5t2 3.5t2 4t4.5 2q2 0 2.5 -1.5t0.5 -2.5q0 -2 -1.5 -4l-3 -4t-2.5 -4t-1 -4q0 -5 2 -7.5t7 -2.5q3 0 4 2l2 4
t2 3.5t4 1.5q2 0 3 -0.5t1 -2.5q0 -3 -1.5 -5t-3.5 -3.5t-3.5 -3.5t-1.5 -4q0 -4 3 -5t6 -1t5.5 2t4 5.5t2 7.5t0.5 7q0 4 -1.5 7t-4.5 5.5t-6 4.5t-7 5q-4 4 -9.5 11.5t-10.5 16.5t-8.5 18t-3.5 14q0 2 0.5 3t2.5 1q4 0 6.5 -4.5t4 -10.5l3 -12t2.5 -9q3 -4 6 -7.5t6.5 -7
l7 -7l6.5 -6.5h1v0q2 0 3.5 1t3.5 2.5l4 3t6 1.5t8.5 -1t9.5 -1q1 0 2 1.5t1.5 3t1 2.5l0.5 1q0 1 0.5 3.5t0.5 5t0.5 5.5l0.5 3q0 1 0.5 4t1.5 7t1.5 7.5l0.5 3.5q1 2 1 5t0.5 7t0.5 7.5v4.5q0 2 1 2.5t2 0.5q2 0 2.5 -0.5t0.5 -2.5v-13v-19.5t-1 -19.5q-1 -6 -3 -11.5
t-2 -11.5q0 -2 0.5 -4t2 -3t3 -2.5t2.5 -3.5v-9q0 -6 -1.5 -13t-5 -13t-8.5 -10t-12 -4q-2 0 -3.5 0.5t-1.5 2.5q0 3 3.5 6t8.5 7.5t8.5 10t3.5 11.5q0 1 -0.5 3t-1 3.5t-1.5 3t-2 1.5q-2 0 -4.5 -4t-5 -9t-5 -8.5t-5.5 -2.5q-6 3 -6 7l0.5 0.5l0.5 0.5q0 1 2 3t3 2q0 1 2 3
t4 4.5l4 5t2 3.5h1q0 2 -2 3.5t-4.5 2.5t-5.5 1.5t-4 0.5q-4 0 -8 -3t-4 -8q0 -2 1 -4.5t2.5 -5t2.5 -5t1 -4.5v-2q-1 0 -2 -2t-2 -3q-1 -3 -2.5 -6.5t-3.5 -6t-5 -4t-9 -1.5v0v0l-16 7q-1 1 -2.5 3t-3 4.5t-2.5 4.5t-1 3q-2 2 -5.5 7t-6.5 10.5t-6 10l-3 4.5q-3 -1 -3.5 -5
t-0.5 -7q0 -8 1 -16t1 -15q0 -2 0.5 -6t0.5 -7.5t0.5 -6l0.5 -2.5l1 -3q16 -1 31 -2t30.5 -2.5t30.5 -2t31 -0.5q1 0 1 -1.5v-2.5q0 -2 -0.5 -3t-2.5 -2l-2 0.5l-2 0.5q-14 0 -26.5 1.5t-25.5 2.5t-25.5 2t-25.5 1h-3h-4h-4h-3q-1 -2 -1.5 -5t-0.5 -6t-1.5 -5t-5.5 -2
q-2 0 -3.5 1t0.5 4v22.5t-2 21.5h-9q-2 0 -2 -4v-9t-1.5 -9.5t-5.5 -4.5q-6 0 -6 6q0 9 0.5 17t0.5 16t0.5 16t0.5 17q0 1 2 1.5l2 0.5q3 0 5 -3t2 -5v-28q0 -1 3 -1.5l3 -0.5h3t2 2v60q0 4 -1.5 8t-6.5 4q-4 0 -4.5 -3.5t-0.5 -8t-1.5 -8.5t-6.5 -4q-2 0 -3 2v13.5v20.5v20
v14q0 6 -0.5 14t-2.5 14q-1 1 -1.5 4t-0.5 4q0 2 2.5 3.5t4.5 2.5q4 -4 5.5 -8.5t2 -10t0 -11t0.5 -9.5q0 -2 0.5 -8t1 -12.5t0.5 -12.5t1 -8q0 -2 2 -2h3q2 0 3.5 1t2.5 4v25v8.5v12t0.5 14t0.5 14.5t0.5 12.5t0.5 7.5zM139 243q0 2 1.5 4t4.5 2v0q2 -1 3.5 -2.5t1.5 -2.5
v-70l31 -3q1 0 1 -1v-2v-2.5t-1 -0.5t-3 -0.5t-5 -0.5h-4h-3q-2 0 -7.5 0.5t-11.5 0.5t-12.5 0.5t-11.5 2t-8.5 3.5t-3.5 4h27q1 0 2 2t1 4.5v5v2.5q0 13 -1 26.5t-1 27.5zM165 190v7t0.5 11t2 13t3 12.5t3.5 9t4 3.5q3 0 4.5 -2t1.5 -4v-3l-0.5 -0.5t-0.5 -1.5t-1 -3
q-1 -3 -2.5 -8.5t-2.5 -10.5t-2 -8.5l-1 -3.5q0 -2 0.5 -5t0.5 -6t-1 -5t-5 -2q-3 0 -3.5 2t-0.5 5zM101 240v3t2 1q7 0 11.5 -6t7 -14.5t3.5 -17t1 -12.5q0 -3 -1 -4.5t-4 -1.5t-4.5 2t-1.5 5v6v4q0 3 -1 6t-2 7t-2 7t-2 5l-2 2t-2 2.5t-2 2.5l-1 1v1v1zM125 142q0 2 2 4
t4 2v-0.5v-0.5l20 -2t20 -3l0.5 -0.5t1.5 -0.5v-1v0q-1 -1 -1.5 -2t-0.5 -2h-10q-9 0 -17.5 1.5t-17.5 2.5q-1 0 -1 0.5v1.5z" />
</svg>
