<?xml version="1.0" standalone="no"?>
<!DOCTYPE svg PUBLIC "-//W3C//DTD SVG 1.1//EN" "http://www.w3.org/Graphics/SVG/1.1/DTD/svg11.dtd" >
<svg xmlns="http://www.w3.org/2000/svg" xmlns:xlink="http://www.w3.org/1999/xlink" version="1.1" viewBox="-10 0 266 256">
   <path fill="currentColor"
d="M81 171q0 20 -1 39.5t-1 38.5q5 0 7.5 -0.5t4.5 -4.5v-14q0 -27 -1 -53.5t-1 -53.5v-13v-19.5v-19.5v-13q0 -2 0.5 -7t1 -11t1 -11t0.5 -7v-1v-2q0 -7 -6 -7q-2 0 -3 0.5t-2 1.5v7v10v11v6t-0.5 2.5t-0.5 3.5t-0.5 3.5t-0.5 2.5l-0.5 1l-0.5 1h-12q-2 0 -2 -4v-8
q0 -5 -1 -9t-6 -4q-2 0 -3.5 0.5t-1.5 2.5v2q1 0 1 2t0.5 4t0.5 3.5v1.5v7.5t-0.5 12.5t-0.5 12.5t-1 7.5v5q0 3 0.5 5t3.5 2q1 0 1.5 -0.5l2 -2t3.5 -4.5l2 -3v-22q0 -1 1.5 -1.5l3 -1t3.5 -1t3 -0.5t3 0.5t2 3.5v4v6.5v6.5v4v12q0 5 -0.5 10.5t-0.5 11t-1 12.5
q-2 2 -3.5 2h-3.5q-4 0 -5.5 -1.5t-2 -4t-0.5 -5v-5.5q-1 -3 -2.5 -3.5t-3.5 -0.5q-1 0 -2.5 0.5t-3.5 3.5q1 10 1.5 21t0.5 23t-1 23.5t-2 22.5q0 2 -1 4.5t-2 5.5t-1.5 5.5t-0.5 4.5l1.5 1t1.5 2h1q5 0 7 -3.5t3 -8t1 -9.5t2 -7v-51q0 -1 1 -4t3 -4q3 -1 7.5 -1.5
l4.5 -0.5l2 3v3v5v5v5zM156 204q3 5 6.5 12t8.5 13t10.5 10.5t11.5 4.5h3h3q2 0 2 -1.5v-2.5q0 -2 -0.5 -3t-1 -1.5t-1.5 -1t-2 -2.5q-6 -4 -12 -9t-11.5 -10.5t-9.5 -12t-4 -14.5q0 -3 2.5 -4t6 -2t7.5 -1.5t7.5 -3.5t6 -8t2.5 -15v-8t-1 -9.5t-3.5 -8.5t-7.5 -4h-33
q-2 0 -5.5 1.5l-7 3t-6 4t-2.5 5.5v30q0 6 4 8.5t9 4t9 3t4 5.5q0 5 -3 10t-8 10t-11 10t-11 9.5t-8 7.5t-3 5q0 4 3 4q5 0 11.5 -4.5t12 -10.5t10 -12.5t6.5 -11.5h6zM103 212q0 1 1.5 1.5t2.5 0.5q3 0 7 -3t7.5 -7t6 -8t2.5 -6q0 -4 -3 -4h-1.5h-0.5l-3 3l-4.5 4.5
l-4.5 4.5l-3 3q0 1 -1 2l-2.5 2.5t-2.5 3.5t-1 3zM177 191q0 4 2 5l18 18l1.5 0.5l1.5 0.5q2 0 4.5 -1t2.5 -4v0q-1 -2 -5 -5.5t-9 -7t-9.5 -6.5l-4.5 -3q-1 0 -1.5 1.5zM132 161v-3t1 -3q5 -1 10.5 -1.5t11.5 -1.5t11.5 -1.5t10.5 -0.5h1l1 1t2 1q0 1 0.5 2.5t0.5 3.5v3.5
v1.5q0 5 -3.5 6.5t-8.5 2t-10 0.5h-7t-6 -0.5t-7.5 -1.5t-5.5 -3.5t-2 -5.5zM133 141q0 -5 3.5 -7t8.5 -3.5t10 -1.5h8h5.5t6.5 0.5t5.5 2t2.5 5.5q0 3 -1.5 4.5t-3.5 2.5q-10 -1 -19 0t-18 1q-4 0 -6 -0.5t-2 -3.5zM100 132l2 2l2 2v0q4 0 11.5 -6t15.5 -12.5t15.5 -12.5
t11.5 -6q3 0 10 4.5t14 9.5t13.5 9t8.5 4t3.5 -1t1.5 -3q0 -4 -4 -7.5t-9.5 -6t-11.5 -5t-11.5 -5t-9.5 -5.5t-4 -6q0 -5 2.5 -7t6 -3t7.5 -2t7.5 -3.5t6 -7.5t2.5 -13v-3.5v-2.5l-4 -3q-4 3 -5 7.5t-2.5 8.5t-4.5 7t-11 3h-3.5t-1.5 -3t1.5 -7.5t0 -9t-3 -7.5t-6.5 -3v32
h-16q-3 0 -4.5 -4t-3 -8.5t-3 -8.5t-3.5 -4h-0.5h-0.5l-0.5 1t-1.5 1v2.5v3.5v3v2q2 7 5 11t7 6t9 3t11 2l0.5 2t0.5 3v1q0 7 -6 13t-14.5 11.5l-17 11t-13.5 10.5zM102 105v0.5v0.5l0.5 0.5l1.5 1.5v0q2 0 4.5 -1t5.5 -3t5.5 -3.5t3.5 -2.5q2 -2 5.5 -4.5l3.5 -2.5v-5
q-2 0 -6.5 2.5t-10 5.5t-9.5 6.5t-4 4.5zM178 86q0 2 4.5 5t11 6t12 5.5t7.5 2.5q0 -6 -3.5 -9.5t-8.5 -6t-10.5 -4t-9.5 -1.5q-1 0 -2 0.5t-1 1.5zM102 34q1 1 2.5 1h3.5q9 0 20 -0.5t22 -1.5t21.5 -2.5t19.5 -1.5h4.5h5.5t4.5 -1.5t1.5 -4.5t-1.5 -3.5t-3.5 -0.5h-3
q-23 2 -45 4t-45 4q-3 1 -5 2.5t-2 4.5z" />
</svg>
