<?xml version="1.0" standalone="no"?>
<!DOCTYPE svg PUBLIC "-//W3C//DTD SVG 1.1//EN" "http://www.w3.org/Graphics/SVG/1.1/DTD/svg11.dtd" >
<svg xmlns="http://www.w3.org/2000/svg" xmlns:xlink="http://www.w3.org/1999/xlink" version="1.1" viewBox="-10 0 266 256">
   <path fill="currentColor"
d="M160 224q0 3 2 7.5t5.5 9t7.5 7.5t7 3q2 0 5 -2t3 -4q-1 -4 -4.5 -6.5t-7.5 -5t-7.5 -5t-3.5 -6.5q0 -3 3 -5l6 -4t5.5 -5.5t2.5 -8.5q0 -3 -0.5 -5.5t-4.5 -3.5l-17 -6q-4 -1 -4 -4t4 -4.5t9 -2t9.5 -1t6.5 -1.5q1 -2 1 -5v-6t0.5 -6t2.5 -5t3 -2h3t2.5 -0.5t3.5 -3.5
l-3 -3h-3h-4h-4h-2q-4 0 -9 -0.5t-10 -0.5t-8.5 -0.5l-3.5 -0.5l-2 -1v-2t-0.5 -5t-0.5 -5v-1q0 -2 0.5 -4t0.5 -4t-1 -2.5t-2 -0.5t-2.5 0.5t-1.5 1.5v23q0 2 -3 3t-7 1.5l-8 1t-6 0.5q0 1 -1.5 1.5t-3.5 1.5t-3.5 2t-2.5 1q-2 3 -3 7.5t-1 7.5q0 6 2 11.5t2 11.5
q0 2 -2.5 5t-3.5 4q-2 4 -3.5 8t-3 9t-2.5 9.5t-1 7.5q0 2 1.5 3t3.5 1q4 0 5 -5t2 -11.5t2.5 -12t5.5 -7.5q2 2 4 4.5t3.5 5t3.5 4t5 1.5t4.5 -1t1.5 -4v-3q-3 -2 -7 -6.5t-6 -7.5v-1q0 -2 2.5 -4t5.5 -3.5t6 -2.5t5 -1q3 0 4 0.5t2 2t1.5 3t2.5 3.5q2 1 5.5 2t7 2.5t6 3
t2.5 4.5v0.5v0.5q-1 1 -3 2.5t-4 4t-4 4t-2 2.5q-2 2 -2 4v5zM69 227q0 3 0.5 5.5t3.5 2.5q5 0 6.5 -4t2 -8.5t0 -9t-0.5 -7.5t0.5 -9t0.5 -14t0.5 -17t0.5 -17t0.5 -14.5t0.5 -9.5q2 -7 2.5 -14t0.5 -15v-14v-14q0 -2 0.5 -6t1 -9t1 -11t0.5 -11.5t0.5 -9.5t0.5 -5v-1v-2
q0 -4 -4 -4h-2.5t-2.5 1l-1 0.5l-1 0.5v33l-2 4l-9 2l-1 -2v-3.5t-0.5 -5t-0.5 -5t-1 -3.5q0 -2 -1 -4t-3 -2t-3 1t-1.5 3t-0.5 4v3q0 2 0.5 4t0.5 3v1.5t0.5 3t0.5 3.5v2q0 2 -0.5 6.5t-1 9.5t-1 9.5t-0.5 6.5q0 3 1.5 3h2.5q2 0 3.5 -3.5t2 -8t0 -9t-0.5 -5.5q1 -2 3 -2.5
t4 -0.5h3.5t2.5 3v8q0 14 -1 28t-2 27q0 2 -2.5 2h-3.5h-4l-1 -0.5t-1 -1.5v-20q0 -3 -1 -3.5t-2 -0.5t-2.5 0.5t-1.5 3.5q1 10 0 19.5t-1.5 19t-1.5 19t-1 19.5v5q0 2 1.5 2h2.5t2.5 -3.5t2 -8.5t1 -11.5t1 -12t0.5 -9.5v-6q2 -1 3.5 -1h2.5h3q1 0 2 1v4v4.5v5.5v3
q0 18 -2.5 36t-2.5 36zM142 149h3q3 4 3.5 6.5t0.5 6.5q0 2 -0.5 5t-3.5 4l-23 9h-1q-2 0 -3.5 -0.5t-1.5 -2.5v-18q0 -3 3.5 -5t7.5 -3t8.5 -1.5t6.5 -0.5zM154 160v-4.5t0.5 -4t1.5 -2.5t4 -2h4h6h5h4v15q0 2 -2.5 3t-5.5 1.5t-6 0.5h-4h-3q-2 0 -2 -1l-2 -1v-2v-3z
M106 134q2 2 4 2h2q1 -1 3 -2.5t2 -2.5v-18l1 -0.5l1 -0.5h4h3.5t2.5 3v18q0 1 1.5 1h1.5q2 0 3.5 -0.5t1.5 -2.5v-18q3 -3 5 -6t3 -7v-4t0.5 -6.5t0.5 -6.5v-5v-6t-0.5 -7t-0.5 -6v-3q0 -6 -1.5 -10.5t-8.5 -4.5h-7q-5 0 -9 1t-8 2.5t-5 5.5q-1 9 -1.5 15.5t-0.5 14.5
q0 5 0.5 11t1.5 11l0.5 1.5t1.5 3t1.5 2.5l0.5 1v3q0 5 -0.5 10.5t-3.5 10.5zM188 133l1 1l2 2v0q2 0 3 -1.5t1.5 -3t0.5 -2.5v-3q0 -4 -1 -7.5t-1 -7.5t2 -7.5t2 -7.5v-48q0 -2 -2.5 -4t-4.5 -3h-4.5h-4.5h-6.5t-7.5 0.5t-7 2.5t-2 6q0 9 -1 16.5t-1 15.5v8t1 7.5t3.5 6.5
t5.5 5v22l1 1.5l1 1.5h1v0q1 0 2 -1.5l1 -1.5l3 -19q1 -2 2 -2h3q3 0 4.5 3t2 6.5t0.5 7.5v6zM112 96q0 -3 1.5 -4.5t4 -2t5 0t3.5 0.5h9q2 1 2.5 2t0.5 3q0 3 -1 5t-3 3t-5 1.5t-6 0.5h-5q-2 -2 -4 -4.5t-2 -4.5zM165 91h23l2 2l0.5 1.5l0.5 1.5l-6 6h-2.5h-3.5h-6.5t-4 -1
t-2.5 -3.5t-1 -6.5zM110 79q0 -5 2 -7.5t5.5 -3.5t8 -0.5t8.5 0.5t5 2t1 5v5t-3 3h-25q-1 0 -1.5 -1.5t-0.5 -2.5zM164 77q0 -4 1.5 -5.5t4 -2t5.5 -0.5h6h10l0.5 1.5l0.5 1.5v3t-0.5 3.5t-2 3t-2.5 1.5h-21l-0.5 -1l-0.5 -1q-1 0 -1 -2v-2zM164 57q0 -3 2 -5t4 -2h18
l0.5 0.5t1.5 0.5q0 1 0.5 2.5t0.5 2.5q0 3 -1.5 4.5t-4.5 1.5h-5.5t-7 -0.5t-6 -1.5t-2.5 -3zM112 56q0 -2 1 -4t3 -2h19l0.5 0.5t1.5 0.5q0 1 0.5 2l0.5 1q0 1 -0.5 2.5t-0.5 2.5q-1 0 -1 0.5t-1 0.5h-20q-2 0 -2.5 -1.5t-0.5 -2.5zM99 22v1.5t1 1.5h24h37t36 -2
q3 0 4.5 -1t1.5 -4v-2t-2 -2h-17q-19 0 -37 1t-37 2l-2 0.5t-4 0.5t-3.5 1t-1.5 3z" />
</svg>
