<?xml version="1.0" standalone="no"?>
<!DOCTYPE svg PUBLIC "-//W3C//DTD SVG 1.1//EN" "http://www.w3.org/Graphics/SVG/1.1/DTD/svg11.dtd" >
<svg xmlns="http://www.w3.org/2000/svg" xmlns:xlink="http://www.w3.org/1999/xlink" version="1.1" viewBox="-10 0 266 256">
   <path fill="currentColor"
d="M170 207q5 0 8 3.5t5 8t3.5 10.5t3 10.5t3.5 8t5 3.5t4.5 -3t1.5 -5q0 -6 -2.5 -11t-5.5 -10.5t-6.5 -10t-6.5 -8.5q-3 0 -3 -2v-3v-4l1 -1.5l2 -3t1.5 -3l0.5 -1.5q1 -4 -2.5 -7.5t-8 -6.5t-9 -5.5t-7.5 -3.5q-2 0 -5.5 -1t-7.5 -2t-7.5 -2t-4.5 -1h-2q-2 0 -3.5 0.5
t-1.5 2.5q0 3 3.5 4.5t9 3t11.5 3t11.5 3t9 4.5t3.5 7q0 2 -0.5 5t-3.5 3q-1 0 -1.5 -0.5t-1.5 -0.5l-1.5 -0.5t-3 -1.5l-3 -2l-1.5 -1q-4 -1 -9 -2.5l-10 -3l-10 -3t-8 -1.5q-2 0 -4 1t-2 3t3.5 3.5t8.5 2.5t10.5 2.5t10.5 3t8.5 3t3.5 4.5q0 1 -0.5 1.5l-0.5 0.5
q-2 1 -3.5 1.5t-4.5 0.5q-10 0 -19 -2t-19 -2q0 4 4.5 6.5t10 4t11.5 1.5h9h2h4h4h3q3 -3 4.5 -3.5t4.5 -0.5zM71 241q0 2 1 3.5t4 1.5h0.5h0.5q1 -1 3 -2.5t2 -2.5v-21q0 -5 3.5 -8.5t7.5 -6.5t7.5 -7t3.5 -9q0 -6 -1.5 -9t-4 -4.5t-6 -2.5t-7.5 -3q-3 -1 -7 -5l-6 -6v-2
q0 -6 3.5 -8.5t8.5 -4t9.5 -2.5t7.5 -4q3 -2 4 -6t1.5 -8t1 -7.5t0.5 -7.5q0 -5 -1 -9.5t-1 -11.5q-1 0 -1.5 -0.5l-0.5 -0.5h-1h-1l-1 1l-2 2q1 2 1 5.5t-0.5 6.5t-2 5t-4.5 2q-1 0 -5 0.5t-8 0.5t-7.5 0.5t-4.5 0.5q-2 0 -2 1v2v2t2 1h28q2 0 2 3v3q0 5 -2.5 7.5t-6 4
t-8 2.5t-8.5 3.5t-6 6t-2 10.5v3v4t0.5 4t2.5 2l25 13q1 1 1 2v2q0 6 -3.5 9t-8 7t-8 10.5t-3.5 18.5v4.5v4.5zM143 136q0 5 3.5 8.5t8.5 5t10 2.5t9 2q2 1 4 2.5t4.5 2.5t4.5 2t5 1q2 0 4.5 -1t2.5 -3v-2.5t-1 -1.5q-2 0 -6 -1t-8 -2.5t-8 -2.5t-6 -2q-2 0 -5 -1t-6.5 -2.5
t-6 -2.5t-2.5 -3q0 -5 2.5 -6t6.5 -1.5t9 -1t9 -2t6.5 -5.5t2.5 -12q0 -5 -3 -8t-8 -4t-9.5 -1h-8.5h-1l-1.5 0.5t-3 0.5t-3 0.5l-1.5 0.5q-5 0 -6 -3t-1.5 -6.5l-1 -7t-3.5 -3.5q-2 0 -3 5t-1.5 11t-1 11.5t-1.5 8.5q-1 1 -2 3l-2.5 5t-2.5 5.5t-1 3.5q0 2 3 2q5 0 8 -4.5
t4.5 -9.5l3 -10t2.5 -5h33q2 0 2.5 3t0.5 5q0 4 -2.5 6t-6 2.5t-8 0.5t-8.5 1.5t-6.5 4.5t-2.5 9zM50 98q0 4 0.5 5.5t4.5 1.5q2 0 3.5 -1.5t2.5 -3t2.5 -3l2.5 -2.5t2.5 -2t3.5 -2t4 -2.5t3 -1.5q1 -1 4.5 -2.5t8.5 -3.5t10.5 -4t10 -4t7.5 -3.5t3 -2.5q1 -4 1.5 -10
t0.5 -11v-3q0 -1 -0.5 -3t-0.5 -4.5t-0.5 -5t-0.5 -3.5l-0.5 -1t-1.5 -1t-2.5 2t-1.5 3v28q0 2 -1.5 3.5t-3.5 3t-4 2t-4 0.5h-3q-1 -5 -1.5 -8t-0.5 -7q0 -8 1.5 -16.5t1.5 -17.5q0 -3 -1.5 -4.5t-3.5 -1.5q-1 0 -2.5 0.5t-1.5 1.5l-3 42h-2.5h-2.5q-3 0 -6 -1t-3 -5v-18
l-1.5 -1.5t-2.5 -1.5v0v0q-2 0 -3.5 1t-2.5 2v3v3q0 10 2 15.5t4.5 8t6 2.5t6.5 0.5t4.5 1t1.5 4.5q0 3 -3 5t-7.5 3.5t-10 3t-10 4t-7.5 5.5t-3 7zM144 69q3 5 7 7t8 3.5t8.5 2.5t9.5 2q3 0 6 2.5l6 5t6 4.5t6 2t4 -2t1 -4q0 -5 -5 -7.5t-11 -4t-11 -3.5t-5 -8v-1v-1
q0 -1 0.5 -2.5l0.5 -1.5h16l7 -7v-2t0.5 -5t0.5 -5.5v-5.5v-5v-6q0 -1 -1 -1.5t-2 -0.5q-3 0 -4 2.5t-1.5 6t-0.5 8t-1 8t-3.5 6t-7.5 2.5q-2 0 -3 -2.5t-1 -3.5q0 -8 1.5 -15.5t1.5 -15.5q0 -2 -1.5 -4t-4.5 -2q-2 0 -2.5 0.5t-1.5 3.5q-1 5 -1.5 11t-0.5 12t0.5 12t0.5 10
t-2.5 4.5t-5.5 0.5h-4.5t-3.5 -3v-2.5v-2.5v-4v-2q0 -5 1 -9.5t1 -9.5q0 -3 -0.5 -4.5t-4.5 -1.5q-2 0 -3 2t-1.5 4t-0.5 5v4v3q0 2 0.5 4.5t0.5 6t0.5 6.5t0.5 4z" />
</svg>
