<?xml version="1.0" standalone="no"?>
<!DOCTYPE svg PUBLIC "-//W3C//DTD SVG 1.1//EN" "http://www.w3.org/Graphics/SVG/1.1/DTD/svg11.dtd" >
<svg xmlns="http://www.w3.org/2000/svg" xmlns:xlink="http://www.w3.org/1999/xlink" version="1.1" viewBox="-10 0 266 256">
   <path fill="currentColor"
d="M160 209q0 3 0.5 10t2.5 14.5t5 13.5t7 6q2 0 3.5 -2t1.5 -4q0 -5 -1.5 -10.5t-3.5 -10.5t-3.5 -10.5t-1.5 -11.5q0 -7 3.5 -12t8 -9t9.5 -8t8 -9q3 -4 5 -10.5t2.5 -13t0.5 -13.5v-12q0 -10 -0.5 -22.5t-0.5 -22.5q-1 -9 -2.5 -15t-5 -10t-9 -6t-14.5 -3l-1 -1
q0 -1 -0.5 -3t-1 -6t-0.5 -6t-0.5 -4t-3.5 -2h-2q-1 0 -3 0.5t-3 0.5v1q0 5 1.5 10t1.5 10q0 3 -2.5 3.5t-5.5 0.5h-6t-4 1q-2 2 -4 3.5t-4 4t-3.5 4.5t-2.5 5q0 6 -0.5 11t-0.5 9.5v9.5v10v10.5t0.5 13.5t2 15t3.5 15t5 12t7 8t9.5 4t10.5 4q0 3 -0.5 4t-1.5 2l-2 2t-2 4
q-2 3 -2 7.5v7.5zM92 169q3 0 5 2t2.5 4.5t0.5 5.5t1 6q0 1 0.5 3t1 4.5t1.5 5t1 3.5l1 2.5t2 5.5t2 5.5l1 2.5q0 1 0.5 3t0.5 4t0.5 3.5t0.5 2.5t1 3.5l2 5t2.5 4.5t3.5 2q3 0 4.5 -1.5t1.5 -4.5q0 -6 -2 -10.5t-4 -9.5t-4.5 -12.5t-5 -15.5t-4.5 -15.5t-2 -13.5
q0 -3 2.5 -6.5t5 -8t4.5 -9.5t2 -10v-2v-5t-0.5 -9t-0.5 -9v-6q-1 -2 -4.5 -5.5t-6.5 -3.5h-32q-2 0 -2.5 2t-0.5 3v1.5t2 1.5h29l1 1.5t2 2.5q0 1 0.5 3l1 4t1 3.5t0.5 2.5v2v3.5v4.5v4v3v4.5v4.5v2q-2 1 -4 3t-3 2q-2 0 -2.5 -3.5t-1.5 -8t-3 -9t-5 -6.5h-5h-4t-4 0.5
t-3.5 2t-1.5 3.5q0 4 4 4q2 0 4 -0.5t4 -0.5q3 0 5 3t3 7.5t1.5 9t0.5 6.5q0 3 -3 4.5t-7 2t-8 0.5h-5q-4 0 -6 -2.5t-2 -5.5t1 -5t1 -5t-1 -6t-1 -6v-3q0 -1 1 -3.5l1 -2.5q0 -5 -0.5 -11t0 -11.5t1.5 -11.5t5 -10q2 -4 6.5 -6.5t8.5 -5t6.5 -6t2.5 -8.5t-3.5 -9t-8 -6.5
t-10 -4t-8.5 -2.5q-3 0 -3.5 -3.5l-1 -7t-2 -6.5t-6.5 -3q-3 0 -3.5 2t-0.5 5q0 9 2.5 13.5t6 7t8 3.5t8.5 1.5t6 2t2 5.5q0 5 -2.5 8.5t-6.5 6.5t-8.5 5.5t-6.5 5.5q-2 9 -3.5 20t-1.5 20q0 3 0.5 5t1.5 5v107q0 2 1.5 5t4.5 3q2 0 3.5 -2t2 -4.5t0.5 -5v-3.5
q0 -9 -0.5 -17t-0.5 -16v-10t1 -10q5 -3 12 -4.5t13 -1.5zM143 153q-3 -16 -4.5 -32t-1.5 -32v-7t0.5 -6.5t1.5 -7t1 -8.5q2 -3 4.5 -6t4.5 -5q2 0 5 -0.5t6.5 -1l7 -1t4.5 -0.5h2q7 0 11.5 2t6 5.5t2 7.5t0.5 8.5v8.5t2 8q0 1 0.5 4.5t0.5 6.5v7v4v20q0 9 -2 17.5t-6 16
t-12 13.5q-1 1 -2 1.5l-1 0.5h-1h-1q-5 -3 -9 -5t-8 -5t-7 -6t-5 -8zM149 138q0 4 0.5 6t1.5 3t3 2t4 4q3 2 5 3t6 1q6 0 9.5 -5t5.5 -11.5t3.5 -13.5t2.5 -11v-1q0 -2 -0.5 -3t-1.5 -1h-1l-7 8q0 1 -0.5 4l-1 6l-1 6t-0.5 4q-1 3 -4 6t-6 3q-4 0 -7 -2.5t-3 -6.5
q-1 -6 1.5 -10.5t5.5 -9t5 -9.5t1 -11q5 -1 9 -2.5t7 -4t4.5 -6t1.5 -8.5q0 -3 -2.5 -6t-6 -5.5t-7 -4t-5.5 -1.5q-9 0 -15.5 5.5t-6.5 14.5q0 5 1.5 8t4 6t4 6.5t1.5 7.5t-1.5 7.5t-3.5 6.5t-4 6.5t-2 8.5zM157 79q0 -2 1 -4t3.5 -3.5t4.5 -2t4 -0.5q5 0 8.5 3.5t3.5 7.5
q0 3 -1.5 5.5t-3.5 4.5t-4.5 3.5t-5.5 1.5q-2 0 -3.5 -2t-3.5 -4.5t-2.5 -5.5t-0.5 -4zM99 67q0 2 2 2h4q11 0 16.5 -6.5t5.5 -17.5l-0.5 -2t-0.5 -3q-1 -2 -4 -4t-6 -3t-5.5 -2.5t-3.5 -4.5q-1 -1 -2 -4t-1.5 -6t-2 -5t-3.5 -2q-3 0 -4 2t-1 4q0 9 4 13.5t8.5 7.5t8.5 6
t4 10v2t-1 3q-1 2 -3.5 2.5t-6 1t-6 2t-2.5 4.5z" />
</svg>
