<?xml version="1.0" standalone="no"?>
<!DOCTYPE svg PUBLIC "-//W3C//DTD SVG 1.1//EN" "http://www.w3.org/Graphics/SVG/1.1/DTD/svg11.dtd" >
<svg xmlns="http://www.w3.org/2000/svg" xmlns:xlink="http://www.w3.org/1999/xlink" version="1.1" viewBox="-10 0 266 256">
   <path fill="currentColor"
d="M85 246l5 5q3 -3 4 -5t1 -6t-1 -8t-1 -8q0 -6 2.5 -10.5t6.5 -8l8 -7t8 -6.5q2 -3 3.5 -6.5t2.5 -7.5t1.5 -7.5t0.5 -6.5v-4v-8.5v-9.5v-8v-6v-8.5v-9.5v-5q-1 -1 -1.5 -2t-0.5 -2q-1 -6 -0.5 -15t-0.5 -17.5t-3.5 -16t-9.5 -9.5q-1 -1 -3.5 -2l-5 -2t-5 -1.5t-3.5 -1.5
q-2 -1 -2.5 -2t-0.5 -3v-2v-2.5t0.5 -3.5t0.5 -3.5v-1.5q0 -3 -1.5 -4t-3.5 -1q-3 0 -4 3t-1 6.5v7.5v5l-3.5 3.5t-3.5 1.5h-5q-2 0 -4 1q-8 3 -12 9t-5.5 13.5t-1.5 15.5v15q0 19 1 37t1 36q2 5 3 9t1 6.5v5t1.5 4.5t5 4.5t9.5 6.5q2 1 4.5 2t5.5 1l3 -1t4 -1t1.5 -0.5
l0.5 -0.5q0 -2 -3.5 -3.5t-8.5 -4t-9.5 -5t-5.5 -6.5v-2v-3v-4v-2q-1 -20 -3.5 -39.5t-2.5 -39.5q0 -8 1 -16.5t4 -16t9 -12.5t16 -5q4 0 9 0.5t9 2.5t7 5t3 8v2.5t-2 1.5h-20v-11l-0.5 -0.5t-1.5 -0.5v0h-1q-1 1 -2 2.5t-1 3v3.5v2q-2 1 -4 1h-6t-5 1t-2 3v1l1 1.5t2 1.5
h12l1.5 1.5l1.5 1.5v1q0 6 -1.5 8t-4 2.5t-5.5 1t-4 4.5q-3 7 -3 13v13v17t4 16q1 2 3.5 2.5t4.5 1t3.5 2t1.5 4.5q0 1 -0.5 1.5t-1.5 2.5l-1 3h-14q-1 0 -1.5 0.5t-0.5 1.5v2v3h19v16q1 0 2.5 -0.5l3 -1l1.5 -0.5v-13l0.5 -0.5t1.5 -0.5q2 -2 4 -2.5t3.5 -0.5h4h5.5
q2 -1 2 -3v-3h-19q-1 0 -1.5 -2.5l-0.5 -2.5q0 -4 3 -5.5t6 -2t6 -2t3 -4.5v-47q0 -6 -3 -9t-6 -4l-6 -2t-3 -3q0 -4 2 -6.5t5 -4t6.5 -2t6.5 -0.5h1h1l4 9v39v5v5.5t0.5 9.5t0.5 9.5v6.5l0.5 1.5t0.5 3v3v1.5l-0.5 1t-1.5 2t-1.5 2l-0.5 1v2v4v3v2q-1 4 -3 7t-4.5 5t-5.5 4
t-6 5q-3 2 -4.5 4.5t-2.5 5t-1.5 5.5t-2.5 6v25zM178 182q4 1 6 6t4 12t3.5 15t3.5 14.5t4.5 11t6.5 4.5q3 0 4 -2t1 -5v-1v-2t-1.5 -4t-3 -6.5t-3 -6.5t-1.5 -5q-3 -7 -6.5 -16.5t-3.5 -16.5q0 -3 2 -5.5t4.5 -4.5t5 -5t2.5 -6q2 -7 2 -11v-11q0 -12 -1.5 -20t-6 -12
t-12.5 -5.5t-21 -1.5h-3.5t-5 0.5t-4.5 1.5t-2 3q0 3 6 3.5t13.5 0.5t14 1t8.5 4q3 7 3 15v16v13q-1 3 -2.5 5.5t-3.5 3.5q-1 0 -1.5 -0.5l-0.5 -0.5q-2 -9 -3 -14.5t-3.5 -8.5t-7.5 -4t-17 -1q-3 0 -5.5 0.5t-6.5 2.5l-3 -3v-55q-1 0 -1.5 -1t-0.5 -2q0 -5 3.5 -8t8 -6
t8.5 -6.5t4 -8.5q0 -3 -1.5 -5t-3.5 -3q-1 0 -4 -2t-6.5 -4t-6 -4t-3.5 -2q-3 -2 -4.5 -5t-3.5 -6t-4.5 -5t-5.5 -2q-2 0 -3 2t-1 4q0 6 5.5 10.5t12 8t11.5 7t5 8.5q0 2 -1.5 4.5t-4 4.5t-4.5 4t-4 3q0 1 -0.5 2.5t-1 3.5t-1 3.5l-0.5 1.5v16q0 14 1 28t1 29
q0 18 -2.5 32.5t-7.5 31.5l-2.5 5l-3 6t-2.5 5.5t-1 5.5q0 2 1.5 2.5t2.5 0.5q5 0 8 -3.5t4.5 -9t2.5 -10.5t1 -8q0 -2 1 -5t1.5 -6t0.5 -6v-3q0 -3 0.5 -9t0.5 -13t0.5 -13t0.5 -9l1 -2h28q2 0 4 4.5t3 9.5t2 9.5t1 5.5q0 2 -5.5 3t-12 2t-12 2.5t-5.5 3.5v1q1 0 2 1.5
t2 1.5v0h1q2 0 5.5 -1t7.5 -1.5t8 -1.5t5 -1zM73 132v-6q1 -2 2.5 -2.5t3.5 -0.5h2q2 0 3 2v3.5t0.5 5.5t0.5 5.5v3.5v1v1q0 1 -1.5 2.5t-1.5 2.5h-1q-2 0 -3.5 -2t-3 -5t-1.5 -6v-5zM97 121q2 0 3.5 2t2 4t0.5 4v5q0 1 -0.5 3t-1.5 4t-2.5 3.5t-3.5 1.5h-1l-1.5 -0.5
l-1.5 -0.5v-22q0 -3 2 -3.5t4 -0.5zM74 105q0 -1 0.5 -3.5t1 -4.5t2 -3.5t3.5 -1.5l1.5 0.5t1.5 1.5v22q-6 0 -8 -2.5t-2 -8.5zM94 92q3 0 5 1t2.5 3l1 4t0.5 5l-0.5 2.5t-0.5 3.5q0 3 -2 3h-4h-2.5t-2.5 -2v-18q0 -1 1.5 -1.5zM164 71l0.5 0.5l0.5 0.5l0.5 1l0.5 1h3h3
q13 0 21.5 -5.5t8.5 -17.5q0 -8 -3 -13.5t-7.5 -10t-9.5 -8.5t-10 -9h-1h-1q-3 0 -4.5 0.5t-1.5 3.5q0 7 5 11t10.5 7t10.5 7t6 10q0 5 -3.5 8.5t-8.5 6t-10 3.5t-8 2l-0.5 0.5l-0.5 0.5z" />
</svg>
