<?xml version="1.0" standalone="no"?>
<!DOCTYPE svg PUBLIC "-//W3C//DTD SVG 1.1//EN" "http://www.w3.org/Graphics/SVG/1.1/DTD/svg11.dtd" >
<svg xmlns="http://www.w3.org/2000/svg" xmlns:xlink="http://www.w3.org/1999/xlink" version="1.1" viewBox="-10 0 266 256">
   <path fill="currentColor"
d="M57 231q-2 0 -3 2t-1.5 3.5t-0.5 3.5v3h2h3.5h3.5h2q2 0 8 -0.5t13 -1.5t13.5 -1.5t7.5 -0.5h11.5h17h20h20.5h16.5h11.5q2 -1 2.5 -2t0.5 -3q0 -4 -2 -5t-5 -3h-4.5h-4.5q-6 0 -11 1t-11 1h-8q-1 -1 -2.5 -3t-2.5 -4l-1 -65q0 -6 1.5 -9.5t4.5 -5.5t6.5 -4.5t7.5 -6.5
q2 -3 2.5 -7t0.5 -8q0 -5 0.5 -8.5t3.5 -6.5q4 -1 9 -2.5t9 -3.5t6.5 -5.5t2.5 -9.5q0 -1 -0.5 -2.5t-2.5 -1.5h-0.5h-0.5q-5 3 -9 5.5l-8 5t-8.5 3.5t-10.5 1q-5 0 -9 -1t-8 -2.5t-8 -2.5t-9 -1q0 6 2.5 9.5t7 5t9.5 2t11 2.5q1 0 2 2.5t1 3.5q0 11 -3.5 16t-9.5 7t-14 1.5
t-17 -0.5h-3h-4.5h-4.5h-3q-5 -1 -7 -4t-2.5 -6.5t-0.5 -7.5t-0.5 -7.5t-2 -6t-5.5 -2.5t-4 4v7.5t1 10t2 10t4 7.5q3 2 6.5 2.5t6.5 1t5 2.5t2 7v68q0 8 -7 11q-12 -1 -24 1t-24 1zM122 223v-15q0 -8 1 -16t1 -17q0 -4 -1 -8t-1 -9t0.5 -8t2 -5t4.5 -2.5t8 -0.5q3 0 6 0.5
t3 4.5q0 11 -1 21.5t-1 21.5v5v8v7.5v5.5q1 2 1.5 3.5t0.5 3.5t-1.5 3t-3.5 2h-3t-4 0.5t-4 0.5h-3l-2.5 -2.5t-2.5 -3.5zM78 218l2 1h1h1l0.5 -0.5l0.5 -0.5q1 -1 2 -3l2 -4l2 -4l1 -2q1 -7 1 -11.5t0.5 -9t0.5 -8.5v-10v-5t-0.5 -5.5t-2 -4t-5.5 -1.5q-2 0 -3.5 3.5
t-2 9.5t-0.5 13v13.5v12.5v8v8zM175 145q-1 0 -2.5 0.5t-1.5 2.5v57l1 1t1 2h1q2 0 4.5 -2t2.5 -5v-53q0 -2 -2 -2.5t-4 -0.5zM53 90q0 4 1 4.5t4 0.5h2h1l31 -10h1h3q4 0 7.5 2t7.5 2q2 0 4.5 -1.5t2.5 -4.5q0 -4 -3 -5.5t-6.5 -2.5t-7 -1h-5.5h-1q-2 0 -5.5 1t-7 1.5t-6 1
t-3.5 0.5q0 1 -2 2.5t-3 1.5q-2 1 -4.5 1t-5 1t-4 2t-1.5 4zM94 54q5 0 10 0.5t10.5 2t10.5 3.5t9 4q7 3 14.5 7t16.5 4q4 0 9.5 -1t10.5 -3.5t10 -4.5t8 -4q4 -1 4.5 -5t0.5 -6q0 -3 -1.5 -4.5t-3.5 -1.5t-3 1t-1.5 2.5t-1.5 3t-2 2.5q-8 5 -16.5 7.5t-18.5 2.5h-6
q-7 -6 -13.5 -9t-13.5 -5t-14.5 -3.5t-15.5 -4.5q-1 1 -4 1.5t-6.5 1t-7 1.5t-4.5 1q-3 1 -8 1.5t-9.5 2t-8 3.5t-3.5 7q0 4 4 4q5 0 11 -1t11.5 -3l11 -4t10.5 -3v0zM141 39q1 0 4 1t6 1.5t6 1.5t4 1h2q3 0 10 -1t14 -3.5t12.5 -5.5t5.5 -6q0 -2 -0.5 -5.5t-3.5 -3.5
t-5.5 1.5t-5.5 4t-5.5 4.5t-4.5 3q-4 2 -8.5 2h-8.5q-7 0 -11.5 -2t-10.5 -5q-2 1 -2 3v2v3.5t2 3.5zM53 29q0 4 2 4.5t6 0.5q9 0 17.5 -2.5t17.5 -2.5q6 0 10.5 2t9.5 2q0 -9 -4.5 -12.5t-14.5 -3.5q-3 0 -10 1t-14.5 2.5t-13.5 3.5t-6 5z" />
</svg>
