<?xml version="1.0" standalone="no"?>
<!DOCTYPE svg PUBLIC "-//W3C//DTD SVG 1.1//EN" "http://www.w3.org/Graphics/SVG/1.1/DTD/svg11.dtd" >
<svg xmlns="http://www.w3.org/2000/svg" xmlns:xlink="http://www.w3.org/1999/xlink" version="1.1" viewBox="-10 0 266 256">
   <path fill="currentColor"
d="M57 244q0 2 1 3.5t3 2.5h9q12 0 22.5 -1.5t22.5 -1.5h3.5t5 0.5t5 0.5h2.5h1q6 0 11.5 -0.5t11.5 -0.5q9 0 17 0.5t17 0.5q3 0 5.5 -1t2.5 -4t-1 -4t-3 -2h-3t-4 0.5t-4 0.5h-3t-3.5 -1t-2.5 -2v-24l-0.5 -0.5l-0.5 -0.5q-1 0 -3 -1t-2 0q-1 0 -2.5 1l-1.5 1v23
q0 1 -1 1.5t-3 0.5t-3.5 0.5l-1.5 0.5q-6 0 -7 -3t-1 -9v-2q0 -1 0.5 -3.5l1 -5t1 -4l0.5 -1.5l3 -3q6 -1 13 -3t12.5 -6t9 -9.5t3.5 -12.5q0 -3 -1.5 -5t-4.5 -2q-2 0 -4.5 3.5t-4.5 7.5t-5 8t-6 5l-1.5 0.5t-3 0.5t-2.5 0.5t-2 0.5t-4.5 1t-4.5 2h-31q-5 -4 -10 -5t-11 -6
q-1 -1 -3.5 -4l-5 -6t-5 -5t-4.5 -2t-2.5 1t-0.5 2q0 6 4 11.5t9.5 10t11.5 8t11 4.5v29l-3 3h-15q0 -6 1 -12.5t1 -12.5q0 -2 -1.5 -5.5t-4.5 -3.5q-1 0 -1.5 0.5t-0.5 1.5q-1 2 -2 6.5t-1.5 9t-0.5 8.5v7q-2 1 -5 1.5t-6 0.5t-5.5 -0.5t-3.5 -0.5q-2 1 -3 2.5t-1 3.5z
M118 232q0 -1 0.5 -4.5t1 -8t1 -7.5t1.5 -3h12q2 0 2.5 1t1 3t1 3.5t0.5 2.5q0 3 -0.5 6l-1 6t-2.5 5t-6 2h-3.5t-3.5 -1t-3 -2t-1 -3zM94 130v2v1l0.5 3t1.5 3v11t1.5 11.5t4.5 9.5t10 5q8 1 14 1.5t13 0.5q11 0 16.5 -2.5t8 -6.5t3.5 -11t2 -17v-10v-5t-0.5 -5.5
t-1.5 -4.5t-4 -2q-2 0 -3 2.5t-1 5t-0.5 5t-1.5 2.5h-20v-18q0 -2 -2.5 -2.5t-4.5 -0.5h-0.5h-1.5l-3 19q0 2 -2 3t-4.5 1t-5 0.5t-3.5 0.5h-6q0 -2 -0.5 -5t-0.5 -5.5t-1 -4.5t-3 -2h-1q-1 0 -1 1q0 3 -1.5 7t-1.5 7zM107 162l0.5 -2t1.5 -2h15q1 0 1 2v3q0 6 -5 6
q-2 0 -4 -0.5l-4 -1t-3.5 -2t-1.5 -3.5zM134 162q0 -2 1.5 -3.5t3.5 -1.5h4h3h4h4l1 1v1v1l-1 2.5t-2 2.5q0 1 -0.5 1.5l-0.5 0.5h-15q-1 0 -1.5 -2t-0.5 -3zM58 151q1 4 2 6t5 2q3 0 5.5 -3t2.5 -7v-42q0 -12 6.5 -19.5t17.5 -7.5q2 0 3.5 2t1.5 4.5t0.5 5t0.5 3.5
q0 2 3.5 3t7.5 2t8 1.5t5 0.5h2.5h5.5h6h5h4h6h6h4q2 -1 2.5 -2t0.5 -3t-1.5 -3.5t-4.5 -1.5q-6 0 -11 0.5t-11 0.5h-2h-5.5t-7.5 -0.5t-7.5 -0.5h-5.5q-2 -2 -2.5 -4t-0.5 -4t0.5 -3.5t2.5 -2.5q15 1 29 -0.5t28 -0.5q2 -1 2 -2v-3v-3t-3 -1h-60v-12l3 -0.5t4 -0.5h3
t3.5 0.5t3.5 0.5h2h1.5h0.5q6 0 11.5 -0.5t11.5 -0.5h8q6 0 11 1t8.5 3.5t4.5 7.5q0 1 0.5 3.5t0.5 5.5t0.5 6t0.5 4v52l1 1l2 2v0h1l2.5 -2.5t1.5 -2.5v-5t0.5 -7.5t0.5 -7.5v-5v-6q0 -5 -0.5 -9t-0.5 -7v-3v-3.5t-0.5 -5.5t-0.5 -5.5v-3.5q-1 -7 -1 -11t-2 -6t-6 -2.5
l-12 -1.5h-11.5h-18.5h-17.5h-12.5q-1 0 -2 -0.5t-2 -2.5v-2v-2v-5t1 -6t2 -5t3 -2h10l1 0.5t1 1.5q2 3 3 5.5t2.5 4t4 2.5t6.5 1q10 1 16.5 1.5t15.5 0.5h3t4.5 -0.5t4.5 -1.5t3 -3q0 -1 -1 -3t-2 -3h-8q-6 0 -12 1t-13 1q-1 0 -3.5 -0.5t-4.5 -1t-3 -1.5t-1 -3
q0 -3 1.5 -4.5t4 -2t5.5 -1t5 -0.5h6h8h9h6t3.5 -2t0.5 -4q-1 -3 -2.5 -3.5t-3.5 -0.5h-2h-1q-8 1 -18 1.5t-20 1.5t-20 2.5t-18 4.5q-4 2 -4.5 7t-0.5 11q0 5 -1 9t-6 4q-7 0 -10 -2.5t-4 -7t-0.5 -10t0.5 -10t-1.5 -7.5t-6.5 -3q-2 0 -3 0.5t-2 2.5v9v7t0.5 8t1.5 8t3 7
q3 5 8 5.5t9.5 1t8.5 2t4 6.5q0 3 -3 6q-1 0 -4 0.5t-6 1.5t-6 1.5t-4 0.5q-6 2 -9.5 6t-4.5 9.5t-1.5 11.5t-0.5 11l-2 20t-3 19zM104 148l-1 -3v-1q0 -2 1.5 -3t4.5 -1.5t5 -0.5h4q3 0 5 1t2 4v3q-1 0 -3.5 1t-3.5 1v1h-2q-2 0 -3 -0.5l-2 -1t-2.5 -0.5h-4.5zM134 144
q0 -1 1.5 -3t3.5 -2h16q2 0 2.5 1t0.5 2v2.5t-1 2.5h-3h-4t-4 0.5t-3 0.5l-2.5 1t-3.5 0q-2 0 -2.5 -1.5t-0.5 -3.5z" />
</svg>
