<?xml version="1.0" standalone="no"?>
<!DOCTYPE svg PUBLIC "-//W3C//DTD SVG 1.1//EN" "http://www.w3.org/Graphics/SVG/1.1/DTD/svg11.dtd" >
<svg xmlns="http://www.w3.org/2000/svg" xmlns:xlink="http://www.w3.org/1999/xlink" version="1.1" viewBox="-10 0 266 256">
   <path fill="currentColor"
d="M158 221v30q5 0 8.5 -4t3.5 -8v-106l2.5 -0.5t3.5 -0.5q2 -1 6.5 -1.5t9.5 -1t9.5 -1t5.5 -0.5q3 0 4 -2.5t1 -4.5l-0.5 -0.5l-1 -1t-1.5 -1t-2 -0.5q-7 0 -15.5 1.5t-16.5 1.5q-1 0 -4 -1t-3 -2v-30q0 -5 3.5 -6.5t8 -3t8 -4.5t3.5 -11v-43q0 -1 -1 -3t-2 -3t-2.5 -2
t-2.5 -1q-2 0 -3 1t-1.5 2.5t-0.5 3.5v4q0 8 1 16.5t1 17.5v10q-4 6 -9 6.5t-12 0.5h-5h-5q-4 -1 -5 -6t-1 -11t0.5 -13.5t0.5 -13.5t-1.5 -9.5t-4.5 -3.5h-2.5t-1.5 2v2v5v4v3l-0.5 3.5t-0.5 7.5t-0.5 7t-0.5 4l0.5 2t1 5l1 6t1.5 4q1 5 4.5 8t7.5 4.5t7 2t3 1.5v31l-3 3
l-1.5 0.5t-3.5 0.5t-4 0.5t-4 0.5h-11h-3t-4 0.5l-4 1l-2 0.5q-2 1 -2 2v3v2t2 1h10q6 0 12.5 -1t12.5 -1q3 0 4 1t3 5v20q0 11 -1 21t-1 21q0 5 1 9.5t1 9.5v2t-2 1zM47 154q0 1 1.5 3.5t3 4.5t3.5 4t4 2h29q3 0 5.5 -1.5t5 -4t4.5 -5t3 -3.5q2 -11 2 -19.5v-19.5v-25.5
t-2 -25.5q0 -3 -0.5 -8t-2 -10t-4 -9t-7.5 -4q-11 0 -20 1t-15 4.5t-8.5 10.5t-1.5 20l-1 4v46q2 7 2.5 14.5t0.5 13.5l-0.5 1t-0.5 2.5t-0.5 2.5zM59 136v-4v-4q4 -2 9.5 -3.5t11 -2t11 -0.5h9.5v8q0 6 -0.5 11.5t-3 10t-6.5 4.5h-25q-2 0 -3.5 -3t-2 -6.5t-0.5 -6.5v-4z
M84 85h3.5t4.5 0.5l4 1t2 1.5v23l-2 1l-3 0.5t-7.5 1t-9 0.5t-7.5 1h-1h-1q-1 -1 -4.5 -1.5t-3.5 -1.5q-1 0 -1.5 -0.5l-0.5 -0.5v-21q0 -2 4 -3t8.5 -1.5t9.5 -0.5h5zM60 73q-2 -1 -2.5 -2.5t-0.5 -3.5v-3l0.5 -2.5l1 -5t1 -4.5t0.5 -3q1 -2 5 -3.5t8.5 -2l9 -1l4.5 -0.5h1
q1 0 3.5 1.5t3.5 1.5v5t0.5 6.5t0.5 7v4.5v3q0 2 -1.5 3.5t-3.5 2t-4.5 0t-4.5 -0.5h-5h-5.5t-5 -1t-6.5 -2z" />
</svg>
