<?xml version="1.0" standalone="no"?>
<!DOCTYPE svg PUBLIC "-//W3C//DTD SVG 1.1//EN" "http://www.w3.org/Graphics/SVG/1.1/DTD/svg11.dtd" >
<svg xmlns="http://www.w3.org/2000/svg" xmlns:xlink="http://www.w3.org/1999/xlink" version="1.1" viewBox="-10 0 266 256">
   <path fill="currentColor"
d="M176 128q0 12 -3.5 24.5t-9.5 24.5t-12.5 23.5t-12.5 21.5q-3 4 -6 7l-6 6t-4.5 7t-1.5 10q6 0 10.5 -3.5t8.5 -9t6.5 -12t5.5 -11.5q5 -8 10.5 -16.5t9.5 -16.5q5 -12 9 -25.5t4 -26.5q0 -9 -2 -14.5t-5 -8.5t-6.5 -5t-6 -4.5t-4.5 -6.5t-2 -11q0 -6 4 -9t10 -3.5t13 0
t13 0.5t10 -1.5t4 -4.5q0 -2 -0.5 -2.5l-1.5 -1.5h-2.5h-3.5h-4h-2h-3h-4h-3.5h-2.5q-6 1 -16.5 1.5t-20.5 1.5t-17 1.5t-8 0.5l-10 4v5h35q1 0 1.5 3.5t0.5 8.5t0.5 9t2.5 6q3 4 7 6.5t7.5 5t6 6t2.5 10.5zM56 140q1 2 4 3.5t4 2.5h11q4 0 9 -0.5t10 -2.5t8 -5.5t3 -9.5
v-99q0 -2 -2 -4l-3 -3h-2.5t-4.5 -0.5t-4.5 -1l-2.5 -0.5h-3q-14 0 -20.5 5t-9 12.5t-2 18.5t0.5 24v16t0.5 14t1.5 14.5t2 15.5zM62 115q0 -4 3 -5.5t6.5 -2t7.5 -0.5h6h7q3 1 3 2.5v3.5q0 5 -0.5 10t-0.5 10q-5 2 -9 3t-8 1q-5 0 -8 -2t-4.5 -5t-2 -7t-0.5 -8zM61 91
q0 -5 0.5 -9t1.5 -9q1 0 5 -1l8 -2t7.5 -1.5t5.5 -0.5h3.5h2.5q2 2 2 2.5v2.5v1v1v5t-0.5 5.5l-1 5l-0.5 2.5l-3 3h-28l-3 -2v-1v-2zM62 52q0 -13 6 -18t18 -5q3 0 5.5 0.5t3.5 3.5q0 1 0.5 3.5l1 5t0.5 5v3.5v1v1v3t-2 2q-5 2 -10.5 2h-11.5h-9l-1 -2q-1 0 -1 -2v-3z
M125 26q-1 3 1 3h4h9.5t13.5 -0.5t14.5 -1t13 -1.5t9.5 -2.5t4 -3.5q0 -1 -1 -2t-2 -1h-3h-2q-13 0 -26.5 0.5t-26.5 2.5q-2 1 -5 2t-3 4z" />
</svg>
