<?xml version="1.0" standalone="no"?>
<!DOCTYPE svg PUBLIC "-//W3C//DTD SVG 1.1//EN" "http://www.w3.org/Graphics/SVG/1.1/DTD/svg11.dtd" >
<svg xmlns="http://www.w3.org/2000/svg" xmlns:xlink="http://www.w3.org/1999/xlink" version="1.1" viewBox="-10 0 266 256">
   <path fill="currentColor"
d="M46 247q1 3 2.5 3.5t3.5 0.5q4 0 6.5 -5.5t4.5 -13t3 -15t2 -10.5q0 -2 0.5 -7t1.5 -11t1.5 -11t0.5 -7l1 -3.5t1 -4.5q0 -3 0.5 -11.5t1 -18t1 -18t0.5 -11.5v-12q0 -1 0.5 -3.5t0.5 -5t0.5 -4.5l0.5 -2l2 -2l1.5 -0.5t4 -1l5 -1t3.5 -0.5q8 -1 16.5 -1.5t16.5 -0.5h6
q2 4 3 7.5t1 7.5v7q-3 4 -6 5t-6.5 1h-7.5t-7.5 1.5t-6 5.5t-2.5 11v2v3q-1 5 -2 9t-1 10q0 18 2 36.5t6 35.5l0.5 0.5t0.5 1.5q1 0 1.5 1.5l0.5 1.5q4 4 9.5 6t10.5 3t11 1h11h7q1 0 4.5 -0.5t7 -1.5t6.5 -1.5t5 -1.5q5 -4 6.5 -8t3.5 -11v-3v-6v-6v-4v-5v-6v-5v-3
q0 -3 -0.5 -10t-1 -14.5t-1 -14t-1.5 -8.5q-1 -10 -4.5 -16t-11.5 -10q-2 0 -5 0.5t-6.5 0.5t-7 -0.5t-6.5 -2.5v-6v-3q0 -3 0.5 -5.5l1 -5t2.5 -2.5h50q4 0 5 -2.5t1 -4.5q0 -3 -1.5 -4.5t-3.5 -1.5h-4.5h-3.5q-10 0 -19 1t-18 1h-5h-3l-2 -2v-30h48l1.5 -1l1.5 -1
q1 0 1.5 -0.5t0.5 -1.5t-1.5 -2.5l-3 -3t-3 -2t-2.5 -0.5h-28l-2 1t-3 1q-15 1 -30.5 0.5t-31.5 2.5q-1 0 -3 0.5t-5 0.5t-5 0.5t-3 0.5q-7 5 -9.5 15.5t-3 21.5t0 22.5t-0.5 19.5q-3 24 -4.5 48t-3.5 48q-3 13 -6 25.5t-6 26.5zM113 188l3 -2h3.5t6.5 -0.5t7.5 -0.5h6.5
q7 -1 17 -1.5t18 -0.5q2 0 2.5 2t1 5t0.5 5.5v3.5q0 4 -0.5 6.5t-1.5 6.5q-8 3 -14.5 3.5t-15.5 0.5h-2t-4.5 -0.5t-4.5 -0.5h-3q-6 -2 -10.5 -4.5t-6.5 -8.5q0 -2 -1 -5.5t-1.5 -5.5t-0.5 -3zM110 159v-5t2 -4q16 -3 32.5 -5t32.5 -2q1 5 1.5 8t0.5 8q0 4 -1 7t-4 5
q-7 2 -12 2.5t-9.5 1t-9.5 0.5h-11h-3h-6h-4.5h-3.5q-2 -1 -3 -3t-1.5 -4.5t-0.5 -4.5v-4zM110 134v-2.5v-2.5q0 -10 4.5 -15t11 -7t14 -2.5t14.5 -0.5q6 0 10 0.5t6.5 2.5t3.5 5.5t1 9.5v7q-1 3 -8.5 5t-17 2.5t-18 1t-12.5 0.5q-3 0 -5 -0.5t-4 -3.5zM81 54v-8t1 -7.5
t3.5 -5.5t6.5 -3q9 -2 19.5 -3.5t19.5 -1.5q2 0 4.5 1t2.5 4v28q-12 1 -23.5 2.5t-23.5 1.5h-7q-2 -1 -2.5 -3.5t-0.5 -4.5z" />
</svg>
