<?xml version="1.0" standalone="no"?>
<!DOCTYPE svg PUBLIC "-//W3C//DTD SVG 1.1//EN" "http://www.w3.org/Graphics/SVG/1.1/DTD/svg11.dtd" >
<svg xmlns="http://www.w3.org/2000/svg" xmlns:xlink="http://www.w3.org/1999/xlink" version="1.1" viewBox="-10 0 266 256">
   <path fill="currentColor"
d="M164 154q6 0 7 6q0 1 0.5 4t1 6.5l1 7t0.5 4.5q0 2 2 8t4 14t5 16t6 15t5.5 11.5t4.5 4.5q3 0 5.5 -1.5t2.5 -5.5v-1q-4 -11 -9 -23t-9 -24q-3 -10 -5.5 -20t-6.5 -20q-1 -6 -2 -14.5l-2 -17t-2 -17.5t-1 -16q0 -4 3 -5.5t7.5 -1.5h10t10 -0.5t7.5 -2t3 -5.5q0 -3 -1 -4
t-4 -1q-6 0 -12.5 1t-12.5 1h-5.5t-5.5 -2q-1 -7 -1.5 -11t-0.5 -11v-5.5v-7t1 -6.5t3 -4q1 -1 3.5 -2.5t3.5 -1.5l2 2l18 -2q2 0 2 -2.5v-3.5q0 -4 -3 -4.5t-6 -0.5q-4 0 -11 0.5t-15.5 2t-17.5 3.5t-16.5 4t-12 4.5t-4.5 5.5l-2 78l2 2v4.5t0.5 7.5t0.5 7v5q2 9 7 13.5
t11 6t13.5 1t14.5 -1.5zM49 145q2 6 7.5 9.5t10.5 3.5t10.5 -1t10.5 -4t8 -7.5t4 -10.5v-8v-11.5v-11.5v-7v-10v-13v-10v-6q0 -9 -0.5 -16.5t-3.5 -13t-8.5 -8.5t-15.5 -3t-16 3.5t-8.5 10t-3 15t-0.5 17.5v4v6v5v2q1 4 1.5 13t1 19.5t1.5 20t1 12.5zM56 119q0 -2 4 -4.5
t9 -4t10 -2.5t7 -1t2.5 2l1 4t0.5 4.5v3.5q0 7 -0.5 12t-2 7.5t-5.5 4t-12 1.5q-4 0 -7 -3t-4.5 -7t-2 -8.5t-0.5 -8.5zM125 98q0 -3 0.5 -6t3.5 -5q7 0 14 -0.5t15 -0.5h4l2 5v6.5v9.5v10v7l0.5 1.5t0.5 3t0.5 2.5t0.5 2v3q0 3 -2.5 4.5t-5.5 1.5h-6h-5h-8q-6 -3 -8.5 -8
t-4 -11t-1.5 -12v-13zM55 80q-1 -1 0.5 -3t2.5 -2q7 0 13 -1t12 -1h3h2q1 0 1.5 0.5t0.5 1.5v22l-3 3h-31zM125 77v-11q0 -8 1 -15.5t4.5 -13t9 -8.5t14.5 -3q2 0 3.5 5t2 12t1 13t0.5 7q0 5 -1.5 8.5t-5.5 5.5h-4.5t-7.5 0.5t-7 0.5h-5h-2h-1.5t-1.5 -1zM56 62v-4v-4v-6.5
t1 -8.5t3 -7t6 -3h17q2 0 3.5 3.5t2 8t1 8.5t0.5 5q0 5 -3.5 7t-8 2.5t-9.5 0.5h-8h-3q-1 0 -2 -2z" />
</svg>
