<?xml version="1.0" standalone="no"?>
<!DOCTYPE svg PUBLIC "-//W3C//DTD SVG 1.1//EN" "http://www.w3.org/Graphics/SVG/1.1/DTD/svg11.dtd" >
<svg xmlns="http://www.w3.org/2000/svg" xmlns:xlink="http://www.w3.org/1999/xlink" version="1.1" viewBox="-10 0 266 256">
   <path fill="currentColor"
d="M65 247q0 1 1.5 2t1.5 2h1q4 0 5.5 -3.5t1.5 -6.5v-5v-8v-9v-4q1 -7 1.5 -15t2 -16.5t4.5 -15.5t7 -13q2 -4 5 -6t6.5 -4l7 -4t6.5 -5q5 -4 8.5 -10t6.5 -10q0 -1 0.5 -1.5t1.5 -0.5q4 -2 10 -2.5t12 -0.5t11.5 -0.5t9.5 -2.5t7 -6.5t3 -12.5v-3.5t-1 -4.5t-2.5 -3.5
t-4.5 -1.5q-2 0 -2.5 4.5t-2.5 10t-7 10t-15 4.5h-3q-1 0 -3 -0.5t-4 -0.5t-3.5 -0.5l-1.5 -0.5l-3 -3v-22l3 -3q7 -1 13 -3t11 -5t7.5 -8t2.5 -13v-6q-2 -1 -3.5 -2t-2.5 -1h-1l-1.5 1.5l-1.5 1.5q-1 5 -1.5 9.5t-2 8t-5 6t-8.5 2.5q-3 0 -5 -1t-2 -5v-1q0 -1 1 -4.5
t2.5 -7.5t2.5 -8t2 -5q1 -4 5 -6t9 -3t10.5 -1t10 -0.5t7.5 -2t3 -3.5t-1 -4t-3 -2h-1l-2 0.5l-4 1l-4 1t-3 0.5q-15 2 -23.5 5t-13 8t-6.5 14t-2 23q0 2 -1 2h-2q-7 0 -10.5 -2.5t-5.5 -6t-3 -7.5t-1.5 -7.5t-2 -6t-5.5 -2.5h-1v1q-1 0 -2 1l-1 1v1v1q0 1 0.5 2.5t1 3.5
l1 4t0.5 3q1 6 3 10.5t5.5 6.5t8 3t10.5 2l3 3l0.5 1.5t0.5 3.5q0 4 -0.5 9.5t-3.5 8.5q-1 0 -4 0.5t-4 0.5q-8 0 -12.5 -2.5t-7 -6t-4 -7t-2 -7t-2 -5.5t-4.5 -2q-2 0 -3.5 2t-1.5 4q0 11 3.5 17.5t9 10t13.5 4t18 1.5l0.5 2t0.5 3q-1 7 -6 11t-11.5 7.5t-12.5 6.5t-10 9
q-5 8 -8.5 19.5t-5 23.5t-2 24t-0.5 22v8zM116 230q6 7 13.5 9t15.5 2h14t12 -2t8.5 -6t4.5 -12q1 -2 1 -7t0.5 -11t1 -11t0.5 -7v-2.5v-2.5q0 -9 -0.5 -15.5t-2.5 -11t-7.5 -6.5t-15.5 -2q-8 0 -16.5 1t-16.5 4q-4 2 -6.5 10t-4 17.5t-2 19t-0.5 13.5l0.5 3l0.5 3
q0 1 0.5 3t0.5 4q0 3 -0.5 5zM126 222q0 -4 1 -5.5t6 -1.5h37q1 0 2 1.5t1.5 3.5t0.5 4v2q-1 3 -4.5 4.5t-8 2t-8.5 1t-6 0.5q-3 0 -7 -0.5t-7 -2t-5 -4t-2 -5.5zM126 204v-18l2 -1q0 -1 1.5 -1.5l1.5 -0.5h40q2 0 3 1.5t1.5 3t0.5 3.5v2v5.5t-2 5.5q-9 1 -16.5 1h-17.5h-11
zM129 170q0 -6 3.5 -9.5t8.5 -5t10.5 -2t10.5 -0.5q8 0 11 4t3 11q0 2 -1 4t-4 2h-40q-2 0 -2 -1.5v-2.5z" />
</svg>
