<?xml version="1.0" standalone="no"?>
<!DOCTYPE svg PUBLIC "-//W3C//DTD SVG 1.1//EN" "http://www.w3.org/Graphics/SVG/1.1/DTD/svg11.dtd" >
<svg xmlns="http://www.w3.org/2000/svg" xmlns:xlink="http://www.w3.org/1999/xlink" version="1.1" viewBox="-10 0 266 256">
   <path fill="currentColor"
d="M159 187q0 12 2.5 22t4.5 22q0 2 -0.5 5t0 6.5t1.5 6t5 2.5h2.5t1.5 -2q0 -1 0.5 -3.5t0.5 -3.5q0 -7 -1.5 -14t-3.5 -14.5t-3.5 -14.5t-1.5 -15v-7.5v-9.5t1 -9t4 -6q2 1 5 5t5.5 7.5t5 6t4.5 2.5q3 0 4.5 -1t1.5 -4q0 -2 -1.5 -4t-3.5 -3.5t-3.5 -3.5t-2.5 -4
q-1 -1 -2.5 -4t-3 -5.5t-2.5 -4.5l-1 -2v-6l17 -26v-7q-4 0 -6.5 2t-4.5 5.5t-4.5 6.5t-4.5 5h-1h-1h-1.5t-1.5 -1q0 -2 -0.5 -5.5t-1 -8t-1 -8t-0.5 -4.5t-0.5 -3.5l-0.5 -2.5v-1q0 -3 2 -4.5t5 -2.5t6 -1t5 -1h3t4 -0.5t4 -0.5h3q2 -1 2.5 -2.5t0.5 -3.5t-2 -2.5t-4 -0.5
q-5 0 -10 0.5t-10 0.5q-3 0 -6 -0.5t-3 -4.5t2 -6t5 -3t7 -1.5t7 -2t5.5 -4.5t2.5 -9q0 -5 -0.5 -9t-6.5 -4q-2 0 -3.5 2.5t-2 5.5t0 6t0.5 5q-3 3 -7 3t-6.5 -0.5t-2.5 -4.5q0 -5 1.5 -10t1.5 -10q0 -2 -1.5 -3.5t-3.5 -1.5q-1 0 -2.5 0.5t-2.5 1.5t-1 2.5t-0.5 3.5
t-0.5 3.5v2.5v8.5v12.5v12v8l-1 2h-26q-2 0 -3 -5.5t-1.5 -11.5t-1.5 -11.5t-4 -5.5h-1l-0.5 0.5t-0.5 1.5v13q0 6 0.5 12.5t0.5 13.5q0 9 -2 17.5t-4.5 17l-5 17t-2.5 18.5v0q1 1 2 2.5l2 3t2.5 3.5l1.5 2q1 1 2.5 2t2.5 1h16q1 0 2 -0.5l1 -0.5q8 -7 9.5 -14t1.5 -16v-7
t-0.5 -7.5t-2 -6.5t-5.5 -3q0 5 1 10t1 10q0 4 -0.5 9t-2.5 9t-5.5 6.5t-9.5 2.5q-2 0 -4 -1t-4 -3v-10q0 -7 1 -14t3 -14t3.5 -14t3.5 -13q0 -1 3.5 -2t8 -2.5t9 -2.5t5.5 -1t2.5 1t1.5 2q1 14 4 26.5t7 26.5v0.5v0.5v0.5v0.5l-0.5 1t-1 2.5t-1 2.5l-0.5 1q-7 23 -7 46z
M84 52q-4 0 -9 0.5t-9.5 2.5t-7.5 5.5t-3 9.5v85q0 6 4 8.5t9 2.5q4 0 9 -0.5t9.5 -2.5t7.5 -5t3 -8v-91q0 -2 -1.5 -3.5t-3.5 -2.5t-4 -1h-4zM62 130v-1q1 0 2 -1.5t2 -1.5q5 -2 9 -2.5t9 -0.5h2.5t3 0.5t2.5 1.5t1 2q0 6 -0.5 11t-2 9t-5.5 6t-10 2h-7q-2 -2 -3.5 -5
t-2 -6.5t-0.5 -7v-6.5zM62 111v-14q0 -1 3 -1.5t7 -1t7 -0.5h4h8q1 1 1.5 3t0.5 3v1v1v1v0q0 1 -0.5 2.5t-0.5 3t-0.5 3t-0.5 2.5q-1 2 -3 2h-4h-5q-2 -1 -5.5 -1t-5.5 -0.5l-2 -0.5zM64 78q0 -10 5.5 -13.5t14.5 -3.5q3 0 4.5 1.5t2 4t0.5 5.5v5q0 3 -1.5 4.5t-4 2.5
t-5.5 1h-6q-5 0 -7.5 -1t-2.5 -6z" />
</svg>
