<?xml version="1.0" standalone="no"?>
<!DOCTYPE svg PUBLIC "-//W3C//DTD SVG 1.1//EN" "http://www.w3.org/Graphics/SVG/1.1/DTD/svg11.dtd" >
<svg xmlns="http://www.w3.org/2000/svg" xmlns:xlink="http://www.w3.org/1999/xlink" version="1.1" viewBox="-10 0 266 256">
   <path fill="currentColor"
d="M91 231q1 3 2.5 6t3.5 6t5 4.5t6 1.5h28q2 0 5 -1t6 -3.5t5 -5t3 -5.5q0 -1 1 -4.5l2 -7t1.5 -6.5t0.5 -4t0.5 -5.5t0.5 -11t0.5 -12.5t0.5 -10v-6v-5q0 -2 -0.5 -5.5t-1.5 -7t-1 -7t-1 -4.5q-3 -5 -6.5 -8t-8.5 -5h-3t-4.5 -0.5t-4.5 -0.5h-3q-9 0 -15.5 0.5t-11 3
t-6.5 8.5t-2 16q0 2 -0.5 7.5t-0.5 12.5t-0.5 12.5t-0.5 6.5v20v20zM101 218q0 -12 10 -12h38q0 4 -0.5 9.5t-2.5 10.5t-5 8.5t-8 3.5h-20q-3 0 -5.5 -2t-4 -5t-2 -6.5t-0.5 -6.5zM101 187q0 -6 1 -9t3.5 -4.5t6 -2t8.5 -0.5q1 0 3.5 -0.5t6 -0.5t7 -0.5t4.5 -0.5h2
q3 0 4.5 1.5t2 3.5t0.5 4v5v2v4.5t-1 4t-2 1.5h-43q-1 0 -2 -3.5t-1 -4.5zM132 133h8q5 3 7.5 8t2.5 10q0 4 -2 6t-5 3q-1 0 -5.5 0.5t-9 0.5t-8.5 0.5t-5 0.5h-2h-1h-1.5h-0.5q-2 -1 -4.5 -1.5l-2.5 -0.5v-19q0 -3 3.5 -4.5t8.5 -2.5t10 -1h7zM138 98q0 6 3.5 10t8.5 6.5
t10.5 4.5t9.5 3q4 3 6.5 4.5t5 3.5l5 4t5.5 5q2 3 3 5.5l2 5t1.5 5.5t1.5 5h5q3 0 5 -1.5t2 -6.5v-2.5t-1 -2.5q-3 -5 -5.5 -8t-5.5 -6.5t-6 -6.5l-7 -7q-9 -6 -19.5 -10.5t-19.5 -8.5q-1 0 -1.5 -1.5t-0.5 -2.5q0 -9 5 -13t12 -5.5t14 -1.5h12q7 -3 10 -9t3 -16v-9t-0.5 -9
t-2.5 -8t-5 -7q-14 0 -24 -1t-22 -1h-7q-1 1 -1 2v2q0 4 2.5 5t5.5 1.5t6 1.5t3 5v9q0 6 -0.5 11.5t-1 10t-2.5 6.5q-3 5 -5.5 7.5l-4.5 4.5t-3.5 5.5t-1.5 10.5zM42 122q0 3 1.5 3.5t3.5 0.5h4t3 -1q5 -8 7 -12.5t5 -8.5t6.5 -7.5t10.5 -9.5q4 -3 9.5 -5t11 -2.5t10.5 -1.5
t9 -4t6.5 -8.5t2.5 -14.5q0 -7 -1.5 -14.5t-5 -13t-8.5 -9t-12 -3.5q-3 0 -8 1t-12 3.5t-15 5t-14 5.5t-10 6.5t-4 6.5t1 5t4 2q1 0 3.5 -1.5l5 -3l5 -3t3.5 -1.5q3 -2 4 -4t5 -2q3 0 4.5 4.5t2.5 10.5t1 11.5v7.5v9q-3 4 -7.5 6t-7.5 5t-7 7.5t-7.5 9.5t-6.5 10.5t-3 9.5z
M89 34v-3t1 -4q0 -1 2 -2t4 -1h4.5h3.5q5 0 8 2.5t4.5 6.5t1.5 8.5v9.5v4.5v3.5q0 2 -1.5 3.5t-3 3.5t-2.5 3l-1 1q-2 1 -4.5 1.5l-5 1t-3.5 0.5q-2 0 -3 -1l-1 -3q0 -1 -0.5 -4t-1 -7.5l-1 -9t-0.5 -7.5q-1 -1 -1 -3v-4zM173 27q11 0 14 4.5t3 15.5q0 20 -17 20
q-3 0 -4.5 -1.5t-1.5 -4.5v-30q0 -1 2.5 -2.5t3.5 -1.5z" />
</svg>
