<?xml version="1.0" standalone="no"?>
<!DOCTYPE svg PUBLIC "-//W3C//DTD SVG 1.1//EN" "http://www.w3.org/Graphics/SVG/1.1/DTD/svg11.dtd" >
<svg xmlns="http://www.w3.org/2000/svg" xmlns:xlink="http://www.w3.org/1999/xlink" version="1.1" viewBox="-10 0 266 256">
   <path fill="currentColor"
d="M192 245q1 0 2.5 2t2.5 3h1q2 0 4 -3t2 -5v-2q0 -1 -1 -3.5t-2 -5.5t-1.5 -6l-0.5 -3q-3 -10 -2.5 -19t0.5 -19q0 -21 2.5 -41t2.5 -41v-4.5t-1 -6.5t-2.5 -5t-4.5 -2h-33q-1 0 -2.5 1t-2.5 2q2 2 3.5 2.5t3 1.5t3 2.5t1.5 4.5q0 23 -2 46.5t-2 47.5v9v13v14v8
q0 4 1.5 6.5t4.5 2.5h1q0 -1 1 -3l1 -2v-23q0 -13 -1 -24.5t-1 -24.5v0v-6t0.5 -9.5t1 -11.5t1 -11.5t0.5 -9.5v-5q1 -4 1 -8t1 -8t3.5 -6.5t7.5 -2.5h1l1.5 1.5t1.5 2.5q1 3 1 5.5t0.5 4.5t0.5 4.5v5.5q0 17 -2 34t-2 34v13q0 3 0.5 10t1 15t1 15t1.5 10zM84 158v88
q0 2 1 2h2q2 0 3.5 -1.5t1.5 -3.5q0 -32 1 -63t1 -63v-6v-10v-9.5v-6.5q-1 -4 -5.5 -6.5t-10.5 -4t-11.5 -2t-8.5 -0.5q-1 0 -3.5 1t-2.5 3t2 3.5t4 2.5l4 2t2 3q0 8 -1.5 15t-2.5 14q-1 22 -3 43t-2 42v6.5v9.5v10t1 9.5t2.5 7t4.5 2.5q2 0 3 -2.5t1 -4.5v-3.5t-2 -3.5v-7
v-9v-10v-6q0 -28 1.5 -56t3.5 -56q2 -2 4 -3.5t5 -1.5q2 0 3.5 1.5l3.5 3.5q-1 5 -0.5 7.5l1 5t0.5 5v5.5q0 11 -0.5 23.5t-2.5 23.5zM107 198q0 7 0.5 12.5t0.5 11t0.5 11.5t0.5 13h3h2t2 -1q-1 -20 -0.5 -38t2 -36.5t3 -36.5t3.5 -37q1 -5 2.5 -7t5.5 -2h3h3q2 1 2 2v49
q-2 4 -2 7v7q0 20 1 40l2 40q0 2 0.5 5.5t1 5.5l0.5 2h6q0 -15 -1.5 -29t-1.5 -28v-1v-1l0.5 -2t0.5 -4.5t0.5 -4.5l0.5 -2v-1q0 -3 -1 -6t-1 -6q0 -4 0.5 -6.5t1.5 -6.5v-61q0 -2 -1.5 -3.5t-3.5 -1.5h-6t-9 -0.5t-9.5 -1t-5.5 -0.5h-4q-1 0 -4 0.5t-3 2.5t2 3t5 1t5.5 0.5
t3.5 2.5q-5 26 -8 53.5t-3 54.5zM54 37q0 5 1.5 7.5t4.5 4.5t7 2.5t8 0.5q2 1 6.5 1t9.5 0.5t9 0.5h6h3h5.5h6.5h6h28t29 -2q3 0 6 -1.5t6 -3.5t4.5 -5t1.5 -6q-1 -8 -3.5 -12.5t-7 -7t-10.5 -3t-14 -0.5h-9h-10h-12.5t-13.5 0.5t-12.5 0.5h-9h-4.5q-7 1 -14.5 1.5
t-13.5 2.5t-10 6.5t-4 12.5zM62 37q0 -4 3 -6.5t7.5 -4t9.5 -2t7 -0.5q3 0 4.5 2.5t2.5 5.5t1.5 6t0.5 4v1q-1 0 -1.5 1t-0.5 2h-8q-2 0 -6.5 -0.5l-9 -1t-7.5 -2.5t-3 -5zM102 29q0 -4 0.5 -5t2 -1.5t4 0t5.5 0.5q1 0 3 -0.5t4.5 -1t5 -0.5h3.5q3 0 6 2.5t5.5 6t4.5 7
t2 6.5v1l-2 2h-32q-2 0 -4 -2t-4 -5t-3 -6t-1 -4zM150 25q0 -3 2 -3.5t4 -0.5h2h4.5t7.5 0.5t7 1t5 0.5q3 2 5 4.5t2 6.5q0 3 -2.5 5t-5.5 3t-7 1h-6t-6.5 -1.5t-6 -4t-4 -6t-1.5 -6.5z" />
</svg>
