<?xml version="1.0" standalone="no"?>
<!DOCTYPE svg PUBLIC "-//W3C//DTD SVG 1.1//EN" "http://www.w3.org/Graphics/SVG/1.1/DTD/svg11.dtd" >
<svg xmlns="http://www.w3.org/2000/svg" xmlns:xlink="http://www.w3.org/1999/xlink" version="1.1" viewBox="-10 0 266 256">
   <path fill="currentColor"
d="M88 238q0 5 4 5h1h4.5t8 -0.5t10 -0.5t10 -0.5t8 -0.5h4.5h13h19h20h13q2 -2 3.5 -4.5t1.5 -5.5t-1 -3.5t-3 -0.5q-9 0 -18 1t-19 1h-2h-2h-3h-1l-3 -2v-26l3 -3q7 0 16 -1t16 -2q0 -1 0.5 -2.5l0.5 -1.5q0 -5 -2 -6t-5 -1t-6.5 1.5t-7.5 2.5t-7.5 2t-6.5 1l-2.5 -2.5
t-1.5 -2.5v-16h-1.5h-2.5q-2 1 -2.5 3t-0.5 5v5v3q0 3 -3.5 4t-7.5 1q-5 0 -10 -0.5t-9.5 -0.5t-7.5 1.5t-3 5.5l0.5 2t1.5 2h37q2 0 2 2.5v2.5q0 6 -0.5 10.5t-1.5 10.5q-2 0 -4.5 1t-4.5 3h-42q-3 0 -4 2.5t-1 4.5zM209 233q-1 0 -1 2t1 2t1 -2t-1 -2zM42 162v10t1 11.5
t2.5 11t4.5 8.5h2h3.5h2.5h2q7 0 12.5 -0.5t10 -3.5t7 -8t3.5 -15v-7.5t0.5 -14.5t0.5 -15v-11q1 -14 1.5 -27.5t0.5 -26.5v-8.5t-1 -8t-3 -6.5t-6 -4h-3h-4h-5h-2h-12t-8.5 2t-5.5 7t-2 15v7v12t-0.5 15.5t-0.5 16t-0.5 14t-0.5 10.5v16zM57 184q0 -1 -1 -5t-1.5 -8
t-1.5 -7.5t-1 -5.5v0v-1q0 -6 3 -9t7 -4.5t9 -1.5h8t4.5 0.5t1.5 4.5q0 9 -1.5 19.5t-3.5 19.5q-2 3 -6 3h-5q-3 0 -6.5 -0.5t-5.5 -4.5zM133 136v38q0 2 2 2.5l2 0.5q3 0 4.5 -7.5t2.5 -19t1 -25.5t0.5 -27t0.5 -24v-15v-8.5t2 -9.5q0 -1 1.5 -2t3.5 -2t3.5 -1.5t2.5 -0.5
t3 1.5t2 2.5v51q-2 2 -2.5 7t-0.5 10.5v10.5v8l-0.5 2.5t-1 4.5t-0.5 4v3v7.5t-0.5 11.5t-0.5 12v7q7 0 9 -4.5t2 -10.5t0.5 -12.5t2.5 -10.5q1 -2 3.5 -3t6 -1.5t7.5 -1.5t7 -2.5t5 -4t2 -7.5v-33q0 -1 -1 -3l-2 -4l-2 -4t-2 -2h-22v-35l1.5 -1t2.5 -1q8 -2 14 -2.5t14 0.5
q2 -1 2 -3v-3q0 -4 -1 -5t-4 -1q-8 0 -15.5 1l-15 2l-15 2t-15.5 1q-2 0 -3.5 -0.5t-3.5 -1.5h-28q-2 0 -3.5 2.5t-1.5 4.5v1l1 1.5t1 2.5h2h2.5h3.5h2q6 0 12 -1t12 -1v36l-3 3h-21l-0.5 1.5t-1.5 1.5q0 1 -1 3.5t-2 4t-1.5 3l-0.5 1.5q0 2 -0.5 5t-0.5 6.5v6.5v5
q0 7 2 11.5t5 7t8 2.5t10 -1zM54 110l2 -4l2 -0.5t4.5 -1t4.5 -0.5q3 -1 7 -2t8 -1q1 0 2.5 1t1.5 4v22l-3 4h-29v-22zM170 120v-12.5t1 -12t4 -9t9 -3.5q2 0 4 1.5t2.5 4t0.5 6v5.5v11t-1 8t-3.5 5t-8.5 2q-3 0 -4.5 -1t-3.5 -5zM132 83q2 0 4 1.5t2 5.5v4q0 2 -0.5 6.5
t-0.5 9t-0.5 7.5l-0.5 3l-3 4h-2h-2h-4h-3q-1 0 -3 -1l-2 -1v-31q0 -2 2 -3.5t4.5 -2.5t5 -1.5t3.5 -0.5zM54 82q0 -8 1 -12.5t3.5 -7.5t6.5 -4t10 -1h8q2 1 3 4t1.5 6t0.5 7v5v5v6q-7 1 -11.5 1h-11.5q-5 0 -8 -1t-3 -8z" />
</svg>
