<?xml version="1.0" standalone="no"?>
<!DOCTYPE svg PUBLIC "-//W3C//DTD SVG 1.1//EN" "http://www.w3.org/Graphics/SVG/1.1/DTD/svg11.dtd" >
<svg xmlns="http://www.w3.org/2000/svg" xmlns:xlink="http://www.w3.org/1999/xlink" version="1.1" viewBox="-10 0 266 256">
   <path fill="currentColor"
d="M148 202v5v3.5t0.5 3.5t1.5 4q1 4 5 9t9.5 10.5t11.5 9.5t11 4q2 0 4.5 -1.5t2.5 -4.5q0 -2 -1.5 -3.5t-3 -2t-3.5 -1t-3 -1.5l-3 -3t-4.5 -4t-4.5 -4l-3 -3q-2 -2 -4.5 -4t-5 -4.5t-3.5 -5t-1 -6.5q0 -7 3 -10.5t7 -6t9 -5t9.5 -5.5t7 -7.5t2.5 -11.5q0 -6 -3.5 -10
t-7.5 -7.5t-7.5 -7t-3.5 -9.5v-3.5t3 -2.5h7q3 0 6.5 -0.5t6.5 -1.5t5 -4q2 -2 3.5 -5l1.5 -3v-23q0 -5 -5.5 -7.5t-13 -3.5t-14.5 -1.5t-11 -1.5v-1v-1q0 -3 3 -6q5 -3 10 -5t9.5 -4.5t7.5 -6t3 -10.5q0 -6 -3 -9t-7.5 -5t-10.5 -3t-12 -1q-5 0 -10.5 0.5t-9.5 0.5h-21
l-0.5 0.5t-0.5 1.5v1q0 2 1.5 3.5t4.5 1.5h3.5h5.5h6h4q2 0 2.5 0.5t0.5 2.5q0 4 -2.5 6.5t-6.5 5t-8 4t-7 2.5q-1 1 -2.5 1.5t-3 1.5t-2.5 1.5l-1 0.5v4q21 0 34 -17l1.5 -1.5t3 -4t3 -4.5t2.5 -2h17q4 0 6.5 4t2.5 7q0 4 -2.5 6.5t-6 3.5l-7 2t-7.5 2q-2 1 -3 3.5l-2 5
t-2.5 5.5t-3.5 4q-5 1 -11.5 1.5t-12 2.5t-9 6t-3.5 11q0 8 1 13t4 7.5t8 4t13 1.5v6l-1.5 3t-4.5 7t-4 7q-1 0 -1.5 1t-1.5 2t-1.5 2l-0.5 1q-1 1 -2 2.5l-2 3t-1.5 2.5l-0.5 1q-4 6 -5.5 12.5t-2 13t-0.5 13.5v13v19t1 19q1 2 1.5 2.5t2.5 0.5t3.5 -0.5t2.5 -2.5v-7
q0 -9 -1.5 -18.5t-1.5 -19.5q0 -12 1.5 -20.5t4.5 -16t7.5 -14t11.5 -15.5q0 -1 1 -3.5t2 -3.5q2 -5 2.5 -11l1 -12t0 -12t-0.5 -11l2 -3h14l1.5 1t1.5 2q0 2 -0.5 7t-1 10.5t-1 10.5t-0.5 8q0 1 -0.5 3.5t-0.5 6t-0.5 6.5t-0.5 4q1 4 4.5 6t7 4.5t6.5 5.5t3 8t-5 8.5
t-10.5 7.5t-11.5 8t-8 10v5v5zM57 143q1 4 4.5 6.5t7.5 2.5q13 0 18.5 -1.5t8 -5.5t3 -10.5t2.5 -16.5q0 -1 0.5 -2.5t0.5 -3.5v-3.5v-2.5v-65l-4 -5h-24q-5 0 -8 2.5t-4.5 6t-2.5 7.5t-1 8v5t-0.5 8t-0.5 8v5v29v28zM83 112h4.5h3.5q2 0 2 2.5v2.5q0 6 -0.5 10.5t-2 8
t-5.5 5.5t-10 2h-1q-1 -1 -3 -2t-3 -1t-1.5 -0.5t-0.5 -1.5v-23l1 -0.5t2.5 -1l3 -1t3.5 -0.5h3h4zM172 104v-5v-7t1 -7t3 -5t7 -2q7 0 10 2.5t3 9.5q0 9 -5.5 13.5t-14.5 4.5h-1l-2 -2t-1 -2zM120 98v-3.5v-3.5q0 -8 4.5 -11t12.5 -3q3 0 4 1t1.5 3t0.5 4v4v5t-0.5 5
t-2.5 4t-5 2q-4 0 -8.5 -1.5t-6.5 -5.5zM88 78h4h3l1 3v17l-1 3q-1 0 -4 0.5t-8 1t-7 0.5h-2q-1 0 -4.5 -0.5t-3.5 -2.5v-20l1.5 -0.5t3.5 -0.5t4 -0.5t4 -0.5h1h3.5h2.5h2zM66 66q0 -7 1.5 -10.5t4.5 -6t7.5 -3t10.5 -0.5h5q1 4 1.5 7.5t0.5 6.5q0 2 -0.5 4l-0.5 2l-5 3
h-23q-1 0 -1.5 -1t-0.5 -2z" />
</svg>
