<?xml version="1.0" standalone="no"?>
<!DOCTYPE svg PUBLIC "-//W3C//DTD SVG 1.1//EN" "http://www.w3.org/Graphics/SVG/1.1/DTD/svg11.dtd" >
<svg xmlns="http://www.w3.org/2000/svg" xmlns:xlink="http://www.w3.org/1999/xlink" version="1.1" viewBox="-10 0 266 256">
   <path fill="currentColor"
d="M141 244q0 3 0.5 4.5t2.5 1.5q4 0 6 -2.5t3 -5.5t1 -7v-5q0 -8 0.5 -18t1 -20.5t1 -21.5t1 -19.5t1 -13.5l0.5 -5l2 -2l1.5 1.5l2.5 2.5q5 4 9.5 8.5t7.5 9.5t5 11t2 13v58q0 1 0.5 1.5l0.5 0.5h0.5h0.5q1 0 2.5 -1.5l3 -3t2.5 -3t1 -2.5t0.5 -3.5t0.5 -5.5t0.5 -6
t0.5 -4v0q0 -12 -1.5 -25.5t-5.5 -26t-12 -22.5t-21 -14q-1 0 -2 -0.5l-1 -0.5q-1 -1 3 -5t9 -7.5t9.5 -6.5t5.5 -3q4 0 7 3t5 7t4.5 7t4.5 3q4 0 6 -1t2 -5q0 -2 -3.5 -6.5t-8 -9t-9 -7t-7.5 -2.5q-4 0 -7 2.5t-6 5.5t-6 5.5t-7 2.5q0 -11 1 -23t0 -23q0 -2 2 -2h3
q8 0 14 3t10.5 6.5t8.5 6.5t8 3q3 0 5 -0.5t2 -3.5q0 -6 -4 -9.5t-9.5 -6t-12.5 -3.5t-12.5 -2.5t-9.5 -3.5t-4 -5v-4l0.5 -2.5t0.5 -5.5t0.5 -5.5t0.5 -3.5v-1q0 -3 -1 -3.5t-3 -0.5h-2.5t-3 0.5t-2.5 1t-1 1.5v26l-1 0.5t-2 0.5t-3 1t-5 1.5t-5 1.5t-3 1l-7 3.5t-10.5 6
t-9.5 6.5t-4 4q0 3 4 3q6 0 11 -2.5t10 -6t10 -6t10 -2.5q3 0 4 2.5t1 4.5v4v8.5t-0.5 13t-0.5 13v8.5q-4 -2 -7 -6t-5.5 -8t-6 -7t-7.5 -3h-3v0v1.5t-2 1.5q-3 4 -6.5 7t-6.5 6t-5 7t-2 9q5 0 7.5 -3l5 -6t5.5 -6t7 -3h1h1q0 1 2 3l4 4l3.5 3.5t2.5 2t3 1t4.5 1.5t4 2.5
t1.5 3.5v0.5v0.5q-1 0 -4.5 1.5t-4.5 1.5q-11 7 -17 14.5t-10 16.5t-5.5 19t-2.5 21q-1 5 -2.5 10.5t-1.5 10.5q0 2 2 3t4 1t4.5 -1.5t2.5 -4.5l5 -52q2 -1 2.5 -2.5t1.5 -3.5t1.5 -4t2.5 -4q1 0 3 -2l4 -4t4.5 -4l2.5 -2l1 -1h1q1 0 2 0.5t1 3.5v23q0 1 -1 2.5t-1 2.5v0v1
q0 2 1 3.5t1 3.5q0 10 -1 18.5t-2.5 17.5t-3 17.5t-1.5 17.5zM44 154q0 5 2.5 7.5t6.5 3.5t8.5 1h7.5q5 0 10 -1.5t9 -2.5q1 -2 1.5 -4t1.5 -4q1 -20 2.5 -40t1.5 -40v-18q-2 -7 -8 -11h-3h-2.5h-3.5h-2q-6 0 -11 0.5t-8.5 2.5t-5.5 5.5t-3 10.5l-2 16t-1 16v5.5t-0.5 10
t-0.5 10v5.5v14v13zM53 143q0 -3 0.5 -7t2.5 -7q6 -1 10.5 -1.5t10.5 -0.5h3q2 0 3 2v5v8t-1.5 7.5t-5 5.5t-8.5 2q-7 0 -11 -3t-4 -11zM55 116v-6v-7t1 -7q6 -1 10 -1.5t9 -0.5q3 0 6.5 0.5t3.5 4.5q0 8 -0.5 11t-2.5 4.5t-6 2t-10 1.5q-1 0 -3 0.5l-2 0.5h-1v0q-1 0 -3 -1
t-2 -2zM58 82v-5v-4q0 -5 0.5 -8t2 -5t4.5 -3t7 -1h4h4q4 3 4.5 6t0.5 8q0 4 -0.5 7t-4.5 6h-8q-3 0 -7 0.5t-7 -1.5z" />
</svg>
