<?xml version="1.0" standalone="no"?>
<!DOCTYPE svg PUBLIC "-//W3C//DTD SVG 1.1//EN" "http://www.w3.org/Graphics/SVG/1.1/DTD/svg11.dtd" >
<svg xmlns="http://www.w3.org/2000/svg" xmlns:xlink="http://www.w3.org/1999/xlink" version="1.1" viewBox="-10 0 266 256">
   <path fill="currentColor"
d="M185 163q-2 6 -7.5 9.5l-11 7t-9.5 7.5t-4 11v48q0 1 1.5 3t2.5 2q3 0 5 -3q0 -1 0.5 -2.5t0.5 -3.5t0.5 -3.5t0.5 -2.5t-0.5 -3.5l-1 -5l-1 -5t-0.5 -4.5l3 -24q0 -1 3.5 -3t8 -5t8.5 -5.5t6 -4.5q6 -10 7 -21.5t1 -22.5q0 -19 -1 -37.5t0 -36.5l-5 -10t-4 -6t-6.5 -3
t-13.5 -1q-1 0 -2.5 0.5l-3 1t-2.5 1t-1 2.5v2h7t8 1t8 3t5 6q0 2 0.5 8t1 12.5t1 12.5t0.5 8v16v15q-1 2 -1.5 7t-1 11t-1 11t-1.5 7zM148 33q-1 2 -3.5 3.5t-6.5 2.5t-8.5 2t-8 4.5t-6 9t-2.5 14.5v68v1.5v3t0.5 3t0.5 2.5t0.5 3t0.5 3q1 7 3.5 13t6 10.5t9 7.5t13.5 3
q0 -4 -0.5 -5t-1.5 -1.5t-3 -1t-5 -1.5q-1 0 -2.5 -1.5l-3 -3l-3.5 -3.5t-2 -3q-2 -2 -3 -7t-1.5 -11t-1 -11.5t-0.5 -8.5l-0.5 -2t-0.5 -5v-5v-2v-2t-0.5 -4.5t-0.5 -4.5v-4v-11q0 -7 1 -15t2.5 -14.5t5.5 -8.5q9 -5 14.5 -6t9 -3t4.5 -7t1 -18v-5t-3 -3q-5 0 -5 6
q0 1 -0.5 3.5t-0.5 5.5t0.5 5.5t0.5 3.5zM151 156v22h3t2 -2l3 -19q0 -1 2 -2t3 -1t3.5 -0.5t5.5 -1.5t5.5 -1.5t3.5 -0.5l0.5 -0.5t0.5 -1.5l-0.5 -1t-1.5 -1h-23q-2 0 -2 -2v-2q0 -2 1.5 -3t4.5 -1.5t6 -2t5.5 -4.5t4 -8.5t1.5 -13.5q0 -13 -3 -17.5t-7 -6t-7 -2.5t-3 -7
q0 -5 3 -6.5t7 -1.5t7 -0.5t3 -4.5q0 -1 -1.5 -2.5t-2.5 -1.5l-1 0.5t-2.5 0.5t-2.5 0.5l-1 0.5h-2q-5 0 -6.5 -4t-1.5 -8h-2q-3 0 -3.5 1.5t-0.5 3t-0.5 3.5t-2.5 4h-2.5t-4 0.5t-4 0.5h-2.5q-2 1 -4 1.5t-2 3.5v1t2 1h19l0.5 0.5t0.5 1.5v1.5v2.5q0 5 -2 7t-4.5 3t-5.5 2
t-6 4q-2 7 -2.5 12t-0.5 12q0 1 0.5 5t0.5 5q1 4 4 5.5l6 3l6 3t3 5.5v4h-3.5h-5.5t-5.5 0.5t-3.5 0.5q-3 1 -3.5 1t-0.5 2v2.5t1 1.5h19zM60 157q1 5 2.5 7t4 3t5.5 1h7t7.5 -0.5t6 -2t4 -4t3.5 -7.5q1 -18 2 -37t1 -37v-9v-10.5t-1.5 -10t-4.5 -7.5h-4t-6 -0.5t-5.5 -0.5
h-3.5h-4q-5 0 -8.5 2.5t-5.5 7.5q0 6 -0.5 11t-0.5 10.5v10.5v11v23v7.5t0.5 12t0.5 12v7.5zM67 133q0 -1 0.5 -3l0.5 -2l1 -1l1.5 -0.5t4 -0.5t5 -0.5t3.5 -0.5h4q2 0 3 0.5t2 2.5v5q0 3 0.5 6.5t0.5 7.5q0 3 -1 6.5t-3 5.5h-3h-4q-5 0 -8.5 -2.5t-4.5 -6t-1.5 -8
t-0.5 -9.5zM158 127q0 -1 -0.5 -3t-0.5 -3q0 -5 2 -7t9 -2q2 0 4 1.5t2 4.5q0 1 -1.5 3l-3 4t-3.5 3t-4 1t-2.5 -0.5zM137 119q0 -4 3 -5.5t6 -1.5h3t2 1v16q-5 0 -9.5 -2.5t-4.5 -7.5zM66 116v-23q0 -1 1.5 -2t3 -1.5t2.5 -1t2 -0.5h4.5t5.5 -0.5t5 -0.5h2l2 1v25
q0 1 -0.5 1.5t-1.5 0.5l-1 0.5t-2 0.5h-23zM137 101q0 -6 4.5 -8t9.5 -2v12q0 1 -3 1.5l-3 0.5q-2 0 -5 -1t-3 -3zM158 100q0 -3 0.5 -6t5.5 -3q3 0 5.5 3t2.5 7q0 1 -1 2t-2.5 1.5t-3.5 0.5h-2q-4 0 -4.5 -1t-0.5 -4zM68 77v-5v-10.5t2 -7t5.5 -4t8.5 -1.5h3.5h1.5l2 2
q1 1 1.5 3.5t1 5.5t0.5 6v5v7q-1 0 -3 1t-3 1h-1h-10.5t-8.5 -3z" />
</svg>
