<?xml version="1.0" standalone="no"?>
<!DOCTYPE svg PUBLIC "-//W3C//DTD SVG 1.1//EN" "http://www.w3.org/Graphics/SVG/1.1/DTD/svg11.dtd" >
<svg xmlns="http://www.w3.org/2000/svg" xmlns:xlink="http://www.w3.org/1999/xlink" version="1.1" viewBox="-10 0 266 256">
   <path fill="currentColor"
d="M130 244q2 1 8.5 1.5t13.5 1.5t13.5 2t9.5 1h1h7t9.5 -0.5t7.5 -3t3 -7.5h-4.5h-7.5h-7.5h-5.5q-1 0 -4 -0.5t-5.5 -1t-4 -0.5h-1.5v-27q0 -3 2.5 -5t6.5 -3t8.5 -2.5t8 -4t6 -7t2.5 -11.5v-35l-0.5 -0.5t-0.5 -1.5q-1 0 -2.5 -0.5l-1.5 -0.5q-3 0 -4 3.5t-1 9.5v12.5
t-1.5 12.5t-5 10t-9.5 4h-2h-3q0 -1 -0.5 -2.5l-0.5 -1.5v-2t0.5 -2t0.5 -2.5v-1.5v-2v-2q0 -2 0.5 -8t1 -13t1 -13t0.5 -8q3 -2 5 -2h4t6.5 -0.5t9.5 -1t9.5 -0.5h5.5q2 -1 2 -2v-3q0 -3 -1 -4.5t-4 -2.5q-6 3 -13.5 4t-14.5 1q-8 0 -15 -0.5t-12 -0.5q-4 0 -9.5 0.5
t-11.5 1t-10.5 1t-5.5 1.5q0 1 -0.5 3t-0.5 3h43q1 0 1.5 1.5t0 3.5l-0.5 2q0 23 -1.5 47.5t-4.5 47.5q-1 2 -3 2h-3q-8 0 -11 -6t-3 -14v-63q0 -3 -1.5 -3.5t-3.5 -0.5q-3 0 -4 1t-1 5v69q0 3 0.5 6t2 6t3 5.5t3.5 3.5zM41 170q3 6 4.5 10t4 6.5t7 3.5t12.5 1q5 0 10.5 -1
t9.5 -3.5t7 -7t3 -11.5v-120l-7 -8h-1.5h-3.5h-4h-3h-7t-10.5 0.5t-10 2.5t-5.5 5q-3 7 -4 19.5t-1.5 26t-0.5 25.5v21v6v9v9v6zM54 152v-12q2 -2 5.5 -3t7.5 -1h8h8t5.5 3t1.5 7q0 6 -0.5 12t-1.5 12q-1 2 -4 3t-5.5 1.5t-6.5 0.5h-5h-4h-4q-3 -1 -4 -4t-1.5 -6.5t0 -7
t0.5 -5.5zM52 120q0 -2 0.5 -7t1.5 -10t2 -9t3 -4h28q2 0 2.5 2.5t0.5 4.5v1.5v1.5q0 1 -0.5 4.5t-0.5 7t-0.5 7t-0.5 4.5q-5 2 -11 2h-10h-13q-2 0 -2 -2v-3zM130 45v3q0 14 0.5 24t3 15.5t9.5 8t21 2.5q10 0 17 -2t11 -7.5t5.5 -14t1.5 -20.5v-2q0 -2 -0.5 -6.5t-0.5 -9
t-0.5 -9t-0.5 -6.5t-1.5 -3.5t-4 -3t-4.5 -2t-4 -1.5h-13q-7 0 -14.5 1.5t-13.5 5t-9 10t-3 17.5zM142 68v-3.5v-2.5l2 -2q0 -1 2 -1t5.5 -0.5t7 -0.5h6.5h9h5q2 0 4 0.5t3 2.5t1 5q0 4 -1 8t-3 7t-5 5t-7 2h-12t-9 -2t-6 -6t-2 -12zM55 79l-0.5 -1l-0.5 -1l0.5 -1.5
t0.5 -2.5q3 -5 3 -9q0 -3 0.5 -6t2.5 -5t10 -3h3h5h3h5q1 1 2 3.5t1 5.5v6v5v3.5v3.5q-2 2 -5.5 3t-5.5 1h-1q-2 0 -5 -0.5t-6.5 -0.5t-6.5 -0.5t-5 -0.5zM142 46v-3q0 -3 0.5 -7t2 -7.5t4 -5.5t7.5 -2h26q2 0 3.5 2.5t2 6t1 6t0.5 4.5q0 3 -2.5 5t-6 2.5t-7 0.5h-5.5
q-7 0 -12.5 -0.5t-13.5 -1.5z" />
</svg>
