<?xml version="1.0" standalone="no"?>
<!DOCTYPE svg PUBLIC "-//W3C//DTD SVG 1.1//EN" "http://www.w3.org/Graphics/SVG/1.1/DTD/svg11.dtd" >
<svg xmlns="http://www.w3.org/2000/svg" xmlns:xlink="http://www.w3.org/1999/xlink" version="1.1" viewBox="-10 0 266 256">
   <path fill="currentColor"
d="M159 151q4 0 5.5 7.5t2 18.5t0.5 24t0.5 24t1.5 18.5t4 7.5q5 0 7 -3.5t2 -8.5v-1q-2 -11 -2.5 -20.5t-1.5 -19t-1.5 -19.5t-1.5 -21l0.5 -1.5t1 -2t1 -1.5l0.5 -1h25q2 0 2.5 -2t0.5 -3v-2t-2 -2q-4 0 -10 0.5t-12 0t-12 -0.5t-11 -1q-2 -2 -2 -3v-3v-5t1 -7t2 -6.5
t4 -2.5q4 0 7.5 1.5t7 3.5t7 3.5t7.5 1.5h4.5t1.5 -4q0 -5 -3 -7t-8 -3t-10.5 -1.5t-10 -3t-7 -7.5t-1.5 -15q-1 0 -1.5 -1l-0.5 -1h-1q-2 0 -2.5 2.5t-1.5 4.5v2t-0.5 4t-0.5 4v3q-3 3 -10 5.5t-14 5.5t-12 6.5t-5 8.5h8q1 0 4.5 -2.5t9 -5.5t9.5 -5l2 -1.5t3 -1.5
q2 -1 4 2t2 5v9q0 2 0.5 4.5t0 5t-2 4t-4.5 1.5q-1 0 -4 0.5t-6.5 0.5t-6.5 0.5t-4 0.5h-18l-2.5 1t-2.5 2q0 3 2.5 5t4.5 2q3 0 6.5 -1t6.5 -1h3t3 2v8q0 13 -1.5 26t-3.5 25q-1 7 -3 14.5t-2 14.5q0 1 0.5 3t2.5 2t4 -2t3.5 -4t2.5 -4.5t2 -4.5q0 -3 0.5 -7t1 -9t1.5 -11
t1.5 -11t1 -9t0.5 -6q0 -1 0.5 -4.5t0.5 -6.5q0 -4 -0.5 -7t-0.5 -4q1 -1 1.5 -2.5t2.5 -2.5q4 -1 8 -1.5t8 -0.5zM50 82v3t0.5 4l1 4l0.5 2q0 1 -0.5 5.5t-0.5 8.5v9t1 5q0 6 1 11.5t5 8.5h8h12t11 -1.5t8.5 -5.5t4.5 -11q0 -4 1 -14.5t1.5 -22t1 -21.5t1.5 -14v-3v-4v-3
v-4v-4.5v-3.5l-7 -7h-1h-3h-3h-3h-11t-9 1t-7 4.5t-5 9.5q0 1 -1 5t-2 8.5t-2 8.5t-1 6q-1 1 -1 3.5t-0.5 4.5t-0.5 4v3zM61 112v-4q0 -3 2 -4q7 -2 12 -2h12h3h2l2 2v5q0 6 -0.5 11t-2.5 8t-6 5t-10 2q-5 0 -7.5 -2t-4 -5t-2 -7t-0.5 -9zM61 82q0 -1 0.5 -3.5l1 -5t2 -4.5
t3.5 -2h27q2 0 2.5 1t0.5 3t0.5 3.5l0.5 1.5q0 1 -0.5 4t-1 5.5t-2 4.5t-3.5 2h-24q-4 0 -5.5 -3.5t-1.5 -6.5zM169 21q-1 0 -2.5 0.5t-1.5 1.5v51q0 2 3 4t7 4.5t7.5 4.5t4.5 3h19q0 -5 -3.5 -7.5t-8 -4t-8 -3t-3.5 -5.5q0 -3 3.5 -4.5t8 -3.5t8 -4.5t3.5 -8.5v-28
l-1.5 -1.5l-1.5 -1.5h-1v0h-1l-1.5 1t-1.5 2t-0.5 4.5t-0.5 7.5t-0.5 7.5t-0.5 5.5t-1 5t-4 3h-2.5t-1.5 -1t-0.5 -2.5t-0.5 -3.5v-2v-2q0 -6 1 -10t1 -10v-1v-1v-2t-0.5 -3t-0.5 -3v-2h-3q-1 0 -3.5 0.5t-2.5 2.5v48q0 1 -1.5 2.5t-3.5 2.5v0q-2 0 -2.5 -1t-0.5 -3v-3v-2
q0 -7 1 -13.5t1 -12.5v-4v-4l-1.5 -1.5zM139 74q0 1 -2 1.5t-5 1t-7 1t-7 2t-5 3.5t-2 6q5 0 12.5 -1.5t14 -4.5t11.5 -7t6 -10q1 -2 1 -7t1 -10t1 -10t1 -6v-4q0 -2 -0.5 -4.5t-2.5 -2.5q-1 0 -2 0.5t-2 1.5v30v3t-0.5 4t-2 3.5t-3.5 1.5q-1 0 -1.5 -1.5t-0.5 -3.5v-3.5
v-2.5q0 -9 1 -18.5t1 -18.5q0 -3 -2 -5t-5 -2t-4 0.5t-1 3.5q0 6 1 12t1 13v16l-1.5 0.5l-1.5 0.5h-1q-2 0 -4.5 -2t-2.5 -4v-20q0 -2 -2 -4.5t-4 -2.5h-0.5h-0.5l-0.5 0.5l-1.5 1.5v7v7t0.5 6t1 6.5t0.5 8.5q2 2 5.5 3t7 1.5t6 2t2.5 6.5zM68 56v-3v-2q0 -2 -0.5 -4.5
t0 -4.5t1.5 -4t4 -2q1 -1 3.5 -1.5l5 -1t5 -0.5h2.5q8 0 9.5 3.5t1.5 9.5v5t-1 5q-7 1 -11.5 1h-10.5q-2 0 -4.5 0.5t-4.5 -1.5z" />
</svg>
