<?xml version="1.0" standalone="no"?>
<!DOCTYPE svg PUBLIC "-//W3C//DTD SVG 1.1//EN" "http://www.w3.org/Graphics/SVG/1.1/DTD/svg11.dtd" >
<svg xmlns="http://www.w3.org/2000/svg" xmlns:xlink="http://www.w3.org/1999/xlink" version="1.1" viewBox="-10 0 266 256">
   <path fill="currentColor"
d="M136 194h-1q0 1 -1.5 2.5l-1.5 1.5v44q0 4 4 5.5t9 2.5t9 1h7q11 0 17.5 -1.5t9.5 -6t4 -12t1 -18.5v-2v-4v-3v-2q0 -2 -1 -4t-2 -3.5t-2.5 -2.5t-3.5 -1t-2 2.5t-1.5 5.5t-4 5.5t-8.5 2.5h-6.5h-7t-7 -1t-5.5 -3q0 -1 -0.5 -2t-1 -3t-1.5 -3t-3 -1zM142 224q0 -4 4 -5.5
t9.5 -2.5t10.5 -1h8v0l3 1.5t3 2.5v14q0 2 -3 3t-7 1.5t-7.5 0.5h-4.5q-7 0 -11.5 -2.5t-4.5 -11.5zM108 181q0 2 1.5 4t3.5 2h2.5t3.5 -0.5t4 -0.5h2q3 -1 10.5 -1t15.5 -0.5t15 -0.5h10q1 0 4.5 0.5t4.5 1.5h2q1 0 6 -0.5t10.5 -1t9.5 -2.5t4 -5q0 -4 -2.5 -5t-5.5 -1
q-5 0 -10 1t-10 1h-4h-4q-3 -1 -4 -4.5t-1 -6.5q0 -4 2 -6t4.5 -3.5t5 -2.5t3.5 -3q1 -1 1.5 -3.5t0.5 -5v-4.5v-4v-3.5t-1 -5t-2 -4.5t-4 -2h-34q-1 0 -4 1t-5.5 2.5t-5 3.5t-2.5 4v21q1 0 2.5 1.5l2.5 2.5l2.5 2.5t1.5 2.5v2v4v4v4t-0.5 3.5t-1.5 2.5h-32q-1 0 -1.5 2.5z
M47 145q3 5 3 11.5t0.5 12t4.5 9.5t15 4h8.5t9 -1.5t8 -4.5t4.5 -8q1 -6 1 -10.5t0.5 -9t0.5 -9.5v-10v-37q0 -18 -4 -36q-2 -4 -6 -6h-2.5h-3.5h-4h-2q-17 0 -25 8t-6 26l-2 1v60zM152 165q0 -4 1.5 -6.5t6.5 -2.5h5.5t2.5 4q0 3 -0.5 6.5t-1.5 6.5q-2 2 -3.5 2h-4.5h-4
q-1 -3 -1.5 -5t-0.5 -5zM61 146v-2.5v-1.5l3 -2h28v23q0 2 -2.5 3.5t-6 2t-6.5 1l-3 0.5q-4 0 -6.5 -2.5t-4 -6t-2 -8t-0.5 -7.5zM145 137q0 -1 0.5 -3t1 -3.5t1.5 -3t3 -1.5h27q2 0 3 2.5t1 4.5q0 8 -5 11t-13 3h-5.5t-6 -1t-5 -3t-2.5 -6zM59 120v-3q0 -1 0.5 -3t0.5 -4
t0.5 -4t0.5 -3t2 -2.5t3 -1.5h26v29h-28q-3 0 -4 -3t-1 -5zM112 99v0q0 1 1.5 2t1.5 2h10q20 0 38.5 -1t37.5 -1q4 0 5 -1.5t1 -4.5v-2t-2 -2h-36l-2 -2t-3 -4v-1v-2q0 -1 0.5 -2.5t0.5 -3t0.5 -3l0.5 -1.5q16 -1 23.5 -10.5t7.5 -24.5q0 -3 -1.5 -5.5t-5.5 -2.5
q-2 0 -3 0.5t-2 3.5q0 3 -0.5 7t-2 8t-4 6.5t-6.5 2.5l-1 0.5t-2 0t-2 -0.5t-1 -1v-41q0 -2 -3 -3t-4 -1q-3 0 -5 4t-2 6q0 7 1.5 15t2.5 14v1v1q0 1 -0.5 4.5t-1.5 4.5h-1h-1q-6 0 -10 -3t-5.5 -7t-2 -9.5t-0.5 -10.5q-3 -4 -7 -4q-2 0 -4.5 1.5t-2.5 3.5v1q0 3 0.5 7
t1.5 8l2 8t3 7q0 1 1.5 2t3 2.5t2.5 2l1 0.5h19q1 0 1.5 1t0.5 2v2v1q0 7 -2 10t-5.5 5t-8 2h-9.5h-9.5t-8.5 1l-1 4v1zM62 80q0 -9 5 -13.5t14 -4.5q4 0 6.5 2t3.5 5t1.5 6.5t0.5 6.5q0 2 -1 4.5t-4 2.5h-22q-2 0 -2.5 -1t-1 -2.5t-0.5 -2.5v-3z" />
</svg>
