<?xml version="1.0" standalone="no"?>
<!DOCTYPE svg PUBLIC "-//W3C//DTD SVG 1.1//EN" "http://www.w3.org/Graphics/SVG/1.1/DTD/svg11.dtd" >
<svg xmlns="http://www.w3.org/2000/svg" xmlns:xlink="http://www.w3.org/1999/xlink" version="1.1" viewBox="-10 0 266 256">
   <path fill="currentColor"
d="M177 137q1 0 2 1.5t1 3.5t0.5 3.5l0.5 1.5l8 99q0 1 1 3t3 2q4 0 5.5 -3t1.5 -7q0 -11 -0.5 -23t-1.5 -24q0 -7 -1 -14.5t-2 -14.5l-2 -14t-1 -15q0 -3 0.5 -4t1.5 -2l2 -2t2 -3q4 -8 5.5 -15.5t1.5 -14.5v-9q-1 -2 -2 -3l-2 -2l-2 -2t-4 -2q-1 0 -4.5 -0.5t-7.5 -1
t-7.5 -1t-4.5 -0.5q1 -5 -0.5 -8t-1.5 -8q0 -4 2.5 -8.5t6.5 -4.5q5 0 8 2t6.5 4t6.5 4t6 2q4 0 4.5 -2t0.5 -6v-1l-0.5 -1t-1.5 -2q-6 -2 -10 -3t-7.5 -2.5t-7 -3.5t-7.5 -4q-1 0 -2 -0.5l-1 -0.5v-21q0 -2 -2 -2h-3t-3.5 0.5t-2.5 2.5v21q0 1 -2.5 3t-6 3.5l-7 3t-4.5 2.5
q-1 0 -3 1t-4 2.5t-3.5 2.5t-2.5 2l-1 1t-1 2v1q0 2 1.5 2h2.5q4 0 7.5 -2l7 -4l7 -4t7.5 -2v25l-2 5h-2.5t-3.5 0.5t-4 0.5h-3q-2 1 -3.5 2t-1.5 3q0 3 1 3.5t3 0.5q7 0 14 -1t15 -1h1.5h1.5q1 0 3.5 0.5t4.5 0.5t3.5 0.5l1.5 0.5l3 3v21q0 1 -2 3.5t-3 2.5q-4 -5 -8 -7.5
t-8 -3.5t-9.5 -1.5t-10.5 -0.5h-5t-6.5 0.5t-6 2t-1.5 4.5q1 2 2.5 2.5t2.5 0.5q5 0 10 -1t9 -1q3 0 6.5 0.5t6.5 1.5t5 3t2 6t-2.5 6.5t-6.5 3.5t-8.5 1.5t-8.5 2t-6.5 4t-2.5 7.5q4 0 9 -1.5t10 -2.5t9 -2.5t7 -3.5h1zM85 204q0 8 1 14.5t2 14.5q2 7 4.5 10.5t6.5 5t9 1
t13 -0.5h16q9 -2 13.5 -6t6 -9.5t1 -12.5t-0.5 -16v-18.5t-2 -12.5t-8 -7t-18 -2h-11q-6 0 -12.5 1t-12 4t-6.5 10q-1 2 0 5t-2 6v2v4.5v3.5v3zM98 229q0 -4 5 -5.5t11.5 -2.5t12.5 -1h8h8q2 1 2 2v3q0 6 -2 9.5t-5 5t-7.5 1.5h-9.5h-8t-7.5 -1t-5.5 -3.5t-2 -7.5zM97 208
q0 -7 6 -9q2 0 7.5 -1t12 -1.5t12 -1.5t7.5 -1h2h3v13q0 2 -5 3t-11.5 1.5t-11.5 0.5h-9h-2h-4h-4h-2q-1 -1 -1 -2v-2zM96 184q0 -4 4 -6.5t9.5 -3.5t11 -1h8.5h9q4 1 5 2.5t1 4.5q0 5 -4.5 7t-10.5 2.5t-12 0t-9 -0.5h-3h-4t-3.5 -1.5t-1.5 -3.5zM48 150v2.5t3 1.5
q1 0 2.5 -0.5t3.5 -0.5t4 -0.5t3 -0.5t3 -0.5l4 -1l4 -1l2 -0.5h3h5h5h3q2 0 7 -0.5t11 -0.5t11 -0.5t7 -0.5v-6h-19q-1 0 -1.5 -0.5t-0.5 -1.5q-1 -1 -1.5 -3l-0.5 -2q0 -5 2.5 -8l5 -6t5 -6.5t2.5 -9.5v-9q-3 -4 -8 -5h-3h-4h-4h-2h-12t-13.5 1.5t-11 5t-4.5 11.5
q0 6 2.5 9.5t5 6.5t5 5.5t2.5 6.5l-0.5 2t-1.5 3l-0.5 0.5l-0.5 0.5h-20q-2 0 -2.5 3.5t-0.5 4.5zM83 134q0 -6 7 -6q3 0 5.5 1t2.5 4q0 5 -1.5 7t-6.5 2q-4 0 -5.5 -2t-1.5 -6zM72 116q-1 -2 -1.5 -3.5t-0.5 -3.5q0 -5 4.5 -8t10.5 -3.5t12 -0.5h9q2 0 2.5 1t1 2.5t0.5 3
v2.5q0 4 -2 7t-4.5 4.5t-6 2t-7.5 0.5q-6 0 -9 -0.5t-9 -3.5zM46 76q0 2 0.5 3.5t3.5 1.5q8 0 16 -1.5t16 -2.5h42q2 1 2.5 0t0.5 -3v-1.5t-1 -1.5q-2 0 -5 -0.5t-6.5 -0.5t-7 -0.5t-4.5 -0.5h-6q0 -6 0.5 -8t1.5 -2.5t4 0t8 -2.5q3 -1 5 -4.5t3.5 -7.5t2.5 -8t1 -7t-1 -6.5
t-5 -3.5h-1v0q-1 0 -2 1l-1 1q-1 2 -1 7t-1 9.5t-3 7.5t-6 3h-3t-2 -1v-37q0 -2 -2 -2h-3q-3 0 -4.5 3t-1.5 7.5v10.5t-0.5 10.5t-1.5 7.5t-4 3q-6 0 -7.5 -4.5t-1.5 -10t-0.5 -11.5t-4.5 -8q-1 -1 -3 -1.5l-2 -0.5q-3 2 -3 5v5q0 6 1 13t4 12t8 8t12 1q2 1 2 2.5v3.5v3
t-2 2q-3 1 -7.5 1.5l-9 1t-9 0t-7.5 -0.5q-3 -1 -3.5 1.5t-0.5 3.5z" />
</svg>
