<?xml version="1.0" standalone="no"?>
<!DOCTYPE svg PUBLIC "-//W3C//DTD SVG 1.1//EN" "http://www.w3.org/Graphics/SVG/1.1/DTD/svg11.dtd" >
<svg xmlns="http://www.w3.org/2000/svg" xmlns:xlink="http://www.w3.org/1999/xlink" version="1.1" viewBox="-10 0 266 256">
   <path fill="currentColor"
d="M130 250v1q1 0 2 1.5l1 1.5q1 0 2.5 -1.5t2.5 -1.5q3 -4 4 -9t1 -10.5v-10.5t1 -9.5t3.5 -7t8.5 -2.5h5l3 46l1 0.5t2 0.5h1q2 0 3.5 -1.5l2.5 -2.5q0 -1 0.5 -5t0.5 -6q0 -7 -2 -13.5t-2 -13.5q0 -4 2 -6.5t4 -5.5q4 -6 5 -12t1 -13v-9t-1 -10t-3 -9t-6 -8h-3h-4h-4h-2
q-9 0 -14.5 1t-9 3.5t-5 8t-1.5 14.5q0 4 -0.5 9.5t0 11t2 10t6.5 7.5v19q-1 1 -2 5t-2.5 9.5t-2.5 10.5t-1 7zM93 239q1 0 2 0.5t2 0.5v0v0h0.5h0.5q1 0 2.5 -1t1.5 -2l3 -47q2 -5 3 -14.5t2.5 -19.5t4.5 -18t9 -11q2 0 6.5 -1t10 -2t10 -2t6.5 -1l10 -2t8.5 -4t5.5 -7
t2 -11v-1v-3t-0.5 -4.5t-0.5 -5v-3.5q-2 -3 -5 -4t-6.5 -1t-7.5 -0.5t-6 -1.5v-4q0 -4 2.5 -5.5t6.5 -2l8 -1t6 -1.5q2 -2 2 -4h-7h-11h-12t-11.5 0.5t-8.5 2t-3 3.5t1 2.5t3 0.5q3 0 6.5 -1t6.5 -1v0q1 1 2.5 1.5l1.5 0.5v25q0 1 -1 1.5t-2.5 2t-3 2t-2.5 0.5
q-2 0 -3.5 -1.5t-2.5 -3.5l-0.5 -2.5t-0.5 -4.5t-0.5 -4.5l-0.5 -2.5q0 -1 -0.5 -3.5t-2.5 -2.5q-3 0 -3 1.5v2.5v6v8t1.5 7.5t4.5 3.5q8 2 18 2h18q0 -3 -2 -4.5t-5 -2t-5 -2t-2 -5.5v-1q1 -1 1.5 -2l0.5 -1l11 -3q3 -1 4.5 2t1.5 5v3v3.5t-0.5 5t-0.5 5v3.5q-4 6 -12.5 8
t-18 2.5t-18 2t-13.5 7.5q-3 4 -4.5 9t-2.5 10l-2 10t-3 9q-1 18 -3.5 35t-2.5 34v5zM137 186q0 -4 4 -6q7 -1 11 -1h11h7q1 1 1.5 2t0.5 2q0 4 -2 6.5t-5 4t-6.5 1.5h-7.5q-2 0 -4.5 -0.5t-4.5 -1.5t-3.5 -2.5t-1.5 -4.5zM139 171v-10q7 0 13 -1.5t12 -1.5q4 0 6.5 1t2.5 5
t-3 6t-7.5 2.5t-9 0.5h-7.5h-3h-2zM139 148q0 -2 1.5 -5t4.5 -3h22q2 0 2.5 2.5t0.5 3.5q0 4 -3.5 5.5t-8 2t-9 0.5h-6.5t-3 -2t-1 -4zM57 137q3 5 8 5.5t9 0.5q7 0 11 -2t6.5 -5.5t3.5 -8.5l2 -10v-5.5t0.5 -10.5t0.5 -11.5v-7.5v-5v-4q0 -3 -0.5 -7t-0.5 -8v-7v-3l-6 -6
h-3h-4h-11t-8 2t-4.5 6t-2.5 11q0 4 -0.5 11.5t-1 15.5t-1 14t-0.5 7q0 2 0.5 6t0.5 8.5t0.5 8.5t0.5 5zM64 114v-5l2 -1h1.5t4 -0.5t5.5 -0.5h5h2q5 0 5 4v2v1q0 2 -1 5t-1.5 6t-1 5.5l-0.5 2.5l-3 3h-12q-3 0 -4 -3t-1.5 -6.5t-0.5 -7.5v-5zM146 39h-3.5t-6 0.5t-6.5 0.5
h-4q-3 1 -6 1.5t-5 1.5t-3.5 3t-1.5 5q0 1 -0.5 4t-1 7t-1 7.5t-0.5 4.5t-1 3t-1 3v4.5v6.5v7.5v4.5q1 0 4 -0.5t4 -3.5l2 -41q1 -6 6 -9t12.5 -4t14.5 -0.5t11 0.5t9.5 -0.5t10 0.5t8 3.5t3.5 7.5q1 10 2 21.5t0 21.5q0 2 1 2.5t2 0.5q2 0 3.5 -2t2.5 -4v-3.5t0.5 -5
t0.5 -5v-3.5v-1q0 -2 -0.5 -7t-1.5 -10.5t-2 -10.5t-2 -5q-3 -3 -7.5 -4.5t-9.5 -2t-9.5 0t-8.5 0.5l-3 -1.5t-1 -2.5v-2v-1.5t0.5 -3t0.5 -2.5v-2v-1v0v-3t-0.5 -4t-0.5 -4v-2q-2 -2 -2.5 -2h-2.5t-3 2.5t-1 4.5q0 4 1 8t1 8v6zM64 94q0 -9 5 -11.5t12 -2.5h7q2 1 2.5 3
t0.5 4v2q0 2 -0.5 4t-1 3.5t-1.5 1.5h-21q-2 0 -2.5 -1.5t-0.5 -2.5zM83 49q4 0 5 1t2 3t1 5v4v3q0 1 -0.5 2.5t-1.5 2.5t-3 1h-17v-16q0 -2 1.5 -3t4 -2t5 -1h3.5z" />
</svg>
