<?xml version="1.0" standalone="no"?>
<!DOCTYPE svg PUBLIC "-//W3C//DTD SVG 1.1//EN" "http://www.w3.org/Graphics/SVG/1.1/DTD/svg11.dtd" >
<svg xmlns="http://www.w3.org/2000/svg" xmlns:xlink="http://www.w3.org/1999/xlink" version="1.1" viewBox="-10 0 266 256">
   <path fill="currentColor"
d="M62 246q0 1 1 3t3 2v0l3 -3l2 -2l3 -70l3 -2l6 -0.5t14.5 -1.5t17 -1.5t14.5 -0.5q3 0 11 -0.5t17.5 -0.5h17.5h11q0 -1 0.5 -2l0.5 -1q0 -2 -1.5 -4.5t-4.5 -2.5q-9 0 -18.5 2t-19.5 2q-1 0 -4 -0.5t-4 -0.5q-3 0 -4 -1t-1 -4t2 -4.5t5 -2t6 0t5 -0.5h4.5h6t6.5 -0.5
t4 -0.5t1.5 -1.5l0.5 -1.5l0.5 -0.5t0.5 -1.5h-37q-2 0 -3.5 -1.5t-1.5 -3.5v-1q1 -1 2.5 -3t2.5 -2h33q1 0 1 -1.5v-1.5q0 -2 -1 -3.5t-3 -1.5h-32q-1 0 -1.5 -2t-0.5 -3t0.5 -3t3.5 -1q7 1 13.5 2t14.5 1h8q1 0 1.5 -1t0.5 -2l-2.5 -2.5t-2.5 -1.5q-8 0 -13 -0.5t-13 -1.5
q-1 0 -4 -0.5t-3 -1.5v-1l3.5 -1t5.5 -2l2 -0.5t4.5 -1t4.5 -1l2 -0.5q1 0 2.5 -1.5l2.5 -2.5v-1q0 -4 -4.5 -5.5t-10 -3t-10.5 -3t-5 -4.5q-1 -1 -0.5 -3t0 -4t-1.5 -3.5t-3 -1.5h-2q-1 0 -2 0.5t-1 1.5v12l-1.5 0.5t-2.5 0.5q-2 1 -6 2t-8.5 2.5t-8.5 3t-6 1.5q0 1 -2 1.5
t-4 2t-3.5 2.5t-1.5 3q0 1 0.5 2l1.5 3l1 2h11l1 2t1 3q-1 2 -3.5 4l-5 4t-5 3.5t-3.5 3.5q-4 5 -6.5 13.5t-4 18t-2.5 20.5t-1.5 21t-0.5 19v15v11zM165 215q5 0 9 4t6.5 8.5t5 8.5t5.5 4t4 -2t1 -5q0 -7 -4 -11t-9 -7.5t-9 -7t-5 -9.5v-1v-3v-3v-2l-1.5 -2t-3.5 -3
t-4 -2.5t-3 -1.5h-54q-3 0 -4.5 1.5t-1.5 4.5v0q0 1 1 1.5t2 0.5h53q3 0 6 2.5t3 5.5q0 2 -3 2h-3q-6 0 -12 -0.5t-12 -0.5h-13q-1 0 -5 0.5t-8.5 1t-8.5 1t-5 0.5q-4 1 -4 5v1l0.5 0.5l0.5 0.5h3h4q9 0 18.5 -1.5t18.5 -1.5h5.5h8t8 1t4.5 4q-2 2 -4.5 3t-4.5 3
q-13 3 -26.5 5t-26.5 2q-2 1 -2 2v2q0 3 2 3.5t5 0.5q12 0 24.5 -2.5t24.5 -5.5q2 0 3.5 -1.5t3 -2.5t3.5 -2t4 -1zM75 160q0 -3 1 -4.5t4 -1.5q5 -1 8.5 -1.5t6.5 -0.5h6h8h9q3 1 3 3v4v1.5v1.5q-3 2 -7 2.5l-8 1t-8 0t-7 -0.5h-3h-4h-3h-2q-3 -1 -3.5 -2t-0.5 -3zM81 143
q0 -4 2.5 -6.5t6 -3t7.5 0t7 0.5h3h4h4h3t2.5 1t1.5 3v0q0 1 -0.5 3.5l-0.5 2.5q-5 1 -8.5 1.5t-6.5 0.5h-6h-7h-9q-2 0 -2.5 -1t-0.5 -2zM95 125q0 -3 2 -5t4.5 -3.5t5.5 -2t5 -0.5q4 0 7.5 1t3.5 6q0 3 -2 4t-4.5 1.5t-5 0.5h-4.5h-9q0 -1 -1.5 -1.5l-1.5 -0.5v0zM97 100
q0 -2 2.5 -4t5.5 -3t6.5 -2t4.5 -1q5 0 6 3t1 7t-3 5t-7 1h-5t-5.5 -0.5t-4 -2t-1.5 -3.5zM132 90h2q2 0 6 1.5t4 4.5v1q-2 0 -6 1.5t-6 1.5v-10zM74 73q4 5 9.5 5.5t10.5 0.5h5h5q7 -3 10 -8t4 -11t1 -12v-12q0 -11 -4.5 -15.5t-15.5 -4.5h-8.5t-8.5 1.5t-8 4t-5 6.5v9
q0 9 1 18t4 18zM137 45v14t2 10.5t6.5 7t13.5 2.5q4 0 8.5 -0.5t8 -2t6.5 -4t4 -7.5v-16v-17.5t-3 -10t-9 -4.5t-17 -1q-7 0 -11 2.5t-6 6.5t-2.5 9.5t-0.5 10.5zM81 62q0 -4 7 -4h19q2 0 2.5 1.5t0.5 2.5q0 3 -2 5t-5 2.5t-6.5 1t-5.5 0.5q-4 0 -7 -2.5t-3 -6.5zM145 64
q0 -2 2 -3.5t4.5 -1.5h5h3.5h3.5h5.5t5 1t2 4q0 2 -2 3.5t-5 2t-5.5 1t-4.5 0.5t-4 -0.5t-4.5 -1t-4 -1.5t-1.5 -4zM145 46q0 -1 0.5 -2t2.5 -1h28v7q-2 0 -5 0.5t-6 0.5t-6 0.5t-5 0.5v0q-3 0 -6 -1.5t-3 -4.5zM78 46q0 -2 3 -3t6.5 -1.5t6.5 -0.5h5h3q2 0 4 0.5t3 1.5t1 3
t-1.5 3t-2.5 1h-11h-11q-1 0 -3.5 -1t-2.5 -3zM80 31q0 -3 2 -4.5t4.5 -1.5h5.5h4h8l1 0.5t2 1.5t1.5 2t0.5 2l-1.5 1t-1.5 2h-4t-6 0.5t-6 0.5h-4h-1q-2 0 -3.5 -1t-1.5 -3zM145 32v-1q0 -3 2 -4.5t4.5 -1.5h5.5h4h8q3 0 4 1t1 3t-1.5 3t-3.5 1.5t-4 0.5h-3q-5 0 -8.5 -0.5
t-8.5 -1.5z" />
</svg>
