<?xml version="1.0" standalone="no"?>
<!DOCTYPE svg PUBLIC "-//W3C//DTD SVG 1.1//EN" "http://www.w3.org/Graphics/SVG/1.1/DTD/svg11.dtd" >
<svg xmlns="http://www.w3.org/2000/svg" xmlns:xlink="http://www.w3.org/1999/xlink" version="1.1" viewBox="-10 0 266 256">
   <path fill="currentColor"
d="M115 238v2v5t1 3t3 1q3 -1 5 -5t2 -7t-1 -5.5t-1 -4.5q0 -3 1.5 -4t4.5 -1q17 0 34.5 2t35.5 2q2 0 2.5 -1.5t0.5 -2.5q0 -2 -0.5 -4.5t-2.5 -2.5h-31q-4 0 -4.5 -2.5t-0.5 -4.5v-2q0 -2 0.5 -3.5t1 -2.5t1.5 -1h28q1 0 1.5 -1t0.5 -2v-2q0 -1 -1 -2l-1 -1h-26l-3 -3v-14
h31v-8h-27q-3 0 -4 -3t-1 -5q0 -3 0.5 -5.5t1.5 -5.5h2q3 0 6 1.5t6.5 3.5t7 3.5t6.5 0.5q4 0 5 -1t1 -4q0 -4 -4.5 -5.5t-10.5 -2t-11.5 -1.5t-7.5 -5q2 -3 6.5 -4.5t10 -2.5t9.5 -2t4 -4q0 -5 -4.5 -7.5t-10.5 -4.5t-11 -4.5t-7 -5.5q-2 -5 -3 -11t-1 -12q0 -5 0.5 -11
t-1.5 -12q2 -5 5 -8t7.5 -4.5t9 -2t9.5 -0.5v0v0q1 0 3 0.5t4 0.5t3.5 0.5t2.5 0.5q2 -1 2.5 -2.5t0.5 -3.5v-2t-1 -2h-22q-1 0 -1 -0.5t-1 -0.5v0v-1v-0.5v-0.5l1 -1.5t1.5 -3t1.5 -2.5t1 -2v-0.5v-0.5q0 -5 -5 -5q-3 0 -6 4.5t-6 10t-6.5 10t-7.5 4.5q-2 0 -5 -5
t-6.5 -11.5t-7.5 -12t-9 -5.5q-2 0 -3 1.5t-3 3.5v0.5v0.5q0 2 1.5 3.5l3 3t3 3.5t1.5 4v3q-1 0 -4 0.5l-6 1l-6 1t-4 0.5q-2 1 -2.5 1.5t-0.5 2.5v1t1 2h8h8l1.5 -0.5t3.5 -0.5t3.5 -0.5t2.5 -0.5q6 0 10 4t6 9.5t3 12t1 10.5v6.5v6.5t-1 6l-2 6q-2 3 -7 6.5l-10 7t-9 7
t-4 7.5v0q0 1 1 1.5l1 0.5l2 -1t3 -1h3q2 0 5 0.5t6 1.5t5 2.5t2 2.5t-1 2t-2.5 2t-2.5 1.5l-1 0.5q-1 0 -3 1.5l-4 3t-3.5 2.5t-2.5 2q-3 2 -5 8t-3.5 14.5t-3 18t-2.5 18t-1 16v11.5zM125 209q0 -3 0.5 -6t3.5 -4q1 -1 5 -1t8.5 -0.5t8.5 -1t5 -0.5h2v12q-2 1 -2.5 3
t-2.5 3h-7h-5.5h-7t-6 -1t-2.5 -4zM127 185q0 -1 0.5 -5.5t2.5 -6.5q1 0 4.5 -0.5t5.5 -1.5h1h2l2 0.5t4.5 1t4.5 0.5h2q2 2 2 4v5q0 2 -1.5 5t-4.5 3h-20q-2 0 -3.5 -1.5t-1.5 -3.5zM54 159q1 3 5 7t8 4h21q1 0 2 -1l2.5 -2.5t3 -2.5t2.5 -2q0 -2 0.5 -8t1.5 -12.5t1.5 -12
t0.5 -8.5v-3v-7v-7v-7v-4v-8v-7v-5q-1 -4 -1.5 -8t-0.5 -8.5t-1 -8.5t-5 -7q-5 -1 -8.5 -1h-8.5q-12 0 -19 5t-7 17q0 4 1 8t1 8v8q0 3 -2 7v4v6.5v6.5v5v12v10t1 10.5t2 11.5zM135 161q0 -3 2.5 -6.5t6 -6.5t7.5 -5t7 -2v18l-5 5h-17q-1 0 -1 -1.5v-1.5zM86 121h1
q0 1 2 1.5l2 0.5v12q0 3 0.5 6.5t0 6.5t-2 6t-4.5 5q-1 1 -3 1h-4q-2 0 -4.5 -0.5t-5 -1.5t-4.5 -3t-2 -5v-26l1.5 -0.5t3.5 -0.5l2 -0.5t5 -0.5h6t5 -1h1zM141 123v0l14 -14h2q2 0 5.5 1t6.5 2t5.5 3t2.5 5q0 2 -3 3.5t-6 1.5q-1 0 -1.5 -1t-1 -2.5t-1 -2.5t-2.5 -1h-1h-2
v4t-0.5 4t-2 3.5t-3.5 1.5q-1 0 -3.5 -0.5t-4 -1.5t-3 -2.5t-1.5 -3.5zM83 86q2 0 5 0.5l3 0.5l3 2v19q0 2 -2 3t-5.5 1.5t-6 1t-3.5 0.5l-2.5 -0.5t-5.5 -1t-5 -1.5t-2 -2v-18q0 -1 1 -2t3 -1.5t3.5 -0.5h1.5l1.5 -0.5t3.5 -0.5h4h3zM173 93q2 2 4 3t4 1q6 0 11 -0.5
t8 -2.5t4.5 -6t1.5 -11q0 -1 -0.5 -5t-2 -8t-3 -7.5t-3.5 -3.5q-1 0 -2.5 0.5t-1.5 1.5v13q0 1 -1.5 1t-3 0.5t-3.5 0.5h-2h-2.5t-2.5 -2l-0.5 -1.5t-0.5 -3t-0.5 -3.5l-0.5 -2h-4q0 8 0.5 17.5t0.5 17.5zM114 70v19q0 2 1 3t2.5 2t3.5 1.5t3 0.5q4 0 7.5 -0.5t8.5 -1.5
q2 -1 3 -3t1 -5v-5.5v-4.5t-0.5 -5l-1 -6l-1 -6t-1.5 -3q-4 2 -5 6t-2 6h-12q-1 0 -1.5 -2t-1 -4.5t-2 -5t-3.5 -2.5t-2.5 1.5t-0.5 2.5q0 3 0.5 6.5t3.5 5.5zM179 84q0 -3 1.5 -4t3.5 -1.5t4.5 -1t4.5 -0.5t3.5 0.5t1.5 2.5q1 3 -0.5 4.5t-3.5 3t-4.5 2.5t-3.5 1
q-3 0 -5 -2.5t-2 -4.5zM119 84q0 -6 4 -7t8 -1q2 0 4 0.5t3 2.5q-1 7 -3 9t-9 2q-3 0 -5 -1.5t-2 -4.5zM65 77q-3 -2 -3 -6.5v-8.5q0 -1 0.5 -3t1.5 -4.5t2.5 -4t3.5 -1.5h17q2 0 3.5 3t2 7.5t1 8.5t0.5 6q0 3 -2 4t-5 1h-5t-6.5 -0.5t-6.5 -0.5t-4 -1z" />
</svg>
