<?xml version="1.0" standalone="no"?>
<!DOCTYPE svg PUBLIC "-//W3C//DTD SVG 1.1//EN" "http://www.w3.org/Graphics/SVG/1.1/DTD/svg11.dtd" >
<svg xmlns="http://www.w3.org/2000/svg" xmlns:xlink="http://www.w3.org/1999/xlink" version="1.1" viewBox="-10 0 266 256">
   <path fill="currentColor"
d="M159 115q0 2 -0.5 5t-1.5 6l-2 6t-1 5v55l0.5 2.5t1 5.5t1 5.5t0.5 4.5q1 4 2 10t3 12.5t4.5 11.5t5.5 5q1 0 3 -1.5t2 -2.5q0 -7 -2.5 -12.5t-4.5 -10.5q-2 -6 -3.5 -15t-2.5 -18t-1.5 -17.5t-0.5 -14.5q0 -11 2.5 -22t5.5 -22t5.5 -22t2.5 -22q0 -6 -1 -15.5t-4 -19
t-8 -16.5t-13 -7q-2 0 -2.5 1t-0.5 2q0 4 2 7t4.5 6t5 5.5t3.5 5.5q1 4 2 8.5t1.5 9l1 9t0.5 8.5q0 2 -0.5 5.5l-0.5 3.5q0 2 -1 6.5t-2.5 10t-3 10t-2.5 6.5zM47 239q0 3 1.5 3.5t2.5 0.5q3 0 5 -3t3 -7.5t1.5 -10t1 -10t0.5 -8v-3.5q0 -1 0.5 -4t1 -5.5t0.5 -5.5v-4v-8
v-13v-14v-8l2 -32t1 -31v-7v-4t-0.5 -6t-0.5 -6v-3q0 -8 6 -12q2 0 5 -0.5t7 -1t7.5 -1t4.5 -0.5h5h6.5t6 -1.5t2.5 -4.5t-1.5 -3.5t-4.5 -0.5h-4h-2l-1 0.5t-2 0.5t-2 0.5l-1 0.5h-12t-13 1.5t-11 5t-6 11.5v3v7v5.5v3.5v3.5t-0.5 5t-0.5 5v2.5v13v21v21v12q-1 20 -2.5 39
t-1.5 39q-2 3 -3 7t-1 7zM181 134q0 14 0.5 28t1.5 27q0 3 1.5 10.5t4 15.5t6 14t7.5 6q7 0 7 -8v-1.5v-0.5l-1.5 -1.5l-1.5 -1.5t-1.5 -2t-0.5 -2q-1 -1 -2 -4t-2.5 -6.5t-2.5 -6.5t-1 -4q-4 -15 -5 -29t0 -29q-1 -3 -4.5 -4t-5.5 -1zM127 173v7t0.5 11.5t1.5 14t2.5 13
t3.5 9.5t5 4t4.5 -0.5t1.5 -4.5v-1v-1q0 -1 -1 -4l-2 -6l-2 -6t-1 -4v-2v-3v-4v-2q0 -1 -1 -4t-1 -4v-41q2 -6 2.5 -10t0.5 -9v-5q0 -1 -1.5 -1.5l-1.5 -0.5h-1q-2 0 -3.5 3.5t-3 8.5t-2 11.5t-1 12.5t-0.5 11v7zM77 93q0 5 -0.5 10.5t0 11.5t2.5 11.5t6 9.5h9q4 0 7.5 -0.5
t6.5 -2t5 -4.5t2 -8q1 -11 2 -19.5t1 -18.5q0 -5 -1 -9.5t-3 -8t-5.5 -6t-9.5 -2.5q-8 0 -12.5 3t-6.5 8t-2.5 11.5t-0.5 13.5zM86 104q0 -4 -0.5 -10.5t0 -12.5t3.5 -10t10 -4h3t2 2q1 4 1.5 6.5l1 5t1 4.5t0.5 5q0 8 -1.5 15.5t-2.5 15.5q-2 3 -4.5 5t-6.5 2h-1l-5 -9
v-1.5v-4.5q0 -2 -0.5 -4.5t-0.5 -4.5zM135 100q0 2 1 2.5t3 0.5q4 0 6.5 -4.5t4 -11t2.5 -12.5t1 -9q0 -4 -0.5 -9.5t-2 -11t-5 -9t-9.5 -3.5q-1 0 -3 0.5t-2 2.5h0.5t0.5 1l0.5 1t1.5 2t1.5 2l0.5 1l3.5 7t2 5.5t0.5 5.5v8v3q0 1 -0.5 3t-0.5 4v3q-1 4 -3.5 9t-2.5 9z
M186 94q0 2 1 4t4 2q5 0 8 -5t4.5 -12t2 -13.5t0.5 -9.5t-0.5 -8.5t-2 -10t-4 -8t-7.5 -3.5h-2.5t-1.5 2q0 4 2.5 8t3.5 8v13v11q0 5 -1 10q-2 3 -4.5 5.5t-2.5 6.5z" />
</svg>
