<?xml version="1.0" standalone="no"?>
<!DOCTYPE svg PUBLIC "-//W3C//DTD SVG 1.1//EN" "http://www.w3.org/Graphics/SVG/1.1/DTD/svg11.dtd" >
<svg xmlns="http://www.w3.org/2000/svg" xmlns:xlink="http://www.w3.org/1999/xlink" version="1.1" viewBox="-10 0 266 256">
   <path fill="currentColor"
d="M137 240v2t0.5 3.5t1.5 3.5t2 2q3 0 4.5 -2t2.5 -4.5t1.5 -5t1.5 -4.5v-40q0 -29 -1 -58.5t-1 -58.5v-6l2 -2t2.5 -2t2.5 -2t1 -2t-1 -2l-2 -2t-2 -1.5l-1 -0.5l-1.5 -1.5l-0.5 -0.5v-21q0 -2 1.5 -3l3 -2t2.5 -2t1 -3q0 -3 -2 -3.5t-5 -0.5q-8 0 -15 1l-14 2q-2 0 -3 1
t-1 3t1.5 2.5t3.5 0.5h3.5h5h5h3.5v25q0 3 -3 4.5t-6.5 2.5t-7 1t-4.5 1v5h19l2 2q-1 14 0.5 27t1.5 27q0 29 -2 57.5t-2 56.5zM180 207v2q0 1 0.5 5.5t0.5 10.5t0.5 11t0.5 6v2.5v3t1 2.5t3 1t3.5 -2t2.5 -4.5t1.5 -5.5t0.5 -4q0 -5 -0.5 -8t-2.5 -6v-70v-8l-1 -80h23v-8
h-3t-5 -0.5t-5.5 -0.5h-2.5q-2 0 -4.5 -0.5t-2.5 -1.5v-24q0 -1 1.5 -1.5l1.5 -0.5q1 0 3 -0.5l4 -1l4 -1t3 -1.5v-1v-1q0 -5 -5 -5v0q-3 1 -8 1.5t-9.5 1t-8.5 1l-4 0.5q-3 1 -4 1.5t-1 2.5v2v1q5 0 7.5 2t3.5 4.5t1 5.5v8v10q-1 0 -2.5 0.5t-3.5 1t-3.5 1t-1.5 1.5
q0 2 1.5 3t3.5 1.5l4 1t3 0.5v6v5v9t-0.5 14t-0.5 13.5v9.5q1 2 1 4.5v4.5v5.5v4.5l0.5 3.5t0.5 7.5t0.5 7.5t0.5 4.5t-0.5 7t-0.5 13t-0.5 12.5t-0.5 7.5v2zM45 232q0 2 0.5 5t3.5 3t4.5 -6t2.5 -16t1.5 -22t0.5 -22.5t0.5 -19.5t1.5 -12v-12t0.5 -18t1 -21t0.5 -21
t0.5 -18t0.5 -12q0 -8 5 -12t12.5 -5.5t15 -1.5h12.5q1 -1 1 -2v-3v-2.5t-1 -1.5h-6q-11 0 -20.5 1.5t-20.5 3.5q-3 3 -4.5 6.5t-3 7.5t-1.5 8t-1 8q0 4 0.5 14t0.5 21t-0.5 21t-0.5 14q0 2 -0.5 8t-1 12.5t-1 12.5t-0.5 8v2v3v3v3v5v3l2 2l-2 2l-0.5 5t-1 12.5l-1 15
t-0.5 12.5v6zM74 70v10q1 6 0.5 13.5t0 14.5t4 12t10.5 5q4 0 8.5 -1t8 -3t6 -5.5t2.5 -8.5v-1v-1q0 -1 -0.5 -7t-1 -12.5t-1 -12t-0.5 -7.5q-1 -5 -0.5 -9.5t-1 -8.5t-4.5 -6t-10 -2q-5 0 -8.5 1t-8.5 4q-3 6 -3.5 12.5t-0.5 12.5zM82 68v-4q0 -3 0.5 -5.5t0.5 -4.5v-2
l3 -3l2 -0.5t3 -0.5q6 0 8.5 3t3.5 7t0 9.5t0 11.5v2.5t0.5 5.5t0.5 6v3v3v2v2.5t-0.5 3t-0.5 3v2.5q-2 2 -4 2h-5q-6 0 -8.5 -6t-3.5 -13.5t-0.5 -15t0.5 -11.5z" />
</svg>
