<?xml version="1.0" standalone="no"?>
<!DOCTYPE svg PUBLIC "-//W3C//DTD SVG 1.1//EN" "http://www.w3.org/Graphics/SVG/1.1/DTD/svg11.dtd" >
<svg xmlns="http://www.w3.org/2000/svg" xmlns:xlink="http://www.w3.org/1999/xlink" version="1.1" viewBox="-10 0 266 256">
   <path fill="currentColor"
d="M123 245q0 3 1 3.5t4 0.5q4 0 6.5 -2.5t3 -6.5l1 -8t0.5 -7q1 -2 1.5 -5.5t1.5 -6.5t1.5 -6t1 -3.5t1.5 -4l2 -7t2.5 -7.5t1.5 -6q1 0 1.5 -1.5l1 -3t1 -2.5l0.5 -1q1 0 4 3.5t6.5 8t6.5 8.5t4 6q1 3 3 10t4 15t3.5 15t2.5 10h3q2 0 4.5 -0.5t3.5 -2.5v-6q0 -10 -3 -20.5
t-8 -20t-11.5 -18t-13.5 -16.5v-2q0 -3 3 -4.5t7 -3t7 -3t3 -5.5q0 -3 -3 -3t-5.5 1t-5 2.5t-5 2.5t-5.5 1t-5 -2.5t-2 -5.5t2 -4.5l4 -3t4.5 -3t3.5 -3.5q6 -8 7.5 -17.5t2.5 -19.5q1 -2 2.5 -4t3.5 -2t3.5 0.5t2.5 2.5q0 2 1.5 6.5t2.5 10t2 10.5t1.5 6.5t0 5.5t-0.5 8
t1.5 7t5.5 3t5.5 -3.5t1.5 -6.5v-3q-1 -3 -2 -8.5t-2 -12t-2.5 -12.5t-1.5 -8q-1 -3 -2.5 -5.5t-3.5 -5t-4.5 -4t-5.5 -1.5q-8 0 -12 3.5t-6 9t-3 12.5t-1.5 12.5t-2 9t-4.5 3.5q-2 0 -3 -0.5t-1 -2.5v-26q1 -1 1.5 -2.5t0.5 -3.5q0 -4 -1.5 -8t-5.5 -7h-3.5h-2.5
q-8 0 -12.5 3.5t-7 9t-3.5 12t-1 12.5q-1 2 -1 6.5v9.5v9v6q4 0 6 -1t2 -5q-1 -13 0.5 -25t4.5 -24q4 -5 10 -5q5 0 5.5 3t0.5 8v2.5t-0.5 3.5t-0.5 3.5v2.5v2v5v5v4q0 10 2.5 19.5t2.5 19.5q0 4 -1.5 7.5t-3 6t-3.5 5.5t-4 7q-2 5 -5 13t-5.5 16t-4 16t-1.5 14zM45 243
q1 1 2 2.5t3 1.5t3 -0.5t2 -2.5q-1 -24 -1 -49.5t0.5 -51.5t2 -51.5t5.5 -49.5q2 -4 5.5 -5.5t6.5 -1.5t9 -0.5t12.5 -1t12.5 -1t9 -0.5q2 -1 3.5 -2t1.5 -4q0 -2 -0.5 -3.5t-2.5 -0.5q-3 0 -8 0.5t-11 1t-11.5 1t-7.5 0.5q-1 0 -3.5 1t-3.5 1t-3.5 0.5l-5 1l-5 1t-3.5 0.5
q-3 1 -5 7t-3 14t-1.5 18t-0.5 19v16v10v15t-0.5 22.5t-0.5 26.5v27t-0.5 23t-0.5 15zM69 85v15q0 8 2 13t7 8t15 3q3 0 6 -1t5.5 -3t4 -4.5t1.5 -6.5v-3v-5v-5v-4v-4v-5.5v-4.5v-2q0 -2 -0.5 -5.5t-1.5 -6.5t-3 -5.5t-5 -2.5h-1q-1 0 -4.5 1t-7.5 2t-7.5 2t-5.5 1
q-2 2 -2.5 5t-1.5 5v3t-0.5 4t-0.5 4v2zM79 92q0 -4 0.5 -9t1.5 -8.5t4 -6t8 -2.5q1 0 3 -0.5t3 1.5v7t0.5 10.5t0.5 10.5v6v2q0 7 -1 9.5t-7 2.5q-5 0 -7.5 -2.5t-3.5 -5.5t-1.5 -7t-0.5 -8zM120 60v0.5v0.5l1.5 1.5l1.5 1.5q4 -1 10 -5.5t12.5 -9.5t11.5 -9t7 -4l2.5 1
t3.5 1q1 1 3.5 3t5.5 4.5t5.5 4.5t3.5 3l3 3t3.5 4t3.5 3t4 1h3t3 -2v-1.5v-2.5q0 -2 -1.5 -4.5t-3.5 -4.5t-4.5 -3.5t-4.5 -2.5q-1 -1 -4.5 -3t-7 -4.5t-7 -4.5t-4.5 -2v-15q0 -1 -1.5 -1.5t-2.5 -0.5t-2.5 0.5t-3 1.5t-2.5 1.5t-1 1.5v13q-2 1 -8 5.5t-13 9.5t-12 9t-5 6z
" />
</svg>
