<?xml version="1.0" standalone="no"?>
<!DOCTYPE svg PUBLIC "-//W3C//DTD SVG 1.1//EN" "http://www.w3.org/Graphics/SVG/1.1/DTD/svg11.dtd" >
<svg xmlns="http://www.w3.org/2000/svg" xmlns:xlink="http://www.w3.org/1999/xlink" version="1.1" viewBox="-10 0 266 256">
   <path fill="currentColor"
d="M45 132v113q0 4 0.5 5.5t3.5 1.5q5 0 6.5 -4.5t1.5 -7.5q-1 -49 0.5 -97t0.5 -96q1 -3 4 -5t6 -3t6 -1.5t6 -1.5h4.5t7 -0.5t7 -0.5h4.5q1 -1 1.5 -2t0.5 -2t-0.5 -2t-1.5 -1h-6q-12 0 -23 2t-22 5q-4 1 -5 4.5t-2 7.5q0 8 0.5 15t0.5 13.5t0.5 13t0.5 13.5v8q0 3 -0.5 6
t-0.5 7t-1 9zM116 180q0 15 2 25t7.5 15.5t14.5 8t23 2.5q12 0 18.5 -3.5t9.5 -10t3.5 -16t0.5 -20.5v-3t-0.5 -4t-0.5 -4v-2q-1 -3 -1.5 -6.5t-2 -7t-3.5 -6t-6 -2.5q-7 -2 -11.5 -2t-10.5 -2v-0.5v-1.5t1.5 -3.5t4 -5.5t4.5 -5t4 -3h30q1 0 4 -0.5t4 -0.5v-1.5v-1.5
q0 -4 -3 -6t-7 -2q-5 0 -10 2t-10 2q-3 0 -3 -1.5v-3.5q0 -3 0.5 -5t1.5 -4t2 -4.5t1 -4.5q0 -3 -1 -4t-3 -1q-5 0 -7.5 3.5t-4.5 7.5t-3 9t-3 8q0 1 -1.5 3.5t-2.5 4.5t-1.5 4l-0.5 2l-4 1l-6 -7q-1 -1 -2.5 -4.5l-3 -7l-3 -7t-1.5 -4.5q-1 -2 -2.5 -4.5t-3.5 -5t-4 -4.5
t-4 -2t-2.5 1.5t-0.5 2.5q0 3 1 5.5t2.5 4.5t2.5 4.5t1 5.5v3t-2 2h-12q-1 0 -1.5 -4t-0.5 -10t-0.5 -13t-2 -13t-4.5 -10.5t-8 -4.5q-2 0 -6 1.5l-8 3t-7 4.5t-3 7v2v3.5t0.5 7l1 7t0.5 4.5v13t1 13.5t5 10.5t12 4q5 0 8.5 -1t5.5 -3t4 -4.5t3.5 -4.5t4.5 -3t8 -1h7
q2 1 3 3t2.5 4.5t3 4t3.5 2.5v4q0 5 -2 7t-5 2.5t-6.5 1t-6.5 3.5t-5 9t-2 17zM130 201q0 -4 1 -6t3 -2.5t5 -0.5h6q1 0 5 -0.5t8.5 -0.5t8 -0.5t4.5 -0.5h1h1h1.5t2.5 0.5t2.5 1t1.5 1.5v6v6t-1 6t-3 4.5t-6 1.5h-28q-3 0 -5.5 -1.5t-4 -4t-2.5 -5.5t-1 -5zM126 174
q0 -6 3.5 -10t8.5 -6.5t10.5 -4t10.5 -1.5q3 0 7 1t7.5 2.5t5.5 4.5t2 8v2l-0.5 3t-1.5 3l-1.5 1t-3 1.5l-3 1t-2.5 0.5t-5.5 0.5l-9 1l-9 1t-5.5 0.5q-2 0 -4.5 -0.5t-4.5 -1.5t-3.5 -3t-1.5 -4zM80 80q0 -4 3.5 -7.5t7.5 -3.5h2.5t3.5 1q1 6 1.5 10.5l1 9t0.5 8.5v10v3
v4.5v4.5v3q-1 4 -2.5 5t-5.5 1t-6 -3t-3 -7t-1 -8.5t-1 -7.5v-3v-6.5t-0.5 -7t-0.5 -5.5v-1zM132 52q4 0 6 2.5t3 6t1.5 7.5t1.5 7.5t2 6t4 2.5q5 0 8.5 -4.5t6.5 -10.5t6 -11.5t5 -7.5h9q4 0 8.5 1t8.5 1q2 0 5.5 -1.5t3.5 -3.5q1 -5 -2 -6t-6 -1h-4h-5h-6h-3q-2 -1 -2 -2
v-2q0 -2 1 -4t2 -3.5t2 -3.5t1 -5t-2.5 -5.5t-5.5 -2.5q-2 0 -4 4t-4.5 9.5t-4.5 12.5t-4.5 12.5t-4.5 9.5t-4 4q-1 0 -2 -0.5t-2 -1.5q0 -1 -1 -4.5t-2 -7.5t-2 -7t-1 -5q-1 0 -1.5 -1.5l-0.5 -1.5q0 -1 -1.5 -2t-1.5 -2q-2 -3 -2.5 -6t-1.5 -6t-3 -5t-7 -2q-2 0 -3.5 0.5
t-1.5 3.5l0.5 1l0.5 1l9 20v1v1l-1 2h-3t-4 0.5t-4 0.5h-3l-1.5 0.5t-3 0.5t-2.5 1t-1 2q0 2 1.5 4t2.5 2q5 0 9.5 -0.5t10.5 -0.5z" />
</svg>
