<?xml version="1.0" standalone="no"?>
<!DOCTYPE svg PUBLIC "-//W3C//DTD SVG 1.1//EN" "http://www.w3.org/Graphics/SVG/1.1/DTD/svg11.dtd" >
<svg xmlns="http://www.w3.org/2000/svg" xmlns:xlink="http://www.w3.org/1999/xlink" version="1.1" viewBox="-10 0 266 256">
   <path fill="currentColor"
d="M158 225v13t1 12h2h1q5 0 7 -4t2 -8q0 -10 -1 -19.5t-1 -18.5v-15v-2t0.5 -2.5t1.5 -2.5l2 -2q5 0 11 -1.5t11.5 -5t9.5 -8t4 -11.5q0 -1 -1.5 -3.5t-3.5 -1.5q-4 1 -6.5 5t-4.5 8t-5 7t-8 3q-2 0 -4 -1t-2 -3q0 -5 3.5 -10t7.5 -9l7.5 -7.5t3.5 -6.5q0 -5 -4 -5
q-6 0 -10 5t-7 11t-6 11t-7 5t-6 -3v-3v-3q0 -5 2.5 -8t5.5 -5.5t5.5 -5.5t2.5 -8q-4 0 -8.5 3t-8.5 7t-6.5 8t-2.5 8t2.5 7l5 6t5 5.5t2.5 6.5q0 13 -1.5 26t-1.5 26zM47 238q1 1 2 3t2 2q5 0 6.5 -4t1.5 -7v-50l1 -10l1 -69q1 -5 1.5 -11t0.5 -12t0.5 -11.5t0.5 -10.5v-9
t1 -9.5t4 -7.5t10 -3h41q2 0 2.5 -2.5t0.5 -3.5q0 -2 -1.5 -3t-3.5 -1h-3.5h-2.5h-9l-1.5 0.5l-3 1t-3 0.5h-2.5q-6 1 -13 1t-12.5 1.5t-9.5 5.5t-6 12q1 37 -0.5 74t-2.5 75q0 12 0.5 24t-2.5 24zM116 240q1 1 2 1.5t2 0.5q2 0 4 -2.5t2 -4.5v-82q2 -2 2.5 -4.5t1 -5.5
l1 -6t2.5 -6q4 -4 8.5 -7.5t9.5 -6.5t9.5 -6t8.5 -7h27q1 0 2 -1.5l2 -3t1.5 -3l0.5 -1.5l2 -4t1.5 -3.5l1 -3l0.5 -1.5v-33q0 -6 -2 -8.5t-5.5 -4t-7.5 -1.5h-8t-7 -1t-4 -4v-5.5t-0.5 -6.5t-2 -5t-4.5 -2q-5 0 -6 3.5t-0.5 7.5t0 8t-5.5 5q-6 2 -10 2t-6.5 1.5t-4.5 4.5
t-3 11l-0.5 3t-1.5 3v34q0 3 4.5 4.5t9.5 2.5t9.5 1.5t4.5 2.5q0 3 -3 5t-7 3t-8.5 2t-5.5 4q-8 8 -11 18t-4 20t-1 21v22v39zM75 106q2 5 3 8t2.5 5t4.5 3t8 1h6.5t6.5 -1t5 -2.5t4 -4.5v-8.5t0.5 -11.5t0.5 -11.5v-7.5v-2q0 -9 -2 -14t-12 -5q-11 0 -17 2t-8 6t-2 11v17
v15zM85 111v-42q0 -2 2 -4t4 -3t4.5 -2t4.5 -1q1 0 2.5 1.5l2.5 2.5q0 1 0.5 2.5t0.5 4t0.5 4.5l0.5 2q0 2 -0.5 7t-0.5 10t-0.5 10t-0.5 7l-1 2.5t-2 2.5h-13zM198 65v8q0 5 -1 9t-2.5 8t-5.5 6h-7q-2 0 -5.5 0.5t-5.5 -1.5v-4v-4v-3.5t0.5 -5.5t1.5 -5.5t3 -2.5h13
q1 0 1.5 -0.5t0.5 -1.5t-0.5 -2l-0.5 -1h-36q-1 0 -2.5 0.5l-3 1t-3 1.5t-1.5 2v1l1.5 1.5l0.5 0.5q1 0 4 -0.5t5.5 0t5 1.5t2.5 4v1q0 1 -0.5 4l-1 6t-1 5.5t-1.5 3.5l-0.5 0.5t-0.5 1.5h-1q-2 0 -5.5 -1t-6.5 -2.5t-5 -3.5t-2 -5v-30q0 -3 2 -5.5t4.5 -5t6 -3.5t5.5 -1h35
q2 0 3.5 3t2 7t1 7.5t0.5 4.5z" />
</svg>
