<?xml version="1.0" standalone="no"?>
<!DOCTYPE svg PUBLIC "-//W3C//DTD SVG 1.1//EN" "http://www.w3.org/Graphics/SVG/1.1/DTD/svg11.dtd" >
<svg xmlns="http://www.w3.org/2000/svg" xmlns:xlink="http://www.w3.org/1999/xlink" version="1.1" viewBox="-10 0 266 256">
   <path fill="currentColor"
d="M186 247q1 2 2 2.5t2 0.5q3 0 4.5 -1t2.5 -2q0 -1 0.5 -4.5t0.5 -4.5q0 -19 -3 -38t-3 -38v-6t2 -5l10 -10q3 -4 3.5 -11.5t0.5 -11.5q0 -8 -1 -13.5t-4 -8t-8 -3.5t-14 -1h-5q-2 0 -4.5 0.5t-3.5 2.5t-1 5h27l0.5 0.5l1.5 1.5q0 1 0.5 2l0.5 1v29q0 1 -2 1.5l-2 0.5
q-4 0 -5 -2.5t-2.5 -5.5t-4.5 -5.5t-10 -2.5h-2.5t-3.5 0.5t-3 1t-1 2.5v0.5v1.5q9 1 14.5 4.5t5.5 13.5q0 4 -2.5 6t-6.5 3.5t-8.5 2.5t-8 2.5t-6 3.5t-2.5 6q5 0 8.5 -1.5t7.5 -3l8 -3t8 -1.5t4.5 1t0.5 6v6v10v10v6t0.5 4.5t0.5 7.5t0.5 7.5t0.5 4.5v4.5v7.5v7.5v5.5z
M119 247q1 1 2 1.5t2 0.5q4 0 6 -3t2 -6v-18v-3.5t0.5 -5.5t0.5 -5.5t1 -2.5q0 -2 -0.5 -7t-0.5 -11v-11t1 -7v-2t0.5 -3.5t0.5 -3.5v-2v-12q1 -1 2.5 -2t2.5 -1h3h4t4 0.5t3 0.5q2 0 2.5 -1t0.5 -3q0 -3 -1 -3.5t-4 -0.5q-1 0 -3 -0.5t-4.5 -1t-5 -0.5h-2.5q-2 -4 -2 -6v-6
q0 -8 1 -11.5t4 -4.5t7 -1q5 0 11 -1q2 -1 2 -1.5v-2.5v-1.5t-2 -1.5h-18q-1 0 -1.5 -1t-1 -2.5t-0.5 -3v-1.5q0 -9 4.5 -14.5t9.5 -10t9.5 -9t4.5 -11.5q0 -11 -4.5 -16t-15.5 -5h-5.5t-4.5 0.5t-4.5 1t-5.5 1.5l5 6h22l3 3v5q0 6 -2.5 9.5t-6 6t-7.5 5.5t-5 7
q-3 8 -4.5 16.5t-2 17t-0.5 16.5v16q-2 2 -2 4.5v5.5v5q0 3 -1 5q-1 1 -1.5 3l-0.5 2q0 3 -0.5 11t-0.5 17t-0.5 17t-0.5 11v16v16zM49 235q0 7 7 7q4 0 5 -4t1 -6v-111q1 -1 1 -3t0.5 -5t0.5 -5v-3v-4t-0.5 -8l-1 -8t-0.5 -5l0.5 -1.5t0.5 -2.5t0.5 -2.5l0.5 -1.5v-30
q1 -6 4.5 -8.5t9 -4.5t11.5 -2.5t11.5 -1t9 -1.5t3.5 -3q0 -3 -3 -4t-6 -1q-5 0 -10 1.5t-10 2.5q-6 1 -11.5 2t-10 3.5t-7.5 7t-3 12.5v1q0 1 0.5 3t1 3.5t0.5 3.5v2q-2 43 -3 86t0 86q-1 2 -1.5 2.5t-0.5 2.5zM77 80q0 9 -0.5 17t0.5 13.5t6 8.5t15 3h1q2 0 6 -0.5l4 -0.5
l2 -2q3 -12 3 -22v-23v-22l-1 -3t-2 -3h-25q-2 0 -3 1.5t-2.5 3.5t-2.5 4t-1 3v22zM87 111q-1 -8 -1 -15v-15v-16q2 -4 4.5 -8t7.5 -4h3t3 2l0.5 2l1 4l1 4t0.5 3v1v1v7.5t-0.5 8.5t-0.5 7.5v3.5q-1 4 -1 7t-1 5t-3 3.5t-7 1.5h-4t-3 -3zM170 65q0 3 3.5 4t6.5 1q1 0 5 -0.5
t8.5 -1t8.5 -2t4 -3.5v-30q0 -1 -1.5 -2t-3 -1.5l-3 -1t-2.5 -0.5h-2q-1 0 -4 1t-6.5 1.5t-6.5 1.5t-4 1l-0.5 0.5l-0.5 0.5l0.5 0.5l0.5 0.5l0.5 1l0.5 1h20q3 0 3.5 3t0.5 5q0 7 -2 10.5t-5 5t-8 1.5h-10q-2 0 -2.5 1t-0.5 2z" />
</svg>
