<?xml version="1.0" standalone="no"?>
<!DOCTYPE svg PUBLIC "-//W3C//DTD SVG 1.1//EN" "http://www.w3.org/Graphics/SVG/1.1/DTD/svg11.dtd" >
<svg xmlns="http://www.w3.org/2000/svg" xmlns:xlink="http://www.w3.org/1999/xlink" version="1.1" viewBox="-10 0 266 256">
   <path fill="currentColor"
d="M46 191q-1 3 -1.5 10t-1.5 15.5t-1.5 15.5t-1.5 10v2v2.5v3.5v2q5 0 8 -3t5 -7.5t2.5 -9t0.5 -8.5v-82l1 -7l1 -83q-2 -1 -2 -2v-2q0 -7 3.5 -10t9 -4t11.5 -1t11.5 -1t9 -3t3.5 -8q-1 0 -4.5 0.5t-7.5 0.5h-7.5h-4.5q-4 0 -9.5 1t-10.5 3t-9.5 5.5t-4.5 8.5q-1 2 -1.5 6
t-1 7.5t-1 6.5t-0.5 4t0.5 3.5l1 5l1 5t1.5 3.5v110zM97 236v2.5t2 1.5h9q26 0 51.5 -2t52.5 -1q1 -1 2 -2.5t1 -3.5l-0.5 -1.5t-1.5 -2.5l-2 -2l-1 -1h-26l-0.5 -1t-0.5 -2v-2v-2q0 -2 -0.5 -7.5t-0.5 -11.5t-0.5 -11.5t-0.5 -7.5q0 -6 2.5 -8.5l5 -5t4.5 -5.5t2 -10v-5
t-1 -5.5t-3 -4.5t-5 -1h-14h-10t-14.5 1t-12.5 4t-5 9t1.5 10.5t3.5 7.5t3.5 5.5t1.5 5.5v1.5v0.5q0 1 -0.5 3.5t-0.5 5.5t-0.5 5.5l-0.5 2.5q0 4 0.5 9.5t0 10.5t-3 9t-7.5 4q-2 1 -6 1t-8.5 0.5t-9 0.5h-5.5q-2 1 -2 2.5v2.5zM148 218q0 -6 0.5 -11l1 -10l1 -10t-0.5 -12
q4 -2 8 -3.5t8 -1.5q1 0 2.5 0.5t1.5 3.5v50q0 2 -1 2.5t-3 1t-4 0.5h-2q-5 0 -8.5 -2.5t-3.5 -7.5zM138 157q0 -7 3.5 -10t8.5 -4.5t10.5 -1.5h10.5h6t6 3v6q0 6 -2.5 9t-6.5 4t-9 1h-10h-2t-4 -0.5t-3 -0.5h-3q-3 -1 -4 -2.5t-1 -3.5zM75 141q3 2 7 2h7q8 0 12 -1
t6.5 -3.5t3 -6.5t0.5 -12v-2v-4v-3v-2q0 -1 -0.5 -5t-0.5 -9t-0.5 -9t-0.5 -5v-5t-0.5 -8t-1.5 -7.5t-2 -3.5h-24q-1 0 -3 1.5t-3.5 3.5t-2.5 4t-1 3v38q1 1 1.5 4l0.5 3q0 2 0.5 5.5t0.5 8t0.5 8t0.5 5.5zM94 64q3 0 4.5 4.5t2 10.5t0.5 11v7v4q0 3 -0.5 5.5t-0.5 3.5v2v6
t-0.5 6t-0.5 5.5v2.5l-2 2h-12l-1 -1l-1 -1q0 -1 -1 -3l-1 -2v-56q0 -2 1.5 -3.5t3.5 -2.5t4 -1h4zM119 112v0v0q1 1 2 2.5t2 1.5q8 -1 18.5 -2.5t21.5 -3t21.5 -2t20.5 -1.5q1 0 1.5 -1.5t0.5 -2.5q0 -4 -3.5 -4.5t-6.5 -0.5q-9 0 -18.5 1t-18.5 3t-18.5 3.5t-18.5 1.5
l-2 2l-2 2v0.5v0.5zM138 83q0 2 2 2h3q3 0 11 -2t16 -5.5t14.5 -7t6.5 -7.5v-1l-1.5 -1.5l-1.5 -1.5q0 -1 -1 -1q-5 0 -9.5 3t-8.5 5.5t-8.5 5.5t-9.5 3q-4 0 -7 -3.5t-3 -7.5q0 -3 4 -6t10 -6.5t13 -6.5t13 -6t10 -7t4 -8q-6 0 -12 2t-11.5 5t-11 6.5t-10.5 7.5l-1.5 1
t-3 2.5t-3.5 2.5t-3 1h-1v0q-2 -2 -3.5 -4t-1.5 -4v-1q1 -6 5 -9.5t8.5 -6.5l7.5 -5t3 -4q0 -4 -2.5 -4.5t-4.5 -0.5q-3 0 -5.5 1.5t-4 3.5t-3 4.5t-2.5 4.5q-2 2 -4 3.5t-3.5 2.5t-2.5 3t-1 5q0 5 2 10.5l4 11t4.5 10.5t3.5 10z" />
</svg>
