<?xml version="1.0" standalone="no"?>
<!DOCTYPE svg PUBLIC "-//W3C//DTD SVG 1.1//EN" "http://www.w3.org/Graphics/SVG/1.1/DTD/svg11.dtd" >
<svg xmlns="http://www.w3.org/2000/svg" xmlns:xlink="http://www.w3.org/1999/xlink" version="1.1" viewBox="-10 0 266 256">
   <path fill="currentColor"
d="M116 248q0 3 3 3q5 0 9.5 -3.5t8 -9t6.5 -12.5t5.5 -12.5t5 -9.5t5.5 -4q1 0 2 1.5t1.5 3t0.5 3.5t1 3q0 1 1 3.5t2.5 5t2.5 5t2 2.5q1 5 2 9t3 7.5t5 5.5t8 2q3 0 5.5 -0.5t2.5 -4.5v-0.5v-0.5l-1 -1t-1 -1.5t-1 -2.5t-2.5 -4t-2.5 -3.5t-2 -2.5q-2 -3 -6 -9.5t-7 -13.5
l-6 -14t-3 -12q0 -1 0.5 -2.5t0.5 -2.5q6 0 10.5 -3t8 -7.5t5 -10t1.5 -11.5q0 -3 -0.5 -7.5t-1 -9.5t-1.5 -9.5t-4 -7.5q-3 -4 -6.5 -5t-6.5 -2t-5 -3.5t-2 -8.5q0 -7 1.5 -9t3.5 -2.5t5 -1.5t6 -4q1 -3 1.5 -7.5t0.5 -9t1 -8.5t4 -4q1 -1 3.5 -1t5.5 -0.5t5.5 -0.5h2.5
q1 0 1.5 -1.5l0.5 -1.5v-1v-1v0l-1 -2.5t-2 -2.5h-16q-1 0 -1.5 -3t-1.5 -7t-2.5 -7.5t-4.5 -3.5v0q-1 1 -2.5 2l-1.5 1v18l-1 1l-1 1q-1 0 -2.5 0.5l-1.5 0.5h-18q-2 0 -2 -2.5t-0.5 -5.5t-1 -5.5t-4.5 -2.5l-2.5 0.5t-2.5 1.5v18h-2t-4 0.5t-3.5 0.5t-2.5 1q-1 0 -3 1
t-2 3h1q0 1 1 1t2 1h13q1 0 1.5 1.5l0.5 1.5q0 1 0.5 4t1 6.5t1 6.5t0.5 4q4 5 6.5 6.5t4.5 2.5t2.5 4t0.5 12v5l-17 5q-4 1 -6.5 5t-4 8.5t-2.5 8.5t-1 7q0 2 0.5 6t1 8.5t1 8.5t0.5 6q4 5 10.5 7.5t12.5 1.5q2 1 2 3v2q0 5 -2.5 11.5t-6 13.5t-7.5 13.5t-7 9.5l-4.5 4.5
t-4.5 5.5t-3.5 6t-1.5 5zM51 243q0 2 1.5 2h2.5t3.5 -0.5t2.5 -2.5v-34v-6q-1 7 -1 5v-10.5t0.5 -22.5t1 -30.5t1 -35t0.5 -34.5q0 -2 0.5 -5.5l1 -7t1 -6t1.5 -2.5l3 -5l2.5 -1t6 -1.5t7.5 -1.5t6 -1h4.5h5.5h6.5h4.5l3 -3q-1 -2 -2.5 -3t-3.5 -2h-5h-5h-3h-3h-3h-2
l-1.5 0.5t-2.5 0.5q-8 2 -14 3t-10 3.5t-6 8t-3 14.5v29q0 23 -1.5 46t-1.5 46q0 15 0.5 28.5t1.5 28.5zM137 153v-2t0.5 -2.5t1 -2t2.5 -0.5h12q1 0 2 2.5l1 2.5v0q0 2 -0.5 4.5t-1.5 5t-2.5 4t-4.5 1.5q-5 0 -7.5 -4t-2.5 -9zM164 161v-1v-2.5t0.5 -3.5t0.5 -4v-3
q1 -2 3 -3t4.5 -1.5t4.5 -0.5h5q0 3 -1 7t-2 7.5t-3.5 6t-6.5 2.5q-2 0 -3.5 -1t-1.5 -3zM137 129q0 -7 3.5 -11.5t9.5 -4.5q2 0 3 1t1.5 2.5t0 3.5t-0.5 4q0 7 -1.5 9.5t-8.5 2.5h-3h-2l-2 -2v-2.5v-2.5zM164 124v-5t0.5 -4t2 -3t4.5 -1t4.5 2l3 4t2 4.5t0.5 4.5
q0 5 -3.5 6.5t-7.5 1.5h-3h-2q-2 -2 -1.5 -5t0.5 -5zM72 101q0 3 0.5 7.5t0.5 5.5v3.5t0.5 5t1.5 4l1 1.5l3 2h20q1 0 4 -2.5t3 -4.5q4 -8 4 -16v-16v-3v-6v-5v-3q-2 -7 -5.5 -9.5t-9.5 -2.5q-10 0 -14.5 3t-6.5 8t-2 12v16zM80 92v-3l0.5 -2t0.5 -4.5t0.5 -4.5t0.5 -3
q4 -5 10 -5q4 0 5.5 2.5t2 6t0 7t-0.5 6.5q0 2 0.5 7t0 10t-2 9t-5.5 4q-5 0 -7.5 -3.5t-3.5 -8t-1 -9.5v-9zM180 83q0 1 2.5 6t6 9.5t6.5 8l3 3.5q4 0 6 -1.5t2 -4.5q0 -4 -3 -7.5t-7 -6.5t-8.5 -5t-7.5 -2zM139 81q-2 0 -6 3.5t-8.5 8t-7.5 9t-3 7.5h4l1.5 -1t3.5 -2.5
t4 -2.5t3 -2q0 -1 1 -2t2.5 -2t2.5 -2.5l1 -1.5q1 0 1.5 -1.5t1.5 -3t1.5 -2.5l0.5 -1q0 -1 -1 -2.5t-2 -1.5zM148 57q0 -3 0.5 -6t2.5 -5h3.5t5 -0.5t4.5 -0.5h3l0.5 -0.5l0.5 -0.5q3 0 5 2t3 5q-1 5 -1.5 9t-2.5 7t-4.5 5t-8.5 2q-4 0 -6 -2t-3.5 -4t-1.5 -5v-6z" />
</svg>
