<?xml version="1.0" standalone="no"?>
<!DOCTYPE svg PUBLIC "-//W3C//DTD SVG 1.1//EN" "http://www.w3.org/Graphics/SVG/1.1/DTD/svg11.dtd" >
<svg xmlns="http://www.w3.org/2000/svg" xmlns:xlink="http://www.w3.org/1999/xlink" version="1.1" viewBox="-10 0 266 256">
   <path fill="currentColor"
d="M145 248q0 2 1 2.5t3 0.5t4.5 -1t2.5 -4v-82q0 -2 1.5 -2.5t3.5 -0.5q1 0 3 1.5t3 3t2.5 3.5t2.5 3v6t0.5 8l1 8t1.5 6l0.5 2t0.5 3v26q0 2 2 2.5t3 0.5q5 0 6 -3t1 -7q0 -5 -1 -9t-2 -7q-1 -6 -1.5 -13.5t-2 -15t-4.5 -13.5t-9 -11q-1 -1 -3 -1.5l-4 -1t-3.5 -1.5
t-1.5 -2v-11l3 -3q11 -1 17 -1t9 -2t4.5 -6.5t5.5 -13.5q1 -3 2.5 -5t3.5 -4t3.5 -4t1.5 -5q0 -4 -1.5 -6.5t-3.5 -4t-3.5 -3t-1.5 -3.5q0 -3 2 -5l4 -4t3.5 -4.5t1.5 -8.5q0 -3 -2 -4.5t-4.5 -2.5t-4 -2t-1.5 -3v-19l-1.5 -0.5l-1.5 -0.5h-1h-1q-1 0 -2.5 1t-1.5 2v20
q-1 1 -2 2.5t-2.5 3.5t-2.5 4t-1 4t1 4.5t3 5.5t3.5 6t1.5 7v1l-2 2l-2 2t-2.5 2t-1.5 2v1.5v2.5q0 2 1 3.5t2.5 3.5t2.5 3.5t1 3.5q0 4 -1 8.5t-4 6.5q-5 1 -9 2t-8 1t-5.5 -2.5t-1.5 -5.5q0 -4 1.5 -5t5.5 -1q4 -5 6 -11.5t2.5 -13t0.5 -13.5v-12l0.5 -1t1.5 -2v-1
q0 -1 -1 -4t-2.5 -6t-3 -5.5t-1.5 -3.5q-1 0 -2 -1l-2.5 -2.5t-2.5 -3t-1 -2.5v-2v-3v-3v-1q0 -2 -0.5 -6t-1.5 -5h-1h-2h-2.5t-1.5 3v22l-1 1t-1 2q-1 1 -2.5 3.5t-2.5 5t-2.5 5t-3.5 3.5v44q0 4 2 6.5t4.5 4.5t4.5 4.5t2 5.5t-1.5 4.5t-3.5 1.5q-4 0 -7.5 -1t-6 -2.5
t-4.5 -4.5t-2 -6t1 -4.5l2 -3t2 -3.5t1 -4q0 -3 -1 -4.5t-3 -2.5t-3.5 -1.5t-3.5 -3.5v-6q0 -4 2 -6.5l4 -5t3.5 -5.5t1.5 -7q0 -3 -1 -4.5t-2.5 -3l-3 -3t-1.5 -4.5v-4l0.5 -1.5t0.5 -3t0.5 -3l0.5 -1.5q0 -3 -2 -4t-4 -1q-1 0 -2.5 0.5t-1.5 2.5v20q0 2 -1.5 3t-3.5 2
t-3.5 2.5t-1.5 3.5q0 4 1.5 6.5t3 5.5l3 6t1.5 7q0 3 -1.5 5t-3 4.5t-3 4.5t-1.5 6v2q6 2 8.5 5t4 6.5t3 6.5t5.5 6q1 1 4.5 2t7.5 2t7 2.5l3 1.5v14q0 1 -1.5 1.5l-3 1t-3.5 0.5t-3 1t-2.5 3t-3.5 3.5t-3 3t-2 1.5q-1 2 -2.5 7t-2.5 11t-2 12.5l-2 13t-1.5 12t-0.5 9.5
q0 1 1 3.5t3 2.5t4.5 -2t2.5 -4l3 -42q2 -3 2.5 -8t2 -9t4 -7.5t6.5 -3.5q2 0 3 0.5t1 2.5v5v7v7v4q0 16 -1.5 31t-1.5 30zM49 244q0 2 0.5 3t3.5 1t6 -3t2 -7q-1 -38 0.5 -76.5t1.5 -77.5l0.5 -3.5l0.5 -3.5v-7v-10v-10.5v-6.5q1 -5 4 -7.5t7 -4t8.5 -1.5t8.5 -0.5t7 -2
t3 -3.5q0 -1 -0.5 -1.5l-1.5 -1.5h-5h-5q-6 0 -11.5 0.5t-10 2t-8.5 4.5t-6 9q0 47 -1 95.5t-3 94.5q-1 5 -1 8.5v8.5zM72 81q0 5 -0.5 11t0.5 11t4 8.5t10 3.5h6t5 -3q1 -6 1.5 -11t0.5 -12q0 -4 -0.5 -8t-0.5 -8t-0.5 -8t-0.5 -10q-4 -1 -6 -1h-5q-7 0 -10 2.5t-4 6.5
t-0.5 9t0.5 9zM144 87q0 -7 3.5 -8t9.5 -1h1h2.5t2.5 0.5t1 1.5v18q0 1 -1.5 3t-3.5 4t-4 3t-3 1q-4 0 -5.5 -2.5t-2 -6t-0.5 -7.5v-6zM80 101q0 -1 -0.5 -5t-0.5 -8.5t-0.5 -8.5t-0.5 -5t0.5 -3t0.5 -4t0.5 -3.5t0.5 -2.5q1 -1 2.5 -1.5t3.5 -0.5q3 0 4 1.5t2 3.5v3v5v4v3
v4v4v4.5v2.5v3.5t-1 5t-2 4t-4 1.5t-4 -2t-1 -5zM114 99q0 -2 0.5 -3.5t3.5 -1.5t4 1.5t1 4.5q0 2 -1.5 3.5t-3.5 1.5q-3 0 -3.5 -2t-0.5 -4zM187 95q0 -6 7 -6q2 0 3 0.5t1 3.5q0 7 -6 7q-3 0 -4 -1t-1 -4zM146 64v-6.5t1 -6.5t2.5 -5t5.5 -2q3 0 5 2.5t3 6t1.5 7t0.5 5.5
v2v2t-0.5 2t-2.5 1h-14l-1 -2q-1 0 -1 -2v-4zM185 59q0 -6 7 -6q2 0 4 1t2 4t-2 4.5t-4 3.5h-1q-3 0 -4.5 -2.5t-1.5 -4.5zM112 61q0 -6 7 -6q2 0 4 1t2 5q0 2 -2.5 3t-4.5 1t-4 -0.5t-2 -3.5z" />
</svg>
