<?xml version="1.0" standalone="no"?>
<!DOCTYPE svg PUBLIC "-//W3C//DTD SVG 1.1//EN" "http://www.w3.org/Graphics/SVG/1.1/DTD/svg11.dtd" >
<svg xmlns="http://www.w3.org/2000/svg" xmlns:xlink="http://www.w3.org/1999/xlink" version="1.1" viewBox="-10 0 266 256">
   <path fill="currentColor"
d="M151 247q0 2 1 3t3 1q4 0 7 -3t6 -8t5.5 -10.5l5 -11t4 -10.5t3.5 -8q0 -1 1.5 -4.5t3 -7.5t3 -7t1.5 -4q1 -1 2 -4t2 -3q2 -8 3.5 -15.5t1.5 -15.5t-2 -13t-5 -8t-6.5 -5t-6.5 -4t-5 -5.5t-2 -9.5q0 -4 0.5 -5.5t4.5 -1.5q5 0 10.5 1t10.5 1h4.5h5t4 -1.5t1.5 -3.5
t-0.5 -3t-2.5 0h-7.5h-9.5t-10 -0.5t-9 -1.5v-2.5v-1.5q0 -3 0.5 -7.5t2 -9.5t3 -9t2.5 -7q0 -1 2 -4t4 -6.5t4 -6.5l2 -3q-1 -3 -3 -3.5t-5 -0.5h-1.5h-2.5q-2 3 -3.5 8.5t-3.5 12.5t-3.5 14.5t-3 13.5t-3 10t-2.5 4h-1l-1 -0.5t-2.5 -1t-3 -0.5h-1.5q-4 -1 -6.5 -1
t-4.5 -1t-3 -3t-1 -7q0 -6 1.5 -11.5t3 -11.5t3 -11.5t1.5 -11.5q-6 0 -9.5 6.5t-5 15.5t-2 17.5t-0.5 11.5v3.5v3.5q1 0 3 2t2 3q1 1 2 1.5l1 0.5h22l0.5 2t0.5 3q2 4 3 9t1 10q0 2 -1 4t-1.5 4.5t-1.5 4.5t-1 3q-7 15 -13.5 30t-14.5 29q-3 6 -7.5 12t-4.5 13h5l2 -2.5
t4.5 -6.5l5 -8t3.5 -7l0.5 -1.5l1 -3l1 -3l0.5 -1.5q5 -11 10 -19.5t10 -18.5q0 -1 1.5 -3.5t3 -5.5t2.5 -5.5t1 -3.5q1 0 2 -1l1 -1q4 0 6.5 2.5t5 6t3.5 7t1 6.5q0 6 -2.5 14t-5.5 17.5t-7.5 19.5t-8.5 19t-8.5 17t-7.5 12q0 1 -1 1.5t-1.5 1.5t-1.5 1.5t-1 1.5v1zM82 244
l0.5 0.5t0.5 1.5q1 0 2.5 0.5l1.5 0.5q1 0 2.5 -2t2.5 -3v-8v-12v-13.5v-14.5v-12v-8q0 -29 -1 -57.5t-1 -57.5v-4h3t4 -0.5t3.5 -0.5h2.5q2 -1 5.5 -1t7 -0.5t6.5 -1.5t3 -4v0h-1q-2 -2 -5 -2h-5h-9q-4 0 -13 0.5t-19.5 1t-19.5 1t-12 1.5q-3 -1 -3.5 0.5t-0.5 3.5
q0 3 2 3.5t5 0.5q10 0 19 -0.5t19 -0.5v9v6v9.5t0.5 12t0.5 12v9.5v5v11.5v18v18v11.5v8zM49 204q0 2 1 2.5t3 0.5q4 0 5.5 -3.5t2.5 -6.5v-4t0.5 -6t0.5 -5.5v-3.5v-4.5t0.5 -10.5t0.5 -14v-16v-15t1 -12v-3v-7.5t-0.5 -9t-2 -8.5t-4.5 -6l-3 5v105q0 1 -1 4l-2 6t-1.5 6
t-0.5 4v0.5v1.5zM106 111v9v11v10.5v4.5q0 5 1 12t1.5 14t1 12.5l0.5 5.5l5 10h5q0 -8 -2.5 -16t-2.5 -16v-97h-2.5t-3 0.5t-2.5 1.5t-1 3v7v10v11v7zM55 20q0 1 0.5 2t1.5 1h12h13h6.5t9.5 -0.5t10 -0.5h7l1 -2v-1v-1l-0.5 -1.5l-0.5 -1.5h-4h-5h-5h-4h-4h-5.5h-4.5h-3h-2
t-4.5 0.5t-4 0.5h-2.5h-3h-4t-3.5 1t-1.5 3z" />
</svg>
