<?xml version="1.0" standalone="no"?>
<!DOCTYPE svg PUBLIC "-//W3C//DTD SVG 1.1//EN" "http://www.w3.org/Graphics/SVG/1.1/DTD/svg11.dtd" >
<svg xmlns="http://www.w3.org/2000/svg" xmlns:xlink="http://www.w3.org/1999/xlink" version="1.1" viewBox="-10 0 266 256">
   <path fill="currentColor"
d="M200 246q0 2 1 3.5t4 1.5q2 0 4 -3t2 -5q0 -16 -1.5 -31.5t-4 -31t-4 -31t-1.5 -30.5q0 -1 -0.5 -3t0 -4.5t0.5 -4t1 -2.5l2 -2l2.5 -2.5l2.5 -2.5t1 -2q5 -6 6 -14.5t1 -15.5v-9.5t-1 -13.5t-3.5 -12t-6.5 -5h-25l-2.5 1t-3.5 2l-2 1l2 2h24q5 0 7.5 4t3.5 8.5t1 9.5v8
v7q0 4 -0.5 7t-1.5 6t-3 7q-1 2 -2 2h-2q-3 0 -4 -2t-2 -4.5t-1.5 -6t-2.5 -6.5t-5.5 -5t-9.5 -2h-2h-3t-3 0.5t-1 1.5v1l1.5 1l1.5 1q7 2 11 3.5t6 3.5t3 6.5t3 12.5l0.5 0.5t0.5 1.5q0 6 -4.5 8.5t-9.5 3.5t-9.5 3t-4.5 7q3 0 6 -1l6 -2l6 -2t6 -1q1 0 2 0.5t1 1.5
q1 4 1.5 12t1 18t1 21t1.5 21t1 18t1 12v5v9v8v6zM73 50l2 2l0.5 6.5t0.5 15.5t0.5 18t0.5 16v15.5v24.5v29v29v25v16h1.5t3 -0.5t2.5 -1.5t1 -2v-12q0 -35 -1 -70t-1 -71v-40l2 -0.5t3 -1.5h4t7 -0.5t7 -0.5h5v-2q0 -1 -0.5 -2t-1.5 -1h-10h-11h-8t-12 0.5t-11.5 0.5h-7.5
q-3 1 -5 2.5t-2 4.5h31zM150 236q0 3 0.5 6.5t3.5 3.5q2 0 3 -1.5t1.5 -3t0.5 -3.5v-4v-1v-3.5t-0.5 -5t-0.5 -5v-3.5v-89v-6l1 -91q0 -2 -4.5 -3.5t-10 -2.5t-10.5 -1.5t-6 -0.5h-3q-1 0 -1 2q1 2 2.5 3t3 1.5t2.5 1.5t1 4v5q0 2 -0.5 7t-1 10.5t-1.5 12.5t-1.5 13t-1 10.5
t-0.5 6.5v106l1 14q1 2 3 2.5l2 0.5v-113q0 -20 3.5 -38.5t4.5 -38.5q1 -1 2 -1.5t3 -0.5t3.5 1t3.5 4v13q0 38 -2 74.5t-2 73.5v8v12t0.5 12t0.5 8zM101 219q0 1 0.5 1.5l0.5 0.5h1q3 0 4.5 -2t1.5 -5v-62l-3 -16v-69q0 -2 -1.5 -2h-2.5h-1.5t-1.5 2v9v13.5v14.5v9v12v14.5
v12.5v7q0 3 0.5 11.5t0.5 18.5t0.5 18.5t0.5 11.5zM50 215q0 5 5 5q2 0 3 -1.5t2 -4.5v-9q0 -26 -0.5 -52t-0.5 -53q0 -5 0.5 -11t0.5 -12v-7q0 -1 -1 -1.5t-2 -0.5h-1v0q-1 0 -2.5 1l-1.5 1v136q0 1 -0.5 4.5t-1.5 3.5v1zM182 152q-3 1 -6 1t-5.5 1t-4 3t-1.5 5h4
q4 0 7.5 -0.5t6 -2t2.5 -4.5q0 -1 -0.5 -2t-2.5 -1zM49 22q0 1 1.5 1.5t3 0.5h1.5h3h2q2 0 7.5 -0.5t12 -0.5t12 -0.5t7.5 -0.5q1 0 2 -1t1 -2l1 -1q0 -2 -1.5 -2.5t-3.5 -0.5h-4q-2 0 -7.5 0.5t-12 1t-12.5 0.5h-8q-2 1 -3.5 2t-1.5 3z" />
</svg>
