<?xml version="1.0" standalone="no"?>
<!DOCTYPE svg PUBLIC "-//W3C//DTD SVG 1.1//EN" "http://www.w3.org/Graphics/SVG/1.1/DTD/svg11.dtd" >
<svg xmlns="http://www.w3.org/2000/svg" xmlns:xlink="http://www.w3.org/1999/xlink" version="1.1" viewBox="-10 0 266 256">
   <path fill="currentColor"
d="M76 224q0 2 -0.5 6.5t0 8.5t1.5 7.5t4 4.5l3 -4v-9.5v-24.5t0.5 -34t0.5 -38.5t0.5 -37.5t0.5 -31v-16q0 -1 2 -1.5t3 -0.5t5 -0.5t8.5 -0.5t9 -0.5t5.5 -0.5v-1v-1v-3.5t-2 -1.5h-12h-13q-3 0 -10.5 0.5t-16 1t-16 1t-10.5 1.5q-1 0 -1.5 1t-0.5 2q0 2 0.5 3t3.5 1h38
v2.5v2.5v2.5t-0.5 3l-1 3t-0.5 2.5q1 39 0 76.5t-1 75.5zM112 221v1q1 0 1.5 1l0.5 1h5h8.5h8.5h5h7h9.5h7.5h4q3 0 9.5 -0.5t14.5 -0.5t15 -0.5t9 -0.5q1 -1 1.5 -2t0.5 -2v-1q0 -1 -2 -2.5t-3 -1.5h-18l-2 -2v-4v-8v-10v-8q0 -35 1 -69.5t1 -69.5q0 -2 -1 -5.5t-2.5 -7
t-3 -5.5t-3.5 -2h-39q-4 0 -8.5 2.5t-4.5 7.5v177l-2 6h-3t-4.5 0.5t-4.5 0.5h-3q-1 1 -3 2t-2 3zM52 68v12v18t-0.5 21t-0.5 21v18v12l-2 12l-2 12t-2 11.5t-1 11.5q4 0 6.5 -3.5t4 -8.5t2 -10.5t1 -8.5t0.5 -9t0.5 -12.5t1 -14.5t0.5 -14.5t0.5 -11.5t0.5 -7v-3v-6v-8v-5
v-5v-7v-6.5v-4.5q-1 -3 -2 -4.5t-3 -1.5q-1 0 -2 0.5t-2 1.5zM142 215v-54l2 -4l3 -0.5t7.5 -0.5t9 -0.5t7.5 -0.5h6h7q1 11 1.5 25t0.5 26v7l-2 2h-42zM106 211l1.5 1l1.5 1l1 -1l1 -1v-10q0 -33 -2 -66t-2 -67l-0.5 -0.5l-0.5 -0.5h-1h-1q-1 0 -2 1t-1 2v8q0 7 -0.5 13.5
t-0.5 12.5v8q0 25 0.5 50t5.5 49zM142 142v-11.5t-0.5 -11t-0.5 -11v-11.5q0 -4 5 -6t11.5 -3t13 -1.5t10.5 -0.5h2.5t2.5 2v58h-42zM161 27q10 0 15.5 1t8 4t2.5 9v17v3v4.5v5.5v3q-1 3 -7 5t-13.5 3t-14.5 1h-10v-47q0 -3 2 -5t5.5 -3t6.5 -1h5zM114 20v-2.5t-2 -1.5h-61
q-2 0 -2.5 1.5l-1 3l-1 3l-0.5 1.5h17t17.5 -0.5t17 -0.5t14.5 -1q2 0 2 -1v-2z" />
</svg>
