<?xml version="1.0" standalone="no"?>
<!DOCTYPE svg PUBLIC "-//W3C//DTD SVG 1.1//EN" "http://www.w3.org/Graphics/SVG/1.1/DTD/svg11.dtd" >
<svg xmlns="http://www.w3.org/2000/svg" xmlns:xlink="http://www.w3.org/1999/xlink" version="1.1" viewBox="-10 0 266 256">
   <path fill="currentColor"
d="M135 247q0 2 1.5 3t3.5 1q3 0 5 -3.5t3 -7.5t1 -8.5v-6.5q1 -7 2 -17t2 -19.5t2 -17l1 -7.5l3 -9l2 -0.5t5 -1t4 -0.5h1h0.5h0.5l1.5 1.5l1.5 1.5q0 3 0.5 9t1 13t1 13t0.5 9q0 2 0.5 6.5t1.5 10t2.5 11t2.5 10.5t1.5 8t1.5 3h8q0 -3 -0.5 -9t-2 -13.5t-3 -16t-2.5 -15
t-2 -11l-1 -4.5v-28h20l4 -4l-4 -1h-80q-2 0 -3.5 0.5t-1.5 2.5l0.5 1.5t1.5 1.5h21q1 0 2.5 1t2.5 2v7q0 21 -3.5 41.5t-9.5 39.5v1.5v1.5zM76 238v4.5t3 2.5q1 0 2.5 -0.5t2.5 -1.5l5 -13l-2 -2v-141l2 -24l2 -0.5t4 -0.5q1 0 4 -0.5t6.5 -1t6 -1t4.5 -0.5q0 -1 0.5 -1.5
l0.5 -0.5l0.5 -0.5l0.5 -0.5q0 -2 -3 -2.5t-6.5 -1t-6.5 -0.5h-5h-6.5t-10 0.5t-12 1t-11.5 1.5t-8.5 2t-3.5 3t1.5 2.5t3.5 0.5h28v17t0.5 25.5t0.5 25.5v17q0 2 -0.5 9t-0.5 15.5t-0.5 19t-1 19t-0.5 15.5v9v3zM48 208q0 5 4 5q3 0 4.5 -3t1.5 -6t1 -11t1.5 -16.5t1.5 -17
t1 -11.5v-4v-9.5v-10.5v-8v-7v-10v-10v-6q-1 -2 -1.5 -2h-1.5h-2t-1 2q-2 8 -2 16.5v16.5v16v18q0 7 -1 14.5t-2.5 15t-2.5 14.5t-1 14zM100 139q0 3 -0.5 9.5t0 14t0.5 15.5t1 15t2.5 11.5t4.5 6.5q4 -2 4.5 -4t0.5 -5q0 -9 -2.5 -17.5t-2.5 -16.5v-89l-1.5 -0.5t-2.5 -0.5
l-1 1l-2 2v8t-0.5 12t-0.5 12v8v3v5v6v4zM140 121q2 5 4.5 8t6 4.5t7.5 2t9 0.5q4 0 9.5 -1t10 -3t7.5 -6t3 -10v-59q0 -2 2 -2t4.5 -1l5 -2t2.5 -5h-16v-27l-1.5 -0.5t-2.5 -0.5q-4 0 -4.5 2.5t-0.5 4.5q0 5 1 9.5t1 8.5q0 2 -0.5 3.5t-2.5 1.5h-41v-26l-1.5 -0.5
t-2.5 -0.5h-1h-1l-1 1.5l-1 1.5v18q0 2 -2 3.5l-4 3l-4 3t-2 3.5v1l0.5 1l0.5 1h13q0 3 -1 5.5t-1 5.5v3q1 3 1 9.5t1 14.5t1.5 14.5t0.5 9.5zM152 123q0 -1 2.5 -5t5.5 -8t5.5 -7l2.5 -3q3 0 5 2.5t4 5.5t3.5 6.5t1.5 5.5t-1 5t-4 3h-21q-3 0 -3.5 -1.5t-0.5 -3.5zM146 110
v-7t-0.5 -10.5t-0.5 -10.5v-7q0 -1 -0.5 -2t-0.5 -2q0 -2 0.5 -3l1.5 -3q3 1 6 4t5 7t3.5 8t1.5 6t-1.5 5.5t-3.5 7t-4.5 6t-4.5 2.5v0zM175 90v-3l1.5 -2.5t2.5 -5t2.5 -5l1.5 -2.5q0 -1 0.5 -1.5t1.5 -0.5v0q3 0 3.5 2.5t1 6t0 6.5t-0.5 4t0.5 4t0 5.5t-1.5 4.5t-3 2
q-3 0 -5 -1.5t-3 -4t-1.5 -5t-0.5 -4.5zM152 63q0 -1 0.5 -2.5t1.5 -1.5h2q2 0 4 -0.5t3 -0.5h2h3t4 0.5t3 0.5h2t3.5 0.5l2.5 0.5v2l-1.5 2.5t-3.5 5.5t-4 6.5t-4 6.5l-0.5 0.5t-1.5 0.5v0q-1 0 -3 -3l-5 -7.5t-5.5 -7.5zM58 29q0 2 2 3t5 1h5.5h3.5h7h6.5t7 -0.5t8.5 -1.5
v-0.5v-0.5q0 -4 -2.5 -4.5t-4.5 -0.5h-19t-19 3v1z" />
</svg>
