<?xml version="1.0" standalone="no"?>
<!DOCTYPE svg PUBLIC "-//W3C//DTD SVG 1.1//EN" "http://www.w3.org/Graphics/SVG/1.1/DTD/svg11.dtd" >
<svg xmlns="http://www.w3.org/2000/svg" xmlns:xlink="http://www.w3.org/1999/xlink" version="1.1" viewBox="-10 0 266 256">
   <path fill="currentColor"
d="M183 178l3 66q0 2 1.5 3.5t3.5 1.5q3 0 4 -2.5t1 -4.5v-4q0 -2 -0.5 -6.5t-0.5 -10t-0.5 -10t-0.5 -6.5q-3 -5 -3 -11.5v-11.5q0 -3 1.5 -4.5t3.5 -3t4.5 -3t3.5 -5.5q4 -9 4.5 -19t0.5 -21q0 -6 0.5 -14t-0.5 -17t-4.5 -16t-10.5 -10q-3 -2 -6 -1.5t-6 0.5t-5.5 -1
t-4.5 -4v-3.5v-3.5v-7t2 -8l2 0.5t5 0.5q2 0 4 -0.5t3 -0.5l1.5 -0.5l1.5 -0.5h2q1 0 2.5 1t2.5 1q4 0 4 -5v-2t-1 -2h-21q-1 -2 -3 -3t-3 0q-1 -5 -1 -10q0 -7 -3 -11l-0.5 -1t-1.5 -1q-2 0 -4 3t-2 5q0 1 0.5 2.5t0.5 3t0.5 3l0.5 1.5v6v7q0 3 -0.5 7.5t-0.5 8.5t-0.5 7
l-0.5 3l-3 6h-15l-1.5 2.5t-2.5 4.5q-2 2 -2 5t-0.5 5.5l-1 5t-1.5 4.5v43q1 3 1 6.5t0.5 7t1.5 7t3 5.5q3 3 5.5 5t4.5 3.5t3.5 4t1.5 6.5q0 5 -1 14.5l-2 19t-2.5 17.5t-2.5 8q1 2 2.5 2h2.5h3.5t2.5 -2q2 -16 3.5 -32t1.5 -32l1 -2h18zM82 241l3 2h1h1q0 -1 1 -2l2 -2
q1 -4 1.5 -10.5t0.5 -13.5q0 -6 -0.5 -12t-0.5 -10q0 -27 -0.5 -52.5t-0.5 -51.5v-8v-10v-9v-5l1 -1h3t6.5 -0.5t8 -0.5t6.5 -1h4t3.5 -0.5t3 -1.5t1.5 -3v-1l-1.5 -1.5l-0.5 -0.5h-59q-1 1 -2 1.5t-2 0.5h-2t-4.5 0.5t-4.5 1t-3 0.5t-1.5 1t-0.5 2q0 3 2 3h4q6 0 12 -1
t12 -1h2q2 0 2 2q1 26 2 53.5t1 54.5q0 14 -0.5 28.5t-0.5 29.5v19zM56 74q1 29 0.5 58.5t-2.5 58.5q0 4 -1 8.5t-2.5 8.5t-2.5 8t-1 8q5 0 8 -2t5 -5.5t3 -8t1 -7.5v-124q0 -3 -1 -4t-3 -1q-1 0 -2 0.5t-2 1.5zM104 78v1v1l8 138q0 2 1.5 2h1.5q3 0 4.5 -1t1.5 -3v-4
q-1 -1 -1 -5.5t-0.5 -10t-1.5 -12t-1.5 -12.5t-1 -10t-0.5 -5q-1 -21 -1.5 -42t-1.5 -41q1 -3 -1 -3.5t-3 -0.5q-3 0 -3.5 2.5t-0.5 5.5zM143 146q0 -2 0.5 -4t2.5 -2h3q3 0 10 0.5t14.5 1t14.5 0.5h9q2 2 2 3.5v3.5q0 13 -7 17.5t-19 4.5q-7 0 -12.5 -0.5t-9.5 -3.5t-6 -8
t-2 -13zM144 131v-18l2 -1t3 -1q9 -1 18 -1.5t18 -0.5h3h3t4 0.5l2 0.5q2 0 3 2t1 4v4.5v3.5v3t-0.5 3.5t-1.5 2.5t-2 1h-1q-1 0 -3.5 -0.5t-5 -0.5t-5 -0.5l-2.5 -0.5h-7t-11 -0.5t-11 -0.5h-7zM144 103v-5q0 -2 0.5 -6t1 -7.5t2.5 -6t6 -2.5h36q2 0 4 2t3 5t1.5 6t0.5 4
q0 2 -0.5 4.5t-2.5 3.5t-8 1t-13 1t-13 1.5t-8 0.5h-2q-2 0 -3.5 -0.5zM59 19q0 1 0.5 2t1.5 1h56l0.5 -1t1.5 -2v-1q0 -2 -2.5 -4t-4.5 -2h-33q-2 1 -5 1.5t-6.5 1t-6 1.5t-2.5 3z" />
</svg>
