<?xml version="1.0" standalone="no"?>
<!DOCTYPE svg PUBLIC "-//W3C//DTD SVG 1.1//EN" "http://www.w3.org/Graphics/SVG/1.1/DTD/svg11.dtd" >
<svg xmlns="http://www.w3.org/2000/svg" xmlns:xlink="http://www.w3.org/1999/xlink" version="1.1" viewBox="-10 0 266 256">
   <path fill="currentColor"
d="M127 249q0 1 1 1h2q2 0 3 -1t1 -3v-9q0 -19 -0.5 -37t-0.5 -36v-5t0.5 -3.5t2.5 -2.5t6 -1q1 0 5 -0.5t8 -0.5t8 -0.5t5 -0.5l1.5 -1t1.5 -2v0q0 -2 -1.5 -2.5t-2.5 -0.5h-4q-5 0 -12 0.5t-15 0.5t-15.5 0.5t-13.5 0.5h-10h-4l-12 1q-1 1 -1.5 2t-0.5 2v0.5v0.5l6 1h37
q2 0 2.5 3t0.5 7v7v4v9t0.5 13.5t0.5 15.5v15.5t0.5 13t0.5 8.5zM55 247q0 1 1 1.5t2 0.5h1v0q1 0 1.5 -0.5t0.5 -1.5q1 -1 2 -3t1 -3l3 -24l5 -103q0 -3 2 -5.5t5 -3.5q15 -2 30 -2h31h7t10.5 0.5t10.5 0.5h8q5 0 7 4q1 26 3 50.5t5 51.5v5t0.5 8.5t1 8t0.5 5.5
q0 1 1.5 3.5t3.5 2.5t2 -2v-3q0 -6 -0.5 -12.5t-2.5 -11.5l-6 -109q0 -3 -3 -4.5t-7 -2.5t-8 -1.5t-5 -0.5h-79q-3 0 -7 1t-8 2.5t-7 4t-3 6.5l-6 113q-1 5 -2 8t-1 9v4v3zM95 226q-4 2 -4 7v7q4 0 6.5 -4t4 -10t2.5 -14t1 -15v-13v-10v-2v-3.5t-1 -3t-2 -1.5h-1v0
q-1 0 -1.5 0.5l-0.5 0.5q0 15 -1 31t-3 30zM153 207q1 1 1.5 6t1.5 10t3 8.5t7 3.5q2 0 2 -1.5v-2.5v-3q0 -3 -1.5 -7t-2.5 -7.5l-2 -7t-2 -5.5q-2 -10 -2.5 -19t-0.5 -20q0 -3 -3 -3q-2 0 -2.5 2t-0.5 4v0q0 3 0.5 9t0.5 12.5t0.5 12t0.5 8.5zM90 125v1.5t1 1.5h8h8
q3 0 10.5 -0.5t16 -0.5t16 -0.5t10.5 -0.5q1 0 2 -1.5l1 -1.5v-1v0q0 -1 -2 -1.5t-3.5 -1t-3 -0.5h-1.5h-1h-1q-3 0 -11.5 0.5t-18 1t-18 0.5t-12.5 1q-1 0 -1 1v2zM59 88q0 1 0.5 2t1.5 1q3 0 6 -2t5 -4l2.5 -2.5l5 -5l4.5 -4.5l3 -3h2q4 0 6.5 2.5t5 6t4.5 6t4 2.5h1
q0 -1 1.5 -2l1.5 -1v-1q0 -2 -2.5 -5t-6 -6t-6.5 -6t-3 -5q-1 -2 -1.5 -4.5t-0.5 -5.5v-6v-5q0 -4 1 -7.5t1 -7.5q0 -3 -1 -4t-4 -1h-1.5h-1.5l-3 43q-1 0 -5 4l-8.5 8.5t-8 8.5zM134 84q0 3 3 3q2 0 3.5 -1t3.5 -2t3.5 -2.5l2.5 -2.5l2.5 -2.5l4 -4l4.5 -4.5t2 -3h1
q3 0 6.5 3.5l7 7t7.5 6.5t8 3h1.5t1.5 -1q0 -5 -4.5 -8l-9 -6t-9 -5.5t-4.5 -6.5v-46l-1 -1l-2 -2v0q-2 0 -3 2t-1 3t-0.5 2.5t-0.5 4t-0.5 4.5l-0.5 2v7.5t-0.5 10t-0.5 10v6.5l-2 2l-2 2l-2 2l-1.5 1.5t-1 2l-0.5 1.5q-2 1 -4.5 2t-5 2.5t-4.5 3t-2 4.5zM65 26h-1
q-1 0 -1.5 0.5l-0.5 0.5v30q3 0 5 -0.5t3 -3.5l1.5 -9t0.5 -8v-5l-3.5 -3.5t-3.5 -1.5zM110 53q0 1 1 2t2 1h1q1 0 1.5 -1t0.5 -2v-3q0 -1 -0.5 -4.5t-0.5 -7.5t-0.5 -7.5t-0.5 -4.5t-1 -1.5t-2 -0.5q-2 0 -3 0.5t-1 2.5v0q0 1 0.5 3.5t0.5 3.5t0.5 3.5t0.5 5.5t0.5 6t0.5 4
zM183 25l1 2.5t1 3.5t0.5 4.5t0.5 4.5q1 2 0.5 5t0.5 6t2.5 4.5t4.5 1.5q0 -7 -0.5 -15.5t-0.5 -15.5q-1 0 -3 -2l-2 -2h-1h-1l-1.5 1t-1.5 2zM139 46q-2 2 -3 4.5t-1 5.5q5 0 7 -3t3 -6.5t1 -8.5v-7q0 -2 -0.5 -3.5t-2.5 -1.5h-2.5t-1.5 1v19z" />
</svg>
