<?xml version="1.0" standalone="no"?>
<!DOCTYPE svg PUBLIC "-//W3C//DTD SVG 1.1//EN" "http://www.w3.org/Graphics/SVG/1.1/DTD/svg11.dtd" >
<svg xmlns="http://www.w3.org/2000/svg" xmlns:xlink="http://www.w3.org/1999/xlink" version="1.1" viewBox="-10 0 266 256">
   <path fill="currentColor"
d="M121 174h2q2 0 2 1v73l0.5 0.5t1.5 0.5q1 1 3 1.5l2 0.5q1 -1 2 -2.5t1.5 -3.5l1 -4t0.5 -3v-61q0 -2 1.5 -3.5t3.5 -1.5h4h4h9t14.5 -0.5t14.5 -0.5h9q3 0 3.5 -1.5t0.5 -2.5t-0.5 -2.5t-2.5 -1.5h-0.5h-0.5q-5 0 -16 0.5t-24.5 1t-28.5 1.5t-29 1.5t-25 1t-16 0.5
q-2 0 -2.5 1.5t-0.5 2.5q0 6 6 6h2q1 0 3.5 -0.5t2.5 -1.5q3 0 10 -0.5t14.5 -1t14.5 -1t10 -0.5h3zM77 241q0 2 1.5 2.5t3.5 0.5q6 0 10.5 -7t7 -16t4 -17.5t1.5 -11.5q0 -2 -0.5 -3.5t-3.5 -1.5q-2 0 -4 5t-3.5 11.5t-2.5 12.5t-2 8q-1 0 -2.5 2.5t-3.5 5t-3.5 5l-1.5 2.5
q-1 1 -1 1.5v0.5zM172 239q1 3 2 3.5t3 0.5q6 0 6 -6q0 -3 -0.5 -4l-2.5 -5q-2 -2 -3 -6.5t-2.5 -9.5t-3 -10.5t-3 -10.5t-2.5 -8l-1 -3q-4 0 -4 3v5q0 13 3 26t8 25zM86 144q0 1 1 2.5t2 1.5h2t4 0.5t4 0.5h2q18 0 36 -2.5t35 -2.5q1 -1 1.5 -2t0.5 -2t-1 -2t-2.5 -1h-3.5
h-2q-10 0 -20 0.5t-20 1.5l-20 2t-18 1l-0.5 0.5t-0.5 1.5zM86 85q0 8 -5 15t-10.5 14t-10 15t-4.5 17q6 0 8.5 -2.5t3.5 -7.5l22 -42q2 -3 2 -5v-5q0 -6 -3.5 -11t-10.5 -5q-4 0 -7.5 2.5t-7.5 4.5q-3 4 -5.5 8t-5 8.5t-4 9.5t-1.5 10q1 0 3.5 -0.5t3.5 -2.5q2 -9 7 -17.5
t13 -14.5h2h2q3 0 5.5 3t2.5 6zM170 83q0 8 3.5 11t7.5 4.5l8 3t4 6.5v32q0 2 1 2h2q2 0 3 -1.5t2 -3.5v-12q0 -7 -0.5 -14.5t-4.5 -13.5q-2 -2 -5.5 -2.5t-6.5 -1.5t-5.5 -3t-2.5 -8q0 -5 2.5 -7.5t6 -4.5t8 -3t8 -3.5t6 -6.5t2.5 -11q0 -2 -0.5 -5t-1 -5.5t-2 -4.5
t-4.5 -2h-43l0.5 0.5l0.5 0.5q0 1 1.5 2.5l1.5 1.5h13l2 2v2.5t0.5 5t0.5 5.5v5v3q0 4 -1 7t-2.5 6l-3 6t-1.5 7zM101 112q1 2 2.5 4t4.5 2h48q1 0 1.5 -1.5l0.5 -1.5q0 -2 -1 -2.5t-3 -0.5h-19l-1.5 -1l-1.5 -1v-1v-2t1 -4t1.5 -3.5t2.5 -1.5h13q1 0 1.5 -2t1.5 -5t1 -6v-4
v-4t-3 -2t-3.5 2.5t-1 6t-2.5 6.5t-8 3q-2 0 -3 -2t-1 -4.5v-5v-4.5q0 -5 2 -8t5 -3.5t6 0t7 0.5q3 0 4.5 -1.5t1.5 -5.5h-23l-2 -2v-2v-3v-3.5t0.5 -4.5t1.5 -3.5t3 -1.5q5 0 8.5 2.5t7.5 6.5h4q0 -6 -4 -9t-8.5 -5.5t-8.5 -4.5t-4 -6v-2q0 -1 0.5 -2.5t0.5 -3.5t0.5 -3.5
t0.5 -2.5l-1.5 -1.5l-1.5 -1.5h-1h-1l-1.5 1l-1.5 1q0 1 -0.5 4.5t-1.5 4.5q0 1 0.5 3.5t-0.5 3.5q0 2 -5 5l-10 6t-9 6t-4 6v1l0.5 0.5l0.5 0.5h1q3 0 6 -1.5t6 -3.5t5.5 -4t4.5 -4h1q1 0 2 0.5t1 1.5v21l-1 0.5t-2 1.5h-4h-4t-4.5 0.5t-5 0.5h-3.5q0 1 -1.5 2t-1.5 3h26
v45h-13l-0.5 -1l-0.5 -1q-1 -1 -1.5 -2.5t-0.5 -2.5t-0.5 -4.5t-0.5 -7.5t-0.5 -7t-0.5 -5l-0.5 -0.5l-0.5 -0.5l-0.5 -0.5l-0.5 -0.5l-0.5 0.5l-0.5 0.5l-1.5 0.5l-1.5 0.5v5q0 7 0.5 12.5t0.5 13.5zM97 62q-2 0 -2 2q0 1 2 1q1 0 1 -1q0 -2 -1 -2zM191 35q6 0 8 4.5
t2 10.5q0 9 -9 9h-1h-2t-2 -0.5t-1 -1.5v-21q0 -1 2 -1h3zM89 31q0 6 -4 8t-9 3.5t-9.5 3.5t-4.5 7q6 0 11.5 -1.5t10.5 -4.5t8 -7.5t3 -10.5q0 -5 -4 -9t-9 -4q-2 0 -7.5 0.5t-11 2.5t-9.5 4.5t-4 7.5q4 0 7.5 -1t7.5 -2.5t8 -2.5t8 -1t6 1t2 6z" />
</svg>
