<?xml version="1.0" standalone="no"?>
<!DOCTYPE svg PUBLIC "-//W3C//DTD SVG 1.1//EN" "http://www.w3.org/Graphics/SVG/1.1/DTD/svg11.dtd" >
<svg xmlns="http://www.w3.org/2000/svg" xmlns:xlink="http://www.w3.org/1999/xlink" version="1.1" viewBox="-10 0 266 256">
   <path fill="currentColor"
d="M71 249v1l1 0.5l1 0.5q4 0 5.5 -1.5t2 -3.5t0.5 -4.5v-4.5q2 -29 3 -57t2 -57v-13v-13.5t0.5 -16.5t0.5 -13.5v-5.5l4 -3h32q1 0 1 -1.5v-2.5q0 -2 -1.5 -2.5t-3.5 -0.5h-6q-4 0 -12.5 0.5t-18.5 0.5t-19 0.5t-13 0.5q-5 0 -6.5 1.5t-1.5 6.5q8 0 15 -1t14 -1h4.5h2.5
l1 3v3t0.5 4.5t0.5 5.5v4v6t-0.5 8t-0.5 7v4q0 2 -0.5 9.5t-1 17t-1 20.5t-1 21t-1 17t-0.5 9v14t-0.5 12l-1 12t-1.5 12v1zM138 230q2 2 5.5 4.5t6.5 2.5h30q6 0 9.5 -5.5t5 -12.5t1.5 -14v-9q0 -3 -0.5 -5.5t-3.5 -2.5q-2 0 -3 1.5t-1 3.5t-1 4t-2 3h-13h-8h-6.5
t-7.5 -0.5t-8 -1.5q-1 0 -1.5 -1.5l-1 -3t-1 -2.5t-1.5 -1t-2 1l-1 1v6v8.5t0.5 7t1.5 7.5t2 9zM140 214q0 -8 7 -8q10 0 18.5 1t19.5 1q2 1 2.5 2.5t0.5 2.5q0 6 -2 9.5t-5.5 5t-8 2t-8.5 0.5q-5 0 -9 -0.5t-7.5 -2.5t-5.5 -5t-2 -8zM47 190q-1 5 -1.5 10t-0.5 10
q3 0 5 -3.5t3.5 -9t2 -12.5t1 -13.5t0.5 -11.5v-8v-3v-7v-6v-3l2 -26t1 -26q0 -3 -0.5 -3.5t-3.5 -0.5q-2 0 -3 0.5t-1 4.5v2v5v5v2q0 4 -0.5 11t-1 16.5t-1 19.5t-1 19.5t-0.5 17t-1 10.5zM102 121q0 11 -0.5 22t0 23t2 23t4.5 21h1h1q1 0 1.5 -0.5l1.5 -1.5v-4v-4v-6
q0 -4 -2 -7q0 -3 -0.5 -10.5t-1 -16.5t-1 -16.5t-0.5 -10.5v-22v-21q1 -3 1.5 -5t0.5 -4q0 -4 -4 -4h-1.5h-1.5q-2 11 -1.5 22.5t0.5 21.5zM131 171q3 0 12.5 0.5t20 0.5t20 0.5t12.5 0.5h6h7q3 -2 3 -5v-2q-3 -1 -7 -1h-8h-7.5h-7.5q0 -6 -0.5 -12.5t1.5 -13.5q1 -2 2.5 -3
t3 -1.5t3.5 -1t3 -2.5t2 -6t1 -11q0 -6 -2 -9t-8 -6h-13q-6 0 -12.5 0.5t-12.5 2.5t-9.5 6.5t-3.5 12.5q0 4 2 6l4.5 4.5l4.5 4.5t2 5v19l-1 1.5l-1 1.5q0 1 -0.5 1.5t-1.5 0.5h-20q0 1 1 4t4 2zM156 163v-3.5v-3.5v-7t1 -5.5t3.5 -3.5t7.5 -1q2 0 3.5 0.5t2.5 2.5v3
t0.5 4.5t0.5 4.5v3v3v3t-3 2h-3h-3h-5t-5 -2zM145 126v-5q0 -6 2.5 -9t6.5 -4t9 -1h10h12l2.5 1t2.5 2v16q0 1 -1.5 2t-1.5 2q-2 0 -5 1.5t-4 1.5h-23q-2 0 -5.5 -2.5t-4.5 -4.5zM124 82l2 1h84q2 0 3 -1.5t1 -3.5v-1.5t-2 -1.5h-40l-1 -1t-1 -2v-2v-3v-2q0 -2 0.5 -3
t1 -2.5t2.5 -1.5h16l1 -1l2 -2l2.5 -2.5l2.5 -2.5q1 -2 1.5 -5l1 -6t0.5 -6v-5q0 -4 -3 -4t-4.5 2t-1.5 4.5t-0.5 6t-1 6.5t-3 5t-7.5 2q-4 0 -6 -1.5t-2 -5.5q0 -7 1 -13t1 -12v-8l-2 -2l-2 -2v0v0q-2 0 -2.5 3t-1 7.5t-1 9.5l-1 10t-1 9t-0.5 6q-1 0 -3 0.5l-2 0.5
q-5 0 -7 -2t-3 -5t-1 -6.5t-0.5 -6.5t-1.5 -5t-3 -2q-3 0 -3.5 3t-0.5 5q0 1 1.5 5t3 8.5t3 7.5t2.5 3h15l1 2v2.5v3.5t0.5 4.5t-1.5 5.5h-5h-6h-6h-4q-2 0 -4 0.5t-4.5 1t-4.5 1l-2 0.5zM52 30q0 1 0.5 3t2.5 2q1 0 3 -0.5l2 -0.5h8h12h12.5h7.5t4 -0.5t4 -0.5t3.5 -0.5
l1.5 -0.5v-7q-7 0 -15 0.5t-16 0.5t-16 0.5t-14 0.5v2v1z" />
</svg>
