<?xml version="1.0" standalone="no"?>
<!DOCTYPE svg PUBLIC "-//W3C//DTD SVG 1.1//EN" "http://www.w3.org/Graphics/SVG/1.1/DTD/svg11.dtd" >
<svg xmlns="http://www.w3.org/2000/svg" xmlns:xlink="http://www.w3.org/1999/xlink" version="1.1" viewBox="-10 0 266 256">
   <path fill="currentColor"
d="M162 3q-10 1 -18.5 3t-13.5 9q-8 11 -8 25q0 15 7 26l6 7q18 8 37 7q21 -1 34 -13q2 -6 3 -12.5t2 -15.5q1 -17 -9 -27q-7 -6 -18 -7.5t-22 -1.5zM50 7l-6 3v7q11 3 22 2.5t22 -1.5q3 1 8 0.5t8 -2.5q2 -5 -1 -7t-9 -2h-44zM137 22q5 -3 7.5 -5t9.5 -2h8v20l-28 1
q-1 -4 0 -7t3 -7zM173 36v-21q5 0 10 1t9 3t5.5 6.5t1.5 10.5h-26zM41 36l-7 3q1 11 15 8q15 -3 20 1v44v112q0 5 -0.5 11t-0.5 13q-1 14 2 22q7 1 9 -5q0 -3 0.5 -6.5t-0.5 -5.5v-62v-124h10h6t6 1q9 0 13 -4q1 -6 -4 -7q-3 -1 -7 -1h-3h-59zM172 48l25 -2q4 1 2 7
q-1 2 -1.5 4.5t-0.5 3.5q-6 4 -12.5 5.5t-11.5 1.5zM141 64q-4 -3 -5.5 -7.5t-1.5 -9.5h27l1 20q-6 2 -11.5 0.5t-9.5 -3.5zM47 59q-3 7 -3 19q0 10 2 20q1 16 0 43q-1 14 -2.5 25t-3.5 19q0 3 -1 8t-1 11q-1 10 1 18l8 -1q2 -11 2.5 -21.5t2.5 -21.5q4 -20 4.5 -40
t-0.5 -41q1 -4 0.5 -9.5t-0.5 -12.5q-2 -14 -9 -16zM97 60q-3 3 -4 6t-1.5 6.5t-0.5 7v6.5q0 7 -1 9l1 50v11q2 16 3 32t6 32q1 1 4 1q1 0 5 -2q-1 -16 -2.5 -31t-4.5 -30q-3 -31 -1 -62q2 -8 2 -21q0 -14 -6 -15zM126 80l-4 4q-9 13 -9 27q2 13 16 22l1 25q-1 1 -8 2
q-2 0 -5.5 0.5t-4.5 1.5q-2 9 13 8q17 -2 20 0v18l-5 43l-6 12q-2 6 0 10q4 0 6.5 -2t4 -4.5t2.5 -6t3 -6.5l6 -47l1 -18l19 1v24q1 7 2 15t4 16q1 17 12 28q7 2 5 -3q0 -5 -2 -9q-6 -13 -7 -27q-1 -13 -3 -27l-1 -16q2 -2 5 -2h6q2 0 5.5 0.5t6.5 0.5q7 0 12 -4q0 -7 -5 -7
q-9 0 -11 -1v-25l12 -9l2 -9q1 -4 0.5 -9t-2.5 -10t-4.5 -9t-5.5 -7q-5 0 -6.5 2.5t-0.5 6.5l8 16q3 8 -3 16l-5 -10q-2 -8 -6 -14l-8 -12h-8q-2 5 0 8.5t7 6.5q1 3 2.5 6t2.5 6.5t2 6.5t-1 6q-5 -2 -9 -7t-7 -11q-10 -3 -16 3l-12 12l-9 3q2 -8 5 -15.5t10 -13.5
q1 -3 2 -5.5t-1 -5.5q-10 -2 -17 12q-3 7 -4.5 13t-3.5 10q-7 -7 -5 -14q2 -8 7 -14q2 -5 2 -8q0 -4 -7 -4zM138 137q9 -2 16 -7t12 -15q7 13 18 19l10 3l1 21l-54 1z" />
</svg>
