<?xml version="1.0" standalone="no"?>
<!DOCTYPE svg PUBLIC "-//W3C//DTD SVG 1.1//EN" "http://www.w3.org/Graphics/SVG/1.1/DTD/svg11.dtd" >
<svg xmlns="http://www.w3.org/2000/svg" xmlns:xlink="http://www.w3.org/1999/xlink" version="1.1" viewBox="-10 0 266 256">
   <path fill="currentColor"
d="M73 245q0 2 1.5 3t3.5 1t3 -1.5t2 -3.5v-14.5v-21.5v-26v-25v-22.5v-13.5q0 -7 0.5 -18.5t0.5 -21.5t0.5 -17.5l0.5 -7.5l1 -2q2 -2 6 -2q5 0 10.5 0.5t9.5 0t4 -3.5q0 -2 -1.5 -2.5t-3.5 -1.5h-12h-11q-5 1 -12 1.5t-13.5 1t-11.5 1l-5 0.5l-5 5q0 2 2.5 2h3.5
q7 0 14 -1t14 -1v5q0 1 -0.5 5t-0.5 8.5v8v4.5v5v9v12.5t0.5 12.5t0.5 8q0 3 -0.5 11.5t-0.5 20v24.5t-0.5 24.5t-0.5 20v11.5v1zM126 183v6v8.5v7.5v4q1 10 2 15.5t4 9t8.5 4.5t15.5 1q8 0 16 -0.5t16 -1.5q6 -4 8 -11.5t2.5 -16t0 -17t-0.5 -13.5v-5v-6.5v-5.5v-5
q-1 -2 -2 -2.5t-3 -0.5h-2.5t-1.5 1v19l-1 0.5t-2.5 1l-3 1t-2.5 0.5q-1 1 -4 1h-4h-4t-4 -1q-1 0 -1.5 -1.5l-0.5 -1.5v-3.5t-0.5 -5t-0.5 -5v-3.5h-5v22l0.5 1.5l0.5 1.5l1.5 1.5l0.5 0.5h29l1 0.5l1 0.5v3v3v2.5v2.5l-1 1.5l-1 1.5h-53q-1 -8 -1.5 -16.5t-0.5 -17.5
l-3 -3l-4 3v3v4.5v5.5v5zM46 226q0 2 0.5 3.5t2.5 1.5t3.5 -2t1.5 -4.5t0.5 -5.5t1.5 -5l2 -64t1 -64v-12q-2 -4 -5 -4q-4 0 -3 4q-1 5 -1 17t-0.5 26.5t-1 30.5t-1 30.5t-1 26.5t-0.5 17v4zM188 217q0 6 -2 9.5t-9 3.5h-34q-1 0 -4 -2t-3 -3v-13q0 -1 2 -2t4.5 -1.5t4.5 -1
l2 -0.5h38l0.5 1.5t0.5 2.5v6zM97 125v22q0 11 0.5 21t0.5 20.5t1 22.5q0 1 0.5 3.5l1 5t2 4.5t3.5 2q1 0 2 -0.5t1 -1.5v-6q0 -11 -2.5 -22t-2.5 -22v-90q0 -1 0.5 -2.5t0.5 -3t0.5 -2.5t0.5 -2q0 -4 -4 -4q-1 0 -2 1.5t-1.5 3t-0.5 3.5v3v9q0 6 -0.5 13t-0.5 13v9z
M125 137q8 2 16 4.5t16 2.5h2q2 0 5.5 -0.5t7.5 -0.5t6.5 -0.5t3.5 -0.5q3 0 6.5 -1.5t7 -4t6 -6t2.5 -6.5v-27q0 -1 -1.5 -3.5t-3.5 -4l-4 -3t-4 -1.5h-58q-5 0 -8 4t-4.5 8.5t-2 10t-0.5 8.5q0 2 0.5 6t0.5 5q2 2 3.5 5zM125 113v-7.5t1 -6.5t3.5 -5t6.5 -2v31q5 0 6 -5
t1.5 -11t2.5 -11.5t8 -5.5v44l-0.5 1t-1.5 1h-4q-12 0 -17.5 -5.5t-5.5 -17.5zM170 92h4q0 1 0.5 3.5t1 5.5t0.5 5.5t1 3.5q0 2 0.5 4.5t1 4.5t2 4t2.5 3q3 0 3.5 -1t0.5 -3q0 -4 -2 -9t-2 -10v-4.5v-4.5l3 -1.5t2 -0.5q3 0 5 2t3 5t1.5 6.5t0.5 5.5q0 9 -2.5 14t-7.5 7.5
t-11 3t-13 0.5v-42q0 -1 1 -1.5t2 -0.5h2h1zM117 67v5q4 0 6.5 -1.5t5 -4t4 -5.5t3.5 -5q1 -1 4 -4.5t7 -8t7.5 -9t6.5 -7.5q1 -1 1 -1.5t2 -0.5h1q1 2 3.5 4.5l5.5 5.5l5.5 5.5l3.5 3.5q1 0 3.5 1.5t3.5 1.5l0.5 0.5t0.5 1.5t2 3t3.5 4.5t2.5 4.5t2 3l1 1.5t2.5 2.5t2 1.5
t1.5 0.5q0 1 2.5 1.5t3.5 0.5v-8l-3 -3l-4 -4t-3.5 -4t-2.5 -2q-1 -2 -4 -5.5t-6.5 -7.5t-8 -8.5t-8 -8.5t-6.5 -6.5t-4 -2.5t-4.5 3.5t-8.5 9t-10 12.5t-9.5 13t-8.5 10.5t-6 6.5zM147 60v0q0 1 1 1l1.5 1.5l1.5 1.5l2 -0.5t3 -1.5h26q2 0 2.5 -1t0.5 -2v-2t-2 -1h-31
q-1 0 -3 1t-2 3zM54 22q0 2 1 2.5t2.5 1t2.5 0.5h2h3t2 -1q2 0 8 -0.5t12.5 -1t12.5 -1t9 -0.5l2 -1v-1q0 -3 -3 -4t-5 -1t-6 0.5t-9.5 0.5t-11.5 0.5t-11 1.5t-8 2t-3 2z" />
</svg>
