<?xml version="1.0" standalone="no"?>
<!DOCTYPE svg PUBLIC "-//W3C//DTD SVG 1.1//EN" "http://www.w3.org/Graphics/SVG/1.1/DTD/svg11.dtd" >
<svg xmlns="http://www.w3.org/2000/svg" xmlns:xlink="http://www.w3.org/1999/xlink" version="1.1" viewBox="-10 0 266 256">
   <path fill="currentColor"
d="M173 201q1 4 1.5 12.5t2.5 17t6 14.5t12 6q5 0 5 -5q0 -4 -1.5 -7.5t-4 -7t-4.5 -6.5t-3 -7q-1 -1 -1.5 -4t-1 -7t-1.5 -7t-1 -4q1 -2 2.5 -8t3 -13t2.5 -13t1 -8q0 -1 -0.5 -4.5t-0.5 -5.5q-3 -5 -8 -7.5t-11 -3t-12.5 0t-12.5 1.5l-2 -0.5t-2 -1.5q-1 0 -1.5 -0.5
l-0.5 -0.5v-11l2 -2q14 -1 23 -4t13.5 -8.5t5.5 -14.5t1 -24v-13q0 -5 -3 -8t-7 -4.5t-9 -2t-9.5 -0.5t-8 -0.5t-3.5 -1.5q-1 -1 -1.5 -3.5t-0.5 -4.5v-2v-3l0.5 -1t0.5 -2.5t0.5 -2.5l0.5 -1q0 -3 -3 -5t-6 -2t-3.5 3t-0.5 6v1v3t0.5 4t0.5 3.5v1.5l1 1.5l1 1.5v1v1
l-1.5 0.5l-1.5 0.5l-27 3q-2 1 -4 3t-4 4.5t-2.5 5.5t-0.5 5v18v16.5t3 15.5q3 5 8.5 6t11.5 1.5t10.5 2t4.5 6.5q0 4 -1 6t-4 5q-1 0 -3.5 -0.5t-4.5 -0.5q-3 0 -5.5 0.5t-3.5 0.5l-2 0.5t-3 0.5h-1q-5 0 -6.5 -1t-2 -3t-0.5 -4t-3 -4q0 -1 -1.5 -2.5l-3.5 -3.5l-3.5 -3.5
l-2.5 -2.5h-2q-3 0 -4 1t-1 4q0 2 2 4l4 4l4 4t2 5q0 2 -2 2.5t-6 0.5h-7t-7 0.5t-5.5 2.5t-2.5 6q0 2 1 3.5t4 2.5q7 -3 12.5 -5t12.5 -2q2 0 3.5 0.5t1.5 2.5q0 6 -3 10t-5 9q-8 15 -12.5 31.5t-4.5 33.5v2v3v3v3q1 2 2 3t4 1q5 0 7 -3t2 -8v-2t-0.5 -4.5t-1 -4.5t-0.5 -3
v-1q0 -11 3 -20t6.5 -18.5t7 -18.5t5.5 -18q1 -1 4 -2t6 -1.5t6 -0.5h5q3 0 4 1t1 3q0 4 -2.5 9t-6 10.5t-6 11.5t-2.5 12q0 2 1 4.5t2.5 4.5t3.5 3.5t5 1.5h20q5 0 8.5 -5.5t6.5 -13t5 -15t4 -11.5v-1v-1l-0.5 -0.5t-1.5 -0.5h-1q-3 0 -5 3t-3.5 7.5t-3 10t-4 10t-5.5 7.5
t-8 3q-8 0 -10 -3.5t-2 -9.5q0 -4 1.5 -11.5t5 -14t8 -11.5t9.5 -5h25q5 0 6.5 3.5t1.5 6.5v6.5t-0.5 7t-1.5 6.5t-3 6v3.5v4.5v5.5v3.5l-0.5 2t-0.5 3zM102 90q0 -2 1.5 -3t3.5 -2t3.5 -1.5t3.5 -0.5h3.5h5.5h6h4v25q0 1 -3 1.5t-5 0.5q-6 0 -10.5 -1t-7 -3t-4 -6t-1.5 -10
zM141 103v-1q0 -1 1 -2v-2.5v-5t0.5 -4.5t0.5 -3t1.5 -1.5t2.5 -1t2.5 -0.5h1.5h4.5t7 -0.5t7.5 -0.5h4q0 13 -5 20t-19 7q-3 0 -6 -0.5t-3 -4.5zM104 74q-1 -3 -1.5 -5t-0.5 -5q0 -4 3 -7.5t7 -5.5t9 -3t9 -1q3 0 4 2t1 4v2q0 1 -1 2l-1 1v3.5v4.5v5v3l-3.5 0.5t-4.5 1.5
h-1h-1q-1 0 -3.5 -0.5t-5.5 -1t-6 -0.5h-4zM143 61q0 -6 1 -9t7 -3h9t8.5 1.5t5.5 4t2 8.5q0 5 -3 7.5t-7 3t-8.5 0.5h-9.5h-3q-2 -5 -2 -7.5v-5.5z" />
</svg>
