<?xml version="1.0" standalone="no"?>
<!DOCTYPE svg PUBLIC "-//W3C//DTD SVG 1.1//EN" "http://www.w3.org/Graphics/SVG/1.1/DTD/svg11.dtd" >
<svg xmlns="http://www.w3.org/2000/svg" xmlns:xlink="http://www.w3.org/1999/xlink" version="1.1" viewBox="-10 0 266 256">
   <path fill="currentColor"
d="M179 189q0 3 0.5 8.5t1.5 12.5t2.5 14t4 13t6 10t8.5 4q2 0 2 -2.5v-3.5q0 -4 -1.5 -7t-3 -6.5t-3.5 -6.5t-3 -7q-3 -8 -4.5 -17t-1.5 -18q0 -8 2.5 -15.5t2.5 -15.5q0 -9 -4.5 -12.5t-13.5 -3.5q-8 0 -14.5 1t-14.5 1h-14q-1 -1 -1 -2v-3t3.5 -3t9.5 -2t13 -2t14 -2.5
t12.5 -4.5t8.5 -8q2 -6 3 -11.5t1.5 -10t0.5 -9.5v-10v-3t-0.5 -4.5t-1.5 -4t-3 -1.5t-3 1.5t-1 3.5v4.5v7.5v7.5v4.5q0 2 -0.5 6.5t-2 8.5t-3.5 7t-5 3h-1q-1 0 -2.5 -1.5t-3.5 -3t-3.5 -3l-1.5 -1.5q-1 -1 -4.5 -3t-6.5 -4.5t-5.5 -5t-2.5 -3.5q0 -3 3.5 -5.5t8 -4t8 -3
t3.5 -5.5v0q0 -1 -0.5 -2l-0.5 -1h-8q-2 2 -5 4.5t-6.5 5t-7 4t-6.5 1.5q-4 0 -7.5 -2.5t-7 -5.5t-7 -5.5t-7.5 -3.5q-4 0 -4.5 1t-0.5 3q0 4 4 6t8.5 3.5t8.5 4t4 6.5q0 3 -5 5.5t-11.5 5t-11.5 6.5t-5 8v0v1l0.5 0.5t1.5 0.5h1q2 0 7.5 -3t12 -7t12 -7.5t7.5 -5.5q2 1 7 4
t10.5 7t9.5 8t4 6t-1 3t-3 1h-4h-3q-1 0 -8.5 0.5t-15.5 0.5t-15 0.5t-9 0.5h-1q-12 0 -17 -6t-6.5 -14.5t-1 -18.5t-0.5 -18q-1 -2 -2.5 -4.5t-3.5 -2.5q-1 0 -2 0.5t-1 1.5t-0.5 3t-0.5 4v4v3v16t2 17t7 14t15 7q1 0 4.5 0.5t7.5 0.5t7.5 0.5t5.5 0.5q2 1 3 3t1 5t-4 4.5
t-9 2t-10 0.5h-7q-3 0 -5 -2t-3.5 -4.5l-3 -5t-3.5 -2.5t-2.5 1.5t-0.5 2.5q0 3 1 6t1 6v1.5t-2 1.5q-1 0 -4 0.5l-6 1l-6 1t-4 0.5q-3 0 -3 1v3q0 4 1 4.5t5 0.5t8 -2t9 -2h3q1 0 2 1v3v4v4v2q0 12 -1.5 23t-6.5 22q-1 3 -3.5 6l-5 6t-4 6t-1.5 6q0 2 1.5 2h2.5q6 0 10 -5
t7 -11.5t4.5 -14t2.5 -11.5q0 -2 1 -6t1 -8t0.5 -7t0.5 -4v-2.5t-0.5 -5t-0.5 -5v-2.5v-3q0 -2 5 -4t11 -3.5t11.5 -2.5t7.5 -1t2 1.5v3.5q0 6 -3.5 11t-7.5 9.5t-7.5 9.5t-3.5 11q0 11 6 16t16 5t14.5 -2.5t6.5 -6.5t3 -10t4 -14q0 -1 1.5 -3.5l3 -5l3 -5t1.5 -3.5
q1 -2 0 -2.5t-3 -0.5q-5 0 -7.5 3t-4 8.5t-2.5 11t-2.5 10.5t-4.5 8.5t-9 3.5q-3 0 -6 -0.5t-6 -2t-4.5 -4t-1.5 -6.5t3.5 -9t7.5 -11t7.5 -12.5t3.5 -15.5q9 1 18.5 0t18.5 -1q5 0 9 1.5t4 7.5q0 9 -2 18t-2 18zM132 54v16h2t3 -1q3 -1 3 -3.5v-5t0.5 -5t3.5 -3.5
q4 0 11 -0.5t14 -2.5t11.5 -5.5t4.5 -10.5v-1v-2.5t-0.5 -3.5t-0.5 -4v-2q0 -1 -1.5 -2t-1.5 -2h-1q-4 0 -5 3.5t-1.5 8t-2 8.5t-6.5 5q-1 1 -3 1t-5 0.5t-5.5 1t-3.5 0.5h-2h-3t-1 -3v-26q0 -2 -2 -2h-3t-3.5 0.5t-2.5 2.5v28h-20q-5 0 -6.5 -3.5t-1.5 -8.5t-1.5 -8.5
t-7.5 -3.5q-2 0 -3.5 1t-1.5 3t1 6.5t2.5 9t4 7.5t5.5 4z" />
</svg>
