<?xml version="1.0" standalone="no"?>
<!DOCTYPE svg PUBLIC "-//W3C//DTD SVG 1.1//EN" "http://www.w3.org/Graphics/SVG/1.1/DTD/svg11.dtd" >
<svg xmlns="http://www.w3.org/2000/svg" xmlns:xlink="http://www.w3.org/1999/xlink" version="1.1" viewBox="-10 0 266 256">
   <path fill="currentColor"
d="M79 247q1 2 3.5 2.5t4.5 0.5t3.5 -1t1.5 -4v-2l-0.5 -3.5l-0.5 -3.5v-5t-0.5 -6t-0.5 -6v-4q0 -8 0.5 -14.5t1.5 -12.5t3.5 -12.5t5.5 -14.5q1 -3 3 -6t3.5 -5.5t3 -5.5t1.5 -6t-1 -7t-3.5 -8.5t-5 -7.5t-5.5 -3t-3 5v0v1q2 4 5 9.5t3 11.5q0 2 -2 6t-4.5 8.5t-5.5 8.5
t-4 7q-3 7 -4.5 14t-2 14t-0.5 14v14v22zM143 227q4 6 8.5 10t9 7t9.5 4.5t12 1.5q1 0 3 -0.5t3.5 -1.5t2.5 -2t1 -3q-1 -3 -4.5 -5t-9 -4t-11 -4.5t-10.5 -6t-8 -9t-3 -13.5t3.5 -13.5t8 -10t8 -9t3.5 -9.5q0 -4 -1.5 -7t-4 -6t-4.5 -5.5t-2 -6.5q0 -6 1 -11.5t1 -12.5
q-5 0 -7 3t-2.5 7.5t0 9t0.5 8.5q0 3 1 5.5t2 4.5t2 4.5t1 5.5q0 5 -3.5 9t-7.5 8.5t-7 10t-3 14.5q0 4 0.5 7.5t2 6.5l3 6t2.5 7zM127 94v36q0 2 1 2h2q3 0 5.5 -2.5t2.5 -5.5v-26q0 -1 2 -2.5t3 -1.5q2 -1 6.5 0.5t9.5 5t10.5 7.5t10.5 7.5t8 5.5t5 2q3 0 5 -1.5t2 -4.5
q0 -4 -4.5 -7.5t-11.5 -7t-15 -7t-15 -6.5t-11.5 -6t-4.5 -6q0 -4 3 -5.5t7.5 -2.5t9.5 -1.5t9 -3.5t7 -9t3 -17v0q0 -2 -0.5 -5.5t-1.5 -4.5h-1h-2q-5 0 -6 3.5t-1 8.5t-0.5 9t-3.5 5l-17 5l-3 -3v-34q0 -4 -2.5 -7t-5.5 -3q-7 0 -13 1.5t-12.5 3t-12.5 3.5t-13 3l-1.5 0.5
t-3.5 0.5t-3.5 0.5t-2.5 0.5q-2 0 -5 3t-3 6v1l1 1t1 2h2h3q6 0 12.5 -2.5t13.5 -5.5t13.5 -5t13.5 -2q3 0 4 2t1.5 4.5t0 5.5t-0.5 5v11l-0.5 1.5l-1 3t-1.5 2.5t-2 1h-14q-3 0 -4.5 -3.5t-2.5 -4.5q0 -1 -1 -3t-1.5 -4l-1 -4t-1.5 -2h-1q-2 0 -3 1.5t-1 3.5v4v3v4v3
q1 2 1.5 4t2 4t2.5 3.5l1 1.5h26q2 0 3.5 2t1.5 4q0 3 -2 5.5t-4.5 4t-6 2t-5.5 2.5q-1 0 -4.5 2t-6.5 3.5l-6 3t-4 2.5q-4 2 -8.5 5t-9 6.5t-8.5 7t-7 7.5v0q0 2 1.5 3.5t3.5 1.5q5 0 13 -6t16.5 -13t17.5 -12.5t17 -5.5z" />
</svg>
