<?xml version="1.0" standalone="no"?>
<!DOCTYPE svg PUBLIC "-//W3C//DTD SVG 1.1//EN" "http://www.w3.org/Graphics/SVG/1.1/DTD/svg11.dtd" >
<svg xmlns="http://www.w3.org/2000/svg" xmlns:xlink="http://www.w3.org/1999/xlink" version="1.1" viewBox="-10 0 266 256">
   <path fill="currentColor"
d="M130 246q0 4 3 4q7 0 7 -7q-1 -29 -0.5 -57.5t1.5 -57.5q0 -1 -0.5 -3.5t-0.5 -3.5l0.5 -2.5l0.5 -2.5l2 -10t1.5 -10l1 -10t0.5 -9q3 -7 8.5 -10.5t12 -5t13 -2t12 -3t9 -7t3.5 -13.5q0 -6 -1.5 -13t-6.5 -11h-16h-11q-4 0 -8.5 0.5t-9.5 0.5t-11 1l-2 2l-2 2v0v1
q0 3 3 3.5t5 0.5q7 0 14 -1t14 -1h3h4h4h3q5 1 7.5 5t2.5 10v4.5t-2 4.5q-10 4 -17.5 6t-13.5 3.5t-10 3.5t-7 6.5t-5.5 12t-4.5 20.5q0 1 -0.5 4t-1 6.5t-1 6.5t-0.5 4v6v12v11v6t-0.5 3.5t-0.5 5.5t-0.5 5.5l-0.5 2.5v13v20v19v13q0 1 -0.5 5t-0.5 5v1zM77 241v3.5t2 2.5
t3.5 -1.5l2.5 -2.5q0 -1 1 -3t1.5 -4.5t0.5 -4.5v-3v-2t-0.5 -2.5t-0.5 -2.5v-2v0v0q0 -13 0.5 -27t4.5 -25v-49q0 -3 2 -3.5t4 -0.5q3 0 4.5 2t3 5t2 6.5t0.5 5.5q0 1 0.5 4t1 5.5t0.5 4.5v3v25v25t-4 25v0q0 3 4 3q3 0 5 -3.5t2.5 -8t0.5 -8.5v-6v-13v-7.5t-0.5 -12
t-1 -12.5t-0.5 -7v-20t-4 -19q-3 -5 -6 -5t-6.5 -0.5t-6 -3t-2.5 -11.5q0 -1 0.5 -3t0.5 -3l3 -3l15 -3q3 -1 4.5 -7t2.5 -13.5t1 -14v-7.5v-6q0 -1 -2 -2t-3 -1q-2 0 -2.5 3t-0.5 8v11t-1 10.5t-3.5 8t-7.5 3.5h-1.5h-2.5t-1.5 -0.5t-0.5 -1.5v-54q0 -2 -5 -3.5t-10.5 -2
l-11 -1t-6.5 -0.5q-3 0 -5 1t-2 5v1l1 1.5l1 1.5h26l3 2l0.5 2.5t0.5 6.5t0.5 8t0.5 7v15v10l-2 4h-15q-2 0 -3 -3t-1.5 -6.5t-0.5 -7v-4.5v-3.5t-0.5 -5t-0.5 -5v-3.5q-1 -3 -4.5 -3.5t-5.5 -0.5q0 5 -0.5 11.5t0 12.5t2 12t3.5 11q1 3 4 4t6 0.5t6.5 -0.5t6 0.5t4 2.5
t1.5 7t-2.5 8t-6 4.5t-7 3.5t-6.5 5q-4 7 -6 14.5t-2.5 15.5l-1 16t-1.5 15q0 2 -1 8t-2.5 13.5t-2 13.5t-1.5 8v2v2q0 3 1 5.5t4 2.5q2 0 4.5 -2.5t2.5 -4.5l10 -94q0 -1 0.5 -3.5t1.5 -4.5t2.5 -3.5t4.5 -1.5q5 0 6 3.5t1 9.5q0 14 -1 28l-2 28l-2 28t-1 28zM183 92v9
t0.5 13t0.5 13.5v8.5q0 4 1.5 13t3 20.5t3.5 23.5t4 22.5t3.5 17.5t2.5 9l2 0.5t3 0.5h1q2 0 2.5 -1.5t0.5 -2.5q0 -7 -1.5 -13.5t-3.5 -12.5t-4 -12.5t-3 -13.5q0 -2 -1 -8.5t-1.5 -14t-1 -14t-1.5 -9.5q-3 -7 -3 -16v-17v-16q1 -1 3 -2t3.5 -2t3 -2.5t1.5 -2.5
q0 -3 -1.5 -3.5t-3.5 -0.5q-15 0 -25 8t-14 22v36v21v19t1 19t2 22q0 1 0.5 2.5t1 3.5t1.5 3t2 1q4 1 5.5 -1.5t1.5 -5.5v-1q-2 -9 -3 -18t-2.5 -18.5t-2 -19t-1.5 -17.5q0 -2 0.5 -7.5t0.5 -12.5t0.5 -13t0.5 -8v-4.5v-2.5t0.5 -2l1.5 -3q0 -1 1 -2.5t2.5 -3t2 -3l0.5 -1.5
h9z" />
</svg>
