<?xml version="1.0" standalone="no"?>
<!DOCTYPE svg PUBLIC "-//W3C//DTD SVG 1.1//EN" "http://www.w3.org/Graphics/SVG/1.1/DTD/svg11.dtd" >
<svg xmlns="http://www.w3.org/2000/svg" xmlns:xlink="http://www.w3.org/1999/xlink" version="1.1" viewBox="-10 0 266 256">
   <path fill="currentColor"
d="M175 199q0 6 2 12.5t5.5 13t7.5 12t7 10.5h3q3 0 5.5 -1t2.5 -6q0 -1 -1 -3t-3 -4l-3.5 -3.5l-2.5 -2.5q-2 -3 -4.5 -7.5t-4.5 -9t-3.5 -9.5t-1.5 -9q0 -2 2.5 -4t5 -4.5t5 -5.5t2.5 -8q0 -7 -2 -11t-4.5 -6.5t-5.5 -4t-6 -3.5t-4.5 -5t-1.5 -9v-1q5 -4 7.5 -7t3.5 -7
t1.5 -8.5t0.5 -10.5q0 -1 -0.5 -4.5t-1 -6.5t-1.5 -5.5t-4 -2.5q-1 0 -2.5 0.5t-2.5 1.5q1 6 -0.5 9t-5.5 4t-8.5 1h-9.5h-5q-2 0 -4 -2v-2.5t-0.5 -4t-1.5 -4t-3 -1.5q-3 0 -4.5 2.5t-1.5 4.5q0 4 1 10t3 12t4.5 11.5t5.5 7.5v25q-1 2 -2 8.5t-1 13.5v14v11v6t-0.5 8
t-0.5 8v5l-0.5 1.5l-1 3t-0.5 3v1.5q0 2 2 4t4 2q3 0 5 -3v-10v-15v-15v-10q1 -14 2.5 -27t0.5 -28q1 -3 2.5 -3.5t5.5 -0.5h1.5h1.5h2t1 1q0 9 2 13.5t4.5 7t5.5 4t5.5 3t4 4t1.5 7.5q-8 6 -12 12.5t-4 16.5zM86 227l2 9h0.5h1.5q2 0 3.5 -2t2 -5t0.5 -6v-4q0 -6 -1 -11
t-1 -11q0 -2 1 -3t1 -3q0 -20 -2 -40t-2 -40q0 -2 1 -4.5t4 -2.5t5.5 4t4.5 9.5t3 11.5t1 9v3v5v5v3q0 1 0.5 6l1 10t0.5 10v6v20q1 1 1.5 1h1.5q2 0 3.5 -0.5t3.5 -2.5v-6q0 -19 -2 -38.5t-5 -38.5q-2 -4 -3 -9t-3 -9t-5 -4.5t-5.5 -1t-5 -2.5t-2.5 -8q0 -4 2.5 -5.5l5 -3
t5 -2.5t3.5 -5q2 -5 3 -12.5t1 -12.5v-2q0 -2 -0.5 -3.5t-1 -2.5t-2.5 -1h-0.5h-0.5q-2 1 -4 3l-2 2v24q0 2 -2.5 3.5t-3.5 1.5h-2.5t-1.5 -2v-11.5t-0.5 -11l-1 -11t-0.5 -11.5q0 -1 -1 -3.5t-2 -2.5h-3h-6.5t-11 1t-10.5 2.5t-5 3.5q-1 2 1.5 3.5t3.5 1.5h1q1 0 3.5 -0.5
t5.5 -1t5.5 -1l2.5 -0.5h1q4 0 5.5 4t2.5 9t1 10.5v8.5q0 2 -0.5 4.5t-1.5 4.5t-2.5 3.5t-4.5 1.5q-4 0 -6.5 -4t-3 -8.5t-0.5 -9.5v-7q-1 -2 -3 -3.5t-4 -1.5t-3 1.5t-1 2.5v2q0 2 1 6t1.5 8.5t1.5 7.5t1 4q1 5 5 7.5t8.5 3t7.5 0.5q4 0 4 1v14l-2 1t-5 2t-5.5 1h-3.5
q-6 9 -8.5 17.5t-2.5 19.5v75q0 1 2.5 2l2.5 1h1v0q3 0 5 -2t2 -4q0 -13 -1 -25.5t-1 -25.5v-34q0 -2 1 -5t2.5 -5.5t4 -4t5.5 -1.5h2t1 1l3 21v96zM145 109q0 -3 0.5 -5.5t5.5 -2.5h26q0 5 -0.5 9t-2.5 6.5t-5.5 3.5t-9.5 1q-7 0 -10.5 -2.5t-3.5 -9.5zM123 75q0 2 1.5 2
h2.5h3q6 -4 9 -8.5t4.5 -9t1.5 -10v-12.5v-2v-3v-4v-3q-1 -3 -2.5 -3.5t-4.5 -0.5h-3t-3 3q0 2 0.5 4.5t1.5 5.5t2 6.5t1 5.5q0 6 -1 9.5t-2.5 6.5t-4.5 5.5t-6 6.5v1zM164 20v1l0.5 2l0.5 2q0 2 1 4.5t1 5t0.5 5l0.5 2.5q1 8 2.5 14.5t4 11t8 7t14.5 2.5q2 0 3.5 -1.5
t1.5 -3.5v-1q-1 -1 -1.5 -2l-0.5 -1q-3 -1 -7.5 -3t-8 -5t-6 -6.5t-2.5 -7.5v-1v-1q0 -1 1 -2.5t1 -2.5t-1.5 -3t-1.5 -3v-20q-4 0 -7.5 1t-3.5 6z" />
</svg>
