<?xml version="1.0" standalone="no"?>
<!DOCTYPE svg PUBLIC "-//W3C//DTD SVG 1.1//EN" "http://www.w3.org/Graphics/SVG/1.1/DTD/svg11.dtd" >
<svg xmlns="http://www.w3.org/2000/svg" xmlns:xlink="http://www.w3.org/1999/xlink" version="1.1" viewBox="-10 0 266 256">
   <path fill="currentColor"
d="M166 249q1 1 2 1.5t2 0.5q3 0 4.5 -1.5t2 -4l1 -5t0.5 -4.5q0 -4 -0.5 -7t-1.5 -7v-51l-0.5 -2.5t-0.5 -3.5v-3v-4.5t0.5 -4.5t0.5 -3l1.5 -1.5l1.5 -1.5h1q5 0 8 5.5t4 14t1.5 18.5t0.5 18.5t1 14t4 5.5q2 0 3.5 -1.5t2 -4t0.5 -5v-3.5v-14t-1.5 -18.5t-3 -18
t-4.5 -12.5q-1 -2 -4 -3t-5.5 -2t-5.5 -1.5t-5 -0.5v-18l14 -3.5t9.5 -5t5.5 -9t2 -14.5h-7l-0.5 1t-1 2.5t-1.5 3t-1 2.5q-2 3 -3 5.5t-2.5 4.5t-4 3t-6.5 1q-1 0 -3 -0.5t-2 -3.5v-21q0 -3 3.5 -4t7.5 -1.5t8.5 -1.5t5.5 -6q3 -7 3.5 -15t0.5 -16q0 -9 -1 -14t-3.5 -7.5
t-7 -3.5t-13.5 -2h-1h-15.5t-13 2t-9.5 7t-4 15q-1 4 -0.5 10t2 12t4 11.5t6.5 7.5q1 0 3.5 0.5t4.5 0.5h4h3q1 6 1.5 10.5t0.5 9.5v3v2l-3 3h-14q-3 0 -3.5 -3.5t-1.5 -7.5t-3 -7.5t-9 -3.5q0 11 3.5 17.5t12.5 12.5q1 1 3.5 1t5.5 0.5t5 0.5t2 1v20q0 1 -1.5 1.5t-3.5 1.5
t-4 1t-2 1q-5 2 -7 8t-3 12.5t-1 13v12.5v0v3t0.5 4t0.5 4v2v2t-0.5 3t-0.5 3.5v1.5v4q0 2 0.5 4t2.5 2t3 -1t2 -3t1 -3.5v-2.5v-49q0 -2 0.5 -5t1.5 -5.5t2.5 -4t4.5 -1.5h4q1 0 2 2v5t0.5 8.5t0.5 8.5v5q0 3 0.5 8.5t0.5 12.5v14v15t-0.5 12.5t-0.5 7.5zM89 239q1 4 5 4
q2 0 4 -2.5t2 -4.5v-10q0 -23 -2 -46l-4 -46q-1 0 -1 -1v-2v-2t1 -1v-4v-6t0.5 -6t0.5 -4q1 -1 2 -1h2q3 0 6 5t4.5 12t2.5 13t1 9v29q0 3 0.5 10t0.5 15t0.5 15t0.5 10l0.5 0.5l0.5 0.5h1q3 0 5.5 -2.5t1.5 -5.5l-3 -76q0 -1 -0.5 -3.5t-1 -5.5t-1 -5.5t-0.5 -3.5v-2v-3
v-3.5v-2.5q-1 -6 -5 -9t-8 -5t-8 -4.5t-4 -8.5q0 -1 1.5 -2t3 -1.5l3 -1t2.5 -0.5q5 -2 7.5 -5t3.5 -7t1 -8.5t1 -9.5l0.5 -1.5t1.5 -3t1.5 -3l0.5 -1.5q0 -4 -2 -5.5t-5 -1.5q-4 0 -5.5 3t-2 7t0 9t0 9t-2 7t-4.5 3h-2q-2 -6 -3 -11.5t-1 -10.5t0.5 -10.5t0 -11.5
t-2.5 -9.5t-6 -4.5t-9 -1h-9h-3h-3h-4h-2q-2 1 -3 2t-1 3q0 1 0.5 2t1.5 1h26q2 0 3 1.5t2 3.5v5t0.5 6.5t0.5 6.5v5l0.5 1.5l0.5 1.5q0 1 -0.5 2l-0.5 1v3.5t-0.5 5t-0.5 5v3.5q-1 1 -1.5 1h-1.5q-7 0 -10 -2.5t-3.5 -7t0 -9.5t0 -9t-3.5 -7t-9 -3v4.5v4.5q0 2 0.5 6.5l1 9
l1 9t0.5 6.5q2 3 5 4.5t7 2t7.5 1t6.5 0.5q1 2 1.5 3.5t0.5 3.5q0 3 -1.5 4.5t-3 2.5t-3.5 1.5t-4 2.5q-5 3 -8 8.5t-5 10.5q-2 16 -1.5 33.5t0.5 32.5v41q0 1 1 1.5t3 0.5q3 0 4.5 -2t2.5 -5q0 -13 -0.5 -25t-0.5 -24q0 -11 0.5 -22.5t1.5 -23.5q1 -2 1.5 -5t1.5 -6.5
t2.5 -6t4.5 -2.5h2q3 32 4.5 65.5t0.5 65.5zM145 59v-2.5v-1.5q3 -2 7.5 -3.5t7.5 -1.5q2 0 2.5 0.5t0.5 2.5v20l-1 0.5t-2.5 0.5h-2.5h-1q-6 0 -8.5 -5t-2.5 -10zM173 63v-6.5t2 -5.5l0.5 -0.5l0.5 -0.5h17v9.5t-1.5 7.5t-4.5 5t-8 2h-4q-2 -2 -2 -5.5v-5.5zM145 39
q0 -3 1 -5.5t3.5 -5t5 -4t5.5 -1t3 2.5v4q0 7 -3 11t-11 4q-3 0 -3.5 -2t-0.5 -4zM173 42v-15q0 -3 2.5 -3h4.5q6 0 9.5 2t3.5 8q0 2 -0.5 5t-3.5 3h-16z" />
</svg>
