<?xml version="1.0" standalone="no"?>
<!DOCTYPE svg PUBLIC "-//W3C//DTD SVG 1.1//EN" "http://www.w3.org/Graphics/SVG/1.1/DTD/svg11.dtd" >
<svg xmlns="http://www.w3.org/2000/svg" xmlns:xlink="http://www.w3.org/1999/xlink" version="1.1" viewBox="-10 0 266 256">
   <path fill="currentColor"
d="M79 249q0 1 1 1.5t2 0.5q3 0 4.5 -3t1.5 -6v-24q0 -11 -0.5 -21t-0.5 -20v-2q0 -1 0.5 -5t0.5 -5v-57q0 -2 2.5 -2h3.5q3 0 5 4t3 10t1.5 13.5t0.5 13.5v11q0 4 1 5v18q0 12 -2 24.5t-2 24.5q0 2 1.5 2h3.5h1h1l5 -8v-3v-6.5v-7.5v-6q0 -23 -1.5 -45t-1.5 -45
q-1 -5 -3.5 -7.5t-6 -3.5l-7 -2t-5.5 -4v-3v-4v-5t2 -5q4 -1 9 -2.5t9 -4.5q3 -8 3 -14v-15v-2v-4v-4v-2q0 -2 -1.5 -2h-2.5h-2q0 1 -0.5 4.5l-1 7t-0.5 7v5.5v5t-1 5.5t-2.5 4t-5.5 1.5h-2.5t-1.5 -1v-48q0 -1 -3 -2.5t-4 -2.5h-4.5t-8 -0.5t-8 -0.5h-4.5h-1q-2 0 -2.5 1
t-0.5 2q0 4 2.5 5.5t6 1.5h6.5h5q3 3 5 7t2.5 9t0.5 10v9t-1.5 7t-5.5 3q-6 0 -8.5 -4t-3.5 -9t-1 -10.5v-8.5l-0.5 -0.5l-0.5 -0.5q-1 -1 -2 -1.5l-1 -0.5q-1 0 -2 1.5t-2 1.5v3v3v4v2q0 10 2 15.5t5 8t6.5 3.5t6.5 2t4.5 3.5t1.5 7.5q0 7 -3 12q-10 -2 -15 3t-7.5 13
t-2.5 17t-1 14q-3 22 -4 44t-1 44q0 2 1 2.5t2 0.5q3 0 5 -1.5t4 -3.5q0 -3 -0.5 -8t-0.5 -12v-14v-15t0.5 -12t0.5 -8v-2.5v-5.5t0.5 -5.5t0.5 -3.5t0.5 -5t1.5 -8.5t2.5 -9.5t3.5 -9t4.5 -6.5t5.5 -1.5q1 0 2 1.5l1 1.5v105l-0.5 3t-0.5 4v1t0.5 2t0.5 2v1v1.5t-0.5 3
t-0.5 2.5v2v6v7zM135 224q4 6 9 9.5t12 3.5q10 0 21 -1t20 -4q2 -3 3.5 -7t3 -8.5t2 -8.5t0.5 -8l-0.5 -1.5t-0.5 -2.5t-0.5 -2.5l-0.5 -1.5v-2.5v-4.5q0 -7 1 -14t1 -15q0 -1 -0.5 -3t-1 -3.5t-1.5 -2.5t-2 -1q-3 0 -4 2.5t-1.5 5.5t0 6.5t0.5 7t-1 5.5t-4 2q-2 0 -2 -1
l-3 -2q0 -1 -1.5 -2t-3.5 -2t-3.5 -2l-1.5 -1q-4 -3 -5 -8.5t-1 -10t-1 -8.5t-5 -4h-2t-2 2v24l-1 1t-2.5 3t-3.5 3.5t-3 2.5q-2 2 -3 2.5t-3 0.5t-4 -1t-2 -3q0 -5 1.5 -8.5t1.5 -7.5q0 -2 -1.5 -4.5t-4.5 -2.5q0 1 -1.5 2t-1.5 2v3.5v5.5v6v3q0 14 1 28zM140 210
q0 -1 0.5 -2t1.5 -1q10 -2 19.5 -3t19.5 0q1 -1 2 -1.5l1 -0.5h1q6 0 7.5 1.5t1.5 6.5q0 7 -2.5 10.5t-7 5t-9.5 1.5h-10h-13q-6 -3 -9 -6.5t-3 -10.5zM138 191q0 -2 4.5 -6t9.5 -8t9.5 -6.5l4.5 -2.5q4 1 8 3.5t7.5 5t7 5.5t7.5 5v0q0 3 -0.5 5t-2.5 3q-6 1 -10.5 1
t-8.5 0.5t-9 0.5h-9h-3h-4h-4h-3q-2 -1 -3 -2.5t-1 -3.5zM124 62v10.5t0.5 14t0.5 15.5t1 14.5t2.5 10.5t3.5 4v0q1 0 2 -1.5l1 -1.5q0 -1 0.5 -4t0.5 -4q0 -15 -2.5 -30t-2.5 -31v-3.5t1 -4t2.5 -3t3.5 -1.5q3 0 4 1.5t1.5 3t0 3.5t0.5 4q0 1 0.5 4t1.5 6.5t1.5 7t1.5 4.5
q0 2 0.5 7t1 10.5t1 10.5t0.5 7q0 3 1 5t4 2q2 0 2.5 -3t0.5 -5q0 -8 -1.5 -16.5t-3.5 -17t-3.5 -17.5t-1.5 -17q0 -4 1.5 -6t4 -3.5l5 -3t4.5 -4.5q1 -3 -1 -3h-4q-3 0 -5.5 1t-5 2.5t-4.5 3.5t-4 3q-6 4 -9.5 5.5t-5 3t-2 5t-0.5 11.5zM176 125q1 0 2 1t1 2h1q3 0 4 -2.5
t1 -4.5q0 -3 -1.5 -5.5t-2.5 -6.5q0 -2 -1 -7.5t-2 -10.5t-1.5 -9.5t-0.5 -5.5v-2v-2.5v-3.5v-2v-5.5v-5.5q2 -2 5 -4t6 -2h1l1 2l12 72q0 1 1 3t3 2v0h1l1 -0.5t2 -1.5v-2v-3q0 -9 -1.5 -17.5t-3.5 -17t-3.5 -17.5t-1.5 -18v-6q1 0 4 -2t4 -3q1 0 1.5 -0.5l0.5 -0.5
q0 -3 -1 -3.5t-3 -0.5q-6 0 -12.5 2t-12 5.5t-9 8.5t-3.5 13q0 15 2 30.5t6 30.5z" />
</svg>
