<?xml version="1.0" standalone="no"?>
<!DOCTYPE svg PUBLIC "-//W3C//DTD SVG 1.1//EN" "http://www.w3.org/Graphics/SVG/1.1/DTD/svg11.dtd" >
<svg xmlns="http://www.w3.org/2000/svg" xmlns:xlink="http://www.w3.org/1999/xlink" version="1.1" viewBox="-10 0 266 256">
   <path fill="currentColor"
d="M157 183q5 0 8.5 5t6.5 12.5t5.5 16.5t5 16.5t6 12.5t8.5 5q2 0 3.5 -2t1.5 -4q0 -1 -1.5 -5t-3.5 -8.5t-4 -8.5t-3 -7q-1 -4 -3.5 -8l-5 -8t-4 -8t-1.5 -9q0 -3 3 -4.5t6.5 -3t7.5 -2.5t5 -4q0 -1 0.5 -4.5t0.5 -4.5q0 -5 -0.5 -8.5t-0.5 -7t-0.5 -8t-0.5 -9.5
q-1 -2 -2 -2h-2q-4 0 -4 2v4.5t-3 4.5t-13 2h-3.5h-3.5v-4.5t-0.5 -5.5t-2 -5.5t-3.5 -3.5q0 -1 -1 -1q-2 0 -3 2t-1 4q0 4 1.5 7t1.5 7q0 2 -0.5 3t-2.5 2h-4t-6 0.5t-6 0.5h-4l-2.5 2.5t-1.5 2.5t0.5 1.5l0.5 0.5h26l0.5 2.5t1.5 5.5l2 6t1 4v1v1l-1.5 1.5l-1.5 1.5
q-1 0 -3 0.5t-4.5 1t-4.5 1t-3 0.5h-2.5h-5t-4.5 1t-2 3q0 4 2 5t5 1q5 0 9.5 -2t9.5 -2zM81 221q-3 6 -3.5 13t-0.5 13q12 0 12 -13q-1 -19 -0.5 -40t1.5 -40q1 -1 1.5 -4t0.5 -4l0.5 -0.5l1.5 -1.5q-2 -5 -2 -10.5v-10.5v-13q-2 -3 0.5 -4t4.5 -1q3 0 5 1.5t3.5 4.5
t2.5 5.5t2 5.5q0 7 0.5 12.5t0.5 11v11v11.5q0 12 -1.5 24t-1.5 24q0 3 1.5 3.5t3.5 0.5l3 -0.5t3 -1.5v-87l-0.5 -2.5t-1 -6.5t-1.5 -7.5t-2 -5.5q0 -3 -2 -5t-4.5 -3l-5 -2t-4.5 -2q-1 0 -3 -0.5t-3 -2.5v-6q0 -6 2 -8t5 -3t7 -1.5t7 -4.5q1 -2 2 -7t1.5 -11t1 -11.5
t0.5 -8.5v-11l-3 -1.5t-2 -0.5t-2 0.5t-1 1.5v6v8v8v6q-1 3 -1.5 6t-1.5 5.5t-3 4.5t-6 2q-3 0 -4.5 -1t-1.5 -6v-39q0 -2 -1.5 -5.5t-3.5 -4.5h-9h-9.5t-9 1t-7.5 3.5t-3 7.5q8 0 15 -2t14 -2q4 0 6 4.5t2 10v10.5v7v14l-2 2t-2 1q-6 1 -9.5 -2.5t-4.5 -9t-0.5 -11.5
t0.5 -9q-1 -3 -2.5 -3.5t-3.5 -0.5q-3 0 -3.5 1.5t-0.5 4.5v8t0.5 10.5t1.5 10t5 6.5q3 1 6.5 1t6.5 1t5.5 3.5t2.5 6.5q0 2 -0.5 4.5t-1.5 5.5q-12 2 -17.5 9t-7.5 16t-2 20t-1 20v2t-0.5 4.5t-0.5 4v2.5v23v24q0 1 0.5 1.5l0.5 0.5h0.5h0.5q2 0 4 -2t4 -3q-1 -18 -0.5 -36
t1.5 -36q1 -1 1.5 -4.5t1 -8t1 -9.5t1.5 -9t3.5 -7t6.5 -3h1l2 2l2 2v7q0 13 -1.5 26t-2.5 26.5t-1.5 26.5t0.5 26zM168 154q-1 -3 0.5 -4.5t4.5 -3t6.5 -2t4.5 -0.5q3 0 4 1.5t1.5 3.5t0.5 4v4v3v2q-2 4 -6.5 5.5t-8.5 1.5h-2zM179 94q-1 12 4.5 17.5t17.5 5.5h5
q1 -1 1.5 -2l0.5 -1v-1q0 -3 -3.5 -4t-7.5 -1.5t-8 -3t-4 -8.5q0 -4 3 -6t6.5 -4t6 -5t2.5 -10v-39q0 -2 -1.5 -4t-4 -3l-5 -2t-3.5 -1h-3h-5.5h-4.5h-3h-11q-7 0 -12.5 1.5t-10 5.5t-4.5 11v34q0 4 3 6.5t6.5 4.5t6 4.5t2.5 5.5q0 5 -1.5 7.5t-4.5 3.5t-6.5 1h-8.5
l-1.5 1.5l-1.5 1.5v1v0v1q2 2 3 2.5t3 0.5h4.5t7.5 -1t7 -2t4 -3l3 -15l2 -2t3 -1.5t3.5 -1t2.5 -0.5h1l2 1.5l2 1.5q1 0 1.5 1zM142 65q0 -3 1 -5t3.5 -2.5l5 -1t5.5 -0.5h2t3.5 0.5t2.5 1t1 1.5v22q0 2 -2 2h-3q-3 0 -6.5 -1.5t-6.5 -4t-4.5 -5.5t-1.5 -7zM174 79l2 -21
l1.5 -0.5t2.5 -1.5h2.5t3 -0.5t3.5 -0.5h3h1h1l1 1l2 2v1q0 2 -1 6t-2.5 8t-3.5 7t-5 3h-1q-1 -1 -4.5 -1.5t-4 -1l-1 -1zM143 42q0 -2 2 -4.5t4.5 -4.5t5.5 -3t6 -1q1 0 2.5 1t2.5 2q0 1 0.5 2.5t0.5 4t0.5 4t0.5 2.5t-0.5 2t-1.5 1h-21q-1 0 -1.5 -1.5t-0.5 -2.5v-2z
M174 40q0 -5 2 -7.5t7 -2.5t9.5 2.5t4.5 8.5q0 2 -1.5 3.5t-3.5 2t-4 0.5h-3t-4 -0.5t-4 -0.5t-2 -2.5t-1 -3.5z" />
</svg>
