<?xml version="1.0" standalone="no"?>
<!DOCTYPE svg PUBLIC "-//W3C//DTD SVG 1.1//EN" "http://www.w3.org/Graphics/SVG/1.1/DTD/svg11.dtd" >
<svg xmlns="http://www.w3.org/2000/svg" xmlns:xlink="http://www.w3.org/1999/xlink" version="1.1" viewBox="-10 0 266 256">
   <path fill="currentColor"
d="M170 249q1 2 4 2t4.5 -3t1.5 -5t0.5 -8t1 -12.5t0.5 -12v-7.5v-77q0 -1 2 -1.5l2 -0.5q4 0 6.5 4.5t4 10.5t2 12t0.5 9q0 1 0.5 4.5t0.5 7.5t0.5 7.5t0.5 4.5v8v12v12.5v7.5h1.5t3 -0.5t2.5 -1.5t1 -2v-3v-3v-4v-3q0 -3 -0.5 -10.5t-1 -18t-1.5 -21t-2.5 -19.5t-3 -15
t-4.5 -6h-14l-0.5 -3.5t-1 -8t-0.5 -7.5v-2q0 -1 3 -2t7 -3t8 -4.5t6 -8.5q0 -2 0.5 -5.5t1 -7.5l1 -8t0.5 -5v-3v-3t-2 -2q-4 0 -5.5 3t-2 7t-0.5 9.5t-1.5 10t-5 7.5t-10.5 3v-37q-3 -5 -2.5 -9t0.5 -6.5t-2.5 -4.5t-11.5 -2h-1q-1 0 -3.5 0.5t-5.5 0.5t-5.5 0.5t-3.5 0.5
q-1 1 -2 2.5t-1 2.5v1l0.5 0.5t1.5 0.5l3 0.5t4 0.5q4 0 7.5 -1t6.5 -1q2 0 3 3t2 8t1.5 11t0.5 11v8.5v4.5q0 7 -9 7q-7 -1 -9 -6.5t-2.5 -12t-1.5 -12t-5 -5.5h-1q-1 0 -2 0.5t-1 1.5v4q0 7 1 14l2 14l2.5 1t3.5 2q1 0 2.5 1.5t2.5 1.5t3.5 0.5l5 1l5 1t3.5 0.5v2.5v3.5v4
v3l1 2l1 2v0.5v0.5q0 6 -3 7.5t-6.5 2t-7.5 2t-5 7.5q-2 7 -3 16t-1 18v17.5v15.5l-1 3v17q0 1 1 1h2q3 0 5 -3v-4t0.5 -6.5t0.5 -6.5v-4v-45q0 -3 0.5 -7t1.5 -7.5t3.5 -6t7.5 -2.5l1.5 0.5l1.5 0.5q2 8 2 15v16q0 20 -2 40.5t-2 41.5v9zM54 242q0 2 1.5 2.5t2.5 0.5
q5 0 9 -3.5t8 -9t7.5 -11.5t6.5 -11t5 -8.5t4 -3.5t4 3.5t4 8.5t4.5 11t5.5 11.5t6 9t7 3.5q5 0 5 -6v-2q-8 -10 -14.5 -20t-12.5 -20q0 -1 -1 -2.5l-2 -3t-1.5 -3l-0.5 -1.5v-30q0 -3 2.5 -4.5t6 -1.5t6.5 -0.5t4 -1.5l2 -2t2.5 -2t2.5 -2l2 -2q1 -7 2.5 -16t1.5 -17
t-1 -14t-4 -10t-8.5 -5.5t-15.5 -0.5q-1 -1 -1 -2.5v-2.5q0 -5 3 -8.5t6.5 -6.5t6.5 -6.5t3 -8.5q0 -7 -4.5 -10t-11 -4.5t-13.5 -2.5t-11 -4l-2 -2l-4 -4l-4 -4l-2 -2q-1 0 -2 -1l-1 -1q-2 0 -3.5 1.5t-1.5 3.5q0 3 2.5 5.5t5.5 4.5t5.5 4t2.5 5q0 4 -5 8t-10.5 7.5t-10 7
t-4.5 7.5q0 3 1 3.5t2 0.5t2 -0.5l1 -0.5q10 -6 19 -13.5t14 -18.5h1h1q2 0 6 0.5t8 1.5t7 3t3 4q0 4 -2 6.5t-5 4.5t-5.5 5t-3.5 6l-0.5 1.5t-0.5 3t-0.5 3l-0.5 1.5q-2 4 -6.5 5.5t-9.5 3t-8.5 4.5t-3.5 10v37q0 1 1 4t2 4q2 5 4.5 7t4.5 3t5.5 2t7.5 4q1 5 1.5 8t0.5 8
q0 1 -0.5 4t-0.5 5.5t-0.5 5t-0.5 3.5l-22 32l-3.5 3.5l-6 6t-5.5 6.5zM64 200q0 2 1 3t3 1q4 0 6.5 -3t3.5 -7t1 -8v-7v-2v-3.5v-2.5v-2t-1.5 -1.5l-1.5 -0.5q-1 0 -1.5 0.5t-0.5 1.5t-1 4t-1.5 6l-1 6t-1.5 4q0 1 -0.5 2t-1.5 2.5t-1.5 3l-0.5 1.5l-0.5 1zM120 195
q0 2 1 2.5t2 0.5q2 0 3.5 -1t1.5 -3t-0.5 -7t-1.5 -11t-2 -10.5t-2 -4.5q-2 0 -3.5 1.5t-1.5 3.5v1q0 2 0.5 6t1 8.5t1 8.5t0.5 5zM80 139q0 -2 0.5 -3t2.5 -3q1 0 3 -1.5l4 -3t3.5 -2.5t2.5 -2h1h1q2 0 5.5 2t6.5 4.5t5.5 5.5t2.5 5t-2.5 3t-5.5 1.5t-6 0.5h-3h-5.5t-7 -1
t-6 -2.5t-2.5 -3.5zM98 108v1l-1 2l-1 2l-2 4l-1 2q0 1 -1.5 1.5t-3.5 1.5t-4.5 2t-3.5 2v0h-1q-1 0 -2 -0.5t-1 -1.5l-0.5 -2t-0.5 -3q0 -3 3 -6.5t6.5 -6.5t8 -5t7.5 -2l3 2t6.5 4l7 4t4.5 3q3 1 3.5 4t0.5 5q0 3 -0.5 5.5t-4.5 2.5t-7.5 -3t-6 -7t-4.5 -7.5t-4 -3.5z
M104 90v-2.5t1 -1.5h16l3 3q1 0 1 1t0.5 3t0.5 4.5v3.5v2q0 2 -1 2.5t-3 0.5h-1h-1l-2.5 -2.5l-3 -3t-3 -2.5t-2.5 -2q-3 -2 -4 -2.5t-1 -3.5zM92 85q3 0 4.5 1t1.5 3q0 3 -3 5.5t-7 4t-8 2t-6 0.5q0 -7 6 -11.5t12 -4.5z" />
</svg>
