<?xml version="1.0" standalone="no"?>
<!DOCTYPE svg PUBLIC "-//W3C//DTD SVG 1.1//EN" "http://www.w3.org/Graphics/SVG/1.1/DTD/svg11.dtd" >
<svg xmlns="http://www.w3.org/2000/svg" xmlns:xlink="http://www.w3.org/1999/xlink" version="1.1" viewBox="-10 0 266 256">
   <path fill="currentColor"
d="M74 245v3t3 1h2.5t1.5 -2l2 -9v-5.5t0.5 -13.5t0.5 -18.5v-21v-20.5v-17v-4.5t0.5 -5t1.5 -4.5t4 -2t5 2.5t2 5.5l0.5 2.5t0.5 5t0.5 5.5t0.5 4v7.5t0.5 13t0.5 14.5v11v4q0 7 -0.5 14.5t-0.5 14.5q0 2 0.5 3t2.5 1t3.5 -3t2.5 -6t1.5 -6.5t0.5 -4.5q0 -21 -1.5 -42.5
t-5.5 -42.5q0 -1 -0.5 -3.5l-0.5 -2.5q-1 -2 -3.5 -2.5t-5 -0.5t-4.5 -0.5t-3 -2.5v-7q0 -8 2.5 -10.5t6.5 -4t7.5 -3.5t5.5 -8q0 -2 0.5 -6t1 -9t1 -9.5t0.5 -5.5v-1q0 -2 -1.5 -3t-2.5 -1h-2t-2 2q0 2 -0.5 8.5t-1.5 13.5t-3 12t-6 5q-2 0 -3.5 -0.5t-0.5 -2.5v-10v-8
q0 -4 1 -7v-32l-0.5 -0.5l-0.5 -0.5q-1 -1 -2.5 -2t-2.5 -2h-8h-4.5t-5 0.5t-4.5 1.5t-2 4t1.5 3.5t4.5 0.5t6 -1t7 -1q1 0 2 0.5t1 1.5v10v10q0 8 -0.5 15.5t-2 13.5t-5.5 6q-6 0 -8.5 -4.5t-2.5 -9.5q0 -4 1 -8t1 -9q0 -1 0.5 -2.5t0 -3l-1 -3t-2.5 -1.5t-3.5 1t-2.5 2v15
v14t1.5 9.5t6 5t14.5 0.5q2 2 2 5v5t-0.5 4t-0.5 4q-1 2 -3.5 3t-5.5 2t-5.5 2t-4.5 4q-2 4 -4.5 11.5t-3.5 17t-2 19.5t-1.5 19.5t-0.5 17.5v14v8l1.5 1t1.5 2h1v0l3.5 -3.5l3.5 -3.5q0 -12 0.5 -24.5l1 -25t2 -25t5.5 -24.5q1 -1 2 -1h3q4 0 4.5 2.5t0.5 6.5
q0 27 -1.5 53.5t-1.5 54.5zM141 186v0v0l2.5 2.5l2.5 2.5l2 3t4.5 6t4.5 6.5t3 4.5q2 3 5.5 9t8.5 12.5t10 11.5t9 5q3 0 3.5 -1.5t0.5 -3.5q0 -4 -4 -7.5t-9 -7.5t-9 -8.5t-4 -9.5q0 -2 2 -6l4 -8t4.5 -7t4.5 -3h1q1 1 2.5 3l3 4t2.5 4l1 2q1 1 1.5 3t1 4.5t1 4.5l0.5 2
q0 3 1.5 3h3.5q3 0 3.5 -1t0.5 -3q0 -5 -2 -10.5t-5.5 -10.5t-8.5 -8.5t-9 -3.5q-5 0 -7 2.5t-4.5 6.5t-4.5 7.5t-5 3.5l-1 -0.5t-2 -1.5q-4 -3 -7 -7.5t-5 -9.5q-2 -1 -3.5 -1h-3.5q-6 0 -10 5t-7 11.5t-4.5 13.5t-1.5 11q0 5 3 5t4.5 -3t2.5 -7.5t2 -9.5t2 -9.5t3 -7.5
t6 -3zM193 165q1 1 2.5 1.5t2.5 0.5h1q2 0 2 -2v-4t-1.5 -4t-3.5 -3.5t-4 -3.5t-2 -6q0 -2 2 -4.5t4.5 -5l4.5 -4.5t2 -5q0 -2 -1.5 -3.5l-3 -3t-2.5 -3.5t-1 -4v-1q2 -4 4.5 -6.5t2.5 -6.5q-3 0 -5 1l-4 2t-3.5 2t-4.5 1q-2 0 -3.5 -1l-3 -2l-3 -2t-3.5 -1q0 3 2 6t5 6
q-1 2 -2.5 3.5t-3 3.5t-3 3.5t-1.5 3.5q3 0 5 -1t3.5 -2t3.5 -2t4 -1q4 0 5.5 2.5t1.5 6.5q0 1 -1 3t-2.5 4.5t-3.5 4t-3 1.5h-1v0q-2 -1 -4.5 -3.5l-3.5 -3.5l-2 2v1v1l3 6v1q0 3 -1.5 4.5t-3 2.5t-3 2.5t-1.5 3.5q0 1 0.5 2t1.5 1q2 0 3.5 -1t3 -2.5l3 -3t3.5 -1.5
q3 0 5 1.5t3.5 4t2.5 5t2 3.5zM119 150q0 5 2.5 9.5t8.5 4.5h24l1 -1.5t2 -1.5v-1v-1h-3.5t-6 -0.5t-6 -0.5h-3.5t-2.5 -0.5t-3.5 -0.5t-3.5 -0.5l-1.5 -0.5q-2 -1 -2.5 -1t-0.5 -2q0 -3 2 -4.5t5.5 -2t7.5 -0.5t8 -1t7.5 -2t5.5 -4t3 -6.5t1.5 -8t0.5 -8.5v-7q0 -4 -1.5 -7
t-6.5 -4q-1 0 -5 -0.5t-7.5 -0.5t-7.5 -0.5t-5 -0.5t-3 0.5t-4 0.5t-3.5 0.5t-2.5 0.5v1q0 2 1.5 3t3 1h3.5h3h7t8.5 0.5t7 0.5h2.5l2 2v2.5v4.5q0 12 -2.5 18t-7 8.5t-9.5 2t-9 -0.5t-7 1.5t-3 7.5zM116 129q6 1 10 1.5t9 0.5t9.5 -3t4.5 -9v-2.5t-0.5 -3t-1.5 -2.5t-3 -1
h-22q-2 0 -3 2t-1 4h23q2 0 2 2v3q0 2 -0.5 2.5t-4.5 1.5h-4h-6h-6h-4q-2 0 -2 1v2v1v0zM166 80q0 3 1.5 4.5t3.5 3t4.5 2t4.5 0.5q9 0 13 -2t5 -6t0.5 -9.5t1.5 -12.5q0 -2 2 -2.5t4 -0.5t3.5 -0.5t1.5 -2.5t-2.5 -4t-5.5 -3.5t-6 -2.5t-4 -1t-3.5 -1.5t-6 -3t-6 -2.5
t-3.5 -1q-5 -2 -6.5 -6t-2 -8t-1.5 -7t-5 -3q-1 0 -2.5 0.5t-1.5 1.5v20q0 3 -6 4.5t-12.5 3t-12 4t-5.5 6.5q0 2 1 2l2 1l3 1v24l2.5 2.5t4.5 3.5q2 2 4.5 2h4.5q8 0 10.5 -4.5t2.5 -12.5v-2v-4t-0.5 -4t-1.5 -2t-2.5 1t-3.5 2.5t-4 2.5t-5 1q-2 0 -4.5 -2t-2.5 -5t4 -6
t10 -6t11 -4.5t8 -1.5t8 1t10.5 3.5t9.5 5.5t4 5q0 7 -4 9.5t-9 2.5q-1 0 -3.5 -0.5l-2.5 -0.5q-1 -1 -2 -4.5t-1 -4.5l-0.5 -1t-1.5 -1l-3 3q0 1 -0.5 4.5t-0.5 8.5v8l-0.5 0.5zM174 78q0 -1 0.5 -2.5t1.5 -2.5h5h5.5t2.5 4q0 7 -7 7q-4 0 -6 -1t-2 -5zM133 75
q0 -3 2.5 -3.5t5.5 -0.5q4 0 5.5 0.5t1.5 3.5q0 4 -3 4h-5q-4 0 -5.5 -0.5t-1.5 -3.5z" />
</svg>
