<?xml version="1.0" standalone="no"?>
<!DOCTYPE svg PUBLIC "-//W3C//DTD SVG 1.1//EN" "http://www.w3.org/Graphics/SVG/1.1/DTD/svg11.dtd" >
<svg xmlns="http://www.w3.org/2000/svg" xmlns:xlink="http://www.w3.org/1999/xlink" version="1.1" viewBox="-10 0 266 256">
   <path fill="currentColor"
d="M57 244q0 1 1.5 3.5t1.5 3.5h1q2 0 3.5 -1t2 -2.5t1.5 -2.5l2 -2q2 -6 2 -9.5v-9.5q0 -17 -1.5 -34.5t-1.5 -34.5v-1v-1.5t0.5 -4t0.5 -4.5v-2q0 -1 -0.5 -3.5t-0.5 -3t-0.5 -3t-0.5 -4.5v-5v-3q0 -9 0.5 -16.5t1.5 -16.5q1 -3 2.5 -4.5t4 -2.5t4.5 -1.5t4 -1.5
q1 0 3 -1.5l2 -1.5q4 -2 7.5 -4t5.5 -5q2 -2 3 -5.5t1.5 -6.5t1.5 -5.5t3 -4.5q3 -3 9 -3h10q7 0 9.5 2t3 5t1 7t1.5 7.5t5 6t13 3.5q1 0 4.5 0.5t6.5 0.5q4 0 7.5 -0.5t4.5 -0.5l2 2q-1 4 -0.5 7.5t1 6.5t0.5 6v6q0 4 -1 7t-1 6q0 31 2 61.5t2 61.5q0 2 -1 4.5t-1 4.5
q0 5 5 5t6.5 -3.5t2.5 -7.5q-3 -45 -3.5 -89t-0.5 -89q0 -5 -0.5 -9t-2 -7.5t-5 -6t-8.5 -2.5h-13h-12t-11.5 -0.5t-12.5 -1.5q0 -1 0.5 -5t0 -7.5t-2.5 -6.5t-6 -3q-3 0 -4.5 2.5t-2 6t-0.5 6.5v4l-3 3l-4 0.5t-9.5 1t-11.5 1t-10 0.5q-10 1 -15 4t-7.5 7.5t-2.5 11.5v17
v120q2 6 2 13.5v14.5v17q-1 1 -1.5 2zM147 172v72q0 2 1.5 2h1.5q3 0 4.5 -3l2.5 -5q1 -9 1 -17t0.5 -16t0.5 -16v-17v-30q0 -3 -0.5 -7.5t-0.5 -9t-1 -9t-3 -7.5q-4 0 -10 -0.5l-12 -1t-12.5 -0.5h-10.5q-3 0 -2.5 -3l0.5 -3l-0.5 -1.5t0 -3t2.5 -1.5l61 -3v-1.5v-0.5v-2
t-2 -1h-59q-1 0 -1.5 -0.5t-0.5 -1.5q-1 0 -1.5 -2.5t-0.5 -3.5h-2h-1.5t-1.5 1q-2 9 -1.5 18t0.5 17v4v7v5.5v4.5q0 1 3 3t3 3q1 0 2.5 1l1.5 1h38v14l-0.5 0.5t-1.5 0.5q-2 2 -5.5 2.5t-7.5 1t-7 1t-5 0.5q-4 1 -6.5 5t-5 10t-3.5 13.5t-2 14t-1 12.5v9v10q0 1 1 1.5
t2 0.5q5 0 6.5 -3t2.5 -7q0 -2 0.5 -7t1 -11t1 -11t0.5 -7l2 -10t4 -8.5t7 -5.5t11 -2l2 0.5l2 0.5zM107 122v-4q6 -3 14 -3h14h2q1 1 5 1.5t5 0.5q1 3 1.5 5t0.5 5t-0.5 4.5l-1.5 4.5h-3.5t-5 0.5t-5 0.5h-3.5h-1q-5 0 -9 -0.5t-7 -2t-4.5 -4.5t-1.5 -8zM70 63q0 -10 7 -15
t17 -5h5l1 3v0q0 7 -2 11t-6 6.5t-9 4.5t-10 5q-2 -2 -2.5 -4.5t-0.5 -5.5zM154 58v-12l3 -3h27q1 0 2 2t1 4.5v4.5v2v3v3l-2 1l-1.5 0.5t-3.5 0.5q-1 0 -3.5 -0.5l-2.5 -0.5q-2 0 -5 -0.5l-6 -1t-5.5 -1l-2.5 -0.5z" />
</svg>
