<?xml version="1.0" standalone="no"?>
<!DOCTYPE svg PUBLIC "-//W3C//DTD SVG 1.1//EN" "http://www.w3.org/Graphics/SVG/1.1/DTD/svg11.dtd" >
<svg xmlns="http://www.w3.org/2000/svg" xmlns:xlink="http://www.w3.org/1999/xlink" version="1.1" viewBox="-10 0 266 256">
   <path fill="currentColor"
d="M188 248q1 3 4 3t4 -2t1.5 -5t0.5 -6v-5v-5.5t-1 -5.5q0 -21 -0.5 -42.5t-1 -42.5t-1 -42.5t-0.5 -42.5q-1 -5 -5.5 -7t-7.5 -3q-2 0 -7.5 -0.5t-11.5 -1t-11.5 -1t-7.5 -0.5q-4 -1 -5.5 -2t-1.5 -5t0.5 -7t0.5 -6v-1q0 -1 -0.5 -5t-0.5 -5q-1 0 -2.5 -0.5t-2.5 -0.5
l-2 1t-2 2l-0.5 2t-0.5 4v4v3v3q0 2 -0.5 5t-0.5 5t-1 3l-3 1h-3.5h-5.5h-6h-4q-4 1 -9.5 1t-11 1.5t-9.5 5t-4 8.5q-5 30 -6 61t-2 61v47q-1 4 -2 9t-1 9q0 1 1 1.5t2 0.5q6 0 7 -4t2 -9q-1 -38 0.5 -74.5t3.5 -73.5l5.5 -2t12.5 -4t13 -5.5t9 -7.5q1 -2 1 -6v-6t1.5 -5
t5.5 -2h22l0.5 0.5l0.5 0.5q1 1 0.5 3.5l-0.5 2.5q1 1 1 3.5t0.5 5t1 4t0.5 2.5q2 4 6.5 5.5t10 2.5t11 1t9.5 -1l1 3l0.5 4.5t0.5 11.5t0.5 15.5t0.5 17.5t0.5 17t0.5 14v9q0 4 -0.5 7t-0.5 6v17t0.5 16t0.5 16v18zM131 189q0 6 2 12.5t5.5 13t7.5 12t9 9.5h0.5h1.5
q2 0 3 -1t1 -3q0 -3 -1.5 -5t-3.5 -4t-4 -4.5t-3 -4.5q-4 -5 -6.5 -12t-2.5 -14q0 -4 1 -8.5t3 -9t4.5 -8.5t4.5 -7v-15l-2 -2.5t-4 -3.5q-1 -1 -4 -1.5t-6.5 -1t-5.5 -2t-2 -4.5q0 -6 1.5 -9t4.5 -4.5t7 -1.5h9q1 0 4.5 -0.5t5.5 1.5v4v6.5t0.5 6.5t0.5 4t0.5 3t1.5 4
t2.5 3t3.5 1q3 0 3.5 -1.5t0.5 -3.5q0 -7 -1.5 -13t-2.5 -12t-2 -12.5t0 -13.5q-1 -3 -3 -5l-3 3l-3 16q-5 0 -10.5 1.5t-10.5 1.5h-3t-2 -2v-20q0 -2 -2.5 -5t-5.5 -3q-2 0 -2 1v2q0 5 0.5 10t0.5 10v7q-1 0 -4 0.5t-6.5 0.5t-6.5 0.5t-5 0.5q-1 0 -4.5 -0.5t-6.5 0
t-5.5 1.5t-2.5 3q0 3 1 3.5t3 0.5q9 0 18 -1.5t18 -1.5q0 1 1 4.5t0 4.5l-2 3t-4 4q0 1 -2.5 3.5l-5 5t-5 4.5t-3.5 3q0 7 -3.5 13t-4.5 12q-1 4 -1.5 8.5t-0.5 8.5v9v7v24q1 6 2 7.5t7 1.5q0 -9 -1.5 -18t-1.5 -18q0 -8 1 -17t3.5 -17t7 -15t11.5 -13h3h3q2 0 5.5 0.5t7 2
t5.5 3.5t2 5q0 5 -2.5 10t-5.5 10t-5.5 10.5t-2.5 11.5zM75 68q0 -5 1 -7.5l3 -7.5q4 -2 9 -3t10 -1q3 0 6 1t3 5t-3 7.5t-7.5 5.5t-9.5 3.5t-8 2.5q-3 0 -3.5 -2.5t-0.5 -3.5zM152 54q0 -4 3 -7h3h3q6 0 10 0.5t10 2.5q3 2 3.5 6.5t0.5 7.5q0 1 -1 3t-2 2h-10.5t-10 -1.5
t-7 -4.5t-2.5 -9z" />
</svg>
