<?xml version="1.0" standalone="no"?>
<!DOCTYPE svg PUBLIC "-//W3C//DTD SVG 1.1//EN" "http://www.w3.org/Graphics/SVG/1.1/DTD/svg11.dtd" >
<svg xmlns="http://www.w3.org/2000/svg" xmlns:xlink="http://www.w3.org/1999/xlink" version="1.1" viewBox="-10 0 266 256">
   <path fill="currentColor"
d="M89 245q0 1 0.5 1.5t1.5 0.5l1.5 0.5l1.5 0.5l1.5 -1.5t1.5 -2.5q1 -1 1.5 -2t0.5 -2q-1 -25 -0.5 -50.5t1.5 -50.5q1 -9 3 -17.5t2 -17.5q7 -8 18 -8q6 0 7.5 2t1.5 8q0 10 -3 19l-6 18t-5.5 18t-2.5 19q0 5 2 8t5.5 5t8 3t9.5 1t9 -2.5t5.5 -6.5t2.5 -8t1 -8
q0 -2 -0.5 -6t-2 -7.5t-3.5 -6.5t-5 -3q-1 0 -2.5 2t-1.5 3t1 2.5t2.5 4t2.5 5t1 6.5q0 8 -3.5 11.5t-12.5 3.5q-3 0 -5.5 -0.5t-3.5 -4.5v-3v-4q0 -6 1.5 -13t3.5 -13.5t4.5 -13t5.5 -12.5h1.5h2.5q7 0 11.5 3t7 7.5t4 10.5t2 12t0.5 12v10q1 16 3.5 32.5t1.5 33.5
q1 2 2 2.5t3 0.5t3 -1t1.5 -3t0.5 -4v-3q0 -13 -2.5 -26t-4.5 -26v-15q0 -8 -1 -17t-3.5 -16.5t-8.5 -12.5q-1 -1 -5 -2.5t-8.5 -3.5t-7.5 -3.5t-3 -3.5v-14l3 -1q2 0 6 -0.5l8 -1l8 -1t6 -1.5h1.5t3.5 -0.5t3.5 -1t1.5 -1.5v-1q-1 0 -1.5 -1l-0.5 -1h-7q-10 0 -20.5 1
t-19.5 2q-17 3 -24.5 6t-10 8.5t-2.5 14t-1 23.5q-2 21 -3.5 42t-1.5 42v4v6.5v6.5v4zM50 242q0 2 1.5 3.5t4.5 1.5q2 0 3 -1t2 -2.5t2 -4t2 -3.5q0 -3 0.5 -9.5t1.5 -14t1.5 -14t0.5 -9.5v-5v-3q0 -1 0.5 -2.5t1.5 -3.5q0 -23 2 -45.5t1 -45.5q2 -4 8 -6t13 -3.5t13 -3.5
t7 -8l5 -20l1.5 -0.5t1.5 -1.5h3h5t6 -0.5t4 -0.5h1v0q5 0 7 4t2.5 10.5t1.5 12t5 7.5q0 1 1 1h3t2 -0.5t2 -0.5q1 1 4 1.5t4 1.5h21q1 0 1.5 0.5t0.5 1.5l0.5 2t1.5 3v30q0 19 -1 38.5t-1 39.5q0 13 1 26.5t1 26.5q2 2 5 2h1.5t1.5 -2v-15l1 -2q1 0 1 -2v-3q0 -12 -1 -24
t-1 -24q0 -15 1 -30.5t1 -31.5v-5v-6t-0.5 -5l-0.5 -2q0 -1 -0.5 -6l-1 -10t-1 -9.5t-0.5 -6.5q0 -5 -0.5 -9t-2 -7t-5 -5t-8.5 -4q-2 0 -6.5 -0.5t-9.5 -1t-9.5 -1t-5.5 -0.5h-3.5t-5 -0.5t-5 -1.5t-3.5 -3v-6q0 -3 -0.5 -7t-2.5 -6.5t-6 -2.5t-4.5 3t-0.5 7q0 3 1.5 6
t1.5 6q0 1 -1.5 2.5t-3.5 2t-4 0.5h-2q-3 0 -8.5 0.5t-11 0.5h-11h-7.5q-9 3 -12 9t-4 13t-0.5 14.5t0.5 14.5q-3 31 -4 62.5t-3 62.5q0 4 -1.5 7.5t-3 7.5t-2.5 7.5t-1 7.5zM76 66v-2.5v-3.5q0 -3 0.5 -7.5t4.5 -6.5q7 -1 11.5 -2t10.5 -1q4 0 5 1t1 4q0 6 -2 9.5t-5.5 5.5
t-8 4t-9.5 4l-0.5 0.5t-1.5 0.5q-2 0 -3.5 -1.5t-2.5 -4.5zM157 51q0 -2 0.5 -3.5l0.5 -1.5l3 -2h8q8 0 13.5 1t9 4t5 8t1.5 13h-3t-3 -1q-6 0 -12 -0.5t-11 -2t-8.5 -5.5t-3.5 -10z" />
</svg>
