<?xml version="1.0" standalone="no"?>
<!DOCTYPE svg PUBLIC "-//W3C//DTD SVG 1.1//EN" "http://www.w3.org/Graphics/SVG/1.1/DTD/svg11.dtd" >
<svg xmlns="http://www.w3.org/2000/svg" xmlns:xlink="http://www.w3.org/1999/xlink" version="1.1" viewBox="-10 0 266 256">
   <path fill="currentColor"
d="M187 248l1.5 1t1.5 2h1q3 0 4.5 -1.5t2.5 -3.5t1.5 -4.5t0.5 -4.5v-1.5v-1.5q0 -1 -0.5 -4t-0.5 -6.5t-0.5 -6.5t-0.5 -4v-139v-5.5t-0.5 -9.5t-0.5 -9v-6q-3 -3 -6 -5t-7 -3.5t-8 -2.5t-8 -1q-2 0 -6 -0.5t-8.5 -1t-8.5 -1t-6 -0.5q-2 -1 -2.5 -2t-0.5 -3q0 -1 0.5 -2.5
t1.5 -3.5q-1 0 -3.5 -2.5l-3.5 -3.5q0 -1 -1 -1h-2q-3 0 -3.5 3t-0.5 6v6t-2 3q-12 0 -21 0.5t-15.5 3.5t-11 9.5t-6.5 18.5q-3 15 -4.5 29t-0.5 30q-2 4 -3 8t-1 9q0 4 0.5 8.5t0.5 7.5q0 1 -0.5 5.5t-0.5 9t-0.5 8.5t-0.5 5v5v9v10v5q0 6 -1.5 12.5t-1.5 13.5q0 3 0.5 6.5
t5.5 3.5q2 0 4.5 -3.5t2.5 -5.5v-6.5v-10.5v-9.5v-6.5t0.5 -10.5t1 -18t1 -17.5t0.5 -10q1 -19 1 -37t4 -37q5 1 11.5 0t11.5 -4t9.5 -7t5.5 -10q0 -1 0.5 -3t0.5 -4.5t1 -4.5t3 -3q5 -3 11 -3h11h0.5h0.5v0v0q1 0 2 0.5t2 0.5v3.5t0.5 4.5t0.5 4.5v3.5l1 2.5t1 3.5
q3 7 9 9.5t12 4t11 3.5t6 7q0 2 0.5 6t0.5 8.5t0.5 8.5t0.5 6v1q0 13 -1 25.5t-1 25.5v5v9v9v5q1 6 1.5 10.5t0.5 10.5q0 7 -1 12.5t-1 12.5v2v3v3.5v2.5zM124 178h3t1 3v65q0 1 2 1.5l2 0.5q3 0 4 -1t2 -4q-1 -15 -0.5 -31t1.5 -31q1 -2 3.5 -2h2.5q4 0 7 3t4.5 6.5t2.5 8
t1 7.5v6v10v9.5v6.5q1 1 1.5 1h1.5q3 0 4 -1.5t1.5 -4l1 -5t0.5 -4.5q0 -5 -0.5 -11t-1.5 -11.5t-3 -11t-7 -9.5q-2 -2 -5.5 -3t-6.5 -2t-5 -3t-2 -5v-2v-2t0.5 -1.5l1.5 -1.5q5 1 10 0.5t9 -2.5t7 -5.5t3 -8.5q0 -2 -0.5 -3.5t-3.5 -2.5q-4 2 -5.5 5t-3.5 5t-4.5 3.5
t-9.5 1.5q-2 0 -3 -2t-1.5 -4.5t-1 -5.5t-0.5 -4q0 -4 3 -4.5t7 -1t8.5 -1.5t8.5 -4t6.5 -9t2.5 -18q0 -8 -4.5 -12t-11.5 -5.5t-15 -1.5h-14q-10 0 -16.5 1.5t-9.5 5t-3.5 10t-0.5 16.5q0 7 2 10.5t6 5t9 2t10 1.5q2 0 3 2t1.5 4t0.5 5v4q0 6 -7 6q-8 0 -13 -2.5t-7.5 -6
t-3.5 -6t-2 -2.5q-2 0 -3 1.5t-1 3.5q0 7 3 11t8 6t10.5 2h11.5q1 1 2 1.5t1 1.5v2v2q0 4 -4.5 5.5t-9.5 3t-10 5.5t-7 14q0 2 -1 7t-1.5 10.5t-1 10.5t-1.5 6l-0.5 2t-0.5 3v0v2t0.5 2.5t1.5 2.5t3 0q1 0 2.5 -2l1.5 -2l3 -37q2 -4 3.5 -7.5t3.5 -6.5t5 -5t8 -2zM104 111
q0 -1 2.5 -2t5.5 -1h6h5h4t3 3v5v2.5v3t-1 2.5t-2 1q-3 0 -7 -1t-7.5 -2.5t-6 -4t-2.5 -6.5zM163 111q0 5 -2 7.5t-5 3.5t-7.5 1h-8.5q0 -1 0.5 -2.5t0.5 -4v-4.5v-3l0.5 -1.5l0.5 -1.5h18q2 0 2.5 1.5t0.5 3.5zM108 99q-1 -1 -1.5 -2l-0.5 -1v-1q0 -3 1.5 -4.5t3.5 -2.5
t4.5 -1h4.5h6q6 3 6 8q0 2 -0.5 3.5t-1.5 1.5h-7h-7.5t-7.5 -1zM139 93q0 -4 3 -6h6h5t5 1t3.5 2.5t1.5 4.5q0 2 -2 3t-4.5 1.5t-5.5 0.5h-5q-4 0 -5.5 -1.5t-1.5 -5.5zM153 45q0 -2 0.5 -3l1.5 -3h4q6 0 11.5 1t9 3.5t5.5 7t2 10.5q0 3 -0.5 5t-4.5 2t-9.5 -1.5t-9.5 -5
t-7 -8t-3 -8.5zM102 38h1.5h2.5q1 1 1.5 2t0.5 2q0 6 -3 11t-7 8.5t-9.5 5t-11.5 1.5q0 -6 1 -11.5t4.5 -9.5t8 -6.5t11.5 -2.5z" />
</svg>
