<?xml version="1.0" standalone="no"?>
<!DOCTYPE svg PUBLIC "-//W3C//DTD SVG 1.1//EN" "http://www.w3.org/Graphics/SVG/1.1/DTD/svg11.dtd" >
<svg xmlns="http://www.w3.org/2000/svg" xmlns:xlink="http://www.w3.org/1999/xlink" version="1.1" viewBox="-10 0 266 256">
   <path fill="currentColor"
d="M191 251l1.5 1.5l1.5 1.5h1h1q0 -1 2.5 -3.5t3.5 -2.5v-9q0 -5 -0.5 -12.5l-1 -15t-1 -14t-2.5 -10.5q1 -34 -0.5 -67.5t-0.5 -67.5q-3 -6 -7 -9.5t-9.5 -5t-11.5 -2t-11.5 -0.5t-11.5 -0.5t-10 -2.5q-1 -3 -1 -7v-7.5t-1.5 -6t-5.5 -2.5h-2t-2 2v21l-2 0.5t-3 0.5
t-3.5 0.5t-6 0.5t-6.5 0.5t-4 0.5t-4 0.5t-7 1t-7 1t-4 0.5q-7 3 -10 8.5t-4 12t-1 13.5t-1 13q-1 33 -1.5 66t-2.5 66q0 1 -0.5 2.5t-0.5 3t-0.5 3.5l-0.5 2q0 1 0.5 3.5t0.5 5t0.5 5t0.5 3.5t1.5 1h2.5q2 0 3.5 -3t2 -8.5t1 -11.5t0.5 -12t-0.5 -11t0.5 -7q1 -27 2 -55.5
t0 -55.5q1 -2 6 -4t11.5 -4t12.5 -4.5t9 -4.5q2 -1 3.5 -5.5t3 -8.5t2.5 -7t3 -3h21q1 0 1.5 3.5t1.5 8.5t2.5 9.5t3.5 5.5q8 3 17 4.5t18 0.5l2 3v2.5t0.5 5.5t0.5 6.5v5.5q1 25 1.5 50t0.5 50q0 1 0.5 5t0.5 6v8.5v13.5v13v9zM126 161q0 9 -0.5 17t-4.5 16q-2 6 -6.5 12
t-9 13t-8 14t-3.5 12q5 0 9.5 -4t7.5 -9.5t6 -12.5t5.5 -12.5t5 -9.5t5.5 -4v0l3 3l16 30q2 2 3.5 5.5t3.5 6l4 5t6 2.5q2 0 3.5 -1.5t1.5 -4.5q0 -2 -2.5 -5t-5.5 -6l-6.5 -6.5t-4.5 -5.5q-4 -7 -8 -14.5t-7 -15.5t-5 -16.5t-2 -16.5v-1l2 -2l1 -1q9 0 17.5 -1t17.5 -1
q2 0 2 -1v-3v-2t-2 -1h-2h-3q-5 0 -10.5 0.5t-10.5 0.5h-3h-4t-3.5 -0.5t-1.5 -2.5v-10q0 -2 2.5 -3.5t4.5 -1.5h7h8.5t9 -0.5t8.5 -1.5v-0.5v-1.5v-1.5t-2 -1.5h-23q-2 1 -3 1h-3q-3 0 -3.5 -1t-0.5 -4q0 -1 0.5 -3.5t2 -5t3.5 -4t4 -1.5h31q1 0 1 -1.5v-2.5v-1.5t-1 -1.5
q-3 -1 -7 -1.5t-8 -0.5h-8.5t-5.5 1q-1 -1 -1.5 -2t-0.5 -2q0 -3 1 -6.5t1 -6.5q-5 0 -7.5 6t-4.5 13.5t-3.5 15t-4.5 10.5q-4 1 -5.5 -0.5t-1.5 -5.5q-1 -1 -1.5 -5t-1.5 -8.5l-2 -9t-2 -5.5q0 -1 -0.5 -2.5t-1.5 -3l-2 -3t-3 -1.5t-2.5 1t-0.5 3v5t2 5q-1 2 -4 2.5t-4 0.5
t-3.5 0.5t-5.5 0.5t-5.5 0.5t-3.5 0.5q-4 2 -4 6q7 0 14.5 -1t14.5 -1q3 0 4.5 2t3 4.5t2 5.5t0.5 5v2q0 1 -1 1l-30 3q-2 0 -2.5 1t-0.5 3q0 3 2 3.5t5 0.5q7 0 14 -1.5t14 -1.5q2 0 4 0.5t4 2.5v2v3v4q0 3 -2 4q-4 0 -9 0.5t-10.5 0.5t-11 0.5t-10.5 1.5q-2 1 -2 3.5v3.5
q10 0 19.5 -1t19.5 -1h4l2 1v5v6zM98 167l-1.5 4t-3.5 9.5t-4 12.5t-4 13t-3 10.5l-1 4.5q5 0 8 -3t4.5 -7.5t2 -9t1.5 -8.5q1 -5 3 -10t2 -11q0 -2 -0.5 -3.5t-3.5 -1.5zM156 165v8l1.5 3t3.5 6.5t4 7.5l3 6l1.5 2.5t3 4.5t3 3.5t3.5 1.5t3.5 -1t1.5 -3v-2l-2.5 -2.5
l-3.5 -3.5l-3.5 -3.5t-1.5 -2.5q-2 -2 -3.5 -6.5t-3.5 -8.5t-4 -7t-6 -3zM101 42q3 0 4 2.5t1 5.5q0 6 -4 9.5t-9.5 5.5t-11.5 3t-11 1q0 -8 2 -13t6 -8t9.5 -4.5t13.5 -1.5zM154 42v0q1 0 1 1q1 0 4.5 0.5t7.5 0.5t7.5 0.5t4.5 0.5q1 2 3.5 2.5t2.5 4.5q0 1 0.5 5t0.5 6h-3
t-4 -0.5t-4 -0.5h-2q-5 0 -11 -0.5t-10 -3.5l-1.5 -1.5l-0.5 -0.5v-12l1 -0.5t2 -0.5q0 -1 1 -1z" />
</svg>
