<?xml version="1.0" standalone="no"?>
<!DOCTYPE svg PUBLIC "-//W3C//DTD SVG 1.1//EN" "http://www.w3.org/Graphics/SVG/1.1/DTD/svg11.dtd" >
<svg xmlns="http://www.w3.org/2000/svg" xmlns:xlink="http://www.w3.org/1999/xlink" version="1.1" viewBox="-10 0 266 256">
   <path fill="currentColor"
d="M53 49q0 1 0.5 4t0.5 6t-0.5 5.5t-0.5 3.5v5t-0.5 9t-0.5 9v5q-3 77 -3 155q5 0 7.5 -2.5t4 -6t1.5 -8.5v-7v-9l-0.5 -2.5t-1 -5.5t-0.5 -5v-3v-3.5t0.5 -5.5t0.5 -6t1 -4v-97l3 -14l2 -2q3 -1 8 -1.5t10 -1.5t9.5 -2.5t7.5 -4.5q2 -2 2 -4.5t0.5 -5.5t1 -5.5t3.5 -3.5
q7 -1 12.5 -1.5t12.5 -0.5t9.5 2.5t3.5 5.5l2 6t5 5q7 5 16 5.5t17 -0.5q2 2 3 4.5t2 5.5t1 6v4v163q0 1 1 1h3q3 0 5 -2.5t2 -5.5v-1v-6t-0.5 -11t-1 -11t-0.5 -6v-14v-20v-24v-24v-21v-13q-1 -10 -1.5 -20.5t0.5 -20.5q-1 -1 -1.5 -3t-1.5 -4t-2 -3.5t-3 -2.5h-5
t-6.5 -0.5t-6.5 -0.5h-5h-4h-7h-6h-4q-2 0 -4.5 -0.5t-5 -0.5t-4 -0.5l-1.5 -0.5l-2 -1q0 -1 0.5 -4.5t0 -7.5t-1.5 -6.5t-5 -2.5q-7 0 -7 7q0 3 1 6t1 7v0q0 1 -1 1l-1 1l-2 2q-2 0 -6.5 0.5t-9.5 1t-9.5 1t-6.5 0.5q-3 0 -8 0.5t-10 2t-8.5 4t-5.5 6.5zM87 244q0 1 1 1.5
t2.5 0.5h2.5h1q0 -6 -1 -12t-1 -12q0 -7 1.5 -10.5t9.5 -3.5h2.5t3.5 2l3 29q0 2 1.5 3.5t3.5 1.5t3.5 -1t1.5 -4q0 -5 -2.5 -10t-2.5 -11t2 -8.5t9 -2.5h3h3q1 5 2 9t1.5 8t0.5 9t1 10l1.5 1.5l1.5 1.5h1h1l0.5 -1t1.5 -1v-14q0 -4 -0.5 -12t-2 -15.5t-5 -13t-9.5 -6.5
q-2 0 -6 -0.5t-9 -1t-9.5 -1t-5.5 -0.5q-4 -2 -3.5 -5.5t0.5 -6.5h52l9 54q0 2 1 2.5t2 0.5h2.5t1.5 -2v-7q0 -4 -0.5 -10.5t-1.5 -13.5t-3 -13.5t-3 -10.5q-2 -3 -5.5 -4t-6.5 -2q-1 0 -3 -0.5t-4 -0.5t-3.5 -0.5l-1.5 -0.5h-6.5h-10.5h-10h-6q-3 -1 -3.5 -2t-0.5 -3v-3
q0 -1 2 -1h62q2 0 3.5 2t2.5 5t1.5 6t0.5 4q0 2 0.5 3.5t1 4t1 4l0.5 1.5q1 1 1 3t0.5 4.5t0.5 4.5v3h3q2 0 3 -0.5l3 -1.5v-4v-4q-1 0 -1.5 -1.5t-1 -2.5l-1 -2t-0.5 -2q-1 -4 -1.5 -9.5t-2 -10.5t-4.5 -9t-8 -5h-9.5h-13.5h-13.5h-9.5h-4t-6 -0.5t-6 -0.5h-4
q-2 -2 -2 -5.5v-5.5q0 -11 2 -22.5t2 -22.5q0 -3 -0.5 -5.5t-3.5 -2.5h-2h-1q-4 13 -3.5 26.5t0.5 25.5v12q0 2 0.5 6.5t1 10t1 10.5t0.5 6q0 4 2 6.5t5 3.5t6 1t6 1h4t6.5 0.5t6.5 0.5h5q0 1 0.5 3.5t0.5 3.5q-1 3 -4.5 4t-9 1.5t-11 0t-10.5 1t-8.5 5t-3.5 10.5t0.5 12.5
t1.5 13.5zM117 130h6t9 0.5t9 0.5h6h6h4t4.5 -0.5t3.5 -2t1 -4.5h-47l-1.5 -1.5l-2.5 -2.5q0 -1 -0.5 -2l-0.5 -1q0 -4 6.5 -5.5t15 -2.5t16.5 -2t12 -3q2 -1 2.5 -4l1 -6t0 -6t-0.5 -4v-6v-5q-1 -2 -2.5 -3.5t-3.5 -2.5h-5q-2 0 -5.5 -0.5t-6.5 -0.5h-3h-6t-6.5 0.5
t-5.5 0.5h-3h-2.5t-3.5 0.5t-3 0.5h-1v6q11 0 22 -1t22 -1q2 0 3 1.5t1.5 3.5t0.5 4.5v3.5q0 9 -3.5 12.5t-9.5 5t-12.5 1.5h-12t-9 2t-3.5 6q0 6 1 11t7 7zM110 89q0 1 0.5 2t1.5 2h7h7t10 -0.5t9 -1.5t4 -3q0 -4 -3 -4q-9 0 -18 1t-18 3v1zM70 46q1 -1 3 -1t4.5 -0.5
t4.5 -1t3 -0.5l1 -1h2q6 0 6 6v3q-2 4 -5.5 6t-7.5 3t-9 1h-7q0 -6 0.5 -9t4.5 -6zM154 44v-2t2 -1h30q3 0 4 3t1 5t-1.5 3.5t-3 2t-4 0.5h-4.5h-6.5t-8.5 -1.5t-6.5 -3.5t-2.5 -6z" />
</svg>
