<?xml version="1.0" standalone="no"?>
<!DOCTYPE svg PUBLIC "-//W3C//DTD SVG 1.1//EN" "http://www.w3.org/Graphics/SVG/1.1/DTD/svg11.dtd" >
<svg xmlns="http://www.w3.org/2000/svg" xmlns:xlink="http://www.w3.org/1999/xlink" version="1.1" viewBox="-10 0 266 256">
   <path fill="currentColor"
d="M119 201q2 1 3.5 3.5t2.5 5t2 5.5t2 5t5 7t8.5 10.5t8.5 9.5t6 4t3.5 -1.5t1.5 -2.5q0 -4 -3.5 -7.5t-4.5 -5.5q-1 0 -3.5 -2.5l-5 -5l-5 -5l-3.5 -3.5l-0.5 -1l-0.5 -1q0 -1 1.5 -3t3 -4.5t3 -4l2.5 -2.5q6 -3 11.5 -4t10 -3t7.5 -6t3 -13q0 -5 -2 -8t-4.5 -5t-5.5 -3
t-6 -3t-4.5 -4.5t-1.5 -6.5q0 -3 3.5 -3.5t8 -2.5t8.5 -7t4 -15v-11t-2 -11.5t-5.5 -9t-10.5 -3.5h-5h-7h-6.5h-4.5q-1 -1 -1.5 -2l-0.5 -1v-3t-0.5 -4t-0.5 -4v-3q-3 -3 -6 -3q-1 0 -2.5 0.5t-1.5 1.5v18l-25 3q-3 0 -4.5 3t-2.5 6.5t-1 7v5.5v7q0 3 0.5 6.5t1.5 7t3 5.5
q2 3 4 4t4.5 2.5t4 3.5t1.5 5q0 5 -3.5 7.5t-8 5.5t-8 7.5t-3.5 13.5q0 7 2.5 10.5t7 5t10.5 2t12 0.5zM199 125q0 32 -1.5 63t-1.5 62q5 0 8 -2.5t3 -8.5v-152q-1 -9 -1.5 -19t0.5 -19q-6 -7 -15 -10t-18.5 -4.5t-19.5 -1t-18 0.5l-1 -1v-22q0 -2 -2.5 -2.5t-4.5 -0.5
t-3.5 1.5t-1.5 3.5v2v2.5t0.5 5.5t0.5 5.5v2.5v1q0 1 -4 1.5t-9.5 1t-13 1t-14 2t-12 3.5t-8.5 5q0 23 -1.5 46.5l-3 47l-3 47t-1.5 46.5v2.5v3.5t0.5 3.5t2.5 1.5q4 0 6 -4t2 -7q-1 -19 0 -37.5l2 -37l2 -37t0 -37.5q2 -3 2 -5t3 -4q1 0 4 -0.5l6 -1t6 -0.5t4 -1
q4 0 9 -2.5t7 -5.5q3 -5 3.5 -8.5t1 -6t1 -4t2 -2.5t5.5 -1.5l12 -1.5h3q6 0 8 3t3.5 7t2.5 8.5t6 6.5q4 2 8.5 3t10 1.5t10 0.5t9.5 -1l3 3v48l0.5 2.5zM122 173l-2 -2l-1 -1h-1q-2 0 -2.5 1t-0.5 2q0 5 1 8.5t1 8.5v2t-2 1h-2h-3q-4 0 -8.5 -1t-7.5 -5v-5q0 -7 2 -10
t5 -4.5t7 -2.5t7 -6q3 -2 3 -6t1 -7q0 -2 2 -2.5t5 -0.5h5.5h3.5h4h4q2 1 2.5 2.5l1 3t0.5 3.5t1 3q2 4 5.5 6t7.5 3.5t6.5 4.5t2.5 8q0 4 -1.5 7t-4.5 5t-6.5 3t-7.5 1v-20q0 -2 -2 -2h-2q-2 0 -3 2.5t-1.5 6.5t-0.5 8q0 5 -0.5 8.5t-2.5 6t-5 2.5q-2 0 -3 -2.5t-2.5 -5.5
t-2 -6t-1 -3.5t-1 -3t-0.5 -4.5t-0.5 -4.5zM105 131q0 -1 3 -5t6.5 -8t6.5 -7l3 -3q2 0 5 1l6 2t5 3t2 4v0.5t-1 1.5l-16 16q-2 1 -4 1h-3h-4.5t-4 -0.5t-3 -1.5t-1.5 -4zM137 135v-1l14 -13v0v0q4 0 8 2.5t4 5.5q0 4 -2 5.5t-4.5 2.5t-5.5 1h-5q-1 0 -4 -0.5t-4 -0.5
l-0.5 -0.5l-0.5 -0.5v-1zM99 117v-19q0 -1 1 -1.5t2 -0.5v0q5 0 9.5 2.5t4.5 6.5q0 3 -2 5l-4 4t-5 3.5l-5 2.5zM158 114q0 -3 2.5 -7t6.5 -4q3 0 3 2.5v4.5q0 3 -0.5 6.5t-4.5 3.5q-3 0 -5 -1.5t-2 -4.5zM134 100q0 -1 1.5 -3t4 -4t5 -3t4.5 -1h2h2t4 0.5t4 0.5h3l0.5 1.5
l0.5 1.5q0 1 -2 4t-4.5 6t-5.5 5.5t-5 2.5q-1 0 -3.5 -1t-5 -2.5t-4 -3.5t-1.5 -4zM112 92h0.5t0.5 -1q3 -2 8 -2.5t9 -0.5q0 1 -0.5 3t-1 3.5t-1.5 3t-3 1.5q-1 0 -3 -0.5t-4 -1.5t-3.5 -2t-1.5 -3zM71 62q0 -3 1 -7.5t4 -7.5q7 -2 11 -2.5t10 -0.5h3.5h2.5q2 1 2 2v3
q0 6 -2.5 9.5t-7 5t-10 2.5t-11.5 2h-1q-2 0 -2 -2v-4zM163 61q-5 -1 -6 -5t-1 -7q0 -1 0.5 -2.5t0.5 -2.5l1 -1h4h5h10t8.5 1t6.5 4t3 9v2.5t-2 2.5h-5h-12t-13 -1z" />
</svg>
