<?xml version="1.0" standalone="no"?>
<!DOCTYPE svg PUBLIC "-//W3C//DTD SVG 1.1//EN" "http://www.w3.org/Graphics/SVG/1.1/DTD/svg11.dtd" >
<svg xmlns="http://www.w3.org/2000/svg" xmlns:xlink="http://www.w3.org/1999/xlink" version="1.1" viewBox="-10 0 266 256">
   <path fill="currentColor"
d="M124 191q0 16 -2.5 30.5t-2.5 29.5q6 0 8.5 -3.5t4.5 -8.5v-6t0.5 -9t1 -9t0.5 -6v-6t0.5 -5.5t2 -4.5t5.5 -2q3 0 10 0.5t15 1t15 1t10 0.5h2h3q2 0 4.5 -0.5t2.5 -3.5q0 -2 -2 -3t-3.5 -2t-3.5 -1h-3h-29q-2 0 -6 -0.5t-8.5 -0.5t-8 -0.5t-5.5 -0.5v-4q0 -4 1 -9t4 -7
q7 0 13 -1t11 -3.5t8.5 -7t5.5 -11.5q0 -2 0.5 -6t0.5 -9t0.5 -9.5t0.5 -5.5v-4q0 -3 -1.5 -5t-3.5 -2q-3 0 -4 1.5t-2.5 4t-2.5 4t-3 2.5h-5.5h-4.5h-9t-9 -1v-3t-0.5 -4.5t-0.5 -5v-2.5v-3v-2l39 -4q4 0 6.5 -2.5t3.5 -6t1.5 -7t0.5 -6.5v-6q-1 -2 -2 -2h-2h-3t-2 2
q0 8 -2 13t-5.5 7t-9 2.5t-13.5 0.5q-5 0 -8 -1.5t-3 -7.5q0 -5 1.5 -6.5t4 -2t5.5 -1t6 -2.5q4 -3 4.5 -7t1.5 -7.5t2.5 -6.5t6.5 -3h6q1 0 4.5 0.5t7.5 0.5t7.5 0.5t4.5 0.5h1v0q2 0 6 -1t5 -1v-2q0 -2 -0.5 -3t-1.5 -1h-14q-36 0 -71.5 0.5t-71.5 2.5q-1 0 -2.5 1t-2.5 2
q1 2 3 3.5t5 1.5q9 0 18 -1.5t18 -1.5h7q2 0 3 1.5t1 3t-0.5 2.5t0.5 3q0 6 4.5 8.5t9 4t8 2.5t3.5 3v12l-3 3q-1 0 -4.5 0.5t-4.5 0.5q-10 0 -16.5 -1.5t-10 -4.5t-5 -9t-0.5 -16l-1 -0.5l-1 -0.5q0 -1 -1 -1v0q-1 0 -1 1l-1.5 1.5l-1.5 1.5v22q0 3 2 5.5t5.5 4t7 2.5
t5.5 1t6 0.5t8.5 0.5t9 0.5t5.5 0.5q2 0 2 1v2v2l-0.5 2.5t-0.5 5t-0.5 4.5t-0.5 3q-1 2 -4.5 1.5t-5.5 -0.5h-10.5t-11.5 -1v-4t-1 -4t-2.5 -3t-3.5 -1h-2t-1 2v43q0 8 5 12t12 6t14.5 2h12.5q1 0 1.5 1t0.5 2v2.5v1.5q0 2 -0.5 4l-1 4t-2 3.5t-3.5 1.5t-9 0.5t-15 0.5
t-15 0.5t-9 0.5h-20q-2 0 -2 1v2q0 3 2 5h5h5q16 0 31 -0.5t31 -0.5zM92 143q0 -1 4 -2.5t10 -2t13 -1t13.5 -0.5h11.5h7h2h3.5h3.5h3q0 1 1.5 2l1.5 1v1q0 6 -5 9t-12 4t-14 1h-12h-7.5t-10.5 -1t-9 -3.5t-4 -7.5zM89 125v-3.5t2 -2.5q12 -2 23 -2h24h26q3 1 3.5 2.5
t0.5 3.5q0 4 -2.5 5.5t-5.5 2t-6.5 0t-6.5 -0.5q-2 0 -9 0.5t-15.5 0.5t-15.5 0.5t-9 0.5h-2q-4 0 -5.5 -2t-1.5 -5zM108 44q0 -4 3 -5.5t7 -2t8 0t7 0.5h14q3 1 3.5 3t0.5 4q0 4 -2.5 6.5t-6.5 3.5t-8 1h-8h-5.5t-6 -1.5t-4.5 -3.5t-2 -6zM89 13q0 2 2 3t4 1h3q2 0 8 -0.5
t13 -0.5h14.5t14.5 -0.5t13 -0.5h8q1 0 1.5 -1.5l0.5 -1.5q-1 -3 -2 -3h-3h-3h-8.5h-12.5t-15 0.5t-15 0.5h-12.5h-8.5q-2 1 -2 2v1z" />
</svg>
