<?xml version="1.0" standalone="no"?>
<!DOCTYPE svg PUBLIC "-//W3C//DTD SVG 1.1//EN" "http://www.w3.org/Graphics/SVG/1.1/DTD/svg11.dtd" >
<svg xmlns="http://www.w3.org/2000/svg" xmlns:xlink="http://www.w3.org/1999/xlink" version="1.1" viewBox="-10 0 266 256">
   <path fill="currentColor"
d="M161 205q3 0 5.5 3.5t3.5 8.5t2 11t2 11t3 8.5t6 3.5q2 0 4.5 -1.5t2.5 -4.5v-0.5v-0.5q-2 -4 -4 -9l-4 -10t-3.5 -10t-1.5 -10q0 -1 0.5 -2t0.5 -2h5.5t6.5 -1t5.5 -3t2.5 -6v-39q0 -2 2 -2.5t5 -1t5.5 -1.5t3.5 -4l-0.5 -1.5t-1.5 -1.5h-7.5t-8.5 -0.5t-6.5 -3
t-2.5 -8.5v-1.5v-1.5q4 -4 6.5 -7t4 -6.5t2.5 -8t1 -10.5q0 -1 -0.5 -3t-1.5 -4t-2.5 -3.5t-3.5 -1.5h-36q-4 0 -5 0.5t-1 3.5v2.5t1 1.5h5.5h8.5h7.5h5.5q1 0 3.5 0.5t5 2t4 3.5t0.5 4l-5 12q-1 0 -2 1t-2 1.5t-2.5 1t-2.5 0.5v0q-2 0 -5.5 -0.5t-6.5 -0.5t-6 -0.5l-3 -0.5
h-3.5t-4.5 -0.5t-3 -2t-2 -4.5v-10v-13.5t1.5 -9t5 -5.5t11.5 -2q2 -1 6.5 -1t8.5 -0.5t7.5 -0.5h4.5l2 -1t4 -1.5t3 -2t1 -2.5v-22q0 -1 -1.5 -3.5t-2.5 -2.5h-38q-4 0 -5 -2.5t-1.5 -5.5t-1.5 -5.5t-3 -2.5t-2.5 2t-0.5 4v4t0.5 6.5t2 5.5t3.5 2h40l0.5 1.5l1 3l1 3
l0.5 1.5q0 6 -3.5 8t-8.5 2.5t-11 0.5t-12 1t-11 4t-8 9q-1 1 -1 4.5t-0.5 7.5t-0.5 8v5v8.5t2 8.5q1 2 3 3.5t3.5 2.5t3 3t1.5 4q0 6 -2 9t-6 4t-8 1h-9l-3 3v1v2q1 0 4.5 0.5t4.5 0.5q10 0 15 -2t7.5 -4.5t3.5 -6t2 -6.5t3.5 -5t7.5 -2q3 0 5.5 0.5t4.5 3.5v3t0.5 4.5
t1 4.5t0.5 3q0 3 2 4l4 2t3.5 2t1.5 5q0 3 -0.5 6t-1.5 5.5t-3 3.5t-5 1q-6 0 -9 -1.5t-4 -4t-1 -5.5v-5q0 -3 -1 -4.5t-4 -1.5q-1 0 -2 2.5t-1 4.5v1q0 1 0.5 3t0.5 3.5t0.5 3.5t0.5 3v0v1q-1 1 -1.5 2l-0.5 1h-31q-1 0 -2 1t-2 1l-0.5 1l-0.5 1l3 3h35l1 2t1.5 4t0.5 4v2
v3t-2 2q-2 0 -7 0.5t-11.5 1t-11.5 1t-8 1.5l-2.5 0.5t-3.5 0.5v2q0 3 2.5 4t4.5 1h1q1 0 5 -0.5t9 -1t9 -1t5 -0.5h6zM43 196q0 2 1.5 3t4 1h5h3.5q12 0 24.5 -0.5t24.5 -1.5q2 0 4 -0.5t3.5 -0.5t3 -0.5l1.5 -0.5v-7h-13l-3 -4v-10q0 -24 1 -48t0 -48l0.5 -1t1.5 -1h1v0
q3 1 5 3.5t4 2.5t4 -2t2 -4q0 -4 -4 -6t-9 -4t-10 -5t-6 -8v-6.5v-10.5v-9.5v-6.5q0 -1 -0.5 -4t-0.5 -4h-1.5h-1.5t-3 0.5t-2 2.5l-3 43q-1 3 -3.5 5t-6 4t-8 4t-8.5 5t-6.5 6.5t-2.5 7.5q3 0 5.5 -1.5t4.5 -3l4 -3t5 -1.5q1 0 1.5 0.5l1.5 1.5v5v6.5v7.5v4q0 10 -0.5 19.5
t-0.5 19.5q0 6 0.5 12t0.5 13q0 5 -0.5 8t-0.5 9q-3 3 -6 3h-7.5t-6.5 0.5t-3 4.5zM173 193q0 -1 -1 -5t-1 -5v-1v-1q0 -2 1.5 -3t3 -1.5t3.5 -0.5h4q4 0 5.5 2t1.5 7q0 3 -1.5 5t-3.5 3t-4.5 1.5t-4.5 0.5q-1 0 -2 -1zM75 181v-42v-43v-8t1 -10t4 -9t8 -4t6 4.5t1 7.5
q0 27 -0.5 54.5t-2.5 54.5q-1 3 -2.5 3.5t-3.5 0.5q-5 0 -7.5 -2t-3.5 -7z" />
</svg>
