<?xml version="1.0" standalone="no"?>
<!DOCTYPE svg PUBLIC "-//W3C//DTD SVG 1.1//EN" "http://www.w3.org/Graphics/SVG/1.1/DTD/svg11.dtd" >
<svg xmlns="http://www.w3.org/2000/svg" xmlns:xlink="http://www.w3.org/1999/xlink" version="1.1" viewBox="-10 0 266 256">
   <path fill="currentColor"
d="M133 157q-2 0 -3.5 2t-1.5 5v62q0 4 2 7.5t5.5 5.5t7 3t6.5 1q9 0 17.5 -1t17.5 -3q4 -1 6 -4t3 -7t1.5 -8.5t2.5 -7.5v-59l-1 -0.5l-1 -0.5l-1 -1l-0.5 0.5l-0.5 0.5q-3 2 -4 4.5t-1 6v7v6.5q0 2 -2 4.5t-4 2.5q-8 0 -12.5 -1.5t-6.5 -4.5t-2 -8.5t1 -13.5
q-1 -1 -2 -1.5t-2 -0.5t-2 1.5t-1 2.5v26q0 3 5 3.5t10.5 1.5t10.5 2t6 5l-0.5 1t-1 2.5l-1 3l-0.5 1.5q-1 0 -4 0.5t-4 0.5q-2 0 -5 -0.5l-3 -0.5q-4 0 -9.5 0.5t-11 0t-9.5 -3.5t-4 -9v-1q0 -1 0.5 -5t0.5 -8t0.5 -7.5t0.5 -4.5v-3q0 -3 -0.5 -4t-2.5 -1zM44 232
q0 2 1.5 3t3.5 1q7 0 13 -2.5t12 -2.5h21h3.5t6 -0.5t6.5 -1.5t4 -3q0 -3 -2.5 -4.5t-5 -2t-5.5 -0.5h-4v-11v-17v-16.5v-10.5v-47.5t1 -47.5q1 -1 2 -1.5t2 -0.5v0v0q3 0 5 1t3.5 2t3.5 2t5 1q0 -5 -2.5 -8t-5.5 -4.5t-6.5 -2.5t-7 -2.5t-5.5 -5t-2 -9.5q0 -1 0.5 -1h0.5
v-3t0.5 -4.5t0.5 -4.5v-2v-1q0 -2 -1 -4t-3 -2q-3 0 -5 1t-2 4v28q0 4 -5.5 6.5t-11.5 4.5t-11.5 5t-5.5 8q0 2 0.5 3.5t3.5 1.5q1 0 2 -1l2.5 -2.5t2 -2.5t1.5 -1q1 -1 3.5 -1.5l2.5 -0.5l2 4v81l-1.5 6t-0.5 4v4v7v8t-0.5 12.5t-0.5 12v8.5q-2 4 -5 4.5t-7 1t-6.5 1.5
t-2.5 6zM137 218q0 -2 1.5 -5t3.5 -3h40q1 0 1.5 1t0.5 2v2v1q0 6 -2.5 9t-6 5t-8 2.5t-8.5 0.5q-3 0 -6.5 -1t-7 -3t-6 -4.5t-2.5 -6.5zM74 216q0 -36 1.5 -72t1.5 -72q1 -5 2.5 -7.5t6.5 -2.5q1 0 2.5 2t1.5 3v152q0 1 -1 2t-3 1t-3 0.5t-2 0.5q-3 0 -5 -1.5t-2 -5.5z
M118 116q0 12 4.5 18t11.5 8t16 1.5t18 -0.5h6q1 0 4.5 -0.5l7 -1t6.5 -1t5 -0.5q7 -5 9.5 -12.5t2.5 -16.5q0 -10 -3.5 -14.5t-9.5 -6t-13 -1.5h-14h-4h-6.5h-6.5h-5q-5 3 -11 4t-11 3q-1 1 -2 3l-2 4t-1.5 4t-0.5 3l-0.5 2.5t-0.5 3.5zM144 130q0 -4 0.5 -7t0.5 -6
t0.5 -6.5t-0.5 -8.5q0 -3 3 -4.5t5 -1.5q1 0 2 1.5t1 3t0.5 3l0.5 1.5v2v3v4v3v6t-0.5 6t-2 5t-4.5 2t-4.5 -1.5t-1.5 -4.5zM174 95h3t2 3v36q0 1 -0.5 1.5t-1.5 0.5h-4h-2.5h-2.5t-2 -1t-1 -2v-33q0 -2 1 -2.5t2.5 -1.5t3 -1h2.5zM126 114q0 -4 1 -7.5t5 -3.5t6 4.5t2 8.5
q0 2 -0.5 4.5t-1.5 5t-2.5 4t-3.5 1.5t-3.5 -2t-2 -5t-0.5 -6v-4zM185 115q0 -2 0.5 -4.5l1 -5t2 -4t4.5 -1.5q1 0 4 0.5t3 2.5v21q0 2 -2.5 4.5t-4.5 2.5q-3 0 -4.5 -1.5t-2 -4.5t-1 -5.5t-0.5 -4.5zM146 53q0 7 -4 11.5t-9 8t-9 7t-4 7.5h5.5t2.5 -1t2.5 -2t3.5 -3
q7 -5 11 -8.5t6 -7.5t2.5 -9.5t0.5 -14.5v-3v-4v-4v-3q-1 -1 -2 -3t-2 -2h-1q-4 3 -4.5 3.5t-0.5 3.5q0 6 1 12t1 12zM171 34v10t0.5 9.5t2.5 8.5t7 7q4 3 11 6.5t13 3.5q2 0 3 -0.5t1 -2.5q0 -5 -4.5 -7t-9.5 -3.5t-9.5 -4t-4.5 -9.5v-31q0 -2 -2 -2h-3q-2 0 -3 1.5t-1.5 4
t-0.5 5.5v4z" />
</svg>
