<?xml version="1.0" standalone="no"?>
<!DOCTYPE svg PUBLIC "-//W3C//DTD SVG 1.1//EN" "http://www.w3.org/Graphics/SVG/1.1/DTD/svg11.dtd" >
<svg xmlns="http://www.w3.org/2000/svg" xmlns:xlink="http://www.w3.org/1999/xlink" version="1.1" viewBox="-10 0 266 256">
   <path fill="currentColor"
d="M44 237l0.5 1.5t0.5 2.5q1 0 1.5 1l0.5 1h153q2 0 4 -2.5t2 -4.5t-2 -4t-4 -2h-18q-34 0 -67.5 1t-67.5 1q-1 0 -2 2t-1 3zM66 194v3t1 2h7t10.5 0.5t10.5 0.5h7h9q6 0 11.5 -0.5t9.5 -0.5h5h5.5t10 -0.5t10 -1t5.5 -0.5t4.5 0.5t6.5 0.5t5.5 -1t2.5 -5q0 -3 -1.5 -5
t-5.5 -2q-1 0 -3.5 0.5t-3.5 0.5q-25 2 -50.5 2.5t-50.5 0.5q-4 0 -5 1t-1 4zM74 70q2 0 3.5 0.5t1.5 3.5v98q0 1 1.5 1.5t2.5 0.5q2 0 3 -1.5t2 -3.5q0 -11 0.5 -24t1 -25.5t0.5 -25.5t-1 -25q1 -1 2 -1.5t2 -0.5q6 0 9.5 6t5 14t1.5 16v12v8.5t-3 8.5v27q0 2 1.5 2h2.5
q2 0 3.5 -1.5t2 -4l1 -5t0.5 -3.5v-6v-8v-8v-6q0 -6 0.5 -13.5t0 -14.5t-2 -14.5t-5.5 -12.5q-1 -2 -4 -2.5t-6.5 -2t-6 -2.5t-2.5 -4v-29q0 -3 -1.5 -3.5t-3.5 -0.5t-4 1t-3 3v8q0 5 1 10t1 10t-3 6.5t-7.5 2.5t-9.5 4t-9 11q-1 3 -2.5 8.5t-2.5 12.5t-1.5 15t-1 15
t-0.5 13v10v9q0 1 1 1.5t2 0.5h1q3 0 5 -3.5t2.5 -8.5t1 -10.5t0.5 -11v-9.5v-6l0.5 -2t1.5 -4t1.5 -4l0.5 -2v-2q0 -1 0.5 -4l1 -6l1 -6t0.5 -4q2 -4 4 -6t6 -2zM168 161q0 3 1 6.5t4 3.5t4.5 -3l2.5 -5v-29q0 -15 -1 -29t-1 -29v-5v-5q1 -2 2 -2h3q6 0 9.5 6.5t5 16.5
t1.5 21t0.5 21t2 16.5t4.5 6.5q2 0 3.5 -1.5t2 -3.5t0.5 -4.5v-3.5v-3v-2q0 -3 -1 -11t-2 -17.5t-2 -18t-1 -11.5q-1 -1 -2.5 -5t-1.5 -5q-1 -4 -4.5 -6t-7.5 -3t-7 -2t-3 -2v-31q0 -1 -1 -1.5t-2 -0.5h-2h-1h-4q-2 0 -2 2v3v3q0 6 1 12t1 12q0 2 -0.5 3.5t-3.5 2.5
q-10 0 -15.5 4t-8 10.5t-3.5 14.5t-2 17q-1 11 -2 22.5t-1 23.5q0 3 0.5 4.5t3.5 1.5t4.5 -1.5t1.5 -3.5v-5v-5v-9t0.5 -15t1 -15t0.5 -9q1 -4 2.5 -8.5t3 -8.5t5 -6.5t8.5 -2.5q2 0 2 1t1 5v3v6v5v4v2.5t0.5 5t0.5 5v3.5l0.5 2.5t0.5 5.5v6v5q0 9 -1 17.5t-1 17.5z" />
</svg>
