<?xml version="1.0" standalone="no"?>
<!DOCTYPE svg PUBLIC "-//W3C//DTD SVG 1.1//EN" "http://www.w3.org/Graphics/SVG/1.1/DTD/svg11.dtd" >
<svg xmlns="http://www.w3.org/2000/svg" xmlns:xlink="http://www.w3.org/1999/xlink" version="1.1" viewBox="-10 0 266 256">
   <path fill="currentColor"
d="M136 248q0 3 3 3q5 0 10 -8t10 -19.5t9 -25.5t7 -27t4.5 -23.5t1.5 -14.5q0 -6 -3.5 -11t-8.5 -8t-11 -4.5t-12 -1.5q-1 0 -6.5 -0.5t-11.5 -0.5t-12 -0.5t-9 -0.5h-13q-2 0 -1.5 -2.5l0.5 -2.5q0 -5 3 -7.5t7 -4t8.5 -2.5t7.5 -2h9t13 -0.5t13.5 -0.5h8.5h17q1 -1 1 -2
v-3v-2q0 -1 -1 -2h-14h-9h-8t-8.5 0.5t-9.5 1.5q-8 0 -16 0.5t-15 3t-11.5 7t-4.5 14.5q0 6 1.5 8t3 3t3 1.5t1.5 3.5v1.5v0.5l-10 20l-3 3l-2.5 3.5t-5.5 8.5t-6.5 10t-5.5 8q0 1 -1 3.5l-1 2.5v1q0 2 2 2q4 0 8 -4t8 -10t8 -13t7.5 -14.5t6 -13.5t3.5 -10q1 -2 5 -2.5
t6 -0.5l2.5 0.5t3.5 0.5q2 0 2.5 1.5t0.5 3.5t-1 4t-2 3.5t-2.5 3.5t-1.5 3l-8 18t-8 18.5t-8.5 18t-10.5 15.5v2v3t2 1q1 0 3 -1.5l4 -3t3 -3t2 -2.5q1 -3 4.5 -10.5t7.5 -16t7.5 -16t5.5 -10.5q2 -4 3 -7.5t2.5 -7.5t2.5 -8t3 -7q1 -1 3 -1.5l4 -1t4.5 0t4.5 0.5h3h4t3 1
t1 4v1.5v0.5h-1.5t-1.5 2q0 1 -1 2.5t-1.5 3t-1.5 3.5t-2 3q-4 10 -7.5 21t-8.5 21q-7 11 -13 22t-11 23v1q0 3 3 3t6 -2.5t4.5 -6t2.5 -7t2 -5.5q7 -15 13.5 -29.5t13.5 -29.5q0 -1 1.5 -4.5t2.5 -7t2.5 -7t1.5 -4.5l0.5 -1t1.5 -2v0q2 0 4 1.5t4 4t3 4.5t1 5l-0.5 2.5
l-0.5 2.5v4v3l-7 28q-1 4 -3.5 8t-3.5 8q-3 8 -5 14.5t-5 13l-6 13t-7 14.5v1zM94 72q1 2 1.5 2h1.5t2.5 -1.5t1.5 -3.5v-21q1 0 3.5 -0.5t3.5 -0.5t2.5 1.5l1.5 1.5q2 1 5 2t4 1t2.5 -1.5t1.5 -3.5t-3 -4.5t-7.5 -4.5t-8.5 -3.5t-5 -3.5v-3.5t-0.5 -5t-0.5 -4.5v-3
q-1 -2 -1.5 -2.5t-2.5 -0.5t-2.5 0.5t-0.5 2.5q0 1 -0.5 3t-0.5 4.5t-0.5 5t-0.5 3.5l-10 10q-2 1 -5.5 3.5l-7 5t-6 5.5t-2.5 6t4 3q2 0 4 -1t4 -3t3.5 -4t3.5 -3l2.5 -2.5t3 -2.5l3 -2l1.5 -1h4l0.5 2.5t0.5 4.5v19zM159 65l3 3q1 -1 3 -3.5t2 -4.5v-19q6 0 10 3t10 7
q0 4 1 5t3 1q3 0 5 -1.5t2 -4.5t-3 -6t-7.5 -5.5t-8.5 -5t-6 -4.5q-2 -1 -3 -4.5l-2 -7t-1.5 -6t-2.5 -2.5t-4 3q0 6 -1.5 9.5t-3.5 6.5t-5 5.5t-7 5.5q-1 2 -3.5 3.5t-5 3.5t-4 4.5t-1.5 5.5h7q9 -11 20 -17h1v0q1 0 1.5 0.5t0.5 1.5v23z" />
</svg>
