<?xml version="1.0" standalone="no"?>
<!DOCTYPE svg PUBLIC "-//W3C//DTD SVG 1.1//EN" "http://www.w3.org/Graphics/SVG/1.1/DTD/svg11.dtd" >
<svg xmlns="http://www.w3.org/2000/svg" xmlns:xlink="http://www.w3.org/1999/xlink" version="1.1" viewBox="-10 0 266 256">
   <path fill="currentColor"
d="M93 247q1 0 4.5 0.5t7.5 1t7.5 1t4.5 0.5h9q6 0 16 0.5t19.5 -1t16 -6.5t6.5 -15v-33q0 -2 -2 -5t-4 -3q-3 0 -3.5 2t-1 4.5l-1 5t-2.5 3.5q-3 0 -9.5 1t-13.5 1.5t-14 1.5t-9 1h-2h-4.5h-4.5h-4h-3h-4h-4h-3q-1 -2 -1.5 -4.5t-1.5 -5t-2 -4.5t-4 -2q-2 0 -3.5 1.5
t-1.5 2.5q0 4 0.5 12t1.5 16.5t3 15.5t7 8zM95 228v-2q0 -1 0.5 -4.5t0.5 -5.5q13 1 25 0.5t24 -1.5q5 -1 10.5 -2t10.5 -1q4 0 5.5 2t1.5 6q0 2 -0.5 4.5t-1 5.5t-2 5t-4.5 2q-2 1 -5 1.5t-6.5 1t-6.5 0.5h-3h-13q-4 0 -10 0.5t-12 0t-10 -3.5t-4 -9zM75 137q0 16 1 25.5
t5 14t13 5.5t26 1h2l61 -10q3 0 4.5 -2.5t2.5 -5.5t1 -6v-5q0 -8 -2.5 -12t-7 -5.5t-10 -2t-12.5 -0.5q-4 0 -13 0.5t-18 1.5t-16.5 3t-7.5 6v1q1 2 4 2.5t5 0.5q14 0 28.5 -2.5t28.5 -2.5q6 0 7.5 3.5t1.5 8.5v6q0 2 -4.5 3t-9.5 2.5t-9.5 2t-7.5 0.5q-1 0 -3 0.5t-4 0.5
h-3.5h-2.5l-2 0.5t-6 0.5h-6h-5h-16.5t-9.5 -2.5t-4.5 -8t-1.5 -15.5t4.5 -15.5t10.5 -7.5t13.5 -3t13.5 -3t10 -5.5t4 -12.5q0 -3 -4 -8.5t-9.5 -11t-10.5 -9.5t-7 -4q-1 0 -1.5 2l-0.5 2q0 4 3.5 7.5t7.5 7t7.5 7.5t3.5 10q0 3 -7 6t-16 5.5t-18 5.5t-13 7v3v2.5v3.5v2z
M81 49q2 0 4.5 1t2.5 4v26q0 2 1.5 2h2.5h2.5t1.5 -2q0 -1 0.5 -3t1 -4.5t0.5 -4.5v-2v-3v-5v-4.5v-2.5l2.5 -1t3.5 -1q2 1 4 2.5t3.5 3.5t3.5 3t3 1q4 0 4 -4t-3 -7t-7 -5t-8 -4.5t-6 -5.5v-2v-5v-4v-3q0 -2 -1.5 -3.5t-3.5 -1.5q-3 0 -3.5 2t-1.5 5v2t-0.5 4l-1 4l-0.5 2
q-9 8 -19 14t-18 15v1.5v1.5t0.5 2.5t2.5 1.5q5 -1 9 -4t7.5 -6.5l6.5 -6.5t6 -3zM160 75q0 3 1.5 3h3.5q3 0 5 -2t2.5 -5t0 -7t-0.5 -7t1 -5.5t3 -2.5q3 0 6.5 2t6.5 4.5t5.5 5.5t4.5 5h0.5h0.5q4 0 5 -2t1 -5q0 -2 -0.5 -4t-1.5 -4q-2 -1 -6.5 -3t-9 -4.5t-8.5 -5.5t-5 -5
q-2 -2 -2 -5.5t-0.5 -7t-2 -6t-5.5 -2.5q-1 0 -2 0.5t-2 0.5q1 1 0.5 3t-0.5 4.5t-0.5 5t-0.5 3.5q-3 5 -8.5 9l-11 8t-10 8.5t-4.5 11.5h8q2 -2 5 -5.5t6.5 -6.5t7.5 -5t8 -2v3v5v4v3v3v4t-0.5 4z" />
</svg>
