<?xml version="1.0" standalone="no"?>
<!DOCTYPE svg PUBLIC "-//W3C//DTD SVG 1.1//EN" "http://www.w3.org/Graphics/SVG/1.1/DTD/svg11.dtd" >
<svg xmlns="http://www.w3.org/2000/svg" xmlns:xlink="http://www.w3.org/1999/xlink" version="1.1" viewBox="-10 0 266 256">
   <path fill="currentColor"
d="M142 166q1 1 2.5 7.5t3.5 15.5t4.5 20t5.5 20t6 15.5t7 6.5q2 0 4.5 -1.5t2.5 -3.5q0 -7 -4 -13t-6 -12q-5 -13 -9.5 -26t-7.5 -27q1 -2 6.5 -3t12 -1h13t9.5 -1q1 0 2 -1t1 -2q0 -2 -2 -3.5t-3 -1.5h-39l-1 -2l-0.5 -2t-1 -5t-0.5 -6.5v-5.5v-2v-3.5v-3.5v-2h23
q3 0 4.5 -3t2 -7t0.5 -7.5v-5.5v-9q-1 -1 -2.5 -2t-2.5 -1q-16 -4 -34 -6.5t-34 -2.5q-2 0 -4 1t-5 1q-1 0 -2 -0.5t-1 -1.5v-1q0 -1 0.5 -3t1 -4.5t1 -4.5t0.5 -3v-3.5v-5t-0.5 -5t-0.5 -3.5q1 0 4 -1t3 0q1 0 3 1l4 2t3.5 2t2.5 1q1 1 1.5 2.5t1.5 2.5t2 2.5t2 1.5
q3 0 4.5 -2t1.5 -4q0 -5 -4.5 -8t-10 -5.5t-10.5 -5t-7 -5.5q0 -1 0.5 -2.5t0.5 -3.5t0.5 -3.5l0.5 -1.5v-2v-1q0 -3 -1 -3.5t-4 -0.5h-4t-3 2v15l-2.5 2t-7 4.5t-9 6t-8.5 6.5t-6.5 5.5t-2.5 4.5q1 2 2.5 3t2.5 1q5 0 8.5 -3t6.5 -6l5.5 -5.5t5.5 -2.5q2 0 2.5 1.5t1.5 3.5
v13q0 10 -1 14.5t-3 6.5t-4 2.5t-4 2t-4 5t-3 12.5v9t-0.5 14.5t-0.5 14.5v9v3v3v6t0.5 10t0.5 10v7q3 10 8.5 14.5t13 6.5t16 2h17.5h4t6 -0.5t6 -0.5h5q1 0 1 -1v-2q0 -2 -3.5 -3.5t-8.5 -2t-11.5 -0.5t-13 -0.5t-11.5 -1t-8 -2.5q-3 -1 -5 -4t-3 -7t-1.5 -7.5t-0.5 -6.5
v-1v-2t0.5 -2t1.5 -1q2 0 6.5 -0.5t9.5 -1t9.5 -1.5t5.5 -1h16h16zM77 159q-3 -1 -3 -3.5v-4.5v-3q0 -2 2 -2q1 -1 4.5 -1.5l7 -1t7 -1.5t6.5 -2q1 0 2.5 -2.5t4 -5l4.5 -4.5t3 -2q2 -3 5 -2.5t6 0.5h4h4q2 2 4 6t2.5 9t0.5 10v9h-6h-8.5t-9 0.5t-5.5 0.5h-4t-6.5 0.5
t-6.5 0.5h-4h-2t-4.5 -0.5t-4.5 -0.5h-3zM76 129l3 -30q0 -2 2.5 -4.5t6 -4t7 -2t5.5 -0.5h4h8t10 0.5t8.5 0.5h3.5l1 2v7v9q0 2 -0.5 5.5l-0.5 3.5h-22q-3 0 -5 2t-4 5.5t-3.5 6t-3.5 4.5h-3t-4 0.5l-4 1t-3 0.5h-3h-2q0 -1 -0.5 -3.5t-0.5 -3.5zM143 96q0 -4 1 -4.5
t4 -0.5q6 0 11.5 1t8.5 6v5q0 5 -1.5 9t-7.5 4q-10 0 -13 -5t-3 -15zM165 47v26q0 2 1 2.5t2 0.5h2l1 -1.5t2.5 -3l1.5 -1.5v-24q8 0 14 4.5t11 10.5v1h1q3 0 3.5 -3t0.5 -5l-0.5 -1t-0.5 -2l-1.5 -1.5l-3 -3t-2.5 -3t-2 -1.5q-1 -2 -4.5 -3t-6.5 -2t-5.5 -3t-2.5 -5
q0 -2 1 -4t1 -4q0 -3 -2 -5.5t-5 -2.5q-1 0 -2.5 0.5t-1.5 1.5v17l-2.5 1.5t-6.5 4.5t-8 6.5t-8 6.5t-6.5 5.5t-2.5 3.5q0 2 1.5 2.5t3.5 0.5q5 0 7.5 -2.5t5 -5.5t5.5 -5.5t9 -2.5z" />
</svg>
