<?xml version="1.0" standalone="no"?>
<!DOCTYPE svg PUBLIC "-//W3C//DTD SVG 1.1//EN" "http://www.w3.org/Graphics/SVG/1.1/DTD/svg11.dtd" >
<svg xmlns="http://www.w3.org/2000/svg" xmlns:xlink="http://www.w3.org/1999/xlink" version="1.1" viewBox="-10 0 266 256">
   <path fill="currentColor"
d="M156 194q2 0 4.5 4.5t5 10.5t4.5 13.5t4.5 14t5.5 10.5t6 4q2 0 3 -2t1 -3q0 -4 -1.5 -8t-3 -8.5t-3.5 -8t-4 -7.5q0 -1 -1.5 -4t-3.5 -6.5t-3.5 -6.5t-2.5 -4v-4q2 -3 4 -6.5t3.5 -7t2.5 -7.5t1 -7q0 -7 -4.5 -11t-10.5 -6t-13 -2.5t-13 -0.5h-7t-13 -0.5t-14 -0.5h-10
h-7h-6q-3 1 -3 4q0 2 0.5 2.5t2.5 0.5h60q4 2 9 2.5t9 1t6.5 2.5t2.5 8q0 1 -0.5 4t-1.5 6t-2.5 5.5t-2.5 2.5q-2 0 -3 -1t-2.5 -2t-2.5 -2.5t-2 -1.5q-1 -1 -3 -1.5l-4 -1t-4.5 -1.5t-3.5 -1q-4 -1 -10 -1.5l-12 -1t-11.5 -0.5h-10.5h-3h-4h-4h-3q-1 1 -1.5 2t-0.5 2
t0.5 2.5t3.5 1.5q14 -1 29 0t29 4q4 1 7.5 2.5t3.5 5.5q0 3 -2 5t-5 3t-5.5 1h-4.5h-3t-4 -0.5t-3.5 -0.5h-2.5h-19q-5 -1 -9.5 -2.5t-9.5 -1.5q-3 0 -5 1.5t-2 4.5l0.5 1l0.5 1q3 1 7 1.5t7 1.5h54q4 -3 7 -4t7 -1zM71 228q0 1 0.5 1.5l0.5 0.5h82q1 0 2 -1.5t2 -2.5v0v-1
q-1 -1 -1.5 -2l-0.5 -1h-80q-2 0 -3.5 2.5t-1.5 3.5zM53 124q-1 2 1.5 3.5t3.5 1.5q16 0 32.5 -2.5t32.5 -2.5q18 0 35.5 1t35.5 1q1 0 2.5 0.5t2.5 1.5h1q4 0 5.5 -1t1.5 -4t-1 -4t-6 -1h-68q-1 0 -2 -2.5t-1 -3.5v-2v-1q0 -1 0.5 -3t0.5 -5t0.5 -5.5t0.5 -3.5l0.5 -0.5
l0.5 -0.5q4 0 8 1.5t7.5 4t7 4t8.5 1.5q3 0 7.5 -3.5t8 -9t5.5 -10.5t2 -8q0 -1 -1.5 -3t-2.5 -2q-1 1 -3 2.5t-2 2.5q-1 1 -2 3.5t-2.5 5.5t-2.5 5.5t-1 3.5q-2 2 -3.5 3t-3.5 1t-6.5 -1.5t-9.5 -3.5t-9 -4.5t-5 -5.5v-2v-5v-5v-3l-0.5 -1.5t-2 -3t-3 -2t-2.5 0.5l-1 2
l-0.5 3.5t-1.5 8.5t-1 7v1q0 3 1 4.5t1 3.5q0 6 -6 10h-2.5h-3.5q-7 0 -11 -1.5t-6.5 -4t-4 -7l-3.5 -10.5v-1q0 -2 1 -3.5t2.5 -2.5l3 -2t1.5 -3v-18q4 0 7 1.5t5.5 3t4.5 3t5 1.5q2 0 2.5 -1t0.5 -3q0 -4 -3 -6.5t-7 -4.5l-8 -4t-6 -6q0 -1 -0.5 -3.5t-0.5 -5.5t-1.5 -4.5
t-4.5 -1.5h-2t-2 1l-3 14q0 1 -2.5 3t-5.5 4.5l-6 5t-3 3.5q-1 0 -2.5 1t-3.5 2t-3.5 2l-1.5 1q-3 1 -3 3.5v4.5q6 0 10 -2.5t8 -6t7.5 -6.5t7.5 -3q2 0 2.5 2.5t0.5 3.5v2q0 1 -0.5 3t-0.5 4.5t-0.5 5l-0.5 2.5q-1 2 -2.5 2.5t-3 1.5l-3 2t-1.5 3l0.5 1l0.5 1l11 23
q2 4 5 5.5t7 2t7.5 0t6.5 0t5 2.5t2 6l0.5 2.5t-2.5 2.5q-14 2 -29 2h-29q-1 0 -2.5 2t-2.5 2zM156 46v12t2 11l0.5 0.5l0.5 0.5q4 0 4.5 -3.5t1 -8.5t1 -9.5t3.5 -6.5q3 1 5.5 3t5.5 3.5l6 3t6 1.5t4 -1t1 -4q0 -4 -4 -6t-9.5 -4l-11 -4t-6.5 -6q-1 -1 -1 -3.5t-0.5 -4.5
t-1.5 -4t-5 -2v0q-2 1 -2 2v15q0 1 -4.5 3.5t-9.5 5.5t-9 6.5t-4 6.5q6 0 11.5 -3.5t10.5 -5.5q4 1 5 2z" />
</svg>
