<?xml version="1.0" standalone="no"?>
<!DOCTYPE svg PUBLIC "-//W3C//DTD SVG 1.1//EN" "http://www.w3.org/Graphics/SVG/1.1/DTD/svg11.dtd" >
<svg xmlns="http://www.w3.org/2000/svg" xmlns:xlink="http://www.w3.org/1999/xlink" version="1.1" viewBox="-10 0 266 256">
   <path fill="currentColor"
d="M137 235q0 1 1.5 2.5t3 3.5t2.5 3.5t2 2.5l3 4.5t4 1.5t5 -1.5t2 -4.5q0 -4 -2.5 -7t-5.5 -6.5t-5.5 -7t-2.5 -9.5t1.5 -12t3.5 -11.5t3.5 -11t1.5 -10.5q0 -7 -3.5 -9t-8.5 -3t-9.5 -2t-6.5 -4v-2.5t0.5 -3t1 -3.5t2.5 -2l34 -3q2 0 2 -1.5v-1.5q0 -4 -3.5 -4h-5.5
q-17 0 -36.5 2t-35.5 3v0.5v1.5q0 2 1 3t4 0h4.5t7.5 -0.5t7.5 -0.5h4.5h2h1q1 0 2 0.5l1 0.5v11l-0.5 0.5l-0.5 0.5q-11 8 -17 15.5t-9.5 15.5t-5 17.5t-3.5 22.5v1v0v3.5t0.5 4.5t0.5 4v3q1 2 2 2h2q3 0 4 -2t1 -5t-1 -7t-1 -8q0 -7 2 -15t5.5 -15.5t8 -14t9.5 -10.5
q2 -2 6 -2h7h4.5t5 1t3.5 2.5t1 4.5q0 5 -1 9.5t-3 9t-3.5 9.5t-1.5 10q0 6 0.5 11t1.5 13zM120 68v13q0 1 -0.5 2l-0.5 1l-39 4q-1 0 -2 1t-2 2.5l-2 3t-2 2.5q-2 14 -3 29.5t-2 30.5v3v3q6 0 8.5 -4t3.5 -10.5t0.5 -14t-0.5 -14.5q0 -8 1 -14t5 -9q15 -5 30 -5.5t30 -0.5
h23q3 1 4 4.5t1.5 7.5t0.5 7.5v5.5q0 1 0.5 5l1 8l1 8t0.5 5v13l3 3q0 -1 3 -3.5t3 -3.5v-38q0 -1 -0.5 -3t-1.5 -3l-0.5 -2l-0.5 -2l-2 -8t-3 -6.5t-5.5 -4.5t-7.5 -2q-8 0 -14.5 1t-14.5 1q-4 0 -5 -3t-1 -6t-1 -6t-6 -3v0.5v0.5q-1 0 -2 0.5zM94 114q0 3 2 4t5 1h5t5 -2
l49 -3q1 0 1 -1v-2t-1 -1.5t-2.5 -1t-2.5 0t-2 0.5q-15 0 -29 1t-29 0l-0.5 1t-0.5 2v1zM91 45v29q2 0 5 -2t3 -4v-22q0 -2 1 -2.5t2 -0.5q4 0 6.5 2t4.5 4.5t4.5 4.5t5.5 2h3.5t2.5 -2q0 -1 -1 -2.5t-2.5 -3l-2.5 -2.5t-2 -1q0 -1 -3 -2.5t-5.5 -3.5t-5 -3.5t-3.5 -2.5
q-2 -1 -2.5 -3.5l-1 -5t-0.5 -5v-3.5q-1 -2 -2 -3t-3 -1t-3 2q1 6 -0.5 11t-5.5 9t-8.5 7.5t-8.5 6.5t-6.5 6.5t-2.5 6.5q0 2 0.5 2.5t1.5 0.5q5 0 8 -3t6 -6.5t6.5 -6.5t7.5 -3h0.5h0.5zM153 45h1.5t1.5 1v25l0.5 0.5l0.5 0.5h1q4 0 5.5 -4t1.5 -9.5t0.5 -9.5t4.5 -4
q3 0 4 1.5l3 4.5q1 0 2 1.5t3 3t3.5 3t1.5 2.5h1h1q3 0 4.5 -2t1.5 -4q0 -1 -0.5 -2l-0.5 -1q0 -1 -1.5 -2.5l-3 -3l-3 -3t-2.5 -1.5q-1 -2 -3 -3t-4 -1.5t-4 -1.5t-3 -3q-2 -3 -2 -6.5v-7t-1 -6t-4 -2.5q-2 0 -4.5 1t-2.5 4v13l-3 1q-5 7 -11 14t-12 12v1v1l1 1l2 2v0h0.5
h0.5q1 0 2 -1l1 -1l14 -14h1h1z" />
</svg>
