<?xml version="1.0" standalone="no"?>
<!DOCTYPE svg PUBLIC "-//W3C//DTD SVG 1.1//EN" "http://www.w3.org/Graphics/SVG/1.1/DTD/svg11.dtd" >
<svg xmlns="http://www.w3.org/2000/svg" xmlns:xlink="http://www.w3.org/1999/xlink" version="1.1" viewBox="-10 0 266 256">
   <path fill="currentColor"
d="M114 187q1 0 6 0.5t10 1.5t10 1.5t6 0.5q13 2 19.5 6.5t10 11t5 16t4.5 21.5q0 1 1 3t3 2q1 0 2 -1.5t1.5 -3l1 -3t0.5 -2.5q0 -6 -1.5 -14t-4.5 -16t-8 -14t-11 -9q-2 0 -6 -1t-8.5 -2t-8.5 -1.5t-5 -1.5h-3t-3.5 -0.5t-3.5 -0.5h-2q-2 0 -5.5 -0.5t-6.5 -1.5t-5.5 -2.5
t-2.5 -4.5v-28q0 -3 -2.5 -5t-5.5 -3.5t-6.5 -2t-5.5 -0.5t-6.5 1.5t-8.5 4t-7 5.5t-4 6l-9 50q0 1 -1 5.5t-1.5 10t-1 10t-0.5 6.5t0.5 4.5t3.5 2.5q4 0 6 -3q1 -11 2 -21t3 -21q0 -3 1.5 -10.5t3 -14.5t3 -13.5t4 -9t7.5 -4t8 -1.5q5 0 6.5 3t2 7t0.5 9.5t1 11t3.5 9.5
t8.5 6zM118 166h57h2.5t6 0.5t6 1t3.5 0.5v0h3t4 -0.5t3.5 -1.5t2.5 -3l-0.5 -1t-1.5 -2l-0.5 -0.5l-0.5 -0.5h-6h-8h-9h-5q-2 0 -5.5 -0.5t-5.5 -1.5v-2v-2v-4v-4.5t1 -4.5t2 -2h4h6h5.5h4.5t4 -1.5t2 -3.5v-1l-1.5 -1.5l-0.5 -0.5h-21q-3 0 -3 -1v-3q0 -6 3.5 -9t8.5 -5
l10 -4t8 -6v-3v-3q0 -8 -2 -10.5t-10 -3.5q-8 -2 -17 -2.5t-17 -1.5h-12h-12l-1.5 1.5t-0.5 2.5l1 1h2t4 0.5t4 0.5h3q2 1 4 1.5t2 3.5q0 5 -5 8t-11 5.5t-10.5 4t-4.5 3.5l0.5 1t0.5 1.5t1 1l1 0.5q2 0 6 -1t7.5 -2t7 -2.5t6.5 -3.5q1 -1 3.5 -4.5t4.5 -6.5t4 -5.5t3 -2.5
h2h4t6 0.5t5.5 0.5h4.5q3 1 4.5 3.5t1.5 5.5v2.5v2.5q-5 3 -10.5 4.5t-10.5 4.5q-3 2 -4.5 4.5t-2 5.5t-1.5 6t-4 4q-1 0 -3.5 0.5t-5.5 0.5t-5.5 0.5t-3.5 0.5h-5h-3.5t-2 1.5t-0.5 5.5h29q1 0 1 1v3v1v4.5t-0.5 5t-2 4t-4.5 1.5h-28q-2 0 -2.5 1.5t-0.5 2.5v1.5t1 1.5z
M56 119q0 3 2 3h4q6 0 14 -1.5t15.5 -5t12.5 -9t5 -13.5q0 -3 -5 -6.5t-11.5 -7t-13 -6t-8.5 -2.5q-3 0 -3 4v2t1 1q1 1 3.5 1.5t5 1.5l5 2t3.5 1q0 1 2 1.5t4 1.5t4 2.5t2 2.5v10q0 4 -7 5.5t-14.5 2.5t-14 3t-6.5 6zM166 42q0 7 -1.5 14.5t-1.5 15.5q4 0 6.5 -4t3.5 -9
t0.5 -10t-0.5 -8l1.5 -1.5l1.5 -1.5q4 0 7 3t6 7t5.5 7t5.5 3q2 0 3.5 -2t1.5 -3q0 -7 -4 -10t-9 -5.5l-10 -5t-7 -6.5v-4.5t-0.5 -5.5t-2.5 -4.5t-5 -1.5h-1h-2q1 11 -4 17.5t-10.5 11t-10.5 7.5t-5 7q0 2 2 2.5t4 0.5h1.5h0.5l18 -18h0.5h0.5q2 0 3.5 1t1.5 3zM92 43h2.5
t1.5 1v23l0.5 0.5t1.5 0.5v0h0.5h0.5q1 0 2.5 -0.5l1.5 -0.5v-24l1 -1.5t2 -1.5h1h1l15 15h0.5h1.5q2 0 3 -1t1 -3t-0.5 -3.5t-1.5 -3.5q-1 0 -3 -2l-4 -4t-4.5 -3.5t-3.5 -2.5q-2 -1 -5 -3t-4 -6v-4v-5t-1 -3.5t-4 -1.5h-2t-2 1v20l-2 1.5t-4 2.5t-4 2.5t-3 1.5
q-2 2 -5 3.5t-6.5 3.5t-5.5 4t-2 4t1 2.5t3 0.5q4 0 7.5 -2t6.5 -4.5t6 -4.5t6 -2z" />
</svg>
