<?xml version="1.0" standalone="no"?>
<!DOCTYPE svg PUBLIC "-//W3C//DTD SVG 1.1//EN" "http://www.w3.org/Graphics/SVG/1.1/DTD/svg11.dtd" >
<svg xmlns="http://www.w3.org/2000/svg" xmlns:xlink="http://www.w3.org/1999/xlink" version="1.1" viewBox="-10 0 266 256">
   <path fill="currentColor"
d="M117 176q0 1 1 2.5t2 3.5t1.5 3.5t1.5 1.5q1 2 2.5 3.5t3.5 2.5t3.5 2.5t1.5 3.5q1 4 2 12t3 17t5.5 16t7.5 7q3 0 4 -1.5t1 -4.5q0 -4 -1.5 -7l-3 -6t-3.5 -6t-3 -7l-0.5 -2l-1 -4l-1 -4t-0.5 -2.5t-1.5 -3l-1.5 -2.5q0 -1 1 -2t2 -1q3 -3 6 -2.5t7 -0.5q2 -1 6 -4
t8 -6.5t6.5 -7.5t2.5 -6t-1 -3t-3 -1q-5 0 -8 3t-6.5 7t-7 7t-8.5 3q0 -7 5 -13t11 -11.5t11 -9.5t5 -7q0 -2 -1 -3.5t-3 -1.5q-4 0 -10 5.5t-11.5 13t-9.5 14.5t-5 11h-1q-5 0 -7 -4t-2 -8t3 -7t6.5 -5t6.5 -5t3 -6v-1q0 -1 -0.5 -2.5t-1.5 -2.5q-8 6 -16 13.5t-11 18.5z
M126 137q-4 6 -9 8t-10.5 4t-11 5.5t-8.5 10.5q-1 0 -1.5 2.5l-1 5t-1 4.5t-0.5 3v54q0 1 2 3t3 2q3 0 5 -3q0 -2 -0.5 -9.5t-0.5 -15.5t0.5 -15t0.5 -10q0 -10 3 -16.5t11 -12.5q5 -4 12.5 -7t13.5 -7l1 -1.5l2 -3t1 -2.5l3 -25q0 -2 5 -2h9t9 -0.5t4 -4.5v-2.5t-1 -1.5
h-63q-2 0 -4.5 2.5l-3.5 3.5l3 3h29v1.5t0.5 4t0.5 4.5t1 4v1v1q-1 0 -1.5 2t-0.5 4t-0.5 4zM146 137q1 1 5 1.5t5 0.5v0q10 0 16 -3t9.5 -8t4.5 -11.5t1 -15.5l-0.5 -1.5t-0.5 -2.5q-3 -8 -8.5 -12t-12.5 -6t-15 -2.5t-16 -0.5q-1 -1 -1.5 -3.5t-1 -5.5t-2.5 -6t-6 -3
q-1 0 -1.5 0.5t-0.5 1.5q2 9 0 13t-6 5t-9.5 1.5t-10.5 2t-10 6.5t-8 15v1q0 8 1 14.5t4.5 10.5t9 6t14.5 2h7l0.5 -1t0.5 -2v0q0 -3 -3.5 -4.5t-8 -2.5t-8.5 -2.5t-6 -5.5v-9v-3.5v-5t1 -4.5t2 -3q11 -6 22 -7t23 -1h7h6.5t7 0.5t7.5 0.5q4 1 6.5 4t3 6.5t1 7.5t0.5 7
q0 6 -2.5 9.5t-5.5 5t-7 2t-7 1t-5 1.5t-2 4v2zM88 47q1 0 3 1t2 3v17q0 2 1.5 2h2.5q2 0 3 -1t1 -5q0 -1 0.5 -3.5t0.5 -5t0.5 -5t0.5 -3.5v0v0q4 0 7.5 2t7.5 2q2 0 4 -0.5t2 -3.5q0 -4 -3.5 -6t-8 -3t-8 -2.5t-4.5 -5.5q-1 -6 -1.5 -8t-1 -2t-1.5 -0.5t-3 -4.5l-3 3
q1 7 -1 11.5t-6 8t-8.5 6l-9 5t-7.5 4.5t-3 5t2 4t4 1q4 0 7 -2t6.5 -4.5t6 -5t5.5 -4.5h0.5h1.5zM154 44h2t1 1v24q6 0 7.5 -3.5t2 -7.5l1 -8t4.5 -4t6 2.5t4.5 5l4.5 4.5t6 2q2 0 4.5 -1.5t2.5 -4.5q0 -4 -4 -7t-9 -6l-10 -6t-7 -5q0 -1 -0.5 -4.5t-1.5 -7t-2.5 -6
t-3.5 -1.5q-1 0 -2 1t-1 2l-3 17q-1 2 -5.5 4t-9.5 4.5t-9 6.5t-4 10q7 0 10 -2t5.5 -4t4.5 -4t6 -2z" />
</svg>
