<?xml version="1.0" standalone="no"?>
<!DOCTYPE svg PUBLIC "-//W3C//DTD SVG 1.1//EN" "http://www.w3.org/Graphics/SVG/1.1/DTD/svg11.dtd" >
<svg xmlns="http://www.w3.org/2000/svg" xmlns:xlink="http://www.w3.org/1999/xlink" version="1.1" viewBox="-10 0 266 256">
   <path fill="currentColor"
d="M187 246q2 3 3 4t3 1q3 0 5 -2v-4v-4q0 -6 -2 -10t-4 -8.5t-4 -8t-2 -7.5q0 -3 1 -5.5t2.5 -5t3 -5.5t1.5 -7v-4t-1 -4q-2 -4 -5.5 -6t-7 -3t-7.5 -1.5t-6.5 -1t-4.5 -2.5t-2 -5v-5t2 -3h3.5h4.5h6h4q3 0 5 -1t2 -5q0 -2 -1.5 -2.5t-4 -1t-5 0t-4.5 0.5h-3q-1 0 -3 0.5
t-3 0.5t-1.5 -2t-2 -4.5t-3 -4.5t-4.5 -2q-2 0 -2.5 2.5t0 6t1 8t0 9t-3 7t-7.5 3.5q-1 0 -3.5 0.5t-5.5 0.5h-5.5h-3.5q-1 1 -1.5 2t-0.5 2v3v1h8h12.5h12.5h9q1 0 3.5 0.5t5 0.5t5.5 0.5t4 0.5q3 0 3 2v4q0 4 -1.5 7.5t-5.5 3.5q-3 0 -5 -2t-5 -3h-3h-5h-4h-3
q-3 0 -9 -0.5t-12 0t-10.5 2.5t-4.5 7h48q1 0 2.5 0.5l1.5 0.5q1 0 1 1v1h-1l-1 2t-1 3l-51 6v8q14 0 27 -2.5t26 -5.5h2h2q4 0 7 4.5t5 10.5t3 12.5t1 8.5zM86 193q0 2 0.5 6t1 9t1.5 9.5t1 5.5q0 2 0.5 4.5t1 4.5t1.5 3.5t4 1.5t4 -2.5t1 -5.5v-3l-0.5 -2l-0.5 -2
q0 -1 -0.5 -4t-1 -7t-1 -7.5t-0.5 -6.5q-2 -13 -2 -28v-28q0 -14 1 -28t1 -28v-4v-4q-3 -2 -7 -2.5t-7 -1.5h-27q-3 0 -3.5 1t-0.5 3t1.5 3.5t3 2t2.5 1t1 1.5l-1 40v7q-1 22 -1.5 43t-0.5 43q3 0 5.5 -2t5.5 -5q1 -9 2 -19t1 -20q0 -11 -0.5 -21.5t0.5 -19.5v-5v-9v-9v-5
v-3.5t0.5 -5.5l1 -6t1.5 -4l2 -0.5l2 -0.5q5 0 7.5 1.5t2.5 7.5q0 15 -2 30.5t-2 30.5q0 9 1 16t1 15v1q0 1 -0.5 4t-0.5 4zM148 91h-12t-13.5 1.5t-11 5t-4.5 11.5v35q0 2 1.5 3t2.5 1q3 0 4.5 -4t1.5 -6l-0.5 -2.5t-0.5 -3.5v-1v-1v-6q0 -4 0.5 -9t2 -9.5t3.5 -5.5
q6 1 12 0t12 -1q1 0 3 0.5t2 2.5q0 6 -4.5 8.5t-10 4.5t-10 4.5t-4.5 7.5v2.5t2 1.5h1q4 -1 8 -4t8.5 -6t8 -5t6.5 -2q4 0 7 2l6 4t5.5 4t6.5 2q3 0 4 -1.5t1 -3.5q0 -4 -4.5 -6t-9.5 -4t-9.5 -4t-4.5 -5q0 -2 0.5 -3.5t3.5 -1.5h27l3 3v29q0 1 0.5 4t0.5 4h2q3 0 4.5 -2
t2.5 -4q0 -2 0.5 -5.5t0.5 -4.5t-0.5 -6t-1.5 -11t-2.5 -10.5t-3.5 -4.5h-33q-2 0 -2.5 -1t-1 -3t-0.5 -3v-3q0 -2 0.5 -3.5t3.5 -2.5h4.5t7.5 -0.5t7.5 -0.5t4.5 -1l2 -0.5t3.5 -1t2.5 -1.5t1 -3l-1.5 -1.5l-1.5 -1.5l-79 8q-2 0 -2 3v3h38v13zM82 41v4.5v5.5t0.5 6t1.5 5
l0.5 0.5t1.5 0.5q3 0 4.5 -4t2 -9t1 -8.5t3.5 -3.5t4.5 1t3 2.5t3.5 3t4 1.5q6 0 6 -7q0 -2 -0.5 -3t-3.5 -3l-20 -9l-0.5 -1t-0.5 -2t-0.5 -2.5t-0.5 -3.5t-0.5 -3.5t-0.5 -2.5q-1 -1 -2 -1.5t-2 -0.5q-2 0 -3 1t-2 3q1 6 0 9.5t-3.5 5.5t-6.5 4t-8 5q-1 1 -3 2.5t-3.5 3.5
t-2.5 3l-1 1v8q4 0 7.5 -2.5t6.5 -4.5t5.5 -4.5t4.5 -2.5q1 0 2.5 0.5t1.5 1.5zM150 36h1l2 2l1 1v19l0.5 0.5l0.5 0.5h1q4 0 4.5 -3t1.5 -6v-3t0.5 -4.5t0.5 -4.5v-3l1.5 -1.5t1.5 -0.5q3 0 6 1.5t5.5 4t5 4t5.5 1.5q2 0 5.5 -1.5t3.5 -4.5t-5.5 -5.5t-12 -5t-12 -4.5
t-5.5 -3q-1 -2 -0.5 -4.5t0 -5t-1.5 -4.5t-3 -2q-1 0 -2 3t-2 6.5t-2.5 7t-2.5 5.5q-2 2 -6 4.5t-8 5.5t-7.5 6t-3.5 6q0 1 1 2.5t2 1.5q4 0 7 -2l6 -4t5.5 -5t4.5 -5h1v0z" />
</svg>
