<?xml version="1.0" standalone="no"?>
<!DOCTYPE svg PUBLIC "-//W3C//DTD SVG 1.1//EN" "http://www.w3.org/Graphics/SVG/1.1/DTD/svg11.dtd" >
<svg xmlns="http://www.w3.org/2000/svg" xmlns:xlink="http://www.w3.org/1999/xlink" version="1.1" viewBox="-10 0 266 256">
   <path fill="currentColor"
d="M145 215q0 6 2 11t5 9.5t7 8t8 7.5h1.5h1.5q3 0 4 -1.5t1 -4.5v-2v-1q-8 -7 -14 -14t-7 -17q0 -5 2 -7.5t5.5 -5t7.5 -4t6 -3.5l1.5 -1.5t3.5 -3t3.5 -3t1.5 -2.5q2 -2 3.5 -6.5t2.5 -6.5v-23q0 -6 -3 -9.5t-8 -5.5t-11 -3.5t-11 -3t-8.5 -4t-3.5 -6.5q0 -1 0.5 -2
t0.5 -2l3 -1l35 -3q2 0 3 -2l2 -4t1 -4v-3q0 -2 -0.5 -4.5t-1.5 -4.5t-2.5 -3.5t-3.5 -1.5h-38q-4 0 -4.5 -2.5t-1 -6t-2 -6.5t-5.5 -3q-3 0 -3 3q0 9 1.5 14t5 7t8 2h9.5h11t12 1q2 2 2 3v3t-0.5 4t-2.5 2h-25q-8 0 -11 5t-3 11t2.5 9t6.5 5t9 2.5t10 1.5t9.5 3t7.5 6v7
q0 2 -0.5 7.5t-2 11.5t-4 11t-5.5 6q-6 4 -10.5 6t-7.5 4.5t-4.5 7t-1.5 12.5zM77 187h2t2 1v55q0 2 2.5 2h3.5t3 -0.5t2 -2.5v-54q0 -1 1 -1h2q3 0 5 3t3 8t1.5 10.5t1 10.5t2 8t3.5 3q3 0 4.5 -2t1.5 -5q0 -9 -1 -16t-3.5 -13t-7.5 -10.5t-13 -7.5q-1 0 -1.5 -1t-0.5 -2v0
q0 -4 2.5 -6.5t6 -4t7 -4t4.5 -5.5q0 -1 -0.5 -3t-0.5 -4.5t-0.5 -4.5t-0.5 -3q0 -3 -2.5 -4l-5 -2t-5 -2.5t-2.5 -4.5v-1l1.5 -1t1.5 -2q1 0 2.5 -1t3.5 -2t3.5 -2t2.5 -2q2 -3 2 -7v-6v-5v-4q-4 -2 -7.5 -3t-6.5 -5q-1 -1 -1 -3t-0.5 -3.5t-1 -2.5t-3.5 -1q-2 0 -2.5 1
t-1 2.5t-0.5 3v2.5q-1 1 -3.5 2.5t-6 3.5l-7 4t-6.5 5v1q0 8 3.5 12.5t7.5 6.5l7 3.5t3 3.5q0 3 -1.5 4.5t-4 2t-5.5 1t-5.5 2.5t-4 5.5t-1.5 11.5q0 6 3 8t6.5 3t6.5 3.5t3 7.5v1l-1 1q-1 0 -2.5 1t-3.5 1t-4 0.5l-2 0.5q-5 2 -7.5 7t-3.5 11t-1 12v10v8q0 2 1 2.5t2 0.5
q2 0 4 -1l4 -2v-9.5t1 -13.5t3 -12t6 -5zM74 155v-2v-3q0 -7 4 -9t11 -2h3h3q3 1 3 3v4v5t-2 4q-4 3 -6.5 3.5t-6.5 0.5q-2 0 -4 -0.5t-5 -3.5zM123 157q8 1 13.5 1.5t12.5 0.5h5t4 -0.5t4 -0.5t5 -1q2 0 2 -1v-2v-2t-2 -1h-41q-2 0 -2.5 1t-0.5 3v1v1zM75 105v-1l2.5 -5
t2.5 -3h21q0 8 -3 12t-11 4q-4 0 -8 -1.5t-4 -5.5zM88 44v24q0 1 2 1h3q3 0 3.5 -3.5t0.5 -8.5t0.5 -9t4.5 -4q1 0 3.5 1t4 3t3 3.5t2.5 3.5q3 -1 5 -2.5t2 -4.5t-2 -5t-4.5 -4t-5.5 -3t-5 -2q-4 -2 -5 -6t-1.5 -8.5t-1 -7t-3.5 -2.5q-2 0 -4.5 2t-2.5 5q0 1 1 2t1 3
q0 3 -2 5.5t-4 4.5q-2 1 -5.5 4t-7.5 6t-7.5 6t-4.5 4l-2 3v0q0 3 1.5 4.5t3.5 1.5q3 0 6.5 -3t7.5 -6.5t7 -6.5t4 -2zM155 43v19q0 1 1.5 1.5t2.5 0.5q3 0 4 -3.5t1 -7t0.5 -6.5t3.5 -3t6 2t5.5 4l5 4t5.5 2q4 0 5 -2t1 -5q0 -4 -2.5 -6t-6 -3.5t-8 -3t-8 -4t-6 -6.5
t-2.5 -12q0 -5 0.5 -7.5t-0.5 -2t-3 3t-6 5.5v3q0 3 -0.5 6l-1 6t-2.5 4q-1 1 -3 2t-4 2.5l-4 3t-3 1.5l-2.5 2.5t-2.5 3t-2.5 2.5l-1.5 1v5h9l14 -12h5z" />
</svg>
