<?xml version="1.0" standalone="no"?>
<!DOCTYPE svg PUBLIC "-//W3C//DTD SVG 1.1//EN" "http://www.w3.org/Graphics/SVG/1.1/DTD/svg11.dtd" >
<svg xmlns="http://www.w3.org/2000/svg" xmlns:xlink="http://www.w3.org/1999/xlink" version="1.1" viewBox="-10 0 266 256">
   <path fill="currentColor"
d="M145 236v3.5t0.5 5t1.5 4.5t3 2h1.5t1.5 -1v-17q0 -19 -1.5 -36.5t-1.5 -35.5q0 -3 1.5 -5t4 -3.5t5.5 -2.5t5 -1t3 1.5t2 3.5q2 14 4.5 26.5t3.5 25.5q0 1 2 2.5l2 1.5v0q3 0 4 -1.5t1 -3.5t-0.5 -3.5t-1.5 -3.5q0 -1 -0.5 -4.5l-1 -7l-1 -7t-0.5 -4.5q-1 -4 -2 -9.5
l-2 -11t-2 -9l-1 -3.5h-14q-2 0 -3.5 1.5l-3 3t-3 2.5t-3.5 1t-4 -2t-3.5 -4t-3 -4.5t-3.5 -3.5l-1.5 -0.5t-2.5 -0.5q0 -1 -2.5 -2t-4.5 -2.5l-4 -3t-3 -1.5q0 -1 -0.5 -2t-0.5 -2h-1l0.5 -0.5l0.5 -0.5l1 -2t2 -3q0 -1 1 -3l2 -4t2 -3l1 -1l2 -1h35q1 0 2.5 -1.5t1.5 -3.5
l-0.5 -0.5t-1 -0.5t-1.5 -0.5l-1 -0.5h-33l-0.5 -0.5l-1.5 -1.5v0v-1q1 -2 2 -5l1.5 -4.5t0.5 -2.5h31q2 0 2.5 -2.5t0.5 -3.5q-8 0 -15.5 0.5t-15.5 0.5h-2t-1 -1v-11q0 -1 2 -1.5t4 -0.5t4 -0.5t3 -0.5h2l2.5 0.5t5 0.5t4.5 0.5t3 0.5v0q2 0 4 -1.5t2 -4.5v-1.5t-1 -0.5
h-8q-13 0 -24.5 1t-25.5 3q-13 3 -17 10t-4 20q0 10 5 18.5t11 15.5v2q0 5 -5 8.5t-10.5 6.5t-10.5 7t-5 10q6 0 11 -3t9.5 -6.5t8.5 -8t8 -8.5h1h2q3 0 6 1t3 5q0 2 -3.5 6t-8 8t-9 7.5t-5.5 5.5q-2 1 -3.5 3t-3.5 3.5t-3 3l-1 1.5v5q2 0 4.5 -0.5t3.5 -1.5q7 -7 13 -14
t14 -14l1 -1l2.5 -2.5l2.5 -2.5t1 -2h2h2q5 0 8 3.5t3 8.5q0 4 -3.5 7.5t-8 7.5t-9.5 7t-7 5q-1 0 -2 1.5t-1.5 3.5t-1.5 3t-3 1l-16 16q-1 1 -1 3v4q0 3 3 3q4 0 7 -3t6.5 -7t6 -8.5t5.5 -7.5l1.5 -2.5t2.5 -2.5q3 -5 9 -10t11 -8v0h1q2 0 4 3q0 12 0.5 21.5t0.5 21.5
q0 5 -0.5 10.5t-0.5 11.5zM100 108q0 -1 0.5 -2l0.5 -1h13q1 0 1.5 1t0.5 2l-1 2t-1.5 4t-1.5 3.5t-2 1.5h-1q0 -1 -1.5 -2t-2.5 -2t-1.5 -2l-0.5 -1q-1 -1 -2 -2.5zM95 92q0 -4 3 -5.5t6.5 -2t7.5 -0.5h7q2 0 3.5 0.5t1.5 3.5l-0.5 2l-1 4t-1.5 3.5t-2 1.5h-19
q-3 0 -4 -2.5t-1 -4.5zM95 76q0 -3 3.5 -5.5t7.5 -4t8.5 -2t5.5 -0.5q5 0 5.5 3t0.5 7v2t-1 1q-6 2 -10 2h-10h-8l-1.5 -1.5t-0.5 -1.5zM97 53l2 1q3 -2 3.5 -6.5t1.5 -8.5l1 -0.5l1 -0.5q2 0 4 1t4 3l3.5 3.5t2.5 1.5q2 1 2 -0.5v-2.5v-1v-1q-3 -4 -5 -6t-5 -4
q-1 0 -2 -0.5t-2 -0.5t-2 -0.5l-1 -0.5l-1 -0.5t-1 -1.5v-11l-0.5 -0.5t-1.5 -0.5l-1 -0.5l-1 -0.5h-1h-1l-1 1l-1 1v10l-1.5 1t-1.5 2q-7 4 -13.5 7.5t-11.5 9.5v1q0 1 0.5 2.5t1.5 1.5q4 0 7 -2.5t5.5 -5.5t5.5 -5.5t7 -2.5h1q0 1 1 1.5l1 0.5v15zM151 35q2 0 2.5 2
t0.5 4.5t0.5 4.5t1.5 2l3 -2l3 -12q0 -1 0.5 -1h1.5q3 0 5.5 1.5t4.5 3.5t5 3.5t6 1.5h2.5t0.5 -4q0 -2 -2 -3.5t-4.5 -2.5t-4.5 -1.5t-3 -0.5t-3 -1.5t-3.5 -3t-3.5 -2.5l-2 -1q-2 -1 -2.5 -3.5t-0.5 -5t-1 -4t-3 -1.5h-1t-1 1v17q-7 3 -13.5 7t-9.5 11q0 1 1.5 1h2.5
q2 0 4 -1.5t4 -4t4 -4t5 -1.5z" />
</svg>
