<?xml version="1.0" standalone="no"?>
<!DOCTYPE svg PUBLIC "-//W3C//DTD SVG 1.1//EN" "http://www.w3.org/Graphics/SVG/1.1/DTD/svg11.dtd" >
<svg xmlns="http://www.w3.org/2000/svg" xmlns:xlink="http://www.w3.org/1999/xlink" version="1.1" viewBox="-10 0 266 256">
   <path fill="currentColor"
d="M188 247l1 1.5t2 1.5h1q2 0 3.5 -1t1.5 -3v-9q0 -7 -0.5 -13t-0.5 -12t-0.5 -12.5t-1.5 -14.5q-1 -4 -3.5 -7.5t-5.5 -6t-5.5 -6t-2.5 -8.5t4.5 -8.5t10 -7t10 -8.5t4.5 -13q0 -10 -4 -15t-14 -5h-1.5h-2.5t-2.5 0.5l-1.5 0.5h-3h-5h-5h-3t-1.5 0.5l-0.5 0.5v1v1
q0 1 0.5 2t1.5 1q5 -1 7.5 0.5t3.5 4.5t1 6.5v8.5v8.5t-2 9.5q-1 3 -2.5 6.5t-1.5 7.5q0 3 1.5 6l2.5 5q1 1 2 3t2.5 4.5l3 5l1.5 2.5q3 5 4 13t1.5 17t0 17.5t-0.5 14.5zM54 244q1 2 3.5 2h2.5h4q3 0 4 -2q12 -20 21 -41.5t9 -45.5v-9q0 -2 -2 -3.5t-4 -1.5h-4h-4
q-5 0 -8.5 1.5t-6 4t-4 6.5t-3.5 9q-1 2 -2.5 7t-3.5 10.5t-4 10.5t-2 7v2q0 2 0.5 3t2.5 1q3 0 5 -4t4 -10.5t4.5 -13.5t5 -13.5t6 -10.5t8.5 -4q4 0 5 2t1 6q0 11 -3.5 23t-8.5 23t-12 21.5t-14 19.5zM116 206q6 1 11 1.5t9.5 1l9 1t10.5 0.5h6q2 -1 2 -2v-2v-1.5t-2 -1.5
h-8t-7.5 -1t-5 -3t-1.5 -8q0 -7 2 -8.5t5 -2t6.5 -1t5.5 -5.5v-8q0 -2 0.5 -5.5t0 -7t-1.5 -6.5t-3 -3q-1 0 -2.5 0.5t-1.5 1.5v24q0 2 -2 2.5t-4 0.5q-3 0 -4 -2t-1 -5v-3v-5v-5v-4v-3v-4v-3v-2l1 -1q1 0 3.5 -0.5l5 -1t5 -0.5h3.5q2 -1 4 -1.5t2 -3.5q0 -2 -1.5 -2.5
t-3.5 -0.5q-3 0 -6 1t-6 1q-2 0 -4.5 -1t-2.5 -4v-16q0 -1 1.5 -1.5l1.5 -0.5l0.5 0.5l0.5 0.5l15 10q1 1 2 0.5t1 -1t0.5 -1.5t0.5 -2l-0.5 -1l-0.5 -1q0 -1 -2 -2t-4 -2.5t-3.5 -3t-2.5 -1.5l-1.5 -1l-3 -2t-2.5 -2t-2 -1q-2 -2 -2 -5t0.5 -5.5t-0.5 -6t-5 -6.5h-2
q-2 0 -2.5 1.5t-0.5 3.5q0 3 1 5.5t1 4.5q0 4 -3.5 8t-8.5 7.5t-9.5 7.5t-7.5 6v3v2t2 2l2 -0.5l2 -0.5l19 -20h1h1v0v0l1.5 1.5l0.5 0.5v24l-2 1t-3 1t-4.5 0.5t-7.5 1t-8 0.5t-5 1v1q0 2 0.5 2.5t2.5 0.5h25l2 2v3t0.5 7.5t0.5 9v7.5v13q0 3 0.5 6.5t0 6.5t-2 5t-5.5 2
q-1 0 -4 -0.5t-3 -2.5v-47h-3t-4 2q-1 8 -1 15.5v15.5v4v5v5.5v3.5q0 3 2 4zM51 130q0 4 2 4h5q2 0 7 -1.5t10 -4t9.5 -5.5t5.5 -5q3 -4 3.5 -7.5t0.5 -7.5t-2.5 -7t-5.5 -6t-6.5 -5t-5.5 -5l-5 2v1v2q0 4 2.5 6t5.5 4t5.5 4t2.5 6q0 8 -5.5 11.5t-11.5 5.5t-11.5 3.5
t-5.5 4.5zM183 119v-4v-3q3 -4 6 -4t4 1t2 4v6v4q0 2 -0.5 4.5t-1.5 4t-4 1.5q-2 0 -3.5 -2t-2 -4t-0.5 -4v-4zM84 45l2 0.5t2 1.5v27l1 0.5l1 0.5h1q2 0 3.5 -2t1.5 -4v-25l1 -0.5t1 -1.5h1v0q1 1 3.5 3t5.5 4t5.5 4t3.5 3q1 0 2 0.5l1 0.5h1h1l1 -1l2 -2v0q0 -5 -4.5 -8.5
t-9.5 -6.5t-10 -5.5t-6 -6.5q-1 -1 -0.5 -4t0 -6t-1 -5.5t-2.5 -2.5q-4 0 -5 5v2.5t-0.5 5t-0.5 5t-1 2.5q-1 3 -5 7t-9.5 9t-10.5 9t-8 6v1q0 2 1.5 3t3.5 1q4 0 7.5 -3.5l5.5 -5.5l2.5 -2.5t3.5 -3l4 -3t2 -2.5h3zM162 40v26q0 1 0.5 2.5t1.5 2.5l0.5 0.5l0.5 0.5
q2 0 4 -2t2 -4v-24q0 -1 1.5 -2.5t2.5 -1.5t1.5 1t2.5 0q5 4 9.5 8.5l8.5 8.5h2q5 0 5 -5v-3q0 -1 -3 -3.5t-4 -3.5t-5.5 -3.5t-9 -5.5t-8.5 -5t-4 -3v-12q0 -2 -2 -2.5t-3 -0.5q-2 0 -4 0.5t-2 2.5v17q-2 2 -6 5t-8 7t-7 8t-3 6t2 2.5t3 0.5q4 0 6.5 -3t4.5 -6.5t4.5 -6
t6.5 -2.5z" />
</svg>
