<?xml version="1.0" standalone="no"?>
<!DOCTYPE svg PUBLIC "-//W3C//DTD SVG 1.1//EN" "http://www.w3.org/Graphics/SVG/1.1/DTD/svg11.dtd" >
<svg xmlns="http://www.w3.org/2000/svg" xmlns:xlink="http://www.w3.org/1999/xlink" version="1.1" viewBox="-10 0 266 256">
   <path fill="currentColor"
d="M129 207q2 0 5 3t7 8t8.5 11t8.5 11t8.5 8t8.5 3t4 -3t-2 -5.5t-4.5 -4.5t-5 -3.5t-4.5 -2.5q0 -1 -1.5 -2.5t-3 -3.5t-3 -3.5l-1.5 -1.5q-2 -3 -5.5 -6.5l-7 -7t-6 -7t-2.5 -6.5v-1h1l0.5 -1.5l0.5 -1.5q8 1 14.5 0t11.5 -4t8.5 -8t3.5 -13q0 -11 -2.5 -17t-7 -9
t-11.5 -4.5t-17 -1.5l-1 -2l-2 -15q0 -3 3.5 -4t8 -3t8 -6.5t3.5 -14.5l3 -3h38l0.5 -0.5t1.5 -0.5v-1q0 -1 -2.5 -3t-4.5 -2h-20v-36q0 -1 2.5 -1h3.5q3 0 6 2t6.5 4.5t6.5 5t7 2.5q3 0 4.5 -0.5t1.5 -4.5q0 -2 -5.5 -5.5t-12 -7t-12 -6t-5.5 -3.5v-17h-4h-4q0 1 -1 1.5
l-1 0.5v15l-1 0.5t-1 1.5q-3 1 -8.5 4.5t-11 8t-9.5 8t-4 4.5q0 2 1.5 2.5t3.5 0.5q4 0 7.5 -2.5t6.5 -5.5t6 -5t7 -2v4.5t0.5 7.5t0.5 7v5q0 1 -0.5 3t-0.5 3.5t-0.5 3l-0.5 1.5h-5v-14q0 -1 -2 -2l-2 -1h-1h-1l-0.5 0.5l-0.5 0.5v12l-4 4h-37q-2 0 -2.5 -2.5t-0.5 -5.5
t-0.5 -5.5t-3.5 -2.5h-1q0 1 -1 1.5l-1 0.5v12l-1 0.5t-1.5 1t-2 0t-2.5 -0.5v-2.5v-2.5v-5.5t0.5 -7.5t1 -7.5t0.5 -4.5l0.5 -1l0.5 -1h1v0q2 1 5 3l6 4l6 4t5 2t2 -2v-3q0 -4 -4 -7t-8.5 -5.5t-8.5 -4.5t-4 -4v-18q0 -1 -2 -1h-3q-3 0 -4.5 2t-1.5 5.5v7t-1 5.5q-2 3 -7 6
t-10.5 6.5t-10 7t-4.5 7.5v1q1 0 1.5 0.5l0.5 0.5h1q4 0 7.5 -2t7 -4.5t7 -6l5.5 -5.5l0.5 -0.5l0.5 -0.5q1 0 1.5 2.5l1 5l1 5t0.5 3.5l-0.5 3.5l-1 7t-1 6l-0.5 2.5h-28q-2 0 -2 2.5v2.5q0 4 3 4h6q8 0 15.5 -1t15.5 -1q3 0 4.5 2t2.5 4.5t1 5v4.5q1 4 4.5 5.5t7.5 2
t7.5 1t4.5 3.5v3t0.5 4t0.5 4v3l-0.5 2.5t-0.5 3.5h-12t-11.5 1.5t-9.5 4.5t-6 9q0 1 -0.5 2.5t-0.5 3.5v4v2q0 11 2.5 17t7 9t11.5 4t17 0q1 1 1.5 2t0.5 2q0 3 -2.5 6.5t-5.5 6.5l-6 6t-5 6l-28 26q-1 2 0 2.5l3 1.5t3.5 1h1.5h2.5h1.5q6 -5 10.5 -10.5l9 -11t9.5 -11
t10 -10.5h1h1zM101 182q-4 -2 -5.5 -4.5t-1.5 -6.5v-3t2 -3l22 -1q3 -1 4 0.5t1.5 3.5t0.5 4v3q0 3 -0.5 6t-4.5 3h-3l-2.5 -0.5t-5 -0.5t-4.5 -0.5t-3 -0.5zM132 171q0 -2 0.5 -4.5t4.5 -2.5h23l2 1v3v2q0 5 -2 8t-5 4t-7 1.5t-8 0.5q-6 0 -7 -4t-1 -9zM94 152q0 -1 1 -3
l2 -4t2 -3t2 -1h22v17h-27q-1 0 -1.5 -2.5t-0.5 -3.5zM133 148v-4q0 -2 2 -3h7h6.5t6.5 1.5t5 3.5t2 6v2q-6 2 -9.5 2h-8.5h-9q-2 -2 -2 -4v-4zM164 111q0 3 1.5 4.5t4 3t5 2t4.5 1.5q1 1 4.5 2.5l7 3l7 3t4.5 2.5h3q1 0 2.5 -0.5t1.5 -1.5q0 -3 -3 -5t-7.5 -4.5t-10 -4.5
t-10.5 -3.5t-9 -2t-5 -0.5zM51 128q0 2 2 3t4 1q1 0 2 -0.5l1 -0.5q2 0 6 -1.5t9 -3t9 -3.5t6 -2q3 -2 5 -4t2 -6q-2 0 -9.5 2t-15 4.5t-14.5 5t-7 4.5v1zM105 90q0 -2 2 -3.5t3 -1.5h34q3 0 3.5 1t0.5 2q0 10 -5 13t-14 3q-4 0 -8.5 -0.5t-7.5 -2t-5.5 -4t-2.5 -7.5z" />
</svg>
