<?xml version="1.0" standalone="no"?>
<!DOCTYPE svg PUBLIC "-//W3C//DTD SVG 1.1//EN" "http://www.w3.org/Graphics/SVG/1.1/DTD/svg11.dtd" >
<svg xmlns="http://www.w3.org/2000/svg" xmlns:xlink="http://www.w3.org/1999/xlink" version="1.1" viewBox="-10 0 266 256">
   <path fill="currentColor"
d="M74 245q0 3 2 4t5 2h13q18 0 35.5 -2t34.5 -2q11 0 21.5 1t20.5 1q4 0 6 -0.5t2 -4.5q0 -6 -3.5 -7t-7.5 -1q-6 0 -12.5 1t-12.5 1h-5h-8.5t-8 -1t-3.5 -3v-23q0 -2 1.5 -3t3 -1.5t3.5 -1.5t2 -2q1 -1 2.5 -3t3 -4.5l3 -5t2.5 -3.5q1 -2 2 -4.5t2 -5.5t2.5 -5t3.5 -2
q3 0 5 1.5t3.5 4t2 5t0.5 4.5q0 9 -3.5 15.5t-7.5 12t-7.5 9.5t-3.5 8q0 1 1.5 2t2.5 1h1q5 -5 10 -10.5t8.5 -12.5t5.5 -14t2 -15q0 -6 -4 -10.5t-9 -8.5t-9 -7.5t-4 -7.5v-35q-3 0 -4.5 2t-1.5 5v30q2 4 3.5 7.5t1.5 7.5v3q-1 1 -2.5 4t-3.5 6.5t-3.5 6.5l-2.5 5l-1 2
t-2.5 4t-3 3.5t-3.5 1.5l-1 -1l-1 -1v-29v-15v-14t0.5 -13.5t1.5 -14.5q0 -2 2.5 -4t4.5 -2h45l5 -3q0 -1 -1 -3.5t-2 -3.5h-4h-6q-4 0 -7 -0.5t-4 -0.5h-43.5t-43.5 4q-1 1 -1.5 2t-0.5 2t0.5 2.5t1.5 1.5h44l0.5 1t0.5 2v2q0 31 -1 61.5t0 60.5l-5 4h-4t-9.5 0.5l-11 1
t-9.5 0.5h-5h-9h-9h-5q-4 2 -4 5zM92 187q0 3 2.5 9.5t5.5 14t6.5 13t7.5 5.5q1 0 1.5 -1t0.5 -3q0 -4 -2.5 -8.5t-6 -9.5t-6 -10.5t-2.5 -11.5q1 -2 2.5 -5.5t4.5 -3.5q2 0 5.5 4t7 9.5t7 10.5t5.5 7q2 -1 3 -3.5t1 -4.5v-0.5v-0.5q-1 -1 -3 -3.5t-4 -5.5t-4 -5.5t-3 -3.5
q0 -1 -1.5 -3.5t-2.5 -4.5t-2 -4.5t-1 -3.5q0 -2 2 -4t4 -3.5t4 -3.5t2 -4v-12q0 -5 0.5 -10t-1.5 -9q-1 0 -1.5 -0.5l-0.5 -0.5q-2 0 -2.5 1t-0.5 2.5v3.5v3t-0.5 3.5t-0.5 6t-0.5 6.5t-0.5 4q-4 3 -8.5 8t-8 10t-6.5 10.5t-3 11.5zM42 106q0 6 0.5 12t2.5 10.5t6 7.5t10 3
q8 0 13 -2t10 -9q0 -2 0.5 -8.5t1 -14t0.5 -14v-8.5v-17v-18l-0.5 -0.5l-1.5 -1.5h-1h-1q0 1 -1.5 2.5l-1.5 1.5v31h-29v-31l-0.5 -1.5t-0.5 -2.5h-0.5h-0.5h-0.5h-0.5q0 1 -0.5 4t-0.5 4q-1 5 -1.5 11.5t-1 13.5l-1 14t-0.5 13zM50 123v-35q4 0 8.5 -0.5t9.5 0.5t8 3t3 7v3
q0 3 -0.5 8.5t-0.5 9v4.5l-5 4h-19zM174 52l0.5 0.5t0.5 1.5v35h2.5t3 -0.5t2.5 -1.5t1 -2v-31q0 -2 1 -2h2t2.5 0.5t2.5 1.5q2 2 3.5 5.5t3.5 6t4.5 4.5t5.5 2h3.5t1.5 -4q0 -5 -4.5 -10.5t-10 -10t-10 -8t-4.5 -5.5v-22q0 -1 -0.5 -1.5l-0.5 -0.5h-1q-5 0 -6.5 4t-1.5 9
v10q0 4 -1 6t-4.5 5t-7 6.5l-6 6t-3.5 2.5h-1l-3 -3l-4 -4t-4 -4.5t-3 -2.5q-2 -2 -5 -4t-3 -5q0 -2 0.5 -5.5t0 -7t-1.5 -6t-4 -2.5h-3t-2 2v20l-24 29v1v1q0 1 0.5 2.5t1.5 1.5q3 0 5.5 -3t5 -7t4.5 -7t5 -3h2t1 2v34q3 0 4 -2t1 -5q0 -2 0.5 -5.5t0.5 -8t0.5 -8.5t0.5 -5
t1.5 -1.5l1.5 -0.5q1 0 2 0.5t2 1.5q0 1 2 2.5t4 3.5t3.5 4l1.5 2h12q2 0 3 -2l2.5 -5t3.5 -5t7 -2z" />
</svg>
