<?xml version="1.0" standalone="no"?>
<!DOCTYPE svg PUBLIC "-//W3C//DTD SVG 1.1//EN" "http://www.w3.org/Graphics/SVG/1.1/DTD/svg11.dtd" >
<svg xmlns="http://www.w3.org/2000/svg" xmlns:xlink="http://www.w3.org/1999/xlink" version="1.1" viewBox="-10 0 266 256">
   <path fill="currentColor"
d="M177 224q1 2 1.5 6.5t1.5 9t2.5 8t3.5 3.5t2.5 -1.5t0.5 -3.5q0 -7 -2 -12.5t-3 -12.5q0 -2 -0.5 -6.5l-1 -9t-1 -8.5t-0.5 -5v-18v-11v-9t0.5 -8.5t1.5 -10.5q0 -6 1 -12t1 -11q0 -8 -4 -11.5t-10 -5t-13 -1.5t-13 0.5t-10 -0.5t-4 -4v-1q2 0 6.5 -0.5t9 -0.5t8.5 -0.5
t6 -0.5q3 0 6.5 -0.5l7 -1t6.5 -2t4 -4.5q2 -6 2.5 -9.5t0.5 -8.5v-3v-3q-1 -1 -2 -1h-2h-0.5h-0.5l-3 19q-1 3 -5.5 4.5t-10.5 2.5t-11 1.5t-7 0.5h-5h-5q-2 -1 -2 -2v-3q0 -3 2 -4t5.5 -1.5t7 -0.5t6.5 -1.5t5.5 -4.5t2.5 -9q0 -4 -5 -4q-2 0 -3 2t-2 4.5t-3 4.5t-7 2
t-6.5 -1.5t-1.5 -3.5t-0.5 -4t-3.5 -4q-2 -1 -5 -2t-6.5 -1.5t-6.5 -0.5h-5q-1 0 -3 1t-2 3v0q0 1 0.5 1.5t1.5 0.5q2 0 6 -0.5t7.5 0t6 2.5t2.5 6q0 2 -1 3t-3 1.5l-4 1t-3 0.5q-10 0 -13.5 -2t-5 -4.5t-2 -4.5t-3.5 -2q-2 0 -2.5 1.5t-0.5 3.5q0 6 4 9t9 4t11 1t10 -1l3 2
v1v1v3q0 3 -2 3h-4h-5h-8h-7.5t-7.5 -0.5t-10 -0.5q-3 0 -4.5 -3t-2.5 -6.5t-1 -6.5q0 -4 1 -5q-1 -2 -4 -3t-3 -2l-1.5 3t-0.5 3v3q1 1 1 3.5t0.5 5.5t1 5.5t0.5 3.5q3 4 8.5 5.5t10.5 1.5q8 0 17 -0.5t18 -0.5q0 1 0.5 2t-1.5 2q-2 0 -6 0.5t-8 1.5t-8 1.5t-6 0.5h-3
t-7 0.5t-7 0.5h-4t-2.5 0.5t-2.5 0.5t-2 1t-1 3t1.5 3t3.5 1h2l2 -0.5l4 -1l4 -1t3 -0.5q11 -2 22.5 -4t23.5 -2h9q5 1 11.5 0.5t12 0.5t9.5 4.5t4 11.5q-1 4 -1.5 13.5t-1 20t-1 20t-0.5 13.5l-0.5 0.5l-0.5 0.5l0.5 0.5l0.5 0.5l0.5 3t0.5 6.5t0.5 6t0.5 3.5t0.5 4
t0.5 6.5t0.5 6.5t0.5 4zM63 226q0 2 1.5 3l3 2t3.5 1t4 1h6h9h10h6h14h12t12 -0.5t13 -1.5q2 0 4.5 -1t4.5 -3v-6q0 -5 -1 -8.5t-7 -3.5q-5 -1 -9.5 -1t-8.5 -0.5t-9 -0.5h-10h-18q-4 1 -11 1t-13.5 2t-11 5.5t-4.5 10.5zM78 226q-2 -1 -3 -2.5t-1 -2.5q0 -2 1.5 -3
t3.5 -1.5t4 -0.5h3t3 -0.5t4 -0.5t4 -0.5l2 -0.5h27h28q3 2 3 4q0 3 -2 4.5t-4 3.5h-4.5t-7.5 0.5t-8 0.5h-5h-2h-1h-9t-13.5 -0.5t-14 -0.5h-8.5zM63 178v6q0 3 1 6t3 5.5t6 2.5h90q1 0 1 -1.5v-1.5v-2t-1 -1h-78q-5 0 -8 -1.5t-4 -4t-1 -6v-7.5v-4v-5q1 -3 3.5 -5t6 -3
t7 -1.5t5.5 -0.5h7t11 -0.5t11.5 -0.5h7.5q12 0 19 -0.5t10.5 -3t4.5 -9t1 -18.5q0 -4 -0.5 -7t-4.5 -5q-7 -3 -12 -3h-13q-15 0 -31 1.5t-32 1.5q-3 2 -3 5q16 0 31.5 -1.5t31.5 -1.5h1q1 0 4.5 0.5t6.5 0.5t6 0.5t4 0.5q2 0 2.5 2t0.5 3.5v3.5v3q0 3 0.5 5.5t0 5.5t-2 5.5
t-3.5 3.5q-16 2 -32 2t-32 1q-8 0 -13 1.5t-8 5t-4 9t-1 13.5zM86 182q3 0 9.5 0.5t14.5 0.5t15 0.5t9 0.5h2h2q2 0 5.5 -0.5t7 -0.5t7 -0.5t5.5 -0.5l0.5 -0.5l0.5 -0.5v-1v-1l-0.5 -0.5l-0.5 -0.5q-17 1 -34 0.5t-35 -1.5q-1 -1 -2.5 -2t-1.5 -3q1 0 2 -1l1 -1
q15 -1 33 -1.5t34 -0.5q1 0 1 -1v-2t-1.5 -2t-3 -1.5t-3.5 -0.5h-3h-7q-6 1 -15 1.5t-17.5 1t-15 1l-6.5 0.5l-7 7v0.5v1.5q0 2 1 4.5t3 3.5zM138 126l1.5 2t1 2.5t-3.5 1.5t-4 1l-58 3q-2 0 -2 2v3h7h12.5t12 -0.5t7.5 -0.5q3 0 9 0.5t12 -0.5t10 -4t4 -8q0 -6 -3 -7.5
t-8 -1.5q-18 0 -34 1.5t-33 2.5v6h2h2q2 0 8 -0.5t13 -1.5t13 -1.5t7 -0.5h5t7 0.5t7 0.5h5zM92 33q2 0 2.5 1.5t0.5 3.5t0.5 4.5t2.5 2.5q1 0 1.5 -2.5t1 -4.5t1 -3.5t1.5 -1.5l16 7h1q2 0 2.5 -1t0.5 -3t-2.5 -4t-6 -3.5t-6.5 -2.5t-5 -2q-1 -1 -1 -3v-3.5t-0.5 -3
t-2.5 -1.5t-3 1.5t-2 4t-1.5 4.5t-2.5 3q-3 2 -7 3.5t-7.5 3.5t-6 4.5t-2.5 7.5q4 0 7 -2t6 -4.5t6 -4t6 -1.5zM152 33q2 0 2 1.5v4v4t3 1.5q2 0 2.5 -1.5t1 -4t1 -4t2.5 -1.5q3 0 5.5 0.5t5.5 2t6 2t6 0.5h3t1 -2t-2 -3.5t-4.5 -2.5l-5 -2t-4.5 -1l-1.5 -0.5t-3.5 -1
t-3.5 -1t-2.5 -0.5q-1 -1 -1.5 -3.5t-0.5 -5t-0.5 -4.5t-3.5 -2q-2 0 -3 2t-1 5v5.5v2.5q-1 2 -4.5 3.5t-7.5 3.5t-7.5 4t-3.5 4t1.5 2h2.5q2 0 4.5 -1t4.5 -2.5t4 -2.5t3 -2h0.5h0.5z" />
</svg>
