<?xml version="1.0" standalone="no"?>
<!DOCTYPE svg PUBLIC "-//W3C//DTD SVG 1.1//EN" "http://www.w3.org/Graphics/SVG/1.1/DTD/svg11.dtd" >
<svg xmlns="http://www.w3.org/2000/svg" xmlns:xlink="http://www.w3.org/1999/xlink" version="1.1" viewBox="-10 0 266 256">
   <path fill="currentColor"
d="M180 158q2 4 3 12.5t1.5 18.5t1.5 21t2 19.5t2 14t3 5.5q4 0 6 -3q0 -1 0.5 -2.5t0.5 -4.5v-3.5v-2.5q0 -9 -1 -18t-2.5 -18t-2.5 -18t-1 -18q0 -8 2 -13t4 -11q2 -4 3.5 -9t2 -10.5t1 -10.5t0.5 -9q0 -20 -3.5 -31.5t-11 -17.5t-20.5 -8t-31 -2q-3 0 -4.5 1t-1.5 5v1v1
l20 4l1 3q1 0 1 3v4v8.5t-0.5 12t-2 11.5t-4.5 7h-4t-6 0.5t-5.5 0.5h-3.5q-6 1 -6 6q0 2 0.5 3t3.5 1h21l1 1.5l1 1.5q0 1 -0.5 2.5t-0.5 3.5t-0.5 4t-0.5 3t-0.5 5l-1 8t-1.5 7t-2 3h-16q-1 0 -2 1.5t-1 2.5q-1 0 -1 1v1h1q0 1 2 2.5t3 2.5h13q9 0 17.5 -1.5t17.5 -1.5h2z
M79 221v1q0 2 1 4t4 2t4.5 -1.5t1.5 -3.5v-66.5t2 -67.5q2 -3 4.5 -4t5.5 -1.5t6 0t7 0.5q3 -1 4 -3t1 -4q0 -3 -1.5 -3.5t-3.5 -0.5q-4 0 -8.5 1t-8.5 1q-1 0 -3 -0.5l-2 -0.5l-1 -1v-61l-0.5 -0.5t-1.5 -0.5q0 -1 -1 -1v0l-1 1l-1 0.5t-2 0.5q0 1 -0.5 2.5t-0.5 3t-0.5 3
t-0.5 2.5v10.5v16.5v15.5v10.5l-1 1l-2 0.5t-4.5 1t-5.5 0.5h-4h-5t-6 0.5t-5 1.5t-2 4t2 3.5t4 0.5q7 0 13.5 -0.5t14.5 -0.5v84q0 1 -0.5 2.5t-0.5 3.5t-0.5 3.5l-0.5 1.5v2v1q0 1 0.5 2t0.5 2t0.5 2l0.5 1v1v0v0q-2 7 -2.5 14t-0.5 13zM105 214q2 1 5 1q2 0 4 -2t2 -4
q0 -16 -2.5 -31t-2.5 -30v-11q0 -5 0.5 -10t0.5 -10.5t1 -11.5q0 -3 -1.5 -5t-4.5 -2h-1q0 1 -1.5 2l-1.5 1v8v12v11v7q0 19 1.5 37.5t0.5 37.5zM51 203v3t3 1h2q5 -2 7 -6t2.5 -8.5t0 -9.5t0.5 -9q1 -15 3 -29t2 -29v-2q0 -2 -0.5 -3.5t-0.5 -3.5v-2q0 -2 -1 -3.5t-3 -1.5
h-2t-2 1v8.5v9.5q0 4 -0.5 8.5t-2.5 7.5q0 2 -0.5 7t-1 11t-1 11t-0.5 7v2.5v3.5q-1 3 -1.5 6t-1.5 6.5t-1.5 7t-0.5 6.5zM157 144v-7t1 -10.5t2.5 -9.5t4.5 -4q4 0 7 3.5t4 8.5t1.5 10t0.5 8t-1.5 4.5t-4 2t-5.5 0.5h-5q-4 0 -4.5 -1t-0.5 -5zM162 98q0 -5 0.5 -9.5t1.5 -9
t1.5 -9t-0.5 -10.5q1 -3 3 -5h3.5h2.5q8 0 12 3.5t6.5 9t3 12t0.5 11.5v8.5t-1 11l-2 11t-3 7.5h-0.5h-0.5q-2 0 -3.5 -3.5t-3 -7.5l-3 -8t-3 -5t-4 -1.5l-5 -1t-4 -1t-1.5 -3.5zM61 65l1 1.5t2 1.5h1h1l1.5 -0.5t1.5 -1.5v-10v-7t-1 -10.5t-3 -10t-5 -4.5t-4.5 2t-1.5 5
q0 5 1.5 9l3 8t2.5 8t0 9zM103 61q0 2 0.5 4t2.5 2q3 0 5 -6t3.5 -13t2.5 -13t1 -8q0 -4 -1 -5t-4 -1q-4 0 -6 5t-2.5 12t-1 13.5t-0.5 9.5z" />
</svg>
