<?xml version="1.0" standalone="no"?>
<!DOCTYPE svg PUBLIC "-//W3C//DTD SVG 1.1//EN" "http://www.w3.org/Graphics/SVG/1.1/DTD/svg11.dtd" >
<svg xmlns="http://www.w3.org/2000/svg" xmlns:xlink="http://www.w3.org/1999/xlink" version="1.1" viewBox="-10 0 266 256">
   <path fill="currentColor"
d="M125 168q0 22 -1 42.5t-1 42.5q4 0 7.5 -2t3.5 -7v-111q0 -2 -0.5 -6t-0.5 -5v-1q0 -3 3 -5q6 1 11 0.5t10 -0.5t10.5 -0.5t11.5 -0.5h5t5.5 -0.5t4 -2t1.5 -4.5t-2.5 -4.5t-4.5 -1.5q-9 0 -17 1.5t-16 1.5q0 -4 1.5 -8t4 -7.5t4 -7.5t1.5 -8h-1.5t-4 0.5l-2.5 0.5
l-10 31l-1.5 0.5t-2.5 0.5h-1h-1h-1t-2.5 -0.5t-2.5 -1t-2 -1.5q1 -7 0.5 -15t-1.5 -15l-0.5 -0.5t-1.5 -0.5v-0.5t-1 -0.5t-2 2t-1 3q-1 2 -2.5 4.5t-1.5 3.5v22q0 2 -1.5 2h-1.5q-3 0 -6 -0.5t-4 -2.5v-7.5t-0.5 -11t-2.5 -9.5t-5 -4q-4 0 -4 4v1t1 1l0.5 2t0.5 3t0.5 4
l1 6t1 6.5t0.5 4.5l-0.5 0.5l-0.5 0.5q-1 1 -4 1.5t-4 0.5h-5t-7 0.5t-7 0.5h-5q-1 1 -1 2.5v2.5q0 3 3 4.5t6 1.5q8 0 15.5 -1.5t15.5 -1.5h2h4h4h3q2 1 3 4v9v14.5v13.5v9zM75 249q1 0 2 0.5l1 0.5q5 0 9.5 -8t8 -21t6 -28t4.5 -28.5t3 -23.5t1 -13q-4 0 -5 1.5t-2 4.5
l-8 49q-4 9 -6 19.5t-5 20.5q0 3 -1.5 6t-3.5 5.5t-3 5.5t-1 5v2.5v1.5zM148 135q0 2 1 10.5t3 20.5t4 25t5 24.5t6 19t7 7.5q3 0 6 -2t3 -6q0 -2 -2 -6.5t-4.5 -10t-5 -10t-2.5 -6.5q-5 -17 -8 -35t-6 -35q-1 -1 -2 -3.5t-1 -3.5l-4 3v3v5zM60 82q0 4 3 4q5 0 8.5 -3.5
t5.5 -9t3.5 -12t3 -12.5t3 -11t4.5 -6q1 0 2.5 -0.5t3.5 -0.5t4 -0.5l2 -0.5q1 0 2.5 1t2.5 2q0 2 0.5 6t0.5 8t0.5 8t0.5 6v5t4 2h3.5t1.5 -3v-26q-2 -3 -2.5 -6.5t-1 -6.5t-2.5 -4.5t-8 -1.5q-9 0 -19 1t-18 2q-2 0 -4.5 2t-2.5 4q0 3 2.5 3.5t5.5 0.5h6h3v2l-1 4
t-2.5 8.5l-3 9t-2.5 6.5t-2 4.5t-2.5 5.5t-3 5t-1.5 4v0zM165 27l2.5 7.5l3.5 10.5t4 12.5t4.5 12t4.5 9t5 3.5q2 0 5 -2t3 -5t-3 -7.5t-6.5 -9.5t-6.5 -11.5t-3 -13.5q0 -5 2.5 -6t6 -1t6 -1t2.5 -5q0 -5 -3 -5h-6q-6 0 -12.5 1t-12.5 2q-7 2 -11.5 3.5t-6.5 4.5t-3 7.5
t-1 11.5q0 6 1 12t1 12q0 1 1 2l2 2l1 -0.5t2 -1.5l2 -2l1 -1l-1 -2.5t-1 -3.5v-3.5t-0.5 -7t-0.5 -7.5v-6v-1v-2q0 -2 1.5 -3.5t4 -2.5t5.5 -1.5t5 -0.5h1h1z" />
</svg>
