<?xml version="1.0" standalone="no"?>
<!DOCTYPE svg PUBLIC "-//W3C//DTD SVG 1.1//EN" "http://www.w3.org/Graphics/SVG/1.1/DTD/svg11.dtd" >
<svg xmlns="http://www.w3.org/2000/svg" xmlns:xlink="http://www.w3.org/1999/xlink" version="1.1" viewBox="-10 0 266 256">
   <path fill="currentColor"
d="M77 247q0 3 1.5 3.5t3.5 0.5q5 0 6.5 -3.5t2 -9t0.5 -10.5v-9t-0.5 -7.5t-1.5 -8.5v-104l0.5 -1t1.5 -1l3.5 -0.5t4.5 -0.5q2 0 5.5 -0.5t7.5 -0.5t8 -0.5t6 -0.5q1 -1 1 -2.5v-2.5q0 -3 -2.5 -4t-5.5 -1q-7 0 -14 2.5t-14 2.5q-2 0 -2 -2v-4q0 -15 1.5 -30t1.5 -30
q0 -3 -1 -6.5t-4 -3.5t-5.5 2t-2.5 5q0 2 0.5 3l1.5 3v63h-32q0 -1 -0.5 -1.5t-1.5 -0.5q-4 0 -5.5 2t-1.5 6t1 5t6 1q7 0 13.5 -1t12.5 -1h3h3q2 0 2 2v3q0 3 -0.5 5t-1.5 5v73q1 7 1.5 12.5t0.5 13.5q0 9 -2 17.5t-2 16.5zM45 229q0 3 2 4t4 1q5 0 7.5 -6.5t3 -14.5
t0.5 -16v-10q2 -17 4.5 -33t2.5 -34v-6l-1.5 -1.5l-1.5 -1.5h-1h-1q-1 0 -2 0.5t-2 1.5q1 4 0.5 8.5t-3.5 7.5q1 20 -2 39.5t-4 38.5q-1 5 -3.5 11t-2.5 11zM99 113v3q0 1 0.5 6t0.5 11t0.5 13t1 13.5t0.5 11v5.5q0 2 0.5 6t1 10t1.5 12.5t2 12t2 9t2 3.5q3 0 5 -2.5t2 -4.5
q0 -13 -3.5 -25.5t-3.5 -24.5v-6v-10v-9v-6t-0.5 -4t-0.5 -6.5t-0.5 -7t-0.5 -4.5v-3v-3.5t-1.5 -2.5t-3.5 -1t-3.5 0.5t-1.5 3.5zM119 193q0 1 2 2t3 2h5h8h8h5h14h12t12.5 -0.5t13.5 -1.5q2 0 4 -0.5l4 -1t3.5 -2t1.5 -2.5q0 -4 -2.5 -6.5t-5.5 -2.5q-4 0 -7.5 1t-6.5 2
h-36l-1 -1v-7v-11t1 -11q1 0 3 -1l2 -1q11 -1 18.5 -1.5t12.5 -2.5t7 -8t2 -17v-11t-2 -8.5t-5.5 -5t-10.5 -1.5h-8q-1 0 -3.5 0.5t-3.5 0.5h-3h-4t-3.5 -0.5l-1.5 -0.5v-29l1 -0.5t1 -1.5q1 0 2 -0.5l1 -0.5l40 -3q4 -1 5 -3.5t1 -4.5v-2.5t-2 -2.5h-3h-4h-4h-2
q-4 0 -10.5 0.5t-14 1t-15.5 1.5t-14.5 2.5t-10.5 3t-4 2.5q0 2 2 3.5t3 1.5h3.5h4.5h5.5h3.5l3 3v5q0 28 -1 55.5t-1 55.5l-3 4l-23 3q-1 0 -2 2v1zM157 138v-5v-5v-4t0.5 -6t1.5 -6t3 -3h25l4 4v2v4q0 13 -7 17.5t-20 4.5q-2 0 -3.5 -0.5t-3.5 -2.5zM97 74q0 3 4 3
q2 0 5 -5.5t5 -12.5t3.5 -14.5t1.5 -9.5q0 -7 -7 -7h-3t-2 2t-0.5 6.5t-1 9.5t-1 9.5t-0.5 6.5q0 1 -0.5 2l-1.5 3t-1.5 3.5l-0.5 1.5v2zM52 37l0.5 2t1.5 3.5t1 3.5t1 2q0 1 0.5 2.5l0.5 1.5q1 1 0.5 5t0 8t2 7.5t5.5 3.5q1 0 2 -0.5t2 -1.5v-6v-9t-1 -12t-3.5 -10.5
t-6.5 -4.5q-3 0 -4 1t-2 4z" />
</svg>
