<?xml version="1.0" standalone="no"?>
<!DOCTYPE svg PUBLIC "-//W3C//DTD SVG 1.1//EN" "http://www.w3.org/Graphics/SVG/1.1/DTD/svg11.dtd" >
<svg xmlns="http://www.w3.org/2000/svg" xmlns:xlink="http://www.w3.org/1999/xlink" version="1.1" viewBox="-10 0 266 256">
   <path fill="currentColor"
d="M74 235l-0.5 1t-0.5 2t-0.5 2l-0.5 1v5v5q5 0 7.5 -0.5t3.5 -4.5v-5v-7.5v-7.5v-5q0 -31 -1.5 -62t-1.5 -62v-5.5v-3.5l28 -3q1 0 2 -2.5t1 -3.5t-0.5 -2t-1.5 -1h-12q0 -6 1.5 -11.5l3 -11l3 -11t1.5 -11.5v-2v-3q-1 -1 -2.5 -1h-3.5t-3.5 4t-2.5 9.5t-1.5 12.5t-1.5 13
t-2 10t-4 4q-2 0 -2.5 -1t-1 -2.5t-0.5 -2.5v-3q0 -13 1 -25.5t1 -24.5q0 -4 -0.5 -5t-4.5 -1t-5.5 3t-2 7.5t0 8.5t0.5 7q0 7 0.5 14.5t0.5 14.5v11q-2 2 -5 2q-1 0 -2 -1t-2 -3v-5v-9v-9v-5q0 -2 -0.5 -5t-1.5 -6t-2.5 -5t-3.5 -2q-4 0 -5 3t-1 6q0 7 2.5 14.5t2.5 15.5
q0 5 -1.5 7t-3.5 3.5t-3 3t-1 4.5v3t2 1q4 0 8.5 -1t8.5 -1h3h2l2 2q-1 33 0 66t1 66l0.5 1.5t0.5 3.5t0.5 3.5t0.5 2.5zM119 191l1 53q0 2 1.5 3.5t2.5 1.5q3 0 4.5 -2.5t2.5 -3.5v-4.5v-4.5v-7t-2 -7v-50q2 -9 3 -17.5t5 -16.5q2 -5 4.5 -9t4 -7.5t3 -8t0.5 -10.5
q2 0 5.5 -0.5t5.5 -0.5l0.5 -0.5l0.5 -0.5q3 0 5 1t3 4q2 9 4.5 13t5 7t5 6.5t5.5 10.5l0.5 1.5l0.5 1.5q1 2 2 7.5t2 11.5t1.5 11.5t1.5 7.5v1v1q-1 1 -1.5 3t-2.5 2h-1q-1 0 -3 -0.5l-4 -1t-4 -0.5h-3q-2 -1 -3 -3.5t-1 -4.5v-35q0 -3 -2 -6.5t-5 -3.5h-3q-1 0 -1 2v4v4
q0 5 1 10t1 10q0 6 -0.5 10.5t-1.5 10.5q-1 1 -4.5 1.5t-4.5 0.5h-1q-1 0 -2 -1t-1 -2.5t-0.5 -2.5t-0.5 -2v-37l-1.5 -0.5l-1.5 -0.5q-1 0 -2 1.5t-1 3.5v3v2v6l0.5 1.5l0.5 1.5v1.5t-0.5 3t-0.5 3v2.5v10v10q0 2 2 4.5t4 2.5h39q0 -1 2.5 -1.5t3.5 -0.5t2.5 2.5t1.5 3.5
v37l-0.5 1.5l-0.5 1.5v1v0q0 2 1 4t3 2q4 0 6 -3t3 -7t1 -8v-6q0 -15 -3 -32t-4 -32q-2 -3 -3 -7.5t-1 -8.5t-1 -8.5t-4 -7.5q-1 -1 -3 -3.5t-4.5 -4.5t-4.5 -4.5t-3 -3.5t-1.5 -4.5t-0.5 -4.5v-3v-3q2 0 5 0.5t6.5 0.5h6h4.5q1 0 3.5 -0.5t4.5 -1t3 -2t1 -4.5t-3 -4t-5 -1
q-5 0 -8.5 1t-8.5 1q-4 0 -7 -1t-3 -7v-2q4 -6 8.5 -9t9 -5.5t8.5 -4.5t6 -6v-1q0 -3 -2.5 -3.5t-4.5 -0.5q-3 0 -7 1.5t-7 3.5t-6 4.5t-5 4.5q-1 0 -2 0.5l-1 0.5q-4 0 -6.5 -2t-5.5 -4.5t-5.5 -4.5t-6.5 -2h-1q-1 0 -4.5 0.5t-4.5 0.5v2q0 3 4 5.5t9.5 6t10 7.5t4.5 10
q0 2 -1 4.5t-4 2.5h-19l-1 -3t-3 -7t-3.5 -9t-2.5 -8q-1 0 -1.5 -2l-1 -4t-0.5 -3.5v-2.5q1 -6 5.5 -8.5t10 -3.5t10.5 -1.5t9 -2.5h24q4 0 6 -1.5t2 -4.5t-0.5 -4t-2.5 -1h-3q-2 0 -8 0.5l-12 1t-12 0.5t-8 1q-4 2 -8 3t-8 2.5t-7 4t-5 7.5q0 2 -0.5 4l-1 4t-0.5 3.5v1.5
q0 4 2 7.5l4 7l4 7t2 7.5t-3.5 5.5t-7 2.5l-7 2t-3.5 3l0.5 0.5l0.5 0.5q0 1 1 2t2 1h23q1 0 1.5 1.5l0.5 1.5q0 1 -1.5 5t-3.5 9.5t-4.5 11t-4.5 10.5t-4 8.5l-2 3.5zM45 220q0 3 1 3.5t3 0.5q5 0 5.5 -3.5t0.5 -8.5l0.5 -2.5t0.5 -5.5t0.5 -5.5t0.5 -3.5v-6v-12v-14v-14
v-11v-7v-4.5t0.5 -7t0.5 -7v-5.5t-1 -4t-3 -2t-3.5 1.5t-1.5 3.5q-2 26 -2.5 54.5t-0.5 53.5q0 1 -0.5 3.5zM98 219q1 0 1.5 0.5l0.5 0.5v0.5t1 0.5q4 0 5.5 -4t1.5 -8q0 -6 -1.5 -12t-2.5 -12q0 -10 -0.5 -20t-0.5 -21v-8.5t-0.5 -11t-0.5 -10.5v-7q-1 -2 -1.5 -4.5
t-3.5 -2.5l-1 0.5l-1 0.5v3.5t-0.5 5t-0.5 5.5v4v1v2l0.5 3l0.5 3v45.5t3 45.5z" />
</svg>
