<?xml version="1.0" standalone="no"?>
<!DOCTYPE svg PUBLIC "-//W3C//DTD SVG 1.1//EN" "http://www.w3.org/Graphics/SVG/1.1/DTD/svg11.dtd" >
<svg xmlns="http://www.w3.org/2000/svg" xmlns:xlink="http://www.w3.org/1999/xlink" version="1.1" viewBox="-10 0 266 256">
   <path fill="currentColor"
d="M114 246q0 3 0.5 4.5t4.5 1.5q2 0 3.5 -0.5t1.5 -4.5v-37q0 -2 0.5 -7t0.5 -11.5t0.5 -11.5t0.5 -7v-9.5v-8.5v-8t1 -9q0 -1 1 -2t1 -2q2 -1 3.5 -1h3h3h3.5q1 0 2.5 -1t3.5 -1.5t3.5 -1.5l1.5 -1h1h1q1 0 1.5 1l0.5 1v41q0 1 -1 3.5t-3 2.5h-1q-1 -1 -2 -1.5l-1 -0.5
v-17q0 -1 -1.5 -3t-3.5 -2q-1 0 -2 2t-1 3v4t-0.5 6.5t-0.5 6.5v4v15t1.5 12t6 8t14.5 3h1h3t4.5 -0.5t4.5 -0.5h3l1.5 -1.5t3 -3.5t3 -3.5t1.5 -2.5v-36q0 -1 1.5 -1.5t2.5 -0.5h2q0 1 0.5 3.5l0.5 2.5q0 2 0.5 5.5t0.5 7.5t0.5 7.5t0.5 5.5v10v16v15.5v9.5t1 2h2
q3 0 4 -1.5l3 -4.5v-11q0 -25 -3 -50t-3 -50q0 -3 1 -6.5t2 -6.5t2 -6.5t1 -7.5q0 -11 -7.5 -17.5t-18.5 -6.5q0 4 3 7t6 5t5.5 5t2.5 8q0 4 -3 7q-4 -5 -8.5 -9t-10.5 -4q-4 0 -4 3t2.5 4.5t5.5 3t5 3t2 3.5v2t-2 1h-7h-6t-6 -1v-2.5v-3.5v-4v-3q0 -9 1 -17.5t0 -18.5l2 -2
h38l2 -2t2 -4l-0.5 -1l-0.5 -1q0 -1 -1 -1.5l-1 -0.5h-6q-7 0 -14.5 1t-15.5 1q-3 0 -4 -2.5t-1 -5.5t2 -4.5t5.5 -2l7 -1t6.5 -2t5 -5.5t2 -12q0 -3 -1.5 -5.5t-4.5 -2.5q-4 0 -4.5 3t-0.5 7t-1.5 7.5t-6.5 3.5h-25q-3 0 -3.5 -3.5l-1 -7t-1 -6.5t-3.5 -2q-5 0 -5.5 1.5
t-0.5 3.5q0 12 4 16t8 5.5t7.5 2.5t3.5 5v3.5t-3 3.5h-5t-8 0.5t-7.5 0.5h-5.5h-2h-4t-3.5 1t-1.5 2t0.5 2l0.5 1q8 2 18.5 2h17.5l0.5 0.5t1.5 0.5v2.5t0.5 3.5t0.5 3.5v1.5q0 1 -0.5 3.5l-0.5 2.5v7.5v7.5t-0.5 8t-1.5 7q-1 1 -3 1.5t-4.5 1t-4.5 1.5t-2.5 1t-2 -0.5
t-2.5 -0.5q0 -3 2 -5.5t4.5 -4.5t4.5 -4.5t2 -6.5q-4 0 -7.5 2t-6.5 5t-5.5 6t-5.5 6h-1q-1 0 -1.5 -1t-1 -2.5t-1 -2.5t-0.5 -2q2 -6 5.5 -10t7.5 -6t7 -4.5t3 -5.5v-2.5t-2 -1.5q-4 0 -9 3.5t-9 8t-6.5 9.5t-2.5 9q0 3 1 5.5t3 5t3 5t1 6.5q0 8 -1.5 17.5t-1.5 18.5
q-1 19 -2.5 37.5t-1.5 36.5zM74 245q0 2 1 4t3 2q3 0 5 -3t2 -5v-14q0 -6 -0.5 -11t-0.5 -11q0 -15 0.5 -29.5t0.5 -28.5v-21v-3.5t-0.5 -5.5t-0.5 -6v-4t0.5 -5t0.5 -6q1 0 3 -0.5l2 -0.5q1 0 3.5 -0.5t5.5 -0.5t5.5 -0.5t3.5 -0.5l1 -1t1 -2v-0.5v-0.5q0 -1 -2.5 -2.5
t-3.5 -1.5h-1l-2 0.5t-4 0.5t-3.5 0.5l-1.5 0.5h-1q-3 0 -4.5 -0.5t-1.5 -2.5q0 -16 2 -30.5t2 -30.5q0 -1 -0.5 -3.5l-1 -5t-2 -4.5t-3.5 -2t-3.5 2.5t-1.5 4.5v67q0 1 -0.5 2l-0.5 1l-2.5 2.5l-1.5 1.5h-21q-2 0 -2.5 1.5t-0.5 2.5q0 2 0.5 3t2.5 2h7q4 0 7.5 -1t7.5 -1
q2 0 3 3t1 4v3v5.5t-0.5 10t-0.5 10v5.5q0 4 -0.5 11.5t-0.5 17.5v20v20q0 9 0.5 17t0.5 11q-2 3 -2 5v4zM48 215q0 3 0.5 5t3.5 2h2.5t1.5 -1q0 -2 0.5 -5t1 -7t1 -7.5t0.5 -4.5l0.5 -2.5t1 -4.5l1 -4t0.5 -3q3 -16 3.5 -33t0.5 -33v-3v-4t-1 -3t-3 -1h-2.5t-1.5 2
q-1 2 -1 6.5v9.5t-0.5 9t-2.5 5q0 3 -0.5 12t-1.5 19t-1.5 19t-0.5 12q0 1 -0.5 2.5t-1 3.5t-0.5 3.5v1.5v4zM98 215q0 2 1 2.5t4 3.5h1h1l3 -4v-9q0 -25 -2.5 -50t-4.5 -50q0 -1 -1 -2t-2 -1v0h-1q-2 4 -2 6.5v5.5q0 22 2.5 44.5t2.5 45.5l-1 2.5t-1 3.5v2zM147 190v-1
l0.5 -1.5t1.5 -1.5h27l2 2v2v2q0 10 -4 13t-13 3t-11.5 -5t-2.5 -13zM163 147q0 -1 1 -3.5l1 -2.5v-13q6 3 11 3.5t9 1.5t6 4.5t2 11.5v8q-1 1 -2 1h-2q-2 0 -3 -2t-3 -2q-3 0 -3.5 3.5t-0.5 7.5t0.5 7t-1.5 3h-10q-1 0 -1.5 -4t-1.5 -9t-1.5 -9.5t-0.5 -5.5zM54 34
q0 2 0.5 10t1.5 16t2.5 15t3.5 7q1 0 2.5 -1t1.5 -3v-4.5t0.5 -6.5t0.5 -6.5v-4.5v-1v-6.5t-1 -9t-3 -8t-5 -3.5q-1 0 -1.5 0.5l-0.5 0.5q0 1 -1 3zM97 73v0q0 1 0.5 1.5l0.5 0.5h1h1q0 -1 1.5 -2l1.5 -1q3 -10 4 -21t1 -21q0 -2 -0.5 -4t-2.5 -2q-3 0 -4 4t-1.5 9t-1 9.5
t-0.5 6.5v3.5t-0.5 5.5t-0.5 6v4v1z" />
</svg>
