<?xml version="1.0" standalone="no"?>
<!DOCTYPE svg PUBLIC "-//W3C//DTD SVG 1.1//EN" "http://www.w3.org/Graphics/SVG/1.1/DTD/svg11.dtd" >
<svg xmlns="http://www.w3.org/2000/svg" xmlns:xlink="http://www.w3.org/1999/xlink" version="1.1" viewBox="-10 0 266 256">
   <path fill="currentColor"
d="M190 246q0 1 1 3t2 2h1q1 -1 3.5 -2l2.5 -1v-38q0 -1 -0.5 -3t-1 -5t-1.5 -6t-1 -4q-2 -5 -5 -8t-6 -4.5t-7.5 -2.5t-9.5 -1l-1 -1v-1q0 -4 2.5 -5t5.5 -2t7 -1.5t7.5 -3.5t5.5 -8t2 -14t-1.5 -13t-5 -5.5t-8.5 -1.5t-12 -2q-1 0 -1 -2v-2v-3q1 0 5 -1q0 -1 2.5 -1.5
l5 -1t5 -1.5t3.5 -1q3 -1 5.5 -5t4.5 -9.5t3 -12.5t1 -13.5t0.5 -11.5t0.5 -8q0 -4 -1.5 -6.5t-5.5 -2.5h-3t-2 3v5.5v8.5v8v6q0 3 -0.5 7t-0.5 8t-0.5 7l-0.5 3l-6 6l-3 0.5t-7 1t-8 0.5t-7 1h-3.5h-5.5h-5h-5q-4 -3 -6.5 -10.5t-3.5 -17t-1.5 -18t-0.5 -12.5
q-1 -2 -4 -2.5t-5 -0.5q0 12 1 22.5t2 22.5q1 7 4.5 11t8 7t9 4.5t8.5 2t6.5 1.5t2.5 2v1q-4 5 -7.5 6.5t-7 2t-6 0.5t-4.5 2.5t-3.5 8t-1.5 16.5q0 6 2.5 9.5t5.5 5t7 2t7 1t5.5 2t2.5 4.5q0 2 -2 3t-4.5 1.5t-5.5 0.5h-3q-8 1 -12.5 8.5t-7 17t-3.5 19t-1 14.5q0 3 1 5
t5 2q1 0 2.5 -1.5t2.5 -4t1.5 -4.5t1.5 -3q5 0 11.5 -1t13.5 -1.5t13.5 -0.5h12.5q3 0 3 3v1v3t-0.5 4t-0.5 4v2zM81 208v32q0 2 1.5 4t2.5 2t2 -0.5l1 -0.5q3 -2 4 -6t1 -9v-9v-6v-1q-3 -20 -3 -41v-41v0v-10.5t0.5 -12.5t0.5 -10v-4l2 -1l2 -0.5t3.5 -0.5t3.5 -0.5l2 -0.5
h2.5t3 -0.5t2.5 -1.5t1 -2q0 -2 -2.5 -2.5t-4.5 -0.5q-3 0 -6 0.5t-6 0.5h-1.5t-1.5 -1q-1 -7 -1 -11.5v-10.5q0 -11 0.5 -21t0.5 -21v-7q-2 -3 -6 -3q-2 0 -4 2.5t-2 5.5q0 15 1.5 31t1.5 33v2t-1 1q-2 1 -7 0.5t-10 0t-9 1.5t-4 3q0 7 6 7q5 0 9.5 -1.5t9.5 -1.5h3
q2 11 2.5 22.5t0.5 22.5v23.5v22.5v12v9zM57 226q0 2 1 4t4 2q2 0 3 -1.5t3 -3.5q2 -25 3 -51t1 -51v-4v-3v-3.5v-2.5v-2t-0.5 -2.5t-1.5 -2.5t-2 -1q-3 0 -4 2t-1 5v5.5v3.5v6t-0.5 11t-1 13t-0.5 13t-0.5 11t-0.5 6v6v9v9v6l-0.5 2l-1 4l-1 4t-0.5 3v1v2zM103 221q0 2 1 2
h2q2 0 3 -2.5t1.5 -5.5l1 -6t0.5 -5v0v0q0 -2 -0.5 -7.5t-1 -12.5t-1 -13t-0.5 -7v-28q0 -2 -0.5 -6t-0.5 -9t-0.5 -9.5t-0.5 -6.5l-2 -2l-2 -2h-1h-1l-1 1t-1 2v2q0 2 -0.5 4t-0.5 4v2q0 21 1.5 42t1.5 41q0 2 0.5 5t0.5 6.5t0.5 6.5t0.5 4zM155 186q1 0 2 1t2 2.5t2 2.5
l1 1v1q0 2 -0.5 4t-2.5 3q-1 0 -3.5 -0.5t-5 -0.5t-4.5 1t-2 3v2.5t2 1.5h2t3.5 0.5t3.5 1l2 0.5q2 0 3.5 1t1.5 3q0 1 -1 3t-2 3q-5 0 -11 1.5t-12 1.5q0 -5 0.5 -11.5t2 -12t5.5 -9.5t11 -4zM170 215q0 -3 2.5 -4l5 -2t4.5 -1.5t2 -3.5t-2.5 -3.5t-5.5 -0.5h-4.5t-2.5 -2
v-11q0 -1 2 -1h3q5 0 8 3t5 7t2.5 9t0.5 8v5l-2.5 2.5t-2.5 0.5l-13 -1q-2 0 -2 -2v-3zM140 152q0 -1 0.5 -2.5l0.5 -1.5h16q1 0 2 1t1 2v0v1q0 1 -0.5 3.5l-0.5 2.5h-3.5h-3.5h-3t-4 -0.5t-3.5 -2t-1.5 -3.5zM169 153v-2v-2t1 -2t2 -1h13q1 0 2 1.5l1 1.5v0.5v0.5
q0 2 -1.5 3.5t-3.5 3t-4.5 1.5h-3.5q-4 0 -5 -0.5t-1 -4.5zM144 136q0 -5 3 -7t7 -2q3 0 5.5 2t2.5 5v2.5t-2 2.5q-1 0 -5 0.5t-5 0.5q-5 0 -5.5 -0.5t-0.5 -3.5zM174 127q5 0 9.5 1t6.5 6q-3 3 -5.5 3.5t-6.5 0.5h-6q-1 -1 -2 -1.5l-1 -0.5v-7q0 -2 2 -2h3zM145 61
q0 5 0.5 10t2.5 9.5t5.5 7t9.5 2.5q7 0 11 -2t6 -6.5t2 -10v-12.5q0 -5 -0.5 -9t-2 -7t-5 -5t-9.5 -2t-11 3t-8 9l-0.5 2t-0.5 4v4v3zM152 74q-1 0 -1 -0.5v-1.5q0 -2 1 -3.5t4 -1.5h14q2 0 3 3t1 4q0 4 -4 6t-8 2h-3q-1 0 -2 -1.5t-2 -2.5l-2 -2t-1 -2zM63 76l2 2t3 2
l1 -0.5t2 -0.5q0 -1 0.5 -1.5l0.5 -0.5v-4v-5v-6v-4v-6q0 -5 -1 -8.5t-3 -6.5t-6 -3q-3 0 -4 1t-1 4q0 4 1 9t2 9.5t2 9.5t1 9zM104 30q-2 3 -3 6t-1.5 6t-0.5 6.5v6.5q0 1 -0.5 4t-0.5 6.5v6.5v4q4 0 6 -4.5t3.5 -10.5t2.5 -11.5t2 -8.5v-1v-2q0 -3 -1 -5.5t-5 -2.5h-1h-1z
M153 53q0 -5 3 -6t8 -1h3.5h2.5q2 1 3 3t1 3t-0.5 3t-1.5 2h-18q-1 0 -1 -1.5v-2.5z" />
</svg>
