<?xml version="1.0" standalone="no"?>
<!DOCTYPE svg PUBLIC "-//W3C//DTD SVG 1.1//EN" "http://www.w3.org/Graphics/SVG/1.1/DTD/svg11.dtd" >
<svg xmlns="http://www.w3.org/2000/svg" xmlns:xlink="http://www.w3.org/1999/xlink" version="1.1" viewBox="-10 0 266 256">
   <path fill="currentColor"
d="M171 120q5 0 8 10t5 24.5t3 31t2.5 31t3 24t4.5 9.5q1 0 2 -1t1 -2.5v-3v-1.5q0 -8 -1.5 -16.5t-2.5 -16.5l-2 -16t0 -15l-8 -51l-0.5 -2.5t-0.5 -3.5q0 -4 2 -6.5t4.5 -5.5t4.5 -5.5t4 -5.5q3 -7 3.5 -15t0.5 -16q0 -1 -0.5 -5t-1.5 -7.5t-3 -6t-5 -2.5h-50l-8 1
q-1 1 -1 2t1.5 2t3.5 1.5l4 1t3 0.5q6 0 14.5 -1t16.5 -0.5t13.5 4.5t5.5 13q0 3 -0.5 8t-2.5 10.5t-5 9t-7 3.5q-1 0 -2 -1.5l-2 -3t-2 -3.5t-2 -3q-3 -4 -9 -7t-12.5 -4.5l-13 -3t-10.5 -1.5h-2q-1 0 -2.5 1.5t-1.5 2.5t1 3t2 2q6 1 14 2t15 3.5t12.5 7.5t5.5 12v2v1
q-4 1 -11 2t-15 2t-14 2.5t-6 3.5q0 3 3.5 4t5.5 1q9 0 17.5 -3t17.5 -3zM81 155q0 23 1 45.5t1 45.5q4 0 6 -2.5t2 -6.5q0 -13 -1 -26t-1 -26v-27q1 -3 2 -3.5t3 -0.5h2h1q6 18 8 35.5t2 36.5q0 1 1 3t3 2q3 0 4 -4t1 -6q0 -7 -0.5 -15t-2 -16.5t-3 -16t-3.5 -14.5
q-1 0 -1.5 -1.5l-1 -3l-1 -3l-0.5 -1.5q-1 -1 -3 -1.5t-4.5 -1t-4.5 -2t-2 -3.5q0 -4 1.5 -6.5t4 -4t5.5 -2.5t5.5 -3.5t4.5 -7t2 -11.5v-9q-2 -4 -5 -5t-6 -1.5t-5 -2t-2 -4.5v-3.5t1 -3.5q2 1 5 0.5t5.5 -2t4.5 -3t2 -4.5v-23q0 -2 -1.5 -3t-3 -1.5l-3 -1t-2.5 -0.5
q-4 -2 -6 -5t-2.5 -7t-0.5 -8.5t-1 -7.5h-1h-2.5t-1.5 2v24q0 1 -3 1.5t-6 2t-5.5 5.5t-2.5 11q0 5 0.5 8.5t2 6t4.5 3.5t9 1v2q0 5 -1.5 8t-4 4.5t-5 2.5t-4.5 2.5t-4 4.5t-2 8q-1 11 3.5 15.5t14.5 7.5v13l-1 0.5t-1 1.5q-8 2 -13 6t-7 13q0 3 -0.5 8t-1.5 11t-1.5 11
t-0.5 7q0 1 -0.5 4.5t-0.5 7t-0.5 7t-0.5 5.5t1.5 3t3.5 1l1.5 -0.5t1.5 -1.5l5 -60q0 -7 3 -10.5t10 -3.5zM124 154q0 4 3 5h9q8 0 16.5 -1t16.5 -2q2 -1 3 -2.5t1 -2.5q0 -3 -3 -3h-4q-10 0 -20 1l-20 2l-1.5 1.5t-0.5 1.5zM74 119v-8v-4t1 -4.5t2 -4.5t4 -2h18q1 0 2 2
t1.5 4.5t1 4.5t0.5 4q0 4 -2 6.5t-4.5 4t-5.5 3t-6 1.5q-8 0 -12 -7zM78 66v-7v-3v-4t0.5 -4t2.5 -2h21q1 0 1.5 1.5t1 3.5t0.5 4v2q0 2 -1 5t-2.5 5t-4 3.5t-5.5 1.5q-1 0 -3 -0.5t-4.5 -1.5t-4.5 -2t-2 -2z" />
</svg>
