<?xml version="1.0" standalone="no"?>
<!DOCTYPE svg PUBLIC "-//W3C//DTD SVG 1.1//EN" "http://www.w3.org/Graphics/SVG/1.1/DTD/svg11.dtd" >
<svg xmlns="http://www.w3.org/2000/svg" xmlns:xlink="http://www.w3.org/1999/xlink" version="1.1" viewBox="-10 0 266 256">
   <path fill="currentColor"
d="M68 160q2 0 3 6.5t2 17t1.5 22t1.5 21.5t2.5 17t4.5 7q1 0 2 -0.5t2 -1.5v-19q0 -16 -3 -32.5t-3 -33.5q0 -2 1.5 -3t4.5 -1q4 0 7 6t4.5 14t2 16t1.5 11q0 1 0.5 4.5t0.5 7t0.5 6.5t0.5 4l1 1.5t2 2.5h1q2 0 3.5 -2t2 -4.5t0.5 -5.5v-4t-0.5 -6.5t-1.5 -12.5t-2.5 -15
t-3.5 -15t-4.5 -11.5t-4.5 -5.5l-16 -3v-1v-2q0 -3 1.5 -4.5t4 -2.5t5 -2.5t5 -3.5t4 -6t1.5 -10q0 -1 -0.5 -4.5t-1.5 -6.5t-2 -5.5t-3 -2.5h-12v-12q0 -1 3.5 -1.5t7.5 -2.5t7 -6.5t3 -13.5q0 -7 -4 -11t-10 -7q-5 -1 -6.5 -4.5t-2 -6.5t-1 -5.5t-3.5 -2.5q-2 0 -3 2.5
t-1.5 5l-1 5t-0.5 3.5q-1 2 -3 3.5t-4.5 3t-4.5 2.5t-3 1q-1 1 -1 5v4q0 4 0.5 9.5t1.5 8.5t3.5 4t5 1.5t4 1.5t1.5 5q0 5 -2.5 8.5t-6 7t-6 7.5t-2.5 10t2.5 9t6 5t6 3.5t2.5 5.5t-3.5 6t-7.5 4.5t-7.5 6.5t-3.5 10v71q0 1 1 1h2q4 0 7 -3q0 -17 -0.5 -34.5t2.5 -34.5
q0 -2 0.5 -4l1 -4t2 -3t3.5 -1zM172 201q0 5 3 13.5t7.5 16.5t10 14t10.5 6q4 0 4 -3q0 -4 -3 -8.5t-7 -8.5t-7.5 -8.5t-5.5 -8.5v-12q0 -8 2.5 -14.5t5.5 -13t5.5 -13t2.5 -13.5q0 -5 -2.5 -8t-6.5 -5t-8.5 -3t-8.5 -2.5t-6.5 -4t-2.5 -6.5t3 -6t7 -2.5t9 -0.5t9.5 -1.5
t7 -5.5t2.5 -12v-7q0 -1 -1.5 -2t-2 -1.5t-1.5 0.5t-2 1q-3 5 -4 9t-3 6.5t-5.5 4t-10.5 1.5q-2 0 -4 -0.5l-2 -0.5l-1 -3v-22q0 -3 2.5 -4t6.5 -1.5t8.5 -1.5t9 -3.5t7 -8t2.5 -14.5v-4.5t-1 -4.5q0 -1 -1 -1.5t-2 -0.5h-1h-1l-1 0.5t-2 1.5q-1 7 -3 12.5t-4.5 8.5t-7.5 5
t-12 2v-26q0 -3 3 -5t7 -4t7 -4.5t3 -6.5v-0.5v-0.5l-0.5 -1.5t-1.5 -1.5v0q-6 0 -10.5 2.5t-8 6.5t-7 8.5t-6.5 7.5v3v2q0 4 0.5 8t0.5 8q0 7 -7 7q-4 0 -6 -2t-3 -5t-1.5 -6.5t-1.5 -6t-2.5 -4.5t-5.5 -2q-3 0 -4 1t-1 4t1 5.5t2.5 5.5t3.5 6t3 5t5 3.5t8 2t7.5 1.5l3.5 1
v27q0 1 -2 1.5t-3 0.5q-7 0 -11 -1.5t-6 -3.5t-2.5 -4.5t-1 -4.5t-2 -3.5t-4.5 -1.5q-2 0 -4 2t-2 4v1q1 2 2 5t3 6.5t4.5 5.5t4.5 2h24q0 11 -3 17t-6.5 10.5t-7.5 8.5t-5 11q-3 11 -4 22.5t-1.5 23t0 23.5t0.5 23q2 0 4.5 -1t3.5 -3q2 -16 1.5 -31t0.5 -29t6.5 -26.5
t19.5 -23.5h1q3 0 7 1t7.5 3t6 5t2.5 6q0 7 -2.5 13t-5.5 12t-5.5 12t-2.5 13zM66 119q0 -3 1.5 -5.5t4.5 -4.5t6 -3.5t6 -1.5q2 0 3 1.5t2 3.5t1 4v3v4t-0.5 4t-2 3.5t-2.5 1.5h-16q-1 0 -1.5 -1t-1 -3t-0.5 -3.5v-2.5zM66 63v-6q2 -4 7.5 -5.5t9.5 -1.5h1.5h0.5l3 3l2 2
v15q0 2 -1.5 3t-3.5 1.5t-4 0.5h-3q-7 0 -9.5 -3t-2.5 -9z" />
</svg>
