<?xml version="1.0" standalone="no"?>
<!DOCTYPE svg PUBLIC "-//W3C//DTD SVG 1.1//EN" "http://www.w3.org/Graphics/SVG/1.1/DTD/svg11.dtd" >
<svg xmlns="http://www.w3.org/2000/svg" xmlns:xlink="http://www.w3.org/1999/xlink" version="1.1" viewBox="-10 0 266 256">
   <path fill="currentColor"
d="M125 167q4 5 9 8t10 4.5t10.5 2.5t11.5 2t9.5 6t5.5 11.5t3 13.5t2 11q0 2 0.5 4.5t1.5 6t1.5 6t0.5 3.5q1 3 3 5q3 -2 3.5 -4.5t0.5 -5.5q0 -5 -2 -14t-5 -18t-6 -16.5t-6 -10.5q-5 -3 -12.5 -4.5t-15.5 -3.5t-13.5 -5.5t-5.5 -10.5q0 -3 1 -5t4 -3q2 0 6.5 -0.5t10 -1
t10 -1t5.5 -0.5h5t6 -1t5 -3t2 -5v-32l3 -4q1 0 3 -0.5t4.5 -0.5t5 -0.5l2.5 -0.5q1 0 2 -0.5l1 -0.5l0.5 -0.5l0.5 -0.5l-0.5 -0.5l-0.5 -0.5q0 -1 -0.5 -2l-0.5 -1h-19v-3t-0.5 -4.5t-0.5 -4.5v-3v-9q-1 -1 -2 -3t-3 -2q-1 1 -3 2.5t-2 2.5v23q0 2 -1.5 2h-4.5
q-2 0 -4 0.5t-2 2.5t2 2.5t4 0.5h4.5t1.5 2v32l-4 5h-13l-1 -5v-1.5v-3.5v-4v-3q0 -6 0.5 -12.5t0.5 -12.5q0 -7 -0.5 -13.5t-0.5 -13.5q0 -2 -0.5 -5t1.5 -5q8 -2 17.5 -2.5t16.5 -0.5q2 -1 3.5 -2t1.5 -3t-1.5 -2.5t-3.5 -0.5q-8 0 -16.5 0.5t-16.5 0.5q0 -8 0.5 -16.5
t0.5 -16.5q0 -2 -1.5 -4t-3.5 -2t-3 1t-1.5 3t0 3.5t0.5 3.5t-0.5 6t-0.5 9t-0.5 9t-0.5 6l-2 0.5t-3 1.5h-4t-6.5 0.5t-6.5 0.5h-4l-1 0.5t-1 1.5v0v1l1 1l1 1h27v82h-18l-0.5 -3.5t-1.5 -5.5v-9q0 -6 0.5 -10t1.5 -10q1 -2 2.5 -2.5t4 -0.5t4.5 -0.5t3 -2.5l-3 -4h-13v-19
l-1 -1.5l-1 -1.5h-2v0q-1 0 -1.5 0.5t-0.5 1.5v20h-15l-5 5l1 2q2 0 4.5 -0.5t6 -0.5t6 1.5t2.5 3.5v2.5v3.5v4v2q0 9 -0.5 19t-0.5 20v4.5t1 5.5zM79 234l0.5 0.5l0.5 0.5l0.5 0.5l0.5 0.5q3 0 4 -2.5t1.5 -5.5t0.5 -6v-5q0 -9 -1 -19t-1 -19v-3v-4.5v-4.5v-3t0.5 -2.5
t1.5 -2.5v0q4 0 6.5 4.5t4 11.5t2 15t1.5 15t2 11.5t3 4.5t3 -1t1 -3v-10q0 -15 -4 -29.5t-10 -28.5q-1 -1 -3 -2t-4.5 -1t-4.5 -1t-2 -2v-12q5 -1 8.5 -2t6 -2.5t3.5 -5t1 -8.5q0 -3 -1 -6.5t-3 -6.5t-5 -4.5t-7 -1.5v-12q0 -2 3 -3t6.5 -2.5t6.5 -3t3 -5.5v-16
q0 -4 -3 -5.5t-6 -2.5t-5.5 -2.5t-2.5 -4.5q0 -5 0.5 -10.5t0.5 -10.5q0 -3 -1 -3.5t-4 -0.5h-1.5t-1.5 1v25q0 3 -3 4t-6.5 2.5t-7 5t-3.5 9.5q0 7 3 10.5t6.5 5.5t6.5 3.5t3 4.5q0 6 -3.5 9t-7 5t-6.5 5t-3 9q0 7 2.5 11t9.5 7q1 0 2 0.5t1 1.5v15q-8 2 -12 7.5t-5.5 13
t-1.5 15.5t-1 14q-1 9 -2.5 17t-1.5 19q5 0 6 -2.5t3 -6.5q2 -15 3 -30t3 -30l3 -6t4 -2h4q2 19 3 39.5t0 39.5zM68 114q0 -3 0.5 -6t2.5 -6q5 -1 8 -1.5t8 -0.5h3t3 2v15q0 2 -2.5 3.5t-5.5 2t-5 0.5h-4q-4 0 -6 -2.5t-2 -6.5zM68 61q0 -5 2 -7.5t5 -3.5t6.5 -1.5t7.5 -0.5
h1q0 1 2 1.5l2 0.5q1 1 2 4.5t1 4.5l0.5 0.5t0.5 1.5q0 3 -1.5 5t-4 3.5t-5.5 2t-6 0.5q-6 0 -9.5 -2.5t-3.5 -8.5z" />
</svg>
