<?xml version="1.0" standalone="no"?>
<!DOCTYPE svg PUBLIC "-//W3C//DTD SVG 1.1//EN" "http://www.w3.org/Graphics/SVG/1.1/DTD/svg11.dtd" >
<svg xmlns="http://www.w3.org/2000/svg" xmlns:xlink="http://www.w3.org/1999/xlink" version="1.1" viewBox="-10 0 266 256">
   <path fill="currentColor"
d="M154 159q3 2 4.5 9.5t2 18t0.5 22.5v21.5t1 16.5t3 7q4 0 4.5 -4t0.5 -6q0 -18 -1.5 -35.5t-1.5 -35.5v-3v-4v-4v-1l2 -3q1 0 5 -0.5t8 -0.5t8 -0.5t5 -0.5q2 0 4.5 -1t2.5 -3v0q-1 -2 -2 -2h-31q-1 0 -1.5 -1t-0.5 -2v-2.5v-3.5v-3.5v-3.5q1 -2 3.5 -3t6 -1.5t6.5 -1.5
t5 -4q0 -9 1.5 -18t1.5 -19v-7q-1 0 -2 -1l-1 -1l-1 -1v0q-2 0 -3.5 2.5t-2.5 4.5l-3 32q0 1 -2.5 3t-3.5 3h-0.5h-1.5q-2 0 -3 -1.5t-2 -2.5l-4 -50l-1 -0.5l-1 -0.5q-4 0 -4.5 3t-0.5 6v2v2q1 3 1 8.5t0.5 11.5t1 11.5t0.5 7.5q2 3 0.5 4t-3.5 1q-6 0 -8.5 -3.5t-3.5 -8.5
t-1 -10t-1 -8q0 -1 -1 -3.5t-1.5 -4.5l-1 -4t-1.5 -2h-3v12t1 14.5t3.5 14t6.5 9.5h3t4 0.5t3.5 0.5h2.5q1 1 2 1.5l1 0.5v15q0 1 -2 2l-1 1t-2 1l-28 2l-6 4h-0.5h-0.5q0 1 0.5 1h0.5l0.5 1l0.5 1h6q6 0 11 -1t11 -1h5zM78 144l5 94l0.5 1t1.5 2h1h1q0 -1 1 -2t2 -1v-8
q0 -16 -2 -31.5t-2 -31.5v-3t0.5 -4.5t0.5 -4.5v-3q0 -3 0.5 -5.5t3.5 -2.5t5 5.5t3 14t2 19t1.5 19t1.5 14t3 5.5t4 -2.5t2 -4.5v-1l-0.5 -2l-0.5 -2q-2 -15 -3.5 -28.5t-4.5 -27.5l-0.5 -1.5t-0.5 -3t-0.5 -3l-0.5 -1.5q-2 -4 -4.5 -5.5l-5 -3t-4.5 -3.5t-2 -6t2.5 -5.5
t5.5 -3.5t5.5 -6t2.5 -12q0 -7 -3.5 -11t-8.5 -6q-1 0 -2 -0.5t-1 -1.5v-10q0 -2 2.5 -3t6.5 -2.5t6.5 -4.5t2.5 -8q0 -6 -0.5 -9t-2.5 -4.5t-4.5 -3t-6.5 -4.5q-2 -1 -2 -4v-6t-0.5 -5.5t-3.5 -2.5t-4 2.5t-1.5 5.5t-0.5 6t-1 4q-1 3 -3 5l-3.5 3.5t-3 4t-1.5 6.5q0 7 2 10
t9 5v17q0 3 -2 4t-4.5 3t-5 5t-2.5 8q0 6 2.5 9t5.5 4.5t5.5 3t2.5 5.5q0 3 -0.5 5.5t-1.5 6.5q-10 4 -13.5 13t-4.5 19.5t-0.5 22t-0.5 19.5v3t-1 4t-1.5 4t-0.5 3v1q0 4 4 4q5 0 6.5 -5.5t1.5 -13.5q0 -9 -0.5 -19t0 -19.5t3 -17t7.5 -10.5zM72 101q0 -8 9 -8h4.5h5t4 1.5
t1.5 4.5q0 1 -0.5 3t-1.5 4t-2 3.5t-2 1.5h-13q-1 0 -2.5 -1t-2 -3t-0.5 -3.5v-2.5zM170 26q0 6 0.5 10.5t2 8t4 6.5t6.5 6q1 2 2.5 3.5l3.5 3.5t4.5 3t4.5 1q1 0 3 -2.5t2 -3.5q0 -2 -3 -4.5t-7 -5t-8 -4.5t-6 -4q-1 -3 -1 -7v-7t-0.5 -7.5t-4.5 -5.5q-2 2 -2.5 4.5
t-0.5 4.5zM115 64q0 2 2 2.5t3 0.5q6 0 10.5 -4.5t7.5 -10.5t4 -12.5t1 -10.5q0 -1 0.5 -3.5t0 -5t-1.5 -4.5t-2 -2h-2l-1 2q-1 2 -1.5 4.5t-0.5 5.5v5.5t-1 5.5t-3.5 7t-5 7.5t-5.5 6.5t-5 6v0zM75 50v-2t0.5 -3.5t1 -2.5t1.5 -1h13q1 0 2 2l1 2q1 1 1.5 3l0.5 2q-1 5 -4 7
t-8 2t-7 -2.5t-2 -6.5z" />
</svg>
