<?xml version="1.0" standalone="no"?>
<!DOCTYPE svg PUBLIC "-//W3C//DTD SVG 1.1//EN" "http://www.w3.org/Graphics/SVG/1.1/DTD/svg11.dtd" >
<svg xmlns="http://www.w3.org/2000/svg" xmlns:xlink="http://www.w3.org/1999/xlink" version="1.1" viewBox="-10 0 266 256">
   <path fill="currentColor"
d="M74 161v90q3 0 4.5 -1.5t3 -3.5t2 -4.5t0.5 -4.5v-2t-0.5 -4.5t-0.5 -4.5v-2q0 -1 -0.5 -4.5t-0.5 -8.5v-10v-8v-6v-9t0.5 -9.5t0.5 -5.5q0 -2 2 -2h3q3 0 5 2t3 4.5t2 5.5t1 5q1 2 1.5 6l1 8t1 7.5l0.5 3.5v6.5v9.5v10.5v6.5q0 1 1 1h2q2 0 3 -0.5t2 -2.5v-14v-21
q0 -12 -2.5 -21.5t-8.5 -17.5t-17 -12l-1 -1v-2q0 -3 4 -5t9 -5t9 -7.5t4 -12.5q0 -6 -2 -9t-5 -5t-7 -3.5t-8 -3.5v-3v-2q0 -5 3.5 -7.5t7.5 -5t7.5 -7t3.5 -13.5q0 -5 -3 -9t-6.5 -6.5t-6.5 -3.5t-3 -2v-19q0 -3 -1 -3.5t-3 -0.5q-3 0 -4 2t-1.5 4.5t0 5t-0.5 4.5
q-1 5 -5 7t-8.5 4t-8 4.5t-3.5 9.5q0 11 3.5 16.5t7.5 8t7.5 5t3.5 6.5q0 5 -3.5 7t-8 3.5t-8.5 4.5t-4 10v2q0 1 0.5 3t1 5t0.5 5v3q1 2 3.5 3t5.5 1.5l6 1l3 0.5q2 1 2 3v4v4q-7 3 -12 6.5t-8 8t-4.5 10t-2.5 12.5q0 2 -0.5 8t-1 13.5l-1 15t-0.5 11.5v3q0 2 1 3.5t3 1.5
q5 0 6 -5q0 -1 0.5 -5t0.5 -7.5t0.5 -7.5t0.5 -5v-12.5t1.5 -17t4.5 -15t9 -6.5h1.5h1.5zM136 217q1 3 1.5 6.5t1.5 6.5t3 5.5t6 3.5h2h4h4h3h8.5t10.5 -1t9 -3.5t4 -7.5v-76q0 -2 -1.5 -3.5t-3.5 -1.5q-3 0 -4 3t-1 5q0 5 1 9.5t1 9.5q0 3 -3.5 4t-5.5 1h-15h-15
q-2 0 -2 -2v-3q0 -4 1 -8.5t1 -8.5v-2.5v-2.5l-1.5 -1l-1.5 -1q-2 0 -3.5 2t-1.5 3q-1 2 -1 6.5t-0.5 9.5t-0.5 10v6v3v4v5v4v3v4.5v4.5v3zM144 203q0 -7 1.5 -10.5t5 -4.5t8.5 -1t12 -1h5q7 0 9 7v2v4v3v2q0 6 -0.5 11t-2.5 8.5t-5.5 5t-10.5 1.5t-11 -1.5t-6.5 -5
t-3.5 -8.5t-1 -12zM118 130v1l0.5 1t0.5 2h3h4.5h4.5h3q18 0 36 -0.5t36 -2.5q4 -2 4 -5q0 -2 -0.5 -3t-3.5 -1h-5h-4h-5h-4q-1 0 -2.5 0.5t-4 0.5t-4.5 0.5t-3 0.5q-3 0 -4.5 -4t-2 -9t0 -10.5t0.5 -7.5v-3v-1l3 -2l3 -0.5t7 -1t8.5 -1t6.5 -0.5q1 0 3 -0.5t3.5 -0.5t3 -1
t1.5 -3q0 -3 -3 -3.5t-5 -0.5q-5 0 -11 1t-12 1q-2 0 -4 -0.5t-4 -1.5v-3v-2q0 -13 1 -25t1 -24q0 -3 -1.5 -5t-5.5 -2q-3 0 -4.5 1.5t-2 3.5t-0.5 4v5q0 8 1 15.5t1 15.5v18h-5t-7 0.5t-7 0.5h-5h-2h-4t-4 1t-2 3q0 3 4 5h7q6 0 11.5 -1t11.5 -1v41h-32l-6 3v1zM62 120
q0 -5 2 -8t4.5 -5t6.5 -2.5t7 -0.5q7 0 12.5 2.5t5.5 9.5q0 8 -4 11.5t-12 3.5h-7t-7 -1.5t-5.5 -3.5t-2.5 -6zM64 60q2 -9 7.5 -13t13.5 -4q6 0 9.5 5t3.5 11t-4.5 10.5t-11.5 4.5q-3 0 -6.5 -1t-6 -2.5t-4.5 -4t-1 -6.5z" />
</svg>
