<?xml version="1.0" standalone="no"?>
<!DOCTYPE svg PUBLIC "-//W3C//DTD SVG 1.1//EN" "http://www.w3.org/Graphics/SVG/1.1/DTD/svg11.dtd" >
<svg xmlns="http://www.w3.org/2000/svg" xmlns:xlink="http://www.w3.org/1999/xlink" version="1.1" viewBox="-10 0 266 256">
   <path fill="currentColor"
d="M162 181q0 3 2 10t5 14.5t6.5 15.5t8 14.5t8.5 11t8 4.5q3 0 3.5 -3.5t0.5 -4.5q0 -5 -2 -8t-5 -5.5l-6 -5t-5 -5.5l-3.5 -7t-4.5 -10.5t-3.5 -10.5t-1.5 -8q0 -6 2.5 -10t6 -6.5t7 -4t7 -4t6 -5.5t2.5 -8t-3.5 -9.5t-5.5 -8.5q-1 -4 -4 -5.5t-5.5 -3t-4.5 -4t-2 -8.5
t3.5 -8t7.5 -3.5t7 -3.5t3 -7v-1v0q0 -1 -0.5 -3t-1 -4.5t-1 -4.5t-0.5 -3v-0.5v-0.5q0 -4 2.5 -7.5t2.5 -8.5q0 -4 -1 -6t-4 -5q-2 2 -3 3.5t-1 3t-0.5 3.5t-1.5 4q-2 2 -7.5 5t-11.5 5.5t-11 5t-5 4.5v0.5v0.5l1.5 1t1.5 2h1q4 0 8 -1.5t7.5 -3t7.5 -3.5t8 -3v2
q0 10 -3 14t-8 6t-11.5 3t-14.5 3l-2 1t-4.5 1.5t-4.5 1.5t-3 1q-4 1 -7 1t-5.5 0.5t-4 2.5t-1.5 7q5 0 9.5 -1.5t9.5 -1.5q2 0 3 2t1 5t-1 6.5t-3 7.5t-4.5 7.5t-4.5 5.5q-1 1 -2.5 2t-3 1.5t-2.5 2t-1 3.5t0.5 3t2.5 1q5 0 9 -3t6.5 -7t5 -8.5t5.5 -6.5v-22l1 -1.5l1 -1.5
q2 -3 6.5 -5t7.5 -2h1q0 1 2 2l2 1v21q0 1 3 3t6.5 4.5t6.5 6t3 7.5v3.5t-1 3.5q-5 2 -10.5 5t-9.5 6.5t-6.5 8t-2.5 11.5zM79 228v4.5t0.5 5t2 4.5t3.5 2h2t1 -1v-3t0.5 -4t0.5 -4v-3q0 -22 -1 -44t-1 -44q0 -2 0.5 -4.5t3.5 -2.5t5 2t3 4.5t2 6t1 5.5q2 17 2.5 34t-0.5 35
l2 4h7q1 0 1.5 -1t0.5 -2v0v-1q0 -1 -0.5 -2t-0.5 -2.5t-0.5 -2.5l-0.5 -1v-3.5t-0.5 -4.5t-0.5 -4v-2v-19t-1 -17.5t-3 -17t-7 -17.5l-0.5 -0.5t-1.5 -0.5q-2 -1 -4 -1.5t-3.5 -1.5t-2.5 -2.5t-1 -3.5q0 -3 2.5 -5.5t5 -4.5t5 -4.5t2.5 -6.5q0 -7 -3 -10.5t-6 -6.5t-6 -5
t-3 -7v-2v-2q4 0 6.5 -2.5t4.5 -5.5t3 -6.5t1 -6.5v-4t-1 -4q-2 -3 -3.5 -3t-4.5 -1q-5 -3 -7 -6.5t-2.5 -6.5t-0.5 -5.5t-3 -2.5h-1l-2 1.5t-2 2.5v10q0 2 -2.5 3.5t-5.5 4t-5.5 6.5t-2.5 9q0 8 1 10.5t4 3.5t6.5 1t7.5 3v3v2q0 4 -1.5 5.5t-3.5 2.5l-4 2t-4 2.5t-3.5 4.5
t-1.5 10q0 1 0.5 4t0.5 4q1 2 4.5 3.5l7 3t6 3.5t2.5 5q0 4 -3 6t-6.5 4.5t-7 5.5t-3.5 8q-1 10 -1.5 19.5t-1 18.5t-1 17.5t-0.5 18.5v10q1 2 2 2h2h2.5t1.5 -2v-7t0.5 -11t0.5 -13t0.5 -13t0.5 -11v-7q0 -9 1.5 -15.5t6.5 -14.5h1h2t1 2l2 14v76zM66 97q0 -6 5 -9.5
t10 -3.5q6 0 9 3t3 8v3q0 1 -0.5 2.5t-1.5 3t-3 1.5h-15q-3 0 -5 -2.5t-2 -5.5zM112 65q0 2 0.5 2.5t1.5 0.5t7 -0.5t13 -1.5t12.5 -2.5t5.5 -4.5q0 -2 -2 -2.5t-4 -0.5h-6t-11.5 1t-11.5 3t-5 5zM65 50q-1 -6 2 -10.5t9 -4.5t10 1.5t4 8.5q0 2 -0.5 5t-2.5 4h-8h-3h-5
t-4 -1t-2 -3zM159 43q2 2 3.5 3t3.5 1h1t2 -1q5 -1 10.5 -3t10.5 -4.5t8.5 -7t3.5 -10.5q0 -3 -1 -6t-4 -3q-2 0 -3 1t-1.5 3l-1 4t-0.5 3q-3 4 -7.5 6.5t-9.5 4.5t-9 4t-6 5zM144 32h-8.5t-10.5 1t-8.5 3t-3.5 8q2 0 8 -0.5t13 -1t12.5 -2t5.5 -4.5t-3 -3.5t-5 -0.5z" />
</svg>
