<?xml version="1.0" standalone="no"?>
<!DOCTYPE svg PUBLIC "-//W3C//DTD SVG 1.1//EN" "http://www.w3.org/Graphics/SVG/1.1/DTD/svg11.dtd" >
<svg xmlns="http://www.w3.org/2000/svg" xmlns:xlink="http://www.w3.org/1999/xlink" version="1.1" viewBox="-10 0 266 256">
   <path fill="currentColor"
d="M78 246l1.5 1.5t1.5 0.5q3 0 4 -1.5t1 -3.5v-4.5v-4.5q0 -8 -1.5 -15.5t-1.5 -15.5v-5t0.5 -8.5t0.5 -8.5t1 -6l0.5 -0.5l0.5 -0.5q1 -1 2 -1.5l1 -0.5q2 1 3 2.5t2.5 3.5t2 4t1.5 4v4t0.5 6.5t0.5 6v4.5v4v7v6.5v4.5q1 2 2 2h2q2 0 4 -1.5t2 -3.5q0 -13 -1.5 -27
t-5.5 -27q-2 -3 -5 -4.5t-6 -2.5t-5.5 -3t-2.5 -5q0 -5 3.5 -7l7 -4t7 -5t3.5 -11t-3.5 -12.5t-7 -7t-7 -5.5t-3.5 -8q0 -2 3 -5t6.5 -6t6.5 -7t3 -10q0 -4 -1.5 -7.5t-4 -7t-5.5 -6.5t-6 -5v-22l-0.5 -1t-1.5 -1t-2 -1l-1 -1h-0.5h-0.5h-0.5h-0.5l-0.5 1l-0.5 1q0 2 -0.5 5
t-1 6.5l-1 7t-1.5 5.5q-1 4 -4.5 5t-7 3t-6.5 6t-3 12q0 9 3.5 13.5t7.5 6.5t7 4t3 6q0 6 -3 8.5t-7 5t-7.5 6t-3.5 11.5q0 9 4 12t8.5 5t8.5 4t4 9v2v1q-3 2 -6.5 4l-7 4t-5.5 5.5t-2 7.5q0 3 -0.5 8.5t-0.5 12.5t-0.5 12.5t-0.5 8.5v4.5v4.5q2 0 5 -0.5t5 -2.5v-13v-7
t0.5 -10.5t0.5 -10.5v-7q1 -3 2.5 -6t5.5 -3v0q1 1 2 2.5t2 1.5q-1 17 0.5 33.5t0.5 33.5zM117 209v1q0 2 2 2.5t3.5 0.5h3.5h2h2t3.5 -0.5t3.5 -0.5h2q3 0 7.5 -0.5t10.5 -1t12.5 -0.5t12.5 -0.5t11 -1t7 -0.5q1 0 1.5 -0.5l0.5 -0.5v-0.5v-0.5v-1v0q-1 -1 -2 -2.5l-1 -1.5
h-34l-0.5 -1t-0.5 -3t-0.5 -4t-0.5 -4v-18v-19q2 -2 6 -2h8q5 0 8 -1t3 -3q0 -3 -3.5 -4t-4.5 -1q-4 0 -7 1t-7 1l-2 -0.5t-2 -1.5v-36q2 0 5.5 -0.5t6.5 -1.5t5.5 -3t2.5 -6h-13q-8 0 -17 0.5t-15.5 2t-6.5 3.5q0 1 0.5 2l0.5 1h19q3 0 3.5 1.5t0.5 3.5v2.5v1.5l-1 2.5
l-1 2.5v24l-3 3h-21q-1 0 -3 2t-2 3v1l0.5 1t1.5 1h25q1 0 1.5 0.5l0.5 0.5q2 7 2 14v14v4v5v6v4q-2 3 -7.5 4t-12.5 1t-12 0.5t-5 3.5zM62 131q0 -6 3.5 -11t10.5 -5q2 0 6 1t7.5 3t5.5 5.5t1 7.5t-3 6t-5 3t-6 1.5t-5 0.5q-3 0 -5.5 -1t-4.5 -2.5t-3.5 -3.5t-1.5 -5z
M157 45q1 0 4 4.5t7 11t8.5 14.5t9 14.5t8.5 11t6 4.5q3 0 4 -1.5t1 -5.5l-0.5 -1.5t-1.5 -1.5l-1 -1.5t-2.5 -3l-2.5 -2.5l-2 -2t-4 -5.5t-6.5 -10.5t-8 -13t-8.5 -13t-6.5 -9.5t-3.5 -3.5q-2 0 -4 1.5t-4 4t-3.5 5t-2.5 3.5l-1.5 3t-4 6.5t-4.5 7t-3 5.5q0 1 -4 6l-8 10
t-7 9.5t-3 6.5v2.5t1 1.5q4 -1 8.5 -6t9 -11.5t9.5 -13.5t9 -13t7 -10t4 -4zM62 69q0 -4 2 -7t4.5 -5.5t6 -3.5t6.5 -1h2q4 3 7.5 7t3.5 10t-5 10.5t-10 4.5q-7 0 -12 -3.5t-5 -11.5z" />
</svg>
