<?xml version="1.0" standalone="no"?>
<!DOCTYPE svg PUBLIC "-//W3C//DTD SVG 1.1//EN" "http://www.w3.org/Graphics/SVG/1.1/DTD/svg11.dtd" >
<svg xmlns="http://www.w3.org/2000/svg" xmlns:xlink="http://www.w3.org/1999/xlink" version="1.1" viewBox="-10 0 266 256">
   <path fill="currentColor"
d="M145 248l2 1h1q3 0 3.5 -2.5t0.5 -4.5v-6q0 -2 -0.5 -7.5t-1 -11.5t-1 -11.5t-1.5 -7.5v-45q0 -24 1 -47t1 -47v-2v-4t-0.5 -4t-2.5 -2h-30l-2 2l5 10q-3 35 -5 70.5t-2 70.5v4v6q0 3 0.5 5.5t0.5 3.5l0.5 0.5t0.5 1.5h1h1q0 -1 0.5 -1.5t1.5 -0.5q2 -8 1 -16t0 -17
l0.5 -2.5t0.5 -5t0.5 -4.5t0.5 -3v-6.5t0.5 -11.5t0.5 -12v-9v-2v-5v-4v-3q1 -6 1 -15t0.5 -17.5t1 -15l0.5 -6.5l4 -10h1h2h5t4 3v43.5v44.5q0 23 0.5 45.5t1.5 43.5v3t0.5 4t0.5 4v3zM182 205q0 8 1 14t3.5 11t6 9.5t8.5 9.5q1 0 2 0.5l1 0.5q2 0 3 -1.5t1 -4.5
q0 -2 -1.5 -4.5t-4 -5t-4.5 -5t-3 -3.5q-4 -5 -5 -13t-1 -14q0 -9 1.5 -18.5t4.5 -17.5q1 -4 3 -8t2 -8q0 -7 -3 -11t-6 -7t-6 -5t-3 -4v-30q0 -1 1 -1.5t2.5 -0.5h2.5h1q4 0 6 2.5t2 6v7.5t-0.5 7.5t0 6t3.5 2.5q2 0 3.5 -2t1.5 -4q0 -5 -1 -10.5t-1 -10.5q0 -11 1.5 -21
t1.5 -20v-7l-1 -0.5t-2 -0.5q0 -1 -1 -1v0q-1 0 -1 1l-0.5 0.5l-0.5 0.5q-1 4 -1 10t-1 11.5t-3.5 9t-8.5 3.5q-2 0 -3.5 -1.5t-1.5 -3.5l-3 -41q-1 -3 -3 -5.5t-6 -2.5q0 12 3 24t3 24q0 4 -2.5 5.5t-5 1.5t-4.5 1t-2 4q4 0 7.5 0.5t5 2t2 4.5t0.5 8q0 10 -2.5 19t-5.5 18
t-5.5 18t-2.5 19v69l1 0.5t2 0.5q3 0 4 -2t1 -5v-6v-4q0 -8 -1.5 -16t-1.5 -17v-8t1 -11.5t2 -13.5t3 -13t4 -10t4 -6q1 0 3.5 1.5t4.5 3t3.5 3t1.5 3.5q0 8 -1.5 15.5t-3.5 15.5t-3.5 15.5t-1.5 15.5zM72 246l1.5 1.5t2.5 0.5q1 0 2 -1.5t1.5 -3.5t0.5 -3.5v-2.5
q0 -15 -1 -29t-1 -29v-6t0.5 -9t0.5 -9v-6t1 -2h2q2 0 4.5 1t3.5 3q2 14 2.5 29.5t0.5 29.5v1l-0.5 2.5t-0.5 5.5t-0.5 5.5l-0.5 2.5v1v1q1 3 2 5t4 2h1q2 -4 1.5 -10t-0.5 -10q0 -9 0.5 -17.5t0 -17.5t-1.5 -18t-3 -17q-2 -3 -5 -4t-6 -1t-5 -0.5t-2 -1.5v-6q0 -7 3 -10
t6.5 -6t6.5 -7.5t3 -13.5q0 -6 -3 -8t-6 -3.5l-6 -3t-3 -6.5q0 -6 3 -8t7 -3.5t7 -4.5t3 -11q0 -7 -2 -10.5t-4.5 -5.5t-5 -3.5t-3.5 -3.5q0 -1 -0.5 -2.5t-1 -4t-2 -4t-2.5 -1.5q-2 0 -3.5 2t-2 4.5l-1 5t-1.5 3.5q-2 4 -4.5 5t-5 2.5t-4 4.5t-1.5 10q0 5 2.5 8t6 5.5
t6 5.5t2.5 9q0 4 -1.5 5t-4 1.5t-5 0.5t-4.5 2t-3.5 6.5t-1.5 13.5q0 6 3 8t7 3.5t7 4t3 7.5q0 6 -2 8t-5 3t-6 2.5t-5 5.5q-1 3 -2 7.5t-1.5 9.5t-1 9.5t-0.5 7.5v10.5v16v16.5v10h3h4l0.5 -1l0.5 -1v-5v-5q0 -7 -1 -14t-1 -14v-5t0.5 -9.5l1 -11t2 -10.5t3.5 -8t6 -3v0
l2 2t1 2v21q0 5 0.5 15t0.5 21.5t0.5 21.5t0.5 14zM61 103v-3.5t1 -4.5t2 -3.5t3 -1.5h16q2 0 3 1.5t1.5 3t0.5 3.5v3q0 4 -2.5 7t-5.5 5q-1 0 -3.5 0.5l-2.5 0.5q-6 0 -9.5 -2t-3.5 -9zM66 45q0 -2 1 -4t3 -3t5 -1.5t5 -0.5q4 0 6 3.5t2 7.5q0 5 -4 8.5t-8 3.5
q-6 0 -8 -4.5t-2 -9.5z" />
</svg>
