<?xml version="1.0" standalone="no"?>
<!DOCTYPE svg PUBLIC "-//W3C//DTD SVG 1.1//EN" "http://www.w3.org/Graphics/SVG/1.1/DTD/svg11.dtd" >
<svg xmlns="http://www.w3.org/2000/svg" xmlns:xlink="http://www.w3.org/1999/xlink" version="1.1" viewBox="-10 0 266 256">
   <path fill="currentColor"
d="M163 173q1 2 2.5 6.5t3 9.5t3 9.5t2.5 6.5q0 3 2 10t4.5 15t4.5 14t4 6t2.5 -3t0.5 -4q0 -6 -1.5 -12t-3.5 -12t-4.5 -12t-4.5 -11q0 -2 -1.5 -5.5t-3 -8t-3 -8.5t-1.5 -5v-1q0 -3 1.5 -5.5l3 -5l3 -5t2.5 -4.5q1 -1 1 -4.5v-4.5q0 -9 -2.5 -14t-7.5 -6.5t-11.5 -2
t-14.5 -0.5h-4t-3.5 0.5t-3 1.5t-1.5 2v1q1 0 3 1l2 1h32q1 0 2 2t1 4.5v5.5v3v5.5t-1.5 5t-2.5 5t-3 3.5q-7 -6 -14 -9t-16 -3q-2 0 -4.5 1t-2.5 3v0v0q0 1 0.5 1.5t1.5 0.5h7t8 1.5t7.5 3.5t5.5 5v1v1q-2 3 -8.5 6.5l-13 7t-11.5 6l-5 2.5q0 1 2 1.5t4 0.5q5 0 9 -2
t8 -4.5l8 -5t9 -2.5h1.5h1.5zM73 242q0 1 0.5 1.5t1.5 0.5h1q1 0 1.5 -1t1.5 -2.5t1.5 -2.5t0.5 -2v-6t0.5 -10t0.5 -10v-7v-16q0 -8 -0.5 -16t-0.5 -17q0 -3 0.5 -4.5t3.5 -1.5q4 0 6 5t3 11.5t0.5 12.5t0.5 8v3v4t0.5 4t0.5 3v5v8v8.5v5.5q1 1 1.5 1h1.5h2q1 -4 2 -9.5
t1 -10.5q0 -6 -0.5 -14t-1 -17t-2 -17t-4.5 -13q-1 -1 -3.5 -2.5l-5 -3t-4.5 -2t-2 -1.5v-10q0 -1 1 -2q6 -1 9.5 -2.5t5 -3.5t2 -5.5t0.5 -8.5v-4.5v-3.5q-1 -1 -3.5 -3t-5.5 -3.5t-5.5 -2.5t-2.5 -2v-10q5 -2 7.5 -3.5t4 -4t2 -5.5t0.5 -8t-1 -11t-7 -9q-1 -1 -2.5 -1h-2
t-1 -0.5l-1.5 -1.5q-2 -2 -1.5 -6t0 -7t-1.5 -5.5t-6 -2.5v23l-2.5 2t-6 4t-6.5 4t-3 3t-0.5 3.5l-0.5 2.5q0 2 0.5 4l0.5 2q0 5 3.5 8t7 5t7 3l3.5 1v12l-3 1t-7 2.5t-7 2.5t-4 3q0 1 -0.5 2.5t-1 3.5t-0.5 3.5v2.5v1q0 7 3.5 9t8 3.5t8 4t3.5 8.5v3v2q-1 2 -3 2.5t-5 1
t-6 2t-4 3.5q-3 3 -4 8t-1 9.5v9.5v8q0 1 -0.5 6t-1 10.5t-1 10.5t-0.5 6v5v5q0 2 1 2h2h2t1 -2l6 -72q0 -3 3.5 -4.5t6.5 -1.5q1 0 3 0.5t1 2.5v6v7.5v7.5v6q0 14 -1 29t-1 29v5zM113 151v2t1 2q3 0 4.5 -3.5t2 -9t1 -11.5t1 -11t1.5 -9t4 -5q11 -4 22 -4.5t22 -0.5h3h4h4
h3q3 2 4 4t1.5 4.5t0.5 5.5v6v5.5t0.5 9t0.5 8.5v5q1 2 1.5 2h2.5q1 0 2 -1t0 -4l0.5 -2t0.5 -4v-4v-3v-10.5t-0.5 -12.5t-3.5 -10.5t-10 -4.5h-19q-6 0 -14 0.5t-15 2t-13 5.5t-9 12q-1 2 -1 7t-0.5 10.5t-1 10.5t-0.5 6v2zM59 109q0 -4 1.5 -7t5.5 -5q5 -1 9 -1.5t9 -0.5
q6 0 6.5 2t0.5 9q0 1 -0.5 5.5t-2.5 6.5h-2t-4.5 0.5t-4 0.5h-2.5h-1q-2 0 -4.5 -0.5t-5 -2t-4 -3t-1.5 -4.5zM120 82l1 1t1 2h1q3 0 3 -3q0 -7 -1.5 -13.5t-1.5 -13.5v0q1 -2 1.5 -4l0.5 -2l13 -5l5 5q0 1 0.5 3t1 4.5t1 4.5t0.5 3t1 4l2 6t2 5.5t2 2.5q2 0 2 -2v-3
q0 -7 -2 -13.5t-2 -13.5v-2.5v-3.5q1 -1 3 -2t4 -1.5t4.5 -0.5h3.5q3 0 5 3t4 7.5t4 9.5t4 9.5t4.5 7.5t6.5 3h3t1 -3q-1 -3 -4 -7t-6.5 -8.5t-6.5 -9.5t-3 -10v-1l0.5 -1.5l0.5 -1.5l19 -3l0.5 -0.5l0.5 -0.5q1 0 1 -1q0 -3 -2 -3.5t-4 -0.5q-6 0 -10.5 2t-9.5 3
q-4 0 -9.5 0.5t-12 1t-13 1.5t-12 3.5t-8.5 6t-3 8.5v1q0 2 0.5 5.5t1.5 7.5t1.5 7.5t0.5 5.5zM61 55q0 -4 2 -6.5t4.5 -4t6 -1.5h6.5h3.5h3.5q2 1 2.5 3.5t0.5 5.5q0 8 -3 11.5t-12 3.5q-6 0 -10 -2.5t-4 -9.5z" />
</svg>
