<?xml version="1.0" standalone="no"?>
<!DOCTYPE svg PUBLIC "-//W3C//DTD SVG 1.1//EN" "http://www.w3.org/Graphics/SVG/1.1/DTD/svg11.dtd" >
<svg xmlns="http://www.w3.org/2000/svg" xmlns:xlink="http://www.w3.org/1999/xlink" version="1.1" viewBox="-10 0 266 256">
   <path fill="currentColor"
d="M69 182v1v1.5v3.5t-0.5 4l-0.5 2v11t-0.5 17.5t-0.5 17.5v11q4 0 6.5 -3.5t2.5 -7.5v-64q0 -1 2.5 -2t3.5 -1q3 0 5 3t2 5v4.5t0.5 7t0.5 7v4.5v6.5t0.5 9.5t0.5 9.5v6.5q2 0 4 -1.5t2 -4.5l-3 -57q-1 -3 -3.5 -4t-6 -1.5t-6 -1.5t-2.5 -3v-16q0 -1 2.5 -2t6 -2t6.5 -2.5
t3 -5.5v-26q0 -3 -2.5 -4t-5 -2.5t-5 -2t-2.5 -2.5v-17q0 -1 2.5 -1.5t5.5 -1t5.5 -2.5t2.5 -6v-23q0 -2 -1.5 -3t-3.5 -1.5t-3.5 -1t-2.5 -1.5q-1 0 -2 -0.5l-1 -0.5v-25l-1.5 -1.5l-1.5 -1.5h-1h-1l-1 0.5l-1 0.5q-2 14 -1 28q-11 4 -18 13v9q0 8 3 11t6 5t6 5t3 11
q0 4 -1.5 6t-4 3l-5 2t-5 3t-4 6t-1.5 11q0 10 4 14.5t13 5.5v20q0 3 -2 3.5t-4.5 1t-5 1.5t-3.5 5q-5 15 -6.5 32t-1.5 31v1q0 1 1 2t2 1q3 1 4.5 -3.5t2 -12t0.5 -16.5t1 -17t3 -13t6 -5q2 0 2.5 1.5t0.5 4.5zM153 211v1v2t0.5 3t0.5 3.5v1.5q0 1 0.5 4.5t0.5 7t0.5 7
t0.5 4.5v0h1q2 0 3 -1.5t1.5 -3.5t1 -4.5t0.5 -3.5q0 -10 -1 -19.5t-1 -19.5v-4v-5v-4v-2l1 -3q1 -1 2 -1h2h1h2t2 0.5t1 1.5v5.5t0.5 7.5t0.5 8v5q1 2 1 7.5t0.5 11t1.5 10t3 4.5q4 0 4 -2.5v-5.5q0 -11 -1.5 -22.5t-1.5 -23.5q0 -3 0.5 -4.5t1.5 -2.5t3 -1h6q3 14 5 29
t3 30h2q1 0 2 -0.5t1 -1.5v-7q0 -8 -2.5 -16t-2.5 -16q-1 -25 -2.5 -49t-0.5 -49q-1 -2 -1.5 -2h-1.5q-3 0 -3 1t-1 4v4.5t-0.5 7.5t-0.5 7.5v4.5q-1 1 -2 1h-2q-1 0 -4 -0.5t-3 -3.5v-22q0 -2 -2 -2h-3h-2v2.5t-0.5 3.5t-0.5 4v3l-0.5 0.5l-0.5 0.5h0.5h0.5v2t0.5 2.5
t0.5 2.5v2v1q0 3 -1.5 5t-4.5 2q-1 0 -3 -0.5t-2 -3.5v-34q0 -3 -3 -3h-2t-1 1v38q0 2 -3 2h-2q-2 0 -3.5 -0.5t-1.5 -3.5v-22q0 -2 -2.5 -3t-4.5 -1v30v0.5t-1 0.5l-2 0.5t-3 0.5l-2 -0.5l-2 -0.5q-2 -1 -2.5 -6t-1 -10.5t-1.5 -10t-2 -4.5t-1 1q-1 0 -1.5 0.5l-0.5 0.5v15
q0 17 1.5 34t1.5 35v1q0 2 -0.5 8t-1.5 13.5t-2 13.5t-1 8v1v2q0 2 0.5 3.5t2.5 1.5t3 -2l2 -4t1.5 -4t0.5 -3v-7.5t0.5 -11.5t1 -11.5t0.5 -7.5l1 -5h1.5h1.5h2h2t1.5 0.5t0.5 1.5t0.5 2t0.5 3v3v3q0 7 -1 14.5t-1 14.5v2v3.5t0.5 3.5t1.5 2q2 0 4 -2.5t2 -4.5v-39
q0 -7 6 -7h2.5t1.5 3q0 2 0.5 5.5t0.5 7.5v7.5v4.5t-0.5 3.5t-0.5 3.5v0zM133 132h3q2 8 2.5 19t0.5 19h-13v-36q0 -1 1 -1.5t2.5 -0.5h2.5h1zM150 130l1.5 0.5t1.5 1.5v38h-8v-38q0 -1 1.5 -1.5t3.5 -0.5zM161 166q0 -7 -1 -14.5t-1 -14.5q0 -4 0.5 -5t1.5 -2t3.5 -0.5
t5.5 0.5v39q-1 0 -4 -0.5t-4 -0.5l-0.5 -0.5t-0.5 -1.5zM178 163v-5.5t-0.5 -9t-0.5 -9v-5.5v-2q0 -2 3 -2.5t5 -0.5h2t2 1v36q0 2 -2.5 2h-2.5q-3 0 -4 -1t-2 -4zM60 125q0 -9 6 -12.5t15 -3.5q5 0 6.5 4t1.5 8q0 1 -0.5 4t-1 5.5t-2 4.5t-3.5 2h-17q-1 0 -2 -1.5
t-1.5 -3.5l-1 -4t-0.5 -3zM101 89v0l1.5 1.5l0.5 0.5h1v0h1q6 -6 11 -13t11 -12q2 -1 6.5 -6t9 -10.5t8.5 -10l4 -4.5h0.5h0.5q0 1 1 2l2.5 2.5l2.5 2.5t2 1q0 1 3.5 4t8.5 7.5t10.5 9.5t10 9t8 7l3.5 3h1l1 -1.5t2 -1.5v-1q0 -1 -4 -5t-10 -9.5t-13 -12.5t-13.5 -13
t-11 -10t-6.5 -4l-1 1t-2 1q-6 6 -11 14t-10 14q-1 2 -5 6t-8.5 9t-8 9t-5.5 5q0 1 -0.5 2t-1.5 2v1zM63 58l0.5 -1t1.5 -2q0 -1 1.5 -2.5t1.5 -2.5h2.5t3.5 -0.5t3.5 -1l1.5 -0.5h3q1 0 2.5 0.5t2.5 1.5q0 2 1 5.5t1 4.5v2q0 3 -1 6t-4 5h-3.5h-2.5q-8 0 -11.5 -3t-3.5 -12
zM165 66h-12q-2 0 -4.5 0.5t-4.5 1t-4 0.5h-2v4h39l0.5 -1l0.5 -1v-1v-1l-0.5 -0.5t-0.5 -1.5h-12z" />
</svg>
