<?xml version="1.0" standalone="no"?>
<!DOCTYPE svg PUBLIC "-//W3C//DTD SVG 1.1//EN" "http://www.w3.org/Graphics/SVG/1.1/DTD/svg11.dtd" >
<svg xmlns="http://www.w3.org/2000/svg" xmlns:xlink="http://www.w3.org/1999/xlink" version="1.1" viewBox="-10 0 266 256">
   <path fill="currentColor"
d="M72 247q0 3 1 4t4 1t3.5 -3t1.5 -6v-8.5v-11.5v-15v-14v-12.5v-8.5q0 -1 0.5 -3.5t0.5 -5.5t0.5 -5.5t0.5 -3.5q0 -2 1 -2h2q2 0 3 1.5t2 3.5q3 18 4.5 36.5t0.5 37.5q0 2 0.5 2.5t2.5 0.5q1 0 3 -0.5t2 -2.5v-52q-2 -6 -2.5 -12t-2 -11.5t-5 -9t-11.5 -4.5
q-2 -2 -2 -4.5v-5.5q0 -5 3 -7.5t6.5 -5.5t7 -7.5t3.5 -13.5q0 -3 -2 -5t-5 -3.5l-6 -3l-5 -2.5q-2 -3 -2 -5v-5q0 -4 3 -6l6 -4t6 -5.5t3 -10.5t-3 -10t-6.5 -5t-6.5 -6t-2 -13q0 -2 -1 -2h-2t-3 0.5t-2 2.5v12q0 2 -3 3.5l-7 3.5t-7.5 6t-3.5 10t3.5 9t7.5 5.5t7 5.5t3 9
q0 5 -3.5 7t-8 3.5t-8.5 4t-4 8.5q0 9 2.5 12.5t6 5t7.5 2.5t6 5q0 1 0.5 3t0.5 3q0 5 -2.5 7.5t-5.5 4t-6.5 3.5t-4.5 6q-3 6 -5 15.5t-2.5 21t-1 22t-0.5 17.5t7 7h3t2 -3q-1 -7 -0.5 -14.5t0.5 -15.5t0.5 -15.5t0.5 -13.5q0 -2 1 -6l2 -8t3 -7.5t5 -3.5q1 0 2 2.5l1 2.5
q0 7 0.5 13t0.5 11.5t0.5 11.5t0.5 12q0 11 -1 21.5t-1 21.5zM127 170v8.5t0.5 13.5t1 13.5t0.5 9.5v3.5t0.5 5t1.5 4.5t3 4q1 1 3.5 2.5t4 2.5l1.5 1h35q1 0 2 -1l2.5 -2.5t2.5 -3.5t1 -3q1 -8 1 -17v-19t0.5 -19.5t2.5 -17.5h1q3 0 4.5 1.5t3 4t3 4t4.5 1.5t4 -1t1 -4
q0 -2 -3 -5.5t-7.5 -7.5t-10 -8t-10.5 -7.5t-9 -5.5t-6 -2h-1l-1 0.5l-1 0.5v1q0 3 3.5 5.5t8 5.5t8.5 6.5t4 6.5l-1.5 0.5l-3 1t-2.5 1.5t-1 2v20l-0.5 1l-0.5 1h-1q-2 0 -5.5 -2t-6.5 -5.5t-5.5 -7t-2.5 -5.5q0 -10 0.5 -20t2.5 -20q1 0 4 -0.5t6.5 -1.5t6.5 -1.5t4 -1.5
q2 -1 4.5 -2.5t5 -4t4.5 -5t2 -5.5v-77h-3.5t-2.5 1q-1 0 -1.5 0.5l-0.5 0.5v25q0 1 -0.5 4t-0.5 6.5t-0.5 6t-0.5 3.5v19t-2.5 13.5t-8.5 8t-17 2.5q0 -24 0.5 -47.5t0.5 -47.5q-3 0 -6 0.5t-5 3.5v17q0 9 1 16.5t1 15.5v3q0 2 -0.5 5l-1 6t-0.5 5v2l-2 2h-5q-5 0 -8.5 -1
t-5.5 -3t-3 -5.5t-2 -9.5q0 -6 -0.5 -11l-1 -10t-0.5 -10v-12h-6v1.5t-0.5 3t-0.5 3.5v4l-0.5 0.5t-0.5 1.5l0.5 1t0.5 2v8.5t0.5 11t0.5 10v5.5q1 6 2.5 10.5t8.5 5.5q2 1 5 1t6.5 0.5t6.5 0.5h5v22q0 1 -1 2.5t-2 2.5q-1 0 -2 1t-3 2.5t-3.5 3l-1.5 1.5l-5.5 5.5l-7 7
l-6 6t-2.5 3.5l-4 10q-1 0 0.5 1.5t2.5 1.5v0h1q1 0 2 -0.5t1.5 -1t2.5 -2l2 -1.5q1 0 3 3t2 4zM138 216q0 -2 1 -3.5t3 -2.5q7 -1 16.5 -2.5t16.5 -1.5q3 0 3 2.5v4.5q0 6 -2 9.5t-6 5t-9 2t-10 0.5t-9 -4t-4 -10zM136 196q0 -3 2.5 -6.5t5.5 -6.5t6.5 -5t6.5 -2v0v0l20 14
l0.5 1.5l0.5 1.5v1q0 3 -3 4.5t-7.5 2.5t-9.5 1h-5h-5t-5.5 -0.5t-4.5 -2t-2 -3.5zM135 158l-0.5 -0.5t-0.5 -1.5q-1 0 -3 -1.5l-2 -1.5v-0.5v-0.5v0v-1l17 -18q1 6 1.5 11t0.5 12v7t-1 6t-3 5t-6 4q-2 -1 -2.5 -4l-1 -6t0 -5.5t0.5 -4.5zM61 110q0 -8 6 -11.5t13 -3.5
q4 0 8 2t4 7q0 6 -4 9.5t-11 3.5q-1 0 -3.5 -0.5t-5 -1.5l-5 -2t-2.5 -3zM167 87q0 4 3 4q2 0 4.5 -2t2.5 -4v-50q0 -1 -1.5 -1.5t-2.5 -0.5q-2 0 -3 1.5t-2 3.5t-1 4v3v2v1l0.5 2t0.5 4t0.5 3.5t0.5 2.5t-0.5 4.5t-0.5 8t-0.5 8.5t-0.5 5v1zM136 30h-3t-1 3v45l1 1t2 1
t2 -1l1 -1q2 -6 2 -14v-14v-19q0 -1 -1.5 -1h-2.5zM65 51l-0.5 -1l-0.5 -1q0 -3 1.5 -5t3.5 -3t4.5 -1h4.5q6 0 9 2t3 8t-3.5 8t-8.5 2h-3h-3q0 -1 -1.5 -2t-2.5 -2t-2 -2.5t-1 -2.5z" />
</svg>
