<?xml version="1.0" standalone="no"?>
<!DOCTYPE svg PUBLIC "-//W3C//DTD SVG 1.1//EN" "http://www.w3.org/Graphics/SVG/1.1/DTD/svg11.dtd" >
<svg xmlns="http://www.w3.org/2000/svg" xmlns:xlink="http://www.w3.org/1999/xlink" version="1.1" viewBox="-10 0 266 256">
   <path fill="currentColor"
d="M149 246q0 2 1 3.5t3 1.5q4 0 6 -3.5t2 -6.5v-6t-1 -6v-6q0 -4 -0.5 -8.5t-0.5 -8.5v-6v-8t0.5 -9.5t0.5 -8.5v-4v-2t0.5 -4.5t0.5 -4.5v-2q1 -3 0.5 -5t2.5 -3t4.5 2t3 8t2.5 11.5t1.5 12t0.5 9.5v5q0 2 0.5 5t0.5 6.5t0.5 6.5t0.5 4t1.5 1.5t2.5 0.5q2 0 3 -1.5t2 -3.5
v-9q0 -7 -1 -13.5t-2 -14.5q0 -7 -1 -13.5t-3.5 -11.5t-7 -8.5t-12.5 -4.5v-2v-4t0.5 -6t1.5 -5.5t3 -2.5h1q2 1 6 1t7 0.5t4 0.5l3 3v2.5t0.5 6t0.5 5.5v4t0.5 5.5t1.5 5t4 2.5q4 0 5 -2.5t1 -5.5q0 -4 -1 -7t-2 -7v-51h-7q-2 0 -2.5 4.5t-0.5 10t-1 10.5t-2 5h-19l-3 -2
l-0.5 -3.5t-0.5 -5.5v-2q0 -2 2.5 -3l5 -2t5.5 -2t3 -3q2 -6 2 -14v-13l1 -2h3.5t4.5 -0.5t4.5 -0.5h3.5q2 -1 5.5 -2.5t3.5 -3.5v-2t-2 -1l-2.5 -0.5t-3.5 -0.5q-11 0 -21.5 1.5t-21 2.5l-21 2t-21.5 1q-1 0 -1.5 1t-0.5 2q0 2 1.5 4t3.5 2l17 -3l4 1l5 28q1 3 3 3.5t4.5 1
t4.5 3t2 11.5q0 1 -3.5 1.5t-7.5 1t-7.5 0.5h-3.5q-3 0 -3.5 -2t-0.5 -5t0.5 -7t0.5 -8q0 -3 -1.5 -4t-4.5 -1q-2 0 -4 1t-2 4q0 7 1.5 13t1.5 13q0 4 -1 9.5t-2.5 10.5t-3 9.5t-1.5 9.5q0 1 0.5 2t2.5 1q1 0 2.5 -1t2.5 -2q3 -9 3.5 -15.5t2.5 -11.5t6.5 -7.5t15.5 -2.5h1
l3 2v3.5v3.5q0 7 -1.5 9.5t-4 3.5t-5.5 2t-5.5 5.5t-3.5 9.5t-3 10q0 2 -0.5 8t-1 12.5t-1 12.5t-0.5 8v4v4.5t3 2.5q2 0 3 -0.5t2 -1.5v-3t0.5 -4.5t0.5 -4.5v-3v-3v-5v-5v-4q0 -2 0.5 -8.5t2 -13t4 -11.5t6.5 -5h2.5t1.5 2v4v6v7v3q0 19 -1.5 37.5t-1.5 36.5zM73 233
q0 4 4 4q1 0 4 -0.5t3 -2.5v-72q1 0 2 -0.5t2 -0.5h2t1 1q0 2 0.5 4.5t1 5.5l1 6t0.5 4t0.5 2.5t1.5 2.5v35q0 1 1 2.5t3 1.5t3 -1t2 -3t1 -4.5v-3.5q0 -7 -1 -15t-2 -15q0 -7 -1 -12.5t-3 -9.5t-5 -8.5t-9 -9.5v-3q0 -2 3 -4l6 -4t5.5 -6t2.5 -10q0 -7 -1 -10.5t-3 -5
t-4.5 -2t-4 -2t-3 -4t-1.5 -8.5q0 -2 2.5 -4.5t6 -5.5t6 -7.5t2.5 -11.5q0 -6 -2 -9.5t-4.5 -5t-4.5 -2.5l-2 -1v-22q0 -1 -1.5 -1h-3.5h-1q-4 0 -5.5 2t-1.5 6q0 3 1 6t1 7q0 2 -3 4t-6.5 3t-6.5 3t-3 6v1q0 2 0.5 4.5t0.5 5.5t0.5 4.5t0.5 2.5q0 3 3 4.5l6 3t5.5 3
t2.5 5.5q0 5 -1.5 8t-3.5 4.5t-4.5 2.5t-4.5 3t-3.5 5t-1.5 10q0 5 1.5 8t3.5 4.5t4.5 3t4.5 2.5t3.5 2.5t1.5 4.5t-2.5 5l-5 4t-5.5 4t-4 4q-3 6 -5 13t-3 14.5t-1 15v13.5v8q0 1 2 1.5t3 0.5q2 0 2.5 -0.5t1.5 -3.5q1 -4 1.5 -7t0.5 -7v-8t1 -8q0 -2 0.5 -5.5t1.5 -8
t1.5 -8.5t0.5 -6q2 -3 5 -3q2 0 2.5 2t0.5 4q0 5 -1 11t-1 12q0 3 1 5t1 5q0 8 -1.5 16t-1.5 16zM70 117q0 -6 3 -8.5t9 -2.5t8.5 1.5t2.5 7.5q0 3 -0.5 5.5t-2 5t-3.5 4t-5 1.5q-6 0 -9 -3.5t-3 -10.5zM144 67l3 -3h20q2 0 2.5 1.5t0.5 4v4.5v3q0 7 -2.5 10t-9.5 3
q-2 0 -4 -0.5t-4.5 -1t-4 -1.5t-1.5 -3v-17zM68 58q0 -6 5 -8.5t10 -2.5q6 0 8 4t2 8q0 7 -3 9.5t-10 2.5q-5 0 -8.5 -3.5t-3.5 -9.5zM126 35l0.5 0.5t1.5 0.5h3h4q14 0 25.5 -1t26.5 -3q1 -1 3.5 -2.5t2.5 -3.5v0q0 -1 -0.5 -2l-0.5 -1q-1 0 -3 -0.5t-3 -0.5q-3 0 -6 1.5
t-7 2.5q-8 2 -19 2t-20 -1q-3 1 -5.5 2.5t-2.5 5.5z" />
</svg>
