<?xml version="1.0" standalone="no"?>
<!DOCTYPE svg PUBLIC "-//W3C//DTD SVG 1.1//EN" "http://www.w3.org/Graphics/SVG/1.1/DTD/svg11.dtd" >
<svg xmlns="http://www.w3.org/2000/svg" xmlns:xlink="http://www.w3.org/1999/xlink" version="1.1" viewBox="-10 0 266 256">
   <path fill="currentColor"
d="M73 246v3t2 2q3 0 5.5 -3.5t2.5 -6.5v-81q0 -1 1.5 -1.5t2.5 -0.5q3 0 5 2.5t2 5.5v61l0.5 0.5t1.5 0.5h1q2 0 3.5 -3t1.5 -4v-40q-3 -6 -2.5 -11t0 -9t-4 -6.5t-12.5 -4.5v-16q0 -1 3 -1.5t6.5 -2.5t6.5 -6.5t3 -13.5q0 -6 -2 -9t-5 -4.5t-5.5 -3t-2.5 -4.5q0 -5 3 -7.5
t6.5 -5t6.5 -6.5t3 -11q0 -9 -3.5 -13.5t-13.5 -6.5v-21q0 -3 -2.5 -4t-4.5 -1v28q-7 1 -11 3t-6 4.5t-2 7v11.5q0 5 2.5 7t6 3.5t6.5 3.5t3 7q0 2 -1.5 3.5t-4 3t-5.5 3t-5 4t-4 6t-2 9.5q0 4 2.5 7t5.5 5t5 3.5l2 1.5v15q0 1 -2 2l-4 2t-4 1.5t-3 0.5q-5 4 -6 9t-1 10.5
v11.5q0 5 -3 9v35q0 2 1 3t3 1q3 0 5 -4t2 -6v-58q0 -2 3 -4t5 -2h2.5t1.5 2t0.5 9t1 15t0.5 15v10v2q0 8 -1.5 16.5t-1.5 16.5zM161 176q0 17 -1.5 32t-4.5 31q0 1 -0.5 4.5l-0.5 3.5q3 0 5 -1t3.5 -3.5t2.5 -4.5t1 -5q1 -1 1.5 -5t1 -7.5t1 -6t0.5 -3.5v-8v-13v-12v-8
q0 -1 0.5 -1.5t1.5 -0.5q1 -1 3.5 -2t5.5 -2.5l6 -3t4 -1.5l0.5 -0.5l0.5 -0.5l0.5 0.5l0.5 0.5l0.5 0.5l0.5 0.5v3q0 3 0.5 5.5t0.5 4.5v4q0 12 -2 23.5t-2 23.5v2.5t3 1.5t4.5 -2t2 -5t0.5 -6v-5v-5.5t0.5 -8.5t1 -9t0.5 -5v-13v-14q1 -4 -1 -4.5t-4 -0.5q-3 0 -6 1.5
l-6 3t-6.5 3t-6.5 1.5q-1 0 -2 -0.5t-1 -1.5q0 -13 -1 -24.5t-1 -23.5v-5v-5q2 -1 3.5 -3.5t3.5 -3.5q3 -2 8.5 -2.5t11.5 -1t10 -1.5t4 -5q0 -3 -1.5 -3h-3.5q-6 0 -12 1t-12 1q-1 0 -3 -0.5l-2 -0.5l-3 -3q-1 0 -1 -1v-3v-3v-3v-4v-5v-4t1 -2v-3t0.5 -4t1.5 -3.5t2 -2.5h4
h4h4h3l2 1t3 1q2 0 3.5 -2t1.5 -3q0 -2 -1.5 -3.5t-3.5 -1.5h-59v-19q0 -1 -1.5 -1.5l-1.5 -0.5q-3 0 -4 2.5t-1 4.5v40q0 1 4 1.5t10 1t11 0.5h8l1 1v18l-1 1q-3 0 -9 0.5t-12.5 1t-12 0.5h-8.5h-2t-4 0.5l-4 1t-3 1.5v1v1q1 0 1.5 0.5l0.5 0.5h59q-2 2 -6 5.5t-9.5 7
t-11 7.5t-10.5 7.5t-8 6.5t-3 4q5 0 9.5 -3l9 -6t8.5 -5.5t9 -2.5q3 0 4.5 4t1.5 6q0 6 -4 10t-9.5 7t-12.5 5.5t-12.5 5t-9.5 5t-4 6.5q5 0 9 -1.5t8 -3.5l8 -4t8 -3q1 0 2 -1t2 -1q3 -2 5.5 -4t7.5 -2h2t1 1v26l-4 2.5t-9.5 5.5t-10.5 6t-7 3q-3 2 -7 2.5t-8 2.5
q-2 1 -2 2.5v4.5q12 0 22 -5.5t20 -12.5h4zM68 114q0 -8 4 -10.5t11 -2.5h8q3 1 3 5v6q0 6 -3 9.5t-9 3.5q-7 0 -10.5 -2t-3.5 -9zM71 61q0 -4 1.5 -7.5t5.5 -6.5h5q6 0 10.5 1.5t4.5 7.5q0 1 -0.5 3.5t-0.5 4.5t-1.5 3.5t-3.5 1.5h-18q-1 0 -2 -1t-1 -2v-3v-2zM135 50
q0 -1 0.5 -3t1 -3.5t1.5 -3t2 -1.5h23v11q0 2 -2 2.5l-4 1t-5 0.5h-3h-3q-3 0 -5 -0.5t-4 -1.5t-2 -2z" />
</svg>
