<?xml version="1.0" standalone="no"?>
<!DOCTYPE svg PUBLIC "-//W3C//DTD SVG 1.1//EN" "http://www.w3.org/Graphics/SVG/1.1/DTD/svg11.dtd" >
<svg xmlns="http://www.w3.org/2000/svg" xmlns:xlink="http://www.w3.org/1999/xlink" version="1.1" viewBox="-10 0 266 256">
   <path fill="currentColor"
d="M153 188q-1 17 0 32t1 31h3t3 -2v-8q0 -15 -0.5 -29.5t-0.5 -29.5h9q2 0 4 3.5t3.5 8t2.5 8.5t2 5l5 26l0.5 0.5l0.5 0.5q2 0 4 -1.5t2 -4.5v-1l-1 -1.5t-1 -2.5t-0.5 -3.5t-1.5 -5t-1.5 -5.5l-0.5 -3q-2 -8 -4 -14t-4.5 -9.5t-7 -6t-12.5 -2.5v-18l2 -1q2 0 5.5 -0.5
t7 -1.5t6.5 -3t3 -5v-20q-3 0 -3 2q-1 3 -1 6.5t-1.5 6.5t-3.5 4.5t-6 1.5h-5q-2 0 -4 -1v-3t-0.5 -4t-0.5 -4v-2q-1 -2 -2 -5l-1 -3h-4v24h-15q-3 0 -4 -3t-1.5 -6.5t-1.5 -6t-4 -2.5q0 2 0.5 6t1.5 8.5t3 7.5t6 3h16v20q-10 1 -15 6t-7.5 12.5t-3 16t-0.5 16.5v7q0 2 1 2
h2h1q1 -5 1 -14q0 -8 1 -17t4.5 -15.5t10.5 -6.5q4 0 5 1t2 5zM80 239q0 1 0.5 2l0.5 1h1h1l2 -1t2 -2v-8q0 -18 -1.5 -36t-1.5 -37h3h3q3 0 4.5 6t2.5 14.5t2 18t2 17.5t2 13.5t3 5.5h2t1 -3v-5v-5q0 -1 -0.5 -7t-1.5 -14t-2.5 -17t-3 -16t-3.5 -12t-4 -5h-11v-12
q0 -1 2.5 -2.5t5.5 -2.5l6 -2t3 -3q2 -4 2 -9v-9v-5v-3l-8 -7q-2 0 -4.5 -0.5t-3.5 -1.5q0 -1 -1 -5t-1 -5l-0.5 -0.5l-0.5 -0.5q-1 0 -1.5 0.5l-0.5 0.5q0 1 -0.5 2.5t-1 3.5t-1 3.5t-0.5 2.5q-4 1 -7.5 2.5t-5.5 3.5t-3 5.5t-1 8.5t2.5 9t5.5 6.5t5.5 4.5l2.5 2v13
q0 2 -2 3t-4 1.5t-4 1.5t-3 3q-3 9 -3.5 18t-0.5 18t-0.5 18t-1.5 18q0 1 -0.5 2.5t-0.5 2.5q0 3 0.5 3.5t2.5 0.5t3.5 -0.5t1.5 -2.5q0 -17 0.5 -34t1.5 -34q0 -4 1.5 -6.5t5.5 -2.5h3q1 9 1.5 19.5l1 21t0.5 20.5v19zM68 113q0 -2 0.5 -4t1.5 -3.5l2 -3t4 -1.5h15
q2 0 2.5 1t1 2.5t1 3.5l0.5 2q0 10 -3 13.5t-12 3.5h-3h-4q-4 -1 -5 -6t-1 -8zM123 76l3 31q0 2 2 5.5t3 4.5h18h10h9.5t9.5 -0.5t11 -0.5q1 -1 1 -1.5v-1.5v-2t-1 -1h-31q-1 0 -1.5 -1t-0.5 -2.5t-0.5 -3l-0.5 -1.5q0 -1 0.5 -2t1.5 -2q1 0 3.5 -0.5t5.5 -1t6 -0.5t4 -1
l3 -1q0 -1 1.5 -2l1.5 -1v-19l2.5 -0.5t4.5 -1.5q1 0 5 -0.5t5 -0.5v-1v-1q0 -2 -2 -3t-4.5 -1h-5h-2.5q-2 -1 -2.5 -2.5l-1 -3t-1 -2.5t-1.5 -2q-2 1 -2.5 2.5t0 3.5t0 3.5t-2.5 2.5h-3h-4h-5.5t-4.5 -2q-1 0 -1.5 -0.5l-0.5 -0.5v-15h1.5t3.5 -0.5t4 -0.5h3h3h6h5h4
l1.5 -0.5l3 -1t2.5 -1.5t1 -2v-1l-1 -1t-2 -1h-33l-2 -1v-3t-0.5 -4.5t-0.5 -4.5v-2v-2v-3.5t-1 -3t-2 -2.5h-1v0l-1.5 1.5l-0.5 0.5v3.5v2.5v4.5v2.5l0.5 1.5t0.5 3t0.5 2.5t0.5 2t-1.5 2.5t-3 2l-3 1t-2.5 0.5h-5.5t-8 0.5t-8 0.5h-5.5q-1 0 -1.5 1.5t-0.5 2.5h39v18h-18
q-2 0 -3 -2t-1.5 -4.5t-0.5 -4.5t-2 -2t-2.5 2t-0.5 4.5t-0.5 5t-2.5 2.5q-1 0 -4.5 0.5t-4.5 1.5l-1 2q1 2 3 2.5t4 0.5h3.5h2.5zM129 80v-3v-2q1 -2 2.5 -2.5t4 -0.5h5h3.5h2.5h1.5l1 0.5l1 0.5v38h-14q-2 0 -3 -4.5t-2 -10t-1.5 -10.5t-0.5 -6zM155 79v-3v-3l2 -1h2.5
t5.5 -0.5t5 -1.5h1q4 0 4.5 3.5t0.5 6.5q0 6 -5 8.5t-10 2.5h-4q-2 -2 -2 -6.5v-5.5zM59 60q0 9 4.5 14t14.5 5q8 0 15 -4t10 -12v0q0 -9 -4.5 -14.5t-11.5 -10.5l-1 -0.5l-1 -0.5v-23l-1.5 -1.5t-2.5 -1.5v0h-1q-1 0 -1.5 0.5l-0.5 0.5v26q0 3 -3 3.5t-6.5 2t-6.5 5
t-3 11.5zM67 61q0 -8 5 -11t11 -3q4 0 6.5 1t4.5 4l0.5 2.5l0.5 2.5q0 7 -3.5 11t-10.5 4q-5 0 -9.5 -3t-4.5 -8z" />
</svg>
