<?xml version="1.0" standalone="no"?>
<!DOCTYPE svg PUBLIC "-//W3C//DTD SVG 1.1//EN" "http://www.w3.org/Graphics/SVG/1.1/DTD/svg11.dtd" >
<svg xmlns="http://www.w3.org/2000/svg" xmlns:xlink="http://www.w3.org/1999/xlink" version="1.1" viewBox="-10 0 266 256">
   <path fill="currentColor"
d="M160 206q0 2 0.5 5.5t0.5 7t1 6.5t3 5l17 17q2 2 5 2.5t6 0.5q1 0 3 -1t2 -3v0l-22 -21q-3 -2 -4 -7t-1 -8q0 -4 1 -7t3 -6q4 -4 9 -8.5t9.5 -10t7.5 -12t3 -13.5q0 -9 -2 -18t-6.5 -16.5t-11.5 -12t-17 -4.5q-13 0 -21.5 8t-13 19.5t-5.5 24.5t-1 23v4v7v6.5v4.5
q2 3 6 3q1 0 2.5 -2t2 -4t0.5 -4v-3l-0.5 -3.5t-0.5 -7t-0.5 -7l-0.5 -3.5v-6v-3t2 -4q4 1 7 5t6 8.5t6 8t6 3.5q2 0 3.5 -0.5t1.5 -3.5t-1.5 -5t-3.5 -5q-1 -1 -4 -4.5t-7 -7t-7 -6t-4 -4t-1.5 -3t-0.5 -2.5q0 -2 0.5 -4.5t1 -4.5t2 -3.5t3.5 -1.5q5 0 9 4t7.5 9t6 10
t3.5 9q2 1 3 1h2q2 0 2.5 -1.5t0.5 -3.5q0 -3 -2.5 -7.5t-5.5 -7.5q-1 -1 -3.5 -4t-5.5 -6.5t-6 -6.5t-4 -5v-1q0 -1 2.5 -3t4.5 -2h17l1.5 0.5l1.5 0.5q9 8 11.5 18t2.5 21q0 12 -5 20t-11.5 13.5t-11.5 10.5t-5 12zM78 175v67q0 2 1.5 2h1.5q3 0 4 -1t2 -4v-12
q0 -18 -2 -35.5t-2 -35.5q0 -1 0.5 -4.5t0.5 -4.5l1 -2t2 -2h1q2 0 4 2t3 4q0 1 0.5 3.5t1 5.5t1 5.5t0.5 4.5q0 1 0.5 4t0.5 6v6v4q0 2 0.5 6.5t0.5 9.5q0 6 -0.5 10.5t-0.5 6.5q0 3 1 3.5t3 0.5q5 0 6.5 -4t1.5 -7q0 -1 -0.5 -2.5l-0.5 -1.5q0 -4 -1 -12t-2 -17t-2 -17.5
t-1 -11.5q-2 -7 -5 -10.5t-6 -5.5t-5.5 -3.5t-2.5 -3.5q0 -3 1 -5t2.5 -3t3.5 -1.5t4 -1.5q3 -2 4 -5l2 -6t1 -6.5t1 -6.5q-1 0 -2.5 -2t-3.5 -3.5l-4 -3t-3 -2.5q-2 -1 -4 -3t-2 -5q0 -4 2.5 -6t5.5 -4t5.5 -5.5t2.5 -10.5q0 -6 -2 -9.5t-4.5 -5.5t-5 -3.5t-2.5 -3.5
q-1 -2 -1 -4.5t-0.5 -4.5t-2 -4t-4.5 -2l-1.5 0.5l-1.5 0.5q1 8 -0.5 11.5t-4 5.5t-5.5 2.5t-6 2.5t-4.5 5.5t-1.5 9.5q0 9 3 12t7 4.5t7 3t3 6.5q0 3 -3 5.5t-7 4.5t-7 5t-3 9q0 8 3.5 12t7.5 6t7.5 4.5t3.5 8.5q0 4 -3.5 6.5t-7.5 4.5t-7 5t-2 10q0 2 -0.5 7t-0.5 11.5
t-0.5 13.5l-1 14t-0.5 12t-1 7v3q0 3 1.5 5t4.5 2q2 0 3 -1.5t2 -3.5q0 -20 0.5 -39.5t4.5 -38.5q1 -2 2 -2.5t2 -0.5t2 0.5t3 0.5q0 1 -0.5 4t-0.5 7v7v4t0.5 3.5t1.5 2.5zM66 103q0 -7 2.5 -11t10.5 -4q7 0 11.5 2.5t4.5 9.5t-4.5 11t-11.5 4q-5 0 -9 -4t-4 -8zM129 91
q3 0 9.5 0.5t14 0.5t14 0.5t9.5 0.5h3q5 0 9.5 -1.5t8.5 -3.5t6.5 -6t2.5 -9v-39l-2 -4l-1.5 -0.5t-3.5 -2t-4 -2t-3 -1.5q-2 0 -4.5 -1t-3.5 -1h-21h-11.5t-15 1t-13 5t-5.5 12v37q0 5 3.5 8.5t7.5 5.5zM130 82q0 -2 4 -5.5t9 -7t9.5 -6t6.5 -2.5t6.5 2t10 5t9.5 6t4 5
q0 6 -7 6h-44l-7 -2l-0.5 -0.5zM152 72v1q1 0 1.5 0.5l0.5 0.5h17l2 -1q-1 -3 -5.5 -3.5t-7.5 -0.5h-2h-2.5t-2.5 1t-1 2zM124 55q0 -2 0.5 -4.5l1 -5t1.5 -4t4 -1.5q1 0 4 2t6.5 5t6 5.5t3.5 2.5v1v0v1q-5 6 -10 9t-12 7q-3 -5 -4 -9.5t-1 -8.5zM169 54q1 -1 4 -3.5t7 -5
t7.5 -4t4.5 -1.5q4 0 5 3t1 7v2q0 1 -0.5 4t-0.5 6t-0.5 5.5t-0.5 3.5l-1 2h-1h-1q-2 -1 -6 -3.5t-8 -5.5t-7 -6t-3 -4zM132 62l3 3l2 -2v-2v-2v-4t-0.5 -4t-1.5 -3.5t-3 -1.5v16zM63 51q0 -7 5.5 -11t12.5 -4t9.5 4.5t2.5 10.5q0 5 -3.5 8.5t-8.5 3.5q-2 0 -5 -1t-6 -2.5
t-5 -4t-2 -4.5zM187 58q0 1 0.5 2t0.5 2h1h1q0 -1 1 -1.5l1 -0.5v-13l-1 -0.5l-1 -0.5h-1h-1v2.5t-0.5 3.5t-0.5 4v2zM137 34v0q0 -1 1.5 -2t1.5 -2q7 -1 11.5 -1h11.5h11t11 1q0 1 0.5 1.5t0.5 1.5t-3.5 4t-8 6t-9 5.5t-5.5 2.5q-3 0 -6.5 -1.5t-7.5 -4t-6.5 -5.5t-2.5 -6z
M151 37q0 2 1.5 2.5t4 0.5h4.5h2h3h3q1 0 1.5 -1l0.5 -1v-1v0q-2 -2 -5.5 -2h-5.5h-8l-0.5 0.5t-0.5 1.5v0z" />
</svg>
