<?xml version="1.0" standalone="no"?>
<!DOCTYPE svg PUBLIC "-//W3C//DTD SVG 1.1//EN" "http://www.w3.org/Graphics/SVG/1.1/DTD/svg11.dtd" >
<svg xmlns="http://www.w3.org/2000/svg" xmlns:xlink="http://www.w3.org/1999/xlink" version="1.1" viewBox="-10 0 266 256">
   <path fill="currentColor"
d="M195 172q0 11 -3 15.5t-7.5 6.5t-9.5 4t-10 7q-1 1 -2 2.5t-2 2.5l-2 2l-1 1v34q0 1 1.5 1h2.5q2 0 3.5 -1t2 -3t0.5 -4v-4v-8l-0.5 -1t-0.5 -2.5t-0.5 -2.5l-0.5 -1q0 -5 2.5 -8t6.5 -5t8.5 -4t8.5 -4t6.5 -4.5t2.5 -6.5v-40q0 -2 -0.5 -4.5t-1.5 -4.5t-3 -4t-4 -2
l-27 -5q-1 0 -1.5 -0.5l-0.5 -0.5v-2.5t-0.5 -3t-0.5 -3v-2.5q-1 0 -2 -0.5t-2 -0.5v-1q-2 0 -3 2t-1 4.5v5t-1 4.5q-11 1 -17 4t-9.5 8t-4.5 12t-1 17q0 2 0.5 8t2 11.5t4 9.5t6.5 4q2 0 2 -2v-2q0 -6 -2 -9.5t-5 -8.5v-3q0 -1 -0.5 -3t-0.5 -4v-2q0 -8 1.5 -14.5t5 -11
t9.5 -6.5t15 -2h3h3l2 0.5t2 1.5q10 1 15 2.5t7.5 5t3 9t0.5 16.5zM82 180q0 1 -0.5 4.5t-0.5 8t-0.5 8t-0.5 4.5v7v10.5v10.5v7q4 0 6 -1t3 -6v-3v-4.5v-4.5v-3v-3v-5v-4v-2q0 -3 -0.5 -11.5t-1 -17.5t-1 -17.5t-0.5 -11.5q1 -1 2 -1.5t2 -0.5q4 0 6 3.5t3 7.5t1.5 8.5
t0.5 6.5v43q0 1 2 1.5t3 0.5t2 -0.5t1 -1.5v-11v-7t-0.5 -11.5t-1 -14t-1.5 -13.5t-2.5 -10.5t-3.5 -5.5l-1.5 -0.5l-3 -1l-3 -1l-1.5 -0.5l-3 -2l-0.5 -2l-0.5 -2q0 -5 2.5 -7t5.5 -3t5.5 -2.5t2.5 -4.5v-15q0 -3 -2.5 -4.5t-5.5 -3t-5 -4t-2 -5.5q0 -4 1 -5t2.5 -1
t3.5 -0.5t3 -2.5q2 -1 3.5 -3.5l1.5 -2.5v-20q0 -3 -2.5 -4.5t-6 -2.5t-6 -2.5t-2.5 -4.5v-20l-0.5 -0.5l-0.5 -0.5h-1q-3 0 -4 1.5t-1 4.5q0 1 -0.5 3.5t-0.5 5.5t0.5 5.5t0.5 3.5q-4 2 -7.5 4t-6.5 4t-4.5 5.5t-1.5 8.5q0 9 6 14t14 7q1 2 1 3v3q0 3 -3 4.5t-6.5 2.5
t-7 3.5t-3.5 7.5q0 6 3 10.5t6.5 7t6.5 4l3 1.5v14q-7 1 -11 2.5t-6.5 5t-3.5 8.5t-2 11v9t-0.5 13t-0.5 13.5v9.5v0q0 2 1 2.5t2 0.5t2.5 -0.5t1.5 -1.5q1 -9 1.5 -17l1 -16t1.5 -16t4 -16q0 -1 1.5 -1.5t2.5 -0.5h1h1l3 2v4t0.5 7t0.5 7v4t0.5 2t0.5 2.5t0.5 3t0.5 2.5z
M139 163v3l0.5 2t0.5 3.5t0.5 3l0.5 1.5q0 3 2 5t4.5 3.5t4 3l1.5 1.5v12l1 0.5t2 0.5q0 1 1 1.5l1 0.5h1v0h1q1 0 1.5 -0.5t0.5 -1.5v0v-1l-1 -2t-1 -3v-1q0 -3 2.5 -6t6 -5l7 -4t6.5 -5q0 -1 0.5 -3.5l1 -5t0.5 -5v-3.5l0.5 -0.5l0.5 -0.5q0 -2 -0.5 -3.5t-2.5 -1.5
q-4 0 -4.5 4t-1.5 9t-3 9t-8 4h-1.5t-1.5 -2v-32l-0.5 -0.5t-1.5 -0.5h-1h-1l-0.5 0.5l-0.5 0.5l-2 4t-1 3v25l-0.5 1l-0.5 1h-1q-4 0 -5.5 -3.5t-2 -8t-1 -8t-2.5 -3.5v0l-1.5 4.5t-0.5 3.5zM68 105q0 -5 4.5 -8t8.5 -3q6 0 11 2.5t5 9.5q0 6 -4 8.5t-10 2.5q-5 0 -10 -3
t-5 -9zM177 108q0 2 1 4t3 2q4 0 7 -1.5t6 -4t5 -6t2 -6.5v-46q0 -7 -4.5 -10.5t-10.5 -5t-12.5 -2t-10.5 -0.5l-4 -3v-16q-3 0 -4.5 2.5t-2 5.5t-0.5 6.5t1 5.5q-1 1 -4 2t-4 1l-1 0.5t-2.5 0.5t-2.5 0.5t-2 0.5q-5 2 -7.5 6t-4 9t-1.5 10.5v10.5t0.5 11.5t2.5 12t5.5 9
t10.5 3.5q0 -4 -1.5 -6.5t-4 -5t-4 -5t-1.5 -5.5v-29q0 -5 2.5 -9t7 -6t9.5 -2.5t9 -0.5h4h4t3.5 0.5l5 1t5.5 1t4 0.5q3 0 4 2l2 4t1 4.5t1 4.5q0 6 0.5 13.5t0.5 14.5v3v1q0 1 -1 3.5t-2 4t-2 3.5l-1 2l-12 2v1v1zM158 106q1 2 2 2h2t1.5 -0.5t1.5 -2.5v-2.5t0.5 -3.5
t0.5 -4v-2q2 -4 4 -5t4 -1.5l4 -1t3.5 -2.5t2.5 -6.5t1 -11.5v-6q0 -3 -1 -5l-0.5 -0.5l-0.5 -0.5h-1v0v0q-1 0 -2 0.5t-2 0.5v16q0 1 -0.5 3t-1 3.5t-1.5 3.5t-3 2l-3 -0.5t-4 -0.5v-31l-1 -1.5t-2 -1.5h-1q-2 0 -2.5 1.5l-1 3t-0.5 2.5v2v0v1q0 6 0.5 12.5t0.5 13.5
q-4 0 -6 -3t-3.5 -7t-2 -8t-0.5 -8l-0.5 -0.5l-0.5 -0.5h-1q-1 0 -1.5 1.5t-0.5 3.5v3.5v1.5q0 5 0.5 9.5t2.5 9.5q5 2 7.5 4t4 4t2 5t-0.5 8zM68 58q0 -7 4 -10t12 -3q7 0 10 3.5t3 10.5q0 6 -4.5 9t-9.5 3q-2 0 -4.5 -1t-5 -2.5t-4 -4t-1.5 -5.5z" />
</svg>
