<?xml version="1.0" standalone="no"?>
<!DOCTYPE svg PUBLIC "-//W3C//DTD SVG 1.1//EN" "http://www.w3.org/Graphics/SVG/1.1/DTD/svg11.dtd" >
<svg xmlns="http://www.w3.org/2000/svg" xmlns:xlink="http://www.w3.org/1999/xlink" version="1.1" viewBox="-10 0 266 256">
   <path fill="currentColor"
d="M77 249l1.5 1.5t1.5 0.5q3 0 5 -3t2 -5v-18q0 -14 -1 -27.5t-1 -27.5v-3v-5v-4v-3q1 -2 2 -2h3q4 0 5.5 2.5t2.5 6.5q2 17 2 33t2 33v0v0h1v0q1 0 2 -1.5l1 -1.5q1 -5 1.5 -8.5t0.5 -6.5v-6v-7q0 -11 -1 -21.5t-1 -22.5q-2 -3 -6 -4.5t-7.5 -3.5t-6.5 -4t-3 -7
q0 -4 2 -5.5t4.5 -2.5t5.5 -2.5t5 -5.5q1 -1 1 -4t0.5 -5.5t0.5 -5.5v-4v-9q-4 -4 -8 -5.5t-11 -1.5v-6q0 -8 3 -10.5t6.5 -3t6.5 -1.5t3 -6v-18q0 -2 -2.5 -5.5t-5.5 -6.5t-6.5 -6t-4.5 -4q0 -1 -0.5 -3.5t-2.5 -2.5q0 -1 -2 -1h-2v13q-3 2 -6.5 4t-6.5 5t-5 6.5t-2 7.5
q0 5 1.5 9t3.5 9q1 1 3 2t4.5 1t4 1t1.5 2v15q0 1 -3 2t-6 3t-6 5t-3 8t1.5 10t4.5 9q1 1 3 2t4.5 2.5t4.5 2.5l2 1v13q0 1 -3 2t-6.5 3t-6.5 4.5t-4 5.5q-2 14 -2.5 28.5t-0.5 27.5q0 1 -0.5 4t0.5 6.5t2 6t4 2.5h1t1 -1t1 -3t0 -3v-10v-14v-15v-10q0 -1 0.5 -4.5t1.5 -6.5
t3 -5.5t5 -2.5h2t2 2v4.5t0.5 7t0.5 7v5.5v7.5v11.5v14v14v11.5v7.5zM175 175v3.5v5t0.5 5t0.5 3.5t0.5 6t1.5 11t2 13t2 13t2.5 10t2.5 4h1l1 -1.5t2 -1.5v-3.5v-3.5q0 -4 -0.5 -7.5t-3.5 -8.5v-32q-3 -2 -3 -5v-6v-5q3 -2 6.5 -2.5t5.5 -2.5q3 -4 3.5 -9t0.5 -11v-11
t2 -10v-34q0 -4 -2.5 -6.5t-6 -4t-7 -1.5h-6.5h-1h-6t-10 0.5t-9.5 0.5h-6.5q-5 1 -9 4t-4 9q-1 12 -1.5 22t-0.5 22v6v5t0.5 4.5t1.5 5.5t3.5 5.5t5 4.5t4.5 4t2 6q0 7 -1.5 14.5l-3 15t-2.5 15.5t-1 15q0 1 -0.5 3t1.5 3q3 -2 5 -8.5t3.5 -14.5t2.5 -17t2.5 -16.5t3 -12
t3.5 -4.5h13zM141 149v-3q13 -2 25 -2.5t25 -0.5q0 7 -0.5 12.5t-6.5 9.5h-4.5t-7.5 0.5t-7.5 0.5h-4.5h-4q-8 0 -11.5 -4.5t-3.5 -12.5zM182 119h4t3 1q1 0 2.5 0.5l1.5 0.5v13l-1.5 1t-2.5 1h-2.5t-4 0.5t-4 0.5h-2.5q-2 0 -7 0.5t-10.5 0.5h-11.5h-6v-15l1 -0.5t2.5 -0.5
t3 -0.5t2.5 -0.5q10 -1 16.5 -1.5t15.5 -0.5zM64 103q1 -3 3 -5t5.5 -3t7 -1h6.5q4 0 6 2.5t2 6.5q0 8 -3.5 11t-12.5 3q-5 0 -10 -3.5t-4 -10.5zM140 107q0 -4 1.5 -7t5.5 -5q9 -1 18.5 -2t18.5 -1h5l4 3v13q0 1 -1.5 2t-2.5 1q-2 1 -6 1.5t-8.5 0.5h-7.5h-6h-4h-4.5h-5.5
h-3q-3 -1 -3.5 -2.5t-0.5 -3.5zM134 50q0 5 0.5 8t6.5 5h2h3.5h3.5h3h3h4h3h2q2 0 6 -0.5t8.5 -1.5t9 -1.5t5.5 -1.5q3 1 4 -1.5t1 -5.5v-5.5v-4.5v-3.5t-0.5 -4.5t-2 -4t-3.5 -2h-15h-15q-8 0 -14.5 2t-10.5 7t-4 14zM67 48q0 -3 1.5 -6t3.5 -5t5 -3.5t6 -1.5t4.5 1.5
t2.5 4t1.5 5t0.5 4.5q0 7 -3.5 9t-9.5 2q-5 0 -8.5 -2t-3.5 -8zM142 43q0 -2 1 -3t4 -3q5 -1 8.5 -1t7 -0.5t6.5 -0.5h8h9q3 0 3 1.5v2.5q0 7 -3 10t-8 4.5t-11 1.5h-11q-5 0 -9.5 -2.5t-4.5 -9.5z" />
</svg>
