<?xml version="1.0" standalone="no"?>
<!DOCTYPE svg PUBLIC "-//W3C//DTD SVG 1.1//EN" "http://www.w3.org/Graphics/SVG/1.1/DTD/svg11.dtd" >
<svg xmlns="http://www.w3.org/2000/svg" xmlns:xlink="http://www.w3.org/1999/xlink" version="1.1" viewBox="-10 0 266 256">
   <path fill="currentColor"
d="M195 248l1 1l2 2v0q3 0 4.5 -1.5t1.5 -4.5t-1.5 -7.5t-3 -8.5t-3.5 -7.5t-3 -7.5q-3 -8 -5 -18t-2 -18v-2q6 -7 9.5 -14.5t3.5 -16.5q0 -11 -4 -17t-11 -8.5t-15.5 -3t-17.5 -0.5h-7l-2 2t-1 2v0q0 4 3.5 5t9 1h12t12 1t9 5t3.5 11q0 1 -0.5 5t-1 7.5t-2 6t-3.5 2
t-2.5 -2l-1 -3t-0.5 -3t-1 -2.5q-3 -4 -9.5 -5t-11.5 -1h-3.5h-5.5t-5 1t-2 3v0q0 1 0.5 2.5l0.5 1.5h26q2 0 3.5 2t2.5 4.5t1 5v4.5q0 4 -2.5 6.5t-6.5 3.5t-8.5 1.5t-8.5 1.5t-6.5 3t-2.5 6q4 0 8.5 -1l9 -2t8.5 -2.5t9 -1.5q1 0 2 0.5t1 1.5q5 15 8 30t9 30zM129 89
q-2 -2 -5 -4t-6 -2h-46q-6 0 -9 3t-3.5 7.5t-0.5 9.5t-1 9l-0.5 3.5t-0.5 4.5q-3 28 -3.5 57.5t-0.5 58.5q5 0 7 -1t3 -6q-1 -24 0.5 -48.5t2.5 -48.5v-10.5v-8v-7.5t1 -9l2 -4t3 -3q9 -1 17 -1h17h3h3.5h2.5h2l3 3v2.5t0.5 6t0.5 7v6.5q1 19 2.5 38.5t2.5 38.5v9v13.5v13.5
v9h7q1 0 1.5 -1.5t0.5 -2.5v-2v-2q0 -28 -2.5 -57t-3.5 -57v-5.5v-7.5v-7.5v-4.5zM85 203q3 0 3 3v26q0 3 1 3.5t2 0.5t2 -0.5t1 -1.5v-26q0 -1 0.5 -2.5t1.5 -2.5h1v0q1 1 2.5 1.5t2.5 1.5l6 25v0h2q3 0 3.5 -1.5t0.5 -4.5q0 -6 -1.5 -12t-4.5 -11q-1 -2 -3.5 -3.5
t-4.5 -2.5t-4 -2.5t-2 -3.5q0 -1 2.5 -2t6 -3t6 -5.5t2.5 -9.5q0 -5 -2 -7t-5 -3.5l-5 -2.5t-2 -3q0 -4 2 -6t4.5 -3.5t5 -4t2.5 -6.5q0 -8 -3 -11t-11 -5v-4v-1v-2t0.5 -2t1.5 -1h15q1 0 1 -1.5v-2.5v-0.5v-0.5l-6 -2h-36q-1 0 -1 1.5v1.5v2.5t1 1.5h17q0 6 -2.5 9t-5 5
t-4.5 4.5t-2 7.5q0 4 2 6.5t5 4.5t5 3.5t2 3.5q0 3 -2.5 4.5t-5.5 3t-5 4t-2 8.5q0 5 2 8t4.5 4.5t4.5 3t2 4.5q0 1 -2.5 3t-6 5t-6.5 8t-3 11v3q0 1 0.5 5t1.5 5q3 -1 4 -3q0 -1 0.5 -3t0.5 -5t0.5 -5t0.5 -3t0.5 -3t1.5 -3.5t2.5 -2.5t2.5 -1zM82 173q0 -3 1.5 -5.5
t3.5 -3.5h5h3t4 0.5t3 2t1 3.5q0 6 -2 8.5t-8 2.5q-3 0 -7 -1.5t-4 -6.5zM85 136q0 -11 10 -11q4 0 7 2t3 7q0 2 -1.5 3.5t-3.5 2.5t-4.5 1h-3.5h-3h-2q-2 0 -2 -2.5v-2.5zM159 98q5 1 9 1.5t7 1t6.5 0.5h7.5h7q2 0 2 -1.5v-2.5v-2t-2 -1h-4h-6h-7h-4q-1 -1 -4 -1.5t-6 -1.5
t-5.5 -3t-2.5 -5q0 -4 2 -7t6 -4q9 0 16 -0.5t11.5 -3t7 -7.5t2.5 -15q0 -6 -3 -9t-9 -3h-6.5h-9.5h-10.5h-6.5q-3 -1 -3 -4.5v-7t-1.5 -6.5t-8.5 -3v1.5v1.5q0 5 1.5 8.5t1.5 8.5q-1 3 -2.5 6.5l-3 7t-3 6.5t-1.5 7q0 1 0.5 2l0.5 1q3 -1 5.5 -4.5t4.5 -7t3.5 -6.5t2.5 -3
h38q1 0 1 2v3q0 8 -3 11.5t-8 4.5t-10.5 1t-10.5 1.5t-8 5.5t-3 14q0 4 2.5 8t6.5 5zM52 68v1.5t2 0.5h12h12h10h14.5t14.5 -0.5t10 -0.5l1 -0.5l1 -0.5q0 -1 0.5 -2t0.5 -2q0 -2 -2 -2.5t-3 -0.5q-5 0 -9.5 1t-9.5 1h-7q-2 -1 -2.5 -2t-0.5 -2q0 -3 1 -5.5t3 -4.5
q6 0 11 -1.5t8.5 -4t5.5 -7t2 -11.5q0 -1 -0.5 -3t-2.5 -2q-4 0 -5.5 3t-2.5 6.5t-2.5 7t-5.5 3.5h-2.5h-3.5h-3.5h-2.5v-26q0 -1 -1.5 -1h-1.5q-2 0 -3.5 1t-1.5 3v23l-1 0.5t-2 1.5v0q-6 0 -9 -2t-3.5 -4t-0.5 -4q0 -3 -0.5 -5t-1.5 -3.5t-4 -1.5q-4 0 -4.5 2.5t-0.5 4.5
q0 7 2 10.5t5 5t6.5 2t6.5 1.5t5 2.5t2 4.5q0 2 -0.5 5t-3.5 3h-27q-2 0 -3.5 1.5t-1.5 3.5z" />
</svg>
