<?xml version="1.0" standalone="no"?>
<!DOCTYPE svg PUBLIC "-//W3C//DTD SVG 1.1//EN" "http://www.w3.org/Graphics/SVG/1.1/DTD/svg11.dtd" >
<svg xmlns="http://www.w3.org/2000/svg" xmlns:xlink="http://www.w3.org/1999/xlink" version="1.1" viewBox="-10 0 266 256">
   <path fill="currentColor"
d="M156 247q0 2 0.5 3t2.5 1t3.5 -1t2.5 -4q1 -14 1.5 -28.5t-0.5 -28.5l4 -3h4.5h7.5h7.5h4.5q4 -1 7 -1.5t3 -4.5q0 -1 -0.5 -2.5t-3.5 -1.5h-32v-12l0.5 -0.5t1.5 -0.5q7 -4 11 -5.5t6 -4t3 -6.5t4 -12v-1q0 -2 -2 -3t-3 -1h-1l-3 3q-1 7 -1 10.5t-2 5.5t-5 2.5t-9 0.5
v-8q0 -5 0.5 -9t2 -8t5.5 -6l1 -2q3 -6 4.5 -12t1.5 -13q1 -1 2.5 -2t3.5 -1.5t3 -1.5t1 -2t-0.5 -2t-1.5 -1h-46q-3 0 -5.5 1t-2.5 4v1q1 0 4 0.5t4 0.5l0.5 1t1.5 1q0 7 1 13t3 13q1 1 2.5 1t3 1t2.5 1.5t1 1.5v28l-0.5 0.5l-0.5 0.5h-1q-4 0 -7 -2t-4 -5t-1.5 -7t-0.5 -7
q-1 -2 -2.5 -2h-2.5v5.5v7.5t1 7.5t2 5.5q3 3 6 4.5t5.5 2.5t4.5 3t2 6v3q0 1 -1 1q0 1 -0.5 1.5l-0.5 0.5h-31q-2 0 -4 2t-2 4q0 3 1 3h3q8 0 16 -0.5t16 -0.5q0 16 -1 31t-1 30zM76 142q1 0 2 0.5t1 1.5v93l0.5 0.5l0.5 0.5q1 0 2.5 -0.5t2.5 -0.5q1 -3 1.5 -5.5t1 -4
t0.5 -3.5v-5v-7t-1 -8v-57q0 -1 2 -2l2 -1l1.5 1.5t3.5 3t3 3t2 3.5q2 16 2.5 32.5t-0.5 32.5q1 1 2 1h2q3 0 4.5 -3t1.5 -5q0 -8 -0.5 -17.5t-1.5 -18.5t-3 -18t-6 -15q-1 -2 -3.5 -3.5l-5 -3t-4.5 -3.5t-2 -4t2.5 -4t6 -4.5t6.5 -7t3 -12.5v-6q-3 -3 -5.5 -5l-5 -4
t-4.5 -4.5t-2 -7.5v-1q3 -2 6.5 -5t6.5 -6t5 -6.5t2 -8.5q0 -3 -1.5 -6t-4.5 -5l-6 -4t-5 -3q-2 -2 -2.5 -5l-1 -6t-1.5 -5.5t-4 -2.5t-3 2v4q0 3 0.5 5t0.5 5t-3 4.5t-6.5 4t-7 6.5t-3.5 10q0 8 3.5 11.5t7 5l7 3t3.5 5.5q0 2 -0.5 4.5t-1.5 3.5q-2 1 -5.5 2.5t-7 3.5
t-5.5 4.5t-2 5.5q0 6 0.5 10t2.5 6.5t5.5 4.5t8.5 3q1 1 2 1.5l1 0.5v9q-11 1 -16 5t-6.5 10t-1.5 13t-1 16q0 6 -1.5 13.5t-1.5 13.5v4.5t1 4.5l2 4t4 2q1 0 2 -0.5t2 -1.5q-1 -19 1 -36t5 -35q1 -1 3 -3.5t3 -3.5h2zM120 133q0 2 0.5 3.5t3.5 1.5h1.5t0.5 -2
q3 -15 3.5 -30t1.5 -30q1 -11 2.5 -17.5t5 -10.5t10 -5t17.5 -1q13 0 20 2t10 7.5t3.5 13.5t0.5 19q0 13 -1.5 25.5t-1.5 24.5q0 2 1.5 3t3.5 1t3 -2.5t2 -5.5t1 -6v-3v-59v-1.5t-0.5 -3.5t-0.5 -3.5v-2.5q-1 -1 -2 -2.5t-2.5 -2.5t-2 -2t-0.5 -2q-6 -4 -14 -6t-15 -3l-3 -3
t-2 -4l0.5 -1t0.5 -2.5t0.5 -2.5l0.5 -1v-4q0 -2 -0.5 -3t-3.5 -1h-2t-2 1v3.5t-0.5 5t-0.5 4.5v3q-1 3 -1.5 4t-1 1h-2.5t-4 1q-13 4 -19.5 13.5t-6.5 22.5q0 2 -0.5 10.5t-1.5 18.5t-1.5 18.5t-0.5 11.5v4zM68 105q0 -3 1.5 -5.5t4 -4.5t5 -3t5.5 -1t5.5 1.5t4.5 3.5
t3.5 4.5t1.5 4.5q0 3 -1.5 5.5t-3.5 4.5t-4.5 3t-5.5 1q-5 0 -10.5 -4t-5.5 -10zM154 101v-7l0.5 -1.5t1.5 -1.5h17l0.5 1.5l0.5 1.5v3v4v4t-0.5 5t-2 4t-4.5 2q-7 0 -10 -4t-3 -11zM187 62h-40q-1 0 -1.5 1t-0.5 2v0.5v1.5h40l3 -2zM68 56q0 -8 4.5 -14t13.5 -6q4 0 8 3.5
t4 7.5q0 3 -0.5 6t-2 6t-3.5 4.5t-6 1.5h-5t-6 -1t-5 -3t-2 -5z" />
</svg>
