<?xml version="1.0" standalone="no"?>
<!DOCTYPE svg PUBLIC "-//W3C//DTD SVG 1.1//EN" "http://www.w3.org/Graphics/SVG/1.1/DTD/svg11.dtd" >
<svg xmlns="http://www.w3.org/2000/svg" xmlns:xlink="http://www.w3.org/1999/xlink" version="1.1" viewBox="-10 0 266 256">
   <path fill="currentColor"
d="M143 245q0 3 0.5 4.5t2.5 1.5q4 0 5.5 -3.5t2 -8.5t0.5 -11v-11t1 -8.5t3 -3.5h14q2 0 2.5 3.5t0.5 8.5v11t0.5 11t2 8.5t4.5 3.5q2 0 3.5 -1.5t1.5 -4.5v0q-2 -10 -2.5 -19.5t-1.5 -18.5v-1v-1q0 -2 2 -4t3.5 -4t3 -3.5t1.5 -4.5v-57q0 -1 -2 -3t-2 -3q-6 -1 -10.5 -1
h-10.5h-9t-11.5 1.5t-9.5 4.5t-4 10v26l-1 2v1.5v3.5t0.5 4t0.5 4q1 4 3.5 7.5t4.5 6.5t4 5t2 5q0 6 -0.5 11t-1.5 9.5l-2 9t-1 9.5zM78 230l2 10l1 0.5t2 0.5q4 0 4.5 -0.5t0.5 -2.5q0 -12 -1 -24t-1 -25v-11v-10t0.5 -10t1.5 -11q0 -2 1 -2h2q3 0 4.5 3.5t2.5 9t1.5 11.5
t0.5 11.5t0.5 9.5t0.5 5v32q0 2 1 2.5t3 0.5q3 0 4 -3v-21q0 -8 0.5 -16.5t0 -17t-2.5 -16.5t-6 -15q-1 -2 -3.5 -3.5t-4.5 -2.5t-3.5 -3t-1.5 -5q0 -4 3 -6.5t6.5 -5.5t7 -7t3.5 -11q0 -4 -3 -7.5t-6 -6t-5.5 -4l-2.5 -1.5v-11q0 -1 2.5 -2t5.5 -4t6 -7t3 -10q0 -5 -2 -7
t-6 -5q-2 -2 -3.5 -5.5t-3 -7.5t-2.5 -6.5t-2 -2.5q-3 0 -4.5 2.5t-2 5.5t-1 6.5t-3.5 5.5q-3 3 -5.5 4t-4.5 2.5t-3 4t-1 6.5q0 5 3 8.5t6.5 6t6.5 4l3 1.5v12l-1 0.5t-2 1.5l-8 2t-7.5 3t-5 5t-1.5 9q0 5 3.5 8t7.5 5.5t7.5 5t3.5 6.5q0 7 -2 9.5t-5 3l-6 1t-6 5.5
q-3 6 -4.5 13t-2 14.5t0 14.5t0.5 14v5v9.5v8.5v6l1.5 1.5l1.5 1.5q1 0 2 -0.5t2 -1.5t1.5 -2l0.5 -1v-57q1 -2 1 -5.5t0.5 -7.5t1.5 -7.5t3 -4.5q2 0 4.5 -1t2.5 0l1 3v83zM142 186v-3t2 -1q1 -1 5.5 -1.5l9 -1l9 -1t5.5 -0.5h2q3 0 7 1t4 5q0 5 -3 7t-6.5 3t-7.5 1.5
t-7 0.5h-5t-6 -1q-3 0 -6 -3t-3 -6zM140 165q0 -5 4.5 -7.5t10.5 -3t12 -0.5h10q1 0 3 0.5t3 0.5l1 0.5l1 0.5v16h-43q-1 0 -1.5 -2t-0.5 -4v-1zM141 146q0 -5 3 -8.5t7.5 -5t10 -1.5h9.5q2 0 5 0.5t5.5 1.5t4 3t1.5 5v3t-2 3q-7 1 -13.5 1.5t-14.5 0.5h-3t-4.5 -0.5
t-4.5 -0.5h-3l-0.5 -0.5l-0.5 -0.5v-1zM154 95q2 0 2 3.5v7.5t0.5 7.5t3.5 3.5h1q0 -1 1.5 -2l1.5 -1v-18q5 0 7 2.5t3 5.5t3 6t8 3q0 -9 -3.5 -14t-7.5 -8t-7 -5.5t-3 -7.5v-4t3 -3h20l0.5 1t1.5 1l1 1.5l1 1.5v28q0 2 1.5 4.5t4.5 2.5q2 0 3 -2t1 -4q0 -8 -1.5 -15.5
t-1.5 -15.5v-14q1 -2 1.5 -4t0.5 -5t-0.5 -5t-3.5 -2q-1 0 -2 0.5t-2 2.5q0 1 -0.5 3t-0.5 4t-0.5 3.5t-0.5 2.5t-0.5 2l-0.5 1h-24q-1 0 -1 -1.5v-1.5q0 -4 3.5 -6.5t7.5 -5.5t7.5 -8t3.5 -14q0 -5 -5 -5q-4 0 -5.5 3.5t-2 7.5t-1.5 7.5t-4 3.5h-2.5t-1.5 -2v-28
q0 -2 -2 -2h-3h-3q-1 0 -2 2v2v4v4v2v3v4v3v1q0 1 1 3.5t1 3.5q0 2 -2 2h-3q-4 0 -5.5 -3.5t-1.5 -7.5t-1 -7t-3 -3h-1q-1 0 -2 0.5t-1 1.5v4q0 4 2 10.5t4 8.5t4.5 2.5t4.5 1.5t3.5 2.5t1.5 4.5v4.5t-3 2.5h-19q-2 0 -2.5 -2.5t-0.5 -5.5t-1 -5.5t-5 -2.5q-2 0 -2.5 1
t-0.5 3q0 3 0.5 6t0.5 6q0 9 -1.5 17.5t-1.5 17.5q0 1 0.5 2.5t1.5 1.5q4 0 6 -4.5t2.5 -10t0.5 -10.5v-7h2.5t4 -0.5t4 -0.5h2.5h1.5h3.5h3.5h2.5v2t0.5 2.5t0.5 3v2.5q-1 2 -4.5 5.5t-7 7.5t-7 7.5t-3.5 6.5v2.5t2 1.5t5 -2.5t5 -5.5t4.5 -6t3.5 -5zM69 97q0 -3 2 -5.5
t4.5 -4t6 -2t6.5 -0.5q5 0 8 4.5t3 9.5q0 6 -3.5 9.5t-9.5 3.5q-3 0 -6 -1t-5.5 -3.5t-4 -5t-1.5 -5.5zM73 45q0 -6 5 -8t11 -2q4 0 7.5 3t3.5 8q0 6 -4 8.5t-8 2.5q-6 0 -10.5 -2.5t-4.5 -9.5z" />
</svg>
