<?xml version="1.0" standalone="no"?>
<!DOCTYPE svg PUBLIC "-//W3C//DTD SVG 1.1//EN" "http://www.w3.org/Graphics/SVG/1.1/DTD/svg11.dtd" >
<svg xmlns="http://www.w3.org/2000/svg" xmlns:xlink="http://www.w3.org/1999/xlink" version="1.1" viewBox="-10 0 266 256">
   <path fill="currentColor"
d="M176 188v8.5v12.5v14.5t1 13.5t3 10t5 4q5 0 5 -6t-0.5 -12.5t-1.5 -13t-2.5 -13t-1.5 -12.5v-8q0 -10 0.5 -20t2.5 -20h0.5h1.5q3 0 4.5 3.5t3 8t3.5 8t6 3.5q2 0 3.5 -2.5t1.5 -4.5q0 -3 -2.5 -7t-6 -9t-6 -10.5t-2.5 -11.5q0 -4 2 -7t4.5 -6t5 -6.5t3.5 -6.5
l-0.5 -1.5t-1.5 -2.5l-0.5 -0.5l-0.5 -0.5q-3 0 -5 2t-3.5 5t-3.5 5t-4 2t-3.5 -2t-2 -5.5t-0.5 -6.5v-5v-2v-3t1 -2.5t2 -1.5h19q2 0 2.5 -2t0.5 -3q0 -2 -1 -3t-3 -1h-1l-2.5 0.5t-5 0.5t-5 0.5l-2.5 0.5h-2h-1q-1 0 -2 -1l-1 -1v-13q0 -1 2.5 -2t6.5 -2.5t6.5 -5
t2.5 -11.5v-4t-3 -2t-3.5 2t-1 4.5t-3 4.5t-7.5 2v-1.5v-1.5q0 -1 0.5 -3.5l1 -5t0.5 -5t1 -2.5q0 -1 -0.5 -2l-1 -2t-1.5 -2t-2 -1q-1 1 -2.5 3t-2.5 4v3.5v5.5v4.5v3.5v8t-0.5 9.5t-0.5 8v3.5l-2 4h-14q-1 0 -1.5 2t-0.5 3t2 2t3 1h2l1 -0.5t2.5 -1t2.5 -0.5h2h1l1.5 3
t2.5 7.5t2.5 10t2.5 11t1.5 9.5t0.5 6v3.5v2.5q0 1 -1 4.5t-2 7.5t-2 7.5t-1 4.5q-2 7 -2 15.5v15.5zM67 239q1 2 2 3t3 1q3 0 3.5 -3t1.5 -5v-20q0 -13 -1 -26t-1 -27v-14q1 -2 1.5 -2h1.5q2 0 3 0.5t2 2.5l4 16l3 53q0 1 1 1.5l1 0.5h0.5h0.5q1 0 2 -1.5t1.5 -4t0.5 -5
v-3.5q0 -14 -1 -28.5t-4 -28.5q-1 -3 -3.5 -5.5t-5.5 -4.5t-5.5 -4.5t-2.5 -5.5v-5t2 -4q4 -2 7.5 -3.5t5.5 -4t3 -6t1 -8.5q0 -6 -3 -9t-6.5 -5.5t-6.5 -4.5t-3 -5q0 -4 3 -5.5t6.5 -2.5t6.5 -4.5t3 -10.5q0 -2 -0.5 -5t-1.5 -5l-14 -14v-13q0 -2 -1.5 -2.5t-3.5 -0.5
q-1 0 -2.5 0.5t-1.5 2.5v16q0 1 -3 2.5t-6.5 3.5t-6.5 5.5t-3 7.5t1.5 7t4.5 6t6 5.5t5 4.5v2v1q0 3 -2.5 4.5t-6 3.5t-6 5.5t-2.5 10.5q0 8 2.5 11.5t6 6t6 5t2.5 8.5q0 3 -2 5t-4.5 3.5l-5 3t-3.5 4.5q-1 1 -1.5 3t-1.5 5t-1.5 5t-0.5 3t-0.5 2t-1.5 1v60q3 0 5.5 -2
t1.5 -6q-2 -16 -1 -32t5 -31q1 -3 3.5 -6.5t6.5 -3.5q2 0 2.5 1t0.5 3q0 20 -1 39.5t-1 39.5v12zM114 159v2v1v4.5t0.5 7t0.5 7v4.5q1 8 1 14t2 10t6.5 6t13.5 2q11 0 16 -4t7 -11t1.5 -16t-0.5 -18v-13l-3 -1h-1q-1 0 -2 1t-1.5 2.5t-2 2.5t-3.5 1h-1h-2t-2 -0.5t-1 -1.5
v-18l1 -0.5l1 -0.5q1 -2 4 -3.5t5.5 -4l4.5 -4.5t2 -5v-30q0 -2 -2 -3t-3 -1t-2 0.5t-1 1.5v4.5v5.5v6v4t-0.5 4t-1 5.5t-2 4.5t-3.5 2h-2.5t-1.5 -2v-3v-4v-4v-3q0 -3 -0.5 -7t0 -8t1.5 -7t4 -6l3 -2t3 -3v-1v-3v-3.5v-1.5q0 -5 2 -6t4 -1.5t3.5 -1t1.5 -3.5q0 -2 -3 -2.5
t-7 -1t-8 -0.5h-6q-3 0 -9 -0.5t-12.5 0t-12 2t-5.5 4.5q0 1 0.5 2t1.5 1h14q1 4 3 8.5t3 7.5q1 2 3 4l3.5 3.5l3 3t1.5 4.5v34l-1.5 1t-2.5 2h-1q-3 0 -4.5 -1.5t-2.5 -4t-1.5 -5t-0.5 -3.5v-20q0 -1 -1 -1.5t-2.5 -0.5h-2.5h-1v4.5t0.5 7t0.5 7v4.5v4.5t1 6.5l2 6t3 3h13
l3 4v18l-1 0.5t-2.5 1t-3 0.5h-1.5q-2 0 -3.5 -1t-2.5 -2l-2 -2t-3 -1q-3 0 -3 4zM123 197v-1.5t2 -1.5h3.5t5.5 -0.5t5.5 -0.5h3.5h3q3 0 5 2t2 5v1l-1.5 2t-1.5 3l-1 0.5l-1 0.5h-20q-1 0 -2 -1t-1.5 -2.5t-1 -3.5t-0.5 -3zM123 183v-13h31v11l-1 2l-1.5 0.5t-3.5 0.5
t-4 0.5t-3 0.5h-2h-3h-3h-2h-4h-2zM76 88q2 0 3.5 1t3.5 2t3 3t1 4q0 6 -4 9.5t-10 3.5l-2.5 -0.5t-5.5 -1t-5 -1.5t-2 -2v-12q0 -1 2.5 -2.5t5.5 -2l6 -1t4 -0.5zM126 66v-1q1 0 2 -1.5t2 -1.5h13q1 0 1.5 1t0.5 2.5v2.5v1q0 4 -0.5 6t-3.5 2q-2 0 -4.5 -0.5t-4.5 -2
t-4 -3.5t-2 -5zM61 49q0 -6 4.5 -7.5t10.5 -1.5q3 0 6.5 2.5t3.5 5.5q0 7 -4 10t-9 3t-8.5 -3t-3.5 -9zM147 30q-2 0 -7 0.5t-10 1.5t-8.5 3t-3.5 5h17t16 -2q2 -1 3 -1t1 -2q0 -3 -3 -4t-5 -1z" />
</svg>
