<?xml version="1.0" standalone="no"?>
<!DOCTYPE svg PUBLIC "-//W3C//DTD SVG 1.1//EN" "http://www.w3.org/Graphics/SVG/1.1/DTD/svg11.dtd" >
<svg xmlns="http://www.w3.org/2000/svg" xmlns:xlink="http://www.w3.org/1999/xlink" version="1.1" viewBox="-10 0 266 256">
   <path fill="currentColor"
d="M175 195q4 0 6.5 4.5t4 10.5t3 13t2.5 13.5t3 10t5 3.5l4.5 -1.5t1.5 -3.5v-1v-1l-0.5 -1l-1 -2l-1 -2l-0.5 -1q-2 -4 -4 -9.5l-4 -11t-3.5 -11.5t-1.5 -11v-3.5v-3.5l1.5 -1.5t3.5 -3t3 -3t2 -1.5q1 -2 2 -9t2 -15.5t1.5 -15.5t0.5 -10t-2.5 -4.5t-6 -2.5t-6.5 -1h-5
l-1.5 -7.5t-0.5 -6.5v-4q0 -2 0.5 -7t0.5 -10.5t0.5 -10t0.5 -6.5q1 -3 5.5 -3h9.5t8.5 -1t2.5 -5q0 -2 -1.5 -2.5t-3.5 -0.5q-4 0 -7 1t-6 1q-2 0 -4.5 -0.5t-2.5 -4.5v-36q0 -1 -1 -1.5t-2 -0.5q-2 1 -3 3t-1.5 4.5t-0.5 5.5v2v89q-2 1 -3 2.5t-1 3.5v2t1 1q3 1 7 1t7.5 1
t5.5 3t2 7q0 2 -0.5 8t-1.5 12.5t-2.5 11t-3.5 4.5t-2.5 -2t-0.5 -6v-7t-1 -8t-4 -6t-8 -2h-3h-3l-0.5 0.5l-0.5 0.5v1v1t1 1.5t3 1t3.5 0.5t1.5 1q2 0 3 4t2 8.5t1.5 9t0.5 6.5v3v3q-1 3 -5.5 3.5t-9.5 1.5t-9.5 2t-4.5 4q0 2 3 2h3q5 0 8.5 -2t7.5 -2zM125 245
q0 1 1.5 1.5t2.5 0.5q2 0 3 -0.5t1 -3.5t-0.5 -9t0 -11.5t2 -11t4.5 -9.5q4 -5 8 -9.5t6 -9.5t3.5 -11t1.5 -12t-1.5 -11.5t-5 -9.5t-8 -6.5t-10.5 -2.5q-1 0 -4.5 0.5t-7.5 1.5t-7.5 2.5t-4.5 2.5l-7 16q-1 0 -1 4t-1 9t-1 10t-1 8v7v6l1.5 1.5l0.5 0.5h1q1 0 2.5 -2
t1.5 -3v-24q0 -1 0.5 -1.5l0.5 -0.5h1q3 0 4.5 3t2.5 6.5t2.5 6.5t3.5 3t3.5 -0.5t1.5 -3.5v-1v-1q-1 -3 -4 -6.5t-6 -8t-5 -8.5t-2 -8q0 -3 2 -5t5 -2q5 0 8 4t5.5 9.5t4.5 9.5t5 4q0 -6 -2 -10.5t-4.5 -8t-4.5 -6.5t-2 -6q0 -2 1.5 -3t3.5 -1q5 0 9 2t7 6t4.5 8.5t1.5 9.5
q0 9 -3.5 15.5t-7.5 12t-8 11.5t-7 14q-1 4 -1 10.5v11.5v4.5v4.5zM66 238q0 1 1 2.5t2 1.5t2.5 -1.5t1.5 -2.5l-1 -24v-5v-59q0 -2 0.5 -3t1.5 -1q2 0 3 0.5l3 1.5q3 17 3 35v36l3 3l1 -2l0.5 -3t0.5 -6v-7.5v-5.5v-24q0 -12 -2 -24q0 -1 -0.5 -3t-1.5 -2q-2 -3 -4 -4.5
l-4 -3t-3 -4t-1 -6.5q0 -5 2 -6.5t4.5 -2.5t5 -3t3.5 -6q2 1 3 4t3 3q1 0 1 -1l0.5 -0.5l0.5 -0.5v-17v-13t-1 -13h-1v0h-1l-0.5 1t-1.5 1q0 1 0.5 4t0.5 7q0 3 -0.5 6t-0.5 4t-0.5 2.5t-0.5 2.5v0h-1h-0.5h-0.5q-1 -2 -3.5 -4l-5 -4t-4.5 -4.5t-2 -5.5q0 -5 1.5 -7t3.5 -4
t4 -5.5t2 -10.5q0 -3 -2 -6t-4.5 -5t-4.5 -3.5t-2 -2.5v-18q0 -2 -1.5 -3t-2.5 -1t-3 0.5t-2 1.5v23q-3 2 -6 3.5t-4.5 3.5t-2 5t-0.5 7q0 6 2 8.5t5 4.5t6.5 3.5t5.5 5.5q-1 5 -4 7l-6 4t-5 4.5t-2 9.5q0 8 2.5 10.5t5.5 3.5t5.5 3.5t2.5 9.5q0 4 -2 5l-4 2t-4.5 2t-4.5 3
l-1 4t-2 9.5t-2 10t-1 5.5v2l0.5 1.5t0.5 3.5t0.5 3t0.5 2v1q0 10 -1 20.5t-1 21.5q2 0 4 -1.5t3 -3.5t1.5 -4.5t0.5 -4.5v-49q1 -1 1.5 -4t1 -6.5t1.5 -6.5t3 -3h1q1 3 1.5 6.5l1 7l1 7t0.5 4.5v67zM103 111q0 2 1 3.5t2 2.5q2 -1 3 -4t1 -4v-50q1 0 4 -2t5.5 -4t4.5 -5
t2 -5v-16q0 -2 -2 -2h-3v5t-0.5 7.5t-2.5 6.5t-5 3v0v-1q-1 0 -1.5 -1t-0.5 -2v-29l-3 -3q-2 0 -2 1t-1 3l-1 2v29q0 1 -1 1.5l-1 0.5h-1h-1q-2 -1 -2.5 -4.5t-0.5 -7.5t-1 -7.5t-3 -3.5t-2.5 2t-0.5 4q0 4 0.5 9t1.5 10q0 2 2 3l4 2t4 2.5t3 3.5v13q0 10 -1 19t-1 18z
M145 58v57q0 1 0.5 1.5t1.5 0.5v0h1v0v0q1 0 1.5 -1.5l0.5 -1.5q1 -6 1.5 -10.5t0.5 -8.5q0 -5 -0.5 -9.5t0.5 -11.5v-3t0.5 -4.5t0.5 -5v-3.5q1 -2 3 -3l4 -2t4 -2.5t3 -4.5l0.5 -1.5t1 -3.5l1 -4t0.5 -3v-2q0 -1 -1 -1.5t-2 -0.5q-3 0 -4 2.5t-1.5 6t-1.5 6t-4 2.5
q-2 0 -2.5 -3t-0.5 -5q0 -5 1 -10t1 -10q0 -3 -0.5 -4t-2.5 -1q-4 0 -4.5 4t-0.5 9.5t-0.5 11t-2.5 7.5q-2 -1 -2.5 -3.5t-0.5 -5.5t-0.5 -5.5t-2.5 -2.5l-2 1v2.5v2.5q0 7 2 12.5t7 10.5zM57 104q0 -5 3 -7.5t8 -2.5q1 0 4 1t5.5 2.5t4 3.5t1.5 5q-1 5 -6 6.5t-9 1.5h-3h-3
q-5 -4 -5 -10zM119 93v10t1 11h1h1l1 -2q0 -2 0.5 -6.5t1 -10t0.5 -10v-6.5v-7q-3 0 -4.5 2t-1.5 5v3v4v4v3zM138 69q-2 1 -3 2.5t-1 2.5v36q0 1 0.5 1.5t1.5 0.5h1h1q1 -6 1 -14v-14v-4v-3v-3.5v-2.5zM159 71v36q0 1 1 2l1 1l1 1l0.5 -0.5l0.5 -0.5l0.5 -0.5l0.5 -0.5v-40
l-1 -1zM56 58q0 -10 9 -10q5 0 7.5 1.5t2.5 7.5q0 5 -2 8t-8 3q-3 0 -6 -3t-3 -7z" />
</svg>
