<?xml version="1.0" standalone="no"?>
<!DOCTYPE svg PUBLIC "-//W3C//DTD SVG 1.1//EN" "http://www.w3.org/Graphics/SVG/1.1/DTD/svg11.dtd" >
<svg xmlns="http://www.w3.org/2000/svg" xmlns:xlink="http://www.w3.org/1999/xlink" version="1.1" viewBox="-10 0 266 256">
   <path fill="currentColor"
d="M123 246v5h6q1 0 2 -1.5t3 -3t3.5 -3.5t2.5 -3t3.5 -4.5t5 -7.5t5 -7.5t3.5 -4.5q0 -1 1 -1.5t2 -0.5q4 2 7.5 8t7 12.5t7.5 11.5t9 5q2 0 3.5 -0.5t1.5 -2.5q0 -3 -1.5 -6t-4.5 -5.5l-6 -5t-5 -5.5q-7 -9 -11.5 -20.5t-4.5 -23.5q0 -7 4 -9t9.5 -3.5t9.5 -4t4 -9.5v-38
l-1.5 -1l-3 -2t-3.5 -2t-3 -1h-32q-4 0 -7 3t-5 7t-2.5 8t-0.5 8q0 6 0.5 10.5t1.5 12.5q3 5 8.5 8t11.5 4q0 1 0.5 2.5t1 3.5t1 3.5t0.5 2.5q0 9 -3 17.5t-8 16t-11 14.5t-12 13zM75 155v9v12t-0.5 14.5t-0.5 15.5v12v8t0.5 4.5t0.5 5.5t0.5 6t0.5 4h1h1q4 0 5 -3t1 -6
q0 -15 -1 -30.5t-1 -30.5v-4v-4v-4v-2q0 -2 1 -4.5t4 -2.5q4 0 6.5 5.5t4 13.5t2 18t1 18t1 13.5t2.5 5.5t3 -1.5t1.5 -3t1 -4t0.5 -3.5q0 -6 -1.5 -11t-2.5 -12v-10q0 -6 -0.5 -11.5t-1.5 -10.5t-4 -10q-2 -4 -5 -5t-6 -1.5t-5 -2.5t-2 -7v-3v-3q2 -3 5.5 -5t7 -3.5
t5.5 -4.5t2 -8q0 -6 -2.5 -8.5t-6 -4t-6 -3.5t-2.5 -7t3 -7.5t7 -5t7 -6.5t3 -12q0 -3 -2 -5t-4 -3.5t-5 -2.5t-4 -2q-1 0 -1.5 -0.5l-0.5 -0.5v-20q0 -2 -2.5 -2.5t-3.5 -0.5h-2.5t-1.5 2v19q0 2 -2.5 3t-6 2.5t-6 4.5t-2.5 10q0 5 2.5 8.5t5.5 6.5t6 6.5t3 8.5
q-2 4 -6 5.5l-8 3t-6.5 4t-2.5 7.5q0 8 2.5 10.5t6 3.5t7 1.5t3.5 3.5l0.5 2l1 4t0.5 3.5v2.5v1q0 2 -3.5 3.5t-8 4.5t-8.5 7t-4 11q-1 5 -1.5 10.5t-1.5 10.5v6.5v9.5v9.5v6.5q0 1 -0.5 2t-0.5 2t-0.5 2.5l-0.5 1.5v2q0 2 1.5 3t3.5 1q3 0 4 -1t2 -4v-7.5v-11.5v-11.5v-7.5
v-7.5t1 -10t2.5 -10t3.5 -7.5q2 -2 5 -1.5t5 0.5zM128 215v1l0.5 0.5l0.5 0.5h0.5h0.5q3 0 4.5 -4.5t3 -10t2 -11t0.5 -7.5v-3.5t-3 -1.5q-1 0 -2 0.5l-3 1.5q0 1 -0.5 5.5l-1 9t-0.5 8.5t-1 6l-0.5 2l-0.5 2v1zM181 185q0 2 0.5 7t1.5 10.5t3.5 9.5t5.5 4l0.5 -0.5
t0.5 -1.5v-4q0 -3 -0.5 -7.5t-1 -8.5t-1.5 -8t-1 -7q-2 -1 -3 -1h-2h-1.5t-1.5 1v3.5v2.5zM140 156q0 -1 0.5 -3l1 -4t1.5 -3.5t3 -1.5h33q1 0 2.5 2.5l1.5 2.5v1q0 2 -1 4.5t-2.5 4.5t-3.5 3.5t-4 1.5h-25q-2 0 -4.5 -3t-2.5 -5zM142 137q-1 0 -1.5 -0.5t-0.5 -1.5
t0.5 -2.5t1.5 -2.5q0 -1 0.5 -5t0.5 -5q4 -2 9.5 -2h9.5h3h3h4h3q8 2 8 9q0 5 -1.5 7t-4 3t-5.5 1h-7h-12t-11 -1zM65 108q0 -3 2 -4.5t5 -2.5t5.5 -1.5t4.5 -0.5q5 -1 8 1.5t3 6.5q0 5 -2.5 9t-9.5 4q-6 0 -11 -2t-5 -10zM159 92q4 0 10 3t11.5 7t10.5 8t8 7q1 0 2 0.5
l1 0.5q2 0 4.5 -2t2.5 -3t-3.5 -3.5t-8.5 -5.5t-11 -6t-11 -6t-8.5 -6t-3.5 -5v-2v-5.5t0.5 -6t0.5 -4.5v-2l3 -4q7 0 11.5 -2t7.5 -5.5t5 -8t4 -11.5v-1q0 -3 -1 -3.5t-3 -0.5q-4 0 -5 4t-2 9t-3.5 8.5t-7.5 3.5q-4 0 -6.5 -2t-2.5 -5q0 -5 1 -9.5t1 -9.5q0 -2 -0.5 -5.5
t-4.5 -3.5q-3 0 -4.5 2t-1.5 5q0 5 1 10.5t1 10.5t-2 7t-6 2q-6 0 -8 -4t-2.5 -8.5t-1.5 -8.5t-5 -4q-2 0 -3 0.5t-1 3.5q0 8 2 13t5 7.5t7 4t7 2.5t5.5 2.5t2.5 4.5q0 4 -0.5 7.5t-1.5 9.5q-1 1 -3 3.5t-5 5t-5 5t-4 3.5l-5 2.5t-6 3.5l-6 4t-4 5l0.5 1t1.5 2v0q5 0 10 -4
t10 -8.5t10 -8.5t10 -4zM122 90v1l1 2h1q3 0 7.5 -3.5t8 -7.5t6 -8.5t2.5 -7.5l-4.5 3.5t-9 8l-8.5 8.5zM173 70q0 1 3.5 4.5t8 7.5t8.5 6.5t6 2.5q3 0 3 -1.5v-3.5t-3 -5t-7.5 -6t-9 -5t-6.5 -2h-1v0l-1 0.5t-1 1.5zM70 61q0 -6 5 -10t12 -4q4 0 6.5 3.5t2.5 7.5q0 5 -4 10
t-10 5h-1l-11 -11v-1z" />
</svg>
