<?xml version="1.0" standalone="no"?>
<!DOCTYPE svg PUBLIC "-//W3C//DTD SVG 1.1//EN" "http://www.w3.org/Graphics/SVG/1.1/DTD/svg11.dtd" >
<svg xmlns="http://www.w3.org/2000/svg" xmlns:xlink="http://www.w3.org/1999/xlink" version="1.1" viewBox="-10 0 266 256">
   <path fill="currentColor"
d="M142 248q0 2 1 2.5t3 0.5q5 0 9 -3t6 -7l14 -28q1 -2 1.5 -6.5t0.5 -7.5v-7q-2 -2 -4.5 -4t-4.5 -3.5t-3 -3.5t-1 -6q0 -3 2.5 -4.5t5.5 -1.5h28q3 1 3.5 -1t0.5 -3v-3q0 -1 -2 -2h-2.5h-3.5h-6t-6 2h-49l-10 3q-1 0 -1.5 1t-0.5 2t1 1.5t3 0.5h3h2q4 0 7.5 -0.5
t6.5 -0.5q4 0 5 1.5t2 3.5t1 4.5t1 4.5q1 3 3 5t4 4.5t3.5 5t1.5 5.5q0 8 -4 14.5t-8.5 11.5t-8.5 9.5t-4 9.5zM60 120q0 7 0.5 15.5t1.5 14.5v8t1 10t3.5 8.5t7.5 3.5h4h4.5t7 -0.5t6 -0.5h3.5q7 -1 10.5 -4.5t5 -8.5t1.5 -11v-11v-3v-4.5v-4.5v-3q-1 -2 -1 -5t-0.5 -6
t-1.5 -5.5t-5 -2.5v9v13v14v8v3t-0.5 3.5l-1 3t-0.5 2.5q-1 2 -2.5 2.5t-3.5 0.5t-3 -0.5t-2 -2.5v-4v-6v-6v-4l-0.5 -2t-0.5 -4.5t-0.5 -4.5l-0.5 -2l0.5 -2t0.5 -4t0.5 -3.5t0.5 -2.5v-3.5v-4.5v-5v-4l-1 -2l-1 -2l2.5 -2.5t2.5 -1.5t3 -0.5t4.5 -0.5t5 -0.5l2.5 -0.5
q2 0 2.5 -0.5t0.5 -2.5v-1.5t-1 -1.5h-20v-34l0.5 -0.5l0.5 -0.5q2 0 4.5 1.5t4.5 3.5l4 4t3 4h1v0q3 -1 4.5 -2t1.5 -3q0 -4 -3 -6.5t-6.5 -5t-7.5 -4.5t-6 -4t-2 -6t0.5 -8t-1 -7t-6.5 -3q-1 0 -2 1.5t-2 2.5v3.5v5.5v4.5v3.5t-0.5 2.5t-0.5 2.5q-3 3 -7.5 5t-9.5 3.5
t-8.5 4.5t-3.5 8v3.5t2 2.5q4 0 7.5 -2.5t6 -6t5.5 -6t7 -2.5h2t2 1v34l-29 3q-2 1 -3 2.5t-1 3.5t1.5 2.5t2.5 0.5q6 0 11.5 -1.5t11.5 -1.5q1 0 3 1t3 2v8t0.5 12.5t0.5 12.5v9v12v14q-1 2 -2 2h-2q-5 0 -7.5 -4t-3 -10.5t0 -14t0.5 -14t-1.5 -10.5t-5.5 -4q-2 0 -3.5 2.5
t-1.5 4.5zM129 154q0 3 1.5 3.5t2.5 0.5q3 0 4 -0.5t4 -3.5q4 -4 7.5 -7t5 -6.5t2 -8t0.5 -11.5q1 -2 3 -2.5t4 -0.5t3 2.5t1 5.5v7v7.5t1.5 6t5.5 3.5q1 0 3 0.5t4.5 1l5 1l2.5 0.5q3 -1 3.5 -2t0.5 -3l-0.5 -2t-1.5 -2h-16v-23q0 -2 1.5 -2.5t3 -1.5t3 -1.5t1.5 -2.5
t-1 -2.5t-3 -0.5q-9 0 -18 1.5t-18 1.5h-8q-3 -2 -3 -6v-6t1 -8.5t3 -8t6 -3.5q2 0 3 2t1.5 4l1 4l0.5 2q2 2 4.5 3t6 1h6.5h5h7l1.5 -1t1.5 -2q1 -2 -1 -3t-4.5 -1h-6t-6.5 -0.5t-5 -2t-2 -4.5v-3q0 -1 2 -2q6 0 12 -0.5t12 -0.5q0 -1 -0.5 -2.5l-0.5 -1.5q0 -1 -0.5 -2
t-1.5 -1h-24q-1 0 -1 -1.5v-2.5v-1.5t1 -1.5h29q2 0 3 5.5t1.5 14t0.5 18.5v18.5t0.5 14t1.5 5.5t2.5 -1t2.5 -2.5t1.5 -2.5l0.5 -1v-13v-13q0 -2 -0.5 -7.5t-1 -12t-0.5 -12t-1 -7.5q0 -4 -1.5 -7t-5.5 -5h-7.5t-9 -0.5t-9.5 -0.5h-8q-3 -1 -3 -2v-3v-2v-8t1 -7.5t3 -5.5
t7 -2h2.5t0.5 3l0.5 2l1 4l1 4t0.5 3l3 3h18q3 0 3.5 -1.5t0.5 -3.5t-2 -3t-4 -1.5t-4.5 0t-4.5 0.5l-2.5 -2.5l-1.5 -1.5v-0.5v-0.5q0 -5 3 -7t7 -2t7.5 -0.5t3.5 -4.5q0 -2 -1 -4h-2h-2h-2h-1q-1 0 -3.5 0.5t-5.5 1.5t-5.5 1.5t-3.5 0.5q-9 2 -14.5 4t-8 5t-3 9t0.5 17
l-0.5 1t-1.5 2v0q-4 0 -5.5 -3t-1.5 -6v-23q-1 -1 -2.5 -3.5t-3.5 -2.5l-1 0.5t-2 1.5v4v5v14.5t3 13.5q1 3 4 3.5t5.5 1.5t4.5 2.5t2 4.5t-1 4.5t-3 2t-4 1.5t-3 2q-3 2 -4 4t-2 6q-1 0 -1.5 1.5t-0.5 2.5q0 13 -0.5 25.5t-0.5 25.5q3 0 4.5 -2t2.5 -5t1 -6t1 -5l1 -2h13
l0.5 3t0.5 5l0.5 0.5l0.5 0.5q0 5 -3.5 8.5t-7 6l-7 5t-3.5 4.5z" />
</svg>
