<?xml version="1.0" standalone="no"?>
<!DOCTYPE svg PUBLIC "-//W3C//DTD SVG 1.1//EN" "http://www.w3.org/Graphics/SVG/1.1/DTD/svg11.dtd" >
<svg xmlns="http://www.w3.org/2000/svg" xmlns:xlink="http://www.w3.org/1999/xlink" version="1.1" viewBox="-10 0 266 256">
   <path fill="currentColor"
d="M182 246q1 3 2.5 4t2.5 1q4 0 6 -4t2 -8l-9 -87q-1 -4 -1 -8v-9v-11q3 -4 4 -9.5t1 -10.5q0 -6 -4 -9q-7 -1 -14.5 -3t-15.5 -2h-5.5t-6.5 0.5t-5 2t-2 4.5h9.5t8.5 0.5t8.5 1t10.5 1.5q3 1 5 2.5t2 5.5q0 1 -1 3t-3 2q-7 0 -14.5 -3t-14.5 -3q-1 0 -3 0.5l-4 1t-3.5 1.5
t-1.5 3v0.5v1.5l29 2q2 1 4 3t2 3v1l-2 2l-35 5l-0.5 0.5t-0.5 1.5v0v1q2 2 4.5 2h4.5q8 0 15 -1.5t15 -1.5v0q2 1 3 9t2 17.5t1.5 18t0.5 11.5t0.5 8.5t1 11.5t1 11t0.5 7v19zM84 211q0 10 2.5 15t7.5 7.5t11.5 3t14.5 0.5q9 0 16 -1t12 -4t7.5 -8.5t2.5 -14.5q0 -6 -6 -6
q-4 0 -4 4q0 3 -0.5 7.5t-3.5 8.5t-12 4v0q-1 0 -1.5 -0.5t-0.5 -1.5v-26q0 -3 2.5 -3.5t4.5 -0.5t6 -0.5t8.5 -0.5t9 -0.5t6.5 -0.5q1 -1 1.5 -2t0.5 -2q0 -2 -1 -3t-2.5 -1h-2.5h-4t-4 0.5t-4 0.5q-5 0 -10 -0.5t-11 -0.5v-25q5 0 9.5 2.5t9 5.5t9 5.5t9.5 2.5h1
q1 0 3.5 -1.5t2.5 -3.5q0 -1 -4 -4t-9.5 -5t-10.5 -4t-6 -3q-2 -1 -5.5 -2t-6 -2l-2.5 -1l-4 -9h-1h-1q-3 0 -4 1t-1 2.5v3.5t-1 3q-2 2 -6 4t-9.5 4t-12 4.5t-11.5 4.5t-8.5 4.5t-3.5 5.5q0 1 1 2t3 1v-0.5t1 -0.5t3 -0.5l2 -0.5l36 -18h0.5h1.5t3 0.5t2 2.5l-1 23
q0 2 -3.5 2h-9h-11.5t-11.5 0.5t-9 2t-3.5 4.5q0 2 0.5 3t3.5 1q4 0 9.5 -0.5t11 -1.5t10.5 -2t9 -1q5 0 5 5v0v2v3t-0.5 3.5l-0.5 1.5q0 2 0.5 5t0 6t-2 5t-4.5 2q-4 0 -9 -0.5t-9 -3.5v-5t-0.5 -6t-2 -5t-4.5 -2t-3.5 1t-0.5 4zM76 132q0 5 1.5 7.5t3.5 4t5.5 2t7.5 0.5
q5 0 10 -1t8.5 -3.5t5.5 -6.5t2 -11q0 -4 -1 -5.5t-3.5 -2.5t-5 -0.5t-4.5 0t-3.5 -1.5t-1.5 -4t4 -3.5t8.5 -0.5t8.5 -0.5t4 -3.5q0 -2 -1 -2.5t-2 -0.5q-5 0 -9.5 0.5t-9.5 0.5q-2 0 -3.5 -1t-1.5 -3q0 -3 4.5 -4t9.5 -3t9 -6t4 -14v-5.5t-0.5 -7t-2 -6.5t-4.5 -4h-4.5
t-7 -0.5t-6 -2t-2.5 -5.5q0 -1 0.5 -2t2.5 -2h4t5.5 -0.5t5 -0.5h3.5h2.5h2.5t2 -0.5t1 -2.5q0 -1 -1.5 -2t-3.5 -1.5t-4 -0.5h-3h-12q-3 -1 -3.5 -4t-0.5 -5.5t-1 -5t-6 -2.5v17l-26 4q-2 1 -2.5 2.5t-0.5 2.5q0 2 1.5 3t3.5 1q6 0 11 -2.5t11 -2.5q2 0 1.5 2.5t-0.5 3.5v4
q-2 2 -5.5 2.5t-6.5 1.5t-6 2.5t-4 4.5q0 2 -1 4t-1.5 4t-1 3.5l-0.5 1.5v2.5v3.5q0 7 1.5 10.5t5 6t8.5 3.5t11 1q2 0 2 1v2t-1.5 2.5t-4 2t-4.5 0.5h-3h-19l-3 2v7q3 0 7.5 -0.5l9 -1t8.5 -1.5t7 -1q2 0 1.5 2t-0.5 3v4q-2 1 -5.5 2t-5.5 2.5t-3.5 4t-1.5 6.5zM87 131
q0 -3 2 -5t5 -2.5t6 -0.5h6q6 0 6 6q0 4 -3 6.5t-7 2.5h-5t-5 -0.5t-3.5 -2t-1.5 -4.5zM77 79q0 -4 4.5 -5.5t8.5 -1.5h2t2 2v11q0 2 -2.5 2.5t-3.5 0.5q-4 0 -7.5 -2t-3.5 -7zM112 69q2 0 4 0.5t2 3.5t-1.5 5t-4 3.5t-5.5 2.5t-5 1v-11q0 -2 1.5 -2.5l3 -1l3 -1t2.5 -0.5z
M144 73v3v2l4 3h3t7 0.5t8 0.5h6h8h6t6 -1v-2v-2q0 -3 -1 -4t-4 -1q-6 0 -11.5 1t-11.5 1h-10q-1 -1 -2.5 -1.5t-1.5 -2.5q0 -3 2.5 -5t7 -3t9.5 -1.5t9 -1.5t6.5 -2.5t2.5 -5.5v-15q0 -2 -2 -3.5t-4.5 -2t-4.5 -0.5h-3q-6 0 -11.5 1.5t-10.5 1.5h-5q-2 0 -2.5 -2t-0.5 -5
v-4t-3 -2t-3 4q0 3 1 6.5t1 7.5q0 3 -1 5.5t-2.5 5t-2.5 5t-1 5.5q5 0 7 -2t2.5 -5l1 -6t3.5 -4q1 -1 4.5 -2t7.5 -1.5t7 -0.5h5l0.5 0.5l0.5 0.5q3 0 5.5 1t2.5 5q0 2 -1.5 3.5t-3.5 2.5l-4 2t-3 1t-3.5 0.5t-5.5 1t-5 1t-3 0.5q-4 2 -5 7t-1 9zM77 62q0 -3 1.5 -4.5
t3.5 -2t4.5 -1t4.5 -0.5t3 2t1 5v0l-2.5 2.5l-1.5 1.5h-12q-2 0 -2 -1.5v-1.5zM101 58q0 -3 2 -5t5 -2t5.5 2.5t2.5 6.5v1.5t-1 1.5h-13q-1 0 -1 -2v-3z" />
</svg>
