<?xml version="1.0" standalone="no"?>
<!DOCTYPE svg PUBLIC "-//W3C//DTD SVG 1.1//EN" "http://www.w3.org/Graphics/SVG/1.1/DTD/svg11.dtd" >
<svg xmlns="http://www.w3.org/2000/svg" xmlns:xlink="http://www.w3.org/1999/xlink" version="1.1" viewBox="-10 0 266 256">
   <path fill="currentColor"
d="M82 206q0 7 2 14t5 13t8.5 9.5t12.5 3.5h2t5 0.5t5 0.5h5q12 0 21.5 -2t16.5 -6.5t10.5 -13t3.5 -22.5q0 -3 -1 -7t-5 -4q-3 0 -4.5 3t-2 7.5t-1.5 10t-3 10t-6 7.5t-11 3h-1h-2.5t-2.5 -0.5t-1 -1.5v-44q0 -2 3 -2.5t7.5 -1t9.5 -0.5t9.5 -1t7.5 -2.5t3 -4.5
q0 -2 -1 -3.5t-3 -1.5h-1q-2 1 -6 1.5t-7.5 1t-6.5 1t-4 0.5t-3.5 0.5l-2.5 0.5q-4 0 -5.5 -4t-2 -9.5t-0.5 -9.5v-6v-5t2 -3q3 0 6.5 1.5t8 3t8.5 3.5t7 4q1 1 4 3t6.5 4t6 4t3.5 2q3 2 4.5 4t4.5 2q4 0 4.5 -1.5t0.5 -4.5q0 -5 -4 -8.5t-10.5 -6.5t-14.5 -5.5t-15 -5.5
t-13 -6t-8 -6v-7q0 -4 -0.5 -9t-2.5 -8.5t-5 -3.5q-1 0 -2.5 0.5t-1.5 1.5q0 11 -1 17.5t-4.5 11t-8 7t-10 4.5t-11.5 4.5t-13 6.5l-1.5 1t-2.5 2t-2 2.5t-2 1.5l-2 1l-4 2l-4 2l-2 1v3q0 4 1.5 4h4.5q6 0 13.5 -5t16 -11t16 -11t13.5 -5h1.5t1.5 2v34q0 2 -4 3t-9.5 1.5
t-11.5 0.5t-11.5 0.5t-9.5 2t-4 4.5q0 5 4 5q11 0 21 -2t20 -2h2h3v2.5t0.5 3.5t0.5 3.5v2.5v2v3v5.5t-0.5 8t-0.5 8v5.5q-2 4 -4 4.5t-5 0.5q-6 0 -10 -3t-6 -7.5t-3 -10.5t-2 -11q-3 -2 -4.5 -2.5t-3.5 -0.5q-3 0 -3.5 1.5t-0.5 3.5zM68 126v3t2 2q3 0 5 -1.5t3.5 -4.5
t2 -6t0.5 -5v-2.5t0.5 -5.5t0.5 -5.5v-3.5q1 0 3 -2l2.5 -2.5t2.5 -1.5t2 0l7 6q0 2 0.5 5t1 6.5t0.5 6.5t1 4q0 3 2 5t4 2t2.5 -1.5t0.5 -3.5q0 -7 -2.5 -13t-2.5 -13q0 -3 1 -5.5t2.5 -5t2.5 -5.5t2 -5q2 -8 3 -18t1 -18q0 -14 -8 -20.5t-21 -6.5q-4 0 -8.5 0.5t-8.5 2.5
t-7.5 5t-4.5 7v11q0 8 0.5 16.5t1.5 15.5q0 4 2 7.5t3.5 7l3 7t1.5 6.5q0 7 -2 14t-2 15zM138 55q0 3 -0.5 7t0 7.5l1 7t2.5 6.5q1 1 3 2.5l4 3t3 3t1 4.5v27l0.5 0.5l1.5 1.5h1q3 0 4.5 -5.5t1.5 -12v-11.5t2 -5h10l0.5 1t0.5 2q1 3 1.5 6.5t1 7.5t0.5 7.5t1 5.5q0 3 2 3.5
t4 0.5q4 0 4.5 -2.5t0.5 -6.5q0 -7 -2.5 -14t-2.5 -14q0 -3 1 -5t2.5 -4l3 -4t2.5 -5q0 -2 0.5 -6.5t1 -10t0.5 -10v-6.5v-4q0 -7 -3.5 -11t-8 -6t-10.5 -2.5t-10 -0.5q-9 0 -13.5 4t-7.5 10t-3.5 13.5t-0.5 14.5zM74 73q0 -2 3.5 -4t8 -3t9 -1.5t5.5 -0.5q3 0 4 2t1 4
t-0.5 3.5t-1.5 3.5l-2 4t-2 2h-18q-3 0 -5 -3.5t-2 -6.5zM149 72v-3q0 -1 2 -2q6 -1 10 -1.5t10 -0.5h8q2 1 2 3v3q0 3 -2 5t-4 3.5t-5 2.5t-6 1q-7 0 -11 -2t-4 -9zM149 52v-4q0 -3 2 -5q6 -1 10 -1h10h5h5q1 1 2 2.5t1 2.5q0 3 -0.5 5t-2.5 3q-7 1 -13 2.5t-13 1.5
q-4 0 -5 -1t-1 -6zM71 52q0 -3 4 -5t9 -3t9.5 -1.5t6.5 -0.5q4 0 4.5 1.5t0.5 4.5v3v3q-4 3 -10 3h-11h-4.5h-5.5q-2 -1 -2.5 -2t-0.5 -3zM73 32q0 -4 2.5 -6t6.5 -3t7.5 -1.5t5.5 -0.5q4 0 6.5 3t2.5 6t-3.5 4.5t-8 2t-9 0.5h-6.5q-4 0 -4 -5zM152 31q0 -3 1.5 -4.5t4 -2.5
t5 -1h4.5h3.5t5 1t4.5 2t2 4v2t-1 1h-27l-1 -0.5l-1 -0.5v-1z" />
</svg>
