<?xml version="1.0" standalone="no"?>
<!DOCTYPE svg PUBLIC "-//W3C//DTD SVG 1.1//EN" "http://www.w3.org/Graphics/SVG/1.1/DTD/svg11.dtd" >
<svg xmlns="http://www.w3.org/2000/svg" xmlns:xlink="http://www.w3.org/1999/xlink" version="1.1" viewBox="-10 0 266 256">
   <path fill="currentColor"
d="M193 207q2 2 2 9.5t1 15t2.5 13t5.5 5.5q2 0 2.5 -1l1 -2t0 -2.5t-0.5 -2.5q0 -5 -0.5 -9.5t-0.5 -8.5q-1 -3 -1.5 -11t-1.5 -16.5t-2 -16.5t-2 -11v-145q0 -2 -4 -3.5t-10.5 -2t-14 -1.5t-14.5 -1h-12h-7q-15 0 -28.5 1.5t-27.5 1.5q-3 0 -7 0.5t-8 0.5t-7 0.5l-3 0.5
l-2 1v1.5t-0.5 3.5t-0.5 4.5v3.5q-1 18 -1 36t-1 36v6.5v12.5t-0.5 15t-0.5 15v12.5v6.5v32v32q-1 3 0.5 3.5t3.5 0.5t3 -0.5t2 -3.5q-1 -51 0.5 -102t2.5 -102q1 -2 2 -3.5t3 -1.5t5.5 1.5t7 4t6 5.5t1.5 5t-3 3.5t-4 2.5l-4 2t-2 4v1t1 1l1.5 2t1.5 3q1 3 1.5 5.5t1.5 4
t3 2.5t6 2q1 0 4.5 -0.5t6.5 -0.5h6h4q0 1 0.5 3.5t0.5 3.5q0 2 -5.5 2.5t-12 1.5t-11.5 2.5t-5 5.5v16q0 2 3.5 3.5t8.5 2.5t9.5 1.5t6.5 0.5q3 0 6 -1t5.5 -3t4 -4.5t1.5 -5.5t-1.5 -5t-4 -2.5t-5 -0.5h-4.5h-3h-4t-4 0.5l-2 0.5q-1 2 -1.5 4l-0.5 2h16q1 0 1.5 1.5
t0.5 2.5t-0.5 1.5l-1.5 1.5h-6q-6 0 -10 -2.5t-4 -9.5q0 -2 0.5 -4.5t3.5 -2.5h21q2 0 3.5 -1.5t2.5 -3.5t1.5 -4t0.5 -4v-3t-1 -3q-2 -4 -8 -4.5l-12 -1t-10.5 -1t-4.5 -5.5q0 -2 1 -4.5t3.5 -4.5t5 -3.5t4.5 -1.5q1 0 3 1t4 2.5t4 2.5t3 2l1.5 0.5l1.5 0.5q1 0 2.5 -2
l1.5 -2q1 -2 -0.5 -3t-3.5 -2t-3.5 -2.5t-1.5 -4.5q0 -1 1.5 -3.5t3.5 -5l4 -5t4 -3.5q2 0 5 1l3 1v3q1 1 3 2l4 2l4 2t2 2q2 1 3 2t1 3t-2 3.5t-4 3.5t-4 3.5t-2 5.5q4 0 7 -1.5t5 -3.5l3.5 -3.5t5.5 -1.5q2 0 4 1l4 2l4 2t5 1h3t2 -2t-2 -3t-4.5 -2t-5 -3t-2.5 -5
q0 -1 2 -3t4 -4.5t4.5 -4t4.5 -1.5q3 0 4.5 2t3 4.5t2 5t0.5 4.5v5q0 3 -2 6v73q0 1 1 4t1 4v5v10v9v5v3.5t0.5 5t0.5 5v2.5q0 2 0.5 5.5t0.5 8.5q0 4 -0.5 7.5t-0.5 5.5zM82 242q0 2 2 3.5t4 1.5q6 0 11 -4t9.5 -10l9 -12t8.5 -10h0.5h1.5t1.5 0.5l1.5 1.5q0 1 1.5 2.5
t2.5 3.5l2 4t2 2q1 -1 2.5 1.5t3.5 6t5 7t7 3.5t7 -1t3 -5v-2.5t-1 -1t-1.5 -1.5t-2.5 -2q-4 -4 -7.5 -8t-6 -8.5t-5.5 -8.5t-7 -8v-20q0 -3 -1.5 -3h-2.5q-5 0 -6.5 3t-2 7t-0.5 8v6.5t-3.5 6.5t-7.5 8.5t-9.5 9.5t-10 9t-7.5 6.5t-3 3.5zM78 219q0 3 2 3h4q5 0 9 -2
t6.5 -6t4 -8.5t1.5 -9.5q0 -1 -0.5 -4t-0.5 -4q0 -2 -1 -2h-2q-3 0 -3 1.5t-1 5.5q-1 0 -1.5 2t-1.5 4.5t-1.5 4.5t-0.5 3q-1 1 -2.5 3t-4 3t-4.5 2.5t-3 1.5v1.5v0.5zM150 191q0 3 1.5 8t3.5 10t5.5 8.5t6.5 3.5q2 0 4 -2.5t2 -4.5t-2 -6t-5.5 -8.5t-6.5 -8t-5 -3.5t-3 0.5
t-1 2.5zM73 188l1.5 1l1.5 1q5 0 9.5 -3t9 -6.5t8 -7t8.5 -5.5q2 -2 4.5 -2.5t4.5 -1t4 -1.5t5 -3t4.5 -3.5t2 -2.5t0.5 -2.5v-3.5q0 -11 -7 -16t-17 -5q-3 0 -10 2t-14 5.5t-12.5 8t-5.5 8.5q0 2 2 3t4 1v0v0q2 -1 5.5 -3t5.5 -2v0l10 13v0.5v1.5q0 5 -3.5 7.5t-7.5 4.5
l-8 4t-5 7zM148 158q0 3 1 7t3.5 7t5.5 5.5t7 2.5q3 0 6.5 -0.5t3.5 -4.5q0 -2 -1.5 -2.5t-2.5 -1t-2.5 -0.5h-1.5l-2.5 -2.5t-3.5 -3t-3.5 -3t-1.5 -2.5v-1v-1v-3t1 -2q1 1 5 2t5 2l1 0.5t2.5 1t2.5 1t2 0.5q2 0 2.5 -2t0.5 -3v-2v-1l-19 -9q-1 -1 -2 -3.5t-1 -3.5l-1 -0.5
l-1 -0.5q-3 0 -4.5 3t-1.5 7v7.5v5.5zM93 143q1 -1 3 -2t2 -2q1 0 2 -0.5l1 -0.5q1 0 2.5 3t3 7t2 7.5t0.5 4.5q-5 0 -6.5 -1.5t-2.5 -4t-2 -5.5t-5 -6zM113 140q0 -4 5 -4t6.5 4t1.5 9q0 3 -0.5 4t-3.5 1q-4 0 -6.5 -5t-2.5 -9zM137 107q0 6 3 10t7.5 6t9.5 2.5t11 0.5
q1 0 2.5 -1t1.5 -3t-2 -2.5t-5 -0.5h-6t-6 -1t-5 -3.5t-2 -6.5q0 -2 1 -4t3 -4q4 2 8 5t7 6h2q2 0 5 -1t3 -3q0 -1 -1.5 -2t-3.5 -1.5l-4 -1t-2 -2.5l9 -9v-16q0 -1 -3 -2t-6.5 -1.5t-7 -0.5h-3.5q-1 0 -4.5 -0.5t-7 0t-6.5 1.5t-3 3q0 1 0.5 2.5t1.5 1.5h23q3 0 5.5 1.5
t2.5 3.5q0 6 -4.5 7t-9.5 1.5t-9.5 3t-4.5 11.5zM88 32l0.5 -1l0.5 -1l15 -5q1 0 2 1.5t2 2.5q0 2 -1 3.5t-2.5 3.5t-3.5 3t-4 1q-3 0 -6 -2t-3 -6zM145 28v-0.5v-0.5l1.5 -0.5t3.5 -0.5t3.5 -0.5t2.5 -0.5h1q2 0 3.5 2t1.5 4q0 3 -2 4t-4 1t-3.5 -0.5t-3.5 -2t-3 -3
t-1 -2.5z" />
</svg>
