<?xml version="1.0" standalone="no"?>
<!DOCTYPE svg PUBLIC "-//W3C//DTD SVG 1.1//EN" "http://www.w3.org/Graphics/SVG/1.1/DTD/svg11.dtd" >
<svg xmlns="http://www.w3.org/2000/svg" xmlns:xlink="http://www.w3.org/1999/xlink" version="1.1" viewBox="-10 0 266 256">
   <path fill="currentColor"
d="M130 118q-5 5 -11.5 11t-12.5 10q0 1 -2.5 2l-2.5 1q-1 0 -1.5 3l-0.5 3l-0.5 0.5t-0.5 1.5q-1 1 -3.5 4.5t-3.5 4.5q-6 11 -9.5 20.5t-3.5 22.5v9.5v15.5v15v10q4 0 7.5 -2t3.5 -7q0 -6 -1 -11t-1 -10v-4q0 -2 0.5 -6.5t1 -9.5t1 -9t0.5 -6q2 -6 6 -15.5t10 -19t13 -16
t13 -6.5q3 0 7 4t8 9t7 10.5t3 8.5q0 6 -3 10.5t-7 8.5t-7 8.5t-3 10.5q0 7 2.5 14.5t6.5 14t10 12t12 8.5h2q2 0 5 -1.5t3 -4.5q0 -1 -5 -5.5t-11 -10t-11.5 -12.5t-5.5 -13q-1 -6 2.5 -11t7.5 -9t8 -8.5t4 -9.5q0 -7 -2.5 -12.5t-6.5 -10.5t-9 -9t-9 -9q-1 -1 -2 -2.5
t-1 -2.5l0.5 -1.5t0.5 -2.5q2 0 5.5 -1t7.5 -1.5l8 -1t5 -1.5q1 0 3 -0.5t3 -0.5h29q1 0 3 -1t2 -3q0 -3 -2.5 -4t-4.5 -1q-13 0 -25.5 1.5t-25.5 1.5h-1q-2 0 -6 -0.5t-4 -1.5v-19l3 -3h2t4 -0.5t4.5 -0.5h3.5q2 0 8.5 -0.5t13.5 -0.5t13 -0.5t9 -0.5l0.5 -1t0.5 -2v0
q0 -3 -2 -3.5t-3 -0.5q-11 0 -22 1.5t-22 1.5h-5l-2 -2l-1 -1v-0.5v-0.5q0 -2 0.5 -5t1.5 -6t2.5 -5.5t2.5 -3.5q2 0 6.5 -0.5t9.5 -1t9.5 -1t6.5 -0.5h2t4 -0.5t3.5 -1t2.5 -1.5v0v-1q0 -1 -0.5 -2.5l-0.5 -1.5h-35q-1 0 -1.5 -1t-0.5 -2q0 -5 2 -9.5t2 -9.5q0 -1 -0.5 -2
t-2.5 -1t-4 4t-4 10t-4 13t-4.5 13t-4 10t-3.5 4h-2t-2 -2q-1 -1 -2.5 -4.5t-3.5 -7t-3.5 -7t-2.5 -4.5q-1 -3 -2.5 -8t-3.5 -10t-4.5 -8.5t-5.5 -3.5t-4 0.5t-1 2.5q0 4 1 7.5t3 7t3 7t1 7.5q-1 0 -4 -0.5t-6 -0.5h-6h-4h-3.5t-5 0.5t-5 0.5t-3.5 1t-1 2v3t1 3t3 1
q7 0 14.5 -1t14.5 -1h2h4h4h2q2 1 3.5 3.5t3 5.5t2 6t0.5 4v3q-5 1 -12.5 1.5l-15 1t-15.5 1t-14 -0.5q-3 2 -4 3t-1 4q0 2 1 3.5t3 1.5q6 0 13 -1l14 -2l14 -2t14 -1h2h4h3h2l1 2v17q0 1 -0.5 1.5l-0.5 0.5q-1 0 -4 0.5t-4 1.5h-2h-3h-4h-2q-2 0 -8.5 0.5t-13.5 1t-13 0.5
t-8 1q-4 0 -6.5 0.5t-2.5 4.5q0 3 1.5 4t4.5 1h2.5h1.5q1 0 3 -0.5l4 -1t4.5 -1l2.5 -0.5q5 -1 10 -1.5t9.5 -0.5h9.5h12q1 0 3 -0.5t3 -0.5h0.5h0.5q3 0 3.5 2t0.5 4v1z" />
</svg>
