<?xml version="1.0" standalone="no"?>
<!DOCTYPE svg PUBLIC "-//W3C//DTD SVG 1.1//EN" "http://www.w3.org/Graphics/SVG/1.1/DTD/svg11.dtd" >
<svg xmlns="http://www.w3.org/2000/svg" xmlns:xlink="http://www.w3.org/1999/xlink" version="1.1" viewBox="-10 0 266 256">
   <path fill="currentColor"
d="M72 245v6q6 0 11.5 -4.5t11 -11.5t10.5 -16t9 -18t7.5 -16t6.5 -12q1 0 2 -1.5l1 -1.5q2 0 5 5.5t7.5 14t9 18.5t9.5 19t9.5 15t8.5 6q2 0 4 -2t2 -4v-1v-1q-8 -7 -12.5 -15.5t-9.5 -16.5l-10 -16t-9 -16t-7 -17t-3 -20v-2v-2l3 -3l2 -0.5t4 -0.5t4.5 -0.5t3.5 -0.5h9
t12.5 -0.5t13 -0.5h8.5q3 -1 3 -5q0 -3 -2.5 -3h-4.5q-11 0 -21 1t-20 1h-12l-1 -2l-0.5 -1.5t-0.5 -3.5t-0.5 -4.5t-0.5 -3.5v-5q0 -2 0.5 -3.5t2.5 -2.5q12 -3 24 -3.5t24 0.5q2 0 4 -1t2 -4q0 -2 -2.5 -3t-4.5 -1h-2h-6.5t-9 0.5t-9 0.5h-6.5l-4 2h-1q-1 0 -3 -1t-2 -3
v-1l0.5 -1.5l1 -3t1 -2.5t0.5 -2t0.5 -3l1 -4t0.5 -4t1 -2q0 -2 1.5 -3t2.5 -1h35q7 0 7 -5q0 -2 -0.5 -3t-3.5 -1h-37q0 -3 1 -6t3 -6t3.5 -6t1.5 -7q0 -3 -1.5 -6t-5.5 -3q-2 0 -3 0.5t-1 3.5l-6 22t-7 22q-2 1 -2.5 4t-1 6.5t-1.5 6.5t-4 4q-2 -1 -3 -3t-1 -4l-9 -55
q1 -4 -2 -6.5t-6 -2.5q-2 0 -3.5 1.5t-1.5 3.5q0 7 2.5 13.5t2.5 13.5v2.5v1.5l-2 3h-34q-2 0 -2 1.5v1.5q0 4 3 7h12q6 0 11.5 -1t11.5 -1q5 0 6 5l0.5 3l1 6t1 5.5t0.5 3.5l1 2l1 2q0 1 -1.5 1.5l-1.5 0.5h-2.5t-3.5 0.5t-4 0.5h-3t-5.5 0.5t-9.5 0.5t-9 0.5t-6 0.5t-4 1
t-2 3q0 1 0.5 1.5t1.5 0.5l1.5 0.5t3.5 0.5h3.5h1.5q11 0 20.5 -1.5t19.5 -1.5q2 0 4.5 0.5t2.5 2.5v23l-4 4h-34q0 1 -2 1.5l-2 0.5q-2 1 -5 1t-7 0.5t-7.5 0.5h-5.5q-1 0 -1 1v2v1.5t1 1.5h10q12 0 23 -1.5t23 -1.5q4 0 7 1t3 6q0 7 -1 13t-3 12t-4.5 12t-5.5 12
q-3 3 -6.5 8.5t-6.5 12t-6.5 13t-6.5 9.5zM70 212q0 2 0.5 3.5t2.5 1.5q3 1 6 -2.5t6 -9.5t5.5 -13.5t4.5 -14t3 -12t1 -7.5v-6q0 -1 -1 -2t-2 -1h-1t-2 1.5t-2 2.5q0 1 -0.5 4t-1.5 6t-1.5 6t-0.5 4t-1.5 4.5t-3 7.5t-3 7t-1.5 4q-2 4 -5 7.5t-3 8.5zM161 150q0 1 1.5 6.5
t4 13t6 16t7 15.5t7 11t6.5 4q2 -1 2.5 -2t0.5 -3q0 -4 -2 -9t-5 -10t-6 -9.5l-5 -7.5q-1 -2 -2 -6.5t-2.5 -9.5t-3 -8.5t-3.5 -4.5q0 -1 -1 -1.5t-2 -0.5l-1 0.5t-2 1.5v4z" />
</svg>
