<?xml version="1.0" standalone="no"?>
<!DOCTYPE svg PUBLIC "-//W3C//DTD SVG 1.1//EN" "http://www.w3.org/Graphics/SVG/1.1/DTD/svg11.dtd" >
<svg xmlns="http://www.w3.org/2000/svg" xmlns:xlink="http://www.w3.org/1999/xlink" version="1.1" viewBox="-10 0 266 256">
   <path fill="currentColor"
d="M76 249q1 1 2 1.5l1 0.5q5 0 8 -4.5t3 -9.5q0 -22 -2.5 -43.5t-2.5 -44.5q0 -4 5 -5h3t5 -0.5t5 -0.5h3q3 -1 4 -1.5t1 -2.5q0 -5 -4 -5t-7.5 1t-7.5 1q-2 0 -4.5 -1t-2.5 -4v-23l3 -4h21q0 -6 -3.5 -7t-7.5 -1t-7.5 -0.5t-3.5 -6.5q0 -5 2 -8.5t4 -8.5q0 -1 0.5 -4l1 -6
t1 -5.5t1.5 -2.5h18l5 -5q-2 -2 -4.5 -3t-5 -1.5t-5.5 -0.5t-5 1l-2.5 -2.5t-0.5 -2.5q0 -5 1.5 -10.5t1.5 -10.5q0 -1 -0.5 -3t-2.5 -2q-3 0 -4.5 4t-2 10t-1.5 13t-2 13.5t-2 10.5t-3 4h-1q-1 0 -1 -1t-1 -1q-1 -5 -2 -11t-2 -12.5t-2 -12t-1 -9.5q-1 -3 -3.5 -5.5
t-5.5 -2.5q-1 0 -2 1.5t-1 2.5q0 7 1.5 13t1.5 13v3h-4q-3 0 -5 1t-3.5 2.5t-1.5 3.5q0 3 1 4.5t4 1.5q2 0 4 -1t5 -1q2 0 3 1.5t1.5 3.5t0.5 4t1 3q0 1 2 2.5t2 2.5l0.5 1.5t0.5 3.5t0.5 4t0.5 3v1v1q0 5 -3 7t-7 2.5t-8 0.5h-6t-2 2v3v2.5t2 1.5q4 0 10.5 -0.5t11.5 2.5
q1 0 1.5 0.5l0.5 0.5l1 23l-3 3h-7t-7.5 0.5t-6 2.5t-2.5 6h25l1 2q0 14 1 27t1 27q0 10 -1 19.5t-1 19.5v8zM104 223q0 3 2.5 5t5.5 2h2q1 0 1 -1h3.5t5.5 -1t5.5 -1.5t3.5 -0.5q2 0 11 -0.5t19 -1t18.5 -1t11.5 -0.5h2.5h3.5t3.5 -0.5t2.5 -0.5t1 -1.5v-2.5q0 -3 -2 -4
t-4 -1q-4 0 -7.5 1.5t-7.5 1.5h-15q-3 0 -12.5 0.5t-19.5 1.5t-19 1.5t-13 1.5l-0.5 0.5l-0.5 0.5h-0.5t-0.5 1zM127 176q0 6 1.5 11t4 9.5t6.5 7.5t10 3q9 0 16 -1t12 -4t7.5 -9t2.5 -16v-4v-4q-3 -5 -5 -8t-4 -4.5t-5.5 -1.5h-10.5h-11q-3 1 -7.5 3t-8 4.5t-6 6t-2.5 7.5z
M139 189q0 -1 1.5 -2l1.5 -1q2 -1 5.5 -1.5t8 -1.5t8 -1.5t5.5 -0.5h1q3 0 5.5 1t2.5 5q0 3 -2 5.5t-5 3.5l-6 2t-5 1t-5.5 -0.5t-7 -1.5t-6.5 -3t-2 -5zM163 163h3.5t5.5 1t4.5 2.5t1.5 4.5l-1 1t-2 1q-2 1 -6 1t-9 0.5t-9 1t-6 0.5q-1 0 -4 0.5l-3 0.5q0 -5 2.5 -7.5
t6.5 -4t8.5 -2t7.5 -0.5zM121 111q0 15 7.5 23.5t23.5 8.5h10t11.5 -1t10 -3t7.5 -7q3 -2 4 -6t2 -7v-23q0 -3 -1.5 -5.5t-4 -5t-5.5 -4l-5 -2.5h-3h-5.5h-5.5h-3q-9 0 -17 1t-13.5 4t-9 9.5t-3.5 17.5zM130 110q0 -8 3 -12.5t8 -7t11 -3t12 -0.5h2h4h4h2q4 0 6.5 2t4 5.5
t2 7t0.5 6.5q0 9 -2.5 14.5t-7 8t-10.5 3t-14 0.5q-11 0 -17.5 -6.5t-7.5 -17.5zM144 114q0 4 1.5 5.5t4.5 2t6 0.5h5q7 0 11 -3.5t4 -12.5q0 -3 -3 -6t-6 -5q-1 0 -3.5 -0.5t-3.5 -0.5q-10 0 -13 5t-3 15zM150 109q0 -4 3.5 -5.5t7.5 -1.5t5.5 1.5t1.5 5.5v3q0 2 -2 2h-14
l-1 -2l-1 -2v-1zM108 73q0 2 2.5 2.5t4.5 0.5q4 0 9.5 -3t11 -7t11 -7.5t10.5 -3.5t10.5 2t10.5 4.5t10 6t9 5.5l1 1q1 0 2.5 -2.5t1.5 -3.5q0 -2 -1 -3.5t-3 -3t-3.5 -3t-3.5 -1.5q-1 -1 -4 -2.5t-6 -2.5t-6 -2.5l-5 -2.5q0 1 -2.5 0.5t-4.5 -1.5l-4 -2t-2 -3v-22
q0 -2 -1.5 -5t-3.5 -3h-1q-1 0 -2 0.5t-1 1.5v28q0 3 -2.5 6t-5.5 5.5t-6 4.5t-5 3q-2 0 -4.5 1.5t-5.5 3t-6 2.5t-4 2l-0.5 1t-0.5 2v1z" />
</svg>
