<?xml version="1.0" standalone="no"?>
<!DOCTYPE svg PUBLIC "-//W3C//DTD SVG 1.1//EN" "http://www.w3.org/Graphics/SVG/1.1/DTD/svg11.dtd" >
<svg xmlns="http://www.w3.org/2000/svg" xmlns:xlink="http://www.w3.org/1999/xlink" version="1.1" viewBox="-10 0 266 256">
   <path fill="currentColor"
d="M124 222q3 0 4.5 4.5t3 10t5 10t9.5 4.5q4 0 6 -0.5t3 -4.5l-3 -3l-4 -4l-4 -4t-2 -3q-1 -2 -1.5 -4t-1.5 -4t-1 -3.5v-1.5l2 -4q1 0 4 -1.5t6.5 -3.5t7 -3.5t4.5 -2.5q2 -1 5 -3t5 -4t3.5 -4.5t1.5 -6.5q0 -2 -1 -2.5t-3 -0.5h-1h-2q-2 3 -5.5 6t-7.5 6t-8 5.5t-8 2.5
q-3 0 -4 -3.5t-1 -5.5q0 -5 3 -9.5t6.5 -8t6.5 -7.5t3 -9q0 -6 -3.5 -9t-8.5 -5t-8.5 -3.5t-3.5 -3.5q0 -1 0.5 -3t1 -3.5t1.5 -2.5t2 -1h29q6 0 7 4q0 2 1 6t2.5 8.5t2 8t1.5 5.5q1 1 2.5 3l3 4t3 3t3.5 1q7 0 7 -7q0 -3 -2 -5.5t-5 -5.5l-5.5 -5.5t-3.5 -5.5v-4.5v-5.5
q0 -8 2 -12t4.5 -7l5 -6t2.5 -9q-7 0 -10 2t-5.5 5.5t-4.5 7t-7 7.5q-8 -1 -15 0t-15 1q-3 0 -3.5 -1t-0.5 -4v-0.5v-0.5v-2t0.5 -3.5t0.5 -2.5v-2v-1q0 -3 -2.5 -4.5t-4.5 -1.5l-1 0.5t-2 0.5v3.5t-0.5 5.5t-0.5 6v4q-1 0 -1.5 1.5l-0.5 1.5q-8 2 -15.5 2.5t-15 0.5h-15.5
t-15 1q-1 0 -2 1l-2 2q0 4 2.5 5t5.5 1q13 0 26.5 -1.5t27.5 -1.5v6l-2 1.5t-4 4t-4 4.5t-4 3q-4 4 -6.5 6t-4.5 4.5t-3.5 5l-4.5 7.5q-3 6 -5 11t-4 9.5t-3.5 9.5t-2.5 13l-0.5 2t-1.5 3v26l1 0.5t2 0.5h2h1h4q0 -2 0.5 -6.5t1 -10t1.5 -10.5t1 -7q2 -12 4.5 -20.5t7 -15.5
t11 -14t16.5 -16h3h3q5 0 9.5 2t4.5 7q0 6 -3 11.5t-6.5 11t-6.5 11t-3 11.5q0 3 0.5 5t1.5 4q-4 1 -9.5 2.5t-10.5 4t-8.5 6.5t-3.5 9h8q2 0 6 -2q0 -1 2.5 -2.5l5 -3t4.5 -3t3 -1.5h1zM99 110q0 2 0.5 3t3.5 1t5 -3t3.5 -7t2 -7.5t0.5 -4.5q1 -3 4 -5.5t5 -4.5
q1 -2 1.5 -3.5t1 -3.5t1 -3.5t1.5 -3.5v-16v-15t-2 -14q-5 -6 -12 -8t-15 -2h-1q-2 0 -5 0.5t-6.5 0.5t-6 0.5t-3.5 0.5h-3.5t-5.5 0.5t-5.5 2t-2.5 3.5q0 1 0.5 2t1.5 1h3.5h3.5q9 0 16.5 -1.5t16.5 -1.5q8 0 12 2.5t5 6.5t1 9.5v12.5v2v4.5v4.5v3q-2 8 -5.5 12.5t-7 8.5
t-6 9.5t-2.5 13.5zM147 112q0 2 3 2h2l1 -2q4 -4 7 -6.5t5.5 -5t5.5 -4.5t8 -6q6 -4 9 -8.5t4.5 -9.5t1.5 -10.5v-12.5q0 -8 -1 -15t-1 -14q-2 -3 -4.5 -5t-6 -2.5t-7.5 -0.5h-7t-8.5 -0.5t-11 0t-9.5 2.5t-4 7q7 0 14.5 -1t14.5 -1q4 0 9 0.5t8 3.5q3 6 3 13v14v5v7
t-0.5 7.5t-2.5 6.5q-2 6 -7.5 9.5t-11.5 7t-10 8t-4 11.5zM58 89q0 2 1 2.5t3 0.5q5 0 8.5 -1.5t6.5 -5.5l32 -14q2 -1 2.5 -2.5t0.5 -2.5q-4 0 -13 2t-18 5t-16 7.5t-7 8.5zM135 85q0 1 1 1.5t3 0.5q1 0 7 -2.5t12.5 -6t12 -6l5.5 -2.5q0 -2 -2.5 -2.5t-4.5 -0.5t-8 1.5
t-12 4t-10 5.5t-4 7zM60 64q0 3 0.5 4t2.5 1t6 -1t9 -3t10.5 -4.5t10 -4.5t7.5 -3.5l3 -1.5q0 -3 -3 -3h-4h-2.5h-1.5q-2 1 -5 2t-6.5 2t-6.5 2.5t-4 1.5q-2 0 -5 0.5t-5.5 1.5t-4 3t-1.5 3zM135 62v1l0.5 0.5l0.5 0.5l0.5 0.5l0.5 0.5q4 0 7 -1t6 -2.5l6 -3t6 -2.5h2
t4 -0.5t3.5 -0.5h2.5q2 -1 2.5 -2t0.5 -3t-1 -2.5t-3 -0.5t-8 1t-13 3.5t-12 5t-5 5.5zM108 30q-2 0 -6.5 0.5t-10 1.5t-11 2.5t-10 3.5t-8 4.5t-3.5 6.5q6 0 10 -2t10 -3q3 -1 8 -1.5t9.5 -2t8 -3.5t3.5 -7zM169 27h-1t-1 1q-1 0 -3.5 0.5t-5.5 1.5t-5 1.5t-3 0.5l-4 2
l-4 2t-4 1.5t-2 1.5v5q2 0 8 -1.5t12.5 -3.5t12 -4.5t5.5 -3.5q0 -2 -1 -3t-4 -1z" />
</svg>
