<?xml version="1.0" standalone="no"?>
<!DOCTYPE svg PUBLIC "-//W3C//DTD SVG 1.1//EN" "http://www.w3.org/Graphics/SVG/1.1/DTD/svg11.dtd" >
<svg xmlns="http://www.w3.org/2000/svg" xmlns:xlink="http://www.w3.org/1999/xlink" version="1.1" viewBox="-10 0 266 256">
   <path fill="currentColor"
d="M146 206l5 41q0 3 2 3h3q3 0 4 -0.5t1 -3.5q0 -4 -1 -8.5l-2 -9l-2 -9t-1 -8.5v-8t2 -8q0 -1 2 -4.5t3.5 -7l3 -7t2.5 -4.5v-3.5t0.5 -7.5t0.5 -8.5v-6.5v-72q0 -1 4 -3t8.5 -5l9 -6t6.5 -5q2 0 2.5 2t0.5 4v4v3q0 8 -4 12t-8.5 5.5t-8.5 3t-4 5.5q0 2 1 2.5t3 0.5
q3 0 5.5 -1t4.5 -3t3.5 -3t2.5 -1q2 0 3 1.5t1.5 3.5t0.5 4.5v3.5q0 7 -3.5 11t-8 7t-8 5.5t-3.5 7.5q0 1 0.5 2.5t2.5 0.5q2 0 4 -1.5t4.5 -3.5t4.5 -3.5t2 -2.5h1h1l0.5 0.5l1.5 1.5v9v22t-4 21q-1 5 -4 9.5t-5.5 9.5t-4.5 10t-1 11l0.5 2l1 4l1 4t0.5 3t1 2l1 1
q1 4 1.5 7t2 5t4 3t6.5 1q0 -4 -1 -7.5t-2.5 -7t-2.5 -7t-1 -7.5q0 -8 2.5 -16t5.5 -14q3 -5 4.5 -11.5t2.5 -11.5q1 -26 1 -51.5v-51.5v-6v-10.5v-10.5v-7l-1.5 -2t-1.5 -3l-2 -1h-25l-1 1l-2 2v0.5v0.5v0q1 1 2 2.5l1 1.5h17q2 0 2.5 1t1 2.5t0.5 2.5v2q0 4 -3 7.5t-7 5.5
t-8 3.5t-7 1.5q-2 0 -2.5 -1l-1 -2t-0.5 -3v-2q0 -4 1.5 -7.5t1.5 -6.5q0 -4 -2.5 -6t-5.5 -3.5t-6.5 -1.5h-6.5h-4.5t-4.5 1t-3.5 2t-1.5 4q0 1 0.5 2t2.5 1h17q2 0 2.5 1t1 2.5t0.5 3.5v1q0 5 -3.5 8t-8 5.5l-9 5t-6.5 5.5q2 4 6 4q3 0 5 -1.5t4.5 -3.5t4.5 -3.5t5 -1.5h1
q1 1 1.5 5.5t0.5 5.5v1q0 6 -3 9.5t-7.5 6.5t-9.5 6t-8 7q0 1 1.5 1.5t2.5 0.5q3 0 5 -1.5l4 -3l4 -3t4 -1.5h0.5h0.5q0 1 2 2.5t2 2.5t0.5 3.5t0.5 3.5q0 10 -3.5 14.5t-7.5 7t-7 4t-3 5.5q0 2 0.5 3t2.5 1q1 0 2 -0.5l1 -0.5q1 -1 2.5 -2t3 -2.5l2.5 -2.5t2 -1v-0.5v-0.5
q1 0 1 0.5v0.5q1 0 1.5 0.5l0.5 0.5v3v4v5v3v10.5t-2 10.5q-1 4 -3.5 8t-4.5 8.5t-3.5 9t-0.5 8.5zM50 30v215q0 1 1 2t2 1l0.5 0.5l0.5 0.5v-0.5v-0.5q1 0 2.5 -2t2.5 -2v-5.5v-7.5v-7v-5v-6v-8v-7v-3q0 -1 -0.5 -3t-0.5 -4.5v-4.5v-3v-1v-2t0.5 -2l0.5 -1q0 -1 -0.5 -3
l-0.5 -2v-5q0 -3 -0.5 -6.5t-0.5 -6.5v-5v-6q0 -3 0.5 -7t0.5 -6v-4v-9v-14.5t0.5 -14t0.5 -9.5l1.5 -0.5t1.5 -1.5q12 -2 25 -2.5t25 -2.5l2 -1t2 -2h2h2q4 0 6 -3t3 -6.5t1.5 -7.5t0.5 -7v-4q0 -2 -0.5 -4.5t-2 -4t-4.5 -0.5q-1 0 -2 1.5t-1.5 3.5t-1.5 3.5t-3 2.5
q-13 0 -26.5 1.5t-28.5 1.5q0 -1 -0.5 -4.5t-0.5 -4.5q1 -3 6.5 -5t14 -3.5t17.5 -2t17 -1.5t13 -2t5 -3v-1q0 -1 -0.5 -2l-0.5 -1h-10q-17 0 -34 3t-34 5zM93 178v67q0 2 1.5 2h1.5h2t1 -2v-33t2 -33q0 -1 1 -1.5t2 -0.5h1h1l0.5 1l0.5 1v50l3 3q1 0 1.5 -0.5t0.5 -1.5
l2 -3v-52q0 -1 1.5 -1h2.5q2 0 3.5 0.5t1.5 2.5v49l1 0.5t2 0.5v0h1q1 0 2 -1.5l1 -1.5v-55v-7q0 -2 -0.5 -6.5t-0.5 -9.5v-10v-6q0 -10 1.5 -19t1.5 -18q0 -3 -0.5 -5t-3.5 -2h-3t-2 3v23q0 1 -2 3t-3 2q-2 0 -3.5 -0.5t-1.5 -2.5q0 -6 1.5 -12t1.5 -12q0 -2 -1 -4t-3 -2v0
q-1 1 -2.5 2l-1.5 1v28l-1 0.5t-1 1.5h-1v0q-3 0 -3.5 -2.5t-0.5 -4.5q0 -8 1 -16t1 -16h-7v1t-0.5 3l-1 4t-0.5 3v28q1 3 -2 3q-4 0 -4 -3q0 -1 0.5 -4.5t0.5 -6.5t0.5 -6t0.5 -4v-3q0 -3 -1.5 -4.5t-4.5 -1.5v0l-1.5 1.5l-0.5 0.5q1 7 0.5 15.5t-1.5 15.5h-3q-4 0 -3.5 -2
t-0.5 -6v-4t-0.5 -6.5t-0.5 -6.5v-4l-2.5 -2.5t-2.5 -1.5q-2 0 -3.5 2.5t-1.5 4.5q0 8 2 16.5t2 17.5v104q1 0 4 -1.5t3 -3.5v-48h5v50q0 2 2 2h2q3 0 3.5 -1t0.5 -4v-46q0 -2 1 -2.5t1.5 -0.5t1.5 0.5t2 0.5zM74 128h2h1q3 0 3.5 1.5t0.5 5.5v34h-7v-41zM88 128q1 -2 4 -2
q2 0 2.5 2t0.5 4l-0.5 1t-0.5 2v6.5v9.5t-0.5 9.5t-0.5 6.5h-6v-19.5t1 -19.5zM99 162v-1q0 -2 0.5 -6.5t0.5 -10t0.5 -10t0.5 -6.5q0 -1 1 -1.5t2 -0.5l0.5 0.5t1.5 0.5q2 5 1.5 11.5t-0.5 11.5v3v4.5v5.5v3q-1 0 -2.5 0.5t-2.5 0.5l-1.5 -2.5l-1.5 -2.5v0zM113 125h8
q1 0 1.5 3.5t0.5 6.5l-0.5 1.5t-0.5 3t-0.5 3l-0.5 1.5v4.5v5.5v6v4t-1 1.5t-2 0.5q-2 0 -3 -2t-1.5 -4t-0.5 -4v-3v-6v-8v-9v-5zM59 60q0 -4 5.5 -6.5t12.5 -3.5t14 -1.5t10 -0.5h4h6h6h4q0 8 -5 11.5t-12 4.5t-14.5 0.5t-11.5 0.5q-1 0 -3.5 0.5t-3.5 0.5h-5q-4 0 -5.5 -1
t-1.5 -5z" />
</svg>
