<?xml version="1.0" standalone="no"?>
<!DOCTYPE svg PUBLIC "-//W3C//DTD SVG 1.1//EN" "http://www.w3.org/Graphics/SVG/1.1/DTD/svg11.dtd" >
<svg xmlns="http://www.w3.org/2000/svg" xmlns:xlink="http://www.w3.org/1999/xlink" version="1.1" viewBox="-10 0 266 256">
   <path fill="currentColor"
d="M150 247q0 2 1.5 3t2.5 1q5 0 7 -2.5t3 -6t1.5 -7t2.5 -6.5q1 -2 3 -8t4 -12.5t3.5 -12.5t1.5 -8q0 -1 1 -3.5t1 -6t0.5 -7t0.5 -5.5q1 -4 0.5 -9.5t0 -10.5t2.5 -8.5t8 -3.5l1 -0.5t2 0t2 0.5t1 2v3v3q0 12 -2 24t-4 23q-1 6 -2.5 11t-1.5 11q0 4 3 4q4 0 5.5 -1.5
t1.5 -4v-5v-4.5q0 -3 0.5 -7.5t1 -9.5t1 -9.5t0.5 -5.5t0.5 -2.5t1 -3.5l1 -4t0.5 -3q1 -2 1 -7t0.5 -10.5t1 -10.5t0.5 -7q0 -1 -0.5 -3t-0.5 -3l-0.5 -1t-1.5 -1q-3 0 -4 2.5t-1 5.5t-1 5.5t-4 2.5q-5 0 -7 -1.5t-2.5 -4.5t0 -6.5t-0.5 -7.5q0 -1 -0.5 -4t-1.5 -6.5
t-1.5 -6t-0.5 -3.5v-1v-1q0 -4 3 -5.5t7 -2.5t7 -2.5t3 -5.5v-1q-1 0 -2 -1t-1 -2q-5 2 -9.5 4t-7.5 4.5t-4.5 6t-1.5 8.5q0 7 1.5 13t1.5 12q0 4 -0.5 6.5l-1.5 7.5h-4q-5 0 -6 -2t-0.5 -4t0.5 -3.5t-3 -1.5h-2.5t-1.5 2v29q0 1 -2 2.5t-4 1.5q-3 0 -6 -3v-2v-5v-4v-2
q0 -18 2 -35.5t2 -35.5v-8q-1 -1 -1.5 -2.5t-2.5 -2.5h-10h-8t-9 2q-3 1 -4.5 7.5t-2.5 16t-1.5 20.5t-0.5 21.5t-0.5 20t-1.5 14.5q0 1 -1.5 2t-3.5 1h-4h-3t-3.5 -1l-5 -2t-5 -2.5t-3.5 -2.5v-2v-2q0 -3 1.5 -4.5t4 -2.5t5 -1.5t4.5 -2.5t3.5 -6.5t1.5 -12.5v-4.5t-4 -2.5
v0q0 1 -0.5 3.5l-1 5t-1 4.5t-0.5 4q-1 2 -2.5 4t-3.5 2q-3 0 -5 -3v-3.5v-4.5v-4.5v-3.5l-0.5 -1t-0.5 -2.5t-0.5 -2.5l-0.5 -1v-1v-0.5v-0.5q0 -1 0.5 -2.5t0.5 -3.5t0.5 -4l0.5 -2q2 -1 5.5 -2.5t6.5 -3.5t5.5 -4.5t2.5 -5.5q-5 0 -9 2.5t-9 2.5h-1l-0.5 -0.5t-0.5 -1.5
v-10q0 -3 3 -4.5t6 -2.5t6 -2.5t3 -4.5q0 -1 -0.5 -2t-2.5 -1l-2 0.5t-4 1.5t-3.5 1.5t-2.5 0.5h-0.5h-0.5q0 -1 -0.5 -4.5t-0.5 -4.5q1 -3 4 -4.5t6 -2.5t6 -2.5t3 -4.5q0 -2 -0.5 -3t-2.5 -1v0q-1 0 -3 1l-4 2t-3.5 1.5t-2 1l-0.5 0.5v0h-1q0 -1 -1 -2l-1 -1v-3v-4v-4v-3
t-1.5 -2.5l-2.5 -2.5q-1 0 -3 1t-2 2v23q0 3 -3.5 3.5t-7.5 1.5t-8 2.5t-4 4.5t1 3.5t4 0.5q4 0 7.5 -2.5t7.5 -2.5q3 0 4 2.5t1 4.5q0 6 -4 8t-9.5 3t-9.5 3.5t-4 8.5q3 0 6 -1t5.5 -2.5t5 -2.5t4.5 -1h3q1 0 1 2v11q0 2 -4.5 3t-10 2.5t-10 3.5t-4.5 6q0 2 1 2.5t3 0.5
q3 0 5.5 -1t5 -2.5t5.5 -3t5 -1.5q1 0 1 0.5v0.5q1 0 1.5 0.5l0.5 0.5q0 4 0.5 7.5t0.5 6.5t0.5 5.5t0.5 6.5q0 1 -0.5 3.5l-0.5 2.5q0 2 -1 2h-3t-4.5 -0.5t-3.5 -2.5v-3t-0.5 -4t-0.5 -4t-1 -3q0 -1 -1 -3t-2 -2q-2 0 -2.5 1.5t-1 3.5t-0.5 4v3q0 5 1 8.5t3 5.5t5.5 2.5
t8.5 0.5q2 2 2 3.5v3.5q0 3 -2.5 4.5t-5.5 3l-6 3t-4 4.5q-6 14 -7 30t-1 31q0 1 0.5 2.5t2.5 1.5q3 0 4.5 -3.5t2 -7.5t0.5 -8v-6q1 -2 1 -6.5t0.5 -9.5t1 -9.5t0.5 -6.5q1 -3 2.5 -6.5t4.5 -3.5t4 1.5t2 3.5v2v3v3v2q0 18 -2.5 35t-2.5 34q0 3 0.5 4.5t4.5 2.5q1 -3 3 -5
t3 -6q-1 -18 -0.5 -37t1.5 -38q2 -3 5 -3h2q3 1 4 6t1.5 10t0.5 9.5v5.5q0 3 -1 6.5t-1 6.5v10t2 11h1h1q2 0 3 -0.5t1 -2.5v-57l1 -2q1 0 3.5 -0.5t6.5 -0.5t7 -1h4q1 0 5.5 -0.5t9 -0.5t8.5 -0.5t5 -0.5h1q2 0 3 2t1 4q0 7 -2.5 13t-5.5 12t-5 12t-2 12q4 0 7.5 -4.5
t6 -11t4.5 -15t3.5 -16.5t2.5 -14.5t1 -9.5q0 -1 0.5 -4t1.5 -3q0 -2 2.5 -2h3.5q2 0 4 1t2 4q0 15 -2.5 28.5t-6.5 26.5t-9 26t-11 26v0.5v0.5zM129 120h4h3q1 0 3 0.5l2 0.5v31h-23v-26q0 -5 3.5 -5.5t7.5 -0.5zM118 102q0 -3 1.5 -4.5t3.5 -2.5t5 -1.5t5 -0.5t4 0.5
l2 0.5l3 3l0.5 2t0.5 3t-0.5 4l-0.5 3q0 1 -0.5 2l-0.5 1h-19q-1 0 -2 -1t-1.5 -2.5t-0.5 -3.5v-3zM121 85v-6q0 -5 0.5 -9t2 -6.5t4.5 -4t9 -1.5q3 0 5 2t2.5 4t0.5 5v6v3.5v3.5t-2.5 2t-6 1.5t-6.5 0.5h-5h-1z" />
</svg>
