<?xml version="1.0" standalone="no"?>
<!DOCTYPE svg PUBLIC "-//W3C//DTD SVG 1.1//EN" "http://www.w3.org/Graphics/SVG/1.1/DTD/svg11.dtd" >
<svg xmlns="http://www.w3.org/2000/svg" xmlns:xlink="http://www.w3.org/1999/xlink" version="1.1" viewBox="-10 0 266 256">
   <path fill="currentColor"
d="M178 246q1 2 2.5 2.5t3.5 0.5q4 0 5 -2t1 -5v-5q0 -1 -1 -4.5t-2.5 -8t-2 -8.5t-1.5 -5v-3v-6v-6v-3q0 -1 -0.5 -5t-0.5 -5l-1 -1.5t-1.5 -3.5t-1 -3.5l-0.5 -1.5q-1 -7 -1 -12v-9v-9.5v-11.5h21l1 -1l2 -2l2.5 -2.5t1.5 -3.5v0l-1.5 -1.5l-0.5 -0.5h-9h-9q-1 0 -3.5 0.5
l-5 1l-5 1t-3.5 0.5q-5 1 -12.5 1.5t-15 0.5h-15.5h-13q-2 0 -3.5 2t-1.5 4v0.5v0.5l1.5 0.5l1.5 0.5h21l3 4v28l-1 1q1 12 -0.5 25.5t-2.5 24.5q-3 6 -5 12t-2 13q0 3 0.5 4t3.5 1t4.5 -1.5t2.5 -3.5t1.5 -4.5t0.5 -4.5q3 -17 5.5 -35t4.5 -34v-5.5v-7.5v-8v-5q1 -3 3 -4
t4 -1.5t5 -0.5h4q1 0 2 0.5l1 0.5l2 5q-1 13 0.5 27t3.5 27.5l4 27t3 27.5zM92 158v81q0 1 1.5 1.5l1.5 0.5q2 0 3.5 -1t1.5 -3l2 -13v-3.5v-8.5v-8v-7q0 -33 -0.5 -65t-2.5 -65q0 -1 -1 -4t-2.5 -5.5t-3 -4t-3.5 -1.5h-29v-3v-4.5v-4.5v-3q0 -4 5 -6.5t11.5 -3.5t14.5 -1
t15 -0.5t11.5 -1.5t4.5 -4q0 -1 -1.5 -2.5t-3 -2l-3 -1t-2.5 -0.5h-2q-2 0 -5.5 0.5t-7 0.5t-6 0.5l-2.5 0.5q-3 0 -8 1t-10.5 2.5t-10.5 3.5t-7 4q-4 5 -5 11.5t-1 12.5v4q0 3 -0.5 8t-0.5 10v8v8t0.5 10t0.5 9v4v4.5v7.5t0.5 8t0.5 6t0.5 5t1.5 6.5t3 6t5 2.5h34zM58 119
v-3.5t2 -3.5q2 -1 6 -2t7.5 -1.5l7 -1t7.5 -0.5h1.5t1.5 2v36l-4 3h-2.5h-3.5q-9 0 -13.5 -1t-6.5 -4.5t-2.5 -9.5t-0.5 -14zM154 102v3.5t0.5 5t1.5 4.5t2 2q2 0 3.5 -1.5t2 -4l1 -5t0.5 -3.5q0 -4 -0.5 -8t-0.5 -9v-4v-4.5t0.5 -7t0.5 -7v-4.5l2 -2l1 -1l1 -1v0q1 0 1 1
q1 0 2.5 1t3.5 2.5t3.5 3t2.5 1.5l4.5 4.5t7.5 6.5t7.5 6t4.5 3q3 0 4 -2.5t1 -5.5v-2q-4 -5 -12 -10t-15.5 -10.5t-13 -11t-5.5 -11.5v-3.5v-3.5q2 -1 3 -3.5t1 -4.5q0 -3 -3 -5t-5 -2q-3 0 -4.5 4.5t-2.5 10l-2 11t-3 8.5q-4 4 -10 9.5t-12 12t-10.5 13.5t-4.5 13
q8 0 13.5 -6t10 -13.5t8.5 -14t8 -8.5q1 0 2 0.5t2 1.5v8q0 11 -1 21.5t-1 21.5zM58 97v-31q0 -2 2 -2.5t4.5 -1t4.5 -0.5h2q5 0 9.5 0.5t8.5 3.5q1 6 1.5 10.5t0.5 10.5v8l-1.5 1.5l-0.5 0.5q-5 2 -10.5 2h-10.5h-5h-3z" />
</svg>
