<?xml version="1.0" standalone="no"?>
<!DOCTYPE svg PUBLIC "-//W3C//DTD SVG 1.1//EN" "http://www.w3.org/Graphics/SVG/1.1/DTD/svg11.dtd" >
<svg xmlns="http://www.w3.org/2000/svg" xmlns:xlink="http://www.w3.org/1999/xlink" version="1.1" viewBox="-10 0 266 256">
   <path fill="currentColor"
d="M84 225q0 2 -0.5 6t0 8t1.5 7t4 3q4 0 5.5 -3.5t2 -9t0.5 -10.5v-8q0 -35 2 -69.5t2 -69.5v-3v-6t-0.5 -5.5t-0.5 -3.5v-3t-1 -4t-2.5 -3.5t-2.5 -1.5h-35l-3 -2v-1.5v-2.5q0 -11 6.5 -15.5t15.5 -5.5t18 -0.5t16 0.5q2 -1 2 -2v-3q0 -4 -4 -4q-11 0 -23 1t-23 3
q-8 1 -12 4.5t-5.5 9.5t-1.5 13v14q0 1 -0.5 5.5t-0.5 10t-0.5 10.5t-0.5 6v25v25q0 6 4 11t9 8q3 0 8 -0.5t10.5 0.5t9.5 2.5t4 6.5q0 14 -2 28t-2 29zM105 147q0 2 2 5l5 7.5t6.5 9t6.5 8.5t6 6.5t4 2.5h2.5t5.5 0.5t6 0.5h4q0 1 1 1h2q6 0 10 -3.5t7 -8.5t5 -11t5 -10
q1 -3 6 -4t9.5 -1.5t8 -1.5t2.5 -5q-1 -3 -2 -3h-3h-2h-1h-3.5t-5.5 0.5t-5.5 0.5h-3.5q-6 4 -9.5 10t-6.5 11.5t-7 9.5t-11 4q-8 0 -13.5 -5.5t-10.5 -12t-8.5 -12t-6.5 -5.5t-4 2.5t-1 3.5zM127 85v24v12.5t2 14.5t5.5 12.5t10.5 5.5q6 0 9 -2t4.5 -5.5t2.5 -8t2 -9.5
q1 -2 3.5 -4t6 -3.5l7 -3t4.5 -2.5q3 -2 4.5 -7t3.5 -12.5t3.5 -16t2 -16.5t1 -13.5t0.5 -8.5v-5v-5t-1 -1.5t-2 -0.5t-3.5 1t-3.5 3l-5 49q-1 4 -2 9t-2.5 10t-4.5 8.5t-8 3.5h-1h-1q-1 -3 -1.5 -6.5t-1 -7.5l-1 -8t-0.5 -7l1 -2.5l1 -2.5q0 -1 0.5 -3.5l1 -5t1 -4.5
t0.5 -3q2 -7 3 -14.5t2 -15.5q1 -4 3 -9t2 -9q0 -2 -0.5 -4t-2.5 -2q-5 0 -7.5 4t-4.5 8q-2 9 -3.5 19.5l-3 21t-2 21.5t-1.5 20q0 1 0.5 3.5t1 5.5t0.5 6v4v4v5t-0.5 5.5t-2 4t-4.5 1.5h-1q-1 0 -2.5 -2t-2.5 -3q-1 -6 -1.5 -13t-0.5 -14.5v-14.5v-12q0 -17 1 -32t3 -32v-1
v0q-1 -1 -2 -2.5t-2 -1.5q-4 -1 -6 1.5t-3 6t-0.5 7t0.5 6.5l-0.5 4t-1 8.5t-0.5 8v4.5v24zM51 117q0 -1 1.5 -4t2.5 -4q5 -1 9.5 -1.5t10.5 -0.5h4.5h4.5l3 1.5t2 2.5v6v7.5v10.5t-1 9.5t-4 5.5h-3h-3q-16 0 -21.5 -9t-5.5 -24zM51 90l0.5 -3t1 -6.5t1 -7.5t1.5 -7
q0 -3 3 -5t6.5 -2h7h5.5h5.5h3.5l3 5v2.5t0.5 5.5t0.5 6t1 5v2v3t-0.5 4t-1 3.5t-1.5 1.5h-33z" />
</svg>
