<?xml version="1.0" standalone="no"?>
<!DOCTYPE svg PUBLIC "-//W3C//DTD SVG 1.1//EN" "http://www.w3.org/Graphics/SVG/1.1/DTD/svg11.dtd" >
<svg xmlns="http://www.w3.org/2000/svg" xmlns:xlink="http://www.w3.org/1999/xlink" version="1.1" viewBox="-10 0 266 256">
   <path fill="currentColor"
d="M163 222v26q0 2 2.5 2.5t3.5 0.5q2 0 3.5 -1.5t2 -3t0.5 -3.5v-4v-7q-1 -3 -1 -8t-0.5 -11.5t-1 -13.5t-1 -13.5t-1 -11.5t-0.5 -7q-1 -3 -4.5 -5.5t-6.5 -2.5q-11 0 -22 1.5t-22 1.5h-6q-1 0 -1 -1.5v-2.5q0 -4 4 -6.5t10.5 -3.5t14.5 -1.5l16 -1t15 -1t11 -1.5h1
q4 0 6.5 1t5.5 2.5t5.5 3t5.5 1.5t4 -0.5t1 -3.5t-0.5 -4t-2.5 -2q-1 0 -3 -0.5t-4.5 -1t-4.5 -1t-3 -0.5q-2 -1 -7 -2.5t-10 -3.5t-9 -4t-4 -4v-0.5v-0.5q1 0 2 -0.5l1 -0.5l37 8l1.5 -1.5l1.5 -1.5v-1v-1l-0.5 -1.5t-1.5 -1.5t-3.5 -0.5t-6 -1t-6.5 -1t-4 -0.5
q-3 -1 -7 -1.5t-7.5 -1.5t-6 -3t-2.5 -6q10 0 20 2.5t20 2.5h2h3t1.5 -1.5l0.5 -1.5v-1q0 -2 -3.5 -2.5t-9 -1.5t-12 -1.5t-12 -1.5t-9 -3t-3.5 -5q0 -1 0.5 -1.5l0.5 -0.5h6q8 0 16.5 2.5t16.5 2.5q2 0 4.5 -1t2.5 -4v-2t-2 -1l-33 -3l-8 -3q4 -1 10.5 -1.5t13 -2t12 -3
t7.5 -5.5v-7v-2v-5.5t-1 -4.5t-2 -2h-37q-2 0 -2.5 -2t-0.5 -3q0 -4 2 -5.5t6 -2.5h6.5t9 -0.5t9 -0.5h5.5q2 -1 4.5 -2.5t2.5 -4.5t-3 -3q-10 0 -20 1.5t-20 1.5v-14q0 -2 -2 -2.5t-3 -0.5q-2 0 -3 1t-1.5 2.5t-0.5 4.5v3q0 4 0.5 7.5t0.5 7.5t1 8t2 9q1 1 3.5 2t3.5 1h29
q1 0 1.5 1t0.5 2v1v1q0 3 -0.5 5t-4.5 3q-9 0 -17.5 1.5t-15.5 3.5q-6 4 -6.5 10.5t-0.5 12.5q0 7 0.5 14t2.5 13q1 1 2 2.5t2.5 3.5t3 3.5l1.5 1.5q0 3 -2 3q-16 1 -29 2t-27 5q-3 7 -4 15.5t-1 16.5v12t1 14t4 11.5t11 4.5q9 0 18.5 -1t19.5 -1h2h3.5h3.5h1zM111 209
q0 -1 -1 -5t-1 -5v-0.5v-1.5t0.5 -2t1.5 -2q9 0 18.5 -1t18.5 -1h12q2 2 2 5v5v3.5v2.5q0 1 -0.5 1.5t-1.5 0.5q-6 2 -12 2h-12h-12t-13 -2zM108 179v-4.5t3 -2.5q9 -1 18 -3t18 -2h4.5h4.5q3 2 3.5 5.5t0.5 7.5v3q-3 1 -7 1.5t-9 0.5h-7.5h-6.5h-21q-2 -1 -1.5 -3.5z
M54 157q0 3 1 3.5t4 0.5q4 0 6.5 -1.5t5 -3.5t5 -4.5l5.5 -5.5q2 -2 5.5 -4t7 -4.5t6.5 -4.5t6 -3q3 -2 5.5 -2.5t5.5 -1.5l6 -2l6 -2q2 -2 3 -4t1 -5q0 -8 -2 -13t-5 -8t-7 -3.5t-7 -1t-5.5 -1.5t-2.5 -3q0 -3 2.5 -4t6 -1.5t8 -1t8 -2t5.5 -4.5t2 -9v-3.5t-0.5 -3
t-1.5 -2.5t-2 -1q-4 0 -4.5 2.5t-1 6t-3 6.5t-10.5 3h-7l-1.5 -1.5t-0.5 -2.5q0 -4 3.5 -5.5t6.5 -3.5q2 -1 2 -3t0.5 -4t0.5 -3.5t2 -2.5q1 -1 4 -1.5t7 -1.5t7 -2t3 -2q0 -2 -1.5 -3t-3 -1t-3 -0.5l-1.5 -0.5h-6q-5 1 -12 1t-14 0.5t-14.5 1t-13 0.5t-9.5 0.5l-4 0.5l-3 1
l1 2.5t2 2.5h27v15l2 1t4 1.5t4 2.5t2 5q0 1 -0.5 2.5t-1.5 1.5h-6q-7 0 -10 -3t-4 -6.5t-2 -6.5t-4 -3q-2 0 -3 0.5t-1 3.5v5t0.5 8t2 7t5.5 3h19q3 0 4 2.5t1 4.5t-3.5 4t-8.5 3.5t-11 3t-11.5 4t-9 5.5t-3.5 7q0 2 0.5 2.5t3.5 0.5l1.5 -0.5t2.5 -0.5t2 -1t2.5 -1.5
t2.5 -1l1 -0.5h2q2 0 3 1t2 3q3 6 4 10t1 10q0 4 -4 6.5t-8.5 5t-8 5t-3.5 6.5zM80 108q0 -3 2 -6t7 -3q2 0 4.5 2.5t3.5 6.5t2 7.5t1 4.5q0 5 -3 8t-8 3q-2 0 -3.5 -2.5t-2.5 -6.5l-2 -8t-1 -6zM108 120q-2 -3 -3 -5.5t-1.5 -4.5t-0.5 -4v-5v-5t4 -2q6 0 10.5 4t4.5 11
q0 5 -2.5 9t-8.5 4q-1 0 -2 -0.5t-1 -1.5zM92 45q0 -2 1 -2.5t3 -1t4 -0.5h2h3h3q1 1 1 1.5v2.5q0 3 -3 4.5t-5 1.5q-3 0 -6 -1t-3 -5zM79 20q0 2 2 2.5t4 0.5h4q2 0 7.5 -0.5t11.5 -1t11.5 -0.5t7.5 -1q1 0 1.5 -1t0.5 -2q0 -2 -1 -2.5t-2.5 -0.5h-3.5h-2h-5h-8t-9.5 0.5
l-9 1t-7 1.5t-2.5 3z" />
</svg>
