<?xml version="1.0" standalone="no"?>
<!DOCTYPE svg PUBLIC "-//W3C//DTD SVG 1.1//EN" "http://www.w3.org/Graphics/SVG/1.1/DTD/svg11.dtd" >
<svg xmlns="http://www.w3.org/2000/svg" xmlns:xlink="http://www.w3.org/1999/xlink" version="1.1" viewBox="-10 0 266 256">
   <path fill="currentColor"
d="M98 247q1 2 2 3t3 1t3.5 -2t1.5 -4q0 -16 -1.5 -32t-1.5 -32q0 -3 -0.5 -8t0 -10.5t1 -10t2.5 -6.5q1 -2 3.5 -3t5 -1.5t4 -1.5t1.5 -4h-4h-6h-6.5h-4.5t-3.5 -1l-2.5 -1v-34q0 -1 0.5 -1.5t1.5 -0.5l1.5 0.5t2.5 1.5q1 0 2 0.5t2 0.5l3 3t4.5 4t4.5 4l3 3h1q2 0 3 -1.5
t1 -3.5q0 -7 -5 -10.5t-10.5 -6.5t-10 -6.5t-4.5 -11.5q0 -1 -0.5 -3t2.5 -3h3.5t6 -0.5t6 -0.5h3.5l4 -2t2 -3q0 -4 -4 -4h-2l-2.5 0.5t-5.5 0.5t-5.5 0.5l-2.5 0.5h-1q-4 0 -8 -1t-7 -2.5t-4.5 -4t-1.5 -7.5v-2.5v-1.5l38 -5v0v-1v-2t-1 -2h-9h-8l-1.5 0.5t-3.5 0.5
t-3.5 0.5l-1.5 0.5h-4q-2 0 -3.5 -0.5l-1.5 -0.5v-13q0 -1 -1.5 -1.5t-2.5 -0.5q-2 0 -4 1t-3 3v7v9t0.5 10t2 9.5t6.5 6.5q1 2 2.5 2.5t2.5 1l2 1t3 2.5v3.5v3.5q0 8 -5.5 13t-12.5 8.5t-12.5 7t-5.5 7.5q0 1 1 1q0 1 1.5 2l1.5 1q3 1 7 -1t8 -5.5t7 -7t5 -4.5l0.5 -0.5
l0.5 -0.5q4 0 4 4v33l-2 1h-19t-19 2v2v2t1 2h17l2 4v2.5t0.5 6.5t0.5 8v7v1q0 17 -1 34t-4 34v1.5v1.5q0 2 1 3t3 1q4 0 6 -4.5t3.5 -10.5t1.5 -12v-9v-5v-11v-10v-6l0.5 -3t0.5 -6t0.5 -6l0.5 -3v-17q2 -3 4.5 -3.5t5.5 -0.5h1h2t2 0.5t2 1.5q1 25 1.5 51.5t-0.5 51.5z
M156 191v58q0 1 1.5 1.5t2.5 0.5q3 0 4.5 -4t1.5 -7v-106q1 0 3.5 -1t3.5 -1q6 4 10 11t5 16t1 19v19.5t-0.5 18.5t0.5 14l1.5 1.5l0.5 0.5h1q2 0 3.5 -2.5t2.5 -4.5v-5v-8.5v-7.5v-6q0 -15 -0.5 -29.5t-4.5 -29.5q-2 -6 -6 -9.5t-8 -5.5t-7.5 -3.5t-3.5 -2.5v-21l1 -2
q1 0 3 -0.5t4.5 -1.5t5.5 -2t4 -1h2q6 0 8.5 3.5t4 7.5t3.5 7.5t7 3.5q2 0 3 -1t1 -4q-1 -8 -3.5 -11t-5 -5.5t-4.5 -5t-3 -7.5v-6.5v-8.5v-9.5v-6.5q0 -5 -3 -7t-7.5 -3t-9.5 -0.5t-8 0.5q-1 -2 -1.5 -3.5t-0.5 -3.5t1 -4t1 -5t-1.5 -6.5t-3.5 -3.5t-3.5 1t-2.5 3v11t-2 11
l-2 2q-5 0 -10.5 1t-9.5 6l2 1h18q2 0 2.5 1.5t1 3.5t0.5 3.5v2.5q0 2 -0.5 3.5t-3.5 2.5q-1 0 -3.5 0.5t-6 0.5t-6.5 0.5t-4 0.5t-3.5 1t-2.5 3q0 3 2 3h3q5 0 10.5 -1t10.5 -1v0q1 1 2.5 2t1.5 2v11q0 3 -4 3.5t-9 0.5q-4 0 -8 0.5t-4 2.5q0 1 0.5 2.5l0.5 1.5h19l3 3v22
l-1.5 0.5t-1.5 1.5q-8 2 -11.5 8t-6 13t-3 15t-1.5 14q-1 12 -4 23t-3 24q0 2 0.5 3t3.5 1q1 0 3 -1.5t2 -3.5v-24q2 -1 3 -6t2 -12.5t1.5 -16t2 -15.5t4 -11.5t7.5 -4.5l1 2t2 5t1.5 6t0.5 4q0 2 -1 4.5t-1 5.5v2v2t0.5 3t1 3.5t0.5 2.5t-0.5 4l-1 6l-1 6t-1.5 5zM168 79
q0 -2 0.5 -3.5t3.5 -1.5q1 0 3 0.5t3.5 1t3 1.5t1.5 2q0 4 -3.5 6t-6.5 2q-4 0 -4.5 -2t-0.5 -6zM168 56q0 -6 2.5 -9t8.5 -3t9 4t3 9v4q0 2 -0.5 3.5t-1.5 3t-3 1.5q-3 0 -6 -0.5t-6 -2.5t-4.5 -4.5t-1.5 -5.5z" />
</svg>
