<?xml version="1.0" standalone="no"?>
<!DOCTYPE svg PUBLIC "-//W3C//DTD SVG 1.1//EN" "http://www.w3.org/Graphics/SVG/1.1/DTD/svg11.dtd" >
<svg xmlns="http://www.w3.org/2000/svg" xmlns:xlink="http://www.w3.org/1999/xlink" version="1.1" viewBox="-10 0 266 256">
   <path fill="currentColor"
d="M173 160q3 0 6 7t5.5 17t4.5 21.5t4.5 21.5t4.5 17t4 7t3.5 -1.5t2.5 -3.5q-2 -9 -3.5 -18.5t-4 -19.5t-5.5 -19t-7 -17q0 -1 -0.5 -2.5t-1.5 -3.5t-1.5 -4t-0.5 -3l-0.5 -0.5l-0.5 -0.5q0 -2 2.5 -3.5t5.5 -3t5 -3.5t2 -5v-25q0 -4 -3.5 -7t-7.5 -5t-9 -3t-7 -1t-2 -2.5
v-3.5q0 -5 1 -8.5t1 -8.5q0 -7 -1 -14.5t-1 -14.5q0 -3 1 -5t4 -2q6 0 11 6t9 12.5t6.5 12.5t3.5 6q2 0 3.5 -2.5t1.5 -4.5q0 -9 -6 -16t-13.5 -13t-14 -10t-6.5 -6v-1v-1l1 -2.5t1 -3.5q0 -3 -2 -5.5t-5 -2.5t-4 1.5t-1 4.5t0.5 5.5t-0.5 4.5q0 1 -1 2.5t-2.5 3.5t-3 3.5
t-2.5 1.5l-7.5 10t-9 13t-7.5 13.5t-3 10.5q4 0 7.5 -3.5t7 -8.5t6.5 -11l5.5 -11t5.5 -8t6 -2v2v1v15t-0.5 17t-1 14l-0.5 6l-1 4h-27l-1 2.5t-1 3.5l1 1l1 1h37q4 3 7.5 4t6.5 2.5t5 4t2 8.5q0 2 -0.5 5t-1.5 6t-2.5 5.5t-4.5 2.5q-2 0 -3 -2t-2.5 -3.5t-3 -3.5t-2.5 -3
q-3 -2 -8.5 -3.5t-11 -2t-11.5 -0.5h-9h-1q-1 0 -2 1.5t-2 1.5v1v1q1 0 1.5 1.5l0.5 1.5l37 3q3 0 5.5 3.5t2.5 6.5q0 2 -1.5 3t-5.5 1l-33 4q-2 0 -2.5 0.5t-0.5 1.5q0 3 2.5 4t4.5 1q10 0 17.5 -1.5t16.5 -2.5q1 0 2 -0.5t2 -0.5zM73 197q0 3 1.5 11l3 16t4.5 14.5t6 6.5
q2 0 5 -2t3 -4v-1l-0.5 -1t-1 -2.5l-1 -3l-0.5 -1.5q-1 -2 -2.5 -6t-2.5 -8t-2 -6.5t-1 -3.5l-0.5 -1.5t-0.5 -2.5v-4v-3q0 -9 2.5 -15.5t5.5 -12t7.5 -11.5t9.5 -13q1 -2 2.5 -6.5t2 -9.5t1 -9.5t0.5 -7.5v-3v-7v-7v-7v-4v-7.5v-7.5v-4q-2 -9 -4.5 -14.5t-7 -9t-10.5 -5
t-15 -1.5h-3q-10 3 -16 8.5t-9 13t-4 16t-1 18.5v3v4.5v5.5v4v4v5.5v4.5v3t0.5 6t1 10.5l1 11t0.5 8.5q0 1 0.5 3.5t1 5.5t2 5t3.5 2q4 0 5 -2t1 -5q0 -7 -1 -13.5t-2.5 -13.5l-3 -14t-1.5 -14v-3v-4v-4v-3h6l1.5 1t3.5 3t3.5 4t2.5 3q2 2 3 5.5t3 7t4 6t5 2.5t3 -2.5v-4.5
q0 -4 -2.5 -8.5t-6 -9.5t-7.5 -9l-6 -6q-3 -1 -5 -2t-3.5 -1.5t-2.5 -2t-1 -4.5q0 -2 0.5 -4.5t1 -5.5t2 -5t3.5 -2q7 0 11.5 4t8 9.5t7 10.5t8.5 6q2 1 2.5 -1t0.5 -3q0 -9 -5.5 -15t-13 -10.5t-13.5 -7.5t-6 -5q-1 -4 2 -5.5t7 -2.5t8 -1.5t5 -0.5h4.5h5.5q4 1 6.5 5t4 9
t2.5 9.5t1 8.5q0 1 0.5 4.5t0.5 7.5t0.5 8.5t0.5 5.5v5q0 10 -3 18t-7 15.5t-8.5 14t-8.5 13.5t-6.5 14.5t-2.5 16.5z" />
</svg>
