<?xml version="1.0" standalone="no"?>
<!DOCTYPE svg PUBLIC "-//W3C//DTD SVG 1.1//EN" "http://www.w3.org/Graphics/SVG/1.1/DTD/svg11.dtd" >
<svg xmlns="http://www.w3.org/2000/svg" xmlns:xlink="http://www.w3.org/1999/xlink" version="1.1" viewBox="-10 0 266 256">
   <path fill="currentColor"
d="M125 246q0 3 2.5 4t5.5 1q1 0 2 -4t2.5 -9.5l3 -11t2.5 -8.5q5 -9 11.5 -13t11.5 -8.5t8.5 -11t3.5 -19.5q0 -9 -1.5 -18.5t-6 -17.5t-11 -13t-17.5 -5q-19 0 -30 7.5t-17 19.5t-8 27.5t-2 30.5q0 1 0.5 3l1 4t2 3t3.5 1q1 -1 2 -3t2 -3q0 -2 0.5 -6.5t0.5 -9.5t0.5 -9
t0.5 -6v-3.5t0.5 -4.5t0.5 -3v-1l3 -2l2.5 1.5t3.5 3.5q1 0 1.5 0.5l0.5 0.5q0 1 1 3l2 4t2 3.5l1 1.5q0 1 0.5 3t1 4.5t1 4.5l0.5 2q1 3 2 3.5t3 0.5t3 -1t1 -3v-1q0 -2 -0.5 -4t-0.5 -3.5t-0.5 -3.5l-0.5 -2l-21 -32v-1v-1q0 -2 1 -4.5t3 -4t3.5 -3.5t3.5 -3h2q2 0 6 4.5
t8.5 10.5t8 12t4.5 9v4q0 2 0.5 5t1.5 5t4 3q1 -2 1 -4v-4q0 -7 -2 -14.5t-5 -13.5q-2 -2 -4 -4.5l-4 -5t-3 -5t-1 -5.5t2.5 -3.5t4.5 -0.5q9 0 14.5 4.5t8.5 12t4 15.5t1 15q0 9 -2.5 15.5t-7 11.5t-10.5 9t-12 9l-2 1q-5 7 -7 16t-2 18zM104 97q6 3 14 5.5t15 2.5
q5 0 10.5 -1.5t9.5 -4t7 -6.5t3 -10q0 -4 -2 -7.5t-4.5 -6.5t-6.5 -4.5t-8 -1.5q-2 0 -5 1t-3 4t3 3.5t6 1.5t6 3t3 9q0 4 -1.5 6.5t-4.5 4t-6.5 1.5h-6.5q-4 0 -8 -0.5t-7 -2t-5 -4t-2 -7.5q0 -4 3 -7l6.5 -6.5t7.5 -6.5t6 -6q1 -2 2 -5t2.5 -6t3 -5.5t4.5 -2.5l0.5 0.5
t1.5 0.5q2 0 6.5 1.5t10 3.5t10 3.5t6.5 2.5q3 0 5.5 2t5 4.5t4.5 4t5 1.5t4 -1t1 -4t-4 -6.5t-10.5 -6t-14.5 -5t-15 -4.5t-13 -3t-9 -1q-1 -1 -1.5 -2t0 -2t0.5 -2t-1 -3q-1 -5 -4 -7.5t-7.5 -3.5t-8.5 -1h-8h-4t-6 0.5t-5.5 1t-4.5 1.5l-2.5 1l-2.5 1q0 1 1 2.5l1 1.5h7
q6 0 10.5 -1t9.5 -1q6 0 11 3t5 10q0 1 -0.5 1h-0.5l-1 0.5t-2 0.5q0 1 -2.5 1t-5.5 0.5t-5.5 1l-2.5 0.5q-1 1 -3 2t-4.5 2.5t-5 2.5t-3.5 1l-9 4.5l-15 7.5t-14 8t-6 8q0 2 0.5 3.5t2.5 1.5q4 0 7 -1.5t6 -3.5t5.5 -4.5l4.5 -4.5q3 -3 9.5 -7t13.5 -7.5t14 -6.5t12 -3
q1 0 1.5 0.5l1.5 1.5v3v3q0 7 -4.5 12t-10 8.5t-10 8t-4.5 11.5q0 3 1 6.5t4 4.5z" />
</svg>
