<?xml version="1.0" standalone="no"?>
<!DOCTYPE svg PUBLIC "-//W3C//DTD SVG 1.1//EN" "http://www.w3.org/Graphics/SVG/1.1/DTD/svg11.dtd" >
<svg xmlns="http://www.w3.org/2000/svg" xmlns:xlink="http://www.w3.org/1999/xlink" version="1.1" viewBox="-10 0 266 256">
   <path fill="currentColor"
d="M109 252q1 1 2.5 1.5l1.5 0.5h1h1q0 -1 2.5 -3t3.5 -3q0 -1 1 -2l1 -1v-24q0 -2 2.5 -4.5t5.5 -5t6 -4l5 -2.5q1 -1 4 -2l6 -2l6 -2t5 -2q2 -3 5.5 -5t5.5 -7l0.5 -2t0.5 -3.5v-3.5v-2q0 -10 -3 -19t-8.5 -16.5t-13.5 -11.5t-19 -4h-0.5h-0.5q-1 0 -2.5 1t-2.5 1
q-12 3 -21 8t-14 12.5t-7 18t-2 23.5v6t1.5 9t3.5 8.5t5 3.5q2 0 4 -3t2 -5q0 -7 -2.5 -13.5t-2.5 -12.5v-5t0.5 -5.5t2 -4.5t4.5 -2l0.5 0.5t0.5 1.5q1 1 2 3l2.5 5t3 5t1.5 3q1 2 1.5 4t1.5 4.5t2.5 4t4.5 1.5q2 0 3.5 -2t1.5 -5q0 -5 -3 -10.5t-6.5 -10.5l-7 -10t-3.5 -9
q0 -2 1.5 -4t3.5 -3l4 -2t3 -1q5 0 8 3.5t5.5 8.5t4 11t3.5 11t4 8.5t4 3.5q3 0 3.5 -3t0.5 -5q0 -4 -1.5 -8.5t-3.5 -9.5t-4.5 -9.5t-5.5 -7.5v-1v-1q0 -4 4 -4q6 0 10 3t7 8t4.5 10.5t1.5 9.5q0 8 -0.5 12t-2.5 6.5t-6 4t-10 4.5q-10 4 -16 8t-10 9.5t-5.5 13t-1.5 18.5v5
v5zM85 107q14 1 26.5 2.5t24.5 4.5t24 7.5t23 10.5h1h1q2 0 3 -2t1 -4q0 -7 -7 -10q-3 -1 -7 -3t-8 -3.5t-7 -3l-3 -1.5q-3 -1 -8 -1t-9 -1t-7 -3t-3 -7t3.5 -7t8 -2.5t10 0t7.5 1.5q4 -2 5.5 -5t2 -6.5t0.5 -7v-6.5q0 -4 -1.5 -6t-5.5 -2h-3q-2 1 -2 5t-0.5 7.5t-1 6.5
t-2.5 3h-18l-3 -3v-18l1 -0.5t2 -0.5q2 -1 5.5 -1.5t7 -0.5t7 -0.5t5.5 -0.5q6 -4 7 -10.5t1 -12.5q0 -10 -4 -14.5t-10 -6t-14 -1.5h-16q-9 0 -16 0.5t-11.5 3t-7 8t-2.5 15.5q0 2 0.5 4.5t1.5 5.5t2.5 5t3.5 2h23l2 4v2v3v4v3q0 8 -0.5 17t-5.5 17h-2.5h-2.5h-5t-6.5 -1
t-5.5 -2t-3 -3q-3 -18 -2 -36q-1 -3 -2 -3.5t-4 -0.5q-6 0 -6.5 3t-0.5 7q0 10 0.5 18t0.5 18q2 4 5.5 5t6.5 4zM112 15h4h6.5t9.5 0.5t9.5 0.5h6.5q1 1 2 1.5t2 1.5v3.5v3.5q0 5 -1.5 8t-4.5 5t-7.5 2.5t-8.5 0.5q-1 0 -6 -1t-10.5 -2t-10 -2t-4.5 -2v-16q0 -1 1.5 -2
t3.5 -1.5t4.5 -0.5h3.5z" />
</svg>
