<?xml version="1.0" standalone="no"?>
<!DOCTYPE svg PUBLIC "-//W3C//DTD SVG 1.1//EN" "http://www.w3.org/Graphics/SVG/1.1/DTD/svg11.dtd" >
<svg xmlns="http://www.w3.org/2000/svg" xmlns:xlink="http://www.w3.org/1999/xlink" version="1.1" viewBox="-10 0 266 256">
   <path fill="currentColor"
d="M76 244q1 3 2.5 5t4.5 2q4 0 5 -2t1 -6q0 -9 -2.5 -17.5t-2.5 -18.5q0 -7 2 -12t5 -9.5l6 -9t6 -10.5q5 -12 6.5 -25t1.5 -27v-13.5v-18t-1.5 -20t-4.5 -18.5t-8.5 -13.5t-14.5 -5.5q-8 0 -12 3t-6.5 7.5t-4 10t-4.5 10.5q-4 22 -6 44t-2 45v18q1 3 2 5t4 2q4 0 5.5 -2.5
t1.5 -6.5v-2.5v-2.5q0 -2 -0.5 -8t-0.5 -12.5t-0.5 -12.5t-0.5 -8l1.5 -1.5t2.5 -0.5q4 0 6 4.5t3.5 10t3.5 10t5 4.5q2 0 3 -1t1 -3q0 -8 -3.5 -14t-8 -12t-8 -12t-3.5 -13v-4.5t1 -5t2 -4t3 -1.5q3 0 6 4.5t5.5 10t4.5 10t4 4.5q3 0 3 -2v-4q0 -8 -3 -13.5t-7 -10.5
t-7.5 -9t-3.5 -9q0 -6 4 -11t10 -5h4q2 0 3 2l8 14q0 2 0.5 7t1 10.5t1 10t0.5 6.5q0 1 1 3t1 3v0v1q0 4 -0.5 10.5t-0.5 12.5t-0.5 10.5l-0.5 4.5q0 1 -0.5 4.5l-1 7t-1 6t-0.5 3.5q-3 8 -7 14.5t-7.5 13t-6.5 14t-3 16.5v8v7.5t0.5 8t1.5 9.5zM106 206q0 2 2 3.5t4 1.5h2
h10.5t16.5 -0.5t19 -1t19.5 -1t16.5 -0.5h11q2 0 2.5 -1t0.5 -3q0 -3 -3 -5h-3h-4q-7 0 -14 1t-15 1v0q-2 0 -4 -1t-3 -1l-0.5 -0.5t-0.5 -1.5v-17l0.5 -0.5l0.5 -0.5q3 -3 7.5 -4l9 -2t7.5 -2t5 -5l0.5 -2.5t1.5 -5t1.5 -4.5t0.5 -3q1 -3 1.5 -12t1.5 -18.5t1.5 -18
t0.5 -11.5v-14v-14q-1 -2 -2.5 -4.5t-4.5 -2.5q-1 0 -2 0.5t-2 1.5q0 9 0.5 19t0 20.5t-1 20.5t-2.5 19q0 1 -1 2t-1 2v4v6v5.5t-1 4.5q-2 3 -6.5 4.5t-7.5 1.5q-4 0 -4.5 -3t-0.5 -6q0 -5 2.5 -7t5.5 -3.5t5.5 -3.5t2.5 -8q0 -7 -2.5 -14t-5 -14.5t-5 -14.5t-2.5 -14
t3 -14.5t6.5 -15t6.5 -15t3 -14.5q0 -2 -1 -4.5t-4 -2.5t-5 6t-4.5 13l-5 14t-5.5 9q-2 -4 -4 -11.5t-4.5 -14t-6.5 -11.5t-10 -5q0 5 2 12t4.5 14.5l5 15t4.5 12.5q1 3 2.5 5t1.5 6q0 7 -2 14t-5.5 14t-5.5 14t-2 14q0 9 2 11.5t5 2.5h6t2 4v1v3.5t-0.5 5t-0.5 5v3.5h-2
q-6 0 -11 -3.5t-7.5 -8.5t-3.5 -11.5t-1 -12.5v-74h-7l-0.5 6t-1 14l-1 16t-0.5 11v11q0 1 0.5 2.5t0.5 3t0.5 3t0.5 2.5q0 8 0.5 16.5t2.5 16t7 11t16 2.5q4 3 4 6.5v7.5v6t-2 6q-10 1 -21 1.5t-21 0.5q-2 0 -2 1v2zM148 132q0 -4 1.5 -8l3 -8l3 -8t2.5 -7h1q2 0 4.5 4.5
t4 10l3 11t1.5 7.5t-2 4l-3 3h-7q-5 0 -8.5 -1t-3.5 -8z" />
</svg>
