<?xml version="1.0" standalone="no"?>
<!DOCTYPE svg PUBLIC "-//W3C//DTD SVG 1.1//EN" "http://www.w3.org/Graphics/SVG/1.1/DTD/svg11.dtd" >
<svg xmlns="http://www.w3.org/2000/svg" xmlns:xlink="http://www.w3.org/1999/xlink" version="1.1" viewBox="-10 0 266 256">
   <path fill="currentColor"
d="M55 208v8t1.5 14.5t3.5 14t6 6.5t5.5 -3t1.5 -7q0 -9 -2.5 -18.5t-2.5 -19.5q0 -8 0.5 -14t2.5 -12t5 -12t7 -12q3 -4 6.5 -8.5t5.5 -9.5q4 -10 5 -19.5t2 -19.5q1 -6 2 -10t1 -9v-18.5t-2.5 -20.5t-7.5 -17t-16 -7q-13 0 -20.5 7t-11.5 17.5t-5.5 22.5t-2.5 22
q0 1 -0.5 3t-1.5 2v54q0 4 1.5 4.5t3.5 0.5q4 0 5.5 -4t1.5 -8v-2.5t-0.5 -4.5t-0.5 -4.5v-2.5v-5v-8v-7.5v-4.5q4 0 6 2.5t2.5 6t0.5 7.5t0.5 7.5t2 6t5.5 2.5q6 0 6 -7q0 -3 -1 -9t-3 -12.5t-4.5 -12.5t-4.5 -10q-2 -1 -3.5 -2t-2.5 -2.5l-2 -3t-1 -3.5t0.5 -5.5t2 -6.5
t3 -5t4.5 -2v0q5 4 8 8.5t4.5 9.5t2.5 10t3 11q0 2 2 3l2 1h2q2 0 4 -2t2 -4q0 -5 -3 -12.5t-6.5 -15t-7.5 -14t-7 -8.5v0v-1q0 -3 1.5 -4.5t3.5 -2.5t4.5 -1h4.5q3 0 5 1.5t4 3.5t3 4.5t2 5.5q1 1 1 4t0.5 7t0.5 7.5v4.5q0 11 -0.5 22t-2 21t-5.5 20t-10 18l-2 2t-2 2.5
l-2 3l-1 1.5q-8 12 -11.5 26.5t-3.5 28.5zM162 240v6t4 3q3 0 6 -1.5t3 -5.5v-150q0 -1 -3 -1.5t-6.5 -1t-7.5 -1t-5 -0.5q-6 0 -8.5 2t-3.5 5.5t-1 7.5v9q-2 18 -2.5 36t-1.5 36q0 13 -1.5 27t-1.5 27v2q0 1 1.5 3.5t1.5 3.5h1q1 0 2 -1l2.5 -2.5t2.5 -3t1 -2.5v-58v-7.5
v-15.5t0.5 -19.5t1.5 -19.5t3 -15t6 -6q3 0 6.5 1.5t2.5 7.5v8v10.5v10.5v7v23v19.5t-0.5 19.5t-1.5 23q-1 4 -1 6.5v6.5zM168 65h6t10 1t9 2.5t4 3.5v76l1 1l1 1q4 0 6.5 -4t2.5 -7v-71q0 -6 -5.5 -9t-12.5 -4t-14.5 -1h-10.5l-3 -4v-2v-3t-0.5 -4.5t0 -6.5l1 -6t2.5 -3
l48 -3l0.5 -1t1.5 -1v-1v-1q-1 0 -1.5 -1.5t-0.5 -2.5h-3t-4 -0.5l-4 -1t-3 -0.5h-2q-20 0 -40 1t-40 3q-3 0 -5.5 1.5t-2.5 5.5h41v31q0 1 -2.5 2t-6.5 1.5t-9 1t-9 3t-7 6t-4 9.5v4v6.5v6.5v3v2.5t-0.5 4t-0.5 4.5v2q0 2 -0.5 7t-0.5 10.5v10.5v7q3 0 6 -1t5 -3v-6
t0.5 -8.5l1 -9t0.5 -5.5q0 -5 -1 -12t-0.5 -14t3.5 -12t9 -6q9 -1 17 -2t17 -1z" />
</svg>
