<?xml version="1.0" standalone="no"?>
<!DOCTYPE svg PUBLIC "-//W3C//DTD SVG 1.1//EN" "http://www.w3.org/Graphics/SVG/1.1/DTD/svg11.dtd" >
<svg xmlns="http://www.w3.org/2000/svg" xmlns:xlink="http://www.w3.org/1999/xlink" version="1.1" viewBox="-10 0 266 256">
   <path fill="currentColor"
d="M89 242q0 2 1.5 5.5t4.5 3.5q4 0 5 -3t1 -6q0 -4 -1 -7.5t-1 -7.5q0 -9 3 -15t7.5 -10.5t10 -8.5t10 -8t7.5 -9.5t3 -13.5v-1q0 -2 -0.5 -6t-1 -8.5t-1 -8.5t-0.5 -6l-4.5 -9t-6.5 -9t-8.5 -6.5t-10.5 -2.5h-3l-23 8q-5 2 -9 7t-6.5 12.5t-5 15.5t-3.5 16t-1.5 15
t-0.5 11v8q0 2 2 2h3q3 0 5 -3.5t2.5 -8.5t0 -11t0 -11t2 -8.5t4.5 -3.5q2 0 4 2l3.5 3.5t3 3.5l1.5 2q0 1 1 4t2.5 6t2 5.5t1.5 3.5l0.5 0.5l0.5 0.5q3 0 4 -2.5t1 -5.5q0 -8 -4 -14t-8.5 -11t-8.5 -8t-4 -5q0 -5 2.5 -9t7.5 -4q7 0 10.5 6t6.5 13.5t5.5 13.5t5.5 6t5 -2.5
t2 -4.5q0 -3 -4.5 -10t-9.5 -13.5t-9.5 -12t-4.5 -6.5t2 -1.5t5 -1t5 -0.5h3q8 0 12.5 5t6.5 12t3 14t1 12v3v4v4v3q-4 6 -8.5 10t-9.5 8t-9 8t-6 9q-1 0 -1.5 1.5l-1 3t-1.5 3t-1 2.5t-0.5 4.5t-0.5 7.5t-0.5 7.5t-0.5 5.5v2zM152 206v7.5t1 14.5t2.5 14.5t4.5 6.5
q5 0 6 -3t1 -6q0 -13 -2 -25.5t-2 -25.5v-5q1 -1 1 -4.5t0.5 -7l1 -7t0.5 -4.5l1.5 -1.5l0.5 -0.5h0.5h0.5q3 0 6.5 4.5t6.5 10t5.5 9.5t3.5 4h14l0.5 -1t0.5 -2v0q0 -3 -5 -8.5t-11 -12t-10.5 -12.5t-4.5 -10q0 -2 2.5 -3.5t4.5 -2.5l19 -19q1 0 1.5 -2l0.5 -2q0 -3 -2 -4
t-4 -1q-3 0 -6 2t-6 5.5t-5.5 6.5t-4.5 5h-1h-1q-3 0 -4.5 -2t-2.5 -4v-4t-0.5 -6.5t-0.5 -6.5v-4v-2v-3q11 -1 21.5 -1h22.5q0 -6 -4 -8t-9 -2l-2 0.5t-4.5 0.5t-4 0.5t-2.5 0.5h-2h-4h-4h-3h-4.5h-3.5l-2 -2v-12q0 -1 0.5 -1.5t1.5 -0.5q1 -1 3 -1.5t3.5 -0.5h3.5t5 -1
l2.5 -0.5t5 -1.5t5 -1.5t3.5 -1.5q3 -2 4 -5.5t1 -6.5q0 -2 0.5 -7t0 -9.5t-2 -8t-5.5 -3.5q-3 0 -4 3t-1 7v9t-1.5 9t-5.5 6.5t-12 2.5q-3 0 -3.5 -2t-0.5 -5q0 -8 2 -15.5t2 -14.5q0 -3 -1.5 -7t-5.5 -4l-1 0.5l-1 0.5q0 4 -1 7t-1.5 5.5t-1 6t-1.5 7.5q0 2 0.5 4.5
t0.5 6.5v6v4q-6 0 -11 -1t-10 -1h-1l-2 0.5t-4.5 0.5t-4.5 0.5l-2 0.5h-1h-2q-4 0 -5 -3t-1 -6q0 -4 3.5 -5.5t8 -2t9 0t6.5 0.5l1.5 -1t1.5 -2v-1v-1l-0.5 -1.5t-1.5 -1.5h-24l-0.5 -2.5t-1.5 -3.5v-3t-0.5 -4t-0.5 -4v-3q-3 -4 -7 -4q-2 0 -2.5 1.5t-0.5 2.5q0 5 0.5 8.5
t0.5 8.5q0 1 -0.5 3.5t-2.5 2.5h-1t-2 -0.5t-2 -0.5h-1h-9h-10.5t-10.5 1q-2 1 -2.5 2t-0.5 3v2t1 1h33q3 0 4 2.5t1 4.5v1v3t-0.5 2.5l-0.5 1.5h-32l-0.5 0.5l-1 1t-0.5 3v3.5h35v17l-1 2h-2.5t-5.5 0.5t-6 0.5h-5h-24q-3 1 -4.5 2t-1.5 4t1.5 3.5t4.5 0.5q18 0 35.5 -2
t34.5 -2h5h8h7h5q3 3 4.5 6.5t2 7.5l1 8t0.5 7l1 2.5l2 5t1.5 5t0.5 3.5q1 0 1 1v2q0 5 -2 8t-5 8q-1 2 -1.5 9t-1 14.5t-1.5 14t-1 9.5v1zM109 66h39l4 3v18h-44z" />
</svg>
