<?xml version="1.0" standalone="no"?>
<!DOCTYPE svg PUBLIC "-//W3C//DTD SVG 1.1//EN" "http://www.w3.org/Graphics/SVG/1.1/DTD/svg11.dtd" >
<svg xmlns="http://www.w3.org/2000/svg" xmlns:xlink="http://www.w3.org/1999/xlink" version="1.1" viewBox="-10 0 266 256">
   <path fill="currentColor"
d="M112 246q0 3 1.5 4t4.5 1q2 0 3.5 -0.5t2.5 -2.5q0 -4 0.5 -10t1.5 -10q2 -6 5.5 -10t8 -6.5t9 -5.5t8.5 -7t6 -11t2 -17q0 -18 -8 -26t-26 -8q-14 0 -23 6.5t-14.5 17t-7.5 23t-2 23.5q0 3 1.5 4.5t4.5 1.5q2 0 3 -1t2 -4v-4.5v-6.5v-7v-5q0 -1 1.5 -4t1.5 -4h1v0
q5 0 7.5 3.5t4 8t3 8t5.5 3.5q2 0 2.5 -1t0.5 -4q0 -4 -1.5 -8t-4 -7.5t-6 -6.5t-6.5 -6v-3q0 -2 0.5 -4t1.5 -4t2.5 -3.5t3.5 -1.5h2h1l2 2l2.5 2.5l2.5 2.5l2 2t3 5.5t3.5 9t3 7.5t2.5 3q5 0 5.5 -2.5t0.5 -5.5q0 -6 -3 -11t-6 -9t-6 -7t-3 -5q9 0 14.5 1t9.5 4t5.5 9
t1.5 15q0 10 -4 16t-10 10.5l-12 9t-11 11.5q-3 5 -3.5 11.5t-2.5 12.5v0.5v0.5zM80 136v3t2 1t5 -1t4 -3l9 -30q0 -3 2 -3h4q3 0 6 0.5t3 4.5q0 3 -1 6t-2 5.5t-2 5.5t-1 6q4 0 7 -2.5t4.5 -6.5t2.5 -8t1 -7q0 -6 -3.5 -7.5t-7.5 -2.5t-7.5 -2.5t-3.5 -7.5q0 -3 4 -3.5
t9 -1t9.5 -3t4.5 -9.5q0 -1 0.5 -3.5t0.5 -5.5q0 -4 -0.5 -6.5t-0.5 -3.5q2 -3 4 -3.5t5 -0.5q5 0 7.5 2t3.5 5.5t1.5 7.5t1.5 8q0 1 0.5 2.5t1.5 2.5v0q0 2 -1.5 3t-3.5 2.5t-3.5 3.5t-1.5 6q0 3 2 4t5 1.5t5.5 2t2.5 4.5l-0.5 0.5l-0.5 0.5l-14 3q-1 0 -3 3t-3.5 6.5
t-2.5 7t-1 4.5q-1 2 0 2.5t2 0.5q4 0 5 -3t2 -7t2 -7t4 -3h10q1 0 1.5 2l0.5 2q0 3 -1 5.5l-2 5l-2 5t-1 5.5q0 1 1 1.5t2 0.5q4 0 6 -2t3 -5t1.5 -7t1 -7t2.5 -5t6 -2q3 0 5 1t2 4v4.5v6.5v6v4q3 0 5.5 -0.5t4.5 -3.5v-3v-4q0 -9 -1.5 -13.5t-3.5 -6.5t-5 -2t-5.5 -0.5
t-5 -1.5t-4.5 -5q0 -1 -2 -1.5l-4 -1t-4 -1.5l-2 -1q-2 -1 -2.5 -1t-0.5 -2q0 -4 3.5 -4.5t7.5 -0.5t8 -1t4 -5q0 -2 -1 -2.5t-3 -0.5q-4 0 -7 1t-6 1v0q0 -1 -0.5 -4.5t-0.5 -6.5t-0.5 -6t-0.5 -5l-0.5 -2t-2 -4.5t-3 -4t-2.5 -1.5h-19l-1.5 -1.5t-2.5 -1.5q-2 -2 -5 -3.5
l-6 -3t-5.5 -3.5t-2.5 -5q0 -2 1.5 -3.5t3 -2t4 -1t4.5 -0.5h6h8h9h6l1 -1t2 -1v-1v-1l-5 -4h-5t-8.5 0.5t-9 0.5h-5.5q-4 1 -8 1.5t-7 2.5t-5 5t-2 7t2.5 6t5.5 3.5t5.5 2.5t2.5 5q0 2 -3.5 2.5t-8 1t-9 2.5t-6.5 5q0 2 -0.5 4t-0.5 4.5v4.5v4v4v3q4 3 5.5 5t1.5 7
q0 4 -3 5.5t-7 2.5t-8.5 3t-7.5 7q0 1 -1 3t-2.5 4.5t-2.5 4.5l-1 2v3q0 3 4 3h2t3 -1q1 -4 3 -8t4 -7.5t5.5 -5t8.5 -1.5v9l-9 18q-2 1 -2 2v3zM95 65q0 -5 2.5 -8t5.5 -4.5t7 -2.5t8 -1h1.5t1.5 2v8q0 5 -0.5 8.5t-2.5 5.5t-5 2.5t-9 0.5h-7q0 -1 -0.5 -2.5t-1 -3.5
t-0.5 -3.5v-1.5z" />
</svg>
