<?xml version="1.0" standalone="no"?>
<!DOCTYPE svg PUBLIC "-//W3C//DTD SVG 1.1//EN" "http://www.w3.org/Graphics/SVG/1.1/DTD/svg11.dtd" >
<svg xmlns="http://www.w3.org/2000/svg" xmlns:xlink="http://www.w3.org/1999/xlink" version="1.1" viewBox="-10 0 266 256">
   <path fill="currentColor"
d="M72 237v6t4 3q3 0 5.5 -1.5t2.5 -5.5v-45q0 -3 1.5 -7t4 -8t4.5 -7.5t4 -6.5q1 -2 2.5 -5.5t3.5 -7.5l4 -8t2 -5q2 -12 3.5 -24.5t1.5 -24.5q0 -6 -0.5 -16.5t-3 -20.5t-7.5 -18t-12 -11q-10 -1 -17 2.5t-11.5 10t-7 14.5t-3.5 17t-1.5 18t-0.5 16v8t0.5 11.5t1 13.5
t2 12.5t3 9t4.5 3.5q2 0 3 -1t1 -3t0.5 -3.5t0.5 -2.5t-1 -4.5t-1.5 -7.5t-1.5 -7.5t-1 -4.5q0 -2 0.5 -5t0.5 -6.5v-7v-4.5q4 0 6 2.5t3.5 6t3 7.5t3.5 8t3.5 6.5t4.5 2.5q2 0 2.5 -1.5t0.5 -3.5q0 -5 -2.5 -11.5t-6.5 -12.5t-9 -11l-8 -8v-8v-9t5 -7q8 5 14 13t10 16h1
q1 0 2 -1t1 -2q0 -6 -3 -12t-6.5 -11t-8.5 -9.5t-9 -7.5v-1v-1q0 -3 1.5 -5.5t4.5 -4t6.5 -2.5t5.5 -1q4 0 6.5 4t4.5 9.5t3.5 12.5t2 14t1 13t0.5 9q0 6 -1 14t-2.5 16t-4 15.5t-5.5 12.5q-4 7 -8 13t-7 13q-5 13 -5.5 28t-0.5 28zM106 204q0 2 1.5 3t2.5 1q4 0 12 -0.5
t16.5 -1t16.5 -1.5t11 -2h39l0.5 -1.5l0.5 -1.5q1 0 1 -1v-1h-1q0 -1 -1 -2.5t-2 -1.5h-37q-2 0 -3 -2t-1 -4v-28q0 -3 2.5 -4t6 -1.5t8 0t8.5 0t6.5 -1t3.5 -3.5t1.5 -7.5t0.5 -8.5v-3q0 -1 -1 -2t-1.5 -2.5t-1.5 -2.5t-1 -2q-3 -5 -3 -11v-12q0 -9 1 -17t1 -17v-18
q-3 -6 -5.5 -8t-7.5 -2q0 5 2.5 10t2.5 11q0 10 -2 19.5t-2 19.5q0 7 0.5 13t1.5 12q1 5 3.5 10.5t2.5 9.5q0 2 -4 3.5t-11 2.5t-15 1.5t-15.5 1t-13.5 1.5t-9 2q-2 0 -2 2.5v3.5q7 0 13.5 -1t12.5 -1q4 0 4.5 2.5t1.5 6.5v2v5v5v5v6v4l-2 2l-39 4q-1 0 -2.5 1t-1.5 3z
M125 120v6q0 3 1 7.5t2 7.5t4 3t5 -4q-1 -10 -0.5 -19l1 -18t1.5 -18t1 -19q0 -2 -1 -6.5l-2 -9t-3.5 -8t-5.5 -3.5t-3 3v4q0 4 1 7t5 7v29q-3 8 -4.5 15.5t-1.5 15.5zM150 112q0 2 0.5 6.5t1 9.5t2 9t4.5 4t3.5 -2.5t0.5 -5.5q0 -5 -1 -10t-1 -11v-1l2 -12t2.5 -12.5
t2.5 -13t1 -12.5v-1q-1 -1 -1.5 -3.5t-1 -5.5t-1.5 -5.5t-1 -3.5l-3 -3t-4 -2t-2 1.5v2.5q0 8 2 15.5t2 15.5q0 4 -1 9t-2.5 10t-3 10.5t-1.5 10.5zM186 21l-62 3q-4 0 -7.5 2t-3.5 7q19 0 38 -1.5t38 -2.5h3t3.5 -0.5t3.5 -1t3 -0.5l1.5 -2t1.5 -3l-0.5 -1t-1.5 -2h-4h-6
t-7 2z" />
</svg>
