<?xml version="1.0" standalone="no"?>
<!DOCTYPE svg PUBLIC "-//W3C//DTD SVG 1.1//EN" "http://www.w3.org/Graphics/SVG/1.1/DTD/svg11.dtd" >
<svg xmlns="http://www.w3.org/2000/svg" xmlns:xlink="http://www.w3.org/1999/xlink" version="1.1" viewBox="-10 0 266 256">
   <path fill="currentColor"
d="M180 246q1 3 2 3h3q8 0 8 -7q0 -4 -2 -5.5t-3 -4.5q-5 -8 -9 -17t-4 -19q0 -5 2 -10.5t4.5 -10.5t5.5 -10.5t5 -9.5q-1 -7 -5 -10.5t-8.5 -7t-8 -6t-3.5 -7.5v-1v-1q3 0 5.5 -1t4 -2t3.5 -1.5t4 -0.5q4 0 6.5 1.5t4.5 4t4.5 4t5.5 1.5h2.5t2.5 -2v-2v-2q0 -3 -2 -5
t-4.5 -3.5l-5 -3t-2.5 -4.5l-4 -21q0 -1 2 -1.5t4.5 -1t4.5 -1.5t2 -4q0 -1 -0.5 -2t-2.5 -2h-3h-3q-7 0 -14 0.5t-14 0.5q0 -2 -0.5 -4t-0.5 -4t1 -3.5t4 -2.5h2.5t3.5 -0.5t4 -0.5h3q6 -4 7.5 -9t1.5 -12q0 -5 -0.5 -8t-5.5 -3q-4 0 -5.5 3t-1.5 6.5t-0.5 7.5t-2.5 7h-4
h-5q-1 0 -1.5 -0.5t-0.5 -1.5v-35q0 -2 -2 -2.5t-3 -0.5h-2.5t-1.5 2v5.5v9.5v9v6q0 1 -0.5 4.5t-1.5 4.5q0 1 -0.5 1.5l-0.5 0.5q-5 0 -8 -2t-4.5 -5.5t-1.5 -8v-8.5q-1 0 -3 -2t-2 -3h-1q-3 0 -4.5 2t-1.5 5q0 5 1 11.5t4 11.5q2 3 5.5 3.5l7 1t6.5 1t3 1.5v6q0 2 0.5 5
t-1.5 4q-1 0 -3.5 0.5t-5.5 1t-5.5 1t-3.5 0.5q-5 2 -6.5 5.5t-2 8t-1.5 9t-5 8.5q-1 0 -3 1.5l-2 1.5q-1 0 -2 -1t-1.5 -2.5l-1 -3l-0.5 -1.5q-1 -17 -2 -32.5t-6 -32.5q-2 -4 -6.5 -7.5t-9.5 -3.5q-11 0 -18.5 5t-11.5 13t-6 17.5t-3 18.5v7t-0.5 13t-0.5 13v8v2v7
q0 5 0.5 11.5t3 11t6.5 4.5q2 0 2.5 -1.5t1 -4t0.5 -4.5v-3q0 -10 -2.5 -19.5t-2.5 -17.5q0 -2 1 -4.5t3 -2.5h1q3 3 5 6t4 6.5t3.5 7t3.5 5.5q-2 3 -0.5 6t4.5 3t4 -2.5t1 -4.5q0 -8 -4 -15.5t-9 -13t-9.5 -10t-4.5 -6.5v-1q0 -1 0.5 -3t1 -4.5t1 -4t0.5 -2.5l1.5 -2.5
t2.5 -2.5q3 0 7 4t7 8.5t6 9.5t5 7v0v0q3 0 3 -2v-4q0 -6 -4 -11.5t-8.5 -10l-8.5 -8.5t-4 -7q0 -2 1.5 -4.5t3.5 -4t4.5 -2.5t4.5 -1q6 0 9.5 4t4.5 10.5t1 12.5q0 7 1 10q0 1 0.5 3t1 4.5t1 4.5l0.5 2v4.5v4.5q0 12 -2 24t-6 23l-4 8t-4.5 8.5t-4 8.5t-1.5 8v33q1 2 1 6.5
t1 8t2.5 6.5t4.5 3h3.5t3.5 -2v-4q0 -9 -2.5 -18.5t-2.5 -19.5q0 -3 1 -9t3 -14t4.5 -15.5t5 -14.5t5 -11.5t4.5 -5.5q3 -1 4.5 -2t2.5 -1.5t2.5 -1.5t3.5 -3h1q3 0 4.5 2.5t3 5.5t2 6t0.5 5q0 3 -1.5 5.5l-3 5l-3 5t-1.5 5.5q-4 13 -5.5 26.5t-1.5 27.5v15q1 5 6 5h1
q0 -1 2 -2.5t2 -2.5q0 -16 0.5 -32t4.5 -31q0 -1 0.5 -2.5t1 -3.5t1.5 -3.5t3 -1.5q1 0 3 1l2 1h3q1 0 3 -1t2 -3v-0.5v-0.5q-1 -1 -2 -2.5l-2 -3l-2 -3t0 -2.5q0 -3 1.5 -3.5t3.5 -0.5h1.5h0.5l18 15q1 1 1 5v4q0 3 -1 5.5t-2.5 4.5t-3 3.5t-2.5 4.5q-3 7 -4 14t-1 14
q0 6 1.5 11.5t4 10.5t5 10.5t5.5 11.5zM141 114q0 -5 2 -7t5 -6v-1v0q0 -2 -2 -2.5t-3.5 -1t-3.5 -0.5h-2v-1q0 -2 2 -4t5 -3t5.5 -2t4.5 -1q1 0 1.5 3.5t1 8t1 8.5t0.5 6q0 5 -1.5 8.5t-8.5 3.5q-3 0 -5 -2.5t-2 -6.5zM166 104h6.5t2.5 4t-5 4q-1 0 -2 -0.5t-1.5 -2
t-0.5 -3.5v-2zM166 91q0 -5 3 -6t8 -1q4 0 6 4t2 8q0 2 -3 2h-5q-2 0 -5 -0.5t-4.5 -2t-1.5 -4.5z" />
</svg>
