<?xml version="1.0" standalone="no"?>
<!DOCTYPE svg PUBLIC "-//W3C//DTD SVG 1.1//EN" "http://www.w3.org/Graphics/SVG/1.1/DTD/svg11.dtd" >
<svg xmlns="http://www.w3.org/2000/svg" xmlns:xlink="http://www.w3.org/1999/xlink" version="1.1" viewBox="-10 0 266 256">
   <path fill="currentColor"
d="M166 167q0 8 0.5 20t3.5 24t7.5 23t12.5 17h0.5h0.5q3 0 4.5 -2t1.5 -4v-2q-4 -7 -7.5 -14t-6 -15t-4 -15.5t-1.5 -15.5v-4.5t1 -4.5q6 1 12 -2t10.5 -8t7.5 -11t3 -11q0 -1 -1.5 -2t-2.5 -1q-2 0 -4.5 4t-5 8.5t-6 8.5t-8.5 4q-2 0 -2.5 -2t-0.5 -4q0 -6 3.5 -10.5
t7.5 -9t8 -8.5t4 -10v-1q-1 0 -3 -2t-3 -2v-1q-2 0 -5 3.5t-5.5 8.5t-5 9.5t-3.5 6.5q0 1 -1 3.5t-2.5 5t-2.5 5t-2 3.5h-3q-4 0 -5 -3.5t-1 -6.5t2.5 -8t5.5 -9t5.5 -7.5t2.5 -5.5q-1 -3 -5 -3q-3 0 -6.5 4.5t-6.5 10.5t-4.5 12t-1.5 8v4v4l6 4zM67 190v6t0.5 9.5t2 11.5
t3 11t3.5 8t5 3q4 0 4.5 -2.5t0.5 -4.5q0 -6 -1.5 -11l-3 -10l-3 -10t-1.5 -11v-11q2 -7 6 -12t8.5 -10t9.5 -9.5t10 -8.5q3 -4 4 -9t1.5 -10.5t0 -10.5t-0.5 -10v-8v-1.5t-0.5 -3l-1 -3l-0.5 -1.5v-20t-2.5 -20.5t-9 -16t-19.5 -6.5q-6 0 -11.5 1t-10 3.5t-8.5 7t-5 10.5
t-1.5 11.5t-1 10.5t-0.5 9.5v10.5v6.5t0.5 11t1.5 13.5t2 13t2 10t3 4h2.5t1.5 -2v-10q0 -7 -1 -14t-1 -14q0 -2 0.5 -4t4.5 -2t6.5 3.5t4.5 9t2.5 10.5t0.5 8h2h1q2 0 3 -1t1 -2.5v-2.5v-3q0 -8 -3.5 -15.5t-9.5 -11.5q-2 -1 -4 -1.5t-3.5 -1t-3 -1.5t-2.5 -3v-2.5t-0.5 -5
t-0.5 -5v-3.5v-3q0 -7 6 -7q9 0 14 5t8.5 11t5.5 10.5t4 4.5t2.5 -2t0.5 -3q0 -9 -4.5 -16t-11.5 -12q-2 -1 -5.5 -2t-6.5 -2t-5.5 -3t-2.5 -6t2.5 -7t6.5 -4.5t8.5 -2.5t8.5 -1q7 0 11 4.5t6 10t2.5 12.5t0.5 11v26v30v3.5t-0.5 4.5t-1 3.5l-0.5 1.5l-34 33q-1 2 -2 4.5
t-1 6v7.5v5zM126 226q1 1 2.5 2l1.5 1h1v0h1q1 -1 3 -2.5t2 -2.5v-67q0 -8 3.5 -14t8 -12t9.5 -12t8 -13q3 -8 4.5 -18t2.5 -18l2 -2h3.5h5.5t5.5 -0.5t3.5 -0.5t2 -0.5t2 -1.5v0v-1q0 -1 -1 -1.5l-1 -0.5h-56v6h18l4 4v2.5v3.5v7t-4 6q-4 0 -8.5 -1.5t-8.5 -4t-6.5 -6
t-2.5 -8.5q0 -8 2 -15t9 -12q1 0 4.5 -1t7.5 -1.5t7 -1t5 -1.5h5q7 0 12.5 0.5t13.5 1.5q2 1 3.5 4.5t1.5 7.5v8v6q0 5 -1 10t-3 9q-1 1 -4.5 1.5t-7 1.5t-6 2.5t-2.5 4.5q0 4 4 4q17 0 23.5 -8t6.5 -23q0 -8 -0.5 -15.5t-4.5 -14.5q-2 -3 -7 -4t-10.5 -2t-9.5 -1t-4 -1v-20
l-2 -2l-3 -3h-1h-1l-2.5 1.5t-2.5 2.5v19q0 4 -3 5t-7 1.5t-9.5 1t-9.5 3t-7 7.5t-3 15v5v5t0.5 5.5t0.5 4.5q2 4 7 6.5t10.5 5t9.5 4.5t4 4q0 4 -1.5 7t-4 6t-5 5.5t-4.5 5.5q-10 16 -13.5 31t-3.5 33v9v8t0.5 8.5t0.5 10.5z" />
</svg>
