<?xml version="1.0" standalone="no"?>
<!DOCTYPE svg PUBLIC "-//W3C//DTD SVG 1.1//EN" "http://www.w3.org/Graphics/SVG/1.1/DTD/svg11.dtd" >
<svg xmlns="http://www.w3.org/2000/svg" xmlns:xlink="http://www.w3.org/1999/xlink" version="1.1" viewBox="-10 0 266 256">
   <path fill="currentColor"
d="M66 203v11t0.5 16t2 14t4.5 6q5 0 7 -1.5t2 -6.5q0 -12 -2.5 -23.5t-2.5 -23.5q0 -6 3 -11t7.5 -9.5t9 -8.5t7.5 -8q6 -10 7 -21t1 -22v-3v-3.5v-3.5v-1l-0.5 -1.5t-0.5 -3t-0.5 -2.5t-0.5 -2v-18.5t-2 -20.5t-7 -16.5t-16 -6.5q-5 0 -9.5 0.5t-9 2.5t-8 5.5t-4.5 8.5
q-5 13 -6.5 24.5t-1.5 24.5v15q1 3 1.5 10.5t1.5 15.5t3 14t7 6q3 0 4.5 -2.5t1.5 -5.5q0 -5 -1.5 -10t-3 -9.5t-2.5 -9.5t-1 -10v-1q0 -1 0.5 -4t0.5 -4h0.5h1.5q4 0 6.5 2.5t4 6.5t2.5 8.5t1.5 8.5t1.5 6.5t3 2.5q4 0 5 -2.5t1 -5.5q0 -6 -2 -13t-5.5 -13.5t-8.5 -11
t-11 -4.5v-15q0 -3 2 -3.5t4 -0.5h1h1l2.5 2.5t3 3.5t3 3.5l2.5 2.5t3 4.5t4 7.5l3.5 7l1.5 3h1l1 -1t2 -1v-3v-3q0 -8 -3 -13.5t-7 -10.5t-9 -9.5t-9 -9.5q0 -3 3 -5.5t7 -4t7.5 -2t6.5 -0.5q2 0 3.5 3.5t3 9t2.5 12.5t2 13t1.5 11t0.5 7v1v1l-0.5 1.5l-0.5 1.5l0.5 3
t0.5 4v2v3v5t-0.5 8.5t-0.5 8v5.5q-2 3 -3 7.5t-4 7.5q-3 5 -7.5 8.5t-8 6.5t-7 7.5t-5.5 11.5v13zM119 166q0 7 0.5 12.5t1.5 10.5t1.5 10.5t1.5 11.5q1 3 1 8.5t0.5 10.5t2 8.5t6.5 3.5q2 0 4 -1.5t2 -4.5q0 -6 -2 -11t-3 -10q-3 -15 -5.5 -31t-2.5 -31q0 -2 0.5 -4
t1 -4.5t1.5 -4t3 -1.5t3 6.5t2 16t2.5 21t4 21.5t5.5 16.5t8 6.5q3 0 3.5 -1.5t0.5 -3.5q0 -5 -1.5 -10t-3 -9.5t-3.5 -9t-3 -9.5q-2 -11 -4 -22.5t-2 -22.5v-3.5v-3.5l1 -1t2.5 -2t2 -2.5t0.5 -2.5t-1.5 -1.5t-2.5 -0.5h-2q-2 0 -6.5 2t-8.5 5.5t-7 7.5t-3 7v5
q0 3 -0.5 6.5t-0.5 6.5v4zM170 188q1 0 2 3.5t2 9t2.5 12t3.5 11.5t4 9t5 4q2 0 3.5 -1t1.5 -4q0 -4 -1.5 -8.5t-3.5 -8.5t-3.5 -8t-2.5 -9v-3q-3 -7 -4.5 -13t-2.5 -12t-1.5 -12t-1.5 -14q1 -2 3 -4.5t4 -2.5h1l2 2q3 15 7.5 32.5t9.5 33.5q1 2 2.5 4.5t3.5 2.5q3 0 5 -3.5
t1 -5.5l-0.5 -1.5t-1.5 -3.5t-1.5 -3.5l-0.5 -1.5q-5 -13 -9.5 -26.5t-4.5 -27.5q0 -4 0.5 -6t1.5 -4t2 -3.5t1 -4.5q0 -2 -1.5 -3t-3.5 -1q-3 0 -7.5 2.5t-8.5 6t-7.5 7.5t-5.5 6v2v4v4v2q0 10 1.5 18.5t3.5 18.5zM124 79v9.5t1.5 10t4 8t7.5 3.5h3t4.5 0.5t4.5 0.5h3h9
t8.5 -0.5t8.5 -1.5t9 -2q5 -3 7 -7t3 -8.5t1.5 -9.5t0.5 -10v-3v-5q0 -2 -0.5 -4t-0.5 -3q0 -2 -1 -4l-2 -4t-2.5 -3.5t-3.5 -2.5l-26 -3v-27l-2 -2t-4 -3v0h-0.5h-0.5q-1 1 -2 1.5l-1 0.5l-3 33l-2 1t-3 1q-9 3 -13 5t-5.5 5t-1.5 8t-1 14v1v1zM145 101q0 -2 1.5 -4.5t4 -5
t5 -3.5t5.5 -1q4 0 8 3.5t6 6.5q-1 3 -3 4.5t-4.5 2t-5.5 0.5h-5h-9q-1 0 -2 -1l-1 -1v0v-1zM134 81q0 -4 0.5 -8.5t5.5 -4.5q2 0 4 1t4 2.5t3.5 3.5t1.5 4t-1.5 3t-3.5 3l-3.5 3.5l-4 4l-1.5 1.5h-2q-1 0 -2 -2t-1 -4v-4v-3zM167 77q1 -2 3 -4.5t4.5 -5t5 -4t3.5 -1.5h3
q1 0 1 2v23l-0.5 0.5t-0.5 1.5q-1 0 -2 0.5l-1 0.5q-2 0 -4 -1.5t-4.5 -3.5t-4.5 -4.5t-3 -3.5zM143 58v-1q0 -2 2 -3t4.5 -1.5t5.5 -0.5h5h4.5h5t4 1.5t1.5 3.5v2v1q-3 2 -7 5.5t-8 3.5q-6 0 -9.5 -2.5t-7.5 -8.5z" />
</svg>
