<?xml version="1.0" standalone="no"?>
<!DOCTYPE svg PUBLIC "-//W3C//DTD SVG 1.1//EN" "http://www.w3.org/Graphics/SVG/1.1/DTD/svg11.dtd" >
<svg xmlns="http://www.w3.org/2000/svg" xmlns:xlink="http://www.w3.org/1999/xlink" version="1.1" viewBox="-10 0 266 256">
   <path fill="currentColor"
d="M63 195v16q0 2 1 9t2.5 13.5t3.5 12t4 5.5q4 0 6 -2.5t2 -6.5q0 -5 -1.5 -10.5t-3 -10.5l-3 -10t-1.5 -11q0 -10 3 -18t7.5 -14.5t10 -13t10.5 -14.5q4 -4 5.5 -9.5t2.5 -11.5t1 -12v-11q0 -18 -1.5 -34t-7.5 -32q-4 -6 -8.5 -7.5t-11.5 -1.5q-13 0 -19.5 2t-9.5 7
t-4 13.5t-4 19.5q-2 9 -4.5 17.5t-2.5 17.5t0.5 19t1.5 18q0 5 2.5 9t7.5 4t5.5 -2.5t0.5 -6.5q0 -9 -2 -18t-2 -19v-1l2 -1h1q4 0 7 5t5 10.5t4 10.5t4 5q5 0 6 -3t1 -6q0 -5 -3 -11.5t-7.5 -12.5t-9 -11t-8.5 -8v-3v-4t0.5 -5t1.5 -4t4 -2q2 0 4 2t3.5 5l3 6l2.5 5
l1.5 2.5t3 4.5t2.5 4t1 3h1.5h1.5q2 0 2.5 -1.5t0.5 -3.5q0 -6 -2 -11.5t-5.5 -10t-8 -8t-8.5 -5.5l-1.5 -1.5l-0.5 -0.5v-6q0 -8 4.5 -12.5t13.5 -4.5q5 0 8.5 3.5t6 9.5t4 13.5t2 14t1 12.5t0.5 9q0 4 -0.5 11t-1.5 15t-3 15t-6 9q-5 4 -8 9t-7 11q-5 4 -7.5 8t-4 7.5
t-2 8t-0.5 11.5zM141 223h6t9 0.5t9.5 0.5h6.5h5q11 0 16 -6t7 -15t2 -19t1 -18v-3v-4.5t-1 -4.5t-2.5 -3.5t-3.5 -1.5q-3 0 -4 1t-1 3q0 1 0.5 3.5t0.5 4.5h-24v-14h-9v3.5v4.5q0 3 0.5 5t0.5 3t1.5 4.5t3.5 3.5h23q2 0 3.5 3.5t1.5 5.5v1l-1 0.5l-1 0.5q-1 0 -3 0.5
t-4.5 0.5t-5 0.5l-2.5 0.5h-2.5t-3.5 0.5t-3.5 1.5t-1.5 2q0 3 3 4.5t6.5 2t7.5 0.5t6 1v3v2q0 3 -1.5 7t-5.5 4h-35l-2 -1v-3t-0.5 -5t-0.5 -6.5v-5.5v-35q0 -3 -1 -3.5t-3 -0.5t-3 0.5t-2 1.5q-2 7 -2 14v14v10q0 4 0.5 8.5l1 9t2.5 9.5q0 2 2 2.5t3 1.5zM125 111
q0 11 6 16t15 7t19 1.5t18 -0.5h10q1 -2 3 -3t4.5 -1.5t5 -2t5 -4.5t4 -8.5t1.5 -14.5q0 -4 -4.5 -6t-11 -3.5t-15 -2t-16 -0.5h-14h-9.5q-12 0 -16.5 5.5t-4.5 16.5v0zM174 117q0 -2 -0.5 -5t0 -5.5t1.5 -4.5t3 -2h1q1 4 4 9t3 9q0 8 -8 8q-2 0 -3 -1t-1 -2.5v-2.5v-3z
M146 120q0 -4 2 -6t3 -6q1 -2 1.5 -4.5t1 -4t2.5 -2t5 -0.5q0 4 1.5 8.5t1.5 9.5v3q0 3 -1 3q0 1 -0.5 2.5l-0.5 1.5h-14q-2 0 -2 -2v-3zM134 112q0 -1 0.5 -3t1.5 -3.5t2.5 -3t2.5 -1.5q0 5 -1 9t-1 9h-2l-1.5 -2.5t-1.5 -4.5zM193 102q0 -1 0.5 -2.5t2.5 -1.5q1 0 3 1t3 2
v7v2.5v3.5t-1 3.5t-2 1.5q-2 0 -3 -2t-2 -5t-1 -5.5v-4.5zM168 28q4 0 7 4t6 9t5.5 10t4.5 7l2 1q2 2 3.5 5.5t4 7t5 6.5t5.5 3q4 0 4.5 -1.5t0.5 -5.5q0 -2 -3 -7.5t-7 -12.5t-9 -14.5t-9.5 -13.5t-8.5 -10t-6 -4q-4 0 -6 1t-5 1q-1 4 -3.5 8t-5.5 7l-6 6t-6 7q-1 1 -2 3.5
t-2 3.5q-3 4 -5.5 5.5t-4.5 3.5t-4 4.5t-5 7.5q1 1 3 2.5t3 1.5q3 0 7 -4.5t8 -10t8 -10.5t8 -7l2 -0.5t2.5 -1t1.5 -2t2.5 -3.5t2 -3.5t1.5 -1.5q0 -1 0.5 -1.5zM148 63q7 1 12.5 1.5t12.5 0.5h3.5h2.5l4 -4q-1 -1 -3 -2t-3 -1h-29q-1 0 -1.5 0.5l-0.5 0.5v1v1z" />
</svg>
