<?xml version="1.0" standalone="no"?>
<!DOCTYPE svg PUBLIC "-//W3C//DTD SVG 1.1//EN" "http://www.w3.org/Graphics/SVG/1.1/DTD/svg11.dtd" >
<svg xmlns="http://www.w3.org/2000/svg" xmlns:xlink="http://www.w3.org/1999/xlink" version="1.1" viewBox="-10 0 266 256">
   <path fill="currentColor"
d="M206 246q0 2 1 3.5t3 1.5q3 0 5.5 -3t3.5 -6v-13q0 -18 -0.5 -36.5t-1.5 -36.5q0 -5 -1.5 -7t-3.5 -3t-5 -1h-7q-9 0 -13.5 2t-6.5 5.5t-3 7t-2 6.5t-3 5t-6 2q-5 0 -8 -2.5t-4 -7t-1.5 -9t-1.5 -8.5q-2 -3 -5 -3h-5q-18 0 -25 16q-1 9 -2 19l-2 20t-2 20.5t-1 20.5v3.5
v4.5q1 2 2.5 2h2.5q2 0 3.5 -0.5t2.5 -2.5v-20t0.5 -20.5t1.5 -20.5t2 -19q1 -6 5 -10t11 -4q4 0 6 3t2.5 7t0.5 9v5l5 6h22q1 0 2.5 -1.5l2.5 -2.5t2.5 -5t2.5 -8t2.5 -7.5l1.5 -3.5h15l1 2l0.5 4.5t0.5 11t0.5 13t0.5 10.5v2q0 6 -1 12t-1 13q0 4 1 7.5t1 7.5q0 3 -1 5
t-1 4zM66 228q1 6 3 8.5t7 2.5q3 0 4.5 -1.5t1.5 -3.5q0 -4 -0.5 -8t-1.5 -8t-2 -8.5t-1 -8.5q0 -11 4.5 -20t10 -17.5t10.5 -17.5t6 -19v-7t0.5 -14.5t0.5 -17v-13.5v-3q0 -8 -1 -17.5t-4.5 -17.5t-10 -13.5t-17.5 -5.5t-18.5 6t-11.5 15.5t-5 19.5t-2 18v4v9.5v10.5v8v7
v9.5v10.5v6q0 4 3.5 4.5t5.5 0.5t3 -1t1 -3v-3q0 -2 -0.5 -7t-1 -11t-0.5 -11v-7l2 -3q2 1 5 5.5t7 9t7.5 8t5.5 3.5q1 0 2.5 -0.5t1.5 -2.5q0 -4 -3.5 -9.5t-8.5 -11.5t-9.5 -10.5l-7.5 -7.5v-9v-9q0 -4 2 -8h0.5h0.5q7 0 11 4.5t7 10t5.5 10.5t6.5 5q2 0 3.5 -1t1.5 -5
q-1 -6 -6 -11.5t-10.5 -10.5t-10 -10t-4.5 -9t2 -7t5 -5t7 -3t7 -1t6 3t5 6.5t3.5 7t2.5 4.5q-1 8 -0.5 15.5t1.5 14.5t1.5 14.5t0.5 15.5q0 12 -2.5 21.5t-7 17.5t-10 16.5t-10.5 19.5q-4 7 -4 15.5v16.5v14zM120 134q0 2 0.5 3.5t3.5 1.5t4 -2t1 -5h68q4 1 7 1h7
q2 0 4 -0.5t2 -2.5v-2.5t-2 -2.5q-11 1 -22.5 -0.5t-23.5 -1.5q0 -1 -0.5 -5t-0.5 -5q1 -1 1.5 -2l0.5 -1h33v-4v-4q-1 0 -1.5 -0.5l-0.5 -0.5h-27q-4 0 -5 -3t-1 -5t0.5 -4.5t3.5 -2.5h25q2 0 1.5 -2.5t-0.5 -3.5q2 0 3 1l1.5 1.5t1.5 1t2 0.5q3 0 4.5 -2.5t1.5 -4.5
q0 -6 -4 -8.5t-9.5 -4t-11 -3.5t-8.5 -7v0v-1v0q0 -1 1 -1.5l1 -0.5q1 0 2 -1t2.5 -2t2.5 -1.5t2 -0.5q1 -1 2.5 -1.5l1.5 -0.5q1 0 3.5 -0.5t5.5 -0.5t5.5 -0.5t3.5 -0.5l0.5 -0.5t1.5 -0.5v-2l-3.5 -2.5t-8.5 -6t-10.5 -7t-10.5 -7t-8.5 -5.5l-3.5 -2q-4 0 -7 2t-5 4.5
t-4 5.5t-4 5q-1 1 -4.5 2.5t-7 3.5t-6 4t-2.5 5v0.5v0.5q1 1 4 2.5t6.5 3.5t6.5 4t3 4v0.5v1.5q-8 5 -15.5 13t-9.5 18q-1 2 -1.5 8t-1 12.5t-1 12.5t-0.5 8v4zM131 109h21q1 0 2 1t2 2.5t1.5 2.5t0.5 2v0.5v0.5l-1.5 2.5t-2.5 2.5h-23v-14zM131 94q0 -1 0.5 -3t1.5 -2
q0 -1 0.5 -1.5l0.5 -0.5h25q0 3 -1 7t-2 7h-2.5h-2.5h-5q-3 0 -6.5 -0.5t-6 -2t-2.5 -4.5zM172 72v-4q0 -2 3 -2q2 0 5 1.5l6 3t6.5 4t4.5 3.5h-23q-1 0 -1.5 -1t-0.5 -2v-2v-1zM143 75q3 -3 7.5 -6t8.5 -3v11h-2h-4.5t-5 -0.5t-4.5 -1.5zM147 42v-1v-1q0 -3 2 -6t5 -6
t6.5 -5t6.5 -2q2 0 5 2l6 4t5 4.5t4 3.5v1q0 3 -3 4t-5 1t-3 -1.5t-1.5 -2.5t-1.5 -2.5t-4 -1.5t-4 2.5t-1 5t-1 4.5t-3 2h-2q-1 0 -2.5 -0.5t-3 -1.5t-3.5 -1.5t-2 -1.5z" />
</svg>
