<?xml version="1.0" standalone="no"?>
<!DOCTYPE svg PUBLIC "-//W3C//DTD SVG 1.1//EN" "http://www.w3.org/Graphics/SVG/1.1/DTD/svg11.dtd" >
<svg xmlns="http://www.w3.org/2000/svg" xmlns:xlink="http://www.w3.org/1999/xlink" version="1.1" viewBox="-10 0 266 256">
   <path fill="currentColor"
d="M122 209v34q0 2 1.5 5t4.5 3q1 0 2.5 -1t1.5 -2q1 -15 1.5 -30t1 -29.5t1.5 -29.5t4 -30q4 -2 7 -3t5.5 -2.5t5 -3.5t6.5 -5l4 3q2 1 5.5 2.5l7 3t6 2.5t2.5 2q1 1 1.5 5t0.5 5l-0.5 1.5t-0.5 3.5t-0.5 3.5l-0.5 1.5v2q0 9 1 19.5t4 20.5v56q0 2 1 2.5t2 0.5q3 0 4.5 -3
t2.5 -7t1 -8v-6q0 -1 -0.5 -1.5l-0.5 -0.5q0 -1 -0.5 -4.5t-1 -7.5t-1 -7t-0.5 -4q-1 -16 -2 -32.5t-1 -32.5v-3v-4v-4v-3q6 -4 7.5 -8t1.5 -10q0 -3 -3 -7t-7 -7.5t-8.5 -5.5t-7.5 -2q0 4 3 7t6 5.5t5.5 5.5t2.5 8q0 2 -0.5 2.5t-1.5 0.5q-3 0 -5 -2.5t-5 -5t-7 -5t-9 -2.5
q0 4 2.5 6t5.5 4t5.5 4t2.5 6q0 3 -1.5 3.5t-3.5 0.5q-3 0 -5 -1.5t-4.5 -3t-5 -2.5t-5.5 -1h-1h-1q-1 1 -4 3t-4 3q-2 -1 -2 -1.5v-1.5q0 -4 1.5 -6t3.5 -4t4 -3t2 -3q0 -3 -5 -3q-4 0 -6 3t-3.5 6.5t-3 6.5t-5.5 3q-2 0 -3.5 -2t-1.5 -5t2.5 -7t5.5 -7t5 -6t2 -5t-0.5 -3
t-1.5 -1q-3 0 -6.5 4t-6.5 9t-5 10t-2 8q0 2 1.5 4.5t3 4t3 4t1.5 4.5q0 5 -1.5 10t-2.5 9l-5 51l-3 4h-25q-3 0 -3.5 -2.5t-0.5 -3.5v-3l1 -2.5t1 -3.5l-1 -0.5l-1 -0.5v-2q0 -3 3 -5t6 -3.5t7 -3t5 -4.5q2 -2 2.5 -4t1 -4.5t0.5 -5t1 -4.5v-23v-23v-2.5t-0.5 -4t-0.5 -4.5
v-2v-2.5t0.5 -3t0.5 -3v-2.5v-3q0 -2 -1.5 -4t-3.5 -2h-1q-1 0 -2 0.5t-1 1.5v6q0 14 0.5 27.5t0.5 27.5q0 4 0.5 10t-0.5 11.5t-4 10t-10 4.5v0l-2 -2l-2 -2v-5q0 -5 2 -7.5t4 -5.5t3.5 -5.5t1.5 -7.5q0 -6 -1.5 -12.5t-3.5 -13t-4 -12.5t-2 -11q0 -3 1 -7t2.5 -8t3 -7.5
t2.5 -5.5q4 -6 9 -13t8 -14v-2q0 -2 -0.5 -3t-2.5 -1q-7 0 -11 6q0 2 -1 5t-2 6.5t-2.5 6.5t-1.5 5l-1 1.5t-1.5 2.5t-1 2.5t-1.5 2.5q0 1 -1 4t-4 3q-1 0 -3 -3t-4.5 -7.5t-4.5 -10.5t-4 -10.5t-3.5 -8t-2.5 -3.5q-1 -1 -3.5 -1.5t-4.5 -0.5q-3 0 -3.5 1.5t-0.5 4.5v1l1 1
q0 1 2 3.5t3.5 5.5t3.5 5t2 3q2 3 5 8t6 10.5t5 10.5t2 8v1q-1 5 -3.5 11.5l-5 13t-4.5 13t-2 12.5v0q1 1 1.5 2.5t1.5 3t2 2.5l1.5 1.5t2.5 1t4 2t2 2.5v17l-1 0.5t-2 0.5v0q-6 0 -9.5 -2.5t-5.5 -7t-3 -9.5t-1 -10.5v-10v-8.5v-9v-8v-6.5t0.5 -7.5t0.5 -9q2 -1 2 -2.5
v-2.5q0 -3 -1.5 -5t-4.5 -2q-2 0 -3.5 1.5t-2.5 3.5v6v9v9v6v16v14.5t1 15t2 16.5q1 4 4.5 5.5t7.5 2.5t8 1h7l1 1v23q0 1 -2.5 1.5t-7 0t-9 -0.5h-9t-7 1.5t-2.5 3.5q0 6 5 6q9 0 17.5 -2t17.5 -2q1 0 3 0.5l2 0.5h6h9t9 0.5t6 0.5zM161 231v3q0 2 0.5 4t1.5 3t2 1h2.5
t1.5 -2v-41q5 0 7 3t2.5 7.5t0.5 9.5t0.5 9.5t2.5 7.5t6 3q0 -11 -2 -21t-6 -21q0 -1 -2.5 -3t-3.5 -3t-3.5 -1.5t-2.5 -3.5q0 -5 3 -8.5t6.5 -7.5t6.5 -8.5t3 -11.5q0 -1 -1 -1.5t-2 -0.5h-2q0 1 -1 2.5t-1.5 3l-1 3t-1.5 2.5q-1 2 -1.5 4t-2.5 2q-3 0 -3 -3v-21
q0 -3 -2.5 -4t-4.5 -1h-3.5h-5t-4 1t-1.5 3t2 2.5t5 1t5.5 2t2.5 6.5v2q0 1 -0.5 3t-0.5 4v4v3h-1.5h-0.5q-2 0 -3.5 -2.5l-3 -5t-2.5 -5.5t-3 -4q-2 1 -2 2v2q0 6 2.5 9.5t5.5 6t5.5 5t2.5 6.5q0 5 -2 7t-4 3.5t-4.5 3.5t-5.5 6q-2 3 -2.5 7t-0.5 8v8v8q0 1 0.5 3.5
t2.5 2.5q1 0 2 -2t2 -3q0 -9 1 -16t3 -16q0 -2 0.5 -2.5t2.5 -0.5t3 1t2 3v10q0 5 -1 9t-1 9zM78 131q0 -7 2.5 -15t5.5 -14h2q2 0 4 4.5t3.5 10t2 10.5t0.5 7q0 4 -2 6t-6 2q-5 0 -8.5 -3t-3.5 -8zM158 66v3v4v4v3q0 2 0.5 2.5t2.5 0.5t3 -2t1.5 -5t0 -6.5t-0.5 -4.5l3 -1
h18q2 0 3.5 -1.5t1.5 -3.5v-2t-2 -1h-22q-1 0 -1.5 -2.5t-0.5 -3.5q0 -4 1 -6.5t6 -2.5q2 0 6 0.5t7 1.5t6.5 2.5t5.5 2.5q2 2 2.5 3t1 1.5t1 0.5h2.5t3.5 -1t1.5 -3q0 -4 -3 -6q-2 -1 -5.5 -2t-7.5 -2t-7.5 -2t-5.5 -2q-1 0 -2.5 -0.5t-3.5 -1.5t-4 -2.5t-3 -2.5v-14
q0 -1 -2 -3t-3 -2h-1q-1 0 -2 1l-1 1v24q-7 1 -14 3.5t-13 5.5q-1 1 -2.5 1.5l-3 1t-2.5 1l-1 0.5v6q4 0 8 -2l8 -4t8 -3.5t8 -1.5h1q1 0 2 1t1 2v10q0 1 -4 1.5t-8.5 0.5t-8.5 1.5t-4 4.5h20q1 0 2.5 1t2.5 1z" />
</svg>
