<?xml version="1.0" standalone="no"?>
<!DOCTYPE svg PUBLIC "-//W3C//DTD SVG 1.1//EN" "http://www.w3.org/Graphics/SVG/1.1/DTD/svg11.dtd" >
<svg xmlns="http://www.w3.org/2000/svg" xmlns:xlink="http://www.w3.org/1999/xlink" version="1.1" viewBox="-10 0 266 256">
   <path fill="currentColor"
d="M64 155q0 13 2.5 24t2.5 24q1 17 3.5 26t8.5 13.5t16.5 6t28.5 1.5h18h8h8.5t9 -1t7.5 -3q6 -4 10.5 -12t7.5 -18.5t4.5 -22.5t2.5 -23t1.5 -21t0.5 -16l-0.5 -2.5t-1.5 -3.5q0 -1 -0.5 -3l-0.5 -2q-2 -7 -5 -10.5t-7 -5.5t-9 -3t-13 -2h-5h-6l-1.5 1.5t-1.5 1t-1.5 1
t-0.5 1.5q0 3 3 3.5t5 1.5q2 0 5 0.5t7.5 1t8 1t4.5 0.5q1 1 2.5 1.5t2.5 1.5q0 7 2 14t2 13v4t-2 3.5t-7 -1.5t-11 -4.5t-11.5 -5t-9.5 -2.5v8q2 1 6.5 2.5t9 4t9 4.5t5.5 3q2 0 5 2t4 3v6v7t-1 10t-3 9t-5 4q-6 0 -9.5 -3t-7 -6.5t-7.5 -6.5t-10 -3q0 8 5.5 12.5t12 8.5
t12 7.5t5.5 9.5q0 7 -3.5 11t-9 6t-11.5 2h-12h-8l-2 -2l1 -34v-87l3 -5v-18l0.5 -1t1.5 -2q4 -4 10.5 -7.5t13 -6.5t11.5 -7.5t5 -11.5q0 -2 -0.5 -5l-1 -6t-2 -5.5t-3.5 -4.5q-1 0 -4 -0.5t-5.5 -1t-5.5 -1t-4 -0.5h-9h-10t-10 -0.5t-9 -2.5q-3 -1 -5.5 -4.5t-5.5 -7
t-5 -6.5t-4 -3t-2.5 1.5t-0.5 2.5q0 4 2.5 8t5 7.5t5 6.5t2.5 5q0 5 -3.5 10t-9 9t-11.5 6.5t-11 4.5h-7h-8.5t-7 2t-2.5 6q0 3 2 3.5t5 0.5q7 0 15 -1.5t15.5 -5t14 -8t11.5 -10.5q3 -4 4.5 -7.5t5.5 -6.5h3h4h4h3h9h7.5t7.5 0.5t9 0.5q1 2 1.5 4t0.5 4q0 8 -4.5 11t-10 5
t-11.5 4.5t-10 8.5q-7 12 -8.5 25t-1.5 26v1l1 3l1 3v0.5v1.5q0 4 -1 7.5t-1 7.5q0 2 1 4t1 4v1v5t-0.5 6t-1 5l-0.5 2q0 1 -0.5 3t-0.5 3l0.5 1t0.5 2v42l-3 3l-2.5 0.5t-4.5 0.5q-5 0 -11.5 -0.5t-12 -2.5t-9 -6t-3.5 -10v-2v-2q1 -1 5 -3.5t8.5 -5.5t8 -6t5.5 -4
q3 -2 6 -5.5t3 -7.5q-6 0 -10.5 3t-8.5 6t-7.5 6t-8.5 3h-1l-0.5 -0.5t-1.5 -0.5q-1 -8 -1 -12.5v-11.5v-10q0 -1 5.5 -3.5t12 -6t12 -7.5t5.5 -7q0 -1 -0.5 -2.5t-1.5 -1.5q-5 0 -8.5 2.5t-7.5 5.5t-7.5 5.5t-8.5 2.5l-0.5 -1l-0.5 -1v-8q0 -11 3 -17t7.5 -9.5t10 -5
t10 -2.5t7.5 -2t3 -4t-2 -3.5t-4 -0.5h-2l-30 8q-6 1 -9 7t-5 13.5t-2.5 14.5t-0.5 12z" />
</svg>
