<?xml version="1.0" standalone="no"?>
<!DOCTYPE svg PUBLIC "-//W3C//DTD SVG 1.1//EN" "http://www.w3.org/Graphics/SVG/1.1/DTD/svg11.dtd" >
<svg xmlns="http://www.w3.org/2000/svg" xmlns:xlink="http://www.w3.org/1999/xlink" version="1.1" viewBox="-10 0 266 256">
   <path fill="currentColor"
d="M67 248l1 1l2 2v0q4 0 6 -3.5t2 -5.5v-45q0 -1 1 -3t3 -3l4 -2t4 -1q3 0 4.5 2t2 5t0.5 6v4v8.5t0.5 13.5t0.5 13v8q5 0 7 -0.5t3 -5.5v-3t0.5 -3.5t0.5 -3.5v-3q0 -8 -1.5 -15t-1.5 -15v-3v-3t0.5 -4t0.5 -3l2 -2t3 -2t2.5 -0.5t3.5 -1t3 -0.5h2l1 2v66q5 0 8 -1.5
t5 -4.5v-26v-14v-13.5t-0.5 -13t-0.5 -14.5q-5 -6 -8.5 -7.5t-9.5 -2.5q-2 0 -7 -1t-10.5 -2t-11 -1.5t-6.5 -1.5q-3 -2 -4 -3t-1 -3t0.5 -3t0.5 -3q2 0 5.5 -0.5t7 -0.5h7h4.5h8.5h12t12 0.5t7.5 0.5t3 5.5t1.5 12t0.5 12.5v8v3v5v5v2q0 2 1 6.5t1.5 9.5t1 9.5t0.5 5.5v5.5
v8.5v8v6l2 0.5l2 0.5q3 -1 4.5 -3t2 -4.5t0.5 -5.5v-5q0 -17 -2 -33.5t-3 -33.5q-1 -8 -0.5 -15t-1.5 -12t-7 -8.5t-15 -3.5h-53q-1 0 -1.5 -1t-0.5 -2q0 -5 4.5 -7.5t10.5 -3.5t12 -1h8h4q3 0 10 0.5t15 0.5t15 0.5t10 0.5l2.5 2.5t2.5 3.5q2 15 3 31t1.5 32l1 32t1.5 32
q1 1 2 1h2q3 0 4.5 -1.5t3 -3.5t2 -4.5t0.5 -4.5q0 -1 -0.5 -3t-0.5 -3v-5t-1 -9.5t-1.5 -12t-1 -12t-0.5 -9.5v-5q-1 -7 -1 -14v-14t-0.5 -14t-2.5 -13q-1 -3 -3.5 -7t-5.5 -6q-4 -1 -9 -2t-11 -1h-11h-9h-15q-9 0 -19.5 1t-19.5 3t-12 6l-2 6t-1 6v6v6q0 10 4 15t10.5 7.5
t14 3t14 1t10.5 2t4 6.5q0 2 -1.5 3.5t-3.5 1.5l-25 3q-4 3 -8 3.5t-8 1.5t-7.5 3.5t-5.5 9.5v19v17.5t2 17.5zM71 93q5 1 9 1.5t7.5 0.5h6.5h8q18 0 34.5 -1t34.5 -1q5 0 8.5 -4t5.5 -8q2 -12 3 -21.5t1 -20.5q0 -9 -3.5 -13.5t-10 -7.5t-13.5 -4t-15 -3h-1h-1
q-2 0 -3.5 1.5t-1.5 3.5q0 4 5.5 5.5t12.5 2t12.5 1.5t5.5 4v14l-0.5 0.5t-1.5 0.5h-1q-4 0 -8.5 -1.5l-9 -3t-9.5 -3t-10 -1.5q0 5 3 7.5t7.5 4t9.5 2.5t9.5 1.5t7.5 2.5t3 6q0 3 -3 5t-6 2q-4 0 -7.5 -1.5t-6.5 -3.5t-6.5 -3.5t-7.5 -1.5q-3 0 -4 1t-1 4v3q3 2 9.5 4t12 4
t10 4t5.5 5q-1 1 -3 1.5t-4.5 1.5t-4.5 1.5t-3 0.5l-1 -2h-3.5h-5.5q-11 0 -21.5 1t-21.5 1h-4q-2 0 -5 -0.5t-6 -0.5t-6 -0.5t-4 -0.5q-4 -1 -4.5 -2.5t-0.5 -4.5t3 -5t7.5 -3t10 -2t10.5 -2.5t8 -4t3 -5.5t-1.5 -3h-4.5q-4 0 -8 1.5l-8 3l-8 3t-8 1.5q-3 0 -3.5 -1.5
t-0.5 -3.5q0 -4 3 -6t7 -3.5t9 -2.5t9.5 -2.5t7.5 -3.5t3 -4t-1.5 -3.5t-3.5 -1.5t-3 0.5t-4 1.5q-1 0 -4.5 1.5t-7.5 2.5t-7 2.5l-5 2.5h-3q0 -3 -0.5 -6t0 -5t2 -4t4.5 -2q2 0 5.5 -0.5t7.5 -1l8 -1t5 -0.5q4 -2 4 -5t-4 -4h-3h-3q-3 0 -9 0.5t-12.5 2t-11 3.5t-4.5 6v53
q0 6 2 10t7 7z" />
</svg>
