<?xml version="1.0" standalone="no"?>
<!DOCTYPE svg PUBLIC "-//W3C//DTD SVG 1.1//EN" "http://www.w3.org/Graphics/SVG/1.1/DTD/svg11.dtd" >
<svg xmlns="http://www.w3.org/2000/svg" xmlns:xlink="http://www.w3.org/1999/xlink" version="1.1" viewBox="-10 0 266 256">
   <path fill="currentColor"
d="M76 169v1.5v2.5q0 2 0.5 7t0.5 10t0.5 9.5t0.5 5.5q0 9 1 16t3.5 13t7 10t13.5 6h22h31t18.5 -3.5t9 -14t2.5 -32.5q0 -4 0.5 -11t-0.5 -14t-4 -12t-8 -5v26l-2.5 1.5t-3.5 1.5q-7 2 -15.5 2h-14.5h-2t-2 -2q0 -13 -1 -25.5t-1 -25.5q0 -5 2.5 -6t7.5 -1h63q3 0 3 -1.5
v-3.5q0 -1 0.5 -3t-1.5 -3h-15q-13 0 -26.5 1t-26.5 1q-3 0 -4 -2.5t-1 -5.5v-3v-4.5t0.5 -6.5t0.5 -5.5v-3.5q1 -2 3 -3.5t4.5 -2t5.5 -0.5t4 -1q11 -2 17.5 -5.5t10 -8.5t4.5 -13.5t1 -20.5v-6t-0.5 -8t-2.5 -7t-5 -3t-4.5 2t-2 5.5t0 6.5t0.5 5q0 6 1 12t1 12
q0 7 -6 11.5t-13.5 7t-15.5 3t-12 0.5h-7t-11 -0.5t-11.5 -2t-7.5 -4.5q0 -2 -0.5 -6.5t-1 -9.5t-1 -9t-0.5 -6t0.5 -6t0 -8t-2.5 -6.5t-6 -2.5q-3 0 -3.5 1t-0.5 3q0 5 0.5 13.5t1.5 17t3 16.5t5 12q2 1 8 3t12.5 4t12 3.5l5.5 1.5v29l-2 4q-18 -1 -36 -1t-35 5
q-1 1 -1.5 2t-0.5 3v2t2 2h17q14 0 28 -2t28 -2v53l-6 5h-31v-22q0 -2 -2 -3t-4 -1t-2.5 1.5t-0.5 4.5zM89 230q0 -1 -0.5 -4t-1 -6.5t-1 -6.5t-0.5 -4v-1q0 -2 1 -3.5t2 -2.5q10 -1 19 -2.5t18 -1.5q5 0 9.5 1t9.5 1t10 -2t10 -2h3h3q3 2 4 5.5t1 6.5t-0.5 8t-2 9.5t-4.5 8
t-7 4.5h-7.5t-11.5 0.5t-11.5 0.5h-8.5h-4h-9t-7.5 -0.5t-7 -2.5t-6.5 -6z" />
</svg>
