<?xml version="1.0" standalone="no"?>
<!DOCTYPE svg PUBLIC "-//W3C//DTD SVG 1.1//EN" "http://www.w3.org/Graphics/SVG/1.1/DTD/svg11.dtd" >
<svg xmlns="http://www.w3.org/2000/svg" xmlns:xlink="http://www.w3.org/1999/xlink" version="1.1" viewBox="-10 0 266 256">
   <path fill="currentColor"
d="M147 247v0q0 1 0.5 1.5l0.5 0.5h2q5 0 11 -4t11.5 -10.5t10 -14.5t9 -16.5t8 -15.5l5.5 -11v-10q0 -10 -1.5 -21t-5.5 -21q0 -1 -2.5 -5t-5.5 -8.5t-5 -8l-2 -3.5q1 -4 4 -5t6.5 -2l7 -2t5 -5t2 -8.5t0.5 -9.5v-10v-8v-4v-6v-5.5v-3.5q1 -4 -3.5 -6.5t-10 -4t-11 -1.5
h-7.5h-8.5t-8 1.5t-6.5 4t-5 8.5v6.5t-0.5 10t-0.5 10.5v7v2q0 5 0.5 10t3 8.5t6 5.5t10.5 2l0.5 1.5l0.5 1.5v1q0 4 -5 9t-11.5 10.5t-12.5 10.5t-9 8q1 2 2 2h2q8 0 13 -4.5t9.5 -10t9 -10t10.5 -4.5q1 0 2.5 1t2.5 2.5l2 3t0 2.5q0 3 -2 5.5t-4 4.5q-1 1 -3.5 2.5t-5 4
t-5 4.5t-3.5 2q-4 4 -6.5 7.5t-5.5 6.5l-6 6t-7 6v2q0 4 4 4q1 0 5 -3t8.5 -7.5t10 -9.5t10.5 -10l8.5 -8.5l5.5 -5.5q3 3 5 7t2 9l-2 2.5t-5 6t-6.5 7.5t-6.5 8t-5.5 7t-3.5 4q-3 2 -7 5.5t-8.5 7.5t-7.5 8t-3 9h6l29 -27q1 -2 3 -5.5t4.5 -7t5 -6t5.5 -2.5q0 2 0.5 4.5
t0.5 5.5t0.5 5.5t0.5 3.5q-1 5 -4.5 11t-9 12.5l-11 13t-10.5 12.5t-8.5 10t-3.5 6zM158 240q2 0 2 2t-2 2q-1 0 -1 -2t1 -2zM62 222h4.5t7 0.5t6 0.5h4.5h2q17 0 24.5 -7t9.5 -18t1.5 -24.5t0.5 -27.5q0 -3 -1.5 -3.5t-2.5 -0.5h-2h-1v3t-0.5 4.5t-0.5 4t-1 2.5v2.5
t-0.5 3.5t-1.5 3.5t-2 1.5h-15v-40q0 -1 1.5 -3t3 -3l3 -2t2.5 -1h23q2 0 2.5 -2.5t0.5 -3.5v-2.5t-1 -1.5h-34v-25q0 -1 1 -1.5l1 -0.5q9 -4 14 -5.5t7 -4t2.5 -7.5t1.5 -16v-9v-3.5t0.5 -6t1 -6.5t0.5 -4q-2 -2 -3.5 -4.5t-3.5 -2.5q-3 0 -4 1.5t-1 4.5t0.5 6t0.5 6v1v7
v10.5t-0.5 10t-0.5 6.5q-4 3 -9.5 4t-10.5 1q-1 0 -4 -0.5t-6 -2t-5 -3.5t-2 -4v-39l-1 -6q-6 1 -8 6v11q0 4 -0.5 9.5t-0.5 11.5q0 5 1 10t3 9q2 3 5 4.5t6 2t5 2t2 5.5q0 6 -0.5 10t-0.5 11q-2 3 -5.5 4t-7.5 1t-9 -0.5t-9 0t-6.5 3t-2.5 7.5q10 0 20 -0.5t20 -0.5v42
q0 3 -2.5 4.5t-5 2t-5 0.5h-3.5l-2 -0.5t-2 -1.5q-1 0 -2 -0.5l-1 -0.5v-18l-1 -0.5t-2 -0.5h-2h-1q-2 0 -4.5 1t-2.5 4q0 14 2 30.5t4 29.5q0 3 2 5zM64 192v-8q2 -3 6 -4t7 -1q1 0 4.5 -0.5t8 -1t9 -1.5t6.5 -1h1h1l1.5 1l1.5 1v2q0 2 0.5 3.5t0.5 3.5v2v5t-0.5 7.5
t-2 6.5t-4.5 3h-4.5t-6 0.5t-7 0.5h-4.5h-3q-9 0 -12 -5t-3 -14zM153 65h46q0 12 -5 16.5t-16 4.5q-5 0 -10 -0.5t-8 -3t-5 -6.5t-2 -11zM155 53v-2v-3q0 -6 2 -10t5 -5.5t7.5 -2.5t10.5 -1h3t6.5 0.5t6 0.5t2.5 1l2 3v19q0 1 -1 1.5t-2 0.5h-7h-9t-8 -0.5t-8 -0.5t-10 -1z
" />
</svg>
