<?xml version="1.0" standalone="no"?>
<!DOCTYPE svg PUBLIC "-//W3C//DTD SVG 1.1//EN" "http://www.w3.org/Graphics/SVG/1.1/DTD/svg11.dtd" >
<svg xmlns="http://www.w3.org/2000/svg" xmlns:xlink="http://www.w3.org/1999/xlink" version="1.1" viewBox="-10 0 266 256">
   <path fill="currentColor"
d="M89 245q0 2 1 4t3 2q5 0 8 -7.5t5 -18.5t4 -24.5t3 -25t1.5 -20.5t0.5 -11t0.5 -9t1 -15.5t1 -15.5t0.5 -8v-3v-3v-8t-1 -9.5t-1.5 -9t-2.5 -6.5q-3 -5 -9 -6l-12 -2t-10.5 -2.5t-4.5 -6.5t2.5 -10t8.5 -5h24q2 0 2.5 -0.5t0.5 -2.5t-2 -3.5t-4.5 -2t-5.5 -0.5h-4h-9
q-4 0 -8 1t-8 2.5t-6 5.5q-1 1 -1 3.5t-0.5 5l-1 5l-0.5 2.5q-1 0 -1 1q0 6 3.5 9t8 4t10 1.5t10 1.5t8 3.5t3.5 8.5v46q0 1 -1 1.5t-2 0.5h-1.5h-0.5h-6.5t-9 -0.5t-8.5 -1t-4 -1.5l-0.5 -2t-0.5 -3.5t-0.5 -3t-0.5 -2.5v-3q0 -2 0.5 -4t3.5 -2h20q2 0 2.5 -2t0.5 -3
q0 -4 -3.5 -5t-6.5 -1t-6 1t-6 1h-1q-1 -1 -2 -3.5t-2 -4.5t-2 -4.5t-1 -3.5t-1 -1.5t-2 -0.5q-2 0 -3 1.5t-1.5 3.5t-0.5 4v3q0 5 1 8.5t1 7.5q0 25 -3.5 48.5t-7.5 47.5v2q0 2 1 4.5t3 2.5q5 0 7.5 -6t3.5 -14t1.5 -14.5t2.5 -6.5h23l1.5 -1.5l1.5 -1.5q0 -1 0.5 -1h0.5
q0 -1 -0.5 -1h-0.5q0 -1 -0.5 -2l-0.5 -1h-25v-21q0 -3 2.5 -4t5.5 -1h6h4h5q4 0 6.5 0.5t4 2t2.5 5.5q-1 7 -1.5 15.5l-1 17t-1.5 17t-2 16.5q-1 4 -3 10t-4 13t-3.5 13t-1.5 9zM170 174q2 0 5 5.5t6 14t5.5 18t5 18t4.5 14t3 5.5q5 0 6.5 -3t1.5 -7q0 -8 -4 -17.5
t-8.5 -18.5t-8.5 -18t-4 -17q0 -4 2 -7t5 -6t5 -7t2 -9q0 -9 -1.5 -13t-5 -5.5t-9 -1.5t-12.5 -1q-4 0 -8.5 -1.5t-8.5 -1.5h-4t-5.5 0.5t-4.5 1.5t-2 2q0 2 2 3.5t4.5 2t5.5 0.5h4q2 0 6 0.5t9 1t9.5 1t6.5 0.5q3 0 4 2.5t1 5.5q0 1 -0.5 4t-2 6t-3 5t-4.5 2h-1l-1 -1
l-2 -2l-2 -2l-1 -1q-5 -4 -10.5 -4.5t-11.5 -0.5h-10.5t-10.5 3v1.5v1.5q0 3 2.5 3.5t5.5 0.5q2 0 4 -1t5 -1q2 0 6 0.5t8 1.5t6.5 3.5t2.5 6.5q0 2 -0.5 3t-3.5 3q-1 0 -5.5 2t-9 3.5l-9 3t-5.5 2.5q-3 1 -5.5 1t-2.5 4q0 1 0.5 2t2.5 2q0 1 3 1h2q4 0 9 -1.5t9.5 -3.5
t8.5 -4.5t7 -5.5h0.5h1.5zM147 97q10 1 21.5 2t20.5 1q3 0 6 -0.5t3 -3.5q0 -2 -1.5 -3.5t-3 -2t-3.5 -1t-3 -0.5h-7h-11h-10h-7q-5 -1 -5 -6q0 -8 4 -11t10 -4t12.5 -1t12.5 -1.5t9.5 -6t3.5 -14.5q0 -5 -1 -9.5t-6 -6.5h-11q-7 0 -14 0.5t-14 0.5q-4 0 -5 -3t-1 -7
t-1 -7.5t-4 -3.5q-1 0 -2.5 0.5t-1.5 1.5v25q0 4 -1.5 7t-4 5.5t-4.5 5.5t-2 7q7 0 10.5 -3.5t6 -8t5.5 -8t7 -3.5h32l0.5 0.5t0.5 1.5v4q0 8 -3 11t-8.5 4t-11.5 1.5t-11.5 2t-9 6.5t-3.5 15q0 5 1 8t5 5z" />
</svg>
