<?xml version="1.0" standalone="no"?>
<!DOCTYPE svg PUBLIC "-//W3C//DTD SVG 1.1//EN" "http://www.w3.org/Graphics/SVG/1.1/DTD/svg11.dtd" >
<svg xmlns="http://www.w3.org/2000/svg" xmlns:xlink="http://www.w3.org/1999/xlink" version="1.1" viewBox="-10 0 266 256">
   <path fill="currentColor"
d="M79 142v6t1.5 8.5t3.5 7.5t6 3h73q8 0 12.5 6t6.5 15.5t2.5 20.5t1.5 20t2.5 15.5t6.5 6.5q2 0 3.5 -1.5t2.5 -3.5q0 -1 0.5 -3.5t0.5 -3.5q0 -4 -1 -10.5t-2.5 -15l-3 -17t-4 -16t-5 -13t-6.5 -7.5q-1 0 -4.5 -0.5t-7.5 -1t-7.5 -1t-4.5 -0.5h-10h-15h-15h-10t-6 -0.5
t-5.5 -2t-4.5 -4t-2 -6.5q0 -5 3 -8.5t8 -5.5t11 -2.5t12 -0.5h12.5h8.5h7.5t11.5 -0.5t11 -0.5h7q7 -6 7.5 -13t0.5 -14q0 -8 -5.5 -11.5t-13.5 -5t-16 -2t-13 -0.5l-1 -1l-1 -1q0 -1 -0.5 -4t-0.5 -4t1 -2t2 -1h2.5h2.5l2.5 -0.5t4.5 -1t4.5 -1l2.5 -0.5q8 -1 13.5 -1.5
t9 -3t5 -7t1.5 -13.5q0 -5 -2.5 -10.5t-8.5 -6.5q-2 0 -8 0.5t-13 0.5q-6 0 -12.5 -0.5t-8.5 -0.5h-5h-9t-9.5 -0.5t-5.5 -0.5h-5q-2 0 -4.5 -2t-5 -3.5t-4.5 -3t-5 -1.5q-2 0 -4.5 1t-2.5 3q0 5 2.5 7t6 3.5t7.5 2t7.5 1.5t5.5 2.5t2 5.5q0 6 -4.5 11t-10.5 10t-12.5 9
t-9.5 8q-3 3 -5.5 10.5t-4 16t-2.5 16.5t-1 13q0 2 2 3t4 1t3 -0.5t2 -2.5q0 -5 0.5 -13.5t2.5 -16.5t5.5 -15.5t8.5 -11.5q7 -6 13 -9t9.5 -7t5.5 -9.5t2 -15.5l2 -2h56q2 0 3 1t1.5 2.5t0.5 3v2.5v2.5v1.5l-10 9q-5 1 -11 0.5t-12.5 0.5t-11 4t-5.5 10q-1 2 -1 4v4t-1 3.5
t-3 2.5t-7 1.5l-10 1l-10 1t-8 0.5q-2 1 -2 2.5v2.5t0.5 2.5t2.5 1.5q1 0 3.5 -0.5t5.5 -0.5t5.5 -0.5t3.5 -0.5t3.5 -1t3.5 -1v0q4 0 7.5 2t3.5 6q0 11 -4 15t-10 5t-13 2t-15 5q0 1 -0.5 3t-1 4.5t-1 4.5t-0.5 3zM134 109v-7.5t1 -7.5q2 -3 3.5 -3h3.5h1h6t8.5 0.5t9 0.5
h5.5q4 2 4.5 4t0.5 5q0 7 -1.5 10.5t-5 5t-8 1.5h-10.5h-14q-2 -2 -3 -4t-1 -5z" />
</svg>
