<?xml version="1.0" standalone="no"?>
<!DOCTYPE svg PUBLIC "-//W3C//DTD SVG 1.1//EN" "http://www.w3.org/Graphics/SVG/1.1/DTD/svg11.dtd" >
<svg xmlns="http://www.w3.org/2000/svg" xmlns:xlink="http://www.w3.org/1999/xlink" version="1.1" viewBox="-10 0 266 256">
   <path fill="currentColor"
d="M121 245q0 2 0.5 3t2.5 1h0.5h0.5q2 -1 4 -2.5l2 -1.5v-43l2.5 -2t6 -4t6 -4t3.5 -2q4 -1 8.5 -1.5t9 -1.5t8.5 -3t6 -5q3 -4 4 -7t2 -6.5t1 -7.5v-9v-3q0 -2 -0.5 -6t-2 -7.5t-4 -6.5t-6.5 -3l-80 -3l-3 -3v-12q0 -1 2 -2t5 -1.5t6.5 -1t5.5 -0.5h54q3 0 5 -2t3.5 -4.5
t2 -5.5t0.5 -5q0 -4 -3 -7.5t-7 -5.5h-7t-10.5 -0.5t-10.5 -0.5h-7q-1 0 -4.5 -0.5t-4.5 -1.5q-2 -1 -3 -2l-2 -2l-2 -2t-4 -1q0 4 2 8.5t8 4.5l44 3q2 1 3.5 4t1.5 5t-1.5 4.5t-3.5 3.5q-8 1 -16.5 1.5t-17 0.5h-17h-15.5q-8 1 -12 4.5t-4 11.5q0 9 5 12.5t12.5 4.5
t15.5 0.5t15 -0.5h7.5t12 0.5t12.5 0.5h9q4 2 6 5.5t2.5 7.5t0.5 9v6q0 10 -4 15.5t-14 8.5q-1 0 -4.5 0.5l-7 1t-7 1.5t-5.5 3q-1 1 -3.5 3t-4.5 4l-3.5 3.5t-2.5 1.5l-2 4v37l-1 2t-1 3v0zM59 157q0 2 2 2.5t4 0.5h2q3 0 10.5 -0.5t16.5 -0.5h19.5h20t16.5 -0.5t11 -0.5
v-0.5v-0.5q0 -2 -0.5 -2.5t-2.5 -0.5h-97q-1 0 -1.5 1t-0.5 2zM63 27q0 11 4 16t9 7.5t8.5 5t3.5 8.5h1q2 0 2.5 -1t1.5 -2.5t1 -3t1 -2.5q2 -2 5 -3t5.5 -1.5t5.5 -1.5t4 -4q2 -2 2 -6.5v-7.5l0.5 -1.5t0 -3t-1 -2.5t-1.5 -1h-1q-1 0 -2 1l-1 1q0 3 -0.5 6.5t-1.5 7
t-3.5 5.5t-6.5 2q-2 0 -4 -1.5t-2 -2.5v-28l-0.5 -0.5l-0.5 -0.5h-1h-1v0l-1 0.5l-1 0.5v31l-1 0.5t-2 0.5h-1q-4 0 -6.5 -2t-4 -5t-1.5 -6.5v-6.5q-2 -2 -3 -2.5t-2 -0.5q-2 0 -3 1t-1 3zM142 32q0 5 1 8.5t3 6.5t5.5 5t7.5 5q1 0 1.5 1t1.5 2t1.5 2t1.5 1q2 0 2.5 -1
t1.5 -2.5t2 -2.5l2 -2q7 -3 11.5 -5t7 -4t3 -6.5t0.5 -13.5h-5q-1 3 -1.5 7t-2 7t-4 5.5t-7.5 2.5h-1.5t-1.5 -2v-27l-1 -0.5t-1 -1.5h-1h-1v0l-1 1l-1 1q-2 5 -2 13t1 13q-2 1 -4 2.5t-4 1.5q-1 0 -2.5 -1l-3 -2l-3 -2t-1.5 -2v-16q0 -1 -1 -1h-1h-1l-0.5 0.5l-0.5 0.5
q-1 1 -1 3v3z" />
</svg>
