<?xml version="1.0" standalone="no"?>
<!DOCTYPE svg PUBLIC "-//W3C//DTD SVG 1.1//EN" "http://www.w3.org/Graphics/SVG/1.1/DTD/svg11.dtd" >
<svg xmlns="http://www.w3.org/2000/svg" xmlns:xlink="http://www.w3.org/1999/xlink" version="1.1" viewBox="-10 0 266 256">
   <path fill="currentColor"
d="M105 248q0 3 2 3.5t5 0.5t5 -2t4 -4.5t3 -5.5t1 -5q1 -1 1.5 -3.5l1 -5t1.5 -5.5t1 -4t0.5 -3.5t0.5 -5.5t0.5 -5.5t0.5 -4.5q0 -1 0.5 -3.5t0.5 -5.5t0.5 -5.5t0.5 -3.5l4 -4q1 0 4 -0.5t6.5 -1t6.5 -1t4 -0.5t3 -0.5t4 -1.5t3 -2l1 -1v-14q-1 -1 -3.5 -4.5t-5 -7.5
t-4.5 -7.5t-2 -4.5v-2v-1q1 -1 2 -2.5t3 -3t3 -2.5l2 -2q2 -2 4.5 -5t5 -6.5t4 -6.5t1.5 -6t-2 -4t-5 -2t-5.5 -1h-3.5h-4.5t-8 -0.5t-9 -0.5h-7.5h-1q-13 0 -28 1t-29 3q-1 0 -1 1v3t2.5 6.5t6 8.5t7 7.5l5.5 5.5v3l-7 7l-14 28v2v1q0 4 2 6t4.5 3.5t6 2t5.5 1.5q2 0 6 0.5
t9 1t9 1t6 0.5q1 1 1 1.5v2.5q0 11 -3 24t-7 23q0 3 -2 5t-3.5 4.5t-3 4.5t-1.5 5zM87 157q0 -3 1.5 -7t4 -8.5t5.5 -8t5 -3.5t4 1l4 2t4 2.5t3 2.5h18q2 -1 4.5 -2.5t4.5 -1.5q3 0 6 3.5t5 8.5t3.5 9.5t1.5 6.5l-1.5 1.5l-1.5 1.5q-1 0 -3.5 1t-5.5 2t-6 1.5t-4 0.5
q0 1 -3 1h-5h-6q-3 0 -4 -1h-9t-11.5 -1t-9.5 -4t-4 -8zM110 121q0 -1 1.5 -2.5t4 -2.5t5 -1.5t3.5 -0.5q5 0 9.5 4t7.5 8v0.5v0.5q0 1 -2 2t-4 1h-4h-2q-2 0 -5 -0.5t-6.5 -1.5t-5.5 -2.5t-2 -4.5zM124 108q-4 0 -6.5 1.5l-5 3t-4.5 2.5t-5 1h-2h-1q-3 -4 -7 -9.5t-6 -10.5
v-1v0q1 -1 3 -1.5l4 -1t4 -0.5h2h56h2.5t3.5 0.5l4 1t3 1.5l0.5 1.5l0.5 1.5q0 1 -3 4.5t-6.5 7t-7 6.5t-5.5 3q-3 0 -5.5 -1.5t-5 -3.5t-5.5 -4t-8 -2zM66 34l0.5 1t1.5 2v2.5t0.5 5l1 5l0.5 2.5q2 5 6 7t8 3q4 2 5 4.5t1 5.5t0.5 5t2.5 2t3 -2t1 -5t0.5 -5.5t3.5 -2.5
q7 -2 11 -3.5t5.5 -4t2 -6.5t0.5 -12v-8q-1 -1 -3 -2t-3 -1l-0.5 0.5l-0.5 0.5v8.5t-0.5 9t-3 8t-7.5 3.5h-3t-2 -2v-5v-8v-8.5v-5.5v-3t-0.5 -3.5t-0.5 -3t-1 -1.5h-4l-0.5 2.5t-0.5 4.5v5v8v8v4t-0.5 4t-2.5 3q-6 0 -7.5 -4.5t-2 -9.5t-1.5 -9.5t-4 -4.5t-4 1t-2 5z
M136 39q0 8 1.5 12.5t3.5 7t4.5 2.5h4.5q3 0 5 0.5t3 3.5v2t0.5 3.5t1.5 3t2 1.5q2 0 3 -1.5t1 -3.5v-3v-3q6 0 12 -2t9 -7q1 -6 1.5 -10.5t0.5 -10.5v-4t-3 -3h-1.5t-1.5 1q-1 4 -1 9t-1 9.5t-3.5 7t-8.5 2.5h-2t-1 -1v-34l2 -1q-2 0 -2 -1v-3v-2t2 -2h-7q0 9 -0.5 19
t-1.5 18q0 3 -1 6t-4 3q-6 0 -8 -5t-2.5 -10.5t-1 -10.5t-4.5 -5q-1 0 -1.5 0.5l-0.5 0.5v11z" />
</svg>
