<?xml version="1.0" standalone="no"?>
<!DOCTYPE svg PUBLIC "-//W3C//DTD SVG 1.1//EN" "http://www.w3.org/Graphics/SVG/1.1/DTD/svg11.dtd" >
<svg xmlns="http://www.w3.org/2000/svg" xmlns:xlink="http://www.w3.org/1999/xlink" version="1.1" viewBox="-10 0 266 256">
   <path fill="currentColor"
d="M148 187q3 0 6 5t5.5 10.5t4.5 11t4 8.5q1 1 2.5 3.5l3 5t2.5 4.5l1 2l3 3l4 4l4 4l3 3v0h1q2 -1 5 -2t3 -4v0l-2 -3q-10 -10 -18.5 -22t-15.5 -25.5t-10.5 -27.5t-3.5 -28q0 -5 3.5 -5t6.5 -1h6h9h8.5h5.5q2 0 4.5 -1.5t2.5 -3.5q0 -1 -1 -2t-2 -1t-2 -0.5t-2 -1.5h-36
q-4 0 -6 -4t-3 -8.5t-1.5 -9.5t-0.5 -7v-2t2 -1h32q1 0 3.5 -2t2.5 -3q0 -2 -1.5 -3t-3.5 -1.5l-4 -1t-3 -0.5h-4q-2 0 -7 0.5t-11.5 1t-13.5 1t-13.5 1t-12 1t-7.5 0.5q-2 1 -3.5 1h-2.5t-2.5 0.5t-5.5 1.5q-8 2 -12 6.5t-5.5 10.5t-2 13.5t-0.5 14.5v12.5t0.5 16t3.5 15
t9 8.5q1 0 4 0.5t6 0.5t5.5 0.5t4.5 0.5h9h15h14.5h9.5zM83 176q-3 -3 -4.5 -7.5t-2 -9l-1 -9t-0.5 -8.5v-3t2 -2q1 0 6 -0.5t10.5 -0.5t10 -0.5t6.5 -0.5h15h14q5 8 6.5 18t1.5 19v4q-9 2 -16 2h-16h-16t-16 -2zM77 117v-4t0.5 -4t1.5 -4t2 -5q5 -3 10.5 -4.5t11.5 -2.5
t11 -1h11h8q0 2 0.5 5t1.5 6t1.5 6t0.5 5q1 0 1.5 1t0.5 2v1v2.5t-2 2.5q-10 2 -21.5 2.5t-22.5 0.5h-3h-4.5h-4.5h-3q-2 -2 -1.5 -4.5t0.5 -4.5zM84 57v6v5t1.5 3t2.5 2q2 0 2.5 -2t1 -4.5t0.5 -5t1 -4.5h3.5t4.5 -0.5t4.5 -1t3.5 -1.5q3 -1 4.5 -4t2 -6t0.5 -6.5v-6.5v-7
l-0.5 -1l-0.5 -1h-1h-1l-0.5 1l-0.5 1q-1 3 -1.5 7.5t-2 8t-4 6t-7.5 2.5q-2 0 -4 -1t-2 -3v-35q0 -1 -1 -1.5l-1 -0.5q-1 0 -2.5 -0.5t-2.5 -0.5v41q0 1 -2.5 1h-3.5q-3 0 -6.5 -0.5t-5.5 -3.5v-8t-0.5 -7.5t-2.5 -6t-7 -2.5v10.5t1 10.5t3.5 8.5t8.5 4.5h2t4.5 0.5l5 1
t3.5 1.5zM136 31v7.5t1 8.5q1 2 4.5 3.5t7 2.5t6.5 2t3 2v16h1h1q1 -1 2.5 -1.5l1.5 -0.5v-15q3 0 6.5 -0.5l7 -1t6.5 -2t5 -4.5q1 -6 1.5 -10.5t0.5 -10.5q0 -2 -1 -5t-4 -3h-0.5h-0.5l-3 25q0 1 -2.5 2t-5.5 1t-5.5 -0.5l-2.5 -0.5v-39l-8 -2v40l-1 1l-1 1h-1.5h-2.5
q-6 0 -8 -4t-2 -9v-9t-3 -4h-2t-1 1v9z" />
</svg>
