<?xml version="1.0" standalone="no"?>
<!DOCTYPE svg PUBLIC "-//W3C//DTD SVG 1.1//EN" "http://www.w3.org/Graphics/SVG/1.1/DTD/svg11.dtd" >
<svg xmlns="http://www.w3.org/2000/svg" xmlns:xlink="http://www.w3.org/1999/xlink" version="1.1" viewBox="-10 0 266 256">
   <path fill="currentColor"
d="M143 234l1 1.5t2 1.5q3 0 8 -6t9.5 -13t8.5 -14.5t6 -10.5q1 -1 2 -3t2 -4.5t2 -4.5l1 -2q2 -6 3.5 -11t1.5 -11v-2.5v-3.5t-0.5 -3.5t-1.5 -3.5q-3 -4 -9.5 -7.5t-14 -6t-15.5 -5t-14.5 -5t-10.5 -5.5t-4 -6t1 -6t2 -5.5t2 -5.5t1 -6t-3 -3q-2 0 -4 4.5t-4 10t-3 11
t-2 7.5q-2 6 -7 12t-11.5 12t-12.5 11.5t-10 9.5q0 1 -0.5 2l-0.5 1q-1 0 -1 1t1 1l0.5 0.5l0.5 0.5h1q1 0 4 -2.5t7 -5.5t7.5 -6t4.5 -4q0 -1 1.5 -2t2.5 -2l2 -2t1 -2q1 -1 3 -4.5t4.5 -6.5t4.5 -6t5 -3q1 0 3.5 0.5t5 1.5t4.5 2.5t2 3.5l-1.5 3t-4.5 6.5t-5.5 7.5
t-5.5 7.5t-5 6.5t-3 4q0 1 -1 2.5l-2 3t-1.5 3l-0.5 1.5q-1 1 -3 3.5t-5 5t-5 4.5l-2.5 2.5t-2 2.5l-1.5 2q0 2 0.5 2.5t2.5 0.5q6 0 11 -6.5t10 -14.5t9.5 -16t9.5 -11q1 -2 3 -5t4 -6.5t4.5 -6t4.5 -2.5h1l2 0.5l4 1t4 1.5l2 1q1 0 1 2v2v3l-0.5 0.5l-1 1t-1.5 2.5t-3 5.5
t-4 8t-4 8.5t-2 5q-8 14 -18 26.5t-19 25.5q-2 3 -5.5 6t-3.5 7h3.5t4.5 -1l2.5 -3t6 -7.5t7.5 -10l8 -11t7 -9.5t4 -6l1.5 -2t3 -5t3 -5.5t2.5 -4.5t1 -6q0 -3 2 -5q1 -2 3 -5.5t4.5 -7t5 -6t4.5 -2.5q3 0 6.5 1.5t5 4.5t3 6.5t1.5 7.5q0 5 -3.5 13.5t-8 17.5t-9.5 16.5
t-8 11.5q0 1 -2 3t-4 5t-3.5 5t-1.5 3zM92 82v22q4 0 5.5 -2.5t1.5 -5.5v-6v-5l0.5 -0.5t0.5 -1t1.5 -1l1.5 -0.5l2.5 -2.5l3 -3l3 -3l1.5 -1.5l0.5 -2t0.5 -4v-4v-3t0.5 -4t1.5 -4q-1 -1 -2.5 -2t-2.5 -1v0q-1 0 -1.5 3.5t-1.5 8t-2.5 9t-3.5 6.5l-6 -6q0 -4 0.5 -7.5
t0.5 -6v-5.5v-6v-8l-1.5 -1.5t-2.5 -0.5t-2.5 0.5t-0.5 2.5q0 3 1 6t1 6v2q0 1 -0.5 4t-0.5 6.5t-0.5 6.5t-0.5 4h-3q-4 0 -6.5 -1.5t-3.5 -4t-1.5 -6t-1.5 -6.5q-2 -3 -5 -5q-1 1 -2 3t-1 3q0 12 7 19t19 8zM136 61q0 7 3 11t6.5 6t6.5 3t3 2v17q0 2 1.5 2h2.5h2t2 -2v-20
q7 -1 11 -2t6 -3.5t2.5 -6.5t0.5 -12v-7q-1 -2 -3.5 -2h-3.5v21q0 1 -1.5 2t-3.5 2t-4 1h-2q0 -1 -0.5 -4t-0.5 -6.5v-6.5v-4l0.5 -2.5t0.5 -3.5v0v-1v-2.5t-0.5 -4t-1 -4t-0.5 -2.5q-1 0 -2 -0.5l-1 -0.5q-3 0 -3 1.5v2.5v3v2t0.5 4t0.5 3.5v1.5v0.5v0.5v0.5v0.5
q0 1 -0.5 4t-1 6.5t-0.5 6.5t-1 4q0 1 -0.5 1.5t-1.5 0.5q-5 0 -7 -3.5t-2.5 -7.5t-1 -7.5t-2.5 -3.5q-3 0 -3.5 3.5t-0.5 5.5z" />
</svg>
