<?xml version="1.0" standalone="no"?>
<!DOCTYPE svg PUBLIC "-//W3C//DTD SVG 1.1//EN" "http://www.w3.org/Graphics/SVG/1.1/DTD/svg11.dtd" >
<svg xmlns="http://www.w3.org/2000/svg" xmlns:xlink="http://www.w3.org/1999/xlink" version="1.1" viewBox="-10 0 266 256">
   <path fill="currentColor"
d="M116 161q0 11 3.5 20.5t9 18.5t11.5 18l12 18q2 2 4 4.5t4.5 5t5.5 4t6 1.5t5 -1.5t2 -4.5q0 -2 -1.5 -4t-4 -3.5t-5 -2.5t-3.5 -2q-7 -6 -13.5 -14t-12 -17t-9 -18t-3.5 -18v0q0 -1 1.5 -2t2.5 -1q1 -1 6 -1.5t10.5 -1t10.5 -1t7 -0.5t5 -1.5t5.5 -3.5t4 -4t1.5 -5v-0.5
v-0.5q-1 -1 -1.5 -4t-3.5 -3t-4.5 2t-2 4t-1.5 4.5t-3 3.5q-7 3 -14 3h-15q-3 0 -4.5 -1t-2 -3t-0.5 -5v-5v-4v-2l5 -5l24 -3q3 -1 5 -4t3.5 -6.5t1.5 -7v-6.5v-4t-3 -2q-4 0 -5 3.5t-2.5 8t-5 8t-11.5 3.5h-3.5h-3.5q-2 0 -2 -1v-3v-2q0 -1 0.5 -3.5t1 -6t0.5 -6v-3.5v-1
q0 -4 -3 -6.5t-7 -3t-9 -1t-8 -0.5q-1 0 -4.5 0.5t-4.5 0.5t-1 1v2v2t1 1t4 0.5t6 0.5t6 0.5t4 0.5q2 0 3.5 1.5t1.5 3v3.5v3v6t-0.5 5.5t-2.5 4t-5 1.5q-9 0 -13.5 -1.5t-7 -4.5t-3 -6t-1 -5.5t-2.5 -4.5t-7 -2q0 11 1.5 17t5.5 9.5t11 4.5t17 2l4 3v2.5v3.5v4v4.5t-1 4.5
t-3 3h-8q-9 0 -14 -1.5t-8 -4t-4 -5t-2.5 -5t-3 -4t-5.5 -1.5q0 12 2.5 18t8 8t13.5 2q9 0 21 1zM138 33q0 6 2.5 13t6.5 12q1 1 3.5 1t4.5 0.5l4 1t2 2.5v15q0 1 1.5 1h2.5q2 0 3 -2.5t1.5 -6t1.5 -6t4 -2.5h16q2 0 4 -3t3.5 -7t2.5 -7.5t1 -4.5q0 -2 -1 -4t-3 -2
q-3 0 -4.5 3t-3 6.5t-4 6.5t-7.5 3h-3q-2 0 -2 -2v-30l-1.5 -1t-2.5 -1t-2.5 1l-1.5 1l-3 30q0 1 -1.5 1.5t-2.5 0.5q-4 0 -6.5 -2t-4 -5t-2.5 -6.5t-1 -6.5h-7zM79 58v15l0.5 1t0.5 2h1h1q1 -1 3 -2l2 -1v-14q0 -1 4 -1.5t8.5 -3t9 -7.5t4.5 -13q0 -3 -1.5 -5t-4.5 -2
t-3.5 3t-0.5 6t-0.5 6t-4.5 4q-1 0 -4 -0.5t-5 -0.5v-29q0 -4 -3 -4q-1 0 -2.5 0.5t-1.5 1.5l-3 29q-1 2 -3.5 1.5t-3.5 -0.5q-5 0 -6.5 -3t-2 -6.5l-1 -7t-4.5 -3.5q-3 0 -3.5 2t-0.5 4q0 8 1.5 13t4 7.5t5.5 3l6 1t5 1t3 2.5z" />
</svg>
