<?xml version="1.0" standalone="no"?>
<!DOCTYPE svg PUBLIC "-//W3C//DTD SVG 1.1//EN" "http://www.w3.org/Graphics/SVG/1.1/DTD/svg11.dtd" >
<svg xmlns="http://www.w3.org/2000/svg" xmlns:xlink="http://www.w3.org/1999/xlink" version="1.1" viewBox="-10 0 266 256">
   <path fill="currentColor"
d="M147 217q4 6 5.5 11t4.5 9q0 1 1 3t2.5 4t2.5 3.5t1 2.5h2h1q3 0 5 -0.5t3 -3.5q0 -1 -1.5 -3.5t-3.5 -6.5t-5 -8.5t-5.5 -8.5t-4 -6.5t-1.5 -3.5q-2 -5 -2.5 -11t-0.5 -12v-1v-1v-4t0.5 -6.5t0.5 -6v-3.5q1 -2 1.5 -2h1.5h1h1l33 27q1 2 3 2h4t3.5 -0.5t1.5 -3.5
q0 -2 -3 -4.5t-8 -5.5t-10.5 -6t-10 -6.5t-8 -7t-3.5 -6.5t5 -5.5t10.5 -4.5t10.5 -3.5t5 -4.5q0 -1 -1 -1.5t-2 -0.5h-2.5h-1.5q-5 0 -9 2t-7.5 4t-6.5 3.5t-5 1.5q-1 0 -2 -1.5t-2 -4l-2 -5t-2 -3.5q0 -1 -1 -3t-1.5 -4.5t-1 -4l-0.5 -1.5l2 -1l55 -3v-2q0 -3 -1 -3h-4
q-9 0 -17.5 0.5t-16.5 0.5h-16q-3 0 -4 -3t-1 -5q0 -1 0.5 -3t1.5 -2h28q5 0 7.5 -2t4 -5t2 -6.5t0.5 -6.5q0 -2 -0.5 -3t-3.5 -1q-2 0 -3 2t-1.5 5t-1.5 5.5t-4 3.5t-8.5 1h-9.5h-2h-3h-3.5h-1.5q-1 0 -2.5 -1.5t-1.5 -2.5v-17l-1.5 -2t-2.5 -2v0h-1v0q-1 0 -2 1l-1 1v3v2
q0 8 0.5 15t0.5 15v8h-6.5t-10 0.5t-10 0.5h-6.5h-3q-2 0 -3.5 -0.5t-2.5 -3.5l0.5 -2.5t1.5 -2.5v-6v-6q-3 -3 -7 -3q-1 0 -1.5 0.5t-0.5 1.5l-5 68q-2 4 -2 8.5t-1 9.5q-2 10 -6 21t-8 20q-1 3 -2.5 4.5t-1.5 4.5v2.5t2 1.5q5 0 8 -3t5.5 -7.5t4.5 -9.5t2 -8q1 -2 1.5 -5
t1.5 -6.5t1.5 -6l0.5 -2.5q0 -2 0.5 -7t1.5 -11t1.5 -11.5t0.5 -8.5v-6q1 -2 1.5 -5t1 -5.5t1 -4.5l0.5 -2l1 -2h4h9.5t11.5 -0.5t9 -0.5h4h4q2 3 4 7.5t4 9.5t3.5 9.5t3.5 7.5v2t-2.5 5.5t-3.5 5.5q-2 4 -1.5 9.5t0.5 9.5v5.5v3.5q0 2 1 6t1.5 8.5t1.5 8.5t1 5zM97 56v3.5
v5t0.5 5t0.5 3.5q0 2 1 2.5t2 0.5q3 0 3 -3v-3v-4v-4v-3q1 -2 2.5 -2.5l3 -1l3 -1t3.5 -1.5q5 -3 8 -9t3 -11q0 -1 -0.5 -3t-1.5 -4t-2 -3t-3 -1h-1q-1 0 -1 1v5.5t-0.5 7.5t-2.5 7t-6 3h-2.5t-1.5 -1v-26q0 -1 -1.5 -3.5t-3.5 -2.5h-1q0 1 -0.5 1.5l-0.5 0.5v32
q-7 0 -10 -2t-4.5 -4.5t-1.5 -5.5t-0.5 -5.5t-2 -4.5t-5.5 -2q-2 0 -2.5 1t-0.5 2q0 12 6 20.5t20 9.5zM147 50q1 2 4 3t5.5 2t4.5 1.5l2 0.5v15l1 0.5t2 0.5h1v0q1 0 1.5 -0.5l0.5 -0.5v-15q4 0 8 -0.5t8 -2t6.5 -4t2.5 -7.5v-18q0 -1 -1 -1.5t-2 -0.5t-2 0.5t-2 1.5v3v5
v4.5v2.5q-1 2 -2.5 4.5t-2.5 2.5h-11v-34l-1.5 -0.5t-2.5 -0.5v0h-1q-1 0 -2 1t-1 2v0q0 6 0.5 12.5t0.5 12.5v6q-1 2 -2 2.5t-2 0.5q-5 0 -6.5 -4t-2 -8.5t-1 -8t-4.5 -3.5q-2 0 -2.5 1t-0.5 3q0 5 1.5 10.5t2.5 10.5z" />
</svg>
