<?xml version="1.0" standalone="no"?>
<!DOCTYPE svg PUBLIC "-//W3C//DTD SVG 1.1//EN" "http://www.w3.org/Graphics/SVG/1.1/DTD/svg11.dtd" >
<svg xmlns="http://www.w3.org/2000/svg" xmlns:xlink="http://www.w3.org/1999/xlink" version="1.1" viewBox="-10 0 266 256">
   <path fill="currentColor"
d="M185 212v37q0 1 2.5 1.5l2.5 0.5q1 0 2.5 -0.5t1.5 -1.5v-4v-4v-10.5t-0.5 -17t-1.5 -19.5t-2.5 -19.5t-3.5 -16.5t-5 -9q-4 -2 -11 -4t-13 -4.5t-11 -6.5t-5 -11q0 -1 0.5 -1.5l1.5 -1.5l32 -8q2 -1 2.5 -5t1 -9t0.5 -10t1 -8q-2 -2 -5 -2h-1q-6 2 -11.5 3.5t-11.5 3.5
q-21 2 -42 5t-43 5l-1 1q2 3 4 3.5t6 0.5q6 0 12 -1t12.5 -2.5t12.5 -2.5t12 -1q3 0 4 2t1.5 4.5t0.5 5.5v4v3.5v3.5q-1 0 -5 0.5t-5 0.5l-0.5 0.5t-0.5 1.5h-2.5t-3.5 0.5t-3.5 0.5h-2.5q-2 1 -9 2t-14.5 3t-14 3.5l-6.5 1.5q0 2 2 3t3 1q15 0 30 -4t29 -8q0 -1 1 -1h2
t2.5 2t2.5 4.5t1.5 4.5l0.5 2q3 5 6.5 7.5t8.5 4.5t10 3t9 2h3q5 7 7 13.5t3 13t1 13.5v16v5zM84 161q0 1 0.5 2l0.5 1v4t0.5 6.5t0.5 6v3.5q1 10 2 17t4.5 11.5t10 6.5t17.5 2q14 0 21 -2.5t10 -8t3.5 -14t1.5 -21.5v-8v-8q0 -3 -1.5 -3.5t-2.5 -0.5q-3 0 -4 1t-1 3v1v1
q0 1 0.5 2t0.5 2.5v3v1.5l-0.5 1t-0.5 2q-6 -1 -12.5 -0.5t-14 0.5h-14h-12.5v-17h-8q-1 0 -1.5 2.5zM94 188v-5l2 -2q11 1 21.5 0t21.5 -1h4h3l2 1l0.5 2t0.5 3q0 4 -0.5 9t-2.5 9t-5 7t-9 3h-22q-5 0 -8 -2.5t-5 -6.5t-2.5 -8.5t-0.5 -8.5zM137 95l3 -3l1.5 -0.5t4 -1
l5 -1t3.5 -0.5q3 -1 6.5 -2t6.5 -1h2t1 2v17q0 1 -4 2.5t-9 3t-10 2t-6 0.5h-2.5t-1.5 -3v-15zM62 31q0 1 1 5.5t3 9t4 8t3 3.5h15l0.5 1l0.5 1q0 1 0.5 2l0.5 1v17h4l0.5 -1t0.5 -2.5t0.5 -3.5t0.5 -3v-11q7 -1 11 -2t6.5 -3t3.5 -6.5t1 -11.5v-4t-0.5 -3.5t-1.5 -3
t-3 -1.5l-1 0.5t-2 0.5v4t-0.5 6.5t-0.5 6.5v4q-1 3 -2 4t-3 1.5t-4 0t-5 -0.5v-34q0 -1 -1.5 -1h-2.5q-2 0 -2.5 1t-0.5 3q0 8 0.5 16t0.5 17q-6 0 -9 -1.5t-5 -4.5t-2.5 -7t-0.5 -10q-1 -1 -2.5 -1h-3.5t-3 0.5t-1 2.5zM136 29v5t1 9.5t2.5 9.5t3.5 4h14l0.5 2t0.5 3
t0.5 3t0.5 4.5v4.5v3q1 0 1 -1l1.5 -1t1.5 -2l3 -12l1 -2q2 0 6 -0.5t8 -1.5t6.5 -3.5t2.5 -7.5v-21q0 -2 -2 -2.5t-3 -0.5q-2 0 -3 0.5t-1 2.5v20q0 2 -1 3.5t-3 2.5t-4 1h-3h-2.5h-1.5q-1 -1 -1 -4.5t-0.5 -7.5t-0.5 -7.5v-4.5t0.5 -2.5t0.5 -3.5t0.5 -3.5t0.5 -2.5
q0 -2 -1 -2.5t-3 -0.5l-1 0.5l-1 0.5q-1 4 -1.5 9t-1 10.5t-0.5 10.5v8h-2h-3t-4 -1t-3 -2t-1 -3v-20q0 -1 -2 -1.5t-4 -0.5t-2 1v4z" />
</svg>
