<?xml version="1.0" standalone="no"?>
<!DOCTYPE svg PUBLIC "-//W3C//DTD SVG 1.1//EN" "http://www.w3.org/Graphics/SVG/1.1/DTD/svg11.dtd" >
<svg xmlns="http://www.w3.org/2000/svg" xmlns:xlink="http://www.w3.org/1999/xlink" version="1.1" viewBox="-10 0 266 256">
   <path fill="currentColor"
d="M125 122q0 3 -3 5t-7 3t-8.5 2t-6.5 2q-8 4 -13.5 10.5t-9 15t-5.5 17t-2 15.5q0 2 -0.5 8.5t-1 14.5t-1 15.5t-0.5 11.5q0 1 -0.5 4.5t-0.5 4.5q3 0 5 -0.5t3 -2.5q0 -11 0.5 -20t1.5 -17.5t2.5 -17t3.5 -19.5q3 -13 8 -20t13 -11.5t17.5 -7.5t21.5 -7q6 1 11.5 -1
t10 -5.5t7.5 -8.5t3 -10q0 -3 -1 -8.5t-5 -7.5l-23 -11q0 -1 -1 -1h-3q-4 0 -11.5 2t-16.5 5.5t-18 8t-16.5 10t-12 11t-4.5 10.5q6 0 11.5 -4t10.5 -8.5t10 -8.5t11 -4q3 0 6.5 3t6.5 6.5t5 8t2 7.5zM114 215q0 4 3.5 6.5t8 3.5t9 1.5t7.5 0.5q15 0 22.5 -5.5t10.5 -14.5
t2.5 -20.5t-0.5 -22.5q0 -2 -1.5 -4t-3.5 -2t-3 1.5t-1 2.5v17l-2 1l-2.5 0.5t-6 0.5t-7.5 0.5t-6 0.5h-8h-2.5t-5 -0.5t-4.5 -1t-2 -1.5v-15q0 -1 -2 -1.5t-3 -0.5q-3 0 -4 2.5t-1 4.5v3q0 3 0.5 9t0.5 13t0.5 13t0.5 8zM125 217q-2 -1 -3 -3.5t-1.5 -5.5t-0.5 -6v-4v-6
q10 -2 20.5 -2.5t19.5 -0.5q3 0 5.5 1t2.5 4q0 11 -4 17.5t-16 6.5h-11t-12 -1zM117 91q0 -3 3 -4t7 -1.5t7.5 0t4.5 0.5h5h5l6 4.5t3.5 3.5t2.5 4.5t1 7.5l-0.5 2.5t-0.5 3.5q-1 2 -4 4t-6.5 3t-6.5 1.5t-5 0.5t-3.5 -2t-2.5 -5l-2 -6t-3 -4q-3 -3 -7 -5.5t-4 -7.5zM161 53
v18q0 1 1 2l1 1v0h1v0v0q1 0 3 -0.5l2 -0.5v-17q0 -1 3.5 -1t7.5 -0.5t8 -1.5t5 -4t2 -5.5t1 -4.5v-4v-5v-8l-0.5 -0.5l-0.5 -0.5h-1q-1 0 -3 1t-3 2v3t-0.5 4t-0.5 3.5v2.5q-1 4 -2.5 5.5t-4 2t-5 0t-6.5 -0.5q0 -7 1 -14t1 -14q0 -1 -1 -2.5t-3 -1.5h-1q-1 1 -2.5 2
l-1.5 1v28q0 2 -2.5 2.5t-4.5 0.5q-5 0 -7 -1.5t-3 -4t-1 -5.5v-5.5t-0.5 -4t-2.5 -1.5h-2t-1 1t-0.5 3.5l-0.5 2.5q0 8 1 12t3.5 6t7 2.5t12.5 1.5zM85 58v11q1 4 4 4q1 0 1.5 -0.5t1.5 -3.5v-1.5t0.5 -3.5t0.5 -3.5v-2.5q6 -3 10.5 -4t8 -2.5t5.5 -5.5t2 -13v-5.5t-4 -2.5
t-5 3t-1.5 6.5t-1.5 6.5t-4 5q-2 1 -5 2l-3 1l-2 -2v-26q0 -2 -1.5 -3.5t-2.5 -1.5q-2 0 -3 0.5t-1 2.5t0.5 5t0.5 7t-0.5 7.5t-0.5 4.5t-0.5 3.5l-0.5 2.5h-1h-2q-5 0 -7.5 -2.5t-3.5 -6.5t-1 -8.5t-1 -7.5l-0.5 -0.5t-0.5 -1.5h-1q-3 0 -3.5 2t-0.5 4v7t1 8t3 7.5t5 4.5
t7.5 1t6.5 2z" />
</svg>
