<?xml version="1.0" standalone="no"?>
<!DOCTYPE svg PUBLIC "-//W3C//DTD SVG 1.1//EN" "http://www.w3.org/Graphics/SVG/1.1/DTD/svg11.dtd" >
<svg xmlns="http://www.w3.org/2000/svg" xmlns:xlink="http://www.w3.org/1999/xlink" version="1.1" viewBox="-10 0 266 256">
   <path fill="currentColor"
d="M66 246q0 2 0.5 3.5t2.5 1.5q3 0 4.5 -1.5t3 -4t2.5 -4.5l2 -4q13 -17 29.5 -28.5t37.5 -18.5q7 -3 13.5 -4.5t11.5 -4.5t8.5 -7.5t3.5 -13.5q0 -14 -6 -20.5t-20 -6.5q-9 0 -19 3t-19.5 7.5t-18.5 10.5t-17 11l-3 1.5t-1 3.5q0 4 3 4q6 0 11 -4t10.5 -9t11 -9t11.5 -4
q3 0 4 3t1.5 7t0.5 8v6v10.5t-2 5.5t-5 3l-9 3q-7 3 -12.5 7t-11.5 10l-4.5 4.5l-8 8t-8 8.5t-4.5 5q0 1 -1.5 4t-1.5 4v1zM140 153v-9q2 -3 7 -4t8 -1q11 0 16 5t5 17q0 5 -3 9t-7.5 7t-9.5 4.5t-10 1.5l-2 -0.5l-2 -0.5q-1 -4 -1 -7.5t-0.5 -7t-0.5 -6.5v-8zM79 140
q0 1 0.5 2.5t1.5 1.5q2 0 4.5 -1t4.5 -2l20 -14t21 -11q7 -3 16 -5.5t16 -6.5q3 -3 4 -5.5t1 -6.5t-1.5 -7.5t-4.5 -6t-6 -4l-7 -3.5h-9q-8 0 -17.5 2.5t-19.5 6.5t-18 9.5t-13 11.5v0q0 4 4 4t8 -3t7.5 -6.5t7.5 -6.5t9 -3q1 0 4 2.5t5.5 6.5t4.5 7.5t2 5.5v2t-2 3l-2 1
t-3.5 2t-3.5 1.5t-2 1.5l-7 3.5t-10.5 5.5t-10 6.5t-4.5 5.5zM116 82v0q7 -4 11 -4.5t10 -0.5h4h4q1 2 4 3.5t5 3t3.5 4t1.5 5.5q0 2 -3 4t-7 4.5t-8 4t-5 1.5t-4 -4t-6.5 -8.5t-6.5 -8.5zM92 53v15l1 0.5t1 1.5h1h1q0 -1 1 -1.5l1 -0.5v-15q9 -1 16 -7t7 -16q0 -3 -0.5 -4
t-3.5 -1t-3.5 2.5t-1 5.5l-1 6t-3.5 4q-2 0 -5 -0.5t-4 -0.5v-26q0 -2 -1 -2.5t-2 -0.5h-2t-1 2v25q0 2 -1.5 3.5t-3.5 1.5q-4 0 -6 -3.5t-3 -7.5t-2 -7.5t-5 -3.5q-3 0 -3 2v5q0 12 6 17.5t17 5.5zM143 47q2 3 5.5 3.5t6.5 1.5q2 0 2.5 2.5t0.5 5t0.5 4t1.5 1.5q2 0 3 -1.5
t1.5 -3.5t0 -4t-0.5 -3q5 -1 9.5 -2t8 -3.5t5.5 -6t2 -9.5v-4.5t-3 -2.5q-4 0 -4 3t-1 7t-3.5 7t-10.5 3q0 -6 0.5 -11.5t0.5 -11.5q0 -3 -1 -6t-4 -3h-2t-2 2q1 6 0.5 13.5t-1.5 14.5l-1.5 1.5t-1.5 0.5q-4 0 -6 -3.5t-3 -7.5t-1.5 -7.5t-2.5 -3.5q-3 0 -3 3v2q0 1 0.5 4
t1.5 6t1.5 5.5t0.5 3.5z" />
</svg>
