<?xml version="1.0" standalone="no"?>
<!DOCTYPE svg PUBLIC "-//W3C//DTD SVG 1.1//EN" "http://www.w3.org/Graphics/SVG/1.1/DTD/svg11.dtd" >
<svg xmlns="http://www.w3.org/2000/svg" xmlns:xlink="http://www.w3.org/1999/xlink" version="1.1" viewBox="-10 0 266 256">
   <path fill="currentColor"
d="M63 247q0 2 2 3t4 1q3 0 4 -3t2 -7.5t1 -8.5v-5q3 -13 5.5 -21.5t6.5 -15t10 -13t17 -14.5q3 -3 6 -4.5t8 -1.5q6 0 11.5 3.5t10.5 9.5t9.5 13.5t8 14.5t6 14t3.5 11q0 2 0.5 5.5l1 7l1 7t0.5 5.5q2 1 5 1h2t1 -1v-6q0 -10 -2.5 -19t-6 -17.5t-8 -17t-7.5 -18.5
q-1 0 -5 -2.5t-8.5 -5.5t-8 -5.5l-3.5 -2.5q0 -3 2.5 -4.5t6 -3t6 -3t2.5 -4.5v-20q0 -3 -3.5 -6t-8 -5t-9 -3.5t-5.5 -3.5v-6v-2v-3.5t0.5 -2.5t2.5 -1q7 0 16 3.5t18 7.5t19 8t19 4v-2v-2t-0.5 -2.5t-1.5 -1.5q-3 -1 -9.5 -3.5t-13.5 -5t-13 -4t-8 -1.5l-24 -7
q-4 -2 -4.5 -4.5t-0.5 -5.5t-1 -5.5t-6 -2.5v14q0 2 -5 5t-12.5 5.5l-16.5 5.5t-17 6t-14.5 6t-8.5 6v0q0 3 2.5 3h3.5q6 0 10.5 -3t9.5 -6q1 0 7.5 -2.5t14 -5.5t15 -5.5t11.5 -2.5h0.5t-0.5 1v2t-0.5 4t-0.5 3.5v2.5l-0.5 0.5t-1.5 0.5q0 1 -3 2l-3 1q-5 3 -9 5t-6.5 5
t-4 7t-1.5 10t2.5 10t6 6.5t6.5 4l3 1.5q0 3 -3 5.5t-6.5 5l-7 5t-5.5 3.5q0 1 -1.5 2.5l-3 3l-3 3t-1.5 2.5q-5 6 -7.5 13.5t-4.5 16t-3 17t-3 15.5v0.5v0.5zM102 131q0 -5 2 -9t6 -7t9 -4.5t10 -1.5q1 0 4 0.5t4 0.5q5 2 9 6.5t4 10.5q0 10 -6.5 16.5t-17.5 6.5
q-5 0 -9.5 -1t-8 -3.5t-5 -6t-1.5 -8.5zM84 60v3t0.5 4l1 4t0.5 3t1.5 2.5t2.5 1.5h2.5t1.5 -2v-16q0 -1 4 -2t9 -2.5t9 -6t4 -12.5v-6q-1 0 -2 -1l-2 -2v0v0h-1v0q-1 0 -1.5 0.5t-0.5 1.5q0 3 -0.5 7t-1.5 7t-3.5 5t-7.5 2h-1h-2t-2 -0.5l-1 -0.5v-19q0 -2 -0.5 -4.5l-1 -5
t-2 -4t-4.5 -1.5v35h-2.5t-3 0.5t-2.5 1t-2 -0.5q-5 -1 -6 -5t-1.5 -7.5t-1 -6t-3.5 -2.5t-3.5 1t-0.5 3v2q0 1 0.5 3.5l1 5l1 5t0.5 3.5q1 1 3 2t3 1h3t4 0.5t4 0.5h2zM165 57v12h4q0 -6 2 -9.5t5 -5t7.5 -2t10.5 -1.5q1 -1 2 -1q0 -1 0.5 -4t0.5 -4t0.5 -3t0.5 -3.5
t0.5 -3l0.5 -1.5q0 -1 -2 -4t-4 -3h-1l-0.5 0.5l-0.5 0.5v9.5t-1 7.5t-4.5 4.5t-9.5 1.5q-2 0 -2.5 -0.5t-2.5 -1.5q1 -1 1 -3q0 -3 -1 -4q0 -2 -0.5 -5t-0.5 -6.5t-0.5 -7t-0.5 -4.5q-2 -4 -6 -4v36l-1 0.5l-2 1t-2 0.5h-2q-2 0 -4 -1t-5 -3v-9t-3 -9l-1 -1l-1 -1l-1.5 1
l-1.5 1v1q0 8 0.5 13.5t3.5 8.5t8 4t14 2z" />
</svg>
