<?xml version="1.0" standalone="no"?>
<!DOCTYPE svg PUBLIC "-//W3C//DTD SVG 1.1//EN" "http://www.w3.org/Graphics/SVG/1.1/DTD/svg11.dtd" >
<svg xmlns="http://www.w3.org/2000/svg" xmlns:xlink="http://www.w3.org/1999/xlink" version="1.1" viewBox="-10 0 266 256">
   <path fill="currentColor"
d="M103 191q0 18 8.5 31.5t23.5 25.5h1h1q1 0 3 -2l2 -2q1 -2 -1 -3.5t-4.5 -3t-4.5 -3t-3 -1.5q-5 -4 -8 -8.5t-5 -10t-3 -10.5t-1 -10v-5l2 -2.5l4 -5t3.5 -4.5t1.5 -3t0.5 -2l1 -2t1 -2.5t1.5 -2.5v-1q0 -4 -2.5 -7t-6 -5.5t-6.5 -5t-4 -5.5q12 -4 15 -8.5t3 -8.5
q0 -5 -0.5 -10t3.5 -11q1 0 3 -0.5t3.5 -1t3 -1.5t1.5 -2q0 -3 -3 -3h-5q-7 0 -14 0.5t-15 0.5q-4 0 -5.5 -2t-2 -4.5t-1.5 -5t-6 -4.5l-2 3v18h-25q-2 0 -3.5 1.5t-2 4t-1 4.5t-0.5 3q0 7 1.5 13.5t2.5 13.5l1 1l1 2t2 5t2.5 6t1.5 4v2q0 3 -2 6.5t-4.5 7.5t-5 9t-2.5 11
q0 11 2 23.5t4 22.5h3q3 0 5 -1t2 -4v-1q-1 0 -1.5 -1.5t-0.5 -2.5q0 -2 -0.5 -6t-1 -9t-1 -9t-1.5 -6v-4q0 -1 1 -5.5l2 -9t3 -8t5 -3.5t4.5 2.5t3.5 5.5t4.5 5.5t6.5 2.5q3 0 3 -3v-4q0 -3 -2 -5.5t-4.5 -4.5t-5 -4.5t-2.5 -6.5q0 -2 1 -3t4 -3q2 -1 4.5 -2.5t4 -2.5
t1.5 -2h5q1 0 3 2l4 4t4 4.5t3 2.5q0 1 1.5 2.5l1.5 1.5q1 4 -1.5 7.5l-5 7t-5.5 6.5t-3 7zM148 122q0 2 0.5 6.5t1 10t0.5 10v6.5t1.5 4.5t3 4.5t4 3.5t5.5 1.5h25q4 0 8 -2t6 -5q2 -9 1.5 -18t-0.5 -18v-21q0 -2 -1.5 -3.5t-3.5 -1.5q-3 0 -4 2t-1 4v2.5v3.5v3.5v2.5l-3 2
l-2.5 0.5t-6 0.5t-6.5 0.5t-6 0.5h-6h-7q-4 -3 -4 -8v-9q-3 0 -4 1t-1.5 2t-0.5 3v3v4t1 4zM157 140v-5t0.5 -3t2.5 -1.5t5 -1.5q1 0 4.5 -0.5t8 -1t8.5 -0.5t6 -1h1q2 0 3 1.5t1.5 3t0.5 2.5v3q0 2 -0.5 6t-1.5 8t-3.5 7.5t-6.5 3.5h-21q-3 0 -4.5 -3t-2.5 -6.5t-1 -7v-4.5
zM71 146q-1 -3 -2.5 -7t-2.5 -8t-2.5 -7.5t-1.5 -7.5q0 -3 2.5 -4.5t6 -2.5t7 -1.5t5.5 -1.5q2 0 4 4.5t4 10t3 10t1 5.5q0 3 -2 5t-4.5 3.5t-5.5 2.5t-6 1h-3.5t-2.5 -2zM94 111q0 -1 0.5 -2t1.5 -2.5t2 -2.5t2 -1h17v20q0 2 -1.5 4t-3 3.5t-4 2.5t-3.5 1q-2 0 -4 -3.5
t-3.5 -7.5t-2.5 -7.5t-1 -4.5zM161 63v12l1 0.5t2 0.5v0h1q2 0 3 -1.5t1.5 -3.5t0.5 -4v-2q1 -1 4 -2t7 -1.5t8 -2.5t7 -5l1 -1l1 -1v-23l-2 -3l-7 6q0 2 0.5 6t-0.5 8t-3 6.5t-7 2.5q-2 0 -3.5 -0.5t-3.5 -1.5q1 -8 0.5 -16.5t-2.5 -16.5q0 -2 -0.5 -2.5t-2.5 -0.5
q-1 0 -3 0.5t-2 2.5q0 7 1 14t1 14q0 3 -1 5.5t-5 2.5q-5 0 -7.5 -2.5t-3 -6.5t-0.5 -8v-6q-1 -1 -1.5 -1h-1.5q-4 0 -4 2v2q0 1 0.5 3.5t1.5 5.5t1 5.5t1 3.5q3 5 7 6.5t10 2.5zM91 73q0 1 1 1.5t3 0.5q1 0 3 -0.5t2 -2.5v-10l2.5 -1t6.5 -2t7.5 -2.5t5.5 -3.5v-2.5t0.5 -4
t0.5 -4v-2.5v-1v-3t-0.5 -3.5t-1.5 -2.5t-3 -1q-3 0 -3.5 3.5t-0.5 8t-1.5 8t-6.5 3.5h-3q-2 0 -2 -2l-3 -30h-1h-1h-3t-2 2v28l-2 3l-1 0.5t-2 0.5q-4 0 -6 -2t-3 -5t-1 -6t-0.5 -6t-1.5 -4.5t-4 -1.5t-4.5 2t-1.5 5q0 1 1 3.5t2 5.5t1.5 5.5t0.5 3.5q2 2 6 3l8 2t7 2.5
t3 2.5v2q0 1 -1 3t-1 3v1z" />
</svg>
