<?xml version="1.0" standalone="no"?>
<!DOCTYPE svg PUBLIC "-//W3C//DTD SVG 1.1//EN" "http://www.w3.org/Graphics/SVG/1.1/DTD/svg11.dtd" >
<svg xmlns="http://www.w3.org/2000/svg" xmlns:xlink="http://www.w3.org/1999/xlink" version="1.1" viewBox="-10 0 266 256">
   <path fill="currentColor"
d="M136 171q0 7 2 16t6 19t8.5 18.5t8.5 12.5q1 1 3 2.5t2 2.5q1 1 1 2.5t0.5 3t1.5 2t4 0.5q4 0 6 -3t2 -7v-1l-18 -18q-1 -4 -3.5 -7t-4.5 -7q-4 -12 -7 -24t-3 -25q0 -2 0.5 -5t1.5 -5.5t3 -4.5t5 -2q7 0 11 4.5t6.5 11.5t4 15t2.5 15t2 11.5t4 4.5q4 0 5 -4t1 -8
t-1.5 -8.5t-2.5 -8.5q-1 -6 -3 -13.5t-5.5 -14t-8.5 -11t-14 -4.5q-8 0 -12 4.5t-7 11.5v4t-0.5 7t-0.5 7v5v1zM69 240q0 3 4 3q8 0 14.5 -7t12.5 -16.5t10.5 -19t5.5 -15.5q2 -6 2.5 -13.5t0.5 -14.5v-9.5t-2 -8t-6 -5.5t-11 -2q-8 0 -14 3.5t-10 9.5t-7 13t-5 15t-2.5 15
t-0.5 13q0 2 0.5 4t3.5 2q2 0 3.5 -1t2.5 -3q0 -1 0.5 -4t0.5 -6t0.5 -6t0.5 -4q0 -5 2 -12.5t5 -14t8 -11t12 -4.5q5 0 7 2.5t3 5.5q0 1 0.5 4.5t0.5 4.5q0 15 -4.5 28.5t-11.5 26.5q-2 3 -6 6.5t-8.5 7t-8 6.5t-3.5 7zM66 116q0 2 2 2.5t5 0.5q4 0 11.5 -1.5t14 -4
t11.5 -7t5 -10.5t-2.5 -10t-6.5 -6.5t-9 -3t-12 -0.5h-3h-4.5t-4.5 1t-2 3v2.5t2 1.5h24q1 0 2.5 1.5t2.5 3t1.5 4t0.5 3.5v2q-4 5 -10.5 7t-12.5 3t-10.5 2.5t-4.5 5.5zM143 95q0 9 5 13.5t12 6.5t15 2.5t15 0.5v-7q-8 -1 -17.5 -2.5t-17.5 -3.5l-4 -4t-2 -5t2 -6t6 -3h28
q1 0 1.5 -1l0.5 -1q0 -3 -3.5 -4.5t-5.5 -1.5h-24q-3 0 -5 2t-3.5 4.5t-2 5t-0.5 4.5zM86 57v12l1.5 1t1.5 2h1q2 0 3.5 -2t2 -4t1 -4.5t0.5 -4.5q2 0 4.5 -1t5.5 -1.5t5.5 -1t3.5 -0.5l3 -3l0.5 -1.5t0.5 -3.5t0.5 -4.5t0.5 -3.5v-2v-3v-3.5v-2.5l-1.5 -1.5t-1.5 -0.5
q-5 0 -6 3.5t-1.5 8t-2 8t-5.5 3.5h-4t-2 -3v-29q-4 0 -7.5 0.5t-3.5 5.5v22q0 2 -1 4t-3 2q-5 0 -7.5 -2.5t-3.5 -6.5t-1 -8.5v-7.5q-1 0 -2 -0.5l-1 -0.5h-0.5h-0.5h-0.5h-0.5l-1.5 1t-1.5 2v20l0.5 1t1.5 2q0 1 1.5 2.5l1.5 1.5zM143 23l-2 0.5l-2 0.5q-2 1 -2 2v23
q0 3 3.5 4.5t7.5 2.5t7 1.5t3 1.5v11q0 2 2 2h2q3 0 4 -1.5t1.5 -3t0.5 -3.5t1 -4q1 -3 5 -3.5t8.5 -0.5t8 -1t3.5 -5q2 -5 2 -9v-9v-5l-1 -1.5t-2 -1.5h-1q-4 0 -5 4t-1.5 8.5t-2 8.5t-8.5 4q-2 0 -3.5 -0.5t-1.5 -2.5v-5v-7v-6.5v-4.5q0 -4 -0.5 -6.5t-4.5 -2.5
q-2 0 -2.5 0.5t-1.5 2.5q-2 8 -2 15q0 8 1 15l-2 2h-12v-22l-0.5 -1t-0.5 -2l-1 -0.5z" />
</svg>
