<?xml version="1.0" standalone="no"?>
<!DOCTYPE svg PUBLIC "-//W3C//DTD SVG 1.1//EN" "http://www.w3.org/Graphics/SVG/1.1/DTD/svg11.dtd" >
<svg xmlns="http://www.w3.org/2000/svg" xmlns:xlink="http://www.w3.org/1999/xlink" version="1.1" viewBox="-10 0 266 256">
   <path fill="currentColor"
d="M52 245v1q0 1 2 3t3 2h144q1 0 2.5 -2t1.5 -3t-1 -2.5t-2 -2.5q-16 1 -33.5 0.5t-34.5 -2.5v-1.5v-2.5q0 -3 1 -7t1 -8q1 0 3.5 -0.5t2.5 -1.5h4.5t7 -0.5t7 -0.5h4.5q12 -1 17.5 -5t8 -10t3 -14t0.5 -17q0 -1 0.5 -5.5t0.5 -9.5t0.5 -9t0.5 -5v-21v-20q-2 -2 -4 -3
t-4 -1h-2.5t-0.5 1v58q0 1 -0.5 3.5t-1 5.5t-0.5 5.5v3.5v2v4v4v2q-1 2 -2 5l-2 6t-1.5 5t-1.5 2l-4 3l-3 0.5t-6 0.5t-6.5 0.5t-6.5 0.5h-7q-5 0 -8 -1t-3 -6q0 -6 4 -8t8 -3t7.5 -4t3.5 -10q0 -5 -2.5 -10.5t-5.5 -10.5t-5.5 -9.5t-2.5 -8.5q0 -7 5 -11.5t11 -8t11.5 -6.5
t5.5 -7q0 -3 -1 -4t-4 -1q-6 0 -11 4.5t-10 10t-9 10t-6 4.5q-3 -1 -6.5 -5.5t-7.5 -10.5t-9 -10.5t-10 -4.5q-1 0 -2.5 0.5t-1.5 2.5q0 4 4 8t8.5 8l9 8t4.5 9q0 2 -4 6.5t-8.5 10t-8.5 12.5t-4 15v5q3 3 6 4.5t6.5 2l7 1t6.5 0.5q2 2 2 4v4q0 3 -0.5 6.5t-4.5 3.5h-18
t-14 -2.5t-9.5 -7.5t-3.5 -16q0 -1 -0.5 -5.5t-0.5 -9.5v-10v-7v-6v-5.5v-8t0.5 -8.5t0.5 -5v-5q0 -7 -7 -7h-2h-1l-2 8v4v5v6v5q0 15 0.5 31.5t3.5 30.5q0 1 0.5 3t1 3.5l1 3l0.5 1.5q3 6 8 8t11 2h7t10.5 -0.5t10.5 -0.5h7q0 2 0.5 5.5t0.5 7.5t-1 7t-4 5h-3h-5h-4.5h-3.5
q-3 0 -10 0.5t-14.5 0.5t-14.5 0.5t-9 0.5l-2 1v1zM102 179l0.5 -2l1 -4t1.5 -4t2 -3q1 -3 3 -6.5t4.5 -7t5 -6.5t5.5 -3t6.5 4t6.5 9t4.5 9.5t1.5 7.5t-1.5 5.5t-4 3.5t-5 1h-5.5h-7h-5t-5.5 -0.5t-4.5 -0.5h-2zM81 69v17l1.5 0.5t3.5 0.5h1v0l4 -3q-1 -8 -0.5 -11.5
t2.5 -5t4 -1.5q3 0 5 -0.5t4.5 -2t3.5 -6.5q0 -1 0.5 -3.5l1 -5t1 -4.5t0.5 -3v-3v-3t-0.5 -4t-2 -3.5t-2.5 -1.5q-3 0 -4 2.5t-1.5 5.5t-0.5 7t-0.5 7.5t-2.5 6t-6 2.5q-2 0 -3 -1.5t-1 -4v-4.5v-4q0 -6 1 -12t1 -12t-6 -6h-2.5t-1.5 2v35q0 4 -1 6t-5 2q-5 0 -7 -2
t-2.5 -5.5t-0.5 -7.5v-7.5t-1 -6t-4 -3.5t-4 2t-1 4v2v4t0.5 6.5t1 6.5t0.5 4t1 2.5t2 3.5t2 3.5t3 1.5h13zM155 81q1 2 2 2.5t3 0.5h2q1 0 2.5 -0.5t1.5 -1.5v-13q9 -2 14.5 -4.5t8.5 -6t4 -10t1 -16.5q0 -3 -0.5 -5.5t-3.5 -2.5t-4.5 2.5t-2 5.5t-0.5 7.5t-1.5 7.5t-4 5.5
t-7.5 2.5h-2t-1 -2q-1 0 -1 -3v-5q0 -5 1 -10.5t1 -11.5q0 -7 -2 -9t-8 -2v41q0 3 -2.5 3.5t-4.5 0.5q-1 0 -3.5 -0.5t-2.5 -3.5v-22q0 -1 -2 -1.5t-3 -0.5q-4 0 -5 3t-1 6q0 2 0.5 5t1 6.5t1.5 6t2 4.5q4 4 7.5 4.5t5.5 1t3 3.5t0 12z" />
</svg>
