<?xml version="1.0" standalone="no"?>
<!DOCTYPE svg PUBLIC "-//W3C//DTD SVG 1.1//EN" "http://www.w3.org/Graphics/SVG/1.1/DTD/svg11.dtd" >
<svg xmlns="http://www.w3.org/2000/svg" xmlns:xlink="http://www.w3.org/1999/xlink" version="1.1" viewBox="-10 0 266 256">
   <path fill="currentColor"
d="M124 249l1.5 1.5t1.5 0.5q2 0 4.5 -1.5t2.5 -3.5v-38q0 -3 -0.5 -4.5t-0.5 -3.5q0 -3 1 -4.5t1 -4.5q0 -5 -1 -9.5t-1 -10.5v-5v-3l1 -3h4q8 0 13 4t5 12v38l0.5 0.5t1.5 0.5q0 1 1.5 1.5l1.5 0.5q3 0 3.5 -2t0.5 -4q0 -8 -0.5 -15t-2.5 -14q0 -5 -1 -9.5t-2.5 -8.5
t-4.5 -6.5t-9 -3.5q-3 -1 -4 -0.5t-2 0.5h-2t-4 -2v-1.5v-2.5q0 -3 1 -6t1 -6t-1 -4.5t-3 -1.5h-3t-2 2v20q0 1 -3.5 2t-7.5 2l-8 2t-5 2q-2 2 -3.5 9.5t-3 16t-2 16t-0.5 10.5v1q2 2 2 4t3 2q1 0 3 -1t2 -3v-38q0 -4 1.5 -7t4.5 -5.5t6.5 -3.5t7.5 -1q2 0 2.5 1t0.5 3
q0 17 -1 34t-1 34v17zM60 153q0 2 1 2h2q3 0 5 -0.5t5 -2.5q1 0 4 -2l6 -4l6 -4t4 -3q4 -2 8.5 -6t9.5 -8t10 -6.5t9 -2.5q1 0 4 1.5t6 3.5t5.5 4t3.5 2q3 2 9 5.5t12.5 7t13 6t9.5 2.5q2 0 2.5 -1t0.5 -3q0 -3 -3.5 -5t-9 -4.5t-12.5 -4.5t-13.5 -4.5t-11.5 -5.5t-7 -7
v-0.5v-0.5v-0.5v-0.5l12 -12h1q3 0 5.5 1.5l5 3t5 2.5t5.5 1t4.5 -0.5t1.5 -3.5v-1t-1 -1q-2 -1 -8 -2.5t-12 -4t-10.5 -5.5t-4.5 -6t2.5 -4t5.5 -2t5 -2.5t2 -4.5q0 -1 -0.5 -2t-1.5 -1q-4 0 -7.5 2t-6.5 4t-6.5 4t-6.5 2t-5.5 -2l-5 -4t-5.5 -4t-7 -2q0 2 1.5 4.5t4 4
t4.5 3t4 3.5q-2 4 -9.5 7t-14.5 6t-13 6.5t-6 6.5q0 2 1 2.5t3 0.5t5 -1t5.5 -2.5t5 -3.5t4.5 -3l9 4.5t8 5.5q-1 2 -5.5 5.5t-11.5 7.5t-14 9t-13 9t-10 7t-4 4zM112 99q0 -3 2.5 -5.5t6 -4t7 -2.5t5.5 -1t3.5 1t3 2.5t2.5 3.5t1 4t-1.5 4t-4.5 3.5t-6 2t-5 0.5
q-1 0 -3.5 -0.5t-4.5 -1.5t-4 -2.5t-2 -3.5zM133 20q0 6 1 13.5t3 13.5q1 2 3.5 2.5t4.5 1l4 1t3 2.5q1 1 2 5t1 5h1q2 0 2.5 -1t1 -3t1 -3.5t0.5 -2.5q2 -3 6 -3t8.5 -1t7.5 -5t3 -14q0 -2 -0.5 -5.5t-3.5 -3.5t-5 1v7.5t-1.5 8t-4 6t-6.5 2.5q-2 0 -3 -1t-1 -2.5v-3.5v-3
q0 -5 1.5 -10.5t1.5 -10.5q0 -2 -1.5 -3.5t-3.5 -1.5h-1q-1 1 -2.5 2l-1.5 1v30q0 2 -1.5 2.5t-2.5 0.5q-4 0 -5.5 -2t-2 -5t0 -6.5t0 -6.5t-3 -5t-6.5 -2zM74 18v4v6v6v4q0 4 2 6t4 3t5 2t5 2t2.5 2t1 2.5t1 3.5t1.5 2q3 -1 3 -3.5t2 -4.5q1 -2 3.5 -3l5 -2t5 -2.5
t3.5 -3.5q2 -5 2.5 -8t0.5 -8v-4t-2 -2q-3 0 -4 1.5t-1 4.5t-0.5 6t-1.5 5.5t-3.5 4t-7.5 1.5v-29l-0.5 -0.5t-1.5 -0.5l-1.5 -0.5t-2.5 -0.5v7.5t-0.5 11t-1.5 10t-3 4.5l-1.5 -0.5t-3.5 -1t-3 -1.5t-1 -3v-19l-1 -0.5t-1.5 -0.5t-2.5 -0.5z" />
</svg>
