<?xml version="1.0" standalone="no"?>
<!DOCTYPE svg PUBLIC "-//W3C//DTD SVG 1.1//EN" "http://www.w3.org/Graphics/SVG/1.1/DTD/svg11.dtd" >
<svg xmlns="http://www.w3.org/2000/svg" xmlns:xlink="http://www.w3.org/1999/xlink" version="1.1" viewBox="-10 0 266 256">
   <path fill="currentColor"
d="M50 243q0 2 2.5 3t4.5 1q20 0 37.5 -0.5l35 -1t35.5 -1t37 -0.5q3 0 5 -1t2 -4q0 -2 -1.5 -3.5t-3.5 -1.5h-65l-1 -0.5l-1 -0.5q0 -1 -0.5 -2.5t-0.5 -3v-3v-1.5v-5t1 -6t2 -5t2 -3q11 -1 22 -1t22 -2q2 -1 2 -2v-2v-3t-2 -1h-8q-12 0 -25.5 0.5t-26.5 1.5t-26 1.5
t-26 0.5v2v1q0 2 0.5 3t3.5 1h48q2 0 2 1.5v2.5v3q0 1 -0.5 4.5t-0.5 7t-0.5 7t-0.5 4.5q-9 0 -18 1t-18.5 1.5l-19 1t-18.5 -0.5q-1 2 -1 3v3zM81 145q0 3 1 9t3 12.5t5 11.5t7 5q3 0 3.5 -1.5t0.5 -5.5q0 -3 -1.5 -6.5l-3 -7l-3 -7t-1.5 -7.5q0 -5 1.5 -9.5t2.5 -8.5
t2.5 -8t1.5 -8q0 -3 -1 -5t-4 -2t-5.5 5.5t-4.5 12t-3 12.5t-1 8zM120 147q0 2 1 8t2.5 11.5t4 10t6.5 4.5q3 -1 4 -3t1 -4q0 -3 -1.5 -6.5t-3 -8.5l-3 -10t-1.5 -10q0 -3 1 -6.5t2 -6.5l2 -6t1 -7q0 -2 -1 -4.5t-4 -2.5t-4 1.5t-2 3.5q0 1 -1 3.5t-1.5 4.5l-0.5 2l1 2
l-2 12t-1 12zM159 148q0 4 1 9.5t3 10.5t5.5 9t8.5 4q2 0 4.5 -1t2.5 -4q0 -1 -2 -4t-4.5 -6.5t-5 -6.5t-2.5 -5q0 -1 -0.5 -4.5t-0.5 -5.5q0 -9 3 -17.5t3 -17.5q0 -3 -0.5 -4t-4.5 -1t-6.5 6.5t-3.5 14t-1 14.5v9zM51 93q0 3 3 4.5t7 2.5t7.5 1h5.5h1q1 0 2 -0.5t2.5 -0.5
t3 -0.5l1.5 -0.5h4.5t5 -0.5t5 -0.5h2.5h96q3 0 3.5 -1t0.5 -2t-0.5 -2.5t-1.5 -1.5h-146l-0.5 0.5l-1.5 1.5v0zM146 34q0 9 1.5 14t4 7t5 2.5l5 1t4.5 1t2 3.5v3t0.5 5t0.5 5.5v3.5q1 0 4 -1l3 -1v-15q0 -2 3.5 -3t8.5 -1.5t9 -2t5 -5.5q0 -1 1 -3.5t1.5 -5l1 -5t0.5 -3.5
q0 -2 0.5 -3l0.5 -1l0.5 -0.5t0.5 -2.5q0 -3 -2 -3.5t-5 -0.5t-4.5 2t-1.5 5v7t-1 7t-4 5t-8 2h-3t-2 -2q-1 -1 -1 -5v-4q0 -7 2 -12.5t2 -12.5q0 -4 -4 -4t-5.5 3t-2 7.5t-0.5 9.5v9.5t-1 7.5t-4 3q-5 0 -7 -3.5t-2.5 -8t-0.5 -8.5v-7q-1 -1 -1.5 -1h-2.5h-2t-1 1v5v5z
M63 49q1 1 5 3t8 3.5t7.5 3.5l3.5 2v16h1.5t2.5 -1q2 -1 3 -2.5t1 -3.5v-3q0 -2 1 -4q1 -4 3.5 -5t5.5 -2t6.5 -2t6 -4t4 -7.5t1.5 -12.5q0 -3 -0.5 -4.5t-4.5 -1.5h-3t-2 2l-3 17q-1 3 -3.5 4t-5.5 1q-4 0 -4.5 -2t-0.5 -5q0 -8 1 -15.5t1 -15.5q-1 0 -5 0.5t-5 0.5
t-1.5 0.5t-0.5 1.5v33q0 2 -2 3t-3 1q-4 0 -6 -3.5t-3 -8t-1.5 -9t-0.5 -6.5q-1 -2 -2.5 -2.5t-3.5 -0.5q-3 0 -3.5 2t-0.5 4q0 7 1 12t2 11z" />
</svg>
