<?xml version="1.0" standalone="no"?>
<!DOCTYPE svg PUBLIC "-//W3C//DTD SVG 1.1//EN" "http://www.w3.org/Graphics/SVG/1.1/DTD/svg11.dtd" >
<svg xmlns="http://www.w3.org/2000/svg" xmlns:xlink="http://www.w3.org/1999/xlink" version="1.1" viewBox="-10 0 266 256">
   <path fill="currentColor"
d="M67 227q1 -15 5 -29t11 -27q1 -2 3 -5l2 -3h11q1 0 1.5 3.5t0.5 7.5v11t1 11t3 9t6 5q14 4 28 5.5t28 5.5l2 0.5l2 0.5l2 2t3 2t3.5 2.5l2.5 2.5q2 2 3 4.5t2.5 5t3.5 4.5t5 2q2 0 4 -2.5t2 -4.5q0 -7 -6 -12.5t-13.5 -9.5t-16 -6.5t-13.5 -3.5q-3 0 -10.5 -0.5t-15 -2
t-13.5 -3.5t-6 -6v-33q0 -5 -4 -7t-8 -2q-7 0 -12 4t-9.5 10t-7.5 14.5t-5.5 16.5t-3.5 15.5t-1 12.5v3q0 3 1 3q2 0 4.5 -2t4.5 -4zM120 183v3v3q1 0 1.5 0.5l0.5 0.5h75q1 0 3 -1.5t2 -2.5l-2 -2l-1 -1h-36v-15l5 -5h14h2.5t3 -0.5t2.5 -1.5t1 -3q0 -1 -0.5 -2t-2.5 -1
h-20q-1 0 -2 -2l-1 -2v-1q0 -4 2.5 -6.5t5.5 -4.5t7.5 -3t7.5 -3t5.5 -6t2.5 -10t-4 -9t-10 -4t-13 -1q-6 0 -10 -1q-5 -1 -7.5 -3t-4 -4.5t-2 -4.5t-2.5 -2t-3 1t-1 3q0 4 1 6.5t2.5 4.5l3 4t1.5 4v0.5v1.5q-1 1 -3.5 3t-5 4.5l-4.5 4.5l-3 3q-1 2 -4 5t-5.5 6t-4 6.5
t-1.5 5.5l0.5 1t0.5 2h1h1q2 -2 5.5 -6t7 -9t7.5 -10t8 -9.5t8 -7t7 -2.5h1q2 0 5 0.5t6.5 1t6.5 1t4 0.5q3 2 3 4q0 5 -2.5 8t-7 5t-9 3.5t-7.5 3.5q-2 2 -3 4.5t-1.5 5l-1 5t-2.5 3.5q-2 2 -5.5 2.5t-7 0.5t-6 0.5t-4.5 0.5v5h23q2 0 2 2v2v3.5t-0.5 5.5t-2 4.5t-3.5 1.5
h-30zM58 140q-2 1 -2.5 3.5t-0.5 3.5q6 0 15 -2t18.5 -6t16 -9.5t6.5 -12.5q0 -5 -2.5 -8.5t-6.5 -5t-8.5 -2t-8.5 -0.5q-4 -1 -7.5 -2.5t-7.5 -1.5q-1 0 -4.5 0.5t-3.5 2.5q0 4 3 5t7 1.5t9 1t9.5 1t7.5 2t3 5.5q0 5 -5.5 9t-13 7t-14.5 5t-10 3zM77 58q2 3 4.5 4.5
t5.5 2.5t5 1.5l2 0.5v20q0 1 2 1.5l2 0.5q3 0 4.5 -2.5t1.5 -5.5t-0.5 -6t-0.5 -5q2 -2 5.5 -4t6.5 -3.5t5.5 -4t3.5 -4.5v-3.5t0.5 -5.5t1 -5.5t0.5 -4.5v-1v-3.5t-2 -1.5q-5 0 -6.5 4t-2 9.5t-2 10t-6.5 4.5q-3 0 -3.5 -3t-0.5 -6q0 -7 1 -14.5t1 -14.5q0 -3 -0.5 -4
t-3.5 -1q-1 0 -3 0.5t-2 2.5v38q0 1 -2 1.5l-2 0.5q-3 0 -4.5 -2.5t-2.5 -5.5t-1 -7t-0.5 -7t-1 -5.5t-2.5 -2.5h-1q-1 1 -2.5 1.5t-2.5 0.5v6v6t0.5 5.5l1 5t1.5 6.5zM167 87q0 1 0.5 1.5t2.5 0.5q3 0 3.5 -2.5t0.5 -6v-6.5t2 -4l15 -7q3 -1 4 -6t2 -10.5t1 -10.5v-7h-8
q-2 0 -2 4.5t-0.5 9.5t-2 9.5t-5.5 4.5q-1 0 -3 -0.5t-1 -2.5v-5v-4q0 -5 0.5 -10.5t0.5 -11.5q0 -3 -1.5 -5.5t-5.5 -2.5q-3 0 -3 1.5v5.5v2v5v5v3t-0.5 4t-0.5 6t-0.5 5.5t-0.5 3.5t-2 3l-2 2h-2v0v0q-1 0 -2 -1t-1 -2l-2 -2l-1 -1v-23q0 -1 -1.5 -1h-1.5q-3 0 -4 1.5
t-1 3.5v4q0 1 0.5 4.5l1 7t1 6.5t0.5 5q2 5 7.5 6t9.5 0q1 0 1.5 1t0.5 2v15z" />
</svg>
