<?xml version="1.0" standalone="no"?>
<!DOCTYPE svg PUBLIC "-//W3C//DTD SVG 1.1//EN" "http://www.w3.org/Graphics/SVG/1.1/DTD/svg11.dtd" >
<svg xmlns="http://www.w3.org/2000/svg" xmlns:xlink="http://www.w3.org/1999/xlink" version="1.1" viewBox="-10 0 266 256">
   <path fill="currentColor"
d="M152 249q1 0 2 0.5t1 1.5h1h1q0 -1 2 -2t3 -1q0 -1 -0.5 -3t-0.5 -5q0 -2 0.5 -4.5t0.5 -3.5q0 -2 0.5 -7.5t1 -11.5t1.5 -11.5t1 -7.5q0 -1 1.5 -5t2.5 -7q3 1 6.5 5.5t7.5 9.5t7.5 10t6.5 7h1q1 0 2 -0.5t1 -1.5q0 -3 -1.5 -6t-4 -5.5t-5.5 -4.5t-4 -5q-3 -5 -6.5 -10
t-5.5 -11q1 -3 4.5 -6l7 -6t6.5 -5.5t3 -3.5q0 -2 -1 -2.5t-2 -0.5q-4 0 -6 1.5t-4.5 3l-5 3t-5.5 1.5h-1.5h-0.5q-2 -2 -3 -4.5t-2 -6t-1.5 -6.5t-0.5 -4q0 -2 1.5 -3t3 -1.5t3.5 -0.5h3h24q1 0 3.5 -1t2.5 -3q0 -1 -2 -2.5t-3 -1.5h-39q-1 0 -2 -1t-1 -2.5v-3v-2.5
q0 -6 3.5 -7.5t8.5 -2t10 -0.5t8 -2q1 -1 3 -2.5l2 -1.5l-2 -17l-1 -0.5l-1 -0.5q-1 0 -2.5 0.5t-1.5 1.5l-3 16h-24v-23q0 -2 -2 -3.5t-3 -1.5q-2 0 -2.5 1t-0.5 3t0.5 3.5t1.5 3.5v44l-1.5 0.5l-1.5 0.5q-7 2 -13 2h-14h-3h-3.5h-3.5h-1l-2 -3v-26q0 -2 3 -4t6.5 -3.5
t6.5 -3t4 -1.5v-2q0 -2 -1 -2.5t-3 -0.5q-3 0 -6.5 1.5t-7 4l-7 5t-5.5 3.5q-3 1 -7.5 2t-8.5 3t-7.5 4.5t-3.5 6.5q5 0 8 -0.5t6 -1.5t6 -2.5t7 -4.5q2 1 3 2.5t1 3.5v2v5t-0.5 5.5t-0.5 4.5v2l-2 2l-39 2q-2 1 -2 2v1q0 4 2.5 4.5t5.5 0.5t6 -0.5t6 -2.5h23v30
q0 4 -3.5 7.5t-9 7l-11 7t-11 7.5t-8.5 7t-3 6q1 0 2.5 0.5t2.5 2.5q3 -2 8.5 -6.5t11.5 -9.5t11 -9t8 -4v0q2 3 2 8.5v9.5q0 8 -1 16.5t-1 16.5v10q1 1 1.5 1h1.5q2 0 4 -2t2 -4v-65q0 -2 5 -4.5t11 -5t11 -5.5t5 -5t-1 -2.5t-3 -0.5h-2h-1q-6 4 -9.5 6.5t-9.5 4.5v0h-1
q-1 -1 -2 -1.5l-1 -0.5q0 -1 -0.5 -4t-0.5 -6.5t-0.5 -6.5t-0.5 -4v-1v-1q1 -1 2.5 -1.5t2.5 -0.5h6.5t10 -0.5t10 -0.5h6.5h3q2 0 4.5 1t3.5 4l10 30v1q0 5 -3 10.5t-4 9.5q-2 6 -3 13.5t-2.5 15.5t-2 15.5t-0.5 13.5v1.5v1.5zM96 80l1.5 1.5t1.5 0.5q2 0 2.5 -0.5
t0.5 -2.5v-3v-5v-4.5v-2.5q1 -3 5.5 -4t9 -2.5t8 -5.5t3.5 -13q0 -5 -1 -8t-7 -3v19l-3 2.5t-4 3.5q-1 0 -2.5 0.5t-2.5 0.5t-2.5 -0.5l-1.5 -0.5l-2 -6v-32l-2 0.5l-2 0.5q-1 0 -1.5 1l-0.5 1v34h-7.5t-4.5 -5q0 -1 -0.5 -3t-0.5 -4.5v-5v-2.5q-1 -3 -2.5 -3.5t-2.5 -0.5
q-3 0 -4 1t-1 4v1.5v1.5q1 7 2.5 11.5t3.5 7t5.5 4t10.5 3.5q1 2 1.5 4.5t0.5 5t-0.5 5t-0.5 3.5zM149 36q0 4 1 7.5t3 7t5 6t6 4.5q6 1 7.5 3.5t1.5 4.5t-0.5 3.5t1.5 1.5t2.5 -1.5t1 -3.5l1 -4t2.5 -3q6 -2 10.5 -3t7 -3t4 -6.5t1.5 -12.5q0 -2 -1 -4.5t-4 -2.5t-3 3.5
t-0.5 8.5t-2.5 8.5t-8 3.5h-2t-2 -1v-32q0 -2 -1.5 -2.5t-2.5 -0.5h-2t-1 1v29l-1 1l-1 1h-2h-3q-6 0 -8 -3t-3 -6.5t-1 -6.5t-3 -3q-2 0 -2.5 1.5t-0.5 3.5z" />
</svg>
