<?xml version="1.0" standalone="no"?>
<!DOCTYPE svg PUBLIC "-//W3C//DTD SVG 1.1//EN" "http://www.w3.org/Graphics/SVG/1.1/DTD/svg11.dtd" >
<svg xmlns="http://www.w3.org/2000/svg" xmlns:xlink="http://www.w3.org/1999/xlink" version="1.1" viewBox="-10 0 266 256">
   <path fill="currentColor"
d="M66 244v4t3 2q2 0 3.5 -1.5l3.5 -3.5q0 -17 1 -34t4 -33q2 -13 4.5 -19t7.5 -8.5t12.5 -2.5h19.5v40h-17l-0.5 -1t-0.5 -2q-1 -1 -1 -2.5t-0.5 -3.5t-0.5 -3.5v-2.5l-3 -3l-3 3v4v5q0 11 0.5 20t3.5 15t10 9.5t20 3.5q5 0 10 -0.5t9.5 -2t7.5 -5t3 -9.5v-40h-3h-3
t-1.5 0.5t-0.5 1.5v13q-1 0 -3 0.5t-5 1t-5 0.5h-3h-1h-1q-1 0 -3 -1l-2 -1v-38l2 -3h2h4q12 0 19 1t11.5 5t6.5 11t4 18q3 16 3.5 30t-0.5 30q2 4 5 6q4 -1 4.5 -3.5t0.5 -5.5q0 -19 -2.5 -38.5t-5.5 -38.5q-1 -8 -7 -12.5t-13.5 -6.5t-15.5 -2.5t-14 -1.5q-3 -1 -3.5 -2
t-0.5 -3q0 -5 2.5 -8t6 -4.5l7 -3t6.5 -5.5q0 -1 0.5 -3.5t1.5 -5.5t1.5 -5.5t0.5 -3.5q1 -1 1.5 -2.5l0.5 -1.5h41l1.5 -1.5l1.5 -1.5v-0.5v-0.5v-0.5v-0.5l-0.5 -0.5l-1.5 -1.5h-12q-10 0 -19.5 1t-19.5 1h-5h-4.5t-5 -0.5t-5.5 -1.5q-1 -1 -1 -2v-2v-2v-2t0.5 -4
t0.5 -3.5v-2.5q-1 -1 -2 -1.5t-3 -0.5q-4 0 -5 3.5t-1 7.5v8q0 3 -3 3l-57 3q-3 0 -6.5 0.5t-3.5 4.5q0 2 1.5 2.5t3.5 0.5q9 0 17 -1.5t16 -1.5h6q3 1 4 4t1.5 6.5t1 7.5t3.5 6q1 2 5 2.5t7.5 1t6 2.5t2.5 5q0 5 -1 7t-3 3t-5 1t-6 1q-2 0 -6 1l-8 2l-8 2t-6 1
q-4 3 -6.5 10t-3.5 14.5t-1 15t-1 12.5q0 1 -0.5 4l-1 6l-1 6t-0.5 4v3.5t-0.5 6t-0.5 7v4.5v4zM106 203q0 -2 0.5 -4.5t3.5 -2.5h46q0 9 -1 14t-4 8.5t-8 4.5t-13 1q-10 0 -17 -5t-7 -16zM106 101q0 -2 0.5 -4t1.5 -3q8 -2 13 -2h12h12q2 2 2.5 5t0.5 6v3v3q-3 4 -9 6
t-10 2t-8 -1t-7.5 -2.5t-5.5 -4.5t-2 -8zM55 28v1q0 2 0.5 4.5t1.5 3.5q1 7 3 11t4.5 5.5t6 2.5l10.5 3q2 0 2 3t-0.5 7t0.5 7t4 4q1 0 2 -0.5t1 -1.5v-16q0 -1 0.5 -1.5t1.5 -0.5q5 -3 9 -5.5t7 -5.5t4 -7.5t1 -12.5v-6q-1 0 -2 -0.5l-1 -0.5h-1h-1l-1.5 1t-1.5 2q1 3 1 7
t-1 8t-3.5 7t-7.5 4q-2 0 -3 -2.5t-1 -3.5v-31q0 -2 -1 -2.5t-3 -0.5h-2t-2 2v35q0 2 -2 2.5t-3 0.5h-1h-1q-5 -3 -6.5 -7.5t-2 -8.5t-2 -7t-4.5 -3h-3.5t-1.5 3zM160 62v2v4v4v3t0.5 2t1.5 1v0q2 0 3.5 -2t2 -5.5t1 -6l0.5 -2.5q0 -2 4 -2.5t8.5 -2.5t8.5 -7t4 -16
q0 -2 -0.5 -5t-3.5 -3q-4 0 -5 4t-1.5 9t-2.5 9.5t-8 4.5q-1 0 -2.5 -0.5t-1.5 -1.5v-38h-7v33q0 7 -6 7q-4 0 -6 -2.5t-3 -6t-1 -7.5v-6q-2 -2 -4 -2t-2.5 1.5t-0.5 2.5q0 9 1.5 15.5t10.5 10.5q3 1 4.5 1t4.5 2z" />
</svg>
