<?xml version="1.0" standalone="no"?>
<!DOCTYPE svg PUBLIC "-//W3C//DTD SVG 1.1//EN" "http://www.w3.org/Graphics/SVG/1.1/DTD/svg11.dtd" >
<svg xmlns="http://www.w3.org/2000/svg" xmlns:xlink="http://www.w3.org/1999/xlink" version="1.1" viewBox="-10 0 266 256">
   <path fill="currentColor"
d="M65 243q-2 1 -2 3.5v2.5h6h10.5h10.5h7h16.5t20 -0.5t20.5 -0.5h18t13 -0.5l5 -0.5l6 -3l-5 -3h-57v-69q0 -1 1.5 -3t2.5 -2h38q1 0 1.5 -1.5t0.5 -2.5l-2 -2l-1 -1h-41q-2 0 -2 -2v-3q0 -6 2.5 -8.5t6 -4t7.5 -1.5h7.5t6 -1t2.5 -4q0 -2 -1 -2.5t-3 -0.5h-17t-11.5 2.5
t-6.5 8t-2 16.5l-2 1h-38q-2 0 -2.5 2t-0.5 4q0 3 1.5 3.5t4.5 0.5v0q1 0 3.5 -0.5t2.5 -1.5h30v11.5t0.5 17t0.5 16.5v12q0 1 -0.5 3t-0.5 4t-0.5 3.5l-0.5 1.5l-3 3l-2.5 0.5t-6.5 1t-7.5 0.5h-6.5h-30zM89 231q0 2 0.5 3t2.5 1q4 0 7 -6t5 -13.5t3 -14.5t1 -9t-0.5 -4.5
t-3.5 -2.5h-0.5h-0.5q-1 0 -2 1t-1 2q0 4 -0.5 6.5t-0.5 5t-0.5 5t-1.5 5.5q-2 5 -5 10.5t-3 10.5zM149 183q0 2 1 10t3.5 16.5t5 15.5t4.5 7t3 -0.5t1 -2.5v-1.5v-0.5q0 -1 -0.5 -3t-1.5 -5t-1.5 -5.5t-1.5 -3.5q0 -1 -0.5 -6.5t-2 -11t-3 -9.5t-3.5 -4t-3 1.5t-1 2.5z
M57 133q0 3 3 3q4 0 11 -5.5t15 -13t15.5 -15t12.5 -11.5q1 -1 3 -3.5t4.5 -5t5 -4t4.5 -1.5h1q1 0 2.5 1t1.5 2q12 10 22 19t23 18q0 1 2 2t2.5 1.5l1.5 1.5l2.5 2.5t3 2.5l1.5 1h3q2 0 3.5 -1t1.5 -3q0 -4 -5 -8t-12 -7.5t-13.5 -7t-9.5 -5.5q-3 -3 -6.5 -7.5t-8 -9
t-9 -7.5t-9.5 -3h-2.5t-2.5 1q-2 2 -7 6.5t-10.5 9.5t-10.5 9.5t-7 6.5t-7.5 6.5t-10.5 9.5t-9.5 9t-4.5 6zM103 114q0 2 1.5 2h2.5h2h5q2 0 7.5 -0.5t12 -1t12 -1t7.5 -0.5q1 -1 1.5 -2t0.5 -2v0v0q0 -2 -1 -2.5t-3 -0.5t-10 0.5t-16.5 1.5t-15 2.5t-6.5 3.5zM143 32
q0 3 0.5 6.5t2 7.5t4 6.5t5.5 3.5q2 1 5 0t4 2t1.5 6t0.5 7v6.5v5.5q3 -1 4.5 -4t2 -6.5t0.5 -6.5v-7q1 -2 3 -2.5t4.5 -0.5t5 -0.5t5 -3t4 -7t1.5 -12.5q0 -4 -1 -4.5t-4 -0.5t-4 3t-1 7t-1 7t-5 3q-3 0 -5 -1t-2 -4q0 -5 1 -10t1 -10q0 -2 -1.5 -5.5t-4.5 -3.5h-0.5h-0.5
l-1 1t-1 2q0 8 -0.5 16t-1.5 15h-2h-2q-4 0 -6 -2t-2.5 -5t-1 -6.5t-0.5 -6.5q0 -2 -1.5 -2h-2.5q-2 0 -2.5 1.5t-0.5 4.5zM68 32v5q1 7 4.5 10.5t8 5t8 2t3.5 1.5v22q0 1 1.5 1.5l1.5 0.5q3 0 3 -1t1 -4v-3.5t0.5 -5.5t0.5 -6v-4q5 -3 8.5 -3.5t5.5 -2t3 -5t1 -12.5
q0 -2 -1 -4.5t-3 -2.5q-1 0 -2.5 0.5t-1.5 1.5v14l-2 2t-4 3v0h-1l-2 -2l-1 -1v-5t-0.5 -7t-0.5 -7.5v-4.5q-1 -2 -1 -3.5t-3 -1.5t-3 4v26q0 1 -1.5 1.5t-2.5 0.5q-4 0 -6 -2t-3 -4.5t-1.5 -6t-0.5 -6.5q-1 -2 -3 -2.5t-4 -0.5v0q-1 0 -1.5 0.5l-0.5 0.5v6z" />
</svg>
