<?xml version="1.0" standalone="no"?>
<!DOCTYPE svg PUBLIC "-//W3C//DTD SVG 1.1//EN" "http://www.w3.org/Graphics/SVG/1.1/DTD/svg11.dtd" >
<svg xmlns="http://www.w3.org/2000/svg" xmlns:xlink="http://www.w3.org/1999/xlink" version="1.1" viewBox="-10 0 266 256">
   <path fill="currentColor"
d="M130 206v1l0.5 2l1 4t1 3.5t0.5 2.5t1.5 6t4 11t4.5 10t3 5h4h4q0 -3 -1.5 -5t-3 -4.5t-3 -4.5t-1.5 -5v-2v-2v-3v-1q-2 -6 -4.5 -11t-2.5 -12v-2v-3t0.5 -4t0.5 -4v-3q1 -1 3 -1.5t4.5 -1t5 -0.5t3.5 -1q3 0 7 -4t8.5 -8t7.5 -8.5t3 -7.5h-4q-1 0 -2 1l-3 3l-3.5 3.5
l-2.5 2.5q-3 3 -5 5.5t-3.5 4t-3.5 2.5t-6 1h-5q-1 0 -1 -1v-2v-1q2 -6 6 -11t9 -9.5t8.5 -8.5t3.5 -7v-1l-2 -2l-1 -1q-2 0 -4.5 2.5t-5.5 7t-6.5 10t-6.5 10t-5.5 7.5t-4.5 3q-3 0 -6 -4t-3 -7q0 -4 3 -7.5l6 -7t5.5 -5.5t2.5 -3q0 -3 -4 -3t-7 3.5t-5.5 8t-4 9.5t-1.5 8
q0 5 2 7t4 3t4 1.5t4 3.5v3v3q0 6 -1.5 10.5t-1.5 10.5zM79 233q1 2 2 2h2q3 0 3.5 -2.5t0.5 -5.5q0 -6 -0.5 -11t-0.5 -11q0 -9 1 -18t3.5 -17.5t7.5 -16t13 -12.5q3 -1 8 -3t7 -6t3.5 -8t2 -7.5t1 -8t1.5 -9.5q6 -1 13.5 -1.5t13.5 -1.5l1 -1v-1v0q0 -1 -0.5 -1.5
l-0.5 -0.5h-3t-3.5 -0.5t-3 -0.5h-2.5h-2q-4 0 -8.5 1t-8.5 2h-21h-2.5h-3.5t-4 0.5l-2 0.5h-2l-0.5 0.5l-0.5 0.5q1 4 3 4h4q5 0 10 -0.5t10 -0.5h5q1 2 1 4q0 3 -0.5 7.5t-1.5 9t-3 8t-5 5.5q-5 4 -8.5 5t-6.5 3q-12 10 -17 24t-6 28v20v20zM81 121q1 3 4 4t6 1h6h6h3
t4 -0.5t3.5 -1.5t1.5 -2v0v-1l-0.5 -1l-0.5 -1h-16t-9 -2.5t-4.5 -7.5t-1.5 -15q0 -6 3.5 -10t8.5 -5.5t11 -2t11 -0.5h25q2 -1 3 -1h3h6q5 0 9 0.5t7.5 2.5t3.5 6v26l-0.5 0.5l-0.5 0.5q-7 5 -13.5 5.5t-14.5 1.5q-1 0 -2.5 1.5l-1.5 1.5v1q0 2 2 2h2q1 0 5 -0.5l8 -1
t8 -0.5t5 -1q7 -2 8.5 -6t1.5 -10v-7v-8.5t-1 -8t-2 -5.5q-4 -4 -10 -5.5t-12.5 -2t-13 0t-11.5 0.5v-2t-1 -4.5t-1.5 -4.5t-1.5 -2q-2 0 -3.5 1t-1.5 3t0.5 3t0.5 3t-2 3t-5.5 1t-7 0.5l-7 1t-4.5 0.5q-5 1 -10 2.5t-8 5.5q0 2 -0.5 4.5t-0.5 5v5v2.5v13t3 11zM73 29v7.5
t1 6.5t3 5t6 3t6.5 3.5t3.5 5t1.5 4.5t1.5 2h1q0 -1 1 -2l1 -1v-10q9 0 14 -6t5 -15q0 -2 -1 -5t-4 -3v0q-1 0 -1.5 0.5t-0.5 1.5q1 2 1 5t-1 6.5t-2.5 6t-5.5 3.5q-1 0 -2.5 -1.5t-1.5 -2.5v-26h-3q-3 0 -3 2v4v6v6v4t-0.5 3.5t-1.5 3.5h-1h-2q-4 0 -5.5 -2.5t-2 -6
t-1.5 -7.5t-4 -6q-1 1 -1.5 2t-0.5 3zM153 54v2.5t0.5 3.5t1 3.5t2.5 1.5t3 -1.5t1 -3.5v-3.5v-2.5t2 -1.5t5 -1t6 -2t4 -3t2 -4t2 -6t1 -6.5v-5t-0.5 -2.5t-3.5 -2.5l-2 3q-1 3 -1 6.5t-0.5 7t-3 5.5t-6.5 2h-2t-2 -2v-18v-2.5t-0.5 -3t-1.5 -2.5t-2 -1q-3 0 -3.5 2.5
t-0.5 4.5t0.5 4.5t0.5 4.5v1v3t-0.5 4t-0.5 4v3h-4h-1q-2 0 -3 -0.5t-2 -0.5t-1 -1v-20h-7v3.5v5t0.5 5l0.5 2.5q0 3 2 7t6 5q2 1 4 0.5t4 1.5z" />
</svg>
