<?xml version="1.0" standalone="no"?>
<!DOCTYPE svg PUBLIC "-//W3C//DTD SVG 1.1//EN" "http://www.w3.org/Graphics/SVG/1.1/DTD/svg11.dtd" >
<svg xmlns="http://www.w3.org/2000/svg" xmlns:xlink="http://www.w3.org/1999/xlink" version="1.1" viewBox="-10 0 266 256">
   <path fill="currentColor"
d="M78 239q0 3 1.5 7t5.5 4q2 0 3.5 -1.5t1.5 -3.5l-0.5 -2t-0.5 -4t-0.5 -3.5l-0.5 -1.5v-10v-10t2 -10q1 -4 6 -7.5t11 -7t11 -8.5t7 -14v-24v-17t-2 -18.5t-8 -14t-17 -5.5q-10 0 -17.5 3.5t-13 9.5t-8.5 14t-3 17l-3 53q0 2 1.5 3.5t2.5 1.5q3 0 3.5 -2t0.5 -4v-29
l0.5 -1.5t0.5 -3t1 -3t2 -2.5v0h1q7 4 13 11.5t11 13.5q3 0 5 1t5 3q2 1 4.5 3.5l2.5 2.5l-1 3l-10 5t-7 5t-5.5 6.5t-4.5 9.5v5.5t-0.5 9t-0.5 8.5v6v1zM185 248q1 1 2.5 1.5t3.5 0.5q4 0 5 -2t1 -5q0 -7 -1 -14.5t-2 -13.5q-3 -2 -4 -4.5t-2.5 -4.5t-3 -4.5t-3.5 -4.5
q-4 -2 -9.5 -3.5t-10.5 -3t-8 -4.5t-3 -8q0 -6 2.5 -9t6.5 -4.5t9 -2l10 -1t9.5 -2t7.5 -4.5t4.5 -7.5t2 -9.5t0 -10t-0.5 -8v-5.5v-4.5t-1 -4.5t-2 -5.5q0 -1 -0.5 -1t-0.5 -1q-2 -1 -5.5 -2.5l-3.5 -1.5l-48 -1h-2.5t-3 0.5t-2.5 1.5t-1 2v1.5t1 1.5h27v49q0 4 -2.5 6
t-6 4t-6 4t-2.5 5v22q0 2 3 3.5l7 3.5t9 3.5t9.5 3.5t7.5 4.5t4 6.5q1 3 1.5 7t1 8.5t0.5 9v8.5zM70 139q-1 0 -3 -1t-2 -2v-5v-4.5t0.5 -6.5t2 -6t3.5 -3h1q3 1 8 6.5t10 12t9.5 11.5t6.5 5t2.5 -1t0.5 -2q0 -3 -2 -6.5t-4.5 -7t-6 -6t-5.5 -4.5l-3 -3l-4.5 -4.5l-4.5 -4.5
l-3 -3v-1v-1q0 -3 2.5 -4t6 -1.5t7.5 -0.5h5q9 0 13.5 6t6 14t1.5 17v15q0 7 -2 13t-3 13l-2 -0.5t-2 -1.5q-1 0 -3 -1.5t-4.5 -3.5t-4.5 -3.5t-3 -2.5l-4.5 -4.5t-7.5 -6.5t-7 -6.5t-5 -4.5zM168 149v-45q0 -3 2.5 -3.5t4.5 -0.5q10 0 14 5.5t4 13.5q0 6 -0.5 12t-2 10.5
t-5 7.5t-10.5 3h-3h-2zM84 51v30q0 1 2.5 1.5t3.5 0.5q3 0 3.5 -5.5t0 -12t-0.5 -11.5q0 -6 2 -8q11 -2 16 -7t5 -16v-4v-3q-1 -2 -2 -3t-2 -1q-2 0 -3 1t-2 3v6q0 3 -1 7t-3 6.5t-5 2.5q-2 0 -3 -0.5t-1 -3.5v-17l-1.5 -2t-2.5 -2q0 -1 -1 -1t-1 1l-2 1.5t-2 2.5v3v5v4.5
v3.5q-1 4 -2 5t-3 1q-6 0 -7 -3.5t-1.5 -8l-1 -9t-4.5 -5.5q-1 -1 -2 0t-2 1v5q0 1 0.5 5.5l1 9t1.5 8t3 3.5h14q0 1 0.5 1.5t0.5 1t1 1.5t1 2zM158 75q0 3 4 3q2 0 4.5 -1.5t2.5 -4.5v-21q0 -3 1.5 -4t3.5 -1h2q1 0 3.5 0.5l2.5 0.5q9 -1 11.5 -6t2.5 -12v-3t-0.5 -4
t-1 -3.5t-1.5 -1.5q-3 0 -4.5 2.5t-3 6t-2.5 7t-1 4.5q-1 1 -3.5 1.5t-3.5 0.5h-0.5h-1.5h-1.5t-1.5 -2v-20q0 -2 -1.5 -3.5t-3.5 -1.5v0v1q-1 0 -3 2l-2 2v20q0 1 -1 2t-2 1h-1q-1 0 -3 -0.5t-3 -2.5v-3.5t-0.5 -5l-1 -5t-0.5 -3.5q0 -2 -1 -3.5t-3 -1.5q-1 0 -2 0.5
t-1 3.5v4.5v5.5q0 6 0.5 9.5t2 5t5 2t10.5 0.5q1 0 1 2v2v3v4t-0.5 6.5t-0.5 6.5v4h-0.5t-0.5 1z" />
</svg>
