<?xml version="1.0" standalone="no"?>
<!DOCTYPE svg PUBLIC "-//W3C//DTD SVG 1.1//EN" "http://www.w3.org/Graphics/SVG/1.1/DTD/svg11.dtd" >
<svg xmlns="http://www.w3.org/2000/svg" xmlns:xlink="http://www.w3.org/1999/xlink" version="1.1" viewBox="-10 0 266 256">
   <path fill="currentColor"
d="M166 206q0 7 1.5 13t4.5 12t7.5 11t9.5 9h1h1q3 0 3.5 -2t0.5 -5q0 -1 -3.5 -4.5l-8 -8t-8 -10t-3.5 -12.5v-4v-4q1 -3 3.5 -7t4.5 -8.5t4 -8.5t2 -5q0 -6 -3.5 -11t-8.5 -5h-44q0 -12 2 -23.5t2 -23.5v-3.5t-2 -2.5h-1q-2 2 -3.5 4.5t-1.5 5v5.5v6v5t-0.5 6t-0.5 5.5
v3.5q0 2 -0.5 4l-1 4l-1 4l-0.5 2l-2 1q0 1 -2 1t-5 0.5l-6 1t-5 0.5l-2 0.5t-3 0.5t-3 -0.5t-3 -0.5v-3.5t-1 -5.5t-2.5 -5t-3.5 -2t-2.5 1t-0.5 3q0 3 1.5 5.5t1.5 5.5v2.5t-2 1.5q-1 0 -3 0.5t-4.5 0.5t-4.5 0.5t-3 0.5q-2 1 -5 1.5t-3 3.5q0 2 2 2.5t4 0.5q5 0 9 -1
t8 -1q2 0 3.5 2t2 4t0.5 4.5v3.5q0 12 -5.5 23t-12.5 19q-1 2 -3 3t-4 2.5t-3.5 3.5t-1.5 4q0 1 1.5 1h1.5h5t4 -1q2 -2 6 -7.5t8 -12.5t7 -13.5t3 -9.5q0 -1 0.5 -4.5t0.5 -7.5t-0.5 -7.5t-0.5 -4.5q1 -2 1.5 -4t2.5 -2q1 -1 3.5 -1t5.5 -1t6 -1t4 -1h1h1q0 7 -2 13l-4 12
t-3.5 12t-1.5 12t2 9.5t5.5 5.5t8 3t8.5 1h4h2l7 -5v-4.5t0.5 -7l1 -7t1.5 -4.5q1 -5 3.5 -9.5t2.5 -9.5q0 -2 -0.5 -3.5t-2.5 -1.5q-1 0 -2 0.5l-1 0.5q-1 3 -2 10.5t-2.5 15t-4.5 13t-9 5.5q-7 0 -11.5 -4t-4.5 -11l0.5 -3.5t2 -8.5t3 -11t3 -11t3.5 -8.5t3 -4.5
q8 -1 14.5 -1.5t13.5 -0.5h13q7 2 7 9q0 5 -2 9.5t-4 8.5t-3.5 8t-1.5 9zM76 115q0 6 3 10.5t8 7t11 3.5t12 1q1 0 3.5 -1t2.5 -3v-1l-2 -3q-6 1 -12.5 -0.5t-11.5 -2.5q-4 -3 -4.5 -6t-0.5 -7q0 -7 4.5 -11t11 -5.5t13.5 -1.5h13h14.5t15.5 1.5t12 6t5 13.5q0 4 -2.5 7
t-6.5 4t-8 1.5t-8 0.5l-1.5 1t-1.5 2v0v1v0v0q0 1 0.5 1.5t1.5 0.5h3h4q4 0 9.5 -0.5t9.5 -4.5q1 -1 2.5 -3t3 -3.5t1.5 -2.5v-16q0 -5 -4 -8t-10 -4.5t-11.5 -2.5t-7.5 -1h-4h-6t-5.5 0.5t-3.5 0.5v-17h-8v15q0 1 -3.5 1t-8.5 0.5t-10.5 1t-10.5 3.5t-8.5 7.5t-3.5 13.5z
M164 79l2 1l4 -3v-12q0 -1 2 -1.5l4 -1l4 -1t3 -0.5q1 -1 2.5 -1.5l1.5 -0.5q3 -2 5 -5.5t3.5 -7.5t2 -7.5t0.5 -7.5q0 -2 -0.5 -3t-2.5 -1q-3 0 -4 4.5t-2 10t-4 10t-10 4.5q-2 0 -3.5 -1.5t-1.5 -3.5v-39q0 -1 -1 -2t-2 -1v0q-2 0 -2.5 1l-1 2t-0.5 2.5v1.5v41
q-9 0 -11.5 -5t-3 -10.5t-1 -10t-4.5 -4.5q-2 0 -2.5 1.5t-0.5 3.5q0 5 1.5 11t3.5 11q0 4 3.5 5.5t6.5 3t6 2t3 2.5v12zM65 32q0 3 1 7.5t2 8.5t3.5 7t6.5 4l2 0.5l4 1t3.5 1t2 0.5t1.5 0.5t1 1.5v14h1.5t2.5 -1l0.5 -1t1.5 -2v-1.5t0.5 -3t0.5 -3v-1.5q1 -2 2.5 -3t4.5 -2
t5.5 -2.5t5 -4.5t4 -8.5t1.5 -13.5v-6q-1 -1 -1.5 -1h-1.5h-2t-1 1q-1 3 -1 8t-1.5 9t-4 7.5t-6.5 3.5h-2.5t-1.5 -2q1 -19 -1 -38q-3 -2 -7 -2q0 9 1 17.5t1 16.5v8l-1.5 1.5l-1.5 1.5q-4 1 -7 -1t-4.5 -5t-2.5 -7.5t-2 -7.5t-2 -5.5t-3 -2.5t-3 1t-1 4z" />
</svg>
