<?xml version="1.0" standalone="no"?>
<!DOCTYPE svg PUBLIC "-//W3C//DTD SVG 1.1//EN" "http://www.w3.org/Graphics/SVG/1.1/DTD/svg11.dtd" >
<svg xmlns="http://www.w3.org/2000/svg" xmlns:xlink="http://www.w3.org/1999/xlink" version="1.1" viewBox="-10 0 266 256">
   <path fill="currentColor"
d="M70 184q0 2 0.5 8t0.5 12.5t0.5 12t0.5 8.5q0 10 3 15t7.5 7.5t11.5 3t17 0.5h41h40q2 -1 3.5 -2t1.5 -3q0 -4 -2.5 -5.5t-5.5 -1.5q-16 0 -31 2t-31 2q-5 0 -13 0.5t-15.5 -0.5t-13 -5t-5.5 -12q0 -3 3.5 -5.5t7.5 -4.5t8.5 -3.5t6.5 -4.5q6 -5 8.5 -13.5t5.5 -15.5
q6 -1 10.5 -1h9.5l1 -0.5t2.5 0t2 0.5t0.5 1v25q0 3 5.5 4.5t12 3t12.5 1.5h8h3t4 -0.5t3 -1.5t1 -3v-3q0 -1 -1 -1h-28q-2 -1 -6 -1.5t-6 -2.5v-4v-4v-3.5t0.5 -5t1.5 -4t3 -1.5h47q2 0 2 -3v-3q0 -2 -1 -3t-4 -1h-1q-6 0 -17.5 0.5t-26 1t-31 1t-31 1t-26 0.5t-17.5 1
q-2 0 -3.5 1t-1.5 4q0 2 3 4h3.5h4.5h4.5h3.5l1.5 0.5t1.5 1.5zM102 179q3 0 3.5 1.5t0.5 4.5q0 4 -2 9t-5.5 9t-8 6.5t-9.5 2.5v-28q0 -2 3 -3t6.5 -1.5t7 -0.5h4.5zM92 150q9 1 16.5 1.5t16.5 0.5h11q6 0 11 -0.5t10.5 -1t12.5 -0.5q6 -2 8.5 -7.5t3.5 -12.5t0.5 -14
t-0.5 -11v-4v-5v-6v-4q-2 -3 -3.5 -4t-3.5 -1t-3.5 1.5t-2 3.5l-1 4t-2.5 3h-24h-24q-3 0 -7 -0.5l-8 -1t-7 -0.5h-4l-8 -8h-1h-1l-0.5 0.5t-0.5 1.5v47v1.5t0.5 3.5t1 3.5t1.5 2.5q1 3 4 4t4 3zM91 100h65q1 0 3.5 -1t3.5 -1h1q2 0 3.5 1.5t2.5 3.5t1.5 4.5t0.5 4.5
q0 11 -1.5 17.5t-5 9.5t-10.5 3.5t-19 0.5h-6h-9q-6 0 -11 -0.5t-9.5 -1.5t-7 -3.5t-2.5 -5.5v-32zM99 121q0 1 0.5 2.5t1.5 1.5h3h4h4h3h11h9.5t10 -0.5t12.5 -0.5q2 -1 2 -4v-3q-15 0 -30 0.5t-31 1.5v2zM141 36q0 7 3 11t7 6t7.5 3t3.5 2v14l1.5 1.5t2.5 1.5l1.5 -0.5
t2.5 -1.5l1 -0.5l1 -0.5v-15q0 -3 4.5 -3t9.5 -1.5t9 -6t4 -15.5q0 -2 -1 -4.5t-3 -2.5h-1v0q-1 1 -2.5 2l-1.5 1l-3 15q-1 2 -2.5 3t-3.5 0.5l-4 -1t-3 -0.5v-29q-1 0 -4 0.5t-4 0.5l-0.5 1l-0.5 1q-1 1 -1 4t-0.5 6.5t-0.5 6.5v4v4v4h-12l-0.5 -1.5t-1.5 -1.5
q0 -1 -0.5 -2.5t-1 -3.5t-1 -3.5t-0.5 -2.5q-1 0 -2 -0.5t-2 -0.5q-2 0 -1.5 2.5zM55 27l5 17q1 3 4.5 4t8 1.5t7.5 1.5t3 4v17l1 0.5t2 0.5l1 -0.5t2 -0.5q1 -1 2 -1.5l1 -0.5v-16q0 -1 3.5 -1.5t8.5 -2.5t8.5 -5.5t3.5 -10.5q0 -3 -0.5 -6.5t-4.5 -3.5h-3.5t-2.5 2v13
q0 3 -3 3h-4h-1h-2.5t-2 -0.5l-0.5 -0.5v-22q0 -1 -2 -2t-4 -1.5t-4 -0.5h-2v27h-2.5h-3h-2.5h-2t-2 -3.5t-2 -7.5t-2.5 -6.5t-3.5 -1.5q-1 0 -3 2z" />
</svg>
