<?xml version="1.0" standalone="no"?>
<!DOCTYPE svg PUBLIC "-//W3C//DTD SVG 1.1//EN" "http://www.w3.org/Graphics/SVG/1.1/DTD/svg11.dtd" >
<svg xmlns="http://www.w3.org/2000/svg" xmlns:xlink="http://www.w3.org/1999/xlink" version="1.1" viewBox="-10 0 266 256">
   <path fill="currentColor"
d="M167 201v46q0 2 1.5 2.5t2.5 0.5q4 0 5.5 -2.5t2 -6t0.5 -6.5v-6q0 -5 -1 -10t-1 -11q0 -4 2.5 -5.5t6 -2t7.5 -1.5t6 -4q0 -1 0.5 -3t1 -5t0.5 -5v-3v-3q0 -4 -1 -6.5t-5 -2.5q-3 0 -3.5 4t-1 9t-2 9t-6.5 4t-5.5 -5t-0.5 -11.5t-1 -11t-6 -3.5l-2 5v25l-1 1l-2 2v0
q-1 0 -3.5 -0.5t-4.5 -1.5t-3.5 -2t-1.5 -3v-19q-5 0 -6.5 1t-1.5 5q0 1 0.5 5t1 9t1.5 8.5t4 3.5h17zM92 205v42q0 1 2 1h2q2 0 4 -1t2 -3v-37q0 -3 1.5 -3.5l4.5 -1.5l6 -2t5.5 -3.5t4.5 -7.5t2 -13q0 -4 -1 -4.5t-5 -0.5h-4q0 1 -0.5 3t-1 4.5t-1 4t-0.5 2.5t-1 2.5
t-2.5 3t-3 2.5t-3.5 0l-2 -1v-22l-1.5 -1.5t-2.5 -1.5h-1q-2 0 -2.5 1.5t-1.5 2.5v4v6v5.5v3.5l-0.5 2t-0.5 3h-4q-7 0 -8.5 -3.5t-2 -7.5t-1 -7.5t-4.5 -3.5q-3 0 -3.5 3t-0.5 5v4.5t1 7t2.5 6t3.5 2.5h15zM50 159q0 1 1 3t3 2q8 0 16.5 -2t17.5 -3q2 0 7.5 -0.5t12 -1
t12 -1t7.5 -0.5q10 -1 20 -0.5t20 0l20 -1t19 -3.5q1 0 1.5 -1t0.5 -2t-0.5 -1.5l-1.5 -1.5h-6h-5q-3 1 -11.5 1t-20 1t-24 1.5t-24 1t-20 1t-11.5 0.5h-8.5h-11t-10 2t-4.5 6zM76 144q1 0 2 0.5l1 0.5h1h1l1.5 -0.5l1.5 -0.5q0 -7 1 -11.5t3.5 -7t7 -3t11.5 -0.5
q4 0 4.5 3.5t0 7.5t0 7.5t3.5 3.5h1q2 -1 3.5 -5t2 -8l1 -8t0.5 -5q0 -11 -2.5 -15.5t-6 -6t-6.5 -1.5t-3 -2q-1 -1 0 -3l1 -2h13q2 0 3 -2t1 -4t-2.5 -3.5t-6 -1.5h-6.5h-4h-9l-2 2v14q0 2 -3 2.5t-6.5 1t-6.5 2t-3 5.5v3q0 2 0.5 7t1 11t0.5 11.5v7.5zM170 88q3 0 5.5 2.5
t2.5 5.5v40q0 1 2 1.5l2 0.5q2 0 3.5 -2t2 -4t0.5 -4.5v-3.5q0 -10 -0.5 -21t-0.5 -19q-2 -2 -5 -4h-14h-8.5t-13 0.5t-11 2t-4.5 4.5v1.5t1 1.5h20v44q0 2 1 2h2t2 -1.5l2 -3t1.5 -3.5t0.5 -3v-30q0 -4 3.5 -5.5t5.5 -1.5zM86 109q0 -3 2 -4.5t4.5 -2t5.5 -0.5h5q4 0 5.5 2
t1.5 6v1.5v1.5l-3 2h-19q-2 0 -2 -3v-3zM159 52v18l1 0.5t1 1.5h1q3 0 4.5 -2.5t2 -5.5t0.5 -6v-4q3 -3 6.5 -4t6.5 -1.5t5.5 -3t2.5 -8.5v-5t-0.5 -5.5t-1.5 -4.5t-4 -2l-2 0.5t-2 1.5v15q0 2 -3 2h-3h-3t-3 -2v-24q0 -1 -1.5 -1.5t-2.5 -0.5q-1 1 -3 2.5t-2 2.5v23
q0 4 -1.5 5t-4.5 1t-3.5 -0.5t-1.5 -3.5q0 -1 -0.5 -3.5l-1 -5t-1 -4.5t-0.5 -3t-2 -1h-2h-2t-2 1v3v3t0.5 4.5t1.5 7t2 6.5t3 3h15zM91 54q0 4 0.5 8t2.5 8h0.5h0.5q4 0 5 -2.5t1 -5t0.5 -5.5t1.5 -4q5 -3 8 -3t5.5 -1t3.5 -4.5t1 -12.5v-5q-1 -2 -2 -2.5t-3 -0.5h-0.5
h-0.5q-1 0 -2.5 0.5l-1.5 0.5v12q0 1 -1.5 2t-2.5 1.5l-2 1t-2 0.5t-2.5 -1t-1.5 -2v-22q-5 0 -7.5 2t-3 5.5t0 7.5t0.5 9q-1 2 -2.5 2.5t-3.5 0.5h-3.5t-2.5 -2v-14l-1.5 -1t-2.5 -2h-1q-4 0 -6.5 2.5t-2.5 6.5q0 7 2 11t5 6t8.5 2.5t12.5 0.5z" />
</svg>
