<?xml version="1.0" standalone="no"?>
<!DOCTYPE svg PUBLIC "-//W3C//DTD SVG 1.1//EN" "http://www.w3.org/Graphics/SVG/1.1/DTD/svg11.dtd" >
<svg xmlns="http://www.w3.org/2000/svg" xmlns:xlink="http://www.w3.org/1999/xlink" version="1.1" viewBox="-10 0 266 256">
   <path fill="currentColor"
d="M184 248l0.5 0.5t1.5 0.5q0 1 1 1.5l1 0.5l2 -2l1 -1v-4v-5q0 -9 -1 -17t-3 -17v-2q0 -6 1 -12t1 -12q0 -3 -0.5 -5t-1.5 -4q0 -20 -2 -39t-2 -39l-4 -14q-2 -4 -7 -5.5t-11 -2t-11.5 -1t-7.5 -1.5h-3t-3.5 -0.5t-3.5 -0.5h-2q-14 0 -26 2t-25 4q-3 5 -5 11t-3 12.5
t-1.5 13t-0.5 11.5v106v18q0 2 1 2.5t2 0.5h1.5t1.5 -2q-1 -34 0.5 -67.5t0.5 -68.5q1 -1 1.5 -3.5t1 -5.5t1 -5.5t1.5 -3.5v-5q1 -6 6 -8t11 -2.5t11.5 -0.5t8.5 -3h21l3 2h11q6 0 10 1t7 4.5t4 9.5q1 1 1 2.5t1 2.5q0 1 -0.5 5t-0.5 8t0.5 8t0.5 5t0.5 3l1 4l1 4l0.5 2
q0 7 0.5 13t0.5 12t1 12.5t2 12.5q-1 2 -1 3v3v3v10.5t0.5 16.5t1 17t0.5 11zM129 229q-5 7 -5 15q1 0 5 -0.5t4 -2.5l3 -17v-50q0 -2 1.5 -4t4 -4.5t5 -4t4.5 -1.5h1l1 1q0 1 0.5 3t0.5 4v3.5v2.5q0 3 0.5 10.5t0.5 16.5t-0.5 16.5t-0.5 10.5q1 1 2 2.5t2 1.5q3 0 3.5 -1.5
t0.5 -3.5t-0.5 -3.5l-1.5 -4.5v-68q0 -1 -1.5 -2.5t-2.5 -1.5q-2 0 -4 2.5t-5 5t-6 4.5t-5 2h-1q-1 -5 -2.5 -10t-3 -10.5t-2.5 -10.5t-1 -11q0 -2 0.5 -3t3.5 -3h3.5h5.5h5h3q2 0 4.5 -0.5l5 -1t4.5 -2t2 -3.5h-6q-2 0 -7.5 0.5t-12 1t-14 0.5t-14.5 0.5t-12 1t-8 0.5
l-0.5 0.5t-0.5 1.5v0v0.5v0.5q0 1 0.5 1.5l0.5 0.5h27v4q-3 3 -5.5 6t-5.5 6t-5.5 6t-6.5 6q-2 1 -5 3t-3 5q0 2 1.5 2h2.5q3 0 7.5 -4.5t8.5 -9.5t7.5 -9t5.5 -4t3 1.5t2 4t1.5 5t0.5 3.5q0 3 -2 4.5t-5 2.5q-2 1 -4 3.5t-5 5t-5.5 5t-2.5 3.5l-3 3t-4 4.5t-3.5 5t-1.5 4.5
v0q0 1 0.5 1.5t1.5 0.5q3 0 7 -5.5t8.5 -11.5t9 -11t9.5 -5q2 0 3 2.5t1.5 6t0.5 7v4.5v1l-20 22l-2 1q-6 10 -12.5 19t-10.5 19q0 2 1.5 2h1.5h2h1q3 -6 5.5 -12t5.5 -11q4 -7 10 -12.5t11 -11.5l2.5 -2.5l1.5 -1.5l2 1v45zM97 90q0 1 0.5 3t1.5 2h54l3 -3l-2 -2h-57z
M64 28q0 1 1.5 4.5t3 8t3 7.5l1.5 3h13q3 0 3 2t0.5 4l1 4t2.5 2q1 0 1.5 -0.5l0.5 -0.5v-1.5t0.5 -2.5t0.5 -2v-1q2 -3 4.5 -3.5t5 -2t5 -4.5t2.5 -11q1 -2 0 -5t-4 -3q-1 0 -2 0.5t-2 1.5q4 11 -6 17l-2 -0.5l-2 -0.5v-26q-2 0 -4.5 0.5t-2.5 3.5v22q-4 0 -7 0.5t-5 -3.5
q0 -1 -0.5 -3t-1.5 -4t-1.5 -3.5t-0.5 -2.5h-8zM133 29v2l0.5 1.5l1 3l1 3t0.5 2.5q1 5 2 7.5t2.5 3.5t3.5 1.5t6 2.5q2 1 2.5 2t1 2.5t1 2.5t2.5 1h0.5t1.5 -1l0.5 -3t0.5 -4l0.5 -1t1.5 -1h11l3 -3v-2.5t0.5 -6l1 -7t1.5 -6.5v0q0 -2 -1.5 -3t-3.5 -1h-1v7t-1 7.5t-3 6
t-6 2.5h-1.5h-1.5l-1 -4v-23q0 -1 -1.5 -1.5l-1.5 -0.5q-2 0 -2.5 0.5t-0.5 2.5v4.5t-0.5 7t-0.5 7v4.5t-0.5 3t-1.5 3v0v0h-1v0q-4 -3 -5.5 -7t-2.5 -8t-2 -7t-3 -3q-3 0 -3 3zM180 48q-1 1 -1 1.5t1 0.5t1.5 -0.5t-1.5 -1.5z" />
</svg>
