<?xml version="1.0" standalone="no"?>
<!DOCTYPE svg PUBLIC "-//W3C//DTD SVG 1.1//EN" "http://www.w3.org/Graphics/SVG/1.1/DTD/svg11.dtd" >
<svg xmlns="http://www.w3.org/2000/svg" xmlns:xlink="http://www.w3.org/1999/xlink" version="1.1" viewBox="-10 0 266 256">
   <path fill="currentColor"
d="M150 249q0 1 1 1.5t2 0.5q2 0 3 -1.5t1.5 -3.5t0.5 -4v-4q0 -12 -2 -23t-3 -23q-1 0 -1.5 -1t-0.5 -2q0 -2 2 -4t4.5 -4t4.5 -4.5t2 -5.5t-1.5 -5.5t-4 -4.5t-5.5 -3t-5 -1q0 2 1 4t2 3t2 3t1 4q0 4 -2 6.5t-6 2.5q-3 0 -6.5 -3l-7 -6t-7.5 -6t-8 -3q-1 0 -3.5 -0.5
t-2.5 1.5q1 1 4.5 3.5t7.5 5.5t7 6t3 4v1q-2 3 -5 3.5t-6 0.5q-5 0 -8.5 -2t-6.5 -4t-6.5 -4t-7.5 -2q0 5 3 8.5t7.5 5.5t9 3.5t8.5 1.5q5 0 9.5 -1.5t10.5 -1.5q2 0 4 3t3.5 8t2 11t1 11t0.5 8v4q0 3 -1 6.5t-1 6.5zM163 131q6 0 9 4t3 10q0 11 0.5 24t2.5 25q0 2 1 6.5
t2 10.5t2.5 13t2.5 12.5t2 9t2 3.5q3 0 4 -1.5t1 -4.5q0 -8 -3 -16.5t-5 -17.5q-2 -19 -3 -38l-2 -38q-2 -3 -5 -5t-6 -3q-2 0 -5 -0.5t-7 -1t-7.5 -0.5h-4.5l-1.5 -0.5t-2.5 -0.5v-4v-1v-2.5t0.5 -2.5l0.5 -1h50q0 -1 -1 -3.5t-3 -2.5h-102q-2 0 -3 -2t-1.5 -5t-0.5 -5.5
v-4.5q0 -7 4.5 -10.5t11.5 -4.5t14 -1h12q1 0 4 -0.5t6.5 -0.5t6.5 -0.5t4 -0.5h2q8 0 15.5 1t15.5 1h4h4q2 0 3 -1.5t1 -2.5t-0.5 -1.5l-0.5 -0.5l-8 -3h-74q-16 0 -24.5 6.5t-8.5 22.5q0 11 4 21q0 2 0.5 7t0.5 10t0.5 10t0.5 7v3q0 16 -3.5 33.5t-7.5 32.5q-2 6 -5.5 12
t-3.5 12q0 2 0.5 3.5t2.5 1.5q3 1 6 -4t5 -12t3.5 -13t2.5 -8q0 -2 1 -7t1.5 -10t1.5 -10t1 -7q0 -1 0.5 -3.5t0.5 -5.5t0.5 -6t0.5 -4v-7.5v-11.5v-12.5v-7.5q1 -2 6 -3t11 -1.5t11.5 0t8.5 0.5h5h3l2 1v23q0 2 -3 3t-5 1h-2q-1 0 -3 -0.5t-4 -0.5t-4 -0.5t-3 -0.5l-0.5 -1
l-0.5 -1q0 -1 -0.5 -3t-0.5 -4.5t-0.5 -4.5l-0.5 -2q0 -1 -1 -1.5l-1 -0.5q-1 0 -2 0.5t-1 1.5v2v3v6.5t1 6t3.5 4.5t6.5 3q11 0 20.5 0.5t20.5 0.5h2.5h3t2.5 -0.5t1 -2.5v-1.5t-1 -1.5q-2 -1 -5 -1.5t-6 -0.5h-5.5h-3.5q-1 -1 -1 -2v-2v-2t1 -1q6 -1 10.5 -1.5t9.5 -0.5z
M96 215q0 2 1.5 2.5t3.5 1.5h4.5h4.5h7t5.5 -0.5t6 -1t7.5 -1.5v-2v-2t-1 -1h-36q-2 0 -2.5 1t-0.5 3zM100 88q-2 0 -3 2.5t-1 3.5q39 0 79 -1q1 -1 1 -2v-1v-2.5t-1 -1.5h-2q-2 0 -4 -0.5t-4 -0.5h-2h-4t-4 0.5t-3 0.5h-2h-10t-15 0.5t-15 1t-10 0.5zM75 29q0 7 1 11t3 5.5
t4.5 2t5 0.5t4.5 1t4 3q1 1 1 2t0.5 2.5t1 2t1.5 0.5h2q0 -4 2 -6t4.5 -2.5t5.5 -1.5t5.5 -3t4 -7t1.5 -14q0 -2 -0.5 -4t-3.5 -2h-1l-0.5 0.5l-0.5 0.5q0 1 -0.5 3t-0.5 4.5t-0.5 4t-0.5 2.5q0 3 -1.5 6t-4.5 3q-4 0 -4.5 -3.5t-0.5 -6.5q0 -4 1 -8.5t1 -8.5
q0 -2 -1.5 -2.5l-3 -1t-3 0t-2.5 0.5v27q0 2 -1 2.5t-3 0.5q-1 0 -2.5 -0.5t-3 -0.5t-3 -1t-1.5 -3l-3 -15q0 -1 -1.5 -1h-2.5q-2 0 -2.5 2t-0.5 5zM142 26v9t1 7.5t3.5 5.5t7.5 3h1h2h3h1q3 1 3.5 3t2.5 4q2 -4 4 -5.5t4.5 -2l5 -1t5.5 -1.5q1 -1 2 -2.5l2 -3l2 -3t1 -2.5
v-2v-4l0.5 -1.5t0 -3.5t-1 -3t-2.5 -1t-3 3t-1.5 6.5t-2.5 6.5t-7 3h-1q-1 0 -2 -0.5l-1 -0.5v-25q0 -1 -1.5 -1t-2.5 -1h-0.5h-0.5q-2 0 -3 1.5t-1 3.5q0 5 0.5 9.5t0.5 8.5t-1 6t-5 2l-2 -0.5t-3.5 -0.5t-3 -1t-1.5 -2v-20h-3q-3 0 -3 2v2v2z" />
</svg>
