<?xml version="1.0" standalone="no"?>
<!DOCTYPE svg PUBLIC "-//W3C//DTD SVG 1.1//EN" "http://www.w3.org/Graphics/SVG/1.1/DTD/svg11.dtd" >
<svg xmlns="http://www.w3.org/2000/svg" xmlns:xlink="http://www.w3.org/1999/xlink" version="1.1" viewBox="-10 0 266 256">
   <path fill="currentColor"
d="M155 226q0 1 0.5 5t1.5 8.5t2 7.5t2 3q2 0 4.5 -2t2.5 -4v-2q-1 0 -2 -2.5t-2 -3.5l-0.5 -2.5l-1 -5t-1.5 -5.5t-1 -4v-1v-1l0.5 -1t0.5 -2q1 -5 2 -11.5t2 -12.5t2 -12.5t1 -12.5q0 -3 -3.5 -5t-6.5 -2v3v1.5t0.5 1.5l1.5 3v1v1q-1 1 -1.5 8.5t-1 15.5t-1.5 15.5t-1 8.5
v9zM128 230q0 2 0.5 4.5t1 4.5t2 3.5t3.5 1.5t4 -1t2 -4q0 -4 -1.5 -10t-1.5 -11q0 -6 1 -12t2 -11.5t2 -11.5t1 -12v-5.5t-1 -6.5h-2h-1h-2t-2 2l1 2.5t1 3.5v2q0 8 -1.5 15.5t-3.5 15t-3.5 15t-1.5 15.5zM180 210v8q0 5 1 10.5t3 10t7 4.5q2 0 2.5 -2t0.5 -4l-0.5 -2
t-2 -4.5t-2.5 -5t-1 -3.5v-3.5v-5.5v-5v-3q0 -9 1 -17.5t1 -17.5v-3t-0.5 -4t-1 -3t-2.5 -1t-3.5 0.5t-0.5 2.5q0 12 -1 24t-1 24zM66 221q5 -1 10 -0.5l10 1t10 1.5t10 1h2q1 -1 3.5 -1.5l2.5 -0.5v-0.5v-0.5q0 -2 -2.5 -3.5t-6.5 -2t-7 -1t-4 -0.5q-1 -6 -2.5 -11
t-1.5 -11l0.5 -3l0.5 -3q1 -3 3.5 -3.5t6 -1t7 -2t5.5 -6.5q1 -7 1 -11.5v-10.5v-4t-0.5 -6t-1.5 -5t-4 -2l-1 0.5t-1 1.5v23q-2 6 -2.5 9t-1 4t-3 1h-9.5q0 -12 0.5 -24t-2.5 -24q1 0 5 -2.5t8 -6.5t7 -7.5t3 -5.5q0 -7 -2 -11.5t-6 -7.5t-9 -4.5t-11 -2.5q-4 3 -8 5
t-7.5 4.5t-6 6t-2.5 8.5q0 6 2 10t4.5 6.5t5.5 5t5.5 5.5t4.5 7.5t2 11.5v63q0 2 -2.5 2.5t-4.5 0.5q-6 0 -8 -5t-2.5 -11.5t0 -13t0.5 -9.5q0 -7 0.5 -13t0.5 -12q0 -2 -1 -3.5t-3 -2l-4 -1t-3 -0.5v10v13.5v14v9.5v9q0 5 1 9t2.5 7.5t6.5 6.5zM136 135q0 7 5.5 10t12.5 3
h10t11 -1.5t9 -5t4 -9.5q0 -4 -2.5 -8t-6 -7.5t-8 -5.5t-8.5 -2v-1q0 -2 1.5 -5.5t3.5 -4.5q1 0 4.5 1t7 2.5t7 2.5t4.5 2q1 0 2.5 1.5t2.5 1.5h0.5h1.5t2.5 -1.5t1.5 -3.5t-3 -3.5t-7.5 -3t-8.5 -2.5t-6 -2h-2.5t-3.5 -0.5t-4 -0.5h-3q-2 -1 -2 -3t-0.5 -4t-1.5 -4.5
t-3 -3.5q-5 -1 -8.5 -2t-7.5 -1q-2 0 -4 1t-2 3v1q1 1 4.5 2t4.5 1q1 1 3.5 1.5t3.5 0.5t2.5 0.5l1.5 0.5v8l-1 1t-2 1t-3.5 0.5t-6 1.5t-6 1.5t-3.5 1.5q-1 0 -3.5 1t-4 2l-3 2l-1.5 1l-2 3h2h2q4 0 7.5 -1l7 -2l7 -2t6.5 -1q1 0 3 -0.5t3 1.5q-1 5 -4.5 8.5t-7 6t-6.5 6.5
t-3 10zM144 134q0 -3 1 -6t3 -5t4.5 -4t5.5 -5q4 0 7.5 1.5t6.5 4t5 5.5t2 7t-2.5 6.5t-5.5 3.5t-7 1.5t-7 0.5q-5 0 -9 -2t-4 -8zM69 99v-3q5 -4 8.5 -6.5t9.5 -2.5q8 0 11.5 3.5t3.5 11.5q0 3 -2 6t-5 5.5t-6 4t-6 1.5t-6 -2t-4.5 -5.5t-2.5 -7t-1 -5.5zM80 71q0 2 1 2h3
q3 0 4.5 -2t2 -4.5t0.5 -5t1 -4.5q1 -3 3.5 -4t4.5 -2t5 -2t5 -3t3 -6t1 -11q0 -3 -1 -3h-3h-4q0 6 -0.5 9t-2 4.5t-4 2t-7.5 0.5v-4v-6v-5v-4q0 -4 -0.5 -5.5t-2.5 -1.5t-4 1t-2 3v23l-0.5 1t-1.5 1h-1.5h-3.5h-2q-1 0 -2.5 -0.5t-2.5 -1t-1 -1.5v-15l-1 -0.5l-1 -0.5
q-3 -2 -3.5 -2h-1.5h-2t-1 2v3v3q0 8 1.5 12.5t4.5 7t6 3.5t6 1t5 0.5t2 2.5v1q0 1 -0.5 2t-1 3t-1 3t-0.5 2v1zM129 22q0 12 2 18t4.5 8.5t5.5 3t5 0.5q4 0 6 1t3 4v2v2v3v1l0.5 0.5l1.5 1.5l3 -3t1.5 -2.5t0.5 -3.5t1 -4t4.5 -2.5t8 -2.5t8 -6.5t3.5 -13.5q0 -1 -0.5 -3.5
l-0.5 -2.5q0 -2 -0.5 -2h-2.5q-3 0 -4 3t-1.5 7t-2 7.5t-6.5 3.5q-4 0 -5.5 -3.5t-2.5 -8t-0.5 -8.5t0.5 -6h-6t-3 4q0 3 1 6t1 7v7q-2 3 -3 4t-4 1q-2 0 -3.5 -1t-3.5 -2q0 -3 -0.5 -6t-1.5 -6.5t-3 -5.5t-6 -2z" />
</svg>
