<?xml version="1.0" standalone="no"?>
<!DOCTYPE svg PUBLIC "-//W3C//DTD SVG 1.1//EN" "http://www.w3.org/Graphics/SVG/1.1/DTD/svg11.dtd" >
<svg xmlns="http://www.w3.org/2000/svg" xmlns:xlink="http://www.w3.org/1999/xlink" version="1.1" viewBox="-10 0 266 256">
   <path fill="currentColor"
d="M149 198q4 0 7 4t5.5 10t4.5 13t3.5 12.5t3.5 9.5t4 4q4 0 4 -3.5v-5.5t-1 -5.5t-2.5 -7.5l-3 -8t-2.5 -5t-2.5 -3t-3 -4.5t-2.5 -5t-2 -3.5v0v-1q0 -3 2 -4t5 -1.5t5 -1t2 -3.5v-12l-2 -2t-4 -3q-2 -2 -4 -3t-3.5 -1.5t-4 -1t-5.5 -0.5q0 3 2 5l4 4t3.5 4t1.5 5t-4 4
t-6 1t-4 -1t-3.5 -2.5l-3 -3t-3.5 -2.5q-8 -6 -18 -7t-20 -1h-6l-0.5 0.5t-1.5 0.5v1q0 2 3.5 3t8.5 1.5t10.5 0.5t10.5 1.5t8.5 3.5t3.5 7v1q-5 2 -7.5 2h-6.5q-7 0 -14 -0.5t-15 -1.5q-3 -1 -5.5 -4l-5 -6t-5 -5.5t-6.5 -2.5q0 9 4.5 14.5t11.5 8t15 3t15 0.5t14 -1t15 -1
zM68 221q0 2 1.5 3t3.5 1q11 0 21.5 -0.5t21.5 -0.5h18q1 0 3.5 0.5l2.5 0.5q2 0 5 -1.5t3 -3.5v-1q0 -1 -1.5 -2l-1.5 -1h-72q-2 0 -3.5 1.5t-1.5 3.5zM60 154v2t2 2h3.5h4.5q6 0 11.5 -1t11.5 -1t12.5 1t13.5 1q1 0 2.5 -0.5t1.5 -2.5v-1q-1 0 -2 -1.5l-1 -1.5h-16
l-0.5 -1t-1.5 -2l-0.5 -1.5l-0.5 -1.5v-1q0 -2 1.5 -3.5t3.5 -1.5l2.5 -0.5t5 -0.5t5 -0.5l2.5 -0.5q1 0 1.5 -0.5l0.5 -0.5v-1q0 -2 -1.5 -3t-3.5 -1.5t-3.5 -1t-2.5 -0.5h-1h-1l-2 0.5t-4.5 1.5t-4.5 1.5t-3 0.5h-6h-10h-8.5h-6.5t-2 1v2t0.5 2t3.5 1h23l0.5 0.5l0.5 0.5
q1 0 1 2v3v2t-1 1l-2 2h-27q-2 0 -2 1.5v2.5zM137 153l2 1l2.5 2.5l1.5 1.5h32q3 0 4 -3l2 -6t0.5 -6.5t-0.5 -5.5v-6.5t-4 -3.5q-1 0 -2.5 0.5l-1.5 0.5l-1.5 2t-1.5 3q-1 0 -3 0.5t-4.5 0.5h-4.5h-4q-4 0 -6 -0.5t-3.5 -1.5l-3 -2t-2.5 -1q-2 0 -2.5 0.5t-0.5 1.5v2v4
t0.5 6t0.5 6v4zM142 146v-3.5t1 -2.5h25q2 0 2 2v3v4t-3 2h-20q-3 0 -4 -1.5t-1 -3.5zM185 107q5 0 8.5 4t6.5 7h1q3 0 3.5 -2t0.5 -4q0 -4 -3 -6l-6 -4l-6 -4t-3 -7q0 -3 1 -5.5t1 -5.5t-2.5 -6.5t-7.5 -2.5q-2 0 -9.5 -0.5t-16 -1t-15.5 -1t-10 -0.5h-30h-30
q-1 0 -1.5 1.5t-0.5 2.5t0.5 1.5l0.5 0.5l9 2h90h1.5h3.5t3.5 0.5l1.5 0.5q2 1 2 3.5v3.5v3q0 3 -2 3q-10 0 -20 -1t-20 -1q-21 0 -41.5 0.5t-40.5 1.5q-1 0 -2 0.5l-1 0.5l-0.5 0.5l-0.5 0.5q0 1 0.5 1h0.5q0 1 1 2t2 1h8h9h8.5h15t18 -0.5t18.5 -0.5h15h8h1h1h3.5t5.5 0.5
t6 0.5h4v2v1t-1 2.5l-2 3t-2.5 2.5t-2.5 1h-101q0 3 1.5 4.5t3 2.5t4 0.5t4.5 -0.5h10h15.5t24.5 -0.5t24.5 -0.5h16.5q5 -3 8 -5t7 -2zM63 15v1q0 2 1 5t1.5 6.5t1 6l0.5 2.5q0 4 3 5t7 1.5t6.5 0.5t2.5 1v15h1.5t2.5 -1l0.5 -0.5l0.5 -0.5q0 -1 0.5 -2t0.5 -2.5t0.5 -3
t0.5 -2.5q1 -3 4.5 -3.5t7.5 -1.5t7 -5.5t3 -15.5v-4v-4q-1 -1 -2.5 -2t-2.5 -1l-1 0.5t-2 0.5l-3 22q0 1 -2.5 1.5l-2.5 0.5h-3t-2 -2v-19l-1 -2t-2 -2v0h-1q-1 0 -2.5 1t-1.5 2v21q-1 0 -3.5 0.5t-4.5 0.5t-3.5 -1t-1.5 -4v-3v-5v-5v-3q-1 -2 -2.5 -3t-3.5 -1t-3 2t-1 3z
M137 35q1 2 4.5 3t6.5 2t5.5 2t2.5 2v13q4 0 5.5 -0.5t2.5 -2t1 -3.5t1 -5q0 -2 3 -3t6.5 -2.5t6.5 -2.5t4 -2q2 -1 2.5 -4t0.5 -6v-6.5v-5.5t-1.5 -3t-2.5 -1q-2 0 -3.5 1t-2.5 3v3t-0.5 4.5t-0.5 4.5v3q-3 4 -9 4h-1.5t-1.5 -1v-21l-1.5 -1t-2.5 -2v0h-1q-1 0 -2.5 1
l-1.5 1v22q0 1 -2.5 1h-3.5q-4 0 -6 -2t-2.5 -5.5t-0.5 -7.5v-7h-2q-3 0 -3.5 1t-0.5 3v4v3t0.5 4.5t0.5 5v3.5z" />
</svg>
