<?xml version="1.0" standalone="no"?>
<!DOCTYPE svg PUBLIC "-//W3C//DTD SVG 1.1//EN" "http://www.w3.org/Graphics/SVG/1.1/DTD/svg11.dtd" >
<svg xmlns="http://www.w3.org/2000/svg" xmlns:xlink="http://www.w3.org/1999/xlink" version="1.1" viewBox="-10 0 266 256">
   <path fill="currentColor"
d="M62 92q1 16 0 33t-2 33.5t-2.5 33t-1.5 32.5q-1 7 -2.5 13t-1.5 13q3 0 5.5 -1t4.5 -3q0 -8 0.5 -15.5t1.5 -14.5t1 -14.5v-15.5q0 -1 1 -2.5t1 -2.5q2 -18 3 -38.5t1 -36.5l2 -2l53 -3q1 0 3 -0.5l2 -0.5q0 -1 1 -1h1q5 0 7.5 3t3.5 7.5t1.5 9t1.5 7.5q0 1 1.5 3.5
t2.5 5.5t2.5 5.5t1.5 3.5v6q0 9 -2.5 18.5t-2.5 18.5q0 12 2 20.5t4 18.5q1 3 1.5 6.5t1.5 7t3 6t7 2.5q3 0 4 -0.5t1 -3.5t-1.5 -6l-3 -6l-3 -6t-2.5 -6q-2 -9 -3.5 -19t-1.5 -20v-1q0 -1 0.5 -3.5t1 -4.5t0.5 -4v-2q0 -2 1 -4l1 -2h3l27 26h1h2q2 0 4 -1t2 -4t-5.5 -7
t-12.5 -8.5t-12.5 -9t-5.5 -9.5q0 -4 2.5 -7.5t6 -7t6 -6.5t2.5 -5q0 -3 -1 -3.5t-4 -0.5t-5 2.5t-3.5 5.5t-3.5 5.5t-5 2.5t-5 -4.5t-4 -10.5t-3 -11l-1 -5v-1q1 0 1.5 -0.5l0.5 -0.5q2 0 6.5 -0.5t9.5 -0.5t9.5 -0.5t6.5 -0.5h3h4.5t4.5 -1t2 -3q0 -1 -1.5 -2t-3.5 -2
t-4 -1h-3q-6 0 -11.5 0.5t-11.5 0.5h-13q-1 -1 -1 -2.5v-2.5q0 -3 3 -4t7.5 -1t9.5 -0.5t9.5 -1.5t7.5 -3.5t3 -7.5q0 -2 -0.5 -3t-3.5 -1h-1l-5.5 5.5t-5 3.5t-5.5 1.5t-7 0.5q-1 0 -4.5 -0.5t-4.5 -0.5l-0.5 -2t-1 -3.5t-1.5 -2.5t-3 -1v0q-1 1 -2.5 2l-1.5 1v25l-7 0.5
t-16 1.5t-19 1.5t-17 1.5h-2q-3 0 -5 -1.5t-3 -3.5t-2 -3.5t-4 -1.5q-2 0 -3 0.5t0 4.5zM119 238q0 3 1 5.5t4 2.5q4 0 5 -2.5t1 -5.5q0 -8 -2 -15t-2 -15q0 -5 1.5 -8t3 -5.5l3 -5t2.5 -6.5v-20v-11v-10t-1 -10t-2 -11q-2 -3 -7.5 -4.5t-9.5 -1.5t-9.5 0.5t-10 2t-7.5 4.5
t-3 8v18q0 9 -0.5 19t3.5 19q1 3 1.5 4t1 1.5t1 1.5t0.5 4v2.5v4.5t0.5 4.5l0.5 2.5q0 8 -2 14.5t-2 13.5l0.5 1.5t1 2.5t1.5 1.5t2 0.5l6 -7v-17.5t2 -17.5q0 -2 2 -4t4 -2q3 0 5 3q2 4 3 9t1.5 10.5t0.5 10.5v8zM93 176q0 -2 0.5 -3.5t3.5 -2.5q6 0 11 -0.5t12 -0.5h3h2
l3 3l0.5 2t0.5 3q0 6 -4.5 10t-12.5 4t-13.5 -3t-5.5 -12zM92 157q0 -5 5 -8q6 -1 11 -1h11q4 0 7.5 2.5t3.5 7.5q0 2 -0.5 2.5t-3.5 0.5q-1 0 -4.5 0.5t-7.5 0.5t-7.5 0.5t-5.5 0.5h-3q-3 0 -4.5 -1.5t-1.5 -4.5zM92 134q0 -6 5 -10q5 -1 9.5 -1h9.5q6 0 8.5 2.5t2.5 7.5v4
q0 2 -2 3q-4 0 -7.5 0.5t-6.5 0.5h-6h-6h-6q-1 -1 -1 -3v-4zM83 63v12l1 0.5t2 0.5v0q3 0 4 -2t1.5 -4.5l1 -5t2.5 -3.5q5 -3 9 -4.5t6 -3.5t3 -5t1 -9v-9q-2 -3 -5 -3q-4 0 -4.5 3.5t-0.5 8.5q0 4 -1 7.5t-6 3.5h-3t-2 -2v-24q0 -6 -6 -6h-2t-2 1v33l-1.5 0.5t-2.5 0.5h-1
h-1q-2 0 -4.5 -1.5l-2.5 -1.5v-18q0 -2 -2 -2.5t-4 -0.5h-1.5t-1.5 1v4.5v4.5v5t1 6.5t2.5 6t4.5 2.5zM134 41q0 5 2 7.5t4.5 3.5t6 1.5t6 1.5t4.5 3.5t2 7.5h2h1h2t1 -0.5v-1.5t1 -3q1 -4 4.5 -5t7 -1.5t7 -2t4.5 -5.5q2 -2 2 -7v-8v-5t-3 -3h-1.5h-0.5l-4 20q-1 1 -2.5 2
t-3.5 1.5l-4 1t-3 0.5t-2.5 -0.5t-1.5 -1.5v-34q0 -1 -1.5 -1h-2.5h-1.5t-1.5 1v35q0 2 -1.5 2h-2.5q-5 0 -7.5 -2t-3.5 -5t-1 -7v-7l-0.5 -1l-0.5 -1h-1q-3 0 -4 2t-1.5 4t-0.5 5v3z" />
</svg>
