<?xml version="1.0" standalone="no"?>
<!DOCTYPE svg PUBLIC "-//W3C//DTD SVG 1.1//EN" "http://www.w3.org/Graphics/SVG/1.1/DTD/svg11.dtd" >
<svg xmlns="http://www.w3.org/2000/svg" xmlns:xlink="http://www.w3.org/1999/xlink" version="1.1" viewBox="-10 0 266 256">
   <path fill="currentColor"
d="M153 192h1.5t1.5 1q3 7 4.5 14.5t3.5 15.5l2.5 5t3.5 6t4 5.5t3 4.5t2.5 4.5t5.5 2.5q2 0 2.5 -1t0.5 -3t-1.5 -5.5t-4 -7.5t-5 -7t-3.5 -4q-4 -8 -7.5 -16.5t-3.5 -17.5q0 -3 2 -3.5t4.5 -1t4.5 -1.5t2 -3v-1q-1 0 -1.5 -1l-0.5 -1h-12v-1.5v-4v-3.5l0.5 -1l0.5 -1h18
q1 0 3 2.5t3 3.5v2v4q0 5 -2 9t-5 6.5t-5 5t-2 3.5v1.5v0.5q3 1 7 -1.5t7 -6.5t5 -8.5t2 -7.5q0 -2 -0.5 -5.5t-1.5 -7t-3 -5.5t-5 -2h-22q-2 0 -2.5 -2l-1 -4t0 -4.5t0.5 -3.5v-3.5t1 -2.5h21q4 0 5.5 -2.5t2.5 -6t1 -6.5v-5t-1 -2.5l-2 -3t-2 -2.5t-2 -1h-21v-4.5v-4.5
q0 -3 3.5 -3t8 -0.5t7.5 -3.5t3 -11v-4v-3q0 -2 -1 -2h-2q-2 0 -3 2.5t-1 6t-0.5 6t-2.5 2.5h-11q-1 -7 -3.5 -9t-9.5 -2h-5.5t-7 0.5t-6.5 2t-3 2.5q0 3 3 3q5 0 9 -0.5t8 -0.5q3 0 4.5 1t2 3.5t0.5 5v5.5v3.5v2.5l-3 3l-23 3l-0.5 0.5l-0.5 0.5v1v0v0q0 1 0.5 1.5l0.5 0.5
h3h3q3 0 6.5 -1t6.5 -1t4 1.5t1 3v3.5v4v2v2l-1 1q-11 0 -17.5 5t-6.5 16q0 1 0.5 3l1 4t2 3t3.5 1h17q1 0 1.5 1.5l1 3t0.5 3.5v2v5q-7 6 -11 12.5t-6.5 13t-4 14.5t-2.5 17v1v1v3t2 1h1l2 -3q2 -7 2.5 -13.5t1.5 -13t3.5 -12.5t8.5 -10h0.5h0.5zM86 242l1 2h1q2 0 3.5 -3
t1.5 -4v-86q1 0 3 -1t3 0q4 2 6.5 7.5t2.5 10.5q0 1 0.5 4t0.5 7.5t0.5 8.5t0.5 7v6.5v10.5v11v7l2 3h1q2 0 2.5 -2l1 -4t0.5 -4.5v-3.5v-6q-1 -3 -1.5 -11.5t-1 -18t-1 -18t-1.5 -11.5q1 -4 -2 -6t-6.5 -3t-6.5 -3t-3 -5q0 -6 1.5 -9t4 -4.5t5.5 -2t5 -2.5t3.5 -6.5
t1.5 -12.5v-4v-4t-1 -1.5t-2 -1.5v0h-1q0 1 -1 1.5t-2 1.5v7t-0.5 7.5t-2.5 6.5t-6 3v0q-1 0 -2 -1t-1 -2v-34q0 -2 -1 -2.5t-3 -0.5q-1 0 -4.5 1.5l-7 3t-6 3.5t-2.5 3q0 2 1 2h3q3 0 5 -0.5t4 -0.5h2t2 1v4v4q0 5 -0.5 9t-0.5 9q-1 0 -4.5 0.5t-4.5 0.5q-2 0 -3 -3
t-1.5 -6.5t-1 -6t-3.5 -2.5q-2 0 -2 3v2v3v4t0.5 4.5l0.5 2.5q2 4 5.5 5t6.5 2t5.5 2.5t2.5 7.5q0 3 -0.5 4.5t-1.5 2t-2.5 1l-4.5 1.5t-5.5 3t-4 5t-3 6.5t-2.5 6.5q0 3 -0.5 12t-1 19t-1 19t-0.5 13v2q0 2 1 4t3 2q3 0 3.5 -3.5t0.5 -5.5q0 -5 -0.5 -9.5t-0.5 -10.5v-3
q0 -2 0.5 -7.5t1 -11.5t1 -11t0.5 -7t0.5 -4.5t2 -5t3.5 -4t5 -1.5t3.5 3t0.5 6q0 19 -0.5 38.5t-0.5 38.5v5zM135 154q0 -6 4 -10t11 -4v0h1q1 2 1 5.5v6.5v8q-4 0 -6.5 0.5t-5.5 0.5t-4 -2t-1 -5zM160 129q0 -3 0.5 -5.5t1.5 -6.5h3h4q2 0 4.5 0.5t4.5 1t3.5 2.5t1.5 5
t-1.5 5.5t-4.5 2.5h-15q-1 0 -1.5 -0.5l-0.5 -0.5v-1.5v-2.5zM132 26q0 5 0.5 10t2.5 10q1 2 3.5 3.5t5 1.5t5 0.5t2.5 1.5v17q3 0 4.5 -1.5t1.5 -3.5v-4q0 -3 1.5 -5.5t4 -2.5t5.5 -0.5t6 -2t6 -4.5q0 -1 1.5 -2.5l1.5 -1.5v-22q-5 0 -6.5 4t-2 9t-1 9t-1.5 4h-10
q-2 0 -2 -2v-3q0 -7 1 -13.5t1 -13.5v-2v-3q-1 -1 -3 -1h-2h-2.5t-1.5 3v5v8v8v5t-0.5 4.5t-0.5 4.5h-2h-2q-6 0 -7.5 -4t-1.5 -8v-8.5t-3 -3.5q-2 0 -3 1.5t-1 2.5zM87 63q0 2 1 3.5t3 1.5q3 0 3.5 -2t1 -4.5t1 -4.5t2.5 -3l10.5 -3.5t6.5 -4t3 -7t1 -12.5q0 -3 -1 -5
t-5 -2t-4 4v9t-1.5 9t-7.5 4q-3 0 -3.5 -1.5t-0.5 -4.5q0 -5 1 -10.5t1 -11.5v-3l-3 -1.5t-2 -0.5q-3 0 -4 2t-1 6v23q-1 2 -2.5 2h-2.5q-5 0 -7 -3.5t-2.5 -8t-1 -8t-3.5 -3.5h-1.5t-0.5 2q0 1 -0.5 4t-0.5 4q0 6 1.5 9.5t3.5 6t6.5 3.5t10.5 1v2v2l-1 2.5t-1 3.5z" />
</svg>
