<?xml version="1.0" standalone="no"?>
<!DOCTYPE svg PUBLIC "-//W3C//DTD SVG 1.1//EN" "http://www.w3.org/Graphics/SVG/1.1/DTD/svg11.dtd" >
<svg xmlns="http://www.w3.org/2000/svg" xmlns:xlink="http://www.w3.org/1999/xlink" version="1.1" viewBox="-10 0 266 256">
   <path fill="currentColor"
d="M72 169q0 18 1.5 35.5t4.5 35.5q1 5 3 8t8 3q0 -6 -3 -11.5t-3 -11.5q0 -2 -0.5 -8.5t-1 -13.5t-1 -13.5t-1.5 -8.5v-2t-0.5 -4t-0.5 -3.5v-2.5v-1v-1v-2v-1q0 -2 1 -8t2 -12.5t2 -12t2 -7.5q3 -5 6 -6.5t5.5 -2.5l5 -2t4 -3t2.5 -6t1 -12v-12q0 -2 -2 -4l-3 -3l-4 3v24
l-8 9h-2q-1 0 -2 -0.5t-1 -1.5v-25q0 -1 -0.5 -2t-1 -2.5t-1 -2.5t-1.5 -2l-4 3q1 12 0 23.5t-2.5 22.5l-3 22t-1.5 22zM48 235l0.5 3t1.5 4h1h2q2 0 5 -1.5t3 -4.5q-1 -1 -2 -4t-2 -4v-32v-32q0 -6 2 -11.5t2 -11.5q0 -3 -1.5 -3.5t-3.5 -0.5q-3 0 -4.5 1t-1.5 5
q0 3 -0.5 9t-0.5 12t-0.5 12t-0.5 8v25v26zM114 233q0 2 1.5 2.5t3.5 1t4 0l2 -0.5h10h9t13.5 -0.5t16 -1t16 -0.5t13.5 -0.5t8 -0.5q1 0 1.5 -0.5t0.5 -1.5v-0.5v-0.5v0q0 -1 -0.5 -1.5t-1.5 -0.5q-3 -1 -7 -1.5t-8 -0.5h-8h-6q-2 -4 -3.5 -11.5t-1.5 -15.5v-15v-13v-5v-4
l1 -1l23 -11q1 0 2.5 -2t2.5 -4.5t1.5 -5t0.5 -3.5q0 -2 -1 -3.5t-3 -1.5h-2h-1q-1 2 -1.5 4t-1.5 4.5t-2.5 4t-3.5 2.5q-1 1 -3 2t-4.5 2t-4 2t-2.5 1h-32q-6 0 -9.5 -2.5t-6 -5.5t-4 -5t-4.5 -2h-2.5t-1.5 2q0 5 2.5 8.5t7 5.5l9 4t7.5 4v7q0 15 -1.5 30t-4.5 30l-1 0.5
t-2 1.5h-4t-6.5 0.5t-6.5 0.5h-4v2zM90 154v4v4v3v2q0 2 0.5 10t1.5 17t2 17.5t1 13.5q0 1 1 4t1 4h1.5h1.5q3 0 4.5 -0.5t1.5 -3.5q0 -1 -0.5 -1h-0.5q0 -1 -0.5 -3l-0.5 -2q-1 -2 -1.5 -5.5t-1.5 -6.5t-1.5 -5.5l-0.5 -2.5q0 -1 -0.5 -6t-1 -11t-0.5 -12.5v-9.5v-6v-10.5
v-9.5v-7q-4 0 -5.5 3t-2 7t0 7.5t0.5 5.5zM147 222v-3l0.5 -1.5t0.5 -3t0.5 -3t0.5 -2.5q0 -2 0.5 -9t1 -14.5t1 -14t0.5 -9.5l2 -1h12l2 1v4t0.5 10l1 12t0.5 9v13v13l-1.5 2.5t-2.5 2.5h-15q-3 0 -3.5 -2t-0.5 -4zM107 214q0 1 1 1.5l1 0.5h1q5 0 8.5 -6.5t6 -14.5t4 -15
t1.5 -9v-2v-2.5t-0.5 -2t-2.5 -0.5t-3 2t-1.5 5t-0.5 5.5t-1 4.5t-3 6.5t-4.5 9.5t-4.5 10t-2 7zM190 165q0 2 0.5 6.5t1 10t1.5 12t3 11.5t4 8t6 3q2 0 4.5 -0.5t2.5 -3.5v-2v-0.5t-0.5 -0.5t-1 -1.5t-2 -3.5l-3 -4t-2.5 -4l-1 -2q-2 -3 -2 -9v-10.5t-1.5 -10t-6.5 -4.5
q-2 0 -2.5 2t-0.5 3zM126 113q1 3 2 6.5t2.5 7t4 5.5t5.5 3t6.5 1t7 0.5t7.5 0.5h7q11 0 17 -2t9 -6.5t3.5 -11.5t0.5 -17v-8v-10t-1.5 -9t-6.5 -5q-1 0 -4.5 -0.5t-7.5 -1t-7 -2t-3 -4.5q0 -6 2 -9t5.5 -4.5t8.5 -1.5t10 1q5 -4 6 -7t1 -9v-4v-4l-1.5 -1.5l-1.5 -1.5h-1
q-3 0 -3 3t-1 6.5t-3.5 6.5t-8.5 3q-1 0 -3.5 -0.5l-2.5 -0.5l-1 -0.5l-1 -0.5v-21l-2.5 -1.5l-2.5 -1.5h-1h-0.5h-0.5q-1 1 -2 1.5l-1 0.5v20q0 3 -3 3.5t-4 0.5q-2 0 -3 -1t-2 -1.5t-2.5 -1.5t-2.5 -2v-3t-0.5 -4.5t-2 -4t-3.5 -1.5q-3 0 -4 1.5t-1 4.5q0 6 2 9.5t5 5.5
t6 3l6 2t5 2.5t2 5.5v2t-0.5 4.5t-1 4t-0.5 2.5q-1 0 -4.5 0.5t-7.5 1t-7.5 1t-4.5 0.5q-4 1 -6 5t-2.5 9t-0.5 9.5v7.5v3v4v4v2zM156 121q0 -7 0.5 -13t1.5 -15q0 -2 1.5 -2h2.5h2.5t1.5 2q1 4 1.5 7.5t0.5 6v5.5v7v5v5q1 2 -1.5 2.5t-3.5 0.5q-5 0 -6 -3t-1 -8zM45 127
l0.5 0.5l1.5 1.5l1.5 0.5l1.5 0.5q2 0 5 -2t5.5 -4.5t4.5 -5.5t2 -5v-30l-0.5 -0.5l-1 -1t-2 -1.5l-1.5 -1l-1.5 1t-2 1.5l-1 1l-0.5 0.5v27q0 2 -1.5 4.5t-3.5 5t-4 4.5zM135 101v-4v-4q1 -1 2.5 -2t3.5 -1q3 0 4.5 1.5t2.5 4t1 5v4.5t0.5 5.5t0 7.5t-2 6.5t-4.5 2.5
q-4 0 -5.5 -3t-2 -7.5t-0.5 -8.5v-7zM176 88l-3 -2h-31l-1.5 -1t-2.5 -2l-0.5 -1l-0.5 -1q0 -1 1 -2.5t3 -2.5t3.5 -1.5t2.5 -0.5h35l5 5v2v4v5v4v6v7v6.5v3.5q0 4 -1 7t-6 3q-1 0 -2.5 -0.5t-1.5 -1.5v-37zM81 64q0 2 1 3t3 1q1 0 3 -0.5t2 -2.5v-17q9 -1 15 -2.5t9.5 -4.5
t5 -8t1.5 -13q0 -2 -2 -2.5t-3 -0.5q-4 0 -5 3t-2 7t-4 7t-11 3q-3 0 -3.5 -0.5t-0.5 -4.5v-4v-6v-6v-4l-1.5 -1.5t-1.5 -0.5q-2 0 -3 0.5t-1 1.5v12t-2 12h-2h-1q-1 0 -4 -1l-3 -1q-1 -1 -1.5 -2.5t-1.5 -4t-2 -4.5t-2 -2q-1 -2 -2 -3t-3 -1t-3.5 0.5t-3.5 1.5q0 2 1 5.5
t2 6.5t3 6t4 4q3 2 6.5 2.5t7 2t5.5 3.5t2 6q0 2 -1 4t-1 5z" />
</svg>
