<?xml version="1.0" standalone="no"?>
<!DOCTYPE svg PUBLIC "-//W3C//DTD SVG 1.1//EN" "http://www.w3.org/Graphics/SVG/1.1/DTD/svg11.dtd" >
<svg xmlns="http://www.w3.org/2000/svg" xmlns:xlink="http://www.w3.org/1999/xlink" version="1.1" viewBox="-10 0 266 256">
   <path fill="currentColor"
d="M60 249q0 1 1 1.5t2 0.5t2 -0.5t2 -1.5q-1 -11 0.5 -22.5t2.5 -23.5q0 -5 -0.5 -12t0 -14.5t2 -14.5t6.5 -10q1 -1 3 -1t4 -0.5l4 -1l2 -0.5h3q3 0 3 2v4v4q-5 4 -7.5 7t-2.5 9v3.5t1 4l2 3t3 1.5h20q2 0 3 -1t2 -3t1 -4v-3v-3v-3q-3 -4 -8 -6.5t-8 -3.5v-3
q0 -3 0.5 -5.5t4.5 -2.5q10 0 15.5 3t6.5 14q0 3 0.5 9t1 12.5t1 12t0.5 6.5v8v12v12.5v7.5t0.5 2.5t2.5 0.5h1.5t1.5 -1v-27v-26q0 -1 -0.5 -3.5t-0.5 -6t-0.5 -6t-0.5 -3.5v-6t-1 -8.5t-2 -8t-2 -4.5q-4 -2 -7.5 -3t-7 -1.5t-6.5 -1t-7 -2.5v-3v-3t2 -2q3 0 8 -0.5t9 -2
t7 -4t3 -7.5q0 -4 -2.5 -7t-6 -4.5t-8 -2t-8.5 -0.5q-8 0 -13 0.5t-14 2.5q-2 2 -3 5t-1 5q0 5 1.5 7.5t4 3.5t5.5 1.5t5 1.5t4 2.5t2 4.5v4q-1 1 -4 1.5t-7 1t-7 0.5t-5 1q-4 2 -6.5 6t-4.5 7q0 5 -0.5 11.5t-2.5 11.5v13t-0.5 19.5t-1 19.5t-0.5 13v1zM160 152
q0 12 0.5 25t4.5 25q0 2 3.5 9.5t7.5 15.5t8.5 14t8.5 6q1 0 2 -0.5t1 -2.5q0 -1 -2.5 -5.5t-6 -10t-7 -10.5t-4.5 -7q-6 -14 -7.5 -28t-1.5 -28v-11q0 -4 0.5 -8t1 -8.5t1.5 -10.5q2 -7 3.5 -12.5t1.5 -13.5q0 -7 -1.5 -10t-4 -4t-6.5 -2t-8 -4q-3 -2 -4 -3t-1.5 -2
t-1.5 -1.5t-3 -0.5q0 5 2.5 8t5.5 5.5t7 4.5t6 5v5v5q0 7 -1 13.5t-2 13.5l-2 14t-1 14zM105 226h1q4 4 6.5 9t4.5 10h4q0 -3 -1.5 -6t-3.5 -6t-3.5 -5.5t-1.5 -6.5v0l2 -2t2 -2.5l2 -3t2 -1.5v-1v-2q0 -3 -2 -6.5t-6 -3.5h-25v3h3.5t6 0.5t6 0.5h4.5q3 1 5 1.5t2 4.5
q0 2 -2 5.5t-5 3.5t-6 -1t-6 -2.5t-6.5 -2.5t-7.5 -1q0 3 3 4t6.5 1.5t6.5 1.5t3 5q0 3 -3 3.5t-6 0.5t-6 1t-3 5q5 0 8 -1.5t6 -2.5t5.5 -2t4.5 -1zM90 178q0 -3 1.5 -5t3.5 -2.5t4.5 -1t4.5 -0.5q4 0 6.5 2t2.5 6t-3 6h-3.5h-3.5h-3t-4.5 -0.5t-4 -1.5t-1.5 -3zM84 118
v-1.5v-2.5q5 -3 10.5 -3.5t10.5 -0.5h5t7.5 0.5t6.5 2.5t3 4q0 4 -3.5 6.5t-8 3t-9.5 0.5h-6h-2h-4h-3h-3q-3 -1 -3.5 -3.5t-0.5 -5.5zM62 88q0 1 0.5 3.5t1 5.5t2 5t3.5 2h0.5h0.5l0.5 -0.5l0.5 -0.5v-22q0 -2 2 -3t4.5 -2t5.5 -1.5t4 -0.5q3 0 4 2t1.5 5.5t0 6.5t0.5 5
l0.5 0.5l0.5 0.5h1v0q1 0 2 -0.5l1 -0.5v-19q0 -1 2.5 -1.5l2.5 -0.5q3 0 4.5 2t3 5t3.5 6t5.5 6t8.5 4.5t13 1.5q0 -4 -3.5 -5.5t-8.5 -2.5t-8.5 -3t-3.5 -9v-1t0.5 -2.5t1.5 -1.5h14q0 -4 -2 -5.5t-6 -1.5h-1h-1q-1 0 -2 0.5t-3 0.5t-3.5 0.5l-1.5 0.5h-14q-9 0 -17 1.5
t-14 6t-6 13.5zM88 51q1 1 2 4t1 4t0.5 1.5t1.5 0.5v0h1l0.5 -1t0.5 -2q2 -4 5 -5.5t5.5 -2.5l5 -2t3.5 -6l0.5 -2.5t1 -5.5t1 -5.5t0.5 -3.5q0 -2 -1 -3t-2 -1h-1v0q-1 0 -2 1t-1 2v6t-0.5 7t-3 5t-6.5 2h-1.5h-1.5l-2 -3v-23l-0.5 -1.5l-0.5 -1.5h-1v0l-0.5 0.5t-1.5 0.5
q0 1 -1 2l-1 1v25q0 1 -2 1h-2q-4 0 -6 -2t-2.5 -5.5t-0.5 -7.5v-6q-1 0 -1.5 -0.5l-0.5 -0.5q-2 0 -3 2.5t-1 4.5q0 5 0.5 9t2.5 6.5t5.5 4t9.5 1.5zM134 29v2q1 0 2 3t1 4q2 6 5 8.5t5.5 4t5 3.5t4.5 7h1q1 0 1.5 -1t1.5 -2.5t3 -2.5t5 -3q9 -3 14 -8.5t5 -16.5
q0 -2 -1.5 -2h-3.5h-1h-2q0 4 -0.5 7.5t-2.5 6.5t-4.5 4.5t-7.5 1.5q-1 0 -2 -0.5t-1 -1.5q0 -5 0.5 -8t0.5 -8v-4.5v-4.5q1 -2 -0.5 -2.5t-3.5 -0.5q-1 0 -2 0.5t-1 2.5v22q0 2 -2 4.5t-4 2.5q-4 0 -5.5 -3t-2 -7t-1.5 -7.5t-4 -3.5t-3 3z" />
</svg>
