<?xml version="1.0" standalone="no"?>
<!DOCTYPE svg PUBLIC "-//W3C//DTD SVG 1.1//EN" "http://www.w3.org/Graphics/SVG/1.1/DTD/svg11.dtd" >
<svg xmlns="http://www.w3.org/2000/svg" xmlns:xlink="http://www.w3.org/1999/xlink" version="1.1" viewBox="-10 0 266 256">
   <path fill="currentColor"
d="M168 222q0 6 2.5 10t6.5 7t8.5 6t8.5 6h0.5h0.5q2 0 2.5 -1.5t0.5 -3.5v-2t-1 -2q-3 -2 -6.5 -3.5t-6.5 -3.5t-5 -5t-2 -7v-2.5v-2.5q3 -3 7 -4.5t7.5 -3t6.5 -4t3 -8.5q0 -3 -3.5 -4.5t-7.5 -3t-7.5 -4.5t-3.5 -10q0 -3 2.5 -4.5t5.5 -3t6 -3.5t4 -5q2 -9 1.5 -17.5
t-0.5 -16.5v-4v-5.5v-5.5v-2l-1 -6h-1q-2 0 -3.5 1.5t-1.5 3v3.5v4h-2h-1q-7 0 -12 -4.5t-5 -11.5q0 -2 0.5 -5t2.5 -3h21q2 0 2 -2.5v-2.5h-4h-7.5t-7 0.5t-4.5 0.5q-13 0 -21 1.5t-12.5 6t-6.5 12.5t-2 21q0 9 1 19.5t5 19.5q1 2 3 2.5t4.5 1.5t4.5 2t2 3q0 6 -4.5 10
t-10 7t-10 5.5t-4.5 3.5v1l1.5 0.5l1.5 0.5q5 0 9 -2t7.5 -5t6.5 -6l6 -6q1 -1 1 -3t0.5 -4t1 -3.5t1.5 -1.5h12q2 0 2.5 2t0.5 4.5t0.5 5t1.5 3.5q1 2 4 3.5l5 2.5t4 3t2 5t-3.5 4t-8 2.5t-8 4t-3.5 9.5zM57 215q0 2 1 2.5t3 0.5q4 0 8 -4.5t8.5 -10t7.5 -11.5t5 -9h4
q0 1 1 2.5t2.5 3.5t1.5 3q1 3 3 7.5t4 8.5t4.5 6.5t6.5 3.5q3 0 3 -1.5v-2.5v-1v-1q-1 -1 -2.5 -3t-3.5 -4.5t-3.5 -4.5t-2.5 -3q-2 -2 -3 -5.5t-2.5 -7l-3 -7t-3.5 -4.5v-69l1.5 -4.5t0.5 -4.5q0 -2 -0.5 -3.5t-3.5 -2.5l-1 0.5t-2 1.5l-1 1l-1 1v80l-1 2.5t-3 5t-4 5.5
t-3 5t-4.5 5.5l-7.5 7.5t-6.5 7t-2.5 4zM55 178q0 3 3 3t5.5 -2t4 -4.5t2.5 -5.5t2 -5q0 -2 0.5 -6l1 -8t1 -7t0.5 -4v-3v-5v-6v-6v-3v-6v-6v-4l-2 -2l-1 -1h-1q-2 0 -3 2t-1 4q0 5 1 9.5t1 9.5q0 13 -1.5 26.5t-9.5 24.5l-1 1.5t-2 1.5v0.5v1.5zM108 113v1q0 1 0.5 8.5
t1.5 15.5t1.5 15.5t0.5 9.5v1v3v3v2q1 1 1.5 4t0.5 5h1h1q4 0 4 -4v-1q0 -2 -0.5 -9t-1.5 -15.5t-1.5 -15.5t-1.5 -9v-6q0 -4 1 -8t1 -8q0 -1 -0.5 -4t-2.5 -3t-3.5 2t-2 4.5t-0.5 4.5v3v1zM141 157v-2.5t2 -2.5h8t12.5 -0.5t13 -0.5h8.5h1q2 0 2.5 1t0.5 3q0 4 -2 6.5
t-5 3.5q-7 1 -13 1.5t-13 0.5q-2 0 -5 -0.5t-5 -1.5t-3.5 -3t-1.5 -5zM138 139v-2t2 -1t7.5 -0.5t11.5 -0.5t11.5 -0.5t8.5 -0.5h6h6q1 1 1 2v2q0 5 -3 7q-2 0 -7.5 0.5t-12 1t-12.5 1t-8 0.5h-3q-4 0 -6 -3t-2 -6zM138 125q0 -2 1.5 -3t4 -2t4.5 -1t4 -1q1 0 3 -1.5
t4.5 -2.5t4.5 -2t3 -2q6 5 12 8.5t12 8.5q-2 2 -5 3q-10 -1 -20.5 0t-21.5 1q-2 0 -4 -1t-2 -5zM140 110q0 -10 5 -13t14 -3q2 0 3.5 0.5t2.5 3.5q1 4 -1 7.5t-6 5.5t-8.5 3t-6.5 1q-3 -1 -3 -2.5v-2.5zM94 64v3v5q0 2 0.5 4t1.5 3h1q2 0 3 -2t1.5 -4.5t0.5 -4.5v-2
q1 -3 5 -4t8.5 -3.5t8.5 -8t4 -17.5v-4t-1 -4l-0.5 -0.5l-0.5 -0.5h-1q-3 0 -4 2t-1 5.5v7.5t-1.5 8t-4 6t-8.5 2h-2t-2 -1v-39q0 -1 -0.5 -1.5t-1.5 -0.5l-1 0.5t-1 1.5l-3 1v38l-1 0.5l-1 0.5h-1q-4 0 -7 -3.5t-4.5 -8t-2 -9t-0.5 -7.5q-1 -2 -2 -2h-2h-1h-1q0 1 -0.5 4
t-1.5 4v1q0 6 1 10.5t3 7.5t5.5 5t8.5 4q1 0 3.5 1t2.5 2zM166 61v16q0 1 1 1.5l1 0.5h1h1l1 -0.5t1 -1.5v-14q0 -1 4 -1.5t8.5 -1.5t8.5 -2.5t4 -5.5v-29q-2 0 -4 1t-2 3v8.5t-0.5 8.5t-3 7t-8.5 3h-3.5t-2.5 -2v-5.5t-0.5 -4t-1 -3.5t-0.5 -5q0 -4 1 -7.5t1 -7.5
q0 -2 -0.5 -3t-2.5 -1h-2l-0.5 1.5t-1.5 3t-1.5 2.5t-0.5 2v1v0q0 1 0.5 3.5l0.5 2.5v5v6.5t-0.5 7t-0.5 4.5h-2.5t-5 -1t-4.5 -2t-2 -2v-21l-1.5 -0.5l-1.5 -0.5h-1v0l-2 1v11q0 6 1 10t3.5 6.5t6.5 4t11 1.5z" />
</svg>
