<?xml version="1.0" standalone="no"?>
<!DOCTYPE svg PUBLIC "-//W3C//DTD SVG 1.1//EN" "http://www.w3.org/Graphics/SVG/1.1/DTD/svg11.dtd" >
<svg xmlns="http://www.w3.org/2000/svg" xmlns:xlink="http://www.w3.org/1999/xlink" version="1.1" viewBox="-10 0 266 256">
   <path fill="currentColor"
d="M127 204q3 0 5 3.5t5 8.5t5.5 11t6 11.5t8 9t10.5 3.5q1 0 2.5 -1.5t1.5 -2.5v-1q-12 -9 -21.5 -21.5t-16.5 -26.5l-2 -2v-21q-1 0 -3 0.5l-2 0.5q-1 0 -2 0.5l-1 0.5v16l-1.5 2.5t-4.5 6.5t-6 7.5t-5 5.5q-6 9 -13 16.5t-14 14.5q0 2 2 2h2q3 0 7 -3.5t8 -8t8.5 -10.5
t8.5 -11t7 -8t5 -3zM64 228q0 2 1 2h3t3 -0.5t3 -2.5q3 -4 6.5 -8t6.5 -9t5.5 -10.5t2.5 -10.5q-4 0 -5.5 2t-3.5 5q0 1 -2 4l-4 6t-3.5 6t-2.5 3q-1 2 -2.5 3.5t-3 2.5t-2.5 2.5t-2 3.5v1zM155 193q0 1 1 2.5t2.5 3.5t2.5 3.5t1 2.5q2 2 3.5 5.5t4 7t5 6t5.5 2.5h3.5
t2.5 -2q0 -1 -4 -6.5t-9.5 -12t-10 -11.5t-6.5 -5q-1 0 -1 1v2v1zM61 184q0 1 1.5 2t2.5 1q4 0 6.5 -0.5t5 -1.5l5 -2t5.5 -3q10 -4 20 -7t21 -3q8 0 15.5 2.5t15.5 6t15.5 6.5t15.5 3q3 0 4 -1t1 -3q0 -1 -5 -3t-12 -4t-15 -4t-15 -4.5t-12 -4.5t-5 -3v-1q0 -1 0.5 -3
t0.5 -4t0.5 -4l0.5 -2q7 -2 15.5 -2.5t16 -2.5t13 -6.5t5.5 -15.5q0 -7 -5.5 -11t-13 -6t-15.5 -2.5t-13 -1.5v-10l1 -1q5 0 13 -1t16 -3t13.5 -6.5t5.5 -11.5q0 -3 -0.5 -5t-3.5 -2q-2 0 -3.5 3.5t-4.5 7.5t-8 7t-14 3h-3h-4.5t-4.5 -0.5t-2 -2.5v-17q0 -2 -1.5 -2h-1.5h-2
t-2 2v8t-1.5 6.5t-4 4t-7.5 1.5h-2q-1 0 -3.5 -0.5t-5.5 -1t-6 -0.5t-4 -1q-4 -2 -5.5 -5l-3 -6t-4 -5t-6.5 -2q0 10 4.5 15.5t11.5 8t16 3t17 0.5l1 2v11l-35 3q-6 1 -10 6t-4 10q0 9 3.5 16t13.5 8q2 0 6 0.5t9 1t9.5 1t6.5 0.5v4q0 3 -0.5 7t-2.5 7q-1 1 -6 3t-12 3.5
t-14.5 4t-14 4.5t-11 3.5t-4.5 2.5zM149 152q0 2 5 5t11.5 5t12.5 3.5t8 1.5h3t1 -3q0 -1 -5.5 -3t-13 -4t-14 -3.5t-8.5 -1.5zM104 149q-2 0 -7.5 2t-11.5 4.5t-10.5 5.5t-4.5 5q2 0 8 -1.5t13 -4t12 -5t5 -3.5q0 -2 -1.5 -2.5t-2.5 -0.5zM103 136v-1q1 -1 1.5 -2.5t2 -3.5
t2 -4t0.5 -4q1 -1 0.5 -4t-0.5 -5.5t1.5 -4.5t4.5 -2q5 0 8.5 0.5t3.5 5.5v6v8.5t-1.5 8.5t-4.5 5h-7h-2h-4t-3.5 -1t-1.5 -2zM140 107q1 0 3.5 -0.5t2.5 1.5q0 6 1.5 13t1.5 13v2t-1 2h-14v-30l0.5 -0.5t1.5 -0.5h1h3zM153 118v-4t1 -4q0 -2 2 -2h3q7 0 11 3.5t4 9.5
t-4 10.5t-10 4.5q-3 0 -4.5 -2t-2 -5t-0.5 -6v-5zM87 122q0 -2 1 -4.5t2 -4.5t3 -3.5t5 -1.5q1 0 2 1.5t1.5 3t0.5 3.5v3q0 2 -0.5 4t-1 4.5t-2 4t-3.5 1.5q-5 0 -6.5 -3.5t-1.5 -7.5zM74 25q0 9 3.5 13.5t8 6.5t8 4t4.5 5v3v4.5v5v3.5q3 0 4 -3t1 -4q1 -1 1 -2v-4v-4
q0 -1 -1 -2q3 -4 6.5 -5t7 -2.5t5.5 -5t2 -11.5q0 -2 -0.5 -4.5t-3.5 -2.5h-0.5h-1.5q0 3 -0.5 6.5t-1.5 6.5t-3.5 5.5t-6.5 2.5l-1.5 -0.5t-1.5 -1.5v-23q0 -1 -1 -1.5l-1 -0.5h-1h-1q0 1 -1 2l-1 1v22q0 2 -2 2h-3q-3 0 -4.5 -3t-2 -6t-2 -6t-4.5 -3h-3.5t-1.5 2zM161 59
v3t2 1q3 0 3.5 -2t0 -4t-0.5 -4t2 -2l16 -5q1 0 2 -1l1 -1q1 -1 1 -2.5t0.5 -3l1 -3t0.5 -2.5v-2.5t0.5 -5t0.5 -4.5v-3q-3 0 -4.5 2t-2 4.5t-0.5 5.5t-1 6t-3 4.5t-7 1.5h-3.5t-2.5 -1v-26q-1 0 -3 0.5t-2 3.5v20q0 2 -2 2h-3q-4 0 -5.5 -3t-2.5 -6.5t-2 -6.5t-4 -3v8.5
t2 8.5q1 3 3.5 5t5.5 3.5t5.5 2.5l2.5 1l-0.5 2.5t-0.5 3.5v2z" />
</svg>
