<?xml version="1.0" standalone="no"?>
<!DOCTYPE svg PUBLIC "-//W3C//DTD SVG 1.1//EN" "http://www.w3.org/Graphics/SVG/1.1/DTD/svg11.dtd" >
<svg xmlns="http://www.w3.org/2000/svg" xmlns:xlink="http://www.w3.org/1999/xlink" version="1.1" viewBox="-10 0 266 256">
   <path fill="currentColor"
d="M125 247q0 2 2 3t3 1q2 0 4 -4.5t3 -10.5t1.5 -11.5t0.5 -7.5h2.5h2.5h3q2 0 3 2q0 1 1 5l2 8l2 8t2 5q0 2 2 4t4 2q4 0 4 -4q0 -3 -1.5 -7t-3.5 -7.5t-3.5 -7t-1.5 -7.5q0 -2 2 -3.5t4 -3.5t4 -5t2 -6v-36q0 -3 -2.5 -5.5t-6 -3.5t-7.5 -1h-6h-8.5t-9 1t-7.5 3.5t-4 7.5
v14v14q0 6 2 10.5t4.5 7t4.5 3.5t2 3v1q0 1 -0.5 3t-0.5 4t-0.5 3.5t-0.5 2.5t-1 3t-1.5 4.5t-1 4.5t-0.5 3zM189 249q0 2 2 2h3h2h2q1 -2 1 -2.5v-1.5q0 -10 -1 -19t-2.5 -18t-2.5 -18t-1 -18q0 -5 0.5 -9t0.5 -8q0 -11 -1.5 -21t-1.5 -20v-1q0 -1 0.5 -5.5t0.5 -10
t0.5 -10t0.5 -5.5t-0.5 -3.5t-0.5 -5.5t-0.5 -6t-0.5 -4q-1 -2 -4.5 -3.5t-7 -2.5t-6 -2l-2.5 -1v-10l3 -3h3t4.5 -0.5t4.5 -0.5h3l3 -3t2 -3v-19q0 -2 -0.5 -2.5t-2.5 -0.5h-1.5t-1.5 1v18l-4 3h-11q-1 0 -1.5 -0.5t-0.5 -1.5v0q0 -4 1 -8t1 -7v-5q-1 -2 -2.5 -2h-2.5h-2
t-2 2v20q0 1 -2 1.5t-3 0.5q-4 0 -5.5 -2.5t-2.5 -6t-1.5 -7t-3.5 -5.5q-2 1 -2.5 3.5t-0.5 4.5q0 4 1.5 8t4 6.5t6 4.5t7.5 1q2 1 2 3v4q0 6 -3 7t-9 1h-3.5t-6 -0.5t-5.5 -1.5t-2 -3v-10q0 -1 -2 -1.5l-2 -0.5q-4 0 -5 2.5t-1 6t-0.5 6t-2.5 2.5h-17l-2 -3v-12l3.5 -1.5
t7.5 -4t7.5 -7t3.5 -11.5q0 -1 -0.5 -2t-0.5 -2l-1 -0.5l-1 -0.5q-4 0 -5 2.5t-1.5 6t-2.5 6t-8 2.5h-1.5t-1.5 -1v-18h-7v17q0 1 -1.5 1.5t-2.5 0.5q-5 0 -7 -2.5t-3.5 -6t-3 -6.5t-6.5 -3q0 11 2 16.5t4.5 8t6 2t6.5 0t5 2.5t2 8q0 3 -0.5 4.5l-1.5 4.5q-9 2 -14.5 6
t-8 10t-3.5 13.5t-2 15.5v7v12v11v7q0 23 -2 45.5t-3 45.5q-2 2 -2 4v5v5l1.5 1.5t1.5 0.5h1q3 0 5 -2.5t3 -5.5q-1 -13 0.5 -26t2.5 -26v-12.5t0.5 -16.5t1 -19t0.5 -18t0.5 -14t0.5 -8q0 -16 4.5 -24t12 -10.5t18.5 -2.5h26q6 0 13 -0.5t14 0t11.5 4t5.5 11.5
q1 16 0.5 30.5t2.5 29.5q0 2 0.5 6l0.5 4v5t-0.5 8t-0.5 7.5v4.5v3q0 18 1.5 37t2.5 36zM90 220q0 5 1 10l2 10h5q0 -19 1 -37.5t4 -38.5v-2t0.5 -3.5t0.5 -3.5v-2q2 -4 10.5 -5.5t18.5 -3t19.5 -2.5t14.5 -2q2 -1 3 -4t1.5 -6t1 -6.5t0.5 -4.5q0 -9 -3.5 -13.5t-8.5 -6
t-12 -1.5t-14 1q-2 -1 -1.5 -3t0.5 -3q0 -5 4 -7t9 -3t11 -0.5t9 0.5q0 -1 0.5 -1.5t1.5 -0.5v-1v-1q-1 0 -2 -0.5l-1 -0.5h-11q-15 0 -29 1t-29 2q-2 0 -2.5 1t-0.5 2q0 3 4 3q5 0 10 -1t10 -1q3 0 5 0.5t3 4.5v8v4v6t-0.5 5.5t-2.5 2.5h-16q-3 0 -3.5 -3t-0.5 -6.5
t-0.5 -6.5t-3.5 -3q-2 0 -2 1.5v2.5v3q0 3 0.5 7t0.5 6.5v2.5l6 3h2q2 0 4 0.5t5 0.5h4h5q3 0 6.5 -0.5t5.5 -0.5h3h2h4t3.5 -0.5t2.5 -2.5v0v0v-1v0q0 -1 -0.5 -1.5l-0.5 -0.5h-15q-1 0 -1 -1v-2v-2v-1q0 -3 1.5 -4.5t4.5 -2.5t6 -1h5t4 0.5t4.5 1.5t3.5 2.5t1 3.5v1v3.5
t-0.5 5.5t-0.5 6v4q-1 3 -5 4l-46 7q-5 1 -7.5 3t-4 4t-2.5 5.5t-3 6.5l-4 50q-1 2 -1 4v5zM126 198v-2q4 0 7.5 -0.5t6 -0.5h5.5h7h8q1 1 1 2v2q0 4 -2 6t-5 3t-6.5 1.5t-6.5 0.5q-6 0 -10.5 -2.5t-4.5 -9.5zM123 186q0 -4 3.5 -6t8.5 -2.5t10.5 0t8.5 0.5t6 1t3 5
q0 2 -1 4.5t-4 2.5h-30l-5 -2v-1v-2zM126 170v-1v-1q0 -2 1.5 -3.5t3.5 -2.5t4.5 -1.5t3.5 -0.5t3 -0.5t4.5 -0.5h4h2.5q4 0 6 3t2 7l-0.5 0.5l-0.5 0.5q-2 0 -5 0.5t-6.5 0.5t-6.5 0.5t-4 0.5h-2h-1q-1 0 -4.5 -0.5t-4.5 -1.5z" />
</svg>
