<?xml version="1.0" standalone="no"?>
<!DOCTYPE svg PUBLIC "-//W3C//DTD SVG 1.1//EN" "http://www.w3.org/Graphics/SVG/1.1/DTD/svg11.dtd" >
<svg xmlns="http://www.w3.org/2000/svg" xmlns:xlink="http://www.w3.org/1999/xlink" version="1.1" viewBox="-10 0 266 256">
   <path fill="currentColor"
d="M61 248v0l2 2h10q11 0 22 -0.5t23 -2.5h61h3t4 -0.5t4 -0.5h3q0 -1 1.5 -2l1.5 -1v-0.5v-0.5q0 -2 -2 -3t-3 -1h-1q-1 0 -6 0.5t-10.5 1t-10.5 1t-6 0.5h-2h-2q-2 0 -3.5 -1t-1.5 -3q-1 -2 -1 -5.5t-0.5 -7.5t-0.5 -7.5v-4.5v-3q0 -2 1 -3.5t3 -2t3.5 -0.5h3.5
q0 -1 2.5 -1.5t5 -1.5t4.5 -2t3 -1q2 -4 4 -9.5t2 -9.5q0 -1 -1 -3t-2 -3.5t-2 -2.5t-3 0l-1.5 1t-1.5 2v7t-1 7.5t-3.5 6t-7.5 2.5q-2 0 -6.5 0.5t-9.5 1t-9.5 1t-6.5 0.5h-3h-16t-9.5 -2t-4.5 -7t-1 -14q-1 -2 -2 -2h-2q-3 0 -3.5 1t-0.5 4q0 4 1 8l2 8t5.5 6.5t9 3t8 1
t3.5 1.5v32l-2 3l-4 0.5t-6 1.5h-6.5t-10 0.5t-10.5 0.5h-6t-2 1.5t-2 1.5v1zM117 221v-3v-3q0 -2 0.5 -3.5t0.5 -2.5q2 -4 4.5 -4.5t6.5 -0.5t6.5 2t3 4.5t0.5 6.5v8v2q0 2 -0.5 4t-0.5 3v3l-1 2t-2 2h-13q-1 0 -2 -1.5t-1.5 -3t-0.5 -2.5v-2l-0.5 -1.5t-0.5 -3.5v-3v-3z
M87 213q-1 0 -2 0.5t-1 2.5v16q0 2 1.5 2h1.5q2 0 3 -1.5t1.5 -3.5t0.5 -3v-3v-3.5v-3.5q-2 -3 -5 -3zM163 228q0 3 4 3q1 0 2.5 -2t2 -4.5t0.5 -5v-3.5v-7q-1 -1 -2.5 -1.5t-2.5 -0.5h-1v0q-1 0 -1.5 0.5t-0.5 1.5v3.5t-0.5 5t-0.5 5v3.5v2zM101 178q-4 2 -4 5h6
q5 0 10 -0.5t9 -0.5h6q1 0 5.5 -0.5l9 -1t8.5 -1.5l4 -1q0 -4 -3.5 -4.5t-5.5 -0.5h-1q-1 0 -3 0.5t-4.5 1t-4.5 1l-2 0.5q-2 0 -6 0.5t-9 0.5t-9.5 0.5t-5.5 0.5zM66 136q3 8 5 13.5t5 8.5t8.5 4t17.5 1v0q1 0 2.5 -0.5t3.5 -0.5t3.5 -0.5l1.5 -0.5q1 0 3 -1t2 -2v-1
l-1.5 -1.5l-0.5 -0.5h-15v-17q0 -1 2.5 -1.5t5.5 -2.5t6 -5t3 -7q0 -11 -3.5 -14t-7 -3.5t-6.5 -0.5t-3 -4q0 -3 0.5 -7.5t2.5 -7.5h3t4 -0.5t3.5 -1.5t1.5 -3t-1 -2.5t-3 -0.5q-14 0 -22.5 2.5t-13 7.5t-6 13.5t-1.5 21.5v3v4.5v4.5v2zM149 94q0 7 -1 15t-2.5 16t-3.5 16
t-4 14v3v3q6 0 8.5 -5.5t3.5 -14t1 -17.5t1 -17.5t2.5 -13.5t6.5 -5q7 0 10 4t4 9.5t0.5 11.5t-0.5 11q0 8 -1 16.5t-1 17.5q0 2 1.5 2h2.5q3 0 4.5 -3t2 -6.5t0.5 -7.5v-6q0 -13 -1 -24.5t-1 -24.5q0 -3 -2 -4t-4 -1.5t-5 -0.5h-4h-16.5t-17.5 1q-2 1 -2.5 3t-0.5 3h16
q1 0 2 2l1 2v0.5v0.5zM77 144v-3t1 -2h12l3 3v11l-1 1t-2 1h-1q-4 0 -8 -3.5t-4 -7.5zM73 125q0 -4 0.5 -6t1.5 -5q4 -1 7.5 -1.5t6 -1t5.5 -0.5h7h3h3q3 1 3 3v4q0 4 -2 8t-7 4h-26l-1 -0.5l-1 -0.5v-1.5v-2.5zM75 104l3 -14q0 -1 1.5 -1.5t3.5 -1l4 -1l2 -0.5q2 0 2.5 1.5
t0.5 3v3v1.5q0 6 -2.5 9t-9.5 3q-1 0 -3.5 -0.5t-1.5 -2.5zM63 24v3t0.5 4.5t1 4.5t0.5 3q0 3 3 6t7 5l7 3.5l3 1.5v15q4 0 5.5 -2t2 -5t0.5 -6q0 -2 1 -3q5 -3 8.5 -3.5t6 -2t3.5 -4.5t1 -10v-3.5t-3 -1.5t-4 2.5t-1.5 5.5t-2 5.5t-5.5 2.5q-2 0 -3 -0.5t-2 -0.5v-24
q0 -2 -1 -3t-2 -1t-2 0.5t-1 1.5q-2 3 -2.5 6t-0.5 6q0 4 0.5 7t0.5 5l-0.5 0.5l-0.5 0.5h-1q-5 0 -6 -3t-2 -6.5t-3 -6.5t-8 -3zM131 31q0 10 3 14.5t7 7t7.5 3.5t3.5 3t0.5 6t0.5 5q3 0 4 -1t1.5 -3t0.5 -4t2 -4t5.5 -2.5t6.5 -1t5.5 -2t3.5 -4.5q2 -6 3 -10t1 -9
q0 -1 -0.5 -3l-0.5 -2l-3 -3q-3 2 -4 6.5t-2 9.5t-3.5 8.5t-7.5 3.5q-3 0 -4 -2t-1 -5q0 -1 -0.5 -5t-0.5 -7q0 -5 0.5 -8.5t0.5 -5.5q-1 -1 -2 -1h-1h-2.5t-1.5 1v27l-1 2t-1 3q-1 0 -1.5 0.5l-0.5 0.5h-1q-3 0 -5 -2.5t-3 -5.5t-1.5 -6.5t-0.5 -5.5t-1 -2h-2q-3 0 -3.5 1
t-0.5 3z" />
</svg>
