<?xml version="1.0" standalone="no"?>
<!DOCTYPE svg PUBLIC "-//W3C//DTD SVG 1.1//EN" "http://www.w3.org/Graphics/SVG/1.1/DTD/svg11.dtd" >
<svg xmlns="http://www.w3.org/2000/svg" xmlns:xlink="http://www.w3.org/1999/xlink" version="1.1" viewBox="-10 0 266 256">
   <path fill="currentColor"
d="M163 189q0 3 1 8.5t2.5 12t3.5 13.5t4 13t4.5 10t5.5 5q1 0 2.5 -0.5t2.5 -2t1.5 -3t0.5 -2.5q0 -2 -0.5 -3.5t-2 -3l-2.5 -2.5t-2 -3q-7 -11 -9.5 -23t-2.5 -25v-2v-4v-4.5v-2.5q1 -3 4 -3t5.5 2.5t4.5 6t4.5 6t6.5 2.5q6 0 6 -5q0 -4 -2 -6.5t-5 -4l-6 -3t-5 -4.5
l-2.5 -2.5l-3 -3t-2.5 -3l-1 -1.5v-1l21 -20q1 -1 1 -2.5v-2.5q0 -2 -1 -3.5t-3 -1.5t-4 1.5t-3 3.5q-1 0 -2.5 2t-3 4.5t-3 4.5t-2.5 3l-1 0.5t-2 0.5q-2 0 -4.5 -4.5t-4 -10.5t-3 -11t-1.5 -7q0 -1 0.5 -1.5t1.5 -0.5h5h8h9h5q3 0 5.5 -1t2.5 -4v-1q0 -1 -1 -1.5l-1 -0.5
h-35q-1 0 -1 -1t-0.5 -2t-0.5 -3v-1q0 -3 4.5 -3.5t10 -1t10 -3.5t4.5 -11v-6q-1 -1 -2.5 -1.5t-2.5 -0.5q-3 0 -4 2.5t-2 5.5t-3.5 5.5t-8.5 2.5q-3 0 -4 -1.5t-1.5 -3.5t-1 -3.5t-3.5 -1.5q-4 0 -4 3v5q0 5 1 9t1 8v2q-3 0 -8.5 0.5t-12 0.5t-12 0.5t-7.5 0.5h-3h-4
q-2 0 -2 -2v-16l-1 -1t-2 -1v0h-1q-1 0 -3 0.5l-2 0.5v24h-4h-4t-2.5 -0.5l-1.5 -0.5v-13q0 -2 -2 -2.5t-4 -0.5h-2t-2 2q1 12 0 24t-5 24l1 1l2 2v0q4 0 5.5 -2t2 -5t1 -6.5t1.5 -6.5t3.5 -5t7.5 -2v0q1 0 2 1t1 2l0.5 2.5t0.5 3.5q0 4 -1 9t-1.5 10t-1.5 9.5t-1 7.5
q0 4 -1 5.5t-5 1.5q-5 0 -6.5 -2.5t-1.5 -5.5t-0.5 -5.5t-3.5 -2.5q-2 0 -3 1t-1 2.5v3v2.5q0 2 -0.5 5l-1 6t-1 5.5t-0.5 3.5t-1 2.5t-1.5 4t-1.5 4.5t-2 3l-1.5 3t-1 1t-0.5 0.5v2.5q0 1 1 3t3 2q5 0 7 -5t3.5 -11t4 -11t6.5 -5t4.5 1t0.5 5q0 13 -4 26.5t-8 25.5
q-1 3 -1.5 4t-1 1.5t-0.5 1v1.5q0 5 5 5q3 0 5.5 -5t4 -11.5t3 -12.5t1.5 -8q0 -1 1 -4.5t1.5 -6.5l1 -6t0.5 -4q1 -3 2 -10.5t2 -16t2 -16.5t2 -11v-10q0 -2 0.5 -6.5l0.5 -4.5l3 -3h3t7 -0.5t8 -0.5h7h9h7.5t4 1t1.5 3.5v7.5q-7 0 -14 -0.5t-13 0.5t-10 5.5t-4 13.5v23v24
q0 3 2.5 5.5t6.5 2.5h33v-5h-11q-1 0 -1.5 -1t-0.5 -2v-3.5v-4.5v-3v-4q1 -1 3 -2t4.5 -1.5t4 -2t1.5 -3.5v-18l-2 -1t-4.5 -1.5t-4.5 -1l-2 -0.5q0 -1 -0.5 -4t-0.5 -4q0 -2 1 -3t3 -2t4 -1h3h2h3q1 1 3 5t4 9t3.5 9t1.5 5q0 9 -2.5 18.5t-2.5 19.5zM118 175q0 -4 2.5 -6
t7.5 -2h2t1 1v7v4t-2 5h-1.5h-2.5q-5 0 -6 -2t-1 -7zM118 154v-4.5t3 -3.5q1 0 3.5 -0.5t6 -0.5t6.5 -0.5t4 -0.5h3q3 0 3.5 3t0.5 5q0 3 -2.5 5t-6 2.5t-6.5 0.5h-7h-7q-2 0 -1.5 -2.5t0.5 -3.5zM131 123v14h-12q0 -6 2.5 -10t9.5 -4zM91 65q0 1 1.5 2.5t3.5 1.5q3 0 4 -2
t1 -4.5t1 -5t4 -2.5l2 -0.5t3.5 -0.5h3h1.5q3 -1 4.5 -4t2 -5.5t1 -6t0.5 -5.5v-6q-1 -2 -2 -2h-2q-2 0 -3.5 2.5t-2 5.5t-1 5.5t-0.5 3.5q0 3 -2.5 3.5t-4.5 0.5l-1.5 -0.5l-1.5 -0.5l-1 -3l-0.5 -3t-0.5 -4q0 -5 1 -8.5t1 -7.5q0 -5 -5 -5q-1 0 -3 0.5t-2 2.5v28q0 1 -1 2
t-2 1q-4 1 -6 -1.5t-2.5 -6.5t-0.5 -7.5v-4.5q-1 -2 -2 -2.5t-3 -0.5h-2t-2 2v2.5v2.5q0 8 0.5 12t2.5 6.5t6.5 3.5t11.5 2v3q0 2 -1 3t-1 3zM143 50l0.5 0.5l0.5 0.5q1 0 2.5 0.5t3.5 1t3.5 0.5t2.5 1q1 0 1.5 1.5l1 3t1.5 2.5t2 1h1v0q1 0 2 -2l2 -4t2 -3l1 -1h17
q1 0 2.5 -3.5t2.5 -8t1.5 -8t0.5 -4.5q0 -2 -0.5 -4.5t-4.5 -2.5q-3 0 -4 1.5t-1.5 4.5t-0.5 6t-0.5 5.5t-3 4.5t-7.5 2l-0.5 -0.5t-1.5 -0.5q0 -1 -0.5 -4l-0.5 -3v-5v-7v-6.5v-4.5q-1 -1 -2 -1.5t-2 -0.5t-3.5 0.5t-2.5 2.5v31l-2 0.5t-3 0.5q-2 0 -3.5 -0.5t-1.5 -1.5
v-20q0 -1 -2 -1h-2q-3 0 -4 3.5t-1 6.5v1q0 1 0.5 3t1 4.5t0.5 4.5t1 3z" />
</svg>
