<?xml version="1.0" standalone="no"?>
<!DOCTYPE svg PUBLIC "-//W3C//DTD SVG 1.1//EN" "http://www.w3.org/Graphics/SVG/1.1/DTD/svg11.dtd" >
<svg xmlns="http://www.w3.org/2000/svg" xmlns:xlink="http://www.w3.org/1999/xlink" version="1.1" viewBox="-10 0 266 256">
   <path fill="currentColor"
d="M121 212q1 0 2.5 6t3.5 13t4 12.5t5 5.5q4 0 4 -3q0 -2 -1 -4.5t-2.5 -4.5t-2.5 -4t-2 -5q-1 -8 -2.5 -16t-1.5 -16v-1v-2q1 -1 2.5 -4l3 -6l3 -6t1.5 -4t0.5 -2.5t1.5 -1.5v-1q0 -5 -5 -8.5t-10 -3.5l-0.5 0.5l-0.5 0.5v1t0.5 1.5l1.5 1.5t2 1.5t2 0.5v6q0 3 -1.5 6.5
t-2.5 6.5t-2 6.5t-2 6.5v3.5t-0.5 5t-0.5 5v3.5zM95 222q0 2 -0.5 5t0 6t1.5 6t3 3q2 1 3 -1t1 -4q0 -3 -0.5 -6.5t-0.5 -7.5q0 -5 1 -8.5t1 -7.5q0 -2 -0.5 -3t-2.5 -1q-3 0 -4 2.5t-1.5 5.5t-0.5 6v5zM145 200q0 2 1.5 7t4 11t5 10t4.5 5h4.5h3.5v-3q0 -1 -1.5 -2.5l-3 -3
t-3 -2.5t-2.5 -2q-1 -2 -2 -5.5t-2.5 -6.5t-3.5 -5.5t-5 -2.5zM102 166v2.5t-0.5 5t-0.5 4.5v3q-1 3 -3 4.5t-4.5 2.5t-4.5 3t-2 5q6 0 10 -2.5t6.5 -6.5t3.5 -9t1 -10q0 -2 -1.5 -2h-2.5h-2zM141 185v4q3 0 7 -1t7.5 -2.5t6 -4t2.5 -6.5t-1 -6t-5 -3q-2 4 -2 7t-0.5 5.5
t-3.5 4t-11 2.5zM62 173q0 2 0.5 2.5t2.5 0.5q1 0 1.5 -0.5l0.5 -0.5q1 0 3 -1.5t4.5 -2.5t4.5 -2.5t4 -1.5q3 -1 8.5 -3.5t11.5 -6t11.5 -6t7.5 -3.5q1 -1 4 -2t4 -1h1q4 0 9 1.5t10 4t9.5 5.5t7.5 4q1 1 3.5 2.5t5.5 3t6 2.5t4 2h0.5h0.5q4 0 6 -4q1 -2 -3 -4t-10.5 -5
t-14 -5.5t-14 -5t-11.5 -4.5t-5 -3q1 0 1.5 -0.5t0.5 -1.5q0 -4 -3 -4q-2 0 -3 1l-2 2t-2 2.5t-2 2.5q-2 1 -7.5 4t-12.5 6t-15 6t-14 6t-10 5.5t-4 4.5zM99 141v2t2 2l4 -4v-1.5t0.5 -4t0.5 -5v-3.5v-3v-4t1 -4t3 -2t3.5 2.5t2.5 5.5t1.5 6t0.5 4h2q2 0 2.5 -1.5t0.5 -2.5
q0 -8 -2.5 -12.5t-6 -7t-6 -4t-2.5 -3.5q0 -3 3.5 -4.5t7 -3.5t6.5 -4.5t3 -7.5v-4.5t-3 -2.5q-2 0 -3 1t-1.5 2.5t0 4t-0.5 3.5q0 1 -1.5 2t-3.5 2t-3.5 1.5l-1.5 0.5l-2 -2q1 -7 -1 -11.5t-5.5 -7t-9.5 -3t-12 -0.5q-2 0 -4 1t-2 2v1q0 1 0.5 1.5l0.5 0.5h20q2 0 3.5 1.5
t2.5 3t1.5 3.5t0.5 3q0 2 -1 4.5t-3 2.5q-4 0 -5.5 -1.5l-3 -3t-3 -3.5t-3.5 -3l-2 1v10q0 2 3 2.5t6.5 1t6.5 2t3 5.5q0 2 -2 3.5t-4.5 2.5t-5 2.5t-4 2.5t-3 4.5t-2.5 7.5l-2 8t-1 6q6 0 8.5 -4.5t3.5 -9.5t3 -9.5t7 -4.5h2t2 2v8q0 5 -1 10t-1 10zM182 96v2q-1 2 -2 6
l-2 8t-1.5 7l-0.5 3q0 1 -1 2.5t-2 3.5t-2 3.5t-1 2v1.5v1q5 0 7.5 -3t4 -7t2 -8.5t0.5 -7.5q2 -5 3.5 -9.5t1.5 -9.5q0 -3 -2.5 -5t-6 -3t-8 -2l-9 -2t-8 -2.5t-5.5 -3.5q-1 -2 -1.5 -3.5l-1 -3t-1.5 -2.5t-3 -1t-2.5 1t-0.5 3q0 3 1.5 5t3 4.5t3.5 4.5t2 5q0 5 -2.5 10
t-5.5 9.5t-5.5 9.5t-2.5 10q6 0 9 -5.5t5 -13t4 -14t5 -8.5q1 0 3 1.5t3 2.5v1v1q0 6 -2 11.5l-4 11l-4 11t-2 10.5q4 0 6 -3.5t3.5 -8.5t3 -11t2.5 -11t3 -8.5t5 -3.5q4 0 6 2.5t2 5.5zM74 36q0 1 0.5 1.5l0.5 0.5l7 11l2.5 0.5t3.5 0.5l1.5 0.5t2.5 0.5t2.5 0.5t2.5 0.5
l1 0.5l1 0.5v13h1h2q4 -2 4 -6v-7q1 -2 4 -2.5t7 -2t6.5 -5.5t2.5 -13q0 -4 -2 -5.5t-5 -1.5v16q0 1 -1 1t-2 1l-2.5 1l-2.5 1l-0.5 0.5l-0.5 0.5v-0.5t-1 -0.5l-0.5 -0.5l-0.5 -0.5q-3 -5 -2.5 -11t0.5 -10q0 -1 -1 -1h-2q-2 0 -3.5 1t-1.5 3v1q0 1 0.5 2.5t1 4t1 4
t0.5 2.5v1q0 2 -0.5 4t-1.5 2q-5 0 -7.5 -2t-4.5 -4.5t-3.5 -4.5t-4.5 -2q-2 0 -3.5 1.5t-1.5 2.5zM160 49v3t0.5 4t0.5 4v3l0.5 1t1.5 2l3 -2q1 0 1 -3v-5v-5t1 -2h16q2 0 3.5 -3t2.5 -6.5t1.5 -7l0.5 -3.5q0 -3 -1.5 -3.5t-3.5 -0.5h-4q-1 4 -1.5 8.5t-2.5 8.5h-4h-1h-2
h-3t-1 -1v-24q0 -2 -1 -2.5t-3 -0.5t-3 2t-1 4v23l-0.5 0.5t-1.5 -0.5l-2.5 -1l-2.5 -1q-4 -2 -5.5 -3.5t-1.5 -3.5t-0.5 -4.5t-2.5 -5.5h-1q-2 0 -3 0.5t-1 1.5q0 12 4.5 18t17.5 5z" />
</svg>
