<?xml version="1.0" standalone="no"?>
<!DOCTYPE svg PUBLIC "-//W3C//DTD SVG 1.1//EN" "http://www.w3.org/Graphics/SVG/1.1/DTD/svg11.dtd" >
<svg xmlns="http://www.w3.org/2000/svg" xmlns:xlink="http://www.w3.org/1999/xlink" version="1.1" viewBox="-10 0 266 256">
   <path fill="currentColor"
d="M127 200v49l1 0.5t2 1.5h2q1 0 2.5 -0.5t1.5 -2.5v-49q8 0 13 3t8.5 7.5t5.5 10t3 10t2.5 7.5t3.5 3q3 0 4 -3t1 -5q0 -6 -2 -11.5t-5.5 -10t-8 -8.5t-8.5 -6q-2 -1 -4.5 -1.5t-5.5 -1.5t-5 -1.5t-2 -1.5v-9l31 -5q4 0 7 -2.5t4 -5t2 -6t2 -6t3 -4.5t6 -2q3 -5 4 -7t1 -7
q0 -8 -4 -12t-11 -5v-5q0 -4 2 -5.5t4.5 -3t5 -3.5t2.5 -8q0 -7 -4 -11.5t-11 -6.5v-12l-1 -0.5t-1 -1.5h-1q-1 0 -2 2t-1 3v2v4v3.5v2.5q-4 1 -7.5 2.5t-5.5 4.5v5q0 6 1 8.5t2.5 4t3 2.5t3 1.5t2.5 2.5t1 5q0 4 -2 5.5t-4.5 3t-4.5 3t-2 6.5q1 7 3 10.5t4.5 5.5t4.5 3t2 2
q0 7 -3 10.5t-8 5.5t-10.5 2.5t-10.5 0.5q-2 0 -4.5 -1t-2.5 -3v-19q0 -2 1 -2.5t3 -1t3.5 -1t2.5 -1.5q0 -12 0.5 -22.5t0.5 -21.5q0 -8 -1.5 -10.5t-3.5 -3t-4 -0.5t-4 -4q0 -2 -0.5 -3.5t-1 -3.5t-1.5 -3t-3 -1h-2.5t-1.5 1v13q-2 0 -5.5 1.5t-5.5 3.5q0 3 -0.5 7.5
t-1 10.5t-0.5 11v7l-0.5 1.5l-0.5 1.5q0 4 0.5 6.5t1.5 6.5q2 2 4 2.5l4 1l4 1t3 1.5q-1 5 -1 12v11q-2 2 -3.5 2.5t-3.5 0.5l-1.5 -0.5l-1.5 -0.5l-1.5 -0.5t-2.5 -0.5t-2.5 -0.5l-1.5 -0.5q-4 -1 -8 -1t-7.5 -0.5t-5.5 -3t-2 -7.5v-3v-2l6 -3t3 -3t2 -4.5t1 -5.5
q0 -7 -2.5 -9t-5 -3t-5 -3t-2.5 -8q0 -3 2.5 -4.5t5 -2t5 -1.5t2.5 -4v-17l-1 -0.5l-1 -0.5l-1.5 -0.5l-3 -1t-2.5 -1l-1 -0.5q-1 0 -2.5 -0.5l-1.5 -0.5v-12l-1.5 -0.5l-1.5 -0.5h-2h-1.5t-1.5 1v13q0 1 -2 1.5t-4.5 1.5t-5 2.5t-2.5 4.5q0 8 2.5 11.5t5 5l5 3t2.5 6.5
t-2.5 6.5t-5.5 2.5t-5.5 3t-2.5 9q0 4 1 7t3 4.5t5 2t8 1.5q1 4 1.5 8.5t1.5 8.5l2 2q12 3 22.5 4.5t22.5 1.5q0 4 0.5 6.5t-1.5 6.5q-6 0 -10.5 1.5t-9 3.5t-8 5t-7.5 8q0 1 -0.5 3.5t-1.5 5.5t-1.5 5.5t-0.5 3.5l-0.5 1t-1 2.5t-1 2.5l-0.5 1v2q0 2 1.5 3t3.5 1t2.5 -0.5
t0.5 -2.5q1 -1 2 -4.5t2 -7.5t2 -7.5t1 -4.5q4 -4 6.5 -7t5 -4.5t6.5 -2t10 -0.5zM68 140q0 -2 0.5 -4.5t2.5 -4.5h7q5 0 9 1t4 7v1q-1 0 -1.5 2.5t-1.5 2.5q0 1 -0.5 1.5l-0.5 0.5h-16q-1 0 -1.5 -1l-1 -2t-0.5 -2v-2zM168 133v-1.5v-1.5l7.5 -3t6.5 -1h3q1 1 3 4t3 4v1
q0 5 -4.5 8t-8.5 3h-3t-3 -1q-3 -2 -3.5 -5.5t-0.5 -6.5zM116 125v-3v-2l2 -1h24v2q0 3 -1 3v4t-0.5 4.5t-0.5 4v1.5l-3 3h-15q-2 0 -3 -2t-2 -5t-1 -6v-3zM118 110v-1v-3t0.5 -5t0.5 -5v-3q5 0 8 -0.5t7 -0.5q5 0 6.5 3t1.5 7v3q0 1 -0.5 2.5l-1 3t-2.5 1.5h-19l-0.5 -0.5
t-0.5 -1.5v0zM70 98q0 -5 3.5 -7.5t8.5 -2.5t7 3t2 7q0 5 -3.5 6t-7.5 1q-3 0 -6.5 -1t-3.5 -6zM178 85q4 0 8 2t5 6q0 3 -2.5 5.5l-3.5 3.5h-3.5h-3.5h-5.5t-4.5 -2l-0.5 -0.5l-0.5 -0.5v-10q0 -1 1 -2t3 -1.5t4 -0.5h3zM96 51v14l1.5 1t1.5 2h0.5h0.5h1l0.5 -1t0.5 -2
t0.5 -2.5t0.5 -3.5v-4v-2q1 -1 2 -1.5l1 -0.5q1 0 2.5 -0.5t3.5 -1t3.5 -1t2.5 -0.5q4 -5 4.5 -11t0.5 -13q-5 0 -6 3t-1.5 6.5t-1.5 6.5t-5 3h-3t-3 -2v-21q0 -1 -1 -1h-1q-2 0 -3 1t-1 2.5t-0.5 3.5t-1.5 3v14q-1 0 -3.5 1t-3.5 0q-1 0 -2.5 -1.5t-1.5 -2.5v-13
q0 -1 -1.5 -2t-2.5 -1q-2 0 -2.5 1t-2.5 4v0v1q0 1 0.5 3t0.5 4t0.5 4t0.5 3q2 3 4 4l4 2t4.5 1h6.5zM137 38q0 8 3 11t6.5 4t6.5 1t3 1v13h1.5h2.5l1 -0.5t2 -0.5q-1 -2 -1 -5q0 -4 1 -5q0 -1 0.5 -2l0.5 -1l17 -6l0.5 -3.5t2 -9t1.5 -8.5v-1q0 -1 -1.5 -2t-2.5 -1
q-3 0 -3 3.5t-0.5 7.5t-2 7t-6.5 3q-3 0 -4.5 -1t-1.5 -4q0 -5 0.5 -9.5t0.5 -8.5v-3.5v-2.5q-1 -2 -1.5 -2h-1.5h-1.5t-1.5 2l-3 32h-2q-4 0 -6 -1.5t-2.5 -4.5t-0.5 -6v-6q0 -2 -1 -2h-2q-2 0 -3 1.5t-1 3.5v4v2z" />
</svg>
