<?xml version="1.0" standalone="no"?>
<!DOCTYPE svg PUBLIC "-//W3C//DTD SVG 1.1//EN" "http://www.w3.org/Graphics/SVG/1.1/DTD/svg11.dtd" >
<svg xmlns="http://www.w3.org/2000/svg" xmlns:xlink="http://www.w3.org/1999/xlink" version="1.1" viewBox="-10 0 266 256">
   <path fill="currentColor"
d="M137 200v43q0 4 3.5 5.5t8 2t9 0.5h6.5q12 0 18.5 -1t10 -4.5t4 -10.5t0.5 -19v-11t-2 -12h-0.5h-1.5q-2 0 -3 1t-2.5 2t-3 1.5t-3.5 0.5h-1.5h-0.5q-2 0 -5.5 -0.5l-3.5 -0.5v-41q0 -2 1.5 -2.5t4 -1t4.5 0l2 0.5q5 -1 9 -3t6 -4.5t3 -6.5t1 -9q2 -9 3 -18t1 -18
q0 -3 -0.5 -5t-1.5 -5h-2q-2 0 -2.5 1l-1.5 3q0 10 0.5 20.5t-1 19t-7.5 14t-19 5.5v-59h-1h-2.5t-2.5 0.5l-1 0.5v50q-2 0 -7 -0.5t-10.5 -1t-10 -2.5t-4.5 -5v-37q0 -2 -1 -2h-1h-2.5t-1.5 2v5t-0.5 8t-0.5 8v6v2q0 9 3 13.5t7 6.5t10 2h9q5 0 8 1t3 4q0 2 -3.5 4.5
t-9 5.5t-11.5 6.5t-11 7t-8.5 7.5t-3.5 8q6 0 10.5 -4t9.5 -9t10.5 -9t10.5 -4h3t1 3v30q0 1 -1.5 2t-3 1h-3.5h-2q-5 0 -7 -2.5t-3 -2.5h-1v0zM55 246q1 0 3.5 0.5t5.5 0.5t5.5 0.5t4.5 0.5h3q10 0 16.5 -1t10.5 -4.5t5 -9.5t1 -16v-8t-1 -8q-1 0 -2 -0.5t-2 -0.5l-0.5 0.5
l-0.5 0.5q-1 1 -2 4.5t-1 4.5h-3.5h-3.5h-3.5h-3.5l-1.5 -0.5t-1.5 -1.5v-17q0 -2 1.5 -3t3 -1h3h1.5q6 -1 9 -5t4 -9.5t1 -10.5v-10q0 -2 -0.5 -3t-2.5 -1q-1 0 -2.5 0.5t-1.5 1.5v22q0 2 -1.5 3.5t-3.5 2.5t-4.5 1.5t-3.5 0.5h-1.5t-1.5 -1v-4.5v-4.5v-8.5v-7t0.5 -7.5
t1.5 -9q2 -3 4.5 -5t4.5 -3.5t4 -3.5t3 -6q1 -1 1 -2v-2.5t0.5 -3l0.5 -1.5q0 -1 0.5 -2.5l0.5 -1.5h11l-0.5 -2t-0.5 -4l-1.5 -0.5l-1.5 -0.5h-2h-1h-12.5t-18 0.5t-18 0.5h-11.5q0 1 -0.5 1.5l-0.5 0.5q-1 1 -1 2.5v1.5h13q1 0 1.5 3.5t1 8t0.5 8.5t1 5h3t4 1l4 2t3 3v16
q0 6 0.5 13t-1.5 13l-3 1.5t-3 0.5q-5 0 -7.5 -3.5t-3.5 -8.5t-0.5 -10t0.5 -9l-0.5 -0.5t-1.5 -0.5l-2.5 -0.5t-3.5 -0.5v16t2 12.5t7 8.5t16 3q1 0 1 1.5v2.5v8.5t-1 6t-4 4t-8 1.5q-4 0 -6 -2.5t-2 -6.5h-2q-2 0 -3.5 2t-1.5 4l2 32q0 1 1 2.5t2 1.5zM144 231
q0 -3 4.5 -4t10.5 -1.5t12 -0.5h8h7q3 1 3.5 2.5t0.5 3.5q0 4 -3.5 8t-7.5 4h-28q-5 0 -6 -4t-1 -8zM63 240q-3 -1 -3.5 -2.5t-1 -4t-0.5 -5v-4.5t1.5 -3t3 -1.5t4 -0.5h3.5h2.5h4.5h5h4h3h4h5h3q2 0 2 2v2q0 11 -5 15t-15 4h-2q-1 0 -3.5 -0.5t-5.5 -0.5t-5.5 -0.5
t-3.5 -0.5zM176 204h12q1 3 1.5 5t0.5 5q0 1 -0.5 2t-1.5 2q-2 0 -7 0.5t-10.5 1t-10.5 1t-7 0.5h-1.5h-1.5h-3.5t-2.5 -2v-11l0.5 -0.5l0.5 -0.5q7 -3 15 -3h16zM176 159q1 4 4.5 9.5t8 11t9.5 9t10 3.5q0 -3 -0.5 -5.5t-2 -4.5t-3.5 -4t-5 -4q-1 -1 -3.5 -4t-5 -5.5
t-5.5 -5t-5 -2.5h-1q0 1 -0.5 1.5zM147 94h-2t-1 2v33h2.5t1.5 -2q0 -1 0.5 -5l1 -8t0.5 -7.5v-5.5v-1v-2q0 -2 -0.5 -3t-2.5 -1zM69 115v-7q1 0 3.5 -0.5t5.5 -0.5t5.5 -0.5t3.5 -0.5h3q7 0 7 6q0 8 -3.5 11.5t-10.5 3.5h-7.5t-4 -1.5t-2 -3.5t-0.5 -7zM182 96q0 1 -0.5 5
t-0.5 8.5t-0.5 8t-0.5 4.5v4h2.5h2t1 -0.5t0.5 -1.5v-30h-2.5t-1.5 2zM57 87v1l0.5 0.5l0.5 0.5h9h8h6.5h9t9 -0.5t5.5 -0.5q2 0 2 -1v-2q0 -3 -3 -3h-2h-1q-2 0 -8 0.5t-13 1t-13 1t-9 0.5l-0.5 0.5t-0.5 1.5v0zM57 32v8.5t1 8.5q1 3 4.5 5t7.5 3.5t7 1.5h3v16h3.5t2.5 -2
l3 -14q8 -2 12 -4t6.5 -5t3.5 -8t1 -14q0 -3 -0.5 -4t-3.5 -1h-1h-2q0 6 -0.5 10.5t-2 8.5t-4.5 6t-9 2v-33q0 -1 -1 -1h-2q-2 0 -3.5 0.5t-1.5 2.5v30q-2 0 -5 0.5t-5 0.5t-4 -1.5t-3 -5.5v-3.5t-0.5 -5.5t-0.5 -5.5v-3.5t-0.5 -1.5t-1.5 -0.5t-2.5 1t-1.5 2v6zM140 33v3
t0.5 4t0.5 4v2q0 8 3.5 11t7.5 3.5t7 0.5t3 1v11q0 1 1.5 1.5l1.5 0.5q2 0 2.5 -2t0.5 -4v-4.5t2 -3.5q2 -2 5 -2t6 -0.5t6 -2t4 -4.5q2 -5 3.5 -11.5t1.5 -11.5q0 -3 -0.5 -4.5t-3.5 -1.5t-3.5 4.5t-1.5 10t-3 10t-7 4.5q-3 0 -4.5 -1t-2.5 -3t-0.5 -4.5t0.5 -5.5v-3v-2.5
t0.5 -6t0.5 -6v-3.5v-1q0 -1 -1.5 -3t-3.5 -2l-0.5 0.5t-0.5 1.5l-0.5 1t-0.5 2v36q0 1 -2.5 2t-4.5 1l-2 -0.5l-4 -1t-3.5 -2t-1.5 -2.5v-21l-1 -1.5l-1 -1.5l-0.5 -0.5l-1.5 -1.5l-1 2l-0.5 3t-0.5 5z" />
</svg>
