<?xml version="1.0" standalone="no"?>
<!DOCTYPE svg PUBLIC "-//W3C//DTD SVG 1.1//EN" "http://www.w3.org/Graphics/SVG/1.1/DTD/svg11.dtd" >
<svg xmlns="http://www.w3.org/2000/svg" xmlns:xlink="http://www.w3.org/1999/xlink" version="1.1" viewBox="-10 0 266 256">
   <path fill="currentColor"
d="M96 212q4 0 7 3t5.5 6.5t4.5 8t5 6.5q2 1 4.5 2.5t4.5 3.5l1 1.5t2.5 3l2.5 2.5t1 2h2h1q1 0 2.5 -0.5t1.5 -2.5v0q-1 -2 -3.5 -4t-2.5 -5t2.5 -7t5.5 -7l6 -6t6 -4h4q6 0 10.5 2.5t8.5 6.5q1 1 4 3.5t6.5 5.5t6 5.5t4.5 3.5l1 0.5l1 0.5h1q2 0 4 -1t2 -3t-0.5 -2
t-1.5 -1t-3.5 -2.5t-5.5 -4t-5.5 -4.5t-3.5 -3q-3 -2 -6 -4.5l-6 -5t-6.5 -4t-7.5 -1.5q-7 0 -12 4t-9 8.5t-7 8.5t-6 4h-1t-2 -1q-3 -3 -6 -7.5t-6 -8.5t-6.5 -7.5t-8.5 -3.5q-3 0 -6.5 3t-7.5 7l-7.5 7.5l-5.5 5.5q-1 0 -3 2t-4.5 4t-4.5 3.5t-3 2.5t-1 3v3q5 0 10.5 -4
t11 -9t10 -11t7.5 -9h2zM115 124v37q0 2 -4 3.5t-10 2.5t-12.5 2t-12.5 2t-10 2.5t-4 4.5v12q0 1 1.5 2t3.5 2t4 1.5t3 0.5q10 0 22 -1.5l20 -2.5l2.5 -1l2.5 -1q0 -1 -0.5 -2t-1.5 -1h-5q-8 0 -15.5 0.5t-14.5 0.5h-5h-3l-3 -1v-8q0 -1 6 -2t14 -2.5t15.5 -3.5t10.5 -7
q2 -3 3 -7t1.5 -8t0.5 -8v-8q0 -9 -3.5 -13.5t-12.5 -4.5h-11q-8 0 -16.5 0.5t-15.5 2t-9 3.5l3 3h2h4q9 0 18 -1t19 -1h6h4zM161 176q3 0 6.5 2l7 4t7 5t5.5 4h4h4t2 -3v-2t-1 -1l-24 -12q-1 0 -1 -1.5v-2.5q0 -3 2 -4.5l4 -3l4 -3t2 -4.5q-4 0 -6.5 1.5t-4.5 3.5t-4.5 3.5
t-6.5 1.5q-2 0 -4.5 -1.5t-4.5 -3t-4.5 -3t-4.5 -1.5h-3q1 3 3 4.5t4.5 3t4 3.5t1.5 4q0 3 -2.5 4.5t-6 3.5l-7 4t-5.5 5q0 2 2 2.5t3 0.5q3 0 5.5 -2t5.5 -4l6 -4t5 -4h0.5h1.5zM59 154v1l2 2h10h8h6t7 -0.5t8 -1.5q3 -2 4 -4.5t1 -6.5v-5q-3 -3 -5 -4t-6 -1h-7.5
t-11.5 0.5t-10 1.5t-4 3t1 2.5t3 0.5q6 0 13 -1t14 -1q1 0 3.5 1.5t3.5 3.5q0 1 -1 2.5t-2.5 2l-3 1t-2.5 0.5h-5.5t-9 0.5t-9 0.5h-5.5l-0.5 0.5l-1.5 1.5v0zM132 146q0 2 1 2.5t2 0.5q3 0 6 -2t5.5 -4.5t5.5 -4.5t7 -2q6 0 11.5 4t10.5 8h2h2h4t2 -2q0 -3 -3.5 -5t-8 -3.5
t-8 -4t-3.5 -5.5v-2q2 -2 5.5 -3.5t6 -3.5t4.5 -4t2 -6h-3q-2 1 -4.5 3t-5.5 4.5t-6 4.5t-4 3l-1 1l-1 1q-4 0 -6 -2.5t-4.5 -5t-5 -4.5t-6.5 -2h-1l-0.5 0.5t-0.5 1.5q0 2 2 4t4.5 3t4.5 3t2 5q0 4 -2.5 6.5t-6 4t-6.5 3t-3 3.5zM77 77q3 0 3.5 4.5t1.5 10t3.5 10t8.5 4.5
h7t8 -1.5t7 -4t3 -6.5v-21q-3 0 -4 1t-1.5 2t-1 2.5t-3.5 2.5t-7 1h-8t-5.5 -1.5t-1.5 -5.5q0 -3 6.5 -6t14 -5.5t14.5 -4t8 -1.5q10 0 21.5 1.5t20.5 6.5q7 3 13.5 7.5t14.5 4.5q2 0 4 -1t2 -3v-1q-1 0 -2.5 -2t-2.5 -2q0 -1 -2.5 -1.5l-5 -1l-5 -1t-3.5 -1.5l-2.5 -1
l-5 -2l-5 -2t-3.5 -1q-8 -2 -16.5 -3t-16.5 -4q-2 -1 -3 -2.5t-1.5 -3t-1 -2.5t-2.5 -1t-2.5 1t0 3t0.5 4t-2 2q0 1 -1.5 1t-3 0.5l-3 1l-1.5 0.5q-1 0 -3 1.5t-2.5 2t-3 1l-5 1t-4.5 1t-3 1.5l-2.5 1.5t-5.5 3t-5.5 3t-3.5 1.5q-2 1 -6 1.5t-8.5 1.5t-7.5 2.5t-3 4.5t4 3
q3 0 5.5 -1t5 -2.5l5 -3t5.5 -1.5zM142 73h-0.5h-0.5q0 1 -0.5 1t-0.5 1v22q0 1 1 2.5l2 3t2.5 2.5t3.5 1h25q2 0 3 -3.5t1.5 -8t0.5 -8v-4.5q0 -2 -0.5 -3.5t-2.5 -1.5t-3 1.5t-2 3.5h-22q-1 -1 -2.5 -4t-2.5 -3q0 -1 -0.5 -1.5l-0.5 -0.5h-0.5h-0.5zM90 93v-2v-2
q1 0 2.5 -0.5t4 -1.5t4 -1.5t2.5 -0.5q9 -1 9 6q0 5 -3.5 7t-8.5 2q-3 0 -6.5 -2t-3.5 -5zM146 94q0 -6 5 -6h4h3.5t5 0.5t5 0.5h3.5v4v1.5t-0.5 2.5l-1 2t-1.5 1h-19q-3 0 -3.5 -2.5t-0.5 -3.5zM91 43v12h6v-12h17q1 0 1.5 -4t1.5 -8.5t1 -8v-3.5q0 -2 -0.5 -3t-1.5 -1
q-3 0 -3.5 3.5t-0.5 7t-2 7t-8 3.5q-2 0 -3.5 -0.5t-1.5 -2.5v-24q0 -1 -2 -1.5l-2 -0.5q-2 0 -2.5 1t-0.5 4v22l-1 0.5t-2 1.5v0q-6 0 -7.5 -3.5t-2.5 -7.5t-2 -7t-4 -3t-3 4q0 6 1.5 11t4.5 10q0 1 0.5 2t1.5 1h15zM140 18q0 8 1.5 15t10.5 9l2.5 0.5t3.5 0.5q1 2 1 3v2
v1.5t2 0.5q3 0 4 -2t0 -5h7t7 -0.5t5 -2.5t3 -6l0.5 -2t0.5 -4.5t0.5 -5t1.5 -4.5v-1v-1q-1 0 -2 -1t-1 -2h-1h-1q0 1 -0.5 1.5l-0.5 0.5q0 3 -0.5 7t-2.5 7.5t-4.5 5.5t-6.5 2h-1q-1 0 -2 -0.5l-1 -0.5v-25l-1 -1.5t-2 -1.5q0 -1 -0.5 -1.5l-0.5 -0.5l-0.5 2t-0.5 3
q-1 1 -1.5 4.5t-1 7.5t-0.5 7.5v5.5h-3q-4 0 -6 -2t-3 -5.5t-0.5 -7t0.5 -6.5l-3 -3q-3 2 -3 6z" />
</svg>
