<?xml version="1.0" standalone="no"?>
<!DOCTYPE svg PUBLIC "-//W3C//DTD SVG 1.1//EN" "http://www.w3.org/Graphics/SVG/1.1/DTD/svg11.dtd" >
<svg xmlns="http://www.w3.org/2000/svg" xmlns:xlink="http://www.w3.org/1999/xlink" version="1.1" viewBox="-10 0 266 256">
   <path fill="currentColor"
d="M148 187q-3 2 -7.5 3.5t-8.5 4.5t-7 6.5t-3 8.5v41q3 0 5 -2t2 -5v-7.5v-9.5t0.5 -9.5t1.5 -7.5q1 -6 5.5 -9t9.5 -5.5t9 -6t4 -9.5q0 -4 -3.5 -6t-8 -3.5t-8 -3.5t-3.5 -6t2 -6t4.5 -3.5l5 -3t4.5 -5.5q2 -3 2.5 -8t0.5 -10v-11v-9v-4v-5v-4.5v-3.5q0 -4 -3 -4h-0.5
h-1.5v2.5t-0.5 3t-1.5 3t-2 1.5q-2 0 -4.5 -1t-5 -3t-4.5 -4t-2 -4q0 -4 2 -5.5t5 -2.5t6 -1h6v-5h-11q-8 0 -16 1t-14 3t-8 6v15q0 6 -0.5 15t0.5 17.5t3.5 16t8.5 11.5v1.5v0.5q0 6 -4.5 10.5t-10.5 8.5t-10.5 6.5t-4.5 4.5t1.5 2h2.5q8 0 13.5 -5t9.5 -11t8 -11t9 -5
q3 0 4 1t1 3v4t1 3q1 2 4 4l6 4t5 4t2 4v3t-1 2zM58 125v31q0 2 1.5 3t4 1.5t5.5 0.5h3q5 0 8.5 -2t5.5 -5t2.5 -7t0.5 -9v-3.5v-4.5t-1 -3.5t-2 -1.5q-2 0 -2.5 1.5t-0.5 3t-0.5 2.5t-2.5 1h-2h-3t-4.5 -0.5t-4.5 -0.5h-3q0 -1 -1.5 -4t-3.5 -3zM75 139h6q1 0 1 1v2v2v1
q0 4 -2 7t-6 3q-2 0 -4.5 -1t-4.5 -2l-1 -0.5l-1 -0.5v-10q0 -1 2 -1.5t4 -0.5h4h2zM167 120v12t1.5 10.5t5 7.5t11.5 3q4 0 6.5 -0.5t4.5 -3.5q0 -1 0.5 -3t1 -4.5l1 -5t0.5 -3.5v-1v-3t-0.5 -4t-1.5 -4t-3 -2h-1q0 1 -1 4.5t-2 4.5l-0.5 0.5l-0.5 0.5h-14q-1 0 -1.5 -1
t-1 -3t-1.5 -3.5t-4 -1.5zM108 141q0 -3 2.5 -4t4.5 -2q1 0 5 -0.5t9 -0.5t9 -0.5t5 -0.5h2q2 0 2.5 1.5t0.5 2.5q0 4 -2.5 6t-5.5 3t-7 1.5t-6 0.5h-1q-1 0 -3 -0.5t-4.5 -1t-4.5 -1l-2 -0.5q-1 -1 -2.5 -2t-1.5 -2zM173 140q0 -2 1.5 -3t3 -1.5t4.5 -0.5h4t4 1.5t2 4.5
q0 1 -1 3t-2 2h-12q-2 0 -3 -2t-1 -4zM106 115h44v2v4t-0.5 4t-1.5 3h-7.5t-11.5 0.5t-11 0.5h-8h-1h-2t-1 -1v-13zM59 71q0 5 -0.5 11.5t0.5 12t4 9.5t11 4t12.5 -4.5t4.5 -12.5v-3.5v-3.5t-0.5 -3t-0.5 -4t-0.5 -3l-0.5 -1h-4q0 1 -0.5 3.5t-1.5 3.5l-1 3h-17v-4t-0.5 -4
t-2 -3t-3.5 -1zM105 105q-1 -1 2 -3.5t7 -4.5t7.5 -4t4.5 -2q3 0 7 1.5t8 4t6.5 5.5t2.5 6h-42q-1 0 -2 -1t-1 -2zM170 77v22q0 1 1 2l2 2t2.5 1.5l1.5 0.5h18q1 0 3 -2t2 -4v-23q0 -3 -2 -3h-1.5h-0.5q0 7 -3 8.5t-9 1.5h-3h-4l-2 -4t-3 -3zM66 95v-3t2 -2h13q1 0 1.5 2
t0.5 3q0 4 -2.5 5t-5.5 1q-4 0 -6.5 -1t-2.5 -5zM176 93v-2q0 -3 1 -3h16q2 0 2 3v2q0 5 -3 6t-8 1q-1 0 -3.5 -0.5t-3.5 -0.5q-1 -1 -1 -2.5v-3.5zM116 74q9 0 9 9q0 3 -2 5t-5 3t-6 1.5t-6 0.5v-13q0 -2 1.5 -3t3 -1.5l3 -1t2.5 -0.5zM72 25v1q0 1 1 3t1.5 4t1 3.5
t0.5 2.5q2 2 5.5 3.5t7 2.5t6.5 2t3 2v17h1v0q1 -1 2 -1.5l1 -0.5l3 -17q0 -2 3 -2.5t6.5 -2t6.5 -5.5t3 -12v-4t-3 -2t-3.5 3t-1.5 6.5t-3 6.5t-6 3q-2 0 -3 -0.5t-1 -2.5v-22q0 -2 -0.5 -2.5t-2.5 -0.5t-4 3v5q0 4 1 8t1 8q0 3 -1.5 3h-4.5q-6 0 -8 -2t-2.5 -5t-1.5 -5.5
t-3 -2.5q-3 0 -4 0.5t-1 2.5zM137 25q0 3 1.5 6.5t4 7t5 6.5t5.5 4q6 2 8 4.5t2 4.5t-0.5 3.5t1.5 1.5h1q1 -1 1.5 -2.5t0.5 -3v-2.5v-2q2 -4 6 -5t7.5 -2.5t6 -5t2.5 -13.5v-3v-2q0 -1 -1.5 -1.5t-2.5 -0.5l-0.5 0.5t-1.5 0.5v6.5t-1 6.5t-3 5t-6 2q-1 0 -3 -0.5t-2 -3.5
v-25q0 -1 -1.5 -1.5l-1.5 -0.5q-1 0 -2 0.5t-1 1.5v30q0 1 -2 1h-2q-6 0 -8.5 -3.5t-3 -7l-1 -7t-4.5 -3.5q-1 0 -2.5 0.5t-1.5 2.5z" />
</svg>
