<?xml version="1.0" standalone="no"?>
<!DOCTYPE svg PUBLIC "-//W3C//DTD SVG 1.1//EN" "http://www.w3.org/Graphics/SVG/1.1/DTD/svg11.dtd" >
<svg xmlns="http://www.w3.org/2000/svg" xmlns:xlink="http://www.w3.org/1999/xlink" version="1.1" viewBox="-10 0 266 256">
   <path fill="currentColor"
d="M109 248q0 2 2 2.5t3 0.5q2 0 4.5 -2t4.5 -4.5t3.5 -4.5t2.5 -3q2 -5 2 -11q0 -5 0.5 -9.5t3 -7.5t10.5 -3h3t2 1q0 1 0.5 4t0.5 4q0 6 -2.5 12t-2.5 11q0 2 1 3t3 1q4 0 6 -3t3 -7q1 -2 2 -7t2 -10.5t1.5 -10.5t1.5 -7v-3v-4v-3.5v-4.5t-1 -4t-3 -2l-2.5 0.5t-3.5 1.5
l-3 17l-3 3h-14v-21q0 -5 -6 -6.5t-14 -2.5t-14.5 -0.5t-7.5 0.5h-4.5t-2.5 3v1t2 2q3 1 8 1t9.5 0.5t9 0t7.5 -0.5q2 0 3 1.5t1.5 3.5t0 4t-0.5 3v4.5v3.5q-2 3 -5.5 3h-6.5q-1 0 -3.5 0.5t-5 0t-4 -1t-1.5 -2.5v-2v-1l1 -2t1 -3t-1.5 -2.5t-3.5 -1.5q-3 0 -4 1.5t-1.5 3.5
t-0.5 4v3t-1 3.5t-1.5 4.5t-1.5 4.5t-1 3.5q-2 5 -5 10t-3 11q0 1 0.5 2t2.5 1q5 0 6.5 -2t2.5 -5t1.5 -6.5t3 -6.5t7.5 -5.5t13 -2.5h7l1 4q-1 1 -3.5 6.5t-5.5 11.5t-5 11.5t-1 7.5zM86 65q0 5 -2.5 6.5t-6 2.5t-8 1t-8 1.5t-6 5t-2.5 10.5v150q0 2 2 2.5t4 0.5t4.5 -2.5
t2.5 -5.5l-1 -54v-6l-1 -33l3 -1l2.5 -0.5t5.5 -0.5t6.5 -0.5t5.5 -0.5h1h1q2 0 3 1.5t1.5 3t0.5 3.5t1 3q1 2 3 3.5t4.5 2.5t5 1.5t4.5 1.5h16h16h2.5t3.5 -0.5t3.5 -0.5h1.5q5 -2 5.5 -5.5l1 -7t4 -6.5t14.5 -4q0 -1 0.5 -2t0.5 -2l-0.5 -0.5l-0.5 -0.5l-17 -3q-2 0 -2 -3
t-1.5 -6.5t-6.5 -6.5t-16 -3q-3 0 -9 0.5l-12 1t-11 1.5t-7 2t-2.5 3.5t-1.5 5.5t-1.5 5t-2.5 3q-5 2 -11 2.5t-12 2.5h-1q-2 0 -2 -2v-3v-3.5t2 -4.5v-34q0 -2 2 -4t5 -3t6 -1.5t4 -0.5h1q2 1 2.5 3t1.5 3.5t1.5 3.5t2.5 3q6 2 11 2q7 0 12 2q6 1 11 1t9 0.5t9 0.5h9h5
q3 0 5 -0.5t4.5 -0.5t6.5 -1v-1v-2q0 -4 -2.5 -4.5t-5.5 -0.5q-2 0 -3.5 0.5t-3.5 1.5h-9h-6.5h-10.5t-12 -0.5t-11.5 -1.5t-8.5 -2.5t-3 -3.5t2.5 -3.5t3.5 -1.5h23h5h5t8.5 -0.5t8.5 -0.5h5h3t4.5 -0.5t5 -1.5t2.5 -3v-1q-1 0 -1.5 -1l-0.5 -1h-74q-3 0 -3 -2.5v-3.5
t-0.5 -3.5t2.5 -2.5q12 -2 24 -2h25h29q3 2 5 5t3 6q3 31 3.5 62.5t0.5 62.5v2q2 12 3 23.5t0 24.5q1 1 2 1h2q3 0 6.5 -2t3.5 -5v-1q-1 -8 -1.5 -16t-2.5 -16l-8 -140q0 -5 -2.5 -8t-6 -4t-8 -1.5t-8.5 -0.5h-69l-3 -3v-4v-4v-3v-4v-3.5v-1.5q0 -3 1 -4t2.5 -2t3 -1.5
t4.5 -2.5l1 -1l13 1l0.5 1.5t0.5 2.5t0.5 3t1 5t1 5t0.5 3l5 2h2h4h5h4h19.5t19.5 -2l1 -1l2 -2v0v-1q-1 -2 -2 -3.5t-4 -1.5q-8 0 -16 1t-16 1h-5t-6 -0.5t-5 -2t-2 -5.5q0 -3 2 -4t4.5 -1.5t5.5 -0.5h4l2.5 -0.5t5 -0.5t5 -0.5l2.5 -0.5h4h7h6.5h4.5q2 1 2.5 -0.5
t0.5 -2.5v-3.5t-2 -2.5h-4h-5l-2.5 0.5t-4.5 0.5t-4 0.5t-3 0.5q-2 0 -10 0.5t-17.5 1t-17.5 1t-10 0.5q-5 0 -10 1.5t-7 5.5q0 1 -0.5 2.5t-1 3.5l-1 4t-0.5 3t-0.5 3.5t-1 5.5t-0.5 5.5v3.5h-2.5h-2.5q-6 0 -9 -2.5t-4 -7t-0.5 -9.5t0 -9.5t-2 -7t-5.5 -2.5q-2 0 -4 0.5
t-2 3.5q0 4 1 7.5t2 6.5q1 8 1.5 14t3 10t7.5 5.5t15 1.5q2 1 3 3t1 4zM102 147v-1.5t1 -1.5q3 -3 6 -3.5t7 -0.5h4t3 3v11q0 1 -2.5 1h-3.5t-3.5 -0.5t-5 -1.5t-4.5 -2.5t-2 -3.5zM133 147q0 -3 1.5 -4.5t3.5 -2.5t4 -1.5t4 -0.5q4 0 5 0.5t1 4.5q0 1 -0.5 2.5l-1 3
t-1.5 2.5t-2 1h-11q-2 0 -2.5 -2t-0.5 -3zM99 128q0 -3 2.5 -5t6 -3t7 -1.5t5.5 -0.5q1 0 2 0.5t2 1.5v4v5q0 1 -0.5 2l-0.5 1h-22q-1 0 -1.5 -1.5t-0.5 -2.5zM132 128q0 -2 0.5 -5t3.5 -3h13q1 0 2 2.5t1 3.5v2t-2 2q-3 1 -5.5 1.5t-5.5 0.5t-5 -0.5t-2 -3.5z" />
</svg>
