<?xml version="1.0" standalone="no"?>
<!DOCTYPE svg PUBLIC "-//W3C//DTD SVG 1.1//EN" "http://www.w3.org/Graphics/SVG/1.1/DTD/svg11.dtd" >
<svg xmlns="http://www.w3.org/2000/svg" xmlns:xlink="http://www.w3.org/1999/xlink" version="1.1" viewBox="-10 0 266 256">
   <path fill="currentColor"
d="M71 247q0 3 1 3.5t3 0.5q9 0 16.5 -6.5t14 -15t12.5 -17.5t13 -15q2 2 4 5.5t3.5 7.5l3 8t3.5 6q3 6 8 10.5t10 8.5q0 1 2 3.5l2 2.5q1 0 3 0.5t3 0.5t3 -0.5l2 -0.5q2 -2 2 -4t-0.5 -2t-2.5 -1q-4 -3 -7 -5t-5.5 -4.5t-5.5 -5t-7 -6.5t-5.5 -9.5t-3.5 -9.5t-4 -8.5
t-2 -9.5q0 -2 1.5 -6t5.5 -4h1q8 3 16 7.5t16 8.5l3.5 3.5t5.5 5t5.5 4.5t4.5 2q1 0 2 -1t2 -2.5t1 -3v-2.5q0 -2 -3 -4.5t-7.5 -5t-10 -5l-11 -5t-9.5 -4t-6 -1.5q-5 -1 -7.5 -3.5t-4.5 -5t-3.5 -5t-4.5 -2.5q-4 -1 -9 -1.5t-9.5 -1t-9 -2t-6.5 -4.5t-3 -6.5t-1.5 -7.5
t-0.5 -7.5v-5.5l-1 -1l-2 -2h-1q-2 0 -2.5 2.5l-1 5t-0.5 5v3.5v5t0.5 5.5l1 5t2.5 4.5q3 3 9.5 4l13 2t11 1.5t4.5 3.5q0 2 -5.5 4t-13.5 4.5t-18 5t-18 5t-13.5 5t-5.5 5.5q0 2 2 2.5t4 0.5q8 0 16.5 -3t17.5 -7t17.5 -8t16.5 -6l0.5 2l0.5 2q0 3 -3 7.5l-7 10.5
t-8.5 12.5t-9.5 12.5t-8.5 10.5t-5.5 5.5q-2 2 -5 3t-5.5 2.5t-4.5 3t-2 4.5zM114 140q1 2 3.5 3.5t5.5 2.5h3h4h4h3h13.5t9 -1.5t5 -5t1.5 -12.5v-2.5t-0.5 -5t-1 -4.5t-2.5 -2q-1 0 -2 1t-1 2t-0.5 2t-1.5 1q-5 2 -9.5 2h-9.5h-12q-2 -1 -3.5 -2t-3 -2.5t-3.5 -2t-4 -0.5
v1.5v2.5t0.5 4t0.5 6.5t0.5 7t0.5 4.5zM189 141v0q0 1 1.5 2l1.5 1h1h1l2.5 -2.5l3.5 -3.5v-4.5t0.5 -7t0.5 -7v-4.5v-1.5v-2.5q0 -12 -0.5 -23t-3.5 -22q-3 -4 -9.5 -6t-15 -3t-19 -1h-19.5h-18h-13q-1 0 -2 -0.5t-1 -1.5v-1.5v-1.5q0 -6 1 -11.5t2 -12.5q2 -2 4.5 -3
t4.5 -1q3 0 6.5 0.5t6.5 0.5v17l1 0.5l1 0.5q2 1 5 2l3 1h60q2 0 2 -1.5v-1.5q0 -3 -2 -4.5t-5 -1.5q-7 0 -13.5 1t-13.5 1h-3h-3h-3.5h-1.5q-2 0 -5 -0.5t-6 -0.5t-5 -0.5l-2 -0.5l-2 -1v-10q0 -1 0.5 -1.5t1.5 -0.5l2 -0.5l2 -0.5h60q1 0 1.5 -2.5t0.5 -3.5v-2t-2 -1h-37
h-36h-7.5t-8.5 0.5t-7.5 2.5t-6.5 4v2.5t-0.5 3.5t-0.5 3.5v2.5l-1 1.5l-1 1.5q0 2 0.5 5.5t0 6.5t-1.5 5t-5 2q-3 0 -5.5 -1.5t-2.5 -5.5v-28q0 -1 -1 -3t-2 -3l-0.5 -0.5t-0.5 -1.5h-1q-2 0 -3.5 2t-1.5 4v5v3v2v5.5t0.5 7t0.5 7v4.5q2 5 4.5 7t5 2.5t5.5 1t7 3.5v1.5v2.5
q0 6 -3 7.5t-7 2.5t-8.5 3t-6.5 8q0 1 -0.5 5l-1 8l-1 8t-0.5 5v11v10q0 1 1.5 2l1.5 1h1q4 0 5.5 -4t1.5 -10v-13t1 -13t3 -10t8 -4q4 0 5 2.5l2 5t3.5 5.5t11.5 4l2 0.5t4.5 1t4.5 1l2 0.5q2 0 8 0.5t12.5 0.5h12.5h9h2h5.5t4.5 -1.5t2 -3.5q0 -1 -2.5 -3t-4.5 -2l-1 0.5
t-2.5 0.5t-2.5 0.5l-1 0.5h-12q-12 0 -24 -1t-24 -3q-1 -1 -1.5 -2.5t-0.5 -3.5q0 -1 0.5 -3t4.5 -1h8t12 -0.5t12 -0.5h8h0.5h1.5q6 0 13.5 1t13.5 2l2 -2l1 -1v-1q0 -3 -1.5 -4t-3.5 -1.5t-4.5 0t-3.5 0.5q-4 0 -13 -0.5t-19 -0.5t-19 -0.5t-13 -0.5q-2 -1 -2.5 -4
t-0.5 -5q0 -1 0.5 -2t2.5 0q2 0 5.5 -0.5t6.5 -0.5h7h5h15q6 0 12.5 0.5t13.5 1t15 1.5q5 2 7 5t3 7t1 8v8q0 12 -1.5 23t-1.5 23zM119 126q8 0 17 0.5t18 1.5q2 1 2.5 2t0.5 2q0 3 -2 5.5t-4 2.5h-25q-3 0 -4 -1.5t-1.5 -4t-1 -4.5t-0.5 -4z" />
</svg>
