<?xml version="1.0" standalone="no"?>
<!DOCTYPE svg PUBLIC "-//W3C//DTD SVG 1.1//EN" "http://www.w3.org/Graphics/SVG/1.1/DTD/svg11.dtd" >
<svg xmlns="http://www.w3.org/2000/svg" xmlns:xlink="http://www.w3.org/1999/xlink" version="1.1" viewBox="-10 0 266 256">
   <path fill="currentColor"
d="M153 104q4 1 9.5 2.5t11 3.5t9 6t3.5 10v24q0 5 -3 8.5t-7 6.5t-9 5.5t-9.5 5t-7.5 5t-3 5.5v27q0 4 3 9.5t6.5 11t8 10l7.5 7.5h3q2 0 3.5 -0.5t1.5 -3.5v-1v-1q-5 -4 -9.5 -9.5t-8 -11.5t-6 -12.5t-2.5 -13.5v-4v-3q2 -6 5.5 -8.5t8 -4t9.5 -3t9 -6t6.5 -11.5t2.5 -21
q0 -6 -0.5 -11t-2 -9t-5 -7t-10.5 -6q-4 -2 -9 -3t-10 -1h-5l-1 1v1v1l0.5 0.5zM65 172q0 6 4.5 8t9.5 2q7 0 10.5 -3t6 -7.5t4 -9.5t3.5 -10q1 -3 2 -4.5t2.5 -3t2 -3.5t0.5 -4q-6 0 -9 5.5t-5.5 12.5t-6 12.5t-8.5 5.5q-3 0 -5 -2t-2 -5q0 -4 3 -7.5t6.5 -7t7 -6.5t5.5 -6
q0 -1 0.5 -3t1.5 -4.5t1.5 -5t0.5 -3.5q1 -6 -3.5 -10.5t-9.5 -4.5q-4 0 -5.5 2.5t-2.5 5.5t-2 5t-4 2q-2 0 -3.5 -1t-1.5 -3q0 -7 2 -12t6 -8.5t9 -6l11 -5.5h1h1q4 0 8.5 3t7.5 6q1 1 1 3v2t0.5 2.5t3.5 2.5v2v3q0 4 -1 7.5t-6 3.5q-2 0 -3 -1.5t-2 -3.5q0 -1 -0.5 -3.5
t-0.5 -5v-5v-3.5h-1q-2 0 -3 2t-1 4v4.5v4.5q0 6 2 10.5t11 4.5q4 0 6.5 -2t4 -5.5t2 -7t0.5 -6.5q0 -9 -2 -13t-6 -6t-8.5 -4t-9.5 -8q0 -7 -0.5 -11.5t-2.5 -7.5t-5 -6t-7 -9l-1 -1t-1 -2q-3 -7 -3 -12v-15q0 -1 -1 -1.5t-2 -0.5t-2.5 0.5t-1.5 1.5t-0.5 3.5t-0.5 5v5v3.5
v2q0 5 3 10.5t7 10.5t7 10.5t3 11.5q0 5 -5 7.5t-11 6t-11 9t-5 15.5q0 3 0.5 6t1.5 6t3.5 4.5t5.5 1.5q7 0 10.5 -4.5t3.5 -11.5h1q2 0 3 1t1 3v4v3q0 6 -4 11t-9 10t-9 10.5t-4 13.5zM137 114q0 7 2 13t8 10q2 2 5.5 3.5l7 3t7.5 2.5t7 1q2 0 2 -1v-2v-2t-1 -2
q-8 -2 -13.5 -4t-9.5 -5t-6 -8t-2 -13q0 -4 0.5 -9t2 -9.5t4.5 -7.5t8 -4q1 0 4.5 -1t7 -1.5t6.5 -1t5 -0.5t3 -1.5t1.5 -3.5l1 -4t1.5 -3v-17q0 -2 -1.5 -3.5t-4 -3t-4.5 -2.5t-3 -1t-4.5 -1.5t-8 -3t-8.5 -2.5t-5 -2q-4 -1 -5.5 -4.5t-2.5 -7.5t-2.5 -7t-5.5 -3t-4 4
q0 3 1 7t3 8t5 7t5 3l26 8q4 1 7 4.5t3 7.5q0 3 -1.5 7.5t-3.5 5.5q-11 4 -18 7t-11.5 8t-6.5 12t-2 19z" />
</svg>
