<?xml version="1.0" standalone="no"?>
<!DOCTYPE svg PUBLIC "-//W3C//DTD SVG 1.1//EN" "http://www.w3.org/Graphics/SVG/1.1/DTD/svg11.dtd" >
<svg xmlns="http://www.w3.org/2000/svg" xmlns:xlink="http://www.w3.org/1999/xlink" version="1.1" viewBox="-10 0 266 256">
   <path fill="currentColor"
d="M170 190q0 2 2 7t5.5 11.5t7.5 14t8 13.5t7.5 9.5t5.5 3.5t4 -1.5t2 -3.5l-0.5 -1l-0.5 -1q-3 -6 -8.5 -12.5t-10.5 -14.5t-8.5 -16t-3.5 -16t3.5 -15.5t7.5 -14.5t7 -14.5t3 -15.5q0 -9 -4 -12.5t-9 -6l-9 -4.5t-4 -8q0 -2 1 -4.5t3 -4.5h8.5t13.5 -0.5t12.5 -1.5
t5.5 -3q0 -1 -0.5 -2t-1.5 -1q-2 -1 -6.5 -1t-10 -0.5t-10 -0.5h-6.5q-3 0 -10.5 0.5t-16 1t-16 1t-10.5 0.5q-2 1 -3 2.5t-1 3.5t1.5 2.5t3.5 0.5q8 0 16 -1.5t16 -1.5q2 0 3 1.5t1 3.5q0 4 -2 7.5t-5.5 6.5t-7 5.5t-5.5 5.5q-5 6 -7.5 14t-3.5 16t-1.5 16.5t-3.5 15.5v5
v5.5v6.5v4q0 12 1 24.5t1 25.5q7 0 8.5 -2.5t1.5 -10.5q0 -12 -1.5 -24.5t-1.5 -24.5q0 -8 0.5 -16.5t1.5 -17t3.5 -17t6.5 -15.5q5 -3 10.5 -5t11.5 -2q7 0 11.5 3t4.5 12t-3 16t-7 14t-7.5 15.5t-3.5 19.5zM49 190q0 3 1.5 7t4 6.5t6 4.5t6.5 2l2 -0.5t3 -1.5
q9 -4 12.5 -8.5t5 -9t2.5 -9.5t6 -10q0 -1 2 -3l4.5 -4.5l4.5 -4.5t3 -2l1 -4h-3q-7 0 -10.5 3.5t-6 8.5t-4.5 10.5t-4.5 10.5t-5.5 8.5t-9 3.5q-3 0 -5 -1.5t-3 -4t-1 -5v-4.5q0 -9 4.5 -14.5t10.5 -10.5t10.5 -10.5t4.5 -14.5q0 -4 -0.5 -8t-2 -7.5t-4.5 -5.5t-8 -2
t-7.5 3.5t-4.5 7.5t-4.5 7.5t-7.5 3.5h-2h-2q-2 -2 -2 -6v-6q0 -10 2.5 -17t7 -11t9.5 -6.5t9.5 -4.5t7 -4.5t2.5 -6.5q0 -7 -3 -15t-7 -14q-3 -4 -7.5 -7.5t-5.5 -8.5q0 -2 0.5 -4.5t0 -5t-1.5 -4.5t-4 -2q-2 0 -4 3t-2 6q0 6 2 11t4.5 8.5t6 6.5t6.5 6t5 7.5t2 9.5
q0 3 -4.5 6t-10 6t-10.5 6t-7 5q-2 4 -3.5 7.5t-2.5 8t-1 9v8.5t0.5 7.5t2.5 7t5 5t7 1.5q6 0 9 -4t5 -8.5t4 -8.5t6 -4q3 0 4.5 2t2.5 4.5t1 5v4.5q0 4 -2.5 8t-6.5 7.5t-8.5 7.5t-8 9t-6.5 10.5t-3 12.5zM94 100q0 6 1.5 12t4 11t7 8.5t11.5 3.5q2 0 4 -1t4 -3t3.5 -4
t1.5 -4q0 -5 -3.5 -13.5t-9 -17t-12 -14t-13.5 -5.5h-2.5t-1.5 2q0 3 5 6.5t11.5 8.5t11.5 11.5t5 14.5q0 2 -1.5 5.5t-4.5 3.5q-7 0 -9.5 -4.5t-3.5 -10t-1.5 -10t-3.5 -4.5t-3.5 1t-0.5 3zM134 36q0 2 1 3t2.5 1.5t3 0.5h3.5h7h12t15 -0.5t15 -1.5t11 -2.5t4 -3.5
t-1.5 -2.5t-3.5 -0.5q-16 0 -32 1t-32 1q-3 -1 -4 0.5t-1 3.5z" />
</svg>
