<?xml version="1.0" standalone="no"?>
<!DOCTYPE svg PUBLIC "-//W3C//DTD SVG 1.1//EN" "http://www.w3.org/Graphics/SVG/1.1/DTD/svg11.dtd" >
<svg xmlns="http://www.w3.org/2000/svg" xmlns:xlink="http://www.w3.org/1999/xlink" version="1.1" viewBox="-10 0 266 256">
   <path fill="currentColor"
d="M161 246q1 2 2 3.5t3 1.5h1q0 -1 1 -2t1.5 -2t1.5 -2t1 -2v0v-1q0 -21 -2 -42t-2 -41v-17q2 -1 5 -2t5 -1h4t6.5 -0.5t7 -0.5h4.5q2 -1 2.5 -2t0.5 -3t-2.5 -3t-4.5 -1h-1h-1q-4 1 -6.5 1.5l-5 1t-5.5 1t-8 0.5h-1l-1 -1t-1 -2v-25l1 -3q4 0 9 1t9.5 0.5t7.5 -3t3 -7.5
q-7 0 -13.5 1.5t-14.5 1.5q-2 0 -3 -0.5t-1 -2.5v-2l11 -20l1.5 -0.5t3.5 -0.5t4 -0.5t4 -0.5h8h2t4 -0.5t3.5 -0.5h2.5q2 -1 2.5 -2t0.5 -3t-2 -2.5t-4 -0.5q-7 0 -13 1.5t-12 1.5q-2 0 -2 -1.5v-2.5q0 -4 1.5 -8t3.5 -7.5t3.5 -7t1.5 -7.5q0 -2 -2.5 -4t-4.5 -2h-1l-1 1
t-1 2q-1 1 -1.5 4.5t-1 7.5t-1.5 7t-1 4.5t-2 6.5l-4 10t-4 9.5t-3 4.5q-3 0 -4.5 -4t-3 -10t-2.5 -13t-2.5 -13t-4 -10t-5.5 -4h-4l-0.5 1.5l-0.5 1.5h-1v1q0 1 1 3.5l2 5t2 4.5l1 2q1 2 2 5t2 5.5t1.5 4.5l0.5 2l-2 3h-2.5t-5 0.5t-5.5 1t-5 1.5h-3t-4 0.5t-4 0.5h-3v0.5
v1.5q0 2 2 3t4 1q6 1 12.5 -1t13.5 -2h3t3 2q1 5 3.5 10t4.5 11q-3 1 -6 1h-8t-7 0.5t-5 3.5q0 1 1.5 2t2.5 1h22v31l-28 4v0v1v1.5t2 1.5h26l2 2q0 13 0.5 25.5t1 25.5t1.5 25.5t0 25.5zM62 176q0 3 1.5 6t3.5 5.5t4.5 4t5.5 1.5q7 0 11 -3.5t6.5 -7.5t4.5 -9.5t5 -9.5
q2 -2 4.5 -3t4.5 -1.5t4 -2t2 -4.5t-3 -3q-6 0 -10 2.5t-6.5 6.5t-4.5 8.5t-4 8.5t-5.5 6.5t-7.5 2.5q-3 0 -4.5 -3t-1.5 -5q0 -7 4 -11.5l8 -9t7.5 -9.5t3.5 -12q0 -5 -1.5 -10t-8.5 -5q-5 0 -8.5 2.5t-5.5 5.5t-4.5 5t-5.5 2q-2 0 -3.5 -1.5t-2.5 -3.5t-1.5 -4.5
t-0.5 -4.5q0 -4 2.5 -8.5t4.5 -8.5q4 -2 7 -4.5t6.5 -5t7 -4t7.5 -1.5q6 0 11 2.5t9 6t6 8.5t2 11v4t-0.5 4t-1.5 3.5t-3 1.5q-5 0 -7 -4.5t-3 -10t-1.5 -10t-1.5 -4.5h-1l-2 2v5q0 4 0.5 9t2 9.5t4.5 8t8 3.5t7.5 -2t4 -5t2 -6.5t0.5 -7.5q0 -9 -2 -14.5t-5.5 -8.5t-7.5 -5
t-7 -3t-6 -2.5t-4 -4.5q-1 -2 -1 -4.5v-4.5t-1 -4t-2 -5q-2 -2 -5.5 -4.5t-6.5 -5.5t-5.5 -6t-2.5 -7q0 -5 1.5 -10t1.5 -10v-2v-2q-2 -2 -5 -2t-4.5 3t-2.5 7t-1.5 8t-0.5 6q0 4 1 7t2.5 5t3.5 3.5t6 3.5q3 3 5.5 7t4.5 8q1 2 1.5 2.5l1 1t0.5 1v2.5q0 4 -6 7.5t-13 8
t-12.5 11t-5.5 15.5q0 3 0.5 7.5t2 8t4 6.5t6.5 4q4 0 7 -2t5.5 -5t4.5 -6t4 -5h1h1q5 0 6 2.5t1 6.5q0 6 -4 11t-9.5 9.5t-9.5 9.5t-4 11z" />
</svg>
