<?xml version="1.0" standalone="no"?>
<!DOCTYPE svg PUBLIC "-//W3C//DTD SVG 1.1//EN" "http://www.w3.org/Graphics/SVG/1.1/DTD/svg11.dtd" >
<svg xmlns="http://www.w3.org/2000/svg" xmlns:xlink="http://www.w3.org/1999/xlink" version="1.1" viewBox="-10 0 266 256">
   <path fill="currentColor"
d="M146 188v5t0.5 6.5t0.5 5.5v3q0 2 0.5 9t2 14.5t3.5 13.5t4 6h33q4 0 7 -2.5t5 -6t3 -8t1 -8.5v-64l-1.5 -1t-2.5 -1h-1q-2 0 -3 3.5t-1 8.5t-1 9.5t-4 5.5h-2.5h-3.5h-4h-2q-1 0 -2.5 0.5t-3.5 1t-4 0.5h-2h-4.5t-5 -0.5t-4 -1l-1.5 -0.5v-18q0 -1 -1 -1.5t-2 -1.5v0h-2
l-0.5 1t-0.5 2v3q0 3 -0.5 6t-0.5 6v4zM48 225q0 11 3.5 17.5t13.5 6.5q8 0 12.5 -4t7.5 -10.5t5 -14t5 -14.5q0 -3 2 -4t4 -1.5t3 -2.5t1 -5q0 -2 -0.5 -4t-2.5 -2q-5 0 -8 3.5t-5 9t-3.5 11.5t-4 11.5t-6 9t-8.5 3.5q-2 0 -5 -0.5t-4 -4.5v-3v-4q0 -10 4.5 -18.5t10 -16
t10.5 -14.5t5 -15q0 -3 -1 -6.5t-2.5 -7t-4 -5.5t-4.5 -3q-5 -1 -8 1.5t-5.5 6t-5 6.5t-7.5 3q-2 0 -3 -1.5t-1.5 -3t-1 -3.5t-0.5 -4q0 -3 1 -7.5t3 -9t4.5 -8t5.5 -5.5l28 -16l2 -2v-3v-4q0 -11 -3.5 -19.5t-7.5 -16t-6.5 -16t-1.5 -20.5q-1 0 -2 -2t-2 -2h-1
q-2 0 -3.5 2.5t-2.5 5.5t-1.5 5.5t-0.5 3.5q0 6 3.5 12.5t7.5 14l8 15t4 15.5q0 3 -3 6t-8 5.5t-10.5 5.5t-10 8t-7.5 11.5t-3 17.5q0 5 0.5 9.5t2 8t4.5 5.5t8 2q7 0 11 -3.5t9 -10.5h2q3 0 5 1.5t2 4.5q0 6 -2.5 11t-6 9.5t-8 9.5t-8.5 11t-6 12.5t-2 15.5zM155 214v-4v-4
q1 -2 3.5 -4t3.5 -2h32l0.5 0.5l1 1t1 2t0.5 2.5v24q0 5 -2.5 7t-6 3.5t-7 2t-5.5 0.5q-12 0 -16.5 -8t-4.5 -21zM94 138q0 5 0.5 10t2 9t4.5 6.5t8 2.5q6 0 12 -2.5t8 -9.5q0 -1 0.5 -3t0.5 -4.5v-4.5v-3q0 -7 -2 -15t-5.5 -15.5t-9.5 -12.5t-13 -5q-1 0 -2.5 1t-1.5 3
q0 3 4 7l9 9t9.5 12t4.5 17q0 8 -3 12t-10 4q-6 0 -7 -3.5t-1 -10.5q0 -4 0.5 -8.5t0.5 -10.5v-4t-2 -3q-3 0 -4.5 3t-2 6.5t-0.5 7.5v5zM166 133h-6.5t-7 1t-6 3.5t-2.5 6.5q8 0 16 -1t15.5 -2t15 -1.5t15.5 -0.5q2 0 4.5 -2.5t2.5 -4.5v-1l-1 -1l-1 -1h-33v-39
q0 -2 3 -2.5t7.5 -1t10 -0.5t9.5 -1t7 -3t3 -5t-2 -3.5t-5 -0.5q-7 0 -14.5 2t-15.5 2q-2 0 -2.5 -1.5t-0.5 -3.5v-4v-3q0 -10 1 -20.5t1 -21.5q0 -5 -2 -7.5t-6 -2.5h-2.5t-1.5 2v56q0 1 0.5 2.5l0.5 1.5v1v1q0 1 -0.5 1.5l-0.5 0.5l-39 4q0 1 -0.5 1.5t-1.5 0.5v1v2
q1 0 2.5 1.5t1.5 2.5h7q6 0 12.5 -1.5t12.5 -1.5q1 0 2.5 0.5t2.5 0.5l0.5 0.5t0.5 1.5v37z" />
</svg>
