<?xml version="1.0" standalone="no"?>
<!DOCTYPE svg PUBLIC "-//W3C//DTD SVG 1.1//EN" "http://www.w3.org/Graphics/SVG/1.1/DTD/svg11.dtd" >
<svg xmlns="http://www.w3.org/2000/svg" xmlns:xlink="http://www.w3.org/1999/xlink" version="1.1" viewBox="-10 0 266 256">
   <path fill="currentColor"
d="M191 245q0 2 2.5 3t3.5 1q2 0 3 -1.5t1.5 -3t0.5 -3.5v-3v-5q0 -2 -0.5 -10t-1 -17.5t-1.5 -17.5t-1 -10q0 -7 -1 -13.5t-5 -12.5q-2 -4 -8 -4q-5 0 -11 0.5t-11 -1t-5 -7.5q0 -5 3.5 -7t8 -3t10 -1.5t10.5 -1.5t8 -4.5t3 -10.5q0 -5 -0.5 -9.5t-2.5 -7.5t-5.5 -5
t-9.5 -2q-8 0 -15 1t-17 1l-1 1l-2 2v0v1v0v0l1.5 1.5l0.5 0.5h12l1 3v3v5v3v4v3v2l-0.5 2l-0.5 2q-3 4 -5.5 6t-4 4t-2 5t-0.5 7q0 2 0.5 3.5t2 3l3 3t3.5 1.5h26q2 0 3.5 2.5t1.5 3.5q1 1 1 4.5t0.5 6.5t0.5 6.5v4.5v12v18v18.5v12.5zM111 242q0 2 1 3t3 1q3 0 5 -3.5
t4 -9t3.5 -12t2.5 -13t2 -11.5t1 -7q0 -3 1 -9.5t1.5 -14t1.5 -14t1 -9.5v-4q0 -1 0.5 -5.5l1 -9t0.5 -8.5v-6v-4v-8v-8v-4q0 -6 4 -8t9 -3t10 -0.5t9 0.5q7 0 14 1t14 1q4 0 4 -3q0 -2 -0.5 -4.5t-2.5 -2.5h-31l-1 -2t0 -4q1 -3 5.5 -5t6.5 -2q1 0 3 -0.5l4 -1t4.5 -1
l2.5 -0.5q3 -1 3 -2.5v-3.5q0 -10 -3 -14t-7.5 -5.5t-10.5 -1t-11.5 1t-10 -0.5t-6.5 -4q-1 -1 -1.5 -3t-1.5 -3.5l-2 -3t-1 -2.5h-0.5h-0.5q-2 0 -2.5 1.5t-0.5 3.5q0 4 2 7.5t4.5 6l4.5 4.5t2 4v0.5v1.5q-4 4 -8 6.5t-8.5 4.5t-9.5 3.5t-9 4.5l-1 1q0 2 1.5 3t3.5 0
q6 -2 10 -3t8 -2.5t7.5 -3.5t8.5 -5q0 -1 1.5 -3t2.5 -4.5t2.5 -4l1.5 -1.5h22q2 0 2.5 1.5t0.5 2.5q0 4 -2 6t-5 3t-7 2.5t-6.5 3t-4.5 5t-1 9.5l-1.5 0.5l-1.5 0.5q-8 1 -13 1.5t-8 2.5t-4.5 6t-2.5 12v6v9v9.5v5.5l-1 3q-1 27 -4.5 54t-10.5 53q0 3 -2 5.5t-2 6.5z
M63 157q0 2 0.5 4.5t2 5t4 4t5.5 1.5l2.5 -0.5t3.5 -0.5q8 -3 11 -7t5 -8t3 -9t5 -11l1.5 -1.5t2.5 -3l2 -3t1 -3.5t-1.5 -2h-2.5q-7 0 -10 6t-5.5 13t-5.5 13t-9 6q-3 0 -4 -2t-1 -5q0 -7 3.5 -12.5t7.5 -10t7.5 -10.5t3.5 -16q0 -6 -3.5 -8.5t-8.5 -2.5h-3h-2
q-2 2 -3.5 4.5t-2.5 5t-3 4.5t-4 2q-3 0 -4 -1.5t-1 -3.5v-4v-2q0 -6 3 -10.5t7.5 -7.5t10 -5t10.5 -2q3 0 8 1.5t9 4t6.5 6t2.5 8.5q0 2 -1 4.5t-4 2.5t-4.5 -1.5t-2.5 -3.5t-1 -4v-4h-3v15q0 2 1.5 3.5t3.5 2.5t4.5 1h3.5q4 0 6 -1.5t3.5 -4t2 -5.5t0.5 -6
q0 -8 -4.5 -12.5t-10 -6.5l-11 -4t-7.5 -5q-1 -2 -1.5 -5t-0.5 -6.5t-0.5 -6.5t-2.5 -6t-4 -4.5t-4 -3.5t-4 -4.5t-3 -5.5l-0.5 -2l-1 -4l-1 -4t-0.5 -3h-2q-1 0 -2.5 0.5t-2.5 1.5v3v9t3 8q1 2 3.5 4t5 4.5l4.5 4.5t2 5v17l-1 0.5l-1 0.5q-4 2 -7 4t-6 3.5t-5.5 4l-6.5 6.5
q-3 3 -3 9v9v8q3 4 6 6t8 2q6 0 8.5 -2.5t4 -6t2 -6t2.5 -2.5q4 0 4 1.5v4.5q0 7 -3.5 12.5t-8 11t-8 11t-3.5 13.5zM169 118v-18q0 -1 1.5 -2t3 -1.5t3 -0.5h2.5q5 0 8 0.5t3 5.5q0 9 -3 14t-12 5q-1 0 -2.5 -0.5t-2.5 -0.5z" />
</svg>
