<?xml version="1.0" standalone="no"?>
<!DOCTYPE svg PUBLIC "-//W3C//DTD SVG 1.1//EN" "http://www.w3.org/Graphics/SVG/1.1/DTD/svg11.dtd" >
<svg xmlns="http://www.w3.org/2000/svg" xmlns:xlink="http://www.w3.org/1999/xlink" version="1.1" viewBox="-10 0 266 256">
   <path fill="currentColor"
d="M165 209q0 4 0.5 9.5t1 10.5l1 10t0.5 9h2h1q2 0 4 -1.5t3 -4t1.5 -5t0.5 -4.5l-1 -2.5l-1 -2.5q0 -1 -0.5 -5t-1.5 -5q0 -6 -0.5 -9t-0.5 -5.5v-5.5v-8v-8v-7.5t0.5 -7t0.5 -8.5q1 -1 2 -1.5t2 -0.5q2 0 4.5 3t4 7t3.5 9t3.5 9t3.5 6.5t5 2.5q2 0 3.5 -2t2.5 -5
q-3 -5 -7 -11t-8 -12.5t-6.5 -13.5t-2.5 -14q0 -3 3.5 -6t7 -6.5t6.5 -6t2 -5.5q0 -1 -2 -2t-3 -2v0h-1q-1 1 -2 1.5l-1 0.5q-1 0 -2.5 1.5t-3 3.5t-2.5 3l-2 2h-1.5h-1.5q-4 0 -5.5 -3t-2.5 -7.5t-1.5 -9t-0.5 -6.5t1 -5t4 -3h21q1 0 1 -2v-3q0 -3 -3 -3q-5 0 -10 0.5
t-10 0.5q-4 0 -5.5 -2.5t-1.5 -6.5q0 -5 3.5 -6t8 -2t8.5 -2.5t6 -6.5q1 -6 2.5 -11.5t1.5 -10.5q0 -3 -1 -6t-4 -3t-4 2.5t-1 6.5v8t-1.5 8t-4.5 6.5t-9 2.5q-2 0 -3.5 -0.5t-1.5 -2.5v-41q0 -2 -2 -2h-3q-3 0 -4.5 1.5t-1.5 4.5q0 14 1.5 27.5t1.5 26.5v9q-4 2 -6.5 2
h-6.5h-6q-1 0 -2 -4t-1.5 -8.5l-1 -9t-0.5 -6.5v-4q0 -2 2 -3q1 -1 2.5 -2t3.5 -2t4 -1.5t3 -1.5v-0.5v-1.5q0 -2 -1 -2.5t-4 -0.5q-1 0 -6.5 3t-11.5 7t-11 8t-5 6q0 1 0.5 2t2.5 1q3 0 5 -2t5 -2t4 2.5t1 5.5v6v4v10q-2 1 -3 1h-4q-3 0 -8 -2t-10.5 -5.5t-11.5 -7.5
t-11.5 -8.5t-9 -8.5t-4.5 -6q-1 -3 -1 -8v-9q0 -5 -1 -8.5t-5 -3.5q-1 0 -2.5 2t-2 4.5l-1 5t-0.5 3.5v1v1q1 1 1.5 3.5t1 5.5t1.5 5.5t1 3.5q1 2 3.5 3.5t4.5 3.5t3.5 4t1.5 5v3q-6 5 -11 10t-9 10.5t-6.5 12t-2.5 15.5q0 4 0.5 8t2 8t4 6.5t6.5 2.5q8 0 11 -4t5 -9t3.5 -9
t5.5 -4q3 0 5 2t2 5q0 10 -4.5 17t-10 13.5t-10 14t-4.5 15.5q0 6 1.5 10t7.5 4q9 0 14.5 -3.5t8.5 -9t6 -12.5l6 -14l3 -3t3.5 -4t2.5 -4t1 -4l-1.5 -1.5l-1.5 -1.5l-0.5 -0.5l-0.5 -0.5q-3 0 -5.5 4t-5 9t-5 11t-5.5 11.5t-6 9t-6 3.5q-8 0 -8 -7q0 -6 4 -13t9 -13.5
t9 -13.5t4 -15q0 -2 -1 -5.5t-2.5 -6.5t-4 -5t-5.5 -2q-5 0 -7.5 2.5t-4.5 6t-3 7.5t-2 7q-1 2 -2.5 2h-3.5q-4 0 -5.5 -3t-1.5 -7q0 -5 2.5 -13t6 -15.5t9 -13t11.5 -5.5q7 0 13.5 1.5t11.5 5.5t8 9.5t3 13.5q0 4 -1.5 8t-6.5 4q-3 0 -5 -2t-3 -5t-1 -6v-6h-1h-1
q-2 0 -2.5 2t-0.5 4q0 10 4.5 15t14.5 5q4 0 6.5 -3.5t2.5 -6.5v-21l2 -1q1 -1 2 -1.5l1 -0.5q1 0 2 2.5l1 2.5q2 10 3 18.5t1 18.5q0 4 -1.5 6.5l-3 5t-4 5t-4.5 5.5q-5 8 -9.5 16.5t-9.5 15.5v1q0 2 1.5 2.5t2.5 0.5l1 -0.5l1 -0.5q3 -3 5.5 -8.5l5 -11t5.5 -10t8 -5.5
l2 4v2v4.5v5.5v4v7v8v7v4l-0.5 1.5t-0.5 4t-0.5 4l-0.5 1.5q0 3 1 6t4 3q4 0 5 -3t1 -6q0 -11 -0.5 -22.5t-0.5 -23.5v-28q1 -1 3 -2.5t4 -4l4 -5t3 -5.5v0v-1v0v0q0 -1 -0.5 -1.5t-1.5 -0.5v0v0h-1q-2 2 -4 4.5t-5 2.5q-2 0 -2.5 -2t-1.5 -3v-5t-0.5 -6.5t-1 -6.5t-0.5 -4
v-3q0 -2 0.5 -5.5t3.5 -3.5h19l1 2q0 1 0.5 4.5l1 7l1 7t0.5 4.5q1 1 1.5 3.5t2 5.5l2.5 5t1 3v2v2v3v1q0 1 -1 3.5t-2.5 5.5t-2 5.5t-1.5 2.5q0 4 -1 11t-1 15.5t-0.5 16t-0.5 11.5z" />
</svg>
