<?xml version="1.0" standalone="no"?>
<!DOCTYPE svg PUBLIC "-//W3C//DTD SVG 1.1//EN" "http://www.w3.org/Graphics/SVG/1.1/DTD/svg11.dtd" >
<svg xmlns="http://www.w3.org/2000/svg" xmlns:xlink="http://www.w3.org/1999/xlink" version="1.1" viewBox="-10 0 266 256">
   <path fill="currentColor"
d="M186 242v1q0 1 1 3t3 2q3 0 6 -2.5t4 -4.5v-2q0 -2 0.5 -4t0.5 -4v-2q0 -42 -1.5 -82t-0.5 -82q-1 -6 -2 -13t-4 -12q-3 -2 -7.5 -3.5t-11 -2t-13 -0.5t-12.5 -0.5t-9.5 -1t-3.5 -2.5v-13q0 -1 -1 -2t-3 -1.5t-3.5 -1t-2.5 -0.5l-2 0.5t-2 1.5v18q-12 0 -24.5 1.5
t-24.5 4.5q-7 6 -9 11.5t-2 11v11.5t-3 11v13.5v20.5v21v13q-1 21 -1 42.5t-4 41.5v1q0 5 2.5 7.5t7.5 2.5h2q2 0 3 -1v-48t0.5 -47.5t2 -47.5t5.5 -47q0 -2 1.5 -3.5t3.5 -3t4 -2.5t4 -1q1 0 2 4.5t1.5 9.5t1 9.5t0.5 5.5q0 12 -2.5 22.5t-2.5 22.5q0 2 1 2.5t3 0.5
q3 0 5 -5.5t2.5 -12.5t1 -13.5t0.5 -8.5q0 -9 -2 -18t-2 -17q0 -4 3.5 -4.5t5.5 -0.5h3q0 1 0.5 3.5t1 5.5t1 5.5t0.5 3.5q1 3 2.5 5.5t2.5 5.5t2 5.5t1 6.5q0 2 -2 3.5t-4.5 3t-5 3.5t-2.5 4l1.5 0.5t2.5 0.5q4 0 7.5 -2t6.5 -2q5 0 7 3.5t4 7.5t4 7.5t6 3.5q1 0 3 -1.5
t2 -3.5q0 -3 -2 -5.5l-4 -5l-4 -5t-2 -6.5q0 -2 2 -3t4.5 -1.5t4.5 -1.5t2 -4q0 -2 -2.5 -1.5l-2.5 0.5q-3 0 -6 1t-6 1q-2 0 -4 -1t-2 -4t2.5 -4.5t5.5 -3t5 -3t2 -5.5v-4t-0.5 -4.5t-2 -4t-4.5 -1.5l-0.5 0.5t-0.5 1.5l-0.5 2t-0.5 4t-0.5 4t-0.5 3l-0.5 1.5l-0.5 1.5h-4
q-5 0 -7 -3.5t-2 -7.5q0 -6 1.5 -8.5t4 -3t6 -0.5h8.5h12q1 0 3 0.5t3.5 0.5t2.5 0.5l1 0.5v54l0.5 3t1.5 7t1.5 8t1.5 6q0 2 0.5 3t2.5 1q3 0 4 -2.5t1 -4.5v-2l-0.5 -3.5l-1 -7t-1 -6.5t-0.5 -4v-9.5t0.5 -14.5t0.5 -15v-9q5 0 8 1t4 3.5t1 6.5v9v7v11v12v6t0.5 4l1 6
t0.5 6v4v1q0 30 -1.5 59.5t-1.5 59.5zM96 225q0 8 2.5 12.5t10.5 4.5t13 -4t8.5 -10t6.5 -12.5t6 -11.5q2 -3 5 -4.5l6 -3t5 -3t2 -4.5q-9 0 -18 1q0 1 -1.5 3t-3.5 4t-3.5 4t-2.5 3q-2 2 -4.5 6l-5 8t-5 7t-4.5 3q-4 0 -4.5 -3t-0.5 -6q0 -6 5 -12.5t10.5 -12.5t9.5 -12
t2 -11q-1 -4 -5 -6.5t-8 -2.5l-0.5 0.5l-0.5 0.5l-20 9l-1 0.5l-1 0.5q-5 0 -5.5 -2.5t-0.5 -6.5v-2v-3q7 -9 17 -14t22 -5q3 0 9 1t11.5 3.5t9.5 6t4 8.5q0 10 -9 10q-8 0 -10.5 -4.5t-4.5 -11.5h-2q-3 0 -3 3q0 9 5 16t14 7q4 0 8 -0.5t7 -2.5t5 -5t2 -7q0 -10 -4.5 -15.5
t-10.5 -8.5t-13.5 -4.5t-14.5 -2.5q-3 -1 -3.5 -4t-0.5 -6.5t-1.5 -6t-5.5 -2.5h-3t-2 2q0 3 1 6t1 7q0 2 -0.5 3.5t-2.5 2.5q-8 1 -14 3t-11 5.5t-7.5 9.5t-2.5 14q0 6 3 11.5t11 5.5q3 0 5.5 -1.5t5 -3.5t4.5 -3.5t6 -1.5q2 0 3.5 2t1.5 4l-0.5 1l-0.5 1q-4 6 -8.5 10.5
t-8.5 9t-6.5 10t-2.5 13.5z" />
</svg>
