<?xml version="1.0" standalone="no"?>
<!DOCTYPE svg PUBLIC "-//W3C//DTD SVG 1.1//EN" "http://www.w3.org/Graphics/SVG/1.1/DTD/svg11.dtd" >
<svg xmlns="http://www.w3.org/2000/svg" xmlns:xlink="http://www.w3.org/1999/xlink" version="1.1" viewBox="-10 0 266 256">
   <path fill="currentColor"
d="M100 244q0 4 2 5.5t6 1.5q8 0 15.5 -0.5t14.5 -3.5h79q2 0 2 -1.5v-2.5q0 -6 -7 -6h-36v-69q0 -3 3.5 -4t7.5 -2t8.5 -2.5t6.5 -5.5q0 -1 0.5 -4t0.5 -6t0.5 -5.5t0.5 -4.5v-3q0 -4 -4 -6t-7 -2v22l-1.5 2t-3.5 3q-2 3 -6 4.5t-9 2t-9 0.5h-7q-1 0 -4.5 -1l-7 -2t-6 -2.5
t-2.5 -3.5v-15l-1 -1t-2 -1l-1.5 -1l-1.5 -1q-2 0 -2 2v6q0 5 0.5 9t1.5 9q3 2 5.5 3l5 2t3.5 2.5t1 4.5q0 17 -1.5 34.5t-3.5 33.5q-3 3 -8.5 4t-11 1t-11 -0.5t-9.5 0.5q0 1 -0.5 2.5zM150 231v-4q0 -4 0.5 -12.5t1.5 -18t1.5 -18.5t1.5 -12q0 -1 1 -1.5t2 -0.5h2h2h3t3 2
v24v24v6.5t-0.5 6.5t-0.5 5.5v2.5l-2 2h-14q-2 0 -1.5 -2.5t0.5 -3.5zM192 179v2q0 3 0.5 8t0.5 10t0.5 8.5l0.5 3.5v3.5t0.5 5t2 5t3.5 2.5q3 0 4.5 -1.5t2.5 -3.5q-2 -5 -3 -11.5t-1.5 -13t-0.5 -12.5v-10q0 -2 -1.5 -2h-2.5q-3 0 -4.5 1.5t-1.5 4.5zM112 221v0.5v0.5
q1 0 2 1.5t2 1.5q2 0 3.5 -1.5t2.5 -3.5l2 -4t2 -3q0 -2 0.5 -6t1 -9t1 -9t0.5 -6v-1q0 -2 -1.5 -5.5t-5.5 -3.5q-1 0 -2 0.5t-1 2.5v3v5v5v3t-0.5 4t-1.5 7t-2 7.5t-1 5.5l-1 1.5t-1 2.5v0v1zM50 197q0 4 1 7.5t3.5 6.5t5.5 5t7 2q7 0 12.5 -6t8.5 -13.5t4.5 -16t1.5 -14.5
v0q-1 -1 -2 -1.5t-2 -0.5h-1q-2 0 -3.5 3t-2.5 7.5t-2 9.5t-2.5 9.5t-4 7.5t-5.5 3q-5 0 -7 -3.5t-2 -7.5q0 -9 4.5 -15t10 -12t10 -12t4.5 -14q0 -4 -4 -8.5t-9 -4.5q-6 0 -9.5 3.5t-5.5 7.5t-4 7.5t-6 4.5q-2 1 -3.5 -2t-1.5 -5q0 -7 2 -13.5t3 -12.5q3 -3 7 -6.5t8 -6
t8.5 -4.5t9.5 -2t10 4t8.5 9.5t6 12t2.5 10.5q0 2 -0.5 4.5t-1 4.5t-2 3.5t-3.5 1.5q-4 0 -5 -4.5t-1 -10.5t-0.5 -11t-2.5 -5q-2 2 -2.5 4.5t-0.5 4.5v9q0 5 1 10t3.5 8.5t7.5 3.5q2 0 5 -1t5 -3.5t3.5 -5t1.5 -5.5v-1v-1v-5.5t-0.5 -6t-0.5 -5v-3.5q-2 -4 -4.5 -7.5
t-6 -6.5t-6.5 -6t-6 -7q-1 -3 -1.5 -6t-0.5 -6v-7t-1 -6q-2 -4 -5 -8.5t-6 -8.5t-6 -8.5t-5 -9.5q-1 -2 -1 -6v-8t-1 -7t-5 -3q-3 0 -4.5 2.5t-2 6.5t-0.5 7v5q0 8 4 14t9 11.5t9 11.5t4 14q0 5 -1.5 7.5t-4 3.5t-6 2t-7.5 2q-6 2 -10.5 7t-8 10.5t-5 12t-1.5 12.5v8
t1.5 7.5t4 5t7.5 1.5h4t5 -1q0 -1 1.5 -4.5t3.5 -6.5t3 -6t2 -4q1 -2 1.5 -2h1.5q3 0 4.5 1.5t1.5 4.5q0 7 -4.5 13t-10 12.5t-10 13.5t-4.5 14zM160 117v30l1 0.5t2 0.5l0.5 0.5l0.5 0.5q2 0 4 -1.5t2 -4.5v-27l32 -6l0.5 -0.5t1.5 -0.5q0 -1 1.5 -3t1.5 -3l1 -1.5l1 -1.5
v-21q0 -1 -2 -2q-1 0 -2 -0.5l-1 -0.5q-1 0 -3 0.5l-2 0.5l-1.5 1.5l-0.5 0.5v1t0.5 2.5t1 2.5l0.5 1v2q0 9 -4 13t-12 4h-8q-1 -1 -2.5 -3t-2 -4.5t-0.5 -5v-4.5q0 -1 2.5 -2t5.5 -2.5t6 -3.5t4 -3q1 0 2 -1.5t2.5 -3t2 -2.5t0.5 -2v-20q0 -1 -2.5 -2.5t-6 -3t-7 -2.5
t-5.5 -1h-2q-1 0 -2.5 1l-1.5 1q-1 0 -4.5 0.5l-7 1l-7 1t-4.5 0.5q-7 4 -9 9t-2 13q0 7 2 10.5t5 5.5t6.5 2.5t6.5 1t5 2t3 5.5v2q0 2 -0.5 4t-0.5 3.5v2.5h-25l-1 -0.5t-2.5 -2t-2 -2.5t-1.5 -2q0 -2 -0.5 -4.5l-1 -5t-1.5 -4.5t-4 -2q-2 0 -2.5 1.5t-0.5 3.5q0 3 1.5 6
t1.5 7q1 7 4.5 10t8 4t10 0.5t11.5 -0.5zM143 72v-12q0 -3 3.5 -5t8 -3l9 -2t5.5 -1q8 0 11.5 3t3.5 11q0 9 -5.5 11.5t-12.5 2.5h-1q-3 0 -7.5 -0.5t-7.5 -0.5h-4z" />
</svg>
