<?xml version="1.0" standalone="no"?>
<!DOCTYPE svg PUBLIC "-//W3C//DTD SVG 1.1//EN" "http://www.w3.org/Graphics/SVG/1.1/DTD/svg11.dtd" >
<svg xmlns="http://www.w3.org/2000/svg" xmlns:xlink="http://www.w3.org/1999/xlink" version="1.1" viewBox="-10 0 266 256">
   <path fill="currentColor"
d="M97 244q0 3 1 4t4 1q4 0 7.5 -6.5t5.5 -16.5t3.5 -22.5t3 -24t2.5 -20.5t2 -13q0 -2 2.5 -3t4.5 -1h5h3h7t4.5 1t2.5 3.5t1 6.5v2v4.5t-0.5 7l-1 7t-0.5 4.5h-13v-18l-3 -2l-3 4v2t-0.5 4.5t-0.5 4.5v5q0 8 0.5 16.5t2.5 15t7.5 10.5t16.5 4q3 0 6.5 -1t7 -2.5t6 -3.5
t3.5 -6q1 -6 1.5 -11t1 -9t0.5 -9v-10v-3q0 -3 -0.5 -5t-0.5 -4v-3q0 -1 -0.5 -1.5t-1.5 -0.5v-1q-5 0 -6 4t-1 8q0 5 -0.5 9t-6.5 4l-2.5 -0.5t-2.5 -2.5v-29l4 -4l2.5 -0.5t5.5 -0.5h6h4h2h2.5t2.5 0.5l1 0.5l5 81q2 5 3 11.5t1 11.5q1 2 3 2h3q7 0 7 -7q0 -6 -1.5 -13
t-4.5 -13q0 -3 -1.5 -10.5t-2.5 -15.5t-2 -15.5t-1 -10.5v-4v-9v-10v-9v-10v-12v-11v-6t0.5 -4t0.5 -7t0.5 -7.5t0.5 -5.5q1 -6 2.5 -12t1.5 -13v-8q-1 -2 -3 -2h-3q-4 0 -5 3.5t-1 8v7.5q0 4 -1 5l-3 4h-24l-0.5 -1.5t-0.5 -2.5l-0.5 -0.5l-0.5 -0.5q0 -9 1 -18t1 -18
q0 -3 -1 -6.5t-5 -3.5t-5 3t-1 7q0 6 1 11.5t1 12.5v5t-0.5 9.5t-1 11.5t-1 11.5t-1.5 9t-2 3.5h-25v-1.5t-0.5 -3.5t-0.5 -4.5v-3.5q0 -2 -0.5 -8t-0.5 -12t0.5 -12t0.5 -8l-3 -4.5t-4 -1.5t-4.5 2t-1.5 5q0 16 2 31.5t2 31.5q0 31 -4 64t-14 63l-0.5 1t-1 2.5t-1 2.5
l-0.5 1l-0.5 1.5t-0.5 2.5zM142 201q0 -10 5.5 -13t14.5 -3q1 0 1 1q2 0 5 0.5t5 0.5h3v18q0 4 -2.5 6t-6 2.5l-7 1t-5.5 0.5q-5 0 -9 -4t-4 -10zM49 200q3 5 6.5 7t9.5 2q3 0 8 -1.5t7 -5.5l12 -35l4.5 -4.5t2.5 -6.5v-2t-1 -1q-8 4 -12 11.5t-6.5 14.5t-5.5 12t-9 5
q-2 0 -3.5 -0.5t-1.5 -2.5q-1 -5 3 -11.5t9.5 -14.5t10 -17t4.5 -19q0 -3 -2 -5.5t-4 -4.5t-5 -3.5t-6 -1.5q-5 0 -7 3.5t-3.5 8.5t-3 8.5t-4.5 3.5q-2 0 -3 -1.5t-1.5 -3.5t-0.5 -4v-4q0 -6 3 -12.5t8 -13t10.5 -10.5t11.5 -4q11 0 18.5 7t7.5 18v4.5v5t-1 4.5t-3 2
t-3 -1.5t-2.5 -4t-2 -4.5t-0.5 -3t-0.5 -3t-0.5 -4.5t-0.5 -4.5t-0.5 -3l-2 -2q-3 3 -3 8q0 3 1 8.5t2.5 11.5t5 10t7.5 4q2 0 4.5 -1.5t4.5 -4.5q1 -6 1 -10v-9v-7.5t-1 -7.5t-3 -7.5t-5 -5.5q-5 -4 -12.5 -8.5t-14 -10t-11 -12.5t-4.5 -16q0 -4 0.5 -7t1.5 -6t2 -5.5
t1 -5.5t-0.5 -4t-3.5 -1h-3.5t-2.5 2q-1 1 -1.5 4t-1.5 6.5t-2 6.5t-1 5v2q0 7 3.5 13.5t7.5 12t7.5 9.5t3.5 6q0 1 -5.5 5t-12 10.5t-11.5 15t-5 19.5q0 5 0.5 10t2 8t4.5 5t9 2q5 0 7 -4t2.5 -9t2 -9t5.5 -4q5 0 6.5 3.5t1.5 8.5q0 7 -5 13.5t-11 13.5t-10.5 15t-4.5 19z
M128 107l5 -3h24q0 7 -0.5 14.5t-2.5 14.5l-2 0.5t-3 0.5q-1 1 -4 1h-6.5h-6.5h-4v-28zM165 127v-3q0 -2 0.5 -4.5t0.5 -5.5t0.5 -5l0.5 -2l3 -3h25v27q0 1 -2.5 2t-5.5 1h-7h-5q-4 0 -7 -1t-3 -6zM169 93q-2 -3 -2 -5v-5q0 -5 1.5 -8t4.5 -4.5t7 -1.5h8h2h2t2 0.5t1 1.5v20
q0 3 -1.5 3.5t-3.5 0.5h-2q-1 0 -3.5 -0.5t-6 -1t-6 -0.5h-3.5z" />
</svg>
