<?xml version="1.0" standalone="no"?>
<!DOCTYPE svg PUBLIC "-//W3C//DTD SVG 1.1//EN" "http://www.w3.org/Graphics/SVG/1.1/DTD/svg11.dtd" >
<svg xmlns="http://www.w3.org/2000/svg" xmlns:xlink="http://www.w3.org/1999/xlink" version="1.1" viewBox="-10 0 266 256">
   <path fill="currentColor"
d="M160 124q-3 0 -6 2t-6 5t-5 7t-2 6v80q0 6 4 12.5t9 9.5h13q16 0 24 -0.5t12 -4t6 -11.5t5 -22v-69q0 -5 -1.5 -7.5t-4.5 -4.5t-6.5 -2.5t-6.5 -0.5t-5 0.5t-2 3.5q0 2 3 3.5t6.5 4t6.5 6t3 10.5q0 3 -1.5 5t-4.5 2t-5 -1t-6 -5q-1 1 -1.5 2t-0.5 2q0 2 0.5 3.5t1.5 3.5
q1 1 4 2t6 2.5t5 3.5t2 5v20q0 3 -2 3.5t-4 0.5q-3 0 -6 -1.5t-7 -4.5q-1 1 -1.5 2t-0.5 2q0 4 3 5.5t6 3.5l6 4t3 7q0 8 -5 13t-13 5q-4 0 -6 -2.5t-2 -6.5v-97q0 -8 2.5 -14.5t6 -12t7.5 -9.5t7.5 -8t6 -8t2.5 -9q0 -1 -0.5 -4t-0.5 -4q-3 -4 -7 -7t-8.5 -5t-9 -3.5
t-9.5 -2.5q-1 0 -2.5 -0.5t-1.5 -1.5q-1 -1 -4 -5.5t-7 -9t-7.5 -8t-5.5 -3.5q-4 0 -4 5q0 4 2.5 7.5t5.5 6.5t5.5 6.5t2.5 8.5q0 7 -5 11.5t-11 7.5t-11 4.5t-5 2.5v0.5v0.5q1 0 2 1.5t2 1.5q0 1 1 1q13 0 22 -7t15 -19h4q3 0 7 0.5t8.5 1.5t7.5 3.5t3 6.5q0 3 -0.5 5
t-1.5 5q-9 9 -14.5 18t-8.5 18.5t-4 20.5t-1 23q0 6 1 12t1 13t-0.5 13.5t-0.5 13t-0.5 13.5t-0.5 15h-3q-8 0 -12.5 -5.5t-4.5 -12.5q0 -1 0.5 -3.5t0.5 -3.5q1 -2 3 -3l4 -2t3.5 -2.5t1.5 -4.5v-1q0 -2 -2 -2.5t-4 -0.5t-3.5 0.5t-2.5 0.5q0 -1 -0.5 -3.5t-0.5 -5.5
t-0.5 -5.5t-0.5 -3.5v-3q0 -4 2.5 -6t5.5 -4t5.5 -3.5t2.5 -4.5v-1l-0.5 -1t-1.5 -1h-11q0 -1 -0.5 -2.5t-0.5 -2.5v-3.5v-2.5q0 -2 2.5 -4t5.5 -4t4.5 -4t1.5 -4q0 -1 -1.5 -2.5t-2.5 -1.5zM56 221q0 6 3.5 11.5t10.5 5.5q8 0 13 -3t8.5 -7.5t6 -10t5 -12t5.5 -12.5t7 -10
v-1.5v-0.5q0 -2 -0.5 -3t-2.5 -1q-5 0 -8 3.5t-4.5 8.5t-3 11.5t-3.5 12t-5.5 9.5t-8.5 4q-2 1 -4 0l-4 -2t-3.5 -2.5t-1.5 -3.5q0 -5 5 -11.5t11 -14.5t11 -17t5 -20q0 -3 -0.5 -7t-2 -7.5t-3.5 -6.5t-6 -3q-5 0 -7.5 3.5t-4.5 8t-4 8t-7 3.5q-3 0 -5 -1.5t-2.5 -4l-1 -5
t-0.5 -5.5q0 -9 3.5 -15.5t9 -12t12.5 -9.5l14 -8v0q8 0 14 5t10 12t6.5 14.5t2.5 13.5q0 4 -3 7t-6 3q-4 0 -6 -3t-3 -7t-1.5 -8t-0.5 -6t-1.5 -2h-3.5v20q0 4 2 6.5t4.5 4.5t5.5 3t6 1q4 0 7 -2.5t4.5 -6.5t2 -8.5t0.5 -8.5q0 -12 -7 -22.5t-16 -17.5q-2 -1 -4.5 -1.5
t-4.5 -1.5t-3.5 -2t-3.5 -4v-1t-0.5 -2.5t-0.5 -2.5v-1q-1 -2 -2 -4.5l-2 -5t-2 -4.5l-1 -2q-3 -3 -5 -5.5t-4.5 -4.5t-3.5 -4.5t-1 -6.5t0.5 -8t0.5 -8v-4t-3 -3t-4.5 1.5t-2 6t-0.5 7.5v4q0 9 3.5 16t8 12.5t8 10.5t3.5 12q0 2 -4 4.5t-9.5 5.5t-10.5 6.5t-8 6.5
q-1 1 -2 3t-2 4.5t-1.5 5t-1.5 3.5q0 2 -0.5 4.5l-1 5t-1 4.5t-0.5 3q0 3 1 7.5t3 8.5t5 6.5t7 2.5q6 0 9.5 -3.5t6 -8t4.5 -8.5t6 -4q2 0 3 1.5t1.5 3.5t0.5 4v4q0 7 -2.5 13t-6.5 11t-8.5 10t-8.5 10t-6.5 10.5t-2.5 11.5z" />
</svg>
