<?xml version="1.0" standalone="no"?>
<!DOCTYPE svg PUBLIC "-//W3C//DTD SVG 1.1//EN" "http://www.w3.org/Graphics/SVG/1.1/DTD/svg11.dtd" >
<svg xmlns="http://www.w3.org/2000/svg" xmlns:xlink="http://www.w3.org/1999/xlink" version="1.1" viewBox="-10 0 266 256">
   <path fill="currentColor"
d="M180 150q0 16 0.5 32.5t4.5 32.5l0.5 2l1 4l1 4t0.5 3v2v6v5v3q0 2 1 4t4 2t4.5 -2.5t1.5 -4.5q0 -5 -1 -10l-2 -10t-2 -9.5t-1 -7.5q-2 -13 -3.5 -25t-1.5 -24v-14l1 -1h1q3 0 4 2.5t2 5.5t2.5 5.5t5.5 2.5q3 0 5.5 -1.5t2.5 -5.5l-0.5 -0.5l-0.5 -0.5q-2 -3 -5 -6
t-5 -6t-3.5 -6.5t-1.5 -7.5q0 -3 1 -5.5t2 -5.5t2 -5.5t1 -5.5t-0.5 -4t-3.5 -1q-2 0 -3 2t-2 4.5t-2.5 5t-2.5 3.5q-2 -1 -3.5 -5t-3 -8.5t-2 -8.5t-0.5 -6q0 -1 0.5 -2.5l0.5 -1.5l3 -2h24q1 0 1 -1.5v-1.5v-3t-1 -2h-25q-2 0 -3 -0.5t-1 -2v-2.5v-2q0 -5 2 -6.5t5 -2
t6 -0.5t6 -2.5t5 -7.5t2 -16q0 -3 -1 -4t-4 -1t-3.5 3.5t-1 8.5t-2.5 8.5t-9 3.5h-3h-2q-1 -3 -1 -8v-10t-1 -9t-5 -4q-3 0 -4 2.5t-1 5.5q0 10 1.5 21t1.5 22v2t-2 1t-7.5 0.5t-12 1t-12 0.5h-7.5l-13 2l-1 1v1v1l1 0.5t2 0.5h53q1 2 2 6.5t2 9.5t2.5 10t1.5 6q1 3 2 5
t1.5 4l1 4t0.5 5q0 6 -1.5 11t-1.5 11zM54 175q0 4 2.5 7.5t6.5 3.5q10 0 16 -2.5t10 -7.5t6.5 -11.5t5.5 -14.5l5 -5t3 -6q0 -2 -2 -2h-2q-5 0 -8.5 6t-6.5 12.5t-7.5 12.5t-12.5 6h-2.5h-2.5q0 -1 -0.5 -2l-0.5 -1v-1q0 -8 4.5 -13.5t9.5 -10.5t9.5 -10t4.5 -13
q0 -4 -3 -9.5t-9 -5.5q-7 0 -12 5t-9 10h-2h-1q-4 0 -4.5 -3t-0.5 -6q0 -8 3.5 -13t9 -8.5t12.5 -5t13 -1.5q14 0 19 7t5 20q-5 0 -7.5 -2.5t-3.5 -5.5t-2 -5.5t-5 -2.5q0 5 1 9.5t3 8t5.5 6t8.5 2.5t8.5 -3.5t3.5 -8.5q0 -10 -2.5 -15t-7 -8t-10.5 -4.5t-13 -5.5l-2 -1
q0 -1 -0.5 -3t-1.5 -4.5t-1.5 -4.5l-0.5 -2q-2 -4 -5.5 -8t-7 -7.5t-6 -7.5t-2.5 -8q0 -5 1.5 -8.5t1.5 -8.5q0 -4 -0.5 -5t-4.5 -1h-2.5h-1.5q-1 7 -1.5 11.5t-0.5 11.5t3.5 12.5t7.5 10t7.5 9.5t3.5 12q0 2 -4 4t-9.5 4.5t-11 6t-8.5 7.5q0 1 -0.5 3.5t-0.5 4.5v5v3v6
t1 6.5t2.5 5.5t5.5 2q2 0 5 -1.5t5 -3.5q1 0 2.5 -2t3.5 -4t4 -3.5t2 -2.5q1 0 1.5 -0.5t1.5 -0.5q3 0 4 3t1 6q0 7 -4.5 12t-10.5 10t-10.5 11.5t-4.5 16.5zM115 158q1 0 3 0.5t4.5 0.5h4.5h3h4t7.5 -1t8 -1.5l3.5 -0.5h4.5t7 -0.5t6.5 -0.5h4t1.5 -1l0.5 -1v-1v-1
l-0.5 -0.5t-1.5 -0.5h-16h-10h-9.5t-9 0.5t-10.5 0.5q-3 1 -4 1.5t-1 2.5v2v1zM131 114q0 10 5.5 16t14.5 6q11 0 16 -7t5 -18q0 -7 -5 -12.5t-13 -5.5q-10 0 -16.5 5.5t-6.5 15.5zM139 115q0 -7 3.5 -11.5t10.5 -4.5q3 0 5 1.5t3.5 4t2 5t0.5 4.5q0 5 -3.5 9.5t-8.5 4.5
q-7 0 -10 -3.5t-3 -9.5z" />
</svg>
