<?xml version="1.0" standalone="no"?>
<!DOCTYPE svg PUBLIC "-//W3C//DTD SVG 1.1//EN" "http://www.w3.org/Graphics/SVG/1.1/DTD/svg11.dtd" >
<svg xmlns="http://www.w3.org/2000/svg" xmlns:xlink="http://www.w3.org/1999/xlink" version="1.1" viewBox="-10 0 266 256">
   <path fill="currentColor"
d="M134 238q4 6 10 8.5t12.5 3.5t13.5 1h13q14 0 21.5 -4.5t11 -13.5t4 -20.5t0.5 -26.5v-7v-15v-18v-14v-11v-17v-17v-11q-1 -1 -2 -3.5t-4 -2.5l-1 1t-1 2q0 4 0.5 13t0.5 20v24v23t-0.5 20t-0.5 13v6.5t-0.5 9.5t-0.5 10v6q-1 9 -5.5 14t-10.5 7.5t-13 3t-14 0.5
q-4 0 -10 -0.5t-10 -4.5t-7 -12t-5 -17.5t-2.5 -20t-0.5 -20.5t0.5 -18.5t0.5 -13.5v-5v-5v-5v-2q0 -3 0.5 -11.5t1.5 -17t2 -16.5t1 -11q2 -3 5.5 -4.5t8.5 -3t9 -2t7 -0.5h47q2 0 2 -2.5v-3.5q0 -4 -3 -5t-6 -1h-2q-1 0 -3 0.5t-3 1.5h-7.5t-12 0.5t-12 0.5t-8.5 1l-3 0.5
t-4 0.5q-1 1 -4 1.5l-6 1l-6 1t-4 1.5q-3 3 -3.5 7l-1 8t-1 8.5t-2.5 8.5v102l0.5 5t1.5 10.5t1.5 11t0.5 9.5q0 1 0.5 3.5l1 5t1.5 5t1 3.5zM49 224q0 8 3 12.5t11 4.5q9 0 13.5 -5t7.5 -12t6 -14.5t7 -13.5q2 -1 3 -1t2 -0.5t2 -1.5t1 -3q0 -3 -1.5 -3.5t-2.5 -0.5
q-6 0 -9 3.5t-5 8l-4 9t-4 8.5q-1 0 -2.5 2t-3.5 4.5t-4 4.5t-3 2q-4 -1 -5 -2.5t-1 -6.5q0 -4 1.5 -7l3 -6t3.5 -5.5t3 -5.5l3 -6t4 -8.5t4 -8.5t2 -6l0.5 -2l0.5 -2q0 -4 -1 -9t-2.5 -9.5t-4.5 -8t-7 -3.5q-5 0 -7 5.5t-3 12t-2 12t-4 5.5q-2 0 -3 -2.5t-1.5 -6t-0.5 -6.5
v-4q0 -16 7 -25.5t19 -17.5l1 -1h1q7 0 13 5t10.5 11.5t7 14.5t2.5 15q0 2 -0.5 3.5t-3.5 1.5q-5 0 -7 -4t-2.5 -9t-1.5 -9.5t-3 -4.5q-1 0 -1.5 0.5l-0.5 0.5q-1 4 -1.5 7.5t-0.5 7.5q0 3 1.5 7t4.5 7.5t6.5 6t7.5 2.5v-1q1 0 4 -1.5t4 -1.5v-12q0 -15 -5.5 -27.5
t-16.5 -20.5q-4 -3 -7.5 -5t-5.5 -5q-1 -10 -3 -17t-5 -13t-7.5 -11.5t-10.5 -13.5q-1 -2 -1 -6v-9q0 -4 -1.5 -7.5t-4.5 -3.5q-2 0 -3 1t-1 3v25l1 1.5t1 2.5q1 0 3.5 3.5t5.5 7l6 7l3 3.5q2 3 3 6.5t2 7.5t1.5 7t0.5 6t-2 5t-4.5 4t-5 3.5t-4.5 3.5q-9 9 -13 21t-4 26
q0 4 1.5 8t4 6.5t5.5 4.5t7 2q5 0 7.5 -3.5t3.5 -7.5t1 -9v-8l3 -4q5 1 6 5t1 8q0 9 -4.5 17t-10 15.5t-10 15.5t-4.5 18zM191 73h-1h-1.5t-3.5 0.5t-3.5 1l-1.5 0.5q-10 1 -16 1.5t-9 3.5t-4 9.5t-1 19.5v92q0 13 5.5 18.5t16.5 5.5q5 0 10.5 -1t9.5 -3.5t6.5 -6.5t2.5 -11
v-102q0 -1 -1 -2.5t-2 -2.5h-1h-1q-1 1 -2 1.5l-1 0.5v31l-2 1l-2 1q-4 -3 -6.5 -7.5t-3.5 -10t-1.5 -11t-0.5 -10.5q0 -1 0.5 -3t0.5 -3l3 -3h13q2 -1 4 -2.5t2 -3.5v0v-1q-1 -2 -3.5 -2.5t-5.5 -0.5zM159 202q0 -1 1 -3.5t3 -2.5h26l0.5 1l0.5 1q1 1 1 3v4q0 7 -4.5 10
t-10.5 3q-7 0 -12 -4t-5 -12zM156 183v-14q0 -3 4 -4t9.5 -1.5t10.5 -0.5h6h4q1 0 1.5 1.5l0.5 1.5q0 2 0.5 4.5t0.5 6v6v3.5h-34zM156 155v-6q0 -3 -0.5 -5t2.5 -3q0 -1 2.5 -2.5t4.5 -3l4 -3t3 -1.5h3q3 0 6.5 1.5t5.5 4.5t4 6.5t2 7.5l-0.5 1.5t-0.5 2.5q-7 0 -13.5 1
t-13.5 1q-2 0 -4.5 -0.5t-4.5 -1.5zM156 120q0 -3 -0.5 -9t0.5 -12t3 -10.5t7 -4.5q2 0 3 2.5t1 4.5v12v7.5t-1 8.5t-3 7t-7 3q-3 0 -3 -3.5v-5.5z" />
</svg>
