<?xml version="1.0" standalone="no"?>
<!DOCTYPE svg PUBLIC "-//W3C//DTD SVG 1.1//EN" "http://www.w3.org/Graphics/SVG/1.1/DTD/svg11.dtd" >
<svg xmlns="http://www.w3.org/2000/svg" xmlns:xlink="http://www.w3.org/1999/xlink" version="1.1" viewBox="-10 0 266 256">
   <path fill="currentColor"
d="M160 246q0 4 3 4q5 0 7 -7t3 -17.5t1 -23t2 -23t6 -17.5t12 -7h3t3 2q1 15 3 27.5t2 26.5q0 6 -0.5 10t-1.5 10q0 1 0.5 2t1.5 2l2 2t2 1t2.5 -2t1.5 -3l-1 -30v-6v-4.5t-0.5 -7.5t-0.5 -7.5v-5.5q0 -1 -0.5 -6.5t-1.5 -11t-2.5 -10t-4.5 -4.5t-5.5 2t-5 5t-5.5 5t-6 2
q-1 0 -2 -0.5t-2 -1.5q-2 -14 -5.5 -27.5t-7.5 -26.5v-1q0 -1 1.5 -3.5l3 -5t3 -4.5t2.5 -2h31q2 0 3 -2t1 -4q0 -3 -2 -3h-5q-5 0 -9 0.5t-10 0.5q-2 0 -3.5 -1t-2.5 -2q0 -4 -0.5 -7.5t-0.5 -6.5v-6v-7v-4.5v-3.5q1 -4 6 -4.5t10 -0.5t9 -0.5t4 -4.5v-1l-0.5 -0.5
l-0.5 -0.5h-8q-8 0 -15 0.5t-14 0.5h-12t-12 -1q-2 -1 -3 -3.5t-1.5 -4.5t-2 -4t-3.5 -2q-6 0 -5 7l3 36q0 1 1.5 2.5l3 3t3 2.5t2.5 1h25q1 0 1.5 1.5t0.5 2.5q0 8 -7 10h-7.5h-9.5t-10.5 0.5t-8.5 1.5q-1 0 -1.5 0.5t-0.5 1.5l0.5 1.5t1.5 1.5h36q1 0 1.5 1.5l0.5 1.5
q0 6 -4 10.5t-9 8.5t-9.5 7t-4.5 5v2.5v2.5q2 0 5 -1t5.5 -3l5 -4t4.5 -4q5 2 7 6.5t2 9.5t-3 8t-7 5.5t-9 4t-9 4t-6.5 5.5t-2.5 7v2.5t2 1.5q4 0 8.5 -3.5t8.5 -8t7.5 -8t8.5 -4.5l2 1.5t3 1.5q1 6 1 9.5v8.5t-2 8.5t-5.5 6t-7.5 5t-8 5.5l-7.5 5t-9 6.5t-8 7t-3.5 6.5
q0 1 0.5 2.5t2.5 1.5q4 0 10.5 -6t13 -12.5l12 -12t9.5 -5.5h1.5t1.5 2v3.5v5.5v5v3v5v6v5v2l-0.5 2l-1 4l-1 4t-0.5 3q-1 4 -3 8.5t-2 8.5zM62 188q0 3 0.5 5.5t3.5 5.5q1 0 3.5 0.5t4.5 0.5q8 0 12.5 -4.5t7.5 -10.5t5 -13t6 -13q1 0 3 -2.5l2 -2.5l0.5 -1l0.5 -1
q0 -2 -1 -3t-3 -2q-1 0 -2 0.5t-2 1.5t-1.5 2l-0.5 1l-1 1.5t-1.5 3t-1.5 3t-1 2.5q-1 1 -2.5 4.5t-3 7.5t-3 7t-1.5 5q-2 4 -6.5 4.5t-8.5 0.5q0 -11 3 -18t7 -13t7 -13t3 -16q0 -4 -0.5 -8t-2 -8t-4 -6.5t-6.5 -2.5q-6 0 -8 4.5t-3 9.5t-3 9.5t-8 5.5q-2 -2 -2.5 -4.5
t-0.5 -6.5q0 -7 2.5 -13t7 -11t9.5 -10t11 -9h1q6 0 12 3t10 7.5t7 10.5t3 12q0 3 -0.5 5.5t-4.5 2.5q-5 0 -6.5 -3.5t-2.5 -7l-2 -7t-5 -3.5q0 5 1 10t3 9.5t5.5 7t9.5 2.5q3 0 5 -1.5t3 -4t1.5 -5.5t0.5 -6q0 -6 -2.5 -11.5t-6 -10t-8.5 -8t-9 -5.5l-6 -2t-5 -3
q-3 -5 -3 -9.5t-3 -9.5q-1 -1 -3 -4t-4.5 -5.5t-4 -5.5t-1.5 -5q0 -1 -0.5 -4t-0.5 -5q0 -3 0.5 -6t0.5 -4q-1 -1 -2 -1.5t-3 -0.5t-3 0.5t-2 3.5q0 1 -0.5 4.5t-0.5 4.5q0 8 3 14t6.5 10.5t6.5 9.5t3 11q0 5 -3 8.5t-7 7t-8.5 6.5t-6.5 6q-4 7 -5.5 15t-1.5 15t4 11t11 4
q4 0 7 -3t5 -7t3 -8.5t2 -7.5h2q3 0 4 1.5t1.5 3.5t0.5 5v4q0 8 -3.5 14.5t-7.5 13t-7.5 13.5t-3.5 15zM138 40q0 -1 0.5 -3.5t3.5 -2.5h25l0.5 1t0.5 2.5v2.5v1q0 9 -2 11t-10 2q-6 0 -12 -3t-6 -11z" />
</svg>
