<?xml version="1.0" standalone="no"?>
<!DOCTYPE svg PUBLIC "-//W3C//DTD SVG 1.1//EN" "http://www.w3.org/Graphics/SVG/1.1/DTD/svg11.dtd" >
<svg xmlns="http://www.w3.org/2000/svg" xmlns:xlink="http://www.w3.org/1999/xlink" version="1.1" viewBox="-10 0 266 256">
   <path fill="currentColor"
d="M121 150q0 26 -2 51t-2 51q1 0 3 -0.5t4.5 -1t4 -1.5t1.5 -3v-76q2 -9 2.5 -17.5t0.5 -17.5v-18t1 -18q0 -2 1 -3t3 -2q4 -1 7.5 -2t7 -1h6.5h9l1.5 -1.5t0.5 -2.5q0 -1 -1.5 -2.5t-3.5 -1.5h-31v-3v-3v-4v-3q0 -2 0.5 -7t1 -10.5t1 -10.5t0.5 -7q0 -5 2 -8t5 -4t7 -1.5
t9 -0.5q1 0 3 0.5l2 0.5l3 3v2t0.5 4.5t0.5 4.5v4v6v10v10v6q1 7 3.5 11.5t6 7.5t8.5 5.5t10 4.5q1 0 3 1l2 1q7 0 7 -6v-3.5t-2 -2.5q0 -1 -2.5 -1.5t-4.5 -1.5t-4.5 -1.5l-2.5 -0.5q-2 -1 -4 -1.5t-3.5 -1.5t-3 -1.5l-1.5 -0.5l-2 -4v-3.5v-4.5q0 -9 1 -18t1 -18v-10
q-1 -4 -5 -7t-8 -3h-26q-4 0 -6.5 1.5t-5 4t-4 5.5t-2.5 6v31q0 2 -0.5 5.5t-0.5 7t-0.5 6t-0.5 3.5l-5 3h-26h-5t-5.5 0.5t-5 0.5h-2.5l-3 4q2 4 6 4.5t7 0.5q8 0 16.5 -1t16.5 -1h3q0 1 1 3t0 2v10q0 8 0.5 16t0.5 15v10zM61 223q0 3 1 6l2 6t3.5 4.5t5.5 1.5q8 0 12.5 -5
t7.5 -12l6 -14t8 -11q0 -1 0.5 -1.5t0.5 -1.5l-0.5 -1l-0.5 -1q0 -1 -0.5 -1.5t-1.5 -0.5l-9 5l-15 24l-2 1.5t-3 1.5v0q-3 0 -3 -2v-4q0 -6 2.5 -11.5l5 -11l5 -11t2.5 -11.5q0 -7 -4 -11.5t-11 -4.5h-2l-1.5 1.5l-3 3l-3 3l-2.5 2.5l-1 2t-2.5 3.5l-3 3t-2.5 1.5
q-2 0 -3 -1.5t-1.5 -3.5t-0.5 -3.5v-2.5q0 -6 4.5 -11t10.5 -8.5t13 -5.5t11 -2q5 0 9 2.5t7 6.5t5 9t2 9t-2.5 6t-5.5 2q-4 0 -5.5 -4t-2 -8.5t-1.5 -8.5t-5 -4q0 3 0.5 8.5t2 11t4.5 9.5t7 4q5 0 8 -2t4.5 -5.5t1.5 -7.5v-8v-9q-5 -7 -12.5 -11.5t-14.5 -7.5
q-2 -3 -5.5 -9t-7.5 -12t-8.5 -11t-7.5 -5q-2 0 -2 1.5v2.5q0 5 1 8.5t3.5 6.5t5.5 6l6 6v8l-1 0.5t-2 1.5q-7 2 -12.5 4.5t-9.5 6.5t-6.5 9.5t-2.5 13.5q0 4 2 10.5t6 9.5h3h3q6 0 8.5 -3.5t4.5 -7.5t3.5 -8t5.5 -4q2 0 2.5 2t0.5 4q0 6 -1.5 12t-4 11.5l-5 11t-6.5 10.5v6
zM150 234l3 4h2.5h4.5q11 0 17 -5t9 -17q3 -3 6 -4.5t5.5 -3.5t4 -4.5t1.5 -6.5q-6 0 -10.5 2t-7.5 5.5t-5.5 7.5t-5 7.5t-5.5 6t-7 2.5q-3 0 -3.5 -1.5t-0.5 -4.5v-5q3 -3 6.5 -7t7.5 -8.5t6.5 -9.5t2.5 -10q0 -7 -4 -12t-11 -5q-3 0 -5 2t-4 5t-4 5.5t-5 2.5l-1.5 -0.5
l-1.5 -0.5v-7q0 -7 2.5 -12t7 -8t10.5 -4t13 -1q4 0 8.5 1t8 3t5.5 6t2 9v5t-3 3t-5.5 -1.5t-4 -4.5t-2.5 -6t-1 -5h-4q0 4 1 9t3 9.5t5.5 7t8.5 2.5q9 0 12.5 -2.5t3.5 -11.5q0 -10 -3 -15t-7.5 -8t-10.5 -5t-14 -5q-2 -5 -4.5 -8.5t-5.5 -6.5t-6.5 -5.5t-6.5 -6.5
q-1 -1 -1.5 -3t-0.5 -4t-1 -3.5t-3 -1.5v0q-1 0 -1.5 1l-0.5 1v3v4q0 6 2.5 9.5t6 6t6.5 5t3 7.5q0 3 -2 4t-5.5 2t-7.5 2t-7 3.5t-5.5 8t-2.5 14.5v6.5t1.5 6.5t3.5 5t6 2t6 -2.5t3.5 -5l3 -5t4.5 -2.5t5 2q0 1 0.5 2.5t0.5 2.5q0 7 -3.5 12t-7.5 9l-7.5 7.5t-3.5 6.5v17z
" />
</svg>
