<?xml version="1.0" standalone="no"?>
<!DOCTYPE svg PUBLIC "-//W3C//DTD SVG 1.1//EN" "http://www.w3.org/Graphics/SVG/1.1/DTD/svg11.dtd" >
<svg xmlns="http://www.w3.org/2000/svg" xmlns:xlink="http://www.w3.org/1999/xlink" version="1.1" viewBox="-10 0 266 256">
   <path fill="currentColor"
d="M170 233q0 5 0.5 8.5t3.5 8.5h1.5h1.5q2 0 4 -1t2 -3q0 -5 -1.5 -8t-1.5 -8q0 -9 4.5 -14.5t10 -11.5t10 -13t4.5 -18q0 -12 -1.5 -24.5t-2.5 -24.5q-1 -4 -3.5 -6.5t-6.5 -3.5t-7.5 -1h-7.5h-2h-3.5h-3.5h-2q-2 0 -2.5 1t-0.5 2v2.5t1 1.5h21l1 1t2 1q0 1 1 1.5l1 0.5v1
q0 3 -5 5.5t-11 4.5t-11 5t-5 7q5 0 9.5 -2l9 -4t8.5 -3.5t9 -1.5q0 1 0.5 2.5t0.5 3t-0.5 2.5t-1.5 2q-4 2 -10 4.5t-12 5.5t-10.5 7t-4.5 9q5 0 9.5 -2.5t8 -5.5t7.5 -6t9 -4l2.5 0.5t3.5 0.5v12q0 1 -3 2.5t-8 4.5t-10.5 6t-10.5 6.5t-8 6.5t-3 6q6 0 11.5 -3t10.5 -7.5
t9 -7.5t9 -3q2 0 2.5 1t0.5 3q0 8 -4.5 13t-10 9.5t-10 11t-4.5 17.5zM125 246q1 1 2 1h2h2.5t1.5 -1v-6t0.5 -8t0.5 -8t1 -6q0 -6 4 -11.5t7 -11.5q6 -13 8.5 -28.5t2.5 -30.5q0 -9 -3 -14t-8 -6.5t-12 -1.5h-16q0 3 3 5t7 2.5t8 0.5h6q2 1 2 4q0 2 -5 5.5t-12 7t-13.5 7
t-8.5 5.5q-1 0 -1 1v0q0 4 4 4q5 0 9.5 -3t9 -7t9 -6.5t9.5 -2.5q2 0 3 1t1 3t-0.5 3.5t-1.5 3.5q-9 5 -19.5 12l-19.5 13q-2 1 -2 3v4q5 0 10 -2.5t10 -6t9 -7.5l7 -7h3q0 1 0.5 2.5l1 3t0.5 3.5v2q-2 4 -8.5 9t-14.5 9.5t-13.5 8.5t-5.5 6t1.5 3.5t3.5 1.5q7 -6 15 -11
t16 -11v2q0 4 -1.5 6t-3.5 5q-1 1 -2.5 4l-3 6l-2.5 5l-1 2q-1 2 -1.5 5t-0.5 6v6v6v9zM53 151q0 8 4 13.5t13 5.5q8 0 11.5 -5t6 -11.5t6 -13t11.5 -10.5v0v-1l-2 -2l-1 -1h-0.5h-0.5h-0.5h-0.5q-4 1 -8 3.5t-6 5.5q-1 2 -2.5 6.5t-3 8.5t-4 7t-5.5 3q-1 0 -3 -1t-3.5 -2.5
t-2.5 -3t-1 -2.5q0 -5 2 -9t5.5 -7t7.5 -5.5t7 -5.5t5.5 -6.5t2.5 -7.5q0 -5 -3.5 -6.5t-7.5 -1.5t-8.5 1.5t-8.5 1.5q-3 0 -4.5 -1.5t-1.5 -4.5q0 -5 3.5 -9t8 -6t10 -3t9.5 -1q3 0 5.5 -0.5t5.5 2.5l9 9v2v3q0 6 -2.5 8.5l-6.5 6.5q0 1 1.5 2.5t2.5 1.5q4 0 6.5 -2
t3.5 -4.5t2 -5.5t1 -6q0 -7 -1.5 -10.5t-4 -5.5t-6 -4t-7.5 -5q-5 -4 -7 -7.5t-6 -8.5q-1 -1 -2.5 -3.5t-3.5 -5l-4 -5t-3 -3.5v-21q-5 0 -7 0.5t-3 4.5q0 1 -0.5 4.5t-0.5 4.5q0 4 0.5 7.5t1.5 7.5q3 2 5.5 4.5l5 5t4 6t1.5 7.5q0 1 -2 2t-5.5 2.5t-7.5 3t-7.5 5t-5.5 8
t-2 10.5q0 5 3 8.5t8 3.5t10 -2.5t10 -2.5q2 0 3.5 1.5t1.5 3.5q-5 4 -10.5 7.5t-10 7.5t-7.5 10t-3 13zM136 82q0 5 2 8.5t5 5.5t7.5 2.5t9.5 0.5t10 -0.5t9 -2t6.5 -5.5t2.5 -11q0 -3 -2 -5.5t-5.5 -4.5t-7 -2.5t-6.5 -0.5q0 4 1.5 6t4 3.5t4.5 4t2 5.5t-2 4t-5 2t-5.5 1
h-3.5q-2 0 -5.5 -0.5t-6 -1.5t-4.5 -3t-2 -5q0 -4 2.5 -6t6 -4t6.5 -3.5t5 -3.5v-5.5t0.5 -7.5t0.5 -7.5v-4.5v-1v-1v-5t-0.5 -7t-0.5 -7.5v-4.5q-2 -2 -3 -2.5t-3 -0.5q-3 0 -3.5 1t-0.5 3q0 10 1.5 21t1.5 19q-1 5 -5 7.5t-7.5 5t-6.5 5.5t-3 8zM120 61q0 3 4 3q5 0 9 -3
t7 -7.5t4.5 -10t1.5 -9.5v-6l-2.5 -2.5t-2.5 -0.5h-2.5t-1.5 1v18l-1.5 1t-3.5 3l-4 4l-3 3q-2 1 -3.5 2t-1.5 4zM183 22h-1.5t-1.5 1v19q0 3 2 6t4.5 6t6 5t5.5 2t4 -1t2 -4q0 -2 -3 -3.5t-6.5 -5t-6 -9t-2.5 -15.5q0 -1 -1 -1h-2z" />
</svg>
