<?xml version="1.0" standalone="no"?>
<!DOCTYPE svg PUBLIC "-//W3C//DTD SVG 1.1//EN" "http://www.w3.org/Graphics/SVG/1.1/DTD/svg11.dtd" >
<svg xmlns="http://www.w3.org/2000/svg" xmlns:xlink="http://www.w3.org/1999/xlink" version="1.1" viewBox="-10 0 266 256">
   <path fill="currentColor"
d="M119 246l0.5 1.5t1.5 1.5q0 1 0.5 1.5t1.5 0.5h82q2 0 3 -2t1 -3q0 -2 -1 -3.5t-3 -1.5h-34v-23q0 -1 3 -1t7 -0.5t8 -1.5t7 -4l-2 -3h-23v-2.5t-0.5 -6.5t-0.5 -8.5t-1 -6.5v-2q0 -2 2 -3t4 -1t5 2t6.5 4.5t6.5 5.5l4 4l2.5 2.5l3.5 3.5l3.5 3.5t2.5 1.5v1h1
q2 0 3.5 -1.5t1.5 -3.5q0 -6 -6 -11t-13.5 -10t-14.5 -9t-10 -8q-2 -3 -1.5 -5.5t0.5 -6.5q1 0 4 -0.5t4 -0.5q4 1 7 4t6.5 5.5l7 5t7.5 2.5h1q0 -1 1.5 -1.5l1.5 -0.5v-1q0 -5 -6 -9.5t-13.5 -7.5t-13.5 -5.5t-6 -5.5v0v0q5 -1 11 -2t11.5 -3.5t9.5 -7t4 -11.5q0 -8 -3 -12
t-8 -5.5t-10 -1.5h-12q-1 1 -1.5 0.5t-1 -1.5t-0.5 -2v-2q0 -6 1.5 -8.5t6.5 -4.5t7.5 -7t4 -10.5t2 -9.5t1.5 -4h21q1 0 2 -1.5t1 -2.5q1 -2 -1 -4t-3 -2h-21q0 -1 0.5 -3t0.5 -5v-5v-3q0 -2 -2 -5t-4 -3t-3.5 4t-1.5 6q0 1 -0.5 3t-0.5 4t0.5 4.5l0.5 2.5q-1 2 -3.5 3
t-4.5 1h-1q-1 0 -4 -0.5t-5.5 -0.5t-4.5 -0.5l-2 -0.5q-1 0 -2.5 -0.5t-1.5 -1.5v-16q0 -2 -2 -2h-3h-2q-2 0 -2 2v15q0 3 -4.5 3h-9.5t-9 0.5t-4 5.5q0 2 1.5 3.5t3.5 1.5h20q1 0 1.5 0.5t0.5 1.5l1.5 3t0.5 3v2.5t1 4.5t3.5 6.5t5 6.5t4.5 5.5l2 2.5q0 6 -2.5 8t-5.5 2.5
t-8 0.5q-4 0 -7.5 1.5t-5.5 5t-2 11.5t3.5 12t8 6t8 4t3.5 6v2v1q-2 1 -6.5 4.5t-9.5 7.5t-9 8t-4 6q0 4 3 4q5 0 8.5 -3.5t7 -7.5t7.5 -7.5t9 -3.5q0 7 -3.5 12t-8 9.5t-10.5 8.5t-10 8q-1 1 -2.5 2t-2.5 2l-2 2l-1 1v7q6 0 11 -4.5t9.5 -10t9 -10t8.5 -4.5h1q1 6 1.5 11.5
t0.5 11.5v5q0 3 -1 3l-3 4h-16q-2 0 -2 2v3v2t2 2h18v21l-2 1q0 1 -1.5 1.5l-1.5 0.5h-32q-1 0 -2 1.5t-2 2.5zM52 199q0 8 2 11t5 4t5 1.5t3 2.5q1 0 3.5 0.5l2.5 0.5q9 0 13.5 -4.5t7 -11.5t4 -14.5t5.5 -14.5q1 -1 2 -2.5t2 -2.5t2 -2.5t1 -4.5q0 -1 -1 -1.5t-3 -0.5
q-4 0 -6.5 3.5t-4.5 8.5t-3.5 11.5t-3.5 11.5t-5 8.5t-7 3.5h-5t-4 -1t-3.5 -3t-1.5 -5q0 -7 4.5 -13.5t10 -12.5t10.5 -12t5 -12q0 -5 -1.5 -9.5t-4 -8.5t-6 -6.5t-7.5 -2.5t-5.5 3t-3 7t-4 7t-7.5 3q-3 0 -5 -4t-2 -7q1 -7 4.5 -13.5t8.5 -12t11.5 -8.5t12.5 -3q5 0 10 2
t9 6t6.5 9.5t2.5 11.5v3v3q-1 2 -2 3t-3 1q-4 0 -5.5 -3t-2.5 -7t-2.5 -7.5t-6.5 -3.5q0 5 1 10.5t3 10.5t5.5 8t8.5 3q1 0 3 -0.5l4 -1t3.5 -1.5t1.5 -3v-27q0 -7 -4.5 -11.5t-10.5 -7.5t-10.5 -5t-5.5 -4q0 -3 -0.5 -6.5l-1 -7t-1.5 -6.5t-3 -6q-3 -4 -5.5 -6t-4 -3.5
t-2.5 -4t-1 -7.5q0 -3 0.5 -6t0.5 -7t-1 -7t-4 -3t-4 2t-1.5 4.5t-0.5 5.5v4q0 9 3 16t6 12.5t6 11.5t3 13v3q-7 5 -13.5 8.5t-12.5 7.5t-9.5 10.5t-3.5 18.5q0 4 1 8t3.5 7.5t5.5 5.5t7 2q5 0 8 -2.5t5 -6.5t4 -7t5 -3t5 4v4v4v6q0 3 -2 5l-23 26q-3 4 -4 8t-1 9zM140 110
q0 -4 3 -6.5t6.5 -3t7.5 -0.5h6v23q0 1 -2.5 2.5t-4.5 1.5q-5 0 -10.5 -5t-5.5 -12zM171 116q0 -7 1.5 -11.5t7.5 -4.5q3 0 6 0.5t5.5 2t4.5 3.5t2 5q0 5 -1.5 7t-4.5 3.5t-6 1.5h-6h-3h-3q-1 -2 -2 -3.5t-1 -3.5zM155 55q0 -3 0.5 -5t2.5 -3h3t4 -0.5t3.5 -1t2.5 -0.5h3
q2 0 4.5 1.5t2.5 4.5q0 6 -3 11t-9 5q-3 0 -5 -0.5t-4.5 -2.5t-3.5 -4.5t-1 -4.5z" />
</svg>
