<?xml version="1.0" standalone="no"?>
<!DOCTYPE svg PUBLIC "-//W3C//DTD SVG 1.1//EN" "http://www.w3.org/Graphics/SVG/1.1/DTD/svg11.dtd" >
<svg xmlns="http://www.w3.org/2000/svg" xmlns:xlink="http://www.w3.org/1999/xlink" version="1.1" viewBox="-10 0 266 256">
   <path fill="currentColor"
d="M147 204l3.5 7t5.5 10t5.5 10l3.5 7q3 5 5.5 8t8.5 5q1 0 3 -0.5t3.5 -1t2.5 -1.5t1 -3v-1l-3.5 -3.5t-6 -5.5t-6 -6t-3.5 -4q-1 0 -2 -1.5l-2 -3l-2 -3t-1 -2.5v-1v0q3 -2 4 -3t2 -1.5t2 -2t2 -4.5q5 -1 10 -1q4 0 8.5 -0.5t8.5 -3t6 -7.5v-5v-6v-7t-1 -5.5t-2.5 -4.5
t-4.5 -5q-1 0 -2.5 -1l-3 -2l-3 -2t-1.5 -2q-1 -1 -1 -3t-0.5 -4t-1.5 -3.5t-4 -1.5q-2 0 -2.5 1.5t-0.5 4v5.5v4q0 4 2.5 5.5t5 2t5.5 1.5t3 5l0.5 2t0.5 4.5t0.5 5t0.5 3.5v1q0 3 -1.5 5t-3.5 3l-4 2t-4 1h-3t-2 -2v-19q0 -2 -1.5 -3t-3.5 -1.5t-4 -0.5h-3q0 6 1.5 13.5
t2.5 13.5q-2 2 -4.5 6t-5.5 4t-4 -2.5t-2 -7t-1.5 -9l-1 -9t-2 -7t-3.5 -2.5h-1l-0.5 0.5t-0.5 1.5v20q0 2 -1 2.5t-2.5 1t-3.5 0.5h-2q-6 0 -9 -4.5t-3 -10.5t1.5 -10t4.5 -6t6 -3.5t6 -4.5t5 -7t2 -12h-6q0 7 -4 11.5t-9.5 9t-10 10t-4.5 16.5q0 5 2 11t7 9h3.5t5.5 -0.5
t6 -0.5h4h1h1l1.5 0.5zM53 177q0 2 0.5 5t2 5.5t3.5 4t5 1.5q10 0 15 -4t7.5 -10t4 -12.5t6.5 -12.5l2 -2l4 -4l4 -4t3 -2v-3v-3t-2 -2q-4 0 -7 3.5t-6.5 9t-7 11.5t-6.5 11.5t-6 9t-5 3.5q-4 0 -5 -3t-1 -6q0 -7 3.5 -12.5t8 -10t8 -10t3.5 -13.5q0 -2 -0.5 -6t-2 -7.5
t-3.5 -6t-6 -2.5t-6.5 2.5t-4.5 6t-4 6.5t-5 3t-3.5 -2.5t-0.5 -4.5q0 -6 3.5 -13t9 -13t12 -10t13.5 -4h1l1.5 0.5t1.5 1.5q11 6 17 13t6 19q0 3 -3 4.5t-6 1.5q-4 0 -6 -3t-3 -7t-2 -8.5t-1 -6.5l-0.5 -0.5l-0.5 -0.5l-0.5 0.5l-0.5 0.5l-0.5 0.5l-0.5 0.5v9q0 7 1 13
t7 10h8q6 0 9 -1t4.5 -3t2 -6t0.5 -9t-1 -9t-2.5 -7.5t-5 -7l-7.5 -7.5q-4 -1 -8 -1.5t-8 -1.5q0 -1 -0.5 -3t-0.5 -4t-0.5 -4t-0.5 -3v-2t-0.5 -2.5t-0.5 -2.5t-1 -1q-1 -5 -4 -6.5l-6 -3t-5.5 -4t-3.5 -9.5l-2 -12l-1.5 -3t-2.5 -1t-2.5 0.5l-1.5 1.5v11q0 9 1.5 14t4.5 8
t6 4.5t5.5 3.5t4 4.5t1.5 6.5q0 3 -6 6.5t-13.5 9.5t-13.5 15t-6 23v6.5t1 6t3.5 4.5t6.5 2q5 0 7 -3.5t4 -8t3.5 -8t6.5 -3.5q3 0 4 3t1 5q0 9 -4 15t-9.5 12t-9.5 13t-4 15zM163 142q1 1 2 1h2t2.5 -1.5t2.5 -3.5t1 -4.5v-3.5t0.5 -6t0.5 -10.5t0.5 -10t0.5 -6.5l0.5 -0.5
l0.5 -0.5q4 -1 8 -1.5t8.5 -1t9 0t7.5 0.5l0.5 -0.5t0.5 -1.5v-1q0 -3 -2.5 -4t-5.5 -1q-6 0 -11 0.5t-12 0.5q-1 0 -2.5 -1t-1.5 -2v-14q0 -2 -0.5 -5t0 -6t0.5 -6t1 -6q2 -3 5.5 -5t7.5 -3.5t7 -4t3 -6.5q0 -3 -1 -4t-4 -1h-3l-10.5 7t-8 7.5t-5.5 9.5t-2 11v6v8v8.5v5.5
l-2 2h-29l-0.5 1t-1.5 2v0v0v1v0q1 1 3 2.5l2 1.5h26q1 0 2.5 2l1.5 2v1q0 9 -2 17.5t-2 17.5v6zM134 130v2t2 2q3 0 5.5 -4.5t4.5 -10t3.5 -11.5t1.5 -8q-2 0 -4.5 4.5t-5.5 9.5t-5 10t-2 6zM182 101q0 8 3.5 17t7.5 16h1h1q7 0 7 -6q0 -4 -1.5 -8.5t-4.5 -8.5t-6.5 -7
t-7.5 -3zM138 48q0 3 0.5 8.5t1.5 11t2 9.5t3 4h2t1 -2q0 -1 0.5 -4t0.5 -5q0 -3 0.5 -7t-0.5 -7.5t-3.5 -5.5t-7.5 -2zM199 46l-2.5 4t-5.5 9t-5.5 9.5l-2.5 4.5q0 1 -0.5 4.5t-0.5 4.5q4 0 7.5 -4t6.5 -9t4.5 -10t1.5 -8v-3.5t-3 -1.5z" />
</svg>
