<?xml version="1.0" standalone="no"?>
<!DOCTYPE svg PUBLIC "-//W3C//DTD SVG 1.1//EN" "http://www.w3.org/Graphics/SVG/1.1/DTD/svg11.dtd" >
<svg xmlns="http://www.w3.org/2000/svg" xmlns:xlink="http://www.w3.org/1999/xlink" version="1.1" viewBox="-10 0 266 256">
   <path fill="currentColor"
d="M164 178v71q0 1 1 1.5t2 0.5q4 0 5.5 -2.5t1.5 -6.5t-0.5 -6.5t-1.5 -6.5v-50l1 -0.5t2 -0.5h2q1 0 4.5 -0.5t7.5 -1t7.5 -0.5h4.5h2.5t4.5 -0.5t3.5 -1.5t0.5 -3q0 -1 -1 -2t-2 -1h-5q-9 0 -17.5 0.5t-16.5 0.5v-17q9 -1 15.5 -2t10.5 -4.5t6.5 -9t2.5 -15.5
q0 -13 -2.5 -20t-7.5 -10t-13 -3.5t-19 -0.5h-3t-3.5 0.5t-3.5 0.5h-2q-9 1 -14.5 7.5t-5.5 15.5q0 14 2 21.5t5.5 11.5t7.5 5t7 2t6 2.5t3 5.5v2.5v4t-0.5 4t-0.5 2.5h-35l-1.5 1.5t-1.5 2.5v1q0 2 1.5 2h3.5q9 0 18 -0.5t18 -0.5zM56 177q0 5 3 9t8 4q6 0 11.5 -5
t10 -12.5t9 -14.5t8.5 -11v-5q-4 0 -7.5 3t-6.5 7t-5.5 8.5l-5 9t-5.5 7t-6 2.5h-1q-1 0 -2 -0.5l-1 -0.5v-4q0 -8 3 -14t6.5 -12t6.5 -12.5t3 -13.5v-5t-1 -5.5t-2.5 -4t-5.5 -1.5q-5 0 -7.5 3.5t-4.5 7t-4.5 7t-6.5 3.5h-1q0 -1 -2 -3t-2 -3h-1v0q0 -9 3 -15t7.5 -10.5
t10 -7.5t12.5 -5h2q4 0 9 2t9 5.5t7 8.5t3 10q0 2 -1 5t-4 3q-5 0 -6.5 -4t-2.5 -8t-2.5 -7.5t-5.5 -3.5q0 4 1 9.5t3 10.5t6 8t9 3q6 0 7.5 -4t1.5 -10q0 -8 -2.5 -13.5t-7.5 -9.5t-11 -7t-13 -5q-2 -1 -3 -3.5t-2 -6t-1.5 -6.5t-1.5 -5q-2 -2 -5 -4.5t-5.5 -4.5t-4 -4.5
t-2.5 -6.5v-4v-6v-6v-4t-1 -1.5t-2 -0.5h-1q-2 0 -3.5 2.5t-2 5.5t-0.5 6v4q0 8 4 13t9 9t8.5 8.5t3.5 10.5q0 5 -3.5 8t-8 5.5l-9 5t-5.5 7.5q0 1 -1 4t-2 5.5t-1.5 5.5t-0.5 4v1q0 3 0.5 6.5t1.5 6t3 4.5t5 2q6 0 9 -3.5t5.5 -7.5t4 -7.5t4.5 -3.5q2 0 3.5 1.5t1.5 3.5
q0 9 -4 16t-8 13.5t-7.5 13t-3.5 14.5zM141 132q0 -3 1.5 -4.5t4 -2t5 -0.5h3.5h3h2l2 2v15q0 2 -2 3t-4 1q-5 0 -10 -4t-5 -10zM170 144q0 -1 -0.5 -2.5t-0.5 -3t-0.5 -3t-0.5 -2.5v-1q0 -5 3.5 -7.5t8 -3.5t10 -0.5t9.5 0.5q0 5 -2 9.5t-5 8t-6.5 5.5t-8.5 2q-1 0 -3.5 -1
t-3.5 -1zM154 94q1 0 3.5 0.5t2.5 3.5v15q0 1 -1 2t-2.5 1.5t-2.5 1t-2 0.5t-3 0.5t-4 0.5h-5h-3q0 -4 1 -8.5t2.5 -8t5 -6t8.5 -2.5zM168 105v-5.5t2 -5.5h7q3 0 6.5 0.5t6 2t4 4t1.5 6.5t-2 6t-4.5 2.5t-6 1t-5.5 0.5q-7 0 -8 -3.5t-1 -8.5zM176 23h-1l-2 2l-1 1v31
q0 8 4 12t11 4q3 0 6.5 -1t6 -3t4.5 -5t2 -7v-34l-1 -3l-1.5 -1.5l-0.5 -0.5l-6 4v14l-2 2h-3h-3q-2 0 -5.5 0.5t-5.5 -2.5q1 -1 1 -6t-2 -7h-1zM125 22v12v14t2.5 13t6.5 10h7q9 0 13 -3.5t6 -9t2 -12.5t2 -14v-2q0 -3 -2 -5t-5 -2q-1 0 -1 3q0 2 -1 5.5t-3.5 6t-9.5 2.5
h-2h-3q-1 -2 -2 -5t-1.5 -6t-2.5 -5t-6 -2zM178 53v-2.5v-1.5q2 -1 4.5 -2t5 -1t5 -0.5t3.5 -0.5q2 0 2 3v4q0 5 -2 8.5t-8 3.5q-5 0 -7.5 -3t-2.5 -8zM134 55q0 -3 1.5 -4.5t3.5 -2.5t4.5 -1h4.5q3 0 4.5 2t1.5 5q0 2 -0.5 4.5t-2.5 3.5h-6q-4 0 -7.5 -0.5t-3.5 -6.5z" />
</svg>
