<?xml version="1.0" standalone="no"?>
<!DOCTYPE svg PUBLIC "-//W3C//DTD SVG 1.1//EN" "http://www.w3.org/Graphics/SVG/1.1/DTD/svg11.dtd" >
<svg xmlns="http://www.w3.org/2000/svg" xmlns:xlink="http://www.w3.org/1999/xlink" version="1.1" viewBox="-10 0 266 256">
   <path fill="currentColor"
d="M126 158v5t2 4q1 1 2 2.5t2 2.5t2 1.5l1 0.5h18q1 0 1.5 1t0.5 2q2 9 3 15.5t2 11t2.5 8t4 7.5t7.5 8.5t13 10.5q2 1 4 3t4.5 3.5t5 2.5t4.5 1q3 0 4.5 -2t1.5 -5q0 -5 -6 -9.5t-13 -8.5t-13 -7.5t-6 -7.5h0.5h0.5q2 -3 3.5 -6t2.5 -6.5t2.5 -7t3.5 -6.5q5 -1 10 -2.5
t8.5 -4t5.5 -6.5t2 -10v-48q0 -6 -1.5 -9t-5 -4t-8 -0.5t-10.5 0.5l-1 -1v-18l1 -3q6 -1 10.5 -2t7.5 -3t4.5 -5.5t1.5 -10.5t-2.5 -10.5t-6.5 -5t-9.5 -1.5t-12.5 -1l-1 -1v-7.5t-1 -8.5t-3.5 -6.5t-6.5 -2.5q-3 0 -4 1t-1 4q0 4 1 7.5t1 7.5t-2 6.5t-6 3.5t-8 1.5t-7.5 2
t-6 5t-2.5 9.5q0 9 3.5 12.5t7.5 5t7.5 1.5t3.5 2v18q-1 0 -3 0.5t-4.5 0.5t-5 1t-4.5 1q-4 3 -6.5 11t-4 17.5t-1.5 17.5v11zM57 185q0 3 2 6t4.5 4.5t6 3t7.5 1.5q7 0 11 -2.5t7 -6.5t5 -9l4 -10q1 -1 2.5 -3.5l3 -5l3 -5t1.5 -4.5v0q0 -2 -1 -2.5t-3 -0.5q-5 0 -7.5 3
t-4.5 7.5t-3 9.5t-3 9t-5.5 7t-9.5 3q-2 0 -3.5 -1t-2.5 -3t-1.5 -3.5t-0.5 -3.5q0 -7 4.5 -12.5t10 -10.5t10 -10.5t4.5 -13.5t-3 -13t-12 -5q-5 0 -8 2t-5.5 4.5t-5.5 5t-7 3.5q-3 -2 -3 -5v-6q0 -6 3 -11.5t7.5 -9.5t10.5 -7.5t11 -5.5q2 -5 3.5 -8.5t1.5 -8.5v-6
q-4 -4 -8 -9.5t-7 -11.5t-4.5 -12t-1.5 -12q0 -1 -1 -1h-2q-3 0 -5 1.5t-2.5 4t-1 5.5t-0.5 5q0 1 0.5 4t0.5 4l2 2t1.5 2l1 2t2.5 3q0 1 1.5 3t3.5 4l4 4l2 2q2 2 2 6v6v6q-1 2 -4.5 3.5t-8 3.5t-8.5 4t-6 5q-1 1 -2 3l-2 4l-2 4l-1 2v25q0 2 1.5 3.5t3.5 2t4.5 1t3.5 0.5
q5 0 7.5 -2.5t5 -6t5 -6.5t6.5 -3t6.5 3.5t2.5 7.5t-3 8t-7 7.5l-8 7t-6 6.5q-1 1 -2.5 4l-3 6l-3 6t-1.5 4v3zM163 183v-117l2 -19q0 -2 3 -3t4 -1q3 0 5 2v22v21q0 23 -1.5 45t-1.5 44v5t-0.5 7.5t-2 7t-5.5 3.5h-1zM182 167v-5v-6q0 -1 0.5 -3.5t0.5 -4.5t0.5 -3.5
l0.5 -1.5h15q2 0 2.5 3.5t0.5 5.5t-0.5 5.5t-2.5 6t-5 5t-6 2.5q-2 0 -3.5 -1t-2.5 -3zM136 154q0 -6 1 -9.5t3 -5t6 -1.5h10q0 7 -0.5 14t-2.5 14q0 1 -2 1h-3q-7 0 -9.5 -2.5t-2.5 -10.5zM184 133v-27h15l0.5 0.5l1.5 1.5l0.5 1.5l0.5 1.5v22q0 1 -1 1.5t-2 0.5h-3h-5h-3
h-2zM138 127q0 -4 0.5 -7.5t2 -7t4 -5.5t6.5 -2q2 0 3 2.5t1.5 6t1 7.5t0.5 5q0 2 -0.5 3.5t-1.5 2.5h-6h-3.5t-3.5 -0.5t-3 -1.5t-1 -3zM91 94q0 4 1.5 9t4.5 9.5t7 7t8 2.5q2 0 4.5 -0.5t4 -2t2.5 -3t1 -4.5v-17l-1 -1.5t-2.5 -3.5t-2.5 -3q-2 -2 -4.5 -3t-5 -2.5t-5.5 -2
t-5 -0.5v0v0q-1 0 -1.5 0.5l-0.5 0.5v2q0 2 3.5 4t7.5 5t7.5 7t3.5 9q0 3 -2.5 3.5t-4.5 0.5q-6 0 -8 -3t-3.5 -6.5t-2.5 -7t-4 -3.5v0.5v0.5q-1 0 -1.5 0.5t-0.5 1.5v0zM143 66v-2.5v-2.5q0 -5 1.5 -9t7.5 -4q1 0 2 2t1 4v4v2v3v3q-1 2 -2.5 2.5t-3.5 0.5t-3.5 -0.5
t-2.5 -2.5zM186 55q0 -4 0.5 -6.5t4.5 -3.5v0q5 0 6.5 3t1.5 6q0 5 -1.5 8.5t-7.5 3.5h-3q0 -1 -0.5 -4.5t-0.5 -5.5v-1z" />
</svg>
