<?xml version="1.0" standalone="no"?>
<!DOCTYPE svg PUBLIC "-//W3C//DTD SVG 1.1//EN" "http://www.w3.org/Graphics/SVG/1.1/DTD/svg11.dtd" >
<svg xmlns="http://www.w3.org/2000/svg" xmlns:xlink="http://www.w3.org/1999/xlink" version="1.1" viewBox="-10 0 266 256">
   <path fill="currentColor"
d="M97 245q0 2 2.5 3t5.5 1.5t5 0.5h4q5 0 8.5 -1t7 -3t7 -4.5t7.5 -4.5q1 -1 5 -1t8 -0.5t6.5 -1.5t2.5 -4q0 -2 -1 -2.5t-3 -1t-4 -0.5h-3h-2l-2.5 0.5t-4.5 1l-4 1t-3 0.5q-1 2 -4 4t-7 4.5t-7.5 4.5t-5.5 2q-4 0 -6.5 -1t-2.5 -5q0 -5 4 -8.5l8 -7t7.5 -6.5t3.5 -7
q0 -6 -4.5 -8.5t-9.5 -2.5q-3 0 -5.5 1l-5 2t-4.5 2t-5 1h-3.5t-2.5 -1v-8q0 -1 1 -2l2.5 -2.5t3.5 -3t3 -2.5q1 0 3.5 -1t6.5 -2.5t7 -2.5t4 -2q3 -1 4.5 -3.5t2 -5.5t0.5 -6.5v-6.5q0 -2 -1.5 -4t-4.5 -2h-2t-1 1v4v5v4v3q0 4 -3.5 6t-8 3t-8.5 2.5t-6 3.5q-2 1 -3.5 2.5
t-2.5 3t-2.5 3t-4.5 2.5v17q0 1 1.5 2t3.5 1h4h2q3 0 6 -1l6 -2l6 -2t6 -1q2 0 3 0.5t1 2.5q0 4 -3 7l-7 7t-7.5 9t-3.5 13zM134 193q0 4 1.5 7t4.5 6t6.5 4.5t7.5 1.5q3 0 7 -0.5t7.5 -2t5.5 -4t2 -6.5q0 -6 -5 -11t-12 -8t-14.5 -4.5t-12.5 -1.5h-1l-1 0.5t-1 1.5v0v0
q0 2 3 3t7 2t9 2t9 3t6.5 4.5t2.5 6.5q0 5 -4 7t-8 2h-1l-14 -13h-5zM58 181q0 2 1 3t3 1q3 0 9 -3t12.5 -7t12 -8.5t7.5 -8.5q2 -2 3.5 -5t2 -6l1 -6t2.5 -6q1 -4 3.5 -6.5t2.5 -7.5q0 -7 -5 -11t-12.5 -6t-15.5 -2.5t-13 -0.5h-9q-2 1 -2 4q0 2 1 2.5t3 0.5l38 3
q2 0 3 1.5t1.5 3.5l1 4t0.5 3q0 2 -0.5 3.5t-3.5 1.5h-2l-1 -0.5t-2 -1.5t-2 -1.5t-1 -1.5q-7 -2 -11.5 -2.5t-11.5 -0.5h-5t-5.5 0.5t-4 2t-1.5 5.5h29l10 5v0.5v0.5q0 3 -1.5 4.5t-4 2.5t-5 1t-3.5 1h-5t-6.5 0.5t-7 0.5h-4.5t-2 1.5t-1 2.5l0.5 1l0.5 1q1 0 3 0.5t3 0.5
q9 0 17 -1.5t17 -1.5q0 6 -3 10t-7.5 7t-9.5 4.5t-9.5 3t-7.5 3.5t-3 5zM140 129v14.5t2 13.5q2 4 7.5 8.5t12.5 8.5t14 7t11 3q3 0 3 -1.5v-2.5q0 -3 -3 -5t-7.5 -4t-10 -3.5t-10 -3t-8 -4.5t-3.5 -7q0 -2 1 -4t3 -2q4 0 8 1t8 2.5t7.5 2.5t8.5 1l1.5 -0.5l3 -1t2.5 -1
t1 -1.5q0 -2 -2 -3t-3 -1t-4 -0.5t-6.5 -0.5t-6.5 -0.5t-4 -0.5t-3 -0.5t-3.5 -1.5l-3 -2t-1.5 -2q0 -3 3 -4.5t7 -2t9 -0.5t9 -1t7 -3t3 -5h-13t-11 1q-4 2 -9.5 4.5t-10.5 2.5q0 -1 -0.5 -4.5t0.5 -4.5q1 -6 6.5 -8.5t12 -3.5t11.5 -2t5 -5q0 -2 -2.5 -3t-4.5 -1
q-7 0 -13.5 2t-11.5 6.5t-8.5 10t-3.5 12.5zM55 85q0 2 1.5 4t3.5 2q3 0 4.5 -4t2.5 -9t2.5 -10t3.5 -7l1 1v22q0 1 1.5 3t3.5 2v0q1 -1 2.5 -2l1.5 -1v-22q6 0 7.5 3.5t2 7.5t1 7.5t4.5 3.5q1 0 1.5 -1t0.5 -2q0 -10 -2.5 -15t-5.5 -8.5t-5.5 -6t-2.5 -6.5t2.5 -5.5
t5.5 -3.5t6 -6.5t3 -12.5q-4 0 -5.5 2t-2.5 4.5t-2.5 4.5t-6.5 2v-17q0 -1 -0.5 -2l-0.5 -1h-1h-1q-1 0 -2 0.5l-1 0.5q0 1 -0.5 3.5t-0.5 5.5t-0.5 5.5t-0.5 3.5q0 2 -1 2.5t-3 0.5q-3 0 -5 -2.5t-3 -5.5t-2 -5.5t-4 -2.5t-4 2t-1 3q0 8 3.5 11t8 5t8 2.5t3.5 2.5
q0 1 -1.5 3.5t-3.5 4.5t-4 3.5l-2 1.5q-2 3 -3.5 6.5t-3 7.5t-2.5 8t-1 6zM155 87q0 1 0.5 2t1.5 2v0q4 0 5 -4.5t1.5 -9.5t1.5 -9t4 -4t3 1t1 3v5t0.5 6.5t0.5 6.5v5h1.5h1.5q2 0 3 -3.5t1.5 -8.5t0.5 -9.5t1 -5.5h0.5h0.5q4 0 5.5 4t2.5 9t2.5 9t4.5 3q2 -1 2.5 -2t0.5 -3
t-1 -5.5t-2 -7.5t-3 -7t-4 -5q-1 -1 -3 -1.5t-3.5 -1.5t-3.5 -2t-2 -3q0 -1 0.5 -2t2.5 -3q9 0 13 -4.5t4 -14.5v-4.5t-4 -2.5q-3 0 -4.5 2.5t-2 6.5t-1.5 6.5t-4 2.5h-2t-1 -1v-22q0 -4 -4 -4q-1 0 -2.5 1t-1.5 3v25q-6 0 -8 -3t-2.5 -6t-1.5 -6t-4 -3q-2 0 -2 2.5v3.5
q0 6 3 9.5t6 6t6 3.5t3 3t-3 4t-6 5t-6 8t-3 12v4v4zM123 76l2 0.5t2.5 1t2 1.5t3 2.5t3 2.5t1.5 2h6q0 -3 -2 -5t-4 -3.5t-3.5 -3t-1.5 -5.5v-1t1 -1q2 -3 4 -5t3 -4t1.5 -4t0.5 -6q0 -2 -1 -3.5l-2 -3l-2 -3t-1 -3.5t1 -4.5t3 -4.5l4 -4t3 -2v-1q0 -3 -3 -3t-5 1.5
t-3.5 3.5t-3.5 3.5t-5 1.5h-1.5h-1.5l-11 -11h-0.5h-0.5q-1 0 -2.5 0.5t-1.5 1.5v1q1 1 2.5 3t3.5 4l4 4l2 2q0 3 -2 5.5t-4 5.5l-4 6t-2 7q0 3 1 4.5t2.5 3t2.5 3.5t1 4t-1 3.5t-2.5 3t-2.5 3t-1 3.5q0 1 1.5 1h2.5h1v0zM113 53q0 -2 1.5 -4.5t3.5 -4.5t4.5 -3.5t3.5 -2.5
h0.5h0.5q2 0 3.5 1.5t2.5 3t2 3.5t1 4v1l-2.5 2.5l-3 3t-3 3.5l-1.5 2q0 1 -1 1.5l-1 0.5h-1v0l-10 -10v-0.5v-0.5z" />
</svg>
