<?xml version="1.0" standalone="no"?>
<!DOCTYPE svg PUBLIC "-//W3C//DTD SVG 1.1//EN" "http://www.w3.org/Graphics/SVG/1.1/DTD/svg11.dtd" >
<svg xmlns="http://www.w3.org/2000/svg" xmlns:xlink="http://www.w3.org/1999/xlink" version="1.1" viewBox="-10 0 266 256">
   <path fill="currentColor"
d="M50 246q1 2 2.5 2.5t3.5 0.5q4 0 5.5 -3.5t1.5 -7.5q0 -7 -1.5 -13.5t-1.5 -13.5v-1v-4t0.5 -5t0.5 -5v-3q1 -4 6 -4.5l10 -1t9.5 -1t4.5 -4.5q2 -6 2 -13v-13q1 -2 3 -2.5l4 -1t3.5 -1t1.5 -2.5q-2 -2 -4.5 -2.5t-5.5 -0.5q-7 0 -14.5 1.5t-14.5 1.5h-2.5t-2.5 -2
l0.5 -3t1.5 -3q0 -1 0.5 -5t0.5 -6l27 -4q2 -1 3.5 -2t1.5 -3v-16q0 -3 1.5 -3.5t3.5 -1l4 -1t2 -2.5q0 -1 -0.5 -2t-1.5 -1h-39v-3.5v-3.5v-2.5t1 -2.5q2 -4 7.5 -4t12 -0.5t11 -1t4.5 -4.5q0 -2 -1.5 -3t-3.5 -2t-4 -1.5t-3 -0.5v-4q0 -5 3.5 -6t8 -1.5t8 -5t3.5 -16.5v-7
q-1 -1 -2.5 -2t-2.5 -1t-2.5 1t-1.5 2q0 3 -0.5 7t-1.5 7t-4 5.5t-7 2.5l-1 -0.5t-1 -1.5v-30q0 -1 -2.5 -1.5l-2.5 -0.5q-2 0 -3.5 0.5t-1.5 2.5v28q0 2 -1.5 2.5t-2.5 0.5q-3 0 -6.5 -0.5t-4.5 -2.5q0 -1 0.5 -4.5t-0.5 -7.5t-2.5 -7t-4.5 -3v0v0q-1 0 -1.5 0.5t-0.5 1.5
v4.5v4.5q0 13 4.5 17.5t18.5 3.5q2 1 2.5 4.5t0.5 5.5v4q-3 2 -6.5 3t-7 1.5t-7 1.5t-5.5 5l-0.5 2.5t-0.5 5v4.5v3v23q-2 23 -3 46.5t-1 47.5v7v10.5v10.5v7zM133 227q0 9 5 14t13 5q3 0 5.5 -1t4.5 -3t4 -4.5t4 -5.5q3 -3 8.5 -5.5t8.5 -6.5q0 -1 1 -3.5l1 -2.5
q-10 0 -16.5 3.5t-11 8.5t-8 8.5t-7.5 3.5q-3 0 -4 -3t-1 -7q0 -5 2 -9.5t5 -9t5 -9.5t2 -11v-6t-1 -6.5t-3 -5.5t-5 -2v28q0 4 -2 7.5t-4.5 7.5t-4 7.5t-1.5 7.5zM108 184q0 9 5 13t13 4q2 0 4 -0.5t4.5 -1t4 -2t1.5 -3.5t-1 -2.5t-2 -0.5q-3 0 -5 1t-5 1q-5 0 -8 -2t-3 -7
q0 -6 2.5 -10.5t6.5 -7t9 -4t11 -1.5q3 0 7 0.5t8.5 1.5t8.5 2t6 2l4 4t2 5v3v3t-0.5 4t-0.5 4v3q-1 0 -2 0.5l-1 0.5h-2.5h-4.5h-3h-2q-2 1 -2 1.5v1.5v2t2 1h8q5 0 8.5 -0.5t6 -2.5t3.5 -6t1 -10q0 -10 -2.5 -15t-7.5 -6.5t-11.5 -2t-13.5 -1.5q-2 0 -5.5 -1t-3.5 -2v-17
q0 -2 -1 -2.5t-2 -0.5h-2t-1 2q0 1 -0.5 3t-0.5 4.5t-0.5 4.5t-0.5 3q0 2 -1.5 3t-3 1.5l-3 1t-2.5 0.5q-1 1 -3.5 1.5t-4.5 1.5t-4.5 2t-3.5 1q-3 5 -4.5 10.5t-1.5 11.5zM60 179q0 -6 1 -11t3 -8t6 -4.5t11 -1.5h2q2 0 3 2v6q0 10 -6.5 14.5t-16.5 4.5v0q-1 -1 -2 -1.5z
M156 123v19q0 2 1.5 2h2.5q2 0 4 -2t2 -4q0 -1 0.5 -3t1 -4.5l1 -5l0.5 -2.5h4q4 0 8 0.5t9 0.5q3 0 6.5 -0.5t3.5 -4.5q0 -2 -0.5 -3t-3.5 -1h-28q-3 0 -3.5 -2.5t-0.5 -3.5q0 -2 0.5 -3t3.5 -1q1 -1 3.5 -1t5 -0.5t5.5 -0.5h4q1 -1 3.5 -2.5t2.5 -3.5v-18q0 -3 -2 -3.5
t-3 -0.5t-2.5 0.5t-1.5 1.5q1 10 -2.5 15t-13.5 5h-1q0 -1 -0.5 -3.5l-0.5 -2.5l-0.5 -0.5l-0.5 -0.5q0 -4 1 -5.5t2.5 -2.5t3.5 -1.5t4 -1.5t3.5 -5t3 -7.5t2.5 -7t2 -3.5h18q1 0 1.5 -1.5l0.5 -1.5q0 -1 -0.5 -2t-1.5 -1h-4h-4h-2h-3h-2h-2h-14t-18 0.5t-15 0.5h-6l-12 5
l1 2h16l0.5 1.5t0.5 2.5l0.5 2l1 4l1 4l0.5 2q2 4 4.5 4.5t4.5 1t3.5 2t1.5 7.5q0 4 -2 6t-5 2q-8 0 -10.5 -2.5t-3.5 -5.5t-2 -5t-4 -2h-2q-1 2 -1.5 4t-0.5 5q0 4 1.5 7t5.5 5l2 0.5t4.5 0.5t4 0.5t2.5 0.5t4.5 -0.5t5.5 -0.5q0 1 0.5 3.5l0.5 2.5q-2 5 -8 6t-12.5 1
t-11 1t-4.5 5h35zM62 117q0 -3 0.5 -8t4.5 -6q1 0 2.5 -0.5t3.5 -0.5t4 -0.5l2 -0.5h1.5h1.5q7 0 7 7q0 4 -2 6.5t-5 4t-7 2t-7 0.5t-4.5 -0.5t-1.5 -3.5zM148 63v-3.5t3 -2.5h19q1 0 1.5 0.5t0.5 1.5v2v3q0 3 -1 4.5t-3 2.5t-4.5 1.5t-5.5 0.5h-7q-3 -2 -3 -5v-5zM187 27
h-3h-1q-1 0 -3 0.5t-4.5 1l-5 1l-2.5 0.5h-5t-8 0.5t-7.5 0.5h-4.5q-5 1 -8 1.5t-3 5.5q13 0 29 -0.5t29 -1.5q2 -1 2 -2v-3q0 -3 -1 -3.5t-4 -0.5z" />
</svg>
