<?xml version="1.0" standalone="no"?>
<!DOCTYPE svg PUBLIC "-//W3C//DTD SVG 1.1//EN" "http://www.w3.org/Graphics/SVG/1.1/DTD/svg11.dtd" >
<svg xmlns="http://www.w3.org/2000/svg" xmlns:xlink="http://www.w3.org/1999/xlink" version="1.1" viewBox="-10 0 266 256">
   <path fill="currentColor"
d="M99 232q0 8 4.5 13t11.5 5q8 0 13 -2t8.5 -6t6.5 -9t7 -10q2 -4 5 -6t5.5 -3.5t4.5 -4t2 -7.5q-6 0 -10.5 3t-8.5 7.5t-7 9.5t-6 9.5t-7 7.5t-9 3q-10 0 -10 -10q0 -7 4.5 -11t10.5 -7t10.5 -7.5t4.5 -13.5l-0.5 -3.5t-0.5 -4.5q-1 -3 -5 -4.5t-7 -1.5h-2v0l-20 9
q0 1 -1 1h-2q-2 0 -5 -1t-3 -4q0 -7 3 -12t8 -8q2 0 5 -0.5t7 -1t7 -1t4 -0.5q2 -1 3.5 -2t1.5 -3v-4t-1 -4t-2.5 -4t-2.5 -2q-2 0 -3 1.5t-1.5 3.5t-0.5 4v3q-3 1 -7 1.5t-7.5 1.5t-6.5 2.5t-5 4.5q-4 5 -8 9.5t-4 11.5q0 2 1.5 4t4 3.5t5 2.5t4.5 1q4 0 7.5 -1t6.5 -2.5
t6.5 -3t7.5 -1.5h6q1 1 1.5 2t0.5 3q0 6 -5.5 10t-12 8t-12 9t-5.5 12zM144 174l0.5 2t0.5 3q1 1 2.5 3t3.5 3.5t3.5 3l1.5 1.5h3h4h7q4 0 7 -0.5t5 -3t2 -6.5q0 -8 -4 -13t-10 -8t-13 -4t-13 -1q-2 0 -4.5 0.5t-4.5 2.5l2 2q5 1 11 1t12 2t10 5.5t4 10.5v4q-1 2 -4 2h-5h-4
q-3 0 -5 -2q0 -1 -1.5 -2.5l-3.5 -3.5l-3.5 -3.5t-2.5 -1.5l-0.5 1t-0.5 2zM49 174q0 2 0.5 3.5t2.5 1.5q4 0 8 -4.5t8 -10.5t8 -11.5t7 -8.5q1 0 3 -1t3.5 -2l3 -2t2.5 -1q2 -1 7.5 -2t11 -3t9.5 -4.5t4 -6.5q0 -7 -2 -12t-5.5 -8t-7.5 -5t-7.5 -3.5t-6 -3t-2.5 -4.5
t5 -4.5t11 -3.5t10.5 -5.5t4.5 -9.5q0 -4 -3 -4q-2 0 -3.5 2.5t-4 5.5t-6.5 5t-10 2q-3 0 -3.5 -1t-0.5 -5t1 -6.5t6 -3.5q5 -2 7.5 -4.5t3.5 -5t2 -4.5t3 -2l15 -4v-0.5v-0.5q0 -3 -2 -3.5t-4 -0.5h-1l-1.5 0.5t-2.5 1t-2 0.5h-2t-4 0.5t-6 0.5t-6 0.5l-3 0.5h-46
q-1 -1 -2 0t-1.5 3t-0.5 3.5v1.5h24l2.5 3t5 6.5t5 7.5t2.5 6q0 6 -3.5 7t-7.5 1q-5 0 -7.5 -3t-4 -7t-3 -7t-4.5 -3q-1 0 -2 0.5t-1 1.5v13q0 3 5 5.5t11 4.5t11 2.5l5 0.5v12l-2.5 1t-7 2.5l-9 3t-8.5 3.5t-7 4t-3 4t0.5 3.5t2.5 0.5q1 0 2.5 -0.5l3 -1l3 -1l1.5 -0.5h2
h2.5t1.5 2v13q0 1 2 1h2q5 0 5 -4t-2 -7.5t-2 -8.5q0 -3 2 -4.5t5 -1.5t5.5 2.5t4 5.5t2.5 7t1 7q0 2 -1.5 3.5t-3.5 2.5t-4 1.5t-4 1.5q-5 3 -9 6.5t-7.5 7.5t-6.5 8.5t-6 8.5q-3 3 -3.5 4t-0.5 3zM142 108q0 11 1 16.5t4 9t7 4.5t9 2t10.5 3t12.5 6q0 1 2.5 2.5t5 3.5
t5 3.5t3.5 2.5v0q2 0 2.5 -1.5t0.5 -2.5q0 -6 -4 -9.5t-10 -5.5t-13.5 -3.5t-13.5 -3.5t-10 -4.5t-4 -6.5t4 -4q6 0 11 1.5t10.5 4t10.5 4.5t11 2v-1v-2.5t-0.5 -2.5t-1.5 -1q-2 -1 -7.5 -3t-12.5 -4t-12.5 -4t-7.5 -2q-1 -1 -2 -1.5l-1 -0.5q-1 0 0 -1.5t1 -2.5q4 0 8.5 1
l9 2l9 2t9.5 1q1 0 3 -0.5t2 -2.5t-3.5 -3.5t-8 -2.5t-10.5 -1.5t-11 -1t-8 -2t-3 -3.5v-1q0 -1 0.5 -2t1.5 -2h7q7 0 12.5 0.5t14.5 1.5q2 1 4.5 2.5t4.5 1.5t4 -2t1 -4l-1.5 -1.5l-1.5 -1.5q-8 0 -19 -1.5t-18 -3.5q-2 0 -3 -0.5t-1 -2.5t3 -3t6.5 -1.5t8.5 -0.5t9 -1.5
t6.5 -4.5t2.5 -9t-3 -9.5t-8 -4.5t-10.5 -0.5t-10.5 0.5q-2 -1 -4.5 -2.5t-2.5 -4.5v-1q0 -1 0.5 -2.5t1.5 -1.5h40q1 0 1.5 -1t0.5 -2v-2v-3h-42q-2 0 -2.5 -2t-0.5 -4q0 -3 -0.5 -5t-3.5 -2q-4 0 -3 5v4t0.5 6.5t0.5 6.5t1 4q0 3 0.5 6.5t4.5 5.5h7.5t10.5 0.5t8.5 2.5
t3.5 6q0 5 -3 6t-7.5 1.5t-9.5 1.5t-9.5 5t-7.5 12t-3 23zM95 104q0 -4 3 -4q4 0 8 1.5t7 4t4.5 6t1.5 7.5q0 5 -2.5 6.5t-7.5 1.5h-3t-3 -2l-1 -2t-1.5 -4.5t-1.5 -4.5t-1 -2.5t-1.5 -3t-1.5 -3.5v0v-1zM87 46v-3h3t5 -0.5t5 -0.5h3h4q0 5 -3.5 9t-9.5 4q-3 0 -5 -2.5
t-2 -6.5zM110 17h-6t-5.5 0.5t-6 0.5t-7.5 1q-2 0 -6 0.5l-4 0.5v7h3.5h3.5q2 0 7 -0.5t10.5 -1t10.5 -1t8 -0.5v-3q0 -1 -0.5 -2t-1.5 -2h-6z" />
</svg>
