<?xml version="1.0" standalone="no"?>
<!DOCTYPE svg PUBLIC "-//W3C//DTD SVG 1.1//EN" "http://www.w3.org/Graphics/SVG/1.1/DTD/svg11.dtd" >
<svg xmlns="http://www.w3.org/2000/svg" xmlns:xlink="http://www.w3.org/1999/xlink" version="1.1" viewBox="-10 0 266 256">
   <path fill="currentColor"
d="M163 215q0 3 -3 5.5t-6 4t-6 3.5t-3 4v13q0 2 1 2.5t3 1t3.5 1t2.5 0.5q6 0 9.5 -1.5t6.5 -4t6 -5.5t7 -6q1 -1 3.5 -1.5l5 -1t4 -1.5t1.5 -3t-3 -2h-1h-1l-2.5 0.5t-4.5 1l-4 1t-3 0.5q-4 5 -10 9.5t-13 4.5q-2 0 -3.5 -1t-1.5 -3q0 -3 3.5 -6t8 -5.5t8.5 -6t4 -7.5
q1 -3 0 -5t-3 -3.5t-4.5 -2t-4.5 -0.5t-4.5 1t-4.5 2t-4.5 2t-4.5 1t-3 -1t-1 -3q0 -5 3.5 -8t8 -5t9.5 -2.5t9 -0.5h8.5t8.5 1t6.5 3.5t2.5 7.5q0 3 -0.5 5t-3.5 2q-1 0 -2 -0.5l-1 -0.5l-5.5 -5.5t-7.5 -3.5q0 4 1.5 7.5t4.5 7t6.5 5.5t7.5 2t6 -1.5t3.5 -4t2.5 -5.5t1 -5
q0 -8 -3.5 -12.5t-8.5 -6.5t-12 -3l-14 -2q1 -2 1 -4.5v-4.5t-1.5 -3.5t-3.5 -1.5h-3t-2 1v14q0 2 -4.5 3t-10 3.5t-10.5 7t-5 13.5q0 4 2 7t7 3q4 0 7.5 -2.5t7.5 -2.5q2 0 4 0.5t2 3.5zM62 236q0 5 3.5 8t8.5 3t8 -1t5 -3t3.5 -5t4.5 -6q1 -2 3.5 -3.5t5 -2.5l5 -2t2.5 -3
q0 -1 -0.5 -3t-1.5 -2l-2 1t-3 1q-6 1 -10 4.5t-7 7t-6 5.5t-7 2q0 -7 3 -10.5t6.5 -7t6.5 -7t3 -10.5q0 -6 -3 -8.5t-8 -2.5q-4 0 -6.5 2.5t-4.5 5t-4.5 5t-6.5 2.5q-2 0 -2.5 -2.5t-0.5 -4.5q0 -4 3 -8t8 -7t10 -4.5t9 -1.5q5 0 9.5 0.5t8.5 2.5t6.5 5.5t2.5 8.5q0 2 -1 4
t-4 2t-5 -2.5t-3 -5t-2 -4.5t-4 -2v0q-1 0 -1.5 0.5l-0.5 0.5v1q0 3 2 7t4.5 7t6.5 5t7 2t5.5 -1.5t4 -4t2 -5t0.5 -4.5q0 -8 -2.5 -12t-6.5 -6t-9 -2.5t-9 -0.5t-7 -0.5t-3 -1.5v-16l3 -4h22q1 0 2 -2t1 -3v-2q-6 -1 -13 -1.5t-13 0.5l-2 -2v-1.5v-2.5q0 -8 2.5 -9.5
t6.5 -1.5t8 -0.5t6 -5.5l1.5 -10.5t0.5 -9.5v-5q-1 -1 -2.5 -1.5t-2.5 -0.5q-2 0 -3 0.5t-2 3.5q-1 4 -0.5 8t-0.5 7.5t-3.5 5.5t-7.5 2q-1 0 -1.5 -0.5l-1.5 -1.5v-8v-3v-4.5t0.5 -4.5t1.5 -3l1.5 -1.5t3.5 -3t3 -3t2 -1.5q0 -1 0.5 -3t1 -5t0.5 -5v-3q-5 0 -6.5 1t-2 3
t-0.5 3.5t-3 3.5t-10 3.5l-14 3t-12 4t-5 5.5v2v1l0.5 2t1 4.5t1 4.5t0.5 3t0.5 5.5t0.5 8.5q0 5 -0.5 9t-0.5 6q6 4 13 5.5t14 2.5v18q0 1 -5 3t-11 5.5t-10.5 9t-4.5 15.5q0 12 11 12q5 0 8 -2.5t5 -5t4.5 -5t6.5 -2.5q0 4 0.5 5.5t0 3.5t-1.5 3.5t-3 3.5q-1 1 -3.5 3
t-4.5 4l-4 4l-3 3q-1 0 -1.5 2t-0.5 3v0v1zM123 149l0.5 1.5t1.5 1.5h18l1 0.5l1 0.5q2 4 2 7.5v8.5q5 0 6 -2.5t1.5 -6t1 -6.5t3.5 -4h6h8t7.5 -1.5t3.5 -4.5v0q-1 -1 -2 -1.5t-2 -0.5h-22q-1 0 -1.5 -0.5t-0.5 -1.5v-2v-1v-4q2 -2 5 -2t7 -0.5t7.5 -1t6.5 -2.5l-3 -3h-23
q-1 0 -1 -1t-0.5 -2t-0.5 -2v-1v-1q0 -2 1 -2q8 -2 14.5 -7.5t6.5 -14.5q0 -3 -2 -3h-4h-1.5h-1.5l-3 11l-1.5 0.5t-3.5 0.5h-2h-1t-1 -1v-19q0 -2 -2 -3t-3 -1q-2 0 -3 0.5t-1 2.5v21q0 2 -1 2h-2q-3 0 -4 -2t-1.5 -5t-2 -5t-4.5 -2q-1 0 -1.5 1t-1 2.5t-0.5 2.5v2q0 5 3 8
t6.5 4t6 1.5t2.5 1.5v12h-21l-1 2l-0.5 0.5l-0.5 0.5q0 2 1 2.5t2.5 1t2.5 0.5h3h2.5h4t4 0.5t2.5 0.5q1 1 1 2.5v2.5v3.5t-1 2.5h-20q-1 0 -1.5 2t-0.5 3zM193 165q0 2 1 3t2 1q3 0 4.5 -2.5t2.5 -4.5v-21v-12v-10.5t-0.5 -11.5t-1.5 -12q-2 -8 -8.5 -12.5t-12.5 -7t-11 -5
t-5 -5.5q0 -1 4.5 -1.5t10 -1t10.5 -1.5t6 -3q3 -4 3 -8v-9t1 -8t1 -7t-3 -4t-6 -1h-3t-3 3l1 3l1 3v1v1q-1 0 -2 1t-1 2q-15 2 -31.5 2.5t-30.5 0.5l-6 3q0 2 2.5 4t4.5 2q7 0 13.5 -1t13.5 -1q2 0 5 1t3 4q0 4 -4 5.5t-8 2.5q-2 0 -6 0.5t-9 1t-9 1t-6 0.5t-2 1.5v2.5v2
t2 2h8q7 0 14 -2t14 -2q3 0 4.5 1.5t2.5 3.5l2 4t3 4q4 2 8 3.5t8 2.5q1 0 2.5 0.5l1.5 0.5q4 5 6.5 11t3.5 12.5t1 13.5v12q0 6 -1 11.5t-1 10.5v9zM59 103q0 -2 1.5 -3t4.5 -1.5t5.5 -0.5h3.5h5l0.5 2l0.5 2v1v1q0 3 -0.5 8t-0.5 9.5v8v3.5q-1 3 -1.5 6t-4.5 3q-5 0 -8 -5
t-4.5 -12t-1.5 -13.5v-8.5zM51 71q0 3 1.5 3.5t3.5 0.5q7 0 14 -2.5t13 -3.5q1 -1 4 -1.5t5.5 -1t5 -1.5t2.5 -3v-14l-1 -0.5l-1 -0.5h-1h-1q-3 6 -10 9t-15 5t-14 4t-6 6zM166 50q0 -3 1.5 -4t4 -1.5t5.5 -0.5h5q2 0 3.5 0.5t1.5 3.5v0l-3 5q-1 0 -2.5 0.5t-3.5 0.5
t-3.5 0.5t-2.5 0.5h-2q-3 0 -3.5 -1t-0.5 -4zM49 48q0 3 1.5 3.5t3.5 0.5q6 0 12.5 -2t12.5 -3q6 -2 11 -3.5t8 -4.5t4.5 -7.5t1.5 -11.5q0 -1 -1.5 -4t-2.5 -3q-5 -1 -6 2t-1 6.5t-1 7t-4 4.5q-2 1 -7 2.5t-11.5 3.5t-11.5 4t-7 2q-2 1 -2 1.5v1.5z" />
</svg>
