<?xml version="1.0" standalone="no"?>
<!DOCTYPE svg PUBLIC "-//W3C//DTD SVG 1.1//EN" "http://www.w3.org/Graphics/SVG/1.1/DTD/svg11.dtd" >
<svg xmlns="http://www.w3.org/2000/svg" xmlns:xlink="http://www.w3.org/1999/xlink" version="1.1" viewBox="-10 0 266 256">
   <path fill="currentColor"
d="M120 248q0 2 3 2q4 0 5 -2t1 -5v-7.5t0.5 -7t3.5 -6t9 -3.5h10.5t16 -0.5t16 -0.5h10.5q1 -1 1 -1.5v-1.5v-2.5t-1 -1.5h-29l-3 -1l-0.5 -2t-1 -5t-0.5 -4v-1v-1q1 -1 2 -2.5t2 -1.5h25l0.5 -1l0.5 -1q0 -2 -1.5 -3.5t-2.5 -1.5h-24q-1 0 -1.5 -1.5l-0.5 -1.5v-4v-4v-3
v-2l2 -2h21q2 0 2.5 -1.5t0.5 -3.5t-1 -2t-4 -1h-4t-6 0.5t-5.5 0.5h-3.5v-13q5 0 8.5 1t6.5 2.5t5 3t5 1.5q1 0 2 -2t1 -3q0 -4 -4 -5.5t-9 -2.5t-9.5 -2t-4.5 -5t4 -5t8.5 -2t8 -2.5t3.5 -5.5q0 -2 -4.5 -4t-10.5 -4.5t-10.5 -6.5t-4.5 -10v-13.5t1.5 -14.5t4.5 -13.5
t8 -11.5h4h3q8 0 14.5 3t13.5 4q3 0 4 -2.5t1 -4.5v-1v-2q-6 0 -14.5 -2.5t-13.5 -3.5q-2 -1 -2 -2v-2t1 -3t2 -3.5l2 -3t1 -3.5v-2.5t-1 -1.5q-4 0 -6.5 3t-4.5 6.5t-3 7.5t-4 7l-1.5 1.5t-3 2.5t-3 2.5l-1.5 1.5h-1.5h-0.5q-4 0 -6.5 -5.5t-5 -12t-5.5 -12t-8 -5.5
q-2 0 -3 1t-1 3q0 3 1 5t2.5 4t2.5 4t1 4q0 4 -4.5 5t-9.5 1t-9 0.5t-4 4.5q0 2 1 2.5t2 0.5h2l3.5 -0.5t7.5 -1t7.5 -1t4.5 -0.5h3q4 0 6.5 2.5t4 6.5t2 8t0.5 7v1.5t-0.5 3.5t-0.5 4v2v25q-1 4 -5 6.5t-8 4.5t-7 4t-3 6q0 2 2.5 3.5t5.5 3l6 3t4 1.5v1.5v0.5v2.5t-2 0.5
q-7 5 -10 9t-6 12t-4.5 18.5t-2.5 21t-1.5 21t-0.5 18.5v9zM131 204v-4.5t2 -4.5h2t4 -0.5t3.5 -0.5h2.5h3q3 0 5 3t2 6t-1.5 5t-4 3.5t-5 1.5h-5.5q-5 0 -6.5 -2.5t-1.5 -6.5zM47 195q0 9 4 12.5t12 3.5q5 0 10.5 -4.5t10 -10t8 -12t6.5 -9.5q0 -1 2 -3t4 -3.5t3.5 -3
l1.5 -1.5q0 -4 -4 -4q-7 0 -12 6.5t-9.5 14t-9 13.5t-11.5 6q-3 0 -4 -2t-1 -5q0 -8 4.5 -14t10 -13t10 -15t4.5 -20v-4q0 -4 -1 -5q0 -2 -1.5 -3.5l-3 -3l-3 -3l-1.5 -1.5q-1 0 -1.5 -0.5t-1.5 -0.5q-4 0 -6 3t-3 6.5t-2 8t-1.5 8t-2 6t-4.5 2.5q-1 0 -2 -0.5t-2 -0.5
q0 -1 -0.5 -1.5l-0.5 -0.5v-24l0.5 -2t0.5 -3q4 -10 9 -13.5t9.5 -5.5t7.5 -5.5t3 -12.5q0 -10 -3.5 -16.5t-7 -12.5t-6 -13.5t-1.5 -18.5l-0.5 -0.5l-0.5 -0.5h-1q-3 0 -4.5 1.5t-2 4.5t-0.5 5v5q0 7 3 13t6.5 11t6.5 10.5t3 12.5v3v3l-0.5 0.5l-1.5 1.5l-2.5 1t-5 2.5
t-5 2.5l-2.5 1q-5 3 -7.5 8t-4 10.5t-1.5 11.5v10q0 1 0.5 5.5t1.5 8.5t3.5 7.5t6.5 3.5q5 0 7.5 -2.5t4.5 -6t2.5 -8t1 -8t2 -6t3.5 -2.5t3 1.5t1.5 3t0.5 3.5v3q0 9 -5 17t-11.5 15.5t-11.5 14.5t-5 14zM133 183v-3v-5.5t1 -4.5t2 -2l17 -2v20l-1 1q-1 0 -2.5 0.5
t-2.5 0.5h-3.5t-5 -0.5t-4 -1.5t-1.5 -3zM139 156q0 -2 1.5 -4t4 -4t4.5 -3.5t3 -1.5v-0.5v-0.5q2 0 3 3t1 4v1.5t-0.5 4t-1.5 4t-2 1.5h-11q-1 0 -1.5 -1t-0.5 -2v0v-1zM93 112v8t1 11.5t3 10t5 4.5h12l1 -1t1.5 -2.5l1 -3l0.5 -1.5v-1.5v-3.5v-3v-3q0 -6 -1 -14.5
t-4.5 -15.5t-9.5 -12t-14 -5h-1l-2 2t-1 2l0.5 1t0.5 2q1 0 2 0.5t2.5 1t2.5 1l1 0.5q11 6 15 16t5 22q0 1 -0.5 3t-1.5 4.5t-2 4t-3 1.5q-3 0 -4.5 -2t-2 -5.5t-1 -6t-0.5 -4.5v-4t-0.5 -6t-0.5 -6v-5h-2q-1 0 -2 0.5t-1 1.5v8zM142 122v-1t0.5 -1t1.5 -1l2 -2t2.5 -2
l1.5 -1l1.5 -1.5l1.5 -1.5l0.5 -0.5t1.5 -0.5q2 0 5 1.5t5.5 3t5 3.5t3.5 4q-1 2 -3 2.5t-4 0.5t-3 -0.5t-1.5 -1.5t-1.5 -2t-2 -1q-2 0 -2.5 1.5t-1.5 3.5t-1.5 3.5t-2.5 1.5q-1 0 -2.5 -1l-3 -2t-2.5 -2.5t-1 -2.5zM173 69h-1l-0.5 0.5l-0.5 0.5v26q0 4 3.5 5t6.5 1
q10 0 13.5 -4t3.5 -14v-5v-6t-1 -5t-4 -2q-2 0 -3 1.5t-1 4t-0.5 4.5t-0.5 3h-2h-2q-5 0 -6.5 -1.5t-1.5 -3.5t-0.5 -3.5t-2.5 -1.5zM120 70v26q0 2 1.5 3t4 1.5t4.5 0.5h3q4 0 6 -0.5t3 -2.5t2 -4.5t3 -5.5v-18l-0.5 -0.5t-1.5 -0.5t-2 -0.5l-1 -0.5v12q0 1 -1 1.5
t-2.5 0.5h-3.5h-1q-4 0 -5.5 -2t-2.5 -4l-2 -4t-4 -2zM126 91l0.5 -1.5t1.5 -1.5h10v3.5t-2 3.5q-1 0 -4 -1t-4 -1t-1.5 -0.5t-0.5 -1.5zM189 84q0 1 -0.5 4l-0.5 3q0 1 -0.5 2.5l-0.5 1.5h-11q0 -7 3 -9t10 -2z" />
</svg>
