<?xml version="1.0" standalone="no"?>
<!DOCTYPE svg PUBLIC "-//W3C//DTD SVG 1.1//EN" "http://www.w3.org/Graphics/SVG/1.1/DTD/svg11.dtd" >
<svg xmlns="http://www.w3.org/2000/svg" xmlns:xlink="http://www.w3.org/1999/xlink" version="1.1" viewBox="-10 0 266 256">
   <path fill="currentColor"
d="M66 248q0 3 1.5 3.5t3.5 0.5t4.5 -3.5t5 -9t4 -12t3 -12.5t2.5 -10.5t1 -6.5v-3.5t0.5 -7t0.5 -6v-3.5q1 -7 3 -13.5t2 -13.5v-4q0 -3 -0.5 -8.5t-0.5 -10.5t-0.5 -9.5l-0.5 -4.5q0 -3 -1 -5t-3 -4t-4.5 -3.5t-4.5 -1.5q-4 0 -9.5 3t-10 7t-8.5 8.5t-6 7.5v2q0 2 1 2.5
t3 0.5q5 0 8 -2.5t5.5 -6t5.5 -6.5t7 -3q3 0 5.5 2t2.5 5q1 8 1.5 15.5t0.5 15.5t-1.5 16l-3 16t-3.5 16t-3 15l-2 2q0 5 -1.5 8.5t-3 7.5l-3 8t-1.5 8zM170 187q2 4 4 10t3.5 13t3.5 14t4.5 13t5.5 9.5t6 3.5t4.5 -2t1.5 -4q0 -4 -1.5 -5.5l-4.5 -4.5q-4 -12 -8 -22t-8 -22
q-2 -5 -3 -12.5t-1.5 -15.5t-1 -15.5t-0.5 -13.5q0 -3 0.5 -7t2 -7.5t4 -6t6.5 -2.5q3 0 5 2t3.5 4.5l3 5t4.5 3.5q1 0 2 -1t1 -1.5t0.5 -1.5t0.5 -2q0 -3 -2.5 -6.5t-5.5 -5.5t-7 -3.5t-7 -1.5t-6.5 2t-6.5 4.5t-4.5 6.5t-1.5 8v35q1 1 1.5 3l0.5 2v5t0.5 7t0.5 7.5v4.5z
M127 234q-1 3 -1.5 6t-0.5 6q5 0 8 -1.5t5 -5.5v-19q0 -24 -1.5 -48t-1.5 -49v-2t1 -3h3.5t5.5 -0.5t5.5 -0.5h3.5l4 -2t2 -3q0 -1 -0.5 -2.5t-1.5 -1.5h-23v-30q9 -1 13 -7t5.5 -14t1.5 -16.5v-14.5v-3t-0.5 -3.5t-1.5 -2.5t-3 -1l-1 0.5t-1.5 0.5t-1 1l-0.5 1v43
q0 2 -2 3.5t-5 2t-5 0.5h-3q-6 0 -11.5 -3.5t-5.5 -10.5v-31q0 -1 -2 -1h-3q-3 0 -4 1t-1 4q0 10 2 20t5 20q0 2 2.5 4.5t5 4l5 3l2.5 1.5v29l-20 3q-1 0 -1.5 1t-0.5 2t0.5 2t1.5 1h5h5t3 1t3.5 1.5t3 2t1.5 2.5v109zM52 86q0 2 2 3.5t3 1.5q5 0 11 -3.5t11 -8.5t8.5 -11.5
t3.5 -11.5q0 -4 -1 -11t-3 -13.5t-5.5 -11.5t-9.5 -5q-3 0 -4.5 2t-1.5 6v2q7 6 10.5 13.5t3.5 17.5q0 7 -4.5 11.5t-9.5 8t-9.5 6t-4.5 4.5zM170 47q0 3 3 8.5t7 12t8.5 11t7.5 4.5q1 0 2.5 -0.5t3.5 -1t3 -1.5t1 -3q0 -1 -4.5 -3.5t-9.5 -6.5t-9 -10t-4 -14v-2v-1l14 -23
l1 -1q0 -2 -2 -3.5t-4 -1.5q-3 0 -6 4.5t-5.5 11t-4.5 12.5t-2 8z" />
</svg>
