<?xml version="1.0" standalone="no"?>
<!DOCTYPE svg PUBLIC "-//W3C//DTD SVG 1.1//EN" "http://www.w3.org/Graphics/SVG/1.1/DTD/svg11.dtd" >
<svg xmlns="http://www.w3.org/2000/svg" xmlns:xlink="http://www.w3.org/1999/xlink" version="1.1" viewBox="-10 0 266 256">
   <path fill="currentColor"
d="M76 150q0 8 -1.5 16.5t-3.5 17t-4.5 16.5t-5.5 15q-1 3 -4 7t-5.5 8t-4.5 8t-2 8v2v2q4 -1 7 -2t4.5 -2.5t3 -4t3.5 -6.5q12 -25 17 -50.5t5 -54.5v-6t-0.5 -8.5t-0.5 -8.5v-6q-3 -5 -7 -8.5t-11 -3.5t-11 5t-6 12.5t-3 15t-3 11.5v26q5 0 7 -4.5t3.5 -11t2 -14.5
t1.5 -14.5t4 -11t9 -4.5l1 2q2 3 3.5 10t1.5 14.5v14.5v10zM171 141v21t2 20q0 3 1 9t3 13.5t5 15t6 14t6.5 11t6.5 4.5q5 0 6.5 -2.5t1.5 -5.5q0 -1 -2.5 -5.5t-6.5 -10.5t-7 -11.5t-4 -7.5q-3 -8 -5 -16.5t-3 -17.5t-1.5 -17.5t-0.5 -16.5q0 -4 0.5 -9t1.5 -10t3.5 -9
t6.5 -4q2 0 3.5 1t2.5 3t1.5 4t0.5 4q0 1 0.5 5.5t0.5 9t0.5 8.5t0.5 6l2 3v23q6 0 8.5 -2.5t2.5 -8.5v-5q0 -3 -1.5 -9.5t-2.5 -14t-2.5 -14.5t-1.5 -10q-1 -6 -5 -10.5t-10 -4.5q-7 0 -11 5.5t-6 13.5t-2.5 16t-0.5 12zM96 242l3 1.5t2 0.5q4 0 5.5 -2.5t1.5 -6.5v-6v-9
v-9.5v-6.5q1 -4 3 -6t5.5 -2.5t7 0t7.5 0.5q2 0 6 -0.5t8.5 -0.5t8.5 -0.5t5 -0.5q2 0 2 -1.5v-2.5v-2.5t-2 -2.5h-16q-3 0 -4.5 -3t-1.5 -6q0 -5 3.5 -6.5t8 -2t7.5 -1t3 -3.5v-0.5v-0.5q0 -1 -0.5 -2l-0.5 -1h-20q0 -4 -0.5 -5.5t-0.5 -3.5q0 -1 0.5 -2.5l1.5 -4.5
q1 0 1.5 -1l0.5 -1h17q0 -2 -1.5 -4.5t-2.5 -2.5h-15l-1.5 -1.5t-1.5 -2.5v-1v-1q0 -2 2 -4.5t4 -2.5v0h1q0 1 1.5 1.5t3 2t3 2.5t2.5 1q1 -1 3 -1.5t2 -2.5v-1q-2 -2 -4.5 -3.5t-5.5 -3t-5 -3t-2 -3.5v-1q1 0 3.5 -1t5 -2.5l5 -3t3.5 -1.5l0.5 -1l0.5 -1l-0.5 -1.5
l-0.5 -1.5q-7 -8 -14.5 -13.5t-18.5 -5.5h-1q-2 2 -6 5l-8 6t-7 7t-3 7q0 2 2.5 3t5.5 1.5t5.5 1.5t2.5 4v1q-4 3 -7 5t-5 5t-3 6.5t-1 8.5v6v11v11v6q-1 1 -1.5 6.5t-1 12t-1 12t-0.5 7.5v2v4v6v4v3v5v4.5v3.5zM106 181q0 -4 2.5 -6.5t6 -3.5t7 -1h5.5v16l-1.5 0.5
t-2.5 0.5h-8h-7q-1 0 -1.5 -2t-0.5 -3v0v-1zM108 148l3 -3h15l0.5 0.5t0.5 1.5q1 0 1 2v3q0 7 -3.5 8.5t-10.5 1.5h-5l-0.5 -0.5t-0.5 -1.5v-12zM109 133q1 0 1.5 -2t2 -4.5t1.5 -3.5q2 -2 4.5 -2.5t5.5 -0.5h1.5t1.5 1v14h-16zM114 98q0 -2 1.5 -3.5t3.5 -2.5l4 -2t3 -3h3
h3h3.5t4.5 1t3.5 2.5t1.5 3.5t-1.5 3t-3.5 1q-3 0 -5.5 -1t-6.5 -1q0 1 1 2.5t0 2.5l-2 2l-3 3h-1q-3 0 -6 -2t-3 -6zM189 44q0 4 1.5 10t4.5 11.5t7 9.5t8 4q2 0 4 -1.5t2 -3.5q0 -4 -3 -7t-6 -5.5t-5.5 -5.5t-2.5 -8q0 -7 2.5 -12.5t9.5 -9.5v-12h-7l-15 26v2v2zM43 72
q0 3 1 3.5t2 0.5q3 0 7.5 -3t9.5 -6.5t8 -7t3 -5.5v-23l-1.5 -1.5l-3.5 -3.5t-4 -4.5t-4 -3.5q-1 -2 -2.5 -2h-3.5t-4.5 0.5t-2.5 3.5v0.5v0.5q2 3 5 5t5.5 4.5t4.5 6t2 6.5q0 6 -3.5 9.5t-7.5 6.5t-7.5 6t-3.5 7zM91 51v4v4v4.5v1.5l9 9h1.5t4.5 0.5t5.5 0.5h4.5l1.5 0.5
l1.5 0.5q1 0 2 -0.5t2 -0.5l1 -2l2 -4l2 -4t1 -3v-5q0 -9 -0.5 -18t-1.5 -18q0 -3 -3 -6t-5 -4h-3.5h-4.5h-4h-6t-5.5 1t-2.5 2q-2 9 -2 19v18zM157 11q-1 0 -4 0.5t-6 2t-5.5 3.5t-2.5 4v46q0 2 2.5 4t6 3t6.5 1.5t5 0.5q5 0 9 -2t8 -5q0 -1 0.5 -3l1 -4l1 -4t0.5 -3v-1v-1
v-2t-1 -3q-1 -7 -1 -13.5t-1.5 -12t-6 -8.5t-12.5 -3zM147 61q0 -2 2 -3l4 -2t4 -1h4q4 0 5.5 0.5t1.5 3.5t-1.5 4.5t-3.5 2.5t-4 1h-4q-3 0 -5.5 -1t-2.5 -5zM99 61q0 -2 1.5 -3t3 -1.5t4 -0.5h3.5t4.5 0.5l3.5 0.5q2 0 2 1v3q0 1 -0.5 2t-2.5 2h-4h-4t-3 0.5t-3.5 0
t-3 -1.5t-1.5 -3zM98 48v-2v-2v-4.5t3 -3.5h4.5h3.5h4.5t4 0.5t2.5 1.5t1 4t-2.5 5.5t-5.5 2.5h-2h-3t-4 -0.5t-3.5 -1t-2.5 -0.5zM168 37v2.5v2.5v3v2q-1 0 -1.5 0.5l-0.5 0.5h-19q0 -5 1.5 -7t4.5 -3t7 -1h8zM98 24q1 -2 4.5 -3t6.5 -1t6 0.5t3 5.5q0 2 -1 3t-2.5 1h-3.5
h-3h-3.5h-3.5q0 -1 -0.5 -1.5l-0.5 -0.5q-1 -1 -1.5 -2t-0.5 -2zM146 26q2 -3 6 -4.5t7 -1.5q5 0 6 3t1 7h-17z" />
</svg>
