<?xml version="1.0" standalone="no"?>
<!DOCTYPE svg PUBLIC "-//W3C//DTD SVG 1.1//EN" "http://www.w3.org/Graphics/SVG/1.1/DTD/svg11.dtd" >
<svg xmlns="http://www.w3.org/2000/svg" xmlns:xlink="http://www.w3.org/1999/xlink" version="1.1" viewBox="-10 0 266 256">
   <path fill="currentColor"
d="M90 215q0 2 1 6t2 9t2.5 9t1.5 5q1 2 2.5 4.5t4.5 2.5t4 -2t1 -5t-2 -4.5t-3 -4.5q-2 -6 -4 -13.5t-4 -15.5t-3.5 -15.5t-1.5 -12.5q0 -4 1.5 -6.5t4 -5l5 -5t3.5 -5.5q1 -2 1 -7t0.5 -11t1 -13t1.5 -12.5t2 -9.5t3 -4h1q4 5 3.5 12t-0.5 12q0 2 0.5 6t0.5 9t0.5 9t0.5 5
v2q0 3 -1 5.5t-1 4.5v5.5t0.5 8t2 7.5t3.5 3q3 0 4 -2.5t1 -5.5q0 -1 -0.5 -3l-0.5 -2v-58q0 -1 -0.5 -4t-0.5 -6t-0.5 -5.5t-0.5 -3.5q-4 -7 -12 -7q-6 0 -9 4t-4 11t-0.5 15t0.5 15.5t-1.5 14t-6.5 9.5l-2 -1v-65q0 -1 -1 -2t-2.5 -1.5t-3.5 -1t-3 -0.5q-5 0 -8 2t-5 4.5
t-4 6.5t-3 8q0 9 -0.5 17.5t-2 17.5l-3 18t-1.5 17q0 2 0.5 4t2.5 2q4 0 5 -2.5t2 -5.5q2 -9 2.5 -20t0.5 -20q1 -1 2 -7.5t2 -14t2.5 -13t5.5 -5.5h1l1.5 1t1.5 2v3v4v4v3q0 8 -1 15t-1 14v5q0 3 0.5 10.5t1.5 15.5t1 15t1 9q0 4 0.5 9t4.5 7zM143 155q0 3 0.5 12t1.5 18.5
t3 17.5t5 9q5 2 11 2h11q13 0 20 -2t10 -7t3 -13v-21v-4v-6t-1 -5t-4 -2q-2 0 -3 1.5t-1.5 4t-1.5 4t-4 1.5h-35q-3 0 -4.5 -1.5t-2.5 -3.5t-2.5 -3.5t-5.5 -1.5zM153 181v-4v-2l7 -2h35q1 0 1.5 1.5l1 3t0.5 3v2.5q0 8 -1.5 13t-5 7t-9.5 2.5t-14 0.5q-6 0 -9 -2t-4.5 -5.5
t-1.5 -8v-9.5zM194 97q0 14 -4 26.5t-8 25.5v3v3q4 0 6.5 -2.5t4 -6.5t3 -7.5t4.5 -5.5q-1 -5 -1 -9t1 -8t2 -7.5t3 -9.5v0v-1q0 -9 -3.5 -13.5t-9 -5.5t-11.5 -1h-11.5t-9 -1.5t-3.5 -7.5q0 -8 4 -13t10 -7.5t13 -3.5t14 -1q6 -3 7 -8t1 -12v-4t-0.5 -4t-2 -3t-3.5 -1
q-1 0 -2 0.5t-2 1.5q0 1 0.5 5t0 8t-2.5 7t-5 4q-1 0 -4.5 0.5l-7 1l-7 1t-4.5 0.5q-2 1 -4.5 1.5t-5 1.5t-4.5 3t-2 5v25q0 3 2 4.5t4.5 2.5t5.5 1h4v11l-1 4.5t-3 10t-4 11.5t-3 10q-1 1 -1.5 2.5t-1.5 3.5t-1.5 4t-0.5 3q0 2 1 2.5t2 0.5h2q4 -6 7.5 -13t6.5 -15.5
t4.5 -16.5t2.5 -15l1 -2h2.5h2.5q7 0 9.5 2t2.5 9zM48 90v1l1 1t2 1h1q4 0 9 -4.5t6 -8.5l27 -28h2l7.5 7.5t11.5 11t11 10t6 4.5q2 0 3 -0.5t1 -3.5q0 -7 -6 -12.5t-13.5 -10.5l-13.5 -9t-6 -9t1 -9.5t1 -9.5q0 -3 -1 -6t-5 -3q-1 0 -3 0.5t-2 2.5v28l-0.5 1t-1.5 2
q-1 2 -4.5 5.5l-8 8l-9 9t-8 8.5t-6 7.5t-2.5 5.5z" />
</svg>
