<?xml version="1.0" standalone="no"?>
<!DOCTYPE svg PUBLIC "-//W3C//DTD SVG 1.1//EN" "http://www.w3.org/Graphics/SVG/1.1/DTD/svg11.dtd" >
<svg xmlns="http://www.w3.org/2000/svg" xmlns:xlink="http://www.w3.org/1999/xlink" version="1.1" viewBox="-10 0 266 256">
   <path fill="currentColor"
d="M92 170q3 0 5 3.5t4 8t3.5 9t2.5 6.5q5 8 14 17.5t19.5 17.5t21.5 14t20 6h3t4 -0.5t3.5 -1.5t1.5 -3q0 -1 -4.5 -3t-10.5 -5t-14 -6t-14 -6.5t-10.5 -7t-4.5 -7.5q0 -1 1.5 -2t3 -1.5t3.5 -1.5t2 -2q2 -2 5 -8t6.5 -12.5t7 -11.5t5.5 -5q4 0 6.5 4t5.5 9.5t5.5 12
t4.5 12t4.5 9t4.5 3.5q4 0 6 -1.5t2 -4.5v-2l-0.5 -2t-1.5 -3q0 -1 -2.5 -4.5t-5 -7.5t-4.5 -8t-3 -5q-3 -1 -3.5 -3t-1 -4.5t-0.5 -5t-1.5 -4.5t-5 -3t-9.5 -1t-9.5 3t-6.5 8.5t-5 11.5t-4.5 11t-5.5 8.5t-8 3.5q-3 0 -8 -5t-9.5 -12t-7.5 -13.5t-3 -10.5q0 -2 3 -3.5
t5 -1.5v-10q0 -5 1 -8.5t3 -7t6 -6.5h10q2 0 5 -0.5t5.5 0.5t4 2.5t1.5 4.5q0 4 -2 5t-5 1.5t-5 3.5t-2 10q0 2 0.5 5t1.5 6.5t3 5.5t5 2t4 -2l2 -4q-4 -5 -5 -8t-1 -7t2.5 -6t5.5 -3.5t5.5 -3.5t2.5 -7t-2.5 -7t-5.5 -3.5t-7 -1.5t-7.5 -1t-6 -2.5t-2.5 -5.5q0 -2 0.5 -3
t1 -1h1.5t4 -1q10 -3 19.5 -6t19.5 -7q2 -1 3 -2t1 -3q0 -3 -4 -3t-10 2.5t-11.5 5.5t-12 5.5t-11.5 2.5q0 -6 0.5 -8t1.5 -2.5t4 -1t9 -3.5q9 -3 19.5 -8t19.5 -9v-1.5v-1.5q0 -2 -1.5 -3.5t-3.5 -1.5q-6 0 -12 3.5t-11.5 7.5t-12 7.5t-12.5 3.5q-2 0 -3 -0.5t-1 -3.5
q0 -7 2 -11.5t4.5 -7t5.5 -3.5t5 -1.5l4 -1t2 -2.5t-1.5 -2h-2.5q-10 0 -15.5 1.5t-7.5 5.5t-2.5 10t-1.5 15h-2q-6 0 -10.5 -3t-9.5 -6.5t-10 -6t-10 -2.5q-4 0 -4 4q0 3 3.5 5.5t8.5 4.5t11 4t11.5 3.5t9 4t3.5 4.5t-1 4.5t-4 2.5h-1l-7 -3q-1 -1 -4.5 -2t-8 -2.5t-8 -2.5
t-4.5 -1q-6 -3 -11.5 -5.5t-12.5 -2.5q-3 0 -4 0.5t-1 3.5v2q6 4 14 7t17 5t17 4t15 3q3 1 3.5 1.5t0.5 3.5t-2 5.5t-4 4.5t-4.5 4t-4.5 4q-1 2 -2 5t-1.5 6.5t-0.5 6.5v4q-1 1 -4 2.5t-6 3.5t-6 3.5t-5 3.5q-7 10 -12 22.5t-8 24.5q-1 3 -3 5t-2 5q0 2 1 4t4 2q4 0 7 -4.5
t5.5 -11t4.5 -14t4 -13.5t5 -10.5t6 -4.5zM48 59q0 3 2.5 3.5t4.5 0.5t4.5 -1t5 -2.5l5 -3t3.5 -2.5q14 -5 28 -9.5t28 -4.5q12 0 23.5 1.5t22.5 3.5q3 0 5.5 1t5.5 2t5.5 2t5.5 1q2 0 3.5 -0.5t1.5 -2.5q0 -4 -5 -6t-12.5 -4t-16.5 -3t-17.5 -1.5t-14 -1.5t-6.5 -2t-1 -3.5
t-1 -5.5t-2.5 -5t-3.5 -2q-4 0 -5.5 2.5t-2 5.5t-0.5 7v4q0 2 -5 3.5t-12.5 3t-16 3t-16 4t-12 5.5t-4.5 7z" />
</svg>
