<?xml version="1.0" standalone="no"?>
<!DOCTYPE svg PUBLIC "-//W3C//DTD SVG 1.1//EN" "http://www.w3.org/Graphics/SVG/1.1/DTD/svg11.dtd" >
<svg xmlns="http://www.w3.org/2000/svg" xmlns:xlink="http://www.w3.org/1999/xlink" version="1.1" viewBox="-10 0 266 256">
   <path fill="currentColor"
d="M132 222q0 5 -1 8.5t-2 6.5l-2 6t-1 7q6 0 10 -5t5.5 -12.5t2.5 -17.5t1 -19t0.5 -16.5t2.5 -11.5v-36q0 -19 -0.5 -37.5t-0.5 -37.5q0 -2 0.5 -3t4.5 -3q12 -4 24 -5.5t25 -1.5q1 0 1 -1.5v-2.5q0 -2 -0.5 -3t-3.5 -1q-5 0 -14.5 0.5t-18.5 2t-16.5 5.5t-10.5 12v3v5v5
v3q0 17 2 33.5t2 34.5v22q-1 1 -1.5 3t-1 4.5t-1 4.5t-0.5 3q0 2 -1 8t-1.5 13t-1 13.5t-1.5 9.5zM76 133v11t0.5 14.5l1 15t1.5 11.5l1.5 2t1.5 3q1 3 2.5 8t3 11.5t3 13.5t4.5 13t6 9.5t7 3.5q3 0 4.5 -2t1.5 -5q0 -5 -3 -8.5t-6 -7.5q-6 -12 -10 -24t-4 -26q0 -1 1.5 -4
t3.5 -7.5t4 -8.5t2 -7q2 -14 2.5 -28t0.5 -28q1 -1 2 -1h2q3 0 5 4t3.5 11t2.5 15t1.5 15.5t0.5 12.5v7v4v7v6v4q0 2 1 2h2h2t2 -2v-16q0 -16 -2 -32.5t-3 -32.5q-1 -2 -1 -4.5t-0.5 -4.5t-2 -3.5t-3.5 -1.5q-9 0 -13.5 2.5t-6.5 11.5v34v4.5t-0.5 7t-0.5 6v3.5l-0.5 1.5
t-1.5 3t-2 2.5t-2 1q-2 0 -3 -1.5t-1.5 -4t-1 -4.5t-0.5 -3q0 -2 0.5 -7.5t1 -12t0.5 -12v-7.5v-11v-10q-2 -7 -9 -7t-11.5 2.5t-7 6.5t-4.5 9.5t-3 11.5q0 4 -1 12t-2 16.5t-2 16t-1 8.5v3v3q0 4 0.5 7t4.5 3q5 0 6.5 -7t2.5 -17t1 -21.5t1 -21.5t3.5 -17t7.5 -7h4q2 2 2 5
v4v3.5v2.5q0 1 -0.5 5.5t-0.5 9.5t-0.5 9t-0.5 5v1zM169 160q2 1 5 1t7 0.5t7 0.5h5q6 0 10 -2t6 -5.5t2.5 -8.5t0.5 -10v-7t-0.5 -11.5t-1.5 -13.5t-2 -13t-3 -10t-4 -4h-28q-6 0 -8.5 3.5t-4 9t-2 10.5t-0.5 8v11t1.5 16.5t3.5 16t6 8.5zM168 114v-4t0.5 -7t0.5 -7v-4
q2 -6 7.5 -7.5t10.5 -1.5l2.5 0.5t3.5 0.5l2.5 2.5t1.5 3.5q1 1 1.5 5t1 8.5t1 8.5t0.5 6v1v3.5v3.5v3q0 8 -0.5 13t-2.5 7.5t-7 3.5t-13 1q-1 0 -2.5 -1.5l-3 -3t-2 -3.5t-1.5 -4v-6t-0.5 -8.5t-0.5 -8v-5.5zM43 69q0 3 1 4t4 1h1.5h1.5q10 -8 18 -15.5t17 -15.5h3
q6 0 11 3t9.5 6.5l9 7t11.5 3.5q0 -6 -3 -9.5t-7 -6t-9 -4t-9 -3.5t-7 -4t-3 -4v-20q0 -2 -1.5 -2h-1.5q-2 0 -4.5 1t-2.5 4v19q0 1 -1 2t-3 2t-4 2.5t-3 2.5q-6 4 -14 11t-14 13v2z" />
</svg>
