<?xml version="1.0" standalone="no"?>
<!DOCTYPE svg PUBLIC "-//W3C//DTD SVG 1.1//EN" "http://www.w3.org/Graphics/SVG/1.1/DTD/svg11.dtd" >
<svg xmlns="http://www.w3.org/2000/svg" xmlns:xlink="http://www.w3.org/1999/xlink" version="1.1" viewBox="-10 0 266 256">
   <path fill="currentColor"
d="M124 235l12 11q1 2 4 3.5t5 1.5q1 0 2.5 -1t1.5 -3q0 -3 -4 -7l-8.5 -8.5t-8.5 -9t-4 -8.5q0 -2 2.5 -3t6 -2t6.5 -2t4 -2q4 -2 5.5 -5.5t2 -8t0 -9t0.5 -8.5t3 -7.5t7 -5.5q1 0 2.5 -0.5l1.5 -0.5q5 1 8 6t6 11.5t5.5 14t4.5 14t5 10.5t6 4t5 -1.5t2 -3.5t-1 -3.5
t-2.5 -3l-3 -3l-1.5 -1.5q-6 -11 -10 -22.5t-10 -21.5q-3 -5 -6 -5.5t-8 -0.5h-6l-1 1q-1 0 -3 1.5t-3 1.5q-4 3 -5.5 7t-2 8t-0.5 9q0 4 -1 9q-2 2 -3.5 5t-4 5t-5 3t-7.5 1v0q-1 0 -1.5 -0.5l-0.5 -0.5q-1 -4 -2 -8.5t-1 -9.5v-9.5v-7.5q0 -2 -1 -4.5t-2.5 -4.5t-3.5 -3.5
t-4 -1.5q-6 0 -12.5 4t-12 10t-10.5 14t-9 15.5t-6.5 14.5t-4.5 11q0 3 1.5 3h2.5q2 0 3 -0.5t2 -2.5q6 -13 14.5 -27t16.5 -26q2 -3 5 -5t8 -2q2 0 3 1t1.5 2.5t0.5 3.5t1 3q0 11 0.5 22.5t5.5 21.5q1 4 3.5 8t3.5 9zM61 142q0 2 1.5 3.5t3.5 1.5q16 0 32.5 -2t31.5 -5h63
l12 -1q1 0 1.5 -0.5l0.5 -0.5q0 -2 -2 -3.5t-4 -2t-4 -0.5h-3q-10 0 -20 0.5t-20 0.5h-17q-2 0 -1.5 -3l0.5 -3q0 -6 3 -7t9 -2q2 0 7.5 -0.5t11.5 -1t11.5 -0.5h7.5q0 -1 0.5 -2t0.5 -2l-0.5 -0.5l-0.5 -0.5h-3h-2q-9 0 -18.5 1t-18.5 1l-2 -0.5t-3 -0.5q-2 -1 -2.5 -2.5
t-0.5 -3.5q0 -3 3.5 -4.5t8.5 -1.5h11t11.5 -0.5t9 -2t3.5 -5.5q0 -1 0.5 -4t1 -7t1 -7t0.5 -4q0 -6 -3 -9.5t-8 -5t-10 -1.5h-9h-8t-14.5 0.5t-17 1.5t-16 3t-12.5 5t-5 8v22q0 3 3.5 5t8 2.5t9.5 0.5h6q1 0 3 0.5t5 0.5t5.5 0.5t3.5 0.5t1.5 1t0.5 2l-1.5 2t-1.5 3l-2 2
q-12 0 -23.5 1t-23.5 1l-1.5 1l-1.5 1q0 3 2.5 4t4.5 1q10 0 19.5 -1.5t19.5 -1.5q3 0 4.5 0.5t4.5 2.5v0v0q0 5 -1 8t-5 5h-14t-16 0.5t-15.5 1t-13.5 1.5q-2 1 -2.5 1t-0.5 2zM93 89q0 -2 3 -3t7.5 -1.5t8 -1t5.5 -0.5h3t4 1t3.5 2t1.5 3q0 9 -10 9h-6t-8.5 -1t-8 -2.5
t-3.5 -5.5zM137 90q0 -2 0.5 -4t2.5 -3q5 0 8.5 -0.5t6 -0.5h5.5h7h3.5h3.5t1.5 0.5l0.5 0.5v1q0 5 -3.5 7.5t-8.5 3t-10 0.5h-8h-3h-4q-2 0 -2 -2v-3zM92 77q-1 0 -1.5 -1t-0.5 -2q0 -3 4.5 -5.5t9.5 -3.5t10.5 -1.5t7.5 -0.5q4 0 5.5 3t1.5 6v3t-2 2h-5h-5t-4 1l-3 1
q-1 0 -4 -0.5t-5.5 -0.5t-5 -0.5t-3.5 -0.5zM136 76v-12l1 -1l2 -0.5t4.5 -0.5t5.5 -0.5t5 -0.5h8h8q6 3 6 8q0 1 -1 4t-2 3h-37zM52 58v3.5t3 1.5q5 0 9.5 -3.5t8.5 -5.5q6 -3 13 -7t14 -7t14 -5t15 -2q17 0 35 6.5t34 14.5q2 1 2.5 1.5l1 1t1 0.5h2.5q3 0 4 -0.5t1 -3.5
t-4.5 -5.5t-9.5 -5t-10 -4t-7 -2.5q-1 0 -3 -0.5t-4.5 -1.5t-4.5 -1.5t-3 -0.5t-3 -0.5l-4 -1l-4 -1l-2 -0.5q-3 -1 -6.5 -2t-6 -2t-3.5 -1v-13l-1 -0.5t-2 -0.5h-2h-1q-2 0 -4 0.5t-2 2.5v1v1.5t0.5 3t0.5 3v1.5q0 2 -5.5 4.5t-13 5t-17 5.5t-17.5 6.5t-13.5 7t-5.5 6.5z
" />
</svg>
