<?xml version="1.0" standalone="no"?>
<!DOCTYPE svg PUBLIC "-//W3C//DTD SVG 1.1//EN" "http://www.w3.org/Graphics/SVG/1.1/DTD/svg11.dtd" >
<svg xmlns="http://www.w3.org/2000/svg" xmlns:xlink="http://www.w3.org/1999/xlink" version="1.1" viewBox="-10 0 266 256">
   <path fill="currentColor"
d="M75 231v5v6.5t1.5 6t5.5 2.5q1 0 2.5 -1.5t1.5 -3v-3.5v-3v-7v-12v-11v-7t0.5 -4.5t1 -6.5t0.5 -6.5v-4.5q2 -3 3 -4t2.5 -1.5t3 -0.5t4.5 -2t6.5 -5.5l7.5 -7.5t8 -7t8 -4h2h1q6 6 12 10l12 8q1 0 4.5 1t7 2.5t6 2.5l2.5 1v26v5l1 41q0 1 1.5 3t3.5 2t3.5 -1.5t2.5 -3.5
t1.5 -4.5t0.5 -3.5q0 -5 -1 -10t-2 -11v-20q0 -9 -0.5 -18.5l-1 -19t-1.5 -19.5q-1 -8 -7 -12t-14 -4v0h-2.5t-3.5 0.5t-3.5 0.5h-1.5h-2h-2h-2t-4 -0.5t-4 -0.5h-3q-2 -1 -2.5 -4t-0.5 -6t-1.5 -5.5t-4.5 -2.5q-2 0 -2.5 0.5t-0.5 2.5v3t0.5 4t0.5 4v2v1v1l-1 1.5t-2 1.5
q-15 1 -23.5 3.5t-13 7.5t-6 14.5t-1.5 23.5q-1 14 -2.5 27.5t-1.5 27.5zM114 178v3q0 1 0.5 3.5l0.5 2.5q1 8 1 14q0 5 1.5 8.5t6 5t13.5 1.5h2q1 0 3 -0.5l4 -1t4.5 -1t3.5 -0.5q2 -5 3 -9.5t1 -9.5v-5t-0.5 -6.5t-1.5 -6t-4 -2.5h-2q1 4 -0.5 6t-4 2.5l-5 1t-5.5 0.5h-1
q-1 0 -2.5 -0.5t-3.5 -0.5t-3.5 -0.5l-1.5 -0.5q-1 0 -2 -1.5t-1.5 -2.5t-1.5 -2.5t-2 -1.5q-2 0 -2 1.5v2.5zM123 198v-3t2 -3q4 0 10 -1.5t11 -1.5q3 0 3 2v4q0 6 -4.5 8.5t-10.5 2.5q-5 0 -8 -1t-3 -7zM90 163q0 -17 8 -23.5t25 -6.5q2 0 3 2t1 4l-0.5 1l-0.5 1q0 1 -2 3
l-4 4t-4 3.5t-2 2.5q-2 1 -5 3.5t-5.5 5t-5.5 4t-6 1.5q-2 0 -2 -2v-3zM135 131h3q3 0 5.5 0.5t4.5 0.5h4h5t5.5 0.5t4.5 0.5h2l5 5l0.5 2t0.5 5t0.5 6t0.5 5q0 1 -0.5 4t-1.5 3l-1 0.5t-2 0.5q-5 0 -11 -3.5t-11.5 -8t-9.5 -10.5t-4 -11zM106 78h3l1.5 1.5l3.5 3.5l3 3
q4 5 8 8.5t8 7.5t8.5 7.5t10.5 8.5q2 1 4.5 2t5.5 1q2 0 2.5 -1.5t0.5 -3.5v-2v-1q-3 -1 -6.5 -3l-7 -4t-5.5 -5t-2 -6t1.5 -6t4 -5t5.5 -3.5t6 -1.5h2h2l21 18h1h2h2t3.5 -0.5t2 -1.5t0.5 -3q-1 -3 -6.5 -7t-12 -8t-12.5 -6.5t-9 -2.5q-5 0 -8.5 4t-5.5 8.5t-4.5 8
t-4.5 3.5t-4.5 -2t-4.5 -4.5t-3.5 -5t-2.5 -4.5q-1 -1 -3 -2.5t-3.5 -3l-2.5 -2.5l-1 -1h-5l-35 35l-0.5 1t-1.5 2v1q0 1 1.5 1.5t2.5 0.5h3.5t2.5 -2zM54 75q0 2 1 3t3 1q4 0 7.5 -2t7.5 -5t7 -6l6 -6q2 -1 5 -3l6 -4t5.5 -3.5t3.5 -2.5q1 0 4 -1.5l6 -3t6 -2.5t4 -2h1
q6 0 14 2.5t16 6t15 7.5t12 6q3 2 5.5 3.5l5 3t5 2t7.5 0.5q0 -5 -5.5 -9.5t-13.5 -8.5t-17.5 -7.5t-18 -6t-14 -4.5t-5.5 -4l-3 -16q-1 -2 -2 -2h-3q-4 0 -4.5 3t-0.5 6.5v7.5t-3 5l-37 19q-2 2 -6 5t-8.5 6t-8 6.5t-3.5 5.5z" />
</svg>
