<?xml version="1.0" standalone="no"?>
<!DOCTYPE svg PUBLIC "-//W3C//DTD SVG 1.1//EN" "http://www.w3.org/Graphics/SVG/1.1/DTD/svg11.dtd" >
<svg xmlns="http://www.w3.org/2000/svg" xmlns:xlink="http://www.w3.org/1999/xlink" version="1.1" viewBox="-10 0 266 256">
   <path fill="currentColor"
d="M110 182v0v0q1 0 1.5 0.5t0.5 1.5l1.5 2.5t2.5 5t2.5 5t1.5 3.5q3 5 9.5 13.5t14.5 17t15.5 14t12.5 5.5q3 0 5.5 -1t2.5 -4t-5.5 -6.5t-12.5 -7t-12.5 -8.5t-5.5 -11t3.5 -12t8.5 -10h1h2q5 0 9.5 5t9 10.5t8 10.5t8.5 5q2 0 3.5 -2t1.5 -4v-1.5v-1.5q-1 0 -3 -2.5
t-4 -4.5l-4 -4l-3 -3l-1.5 -0.5t-1.5 -1.5q-3 -1 -6.5 -4.5t-7 -6.5l-7 -6t-5.5 -3l-1.5 0.5t-1.5 1.5t-2 4l-4 6l-4 6t-2 4q-2 3 -3 4t-4 1t-5.5 -4.5t-5 -10.5t-6.5 -10.5t-10 -4.5q-2 0 -5 3t-6.5 8t-7.5 10.5t-7 11.5t-5 10.5t-2 6.5v4.5t4 2.5q2 0 4 -3.5t5 -9
t5.5 -11.5t5.5 -11.5t6 -9t6 -3.5zM55 181q0 2 2 3t4 1v0q1 0 4 -1.5t5.5 -3l5 -3t3.5 -1.5q3 -2 7 -3t7 -3q9 -8 21.5 -13.5t24.5 -5.5q4 0 10 1.5t13 4.5t13 6l10 5q2 1 3.5 3t3.5 3.5l4 3t4 1.5q1 0 3 -0.5l2 -0.5v-2v-2q0 -5 -4.5 -8.5t-12 -6.5t-15.5 -5.5t-15.5 -4.5
t-12 -4.5t-4.5 -4.5q0 -3 1.5 -4t4 -1.5t5.5 -0.5q2 0 3 -1q5 -1 8 -6t4.5 -12t2 -13.5t0.5 -10.5q0 -2 -0.5 -4t-1.5 -4t-2 -3.5t-3 -1.5h-1h-1q0 2 -0.5 6t-2.5 7q-9 3 -19 3.5t-19 -0.5l-1.5 0.5l-1.5 0.5q-1 0 -2 -2l-2 -4t-2.5 -4t-4.5 -2v0l-2 1q0 2 0.5 6t0.5 8
t0.5 8t0.5 5v7t1 5.5t3 4.5t5 4q3 1 6.5 1t6.5 2v1.5v2.5q0 2 -0.5 4t-2.5 3q-1 0 -3.5 1t-5 1.5t-4.5 1t-3 1.5q-2 0 -6.5 2t-10.5 5t-12.5 6t-12 6.5t-9 6t-3.5 4.5zM52 141q0 3 3 3q4 0 8.5 -3.5t8.5 -10t8.5 -14t8.5 -15t8 -13.5t7 -9q11 -1 22 -1t22 -3q4 -1 7 -2.5
l6 -3t6.5 -3t6.5 -1.5h3h3q1 2 2 6.5t2.5 9.5t3 9.5t1.5 6.5q1 4 1.5 10.5t2 13.5t3 13t4.5 9q7 -3 7 -10v-1.5v-1.5q0 -1 -1 -5t-1.5 -7.5t-1.5 -7.5t-1 -5q-2 -4 -2.5 -8t-2.5 -8q-2 -6 -4.5 -12.5t-4.5 -12.5q-1 -2 -2 -5.5t-1 -4.5v-2t0.5 -4t0.5 -4v-2v-5
q0 -3 -1.5 -5.5t-4 -5t-5.5 -4t-6 -2.5q-2 0 -6.5 -0.5t-9.5 -0.5t-9.5 -0.5t-6.5 -0.5q-4 0 -10 -0.5t-10 -2.5h-46l-1.5 1.5l-1.5 1.5v0.5v0.5v0.5v0.5l1 2t2 2h27q3 0 4 2.5t1 4.5q0 1 -0.5 2.5t-1 3.5t-1.5 3.5t-2 1.5h-46q-1 0 -2 2l-1 2v1v1q0 1 1.5 2l1.5 1h45v6
q0 2 -0.5 5t-2 5t-4.5 3h-3.5t-5 -0.5t-5 -0.5h-3.5h-2q-2 0 -3.5 0.5t-1.5 3.5l1 1.5l2 3t2 2.5t2 1h14l0.5 0.5t0.5 1.5v1v0q-4 7 -7 15t-8 14q-3 3 -6.5 6t-6.5 6.5t-5.5 7.5t-2.5 8zM115 110q0 -2 2.5 -3t5.5 -1t6.5 0.5t4.5 -0.5q1 0 2.5 -0.5t2.5 -0.5l1.5 -1l1.5 -1
q2 0 4 0.5t4.5 1t4 2t1.5 3.5v1v2.5t-0.5 3.5t-0.5 3.5v1.5q-3 3 -7.5 3.5t-8.5 0.5q-5 0 -9 -0.5t-7.5 -2t-5.5 -4.5t-2 -9zM105 62v-3t0.5 -4.5t1.5 -4t3 -0.5h9q12 0 24.5 1t24.5 1q0 4 -3.5 7.5t-9 5.5t-12 3t-12.5 1.5t-11 0.5h-8h-4q-2 -1 -2.5 -3.5t-0.5 -4.5z
M112 42v-16q0 -2 1.5 -2h2.5h2q3 0 8 0.5t9.5 0.5t8.5 0.5l4 0.5q3 0 7.5 0.5t9 2t7.5 4t3 6.5l-0.5 1.5l-0.5 1.5h-62z" />
</svg>
