<?xml version="1.0" standalone="no"?>
<!DOCTYPE svg PUBLIC "-//W3C//DTD SVG 1.1//EN" "http://www.w3.org/Graphics/SVG/1.1/DTD/svg11.dtd" >
<svg xmlns="http://www.w3.org/2000/svg" xmlns:xlink="http://www.w3.org/1999/xlink" version="1.1" viewBox="-10 0 266 256">
   <path fill="currentColor"
d="M74 189q1 3 3 8.5t4 12.5t4.5 14t5 13t6 10t7.5 4q2 0 2.5 -3t0.5 -4q0 -4 -1.5 -7t-3.5 -6.5t-4.5 -6.5t-3.5 -6q0 -2 -2 -6.5t-3.5 -9l-3 -9t-2.5 -5.5v-4v-4q0 -5 1.5 -8t3.5 -6.5t4 -6.5t4 -7q4 -13 5 -26t3 -26v-1h1q2 0 3 1t1 3v8q0 10 -1 20t-1 21v8t0.5 12
t1.5 10t4 4q4 0 4.5 -3.5t0.5 -6.5v-0.5v-0.5l-0.5 -1.5l-1 -3l-1 -3l-0.5 -1.5q-1 -5 -1.5 -11t-0.5 -11v-2q0 -1 0.5 -6.5l1 -11t1 -10.5t0.5 -7v-3q0 -6 -1.5 -10t-8.5 -4q-6 0 -9 4.5t-3.5 11t0 14.5t0 15.5t-2.5 13.5t-8 9q-1 -1 -2 -2.5t-1 -3.5v-4v-3
q0 -14 2.5 -26.5t2.5 -25.5q0 -5 -3.5 -6.5t-7.5 -1.5q-9 0 -13 5t-5.5 12t-2 15t-2.5 14v58q0 3 1 4t3 1q1 0 2 -1t2 -2.5t1.5 -3.5t0.5 -3v-1l-0.5 -2t-0.5 -3v-2t-0.5 -4t-0.5 -4v-3v-3q0 -3 0.5 -5t0.5 -4v-1v-4v-6.5t0.5 -7t0.5 -4.5q0 -3 0.5 -8.5t2 -11.5t3.5 -10.5
t5 -4.5t3 2q0 11 -1.5 21.5t-1.5 21.5q0 12 1 24t1 25zM161 193q0 4 1 14t4 19.5t8 17t12 7.5q2 0 3.5 -0.5t1.5 -2.5q0 -1 -0.5 -2t-1.5 -2l-0.5 -1t-1.5 -2t-1.5 -2l-0.5 -1q-3 -5 -6.5 -10.5t-6 -12t-4 -13t-1.5 -12.5v0v-1q1 -4 1.5 -7.5l1 -7t1 -7.5t1.5 -9q1 -8 3 -15
t2 -14q0 -4 -0.5 -10t-2 -12t-4.5 -10t-9 -4h-3t-2 2t1.5 4t3.5 4.5t4 4.5t2 4q1 4 1.5 9t0.5 9q0 8 -1.5 16t-3 15.5t-2.5 15.5t-1 16zM127 147q0 2 0.5 8.5t1.5 13.5t2.5 13t3.5 7q1 0 4 0.5t4 0.5h2t4 -0.5t3.5 -1.5t1.5 -3t-2 -2t-5.5 -1t-6 -4.5t-2.5 -12.5
q0 -1 0.5 -3t0.5 -3h3.5t5 -1t4.5 -2.5t2 -3.5v0q0 -1 -0.5 -1.5l-0.5 -0.5h-14q-3 0 -3.5 -3t-0.5 -4q0 -7 4 -10t8.5 -5t8.5 -3.5t4 -5.5q-8 0 -14 1.5t-10 4.5t-6.5 8.5t-2.5 13.5zM178 183q0 1 1.5 1.5t3.5 1t3 0.5h3q6 0 9.5 -3.5t5.5 -9t2.5 -11.5t0.5 -10v-4
q0 -1 -0.5 -4t-0.5 -6t-0.5 -5.5l-0.5 -2.5q-1 -7 -3.5 -8t-8.5 -1q-2 0 -5 0.5l-3 0.5q-2 0 -2 1v2v1q7 2 10 4.5t3 9.5v7q-1 0 -3 0.5t-4.5 1.5t-4.5 1.5t-3 1.5q-1 0 -1 0.5v2.5v1q0 1 2.5 1.5t3.5 0.5t2.5 -1t2.5 -1q2 0 3.5 2t1.5 4q0 7 -3 10t-6 4.5l-6 3t-3 3.5z
M126 107q0 2 1.5 2h2.5h1h1l3.5 -3.5t5.5 -5t5.5 -5l3.5 -3.5q1 -2 2 -4.5t2 -4.5t3 -4t4 -2q3 0 5.5 1.5t5.5 3t5.5 3.5t3.5 3l4 4l6 6l5.5 5.5l3.5 3.5l1 1h1q4 0 5 -1t1 -4v-2v-1q-3 -3 -9.5 -8t-13 -10.5t-12 -10t-5.5 -6.5v-5.5t0.5 -6.5t2 -5t3.5 -2q3 0 6.5 2t7 4.5
t6.5 5t5 4.5h0.5h0.5q2 0 3.5 -2.5t1.5 -4.5q0 -3 -5 -7t-11.5 -7t-11.5 -5.5t-5 -3.5v-24h-11v22q0 1 -1.5 2t-2.5 1q0 1 -2 3t-4.5 4t-4.5 4t-3 2q-1 1 -4 3t-5.5 4.5t-4.5 5t-2 4.5v0l2 2t2 1v0h1q2 0 6 -4t9 -8.5t8.5 -7.5l3.5 -3l2 1v4v4v3v3.5v3.5v1q0 1 -1 3l-1 2
l-17 17q-1 3 -3 6t-4.5 5.5l-5 5t-3.5 5.5zM87 13q-2 0 -4.5 0.5t-2.5 2.5v28q0 2 -5 4t-10.5 6t-10.5 9.5t-5 12.5q5 0 9 -2q1 0 3.5 -2.5l5 -5l5 -5l3.5 -3.5q2 -1 5 -3t3 -3h2h3h2.5h2.5q2 1 6.5 4t9.5 7t8.5 7l3.5 3q2 -1 2.5 -3t0.5 -4v-0.5v-0.5q-4 -6 -8.5 -9
t-9.5 -5t-9 -4t-6 -6q0 -1 0.5 -4t0.5 -6t0.5 -6t0.5 -4v-1q0 -2 -2 -4.5t-4 -2.5z" />
</svg>
