<?xml version="1.0" standalone="no"?>
<!DOCTYPE svg PUBLIC "-//W3C//DTD SVG 1.1//EN" "http://www.w3.org/Graphics/SVG/1.1/DTD/svg11.dtd" >
<svg xmlns="http://www.w3.org/2000/svg" xmlns:xlink="http://www.w3.org/1999/xlink" version="1.1" viewBox="-10 0 266 256">
   <path fill="currentColor"
d="M170 201v10t1 17t2.5 16t4.5 7q2 0 3 -1.5t1.5 -3.5t0.5 -3v-4q0 -7 -2.5 -14.5t-2.5 -15.5v-59l-1 -0.5t-2 -0.5q-1 -1 -4 -2t-3 -3v-12l1 -0.5t1 -1.5h7h7q4 3 5 7q0 1 0.5 5t1 8.5t0.5 8.5t1 6q0 8 1 17t0 16q1 0 2 1l1 1q1 0 2.5 -1.5t2.5 -1.5v-10q0 -14 -2.5 -29.5
t-3.5 -28.5q-1 -2 -4 -5t-5 -3h-18v-15l2 -2h26h4t4 -1t3 -2t1 -3t-1.5 -3t-3.5 -1q-6 0 -12.5 1t-13.5 1h-2h-3t-3 -0.5t-1 -1.5v-15l0.5 -0.5l0.5 -0.5q1 -1 4 -3.5t6.5 -5t6.5 -5t4 -3.5q1 0 2.5 -2t2.5 -2q-1 -3 -2.5 -3h-3.5h-2h-1q-2 2 -4.5 5t-5.5 5.5t-6.5 4.5
t-6.5 2t-5.5 -2t-2.5 -5q0 -2 2 -4.5t4 -4t4.5 -2.5t3.5 -2q3 -2 6.5 -4.5t7.5 -4.5t6.5 -5t2.5 -5t-0.5 -3.5t-2.5 -1.5q-3 0 -6.5 1.5t-6 4.5t-5.5 5.5t-5 4.5q0 1 -2 3l-4.5 4.5t-4.5 4t-2 2.5q-1 0 -2 0.5l-1 0.5l-1 -0.5l-1 -0.5q-2 -2 -2.5 -3t-0.5 -3q0 -6 3.5 -9.5
t8 -6.5t8 -6t3.5 -7q0 -2 -1 -3t-3 -1h-1h-1q-3 3 -6 7t-8 5l-9 18v1.5v2.5q0 6 3 11t7.5 10.5t7.5 11t3 12.5v1v1q-2 0 -6 0.5t-9 1t-9 1t-6 0.5q-1 0 -3 1t-3 2q0 1 1.5 2t3.5 1h31l0.5 1t1.5 2v1q0 2 -1 5.5t-3 5.5q-11 0 -17 3.5t-9 9t-4.5 13.5t-2.5 17q0 4 -1 8
t-2.5 8t-2.5 8t-1 7q0 2 1 2.5t2 0.5q2 0 3.5 -2t3 -4.5t2 -5t0.5 -3.5q0 -3 1 -9t2 -13t2 -13.5t1 -8.5q1 -3 3.5 -5t6 -3.5t7 -2t6.5 -0.5t3 2v4q0 6 -1 8t-2.5 3t-3.5 2t-5 4q-2 1 -2.5 7t-0.5 13v13t-1 9q0 1 -1 3.5l-1 2.5v3v4v4v3q-1 3 -2 7.5t-2.5 8.5t-2.5 8t-1 7
q0 2 1 2.5t3 0.5q3 0 5 -6t4 -16t3 -21.5t1.5 -21.5t1 -17.5t1.5 -8.5q2 -7 8 -7q4 0 6 5q0 2 0.5 6t1 8.5t0.5 8.5v6v2q0 4 -1 7t-1 7zM74 117v63q0 1 1 4.5t2 8t2 9.5t1 8q1 2 3 8t5 12t6 11t6 5q5 0 5 -4q0 -2 -1.5 -4.5l-3 -5t-3 -4.5t-2.5 -4q-5 -14 -9 -28t-4 -30v-10
q6 -6 9 -13.5t4.5 -15.5t2.5 -16.5t3 -16.5q1 0 1.5 -0.5l0.5 -0.5l1.5 -1l1.5 -1l2.5 2.5l2.5 2.5v9q0 14 -2 28t-5 28l-0.5 2.5l-0.5 2.5q0 3 0.5 4t2.5 1t4 -4.5t3 -12t1.5 -16t1 -16.5t0.5 -13.5v-7.5v-10q-1 -4 -4 -6t-7 -2q-1 0 -3 0.5l-2 0.5l-3 3q0 1 -1 5t-1.5 8.5
t-1 8t-1.5 5.5q0 2 -0.5 7t-1.5 10t-3 9t-5 4q-1 0 -1.5 -1.5t-0.5 -2.5v-1q0 -13 2.5 -24.5t2.5 -23.5q0 -2 -1.5 -4t-3.5 -3t-4.5 -1.5t-4.5 -0.5q-5 0 -9 4t-6.5 10t-4 13.5t-2 14.5t-0.5 13v10q0 8 1 16t1 16q5 0 6 -2.5t1 -6.5v-4v-7v-7v-3q0 -3 0.5 -8.5t1 -12
t1 -12.5t0.5 -8t1 -5t2.5 -6t3.5 -5t5 -2t4 0.5t1 3.5q0 6 -1 11.5t-3 11.5zM88 46q5 0 9.5 3.5t8 7.5t7 7t6.5 3h1l3 -3v0q0 -5 -4.5 -8.5t-10 -6.5t-10 -6t-6.5 -7q0 -1 0.5 -4t0.5 -7q0 -3 -0.5 -6t-0.5 -4q0 -4 -0.5 -4.5t-2.5 -0.5h-2t-2 2q-2 12 -2 24q-1 2 -7 5.5
t-12 7.5t-11.5 8t-5.5 7q0 1 1 1.5t2 0.5q6 0 10.5 -3t8.5 -6.5t8.5 -7t10.5 -3.5z" />
</svg>
