<?xml version="1.0" standalone="no"?>
<!DOCTYPE svg PUBLIC "-//W3C//DTD SVG 1.1//EN" "http://www.w3.org/Graphics/SVG/1.1/DTD/svg11.dtd" >
<svg xmlns="http://www.w3.org/2000/svg" xmlns:xlink="http://www.w3.org/1999/xlink" version="1.1" viewBox="-10 0 266 256">
   <path fill="currentColor"
d="M70 155v0v5.5t0.5 7t0.5 6v2.5q0 3 2 9.5t4.5 15t5.5 17.5t6 17t6 13t5 5q6 0 6 -7q0 -1 -1 -3.5t-2 -4.5t-2.5 -4t-2.5 -4q-4 -6 -7.5 -15t-6.5 -18t-4.5 -18.5t-1.5 -17.5q0 -2 1.5 -3.5l3.5 -3.5t4 -3.5t3 -3.5q4 -7 6 -15.5t3 -17t1.5 -16.5t0.5 -16q0 -2 1 -2h2
q3 0 4.5 2t1.5 4q0 10 -1.5 19.5l-3 19t-2.5 19t-1 18.5v4.5t3 2.5q2 0 3 -1.5t1 -3.5v-25q2 -2 2 -6t1 -7q1 -2 1 -8.5t0.5 -13t1 -12.5t0.5 -9v-1.5v-1.5q0 -4 -2.5 -7t-7.5 -3t-8 4.5t-4.5 12t-2 16t-1.5 17.5t-3.5 16.5t-6.5 12.5v-6q0 -16 2.5 -34t5.5 -33q1 0 1.5 -2
l0.5 -2q-1 -4 -5.5 -5t-7.5 -1q-5 0 -8.5 5.5t-6 14.5t-4.5 19.5t-3 20.5t-1.5 17.5t-0.5 11.5q0 2 1 4t4 2q2 0 3 -3t1 -7.5v-8.5v-6v-4t0.5 -6t0.5 -5.5v-3.5l1 -3t1.5 -6t1 -6.5t1.5 -4.5q0 -1 0.5 -2.5t1 -2t1.5 -2.5l1 -2q1 -2 1 -4t0.5 -3.5t2 -2.5t3.5 -1q0 9 -2 18
t-3 18q-2 9 -2.5 20.5t-0.5 21.5zM176 233q1 1 1.5 2t0.5 2.5t1 3t3 1.5q3 0 4 -1.5t1 -4.5v-1v0q0 -1 -1 -3.5t-2 -2.5q-3 -12 -4 -23.5t-4 -22.5q-1 -3 -1.5 -11.5t-1.5 -18t-1.5 -17.5t-0.5 -11v-23v-22t2 -22q0 -2 1.5 -3.5t3.5 -2t4.5 -1t4.5 -0.5h2l9 9v0h1l3 -3l3 -3
v0v-1l-3.5 -3t-8.5 -7.5t-10.5 -9.5t-11 -9t-9.5 -7t-5 -3h-1h-1q-8 7 -15 15.5t-14 15.5q-2 1 -3.5 3.5t-3.5 4.5t-3.5 4.5t-1.5 3.5q0 2 1.5 2h2.5q3 0 3.5 -1t2.5 -4l2.5 -2.5t3 -2.5t2.5 -2l1 -1l6 4h25q1 0 1 2v3v4.5t-1 3.5v69q1 6 1.5 12.5t0.5 13v13t0.5 11.5t2 9.5
t2.5 9.5v2v3v3v1q0 1 0.5 4t1.5 6t1.5 5.5t1.5 3.5zM128 232q0 2 0.5 4t2.5 2q4 0 7 -7t4.5 -17t3 -22.5t2.5 -23.5t1.5 -20t1.5 -12q0 -5 1.5 -10.5t1.5 -11.5q0 -7 -1.5 -10.5t-4 -5.5t-5.5 -2.5t-5 -1t-3.5 -2t-1.5 -4.5q0 -4 3 -5.5t6.5 -3t6.5 -3t3 -5.5v-1q0 -1 -1 -3
t-2 -3h-0.5h-0.5q-1 0 -2 1t-1.5 2.5t-1 2.5t-0.5 2q-3 2 -6.5 3t-6 2t-4 4t-1.5 9v3q0 2 1 2q1 1 4.5 2.5l7 3t6 3t2.5 3.5l-0.5 2.5t-0.5 3.5q-1 0 -1.5 0.5l-0.5 0.5h-10q-1 0 -1.5 -1l-1 -2l-1 -2t-2.5 -1q-1 0 -1.5 0.5l-1.5 1.5q0 16 -2 30.5t-4 29.5q0 4 -1.5 7.5
t-3 7.5t-3 7.5t-1.5 6.5q0 2 0.5 3.5t2.5 1.5q3 0 5 -3t3.5 -6.5t2.5 -7.5t1 -5t0.5 -3t1 -4.5t1 -4.5t0.5 -3t1 -1.5t2 -0.5l0.5 0.5l0.5 0.5q2 0 5 0.5t4 0.5v5q0 10 -1 18t-3 18q-3 6 -5.5 12t-2.5 12zM181 98q0 22 1.5 44t7.5 44q0 1 0.5 3l1 4l1 4t0.5 3v3t0.5 3.5l1 3
t3.5 1.5q1 0 2 -0.5t2 -2.5v-5q0 -9 -3 -18t-4 -18q-4 -23 -4.5 -46t-0.5 -46q0 -2 -1.5 -2h-2.5q-3 0 -3.5 3.5t-1.5 5.5v16zM129 154q0 -5 1.5 -8t6.5 -3q4 0 5 1t1 5v5t-1 4q-1 0 -2.5 0.5l-1.5 0.5q-2 0 -5.5 -1t-3.5 -4zM143 120q3 0 3 2v4v2v3.5t-0.5 3l-0.5 1.5h-14
q0 -4 0.5 -7t1.5 -5t3.5 -3t6.5 -1zM86 7h-2.5t-2.5 2v23q0 3 -3 4t-5 2q-1 0 -3 1l-4 2t-3.5 2l-1.5 1q-1 1 -3 2.5t-3.5 3t-2.5 3l-1 1.5v4h7q7 -5 13.5 -10t14.5 -10q1 -1 2 -1.5l1 -0.5h1v0q1 1 2.5 2t2.5 1q0 1 0.5 1.5l0.5 0.5q1 0 3 1.5t4 2.5t4 2.5t2 2.5h1h1
q1 0 2 -0.5t1 -2.5q0 -3 -2.5 -5t-6 -4t-7 -3.5t-5.5 -3.5q0 -1 -0.5 -4t-0.5 -5v-2l-0.5 -2t-0.5 -3.5t-0.5 -3.5l-0.5 -2q0 -2 -2 -2h-2zM156 26h1.5h1.5t4.5 2t7 4.5t6 5.5t2.5 4q0 2 -1 3.5t-2 1.5h-36v-2l1 -1.5l2 -3t2.5 -3l2.5 -2.5q0 -1 1.5 -2t2.5 -2.5t2.5 -2.5
t1.5 -2z" />
</svg>
