<?xml version="1.0" standalone="no"?>
<!DOCTYPE svg PUBLIC "-//W3C//DTD SVG 1.1//EN" "http://www.w3.org/Graphics/SVG/1.1/DTD/svg11.dtd" >
<svg xmlns="http://www.w3.org/2000/svg" xmlns:xlink="http://www.w3.org/1999/xlink" version="1.1" viewBox="-10 0 266 256">
   <path fill="currentColor"
d="M71 114v67l0.5 3t1.5 7.5t2 8.5t2 7q0 1 1 4t2 6.5t2 6l1 2.5q0 1 1 2t2 3t2 3t1 2q1 1 1.5 3.5t2 5t3 4.5t4.5 2q2 0 2.5 -2t0.5 -4q0 -3 -1.5 -7.5t-3.5 -9l-4 -9t-4 -6.5q0 -3 -1.5 -8.5t-3.5 -12t-3.5 -12t-1.5 -7.5l-1 -2l-1 -2v-2q0 -4 3 -6q6 -4 9 -11t4.5 -15
t2 -16.5t1 -15.5t1 -11t2.5 -4q3 0 3 3v39.5t3 39.5q1 1 2 1.5l1 0.5q4 -2 5 -5.5t1 -6.5v-4.5t-0.5 -5l-1 -5t-1.5 -4.5v-59l-3 -3l-1.5 -0.5t-2.5 -0.5q-5 0 -9 1t-5 7q0 1 -0.5 2.5t-1 4t-1 4.5t-0.5 3q0 3 1 6t1 5q0 1 -0.5 2l-0.5 1q0 1 -0.5 5t-0.5 8.5t-0.5 8.5
t-0.5 5q-1 1 -1.5 3t-1.5 3.5t-2.5 2.5t-2.5 0q-1 0 -2 -1t-1 -2v-33q2 -2 2.5 -5t0.5 -6.5v-6.5v-6v-8q-4 -3 -6.5 -4t-6.5 -1q-6 0 -9.5 6t-5.5 13.5t-2.5 15.5t-0.5 13v3v7v9v6v5v8.5v7.5v5t0.5 2t1.5 1h1q1 0 2.5 -1.5t2 -3t0.5 -3.5v-2v-10v-15v-14.5v-9.5v-3t0.5 -4
t0.5 -4t1 -3q0 -2 0.5 -5.5t1.5 -7t2.5 -6t4.5 -2.5h1q1 1 3 2.5l2 1.5zM118 240l0.5 1.5l0.5 1.5h2.5h1.5q5 0 6 -2.5t3 -6.5q-2 -25 -0.5 -50.5t6.5 -50.5q0 -1 2.5 -3t5.5 -4.5t5.5 -4t4.5 -1.5h1.5t1.5 1v6t0.5 8.5t1 8t0.5 5.5v2q0 1 -0.5 2t-1.5 2q-1 0 -3 -0.5
l-2 -0.5v-7h-4v41q0 4 1.5 6t4.5 3.5t6 1.5h6q9 0 13 -3.5t4 -12.5v-4q0 -1 -0.5 -6t-0.5 -10.5t-0.5 -10t-0.5 -6.5l-0.5 -1l-0.5 -1h-1q-2 0 -2.5 2t-0.5 4t-0.5 3.5t-3.5 1.5q-4 0 -6 -3v-5.5t-0.5 -8t-0.5 -8.5v-5v-2v0v-4t2 -1q4 0 7.5 3t6.5 8t5.5 11t4.5 11.5t3 10.5
t1 8q0 2 0.5 5.5t0.5 8v8.5v5q0 3 0.5 8t0.5 11t-0.5 11t-0.5 7q1 2 2 2.5t3 0.5q3 0 4 -3t1.5 -7t0.5 -7.5v-3.5v0q0 -1 -0.5 -3.5l-0.5 -2.5q-3 -20 -5.5 -39.5t-6.5 -38.5q-1 -3 -4 -6t-6 -5.5t-5 -4.5t-2 -4t2 -3.5t5 -4t5.5 -4.5t4.5 -4q4 -10 5.5 -20.5t1.5 -21.5
l0.5 -3t0 -6t-1.5 -5t-4 -2l-0.5 0.5l-0.5 0.5q0 1 -0.5 3.5t-0.5 5.5v5.5v3.5v4v6v5v4q-1 3 -3.5 8.5t-6 10t-8 8t-9.5 3.5h-1.5t-0.5 -1q0 -2 -0.5 -6t-0.5 -9v-9v-6q0 -13 1 -25.5t1 -25.5v-3t-0.5 -4.5t-2 -3.5t-3.5 -1q-1 0 -2 0.5t-1 2.5v90q-10 -1 -15 -8.5t-7.5 -18
t-2.5 -20.5q0 -11 1 -17q-1 -2 -3 -5t-4 -3t-3 1.5t-1 2.5q0 3 0.5 8.5t1.5 12.5l2 14t3 13.5t4 11.5t4 6t4.5 2t4.5 2t3.5 2.5t1.5 3.5t-2.5 3.5t-5.5 3.5t-6 3.5t-4 2.5q-4 2 -6 8t-3 13t-1.5 14t-0.5 11q0 3 -0.5 9t-1 13.5t-1 13.5t-0.5 8v2v5v5v3l-0.5 1.5l-1 3l-1 3z
M156 183q0 -1 1 -2t2.5 -1t2.5 -0.5t2 -0.5q2 0 6 -0.5l4 -0.5q1 0 2 0.5t1 1v1.5v2q0 9 -9 9q-1 0 -3.5 -0.5t-4.5 -1.5t-3 -3t-1 -4zM172 161h5q1 2 1.5 3.5t0.5 3.5v2.5t-2 1.5h-22q0 -8 5 -9.5t12 -1.5zM174 91l2 2v0h1l2 -2q1 -2 2.5 -5.5l1.5 -3.5v-44q0 -2 -2 -2h-2
h-2t-1 2q0 12 -1 23.5t-1 24.5v5zM144 51v8.5t0.5 11.5t1.5 10l1 4h1v0q1 0 2 -1.5l1 -1.5v-3q0 -1 0.5 -3t0.5 -4v-2v-7v-7.5t-1 -7.5t-3 -6h-1v0v0l-2 2l-1 1v6zM46 69v1q1 0 2 1t1 2h1v0h1q6 -7 14 -14t15 -12h4q4 0 7.5 1.5t7.5 3t7.5 3.5t6.5 4h1.5h0.5q2 0 3.5 -0.5
t1.5 -1.5q0 -3 -4.5 -6t-10 -5.5t-10.5 -5.5t-6 -5v-3.5v-2.5v-3t-0.5 -3.5t-0.5 -3.5v-3q-1 -1 -3 -1h-2h-3.5t-1.5 3q0 1 0.5 3.5t0.5 4.5q0 3 -0.5 5.5t-0.5 3.5l-0.5 2l-0.5 2q-3 4 -7.5 7t-10 6.5t-9.5 7.5t-4 9z" />
</svg>
