<?xml version="1.0" standalone="no"?>
<!DOCTYPE svg PUBLIC "-//W3C//DTD SVG 1.1//EN" "http://www.w3.org/Graphics/SVG/1.1/DTD/svg11.dtd" >
<svg xmlns="http://www.w3.org/2000/svg" xmlns:xlink="http://www.w3.org/1999/xlink" version="1.1" viewBox="-10 0 266 256">
   <path fill="currentColor"
d="M106 163q3 0 4.5 4t3 9.5t2.5 10.5t2 8q2 7 7.5 16.5t12.5 18t15 14.5t15 6q3 0 5 -1.5t2 -3.5v-1q-3 -4 -9.5 -8.5t-13 -9.5t-11.5 -10t-5 -10q0 -4 3 -7t5 -6q0 -1 1 -3.5t2 -6t2 -6.5t2 -4q0 -2 2 -5t5 -3q2 0 3.5 2l3 4t3.5 4.5t4 2.5q0 1 0.5 3t1.5 4.5t1.5 4.5
t1.5 3q0 1 1.5 2l1.5 1q1 2 1 4t0.5 4t2 3t3.5 1q3 0 5 -1t3 -4l-1.5 -3l-3.5 -7l-4.5 -9t-5 -9t-4.5 -7.5t-3 -3.5q0 -1 -2 -3l-4 -4t-5 -3.5t-5 -1.5t-4.5 0.5t-3.5 2.5t-2 6t-2.5 8.5t-3 8.5t-2.5 5q-1 4 -3 8t-6 4q-1 0 -2.5 -0.5t-1.5 -1.5q-1 -1 -2 -4l-2 -6
t-1.5 -5.5t-1.5 -4.5q0 -3 -0.5 -6t-1.5 -5.5t-3 -4.5t-6 -2q-5 0 -10 4t-9 10t-7 13.5t-5.5 14.5t-4 13.5t-1.5 11.5q1 0 4.5 -0.5t4.5 -0.5l1.5 -4t3.5 -9.5t4 -12t4.5 -13t5 -11.5t5.5 -7q1 0 1.5 -0.5zM50 159q0 3 3 3q2 0 3.5 -0.5t3.5 -1.5q1 0 6 -2.5l11 -5.5
l11 -5.5t7 -2.5q3 -2 7 -3.5t8.5 -3t8.5 -2.5t8 -1t8.5 1t9 2.5t8.5 3t9 1.5q1 1 3.5 1t5.5 1t5 1.5l2 0.5l6 2t6 2.5t5.5 2.5t4.5 1t4.5 -1t2.5 -3q0 -3 -5.5 -5.5t-14 -4.5t-18.5 -4t-18.5 -4t-14 -4t-5.5 -5v-3v-4.5t0.5 -4.5t0.5 -3q9 0 20 2t20 6q4 2 7.5 3.5t6 3
t6.5 2t9 0.5q0 -4 -3 -7t-8.5 -5t-11.5 -3.5l-12 -3t-11 -2t-8 -1.5q-2 0 -4.5 -1l-5 -2t-4 -1.5l-1.5 -0.5v-14h-10v18l-1.5 0.5t-2.5 0.5q-2 1 -5 2l-6 2t-5.5 1.5t-3.5 1.5h-1t-2.5 0.5t-2.5 0.5h-1q-3 2 -8 4t-9.5 4t-8 3.5t-3.5 2.5l-5 4q0 1 1 1.5t2 0.5h2.5h1.5
q8 0 15 -3.5t14 -8t14 -8t15 -3.5q0 1 0.5 2.5t0.5 2.5t-0.5 3t-0.5 4.5t-0.5 4.5t-0.5 3q-1 1 -2.5 1.5t-2.5 1.5l-59 20q-1 0 -3.5 2.5l-3.5 3.5v0.5v1.5zM83 97q0 3 1 4t4 1q1 0 5 -1l8 -2t7 -2.5t3 -3.5q0 -3 -3 -3q-1 0 -5 0.5t-8.5 1.5t-8 2.5t-3.5 2.5zM147 88
q0 3 3 5.5t7.5 4t9 2t6.5 0.5t3.5 -0.5t1.5 -2.5l-0.5 -1.5t-0.5 -2.5l-1 -0.5l-1 -0.5q-7 -1 -14 -2.5t-14 -1.5zM170 69q5 0 7.5 5t4.5 10.5t4 10.5t7 5q3 0 4.5 -1t1.5 -3q0 -1 -0.5 -1.5t-0.5 -1.5t-1.5 -3.5t-3 -5.5t-3 -5.5t-2.5 -3.5q-1 -2 -3.5 -5t-2.5 -6
q0 -1 1.5 -3t3.5 -3.5t4 -3.5t2 -5v-21q0 -5 -3.5 -7.5t-8.5 -4t-10.5 -1.5h-8.5h-6.5t-9.5 1t-8.5 2t-3.5 3v0v0q0 1 1 2.5l1 1.5h44l2 1v4v4v4t-0.5 6.5t-2 6t-3.5 2.5h-1q-6 -7 -11.5 -10.5t-14.5 -3.5h-6q-2 0 -4.5 1t-3.5 2.5t-1 5.5h25q1 0 2 1t1.5 2.5l1 3t0.5 2.5
q0 3 -3 4.5t-6.5 1.5t-8 0.5t-8.5 1t-6.5 2.5t-2.5 6q11 0 21 -2t20 -2zM73 38q-2 0 -4 2t-3 5l-2 6t-1 5v41l1 0.5l1 0.5h0.5h0.5q2 0 3 -1.5t1.5 -4t1 -4.5t0.5 -3l2.5 -0.5t3.5 -0.5q2 0 5.5 -0.5t7.5 -1.5t8 -1.5t5 -0.5t2 -0.5t2 -0.5v-1v-1l-2 -2t-2 -1h-31l-0.5 -2
t-0.5 -3q-1 0 -1 -1v-1q0 -3 6 -4t13 -1.5t12.5 -1.5t5.5 -3v-1v0q-1 -1 -3 -2l-2 -1h-26q-1 0 -1.5 -1l-0.5 -1v-1v-1l0.5 -1.5t1.5 -1.5q6 -4 14 -4t15 -0.5t11 -4t4 -14.5v-4v-4q-8 -2 -14.5 -2h-15.5h-3h-4h-5h-2q-3 1 -5 2t-2 3v2t2 1h38q1 0 1 2v3q0 3 -0.5 4t-2 2
t-3.5 1h-4q-1 0 -5.5 1t-8.5 1.5t-8 1.5t-6 1z" />
</svg>
