<?xml version="1.0" standalone="no"?>
<!DOCTYPE svg PUBLIC "-//W3C//DTD SVG 1.1//EN" "http://www.w3.org/Graphics/SVG/1.1/DTD/svg11.dtd" >
<svg xmlns="http://www.w3.org/2000/svg" xmlns:xlink="http://www.w3.org/1999/xlink" version="1.1" viewBox="-10 0 266 256">
   <path fill="currentColor"
d="M80 184q8 14 13.5 29.5t11.5 29.5q2 4 4 4.5t5 0.5q4 0 4.5 -2t0.5 -6q0 -3 -1.5 -6t-4 -6t-4.5 -5.5t-4 -5.5q-5 -11 -9.5 -24t-6.5 -25l-2 -2q0 -1 -0.5 -3t-0.5 -3q0 -4 2 -6.5t4 -4.5t4 -4.5t3 -6.5v-7.5v-11.5v-12q0 -7 0.5 -12t2.5 -8t5 -3q4 0 5.5 3t1.5 7v8v5v54
q0 1 2 1.5t3 0.5q2 -1 3 -3t1.5 -4.5t0.5 -4.5v-4q0 -7 -1.5 -14t-2.5 -13q0 -5 0.5 -12.5t0 -15t-4 -13t-11.5 -5.5q-5 0 -7 4.5t-3 8.5l-5 48q0 2 -1.5 2.5t-2.5 0.5h-2.5t-1.5 -2l-0.5 -2.5t-0.5 -4.5t-0.5 -4t-0.5 -3v-1q0 -10 3 -20t3 -20q0 -4 -3 -7t-7 -3q-5 0 -9 2
t-7 5.5t-5 7.5t-3 8q-2 18 -3 36t-1 36q4 0 6.5 -1t2.5 -5l3 -61q0 -2 1 -5t3 -5.5t4 -4.5t4 -2q1 0 2.5 0.5t2.5 1.5v2v2q0 9 -2 18t-2 18q0 14 2 28.5t5 28.5q1 0 1 2q0 1 -1 1zM166 224q0 3 1 5.5t3 2.5q3 0 5 -3t2 -5v-37l2 -3h4.5h7.5h8.5t8 -1t6 -2t2.5 -3t-0.5 -3
t-3.5 -1h-31l-4 -3v-13l2 -2h4t6 -0.5l6 -1t4 -0.5h3h4t3.5 -1t1.5 -3q0 -3 -2.5 -4.5t-4.5 -1.5q-1 0 -2 0.5t-2 0.5l-2 0.5t-4.5 1l-5 1l-2.5 0.5h-1h-1q-1 0 -4.5 -1.5l-3.5 -1.5v-2v-1.5t1 -1.5q2 -1 4.5 -4t5 -5.5l5 -5t3.5 -2.5h1l1.5 1l3 2t3 1.5t2.5 0.5q2 1 4 -1
t2 -5v0q-3 -4 -8 -7t-10.5 -5.5t-10.5 -5l-9 -4.5v-1.5v-2.5q0 -3 1.5 -6.5t5.5 -3.5q3 0 6 1.5t6 3.5t6 3.5t7 1.5q2 0 3.5 -1t1.5 -4q0 -2 -3 -4t-7.5 -3t-9.5 -2.5t-9 -3t-7 -4t-3 -7.5q0 -3 4 -4t9.5 -1.5t10.5 0t8 -0.5q3 -4 4 -7t1 -8q0 -7 -5 -10.5t-12 -4.5
t-14.5 -1h-11.5h-5.5t-7 0.5t-6.5 0.5h-5q-2 1 -4.5 3t-3.5 4q0 1 -0.5 3.5l-0.5 2.5q0 2 0.5 4.5t1 4.5t2 4t4.5 2l23 4l0.5 1.5t0.5 2.5q0 6 -4.5 10t-10.5 7l-12 6t-9 7q0 1 1.5 1.5l1.5 0.5h1q2 0 5.5 -1.5t6.5 -3t6.5 -3.5t5.5 -4q1 0 2.5 -0.5l1.5 -0.5q3 0 4 3t1 6v2
l-3 3l-4 4t-4 3.5t-3 2.5q-1 2 -4.5 3.5t-7 4t-6 5t-2.5 5.5q0 1 1.5 1.5t2.5 0.5q2 0 3.5 -0.5t2.5 -1.5t2.5 -2t3.5 -1h3l3 3l4.5 4.5t4.5 5t3 3.5q0 1 -0.5 2t-0.5 2t-0.5 2t-0.5 2h-32l-0.5 1.5t-1.5 2.5v1v0l1.5 1.5l0.5 0.5h32q1 0 2 1.5t1 3.5v4v3v2v3t-1 2.5t-2 1.5
h-34l-2 1.5t-3 2.5v0v1v0q0 1 1 2t1 2h8q7 0 14 -2t13 -2h4v5.5t0.5 7.5t0.5 7.5v4.5v3.5t-0.5 5t-0.5 5v3.5v0zM159 119q0 -5 2.5 -8t7.5 -3q3 0 6 1t5.5 2.5t4 4t1.5 5.5q0 4 -4.5 6.5t-8.5 2.5q-5 0 -9.5 -3t-4.5 -8zM42 63q0 2 1.5 2.5t2.5 0.5q5 0 10.5 -4.5t11 -9.5
t11.5 -9.5t11 -4.5t9.5 4t8 8.5t6.5 8.5t6 4t3.5 -2.5t0.5 -4.5q0 -5 -4 -8.5t-9 -6.5t-9.5 -5.5t-6.5 -7.5v-5v-6t-1 -5t-5 -2h-3t-2 2v15l-1 1t-2.5 2t-3 2.5t-1.5 2.5q-4 2 -9.5 5.5l-11 7t-9.5 7.5t-4 8zM142 46q0 -2 0.5 -5t3.5 -3q5 0 8 3.5t3 7.5q0 3 -2 4.5t-4 1.5
q-4 0 -6.5 -2.5t-2.5 -6.5zM162 42q0 -2 1 -4t3 -2t4 1.5t3.5 3.5t2 4t0.5 4t-1.5 4t-4.5 2q-2 0 -3.5 -1.5t-2.5 -3.5t-1.5 -4t-0.5 -4zM182 42q0 -2 2.5 -3t4.5 -1q4 0 5.5 3t1.5 6v2t-0.5 2.5t-1 2.5t-2.5 1q-5 0 -7.5 -4.5t-2.5 -8.5z" />
</svg>
