<?xml version="1.0" standalone="no"?>
<!DOCTYPE svg PUBLIC "-//W3C//DTD SVG 1.1//EN" "http://www.w3.org/Graphics/SVG/1.1/DTD/svg11.dtd" >
<svg xmlns="http://www.w3.org/2000/svg" xmlns:xlink="http://www.w3.org/1999/xlink" version="1.1" viewBox="-10 0 266 256">
   <path fill="currentColor"
d="M169 185q0 6 3.5 9.5t7.5 6l8 5t6 7.5q1 2 2.5 8.5t3.5 13t4 11.5t5 5q2 0 3.5 -2t1.5 -4q0 -4 -1.5 -9.5l-3 -11t-4 -10.5l-4.5 -9q-2 -2 -4.5 -4t-6 -4t-6.5 -3.5l-5 -2.5q-1 -1 -1 -2.5v-3.5q0 -6 4.5 -8t9.5 -3.5t9.5 -4.5t4.5 -10q0 -2 -1.5 -5.5l-3 -7t-3 -6
t-2.5 -4.5l-0.5 -1t-0.5 -2q0 -2 1.5 -3.5t3.5 -2.5t3.5 -3t1.5 -4q2 -13 3.5 -26.5t1.5 -26.5q0 -3 -0.5 -8.5t-4.5 -8.5q-2 1 -2.5 3t-1 4.5l-1 5t-1.5 3.5q-3 -2 -5.5 -7.5t-2.5 -10.5q0 -6 3 -7.5t7 -2t7 -0.5t3 -2q0 -1 -0.5 -2t-1.5 -2h-3.5h-3.5h-7t-6.5 0.5t-7 1.5
t-8.5 2q-4 1 -5 2.5t-1 5.5q-2 5 -2.5 9t-1 8.5t-1 9.5t-0.5 12v3v3v2.5t0.5 5t0.5 4.5v3v1q0 2 -1 4.5t-1 6.5q0 1 0.5 3l0.5 2q0 1 1 3t2.5 4t2.5 4t2 2v2q0 2 -1.5 5t-4 6t-4.5 5l-3 3q0 2 1.5 2h2.5q4 0 7.5 -2t6 -5.5t3.5 -7.5t1 -8h7l1 1.5t2 3.5t2 4.5t2 3.5
q0 2 1.5 6t1.5 6q0 3 -4 5l-9 4.5t-9.5 6t-4.5 10.5zM72 146q0 8 1 16.5t3 17.5q0 1 2 6.5t5 12t6 13.5t6.5 13.5t6.5 10t5 3.5t4 -1t2 -3q0 -3 -1 -5t-2.5 -4t-3.5 -4t-3 -4q-4 -8 -7.5 -18t-9.5 -17q-1 -1 -1.5 -4l-1 -6l-1 -6t-0.5 -4v-0.5v-1.5t1.5 -3.5t3.5 -5.5l4 -6
t2 -5q2 -10 2.5 -20.5t1.5 -20.5v-3.5t0.5 -5t0.5 -4v-1.5l4 -3q3 2 3.5 4.5t0.5 7.5q0 18 -1.5 36.5t-1.5 37.5q1 0 3 -0.5t2 -2.5q1 -2 1 -8t0.5 -13.5t1 -16t1 -16t1.5 -13t3 -7.5l3 2h8h13.5t13.5 -2v-0.5v-0.5q0 -3 -2 -3.5t-4.5 -1.5t-5 -3t-2.5 -8q0 -7 2.5 -9
t5.5 -2.5t5 -0.5t2 -2t-1.5 -3.5t-4 -2t-4.5 -0.5h-3v-3v-3q0 -6 1 -12t1 -12q0 -1 -0.5 -3t-1 -3.5t-1.5 -3t-3 -1.5q-1 0 -2.5 0.5t-1.5 3.5v8v10q0 6 -0.5 11.5t-1.5 9.5h-2h-3.5t-4.5 0.5t-3 2.5v1q0 1 2 2l4 2t4.5 2t2.5 2v7q0 4 -0.5 6.5t-2 4t-4 2t-6.5 0.5
q-3 0 -4 -2t-2 -4.5t-3.5 -4.5t-7.5 -2h-2.5h-2.5q-5 3 -6.5 8.5t-1.5 12.5q0 6 1 13t1 13.5t-2 12t-7 8.5l-2 -3v-4v-4q0 -12 2 -23.5t2 -23.5v-3.5t-0.5 -4.5t-2 -3.5t-4.5 -1.5q-9 0 -13.5 3t-7.5 8t-4 12l-2 14q-2 7 -3 15t-1 16q0 2 1 5t1 6t-1 6t-1 5t1 4.5t3 2.5
t4 -2.5t2 -4.5q-1 -18 1 -37t7 -37q1 -3 2.5 -5t4.5 -2t5 4v8q0 13 -2 26t-2 26zM121 159q1 5 4.5 7t8.5 2q7 0 9.5 -2t3.5 -5t1 -7.5v-9.5q0 -1 0.5 -3t1 -5t0.5 -5.5v-2.5q0 -1 0.5 -4t0.5 -5q0 -1 -0.5 -4.5t-0.5 -4.5q-1 -2 -2 -2.5t-2 -0.5h-2.5t-1.5 1q0 2 0.5 5
t0.5 6t-1 5.5t-5 2.5q-3 0 -5 -2t-3 -4.5t-1.5 -5.5t-0.5 -5h-4l-0.5 1t-0.5 3t-0.5 4t-0.5 3v19v19zM133 133q2 0 5 0.5t4 2.5v1v10.5t-3 11.5h-2.5h-1.5q-2 0 -5 -1t-3 -5v-17q0 -1 2.5 -2l2.5 -1h1zM168 117v-3t2 -2q1 0 5.5 -0.5t5.5 -0.5h8t8 2v1q0 3 -1 5t-3.5 3.5
t-5 2t-4.5 0.5q-3 0 -5.5 -0.5t-4.5 -1t-3.5 -2.5t-1.5 -4zM172 102q-3 1 -3.5 -1.5t-0.5 -3.5q0 -3 3 -5t7 -2.5t8 -0.5h7q4 0 5 2t1 6v2.5v2.5l-1.5 1l-1.5 1h-1h-1q-1 0 -4.5 -0.5l-7 -1t-6.5 -0.5h-4zM170 87q1 0 1 2t-1 2t-1 -2t1 -2zM168 80q0 -2 2 -4t4.5 -4t5.5 -3
t5 -1h1h2l11 11v1v1l-0.5 0.5l-1.5 1.5q-6 1 -9.5 1h-9.5h-2t-4 -0.5t-3 -1t-1 -2.5zM49 64q0 2 1 3t3 1q3 0 7.5 -4t9.5 -9t9.5 -9t8.5 -4v0q2 1 4.5 2l2.5 1l3 3l4.5 4.5l4.5 4.5l3 3h1q2 0 3 -1t1 -3v-3l-10 -10t-12 -7v-6q0 -5 -0.5 -9t-1.5 -7t-5 -3q-2 0 -4 1.5
t-2 3.5q0 1 0.5 2.5t0.5 3.5t0.5 3.5l0.5 1.5v4q0 6 -5 9.5t-11 6.5t-11.5 6.5t-5.5 10.5zM173 60v-6v-3q0 -3 0.5 -4.5t1.5 -3t4 -1.5q2 0 3.5 1.5t1.5 3.5v4v4q0 7 -7 7q-1 0 -2.5 -0.5t-1.5 -1.5z" />
</svg>
