<?xml version="1.0" standalone="no"?>
<!DOCTYPE svg PUBLIC "-//W3C//DTD SVG 1.1//EN" "http://www.w3.org/Graphics/SVG/1.1/DTD/svg11.dtd" >
<svg xmlns="http://www.w3.org/2000/svg" xmlns:xlink="http://www.w3.org/1999/xlink" version="1.1" viewBox="-10 0 266 256">
   <path fill="currentColor"
d="M180 198q0 5 1.5 13.5t4.5 17t7 14.5t8 6q7 0 7 -7q0 -5 -3 -9.5t-6 -10t-6 -12t-3 -13.5t2 -13t4.5 -12t4.5 -12t2 -13q0 -5 -3 -7t-6.5 -2.5t-6 -2t-2.5 -6.5q0 -8 1 -11t3 -4t5 -1.5t7 -5.5q2 -2 3.5 -9.5t2 -16t1 -16t0.5 -9.5q0 -9 -0.5 -16t-3.5 -12.5t-8.5 -8.5
t-14.5 -3q-12 0 -18.5 3.5t-9.5 9.5t-4 14.5t-1 19.5q0 10 1 21.5t5 21.5q1 3 5 4t7.5 1.5t7 2t3.5 5.5q0 7 -1 10.5t-3 5t-5.5 3t-8.5 4.5q-5 4 -8.5 9.5t-5 11.5t-2.5 12.5t-1 11.5v3v1q0 2 0.5 7.5l1 11t1 10t0.5 6.5t0.5 4.5t1 4.5t2.5 3.5t4 1.5h1h1q1 -1 1.5 -4
t0.5 -4v-1v-1q-2 -14 -3.5 -25.5t-1.5 -25.5q0 -6 2 -12t5 -11t8 -8.5t11 -3.5q4 0 8.5 2t4.5 8t-1.5 11t-4 10.5t-4 11t-1.5 11.5zM51 243q0 3 1 3.5t3 0.5q4 0 8 -5t7.5 -12t6.5 -13.5t4 -9.5q0 -1 1 -5t2.5 -8.5t2 -8t1.5 -4.5q0 -1 0.5 -3l0.5 -2q0 -1 1 -1v0q1 0 1 1
q1 3 3.5 8.5t5 13t5.5 15t6 14t6.5 10t7.5 3.5q3 0 3.5 -3t0.5 -5q0 -4 -2 -7.5t-4.5 -7t-5.5 -7t-5 -6.5q-6 -13 -11 -27t-5 -28v-10v-15t0.5 -16.5t1.5 -15.5t2.5 -12t3.5 -6h4t6.5 -0.5t6.5 -0.5h4q3 0 6.5 -1.5t3.5 -4.5l-0.5 -1.5l-0.5 -1.5l-1 -1l-1 -1q-5 0 -10.5 1
t-10.5 0t-8.5 -4t-3.5 -9q0 -4 5 -5.5t11 -3.5t11 -6.5t5 -15.5q0 -2 -0.5 -4t-3.5 -2q-4 0 -5 2t-1.5 5t-1.5 6t-3 5q-4 2 -8 2t-9 1l-1.5 0.5t-3 0.5t-2.5 0.5l-1 0.5q-7 -1 -10.5 -5t-5.5 -8.5t-3 -8t-4 -3.5q-2 0 -3.5 1.5t-2 3t-0.5 3.5v4v3q0 2 1 3l0.5 0.5l1.5 1.5
q2 4 6 6t7.5 3.5l7 3t5.5 4.5v7v7q0 1 -0.5 2.5t-1.5 1.5h-36q-2 0 -2 1.5v2.5q0 4 2.5 5t5.5 1q6 0 12.5 -1t12.5 -1q1 0 3 0.5t2 1.5v49q-1 7 -2 14.5t-2.5 14.5l-3 14t-3.5 14q-1 3 -3.5 7.5t-5 11t-6 13t-6 12.5t-4.5 10.5t-2 6.5zM65 100q-3 0 -4.5 4.5t-3 11t-2.5 15
t-1.5 16t-1 14t-0.5 9.5q5 0 7.5 -3t3 -7.5t0 -9t0.5 -8.5q1 -8 3.5 -17t2.5 -18q0 -2 -1 -4.5t-3 -2.5zM112 164q0 2 2 3.5t4 1.5q5 0 5.5 -4t0.5 -8v-6.5v-11t-0.5 -13.5t-1 -13t-1.5 -10.5t-3 -5.5h-1h-1q-1 0 -2 1.5t-2 1.5v3.5v2.5q0 9 1 17t1 17q0 6 -1 12t-1 12z
M157 94q0 -3 1 -5t4 -2h29l4 1v1.5v2.5q0 4 -1.5 6t-4.5 3.5t-6 2t-6 0.5t-6 -0.5t-6.5 -1.5t-5.5 -3t-2 -5zM157 70q0 -5 2.5 -7t6 -3t7.5 -0.5t8 0.5h3h4h4h3q3 1 3 3.5v4.5v4.5t-3 3.5q-2 0 -6 0.5t-9 0.5t-9 0.5t-6 0.5h-3q-3 0 -4 -2t-1 -6zM159 48v-12l3 -4h2t4 -0.5
t4.5 -0.5h4.5l3 -0.5t5 -0.5q1 0 4 0.5t5 0.5q2 1 2.5 3.5t0.5 4.5q0 6 -2 8.5t-8 2.5q-7 0 -14 -0.5t-14 -1.5z" />
</svg>
