<?xml version="1.0" standalone="no"?>
<!DOCTYPE svg PUBLIC "-//W3C//DTD SVG 1.1//EN" "http://www.w3.org/Graphics/SVG/1.1/DTD/svg11.dtd" >
<svg xmlns="http://www.w3.org/2000/svg" xmlns:xlink="http://www.w3.org/1999/xlink" version="1.1" viewBox="-10 0 266 256">
   <path fill="currentColor"
d="M90 212q0 2 1 8t3.5 12t5 11t5.5 5q1 0 3.5 -1.5t1.5 -3.5q0 -4 -2 -7l-4 -6t-3.5 -6.5t-1.5 -6.5v-2q0 -1 0.5 -3.5t0.5 -5t0.5 -5t0.5 -3.5q1 -1 4 -5.5t6 -9.5t6 -9.5t3 -6.5q0 -3 -2 -5t-4.5 -4t-4.5 -4t-2 -5q0 -1 2 -3t5 -4t5.5 -3.5t3.5 -2.5q0 -2 0.5 -5.5
t1 -7.5l1 -8t0.5 -7v0l-2 -2l-1 -1q-3 -1 -6.5 0t-7 2.5t-7 2.5t-6.5 1t-4.5 -1.5t-4.5 -1.5q-2 0 -3 0.5t-2 2.5q-3 5 -5.5 6.5t-4.5 2.5t-4 1.5t-5 3.5q-2 3 -3.5 4.5t-2 3.5t-0.5 4v6q0 3 1 6t2 5.5t2 5.5t1 6v2l-4 18t-5 18v31q0 1 0.5 2.5t1.5 2.5v0h1v0q1 -1 3 -2
t3 -1q1 -1 2 -1.5l1 -0.5v-42q2 -4 2.5 -9t1.5 -9l0.5 -0.5l0.5 -0.5q1 0 1.5 0.5l0.5 0.5l3 2l3 2h1q2 0 2 -1.5v-2.5q0 -3 -0.5 -5t-0.5 -5v-1q3 -4 6 -7t8 -3q2 0 4 1.5t4 3.5t3 4.5t1 4.5q0 5 -2.5 10t-6 10t-6 11t-2.5 13zM170 202q0 4 2.5 12t6.5 15.5t8.5 13t9.5 5.5
q3 0 4.5 -2t1.5 -5q0 -5 -3.5 -9t-7.5 -8.5t-7 -10t-3 -14.5q0 -6 3 -10.5t6.5 -9t6.5 -9t3 -10.5q0 -5 -2.5 -8.5t-6.5 -6t-8.5 -3.5t-9.5 -2v-3q0 -5 2 -7t5 -3t6.5 -2t7 -3t5.5 -6.5t2 -12.5l2 -1v-53q0 -1 -0.5 -2.5l-1 -3t-1 -3.5l-0.5 -2v-3t-0.5 -4t-1.5 -3.5
t-3 -1.5h-42q-2 0 -4.5 2t-4.5 4.5t-3 5.5t-2 5v23v2t-0.5 4.5t-1 4.5t-0.5 3v1v0q0 1 1 3l1 2q1 1 1.5 3.5l0.5 2.5v5t0.5 6.5t0.5 6.5v4q2 4 6 7t8 5.5t7 5t3 5.5t-2 4.5t-4.5 2.5l-5 2t-4.5 2l-6.5 6.5l-6.5 6.5q-2 3 -3.5 10t-2 14t-0.5 14v11v3v5.5v4.5v3q3 1 3.5 3.5
t0.5 5.5t0.5 5.5t4.5 2.5q3 0 5 -2.5t2 -5.5q0 -10 -2.5 -20t-2.5 -20q0 -4 1 -11t3 -13.5t5.5 -12t8.5 -7.5q2 -1 7 -1h9q6 0 9.5 2.5t3.5 9.5q0 4 -3 9t-7 10t-7 10.5t-3 10.5zM68 140v-4q3 -4 6.5 -7.5t8.5 -3.5h1h2q2 4 4 9t2 10v2q0 1 -1 1l-15 7h-2q-2 0 -3 -1.5
t-1.5 -3.5t-1 -4.5t-0.5 -4.5zM96 126q0 -5 3.5 -6t6.5 -1h4q2 1 2 4v5v6q-1 3 -3 3.5t-4 0.5h-2q-2 0 -2 -1q-2 -3 -3.5 -5.5t-1.5 -5.5zM150 106q-1 -2 1 -4l3 -3q8 0 15 -1t15 -1h2.5t3 0.5t2.5 1t1 2.5q0 7 -1.5 10.5t-5 5.5t-8.5 2.5t-11 2.5h-1q-3 0 -6 -1.5t-5 -3.5
t-3.5 -5t-1.5 -6zM51 101v1l1.5 1t1.5 2h1q6 0 9 -4t6 -7q1 -1 3 -3.5t4 -4.5l3.5 -3.5l1.5 -1.5h6v18q0 1 1.5 1h2.5t2.5 -0.5t1.5 -2.5v-13q0 -2 2 -2.5t4 -0.5q3 0 5.5 2t4.5 4.5t4.5 4.5t5.5 2q2 0 3 -2t1 -4q0 -4 -4 -7t-9 -5t-9.5 -5t-4.5 -8q0 -4 2 -5.5t4.5 -2
t5.5 -1t6 -3t4.5 -7t1.5 -13.5q0 -3 -0.5 -4.5t-3.5 -1.5q-5 0 -6 3.5t-1.5 8t-1.5 7.5t-6 3q-3 0 -4 -0.5t-1 -3.5v-27q0 -1 -2.5 -3t-3.5 -2h-17l-0.5 1t-1.5 1q0 1 -1.5 3l-1.5 2q0 2 2 2.5t4 0.5t4.5 -0.5t5.5 -1.5q0 1 1 2t1.5 2t1 2.5l0.5 1.5q1 0 1 1v1v1h-1
q0 1 -0.5 2.5t-0.5 2.5v14q-1 1 -2.5 1.5t-2.5 0.5q-7 0 -9.5 -3.5t-3.5 -8t-2 -7.5t-4 -3q-2 0 -3.5 0.5t-2.5 2.5v2v3q0 8 2.5 12t5.5 5.5t7 2t7.5 0.5t5.5 1.5t2 5.5q0 2 -3 5t-7 6t-9 6.5t-9.5 7t-7.5 6.5t-3 6zM188 66q2 0 4 1.5t2.5 3.5t0.5 4.5v4.5q0 7 -6 9h-9
t-7.5 0.5l-7 1t-7.5 0.5q-2 0 -5 -0.5t-3 -2.5v-16q0 -1 2 -2t4.5 -1.5t4.5 -1t3 -0.5h3t6 -0.5t6 -0.5h5h4zM150 58v-5q0 -7 2 -11t5.5 -5.5t9 -2t11.5 -0.5q2 0 5.5 0.5l3.5 0.5l3 1q1 1 1.5 3t1 4.5t0.5 5v3.5v2v2.5t-1 1t-2 0.5q-3 0 -8.5 0.5t-10.5 0.5h-10h-8v0
q-1 0 -2 -0.5z" />
</svg>
