<?xml version="1.0" standalone="no"?>
<!DOCTYPE svg PUBLIC "-//W3C//DTD SVG 1.1//EN" "http://www.w3.org/Graphics/SVG/1.1/DTD/svg11.dtd" >
<svg xmlns="http://www.w3.org/2000/svg" xmlns:xlink="http://www.w3.org/1999/xlink" version="1.1" viewBox="-10 0 266 256">
   <path fill="currentColor"
d="M161 136q0 3 -1.5 6.5t-3.5 7t-3.5 7t-2.5 7.5q-4 21 -4.5 43t-0.5 44h7q0 -12 -0.5 -25t0.5 -26t3.5 -25.5t8.5 -23.5q1 -1 2 -1h2q4 0 7 0.5t6 2t4.5 4t1.5 6.5q0 3 -2 7t-5 9t-5 10.5t-2 12.5q0 15 5 26t17 21h1h2q2 0 4 -1t2 -3t-1 -3.5t-2 -2.5t-2.5 -1.5t-2.5 -2.5
l-17 -28v-1q0 -9 3 -15t6 -11t6 -9.5t3 -11.5t-2.5 -10t-5.5 -4.5t-7 -1.5t-7.5 -0.5t-5.5 -2t-2 -4.5q0 -4 4 -5t9 -1t10.5 -0.5t7.5 -4.5q2 -3 2.5 -6.5t1 -7.5t0.5 -8v-6q1 -1 1.5 -2.5t0.5 -2.5v-3v-4v-5v-3q0 -7 0.5 -14.5t-1 -13.5t-5.5 -10.5t-13 -4.5q-1 0 -4 0.5
l-3 0.5q-1 0 -4.5 0.5l-7 1t-7 1.5t-4.5 1q-4 3 -7 8q0 5 -0.5 8.5t-0.5 6.5v7v7v3v3.5v3.5v1v7t0.5 10t0.5 9.5v6.5q2 3 4 4.5t4 2.5t3.5 3t1.5 6zM116 226q0 2 1 4t4 2q2 0 3 -1t1 -4v-68q0 -4 -1 -11.5t-3 -14t-6.5 -11.5t-10.5 -5q-3 0 -3 2t1.5 5t3.5 6t4 5.5t3 4.5
q2 5 3 11.5t1.5 13l1 13t0.5 11.5v0q0 9 -1.5 18.5t-1.5 18.5zM51 219v2v4t0.5 3.5t2.5 1.5q3 0 5 -3t3 -6q-1 -18 0.5 -37t4.5 -37l3 -6t4.5 -8.5t4.5 -8t4 -3.5h1t2 1l0.5 1.5t1 3.5t0.5 3.5v1.5q0 2 -1 5.5t-1 4.5h-3h-2q-1 0 -2 -1l-1 -1l-0.5 0.5l-1 1t-1.5 2.5t-1 3v3
v5v6v3q0 4 -0.5 10t0.5 11.5t4 10t9 4.5q7 0 11.5 -3t7 -8t3 -11t0.5 -12v-5q-1 -1 -1.5 -4l-1 -6t-1.5 -5.5t-1 -3.5l-0.5 -0.5l-1.5 -1.5v0h-1q-1 1 -2 1.5l-1 0.5h-1q-3 0 -3 -2v-4q0 -7 0.5 -14t1.5 -14q3 -3 5 -3.5t3.5 -1.5t3.5 -1.5t5 -1.5q8 -3 11.5 -8.5t5 -12
t2 -14t0.5 -14.5v-12q-1 0 -2 -0.5t-1 -1.5h-1h-1q-1 1 -2 1.5l-1 0.5v11t-0.5 11.5t-1.5 11t-1 10.5q-1 4 -4.5 7t-8 5t-9 3t-7.5 2q-2 0 -3 2t-1.5 4t-1.5 3.5t-2 2.5q-3 3 -8 5t-7 6q-8 10 -10.5 21t-3.5 23q-1 13 -2.5 26t-1.5 26zM82 180q0 -2 0.5 -4.5t3.5 -2.5h12
q2 0 2.5 1.5t0.5 3.5q0 5 -2.5 8.5t-7.5 3.5q-6 0 -7.5 -2.5t-1.5 -7.5zM91 149q4 0 7 4t3 8q0 6 -6 6h-3t-3.5 -0.5l-3 -1t-1.5 -1.5v-11q0 -3 2.5 -3.5t4.5 -0.5zM156 106v-5q1 0 5 -0.5t7.5 -1t7 -0.5t5.5 -1q1 0 4 -0.5t4 -0.5v0h1q1 0 2 0.5l1 0.5v6q0 3 -0.5 8.5
t-3.5 7.5q-2 0 -5 0.5t-6.5 1t-6.5 1t-4 0.5h-0.5h-1.5q-2 0 -4 -2t-3 -4.5t-1.5 -5.5t-0.5 -5zM59 38v7v10.5v10v6.5v7t1 7.5t3 6t6 2.5h1h1.5t3 -0.5t3 -0.5h1.5q1 0 3.5 0.5t3.5 0.5h4h4q1 0 1 -2t0.5 -3.5t0.5 -3v-2.5q0 -2 0.5 -8t1 -13t0.5 -12.5v-8.5q2 -1 1.5 -5
t-0.5 -6v-7q0 -2 -1 -2h-2q-2 0 -3 1.5t-1 3.5v7.5v10.5v11.5v7.5q0 3 -0.5 7t-1.5 7.5t-3.5 6t-5.5 2.5q-7 0 -9.5 -5t-2.5 -10q-1 -2 -1 -6t-0.5 -9t-0.5 -9v-6q0 -1 -1 -2t-2.5 -1.5t-3.5 -0.5h-1zM153 79v-3q2 0 6 -0.5t8.5 -1t9 -0.5h6.5h3h2h3.5t2.5 1t1 2v0.5v0.5
q0 1 -0.5 2.5t-0.5 3t-0.5 3t-0.5 2.5q-3 2 -7 3t-8 1t-8.5 -0.5t-7.5 -0.5t-5 -1t-2.5 -3t-1 -4.5t-0.5 -4.5zM104 84q0 1 1 1.5t2 0.5l0.5 -0.5l1.5 -1.5t1.5 -4t0.5 -5.5t0.5 -5t0.5 -3.5v-6.5v-9.5v-9.5v-5.5t2 -3.5l2 -2.5q0 -1 1 -1.5l1 -0.5q1 -1 2.5 -1.5t4 -1
t4.5 -1.5t3 -1v-7q-10 0 -16 3.5t-11 12.5v7t-0.5 10.5t-0.5 10.5v7v9v9zM55 12v9q0 1 2.5 1h6t6.5 1.5t4 6.5l0.5 2l1 4t0.5 4.5v3.5t0.5 5t0.5 8.5t0.5 8.5t0.5 6q2 0 3 -2t1 -4v-39q0 -5 -3 -8t-7.5 -4.5t-9 -2t-7.5 -0.5zM155 58q0 -5 1.5 -8t4.5 -4.5t7 -1.5h8h5h5
q4 1 5.5 4.5t1.5 7.5q0 5 -2.5 7t-6.5 2.5t-8.5 0.5h-7.5h-12q-1 -2 -1 -4v-4z" />
</svg>
