<?xml version="1.0" standalone="no"?>
<!DOCTYPE svg PUBLIC "-//W3C//DTD SVG 1.1//EN" "http://www.w3.org/Graphics/SVG/1.1/DTD/svg11.dtd" >
<svg xmlns="http://www.w3.org/2000/svg" xmlns:xlink="http://www.w3.org/1999/xlink" version="1.1" viewBox="-10 0 266 256">
   <path fill="currentColor"
d="M190 246q0 2 1.5 3.5t3.5 1.5h3t1 -2q0 -1 0.5 -3.5t0.5 -5.5v-5v-3q0 -16 -2.5 -31t-2.5 -30q0 -3 2.5 -6t6 -7t6.5 -9.5t3 -14.5t-1.5 -14t-4 -8t-5.5 -4.5t-5.5 -2.5t-4 -2t-1.5 -4v-7t0.5 -10t2.5 -8.5t5 -3.5h2t2.5 0.5t2.5 1t2 0.5h2q2 0 3.5 -1t1.5 -4l-0.5 -2
t-1.5 -2h-15l-0.5 -0.5l-1 -1t-1 -2.5t-0.5 -3t0.5 -4.5l1 -7t1 -6.5t0.5 -4v-4q0 -3 -1.5 -5.5t-5.5 -2.5q-2 0 -3 1.5t-2 3.5q1 18 -0.5 35.5t-3.5 35.5q-1 3 -3 5t-4.5 2.5t-4.5 1t-2 2.5v1q1 0 1.5 1l0.5 1h28l1 1.5t2 3.5l1 1.5l1 1.5v22q0 2 -2 5.5t-5 3.5
q-1 0 -2.5 -3t-4 -6.5t-6.5 -6.5t-11 -3q-2 0 -3.5 1.5t-1.5 3.5v1.5v0.5q2 0 5 0.5l6 1t5 3t2 5.5q0 7 -4 9t-9 2t-9.5 0.5t-4.5 4.5v1q1 1 1.5 2.5l0.5 1.5h1h1l2.5 -0.5t5.5 -0.5t5.5 -0.5l2.5 -0.5h3q2 0 3 0.5t2 2.5q2 15 3.5 31t1.5 31q0 3 -0.5 6t-0.5 7zM77 239
l1 1.5t2 1.5h1q2 0 4 -1.5t2 -3.5q0 -6 -2 -12.5t-4 -12.5t-3.5 -12.5t-0.5 -12.5q0 -8 2 -15t4 -14.5t3.5 -14.5t1.5 -15v-3.5v-3.5l-11 -11l-0.5 -1.5l-0.5 -1.5q0 -6 2.5 -8.5t5.5 -5t5.5 -5t3.5 -6.5q0 -3 0.5 -11t1 -17t1 -17t0.5 -12q1 0 1 -1q0 -4 -2.5 -6.5t-6 -3.5
t-7 -1h-6.5q-12 0 -16.5 5t-6.5 13t-1.5 18t-0.5 19v1q0 11 3.5 15t7 6t6.5 3t3 5q0 5 -2 9.5t-4.5 8.5t-5.5 8t-4 8q-6 14 -8 30t-2 31v3v8t0.5 12.5t0.5 12.5v8q1 3 2.5 3.5t3.5 0.5q3 0 3.5 -1.5t0.5 -4.5q0 -11 -0.5 -22.5t-0.5 -22.5v-3v-7.5t0.5 -9t0.5 -8v-4.5
q1 -4 2.5 -8.5t3.5 -9t4 -8.5t4 -7q1 -3 2 -3.5t3 -0.5q3 0 5 1.5t2 4.5q0 8 -2 15.5t-4.5 15t-4.5 15t-2 15.5v3v3v3.5t1 1.5q0 2 1 8l2 12t2.5 11.5t2.5 8.5zM101 231v3v4t1 3t3 1q6 0 6 -6q0 -10 -1 -19t-1 -18q0 -10 2.5 -19.5t5.5 -19t5 -19t2 -19.5q0 -3 -0.5 -8.5
t-4.5 -7.5h-2.5h-3.5q-5 0 -8.5 4t-5.5 10.5t-3.5 14.5t-2 15.5t-0.5 14v9.5q1 0 3 -5.5t3.5 -12.5t3 -13.5t1.5 -9.5q1 0 1.5 -2.5l1 -5t1 -4.5t0.5 -3q1 -2 2 -2.5t3 -0.5h1.5t1.5 2v7q0 7 -1.5 13.5l-3 13t-3.5 13t-4 13.5q-2 13 -2.5 26.5t-0.5 27.5zM132 190
q0 2 0.5 6.5t1.5 10t2.5 12t3 11.5t3 8.5t3.5 3.5l3.5 0.5t4.5 0.5q0 -7 -2 -13.5t-4.5 -12.5t-4.5 -12t-2 -14v-2q0 -2 0.5 -6.5t1.5 -9.5t1.5 -9.5t1.5 -5.5q0 -4 1 -6t3 -4t3.5 -4t3.5 -5t2 -8v-8q0 -2 -0.5 -5.5t-1.5 -7t-3 -6.5t-5 -3t-6 2.5t-5.5 5.5t-4 6.5t-1.5 6.5
q3 0 4.5 -2l3 -4l3 -4t4.5 -2q2 0 3 2.5t1.5 5.5t0.5 6v4v1v1q-4 8 -7.5 14.5t-6.5 13.5t-4.5 14.5t-1.5 17.5zM119 91q0 3 3 3h3q12 0 23.5 -1t24.5 -1q0 -4 -5 -5q-1 0 -3 -0.5t-4.5 -0.5h-5h-3.5t-1.5 -1l-0.5 -1q0 -1 0.5 -2.5t1.5 -1.5q3 -3 7 -6.5t7.5 -7.5t6.5 -8.5
t3 -9.5q-3 0 -4.5 0.5t-2 1.5t-1.5 2.5t-3 3.5q-1 1 -3.5 4t-5.5 6l-5.5 5.5l-3.5 3.5h-1q-2 0 -3 -3t-1 -5q0 -3 1 -4.5t4 -4.5q1 -2 4.5 -5.5l7.5 -7.5l7.5 -7.5l5.5 -5.5q1 -2 1.5 -3.5t0.5 -3.5q0 -3 -4 -3h-2q-1 0 -3 2.5t-4.5 5l-4.5 4.5t-2 3q-2 2 -3.5 4.5t-3 5.5
t-3 5.5t-3.5 3.5q-2 0 -2.5 -1.5t-1 -3.5t-0.5 -4v-4v-1v-1l15 -19v-1v-1q0 -2 -0.5 -3.5t-2.5 -1.5h-1h-1q-2 4 -5 7t-5.5 7t-4.5 7.5t-2 8.5q0 4 1.5 8.5l3 9l3 9t1.5 8.5q0 2 -0.5 3l-1.5 3l-0.5 1l-0.5 1h-15l-0.5 1t-1.5 1v1zM62 76q0 -3 1.5 -4.5t3.5 -2t4.5 0
t5.5 0.5h8q1 0 1.5 1.5t0.5 2.5q0 6 -6 10h-3h-3q-6 0 -9.5 -1t-3.5 -7zM111 61q-3 4 -6.5 10t-3.5 12q7 0 10.5 -4.5t5.5 -11t2 -13v-11.5v-14q-1 -3 -2 -5.5t-2 -4.5t-3 -3.5t-5 -1.5q0 5 1 9.5t3 8.5v29zM60 53q0 -3 2 -4.5t5 -2t6 -0.5h5h4h4q2 0 2 2.5v3.5v5t-2 4
q-1 1 -4.5 1.5t-4.5 0.5q-3 0 -6 -0.5t-5.5 -1.5t-4 -3t-1.5 -5zM65 36q-1 -1 -1.5 -2.5t-0.5 -2.5q0 -3 1.5 -5t3.5 -3t5 -1h5h8q2 2 2 4v5q0 2 -1 4t-4 2h-2h-2.5t-5 -0.5t-5 -0.5h-3.5z" />
</svg>
