<?xml version="1.0" standalone="no"?>
<!DOCTYPE svg PUBLIC "-//W3C//DTD SVG 1.1//EN" "http://www.w3.org/Graphics/SVG/1.1/DTD/svg11.dtd" >
<svg xmlns="http://www.w3.org/2000/svg" xmlns:xlink="http://www.w3.org/1999/xlink" version="1.1" viewBox="-10 0 266 256">
   <path fill="currentColor"
d="M140 224q0 6 4 11t10.5 8.5t13 5.5t11.5 2q8 0 8 -7q0 -1 -0.5 -2.5t-1.5 -1.5l-28 -6q-4 -1 -6 -4.5t-2 -6.5q0 -5 2 -9t4.5 -8t4.5 -8t2 -9q0 -8 -4.5 -11t-10 -4t-10.5 -1t-5 -2t4 -3.5t9 -3.5t9.5 -4.5t5.5 -7.5q1 -1 1.5 -3t1.5 -4.5t1.5 -5l0.5 -2.5v-1v-2v-1v-1
q0 -1 -1 -2.5t-1 -2.5q-1 -7 -2 -11.5t-3 -7t-6 -3.5t-13 -1h-8t-7.5 0.5t-8 0.5t-9.5 1q-5 4 -9 11v8v17t3 16q1 4 5 4.5t8.5 1t8 2t3.5 5.5q0 3 -3 5.5t-7 4.5l-8 4t-5 4q-7 7 -9 17.5t-2 19.5v4.5v4.5q1 2 2 3t3 1q1 0 1.5 -0.5t1.5 -0.5q0 -10 1.5 -20t6 -18t12.5 -12.5
t20 -4.5q6 0 9 1t6 7q-1 3 -3.5 7.5t-5 8.5t-4 8.5t-1.5 8.5zM106 149q0 -1 0.5 -1.5t1.5 -0.5l42 -1q2 0 2.5 1t0.5 3q0 3 -2 4.5t-5 2.5t-6 1h-5h-7.5t-9.5 -1t-8.5 -3t-3.5 -5zM185 144q1 2 2 3t3 1q3 0 4 -1t0 -4v-13v-13q-1 -13 -3.5 -18.5t-7.5 -7t-12 -1.5t-17 -1
q-1 0 -2.5 -1l-1.5 -1q-2 -1 -4.5 -3.5t-4.5 -5t-4 -5.5t-3 -4v-1v-1v-1v0q2 -2 4.5 -4t5 -5t4.5 -6t2 -6q0 -4 -2 -6.5t-6 -5.5v-1v-1q0 -3 1 -5t2.5 -4t3 -4.5t1.5 -6.5q-6 0 -10.5 4t-8.5 7h-3q-2 -1 -3.5 -3.5t-3.5 -4t-4.5 -3t-4.5 -1.5t-3 0.5t-1 2.5t2 4.5l4 5
t4.5 4.5t3.5 3q-1 1 -3.5 3l-5 4t-4 4t-1.5 4q0 3 2 5.5l4 5t4 5.5t2 6l-1.5 3l-3.5 7t-4 7t-3 3t-3.5 0.5t-4.5 1l-4 1l-2 0.5q-1 0 -4.5 0.5t-7 0.5t-7 0.5t-4.5 0.5q-4 2 -6.5 7t-3.5 11t-1 12v10v9q1 3 2.5 3h3.5q3 0 4.5 -2.5t1.5 -6v-7.5v-7q0 -1 0.5 -3t0.5 -4.5
t0.5 -4.5t0.5 -3q4 -5 11 -7.5t14.5 -3.5t15 -0.5t13.5 0.5q2 -1 4 -1.5t5 -0.5q9 0 19 1.5t18 1.5q3 1 5.5 3.5t3.5 6t1.5 7t0.5 5.5v5.5v7.5v8v5zM106 140q-1 -1 -1 -1.5v-1.5v-2q0 -1 0.5 -3l0.5 -2h47q1 0 2 3t1 5q0 1 -0.5 2.5t-2.5 0.5h-13h-9h-8t-8 -0.5t-9 -0.5z
M103 119q0 -3 2 -4.5t4.5 -2.5t5 -1.5t4.5 -0.5l31 2q3 0 3.5 2t0.5 4v3.5t-3 1.5h-46q-2 0 -2 -2v-2zM117 86l8 -11q0 -1 2 0t3 1q0 1 1.5 2t3 2.5t2.5 3t2 2.5l-2 1h-18zM154 77q0 3 2 3.5t5 0.5q11 0 17.5 -3.5t9.5 -9.5t4 -14t1 -18q0 -1 -0.5 -2.5t-0.5 -3.5t-0.5 -3.5
t-0.5 -2.5t-1 -1.5t-2 -0.5q-4 0 -5 1.5t-1 3.5t-0.5 3.5t-2 3t-5.5 2.5t-12 0l-2 2l-1 1l-1 1q0 2 4 2h7.5t7.5 1t3 5t-3.5 4.5t-8.5 0.5t-8.5 0.5t-3.5 3.5v1l1 1q1 0 3 0.5t4.5 0.5t5 0.5t3.5 0.5q4 1 5 1t1 2q0 5 -4 6.5t-8.5 1.5t-8.5 0.5t-4 4.5zM77 14q-2 0 -4 2.5
t-2 4.5v51q0 2 2.5 3t6 2t7 1h4.5q4 0 7.5 -0.5t3.5 -5.5q0 -4 -3 -4t-6 0.5t-6 0.5t-4 -3q0 -2 0.5 -4l0.5 -2h13q1 0 1.5 -2t0.5 -3q0 -3 -3 -3.5t-6 0t-6 0t-3 -4.5t3 -4.5t6.5 -1t6.5 -1.5t3 -5v0q0 -1 -0.5 -2l-0.5 -1h-14q-3 0 -3.5 -2.5t-0.5 -6.5q0 -3 -0.5 -6
t-3.5 -3zM119 47q0 -2 1.5 -4t3.5 -3.5t3.5 -2.5t2.5 -1l7 8v2q0 4 -2.5 7t-6.5 3t-6.5 -2.5t-2.5 -6.5z" />
</svg>
