<?xml version="1.0" standalone="no"?>
<!DOCTYPE svg PUBLIC "-//W3C//DTD SVG 1.1//EN" "http://www.w3.org/Graphics/SVG/1.1/DTD/svg11.dtd" >
<svg xmlns="http://www.w3.org/2000/svg" xmlns:xlink="http://www.w3.org/1999/xlink" version="1.1" viewBox="-10 0 266 256">
   <path fill="currentColor"
d="M177 243q0 3 2.5 5.5t4.5 2.5t3 -1.5t2 -3.5t1.5 -4t0.5 -3v-1v-1t-0.5 -2.5t-0.5 -2.5v-2v-1q0 -1 -0.5 -4t-0.5 -6.5t-0.5 -6.5t-0.5 -4l-2 -40t-1 -40q0 -3 1 -6t1 -6q0 -11 -3.5 -17t-9.5 -9t-14 -4t-17 -2l-2 -0.5l-2 -0.5q-1 -2 -1.5 -5.5t-0.5 -4.5q0 -4 3 -6.5
t7 -2.5q1 -1 4.5 -1.5t8 -1.5t8 -1.5t4.5 -0.5q6 -2 8 -7t2 -10q0 -8 -4 -12t-10 -5.5t-13 -1.5t-13 -1h-27q-5 0 -7 -3t-5 -7l-1 -0.5l-1 -0.5q-1 0 -3.5 0.5t-2.5 3.5v12q0 2 3 2.5t6.5 1t6 1.5t2.5 3v1v1q-8 8 -13.5 15t-13.5 15v1v1q0 4 3 4q5 0 11 -6t11 -13.5l9 -13.5
t6 -6h10h9h7t8 0.5t9 0.5q1 2 1.5 3.5t0.5 3.5q0 4 -3.5 5.5t-8.5 2.5t-11 1.5t-11 3.5t-8 9.5t-3 18.5q-1 2 -4 2.5t-7.5 1t-10 1.5t-10.5 4t-8.5 8t-4.5 14q-1 8 -0.5 17t0 17.5t-1 16.5t-3.5 17q0 1 -0.5 3l-1 4t-1 3.5l-0.5 1.5q0 1 -0.5 3.5t-0.5 6t-0.5 6t-0.5 3.5
q-1 6 -2.5 12.5t-1.5 12.5q0 2 0.5 4.5t2.5 2.5q5 0 8 -3.5t5 -9t2.5 -12l1 -13t0.5 -12.5v-9l9 -6t13.5 -8t14 -7.5t8.5 -3.5q4 0 8.5 2t9.5 5t9.5 6t9.5 4q4 2 6 5.5t3 8t1 9.5v9q0 8 -1 16.5t-1 16.5zM87 169v-1q0 -1 0.5 -4t0.5 -6.5t0.5 -6.5t0.5 -4v-5q1 -1 3 -2.5
t4.5 -2.5t4.5 -2.5t4 -1.5q1 -1 3 -2t4.5 -2.5t4.5 -3t2 -2.5h1h1q1 1 3 2l2 1v27l-2 1t-4 3t-4 3q-3 1 -6 3t-6.5 4t-6.5 3.5t-6 1.5q-4 0 -4 -3zM139 152q-2 -6 -2 -9.5v-9.5v-5q1 -1 2 -1.5t3 -0.5t7.5 2.5t11.5 6t10 7t4 5.5v21q0 1 -1.5 1h-1.5h-3q-1 -1 -3.5 -2.5
t-6 -3t-6 -3t-3.5 -2.5l-1.5 -1t-3.5 -1.5t-3 -1.5t-2 -1zM135 101v-4v-4q2 -1 3.5 -1h3.5q10 0 16.5 1.5t10 5.5t5.5 11t2 17q0 2 -1 4t-3 2h-2h-1q-1 -1 -3 -2t-4.5 -2.5t-4.5 -3t-2 -2.5l-8 -4t-6.5 -4t-4 -5t-1.5 -9zM118 93q1 0 3.5 0.5t2.5 3.5v15q0 2 -4.5 4.5t-10 5
t-11 4t-6.5 1.5q0 -8 0.5 -14t3 -10.5t8 -7t14.5 -2.5z" />
</svg>
