<?xml version="1.0" standalone="no"?>
<!DOCTYPE svg PUBLIC "-//W3C//DTD SVG 1.1//EN" "http://www.w3.org/Graphics/SVG/1.1/DTD/svg11.dtd" >
<svg xmlns="http://www.w3.org/2000/svg" xmlns:xlink="http://www.w3.org/1999/xlink" version="1.1" viewBox="-10 0 266 256">
   <path fill="currentColor"
d="M61 243q0 2 1 5t4 3q4 0 6 -3.5t2 -7.5q0 -7 -1.5 -14.5t-1.5 -15.5v-2l0.5 -1t0.5 -2q1 -3 1.5 -9t1.5 -13t1.5 -14.5t2 -14.5t3 -11.5t3.5 -5.5l4 -2t4.5 -1h5t4.5 -1q6 -2 12.5 -7.5t9.5 -10.5v-2q0 -3 -3 -3t-6 2.5t-5.5 5.5t-6 5.5t-9.5 2.5h-1.5h-1.5
q0 -4 2.5 -7.5t5 -6.5t4.5 -6t2 -6v-3.5t-3 -2.5t-6 5t-5.5 10.5t-6 10t-6.5 4.5q-4 0 -5.5 -3.5t-1.5 -5.5q0 -3 1 -5t2.5 -3.5t2.5 -3.5l2 -4v-1v-3v-2v-2q1 -2 5 -3.5t9.5 -3.5t10.5 -4t7 -6q-1 -2 -2 -2.5t-2 -0.5q-5 0 -11.5 3t-11.5 5q-1 0 -3 0.5l-4 1t-4.5 1
l-2.5 0.5l-0.5 1.5l-0.5 1.5q0 3 2 4.5t2 4.5q0 2 -2 4.5l-4 5t-4 5.5t-2 7q0 5 2.5 8t4.5 5t4.5 3.5t2.5 4.5q0 1 -1 3.5t-2.5 5t-2.5 4.5t-1.5 3.5t-1 4.5l-1 6t-1.5 5.5l-1 2.5q-1 8 -2 14t-1 11.5v11.5v13v4v6.5v6.5v4zM185 240q0 3 2 4.5t4 1.5q3 0 5 -3v-4.5v-7.5v-7
v-5v-22.5t-2 -22.5q-1 -10 -3.5 -20.5t-2.5 -21.5q0 -3 1.5 -5t3.5 -4t3.5 -4.5t1.5 -6.5q0 -7 -3 -12t-11 -5q0 2 1 4t2 3.5l2 3t1 3.5t-0.5 4t-1 4.5t-1.5 4t-3 1.5q-4 0 -6.5 -4.5t-5.5 -10t-6.5 -10t-8.5 -4.5q-3 0 -3 4q0 2 0.5 1.5t2.5 1.5q6 5 9.5 11.5t6.5 13.5h-4
q-2 0 -5.5 -0.5t-4.5 -1.5l-13 -12h-1h-1l-0.5 0.5l-0.5 0.5v1q0 6 3.5 10t9 6t11 2.5t10.5 0.5q0 1 1 5t2 9t2 9.5t1 6.5q0 3 0.5 10.5t1 15.5t1 15.5t0.5 10.5v6q0 5 -0.5 9.5t-0.5 9.5zM88 240q0 2 0.5 3.5t2.5 1.5q4 0 5 -2t1 -5v-5t3 -4q1 -1 4.5 -3t6.5 -3.5t5.5 -3
l2.5 -1.5h6q3 2 8.5 4.5t10.5 5.5t8 6.5t2 8.5l1.5 0.5l1.5 0.5q0 1 1 1v0q2 0 3.5 -1t2.5 -2v-4v-5.5v-5.5v-3v-5v-5v-5v-2q0 -1 -0.5 -3.5t-1 -5.5t-1 -5.5l-0.5 -2.5v-3.5v-4.5t-1 -4t-3 -2q-1 0 -3 -0.5t-4 -0.5t-4 -0.5t-3 -0.5t-2.5 -0.5t-3.5 -1t-3 -1.5t-1 -2
q0 -3 4 -4t8.5 -2.5t8.5 -3.5t4 -7l-0.5 -1t-0.5 -2q-1 -1 -4 -2l-6 -2t-6 -2.5l-5 -2.5q-3 -3 -5 -6.5t-6 -6.5q0 1 -0.5 2l-0.5 1v2t0.5 2.5t0.5 2.5v1v2q0 3 -5 5t-11 3t-11 2.5t-5 4.5v0q0 1 0.5 1.5t1.5 0.5q5 0 9.5 -1.5t8.5 -3l8 -3t9 -1.5h3.5t4.5 0.5t3.5 1.5
t1.5 2q0 3 -3 4.5t-5 3.5l-2.5 2.5t-4 3.5t-4 4t-2.5 2q-4 1 -9 1t-9.5 1.5t-8 4t-3.5 8.5q-1 1 -1 3.5t-0.5 6t-0.5 6.5v4q0 7 -1 16t-1 17zM127 206v-5t2 -5h1q3 0 7 2t7.5 5t6.5 7t3 6t-1 5t-4 3t-6.5 -1.5t-7 -4.5t-6 -6.5t-2.5 -5.5zM96 213q0 -2 2 -4t5 -4t6 -3t5 -1
t2.5 1t0.5 3q0 7 -5 10t-11 3q-3 0 -4 -1t-1 -4zM98 195q0 -9 4.5 -12t13.5 -3q3 0 5 0.5t3 4.5q0 3 -3 5.5t-7 4.5t-8 3t-6 1v0q-1 0 -1.5 -1.5l-0.5 -1.5v-1zM130 184q0 -3 1.5 -3.5t3.5 -0.5l1.5 0.5l1.5 0.5h3.5t4.5 0.5t3.5 0.5h1.5l2 1v17q-3 0 -7 -1.5t-7.5 -4
t-6 -5.5t-2.5 -5zM130 61v30q0 1 1.5 2l1.5 1q0 1 1 1q2 0 3.5 -1.5t2 -3.5t0.5 -4v-4q0 -5 -1 -9.5t-1 -8.5v-2t2 -2q3 -1 6 -1t5 -0.5t5 -0.5h5q7 0 14.5 1t14.5 1q2 0 5 -1t4 -4q1 -2 -2 -3t-5 -1q-9 0 -18 1t-19 1h-3t-4.5 -0.5t-4.5 -0.5h-2l-1 -1v-3v-3q0 -7 2 -11
t6 -6.5t9.5 -4t12.5 -4.5v-1v-2q0 -2 -1 -3t-4 -1q-6 0 -12 3.5t-12 5.5q-6 3 -8.5 8t-3 10t-0.5 9t-2 4h-13l-1.5 -1t-3 -3t-3.5 -3.5t-3 -3.5q-1 0 -2 -2l-1 -2l-2 -2l-2.5 -2.5l-2.5 -2.5l-1 -1h-1h-1q-1 0 -2 0.5t-1 2.5q0 3 1.5 5.5t3.5 5t3.5 5t1.5 5.5q0 1 -1 1.5
t-4 0.5h-26q-2 0 -4.5 1.5t-2.5 3.5q0 3 2 3h4h6q1 0 5.5 -0.5t10 -1t10.5 -1t6 -0.5h5t8.5 0.5t8.5 0.5h5zM149 70v4q1 0 2.5 1t4.5 2t5 2q3 1 6 3t6.5 3.5t7 2.5t7.5 1q0 -5 -5 -8.5t-11.5 -5.5t-13 -3.5t-9.5 -1.5zM151 45q0 2 2 2.5t3 0.5q3 0 7 -1.5t8 -3.5t6.5 -4.5
t2.5 -5.5v-2q-2 0 -7 1t-10 3.5t-8.5 5t-3.5 4.5z" />
</svg>
