<?xml version="1.0" standalone="no"?>
<!DOCTYPE svg PUBLIC "-//W3C//DTD SVG 1.1//EN" "http://www.w3.org/Graphics/SVG/1.1/DTD/svg11.dtd" >
<svg xmlns="http://www.w3.org/2000/svg" xmlns:xlink="http://www.w3.org/1999/xlink" version="1.1" viewBox="-10 0 266 256">
   <path fill="currentColor"
d="M170 207v2l1 2t1 3v2t0.5 4.5t0.5 4.5v2q1 3 3.5 7t6 7.5t7.5 6.5t7 3t5.5 -2t2.5 -5q0 -6 -4 -9t-8.5 -6.5t-9 -8.5t-4.5 -14q0 -6 3.5 -10.5l7 -9t6.5 -9t3 -11.5q0 -5 -3 -8t-7 -4.5t-7.5 -2.5t-3.5 -2v-19q0 -2 2.5 -3.5t6 -2t6.5 -1t4 -1.5q5 -6 8 -11.5t4 -12
t1 -13v-14.5v-6v-6.5v-6.5v-3v-2.5t-0.5 -6t-2 -6t-3.5 -2.5h-26l-0.5 1l-0.5 1l-0.5 0.5l-0.5 0.5l0.5 0.5l0.5 0.5l0.5 0.5t0.5 1.5h8t7.5 2t6 4.5t2.5 8.5v2.5t-0.5 3.5t-1.5 3t-2 1q-2 0 -3.5 -1t-3.5 -2.5t-5 -2.5t-7 -1v5l18 15l1.5 3t1.5 4v1v1v1.5t-0.5 3t-1 2.5
t-2.5 1t-4 -1.5l-4 -3t-4 -2.5t-5 -1h-2q-2 0 -2 1t2.5 4t6.5 6t7.5 6t4.5 4v1q0 5 -4 7.5t-9 3t-10 0.5h-8h-5.5t-7.5 -1.5t-6.5 -3.5t-2.5 -6v-2.5t1 -1.5t4 -3t6 -4.5t6 -4.5t4 -3q0 -1 0.5 -2l0.5 -1v-1v-1l-1 -1t-2 -1h-1q-2 0 -4.5 1.5t-5 4t-4.5 5t-3 3.5h-1
q-2 0 -2.5 -1t-0.5 -3q0 -11 3.5 -16t8 -8t8.5 -4.5t4 -4.5q0 -2 -0.5 -3t-2.5 -1v0q-2 1 -4.5 2l-5 2t-4.5 2t-3 1h-1l-1 -1.5l-1 -1.5q0 -1 1 -3t1.5 -4t1.5 -4t1 -3q1 -2 3 -3l4 -2t4 -1.5t4 -1.5v-1q0 -3 -3 -3h-3q-5 0 -11 2t-9 7q0 1 -0.5 3.5t-1 5.5t-1 5.5t-0.5 3.5
v1q0 11 1 23.5t2 22.5q1 7 4 11t7.5 6t10 2.5t10.5 1.5v18l-2 2l-3 3q-7 6 -12 12t-9 15q-1 12 -3 25t-2 25v2v4v4v2q1 3 3 6t5 3t4 -2.5t1 -5.5q0 -9 -1.5 -18t-1.5 -18q0 -14 5 -26.5t16 -20.5h3q2 0 5 0.5t6 2t5 3.5t2 5v1v1q-2 3 -5.5 7.5t-6 9.5t-4.5 10t-2 10zM44 238
q0 4 0.5 5t4.5 1q3 0 4.5 -2t3.5 -6v-7.5v-11.5t0.5 -11t0.5 -7t0.5 -5l1 -6t1.5 -5.5t2 -3.5q0 -1 2 -2t3 -2t3 -2t4 -3l3.5 -3.5l1.5 -1.5q2 -1 2.5 -2t1 -1h0.5h2t5 1.5t6 3.5l6 4t5 3v4t0.5 6.5t0.5 6.5v4v4q0 10 -0.5 19.5t-0.5 19.5q0 6 6 6h4t3 -3v-20
q0 -36 -1.5 -72t-0.5 -73q-5 -2 -11 -3t-11 -4l-0.5 -2t-0.5 -3q0 -5 2 -8.5t5 -5.5t7 -3.5t7 -4t5 -6.5t2 -11v-1.5v-1.5q-1 0 -2 -1.5t-2 -2.5l-2.5 -2.5l-1.5 -1.5h-6.5h-8.5h-9.5h-5.5q-6 0 -10.5 -1.5t-9.5 -1.5q-2 0 -3.5 0.5t-1.5 2.5q0 3 3 4.5t7 2t7 1t3 1.5
l-0.5 0.5l-0.5 0.5l-0.5 0.5t-0.5 1.5l-1.5 1l-3 2t-2.5 2l-1 1q-1 2 -4.5 5.5l-7 7t-6.5 7t-4 4.5q-1 0 -1.5 1.5l-0.5 1.5q0 1 1.5 2.5l1.5 1.5q4 0 8 -3t8.5 -7.5t8.5 -10t8.5 -10t9.5 -7.5t10 -3q4 0 7 2t3 6t-3 7t-7 5t-7.5 4.5t-5.5 6.5q-1 2 -1 4v4t-1 4l-2 4
q-5 5 -10 5.5l-10 1t-8.5 3.5t-4.5 11l-4 99q-1 0 -1.5 7t-1.5 15t-1.5 16t-0.5 11zM61 159v0q0 -2 0.5 -7t0.5 -10.5t0.5 -10t0.5 -6.5q1 -2 4.5 -5t8 -6t8 -5.5t4.5 -2.5v0h1q0 1 1.5 2l3 2l3 2l1.5 1l3 3l4 4t3 3.5l1 1.5v34l-1 3q-1 0 -4 -2l-6 -4t-5.5 -3.5t-2.5 -2.5
v-32l-0.5 -0.5l-0.5 -0.5h-1h-1l-1.5 0.5l-1.5 0.5q-2 8 -2 16.5v15.5q-1 1 -3 3.5t-4.5 4.5t-4 3.5t-2.5 1.5l-1 1h-2q-4 0 -4 -5zM93 89v-5t2 -4q0 -1 2.5 -1h3.5q8 0 10 5t2 12v3.5t-0.5 5.5t-1 5.5t-2.5 2.5q-4 0 -6.5 -3t-4.5 -6.5t-3.5 -8t-1.5 -6.5zM63 110v-5v-5
q0 -9 2.5 -15t11.5 -6q4 0 7 4v7q0 4 -1 6.5t-2.5 4t-4 3.5t-5.5 4l-0.5 1t-1.5 1l-1 0.5t-2 0.5v0.5t-1 0.5v-0.5v-0.5q-1 0 -1.5 -0.5z" />
</svg>
