<?xml version="1.0" standalone="no"?>
<!DOCTYPE svg PUBLIC "-//W3C//DTD SVG 1.1//EN" "http://www.w3.org/Graphics/SVG/1.1/DTD/svg11.dtd" >
<svg xmlns="http://www.w3.org/2000/svg" xmlns:xlink="http://www.w3.org/1999/xlink" version="1.1" viewBox="-10 0 266 256">
   <path fill="currentColor"
d="M157 214q0 12 5.5 21t14.5 17h1h1q3 0 4.5 -2t1.5 -4t-3 -6t-7 -8t-7 -8t-3 -7q0 -7 4 -12t9.5 -9t9.5 -8t5 -8q0 -8 0.5 -16.5t0.5 -17.5v-18v-17q1 -2 3.5 -2.5l5 -1t5 -0.5h3.5l1.5 -1.5t0.5 -1.5q0 -3 -2 -4t-4 -1q-19 0 -38 1l-38 2h-2h-3t-4 1t-3 2v0.5v0.5v0.5
v0.5l0.5 0.5t1.5 0.5h59l1 0.5t1 1.5l1 2.5t1 3.5v50q0 6 -2.5 10.5t-6 8.5t-8 7t-8.5 6q-2 3 -2 8v8zM104 227q0 2 1 3t3 1q3 0 5 -1.5t2.5 -3.5t0.5 -4v-5q0 -28 -0.5 -57t-1.5 -56v-3.5v-5t-0.5 -5t-0.5 -3.5q-1 -3 -3 -4t-5.5 -2t-5.5 -1h-4t-2 -1l-2 -2v0q0 -8 3.5 -12
t7 -6.5t7 -4.5t3.5 -6q0 -5 -3.5 -8t-8.5 -5.5t-9.5 -5t-6.5 -5.5l-2 -4t-1.5 -4.5t-2 -4t-4.5 -1.5t-4 2t-1 4q0 3 1 5t2.5 4t2.5 4t1 4q0 4 -4 6.5t-8.5 5t-8 5.5t-3.5 8q0 2 0.5 3.5t3.5 1.5t5.5 -2t5.5 -5l3 -3l4.5 -4.5t5 -4.5t2.5 -3q1 0 2.5 -0.5t2.5 -0.5q3 0 7 2
t4 6q0 2 -1.5 3.5t-3.5 2.5t-3.5 2.5l-2.5 2.5q-2 2 -2.5 5.5t-0.5 6.5t-1 6t-4 3q-3 1 -6 1.5t-6 1.5t-6 2.5t-5 4.5q-1 2 -2 7.5t-1.5 11.5t-0.5 12v9v9q-3 20 -5.5 37.5t-2.5 36.5v5v5q0 2 1 2.5t3 0.5q4 0 6 -5t2.5 -11.5t0.5 -12.5t1 -9v-4t0.5 -6t0.5 -5.5v-3.5
q2 -1 5 -4t7 -5.5t7.5 -4t6.5 -1.5q1 0 4 1.5t6 3.5t5.5 4t3.5 3v3t0.5 4.5t0.5 5v3.5v18v18q-1 3 -1 4.5v4.5zM131 158q0 3 2.5 4t6 1.5t7 0t4.5 -0.5t4 0.5t6 0t6 -1.5t3 -3v-34q0 -3 -1.5 -3h-2.5q-3 0 -3.5 2t-0.5 4v4t-3 2h-15q-2 0 -2.5 -2l-1 -4l-1 -4t-2.5 -2
q-1 0 -2.5 1t-1.5 2q0 2 -0.5 6t-0.5 9t-0.5 9.5t-0.5 5.5v3zM140 148q0 -1 0.5 -2.5t0.5 -2.5l0.5 -0.5l0.5 -0.5h15q3 0 3.5 2.5t0.5 4.5q0 5 -3.5 5.5t-8.5 0.5h-5q-3 0 -3.5 -2.5t-0.5 -4.5zM62 148v-5t0.5 -8.5t1.5 -8t3 -4.5q3 -2 5 -3.5t4 -2.5t4 -1.5t5 -0.5
q7 0 13 5.5t6 12.5q0 5 -0.5 9t-1.5 10q0 1 -1 1.5t-2 0.5q-4 0 -6 -3t-3 -7t-1.5 -7.5t-0.5 -5.5q0 -1 -1 -2t-1 -2h-1q-3 0 -4.5 2.5t-2 6t-0.5 6.5t-0.5 4t-2 2.5t-4 3t-4 2.5t-2.5 1q-3 0 -3 -2.5v-3.5zM90 105v-15q0 -1 0.5 -1.5t1.5 -0.5h2h1q3 0 6 0.5t3 4.5v17
q0 2 -1.5 2.5t-2.5 0.5h-1.5t-0.5 -1zM66 108v-5.5t1 -6t3 -4.5t6 -2q2 0 3.5 1.5t1.5 3.5q0 6 -2 11t-10 5q-3 0 -3 -3zM124 90q0 1 0.5 2t1.5 1q5 0 9.5 -3t8.5 -6t8.5 -5.5t9.5 -2.5q4 0 8 2t7.5 5t7 5t8.5 2q1 0 2.5 -0.5t1.5 -2.5v-1v-1q-3 -5 -8 -7l-10 -4t-8.5 -4
t-3.5 -7v-7.5t1 -8.5l1.5 -1.5t1.5 -0.5q5 0 9 2t6.5 4.5t6 4.5t7.5 2q2 0 3.5 -2t1.5 -4q0 -3 -2 -4t-4 -1.5t-4.5 -1.5t-3.5 -3q-1 0 -4 -1t-6.5 -2.5t-6.5 -2.5t-4 -1l-3 -2q1 -3 1 -6v-7q0 -2 -1 -4.5t-4 -2.5q-2 0 -4 0.5t-2 2.5v19l-3 1.5t-4 2.5q-3 1 -7.5 3
t-9.5 3.5t-9 4t-4 4.5q0 1 2 2.5t3 1.5q5 0 8.5 -2.5l7 -5t7 -4.5t7.5 -2h1q0 1 0.5 4t0.5 4v2v4t-0.5 4t-0.5 3t-0.5 2t-1.5 1l-29 19l-1 1v2z" />
</svg>
