<?xml version="1.0" standalone="no"?>
<!DOCTYPE svg PUBLIC "-//W3C//DTD SVG 1.1//EN" "http://www.w3.org/Graphics/SVG/1.1/DTD/svg11.dtd" >
<svg xmlns="http://www.w3.org/2000/svg" xmlns:xlink="http://www.w3.org/1999/xlink" version="1.1" viewBox="-10 0 266 256">
   <path fill="currentColor"
d="M153 224q0 2 1 4t3 2q1 0 2.5 -1t2.5 -2t1.5 -2t1.5 -1v-43v-3v-3.5t0.5 -3l0.5 -1.5l4 -1h33q2 0 3 -1.5t1 -3.5q0 -1 -1 -2.5t-3 -1.5h-38v-11l0.5 -0.5l0.5 -0.5q8 -2 13 -3t7.5 -3t3.5 -7t1 -16v-4t-3 -1h-3t-1 1q0 5 -0.5 9.5t-1.5 7t-4 4.5t-9 2q-2 0 -3 -2.5
t-1 -5v-5v-3.5h-6l-3 17h-1h-1q-6 0 -8 -3.5t-2.5 -8t-1 -8.5t-4.5 -4l-0.5 1t-1 2.5t-0.5 2.5v2q0 9 1.5 13.5t4 7t5 3t4.5 1t3.5 2t1.5 5.5v3t-2 3q-7 0 -13 0.5t-14 1.5q-2 0 -3 0.5t-1 2.5t0.5 3t2.5 1h28l2 3v3.5v3.5q0 11 -1.5 22t-1.5 22zM48 217l1.5 1t2.5 1
q4 0 6 -2.5t3 -5.5q0 -14 0.5 -28t1.5 -28q2 -1 4.5 -3t5.5 -4.5t6 -4t6 -1.5h1v0q1 1 3 2.5t4.5 3t4.5 3t3 1.5l2.5 2.5t1.5 2.5v1q0 14 -0.5 29.5t-1.5 29.5l1 1l1 1q1 1 2.5 0t3 -1.5t2.5 -1.5t1 -2v-144q0 -3 -3.5 -3.5t-8 -1.5t-8 -3t-3.5 -8q0 -4 1.5 -6t4 -3.5
t6 -2.5t6 -3t4 -5.5t1.5 -9.5q0 -1 -0.5 -2.5t-2 -3l-3 -3t-3.5 -1.5h-25l-2 -1t-3.5 -2t-3.5 -2l-2 -1h-1h-1l-0.5 0.5l-0.5 0.5v1q0 4 2.5 7t5.5 5v1q0 4 -3.5 5.5t-8 2.5t-8 2.5t-3.5 4.5q0 2 1.5 3t2.5 1h2q1 0 3 -1t4.5 -2l5 -2t3.5 -1q1 -2 3.5 -4t5.5 -4t6 -3t5 -1
q4 0 7.5 0.5t3.5 5.5q0 2 -2.5 4t-6 4t-6.5 5t-4 7l-0.5 2t-0.5 4t-0.5 4t-0.5 3q-1 2 -5.5 2t-9.5 0.5t-9 2t-4 5.5l-2 36v6q0 3 -0.5 9.5t-0.5 14.5t-0.5 17t-1 17t-1 14.5t-0.5 9.5v8v2t-0.5 4t-0.5 3.5v2.5zM63 115l1 -3q1 -1 3 -2.5t4.5 -3.5t4.5 -3.5t3 -2.5l1.5 -1.5
l1 -1t1 -0.5h1.5q2 0 4 1.5t4.5 3.5l5 4t5.5 3l1 0.5t1 1.5q1 0 1 2t0.5 3.5t0.5 3.5v2q0 1 -1 3l-1 2v12q0 1 -0.5 1.5t-1.5 0.5q-5 0 -8 -3t-4.5 -7t-2 -8t-0.5 -8q-1 -1 -2 -1h-2h-2.5t-1.5 1v18l-14 12h-0.5h-0.5h-0.5h-0.5l-0.5 -0.5t-0.5 -1.5v-28zM124 100q0 1 0.5 2
t1.5 1h30q1 0 1 2v4t0.5 4t3.5 2t4 -1.5t1 -3t0.5 -3t2.5 -2.5q8 -2 17 -2h17q2 0 3 -1t1 -3t-0.5 -3.5t-1.5 -1.5h-35l-0.5 -0.5l-0.5 -0.5q-2 -3 -2 -5v-6v-3v-3l3 -2h29l2 -4l-4 -3h-28q-1 0 -1.5 -1t-0.5 -2q0 -2 0.5 -5t2 -6t3.5 -5.5t6 -2.5q5 0 10 1.5t11 1.5h4h3
q2 0 2 -2v-3q0 -3 -3 -4l-6 -2h-4q-2 0 -5 0.5t-5.5 0.5h-3.5q0 -4 1 -6.5t2 -4.5t2 -4.5t1 -6.5t-0.5 -4.5t-3.5 -0.5q-5 0 -7 5.5t-4 12t-4 12.5t-5 6q-5 0 -7 -5.5t-3 -11.5t-3.5 -11.5t-6.5 -5.5q-3 0 -3 2.5v4.5q0 4 2 7t2 7v0q0 1 -0.5 2.5l-0.5 1.5h-21l-1 1.5
t-2 2.5v1q0 2 2.5 3.5t4.5 1.5h2q1 0 3.5 -0.5t5.5 -0.5t5.5 -0.5t3.5 -0.5h2q1 0 2.5 2.5t2.5 5t1.5 5.5t0.5 4v0.5v0.5q-1 1 -1.5 2.5l-0.5 1.5h-22q-2 0 -2.5 1t-0.5 3v1.5t2 1.5h26l1 1.5t1 2.5v4.5v4.5v3.5v2.5l-3 2h-29q-2 0 -2.5 1.5t-0.5 2.5zM88 76v-1
q0 -1 0.5 -1.5l0.5 -0.5h14q1 0 1.5 2t1 4.5t0.5 5.5v2v3t-0.5 4.5t-1 4t-2.5 1.5h-1q-6 -5 -9.5 -10.5t-3.5 -13.5zM63 95v-4v-3t0.5 -4t0.5 -4.5v-3.5q1 -2 2.5 -2.5t3.5 -1t4 -0.5h4h3t1 2v1q0 1 -0.5 3t-0.5 4.5t-0.5 4.5t-0.5 3t-2 2.5t-4.5 3t-4.5 2.5t-3 1
q-3 0 -3 -1v-3z" />
</svg>
