<?xml version="1.0" standalone="no"?>
<!DOCTYPE svg PUBLIC "-//W3C//DTD SVG 1.1//EN" "http://www.w3.org/Graphics/SVG/1.1/DTD/svg11.dtd" >
<svg xmlns="http://www.w3.org/2000/svg" xmlns:xlink="http://www.w3.org/1999/xlink" version="1.1" viewBox="-10 0 266 256">
   <path fill="currentColor"
d="M91 214q2 0 5 1.5t5 3.5t4.5 4t4.5 3l3.5 3.5l2.5 2.5v17q0 2 2 2h3t3 -0.5t2 -2.5v-61q-1 -5 -1 -11.5t-3 -10.5q-1 -2 -3.5 -4.5l-2.5 -2.5h-17q-2 0 -3 -2t-1 -4t3 -4t6.5 -5t6 -7t2.5 -10q0 -2 -1 -3t-4 -3h-3h-4h-4h-3h-12t-13 1v1q0 3 1.5 3.5t3.5 1t3.5 1t1.5 2.5
q0 6 -5 10t-10.5 7t-10 5t-4.5 3q0 3 1.5 3.5t3.5 0.5q5 0 10.5 -3t9.5 -6.5t7.5 -8.5t4.5 -10q1 -1 1.5 -2l0.5 -1q2 -2 4.5 -2h4.5q3 0 5 0.5t2 3.5q0 4 -1.5 6t-4 3t-5 2.5t-4.5 4.5q0 1 -0.5 3l-1 4t-1.5 3.5t-3 2.5q-4 1 -7.5 1.5t-6.5 1.5t-6 3t-6 6t-4.5 9t-1.5 11
t0.5 11.5t0.5 9.5q0 6 -1.5 13t-1.5 13q0 2 1 4.5t4 2.5t4 -1.5t1 -4.5v-4t1 -4q0 -1 5 -4t10.5 -6t10.5 -5zM177 195q3 0 3 1.5t1 3.5q0 2 1 5t1.5 6.5t1 6.5t0.5 4q1 2 2.5 6t3.5 8.5t4 8t5 3.5t5 -1.5t2 -4.5v-1v-1q-3 -5 -6 -10.5t-5.5 -11.5t-4 -12t-1.5 -12
q0 -5 2 -8.5t5 -7t5 -8t2 -13.5q0 -10 -2 -16.5t-5.5 -10t-9 -5t-11.5 -2t-13.5 -0.5t-15.5 -2q-2 2 -3 3.5t-1 2.5l0.5 0.5l0.5 0.5l0.5 0.5l0.5 0.5q12 2 23 2.5t22 4.5q3 3 3 7.5v7.5t0.5 7t-0.5 8.5t-2.5 7.5t-5.5 3h-1q-4 -5 -6 -9t-4.5 -7t-6.5 -4.5t-11 -1.5h-5
t-5.5 0.5t-4.5 1.5t-2 4q0 4 4 4t8.5 -1t9.5 -1q3 0 5 2t3 4.5t2 5.5t2 5l1.5 1.5l1.5 1.5l-0.5 1.5l-0.5 1.5l-0.5 0.5t-1.5 0.5q-1 1 -5 2l-8 2l-8 2t-5 1h-5t-3 0.5t-2 2t-1 5.5q6 0 11 -1t10 -2.5t10 -2.5t10 -1zM61 217v-4q0 -4 3.5 -8.5t8 -8t9.5 -5.5t9 -2
q3 0 7.5 2.5t9 6t8 7.5t3.5 8v1q-2 2 -3 3.5t-3 1.5q-1 0 -1.5 -0.5l-0.5 -0.5l-1.5 -1.5t-3.5 -3t-3.5 -2.5t-2.5 -2l-2 -1.5l-2 -1.5q-2 -1 -2 -3v-3q0 -2 -0.5 -3.5t-2.5 -1.5t-2.5 1.5t-1 3.5t-0.5 3.5t-1 2.5q0 1 -3 3t-7 4l-7 3.5t-4 1.5v0q-1 0 -2 -0.5t-2 -0.5z
M96 165h14q1 0 2 2.5t2 5.5t1.5 6.5t0.5 4.5v2v2.5t-1 2.5t-2 1t-3.5 -1.5t-5.5 -4t-5.5 -4.5l-2.5 -2v-15zM82 165h3q1 0 1 1v17l-1.5 1t-3.5 2l-4 2t-3 1q-1 1 -4 1h-4q0 -4 0.5 -8.5t2 -8.5t5 -6t8.5 -2zM123 142q1 0 1.5 0.5l0.5 0.5h1q1 0 2.5 -1.5t2.5 -3.5t1.5 -4.5
t0.5 -3.5v-2q0 -1 -1 -3.5t-1 -3.5v-23q-2 -6 -7.5 -8.5t-11.5 -3t-12.5 -0.5h-12.5q-11 0 -18 1t-10.5 4t-5.5 9t-2 17q0 1 -0.5 4.5t-0.5 7.5v7.5v4.5q2 0 5.5 -0.5t4.5 -3.5v-21q0 -9 2.5 -14t9.5 -7.5t21 -2.5h3h4t4 0.5l2 0.5q1 1 3.5 1.5t5.5 1t5.5 3.5t2.5 10
q1 2 1 7v10v9q0 5 -1 7zM72 108l0.5 0.5t1.5 0.5h6h8.5h7.5t8.5 -0.5t9.5 -0.5v-1.5v-0.5q0 -2 -0.5 -3.5t-2.5 -0.5l-37 3q-1 0 -1.5 1t-0.5 2zM148 94q2 3 9 4.5t15 2.5t15.5 1.5t10.5 0.5q1 0 3 -1t2 -3h-0.5t-0.5 -1l-0.5 -1l-0.5 -1q-5 -1 -11 -1h-11t-12 -1t-11 -3v-3
v-2q0 -7 4 -9.5t9.5 -3.5t10.5 -1q6 0 10 -1q7 -3 9.5 -8.5t2.5 -12.5q0 -1 -0.5 -3.5t-1 -4.5t-2 -3.5t-3.5 -1.5h-41q0 -1 0.5 -3.5t0 -5t-1.5 -4.5t-3 -2t-3.5 1.5t-1.5 2.5v17q-1 2 -2.5 3.5t-2.5 4t-2 4t-1 3.5v1q1 0 1.5 1.5l0.5 1.5h1q3 0 4 -2l2 -4t2 -4.5t3 -3.5
q7 -2 12.5 -2h11.5h12q2 1 3.5 2.5t1.5 4.5q0 6 -4 9t-9.5 4.5t-12.5 1.5h-10q-3 0 -4.5 2.5t-2.5 5.5t-1 6v5v3.5v3.5zM48 73l0.5 1t0.5 2h4q10 0 19 -0.5t18.5 -1t19 -0.5h20.5q2 -2 2 -6h-33v-11q1 0 4.5 -0.5t7.5 -1.5t7.5 -2.5t3.5 -4.5v-18q0 -2 -1 -2h-2q-3 0 -5 3v6
q0 3 -0.5 5.5t-2.5 5t-6 2.5q-2 0 -5 -1t-3 -4v-31q0 -1 -3 -1.5l-3 -0.5q-1 0 -3 0.5t-2 2.5v1l1 2.5t1 3.5v3t0.5 7t0.5 8v6v1q0 3 -2 3h-3q-1 0 -3 -0.5l-4 -1t-3.5 -1t-1.5 -1.5v-18q0 -1 -1.5 -2t-2.5 -1l-1.5 0.5l-1.5 0.5l-2 2v18q0 6 4 8t9 2.5t9 1.5t4 5q0 1 -1 3
t-3 2h-34l-1 0.5l-1 0.5q0 1 -0.5 2t-0.5 2z" />
</svg>
