<?xml version="1.0" standalone="no"?>
<!DOCTYPE svg PUBLIC "-//W3C//DTD SVG 1.1//EN" "http://www.w3.org/Graphics/SVG/1.1/DTD/svg11.dtd" >
<svg xmlns="http://www.w3.org/2000/svg" xmlns:xlink="http://www.w3.org/1999/xlink" version="1.1" viewBox="-10 0 266 256">
   <path fill="currentColor"
d="M121 248q0 2 0.5 2.5t2.5 0.5q6 0 10.5 -4.5t8 -11.5t7 -15.5t5.5 -15.5t4 -11.5t4 -4.5t4 4.5t4 12t5 15.5t6 15t7 11.5t9 4.5q3 0 4 -1t1 -4q0 -4 -2 -6t-4 -5q-4 -7 -8 -14.5t-8 -15.5t-6 -16.5t-2 -16.5v-4q10 -1 15.5 -3t8 -6t3 -11t0.5 -17t-2 -15.5t-5.5 -8
t-7.5 -3t-7.5 -0.5t-5.5 -1t-2 -4v-28q7 -2 9.5 -5t3.5 -7t2 -7.5t4 -6.5h3h4h4.5h2.5q2 0 4 -1t2 -3q0 -1 -0.5 -3l-0.5 -2h-22v-21l-1 -1.5t-2 -1.5v0h-1q-1 0 -3 0.5l-2 0.5v24q0 1 -1 1.5t-2 0.5h-5h-4q-2 0 -5 -0.5t-5 -1.5t-2 -3v-19q0 -1 -1 -1.5t-2 -0.5t-3 0.5
t-2 1.5v24h-20q-1 0 -1 1v2v2.5t1 1.5h20q0 1 0.5 3t0.5 4v4t1 2q0 4 2.5 6t5 3t4.5 2.5t2 2.5v31q0 1 -5 2t-10 2.5t-10 5t-5 9.5v24q0 7 4 11t9.5 6.5t10 4.5t6.5 5q-1 0 -1.5 0.5t-0.5 1.5q-5 8 -8.5 17.5t-8 19.5t-9.5 18.5t-12 14.5v2zM47 240q0 2 0.5 4t3.5 2
q2 0 4.5 -3t2.5 -5q1 -16 1.5 -32t-0.5 -32q1 -3 4 -5.5t6.5 -4.5t7 -3t6.5 -1t6 0.5t6 2t5 4t2 6.5v68q0 3 2.5 4t4.5 1t3 -2t1 -3v-11v-9t-2 -8v-23q0 -26 2 -51t2 -51v-6q-1 -1 -1 -3t-0.5 -3.5t-1 -2.5t-1.5 -1h-20q0 -1 -0.5 -3t-0.5 -4v-4v-3t0.5 -2t1.5 -1l21 -8
l2 -2v-2t0.5 -5.5t0.5 -4.5v-2q0 -5 -4 -7t-9.5 -3t-11.5 -1.5t-9 -1.5q-4 -2 -8 -3.5t-9 -1.5q0 3 1.5 5t3.5 3.5t3.5 3t1.5 4.5q0 1 -0.5 2.5l-1 3t-1.5 3t-2 1.5l-16 3q-1 0 -2 2t-2 3v1v0l2 2l2 2v0q10 0 15.5 -4t9 -8.5t6 -8t5.5 -3.5h3t4 0.5t4 0.5h3q2 1 2.5 2.5
t0.5 3.5q0 4 -1.5 6t-4.5 3t-6.5 2t-6 3.5t-5 7.5t-2.5 14q-2 1 -5.5 2t-7.5 2t-7.5 1.5t-5.5 0.5l-0.5 1.5l-0.5 1.5q-3 11 -3.5 22.5t-0.5 23t0.5 23t-0.5 22.5q0 17 -1.5 34.5t-1.5 34.5zM141 147v-3.5t1 -2.5h20v10t-1 10q-1 1 -2 1h-2q-2 0 -5 -1.5t-5.5 -3.5t-4 -5
t-1.5 -5zM181 139q4 0 6 1t2 6t-3 9.5t-9 4.5h-2h-2.5t-1.5 -2v-16q0 -1 1.5 -1.5l3 -1t3 -0.5h2.5zM61 157v-34q4 -1 6.5 -2.5t5 -3.5t5.5 -3.5t7 -1.5q5 0 8.5 2t6 5.5t3.5 8t1 9.5v4q0 2 -0.5 4.5t-0.5 5t-0.5 4.5l-0.5 2l-1 1q0 1 -3 -1t-5 -4l-2 -2l-2 -2q0 -1 -0.5 -3
t-0.5 -4.5t-0.5 -4.5t-0.5 -3v-2t-0.5 -3.5t-1.5 -2.5t-2 -1h-2t-2 2v3.5t-0.5 5.5t-0.5 6v4q0 4 -3 6q-1 1 -3 2t-3.5 2t-3 1.5l-1.5 0.5zM140 127q0 -7 4.5 -11t10.5 -4q2 0 3 0.5t3 2.5v3t0.5 4t0.5 3.5v2.5v1v1v2t-1 1h-17q-3 0 -3.5 -2.5t-0.5 -3.5zM169 118
q0 -6 2.5 -6.5t8.5 -0.5q4 0 7 4.5t3 8.5q0 1 -0.5 3t-0.5 3q0 2 -3.5 2.5l-3.5 0.5q-8 0 -10.5 -4t-2.5 -11zM59 108q0 -5 0.5 -10.5t2.5 -9.5t5.5 -6.5t9.5 -2.5h1l1.5 0.5l1.5 0.5v4v4v4.5t-0.5 5t-1 4.5l-0.5 2l-13 10q-2 1 -3 0.5t-2 -2t-1.5 -3zM89 80q0 -1 0.5 -1h2
h1.5h2q3 0 5.5 1t4.5 3q0 1 0.5 3.5t0.5 5.5t0.5 5.5t0.5 3.5v2v3t-0.5 3.5l-1 3t-2.5 1.5h-1l-2 -2t-4.5 -3.5t-4 -3.5t-1.5 -3zM181 78q0 4 2 7.5t5 6t7 4.5t7 5h1h1q2 0 3 -1.5t1 -3.5q0 -4 -3 -7t-7.5 -5.5t-9 -4t-7.5 -1.5zM124 95v1q0 1 0.5 1.5l0.5 0.5h0.5h0.5
q2 0 5.5 -2t7.5 -4.5t6.5 -5.5t2.5 -5q0 -4 -3 -4q-1 0 -4.5 2.5t-7.5 6t-6.5 6.5zM154 53v-2q0 -1 0.5 -2.5t1.5 -1.5h21q0 6 -2.5 11t-9.5 5q-4 0 -7.5 -2.5t-3.5 -7.5z" />
</svg>
