<?xml version="1.0" standalone="no"?>
<!DOCTYPE svg PUBLIC "-//W3C//DTD SVG 1.1//EN" "http://www.w3.org/Graphics/SVG/1.1/DTD/svg11.dtd" >
<svg xmlns="http://www.w3.org/2000/svg" xmlns:xlink="http://www.w3.org/1999/xlink" version="1.1" viewBox="-10 0 266 256">
   <path fill="currentColor"
d="M164 243q0 3 1 5t4 2t4 -0.5t2 -3.5l0.5 -2t0.5 -4.5t0.5 -4.5t0.5 -3v-2q0 -12 -1 -24t-1 -25h34l1.5 -1t1.5 -2v0v0v-1v0q0 -1 -1.5 -2.5l-1.5 -1.5h-34l-0.5 -1.5l-1 -3t-0.5 -2.5v-2v-3q0 -1 2 -2q16 -1 23.5 -9t7.5 -25q0 -13 -3 -19.5t-9 -9t-14 -2.5h-20
q-4 0 -9 1.5t-9 4t-7 6t-3 8.5v1v0v6t0.5 9t0.5 9v6q2 7 7.5 9t10.5 3.5t9 3t4 7.5v2t-1 2q-9 2 -18 3l-18 2q-1 0 -1.5 1t-0.5 2v0.5v0.5q3 2 5 2h5q5 0 10.5 -1t10.5 -1h7q2 7 2.5 13.5t0.5 13.5q0 9 -1 17.5t-1 17.5zM48 235q0 3 1 5.5t3 2.5q3 0 4.5 -1.5t2.5 -3.5
q0 -1 0.5 -2.5t0.5 -4v-4.5v-3v-41q2 -2 5 -5.5t7 -6.5t7.5 -5t6.5 -2h1h1l2.5 2.5t4 3t4 3.5t2.5 2q1 1 2 1.5t2 1.5t1.5 2t0.5 3v57q0 2 1.5 2.5t2.5 0.5q3 0 4.5 -1t2.5 -4v-3v-4v-5v-3v-4v-4v-4.5v-2.5t-0.5 -5t-1 -9t-1 -11t-1 -11t-1 -9t-0.5 -5q-1 -20 -0.5 -39.5
t-2.5 -38.5q-5 -5 -9.5 -6.5t-12.5 -2.5q-1 -1 -1 -2v-3q0 -5 3 -8t7 -5.5t7 -6t3 -9.5v-3t-2 -3q-1 0 -4.5 -1l-7 -2l-7 -2t-4.5 -1q-3 -1 -4.5 -3t-3.5 -5t-3.5 -4.5t-4.5 -1.5t-3.5 0.5t-0.5 3.5q0 2 1.5 4t2.5 3.5t2.5 3.5t1.5 5q0 6 -4 9t-9 6t-9 6.5t-4 10.5
q7 0 12 -4.5t9.5 -9.5t9.5 -9t13 -4h3h3q2 1 2 1.5v1.5q0 4 -2 6.5t-5 5.5t-6 5.5t-4 6.5l-0.5 1.5l-1 3l-1 3l-0.5 1.5q-2 4 -5 3t-6.5 -1t-7 2.5t-6.5 11.5q0 37 -1.5 74t-1.5 73zM59 166v-2v-6.5t0.5 -9.5t0.5 -9.5v-6.5q2 -1 5 -4l6 -6t6.5 -5t6.5 -2q2 0 3.5 1.5
l3.5 3.5q2 1 4 3t4 3.5t3.5 3l1.5 1.5v35l-0.5 0.5t-1.5 0.5l-1 1v-0.5v-0.5l-13 -12q-1 -2 -1 -6v-8q0 -5 -0.5 -8.5t-2.5 -3.5q-1 0 -2 0.5t-2 1.5q0 3 -0.5 10t-2.5 13.5t-5 11.5t-9 5q-2 0 -3 -1.5t-1 -3.5zM141 136v-3q0 -2 2 -2h18q2 0 2.5 1.5t0.5 4v4.5v2v7
q-2 3 -7 3q-7 0 -11.5 -5t-4.5 -12zM172 140q0 -5 1 -8t5 -3h5.5t5 0.5t4 1.5t1.5 4q0 9 -5 13t-13 4q-2 0 -2.5 -1.5t-1 -4t-0.5 -4.5v-2zM141 114q0 -2 1 -4.5t3.5 -4.5t5 -3.5t4.5 -1.5q3 0 4.5 2t2 4.5t1 5.5t0.5 5q0 4 -0.5 5t-5.5 1h-5t-5.5 -0.5t-4 -2.5t-1.5 -6z
M172 110v-2q0 -2 0.5 -3.5t1 -2.5t2.5 -1q9 0 14 3.5t5 13.5v0q0 1 -1 2t-2 1h-15q-2 0 -3 -1t-1.5 -3t-0.5 -4v-3zM87 78q2 0 4.5 0.5t5 1.5t4 3t1.5 5v32q-2 0 -4.5 -1.5t-5 -4.5t-4 -5.5t-1.5 -4.5v-26zM60 97q0 -8 2.5 -12.5t10.5 -4.5h4q0 2 0.5 5.5t1 7.5t0.5 7.5v5.5
v0q0 2 -2 4t-4.5 4t-5 3t-4.5 1v0h-1q-1 -7 -1.5 -11t-0.5 -10zM170 72q2 5 6 6.5t8 1.5q10 0 14 -2.5t5.5 -7.5t1.5 -11.5v-15.5v-20q0 -2 -2 -2.5t-3 -0.5h-1h-2t-2 0.5t-1 1.5v22l-1.5 0.5t-2.5 1.5h-1q-9 0 -11 -4.5t-1 -13.5q-1 -1 -2 -1.5t-2 -0.5q-3 0 -3.5 1.5
t-0.5 3.5v3v2v7t0.5 11t0.5 11v7zM125 42q0 1 0.5 4.5t0.5 7.5t0.5 8t0.5 6q0 4 2 6t4 3t5.5 1.5t6.5 0.5q6 0 8.5 -2t3.5 -5.5t1 -7.5v-9v-4t0.5 -7t1 -7t0.5 -4v-3q0 -5 -6 -5h-1h-1v7t-0.5 7.5t-2.5 5.5t-6 2h-2.5t-3 -0.5t-2.5 -1t-1 -1.5v-17q0 -1 -1 -1.5l-1 -0.5h-1
h-1l-1.5 0.5t-1.5 1.5l-0.5 2.5t-0.5 5t-0.5 5zM135 61v-2v-3q2 -1 5 -2t6 -1t3.5 1t0.5 5v4.5t-1 4.5t-2.5 3.5t-3.5 1.5q-5 0 -6.5 -3.5t-1.5 -8.5zM176 60q0 -1 0.5 -3.5t0.5 -3.5q3 0 5.5 -0.5t6.5 -0.5t5 4t1 8v2v2.5t-1 2.5t-2 1h-11q-2 0 -2.5 -1.5t-1 -3.5l-1 -4
t-0.5 -3z" />
</svg>
