<?xml version="1.0" standalone="no"?>
<!DOCTYPE svg PUBLIC "-//W3C//DTD SVG 1.1//EN" "http://www.w3.org/Graphics/SVG/1.1/DTD/svg11.dtd" >
<svg xmlns="http://www.w3.org/2000/svg" xmlns:xlink="http://www.w3.org/1999/xlink" version="1.1" viewBox="-10 0 266 256">
   <path fill="currentColor"
d="M187 106q1 36 1.5 72.5t0.5 72.5h7.5t3.5 -4q0 -23 -2 -46.5t-2 -46.5v-4t0.5 -4t0.5 -3v-2v-4v-6.5t0.5 -7t0.5 -4.5v-4t-0.5 -6t-0.5 -6v-4q0 -2 -2.5 -3t-4.5 -1q-1 0 -3.5 -0.5t-5.5 -0.5t-6 -0.5l-3 -0.5h-4h-8h-9h-7h-6h-8h-8h-6q-6 2 -12 2h-12.5h-12.5
q-7 0 -13 1q-3 2 -4.5 9t-2 16.5t-1 21t-1 22t-0.5 19v11.5q-1 12 -3 25t-2 25q0 3 2 3.5t4 0.5t3.5 -1t3.5 -4q1 -16 2 -32.5t1.5 -33t1 -33.5t1.5 -33q1 -4 4 -7.5t8 -3.5h100q1 0 2.5 1.5t1.5 3.5zM157 229q0 1 0.5 3t0.5 4t0.5 4t0.5 3q0 2 1 2.5t2 0.5q3 0 5.5 -1
t2.5 -4q0 -8 -1.5 -16t-1.5 -16q0 -3 -0.5 -10.5t-0.5 -15.5q0 -9 0.5 -16t0.5 -10q-1 -3 -3 -4.5t-5 -2l-6 -1t-4 -0.5t-3 -0.5t-4.5 -0.5t-4.5 -0.5t-3 -0.5v-1v-2v-3.5t3 -2.5l27 -3q2 -1 3.5 -3t2 -4.5t0.5 -5v-4.5q0 -7 -6 -10h-16h-10t-13.5 0.5t-15.5 1t-14.5 1.5
t-10.5 2t-4 3q0 3 1.5 3h4.5h4l2.5 -0.5t3.5 -0.5q6 0 6 5q0 4 -4 5t-8.5 1t-8.5 1t-4 5q0 3 1.5 3h3.5h4.5t3.5 -0.5l4 -1t5 -1.5q7 -2 9.5 -5t3.5 -6t1 -5t2 -3q6 -1 12.5 -1h12.5h5q4 0 7 0.5t5 2t2 4.5q0 4 -3.5 5.5t-7.5 2t-8.5 0.5h-5.5q-4 1 -5.5 4t-2.5 6t-2.5 5.5
t-5.5 3.5h-4t-6.5 0.5t-6 0.5h-3.5q-4 0 -5.5 4t-2 9t-0.5 9v6t-0.5 6t-1 10t-1 12.5t-1 12.5t-1 10.5t-0.5 5.5v4v3.5t3 1.5q0 1 1.5 0l1.5 -1l3 -1v-13l4 -2.5t9 -6t10.5 -6t7.5 -2.5q3 0 6 1.5t5 3t4.5 4t4.5 3.5q1 1 3 1.5t4 0.5t3.5 1t1.5 2zM125 187h-1l-1.5 1l-1.5 1
v14q0 1 -3 3t-7.5 4t-8.5 3.5t-5 1.5q-3 0 -3 -1.5v-2.5q0 -4 0.5 -7t1.5 -8q1 0 3 -1l4 -2l4 -2t3 -2q3 -2 7 -5t8 -3q2 0 4.5 1t4.5 2q2 2 6 3.5t7.5 4t6.5 5.5t3 6q0 1 0.5 3t0.5 5v5v3q-4 0 -8 -2t-7.5 -4.5t-6.5 -5.5t-5 -4q-1 0 -1.5 -1l-0.5 -1v-10q0 -1 -1 -2l-2 -2
h-1zM130 161q0 -4 3 -4.5t7 -0.5t7.5 0.5t5.5 1.5t3 4t1 8v3v5t-0.5 5t-0.5 3l-3 1q-5 -3 -8.5 -5.5l-7 -5t-5.5 -6.5t-2 -9zM98 183v-9v-8.5t3 -7.5l2 -0.5t4 -0.5h3.5h2.5h1.5t2.5 0.5t2.5 1t1.5 1.5v6q0 4 -1.5 7t-4.5 5.5t-6.5 4t-7.5 1.5h-2t-1 -1zM116 68
q-1 3 -3.5 4.5l-5 3t-4.5 3.5t-2 5q4 0 7.5 -1.5t6 -3.5l5 -4t4.5 -2t5 1.5t5 3t4 3.5t4 3h1h1q2 0 3 -1t1 -3q0 -4 -1.5 -5.5t-4 -3t-5 -2.5t-3.5 -4q1 -1 3 -2t3.5 -2.5l3 -3t1.5 -3.5q0 -1 -1 -1.5t-2 -0.5q-3 0 -4.5 1t-3 2.5t-3.5 2.5t-5 1q-5 0 -8.5 -2.5t-7.5 -2.5
q-1 0 -2 0.5t-1 2.5t1.5 3.5t3.5 2.5t3.5 2.5t0.5 2.5zM65 78q5 0 11.5 0.5t12.5 0.5q3 0 4 -0.5t1 -3.5v-2.5t-1 -2.5h-22q-1 0 -1.5 -2.5l-0.5 -2.5q0 -5 4 -5.5t8.5 -1t8.5 -1.5t4 -6h-23l-0.5 -1.5t-1.5 -2.5v-0.5v-0.5q0 -5 4 -6t9 -1t8.5 -0.5t3.5 -5.5q0 -3 -3 -3
t-6 1t-6 1q-4 0 -5.5 -2.5t-2 -5t-2 -5t-4.5 -2.5t-5 0.5t-2 3.5t1 5.5t1 5.5t-1 5.5t-1 5.5v1v1q0 2 0.5 6l1 8t1 8.5t0.5 5.5q1 1 1.5 2.5t2.5 2.5zM159 75v1l0.5 0.5t0.5 1.5h3h3h3h3q6 0 12 -1t10 -3t6.5 -6.5t2.5 -12.5v0q0 -1 -0.5 -2t-0.5 -3t-0.5 -3t-0.5 -2v-20
q0 -2 -2 -4t-4 -2l-0.5 0.5l-0.5 0.5q-4 6 -9 8t-10 3t-8.5 2t-4.5 3q0 1 0.5 2t1.5 1h26q1 0 1.5 1.5t0.5 2.5t-0.5 3t-1.5 2l-28 4l-1 0.5l-1 0.5l1 1.5l1 1.5l1 0.5l1 0.5h25q1 0 1 2.5v2.5v3.5t-1 2.5l-25 4q-2 0 -3.5 1t-1.5 2zM102 47q0 3 3 3q4 0 6.5 -2t5 -4.5
t5 -4.5t6.5 -2q3 0 5 1.5t3.5 3.5t3.5 3.5t5 1.5q6 0 6 -6q0 -2 -1.5 -3.5t-3.5 -2.5l-4 -2t-4 -1v-1v-1l3 -3l4 -4t3.5 -4t1.5 -4l-0.5 -0.5l-0.5 -0.5l-1 -1.5t-2 -1.5q-3 0 -5 2t-4 4.5t-4 4.5t-6 2q-3 0 -6 -1.5l-6 -3t-6 -3.5t-6 -2q-2 0 -2 1.5v2.5q0 3 2 4.5t4.5 3
l5 3t2.5 4.5q0 1 -1 2.5t-2 1.5l-2 2t-3 2.5t-3 2.5t-2 1v2z" />
</svg>
