<?xml version="1.0" standalone="no"?>
<!DOCTYPE svg PUBLIC "-//W3C//DTD SVG 1.1//EN" "http://www.w3.org/Graphics/SVG/1.1/DTD/svg11.dtd" >
<svg xmlns="http://www.w3.org/2000/svg" xmlns:xlink="http://www.w3.org/1999/xlink" version="1.1" viewBox="-10 0 266 256">
   <path fill="currentColor"
d="M170 224q0 1 0.5 5.5t1.5 9.5t3 8.5t4 3.5q1 0 2.5 -0.5l3 -1t2.5 -2t0 -2.5q0 -7 -2 -11.5t-2 -11.5t2 -12.5t5.5 -10t8 -9l8.5 -8.5q1 -1 1 -3.5t0.5 -5l1 -5t0.5 -3.5v-2v-2t-1 -2v-19.5t-2.5 -15.5t-7 -13.5t-12.5 -14.5q-1 -2 -1 -4v-4q0 -3 4 -5t8.5 -4.5t8.5 -6.5
t4 -11q0 -3 -1 -7t-2.5 -7.5t-4 -6.5t-6.5 -3h-52q-3 0 -5 3t-3.5 7t-2 8t-0.5 6q0 8 4 12.5t9.5 7t12.5 3t13 0.5l3 1q0 1 0.5 2.5t1 3.5l1 4t1.5 2q0 1 0.5 3l0.5 2q3 4 7 8.5t5 8.5q4 9 5.5 19t1.5 20q0 9 -2 15t-5.5 11t-7.5 9t-7 8.5t-5.5 9.5t-2.5 13zM48 199v38
q0 2 1 2h2q4 0 6 -3v-7.5t0.5 -11.5t0.5 -11.5v-8.5q1 -5 2 -7.5t3.5 -4.5t5.5 -3.5t7 -5.5q0 -1 1.5 -2t3 -2.5t2.5 -3t2 -1.5l1.5 -0.5l1.5 -0.5q2 0 5.5 1.5t6.5 3.5t6 4.5t4 3.5v5q0 12 -1 23t-1 23v7q1 2 2 2h2q2 0 3.5 -1t2.5 -3t2 -3.5t1 -3.5q0 -1 -1 -3t-1 -3v-78
l-1 -5l-1 -57l-3 -4h-20v-14q0 -2 5 -3.5t10.5 -3.5t10.5 -5.5t5 -10.5q0 -8 -5 -11t-12 -3.5t-14 -0.5t-11 -3q-3 -1 -4.5 -3.5t-3 -4.5t-3.5 -3t-6 -1q0 5 2.5 9t5.5 7t5.5 4.5t2.5 2.5v1v1q-7 6 -14.5 10t-15.5 8v1v1q0 1 0.5 1.5l1.5 1.5h3h2q7 0 11.5 -3.5t9 -8.5
t9.5 -9t11 -4h2q1 0 4.5 0.5t4.5 1.5q2 1 2 3v4q0 3 -2 4.5t-5 2.5t-7 2.5t-7 4t-5.5 7.5t-3.5 13q-12 1 -18 3t-8.5 6.5t-3 12t-1.5 19.5v6t-0.5 11t-0.5 11v7l-0.5 1t-0.5 2.5t-0.5 2.5l-0.5 1q0 1 0.5 3t1.5 2v3q0 8 -0.5 16t-2.5 15zM134 194q2 3 5.5 4t6.5 1
q6 0 9.5 -1.5t6 -4t4.5 -6.5l4 -8q1 -2 3.5 -4t5.5 -4.5t5 -4.5t2 -4q0 -1 -0.5 -2t-2.5 -1t-5 1.5t-5 3.5t-4 4.5t-3 4.5q-2 3 -3.5 6.5t-3 6t-4 4t-7.5 1.5q-2 0 -4.5 -0.5t-2.5 -3.5q0 -6 3 -10t7 -8.5t7.5 -9t4.5 -9.5h20q2 0 3.5 -2t2.5 -4t1 -4.5v-3.5q0 -4 -1.5 -7.5
t-4.5 -6.5t-7 -4.5t-8 -1.5t-4 3t2.5 4.5t5.5 3t6 3.5t3 6q0 3 -2.5 5.5t-5.5 2.5t-4.5 -2l-3 -4l-3 -4t-5.5 -2q0 3 0.5 5t0 3.5t-1.5 2.5t-3 1h-6t-8 -0.5t-7 -2t-3 -4.5q0 -5 3.5 -8t7.5 -5t8.5 -4t5.5 -6v-8v-7q0 -4 -2 -8h-1v0q-2 0 -3 3t-1.5 7t-1 7.5t-1.5 5.5
q-1 4 -4.5 4.5t-7.5 2t-7 5t-3 11.5q0 6 3 8.5t7 3.5t8.5 1h8.5q2 1 2.5 1.5t0.5 2.5q0 4 -3 7t-6.5 7t-6.5 9t-3 11v6zM88 119q1 0 4 2.5t7 5.5t7 5.5t4 3.5v4v4v5v6.5t-1 5.5t-4 2q-1 0 -3.5 -0.5t-5 -2t-4.5 -3t-2 -3.5v-21q0 -2 -1 -2.5t-2 -0.5t-2.5 0.5t-2.5 0.5v28
l-17 17l-2 0.5t-3 1.5h-0.5h-1.5v-4q0 -1 0.5 -4.5t0.5 -7.5t0.5 -8l0.5 -4q0 -7 1 -10.5t3.5 -5.5t6 -4t9.5 -7q1 0 2.5 -1t2.5 -2q1 0 2 -0.5zM63 119q0 -8 0.5 -14t1.5 -14q1 -3 4 -4t6.5 -1.5t7 -0.5h6.5h11q2 1 5 2t3 4v29h-4l-1.5 -0.5t-3.5 -2t-4.5 -2.5t-3.5 -2
q0 -1 -0.5 -1.5l-0.5 -0.5l-0.5 -2t-0.5 -3t0.5 -3t0.5 -3l0.5 -2.5l0.5 -2.5q0 -3 -1.5 -3.5t-2.5 -0.5h-2h-2q0 8 -1.5 15t-7.5 13q-1 1 -2.5 2l-3 2t-2.5 1.5l-1 0.5l-2 -2v-1.5v-2.5zM161 46q1 -2 2.5 -2.5t3.5 -0.5h2q3 0 3 2q0 1 1 4l2 6l2 6t1 4l0.5 1l1 2l1 2l0.5 1
v1v2v2t-2 1q-6 0 -9.5 -3t-5 -8t-2 -10.5t-1.5 -9.5zM149 46q2 0 4 4t3 9t1.5 9.5l0.5 4.5q-1 0 -3.5 0.5t-5 0t-4 -2t-1.5 -3.5v-18q0 -3 2 -3.5t3 -0.5zM183 49q0 -2 0.5 -3t2.5 -1q8 0 10 4t2 11v3v4t-1.5 3.5t-3.5 1.5v0q-1 0 -1 -1q-4 -5 -6.5 -10.5t-2.5 -11.5z" />
</svg>
