<?xml version="1.0" standalone="no"?>
<!DOCTYPE svg PUBLIC "-//W3C//DTD SVG 1.1//EN" "http://www.w3.org/Graphics/SVG/1.1/DTD/svg11.dtd" >
<svg xmlns="http://www.w3.org/2000/svg" xmlns:xlink="http://www.w3.org/1999/xlink" version="1.1" viewBox="-10 0 266 256">
   <path fill="currentColor"
d="M152 243v1q0 3 1 5t4 2h1q1 -1 2.5 -3l1.5 -2v-66v-3q0 -3 0.5 -5t1.5 -4t3 -2q1 0 4 1t5.5 2t5 3t2.5 5v47l1 3t1 4l-0.5 1t-0.5 2.5t-0.5 3l-0.5 1.5v1v1q0 3 2 3h4h4q1 -7 1 -12.5v-12.5v-12q0 -2 -0.5 -7t-1 -10.5t-1 -10.5t-0.5 -7q-2 -7 -6.5 -9.5t-9.5 -3.5
t-8.5 -1.5t-3.5 -2.5v-14h26q2 0 3.5 -1.5t2.5 -4t1.5 -4.5t0.5 -3t0.5 -3l1 -4l1 -4t0.5 -3q1 -1 3 -2.5t3.5 -2.5l3 -2t1.5 -3v-15q0 -3 -1.5 -4t-3.5 -1.5t-3.5 -2t-0.5 -5.5q0 -3 2 -4t4 -2.5t3.5 -4.5t1.5 -9q0 -5 -1 -7.5t-2.5 -3.5t-3 -2.5t-1.5 -4.5v-2v-4v-4v-3
t-1.5 -1.5t-2.5 -0.5t-3 5.5t-4 12t-4 12t-2 7.5v0q1 3 2.5 5.5t3 4.5t2.5 4.5t1 5.5q0 1 -2 2.5t-4 3.5t-4 5t-2 7q0 2 1 4l2 4l2 4t1 5q0 11 -4 15.5t-14 4.5q-1 0 -3.5 -0.5t-3.5 -0.5q-3 -3 -3 -8.5v-9.5q0 -2 2 -4t4.5 -4t4.5 -4l3 -3q1 -3 2 -8.5t1 -11v-10.5v-8v-5
v-6.5t-0.5 -6t-0.5 -3.5q-1 0 -2 -1.5t-2.5 -3l-2.5 -2.5t-1 -2v-3v-6t-1 -5.5t-4 -2.5q-2 0 -3 2.5t-1.5 5.5t0 5.5t-0.5 3.5q0 1 -1.5 2.5l-3 3l-3 3t-1.5 2.5q-1 1 -1 3v4t-1 3.5t-3 1.5l-1 -1q-1 -5 -3 -8.5l-4 -7t-3.5 -7.5t-0.5 -10q0 -1 -1.5 -1.5l-1.5 -0.5h-1h-1
q-1 1 -2.5 1.5l-1.5 0.5v18l-1 1l-1 1q-4 3 -5 6t-1 8q0 4 1 6.5t2.5 4.5l3 4t1.5 5q0 5 -2.5 7.5l-5.5 5.5v4v4q0 4 -0.5 6t1.5 5q3 4 4 8t1.5 7.5t1 6.5t1.5 4q3 4 7.5 5l9 2t7.5 3.5t3 7.5t-2.5 7t-5.5 2.5t-6.5 1t-6.5 3.5q-1 3 -2 5.5t-1 5t-0.5 5t-2.5 5.5
q0 5 -0.5 11l-1 12t-1 12.5t-0.5 11.5q0 3 0.5 6.5t4.5 3.5q2 0 4 -2.5t2 -4.5v-40q2 -5 2 -10.5t-1 -9.5q3 -3 6 -5t6 -2q2 0 3 2t1 3v10q0 8 -0.5 16.5t-0.5 16.5v1v2t0.5 4.5t0.5 4.5v2v2.5t-0.5 3t-0.5 3v2.5v0zM102 185v58l1.5 0.5t2.5 0.5q2 0 4 -2t2 -3v-47
q0 -2 -0.5 -5.5t-1 -6.5t-0.5 -5.5v-4.5v-9v-15v-15v-8q0 -3 -0.5 -10.5t-0.5 -16t-0.5 -15.5t-0.5 -10q0 -6 -2.5 -7.5t-6 -2.5t-6.5 -2.5t-3 -6.5t3.5 -7t7.5 -4.5t7 -6t3 -10.5v-3t-1 -4t-2.5 -3.5t-2.5 -1.5h-44l-0.5 1t-0.5 2l0.5 0.5t0.5 1.5q1 1 4 1h5.5t4.5 0.5
t2 2.5q0 5 -4 7.5t-9 4t-9.5 3.5t-4.5 5q0 2 2 2.5t3 0.5q8 0 14 -4t10.5 -9t8 -9t6.5 -4t5.5 1.5t2.5 5.5q0 6 -2.5 8t-5.5 3t-5.5 2.5t-3.5 5.5l-4 15l-1 1q-5 1 -8.5 1.5t-6.5 1.5t-5.5 3t-6.5 5q0 3 -0.5 10t-1 15.5t-1 16t-0.5 10.5v4v8v7v4q-1 23 -3.5 45.5t-2.5 45.5
q0 2 0.5 4t3.5 2t4.5 -4t2.5 -9.5t1 -12.5t0.5 -13t0.5 -11t1 -6q4 -7 8.5 -11t11.5 -8h2q4 0 6.5 2.5t5 6t5 6t5.5 2.5zM60 128q1 -2 4.5 -5.5t6.5 -7t6.5 -6t5.5 -2.5q1 0 4 2t6 5t5 6t2 5v41q0 2 -1.5 2.5t-2.5 0.5q-4 0 -6.5 -3.5t-3.5 -8t-1 -10t-0.5 -10.5t-1 -8
t-2.5 -3h-1q-1 1 -2 2.5t-1 3.5v4v2v19q-1 2 -3 4.5t-5 4.5t-6 3t-5 1q0 -10 1 -21t1 -21zM132 122q0 -4 2 -6l4 -4t4 -3.5t2 -5.5v-6.5t-1 -7t-3 -6t-6 -4.5v-0.5v-1.5q0 -2 1.5 -5t4 -5t5.5 -3t5 -1v38q0 2 1.5 3.5t2.5 3t2.5 4t1.5 5.5v6q0 4 -0.5 6.5t-2 4.5t-4.5 2
q-8 0 -13.5 -2.5t-5.5 -11.5zM59 106l0.5 -0.5t0.5 -1.5t0.5 -5t1.5 -9t1.5 -9t0.5 -5q2 -3 4.5 -5t5.5 -2q2 0 4.5 0.5t2.5 3.5t-0.5 9.5t-2.5 13.5t-5.5 12t-9.5 5q-2 0 -3 -2.5t-1 -4.5zM88 92q0 -2 -0.5 -6t0 -8t1.5 -7.5t4 -3.5q5 0 7 3.5t2.5 7.5t0 9t-0.5 8v3v3v4v3
q-1 0 -2 1.5l-1 1.5h-1q-3 0 -5 -2t-3.5 -5t-1.5 -6v-6zM124 99q0 -3 1.5 -7.5t5.5 -4.5q3 0 5 3.5t2 6.5q0 8 -7 8q-3 0 -5 -1t-2 -5zM190 96q0 -3 2.5 -5t4.5 -2q4 0 4.5 2t0.5 5q0 2 -0.5 5.5t-4.5 3.5l-1.5 -1.5l-2.5 -2.5t-2 -2.5t-1 -2.5zM155 86q0 -7 2.5 -10.5
t8.5 -3.5q2 0 5 1.5t3 4.5v7t-1 8t-3 6t-6 2q-7 0 -8 -4t-1 -11zM159 64v-4v-5v-4v-4q0 -1 1 -2l1 -1h9q1 0 2 2t1 4.5t0.5 5l0.5 2.5q0 5 -2 6.5t-5 1.5h-4t-4 -2zM125 53q0 -3 2.5 -5.5t5.5 -2.5t4.5 3t1.5 6q0 4 -1 7t-5 3q-5 0 -6.5 -3.5t-1.5 -7.5zM197 57v-5t3 -2
q2 0 3.5 2t1.5 4t-1 4.5t-3 3.5v0h-1q-2 0 -2.5 -2.5t-0.5 -4.5z" />
</svg>
