<?xml version="1.0" standalone="no"?>
<!DOCTYPE svg PUBLIC "-//W3C//DTD SVG 1.1//EN" "http://www.w3.org/Graphics/SVG/1.1/DTD/svg11.dtd" >
<svg xmlns="http://www.w3.org/2000/svg" xmlns:xlink="http://www.w3.org/1999/xlink" version="1.1" viewBox="-10 0 266 256">
   <path fill="currentColor"
d="M92 182v10.5t0.5 14t1.5 15t3.5 14t6.5 10t10 4.5h2h5h6h6q14 0 22.5 -0.5t14 -4t7 -11.5t1.5 -24q0 -11 -0.5 -21t-2.5 -20q-1 -2 -2 -2h-3q-4 0 -4.5 2t0 4.5t1 6t-0.5 6.5t-5 4.5t-13 1.5q-4 0 -5.5 -2t-1.5 -5.5v-7.5v-7v-2t-0.5 -4t-1 -3.5t-0.5 -2.5t1 -3.5t3 -2.5
q2 -1 8 -1t11.5 -1t10 -4t4.5 -8v-37q0 -2 -2 -3t-3 -1t-2 0.5t-1 1.5q-1 6 -1.5 9.5t-0.5 8.5q0 3 1 6t1 6q0 4 -2 7t-5.5 4.5t-7 2t-7.5 0.5q-2 0 -5 -2t-3 -5v-42l2 -2q10 -1 15.5 -3t8 -7t3 -12t1.5 -17l1 -2h32l1 -1t1 -2q1 -1 1.5 -2l0.5 -1q-1 -4 -5 -5.5t-7 -1.5h-3
l-2.5 0.5t-4.5 1t-4.5 1l-2.5 0.5q-31 3 -62 3t-61 -1q-2 1 -2 2.5v2.5v3t2 2h7q6 0 12.5 -0.5t13.5 -0.5q6 0 8.5 3t3 8t0.5 10.5t2 10t7 7t17 1.5l3 4l0.5 2t0.5 5.5t0.5 7t0.5 5.5v9v6t-0.5 6t-2.5 4.5t-6 1.5h-2h-3t-4 -0.5l-4 -1t-3 -0.5q-3 -1 -4 -6t-2 -11t-1 -11.5
v-8.5q-1 0 -1.5 -0.5t-0.5 -1.5q-1 0 -2 -0.5l-1 -0.5q-2 0 -3.5 3t-1.5 4v9.5t1 11t3 10.5t6 8l2.5 2t3.5 3h22q1 0 1.5 0.5l0.5 0.5q1 1 1.5 5t0.5 5v13v13q0 2 -2 3.5t-5.5 1.5h-6.5h-4h-4h-4q-2 -2 -2 -6t-0.5 -8t-1.5 -7t-5 -3h-1l-0.5 1l-0.5 1q-1 1 -1 5v5zM105 206
l2 -2l6 -0.5t14.5 -1.5t17.5 -2t15 -1h2q5 0 5 4v2v2q0 2 -0.5 5t-0.5 7t-0.5 7.5t-0.5 4.5q-2 3 -5.5 6t-7.5 3h-35q-1 0 -2 -1l-1 -1l-1.5 -1l-3 -2l-3 -2t-1.5 -2v-25zM105 59v-3v-3l9 -1h41q1 0 1.5 1.5t0.5 3.5q0 9 -1.5 14.5t-5 8t-8.5 3.5t-13 1q-7 0 -11.5 -1t-7 -4
t-4 -8t-1.5 -12zM86 16q0 2 0.5 3.5t2.5 1.5h81q7 0 7 -7q0 -1 -1 -2l-1 -1h-84q-2 0 -3.5 1.5t-1.5 3.5z" />
</svg>
