<?xml version="1.0" standalone="no"?>
<!DOCTYPE svg PUBLIC "-//W3C//DTD SVG 1.1//EN" "http://www.w3.org/Graphics/SVG/1.1/DTD/svg11.dtd" >
<svg xmlns="http://www.w3.org/2000/svg" xmlns:xlink="http://www.w3.org/1999/xlink" version="1.1" viewBox="-10 0 266 256">
   <path fill="currentColor"
d="M148 194q0 8 5 18t13 18.5t17 14.5t16 6q1 0 3 -0.5t3.5 -1.5t2.5 -2.5t0 -2.5q0 -2 -7 -6t-16 -9.5t-17 -13t-11 -15.5v-2v-1q0 -7 3 -10.5t7.5 -5.5t10.5 -3t11.5 -2.5t9.5 -3.5t6 -8q1 -2 2 -5.5t2 -6.5t2 -5.5t1 -3.5v-2v-3.5v-4.5v-4v-3v-5v-4v-3q-1 -2 -2.5 -4.5
t-3.5 -4.5t-4 -3.5t-4 -1.5h-46l-1 -1.5t-1 -2.5v-2v-3t1 -4t1.5 -3.5t2.5 -1.5l36 -4l1.5 -0.5t3 -1.5t3 -2.5t2.5 -1.5q1 -1 1.5 -2.5l0.5 -1.5v-21q0 -1 -1.5 -2t-1.5 -2q-3 -2 -7 -3t-8 -1.5t-8 -0.5h-7q-7 -1 -9.5 -5t-3.5 -9t-1.5 -8.5t-3.5 -3.5t-4.5 2.5t-1.5 5.5
q0 10 3.5 15t9 8t11.5 3.5t11 1.5t8.5 3t3.5 7q0 3 -0.5 6t-3.5 4q-16 1 -25 2.5t-14.5 6t-7 13.5t-1.5 26q0 7 3 12.5t7.5 9t10.5 5t13 1.5h4q4 0 5 -1q3 -1 4 -2t1 -4v-3t-3 -1h-28q-2 0 -4 -2t-3 -5l-2 -6t-1 -5q0 -3 2.5 -4t4.5 -1h3h4.5h4.5h3q4 0 9 -0.5t9.5 0.5
t8 3.5t4.5 7.5v2v4v3v3v8t-0.5 8t-2.5 8t-5 6q-7 1 -15 3t-14 5t-10.5 8.5t-5.5 14.5zM57 180v7q0 1 1 3t1 3q1 12 1 19.5t2 11.5t8 6t19 2q7 0 12.5 -0.5t12.5 -3.5q2 -3 4 -7.5t3 -8.5v-6.5t0.5 -10t1 -10t0.5 -6.5v-4q0 -3 -1 -4t-4 -1h-2t-2 2v14h-19q-2 0 -2 -2v-3
v-2.5v-1.5q0 -2 0.5 -5.5t0.5 -7.5t0.5 -8t0.5 -5q5 -4 8.5 -5.5t6.5 -2t5.5 -1.5t4 -4t2.5 -8t1 -14v-2.5t-0.5 -3l-1 -3t-2.5 -1.5q-1 0 -2 0.5t-1 1.5q-1 5 -1.5 10t-2 9.5t-4.5 7.5t-9 3h-2t-2 -1v-43q0 -2 1.5 -3.5t4 -2.5t5 -1.5t3.5 -2.5q4 -7 4.5 -12t1 -8.5t4 -6
t12.5 -3.5v-3q0 -3 -2 -4.5t-5 -1.5l-2.5 0.5l-5 1t-5 1.5l-2.5 1h-5h-7h-8h-4t-3 0.5t-3 0.5h-29q-4 0 -5.5 2t-1.5 4q0 7 6 7q4 0 8 -1t8 -1t5.5 3t2 7.5t0.5 8.5q0 5 1 7t2.5 3t3.5 1.5t3.5 1.5t2.5 3q0 9 1 17t1 17v1q0 1 -0.5 3.5t-1.5 3.5h-2h-3q-7 0 -10 -2.5
t-4 -7.5t-0.5 -10.5t1.5 -10.5l-1.5 -1.5l-0.5 -0.5h-1q-4 0 -6 3v3.5v3.5v5.5v5t0.5 5.5t1.5 7q2 4 7 6t9.5 3t7.5 2.5t3 5.5v1v5t-0.5 8.5t-0.5 8.5t-1 6t-2.5 2.5t-3.5 0.5q-6 0 -8.5 -1t-3.5 -2.5t-0.5 -4t0 -4t-1.5 -3t-4 -1.5q-2 0 -3 0.5t-2 1.5v7zM67 202
q0 -3 5 -4.5t11 -2.5t11 -1h9h8q1 1 1 2v3q0 7 -1 11t-3.5 6.5t-6.5 3.5t-10 1q-5 0 -9.5 -1t-7.5 -3t-5 -5.5t-2 -9.5zM79 69q0 -4 1.5 -6t3.5 -3t5 -1h6h3.5h3.5q2 1 2.5 3.5t0.5 3.5q0 3 -1 6.5t-3 5.5t-5 4t-6 2q-6 0 -8.5 -5t-2.5 -10zM67 23v1t0.5 2l1 2l0.5 1h45
q1 0 2.5 -1t2 -3t1 -3.5t0.5 -2.5h-44l-8 1q-1 0 -1 1v2z" />
</svg>
