<?xml version="1.0" standalone="no"?>
<!DOCTYPE svg PUBLIC "-//W3C//DTD SVG 1.1//EN" "http://www.w3.org/Graphics/SVG/1.1/DTD/svg11.dtd" >
<svg xmlns="http://www.w3.org/2000/svg" xmlns:xlink="http://www.w3.org/1999/xlink" version="1.1" viewBox="-10 0 266 256">
   <path fill="currentColor"
d="M151 247q0 1 1 1.5t2 0.5t2.5 -0.5t1.5 -1.5v-55v-7l1 -81l3 -4h15l1 1.5t1.5 3l0.5 1.5v6v8v8v6q0 3 1 9.5t2.5 13.5t3.5 15t5 14t6.5 10t7.5 4q2 0 3.5 -3t1.5 -5q0 -3 -1.5 -5.5t-4 -5t-4.5 -5t-3 -4.5q-3 -7 -4.5 -14t-3.5 -13v-57l0.5 -3t0.5 -5l1 -2t1 -3
q2 -9 3.5 -18.5t1.5 -18.5v-10q-2 -3 -5 -6t-7 -3h-48q-1 0 -2 0.5l-1 0.5l-1 1l0.5 0.5l0.5 0.5l1 3h13l2 3v2v4v6v4v22q0 10 -2 22q-1 1 -2.5 2t-2.5 1.5t-3.5 1t-5 0.5t-5.5 0.5t-4 0.5l-0.5 1.5l-0.5 1.5v0.5v0.5v0.5v0.5q1 0 4 0.5t4 0.5q0 1 1 1v0l1 -1h2t4 -0.5
t4 -0.5h2h1h1q1 0 1.5 0.5l0.5 0.5v4v4q0 23 -1 45.5t-1 46.5v10v12q0 7 0.5 13.5t1.5 11.5zM54 186q0 11 0.5 19t3 14t8.5 9t17 3q5 0 10 -0.5t9 -2.5t7.5 -4.5t7.5 -7.5v-7.5t0.5 -11t0.5 -11v-7.5v-1q0 -5 -4 -5q-2 0 -3 2t-1.5 4.5t-1.5 4.5t-4 2h-4h-4.5h-4.5h-3v-25
q0 -2 3 -4.5t7 -4.5l8 -4t6 -5q0 -2 0.5 -5.5t1 -7.5t1 -7.5t0.5 -5.5v-4v-4t-3 -3q-1 0 -2.5 0.5t-2.5 1.5v10q0 7 -1 12.5t-4 10t-8 4.5q-6 0 -6 -9v-1v-2t0.5 -4t0.5 -4v-2v-29q1 -1 3 -1t4.5 -1t4.5 -2.5t3 -3.5l3 -29q1 0 4.5 -0.5t7.5 -1t6.5 -2t2.5 -4.5t-2.5 -3
h-3.5h-36t-36 2q-2 0 -4 1t-2 4v3t2 2h14q2 0 2 2.5v5.5q0 4 0.5 8.5t2 8.5t5 7t9.5 4v54q-7 0 -10.5 -3t-5 -8t-2 -11.5t-1.5 -13.5q-1 -3 -2 -3.5t-3 -0.5h-2t-1 2v9v7.5t0.5 6.5t1 6.5t1.5 8.5q2 2 6 2.5t8 2t7 3t3 3.5v7v10t-1 10q-2 3 -4 3h-4q-3 0 -4.5 -2t-2.5 -3.5
l-2 -3t-3 -1.5q-4 0 -4 2v5zM65 206v-3.5v-2.5q0 -2 1.5 -2.5t2.5 -1l2 -1t2 -0.5h38q0 16 -7.5 21.5t-20.5 5.5q-9 0 -13.5 -3.5t-4.5 -12.5zM159 90v-4v-6.5v-5.5v-4v-11v-10t0.5 -10t0.5 -11q1 0 3.5 -0.5t5.5 -1t5.5 -0.5h3.5h1q4 0 6 1.5t2.5 3.5t0.5 5.5v6.5
t-0.5 10.5t-1.5 15.5t-2.5 14.5t-3.5 7.5h-6h-7t-8 -1zM73 84v-23l3 -4h23v5.5t-1 9.5t-2 8.5t-4 3.5h-19zM61 17q0 1 0.5 2t3.5 1h11h10h6.5t9 -0.5t9 -0.5h6.5v-1.5v-0.5q0 -4 -3.5 -5t-6.5 -1h-6q-2 0 -7.5 0.5t-11.5 0.5t-11.5 0.5t-7.5 0.5q-1 0 -1.5 1t-0.5 3z" />
</svg>
