<?xml version="1.0" standalone="no"?>
<!DOCTYPE svg PUBLIC "-//W3C//DTD SVG 1.1//EN" "http://www.w3.org/Graphics/SVG/1.1/DTD/svg11.dtd" >
<svg xmlns="http://www.w3.org/2000/svg" xmlns:xlink="http://www.w3.org/1999/xlink" version="1.1" viewBox="-10 0 266 256">
   <path fill="currentColor"
d="M159 166v4v4.5v4.5v2q0 1 0.5 3t1 5l1 6t0.5 5l3 12t4.5 17t6 15.5t7.5 6.5q2 0 3.5 -1t1.5 -4q0 -2 -1.5 -5.5t-3.5 -7.5t-4 -7t-3 -5q-4 -11 -7 -24.5t-3 -25.5q0 -13 3 -25t7 -24t7 -24.5t3 -26.5v-7.5t-0.5 -11.5t-2 -13t-3 -12.5t-4 -9.5t-6.5 -4q-2 0 -3 1t-1 3
v1.5v0.5q0 1 1 3t2 4.5l2 5t2 3.5q3 8 4 17.5t1 18.5q0 14 -2.5 29t-6.5 29q-1 5 -3 9t-3.5 8.5t-2.5 9t-1 10.5zM137 172q0 19 4 38t10 37q0 1 1 1.5l2 1t2 0.5h2q0 -5 -1 -9.5t-2.5 -9t-3 -8.5t-2.5 -9v-3v-4t-0.5 -2.5t-1 -3.5t-1 -3.5t-1.5 -2.5v-4v-6v-6v-4v-10v-8
t0.5 -8.5t1.5 -9.5q2 -9 4 -17.5t4.5 -17.5t4 -18t1.5 -18v-8t-1 -11l-2 -12t-3 -11t-5 -8t-7 -3q0 3 1 5.5l2 5t2.5 5t2.5 5.5q0 2 0.5 5.5t1 8t1 8.5t0.5 6q0 14 -2.5 27.5t-6 26.5t-6 26.5t-2.5 27.5zM186 171q0 16 4.5 32.5t9.5 31.5q2 8 11 8v-3t-0.5 -4t-0.5 -4v-2
q0 -1 -1.5 -3l-1.5 -2q-1 -1 -1.5 -2t-0.5 -2q-4 -13 -7 -25.5t-3 -25.5q0 -10 2 -20t5 -20l6 -20t4 -20v-2v-5.5v-6.5v-5v-11q0 -4 -0.5 -8t-1 -8.5t-2.5 -10.5q0 -2 -1 -5.5t-3 -7t-4 -6t-5 -2.5t-3.5 1t-0.5 3v2v1q0 1 1.5 3t2.5 4l2 4t1 3q1 3 1.5 6.5l1 7t1 6.5t1.5 6
v31q0 1 -1 3t-1 3t-0.5 5.5t-1.5 9.5t-1.5 9t-1.5 5q-1 6 -2.5 11.5t-3.5 11t-3 11.5t-1 12zM64 221q3 6 8 6.5t10 0.5h8.5t7 -0.5t7.5 -0.5t8 -1q4 -3 7.5 -7t3.5 -10v-48q-1 0 -3 0.5t-2.5 0.5t-1 0.5t-0.5 1.5v15l-4 4h-15q-1 0 -1 -4t-0.5 -8.5t-1.5 -9t-4 -6.5
q-2 1 -3 3.5t-0.5 6t0.5 7t-0.5 6.5t-2.5 5t-7 2h-2q-2 0 -3.5 -0.5t-2.5 -1t-1 -2.5v-14q0 -2 -1.5 -2h-2.5h-2.5t-1.5 2v13v10.5v9t1 9.5t2 12zM78 218q-4 -3 -5.5 -8t-1.5 -10v-5q2 0 7.5 -0.5t12 -1t12 -1t7.5 -0.5h1q2 0 2.5 1.5l1 3t0.5 4.5v2q0 5 -2 8t-5.5 5
t-7.5 2.5t-8 0.5h-1h-2.5t-4 -0.5t-4 -0.5h-2.5zM56 102q0 11 1 20.5t5 16t11.5 10t19.5 3.5q3 0 7.5 -2t9 -5t8 -6t4.5 -7q1 -8 1.5 -14.5t0.5 -13.5q0 -4 -0.5 -5.5t-4.5 -1.5q-3 0 -4.5 4.5t-2.5 10.5t-1 12.5t-1 9.5t-3 3.5t-4 0.5h-3q-2 0 -2 -2v-44l1.5 -1.5l1.5 -1.5
l2 -2t2.5 -2l3 -2l1.5 -1q1 -2 3 -3.5t2 -2.5v-20l18 -4q1 0 2 -1.5t0 -1.5q0 -3 -3.5 -4.5t-6.5 -1.5q-11 0 -22 3.5t-22 3.5q-8 1 -16 1t-16 1q-2 1 -3.5 2.5t-1.5 3.5q0 3 2 4t3 1q6 0 11 -1t10 -1v21q0 3 3 4t6 1.5t6 1.5t3 3v47q-9 0 -14 -2.5t-6.5 -7t-1 -12
t1.5 -16.5q-1 -2 -2 -3.5t-4 -1.5q-2 0 -4 1.5t-2 4.5zM78 62q0 -2 2.5 -3t5.5 -2t6 -1h4h3t3.5 0.5t2.5 1t1 2.5q0 3 -0.5 7t-2.5 7.5t-5 5.5t-7 2t-6.5 -1.5t-4 -4.5t-2 -6.5t-0.5 -7.5zM62 26q0 4 3.5 4.5t6.5 0.5q11 0 23.5 -1t24.5 -2q2 -1 2 -3.5v-2.5v-2.5v-2.5
l-3 -1.5t-3 -0.5q-12 0 -26 2t-26 4q-1 1 -1.5 2t-0.5 3z" />
</svg>
