<?xml version="1.0" standalone="no"?>
<!DOCTYPE svg PUBLIC "-//W3C//DTD SVG 1.1//EN" "http://www.w3.org/Graphics/SVG/1.1/DTD/svg11.dtd" >
<svg xmlns="http://www.w3.org/2000/svg" xmlns:xlink="http://www.w3.org/1999/xlink" version="1.1" viewBox="-10 0 266 256">
   <path fill="currentColor"
d="M52 186q0 -1 -1.5 0t-1.5 2v46q0 5 4 8t10 4t11 1h8q5 0 12 -1t13 -3.5t10 -7.5t4 -13v-34q0 -2 -1 -2.5t-2 -0.5q-2 0 -3 1t-1.5 2.5l-1 3t-1.5 1.5h-8q-7 0 -10.5 -1.5t-3.5 -9.5t1.5 -11.5t3.5 -5t5 -2l6 -1t6 -2t5 -7.5q0 -1 0.5 -4t0.5 -6.5t0.5 -6.5t0.5 -4v-4
q0 -3 -1 -7t-5 -4h-0.5h-0.5q-2 3 -2.5 7.5l-1 9t-0.5 8.5v6q-2 4 -4 4.5t-6 0.5l-1.5 0.5t-3 0t-1.5 -2.5v-42q0 -5 3 -8t6.5 -5t6.5 -4t3 -6v-27q0 -2 2.5 -3t6 -1.5t6 -1t2.5 -4.5q0 -2 -1 -3t-3 -1.5t-3.5 -0.5h-2.5q-2 0 -8.5 0.5t-16 1t-19.5 1t-18.5 2t-14.5 3
t-6 3.5q0 4 3 5.5t7 1.5t8 -0.5t6 2.5q0 1 1 5.5t1 5.5v2v5v4v2q0 5 3.5 6.5t7.5 2.5t7.5 2t3.5 5v49q0 1 -1 1.5l-1 0.5h-3h-3q-6 0 -9 -3t-4.5 -8t-2 -10t-0.5 -9h-6v1t-0.5 2.5t-0.5 3t-1 2.5v1q0 9 2.5 14.5t5.5 9t7 4.5t7.5 2t6 1.5t3.5 2.5v8v4t-0.5 6t-1 5.5
t-2.5 2.5h-18l-1 -0.5t-1 -1.5q-1 -1 -2 -4t-4 -3zM136 148v9v15v15v10q0 10 1.5 18t5.5 13t10.5 7t17.5 2q7 0 15.5 0.5t15.5 -1t11.5 -6.5t5.5 -15v-54q0 -21 0.5 -43.5t-2.5 -44.5q0 -2 -1.5 -2h-2.5q-4 0 -5 3t-1 6q0 20 1.5 39.5t1.5 38.5v7v11v10.5v6.5t-1.5 2.5
l-1.5 1.5h-1t-4.5 -3t-7 -7.5t-6.5 -8.5t-5 -6q0 -13 -0.5 -24l-1 -22t-0.5 -23v-24v-46q1 -1 1 -2.5t0.5 -3.5t0.5 -3.5v-2.5l-0.5 -2t-1.5 -4t-2 -3.5t-2 -1.5h-0.5h-0.5q-1 1 -3.5 3l-2.5 2v154l-0.5 1.5l-0.5 1.5q-2 4 -5 7.5t-5.5 7.5t-5 7t-4.5 5h-2h-2t-2 -2v-28
q0 -25 1 -48t1 -47q-3 0 -5 3t-3.5 8t-2 11t-0.5 12v11v8v5q0 5 0.5 8t1.5 8zM58 209l2 -2l3 -1t6.5 -1.5t7.5 -1t6 -0.5h2h4h4h3h3h3h4h3q2 0 3 1.5t1.5 3.5t0.5 4v4q0 3 -1 6.5t-3 6.5t-5.5 4.5t-6.5 1.5h-29q-1 0 -3.5 -1t-5 -3t-2.5 -3v-19zM147 215v0q1 -2 5 -7.5
t8 -10.5t8.5 -9t6.5 -4q3 0 8.5 3.5t10.5 9t9 10.5t4 8t-1.5 4.5t-3.5 2.5t-4 1.5t-4 0.5h-3h-4.5h-6.5h-4h-4h-5h-6h-3q-2 0 -3.5 -1t-3.5 -2t-3 -2.5t-1 -3.5zM67 70v-3.5v-2.5l4 -5l1.5 -0.5t4.5 -1t5.5 -1t4.5 -0.5h1h1q1 0 4.5 0.5t4 1t1.5 1l1 0.5v22q0 3 -2.5 4.5
t-5 2t-5.5 1t-4 0.5q-10 0 -13 -4.5t-3 -14.5zM56 17q0 1 0.5 2.5t1.5 1.5h53l0.5 -0.5l0.5 -0.5q1 -1 1.5 -2.5t0.5 -2.5l-1.5 -1.5l-1.5 -1.5h-51q-3 0 -3.5 2t-0.5 3z" />
</svg>
