<?xml version="1.0" standalone="no"?>
<!DOCTYPE svg PUBLIC "-//W3C//DTD SVG 1.1//EN" "http://www.w3.org/Graphics/SVG/1.1/DTD/svg11.dtd" >
<svg xmlns="http://www.w3.org/2000/svg" xmlns:xlink="http://www.w3.org/1999/xlink" version="1.1" viewBox="-10 0 266 256">
   <path fill="currentColor"
d="M180 196q0 2 2 7t4.5 11t6.5 12.5t7.5 11.5t7 8.5t6.5 3.5q2 0 4.5 -2.5t2.5 -5.5l-0.5 -1.5t-1.5 -1.5l-26 -29l-1 -2t-1.5 -4.5l-1 -5t-0.5 -3.5v-1v-1q0 -8 3.5 -15.5t8 -14.5t8 -14.5t3.5 -15.5q0 -6 -2 -9.5t-5.5 -5.5t-7.5 -3t-7.5 -2.5t-5.5 -3.5t-2 -6t2.5 -6
t6 -4.5t8 -5.5t8.5 -7.5t6.5 -11t2.5 -16.5q0 -8 -3 -14t-8 -9.5t-11.5 -5.5t-13 -2.5t-13.5 -0.5h-13h-3h-4.5h-4.5h-3q-3 0 -3.5 1t-0.5 3t1.5 3.5t4 2t4.5 0.5h4h8l2 -0.5l4 -1t4 -0.5h2q5 0 11.5 1.5t12 4.5t10 8t4.5 12q0 9 -3 15.5t-10 11.5h-1h-1q-3 0 -4 -2.5
t-2 -5.5t-1.5 -6t-2.5 -5q-3 -4 -7.5 -5t-9.5 -1.5t-10 0t-9 0.5h-11l-1 2v1v1l0.5 1l0.5 1q4 2 9 3.5t10 2t9.5 0t7.5 -0.5q4 2 6.5 5.5t2.5 7.5t-2 6.5t-5 4.5t-6.5 3t-6.5 2q-1 0 -4 0.5t-7 0.5t-7.5 0.5t-4.5 0.5q-2 1 -3 3.5t-1 4.5q10 0 19 -1t19 -1v9
q-6 13 -11.5 27.5t-11 30t-9.5 31t-7 29.5v1v1q0 1 0.5 3t1.5 3v0h1t2 -1l2.5 -2.5t2 -3.5t1.5 -3q0 -4 2.5 -13.5t5.5 -21t7 -24.5t8 -23.5t8 -17.5t8 -7q2 0 6 1t7 2.5t5.5 4t2.5 6.5v2l-19 43q0 1 -0.5 3t-1.5 4.5t-1.5 4.5t-0.5 3zM46 229q3 4 7 6.5t8.5 3.5t9 1h8.5h10
t8 -1t7 -4t7 -8l0.5 -1.5t0.5 -2.5v-45q0 -3 -2 -4.5t-4 -1.5t-2.5 2.5l-1 5l-1 5t-3.5 2.5h-12q-1 0 -1.5 -0.5t-0.5 -1.5l-1 -3.5t-1 -5.5v-1v-1q0 -2 0.5 -6t0.5 -7t0.5 -5.5l0.5 -2.5l2 -2q4 -1 8.5 -2t8.5 -3t6.5 -5t4.5 -9v-13q0 -1 0.5 -4.5t0 -7t-1.5 -6.5t-3 -3
h-3.5t-2.5 2v32q0 2 -1.5 3.5t-3.5 2.5t-4 1.5t-3 0.5q-4 0 -5.5 -1t-2.5 -5v-4.5t0.5 -7t1 -6.5t0.5 -5v-6v-8t1 -7.5t2 -4.5q3 -2 6 -2.5t5.5 -1.5t4 -3t2.5 -7v-2v-3v-4v-2q1 -4 3.5 -5.5t5 -2.5t5 -2.5t2.5 -4.5q0 -1 -1 -2t-2.5 -1.5t-3 -0.5h-1.5q-19 0 -36.5 1
t-35.5 1q-2 0 -4 1.5t-2 3.5v0q0 1 1 1.5t1 1.5q5 3 11 3h10q0 1 0.5 4t1 6.5t0.5 6.5v4q1 4 3.5 5t5.5 2t5 2t2 5v1v9.5t-0.5 13.5t-0.5 13.5v9.5q-2 3 -3 3.5t-3 0.5q-7 0 -10.5 -4t-4.5 -9.5t-1 -13v-13.5q0 -2 -2 -2h-2q-3 0 -4 1t-1 4v9v10t0.5 9.5t1.5 8.5t5.5 6
t9 2.5t8.5 2t4 6.5v26l-4 4h-14q-2 0 -2.5 -2t-0.5 -4.5t-1.5 -4.5t-3.5 -2h-1l-1.5 0.5t-1.5 1.5v13v11v8.5t0.5 9.5t0.5 11zM55 209v-9q1 -1 2.5 -2t2.5 -1h38l5 3v22q0 3 -3 4.5t-7 2t-8 0.5h-6q-6 0 -10.5 -0.5t-7.5 -2.5t-4.5 -6t-1.5 -11zM71 62q0 -5 2 -7t5 -3t7 -1
h8t5.5 2.5t1.5 6.5q0 8 -4.5 12.5t-12.5 4.5q-6 0 -9 -4.5t-3 -10.5zM57 19q0 2 1.5 2.5t4 0.5h4h2.5q11 0 23 -0.5t24 -1.5v-1v-2t-0.5 -3t-3.5 -1q-1 -1 -4 -1h-6h-6h-4h-6h-6h-6t-3 1h-3t-4.5 0.5t-4.5 2t-2 3.5z" />
</svg>
