<?xml version="1.0" standalone="no"?>
<!DOCTYPE svg PUBLIC "-//W3C//DTD SVG 1.1//EN" "http://www.w3.org/Graphics/SVG/1.1/DTD/svg11.dtd" >
<svg xmlns="http://www.w3.org/2000/svg" xmlns:xlink="http://www.w3.org/1999/xlink" version="1.1" viewBox="-10 0 266 256">
   <path fill="currentColor"
d="M178 140q1 13 3.5 24t4.5 23q0 3 0.5 9t1 13t1.5 14.5t3 13.5t5 10t7 4q3 0 5.5 -1.5t2.5 -5.5v0q0 -1 -0.5 -2.5l-1 -3t-1 -2.5t-0.5 -2q-1 0 -1.5 -2.5l-0.5 -2.5q0 -2 -1.5 -7.5t-3 -12t-3 -12t-1.5 -6.5t-1 -3t-1 -3q-3 -10 -3 -20.5t-2 -20.5q-2 -12 -4.5 -24.5
t-2.5 -24.5v-1.5v-0.5q0 -1 0.5 -2.5t1.5 -1.5h23q2 0 3.5 -1.5t1.5 -3.5v-2t-2 -2q-3 -1 -6.5 -2t-7.5 -1h-7.5h-4.5q-1 -2 -1.5 -7.5l-1 -11t-1 -10.5t-0.5 -7v-5v-3.5t2 -2.5h3h4h4h3q5 -1 6 -1t1 -4q0 -3 -1 -4t-3 -1.5t-5 -0.5h-5h-10h-9.5t-10 0.5t-11.5 1.5
q-9 3 -13.5 9.5t-4.5 17.5v74q0 3 2.5 5.5t6 4.5t7 3t6.5 2h21zM58 223q6 8 13.5 10.5t17.5 2.5h6h5.5t5.5 -0.5t7 -1.5q3 -13 5 -27t2 -27q0 -3 -3 -5t-5 -2q-4 0 -5 2t-1 5t-1 5t-4 2h-3q-3 0 -3 -2q-1 -6 -1.5 -11t-0.5 -12q0 -5 2 -7t5 -3t6.5 -2t6.5 -4t5 -9t2 -18v-6
t-1.5 -5.5t-3.5 -4.5t-6 -2v28q0 4 -3 7.5t-6 3.5q-2 0 -3.5 -1.5t-2 -4t-1 -4.5t-0.5 -3v-17v-17q1 -1 4.5 -3l7 -4t6.5 -4t3 -3v-22q0 -1 1 -1.5l1 -0.5q1 0 2.5 -0.5t3 -1.5t2.5 -2t1 -2v-1q0 -1 -1.5 -2t-1.5 -2h-20q-14 0 -28 1.5t-29 0.5q-3 1 -3.5 2.5t-0.5 3.5
q0 1 0.5 3t2.5 2h15l6 25q0 2 3 3.5t6.5 2t6 1t2.5 2.5v43q0 8 -7 8h-1h-1q-1 -1 -2.5 -2l-3 -2t-2 -2t-0.5 -2v-25l-1 -1.5t-2 -1.5q-1 -1 -2 -2.5t-2 -1.5v0v0h-1q-1 0 -2 1.5t-2 2.5v2v4v4v2v12.5t4 11.5l2 1.5t4.5 3t4.5 3t3 1.5h1h3h3h2l1 0.5t1 1.5v32q0 2 -3 3t-4 1
q-5 0 -6.5 -3t-2.5 -6.5t-2 -6t-4 -2.5t-5 2t-2 5v2q0 2 0.5 8.5l1 13l1 13t1.5 8.5zM67 205q0 -4 3 -6t8 -3t10 -0.5t8 0.5h4h2l4 4v16q0 2 -2.5 3.5t-5 2.5t-5.5 1.5t-4 0.5q-9 0 -15.5 -3.5t-6.5 -15.5zM132 187q2 0 6.5 0.5t9.5 1t10 0.5h6h1h1q1 0 2.5 -0.5t3.5 -1
t3.5 -1.5t1.5 -3q0 -3 -3.5 -4t-5.5 -1h-4q-1 0 -5.5 0.5t-9.5 0.5t-9 0.5t-6 0.5t-2.5 1t-0.5 2v3t1 1zM150 124q-3 -2 -4.5 -5t-2 -7t-0.5 -7.5v-6.5v-5t3 -4q7 -1 11.5 -1h9.5h5t3 3v33q0 2 -3 3t-4 1t-1.5 -0.5l-0.5 -0.5q-1 0 -3 -0.5t-5 -1t-5 -1t-3 -0.5zM72 70v-6
t2 -6l2.5 -0.5t4.5 -1l4 -1t3 -0.5h0.5h0.5h0.5h0.5q1 0 3 0.5t4 0.5t3.5 0.5l1.5 0.5q1 0 1.5 1t0.5 2v2.5v1.5q0 5 -1.5 8t-4 4.5t-6 2t-8.5 0.5h-8q-4 -1 -4 -4v-5zM145 77q-2 -1 -2 -2v-2v-4q0 -1 0.5 -6l1 -10t1 -9.5t0.5 -6.5q3 -5 9 -6.5t11 -1.5q1 0 3 0.5t3 0.5
l0.5 0.5l0.5 0.5v46h-1t-3 0.5t-3.5 0.5t-2.5 1h-2h-2q-1 -1 -3 -1t-4 -0.5t-4.5 -0.5h-2.5zM58 20v2t1 2h3h4h3h3h11.5h15t13.5 -1.5t6 -3.5q0 -3 -1.5 -4t-3.5 -1.5t-4 -0.5h-4q-11 0 -22.5 1.5t-23.5 0.5q-1 0 -1 1.5v3.5z" />
</svg>
