<?xml version="1.0" standalone="no"?>
<!DOCTYPE svg PUBLIC "-//W3C//DTD SVG 1.1//EN" "http://www.w3.org/Graphics/SVG/1.1/DTD/svg11.dtd" >
<svg xmlns="http://www.w3.org/2000/svg" xmlns:xlink="http://www.w3.org/1999/xlink" version="1.1" viewBox="-10 0 266 256">
   <path fill="currentColor"
d="M188 249q-2 0 -2 2q0 1 2 1q1 0 1 -1q0 -2 -1 -2zM173 211q0 3 1.5 8.5t4 11.5t6 10.5t7.5 4.5t4.5 -1t0.5 -5t-2.5 -7.5t-5.5 -8t-5.5 -9t-2.5 -9.5q0 -6 4 -10t8.5 -7l9 -6t5.5 -9q4 -18 4.5 -36.5t0.5 -36.5q0 -11 -0.5 -22t-1.5 -22q0 -5 -3 -8.5t-7.5 -5.5t-9.5 -3
t-9 -1.5t-6.5 -1t-2.5 -1.5v-20q0 -1 -2.5 -3t-3.5 -2q-3 0 -3 3.5v8t-0.5 9t-4.5 6.5q-11 1 -18 3t-12 6.5t-7.5 11t-2.5 17.5v6q1 4 1 13.5t0.5 20.5t1 20.5t0.5 13.5q1 1 1.5 4.5t0.5 4.5v3.5v2.5q1 5 5.5 9.5t10 7.5t11.5 5t10 2q1 0 3.5 -1t2.5 -3t-4 -4t-9.5 -4
t-10.5 -4t-8 -4q-4 -10 -6 -20t-2.5 -21t0 -21.5t0.5 -21.5v-17q1 -7 4.5 -11.5t9 -7t11.5 -3t13 -0.5h10q5 0 10.5 1t10.5 3.5t6 8.5v6t0.5 9t1 9.5t0.5 6.5v9v12.5v15.5t-0.5 16.5t-2.5 16t-5 14t-8 9.5q-8 6 -11.5 12t-3.5 16zM59 224q2 2 5 3.5t6 1.5h32q5 0 8 -7
t4 -15.5t1 -16.5v-12v-5.5t-2 -5.5v0h-1q-3 0 -4.5 2.5t-2 5.5t-0.5 5.5v4.5q-2 2 -5.5 1.5t-5.5 -0.5h-3h-2l-3 -3v-30q0 -1 1 -2t2 -1l1.5 -0.5t3 -0.5t3 -0.5t2.5 -0.5q4 -1 6.5 -5t3.5 -9t1 -10v-8v-3.5v-5t-1.5 -4.5t-3.5 -2h-2t-1 1v5v8v7v4q-1 6 -2 9.5t-8 3.5h-2.5
h-1.5q-1 0 -1.5 -0.5t-0.5 -1.5v-44l1 -1.5t2 -1.5t2 -1t2.5 -1.5l3 -1t2.5 -1.5l3 -31q0 -4 3 -5t6 -1.5l6 -1t3 -3.5q0 -2 -2 -2.5t-4 -0.5h-9.5t-14 0.5t-15.5 1.5t-14.5 2t-10.5 2.5t-4 3.5t1 4.5t4 2.5l2 -0.5t3 -1.5v0h1q0 1 1.5 1.5l1.5 0.5q1 0 2 0.5t1 1.5v25
q0 1 2 2t4.5 1.5t5 1.5t3.5 3v5v5v8.5t-0.5 11.5t-0.5 11v7q-2 2 -3 2h-2q-7 0 -10 -4t-3.5 -9.5t-0.5 -11.5t1 -10q0 -2 -1.5 -2.5t-2.5 -0.5q-4 0 -5 3t-1 6v4q0 3 0.5 7l1 8t1 7l0.5 3l7 7h18q2 0 2.5 2.5t0.5 3.5q0 8 -1 14.5t-1 15.5q0 1 -2 1h-3h-3.5t-2.5 -1
q0 -1 -0.5 -2.5t-0.5 -3.5t-0.5 -3.5l-0.5 -1.5q0 -3 -0.5 -3.5t-2.5 -0.5q-1 0 -2 0.5t-1 1.5v8.5t-0.5 6.5l-1 6t-0.5 7v3q0 2 0.5 5t0.5 6t0.5 6t0.5 4zM67 206v-6q0 -2 2 -2.5l4 -1t3.5 -0.5h3.5q1 0 3.5 -0.5t5.5 -0.5t6 -0.5t4 -0.5q6 2 6 9t-3.5 13t-12.5 6
q-5 0 -9 -0.5t-7 -2t-4.5 -4.5t-1.5 -9zM151 147q4 4 7 5t8 1q9 0 13.5 -2.5t6 -7t1.5 -10.5t1 -13v-8q0 -5 -0.5 -8.5t-0.5 -6.5t-0.5 -7t-0.5 -9q-2 -4 -3.5 -6t-4 -3t-5.5 -1h-8h-4.5h-4.5q-3 1 -4.5 3.5t-2.5 6t-1 7v5.5v2v1t0.5 2.5t1 2.5l0.5 1v12.5t-0.5 10.5t0 10.5
t1.5 11.5zM156 125v-4v-2l3 -4h1.5t3.5 -0.5t4 -0.5h4h0.5h0.5q3 0 5 3v4v4q0 4 -0.5 8t-1.5 6.5t-4 4.5t-8 2q-1 0 -3 -0.5l-2 -0.5q-3 -4 -3 -10v-10zM106 136q2 0 2 1q0 2 -2 2q-1 0 -1 -2q0 -1 1 -1zM154 97q0 -3 1 -7t2.5 -6.5t4 -4.5t6.5 -2t6.5 2t3.5 5t1.5 6.5
t0.5 6.5t-1.5 5t-3.5 2.5t-5 0.5h-5h-3q-4 0 -5 -1q-3 0 -3 -2.5v-4.5zM71 63v-8q2 -3 6 -3h7h8q1 1 1.5 2.5t0.5 3.5v3.5v2.5q0 3 -0.5 6t-2 6t-3.5 5t-6 2t-6.5 -2.5t-3 -5t-1 -6t-0.5 -6.5zM57 22q0 2 2.5 3t3.5 1q11 0 22.5 -2.5t20.5 -2.5l2 -2t2 -1v-0.5v-0.5
q0 -1 -2 -2.5t-3 -1.5l-42 3q-1 0 -3.5 2t-2.5 4z" />
</svg>
