<?xml version="1.0" standalone="no"?>
<!DOCTYPE svg PUBLIC "-//W3C//DTD SVG 1.1//EN" "http://www.w3.org/Graphics/SVG/1.1/DTD/svg11.dtd" >
<svg xmlns="http://www.w3.org/2000/svg" xmlns:xlink="http://www.w3.org/1999/xlink" version="1.1" viewBox="-10 0 266 256">
   <path fill="currentColor"
d="M52 239q3 5 8 7t10.5 3t11 1h9.5q6 0 11 -0.5t9 -3t7 -6.5t3 -11q1 -10 1.5 -20.5t0.5 -20.5v-7l-1.5 -1.5t-2.5 -0.5q-3 0 -4.5 2.5t-2 5.5t-0.5 6t-2 5h-2h-3h-5q-2 0 -4 -0.5t-3 -2t-1 -4.5v-29q0 -1 0.5 -1.5t1.5 -0.5q0 -1 2.5 -1.5t3.5 -0.5l2 -0.5t4.5 -0.5
t4.5 -0.5t3 -0.5q4 -2 6.5 -6t4.5 -9.5t3 -11t1 -9.5v-4v-4q-2 -3 -3.5 -4t-3.5 -1t-3.5 1t-2.5 4v10q0 6 -1.5 12t-4 10.5t-8.5 4.5h-2h-2.5t-2.5 -0.5t-1 -2.5l-0.5 -2.5t-0.5 -4.5t-0.5 -4l-0.5 -2q0 -2 0.5 -7.5t0.5 -11.5t0.5 -11t0.5 -7q1 -3 4 -4l6 -2t6 -4t4 -9v-5
t0.5 -6l1 -6t0.5 -5l2 -1q0 -1 1.5 -1.5t3.5 -1.5t3.5 -2t2.5 -1v-1.5v-0.5q0 -3 -2.5 -3.5t-4.5 -0.5h-3q-3 0 -9 0.5t-13.5 1t-16 1t-16.5 1t-14 1t-9 1.5v7h18l5 4v27q0 1 2.5 3t3.5 3h1.5h2.5t3.5 0.5t4 1l1.5 0.5v50q0 4 -1 4h-3q-7 0 -10 -3t-4.5 -7t-2 -9t-1 -9.5
t-1.5 -7.5t-4 -3q-4 0 -5 3.5t-1 6.5v4q0 2 0.5 4.5t0.5 6t0.5 6.5t0.5 4q2 5 5 8t7 4.5t8.5 2t8.5 -0.5q1 0 1.5 1t0.5 2v2.5v1.5v4v2q0 3 -0.5 7.5t-0.5 8.5t-0.5 6.5l-0.5 2.5l-2 2h-16l-4 -19h-0.5h-1.5q-3 0 -4.5 1.5t-2.5 4.5v19v18q0 8 2 17zM143 183v19.5t2.5 21.5
t8.5 17.5t18 7.5q10 0 16.5 -0.5t11.5 -3t7.5 -8t4.5 -15.5q3 -13 3.5 -24t0.5 -25v-5v-8v-8.5v-5.5q-1 -2 -2.5 -2h-2.5q-3 0 -4.5 2.5t-1.5 5.5t-0.5 6t-3.5 4q-5 0 -9.5 0.5t-8.5 0.5t-8 0.5t-8 0.5q-7 0 -10 -2.5t-4 -5.5t-1.5 -5.5t-4.5 -2.5h-1q0 1 -0.5 1.5l-0.5 0.5
q0 2 -0.5 6t-1 8.5t-0.5 9v5.5v4zM65 233q0 -1 -1 -4t-1.5 -6.5t-1 -6.5t-0.5 -4v-1v-1l1 -1l1 -1q6 -1 10.5 -1.5t8.5 -0.5h8h10h1h4h3h2q1 0 1.5 1t0.5 3v2v2q0 13 -4 20t-18 7h-6t-7.5 -1t-6.5 -2.5t-5 -4.5zM152 190v-3.5v-5t1 -5t3 -3.5q5 -1 8.5 -1t7.5 -0.5t8 -0.5h8
h15q2 3 2 7v7v8q0 3 -0.5 8.5t-1.5 10.5t-1.5 9t-0.5 5l-7 9h-31q-3 0 -4.5 -3t-3 -7t-2 -9.5t-1 -10.5t-0.5 -9v-6zM161 198q0 3 1.5 3.5t4 1t4.5 0t3 -0.5t4.5 0.5t7 0t6 -1.5t2.5 -4q0 -2 -2.5 -2.5t-4.5 -0.5h-2q-1 0 -4.5 0.5t-7.5 1t-7.5 0.5h-4.5v1.5v0.5zM145 74
q0 13 1.5 27.5t3.5 27.5q1 0 2 0.5t2 0.5q4 0 4.5 -3.5t0.5 -7.5q0 -12 -1.5 -23t-1.5 -23v-18q0 -2 1 -4.5t2.5 -5t3.5 -4t5 -1.5q1 0 3 4t4 10t4 13.5t4 14.5t4 12.5t3 7.5l1.5 2t2.5 3.5t2 3.5t1.5 2.5t1.5 2.5t3 4l3.5 3.5t2.5 1.5q3 0 5.5 -2t2.5 -5v-1v-1
q-5 -7 -11 -17t-11 -20.5t-8 -21t-3 -19.5v-3v-3q2 -1 7 -1.5t10.5 -2t9.5 -3.5t4 -5t-3 -4t-5 -1q-6 0 -15.5 2.5t-19 7t-16.5 10.5t-9 13v3v7t-0.5 8t-0.5 7v1zM72 65v-8l0.5 -1t1.5 -1q6 -2 13.5 -2h13.5v25q0 1 -0.5 1.5l-0.5 0.5q-1 0 -3 1t-4 1.5t-4.5 1t-3.5 0.5h-1
q-4 0 -6.5 -1.5t-3.5 -4.5t-1.5 -6.5t-0.5 -6.5zM58 19v2t1 2h9q14 0 26.5 -2t26.5 -2v-2q0 -2 -1 -3.5t-3 -2t-3.5 -0.5h-3.5h-5h-8t-13 0.5t-13 1t-8 0.5q-2 1 -3.5 2t-1.5 4z" />
</svg>
