<?xml version="1.0" standalone="no"?>
<!DOCTYPE svg PUBLIC "-//W3C//DTD SVG 1.1//EN" "http://www.w3.org/Graphics/SVG/1.1/DTD/svg11.dtd" >
<svg xmlns="http://www.w3.org/2000/svg" xmlns:xlink="http://www.w3.org/1999/xlink" version="1.1" viewBox="-10 0 266 256">
   <path fill="currentColor"
d="M58 244v4t3 1q4 0 6 -4t3 -9.5l2 -11t2 -7.5l8 -115l0.5 -3t1 -6.5t1 -6.5t0.5 -4q1 -4 4 -5.5t7.5 -2t8.5 -0.5h6h8q0 1 1 1.5l1 0.5v1q0 6 -4.5 9t-9 4.5l-9 3t-4.5 3.5t2 2.5t4 0.5q10 0 15 -2.5t7.5 -5.5t3.5 -7t3 -7.5t5 -6t10 -2.5q1 0 2.5 0.5l1.5 0.5l3 3v5t1 6
t2.5 5t4.5 3q1 0 4 0.5t6 0.5t6 0.5t4 0.5h3q2 0 4 -1.5t2 -3.5v-2.5t-1 -1.5h-28v-14h31q2 0 2.5 -1.5t0.5 -2.5q0 -3 -2.5 -4.5t-5.5 -1.5q-10 0 -20.5 0.5t-21.5 0.5l-0.5 -1.5t-0.5 -2.5q2 -3 5.5 -4.5t7.5 -2.5t8.5 -1t8.5 -1.5t6 -4t2 -7.5v-6.5t-1 -6.5t-3 -5.5
t-5 -3.5h-8q-20 0 -40 -0.5t-39 3.5q-3 1 -3 1.5v2.5v1.5t1 1.5t5.5 0.5t5.5 0.5q5 0 9.5 -1t8.5 -1h3t2 1v5q0 7 -4 11t-10.5 6t-13 2.5t-12.5 1.5l-0.5 0.5t-1.5 0.5v1q0 3 3.5 3.5t5.5 0.5q4 0 10.5 -0.5t12.5 -2t11 -4.5t7 -8q0 -1 0.5 -3.5t1 -5.5t1.5 -5.5t3 -3.5
q4 -1 7.5 -1t6.5 -0.5t6 -0.5h6h9q4 2 4.5 4.5t0.5 5.5t-0.5 6t-4.5 4q-7 1 -13.5 2.5t-12.5 3.5q-1 0 -2 0.5l-1 0.5q-2 3 -2.5 5.5t-1 4.5t-2 3.5t-5.5 1.5q-2 0 -6.5 0.5t-10 1t-10.5 1t-7 0.5q-9 3 -13.5 10t-6.5 17q-1 13 -1.5 26.5t-1 28t-1 28t-0.5 25.5q-1 4 -3 9.5
t-3.5 11t-2 11t-0.5 10.5zM110 207v8q0 5 1 9t4 6.5t9 2.5h47q6 0 9 -3.5t4.5 -8.5t2 -10t0.5 -8q0 -1 -0.5 -3.5t-1.5 -5t-2.5 -4t-3.5 -1.5h-0.5h-1.5q0 1 -2 4t-2 4l-2 2h-6h-3.5h-5t-4.5 -1t-2 -2v-12l1 -1l2 -0.5l4 -1t4.5 -1t3.5 -0.5t3.5 -0.5t5 -0.5t5 -0.5
t3.5 -0.5t3 -1.5t3 -2.5q0 -1 0.5 -3.5t0.5 -5t0.5 -5t0.5 -3.5v-3q0 -2 -1 -4.5t-3 -2.5q-3 0 -4.5 2t-1.5 5v6t-2 6t-5.5 4.5t-11.5 1.5h-8q-1 0 -2 -0.5l-1 -0.5v-12l0.5 -0.5t0.5 -1.5q1 0 2 -0.5t2.5 -1l3 -1t2.5 -0.5q3 -1 5 -4.5t3 -7t2 -6.5t2 -3h24l1.5 -1.5
t1.5 -2.5v-1v0v0q0 -1 -2 -2.5t-2 -2.5h-6q-5 0 -8.5 0.5t-8.5 1.5l-83 4q-1 0 -1.5 1.5l-0.5 1.5v0.5v1.5q6 2 13.5 2t12.5 -1q2 2 3 4t1.5 4t0.5 4.5t2 3.5q2 4 5.5 5t6.5 1.5t5.5 2.5t2.5 8q0 2 -2 4.5t-5 2.5h-21l-3 -1v-4q0 -4 -0.5 -7t-2 -6t-4.5 -3t-3.5 1.5
t-0.5 4.5q0 1 0.5 4.5t1.5 7.5t2 7t4 3h32q2 0 2 2v3q0 3 -0.5 5.5t-1.5 6.5q-3 2 -6 2h-6h-4h-4q-1 -3 -2 -5.5t-4 -2.5h-2t-1 2v12zM119 214q0 -3 5.5 -4.5t12.5 -2t13.5 -1t8.5 -0.5h12q3 1 3.5 3t0.5 4q0 6 -4 8.5t-9.5 3t-11.5 0t-9 -0.5h-13q-4 0 -6.5 -3t-2.5 -7z
M125 141q0 -2 0.5 -3t2.5 -3q8 -1 12.5 -1.5t10.5 -0.5q1 0 4 0.5t4 0.5t1.5 1t0.5 2v2v1q0 4 -2.5 6t-6 2.5t-7.5 0.5h-7h-8q-2 -2 -3.5 -4t-1.5 -4zM107 111v1l1 1l2 2h12h12q2 0 6 -0.5t9 -0.5t9 -0.5t5 -0.5t3 -0.5t2.5 -1l1 -1l0.5 -0.5q0 -3 -2.5 -3.5t-4.5 -0.5h-2
q-3 0 -10.5 0.5t-15.5 1t-15 0.5h-10l-3 2v1z" />
</svg>
