<?xml version="1.0" standalone="no"?>
<!DOCTYPE svg PUBLIC "-//W3C//DTD SVG 1.1//EN" "http://www.w3.org/Graphics/SVG/1.1/DTD/svg11.dtd" >
<svg xmlns="http://www.w3.org/2000/svg" xmlns:xlink="http://www.w3.org/1999/xlink" version="1.1" viewBox="-10 0 266 256">
   <path fill="currentColor"
d="M175 176q3 18 6 34.5t8 33.5q1 2 2.5 4.5t4.5 2.5q4 0 4 -5q0 -9 -2.5 -17.5t-6 -17t-6 -17t-2.5 -17.5v-3t1 -2h28l0.5 -1.5t0.5 -2.5t-2 -3.5l-2 -2.5h-34l-1 -1l-1 -1v-1v-1q0 -1 0.5 -3.5t0.5 -5t0.5 -5t0.5 -3.5t1 -1.5l2 -1t1.5 0t1.5 0.5q4 0 7.5 2t7 4.5t7 4.5
t6.5 2t4.5 -2.5t1.5 -5.5t-5.5 -5.5t-12.5 -4.5t-13.5 -3.5t-8.5 -2.5v-3v-2v-5t3 -3q11 0 17.5 -4.5t6.5 -15.5v-5t-1 -5.5t-3 -4.5t-5 -1l-41 3l-0.5 0.5t-0.5 1.5v1v0q0 1 1.5 2.5l1.5 1.5h30q4 0 7 3l5 5q-2 1 -4.5 4t-5.5 4q-2 0 -5 0.5l-6 1t-5.5 1l-2.5 0.5h-5.5
t-6.5 -0.5t-5 -0.5h-3l-4 -6l-0.5 -2.5t-0.5 -6.5t-0.5 -8t-0.5 -7v-1v0q1 -1 2 -3l1 -2v-2q0 -3 -1 -3h-3h-4q0 1 -0.5 5.5l-1 9l-1 9t-0.5 5.5v2q0 7 3 10.5t8 5.5t10.5 2.5t10.5 0.5q1 0 1.5 1t0.5 2v2v2v2v3q-1 0 -3.5 1t-5.5 2.5t-5.5 2.5t-3.5 2q-1 0 -3.5 1.5t-6 3
t-5.5 3.5t-2 4t1 2h2q4 0 7.5 -1.5t6.5 -3.5t6.5 -3.5t7.5 -1.5q1 0 3 0.5t2 2.5v1q0 3 -0.5 7.5t-0.5 8v3.5l-2 2l-32 3q-1 0 -1.5 1.5l-0.5 1.5q0 4 4 4h17q2 0 2 2v2v2v2l-0.5 2t-1.5 2q-2 15 -4 28.5t-5 27.5v1v1v2.5t2 1.5q4 0 6 -6t3.5 -13.5t2 -14.5t0.5 -10
q0 -1 0.5 -5t1 -8.5t1 -8.5t1.5 -5q0 -4 3 -4.5t6 -0.5h2h1zM59 187q0 11 1 21l2 20q1 8 3 12t5 6t8.5 2.5t12.5 0.5h11q1 0 2 -0.5t2 -1.5q4 -3 7 -5.5t4.5 -5t2 -5.5t0.5 -8q0 -10 -1 -19t0 -18l-5 -5q-5 3 -5 7.5v10.5q-3 1 -5.5 1.5t-5.5 0.5t-4 -2.5t-1.5 -5.5t0 -6.5
t0.5 -5.5v-2v-4v-3v-2q2 -2 6 -3.5t8 -3.5t7 -5t3 -6v-33q0 -1 -1 -2.5t-2 -1.5l-3 3q0 1 -0.5 4.5t-0.5 7t-0.5 6.5t-0.5 5t-0.5 4.5t-2 4.5t-3.5 3.5t-4 1.5q-4 0 -6 -3t-2 -6q0 -6 1 -11.5t1 -11.5v-5q0 -1 -0.5 -2t-0.5 -2.5t-0.5 -2.5l-0.5 -1q1 -3 3.5 -4t5.5 -2.5
t5.5 -3.5t2.5 -5v-26q0 -3 2.5 -4t5.5 -1.5t5.5 -1.5t2.5 -5q0 -3 -2.5 -3.5t-5.5 -0.5q-4 0 -6.5 0.5t-7.5 2.5l-49 3q-5 1 -8 3t-3 7h23v32q0 1 1.5 1.5t2.5 0.5t3 1t4 1.5t4 1.5t3 1v7v11v11v7l0.5 1t0.5 2.5t0.5 2.5t0.5 2q0 2 -2 3.5t-4 1.5q-4 0 -7.5 -2.5t-5.5 -5.5
v-5v-7v-7v-4q-1 -4 -1.5 -4.5t-3.5 -0.5h-3t-2 2v3.5v4.5v16t2 11t7.5 6t16.5 2q3 2 3 6v6v6.5t-0.5 8.5t-1 7.5t-1.5 3.5l-12 1q0 -1 -0.5 -5.5t-0.5 -5.5v-4t-2 -3h-8zM69 216v-3q1 0 5 -0.5l8 -1t7.5 -1t5.5 -0.5h1h2h3h4t3.5 1t2.5 2v7q0 6 -1.5 9.5t-4.5 5.5t-7 2.5
t-10 0.5q-11 0 -15 -5.5t-4 -16.5zM73 78v-4q0 -2 1 -3q3 -4 8.5 -4.5t8.5 -0.5h7q2 1 2.5 3t0.5 4t-0.5 5t-1 6.5t-1.5 6.5t-3 4h-3.5h-3.5q-8 0 -11.5 -4t-3.5 -13zM149 61q0 2 1.5 3.5t3.5 1.5h0.5h0.5q2 0 6.5 -0.5t10 -1t10 -1t5.5 -0.5q8 -1 11.5 -4t3.5 -11v-6t-1 -7
t-3 -5.5t-5 -2.5h-41q-2 0 -3.5 -2.5t-2.5 -6t-2 -6.5t-3 -4q-3 0 -3 2v4q0 9 3 15.5t13 7.5h29q4 1 6 3.5t2 6.5q0 3 -0.5 5t-4.5 3q-1 0 -3.5 -0.5t-4.5 -0.5q-3 0 -5 0.5t-3 0.5h-5.5t-7 0.5t-6 2t-2.5 3.5zM58 33q0 2 1 3t3 1h4q1 0 6.5 -0.5t12 -1t12.5 -1t7 -1.5h4
t3.5 -0.5t3 -1.5t1.5 -4t-2.5 -3h-4.5h-5h-8t-10.5 0.5t-10 0.5h-5.5t-3 0.5l-4 1t-3.5 2t-1.5 4.5z" />
</svg>
