<?xml version="1.0" standalone="no"?>
<!DOCTYPE svg PUBLIC "-//W3C//DTD SVG 1.1//EN" "http://www.w3.org/Graphics/SVG/1.1/DTD/svg11.dtd" >
<svg xmlns="http://www.w3.org/2000/svg" xmlns:xlink="http://www.w3.org/1999/xlink" version="1.1" viewBox="-10 0 266 256">
   <path fill="currentColor"
d="M160 186q3 2 5.5 7t5.5 12.5t6 15.5t6.5 14.5t7.5 11t8 4.5q2 0 4 -0.5t2 -3.5q0 -1 -2 -4t-4.5 -6t-5.5 -6t-3 -5q-7 -11 -12 -23.5t-9 -25.5v-1q0 -4 4 -8t9 -8t9 -7.5t4 -6.5t-1 -3.5t-3 -0.5t-5 2t-6 4.5t-5.5 5.5t-4.5 4h-1h-2.5t-1.5 -2v-20q4 -2 6.5 -5.5t4.5 -8
t3.5 -9.5t3.5 -9.5t4.5 -7.5t5.5 -3q5 0 7.5 3t3.5 7t1.5 9t1.5 9t3 6.5t6 2.5q3 0 4 -0.5t1 -4.5t-2 -11t-6 -14t-8.5 -12t-9.5 -5q-3 0 -7 2t-5 5l-16 31l-2 2q0 -1 -0.5 -3.5t-0.5 -3.5v-28q-3 -4 -6 -7t-8 -3q-8 0 -13 3.5t-8 9t-4 12t-1.5 14t-0.5 14v11.5
q4 0 7.5 -2.5t3.5 -6.5q0 -3 -1 -5t-1 -6q0 -3 0.5 -9t2 -12.5t4 -11t7.5 -4.5q2 0 4 1.5t3.5 3.5t2.5 4.5t1 4.5v43q1 6 1 11v10v13q-3 3 -7.5 12t-9 19t-7.5 19t-3 13q0 3 1 5t4 2q1 0 2.5 -4t3.5 -10t4 -13.5t4.5 -14t5 -11.5t4.5 -7zM56 193v13q0 6 1 12t4.5 10.5
t10.5 6.5h13q8 0 13 -1t8.5 -3.5t5 -8t1.5 -14.5v-6t-0.5 -11t-1.5 -10.5t-3 -4.5q-3 0 -3.5 2t-1.5 4t-2.5 4t-6.5 2h-3h-2l-1 -1l-1 -1v-30q0 -1 2.5 -2t5.5 -2.5t6.5 -3.5t4.5 -4q2 -7 2 -11.5v-11.5v-4v-4q0 -2 -1 -2h-2h-3t-2 2v23q0 1 -1 2t-2.5 2l-3 2t-2.5 1
t-2 -0.5t-2 -1.5q-1 -8 -1 -14v-14v-14q5 -3 10 -7.5t5 -12.5v-1t-0.5 -2.5l-1 -3l-0.5 -1.5v-3q0 -4 2.5 -6t5.5 -2.5t5.5 -1t2.5 -3.5v-2t-2 -1h-18h-18h-7t-10.5 0.5t-10.5 0.5h-7q-2 1 -3.5 2t-1.5 4v1.5t2 1.5h20q0 5 -0.5 9.5t-0.5 9.5q0 4 1.5 6.5t4 4.5t5.5 3l6 2
q0 1 0.5 3.5t0.5 5.5t0.5 5.5t0.5 3.5v5.5v8.5q0 5 -0.5 9t-0.5 5q-7 0 -10.5 -1.5t-5.5 -5.5t-2 -9.5v-11.5q-1 -1 -2 -1.5t-2 -0.5h-1h-1l-1 0.5t-2 1.5v4.5v4.5q0 13 4.5 19t10 8.5t10.5 3.5t5 4v8t-0.5 10t-2 9t-5.5 4t-5.5 -2t-2 -4.5t-1 -4.5t-2.5 -2t-2.5 0.5
l-1.5 1.5v3v4v4v3zM66 204q0 -4 3 -6t6.5 -2h7.5h7h5.5h3.5l4 2v3v4v5t-0.5 6t-2 5.5t-4.5 2.5h-21q-3 0 -4.5 -2.5t-2.5 -6t-1.5 -6.5t-0.5 -5zM66 67q0 -3 2 -4t4.5 -2t5.5 -1h5h6q3 2 3.5 5.5t0.5 6.5q0 8 -3 11.5t-11 3.5q-5 0 -7.5 -1.5t-3.5 -4.5t-1.5 -6.5t-0.5 -7.5
zM169 38q10 7 20.5 14t19.5 17h1h1q4 0 5.5 -2t1.5 -5q0 -4 -3 -7t-6.5 -5.5t-8 -4.5t-7.5 -4q-1 0 -4 -2l-6 -4t-5.5 -3.5t-3.5 -2.5q-2 -2 -3 -5t-1.5 -6.5t-2 -5.5t-4.5 -2h-3t-2 1v18l-1.5 1.5t-3.5 4t-4.5 5l-3.5 3.5q-5 4 -10 7t-11 5q-1 1 -1.5 3l-0.5 2v2
q0 1 1.5 1.5t2.5 0.5q7 0 12.5 -4t10 -9t9 -9t9.5 -4h2zM56 26q0 3 1 4t2.5 1h3h3.5h10q6 0 13 -0.5t12 -2t5 -3.5q0 -3 -2.5 -4t-4.5 -1h-2h-1q-2 0 -8 0.5l-12 1l-12 1t-8 1.5v1v1z" />
</svg>
