<?xml version="1.0" standalone="no"?>
<!DOCTYPE svg PUBLIC "-//W3C//DTD SVG 1.1//EN" "http://www.w3.org/Graphics/SVG/1.1/DTD/svg11.dtd" >
<svg xmlns="http://www.w3.org/2000/svg" xmlns:xlink="http://www.w3.org/1999/xlink" version="1.1" viewBox="-10 0 266 256">
   <path fill="currentColor"
d="M140 151q1 0 1.5 1t1 2.5l1 3t0.5 2.5v87l1 1l2 2h1h1q1 0 2 -0.5t1 -1.5v-3t0.5 -4.5t0.5 -5.5v-3v-4q0 -2 -0.5 -4.5t-0.5 -5.5v-2v-11t-0.5 -19t-0.5 -19v-11v-8t0.5 -13t0.5 -13.5v-7.5q0 -4 0.5 -12t0.5 -18v-21v-21v-18v-12q-3 0 -6 1t-3 5v45q0 1 -0.5 3.5
t-1.5 2.5h-3q-5 0 -9 -2t-4 -8v-30q0 -1 -1 -2l-2 -2h-1q-2 0 -3 2t-1 3t-0.5 3t-0.5 4.5t-0.5 5t-0.5 3.5v1v1q0 2 0.5 5.5t0.5 6.5t0.5 5l0.5 2q1 7 5 9.5t8.5 3t8.5 0.5t4 2v19q0 5 -4.5 5.5t-9.5 0.5t-10 0.5t-6 4.5q0 2 1 3t2.5 1.5t3.5 1l2 0.5q5 0 9.5 -1.5t8.5 -1.5
q2 0 3.5 2t1.5 4l-0.5 0.5l-0.5 0.5v3t-0.5 4t-0.5 3.5v2.5q-1 2 -0.5 5t-1.5 4h-3h-4q-17 2 -19 19v9.5v13.5v14.5v8.5q0 1 -0.5 4t-0.5 7t-0.5 7l-0.5 3v2q0 2 1 5.5t5 3.5q1 0 2.5 -0.5t1.5 -3.5v-54q0 -4 -0.5 -6.5t-0.5 -5.5t1 -6.5t3.5 -6.5t5.5 -5t7 -2zM173 245l2 2
l3 3h1q3 0 4.5 -2.5t1.5 -6v-6.5v-5q0 -17 -0.5 -33.5t-0.5 -34.5v-11q0 -2 2.5 -3t3.5 -1q7 2 10 5.5t4.5 8t1.5 9.5v11v10.5v15.5v16.5v10.5q0 2 1.5 3.5t3.5 1.5q4 0 5.5 -3.5t1.5 -5.5v-1q0 -3 -0.5 -9.5t-1 -15t-1.5 -17.5t-1.5 -17t-1.5 -14.5t-1 -9.5t-2 -5.5
t-5 -2.5h-19q-2 0 -2.5 -2.5t-1 -5.5t0 -5.5l0.5 -2.5v-4v-3l2 -2h27q2 0 4 -2.5t2 -3.5q0 -3 -2.5 -4.5t-4.5 -1.5q-5 0 -10.5 1t-10.5 1h-3h-2q-2 -4 -2 -6v-6v-6t3 -5q2 0 7 -0.5t9.5 -2t8 -4.5t3.5 -7v-37q0 -3 -2 -4.5t-4 -1.5h-1q0 1 -1.5 2t-1.5 2q0 5 0.5 12
t-0.5 14t-4.5 11.5t-11.5 4.5h-2t-1 -2v-56q0 -2 -2 -2h-3q-2 0 -3.5 0.5t-2.5 3.5v18q0 8 1 15t1 14q0 13 -1 25.5t-1 25.5q0 25 1 50t1 51v25q-1 1 -1.5 4t-0.5 4zM48 182v6q0 1 0.5 4t1 6.5t0.5 6.5v4q1 8 1.5 13t2.5 8t6.5 4.5t13.5 1.5q5 0 9.5 -0.5t7.5 -2.5t5.5 -5.5
t4.5 -9.5v-7t0.5 -10.5t0.5 -10.5v-7v-4q0 -3 -0.5 -4t-3.5 -1h-3v5q0 2 -0.5 4.5t-2.5 4.5t-4 2h-3q0 -2 -0.5 -6t-0.5 -9t-0.5 -9.5t-0.5 -5.5v-3q0 -3 3.5 -4.5t7 -3.5t7 -5.5t3.5 -8.5v-27q0 -1 -1.5 -1.5l-1.5 -0.5q-2 0 -2.5 0.5l-1.5 1.5v8t-0.5 10.5t-2.5 9.5t-6 4
h-1h-1t-2 -0.5t-1 -1.5v-40l2 -2t3 -4q5 -4 7 -7t3 -6t0.5 -7.5t0.5 -10.5q0 -3 1.5 -4t3 -1.5t3 -1.5t1.5 -3q0 -5 -5 -5q-15 0 -31 0.5t-32 3.5q-2 0 -2 1.5v2.5q0 4 2.5 4.5t5.5 0.5h6t3 4l4 26l14 3v51h-4q-2 0 -4.5 -0.5t-4.5 -2t-2 -3.5v-27l-1.5 -1t-2.5 -1t-2 1
t-2 1l-1 1l-1 1v25l1 1.5t1.5 3t1.5 3.5t2 2q1 3 4 4t6.5 1t6 0.5t2.5 1.5l1 32l-1 6h-1.5h-2.5q-8 0 -10 -4t-2 -12q0 -1 -2 -1h-1q-4 0 -5 1.5t-1 5.5zM59 206v-2t1 -2q2 0 5.5 -0.5t8 -1t8 -1t5.5 -1.5h2q2 0 4 2t2 5q0 11 -3.5 15.5t-14.5 4.5q-10 0 -14 -4t-4 -15z
M88 55l4 4v3v4q0 5 -0.5 8.5t-1.5 5.5t-4 3t-8 1h-2t-4.5 -0.5t-4 -1t-1.5 -2.5v-19q0 -1 0.5 -1.5l0.5 -0.5q1 0 4.5 -1t4.5 -1q2 0 4 -0.5t4 -0.5t3 -0.5zM54 22q0 3 1.5 4.5t4 2t4.5 0.5h5h7.5t12 -1t11 -2.5t4.5 -3.5v-2.5t-2 -1.5h-45q-3 0 -3 1.5v2.5z" />
</svg>
