<?xml version="1.0" standalone="no"?>
<!DOCTYPE svg PUBLIC "-//W3C//DTD SVG 1.1//EN" "http://www.w3.org/Graphics/SVG/1.1/DTD/svg11.dtd" >
<svg xmlns="http://www.w3.org/2000/svg" xmlns:xlink="http://www.w3.org/1999/xlink" version="1.1" viewBox="-10 0 266 256">
   <path fill="currentColor"
d="M53 192q0 4 0.5 11.5t1.5 15.5t2 15.5t3 10.5q1 2 4 3l6 2t6 1h5q7 0 13.5 -1t12 -3.5t9 -8t3.5 -13.5v-12.5t-0.5 -14.5t-3 -12.5t-9.5 -5.5q0 5 0.5 8.5t-2.5 7.5l-0.5 1t-1.5 1h-12l-0.5 -2t-1.5 -4v-2v-2l2 -23q0 -1 1 -1.5l1 -0.5q7 -5 11.5 -7t6.5 -5t2.5 -8
t0.5 -16v-11q0 -2 -1.5 -4t-3.5 -2q-1 0 -1.5 1l-0.5 1v5t-0.5 7t-0.5 7t-1 5q-1 4 -3 8.5t-7 4.5h-3.5t-2.5 -2v-47q1 0 2.5 -1.5t3 -3.5t3.5 -4l2 -2q1 -1 1.5 -2.5l0.5 -1.5v-6.5v-5v-5t1 -5.5q1 -1 3.5 -2t4.5 -1.5t3.5 -1.5t1.5 -4q0 -2 -1 -3t-3 -1h-4h-3
q-8 0 -16 1.5t-17 2.5h-5h-8h-8h-4q-2 0 -4 1t-3.5 2.5t-2.5 3.5t0 4q0 1 1 1.5t2 0.5t3.5 0.5t5.5 0.5t5.5 -0.5t3.5 -0.5q1 1 2 4.5t1.5 7t1 6.5t0.5 4q0 2 3 3t5.5 1.5t5 2t2.5 3.5v52l-1.5 1t-2.5 1h-1q-5 0 -7 -2.5t-3 -7t-1 -9v-9t-1 -7t-4 -2.5q-5 0 -5.5 1.5
t-0.5 5.5q0 15 2.5 22.5t5.5 11t6.5 4t7 1.5t5.5 3t2 8q0 7 -0.5 12.5t-1.5 12.5l-1.5 1t-2.5 1q-7 0 -9 -3t-2 -7t-0.5 -7t-4.5 -3q-2 0 -3 1.5t-1.5 3.5t-0.5 4v3zM65 214v-4q2 0 5 -1t6 -1.5l6 -1t5 -0.5h2q2 0 5 -0.5t5.5 0t4 1t2.5 3.5v8q0 13 -6.5 18t-18.5 5
q-5 0 -8.5 -2.5t-5 -6.5t-2 -8.5t-0.5 -9.5zM127 233q0 4 1.5 4h3.5q11 0 21 -0.5t20 -1.5t20 -1.5t21 -0.5q3 1 4 -1t1 -4v-1v-2q-4 -3 -6.5 -3.5t-6.5 -0.5q-8 0 -15.5 1t-15.5 1v-35q0 -6 3.5 -10.5l7 -9t7 -9.5t3.5 -11q0 -15 -4 -31t-8 -30q-1 -2 -3 -3t-5 -1h-6h-4
q-7 0 -11 4t-6.5 10.5t-3.5 15t-1 16.5t0.5 15t0.5 12v24q0 2 1 2.5t2 0.5q2 0 3 -1t1 -3v-47q0 -1 0.5 -1.5t1.5 -0.5v0h1v0v0l1 1.5t1 2t1 3t2 4.5l2 4t3 2h1l3 -1q0 -1 0.5 -3t0.5 -3q0 -4 -2.5 -7.5t-5.5 -6.5t-5.5 -6t-2.5 -7q0 -10 4 -16.5t12 -6.5q1 0 3.5 0.5
t3.5 0.5l0.5 1.5t0.5 2.5q1 3 2 8t2.5 10.5t2 9.5t0.5 5v2q0 1 0.5 3t0.5 4v3v3t-0.5 4t-0.5 4v2q-7 8 -13 15.5t-6 19.5v36l-2 1q-3 0 -7.5 0.5t-9.5 1t-9.5 1t-8.5 1.5q0 1 -1 2.5zM125 136q0 2 1 3t3 1q1 0 3.5 -1t2.5 -3v-74q0 -5 4 -8t9 -5t10 -2.5t8 -0.5h2h4t6.5 0.5
t6.5 1t4 0.5q3 2 5 6t3 9t1.5 10t0.5 8q1 3 1.5 10t1 14.5t1 14.5t0.5 10q1 1 2 3.5t2 2.5q2 0 4 -3t3 -5q-1 -5 -1.5 -13t-1 -18t-1.5 -20t-3 -18.5t-5 -14t-8 -6.5h-14h-2t-3 -0.5t-3.5 -1t-2.5 -0.5v-2v-3q0 -4 1 -7.5t1 -7.5q0 -2 -1.5 -2.5t-3.5 -0.5h-2.5t-2.5 2
q-1 0 -2 0.5l-1 0.5v18q0 3 -2.5 4t-6 1.5t-7.5 2t-7.5 4.5t-6 8.5t-3.5 14.5v5v9v11v8v7v10v10v7zM67 72q0 -3 2 -5t5 -3.5t6.5 -1.5h5.5h1l1 0.5t2.5 1.5l1.5 1v18l-0.5 1t-1.5 1t-2.5 1t-3 1.5l-3 1l-1.5 0.5q-3 0 -5.5 -2t-4 -4.5t-2.5 -5t-1 -5.5zM53 18q0 3 2 4t5 1
q12 0 23.5 -1.5t24.5 -0.5q1 -1 1.5 -2t0.5 -3t-3 -3.5t-5 -1.5h-11.5t-13 1t-13 1.5t-11.5 1.5v1v2z" />
</svg>
