<?xml version="1.0" standalone="no"?>
<!DOCTYPE svg PUBLIC "-//W3C//DTD SVG 1.1//EN" "http://www.w3.org/Graphics/SVG/1.1/DTD/svg11.dtd" >
<svg xmlns="http://www.w3.org/2000/svg" xmlns:xlink="http://www.w3.org/1999/xlink" version="1.1" viewBox="-10 0 266 256">
   <path fill="currentColor"
d="M164 246q0 3 0.5 4t3.5 1t3.5 -2t0.5 -4q0 -17 -1 -33t-1 -32v-26q1 -1 2 -1.5t2 -0.5h1q7 0 10 3t4.5 7t2.5 9t4 10v50q0 1 2.5 1.5t3.5 0.5t2 -2.5l1 -2.5q1 -1 1 -5v-5t-0.5 -8t-1 -13t-1.5 -15t-2.5 -15t-3.5 -12t-5 -6q-4 -2 -10.5 -2.5t-9.5 -1.5q-2 0 -2 -2.5
v-3.5v-4t2 -3l6 -2t6 -2.5t5.5 -3t4.5 -4.5q0 -5 1 -10t1 -11q0 -4 -4.5 -7t-7.5 -4h-2h-3.5h-3.5h-2q-5 0 -11 0.5t-11 2.5t-8.5 6t-3.5 11q0 4 2 8.5t3 8.5q3 2 7 2.5t7 2t4.5 4t1.5 6.5v3v2q-3 2 -7.5 2t-7.5 2q-7 4 -10 10.5t-4 13.5t-1 14.5v15.5v2v3.5v5.5v4v3v4v4v4
t1 3t3 2h1l0.5 -1t1.5 -1q-1 -16 -0.5 -33t1.5 -33q1 -2 2 -5t3 -5.5t4 -4t6 -1.5q3 0 5 2.5t2 5.5q-1 16 0 32t1 32q0 6 -0.5 10.5t-0.5 9.5zM57 172v7.5v12t0.5 12t0.5 7.5q0 8 2 12t5.5 6t9 2h12.5h2h4.5h4.5h3q4 -2 7 -5.5t4.5 -7.5t2.5 -8.5t1 -9.5v-1q-1 -2 -1 -5.5
t-0.5 -6.5t-0.5 -5.5v-2.5q0 -2 -1 -3t-2 -1h-1t-1 1l-0.5 2t-1 4.5t-1.5 4.5t-2 2h-15v-29q0 -1 3 -2t7 -3t7.5 -4.5t4.5 -7.5l1 -36q1 -3 0 -4.5t-3 -1.5q-1 0 -2 0.5t-1 1.5q0 2 -0.5 5.5t-0.5 8t-0.5 8.5t-0.5 5q0 2 -0.5 5t-2 5.5t-3 4.5t-4.5 2q-1 0 -3 -0.5t-2 -3.5
v-48l1.5 -0.5t1.5 -1.5q2 0 5 -1.5l6 -3t5 -4t2 -4.5v-19h4.5t6 -1t4.5 -3t2 -5q0 -4 -1.5 -4h-4.5q-11 0 -21 1.5t-21 1.5q-2 0 -6.5 0.5t-9.5 0.5t-9.5 0.5t-5.5 0.5q-2 0 -2 1v2v3t2 2h14l3 4v21q0 1 1 1.5t2.5 1.5t3 1.5t2.5 0.5q1 1 4 1.5t4 0.5v3q0 4 -1 8.5t-1 9.5
q0 1 0.5 4t0.5 4l0.5 2.5l0.5 2.5l-0.5 3t-0.5 4l0.5 3l0.5 3v4v3.5t-3 1.5t-6.5 -1.5t-6.5 -3.5t-5 -5t-2 -7v-29l-0.5 -0.5t-0.5 -1.5h-1q-2 0 -3.5 1.5t-2 3t-0.5 2.5v4q0 8 0.5 15.5t0.5 15.5q5 7 11.5 9.5t13.5 4.5q2 1 3.5 1.5l1.5 0.5v28q0 2 -1.5 2.5t-3.5 1t-4 0.5
h-3h-2h-2l-2 -2v-15l-0.5 -1t-1 -1h-3h-2.5zM64 204v-2v-1q1 -1 3 -1.5t4 -0.5h35l0.5 0.5t0.5 1.5v5q0 17 -19 17q-11 0 -17.5 -3.5t-6.5 -15.5zM81 154q1 0 1 1q0 2 -1 2q-2 0 -2 -2q0 -1 2 -1zM152 120q-4 -1 -4.5 -4t-0.5 -6q0 -5 2 -8t5 -4.5t7.5 -2t8.5 -0.5h2h3.5
h2.5h2q2 1 4 4.5t2 5.5q0 9 -5 13t-13 4h-1q-1 0 -3 -0.5t-4.5 -0.5t-4.5 -0.5t-3 -0.5zM71 66l0.5 -1t0.5 -2q1 0 1.5 -1l0.5 -1h27l0.5 1.5t0.5 2.5v0v1v0q0 1 -0.5 3t-1 4.5l-1 5t-0.5 3.5q-2 3 -5 3h-7q-9 0 -12.5 -4t-3.5 -15zM132 74q0 3 4 3l0.5 -0.5l0.5 -0.5
q2 -1 5.5 -4.5l7.5 -7.5l7.5 -7.5t4.5 -5.5q2 -1 2.5 -2.5t0.5 -2t0.5 -0.5h2.5h1h1q7 5 14 12t13 14q1 0 2.5 0.5t2.5 0.5q3 0 4 -2.5t1 -4.5v-0.5v-0.5q-7 -9 -16.5 -16t-19.5 -11v-27q-2 0 -4.5 1t-2.5 4v22l-22 21q0 4 -1.5 5.5t-3.5 2.5t-3.5 2.5t-1.5 4.5zM64 29
q0 3 1.5 4t4 1h4.5h3h6.5t9.5 -0.5t9.5 -0.5h6.5q3 0 5 -1.5t2 -4.5t-2.5 -3.5t-4.5 -0.5h-10.5t-15 1t-13.5 2t-6 3z" />
</svg>
