<?xml version="1.0" standalone="no"?>
<!DOCTYPE svg PUBLIC "-//W3C//DTD SVG 1.1//EN" "http://www.w3.org/Graphics/SVG/1.1/DTD/svg11.dtd" >
<svg xmlns="http://www.w3.org/2000/svg" xmlns:xlink="http://www.w3.org/1999/xlink" version="1.1" viewBox="-10 0 266 256">
   <path fill="currentColor"
d="M108 125v123q0 1 1.5 1.5t2.5 0.5q2 0 3 -0.5t1 -3.5v-68q0 -1 1.5 -1.5l1.5 -0.5q2 0 3.5 0.5t3.5 1t3 1.5t1 3v57q0 1 1.5 1.5l1.5 0.5q2 0 3 -1.5t1.5 -3t0.5 -3.5v-4q0 -11 -1 -22t-1 -22v-2q0 -2 0.5 -4t1.5 -2h8l1 3l0.5 5.5t1 13.5l1 16t1.5 14v0v1q0 1 -0.5 2
t-0.5 2.5t-0.5 3l-0.5 1.5v1v1q1 3 2 5t4 2q2 0 2.5 -2.5t0.5 -5.5q0 -14 -1.5 -28.5t-1.5 -28.5v-6q3 -2 5 -2h4h4t3 2v22q0 1 0.5 3t0.5 4t0.5 4.5l0.5 2.5q0 1 -0.5 4.5t-0.5 7.5t-0.5 7.5t-0.5 4.5v2q0 3 1.5 4t3.5 1h1.5t1.5 -2v-65q0 -2 3 -2h3h2q3 0 3 2v60v2t0.5 3
t1.5 3t2 1h1l1.5 -0.5t1.5 -1.5v-8q0 -38 -1 -75.5t-1 -75.5h-5q0 8 -0.5 15t-1.5 15q-1 2 -2.5 2.5t-3.5 0.5q-4 0 -6.5 -1.5t-2.5 -6.5t1 -10t1 -11q0 -2 -1 -3t-3 -1h-2t-2 2v28l-2 3h-1h-2q-2 0 -4.5 -0.5t-4.5 -2.5v-5v-5v-8v-8t0.5 -8t0.5 -9q1 -1 2 -1.5l1 -0.5
q2 -1 5 -1.5t7 -1.5t7.5 -1.5t4.5 -1.5v0v-1q0 -1 -1 -2.5t-2 -1.5h-10h-9t-8 0.5t-8.5 0.5t-10.5 1l-1.5 0.5t-1.5 1.5v0v1q0 4 2 5t5 1h6t4 2v4v4v7.5t-0.5 11.5t-0.5 11.5v7.5q-1 2 -2 2h-2q-3 0 -5 -1.5t-2 -5.5v-27q-1 0 -2.5 0.5t-2.5 0.5l-1 0.5l-1 0.5v32h-14v-30
l-1 -1.5t-2 -1.5h-0.5h-0.5h-0.5h-0.5l-1.5 1.5l-1.5 1.5v4v4v7v6t0.5 6t1.5 8zM55 180l-1.5 0.5t-1.5 1.5v48q0 5 3.5 7.5t8 3.5t9 1h6.5q3 0 6 -1t5.5 -3t4.5 -5t2 -6v-45l-1 -1.5t-1 -2.5h-1q-3 0 -3 3v6q0 4 -1 6.5t-4 2.5q-4 0 -5.5 -2t-1.5 -5v-6.5v-5.5v-12
q3 -2 5 -3t3.5 -2t3 -2.5t4.5 -5.5v-4.5t0.5 -7l1 -7t0.5 -5.5v-5q0 -1 -0.5 -4t-2.5 -3h-1q0 1 -0.5 1.5l-0.5 0.5q0 1 -0.5 4t-0.5 6.5t-0.5 6.5t-0.5 4v4.5t-0.5 4.5t-2 3.5t-4.5 1.5h-2t-2 -2v-43q0 -4 2.5 -5.5t5.5 -3t5 -3.5t2 -6v-24q0 -2 2 -2.5t4 -1.5t4 -1.5
t2 -2.5v-1l-1.5 -1.5l-1.5 -1.5h-3h-4h-4h-3q-10 0 -20.5 1t-20.5 1q-1 0 -1.5 1.5l-0.5 1.5q0 3 1.5 4t4 1t4 0.5t1.5 3.5v24q0 3 2 5t5 3t5 2t2 2v48q0 1 -1 1.5t-2 0.5h-1q-2 0 -3.5 -1.5t-2.5 -3.5t-1.5 -4.5t-1.5 -3.5v-5t-0.5 -6.5t-0.5 -7v-4.5l-1.5 -0.5t-1.5 -1.5
h-1q-1 0 -1.5 1.5l-1 3l-1 3l-0.5 1.5v1q0 13 3 25q2 5 5 7.5t6 3.5t5.5 1.5t2.5 1.5v26q0 3 -2 4t-4 1q-4 0 -4.5 -2.5t-1 -5.5t-1 -5.5t-3.5 -2.5zM60 204h30v20q0 1 -1.5 3.5t-2.5 2.5h-19q-1 0 -2.5 -0.5t-2.5 -1.5t-1.5 -2.5l-0.5 -1.5v-20zM122 128h2t2.5 0.5t1.5 1.5
v36q0 1 -0.5 1.5l-0.5 0.5h-2h-3q-2 0 -5 -0.5t-3 -4.5v-30q0 -4 3 -4.5t5 -0.5zM140 128q2 0 3 0.5l3 1.5q1 6 1.5 11.5t0.5 11.5v3t-0.5 4t-0.5 4v2q-1 2 -2 2h-3h-3.5t-2.5 -2v-36q0 -2 2 -2h2zM155 165v-9v-7.5t-0.5 -7t-0.5 -8.5t3.5 -5.5t6.5 -0.5q2 0 4 1t2 4v34h-13
zM183 127q3 0 5 3t2 7q0 3 0.5 7.5t0 9t-2.5 8t-6 3.5h-2t-2 -2v-35q0 -1 2 -1h3zM63 78v-2.5t0.5 -3.5t1 -3.5t0.5 -2.5q6 -3 13 -3h2h2.5t2.5 1t1 2v21q0 2 -3.5 3.5t-5.5 1.5q-6 0 -10 -3t-4 -11zM155 11q-2 1 -7 6t-10.5 12t-11.5 15t-11 15t-8 12.5t-3 6.5h4l1.5 -1
t3 -3l3 -4t1.5 -4q2 -1 5 -5t7 -8l7.5 -7.5t4.5 -5t2.5 -4.5t3 -5.5t4 -4.5t4.5 -2h2q6 6 10.5 10t8.5 9l8 10t10 11q2 3 4 5.5t6 2.5q3 0 4 -2t1 -5v-1v-1q-1 -1 -3 -3.5l-4 -5t-4 -4.5l-3 -3l-8 -8t-12.5 -12t-12.5 -11t-7 -5zM55 32q0 2 1 2.5t2.5 0.5h3.5h3h6.5t11.5 -1
t11 -1.5t6 -2.5l-3 -4h-1.5h-3.5h-3h-3h-14.5t-14.5 2q-1 1 -1.5 2t-0.5 2z" />
</svg>
