<?xml version="1.0" standalone="no"?>
<!DOCTYPE svg PUBLIC "-//W3C//DTD SVG 1.1//EN" "http://www.w3.org/Graphics/SVG/1.1/DTD/svg11.dtd" >
<svg xmlns="http://www.w3.org/2000/svg" xmlns:xlink="http://www.w3.org/1999/xlink" version="1.1" viewBox="-10 0 266 256">
   <path fill="currentColor"
d="M124 242q7 2 13 2h12h12h14q9 1 18.5 2.5t18.5 1.5q1 0 3.5 -1.5t2.5 -3.5v-1q0 -1 -1.5 -4t-1.5 -4h-2h-6.5t-9 -0.5l-9 -1t-6.5 -0.5v-4.5v-7.5v-7v-5v-21q0 -11 2 -22q2 -3 5.5 -4.5t7 -2.5t6.5 -2.5t6 -5.5q2 -4 3.5 -6t2 -3.5t0.5 -3.5v-6q0 -7 -0.5 -12.5
t-1.5 -13.5q-1 -2 -2.5 -2h-2.5h-1h-1q-1 2 -1 5.5t-0.5 7.5t-0.5 8v5q-1 7 -2 10t-3.5 5t-5.5 3.5l-7 3.5h-35l-2 -2l-3 -3q-1 -2 -2.5 -4t-2.5 -3t-1 -2v-28q0 -1 -1.5 -2t-2.5 -2t-2.5 -1h-2.5q0 11 0.5 21t1.5 21q4 5 8.5 8t9.5 6q2 9 2 17.5v18.5v5v6.5v5.5v3v4t-0.5 6
t-2.5 5.5t-4 2.5h-20q-3 0 -3.5 1t-0.5 3q0 1 0.5 2.5t1.5 1.5zM46 175v3l0.5 1t1 2.5t0.5 2.5v2q1 12 1 22t2.5 17.5t9 11t20.5 3.5q11 0 18 -5t10.5 -13t4.5 -18.5t1 -20.5q0 -5 -3.5 -9t-8.5 -4v24h-17q-1 0 -1.5 -1t-0.5 -2.5v-2.5v-1v-6q0 -5 0.5 -10.5t2 -10t3.5 -5.5
h1.5t3.5 -0.5t3.5 -0.5t2.5 -1q4 -2 7 -5.5t4.5 -8.5t2 -10t0.5 -10q0 -4 -2 -6t-6 -2h-1.5h-1.5v10q0 5 -1 10t-3.5 9t-8.5 4q-1 0 -3 -1.5t-2 -4.5v-1q0 -1 0.5 -6.5t0.5 -11t0.5 -11t0.5 -7.5q1 -6 5 -10q9 -7 11 -11t1.5 -7.5t-1 -6.5t3.5 -7q2 -2 4 -2.5t4.5 -0.5
t4 -1.5t1.5 -4.5v-3t-1 -2h-76q-3 0 -4 1t-1.5 3t-0.5 3.5v3.5h22l1 2t1 3v3v6v6v3q0 3 2 5.5t4.5 4.5l5 4t4.5 4v3v5v4v3q0 3 0.5 8.5t-0.5 10.5t-3 9t-6 4q-6 0 -8.5 -5t-3 -11t0 -12t0.5 -9q0 -1 -1 -1.5t-2 -0.5q-3 0 -4.5 2.5t-2.5 6t-1 7.5v5q0 8 2 13t5 8.5t8 5
t12 2.5q1 1 2.5 4t1.5 4t-1 3.5t-1 3.5q-1 4 -1 9t-1 8.5t-3.5 6t-8.5 2.5h-2t-2 -2q0 -2 0.5 -6t0 -8t-2 -7t-4.5 -3t-5 1.5t-2 3.5zM160 230v-16v-13t0.5 -11.5t1 -11.5t0.5 -15q2 -1 3 -1h4h4q1 6 1 11t0.5 10t0.5 10v11q0 2 0.5 7t0 10t-2.5 9t-7 4q-1 0 -2.5 -1
t-3.5 -3zM59 211v-1l1 -2l1 -2q6 -2 12 -2h13h2h4h4h3q3 0 3.5 1t0.5 3t-1 5l-2 6t-3.5 5t-4.5 2h-27q-2 0 -3 -2t-2 -5t-1 -5v-3zM138 174h-1q-1 0 -1.5 1.5t-0.5 2.5v40l0.5 1t1.5 1h1v0q5 -3 5.5 -8t0.5 -11q0 -2 -0.5 -6.5l-1 -9t-1.5 -8t-3 -3.5zM203 172h-1
q-1 0 -2.5 1.5l-1.5 1.5v37q0 1 1.5 3.5t3.5 2.5q3 0 4.5 -2.5t1.5 -5.5v-30q0 -2 -2.5 -5t-3.5 -3zM169 115q0 5 -1.5 9t-4 7.5t-4 6.5t-1.5 6q4 0 8 -3t7.5 -8t5 -10t1.5 -10v-3.5v-2.5q0 -1 -1 -3t-2.5 -4l-3 -4t-2.5 -3v-2v-2l-1 -1l-1 -1q0 -2 2 -4.5t4 -2.5h36
q0 -9 -8 -9h-1q-7 0 -17 0.5l-20 1t-19 1t-14.5 1l-5.5 0.5l-2 4l4 2h30q1 0 3 4.5t4 10.5t3 12t1 7zM70 64q0 -2 1.5 -4.5t3.5 -2.5h22q2 0 2 1.5v2.5q0 11 -5.5 15.5t-14.5 4.5q-3 0 -5 -1.5t-2.5 -4t-1 -6t-0.5 -5.5zM128 64q0 2 1 2.5t2 0.5q6 0 11 -4.5t8.5 -11
t5.5 -14t2 -12.5v-2.5t-0.5 -3.5t-0.5 -4v-2q-1 -1 -2 -1.5t-2 -0.5q-2 0 -2.5 2t-0.5 4.5v4.5t-1 3q0 5 -3.5 11.5t-7.5 12.5l-7 10.5zM178 20q0 9 1 15.5t4 11.5t7.5 9.5t11.5 8.5h1h2q2 0 3 -0.5t1 -3.5v-2q-3 -5 -7.5 -8.5t-8 -7.5t-6 -8.5t-2.5 -11.5q0 -3 1 -5t1 -5v0
q0 -1 -1.5 -2.5l-1.5 -1.5q0 -1 -1 -1v0q-1 0 -1 1l-1.5 1.5l-2 2t-0.5 3.5v4zM59 19q0 2 0.5 3t3.5 3h8q5 0 9.5 -0.5t9 -0.5t10 -0.5t12.5 -0.5q0 -1 0.5 -2.5l0.5 -1.5v-1q0 -2 -1 -3t-2.5 -1.5l-3 -1t-2.5 -0.5t-3 0.5l-2 0.5h-7.5t-11.5 0.5t-11.5 1t-7.5 0.5
q-1 0 -1.5 1.5t-0.5 2.5z" />
</svg>
