<?xml version="1.0" standalone="no"?>
<!DOCTYPE svg PUBLIC "-//W3C//DTD SVG 1.1//EN" "http://www.w3.org/Graphics/SVG/1.1/DTD/svg11.dtd" >
<svg xmlns="http://www.w3.org/2000/svg" xmlns:xlink="http://www.w3.org/1999/xlink" version="1.1" viewBox="-10 0 266 256">
   <path fill="currentColor"
d="M133 204v11v9.5t0.5 9t0.5 9.5q1 3 2 5t4 2q2 0 2.5 -1.5t1.5 -5.5v0v-1q0 -6 -1.5 -12t-1.5 -13v-2v-2q0 -2 0.5 -8t0.5 -13v-13.5v-7.5q0 -3 0.5 -6t1.5 -6l2 -6t1 -4q2 -4 5 -6.5t6.5 -5t6.5 -5t5 -5.5q1 -2 1 -5v-7.5t1 -6t3 -2.5h27q3 0 3.5 -1.5t0.5 -3.5v-1.5
t-2 -1.5h-26q-2 0 -3.5 -2t-1.5 -4t2 -4.5t5 -2.5h22q2 0 2.5 -1.5t0.5 -2.5q0 -3 -3 -4t-5 -1h-4q-3 0 -10.5 0.5t-16 0.5t-16 0.5t-10.5 0.5q-2 0 -3 2t-1 3t0.5 1.5t1.5 0.5h24q3 0 3.5 3t0.5 5q0 3 -1.5 4.5t-3.5 2t-4 0.5h-5h-4t-6.5 0.5t-6.5 0.5h-4q-1 1 -1 2v2v2
t1 1h31l1 0.5t1 1.5v5v4t-2 4l-18 19q-3 4 -4.5 8.5t-2.5 10t-1.5 10.5t-2.5 10v4v7.5v7.5v4zM185 182q3 0 4.5 5t2.5 12.5t2 16.5t2 16.5t2 12.5t4 5t4.5 -2.5t1.5 -5.5q0 -1 -0.5 -2.5l-0.5 -1.5q0 -3 -1.5 -10.5t-3 -15.5t-3 -15.5t-1.5 -10.5q0 -1 -1 -3.5t-1 -3.5v-1v0
v0q0 -1 1 -1.5l1 -0.5q0 -1 0.5 -2t1.5 -2t1.5 -2l0.5 -1q1 0 1.5 -0.5t0.5 -1.5q2 -4 2 -8v-9q0 -4 -2.5 -8.5t-6.5 -8t-9 -5.5t-9 -2q0 5 3 8t6.5 5.5t6.5 6t3 9.5q0 2 -1 5.5t-4 3.5h-2q-5 -10 -13 -14t-19 -4q0 5 4.5 6.5t9.5 3.5t9.5 5t4.5 10q0 3 -1 3.5t-4 1.5h-6
t-8.5 0.5t-8.5 1t-5 0.5l-2 1q2 3 4.5 4t6.5 1q5 0 10.5 -1t11.5 -1zM58 202v9t1.5 11.5t4.5 9.5t9 4h27q6 0 9 -6t4.5 -14.5t1.5 -16.5v-12v-11q0 -2 -1.5 -3.5t-3.5 -1.5l-1.5 0.5l-1.5 0.5q0 1 -0.5 3.5t-0.5 4.5t-0.5 4.5l-0.5 2.5q0 4 -0.5 5t-2.5 1h-2
q-1 -1 -4.5 -1.5l-3.5 -0.5v-40h2.5t3 0.5t3 0.5h1.5q6 -2 8.5 -5t3.5 -7.5t1 -9.5v-10v-12q0 -2 -1.5 -3.5t-3.5 -1.5l-0.5 0.5t-0.5 1.5v23q-3 3 -3 6t-0.5 5t-2.5 3.5t-6 1.5q-2 0 -3.5 -2t-1.5 -3v-44q0 -3 2.5 -4t5.5 -2t5.5 -4t3.5 -9v-5t0.5 -8t0.5 -7.5v-5.5h13v-8
h-17h-19t-19 0.5t-18 1.5q-2 1 -2.5 2t-0.5 3v2.5t1 1.5h17q1 0 1.5 2t1 5.5t0.5 6.5v4v3t0.5 4.5l1 5l0.5 2.5q0 1 2 1.5l4 1t4 1.5t3 1l0.5 1l0.5 1v47l-1 4h-2h-2t-3.5 -0.5t-5 -1.5t-4.5 -2.5t-2 -2.5v-35q-4 0 -6.5 2t-2.5 7q0 8 0.5 16.5t3 14.5t8 9t16.5 3l1 3v32
l-1 2h-2.5h-2.5h-6t-6 -2q0 -1 0.5 -3t0.5 -4q0 -3 -0.5 -5t-0.5 -3q0 -2 -0.5 -3t-2.5 -1q-1 0 -2 0.5t-1 1.5q-1 10 -1.5 16t-0.5 14zM66 206v-3v-2l5 -2h31l1.5 2.5t1.5 4.5v1v1v3t-0.5 4.5t-0.5 4.5v3q-3 4 -8 4.5t-9 0.5q-5 0 -9.5 -1t-7 -3.5t-3.5 -7t-1 -10.5zM76 62
v-8q1 -2 3 -2.5t5 -1t6 0t5 0.5h5q2 1 2 2.5v2.5v3q0 3 -0.5 7.5t-1 7.5t-0.5 4l-3 3h-18q-1 0 -1.5 -2.5t-1 -6t-0.5 -6.5v-4zM133 32q0 2 1 7.5t3.5 12t5.5 11.5t6 5q2 0 3 -1.5t1 -3.5q0 -4 -2 -7.5t-4.5 -7t-4 -7t-1.5 -7.5q0 -3 1 -5q1 0 2.5 -1t3.5 -1.5t3.5 -1
t2.5 -0.5h1h1q0 1 1 1.5t2 0.5q0 8 2.5 17t5.5 15q2 4 5 4q2 0 2.5 -1t0.5 -4t-1 -6.5t-3 -7t-3 -7t-1 -7.5t3 -5t7 -1q3 0 5.5 4t4 10t3 11.5t3.5 8.5l1.5 1.5l2.5 2.5l2 2l2 2h1h1q3 0 4.5 -0.5t1.5 -3.5t-2 -5t-5 -3l-12 -23q-1 -1 -1 -2v-1q0 -4 3.5 -4.5t6.5 -0.5
q4 0 7 -0.5t3 -4.5q0 -3 -2.5 -4.5t-5.5 -1.5h-6.5h-4.5v0q-1 0 -3 1l-2 1q-1 0 -4.5 0.5t-6.5 1l-6 1t-4 0.5q-4 1 -9 1q-6 0 -10.5 1t-8 4t-3.5 9zM65 15q-2 1 -2.5 3.5t-0.5 3.5h54q0 -3 -1.5 -4.5t-3.5 -2.5l-4 -2t-3 -3q-5 2 -10 2.5l-10 1t-9.5 0.5t-9.5 1z" />
</svg>
