<?xml version="1.0" standalone="no"?>
<!DOCTYPE svg PUBLIC "-//W3C//DTD SVG 1.1//EN" "http://www.w3.org/Graphics/SVG/1.1/DTD/svg11.dtd" >
<svg xmlns="http://www.w3.org/2000/svg" xmlns:xlink="http://www.w3.org/1999/xlink" version="1.1" viewBox="-10 0 266 256">
   <path fill="currentColor"
d="M155 176h1q2 1 3.5 1.5l1.5 0.5v68q0 1 2 3t3 2t2 -0.5t2 -1.5l1 -1l1 -1v-69h38l0.5 -2t1.5 -3v-1q0 -1 -2.5 -3t-4.5 -2h-35v-22l3 -4h3.5t5 -0.5t5 -0.5h3.5q3 -1 5.5 -2.5t2.5 -4.5q1 -7 1.5 -13t0.5 -13v-5.5t-0.5 -6.5t-2 -5.5t-4.5 -3.5q-1 1 -1.5 4t-0.5 5.5
t-1 4.5t-3 2h-17v-2.5v-5.5v-5v-3q0 -5 1.5 -7.5t3.5 -4t5 -2.5t7 -3q-1 -2 -1 -5.5t0.5 -7t1.5 -6.5t4 -5q6 0 11 -0.5t9 -6.5l-2 -2h-20l-3 -3v-20l-0.5 -0.5t-1.5 -0.5q-1 -1 -2 -1.5l-1 -0.5h-1h-1q-1 0 -2 1.5l-1 1.5v16q-1 1 -1.5 3.5t-2.5 2.5h-7h-8q-1 0 -2.5 -0.5
t-1.5 -1.5v-18q0 -1 -2.5 -1.5l-2.5 -0.5q-2 0 -3 0.5t-1 3.5q0 1 -0.5 3t-0.5 5t0.5 5.5l0.5 2.5q-2 2 -5 2t-5.5 0.5t-4.5 1t-2 4.5q0 1 0.5 1.5t2.5 1.5h2.5h3.5h3.5h2.5l2 1v3.5t0.5 5.5t0.5 5v3t1 2t1 2l2 1t4 3t4 3.5t2 2.5v28h-17q-3 0 -3.5 -2.5t-0.5 -5.5t-0.5 -6
t-2.5 -3h-2q0 1 -1 2l-2 2v10q0 8 0.5 14t1.5 14q0 4 4.5 6.5t9.5 3.5t9 2t4 2v20q0 1 -2 3.5t-3 2.5h-27q-2 0 -3 2.5t-1 3.5q0 3 2 3.5t4 0.5q6 0 12.5 -1.5t12.5 -1.5zM54 183v16t1.5 17t6 14t14.5 6h9q4 0 8.5 -1t8 -2.5t6.5 -5.5l1.5 -1.5l1.5 -1.5q0 -2 0.5 -5.5
t0.5 -8t0.5 -8.5t0.5 -5v-2v-1q0 -2 -0.5 -5t-0.5 -6.5t-0.5 -6.5t-0.5 -5h-3h-3t-2 2v8t-2 9h-1.5h-2.5h-1h-3t-2.5 -0.5l-1.5 -0.5v-32q0 -1 1 -2t1 -2q1 -1 4.5 -2t7.5 -1.5t7 -2t3 -4.5l2 -37q0 -2 -2.5 -3.5t-4.5 -1.5q-3 0 -3.5 3t-0.5 7v10t-0.5 9.5t-3 7.5t-7.5 3
h-2q-2 -8 -2 -15.5v-16.5v-3v-5v-5v-3l2.5 -2.5l3 -3l3 -3t1.5 -2.5q2 -1 4 -3.5l2 -2.5v-19q0 -2 2.5 -2t5 -0.5l5 -1t2.5 -3.5v-0.5v-0.5l-3 -3l-2 -2h-3q-1 0 -3 -0.5t-3 -0.5h-2h-3t-3.5 0.5t-3.5 0.5h-1q-3 0 -9.5 0.5t-14 1t-14.5 1t-9 0.5q-3 1 -3.5 2.5t-0.5 3.5
l0.5 2.5t1.5 2.5h19v2t0.5 4.5t0.5 4.5v3q1 2 1.5 5t0.5 4q1 2 3 3t4.5 2t4 2t1.5 3v45q0 3 -1.5 4.5t-4.5 1.5q-2 0 -3.5 -1t-3.5 -5q-3 -15 -2 -30q-1 -2 -3 -3.5t-4 -1.5q-3 0 -4 2t-1 4v4q1 2 1.5 6t1 9t1 9.5t0.5 5.5q4 5 9.5 7.5t10.5 4.5q1 0 2 1l1 1v30q0 5 -3 6
t-7 1h-1h-2q-1 -3 -0.5 -7t0 -8.5t-2 -7.5t-5.5 -3v1q-1 0 -2 1l-2 2v2v4v4v3zM66 207v-2v-2t0.5 -2t1.5 -1q7 -1 12.5 -1.5t12.5 -0.5h6l4 4v13q0 3 -3 5t-7 3t-8 1h-5h-2h-2.5h-2.5h-2q-2 -1 -3 -3t-1.5 -4.5t-0.5 -5.5v-4zM141 120q0 -9 10 -9q3 0 5 0.5t4 2.5v3.5v3.5v4
v3q0 1 -1 2l-1 1h-12q-1 0 -2 -1t-1.5 -3l-1 -4t-0.5 -3zM168 125q0 -9 3 -11.5t11 -2.5q3 0 5.5 1t2.5 5q0 6 -4.5 10t-10.5 4q-3 0 -5 -1.5t-2 -4.5zM72 63q0 -2 0.5 -3.5t3.5 -2.5h2.5t4 -0.5t4.5 -0.5h2l1 -0.5l1 -0.5q3 0 4 3t1 5q0 8 -3.5 11t-10.5 3h-6
q-2 0 -2.5 -1.5t-1 -4t-0.5 -4.5v-4zM153 50q0 -3 1.5 -4.5t3.5 -2t4 -0.5h4t4.5 0.5t4.5 0.5q2 1 2.5 4t0.5 5q0 1 -0.5 2.5t-1 3.5t-1.5 3.5t-2 1.5h-13q-2 0 -3 -2t-2 -4.5t-1.5 -4.5t-0.5 -3zM59 25q0 1 0.5 2t1.5 2h11h9t8 -0.5l8 -1t9 -0.5q3 -1 4 -2t1 -4v-2.5
t-1 -1.5h-42q-4 0 -6 2.5t-3 5.5z" />
</svg>
