<?xml version="1.0" standalone="no"?>
<!DOCTYPE svg PUBLIC "-//W3C//DTD SVG 1.1//EN" "http://www.w3.org/Graphics/SVG/1.1/DTD/svg11.dtd" >
<svg xmlns="http://www.w3.org/2000/svg" xmlns:xlink="http://www.w3.org/1999/xlink" version="1.1" viewBox="-10 0 266 256">
   <path fill="currentColor"
d="M184 249q1 0 1.5 0.5t0.5 1.5h1q3 0 4.5 -2t1.5 -5v-19q0 -28 -2.5 -55.5t-2.5 -54.5v-1h5t8 -0.5t7.5 -1t5.5 -0.5t5 -1t3 -4q0 -1 -0.5 -2t-1.5 -1l-2.5 -0.5t-3.5 -0.5q-5 0 -9.5 1t-9.5 1h-6l-0.5 -0.5l-0.5 -0.5v-87q0 -1 -2 -1.5t-3 -0.5h-2t-2 2v18v18
q0 3 0.5 9.5t0.5 13.5t0.5 13.5t0.5 8.5q0 6 -2.5 8t-6.5 2.5t-8.5 0.5h-7.5q-4 2 -4 5q0 2 0.5 3t3.5 0q5 0 11.5 -1.5t11.5 -1.5h2q3 21 3 43.5v43.5q1 2 1 9v15v14q0 7 -1 10zM49 223q2 4 5.5 7.5t7.5 3.5h26q2 0 4 -2.5t3 -3.5q0 -6 0.5 -10.5l1 -9t0.5 -8.5v-10v-12
l-1.5 -2.5t-2.5 -2.5t-2.5 0.5t-1.5 1.5v17q0 1 -2.5 1.5l-2.5 0.5q-3 0 -6.5 -2t-3.5 -5v-25q0 -1 2.5 -2t5.5 -2t5.5 -2.5t3.5 -1.5q2 -2 3 -5t1 -6v-6.5v-5.5v-6.5t-0.5 -8.5t-2 -7t-5.5 -3v7v10t-0.5 10t-0.5 7q0 3 -1.5 6.5t-4.5 3.5q-2 0 -3 -0.5t-3 -2.5v-4.5v-4.5
v-9.5t0.5 -9t1 -9.5t0.5 -12q1 0 3.5 -1t5 -1.5t4.5 -2t2 -3.5v-26l1.5 -0.5t2.5 -1.5l2 -0.5t3.5 -1.5l3 -2t1.5 -2v-0.5v-0.5l-1 -0.5t-1 -1.5h-2.5h-3.5q-7 0 -15 0.5t-16 1.5l-16 2t-14 1q-2 1 -2 2v2v2t2 1h15v27l15 6q1 1 1.5 2.5t0.5 2.5q0 12 -1 23t-1 22
q-1 3 -2 3.5t-3 0.5q-3 0 -6 -3.5t-3 -7.5v-25q0 -3 -2 -3.5t-4 -0.5q-1 0 -2.5 0.5t-1.5 3.5v9q0 8 1 14t3 11t7 7.5t13 3.5l2 3v26q0 3 -1.5 3.5t-3.5 0.5q-5 0 -6.5 -3.5t-1.5 -7.5t-1.5 -7.5t-6.5 -3.5q0 13 0.5 25.5t1.5 25.5zM105 172q0 18 1.5 29t7 17.5t16 8.5
t28.5 2q0 -4 -3.5 -5t-8 -2t-8 -2.5t-3.5 -5.5v-20q0 -3 1.5 -4t4 -2.5t4.5 -2.5t2 -4q3 -6 3.5 -12t0.5 -14q0 -2 -0.5 -4.5t-1 -4.5t-2 -4t-4.5 -2v38l-1.5 1t-2.5 1h-1h-1l-1 -1l-1 -1q-1 -10 -2 -20.5t-1 -20.5q0 -2 1.5 -3.5t3.5 -2t3.5 -1.5t1.5 -4v-19h-5q-1 8 -4 13
t-7.5 7.5t-10.5 4t-13 3.5v5q4 0 8.5 -1t9.5 -1q2 0 3.5 3.5t2.5 9t1 12v12.5v12v8v4v5v5.5v3.5q0 2 -1 2.5t-2 0.5q-5 0 -6.5 -3t-2.5 -7q0 -3 -0.5 -9.5t-1 -13.5t-1 -13.5t-0.5 -8.5q0 -1 -0.5 -4t-1.5 -3h-1q-2 0 -3 2t-1.5 5t0 6t0.5 5zM57 208q0 -4 2 -5.5t5 -2t6 0
t6 0.5h10q2 1 3 2.5t1 3.5q0 9 -4.5 13.5t-12.5 4.5t-12 -4t-4 -13zM203 138q0 21 1.5 42.5t3.5 42.5h4h3q1 0 2 -1v-7q0 -11 -2.5 -21t-2.5 -21q0 -2 -0.5 -8t-0.5 -13q0 -6 0.5 -12.5t0.5 -8.5l-4 -3h-1q-1 0 -2 1t-1.5 2.5t-0.5 3.5v3zM164 161v55l0.5 1t1.5 1h1h1
q0 -1 1.5 -2t1.5 -2v-5v-8.5v-8.5v-5v-26.5t-2 -25.5q0 -1 -1.5 -2t-1.5 -2h-1h-1q0 1 -0.5 2t-0.5 2v9v9t1 8zM134 72q1 8 -0.5 12.5t-5 7.5t-8 4.5t-8.5 3.5t-6.5 4.5t-2.5 6.5q4 0 11 -2t13 -5.5t10.5 -8.5t4.5 -11v-4v-4.5t-1.5 -4t-3.5 -1.5q-1 0 -2 0.5t-1 1.5z
M161 55v41q3 0 4.5 -2.5t2.5 -5.5v-4v-6v-6v-4v-5v-7v-5v-3q0 -1 -0.5 -3t-0.5 -4t-1.5 -4t-2.5 -3q-1 0 -2.5 0.5t-1.5 1.5v6v6.5t2 6.5zM59 72v-1v-2t0.5 -2t1.5 -2q5 -1 8.5 -1h8.5q4 0 4.5 1t0.5 4q0 4 -0.5 7t-1.5 6.5t-3.5 5.5t-6.5 2t-6.5 -2t-3.5 -4t-1.5 -5.5
t-0.5 -6.5zM208 32q-2 0 -3.5 2.5t-1.5 5.5v44q0 3 1 3.5t3 0.5v0h1q1 -1 1.5 -2.5t1.5 -3t1.5 -3t1.5 -2.5v-2v-3q-1 -2 -1 -7.5t-0.5 -11.5t-0.5 -11.5v-7.5q-1 -1 -2 -1.5t-2 -0.5zM127 46q0 5 -2.5 8.5t-6 7t-6 7t-2.5 7.5h3l2 -1.5t4 -3.5l4 -4t4 -3l5 -5t3.5 -4
t1.5 -5v-7q0 -1 -1.5 -3l-1.5 -2q-1 -1 -3 -2t-4 -2.5t-4 -2.5t-3 -2q-2 -2 -3.5 -4.5l-3 -5t-3.5 -4.5t-5 -3l-1.5 -0.5l-1.5 -0.5q0 7 4 12t8.5 9t8.5 7.5t4 6.5zM44 35q0 2 1.5 2.5t3.5 0.5h3q3 -1 8.5 -1t12 -1t12.5 -1t8 -1q2 0 2 -1.5v-2.5q0 -3 -1.5 -4t-4.5 -1
q-1 0 -1 1h-1t-2.5 0.5t-2 0.5h-1.5q-2 1 -7 1.5t-10.5 1t-10.5 1t-7 0.5q-1 0 -1.5 1.5l-0.5 1.5v1z" />
</svg>
