<?xml version="1.0" standalone="no"?>
<!DOCTYPE svg PUBLIC "-//W3C//DTD SVG 1.1//EN" "http://www.w3.org/Graphics/SVG/1.1/DTD/svg11.dtd" >
<svg xmlns="http://www.w3.org/2000/svg" xmlns:xlink="http://www.w3.org/1999/xlink" version="1.1" viewBox="-10 0 266 256">
   <path fill="currentColor"
d="M56 237q2 7 8.5 10.5t12.5 3.5q13 0 20 -2.5t10.5 -8.5t3.5 -14.5v-21.5v-17q0 -2 -1.5 -2h-2.5h-3q0 9 -3 13t-11 4q-3 0 -4.5 -3.5t-1.5 -6.5v-2v-4.5v-5.5v-4v-3v-5.5v-4.5v-3q3 -6 7 -6.5t8.5 -2t7.5 -6.5t3 -19v-3v-4t-0.5 -3.5t-0.5 -2.5t-1 -3.5t-3 -2.5h-1
l-1.5 1l-1.5 1v27q0 2 -1 4t-3.5 3t-4.5 2t-3 1h-3t-2 -2v-47l1.5 -1t2.5 -2q5 -4 7 -6.5t3 -5t1.5 -6l1.5 -10.5q0 -3 2 -4l4 -2t4 -1.5t2 -3.5t-1 -3.5t-3 -0.5q-17 0 -34 1t-35 1l-0.5 0.5l-1.5 1.5q0 1 -0.5 2t-0.5 2t1.5 2.5l1.5 1.5h18l1 2.5t1 4.5v3v4v5v2q0 4 2.5 5
t5.5 2t5.5 2.5t2.5 4.5v3q0 5 -0.5 12.5t-1 14t-0.5 11.5v5l-2 2l-3.5 -0.5t-5.5 -1.5q-3 -1 -4 -4t-1.5 -7t-0.5 -8.5t-0.5 -7.5t-1.5 -5.5t-4 -2.5h-2t-2 2v5v4q0 11 0.5 17.5t3.5 10t8.5 5t16.5 3.5q1 2 1.5 2.5t0.5 2.5v3q-1 2 -1.5 7.5t-1 11.5t-1 11.5t-0.5 7.5
q-1 2 -2 2h-3q-3 0 -5 -3t-2.5 -6.5t-1.5 -7t-5 -3.5t-4 6v1v1.5t0.5 3.5t0.5 4v2q1 2 1.5 7t1 10.5t1 10.5t0.5 7zM123 245q0 2 1 2.5t2.5 1t3.5 0.5h2q9 0 17 -1t16 -1q11 0 22 1t22 1q2 0 5.5 -1t3.5 -4v-1q-1 -1 -2.5 -3l-1.5 -2h-32v-2.5t-0.5 -6t-1 -7.5t-0.5 -6v-20
v-19q0 -3 3.5 -4.5t8 -3t8.5 -5t4 -11.5q0 -3 -1.5 -6t-4.5 -3h-1q-3 9 -6 13.5t-7.5 7t-10.5 3t-15 0.5h-3.5h-5.5t-5.5 -1t-3.5 -2q-3 -1 -4.5 -3.5l-3 -5t-4 -4.5t-5.5 -2q0 12 6.5 18.5t17.5 8.5l1 6v46q0 1 -0.5 4t-0.5 4q-1 1 -1.5 2l-0.5 1h-20q-1 0 -1.5 2t-0.5 3z
M63 221q0 -4 2 -6t5 -3t6.5 -1.5t6.5 -0.5h3.5h5.5h6h4v21q0 4 -2.5 5.5t-6 2t-6.5 0.5h-5q-9 0 -14 -4t-5 -14zM157 206v-21v-2t0.5 -2.5t0.5 -2.5t1 -1l1.5 -0.5t2.5 -0.5q4 0 5.5 1.5t3.5 5.5v8t0.5 12.5t0.5 12v7.5q0 1 0.5 1.5t0.5 1.5q0 7 -2 9t-8 2h-2.5h-2.5
q-1 -3 -1.5 -7.5t-0.5 -8.5v-8v-7zM131 200v7v6t0.5 6.5t1.5 7.5q0 1 1 1h1q3 0 4 -3t1 -6.5v-7v-4.5v-12l-2 -6t-4 -3q-1 0 -2 2t-1.5 4t0 4.5t0.5 3.5zM198 185h-2t-1 2v31q0 3 1 3.5t3 0.5q4 0 4.5 -4t0.5 -7q0 -6 -0.5 -11.5t-1.5 -12.5q-1 -2 -2 -2h-2zM152 138
q1 2 1.5 2h2.5h1.5t1.5 -2v-4.5t0.5 -7.5t1 -7.5t0.5 -5.5q0 -1 0.5 -4t1.5 -4h1q4 0 6 2.5t3.5 5.5t3 7t3.5 7t4 5t5 2q4 0 4 -3q0 -5 -3.5 -10t-7.5 -10t-7.5 -10.5t-3.5 -12.5q0 -4 2.5 -6.5t5.5 -4.5t5.5 -5t2.5 -8q-3 0 -5 1.5t-4.5 3t-4.5 3t-4 1.5q-3 0 -4 -2t-2 -5
t-1.5 -6t-0.5 -5q0 -5 2.5 -6.5t6 -2t6.5 -1t4 -4.5l1 -2t1.5 -4.5l1 -5t0.5 -3.5v-1q0 -2 -1.5 -3.5t-3.5 -1.5q-4 0 -5 3t-1.5 6.5t-2 7t-6.5 3.5q-2 0 -3.5 -0.5t-1.5 -4.5q0 -1 -0.5 -4.5t-0.5 -7t-0.5 -7t-0.5 -4.5h-5q0 11 0.5 20t1.5 17.5t3 17.5t4 19v2
q0 5 -1.5 10.5t-3 10.5l-3 10t-1.5 10v9zM204 134q0 1 2 3.5t3 2.5l1.5 -0.5t1.5 -1.5q1 0 1.5 -0.5t0.5 -1.5q-7 -28 -8.5 -58.5t-0.5 -59.5q0 -2 -1 -2h-2q-2 0 -3 0.5t-2 3.5q0 1 -0.5 4t-0.5 4q0 27 3 53.5t5 52.5zM125 132q0 2 0.5 3t3.5 1l0.5 -0.5l1.5 -1.5
q3 -6 4.5 -14.5t2 -17t0.5 -17v-15.5v-1.5v-2.5q0 -2 -0.5 -7.5t-0.5 -11.5t-0.5 -11.5t-0.5 -7.5q0 -1 -1.5 -2.5l-1.5 -1.5h-1h-1q-1 0 -2.5 1.5t-1.5 2.5v1v1q0 1 1 4.5t1 4.5v5v8v7v6q0 17 -2 33.5t-2 33.5zM67 68q0 -2 0.5 -3t2.5 -2q1 0 3.5 -1t5 -1.5l5 -1l2.5 -0.5
h2q1 0 2 1t1.5 2.5l1 3t0.5 2.5v1v5.5t-1 4.5t-2.5 3.5t-3.5 1.5h-9t-6 -2t-3 -5t-1 -9zM56 23v2.5t2 2.5h10h8q3 0 6.5 -0.5t7.5 -0.5t9 -1q1 -1 1.5 -2t0.5 -2q0 -2 -0.5 -3t-3.5 -1h-37q-3 0 -3.5 1.5t-0.5 3.5z" />
</svg>
