<?xml version="1.0" standalone="no"?>
<!DOCTYPE svg PUBLIC "-//W3C//DTD SVG 1.1//EN" "http://www.w3.org/Graphics/SVG/1.1/DTD/svg11.dtd" >
<svg xmlns="http://www.w3.org/2000/svg" xmlns:xlink="http://www.w3.org/1999/xlink" version="1.1" viewBox="-10 0 266 256">
   <path fill="currentColor"
d="M150 201q0 11 -2.5 21.5t-4.5 21.5q-1 1 -1 5v5q6 0 9.5 -5.5t4.5 -14.5t1.5 -19t1.5 -19t4 -15t9 -6q5 0 9.5 2.5t5.5 6.5l11 62q0 3 1 3.5t3 0.5q5 0 5 -5q0 -6 -1.5 -12.5t-3 -12.5t-3 -12.5t-1.5 -13.5q0 -1 0.5 -2.5t2.5 -1.5h1q3 1 7.5 3t8.5 2q3 0 3.5 -1t0.5 -3
v-2.5t-2 -2.5q-1 0 -4.5 -1.5l-7 -3t-6.5 -2.5t-4 -2l-5 -2.5t-6 -2.5t-5 -2.5l-2 -1.5v-5l25 -6q2 0 3.5 -2.5t2.5 -5.5t1.5 -6t0.5 -4q0 -5 -2.5 -7.5t-6.5 -3.5t-8 -1.5t-8 -0.5t-6.5 -1.5t-2.5 -4.5q0 -2 0.5 -3.5t3.5 -2.5q5 0 10 -1t9 -3.5t6.5 -7t2.5 -10.5
q0 -4 -3 -7t-7.5 -4.5t-9.5 -2t-8 -0.5q-2 -1 -2.5 -3.5l-1 -5t-1 -4.5t-3.5 -2h-1h-2q0 1 -0.5 2.5l-1 3t-1 3.5t-1.5 2q0 1 -1 3t-2 3q-4 1 -8.5 2t-8 3t-5.5 5t-2 9q0 8 4.5 10.5t9.5 3.5t9.5 2t4.5 5t-2 5t-4 1.5t-4.5 1t-2.5 2.5l-1 -0.5l-1 -0.5q-8 0 -11.5 5t-3.5 12
t4 9.5t9 3.5t9 2t4 5q0 5 -5.5 8.5t-12 7l-13 7t-8.5 6.5v1q0 2 2 2.5t3 0.5q2 0 4 -1t4 -2.5t3.5 -2.5t3.5 -1h3t1 1v4v4zM52 180q0 4 0.5 10.5t1.5 13t4 12t9 7.5h14q6 0 11.5 -0.5t10 -2t8 -5t4.5 -9.5q0 -1 1 -3l1 -2v-36q0 -2 -2 -2h-3h-3t-3 2v1.5v3.5v3.5v1.5
q-1 3 -4 3h-3q-1 0 -3 -0.5t-3 -0.5q-1 -2 -1.5 -4t-0.5 -5v-5v-4v-2v-4v-4v-2q2 -3 5.5 -4t5.5 -2q7 -3 10 -9t4.5 -13t1 -14t-0.5 -14q-2 0 -5.5 1t-3.5 4l-4 31l-2.5 3t-4.5 4h-1h-1q-1 0 -2 -1t-1.5 -2.5l-1 -3t-0.5 -2.5t-0.5 -3t-0.5 -5v-5v-3v-4.5v-7t1 -7.5t3 -5
q3 -2 6 -3t5 -4t2.5 -7l1 -8t0.5 -7.5t2 -6.5q1 -2 3 -3t4 -1.5t4 -1.5t3 -3q-1 -3 -2 -3.5t-3 -0.5q-9 0 -18.5 1t-19 2.5t-19 2.5t-18.5 2q-3 0 -5.5 2t-2.5 4q0 3 2 3.5t4 0.5q4 0 7.5 -1t7.5 -1t6 3t2.5 7t0.5 8t1 6q2 3 3.5 4.5t3.5 2t3.5 1.5t2.5 3q0 2 0.5 8.5
t0.5 13.5t0.5 13t0.5 8v2.5v2.5q-11 0 -15.5 -3t-6.5 -8.5t-1.5 -13t-0.5 -16.5h-1h-2q-2 0 -3.5 0.5t-2.5 3.5v2v4v4v2q0 11 1 17t4.5 10t9.5 5.5t16 2.5q0 1 0.5 5.5t0.5 9t0.5 8.5t0.5 6v2v3h-17v-15h-3.5t-5.5 1q-1 0 -2 2t-1.5 4.5t-0.5 4.5v4zM66 194v-4q8 -2 16 -3
t17 -1h3h2l2 2v16q0 3 -3 5t-6.5 3.5t-7.5 2t-6 0.5q-10 0 -13.5 -5.5t-3.5 -15.5zM150 152v-14q0 -1 2 -1.5t4.5 -1t5.5 -1t5 -0.5h1h3.5h3.5h3q2 0 6 -0.5t8 0t7 2.5t3 6t-3.5 7t-7.5 3h-41zM152 97q0 -4 3.5 -6.5t8 -3t9.5 -0.5h7h13q2 1 4.5 3t2.5 5q0 4 -4 6.5t-9 3.5
t-10 1.5t-9 0.5q-3 0 -6 -0.5t-5 -1.5t-3.5 -3t-1.5 -5zM73 61q0 -4 1.5 -6.5t4.5 -4.5t6.5 -2.5t6.5 -0.5h1q1 0 2 1t2 1q0 1 0.5 3t0.5 4t0.5 4.5l0.5 2.5v1q0 6 -3 10t-9 4q-8 0 -11 -5.5t-3 -11.5zM137 38v6v8t1.5 7t4.5 3q4 0 4.5 -1.5t0.5 -4.5q0 -4 -1 -9t-1 -10
t3 -8.5t9 -3.5q5 0 6 4t1 9t1.5 9t6.5 4h1l1 -1l1 -1v-20q0 -2 1 -3.5t3 -2.5t4 -1h3q3 0 4.5 2.5t2 6t1 8.5t1.5 8.5t3.5 6t6.5 2.5q3 0 4 -1.5t1 -3.5q0 -3 -1.5 -5t-2.5 -4t-2.5 -4.5t-1.5 -5.5v-3.5t1 -2.5q1 -4 3.5 -4.5t4.5 -1t3.5 -2t1.5 -6.5h-11.5t-14.5 0.5
t-16 1.5t-15.5 3t-13.5 5t-9 7v9zM56 22q0 2 1.5 3t3.5 1h5q2 0 7.5 -0.5t11.5 -1t11.5 -0.5h7.5l4 -2t2 -4t-2 -3.5t-5 -0.5h-10.5t-15.5 0.5t-14.5 2t-6.5 5.5z" />
</svg>
