<?xml version="1.0" standalone="no"?>
<!DOCTYPE svg PUBLIC "-//W3C//DTD SVG 1.1//EN" "http://www.w3.org/Graphics/SVG/1.1/DTD/svg11.dtd" >
<svg xmlns="http://www.w3.org/2000/svg" xmlns:xlink="http://www.w3.org/1999/xlink" version="1.1" viewBox="-10 0 266 256">
   <path fill="currentColor"
d="M152 249l1 0.5l1 0.5h1q2 0 4 -3.5t3 -8.5t1.5 -12t1 -13t0.5 -11t1 -7h7q4 0 7.5 0.5t3.5 6.5l4 40q0 2 2 4.5t5 2.5q2 0 3.5 -3t1.5 -5q0 -5 -1.5 -10l-3 -10t-3 -9.5t-1.5 -10.5q0 -4 3 -4.5l6 -1t5.5 -1t2.5 -4.5q0 -3 -2.5 -4t-4.5 -1q-7 0 -14 1t-14 1h-16
q-5 0 -8 -3t-4.5 -7.5t-2 -9t-0.5 -7.5q0 -2 -0.5 -6t-0.5 -8.5t-0.5 -8.5t-0.5 -5v-7.5v-12.5v-11.5v-7.5q-1 -3 -2.5 -4.5t-4.5 -1.5q-2 0 -2.5 2t-0.5 4q0 23 1.5 45.5t5.5 44.5q1 2 4 3.5l6 3t5 3t3 2.5q0 1 0.5 4.5t0.5 4.5q0 10 -2 19t-2 19v3.5v3.5zM61 211
q0 6 2.5 10.5t6 7t8.5 3.5t10 1h8t8.5 -1.5t8 -3.5t5.5 -5q1 -5 1 -9t0.5 -7.5t0.5 -7.5v-8v-11q0 -5 -1.5 -6t-4.5 -1t-4 1t-1.5 3t-0.5 4v4h-10q-1 0 -2 -3.5t-1.5 -7.5t-0.5 -8.5v-6.5q0 -5 3 -7t7 -3t7.5 -3t4.5 -7q1 -8 1.5 -17t0.5 -18q0 -3 -0.5 -4.5t-4.5 -1.5
q-1 0 -2.5 0.5t-1.5 2.5v29q0 1 -1.5 2.5t-2.5 3.5t-3 3.5t-3 1.5q-2 -1 -3.5 -4t-1.5 -5v-6.5v-9.5v-10v-6v-2t-0.5 -2.5l-1 -3l-0.5 -1.5v-1q0 -3 2.5 -4t5.5 -2l6 -2t3 -5v-1v-4v-3v-2t0.5 -2.5t0.5 -4t0.5 -4.5l0.5 -2q2 -2 4.5 -2t4.5 -0.5t3.5 -1.5t1.5 -4q0 -1 -1 -2
t-3 -2l-3 -0.5t-4 -0.5q-2 0 -5 0.5l-3 0.5h-11.5t-17.5 0.5t-17.5 0.5h-11.5q0 1 -1 3.5t-1 3.5q1 1 2 2.5t2 1.5h18v22q0 3 2 4.5t4 2t4.5 1t3.5 2.5q1 1 1.5 7t1 13.5t1 14.5t0.5 10v6q-1 3 -3 3.5t-4 0.5q-5 0 -8.5 -3.5t-3.5 -8.5v-31q0 -1 -2 -1.5t-4 -0.5t-3 2
t-1.5 5t0 5.5t0.5 3.5v12.5t1 12.5q1 5 5.5 7.5t9.5 4t9 3t4 5.5v3q0 1 -0.5 4.5l-1 7t-0.5 7v4.5l-2 2t-1 2h-1q-4 0 -5 -2t-1.5 -4.5t-1.5 -5t-4 -2.5h-1q-1 0 -2 1t-2 1v6t-0.5 9t-0.5 9.5v6.5l-0.5 2t-0.5 3zM72 203v-3v-3l2 -2h2t5 -0.5t6 -0.5h5h7h7q3 1 3.5 3.5
t0.5 5.5q0 2 -0.5 5.5t-1 6.5t-2.5 5.5t-5 2.5h-20q-4 0 -5.5 -2.5t-2.5 -5.5t-1 -6.5v-5.5zM182 84h-8q-4 0 -8.5 1t-8 3.5t-3.5 7.5v62q0 4 3.5 6.5t8.5 3t10 0.5h7h12q1 0 3 -1t4 -2.5t3.5 -3t1.5 -3.5v-39q0 -1 0.5 -3t0.5 -3v-1v-8.5t-1.5 -8.5t-4.5 -7t-7 -4h-3h-4h-3
h-3zM159 147q0 -3 2 -4.5t5 -2t6 -0.5h4q5 0 9 0.5t10 1.5q2 2 2 5v5v2q0 2 -1 2q0 1 -2.5 2.5t-3.5 1.5h-23q-2 0 -3.5 -1.5t-2.5 -4t-1.5 -4.5t-0.5 -3zM159 125v-3v-2l3 -1h31q4 0 4.5 3.5t0.5 5.5v3t-2 3h-35q-1 0 -1.5 -1.5t-0.5 -2.5v-2v-3zM182 91q7 0 11 3.5t4 10.5
v2q0 1 -1 1l-3 2h-34q0 -6 1.5 -9.5t5 -5.5t7.5 -3t9 -1zM77 63v-8q1 -1 2.5 -2t2.5 -1h19l1 0.5t1 1.5v4q0 3 -0.5 6.5t-1.5 6.5t-3.5 5t-5.5 2q-9 0 -12 -3t-3 -12zM140 9h-2l-0.5 1l-0.5 1v43q0 4 3.5 7t8.5 4.5t12 2.5t13 1h11h7h3h3h4h3q1 -1 3 -2t2 -2q0 -3 -1.5 -4.5
t-4 -2.5t-5 -1h-4.5q-9 0 -18.5 1t-19.5 1q-1 0 -3.5 -0.5l-2.5 -0.5q-4 -1 -5 -4t-1 -7q0 -3 3 -4.5t7 -2t8 -0.5h6q1 0 4.5 -0.5l7 -1t6.5 -0.5h4q2 -1 4.5 -2.5t2.5 -3.5v-3v-3.5t-0.5 -5.5t-1 -5.5t-0.5 -3.5t-1 -1.5t-2 -0.5h-1h-1q0 1 -1.5 3.5t-1.5 3.5v2v2v3v1
q-2 4 -6 5.5t-9 2t-9.5 0t-7.5 -0.5h-9l-3 -2v-17l-1.5 -1.5t-2.5 -1.5v0zM67 24q9 2 15 2h14q2 0 5.5 0.5t6.5 0t5.5 -2t2.5 -4.5v-2.5t-2 -1.5h-49q-1 0 -1.5 1.5l-0.5 1.5q0 3 4 5z" />
</svg>
