<?xml version="1.0" standalone="no"?>
<!DOCTYPE svg PUBLIC "-//W3C//DTD SVG 1.1//EN" "http://www.w3.org/Graphics/SVG/1.1/DTD/svg11.dtd" >
<svg xmlns="http://www.w3.org/2000/svg" xmlns:xlink="http://www.w3.org/1999/xlink" version="1.1" viewBox="-10 0 266 256">
   <path fill="currentColor"
d="M193 248q0 2 0.5 2h2.5q3 0 4.5 -2.5t1.5 -6.5v-41l1 -1.5t1 -2.5q1 -1 1.5 -2l0.5 -1h13q1 0 1.5 -1l0.5 -1q0 -4 -2.5 -4.5t-4.5 -1.5h-2t-4.5 -0.5t-4.5 -0.5h-2v-28h16v-2.5t-1 -4.5l-1.5 -0.5t-2.5 -0.5h-13q-2 -1 -2.5 -3t-0.5 -4t-0.5 -4.5t-3.5 -4.5t-8.5 -3.5
t-14.5 -1.5v-17l0.5 -1l0.5 -1l8 -2t7.5 -2.5t6 -4.5t4.5 -9q1 -3 1 -5.5v-4.5q0 -1 0.5 -3t1.5 -5q1 1 4 1h5.5t5 -1t2.5 -4v-2.5t-2 -2.5h-13q-1 0 -1.5 -2t-0.5 -3v-3v-5v-4v-4q2 -1 4.5 -1.5t5.5 -1t5 -1.5t2 -4q0 -2 -2.5 -3l-5 -2t-5 -1h-2.5q-3 -1 -3.5 -2.5
t-0.5 -3.5t0.5 -4t0 -3.5t-2.5 -2.5t-6 -1v15q0 1 -1.5 2t-2.5 1.5t-2.5 1t-2.5 0.5t-6 0.5l-10 1t-9.5 0.5h-6.5h-3h-1.5t-2.5 -0.5t-2.5 -1.5l-1.5 -1v-15q0 -1 -1.5 -1.5t-2.5 -0.5t-2.5 0.5t-1.5 1.5v15l-1.5 1.5t-2.5 1.5t-4.5 1t-4.5 1v6h12l0.5 2t0.5 4.5t0.5 5
t0.5 3.5v3v3v3v2q-2 2 -5 2t-6 -0.5t-5.5 0.5t-2.5 4q0 2 0.5 3.5t2.5 1.5h1.5h0.5l1.5 -0.5t3 -0.5t2.5 -0.5t2 -0.5h1v0q1 0 2 0.5t2 1.5q0 7 2.5 12.5t5.5 8.5t8 5.5t11 3.5q1 4 2.5 7t1.5 7q0 3 -2.5 4t-5 1.5t-5.5 1t-5 1.5q-4 3 -6 6.5t-3 6.5t-2 5t-2.5 4t-5 3
t-10.5 2v2l0.5 1.5t1.5 1.5h12l1 0.5t1 1.5v0v1q0 5 -1 11.5t-3 12.5q0 1 -0.5 2l-0.5 1h-15l0.5 1.5t0.5 2.5q2 4 5 3.5t5.5 -1t4.5 1t2 7.5q0 9 -1.5 18t-1.5 18q0 5 2.5 5.5t7.5 0.5v-42q0 -10 8 -11q11 -1 19.5 -1.5t17.5 -0.5h9q1 1 2.5 3.5t2 5t0.5 5.5v4v2.5t-0.5 3
t-0.5 3.5v2l-0.5 1.5t-0.5 3.5v4v4v2v4t0.5 3.5t0.5 2.5zM42 184v1v3.5t0.5 5l1 5t0.5 3.5q0 10 1 17t3.5 11.5t8 6.5t15.5 2h4q2 0 6 -1t7 -2t6 -1.5l3 -0.5l3 -4l0.5 -2t1 -4.5l1 -5t0.5 -4.5v-3v-4v-5.5t-0.5 -8t-0.5 -8v-5.5q-1 -2 -3 -2h-3q0 2 -0.5 4.5l-1 5t-2 4
t-4.5 1.5q-4 0 -6 -2.5t-3 -6t-1 -6.5v-7v-3.5v-3.5q2 -4 4.5 -4t5.5 -1q6 -2 9.5 -6.5t4.5 -10.5t1.5 -12.5t0.5 -11.5v-3t-0.5 -4t-1 -3.5t-2.5 -1.5q-1 0 -3.5 2t-2.5 4v30q0 2 -1.5 3.5t-3 2.5t-4 1.5t-3.5 0.5q-3 0 -4.5 -2.5t-1.5 -6v-7v-5.5q0 -1 0.5 -3.5l0.5 -2.5
v-2t0.5 -2t0.5 -2v-1q0 -1 -0.5 -4t-0.5 -4q-1 0 -1 -2v-4q0 -5 2 -6.5t4.5 -2t5 -1.5t4.5 -3q2 -5 2 -11q0 -5 1 -11l2 -11h3q2 0 5 -0.5t5 -1.5t2 -4q0 -2 -1.5 -2.5t-3.5 -0.5h-3.5h-1.5q-16 0 -32 1.5t-32 0.5q-2 1 -2 2.5v2.5q0 3 1.5 4t4 1.5t4.5 2t3 5.5q1 1 1.5 3.5
l1 5l1 5l0.5 2.5q1 3 3.5 5t5 3t4.5 1.5t2 1.5v52l-2 3q0 1 -1.5 1h-2.5q-5 0 -7 -3t-3 -7.5t-1 -9.5t-0.5 -9.5t-1 -7.5t-3.5 -3q-2 0 -3.5 2t-1.5 4v9v7v6t0.5 6t1.5 7q2 3 5 5t6.5 2.5t7 0.5h6.5q2 0 2 1v2v4q0 1 -0.5 4.5t-0.5 7.5t-0.5 7.5t-0.5 5.5q-1 2 -3.5 2.5
t-3.5 0.5q-3 0 -5 -1.5t-3 -4.5t-1.5 -6t-0.5 -6h-1h-2q-2 0 -4.5 2.5t-2.5 5.5zM52 207q0 -4 4.5 -5.5t10 -2t11 0t8.5 0.5h10q1 0 1.5 0.5t0.5 1.5l-1 2t-1 3q-1 8 -2 12.5t-2.5 6.5t-6 2h-12.5q-7 0 -10.5 -0.5t-5.5 -3t-2.5 -6.5t-2.5 -11zM154 160q4 0 5 3t1 7v7.5
t-1 6t-3.5 4t-7.5 1.5h-2.5t-3 -0.5l-3 -1t-1.5 -2.5v-23h1.5t3.5 -0.5l4 -1t3 -0.5h1.5h2.5zM170 185v-23q0 -2 2 -3t4.5 -1.5t4.5 -1t3 -0.5q6 0 7.5 4.5t1.5 9.5v5q0 1 -0.5 3t-1 3.5t-1 2.5l-0.5 1h-20zM141 146q0 -3 1.5 -5t3.5 -4t4.5 -3t4.5 -1q4 1 5 3.5t1 5.5t-2 7
t-5 4q-5 0 -9 -1t-4 -6zM176 133q2 0 4 0.5t4 2t3.5 3t1.5 2.5v1q0 1 -0.5 3t-1.5 3q-3 1 -6 1.5t-7 0.5h-2t-2 -2v-13q0 -1 3 -1.5zM141 82l0.5 -2l0.5 -2q2 -2 3.5 -2h4.5h4t3.5 0.5t3 2t1.5 3.5q0 5 -0.5 10t-3.5 9q-7 -1 -12 -5.5t-5 -13.5zM178 74h3q1 0 2.5 0.5t2.5 1
t1 1.5q0 2 -1 5t-2.5 6t-3 5.5t-1.5 4.5h-3l-3 -0.5t-3 -1.5v-18q0 -3 3.5 -3.5t4.5 -0.5zM62 60l2 -2h2t4.5 -0.5t5.5 -1t5 -0.5h3q3 0 4 0.5t1 3.5q0 6 -0.5 10.5t-2.5 8t-5.5 5t-9.5 1.5l-1.5 -0.5l-3 -1t-3 -1.5t-1.5 -3v-19zM137 46l1 -4h1.5t3.5 -0.5l4 -1t3 -0.5h1h2
q3 0 4.5 1.5t2 3.5t1 5t0.5 5q0 3 -0.5 6.5t-3.5 5.5h-4.5h-4.5h-4.5h-3.5q-1 0 -2 -0.5t-1 -1.5v-19zM169 62v-7q0 -4 0.5 -7t2 -5t4 -3.5t7.5 -1.5h1q0 1 2 2.5t3 1.5q0 1 0.5 3t0.5 4.5v4.5v2l1 1v1q0 3 -1.5 4.5t-4 2l-5 1t-3.5 0.5q-2 0 -5 -0.5t-3 -3.5zM50 23
q0 2 0.5 3.5t3.5 1.5q1 0 4 -0.5l6 -1t6 -0.5h4t5.5 -0.5t9.5 -1t8.5 -1t3.5 -1.5q0 -3 -1 -4.5t-2.5 -2t-3.5 -0.5h-3h-9t-14 0.5t-12.5 2.5t-5.5 5z" />
</svg>
