<?xml version="1.0" standalone="no"?>
<!DOCTYPE svg PUBLIC "-//W3C//DTD SVG 1.1//EN" "http://www.w3.org/Graphics/SVG/1.1/DTD/svg11.dtd" >
<svg xmlns="http://www.w3.org/2000/svg" xmlns:xlink="http://www.w3.org/1999/xlink" version="1.1" viewBox="-10 0 266 256">
   <path fill="currentColor"
d="M146 246q0 2 1 2.5t3 0.5q3 0 7 -2.5t7 -6t5.5 -7t3.5 -5.5q1 0 2.5 -3t4 -7t4.5 -8l3 -6q1 -1 2 -3.5t2 -4.5t2 -3.5t1 -2.5v-2.5t0.5 -5.5t1 -6.5t0.5 -6.5v-1q0 -4 -2 -6t-5 -2.5t-6.5 -0.5t-6 -1t-4.5 -3t-2 -5t1 -5.5t4 -2.5h38q1 0 1.5 -2l0.5 -2q0 -4 -3 -5.5
t-6 -1.5q-19 0 -38.5 2.5t-38.5 3.5q-2 0 -4 1t-2 3v1q1 0 2 0.5t2 0.5h27q1 0 1.5 2.5t0.5 3.5v12q3 2 8 3t10 2.5t9 3.5t4 6q0 6 -3 13t-7.5 15t-9 14.5t-8.5 9.5q-1 2 -3 4l-4.5 4.5t-4 5t-1.5 4.5zM53 161v21t3 15.5t9.5 9.5t20.5 3h2h4h3h3q6 -3 10.5 -6.5t4.5 -11.5
v-38q0 -2 -1.5 -3.5t-3.5 -1.5t-3 1.5t-2.5 4t-3 4.5t-4.5 2t-5.5 -2t-2.5 -5q0 -11 2 -16t4.5 -7t6 -2.5t6 -2t4.5 -6t2 -14.5v-5.5t-0.5 -6.5t-2 -5.5t-4.5 -3.5l-2 3q0 3 0.5 8t0 10.5t-2.5 9t-7 3.5h-3q-1 0 -2 -1v-8v-9.5t0.5 -8.5t0.5 -8.5t1 -10.5q0 -1 2 -2.5
t4 -2.5t3.5 -2t1.5 -2v-16l1.5 -1.5t2.5 -2t4.5 -1.5t4.5 -2v-0.5v-0.5q0 -1 -1 -2t-2.5 -2t-3.5 -1.5t-3 -0.5v0v0q-1 0 -4 1l-3 1q-1 0 -3.5 0.5t-4.5 0.5t-4 0.5l-2 0.5h-7h-11h-11h-7t-3.5 1.5t-1.5 3.5v2.5t1 1.5h16l0.5 1t0.5 2q1 1 1 3t0.5 4t0.5 4v3q3 4 6 5t5.5 2
t4.5 4t2 11v2q0 2 -0.5 6t-1 9t-0.5 9v6t-1 2.5t-2 0.5q-5 0 -7.5 -4t-3.5 -8q0 -1 -0.5 -4t-0.5 -6.5t-0.5 -6.5t-0.5 -4t-1 -1.5t-2 -0.5t-2 0.5t-2 1.5v3t-0.5 4t-0.5 4v3v2q0 9 1 13.5t3 6.5t5 2.5t5.5 1t5.5 2t6 5.5v9v6t-0.5 5.5t-2.5 4t-6 1.5q-3 0 -4.5 -2
t-2.5 -4.5t-2 -4t-4 -1.5q-1 0 -3 1t-3 2v9zM65 174v-2q0 -3 2 -3h36q1 0 1.5 2.5t0.5 3.5q0 7 -1 11.5t-3 7t-6 4t-10 1.5q-7 0 -10.5 -1t-5 -3t-2.5 -6t-2 -11v-4zM144 114q0 1 1.5 2t1.5 2h1h1q1 0 2.5 -0.5t3.5 -1t4 -0.5h2h7h10h11h7q1 -1 1 -1.5v-2.5v-2.5t-1 -1.5
h-16l-2 -3q0 -1 0.5 -4.5t0.5 -7.5q0 -5 -0.5 -8.5t-0.5 -5.5l-0.5 -3l-0.5 -3q0 -1 -0.5 -1.5l-0.5 -0.5q0 -2 0.5 -7t1.5 -10.5t2.5 -9.5t3.5 -4h1h3t4 0.5t4 0.5h3q0 1 1 1.5l1 0.5q0 1 1 2.5t2 3.5l1.5 3l0.5 1v26q0 3 -4 3q-3 0 -7.5 -0.5t-7.5 0.5t-3 4q0 1 1 1.5
t2 0.5h2h2q4 0 7 -1t6 -1q2 0 3 0.5t1 3.5v19l1.5 1t3.5 1q0 -1 1 -2t1 -2v-26v-26q0 -1 -0.5 -3t-0.5 -4.5t-0.5 -4t-0.5 -2.5q-1 0 -1.5 -1.5t-2 -3l-2.5 -2.5l-1 -1h-24q-2 0 -2 -3v-3v-2.5t1 -3t1.5 -2.5t1.5 -1h28v-2t-0.5 -3t-1.5 -2t-2 -1h-3h-4.5h-4.5h-2
q-15 0 -29 1t-30 1q-2 1 -2.5 2t-0.5 3q0 1 0.5 2t1.5 1q0 1 1.5 1h2.5h3h2h6q3 0 4 -1l3 -0.5l3 -0.5q4 0 6.5 2.5t2.5 6.5q0 2 -2 3t-4.5 2t-4.5 1h-3q-12 3 -17.5 7t-7 10.5t-1 16t0.5 20.5q0 1 -0.5 2.5t-1 3.5t-0.5 4v2v2v2q0 2 0.5 4.5t3.5 2.5t4 -2.5t1.5 -5
t0.5 -5.5v-4v-6q0 -4 -2 -7q0 -1 0.5 -5t0.5 -8t0.5 -7.5t0.5 -5.5q1 -5 3 -8t5 -5t7.5 -2.5t9.5 -0.5h2t2 2v26q1 1 1.5 3t0.5 3v1v2l-0.5 1.5t-0.5 3.5t-0.5 3.5l-0.5 1.5q0 1 0.5 2t0.5 2t0.5 2l0.5 1v6q0 5 -1.5 7t-5 3t-7.5 1t-8 1q-1 0 -1.5 1.5zM146 86q1 2 3 2h4h4
t2 -2v-1q0 -1 -3 -1.5l-3 -0.5h-1q-2 0 -3.5 1t-2.5 2zM146 65q0 2 2 2h3h5t3 -3q0 -2 -1 -3t-3 -1t-5.5 1t-3.5 4zM73 54q0 -9 10 -9h1q1 0 3.5 0.5t3.5 1.5v2.5v3.5q0 4 -1.5 8.5t-7.5 4.5q-5 0 -7 -4t-2 -8zM185 63q0 1 1 1.5t2.5 1t2.5 0.5h2q3 0 4.5 -1t1.5 -4h-12
l-0.5 0.5t-1.5 0.5v0.5v0.5zM61 20q0 3 2 3.5t4 0.5h8t12 -0.5t11 -2t5 -4.5q0 -2 -2 -3.5t-4 -1.5q-3 0 -8.5 0.5t-11.5 1.5t-11 2.5t-5 3.5z" />
</svg>
