<?xml version="1.0" standalone="no"?>
<!DOCTYPE svg PUBLIC "-//W3C//DTD SVG 1.1//EN" "http://www.w3.org/Graphics/SVG/1.1/DTD/svg11.dtd" >
<svg xmlns="http://www.w3.org/2000/svg" xmlns:xlink="http://www.w3.org/1999/xlink" version="1.1" viewBox="-10 0 266 256">
   <path fill="currentColor"
d="M98 231q0 3 0.5 6.5t2 6.5t4.5 5t6 2h16h15q2 0 6 -0.5t7.5 -2t6.5 -4t3 -5.5v-25q0 -2 -2 -3t-3 -1h-1v1q0 3 -0.5 4.5t-2 2.5t-3.5 1h-4h-4.5t-4.5 -0.5t-3.5 -2t-1.5 -4.5q0 -2 1 -4.5t4 -3.5l23 -2q2 -1 3.5 -3t2 -4.5t0.5 -4.5v-4v-3v-2q-1 -1 -2.5 -2l-1.5 -1
q-1 0 -2 0.5l-1 0.5v12q0 3 -2.5 4t-5.5 1.5t-7 0.5h-4h-4q-2 -2 -2.5 -4.5t-0.5 -5.5q0 -4 0.5 -5.5t2.5 -2l4 -1t5 -2.5q1 -1 3 -2.5t2 -2.5v-13q0 -1 3.5 -1.5t8 -1t9.5 -1t7 -1.5l0.5 -0.5l0.5 -0.5q0 -1 -0.5 -1.5l-1.5 -1.5h-10q-11 0 -21.5 1t-21.5 2t-21.5 2
t-19.5 3q-1 0 -1.5 1t-0.5 2q1 2 2.5 2.5t3.5 0.5q3 0 6 -1t6 -1h5q3 4 3.5 7.5t1.5 6t4 4t12 2.5v17h-18q-4 0 -5 -2.5t-1.5 -5.5t-1.5 -5.5t-4 -2.5t-3 3v5.5t1.5 7t3.5 5.5t5 2h23v16h-21q-2 0 -2 -1.5t-0.5 -2.5t-1.5 -2.5t-3 -1.5q0 5 -1 9.5t-1 8.5zM193 249
q1 2 3.5 2h2.5v-77q0 -1 -0.5 -4t-0.5 -5l-0.5 -4.5t-1 -10t-1 -11.5t-0.5 -9v-1q0 -4 1 -7t2 -5.5t2 -5.5t1 -6q0 -6 -4.5 -8.5t-10.5 -3.5t-12.5 -1h-9.5h-5l-2 2l2 1l1.5 0.5t4 1l5 1t4.5 0.5q2 1 6 1q3 0 6 0.5t5.5 2.5t2.5 5q0 2 -1.5 3.5t-2.5 1.5h-1q-5 -3 -8.5 -4
t-9.5 -1h-2q-1 0 -4 0.5t-6.5 0.5t-6.5 0.5t-4 0.5l-1 0.5l-1 0.5v0.5v0.5q0 2 2.5 3t3.5 1q5 0 9 -1t9 -1h4t4 0.5t3.5 1.5t1.5 3v0.5v0.5l-9 6h-23q-1 0 -1.5 1.5l-0.5 1.5q0 2 1 2.5t2 0.5h2.5h2.5q6 0 12 -2t12 -2q3 0 6 1t2 5q0 3 0.5 9.5t1 14.5t1 17t1 17t0.5 14.5
v9.5q0 2 0.5 6.5t0.5 10.5q0 5 -0.5 10t-0.5 7zM54 245q0 2 1 2.5t2 0.5q3 0 4.5 -1.5t2.5 -4t1.5 -4.5t0.5 -4v-3v-5v-5v-3q0 -1 0.5 -6t0.5 -10t0.5 -9.5t0.5 -6.5v-6v-11v-11v-6v-3.5v-5.5t0.5 -5.5t0.5 -3.5q1 -2 2.5 -3t4 -1.5t5 -1.5t3.5 -3q3 -3 4 -9.5l2 -13
t2.5 -11.5t5.5 -5q2 0 3 3t0.5 7t-0.5 9t1 9t3.5 7t8.5 3q4 0 7 -2.5t4.5 -6t2.5 -7t1 -7.5v-5q0 -4 -1 -7t-2 -5.5t-4 -3.5h-15h-10h-8.5t-9 0.5t-10.5 1.5q-2 0 -3.5 2t-2.5 4q-3 23 -3 47v48q0 8 -1 15.5t-2 15.5t-2 15.5t-1 15.5zM104 236q0 -4 3.5 -6.5t8.5 -3.5t10 -1
h8q1 0 4 0.5t6 0.5t6 0.5t4 0.5q2 0 3.5 2t1.5 4q0 3 -2 5.5t-6 3.5q-8 1 -14.5 2t-13.5 1h-5.5t-6.5 -1t-5 -3t-2 -5zM114 165q0 -3 3 -5t7 -2.5t8 -0.5h6h7q2 1 2.5 3t0.5 4q0 4 -2 5.5t-4.5 2.5t-5.5 1h-5h-5t-5.5 -1t-4.5 -2.5t-2 -4.5zM105 142q0 1 1 2t2 1q2 0 7 -0.5
t11 -0.5t12.5 -0.5t11.5 -1t8.5 -1.5t3.5 -2q0 -3 -2 -3h-4q-11 0 -22.5 0.5t-22.5 2.5q-1 0 -3.5 0.5t-2.5 2.5zM69 116q0 -6 1.5 -10.5t1.5 -9.5q0 -2 -1 -2.5t-1 -2.5v-1.5v-0.5q4 -1 8.5 -1.5t8.5 -0.5q0 2 -1 8t-3 12.5t-4.5 11.5t-5.5 5q-2 0 -3 -1t-1 -2v-2v-3z
M107 94q0 -4 2 -6t5 -2h3.5t3.5 2v4.5v4.5v6t-0.5 6t-2.5 5.5t-5 2.5q-1 0 -2 -0.5l-1 -0.5q-2 -5 -2.5 -11t-0.5 -11zM152 55l0.5 0.5l0.5 0.5v4t0.5 4t0.5 3v1l3 3l1 0.5t3 0.5h3h3h3h5t4 -0.5l2 -0.5h4q2 0 5 -0.5t5.5 -1.5t2.5 -4q0 -2 -2 -2.5t-3 -0.5q-5 0 -9.5 1
t-9.5 1h-11q-2 -1 -2.5 -3t-0.5 -4q0 -4 4.5 -5t10.5 -1t12 -0.5t8 -4.5v-5v-4.5v-4.5t-0.5 -4.5t-2.5 -2.5h-10q-7 0 -12.5 1.5t-12.5 1.5q-3 0 -3.5 -2t-0.5 -4t-0.5 -4t-2.5 -2h-2.5t-1.5 2q1 6 1 11t-2 11q-1 3 -3.5 5.5t-2.5 5.5v1l0.5 0.5t0.5 1.5h1h1l3 -2
q3 -7 6 -11t6.5 -6.5t8 -3t12.5 -0.5h5t4 1q0 1 0.5 2.5t0.5 2.5q0 4 -3.5 6t-8 2.5t-9.5 0.5t-8 1l-3.5 3.5t-2.5 3.5h-0.5t-0.5 1zM57 65q1 3 2 3h3q17 0 32.5 -1.5t32.5 -1.5q1 1 2 0t1 -2t0.5 -2t0.5 -2h-29q-2 0 -2.5 -1t-0.5 -2q0 -4 3 -4.5t7 -1t7.5 -1t4.5 -3.5
q1 -4 2 -7.5t1 -6.5t0.5 -7t0.5 -8q-1 0 -3 0.5t-3 0.5l-0.5 0.5l-0.5 0.5l-4 23q0 1 -3 2.5t-4 1.5t-3.5 -0.5t-2.5 -1.5v-11q0 -5 0.5 -9.5t0.5 -9.5q0 -2 -0.5 -3t-2.5 -1h-1q-2 8 -3 17t-2 16q0 1 -3 1q-5 0 -7.5 -2.5t-3.5 -6.5t-1 -8.5v-7.5q0 -1 -1 -1h-2h-2
q-1 4 -1 6.5v6.5v4t1 6.5t2 6t3 2.5h14l0.5 1l0.5 1v2v2v2v1l-3 3h-30z" />
</svg>
