<?xml version="1.0" standalone="no"?>
<!DOCTYPE svg PUBLIC "-//W3C//DTD SVG 1.1//EN" "http://www.w3.org/Graphics/SVG/1.1/DTD/svg11.dtd" >
<svg xmlns="http://www.w3.org/2000/svg" xmlns:xlink="http://www.w3.org/1999/xlink" version="1.1" viewBox="-10 0 266 256">
   <path fill="currentColor"
d="M177 215v32q0 2 1.5 3.5t3.5 1.5t3.5 -2.5t1.5 -5.5q0 -8 -2 -17t-2 -19q0 -3 1.5 -4t3.5 -2l4 -2t3 -2q2 -2 3 -5t0.5 -6t-0.5 -6t2 -6v-20v-21q0 -1 -0.5 -2.5t-0.5 -3.5t-0.5 -3.5l-0.5 -1.5l-4 -2q-1 0 -3 -0.5t-4 -0.5h-5h-4q-16 0 -25.5 0.5t-14.5 4t-6 11.5t-1 24
q0 6 -0.5 12.5t0.5 12.5t4.5 10t10.5 6v6q0 8 -1.5 15t-4.5 14q-1 2 -2 5l-1 3q0 1 1.5 2.5t3.5 1.5t3.5 -1t3 -2.5t2 -4t0.5 -4.5q0 -1 0.5 -5t1 -8.5t1 -8.5t0.5 -5l1 -2.5t2 -2.5h14q2 0 2.5 1.5t0.5 3.5t0.5 3.5t2.5 2.5zM51 200v7q0 4 1 7t3.5 5t6.5 2q1 0 3.5 0.5
t5 0.5t5.5 0.5t4 0.5h2q2 0 6 -0.5t8 -2t6.5 -3.5t2.5 -7v-42l-1 -1.5t-2 -1.5h-1h-1q-1 0 -1.5 2t-1 3.5t-0.5 3.5v1h-12v-1t-0.5 -2.5t-0.5 -3.5v-3t-0.5 -3.5t-1 -5.5t-0.5 -5.5v-4.5v-1v-2h4.5t7 -1t6.5 -2t3 -3q1 -1 1 -4.5t0.5 -7.5t1 -7.5t0.5 -4.5v-3q0 -1 -0.5 -2
t-2.5 -1h-1.5t-1.5 1l-3 23q0 2 -3.5 3.5t-5.5 1.5t-3 -1.5t-1 -3.5v-2q0 -2 -0.5 -4t-0.5 -4v-3v-3t0.5 -4t0.5 -4v-2v-2t0.5 -4t1.5 -3.5t2 -2.5l15 -3v-26l0.5 -0.5t1.5 -0.5q1 -1 3.5 -1.5t4 -0.5t3 -1t1.5 -3q0 -3 -1.5 -3h-4.5q-15 0 -30.5 1.5t-31.5 1.5q0 5 2 6
t4.5 1.5t4 1t1.5 3.5v20q0 1 2.5 1.5l5 1t5 1.5t2.5 4v2v7t-0.5 10.5t-1 10.5t-0.5 7q1 3 -0.5 3h-2.5q-2 0 -4.5 -0.5t-2.5 -2.5l-3 -27q-1 -2 -1.5 -2.5t-1.5 -0.5h-2t-1 1v32q0 2 2 3t4.5 1.5l5 1t3.5 0.5q1 1 2.5 1.5l1.5 0.5v30q0 3 -2 3.5t-3 0.5q-3 0 -4.5 -2
t-2.5 -4t-2 -3.5t-3 -1.5q-3 0 -4 4t-1.5 9.5t-0.5 10.5v8zM89 183q2 0 4.5 0.5t3.5 2.5q0 1 0.5 5t0.5 5v4.5t-0.5 4.5t-1.5 4t-3 3q-3 1 -5.5 1.5t-4.5 1t-3.5 0.5h-4.5h-4.5t-4.5 -0.5t-3.5 -2t-1.5 -3.5v-20q0 -2 4 -3.5t9 -2t9.5 -0.5h5.5zM142 183v-4t3 -2h44
q1 0 1.5 2l0.5 2q0 5 -2.5 8t-6.5 4.5t-8.5 2.5t-7.5 1q-5 0 -9 -0.5t-7.5 -1.5t-5.5 -4t-2 -8zM184 149h5q3 2 3 5.5v6.5v3v2l-2 2h-3t-7.5 0.5t-9 0.5h-7.5h-4.5t-7.5 0.5t-8 0.5h-5v-8t1 -5.5t3.5 -3.5t6.5 -2h5t8.5 -0.5l9 -1t6.5 -0.5h6zM190 140v0q0 1 -0.5 1.5
l-0.5 0.5q-1 0 -2.5 0.5t-3.5 0.5h-4h-2q-2 0 -7.5 0.5t-11.5 0.5h-11h-7q0 -3 0.5 -6t2 -5.5t4 -4t5.5 -1.5h32q2 0 3.5 1.5t2 3.5t0.5 4.5v3.5zM163 92v19q0 2 1 2h2t2 -0.5t1 -2.5q0 -1 0.5 -3t0.5 -4.5t0.5 -4.5t0.5 -3q0 -2 1 -2h2q3 0 4 1.5l3 4.5q1 1 2.5 3l3 4l3 4
t2.5 3h2q3 0 3 -3q0 -5 -4 -9.5t-9 -8t-9 -6.5t-4 -5q-1 -1 -0.5 -3t0.5 -3h23q1 0 1.5 3t1 6.5t1 6.5t3.5 4q2 0 3.5 -2t1.5 -3q0 -10 -2 -20t-1 -21l-2 -2l-1 -1v-1v-1l0.5 -2t1 -4.5t1 -4.5l0.5 -2v-2q0 -1 -1 -3.5t-2 -2.5q-3 0 -5 3.5t-3.5 7.5t-3.5 7.5t-7 4.5
q-1 0 -4 -0.5t-4 -0.5q0 -7 0.5 -13.5t0.5 -12.5q0 -3 -0.5 -4t-2.5 -3q-1 0 -3 -0.5l-2 -0.5l-3 6v30q-8 0 -12 -1.5t-5.5 -4t-1.5 -5v-5t-1 -4t-5 -1.5h-2.5t-1.5 2q0 7 2 11.5t5.5 7t7 4.5t7 3t5.5 3t2 5v1.5v2.5q-4 3 -9 3h-9q-5 0 -6.5 -2.5t-2 -5.5t-2 -5.5t-6.5 -2.5
q0 11 -1.5 21.5t-1.5 20.5v2.5t2 1.5q3 0 4.5 -2.5t2.5 -6.5t1 -7.5v-4.5q1 -1 2.5 -2t2.5 -1h20q2 0 2.5 1.5t0.5 2.5q0 3 -1.5 3.5t-3.5 1.5q-1 1 -3 2t-4 2.5t-3.5 2l-1.5 0.5q-1 1 -2.5 3.5t-3.5 4.5t-4 4.5t-2 3.5v1q0 2 0.5 2.5t1.5 0.5h1q1 0 3 -2t4 -4.5t4 -4
t3 -2.5q3 -3 3 -4.5t0.5 -1.5h2h6.5zM71 72v-4v-2l2 -2h1.5t4 -0.5t4.5 -0.5h4h2h3t2 3v3v4q0 8 -2.5 11t-11.5 3q-3 0 -5 -1t-3 -3t-1 -5v-6zM172 66q-2 -1 -2 -3v-3q0 -3 3 -5.5t7 -3.5t8 -1.5t7 -0.5v15q0 2 -3 2.5t-5 0.5h-6.5t-8.5 -1zM59 36v0.5v0.5l1 1.5t2 1.5h6h9
t14 -0.5t12 -1.5t5 -3t-0.5 -3.5t-2.5 -0.5h-11q-8 0 -15.5 1t-16.5 0l-2 2l-1 1v1z" />
</svg>
