<?xml version="1.0" standalone="no"?>
<!DOCTYPE svg PUBLIC "-//W3C//DTD SVG 1.1//EN" "http://www.w3.org/Graphics/SVG/1.1/DTD/svg11.dtd" >
<svg xmlns="http://www.w3.org/2000/svg" xmlns:xlink="http://www.w3.org/1999/xlink" version="1.1" viewBox="-10 0 266 256">
   <path fill="currentColor"
d="M94 244q1 3 4 4.5t6 2.5h14h15q8 -1 14 -1.5t9.5 -2.5t5 -6.5t1.5 -13.5v-4t-0.5 -4t-1.5 -3t-4 -1q-1 0 -2 1t-1.5 2t-1.5 2t-2 1h-17q-2 0 -2.5 -1.5l-1 -3t-0.5 -3.5v-3q0 -2 2.5 -2.5t6.5 -0.5t9 -0.5t8.5 -2.5t6.5 -6.5t3 -13.5q0 -2 -0.5 -4.5t-2.5 -2.5
q-3 0 -4 1.5t-1 4t-1 6t-3.5 6t-7.5 4t-14 1.5v-12q7 -3 10.5 -6t4 -6t1 -5.5t3.5 -4.5q2 -1 6.5 -1.5t9 -0.5t8.5 -0.5t4 -3.5t-2 -3h-4h-14t-13 3q-20 3 -40 4.5t-40 1.5q-1 0 -3 1t-2 3t1.5 3t3.5 1q6 0 12 -1t12 -1h11q2 1 3 3.5t1.5 4.5l1 4t3 2.5t4.5 0.5t4 0.5t3 2
t1 4.5q0 1 -0.5 4t-2.5 3h-14q-3 0 -4.5 -3t-2.5 -6t-2.5 -6.5t-3.5 -3.5q-3 -1 -3.5 0t-0.5 3q0 8 1.5 13t5.5 7t10 2h14q3 0 3 3v5v2v2.5t-0.5 2.5t-2.5 1h-14l-3 -3l-2 -2h-1q-3 0 -4.5 1.5t-1.5 4.5v2q0 1 0.5 3.5t0.5 5.5t0.5 5.5t0.5 3.5zM190 242q0 2 2 2.5t3 0.5
q3 0 4.5 -1.5t1.5 -4.5v-1v-10v-15.5t-0.5 -18t-0.5 -18.5v-15.5v-10.5q0 -3 -2.5 -7.5t-7.5 -4.5l-30 -3q-3 -1 -3.5 -3.5t-0.5 -3.5q0 -5 3 -7t7 -3t9 -1.5t9.5 -1.5t9 -3t6.5 -6q0 -1 1 -4t1.5 -6.5t1.5 -6.5t1 -4v-2v-2q0 -1 -0.5 -3.5t-1.5 -2.5v-31q0 -4 -2 -7.5
t-4 -5.5h-3h-4.5h-4.5h-3h-10.5h-15.5t-14 1.5t-6 4.5l0.5 1.5l0.5 1.5l1.5 1.5l0.5 0.5h13l3 3v1.5t0.5 4l1 5t0.5 3.5v2q0 2 -1.5 2.5t-2.5 0.5q-2 0 -3.5 -2t-2.5 -4.5t-2 -4.5t-3 -3l-1.5 1.5l-1.5 1.5v1q0 7 2.5 10t6 4.5t6.5 4t3 9.5q0 4 -0.5 6.5t-4.5 2.5
q-3 0 -4 -1.5t-1.5 -3.5t-1 -3.5t-2.5 -1.5q-1 0 -2 1t-1.5 2.5t-0.5 3.5v3q0 3 2 4t5.5 1.5t6 1t4.5 2.5v6q0 2 -0.5 4t-1.5 3.5l-2 3t-4 3.5v21l-1.5 0.5t-2.5 0.5q-11 3 -23 2.5t-23 1.5q-1 0 -1.5 1t-0.5 2q0 2 1 2.5t3 0.5h3q5 -1 11.5 -1t13.5 -0.5t14 -2t12 -4.5h29
q3 0 4.5 3t1.5 5q0 1 0.5 4t0.5 7t0.5 7.5t0.5 4.5v5v6v7v4t0.5 3.5t0.5 5t0.5 4.5t0.5 3v1v1q0 1 -0.5 4l-1 6t-0.5 5.5v3.5l-0.5 1t-0.5 2.5t-0.5 2.5l-0.5 1v1v0zM103 235q0 -3 4.5 -4.5t10.5 -2.5t12 -1h9h5.5h5.5q2 1 2.5 2t0.5 3q0 3 -2.5 7t-6.5 4h-35q-4 0 -5 -3
t-1 -5zM111 175q0 -2 0.5 -3.5t3.5 -2.5q1 0 4 -0.5t6.5 -1t6.5 -1t5 -0.5t3 2t1 3q0 3 -2.5 5t-5.5 3.5t-6.5 2t-6.5 0.5t-6 -2t-3 -5zM88 120q2 3 2 6.5t0.5 7.5t1.5 6.5t6 2.5v-23q3 0 7.5 0.5t8 0t6.5 -2.5t3 -6h-24q-1 0 -1.5 -1.5t-0.5 -2.5l0.5 -2t1 -4.5t1 -4
l0.5 -1.5h18l0.5 -1t1.5 -1v-0.5v-0.5q0 -2 -2 -3t-4.5 -1t-5 -0.5t-3.5 -2.5q1 -4 3 -8.5t5 -7.5h1h1l1.5 1t2.5 2.5t2.5 2t1.5 1.5h1q3 0 3.5 -1.5t0.5 -2.5q0 -6 -4.5 -8.5t-10 -5t-10 -6t-4.5 -9.5v-4q0 -3 2 -3q3 0 6 2t5.5 4t5 3.5t5.5 1.5h3.5t1.5 -3v-0.5v-0.5
q-3 -4 -5.5 -5.5t-5.5 -2.5t-6 -2.5l-7 -3.5q-3 -2 -4 -5t-1.5 -6t-1 -5t-4.5 -2q-1 0 -3.5 0.5t-2.5 1.5v12q0 2 -5.5 5t-12 6t-12 6t-5.5 7q0 2 1 3.5t3 1.5q4 0 8 -3t7 -6t6.5 -6t6.5 -3q4 0 5.5 3t1.5 6v1q-1 1 -2.5 3t-3.5 4.5l-4 5t-3 2.5l-2.5 1.5t-5.5 3t-6 3.5
t-5 3q-3 2 -5 3.5t-2 4.5t1 3.5t3 0.5q3 0 5 -1.5t4.5 -3.5t4.5 -3.5t5 -1.5q2 0 3 1t2 3t1 4.5v3.5v2v2.5t-1 1.5h-18l-2 2l3 3h21q4 0 4.5 3.5t0.5 5.5v2v2.5t-1 1.5h-28q-1 0 -1.5 2t-0.5 3t1 2t3 2q7 -1 11.5 -1.5t10.5 -0.5h4zM164 103q0 -3 1.5 -4.5t3.5 -1.5h4
t4 -1.5t3.5 -4.5t1.5 -9q-1 0 -2.5 -0.5t-2.5 -0.5l-0.5 1.5t-0.5 2.5q-1 0 -2.5 2t-2.5 2q-2 1 -3 -0.5t-2 -3.5t-1.5 -4.5t-0.5 -3.5q0 -4 1.5 -5.5t4 -2l5 -1t4.5 -2t3.5 -4.5t1.5 -8q0 -3 -1 -3.5t-4 -0.5h-2h-1q0 4 -1.5 7.5t-6.5 3.5h-3q-1 -5 -1.5 -8t-0.5 -7
q0 -3 1 -5t4 -2h22q1 0 2 1t1.5 2.5t1 2.5t0.5 2l0.5 2t0.5 4t0.5 4t0.5 4v1v16.5t-2 15.5t-7.5 11.5t-16.5 4.5h-5q-1 -2 -1.5 -3.5t-0.5 -3.5zM83 69q0 -2 1 -4t3 -4l3.5 -3.5t3.5 -1.5q4 0 7 3.5t3 7.5q0 2 -0.5 6l-1 8t-2.5 7t-5 3q-4 0 -6 -2.5t-3.5 -6.5t-2 -7.5
t-0.5 -5.5z" />
</svg>
