<?xml version="1.0" standalone="no"?>
<!DOCTYPE svg PUBLIC "-//W3C//DTD SVG 1.1//EN" "http://www.w3.org/Graphics/SVG/1.1/DTD/svg11.dtd" >
<svg xmlns="http://www.w3.org/2000/svg" xmlns:xlink="http://www.w3.org/1999/xlink" version="1.1" viewBox="-10 0 266 256">
   <path fill="currentColor"
d="M152 247q0 2 0.5 3t2.5 1q3 0 7 -3t8.5 -8t8.5 -11t7 -11.5t4.5 -10.5t1.5 -8q0 -4 -2 -6t-5.5 -3.5t-7 -2t-7 -2t-5.5 -4t-2 -6.5q0 -2 0.5 -5t3.5 -3h39q1 0 1.5 -2t0.5 -3t-1.5 -2t-2.5 -2l-2 -1t-2 -2v-1v-3v-3.5v-1.5q0 -2 -4 -3t-8 -3t-8 -6t-4 -11q0 -4 2 -5.5
l4 -3t3.5 -3t1.5 -5.5q-3 0 -10 0.5t-14 2t-12 3t-5 3.5t1 2.5t2 1.5l2 2t1 3q0 8 -3 12.5t-7 8t-7 5t-3 3.5v2.5t2 1.5t5.5 -2t7 -4.5t6 -5l4.5 -4.5v-6t0.5 -8.5t2.5 -7.5t6 -3q3 0 4 3.5t2 8.5t2.5 10t5.5 8q2 2 4 2.5t3.5 1.5l3 2t3.5 3q-5 5 -13.5 6t-17.5 1
q-10 0 -19.5 -0.5t-16.5 1.5l-0.5 1.5l-0.5 1.5q0 1 0.5 1.5l0.5 0.5h24l3 3q0 8 2 12.5t5 6.5t6.5 2.5t6 1.5t4.5 2.5t2 6.5v2v2q-6 10 -12.5 19.5t-15.5 18.5v0.5v1.5zM61 201q1 5 4 8.5t7.5 5t9 1.5h9.5h12q2 0 4.5 -1.5l5 -3t4 -4t1.5 -5.5v-40q0 -2 -1.5 -3t-3.5 -1
t-2.5 2t-1 4.5t-2.5 4.5t-7 2q-3 0 -4.5 -2t-2 -4.5t-0.5 -6v-6.5v-6q2 -3 4 -4t4.5 -0.5t5 0t4.5 -2.5t3.5 -7t1.5 -14q0 -1 0.5 -4t0.5 -5v-3q0 -3 -0.5 -5.5t-2 -4.5t-3.5 -2h-1q0 1 -1 2t-2 1q1 8 0.5 16t-1.5 16q-2 3 -3.5 3.5t-3.5 0.5q-4 0 -5 -2t-1 -5v-32
q0 -3 2.5 -4.5l5 -3t5 -3.5t2.5 -5v-26q0 -2 1.5 -2.5t3.5 -1t3.5 -1.5t1.5 -3q0 -3 -4 -3q-16 0 -31 1t-31 1q-3 0 -4 1t-1 4t2 3.5t5 1t5.5 0l2.5 -0.5l2 2l5 24q0 3 2.5 4.5t5.5 3t5 3t2 4.5v29q0 1 0.5 2.5t1.5 2.5v1q0 3 -1 6t-5 3q-6 0 -8 -3t-3 -7.5t-0.5 -9.5
t-0.5 -9t-3 -7t-8 -3v3q0 3 0.5 5.5t0.5 5v2.5q0 9 1 14.5t3.5 8.5t7 4.5t13.5 2.5q0 1 0.5 3l0.5 2v1v0q0 3 -0.5 8t-0.5 8.5v4.5l-2 2h-11v-11q0 -2 -3 -2h-4q-3 0 -3.5 1t-0.5 3q0 5 0.5 9.5t1 8.5t0.5 8.5v10.5zM70 187q0 -3 3.5 -5t8.5 -2.5t9 -0.5h7h4h5q2 0 2 1v3v2
q0 1 -0.5 3.5l-1 5l-1 5t-0.5 3.5q-8 5 -17 5q-11 0 -15 -4.5t-4 -15.5zM126 138q0 1 1 1.5t2 0.5t2 -0.5t1 -1.5q0 -3 0.5 -9.5t1 -13.5t1 -13.5t0.5 -8.5t0.5 -4.5l1 -5t2 -4.5t4.5 -2h1.5t1.5 1q0 1 1 3l2 4t2 3.5t1 2.5q3 2 6 3t7 1.5t7.5 0.5h5.5t3.5 -1.5t1.5 -3.5
q0 -1 -0.5 -1.5l-0.5 -0.5q-3 1 -7.5 1t-8.5 -1t-7.5 -3t-3.5 -6q0 -3 2.5 -4t4.5 -1h4l2.5 0.5l5 1t5 0.5h3.5v0h1q1 0 3 -1t2 -3v-1q-1 -1 -1.5 -2.5l-0.5 -1.5h-32q-1 0 -1.5 -1.5t-0.5 -2.5v-2q0 -3 1.5 -4.5t4 -2t5.5 -0.5h6q11 0 16.5 1.5t7.5 5t2 10.5v17t-0.5 19.5
t-0.5 19.5q0 2 0.5 3.5t2.5 1.5t4.5 -3.5t2.5 -5.5v-52q0 -3 -1 -7.5t-3 -8t-5 -6t-7 -2.5h-33l-3 -4v-17q0 -2 1 -3.5t2.5 -3t3 -2t2.5 -0.5q4 0 5 1.5t1.5 4t0.5 5.5t2 5.5t5.5 4.5t11.5 2h8q2 -1 3.5 -2t1.5 -3q0 -1 -0.5 -1.5l-1.5 -1.5h-8q-4 0 -8 -1t-6 -3.5t-2 -7.5
v-3t3 -2h18q2 0 2.5 -1.5t0.5 -3.5q0 -3 -1 -5h-3h-3h-4h-2h-8.5t-7 1t-7.5 1.5t-8 2.5q-3 3 -5 8.5t-3 11t-2 9.5t-3 4t-3.5 -1.5t-2.5 -4l-2 -5t-1 -3.5v-3.5v-5.5v-6v-4q1 -2 -1 -2.5t-3 -0.5q-3 0 -3.5 1.5t-0.5 3.5v11t0.5 9.5t2.5 8.5t5 8q1 1 3 1.5l4 1t3.5 1
t1.5 1.5v12q-9 5 -17 13v7.5t-0.5 11.5t-0.5 11.5v7.5v4v6v5v5zM75 56q0 -1 2 -3.5t4 -2.5h18v24q0 1 -0.5 2.5t-1.5 1.5h-6q-10 0 -13 -5.5t-3 -16.5zM58 19q0 3 3 5h9h8q2 0 6 -0.5t8.5 -0.5t9 -0.5t5.5 -0.5q2 0 2 -1.5v-2.5v-2t-2 -2h-3h-4q-5 0 -10 0.5t-9.5 1t-10 0.5
h-11.5q-1 0 -1 1v2z" />
</svg>
