<?xml version="1.0" standalone="no"?>
<!DOCTYPE svg PUBLIC "-//W3C//DTD SVG 1.1//EN" "http://www.w3.org/Graphics/SVG/1.1/DTD/svg11.dtd" >
<svg xmlns="http://www.w3.org/2000/svg" xmlns:xlink="http://www.w3.org/1999/xlink" version="1.1" viewBox="-10 0 266 256">
   <path fill="currentColor"
d="M202 244q0 3 2 5t4 2q4 0 5 -3.5t1 -6.5q0 -17 -1 -34t-3 -34v-149q0 -4 -3 -7.5t-7 -3.5h-52l-2 0.5t-4.5 1.5t-5.5 2t-5 2t-4 3t-3 5t-1.5 6t-1.5 6q-2 49 -4.5 98.5t-2.5 98.5v9q1 2 2 2h2q2 0 3 -1t2 -3t1.5 -4t0.5 -3v-114q1 -13 1 -25.5t-0.5 -23.5t0.5 -21
t5.5 -17t13 -11t23.5 -4q11 0 18 1.5t10.5 5t4.5 10.5t1 19q0 6 -1 12t-1 12q0 8 0.5 14t1.5 15v107v2.5t0.5 4.5l1 4t0.5 3v2v0q0 1 -0.5 2.5t-1 3.5t-0.5 3.5v1.5v1zM172 197q0 1 1 4.5t1.5 7.5t1 7.5t1.5 4.5v3.5t0.5 6t0.5 6v2.5q1 3 2.5 4.5t3.5 1.5t4 -2.5t2 -5.5v-1
l-10 -41v-1.5v-1.5q0 -3 1.5 -6l3 -6t3 -6.5t1.5 -6.5q0 -7 -4 -11.5t-8 -7.5q-7 -1 -11.5 -1.5t-10.5 -0.5h-2h-4.5t-4 0.5t-1.5 1.5v3q2 0 5 0.5t7 0.5t7 0.5t5 0.5t4.5 1.5t5 4t4 5t1.5 5.5q0 2 -2 6t-5 4q-2 0 -4 -1.5t-4.5 -3t-5.5 -3t-8 -1.5q-1 0 -3 -0.5t-4.5 0
t-4 1.5t-1.5 3t4 2.5t8.5 1t8.5 1t4 3.5v2.5t-2 1.5q-1 0 -3.5 0.5t-5.5 1.5t-5.5 1.5t-3.5 0.5q-3 1 -3.5 2t-0.5 4q6 0 13 -1t14 -1v0q1 0 2.5 1.5zM50 184v13t1 16.5t3.5 15.5t7.5 9h2.5h3.5h3h2q13 0 19.5 -2t9.5 -7t3.5 -13.5t0.5 -20.5v-22q-1 -3 -3 -5q-4 1 -4 4.5
v7.5t-0.5 7t-4.5 3q-3 0 -6.5 -1t-3.5 -5v-35q0 -3 3.5 -5.5t7.5 -5t7.5 -7t3.5 -11.5v-6t-0.5 -7.5t-0.5 -6t-1 -2.5l-1 -2l-4 4v27q0 1 -1.5 1.5l-3 1t-2.5 1t-2 0.5t-3.5 -0.5t-2.5 -3.5v-44l1.5 -1.5l2.5 -2.5q6 -3 8.5 -4t3 -2.5t-0.5 -5.5t0 -13q1 -4 3.5 -5t5 -1.5
t5 -1.5t2.5 -4q0 -2 -1 -3t-2.5 -1.5t-3 -0.5h-2.5h-3h-2q-3 0 -11 1t-17.5 2t-17.5 1.5t-11 1.5l-1 1.5l-1 1.5v1v1q1 1 2 2.5t2 1.5h11q1 0 1.5 0.5t0.5 1.5v1v3v3v2q0 4 3 7l6 6t5.5 4.5t2.5 2.5v46l-1.5 1.5l-2.5 2.5v0q-3 0 -6.5 -2.5t-4.5 -4.5q0 -1 -0.5 -4t-0.5 -6
t-0.5 -5.5t-0.5 -3.5q0 -2 -1.5 -4t-3.5 -2t-2.5 1.5l-1 3t-0.5 3.5v2q0 3 0.5 5t0.5 4t0.5 4t0.5 5q2 6 5.5 8.5t8 3.5t7.5 1.5t3 1.5v42q0 2 -1 3t-2.5 1h-2.5h-2h-3h-3l-1 -1l-1 -1v-18q0 -2 -2 -2h-2q-2 0 -3.5 1.5t-1.5 3.5v2q0 2 -0.5 4t-0.5 3v2zM59 208v-1v-2.5
t0.5 -2.5t1.5 -1q4 -1 7 -2t6 -1.5t6.5 -0.5h7.5h2h3h2.5h2.5v3t0.5 4.5t0.5 4.5v3v1q0 5 -2 8t-5.5 4.5t-7.5 2.5t-7 1q-8 0 -13 -6.5t-5 -14.5zM138 109q0 3 1 6.5t2.5 6.5t4 5t6.5 2h28q4 0 6 -2.5t3.5 -6t2 -7.5t0.5 -7v-3.5v-2.5l-2 -2t-2 -2.5t-2.5 -2.5l-1.5 -1h-29
l-1.5 1t-4 2t-4.5 2.5t-3 2.5q-3 1 -3.5 3.5t-0.5 5.5zM158 106q0 -4 1 -5.5t4 -1.5q1 0 2 0.5t2 0.5q2 5 2.5 8.5t0.5 8.5v4t-2 2q-3 0 -5 -1.5t-3 -4.5t-1.5 -6t-0.5 -5zM145 110q0 -2 1 -4.5t4 -2.5q1 0 2 0.5t1 1.5v15q0 1 -1 1.5t-2 0.5q-2 0 -3 -1.5t-1.5 -3
t-0.5 -3.5v-4zM175 106v-3.5t3 -2.5q4 0 6 3.5t2 6.5q0 4 -0.5 6t-4.5 2q-2 0 -3.5 -1t-2 -3t-0.5 -4v-4zM142 70l1 2h44l1.5 -1l1.5 -1v-1v-1l-1.5 -1.5l-1.5 -1.5q-1 0 -3.5 -0.5t-3.5 -0.5t-3.5 0.5t-3.5 0.5q-3 0 -8 0.5t-9.5 1t-8.5 1l-4 0.5zM67 61q0 -5 2 -8t5 -4.5
t6.5 -2t7.5 -0.5q2 0 3.5 1.5t1.5 3.5v5t-0.5 6t-1.5 5.5t-3 2.5h-16q-2 0 -3 -1t-1.5 -2.5t-0.5 -3v-2.5zM176 38h-7t-5.5 0.5t-5.5 1t-8 1.5q-2 0 -5 0.5t-3 1.5v3l1.5 0.5t4 0.5t5 0.5t4.5 0.5v0h1q3 0 6.5 -0.5t7.5 -0.5t7 -0.5l3 -0.5q1 0 3.5 -0.5t3.5 -1.5v-1
q0 -2 -0.5 -2.5l-1.5 -1.5h-2.5h-2.5q-2 0 -3.5 -0.5t-2.5 -0.5zM54 19q0 3 2.5 4t4.5 1h3q2 0 7.5 -0.5t11.5 -1t11 -1t7 -1.5q1 0 2 -1.5t1 -2.5v0v-1q0 -1 -0.5 -1.5l-0.5 -0.5h-46l-1 2q-1 0 -1.5 1.5t-0.5 2.5z" />
</svg>
