<?xml version="1.0" standalone="no"?>
<!DOCTYPE svg PUBLIC "-//W3C//DTD SVG 1.1//EN" "http://www.w3.org/Graphics/SVG/1.1/DTD/svg11.dtd" >
<svg xmlns="http://www.w3.org/2000/svg" xmlns:xlink="http://www.w3.org/1999/xlink" version="1.1" viewBox="-10 0 266 256">
   <path fill="currentColor"
d="M174 175q0 2 -0.5 5.5t-0.5 7.5t0.5 7.5t0.5 4.5q0 4 2 12.5t5.5 17t8.5 15t11 6.5v0q4 -1 6 -2t2 -4q0 -4 -1.5 -6.5t-4 -5t-5 -4.5t-3.5 -5q-3 -3 -5.5 -7t-4.5 -8.5t-3.5 -9t-1.5 -9.5v-2.5v-3.5q1 0 1.5 -0.5t0.5 -1.5h1q3 0 5.5 1.5t5.5 2.5t6 2.5t6 1.5q2 0 5 -1
t3 -4v-1q0 -1 -1 -2l-1 -1l-24 -7l-0.5 -0.5l-0.5 -0.5l0.5 -0.5l0.5 -0.5q1 -2 4 -3.5l6 -3t5 -3.5t2 -5q0 -2 -1.5 -3.5t-3.5 -1.5q-3 0 -6 1.5t-6 4t-5 4.5t-4 5q-2 -1 -4.5 -3t-4.5 -5t-3 -5.5t-1 -4.5v-3.5t2 -1.5q11 -2 22.5 -2.5t21.5 0.5q2 -1 2 -2v-2v-3t-2 -2h-35
l1 -2t2.5 -4t2.5 -3.5t1 -2.5l1 -1.5l1 -1.5q0 -1 0.5 -1.5t1.5 -0.5q6 -1 10 -2.5t6.5 -3t3.5 -5t1 -10.5v-4.5v-4.5q-2 -3 -4.5 -3.5t-4.5 -1.5t-4 -2.5t-2 -6.5q0 -3 1.5 -4.5t4 -2.5l5 -2t4.5 -3q1 -2 1.5 -4.5t1 -5.5t0.5 -5.5v-3.5v-2v-2q0 -3 -2 -4.5t-4.5 -2.5
l-5 -2t-2.5 -3.5v-4.5v-4t-1 -3t-3 -1q-4 0 -5.5 2t-2 4.5t-0.5 5v4.5q-1 3 -3.5 3.5t-5.5 1t-5 2.5t-2 7v0q0 2 0.5 4.5t0.5 5t0.5 4.5l0.5 2q0 2 1.5 3.5t3 2.5t3.5 1.5t4 1.5t2 3v4q0 6 -3 7.5t-6 2l-6 1t-3 3.5v19q1 1 2.5 2t2.5 2.5t2.5 3.5t1.5 3t-2.5 4.5t-5.5 6.5
t-6 5.5t-4 2.5h-1q-1 0 -1.5 -1.5t-0.5 -2.5l-0.5 -2t-1 -4.5l-1 -5t-1.5 -3.5v-1v-1l4 -8t2 -8q0 -9 -2 -12t-4.5 -5t-4.5 -4t-2 -9q0 -3 2.5 -4.5t5.5 -2.5t5.5 -2.5t2.5 -4.5v-21q0 -1 -1.5 -2.5t-4 -2.5t-4 -2.5l-2.5 -2.5q-1 -2 -1 -4t-0.5 -3.5t-1.5 -2.5t-3 -1
q-3 0 -4 1t-1 3t0.5 4t-0.5 5q0 4 -3 5t-6 1.5t-5.5 3t-2.5 9.5q0 6 2.5 9t5.5 5t5.5 3t2.5 2v16q0 1 -3 1.5t-7 2.5t-7 5.5t-3 8.5q0 6 2.5 9.5t6 5.5t8.5 2.5t10 1.5q3 6 3.5 9.5t0.5 10.5h-27q-3 0 -3.5 1.5t-0.5 3.5t0.5 3t3.5 1h31q2 0 3.5 3t2.5 5.5l1 2.5q1 1 3 3.5
t4.5 5.5t4.5 5zM151 247q0 1 0.5 1.5l0.5 0.5q4 0 5.5 -3.5t1.5 -6.5v-2v-4.5t-0.5 -7t-0.5 -7v-4.5q-1 -4 -0.5 -10.5t0 -13t-2.5 -12t-6 -8.5h-5.5t-7.5 -0.5l-8 -1t-5 -0.5h-1q-1 0 -2.5 0.5l-3 1t-2.5 1.5t0 3q0 2 1.5 2.5t3.5 1t4 0.5t3 1v6q0 15 -2 29.5t-2 29.5
q0 3 4 3t6.5 -3.5t2.5 -6.5v-58h10q1 0 1.5 2t0.5 3t0.5 5t1.5 6v1q0 3 0.5 10.5t0.5 15.5t0.5 15t0.5 10zM50 230q1 4 4.5 6.5t7.5 4t9 1.5h8q5 0 12 -2t11 -7q0 -6 0.5 -10.5t0.5 -8.5v-8.5v-9.5v-4v-4t-1 -3t-3 -1h-1h-2v6.5t-1 3.5t-2.5 2t-4.5 1t-4 -1t-1.5 -2.5
t-0.5 -3.5v-4v-4q0 -1 0.5 -3.5t0.5 -5.5t0.5 -6t0.5 -4q1 -2 3 -3t4.5 -1.5t4.5 -1t4 -3.5q0 -1 1 -2.5l2 -3t1.5 -3l0.5 -1.5v-32q0 -1 -1.5 -1.5t-2.5 -0.5q-2 0 -3 1t-2 3q0 1 0.5 4.5t0.5 7.5t-0.5 7.5t-0.5 5.5q0 3 -1.5 6.5t-6.5 3.5h-1h-1q-3 -5 -2.5 -11t0.5 -11
v-15.5t2 -14.5q7 -3 10.5 -8t4.5 -11.5t0.5 -13.5t0.5 -13q2 0 5.5 -2t3.5 -5t-2.5 -4t-5.5 -1q-4 0 -8.5 0.5t-8.5 1.5h-9t-12.5 0.5t-12.5 0.5h-8q-3 1 -3 4q0 2 2.5 3.5t5 2.5t5.5 1h4l0.5 2t0.5 3t0.5 5t1 8.5t0.5 9v5.5q0 3 2 3.5t4.5 1.5t4 1.5t1.5 2.5v52q0 2 -1.5 2
h-2.5q-5 0 -7.5 -3.5t-3.5 -8.5t-1 -10t1 -8l-3 -3t-3 -2t-3 1.5t-2 2.5v4.5v4.5q0 8 1 14t4 10t8 6t13 3v33q0 3 -2 4t-4 1q-3 0 -4.5 -1.5t-2.5 -3.5t-2.5 -3.5t-4.5 -1.5q-4 0 -4.5 3t-0.5 5q0 5 0.5 8.5l1 7t1 8t-0.5 10.5zM61 213v-2v-2l6 -2h26l0.5 0.5t0.5 1.5l1 2.5
t1 4.5v0v3t-0.5 4t-2 3.5t-2.5 1.5h-24q-2 0 -3.5 -2t-2 -4.5t-0.5 -5v-3.5zM214 188q-2 0 -2 2q0 1 2 1q1 0 1 -1q0 -2 -1 -2zM128 99q0 -5 3.5 -8t7.5 -3q5 0 8.5 2t3.5 7q0 6 -6 10h-2.5h-3.5q-4 0 -7.5 -1t-3.5 -7zM175 99q0 -2 1.5 -6.5t3.5 -6.5h7q1 0 3.5 0.5t4.5 1
t3.5 2t1.5 4.5q0 5 -3 9t-9 4q-2 0 -4 -0.5t-4 -1.5t-3.5 -2.5t-1.5 -3.5zM84 51q2 0 4.5 0.5t2.5 3.5v22q0 1 -1.5 3t-1.5 3h-9h-8q0 -1 -1.5 -1.5l-1.5 -0.5v-25q0 -2 2 -3t5 -1.5t5 -0.5h4zM129 47q0 -3 1.5 -5t4 -3t5 -1.5t5.5 -0.5h2.5h3.5q3 1 3 3v5q0 5 -2 9t-8 4
q-2 0 -4.5 -1t-5 -2.5t-4 -3.5t-1.5 -4zM178 46q0 -5 5 -8t10 -3q4 0 7.5 3t3.5 7q0 1 -1 3l-2 4t-2 3t-3 1h-14q-1 0 -2 -1t-1 -3t-0.5 -3.5t-0.5 -2.5zM56 18q0 2 1.5 3t3.5 2h2h4h4h2h14t15 -2l0.5 -1.5l0.5 -1.5v-1v-1q0 -1 -0.5 -1.5l-0.5 -0.5h-43q-2 0 -2.5 1t-0.5 3
z" />
</svg>
