<?xml version="1.0" standalone="no"?>
<!DOCTYPE svg PUBLIC "-//W3C//DTD SVG 1.1//EN" "http://www.w3.org/Graphics/SVG/1.1/DTD/svg11.dtd" >
<svg xmlns="http://www.w3.org/2000/svg" xmlns:xlink="http://www.w3.org/1999/xlink" version="1.1" viewBox="-10 0 266 256">
   <path fill="currentColor"
d="M92 210v26q0 6 3.5 9t9 4.5t10.5 1.5h10q10 0 17.5 -0.5t12 -2.5t6.5 -8t2 -17v-4.5v-5.5t-2 -3.5t-4 -1.5q-1 0 -1.5 2t-1.5 3.5t-3.5 3t-6.5 1.5q-7 0 -9.5 -1.5t-2.5 -7.5t2.5 -8.5t6.5 -3t9 -0.5t9 -1.5t6.5 -6t2.5 -14.5q0 -3 -1.5 -5t-3.5 -2h-3.5t-2.5 2v16
l-1.5 1.5t-2.5 1.5q-3 3 -8 3h-10q-3 0 -3 -2v-4q0 -5 2 -6t5 -3t6 -6t3 -14q1 -1 3 -1.5l2 -0.5q2 0 6 -0.5t8.5 -0.5t8 -0.5t5.5 -0.5l2 -3v-1v0l-1.5 -1.5l-0.5 -0.5h-8q-3 0 -11.5 0.5t-18.5 1t-21.5 1.5t-21 1.5t-15.5 1.5t-6 2l3 3h21l1.5 1.5t1.5 2t0.5 2t0.5 3
t0.5 3l0.5 1.5q2 4 4.5 5t5.5 2t4.5 2t1.5 4q0 4 -1 6t-5 2h-3h-4.5t-4.5 -0.5t-3 -0.5q-3 -2 -4 -5.5t-1.5 -7t-1.5 -6t-4 -4.5q-2 2 -2 5v6q0 7 2 11t6.5 6t10 2t12.5 1q3 1 3 3v4q0 5 -3 8.5t-8 3.5q-6 0 -8.5 -1t-4 -3t-3.5 -3t-5 -1zM101 230v-1.5v-2.5l3 -1h2h3.5h3.5
h3h17t17 1l1.5 3t0.5 2q0 4 -1.5 8t-6.5 4h-36l-1.5 -1t-2.5 -2t-1.5 -2t-1.5 -2v-2v-4zM114 165q0 -3 2 -5.5t5 -2.5h17q1 0 1.5 1l1 2t0.5 2v1q0 4 -2 6t-4.5 3t-5.5 1h-6q-4 0 -6.5 -2t-2.5 -6zM51 164q0 2 1 4.5t3 2.5q3 0 5 -2.5t3 -6l2 -7t2 -5.5q1 0 2.5 -2t4 -4
t4 -4t2.5 -3q2 -1 6.5 -3t9.5 -3.5t10.5 -3t9.5 -4t7 -5.5t3 -7v-37q0 -6 -4.5 -9.5t-9.5 -5.5t-9.5 -3t-4.5 -3q0 -5 2 -6.5t5.5 -1.5h7t7 -1t5.5 -3.5t2 -8.5v-7q0 -1 -1 -1h-1q-3 0 -4.5 2.5t-2 5.5t-2.5 5.5t-5 2.5t-3 -2.5v-3.5q0 -5 1 -9t1 -8q-1 0 -4 0.5t-3 1.5
l-6 24q-1 3 -2.5 5t-4.5 2t-3 -4q0 -1 -0.5 -4t-0.5 -7t-0.5 -7t-0.5 -4t-1 -4t-3 -3q-1 0 -2.5 2t-1.5 3t0.5 2t0.5 3t0.5 3.5l0.5 1.5v1q0 3 -1.5 5t-4.5 2t-4.5 -2t-2.5 -4.5t-2.5 -4.5t-4.5 -2t-3 3q0 6 1.5 9t4.5 4.5t6 1.5t6 1t4.5 2.5t1.5 5.5q0 2 -3 3.5t-6.5 3.5
t-8 4.5t-6.5 6.5q-3 6 -3.5 12.5t-0.5 12.5q0 2 0.5 5l1 6t2.5 5t5 2t3 -2v-5t-1 -7t-1 -7q0 -10 2 -16t6 -9.5t10.5 -5t15.5 -1.5q1 0 5 0.5t5 0.5q5 1 7.5 4t4 7t1.5 8.5v8.5q0 12 -3 18.5t-8 10t-11.5 5t-13.5 3.5t-14 6t-12 13q-2 3 -4 8t-2 9zM177 118q3 0 5.5 3
t4.5 7.5t3 10t3 10.5t4 8t6 3h1l1.5 -0.5t1.5 -1.5v-1.5v-2.5q0 -4 -3 -9.5l-6 -11l-6 -11t-3 -11.5q0 -4 1 -6.5t4 -6.5v-22q0 -4 -4.5 -5.5t-10 -2.5t-10 -2.5t-4.5 -6.5v-3v-2.5t0.5 -3.5t0.5 -4v-3q1 0 2.5 -0.5t2.5 -0.5t4 -0.5t7 -0.5q3 0 6 0.5t5 0.5l1 -2v-1v-1
l-1.5 -1.5l-1.5 -1.5h-22q-1 0 -1 -4v-8q0 -5 -1 -8.5t-5 -3.5v0q-1 0 -2 0.5t-2 0.5q1 13 0.5 25.5t-1.5 25.5q0 1 -1 2.5l-1 1.5h-18q-1 0 -1.5 0.5t-0.5 1.5q0 2 2 3.5t4 1.5q4 0 8 -1t8 -1h11t9 1.5t6.5 5t2.5 9.5q0 4 -0.5 6.5t-2.5 5.5h-1q-3 0 -6 -1.5t-6.5 -3.5
t-7.5 -3.5t-8 -1.5h-4.5t-5 0.5t-4.5 1.5t-2 4h24q1 0 2.5 1t3.5 2.5t3.5 3.5t1.5 3q0 3 -2.5 4.5t-4.5 2.5l-2 0.5t-5 0.5t-5 0.5l-2 0.5q-2 0 -4.5 0.5t-4.5 1l-4 1l-2 0.5l-2 1l2 2h3.5h5.5q8 0 15.5 -1.5t15.5 -1.5zM103 137q-2 1 -2 3h52q2 0 2 -1v-2q0 -2 -1 -2.5
t-3 -0.5h-1q-3 0 -9.5 0.5t-14 1t-14.5 1t-9 0.5zM79 106q1 0 3.5 0.5t5.5 0.5t6 0.5t4 0.5h2q3 0 4.5 -2.5t1.5 -6v-6.5v-5v-5v-6q-1 -1 -1.5 -1h-1.5q-3 0 -4 2.5t-2 3.5h-4h-4q-3 0 -4.5 -0.5l-3 -1t-2.5 -1t-3 -0.5v0v0q-1 0 -2 0.5l-1 0.5v20q0 1 2.5 3.5t3.5 2.5z
M80 94q0 -1 1.5 -2.5t3.5 -2l4 -1t4 -0.5q3 0 5 1.5t2 5.5q0 6 -8 6h-3t-4 -1t-3.5 -2t-1.5 -4z" />
</svg>
