<?xml version="1.0" standalone="no"?>
<!DOCTYPE svg PUBLIC "-//W3C//DTD SVG 1.1//EN" "http://www.w3.org/Graphics/SVG/1.1/DTD/svg11.dtd" >
<svg xmlns="http://www.w3.org/2000/svg" xmlns:xlink="http://www.w3.org/1999/xlink" version="1.1" viewBox="-10 0 266 256">
   <path fill="currentColor"
d="M139 245q0 2 1 4t3 2q3 0 4 -3t1 -6q0 -4 -0.5 -9t1 -8.5t4.5 -6.5t11 -3q2 0 3.5 1t2.5 2q-1 8 -0.5 16t2.5 15q0 2 1.5 2h2.5q2 0 3 -0.5t1 -2.5q0 -6 -1 -12t-1 -12q0 -4 2 -7t4 -5.5t3.5 -5.5t1.5 -7v-33l-0.5 -1t-2 -2t-3 -2.5l-1.5 -1.5q-1 -1 -2.5 -1.5l-1.5 -0.5
h-29q-6 0 -9.5 3t-6 8t-3 10t-0.5 10v4v6t0.5 5t2.5 4q1 1 3 2l4 2t3 2.5t1 3.5q0 7 -2.5 13.5t-2.5 14.5zM60 160h-2t-1 2v47q0 1 1.5 2.5t3.5 2.5t4.5 2t3.5 1h24q6 0 8.5 -5t3 -11t0 -12t-0.5 -9v-4v-5.5v-5.5v-3t-0.5 -1.5l-0.5 -0.5q-1 0 -2 -1t-2 0q-3 0 -3.5 3
t-0.5 6t-1 5.5t-4 2.5t-5 -3v-3v-4v-5v-2q0 -1 -1 -2.5l-1 -1.5v-4v-4q0 -1 2 -3q2 0 5 -1t6.5 -2.5t5.5 -4t2 -5.5v-29q0 -2 -1.5 -2h-2.5q-2 0 -3 0.5t-1 3.5v25q0 3 -2.5 4t-4.5 1h-1h-1q-1 -1 -1.5 -4.5t-0.5 -4.5v-3v-2v-6t0.5 -9t1 -9t0.5 -6q3 -2 5 -4.5t3 -5.5
t1.5 -6.5t1.5 -7.5q0 -2 0.5 -5.5l0.5 -3.5h10l0.5 -1.5t1.5 -2.5v-1q0 -2 -2 -3t-4 -1q-14 0 -29 2t-30 2q-3 2 -3 4v2.5t1 1.5h16l4 22q1 5 2.5 5.5l3 1t3.5 3t2 10.5l0.5 3t0.5 6t0.5 5.5t0.5 3.5v4t-1 5.5t-2.5 4.5t-4.5 2v0q-1 0 -2.5 -1t-3 -2.5l-2.5 -2.5t-1 -2v-28
l-3 -3q-4 1 -4 5v10v7v6v5.5t1 6.5q2 2 5 2.5t6.5 1t6 1.5t3.5 4v14l1 1.5l1 1.5v1v5q0 3 -0.5 5t-2 3t-4.5 1q-4 0 -5 -3t-1 -6.5t-1 -6t-4 -2.5zM65 201q0 -6 2 -10t5.5 -5.5t8 -2t10.5 -0.5q3 0 4 1t1.5 3.5t0.5 4.5v5t-1 6.5t-4 5.5h-8h-5t-6.5 -0.5t-5.5 -2t-2 -5.5z
M139 199q0 -1 0.5 -2t1.5 -1h37q2 0 2 1.5v2.5q0 2 -1 4.5t-4 2.5h-26q-3 0 -6.5 -2.5t-3.5 -5.5zM138 189q-1 0 -1.5 -1.5l-0.5 -1.5q0 -2 1.5 -3.5t3.5 -1.5h6t9 -0.5t9.5 -0.5h6.5h4q7 0 7 6v2t-1 1q-2 1 -4.5 1t-5.5 0.5t-5 0.5h-3h-5.5t-8 -0.5t-8 -0.5t-4.5 -1z
M141 171q0 -3 2.5 -5t5.5 -2.5t7 -0.5h5h2h3h3.5h2.5q2 1 4 3t2 5v1v1h-6t-9 0.5t-9.5 1t-6.5 0.5h-1q-2 0 -3.5 -0.5t-1.5 -3.5zM164 100q-2 0 -9 1t-14.5 2.5t-13 4t-5.5 5.5v26l1 1.5t2 1.5q1 1 3 2t4 1.5l4 1l2 0.5h3h6h6h3q5 0 11 0.5t11.5 0t10.5 -2.5t9 -6v-11v-8
t-1 -7.5t-3.5 -5.5t-7.5 -3q-4 -2 -11 -3t-11 -1zM158 131q4 0 6.5 4t2.5 7h-16q0 -1 0.5 -3l1 -4t2 -3t3.5 -1zM128 134q0 -1 1 -2.5t2 -0.5l18 -18q1 -1 2.5 -1.5t3.5 -0.5q1 0 6 3t10.5 7t10 7t4.5 4q1 4 -2 6.5t-6 2.5t-5.5 -2.5t-4.5 -6t-4.5 -6.5t-6.5 -3q-2 -1 -4 2
t-4.5 6.5t-5.5 6.5t-7 3q-3 0 -5.5 -1.5t-2.5 -5.5zM165 109v-1q1 0 2.5 -0.5t2.5 -0.5q3 0 6 0.5t6 2t4.5 4t1.5 6.5q0 1 -0.5 2l-1.5 3q-1 -1 -4.5 -3t-7 -4.5t-6.5 -5t-3 -3.5zM126 120v0l12 -12v0h1q4 0 4 3v2q-2 3 -5.5 6.5t-7.5 3.5q-2 0 -3 -0.5t-1 -2.5zM116 95
q0 1 1.5 1.5t2.5 0.5q5 0 11.5 -2t11.5 -5q2 -1 3 -3t1 -4t0.5 -4.5t1.5 -4t4.5 -2.5t9.5 -1q5 0 6 2t1 5v6t2 6t8 5t17 2h5h5t1.5 -0.5t0.5 -1.5v0q0 -2 -2 -3.5t-3 -1.5h-26v-16h1.5t3.5 -0.5t4 -0.5h4h18q3 0 3 -1.5v-2.5q0 -4 -3 -5t-7 -1h-1q-2 0 -5.5 0.5l-7 1l-7 1
t-5.5 0.5h-1q-1 0 -5 -0.5t-5 -0.5q-1 -2 -1 -3.5v-3.5v-2t1 -1q9 -1 15 -2.5t9.5 -5t5 -9t1.5 -15.5q0 -5 -6 -5q-5 0 -5 4q0 1 -0.5 4t-0.5 5.5t-0.5 5t-0.5 3.5q-3 4 -5.5 5.5t-6.5 1.5t-5.5 -1.5t-1.5 -4.5q0 -6 0.5 -12t0.5 -11v-4.5v-3.5q-2 -4 -5 -4q-2 0 -2.5 3
t-1 8t0 10.5t0 10t-1 7.5t-3.5 3q-6 0 -10 -2t-6 -6t-2 -9v-10q0 -1 -0.5 -1.5l-0.5 -0.5h-3.5h-3.5v5v8t0.5 8t1.5 5q2 5 6.5 6.5t9 2t8.5 1.5t4 5q0 3 -3 4.5t-6 1.5h-32q-1 0 -1.5 1.5l-0.5 1.5q0 1 0.5 2.5t1.5 1.5h23q1 0 1.5 1.5t0.5 2.5q0 2 -1 5t-3 4l-18 6
l-0.5 0.5t-0.5 1.5q-1 0 -1 1zM71 69v-3v-3q2 -4 6.5 -4.5t7.5 -0.5q6 0 6 5v6.5t-1 6.5t-2.5 5t-5.5 2q-7 0 -9 -3.5t-2 -10.5zM101 24q-3 0 -10 -0.5t-13 0t-11 3t-5 7.5q9 0 17 -0.5t16 -1.5q3 0 6.5 -0.5t3.5 -4.5q0 -2 -1 -2.5t-3 -0.5z" />
</svg>
