<?xml version="1.0" standalone="no"?>
<!DOCTYPE svg PUBLIC "-//W3C//DTD SVG 1.1//EN" "http://www.w3.org/Graphics/SVG/1.1/DTD/svg11.dtd" >
<svg xmlns="http://www.w3.org/2000/svg" xmlns:xlink="http://www.w3.org/1999/xlink" version="1.1" viewBox="-10 0 266 256">
   <path fill="currentColor"
d="M113 250l1 0.5t2 0.5h1q3 0 4 -3t2 -5v-3t0.5 -4.5t0.5 -4.5v-3v-7v-13v-12v-8q1 -21 2.5 -41.5t0.5 -41.5l3 -4q10 -1 14 -3t5 -5t1 -6t1.5 -5.5t6 -4.5t14.5 -2v18l1.5 1t4 2l5 2t3.5 2h1h1q1 -1 5 -1.5t5 -0.5q2 4 3 9v3v5v5v4q0 8 -0.5 16t-0.5 16v1l1 2.5t2 3.5v62
q0 5 -2 8.5t-2 8.5q0 3 2.5 4.5t5.5 1.5q1 0 3 -0.5t1 -2.5q0 -4 0.5 -13t0.5 -19t0.5 -19t0.5 -12v-3q0 -23 -1.5 -45.5t-2.5 -45.5v-6q0 -4 -0.5 -6.5t-2.5 -5t-6 -2.5q-9 -1 -15.5 -1.5t-14.5 -0.5h-11.5t-15 0.5t-13.5 3.5t-7 10q-3 20 -4.5 40t-2 40.5t-1.5 41t-2 40.5
v4v4zM179 250q1 1 2.5 1.5t2.5 0.5t3 -0.5t2 -3.5q1 -3 0 -6t-2 -6.5t-2 -6.5t-1 -6q0 -2 2 -4t3.5 -4t3.5 -5t2 -7q0 -5 -2.5 -8t-6 -5t-8.5 -2.5t-9 -1.5v-1q0 -2 1 -3t3 -2q1 0 3 -0.5t4.5 -0.5t4.5 -0.5t3 -0.5q2 0 2.5 -0.5t0.5 -2.5v-2.5t-2 -1.5h-21v-6q8 -1 13 -2.5
t7 -5t2.5 -9t0.5 -14.5v-16q0 -4 -2.5 -6t-6 -3t-6.5 -1h-7q-10 0 -16 1t-9 4t-4 8.5t-1 15.5q0 13 4.5 19t15.5 9v21q0 1 -1 1.5t-2 0.5t-2.5 0.5t-4 0.5t-4.5 0.5l-2 0.5l-2 1v1v1q0 1 1 1.5l1 0.5h35q6 0 7 1.5t1 6.5q0 4 -0.5 5.5t-4.5 1.5q-3 0 -5 -1l-5 -2.5
t-6.5 -2.5t-9.5 -1h-2.5h-5.5t-5.5 1t-2.5 2t0.5 3t1.5 2h28q2 0 2 1.5v2.5t-0.5 2l-1.5 3q-14 3 -30 5l-0.5 0.5l-0.5 0.5l-0.5 0.5l-0.5 0.5q0 2 2 3.5t3 1.5q9 0 14.5 -2t12.5 -4h3q3 0 4 2t2 5v3.5t0.5 5t0.5 5v3.5zM52 183q0 8 -0.5 18.5t1 19.5t7.5 15.5t18 6.5
q10 0 15.5 -2t8.5 -7t3.5 -12.5t0.5 -16.5v-2q0 -1 -0.5 -3.5t-0.5 -5t-0.5 -5t-0.5 -3.5h-2q-3 0 -4 2l-2 4l-2 4t-5 2h-2q-3 0 -3 -2v-33q6 -1 10 -2.5t6 -4.5t3.5 -6.5t2.5 -9.5t2 -11t1 -10q0 -3 -1 -5.5t-4 -2.5q-2 0 -3 0.5t-2 3.5v5t-0.5 8t-0.5 8v5q-1 5 -4 8t-7 6
q-1 -1 -2 -3t-1 -5v-5v-3v-9v-7.5t0.5 -8t1.5 -9.5q1 -2 3 -3.5t4.5 -2.5t4 -3t1.5 -5v-18q0 -2 2 -2.5t5 -1t5 -1.5t2 -3q0 -3 -3 -4t-6.5 -1.5t-7.5 -0.5h-6q-6 0 -11.5 0.5t-10.5 1t-11 1t-13 1.5v1.5v1.5q0 2 1.5 3.5t4 2t5.5 0.5h4l2 3v18l0.5 1t2 2t2.5 2t1 2
q2 1 3.5 1t3 0.5l3 1t1.5 2.5q0 11 -1 22.5t-3 22.5l-1.5 1.5l-1.5 1.5l-1.5 -0.5t-2.5 -1.5q-3 -2 -4 -6.5t-1.5 -9.5t0 -10t0.5 -7q-1 -3 -5 -3q-1 0 -3 0.5t-2 2.5v30q0 5 2.5 7.5t6.5 3.5t8 1.5t7 0.5v3v4q0 2 -0.5 6t-0.5 8.5t-0.5 8.5t-0.5 5q-1 3 -2.5 3.5t-3.5 0.5
h-1h-2.5t-2 -0.5t-0.5 -1.5v-13q0 -1 -1 -1.5t-2 -0.5h-4h-3zM62 214q0 -3 4 -5t9.5 -3t10.5 -1h8t3.5 2.5t0.5 4.5q0 5 -1 8.5t-3 9.5q-1 0 -2.5 0.5l-3 1t-3.5 1l-2 0.5h-1.5h-0.5q-11 0 -15 -4t-4 -15zM148 150l1 -2h2t4.5 -0.5t5 -0.5h4.5q0 -1 2 -1h5h2t3.5 0.5l3 1
t1.5 2.5q0 3 -2 4.5t-4.5 2t-5.5 0.5h-6q-6 0 -8.5 -1t-3.5 -2t-1.5 -2t-2.5 -2zM146 136q0 -4 3 -5t7.5 -1.5t8.5 0t5 0.5h11q2 0 2 1.5v2.5q0 2 -0.5 3.5t-3.5 2.5h-10h-5h-8t-7 -1t-3 -3zM149 116q6 -1 10.5 -1h10.5h5h4q2 0 2.5 1t0.5 2q0 3 -2.5 4t-5.5 1h-27
q0 -4 2 -7zM129 86q0 -4 4 -7t7 -3t3.5 2t0.5 4q0 5 -2 8t-7 3q-3 0 -4.5 -2t-1.5 -5zM71 80v-2.5v-2.5q2 -3 6.5 -4t7.5 -1h3q3 0 3 2v16q0 1 -1.5 2t-3.5 1h-4h-3q-6 0 -7 -2.5t-1 -8.5zM178 84q0 -2 0.5 -5t2.5 -4h6q6 0 9.5 1t3.5 7v3.5t-2 3.5h-3.5h-3.5h-4t-4.5 -0.5
t-3.5 -1.5t-1 -4zM121 50q1 2 2 2.5t3 0.5q7 0 13 -4t11.5 -8.5t10.5 -8.5t10 -4h5t5 1t3.5 2.5t1.5 4.5t-3.5 4.5t-8 2.5t-8.5 2.5t-7 6.5q2 1 3 1h3q1 0 6 -1t11 -2.5t11 -3.5t5 -3v-13q0 -4 -4.5 -6t-10 -3t-10.5 -1.5t-7 -1.5l-2.5 -0.5t-5.5 -1t-5.5 -1t-3.5 -0.5
l-1 -1l-2 -2t-2 -1.5l-1 -0.5l-1.5 -0.5t-2.5 -0.5t-3.5 0.5t-1.5 3.5t4 5t5.5 3t4.5 2.5t2 4.5q0 5 -4 7.5t-8.5 4.5t-9.5 4t-7 6zM62 36q0 3 3 4t5 1h2q2 0 6.5 -0.5l9 -1l9 -1t6.5 -0.5q1 -1 1 -1.5v-1.5q0 -4 -3 -4.5t-6 -0.5h-1q-1 0 -5.5 0.5l-9 1t-8.5 1t-5 0.5
t-2.5 1.5z" />
</svg>
