<?xml version="1.0" standalone="no"?>
<!DOCTYPE svg PUBLIC "-//W3C//DTD SVG 1.1//EN" "http://www.w3.org/Graphics/SVG/1.1/DTD/svg11.dtd" >
<svg xmlns="http://www.w3.org/2000/svg" xmlns:xlink="http://www.w3.org/1999/xlink" version="1.1" viewBox="-10 0 266 256">
   <path fill="currentColor"
d="M40 182q0 15 0.5 27t3.5 21t10 14t21 5h6.5t6.5 -1t5 -3.5t4 -6.5q1 -7 1 -13t0.5 -10.5t0.5 -10v-11.5v-12q-1 -1 -2 -1.5t-2 -0.5h-1q-2 0 -2 3v7t-1.5 7.5t-7.5 3.5q-1 0 -3 -0.5t-2 -2.5v-29q0 -2 1.5 -4t4 -3t4 -2t2.5 -1q4 -3 6 -9.5t3 -14t0.5 -14.5t-0.5 -11
h-2.5t-3 0.5t-2.5 2t-1 3.5v29q0 3 -3 4.5t-5 1.5t-3 -1.5t-1.5 -3.5t-0.5 -4.5v-4.5q0 -5 0.5 -9.5t0.5 -8.5t0.5 -9t0.5 -11q2 -2 3.5 -3t3.5 -2.5t3.5 -2.5t2.5 -4q0 -1 1 -5.5t1.5 -9t1.5 -8.5t1 -6q2 0 4 -0.5t4 -1.5t3.5 -2.5t1.5 -4.5t-1.5 -4t-4.5 -1q-12 0 -24 2
t-24 2q-5 0 -9.5 -1t-8.5 -1q-3 0 -4 1.5t-1 4.5q0 2 0.5 4t3.5 2h18v27q0 2 2.5 3t5.5 3t5.5 4t2.5 6v50l-3 0.5t-5 1.5h-2q-4 0 -5.5 -3t-2 -7t-0.5 -9t-0.5 -9.5t-2.5 -7.5t-6 -3v33q0 6 4 9t8.5 4.5t8.5 1.5t4 1v35q0 1 -1.5 2t-3 1.5l-3 1t-2.5 0.5t-2.5 -0.5t-3 -0.5
t-2.5 -0.5t-1 -1.5v-18q0 -2 -2.5 -2h-2.5q-2 0 -3.5 0.5t-1.5 2.5zM169 193q0 12 1 21.5t4 16.5t9.5 11.5t17.5 4.5q8 0 12 -5.5t6 -13.5t2 -16.5v-14.5v-13v-12t-0.5 -12.5t-1.5 -13.5q-2 -7 -6.5 -9t-9.5 -2q-15 0 -21.5 3.5t-9 10.5t-2.5 18q0 10 -1 24v2zM107 184
q0 12 0.5 22t3.5 18t9.5 12t18.5 4q5 0 9 -0.5t6.5 -2t4.5 -5t4 -8.5v-5v-7v-7v-5v-6v-7.5v-6.5v-4l-0.5 -2.5t-0.5 -6t-0.5 -6.5t-0.5 -5q-1 -7 -2.5 -11t-4.5 -5.5t-7 -2t-10 -0.5q-12 0 -18 2.5t-8.5 8.5t-3 15t-0.5 21zM53 217q0 -6 3.5 -7.5t8.5 -2.5h5.5h8.5h8h5v7.5
t-1 9.5t-3.5 8.5t-6.5 3.5h-20q-2 0 -3.5 -2t-2.5 -5t-1.5 -6t-0.5 -6zM177 195q0 -4 2 -4h5h5l1 1l1 1v41q-6 0 -9 -5t-4 -11t-1 -13v-10zM198 210v-6q0 -4 0.5 -7t2 -4.5t5.5 -1.5h1h2t2 0.5t1 1.5v11v8t-1 9.5t-3 7.5t-6 3h-2q-2 -6 -2 -11v-11zM115 191q1 -3 4 -3.5
t6 -0.5h1.5t3 0.5t2.5 1.5t1 2v35q0 1 -1 1.5t-2.5 0.5h-2.5h-1q-5 0 -7.5 -4.5t-3 -10.5t-0.5 -12v-10zM149 186q1 0 2.5 0.5t2.5 0.5l1 4l0.5 1t0.5 3v3v3v10.5t-1.5 9t-4.5 6t-9 2.5v-40l1 -1l1 -1l2.5 -0.5t3.5 -0.5zM177 174v-11.5t1 -12.5q2 -3 4.5 -5t4.5 -2t3 2t1 4
v4.5v3.5q0 6 -0.5 11t-1.5 13q0 2 -2 2h-3q-4 0 -5.5 -2t-1.5 -7zM198 183v-35q0 -3 2 -4t3 -1q3 0 4.5 2t2.5 4t1.5 4.5t0.5 4.5v5t0.5 7t0.5 8v5h-15zM140 174q0 -1 -0.5 -5t-0.5 -5v-5t0.5 -6t2 -5t4.5 -2t5 2t3 5t1 6.5v6.5q0 6 -1 10t-7 5q-1 0 -2 -1l-2 -2l-2 -2
t-1 -2zM114 168q0 -9 3 -15.5t12 -8.5q1 -1 2.5 0t1.5 2v28l-4 5h-13l-1 -3l-0.5 -3t-0.5 -5zM127 48v3q1 17 1.5 28t3.5 18t11 9.5t23 2.5q11 0 18.5 -2.5t12 -8t6.5 -14.5t2 -22q0 -9 -0.5 -17.5t-3.5 -16t-8 -12t-14 -4.5h-19t-16.5 3t-12 10.5t-4.5 22.5zM137 74
q0 -3 2 -4.5t4.5 -2t4.5 -0.5h4h3t2 1l2 2v26q0 2 -2 2h-3q-10 0 -13.5 -6.5t-3.5 -17.5zM168 96v-10v-4v-6t1.5 -5.5t3.5 -2.5h22l0.5 1.5t0.5 2.5v1q0 11 -6 18t-15 7l-1 0.5t-3 0.5q-1 0 -2 -0.5t-1 -2.5zM63 68q0 -6 2.5 -9t5.5 -4t7.5 -1h8.5v12.5t-1 9.5t-4 6t-9 2
t-8 -4.5t-2 -11.5zM136 52q0 -5 0.5 -10.5t3 -9t5.5 -6t9 -2.5h2.5t2.5 2v31q0 1 -1.5 1.5t-2.5 0.5h-2h-3h-4q-3 0 -5 -0.5t-3.5 -2t-1.5 -4.5zM168 52v-1v-4.5t0.5 -7.5t0.5 -7.5v-5.5q2 -3 5.5 -3.5t5.5 -0.5q4 0 6.5 2t4.5 5.5t3 7.5t1 8q0 1 -0.5 3t-0.5 4t-1 3.5
t-2 1.5h-22l-0.5 -1.5t-0.5 -2.5v-1zM51 14v2.5t2 1.5h42q4 0 5 -0.5t1 -3.5q0 -1 -0.5 -2.5t-1.5 -1.5h-46q-2 0 -2 1.5v2.5z" />
</svg>
