<?xml version="1.0" standalone="no"?>
<!DOCTYPE svg PUBLIC "-//W3C//DTD SVG 1.1//EN" "http://www.w3.org/Graphics/SVG/1.1/DTD/svg11.dtd" >
<svg xmlns="http://www.w3.org/2000/svg" xmlns:xlink="http://www.w3.org/1999/xlink" version="1.1" viewBox="-10 0 266 256">
   <path fill="currentColor"
d="M44 251q0 1 1 1.5t2 0.5q2 0 3 -1.5t2 -3.5q-1 -4 -1 -12.5v-18.5v-18.5t1 -12.5v-3.5v-5.5t0.5 -5.5t0.5 -3.5h3q9 0 17.5 1.5t17.5 1.5h2.5h1.5q1 -1 1.5 -2l0.5 -1q-1 -4 -4 -4.5l-6 -1t-5.5 -1.5t-2.5 -7v-5.5t0.5 -6l0.5 -2.5h13q2 0 2 -2v-2v-2q-3 -2 -6 -2.5
t-5.5 -1.5t-3.5 -3t-1 -7v-3t1 -4t2 -3t4 -1h1t2.5 0.5t2.5 0.5h1q1 0 2.5 -1t1.5 -2q-2 -4 -5.5 -4.5t-6.5 -1t-5.5 -3t-2.5 -10.5q0 -2 1 -3t3 -1q3 0 6 0.5t6 0.5h2.5t1.5 -2q0 -3 -3 -4t-7 -2t-7 -2t-3 -5q0 -3 2.5 -5t6 -4t6 -4t2.5 -6q0 -6 -2.5 -10.5t-5 -7t-5 -4
t-2.5 -2.5v-14q0 -1 -1 -1t-2.5 -0.5t-2.5 -0.5h-1q0 1 -0.5 3t-0.5 4.5v5v3.5q0 2 -2.5 3.5t-5.5 3t-5.5 2.5t-4.5 2q0 1 -2 2t-3 2v7q0 6 2.5 9.5t5.5 5.5t5 3.5t2 3.5t-2 5t-4.5 6.5l-5 7t-3.5 7.5q-3 25 -3.5 50t-0.5 50v27v27zM159 248q0 3 4 3q2 0 3.5 -1.5t2 -4l1 -5
t0.5 -3.5q0 -15 -2 -30t-2 -29v-3v-3q2 -1 3 -1h3q4 0 9 1t9.5 2t9 2.5t8.5 1.5q2 0 2.5 -1.5t0.5 -3.5q0 -4 -3 -4.5t-6.5 -1.5t-6.5 -4.5t-3 -14.5v-6l2 -1h16q0 -5 -2.5 -6t-6 -1.5t-6.5 -1.5t-3 -5v-15l1.5 -1.5l1.5 -1.5h1q3 0 5 1t5 1t3.5 -1.5t0.5 -3.5v-2v-2
q-4 -1 -8 -1.5t-7 -1.5q-2 -5 -2.5 -8.5t-0.5 -7.5v-6l1.5 -1.5t1.5 -0.5h2l3 1l3 1h1q4 0 4 -4q0 -2 -1 -3.5t-2 -2t-2.5 -1.5t-1.5 -3q0 -3 1.5 -5.5t2.5 -5.5t2 -5.5t1 -5.5t-1 -4.5t-3 -2t-4 -1.5t-3 -1q-4 -2 -6 -5t-3 -6t-1.5 -5.5t-3.5 -2.5q-2 0 -3 2.5t-1 5.5v6
t-2 5q-1 2 -3.5 4t-4.5 4t-3.5 4.5t-1.5 6.5t1.5 7t4 5t5.5 3t7 2v4q0 1 -2.5 3t-4.5 4.5t-4.5 4.5t-2.5 3q-3 4 -4 9.5t-1 11.5v11v10q0 1 -0.5 4.5l-1 7l-1 7t-1.5 4.5v3v6.5v7.5v5v5v6.5v6.5v4q1 2 2 7t1.5 11.5t0.5 12v7.5q0 1 -0.5 2.5t-1 3.5l-1 4t-1.5 2v2zM119 159
v-13l-2.5 0.5t-3.5 0.5q-1 1 -1.5 2t-0.5 2v40q0 2 2.5 3t5 1.5t5.5 0.5h5h4.5t7.5 -0.5t6.5 -2t2.5 -4.5v-38q0 -1 -0.5 -2t-1.5 -2l-1 -0.5l-1 -0.5v13h-12l-0.5 -1l-1.5 -3v0v-1v0q0 -2 0.5 -4t1 -5t0.5 -6v-5q1 -1 3.5 -1.5t5 -1.5t4.5 -2.5t3 -3.5q1 -7 1.5 -15
t0.5 -16q-3 0 -4.5 2t-1.5 5.5v7v6.5t-1.5 5t-6.5 2q-1 0 -2 -0.5t-2 -2.5q2 -7 2 -15.5t-1 -14.5q2 -3 4 -4l4 -2t3.5 -2.5t1.5 -5.5v-3v-5v-5v-4q1 -2 3.5 -4.5l3.5 -3.5v-1q0 -2 -1.5 -2h-2.5h-3q-2 0 -7.5 0.5t-11.5 1t-11.5 1t-7.5 0.5q-1 0 -2 0.5t-2 1.5v1q0 2 1.5 2
t3.5 1t4 3t3 8v3t0.5 4t0.5 4v2q4 5 8 7q0 1 0.5 3t1 4.5t0.5 4.5v3v2v2v3.5t-0.5 6t-1 6t-0.5 3.5t-1 1h-2q-2 0 -6 -2t-4 -5v-25q-3 0 -4 1.5t-1.5 3.5t-0.5 4.5v3.5q0 8 1 12.5t3 7t4.5 3t4.5 0.5t4 1t2 3v6v6v3.5t-0.5 4.5t-0.5 3.5v1.5h-7zM118 175q0 -4 1.5 -5.5
t4.5 -2t6 -0.5h5t5 0.5t4 0.5t1 0.5v2.5v1.5v1.5v2.5t-0.5 4.5l-1 4t-1.5 2h-19q-2 0 -2.5 -1.5t-1.5 -3.5t-1 -4v-3zM168 141l1 -2h2.5h2.5h2h4t3.5 1t1.5 2v17q0 3 -2.5 4t-4.5 1h-2.5t-3.5 -0.5t-3 -1t-1 -1.5v-20zM51 146q0 -1 0.5 -3l0.5 -2l3 -4h2h2q3 0 6.5 0.5
t5.5 3.5l0.5 2.5t0.5 5.5t0.5 5t0.5 3v1v1q-1 0 -2 1t-2 1v0q-6 0 -9 -0.5t-5 -2t-3 -4.5t-1 -8zM169 124q0 -4 0.5 -8t1.5 -9q2 -1 3.5 -1.5t3.5 -0.5q5 0 7 4l0.5 3t0.5 4q0 3 -0.5 6t-1.5 5t-3.5 3t-6.5 1q-3 0 -4 -2t-1 -5zM53 121q0 -4 0.5 -7t1.5 -7q1 -1 2.5 -1.5
t3.5 -0.5q7 0 9.5 4.5t2.5 10.5v7q-2 2 -3.5 2h-3.5q-5 0 -9 -1.5t-4 -6.5zM56 95q0 -2 1 -5t3 -5.5t4 -4.5t5 -2v0.5v0.5q1 0 1.5 0.5l0.5 0.5v19l-2 1q0 1 -2 0.5t-4.5 -1t-4.5 -2t-2 -2.5zM171 97v-1q0 -2 1.5 -4t3 -3.5l3 -3t2.5 -1.5l0.5 -0.5l0.5 -0.5q3 0 3 2.5v4.5
q0 4 -1 6.5t-5 2.5h-2l-2.5 -1t-3.5 -1zM122 64v-3q0 -2 1 -3q0 -1 1.5 -2t3.5 -1h4h3h6q1 2 1 5.5v5.5q0 5 -2 9t-8 4q-5 0 -7.5 -5t-2.5 -10zM56 53q0 -3 2 -6t4.5 -5t5.5 -4t6 -3q3 1 5 2t3.5 2t2.5 2.5t1 4.5v4q0 1 -2 2q-1 0 -2 1l-1 1l-7 -7v4q0 3 -0.5 6t-2 5.5
t-4.5 2.5q-1 0 -3 -1t-4 -3.5t-3 -4.5t-1 -3zM172 51q0 -5 2.5 -10t9.5 -5q2 0 5 1t5.5 2.5t4 3.5t1.5 5q0 2 -2 4l-3 3q-1 -1 -1.5 -2t-1.5 -2.5t-2 -2.5t-2 -1q-3 0 -3 2t0.5 5t0 5.5t-3.5 2.5q-5 0 -7.5 -3t-2.5 -8zM110 29q-2 0 -2 1.5v3.5q10 0 20 -0.5t20 -1.5v-6
q-9 0 -19 0.5t-19 2.5z" />
</svg>
