<?xml version="1.0" standalone="no"?>
<!DOCTYPE svg PUBLIC "-//W3C//DTD SVG 1.1//EN" "http://www.w3.org/Graphics/SVG/1.1/DTD/svg11.dtd" >
<svg xmlns="http://www.w3.org/2000/svg" xmlns:xlink="http://www.w3.org/1999/xlink" version="1.1" viewBox="-10 0 266 256">
   <path fill="currentColor"
d="M118 47v41v6.5t-0.5 11.5t-1 11.5t-0.5 7.5q-1 29 -1 58t-2 59v4v5q4 0 6 -1.5t3 -5.5v-11.5v-17t0.5 -20t0.5 -20v-17v-11.5v-49q1 -2 6 -3.5t11 -4t11 -7t5 -13.5q1 -1 1 -7t1 -13.5t1 -14t1 -10.5v-1.5v-1.5q0 -2 -1 -4.5t-3 -3.5h-2.5h-1.5v16q0 1 -2.5 1.5t-6.5 1.5
t-8.5 2t-8.5 3t-6 4t-2 5zM160 246v3t3 1q1 0 3 -1t2 -2v-46q0 -3 2 -3h4q5 0 7 5t3 12.5t2 14.5t3 12h1q4 0 4.5 -3t0.5 -5t-0.5 -5.5t-2 -8t-2 -8t-1.5 -5.5q-1 -9 -4 -12t-6.5 -4.5t-6 -2t-2.5 -3.5q0 -2 4 -3t8.5 -3t8.5 -6t4 -13q0 -13 -3.5 -18.5t-8 -8t-8 -3.5
t-3.5 -5t3.5 -6t8 -3.5t8 -3.5t3.5 -7q-5 0 -8.5 2t-8.5 2h-2h-2v-4q0 -2 -0.5 -4.5t-1.5 -4t-4 -1.5h-1.5t-1.5 1q0 1 0.5 3t0.5 4.5t0.5 4.5l0.5 2v1q-5 0 -8 -1.5t-5.5 -4t-5 -4.5t-6.5 -2q0 6 3.5 9t8 5.5t8 5t3.5 7.5v2v2h-3h-4.5t-5 0.5t-3.5 1.5q-5 2 -7 4.5t-3.5 6
t-1.5 7.5v8v10q2 5 6 7t9 3.5t8.5 3t3.5 4.5q0 1 -0.5 1h-0.5q0 1 -0.5 1.5l-0.5 0.5q-1 1 -3 2t-4.5 2t-4.5 2l-2 1q-3 2 -5.5 8t-4 13t-2.5 13.5t-1 10.5q5 0 7.5 -2.5t3 -6t0 -7.5t0.5 -8q0 -1 1 -4.5t3 -7t4 -6.5t4 -3t3 0.5t1 3.5v2v3v3v3q0 8 -1 17t-1 18zM209 193v59
q6 0 7 -2t1 -7q0 -36 -2.5 -71.5t-2.5 -70.5q0 -11 2 -22.5t2 -22.5v-12q-4 -6 -9.5 -8t-11 -3.5t-9 -2t-3.5 -3.5v-16q-3 0 -5 1t-2 4v63l0.5 1.5t0.5 2.5q3 3 7.5 5t9 3.5t8 2.5t3.5 2q0 10 -0.5 23t-0.5 26t1 25.5t4 22.5zM51 172h-2.5t-1.5 1v48q0 4 4 6t9.5 3t10.5 1h7
h5q9 0 12 -1t3.5 -3t0.5 -5t4 -8v-37q0 -1 -1.5 -3t-3.5 -2h-1q0 3 -0.5 5.5t-1.5 4.5t-3 3t-5 1h-3h-3l-0.5 -1l-0.5 -1v-30l0.5 -0.5l0.5 -0.5q9 -3 13.5 -4t6.5 -3t2 -7v-15v-15q0 -2 -1.5 -3.5t-3.5 -1.5v10t-1 13.5t-3 11.5t-7 5h-3t-3 -2v-44q0 -5 2.5 -7t5.5 -3.5
t6 -4t4 -9.5q0 -1 0.5 -4t0.5 -6t0.5 -5.5t0.5 -3.5q1 -2 2.5 -2.5t3.5 -1t3.5 -2t1.5 -3.5t-1 -2.5t-2.5 -1t-3.5 -0.5h-2q-15 0 -29.5 1.5t-30.5 0.5q0 1 -2 3t-3 2v1q0 2 2.5 4t4.5 2l1.5 -0.5t2.5 -0.5l1.5 -0.5l1.5 -0.5q4 0 5 3t1 6q0 4 -0.5 7.5t-0.5 4.5q0 5 2.5 8
t5.5 4.5t5.5 2.5l2.5 1v46q0 3 -1.5 5t-4.5 2t-6.5 -3t-3.5 -6v-30l-1 -1q-1 -1 -2.5 -1.5l-1.5 -0.5q-1 0 -2 2.5l-1 2.5v16v14.5t2.5 8.5t7 4.5t14.5 2.5v1v1v2v1q0 3 -0.5 7t-0.5 7.5t-0.5 6.5l-0.5 3l-2 4h-12l-0.5 -2t-0.5 -3q-1 -1 -1.5 -4.5t-0.5 -4.5h-3zM56 207v-4
t0.5 -4t2 -3.5t3.5 -1.5h32q1 0 1 2t0.5 4.5t0.5 4.5v2q0 8 -7 14q-1 0 -3.5 0.5t-5.5 0.5t-5.5 0.5t-3.5 0.5h-1q-7 0 -10.5 -4.5t-3.5 -11.5zM142 154q0 -7 5.5 -12t12.5 -5q3 0 4 0.5t1 3.5t0.5 8t0 10.5t-2 10t-6.5 4.5q-4 0 -7 -1.5t-5 -4t-2.5 -6.5t-0.5 -8zM175 139
h3t4.5 1t4 2.5t1.5 3.5v20q0 3 -2 4.5t-5 2t-5.5 0.5h-3.5v-33l0.5 -0.5t1.5 -0.5h1zM153 149q-1 4 -2.5 7.5t-1.5 7.5q1 0 3 -0.5t3 -0.5l0.5 -0.5t0.5 -1.5v-12h-3zM177 148v5t0.5 5.5t2.5 4t5 1.5q0 -2 -0.5 -5t-1 -5.5t-2.5 -4t-4 -1.5zM152 63q0 4 -2 8.5t-5.5 8
t-7.5 6t-8 2.5q-1 0 -2.5 -0.5t-1.5 -1.5v-16q0 -1 3.5 -2t8.5 -2t9 -2t6 -1zM182 72v-3q0 -2 0.5 -4t1.5 -3t3 -1q4 0 8 1t7 2.5t5 4.5t2 8q0 4 -2.5 5.5t-5.5 1.5h-7.5t-6 -1.5t-4 -4t-1.5 -6.5zM66 66v-6t3 -5q1 -1 3.5 -1.5l5 -1t4.5 -1t3 -0.5h1q3 0 6 4v7v4t-0.5 6
t-1.5 6t-3 3h-16q-2 0 -3 -2t-1.5 -4.5t-0.5 -5v-3.5zM153 40q0 6 -2.5 10t-6.5 6t-9 3t-10 1q0 -6 2 -10t6 -6.5t9 -3t11 -0.5zM182 47q0 -2 1.5 -3.5t3.5 -2t4.5 -1t4.5 -0.5l2.5 0.5t3.5 0.5q5 3 5 9v2.5t-2 2.5h-6h-5t-5.5 -0.5t-4.5 -2t-2 -5.5zM56 22v2.5t1 2.5h11h10
t8 -0.5l8 -1t10 -0.5q1 -1 1.5 -2t0.5 -2q-1 -3 -3 -3h-4h-5h-7.5t-11.5 0.5t-11.5 0.5h-7.5v3z" />
</svg>
