<?xml version="1.0" standalone="no"?>
<!DOCTYPE svg PUBLIC "-//W3C//DTD SVG 1.1//EN" "http://www.w3.org/Graphics/SVG/1.1/DTD/svg11.dtd" >
<svg xmlns="http://www.w3.org/2000/svg" xmlns:xlink="http://www.w3.org/1999/xlink" version="1.1" viewBox="-10 0 266 256">
   <path fill="currentColor"
d="M199 245q0 2 1.5 3.5t3.5 1.5q3 0 4 -1.5t1.5 -4t0.5 -5v-4.5q0 -22 -1.5 -42.5t-1.5 -43.5v-6v-32q-1 -12 -7 -16t-16 -4h-6l-0.5 1t-1.5 1v1v1q1 0 2 1.5t1.5 1.5t2 0.5t3.5 1t3.5 1t2.5 0.5q3 2 4.5 6t2 8.5l1 9t0.5 7.5v8.5t0.5 16.5t0.5 17.5v13.5v7q0 12 -0.5 24.5
t-0.5 25.5zM91 185h2h3.5t2.5 1t1 2v55q0 4 3 4.5t6 0.5q0 -8 -1.5 -16t-1.5 -16v-1l0.5 -2.5t1 -5.5t0.5 -5.5v-3.5h2h1q3 0 5.5 2.5t5.5 2.5q1 0 2.5 -1t1.5 -2q0 -5 -5 -8t-11 -6.5t-11 -7t-5 -7.5q0 -3 2 -5t4.5 -2.5t6 -1.5t6.5 -2.5t5 -5t2 -10.5q0 -6 -2 -9.5
t-4.5 -5t-5.5 -2t-5.5 -1.5t-4 -3t-1.5 -7q0 -4 2.5 -5.5t6.5 -3t7.5 -2.5t5.5 -4q0 -1 0.5 -3.5l0.5 -2.5q0 -7 -1.5 -10.5t-3.5 -5.5t-5 -3t-5.5 -2.5t-5 -4t-4.5 -7.5h-1q-2 0 -3 1.5t-1.5 3.5l-1 4t-2.5 3q-3 1 -6.5 2.5l-7 3t-5.5 4.5t-2 7q0 7 4 11t8.5 6t8 3l3.5 1
v11q0 2 -2.5 3l-2.5 1q-1 0 -3.5 1t-6 1.5t-6.5 1t-4 1.5l-3 3l-0.5 2.5t-0.5 3.5q0 9 2 13t5 5.5t6.5 2t6 1t4.5 3t2 7.5v4q-2 2 -9 4.5t-14 5.5t-12.5 5.5t-5.5 4.5q0 4 3 4h2l2 -1t4.5 -2t4.5 -2t3 -1q1 -1 2.5 -1.5t2.5 -0.5l1.5 1.5l1.5 1.5v34q-1 3 -2.5 6.5t-1.5 6.5
q0 2 1.5 2.5t3.5 0.5q4 0 5.5 -4.5t1.5 -11.5q0 -6 -0.5 -14.5t0 -15t3 -11t8.5 -4.5zM129 246q0 2 1.5 2h3.5h2.5t1.5 -2q0 -1 0.5 -5.5l1 -9t0.5 -8.5v-6v-2v-8.5t0.5 -14t0.5 -16.5v-16.5t0.5 -14t0.5 -8.5v-8t0.5 -8t2 -8t3.5 -7q2 -2 5 -3.5t5.5 -3l5 -3t2.5 -5.5
q-11 0 -17 3t-9 8t-3.5 12.5t-1.5 17.5q-1 17 -1.5 33t-2.5 33v1q0 2 0.5 4t0.5 5q0 9 -1.5 18.5t-1.5 19.5zM153 137v3v4.5t0.5 8t0.5 8.5v4v9t0.5 9.5t3 8t8.5 3.5h3l2 -0.5t4 -0.5t3.5 -0.5t2.5 -0.5q3 -2 4.5 -5t1.5 -6q0 -7 0.5 -13t1 -11.5t0.5 -11v-12.5q0 -4 -2 -6
t-7 -2v20q0 2 -1.5 2.5t-3.5 0.5t-3.5 0.5t-2.5 0.5l-2.5 -0.5l-2.5 -0.5q-2 0 -2.5 -2.5t-0.5 -3.5v-3v-4v-5v-3l-1 -0.5l-1 -0.5h-1q-3 0 -4 4t-1 6zM161 166v-4v-3l1 -1h16l1 3q1 0 1 3v4v6q0 4 -1 6t-2.5 3.5t-5.5 1.5t-6.5 -1.5t-3 -4.5t-0.5 -6v-7zM72 143
q0 -4 3 -5.5t7 -2.5t8.5 -0.5t7.5 0.5q6 0 9 1t3 8t-5 9.5t-11 2.5q-3 0 -7 -0.5t-7.5 -1.5t-5.5 -4t-2 -7zM76 93q0 -4 2.5 -6t6 -3.5t7 -1.5h6.5h4h4t1.5 0.5l0.5 0.5q1 1 1.5 2.5l1 3t0.5 3v1.5q1 3 -1 5t-4.5 2.5t-5.5 0.5h-5h-6q-3 0 -6 -0.5t-5 -2t-2 -5.5zM130 75
q0 4 4 4q1 0 1.5 -0.5t1.5 -0.5q9 -5 14.5 -12t7.5 -14.5t2 -16.5v-20h-3t-4 1l-0.5 0.5l-0.5 0.5q0 5 0.5 11t0 12t-2 11.5t-5.5 9.5q-1 1 -3.5 3l-5 4l-5 4t-2.5 3zM176 46q0 4 2.5 9.5t6 10t8.5 7.5t10 3q2 0 3.5 -1t1.5 -4t-3 -5.5t-6.5 -5t-6.5 -5.5t-5 -7
q-2 -8 -2 -17t1 -17q0 -3 -1 -3h-3h-2.5t-1.5 1v9t-0.5 8l-1 8t-0.5 9zM54 39v1q1 1 1.5 3.5t1 5.5t1 5.5l0.5 2.5q0 4 0.5 5t2.5 1t3.5 -0.5t2.5 -3.5v-8t1 -9.5t3.5 -8t7.5 -3.5h2h2q3 5 3.5 10.5t1.5 10.5q1 1 2.5 1.5t3.5 0.5q3 0 3 -3v-5q0 -4 -1 -7.5t-1 -6.5
q0 -5 4 -6.5t8 -1.5q2 0 3.5 2.5t2 5.5l1 6t0.5 4q1 1 2 3l2 4t1.5 3.5t1.5 2.5q0 1 2 1.5t3 0.5v0q5 0 5 -4q0 -3 -2 -6l-4 -6l-4 -6t-2 -7q0 -3 2.5 -4t5.5 -1.5t5.5 -1.5t2.5 -4v0q0 -1 -0.5 -2t-0.5 -2h-2.5h-1.5q-4 0 -10.5 0.5t-15 2t-17.5 3.5t-16 5t-12 7t-5 9z" />
</svg>
