<?xml version="1.0" standalone="no"?>
<!DOCTYPE svg PUBLIC "-//W3C//DTD SVG 1.1//EN" "http://www.w3.org/Graphics/SVG/1.1/DTD/svg11.dtd" >
<svg xmlns="http://www.w3.org/2000/svg" xmlns:xlink="http://www.w3.org/1999/xlink" version="1.1" viewBox="-10 0 266 256">
   <path fill="currentColor"
d="M157 211q3 0 5.5 3.5t4 7.5t3.5 8.5t5 7.5q1 0 3 1.5t4 2.5t4 2.5t3 1.5l3.5 3.5t4.5 1.5q1 0 2.5 -0.5t0.5 -2.5q0 -4 -2 -6t-5 -3.5t-5.5 -3t-4.5 -3.5q-4 -4 -7 -9t-5 -9v-0.5v-0.5v-0.5v-1.5q1 0 2.5 -1.5l3 -3l3 -3t1.5 -2.5q1 -1 3 -4l2 -3v-25l-0.5 -1.5t-1 -2
l-1.5 -1.5t-2.5 -2t-2.5 -2l-1 -1h-13h-14.5t-13 2.5t-9 7.5t-3.5 14q0 6 1 10t2.5 7t4.5 6t7 8v1v1q0 6 -3.5 9.5t-7.5 7t-7.5 6.5t-3.5 6q0 1 0.5 2t1.5 1t4 -1.5t6.5 -3t6 -3.5t3.5 -2q2 -3 3.5 -7.5t3.5 -9t4.5 -7.5t6.5 -3zM76 220l1.5 1.5t1.5 0.5t2.5 -5.5t3 -12
l3 -13t1.5 -8.5q1 -3 2.5 -6.5t3.5 -6.5t3.5 -6.5t1.5 -7.5q0 -2 -1 -2.5t-4 -0.5l-31 1q-2 0 -2.5 1.5t-0.5 3.5q0 4 3 8.5t5 8.5q3 10 5 21.5t2 22.5zM140 198q0 -1 0.5 -2.5t1.5 -1.5h33q0 4 -3 6t-7 3t-8.5 1h-6.5q-3 0 -6.5 -1t-3.5 -5zM133 183v-3t1 -2q8 -2 13.5 -2
h13.5h2h4h4h3q2 1 2.5 2t0.5 3v3t-2 2q-8 1 -19 2.5t-20 1.5q-3 0 -3 -3v-4zM76 166q0 -4 2.5 -5t7.5 -1q1 0 1.5 1.5t0.5 2.5q0 2 -1 4.5t-2 5.5t-2.5 5.5t-2.5 2.5q-1 -1 -1.5 -3t-1 -4.5l-1 -5t-0.5 -3.5zM154 163h4t5.5 0.5t4.5 1.5t2 2t-0.5 2t-1.5 1h-29q6 -7 15 -7z
M118 130q0 6 2.5 10t7 6.5t9.5 3t11 0.5q9 0 18 0.5t16 -1.5t12 -7t5 -16q0 -8 -2.5 -12t-10.5 -5q-9 -1 -14.5 -2t-12.5 -1q-6 0 -13.5 0.5t-13.5 3t-10 7.5t-4 13zM51 146q0 1 0.5 2t2.5 0q5 0 8.5 -4t6.5 -9t5 -10t4 -9v-11v-11l-0.5 -2t-1.5 -4q0 -1 -1.5 -3t-1.5 -4
q0 -3 3 -5.5t4 -6.5q3 -5 4 -11t1 -12q0 -2 -1 -6.5t-3 -9t-5 -7.5t-6 -3q-1 0 -2 0.5t-1 1.5q0 2 1 5.5t2.5 7.5l3 8t1.5 8q0 6 -2.5 11t-5.5 10t-5 10t-2 11h0.5h0.5q1 0 2.5 -1.5t2.5 -1.5h1v0q1 0 1.5 0.5l0.5 0.5v2.5v3.5v3v2v3v3.5v3v1.5q0 1 -1 3.5t-2 5.5t-2.5 6
t-2.5 4q-1 2 -2.5 3.5l-3 3l-3 3t-1.5 4.5zM100 75q0 2 -1 3.5t-2.5 3.5t-2 3.5t-0.5 2.5v31q0 2 0.5 4t1.5 4l2 4t1 3l3 3l4 4l3.5 3.5l1.5 1.5h4q0 -5 -1.5 -6.5t-3.5 -5.5q-4 -8 -6.5 -17.5t-2.5 -18.5q0 -1 -0.5 -2.5t0 -3l1 -3t2.5 -1.5q1 0 1.5 1t1.5 2t2 1.5t3 0.5
q0 -10 -3 -19.5t-3 -20.5q0 -8 2 -16.5t2 -16.5q-2 0 -4 2.5t-3.5 6t-2 7.5t-1.5 6q0 1 -0.5 3.5l-1 5t-0.5 5v3.5q-1 5 1 8t2 8zM147 142q0 -3 5 -5q2 -1 3 0t2 3t1.5 3.5t0.5 2.5q-2 0 -3.5 0.5t-3.5 0t-3.5 -1.5t-1.5 -3zM158 131h-1.5h-0.5q-3 0 -5.5 1.5t-5 3.5
t-4.5 3.5t-5 1.5h-3.5t-2.5 -3q0 -1 2.5 -2.5t5.5 -3.5t6 -5.5t5 -8.5q1 -4 2.5 -5t5.5 -1q3 0 4.5 2t3 5t3.5 5.5t5 3.5l2.5 0.5t5 1.5t5 1.5t3.5 0.5v1q0 3 -1.5 4.5t-3.5 2.5t-4.5 2t-4.5 1q-6 0 -9.5 -4t-7.5 -8zM127 123l9 -8h6q0 6 -4.5 10.5t-10.5 4.5v-7zM170 114
q4 0 7 0.5t5.5 1.5t4.5 3t2 6q-3 0 -6.5 -0.5t-6 -1.5t-4.5 -3t-2 -6zM133 99q1 1 1.5 1h1.5h0.5h0.5q7 -3 9.5 -7.5t3.5 -8.5t2.5 -7t7.5 -3q3 0 4 2t2 5l2 6t3.5 6.5t7 5t12.5 1.5h2t1 -1q-1 -3 -4.5 -4.5l-7 -3t-6 -4t-2.5 -6.5q0 -2 1 -2.5t2 -0.5q3 0 6.5 1t6.5 2.5
t6 2t6 0.5q1 0 2 -0.5t1 -1.5q0 -3 -3 -4.5t-7.5 -3l-9 -3t-9 -2.5t-7.5 -2t-3 -3q0 -1 3 -2.5t6.5 -3.5l7 -4t4.5 -3q2 -4 3 -7.5t3 -7.5l2.5 -5t0.5 -5h-5l-11 22q-1 2 -3 2.5t-3.5 1t-3.5 0.5h-4v-3t0.5 -4t0.5 -4v-2q0 -2 -0.5 -5t-1 -7t-1 -7t-0.5 -5q-2 -3 -5 -3t-3 5
v34q0 1 -1.5 1h-1.5h-2q-3 -2 -6 -5.5t-5 -6.5q0 -1 -1 -3.5t-1.5 -4.5t-1.5 -4.5t-3 -3.5q-2 1 -2.5 3.5t-0.5 4.5q0 4 1.5 8t2.5 8q1 3 5 6t7.5 5.5t6.5 4t3 2.5v1l-1 1q-1 0 -4.5 1t-7 2.5t-7 2.5t-4.5 1q-5 2 -7.5 4t-2.5 7q2 0 4.5 -1t4.5 -2t4.5 -2t4.5 -1q1 0 2 0.5
l1 0.5q0 4 -1 6t-2.5 4t-3.5 3.5t-3 4.5z" />
</svg>
