<?xml version="1.0" standalone="no"?>
<!DOCTYPE svg PUBLIC "-//W3C//DTD SVG 1.1//EN" "http://www.w3.org/Graphics/SVG/1.1/DTD/svg11.dtd" >
<svg xmlns="http://www.w3.org/2000/svg" xmlns:xlink="http://www.w3.org/1999/xlink" version="1.1" viewBox="-10 0 266 256">
   <path fill="currentColor"
d="M49 242q0 2 1 3t3 2l4 2t3 1h-1q3 -2 7.5 -3t10 -1.5t10 0t8.5 0.5q1 0 5.5 -0.5t10 -0.5h12t12.5 -0.5t10 -0.5h6h6h11h11h7h4t5.5 -1t4 -3t1.5 -5q0 -1 -1 -1.5t-3 -0.5h-3.5h-1.5q-7 0 -14.5 1t-15.5 1h-10q-2 -2 -2.5 -5t-0.5 -5v-3v-3q2 -3 5 -3.5t6.5 -2t7 -5
t6.5 -12.5h0.5t0.5 -1q0 -5 -3 -9.5t-7 -7.5h-25h-24q-5 0 -11 0.5t-11 2t-8.5 5.5t-3.5 10q0 5 1 8.5t3 8.5q2 4 5.5 4.5t7 2t5.5 3.5t2 9v3t-3 1q-13 2 -26.5 2h-25.5q-2 0 -2 1.5v2.5zM116 235q0 -1 -0.5 -3.5t-0.5 -3.5t0.5 -3t0.5 -3l0.5 -1.5l0.5 -1.5h23l0.5 1.5
l0.5 1.5v6v5q-2 3 -5.5 3h-6.5h-7t-6 -1zM93 196v-2.5v-1.5l4 -3q0 -1 3 -1.5t7.5 -1l9 -1t7.5 -0.5h13h6h8.5t7.5 2t3 6q0 7 -5.5 10t-12.5 4q-10 1 -17.5 2t-15.5 1q-9 0 -13.5 -3t-4.5 -11zM57 169q0 2 0.5 4t2.5 2t5.5 -1t7.5 -2t7.5 -2t6.5 -1q2 -1 7.5 -1t11.5 -0.5
t11.5 -0.5h7.5q3 -2 7 -2h8t8.5 1t9.5 1t11.5 -1.5t11.5 -1.5q3 -1 6 -0.5t5.5 0t4 -2t1.5 -6.5q-12 0 -23 2t-23 2q-23 2 -44.5 2t-44.5 -1q-6 3 -6 9zM55 76q0 13 1 25t3 24q0 8 1 12.5t3.5 7.5t8 4.5t14.5 1.5h5q3 0 7.5 0.5t7.5 0.5h6h6q5 0 9 -0.5t7 -0.5h4
q3 0 9.5 -0.5t14 -1t14.5 -1.5t10 -1q3 -1 6 -5.5t5 -9.5t3 -10t1 -8q1 -16 1.5 -36.5t0.5 -38.5q0 -2 0.5 -4.5t0 -5.5t-1.5 -5.5t-4 -3.5l-1 0.5t-1.5 1l-1 1l-0.5 0.5v57q-1 6 -1 13t-0.5 14t-1.5 13.5t-4 12.5q-2 4 -7 6t-10 2q-1 0 -2 -0.5t-2 -1.5v-3v-3q0 -4 3 -7
t6 -5.5t6 -6.5t3 -10q0 -2 -1 -4.5t-3 -2.5q-4 0 -5 3t-1.5 6t-1.5 6t-6 3v-21q9 -4 13.5 -9t4.5 -14q0 -3 -1 -6t-4 -5q-2 2 -2.5 5.5t-1 7.5t-1 7t-1.5 3h-8v-5.5t0.5 -9.5t2 -9.5t3.5 -5.5q3 -2 6.5 -3t4.5 -4q3 -5 3.5 -7.5t0.5 -6.5v-3t-0.5 -3l-1 -2t-2.5 -1h-2h-1
v4.5t-1 7.5t-2 7t-4 3h-1l-1.5 -1l-1.5 -1q0 -6 -0.5 -12t-1.5 -11q-2 -2 -5 -2v24q0 2 -2.5 3t-4.5 1q-1 0 -3.5 -0.5t-2.5 -2.5v-17l-1 -0.5l-1 -0.5l-0.5 -0.5l-0.5 -0.5l-1 1l-0.5 0.5l-0.5 0.5v19q0 2 1.5 4t4.5 3t5.5 2t3.5 2v26q0 1 -2.5 1.5t-6 0t-3.5 -3.5v-19
l-1.5 0.5t-1.5 1.5v22q0 3 2 4.5t5.5 2.5t5.5 1t2 1v25h-2t-3.5 -0.5l-3 -1t-1.5 -1.5v-14l-1 -0.5t-1 -1.5h-0.5h-0.5q-1 0 -2.5 2t-1.5 3l0.5 1t0.5 2.5t0.5 2.5t0.5 2q0 7 3 9.5t5.5 3t4.5 0t2 1.5v14l-1 1q-8 -7 -14 -14.5t-10 -16.5v-14q0 -19 1.5 -37.5t1.5 -37.5
q0 -2 -1.5 -5t-4.5 -3q-2 0 -3 1t-1.5 3t-0.5 4v3v6t2 6v12q0 16 -1.5 32t-0.5 32q0 1 -3 6t-7.5 11t-8.5 10.5t-6 4.5q-3 0 -3 -1v-2v-3v-3t0.5 -4t0.5 -4v-3q3 -4 5.5 -4.5l5 -1t4 -3t1.5 -9.5v-3v-4l-0.5 -0.5t-1.5 -0.5h-1q-2 0 -1.5 2t0.5 4.5t-1.5 4.5t-8.5 2v-15
q0 -1 2.5 -2t5.5 -3.5t5.5 -7.5t2.5 -14q0 -1 -0.5 -2.5t-2.5 -1.5t-2.5 2.5t-1.5 5.5t-2 5.5t-4 2.5v-22l2.5 -1.5t3.5 -1.5q7 -3 9.5 -10t2.5 -15v-4q-3 -2 -5 -2q-3 0 -4 2t-1 4q0 1 0.5 3l0.5 2q1 0 1 1v2q0 4 -1 5.5t-3 5.5h-0.5h-0.5q-3 0 -5 -3q0 -4 1.5 -9.5
t1.5 -9.5q0 -2 -1.5 -4.5t-3.5 -3.5q-1 0 -2.5 1l-1.5 1v30l-1.5 0.5t-2.5 0.5h-1q-1 0 -2 -1.5t-1.5 -3.5t-1 -3.5t-0.5 -2.5v-3.5v-4.5v-5.5v-3.5q1 -2 -0.5 -2.5t-3.5 -0.5h-2t-2 2v26q0 4 2 5t5 1.5t5.5 1t3.5 3.5v8v6q0 2 -0.5 4.5t-2.5 3.5t-5 1h-2h-1q-1 -2 -1 -5
t-0.5 -6t-1.5 -5.5t-3 -3.5q-2 0 -2 2v2q0 5 1 9.5t2 9.5q1 1 3.5 2.5t3.5 2.5q1 0 3.5 1t2.5 3v17q-7 0 -9 -2t-2.5 -4.5t-1.5 -4.5t-5 -2q0 6 0.5 9t2.5 5.5t4.5 4t7.5 3.5q0 1 0.5 1.5l0.5 0.5v17l-0.5 1l-0.5 1h-3h-3q-5 0 -8 -3.5t-5 -8.5t-2.5 -10t-0.5 -9v-75
q0 -3 0.5 -5t0.5 -5t-2 -5.5t-5 -2.5q-2 0 -3.5 0.5t-0.5 4.5q-1 8 -1 14t-0.5 12t-0.5 12v13zM114 140v-1.5v-1.5l15 -14v0h1q2 0 4.5 2t4.5 5t3.5 6t1.5 5q-2 3 -7.5 3.5t-9.5 0.5h-4h-4q-3 -1 -4 -2t-1 -3z" />
</svg>
