<?xml version="1.0" standalone="no"?>
<!DOCTYPE svg PUBLIC "-//W3C//DTD SVG 1.1//EN" "http://www.w3.org/Graphics/SVG/1.1/DTD/svg11.dtd" >
<svg xmlns="http://www.w3.org/2000/svg" xmlns:xlink="http://www.w3.org/1999/xlink" version="1.1" viewBox="-10 0 266 256">
   <path fill="currentColor"
d="M194 199v49q0 1 2 1.5l2 0.5q3 0 4.5 -1t2.5 -4q1 -1 1 -5v-4q0 -17 -2 -35l-4 -36q0 -4 -0.5 -8t-1.5 -7.5t-3.5 -6.5t-6.5 -4t-8.5 -2t-10 -2.5t-10 -2t-7.5 -0.5q-2 -2 -3.5 -6t-1.5 -6q0 -9 3 -13t7.5 -6t10 -2.5t11.5 -1t11.5 -1.5t9.5 -5q5 -8 7 -16.5t2 -17.5
q0 -4 -0.5 -9t-2 -10t-4.5 -8.5t-8 -4.5h-19h-18q-2 0 -4.5 0.5t-4.5 1t-3.5 2.5t-1.5 5h14l2 2v1.5t0.5 3.5t0.5 4.5v3.5v2q0 2 0.5 4t0.5 4v3v6t-0.5 7.5t-1.5 7t-2 5.5l-16 17q-1 1 -1.5 3t-0.5 4.5v4.5v3v10q5 6 10 8.5t10.5 4t12 2.5t13.5 2q1 0 2.5 1.5t2 3.5t1 4.5
t0.5 3.5v7t0.5 11t1 11t0.5 7zM70 239v0v0q0 1 1.5 2.5l1.5 1.5h1h1q4 -2 6 -4.5t2.5 -5.5t1 -6.5t1.5 -7.5q3 -9 6.5 -18.5t5.5 -19.5l7 -74q1 -2 2 -2.5t2.5 -1t2.5 -0.5h2q2 0 3 1t1.5 2.5t0 3t-0.5 3.5q0 14 -1.5 28.5t-2.5 27.5q-1 7 -2.5 13.5t-3 13.5t-2.5 13.5
t-1 13.5q2 0 4 -1.5t3.5 -3.5t2.5 -4.5t2 -4.5q4 -24 7 -48.5t3 -49.5v-2t-0.5 -4.5t-0.5 -3.5v-3q-1 -2 -3 -2.5t-4 -0.5q-3 0 -5 0.5t-5 0.5h-2t-2 -1q1 -2 1 -7v-11v-11t-1 -7v-3.5t-1 -6t-1.5 -6.5t-0.5 -4v-2v-3q0 -5 3 -7.5t6.5 -3t8.5 0t9 0t6.5 -2.5t2.5 -8
q-17 0 -34.5 2.5t-34.5 3.5q-2 0 -4.5 1t-2.5 3v0.5v0.5q1 0 3.5 1t5.5 1.5t5 0.5h2h1h1l2 -0.5t2 -1.5h2q2 0 3.5 1t1.5 3v0.5v1.5q-1 0 -2.5 2t-3 3.5l-3.5 3.5t-2 3q-2 1 -5.5 4t-7.5 6t-7 6t-3 5q0 1 2 1.5t3 0.5q5 0 8.5 -3.5t7 -7.5t6.5 -7.5t5 -3.5q3 0 4 2t1.5 5.5
t0 6.5t-0.5 5v6q-2 3 -4.5 5t-5.5 3.5t-5.5 3.5t-5.5 4l-2 2l-4 4t-4 3.5t-3 1.5q-2 2 -3.5 2t-2 0.5t-1 2t-0.5 6.5q7 0 12 -4t9 -8.5t8.5 -8t11.5 -3.5h2q1 4 1.5 8t0.5 8q0 6 -1.5 8.5t-3.5 4.5t-5 3.5t-7 4.5q-7 6 -12.5 14t-10 17t-7 18.5t-2.5 18.5q4 0 7.5 -6t7 -14
t6 -16t5.5 -12q1 -2 3.5 -5t5 -5.5t5 -4.5t4.5 -4h1q1 0 1.5 1.5t0.5 3.5v1v1q-1 3 -1.5 9t-1 12.5t-1.5 12.5t-1 9l-0.5 1.5l-1 3l-1 3t-0.5 2.5l-0.5 2.5t-0.5 5t-0.5 4.5t-0.5 3q-2 10 -6.5 21t-9.5 21v0.5v0.5zM168 81q0 -4 0.5 -7.5t1.5 -7.5q2 -2 4.5 -2.5t5.5 -1
t6 -0.5h6l2.5 0.5l2.5 0.5q2 0 2 2v3q0 6 -2 9.5t-6 6t-8.5 3.5t-8.5 1t-5 -2t-1 -5zM172 53q-2 -5 -2 -7.5v-6.5q0 -5 4 -6t8 -1q8 0 12 2.5t4 12.5q0 3 -1.5 4.5t-4 2.5t-5.5 0.5t-5 -0.5h-5.5t-4.5 -1z" />
</svg>
