<?xml version="1.0" standalone="no"?>
<!DOCTYPE svg PUBLIC "-//W3C//DTD SVG 1.1//EN" "http://www.w3.org/Graphics/SVG/1.1/DTD/svg11.dtd" >
<svg xmlns="http://www.w3.org/2000/svg" xmlns:xlink="http://www.w3.org/1999/xlink" version="1.1" viewBox="-10 0 266 256">
   <path fill="currentColor"
d="M78 198q0 1 -0.5 2.5l-0.5 1.5q-1 1 -2.5 6l-3 10t-3 9.5t-1.5 5.5q-1 1 -2.5 3t-1.5 3v1.5t-0.5 3.5t-0.5 3.5v1.5q6 0 9 -3t5 -7.5t3 -10t3 -9.5q0 -1 0.5 -2t1.5 -2.5l2 -3l1 -1.5q0 -1 0.5 -3.5t1 -6t1 -6.5t0.5 -5q0 -3 1 -12t2 -19.5t2.5 -19.5t1.5 -12t1.5 -7
t3.5 -7.5t5 -5.5t6 -2q2 0 3 1t1 3q0 11 -3 23t-4 24q0 1 -0.5 5.5t-1 10.5t-1 10.5t-0.5 6.5q-2 7 -4.5 13.5t-2.5 13.5q0 3 1 3.5t3 0.5q3 0 5.5 -8t5 -20.5t4.5 -27t4 -27.5t3 -23t1 -12q0 -3 -2.5 -5.5t-4.5 -2.5q-3 0 -5.5 1.5t-4.5 3t-4.5 3t-4.5 1.5h-1
q-2 -11 -2.5 -23.5t-0.5 -24.5q0 -3 1.5 -6.5t3.5 -7t4.5 -6t5.5 -3.5l2 -0.5t4.5 -1t4.5 -0.5h2q1 0 3 -1.5t2 -3.5q0 -4 -4 -4h-2q-4 0 -13.5 0.5t-20.5 1t-20.5 1t-13.5 0.5v3q0 1 0.5 3t1.5 2h35v3q0 1 -1.5 3t-3.5 4l-4.5 4.5l-3.5 3.5q-2 1 -6 4t-9 5.5t-9.5 5
t-5.5 3.5q-2 1 -2.5 3.5t-0.5 3.5q7 0 11.5 -2.5t9.5 -5.5t9.5 -5.5t10.5 -2.5q0 8 -0.5 11t-2 5t-4.5 3.5t-8 6.5q-2 1 -6.5 5.5t-9 9.5t-8 9t-3.5 6q0 1 2 2.5t3 1.5t2 -0.5t2 -0.5l32 -33h1q2 0 3 2t1 5.5v6v3.5q0 8 -1.5 12.5t-5 8t-7.5 6t-8 6.5q-8 8 -14 16t-13 15v10
l1.5 0.5t2.5 1.5v0q3 0 6 -3.5t6 -8t6.5 -10t7 -10t6.5 -8t6 -3.5t3 3.5v5.5v3zM125 181q0 1 0.5 2t3.5 1h5h9h9h6h28t28 -2v-1v-1q0 -4 -2 -5t-5 -1.5t-6 -0.5t-5 -2v-3t-0.5 -4.5t-0.5 -4.5v-3q0 -23 2 -46t2 -46q0 -2 -0.5 -7.5t-1.5 -11t-4 -9.5t-8 -4h-26q-7 0 -10.5 5
t-4.5 12t-0.5 14t0.5 11q-1 26 -2 50t0 49q-1 2 -3.5 3t-5 1.5t-4.5 1t-4 0.5v1v1zM150 171v-4t-0.5 -6.5t-1 -6.5t-0.5 -5v-2q0 -2 1 -4.5t3 -4.5h5.5t7.5 -0.5t8 -0.5h6h2q2 0 3.5 1.5t2 3.5t0.5 4.5v4.5v6v8t-1 7t-4 5h-6h-6t-8 -0.5t-7.5 -1.5t-4.5 -4zM189 99
q0 7 -1 13t-1 14q0 1 -2 2t-3 1h-27l-1 -0.5t-2 -1.5l-1 -0.5l-1 -0.5v-30l1 -1.5l1 -1.5q0 -1 1 -1.5l1 -0.5h31q1 0 2 1t1.5 2.5t0.5 2.5v2zM152 65q0 -13 5.5 -18.5t17.5 -5.5q2 0 4.5 0.5l2.5 0.5l5 5q0 1 0.5 4t1 7.5t0.5 6.5v1v1l-2 13q-1 1 -3.5 1.5t-5 0.5h-4.5h-4
h-2h-3.5h-3.5h-2q-5 -2 -6 -7t-1 -10z" />
</svg>
