<?xml version="1.0" standalone="no"?>
<!DOCTYPE svg PUBLIC "-//W3C//DTD SVG 1.1//EN" "http://www.w3.org/Graphics/SVG/1.1/DTD/svg11.dtd" >
<svg xmlns="http://www.w3.org/2000/svg" xmlns:xlink="http://www.w3.org/1999/xlink" version="1.1" viewBox="-10 0 266 256">
   <path fill="currentColor"
d="M162 239q0 3 1.5 4.5t3.5 1.5q3 0 4.5 -1t3.5 -5q-1 -4 -0.5 -6.5t0.5 -5t0.5 -4.5t0.5 -6q0 -10 -1 -20t-1 -21v-16t2 -16q0 -2 1.5 -3.5t3.5 -1.5q5 0 8.5 3.5t5.5 7.5q1 18 1.5 36.5t0.5 36.5q2 0 5.5 -2.5t3.5 -5.5v-39q-3 -4 -3 -8q0 -5 0.5 -10t0 -10t-4.5 -9
q-1 -1 -5 -2l-8 -2t-7 -1.5t-3 -2.5v-20l-1.5 -1t-1.5 -2h-1h-1q0 1 -1.5 2l-1.5 1q0 1 -0.5 4t-1 5.5l-1 5t-0.5 3.5v4t-2 3t-5 3t-5.5 2t-5 3t-4.5 8q-2 8 -2.5 16t-1 16.5t-1 16.5t-1.5 16v1q0 2 1.5 2h2.5q2 0 4 -1.5t2.5 -3.5t1.5 -5t1 -5v-42v-5.5t1.5 -6.5t3.5 -5
t5 -2h3t2 2v72q0 7 -1.5 11.5t-1.5 9.5zM62 236q0 3 1.5 3h3.5q5 0 9 -5.5t7.5 -13.5t6 -18t5 -19.5t4 -16.5t2.5 -9l3 -47q0 -2 1 -4t2.5 -4t3 -3.5t3.5 -1.5h2.5t2.5 2v9q0 26 -4.5 53t-13.5 53v1q0 3 3 5q5 -3 8 -9t5 -14t3.5 -17.5t3 -18t2 -16.5t0.5 -14l-0.5 -1.5
l-0.5 -1.5q0 -1 0.5 -2l0.5 -1q0 -2 0.5 -5t0.5 -7t0.5 -7.5t0.5 -5.5v-3q0 -5 -1.5 -7.5t-5.5 -2.5q-3 0 -6.5 1t-6.5 1h-1l-1 -1.5t-2 -1.5q0 -10 -1.5 -20.5t-1.5 -20.5q0 -7 2 -10.5t5 -5.5t6.5 -2h6.5t5 -1t2 -4q0 -4 -2.5 -4h-5.5q-11 0 -22.5 1.5t-22.5 1.5
q-1 0 -3 0.5t-4 0.5t-4.5 0.5l-2.5 0.5q-2 0 -2 2v2q0 4 1 5t4 1q4 0 8.5 -1t8.5 -1h2h2.5t2.5 0.5t1 1.5q0 3 -5 7t-11.5 8.5t-11.5 8.5t-5 7q0 2 0.5 3t2.5 1q3 0 7.5 -2t8.5 -5.5t7 -6.5t5 -6h2q2 0 3 2t1.5 4.5l1 5t0.5 3.5q0 4 -3 7.5t-7.5 5.5t-10 4.5t-10 5.5
t-7.5 6.5t-3 8.5q6 0 11 -3.5t10 -7.5t9.5 -7.5t8.5 -3.5h2h2v3t0.5 4t0.5 3.5v2.5v2q0 3 -0.5 6t-2.5 5l-29 31q-3 1 -6 3.5t-5.5 6t-4.5 7t-2 6.5t3 3q2 0 3 -0.5t2 -1.5q10 -9 17 -18.5t16 -20.5q1 -2 1.5 -2.5t2.5 -0.5h2t2 2v3v3q0 12 -2 23t-5.5 22t-7.5 21.5t-9 21.5
q0 1 -2 4t-3.5 6t-3.5 6.5t-2 5.5zM137 116v0.5v0.5l1.5 0.5l1.5 0.5q5 0 8.5 -3.5t6.5 -7.5t7 -7t8 -3q5 0 8.5 3t6.5 6.5t6.5 7t7.5 3.5q3 0 3 -4q0 -3 -2 -5.5t-4 -3.5q-1 -1 -3.5 -2.5t-5 -3.5t-5 -3.5t-3.5 -2.5v-5l8 -8v-1q0 -2 -3 -2t-4.5 1t-3 3t-3.5 3t-5 1
q-2 0 -4.5 -1.5t-4.5 -3.5t-4 -3.5t-5 -1.5q-1 0 -1.5 1.5t-0.5 2.5q0 2 1.5 3.5t3.5 3l4 3t2 4.5v0l-22 23v0.5v0.5zM170 53q5 0 8 4l6 8t6.5 7.5t7.5 3.5q2 0 4 -1t2 -3q0 -5 -4 -8.5t-9 -7t-9.5 -6.5t-4.5 -6t3 -5.5t6.5 -4.5t6.5 -4t3 -6q0 -3 -2 -4.5t-5 -1.5h-0.5
h-0.5q-1 1 -3 3.5t-4.5 5.5t-5.5 5t-5 4h-1h-1q-2 -1 -4.5 -3t-4.5 -4.5t-4 -4.5t-2 -3h-7v6l15 15v1q0 1 -1.5 3t-3.5 3.5t-3.5 3l-2.5 2.5t-2.5 2t-3 3t-2.5 3l-2 2v4q5 0 8.5 -2.5t6.5 -5.5t6.5 -5.5t8.5 -2.5z" />
</svg>
