<?xml version="1.0" standalone="no"?>
<!DOCTYPE svg PUBLIC "-//W3C//DTD SVG 1.1//EN" "http://www.w3.org/Graphics/SVG/1.1/DTD/svg11.dtd" >
<svg xmlns="http://www.w3.org/2000/svg" xmlns:xlink="http://www.w3.org/1999/xlink" version="1.1" viewBox="-10 0 266 256">
   <path fill="currentColor"
d="M166 242v2q0 2 0.5 3.5t1 2.5t2.5 1t3.5 -3t2 -6.5t1 -7.5t0.5 -5q0 -3 -1 -6t-1 -6q0 -8 1 -15.5t1 -15.5q0 -2 -0.5 -3.5l-1.5 -4.5v-87q0 -5 5 -7t9 -1l-2 -4h-3h-5q-6 0 -12 0.5t-12 1.5q-1 0 -2 1t-1 2q-1 2 0 2.5t2 0.5q3 0 5 -1t5 -1q1 0 2 1.5t1.5 3t0.5 3.5v3
v45q0 26 -1 51t-1 50zM128 160q0 11 -1.5 22.5t-2.5 22.5q-1 4 -2.5 8t-2.5 8t-2.5 8.5t-1.5 8.5q7 0 10.5 -6.5t5 -16t2 -18.5t2.5 -14v-77q-1 -7 -1 -15.5v-15.5v-19q2 -6 4 -9.5t4.5 -5t7 -2.5t11.5 -2v0q2 0 3.5 1t1.5 3q0 4 -1.5 7.5t-7.5 4.5q-5 5 -10.5 11t-5.5 14
q0 4 0.5 8.5t1.5 7.5t2.5 6t3 5.5t2.5 5.5t1 6q0 4 -1.5 7.5t-1.5 8.5q-3 20 -6 39.5t-3 39.5v11l0.5 0.5l0.5 0.5h0.5h0.5h0.5h0.5l1 -1l2 -2q0 -27 4.5 -52t8.5 -51v-2v-3q0 -4 -2 -6.5t-4 -5.5l-4 -6t-2 -7q0 -5 0.5 -9t1.5 -7.5t4 -6.5t8 -5l2 -1t3.5 -1.5t3.5 -1
t3 -0.5q4 0 8 2.5t7 6t5 8t2 7.5q0 6 -2 11t-4.5 9.5t-4 9t-1.5 10.5v10t0.5 14.5t1.5 14t4 9.5q2 15 2.5 30t0.5 29q3 0 5 -1t3 -3v-6q0 -10 -0.5 -22.5t-2.5 -22.5l-0.5 -2t-1.5 -4t-1.5 -4t-0.5 -3v-2v-5v-5v-3l-0.5 -3t-1 -6.5t-1 -6t-0.5 -3.5v-3v-7.5t1 -6.5
q1 -1 2 -2.5t2.5 -3.5l3 -4l1.5 -2q1 -1 1 -3.5t0.5 -5t0.5 -4.5v-5q0 -9 -4.5 -14t-10 -8.5t-10.5 -6.5t-5 -8l0.5 -0.5l1 -1t2.5 -1l2 -0.5q1 0 4.5 -0.5t7.5 -0.5h7h5q0 -1 0.5 -2l0.5 -1q0 -2 -2 -3.5t-4 -1.5l-48 3l-18 6l-1 2.5t-2 3.5q-2 6 -2.5 12t-0.5 12
q0 23 1.5 46t1.5 46zM58 231q0 2 0.5 3.5t3.5 1.5q2 0 3.5 -1t3.5 -3q7 -12 12.5 -23.5t9.5 -24.5q0 -1 1 -3.5t2 -3.5q3 -17 4.5 -34t2.5 -34l0.5 -0.5t1.5 -0.5q3 0 4.5 3.5t2 8.5t0.5 10v7v9q0 3 -0.5 9.5t-1 13.5t-1.5 13.5t-1 9.5q-2 5 -3.5 8t-1.5 8q0 1 0.5 2.5
t2.5 1.5t4.5 -5t4 -13t2.5 -18t1.5 -18.5t1 -15.5t0.5 -9v-7v-9.5t-1.5 -8t-3.5 -5.5l-1.5 -0.5t-3 -0.5h-2.5h-2l-3 -2q1 -7 0.5 -14t-1.5 -14t-2 -13.5t-1 -13.5v-8q2 -3 6.5 -4.5t8.5 -2.5t7 -2t3 -4q0 -2 -1.5 -3t-2.5 -1q-7 0 -13.5 1.5t-14 2.5t-14.5 2t-14 0
q-1 1 -1.5 2l-0.5 1v1q0 3 1.5 4t4.5 1q5 0 9.5 -1t9.5 -2q1 1 3 1.5t2 2.5t-5 5.5t-11 8t-11 9t-5 6.5t0.5 3t2.5 1q4 0 7 -2.5t5.5 -5.5t5.5 -5.5t7 -2.5t4.5 3t0.5 7t-1.5 7t-4 5t-5.5 4t-7 5q0 1 -2 2.5t-4 4t-4 4t-3 2.5q-1 2 -1 5q0 2 0.5 2.5t2.5 0.5q4 0 7.5 -4
t7 -8.5t7 -8t7.5 -3.5q1 0 1.5 0.5t0.5 1.5v2t0.5 4t0.5 4v3v0v0q0 3 -0.5 7t-2.5 6q-5 5 -12 11.5t-12.5 14t-9.5 15.5t-4 17q0 1 0.5 2.5t1.5 1.5q3 0 4.5 -2.5t3 -6t2.5 -7t3 -5.5q5 -6 9 -13.5t11 -12.5h2h1.5t1.5 1v8q0 7 -1.5 16t-3.5 17.5t-5 17t-7 15.5q-1 2 -4 6.5
t-6 9.5t-5.5 9.5t-2.5 6.5z" />
</svg>
