<?xml version="1.0" standalone="no"?>
<!DOCTYPE svg PUBLIC "-//W3C//DTD SVG 1.1//EN" "http://www.w3.org/Graphics/SVG/1.1/DTD/svg11.dtd" >
<svg xmlns="http://www.w3.org/2000/svg" xmlns:xlink="http://www.w3.org/1999/xlink" version="1.1" viewBox="-10 0 266 256">
   <path fill="currentColor"
d="M153 245q0 3 1.5 4.5t4.5 1.5q4 0 6 -3.5t2 -7.5q0 -17 0.5 -33t1.5 -33q0 -4 0.5 -10t0.5 -12t0.5 -10l0.5 -4l1 -2h21q3 0 4 -2.5t1 -4.5t-1.5 -4t-3.5 -2h-18q-1 0 -2.5 -1.5t-1.5 -3.5v-43q0 -2 2.5 -3.5t6.5 -1.5t9 -0.5t9 -1t6.5 -2t2.5 -4.5v-2q0 -1 -2.5 -2
t-3.5 -1h-27v-42l-0.5 -1t-1.5 -1h-2h-3h-1.5h-1.5l-1 4l-0.5 2.5t-0.5 6t-0.5 7t-0.5 5.5v4q0 3 1.5 6.5t1.5 5.5t-2.5 3.5t-6.5 2t-9 1t-9.5 1t-7.5 1t-3 2.5q-1 2 0 3.5t2.5 2l3 1t3.5 0.5q5 0 10 -0.5t11 -1.5q3 0 4 2t1 4q0 13 -1 23.5t-1 23.5l-1 2h-25q-1 0 -1.5 2
t-0.5 3v1v0q1 4 3 4.5t6 0.5h1h1.5t3.5 -0.5t3.5 -1t2.5 -0.5h2q4 0 4 3.5v6.5q0 6 -0.5 9.5t-1.5 9.5v68q0 1 -0.5 2.5t-1 3.5l-1 4t-0.5 3v1zM70 241q0 2 1.5 3.5t3.5 1.5h2q1 0 4 -1t4 -1l1.5 -3.5t3 -9t4 -12t4.5 -12.5l3.5 -10.5t2.5 -5.5q2 -7 2.5 -15t3.5 -15v-46
q0 -5 -1 -9t-3 -8.5t-3 -8.5t-1 -9q0 -3 4.5 -6.5t9.5 -8t9.5 -10t4.5 -13.5q0 -5 -2.5 -10t-5.5 -8.5t-7.5 -6t-8.5 -2.5q-6 0 -14 2.5t-16.5 7t-15.5 9.5t-11 9q1 2 3 4.5t4 2.5h1h1l1.5 -1t3 -1.5t3 -1.5l1.5 -1h1q1 0 2 3.5t2.5 8t3 8.5t4.5 7q3 -2 4 -4t1 -5t-1 -6
t-2.5 -5.5t-2.5 -5.5t-1 -6q0 -4 2.5 -6t5.5 -2q4 0 6 4.5t4 9.5t2.5 10t0.5 7q0 5 -4 9t-9.5 7t-12 6t-12.5 6.5t-10 8t-4 10.5q7 0 13 -3.5t11 -8t9 -8.5t8 -4q2 0 3 1.5t2 3.5t1 4v3q0 3 -0.5 4.5t-2 2.5l-3 2t-3.5 3q-2 1 -4.5 4t-6.5 6.5t-8.5 7.5t-8 7.5l-6 6
l-2.5 2.5q0 5 2 6t5 1q4 0 6.5 -2t5 -4.5t5 -6t4.5 -5.5q1 -1 3 -3.5t4.5 -5l5 -5t3.5 -2.5v-1q3 0 4 1.5t1.5 3.5t0.5 5v4t-3 7t-8 11.5t-10.5 13.5t-10.5 13.5t-8 11.5t-3 8t2.5 3.5t4.5 0.5h3t3 -2l1 -2t2.5 -4t2.5 -4t2 -3t3.5 -6.5t5.5 -12t5 -11t3 -4.5q1 -1 2 0t2 1
v3t0.5 4.5t0.5 4.5v3q0 4 -2 10.5t-4 13.5t-4.5 13.5t-3.5 10.5q-2 3 -4 6.5t-4.5 7t-4.5 7t-2 6.5zM99 29q0 -2 1 -3.5t4 -1.5q6 0 10 5.5t4 11.5v5t-1 5.5t-3 4.5t-5 2v0q-2 0 -2.5 -2t-1 -3.5t-0.5 -3.5v-2q0 -1 -1 -3t-2 -4.5l-2 -5l-1 -2.5v-1v-2z" />
</svg>
