<?xml version="1.0" standalone="no"?>
<!DOCTYPE svg PUBLIC "-//W3C//DTD SVG 1.1//EN" "http://www.w3.org/Graphics/SVG/1.1/DTD/svg11.dtd" >
<svg xmlns="http://www.w3.org/2000/svg" xmlns:xlink="http://www.w3.org/1999/xlink" version="1.1" viewBox="-10 0 266 256">
   <path fill="currentColor"
d="M71 247q0 2 1.5 3t3.5 1q4 0 7.5 -4.5t5.5 -11.5t3.5 -15t3 -15.5t2 -13t0.5 -7.5v-3.5t0.5 -6t0.5 -6.5v-4v-16q0 -8 -1 -17t-2 -17.5l-2 -17t-1 -16.5q0 -4 4 -6.5t9 -6t9 -10t4 -17.5q0 -5 -1 -9t-3.5 -7t-5.5 -6t-6 -5q-2 0 -5.5 -0.5t-4.5 -0.5q-6 0 -12.5 2
t-13 4.5t-12.5 5.5t-11 6q-1 0 -1.5 1t-0.5 2t1 2.5t2 2.5q1 0 3 -0.5t4 -0.5t4.5 0.5t3.5 2.5q0 1 1.5 4t3 6.5t2.5 6.5t1 4q1 3 2 7t1 7q0 4 -3.5 5.5t-8 3t-8.5 3t-4 6.5q0 3 1 4t4 1q4 0 7 -2t6 -4.5t6 -4t6 -1.5q2 0 3.5 1t2.5 3t1 4.5v4.5q0 4 -4 9t-9.5 9.5t-11 8.5
t-9.5 7v1v1q0 3 1.5 3.5t3.5 0.5q5 0 8.5 -2.5t6.5 -5t6.5 -5t7.5 -2.5q2 0 3 0.5t1 1.5v18q0 2 -4 5t-9.5 6.5t-10 6.5t-6.5 4l-2.5 1.5t-4.5 3t-4.5 3t-2.5 2.5q-1 0 -1.5 1.5l-0.5 1.5q0 4 1 4.5t4 0.5q5 0 10.5 -3.5t10.5 -8t9.5 -8t9.5 -3.5q2 0 2.5 1.5t0.5 3.5
q0 14 -3.5 28.5t-6.5 28.5q-1 1 -2.5 4.5t-3 7.5t-2.5 7t-1 5zM153 245q0 3 0.5 4.5t3.5 1.5q2 0 3.5 -0.5l4.5 -1.5q3 -25 3.5 -52t0.5 -53l7 -3h34q1 0 2.5 -1.5l1.5 -1.5q0 -3 -2.5 -6t-4.5 -3q-7 0 -13.5 1t-13.5 1h-3h-4l-2.5 -2.5t-1.5 -2.5l2 -24l3 -1q7 -3 11 -5
t6 -5.5t3 -8.5t2 -13q1 -10 3 -20t2 -21q0 -1 -0.5 -3.5t-1 -4.5t-1.5 -4t-3 -2q-4 0 -5 5.5t-2 13.5t-1 18t-1 18t-3.5 13.5t-6.5 5.5h-25q-3 0 -4.5 -1.5t-2 -3.5t-1 -4.5t-0.5 -4.5q0 -11 1 -22t1 -22v-12q0 -1 -2 -1.5t-3 -0.5q-2 1 -3.5 6t-2 11t-0.5 12v8q0 5 -0.5 11
t0 12t3 11t6.5 9q2 1 4.5 1.5t4.5 0.5t4 0.5t2 2.5v32h-38h-1.5t-3 0.5t-2.5 1.5t-1 3q1 2 4 3t4 1h38q0 26 -2.5 51.5t-2.5 51.5zM70 34q0 -5 3 -5q4 0 7 4t5 9.5t3.5 11t1.5 8.5t-2 6t-6 3l-2 -5t-4.5 -12t-4 -13t-1.5 -7zM88 27v-1.5v-1.5q1 0 4 -1t4 -2h1h1l9 10
l0.5 2.5t0.5 4.5v4q0 2 -1 5.5t-2 6t-3 2.5t-4.5 -4t-4.5 -9.5t-3.5 -10t-1.5 -5.5z" />
</svg>
