<?xml version="1.0" standalone="no"?>
<!DOCTYPE svg PUBLIC "-//W3C//DTD SVG 1.1//EN" "http://www.w3.org/Graphics/SVG/1.1/DTD/svg11.dtd" >
<svg xmlns="http://www.w3.org/2000/svg" xmlns:xlink="http://www.w3.org/1999/xlink" version="1.1" viewBox="-10 0 266 256">
   <path fill="currentColor"
d="M75 247q0 2 1 3.5t3 1.5q5 0 9.5 -7.5t8 -18.5t6.5 -25t5 -26.5t3.5 -23t1.5 -14.5q0 -1 -0.5 -5.5t-0.5 -9.5t-0.5 -9.5t-0.5 -5.5v-2q-2 -5 -3.5 -10t-1.5 -10t4.5 -8t10 -7t10 -10.5t4.5 -16.5q0 -6 -2.5 -11.5t-7.5 -9.5t-10.5 -6.5t-12.5 -2.5q-3 0 -8 2.5
t-10.5 6.5t-11.5 8.5t-11.5 9.5t-9.5 10t-5 8q1 2 2.5 3.5t4.5 1.5h0.5h0.5l17 -17h1.5h0.5q3 0 3.5 2.5t1.5 4.5q1 1 1.5 3t1.5 5t1.5 5.5l0.5 2.5q1 2 2 2h2q3 0 3.5 -2t0.5 -4q0 -4 -1.5 -7.5t-3.5 -6.5t-3.5 -6t-1.5 -5q0 -3 3 -5t6 -2q4 0 6 4t3 9t2.5 9.5t5.5 4.5
t4 -2.5v-4.5v-3v-2q-1 -1 -2 -3.5t-2.5 -5t-2.5 -5t-2 -3.5v-2q0 -5 4 -5q5 0 8 2t5 5t3 7t1 7q0 6 -4 11.5t-10.5 10.5t-14.5 10t-16 9.5t-14.5 9.5t-10.5 11l-0.5 1.5l-0.5 1.5q0 3 0.5 5t3.5 2q5 0 9.5 -4.5t9 -10t9 -10t9.5 -4.5q2 0 3 1.5t1 3.5v4v3v5.5t-2 5.5
q-10 11 -21 20.5t-21 19.5q0 1 -0.5 1.5l-0.5 0.5q0 2 1.5 3.5t3.5 1.5q6 0 11.5 -4t11 -10t10 -12.5t9.5 -9.5l2 1v3.5v3.5q0 8 -2.5 14t-6.5 11t-9 9.5t-10 10.5l-1 1.5t-2 3.5t-2 3.5t-2 1.5q0 1 -2.5 3t-5 4.5t-4.5 5t-3 2.5v3q0 2 0.5 3t3.5 1q6 0 12 -5.5t11 -12.5
l10 -14t9 -10v10q0 10 -1.5 19t-4.5 17t-7.5 16.5t-8.5 17.5v2zM112 185q0 11 1.5 20t6 15.5t12 10t19.5 3.5q11 0 17 -2.5t9.5 -6.5t6 -10.5t6.5 -14.5q1 -3 3.5 -6t5 -6.5t5.5 -6t5 -4.5v-3q0 -2 -1 -3t-4 -1q-7 0 -11.5 4t-7.5 10t-6 13t-6.5 13t-9.5 10t-16 4
q-5 0 -9.5 -2.5t-8 -6.5t-6 -9t-2.5 -9v-7v-11v-10v-7t-1.5 -2h-2.5h-2h-1q0 4 -0.5 7l-1 6t-0.5 6v6zM133 169v9t1.5 10t4.5 8t9 3t9.5 -3t5.5 -7.5t2.5 -10t1.5 -9.5q2 -3 4.5 -4l5 -2l5 -2t4.5 -3l0.5 -2.5t1 -4.5t1 -4.5t1.5 -3.5l0.5 -2l1 -4t1 -3.5t0.5 -2.5l0.5 -3
t0.5 -6.5t0.5 -6.5t0.5 -4q1 -7 3.5 -14.5t5 -14.5t4 -14.5t1.5 -15.5q-7 0 -11.5 8t-7.5 19.5t-4.5 25t-3.5 25t-4.5 19.5t-6.5 8q-2 0 -3 -2t-1 -4.5v-5v-2.5q0 -29 5.5 -58t18.5 -55q-1 -2 -3 -4t-4 -2t-4 4t-4.5 10t-4.5 13.5t-4 14.5t-3 12.5t-2 7.5q-1 13 -1.5 25.5
l-1 25t-2 24.5t-5.5 24q-1 2 -2 3t-3 1q-3 0 -4 -1.5t-1 -4v-4.5v-4q0 -25 3 -49.5t5 -49.5q1 -5 2.5 -10t1.5 -11q0 -2 -0.5 -3.5t-3.5 -1.5t-5 4.5t-3.5 12t-2.5 16.5t-1.5 17.5t-0.5 15.5v11q0 1 -1 6t-1.5 10.5t-1 10.5t-0.5 6v4v5z" />
</svg>
