<?xml version="1.0" standalone="no"?>
<!DOCTYPE svg PUBLIC "-//W3C//DTD SVG 1.1//EN" "http://www.w3.org/Graphics/SVG/1.1/DTD/svg11.dtd" >
<svg xmlns="http://www.w3.org/2000/svg" xmlns:xlink="http://www.w3.org/1999/xlink" version="1.1" viewBox="-10 0 266 256">
   <path fill="currentColor"
d="M82 244q0 5 5 5q6 0 8.5 -5t3.5 -11.5t1 -13.5v-10q0 -1 0.5 -4t1.5 -6.5t1.5 -7t0.5 -4.5v-2v-5v-6v-4q0 -19 -3 -37.5t-3 -36.5v-4t1 -4q3 -4 6 -6.5t5.5 -4t4.5 -3t3.5 -4t2 -7.5t0.5 -13q0 -3 -1 -8t-2.5 -10t-3 -9.5t-3.5 -6.5q-1 -1 -3.5 -1.5t-5 -0.5h-5.5h-3h-4
h-2l-27 14q-1 3 -5 4.5t-7.5 3.5t-6 4.5t-2.5 6.5v3.5t2 1.5h2l2 -1l4 -2l4 -2t3 -1v0h1q0 1 1 4l2 6l2 6t2 4l0.5 2l1 4l1 4l0.5 2q2 3 3.5 4t1.5 5q0 7 -5 11t-10.5 8t-10.5 8.5t-5 10.5q0 3 1 4t3 1q7 0 11.5 -5.5t8.5 -12t8.5 -11.5t9.5 -5h2q1 4 1.5 7t0.5 7
q0 6 -3.5 10.5t-5.5 9.5l-30 33v0.5v0.5q0 3 1.5 3.5t2.5 0.5q6 0 11 -4t9.5 -9t8 -10.5t6.5 -8.5h2v4t0.5 6.5t0.5 6.5v5q0 4 -3.5 9.5t-8.5 11.5t-10.5 12t-10.5 11.5t-8 10t-3 6.5q0 3 1.5 4t3.5 1q7 0 12.5 -6t10 -14l9 -16t7.5 -13q0 1 0.5 5t0.5 5q0 10 -1.5 19.5
t-2.5 18.5q-1 5 -3.5 10.5t-2.5 10.5zM113 237q8 1 16.5 1.5t16.5 1t16.5 0.5t17.5 1q2 0 6.5 0.5t9.5 1.5t9.5 1.5t5.5 0.5l4 -2l0.5 -1.5t0.5 -2.5v-2.5t-0.5 -3t-1.5 -3t-3 -1.5h-40v-42q0 -3 2.5 -4t4.5 -2h4h6h7h4q2 0 2 -2v-4q0 -3 -1 -5t-4 -2q-4 0 -8 1t-9 1
q-3 0 -5.5 -1t-2.5 -5q0 -6 0.5 -11.5t3.5 -10.5q4 0 9 -0.5t9.5 -3t8 -6t4.5 -9.5q4 -12 6.5 -25t2.5 -26v-9t-2 -14t-4.5 -13t-7.5 -6h-35q-1 1 -3 1.5l-2 0.5q-1 0 -2.5 0.5t-3.5 0.5t-3.5 0.5l-1.5 0.5q-7 4 -10 11.5t-4.5 16t-1.5 17.5v15v1.5v3.5t-0.5 4t-0.5 3
q0 10 2.5 15.5t6 8.5t7.5 4.5t7 2.5t5.5 2.5t2.5 6.5v6t-0.5 6t-1.5 5.5t-4 4.5h-5.5t-9.5 0.5t-9 2t-4 4.5t1.5 4.5t3.5 1.5h23q1 0 2 1t1 2.5v2.5v1q0 7 -1.5 15t-2.5 14q-1 2 -1.5 6l-0.5 4h-41q-3 0 -3 1.5v3.5v2.5t2 2.5zM144 118v-30l2 -2l2 -0.5t4 -0.5t4.5 -0.5
t4.5 -0.5h2q2 0 3 0.5t3 3.5v1v1l-1.5 3.5t-1.5 4.5q-1 1 -1.5 5t-1 8.5t-1 8.5t-0.5 6t-1.5 2h-2.5q-3 0 -5 -1t-3 -2.5t-2.5 -3.5t-3.5 -3zM175 118v-1.5t0.5 -3.5t0.5 -3.5v-1.5q0 -1 0.5 -4t0.5 -6t0.5 -6t0.5 -4l2 -2h21l2 2v1.5t-0.5 4t-1 4.5t-0.5 4q-1 4 -2.5 8.5
t-4 8.5t-6 6.5t-8.5 2.5q-3 0 -4 -3t-1 -7zM63 39q0 -2 2 -3.5t4.5 -2.5l5 -2l2.5 -1h1q2 0 5 6t5 14t3.5 15t1.5 8v3.5t-1 2.5t-2.5 2t-3.5 3h-1h-1q-1 0 -2 -1l-1 -1q-2 -2 -3 -5.5t-2.5 -7.5t-2.5 -7.5t-1 -5.5q-1 -2 -2.5 -4l-3 -4t-2.5 -4.5t-1 -4.5zM144 69
q0 -5 1 -10.5t3.5 -10t6.5 -7.5t10 -3q1 0 2.5 1t1.5 3v1v1q0 3 -0.5 8t-0.5 9.5t-0.5 7.5l-0.5 3l-3 4l-16 2l-4 -2v-3v-4zM180 72v-8q0 -7 0.5 -12t2.5 -12h5q5 0 7.5 2t4 5.5t1.5 7.5v9v4v4q-1 4 -3.5 4h-4.5h-4q-1 0 -3 -0.5l-4 -1t-2 -2.5zM91 26q0 -1 0.5 -2.5
t2.5 -1.5q4 0 7 2t6 5.5t4.5 8t1.5 8.5q-1 1 -1 4t-1 5.5t-2.5 5t-3.5 3.5l-2.5 -6t-5 -13t-4.5 -12.5t-2 -6.5z" />
</svg>
