<?xml version="1.0" standalone="no"?>
<!DOCTYPE svg PUBLIC "-//W3C//DTD SVG 1.1//EN" "http://www.w3.org/Graphics/SVG/1.1/DTD/svg11.dtd" >
<svg xmlns="http://www.w3.org/2000/svg" xmlns:xlink="http://www.w3.org/1999/xlink" version="1.1" viewBox="-10 0 266 256">
   <path fill="currentColor"
d="M73 244q0 3 0.5 4.5t3.5 1.5h1q3 -2 6 -5t5 -8q0 -1 1.5 -5.5l3 -9t2.5 -8.5t2 -6q-1 -4 0.5 -7.5t2.5 -7.5q3 -20 4.5 -39.5t1.5 -39.5q0 -5 -1 -9.5l-2 -9l-2 -9t-1 -9.5q0 -6 2.5 -10t6 -8t6 -9t2.5 -13q0 -10 -6 -17.5t-17 -7.5h-2l-1.5 0.5t-3 1.5t-3 1.5l-1.5 0.5
l-2 0.5l-4 1l-4 1l-2 0.5q-2 1 -5 2t-6.5 3t-6.5 4t-4 2l-1 1t-1.5 2l-1 2t-0.5 2q0 2 1.5 2.5t2.5 0.5h2l1 -0.5t2.5 -1t2.5 -1l1 -0.5h1h1q3 2 5.5 6.5t4.5 9.5t3.5 9t2.5 4t2 -1t1.5 -2l1 -2t0.5 -2v0q0 -4 -1.5 -7l-3 -6t-3 -6.5t-1.5 -7.5q0 -3 4 -3h2q2 1 5 4.5t6 8
t5.5 8.5t2.5 6v1v1q-2 2 -6 5t-9.5 6l-11 6t-10.5 5.5t-8 4.5t-3 3q0 3 2.5 4t4.5 1q4 0 8 -2.5t7.5 -5t7 -4.5t7.5 -2q3 0 4.5 1.5t1.5 3.5v4.5v5.5q0 7 -6 12t-13 9t-13 7.5t-6 6.5q0 4 2 4h4q5 0 10.5 -3.5t10.5 -7.5t9 -7.5t5 -2.5q3 0 3 3v4v7.5t-1 6.5q-2 2 -6 5.5
t-9 7.5t-10.5 8.5t-10 8t-8 6.5t-3.5 5q0 3 1.5 4t3.5 1q6 0 11 -4t9.5 -9t9 -9.5t9.5 -4.5q1 0 2 1t1 2.5v2.5v3v2v1l-0.5 1.5l-1 3l-1 3t-0.5 2.5q-1 1 -1.5 5t-1.5 9t-2 9.5t-1 5.5l-1 2t-1.5 4t-1.5 4t-1 3q-1 3 -3 6.5t-3.5 7.5t-3 7.5t-1.5 6.5zM118 138v46
q0 6 3.5 9.5t9.5 6t13 3.5t14 1.5t12 0.5h9h5.5t7 -0.5t6.5 -2t3 -4.5t-3 -5h-8h-13h-12.5h-8.5t-8 -0.5t-9 -2t-7 -4t-3 -7.5v-36v-16v-19v-19t1 -16q0 -4 1 -10t3 -12t5 -10.5t7 -5.5l2 -0.5t4 -0.5t3.5 -0.5t2.5 -0.5h43q1 0 1.5 -0.5t0.5 -1.5t-0.5 -2.5l-0.5 -1.5
q0 -3 -0.5 -4t-5.5 -1h-3t-6 0.5t-5.5 1t-3.5 0.5h-15t-17.5 1.5t-14.5 6t-7 15.5l-5 49q-1 2 -1 6v7v9v3t0.5 4t0.5 4v2q0 1 -0.5 3.5t-0.5 3.5zM178 137v5v6v5v2q0 2 0.5 5t1.5 5.5t2.5 4.5t4.5 2h17l1.5 -1t1.5 -2q2 -3 2.5 -7.5t0.5 -7.5v-20v-19q-1 -1 -2.5 -2t-2.5 -1
q-4 0 -4 2.5t-0.5 6t-2 6.5t-7.5 3q-3 0 -3.5 -2.5t-0.5 -6v-6t-3 -2.5q-2 0 -4 1.5t-2 3.5v4v6v5v4zM138 153v5t1 5.5t2.5 4.5t4.5 2h16q3 0 5 -3t3 -5q0 -6 0.5 -11t1 -9.5t0.5 -9v-10.5v-7q-1 -1 -2.5 -2t-3.5 -1h-1l-1 1.5t-2 1.5q1 5 1 8.5t-2 7.5q0 1 -1 1.5l-1 0.5
h-12v-16q0 -2 -1 -2h-2q-2 0 -2.5 0.5t-1.5 2.5q0 10 -1 18t-1 17zM186 144q0 -3 1.5 -5.5t5.5 -2.5q5 0 8 5v6q0 3 -1 6.5t-2.5 6t-4.5 2.5t-4.5 -2t-2 -5t-0.5 -6v-5zM145 153q0 -9 3 -11.5t11 -2.5q2 0 2.5 3t0.5 4v3v4.5t-0.5 4l-0.5 1.5l-2 2h-10q-1 0 -2 -1t-1 -2.5
t-0.5 -3zM149 90q1 3 4 4l6 2t6 1h5l3 -0.5l3 -0.5h4.5h5.5t5.5 -1t3.5 -5q1 -8 1 -14.5v-14.5v-14q-2 -4 -6 -4q-2 0 -3 2t-1.5 5t-0.5 6t-1 5q-6 1 -10.5 1.5t-9.5 0.5h-3h-2l-1 -2q0 -2 0.5 -4.5t0 -4.5t-1.5 -4.5t-4 -2.5q-2 2 -3.5 6t-1.5 8.5v9v6.5v3v5q0 2 0.5 4.5z
M158 78v-3.5t1 -3.5q6 -1 9.5 -1.5t8.5 -0.5h3.5h3.5q0 1 0.5 2t1.5 2v0v1q0 1 -0.5 3l-1 4t-0.5 3v2l-0.5 0.5l-0.5 0.5h-22q-1 0 -2 -1t-1 -2.5v-3.5v-2zM91 25q0 -2 1.5 -2.5t2.5 -0.5q6 0 10 5t4 11q0 3 -1 6.5t-4 5.5l-0.5 -1l-0.5 -1q-1 0 -1.5 -2t-1.5 -3.5
t-1.5 -3.5l-0.5 -2q0 -1 -1 -2.5t-2 -3.5t-2 -3.5t-1 -2.5h-1z" />
</svg>
