<?xml version="1.0" standalone="no"?>
<!DOCTYPE svg PUBLIC "-//W3C//DTD SVG 1.1//EN" "http://www.w3.org/Graphics/SVG/1.1/DTD/svg11.dtd" >
<svg xmlns="http://www.w3.org/2000/svg" xmlns:xlink="http://www.w3.org/1999/xlink" version="1.1" viewBox="-10 0 266 256">
   <path fill="currentColor"
d="M152 247q0 2 1 3t3 1t4 -1t2 -4q2 -11 3 -23.5t1 -24.5q0 -13 -0.5 -25t-0.5 -23l2 -2h2.5t6 -0.5t7 -0.5h5.5h3.5h4.5h4h3t2 -1.5l1 -1.5q1 -3 -1.5 -4t-6 -1.5t-7 -0.5h-4.5q-4 0 -7.5 0.5t-7.5 0.5h-5q-3 0 -3 -3v-5.5t3 -4.5q5 -1 10.5 -2.5t10 -4.5t7 -7.5
t2.5 -11.5v-1l-0.5 -2l-0.5 -2q0 -1 0.5 -1.5l0.5 -0.5v-8t-1 -5.5t-3.5 -4.5t-6.5 -6h-14h-14q-10 1 -16 2.5t-9 5t-4.5 9t-1.5 13.5q0 9 2.5 13.5t5.5 7t7 3t7.5 1.5t6 3t2.5 6q0 2 -1.5 3.5l-2.5 2.5q-9 0 -18 0.5t-17 1.5h-2t-2.5 0.5t-2.5 1t-1 2.5q0 3 3 4t6 1
q9 0 17 -1.5t17 -1.5h1.5t0.5 1v10q0 23 -2 45t-2 44zM67 228q0 3 1.5 3.5t3.5 0.5q3 0 5.5 -2.5t4 -5.5t2.5 -6l2 -6q1 -2 2 -6t2.5 -8t2 -6.5l0.5 -2.5l11 -79v-2v-3v-3v-3q0 -4 -1 -8t-2 -7.5l-2 -7t-1 -7.5q0 -3 2 -5.5t5 -4l6 -3t4 -3.5q2 -3 2 -6v-6q0 -5 -1 -9.5
t-3.5 -8t-6 -6.5t-8.5 -3q-4 0 -11.5 2.5t-15.5 6.5t-13.5 8.5t-5.5 9.5q9 0 13 1t5.5 2.5t1 4t-0.5 5.5t1 6t6 7v0h1q0 -1 0.5 -1.5l0.5 -0.5v-3v-4q0 -4 -1 -6.5t-2 -4.5l-2 -4t-1 -5t2.5 -5t5.5 -2q2 0 3.5 2t2.5 4q0 1 1 3.5t2 5.5t2 5.5t2 3.5v1q0 3 -3.5 6t-8.5 6
t-11 6.5t-11.5 7t-9 6.5t-3.5 6q0 2 0.5 3t2.5 1h1q1 0 2 -0.5l2 -1l2 -1t2 -0.5h1h3h3h2l1.5 -3t4 -6.5t5.5 -6.5t8 -3q3 0 4.5 3.5t1.5 6.5v1t-1 2q0 1 -2.5 3.5l-5 5t-5 4.5t-2.5 3l-6 4l-6 4t-5.5 4.5t-2.5 6.5t4 4q2 0 4.5 -1.5t4.5 -3.5l4 -4t4 -3l2.5 -2.5t4 -3.5
t4 -3.5l2.5 -2.5h1q1 1 1 3t0.5 5t0.5 5v3q0 7 -4.5 11t-8.5 8q-1 2 -4.5 5t-7 6.5l-6.5 6.5t-4 5q-2 2 -3.5 3t-1.5 4t2.5 4t4.5 1q4 0 7.5 -4t7 -9t6.5 -10t6 -7l0.5 -0.5l0.5 -0.5v0.5t1 0.5l0.5 1t0.5 2v0q0 11 -2.5 21t-6 20t-8 20t-8.5 19v0v1zM165 108q0 -2 0.5 -4.5
t4.5 -2.5h16q0 6 -4 10.5t-11 4.5q-4 0 -5 -3t-1 -5zM134 101q5 0 9 -1t8 -1t5.5 2t1.5 6q0 5 -3 6t-8 1q-6 0 -9.5 -3t-3.5 -10zM136 90q0 -3 1.5 -5t4 -3.5t5 -2.5t4.5 -1h4q2 2 2 5v5l-0.5 2l-0.5 2l-1 1h-18q-1 0 -1 -1v-2zM165 85q0 -1 0.5 -4t2.5 -3h13q2 0 3 1.5
t1.5 3l1 3t0.5 2.5q0 2 -1.5 3.5t-3.5 1.5t-3.5 0.5t-2.5 0.5t-3.5 -0.5l-2.5 -0.5q-5 -3 -5 -8zM129 55q2 3 5 3.5t7 0.5q7 0 11 -3t5.5 -8.5t1.5 -11.5v-12v-3v-4t-1 -3t-3 -1q-3 0 -4 2.5t-1 5.5t0.5 5.5t0.5 3.5q-3 2 -6 2.5t-7 0.5q-2 0 -3 -2t-1.5 -5t0 -5.5t0.5 -4.5
q-5 0 -6 2.5t-1 6.5q0 8 0.5 15t1.5 15zM176 58h2t4 0.5t4 0.5h2h2h1q2 0 3.5 -1t2.5 -3t1.5 -4t0.5 -4v-33q0 -1 -1.5 -1h-2.5q-5 0 -5.5 3t-0.5 6q0 4 -0.5 6.5t-4.5 2.5q-3 0 -4 -2l-2 -4l-2 -4t-3 -2q-3 0 -3.5 1.5t-1.5 3.5v7.5v9.5t2 9.5t6 7.5zM95 32q0 -2 0.5 -4.5
t3.5 -2.5t4.5 2t3 4.5t2.5 5t1 4.5q0 1 -1 3t-2.5 3.5l-3 3t-2.5 1.5l-1.5 -2.5t-2.5 -6t-1.5 -7t-0.5 -4.5zM134 44q0 -4 3 -5t6 -1q6 0 6 6q0 4 -2.5 6t-5.5 2q-7 0 -7 -8zM175 43v-3t1 -2l0.5 -0.5l0.5 -0.5h10l0.5 1.5l0.5 1.5q1 0 1 2v2q0 3 -0.5 5.5t-3.5 2.5
q-4 0 -7 -2t-3 -7z" />
</svg>
