<?xml version="1.0" standalone="no"?>
<!DOCTYPE svg PUBLIC "-//W3C//DTD SVG 1.1//EN" "http://www.w3.org/Graphics/SVG/1.1/DTD/svg11.dtd" >
<svg xmlns="http://www.w3.org/2000/svg" xmlns:xlink="http://www.w3.org/1999/xlink" version="1.1" viewBox="-10 0 266 256">
   <path fill="currentColor"
d="M122 247q0 3 1.5 3.5t4.5 0.5q6 0 6 -8v-1l-0.5 -2t-0.5 -3v-1q0 -1 2 -2t3 -2h4.5t7.5 -0.5t7.5 -0.5h5.5h3q9 0 17.5 1t16.5 1h4t4.5 -0.5t4 -2t1.5 -3.5q0 -1 -1 -3t-3 -2h-38q-2 0 -2.5 -1.5t-1 -3.5t-0.5 -3.5v-2.5t0.5 -2.5t2 -2.5l3 -2t3.5 -1h26q1 0 2 -1t2 -1
v-0.5v-0.5v-0.5v-0.5l-3 -3l-2 -2h-32q-2 0 -2 -1.5v-2.5v-3t0.5 -4t2 -3.5t2.5 -1.5l29 -4q1 0 1 -1v-2v-2t-1 -1h-29q-1 0 -1.5 -1.5t-0.5 -2.5v-3t0.5 -4.5t1.5 -4t3 -1.5q3 0 6 1.5t6 3.5t5.5 3.5t6.5 1.5q2 0 4.5 -1t2.5 -4v-0.5v-1.5q-2 -1 -6.5 -2.5t-9 -3.5t-8 -4
t-3.5 -3q0 -2 1 -3t3 -2q1 0 3 -1t4.5 -1.5t5 -1.5t3.5 -1l0.5 -1.5t1.5 -1.5v-1q0 -3 -5 -6t-11 -6.5t-11.5 -6.5t-6.5 -5v-9q0 -6 1 -10.5t1 -9.5v-2q0 -1 -0.5 -4l-1 -6t-0.5 -5.5v-3.5q0 -2 1 -4.5t3 -4.5t4.5 -3t5.5 -1h30q2 0 2 -2v-2v-3t-2 -1h-14q-1 -1 -4 -3t-3 -3
l0.5 -1l1 -2l1 -2t1.5 -1v-1v-2q0 -4 -4 -4t-7 4.5t-6 10.5t-6.5 10.5t-6.5 4.5t-5.5 -5t-4.5 -11t-5 -11t-8 -5v1q-1 0 -1.5 1t-0.5 2q0 3 1.5 5t1.5 5v2.5t-1 2.5q-1 0 -1.5 1l-0.5 1h-15v1v2q1 0 1.5 0.5l0.5 0.5q9 0 15 1t10.5 4t6.5 8.5t2 13.5v10v10t-1 10t-3 10
t-7.5 7.5l-11 5t-10 6t-4.5 9.5v2l3 1q2 1 5 2l6 2l6 2t5 1l0.5 0.5t0.5 1.5v0v1q-4 6 -7.5 11t-6 9.5t-4.5 10.5t-3 13q0 1 -1 8t-2 16t-2 18.5t-2 15.5v1zM78 236q0 1 0.5 2t1.5 1q6 0 9.5 -4.5t5 -10t2.5 -11.5t2 -9q1 -1 2 -5t1 -5q1 -2 1.5 -8t1.5 -13t2 -13.5t1 -8.5
v-2v-4.5v-4.5v-4q0 -7 -2 -13t-4.5 -11.5t-4.5 -10.5t-2 -9q0 -2 2 -4t4.5 -3t4.5 -2.5t4 -3.5q5 -6 7 -13.5t2 -16.5q0 -5 -2 -10t-5 -9.5t-7 -7t-9 -2.5q-9 0 -14.5 3t-9.5 6.5l-8 7t-9 5.5l-14 17q0 1 -1 4t-1 5v1v0q0 1 1.5 2.5l1.5 1.5q3 1 5 -1.5t3.5 -5t3.5 -5
t4 -3.5q4 2 6.5 6t4.5 8.5t4 7.5t4 3t2.5 -2t0.5 -3q0 -3 -1.5 -7t-3.5 -8t-4 -7.5t-4 -5.5v-1v-1q0 -4 1.5 -6t6.5 -2q4 0 6 4l4.5 9t4 9.5t4.5 4.5q2 0 3 -1.5t0 -3.5q0 -9 -4 -15.5t-8 -13.5q1 -3 2.5 -4t5.5 -1t7 2.5t5.5 6t3.5 8t1 7.5q0 7 -2 11t-4.5 8t-6 7.5
l-7.5 7.5q0 1 -0.5 1.5l-0.5 0.5q-5 2 -8.5 3.5t-6.5 4.5q-10 15 -19 30q-2 4 -5.5 8.5t-3.5 8.5q0 2 0.5 3.5t2.5 1.5q4 0 7.5 -3.5t6.5 -9t6 -11.5t6 -11.5t5.5 -9t6.5 -3.5q1 0 2.5 1.5t2.5 3.5t1.5 4t0.5 4q0 4 -2 8t-5.5 7.5l-6.5 6.5l-6 6q-2 2 -4.5 6t-5 7.5
t-4.5 6.5l-2 3v8q6 0 10.5 -4.5t9 -11t8.5 -13t8 -9.5q3 2 3 5v6q0 8 -3.5 15t-8.5 13.5t-11.5 13t-11.5 12t-9 10.5t-4 9q0 1 2 3t4 2q4 0 9 -5.5t10 -12.5t9 -14t6 -10h0.5h0.5q3 0 3.5 2t0.5 5q0 6 -2.5 12t-5.5 12t-5.5 12t-2.5 12zM136 204h19l4 4v11l-0.5 1t-1.5 1
t-3.5 1t-3.5 1l-2 -0.5t-4 -0.5t-3.5 -0.5t-2.5 -0.5t-1.5 -1l-0.5 -1v-15zM138 189q0 -7 4.5 -8.5t9.5 -1.5h3.5h3.5q0 1 1 3.5t1 3.5v2q0 5 -2 6.5t-7 1.5h-5q-2 0 -4.5 -0.5t-3.5 -2t-1 -4.5zM159 146q4 3 5 6t1 7q0 1 -0.5 3.5t-0.5 3.5q-1 2 -4 3t-6 1h-6h-4
q0 -7 4.5 -13.5t10.5 -10.5zM138 129q0 -1 3 -4t7.5 -6t8.5 -5.5t6 -2.5q1 0 4.5 1.5t6.5 3.5t5.5 4t2.5 5q0 2 -1.5 2.5t-3.5 0.5q-3 0 -4 -1t-3 -1q-3 0 -4 1.5t-1.5 3.5t-1.5 3.5t-5 1.5q-1 0 -4.5 -0.5t-7 -1.5t-6 -2.5t-2.5 -2.5zM154 111q1 0 1 2t-1 2t-1 -2t1 -2z
M178 93q2 5 7 6t10 1q7 0 10.5 -2.5t5 -6.5t1.5 -9v-10q0 -6 -0.5 -9t-3.5 -8q-3 2 -3.5 5t-1.5 5.5t-3.5 4.5t-8.5 2q-1 0 -2.5 -1.5t-2.5 -3t-2 -3.5t-2 -2q-2 0 -3 3t-1 6.5v7v4.5v10zM125 90q4 3 7 3h7q7 0 10 -2.5t4 -6t1 -8.5v-10v-5.5v-4.5l-2 -1q-1 2 -2 5.5t-1 5.5
h-13l-5 -10h-1q-3 0 -4 3.5t-1 7v7.5v5v11zM184 88q0 -3 1.5 -6.5t5.5 -3.5t6.5 0.5t2.5 5.5q0 4 -2 5.5t-7 1.5h-5t-2 -3zM134 80q0 -4 2.5 -5.5t6.5 -1.5q3 0 4.5 0.5t1.5 3.5q0 5 -2.5 7t-6.5 2t-5 -1t-1 -5z" />
</svg>
