<?xml version="1.0" standalone="no"?>
<!DOCTYPE svg PUBLIC "-//W3C//DTD SVG 1.1//EN" "http://www.w3.org/Graphics/SVG/1.1/DTD/svg11.dtd" >
<svg xmlns="http://www.w3.org/2000/svg" xmlns:xlink="http://www.w3.org/1999/xlink" version="1.1" viewBox="-10 0 266 256">
   <path fill="currentColor"
d="M186 226q5 0 7 3.5t3 8.5t2.5 8.5t6.5 3.5h2.5t2.5 -2v-11q0 -1 -2 -3.5t-3.5 -5t-3.5 -5t-2 -4.5q-1 -1 -1.5 -2t-0.5 -2q0 -2 0.5 -3t1.5 -2v-18q0 -2 -1.5 -4t-4 -3.5t-5 -2.5t-4.5 -1h-36q-1 0 -2 1.5l-1 1.5v1q0 3 5.5 4t12.5 1.5t13.5 1t9.5 0.5q1 2 1 3v2
q0 2 -0.5 5t-3.5 3h-1l-1 -0.5t-2.5 -1l-3 -1l-1.5 -0.5q-1 0 -2.5 -0.5t-2.5 -0.5q-3 -1 -5.5 -1.5t-4.5 -0.5h-4h-6q-1 0 -3 -0.5t-3.5 0t-3 1.5t-1.5 3v2t2 2q8 0 17 1.5t17 3.5q1 0 1.5 1t0.5 2q0 3 -3.5 4.5t-6.5 1.5q-2 0 -6 0.5t-8.5 1t-8 1t-5.5 0.5t-2 2q0 4 3.5 6
t7.5 2q3 0 6.5 -0.5t7.5 -1t7.5 -1t5.5 -0.5q4 -1 6.5 -3t5.5 -2zM112 244q0 1 1 1h2h2q1 0 3 -2t2 -3v-53q0 -8 4.5 -12t11 -5t14 -0.5t14.5 0.5l2 -0.5t4 -0.5t3.5 -0.5l1.5 -0.5h5.5h7.5h8.5h5.5q1 0 1.5 -1.5t0.5 -2.5l-0.5 -2t-1.5 -2h-37v-5.5t0.5 -2t3 0t8.5 -0.5h3
t4 -0.5t3.5 -0.5h2.5l2 -2t2 -1v-1v-1l-2 -2t-2 -1h-21q-3 0 -3.5 -1.5t-0.5 -2.5q0 -3 3 -4t7 -1.5t8.5 -1l9 -1t7 -2t2.5 -5.5q0 -3 -2 -5t-5.5 -3.5t-7.5 -2.5t-7.5 -2.5t-5.5 -2.5t-2 -3q0 -3 3.5 -4t8 -1.5t8 -2t3.5 -5.5q0 -1 -5.5 -3.5t-12.5 -5t-14 -4.5t-8 -2
t-3.5 1.5t-6 3.5t-7 4.5t-6.5 5t-5.5 4.5t-2.5 3q0 3 3.5 3.5l7 1t6.5 1t3 3.5q0 1 -3 4l-7 7t-8 7.5t-5 6.5q-3 8 -5.5 18.5t-4 22t-2.5 22.5t-1 19v14.5t2 14.5zM56 239q0 2 1.5 3.5t3.5 1.5q3 0 6.5 -2t4.5 -5l20 -59v-2v-1q0 -1 0.5 -5t1 -8.5t1 -8.5t0.5 -5v-4v-7v-8
v-7v-5v-8v-7.5v-5.5l-0.5 -2.5t-1 -4.5l-1 -4t-0.5 -3q0 -2 -1 -3.5t-1 -3.5v-3q9 -7 15.5 -16.5t6.5 -21.5q0 -6 -1 -10t-6 -9q-3 -2 -6 -2h-6q-7 0 -15.5 3t-16 7.5t-12.5 10.5t-5 13q2 0 4 -1t4 -1.5t4 -1.5t4 -1q1 0 4 3.5t6 8.5t5 9.5t2 6.5q0 5 -4.5 8.5t-10.5 6.5
t-11 6.5t-5 8.5q0 3 1 3.5t3 0.5q5 0 8.5 -3t6.5 -6.5t6.5 -6.5t8.5 -3q2 0 2.5 2.5t1.5 3.5q-1 1 -1.5 3t-1.5 4l-2 4t-2 2q-1 2 -4.5 6t-7.5 8.5t-7.5 9t-5.5 5.5v3q0 4 4 4q5 0 8.5 -3.5t6.5 -7.5t5.5 -8.5t5.5 -6.5q3 1 3.5 4.5t0.5 6.5q0 8 -6.5 16.5t-14 16t-13.5 14
t-6 10.5q0 3 2 3.5t4 0.5h4l2.5 -2.5t3 -3.5t3.5 -4t2 -3q2 -1 3 -4t3 -6t4 -5.5t4 -2.5q1 0 1 1q1 0 1.5 2l0.5 2q0 7 -2 14t-4.5 14.5t-5 14.5t-5.5 12q0 1 -2 4.5l-4 7t-3.5 7t-1.5 5.5zM151 152q2 0 3.5 1t1.5 3q0 3 -3 4.5t-5 1.5h-4h-6.5h-7.5h-4q0 -4 2.5 -6t6.5 -3
t8 -1h8zM145 136h8q2 3 2 5q0 1 -0.5 2t-1.5 1q-5 1 -11.5 1.5t-12.5 0.5q0 -4 1 -6t3 -3t5 -1h7zM143 125q0 -4 2.5 -6t5.5 -2t4 0.5t1 4.5q0 3 -2.5 4t-4.5 1h-4t-2 -2zM167 120q0 -3 1 -4t2 -1q4 0 6.5 2.5l4.5 4.5q-2 2 -3.5 2.5t-4.5 0.5q-2 0 -4 -1t-2 -4zM144 95
l0.5 -1l0.5 -1l10 -8v0h2t4 0.5t5.5 1t4.5 2t3 2.5q0 2 -1.5 2h-2.5q-3 0 -4.5 -1.5t-3.5 -1.5q-3 0 -4 1.5t-1.5 3.5t-1.5 4.5t-2 3.5h-1q-3 0 -5.5 -2.5t-2.5 -5.5zM123 74q1 0 3 0.5t4 0.5t4 0.5l2 0.5h3q7 0 10.5 -3.5t5 -8.5t1.5 -10.5v-10.5v-10t-2 -7.5t-5.5 -5
t-9.5 -1.5q-8 0 -12.5 3t-6.5 8t-2.5 11t-0.5 12t0.5 11.5t5.5 9.5zM164 39v4q1 1 1.5 3l0.5 2q0 8 0.5 13t2 8.5t5.5 5t13 1.5q8 0 12.5 -3t7 -7.5t3 -10.5t0.5 -12v-8t-1 -9.5t-3.5 -8t-8.5 -3.5q-7 0 -13 1t-10.5 3.5t-7 7.5t-2.5 13zM125 62v-1v-1q5 -1 11 -2t11 -1
q0 5 -1.5 8t-6.5 3q-2 0 -4 -0.5t-4.5 -1t-4 -1.5t-1.5 -3zM176 62q0 -3 2 -4.5t5 -1.5t6 0.5t7 1.5v2q0 2 -1.5 3.5t-3.5 2t-4 0.5h-4h-3h-3t-1 -1.5v-2.5zM69 35q0 -2 2 -2.5t4 -0.5q3 0 5.5 3t5 6.5t4 7.5t1.5 7q0 2 -2 4.5t-5 2.5q-1 0 -2 -2.5t-2.5 -6t-3 -6.5l-2.5 -5
q-1 0 -3 -2.5t-2 -3.5v-2zM126 46q0 -2 2 -3t4 -1.5l4 -1t4 -0.5t5 1t3 4q0 2 -1.5 3.5t-3 2t-3.5 1t-4 0.5q-3 0 -6.5 -1t-3.5 -5zM173 47q0 -4 3 -6t7 -2.5t8.5 -0.5h6.5q0 1 -0.5 4l-0.5 3l-0.5 1l-0.5 1q-6 0 -10 0.5t-9 0.5h-2t-2 -1zM84 26q1 -3 3 -4t4 -1q4 0 6 2.5
t3 6t1 7.5v6q-3 0 -5.5 -2.5t-4 -5t-3.5 -5.5t-4 -4zM66 35q1 0 1 2t-1 2t-1 -2t1 -2zM128 33q0 -3 2 -4.5t5 -1.5h6h4v5l-13 3q-3 1 -3.5 0t-0.5 -2zM196 27q0 1 -1 2.5l-1 1.5q-5 1 -9.5 1.5t-9.5 0.5q0 -1 1 -4t3 -3h15l1 0.5z" />
</svg>
