<?xml version="1.0" standalone="no"?>
<!DOCTYPE svg PUBLIC "-//W3C//DTD SVG 1.1//EN" "http://www.w3.org/Graphics/SVG/1.1/DTD/svg11.dtd" >
<svg xmlns="http://www.w3.org/2000/svg" xmlns:xlink="http://www.w3.org/1999/xlink" version="1.1" viewBox="-10 0 266 256">
   <path fill="currentColor"
d="M140 152q0 13 1.5 27t5.5 26q3 6 8.5 14t12.5 15.5t15 12.5t15 5q0 -2 -0.5 -6t-0.5 -5t-3 -3.5t-7.5 -6t-9.5 -7.5t-9.5 -8.5t-7.5 -9t-3 -8.5q0 -1 2 -3.5t4 -6t4.5 -7t2.5 -5.5q2 -3 2 -6.5t0.5 -7.5t1.5 -7t4 -5q1 0 3 -0.5l4 -1t3.5 -1t2.5 -0.5q5 -2 7.5 -8.5
t3.5 -13.5t1.5 -14.5t0.5 -11.5q0 -10 -0.5 -16t-3 -9.5t-7 -5.5t-13.5 -3q-1 -2 -1.5 -4t-0.5 -4q0 -7 3.5 -12t8 -9.5t8 -9.5t3.5 -12q-6 0 -11 4t-9.5 10t-7 12.5t-3.5 12.5v1v3v3v2l-1 1.5l-1 1.5h-17l-2 -2q-1 -8 -1.5 -16.5t-3 -15.5t-8 -11.5t-15.5 -4.5h-1.5h-1.5
q-1 1 -1.5 3l-0.5 2q0 4 3 5.5t6.5 3t6.5 3t4 4.5q5 12 5 26q0 2 -2.5 3.5t-5 2.5t-5.5 2.5t-4 2.5t-1.5 3t-1.5 4.5t-2 4.5t-1 4v3v6v5v4q0 5 -0.5 12t0.5 13t3.5 10.5t8.5 6.5q1 0 4.5 1t5.5 2zM56 239q0 4 1.5 5.5t5.5 1.5q2 0 3.5 -5.5t2.5 -14t2 -18.5t1 -19v-15.5
v-7.5q1 -2 1 -6t0.5 -8.5l1 -9t1.5 -5.5q1 -3 2 -3.5t3 -0.5q4 0 5.5 3.5t1.5 6.5v12v17v17v11q0 1 0.5 4.5t1 7.5t1 7.5t0.5 4.5v5.5v6t1.5 5t4.5 2.5t4 -3t1 -6q0 -7 -2 -13.5t-3 -13.5q-1 -16 -1 -31.5v-32.5v-4v-4q10 -8 12 -20v-7q0 -4 0.5 -9t0.5 -9v-6v-25t-2 -25
q-4 -7 -9 -8.5t-12 -1.5q-13 0 -19.5 3t-10 9t-4 15.5t-0.5 21.5v13q0 5 0.5 10t1 10.5t2.5 13.5q0 2 1.5 4.5t3 4.5l3 4t1.5 4q0 15 -1 30t-2 29l-2 10t-2 11t-1.5 11.5t-0.5 10.5zM149 178v-98q0 -3 1 -4t3 -2t4 -1h4q6 0 7 3t1 10t-1 14.5t-1 15.5q0 1 0.5 4l0.5 3
l0.5 2.5l0.5 2.5q0 33 -16 62zM127 103v-7t1 -9.5t3.5 -8t6.5 -3.5q2 0 3 2t1 4.5t0.5 5l0.5 2.5v1q0 2 -0.5 7.5t-0.5 12t-0.5 12t-0.5 6.5v5v3t-0.5 3.5t-0.5 3.5h-1q-5 0 -7.5 -5t-3.5 -12t-1 -13.5v-9.5zM177 140v-19v-11v-10t0.5 -10t0.5 -11q1 -3 2.5 -3.5t3.5 -0.5
q4 0 6.5 3.5t3.5 8.5t1.5 10t0.5 8t-1 9t-3 12.5t-5 11t-7 4.5q-1 0 -2 -0.5t-1 -1.5zM65 101l1 -2q7 -1 13.5 -2.5t13.5 -1.5l2 0.5l2 0.5q0 1 0.5 2.5t0.5 4t0.5 4t0.5 2.5v3q0 3 -1.5 7t-4.5 4h-21q-1 0 -3 -3.5t-3 -4.5q0 -2 -0.5 -4.5t-0.5 -4.5v-3.5v-1.5zM62 84v-8.5
t1 -8.5q7 -3 14.5 -4.5t14.5 -1.5h3t2 2q0 1 0.5 3t0.5 4.5t0.5 5t0.5 3.5v1q0 5 -3.5 6.5t-8 2t-9 0.5h-6.5h-5h-4q-1 -1 -1 -2v-3zM65 50q0 -10 5.5 -14.5t15.5 -4.5q7 0 9.5 4t2.5 11v3t-1 2l-1 2h-3t-7 0.5t-8 0.5t-7 1h-3q-2 0 -2.5 -1t-0.5 -4z" />
</svg>
