<?xml version="1.0" standalone="no"?>
<!DOCTYPE svg PUBLIC "-//W3C//DTD SVG 1.1//EN" "http://www.w3.org/Graphics/SVG/1.1/DTD/svg11.dtd" >
<svg xmlns="http://www.w3.org/2000/svg" xmlns:xlink="http://www.w3.org/1999/xlink" version="1.1" viewBox="-10 0 266 256">
   <path fill="currentColor"
d="M51 249l1 1h1h1q5 -3 8 -11.5t4 -18.5t1.5 -20.5t0.5 -16.5q0 -3 0.5 -8t1 -11.5t1 -11.5t0.5 -8q1 -4 3.5 -5t6.5 -1q6 0 7.5 3t1.5 10q0 10 -0.5 22.5t-0.5 25t1 24.5t5 23l0.5 0.5t1.5 0.5v0v0q4 0 6 -3.5t2 -6.5q0 -6 -1.5 -12t-2.5 -12v-8t-0.5 -13t-0.5 -13.5v-8.5
v-15v-16q1 -3 3.5 -4.5t4.5 -4.5q2 -4 3.5 -9t2 -10t0.5 -10v-10q0 -13 -0.5 -27.5t-1.5 -27.5q0 -5 -3 -9t-8 -5h-2h-4.5h-4.5h-2h-10t-9 1t-7.5 3t-6.5 7q0 1 -0.5 2l-1.5 3t-1.5 4t-0.5 3v73q0 4 1.5 7t3.5 5t4 5t2 7q0 12 -2 25t-3 25q-1 13 -3.5 25.5t-2.5 25.5v6z
M191 247q1 1 2 1.5t2 0.5q3 0 4.5 -2t2 -4.5t0.5 -5.5v-5v-8v-5.5v-10.5t-0.5 -12.5t-0.5 -12.5v-10.5v-6.5v-15t-0.5 -18.5t-2 -18t-5.5 -13.5q-3 -4 -8 -6t-10 -4.5t-8.5 -5.5t-3.5 -8v-4t3 -3q6 0 12.5 -1t12 -3.5t8.5 -7t3 -12.5v-1.5t-0.5 -3.5t-0.5 -4v-2v-18
q1 -3 -1 -3h-4h-2q-3 0 -3 2v17l-58 3q-1 0 -2.5 0.5t-3.5 1t-3 1.5t-1 2t0.5 2.5t1.5 1.5h25l3 3q1 0 1 2v3q0 3 -0.5 7t-3.5 6h-4h-6.5t-7 0.5t-4.5 0.5q-2 0 -4 1t-2 4q0 2 1 2.5t4 0.5l2 -0.5t4.5 -0.5h4.5h3q0 -1 2 -1h3h3t3 1q2 4 2.5 7t1.5 5.5t3 5t6 6.5l-2 22
q0 2 -1.5 3.5t-3.5 1.5h-22v-16q0 -1 -2 -2.5t-3 -2.5h-0.5h-0.5h-2t-1 2q0 1 -0.5 4.5t-0.5 6.5v7v5v17.5t2 13t7.5 8t16.5 2.5q8 0 13.5 -4t7.5 -12v-18q0 -9 -1 -18t-1 -18q6 0 10 3t6 8t2.5 11t0.5 11v9.5v14.5v17v17v14.5v9.5v6.5t0.5 9.5t0.5 9.5v6.5zM136 141v-7
q4 -3 9 -3h10q6 0 7 3t1 8t-0.5 8t-2 5t-4 3t-7.5 1h-4h-4q-3 -1 -4 -3.5t-1 -5v-5v-4.5zM60 110q0 -6 2.5 -8.5t6.5 -3t9 0t10 0.5h3h3h4.5h1.5l1 2v4v7t-0.5 8t-2 7t-5.5 3q-6 0 -12 -0.5t-10.5 -2.5t-7.5 -6t-3 -11zM62 88q0 -1 -0.5 -3.5t-0.5 -5.5t-0.5 -5.5t-0.5 -3.5
v-1q0 -2 4.5 -3.5t10.5 -2t11 -1t7 -0.5h8q2 3 2 5v6v4.5v5.5t-1 5t-4 3h-3h-4h-4h-2h-4h-4h-4h-2q-1 0 -4 -0.5t-4 -0.5q0 -1 -0.5 -1.5zM163 59v-5v-3t1 -4t2 -3t3 -1h21v13q0 1 -2.5 2t-6 1.5t-6.5 1l-3 0.5h-5t-4 -2zM63 48q0 -6 2 -9.5t5.5 -5.5t8 -2.5t9.5 -0.5h4.5
h4.5q2 1 3.5 2.5t2 4.5t0.5 5.5v4.5t-2 4.5t-4 2.5h-32l-2 -1v-5z" />
</svg>
