<?xml version="1.0" standalone="no"?>
<!DOCTYPE svg PUBLIC "-//W3C//DTD SVG 1.1//EN" "http://www.w3.org/Graphics/SVG/1.1/DTD/svg11.dtd" >
<svg xmlns="http://www.w3.org/2000/svg" xmlns:xlink="http://www.w3.org/1999/xlink" version="1.1" viewBox="-10 0 266 256">
   <path fill="currentColor"
d="M159 188h3t3 1l1 1l0.5 5t0.5 11.5t0.5 13.5t0.5 12v6v2.5t0.5 3.5t0.5 4v3h1.5h0.5q4 0 5 -4t1 -7q0 -12 -1.5 -23.5t-1.5 -22.5q0 -4 1.5 -6l3 -4t3.5 -3.5t3 -4.5q0 -1 0.5 -3t1 -4.5l1 -5t0.5 -3.5t0.5 -4.5t1 -8l1 -9t0.5 -7.5v-1v0v-5.5t-0.5 -7.5t-0.5 -7.5v-5.5
q-1 -3 -3 -5.5t-5 -3.5q-2 0 -6.5 -0.5t-10 -1t-10 -0.5h-6.5h-1q-1 0 -4.5 0.5t-7.5 2t-7 3.5t-4 5q0 2 -0.5 4.5l-1 5t-1 4.5l-0.5 2v49q0 4 1.5 7t3.5 5.5t4.5 5t4.5 3.5v3q0 13 -2 25.5t-2 24.5q0 2 0.5 4t3.5 2v0v0q1 -1 3 -2.5t2 -2.5q2 -12 3 -25.5t0 -26.5
q1 -2 3 -2.5t4.5 -1t4.5 -0.5h3zM94 238q0 1 1.5 1.5t2.5 -0.5q2 0 3 -1.5t1 -3.5v-5v-3q0 -51 -1 -101.5t-2 -101.5q0 -1 -0.5 -2.5t-1 -2t-1 -1.5l-0.5 -1h-46l-0.5 1l-0.5 1q0 2 -0.5 5.5l-0.5 3.5h13l4 4v3v5q0 27 -2 53.5t-2 53.5q0 9 1 18.5t1 18.5q0 10 -1 20t-1 21
v6q1 1 2 1.5t2 0.5q2 0 4 -3t2 -5v-112q2 -21 2 -41.5t3 -41.5q2 -3 4 -4t6 -1t5 1.5t2 6.5q-1 52 0.5 103t0.5 103zM132 165v-2v-2l3 -1l3.5 -0.5t8 -1l9 -1t7.5 -0.5h1h2q5 0 7.5 1t2.5 6q0 7 -2.5 10t-6.5 4.5t-9 2t-10 0.5q-7 0 -11.5 -4t-4.5 -12zM130 144q0 -7 4 -10
t10 -3h35l1 2v4v6.5t-3 5.5q-5 0 -8.5 0.5t-7.5 0.5h-8h-8h-2h-4.5h-4.5h-2t-1.5 -1t-0.5 -2v-2v-1zM132 117q0 -5 1.5 -7.5t4 -4t6 -2.5t7.5 -2l23 1q2 1 3.5 2t2 3t0.5 4v4q0 5 -4 7t-9.5 2.5t-11 -0.5t-8.5 -1l-2.5 1t-3.5 1v0h-1q-4 0 -6 -2.5t-2 -5.5zM146 70
q-1 0 -4.5 0.5t-6.5 1t-6.5 0.5h-4.5q-3 1 -5.5 1.5t-2.5 4.5h74q1 0 3.5 -1.5t2.5 -3.5q0 -3 -2.5 -3.5t-3.5 -0.5h-5h-4.5t-7.5 0.5t-7 0.5h-4l-2 -1v-16l2 -1q0 -1 2.5 -1t6 -0.5l7 -1t5.5 -1.5h5h6h7h4q2 0 2 -1.5v-2.5t-0.5 -2.5t-2.5 -1.5q-8 1 -18 1.5t-19 0.5h-4
l-1 -2v-14l1 -0.5t2 -1.5q1 0 3 -0.5t3 -0.5h12q1 0 3 -0.5t4 -0.5t3.5 -0.5t2.5 -0.5t1.5 -1t0.5 -2q0 -3 -2 -4t-4 -1q-9 0 -17 0.5t-16 1.5t-16 1.5t-18 -0.5l-2.5 1t-3.5 1v1v1q0 5 3.5 5.5t6.5 0.5q4 0 8 -1t8 -1q3 0 4.5 2t1.5 5t-0.5 7t-1.5 5q-1 2 -4.5 2.5t-8 0.5
h-10t-9.5 0.5t-6.5 1.5t-1.5 4l1 1t1 2q2 0 6 -0.5t8 -0.5t8 -0.5t5 -0.5h2h3.5h2.5h3v4.5v5.5t-0.5 5t-2.5 2z" />
</svg>
