<?xml version="1.0" standalone="no"?>
<!DOCTYPE svg PUBLIC "-//W3C//DTD SVG 1.1//EN" "http://www.w3.org/Graphics/SVG/1.1/DTD/svg11.dtd" >
<svg xmlns="http://www.w3.org/2000/svg" xmlns:xlink="http://www.w3.org/1999/xlink" version="1.1" viewBox="-10 0 266 256">
   <path fill="currentColor"
d="M175 242q0 3 2 5t5 2q2 0 3 -0.5t2 -2.5v-4v-3q0 -9 -1.5 -17.5t-3.5 -18t-3.5 -18t-2.5 -17.5v-7t0.5 -11t1 -11.5t0.5 -7.5q4 0 6 2.5t4 5.5t4.5 5.5t5.5 2.5t5.5 -1.5t2.5 -4.5q0 -4 -3 -7t-6 -3q-1 -2 -3.5 -4t-5.5 -5.5t-5.5 -6.5t-3.5 -6v-1q0 -4 1.5 -8t3.5 -7.5
t3.5 -7t1.5 -8.5q0 -3 -2 -3.5t-5 -0.5q-1 0 -2.5 1.5t-2.5 3t-1.5 3.5t-0.5 3h-1.5h-0.5q-3 0 -4.5 -2t-3 -5.5t-2 -7t-0.5 -5.5v-3t2 -2q8 -2 18 -3.5t19 -0.5q1 -1 1 -2v-3q0 -3 -1.5 -4t-2.5 -1q-9 0 -16.5 1.5t-15.5 1.5h-3h-2.5t-1 -1.5l-0.5 -1.5q0 -4 2 -5.5t5 -2
t7 -1t7 -2.5t5.5 -6.5t2.5 -11.5q0 -3 -1 -3.5t-3 -0.5q-4 0 -5 3t-2 6.5t-3 6.5t-7 3q-1 0 -3 -0.5l-2 -0.5l-0.5 -0.5t-0.5 -1.5v-16q0 -2 -2 -2h-3q-2 0 -4 2.5t-3 5.5q1 4 1.5 7t0.5 5.5v5v6.5v6q0 1 -3 2t-7 1.5t-9 1t-9.5 0.5h-7.5h-5v-26q0 -1 -1 -2.5t-3 -3
t-3.5 -2.5t-2.5 -1h-3t-4.5 -0.5t-5.5 -0.5h-2q-6 0 -12.5 0.5t-11.5 2.5t-8.5 7t-3.5 14v63q0 4 1 6t3 4t4 3t4 3l2 2v6q0 14 -1 27.5t-2.5 27.5t-3 27.5t-1.5 27.5q0 4 1 5t4 1h2h1l5 -11v-4.5t0.5 -10.5t0.5 -12t1 -11v-2v-4v-4v-2v-10t0.5 -15t1 -14.5t1.5 -9.5v-6t1 -4
t2.5 -2.5t3.5 -0.5t4.5 0.5t4.5 1.5v9.5t0.5 13.5t0.5 13.5v8.5v12t2 12v48q0 3 2 3.5t4 0.5t3 -1.5t2 -4.5v-10q0 -12 -1 -24.5t-2 -24.5t-2 -24.5t-1 -24.5v-10q0 -2 1.5 -4t3 -4.5t3 -4l1.5 -1.5q3 -4 4 -9.5t1.5 -11t0 -11t-0.5 -10.5l0.5 -0.5t0.5 -1.5q8 -2 16.5 -2.5
t16.5 -0.5q4 0 7 2.5t4.5 7t3 10t2.5 10.5l2 10t3 8v12q0 6 -1 11.5t-1 10.5q0 13 1.5 25.5l3 25l3 25t1.5 25.5zM128 220q0 3 1.5 3.5t3.5 0.5q3 0 6 -5.5t5 -13.5t4 -18.5t3 -20t2 -17.5t1 -11v-15q-2 -5 -5 -8t-5.5 -6t-5 -6.5t-2.5 -9.5q0 -5 1.5 -10.5t1.5 -10.5v0
q0 -1 -1.5 -2.5l-1.5 -1.5q-3 -1 -4.5 2.5t-2.5 8t-1 9v6.5q0 3 1 6t2 6.5t1.5 6.5t0.5 5q0 1 -0.5 2.5t-1.5 4t-2 4t-1 2.5q-3 7 -6 15.5t-5.5 17t-4.5 17.5t-2 17q5 0 6.5 -2t3.5 -8q0 -1 2 -7t3.5 -12.5t3.5 -12.5t2 -7q1 -2 1.5 -6t2 -8t3.5 -7t5 -3q1 0 2 3t1 6.5v7
v4.5v4.5v3.5q-1 2 -1.5 7t-1.5 11t-2 11t-2 7l-0.5 1.5l-0.5 1.5q-1 2 -2.5 5.5t-3 7.5t-2.5 7.5t-2 4.5v2zM61 93v-3t1 -2q8 0 15 -1t14 -1h7q3 2 3 7q0 6 -2 9t-5 5t-7 2h-8t-7.5 -0.5t-6 -2t-3.5 -5t-1 -8.5zM58 66q0 -3 5 -4.5t11.5 -2t12.5 -0.5h8h4h2l1 2v12
q0 2 -3.5 3t-8.5 1.5l-10 1t-7 0.5q-3 0 -6 -0.5t-5 -1.5t-3.5 -3.5t-0.5 -7.5zM59 47q0 -7 3 -11t7 -6t9 -3t10 -1h4t4 1q2 0 3 2t1.5 4t0.5 4.5v4.5q0 5 -3.5 7t-8.5 3t-10 0.5t-7 -0.5h-11q-2 -1 -2 -2.5v-2.5z" />
</svg>
