<?xml version="1.0" standalone="no"?>
<!DOCTYPE svg PUBLIC "-//W3C//DTD SVG 1.1//EN" "http://www.w3.org/Graphics/SVG/1.1/DTD/svg11.dtd" >
<svg xmlns="http://www.w3.org/2000/svg" xmlns:xlink="http://www.w3.org/1999/xlink" version="1.1" viewBox="-10 0 266 256">
   <path fill="currentColor"
d="M133 203q2 0 3.5 4t2 9t1 11.5t0.5 11.5t0.5 8.5t1.5 3.5t2.5 -1t2.5 -2.5l2 -3t1 -2.5q0 -9 -2 -17.5t-2 -17.5q0 -2 1.5 -4.5t3.5 -4.5t4 -4.5t3 -5.5v-15v-8t-0.5 -10.5t-2 -10.5t-4.5 -7h-14h-11.5t-10.5 1t-9 4.5t-6 10.5v13v8t0.5 5.5l1 5l1.5 7.5q0 2 1.5 3.5
t3 3.5t2.5 3.5t1 3.5q0 10 -1.5 21t-3.5 20q0 1 1 1.5l1 0.5h0.5h0.5q3 0 4.5 -2t2.5 -5t1.5 -5.5t0.5 -4.5q0 -3 0.5 -6.5l1 -7t0.5 -6.5v-3l3 -4l1.5 -0.5t4 -0.5t3.5 -1h1zM109 188q0 -2 4 -3.5t9.5 -2t10.5 -1t7 -0.5h3h3l0.5 1t0.5 2v0q0 5 -2.5 7.5t-6 3.5t-7 1h-6.5
h-4h-5q-3 0 -5 -2.5t-2 -5.5zM108 167v-2t2 -3q6 1 12.5 0t13.5 -1h10q2 1 2.5 2.5t0.5 3.5t-1 4t-4 3q-3 0 -6.5 0.5t-6 0.5h-5.5h-6q-5 0 -8.5 -0.5t-3.5 -7.5zM110 151v-1q0 -1 1 -1.5t1 -1.5q7 -3 11.5 -3h10.5h5h5q2 1 2.5 2.5t0.5 3.5t-2.5 3t-4.5 1h-28l-1 -1t-1 -2
v0zM75 136q1 2 2 3t3 1h1h1l2 -7q0 -2 0.5 -6.5t1 -10t1 -10t0.5 -6.5q1 -7 2.5 -11.5t3.5 -7t6 -4t11 -2.5q9 -1 17 -1h18h21q2 1 4 9.5t3.5 18t2 19t0.5 13.5h3q4 0 5.5 -3.5t1.5 -7.5v-1.5v-1.5q-1 -1 -1.5 -5.5l-1 -9t-1 -8.5t-0.5 -7q-2 -8 -4 -12.5t-5.5 -7t-8.5 -3
t-12 -1.5h-3.5h-5.5h-5.5h-3.5t-1.5 -1l-0.5 -1v-1v-1q1 0 1 -2t1 -2v-39q0 -4 -2 -6.5t-5 -2.5q-5 0 -5 5v5t1 4v41l-1 1q-16 1 -25 4.5t-14 10t-6.5 17t-1.5 26.5v12zM106 116q2 4 5 7h3h4h5h3h3h5h4h2q7 -1 10.5 -2.5t4.5 -4t1 -7v-10.5v-2v-4v-4.5v-2.5t-1 -1
q-1 -1 -2.5 -2l-1.5 -1q-1 0 -2 1.5l-2 3t-1.5 3.5t-2.5 2q-1 0 -3 0.5t-4.5 0.5h-4.5h-3q0 1 -2.5 1.5l-2.5 0.5h-2h-3q-5 0 -6.5 -1.5t-2 -3l-1 -3t-2.5 -1.5t-2 2v3v4q0 1 0.5 4t0.5 6.5t0.5 6.5t0.5 4zM138 100h8q1 2 1 4v3q0 4 -2 5.5t-5.5 2.5t-6.5 1h-6h-2.5
t-4.5 -0.5l-4 -1t-2 -1.5v-10l2.5 -0.5t3.5 -0.5q4 -1 5.5 -1.5t3.5 -0.5h3h6zM68 62q2 2 3.5 2h2.5q4 0 7.5 -1.5t7 -3.5t7 -4.5t6.5 -3.5q1 -1 2 -3t1.5 -4.5t0.5 -5.5v-4v-7q-2 -3 -6 -3h-1.5t-1.5 2v15l-1.5 1t-3 2.5t-3.5 2.5t-3 3q-2 1 -5 2t-6 2.5t-5 3t-2 4.5z
M149 21h-1q0 1 -0.5 1.5l-0.5 0.5v21l0.5 1t2 2t2.5 2l2 2q4 4 11.5 4h12.5h5q1 -2 1 -4v-0.5v-0.5q-9 -2 -14 -2.5t-8.5 -2.5t-5 -6.5t-2.5 -14.5q-1 -1 -2.5 -2t-2.5 -1z" />
</svg>
