<?xml version="1.0" standalone="no"?>
<!DOCTYPE svg PUBLIC "-//W3C//DTD SVG 1.1//EN" "http://www.w3.org/Graphics/SVG/1.1/DTD/svg11.dtd" >
<svg xmlns="http://www.w3.org/2000/svg" xmlns:xlink="http://www.w3.org/1999/xlink" version="1.1" viewBox="-10 0 266 256">
   <path fill="currentColor"
d="M182 110l2 4l0.5 5.5t1 13.5t1.5 16t1 14q1 9 1.5 19t0.5 20q0 5 0.5 12.5t0.5 14.5v12v5l4 3q2 -3 3 -7t1.5 -8t0.5 -8v-8q0 -14 -1.5 -27.5t-3 -27.5t-3 -27.5t-1.5 -27.5q0 -2 1.5 -5t2.5 -6l2 -6t1 -6q0 -7 -3.5 -10.5t-9 -5.5t-11.5 -3t-11 -1q0 4 4 6t8.5 3.5
t8.5 4.5t4 9q0 2 -0.5 4t-3.5 2t-7 -2t-8 -4.5t-8.5 -4t-8.5 -1.5q0 4 3.5 6.5t8 4t8 3.5t3.5 5q0 1 -0.5 2t-2 1h-2.5h-2q-4 0 -7.5 -1.5t-6.5 -3.5t-6 -3.5t-7 -1.5q0 1 2 4t5 5.5t6 4.5t4 2h24zM65 106v1q-2 4 -3 7l-2 6t-1.5 6.5t-0.5 8.5v110q4 -2 5.5 -4.5t2 -6.5
t0.5 -7v-7q1 -23 1.5 -44.5t2.5 -44.5q0 -1 -0.5 -4t-0.5 -6q0 -4 1 -6.5t3 -4.5t5 -2h6h6t6 -1l4 -2l4 -2t3.5 -2l1.5 -1v-5q-3 0 -5.5 1t-4.5 2t-5 2t-5 1q-1 0 -3.5 -0.5l-2.5 -0.5q0 -3 3 -5t5.5 -4l5 -4t2.5 -5h-5l-21 13l-1 1q-3 0 -4.5 -2.5t-1.5 -4.5t1.5 -4.5
t3.5 -3.5l27 -14v-3q-6 0 -12 2t-10 3q-5 1 -9 3t-6 4t-3.5 6t-1.5 9q0 3 1.5 5t3 3.5t3 3.5t1.5 3zM91 243q1 1 2.5 1.5t3.5 0.5q9 0 13.5 -5.5t7 -12.5t5 -13t7.5 -6q3 0 5.5 3t4.5 7t4 9t5.5 9t8 6.5t11.5 2.5q0 -4 -2.5 -7t-6.5 -6t-7.5 -6t-5.5 -6q-1 -1 -2.5 -4
t-2.5 -4q1 -4 3.5 -5.5t5 -3.5t4.5 -4.5t2 -6.5v-62q0 -2 -2 -4t-4.5 -3.5t-5.5 -2.5t-4 -1q-1 -1 -3 -1h-4h-3h-3q-6 0 -11.5 0.5t-10.5 2.5t-8 6t-4 11v4t-0.5 7t-0.5 8.5v6.5v4q0 4 0.5 11t2.5 13t6 10.5t10 4.5l0.5 2t0.5 3q0 7 -3.5 11.5t-7.5 8t-7.5 6t-3.5 5.5z
M104 187q0 -3 4 -4t9.5 -2t11 -0.5t7.5 0.5h9q2 0 2 2v2q0 5 -2 7.5t-5 4.5t-6.5 2.5t-7.5 0.5q-3 0 -7 -0.5t-7 -2t-5.5 -3.5t-2.5 -7zM101 173v-17l3 -3l2.5 -0.5t6 -0.5t7 -0.5t6.5 -0.5h9h10q3 1 3.5 4.5t0.5 5.5v3t-0.5 4t-1 3.5t-2.5 1.5h-44zM102 140q0 -6 3.5 -8.5
t8 -4t9.5 -2t8 -0.5h10q3 3 4 5.5t1 7.5l-0.5 1.5l-0.5 1.5l-4 2h-37q-1 0 -1.5 -1t-0.5 -2zM123 52q0 1 -0.5 4.5t-0.5 7.5v7v5t0.5 4t0.5 6t0.5 5.5t0.5 3.5t0.5 2t1.5 2q2 -1 3 -3t1.5 -4.5t0.5 -4.5v-3v-5.5v-9.5v-8.5v-5.5q4 -3 9.5 -4t12.5 -1h12h12q1 0 3 -0.5t5 -1
t5 -0.5h3t1.5 -1l0.5 -1v0v-1v0v0q0 -1 -0.5 -1.5t-1.5 -0.5h-57q0 -3 4 -5.5t10 -5t12.5 -4.5t12.5 -3.5t9.5 -3t3.5 -2.5t-1 -1.5t-2.5 -1t-2.5 0t-2 0.5q-9 0 -19.5 2.5t-18.5 7.5q-4 2 -8 6t-9 4q-3 0 -4.5 -2t-3.5 -4t-4 -4.5t-4 -3.5q-9 -5 -20.5 -7.5t-21.5 -2.5
q-1 0 -3.5 0.5t-2.5 2.5q0 1 4 2.5t10 3t13 3t13.5 4t10.5 6t4 7.5v1q-1 0 -1.5 1l-0.5 1q-21 2 -41 1q-1 1 -3 2t-2 3v0v0q0 1 0.5 1.5t1.5 0.5h18q9 0 17.5 -0.5t17.5 -0.5z" />
</svg>
