<?xml version="1.0" standalone="no"?>
<!DOCTYPE svg PUBLIC "-//W3C//DTD SVG 1.1//EN" "http://www.w3.org/Graphics/SVG/1.1/DTD/svg11.dtd" >
<svg xmlns="http://www.w3.org/2000/svg" xmlns:xlink="http://www.w3.org/1999/xlink" version="1.1" viewBox="-10 0 266 256">
   <path fill="currentColor"
d="M144 201q0 13 -2 25t-2 25q4 0 6 -4t3 -10.5t1 -13.5v-14t1 -10.5t4 -4.5t4 6.5t1.5 15t0.5 16.5t2 13q0 1 1 1h2h1.5t1.5 -1v-7q0 -8 -1 -16t-1 -16v-12q1 -1 2.5 -1.5t3 -1.5t2.5 -2t1 -2v-54q0 -2 -2 -3.5t-5 -2l-6 -1t-4 -0.5q-14 0 -20 6.5t-6 19.5v8q0 3 0.5 7.5
t1 8.5t1 7.5l0.5 3.5l7 7l0.5 3t0.5 4zM108 246q0 2 0.5 2.5t2.5 0.5q3 0 5 -3t2 -6q0 -7 -1 -14.5t-1 -14.5q0 -23 3 -45.5t5 -45.5q0 -3 1.5 -4t3.5 -1t4 0.5t3 -0.5h3.5t5 -0.5t4.5 -1t3 -1.5q2 0 2.5 -1.5t0.5 -3.5v0q0 -1 -0.5 -2l-0.5 -1h-1q-4 0 -7 2t-7 2h-4
q-2 0 -2 -2v-1l1 -3q1 -1 3 -2t4 -2.5t4 -2.5t3 -2l1.5 -1t1.5 -2t-1.5 -2l-1.5 -1q-3 0 -6 2.5l-6 5l-6 5t-6 2.5q-2 0 -2 -2v-3q0 -4 3 -6.5t7 -4.5t7 -4.5t3 -6.5q-4 0 -8.5 2.5t-9 6.5t-8 8t-2.5 7l0.5 1.5l1 3t1.5 3l1 1.5v2v3v3v2q0 2 -1 6t-1.5 9t-1 9.5t-0.5 5.5
q-2 11 -2.5 21t-0.5 21q-1 4 -2 9t-1 9t0.5 8t0.5 8t-0.5 7t-0.5 7v4v4zM194 245l0.5 1t0.5 2h1q2 0 3.5 -1.5t2.5 -4t2 -4.5t1 -3q0 -3 -2 -7q-2 -27 -4 -56.5t-2 -57.5q0 -5 1.5 -9t1.5 -10q0 -7 -1.5 -11t-5 -6t-8 -3t-10.5 -3h-2q-3 0 -3 3q0 4 3.5 5t8.5 2t8.5 3t3.5 8
q0 1 -0.5 3t-3.5 2t-6 -2l-6 -4t-6.5 -3.5t-6.5 -1.5q-2 0 -3 0.5t-1 2.5q0 4 3.5 5t8 1.5t8 1.5t3.5 6q0 3 -1 3.5t-5 0.5q-1 0 -2.5 -0.5t-3 -0.5h-3.5h-2h-1q-1 0 -1.5 0.5t-0.5 1.5v2t2 1h16q2 0 4 5.5t3 13t1.5 17t1 18t1 14.5t0.5 8v7.5t0.5 11.5t0.5 11.5v6.5v20z
M79 239v2t2 2q3 0 5.5 -3t3.5 -6q3 -22 6.5 -45t3.5 -45q0 -19 -0.5 -38.5t-3.5 -37.5q-3 -4 -4.5 -6.5t-4.5 -5.5q-2 -2 -6 -3t-7.5 -2.5t-6 -3.5t-1.5 -6q0 -1 0.5 -2.5t1.5 -3t1.5 -3t1.5 -1.5q3 -1 8 -1.5t10 -1.5t8.5 -3.5t4.5 -7.5h-5q-8 0 -15 0.5t-12 3t-8 7.5
t-3 14q0 8 2.5 11.5t6.5 5t8.5 2.5t9.5 5q2 3 3.5 8.5t2 12t0 12.5t-0.5 10v12q-1 3 -4 3.5t-5 0.5h-4t-4.5 -0.5t-4 -1.5t-1.5 -3v-18q0 -3 2 -3.5t5 -1t5 -1t2 -2.5q0 -3 -2 -3.5t-4.5 -0.5h-5t-2.5 -3q0 -1 -0.5 -2.5t-0.5 -3.5t-0.5 -3.5t-0.5 -2.5t-1.5 -3t-2.5 -3
q-1 0 -2 0.5t-1 1.5v95q0 7 -1.5 13t-2.5 12.5t-2.5 13t-1.5 13.5q0 1 1 3t3 2q3 0 4 -2.5t1.5 -5.5t0.5 -6t1 -4q0 -3 0.5 -7.5l1 -9t1 -8.5t0.5 -5q0 -4 2 -5.5t5 -2.5t6 -1h6v-2v-1.5t-2 -1.5h-13l-1 -2q-1 -1 -1 -2.5t-0.5 -4t-0.5 -5v-3.5q0 -5 1.5 -7.5t4.5 -3.5
t6.5 -1h7.5h4t3 3v11q0 16 -2.5 31.5t-4.5 31.5q-2 7 -4.5 15t-2.5 15zM142 179v-2.5v-1.5q6 -4 13.5 -4.5t13.5 -0.5q0 11 -3.5 14.5t-14.5 3.5q-4 0 -6.5 -3t-2.5 -6zM171 152q0 6 -0.5 8t-2 3t-4.5 1h-7q-1 0 -2.5 0.5t-3 0.5t-3 0.5t-2.5 0.5h-2.5h-3.5q0 -6 2.5 -9.5
t7 -4t10 -0.5h11.5zM159 133q4 0 7 1.5t3 5.5q0 2 -0.5 3t-2.5 2q-2 0 -5 0.5t-6.5 0.5t-7 0.5t-6.5 0.5q0 -9 5 -11.5t13 -2.5zM108 75q0 2 1 2.5t2 0.5h1v0q1 0 3.5 -1t2.5 -2q4 -3 8 -5.5t7.5 -4.5t8 -5t9.5 -6q2 -1 2.5 -1h1.5q6 0 11 2.5t10.5 6t10.5 6.5t10 3
q2 0 4.5 -1t2.5 -4t-3.5 -5t-8.5 -3.5t-11 -3t-11 -3t-8.5 -4t-3.5 -4.5v-33q0 -1 -1.5 -1.5t-2.5 -0.5t-2 0.5t-1 2.5v36q-1 0 -3 1.5t-4.5 2.5t-4.5 2t-3 1q-2 2 -6.5 4.5t-9.5 6t-8.5 6.5t-3.5 4zM105 52q0 3 3 3q5 0 10 -2.5t8.5 -6.5t6 -9t2.5 -10v-3q0 -3 -1 -4
l-1 -0.5l-1 -0.5h-1h-1l-1.5 1t-1.5 2q0 11 -3.5 15.5t-7.5 6.5t-7.5 3t-3.5 5zM176 13v27q0 1 3 2.5t7 3t8 2.5t5 1q3 0 4.5 -1t1.5 -3q0 -4 -3.5 -5.5t-7.5 -2.5t-7.5 -2t-3.5 -6q0 -2 1 -4t1 -5t-3 -5t-6 -2z" />
</svg>
