<?xml version="1.0" standalone="no"?>
<!DOCTYPE svg PUBLIC "-//W3C//DTD SVG 1.1//EN" "http://www.w3.org/Graphics/SVG/1.1/DTD/svg11.dtd" >
<svg xmlns="http://www.w3.org/2000/svg" xmlns:xlink="http://www.w3.org/1999/xlink" version="1.1" viewBox="-10 0 266 256">
   <path fill="currentColor"
d="M58 247q0 3 1.5 3.5t2.5 0.5q4 0 5.5 -2t2.5 -5t1 -6v-5v-5v-10v-11v-12v-10v-5q0 -11 1 -24t4 -24q1 -2 3 -2h3h1.5h2.5q1 2 1.5 5t0.5 5.5t0.5 5t0.5 3.5v9.5t0.5 14t0.5 14.5v9v10.5v15.5v15.5v9.5q1 2 2 2h2q2 0 3 -1t2 -3t1 -4v-4v-2q0 -4 -0.5 -11.5t-0.5 -17.5
t-0.5 -20.5t-1 -20t-0.5 -17.5v-11q1 -4 3 -7l4 -6t3.5 -6t1.5 -7v-69q0 -5 -2.5 -7t-6 -2.5t-7.5 -0.5h-7h-10q-5 0 -10 1.5t-8.5 4.5t-3.5 9v27v27v4.5t0.5 5.5t0.5 5.5v2.5l1.5 2l3 4t2.5 3.5l1 1.5v6q0 23 -2.5 46.5t-2.5 47.5v17zM130 196q2 5 2 9.5t1 8t3.5 6.5t7.5 5
h3h5.5h4.5h3h4h5.5h4.5h2q2 0 5.5 -0.5t6.5 -2t5.5 -3t3.5 -4.5q0 -7 0.5 -13t0.5 -11.5v-11.5v-12q0 -3 0.5 -7t-0.5 -7t-3.5 -5t-6.5 -2q0 4 -0.5 7.5t-1.5 6t-3.5 4.5t-6.5 2q-6 0 -8 -1.5t-3 -4t-0.5 -5.5t0.5 -6q0 -2 -1 -4.5t-4 -3.5l-1 0.5t-2 1.5l-0.5 0.5l-1.5 1.5
v6q0 1 0.5 5l1 8t1.5 6.5t4 2.5h22q2 0 2.5 2t0.5 3q0 3 -2.5 5t-7 3t-10 1.5t-10 1t-8.5 0t-5 -0.5h-3q0 -2 -0.5 -6t-1 -8.5t-1 -8.5t-0.5 -6q-1 -4 -2.5 -6.5t-5.5 -2.5v46zM143 203q0 -4 1 -5t5 -4q8 0 16 -0.5t16 -0.5h5l1 1v3v3q0 5 -0.5 8t-3.5 6q-7 1 -12 1.5
t-11 0.5q-4 0 -7 -0.5t-5.5 -2t-3.5 -4t-1 -6.5zM119 97q0 13 2.5 20.5t8.5 11t15.5 4.5t22.5 1q10 0 17 -2.5t11 -7.5t5.5 -12t1.5 -17q0 -9 -0.5 -12.5t-2.5 -5t-5.5 -2t-8.5 -2.5h-43l-1.5 0.5t-3.5 1t-4.5 1.5t-3.5 1q-7 3 -9 7.5t-2 12.5zM163 125v-2t-0.5 -4.5
t-0.5 -4.5v-3v-0.5v-1.5t0.5 -6t1 -10.5t1.5 -9.5t3 -4t3 1.5t2 3.5q0 7 -0.5 12.5t2.5 11.5q1 3 2.5 6.5t1.5 7.5q0 1 -1.5 2.5t-3.5 2.5t-4 1.5t-3 0.5t-2 -1.5t-2 -2.5zM141 118q0 -4 2 -7t3 -6v-6v-8t1 -7.5t4 -4.5l4 5v6.5t-0.5 9.5t-0.5 9.5v6.5v6q0 4 -4 4t-6.5 -2
t-2.5 -6zM66 104v-3.5t2 -2.5q7 -1 12.5 -1.5t12.5 -0.5q1 0 3 0.5l2 0.5l2 1v2v4v7t-1.5 6.5t-4.5 4.5t-8 2q-20 0 -20 -20zM125 101q0 -2 0.5 -5t1 -5.5t2.5 -4.5t5 -2q2 0 3 1.5t1 4.5v5v3v5t-0.5 5.5t-2 5t-3.5 2.5q-3 0 -4 -2l-2 -4t-1 -4.5v-4.5zM179 89v-5q3 -4 6 -4
q2 0 3.5 1.5t3 3.5t2 4.5t0.5 3.5v3.5t-0.5 5.5t-0.5 5.5t-1 3.5l-1.5 1.5l-1.5 1.5h-1q-2 0 -3.5 -3.5t-3 -7.5t-2 -8t-0.5 -6zM65 88l-1 -3.5t-1 -4.5v-1q0 -7 5 -10q2 0 5.5 -0.5t7.5 -1t7.5 -1t4.5 -0.5h2h1q3 0 4 1.5t1.5 3.5t0 4.5t-0.5 4.5q0 4 -1 6t-3 3t-4.5 1
h-5.5h-1h-4.5t-6 -0.5t-6.5 -0.5t-4 -1zM117 60v5q3 0 8 -2t9.5 -5t8 -6.5t3.5 -6.5v-27q0 -1 -1 -1.5t-2 -0.5h-2h-1q-4 0 -4.5 1t-0.5 5q0 3 0.5 6t0.5 7q0 5 -1.5 8.5t-4 6t-6 5t-7.5 5.5zM65 54q0 -4 2 -7t5.5 -4t8 -1h8.5h4h4q2 1 2.5 3.5t0.5 5.5v3.5t-2 3.5
q-5 1 -9 1.5t-9 0.5h-4.5h-5t-4 -1.5t-1.5 -4.5zM170 23q0 7 1.5 13.5t4.5 11t8.5 6.5t13.5 2h5q2 -1 2 -2v-3v-1.5v-1.5q-8 -1 -13 -3t-7.5 -6t-3.5 -10t0 -14q-2 -2 -3 -2h-3q-3 0 -4 3t-1 7z" />
</svg>
