<?xml version="1.0" standalone="no"?>
<!DOCTYPE svg PUBLIC "-//W3C//DTD SVG 1.1//EN" "http://www.w3.org/Graphics/SVG/1.1/DTD/svg11.dtd" >
<svg xmlns="http://www.w3.org/2000/svg" xmlns:xlink="http://www.w3.org/1999/xlink" version="1.1" viewBox="-10 0 266 256">
   <path fill="currentColor"
d="M81 154q0 13 -4.5 25.5t-9.5 24.5q-3 6 -5 13t-5 12q-2 3 -4 5.5t-3.5 5.5l-3 6t-1.5 7q9 0 15 -8t10.5 -19t7.5 -22.5t5 -17.5l1.5 -1.5l0.5 -0.5q5 3 7 8.5t3 11.5t2 11t4 6q0 1 1 4l2 6t2.5 5.5t1.5 3.5q2 3 3.5 4t3.5 1q3 0 3.5 -1.5t0.5 -4.5q0 -5 -1.5 -9.5t-4 -9
t-5.5 -9t-4 -8.5q-6 -16 -9.5 -32.5t-4.5 -32.5q-1 -9 -1 -18t-1 -18q0 -1 -1 -3t-3 -2q-4 0 -5 5v9q0 11 1 21.5t1 21.5zM170 179q1 3 3.5 9.5t5.5 14t5 14t3 9.5q1 2 1.5 5t1.5 6t2.5 5.5t3.5 2.5q3 0 4 -0.5t1 -3.5t-1.5 -8.5t-4 -12t-5 -12.5t-3.5 -8q-2 -5 -5 -10.5
t-4 -10.5q-3 -9 -4 -19.5t-1 -21v-21t1 -20.5q-1 -2 -2.5 -2.5t-3.5 -0.5h-1.5h-0.5q-1 1 -1.5 3t-0.5 3q0 12 0.5 24.5t-0.5 24.5t-4 23.5t-8 22.5q-3 6 -4.5 12.5t-3.5 12.5q-1 2 -3 4.5t-4 5.5t-3.5 5.5t-1.5 4.5l0.5 1.5l0.5 1.5h5h4q2 0 4 -4t4.5 -10.5t4.5 -14
t4.5 -15t4 -13t2.5 -8.5h1h2t1 1zM59 111h-2t-1 2q-2 4 -2 8.5v9v9v7.5v6t-0.5 11t-1 11t-0.5 6v7q5 0 7.5 -1.5t3.5 -5.5q0 -3 0.5 -9.5t1 -14t0.5 -14v-9.5v-1v-2v-3.5t-0.5 -5.5t-1 -5.5t-0.5 -3.5q0 -2 -1 -2h-3zM108 175q1 1 2.5 2t3.5 1v0q1 0 1.5 -0.5t0.5 -1.5v-7
q0 -8 -0.5 -16t-1.5 -15v-6.5t-0.5 -7t-0.5 -6v-2.5l-5 -6v-1q-2 0 -3 1.5t-1 3v3.5v3q0 13 2 27t2 28zM138 172l0.5 0.5l0.5 0.5h1h1l1.5 -0.5l1.5 -0.5q2 -8 2 -17v-16v-22q-1 -1 -2 -2.5t-2 -1.5q-2 0 -3 1.5t-1 3.5v2v6.5t0.5 9.5t0.5 9.5v5.5q-1 4 -1 7v7v7zM194 170
q0 1 1 1.5t2 0.5q2 0 3 -1.5t1 -4.5v-2q0 -3 -0.5 -10t-1 -15.5t-1 -15.5t-0.5 -10q0 -1 -1.5 -2t-2.5 -1t-2 0.5t-2 0.5v7q0 13 0.5 26t3.5 26zM79 66q0 6 -2.5 9t-6 5t-8 3.5t-8 3.5t-6 5.5t-2.5 8.5q5 0 9.5 -2.5t9 -5.5t9 -5.5t10.5 -2.5q3 0 6.5 2t7.5 4.5t7.5 4
t6.5 1.5t4.5 -0.5t1.5 -3.5q0 -5 -4 -7t-9.5 -3.5t-10.5 -3t-6 -3.5v-4v-4v-3v-4.5t1 -4t3 -1.5t4.5 1.5l5 3t5 2.5t4.5 1h4t3 -3t-3 -5l-9 -4.5t-10 -4t-6 -3.5v-16q0 -1 -0.5 -3l-1 -4t-1.5 -3.5t-4 -1.5l-1 0.5t-2 1.5l-0.5 0.5l-0.5 0.5v25q0 3 -2 4.5t-5.5 2t-7 1.5
t-6.5 2t-5 3t-2 5t1.5 3.5t4.5 0.5v0q4 -2 9.5 -5t10.5 -3q1 0 1.5 1.5t0.5 3v3v1.5zM175 83q5 0 9 2.5t7.5 6t6.5 6t7 2.5q2 0 4 -1t2 -3v-2q-4 -6 -10 -9t-11.5 -5.5t-10 -6.5t-4.5 -12q0 -5 1 -7t5 -2h2h1q1 1 3 2t4.5 2.5t4 3l2.5 2.5q2 1 2.5 1h2.5t3.5 -2t1.5 -4
q0 -3 -4 -5.5t-9 -4.5l-10 -4t-7 -5q-1 -2 -1 -6t-0.5 -8t-2 -7.5t-5.5 -3.5v0q-1 1 -1.5 2t-0.5 2v23q0 3 -5 4.5t-11 3.5t-11.5 4.5t-5.5 6.5q0 2 0.5 3t3.5 1q4 0 7 -2l6 -4t7 -4t9 -2v18q0 5 -5 8t-11 6l-11 5.5t-5 6.5v1l2 1.5l2 1.5q2 0 5.5 -2.5t8.5 -5.5t10.5 -5.5
t11.5 -2.5z" />
</svg>
