<?xml version="1.0" standalone="no"?>
<!DOCTYPE svg PUBLIC "-//W3C//DTD SVG 1.1//EN" "http://www.w3.org/Graphics/SVG/1.1/DTD/svg11.dtd" >
<svg xmlns="http://www.w3.org/2000/svg" xmlns:xlink="http://www.w3.org/1999/xlink" version="1.1" viewBox="-10 0 266 256">
   <path fill="currentColor"
d="M127 134q1 29 -1.5 57.5t-2.5 57.5q6 0 9.5 -1.5t4.5 -6.5q0 -20 0.5 -42.5t1.5 -43.5q1 -1 4.5 -1.5t7.5 -1t7.5 -1.5t3.5 -4q0 -1 -0.5 -2.5t-1.5 -1.5h-21v-27h21q1 0 1.5 -2.5l0.5 -2.5q0 -4 -3.5 -4.5t-7.5 -0.5t-7 -2t-3 -9q0 -4 1 -6.5t2.5 -4t4 -3t4.5 -3.5
t5 -5.5t5 -5.5t2 -3v-18q0 -3 -3.5 -5t-8.5 -3t-9.5 -1.5t-6.5 -0.5h-4h-4l-1 0.5t-1 1.5v1q0 3 4 3.5t9 1t9 1.5t4 7q0 7 -3.5 12.5t-8 10t-8.5 10t-4 12.5v7v10v10v6zM195 243q1 3 2 4t4 1q5 0 6 -3t1 -8q0 -18 -3 -35.5t-5 -34.5v-1q0 -1 1.5 -4.5t4 -8t5 -8t3.5 -5.5
v-33q0 -5 -4 -7.5t-9.5 -3t-10.5 -0.5h-7h-5.5h-5t-4 1t-1.5 4q0 4 4.5 4.5t10 0.5h11t7.5 3q0 2 1.5 5l1.5 3l-3 22h-0.5h-0.5q-2 0 -3.5 -2t-2.5 -4t-3 -4t-4 -2h-21q-1 0 -1.5 1.5l-0.5 1.5q0 1 0.5 2.5t1.5 1.5h16q2 0 3 3l2 6t1.5 6t0.5 4q0 3 -5.5 5.5t-12 4t-12 2.5
t-5.5 2v9q4 0 8 -1.5t8 -2.5t7.5 -2t7.5 -1h2t2 1q0 9 1.5 18t3 18.5t2 18.5t0.5 18zM42 240q2 1 3.5 1h3.5q5 0 9 -4t7 -9.5t5 -12.5t4 -13t3.5 -10t4.5 -4q2 0 4.5 4t4.5 10t4 13t4.5 12.5t5 9.5t4.5 4q3 0 4.5 -1.5t1.5 -3.5v-3q-1 -1 -2.5 -5t-3.5 -7.5t-3.5 -7
t-2.5 -5.5q-1 -3 -2 -3.5t-1.5 -1t-0.5 -1.5t-1 -4q-2 -8 -3.5 -17t-5.5 -18v-59v-3t-0.5 -4t-1.5 -4t-3 -2q-2 -1 -3.5 1.5t-2 5l-1 5t-0.5 3.5v8.5v13.5v13.5v8.5q-1 19 -8 35t-14 31q-1 2 -3 5t-3.5 7t-3.5 7t-3 5zM49 190q0 2 1 2h2q6 0 8.5 -7t3 -16.5t0 -18.5
t-0.5 -13v-16q0 -4 -1 -5.5t-5 -1.5t-6 3t-2 7v56v10zM105 185q2 2 5 2q2 0 2.5 -2t0.5 -4q0 -7 -0.5 -14.5l-1 -15l-1 -15t-0.5 -14.5v-2v-3v-3v-2q0 -2 -2.5 -1.5l-2.5 0.5q-2 0 -3.5 -0.5t-1.5 1.5v15q0 15 1.5 29.5t3.5 28.5zM39 102q0 2 0.5 3t2.5 2q6 -1 11.5 -5.5
t11 -8.5t11 -7t10.5 -3q4 0 7.5 2t7 5t7 5t7.5 2h3.5t1.5 -3q0 -4 -4.5 -6.5t-10 -4t-10 -4t-4.5 -6.5v-19l0.5 -0.5t1.5 -0.5h1q3 0 5.5 1.5t4.5 4t4.5 4t5.5 1.5q2 0 4 -0.5t2 -2.5q0 -5 -4.5 -8t-10 -5.5t-10 -4.5t-4.5 -3v-25q0 -3 -2 -4t-4 -1q-5 0 -6.5 2t-1.5 6v5
l0.5 1.5t0.5 3.5t0.5 3.5l0.5 1.5q0 5 -2.5 8.5t-6.5 5t-8.5 2.5t-8.5 2.5t-6.5 3.5t-2.5 7q0 1 1 1.5t2.5 1t2.5 0t2 -0.5q6 0 11 -3t11 -7v0q3 0 4 2t1.5 5t1 5.5t0.5 3.5q0 4 -3.5 6.5t-8 5t-9.5 4.5l-10 4t-8 5t-3 7zM176 71q0 2 1.5 3t4 1.5t4.5 0.5h3q6 0 10.5 -0.5
t8 -3t6 -6t2.5 -9.5q0 -7 -1 -12t-4 -7.5t-8.5 -3.5t-13.5 -1h-1q-1 0 -2.5 1t-3 1.5t-3 1.5t-2.5 1v0.5v1.5t0.5 1.5l1.5 1.5q11 -2 16.5 1t5.5 14q0 4 -2 6t-5 2.5t-6.5 0t-6.5 0t-4.5 1t-0.5 3.5z" />
</svg>
