<?xml version="1.0" standalone="no"?>
<!DOCTYPE svg PUBLIC "-//W3C//DTD SVG 1.1//EN" "http://www.w3.org/Graphics/SVG/1.1/DTD/svg11.dtd" >
<svg xmlns="http://www.w3.org/2000/svg" xmlns:xlink="http://www.w3.org/1999/xlink" version="1.1" viewBox="-10 0 266 256">
   <path fill="currentColor"
d="M163 162h4t3 1v85q0 1 1 1.5t2 0.5h1v0l2.5 -2.5l2.5 -2.5v-5v-7v-7v-5q0 -14 -1 -27t-1 -27q0 -3 0.5 -5t4.5 -4q1 0 4 0.5t5 0.5q4 0 6.5 -0.5t3.5 -0.5q2 0 5 -0.5t3 -3.5q0 -1 -0.5 -2.5t-1.5 -1.5h-30v-34q0 -3 3 -4t7 -2.5t7.5 -4.5t4.5 -11v-19v-19t-1 -20
q-2 -1 -5 -1h-2t-1 1v60q0 1 -2 3l-3 3l-2.5 0.5t-4.5 1l-4 1t-3 0.5h-1h-1q-7 0 -13 -4.5t-6 -12.5v-50l-1.5 -0.5t-2.5 -1.5h-1v0l-2 2t-1 2v12v12v7.5t0.5 11.5t1 11.5t1.5 7.5q1 4 4.5 6.5t8 3.5t7.5 2t3 3v34l-2 1q-1 0 -5 0.5t-8 0.5t-7.5 0.5t-5.5 0.5q-3 0 -5.5 1
t-2.5 4q0 2 1 2.5t2.5 1t3.5 0.5h2q6 0 11 -0.5t11 -0.5zM74 213q2 0 7 0.5t10 0.5t9.5 0.5t6.5 0.5h2h1q2 0 4.5 -0.5t5 -0.5t4 -0.5t2.5 -0.5t3 -1t2 -2v-1l-2 -2l-1 -1h-35v-25q0 -1 2.5 -2.5t4.5 -1.5l1.5 -0.5t3 -0.5t3 -0.5l1.5 -0.5q3 -1 5 -6t3 -11t1 -11.5v-8.5v-4
t-0.5 -3.5t-2 -3t-3.5 -1.5q-3 0 -4 3.5t-1 8.5q0 4 0.5 9.5t-0.5 10.5t-3 8t-7 3q-1 0 -3 -0.5t-2 -2.5v-52q0 -2 -1.5 -3.5t-3.5 -1.5q-3 0 -3 1.5v3.5v5v8v14.5t0.5 18t0.5 17.5t0.5 14t0.5 9v1q0 2 -1.5 3.5t-3.5 1.5q-3 0 -5.5 -2.5t-4 -6t-2.5 -7.5t-1 -6v-48
q0 -3 -1.5 -3.5t-2.5 -0.5q-2 0 -3 1.5t-1.5 3t-0.5 3.5v4q0 7 -0.5 17t0.5 20t4.5 18.5t10.5 13.5zM83 77l0.5 1.5t0.5 3.5v2.5v2.5q-1 4 -3.5 7.5t-6.5 6.5t-9 5t-9 5t-6.5 6t-2.5 8q7 0 12 -3t9.5 -7t8.5 -8.5t9 -7.5h3q3 0 6.5 2t7 4.5t6.5 5.5l5 5h1.5h2.5h3.5t2.5 -3
q0 -5 -5 -8t-11 -6t-11 -6.5t-5 -9.5t3 -8t7 -3.5t8.5 -3t7.5 -4.5q0 -1 0.5 -3t0.5 -4.5t0.5 -4.5t0.5 -3v-1q0 -3 -1 -5.5t-4 -2.5t-3.5 1.5t-0.5 3.5v6t-1.5 5.5t-5 4t-11.5 1.5v-1v-2t0.5 -4.5t0.5 -7.5t0.5 -7.5t0.5 -4.5q2 -4 6.5 -6.5t9.5 -4.5t9.5 -3.5t4.5 -4.5
q0 -2 -1 -3t-3 -1q-5 0 -11 2t-11.5 5.5t-9.5 8t-4 8.5v31l-3 2h-31l-1 1.5t-2 2.5v0.5v0.5q0 3 3 5h6q6 0 13 -1t13 -1z" />
</svg>
