<?xml version="1.0" standalone="no"?>
<!DOCTYPE svg PUBLIC "-//W3C//DTD SVG 1.1//EN" "http://www.w3.org/Graphics/SVG/1.1/DTD/svg11.dtd" >
<svg xmlns="http://www.w3.org/2000/svg" xmlns:xlink="http://www.w3.org/1999/xlink" version="1.1" viewBox="-10 0 266 256">
   <path fill="currentColor"
d="M183 210q0 1 1 5t2 9t1.5 9t1.5 6v5t0.5 3.5t1.5 2.5t4 1h1h2q0 -1 0.5 -4.5t0.5 -4.5v-1q0 -6 -2 -12.5t-4.5 -13.5t-4.5 -13.5t-2 -12.5q0 -2 2 -4.5t4.5 -6.5t4.5 -9t2 -11q0 -7 -2 -11.5t-6.5 -7.5t-10 -4.5t-11.5 -2.5l-3 -2v-27l3 -3l23 -4q1 0 2.5 -1.5t2.5 -3.5
l2 -4t2 -3q-1 -14 0 -25.5t1 -24.5q0 -3 -1 -5t-4 -2q-1 0 -2.5 0.5t-1.5 1.5v22l-3 3h-19l-2 -1v-4.5t-0.5 -8.5t-0.5 -8v-2q0 -4 1.5 -7t1.5 -7q0 -2 -1.5 -4t-4.5 -2v0q-1 0 -2.5 0.5t-2.5 1.5v7.5t-0.5 11.5t-0.5 11.5v7.5v6h-5h-7t-7.5 0.5t-4.5 0.5t-3.5 1t-2.5 3v1
l1 1.5t2 1.5h27v30h-33q-2 0 -2.5 1.5t-0.5 2.5v0.5v0.5l6 1h30q1 0 1.5 1.5t0.5 3v1.5q0 6 -1 11.5t-1 12.5q-1 2 -4 2.5t-4 0.5t-3.5 0.5t-6 0.5t-6 0.5t-3.5 0.5v0v0v1v0q0 1 0.5 2l0.5 1h48q1 0 2.5 1t2.5 2t1.5 2t1.5 1q0 1 0.5 3l1 4t1 4.5t0.5 3.5v1q0 2 -1 4.5
t-2 5.5t-3 5.5t-5 2.5q-2 0 -4 -2.5t-5 -5.5t-7 -5.5t-9 -2.5q-1 0 -3.5 -0.5t-5.5 -0.5h-6h-3v7h22q2 0 4.5 2.5t5 6t4 7t1.5 4.5q0 4 -3 6.5t-7.5 4.5t-10 3t-10.5 2.5t-8 3t-3 3.5t2 2h4q6 0 11 -1t9 -3.5t8 -4.5t10 -4v0q1 0 2 1t2 2.5t1.5 3zM76 212q10 2 21.5 3.5
t21.5 1.5q1 0 2.5 -1.5t1.5 -3.5q0 -1 -1.5 -2.5t-3.5 -1.5h-16q-2 0 -3 -2t-1.5 -5t-0.5 -5.5v-3.5q0 -5 2 -6.5t4.5 -2t5.5 -1t6 -1.5t4.5 -3.5t1.5 -8.5v-38q-3 0 -4.5 2.5t-2 6t-0.5 7.5v6v1q0 2 0.5 4t0.5 5q0 8 -4 11.5t-12 3.5v-50q0 -1 -0.5 -4.5t-0.5 -4.5
q-1 0 -1.5 -0.5l-0.5 -0.5l-5 4v71v3.5t-0.5 4.5t-2 3.5t-3.5 1.5q-3 0 -4.5 -1.5t-2.5 -3.5q0 -1 -0.5 -4t-0.5 -6t-0.5 -6t-0.5 -4v-22v-5.5v-7.5t-1 -7t-2 -3l-3 1v58q0 5 1 9.5t5 7.5zM90 91q0 5 -2.5 9t-6 7.5t-8 6.5t-8.5 6.5t-6.5 7.5t-2.5 9h5l2.5 -2t5.5 -5
l6.5 -6.5l5.5 -5.5t3.5 -4l3 -4t3.5 -3t5 -1h3q2 2 5.5 5t7 6.5t7.5 6t7 1.5q1 -1 1 -2.5v-2.5v-2q-1 -1 -6 -4t-10 -6.5t-8.5 -6.5t-3.5 -4v-20q2 -2 5 -3t5 -2.5t3.5 -3.5t2.5 -5q1 -5 1.5 -11t0.5 -11v-2v-3.5t-1 -2.5t-2 -1t-2.5 0.5t-1.5 1.5v28q0 1 -1.5 2t-3.5 1.5
l-4 1l-2 0.5v-36q0 -4 3 -5.5t6.5 -2.5t7 -2.5t3.5 -5.5t-5 -4l-0.5 0.5t-1.5 0.5t-3.5 1t-5.5 2.5t-5.5 3t-3.5 1.5q-1 1 -2.5 4t-1.5 4q0 12 -0.5 23.5t-1.5 23.5l-0.5 0.5t-0.5 1.5q-5 1 -11.5 2t-11.5 2q-1 1 -1 2.5v3.5q0 3 1 3.5t4 0.5q2 0 4 -1t4.5 -2.5t4.5 -2.5
t5 -1h2t2 1v3v3zM168 90q0 -1 -0.5 -4.5t-0.5 -7t-0.5 -6.5t-0.5 -4v-2v-1q1 -1 4 -1t6 -0.5l6 -1t4 -0.5h0.5h0.5h2.5t2.5 1v6q0 5 -0.5 8.5t-1.5 9.5q-3 2 -8 3t-9 1h-3t-2 -1z" />
</svg>
