<?xml version="1.0" standalone="no"?>
<!DOCTYPE svg PUBLIC "-//W3C//DTD SVG 1.1//EN" "http://www.w3.org/Graphics/SVG/1.1/DTD/svg11.dtd" >
<svg xmlns="http://www.w3.org/2000/svg" xmlns:xlink="http://www.w3.org/1999/xlink" version="1.1" viewBox="-10 0 266 256">
   <path fill="currentColor"
d="M52 176v24v6.5t0.5 9.5t0.5 10t1 7q0 8 3 13t12 5h47l1.5 -1.5l1.5 -1.5v-1v-1q0 -1 -0.5 -2l-0.5 -1h-29q-2 0 -3.5 -2.5t-1.5 -5.5v-7v-4v-5.5t2 -5.5q8 -2 13.5 -4t10.5 -9l0.5 -1l0.5 -1v-46v-1.5t-0.5 -3t-1 -2.5t-1.5 -1q-2 0 -4 1.5t-2 3.5q0 3 1.5 5.5t1.5 5.5v2
v6.5t-0.5 9.5t-0.5 9.5v5.5q-2 6 -5 9t-10 3v0q-1 0 -2 -1l-1 -1l-4 -75h-1q-2 0 -3 1.5t-2 3.5v10q0 13 1 25.5t1 25.5v12v10.5t-0.5 11t-1.5 11.5l-0.5 1l-0.5 1h-1q-7 0 -10.5 -4.5t-4 -11.5t-0.5 -14.5v-13.5q0 -10 1 -20.5t1 -21.5q0 -2 -1 -4t-4 -2q-2 0 -4 3v24z
M104 223v2t1 1h15h16h8t13 -0.5t15 -0.5h15.5t13 -0.5t8.5 -0.5q1 0 1.5 -0.5t0.5 -2.5l-0.5 -2t-1.5 -2h-20l-1 -2v-5q0 -25 0.5 -48t0.5 -49q1 -6 1.5 -9.5t0.5 -8.5q0 -3 -0.5 -7t-1.5 -8t-3 -7t-6 -3h-29q-3 0 -5 2t-3.5 4.5t-2.5 5.5t-1 5q-2 24 -1.5 48t-1.5 49
q0 2 -0.5 8l-1 12t-1 10.5l-0.5 4.5h-26q-2 0 -2.5 1.5t-0.5 2.5zM140 206q0 -2 0.5 -3.5l1.5 -4.5v-26l0.5 -1t1.5 -1q7 -4 15.5 -3.5t16.5 0.5q3 0 4.5 2t1.5 5v3q0 2 -0.5 6t-1 8.5t-0.5 7.5v4q-1 7 -2.5 10t-5 4t-7.5 1h-9h-5.5h-4.5q-6 -5 -6 -12zM144 159
q-2 -5 -2 -8.5v-9.5q0 -4 0.5 -7.5t5.5 -5.5q2 0 5.5 -0.5t8 -0.5t8.5 -0.5t5 -0.5h0.5h0.5h1q1 1 2 1.5l1 0.5v31h-4t-6.5 0.5t-6.5 1t-4 0.5h-3h-2q-1 0 -5 -1t-5 -1zM46 136q0 1 1 1.5t2 0.5q3 0 5.5 -1.5t4 -3.5t3 -4.5t4.5 -3.5l3 -3t4.5 -3.5t4.5 -3t3 -2.5h0.5h0.5v0
v0q4 2 7.5 4t7 5t6.5 6l5 5h8l0.5 -1.5t1.5 -2.5v0q0 -3 -5.5 -6t-12 -7.5t-11.5 -9.5t-5 -13v-7t3 -6q2 0 6 -0.5t8 -1.5t7 -3t3 -6q0 -1 0.5 -3.5t0.5 -6t0.5 -7t0.5 -5.5v-3q0 -3 -0.5 -4t-3.5 -1q-1 0 -3.5 0.5t-2.5 3.5v21q0 1 -1 2t-2.5 2t-3 1h-2.5h-4
q-1 -3 -2.5 -6.5t-1.5 -6.5q0 -10 2 -16t6 -10t8 -6.5t8 -4t6.5 -3t2.5 -3.5q0 -3 -1 -3.5t-3 -0.5q-5 0 -8.5 2t-7.5 4q-8 3 -13 9t-6.5 13.5t-1.5 15.5v17l-2 5h-22q-7 0 -7 6q0 3 1.5 3.5t3.5 0.5h4q1 0 3.5 -0.5t5.5 -1t5.5 -1l2.5 -0.5h1h1l0.5 0.5t0.5 1.5v23
q0 1 -4.5 4.5t-10.5 8t-10.5 9t-4.5 7.5zM145 118v-30l5 -8h1.5t3 -0.5t3.5 -0.5t4 -1h6h6q4 4 6 8.5t2.5 10t0 11t-0.5 10.5h-37z" />
</svg>
