<?xml version="1.0" standalone="no"?>
<!DOCTYPE svg PUBLIC "-//W3C//DTD SVG 1.1//EN" "http://www.w3.org/Graphics/SVG/1.1/DTD/svg11.dtd" >
<svg xmlns="http://www.w3.org/2000/svg" xmlns:xlink="http://www.w3.org/1999/xlink" version="1.1" viewBox="-10 0 266 256">
   <path fill="currentColor"
d="M137 227q0 2 0.5 6t2 8t3.5 7t5 3h29q5 0 7 -3.5t3 -8.5t1 -9.5v-7.5v-6t0.5 -10.5t0.5 -10.5v-6v-19v-19q-1 -1 -2.5 -3t-3.5 -2h-1v0q-2 1 -2.5 2.5t-0.5 3.5t0.5 3.5t0.5 2.5q0 3 -0.5 8t-0.5 8.5v4.5l-3 1h-28l-0.5 -2.5t-0.5 -4.5v-3.5v-5.5v-5.5v-3.5q0 -2 -1.5 -2
h-2.5h-2l-3 38v5v5.5t-0.5 9.5t-0.5 10v6zM65 148q-2 0 -3.5 2t-1.5 5v73q0 7 3.5 9.5t8.5 3.5t10 1h8q7 1 13 2.5t12 1.5h3.5h3.5q1 -1 1.5 -2t0.5 -3q0 -1 -0.5 -2.5t-1.5 -1.5h-8t-10 -1.5t-8.5 -4.5t-3.5 -8v-3t0.5 -4.5t1.5 -4.5t3 -2h17l0.5 -1.5t0.5 -3.5
q3 -13 4 -27t1 -27q0 -2 -1 -5t-4 -3q-1 0 -3 1t-2 3v48l-2 5h-13q0 -16 1 -31.5t1 -30.5v-1l-3 -3l-2 -2h-1q-2 0 -3.5 2.5t-1.5 4.5q0 21 -0.5 45.5t-1.5 46.5h-2q-6 0 -9 -2t-4 -5t-1 -7.5v-10.5q0 -11 1 -21.5t1 -22.5v-10q-1 -2 -2 -2.5t-3 -0.5zM147 210v-3v-4v-4v-3
q1 -2 3 -3t3 -1h26v36q0 5 -3 7.5t-6.5 3.5t-7.5 1.5t-7 0.5q-4 0 -6 -3.5t-2.5 -8.5t0 -10.5t0.5 -8.5zM47 134q0 2 1.5 3t2.5 1q5 0 10.5 -4.5t11 -9.5t10.5 -9.5t8 -4.5t6 3t6 6.5t6.5 6.5t7.5 3q2 0 2.5 -1.5t0.5 -3.5q0 -3 -4 -5.5t-9 -6t-9.5 -8.5t-4.5 -14
q0 -2 0.5 -5.5t3.5 -5.5q13 -1 20.5 -8t7.5 -24v-3.5t-0.5 -5t-1.5 -4t-3 -1.5h-1.5t-1.5 2q0 5 -0.5 11t-2 11.5t-5.5 9.5t-10 4q-1 0 -2.5 -0.5t-1.5 -1.5v-11v-7v-6t0.5 -6.5t1.5 -7.5q1 -2 3.5 -3.5t5.5 -2.5t5 -2.5t2 -4.5t-2.5 -4.5t-5.5 -1.5q-2 0 -5.5 2t-6.5 4.5
t-5 5.5t-2 6q0 9 0.5 18t0.5 18q0 6 -2.5 7.5t-6.5 2.5q-2 0 -5.5 0.5t-7.5 0.5h-7.5h-5.5q-1 1 -1 2v3q0 3 1 3.5t4 0.5h2.5h1.5h4.5t7 -0.5t6.5 -0.5h4h1q3 0 3 2v3q0 3 -0.5 5t-1.5 5q-4 5 -8 9t-8 7t-8.5 6.5t-10.5 8.5l-1.5 1.5t-0.5 1.5zM130 128q0 2 1.5 3.5t3.5 2
t4.5 0.5h3.5q15 0 30 -1t30 -1q0 -1 -0.5 -2.5t-0.5 -2.5l-0.5 -1t-1.5 -1h-29v-37h33q2 0 3.5 -1.5t1.5 -3.5t-1 -4t-3 -2h-33v-37q2 -3 2 -6v-6v-3v-2q0 -1 -2.5 -3.5t-4.5 -3.5v0h-1q-1 0 -2 1.5l-1 1.5v45q0 1 -0.5 3.5t-0.5 4.5t-0.5 3.5l-0.5 1.5l-3 3h-31q-2 0 -2 2
v3t1.5 3t3.5 2h29q1 0 2 0.5t2 0.5v1v6t-0.5 8t-0.5 8t-1 7l-0.5 1.5t-1.5 1.5l-29 3v1z" />
</svg>
