<?xml version="1.0" standalone="no"?>
<!DOCTYPE svg PUBLIC "-//W3C//DTD SVG 1.1//EN" "http://www.w3.org/Graphics/SVG/1.1/DTD/svg11.dtd" >
<svg xmlns="http://www.w3.org/2000/svg" xmlns:xlink="http://www.w3.org/1999/xlink" version="1.1" viewBox="-10 0 266 256">
   <path fill="currentColor"
d="M141 26v54.5v53.5t-1 53.5t-3 53.5q0 1 -0.5 5t-0.5 5h3.5h3.5q1 -1 2 -1.5l1 -0.5v-151q0 -3 1.5 -3.5t3.5 -0.5q6 0 6 7v95q1 5 1.5 10.5t1.5 9.5q1 5 0.5 10t0 9t3 7t8.5 3q0 -7 -1.5 -14t-3 -13.5t-3 -13.5t-1.5 -14v-97q0 -2 -2 -2.5t-4.5 -1t-4.5 -1t-3 -1.5
q-2 -4 -2 -10v-9q0 -11 2 -21t2 -21q0 -2 -0.5 -4t-3.5 -2q-2 0 -3.5 2t-2.5 4zM172 100q0 20 2.5 41t5.5 41q0 3 1.5 9t3 13.5t4 15t5 13.5t5 9.5t5 3t3 -2t0.5 -4.5t-1.5 -6l-3 -6t-3 -6.5t-2.5 -6.5q0 -1 -1 -3.5t-2 -6t-2 -6t-1 -3.5q-2 -8 -4 -17.5t-3.5 -20
t-2.5 -20.5t-1 -17v-2v-3.5v-4.5v-4v-4v-5v-5v-2v-8.5t0.5 -12t1 -12.5t0.5 -9q1 -6 2.5 -12t1.5 -13v-4t-1 -3h-8q0 4 -0.5 10t-1 14t-1 17t-1 17t-0.5 14.5t-1 9.5v2zM58 203q2 5 6 8.5t9 5t10.5 2t10.5 0.5h6h6.5t6.5 -1t5 -2l0.5 -0.5l0.5 -0.5l-0.5 -0.5l-0.5 -0.5
q0 -1 -1.5 -2.5l-1.5 -1.5h-22l-1.5 -2t-2.5 -3t-1.5 -2t-0.5 -2q0 -8 1.5 -10.5t4 -3.5t5.5 -2t6 -6q2 -5 2.5 -8.5l1 -7t0.5 -6.5v-8v-3v-4v-3v-3q-2 -1 -3.5 -2t-2.5 -1h-1v5t-0.5 9t-0.5 9v6q0 1 -0.5 4t-1.5 6t-2.5 5t-5.5 2h-1t-2 -1l-3 -56q0 -2 -2 -2h-2v85
q0 1 -1.5 1h-1.5q-4 0 -6.5 -1.5t-4 -4.5t-2.5 -6.5t-1 -6.5q-1 -3 -1.5 -9t-1 -12.5t-1 -12.5t-0.5 -9q-1 -1 -2 -1.5t-2 -0.5q-2 0 -2.5 1.5t-0.5 3.5q0 13 2 28t4 28zM120 173v2q0 2 1 3q4 -4 6.5 -11t3.5 -16t1 -17v-13q0 -13 -0.5 -24.5t-0.5 -24.5q0 -1 -0.5 -3.5
t-1.5 -2.5h-2h-2.5t-1.5 1v7q0 2 -0.5 5t1.5 4v6t0.5 9t0.5 9v6v8q0 4 -0.5 9t-0.5 9v3q0 8 -2 15.5t-2 15.5zM200 169q1 3 2.5 3.5t3.5 0.5q1 0 4 -0.5t3 -2.5h-0.5t-0.5 -1l-0.5 -1.5t-1.5 -3t-1.5 -3l-0.5 -1.5q0 -1 -0.5 -3l-1 -4l-1 -4t-0.5 -3q0 -3 -0.5 -8t-1.5 -11
t-1 -11v-7v-15q0 -7 0.5 -13.5t0.5 -13.5v-4.5t-3 -3.5t-4 4v24q0 20 0.5 41t3.5 41zM42 131q0 4 4 4l0.5 -0.5l0.5 -0.5q3 -2 7 -6.5t9 -8.5t10 -7t8 -3q4 0 6.5 1.5t5.5 3.5t6 3.5t6 1.5t4.5 -0.5t1.5 -3.5q0 -2 -1.5 -3t-3.5 -2t-4 -1.5t-4 -1.5q-1 0 -3.5 -1.5l-5 -3
t-4.5 -3l-2 -1.5l-1.5 -1.5l-0.5 -0.5v-14q0 -1 2.5 -3.5t6 -5t6.5 -4.5t4 -3q1 -3 2.5 -6.5t2.5 -8t2 -8.5t1 -7q0 -2 -1 -3.5t-3 -1.5q-3 0 -4 2.5t-2 6.5t-1.5 9t-2 9t-4 6.5t-7.5 2.5h-2t-1 -1q-2 -7 -2 -11.5v-11.5v-3v-4q0 -3 0.5 -5t1.5 -3q1 -3 4 -5t6 -3.5t5.5 -3
t2.5 -3.5q0 -3 -2 -3h-4q-4 0 -8.5 2t-8 5.5t-6 7.5t-2.5 9l0.5 1.5t0.5 2.5t0.5 2.5l0.5 1.5q0 1 0.5 4.5t1 7.5l1 8t0.5 5v1v1q0 1 -1 2l-1 1q-1 0 -2.5 0.5t-3.5 0.5t-3.5 0.5t-2.5 0.5q-2 0 -4 0.5t-4.5 1t-4 1.5t-1.5 3q0 3 2 3.5t4 0.5q4 0 8 -1t9 -1h2h3q1 3 1 5.5
v6.5t-1 6.5t-2.5 4t-4.5 3.5l-6 4q0 1 -2 3l-4.5 4.5l-5 5l-3.5 3.5q0 1 -1 2z" />
</svg>
