<?xml version="1.0" standalone="no"?>
<!DOCTYPE svg PUBLIC "-//W3C//DTD SVG 1.1//EN" "http://www.w3.org/Graphics/SVG/1.1/DTD/svg11.dtd" >
<svg xmlns="http://www.w3.org/2000/svg" xmlns:xlink="http://www.w3.org/1999/xlink" version="1.1" viewBox="-10 0 266 256">
   <path fill="currentColor"
d="M159 246q0 2 1.5 3.5t3.5 1.5q3 0 5 -4.5t4 -11t4 -12.5t5 -8q1 0 3 -2t3 -2q6 -6 11 -12t8 -15v-12q0 -22 -9 -32t-30 -10q-12 0 -21 2.5t-15 8t-9.5 14.5t-3.5 21v5t1 5q2 4 4 10t5 11.5t7 10t9 4.5q1 0 2.5 -0.5t1.5 -2.5t-1.5 -3.5t-2.5 -3.5q-8 -8 -14 -18t-6 -22
q0 -5 1.5 -11t4.5 -10.5t7.5 -7.5t10.5 -3h4t2 3v38q0 3 -1.5 3.5t-2.5 0.5q-5 0 -6.5 -5t-1.5 -11v-10.5t-3 -4.5h-1q-1 0 -1.5 0.5l-0.5 0.5v8q0 6 0.5 11t2.5 9.5t5.5 7t9.5 3.5v17l1 0.5t2 0.5t2.5 -1.5t2.5 -3.5v-12q0 -1 2.5 -2.5t5.5 -2.5l6 -2t5 -2q0 -7 1.5 -14
t1.5 -14q0 -1 -1 -4t-3 -3t-2 2v6t-0.5 8t-1.5 7.5t-3.5 6t-6.5 2.5h-3q-1 0 -1 -2v-38q0 -3 2 -4.5t4 -1.5q7 0 12 2t9.5 6t7 9.5t2.5 11.5q0 7 -1 14t-4 12q-2 4 -4.5 6.5t-5.5 4.5l-6 4t-6 5q-2 2 -4 6.5t-4 9.5t-3 9.5t-3 7.5v0.5v0.5zM56 209q4 13 18 13h3q2 0 7 -0.5
t10.5 -0.5t10.5 -0.5t7 -0.5v-1.5v-0.5v-3t-1 -1t-3.5 -0.5t-4.5 -0.5t-4 -0.5t-3 -0.5q-2 0 -5.5 -0.5l-3.5 -0.5l-2 -4v-18l14 -3l0.5 -0.5t0.5 -1.5q1 -1 2.5 -4.5t2.5 -4.5v-5t0.5 -8.5t0.5 -8.5v-5v-4v-3q0 -2 -0.5 -5.5t-0.5 -5.5v-2h-6v7v10v11v7t-0.5 5t-1 5.5
t-2.5 4.5t-5 2h-2h-1q-1 -17 -1.5 -34t-0.5 -34l-1 -1.5t-2 -1.5v0q-2 0 -3 2.5t-1 3.5v13q0 17 0.5 33.5t0.5 32.5q0 1 0.5 3.5t0 4.5t-1 3.5t-1.5 1.5h-12q-1 0 -1.5 -2t-1 -4.5t-0.5 -4.5v-2v-51q0 -1 -0.5 -2t-0.5 -2.5t-1 -2.5t-2 -1h-1l-3 6v3v4.5v5.5v5v25t2 25z
M75 95q-1 0 -2.5 1t-3.5 2.5t-3.5 2.5t-2.5 2l-4.5 4.5t-4.5 5t-4 4.5t-2 3v5q5 0 9 -3.5t8 -8t8.5 -8.5t10.5 -4q4 0 7 2.5l6 5l6 5t8 2.5v-7l-1.5 -1t-4 -2.5t-4.5 -3t-4 -2.5q-3 -2 -5.5 -3.5t-4 -3t-2.5 -3.5t-1 -6q0 -7 3 -9.5t7 -4.5t7.5 -4.5t3.5 -8.5v-3
q0 -2 -0.5 -5t-0.5 -7t-0.5 -7t-0.5 -4t-1 -1.5t-2 -0.5h-1v0q-1 1 -1.5 2l-0.5 1v25q0 1 -1 2t-2.5 2t-3 1.5t-2.5 0.5q-2 0 -3 -3t-1 -6.5v-6.5v-4v-5.5v-5.5q1 -2 3.5 -4t5 -3.5t4.5 -3.5t2 -4q0 -4 -3 -4q-5 0 -9 2.5t-6.5 6t-4 8.5t-1.5 10t1 9.5t1 9.5q0 4 -2 6
t-4.5 2.5t-6 1t-6 1t-4.5 2t-2 5.5h24q0 3 0.5 8.5t-1.5 9.5zM121 84q0 6 1.5 12t4.5 11t8 8t12 3q0 -6 -3 -8.5t-7 -5.5t-7 -8.5t-3 -14.5q0 -20 8 -30.5t28 -10.5q5 0 11.5 1.5t11.5 5.5t8.5 9.5t3.5 12.5q0 13 -2 18.5t-5.5 8.5t-8 6t-10.5 10l1 1l1 1h1q7 0 12.5 -3.5
t9.5 -8.5t6.5 -11.5t2.5 -13.5q0 -16 -5.5 -25.5t-20.5 -16.5q-1 -1 -4 -1.5t-6.5 -1.5t-5.5 -1.5t-2 -1.5v-16l-1 -0.5t-2 -0.5v0h-1l-2 1t-2 2v14q0 2 -2.5 3.5t-5.5 3t-6 2t-4 2.5q-1 1 -2.5 2t-2.5 2.5t-2.5 3l-1.5 1.5q-3 4 -4 8t-1.5 8.5t-0.5 9v9.5zM140 56v25
q0 3 1.5 5t3.5 3.5t4.5 3t4.5 2.5q2 2 2 5t-0.5 6t-0.5 6t3 5l5 -5v-15q0 -1 1 -2t2 -1l1 -0.5t3 -1t3 -1t1 -1.5q7 -4 8 -11.5t1 -14.5v-4t-3 -2t-3 4.5t-0.5 9.5t-2.5 9.5t-8 4.5q-2 0 -2.5 -0.5t-0.5 -4.5v-29l-1.5 -2t-2.5 -3v0h-1l-1.5 1.5l-0.5 0.5v37q0 1 -2 1h-3
t-3 -1t-2 -3v-25q0 -1 -2.5 -1.5t-3.5 -0.5z" />
</svg>
