<?xml version="1.0" standalone="no"?>
<!DOCTYPE svg PUBLIC "-//W3C//DTD SVG 1.1//EN" "http://www.w3.org/Graphics/SVG/1.1/DTD/svg11.dtd" >
<svg xmlns="http://www.w3.org/2000/svg" xmlns:xlink="http://www.w3.org/1999/xlink" version="1.1" viewBox="-10 0 266 256">
   <path fill="currentColor"
d="M60 245q10 1 19 1.5t18 0.5h4q3 0 5.5 -0.5t4.5 -2t2 -4.5v-1q-1 -1 -1.5 -2l-0.5 -1h-25l-4 -5v-11q0 -10 1.5 -15.5t3.5 -8t5 -3.5t6 -2.5t5.5 -5t4.5 -10.5v-25v-16q0 -6 -0.5 -12.5t-0.5 -14t-1 -15.5q-1 -2 -3.5 -2.5t-3.5 -0.5v74q0 3 -1 7t-3 7.5t-4.5 5.5t-5.5 2
h-1q-1 -1 -1.5 -3.5t-1 -5.5t-0.5 -5v-2v-65q1 -3 1 -6v-6v-6t2 -6q3 -6 6 -7t5.5 -2t4 -4.5t1.5 -14.5q0 -7 -0.5 -13.5t-2.5 -10.5t-6 -6t-11 -2h-9t-9.5 1.5t-7.5 4.5t-3 10v30q0 4 3 6.5t7 4t7 2.5t3 3v151q0 1 -1.5 1.5l-1.5 0.5q-3 0 -5 -2.5t-3 -6.5t-1.5 -7.5
t-1.5 -5.5q0 -6 -1 -16t-1.5 -20.5t-1 -18.5t-0.5 -10q-1 -2 -1 -8v-13v-12t1 -9q-1 -2 -2 -5t-4 -3q-1 0 -2 0.5l-3 1.5v8v8q1 4 1.5 12.5t1 19.5t1 22.5t1.5 22.5t1.5 19.5t0.5 12.5q1 8 3 12t7 8zM118 238v1l1.5 1l1.5 1h85l6 -4l-0.5 -1.5l-1 -3t-1.5 -1.5h-59v-58
l34 -4q5 -1 7.5 -6t4.5 -11v-23v-23q0 -1 -0.5 -4t-1 -5.5t-2 -4.5t-3.5 -2q-8 -1 -17.5 -1.5t-18.5 -0.5l-3 -4v-38q0 -2 1 -4.5t2 -3.5q6 -1 12 -1.5t12.5 -1t12.5 0t11 0.5q1 -1 4 -3t3 -4l-1 -1q0 -1 -1 -2.5t-2 -1.5h-6h-6q-3 0 -9 0.5t-13.5 1t-16 1t-16.5 1.5
t-14 1.5t-9 0.5q-1 0 -1.5 1.5t-0.5 2.5q0 2 1 3t3 1h24v187q0 2 -2 3.5t-3 2.5q-1 0 -3 0.5t-5 0.5t-5 0.5t-3 0.5l-0.5 1.5t-0.5 2.5v0.5v0.5zM148 103v-1l1 -1l1 -1h32l4 2v2t0.5 4t0.5 4.5v3.5v2v3v4v4q0 9 -1 14.5t-6 13.5q-6 1 -11 1.5t-12 0.5h-3t-2 -1l-2 -6
l-0.5 -5.5t-0.5 -13t-0.5 -16t-0.5 -13.5v-1zM60 50q0 -7 4.5 -12.5t11.5 -5.5q8 0 11.5 6t3.5 15q0 15 -13 15q-9 0 -13.5 -3.5t-4.5 -14.5z" />
</svg>
