<?xml version="1.0" standalone="no"?>
<!DOCTYPE svg PUBLIC "-//W3C//DTD SVG 1.1//EN" "http://www.w3.org/Graphics/SVG/1.1/DTD/svg11.dtd" >
<svg xmlns="http://www.w3.org/2000/svg" xmlns:xlink="http://www.w3.org/1999/xlink" version="1.1" viewBox="-10 0 266 256">
   <path fill="currentColor"
d="M46 213q1 14 5 22t10 11.5t14 4t19 0.5h5t6 -0.5t5 -2.5t2 -6l-0.5 -2.5t-1.5 -2.5h-24v-38q0 -2 3.5 -4t7.5 -4.5t8 -5.5t5 -8v-14.5t0.5 -22t1 -21.5t0.5 -14v-4q0 -6 -7 -6h-2t-2 2v2v4v4v3q0 8 1 15t1 16q0 3 -0.5 10t-2 13.5t-4.5 11.5t-7 5h-1q-1 0 -1.5 -1
l-0.5 -1v-13t-0.5 -19.5t-1 -20t-0.5 -13.5v-2v-4.5v-4.5v-4v-3v-4.5v-4.5v-3q2 -3 4 -4t4 -1.5t5 -2t5 -4.5t3 -9.5t1 -16.5v-9t-1.5 -10t-4 -9t-6.5 -4q-1 0 -4.5 -0.5l-3.5 -0.5q-6 0 -11.5 1.5t-10 5t-7.5 8.5t-3 13q0 6 0.5 12.5t2.5 11.5t6 8.5t10 6.5l1.5 0.5
t1.5 1.5v146v2.5t-0.5 3.5t-1.5 3t-2 1q-6 0 -9.5 -6t-5.5 -15.5t-2.5 -22t-0.5 -25.5t0.5 -25.5t0.5 -22.5q0 -9 -1 -15t-3 -6q-5 0 -6 3.5t-1 7.5v7v11t0.5 17t0.5 19.5v20t0.5 17.5t0.5 11zM140 229q3 7 6 11t6 6t8 2.5t12 0.5h7.5t6.5 -1.5t5.5 -4t4.5 -6.5
q2 -12 2 -23.5v-24.5v-26q-1 -4 -2.5 -8t-5.5 -4q-2 0 -4 0.5t-2 3.5v26h-34q-2 0 -3 -1.5t-1 -3.5t-0.5 -4t-0.5 -3v-3.5t-0.5 -5.5t-1 -5.5t-0.5 -3.5h-1h-2t-2 2v4.5t-0.5 7.5t-0.5 7v5v2v2q0 3 0.5 9.5t1 14.5t1 14.5t0.5 9.5zM147 200v-5l3 -2h38v6v8v8v6q-1 5 -2.5 8
t-4 4.5t-6 1.5h-6.5q-7 0 -11.5 -2.5t-7 -7t-3 -11t-0.5 -14.5zM120 123v5q4 0 7.5 -3t6.5 -8t5.5 -11t4.5 -12t4 -11.5t4 -9.5q0 -1 1.5 -4.5t3.5 -7.5t3.5 -7.5t1.5 -4.5q1 -1 2 -2.5t2 -1.5q1 3 4.5 10.5t7.5 16.5t8.5 18.5t8.5 17t7 12.5t5 5q3 0 4.5 -2.5t1.5 -5.5
q0 -5 -2.5 -10.5t-6 -10.5t-6.5 -10t-5 -9q-6 -11 -11 -23t-10 -23v-1.5t-0.5 -3t-0.5 -2.5v-1q-2 -4 -3.5 -5.5t-4.5 -1.5t-6 5t-5.5 12.5t-5 16.5t-5 17.5t-4.5 16t-4 11.5q0 2 -2 5.5t-4 8t-4 8.5zM143 120v1q1 0 2 2t2 2h11h13.5t14.5 -2q0 -1 1.5 -2.5l1.5 -1.5v-1v-1
q0 -1 -1.5 -2.5l-1.5 -1.5h-13h-14t-14 2l-0.5 1.5t-1.5 2.5v1zM66 47q0 -12 4 -16.5t14 -4.5q5 0 7.5 1t4.5 8q0 1 0.5 4.5t0.5 4.5q0 4 -0.5 8.5t-2 8t-4 6t-7.5 2.5q-10 0 -13.5 -6t-3.5 -16z" />
</svg>
