<?xml version="1.0" standalone="no"?>
<!DOCTYPE svg PUBLIC "-//W3C//DTD SVG 1.1//EN" "http://www.w3.org/Graphics/SVG/1.1/DTD/svg11.dtd" >
<svg xmlns="http://www.w3.org/2000/svg" xmlns:xlink="http://www.w3.org/1999/xlink" version="1.1" viewBox="-10 0 266 256">
   <path fill="currentColor"
d="M160 204q1 0 2.5 3.5t4 8.5t6 11t7 11.5t7 9t7.5 3.5q3 0 5 -1.5t2 -4.5l-0.5 -1l-0.5 -1l-3.5 -3.5t-5 -5.5t-5 -5.5l-3.5 -3.5q-2 -2 -4 -5l-4 -6t-3.5 -6.5t-1.5 -6.5v-2q3 -3 7.5 -5.5t8.5 -4.5t7 -4t3 -5q0 -2 -2.5 -2.5t-4.5 -0.5q-4 0 -6.5 1t-5.5 2.5l-6 3
t-6 1.5h-1q-1 -1 -1.5 -4l-1 -6t-1.5 -6t-1 -4v-0.5v-0.5q0 -3 3 -4.5t8.5 -1.5h11h10.5t8.5 -1.5t3.5 -4.5q0 -2 -2.5 -3t-4.5 -1q-10 0 -20.5 2t-21.5 2v-11q4 -1 7.5 -1.5t6.5 -2t4.5 -4t1.5 -6.5q0 -2 -0.5 -4.5t-2.5 -3.5q-3 1 -3.5 3t-1.5 4.5t-2 4.5t-4 2h-6h-3v-10
l-2 -0.5t-3 -0.5h-0.5h-0.5q-1 0 -2 1t-1.5 2.5l-1 3t-0.5 2.5q0 4 2.5 8.5t2.5 9.5v3v2l-2 2l-25 3q-1 0 -1.5 0.5t-0.5 1.5v0q0 2 1.5 3t3.5 1q5 0 10 -0.5t10 -0.5h5q1 0 3 4.5t3 9.5t2 9.5l1 4.5l-0.5 1l-0.5 1l-8 8t-9.5 10t-8.5 10.5t-6 10.5v1.5v1.5q0 1 -2 2.5
t-2 2.5l-0.5 1l-0.5 1q0 2 1 4t3 2q3 0 6 -3t6 -8.5t6.5 -11l7 -11t6.5 -8.5t6 -3zM55 191v24q0 2 1.5 3l3 2t3 1.5l1.5 0.5h40q2 0 4.5 -2.5t2.5 -4.5l-0.5 -1.5t-1.5 -1.5h-22v-24l15 -11v-61v-3t-0.5 -4.5t-1.5 -4.5t-3 -2l-0.5 0.5l-0.5 0.5l-0.5 0.5l-0.5 0.5v68
q0 2 -2.5 3.5t-4.5 1.5q-1 0 -2 -0.5t-1 -1.5v-79q0 -2 1.5 -3l3 -2l3 -2t2.5 -2q2 -6 2.5 -13t0.5 -12v-9q-3 -3 -4 -5.5t-2.5 -3.5t-4 -2t-6.5 -1q-2 0 -6 0.5t-8.5 2t-7.5 3t-3 3.5v32q0 4 2.5 6t5.5 3t6 2.5t5 4.5q-1 29 0 57t1 57h-9l-1 -3q0 -1 -0.5 -8.5t-1 -18.5
l-1 -22t-1.5 -19v-6v-9v-9.5v-5.5t-0.5 -1.5l-0.5 -0.5q-1 0 -4 -0.5t-4 -0.5v80zM172 99q4 11 10.5 20.5t14.5 16.5l1 1q3 0 4.5 -2.5t1.5 -4.5q0 -3 -3.5 -6t-7.5 -6t-7 -7.5t-3 -10.5q0 -4 3 -5.5t6.5 -2t6.5 -1.5t3 -5q0 -2 -0.5 -3t-2.5 -1q-6 0 -13 2.5t-13 2.5
q-1 0 -2 -1.5t-1.5 -4t-1 -4.5t-0.5 -3v-3t2 -2h5.5h7.5h7.5h5.5l1.5 -0.5l3 -1l3 -1t2.5 -0.5v-3q0 -3 -1 -3.5t-4 -0.5h-4.5t-3.5 2h-26q-1 0 -2.5 -2t-2.5 -3v-1q0 -2 2 -3t5.5 -2l7 -2t7 -3t5.5 -6.5t2 -12.5v-3.5v-3.5q-1 -1 -2.5 -2t-2.5 -1l-1.5 0.5l-1.5 0.5v10.5
t-2 7.5t-5.5 5t-9.5 2h-3t-2 -2q0 -7 -0.5 -14t-1.5 -13q-1 -2 -2.5 -3t-3.5 -1q-1 0 -2 1.5l-2 3t-1.5 3.5t-0.5 3q0 6 1 11t2 9t2.5 9t2.5 10l0.5 1l0.5 1q0 2 -3 3t-8 2t-10.5 1t-10 1t-8 3t-3.5 5q13 0 23.5 -2t21.5 -2q1 0 2 2l2 4t1.5 4.5t0.5 3.5q0 3 -3.5 6.5
t-9 6.5t-11.5 6t-11 6.5t-8.5 6.5t-3.5 6v3t2 2q5 0 11 -5l12 -10t13 -10t13 -5h4zM90 66v3q0 1 -0.5 3l-1 4t-1 4.5t-0.5 3.5q-3 2 -4.5 2.5t-4.5 0.5q-2 0 -4 -0.5l-4 -1t-3 -2t-1 -3.5v-21l0.5 -1t0.5 -2q1 -1 2 -3l1 -2h15q2 0 2.5 2t1 5t1 5.5z" />
</svg>
