<?xml version="1.0" standalone="no"?>
<!DOCTYPE svg PUBLIC "-//W3C//DTD SVG 1.1//EN" "http://www.w3.org/Graphics/SVG/1.1/DTD/svg11.dtd" >
<svg xmlns="http://www.w3.org/2000/svg" xmlns:xlink="http://www.w3.org/1999/xlink" version="1.1" viewBox="-10 0 266 256">
   <path fill="currentColor"
d="M161 243q0 2 0.5 4.5t2.5 2.5q4 1 5.5 -1.5t1.5 -4.5v-88h6.5t4.5 0.5t3.5 2.5t3.5 5q5 18 6.5 35t1.5 36l3 3l1 -1l2 -2l2 -2t1 -2v-1v-1q0 -5 -1 -13.5t-2.5 -17t-2 -15t-0.5 -7.5q-1 -2 -1.5 -6t-1.5 -7.5t-2.5 -7t-4.5 -5.5q-4 0 -7 -0.5t-5.5 -1.5t-4 -3.5
t-4.5 -5.5v0v-1q0 -1 0.5 -4.5t1.5 -4.5q8 -1 13.5 -3.5t8.5 -7.5t4.5 -12t1.5 -15q-6 0 -8 4t-3 9t-3.5 9t-8.5 4q-1 0 -2 -0.5t-1 -1.5t-0.5 -5t-0.5 -5q0 -2 0.5 -5.5l0.5 -3.5v-4.5t0.5 -4.5t0.5 -3.5v-1.5h19q3 0 5 -6t3 -13.5t1.5 -14.5t0.5 -9v-12q-2 -7 -5.5 -10
t-10.5 -3h-2h-1q-2 0 -7.5 0.5t-11.5 0.5t-11 0.5t-7 0.5q-6 0 -9 3.5t-4.5 9t-2.5 11t-1 8.5q0 11 1 17.5t4 10.5t9 5.5t16 1.5l3 4v31q0 2 -1 2h-2q-6 0 -9.5 -1.5t-5 -5t-2 -8t-0.5 -9.5q-1 -2 -2 -2.5t-3 -0.5t-2.5 1.5t-0.5 3.5q0 9 1 14.5t4 9t8 5t13 2.5v18l-3 1.5
l-7 3.5l-7 3.5t-4 1.5q-1 2 -2.5 7.5t-2.5 13.5t-2 17t-1.5 17t-1 14.5t-0.5 9.5q1 0 4.5 -0.5l3.5 -0.5q1 0 1.5 -1l0.5 -1q0 -2 0.5 -8.5t0.5 -13t0.5 -12.5t0.5 -8q0 -8 0.5 -14.5t2 -10.5t5.5 -6t12 -2q0 22 -0.5 42.5t-0.5 42.5zM56 199q3 4 10 6.5t14.5 4.5t15 3
t10.5 1h3t3.5 -0.5t2.5 -1t1 -2.5t-1.5 -4.5t-3.5 -2.5h-19q-2 0 -2.5 -1.5t-0.5 -4v-4.5v-3q0 -7 1.5 -11.5t4 -7t5.5 -4.5t5.5 -5t4 -8t1.5 -13v-4.5v-10.5v-12v-10v-7v-11v-11.5v-7.5q-1 0 -3.5 -0.5t-3.5 -1.5v0v0v19v20t-0.5 20.5t-2.5 20.5q0 2 -0.5 4l-1 4t-2 3
t-3.5 1t-3.5 -1.5t-1.5 -3.5v-19q0 -18 1 -37t0 -38q2 -4 5.5 -5t6.5 -3t5.5 -5.5t2.5 -12.5q0 -2 -1 -5t-2 -6.5t-3 -5.5t-4 -2h-29l-2 1t-3 2l-0.5 1t-1.5 1q-1 1 -2.5 4l-1.5 3v17q0 4 2.5 6t6.5 3.5t7 3t4 3.5v7q0 4 0.5 9.5t0.5 10.5v6v8q0 6 -0.5 11t-0.5 9v5v8.5v13
v15.5t-0.5 15t-0.5 13v9l-1.5 0.5l-1.5 0.5q0 1 -1 1t-2.5 -1l-3 -2t-3 -2.5t-2.5 -1.5q1 -8 0.5 -15t-1.5 -14v-86q0 -1 -1 -2t-2.5 -1.5t-3 -0.5h-1.5h-2h-2q2 16 2.5 31.5t0.5 31t0.5 31.5t1.5 31zM172 64v-4q0 -3 1 -4l0.5 -1.5l0.5 -1.5h18l0.5 1.5l0.5 1.5q1 1 1 3v3
q0 7 -4 9.5t-10 2.5q-4 0 -6 -3t-2 -7zM137 60q0 -2 1 -4.5t4 -2.5h21l0.5 1t0.5 2.5v2.5v2v3q0 2 -0.5 5.5l-0.5 3.5h-18q-2 0 -3.5 -1.5t-2.5 -3.5t-1.5 -4t-0.5 -4zM68 33q0 -4 2 -6.5t5 -4t7 -2.5t6 -1q5 0 8.5 3.5t3.5 9.5q0 8 -5 11t-12 3q-2 0 -4.5 -1t-5 -3t-4 -4.5
t-1.5 -4.5zM138 40q0 -5 2 -8t5 -5t6.5 -3t6.5 -1t4.5 3t1.5 6.5v7v4.5h-22q-1 0 -2 -1l-2 -2v-1zM172 36q0 -3 0.5 -6.5t1.5 -6.5h7q3 0 5.5 0.5t4.5 1t3 3t1 5.5v2.5v3t-0.5 2.5t-1.5 1h-19l-1 -1q-1 0 -1 -2v-3z" />
</svg>
