<?xml version="1.0" standalone="no"?>
<!DOCTYPE svg PUBLIC "-//W3C//DTD SVG 1.1//EN" "http://www.w3.org/Graphics/SVG/1.1/DTD/svg11.dtd" >
<svg xmlns="http://www.w3.org/2000/svg" xmlns:xlink="http://www.w3.org/1999/xlink" version="1.1" viewBox="-10 0 266 256">
   <path fill="currentColor"
d="M117 243q0 2 1.5 4.5t3.5 2.5t3.5 -2.5t3 -5.5t2 -6t1.5 -4q0 -2 0.5 -4.5t1 -4.5l1 -4l0.5 -2l3 -94q0 -2 3.5 -3t8 -1.5t8.5 -1t5 -0.5q2 0 3.5 0.5t2.5 3.5q0 1 0.5 5t0.5 8t0.5 7.5t0.5 5.5v4q0 1 -0.5 5t-0.5 7.5t-1 6l-1 2.5h-10q-1 0 -1.5 -2.5t-0.5 -4.5v-2.5
v-3.5v-5v-2h-2h-2t-2.5 0.5t-1.5 1.5v16q0 9 0.5 18.5t3 17.5t8 13t16.5 5q3 0 7.5 -0.5t9 -2t8 -5t3.5 -9.5v-58q0 -3 -2 -3.5t-3 -0.5t-3.5 1t-2.5 3v18q0 1 -1 1.5l-1 0.5h-2t-2 0.5t-2.5 1l-1.5 0.5h-1h-1q-1 -1 -1.5 -2t-0.5 -2v-46q0 -1 1.5 -3t2.5 -2t3.5 -0.5
t5 -0.5t5 -0.5t3.5 -0.5q2 -1 4 -1t4 -1t3 -2.5t1 -3.5q0 -4 -1 -4.5t-4 -0.5q-6 0 -11.5 2t-10.5 2q-2 0 -4 -0.5t-2 -3.5v-35l0.5 -1t1.5 -1q1 -1 3.5 -2.5l5 -3t4.5 -2.5t3 -3q1 -1 1.5 -3.5t0.5 -5v-4.5v-4q0 -5 -0.5 -10t-2.5 -10h-4h-5h-6h-4h-4h-6h-5h-3q-2 0 -6.5 1
t-9.5 1.5l-10 1t-7 0.5q-1 0 -1 2v3v4t1 2h4h4q6 0 11 -0.5t10.5 -2t10.5 -2.5t11 -1h9q2 2 1.5 5t-0.5 6q0 6 -3 10t-8.5 6t-11.5 3.5t-12.5 3.5t-11.5 5t-8 9q-1 1 -1.5 2.5t-1.5 3.5l-2 4t-1 3v107v5t-0.5 8l-1 8t-1.5 6q0 1 -1 4.5l-2 7l-2 7l-1 3.5v1v0zM54 204l2.5 5
t3.5 5t4.5 3t4.5 1h41q2 0 4.5 -2.5t2.5 -4.5q0 -1 -0.5 -3t-1.5 -2h-23q-1 0 -1 -1t-0.5 -2.5t-0.5 -3.5v-2v-4q0 -1 0.5 -4t0.5 -6.5t0.5 -6t0.5 -4.5q2 -3 3 -4t2 -1t2.5 -0.5t4.5 -3.5q4 -3 6 -8.5t2.5 -12t0 -12.5t-0.5 -12v-24q0 -1 -0.5 -3.5l-1 -5t-1.5 -4.5t-3 -2
h-1q-2 1 -3.5 2t-1.5 4q0 9 1 17.5t1 17.5v5v5.5v6.5v4q0 3 -1 5.5t-2 4.5t-3 3.5t-4 1.5h-2q0 -1 -0.5 -4.5t-0.5 -4.5v-7v-12v-13v-7q0 -1 -0.5 -5t-0.5 -9t-0.5 -9.5t-0.5 -5.5v-1.5v-1.5q0 -5 2.5 -8t6 -5t6 -5t3.5 -7v-13v-9t-1 -8.5t-4 -6t-8 -3.5q-6 0 -12.5 0.5
t-12 2.5t-8.5 6.5t-3 13.5q0 10 1 15.5t3 8.5t4.5 3.5l5 1t4.5 1.5t3 4q0 25 1 50t1 50v34q0 1 -1.5 2l-1.5 1q0 1 -1 1q-3 0 -6 -2t-3 -6q0 -2 -0.5 -5.5t-1.5 -7.5t-1.5 -7t-0.5 -4l-3 -88q0 -2 -2 -2h-3q-3 0 -4.5 2t-1.5 5v6.5v6.5q0 24 2 49.5t4 50.5zM158 192
q0 -8 6 -10q2 0 5.5 -0.5t7.5 -1t7.5 -0.5h4.5h2h2t1 2v4v4q0 11 -4 16t-14 5q-9 0 -13.5 -4.5t-4.5 -14.5zM138 107v-4v-4q0 -8 1 -13.5t4 -9.5t8 -6t13 -2q2 0 3 3t1 4v28l-4 4h-1.5t-4 0.5t-5 0.5h-3.5h-6l-3 0.5t-3 -1.5zM66 36q0 -5 2 -8t5.5 -4.5t7 -1.5h7.5
q3 0 4.5 2t2 5t0.5 6v5q0 8 -2.5 11.5t-9.5 3.5q-8 0 -12.5 -4.5t-4.5 -14.5z" />
</svg>
