<?xml version="1.0" standalone="no"?>
<!DOCTYPE svg PUBLIC "-//W3C//DTD SVG 1.1//EN" "http://www.w3.org/Graphics/SVG/1.1/DTD/svg11.dtd" >
<svg xmlns="http://www.w3.org/2000/svg" xmlns:xlink="http://www.w3.org/1999/xlink" version="1.1" viewBox="-10 0 266 256">
   <path fill="currentColor"
d="M153 213q0 3 1 9.5t3 13t5.5 11.5t7.5 5h4t2 -3q0 -4 -2 -8.5t-4.5 -9t-4.5 -10t-2 -13.5q0 -5 2.5 -9.5t6 -9t7 -8.5t6.5 -8q4 -6 5 -13.5t1 -14.5q0 -10 -1.5 -19.5t-1.5 -19.5v-3v-4q3 -1 7 -1.5t7 -1.5v-0.5v-1.5v-1q0 -2 -1 -2h-11q-18 0 -35.5 2t-36.5 5q-1 0 -1 1
v0q0 2 1.5 2.5t3.5 0.5h2.5h1.5q2 0 7.5 -0.5t12 -1t12 -0.5t7.5 -1t3.5 -1h4.5h4t2 3q1 9 2 18.5t1 18.5v9q0 4 -0.5 8t-1.5 8.5t-4 7.5q-3 4 -7 9t-7.5 10t-6 10.5t-2.5 12.5zM54 107q0 13 0.5 25.5t1.5 25.5v14t2 13t6.5 10t13.5 4t17.5 -0.5t17.5 -1.5q2 0 2.5 -0.5
t0.5 -1.5v-2t-2 -1h-22l-2 -2v-1.5t-0.5 -4t-0.5 -5.5v-4v-2v-2q0 -2 1.5 -3.5t4 -2t5 -1.5t5 -3.5t4 -6.5t1.5 -11v-11.5t-0.5 -11t-0.5 -11v-13.5q0 -3 -2 -3.5t-4 -0.5t-3 0.5t-1 2.5q0 1 0.5 2.5l0.5 1.5q1 12 1.5 21.5t0.5 20.5v5t-0.5 5.5t-2 4.5t-3.5 3
q-1 0 -3.5 -0.5l-2.5 -0.5q0 -18 -1.5 -35.5t-1.5 -35.5q0 -3 1.5 -5t4 -2.5t5 -1.5t4.5 -3t4 -5.5t2 -10.5q0 -4 -1 -8t-2.5 -6.5t-4 -4.5t-7.5 -2q-7 0 -12.5 0.5t-13.5 1.5q-3 2 -6.5 5.5t-3.5 8.5q0 8 0.5 12t2.5 7t6 5t11 4q1 0 1.5 0.5t0.5 1.5v2.5v3.5v4v2q0 1 0.5 2
l0.5 1q1 1 1 2.5v2.5v85q0 2 -0.5 2.5t-1.5 0.5q-6 0 -9 -3.5t-5 -8.5t-2 -10.5v-9.5q0 -5 1 -9.5t1 -8.5q0 -1 -0.5 -2.5l-0.5 -1.5l-1 -2v-4q0 -8 0.5 -15.5t0.5 -15.5q0 -6 -5 -6q-2 0 -3 1.5t-1.5 3t-0.5 4v3.5zM129 134v19q0 5 1 7t3 3t5 1.5t7 0.5q10 0 16.5 -4
t6.5 -15v-7.5t-0.5 -11t-2 -10t-4.5 -4.5q-2 0 -3 1t-1 4l0.5 1t0.5 2.5t0.5 3l0.5 1.5v2v1q-1 0 -3 0.5t-4.5 0.5t-5 0.5t-3.5 0.5h-3l-3 -0.5t-3 -1.5v-14l-1.5 -0.5t-2.5 -0.5l-0.5 0.5l-0.5 0.5v19zM136 155v-17l3 -0.5t4 -1.5h4h5h3h2l2 2v1.5v2.5q0 9 -3 12.5t-12 3.5
h-3h-2zM117 83q0 1 1 1l1 0.5l1 0.5h0.5h0.5q4 0 8 -3t9 -6.5t10 -6.5t10 -3t9 2t8 4.5t8.5 4.5t9.5 2q2 0 2 -1v-2q0 -3 -5.5 -5.5t-12.5 -4.5t-12.5 -4.5t-5.5 -4.5v-17q1 0 4.5 -0.5t4.5 0.5q3 0 5.5 1.5t5.5 3t5.5 2.5t5.5 1h3h2q1 0 1.5 -1t-0.5 -2q0 -3 -3 -5
t-6.5 -2.5t-6.5 -1t-4 -2.5l-17 -6q0 -2 0.5 -5.5t0 -7t-2 -5.5t-5.5 -2q-2 0 -3.5 0.5t-1.5 2.5v2l0.5 2t1.5 4t1.5 4l0.5 2v1v1q-1 0 -3 2l-2 2l-28 14q-1 0 -1 1v1q0 4 4 4h1q1 -1 4.5 -2.5t7.5 -3.5t7.5 -3.5t4.5 -1.5q1 -1 2.5 -1.5t2.5 -0.5v23q-3 1 -8.5 3.5t-11 6
t-10 7t-4.5 5.5zM92 45q3 0 5 1.5t2.5 4t0.5 5v5.5q0 4 -1.5 6.5t-4.5 4.5t-6.5 2.5t-7.5 0.5h-3q-3 0 -5 -0.5t-3.5 -1.5t-1.5 -4v-17q0 -2 3.5 -3.5t8 -2.5t8.5 -1h5z" />
</svg>
