<?xml version="1.0" standalone="no"?>
<!DOCTYPE svg PUBLIC "-//W3C//DTD SVG 1.1//EN" "http://www.w3.org/Graphics/SVG/1.1/DTD/svg11.dtd" >
<svg xmlns="http://www.w3.org/2000/svg" xmlns:xlink="http://www.w3.org/1999/xlink" version="1.1" viewBox="-10 0 266 256">
   <path fill="currentColor"
d="M127 171v16v14v13.5t1 16.5q1 6 4 10t7.5 6t9.5 2.5t10.5 0.5t10.5 -0.5t8 -0.5h5h8h8h5q1 -1 2 -3t1 -3t-0.5 -2.5l-0.5 -1.5h-38v-4t-0.5 -6.5t-0.5 -6v-3.5v-1.5v-1.5t4 -3t9.5 -4t10.5 -4.5t8 -5.5v-6.5t0.5 -9.5t0.5 -9.5v-6.5v-3v-6t-0.5 -10t-1.5 -9t-3 -4h-1v0
l-2.5 2.5l-1.5 1.5v52q0 2 -1.5 4t-3.5 3t-4.5 2t-3.5 1q-2 0 -4.5 -3t-2.5 -5v-64l2 -2l2 -0.5t4 -1.5t5 -1.5t4 -0.5q2 0 5.5 -0.5t8 -0.5t8 -0.5t5.5 -0.5v-1v-1q0 -2 -1 -3.5t-3 -2.5h-12h-9.5t-9.5 2q-3 0 -9.5 0.5t-14 0.5t-14.5 0.5t-9 0.5l-2.5 0.5t-5.5 1t-5.5 2
t-2.5 3.5v1l1.5 1.5l0.5 0.5q1 0 3 0.5t4 0.5t4 0.5t3 0.5h2q4 0 7 -1t6 -1q4 0 6 0.5t5 1.5q1 4 1.5 7.5t0.5 6.5v6v7v17v18t-0.5 17.5t-1.5 16.5q0 5 -1.5 9.5t-6.5 4.5q-3 0 -6.5 -2.5t-5.5 -5.5v-4t-0.5 -6t-0.5 -6v-4v-12v-18v-18.5v-11.5q0 -1 -0.5 -2.5t-1.5 -3.5
t-2 -3t-3 -1l-1.5 0.5t-1.5 1.5v28zM45 229q0 5 0.5 8t2 5t4.5 2.5t7 0.5h9q4 0 10.5 -0.5t12.5 -1t10 -0.5h4l3 -4q-1 -4 -4.5 -5.5t-7.5 -1.5t-7.5 0.5t-5.5 0.5q0 -8 -1 -15.5t-1 -15.5v-7q8 -1 13.5 -5.5t8.5 -12.5q0 -4 0.5 -13.5t0.5 -20.5t0.5 -20.5t0.5 -13.5v-8v-8
q-1 -3 -2.5 -4.5t-4.5 -1.5q-2 0 -2.5 1.5t-0.5 4.5v78q0 5 -2 6.5t-4 1.5t-4.5 -0.5t-1.5 -3.5q-1 -10 -1 -18.5t-0.5 -17t-0.5 -16.5v-19v-37q1 0 4 -1.5l6 -3t5.5 -3t3.5 -2.5l0.5 -0.5t0.5 -1.5q2 -7 3 -11t1 -10q0 -9 -3.5 -16t-12.5 -7h-2q-2 1 -6.5 1.5l-9 1l-9 1
t-6.5 1.5q-1 3 -2 7t-1 8v3q0 1 0.5 5l1 8t1 7.5t0.5 4.5q1 4 3.5 5.5t5 2t4.5 1t2 1.5v162q0 2 -1.5 2h-1.5q-5 0 -9 -3t-4 -9v-78q0 -1 -0.5 -2.5t-0.5 -3.5t-0.5 -3.5t-0.5 -2.5v-7v-11v-11v-7q-1 -2 -2 -2h-2q-2 0 -3 0.5l-3 1.5v16v29.5t0.5 28.5t0.5 29t1 31zM132 47
q0 6 -0.5 12.5t0 12.5t3 11t7.5 8h14q5 0 10 0.5t10.5 0t10 -2t8.5 -4.5q1 -5 1.5 -10t0.5 -9.5v-9.5v-10q0 -11 -0.5 -18t-3 -10.5t-8 -5t-15.5 -1.5q-4 0 -9.5 0.5t-11 2t-10 4t-7.5 7.5v5v6v7v4zM147 82q-4 -4 -4.5 -7t-0.5 -8t1 -6.5t5 -3.5h6.5t9 -0.5l9 -1t6.5 -0.5
h4.5h4.5q0 8 -0.5 14t-5.5 10q-1 0 -3.5 1t-5 1.5l-5 1t-3.5 0.5h-1v0h-3.5t-5 -0.5t-5 -0.5h-3.5zM63 35v-7q2 -3 4.5 -4.5t5.5 -2t6 -0.5h6t5 2t3 4.5t1.5 5.5t0.5 6q0 11 -5.5 14.5t-13.5 3.5q-5 0 -7 -1.5t-3.5 -5t-2 -7t-0.5 -8.5zM143 47v-22l2.5 -0.5t6 -1t6.5 -1
t6 -0.5q0 -1 2 -1h4q5 0 7.5 1t4 3t2 5.5t0.5 8.5v4v3l-2 1h-39z" />
</svg>
