<?xml version="1.0" standalone="no"?>
<!DOCTYPE svg PUBLIC "-//W3C//DTD SVG 1.1//EN" "http://www.w3.org/Graphics/SVG/1.1/DTD/svg11.dtd" >
<svg xmlns="http://www.w3.org/2000/svg" xmlns:xlink="http://www.w3.org/1999/xlink" version="1.1" viewBox="-10 0 266 256">
   <path fill="currentColor"
d="M116 195q1 5 6 5.5t10.5 0.5t10 0.5t4.5 4.5v45q5 0 7.5 -1.5t2.5 -6.5q0 -13 -0.5 -25.5t-1 -24.5t-0.5 -24.5v-26.5q0 -2 -1.5 -3.5t-3.5 -1.5h-22l-2 -1v-2v-3v-5t2 -5q2 -1 6.5 -1.5t9.5 -1.5t9 -2.5t4 -2.5q0 -3 -1.5 -3.5t-3.5 -0.5h-9t-10 1t-9 3.5t-6 7.5
q1 13 -0.5 26t-1.5 26v4v7v6.5v4.5zM197 206v43q4 0 7.5 -2t3.5 -6q0 -24 -2 -47.5t-1 -47.5l-1 -4h-23q-3 0 -3 -2.5v-4.5v-5t1 -4q4 -2 8 -3l8 -2t8 -1.5t7 -0.5q1 0 1.5 -1.5t0.5 -2.5q0 -3 -1.5 -3.5t-3.5 -0.5h-3q-1 0 -2.5 0.5l-3 1l-3 1l-1.5 0.5q-7 2 -11 2t-6.5 1
t-3.5 4.5t-1 10.5q0 2 -1 7t-1.5 11.5t-1 11.5t-0.5 6v2v2v4.5t0.5 7t0.5 6.5v5q2 3 5 5t7 2.5t8 0.5h6zM47 211q2 3 7.5 5.5t8.5 2.5h39q1 0 1.5 -1.5t0.5 -2.5q0 -2 -2.5 -3t-5.5 -1h-5.5h-2.5q-2 0 -4.5 -1.5l-2.5 -1.5v-26q0 -3 2.5 -5.5t6 -4t6.5 -3.5t4 -5
q2 -4 2.5 -7t1 -5.5t0.5 -4.5v-7q0 -8 -0.5 -15t-0.5 -14.5t-0.5 -15t-0.5 -15.5q0 -1 -0.5 -1.5t-1.5 -0.5v0h-1v0q-1 1 -2.5 2l-1.5 1v69q0 5 -2 9.5t-7 4.5h-2.5t-2.5 -2v-92q0 -3 1.5 -4.5t4 -2t5 -1.5t5 -3.5t4 -7t1.5 -13.5v-5t-0.5 -6t-2 -4.5t-5.5 -1.5h-26
q-2 0 -4 1t-4 2.5t-3.5 3.5t-1.5 4l2 26q0 2 1.5 3t4 2t4.5 1.5t3 2.5v11.5t0.5 18.5t0.5 18.5v11.5v39v39q0 3 -2.5 3h-5.5h-4.5t-3.5 -3v-7t-0.5 -10.5t-0.5 -10.5v-7v-3q0 -3 0.5 -6t0.5 -6q0 -10 -0.5 -20t-0.5 -20q0 -5 0.5 -9t0.5 -8v-2v-3.5t-0.5 -5t-0.5 -5v-2.5
q-1 0 -2 -0.5l-1 -0.5q-1 0 -2.5 0.5t-1.5 1.5l-1 14v4t-0.5 9t-0.5 10v8q0 22 0.5 42.5t1.5 42.5zM124 183q0 -4 2.5 -6.5t6 -3t7.5 -0.5h7v19q0 2 -2 2.5t-3 0.5q-7 0 -12.5 -2t-5.5 -10zM178 193q-2 -3 -2.5 -6.5t-0.5 -6.5q0 -2 1 -3t3 -1.5t4 -0.5h3h2h4t3.5 1t1.5 2
v14l-1 1t-2 1t-2.5 0.5t-2.5 0.5h-2q-1 -1 -4.5 -1.5t-4.5 -0.5zM178 149h8q4 0 6 -0.5t5 1.5l1.5 1.5l0.5 0.5v16h-24l0.5 -2.5t0.5 -5v-5v-3.5l0.5 -1.5t1.5 -1.5zM124 165l-1 -1v-1v-1q0 -2 0.5 -6t0.5 -6v-3l2 -1h20l0.5 1t0.5 2v7v8q-1 2 -2.5 2.5t-3.5 0.5
q-4 0 -8 -0.5t-9 -1.5zM183 89q1 2 1 4v3.5t0.5 3t2.5 1.5q4 0 5.5 -3t1.5 -7.5v-9v-6.5v-8v-7.5t-0.5 -7.5t-1.5 -9q-2 -3 -6 -4q-1 0 -5.5 -0.5t-5.5 -0.5q-8 0 -15 1t-14 1h-9q-2 -1 -2.5 -4t-0.5 -5v-1q1 -2 4 -3.5t6.5 -2.5t6.5 -1.5t4 -0.5h45q3 0 3.5 -2t0.5 -4v-2
t-2 -2h-10h-8q-5 0 -11.5 0.5t-13.5 1t-14 2t-12 3.5t-7 5v11v11.5t-0.5 11.5t-1.5 10q0 1 -0.5 3l-0.5 2q0 5 2 8.5t5.5 5.5t7.5 3t7 1q7 0 13.5 -1t13.5 -1h11zM134 73v-1v0q2 0 4.5 -0.5l5 -1t5.5 -1t5 -1.5h29q1 0 1 1v3q0 5 -4 7.5t-10 3t-11.5 0.5h-8.5t-5.5 -0.5
t-5 -1.5t-4 -3t-1.5 -5zM133 56q0 -5 2.5 -6.5t6.5 -2t8 -0.5t7 -2h24q1 0 2 1t1 3v3.5v1.5v3.5t-3 2.5q-11 1 -19.5 1.5t-17.5 0.5h-4t-3.5 -0.5t-2.5 -2t-1 -3.5zM65 41q0 -5 1.5 -8t4.5 -4.5t7 -1.5h9q4 0 5.5 3.5t1.5 6.5q0 10 -3.5 15t-12.5 5h-8q-2 -1 -3 -3
t-1.5 -4.5t-0.5 -4.5v-4z" />
</svg>
