<?xml version="1.0" standalone="no"?>
<!DOCTYPE svg PUBLIC "-//W3C//DTD SVG 1.1//EN" "http://www.w3.org/Graphics/SVG/1.1/DTD/svg11.dtd" >
<svg xmlns="http://www.w3.org/2000/svg" xmlns:xlink="http://www.w3.org/1999/xlink" version="1.1" viewBox="-10 0 266 256">
   <path fill="currentColor"
d="M158 209h16l1 1.5t2 2.5t2 2.5t1 2.5l3 28q0 2 2 3.5t4 1.5q1 0 2 -1.5t1.5 -3t0.5 -3v-3.5q0 -3 -1 -6.5t-2.5 -7t-2.5 -7t-1 -7.5q0 -2 1.5 -3.5t3.5 -3t3.5 -3l2.5 -2.5q2 -4 3 -8.5t1 -9.5t-0.5 -10.5t-0.5 -9.5q0 -7 -1 -13.5t-4 -10.5t-8 -6.5t-13 -3.5
q-2 -3 -3.5 -7t-1.5 -8q0 -3 0.5 -5.5t2.5 -3.5q4 1 6.5 3.5t5 5.5t5.5 5t7 2q1 0 2.5 -0.5t1.5 -2.5t-1 -3.5t-3 -3.5t-4 -3t-3 -2q-1 0 -3.5 -2t-6 -4t-6.5 -3.5t-4 -1.5v-5v-5q0 -2 1 -2h24q2 0 2 3t1 6.5t3 6.5t7 3q0 -6 -1.5 -11t-1.5 -11q0 -5 0.5 -10t0.5 -10
q0 -3 -1 -5.5t-5 -2.5v0q-1 1 -1.5 4.5t-0.5 7.5t-0.5 7.5t-2.5 3.5h-24l-1 -2v-5v-5t1 -5q6 -1 10.5 -2t7.5 -3.5t4.5 -6.5t1.5 -10v-8q-1 -3 -4.5 -3.5t-5.5 -0.5q0 3 1 5t1 5v3t-0.5 4.5t-1.5 4.5t-2 2h-13q0 -1 -0.5 -4t-0.5 -6.5t-0.5 -6.5t-0.5 -4q0 -2 0.5 -4t0 -4.5
t-1.5 -4t-3 -1.5q-1 0 -2 0.5t-1 1.5v34q-5 0 -8 -1t-4 -3t-1.5 -6t-1.5 -9q-1 -2 -2 -3t-2 -1q-4 0 -4 4q0 11 4 15.5t8.5 7t8 4.5t3.5 7v3q0 2 -0.5 5l-0.5 3h-22q-1 0 -1.5 -3t-1 -6.5t-2.5 -6t-6 -2.5t-4 3t1 5t2.5 4t2.5 4t1 5q0 7 -2.5 13t-2.5 12q0 3 0.5 4t3.5 1
q2 0 3 -4t2 -8.5t2.5 -8.5t4.5 -4h18q0 1 0.5 2t1 2.5l1 3t-0.5 2.5q0 2 -2 3t-4.5 2.5t-4.5 3t-3 3.5q-1 1 -3 3.5t-3.5 5t-3 4l-1.5 1.5v3q5 0 7.5 -3t4.5 -6.5t4.5 -6.5t7.5 -3l0.5 0.5t0.5 1.5v24q-2 1 -5.5 2t-7 2.5t-6.5 4t-4 5.5q-2 2 -2 3.5v3.5v2.5t-2 3.5v5v5v8
t0.5 8l1 8t2.5 7q0 1 1.5 2.5t3 3.5t3 3.5t1.5 2.5v2v3q0 8 -2.5 16.5t-2.5 16.5q0 2 1.5 2.5t2.5 0.5q4 0 5.5 -5t2.5 -11t1 -12v-8zM61 213q10 3 20.5 4t21.5 1q4 0 7 -0.5t7 -1.5v-2v-1v-4t-2 -2q-3 0 -6 1.5t-6 1.5q-7 0 -10 -3.5t-4 -9t-0.5 -12t0.5 -12.5q0 -2 2.5 -5
t6 -5.5l7 -5t4.5 -4.5q2 -2 2.5 -5t1 -6.5t0.5 -6.5v-6q0 -10 -1 -18t-3 -19q0 -1 -1 -1.5t-2 -0.5t-2 0.5t-1 1.5v53q-1 1 -2 3t-2.5 4.5t-3 4t-3.5 1.5h-2t-1 -2v-17.5t-0.5 -17l-1 -17t-0.5 -18.5q0 -3 3.5 -5.5t7 -6.5t7 -9.5t3.5 -13.5q0 -5 -2.5 -8.5t-6.5 -6t-8 -4
t-8 -1.5q-3 0 -8 1.5t-9.5 4t-7 6.5t-2.5 9q0 1 0.5 3.5t1 4.5l1 4t0.5 3l2.5 3t3.5 4t3.5 1.5t4.5 1t3.5 1.5t1.5 2v43l2 4v79q0 2 -3 2h-3q-2 0 -4 -1.5t-3.5 -4t-2.5 -5t-2 -4.5q-2 -24 -3 -47.5t0 -47.5q-1 -1 -2.5 -2t-2.5 -1h-1l-2.5 1.5l-2.5 1.5v25l2 4
q-1 13 -0.5 26.5t1.5 27.5q1 4 1 8.5t1 8.5t3 8t5 7zM147 191v-2v-3q7 -2 14.5 -2.5t15.5 -0.5h7.5t8.5 1v1q0 9 -6 13.5t-13 4.5h-8.5t-9 -1t-7 -3.5t-2.5 -7.5zM143 169q0 -1 0.5 -2.5t0.5 -3.5t1 -3.5t3 -1.5h40q3 0 4 3.5t1 5.5v2q0 2 -0.5 3.5t-0.5 2.5t-1 1h-46l-1 -1
q0 -1 -0.5 -3t-0.5 -3zM144 148q0 -5 3 -7t7.5 -3t9 -1.5t6.5 -0.5t5.5 0.5t4.5 0.5q4 1 6 3t2 6v2t-2 2h-41l-0.5 -0.5t-0.5 -1.5v0zM67 57q0 -9 4.5 -12.5t12.5 -3.5q5 0 7.5 1t5.5 5v4v4q0 6 -1 9t-6 6h-3h-3q-3 0 -6.5 -0.5t-5.5 -2t-3.5 -4t-1.5 -6.5z" />
</svg>
