<?xml version="1.0" standalone="no"?>
<!DOCTYPE svg PUBLIC "-//W3C//DTD SVG 1.1//EN" "http://www.w3.org/Graphics/SVG/1.1/DTD/svg11.dtd" >
<svg xmlns="http://www.w3.org/2000/svg" xmlns:xlink="http://www.w3.org/1999/xlink" version="1.1" viewBox="-10 0 266 256">
   <path fill="currentColor"
d="M129 248l2 2t2 1l2 -0.5l2 -0.5l1.5 -1.5l0.5 -0.5v-66q0 -8 5.5 -12t13 -5t15 -1h12.5q7 0 9 4.5t3 10.5v7t0.5 10.5t0.5 10.5v7v36l0.5 0.5t1.5 0.5v0q3 0 4.5 -1t2.5 -3.5t1 -4.5v-4q0 -10 -1.5 -19.5t-1.5 -19.5v-14t1 -16q-3 -5 -6.5 -9t-9.5 -4q-5 0 -14.5 0.5
t-19 2t-17 5t-8.5 10.5v10t-0.5 15t-1 15t-0.5 9v13v12zM150 200q0 9 6.5 12.5t13.5 3.5q8 0 11.5 -5t3.5 -13v-5t-0.5 -5t-2 -4t-5.5 -2h-20q-3 0 -4 2.5t-2 5.5t-1 5.5v4.5zM156 196q0 -2 1 -4.5t5 -2.5h14l0.5 1.5l0.5 1.5q1 1 1.5 3l0.5 2v1q0 4 -3 6.5t-6 2.5
q-6 0 -10 -2.5t-4 -8.5zM57 192q1 4 6.5 7t12 4.5t13 2t9.5 0.5h3h3t4 -0.5l2 -0.5q2 0 2 -1.5v-2.5q0 -2 -0.5 -3t-2.5 -1h-18q-3 0 -3 -1v-3q0 -12 3 -17t7 -7.5t7.5 -4t3.5 -6.5v-69q0 -2 -1.5 -2h-2.5t-2.5 0.5t-1.5 2.5v63q0 1 -1.5 2.5t-3 3.5t-3 3t-2.5 1h-0.5h-0.5
q-1 -3 -1 -9t-0.5 -13t-0.5 -13v-8v-15v-13v-5t0.5 -6.5t1 -6t1.5 -3.5q4 -4 7.5 -5.5t5.5 -3.5t3.5 -6t1.5 -12q0 -7 -4 -11.5t-12 -4.5h-10t-11.5 1.5t-9 5t-3.5 10.5q0 6 1 10t3 7t5.5 5.5t8.5 5.5l0.5 0.5l0.5 0.5q2 3 2 7v7.5v7v6.5v4t0.5 6t0.5 6v4v21v13v12t-0.5 12
t-0.5 14q-1 0 -2 1.5l-1 1.5h-1q-3 0 -5.5 -2.5t-3.5 -5.5q0 -3 -0.5 -8.5t-1 -12.5t-1 -14.5t-1 -14.5t-1 -12.5t-0.5 -8.5v-5.5v-8.5v-9.5v-5.5q-1 -3 -2 -3.5t-3 -0.5q-6 0 -6 7v4t2 4q1 12 1.5 23.5l1 23t0.5 23t1 22.5zM149 146q6 1 11 1.5t11 0.5q4 0 7.5 -1t6 -3.5
t4 -6t1.5 -7.5q0 -7 -2.5 -10t-7 -4.5t-9.5 -1.5h-9t-7.5 0.5t-6.5 2t-5 4t-2 6.5q0 7 1.5 11t6.5 8zM150 136v-13l2 -1q0 -1 3 -1h4q5 0 10 0.5t10 1.5q0 1 0.5 3l0.5 2q0 1 -0.5 3l-0.5 2q-1 2 -3 4.5t-3 2.5h-20zM120 115q0 1 1 2t2 1v0.5t1 0.5l0.5 -0.5l0.5 -0.5l2 -1
t2 -2q1 0 3.5 -3t5.5 -6l5.5 -5.5l3.5 -3.5t4 -3.5t5.5 -4.5t4.5 -3.5l2 -1.5h3q2 2 5.5 6t7.5 7t8 5.5t8 2.5h4q3 0 3 -3q0 -2 -3 -4t-6.5 -4.5t-8.5 -5.5t-8.5 -7t-6.5 -9t-3 -12v-6q1 0 4.5 -0.5l3.5 -0.5q1 0 1.5 -0.5l1.5 -1.5t2 -1.5t2 -0.5l6 -2t5.5 -3t3.5 -5t1 -7
v-3t-0.5 -3.5t-1.5 -3t-3 -1.5q-4 0 -4.5 3.5t-1.5 8t-3.5 8t-8.5 3.5h-5t-3 -1v-18q0 -3 3 -3.5t6 -1.5t6 -2.5t3 -5.5q0 -2 -0.5 -3t-2.5 -1t-6 1t-8.5 2.5t-7.5 4t-3 4.5v28q-2 0 -8 2t-12.5 4.5t-11 5.5t-4.5 6q0 2 2.5 3.5t4.5 1.5q4 0 7 -2t6 -4.5t5.5 -5t6.5 -2.5
q1 0 2 0.5t1 1.5v18l-0.5 1t-1.5 2.5l-2 3t-2 2.5q-2 1 -6 5.5t-8.5 9t-8.5 9t-6 5.5zM69 46v-4t3 -2q6 -2 10.5 -2h10.5l1.5 -0.5t3 0t1.5 2.5v17q0 3 -2.5 4t-5.5 2t-6 1h-4q-7 0 -9.5 -5.5t-2.5 -12.5z" />
</svg>
