<?xml version="1.0" standalone="no"?>
<!DOCTYPE svg PUBLIC "-//W3C//DTD SVG 1.1//EN" "http://www.w3.org/Graphics/SVG/1.1/DTD/svg11.dtd" >
<svg xmlns="http://www.w3.org/2000/svg" xmlns:xlink="http://www.w3.org/1999/xlink" version="1.1" viewBox="-10 0 266 256">
   <path fill="currentColor"
d="M100 246q0 1 1 3t2 2q4 0 5.5 -3.5t1.5 -6.5q0 -17 -2 -35t-2 -36v-1v-4t0.5 -5.5t0.5 -5.5v-4q1 -1 3 -1.5t3 -1.5q8 -3 12.5 -6t7 -7.5t3.5 -11t2 -14.5v-21v-22q-1 -1 -2 -1h-2h-2t-2 1v23v4t-0.5 6.5t-0.5 7v3.5q-1 5 -1 10t-1.5 9.5t-4.5 7t-10 2.5q-2 0 -3.5 -1
t-1.5 -3v-13t0.5 -15t1.5 -15.5t3 -13.5q1 -2 2.5 -6t3.5 -8t3.5 -7.5t1.5 -5.5q0 -5 -4.5 -12t-10.5 -14t-12.5 -12t-12.5 -5q-1 0 -3 0.5t-2 2.5v1q1 2 2.5 4t3.5 3.5t3.5 3t3.5 2.5v1.5v0.5q0 5 -5.5 9t-12.5 8t-12.5 8t-5.5 8q0 5 5 5q2 0 5.5 -2.5t8 -5.5t8.5 -7
t8 -7.5t7 -6l3 -2.5q3 0 5 1.5t4 3.5t3 4.5t1 4.5q0 1 -1 5t-2.5 8.5t-3.5 7.5t-3 3h-20q-2 0 -4 2t-3.5 5t-2.5 6t-1 4v33q0 1 1 3t2.5 4.5t2.5 2.5h22l0.5 0.5l0.5 0.5v2v3q0 4 -3 6.5t-7.5 5t-9.5 6t-7 9.5q-1 3 -1.5 10.5t-1 15.5t-1.5 15.5t-1 10.5v1v0q0 1 0.5 2
t0.5 2.5t0.5 3l0.5 1.5v4.5t0.5 5.5t0.5 6v4h2h1h3.5t2.5 -1v-16q0 -7 -0.5 -13t-0.5 -13v-2q0 -2 0.5 -6t1 -8.5t1 -8t0.5 -5.5t0.5 -5.5t2 -6t3.5 -5t6 -2.5l1 0.5l1 0.5l1 9q0 21 1.5 41.5t0.5 40.5zM162 190q0 3 1 8.5t2 12t3 14t4.5 13.5t5 9.5t6.5 3.5q3 0 3.5 -2
t0.5 -5q0 -6 -2 -12t-5 -12.5t-5 -13.5t-2 -13q0 -8 1 -16t7 -14q1 -1 3 -4t5 -5.5t5 -5.5t3 -4q2 -1 2 -4.5v-5.5q0 -5 -2.5 -8t-7 -4.5t-9.5 -2t-9.5 -1t-8 -1.5t-4.5 -3v-3.5v-2.5q0 -8 1.5 -13t8.5 -7q2 0 5.5 -1t7.5 -2t7.5 -2t4.5 -1q1 -1 2.5 -3.5t2 -5.5l1 -6
t0.5 -4v-4q0 -4 -0.5 -11t-0.5 -13t-0.5 -10.5l-0.5 -4.5l-1 -3q0 -1 -1 -1h-2h-3.5t-2.5 2v3v2q0 4 0.5 7t0.5 6v0q0 1 -1 2.5t-2 1.5l-36 3l-9 2v6q12 0 23.5 -2t22.5 -2v5t0.5 6t0.5 6v4q0 3 -1 5.5t-4 3.5q-16 -2 -24 6t-8 23q0 9 3 13.5t7.5 6.5t9.5 2h9.5t7.5 1t3 5
q0 5 -2.5 8.5t-6 7t-7 6.5t-6.5 5q-4 6 -5.5 14t-1.5 15zM83 112q0 -5 3.5 -6t8.5 -1q4 0 5 2.5t1 5.5q0 5 -1.5 7.5t-6.5 2.5q-6 0 -8 -2.5t-2 -8.5zM81 93q0 -9 4 -11.5t11 -2.5h3h2l2 1v14q0 2 -2 2.5t-4 0.5h-4h-2h-3h-4t-2 -1.5t-1 -2.5z" />
</svg>
