<?xml version="1.0" standalone="no"?>
<!DOCTYPE svg PUBLIC "-//W3C//DTD SVG 1.1//EN" "http://www.w3.org/Graphics/SVG/1.1/DTD/svg11.dtd" >
<svg xmlns="http://www.w3.org/2000/svg" xmlns:xlink="http://www.w3.org/1999/xlink" version="1.1" viewBox="-10 0 266 256">
   <path fill="currentColor"
d="M81 244q1 3 3 3.5t4 0.5h1h2q1 -18 1.5 -36t-0.5 -36q8 -2 15 -2h14q1 0 3 -2t2 -3l-0.5 -1.5t-0.5 -2.5q-1 0 -1.5 -0.5l-0.5 -0.5h-24q-1 -1 -4 -1.5t-4 -0.5v-5q0 -7 3 -10t7.5 -5t8.5 -4.5t6 -8.5q0 -2 0.5 -6l1 -8t0.5 -7.5v-5.5v-1q0 -6 -4 -11.5t-9.5 -9t-9.5 -6
l-4 -2.5v-14l0.5 -0.5t0.5 -1.5q1 0 2.5 -1l1.5 -1h20q2 0 3 -1.5t1.5 -3t0.5 -3v-2.5h-30v-30l-1.5 -0.5l-1.5 -0.5q0 -1 -1 -1q-3 0 -4 3t-1.5 6.5t0 8t0 8t-1.5 6t-3 2.5h-2q-1 0 -4 -0.5t-6 -0.5t-6 -0.5l-3 -0.5h-1.5h-0.5q-3 0 -4 2t-1 4v1l1 2.5t2 2.5h29l2 2v2.5
v3.5q0 9 -2.5 12t-6.5 3.5t-8 1.5t-8 7q-1 4 -2 6.5t-1.5 5t-1 5.5t-1.5 8v1q0 7 2 12.5t5.5 9.5t8.5 6t12 4l1.5 1l1.5 1v14l-1 0.5t-1 1.5q-3 1 -8 1.5t-9.5 0.5t-9 -0.5t-7.5 -0.5q-2 1 -2.5 2.5t-0.5 3.5v3t2 2h1.5h2.5h3.5h2.5q6 0 12 -1t12 -1h1l1 0.5t1 1.5v12
q0 11 -1 21.5t-1 22.5v2v4v4v2zM116 220l1 1.5l1 1.5l1.5 1.5l0.5 0.5l14 2l75 -2q1 0 3 -1.5t2 -3.5q-1 -3 -4 -4.5t-5 -1.5q-6 0 -12.5 1t-12.5 1h-1h-2.5t-2.5 -0.5t-1 -1.5v-36l2 -2h3.5h5.5h5h4q4 -1 6.5 -1.5t2.5 -5.5v-1v-1q-1 -1 -3 -2t-3 -1h-20q-2 0 -3 -3t-1 -5
q0 -3 -0.5 -6.5t-0.5 -7.5q0 -3 1 -6.5t3 -5.5h21q2 0 5 -1t3 -4v-2t-2 -2q-4 0 -9.5 0.5t-10 -0.5t-7.5 -4t-3 -9q0 -5 2.5 -7t6.5 -3t7.5 -2t5.5 -5q6 -8 7 -19.5t1 -22.5q0 -1 0.5 -3.5t0 -6t-1 -5.5t-2.5 -2h-3t-2 2v12.5t-1 10.5t-2 10.5t-2 11.5q0 4 -2 7t-6 4h-3
q-1 0 -2.5 -0.5t-2.5 -1.5t-1 -3v-65q0 -3 -2.5 -3.5t-3.5 -0.5q-2 0 -3 0.5t-1 3.5v59q0 3 -1.5 5.5t-3.5 2.5q-4 0 -6.5 -3t-4 -7.5t-2 -9t-0.5 -7.5q0 -1 -0.5 -4.5t-0.5 -7.5v-7.5v-4.5q-1 -2 -3 -2.5t-3 -0.5v12v14.5t1.5 14.5t4.5 12q1 4 5 5.5t7 3l6 3t3 5.5v1
q-1 2 -1 5.5t-0.5 6l-0.5 2.5l-2 2h-32q0 5 2.5 7t6.5 2t9 -0.5t8.5 -0.5t6.5 1t3 5v31h-26q-1 0 -2 1.5t-2 2.5v0.5v0.5v1q1 0 2 1.5t2 1.5h26v35q0 2 -2.5 4.5t-4.5 2.5h-36l-1 1t-2 1l-1 0.5t-1 1.5zM65 122q0 -6 3.5 -7.5t7.5 -1.5q2 0 4.5 1t2.5 2v18l-1.5 0.5
t-1.5 1.5h-1q-3 0 -5.5 -1.5t-4.5 -3t-3 -4t-1 -5.5zM99 112q3 0 7 2t4 6q0 7 -5 11.5t-10 4.5h-2.5t-1.5 -2v-18q0 -1 1 -2t2 -1.5t3 -0.5h2zM63 99q0 -3 2 -5l4 -4t5 -3t5 -1h1q2 3 2.5 5.5t0.5 5.5q0 5 -4 7t-8 2q-3 0 -5.5 -2.5t-2.5 -4.5zM97 86q7 0 10.5 6t3.5 12h-20
v-16l1.5 -0.5t3.5 -1.5h1z" />
</svg>
