<?xml version="1.0" standalone="no"?>
<!DOCTYPE svg PUBLIC "-//W3C//DTD SVG 1.1//EN" "http://www.w3.org/Graphics/SVG/1.1/DTD/svg11.dtd" >
<svg xmlns="http://www.w3.org/2000/svg" xmlns:xlink="http://www.w3.org/1999/xlink" version="1.1" viewBox="-10 0 266 256">
   <path fill="currentColor"
d="M82 244q0 2 0.5 4.5t3.5 2.5q4 0 6 -3t2 -7v-67q0 -2 5 -2t10.5 -0.5t10 -1.5t4.5 -5l-0.5 -0.5l-0.5 -0.5q-3 -1 -7 -1.5t-8 -0.5h-6.5h-5.5l-2 -1v-13q0 -2 2 -3t4.5 -1.5t5.5 -1.5t4 -2t2 -2.5t2 -3.5l1.5 -3l0.5 -1v-3.5v-3.5l1 -2t1 -3v-2v-4.5v-4.5v-3v-5.5v-7.5
t-1 -7.5t-2 -6.5q-4 -2 -8 -3t-6.5 -3t-4.5 -4.5t-2 -7.5q0 -7 2.5 -9t7 -2.5l9 -1t8.5 -3.5l-2 -4h-22v-20q0 -4 -2 -4.5t-4 -0.5t-4 1t-2 4v20h-24q-2 0 -2.5 2t-0.5 4v1.5t2 1.5h6q4 0 8 -1t8 -1h1l1.5 1.5l0.5 0.5v20l-0.5 0.5t-1.5 0.5l-15 6t-7.5 5.5t-3.5 10t-1 17.5
v9t1 10t3.5 9t6.5 5q1 0 3 0.5t4.5 1t5 1.5t3.5 2v5q0 6 -2 9t-6 4t-8 1h-7.5t-6 0.5t-2.5 4.5q0 1 0.5 2t1.5 2h7q7 0 12.5 -0.5t11.5 -0.5q0 18 -1 35.5t-1 35.5zM189 247q0 2 2 2h3q2 0 3.5 -0.5t2.5 -2.5v-6q0 -5 -1 -14.5t-2.5 -19.5t-4 -18.5t-5.5 -12.5q-3 -3 -10 -4
t-14 -2.5t-12 -4.5t-5 -10q0 -2 1.5 -3.5t3.5 -3t4 -2t4 -1.5l30 -3l1 -0.5t2.5 -1.5t2.5 -2l1 -1q1 0 1.5 -0.5t0.5 -1.5v-20q0 -2 -1 -3t-2 -2.5t-2.5 -2.5t-2.5 -1h-53l-2 2l-1 1.5t0 1.5q0 1 1 2.5t2 1.5h18q2 0 2 2v3v3v2t-0.5 4l-1 4l-0.5 2q-2 4 -5 5.5l-6 3t-5 4
t-2 7.5q0 8 3.5 13t9 7.5t12 3.5t12.5 1q3 1 5 5.5t3.5 10t2 10.5t0.5 8q1 2 1.5 7t1 10.5t1 10.5t0.5 6zM67 119q0 -5 4 -7t9 -2h3t2 2v21q0 3 -3 3.5t-4 0.5q-4 0 -6 -2t-3 -4.5t-1.5 -5.5t-0.5 -6zM101 111q5 0 6 3t1 8q0 2 -0.5 4.5t-2 4.5t-3.5 4t-4 2l-1 -1l-1.5 -0.5
t-1.5 -1.5v-17q0 -4 2.5 -5t4.5 -1zM168 133v-7v-5t0.5 -4t2 -3t4.5 -1q7 0 9.5 2.5t2.5 8.5t-2.5 8.5t-8.5 2.5h-4t-4 -2zM102 80q1 0 2.5 2t2.5 4t1 4v4q0 5 -1.5 7.5t-6.5 2.5q-1 0 -3.5 -0.5t-2.5 -3.5v-16q0 -2 3 -3t5 -1zM66 98q0 -3 1 -6.5t3 -6t5 -4.5t6 -2
q2 0 3.5 2t2 5t0.5 6.5v5.5t-1.5 3t-3 1h-3.5h-3h-9q0 -1 -0.5 -2l-0.5 -1v-1zM149 79q0 1 0.5 2.5t1.5 1.5h33l2 -2.5t3 -3.5v0v-1q-1 -2 -3.5 -3t-3.5 -1t-1 0.5v0.5q-1 0 -3.5 0.5t-3.5 0.5h-4h-6h-6h-4q-2 1 -3.5 2t-1.5 3zM127 77v0l2 2h1q6 0 10 -6t8 -13.5t7.5 -13.5
t8.5 -6h1.5h0.5q1 1 3 2.5t4 3.5t3.5 4t2.5 3q2 2 4.5 6t5 7.5t5.5 6.5t6 3q2 0 4 -0.5t2 -3.5q0 -2 -3 -6.5t-7 -10t-9 -11.5t-10 -11t-9 -8t-5 -3q-4 0 -6.5 2t-4 5.5t-2.5 7.5t-2 6q-1 1 -2.5 3.5t-3.5 5.5l-4 6t-3 5q-2 2 -5 6t-3 8z" />
</svg>
