<?xml version="1.0" standalone="no"?>
<!DOCTYPE svg PUBLIC "-//W3C//DTD SVG 1.1//EN" "http://www.w3.org/Graphics/SVG/1.1/DTD/svg11.dtd" >
<svg xmlns="http://www.w3.org/2000/svg" xmlns:xlink="http://www.w3.org/1999/xlink" version="1.1" viewBox="-10 0 266 256">
   <path fill="currentColor"
d="M161 193q2 0 2 1t1 3q5 14 11 25t16 22q2 2 3 4.5t4 2.5t5 -2.5t2 -5.5l-0.5 -1.5t-1.5 -2.5q-4 -4 -9.5 -10t-10.5 -12t-8 -12.5t-3 -14.5q0 -4 2 -6t6 -4t8.5 -3t8 -3t6 -4t2.5 -7q0 -1 -1 -2.5t-3 -1.5q-4 0 -7 1.5t-5.5 3.5t-5.5 4t-7 2h-1q1 -4 3 -8.5l4 -9l4 -9
t2 -8.5q0 -7 -4 -11.5t-8.5 -7.5t-8 -5t-3.5 -5v-3q0 -1 0.5 -4t1 -6.5t1 -6t0.5 -3.5q2 -1 5.5 -1.5t8 -1t8 -1t5.5 -0.5h2h1.5t1.5 2l4 28q1 4 2 5.5t4 1.5t5 -2.5t2 -5.5q0 -4 -1.5 -8t-3 -8.5t-2.5 -9.5t-1 -11q0 -8 2.5 -16.5t2.5 -16.5q0 -2 -0.5 -4t-3.5 -2
q-3 -1 -4.5 1.5t-2 7t-1 9.5l-1 10t-2.5 8t-6 3h-23q0 -9 0.5 -18.5t0.5 -19.5q0 -5 -1.5 -8.5t-6.5 -3.5h-1q-1 0 -1.5 1t-0.5 2v46l-0.5 1t-0.5 2q-1 0 -1.5 1l-0.5 1h-19q-1 0 -1.5 2t-0.5 3t0.5 2.5t1.5 1.5h17q1 0 1.5 1t0.5 2v1v1q0 2 -1 6.5t-2 9.5t-2 9.5t-1 5.5
q-3 6 -8 11.5t-10 9.5v7q7 0 11 -4.5t7 -9.5t6 -9.5t6 -4.5q2 0 5 1.5t5.5 4t4 5.5t1.5 5q0 4 -1 7.5t-2.5 6.5t-3.5 6.5t-4 6.5q-1 2 -1 4.5v4t-0.5 3.5t-1.5 4t-3 3.5t-3.5 2t-3 1.5t-3.5 3l-3.5 3.5l-5 5l-5 5l-3.5 3.5q-1 4 -3 6t-4.5 3.5t-4.5 4t-2 5.5q-1 3 1.5 4
t4.5 1t2.5 -0.5l2.5 -2.5q1 -1 3.5 -5t6 -8l7 -8l3.5 -4l2 -2t2 -2.5t2.5 -2.5l1.5 -1l1 -0.5zM74 230q0 3 1.5 5t4.5 2t4.5 -4.5t2 -11.5t1 -15t0.5 -15.5v-13.5v-9q1 0 1.5 -1l0.5 -1h1.5t3.5 -0.5t3.5 -0.5h2.5t4 -0.5t6 -0.5t6 -0.5t4 -0.5q2 0 4 -1.5t3 -2.5l-0.5 -1.5
t-1.5 -2.5l-0.5 -0.5t-1.5 -0.5h-34l-0.5 -0.5l-1.5 -1.5v-4v-3t0.5 -3.5l1 -3t1.5 -1.5l20 -4q4 -1 6 -6t3 -12t1.5 -13.5t0.5 -9.5q0 -2 -0.5 -6t-0.5 -5q-1 -4 -3.5 -7.5t-5.5 -6t-7.5 -4t-8.5 -0.5v-2t-0.5 -4t-0.5 -3.5v-2.5v-3v-3.5t3 -2.5h23q3 0 3.5 -1.5t0.5 -3.5
q0 -1 -0.5 -3t-3.5 -2h-22l-1 -2q0 -2 0.5 -5.5t0 -7t-2 -6t-5.5 -2.5q-1 0 -2 1t-2 3v9t-2 10l-0.5 0.5l-0.5 0.5h-24q-1 0 -3.5 2t-2.5 3l0.5 1.5l0.5 1.5l1.5 1.5l0.5 0.5h28v17l-1 0.5t-2 1.5q-11 4 -17 6.5t-9 6.5t-3.5 11t-0.5 19v3v5.5v5.5v3q2 5 5 7.5t6.5 4t8 2
t9.5 1.5v15q0 3 -6 3.5t-12.5 0.5t-12.5 1.5t-6 6.5q0 3 2.5 3.5t4.5 0.5q6 0 12 -1t11 -1h3t2 2v10q0 10 -0.5 20t-1.5 19q0 4 -1.5 7t-1.5 6zM61 113q0 -7 3.5 -8.5t8.5 -1.5h3t3.5 0.5t3 1.5t1.5 3t-0.5 5.5t-1 6.5t-2.5 5t-6 2q-5 0 -9 -4t-4 -10zM107 101q1 0 2 0.5
t2 1.5v7q0 9 -5.5 13t-14.5 4v-22q0 -2 2 -3t4.5 -1h5h4.5zM61 89q0 -9 6 -12.5t14 -3.5q2 2 2.5 5.5t0.5 6.5v3v2l-2 2h-3h-3l-2.5 0.5t-5 0l-5 -1t-2.5 -2.5zM91 88q0 -2 0.5 -5t1 -5t2 -3.5t3.5 -1.5q6 0 9.5 3.5t3.5 9.5v2.5t-2 3.5h-4h-3h-7q-4 0 -4 -4z" />
</svg>
