<?xml version="1.0" standalone="no"?>
<!DOCTYPE svg PUBLIC "-//W3C//DTD SVG 1.1//EN" "http://www.w3.org/Graphics/SVG/1.1/DTD/svg11.dtd" >
<svg xmlns="http://www.w3.org/2000/svg" xmlns:xlink="http://www.w3.org/1999/xlink" version="1.1" viewBox="-10 0 266 256">
   <path fill="currentColor"
d="M86 189v59q0 1 1.5 1h2.5q3 0 5 -1t2.5 -3.5l1 -5t0.5 -5.5q0 -9 -1 -16.5t-1 -16.5v-4v-4v-3v-3l2 -3q3 0 8.5 -0.5t10.5 -2t8.5 -4t3.5 -7.5q-8 0 -15.5 2t-15.5 2h-1h-2t-1.5 -0.5t-0.5 -1.5v-23q0 -1 5 -3t11.5 -5t12 -8t5.5 -13v-26q0 -8 -5.5 -12.5t-12 -7
t-11.5 -4.5t-5 -7v-5v-6t1 -5.5t2 -2.5l29 -3l0.5 -1l0.5 -1q0 -1 -0.5 -3.5t-1.5 -2.5h-26l-1 -1.5t-1 -2.5v-3v-4v-4v-3q-1 -3 -2.5 -3.5t-3.5 -0.5q-1 0 -2 0.5t-2 0.5v2.5t-0.5 5t-0.5 4.5v3t-0.5 2.5l-1 3t-1.5 3t-2 1.5h-23q-1 0 -1.5 1.5t-0.5 2.5q0 3 2.5 4t4.5 1
q6 0 11.5 -0.5t11.5 -0.5v6.5v5.5q0 2 -0.5 4.5t-1.5 6.5q0 2 -2.5 2.5t-5.5 1.5t-6.5 3t-6.5 6t-5 10t-2 15q0 16 5.5 26t19.5 16l1.5 0.5l1.5 0.5v23l-3 3h-26q-3 0 -6 3t-3 6q0 1 0.5 2t1.5 1h6q7 0 13.5 -1.5t13.5 -1.5h1.5h1.5zM195 246q1 1 3 1.5t4 0.5t3.5 -0.5
t2.5 -3.5v-3t0.5 -4t0.5 -4v-3v0v-1q0 -1 -0.5 -3t-0.5 -3q-3 -12 -6 -23.5t-4 -24.5q0 -1 -0.5 -5t-1 -9.5t-1.5 -11.5t-1.5 -11t-1 -9t-0.5 -5v-4q0 -3 1.5 -5.5t3.5 -4.5t3.5 -4t2.5 -5q2 -12 2 -24v-24v-29q0 -3 -2.5 -4.5t-4.5 -1t-3.5 3.5t-1.5 5q0 5 1 10t1 10v6
l-3 3h-36l-3 -3q-1 0 -1 -2v-3q0 -5 1 -8.5t1 -8.5v-7q0 -2 -2 -2h-3q-3 0 -4 1t-2 4v4v5v6v3v5v5.5v5.5v2v5.5t0.5 9.5t0.5 9v6q1 4 0 8t2 7l1.5 1.5t1.5 2.5q1 2 1 3t-0.5 1.5t0 1t1.5 2.5l-5 45q-3 8 -3 17t-2 18q-1 10 -4.5 21t-3.5 21q0 2 0.5 3t2.5 1h1h1q1 0 2.5 -1
t2.5 -1q1 -1 3 -8t3.5 -17.5t3.5 -22.5t3.5 -23.5t2.5 -20.5t2 -13v-4.5t0.5 -7t1.5 -7t2 -5.5q2 -2 4 -2h4q5 0 6 3t0.5 7.5t-0.5 9t3 6.5q2 13 3.5 25t2.5 25q1 6 2 13t2.5 14.5t2.5 15t0 14.5zM69 121q0 -5 4 -6.5t7 -1.5h2t2 1q2 2 2 4v4v4q0 3 -0.5 5t-1.5 3.5t-3 1.5
t-4.5 -1.5t-4 -4t-2.5 -5t-1 -4.5zM95 134v-9v-7t4 -6l3 -0.5l3 -0.5q5 0 8.5 1t3.5 8t-5 11.5t-11 4.5h-3t-3 -2zM83 79h0.5h0.5q1 3 1.5 5t0.5 5v4t-0.5 5.5t-1.5 4.5t-3 2h-14q0 -4 0.5 -8.5t2.5 -8.5t5 -6.5t8 -2.5zM153 80q0 -7 4 -10.5t10.5 -4.5t13 -0.5t10.5 0.5h1
l1.5 1.5l1.5 1.5v8v7.5t-1 9.5t-3 8.5t-6 3.5h-24q-4 0 -5.5 -3.5t-2 -7.5t-0.5 -8v-6zM95 97q0 -5 0.5 -8.5t1.5 -7.5q1 -1 3 -1h2q5 0 10 3.5t5 9.5v1q-1 1 -2 3.5t-1 3.5q-1 0 -1.5 1l-0.5 1h-13q-3 0 -3.5 -2.5t-0.5 -3.5z" />
</svg>
