<?xml version="1.0" standalone="no"?>
<!DOCTYPE svg PUBLIC "-//W3C//DTD SVG 1.1//EN" "http://www.w3.org/Graphics/SVG/1.1/DTD/svg11.dtd" >
<svg xmlns="http://www.w3.org/2000/svg" xmlns:xlink="http://www.w3.org/1999/xlink" version="1.1" viewBox="-10 0 266 256">
   <path fill="currentColor"
d="M141 189q0 1 0.5 3t1 5.5t1 6.5t0.5 4q1 5 2.5 12t5 13.5t7.5 12t8 5.5q3 0 5 -1.5t2 -4.5q0 -2 -1.5 -5t-3.5 -6t-4.5 -6t-3.5 -5q-5 -8 -8 -17.5t-3 -19.5v-7q2 -3 4 -3.5t5 -2.5q7 -4 14 -7.5t12.5 -8t8.5 -10.5t3 -16v-72q0 -2 2.5 -2t6 -1t6 -2t2.5 -4t-1.5 -4.5
t-3.5 -1.5q-10 0 -20 0.5t-20.5 1.5t-20.5 2t-18 2q-1 0 -1.5 1t-0.5 3q0 1 0.5 2.5t2.5 1.5h12q9 0 17 -1t17 -1h4h4l3 3v2v5v6v5v15t-0.5 18t-1.5 18t-3 16q-2 5 -6 8t-8.5 5t-10 4.5t-9.5 6t-6.5 8.5t-1.5 13zM86 217q0 7 -1 13t-1 12q5 0 8.5 -1.5t4.5 -5.5v-15
q0 -16 -1 -31.5t-1 -30.5q0 -1 0.5 -3.5t1.5 -2.5l23 -4q1 0 3 -1.5t2 -2.5q1 -2 0 -3t-2.5 -1.5t-3 -0.5h-2.5q-4 0 -8 0.5t-8 0.5t-5 -0.5t-1 -5.5q0 -4 3 -6t7 -3.5t8 -3.5t6 -5q3 -5 4.5 -12.5t1.5 -12.5q0 -2 -0.5 -5.5t-1 -6.5t-2 -6t-4.5 -4l-20 -10q-2 -1 -2.5 -2
t-0.5 -3t0.5 -5t2.5 -5h3t4.5 -0.5t5 -0.5h3.5q2 -1 5.5 -1.5t3.5 -4.5v-2t-2 -2h-23v-18q0 -1 -2.5 -2t-3.5 -1q-3 0 -4 2t-1 5v2v2q0 1 0.5 2t0.5 2.5t0.5 2.5l0.5 1q0 2 -1.5 3l-1.5 1h-27q-2 0 -2.5 2.5t-0.5 3.5v2t2 1h26q2 0 2.5 1t1 2.5t0.5 3.5v2q0 3 -2.5 5.5t-6 5
t-7.5 5t-8 6t-6 9t-2 13.5t2 13.5t5.5 9t7.5 5.5l7 3.5t5.5 3t2.5 4.5v2q0 2 -0.5 3.5t-1.5 1.5h-33q-2 0 -3 2.5t-1 3.5q0 2 2 3.5t4 2.5q7 -2 14 -3.5t14 -1.5h3q1 0 2 2q0 4 0.5 7.5t0.5 6.5v7v7q0 8 -1 16t-1 16q0 2 1 3t1 2zM139 134q1 1 2.5 2t3.5 1h4.5h3.5h5.5t5 -1
t4.5 -2.5t2 -4.5q1 -6 1.5 -10.5t0.5 -8.5v-9v-10v-12q0 -2 -1 -3.5t-3 -1.5h-1l-1 1l-2 2v9t-3 9l-0.5 0.5t-1.5 0.5h-14v-21q-3 0 -6 1t-3 5q0 13 0.5 26.5t2.5 26.5zM145 112v-4l2 -2h16v6.5t-1.5 7.5t-3.5 6.5t-6 2.5q-2 0 -3.5 -1.5t-2.5 -4.5t-1 -6v-5zM67 105v0
q1 -1 1.5 -2t0.5 -2q1 0 4.5 -0.5t4.5 -0.5h2q4 0 4.5 2.5t0.5 4.5v3.5t-0.5 3l-1 3t-2.5 1.5t-4.5 -1t-4.5 -3t-3.5 -4t-1.5 -5zM109 96h1q0 1 1 1.5t2 0.5v4q0 7 -4 11.5t-10 4.5q-1 0 -2.5 -0.5t-1.5 -1.5v-16q0 -1 1 -1.5l1 -0.5h1.5t3 -0.5t3.5 -0.5t3 -1h1zM67 87v-3
q3 -4 6.5 -8t8.5 -4q2 0 3 2t1.5 4t0.5 4v3t-0.5 3l-0.5 2l-1 1h-16q-2 0 -2 -2v-2zM94 85v-4t0.5 -4t2 -3.5t3.5 -1.5q5 0 9 3t4 9q0 3 -1 4t-3 1.5t-4 0.5h-3h-3h-4q0 -1 -0.5 -2.5t-0.5 -2.5z" />
</svg>
