<?xml version="1.0" standalone="no"?>
<!DOCTYPE svg PUBLIC "-//W3C//DTD SVG 1.1//EN" "http://www.w3.org/Graphics/SVG/1.1/DTD/svg11.dtd" >
<svg xmlns="http://www.w3.org/2000/svg" xmlns:xlink="http://www.w3.org/1999/xlink" version="1.1" viewBox="-10 0 266 256">
   <path fill="currentColor"
d="M75 167h1q1 0 2 0.5t1 1.5l4 80l0.5 0.5t0.5 1.5h1q1 0 2 -1.5l2 -3t1.5 -3.5t0.5 -3v-2v-4v-4v-3q0 -13 -1 -26.5t-1 -26.5v-5l2 -2l32 -4l1.5 -1.5l1.5 -1.5l0.5 -0.5l0.5 -0.5l-0.5 -0.5l-0.5 -0.5q0 -1 -1.5 -2.5l-1.5 -1.5h-33l-0.5 -2l-1 -4t-0.5 -3.5v-2.5
q1 -3 3.5 -4.5t6.5 -2.5t8 -2.5t7.5 -4t5.5 -7.5t2 -14q0 -12 -1.5 -19t-5.5 -11t-10 -6.5t-15 -5.5v-6q0 -2 0.5 -4.5t1 -4.5t1.5 -4t4 -2h18q1 0 2.5 -0.5t2.5 -1.5t2 -2.5t0 -2.5q0 -1 -1 -2t-2 -1h-25q-3 0 -3 -3.5t-0.5 -7.5t-1.5 -7.5t-5 -3.5q-1 0 -2 0.5t-2 1.5
q0 12 -2 16.5t-5.5 5t-9.5 0t-15 1.5v2v1q0 8 9 8q1 0 3.5 -0.5t5.5 -1.5t5.5 -1.5t3.5 -0.5h1q2 0 3 2t1 4v5v2v8q-1 1 -3.5 2t-4.5 1.5l-4 1t-3 0.5q-11 4 -16.5 12.5t-5.5 20.5q0 8 3 14.5t7 10.5t9 6.5l9 4.5t6.5 3t2.5 2q0 7 -2.5 10.5t-7.5 4.5t-11 0.5t-13 0.5
q-1 0 -2 2t-1 3q0 3 2.5 4t5.5 1v0q1 0 4.5 -0.5t7.5 -1t7.5 -1t4.5 -0.5h1zM121 202q0 2 0.5 3.5t1.5 2.5q4 -1 12.5 -1.5t18 -1t20 -0.5t18.5 -1t13.5 -2.5t5.5 -4.5q0 -2 -0.5 -4t-2.5 -2h-36v-40l2 -1t3 -1h4t6.5 -0.5t6 -1t4.5 -0.5q1 -1 1 -2.5v-2.5q0 -2 -1 -2.5
t-4 -0.5h-4h-6h-6h-4q-2 -1 -3 -3.5t-1 -3.5v-26l2 -2q2 0 6 -0.5t8 -1.5t7.5 -3t3.5 -6q-14 0 -28 0.5t-27 1.5q-1 0 -3.5 1.5t-1.5 3.5q0 4 3.5 4.5t7 0t6.5 -0.5t5 3v4.5t0.5 7t0.5 7v4.5v4v4t-3 3l-19 3l-1.5 1.5l-1.5 1.5q0 1 0.5 2.5t1.5 1.5h23q1 1 1 3.5t0.5 5.5
t0.5 5.5v3.5v0q0 2 -0.5 6.5l-1 9t-1 8l-0.5 3.5h-34q-3 0 -3.5 2t-0.5 4zM57 115q0 -2 2 -3t4.5 -2t5 -1h4.5h3.5t2.5 3v14q0 2 -1 2h-3q-2 0 -5.5 -0.5t-6 -2.5t-4.5 -4.5t-2 -5.5zM89 120q0 -7 3.5 -10t10.5 -3h2.5h2.5q0 1 1 3l1 2q0 4 -1.5 6.5t-4 4.5t-5.5 3t-6 1
t-3.5 -2t-0.5 -5zM55 94q0 -3 2 -5.5t5.5 -4.5t7 -3.5t5.5 -1.5h2.5t1.5 2v14l-1 2h-2t-4 0.5t-4 0.5h-4h-2q-2 0 -4.5 -0.5t-2.5 -3.5zM95 77q6 0 10.5 5t4.5 11v2t-2 2h-19v-18l2 -0.5t3 -1.5h1zM164 42q4 0 9.5 6.5t10.5 14.5t9 15.5t6 10.5q1 2 4 2h4q3 0 4.5 -0.5
t1.5 -3.5q0 -5 -2.5 -9.5t-6.5 -9l-8 -9t-7 -8.5q-1 -1 -3.5 -4.5t-5.5 -7.5t-5.5 -7.5t-4.5 -4.5q0 -2 -1 -4.5t-3 -2.5q-3 0 -6.5 4t-7.5 10.5t-8 14t-7.5 15t-6 13.5t-4.5 9v1q0 2 2 2.5t4 0.5h2.5t1 -1t1 -2.5t1.5 -3.5q1 -1 2.5 -3.5t3 -5.5t3 -5.5t1.5 -3.5t1.5 -5
t4 -8t5.5 -7t5 -3z" />
</svg>
