<?xml version="1.0" standalone="no"?>
<!DOCTYPE svg PUBLIC "-//W3C//DTD SVG 1.1//EN" "http://www.w3.org/Graphics/SVG/1.1/DTD/svg11.dtd" >
<svg xmlns="http://www.w3.org/2000/svg" xmlns:xlink="http://www.w3.org/1999/xlink" version="1.1" viewBox="-10 0 266 256">
   <path fill="currentColor"
d="M166 208q0 5 2.5 12t7 13.5t9.5 11t10 4.5q3 0 4.5 -2.5t1.5 -5.5v-1v-1q-5 -4 -9.5 -7.5t-8.5 -7t-6 -8.5t-2 -11t3.5 -10.5l7 -9l7 -9t3.5 -10.5q0 -5 -2 -9t-4.5 -7.5t-4.5 -7.5t-2 -8q0 -3 3.5 -4t8 -3t8 -6t3.5 -11q0 -8 -3 -12t-7.5 -6t-10.5 -3t-11 -1v-9l1 -1
l2.5 -2.5t3 -3.5t2.5 -3q3 -2 5 -4t3 -3.5t1.5 -3.5t0.5 -6q0 -5 -1.5 -8t-4.5 -6q-1 -1 -3 -1t-4.5 -1t-4.5 -1t-3 -1q-3 0 -6 -2.5t-7 -5t-6.5 -4t-4.5 -1.5q-1 0 -1.5 2t-0.5 3q0 2 1 4t2.5 3.5t2.5 3t1 3.5v1q-3 8 -9 15.5l-10 12.5v1v0q0 3 1.5 3h3.5q3 0 6 -4.5
t6.5 -10.5t7.5 -10.5t8 -4.5h2l2 0.5t3.5 1l3 1t2.5 0.5q2 2 2 4v4q0 1 -3 6.5t-7 11t-7.5 10.5t-5.5 6q-8 -1 -16 4.5t-12 12.5l-0.5 2.5t-0.5 3.5q0 8 3 11.5t6.5 6t6 4.5t2.5 6t-1.5 7.5t-3.5 6.5l-4 6l-4 6q-3 10 -4.5 19t-1.5 19v11t1 14.5t3 13t7 5.5h1h1l1 -10
q0 -2 -1 -7.5t-2 -12t-2 -12.5t-1 -8v-1q0 -13 4.5 -23t11.5 -20q0 -1 1.5 -2.5t1.5 -2.5q2 -5 3 -11.5t1.5 -13.5t0.5 -14v-11q0 -2 2.5 -2h2.5h1h2.5t2.5 0.5t1 1.5v42q0 4 2 7t4.5 5.5t5 5.5t2.5 7l-2 4q-3 5 -6.5 9t-6.5 9t-4.5 10t-1.5 11zM84 238q0 4 1 5t4 1
q2 0 4 -4.5t3 -12t1 -16.5v-17v-15.5v-9.5q1 -2 2.5 -3t2.5 -1h3.5h5.5h5h3q2 0 4.5 -1t2.5 -3v-1l-0.5 -0.5l-1 -1t-2 -1.5l-1.5 -1h-22q-1 0 -1.5 -1.5t-0.5 -2.5v-6v-6q2 -3 4.5 -3.5t5.5 -1.5q8 -5 12.5 -13t4.5 -19q0 -1 -0.5 -3.5t-1 -4.5t-1 -4.5t-0.5 -4.5
q-1 -3 -4.5 -6.5t-7.5 -5.5l-7 -3.5l-3 -1.5v-18l3 -3h3.5h5.5h6h4q2 0 4 -1.5t2 -3.5q0 -3 -2 -4t-5 -1.5t-7 0t-7 0.5t-5 -1t-2 -4v-2t0.5 -2t0.5 -2v-1v-3q0 -3 -2 -6t-7 -3v0q-1 1 -1.5 2t-0.5 2v20q0 2 -2 2h-3q-2 0 -5 -1.5t-6 -1.5h-3t-4 0.5t-3 1.5t-1 3q0 1 1 3
t2 3h21q1 0 3 0.5l2 0.5v24l-2 2q-6 0 -10 1t-7 3t-5 5.5t-5 8.5l-0.5 1t-1.5 1v27q0 4 2.5 5.5t5 2.5t6.5 1.5t6.5 2t5 5t2.5 10.5q0 3 -1 4.5t-2 2t-3.5 1t-5.5 0.5h-4h-7h-7h-4q-2 1 -3.5 2t-1.5 3q0 1 1.5 3t3.5 2h27q2 0 3.5 2t2 4.5t1 5.5t0.5 4q0 14 -2 27.5t-2 27.5
zM70 114v-3.5t1 -2.5h7h2t4 0.5t3.5 1t1.5 1.5v12q0 2 -2 2h-3q-6 0 -10 -1.5t-4 -9.5zM97 120q0 -2 0.5 -4.5t1 -4.5t2 -3.5t4.5 -1.5q1 0 3.5 1t3.5 1v4q0 4 -1.5 8.5t-7.5 4.5q-2 0 -4 -1.5t-2 -3.5zM140 113q0 -2 0.5 -4.5t2 -5.5t3 -5t4.5 -2q2 0 3 1t1.5 3t0.5 4v3v5
t-0.5 6t-2 5t-4.5 2q-4 0 -6 -3.5t-2 -8.5zM180 110v-4v-5t1.5 -3.5t4.5 -1.5q2 0 3.5 1.5t3 3.5t2 4.5t0.5 4.5q0 5 -3 8.5t-8 3.5q-2 0 -3 -1.5t-1.5 -3.5t0 -4t0.5 -3zM71 94q0 -4 4 -7.5t8 -3.5h1q2 0 3.5 0.5t1.5 1.5v13h-16q-1 0 -1.5 -2zM102 81q3 0 6.5 3.5t3.5 6.5
t-1 5t-4 2h-2t-2.5 -0.5t-2.5 -1t-1 -1.5v-12l1 -1t2 -1z" />
</svg>
