<?xml version="1.0" standalone="no"?>
<!DOCTYPE svg PUBLIC "-//W3C//DTD SVG 1.1//EN" "http://www.w3.org/Graphics/SVG/1.1/DTD/svg11.dtd" >
<svg xmlns="http://www.w3.org/2000/svg" xmlns:xlink="http://www.w3.org/1999/xlink" version="1.1" viewBox="-10 0 266 256">
   <path fill="currentColor"
d="M83 248q0 2 1.5 2h2.5q2 0 3 -0.5t2 -2.5q2 -8 2 -14v-14q0 -11 -1 -21.5t-1 -20.5v-3t2 -2q1 0 3.5 -0.5l5 -1t5 -0.5h3.5h2.5t3.5 -0.5t3.5 -1t1.5 -2.5h0.5h0.5q0 -2 -2 -3t-3 -1h-21q-3 0 -4 -2.5t-1 -5.5q0 -5 2 -8.5t5 -5t6 -3.5t6 -5.5t5 -9.5t2 -16q0 -7 -2 -11
t-5 -6t-7.5 -4t-9.5 -5l-1 -0.5t-1 -1.5v-26h21q2 0 3.5 -1.5t1.5 -3.5v-2t-2 -1h-3.5h-4.5h-5.5h-3.5q-2 0 -4.5 -0.5t-2.5 -1.5v-27q0 -2 -1.5 -3t-2.5 -1q-2 0 -2.5 1t-1.5 4v3v4v4v3v3t-0.5 4t-0.5 3.5v1.5l-2 2q-1 0 -3.5 0.5t-5.5 0.5t-6 0.5t-4 0.5t-3 1t-2 3
l0.5 0.5l0.5 0.5q0 1 1 2t2 1h23v24q0 3 -4 3.5t-9.5 2.5t-10 7.5t-4.5 17.5v9t1.5 7t3.5 5.5t6 5.5q1 0 4 1l6 2t5 1.5t2 1.5v16l-1 2l-2 0.5t-4.5 0.5t-5 0.5t-4.5 0.5h-11h-1.5t-3 1t-2.5 1.5t-1 1.5v0v0q0 1 1.5 2t1.5 2q3 0 7 -0.5t9 0t9.5 1t7.5 1.5v3q0 11 -0.5 22
t-0.5 23v5v8.5v9.5v5zM162 237q0 1 0.5 3l1 4t1.5 3t3 1q1 0 2 -1.5t1 -3.5v-44l4 -3l1.5 -0.5t4 -0.5t5.5 -0.5t4 -0.5h5h3q3 25 2 51q-1 3 1 3.5t4 0.5q6 0 6 -7q0 -14 -2 -28.5t-3 -27.5q-1 -21 -1.5 -43t0.5 -44q-1 -1 -2 -1h-2h-1.5t-1.5 1v3.5t-0.5 5t-0.5 5v3.5
q-1 2 -2 3.5t-3 1.5h-4h-4h-3.5t-5 -0.5t-4 -1.5t-1.5 -3v-2v-1v-3.5t0.5 -5.5t0.5 -5.5v-3.5q2 -4 6.5 -6t8.5 -4t7.5 -5.5t3.5 -10.5q0 -2 -0.5 -5t-1.5 -6t-2.5 -5.5t-3.5 -3.5t-5.5 -2.5t-7.5 -2.5l-8 -2t-7 -1q-2 0 -3 0.5t-1 2.5v2t2 1q4 1 9 2.5t9.5 4t7 6t2.5 9.5
q0 3 -1 5t-3.5 4t-5 3t-4.5 1h-2h-1l-0.5 -1.5t-1 -2.5l-1 -2l-0.5 -1q-4 -5 -8.5 -7.5t-9.5 -6.5q-4 -6 -5 -14l3.5 -7t2 -6t1 -5.5t0.5 -6.5v-3v-3l-0.5 -0.5t-1.5 -0.5h-1v0q-1 0 -2 1l-2 2q0 4 -1.5 8t-2.5 8l-2 8t-1 8q0 8 3.5 11.5t7.5 6t7.5 5.5t3.5 10v1v1
q-1 0 -3 0.5t-4 1.5h-22l-1 1l-2 2v1v0q1 1 2 1.5l1 0.5h32l0.5 1.5t0.5 3.5t0.5 4.5t0.5 3.5v21v22q-1 1 -1.5 2.5t-1.5 1.5q-1 1 -4 1h-3h-4q-2 0 -2 -1q-1 0 -3 -0.5l-2 -0.5v-38q0 -1 -1 -3t-3 -2q-1 0 -2.5 2t-1.5 3v64q-1 8 -1.5 16.5t0.5 16.5q-2 2 -3.5 6t-2 9t-1 9
t-0.5 7t1 4t4 1h2.5t2.5 -2q2 -11 4 -23.5t1 -23.5l1 -2h20q0 11 -0.5 21t-0.5 20zM143 188v-23l1 -2h2t4 -0.5t4.5 -0.5h4.5h1h1l0.5 0.5l0.5 0.5v25h-19zM169 160h26l2 2v2t0.5 5t0.5 6v5v3q0 2 -2 3.5t-5 2t-5.5 0t-4.5 -0.5q-6 0 -8.5 -2.5t-3 -6.5t-0.5 -9v-10z
M170 141q0 -8 2.5 -11t10.5 -3h7q3 2 4.5 4t2 4.5t0.5 5.5v5v3.5t-2 2.5h-24q-1 0 -1 -3v-5v-3zM92 122q0 -4 1.5 -6t3.5 -3t5 -1h7q0 3 -0.5 6.5t-2 7t-4.5 5t-7 1.5q-1 0 -1.5 -1t-1 -2.5t-0.5 -3.5v-3zM66 119q0 -5 3.5 -6t7.5 -1q1 0 4 0.5l3 0.5q2 0 2 1t0.5 2t0 2
l-0.5 1q0 4 -0.5 8t-5.5 4q-6 0 -10 -3t-4 -9zM64 101q0 -2 1.5 -4t3.5 -4t4.5 -2.5t4.5 -0.5h3.5t2.5 1v5q0 5 -1.5 7.5t-6.5 2.5h-4t-3.5 -0.5t-3 -1.5t-1.5 -3zM92 95q0 -3 1 -4t4 -1q5 0 8 3.5t3 8.5q0 4 -1.5 4h-4.5q-6 0 -8 -2.5t-2 -8.5z" />
</svg>
