<?xml version="1.0" standalone="no"?>
<!DOCTYPE svg PUBLIC "-//W3C//DTD SVG 1.1//EN" "http://www.w3.org/Graphics/SVG/1.1/DTD/svg11.dtd" >
<svg xmlns="http://www.w3.org/2000/svg" xmlns:xlink="http://www.w3.org/1999/xlink" version="1.1" viewBox="-10 0 266 256">
   <path fill="currentColor"
d="M125 247q0 2 1 3t3 1q3 0 6 -2t3 -6v-43l3 -1l2 -0.5t4.5 -0.5t5 -0.5t3.5 -0.5q3 0 8.5 -0.5t12 -0.5t12.5 -0.5t8 -0.5l2 -1l2 -1q0 -2 -1.5 -3.5t-2.5 -1.5h-57q0 -1 -0.5 -3.5t-0.5 -3.5q1 -1 6 -1.5t11.5 -3.5t12 -9.5t5.5 -20.5q0 -8 -3 -12t-6.5 -6.5t-8 -3
t-8.5 -1t-6.5 -1.5t-2.5 -4q0 -1 1.5 -4t3.5 -3h44l0.5 -1.5t0.5 -2.5v-1q0 -3 -2.5 -4t-4.5 -1q-7 0 -14 0.5t-14 0.5h-9l-4 -4q1 -2 2 -2.5l2 -1l2 -1t3 -2.5q1 0 3.5 -4t4.5 -8t4 -7.5t3 -3.5q3 0 6 4.5t6 9.5t6.5 9.5t7.5 4.5q3 0 4 -1.5t1 -3.5q0 -3 -3 -6t-6.5 -7
t-7 -7.5t-4.5 -7.5q0 -1 0.5 -3.5t0.5 -3.5h4t6 0.5t5 0.5h4l6 -1.5t2 -4.5v-2t-2 -2h-24q-3 0 -4 -2.5t-1 -4.5v0q1 -1 2 -2.5l1 -1.5h15q2 0 2 -1v-3v-2t-2 -2q-1 1 -4 1t-6.5 -0.5t-5.5 -2t-2 -4.5l0.5 -1t0.5 -2t0.5 -2t0.5 -2q0 -2 -1.5 -2.5t-3.5 -0.5q-4 0 -5.5 3
t-2 6t-0.5 5q0 3 -1 3h-13l-0.5 1.5t-1.5 2.5v1q0 2 2.5 2.5t5.5 1t6 0.5t4 3q0 1 -1 3.5t-1 3.5h-20q-1 0 -1.5 2.5t-0.5 3.5h19q1 0 1.5 2t0.5 3q0 2 -2.5 7t-6 10.5t-7 9.5t-5.5 5q0 1 -3 1.5l-3 0.5l-0.5 1.5t-1 2.5t-1 2.5l-0.5 1.5l-1.5 1.5l-1.5 1.5h-3h-3h-4h-3
h-3.5t-7.5 -0.5t-7.5 -1t-4.5 -0.5h-2q-1 0 -3 0.5t-3 1.5t-1 2v1q0 1 0.5 2.5l0.5 1.5h47q1 0 1.5 1.5t0.5 3.5v1v2q0 2 -1 2q-3 3 -7 3.5t-8.5 1t-8.5 2t-6 5.5q-3 3 -5 7.5t-2 9.5q0 10 2.5 15.5t6.5 8.5t10.5 4t15.5 2l0.5 1.5l0.5 1.5v1v1l-1 2t-2 2h-67q-1 0 -1.5 2
t-0.5 3q0 3 2 3.5t5 1.5h3h5h5h3q11 0 22 -1t22 -1h2t2 2v9q0 10 -2 19.5t-2 19.5zM103 159q0 -1 1.5 -2.5t3.5 -1.5h19q2 0 2 2.5v2.5q0 1 -0.5 3.5t-1 4.5t-2 3t-3.5 1t-5 -1t-6 -2.5t-5.5 -4t-2.5 -5.5zM155 151q2 0 4 0.5t4 3.5q-2 5 -6.5 9.5t-10.5 4.5h-3h-2
q-1 0 -1.5 -0.5t-0.5 -1.5v-12l1.5 -0.5t3.5 -1t4.5 -1t3.5 -1.5h1h2zM105 143q0 -3 2 -5t5 -3l6 -2t5 -1q7 0 7 7q0 3 -1.5 4t-4 2t-5 0.5t-4.5 -0.5h-4h-5l-0.5 -0.5t-0.5 -1.5v0zM139 140q0 -3 1.5 -5.5t4.5 -2.5q2 0 4.5 0.5t5 1.5t4.5 2.5t2 3.5t-1.5 3t-3.5 1.5
t-4 0.5h-4q-4 0 -6.5 -0.5t-2.5 -4.5zM68 96q0 2 1.5 2.5t3.5 0.5q5 0 8 -3.5t6 -8t5 -8t5 -3.5q2 0 3.5 1.5t2 4t1 4.5t1.5 4t4.5 4.5t4.5 3.5q4 -2 4 -5v-0.5v-1.5q-2 -2 -4.5 -5.5t-5 -7.5t-4 -8t-1.5 -7q0 -4 4.5 -5t9.5 -1.5t9 -1t4 -3.5v-2t-1 -1h-26l-1 -1.5l-1 -1.5
q-1 0 -1 -1q0 -5 4 -5.5t9 0t8.5 0t3.5 -4.5q0 -2 -1 -3.5t-3 -1.5h-3.5h-4.5h-5h-3l-3 -3q0 -2 0.5 -4.5t0 -5t-1.5 -4t-3 -1.5h-3t-2 2v14l-3 4h-16q-1 0 -2 1t-1 2v0q0 4 2.5 5t5.5 1h1.5t3 -0.5t3 -0.5h1.5h1q4 0 4 3t-1.5 5.5t-4.5 2.5q-5 0 -9 -1t-8 -1q-3 0 -3.5 1
t-0.5 4q0 2 0.5 3t2.5 1h22q1 0 1.5 2l0.5 2v3q-5 8 -11.5 15.5t-13.5 14.5v1v0z" />
</svg>
