<?xml version="1.0" standalone="no"?>
<!DOCTYPE svg PUBLIC "-//W3C//DTD SVG 1.1//EN" "http://www.w3.org/Graphics/SVG/1.1/DTD/svg11.dtd" >
<svg xmlns="http://www.w3.org/2000/svg" xmlns:xlink="http://www.w3.org/1999/xlink" version="1.1" viewBox="-10 0 266 256">
   <path fill="currentColor"
d="M84 235v3.5t1 5.5t2 5t4 2t5 -2.5t2 -5.5v-5q0 -3 -0.5 -12t-0.5 -19t-0.5 -19t-0.5 -12q-1 -2 -1.5 -5t-0.5 -5t0.5 -5t1.5 -3l18 -4l1.5 -1.5t2.5 -1.5v-1v-1q0 -1 -1 -1.5l-1 -0.5q-1 0 -5 0.5t-8 0t-7.5 -2t-3.5 -5.5q0 -2 2.5 -4t5.5 -3t6.5 -2.5t4.5 -3.5
q3 -6 4 -13t1 -14t-1 -14.5t-4 -13.5q-1 -2 -4 -3.5l-6 -3l-6 -3l-3 -1.5v-14q0 -1 3 -2t4 -2q4 -2 8 -2.5t9 -0.5v-2v-1q0 -3 -2.5 -4t-6 -1.5t-6.5 -0.5h-5q-3 -1 -3 -4t-0.5 -6l-1 -6t-3.5 -3q-4 0 -5 3t-1.5 6t-0.5 6.5v4.5q-2 3 -4.5 3.5t-5.5 0.5t-5.5 -1t-5.5 -1
t-6 3t-3 6q0 2 1.5 3.5t3.5 1.5q5 0 10 -1.5t10 -1.5q6 0 7 3t1 9q0 4 -1.5 6.5t-5 3.5t-7 1.5t-7 2.5t-6.5 5t-4 8v15q0 2 -0.5 5t0 7t1 7.5t1.5 5.5q2 5 7 7t10 3.5t8.5 3t3.5 5.5v5t-3 3q-1 0 -4 -0.5t-7 -0.5q-3 0 -6 0.5t-4 0.5h-4.5t-5 0.5t-4 2t-1.5 4.5t0.5 4t3.5 1
q5 0 9 -1.5t8 -1.5q1 -1 3.5 -0.5t5.5 0.5h6h4q0 9 0.5 18t0.5 18v1v7t-0.5 12t-1 11.5t-0.5 7.5zM142 249l1 0.5t1 1.5h1v0l3 -1.5t3 -2.5v-100l1.5 -1t2.5 -1h4h3q1 0 3.5 -0.5t5.5 -1l6 -1l3 -0.5l0.5 -0.5t1.5 -0.5v1l1 1t1 2q1 14 2 29t1 28q0 1 -0.5 4t-0.5 4v35
q0 2 2 2h2q5 0 6 -2.5t1 -7.5q0 -22 -1.5 -43t-1.5 -43v-6q1 -3 3.5 -3.5t6 -0.5h6t2.5 -4v-0.5v-0.5q-1 0 -2 -2t-2 -2h-13q-1 0 -2 -2t-1 -4.5v-4.5v-3v-7q10 -2 20 -3v-2v-2q0 -4 -1 -5t-4 -1t-5 1.5t-5 1.5t-4 -1t-1 -5q0 -6 2.5 -10.5t5 -8.5t5 -9t2.5 -12v-6t-2 -6
l-19 -21q-1 -3 -2 -5.5t-4 -2.5q-2 0 -4.5 3.5t-1.5 5.5q0 3 2 5l3.5 3.5t3 3.5t1.5 5q0 5 -3 10t-7 9.5t-7 7.5t-3 6v0v1l0.5 0.5t1.5 0.5v1q5 0 8.5 -5t6.5 -10l6 -10t7 -5q3 0 4 3.5t1 5.5q0 6 -2 10.5t-5 8t-5.5 7.5t-2.5 7v3.5v4.5t-1 3.5t-3 2.5q-7 2 -12 2h-11h-2.5
h-3t-3 -0.5t-1.5 -2.5q0 -5 1.5 -10.5l3 -11t3 -10.5t1.5 -11q0 -2 -2 -6t-5 -9t-6.5 -10.5t-6.5 -10t-5.5 -7.5t-3.5 -3q-2 0 -3.5 3t-1.5 5q0 3 2 6t4.5 5.5t4 5.5t1.5 6t-1 6t-3 5l-4.5 4.5l-4.5 4.5v0.5v1.5q0 3 3 3h2q1 -1 2.5 -3t3.5 -4.5t4 -4t5 -2.5h1q2 0 3.5 3.5
t1.5 6.5v1v1q0 1 -1 3.5l-2 5l-2 5t-1 3.5q-1 1 -1 4v6.5t-0.5 7t-2.5 5.5h-3t-4.5 0.5t-4 1.5t-2.5 3l1 3h13q1 0 2 2t1.5 4.5t0.5 5.5v3q0 6 -3 7.5t-6 2t-6 1.5t-3 6h18v13v19.5v19.5v13v7.5t0.5 11.5t0.5 11.5v7.5zM149 124v-9q0 -1 3.5 -2t8 -1t8.5 -0.5t5 -0.5
q8 0 9 4t1 12v3v2l-4 4h-29q-1 0 -1.5 -1.5t-0.5 -2.5v-8zM64 112q0 -1 0.5 -4.5t3.5 -3.5h16v22q0 2 -1.5 2.5t-3.5 0.5q-6 0 -10.5 -5t-4.5 -12zM92 115v-2t0.5 -4t0.5 -3.5t1 -1.5h14v14q0 2 -1.5 3t-3.5 2.5t-3.5 2t-2.5 0.5q-2 0 -3 -1.5t-1 -3.5t-0.5 -3.5t-0.5 -2.5z
M63 89q0 -6 4.5 -10t9.5 -4h3t2 2v14l-3 4h-13q-1 0 -2 -2.5l-1 -2.5v-1zM92 78q0 -2 1 -3.5t3 -1.5t4.5 2t4.5 4.5t3 5t1 4.5q0 4 -3 5t-6 1t-4.5 -2t-2 -4.5t-1 -5.5t-0.5 -5z" />
</svg>
