<?xml version="1.0" standalone="no"?>
<!DOCTYPE svg PUBLIC "-//W3C//DTD SVG 1.1//EN" "http://www.w3.org/Graphics/SVG/1.1/DTD/svg11.dtd" >
<svg xmlns="http://www.w3.org/2000/svg" xmlns:xlink="http://www.w3.org/1999/xlink" version="1.1" viewBox="-10 0 266 256">
   <path fill="currentColor"
d="M162 242q0 1 0.5 2.5t0.5 3t1 2.5t2 1q5 0 6.5 -4t1.5 -8v-2l-1 -3t-1 -4v-16v-17v-5t0.5 -4t1.5 -3.5t4 -1.5t5.5 2.5t4 6t2.5 7.5t1 6t0.5 5.5t1 7.5t0.5 7.5v4.5q1 2 2.5 4.5t3.5 2.5t3 -1.5t1.5 -4t0.5 -5v-2.5q0 -5 -0.5 -11t-2 -11.5t-3.5 -10.5t-5 -9
q-2 -2 -5 -3.5l-6 -3t-5.5 -2.5l-2.5 -1v-15l1.5 -1t2.5 -1q2 -1 5 -2t6.5 -2t6 -2.5t2.5 -3.5l1 -17q1 -2 -1 -3t-3 -1q-4 0 -5.5 3.5t-2 8t-2 8t-6.5 3.5h-2h-1t-2 -0.5t-1 -1.5v-20q-1 0 -4 0.5l-3 0.5q-1 0 -1.5 0.5t-0.5 1.5v18l-2 1t-3 1h-1q-5 0 -8 -3t-4.5 -7t-3 -7
t-5.5 -3q-3 0 -3.5 1.5t-0.5 4.5q0 8 2.5 12t6 5.5t7.5 2t7 1t5.5 3.5t2.5 8v4.5v2.5q-11 5 -17.5 9.5t-10.5 10.5t-5 15t-1 21q0 4 1 4.5t4 0.5t5 -5.5t3 -13t2 -14.5t3 -9l1 -2t2.5 -4t3 -3t2.5 -1q2 0 3.5 2t2 4.5l1 5t0.5 4.5v0q0 2 -0.5 7.5t-0.5 12t-0.5 12.5t-0.5 7
v5zM82 162v80q0 2 1 2h2q2 0 3 -1t2 -3t2 -3.5t1 -2.5v-15q0 -14 -1 -27.5t-1 -27.5v-3t2 -1h3.5h5.5h5.5h3.5l5 -2.5t3 -4.5q0 -2 -0.5 -2.5t-3.5 -0.5h-21l-0.5 -1.5t-0.5 -2.5v-5v-7l1 -1q1 0 3 -1t4 -2.5t4 -2t3 -1.5q3 -2 5.5 -6t4 -8.5t2.5 -9t1 -9.5q0 -7 -2.5 -12
t-5.5 -8.5t-7 -5.5t-7.5 -3.5t-5.5 -4.5t-2 -7q0 -6 1.5 -9t4.5 -4t7.5 -1h9.5q5 -1 5 -4q0 -4 -4 -4h-21q-1 0 -1 -2.5v-5.5t-1 -6t-5 -3q-5 0 -5.5 3t-0.5 7v7t-2 3h-27q0 1 1 4t3 3h26v21q0 1 -2.5 2t-5.5 2t-7 3t-7 5.5t-5.5 9t-2.5 14.5q0 5 0.5 11.5t3.5 11.5
q2 2 6.5 5t9 5t8 3.5t3.5 2.5v14q0 3 -2.5 3h-4.5q-5 0 -9 -1t-9 -1h-9l-3.5 3.5t-1.5 3.5q0 4 4 4h34zM91 121v-8v-6t2 -6q1 0 2.5 -0.5t3.5 -0.5t4 -0.5t3 -0.5l1.5 0.5t1.5 1.5v6q0 3 -0.5 6t-2.5 5.5t-4.5 4.5t-6.5 2h-1q0 -1 -1 -2.5t-2 -1.5zM64 109q0 -3 1.5 -4
t3.5 -2t4 -1.5t4 -0.5q3 0 4.5 3t1.5 6v4v4t-1 3.5t-3 1.5t-5 -1.5t-5 -3.5t-3.5 -4.5t-1.5 -4.5zM130 114v0q0 1 1.5 2t1.5 2h1h1l16 -16h0.5h1.5q2 0 2.5 2.5t1 5.5t1 5.5t3.5 2.5h1q1 0 1.5 -1l0.5 -1q3 -5 3 -12v-11q5 -4 11 -6.5t11 -2.5q4 0 7 5t5 10.5t4 10t4 3.5
l3 -3l2 -2q0 -1 -0.5 -2.5t-1.5 -3.5q0 -1 -1 -3t-2 -5t-2 -5t-1 -3q-2 -5 -8 -9t-12.5 -7t-12 -6t-5.5 -5q0 -5 6 -7t12.5 -4.5t12 -6.5t5.5 -12q0 -4 -2 -7.5t-6 -6.5q-3 0 -10.5 -0.5t-16 -0.5t-16 -0.5t-10.5 -0.5h-2q-5 0 -6.5 2.5t-1.5 7.5h7h12t12 0.5t8 0.5
q1 0 4.5 -0.5t6.5 0t5.5 2t2.5 4.5v3.5t-1 3.5q-1 0 -3 0.5t-4.5 1.5t-4.5 2t-3 1q-3 1 -6 4.5t-5.5 7t-5 6t-4.5 2.5q-7 0 -10 -3t-3 -10q0 -4 2 -7t2 -7q0 -1 -0.5 -2t-3.5 -1t-5.5 2.5t-4 7t-2.5 8.5t-1 7q0 4 2.5 6t6 3t7.5 1t7.5 0.5t5.5 2.5t2 5v2l-3 14q-1 0 -4 2.5
l-6 5t-6 4.5t-4 3q0 1 -2.5 3.5l-3.5 3.5v1zM62 88q0 -8 6 -12t14 -4v21h-18q-2 0 -2 -2v-3zM90 82q-1 -3 2 -5.5t6 -2.5q10 0 10 10q0 3 -1.5 6t-5.5 3t-7.5 -3t-3.5 -8zM166 78q0 -3 1 -3.5t3 -0.5h5.5t3.5 3q0 2 -1.5 2.5t-3 1.5t-3.5 1h-3q-2 0 -2 -4z" />
</svg>
