<?xml version="1.0" standalone="no"?>
<!DOCTYPE svg PUBLIC "-//W3C//DTD SVG 1.1//EN" "http://www.w3.org/Graphics/SVG/1.1/DTD/svg11.dtd" >
<svg xmlns="http://www.w3.org/2000/svg" xmlns:xlink="http://www.w3.org/1999/xlink" version="1.1" viewBox="-10 0 266 256">
   <path fill="currentColor"
d="M189 248q0 1 2 2t3 1q2 0 3 -1.5t1.5 -3t0.5 -3.5v-3q0 -10 -1 -19.5t-2.5 -19.5t-2.5 -19.5t-1 -19.5q0 -3 1 -6t2.5 -5.5l3 -5t2.5 -5.5q4 -7 5.5 -15.5t1.5 -16.5q0 -6 -4 -7.5t-8.5 -2.5t-8 -2t-3.5 -6q0 -2 0.5 -6.5t1 -9.5t1 -9l0.5 -4h21q1 0 2 -1t1.5 -2.5
t0.5 -3v-2.5h-23l-1 -1t-1 -2v-1v-1l0.5 -2.5l1 -5t1 -4.5t0.5 -3v-1q0 -2 -1 -4.5t-3 -2.5h-3t-2 2q-1 0 -1 2t-0.5 4l-1 4t-0.5 3v1v1l0.5 2t0.5 3q0 11 -1.5 22.5t-3.5 23.5q-1 1 -4.5 2t-4.5 1q-1 1 -2 1.5l-1 0.5h-0.5t-0.5 1l0.5 0.5l0.5 0.5q1 1 2.5 1h3.5h3.5h2.5
q3 1 6.5 1.5t6.5 1.5t5.5 1.5l2.5 0.5l4 4v2v3q0 2 -0.5 7t-2 9.5t-3 8t-4.5 3.5q-1 0 -1.5 -2.5t-0.5 -6t-1 -7t-4 -4.5q-3 -2 -7.5 -3.5t-9.5 -1.5h-4t-3 2t4 3t9 4t8.5 8t2.5 15q0 5 -4 7t-9 3t-9 3t-4 7q6 0 11 -2t11 -2q1 0 2 0.5t2 2.5q0 11 1.5 19.5t2.5 19.5
q0 10 1 20t2 21zM123 239q0 3 0.5 6t3.5 3t4.5 -1t2.5 -4q1 -7 1.5 -15.5t1 -16.5t2.5 -16t5 -15q1 -4 4 -9.5t5.5 -11.5t4.5 -11.5t2 -8.5t-2 -7t-5 -7t-6.5 -5t-7.5 -2q-9 0 -15 5t-10 12t-6.5 15.5t-5.5 16.5l-2 6t-2.5 7t-2.5 7.5t-1 6.5q0 1 1 1.5t3 0.5q3 0 5 -5.5
t4 -12.5t4 -12.5t5 -5.5q2 0 5 3t6 7.5t5 8.5t2 6v3q0 1 -1 3.5t-2 3.5q-3 10 -5.5 21.5t-2.5 22.5zM67 230v5.5v3.5l3 2q2 1 3.5 0t2.5 -3l2 -4l1 -2q0 -2 -0.5 -6t-0.5 -9q0 -4 0.5 -8t0.5 -6v-10t0.5 -12t0.5 -10v-4l3 -5h15l0.5 -1t0.5 -3v0v-1q-1 -2 -3.5 -2.5
t-5.5 -0.5q-2 0 -4 0.5t-3 0.5q-2 -2 -2.5 -4.5t-0.5 -5.5q0 -8 1 -10t3 -2.5t5 -0.5t7 -4q1 0 4 -3.5t4 -5.5q0 -2 0.5 -5.5t1 -7.5t1 -7t0.5 -4q1 -5 -1 -8.5t-4.5 -5.5t-6 -3.5t-6 -2.5t-4.5 -2.5t-2 -4.5v-1v-2l0.5 -2t0.5 -4t0.5 -4t0.5 -3q2 -3 4.5 -3h5.5t6 -0.5
t5 -2.5l-2 -2h-3.5t-5.5 -0.5t-5 -1.5t-4 -3q0 -1 0.5 -4t0.5 -6t-0.5 -6t-0.5 -4q0 -4 -1 -4.5t-3 -0.5q-3 0 -4.5 2t-1.5 5t0.5 6t0.5 5t-0.5 5.5t-1.5 3.5h-22l-0.5 1t-1.5 2v1v0.5v0.5q1 0 2 1.5t2 1.5h21q0 6 0.5 11.5t-1.5 11.5q-1 3 -5.5 4t-9 3.5t-8.5 7.5t-4 17
q0 7 1.5 11.5t4.5 7t6 4l6 3t4.5 4.5t1.5 8v3t-0.5 4t-1 3.5t-1.5 1.5h-24q-1 0 -1 1.5t-0.5 3t-0.5 2.5v1h26q0 2 0.5 7.5t0.5 11v10.5v7v3.5t-1 5.5t-1.5 6l-0.5 3v3v3.5v4.5v3zM117 150q0 -2 1.5 -6t3.5 -4h1v0l15 9h4q0 -5 -2.5 -7t-5.5 -3t-5.5 -2t-2.5 -4q0 -2 1.5 -4
t3.5 -2h13q2 0 3 1.5t2 3.5t1.5 4t0.5 3t-0.5 2.5l-0.5 1.5q0 1 -0.5 3t-1.5 4t-1.5 4.5t-1.5 3.5q0 2 -1 5t-2 5l-1 2h-5l-19 -18v-2zM58 110q0 -1 0.5 -3l0.5 -2h15l0.5 1.5t0.5 2.5v2.5t-1 5t-1.5 4.5t-2.5 2t-4 -1t-4 -3t-3 -4.5t-1 -4.5zM81 115v-1q0 -2 0.5 -4t1 -3.5
l0.5 -1.5h15q1 0 1.5 2.5l0.5 2.5q0 6 -3.5 10t-9.5 4h-2q-1 0 -2 -1q-2 -1 -2 -3v-5zM118 87q0 4 2.5 6.5t5.5 4t7 2t6 0.5q9 0 12 -3.5t3 -11.5q0 -4 -0.5 -6.5t-4.5 -6.5h-1h-1l-1 1l-1 1v15q0 1 -1 1.5t-2.5 1t-3 0.5h-2.5q-5 0 -6.5 -2t-1.5 -6v-3v-2q1 -1 2 -2.5
t2.5 -3.5t3 -3.5l2.5 -2.5q2 -2 3 -5.5t1.5 -6.5t1.5 -5.5t3 -2.5q3 0 5.5 2t4.5 4l4 4t5 2q2 0 2 -2v-4t-3 -4.5t-7 -4.5t-7.5 -4t-5.5 -4q1 -1 1 -4v-5v-5q0 -2 -1 -3q0 -2 -1 -3.5t-3 -1.5q-4 0 -4.5 3.5t-0.5 7.5v8t-2 6q0 1 -2 2t-4.5 2t-4.5 2.5t-3 1.5q-2 1 -4.5 2.5
l-5 3t-4 4t-1.5 5.5q5 0 8.5 -2.5t6.5 -5t6.5 -5t7.5 -2.5q2 0 2 2.5v3.5q0 5 -2.5 9t-6 8t-6.5 8t-3 9zM59 97l-0.5 -0.5t-0.5 -1.5v-1v0q1 -1 2.5 -3.5t3.5 -4l4 -3t4 -1.5q3 0 3 3v5q0 1 0.5 2.5t0 2.5t-1 2.5t-1.5 1.5h-1q-1 0 -2.5 -0.5t-4 -1t-4 -0.5h-2.5zM87 82
q3 0 5 1.5t3.5 4t2.5 5t1 4.5h-16v-3v-5.5t1 -4.5t3 -2z" />
</svg>
