<?xml version="1.0" standalone="no"?>
<!DOCTYPE svg PUBLIC "-//W3C//DTD SVG 1.1//EN" "http://www.w3.org/Graphics/SVG/1.1/DTD/svg11.dtd" >
<svg xmlns="http://www.w3.org/2000/svg" xmlns:xlink="http://www.w3.org/1999/xlink" version="1.1" viewBox="-10 0 266 256">
   <path fill="currentColor"
d="M178 197q2 0 4 4t4 10t3.5 13t4 13t5 10t5.5 4q4 0 5.5 -2t1.5 -4q0 -6 -4 -10t-6 -8q-1 -2 -3.5 -8t-5 -13.5t-4 -14t-1.5 -8.5v-1.5v-0.5q0 -1 1.5 -2.5l3.5 -3.5t3.5 -4t2 -2.5l2.5 -2.5l2 -2l0.5 -0.5t0.5 -1.5t-1 -2.5t-3 -1.5q-1 -1 -2.5 0t-3 2.5t-3 2.5t-3.5 1
t-3 -2t-2 -5t-1.5 -6t-0.5 -4q0 -3 2 -4t5 -2h22q1 0 1.5 -1t0.5 -2q0 -2 -3.5 -3.5t-5.5 -1.5q-6 0 -11 2t-11 2v-10q0 -1 3.5 -1t8 -1t8 -3.5t3.5 -9.5l-0.5 -2.5l-0.5 -2.5q-1 -2 -1.5 -2.5t-2.5 -0.5q-3 0 -3.5 2t-1.5 5t-2.5 5t-5.5 2q-3 0 -4 -2t-0.5 -5t0 -5t-3.5 -2
q-1 0 -2.5 0.5t-1.5 2.5v26l-2 4q-1 0 -3 0.5t-5 0.5h-6h-4h-6l-1.5 -2.5t-1.5 -3.5q-1 -3 1 -4.5t4.5 -3t5 -2.5t2.5 -3q0 -3 -4 -3q-1 0 -5 1t-9 2.5t-9.5 3.5t-6.5 3v0v1q0 2 2 2h5.5t5 0.5t2.5 4.5q0 1 -0.5 4t-3.5 3h-12l-3 4q1 3 2.5 3h3.5t4 -1t5 -1q2 0 3.5 1.5
t1.5 3.5v25q0 3 -5.5 7t-12 9t-12.5 10.5t-6 11.5h5l26 -23h5l0.5 1t0.5 2.5t0.5 3t0.5 2.5v9v13.5t0.5 14t0.5 8.5q3 0 4.5 -1.5t2.5 -5.5v-12q0 -10 -1 -20t-1 -20v-3.5v-3.5q2 -1 5 -3t6 -4.5t5 -4.5t2 -5q0 -1 -0.5 -2t-2.5 -1h-1l-1.5 1t-3.5 2l-4 2t-3 1t-2 -1t-1 -3
v-4v-3q0 -5 2 -7.5t5 -3t7 -0.5h9v0l4 3q1 7 2.5 14.5t1.5 14.5q0 4 -0.5 6.5t-2 5l-3 5t-3.5 5.5q-3 5 -5 11t-3 13t-1.5 13.5t-0.5 11.5q3 0 5.5 -1t2.5 -4l7 -36l0.5 -1.5t1.5 -3t2 -2.5zM82 241l2 2v0q4 0 6.5 -4t2.5 -7v-2t-0.5 -4t-0.5 -3.5v-1.5v-1v-1v-5t0.5 -9
t0.5 -9v-5v-2t-0.5 -2.5t-0.5 -2.5v-1v-4q0 -3 2.5 -4.5t6 -2t7 -0.5h4.5q2 -1 2 -2v-2q0 -3 -0.5 -3.5t-4.5 -0.5l-2.5 -0.5t-4.5 -0.5t-4.5 0.5l-2.5 0.5q-3 -2 -3 -6v-6q0 -6 3 -8.5t6.5 -4t7.5 -3.5t6 -7q1 -2 1.5 -5.5t0.5 -7.5v-7v-6v-4v-6.5t-0.5 -6.5t-2.5 -5
q-4 -2 -7.5 -3.5t-7 -2.5t-5.5 -4t-2 -8t1 -8t4 -4.5t6.5 -2t8.5 -0.5q1 0 2 -1.5l1 -1.5v-1v-1l-1 -0.5t-2 -0.5h-17q-2 0 -2 -2v-3q0 -4 1 -7.5t1 -7.5q0 -6 -6 -6q-2 0 -4.5 2.5t-2.5 4.5v1q0 1 0.5 3t0.5 4.5t0.5 4.5t0.5 3q-1 3 -3 4t-5 1t-6.5 -0.5t-6 0t-4.5 1.5
t-2 5q0 3 1 3h3q4 0 7.5 -1t7.5 -1h3h3q2 2 2 5v4q0 9 -2.5 12t-6 4t-8 2t-7.5 7q-3 5 -3 12.5v14.5q0 9 0.5 14.5t3.5 8.5t8 4.5t13 1.5l1.5 1.5t0.5 1.5v2q0 1 -0.5 3.5t-0.5 5.5t-0.5 5.5t-0.5 3.5q-4 2 -10 2h-11t-10 1.5t-4 5.5q0 1 0.5 2t1.5 1h6q6 0 12 -1.5t13 -1.5
q3 0 3.5 2t0.5 4q0 14 -1 27t-1 27v8zM68 120v-4.5t3 -2.5h13v17q0 3 -1.5 3.5t-3.5 0.5q-6 0 -8.5 -4t-2.5 -10zM92 132v-8q0 -7 1 -10t8 -3h5q2 2 2 4v4q0 5 -2 10t-7 5h-4t-3 -2zM125 93v1q0 1 0.5 1.5l0.5 0.5h31l0.5 1t0.5 2v3t0.5 4t0.5 4v3h6v-3.5t0.5 -5.5t1 -5
t2.5 -3q2 0 5.5 -0.5t8 -0.5t8.5 -0.5t5 -0.5t4 -0.5t4 -1.5v-1v-2t-2 -1h-33l-0.5 -0.5t-0.5 -1.5q-1 0 -1.5 -1.5l-0.5 -1.5q0 -7 4 -10t10 -3.5t12 -0.5h10q2 -1 2 -1.5v-1.5v-2.5t-2 -1.5h-26l0.5 -3t2 -5.5l3 -5t3.5 -2.5h19l5 -4q-1 -2 -4 -3t-5.5 -1t-5.5 0.5t-4 0.5
q-2 -1 -2 -2v-2q0 -2 1 -3.5t2.5 -3.5t2.5 -4t1 -4q0 -3 -3 -5t-5 -2t-4.5 7t-5.5 15.5t-5.5 16.5t-3.5 10l-1 1h-1q-1 0 -2 -0.5t-1 -1.5t-1 -3.5t-1.5 -5.5t-1.5 -5.5t-1 -3.5l-0.5 -2l-0.5 -2q-1 -3 -1 -6.5t-1 -7t-2.5 -6.5t-5.5 -3q-2 0 -3 1t-2 3q3 4 3.5 7t0.5 7v2v3
q-4 2 -8.5 3t-9.5 1v1.5v0.5v2t2 1h17q3 0 4 1.5t1.5 4t0.5 5v3.5v2.5t-3 1.5h-20q-1 0 -1.5 2l-0.5 2q0 3 2 3.5t3 0.5q5 0 9.5 -1t9.5 -1h5q1 1 1 2.5v2.5q0 8 -2.5 10.5t-6.5 3t-9.5 0t-11.5 0.5l-1.5 0.5l-1.5 0.5v1zM68 98q0 -5 2.5 -8t7.5 -7v0q3 0 4 1t1.5 3t0.5 4v3
q0 4 -1 7.5t-5 3.5q-5 0 -7.5 -1t-2.5 -6zM92 100v-6q0 -4 0.5 -7.5t4.5 -3.5q3 0 5 1.5t4 4t2.5 5.5t0.5 5t-1 3t-3 1.5t-3.5 0.5h-3.5t-4 -0.5t-2 -3.5z" />
</svg>
