<?xml version="1.0" standalone="no"?>
<!DOCTYPE svg PUBLIC "-//W3C//DTD SVG 1.1//EN" "http://www.w3.org/Graphics/SVG/1.1/DTD/svg11.dtd" >
<svg xmlns="http://www.w3.org/2000/svg" xmlns:xlink="http://www.w3.org/1999/xlink" version="1.1" viewBox="-10 0 266 256">
   <path fill="currentColor"
d="M203 249q1 0 1.5 0.5t0.5 1.5h1q3 0 5 -2.5t2 -4.5q0 -22 -2 -44t-3 -45q0 -9 -1.5 -21t-1.5 -23q0 -4 1.5 -7.5l3 -7l3 -7t1.5 -7.5q0 -6 -2.5 -11.5t-6 -10t-8.5 -7.5t-10 -3q0 5 2.5 9t5.5 7.5t6 8t3 10.5q0 4 -1 6.5t-3 6.5h-0.5h-1.5l-2.5 -1.5t-6 -3t-7.5 -3
t-8 -1.5q0 4 2.5 6t5.5 3.5t6 3.5t3 6q1 3 -2 5t-6.5 4t-7 4.5t-3.5 5.5q4 0 7 -0.5t5.5 -2t4.5 -3.5t6 -4l3 5v33l-1 4q-1 0 -3.5 0.5t-4.5 0.5t-4.5 0.5l-2.5 0.5q-4 0 -5 0.5t-1 2.5q0 1 0.5 2.5t1.5 1.5h20l2 3v5.5t0.5 13t0.5 15.5v13v16q0 1 0.5 3t1 4.5t0.5 4.5v3z
M75 169v76q2 0 4 -0.5t3.5 -1t3 -2t1.5 -3.5q0 -12 -1 -24.5t-1 -24.5v-18q1 -3 3.5 -3.5t6 -1t6.5 -1.5t4 -4l-3 -4h-19v-15q8 -3 12.5 -6.5t7 -8t3.5 -10.5t1 -14q0 -24 -22 -29v-3.5t-0.5 -5.5t-1 -5.5t-0.5 -3.5v-3q0 -4 3 -5t6.5 -1t6.5 -1t3 -4q0 -4 -3 -4.5
t-6.5 -0.5t-6.5 -0.5t-3 -3.5v-18q0 -2 -1.5 -2h-2.5h-2.5t-2.5 2v25h-20q-2 0 -2 1.5v2.5v2t2 1q5 0 10 -0.5t9 2.5q1 0 1.5 0.5l0.5 0.5v26q-5 1 -9.5 2t-8 4t-5.5 7t-2 9q0 9 1 17t6 15q1 2 4 4t6 3.5t5.5 3l2.5 1.5v20h-30l-0.5 0.5t-0.5 1.5q-1 1 -1 3v2h32zM116 183v9
q0 4 1 9t2.5 9t5.5 7h2h3.5h3.5h2q8 0 14 -1t9.5 -4.5t5.5 -9.5t2 -15q0 -4 -1 -7.5t-5 -3.5q-3 0 -3.5 1t-1 2.5t-1.5 2.5t-3 1h-1h-2t-1.5 -0.5t-0.5 -1.5v-17l1 -1q1 0 3.5 -0.5t4.5 -1t4.5 -0.5h2.5q2 -1 3.5 -2t1.5 -4l-0.5 -0.5l-0.5 -0.5h-19l-0.5 -1t-1 -2.5
t-0.5 -2.5v-2q0 -5 3 -6.5l6 -3t6 -4t4 -9.5v-2.5t-0.5 -3.5t-0.5 -4t-1 -3l-0.5 -1l-0.5 -1h-1h-1q-1 0 -2.5 1l-1.5 1v17l-1 0.5t-2 1.5l-1.5 0.5l-1.5 0.5h-1h-1l-0.5 -0.5l-0.5 -0.5v-28l1.5 -1.5l3 -3l3 -3l2.5 -2.5q1 -2 1 -3.5v-3v-3.5v-3q1 -4 4.5 -4.5l7 -1
t6.5 -1.5t3 -6q-5 0 -9.5 1t-8.5 1h-1q-1 0 -3 -0.5l-2 -0.5v-48q0 -1 -1 -1.5t-2 -0.5t-2.5 0.5t-1.5 1.5v44q0 2 -1.5 3.5t-3.5 1.5h-1.5t-1.5 -1q0 -1 -0.5 -4t-0.5 -6t-0.5 -5.5t-0.5 -3.5v-1.5v-1.5q0 -6 1 -10.5t1 -9.5q0 -4 -3 -4h-3t-2 2v45l-23 4q-1 0 -1 1
t0.5 2.5t1.5 1.5h17l0.5 1t1.5 2v14q2 1 5.5 3.5t5.5 4.5v5v5t0.5 4.5t0 7t-2 5.5t-4.5 2t-3.5 -3t-1 -7t-1.5 -7.5t-5 -3.5v21q0 3 3 5t6 3t5.5 3t2.5 5t-1.5 5.5t-3.5 3.5h-5.5h-6.5t-5.5 2t-2.5 6h20q2 0 2.5 1t0.5 2v3v1v5t-1 5t-2.5 3.5t-3.5 1.5t-3.5 -1t-2.5 -2.5
t-2 -2.5t-3 -1t-3 1.5t-1 3.5zM125 198q0 -3 2.5 -4.5t6.5 -2t7.5 -0.5h6.5h3h4q1 1 1.5 2t0.5 2q0 8 -5 11.5t-11 3.5t-11 -2.5t-5 -9.5zM62 116q0 -2 2.5 -3.5t4.5 -1.5t4 2t2 5q0 4 -0.5 7.5t-4.5 6.5h-1q-2 0 -3.5 -2t-2.5 -5t-1 -5.5v-3.5zM83 112h14q1 0 1.5 1t0.5 2
q0 2 -1 4.5t-2 4.5t-3 3.5t-4 1.5h-3.5t-2.5 -2v-15zM60 97q0 -3 4 -7t7 -4q1 0 2 1t1.5 2.5t0.5 3v2.5q0 3 -1 5.5t-4 2.5q-6 0 -10 -5v-1zM83 92q0 -2 1 -5t5 -3q5 1 6.5 4t1.5 7q0 5 -1 5.5t-5 0.5q-5 0 -6.5 -2.5t-1.5 -6.5zM135 84v-2.5t0.5 -2.5l1 -2t1.5 -1h12
q2 0 2 2v2q0 5 -2.5 8t-6.5 3q-3 0 -5.5 -2t-2.5 -5zM113 42q0 5 3 10.5t6 9.5q1 0 1 -1v-3v-5q0 -3 -0.5 -6.5t-2 -6t-4.5 -2.5t-3 4zM157 57q0 1 1 2l2 2h1q2 0 4.5 -2t4.5 -5t3 -6.5t1 -5.5q0 -4 -4 -4q-2 0 -3 1t-2 3l-1 1.5t-2 3.5l-2 4t-2 3l-0.5 1.5z" />
</svg>
