<?xml version="1.0" standalone="no"?>
<!DOCTYPE svg PUBLIC "-//W3C//DTD SVG 1.1//EN" "http://www.w3.org/Graphics/SVG/1.1/DTD/svg11.dtd" >
<svg xmlns="http://www.w3.org/2000/svg" xmlns:xlink="http://www.w3.org/1999/xlink" version="1.1" viewBox="-10 0 266 256">
   <path fill="currentColor"
d="M167 239v5.5t3 3.5q2 0 4 -1.5t2 -3.5v-68l3 -3l26 -3l0.5 -0.5t0.5 -1.5v-1v0q0 -1 -0.5 -1.5l-0.5 -0.5h-26l-3 -3v-13l21 -7l4 -10l2 -24q0 -2 -2 -4.5t-4 -2.5q-1 0 -2 0.5t-1 1.5q0 4 0.5 8t0.5 7v8t-1.5 7t-4.5 4.5t-7 1.5h-3h-3t-1 -3v-3v-2.5v-1.5l0.5 -2.5
l0.5 -2.5v-21l0.5 -1t1 -1t2.5 -1.5t3 -1.5q4 -4 6 -7.5t3 -7.5t1 -9t-1 -10l2 -2q1 0 2.5 -0.5t3.5 -0.5t4 -0.5l2 -0.5q2 0 3 -0.5t1 -2.5q0 -3 -3 -3h-5q-15 0 -29.5 1.5t-29.5 1.5h-5.5h-5.5q-2 -4 -5 -7.5l-6 -7t-5.5 -7.5t-2.5 -9q0 -2 1.5 -3t3.5 -2t3.5 -2t1.5 -3
q0 -1 -0.5 -2t-1.5 -1l-2 -0.5t-3 -0.5q-3 0 -6 1t-6.5 2t-6.5 2.5t-6 1.5q-6 2 -13.5 2.5t-14 2.5t-10.5 6.5t-4 14.5v2l0.5 1.5t1 3.5t1 3.5l0.5 1.5v4.5t0.5 5t2 4.5t4.5 2t4.5 -1.5t1.5 -4.5v-1t-1 -1l-1.5 -3t-1.5 -4q-1 -3 -1.5 -8t-0.5 -9q0 -3 1.5 -5t4 -3.5
t5.5 -2.5t5 -1q3 0 5 2t3 5.5t1.5 7.5t1 8.5t0.5 7.5t1 5q0 2 1 2h3t2.5 -1t0.5 -3q0 -8 -1.5 -15t-1.5 -15v-3v-3q3 -2 5 -2.5t5 -0.5t4.5 2.5t3 6.5t2.5 8.5t2.5 8.5t3 7t4.5 3h4h4t3.5 1t2.5 4h13q0 1 0.5 4.5t1 6.5l1 6t0.5 4t1 2.5t1.5 3l1 3t1.5 1.5q0 1 1.5 1.5l3 1
t3 1.5l1.5 1q1 1 1.5 4.5t0.5 7.5v7v5v12q-1 3 -2 3.5t-3 0.5q-3 0 -4.5 -1t-3.5 -3q-2 -7 -3 -15t-1 -16h-2h-2t-1 2v4.5v5.5q0 8 0.5 13.5t2.5 9t6.5 5.5t12.5 3l1 1v14l-3 3h-4t-6 0.5t-6.5 1t-5.5 1.5l-0.5 0.5t-0.5 1.5q0 3 3.5 4t5.5 1q4 0 7 -1t6 -1t3.5 1.5t1 3.5
t0.5 4.5v4.5q0 13 -1 25.5t-1 25.5zM106 82q-15 0 -25.5 2t-17.5 7t-10.5 15.5t-3.5 27.5v102q0 1 1 1.5t2 0.5h0.5h1.5q1 -1 2.5 -3l1.5 -2v-46q0 -1 -0.5 -3.5l-0.5 -2.5v-1v-1q0 -2 0.5 -5l0.5 -3q0 -1 0.5 -1.5t1.5 -0.5t4 -0.5t6.5 -1l7 -1t4.5 -0.5l3 -1l3 -1l0.5 0.5
l1.5 1.5q2 6 1.5 13t-0.5 13q0 9 -0.5 17t-0.5 17q0 4 3 4t4.5 -2.5t1.5 -6v-6.5v-4q0 -12 -1 -23.5t-1 -22.5q0 -5 2.5 -8l5 -6t5 -7t2.5 -9q0 -6 -3 -11t-8 -9t-10.5 -6t-11.5 -2v0q-1 0 -3.5 0.5t-3.5 0.5v1v1v2t2 2q3 0 8.5 1.5t10.5 4t8.5 6t3.5 8.5q0 4 -1.5 8t-5.5 4
v0q-5 -7 -12 -12t-15 -5q-3 0 -3 4v1q0 1 2.5 2t5 2.5t4.5 2.5t3 2q4 2 5.5 3.5t1.5 5.5q0 3 -3 5t-6.5 2.5t-7 0t-5.5 -0.5h-2h-2.5h-2.5h-1l-2 -1v-2.5v-3.5v-4v-3q0 -16 1 -27t5 -17t13 -8.5t25 -2.5q7 0 12.5 4t8.5 11q0 2 0.5 7.5t1 11.5t1 11.5t0.5 7.5q0 1 0.5 4.5
t0.5 5.5v26q0 13 -0.5 26t-0.5 27q0 1 0.5 2t1.5 1q4 0 5.5 -1.5t2.5 -4t1 -5v-5.5q0 -29 -2.5 -58t-3.5 -57q0 -3 -0.5 -6.5t-1.5 -3.5q-1 -2 -4 -4t-6.5 -4t-6.5 -3t-6 -1zM156 64q7 -1 14 -1.5t14 -0.5v18q0 5 -4 8.5t-7 3.5q-2 0 -4.5 -0.5l-5 -1t-4.5 -2t-2 -3.5z
M143 24q0 3 1 3.5t4 0.5q2 0 6 -0.5t10 -0.5t12.5 -0.5t11.5 -1.5t8.5 -2t3.5 -2v-1q0 -1 -0.5 -2t-1.5 -2h-5q-12 0 -25.5 2.5t-24.5 3.5v2z" />
</svg>
