<?xml version="1.0" standalone="no"?>
<!DOCTYPE svg PUBLIC "-//W3C//DTD SVG 1.1//EN" "http://www.w3.org/Graphics/SVG/1.1/DTD/svg11.dtd" >
<svg xmlns="http://www.w3.org/2000/svg" xmlns:xlink="http://www.w3.org/1999/xlink" version="1.1" viewBox="-10 0 266 256">
   <path fill="currentColor"
d="M172 248q1 3 2 3.5t3 0.5q6 0 6 -6q0 -10 -2 -21t-2 -22v-2q1 -1 1 -3t0.5 -4t0.5 -4.5v-2.5l2 -2t2.5 -1t2.5 -0.5l1 -0.5h4t6.5 -0.5t6.5 -0.5h4v-1v-2v-2t-2 -2h-25q-1 0 -2 -2t-1.5 -4.5t-0.5 -4.5v-3v-6q9 -2 14 -5.5t7 -8.5t2 -11.5v-13.5v-5.5v-4.5q-1 -2 -3 -2.5
t-4 -0.5q-1 0 -1.5 1.5t-0.5 2.5v2v3.5t0.5 5.5t0.5 5.5v3.5v0q0 2 -0.5 5t-1.5 6t-2.5 5.5t-4.5 2.5q-1 0 -3.5 -0.5t-2.5 -3.5v-47l1 -0.5t1 -1.5q6 -2 9.5 -4.5t5.5 -6t2 -8.5t1 -12q1 -1 3 -1.5t3.5 -1.5l3 -2t1.5 -2v-0.5v-0.5q-1 -2 -3 -2.5t-4 -0.5q-13 0 -28 1.5
t-27 2.5q-2 1 -3.5 2t-1.5 3t1.5 3t3 1.5t3.5 0.5h3q2 2 2 5v5.5t0.5 5t2.5 4.5q0 1 2 2.5t4 3.5l3.5 3.5t1.5 2v2.5v6v4.5v2.5q0 1 0.5 3t0.5 4.5t0.5 4.5t0.5 3v1v3v3v3v4v3l-2 3l-1.5 0.5l-1.5 0.5q-5 0 -8.5 -3.5t-3.5 -8.5v-30h-3t-3 2v9q0 4 0.5 7.5t0.5 6.5t0.5 6.5
t2.5 8.5l0.5 1t1.5 2.5t2 2.5t2 1h11l2 2v1.5t0.5 4t0.5 5v3.5v3q0 1 -0.5 4t-2.5 3h-21l-3 1l1 2.5t2 2.5h23v3.5t0.5 4.5t0.5 4.5v3.5v1q0 8 -0.5 16t-0.5 16v14zM46 245q0 3 0.5 4t3.5 1q1 0 4 -0.5t3 -2.5l5 -35v-82q0 -1 1 -2t2 -1.5t2.5 -1t3.5 -1l4 -1t3 -0.5h3
t4.5 0.5t5 0.5h3.5v15q-5 1 -9 3.5t-4 7.5q0 3 1.5 6t4 5t5.5 3t6 1l2.5 -0.5l2.5 -0.5l3.5 -3.5l2.5 -2.5t1.5 -3.5t0.5 -5.5t-1.5 -5l-3 -4l-3 -4t-1.5 -5v-4t1 -4q6 0 11 -0.5t10 -0.5h3l2 5v4t0.5 9.5t0.5 11.5v9v3v6v4.5v2.5q0 3 0.5 9t1.5 14t2 16.5t2 15.5t3 11.5
t5 4.5t3.5 -1t0.5 -4q0 -5 -1.5 -8l-3.5 -7q-3 -25 -5.5 -49t-2.5 -49q0 -13 2.5 -25t2.5 -25v-3q0 -1 -0.5 -3t-1.5 -3t-2 -1q-3 0 -6 3q1 9 1 19t-2 19q-1 1 -2 3t-3 2h-21l-0.5 -1.5t-0.5 -2.5v-4q0 -4 2 -7t4.5 -5t4.5 -4.5t2 -6.5q0 -8 -5 -11t-12 -3t-11.5 4t-4.5 12
q0 3 2 5.5l4 5t4 6.5t2 11v1q-1 0 -1.5 0.5l-0.5 0.5h-27l-3 -1q0 -1 -0.5 -4t-1 -7t-0.5 -7v-2v-4q0 -3 1 -6t1 -6t-2 -4.5t-4 -1.5q-7 0 -9 8q0 1 1 2l1 1q0 2 0.5 5.5l1 7t1 6.5t0.5 4v5v9v9v5t0.5 2.5t0.5 3.5t0.5 4t0.5 3q0 17 -0.5 37t-2.5 37q0 1 -1 3.5t-2 6t-1.5 6
t-0.5 3.5v1.5v1.5zM102 220q4 0 5 3.5t1.5 7.5t1 7.5t2.5 3.5q3 0 5 -1t2 -4v-1v0q-1 -6 -4.5 -11.5t-3.5 -11.5q0 -2 1 -3.5t1.5 -2.5t1.5 -2.5t1 -3.5q0 -7 -3.5 -11t-9 -6t-12 -3t-12.5 -1q-2 0 -3.5 0.5t-1.5 3.5q0 1 2.5 1.5t6.5 1t8.5 1t8 2t6 3.5t2.5 5q0 2 -1 4
t-3 2h-1q-1 0 -3 -2l-3 -3h-4.5t-6 -0.5t-6.5 -0.5h-4l-1 -1l-0.5 0.5l-0.5 0.5l-1.5 0.5l-1.5 0.5v1v1q1 1 2 2.5l1 1.5h21q2 0 3.5 2t1.5 4q0 3 -4.5 4.5t-10.5 2t-10.5 2t-4.5 4.5q0 1 1 1.5t2 0.5h3h2q3 0 7 -1t7.5 -2t6 -2t3.5 -1zM86 152q0 -1 1 -2.5t2.5 -2.5l3 -2
t2.5 -1q4 0 7 2t3 6q0 3 -2.5 4.5t-4.5 1.5q-1 0 -3 -0.5l-4 -1t-3.5 -2t-1.5 -2.5zM89 86q0 -10 11 -10q3 0 5 2.5t2 6.5t-2.5 6.5t-6.5 2.5t-6.5 -2t-2.5 -6zM163 70q0 -1 0.5 -3l0.5 -2l3 -3l1.5 -0.5t3.5 -0.5t4 -0.5t3 -0.5h3h1l2 0.5t2 1.5q1 0 1 3v2q0 4 -0.5 7.5
t-1.5 6.5t-3.5 4.5t-7.5 1.5q-7 0 -9.5 -5.5t-2.5 -11.5zM123 14q-3 0 -9 1t-13.5 3t-16 4t-15.5 4.5t-11 4t-4 2.5v27q0 1 2 1.5t3 0.5t2.5 -0.5t1.5 -2.5v-19q0 -3 1.5 -4.5t4 -2.5t5 -1h4.5h3t3 3l3 17q1 3 2.5 3.5t3.5 0.5t3 -1t1 -3q0 -5 -2.5 -9.5t-2.5 -9.5
q0 -3 4 -5.5t6 -2.5q5 0 7 4.5t4 9.5t4.5 9t7.5 4q2 0 3 -0.5t1 -2.5q0 -3 -2 -5.5l-4 -5l-4 -5t-2 -6.5q0 -2 2 -3t4.5 -1t5 -1t3.5 -3q0 -1 -1 -2.5t-2.5 -2t-3 -0.5h-2.5zM148 29q-1 0 -2 1.5t-1 2.5h14h11h9.5t10 -0.5t12.5 -0.5l0.5 -0.5l1.5 -1.5v-1q0 -1 -2 -2t-3 -2
h-9h-9q-2 0 -6.5 0.5t-10 1t-10 1t-6.5 1.5z" />
</svg>
