<?xml version="1.0" standalone="no"?>
<!DOCTYPE svg PUBLIC "-//W3C//DTD SVG 1.1//EN" "http://www.w3.org/Graphics/SVG/1.1/DTD/svg11.dtd" >
<svg xmlns="http://www.w3.org/2000/svg" xmlns:xlink="http://www.w3.org/1999/xlink" version="1.1" viewBox="-10 0 266 256">
   <path fill="currentColor"
d="M76 230q0 4 2.5 6.5t5.5 4.5t7 2.5t7 1.5q2 0 6 0.5l8 1t7.5 1t5.5 0.5l8.5 0.5t19 0.5t21.5 0.5t18 0.5h6q3 0 6 -1t3 -5v-1l-0.5 -1.5t-1.5 -1.5h-8.5h-13.5h-13.5h-9.5q-2 0 -5.5 -0.5t-6.5 -0.5t-5.5 -0.5l-2.5 -0.5l-4 -3v-3v-4v-6.5t0.5 -6t2.5 -5t6 -3.5
q12 -3 20 -4t13 -4.5t7 -11t2 -22.5v-10q-2 -2 -3.5 -2h-3.5q-3 0 -4.5 3.5t-2 8t-1 10.5t-2.5 11t-7.5 8t-14.5 3q-2 0 -3.5 0.5t-3 0t-2.5 -1.5t-1 -3v-4q0 -3 0.5 -9t0.5 -11.5t0.5 -10t0.5 -5.5q0 -9 5 -13t12 -6.5t14.5 -3.5t13.5 -4q2 -1 3 -3.5t2 -6t1.5 -6.5t0.5 -5
q0 -4 -1 -4.5t-4 -0.5t-4.5 2t-2.5 4t-1.5 5t-1.5 5q-1 1 -4.5 3t-9 4.5t-12 4.5t-12.5 4l-10.5 3.5l-7.5 2.5q-1 0 -5.5 1t-9.5 2t-9 2t-6 1l-3 2q-2 1 -5.5 1t-7.5 1t-7.5 1t-5.5 1h-2t-4 1l-4 2t-2 2q0 3 2.5 4t4.5 1q10 0 21 -2t21 -5q5 -1 9.5 -3t10.5 -2h4t3 3
q0 2 0.5 6t0.5 8t0.5 8t0.5 6v2q0 13 -1.5 27.5t-1.5 27.5q-1 2 -3 2h-3q-7 0 -13 -1t-11 -4t-7.5 -7.5t-3.5 -12.5q0 -2 -0.5 -7.5t-0.5 -11t-0.5 -10.5t-0.5 -7t-2.5 -3t-3.5 -1q-3 0 -4 1.5t-1 3.5v4v3v2q0 2 0.5 8.5t1.5 13t1.5 12.5t1.5 9zM59 112q0 2 1 4.5t4 2.5
q7 0 15 -2.5t15 -4.5q11 -3 22 -5.5t21.5 -5.5t21 -6.5t21.5 -7.5q7 -3 8 -9t1 -13q0 -4 -1 -5t-5 -1t-5.5 1.5t-1.5 4t-0.5 5t-2.5 5.5q-3 5 -13 9.5t-22.5 8t-26.5 6t-25.5 5t-19 4.5t-7.5 4zM62 73q0 5 5 5h1.5h0.5l3 -0.5t4 -1.5q15 -2 27 -5t23 -6.5t22.5 -8
t24.5 -10.5q1 -1 3 -1.5t2 -2.5q1 -3 2 -5t1.5 -4t0.5 -4v-5t-1 -6t-4 -3q-2 0 -4.5 2.5l-2.5 2.5q2 10 -1.5 14.5t-9 7t-12.5 4.5t-12 5q-1 1 -2.5 1.5l-1.5 0.5q-3 0 -9.5 1.5t-14.5 3l-16 3t-14.5 3.5t-10.5 4.5t-4 4.5z" />
</svg>
