<?xml version="1.0" standalone="no"?>
<!DOCTYPE svg PUBLIC "-//W3C//DTD SVG 1.1//EN" "http://www.w3.org/Graphics/SVG/1.1/DTD/svg11.dtd" >
<svg xmlns="http://www.w3.org/2000/svg" xmlns:xlink="http://www.w3.org/1999/xlink" version="1.1" viewBox="-10 0 266 256">
   <path fill="currentColor"
d="M159 246q1 0 2 1.5t2 1.5q1 1 3 -0.5t3.5 -3.5t2.5 -4t1 -3q0 -22 -1 -43.5t-1 -43.5h38l1.5 -1.5t2.5 -3.5h0.5h0.5l-1 -1q0 -2 -2 -2.5t-3.5 -0.5h-3.5h-2q-2 -1 -6 -1t-8.5 -0.5t-9 -0.5h-5.5v-26q0 -3 3.5 -4t7.5 -3.5t8 -7t4 -13.5q0 -12 -1.5 -23.5t-0.5 -23.5
q0 -1 -0.5 -2.5t-1.5 -3.5t-2 -3t-3 -1q-4 0 -5 2t-1 6q0 9 1 18t1 18v21q-4 5 -8.5 6t-9.5 1q-9 0 -13.5 -3.5t-7.5 -11.5q-1 -1 -1 -4.5t-0.5 -7t-0.5 -6.5v-5v-22q0 -5 -1.5 -7t-5.5 -2q-3 0 -3.5 2t-0.5 5v13t1 14l2 14t3 13q1 5 5 8.5t8.5 5.5t7.5 3t3 2v32h-38
q0 2 0.5 4.5t3.5 2.5h34v67q-2 4 -2 9v8v11zM64 221q12 0 22.5 1t21.5 1h6q2 -1 3 -2t1 -3q0 -3 -2.5 -3h-4.5q-3 0 -8 -0.5t-9.5 -1.5t-8 -1h-3.5v-20l1 -1q1 -1 3.5 -1t5 -1t5 -1.5t3.5 -0.5q2 0 4 -1t2 -4v-40q0 -3 -1 -3.5t-2 -0.5q-2 0 -3 1.5t-2 3.5v3.5v5.5v5.5v3.5
q0 3 -0.5 6.5t-2 7t-3.5 5.5t-6 2h-0.5h-0.5q-1 0 -1.5 -0.5l-0.5 -0.5v-44q0 -3 -1.5 -3.5t-2.5 -0.5q-2 0 -2.5 0.5l-1.5 1.5q0 1 -0.5 3t-0.5 4t-0.5 4.5t-0.5 3.5v54q0 3 -1 4.5t-5 1.5q-5 0 -9.5 -4t-4.5 -9v-46q0 -1 -1.5 -1h-2.5h-2t-1 1q-1 4 -1 7t-0.5 6t-0.5 6v5
v9.5t0.5 8.5t1 8.5t0.5 10.5q2 3 4 4.5t4 2t4.5 1t5.5 1.5zM39 132l0.5 1.5t1.5 1.5h2h2q2 0 7 -1t11.5 -2.5t13.5 -3.5t13.5 -4.5t10 -5t3.5 -4.5v-15l-3 -3q-3 1 -3.5 3.5t-1 5.5t-2 6t-4.5 5q-12 4 -24.5 7t-24.5 6q-1 0 -1.5 1t-0.5 2zM42 97q0 2 2.5 2h3.5q5 0 14 -2
t17.5 -5t15 -7.5t6.5 -9.5q0 -4 -3 -4h-2l-0.5 1t-1.5 2l-1.5 1.5t-1.5 0.5q-2 2 -6.5 4t-10 3.5t-11 3.5t-10 3.5t-8 3t-3.5 3.5zM41 59v1q1 3 2.5 4t4.5 1h1q2 0 4.5 -0.5l5 -1t4.5 -1t3 -0.5l1 -0.5t2 -1.5t2 -1.5l1 -0.5q1 0 4.5 -1t7.5 -1.5t7.5 -1t4.5 -0.5q5 -2 6 -6
t1 -8q0 -5 -3 -8t-7.5 -4.5t-9.5 -2.5t-8 -3l-1.5 -1.5t-3 -4t-3 -4t-3.5 -1.5t-2 1.5v2.5v4.5t0.5 4.5t1.5 4t3 3h7.5t8.5 1.5t7 3.5t3 7v2t-2 2q-11 3 -23 5t-24 3l-1.5 1.5l-1.5 1.5v1z" />
</svg>
