<?xml version="1.0" standalone="no"?>
<!DOCTYPE svg PUBLIC "-//W3C//DTD SVG 1.1//EN" "http://www.w3.org/Graphics/SVG/1.1/DTD/svg11.dtd" >
<svg xmlns="http://www.w3.org/2000/svg" xmlns:xlink="http://www.w3.org/1999/xlink" version="1.1" viewBox="-10 0 266 256">
   <path fill="currentColor"
d="M145 245q0 1 0.5 3.5t2.5 2.5q4 0 8.5 -7t9 -18t9 -24t8 -25t5.5 -21.5t2 -13.5q0 -5 -2 -8.5t-5.5 -5.5t-7.5 -3.5t-8 -2.5q-1 -5 -1.5 -8.5t-0.5 -7.5q0 -5 4 -7t9.5 -3t11.5 -1h12t9 -1.5t4 -4.5t-2.5 -3.5t-5.5 -0.5h-5.5t-6.5 1l-71 4l-3 3q1 1 2.5 2t2.5 1h28
l0.5 2t1.5 3v22q2 4 6 6t7.5 4.5t6 5.5t2.5 8q0 10 -2 17.5t-6 15.5q-4 12 -8 23.5t-8 23.5q-2 5 -5.5 8.5t-3.5 9.5zM52 153v1v1q0 4 0.5 10t1 11.5t0.5 9.5v5q2 13 6 20t10.5 10t16 3h21.5h3h5h5.5h2.5q3 -1 3.5 -2.5t0.5 -3.5q0 -3 -1.5 -3.5t-3.5 -0.5q-6 0 -12 0.5
t-12 0.5h-3t-3 -1q-1 -5 -1.5 -8.5t-0.5 -7.5t4 -6t8 -3.5t7.5 -4t3.5 -7.5v-37q0 -3 -2 -3.5t-4 -0.5v39q0 1 -1 2.5t-3 2.5t-3.5 1.5t-3.5 0.5q-1 0 -2.5 -0.5t-1.5 -2.5q1 -10 0.5 -20.5t-1.5 -20.5q-1 0 -1.5 -0.5l-0.5 -0.5v0h-1q-1 0 -3.5 2.5t-2.5 3.5v68q0 1 -1 1
h-2q-2 0 -5 -1.5t-5.5 -3.5t-4 -5t-1.5 -5v-40l-1.5 -2t-2.5 -3q0 -1 -1.5 -2.5t-2.5 -1.5q-3 1 -3.5 2.5t-0.5 2.5zM42 134q0 4 5 4t15.5 -1t21 -4t18.5 -7.5t8 -10.5v-3.5v-5t-1 -4t-3 -1.5h-2h-1q0 8 -3 12.5t-8 8t-11.5 5t-13 2t-12.5 1t-11 0.5q-2 0 -2 1.5v2.5z
M44 101q1 3 2.5 3.5t4.5 0.5t12 -2.5t18.5 -5.5t18 -6.5t11.5 -5.5q2 -2 2 -5v-5q0 -4 -0.5 -7t-6.5 -5q-4 1 -4 4t-0.5 6.5t-2.5 7t-10 5.5q-3 1 -8.5 2.5t-12 3t-12 3t-7.5 1.5zM51 68q0 2 0.5 2.5t3.5 0.5q5 0 15 -2.5t19.5 -6.5t16.5 -10.5t7 -14.5q0 -2 -3 -6.5t-7 -9
t-8 -8t-5 -3.5q0 7 1.5 11.5t3.5 7.5t3.5 5.5t1.5 4.5q0 6 -3.5 9.5t-9 5.5t-12 3t-12 2t-9 3t-3.5 6zM136 58v2t1 1h4h5.5h5.5h4h10h10t9.5 -0.5t11.5 -1.5q4 0 5 -1t1 -4q0 -2 -1 -4t-3 -2h-1l-1.5 0.5t-1.5 1.5q-1 0 -3.5 0.5t-3.5 0.5l-51 4q-1 0 -1 1v2z" />
</svg>
