<?xml version="1.0" standalone="no"?>
<!DOCTYPE svg PUBLIC "-//W3C//DTD SVG 1.1//EN" "http://www.w3.org/Graphics/SVG/1.1/DTD/svg11.dtd" >
<svg xmlns="http://www.w3.org/2000/svg" xmlns:xlink="http://www.w3.org/1999/xlink" version="1.1" viewBox="-10 0 266 256">
   <path fill="currentColor"
d="M140 142v17.5t2 16.5q1 4 4.5 6t7.5 3.5t7.5 2.5t3.5 3v56q0 3 1 3.5t3 0.5t4.5 -1t2.5 -4v-57q5 -1 9.5 -2.5t8 -4t6 -6.5t2.5 -10v-43l-1 -0.5t-1 -1.5l-1.5 -1l-1.5 -1q-3 1 -3.5 3t-0.5 4q0 3 1 6t1 6v1q0 2 -0.5 6.5t-1 9.5l-1 10t-1.5 6q-1 4 -4 6.5t-6 2.5
t-4.5 -2t-1.5 -5v-1v-2v-7.5t0.5 -11t0.5 -13.5v-13v-11v-7q1 -1 4 -1.5l3 -0.5q2 0 7 -0.5l10 -1l10 -1t7 -0.5q0 -1 1 -2t0.5 -1.5t-1.5 -2t-2 -1.5h-21q-3 2 -6 2h-5h-3h-2l-2 -2v-22l3 -1.5t6 -3.5l6 -4t4 -3q1 -6 2 -10t1 -7.5t0.5 -7t0.5 -8.5v-9q-1 -2 -2.5 -4.5
t-3.5 -2.5h-2q0 1 -0.5 2t-0.5 2v5.5v8.5v9v6q0 6 -2 9.5t-5.5 5.5t-8 2.5t-9.5 0.5h-6.5t-5.5 -3q-1 -9 -1.5 -19.5t0.5 -19.5q0 -6 -4 -6q-2 0 -3 1.5t-1.5 3t-0.5 3.5v3q0 10 0.5 19t1.5 19q1 4 4.5 5.5t7 2t6 1t2.5 1.5v24h-42q-3 0 -3 4q0 3 3 3h17h5t7 0.5l8 1t5 0.5
q0 1 0.5 6t0.5 10t0.5 9.5t0.5 6.5v2q0 10 -1 19.5t-1 18.5q-10 0 -14 -6t-5.5 -15t-1 -18t0.5 -16l-2 -1l-3 3v2v5v5v4zM50 158v4v4.5v4.5v2q0 10 2 15.5t6 8t10.5 3t16.5 2.5h2q3 0 5.5 -1t5.5 -1q6 0 11 1t11 1q3 0 4 -0.5t1 -3.5v-2q0 -2 -2 -2l-33 -3l-3 -4v-12
q0 -3 3 -4t7 -2t7.5 -3t5.5 -6q1 -4 1.5 -10t0.5 -10v-9q0 -3 -1.5 -3h-2.5h-3.5t-2.5 1v28q0 2 -1 3t-2.5 1.5t-3 0.5h-2.5h-3t-3 -2t-0.5 -7t-0.5 -10t-0.5 -10t-0.5 -7v0v-1q0 -3 3.5 -4t7.5 -2.5t7 -5t3 -10.5v-6q0 -1 -1 -1.5t-2 -0.5q-3 0 -3.5 2t-0.5 4v5t-2 4
q-6 3 -12.5 5t-13.5 3t-14 1h-12l-4.5 3t-1.5 5q11 0 20.5 -1t20.5 -1q0 8 -0.5 15.5t-1 15.5t-0.5 16v17q0 2 -3 2h-4q-5 0 -7.5 -2.5t-3.5 -6t-1.5 -8t-0.5 -8.5v-25q-1 -2 -1.5 -2h-1.5q-2 0 -3 0.5t-2 2.5v3v5v5v3zM43 94q0 3 2 4t4 1l1 -0.5l1 -0.5q1 0 2.5 -0.5l3 -1
l3 -1l1.5 -0.5h3h5h5h3q2 0 6.5 -1t9.5 -2.5t8.5 -3t3.5 -2.5v-20h-8v16l-2 2q-1 0 -3 0.5t-5 1l-6 1t-4 0.5t-4 0.5t-6.5 0.5t-6.5 0.5t-4 0.5l-2 0.5t-3.5 1l-3 1t-2.5 0.5l-1 0.5t-1 1.5v0zM102 41q0 6 -4.5 9t-11.5 4t-15.5 1.5t-15.5 1t-11.5 3t-4.5 6.5h2h3.5h3h2.5
q2 0 7 -0.5t10.5 -1t10.5 -1t7 -0.5q4 -2 9 -3.5t9.5 -4t7 -6t2.5 -9.5q0 -3 -2 -6t-3 -7q-3 -1 -6.5 -4t-7 -5.5t-7 -4.5t-6.5 -2q-5 0 -5 4t4 6.5t9 5.5t9 6.5t4 7.5z" />
</svg>
