<?xml version="1.0" standalone="no"?>
<!DOCTYPE svg PUBLIC "-//W3C//DTD SVG 1.1//EN" "http://www.w3.org/Graphics/SVG/1.1/DTD/svg11.dtd" >
<svg xmlns="http://www.w3.org/2000/svg" xmlns:xlink="http://www.w3.org/1999/xlink" version="1.1" viewBox="-10 0 266 256">
   <path fill="currentColor"
d="M161 242q1 3 1.5 6t3.5 3q2 0 3 -1t2 -4v-2.5v-3.5v-4v-2q0 -11 -1 -21t-1 -21h25l1 2l0.5 1.5t1 4l1 5t1.5 4.5q0 2 0.5 5.5t1 8t0.5 8v5.5q1 0 2 1.5t2 1.5v0h1q3 0 4.5 -2.5t1.5 -5.5q0 -7 -1.5 -15.5t-5.5 -14.5v-40q-2 -4 -2 -7v-8q0 -14 2 -29t2 -29v-1
q-1 0 -2 -1.5t-2 -1.5v0q-4 0 -5.5 2.5t-2.5 5.5v3.5t-0.5 5.5t-0.5 6v4t-1 1h-3h-1.5h-1.5h-3h-4.5t-4.5 -0.5l-2 -0.5l-2 -5v-27q0 -1 4.5 -2.5t10 -5.5t10 -10t4.5 -16q0 -7 -4.5 -11.5t-10.5 -7t-12.5 -3.5t-11.5 -1q-4 0 -5.5 0.5t-1.5 4.5q0 2 6 3.5t12.5 3t12 5
t5.5 10.5q0 3 -1.5 6t-4 5t-5.5 3t-6 1l-5 -4t-11 -9.5t-10.5 -10t-4.5 -6.5v-2v-3v-3v-2q0 -1 -0.5 -2.5l-1 -3l-1 -3l-0.5 -1.5h-3h-2t-2 1v5v5q0 7 2 12.5t5.5 9.5t8 7.5t8.5 9.5l0.5 1l0.5 1q0 4 -2.5 4.5t-5.5 0.5q-4 0 -7.5 -1.5l-7 -3t-7.5 -2.5t-8 -1v6l2 1.5t4.5 3
t5.5 2.5t4 1q2 1 5.5 1t7 0.5t7 0.5h4.5l2 1v51l-0.5 4t-1.5 6l-0.5 1.5l-0.5 1.5h-18q-2 -13 -1.5 -26t-1.5 -26q-1 -1 -2.5 -2t-2.5 -1q-3 0 -3 1v3v4v6.5t0.5 10.5t0.5 12.5v12.5t0.5 10.5t0.5 5.5v3q0 6 -1 15t-2 18.5t-2.5 18.5t-3.5 16q0 1 -0.5 4.5l-0.5 3.5q0 3 1 3
h2q3 0 5.5 -1t2.5 -3q2 -10 3 -19t0 -18q2 -3 4.5 -4t5.5 -1.5t6 0t6 0.5h1.5t0.5 1q1 1 1 3t0.5 4t0.5 4v3v36zM56 226h8t13 0.5t13 0.5h8h3q2 0 3.5 -0.5t1.5 -2.5v-3.5t-2 -1.5h-7t-5.5 -0.5t-5.5 -1.5t-6 -3l-0.5 -0.5t-0.5 -1.5l-0.5 -2.5l-0.5 -2.5v-5t2 -5q3 0 6 -1
l6 -2t5 -3t3 -6v-2.5t0.5 -6t0.5 -6v-3.5l1 -2t1 -3v-10v-10q-1 0 -2 -1.5l-1 -1.5h-0.5h-0.5q-3 0 -4.5 3t-1.5 8v11v11.5t-1.5 8.5t-5.5 3q-1 0 -3.5 -0.5t-2.5 -2.5v-42q0 -3 -1 -3.5t-2 -0.5q-3 0 -4.5 1.5t-2.5 4.5q1 7 1 16v18t-0.5 18.5t-1.5 17.5q0 2 -3 2h-3h-3
q-2 0 -2 -2q-1 -1 -1 -4t-0.5 -6.5t-1 -6t-0.5 -3.5v-2q0 -3 0.5 -7t1 -8.5l1 -9t0.5 -7.5l-2.5 -5t-4.5 -3q-2 0 -3 3t-2 8t-1 11v12v10v6v8t1.5 7.5t3.5 7t6 4.5zM139 182q0 -1 -0.5 -4t-0.5 -4v-4.5t0.5 -7t1.5 -6t3 -2.5h13l3 3v21q0 2 -2 3.5t-4.5 2t-5.5 0.5h-4
t-2 -0.5t-2 -1.5zM169 182v-23q0 -3 2.5 -4.5t5 -2t5.5 -0.5h4h3.5h2.5l3 3v27h-26zM169 138v-3q0 -3 0.5 -5l1 -4t2.5 -2h19q1 0 1.5 2.5t0.5 5.5v3v6q-1 0 -2.5 1.5t-2.5 1.5h-18l-2 -2v-2v-2zM94 92h-1q-2 1 -2.5 4l-1 6t-0.5 5.5t-1 3.5q-1 3 -4.5 5t-8 3.5t-9.5 2.5
t-9.5 2.5t-7 3.5t-2.5 6q4 0 12.5 -1t17 -3.5t15 -5.5t6.5 -7v-20q0 -1 -1.5 -3t-2.5 -2zM48 93q0 3 3 3h4q2 0 8.5 -1.5t13.5 -3.5t13.5 -3.5t7.5 -3.5q2 -3 2 -7v-7v-3.5v-4.5q-1 0 -3 -2t-2 -3h-1v0h-1l-3 19q0 2 -3.5 3t-8 2t-10 2t-10 2t-7.5 3t-3 5zM49 53q0 3 3 3.5
t4 0.5h5l1.5 -0.5l1.5 -0.5q5 -2 10.5 -3t10.5 -3.5t8.5 -6t3.5 -10.5v-6t-1 -8t-2.5 -7t-5.5 -3q-2 0 -3.5 1t-1.5 3q0 5 1 8.5t1 7.5q0 7 -5.5 10t-12.5 4.5t-12.5 3t-5.5 6.5z" />
</svg>
