<?xml version="1.0" standalone="no"?>
<!DOCTYPE svg PUBLIC "-//W3C//DTD SVG 1.1//EN" "http://www.w3.org/Graphics/SVG/1.1/DTD/svg11.dtd" >
<svg xmlns="http://www.w3.org/2000/svg" xmlns:xlink="http://www.w3.org/1999/xlink" version="1.1" viewBox="-10 0 266 256">
   <path fill="currentColor"
d="M127 208q0 12 1 20t3.5 13t9 7t18.5 3h2h4h4h3h3h3h4h3q2 -2 4.5 -4t4.5 -4.5t3.5 -5.5t1.5 -5v-59q0 -5 -2 -8t-5.5 -4.5t-7.5 -2.5t-7 -2t-5.5 -2t-2.5 -4q0 -5 2.5 -8.5t6.5 -5.5t8 -3l8 -2h4.5t7.5 -0.5t7.5 -0.5h4.5q0 -1 1.5 -2.5l1.5 -1.5q0 -1 0.5 -1h0.5
q0 -3 -2 -4t-4 -1q-8 0 -16 1.5t-16 1.5q0 -4 1 -8t2.5 -8l3 -8t1.5 -8q0 -2 -0.5 -3t-3.5 -2q-2 1 -4 5.5t-4 11t-3.5 13t-3.5 12t-4.5 9.5t-5.5 4q-2 0 -3.5 -2t-2.5 -4.5t-1.5 -5t-1.5 -3.5q-1 -2 -3 -6.5t-4 -10t-4 -10t-3 -5.5q-1 -3 -2 -4t-3 -1q-3 0 -3.5 2t-0.5 4
q0 4 1.5 8t3.5 7.5t3.5 7t2.5 7.5h-27q-2 0 -2.5 1t-0.5 3q0 1 0.5 2.5t1.5 1.5h33l1.5 1t3 2.5t2.5 3.5t2 3v1v2q0 7 -4 9t-8.5 2.5t-8.5 2t-5 7.5q-2 11 -2.5 20.5t-0.5 20.5zM38 174v3v1t0.5 2.5t0.5 2.5v1q1 15 2 26t4.5 18.5t12 11t24.5 3.5q8 0 17 -2t16 -4q1 0 1 -2
v-2q0 -3 -1 -4t-3 -1q-7 0 -13 2t-13 2h-3.5t-2.5 -2q-1 -1 -1 -5v-4q0 -12 3.5 -17.5t8 -8.5t8 -6t3.5 -11v-5t-0.5 -6.5t-1.5 -6t-3 -2.5h-2.5t-1.5 2v21l-0.5 1.5t-1 2t-1.5 2t-2.5 3t-3 2.5t-1.5 2h-1h-1q0 -1 -0.5 -2t-0.5 -2l-0.5 -2t-1 -4.5t-0.5 -5v-3.5v-1v-1v-4.5
t0.5 -7t1 -6.5t0.5 -5q0 -1 2.5 -2.5t5 -4.5t4 -6t1.5 -6v-28q3 -5 5 -9.5t2 -9.5q0 -3 -1 -5.5t-4 -2.5q-2 0 -4 3.5t-5 8t-6.5 8.5t-8.5 5l-30 4q-1 0 -3 1.5t-2 3.5q1 4 3 4.5t5 0.5q4 0 8.5 -1t8.5 -2.5t8 -2t9 -0.5q2 0 3.5 1t1.5 3v4v4q0 8 -3 12.5t-8 6.5t-11 2h-11
t-9.5 1.5t-6.5 4.5q1 4 3 4h4q6 0 11 -2t11 -2q1 0 3.5 0.5t2.5 1.5v74q0 5 -1 5.5t-4 0.5t-5 -2t-3.5 -4.5t-2.5 -6t-2 -6.5q0 -3 -0.5 -8.5t-1 -11.5l-1 -12t-0.5 -8t-2 -2h-3q-3 0 -4 0.5t-1 4.5zM136 213q0 -2 0.5 -4.5t3.5 -3.5q9 -2 16 -2h15h16q3 1 3 4v5
q0 17 -6 23.5t-21 6.5h-2t-3.5 -0.5t-3.5 -0.5h-2q-8 -4 -12 -11t-4 -17zM137 194q-1 -1 -1 -3v-4q0 -9 5.5 -14.5t12.5 -8.5q1 0 2.5 -0.5t2.5 -0.5h4h2q5 0 10 1t8 3.5t5 7t2 11.5q0 4 -1 5.5t-4 2.5q-9 0 -19.5 1t-20.5 1h-4q-3 0 -4 -2zM139 67q6 0 9 4.5t5.5 9.5t5 9.5
t5.5 4.5t3.5 -2.5t1.5 -4.5q1 -1 2.5 -3.5t2.5 -6t2 -6t2 -3.5q1 0 2.5 -0.5l3 -1t3 -0.5h1.5q2 0 6 -0.5t9 -1t9 -0.5h6t2 -2v-3q0 -4 -2 -4.5t-5 -0.5q-7 0 -14.5 1t-14.5 1q0 -4 1.5 -7.5t3 -7.5t2.5 -8t1 -8q0 -2 -0.5 -3.5t-3.5 -1.5q-1 0 -2 0.5l-3 1.5q0 1 -0.5 3.5
t-1.5 4.5l-2 4t-1 3q-1 3 -2.5 9.5t-3.5 13t-4.5 12t-4.5 5.5q-3 0 -5 -2.5t-3.5 -6t-3 -7.5t-2.5 -7q-2 -3 -2.5 -8t-2 -9.5t-4 -8t-7.5 -3.5q0 7 2 14t2 14q0 2 -1 3.5t-3 1.5l-19 4q-1 0 -1.5 1l-0.5 1v1v0v1l0.5 1t1.5 1h3.5h3.5q5 0 9 -1t9 -1zM41 68v3v3q0 1 1 2.5
l1 1.5h28q7 0 12.5 -4t8.5 -10.5t4.5 -13.5t1.5 -14q0 -4 -2.5 -9.5t-5.5 -8.5q-4 -2 -6.5 -3l-5 -2t-5 -1h-5.5h-5t-3 3t3 4.5t7 2.5t7.5 2.5t5.5 4.5t3.5 8.5t1.5 9.5v1.5v1.5q0 1 -1 3.5t-2.5 5t-2 4.5t-1.5 2l-3 3h-37z" />
</svg>
