<?xml version="1.0" standalone="no"?>
<!DOCTYPE svg PUBLIC "-//W3C//DTD SVG 1.1//EN" "http://www.w3.org/Graphics/SVG/1.1/DTD/svg11.dtd" >
<svg xmlns="http://www.w3.org/2000/svg" xmlns:xlink="http://www.w3.org/1999/xlink" version="1.1" viewBox="-10 0 266 256">
   <path fill="currentColor"
d="M156 100q0 25 -0.5 49.5t-1.5 49.5q-1 13 -2.5 25.5t-1.5 24.5q4 0 6 -1t3 -4q2 -19 2.5 -38l1 -38t0.5 -38t1 -37q2 -3 5.5 -5t7 -3l7 -2t6.5 -1t4.5 1.5t2 3.5t1 4.5t0.5 4.5v5v8v8v5v2.5t0.5 5t0.5 5v2.5v5.5v9.5v12v10q0 16 -0.5 31.5t-0.5 31.5v5q0 1 1 1.5t2 0.5
q3 0 4.5 -2.5t2.5 -4.5q-1 -6 -0.5 -11t1 -9.5t0.5 -9v-10.5v-1v-3t-0.5 -5t-0.5 -5v-3v-7v-13v-16v-16v-13v-7q0 -1 -0.5 -4.5t-0.5 -7.5t-0.5 -7.5t-0.5 -4.5q-2 -2 -3 -6t-1 -7q0 -5 2 -9.5t2 -8.5t-0.5 -6t-1.5 -4t-3 -3.5t-5 -3.5q-1 0 -4.5 -0.5t-6.5 -0.5t-6.5 -0.5
t-4.5 -0.5h-3.5h-3.5v-17q0 -1 -2.5 -1.5t-5 -0.5h-2.5v16l-3 3h-3.5h-5.5h-5.5h-3.5q-3 0 -5 1t-2 4v2.5t2 1.5h26v3.5t-0.5 5t-1 4.5t-3.5 2h-35q-1 0 -1.5 1.5t-0.5 2.5t0.5 2t1.5 1h6h9h9.5h5.5t4.5 0.5t4.5 1.5v6v3q0 2 -0.5 5t-1.5 3h-34v1v1q1 0 1.5 1.5l0.5 1.5
q4 1 9 1t9.5 0.5t9 1.5t6.5 3v5zM47 172v9v8t0.5 8.5t1.5 9.5q0 8 4 11t9 4.5t11 1.5t11 1q5 0 10.5 1.5t10.5 1.5q3 0 4.5 -0.5t1.5 -3.5q0 -2 -0.5 -4.5t-3.5 -2.5h-25q-1 0 -1.5 -1.5t-1 -3.5l-1 -4l-0.5 -2q0 -5 3.5 -7t7.5 -2.5t8 -1.5t5 -4q1 -11 1.5 -21t0.5 -20
q-2 0 -4 1t-3 3v5.5t-0.5 7.5l-1 8t-0.5 5q-1 9 -9 9q-3 0 -3.5 -1t-0.5 -4v-36l-2 -4q-3 3 -5 7q0 8 -0.5 15t-1.5 14t-1.5 14t0.5 15l-2 4t-3 2q-1 0 -3 -1t-4 -2.5t-3 -3.5t-1 -4v-39q0 -3 -1.5 -3.5t-3.5 -0.5h-2.5t-1.5 2v9zM140 161q-1 0 -5 5t-8.5 11t-8.5 11.5
t-4 7.5h6q1 0 2 -1l2.5 -2.5t3.5 -3t3 -2.5t3 -4.5t4.5 -7t4 -7.5t1.5 -5q0 -2 -1.5 -2h-2.5zM169 160q0 2 2.5 7t6 10.5t6.5 9.5t4 4q3 0 4 -1.5t1 -4.5v-1l-10 -16t-12 -12q-2 1 -2 2v2zM48 144q0 2 1.5 3t3.5 1q3 0 9.5 -2.5t14 -5.5t14.5 -6.5t10 -4.5v-2.5t0.5 -3.5
t0.5 -4v-2v-2q0 -3 -1.5 -5t-4.5 -2q-1 0 -1.5 2t-1.5 5t-2.5 5.5t-3.5 4.5q-1 1 -3 2.5t-4 2.5l-4 2t-2 2q-2 0 -5.5 1.5t-7.5 3t-7.5 2.5t-4.5 1q0 1 -0.5 1.5zM119 136v3q3 0 8 -2.5t9 -7t7 -9t3 -8.5q-4 0 -8 2.5t-7 6.5t-6 7.5t-6 7.5zM174 115q0 2 1.5 5.5t3.5 7
t4.5 6t4.5 2.5t3.5 -1t1.5 -3q0 -3 -2 -6.5t-5 -6t-6.5 -5t-5.5 -3.5v4zM52 114v1l0.5 0.5l1.5 1.5h1v0q11 -3 23 -8t23 -11v-6q0 -4 -0.5 -7t-1.5 -6h-2q-3 0 -3.5 1.5t0 4t0.5 4.5t-2 4q-1 0 -3.5 1.5t-6 3t-6.5 3t-4 2.5q-2 1 -5 1.5t-6.5 2t-6 3t-2.5 4.5zM53 82
q0 2 1 3t4 1q5 0 12 -2.5t13.5 -6t12.5 -7.5t11 -7v-17q0 -3 -3.5 -5t-8 -3.5t-8.5 -3.5t-5 -5q0 -1 -0.5 -3.5t-1 -6t-2 -5.5t-4.5 -2v0l-2 1v6v4v5t0.5 5t1.5 3q1 3 5 5t8.5 4t8 4.5t3.5 5.5q0 5 -3.5 8t-8.5 5t-11 3t-11 2t-8.5 3t-3.5 6zM164 74q0 -5 2.5 -6t6.5 -1
q3 0 7 1t4 6q0 2 -2 3t-5 2t-5.5 1.5t-4.5 0.5t-2.5 -2t-0.5 -5zM166 58q-2 0 -2 -1v-2q0 -3 1 -7t4 -5h7h4t6.5 0.5t6.5 2t3 4.5v12q0 1 -2 1h-2q-7 0 -13 -2.5t-13 -2.5z" />
</svg>
