<?xml version="1.0" standalone="no"?>
<!DOCTYPE svg PUBLIC "-//W3C//DTD SVG 1.1//EN" "http://www.w3.org/Graphics/SVG/1.1/DTD/svg11.dtd" >
<svg xmlns="http://www.w3.org/2000/svg" xmlns:xlink="http://www.w3.org/1999/xlink" version="1.1" viewBox="-10 0 266 256">
   <path fill="currentColor"
d="M113 246v1q0 1 1 2l2 2q4 -3 7.5 -11.5t6.5 -21t5 -26.5t3.5 -27.5t2 -24t-0.5 -14.5q5 -4 9.5 -4.5t9.5 -0.5q0 1 0.5 2.5t1 3.5t0.5 3.5v2.5q-1 7 -3 13l-4 12t-3.5 12.5t-1.5 14.5v4t1 6t2.5 5.5t3.5 2.5h20l3 -8q1 -2 1 -8t1 -13t1.5 -13t0.5 -9l0.5 -1.5t0.5 -3
t0.5 -2.5t0.5 -2t-1.5 -2.5l-2.5 -2.5l-3 4q0 2 -0.5 6.5t-1 10t-1 10.5t-1.5 6v5t-1 6t-2 5t-2 3h-2h-3q-6 0 -7 -2.5t-1 -8.5q0 -2 1 -7.5t2.5 -13.5t4 -16.5t4.5 -16t3.5 -12.5t2.5 -6q4 -2 7 -2h7h3t2 1l2 1v54q0 1 1 5t1 5q0 3 0.5 10t1 14.5t1 14.5t0.5 10q2 2 2.5 6
t1 7t1.5 6t4 3q4 0 5.5 -2.5t1.5 -6.5v-2q-6 -20 -9.5 -40.5t-6.5 -40.5v-2v-3q0 -10 2.5 -19t2.5 -18v-2.5t-1 -3l-2 -3t-2 -1.5h-29v-16q0 -2 4.5 -2.5t10 -1t10 -2.5t4.5 -6v-38q0 -5 -2.5 -10t-6.5 -8h-4h-5q-5 0 -10.5 0.5t-11 1.5t-10.5 2t-10 1q-5 1 -6.5 4l-3.5 7v3
v3.5v3.5v3q0 3 -0.5 9t0.5 11.5t2.5 10t5.5 5.5h3t4 0.5t4 0.5h3h2h3h3.5h2.5v22q0 3 -2.5 5t-6 3.5t-6.5 2t-5 0.5q-1 0 -2.5 -2t-3 -4.5t-4 -4.5t-5.5 -4q-1 1 -1.5 2.5t-0.5 2.5q0 2 1.5 3.5t2.5 3l2 3t1 3.5v2.5t-1 1.5t-4 2.5t-6 3.5t-5.5 4t-3.5 2v4q2 0 4 -1t4 -2.5
t4 -2.5t4 -1h1l0.5 0.5t1.5 0.5v20q0 16 -2.5 30.5t-6.5 30.5q-1 3 -2.5 7t-3.5 8.5t-3 8.5t-1 7zM42 167v2q1 3 1.5 10l1 14t1 12.5l0.5 5.5q1 11 4 16.5t8 7.5t12.5 2h17.5h2h4q3 0 4.5 -0.5t2.5 -0.5t1 -1v-2v-3t-1 -2h-17q-2 0 -3 -1.5t-1.5 -4t-1 -4.5t-0.5 -3
q0 -5 2 -8t4.5 -4.5t5 -2.5t5.5 -1.5t4.5 -2t1.5 -4.5v-43h-6v30q0 3 -1 5.5t-2.5 5t-3.5 4t-5 1.5h-3q0 -6 -0.5 -11t-0.5 -9.5t-0.5 -9t-0.5 -10.5v-2q0 -2 0.5 -4t0.5 -3v-3q2 -3 6 -5t7.5 -4t6 -4.5t2.5 -8.5q0 -3 -1 -6.5t-5 -3.5v0h-1q-1 11 -5 16t-10 7t-13 2
t-12.5 0.5t-9.5 2.5t-4 8q6 0 12 -2t12 -2h4q2 6 2.5 11l1 10t0.5 9v11q0 11 -0.5 20t-1.5 20q0 1 -1 1.5t-2 0.5h-3h-1q-5 0 -7.5 -5t-3 -12.5t0 -16t0.5 -16t-0.5 -12t-3.5 -4.5q-2 0 -4.5 2.5t-2.5 4.5zM46 110q0 2 2 3.5t5 1.5q2 0 8.5 -1.5t14 -4t13.5 -5t8 -4.5
q2 -1 2 -5v-6v-4v-4q-3 -4 -8 -4v18q0 2 -4 3.5t-9 2.5l-10 2t-7 1q-1 0 -3 0.5t-4.5 1t-4.5 1.5t-3 1v0.5v1.5zM87 57q0 5 -3 7.5t-7.5 4t-9.5 2.5t-9.5 2t-7.5 3t-3 6q5 0 13.5 -1t16.5 -3.5t13.5 -8t5.5 -14.5q0 -3 -1 -6t-2 -5.5t-2 -5.5t-1 -6q0 -6 1.5 -10t1.5 -10
q-3 0 -5 1.5t-3.5 4t-2 5.5t-0.5 6q0 7 2.5 14t2.5 14zM140 66v-3v-4q5 -1 8 -1.5t7 -0.5q5 0 6.5 3.5t1.5 8.5v1q0 2 -0.5 3.5t-0.5 2.5t-1 1h-17q-2 0 -2.5 -1.5t-1 -3.5t-0.5 -4v-2zM169 61q0 -3 2.5 -4.5t6 -2t6.5 -0.5h5h2q0 1 0.5 2.5l1 3t0.5 3v2.5v1q0 3 -1.5 5
t-4.5 3t-6 1.5t-5 0.5q-3 0 -4.5 -1.5t-2 -3.5t-0.5 -5v-5zM137 45q-1 -4 0.5 -7.5t4.5 -6t6.5 -3.5t7.5 -1h1.5t1.5 2v18q0 1 -2 2t-4.5 1.5t-4.5 0.5h-3q-3 0 -5.5 -0.5t-2.5 -5.5zM169 31l5 -6h14q2 0 2.5 1t1 2.5t0 3t-0.5 2.5v5.5t-1 5.5q-1 0 -3 0.5t-4.5 1l-5 1
t-3.5 1.5h-1q-1 0 -2.5 -0.5t-1.5 -1.5v-16z" />
</svg>
