<?xml version="1.0" standalone="no"?>
<!DOCTYPE svg PUBLIC "-//W3C//DTD SVG 1.1//EN" "http://www.w3.org/Graphics/SVG/1.1/DTD/svg11.dtd" >
<svg xmlns="http://www.w3.org/2000/svg" xmlns:xlink="http://www.w3.org/1999/xlink" version="1.1" viewBox="-10 0 266 256">
   <path fill="currentColor"
d="M179 223q0 4 2.5 9t6.5 9t9 7t10 3q2 0 3 -0.5t1 -3.5v-3t-1 -3q-3 -1 -6.5 -3t-7 -4.5t-6.5 -6t-3 -6.5q0 -4 1.5 -7t4 -5.5t5.5 -4.5t5 -5l0.5 -1.5l0.5 -1.5q0 -4 -3 -6.5t-6.5 -4.5t-6 -4.5t-2.5 -6.5q0 -2 1.5 -3t4 -1.5l5 -1t3.5 -1.5q3 -2 4 -4.5t0.5 -5t-1 -5.5
t0.5 -5t3 -3.5t8 -2.5v-4h-42l-0.5 -1l-0.5 -1v-2v-3l-0.5 -3t1.5 -3q5 -1 10.5 -1.5t11 -2.5t9 -6t3.5 -10q0 -5 -0.5 -8.5t-1.5 -8.5q0 -2 -1 -2h-2q-5 0 -6 3h-24v-14l1 -2q1 0 3.5 -1t6.5 -2t6 -2q5 -1 7 -2t3.5 -2.5t2.5 -4l3 -7.5q1 -1 2.5 -1.5l3 -1l3 -1t1.5 -2.5
v-0.5v-1.5q-6 -1 -8 -2.5t-3.5 -4t-3 -4.5t-4.5 -3q-1 0 -3 -0.5t-4.5 -0.5t-4.5 -0.5t-3 -0.5q-2 0 -5 -0.5t-3 -1.5v-12l-2.5 -0.5t-3.5 -1.5h-1h-1q0 1 -0.5 2l-0.5 1q0 1 -0.5 3t-0.5 4t-0.5 3.5t-0.5 2.5q-8 0 -14.5 2.5t-11.5 8.5q0 1 -0.5 2.5l-0.5 1.5l-1.5 0.5
l-3 1l-3 1t-2.5 0.5l-0.5 0.5l-0.5 0.5v1v1v0l1 1t2 1q6 2 7 4t1.5 4.5t1.5 4.5t6 3q1 0 3.5 0.5t5.5 1t5 1t4 0.5l3 3v16l-16 2l-2.5 -2.5l-2.5 -2.5q-1 0 -2.5 1t-2.5 3l-2 4l-1 2l0.5 2l0.5 2q1 1 1.5 2t0.5 2v4.5v5t1 4t4 2.5q1 0 3.5 0.5t5.5 1t5 1t4 0.5l3 3v15
q0 1 -4 2.5t-8.5 4t-8 7t-3.5 9.5q0 3 0.5 5.5t1.5 5l2 5t1 5.5t-1 4.5t-2.5 3t-3 2.5t-2 3.5t-2.5 7.5t-4 11t-3.5 11.5t-2.5 7.5q0 2 1 2.5t2 0.5q4 0 6 -3t3.5 -8t2.5 -10.5t2.5 -10.5t3.5 -8.5t6 -3.5q2 0 4 1.5t4 3.5l3.5 3.5t4.5 1.5q1 0 3 -0.5t2 -2.5q0 -3 -2 -4.5
t-4.5 -3t-4.5 -3t-2 -5.5q0 -2 1 -3.5t3 -2.5t4 -1h3q4 0 7.5 1.5t6.5 4.5t5 6.5t2 6.5q0 1 -1.5 4t-3.5 6.5t-4 6.5t-3 3v3v3zM57 152v21t2.5 20t9 15t19.5 6h7t9.5 -1t8 -2t3.5 -4v-2t-2 -2h-23q-1 0 -1.5 -1l-0.5 -1v-5q0 -4 2 -6t5.5 -3t6.5 -2.5t5 -4.5q2 -8 3.5 -17.5
t1.5 -18.5q0 -3 -1 -6t-4 -5l-3 4v4v7v6.5v4.5t-0.5 3.5t-1 5.5t-2 5.5t-2.5 3.5q-1 0 -4 -0.5t-4 -0.5v-38q0 -6 -8 -6v67q0 1 -1 2t-3 2v0q-1 0 -3.5 -2.5l-5 -5t-4.5 -5.5t-2 -4v-40l-0.5 -1.5t-1.5 -1.5h-0.5h-0.5h-0.5h-0.5l-1 1.5t-2 1.5v6zM146 164q0 -3 2 -5.5t5 -5
t6 -4t5 -1.5l1 2.5t2 5.5l2 6l1 3q0 3 -1.5 4.5t-4 3t-5 2t-4.5 0.5q-4 0 -6.5 -4t-2.5 -7zM175 154q0 -10 10 -10q5 0 8.5 3.5t3.5 9.5q0 1 -2 2.5t-5 3t-6 2t-5 0.5q-1 0 -2 -1t-1.5 -3t-0.5 -4v-3zM106 96q-3 0 -3.5 1.5t-1 4t-0.5 4.5t-1 3q-3 4 -8 6t-11.5 3l-13 2
t-12 2t-8.5 3.5t-3 7.5q2 0 7.5 -1t12.5 -2t14 -2.5t13.5 -3.5t11 -4.5t5.5 -5.5q1 -2 1.5 -4.5t0.5 -5.5q0 -2 -0.5 -5t-3.5 -3zM186 98h8l3 3t2 4q0 3 -2.5 5t-6 3.5t-6.5 2t-5 0.5h-1.5h-2.5t-2 -0.5t-1 -1.5v-15l2.5 -0.5t3.5 -0.5h8zM148 112q-2 -1 -2 -2v-3q0 -3 2 -5
t4.5 -3t5.5 -1.5t6 -0.5v15q0 2 -1.5 2h-2.5q-3 0 -5.5 -0.5t-6.5 -1.5zM48 98v2t1 1h7q6 0 15 -0.5t15 -2.5q1 0 2.5 -1t3.5 -2l4 -2t3 -2h2h2t2 -0.5t1 -2.5q2 -2 2 -5.5v-6.5v-4.5t-3 -2.5t-3.5 1t-1 2.5t0 3t-0.5 3.5q-2 4 -8.5 7t-14.5 5t-15.5 3t-12.5 1q-1 0 -1 1v2z
M51 75q0 1 2 2.5t3 1.5q6 0 14 -1.5t16 -4.5t14.5 -7.5t9.5 -10.5q-1 -9 -3 -13t-5 -6t-6.5 -2t-6 -1t-4.5 -2.5t-2 -7.5v-1v-1t0.5 -2t0.5 -2v-1v-1v-1q-1 -2 -3.5 -2.5t-4.5 -0.5q-3 0 -3 3.5v4.5q0 11 4 15.5t9.5 6.5t9.5 3t4 5q0 5 -4 9t-8 5l-34 8l-1.5 1t-1.5 2v1z
M145 58q0 -1 0.5 -2.5t0.5 -2.5t1 -1.5l1 -0.5h13q2 0 2.5 2.5t0.5 4.5q0 3 -1 4t-4 1q-1 0 -3 -0.5t-4.5 -1t-4.5 -1.5t-2 -2zM172 58v-3t1 -2h21l0.5 0.5l1.5 1.5v0q0 3 -2.5 4.5t-5.5 2l-6 1t-5 0.5q-3 0 -4 -0.5t-1 -4.5zM156 35q2 0 5 0.5t3 4.5q0 1 -0.5 2t-1.5 1h-17
q0 -5 3.5 -6.5t7.5 -1.5zM172 41v-0.5v-0.5l0.5 -2t0.5 -3h7h4.5t4.5 1t4 2.5t2 4.5h-22l-0.5 -0.5l-0.5 -0.5v-0.5v-0.5z" />
</svg>
