<?xml version="1.0" standalone="no"?>
<!DOCTYPE svg PUBLIC "-//W3C//DTD SVG 1.1//EN" "http://www.w3.org/Graphics/SVG/1.1/DTD/svg11.dtd" >
<svg xmlns="http://www.w3.org/2000/svg" xmlns:xlink="http://www.w3.org/1999/xlink" version="1.1" viewBox="-10 0 266 256">
   <path fill="currentColor"
d="M116 245q0 2 0.5 4t3.5 2t5 -2.5t2 -5.5v-38.5t0.5 -36.5t1.5 -36.5t2 -38.5q0 -11 2.5 -17.5t6.5 -10.5t9 -5.5t11.5 -2t14.5 -1t16 -1.5q5 -4 6.5 -8t1.5 -10q0 -5 -2.5 -9.5t-8.5 -4.5h-2q-1 0 -5.5 0.5t-10.5 0.5t-10.5 0.5t-5.5 0.5q-2 0 -7.5 0.5t-11 1.5t-10 2
t-4.5 3l0.5 1.5l0.5 1.5h9q10 0 20 -1.5t21 -1.5h3h3h4h3q3 1 4 2.5t1 5.5q0 3 -0.5 5t-4.5 3q-16 1 -27.5 2t-19 5t-11.5 13t-5 25v8t-0.5 14.5t-1 18t-0.5 17.5t-0.5 14.5t-0.5 8.5v8v12v13v8q0 8 -1.5 15.5t-1.5 14.5zM165 195q2 0 3.5 0.5t1.5 2.5v48q0 2 1.5 2h1.5
q3 0 4 -1.5t1 -3.5v-31q0 -2 0.5 -4t0.5 -4t0.5 -4l0.5 -2l2 -2h29l1 -1.5t1 -2.5l-2 -2t-2 -1h-29q-1 0 -1 -2t-0.5 -4t-0.5 -4v-3v-3.5t2 -3.5q5 -1 10.5 -3.5t8.5 -6.5q2 -6 2 -10.5v-9.5q0 -3 -0.5 -5.5t-4.5 -2.5q-3 0 -3 4v9t-1.5 9t-7.5 4h-1h-2t-2 -0.5t-1 -1.5v-23
l-0.5 -0.5l-0.5 -0.5q-1 -1 -2 -1.5t-2 -0.5l-1.5 1.5l-1.5 1.5q1 7 0.5 13.5t-1.5 13.5l-3 1.5t-3 0.5q-5 0 -7.5 -4.5t-3 -10t-1 -10t-1.5 -4.5q-3 0 -4 2.5t-1 4.5q0 5 0.5 9t1.5 9q1 4 4.5 6t8 3.5t7.5 2t3 2.5v16l-3 2h-5t-6.5 0.5t-7 0.5h-4.5q-3 1 -4 1t-1 2q0 4 3 4
h2q1 0 4 -0.5l6 -1t6 -0.5h3h2zM52 207q1 4 6 5.5t12 2t13 0.5h9q5 0 8.5 -0.5t7.5 -2.5l-1 -1t-2.5 -2t-3 -1.5l-1.5 -0.5h-3.5h-5.5h-4.5h-3.5l-1 -2v-15q0 -3 2 -4t5 -1.5t6.5 -1t4.5 -3.5q2 -4 2.5 -9t0.5 -10v-11v-10q0 -2 -1.5 -3t-3.5 -1h-2t-2 1q0 1 0.5 4t0.5 6
q0 2 -0.5 4.5t-0.5 3.5v6t-1 8t-3 7t-5 3q-1 0 -2 -0.5t-1 -1.5v-45l-2.5 -1.5l-2.5 -1.5q-1 0 -1.5 1.5l-0.5 1.5q-2 16 -1.5 31t-0.5 30q0 6 -0.5 9t-5.5 3q-3 0 -5 -1.5t-2 -5.5v-44v-2.5t-0.5 -3.5t-1.5 -3t-2 -1q-2 0 -3 0.5t-3 2.5v4v4.5v4.5v4v11t0.5 10t0.5 10t1 12
zM45 130q0 1 0.5 2.5t2.5 1.5q3 0 5.5 -1t5.5 -2.5l6 -3t5 -1.5q6 -2 11.5 -3t9.5 -2.5t6.5 -5t2.5 -10.5v-3.5v-3.5t-0.5 -1.5t-1.5 -0.5q-2 0 -5 -0.5l-3 -0.5v14q0 2 -3 3.5t-8 3t-11 3t-11 3t-8.5 3.5t-3.5 5zM169 121h2h2q1 0 2 -0.5t1 -1.5v-13h1.5h2.5q5 1 9 4t7 6
t7 5t10 2q0 -4 -2.5 -7t-6.5 -5t-9 -4t-9 -4t-7 -4.5t-3 -7.5q0 -2 0.5 -4.5t3.5 -3.5q2 0 4.5 1.5t5.5 4t6.5 4.5t6.5 2q2 0 4.5 -1t2.5 -4l-4.5 -2t-10.5 -5t-11.5 -5t-6.5 -3q-2 -1 -2.5 -2.5t-1 -3.5t-1.5 -3t-3 -1v0q-2 1 -2.5 2.5t-0.5 3t0.5 3t0.5 2.5q-1 4 -5 6
t-8.5 4t-8 4.5t-3.5 6.5v1v1q2 0 4.5 -1.5t5.5 -3.5t6 -3.5t5 -1.5q3 0 3.5 2t0.5 4v4t-2 2q-1 0 -3.5 1.5t-5 3.5t-5 3.5l-2.5 1.5q-1 1 -2.5 2t-2.5 2.5t-2 2.5l-1 1v2h6l13 -10q2 -1 2.5 -1.5t1.5 -0.5t2 0.5t3 0.5v11zM49 94q0 2 3 2h1h1l1.5 -0.5l3 -1l3 -1t2.5 -0.5
q3 -1 9.5 -2t12.5 -3t10.5 -5.5t4.5 -9.5t-2 -10t-9 -4v2.5v3.5v4v2q0 1 -1 3.5t-2 3.5l-35 10q-1 0 -2 2t-1 3v1zM50 53q0 1 1 1.5l1 0.5h3.5h3.5q10 0 21 -4t20 -8q3 -2 3 -4.5v-5.5t-0.5 -6.5t-2 -6.5t-4 -5t-5.5 -2q-2 0 -3.5 1t-1.5 4q0 1 1 1l0.5 1.5t1.5 3.5t1.5 4
l0.5 2q1 0 1 1v2q0 4 -3 6t-8 3t-10 1.5t-9.5 1.5t-8 3t-3.5 5z" />
</svg>
