<?xml version="1.0" standalone="no"?>
<!DOCTYPE svg PUBLIC "-//W3C//DTD SVG 1.1//EN" "http://www.w3.org/Graphics/SVG/1.1/DTD/svg11.dtd" >
<svg xmlns="http://www.w3.org/2000/svg" xmlns:xlink="http://www.w3.org/1999/xlink" version="1.1" viewBox="-10 0 266 256">
   <path fill="currentColor"
d="M125 243q0 2 1.5 5t3.5 3h2.5t1.5 -2t0.5 -7t0.5 -10.5t0.5 -10t0.5 -6.5q0 -1 0.5 -4.5t0.5 -4.5l1.5 -2.5t2.5 -2.5h15q2 0 2.5 -2t0.5 -3v-0.5v-0.5l-1.5 -0.5t-3.5 -0.5t-3.5 -0.5t-2.5 -0.5t-2.5 -1t-1.5 -3q0 -5 3.5 -9.5t7.5 -6.5v-0.5v-1.5q0 -2 -1 -2.5t-3 -0.5
q-4 0 -5.5 2.5t-3 5.5t-3.5 5.5t-5 2.5q-1 0 -1.5 -1l-1 -2t-0.5 -3v-2q0 -5 2.5 -9.5t6 -7.5t6 -5.5t2.5 -3.5q0 -2 -1.5 -2h-1.5q-4 0 -7 2t-5 5l-4 6t-4 5v18l1 1.5t2 2.5q2 3 2.5 3.5t1 1.5t1 1.5t0.5 2.5q0 3 -1 6t-2 6.5t-2 6.5t-2 5v2v4v4v3v1.5t-0.5 3t-0.5 3v1.5z
M188 199q3 0 4.5 4t2 9.5t0 12.5t0 12.5t1.5 9.5t4 4q4 0 5 -3.5t1 -6.5q0 -6 -1 -12l-2 -12l-2 -12t-1 -12q0 -2 1 -4l2 -4l2 -4t1 -5q0 -8 -3 -13.5t-7.5 -9t-11 -5t-13.5 -1.5q0 4 4 5.5t9 3.5t9 6t4 12v2.5v2.5l-2 2l-1 1h-1h-1q-4 -6 -9.5 -10t-13.5 -4h-2q2 4 5 6.5
t6 4.5t5.5 4t2.5 6v1q-1 2 -3.5 2.5t-5 1.5t-4 1.5t-1.5 2.5q0 3 2 3h4q3 0 5.5 -1t4.5 -1zM50 147v3v4.5t0.5 6.5t0.5 6v4q1 4 1.5 9.5t2.5 11t5 10t9 4.5h37q3 0 4.5 -1.5t1.5 -4.5q0 -2 -2.5 -2h-3.5q-5 0 -10 0.5t-10 0.5t-5 -5q0 -6 2 -8.5t5 -4.5t7 -3.5t8 -6.5v-4v-6
v-6v-4l1 -2t1 -3v-4l-0.5 -1.5t-1 -2.5t-1.5 -2t-2 -1l-2 2t-1 2v27l-3 3t-1.5 2.5t-2 2t-3.5 0.5t-3 -1t-1.5 -2.5t-0.5 -2.5v-3q0 -7 2 -13.5t2 -13.5q0 -2 -1.5 -2.5t-3.5 -0.5h-1q-1 1 -1.5 3t-1 4.5t-0.5 4.5v3q-1 2 -1 8t-0.5 13t-0.5 13.5v8.5q0 1 -1.5 2l-1.5 1h-1
q-5 0 -7.5 -4t-3 -10t-0.5 -12.5v-12.5t-1 -10t-4 -4q-4 0 -4.5 0.5t-0.5 3.5zM114 64h5h7h8h5h2.5t3 0.5t2.5 0.5h1v11l-3.5 1.5t-7.5 3.5t-7.5 4.5t-3.5 6.5v29q0 5 3 8t7.5 5.5t9 3.5t7.5 1q11 0 20 -1t15 -5t9 -11t3 -20q0 -7 -1.5 -11.5t-6.5 -9.5q-1 -1 -3 -1.5
t-4.5 -1l-5 -1t-3.5 -1.5l-3 -1.5t-1 -2.5q0 -5 3 -6.5t8 -1.5h4h7h6h5q2 -1 3.5 -3t1.5 -5h-91h-2.5t-2.5 0.5t-2 1.5t-1 2v0.5v0.5l1 1.5t2 1.5zM147 129q3 -3 6.5 -7t9.5 -4h1h2q0 1 1 2t2.5 2t2.5 2.5l1 1.5l1 1v1q0 2 -3 3t-6.5 1.5t-7 0t-4.5 -0.5q-4 0 -6 -3zM50 128
q0 2 1.5 2.5t2.5 0.5q4 0 8.5 -0.5t7.5 -1.5q6 -1 11.5 -2t9.5 -3t6.5 -6t2.5 -11v-2v-3.5t-0.5 -2.5t-2.5 -1h-2t-2 2l-3 14q0 1 -1 2t-2.5 1.5t-3 0.5h-2.5q-1 1 -4.5 1.5t-7.5 1t-7.5 1.5t-5.5 1q-1 0 -3.5 1.5t-2.5 3.5zM137 126v-2.5v-2.5v-4v-2q1 -2 3.5 -4.5t5 -5.5
l5 -6t4.5 -6q0 -1 0.5 -3l1 -4t2 -3.5t3.5 -1.5q3 0 5 4t4.5 9.5t5.5 11t7 8.5q2 1 4 1h1q1 0 1.5 0.5t0.5 2.5q0 3 -2 6t-5 3l-0.5 -0.5l-0.5 -0.5l-13 -12q-1 -2 -4 -2h-5q-5 0 -8 2.5t-5 5.5t-4 5.5t-4 2.5h-1q-1 0 -1.5 -0.5t-0.5 -1.5zM174 83q7 0 10.5 2t5.5 5.5
t2.5 8t0.5 10.5q-5 0 -8.5 -3t-5.5 -7t-3.5 -8.5t-1.5 -7.5zM132 101q0 -2 1 -5t3 -5.5t4.5 -4.5t5.5 -2q2 0 2 1.5v2.5q0 2 -0.5 5.5t-2.5 6t-4 4.5t-5 2t-3.5 -1.5t-0.5 -3.5zM50 94q0 3 2 3h4q2 0 8.5 -1t13.5 -2.5t13 -4t6 -5.5v-20q0 -1 -1.5 -1.5t-2.5 -0.5
q-2 0 -3 2.5t-1.5 5.5t-0.5 6v3q-5 3 -11.5 4t-12.5 2t-10 3t-4 6zM156 70q0 -4 3.5 -4.5t6.5 -0.5v7t-4 3q-3 0 -4.5 -1t-1.5 -4zM50 51q0 3 2 4t4 1q5 0 10 -0.5t11 -1.5t11 -2.5t9 -4.5q1 -2 3.5 -4l2.5 -2v-16l-2 -2l-1 -1l-0.5 -1l-1 -2l-1 -2t-0.5 -2q-3 -1 -6 -2.5
t-7 -2.5t-7.5 -1.5t-6.5 -0.5t-3 3t4 4.5t9 3.5t9.5 4.5t4.5 9.5q0 5 -2.5 8t-8.5 4h-5t-7 0.5t-7 0.5t-5 1h-1.5t-3.5 0.5t-3 1.5t-1 2zM175 11q-1 0 -3 0.5t-2 2.5v19q0 4 4 6.5t9 4t9.5 1.5h6.5q3 0 5 -1t2 -4t-2 -4t-5 -1t-7 0.5t-7 0.5t-5 -1.5t-2 -5.5v-4v-2t0.5 -2.5
t0.5 -3v-2.5t-1 -2.5t-3 -1.5zM116 41l1 1h3.5h4.5q9 0 13.5 -1t7 -4t3.5 -8t2 -14v-1q0 -2 -1.5 -2.5t-3.5 -0.5q-3 0 -4 2t-1 6q0 3 0.5 5.5t0.5 3.5q-1 5 -4.5 6t-8 1.5t-8.5 1t-5 4.5z" />
</svg>
