<?xml version="1.0" standalone="no"?>
<!DOCTYPE svg PUBLIC "-//W3C//DTD SVG 1.1//EN" "http://www.w3.org/Graphics/SVG/1.1/DTD/svg11.dtd" >
<svg xmlns="http://www.w3.org/2000/svg" xmlns:xlink="http://www.w3.org/1999/xlink" version="1.1" viewBox="-10 0 266 256">
   <path fill="currentColor"
d="M122 247v0v0q0 1 1.5 1.5l1.5 0.5h1q6 0 11.5 -4.5t10 -11l9 -13t7.5 -10.5h1.5h0.5q1 0 5 4.5t9 11t8.5 12.5t4.5 8h12q0 -5 -2.5 -8.5t-5.5 -6.5t-6.5 -5.5t-6.5 -5.5q-3 -5 -6 -10.5t-7 -9.5v-26q3 -1 7.5 -2t8.5 -2.5t7 -4t3 -6.5v-31q0 -3 -2 -5t-4.5 -3.5t-5.5 -2
t-5 -0.5q-8 0 -15.5 0.5t-15.5 1.5q-4 3 -6 5.5t-3.5 5t-2 5.5t-0.5 7q0 6 0.5 10.5t2.5 8t5.5 6.5t8.5 5q2 1 4 1.5t3 1.5v5v5v4v6t-0.5 5.5t-1.5 4.5l-2 2l-4 4l-3.5 3.5t-2.5 1.5q0 1 -0.5 2t-0.5 2l-24 26v1zM49 194q0 8 3 13.5t8 9.5t11 6t13 2q2 0 6.5 0.5t9 0t8.5 -2
t4 -5.5l-0.5 -1.5t-1.5 -1.5h-27v-19q0 -1 3 -2.5l6 -3t6 -2.5t4 -2q2 -3 3 -8t1 -10q0 -6 -0.5 -11t-0.5 -7q0 -3 -0.5 -6t-3.5 -3h-2.5t-1.5 2v19t-2 19q-3 1 -4 1h-4h-2q-1 -9 -1.5 -20t-2.5 -21q0 -1 -1 -1h-2h-2t-1 1v69l-1 0.5t-1 1.5h-1q-1 0 -3 -1.5t-3.5 -3
t-3 -3.5t-1.5 -3v-42q0 -3 -3 -6t-5 -3t-3 0.5t-1 1.5v1q0 1 0.5 5.5t0.5 9.5t0.5 9t0.5 5v3q0 3 -1 5t-1 4zM127 212q0 1 2 1h4q3 0 5 -3.5t3.5 -8t2 -9.5t0.5 -8t-0.5 -4t-3.5 -1h-3q0 4 -1 8.5t-2.5 9t-3 8.5t-3.5 7zM191 200q1 1 1.5 3t1.5 4.5t2 4t3 1.5h1l1.5 -0.5
l1.5 -0.5q0 -1 0.5 -2.5t0.5 -2.5t-0.5 -2.5l-0.5 -1.5l-0.5 -1.5l-1 -3t-1 -2.5t-0.5 -2q-1 -2 -1 -5q0 -4 -0.5 -6.5t-2 -4.5t-5.5 -2v24zM147 152q0 -3 3.5 -4.5t7.5 -1.5h7.5h5.5h13l1.5 1.5t1 2t0 2.5l-0.5 1v2v2q0 1 -1 2l-2 2t-2 1.5t-2 0.5h-25q-1 0 -2.5 -1
t-2.5 -3t-1.5 -4t-0.5 -3zM147 133l1 -1.5t2.5 -2.5l3 -2t2.5 -1h25q2 0 2.5 1.5t1 4t0.5 4.5v2h-31q-1 0 -4 -1t-3 -4zM46 128q-3 1 -4.5 2t-1.5 5h4t6.5 -0.5t6.5 -0.5h4q6 0 13 -1t12.5 -3t9.5 -6.5t4 -12.5v-2.5v-3.5t-0.5 -3.5t-2.5 -1.5q-4 0 -5 2.5t-1.5 6t-1.5 7
t-4 5.5q-5 2 -9.5 3.5t-9 2t-10 0.5t-10.5 1zM119 113q0 2 1 2.5t2 0.5q7 0 12.5 -3.5t11 -7.5t11 -7t12.5 -3q6 0 11 3t9.5 6.5t9.5 6.5t11 3q2 0 3.5 -0.5t1.5 -3.5t-5.5 -6.5t-13 -6.5t-14 -6t-8.5 -6v-5t-0.5 -7t-0.5 -7.5v-4.5v-3v-3q6 -1 10.5 -3.5t7.5 -5.5t4.5 -8
t1.5 -12q0 -2 -0.5 -3t-3.5 -2q-5 -1 -6 2.5t-2 8t-2.5 8.5t-6.5 4q-1 0 -2 -0.5t-1 -1.5v-28q0 -3 -1.5 -3h-3.5h-3t-2 2v4.5v7.5v8.5v4.5q-1 3 -1.5 6t-4.5 3h-1q-4 -3 -5.5 -6.5t-2.5 -7t-2 -6.5t-4 -4l-4 3v14q-4 0 -5 0.5t-1 2.5q0 3 5 4.5t11 3.5t11 3.5t5 4.5v22
q0 2 -3.5 4.5t-8.5 5.5t-11 6t-11 6t-8 5.5t-3 4.5zM44 95q2 3 5.5 3h7.5q6 0 14 -1t14.5 -4t10.5 -8.5t4 -14.5q0 -5 -2 -7t-7 -2v20q0 1 -3 2t-5 2q-4 1 -9.5 1.5l-11 1t-10.5 2t-8 5.5zM119 86v0l1 2h1q2 0 7 -1.5t9.5 -4.5t8 -6.5t3.5 -7.5v-1l-1.5 -1.5l-1.5 -1.5
q-1 1 -3 2.5t-5 3.5t-5 3.5t-3 2.5l-1.5 1t-3 2.5t-3 2.5t-2 1t-1 0.5t-0.5 1.5v1zM182 64q0 2 3.5 5.5t8 6.5t8.5 5t6 2t4 -0.5t2 -3.5q0 -2 -1 -2.5t-3 -2.5q-2 -1 -5.5 -2.5t-6.5 -3.5t-5.5 -3l-2.5 -1h-8zM47 50q0 3 2 4.5t4.5 2t5 0.5h5.5q5 0 12.5 -1t14 -3.5
t10.5 -7.5t4 -13q0 -4 -3.5 -7.5t-8.5 -6.5t-10.5 -5t-8.5 -2q0 3 -0.5 6t2.5 4q1 1 3.5 2.5l5 3l5 3t3.5 2.5l1 1.5l1 1.5v1q0 2 -1.5 4t-4 3t-5.5 1.5t-4 0.5q-2 0 -6.5 0.5t-9 0.5t-9 0.5t-6.5 0.5q-1 0 -1.5 1t-0.5 2z" />
</svg>
