<?xml version="1.0" standalone="no"?>
<!DOCTYPE svg PUBLIC "-//W3C//DTD SVG 1.1//EN" "http://www.w3.org/Graphics/SVG/1.1/DTD/svg11.dtd" >
<svg xmlns="http://www.w3.org/2000/svg" xmlns:xlink="http://www.w3.org/1999/xlink" version="1.1" viewBox="-10 0 266 256">
   <path fill="currentColor"
d="M198 249q1 2 2 2h2q5 0 6.5 -3t1.5 -6v-9.5t-1 -15t-2 -17.5t-3 -17t-4 -13.5t-5 -5.5q-7 -2 -11.5 -3t-8.5 -1.5t-8.5 -1.5t-10.5 -1l-1 -1q-1 -1 -1.5 -2.5l-1 -3l-1 -3l-0.5 -1.5q0 -6 3.5 -8.5t10 -3.5t13.5 -1t13.5 -1.5t11 -5t4.5 -11.5q0 -14 -5 -20t-19 -6
q-10 0 -20 2t-20 2q-1 0 -2 0.5l-1 0.5v1v1q0 1 0.5 1.5l0.5 0.5h22v22q0 5 -3 7t-7 4t-7 6t-3 12q0 9 4 13t10.5 5.5t13.5 2t14 0.5l4 4t2 4q3 18 5 36t2 35zM49 164q1 1 1 4.5t1 7t3 6t5 3.5q9 1 15.5 1h14.5q15 0 22.5 -2.5t10.5 -8t3.5 -14.5t0.5 -21q0 -1 0.5 -5.5
t0.5 -9.5t0.5 -9t0.5 -6v-46q0 -8 2 -14.5t2 -13.5h-2.5h-3h-3h-2.5q-1 1 -1 2t-0.5 3.5t-0.5 5.5t-0.5 5.5t-0.5 3.5v2v3l0.5 2.5t0.5 5.5t0.5 6l0.5 3v1v1q-1 0 -1.5 3l-0.5 3v51l-0.5 1.5l-1 3t-1 3.5t-1.5 3l-0.5 0.5l-0.5 0.5h-1h-1l-10 -10t-10 -11v-5v-9v-8v-6
q0 -17 1 -33t1 -33v-17q-1 -1 -2.5 -2t-3.5 -1q-3 0 -4 2t-1.5 4.5t-0.5 5v2.5v19q0 9 1 18.5t1 18.5v1.5v0.5q0 1 -0.5 2t-0.5 2.5t-0.5 2.5l-0.5 1v37q-1 3 -2 4l-3 3q-1 1 -3 2.5l-4 3t-4 3.5l-2 2h-1h-1l-0.5 -0.5t-1.5 -0.5q0 -12 -1 -25.5t-1.5 -26.5t-0.5 -26.5
v-25.5q-1 -2 -2 -2.5t-3 -0.5q-1 0 -2 0.5t-1 1.5v17q0 26 1 51.5t0 52.5zM64 169v-2q1 -1 3 -4t4.5 -6.5t5 -6.5t2.5 -4q1 0 1.5 -1l0.5 -1q1 0 3 -1.5l2 -1.5q3 0 7.5 3.5t9 8t7.5 9t3 7.5q0 2 -2 3.5t-4.5 2l-5 1t-3.5 0.5h-2t-4.5 0.5t-4.5 0.5h-4h-3t-4.5 -0.5
t-5.5 -0.5h-2q-3 -1 -3.5 -2.5t-0.5 -4.5zM175 123q-1 -4 -1.5 -9t-0.5 -10q0 -4 2 -5.5t6 -1.5q3 0 6 0.5t6 1.5q1 1 1 2t0.5 3t1 3t1.5 2v1q0 15 -17 15v0q-1 0 -3 -1zM151 50q0 6 1 11t3 8.5t6.5 5.5t11.5 2q5 0 7.5 -0.5t5 -1.5t5.5 -3t7 -5q3 -4 3 -9.5v-10.5
q0 -7 -1.5 -10.5t-5 -5t-8.5 -1.5h-13q-9 0 -15.5 5.5t-6.5 14.5zM159 51q0 -4 2 -6.5t4.5 -3.5t6 -1h7.5h2h4.5t4 0.5t1.5 2.5v16q0 2 -2 3.5t-5 2.5t-6 1.5t-4 0.5q-5 0 -8 -1t-4.5 -2.5t-2 -5t-0.5 -7.5z" />
</svg>
