<?xml version="1.0" standalone="no"?>
<!DOCTYPE svg PUBLIC "-//W3C//DTD SVG 1.1//EN" "http://www.w3.org/Graphics/SVG/1.1/DTD/svg11.dtd" >
<svg xmlns="http://www.w3.org/2000/svg" xmlns:xlink="http://www.w3.org/1999/xlink" version="1.1" viewBox="-10 0 266 256">
   <path fill="currentColor"
d="M86 245v1l3 3l2 2q1 1 2 0t2.5 -2t2 -2l0.5 -1v-38q0 -20 -0.5 -40.5t-0.5 -40.5v-1q0 -1 0.5 -2l0.5 -1q1 0 4 -0.5l6 -1t5.5 -0.5h3.5q2 0 4 -0.5l4 -1t3 -1.5t1 -3q0 -3 -1 -3.5t-4 -0.5q-5 0 -11.5 0.5t-12.5 3.5l-2 -4v-21q0 -1 1 -1.5l1 -0.5l6 -2t5.5 -2t4.5 -3.5
t3 -5.5q0 -2 0.5 -6t1 -8.5t1 -8.5t0.5 -5q1 -1 1 -4v-5v-6t-0.5 -8t-1.5 -7t-5 -3h-1l-1.5 1t-1.5 2v6.5v10.5v9.5v6.5q0 1 -0.5 3.5t-1.5 6t-1.5 7t-1.5 5.5t-3.5 3t-5.5 1.5t-6 0t-5 -0.5h-9q-3 -1 -5 -4.5t-2 -6.5v-41q0 -7 -7 -7q-3 0 -4 2t-1 4q0 10 0.5 22t0.5 21
q1 6 4 11.5t9 7.5h1.5t3 0.5t3 0.5h2.5l0.5 1l0.5 1q1 1 1 4t0.5 6t0.5 6v4v2q0 6 -7 6h-29l-0.5 2t-1.5 3v1v1q1 1 3 2t3 1h1q1 0 4.5 -0.5t7.5 -0.5h7.5h4.5t2 -0.5l1 -0.5q2 0 3 4t2 9.5t1.5 12.5t0.5 13t0.5 10.5t0.5 5.5q0 17 -2 33.5t-2 32.5zM196 240q0 2 0.5 4
t1 3.5t2 3t3.5 1.5q3 0 5 -2.5t2 -4.5t0.5 -5.5t0.5 -8t0.5 -8t0.5 -5.5v-1v-2l-0.5 -1.5t-0.5 -2.5t-0.5 -2.5l-0.5 -1.5q0 -3 -0.5 -9t-1 -12.5l-1 -13t-0.5 -8.5q-1 -2 -2.5 -3.5t-2.5 -3.5q-2 0 -4.5 -0.5t-5.5 -1t-5.5 -1t-3.5 -0.5t-6 -1l-10 -2t-9 -2.5t-5 -2.5v-6
q0 -7 4.5 -9t10.5 -2.5t13 0t13 -1.5t10.5 -7.5t4.5 -17.5v-2q0 -2 -0.5 -3.5t-0.5 -2.5v-3l-0.5 -1.5t-2 -3t-3 -2.5t-2.5 -1h-66q-1 0 -2 2.5l-1 2.5v1v1l0.5 0.5t1.5 0.5h24l0.5 1l0.5 1q1 1 1.5 2l0.5 1l-2 22q0 1 -3 2t-6.5 3.5t-6 6.5t-2.5 11t1.5 10.5t4.5 6t8 3.5
t11 1q2 0 5.5 0.5t7.5 0.5t7 0.5t4 0.5q3 0 4.5 1.5t2.5 3.5q0 2 0.5 6.5t0.5 10t0.5 10t0.5 6.5l0.5 2t0.5 4t0.5 3.5t0.5 2.5l-0.5 4l-1 8t-1 7.5t-1.5 4.5v2zM169 104q0 -7 2.5 -10t11.5 -3t12 3t3 12q0 6 -3.5 9t-9.5 3q-9 0 -12.5 -3t-3.5 -11zM148 41q0 10 3.5 15.5
t10.5 9.5q1 0 5.5 0.5t5.5 0.5q3 0 8 -0.5t9.5 -1.5t8 -4t3.5 -8v-24q0 -3 -2.5 -4.5t-5.5 -2t-6 -0.5h-4q-5 0 -11.5 0.5t-12 2.5t-9 5.5t-3.5 10.5zM160 55v-4v-4q0 -10 4 -13.5t15 -3.5q5 0 8.5 2t3.5 8q0 4 -1 8l-2 8q-1 0 -3 0.5l-4 1t-4 0.5h-3h-2h-7t-5 -3z" />
</svg>
