<?xml version="1.0" standalone="no"?>
<!DOCTYPE svg PUBLIC "-//W3C//DTD SVG 1.1//EN" "http://www.w3.org/Graphics/SVG/1.1/DTD/svg11.dtd" >
<svg xmlns="http://www.w3.org/2000/svg" xmlns:xlink="http://www.w3.org/1999/xlink" version="1.1" viewBox="-10 0 266 256">
   <path fill="currentColor"
d="M184 248l1 2h1q3 0 5 -2t3.5 -4.5t2 -5.5t0.5 -5v-7q-1 -2 -1 -8.5t-1 -14t-1 -14.5t-1 -9q-1 -3 -1.5 -6t-0.5 -5.5t-0.5 -5.5t-1.5 -5q-3 -4 -11 -6.5t-16 -4t-14.5 -4t-6.5 -5.5q0 -8 4.5 -11.5t11 -4.5t14 -1t14 -2t11 -7.5t4.5 -17.5q0 -1 -0.5 -4.5t-0.5 -4.5
q-1 -5 -4.5 -6.5t-8.5 -1.5q-7 0 -14.5 1.5t-15.5 1.5h-1l-1.5 -0.5t-3 -0.5t-3 -0.5l-1.5 -0.5h-2q-1 0 -3.5 0.5t-4.5 1.5t-3.5 2.5t-1.5 2.5q0 2 1 3t3 1q5 0 10 -0.5t10 -0.5h2t1 1t0.5 3.5t0.5 5t0.5 4.5t0.5 3v1q0 4 -2 5.5t-5 2t-6.5 1.5t-6.5 3.5t-5 8t-2 16.5v3
q0 3 2 4q3 3 8.5 4.5t11.5 3t12 2.5t10 3q4 9 5.5 20t2 22t0 22t-0.5 21zM71 146q6 0 10.5 1t8.5 1t8 0.5t8 0.5h6q3 -1 3.5 -3t0.5 -4q0 -3 -5.5 -4t-13 -1.5t-15 -1.5t-11.5 -4q0 -4 -1.5 -8.5t-1.5 -9.5v-4l25 -24h1q3 0 6 4.5t6 10t5.5 10t5.5 3.5t3.5 -3.5t0.5 -4.5
q0 -3 -2 -6t-4.5 -6t-4.5 -6t-4 -5q0 -1 -1.5 -3.5t-1.5 -3.5v-13q0 -9 0.5 -18t0.5 -18q0 -2 0.5 -4t0 -4t-2 -3.5t-3.5 -1.5q-3 0 -4.5 4t-2 10t0 13t0 14.5t-1 13t-2.5 7.5l-2.5 2.5t-3.5 4t-4 4.5l-3 3q-2 2 -3.5 4.5t-4.5 2.5q-1 0 -2 -2.5t-1.5 -5t-1 -4.5l-0.5 -2
v-49q0 -6 -5 -6q-2 0 -3.5 0.5t-0.5 2.5v4v6.5v5.5v5q0 22 1.5 43.5t6.5 43.5q1 3 3.5 4.5t5.5 3.5zM168 96q0 -3 1 -6t4 -4h6q5 0 8 1t3 7q0 8 -3 12t-12 4q-3 0 -4.5 -1.5t-2 -3t-0.5 -4.5v-5zM136 48q0 6 2.5 10t6 6t9 3t10.5 1t10.5 -1.5t10.5 -4.5t8 -7.5t4 -10.5
q0 -14 -7 -19.5t-21 -5.5q-8 0 -14.5 1.5t-10.5 5t-6 9t-2 13.5zM147 45q0 -6 2 -9t5 -4.5t7.5 -1.5h10.5h4h3l3 3v16q0 3 -3 5t-7 3t-7.5 1h-5.5q-8 0 -10 -3t-2 -10z" />
</svg>
