<?xml version="1.0" standalone="no"?>
<!DOCTYPE svg PUBLIC "-//W3C//DTD SVG 1.1//EN" "http://www.w3.org/Graphics/SVG/1.1/DTD/svg11.dtd" >
<svg xmlns="http://www.w3.org/2000/svg" xmlns:xlink="http://www.w3.org/1999/xlink" version="1.1" viewBox="-10 0 266 256">
   <path fill="currentColor"
d="M197 244q0 2 1 4.5t5 2.5q2 0 3 -2.5t2 -4.5v-2v-3v-3v-2v-17t-2 -19t-7 -15.5t-15 -7.5h-28q-4 -1 -5 -2t-1 -6t2.5 -10t8.5 -6l39 -5q2 0 3.5 -2.5t2 -5.5l1 -6t0.5 -4q0 -5 -1 -11t-6 -8q-4 0 -8 -0.5t-7 -0.5t-6.5 -0.5t-7.5 -0.5h-8t-11.5 0.5t-10.5 2t-5 4.5
q0 1 0.5 2l0.5 1q1 1 4 1h3q5 0 9 -1t8 -1q3 0 4.5 1t1.5 4v1v3.5t-0.5 5.5t-0.5 5.5v3.5q-2 3 -4.5 4t-5.5 1.5t-5.5 0.5t-5 2t-3.5 7t-1 14v10q1 3 3.5 5t6.5 2q5 0 10.5 -1t12.5 -1l2 0.5t4 0.5h5h2q4 1 6.5 6.5t3.5 12.5t1.5 13.5t0.5 9.5q0 5 -1 8.5t-1 8.5zM108 239
q1 2 3 3.5t5 1.5t3.5 -2t0.5 -4v-2v-1q0 -1 -1 -4l-2 -6l-2 -6t-1 -4q-1 -2 -2 -7t-2.5 -10.5t-2.5 -9.5t-1 -5q-2 -11 -3.5 -23t-2.5 -25t-1.5 -25.5t-0.5 -23.5q0 -4 4 -4h1.5h0.5l22 18h2q3 0 4 -2t1 -4q0 -4 -2.5 -6.5t-6.5 -5t-8.5 -5t-8.5 -5t-6.5 -5t-2.5 -6.5v-3
t2 -3q1 -1 3 -1.5t4.5 -1t4.5 -1t3 -0.5q4 0 6.5 0.5t4.5 0t3.5 -2t1.5 -6.5h-31v-24q0 -2 -2.5 -4t-4.5 -2q-1 0 -2.5 0.5t-1.5 2.5v29l-4 0.5t-6 1.5h-3t-5.5 0.5t-5 0.5h-3.5q-2 1 -3.5 2t-1.5 3t1.5 2.5t3.5 0.5q7 0 14 -0.5t14 -0.5v13l-3 2l-7.5 5t-9.5 6t-9.5 6.5
t-7.5 7t-3 6.5v0q0 1 1 2l2 2h1q5 0 9 -4t7.5 -8.5t7.5 -8.5t9 -4q1 0 1.5 1l0.5 1v6q0 31 -8 59.5t-21 56.5q0 1 -1 3.5l-2 5t-1.5 4.5t-1 3t-1.5 2.5t-2.5 4t-2.5 4.5l-1 2q-1 1 -1.5 2l-0.5 1q0 1 0.5 2t1.5 1h3q3 0 7 -5t7.5 -11.5t6.5 -12.5t4 -9q1 -2 2.5 -7t3 -10.5
t3 -10.5t2.5 -7v-4t0.5 -4.5t1.5 -4t2 -1.5t1.5 0.5l0.5 0.5q2 6 2.5 13t2.5 14q3 15 6 29.5t5 29.5zM175 137v-4v-4q0 -8 3.5 -10.5t11.5 -2.5q4 0 5.5 2.5t1.5 5.5q0 6 -0.5 9t-2 4.5t-4.5 2t-7 0.5h-5t-3 -3zM151 72q0 3 0.5 6.5t2 7t3.5 6t6 3.5h11q7 0 12 -1t8.5 -4
t5.5 -7.5t2 -12.5q0 -5 -0.5 -9t-2.5 -6.5t-5.5 -3.5t-8.5 -1q-6 0 -12 0.5t-11 2.5t-8 6.5t-3 12.5zM159 78q0 -9 4.5 -14t13.5 -5h4t5.5 0.5t4.5 2t2 3.5t-0.5 5.5t-1 7.5t-2.5 6.5t-5 2.5h-17q-2 0 -5 -3t-3 -6z" />
</svg>
