<?xml version="1.0" standalone="no"?>
<!DOCTYPE svg PUBLIC "-//W3C//DTD SVG 1.1//EN" "http://www.w3.org/Graphics/SVG/1.1/DTD/svg11.dtd" >
<svg xmlns="http://www.w3.org/2000/svg" xmlns:xlink="http://www.w3.org/1999/xlink" version="1.1" viewBox="-10 0 266 256">
   <path fill="currentColor"
d="M195 247l4 3q2 -2 4.5 -5t3.5 -6q-1 -13 -3 -24.5t-2 -23.5q-1 -13 -5.5 -20.5t-10.5 -10t-13 -2.5h-13t-10 -0.5t-4 -5.5q0 -2 0.5 -5t1.5 -6t3 -5t5 -3l43 -6q1 0 2.5 -2t2.5 -4t2 -4.5t1 -4.5t-0.5 -5l-1 -6t-2 -6t-3.5 -4h-9h-10q-2 0 -8.5 0.5l-13 1t-12.5 1t-9 0.5
t-3 3q0 4 3 4h23q2 0 2.5 2t0.5 4q0 7 -2 11t-5 6t-6.5 3t-6 2.5t-4.5 5t-2 9.5q0 8 1.5 13.5t9.5 8.5q2 0 5.5 1t8 1.5t8.5 1t5.5 0.5t3.5 0.5l4 1t3.5 2t1.5 2.5t0.5 2.5t0.5 3t0.5 3l0.5 1.5q3 16 4 30.5t0 30.5zM68 240q0 1 1 1.5l1 0.5h1q2 0 3.5 -1.5t2.5 -4t1.5 -5
t0.5 -4.5q0 -11 0.5 -21t0.5 -19.5t0.5 -19t0.5 -20.5q0 -5 -1 -10.5t-1 -10.5v-9q0 -1 0.5 -3.5t1 -4.5t0.5 -3.5v-1.5h18l0.5 0.5t0.5 1t1 2.5t1 3v91v8.5t0.5 9t1.5 9.5t2 8h2h1q3 0 4 -3t1 -5q-2 -13 -2.5 -25.5t-0.5 -25.5v-26v-25v-7t-0.5 -13t-0.5 -12.5v-6.5v-9
q0 -1 -0.5 -4.5t0 -6.5t1 -5.5t2.5 -2.5q3 0 5 1.5t4 3.5t4.5 3.5t5.5 1.5q2 -1 2.5 -3t0.5 -4q0 -3 -1.5 -5t-4 -3.5t-5.5 -2.5t-5 -2q-1 -1 -3.5 -2.5t-6 -3t-6 -2.5t-3.5 -2q-1 -6 -1.5 -11.5t0.5 -11.5q-1 -1 -3 -2.5t-2 -2.5h-1q-4 0 -4.5 3t-1.5 7v18q-2 2 -8.5 4.5
t-13.5 5.5t-12.5 6.5t-5.5 6.5q0 2 1.5 3.5t3.5 1.5q3 0 5 -1l4 -2t4.5 -2t4.5 -1v5.5v7.5v7.5v5.5v2.5t0.5 4.5t0.5 4.5v2.5v5.5v8v10.5t-0.5 10.5t-0.5 8.5v5v1q0 7 1 14t1 14q0 14 -2 28t-2 28v2.5v2.5zM172 110v-2.5t0.5 -3t1.5 -2.5t2 -1h19v13q0 2 -2 3l-4 2t-4.5 1
h-3.5q-5 0 -7 -2.5t-2 -7.5zM79 73q0 -4 0.5 -8t1.5 -7.5t4 -5.5t8 -2q4 0 6.5 1t2.5 6v1v2t-0.5 5.5t-0.5 9t-0.5 9t-0.5 5.5t-1 3t-2 2h-3h-3q-5 0 -7.5 -1.5t-3.5 -4.5t-1 -7v-8zM153 75q2 2 4.5 2.5t5.5 0.5q9 0 15.5 -1t10.5 -4t6 -8.5t2 -15.5q0 -8 -3 -12t-11 -4h-14
q-6 0 -10.5 2t-7 6.5t-2.5 13.5v1q1 1 1 4t0.5 5.5t1 5.5t1.5 4zM157 60q0 -10 4.5 -13.5t14.5 -3.5h3h4q0 1 0.5 1t0.5 1q1 1 2 3l1 2v3t-1 6.5t-2 6t-3 2.5h-22l-2 -2v-2.5v-3.5z" />
</svg>
