<?xml version="1.0" standalone="no"?>
<!DOCTYPE svg PUBLIC "-//W3C//DTD SVG 1.1//EN" "http://www.w3.org/Graphics/SVG/1.1/DTD/svg11.dtd" >
<svg xmlns="http://www.w3.org/2000/svg" xmlns:xlink="http://www.w3.org/1999/xlink" version="1.1" viewBox="-10 0 266 256">
   <path fill="currentColor"
d="M193 242q0 2 1.5 5t3.5 4q1 0 1.5 -0.5l1.5 -1.5l2 -2l1 -1v-10q0 -18 -1.5 -36.5t-3.5 -35.5q-5 -4 -10.5 -6t-12 -3t-12.5 -1.5t-12 -2.5q-1 0 -1.5 -1t-0.5 -2v-2v-1q0 -4 1 -7t6 -4q9 -2 18.5 -3t17.5 -3t13 -7.5t5 -17.5q0 -3 -0.5 -5.5l-1 -5t-2 -4.5t-5.5 -3h-3
h-4h-5h-3q-12 0 -24.5 1t-25.5 4l-0.5 0.5l-0.5 0.5v1q0 2 3 2.5t4 0.5q4 0 8 -1t8 -1q3 0 4.5 1.5t2 3.5t0.5 4v5v8.5t-3 8.5q-7 1 -11 3t-6.5 4.5t-3.5 7t-1 10.5v4v5q4 2 9.5 4t11.5 3.5t12 2t11 -0.5q2 1 3.5 6.5t3 12t2.5 12t1 7.5v1q0 2 -0.5 6.5t-0.5 10.5t-0.5 10.5
t-0.5 6.5v2zM41 232q0 2 2 2.5t4 0.5q5 0 7.5 -3t4.5 -6.5t3 -8t3 -7.5q1 -2 2.5 -7t4 -12t5.5 -14.5t5.5 -13.5t4 -10.5l1.5 -4.5l5 5q4 20 11.5 40t17.5 39q0 1 2 1.5l2 0.5q4 0 5.5 -2.5t1.5 -6.5t-3 -11t-7 -14t-8 -13.5t-6 -11.5t-3 -10.5t-3 -10.5q-1 -1 -2 -3t-1 -3
q-1 -1 -1.5 -3.5l-1 -5t-1 -4.5t-0.5 -3v-117q0 -2 -2 -2.5t-4 -0.5h-2q-2 0 -3 2v9q0 18 1 34.5t1 33.5v7v8v7v3l-2 2q-1 12 -4.5 22.5t-8 21t-9.5 21t-9 20.5q0 1 -1 3t-2 4.5t-1.5 4.5l-0.5 2q-1 1 -2 3t-2.5 4t-2.5 4t-1 4zM54 146q0 2 0.5 4.5t3.5 2.5q2 0 4.5 -2.5
t4.5 -3.5q0 -9 0.5 -16.5t0.5 -15v-14.5v-16v-6v-8v-9v-6q-1 0 -3.5 -2.5t-2.5 -3.5h-1q-2 0 -3 2t-1 3q0 23 -1.5 45.5t-1.5 45.5zM110 76q0 2 0.5 6t0.5 7v7v3v9.5t1 15t2 14t4 6.5t3.5 -2.5t0.5 -5.5q0 -21 -1 -42.5t-2 -41.5q-1 -2 -2.5 -2h-2.5t-2.5 0.5t-0.5 2.5v5v7
q0 3 -0.5 6.5t-0.5 4.5zM188 91h3h5t3.5 1t1.5 2v19l-3 5h-1.5t-4 0.5t-5 0.5h-3.5t-1.5 0.5t-1.5 0.5t-3 -0.5t-2 -1.5v-24l1.5 -1t4 -1.5t4.5 -0.5h2zM179 25h-8.5t-10.5 1.5t-9 4t-4 6.5v24q0 4 2.5 6t5.5 3.5t6.5 2t5.5 0.5q3 0 7 -0.5t8 -2t7.5 -3t5.5 -4.5
q0 -1 0.5 -3.5t1 -5.5t1 -5.5t0.5 -3.5v-1q0 -6 -2 -11t-8 -8h-4h-5zM153 50q0 -11 5 -13.5t15 -2.5h9q4 3 4.5 7t0.5 9v3v3l-4 4t-4 3h-4h-5q-4 0 -7.5 -0.5t-5.5 -2t-3 -4t-1 -6.5z" />
</svg>
