<?xml version="1.0" standalone="no"?>
<!DOCTYPE svg PUBLIC "-//W3C//DTD SVG 1.1//EN" "http://www.w3.org/Graphics/SVG/1.1/DTD/svg11.dtd" >
<svg xmlns="http://www.w3.org/2000/svg" xmlns:xlink="http://www.w3.org/1999/xlink" version="1.1" viewBox="-10 0 266 256">
   <path fill="currentColor"
d="M191 245q0 3 0.5 3.5t4.5 0.5q2 0 3.5 -1.5t2.5 -3.5t1.5 -4t0.5 -4v-1v-5.5t-0.5 -9.5t-1 -9.5t-0.5 -5.5v-10t-1 -12.5t-2.5 -12t-4.5 -7.5q-4 -4 -10.5 -4.5t-13.5 -0.5q-6 0 -12 -0.5t-7 -4.5v-2v-3v-6.5t1 -5.5q4 -3 11.5 -4.5t15.5 -3t14 -3t8 -3.5q1 -3 1 -7.5
v-6.5q0 -8 -0.5 -12.5t-3 -7t-7.5 -3.5t-12 -1q-12 0 -22 0.5t-23 1.5q-1 0 -1 1v2v2.5t1 1.5h23l2 2v5q0 6 -0.5 10.5t-1.5 9.5q-8 6 -13 12.5t-5 16.5q0 9 3.5 12.5t9 4.5t12.5 1t13 2t10 6.5t6 15.5l-0.5 2t-0.5 4t-0.5 4t-0.5 3v3q0 6 1 11.5t1 10.5t-1 8.5t-1 7.5z
M63 204q1 0 3 0.5t4.5 1t4.5 0.5t3 1h2q5 0 11.5 -0.5t12.5 -2t10 -5t4 -10.5v-56l-0.5 -1l-0.5 -1h-1h-1q-3 1 -4 4.5t-1 7.5v7v5l-1 2q-2 -1 -5 -1h-7h-7q-3 0 -4 1h-2h-3.5t-3.5 0.5l-2 0.5h-1h-1l-1.5 -0.5l-1.5 -0.5q-1 -1 -2 -1.5l-1 -0.5v-14q0 -1 -0.5 -1t-1.5 -1
q-2 -1 -2.5 -1.5t-2.5 -0.5t-2.5 2t-0.5 4q0 12 0.5 25t1.5 25q0 2 0.5 5.5t3.5 5.5zM70 189v-17l0.5 -1t1.5 -2l0.5 -0.5l0.5 -0.5h32q1 0 3 1t2 2q0 5 -1 11t-4 11l-0.5 0.5l-0.5 0.5h-31zM94 128q-3 3 -5 6.5t-2 7.5q4 0 8.5 -4t9 -10.5t8 -14t6.5 -15.5t4.5 -15t1.5 -11
v-10q-2 -3 -6.5 -5t-10.5 -4t-12 -3.5t-11 -3t-8.5 -3.5t-3.5 -4q0 -7 4.5 -10.5t10.5 -5t12.5 -1.5t11.5 -1q1 0 2 -1.5t1 -2.5t-1.5 -3.5t-1.5 -3.5h-1q-7 0 -15.5 1t-16.5 4t-13.5 8.5t-5.5 13.5t3.5 12.5t8 6t8 2.5t3.5 3q0 6 -4.5 14t-10 15.5t-10 14t-4.5 12.5v2t2 1
q4 0 8.5 -4.5t8.5 -10.5t8.5 -13.5t7.5 -14t6 -11t4 -4.5q2 0 5 0.5t5.5 2t5 3.5t2.5 4q0 4 -1.5 6.5t-1.5 5.5q-1 2 -1.5 4.5t-1.5 5t-1.5 4.5l-0.5 2q-1 1 -3 5.5t-4.5 9t-4.5 8.5t-3 5zM168 92h18q2 0 3.5 2t2 4t1 4.5t0.5 3.5q0 3 -2.5 5.5l-4.5 4.5q-1 0 -3 0.5t-4.5 1
t-4.5 1l-2 0.5h-2h-2v-27zM151 65q1 1 4.5 1t7.5 0.5t7.5 0.5h4.5q11 0 17.5 -6t6.5 -18q0 -13 -8 -19t-21 -6q-3 0 -8.5 1t-10.5 3t-8.5 5.5t-3.5 7.5q0 3 0.5 7.5t1.5 9.5t3.5 8.5t6.5 4.5zM169 29q3 0 6.5 0.5t6.5 2t5 4t2 6.5q0 3 -2 6t-5 5t-6.5 3t-6.5 1h-3t-6 -0.5
t-5.5 -2t-2.5 -3.5v-14q0 -2 2 -3.5t5 -2.5t6 -1.5t4 -0.5z" />
</svg>
