<?xml version="1.0" standalone="no"?>
<!DOCTYPE svg PUBLIC "-//W3C//DTD SVG 1.1//EN" "http://www.w3.org/Graphics/SVG/1.1/DTD/svg11.dtd" >
<svg xmlns="http://www.w3.org/2000/svg" xmlns:xlink="http://www.w3.org/1999/xlink" version="1.1" viewBox="-10 0 266 256">
   <path fill="currentColor"
d="M81 163v81q0 2 1.5 4t3.5 2q3 0 4 -2t1.5 -5t0.5 -6v-4q0 -23 -0.5 -45.5t-0.5 -44.5q0 -27 1.5 -52.5t1.5 -50.5v-11q0 -2 -2 -5t-4 -4h-9q-8 0 -13 0.5t-12 1.5q-2 1 -3 3t-1 4v2q1 0 4 0.5t4 1.5q1 0 2 1v19q0 32 -1 64l-2 64q-1 13 -2.5 27t-1.5 28v5t1 5l1 1t2 1v0
q3 0 5 -1.5t2.5 -4l1 -5t0.5 -5.5q0 -28 0.5 -56.5t1.5 -56.5v-10t0.5 -16.5t1 -20t2 -19.5t3 -14.5t4.5 -5.5t4 2.5t1 5.5q0 28 -2.5 56t-2.5 55q0 4 0.5 6t1.5 5zM193 248l1.5 1.5t1.5 0.5q3 0 4.5 -2t2.5 -5t1.5 -6t0.5 -4q0 -8 -0.5 -17t-1.5 -17.5t-2.5 -17.5t-4.5 -16
q-1 -3 -5.5 -4.5t-6.5 -2.5h-5t-7 -0.5t-7 -0.5h-4l-4 -4v-15q0 -1 4 -2t6 -2q7 -2 13 -3t11 -3t7.5 -6.5t2.5 -13.5v-9t-1.5 -6.5t-4 -4t-8.5 -1.5h-8q-7 0 -14.5 1t-13 2t-5.5 4v1q1 0 2 1.5l1 1.5h13l4 3v19q0 3 -3 4.5t-6.5 3t-6 5t-2.5 10.5q0 10 2 15.5t7 8t11.5 2.5
h15.5l3 3l1 4t2 9.5t2 10.5t1 9q1 2 1 8v13v13t-1 9zM113 246q1 1 2 1.5t2 0.5q3 0 4.5 -2t1.5 -6q0 -11 -1.5 -21.5t-2.5 -20.5q-2 -12 -2 -23v-22q-1 -23 -2.5 -47.5t-1.5 -48.5q0 -5 0.5 -9.5t2.5 -8.5t5 -6t9 -2q0 3 -0.5 8.5t-0.5 12.5v14.5t-0.5 14.5t-0.5 12.5v7.5
t0.5 6.5t1 11t1 13.5t1 13t1 10.5t0.5 6.5v3q0 2 1 10t1.5 17t1.5 16.5t1 9.5v5v6t0.5 5.5t1.5 4.5l1 0.5t2 1.5h1h1q4 -4 4 -10v-1l-0.5 -3l-0.5 -3l-7 -75q-4 -14 -4.5 -30t-0.5 -31t0.5 -30t4.5 -29q1 -2 3 -3t3.5 -1.5t2.5 -1.5t1 -4q0 -1 -0.5 -3t-2.5 -2v0
q-1 0 -2 0.5t-2.5 1t-2.5 1l-1 0.5q-6 2 -11.5 3.5t-10 3.5t-8 5.5t-5.5 10.5v9v14.5v14.5v9q0 20 1 40t2.5 39.5t3 39.5t1.5 40zM175 119v-4.5v-4.5v-5q0 -3 1 -5t2.5 -3t4.5 -1q4 0 5.5 2t1.5 6q0 3 -0.5 5.5t-1.5 5t-3 4t-5 1.5h-2t-3 -1zM151 45v6t1 9t2 8.5t3 3.5h30
q1 0 4.5 -2t4.5 -3t1.5 -3.5t0.5 -5v-4.5v-2v-10t-1.5 -9.5t-4.5 -7.5t-8 -3h-3t-1.5 0.5t-1 0.5t-3.5 1q-6 2 -10.5 2.5t-7.5 2.5t-4.5 5.5t-1.5 10.5zM161 50q0 -10 5.5 -13t13.5 -3q4 0 5.5 1.5t2 4.5t1 5.5t0.5 5.5q0 9 -5 11t-13 2h-4q-2 0 -3 -1q-2 0 -2.5 -2t-0.5 -4
v-4v-3z" />
</svg>
