<?xml version="1.0" standalone="no"?>
<!DOCTYPE svg PUBLIC "-//W3C//DTD SVG 1.1//EN" "http://www.w3.org/Graphics/SVG/1.1/DTD/svg11.dtd" >
<svg xmlns="http://www.w3.org/2000/svg" xmlns:xlink="http://www.w3.org/1999/xlink" version="1.1" viewBox="-10 0 266 256">
   <path fill="currentColor"
d="M192 188q1 2 1.5 7.5t0.5 12.5v15q0 7 0.5 13.5t1.5 10.5t4 4t4.5 -3.5t1.5 -6.5q0 -10 -1 -19.5t-2 -19.5v-12t-0.5 -14.5t-1.5 -15t-3 -12.5q-2 -4 -6 -6t-9.5 -2h-10.5q-6 0 -10.5 -1t-7 -3t-2.5 -6q0 -2 2 -6t4 -5q3 -1 10.5 -2t15 -2.5t13.5 -3.5t6 -5v-26
q0 -2 -1.5 -2.5t-3 -0.5h-3.5h-2h-6.5t-10.5 0.5t-12.5 1t-12 1.5t-9 2t-3.5 3q0 1 0.5 2t3.5 1h19l0.5 0.5t0.5 1.5q1 0 1.5 2t0.5 3q0 5 -1.5 8.5t-3.5 5t-4.5 3t-5 4t-3.5 6.5t-1 11v8q2 5 6.5 7.5t10 3t11 0t10.5 -0.5l2 1t2 2zM58 128q2 10 2 18t0.5 15t2 13t5.5 10
t11.5 6.5t20.5 2.5h10t16 -0.5t14.5 -2t6.5 -5.5t-3 -5.5t-7 -1.5q-9 0 -17 2t-16 2h-4h-4t-4.5 -0.5t-3.5 -0.5t-4 -1t-5.5 -2.5t-4.5 -4t-2 -4.5t0.5 -3t1.5 -2q14 -2 28 -3.5t28 -3.5q1 0 1.5 -1t0.5 -2q0 -2 -1 -2.5t-3 -0.5h-20q-2 0 -2.5 -1t-1 -2.5t-0.5 -2.5v-2
v-3.5t2 -2.5l19 -6v-0.5v-0.5v-3t-2 -2q-2 0 -5.5 0.5t-6.5 0t-5 -2t-2 -5.5v-3t0.5 -4t1 -3t2.5 -1h15q2 0 2 -2v-3t-0.5 -2.5t-2.5 -1.5h-14q-2 0 -2.5 -1t-1 -2.5t-0.5 -2.5v-2q0 -5 1 -7.5t3 -4t4.5 -2t6.5 -2.5l3.5 -3.5t2.5 -3.5v-24q0 -3 -1 -4t-3 -1h-1h-1
q-1 3 -1 8v9.5t-2 8t-7 3.5h-3t-2 -2v-27l-1 -1.5t-2 -1.5v0h-1v0v0q-1 0 -2 0.5l-1 0.5v29q0 2 -1.5 4.5t-3.5 2.5q-4 0 -5.5 -4t-2 -8.5t0 -9.5t0.5 -7l-1 -1.5t-2 -1.5h-1q-2 0 -3 1t-1 3t0.5 7.5t1 11.5t2 11t4.5 6q2 1 3.5 1t3 0.5t2.5 0.5t2 1t1 3v3q0 4 -1 7t-3 6
h-3.5t-5.5 0.5t-5 1.5t-2 3v0v0q1 1 1.5 2l0.5 1h14q1 0 1.5 1.5t0.5 3.5v4v2v6q-1 0 -2 0.5l-1 0.5q-1 0 -3 0.5t-4.5 0.5t-4.5 0.5t-3 0.5t-1 1v2v2.5t1 1.5h18q0 2 0.5 4.5l1 5t-0.5 4.5t-4 3q-1 0 -3.5 0.5t-5 0.5h-4.5h-3h-2q-2 0 -2.5 -1t-1 -2.5l-1 -3t-0.5 -2.5
q0 -24 -0.5 -46t-0.5 -45v-4v-5v-6t1 -5q2 -3 8 -5t13.5 -3.5t16 -2t15.5 -1.5t11.5 -2t4.5 -2q0 -3 -1.5 -4t-3.5 -1h-4.5h-3.5q-14 0 -29.5 3.5t-29.5 6.5q-4 3 -6 9.5t-2 11.5v83zM173 98q0 -4 0.5 -6.5t1.5 -3.5t3.5 -1.5t6.5 -0.5h3q3 0 4 1q2 0 2 2.5v3.5q0 8 -5 10.5
t-13 2.5h-2q0 -1 -0.5 -3.5t-0.5 -3.5v-1zM152 39v6.5t0.5 7t2 6t5.5 2.5h27q4 0 6.5 -3.5t4 -7.5t2 -8.5t0.5 -7.5v-3v-3l-6 -6h-4.5h-5.5h-12q-5 0 -10 1t-7.5 5t-2.5 11zM158 43q0 -3 2 -5.5t4.5 -4t5.5 -2.5t6 -1q4 0 8.5 1.5t4.5 6.5t-1.5 7.5t-4.5 4.5t-6.5 2.5
t-8.5 0.5q-3 0 -6.5 -3t-3.5 -7z" />
</svg>
