<?xml version="1.0" standalone="no"?>
<!DOCTYPE svg PUBLIC "-//W3C//DTD SVG 1.1//EN" "http://www.w3.org/Graphics/SVG/1.1/DTD/svg11.dtd" >
<svg xmlns="http://www.w3.org/2000/svg" xmlns:xlink="http://www.w3.org/1999/xlink" version="1.1" viewBox="-10 0 266 256">
   <path fill="currentColor"
d="M190 243q0 2 0.5 5t3.5 3q2 0 3.5 -2t2 -4.5t1 -4.5t0.5 -4v-90q0 -6 -2.5 -8.5t-6.5 -3.5t-9 -1.5t-9 -0.5t-7.5 -1t-4.5 -3q1 -10 4.5 -15t8.5 -7t11 -2t11 -0.5t8 -3t3 -8.5v-5q0 -4 -0.5 -8t-2.5 -7t-6 -3h-0.5h-0.5q-1 0 -3 0.5t-5 0.5t-5 0.5l-2 0.5
q-1 0 -2.5 -0.5t-3.5 -0.5t-3.5 -0.5l-1.5 -0.5h-4h-3h-4t-4 0.5t-3.5 1.5t-1.5 3q0 5 4 5h2h1q1 0 2 -0.5t2.5 -0.5t3 -0.5l1.5 -0.5q3 0 4 2.5t1 4.5q0 10 -3 14t-6 6l-6 4t-3 7v23l1 1l3 0.5t7 0.5t8 0.5t7 0.5q5 0 7.5 3.5t3.5 8.5t1 10v10q0 18 -1.5 35.5t-1.5 34.5z
M123 138q0 27 -1 52.5t-1 51.5q3 0 7 -3t4 -7v-160q0 -3 2.5 -3.5t5.5 -1t5.5 -1.5t2.5 -4v-1l-1 -1.5t-2 -1.5h-10q-1 0 -2.5 -2.5t-2.5 -3.5q0 -1 0.5 -3.5t0.5 -5.5t0.5 -5.5t0.5 -3.5q0 -3 2 -4t5 -2t5 -2t2 -4h-0.5h-0.5q0 -1 -0.5 -2t-0.5 -2h-2h-3.5h-3.5h-2h-5.5h-9
t-8 1.5t-3.5 5.5v1q1 0 3 0.5t4 0.5t4 1t3 3v3.5t0.5 6t0.5 6v3.5v2q0 2 -0.5 4t-1.5 4h-5.5t-8 0.5t-8 0.5h-5.5h-1q-1 0 -2.5 -1t-2.5 -2q0 -1 -0.5 -3.5t-0.5 -6v-6v-3.5q0 -5 2 -6.5t5.5 -2.5t5.5 -2.5t2 -6.5h-5.5h-9t-9 0.5t-5.5 0.5h-2.5h-4t-4 0.5t-2.5 0.5l-1 1.5
t-2 1.5v1q0 1 1.5 3.5t2.5 2.5h1l2 -0.5t3.5 -0.5t3 -0.5t2.5 -0.5v0q3 0 4.5 2t1.5 4.5v5.5v5v3q0 2 -0.5 4.5t-1 4.5t-1.5 2h-25q-1 0 -2 1.5t-1 3.5t-0.5 4l-0.5 2q7 0 14 -1t14 -1q3 0 3.5 1t0.5 3q0 14 -0.5 29t-1.5 27q0 1 -0.5 4t-0.5 4v64q-2 5 -2 10v9v4.5v5.5
q1 0 2 1.5l1 1.5h1q2 0 4 -2t3.5 -4.5t2 -5t0.5 -4.5q0 -1 -0.5 -3.5l-0.5 -2.5v-30q0 -28 1 -55.5t0 -55.5q4 -3 8 -4t9 -1t9.5 0.5t8.5 0.5q0 2 -0.5 6t-0.5 8.5v8.5v5t0.5 4t0.5 4v7t0.5 10.5t0.5 10.5v6zM181 90v-2q0 -1 0.5 -4.5t1.5 -4.5q2 -2 4 -2h5q4 0 5 3t1 7
q0 6 -4 7.5t-9 1.5q-3 0 -3.5 -1.5t-0.5 -4.5zM156 33q0 8 1.5 12t4.5 6.5t7.5 3t11.5 0.5q12 0 16 -6.5t4 -18.5v-5.5t-0.5 -5t-2 -4.5t-3.5 -3h-4.5h-4.5q-7 0 -12.5 1t-12.5 2q-3 5 -4 8.5t-1 9.5zM165 37v-3q0 -3 1 -5.5t2 -4t4 -1.5h18l5 5l-0.5 1.5t-0.5 3t-0.5 3.5
t-0.5 3t-2 3.5t-4 2.5h-19l-2 -3q-1 0 -1 -2v-3z" />
</svg>
