<?xml version="1.0" standalone="no"?>
<!DOCTYPE svg PUBLIC "-//W3C//DTD SVG 1.1//EN" "http://www.w3.org/Graphics/SVG/1.1/DTD/svg11.dtd" >
<svg xmlns="http://www.w3.org/2000/svg" xmlns:xlink="http://www.w3.org/1999/xlink" version="1.1" viewBox="-10 0 266 256">
   <path fill="currentColor"
d="M198 242l3 6t5 2q3 0 3.5 -2.5t0.5 -4.5v-5q-1 -3 -1 -8t-1 -11.5t-1.5 -13.5t-1 -13t-1.5 -11.5t-1 -7.5q0 -1 -1 -2.5l-2 -3t-2 -2.5l-1 -1h-31l-3 -4v-15l5 -5h2t4.5 -0.5t5 -0.5h4.5q7 -1 12.5 -1t10 -1.5t6.5 -6t2 -14.5v-3t-1 -5q-2 -2 -5 -4.5t-7 -2.5v0
q-1 0 -4.5 0.5t-4.5 0.5q-2 0 -6.5 0.5t-10.5 1t-11 0.5h-7v1v2.5t2 0.5h4t6 1t5.5 2.5t2.5 4.5q0 7 -2 10.5t-4.5 5t-5.5 3t-5.5 3.5t-4 6.5t-1.5 12.5q0 7 3 10.5t8 4.5t11 0.5t12 -0.5q3 0 4.5 2t2 4.5l1 5t0.5 5.5v4t0.5 7t0.5 7v4v6.5v8.5v10v6zM44 232q0 2 0.5 3
t2.5 1q3 0 6 -2t2 -6q1 -18 4 -36l6 -36q0 -2 1 -9t1.5 -14t1.5 -13t2 -7q4 -2 8 -2.5t8 -3.5q1 1 1 4v5q0 2 -0.5 8t-0.5 13t-0.5 15t-1 15t-1 11.5t-1.5 5.5q0 12 -2 23t-2 23q5 0 7.5 -3.5t3.5 -8.5t0.5 -9.5t0.5 -7.5q1 -23 2 -45t1 -46q2 1 4.5 3t5.5 2q1 0 2 -0.5
t1 -2.5l-2.5 -3l-5 -6t-5.5 -5l-3 -2q-3 0 -5.5 2t-4.5 4.5t-4.5 4.5t-5.5 3v-8v-7q0 -2 0.5 -5t0.5 -6t0.5 -5l0.5 -2l2 -1l2 -0.5t5 -0.5t6.5 -0.5t5.5 -0.5h3.5h4.5h4h2l4 3v2t0.5 5t0.5 6v5q0 6 1.5 12t3 12.5t2.5 12.5t1 13q0 2 -0.5 7t-1.5 10.5t-2 10t-2 5.5v46
q0 1 1 1.5t3 1t3.5 0.5h2.5q0 -4 -1 -8t-1 -9v-8.5t0.5 -13.5t1.5 -12.5t3 -5.5q3 0 5 3t3.5 6.5t3.5 6.5t6 3h0.5h0.5l1.5 -1.5l1.5 -1.5v-1q0 -4 -3 -9t-6.5 -10.5t-6.5 -12t-3 -13.5q0 -6 2 -11t5 -10t5.5 -9.5t2.5 -10.5q-5 0 -7.5 2.5t-4 6t-2.5 6.5t-5 3q-2 0 -3 -4.5
t-1.5 -10t-1 -10.5t-0.5 -7v-11q1 -1 3.5 -1.5t4.5 -0.5h4h3l1 -1l2 -2v-1v0l-2 -2t-1 -2q-1 0 -3 0.5t-4 0.5t-3.5 -0.5t-2.5 -0.5t-2 -0.5l-1 -0.5q-1 0 -1 -2v-3v-1q0 -2 0.5 -3.5t0.5 -2.5t1 -1h18l1 -1t1.5 -2t1.5 -2.5t2 -1.5q1 -2 2 -5t1 -6t0.5 -5.5t0.5 -4.5
q0 -4 -2.5 -6.5t-6.5 -2.5l-0.5 0.5l-0.5 0.5v22q0 2 -1.5 3.5t-3.5 2.5t-4.5 1h-3.5h-3h-2l-1 -2v-22q-1 -6 -6 -6h-3.5t-2.5 1v37q2 0 3 2t1 4q0 4 -1.5 6t-4.5 3t-6 1.5t-6 0.5h-2q-2 -1 -6 -1t-6.5 -0.5t-3.5 -0.5l-3 -3q0 -1 -0.5 -6l-1 -10t-2.5 -9t-4 -4t-4.5 1
t-2.5 3v2q1 0 1.5 2.5t0.5 3.5v62q1 1 1.5 3.5t0.5 3.5q-1 5 -2.5 10.5t-2.5 11.5q-3 23 -5 46.5t-8 46.5v2zM184 124q0 -7 2.5 -11.5t10.5 -4.5q3 0 4.5 1.5t2.5 4t1 5v5.5q0 1 -2 4t-3 3h-15l-1 -2v-2v-3zM159 61q0 9 1.5 14t4.5 8t8.5 3.5t14.5 0.5h10q5 -2 7.5 -5
t3.5 -6t1 -8v-8v-11q0 -3 -2.5 -4t-5.5 -2t-6 -1h-5q-6 0 -11.5 0.5t-10 2.5t-7.5 5.5t-3 10.5zM167 68q0 -10 3.5 -14t14.5 -4q4 0 7.5 0.5t5.5 2t3 4t1 7.5q0 3 -0.5 5t-1 3.5t-2 3l-3.5 3.5h-4.5h-4.5q-3 0 -6 -0.5t-6 -1.5t-5 -3t-2 -6z" />
</svg>
