<?xml version="1.0" standalone="no"?>
<!DOCTYPE svg PUBLIC "-//W3C//DTD SVG 1.1//EN" "http://www.w3.org/Graphics/SVG/1.1/DTD/svg11.dtd" >
<svg xmlns="http://www.w3.org/2000/svg" xmlns:xlink="http://www.w3.org/1999/xlink" version="1.1" viewBox="-10 0 266 256">
   <path fill="currentColor"
d="M190 244q0 2 0.5 4.5t4.5 2.5q3 0 4.5 -2t2 -5l1 -6t0.5 -4q0 -13 -0.5 -27t-1.5 -25q0 -1 -0.5 -4.5t-1 -6.5t-1 -6.5t-0.5 -4.5q-2 -2 -5 -4.5t-6 -3.5l-25 -3q-4 0 -6 -2.5t-2 -5.5q0 -2 0.5 -4t2.5 -4q1 0 4.5 -0.5l7 -1t6.5 -1t4 -0.5h7q4 0 8.5 -0.5t8 -2.5t3.5 -6
v-25l-0.5 -0.5t-0.5 -1.5q-1 0 -3.5 -0.5t-3.5 -0.5h-3h-5.5h-5.5h-4h-17.5t-18.5 1v1.5v1.5t0.5 2.5t2.5 1.5h18q1 0 1.5 1.5l0.5 1.5q0 1 -0.5 2l-0.5 1v2.5v3.5t-0.5 4l-0.5 2q-2 4 -4 5t-4 1.5t-4 0.5t-3.5 1.5t-2.5 5.5t-1 12q0 7 2.5 10.5t6 4.5t8.5 1h9.5t8.5 1t6 4
q0 1 1 3t1.5 4.5t1.5 5t1 3.5v4q0 14 -1 28.5t-1 29.5zM51 237q0 2 1.5 4t2.5 2q5 0 9.5 -5t8.5 -13t7 -17t6 -16.5t5.5 -12.5t3.5 -5t2 1l2 2q0 1 0.5 2.5t1 3.5l1 4t0.5 3q1 2 3.5 8.5t5 13.5t5 13t3.5 9l2 2t3 2q2 1 5 -1.5t3 -4.5q0 -5 -2.5 -10.5t-6 -10.5l-7 -10
t-5.5 -10q-2 -6 -4.5 -14t-6.5 -14v-5v-9v-8v-6q0 -11 1 -21.5t1 -21.5q0 -2 -1.5 -5.5t-4.5 -3.5q-2 0 -3 3t-1.5 7t-0.5 7v5v47q0 8 -3.5 14t-6.5 13q0 1 -1 3.5t-2 5.5l-2 6l-1 3q-3 6 -6 10.5t-6.5 9t-6.5 9.5t-5 11v0zM116 130v0v7.5t0.5 12.5t1 12.5t0.5 7.5l-0.5 3
t0 6.5t1.5 6t4 2.5q2 0 3 -1t1.5 -3l1 -4t0.5 -3q0 -5 -1 -8.5l-3 -10.5v-46q0 -1 -1.5 -1.5t-2.5 -0.5t-2 1t-1 2t-0.5 3.5t-1 4.5t-0.5 4.5v3.5v1zM57 181q0 2 1 3t4 1t5 -2t3 -4.5t1 -5.5t1 -5v-5t0.5 -6.5t0.5 -6.5v-4v-2v-5v-5v-4v-3v-5v-4v-3q-1 -4 -2.5 -4.5
t-3.5 -0.5q-3 0 -4 0.5t-1 3.5q0 4 1 8t1 8q0 7 -1 13t-2.5 12.5t-2.5 12.5t-1 13zM176 110q0 -2 0.5 -4.5t2.5 -3.5h3.5h3.5h3h3t2 0.5t1 1.5v12q0 1 -1 2t-2.5 1t-2.5 0.5t-2 0.5q-5 0 -8 -2t-3 -8zM53 96l0.5 1t1 1.5t1 1.5l0.5 1q6 0 12 -5t11 -10.5t10 -10.5t8 -5
l1 0.5l1 0.5l22 22l2.5 1t3.5 2h0.5h1.5q2 0 3.5 -1.5t1.5 -3.5q0 -1 -0.5 -1.5l-1.5 -1.5t-3.5 -3l-5 -4t-4 -3.5l-1.5 -1.5q-3 -2 -5.5 -4t-5 -4.5t-4 -5t-1.5 -5.5t1.5 -3h3.5q6 0 11.5 0.5t10.5 0.5h3h3l1.5 -1t1.5 -2t-1 -2.5t-3 -2t-3.5 -1l-1.5 -0.5q-2 0 -5 -0.5
t-7 -0.5t-7.5 -0.5t-4.5 -0.5q-3 -1 -3 -2v-3q0 -4 0.5 -8.5t0.5 -8.5q0 -3 -0.5 -6t-5.5 -3l-1.5 0.5t-1.5 1.5l-2 1v25q0 3 -2.5 4.5t-6.5 2t-9 1t-9 1.5t-6.5 3t-2.5 5t1.5 4t3.5 1q4 0 7 -1t6.5 -2.5t6.5 -3t7 -1.5q3 0 3.5 1t0.5 4q0 4 -4.5 9t-11 9.5t-12.5 8.5t-10 6
l-0.5 1t-0.5 2zM152 54q0 14 6 18.5t19 4.5h5t8 -1t7.5 -2.5t3.5 -4.5v-26q0 -1 -1 -2t-2.5 -1.5t-2.5 -1t-2 -0.5h-2h-4h-4h-3h-9t-9 1.5t-7 5t-3 9.5zM162 59q0 -4 1.5 -6.5t3.5 -3.5t6 -1.5t8 -0.5q6 0 9 1.5t3 7.5q0 3 -1.5 7.5t-5.5 4.5h-20q-3 0 -3.5 -3t-0.5 -6z" />
</svg>
