<?xml version="1.0" standalone="no"?>
<!DOCTYPE svg PUBLIC "-//W3C//DTD SVG 1.1//EN" "http://www.w3.org/Graphics/SVG/1.1/DTD/svg11.dtd" >
<svg xmlns="http://www.w3.org/2000/svg" xmlns:xlink="http://www.w3.org/1999/xlink" version="1.1" viewBox="-10 0 266 256">
   <path fill="currentColor"
d="M153 142q0 7 3.5 9t8.5 2t11 -0.5t10.5 1.5t8 8t3.5 18v65q0 3 1 3.5t3 0.5q3 0 4.5 -2.5t2.5 -6.5v-18v-19q0 -2 -0.5 -8t-1.5 -12.5t-1.5 -12t-1.5 -8.5l-0.5 -2t-1.5 -2v-2q0 -1 -0.5 -3l-1 -4t-1 -3.5l-0.5 -1.5h-30q-4 0 -5 -2t-1 -6v-2.5v-2.5l3 -3t3 -2h29
q4 0 6 -3t3 -7t1.5 -8t0.5 -7q0 -1 -0.5 -3l-1 -4t-2 -3.5t-3.5 -1.5h-47q-1 0 -2.5 1t-2.5 3l4 3h14q1 0 1.5 1.5t1 3.5t0.5 4v2q0 5 -1.5 7.5t-3.5 4l-4 3t-4 4t-3.5 6.5t-1.5 10zM52 240q0 2 1.5 2h3.5q4 0 8.5 -5.5t9 -14t9 -19t7.5 -20.5t5 -18.5t2 -13.5l0.5 -0.5
t0.5 -1.5h1q3 0 4.5 3t2.5 7t1 8t1 5q4 12 9 25t12 24l1 1.5t2 2.5t2 2.5l1 1.5q1 1 1 3t0.5 3.5t1.5 2.5t2 1q4 0 5 -2t1 -5t-0.5 -4.5t-1 -2.5t-1.5 -2.5t-2 -3.5q-4 -9 -9 -18.5t-10 -20t-8.5 -20.5t-3.5 -20v-2q6 -5 9.5 -11.5t9.5 -12.5h1q2 0 3 2t1.5 5t0.5 6v4
q0 5 -1.5 9.5t-3.5 8l-4 7t-2 7.5q0 1 1 3t3 2h1q5 -5 7.5 -10t3.5 -10t1.5 -11t0.5 -12q0 -9 -2 -16.5t-10 -12.5v-4v-3q0 -6 0.5 -9.5t1.5 -9.5q-1 -2 -3 -2q-3 0 -4 2t-1.5 4l-1 4t-0.5 3v5v8v6.5v5.5q0 5 -4 10.5t-8 8.5l-3 -3q-1 0 -1 -2t-0.5 -4t-0.5 -4.5v-4.5v-3v-8
v-8v-8v-5v-8v-8v-5t0.5 -4.5t2.5 -3.5q1 0 3 1l5 2.5l5 2.5t3 2q2 1 4.5 3t5.5 4.5t6 4t5 1.5h2.5t1.5 -2q0 -3 -3 -7t-7.5 -7t-10 -5.5t-10 -4.5t-7.5 -3.5l-3 -1.5v-23q0 -1 -2 -1h-3t-3 0.5t-2 2.5v19q0 2 -3.5 4.5t-9.5 5t-12.5 5.5t-12.5 6t-10 7t-4 9v1l1.5 1.5
l1.5 1.5h1q3 0 8.5 -4t12 -9t12.5 -9t11 -4q1 0 2 0.5t1 2.5v62l-0.5 2.5t-1 6l-1 7t-0.5 5.5l-1 3l-1 3q-3 23 -12.5 43t-20.5 40l-5 7.5t-3 8.5zM53 125q0 4 1.5 11.5t4 15.5t5.5 13.5t7 5.5q2 0 3.5 -1t1.5 -4q0 -5 -2 -10l-4 -10t-3.5 -10t-1.5 -11q0 -2 -0.5 -4.5
t0 -4.5t1.5 -4t4 -2t5 4t3 8.5t2.5 8.5t4.5 4q4 0 4 -4t-1.5 -8t-3 -7.5t-3 -7.5t-1.5 -8t2 -7.5t2 -7.5v-1q0 -1 -1 -1v-3.5t-0.5 -4.5t-0.5 -3.5v-1.5l-3 -3l-3 3q1 9 -2.5 15.5t-8 12.5t-8.5 12.5t-4 14.5zM180 116v-3t-0.5 -4t-0.5 -4v-3v-0.5v-0.5q0 -2 1.5 -3
t3.5 -1.5t3 -0.5h4h5q3 1 3.5 5t0.5 6q0 7 -4 8.5t-10 1.5h-3t-3 -1zM158 55q0 9 2.5 14.5t10.5 8.5h2h3h3h2h7t7.5 -1t6 -3.5t2.5 -6.5v-21q0 -3 -2.5 -4.5t-5.5 -2t-6 -0.5h-4q-4 0 -9 0.5t-9 2t-7 5t-3 8.5zM168 65v-6v-3v-4t1 -3.5t4 -1.5h19q1 0 1.5 1.5t1.5 3t1 3v2.5
q0 4 -1 7.5t-5 5.5h-4h-3q-4 0 -8.5 -0.5t-6.5 -4.5z" />
</svg>
