<?xml version="1.0" standalone="no"?>
<!DOCTYPE svg PUBLIC "-//W3C//DTD SVG 1.1//EN" "http://www.w3.org/Graphics/SVG/1.1/DTD/svg11.dtd" >
<svg xmlns="http://www.w3.org/2000/svg" xmlns:xlink="http://www.w3.org/1999/xlink" version="1.1" viewBox="-10 0 266 256">
   <path fill="currentColor"
d="M186 249q1 2 3 2q3 0 4.5 -1.5t2.5 -4t1 -5v-4.5q0 -17 -2 -34l-4 -34q0 -1 -0.5 -3t-1.5 -3q-2 -4 -5.5 -5.5t-7.5 -2.5t-8.5 -1.5t-8 -1.5t-5.5 -4t-2 -8q0 -6 3 -8t8 -2.5t11 -0.5t11 -1.5t8.5 -5.5t3.5 -12q0 -1 -0.5 -3.5t-1 -5.5t-1.5 -6t-3 -3h-44q-3 0 -5 1.5
t-2 4.5q0 1 1.5 2t2.5 1h2t2 -0.5t2.5 -0.5h1.5h3q6 0 6 7v2q0 1 -0.5 2.5t-0.5 3.5t-0.5 3.5t-0.5 2.5q-1 2 -3.5 3t-4.5 2t-4 2.5t-3 4.5v4v4q0 9 2 13.5t6 6t10 2t14 1.5l3 2q2 11 3.5 21t2.5 20.5t1.5 21t-0.5 21.5zM92 166q0 2 -0.5 6.5t-0.5 9.5q0 4 0.5 8.5t0.5 6.5
q0 1 0.5 5t1.5 8.5t1.5 8.5t0.5 5q1 2 1.5 5.5t1.5 7t3 6t5 2.5t4.5 -2t1.5 -5v-1v-1q0 -1 -1 -2.5t-2 -3.5l-2 -4l-1 -2q-4 -8 -6.5 -18t-2.5 -18v-3.5v-5.5t1 -6t2 -3q0 -1 1 -1h2.5t2.5 -0.5l1 -0.5q5 -1 10 -5t8 -7l2.5 -2.5t3 -3.5t2.5 -3l1 -1v-6h-4q-2 1 -4 3.5t-5 5
t-5.5 4.5t-5.5 3q0 1 -2.5 0l-2.5 -1q0 -5 3 -8.5t6.5 -7t6.5 -7t3 -8.5q0 -2 -2 -2.5t-3 -0.5q-2 0 -3.5 1t-2 2.5t-1.5 3t-2 2.5q-1 2 -3 5.5t-4.5 7t-4.5 7t-3 4.5q0 1 -0.5 1.5l-0.5 0.5q-3 0 -5.5 -2.5t-2.5 -4.5q0 -3 2.5 -7t5.5 -7.5t5 -7t2 -6.5q0 -2 -0.5 -2.5
t-2.5 -0.5q-3 0 -6 4.5t-6 10.5t-4.5 11.5t-1.5 7.5q0 4 1 6t2.5 3t3.5 2t4 3zM59 178q0 15 0.5 29.5t3.5 29.5q1 3 1 4t3 1t4 -2.5t1 -5.5q0 -15 -2 -29.5t-2 -29.5v-11q0 -7 0.5 -13.5t2 -12.5t4.5 -10q7 -7 14 -15.5t15 -15.5v-25q0 -2 2.5 -2.5t6 -0.5t6.5 -1t3 -4
q0 -2 -1 -3t-3 -1h-2h-7.5t-11 0.5t-10.5 0.5h-7q-2 1 -2.5 2t-0.5 3v1.5t1 1.5q2 0 5 -0.5t6 0t5 2t2 4.5v8t-0.5 8t-2 7.5t-4.5 6.5q-2 1 -5 4t-6 6.5t-6 6.5l-4 4q-2 7 -4.5 16t-4.5 16v20zM177 99q4 0 7 1.5t3 6.5q0 7 -2.5 10t-9.5 3h-4t-3 -3v-15q0 -1 1 -1.5t2.5 -1
t3.5 -0.5h2zM108 97q0 3 1.5 3h3.5q9 0 14 -3.5t6.5 -9.5t2 -13.5t1.5 -15.5v-2q0 -7 -2.5 -11t-6 -6t-8 -3t-8 -1.5t-6 -1.5t-2.5 -3q0 -1 -0.5 -3.5t-0.5 -5t-0.5 -5t-0.5 -3.5l-1 -0.5t-2 -0.5h-1t-2 3t-1.5 7t0 7.5t0.5 4.5l-2 2q-3 0 -8.5 0.5t-10 2t-8.5 4t-4 8.5
q-1 2 -1 5t-0.5 7t-0.5 7v3q0 2 0.5 4.5t1 5.5l1 6t0.5 4q3 4 7 4.5t8 0.5q1 0 4 -0.5t4 -0.5t1 -1v-2q0 -2 -2 -3t-4 -1.5t-5 -1t-4 -1.5q-2 -2 -2.5 -5t-0.5 -6v-6.5v-6.5q0 -7 3.5 -11t8.5 -6t11 -2.5t12 -0.5h5.5t6.5 0.5t6 1.5t4 4q1 2 1 3.5t2 2.5q0 1 0.5 4t0.5 4
t-0.5 4l-0.5 3q0 1 -1.5 3.5l-1.5 2.5v2v3v3v1q-1 3 -4 4.5t-6 2t-5.5 1.5t-2.5 4zM149 55v5.5t1 7t2.5 6t5.5 2.5h2q1 0 3 0.5t3 0.5h2q10 0 15.5 -2t8 -6t3 -10.5t0.5 -15.5q0 -4 -2.5 -5.5t-6 -2.5t-7.5 -1h-5q-12 0 -18.5 4.5t-6.5 16.5zM156 57q0 -2 0.5 -4t1.5 -4.5
t3 -4t4 -1.5h20q1 0 1 1v2v2v2.5t-0.5 5t-0.5 4.5v3q-2 4 -5.5 5t-7.5 1q-7 0 -11.5 -2.5t-4.5 -9.5z" />
</svg>
