<?xml version="1.0" standalone="no"?>
<!DOCTYPE svg PUBLIC "-//W3C//DTD SVG 1.1//EN" "http://www.w3.org/Graphics/SVG/1.1/DTD/svg11.dtd" >
<svg xmlns="http://www.w3.org/2000/svg" xmlns:xlink="http://www.w3.org/1999/xlink" version="1.1" viewBox="-10 0 266 256">
   <path fill="currentColor"
d="M192 249q1 1 2 1.5l1 0.5q3 0 4.5 -2.5t2 -5.5l1 -6t0.5 -5v-6q0 -3 -1 -11.5t-1.5 -18t-1 -18t-1.5 -12.5q-1 -8 -4.5 -12t-8 -5t-9 -1t-8 -0.5t-6 -3t-2.5 -8.5q0 -5 3.5 -8t7.5 -4h4.5t7.5 -0.5t7.5 -0.5h4.5q4 -1 6.5 -3.5t3.5 -6.5t1 -8v-7q0 -2 -1 -4t-2.5 -4
t-3.5 -3.5t-4 -1.5h-1q-1 0 -2 0.5t-2.5 0.5t-3 0.5l-1.5 0.5h-4h-6h-6h-4q-2 1 -4 1.5t-4.5 0.5t-4 1t-2.5 4l1 1h20l0.5 1.5l0.5 1.5q1 1 1 4v5v4q0 3 -1 4l-0.5 0.5l-0.5 0.5q-5 3 -8 5t-5 4.5t-3 6.5t-1 11q0 6 2 9t5 4t7 1t7.5 0.5t7.5 1t6 3.5q2 11 3.5 23.5t1.5 24.5
q0 8 -1 15.5t-1 15.5v8zM90 152l-0.5 1t-0.5 2q-1 13 -2 23.5t-3 23.5q-1 5 -2.5 10t-3.5 10t-3.5 9.5t-1.5 8.5q7 0 10 -2.5t4 -11.5q5 -25 8 -51.5t3 -52.5q0 -6 -2.5 -8.5t-6 -4t-7.5 -1.5h-9q-1 -1 -2.5 -3.5t-1.5 -4.5q0 -5 4 -7t9.5 -3t9.5 -2.5t4 -3.5v-18l16 -3
l0.5 -1.5t0.5 -2.5v-1v0q0 -1 -0.5 -1.5l-0.5 -0.5h-23q-1 0 -2.5 -0.5t-2.5 -0.5v-1q0 -1 2 -5.5t5 -9.5t5.5 -8.5t3.5 -3.5q2 0 5 4t7 10t8.5 13.5t8.5 13.5t7 10t5 4h1q1 0 2 -1.5l1 -1.5v-1v-1q0 -1 -1 -2.5t-2 -4t-2 -4t-1 -2.5l-1.5 -1t-1.5 -2l-1 -2t-2 -3.5t-2 -3.5
l-1 -2q-1 -1 -2.5 -3t-3.5 -4l-4 -4l-2 -2q-1 -1 -2 -2.5t-2 -4t-2.5 -4.5l-1.5 -2q-1 -1 -2 -3t-2.5 -4t-3 -3.5t-2.5 -1.5q-3 0 -6 4t-5.5 9t-5 9.5t-3.5 7.5q-1 1 -4 5t-6.5 8.5t-7.5 10t-7 10.5t-5 8.5t-2 4.5q0 3 2 3q6 0 8.5 -2t4 -5t2.5 -6t3.5 -6t6.5 -5t11 -2
q4 0 4 2v6q0 3 -2 4.5t-5 3t-7 2.5t-7 3t-5.5 5.5t-2.5 8.5t2.5 9t2.5 9q0 2 -0.5 5.5t-1.5 7.5t-2 7t-1 5q-2 18 -5.5 36t-7.5 37v1q0 3 1 3.5t3 0.5q3 0 4.5 -3t2.5 -7t1.5 -8t0.5 -5q3 -11 6 -13.5t5.5 -2t4.5 1t3 -3.5q0 -1 -0.5 -2.5t-1.5 -1.5h-10v-1.5t-0.5 -4
t0.5 -3.5q0 -5 2.5 -6t5.5 -1.5t5.5 -1t2.5 -3.5v-1q-3 -1 -5.5 -1t-4.5 -0.5t-3 -2t-1 -4.5q0 -5 2 -6t4.5 -1.5t5 -0.5t4.5 -3q-1 -2 -2.5 -3t-3.5 -1.5t-4 -0.5h-3v-2.5v-2.5q0 -5 2 -6.5t6 -1.5h3q1 0 2.5 0.5t2.5 1.5t1 3v29zM105 158q0 3 0.5 9t2 14.5l3 17t4 16
t5.5 12.5t6 5t3.5 -2t0.5 -5q0 -2 -1.5 -5.5t-3 -6.5t-3.5 -6.5t-3 -6.5q-4 -12 -5 -24.5t-1 -25.5q0 -17 3 -33t8 -32v0q0 -2 -1.5 -3.5t-3.5 -1.5q-1 0 -3 5t-3.5 13t-3 17.5t-2.5 18t-1.5 15t-0.5 9.5zM124 166q0 1 1.5 8t4 14t5 13t5.5 6q4 0 4 -4t-1 -6.5t-3 -5
t-3.5 -5t-2.5 -5.5q-1 -6 -1 -14v-14t1 -12.5t2 -12l2 -11t1 -11.5q0 -2 -0.5 -3.5t-2.5 -1.5q-3 0 -4 2.5t-1.5 5t-0.5 5.5v4l-0.5 2t-1 5t-1 5l-0.5 2q0 2 -0.5 6t-1 8.5l-1 9t-0.5 6.5v2v2zM179 111q0 -6 1 -11t7 -5q3 0 6.5 1.5t3.5 5.5v0.5v0.5l-1.5 6t-1 3.5t-2 2
t-4.5 0.5h-3q-1 0 -2.5 -0.5t-2.5 -1.5t-1 -2zM157 64q4 3 9.5 3.5t9.5 0.5q6 0 11 -1t8.5 -3t5.5 -6.5t2 -11.5q0 -5 -1 -11t-7 -8h-2h-3h-3h-2h-12t-11 2q-3 2 -4.5 5.5t-1.5 7.5v3v4t0.5 6t0.5 5.5v3.5zM163 50q0 -6 3 -8.5t7 -3.5t8 -1h8q4 0 5 3.5t1 5.5q0 6 -1 8.5
t-4 3.5t-6.5 1.5t-7.5 0.5q-5 0 -9 -2t-4 -8z" />
</svg>
