<?xml version="1.0" standalone="no"?>
<!DOCTYPE svg PUBLIC "-//W3C//DTD SVG 1.1//EN" "http://www.w3.org/Graphics/SVG/1.1/DTD/svg11.dtd" >
<svg xmlns="http://www.w3.org/2000/svg" xmlns:xlink="http://www.w3.org/1999/xlink" version="1.1" viewBox="-10 0 266 256">
   <path fill="currentColor"
d="M189 246v3.5t3 1.5q2 0 3.5 -1.5t2.5 -3.5t1.5 -4t0.5 -3q0 -2 0.5 -7t1 -10.5t1 -10.5t1.5 -7v-3v-5v-6v-5v-11q0 -5 -0.5 -10.5t-2 -11t-4.5 -10.5q-7 -2 -14 -3l-14 -2q-3 -1 -4 -5t-1 -7t3 -4.5t7.5 -2t10 -1t10.5 -0.5t8.5 -1t4.5 -3q0 -1 0.5 -3.5t0.5 -5.5
t0.5 -5.5t0.5 -3.5v-1q0 -3 -3.5 -6.5t-6.5 -3.5h-3h-5.5h-5.5h-3h-5h-5h-5h-2h-3.5t-4.5 0.5t-3.5 1.5t-1.5 3v2.5t2 1.5h17l4 2v1.5v2.5q0 5 -1.5 7t-3.5 3t-4 1.5t-4 2.5t-3.5 6t-1.5 12v3v3v3v2q2 3 5.5 4t8 1.5t9 0t6.5 -0.5q2 1 3 4l2 6v13q0 19 -1.5 38t-1.5 38z
M130 204q0 10 -2 20t-2 21q7 0 9 -5t3 -10q0 -32 1 -62.5t1 -62.5v-20q0 -2 -0.5 -4.5l-1 -5t-2 -4.5t-4.5 -2q-7 -1 -15.5 -2t-15.5 -1q-3 0 -8.5 0.5t-10.5 0t-8.5 -2.5t-3.5 -8q0 -4 3 -6t7 -2h44q3 0 5.5 -2t4 -4.5t2.5 -6t1 -5.5q0 -7 -2.5 -10t-9.5 -6q-3 0 -10 -0.5
t-15 -0.5t-15 -0.5t-10 -0.5h-7q-1 0 -3.5 0.5t-4 1t-2.5 2.5t-1 4v0.5v0.5q1 0 2 1.5l1 1.5h61q2 0 3 2t1 4v1v1q0 1 -0.5 3t-0.5 3q-1 0 -2.5 0.5t-3.5 1t-3.5 0.5h-2.5h-8.5h-14.5h-13.5h-8.5q-2 1 -3 3t-1.5 4.5t-0.5 5v4.5v6t1 5.5t3 4t5 1.5h5h7h7h4q2 0 6.5 0.5
t9.5 0.5t9 0.5t6 0.5q4 2 5.5 6t1.5 8.5v9v7.5v19q0 2 -0.5 8t-0.5 13.5t-0.5 14t-0.5 8.5v4.5t-1 4.5v4.5t0.5 6t0.5 6.5v5v3zM47 199v2t2 1h12q14 0 27 -1t27 0q4 0 5 -1t1 -3l-0.5 -2t-1.5 -2h-26v-15l0.5 -1l0.5 -1q2 -1 5 -1t6 -0.5t5 -1.5t2 -4v-1l-0.5 -0.5
t-0.5 -1.5q-2 0 -5 0.5t-6 0t-5 -1.5t-2 -4q0 -6 3 -8.5t6.5 -3t8 -2t6.5 -5.5t3 -8.5t1.5 -9.5t0.5 -10v-9q0 -8 -4 -12t-9.5 -6t-12.5 -2h-13q-9 0 -13.5 1.5t-7 5t-3.5 9t-1 13.5q0 6 0.5 12.5t1.5 13.5q1 4 3.5 6t6 3t7.5 1.5t6 1.5q1 0 1.5 2t0.5 3q0 2 -0.5 5t-3.5 4
h-4h-6h-7h-4q-2 1 -4.5 2t-3.5 3q4 3 6.5 4t7.5 1q3 0 6.5 -1t6.5 -1h1l1 2v6q0 4 -1 8t-7 4h-24q-1 0 -1.5 2t-0.5 3zM73 140q0 -2 2 -4t4.5 -3.5t5.5 -2.5t4 -1q4 0 7.5 2.5t3.5 6.5q0 2 -1 3.5t-3 1.5q-1 1 -4 1h-3h-4t-5.5 -0.5t-4.5 -1t-2 -2.5zM99 125v-0.5v-0.5
l1 -0.5l1 -0.5q0 -1 1.5 -1.5t2.5 -1.5t2.5 -1.5l1.5 -0.5l0.5 -0.5t1.5 -0.5v14l-3 3l-9 -8v-0.5v-0.5zM67 124q0 -2 1.5 -3.5t4 -2.5t5 -1.5t3.5 -0.5q2 0 3 0.5t2 2.5q-3 5 -6 7t-9 2q-2 0 -3 -0.5t-1 -3.5zM91 110q0 -2 2 -4.5t5 -5t6 -4t5 -1.5q3 0 3 2v4t-1.5 4.5
t-4 5t-5 4t-4.5 1.5h-1q-2 -2 -3.5 -3t-1.5 -3zM68 102l1 -1h1q2 0 3.5 2t1.5 4t-2.5 2.5t-4.5 0.5v-8zM189 92q5 0 8 0.5t3 5.5q0 10 -11 10v0q-1 0 -2.5 -0.5t-1.5 -1.5v-13l1.5 -0.5t2.5 -0.5v0zM81 97q0 -2 1.5 -3t3.5 -1.5t4 0t4 0.5q0 3 -2.5 5t-5.5 4q-2 -1 -3.5 -2
t-1.5 -3zM161 47q0 11 5 16.5t16 5.5q8 0 13 -1t8 -3.5t4 -8t1 -13.5q0 -2 -0.5 -4t-1.5 -4t-2.5 -3.5t-3.5 -1.5h-29q-3 0 -5 2t-3 5t-1.5 5.5t-0.5 4.5zM171 50q0 -5 2.5 -9t8.5 -4h3.5t5.5 1t5.5 2t1.5 3l-1 13q0 2 -1.5 3t-3.5 1.5t-4 0.5h-3q-5 0 -9.5 -2.5t-4.5 -8.5z
" />
</svg>
