<?xml version="1.0" standalone="no"?>
<!DOCTYPE svg PUBLIC "-//W3C//DTD SVG 1.1//EN" "http://www.w3.org/Graphics/SVG/1.1/DTD/svg11.dtd" >
<svg xmlns="http://www.w3.org/2000/svg" xmlns:xlink="http://www.w3.org/1999/xlink" version="1.1" viewBox="-10 0 266 256">
   <path fill="currentColor"
d="M81 195q0 7 2.5 13t5.5 11t7 10.5t7 10.5l2 4t2 3.5t2.5 3t4.5 1.5t4 -2t1 -4v-3.5t-2 -3.5l-5 -5t-6 -6.5t-5 -7.5t-2 -7q0 -7 3 -11t7.5 -7t9.5 -6t9 -7t7 -10t3 -15q0 -7 -3 -11.5t-7 -8t-7.5 -7.5t-3.5 -11q0 -2 3 -4t6.5 -5.5t6 -8t2.5 -10.5v-48q0 -1 -1.5 -4
t-3.5 -3q-3 0 -4 2t-1.5 5t-0.5 6t-1 4q-8 -1 -11.5 -5t-5.5 -8.5t-2 -9.5v-9t-1 -6.5t-5 -2.5q-2 0 -2.5 1t-1 2.5t-0.5 3.5v3q0 4 1 8t1 8t-1.5 6t-4.5 3.5t-6 2.5l-6 2q-1 0 -2.5 -0.5l-1.5 -0.5v-12l-2.5 -1t-3.5 -2h-1.5h-0.5q-2 0 -2.5 1t-0.5 3q0 4 1 8.5t1 9.5
t-1 10t-1 10q0 8 2 14.5t4 14.5q0 3 2.5 4t5.5 2.5t6 2.5t3 4q0 6 -4.5 10t-10 8.5t-10 10t-4.5 13.5q0 11 1.5 17t4 9t5.5 3.5t5 0.5q3 0 5 0.5t3 2.5zM187 186v56l1 2t1 3l1.5 1.5l0.5 0.5h1q3 0 4.5 -3t2.5 -6v-15q0 -11 -0.5 -21.5t-1.5 -21.5q0 -3 -1 -6.5t-2 -7.5
t-1.5 -8t0.5 -8l-9 -8h-2h-3h-3.5t-6 0.5t-6 0.5h-4.5q-4 -3 -4 -7q0 -7 3 -9.5t8 -3t11 -1t10.5 -2t8 -5t3.5 -11.5q0 -4 -1.5 -7t-6.5 -5h-8q-10 0 -20 0.5t-20 2.5v0.5v0.5q0 3 2.5 3h6.5h8t6 2v3q0 7 -1.5 10t-3.5 4.5t-4.5 2t-4.5 2t-3.5 4.5t-1.5 9q0 4 0.5 8t4.5 6
q4 1 9 0.5t10 0t8.5 2.5t4.5 7v5t0.5 6.5l1 7t1.5 5.5zM90 148l-1.5 -0.5l-1.5 -0.5q-1 0 -2.5 1t-2.5 1v3t-0.5 4t-0.5 4v2v6.5v5v4.5t-1 6q-1 0 -1.5 0.5l-0.5 0.5q-4 0 -6 -2.5t-3 -6t-1.5 -7t-0.5 -5.5q0 -4 0.5 -6.5t2 -4.5t3 -4.5t4.5 -5.5q9 -4 12.5 -10t3.5 -15
q0 -1 2 -1h3h6t6 1v3t0.5 4.5l1 5t1.5 3.5q1 2 3.5 3t3.5 3q6 4 8.5 9t2.5 13q0 7 -5.5 13t-12.5 9q-1 -1 -1.5 -3.5t-0.5 -4.5l0.5 -2.5t1.5 -2.5v-3t0.5 -3.5t0.5 -3v-1.5q0 -1 -0.5 -5.5t-1 -6.5t-1 -2.5t-1.5 0t-2.5 1t-2.5 0.5v11.5t-0.5 11t-1.5 10.5t-4 11l-2.5 5
t-2.5 3h-1l-0.5 -1.5t-1 -3.5t-1 -4.5t-0.5 -4.5v-7v-11v-11.5v-7.5zM173 104l3 -3h1.5h2.5h5t4 2q1 0 1 2v2q0 3 -1.5 5t-4 3t-5.5 1h-6v-12zM79 102q0 -2 0.5 -3t2.5 -2h7t10 -0.5t10 -0.5h6h4h3t1 2q0 4 -1.5 6.5t-4 3.5t-5.5 1.5t-7 0.5q-2 0 -6 -0.5t-8.5 -1t-8 -2
t-3.5 -4.5zM75 88v-1q0 -1 0.5 -4t1.5 -3l0.5 -0.5l0.5 -0.5q10 -1 19.5 -3t20.5 -2h1q2 0 3 0.5l2 1t1 1.5v10l-2 2q-10 -1 -20 0t-20 1h-6q-1 0 -1.5 -0.5l-0.5 -0.5v-1zM154 80q1 0 3.5 0.5t5.5 1l6 1t4 0.5h2q1 0 4 -1t6 -2.5t5.5 -3.5t2.5 -4v-22l-4 -4h-1.5t-3.5 -0.5
t-5 -0.5h-4h-2h-6.5t-7 0.5t-7 2t-5.5 4.5v10v5.5t0.5 4.5t2 4t4.5 4zM155 66q0 -3 0.5 -6.5t3.5 -4.5q6 -1 10 -1.5t8 -0.5t5.5 1.5t1.5 4.5q0 1 -0.5 3.5t-1.5 4.5t-1.5 4t-1.5 2h-21q-3 0 -3 -3v-4zM99 52q4 0 7.5 1t6.5 2.5t6.5 3.5t6.5 3q0 1 -0.5 3t-2.5 2
q-12 2 -23.5 2.5t-23.5 0.5q0 -1 3 -4t7 -6.5t7.5 -5.5t5.5 -2z" />
</svg>
