<?xml version="1.0" standalone="no"?>
<!DOCTYPE svg PUBLIC "-//W3C//DTD SVG 1.1//EN" "http://www.w3.org/Graphics/SVG/1.1/DTD/svg11.dtd" >
<svg xmlns="http://www.w3.org/2000/svg" xmlns:xlink="http://www.w3.org/1999/xlink" version="1.1" viewBox="-10 0 266 256">
   <path fill="currentColor"
d="M193 249q0 1 1 1.5t2 0.5q3 0 5 -3t3 -5v-4v-6v-6v-3v-5v-6v-6v-2q0 -3 -1 -10.5t-2 -15.5t-2 -15.5t-2 -10.5q-1 -6 -5.5 -8t-10 -2t-11.5 0.5t-11 0t-8.5 -3t-3.5 -9.5v-2v-3q3 -2 7 -3.5t8 -1.5q2 0 6.5 -0.5t9.5 -1t9.5 -1t6.5 -0.5l5 -5l0.5 -3t0.5 -6.5v-6.5
l0.5 -1l0.5 -1q0 -3 -1.5 -6.5t-3.5 -5.5h-4h-6h-5h-4h-10h-9.5t-9.5 0.5t-11 1.5l-2 2l-2 2v0.5v0.5v0.5v0.5q0 1 1 2t2 1h23v17q0 1 -1 1.5l-1 0.5q-5 1 -8.5 2.5t-5.5 3.5t-3 5.5t-1 9.5q0 1 0.5 4t1.5 6t2.5 5.5t3.5 2.5h36q1 0 2.5 4t2.5 8.5l2 9l1 4.5q0 1 0.5 3.5
t0.5 5.5t0.5 5t0.5 3v11v16v16.5v10.5zM54 242v2.5t2 1.5q6 0 9.5 -6.5t5.5 -16.5t2.5 -22t1.5 -22t2.5 -16.5t5.5 -6.5h11q1 0 2 2.5l1 2.5q0 10 0.5 20.5t1.5 20.5t2.5 20t2.5 21l1 1.5t2 1.5h0.5h0.5q2 0 4.5 -2t2.5 -4t-0.5 -5l-1 -6t-1.5 -5.5t-2 -4.5q-1 -11 -3 -23
t-2 -24v-6.5t1 -4.5t2.5 -4t4.5 -4q3 -3 4.5 -7.5t2 -9.5t0.5 -9.5v-8.5v-7q0 -1 -0.5 -5t-1 -9.5t-1.5 -9.5t-1 -5q0 -7 -1.5 -11t-4.5 -5.5t-7.5 -1.5h-11.5h-12q-6 2 -11 5t-7 9q0 5 -0.5 8.5l-1 7t-1 6.5t-0.5 7q0 5 1.5 10t1.5 10q0 1 -0.5 3l-0.5 2v5q0 4 1.5 6.5
t3.5 5t3.5 4.5t1.5 6q0 17 -3.5 34.5t-8.5 33.5q-1 4 -2.5 7.5t-1.5 7.5zM69 132l0.5 -2t0.5 -3h4.5t7.5 -0.5t7.5 -0.5h4.5l1.5 -0.5t3.5 -1.5t3.5 -1.5l1.5 -0.5h1l3 3l2 2l-1 13q-1 2 -4.5 3.5t-8 2t-8.5 1t-5 0.5q-7 0 -10.5 -4.5t-3.5 -10.5zM68 108v-3t2 -3
q4 -1 7.5 -1t6.5 -0.5t6 -0.5h8h7q1 0 2 1t2 1l1 11l-3 3h-37q-1 0 -1.5 -1t-0.5 -2v-2v-3zM180 91q7 0 9 4t2 10v0q0 1 -1.5 2l-1.5 1q-1 1 -3 1t-4 0.5t-4 0.5h-2q-2 0 -4.5 -0.5t-2.5 -1.5v-14l2 -0.5t3 -0.5t3.5 -1l2.5 -1h1zM69 86q0 -5 3.5 -7.5t8 -3.5t9 -1h7.5
q2 0 5 -0.5t5 1.5q0 1 0.5 5t1.5 5v1q0 1 -0.5 3t-1.5 2h-31q-3 0 -5 -1.5t-2 -3.5zM144 40q0 5 1 9.5t3 8.5t5.5 6.5t9.5 2.5h2q1 0 3.5 -0.5t3.5 -0.5q8 -1 13 -2t8.5 -4t4.5 -8t1 -14q0 -6 -1 -10t-4 -5.5t-7 -2t-10 -0.5q-5 0 -11 0.5t-11 2.5t-8 6t-3 11zM159 33
q1 0 4 -0.5t6.5 -0.5t6 -0.5t3.5 -0.5h3q5 0 6 2t1 6v4.5t-1 5t-2.5 4.5t-4.5 2h-21l-2 -1.5t-3 -1.5q0 -1 -0.5 -1.5l-0.5 -0.5v-14q0 -1 2.5 -2zM61 32q0 7 1.5 11t5 5.5t8.5 1.5h12h3h5h5h3q8 -3 10 -8.5t2 -13.5q0 -5 -1.5 -8t-5 -5t-7.5 -2.5t-9 -0.5h-13t-10 2t-6.5 6
t-2.5 12zM71 33q0 -4 2.5 -6t5.5 -3t7 -1h6h10q4 0 4.5 3.5t0.5 6.5t-2 5t-4.5 3t-5.5 1h-6h-6.5t-6 -1t-4 -3t-1.5 -5z" />
</svg>
