<?xml version="1.0" standalone="no"?>
<!DOCTYPE svg PUBLIC "-//W3C//DTD SVG 1.1//EN" "http://www.w3.org/Graphics/SVG/1.1/DTD/svg11.dtd" >
<svg xmlns="http://www.w3.org/2000/svg" xmlns:xlink="http://www.w3.org/1999/xlink" version="1.1" viewBox="-10 0 266 256">
   <path fill="currentColor"
d="M77 247q0 3 2 3.5t5 0.5q6 0 10 -6t6.5 -13.5t5 -15.5t3.5 -12q1 -2 3 -4.5t2 -3.5v-22q0 -4 -2 -7t-5 -5.5t-5 -5.5t-2 -8q0 -2 2.5 -3.5t7 -2t9.5 -0.5t9.5 -0.5t7 -2t2.5 -4.5v-1l-0.5 -0.5l-0.5 -0.5h-3.5h-3.5q-18 0 -37.5 1.5t-37.5 3.5q-4 0 -5 3t-1 6h34l8 3
q0 5 2 9.5t4 8.5l4 8t2 9q0 13 -4.5 25.5t-11.5 23.5q-1 0 -2.5 1.5t-3 3.5l-3 4t-1.5 4zM190 222v3.5t0.5 4.5t2 3.5t4.5 1.5q2 0 3 -1t1.5 -3l1 -4t0.5 -3q0 -15 -1 -29t-1 -29q-1 -2 -1.5 -3.5t0 -3t0.5 -3.5t-1 -4q-1 -6 -7 -8t-12.5 -2.5t-11.5 -2t-5 -6.5
q0 -7 2.5 -10.5t6.5 -5t9 -1.5h9q5 0 8.5 -0.5t4.5 -3.5q2 -4 2 -7v-8v-5t-0.5 -6t-2 -5.5t-4.5 -2.5h-11h-9h-7t-7.5 0.5t-8.5 0.5q-1 0 -2 0.5t-2 1.5q0 2 -0.5 4.5l-0.5 2.5h16l3 4v17l-0.5 0.5l-1.5 1.5l-2.5 2t-4.5 3.5l-4 3t-3 2.5q-1 2 -1.5 3.5t-0.5 3.5q0 9 3 13.5
t7.5 6t9.5 1.5t10 0.5t7.5 3t2.5 8.5v48q-1 3 -1 5.5v6.5zM80 115q0 3 2 4t5 1h27q7 0 7 -5q0 -2 -0.5 -4t-3.5 -2h-11q-1 0 -1.5 -0.5t-0.5 -1.5v-2v-1q0 -7 3.5 -10t7.5 -3.5t7.5 -1t3.5 -3.5q0 -1 -0.5 -2t-1.5 -1h-18q-1 0 -1.5 -2.5l-0.5 -2.5v-1.5v-0.5q1 -1 1.5 -2.5
l0.5 -1.5h19q1 0 1.5 -1.5t0.5 -2.5l-1.5 -1.5l-1.5 -1.5h-18q0 -1 -1 -4.5t-1 -4.5l2 -2t2 -1h21l2 1.5t3 2.5v1v1q-1 0 -1 1.5t-0.5 3t-0.5 3v1.5q0 10 2 20.5t1 20.5q1 1 2 1.5t3 0.5t3.5 -2t1.5 -4v0q0 -1 -0.5 -2.5t-0.5 -3t-0.5 -2.5t-0.5 -2v-4v-8v-8v-5v-5.5t-1 -9
t-1.5 -8t-2.5 -3.5h-30q-2 0 -3 -1t-1.5 -2t-0.5 -2.5v-2.5q0 -6 5 -10h8t12 -0.5t10.5 -2.5t4.5 -6v-2t-1 -2h-5.5h-4.5q-10 0 -18.5 1t-16.5 2t-17 2t-19 0l-5 2v1v2v3t2 3h9h9h1t2.5 -0.5t2.5 -1l1 -0.5q2 0 5.5 1t4.5 1q2 3 3 6t1 6t-3 4t-7.5 1t-9.5 0.5t-9.5 2.5
t-7 6.5t-2.5 12.5v3.5t1 3.5q0 1 -0.5 4.5t-1 7.5t-1 7.5t-0.5 5.5v0v1q0 1 0.5 3.5t0.5 5t0.5 4.5t0.5 3h1.5h2.5q4 0 5.5 -1.5t1.5 -7.5v0v-2t-0.5 -2.5t-1 -2.5l-0.5 -1v-1v-1q1 0 1.5 -1.5l0.5 -1.5h4t6 -0.5t5.5 -2t2.5 -3.5q0 -3 -3 -3.5t-6.5 -0.5t-6 -1t-2.5 -4
q0 -4 2.5 -5t5.5 -0.5t5.5 0t2.5 -5.5v-1l-0.5 -0.5t-1.5 -0.5h-12q-2 0 -2 -1.5v-1.5q0 -3 2 -5t5 -3t6 -1.5t5 -0.5q9 0 9 10v44q0 2 -2.5 2.5t-5.5 0.5t-5.5 1t-2.5 3zM177 98q0 -5 3 -11h2.5h2.5q3 0 6.5 0.5t3.5 5.5v1q-1 1 -1.5 4.5t-1.5 5.5l-1 2h-12q-1 0 -1.5 -1
t-0.5 -2.5v-2.5v-2zM156 53q0 9 6 12t15 3h5t4 -0.5t4.5 -1t5.5 -1.5q4 -6 5.5 -14t1.5 -15q0 -3 -2 -4.5t-5 -2.5t-6 -1.5t-4 -0.5q-10 0 -15.5 0.5t-9 3t-4.5 8t-1 14.5zM164 51q0 -5 1.5 -7.5t4.5 -4t7 -2t8 -0.5t5 2.5t1 6.5q0 6 -4 9.5t-10 3.5q-4 0 -8.5 -2t-4.5 -6z
" />
</svg>
