<?xml version="1.0" standalone="no"?>
<!DOCTYPE svg PUBLIC "-//W3C//DTD SVG 1.1//EN" "http://www.w3.org/Graphics/SVG/1.1/DTD/svg11.dtd" >
<svg xmlns="http://www.w3.org/2000/svg" xmlns:xlink="http://www.w3.org/1999/xlink" version="1.1" viewBox="-10 0 266 256">
   <path fill="currentColor"
d="M81 246q0 2 0.5 3.5t2.5 1.5q3 0 4.5 -1.5l3.5 -3.5v-3v-4q0 -12 -1.5 -24t-1.5 -24l1 -1l2 -2h1q3 0 5.5 3t4.5 7.5t3 9t1 6.5v3v5v5v4q1 2 2.5 2.5t3.5 0.5q4 0 4.5 -2t0.5 -5t-1.5 -10t-3.5 -14t-5 -13t-6 -7q-1 -1 -3.5 -1.5t-4.5 -1t-4 -1.5t-2 -3q0 -3 1.5 -4
t3 -1.5t3.5 -0.5t3 -2q3 -1 3.5 -2l1 -2l1 -2t2 -3.5t3.5 -4t4 -2.5t3.5 -2t1.5 -2q0 -3 -2 -5t-4.5 -3.5t-5 -2.5t-3.5 -3q-1 0 -2.5 -1.5l-3 -3l-3 -3l-2.5 -2.5t-6 -2.5l-10 -3t-8.5 -3.5t-3.5 -4v-0.5v-0.5l0.5 -0.5l0.5 -0.5h3h3q10 0 17.5 3t14 7t12.5 9t14 8v0
q4 0 4 -4t-4 -7.5t-10 -6.5t-14 -6t-15.5 -5.5t-14 -4t-10.5 -2.5q-1 0 -1 -1v-2q0 -4 3 -4q2 0 6 0.5l8 1t8 1.5t6 1q4 1 8 3t7.5 4.5t7.5 4t6 1.5q1 0 3 -1t2 -2q0 -3 -5 -5.5t-12 -5t-15.5 -4.5t-16 -4t-12 -3t-4.5 -2v-33l28 -2v-2q0 -2 -1 -2.5t-3 -1t-4 -0.5h-4h-15
l-2 -1v-15l-1.5 -1t-2.5 -2v0q-2 0 -3 2t-1 3v81q0 6 4.5 10t10.5 6.5t12.5 5t11.5 5.5l1.5 1l1.5 1q2 2 4 3t2 4q0 1 -1 4t-2.5 6.5t-4 6t-3.5 2.5h-0.5h-0.5q-2 -2 -2.5 -6t-0.5 -7q0 -4 -0.5 -7t-2.5 -3t-3 1.5t-1.5 3t-0.5 3.5v2v3v4v3.5v2.5t-1 1.5t-2 0.5q-4 0 -6 -3
q0 -1 -0.5 -3t-1 -4.5t-0.5 -4.5t-1 -3q0 -1 -1.5 -3t-3.5 -2t-2 2v4q0 11 3 17t15 6q0 1 0.5 2.5t0.5 2.5v1v2q-6 1 -9.5 3.5t-6 6t-4 7.5t-2.5 10q-2 6 -3.5 12.5t-1.5 12.5q0 2 1 5t5 3q2 0 3 -0.5t2 -3.5v-4v-7v-6.5v-4.5t0.5 -3t1 -5t1.5 -6t1 -5q1 -2 4 -5t6 -3h1
q1 0 1 1q1 5 1.5 9.5t0.5 8.5v8v10q0 5 -1 10.5t-1 11.5zM188 164v8t0.5 12l1 12t0.5 8v8v10t0.5 12t0.5 10v4l3 1l6 -5l-1 -37v-5v-28q-2 -3 -2 -7.5t-1 -9t-2.5 -8.5t-5.5 -6q-4 0 -9.5 -0.5t-11 -1.5t-10 -3.5t-4.5 -7.5q0 -6 5 -8.5t11 -3.5t12.5 -0.5t9.5 -0.5
q6 -5 8.5 -9t2.5 -11q0 -6 -2 -8t-6 -4h-13h-10t-14 0.5t-13 2t-6 3.5t2 3t4 1q3 0 6 -1t7 -1q2 0 4 0.5t3 2.5v2v3q0 6 -2.5 8.5t-5.5 4l-6 3t-3 4.5v20l7 5l30 5l0.5 0.5t0.5 1.5l0.5 2t1 3.5l1 3t0.5 2.5zM172 98q0 -2 1 -3.5t3 -2l4 -1t4 -0.5q4 0 5.5 4t1.5 8t-3.5 5.5
t-7.5 1.5h-3h-2q-2 0 -2.5 -1.5t-1 -3.5t0 -4t0.5 -3zM77 72q1 4 5.5 6t10.5 4t13 4.5t12 6.5v0q2 0 2.5 -2t0.5 -3q0 -4 -4.5 -6.5t-10 -4t-11 -2.5t-8.5 -3v-4q0 -4 3 -5t7 -1.5t8 -1.5t6 -4q1 -1 1 -3t0.5 -4l1 -4t0.5 -3v-2q0 -2 -2 -4t-5.5 -3.5t-6.5 -3t-4 -1.5
q-4 -2 -6.5 -2.5t-4 -2t-1.5 -4v-7.5q-5 0 -6 3t-1 7v3v3q2 3 7 5t10 3.5t9 3t4 3.5q0 1 -0.5 4.5t-1.5 4.5q0 1 -0.5 2l-0.5 1l-21 4q-2 0 -3 2l-2 4t-1 4v3zM141 52q0 9 3 14.5t13 5.5h12q7 0 12.5 -1.5t9 -5t3.5 -10.5q0 -4 -0.5 -7.5t-2 -6t-4.5 -4t-8 -1.5h-3h-3
q-5 1 -10.5 1t-10.5 1.5t-8 4.5t-3 9zM177 45h2h3l2 1v15l-4 1l-3 0.5t-6.5 0.5h-7.5h-7q-1 0 -4 -0.5l-3 -0.5v-10q0 -1 4 -2.5t9 -2.5t9.5 -1.5t5.5 -0.5z" />
</svg>
