<?xml version="1.0" standalone="no"?>
<!DOCTYPE svg PUBLIC "-//W3C//DTD SVG 1.1//EN" "http://www.w3.org/Graphics/SVG/1.1/DTD/svg11.dtd" >
<svg xmlns="http://www.w3.org/2000/svg" xmlns:xlink="http://www.w3.org/1999/xlink" version="1.1" viewBox="-10 0 266 256">
   <path fill="currentColor"
d="M195 248q1 2 3 2t3.5 -1.5t2.5 -3.5t1.5 -4t0.5 -3v-21q0 -8 0.5 -16t0 -16.5t-2 -17t-4.5 -16.5q-6 -3 -13.5 -3h-13.5q-3 -1 -4.5 -3.5t-1.5 -6.5q0 -5 3 -7t7.5 -2.5t10 -1t10 -2.5t7.5 -6.5t3 -12.5q0 -9 -3.5 -14t-12.5 -5h-1h-1h-5t-8.5 0.5t-8.5 0.5h-6q-3 1 -5 2
t-2 4h17l0.5 2.5t0.5 3.5v10v9q-2 2 -4.5 4t-4.5 4t-3.5 4.5t-1.5 6.5q0 6 2 9.5t4.5 5t6.5 2t7.5 0.5t6.5 1t4 3q4 11 5 22t1 22.5v23t-1 21.5zM68 238v1q0 1 0.5 2.5t0.5 2.5q5 -1 8 -3t6 -6q1 -2 3 -5.5t4 -7.5t3.5 -7.5t2.5 -4.5q1 -2 1.5 -4.5t1 -5.5t2 -5t3.5 -2
t4.5 7t6 15.5t7.5 15.5t10 7q2 0 3.5 -1.5t1.5 -3.5q0 -3 -2 -6t-4 -5.5t-4.5 -5t-3.5 -4.5q-7 -12 -10 -23.5t-3 -25.5q0 -3 -0.5 -7t0 -8.5t1 -8.5t2.5 -6q3 -4 5 -5.5t3 -3.5t1.5 -5t0.5 -9v-6q0 -5 -0.5 -10t-1.5 -8.5t-4 -3.5h-0.5h-0.5q-1 1 -2 3t-1 4v4v2
q-3 2 -5 2.5t-4 0.5q-3 0 -4.5 -2t-2 -5t-2 -5t-4.5 -2h-1q-1 0 -1.5 2.5t-0.5 3.5q0 3 0.5 9t1.5 12t2 11.5t2 7.5q3 3 4.5 5t2 3.5t1 4t0.5 6.5q0 12 -1.5 21.5t-4.5 18t-8 17t-11 18.5q0 1 -2 3t-3.5 4t-2.5 4t-1 3zM63 205q0 3 1 3h3q5 0 8.5 -7t6 -16t4 -18t1.5 -13v-9
q-1 -1 -2.5 -1h-1.5h-3q-3 8 -3.5 16t-2.5 16q-1 3 -3 6.5t-3.5 7.5l-3 8t-1.5 7zM127 182q2 2 3.5 5.5t2.5 6.5t2.5 5.5t4.5 2.5q2 0 3.5 -1t1.5 -3q0 -3 -1 -4.5t-2 -2.5t-2 -2.5t-2 -3.5v-1.5t-0.5 -3t-0.5 -3v-1.5q0 -1 -1 -3.5l-1 -2.5l-0.5 -1.5t-1.5 -3t-1.5 -3
t-1 -2t-0.5 -2.5q0 -3 -0.5 -6t-1.5 -5.5t-4 -2.5t-3 2v4q0 8 2 15.5t4 16.5zM54 153q-1 2 0.5 2.5t2.5 0.5q3 0 7 -4.5t8 -11t6 -13t2 -10.5q0 -8 -2.5 -16t-2.5 -17q0 -6 2 -11.5t2 -11.5q0 -2 -1 -4.5t-4 -2.5q-2 0 -3 1.5t-2 3.5v2.5t-0.5 4.5t-0.5 4v3l-0.5 1.5l-1 3
l-1 3t-1.5 1.5v3t-0.5 4.5t-0.5 5v3.5l-2.5 2.5t-2.5 3.5t-1.5 3.5t-3 5.5t-3 5.5t-1.5 3.5v2v1.5t1 1.5q6 0 8 -2.5t3.5 -6t3 -6.5t4.5 -5l2 1v5q0 8 -3 14.5t-7 13.5q-1 2 -4 5t-3 7zM130 113q0 2 1.5 8.5l3 13t4.5 12t6 5.5q2 0 3.5 -2t1.5 -4t-2 -5t-3.5 -7t-3.5 -8.5
t-3 -7.5q0 -2 0.5 -5.5t0.5 -5.5q3 0 4.5 2t3 5t3 5t4.5 2q1 0 2 -0.5t1 -2.5v0q-1 -6 -5 -11t-6 -9q-1 -3 -1 -9.5t-1 -13.5t-4 -12.5t-8 -5.5q-2 0 -3.5 0.5t-1.5 3.5v1q3 4 6.5 8t3.5 9t-1 9t-2.5 8t-2.5 8.5t-1 8.5zM99 110q0 -1 0.5 -3t2.5 -2h11q1 0 1.5 1.5l0.5 1.5
v9v7l-2 1h-11q-1 0 -2 -1.5t-1 -4v-5v-4.5zM182 104v-4t1 -2l3 -3h11q1 0 1.5 2t1 4.5t0.5 5v3.5q0 5 -3.5 6.5t-7.5 1.5h-2.5h-2.5q-2 -3 -2 -7v-7zM80 45q5 0 6.5 3t2 6.5t1.5 7.5t4 6h5h4h4t6 -0.5t5 -1.5t2 -4v-20l3 -2q1 1 4.5 1t7.5 -0.5t7 -2t3 -4.5l-0.5 -0.5
t-1.5 -0.5h-22q0 -3 0.5 -6.5t0 -6.5t-2 -5t-5.5 -2q-2 0 -3 0.5t-1 2.5q0 4 1 7t1 7q0 3 -4 4.5t-6 1.5h-4q-1 0 -2 -0.5t-1 -1.5v-15q0 -1 -2 -1.5l-2 -0.5q-1 0 -3 0.5t-2 1.5v15q0 3 -5 3.5t-11.5 0.5t-11.5 1.5t-5 5.5q0 3 2 3h5q5 0 10 -1.5t10 -1.5zM154 56
q0 4 2 6.5t5.5 3.5t7 1.5t6.5 0.5q13 0 17.5 -5t4.5 -17q0 -4 -2 -7.5t-6 -5.5h-8q-14 0 -20.5 4.5t-6.5 18.5zM96 48q0 -1 1 -2t3 -1.5t3.5 -1t2.5 -0.5t3.5 0.5t2.5 1.5v12q0 1 -1 2t-2.5 1.5t-3 0.5h-1.5q-5 0 -6.5 -4.5t-1.5 -8.5zM161 51q0 -3 2 -5t5 -3.5t6.5 -2
t5.5 -0.5h4q2 2 2 4.5v4.5q0 3 -1.5 5t-4 3t-5.5 1.5t-6 0.5t-5.5 -2.5t-2.5 -5.5z" />
</svg>
