<?xml version="1.0" standalone="no"?>
<!DOCTYPE svg PUBLIC "-//W3C//DTD SVG 1.1//EN" "http://www.w3.org/Graphics/SVG/1.1/DTD/svg11.dtd" >
<svg xmlns="http://www.w3.org/2000/svg" xmlns:xlink="http://www.w3.org/1999/xlink" version="1.1" viewBox="-10 0 266 256">
   <path fill="currentColor"
d="M197 247q0 3 1.5 3.5t3.5 0.5q3 0 5 -2.5t2.5 -5.5t0.5 -6.5v-5.5q0 -1 0.5 -5.5t0.5 -10t0.5 -10t0.5 -5.5v-2v-11q0 -6 -0.5 -13.5t-2 -13.5t-4.5 -11q-2 -2 -6 -3.5t-8.5 -2.5t-9.5 -1.5t-9 -1t-6.5 -2.5t-2.5 -6q0 -7 6 -10t14 -3.5l16 -1t11 -4.5q1 -1 1.5 -3t1 -5
t0 -5l-0.5 -2v-4.5v-3.5l-7 -4l-3 -0.5t-5 -0.5h-11t-15.5 0.5t-13.5 2t-6 4.5h4h5.5h6h3.5q4 1 4.5 5t0.5 7v6q-4 6 -7 7t-6 2.5t-4.5 5.5t-1.5 15q0 5 3.5 7.5t8.5 3t10 0.5q6 0 11 1t8 3.5t3 8.5v67q0 5 -1.5 8.5t-1.5 7.5zM45 243q0 2 1.5 2.5t3.5 0.5t5 -1t3 -4
q-1 -25 0.5 -48.5t6.5 -48.5q1 -3 3.5 -3h4.5h3t3.5 0.5t3 1.5t1.5 3q0 3 -1.5 4.5l-3 3t-3 2.5t-1.5 2v11q0 2 1.5 2.5t3 1.5t3 2.5t1.5 4.5v1.5t-1 2.5l-2 2t-4 4.5l-4 5t-2 4.5t2.5 8t5.5 12.5t6 12t5 5.5q1 0 1.5 -2t0.5 -3q0 -4 -1.5 -8t-3 -7.5t-4 -7t-3.5 -5.5v-4
q0 -3 0.5 -4.5t3.5 -1.5q5 0 7 4t3.5 9t4 9t6.5 4q3 0 3.5 -1t0.5 -2q0 -3 -2.5 -7.5t-6 -8.5t-6 -8t-2.5 -9q0 -1 1 -3.5t2 -2.5h12q1 0 2 -1.5t2 -2.5q0 -2 -1.5 -3t-4.5 -1.5t-7 -0.5t-7 -1t-5.5 -3t-2.5 -5t4 -4.5t8.5 -2t9 -0.5h6.5q3 0 7.5 0.5t8.5 2t6.5 3.5t2.5 6
q0 5 -3 8t-7 6.5t-7.5 7.5t-3.5 11q0 3 1.5 10.5t4 15t6 13.5t6.5 6q2 0 3.5 -2.5t1.5 -3.5q0 -4 -2 -8t-4.5 -8.5t-4.5 -8t-3 -7.5v-2t0.5 -4t0.5 -3.5v-2.5q6 0 9 3t4.5 7t2.5 9t2.5 9.5t3.5 7.5t6 3q2 0 3.5 -1t1.5 -3v-1v0q-2 -3 -5.5 -9t-7 -12.5t-5.5 -13t-2 -10.5
t2 -6.5t4 -4.5q1 -1 1 -3.5v-2.5q0 -6 -2.5 -9t-6 -4.5t-8.5 -2.5t-9 -2q0 -1 -1 -3l-1 -2q0 -1 1 -3.5t3 -2.5q1 -1 2.5 -1t4 -0.5t4 -0.5h2.5t2.5 -0.5t3.5 -1.5l3 -1.5t1 -1.5v-28q0 -1 -1 -1.5t-2 -0.5q-3 0 -4 2l-2 4t-2.5 4t-4.5 2t-5 -2t-2 -5q0 -4 2 -5t4.5 -2
t4.5 -3t2 -8q0 -2 -0.5 -3.5t-2.5 -1.5t-3.5 2l-3 4t-4.5 4t-9 2q-5 0 -6.5 -2.5t-2.5 -6t-2 -6t-3 -2.5q-1 0 -2 0.5t-1 1.5q1 9 -1 13t-11 4q-3 0 -5 -2.5t-3.5 -5t-3.5 -4.5t-5 -2q-2 0 -2 1.5v2.5q0 6 3 9t7 5t7.5 3.5t3.5 4.5q0 2 -0.5 2.5t-1.5 2.5q-1 1 -1.5 2
l-0.5 1h-17q-2 0 -4.5 8.5t-4.5 22t-3.5 29t-3 29.5t-2 24.5t-0.5 13.5zM102 138q3 0 6 1t3 5q0 1 -2 2.5t-4 1.5h-2.5h-4.5h-5h-3q0 -6 3.5 -8t8.5 -2zM68 131l-0.5 -1t-0.5 -2q0 -2 2.5 -3.5t5.5 -2t5.5 -0.5h3.5v3.5v3.5t-1 3t-3 1h-2h-1.5t-3 -0.5l-3 -1t-2.5 -0.5z
M90 125q0 -2 2 -3t4.5 -1.5t4.5 -0.5h4q4 0 5 1t1 5v4h-3t-3.5 0.5t-3 0.5h-2.5h-1q-3 0 -5.5 -2t-2.5 -4zM119 124v-3.5t2 -2.5h12q1 0 1 2v2q0 4 -2.5 5t-6.5 1q-3 0 -4.5 -0.5t-1.5 -3.5zM92 108q0 -5 4 -6.5t8 -1.5q3 0 5.5 4t2.5 6t-1 2.5t-2.5 1t-3.5 0.5h-2
q-2 0 -4 -0.5t-3.5 -1t-2.5 -1.5t-1 -3zM182 98q0 -4 3.5 -5t7.5 -1h2.5h3.5q2 2 2.5 5t0.5 6v3t-2 2l-2.5 0.5t-3.5 0.5q-5 0 -8.5 -2t-3.5 -9zM53 76q1 0 2 0.5l1 0.5h1h1q4 -2 5 -4.5t1 -4.5t-0.5 -3.5t0.5 -2.5t4 -2t10 -2h1h1l1.5 0.5l1.5 0.5q0 1 0.5 2.5t1 4t1 4.5
t1.5 3h1h1q0 -1 0.5 -1.5l0.5 -0.5v-31q0 -2 -2.5 -3.5t-6 -2t-6.5 -1t-4 -0.5q-4 0 -8.5 1t-6.5 4q0 5 -0.5 8.5t-1.5 6t-2 5.5t-1 5v2q0 1 1 5.5t1 5.5zM104 68v4.5t3 2.5q2 0 2.5 -1l1.5 -3v-2.5t0.5 -4t0.5 -4v-2.5q1 0 4 -0.5t6.5 -0.5t6 -0.5t4.5 -0.5h1q3 0 3.5 2.5
t0.5 5t1 5t4 2.5q2 0 2.5 -1.5t0.5 -3.5q0 -7 -0.5 -13.5t-1.5 -12.5q0 -2 -1.5 -2.5t-3.5 -1.5h-11h-6t-6 0.5t-6 2t-5 4.5v4.5t-0.5 7t-0.5 7v4.5v2zM159 45q0 13 5 18t18 5q6 0 10.5 -1t7 -3t4 -5.5t1.5 -9.5q0 -5 -1 -10t-5 -7h-10h-8t-10 1.5t-8.5 4.5t-3.5 7zM168 48
q0 -3 2.5 -5t5.5 -3t7 -1.5t6 -0.5q5 0 6.5 3.5t1.5 6.5q0 9 -4.5 11t-12.5 2q-6 0 -9 -3.5t-3 -9.5zM63 46v-1q1 -2 3 -2.5t4.5 -1t3.5 -0.5h3h1q3 0 4.5 1t1.5 3t-1.5 3.5t-3 2t-3.5 1t-4 0.5t-4.5 -1.5t-4.5 -3.5v-1zM114 48v-0.5v-0.5q0 -3 1.5 -4t4 -1.5t4.5 -0.5h4h6
q2 1 2 2v2v3t-2 2h-7h-6t-7 -2zM51 21q0 4 5 4v0h8.5t11.5 -0.5t11.5 -1t7.5 -0.5t2 -1v-2v-1.5t-2 -1.5h-15h-14q-7 0 -15 2v1v1zM145 14h-1h-5.5t-7 0.5t-6 0.5h-3.5t-3.5 0.5t-5.5 1t-5 1.5t-2 4h38l7 -3v-1q0 -2 -2 -3t-4 -1z" />
</svg>
