<?xml version="1.0" standalone="no"?>
<!DOCTYPE svg PUBLIC "-//W3C//DTD SVG 1.1//EN" "http://www.w3.org/Graphics/SVG/1.1/DTD/svg11.dtd" >
<svg xmlns="http://www.w3.org/2000/svg" xmlns:xlink="http://www.w3.org/1999/xlink" version="1.1" viewBox="-10 0 266 256">
   <path fill="currentColor"
d="M68 223q2 4 6.5 5.5t10 2.5t10.5 1.5t9 1.5h22h22q4 0 12 -1t16 -3t14.5 -6t7.5 -9q0 -2 1 -7t1.5 -10t1.5 -10t1 -7v-2.5v-5.5v-7v-4v-4v-6v-6.5v-4.5q-2 -2 -2 -4v-5q0 -2 1 -4.5t1 -5.5v-2q0 -3 -0.5 -7.5t-1 -8.5t-0.5 -7v-3q-1 -9 -5 -13.5t-9 -6t-12 -2t-14 -2.5
l-1 -0.5t-2 -0.5v-3v-2.5v-3.5v-2v-3v-3.5v-3.5v-1q0 -1 0.5 -3.5t1.5 -2.5h40l2 -2t2 -4l0.5 -0.5l0.5 -0.5q0 -3 -4 -5h-4.5h-4.5q-31 0 -62 2t-62 1q-2 1 -5 1.5t-5.5 1t-4.5 2t-2 4.5q0 2 1 3t4 3v0h1q4 0 8.5 -0.5t8.5 -1.5t8.5 -2t9.5 -1q1 0 3.5 0.5t5 0.5t5 0.5
t3.5 0.5q2 1 2.5 3.5t0.5 4.5v1.5v1.5q0 2 -0.5 5t-0.5 5.5t-0.5 4.5l-0.5 2l-1 2q-8 0 -15 1t-12.5 4t-9.5 8t-6 13q0 7 -0.5 13l-1 12t-1.5 11.5t-1 11.5q0 1 1 3.5t1 3.5v1q0 8 -1 16t-1 17v12q1 2 2 5.5t2 6.5t1 6t1 4zM89 218v0q1 -1 3.5 -4t5.5 -6.5t5.5 -7t3.5 -4.5
t5 -4.5t8.5 -7.5t8.5 -7t5 -3q4 0 7.5 2.5t6.5 5.5t5.5 6.5t4.5 6.5l3.5 3.5l5.5 5.5l5.5 5.5l3.5 3.5q1 0 1 1v2q0 3 -0.5 4t-3.5 1q-1 1 -4.5 1.5l-7 1t-6.5 0.5h-3q-1 0 -4.5 0.5t-7.5 0.5h-8.5h-6.5h-5h-6t-5.5 -0.5t-3.5 -0.5l-14 -3q-1 0 -1.5 -0.5t-0.5 -1.5v-1z
M74 180v0q0 -1 0.5 -2.5t1 -3.5t1 -3.5t0.5 -2.5t0.5 -3.5t0.5 -4.5q0 -3 -0.5 -5.5t-0.5 -3.5q3 -3 7 -5t7 -5q8 -7 13 -13t8 -12.5t5 -14t3 -17.5q1 -1 4 -1.5t6.5 -1l7 -1t4.5 -0.5h2h3.5t2.5 2v31q0 5 3 10.5t5 9.5q1 1 4 3l6 4l6 4t4 3q2 1 4.5 1.5t4.5 1.5t3 2.5
t1 5.5v5t-0.5 9.5t-1 11.5t-1 11t-2 8t-2.5 3q-4 0 -9 -7t-11.5 -15.5t-13.5 -15.5t-13 -7q-3 0 -7.5 3.5t-10.5 8t-12 10.5l-11.5 11.5l-10 10l-6.5 6.5l-2 -1v-3.5t-0.5 -8t-1.5 -9.5t-1 -8v-1zM158 107v-23l5 -2l2 0.5t5 1l6 1t5 0.5q4 1 6 5t3 9.5t1 10.5v8v6v4
q0 2 -0.5 5.5t-1.5 3.5h-1l-20 -10q-3 -2 -4 -4.5l-2 -5t-1.5 -5.5t-2.5 -5zM77 133v-4v-4q0 -7 0.5 -14t3 -13t8 -9.5t14.5 -3.5h3.5t2.5 3q0 5 -2.5 13t-6 15.5t-9 13t-12.5 5.5l-1 -0.5t-1 -1.5zM122 65q0 -6 1 -11.5t1 -11.5h21q2 0 3.5 2t1.5 5v5v3v6t-2 6h-3.5
t-5.5 0.5t-5.5 0.5h-3.5q-3 0 -5.5 -1t-2.5 -4z" />
</svg>
