<?xml version="1.0" standalone="no"?>
<!DOCTYPE svg PUBLIC "-//W3C//DTD SVG 1.1//EN" "http://www.w3.org/Graphics/SVG/1.1/DTD/svg11.dtd" >
<svg xmlns="http://www.w3.org/2000/svg" xmlns:xlink="http://www.w3.org/1999/xlink" version="1.1" viewBox="-10 0 266 256">
   <path fill="currentColor"
d="M137 190v6v9v7v3v8t1 11.5t2.5 10t5.5 4.5q7 0 7 -8q0 -2 -1 -4.5l-2 -5l-2 -5t-1 -5.5v-66q0 -3 2 -7t4 -8.5t4.5 -8.5t3.5 -6q2 -3 7 -3.5t7 -0.5q6 0 10 2.5t4 8.5q0 7 -2.5 12.5t-6 11.5t-6 12t-2.5 15q0 3 0.5 8t2 10l3 10t4.5 8q2 3 6 7t7.5 8t6 6.5l2.5 2.5h13
q0 -8 -5.5 -14.5t-12 -13.5t-12 -15t-5.5 -20q0 -8 3 -13.5t6.5 -11t6.5 -11t3 -12.5t-4 -11.5t-9 -7t-9 -4t-4 -3.5v-33q0 -3 3.5 -3.5t5.5 -0.5q4 0 5.5 2.5t2.5 6.5t1 9v8.5t1 7t4 2.5q2 0 3.5 -0.5t2.5 -3.5v-9.5v-14.5v-13.5v-9.5q0 -1 0.5 -3t1 -4.5t0.5 -4.5v-3v-4
t-0.5 -4t-1.5 -3.5t-3 -1.5t-4.5 2.5t-2.5 4.5v25h-17v-38l-2 -2.5t-3 -2.5q-1 -1 -2 0t-2 1q-1 1 -1.5 3t-1 4.5t-0.5 4v2.5v4.5v7.5v7.5v4.5q-1 3 -3.5 4.5t-4.5 1.5q-1 0 -3 -0.5t-2 -1.5v-21q0 -2 -2.5 -3t-3.5 -1q-3 0 -3.5 1.5t-0.5 4.5q0 4 1 7t1 8q0 11 -2.5 22.5
t-2.5 23.5q0 2 0.5 3.5t3.5 1.5q2 0 4 -3.5t2 -6.5q1 -1 1 -4.5t0.5 -7.5t0.5 -7.5v-4.5h14l2 2v5q0 9 -0.5 15.5t-1.5 14.5q-7 6 -11 12.5t-7.5 13.5t-5.5 14.5t-4 16.5v5v7v8v5zM72 63q0 4 -2.5 6.5t-5.5 4t-7 2.5t-7 2.5t-5.5 4.5t-2.5 8v85l0.5 2.5t0.5 5t0.5 5.5t0.5 4
q2 8 3 14.5t4 10.5t7.5 6.5t13.5 3.5h1t3 0.5t4 0.5h3q2 0 6 -0.5t5 -0.5q11 -1 17.5 -5t9 -9.5t3.5 -12.5t1 -15t0.5 -16t3.5 -17v-1v-1q-1 -5 -1.5 -14.5l-1 -19t-1 -16.5t-0.5 -8v-2t-0.5 -4l-1 -4t-0.5 -3q-2 -2 -5.5 -3t-6.5 -2.5l-6 -3t-4 -4.5v-3v-4q0 -7 2.5 -11
t6 -5t8 -1h8t6 -1t2.5 -5q0 -1 -1 -2t-1 -2h-4q-18 0 -37.5 1t-35.5 1h-3.5t-5 0.5t-5 2t-2.5 4.5v1q0 1 1.5 2l1.5 1h25q1 0 2.5 2.5t1.5 5.5t0.5 5.5t0.5 3.5zM61 208q0 -2 3 -5.5t7 -6.5t7.5 -5t5.5 -2q3 0 7 1.5t8 4t6.5 6.5t2.5 7q0 5 -3.5 7t-8 2.5t-9.5 0t-7 -0.5
h-5.5t-6 -1t-5 -2.5t-2.5 -5.5zM53 168q0 -4 3.5 -7.5l8 -8t8 -9.5t4.5 -10v-7t0.5 -11t1 -11t0.5 -7v-5v-6t1.5 -5.5t3.5 -2.5q1 0 4 0.5t3 1.5v55q0 5 4.5 9t9.5 7.5t9.5 8t4.5 9.5v6t-1 7t-2.5 6t-4.5 3t-6 -2t-5.5 -4.5t-5.5 -4.5t-7 -2t-7 2t-6.5 4.5t-6.5 4.5t-7 2h-2
h-2q0 -5 -1.5 -11.5t-1.5 -11.5zM70 80v16.5t-1 19t-3.5 18t-9.5 14.5h-1v0q-1 0 -1.5 -1l-0.5 -1v-47q0 -3 1.5 -6.5t4 -6.5t5.5 -4.5t6 -1.5zM98 101v-3t0.5 -4.5t0.5 -4.5v-3l2 -4t3 -2q6 0 8.5 6.5t3.5 14.5t1 16v11v3v3t-0.5 3l-0.5 1l-5 6q-9 -8 -11 -19.5t-2 -23.5z
M80 58q0 -3 1 -7.5t5 -4.5q3 0 4.5 4t1.5 7q0 4 -0.5 8t-4.5 4q-5 0 -6 -3.5t-1 -7.5z" />
</svg>
