<?xml version="1.0" standalone="no"?>
<!DOCTYPE svg PUBLIC "-//W3C//DTD SVG 1.1//EN" "http://www.w3.org/Graphics/SVG/1.1/DTD/svg11.dtd" >
<svg xmlns="http://www.w3.org/2000/svg" xmlns:xlink="http://www.w3.org/1999/xlink" version="1.1" viewBox="-10 0 266 256">
   <path fill="currentColor"
d="M147 207v10t1.5 14.5t3 13t5.5 6.5q2 0 3 -0.5t2 -2t1.5 -3t0.5 -2.5q0 -4 -1.5 -8.5l-3 -9l-3 -9t-1.5 -10.5q0 -11 4.5 -22t9.5 -21q3 -5 6.5 -9.5t3.5 -10.5q0 -7 -2.5 -15.5t-7.5 -13.5q-1 -1 -2.5 -1.5t-3 -0.5t-2.5 -1t-1 -2q0 -7 3 -12t4 -11q1 -5 1.5 -9
t0.5 -7.5v-7.5v-9t0.5 -12t-0.5 -13t-4 -10.5t-10 -4.5q0 6 1 11t2.5 10t2.5 10.5t1 10.5q0 11 -2 20.5t-4.5 19.5t-5 19.5t-2.5 19.5q0 5 2 8.5t4.5 6t4.5 5t2 5.5q0 5 -2.5 10.5t-4.5 11.5t-4.5 12.5t-2.5 13.5zM184 208q0 3 1 9.5t2.5 13.5t5 12t7.5 5q2 0 4 -0.5t2 -3.5
v-1.5v-1.5q-3 -4 -5.5 -9t-4 -10t-3 -10.5t-1.5 -10.5q0 -9 3.5 -16.5l7 -15l7 -15t3.5 -16.5v-2q0 -2 -0.5 -3.5t-0.5 -2.5v-2q-1 -4 -3.5 -6.5t-5.5 -4.5t-5 -4.5t-2 -4.5q0 -5 2.5 -9.5t2.5 -9.5v-63q0 -5 -2 -8.5t-7 -3.5q-2 0 -4.5 1t-1.5 4q0 1 0.5 2t1 2.5t1 2.5
l0.5 1q2 9 2 19v18q0 10 -0.5 22t-1.5 23q0 1 -0.5 3l-1 4l-1 4t-0.5 3l-0.5 4t-0.5 6q0 1 0.5 4.5t0.5 5.5q1 2 2.5 4.5t3.5 5t3 5t1 5.5v0.5v0.5q0 1 -1 2.5l-2 3t-1.5 3l-0.5 1.5q-1 2 -2 6l-2 8t-2 7t-1 5v3v5zM113 199q0 2 0.5 9.5t1.5 15.5t3.5 14.5t6.5 6.5
q2 0 3.5 -1.5t1.5 -4.5q0 -1 -1.5 -5l-3 -8t-2.5 -8t-1 -5v-6v-9t0.5 -9.5t1.5 -5.5q0 -1 0.5 -3l0.5 -2q1 -2 2.5 -5.5t3.5 -7.5t3.5 -7.5t2.5 -5.5q2 -1 4.5 -4t2.5 -5v-24q0 -4 -2.5 -6t-5.5 -4t-5 -4t-2 -6v-1q0 -1 0.5 -3t1.5 -5t2 -5l1 -2q1 -8 1 -17v-16
q0 -4 0.5 -10.5t0 -12.5t-3 -10.5t-9.5 -4.5q0 11 2 21.5t2 22.5q0 7 -0.5 15t-1.5 15q-1 6 -2.5 11.5l-3 11l-3 11t-1.5 11.5q0 5 1.5 7.5t3.5 5t3.5 5t1.5 4.5q0 5 -1 9.5t-4 8.5q0 1 -1.5 3l-1.5 2q-2 4 -2.5 6.5l-1 5t-0.5 5.5v6zM41 179q4 8 4.5 12.5t1.5 8t4 7t10 7.5
h11q5 0 11 -1t11.5 -3.5t9.5 -6.5t5 -10v-7t0.5 -10t0.5 -10v-7v-80q1 0 1.5 -2t0.5 -3v-1v0l-2 -4l-1 -2h-14q-1 0 -1.5 -2.5t-0.5 -4.5v-2q0 -1 0.5 -3t0.5 -4.5t0.5 -4t2.5 -1.5h13q2 0 2 -2v-3q0 -4 -3 -4h-5q-14 0 -28 1l-28 2v3q0 2 2.5 3.5t5.5 1.5h5h4l3 4v11
q0 1 -0.5 1.5l-0.5 0.5q-5 2 -9 3.5t-7 3.5t-5 5.5t-3 9.5q0 1 -0.5 5t-0.5 8t-0.5 7.5t-0.5 4.5v34v34zM61 201q0 -2 1 -5t3 -5.5t4.5 -4.5t5.5 -2t6 1.5t6 3.5t5 4.5t2 5.5t-2.5 4.5t-6 2t-7 0.5h-5.5h-4h-3.5t-3 -1t-1.5 -4zM51 170v-7q2 -3 4.5 -4t4.5 -3q1 -2 3 -5
t3.5 -6l3 -6t2 -5t1 -7.5t1 -12t0.5 -13.5t1 -13t2 -10t4 -4h1q0 1 1.5 2l1.5 1v57q2 5 3 9t2.5 7t4 6t7.5 5q2 1 2 3v3v6q0 3 -0.5 7t-2 7t-3.5 3h-1l-4.5 -4.5l-5.5 -5.5t-6.5 -5.5t-6.5 -2.5q-1 0 -1.5 0.5l-0.5 0.5l-17 17h-2v-1.5t-0.5 -3.5l-1 -4t-0.5 -3v-8zM92 117
v-11v-10t0.5 -10t0.5 -12h3q2 0 3 0.5l3 1.5q0 6 0.5 10.5l1 9t0.5 9.5v10v10q0 4 -0.5 8.5l-1 9t-0.5 9.5q0 1 -1 1h-1q-3 0 -4.5 -3t-2.5 -6.5t-1 -6.5v-4v-16zM50 115q0 -4 -0.5 -10.5t0.5 -13.5t4 -12t9 -5q2 0 3 0.5t2 2.5v14v14t-1.5 18t-4.5 17t-9 11l-2 -2v-2
t-0.5 -4.5t-0.5 -5.5v-4v-18zM155 129v-3q0 -3 0.5 -5t1.5 -3.5t3 -1.5t4 3t3.5 7t2 8t0.5 5q0 3 -0.5 6.5t-4.5 3.5q-3 0 -5 -2t-3 -5.5t-1.5 -7t-0.5 -5.5zM122 131q0 -2 -0.5 -5.5t0 -6t1.5 -5t4 -2.5t5.5 2t4 4.5t3 5.5t1.5 5t-1 4.5t-2 5.5t-3 5t-4 2t-4 -2t-3 -4
t-1.5 -5t-0.5 -4zM192 135q0 -1 0.5 -3.5t0.5 -4.5t1 -4t2 -2q3 0 4.5 2.5t2.5 5.5t1 6v4q0 4 -0.5 5.5t-4.5 1.5t-5.5 -3.5t-1.5 -7.5zM77 64v-6v-3t0.5 -3.5t1.5 -3t3 -1.5q1 0 2 0.5t1 1.5v7q0 1 0.5 3t0 3.5t-1.5 2.5t-3 1h-2.5t-1.5 -2z" />
</svg>
