<?xml version="1.0" standalone="no"?>
<!DOCTYPE svg PUBLIC "-//W3C//DTD SVG 1.1//EN" "http://www.w3.org/Graphics/SVG/1.1/DTD/svg11.dtd" >
<svg xmlns="http://www.w3.org/2000/svg" xmlns:xlink="http://www.w3.org/1999/xlink" version="1.1" viewBox="-10 0 266 256">
   <path fill="currentColor"
d="M35 108q0 15 1.5 30.5t2.5 31.5q0 18 1 32.5t5 24t13.5 14.5t28.5 5h12q4 -2 9 -5.5t9 -7.5t6.5 -9.5t2.5 -12.5v-8v-13v-13v-8q0 -10 0.5 -24t0 -28t-2 -27.5t-5.5 -23.5q-1 -3 -4 -3.5l-6 -1t-5.5 -1.5t-2.5 -4q-1 -1 -1 -3t-0.5 -4t-0.5 -4v-3l0.5 -2t1 -3.5t1.5 -3
t2 -1.5h14q2 0 3.5 -2.5t1.5 -5.5q0 -2 -1.5 -2.5l-3 -1t-3.5 -0.5h-2q-9 0 -18.5 0.5t-19.5 1.5t-19.5 2t-16.5 2q-1 1 -1.5 2.5l-0.5 1.5q0 3 1 5.5t4 2.5h2h3t5 -0.5t5 -1t3 -0.5q3 1 4 2.5t1.5 3.5t0.5 4.5v4.5v9q-2 1 -4.5 2t-5 1t-5 0.5l-2.5 0.5q-5 2 -8 7.5t-4 12
t-1.5 13t-0.5 11.5zM141 150q0 9 -1 19t-1 21q0 10 1.5 20t5 17.5t10 12.5t17.5 5q14 0 23 -6t14 -22v-16q0 -13 -1 -26t-1 -26v-5q2 0 5.5 -1.5t3.5 -4.5q0 -1 -0.5 -3.5t-1.5 -2.5h-34v-13l1.5 -1t2.5 -1l8 -4t6.5 -4.5t4.5 -7t2 -10.5q1 -3 1 -11t0.5 -16.5t0.5 -15.5
v-10v-3t-0.5 -4.5t-0.5 -4.5t-1 -3q0 -1 -0.5 -1.5l-0.5 -0.5q-1 -1 -2.5 -1.5l-1.5 -0.5q-2 0 -3.5 3t-2 6.5t-0.5 6.5v5q0 5 0.5 9.5t0.5 9.5v5v1.5t-0.5 3t-0.5 3v2.5q-1 3 -1 8.5t-0.5 10.5t-3 8.5t-7.5 3.5q-3 0 -3.5 -1.5t-0.5 -4.5q0 -19 1 -38t1 -38v-4t-0.5 -4
t-1.5 -3t-3 -1q-3 0 -4.5 3t-2 7t-0.5 9v5v3v3.5v3.5v1l0.5 1.5t1 2.5t0.5 2.5v1.5v3.5t-0.5 5.5t-1 5.5t-0.5 3.5v4v8v7v4q0 5 -0.5 8.5t-5.5 3.5q-6 0 -8 -5t-2.5 -11.5t0 -13t0.5 -9.5t-0.5 -9t-0.5 -13t-0.5 -13t-0.5 -8q0 -1 -1.5 -1.5t-2.5 -0.5v-0.5v-0.5
q-4 0 -5 3.5t-1 6.5v2v8t0.5 11.5t0.5 13.5v13.5t0.5 11.5t0.5 7q3 10 8.5 14.5t14.5 3.5q3 2 3 5v6v5t-3 3h-19q-1 1 -3.5 1t-5 1t-4.5 2.5t-2 3.5v2l1 1h1t2.5 0.5t2.5 1t2 1.5zM63 223q0 -4 2 -7.5t5 -6t6 -4.5t6 -2q4 0 7 2.5t6 6.5t5.5 8t3.5 7q-2 3 -5 4.5t-6.5 2.5
t-6.5 1h-7q-2 0 -5 -0.5t-5 -2t-4 -4t-2 -5.5zM151 200v-3t2 -2q5 0 9.5 -0.5t8.5 -1t8 -0.5h9h5t5 2v6q0 10 -1 16t-3.5 9t-8 4t-13.5 1q-6 0 -9.5 -3t-6.5 -7.5t-4 -10t-1 -10.5zM82 187q-4 0 -7.5 3.5t-6.5 7.5t-6 7.5t-7 3.5v0h-1q-2 -6 -3 -12.5t-1 -12.5v-2
q11 -12 19 -25t8 -30v-49q1 -3 2.5 -7t4.5 -4q2 0 3 1.5t1.5 3.5t0.5 4v3v57q0 11 4 17t8.5 10.5t9.5 8t7 8.5l-1 3.5l-1 3.5v4v6v7v3t-0.5 3t-1 3.5t-1 2.5t-1.5 1h-1l-4 -4t-5.5 -6.5t-5.5 -7t-4 -4.5l-1.5 -1.5l-2.5 -2.5t-2.5 -2t-1.5 -2h-0.5h-1.5zM153 182
q-1 -8 -1.5 -14.5t-0.5 -13.5v-6l2 -1h11q2 0 3 3.5t1.5 8.5t0.5 9.5v6.5q0 5 -3 7t-6 2h-2h-2t-2 -0.5t-1 -1.5zM179 164q0 -5 0.5 -8.5t1.5 -8.5q1 -1 2.5 -1t3.5 -0.5t3.5 -1t2.5 -0.5h0.5h1.5q2 0 2.5 2t0.5 4l-0.5 5.5l-1 11t-1 10.5l-0.5 5h-12q-2 0 -2.5 -2.5
t-1 -5.5t-0.5 -6v-4zM47 143v-12.5t0.5 -13t0.5 -13t1 -11.5q0 -3 0.5 -7t2.5 -7t4 -5t6 -2q2 0 3 2t1.5 5t0.5 5.5v4.5q0 3 0.5 9t0 13.5l-1 15t-2.5 15t-4.5 13t-7.5 7.5h-1q-1 0 -2 -2.5t-1.5 -6t-0.5 -6.5v-4zM97 131l2 -59q0 -2 2 -2.5l2 -0.5q3 0 4.5 2t2.5 5t1.5 6
t0.5 5q0 1 0.5 6l1 10t0.5 10v6v7.5v12.5q0 6 0.5 11.5t0.5 8.5q-5 0 -8 -3t-5.5 -7.5t-3.5 -9t-1 -8.5zM76 43q0 -4 3 -6.5t7 -2.5q1 0 2 2l1 2v16q0 2 -3 4t-5 2t-3 -2t-1.5 -5t-0.5 -5.5v-4.5z" />
</svg>
