<?xml version="1.0" standalone="no"?>
<!DOCTYPE svg PUBLIC "-//W3C//DTD SVG 1.1//EN" "http://www.w3.org/Graphics/SVG/1.1/DTD/svg11.dtd" >
<svg xmlns="http://www.w3.org/2000/svg" xmlns:xlink="http://www.w3.org/1999/xlink" version="1.1" viewBox="-10 0 266 256">
   <path fill="currentColor"
d="M143 194q0 4 2 13t5 18.5t7 16t8 6.5q3 0 3.5 -1.5t0.5 -4.5v-1v-1q-4 -9 -9 -17t-9 -18v-3v-4.5v-4.5v-3v-8.5t1 -9t2 -8.5t4 -7q1 -3 4.5 -6t6 -6t5 -6.5t2.5 -7.5q0 -2 -2 -4l-4 -4l-4 -4t-2 -4q0 -5 2 -7t5.5 -2.5t7.5 -1t8 -1.5t8 -4t6 -10q0 -2 0.5 -4l0.5 -2v-36
q0 -4 -4 -5.5t-9 -2t-9 -0.5t-4 -2v-25q0 -2 -2.5 -2h-3.5h-3q-1 0 -1 2v4v7v6.5v4.5q0 3 -1.5 5t-3.5 2.5t-4.5 1t-5.5 1.5q-1 0 -3.5 1.5l-2.5 1.5q-1 2 -2 5.5t-1.5 7.5t-1 7.5t-0.5 5.5v4v2q1 1 1.5 3.5t1.5 5.5t2 5.5t2 3.5q1 2 4 3.5l5 2.5v2v3q0 3 -2.5 7.5t-7 8.5
t-9 6t-7.5 2h-3t-1 -3v-53q0 -5 -3.5 -6.5t-8 -2.5t-8 -1.5t-4.5 -2.5v-3.5t-0.5 -5.5t-0.5 -5.5v-3.5q-1 0 -0.5 -2.5l0.5 -2.5h22q1 0 2 -2t1 -4q0 -1 -0.5 -2t-2.5 -1h-2h-3.5h-3.5h-1h-8h-12.5t-15 0.5t-14 1.5t-10.5 2.5t-4 3.5q0 4 1.5 4.5t5.5 0.5h5l1.5 -0.5
t3.5 -0.5t3.5 -0.5t2.5 -0.5l1.5 0.5l3 1t2.5 1.5t1 2v15q0 2 -4 3t-9 2.5t-9.5 3.5t-5.5 6v2t-0.5 2.5t-0.5 2.5v2t-0.5 3t-0.5 4.5t-0.5 4t-0.5 2.5v4.5t-0.5 8.5t-0.5 10v8v1v0q0 5 0.5 12t0.5 13.5v11.5v5q1 10 3 15t5.5 7.5t9.5 3t16 0.5q16 0 24 -3.5t12 -10.5t5 -18
t2 -26q10 -1 18 -7t14 -14q5 1 6 5t1 9q0 2 -1.5 4.5t-3.5 4.5l-4 4l-3 3q-6 11 -8 21t-2 22zM159 188q0 5 2.5 8.5t6.5 5.5t8.5 2.5t8.5 0.5t8 -1t7.5 -3.5t5.5 -5.5t2 -8q0 -2 -1.5 -6t-3.5 -7.5t-4.5 -6.5t-5.5 -3t-3 4q0 2 1 4t2.5 3.5t2.5 3.5t1 5q0 8 -5.5 10.5
t-13.5 2.5q-4 0 -7.5 -2.5t-3.5 -7.5q0 -7 4.5 -12.5t9.5 -11t9.5 -12t4.5 -16.5q0 -2 -0.5 -4.5l-1 -5t-2 -4.5t-4.5 -2v0q-1 0 -1.5 1l-0.5 1v24q0 5 -4 9l-9 9t-9 11t-4 14zM63 184q0 -1 4 -4t8.5 -6t8.5 -5.5t5 -2.5q3 0 5.5 2t4.5 4.5t2.5 5.5t0.5 6v2v3q-5 2 -7.5 2.5
t-7.5 0.5h-6t-8 -0.5t-7 -2t-3 -5.5zM90 160q-7 0 -13 3.5t-11 7.5h-1h-2t-2 -2t-1.5 -4.5t-0.5 -4.5v-5q0 -3 2 -6t5 -6.5l6 -7t5 -6.5q3 -5 5 -12t2 -14q1 -2 0.5 -7t0.5 -10.5t2.5 -9.5t5.5 -4v10t0.5 14.5t0.5 14.5v10v3t0.5 4.5t0.5 4.5v3q3 2 6.5 4l7 4t6 4.5t2.5 5.5
q0 5 -1 9t-3 10q0 1 -1 1h-2h-1q-1 -1 -3 -3.5t-5 -5t-5.5 -4t-5.5 -1.5zM107 73q3 0 5 1t3 3t1.5 5t1.5 5v3v5.5v4.5v3v9v8t-1 8t-2 9q0 1 -0.5 1.5t-1.5 0.5h-1q-1 0 -3 -2t-4 -4.5t-3 -5t-1 -3.5v-47q0 -2 2 -3t4 -1zM61 132v-10q0 -4 -0.5 -12t0.5 -16t4 -14t8 -6
q3 0 4 1.5t1.5 3.5t0 4t-0.5 4l-0.5 4t-1 9t-2 11t-3 11.5t-3.5 8.5t-5 3h-0.5h-0.5l-0.5 -0.5t-0.5 -1.5zM174 90q0 -8 2.5 -12.5t10.5 -4.5q4 0 5 1t1 5q0 3 -1 6t-3 6t-4.5 4.5t-5.5 1.5t-4 -2.5t-1 -4.5zM148 82q0 -2 1.5 -3.5t3.5 -2t4 -0.5h5q3 0 3.5 2t0.5 4
q0 4 -0.5 6.5t-1.5 6.5q0 1 -2 1h-2q-5 0 -8.5 -4t-3.5 -10zM148 63q0 -7 3.5 -11t10.5 -4q4 0 5 1.5t1 5.5v3q0 2 -0.5 4l-1 4t-2.5 2h-13q-2 0 -2.5 -2t-0.5 -3zM185 47q6 0 8 3t2 8t-2 6.5t-5 2t-6.5 0.5h-6.5v-8t0.5 -6.5t3 -4t6.5 -1.5zM91 44q1 0 2 1t1 2.5v2.5v3v4
q0 3 -2 5l-2 -1.5t-2 -2.5v-13q0 -1 1 -1h2z" />
</svg>
