<?xml version="1.0" standalone="no"?>
<!DOCTYPE svg PUBLIC "-//W3C//DTD SVG 1.1//EN" "http://www.w3.org/Graphics/SVG/1.1/DTD/svg11.dtd" >
<svg xmlns="http://www.w3.org/2000/svg" xmlns:xlink="http://www.w3.org/1999/xlink" version="1.1" viewBox="-10 0 266 256">
   <path fill="currentColor"
d="M159 228v6t1 8t3 7.5t5 3.5q4 0 5 -2.5t1 -5.5q0 -5 -1 -9.5t-1 -9.5q0 -4 0.5 -9.5t1.5 -9.5q3 -7 9 -12.5t11.5 -10.5t10 -11t4.5 -15q0 -11 -4 -17.5t-10.5 -10t-14 -6.5t-14.5 -8v-17q0 -2 -2 -5t-5 -3q-2 0 -3 3t-1 7.5v8.5t-1 5t-5.5 3.5t-9.5 5.5t-9 4.5t-4 2.5
q0 4 4 4q3 0 6.5 -1.5t6.5 -3.5t6.5 -3.5t6.5 -1.5q5 0 12.5 2t14 5.5t11.5 9t5 12.5t-3 13t-7.5 11t-9.5 10t-9.5 11t-7.5 13t-3 16zM113 215q0 4 3 4t6 -2t5 -5.5t4 -6.5t3 -5q3 -4 9.5 -8.5t12.5 -8.5t11 -8t5 -7q-4 0 -9.5 2.5t-12 6t-13.5 8.5t-12 10t-8.5 10t-3.5 10z
M40 124v8v10v9v4t0.5 4.5t0.5 7.5t0.5 7.5l0.5 3.5q0 6 0.5 10.5t2 8t5 5.5t8.5 5h6h5q7 0 13.5 -0.5t12 -2t10 -6t6.5 -11.5q1 -3 1.5 -10.5t1.5 -16t1.5 -15.5t0.5 -10v-5v-9v-11v-8v-6v-10v-10.5v-6.5q0 -1 -0.5 -3.5l-1 -5l-1 -5t-0.5 -3.5q-1 -1 -2 -3.5t-1 -3.5
q-3 -1 -5.5 -2.5t-4.5 -2.5t-4 -3t-2 -5q0 -6 3.5 -7.5t7 -2t7 -0.5t3.5 -3q0 -1 -0.5 -2.5t-1.5 -1.5h-66q-3 0 -3.5 1.5t-0.5 3.5t1 3.5t4 1.5h2.5t3.5 -0.5t4 -0.5h2h3q4 0 5.5 3t1.5 6q0 5 -4 7t-8.5 3.5t-8.5 5t-5 12.5q-1 2 -1.5 7t-1 10.5t-1 10.5t-0.5 7v4v7.5v9.5
v7zM55 186v-1v-2q3 -3 5 -6t4.5 -5t4.5 -4t6 -5q4 1 7.5 4t6.5 7t5 8t3 8q0 3 -3.5 4t-7.5 2t-8 1h-6t-5 -0.5t-5.5 -2t-4.5 -3.5t-2 -5zM75 150l-2.5 2.5t-5.5 6t-6 6.5t-4 3l-1 0.5l-1 0.5q-3 0 -5 -1.5t-2 -4.5v-20q0 -2 2 -4t4 -3.5t4.5 -3t3.5 -2.5q1 -3 3 -6.5l4 -7
t3 -7t1 -6.5l4 -54q0 -2 2 -2h2h3t3 2v9q0 8 -1 15.5t-1 14.5v1q0 2 0.5 6.5t1 9.5l1 10t0.5 6q1 4 3 6.5t5 4.5t5.5 4.5l4.5 4.5v3v4.5v4.5v3q0 2 0.5 5.5t0 7t-1.5 7t-4 4.5q-3 -2 -5.5 -7t-5.5 -10t-6.5 -9t-8.5 -4zM129 169q0 2 1 2.5t3 0.5q1 0 6.5 -2t12 -5.5t11 -6.5
t4.5 -4v0v-1l-1 -1.5t-2 -1.5v0h-1v0q-2 1 -5 2t-6.5 3t-6.5 3t-4 2l-2 1t-4 2.5l-4 3t-2 2.5zM128 151v0q0 1 0.5 1.5l0.5 0.5h0.5h0.5q2 0 8 -2t12 -4.5t11 -5.5t5 -5v-1q0 -1 -1 -1.5l-1 -0.5h-1v0q-2 1 -8 2.5t-12 4t-10.5 5.5t-4.5 6zM93 102v-1q0 -3 0.5 -9.5t0.5 -14
t0.5 -14t0.5 -9.5q-1 -2 0.5 -3t2.5 -1q2 0 3 1.5t2.5 3.5t2 4t0.5 3v64q0 2 -1.5 2h-1.5q-2 0 -3 -1t-1.5 -2.5t-1 -3.5t-0.5 -3q-1 -1 -1.5 -3t-1 -4.5t-1 -4.5t-0.5 -3v-1zM48 113q0 -12 1.5 -24t0.5 -25l2.5 -5t4 -5t5 -3t5.5 -1v19t-1 20t-4 19t-8 17h-2v0
q-2 0 -3 -1.5t-1 -3.5v-4v-3zM133 110q0 2 0.5 3.5t2.5 1.5t3.5 -3.5t3 -8.5t3 -9.5t3.5 -7.5q2 -2 4.5 -3t3.5 -4q2 -3 3 -6t3 -6v-4t0.5 -6.5t0.5 -6.5v-5v0v-1v-4.5t-0.5 -7.5t-0.5 -7v-5q-2 -5 -7.5 -7.5t-11.5 -2.5q-1 0 -4 0.5t-5.5 1t-4.5 1.5t-2 3v1q0 1 1.5 2
l1.5 1h16q2 0 2 2v1q0 3 -3 4.5t-7.5 2.5t-7.5 2.5t-3 4.5q0 2 0.5 3t2.5 1q3 0 5 -1.5t4.5 -3l5 -3t5.5 -1.5q2 0 3.5 1t1.5 3q0 4 -3.5 6t-8 3.5t-8 3.5t-3.5 6q0 1 1 1.5t2 0.5q2 0 4.5 -1t4 -2.5t3.5 -3t5 -1.5l0.5 0.5t0.5 1.5q1 0 1.5 1.5l0.5 1.5q0 4 -4.5 7t-10 5
t-9.5 3.5t-4 4.5q0 2 0.5 3t2.5 1q3 0 6 -2t5.5 -4l5 -4t5.5 -2v10q-5 4 -8.5 7.5t-6.5 7.5t-4 8.5t-1 10.5zM176 111q0 4 3 4q1 0 2 -0.5t1 -1.5t1 -3.5t2.5 -5t2.5 -5t1 -3.5q1 -3 3.5 -5t5.5 -4t6 -4.5t5 -4.5q2 -3 2.5 -8.5t1 -11.5t0 -11.5t-0.5 -9.5v-3v-4.5v-4.5v-3
q-1 -3 -3.5 -6.5t-6.5 -3.5h-25q-2 0 -2.5 1t-0.5 3v3q0 1 2 1h19q2 0 2 1.5v2.5v0.5v0.5q-2 1 -5 2t-6.5 2.5t-6.5 2.5t-3 3t1 2h3q5 0 9.5 -1.5t8.5 -1.5q3 0 4.5 2t1.5 6q0 2 -1.5 3t-3.5 1.5t-4 0.5h-3t-3 1t-5 2t-5 1.5t-3 0.5q-2 3 -2 5q6 0 12 -2.5t12 -2.5
q3 0 3.5 2.5t0.5 4.5q0 4 -3 5.5t-7 2.5q-1 1 -4 1.5t-6 1.5t-6 1.5t-4 0.5q0 1 -1.5 2t-1.5 2l0.5 1.5l0.5 1.5q1 0 1.5 1l0.5 1q1 -1 4 -2t6.5 -2.5t6.5 -2.5t5 -2q1 0 3 2t2 4l-1.5 1t-2.5 2q-4 4 -8 6.5t-6.5 5.5t-3.5 7.5t-1 10.5zM78 31q0 -3 1 -5.5t4 -2.5q4 0 4.5 3
t0.5 6t-0.5 5t-4.5 2t-4.5 -2.5t-0.5 -5.5z" />
</svg>
