<?xml version="1.0" standalone="no"?>
<!DOCTYPE svg PUBLIC "-//W3C//DTD SVG 1.1//EN" "http://www.w3.org/Graphics/SVG/1.1/DTD/svg11.dtd" >
<svg xmlns="http://www.w3.org/2000/svg" xmlns:xlink="http://www.w3.org/1999/xlink" version="1.1" viewBox="-10 0 266 256">
   <path fill="currentColor"
d="M140 211q0 9 0.5 18t2.5 17l1 2.5t2 2.5t3 -1t2 -2v-6q0 -5 -1 -10t-2 -9.5l-2 -9t-1 -9.5q0 -6 1.5 -12t3.5 -11.5l4 -11t2 -9.5t-1.5 -7t-3.5 -6.5t-3.5 -6t-1.5 -6.5q0 -2 1 -3t2 -1.5t2.5 -1t2.5 -2.5q2 -2 2.5 -8t1 -13t1 -13t0.5 -9v-2.5v-3.5t-1 -3t-2 -1
q-2 0 -3 1t-1.5 3t-0.5 4v3q0 2 -0.5 5l-0.5 3h-13l-2 -2q2 -6 2 -12q0 -2 -0.5 -3t-2.5 -2l-1.5 0.5t-1.5 1.5l-2 1v19v10t0.5 9.5t2.5 8.5t7 6v19q-2 3 -5 6l-6 6t-4.5 6t-1.5 6q0 4 3 4q5 0 7.5 -3t4 -7.5t3.5 -8.5t5 -6q2 2 2 4v5q0 5 -0.5 10t-4.5 9q-1 9 -1.5 16
t-0.5 16zM179 213q0 2 0.5 6t1 8.5t1 8.5t0.5 6q0 1 0.5 2.5t1.5 3t2 2.5t2 1q3 0 4 -2t1 -4q0 -9 -2 -17t-2 -16v-4v-4t0.5 -3t0.5 -2t0.5 -4t1.5 -6.5t1.5 -7t0.5 -5.5q1 -4 3 -7.5t2 -6.5q0 -4 -2 -7.5t-5 -7t-5 -6.5t-2 -8q0 -2 1 -3t2 -1h3t3 -1q2 -2 3.5 -7.5t2 -12.5
t0.5 -13v-8v-11q0 -1 -1.5 -1.5t-2.5 -0.5l-3 0.5t-3 1.5v13l-1 1t-3 1t-3.5 0.5t-2.5 0.5t-2.5 -0.5t-1.5 -1.5v-12q0 -2 -1 -2h-2h-2.5t-1.5 2v40q0 4 3 7t5 4v25l-1 3t-2 5q0 1 -0.5 2t-1.5 2.5t-1.5 3t-1.5 1.5q0 1 -2 4t-3.5 6t-3.5 5.5t-3 3.5v7q6 0 9.5 -4.5t7 -11
t6 -12.5t5.5 -10h1q1 0 1.5 1t0.5 2.5v3v2.5q0 9 -3 19t-5 20q0 1 -0.5 3.5zM49 187q2 6 5 10t7 6.5t9 3t12 0.5q3 0 8 -0.5t10 -1.5t9 -4t5 -7v-9t0.5 -14.5t1 -17.5t0.5 -17t0.5 -14.5t0.5 -9.5v-3v-4q0 -9 -0.5 -17.5t-0.5 -18.5q1 0 3.5 0.5t3.5 0.5l0.5 -0.5l1.5 -1.5
l1 -1.5t2.5 -3t2.5 -3l1 -1.5l2 -2l2 -2t2 -1.5l1 -0.5l6 3h35l1 -1.5l1 -1.5v-0.5v-0.5v-0.5v-0.5l-1 -1l-1 -1h-34q-1 0 -1 -1.5v-2.5v-2l1.5 -2.5t3.5 -4.5t3.5 -4t2.5 -3q1 -2 1.5 -2.5t2.5 -0.5q4 0 7 2.5t6 6l6 7t5 4.5q1 2 3.5 4.5l5.5 5.5l5.5 5.5l3.5 3.5h3h3.5
t1.5 -3t-2.5 -5.5t-5.5 -4.5t-5.5 -4.5t-3.5 -5.5l-5.5 -5.5l-7.5 -7.5l-7.5 -7.5l-4.5 -4.5q-3 -3 -4.5 -4t-4.5 -1q-2 0 -3 1t-3 4q-10 13 -18.5 26t-20.5 24q-2 -3 -4 -4t-4.5 -2l-5 -2t-3.5 -3v-3.5v-2.5q0 -7 2 -10.5t5 -5t7 -1.5h6t5 -0.5t1 -3.5q0 -3 -1 -3.5
t-3 -0.5h-2q-1 0 -5.5 0.5t-9.5 1t-9 1t-5 0.5h-7h-11h-11h-7q-4 -2 -4.5 0t-0.5 4t1 4.5t4 2.5l1.5 -0.5t2.5 -0.5t2 -0.5t2 -0.5h1.5h2.5h3.5t3.5 2q0 1 0.5 4.5t0.5 4.5q0 2 -0.5 6t-0.5 5q-2 0 -5 1.5t-6 2.5t-5.5 3t-2.5 4q-1 10 -2 19.5t-1 19v18.5v20v8v12v12v8z
M60 190l23 -23v-1h1q3 0 5.5 2.5l4.5 4.5l2 2l4 4l3.5 3.5l2.5 2.5v0.5v0.5q0 6 -4 8q-7 2 -11 2h-10h-5t-6 -0.5t-6 -2t-4 -3.5zM78 70q1 -3 2.5 -3h3.5h3t2 1v9.5v13.5v13.5v9.5q0 8 1 13t3 9t5.5 8t9.5 10v4v4v5.5t-2 5.5h-1h-1q-2 -1 -4 -3t-4.5 -4t-4 -4t-2.5 -3h-3
q-4 0 -7 1.5t-6.5 4t-6 5t-5.5 4.5h-1v0q-1 0 -1.5 -0.5l-0.5 -0.5v-19l3 -2.5t6.5 -6t6.5 -7.5t3 -9v-6.5t0.5 -12.5t0.5 -13.5v-9.5v-17zM100 67q2 0 3 1t2 3.5t2 4.5t1 3v61l-1 1l-1 1q-2 0 -4 -2.5t-3 -6t-1.5 -6.5t-0.5 -4v-55q0 -1 1.5 -1h1.5zM61 75q2 -2 3 -4t3 -2
q1 0 1.5 0.5l0.5 0.5v3.5t0.5 5t0.5 5t1 3.5v1v1q-1 3 -1 8t-0.5 10t-0.5 9v4q0 1 -1 4.5t-2 6.5t-3.5 5.5t-5.5 2.5q0 -16 1 -32t3 -32zM135 104q0 -5 4 -5.5t8 -0.5q3 0 3.5 1.5t0.5 4.5q0 2 -0.5 4.5t-1.5 5.5t-2.5 5.5t-3.5 2.5t-3.5 -2t-2.5 -5t-1.5 -6t-0.5 -5z
M176 98h16q0 6 -1.5 12t-2.5 11l-1.5 0.5t-2.5 0.5l-1.5 -0.5t-3 -0.5t-2.5 -1t-1 -2v-20zM78 51q0 -2 0.5 -4.5t1 -4.5t2.5 -3.5t5 -1.5h1l1 1.5t2 2.5v5v5t-0.5 4t-2 3t-4.5 1q-2 0 -4 -3t-2 -5z" />
</svg>
