<?xml version="1.0" standalone="no"?>
<!DOCTYPE svg PUBLIC "-//W3C//DTD SVG 1.1//EN" "http://www.w3.org/Graphics/SVG/1.1/DTD/svg11.dtd" >
<svg xmlns="http://www.w3.org/2000/svg" xmlns:xlink="http://www.w3.org/1999/xlink" version="1.1" viewBox="-10 0 266 256">
   <path fill="currentColor"
d="M195 245l1 1l1 1.5l1 1.5h1q2 0 4 -1.5t2 -3.5v-18q0 -13 -1.5 -25t-1.5 -25q0 -2 1.5 -4.5t3.5 -6t4 -7.5t2 -9q0 -3 -2 -8t-5 -9.5t-6.5 -8t-7.5 -3.5q-3 0 -4.5 0.5t-1.5 3.5v2q6 5 11 11t5 15q0 2 -0.5 5t-3.5 3q-2 0 -1.5 -0.5t-0.5 -2.5q-2 -2 -5 -3.5t-6 -2.5
t-5.5 -1.5l-2.5 -0.5v-28l-1 -1l-1 -1h-1q-3 0 -5 3t-4 7t-4.5 7t-6.5 3t-6 -3t-3 -6t-2.5 -6t-5.5 -3h-3t-2 3v44l0.5 1.5l0.5 1.5q3 2 6.5 3t6.5 1.5t5.5 2.5t2.5 5q0 6 -3.5 8l-7 4t-7 4.5t-3.5 8.5q0 5 0.5 9t1.5 8q0 2 1 5l2 6t2 5l1 2h10q0 -5 -2 -9t-3.5 -8l-3 -8
t-1.5 -9q0 -2 1 -3.5t3 -1.5h0.5h0.5l0.5 0.5l0.5 0.5q2 6 3 9.5t2.5 7l3 7t4.5 7.5h2.5h1.5h4t2 -3q0 -4 -2.5 -7t-5 -6.5t-5 -8.5t-2.5 -11q0 -2 1 -5t1.5 -6.5t2 -6t2.5 -2.5q0 -1 1.5 -2t3.5 -2.5t4 -2.5t2 -2q2 -1 2.5 -3.5t1 -4.5t1.5 -3.5t3 -1.5q4 0 8 3.5t4 7.5
q0 3 -3 5t-6 3t-5.5 2.5t-2.5 5.5q5 0 8 -2t7 -2q2 0 3 1.5t1.5 3.5t0.5 4v2v3v2l-2 2l-22 3q-1 0 -1.5 1.5l-0.5 1.5q0 3 2.5 3.5t3.5 0.5q5 0 9 -1t8 -1h1l1.5 1.5l1.5 1.5v2.5v3.5v4v2q0 6 -1 11.5t-1 11.5zM114 244q0 2 1.5 2h2.5q3 0 4 -0.5t1 -4.5q1 -1 1 -4.5v-7.5
v-7v-5v-6v-8v-7t-1 -4v-2v-4t-0.5 -4l-0.5 -2q0 -10 1.5 -19.5t1.5 -18.5v-12.5t0.5 -15t4 -13t11.5 -5.5q3 0 4.5 2l3 4l3 4t4.5 2q8 0 10.5 -1t4 -3t2.5 -4.5t5 -6.5q4 -3 9 -3h9.5t8 -2.5t3.5 -12.5q0 -3 -1.5 -7t-4.5 -6h-4t-6 -0.5t-5.5 -0.5h-3.5q-4 0 -6.5 -1
t-4.5 -3l-4 -4t-4 -5q-1 0 -1.5 -0.5t-1.5 -0.5q-4 0 -6 2.5t-3 5.5t-2.5 6t-3.5 3l-25 3l-4 3q1 3 3 3.5t4 0.5q5 0 10 -1t10 -1v15l-0.5 0.5l-0.5 0.5q-8 3 -12.5 5t-6.5 4t-2.5 4.5t-1 6t-1 8t-3.5 11.5q0 28 -1 54.5t-1 53.5v9zM44 148q0 10 1.5 23t3.5 23q0 4 3 6.5
t6.5 3.5t7.5 1h7q4 0 8 0.5t8 -0.5t7 -3t5 -7q1 0 1.5 -2.5t1.5 -5t1.5 -5l0.5 -2.5q0 -4 0.5 -12t1 -17.5t1 -18t0.5 -11.5v-13q0 -11 -1 -22t0 -22q-2 -2 -4 -3.5t-4.5 -2.5t-5 -1.5t-4.5 -2.5v-4q0 -7 1.5 -10.5t4 -5t5 -1.5t5 -0.5t4 -2t1.5 -6.5q-16 0 -32 2t-32 2
q-3 -1 -4 0.5t-1 3.5v2.5t2 1.5h19q2 0 3 2.5t1.5 5.5t0.5 6v4v3.5t-2 3.5h-3.5t-5.5 1t-5.5 2t-2.5 3l-3 17l-0.5 4.5t-0.5 12v16t-0.5 16.5t-0.5 14v1zM57 187q0 -1 2.5 -3.5t6.5 -5t7 -4t4 -1.5q2 0 5.5 1t6.5 3t5.5 4t2.5 5q0 2 -1.5 4.5t-3.5 3.5q-1 0 -3 0.5t-4.5 0.5
h-4.5h-3l-1 0.5l-1 0.5q-2 0 -5.5 -0.5t-6 -1.5t-4.5 -2.5t-2 -4.5zM77 163h-2h-1l-13 8h-4q-1 0 -2 -3.5t-1 -6.5v-3q0 -5 1.5 -8t3.5 -5.5t4.5 -5t4.5 -5.5q0 -1 0.5 -2.5t0.5 -2.5q1 -1 1.5 -4t1 -5.5t1 -4.5l0.5 -2q0 -3 0.5 -9.5t1 -13.5t1 -13.5t0.5 -9.5l0.5 -0.5
l0.5 -0.5l0.5 -0.5l0.5 -0.5l0.5 0.5l0.5 0.5l0.5 0.5t1.5 0.5q0 1 1 2l1 1v47q1 2 3 5.5t4 8l4 9t6 7.5v4.5v4.5v3t-0.5 6t-1 5.5t-2.5 2.5q-3 0 -5 -1.5t-4.5 -3.5t-5 -3.5t-4.5 -1.5zM141 165v-1.5v-0.5l10 -10v0h1q4 0 4 4q0 1 -1 1.5t-2 0.5t-1.5 0.5t-0.5 1.5t0.5 2.5
t1.5 1.5q2 0 3 -2t1 -3q2 0 4.5 2t2.5 4q0 4 -4 4h-17q-2 0 -2 -2v-3zM160 147q0 -4 3.5 -7t8.5 -3q0 3 -1.5 4t-3 1.5t-2.5 1t-1 2.5t1 2.5t2 1.5t2.5 2t2.5 3v1q0 1 -1.5 1.5t-2.5 0.5t-2.5 -1t-2.5 -3l-2 -4t-1 -3zM143 145q0 -1 -0.5 -2t-1.5 -2t-1.5 -2t-0.5 -2
q3 0 5 2t2 5q0 7 -6 9l-0.5 -0.5l-0.5 -0.5q0 -2 2 -3t2 -4zM54 119v-2v-7.5t0.5 -12t0.5 -12.5v-8q1 -5 4 -7t8 -2q0 15 -1.5 29.5t-4.5 28.5l-2 2l-2 2q0 1 -1 1t-1 -1v-1.5t-0.5 -3.5t-0.5 -3.5v-2.5v0zM93 126q1 -7 0.5 -12.5t-3.5 -12.5v-32q0 -1 1 -2t2 -1l0.5 -0.5
l0.5 -0.5q2 0 3.5 2.5t2.5 4.5q1 10 1.5 18.5t0.5 18.5q0 1 -0.5 4t-0.5 6v6v4l-0.5 0.5l-0.5 0.5q0 1 -1 1v0q-1 0 -1 -1l-2 -2t-3 -2zM149 124q0 3 3 3q4 0 4 -3t-4 -3q-3 0 -3 3zM155 95h10q0 2 -1.5 2.5t-3.5 0.5t-3.5 -0.5t-1.5 -2.5zM164 70q3 0 4 2.5t1 5.5
q0 1 -0.5 4t-3.5 3h-13q0 -6 2.5 -10.5t9.5 -4.5zM176 75q0 -4 2.5 -5t6.5 -1h3h4t3.5 1.5t1.5 3.5q0 1 -0.5 2t-1 2.5t-1.5 2.5t-2 1h-14q-1 0 -1.5 -2.5t-0.5 -4.5zM160 56q4 -1 5.5 1.5t1.5 4.5h-11q0 -1 1 -3.5t3 -2.5zM79 38q2 0 2.5 1t0.5 3v3v3q0 4 -0.5 6.5
t-5.5 2.5v-17q0 -2 1 -2h2zM121 50q0 1 1 1h1h5t6.5 -1t7 -2.5t4.5 -3.5q3 -4 4.5 -7t3 -4.5t4.5 -2t9 -0.5q4 0 5.5 2.5t3.5 6t6 6.5t13 3h4h5q1 -1 1 -1.5v-2.5q0 -3 -4 -3.5t-8.5 -1t-8 -1.5t-3.5 -5q0 -3 3 -3.5t7 -0.5t7.5 -0.5t3.5 -4.5v-2t-2 -2h-30q-1 0 -1.5 -2
l-1 -4t-2 -3.5t-4.5 -1.5q-4 0 -5 2.5t-0.5 5t0 5t-3.5 2.5h-31q-2 0 -2 2.5v2.5v3t3 1h18l0.5 0.5t0.5 1.5q0 3 -3 5t-7 3t-7 2t-3 5z" />
</svg>
