<?xml version="1.0" standalone="no"?>
<!DOCTYPE svg PUBLIC "-//W3C//DTD SVG 1.1//EN" "http://www.w3.org/Graphics/SVG/1.1/DTD/svg11.dtd" >
<svg xmlns="http://www.w3.org/2000/svg" xmlns:xlink="http://www.w3.org/1999/xlink" version="1.1" viewBox="-10 0 266 256">
   <path fill="currentColor"
d="M42 239q0 2 1 3.5t3 2.5q2 0 7.5 -0.5t12 -1t12 -1t7.5 -0.5h6h12h11h7t5 -1l3 -1v-7l-4 -0.5t-6 -1.5h-2q-3 0 -6.5 1t-7.5 1q-2 0 -5 -1t-3 -5v-18q0 -9 1 -18t1 -18q0 -4 -1 -8.5t-1 -9.5v-6q2 -4 7.5 -5t11.5 -0.5t10.5 0t4.5 -5.5q0 -2 -1 -3.5t-3 -1.5
q-7 0 -13.5 0.5t-12.5 0.5v-19q0 -2 3 -3t7.5 -2t8 -2t3.5 -3q0 -3 -1.5 -3.5t-3.5 -0.5h-5.5t-9.5 1t-9 2.5t-4 3.5v25l-5 3h-23q-3 1 -7 2.5t-4 5.5q0 2 1 3.5t4 1.5q6 0 12.5 -2t13.5 -2q1 0 2 0.5l1 0.5q1 0 1.5 2.5t0.5 4.5v73l-3 7h-3.5t-8.5 0.5l-10 1t-9 0.5h-3
h-2.5t-2.5 1t-1 3zM151 219q3 4 7.5 7.5t9.5 4.5h13h9t11.5 -1.5t9.5 -5t4 -9.5v-130q0 -1 -0.5 -4l-0.5 -3v-2v-2v-2.5t0.5 -5t0.5 -5v-3.5q0 -5 -1.5 -7t-6.5 -2q-3 0 -5 1.5t-2 5.5q0 14 2.5 28.5t2.5 28.5v5t-0.5 6t-0.5 5v2l-2 2h-41q-3 0 -3 -2.5v-4.5v-4v-2.5
t0.5 -5.5t0.5 -5v-3v-1q0 -3 -0.5 -5t-0.5 -5q0 -10 1.5 -19t1.5 -18q0 -4 -1 -6.5t-5 -2.5q-3 0 -4 2t-2 5q1 25 -0.5 50t-1.5 50q0 15 1.5 31t2.5 32zM61 217q0 3 1.5 3.5t2.5 0.5q3 0 4 -1.5t1.5 -3t0.5 -4v-4.5v-3t0.5 -6.5t0.5 -6.5v-6v-4t-0.5 -6.5t-0.5 -6.5v-4
q-1 -3 -2.5 -4t-4.5 -1h-1.5h-1.5v3.5t-0.5 5.5t-0.5 5v4v0v1v3t0.5 4.5t0.5 4.5v3v4.5v6.5v7.5v4.5zM109 219q0 1 1 1.5t2 0.5t2.5 -1t3 -2.5t2.5 -3t1 -2.5v-49q0 -2 -2 -2.5t-4 -0.5h-2t-2 1q-1 2 -1 6.5t-0.5 10t-0.5 10v6.5l-0.5 1.5t-0.5 3.5v4v3v3v4q0 1 0.5 3t0.5 3
zM158 190v-43l3 -3h41l0.5 0.5l1.5 1.5q1 5 1 11v13v10v8.5t-0.5 9t-0.5 10.5q-1 5 -3.5 7.5t-6 3.5t-7.5 1.5t-8 0.5q-10 0 -13.5 -2.5t-4.5 -7t-1 -9.5q0 -6 -2 -12zM41 98q0 1 1 3t3 2q3 0 6.5 -4.5t8 -11t9.5 -14.5t10 -14.5t9 -11t7 -4.5q1 0 2 0.5t2 0.5q0 1 1 3
t2.5 4t2.5 4t2 3l3 4.5t1 4.5q0 2 -1 3t-3 1q-1 0 -3.5 -0.5t-5.5 -0.5t-6 0.5t-4 0.5q-2 0 -4 0.5t-4 1.5t-3 2.5t-1 4.5q10 0 19 -1t19 -1q4 0 5.5 4t3 8.5t3.5 8.5t6 4q3 0 5 -1t4 -3v-1q0 -4 -2.5 -8.5t-6 -8.5t-7 -8.5t-4.5 -7.5q-1 0 -2 -3t-2.5 -6t-3 -5.5t-1.5 -3.5
l-1.5 -2t-3 -4.5t-2.5 -4.5t-1 -3q-1 -1 -2 -3.5t-1.5 -4.5t-2 -3.5t-3.5 -1.5q-1 0 -5.5 5.5t-10.5 14t-12.5 18t-12.5 18t-9.5 15t-3.5 7.5z" />
</svg>
