<?xml version="1.0" standalone="no"?>
<!DOCTYPE svg PUBLIC "-//W3C//DTD SVG 1.1//EN" "http://www.w3.org/Graphics/SVG/1.1/DTD/svg11.dtd" >
<svg xmlns="http://www.w3.org/2000/svg" xmlns:xlink="http://www.w3.org/1999/xlink" version="1.1" viewBox="-10 0 266 256">
   <path fill="currentColor"
d="M164 224q2 2 4.5 6t5 8.5t6 8t6.5 3.5q2 0 4 -1t2 -3q0 -3 -2 -6.5l-4 -7t-4.5 -6t-3.5 -4.5q-5 -6 -6.5 -14t-1.5 -15t3.5 -12.5t7.5 -11t7.5 -11t3.5 -12.5q0 -4 -2 -7t-5 -6l-5 -5t-2 -6q0 -2 3.5 -3.5t7.5 -4t7.5 -7t3.5 -11.5v-32l-2 -2l-3 -3h-1v0v0l-4 6v29
q0 2 -0.5 4t-2 4.5t-3 3.5t-3.5 1q-4 0 -5 -2t-1 -5v-4v-9t0.5 -13t0.5 -13v-8t2 -5.5t5 -3.5h25q1 0 3 -2t2 -4q0 -1 -2 -3t-3 -2h-30q0 -4 0.5 -8t0.5 -9t-5 -5q-4 0 -6 3t-2.5 7.5t-0.5 8.5v5q0 1 -3 1.5t-7 0.5h-9t-9.5 0.5t-7 1.5t-2.5 3q0 3 1 3.5t4 0.5h32l1 2t2 3
q0 1 -0.5 3.5t-1.5 2.5v8.5v12.5v11.5v7.5v2.5t-0.5 3.5t-0.5 3.5v2.5h-4q-1 0 -3 -0.5t-3.5 -1.5l-3 -2t-1.5 -3v-35q0 -1 -2.5 -1.5l-2.5 -0.5q-4 0 -5 2.5t-1 6.5v1q0 2 0.5 7t0.5 10t0.5 10t0.5 7q2 3 7 5t9.5 3t8 2t3.5 2l3 15q2 0 3.5 1.5t3 3.5t2.5 4t1 3v1.5v0.5
q0 1 -1 3l-1 2l-19 27q-1 1 -1 3.5v5v4.5v4v6.5t0.5 5.5t1.5 6t3 7zM47 203q-1 0 -1.5 0.5t-0.5 1.5v3v3h2h5h4h3q4 0 13 -0.5t19 -1t19 -1t12 -0.5q3 -1 5 -1.5t2 -3.5v-2t-2 -1h-35l-0.5 -0.5t-0.5 -1t-1 -2l-1 -1.5v-67l1.5 -0.5t1.5 -1.5q8 -3 14 -3h15l3 -3l-3 -3h-30
q-1 0 -1.5 -1t-0.5 -2v-2v-1q0 -5 1.5 -8.5t4.5 -5.5t5.5 -2.5t5 -1.5t4.5 -2t2 -4t-2.5 -3.5t-5.5 -0.5q-7 0 -12 1t-7.5 4t-3.5 8t-1 12v1l0.5 2l0.5 2q0 1 0.5 1.5l0.5 0.5q0 1 -0.5 2t-1.5 1q-8 0 -16.5 0.5t-15.5 1.5q-2 0 -3 1.5t-1 3.5q0 4 2.5 4h4.5q6 0 12 -1.5
t13 -1.5h2t2 2v11.5t0.5 17.5t0.5 17v11v4q0 5 -0.5 8.5t-5.5 4.5q-4 0 -7.5 0.5t-7 0.5h-6.5h-7zM58 190q0 2 1 2h2q2 0 5 -2q0 -6 0.5 -10t0.5 -8v-8v-8v-9q0 -4 -2 -4.5t-4 -0.5q-3 0 -4 1.5t-1 4.5v4q0 2 0.5 7.5t0.5 11.5t0.5 11.5t0.5 7.5zM103 185q2 4 5 4
q2 0 3 -1.5t2 -3.5v-9v-9q0 -3 -0.5 -7t-0.5 -8t-1 -10q0 -1 -1 -1.5t-2 -0.5v0q-2 0 -3.5 1t-2.5 2v9q0 9 1 17.5t0 16.5zM44 76v1l1 1l2 2q4 -1 6.5 -3.5l5 -5t4 -5t3.5 -2.5q9 -2 19 -3.5t19 -1.5h4.5h4.5q1 4 3 4.5t5 0.5t4 -1t1 -4q0 -1 -0.5 -2.5t-1.5 -2.5l-28 -29
q-2 -1 -3 -3.5t-4 -2.5q-4 0 -9 5.5t-10 13t-9 14.5t-6 10l-3.5 3.5l-3 3l-3 3t-1.5 3.5v1zM73 52q0 -2 2 -4.5t4 -5.5t4.5 -5t3.5 -2q2 0 4.5 1.5t4.5 3.5t3.5 4.5t2.5 5.5v0v1q-1 0 -4 0.5t-6.5 1t-6.5 1t-4 0.5h-1h-2h-3t-2 -2z" />
</svg>
