<?xml version="1.0" standalone="no"?>
<!DOCTYPE svg PUBLIC "-//W3C//DTD SVG 1.1//EN" "http://www.w3.org/Graphics/SVG/1.1/DTD/svg11.dtd" >
<svg xmlns="http://www.w3.org/2000/svg" xmlns:xlink="http://www.w3.org/1999/xlink" version="1.1" viewBox="-10 0 266 256">
   <path fill="currentColor"
d="M197 247q0 1 1 2.5t2 1.5q3 0 4.5 -3.5t1.5 -6.5q0 -4 -0.5 -12.5t-2 -17.5t-3 -17t-3.5 -11q-3 -3 -7 -4.5t-9 -2.5t-10 -1t-9.5 -1.5t-7 -4t-2.5 -7.5q0 -10 3.5 -14.5t8.5 -6.5t10.5 -2.5t10.5 -2t8.5 -5t3.5 -11.5v-6q0 -3 -0.5 -6.5t-2.5 -6t-5 -2.5h-38q-3 0 -5 2
t-3 5l0.5 1.5t1.5 1.5h13l4 3v21q-2 0 -4.5 1.5t-5 3.5t-4.5 4.5t-2 5.5v23q0 5 3 7t7 3t7.5 1.5t5.5 0.5q1 0 3.5 0.5l5 1l5 1t3.5 1.5q4 3 6 11t3 17.5t1 18.5t1 13zM91 214q-1 3 -6 3h-10.5t-10 1.5t-4.5 8.5h2.5h2.5q3 0 7.5 -0.5t10.5 -1t12.5 -1t12.5 -1t11 -1t7 -0.5
q1 0 2 -1.5t2 -1.5v-1v-1q-1 -1 -1.5 -2l-0.5 -1h-29v-78l3 -3q1 0 4 -0.5t6.5 -1t6.5 -1t4 -1.5q2 0 3 -0.5t1 -2.5q0 -4 -4 -4q-5 0 -10 1t-10 1q-2 0 -3 -1t-2 -3t-1 -4v-5q0 -5 2.5 -7.5t6 -3t7 -1.5t6.5 -5q-1 -2 -3.5 -3t-4.5 -1h-1q-1 0 -2.5 0.5l-3 1t-2.5 0.5h-2
q-1 1 -2.5 1.5t-3 1.5t-2.5 1.5l-1 0.5v27l-1 2q-8 0 -15 0.5t-14 1.5q-1 0 -1.5 1t-0.5 2t1.5 2t3 1h2.5h2q4 0 8 -0.5t8 -0.5t5.5 1.5t2 4.5t0 6.5t-0.5 7.5q0 1 0.5 6t0.5 10.5t0.5 10.5t0.5 7q0 1 -0.5 5t-0.5 8t-0.5 8t-0.5 6zM68 192v4q0 2 0.5 5t1.5 5t2 2h1l1.5 -1
t1.5 -2q1 -13 1.5 -23.5t0.5 -22.5v-4q0 -2 -0.5 -4.5t-2 -3.5t-4.5 -1l-1 1.5t-2 2.5v0q0 8 1 15.5t1 15.5v3v3l-1 2t-1 3zM119 143l-1.5 0.5l-1.5 0.5l-1.5 1.5l-0.5 0.5v56l1.5 1.5l1.5 1.5h0.5h0.5q2 0 2.5 -2t1.5 -3v-20v-18t-2 -18l-0.5 -0.5zM169 116v-3v-2l4 -4h4h4
q3 0 4.5 0.5t2.5 2t1 4.5q0 9 -2.5 12t-10.5 3h-3h-2q-2 -3 -2 -6.5v-6.5zM91 13q-2 0 -5.5 5t-6.5 11.5t-6 13.5t-5 9q-1 3 -4 7.5t-5 8.5t-4 7t-2 4v5q5 0 7.5 -1.5t4 -4t2.5 -6t3 -7.5l4 -8t6.5 -12.5t7 -11.5t5.5 -5q1 0 3.5 3t5.5 8t7 11t7 11.5t6 10t4 5.5h1v0
q2 0 2.5 -1t0.5 -2v-1v-1q-1 -2 -3 -5.5t-4 -8t-4 -8.5t-3 -5q-1 -2 -4.5 -7t-7.5 -11t-7.5 -10t-5.5 -4zM139 75v7q3 0 5 -1t4 -4q0 -1 0.5 -3.5t1.5 -5t1.5 -5t1.5 -3.5q0 -2 2 -7t4.5 -10.5t5 -9t3.5 -3.5q2 0 5 3.5t6.5 9t7 12t6.5 12t5.5 9t4.5 3.5q2 -1 2.5 -2.5
t0.5 -3.5t-2.5 -7t-6.5 -12t-9 -14t-9.5 -12.5t-7.5 -9.5t-4 -4q-4 0 -7 5t-5 12l-4 14t-3 10q-1 1 -2 4t-2.5 6l-3 6t-1.5 4zM185 68h-7.5t-11 0.5t-10 2.5t-4.5 6h5h8h8h5h3t4 -0.5t3 -1.5t1 -3q0 -3 -1 -3.5t-3 -0.5zM80 68q0 4 3 4h5h4.5t7.5 -0.5t7 -2t3 -3.5v-1
l-1 -0.5l-1 -0.5q0 -1 -3 -1h-2h-6t-7.5 0.5t-6.5 1.5t-3 3z" />
</svg>
