<?xml version="1.0" standalone="no"?>
<!DOCTYPE svg PUBLIC "-//W3C//DTD SVG 1.1//EN" "http://www.w3.org/Graphics/SVG/1.1/DTD/svg11.dtd" >
<svg xmlns="http://www.w3.org/2000/svg" xmlns:xlink="http://www.w3.org/1999/xlink" version="1.1" viewBox="-10 0 266 256">
   <path fill="currentColor"
d="M151 220q0 6 4.5 10.5t10.5 8.5t12.5 6.5t10.5 5.5h1q3 0 5 -2.5t2 -5.5v-1.5v-1.5q-3 -2 -9 -4t-12.5 -5.5t-11 -7t-4.5 -8.5q0 -6 3.5 -10t8.5 -6t10.5 -4t10.5 -4q8 -16 10 -32.5t2 -33.5v-9.5t-1 -13t-3.5 -11.5t-7.5 -5h-36v6q1 0 5 0.5t8 0.5t8 0.5t5 0.5q9 0 11 5
t2 13q0 14 -1 27t-2 27q-2 2 -2.5 4.5t-0.5 4.5t-0.5 4.5t-1.5 3.5q-6 5 -13 7t-12 4.5t-8.5 8t-3.5 17.5zM55 204q0 1 0.5 2t1.5 1q1 1 4 1h4h8h13t15 -0.5t14 -1t10 -2t4 -3.5q0 -1 -1.5 -2.5t-2.5 -1.5h-28l-2 -2v-1.5v-2.5q0 -20 1.5 -40t0.5 -41q2 -2 6.5 -3t9.5 -1
t8.5 -0.5t3.5 -4.5q0 -1 -1.5 -2.5t-3.5 -1.5h-20l-3 -2l-0.5 -1.5t-0.5 -2.5q0 -6 3.5 -8t8 -2.5t8 -1t3.5 -3.5v-1q-1 0 -2 -1.5t-2 -1.5h-3h-3q-10 0 -14.5 2t-6 5t-1 6.5t1 6.5t-0.5 5t-5 2h-29l-2 2q-1 2 -1 2.5v2.5q0 3 3 3q7 0 15 -1.5t16 -1.5h2t2 1v57q-1 4 -1.5 8
t-0.5 8t0.5 8t0.5 6l-1 0.5l-1 0.5q0 1 -1.5 1.5l-1.5 0.5h-25q-2 0 -2.5 2.5t-0.5 4.5zM69 186l0.5 0.5t1.5 0.5v1q1 0 1 -0.5v-0.5q1 0 2.5 -2t2.5 -2v-10.5t0.5 -16.5t0.5 -16.5v-10.5v-4q0 -2 -0.5 -3.5t-3.5 -1.5q-2 0 -2.5 0.5t-0.5 2.5q-1 6 -1.5 11.5t-0.5 10.5v10
v12v19zM106 178q0 3 1 4t4 1h1h2q0 -5 0.5 -11t1 -13t1 -13.5t0.5 -11.5v-4t-1 -3.5l-2 -3t-3 -1.5q-1 0 -2 0.5l-1 0.5q0 3 -0.5 10.5t-0.5 15.5t-0.5 15.5t-0.5 10.5v3zM138 132v1q1 5 1 11.5t0.5 12.5t0.5 10.5v4.5l3 3h28q3 0 4.5 -4.5t2.5 -10.5t1.5 -11.5t0.5 -7.5
v-11l-3 -3h-1v0l-1.5 1.5l-0.5 0.5q0 1 -1 2.5t-1.5 3.5l-1 4t-1.5 2l-20 2l-4 -2v-12q0 -1 -1 -1.5t-2 -0.5q-3 1 -3.5 2t-0.5 3zM145 159q0 -3 2.5 -5t5.5 -2.5t6.5 -1t5.5 -0.5q1 0 2.5 0.5l1.5 0.5q2 1 2 2v3q0 3 -1 6.5t-4 5.5h-7q-2 0 -4.5 -0.5l-5 -1t-3.5 -2.5
t-1 -5zM146 115q2 0 5.5 0.5t7.5 0.5t7 0.5t5 0.5h2q2 0 4 -0.5t4 -0.5t3.5 -1t1.5 -3v-2t-1 -1h-4h-6h-5h-4t-4 -0.5t-5.5 -0.5t-4 -0.5l-1.5 -0.5l-5 -4q0 -1 -0.5 -2.5t-0.5 -4.5v-5.5v-4.5q0 -9 4 -12t10.5 -3.5t14.5 -0.5t14.5 -1.5t10.5 -6.5t4 -16q0 -4 -0.5 -6.5
t-3.5 -4.5h-5.5t-7.5 -0.5t-8 -0.5t-5 -1q-5 0 -10.5 -0.5t-10.5 -2.5q-2 -1 -3 -4t-2 -6.5t-2 -6.5t-4 -3q-2 0 -3 1.5t-1 3.5q0 3 0.5 7t2.5 8t4.5 7t6.5 4q2 0 6.5 0.5t9.5 0.5t10 0.5t6 0.5h5t5 1v3v3q0 3 -0.5 5.5t-4.5 4.5q-13 1 -22 1t-15 2t-9.5 8.5t-3.5 22.5v6
t1 5.5t2.5 5t4.5 4.5zM52 71v2.5t2 1.5q4 0 7.5 -2.5t6 -6t5.5 -7t5 -6.5q2 1 2.5 2.5t0.5 2.5h6h6t8 -0.5t7 -1.5t3 -4t-3 -3h-2h-4t-6.5 0.5t-7 0.5h-4.5h-1q0 -1 1.5 -4t3.5 -6.5t4 -5.5t4 -2h1q8 6 16 14l15 15h2q2 0 4.5 -1t2.5 -3q0 -1 -3 -4t-7 -7.5t-9.5 -9.5
t-10 -9t-8 -6.5t-4.5 -2.5l-2.5 2.5t-6 6.5t-7.5 8.5t-7.5 8.5t-6 7t-3 4t-2 3l-3 4l-3 4t-2.5 3v2z" />
</svg>
