<?xml version="1.0" standalone="no"?>
<!DOCTYPE svg PUBLIC "-//W3C//DTD SVG 1.1//EN" "http://www.w3.org/Graphics/SVG/1.1/DTD/svg11.dtd" >
<svg xmlns="http://www.w3.org/2000/svg" xmlns:xlink="http://www.w3.org/1999/xlink" version="1.1" viewBox="-10 0 266 256">
   <path fill="currentColor"
d="M44 246q0 4 1 4.5t4 0.5q11 0 22.5 -0.5t22.5 -1.5q3 0 8 -1t9.5 -2t7.5 -1.5l3 -0.5v-7h-28l-2 -2v-3t-0.5 -7.5t-0.5 -8.5v-7q-1 -16 -1.5 -31.5t-0.5 -30.5q0 -8 4.5 -10t10.5 -2.5t10.5 -1.5t4.5 -5q0 -3 -1.5 -3.5t-3.5 -0.5q-6 0 -11.5 1t-11.5 1v0v0
q-1 -1 -1.5 -3.5t-0.5 -3.5v-2q0 -10 4 -13.5t8.5 -4.5t8.5 -1.5t4 -4.5q0 -3 -2 -4.5t-4 -1.5q-7 0 -14 1.5t-12 2.5q-2 1 -3.5 3.5t-1.5 5.5v27h-31q-1 0 -1.5 1t-0.5 2l-1 1.5l-1 1.5q0 1 1.5 3t2.5 2l2.5 0.5l2.5 0.5q7 0 12 -0.5t13 -1.5q3 2 3 7v2v1q0 1 -0.5 4.5
t-0.5 7t-0.5 7t-0.5 4.5v1q0 12 1 24t1 24v5v5v5v3l-2 1q-7 0 -14.5 0.5t-15.5 1.5q-2 2 -2.5 3t-0.5 3zM129 243v0.5v0.5q3 5 9 5q18 0 37 -2t37 -2q3 1 3.5 -1t0.5 -4v-1v-2t-0.5 -1.5t-1.5 -0.5h-32q-1 0 -2 -2.5t-1 -5.5v-6v-4v-3v-3q3 -5 6.5 -6t7.5 -2t8 -4t8 -12
q0 -1 0.5 -4t0.5 -7t0.5 -7t0.5 -4v-49v-48v-3t-1 -1.5t-2 -0.5h-2h-3t-2 2q0 1 -0.5 4.5t-0.5 7.5v7v5q0 14 1 27t1 27q0 3 0.5 8t0 11t-1.5 12t-3 11t-5 8t-8 3q-2 0 -4 -3t-2.5 -6.5l-1 -7t-0.5 -4.5q0 -6 2.5 -8.5t5 -3.5t5.5 -2.5t4 -6.5q0 -6 -1.5 -12t-3 -12.5
t-3 -12.5t-2.5 -12v-1q0 -2 -1.5 -4.5t-3 -6t-2.5 -6t-1 -4.5q0 -3 0.5 -5.5t2 -4.5l3 -4t2.5 -4q1 -5 3.5 -11.5t4.5 -13t3.5 -11.5l1.5 -5v-10q0 -1 -1 -1.5t-2 -0.5q-3 1 -5.5 5.5t-4.5 11t-4 13.5t-4 13.5t-3.5 10.5t-2.5 4q-2 0 -4.5 -4t-4.5 -10.5t-3.5 -14
t-3.5 -13.5l-3.5 -10.5t-3.5 -4.5q-4 0 -6 3.5t-2 6.5q0 1 2 6t4 11t4.5 11t2.5 7q2 5 4.5 8t4 6.5t2.5 7t1 9.5q0 7 -2 14.5t-4.5 14.5t-4.5 14.5t-2 14.5v9q1 2 4 3l6 2t5.5 2.5t2.5 4.5v25q0 3 -2.5 3h-3.5h-4h-3t-3.5 -1t-1.5 -2q-1 -2 -2 -5t-2 -6.5l-2 -7t-1 -4.5v-4
v-5l1 -3t1 -4t-0.5 -3.5t-1 -6t-0.5 -6v-3.5v-13v-19v-19v-12q-2 -3 -5.5 -3.5t-6.5 -0.5v12v19v20v12q0 2 0.5 7.5t0.5 11t0.5 10.5t0.5 6q1 10 2 17.5t4.5 13t10 8t16.5 2.5l4 4v21l-1 1t-1 2q-1 0 -1.5 1l-0.5 1h-36l-1 2t-1 3v0.5v0.5zM54 182v46q0 2 2 2h3q5 0 6.5 -4
t1.5 -10q0 -3 -1 -5.5t-1 -6.5q0 -1 0.5 -2.5l0.5 -1.5q0 -1 0.5 -4l0.5 -3v-2t-0.5 -2t-0.5 -2v-1q-1 -2 -1 -7t-0.5 -10t-0.5 -10v-7q-1 -1 -3.5 -2t-3.5 -1q-2 0 -3 2.5t-1.5 5.5t-0.5 6v5q0 4 0.5 7t1.5 7zM106 214q0 3 1 6t4 3q2 0 3.5 -2t1.5 -4v-66q0 -3 -2.5 -3.5
t-3.5 -0.5q-4 0 -5 3.5t-1 6.5v4v10.5t0.5 16t1 16t0.5 10.5zM161 146q0 -3 0.5 -8.5t2 -11t3.5 -9t4 -3.5q3 0 5 4t4 9.5t3 11t1 7.5q0 5 -2.5 6.5t-6.5 1.5h-5t-5 -0.5t-3 -2.5t-1 -5zM90 12q-2 0 -6 3.5t-9 8.5t-10.5 11t-10 12l-7.5 10t-3 6v2.5v3.5t-0.5 3.5t-0.5 2.5
q4 0 10.5 -6.5t13 -14.5t12 -15.5t8.5 -10.5q1 0 1.5 -0.5t1.5 -0.5q2 0 6 6t8 13.5t8 14.5t7 9h2q2 0 2.5 -1.5t0.5 -3.5q0 -5 -2 -9t-5 -8t-6 -7.5t-5 -7.5q-2 -2 -3.5 -6t-3 -7t-3.5 -5.5t-6 -2.5zM70 63q0 2 2 5h8h6h5.5t5.5 -0.5t7 -1.5l1.5 -2t1.5 -3v-1v-1l-1.5 -0.5
l-1.5 -0.5h-2q-2 0 -3.5 -0.5t-3.5 -0.5h-2h-5h-8t-7 1.5t-3 4.5z" />
</svg>
