<?xml version="1.0" standalone="no"?>
<!DOCTYPE svg PUBLIC "-//W3C//DTD SVG 1.1//EN" "http://www.w3.org/Graphics/SVG/1.1/DTD/svg11.dtd" >
<svg xmlns="http://www.w3.org/2000/svg" xmlns:xlink="http://www.w3.org/1999/xlink" version="1.1" viewBox="-10 0 266 256">
   <path fill="currentColor"
d="M47 234q0 3 2.5 4.5t4.5 1.5q7 0 13.5 -1t13.5 -1.5t13.5 -1t13.5 -0.5q3 -2 3 -5v-3t-2 -2h-18l-1 -3l-0.5 -6t-0.5 -14t-0.5 -16.5t-0.5 -14.5v-2v-5v-5v-4v-4v-4.5v-5.5v-3q1 -1 2 -1.5l2 -1t2.5 -1t2.5 -0.5t3 -0.5t5 -1t5.5 -1t3.5 -0.5q0 -1 0.5 -2t0.5 -2
q0 -4 -3 -5t-6 -1t-6.5 1.5t-7.5 1.5t-5.5 -4.5t-1.5 -8.5q0 -6 3.5 -8t7.5 -2.5t6.5 -2t1.5 -6.5q0 -1 -1 -2l-2 -2h-6q-7 0 -11 3t-5.5 7t-2 10.5t0.5 12.5l-5 7h-22q-2 0 -2.5 2.5t-0.5 4.5q0 4 1.5 4.5t5.5 0.5t7.5 -1t7.5 -1t5.5 1t2.5 6q-1 17 0.5 31.5t1.5 30.5
q0 10 -2.5 15t-6 6.5t-7.5 0.5t-8 -1.5t-6 0.5t-2 5zM131 177v6v1t0.5 2.5t1 2.5l0.5 1q0 5 -0.5 13.5t1 16.5t4.5 14t11 6h4h5h6h4q11 0 19 -0.5t13 -3.5t7.5 -10t2.5 -21v-9t-1 -14.5t-3 -13t-6 -5.5q-3 0 -3.5 2.5t-0.5 5.5t-1 6t-5 3l-1 -0.5l-1 -0.5h-3t-4.5 -0.5
t-4.5 -0.5h-3q0 -2 -1.5 -5t-1.5 -5v-35l1.5 -0.5l1.5 -0.5q1 -1 3.5 -1t5 -0.5t5 -0.5h3.5h3.5h5.5h5.5h3.5q2 -1 3.5 -2.5t1.5 -4.5q0 -4 -2.5 -5t-5.5 -1h-4q-1 0 -5 0.5t-8 0.5t-7.5 0.5t-5.5 0.5q-4 -3 -5.5 -8t-1.5 -11l0.5 -2t0.5 -4.5t0.5 -4.5t0.5 -3
q1 -4 2.5 -5.5t3.5 -1.5t4 -0.5t5 -1.5q5 -4 8.5 -9.5t4.5 -12t1.5 -13.5t0.5 -13q0 -3 -1 -6t-4 -3q-5 0 -6.5 3.5t-2 9t-0.5 11.5t-1.5 11.5t-6 9t-13.5 3.5q-8 0 -12 -4t-5.5 -10.5t-1 -14t0.5 -14.5q0 -1 -1.5 -1.5t-2.5 -0.5q-4 0 -5.5 4t-1.5 7q0 2 1 9l2 14t2.5 13
t2.5 7t3 1h5h4.5t2.5 2q1 9 1.5 16t0.5 16v4t-1 3l-1 2h-1.5t-4 0.5t-4.5 0.5h-3h-4h-5h-5h-3q-2 1 -3.5 2.5t-1.5 3.5t0.5 3t2.5 2h4h5q5 0 9 -1t9 -1q2 0 4 1.5t2 4.5q0 1 -0.5 4l-0.5 3v3t0.5 4t0.5 4v2q0 1 0.5 1.5l0.5 0.5q0 2 -0.5 5.5t-1.5 7t-2.5 6t-3.5 2.5
q-5 0 -7 -2t-3.5 -4l-3 -4t-4.5 -2h-3q-1 0 -1 2v7zM141 200q0 -6 5 -8.5t12 -3t13.5 0t9.5 0.5h3h3h3h1l6 1v5q0 6 -0.5 12t-1.5 13q-2 4 -5.5 6t-8 2.5t-9.5 0.5h-8q-8 0 -12.5 -1t-7 -4.5t-3 -9t-0.5 -14.5zM52 181v9v7.5t0.5 6.5t1.5 8v2t0.5 2.5t1.5 2.5t2 1t2 -1
t1.5 -2.5l1 -3t0.5 -2.5l-1 -52q0 -1 -1.5 -1.5l-1.5 -0.5q-3 0 -5 1.5t-2 4.5v18zM103 153q-1 0 -2 0.5t-1 2.5v53q0 3 1.5 5t4.5 2h1h1q1 -1 1.5 -3.5t-0.5 -3.5q0 -1 0.5 -4t0.5 -6v-6v-4v-5v-6t-0.5 -5t-0.5 -3v-4t-0.5 -5.5t-2 -5t-3.5 -2.5zM67 27q-1 2 -3.5 7.5
t-5.5 11t-5.5 11t-3.5 7.5l-3 4.5t-2 2.5t-1 3v6q4 0 8 -3.5t7 -9t6 -12t6 -12t5.5 -9t5.5 -3.5q2 0 5.5 3t6.5 7.5t5 8.5t2 5t-1.5 2l-1.5 1h-27q-4 0 -5.5 2.5t-1.5 6.5q0 1 0.5 2.5t1.5 1.5h8q9 0 16.5 -2t14.5 -2q3 0 4.5 2.5t4.5 2.5q2 0 2.5 -2t0.5 -5v-5
q-6 -5 -9.5 -11t-6.5 -12.5t-7 -12.5t-11 -12h-1.5h-1.5q-3 0 -4.5 2t-2.5 4.5l-2 5t-3 3.5z" />
</svg>
