<?xml version="1.0" standalone="no"?>
<!DOCTYPE svg PUBLIC "-//W3C//DTD SVG 1.1//EN" "http://www.w3.org/Graphics/SVG/1.1/DTD/svg11.dtd" >
<svg xmlns="http://www.w3.org/2000/svg" xmlns:xlink="http://www.w3.org/1999/xlink" version="1.1" viewBox="-10 0 266 256">
   <path fill="currentColor"
d="M150 193q7 1 14 1.5t13.5 2.5t11.5 6t9 11q2 5 4 8t3 6.5t1 7.5v10h1h2q6 0 6 -7q0 -5 -1.5 -11.5t-4.5 -13.5t-7.5 -12.5t-9.5 -6.5l-38 -9q-3 0 -5 -2.5t-2 -6.5v-3q0 -3 1 -3h58l1 -1l2 -2v0v0v-1v0l-2 -2l-1 -1h-19q-1 0 -2.5 -1.5t-1.5 -2.5t-0.5 -3.5t-0.5 -5.5
t-0.5 -5.5t-0.5 -3.5v-4v-4h25q2 0 2.5 -1.5t0.5 -2.5q0 -2 -0.5 -3t-2.5 -1h-19l-3 -4v-3.5v-5.5v-6v-8t1.5 -7.5t3.5 -5.5t5 -4t5.5 -4t4.5 -5t2 -7q0 -5 -2.5 -9t-6 -6.5t-8 -4.5t-8.5 -4q-2 -1 -5.5 -4t-7 -5.5l-7 -5l-3.5 -2.5q-2 0 -3 0.5t-1 3.5t2.5 5t5.5 4t5.5 4
t2.5 5v2t-2 3l-4 6t-4.5 5.5t-5 5.5t-6.5 6q-1 0 -2 0.5t-1.5 2t-0.5 2.5v2q7 0 12 -5t9.5 -11t8.5 -11t9 -5q1 0 3.5 1t4.5 2.5t3 3t1 4.5q0 6 -2.5 9.5t-6 6.5t-6.5 6t-4 8q0 8 -1 17t0 18h-3.5t-5.5 0.5l-6 1t-4 1.5q-1 0 -1.5 0.5l-0.5 0.5q0 1 0.5 2.5t1.5 1.5h17v31
h-19l-2 -1t-2 -2q-3 -22 -2 -43q0 -2 -2.5 -5t-3.5 -3h-14q-1 0 -2.5 1.5t-3 3.5t-2.5 4.5t-1 3.5q-1 4 -2 13t-1.5 19.5t-1.5 20t-2 13.5v2q0 2 1.5 3t3.5 1h3t2 -1l3 -63q0 -4 2.5 -8.5t7.5 -4.5q3 0 4.5 3.5t2 8t0.5 9.5v6q0 7 -0.5 14t-0.5 15q0 6 1.5 10.5t7.5 7.5z
M73 209q-1 0 -4.5 0.5t-7.5 0.5t-7.5 0.5t-4.5 0.5q-4 1 -5.5 2.5t-1.5 6.5q17 0 33 -1.5t33 -0.5q2 -1 4.5 -2t3.5 -3q0 -3 -2 -4t-4 -1q-4 0 -7.5 0.5t-8.5 0.5h-2.5t-3.5 -0.5t-3.5 -1.5t-1.5 -2v-43q0 -1 0.5 -4.5l0.5 -3.5q0 -1 -0.5 -2t-0.5 -2v-28l3 -0.5t5 -1.5h2.5
t5 -0.5t4.5 -0.5h3v-1v-1q0 -3 -3.5 -3h-8.5q-4 0 -7.5 -1t-3.5 -6v-4t0.5 -5.5l1 -5t1.5 -3.5q1 0 3 -0.5l4 -1t4 -1.5t2 -3q0 -1 -2 -1.5l-2 -0.5q-2 0 -5 0.5l-6 1t-5 2t-4 3.5q0 1 0.5 4t0.5 6t-0.5 5.5t-0.5 3.5q0 2 -0.5 4.5t-1.5 2.5h-29v6h31v86zM57 136
q-2 -1 -3.5 0l-1.5 1v64q5 0 7 -4.5t2 -10.5v-44q0 -1 -2 -3.5zM97 193l0.5 1t1.5 1v0v0h1v0l2 -2l1 -1v-26t2 -26q-1 -1 -2 -2.5t-3 -1.5q-1 0 -2 0.5t-3 2.5v18q0 10 0.5 18t1.5 18zM128 64q0 7 -3.5 11t-7.5 7t-7.5 6t-3.5 8q5 0 10.5 -3.5t9.5 -8.5t7 -11t3 -11
q0 -4 -1 -8l-2 -8t-2.5 -7.5t-2.5 -6.5q-4 -5 -6.5 -7t-8.5 -2q0 5 2.5 9.5t5.5 9.5t5 10.5t2 11.5zM41 76v0q0 1 1.5 2l1.5 1q4 0 6 -1.5t3 -4t2 -5.5t2.5 -5t4 -5t3.5 -3h35q1 2 2 4.5t2.5 5.5t3.5 4.5t4 1.5t2 -2v-3q0 -5 -3 -11t-6 -10q-1 -1 -3.5 -4.5t-6 -8t-6.5 -9
t-5 -6.5q-1 -2 -2 -2h-2h-3q-1 2 -2 4.5t-2.5 6t-3 6t-2.5 3.5q-2 5 -6.5 10l-9 10t-7.5 10.5t-3 10.5zM70 46q0 -2 1.5 -4.5t3.5 -5t4 -4.5t4 -2t3.5 1.5t2.5 3.5t1.5 4.5t0.5 4.5t-1.5 3t-3.5 1.5t-4 0t-4 -0.5h-2h-2.5t-2.5 -0.5t-1 -1.5z" />
</svg>
