<?xml version="1.0" standalone="no"?>
<!DOCTYPE svg PUBLIC "-//W3C//DTD SVG 1.1//EN" "http://www.w3.org/Graphics/SVG/1.1/DTD/svg11.dtd" >
<svg xmlns="http://www.w3.org/2000/svg" xmlns:xlink="http://www.w3.org/1999/xlink" version="1.1" viewBox="-10 0 266 256">
   <path fill="currentColor"
d="M44 236q0 2 2.5 3t4.5 1q8 0 14.5 -0.5t13.5 -1t14.5 -0.5h15.5q2 0 3.5 -1.5t1.5 -3.5q0 -1 -0.5 -2t-1.5 -1h-25v-82v-1.5t1 -3.5l1.5 -3t2.5 -1h22l0.5 -1l0.5 -1v-1q0 -3 -2.5 -4t-3.5 -1q-5 0 -8.5 1t-7.5 1h-3.5t-2.5 -2v-8q0 -5 0.5 -9t2.5 -6t5.5 -3.5t8.5 -2.5
v-1q0 -4 -2 -5t-5 -1q-7 0 -11 2.5t-5.5 6.5t-2 8.5t0 8.5t0 8t-2.5 6q-1 0 -4 -0.5l-6 -1t-5.5 -0.5h-3.5h-2h-3t-3.5 0.5l-3 1t-1.5 2.5q0 1 1.5 2.5t3.5 1.5q6 0 11.5 -0.5t11.5 -0.5h3.5t2.5 3v86q-2 0 -6 0.5l-8 1t-8 0.5h-5q-2 1 -4.5 2t-2.5 3zM126 236q3 0 7.5 0.5
t10.5 0.5h13t13 0.5t11 0.5h7h11h11q2 0 2.5 -1.5t0.5 -2.5q0 -3 -2.5 -4.5t-5.5 -1.5h-31q-2 0 -2 -1.5v-1.5q0 -9 0.5 -19t1.5 -19q0 -1 0.5 -2.5l0.5 -1.5h30l1.5 -1.5t1.5 -2.5v-1q0 -2 -1.5 -3t-4 -1.5t-4.5 -0.5h-2q-16 0 -32.5 1.5t-32.5 2.5v5h28q3 0 4 2.5t1 4.5
v35q0 2 -1.5 3.5t-3.5 1.5h-31q-4 0 -4 4q0 1 0.5 2t1.5 1zM52 209v3v4.5t1 4.5t2 2q3 0 4.5 -2.5t2.5 -4.5v-8t0.5 -13t0.5 -13v-8v-4v-4t-0.5 -4t-2 -3.5t-3.5 -1.5h-2t-1 2q0 12 -1 24.5t-1 25.5zM107 153l-1 0.5t-2 1.5l-0.5 1l-0.5 1v50v4v4t1 3t3 1q4 0 4.5 -3.5
t0.5 -5.5q0 -14 -1 -27t0 -26q-1 -1 -2 -2.5t-2 -1.5zM131 125l0.5 5.5t2 12t3.5 12t5 5.5q2 0 4 -1t2 -3t-1 -4t-2 -3.5t-2.5 -3.5t-1.5 -4q-1 -5 -1.5 -10.5t-0.5 -10.5q0 -6 1 -10.5t2 -9.5l2 -10t1 -11v-2v-2.5v-3.5v-2q-2 -6 -3.5 -8t-7.5 -2q0 7 2.5 12.5t2.5 12.5
q0 5 -1.5 10t-2.5 10t-2.5 10t-1.5 11zM159 126q0 10 3.5 18.5t11.5 14.5v0q4 0 4 -4t-1.5 -7.5t-3.5 -7t-4 -8t-2 -9.5t1.5 -9.5t3.5 -9t3.5 -9t1.5 -10.5v-4.5v-5.5q-3 -6 -7 -10t-9 -8h-1q-1 0 -1.5 1t-0.5 2q0 3 1.5 5.5t3.5 5.5t4 6.5t2 9.5t-1.5 10.5t-3.5 9t-3.5 9.5
t-1.5 10zM191 124q0 4 -0.5 9t2.5 8q1 4 2.5 7l2.5 5t3 3t5 1t5 -1t2 -4v-1.5v-0.5q-8 -5 -11.5 -12.5t-3.5 -17.5q0 -1 0.5 -4.5t0.5 -4.5q3 -6 5.5 -13t2.5 -14q0 -1 -1.5 -5.5t-4 -9t-5 -8t-4.5 -3.5t-2.5 1.5t-0.5 3.5q0 3 1 6t2.5 6t2.5 6.5t1 6.5q0 9 -2.5 18t-2.5 18
zM39 79q0 2 0.5 3.5t2.5 1.5q3 0 6.5 -3.5t7 -9t7.5 -12t7.5 -12t7 -9t5.5 -3.5h1l1.5 1.5l1.5 1.5q1 1 3 5t5 8.5t5 8.5t3 5q0 1 2 4t3.5 5.5t3.5 5t3 2.5q4 1 4.5 -0.5t0.5 -4.5t-3 -8.5t-7 -10.5l-8 -10t-5 -8q-1 -1 -2.5 -4t-2.5 -6t-2.5 -5.5t-2.5 -3.5l-2 -0.5
t-3 -1.5h-1l-3 4t-7.5 10.5t-10 13.5t-10 13.5t-8 12t-3.5 6.5zM68 68v1l0.5 0.5t1.5 0.5h27q1 0 1 -1v-2q0 -4 -3 -4h-2q-1 1 -3.5 1t-5.5 0.5t-6 0.5h-4h-3.5t-2.5 3zM122 46v3t1 1h3h3.5h3.5h3q18 0 36.5 -1t37.5 -1q1 0 2 -0.5t1.5 -2t0.5 -2.5v-2h-7h-12.5h-13.5h-13.5
h-11.5h-8q-1 1 -4.5 1t-7 0.5t-7 0.5h-4.5q-2 0 -2.5 1t-0.5 2z" />
</svg>
