<?xml version="1.0" standalone="no"?>
<!DOCTYPE svg PUBLIC "-//W3C//DTD SVG 1.1//EN" "http://www.w3.org/Graphics/SVG/1.1/DTD/svg11.dtd" >
<svg xmlns="http://www.w3.org/2000/svg" xmlns:xlink="http://www.w3.org/1999/xlink" version="1.1" viewBox="-10 0 266 256">
   <path fill="currentColor"
d="M198 248q1 1 2 1h1q2 0 3.5 -1t1.5 -3v-182l-6 -8h-25q-1 0 -2 -2.5t-2 -5.5t-1 -5.5v-3.5q0 -4 3 -6q9 0 17 -1t17 -1v-2v-2.5t-0.5 -2.5t-2.5 -1q-10 0 -20 1.5t-21 1.5q-4 0 -9.5 0.5t-9.5 -1.5v-4t-0.5 -4t-2 -3.5t-4.5 -1.5q-2 0 -3 1.5t-1 3.5v3q0 1 0.5 5.5t0.5 9
t0.5 8.5t0.5 6q1 6 4.5 7.5t7.5 2t8.5 1t6.5 4.5v6v6q0 1 -0.5 2t-1.5 1h-25q-4 0 -4 4q0 1 3.5 2t7.5 1.5t8 0.5h6v2q0 5 -2.5 7.5t-6 4t-7.5 3t-7.5 3t-6 4t-2.5 6.5q7 0 12 -3.5t10 -7.5t9.5 -7t9.5 -3q2 0 6 2.5t4 6.5v0q-9 13 -19 24q0 1 -0.5 3l-0.5 2q0 26 1 52.5
t3 52.5l0.5 1l0.5 1h0.5h0.5q2 0 3 -1.5t1.5 -3.5l1 -4t0.5 -3q0 -15 -1.5 -30t-1.5 -31v-5l-1 -30q0 -5 3.5 -8.5t7.5 -6.5t7 -6.5t3 -7.5q0 -3 -2.5 -5t-5.5 -3.5t-5.5 -3.5t-2.5 -5l0.5 -0.5t1.5 -0.5h27q1 0 2 2.5t1 6v7.5v4q0 24 -1 48.5t-1 48.5v46zM54 226q0 4 3 4
q13 0 25.5 -1.5t25.5 -3.5h1.5t3 -0.5t2.5 -1t1 -2.5t-1.5 -3t-3.5 -1q-3 0 -7 1t-7 1q-5 0 -5.5 -2.5l-1.5 -7.5v-18v-5.5t-0.5 -10t-0.5 -10.5v-6v-16v-16q1 0 3.5 -0.5t5 -0.5t5 -0.5t3.5 -0.5h6t1 -4q0 -1 -0.5 -2t-1.5 -2q-5 1 -8 1.5t-8 0.5h-2.5t-2.5 -2v-21
q0 -2 2.5 -2.5t5 -0.5t5 -0.5t2.5 -3.5q0 -2 -0.5 -3t-2.5 -1h-2q-1 0 -3.5 0.5t-4.5 1t-4.5 1t-3.5 0.5q-3 1 -3 5.5v10v11t-3 7.5h-4h-5h-5.5h-3.5q-2 0 -4 1t-2 4l0.5 1.5l0.5 1.5h7q4 0 8 -1t8 -1q2 0 2.5 1t0.5 4v42v7t0.5 10.5t0.5 10.5v6v2t-0.5 2.5t-0.5 3v2.5
l-0.5 0.5t-1.5 0.5q-5 1 -12.5 1.5t-12.5 2.5v2zM127 210q0 2 1 2.5t2 0.5q3 0 6 -4t6 -9t4.5 -9.5t1.5 -6.5q-1 0 -4.5 3.5t-7.5 8t-6.5 8.5t-2.5 6zM170 191q4 5 8.5 10t8.5 10h2q1 0 2 -0.5t1 -2.5t-2 -6t-4.5 -7t-6 -5t-5.5 -2h-0.5h-0.5q0 1 -1.5 1.5l-1.5 0.5v0v1v0z
M63 145q-1 0 -2 0.5l-1 0.5v61q0 1 0.5 1.5t1.5 0.5v0q4 0 5 -2.5t1 -5.5v-52q0 -1 -1.5 -2.5t-3.5 -1.5zM108 140h-2t-1 1v65q3 0 4.5 -1.5t1.5 -4.5v-55q0 -3 -0.5 -4t-2.5 -1zM128 161q0 1 1.5 2.5t3.5 1.5v0q2 -1 4.5 -3.5l5 -5t4 -5.5t1.5 -6h-4l-16 14v2zM170 144
q0 2 2 5t4.5 6t5.5 4.5t5 1.5v-7l-12 -13h-2q-1 0 -2 0.5t-1 2.5zM49 83q0 2 0.5 3t3.5 1t6 -4t6 -10l6.5 -13l6.5 -13t6 -10t5 -4q3 0 7 5t8 12t7.5 13.5t5.5 10.5h8q0 -3 -1 -4.5t-2 -2.5t-2 -2.5t-3 -3.5q-1 -3 -4.5 -10.5t-7.5 -15.5t-8.5 -14t-8.5 -6q-1 0 -4 5
t-7.5 12t-9.5 15.5t-9 15.5t-6.5 12.5t-2.5 7.5zM168 74l0.5 -1.5t0.5 -3.5t0.5 -3.5t0.5 -2.5t0.5 -1.5l0.5 -0.5h7h7.5t6.5 1t5 4t2 8q0 3 -1 4t-4 1q-1 0 -3 -0.5l-2 -0.5h-5t-5.5 -0.5t-4.5 -0.5h-3zM97 61h-3h-4.5t-5 0.5t-4 0.5t-1.5 1v4h18q1 0 3 -1t2 -3t-2 -2h-3z
M156 31q1 0 2.5 0.5l1.5 0.5l2 3v18h-4.5t-7 -1t-5.5 -2.5t-2 -3.5v-11q0 -1 1.5 -2t4 -1.5t4.5 -0.5h3z" />
</svg>
