<?xml version="1.0" standalone="no"?>
<!DOCTYPE svg PUBLIC "-//W3C//DTD SVG 1.1//EN" "http://www.w3.org/Graphics/SVG/1.1/DTD/svg11.dtd" >
<svg xmlns="http://www.w3.org/2000/svg" xmlns:xlink="http://www.w3.org/1999/xlink" version="1.1" viewBox="-10 0 266 256">
   <path fill="currentColor"
d="M133 242q1 2 2 2h2q3 0 4.5 -3.5t1.5 -5.5v-1q0 -1 -1 -3.5t-1 -3.5q0 -11 -0.5 -22.5t-0.5 -23.5q0 -9 0.5 -18t3 -17.5t7 -15.5t13.5 -11l6 -15l14 -2t14 -3l2 -2l2.5 -2.5t2.5 -3t1 -2.5v-25q-1 -2 -2.5 -6t-3.5 -8.5t-4 -7.5t-6 -3h-20q-1 0 -1 -3v-6q0 -4 -1 -7
t-6 -3h-2t-2 2v16q0 2 -3.5 2.5t-9 2t-10 5t-6.5 10.5v2v4v3v2v8v7t1 6.5t2 8.5q3 5 6.5 6t8.5 1h2.5h3t3 -1t1.5 -3t-3.5 -3t-7 -2.5t-7 -5.5t-3.5 -12v-5q0 -2 0.5 -4.5t0.5 -5t0.5 -4.5l0.5 -2l3 -4l2 -0.5t5 -1t5.5 -1.5t4.5 -1l1.5 -0.5l3 -1t3 -0.5h1.5h2q9 0 14 1
t7.5 4t3.5 8.5t1 13.5v11q-1 3 -4 5t-6 3t-6.5 1.5t-6.5 1.5v-18l2 -0.5t3 -0.5q0 -1 2.5 -1t5 -0.5t4.5 -2t2 -3.5q0 -3 -2.5 -3h-4.5h-3h-6.5t-9.5 0.5t-9.5 0.5h-6.5t-4 1.5t-2 3.5q0 1 0.5 2.5l0.5 1.5h16q1 0 1.5 1.5t1 4t0.5 4.5v2q0 6 -1.5 10t-1.5 10
q-10 10 -15.5 17.5t-8.5 15.5t-3.5 17.5t-0.5 23.5q0 15 1 29t0 29zM164 168q-1 8 -1 14.5t1 12.5t3 12.5t5 13.5q1 2 2.5 6t3.5 8t5 6.5t6 2.5q2 0 4 -1t2 -4q0 -4 -2.5 -6.5t-3.5 -5.5q-6 -10 -11 -21.5t-5 -23.5q0 -3 1 -4.5t2.5 -2t3.5 -0.5h4q4 -1 7.5 -3t7 -5t6.5 -6
t5 -6q1 -1 1.5 -2l0.5 -1q0 -2 -1.5 -3.5t-3.5 -1.5q-4 0 -6.5 2.5t-5 5.5t-5.5 5.5t-7 2.5h-4q1 -4 4 -8.5t6.5 -8l7 -7t6.5 -5.5v-2v-1q0 -3 -1 -3.5t-4 -0.5t-7.5 5t-9 11t-8 11.5t-5.5 5.5q-3 0 -4 -3t-1 -5v-2q0 -1 0.5 -2.5t0.5 -2.5l3 -3t4.5 -4t4 -3.5l2.5 -2.5
q3 -2 4.5 -3.5t1.5 -5.5q0 -2 -1.5 -3.5t-3.5 -1.5q-4 0 -8.5 4.5t-8 11t-6.5 12.5t-3 10q0 3 1.5 4.5t3 2.5t3.5 2t3 3zM53 224q0 1 0.5 2.5t1.5 2.5h3h4q9 0 19 -1t19 -2q2 -1 5 -1t5.5 -1t3.5 -3t1 -5h-20l-1 -0.5t-1 -1t-0.5 -2l-0.5 -1.5v-92l3 -4h2.5h5t5 -0.5
l2.5 -0.5q1 0 3.5 -1t2.5 -3v-1q0 -1 -0.5 -2l-0.5 -1h-20q-1 0 -1.5 -1l-0.5 -1q0 -1 -0.5 -3.5t-0.5 -3.5q0 -3 2.5 -4t5 -1.5t5 -1.5t2.5 -5q0 -3 -2.5 -3.5t-3.5 -0.5q-5 0 -8.5 1.5t-6.5 4.5q-1 11 -3.5 16t-6.5 6.5t-7.5 1l-7 -1t-5.5 1.5t-2 8q6 0 12.5 -1t13.5 -1h1
t1 2v99h-24q-2 0 -3.5 2.5t-1.5 3.5zM67 137q-1 0 -3 2.5t-2 3.5v63l1.5 1.5l1.5 1.5q1 1 2 0t2 -2.5t1.5 -2.5l0.5 -1v-61q0 -1 -1 -3.5t-3 -1.5zM102 144v9q0 5 0.5 12l1 14t1 13t1.5 10t2 4t3 -2.5t2 -4.5v-57q0 -2 -2 -4.5t-4 -2.5q-3 0 -4 3.5t-1 5.5zM47 74
q-1 4 0 4.5t3 0.5q6 0 9.5 -3t6.5 -8t5.5 -11t4.5 -11t5 -8.5t6 -3.5t5 2.5t4 5.5t3 6t2 5q-2 2 -5.5 3t-7 1h-7.5t-6 1q-1 0 -1.5 1.5l-0.5 1.5v0.5v1.5h32q3 0 4 1.5t2 3.5t2.5 4t3.5 2h1q1 0 2 -0.5l1 -0.5v-3v-2q0 -4 -3.5 -10.5t-8 -13t-8.5 -12.5t-6 -10
q-1 -1 -2.5 -4.5t-2.5 -4.5h-1h-1q-1 0 -3.5 3t-5 7.5t-6 10t-6 10.5t-5 9t-3.5 5q0 1 -2 3.5l-4 5t-3.5 4.5t-2.5 3z" />
</svg>
