<?xml version="1.0" standalone="no"?>
<!DOCTYPE svg PUBLIC "-//W3C//DTD SVG 1.1//EN" "http://www.w3.org/Graphics/SVG/1.1/DTD/svg11.dtd" >
<svg xmlns="http://www.w3.org/2000/svg" xmlns:xlink="http://www.w3.org/1999/xlink" version="1.1" viewBox="-10 0 266 256">
   <path fill="currentColor"
d="M134 228q0 1 0.5 5l1 8t2 7t3.5 3q3 0 3 -3v-5q0 -8 -0.5 -16t-0.5 -16v-3t1 -2t3.5 -1t5 -1.5t5 -0.5h3.5q3 -1 8 -1h13h13t8 1q2 -1 4.5 -3.5t2.5 -3.5q1 -1 0 -2l-1 -1h-26q-2 0 -3.5 -2t-1.5 -4v-22h22l0.5 -1l1 -2t0.5 -2v-1q0 -1 -0.5 -3t-2.5 -2q-6 0 -11 0.5
t-11 0.5v-19q0 -3 1.5 -4t2.5 -2h3.5t5 -0.5t4.5 -0.5h3l0.5 -1l0.5 -1q1 0 1.5 -1.5l0.5 -1.5q-1 -3 -2.5 -3.5t-2.5 -0.5q-5 0 -9 0.5t-9 0.5v-21q1 0 4 -1t4 -1q1 1 2.5 3l3 4t3.5 3.5t4 1.5t3.5 -1.5t1.5 -3.5q0 -5 -4 -7.5t-9.5 -4.5t-10 -5t-4.5 -10q0 -3 4.5 -5
t9.5 -4t9.5 -4.5t4.5 -7.5q0 -4 -2 -7t-5 -5.5l-6 -5t-5 -4.5l-3 -3l-4.5 -4.5l-4.5 -4.5l-3 -3v0q-1 0 -4 3t-7 7.5t-8 10t-7.5 10.5t-6 8.5t-2.5 4.5q0 4 3 6t7 3t7 3t3 6q0 3 -2 5t-4 5q-1 1 -2 4t-2.5 6.5t-3 6t-1.5 3.5q-1 1 -2 4.5t-2 7.5t-1.5 8t-0.5 5v91zM52 231
q0 3 0.5 4t3.5 1q9 0 18 -2t18 -3q1 0 5 -0.5t7.5 -0.5t7 -0.5t5.5 -0.5q3 -1 4 -2.5t1 -5.5h-27l-1 -2l-0.5 -3t-0.5 -7.5t-0.5 -9.5t-0.5 -8q0 -7 -0.5 -15.5t-0.5 -15.5v-1v-2v-4.5t0.5 -7.5t0.5 -8v-5l2 -2q5 -2 11 -2t10 1q1 -1 3 -2t2 -2q0 -3 -2 -4.5t-4 -1.5
q-4 0 -7 0.5t-7 0.5h-4h-4t-1 -1v-2q0 -6 0.5 -10.5t2.5 -7.5t6 -4t11 -1q0 -1 1 -2l2 -2v-0.5v-0.5q0 -2 -3 -3t-5 -1h-1.5h-0.5q-1 1 -3.5 1.5t-5.5 1.5t-5.5 2t-3.5 2q-2 2 -2 7t-0.5 10t-1.5 9t-4 4h-23q-2 0 -3.5 2t-1.5 4t1 3t3 1q6 0 11.5 -1t10.5 -1q4 0 5 3l2 6
q0 2 0.5 8t0.5 12.5v13v8.5v3q0 2 0.5 5.5t0.5 6.5v6v4t-0.5 6.5t-0.5 6.5v4q-2 2 -3.5 1.5t-3.5 0.5h-4.5h-7t-7 0.5t-4.5 0.5q-2 0 -2 2v3zM61 214q0 1 1.5 2t2.5 2q2 0 3 -3t1 -4v-18v-19v-7t-0.5 -10t-3 -9t-6.5 -4v10t0.5 15t0.5 15.5v9.5v4t0.5 6t0.5 6v4zM103 150v5
v7t0.5 10.5t0.5 10.5v6v5.5v7t1.5 6.5t4.5 3q2 0 3 -1t1 -3v-3.5v-3.5q0 -14 -2 -28t-1 -28q0 -1 -1.5 -2t-1.5 -2q-1 0 -2 1t-2 1l-1 2v6zM159 166h10q1 2 1.5 3.5t0.5 3.5q0 5 -0.5 8.5t-1.5 9.5q-1 2 -3 3.5t-5 1.5h-5.5h-4.5h-3.5h-3.5q0 -1 -1.5 -2.5t-1.5 -2.5v-19
q0 -3 2.5 -4.5t5.5 -2t6 0t4 0.5zM141 146q1 -6 3 -9t5 -4.5t6.5 -2t8.5 -0.5h1q1 1 2.5 3t1.5 3v21h-25l-0.5 -1t-0.5 -2q-1 -2 -1.5 -5zM146 120q0 -2 2 -7.5t5 -11.5t6 -10t6 -4h1.5t1.5 1v36h-20q-2 0 -2 -1.5v-2.5zM48 75v11q3 0 6.5 -4t7.5 -10t7 -11.5t5 -8.5
q0 -1 1.5 -4t3.5 -5.5t3.5 -5.5t1.5 -4l3 -1.5t2 -0.5l1 0.5l1 0.5q1 1 3.5 5.5t5.5 10.5l6 12t6 11.5t5.5 9t3.5 3.5q2 0 3 -1.5t1 -4.5q0 -6 -3.5 -13t-7.5 -13.5t-8.5 -13t-7.5 -12.5l-0.5 -1.5l-1 -3l-1 -3t-0.5 -2.5q-2 -3 -4 -3q-4 0 -8 5t-7.5 11.5t-6.5 12.5t-4 10
q-1 1 -3.5 4.5l-5 7l-5 7t-3.5 4.5zM146 63v0q0 -1 1 -3t2 -3.5l2 -3l1 -1.5q1 -1 3 -3.5t4 -4.5t4 -4.5t3 -3.5h2q2 0 5.5 2t7 5t6 6.5t2.5 5.5q0 4 -3.5 7t-7.5 3q-1 0 -2 -1.5t-1.5 -3.5t-1.5 -4t-3 -3l-2 3q0 6 -0.5 11t-2.5 10q-6 -2 -10 -6.5t-9 -7.5zM74 64
q0 3 1.5 3.5t3.5 0.5h6t8 -1t7 -3t3 -6h-3h-5.5h-5.5h-3h-5q-2 0 -3.5 0.5t-2.5 2t-1 3.5z" />
</svg>
