<?xml version="1.0" standalone="no"?>
<!DOCTYPE svg PUBLIC "-//W3C//DTD SVG 1.1//EN" "http://www.w3.org/Graphics/SVG/1.1/DTD/svg11.dtd" >
<svg xmlns="http://www.w3.org/2000/svg" xmlns:xlink="http://www.w3.org/1999/xlink" version="1.1" viewBox="-10 0 266 256">
   <path fill="currentColor"
d="M159 180q-1 7 -4.5 15t-7.5 15t-8.5 13.5t-7.5 12.5q-1 2 -2 3.5t-2 2.5t-1.5 2.5t-0.5 3.5q7 0 11 -3t7 -8.5t5 -12t4.5 -12.5t5 -11t6.5 -8l1.5 1.5l0.5 0.5q8 12 15.5 24.5t15.5 25.5q2 2 3 1.5t4 -0.5h2.5h2.5q1 -1 1 -2v-3t-2.5 -6.5t-7 -10t-9.5 -12t-9.5 -13
t-8 -11t-4.5 -6.5q0 -3 -0.5 -8.5t-0.5 -12.5v-12.5v-7.5v-3v-5t0.5 -5l0.5 -2v-2.5v-2.5q0 -3 -1 -5t-4 -2q-4 0 -5 3t-1 6q0 9 1 18.5t1 18.5v4t-0.5 6t-0.5 6v4zM46 237v1l0.5 1.5l0.5 1.5h5h5q3 0 11.5 -0.5t17.5 -1t17.5 -1t11.5 -0.5q2 -1 2 -1.5v-1.5v-2t-2 -1h-20
q-3 0 -4 -2.5t-1 -5.5v-6v-3q0 -1 -0.5 -4.5t-0.5 -7v-7v-4.5t-0.5 -4.5t-0.5 -7.5v-9v-8v-5v-8q0 -5 0.5 -9t0.5 -5t2 -1.5l2 -0.5q1 0 4.5 -0.5t7 -0.5t6.5 -0.5t4 -0.5l0.5 -1l0.5 -1q0 -2 -0.5 -3t-3.5 -1h-24q0 -4 -0.5 -6t-0.5 -4v-4t2 -5q0 -2 2.5 -2.5t5 -0.5
t4.5 -1t2 -4q0 -2 -1 -2.5t-3 -0.5h-4.5t-7.5 1t-6.5 2.5t-2.5 4.5v23h-27q-1 0 -1.5 0.5t-0.5 1.5t-1 2l-1 1q1 3 3 3.5t4 0.5q6 0 11 -1.5t11 -2.5l2 2l0.5 3t1 7.5t0.5 9v6.5q0 1 0.5 3.5t0.5 6.5v7v6v7v9q0 4 -0.5 7.5l-0.5 3.5v5v6.5t-0.5 5.5t-0.5 3l-1 2h-31
l-0.5 1.5t-0.5 2.5v1zM54 220q0 2 1.5 3.5t3.5 1.5h1v0l2 -2l1 -1v-62q0 -2 -1.5 -5t-4.5 -3q-1 0 -3 1t-2 2v8q0 8 0.5 14.5t1 13.5t0.5 14v15zM101 157q0 15 1 30.5t1 31.5q4 0 6 -1.5t2.5 -3.5t0.5 -6v-6v-4q0 -2 -0.5 -8t-1 -13t-1 -13t-0.5 -9q1 -2 -0.5 -2.5
t-3.5 -0.5t-3 1t-1 4zM138 137q0 22 -5 43q-2 6 -4.5 10t-2.5 10q7 0 11 -7t6 -17t2 -19v-12q0 -1 0.5 -3t0 -3.5t-1 -3.5t-2.5 -2q-3 0 -4 4zM186 160q0 3 1 9t2.5 12t4.5 11t7 5q5 0 6 -5q-4 -6 -6.5 -12t-3.5 -13v-6.5t-0.5 -9.5t-0.5 -9.5v-5.5q0 -2 -1.5 -2h-2.5
q-6 0 -6 5q0 3 1 6t1 5q0 3 -1 5t-1 5zM161 30v46l-0.5 1.5t-1 2t-2.5 3l-4 5l-4 5t-2 3.5q-2 3 -4.5 5.5t-5 5.5t-4 6.5t-1.5 6.5q7 0 11 -5t7.5 -11t7.5 -11t10 -5h1q3 3 6.5 8.5t7.5 10.5t8.5 8.5t8.5 3.5q2 0 3.5 -0.5t0.5 -4.5l-1.5 -2t-1.5 -3q-2 -1 -5 -4l-6.5 -6.5
l-6.5 -6.5t-5 -4q0 -1 -0.5 -2t-0.5 -2l-1 -1t-1.5 -2t-1.5 -2l-1 -1q0 -2 -0.5 -5.5t-1 -6.5t0 -6t0.5 -5q0 -8 0.5 -16.5t0.5 -16.5q0 -4 -1.5 -7t-6.5 -3q-2 0 -3.5 2t-1.5 5t0.5 5zM47 89q0 2 1 3t3 1q3 0 4 -0.5t2 -3.5q1 -1 2.5 -5t3.5 -8l4 -8t3 -5q0 -2 1.5 -5.5
t3 -7.5t3.5 -7t4 -3q2 -1 5 2.5t6 8.5t6 11.5t6.5 12t6 9.5t5.5 4q2 0 3.5 -1.5t1.5 -3.5l-3 -5t-7 -12t-9 -14.5t-10 -14.5t-8.5 -11.5t-4.5 -4.5t-2.5 1.5t-2.5 4t-1.5 4.5t-0.5 4l-26 53v0.5v0.5zM136 81q1 3 3 5l5 -5v-2.5t0.5 -5.5t0.5 -6.5v-5.5v-11v-10
q1 -3 -0.5 -3.5t-3.5 -0.5q-1 0 -2.5 0.5t-0.5 3.5q0 10 -0.5 20.5t-1.5 20.5zM188 83q0 2 1 2.5t2 0.5q5 0 6 -4t1 -8q0 -5 -0.5 -9t-0.5 -8.5t-0.5 -8.5t-0.5 -10q-1 -3 -2 -4t-4 -1h-2t-1 2v2q0 1 -0.5 3t-0.5 3v2v10t0.5 8t0.5 8.5t1 11.5zM89 69h-5q-2 0 -5 0.5t-5 2
t-2 4.5h2h4h3h3h3t4 -0.5l4 -1l2 -0.5l1 -1l-3 -4h-6z" />
</svg>
