<?xml version="1.0" standalone="no"?>
<!DOCTYPE svg PUBLIC "-//W3C//DTD SVG 1.1//EN" "http://www.w3.org/Graphics/SVG/1.1/DTD/svg11.dtd" >
<svg xmlns="http://www.w3.org/2000/svg" xmlns:xlink="http://www.w3.org/1999/xlink" version="1.1" viewBox="-10 0 266 256">
   <path fill="currentColor"
d="M166 196q2 0 4 4t4.5 10t5.5 12.5t6 12.5t6.5 10t6.5 4q6 0 6 -6q0 -1 -0.5 -2t-0.5 -2l-2 -1.5t-3.5 -3.5t-3 -3.5t-2.5 -1.5q-2 -3 -4.5 -8.5t-4.5 -11.5l-4 -12t-2 -8q0 -4 3 -5.5t7 -3t7 -3t3 -5.5q0 -3 -1 -3.5t-4 -0.5t-5 1t-4 2.5l-4 3t-5 1.5q-1 0 -2 -2.5l-2 -5
t-2 -5.5t-1 -5v0q0 -5 3 -6t7 -1.5l8 -1t6 -1.5l6 -6t3 -8q0 -3 -3.5 -7.5t-7.5 -10.5t-7.5 -12t-4.5 -11q2 -1 5.5 -2l7 -2t6 -2.5t2.5 -4.5q0 -2 -1 -2.5t-3 -0.5q-5 0 -9 2.5t-9 2.5q-1 0 -2.5 -2t-2 -4l-1 -4t-0.5 -4v-2q1 0 5 -0.5t8.5 -1t8 -1t5 -0.5t4.5 -1.5t3 -4.5
v0q0 -1 -0.5 -2t-0.5 -2h-5q-7 0 -14 1t-15 1q-3 0 -3.5 -2t-0.5 -5v-2q6 -1 10 -2t7.5 -2.5t5 -5t1.5 -8.5v-7q0 -1 -2 -2.5t-2 -2.5h-0.5h-0.5v0h-1l-1 1.5t-2 1.5q1 3 0.5 6t-1.5 5.5t-3 4t-5 1.5q-5 0 -7 -3t-2.5 -7.5t-2 -9t-4.5 -6.5h-1h-1q-2 0 -2.5 2t-0.5 4
q0 6 2.5 12.5t3.5 12.5q0 1 1 3t1.5 4t0.5 3.5v1.5l-3 4h-22l-1.5 1t-1.5 2l-0.5 0.5t-1.5 0.5v1q0 3 2.5 3.5t4.5 0.5q5 0 10 -1t10 -1q3 0 5.5 2.5t3.5 6t1.5 7.5t0.5 6t-1.5 3t-3.5 2q-1 1 -3.5 3t-5.5 3.5t-5.5 3.5t-3.5 2q-4 4 -8 9.5t-8 9.5v2q0 3 3 3q4 0 6 -2
t3.5 -5l3 -6t3.5 -5q2 -1 5.5 -3t6.5 -4t5.5 -3.5l2.5 -1.5h3l7 12v1.5v1.5t-0.5 3t-1.5 4t-2.5 3.5t-2.5 1.5q-2 0 -3 -1.5t-2 -3.5t-1.5 -4t-2.5 -2q-1 0 -2.5 0.5t-2.5 0.5v4q0 5 1 8t1 8v3.5v3.5q-2 3 -6 3.5t-9 1t-8.5 1t-3.5 3.5t0.5 4t3.5 1q4 0 8 -1t8 -1h3.5h3.5
q0 2 1.5 6t3 8.5t2 9t0.5 5.5v2v0q0 1 -2.5 2t-3.5 2l-1 1l-2.5 2.5l-3 3l-2.5 2.5q-2 3 -5.5 8.5t-7 12t-6 12.5t-2.5 10q3 0 6.5 -3.5t7 -8.5t6.5 -11l5.5 -11t5.5 -8.5t5 -3.5zM55 215q0 3 2 4.5t5 1.5q7 0 14.5 -1l15 -2t14.5 -2t14 -1q1 -1 4 -2t5 -1q0 -1 0.5 -1.5
l0.5 -0.5l0.5 -0.5l0.5 -0.5l-0.5 -0.5l-0.5 -0.5l-0.5 -0.5l-0.5 -0.5h-29l-1 -3l-0.5 -3t-0.5 -7t-0.5 -7.5t-0.5 -6.5v-4v-7.5v-8.5v-8v-5v-9v-8v-6l0.5 -0.5l1.5 -1.5q2 0 4 -1t5 -1t5 -0.5t4 -0.5q2 -1 2.5 -1.5t0.5 -2.5v-2t-2 -2h-5q-3 0 -6 1t-6 1q-2 0 -3.5 -0.5
t-1.5 -2.5v-3v-3t0.5 -4t0.5 -4v-3q1 0 3.5 -0.5t4.5 -1t4 -1.5t2 -3q0 -3 -1 -3h-4q-7 0 -11 2t-6 6.5t-2.5 10t0.5 12.5h-4.5t-7 0.5t-7 0.5h-4.5t-3 0.5t-3.5 0.5t-2.5 1t-1 3q0 3 1.5 4t3.5 1q7 0 12.5 -2t12.5 -2q2 0 2.5 0.5t1.5 3.5q0 19 1 38t1 39v2.5t-2 2.5l-31 4
q-2 0 -2 1.5v1.5zM67 201l1.5 0.5l1.5 0.5q4 -1 5 -5.5t1 -8.5v-20t-2 -20q0 -2 -1 -3.5t-3 -1.5q-3 0 -3.5 3t-0.5 5q0 13 1 25t0 25zM109 146v6.5t0.5 10.5l1 12t1.5 11t2 8.5t3 3.5q3 0 3.5 -3t0.5 -5v-4q0 -2 -0.5 -8t-1 -13t-0.5 -13.5t-1 -8.5q0 -1 -2 -2.5t-2 -2.5
q-1 0 -2.5 0.5t-2.5 1.5v3v3zM168 139q0 -2 2 -3.5t4.5 -3t5 -2.5t4.5 -1q3 0 5 2.5t2 6.5q0 2 -2.5 3.5t-6 1.5h-7h-5.5t-2 -1v-3zM49 84q0 2 0.5 3.5t2.5 2.5q2 0 4.5 -3t5.5 -7t5.5 -7.5t4.5 -4.5q4 -1 7.5 -1t6.5 -0.5t6 -0.5h8h8q1 1 3 2t3.5 3t3 3t2.5 2h0.5h0.5
q2 0 3.5 -1t1.5 -3q0 -1 -2.5 -5t-6 -9t-8 -10.5t-8 -10.5t-6.5 -8t-4 -3q-2 0 -4 1.5t-3 3.5q-1 0 -2.5 2.5t-3 6t-3.5 6.5t-3 5q-2 2 -5.5 7t-7.5 10.5t-7 10t-3 5.5zM90 43q1 0 3.5 1t4 3l3 4t1.5 4v0v0q0 1 -0.5 2t-1.5 2q-6 -1 -11 0.5t-11 1.5v-6l1 -1t2 -3t2 -3.5
t2 -3.5l2 -1h3z" />
</svg>
