<?xml version="1.0" standalone="no"?>
<!DOCTYPE svg PUBLIC "-//W3C//DTD SVG 1.1//EN" "http://www.w3.org/Graphics/SVG/1.1/DTD/svg11.dtd" >
<svg xmlns="http://www.w3.org/2000/svg" xmlns:xlink="http://www.w3.org/1999/xlink" version="1.1" viewBox="-10 0 266 256">
   <path fill="currentColor"
d="M125 224q1 3 3.5 6.5t5.5 6.5t6.5 4.5t6.5 1.5h2h8.5t11.5 -0.5t10 -0.5h5q3 -1 6.5 -1.5t6.5 -2t6 -4t4 -6.5q0 -1 0.5 -2.5t0.5 -3.5t0.5 -3.5t0.5 -2.5t0.5 -3t1.5 -4.5t1.5 -5l0.5 -2.5v-5v-6v-7v-4q0 -3 0.5 -9t0.5 -14v-17t0.5 -17t0.5 -14.5v-7.5v-8
q0 -8 -0.5 -16t-2.5 -13.5t-7 -9t-14 -5.5h-5t-8 -0.5t-8 -0.5h-6l-2 0.5l-2 0.5q-1 1 -4 1.5t-6 1.5t-5.5 1.5t-3.5 1.5q-8 7 -11 16t-4 18.5t-1 19.5t-3 21v5v9v8v6v18t0.5 15.5t1 15.5t1.5 18zM42 238q0 2 1 3t3 1h2q3 0 8 -0.5t11 -1t13.5 -0.5t13.5 -0.5t11 -1t8 -0.5
l2 -0.5t2 -1.5h0.5h0.5l-1 -1q0 -1 -1 -3t-2 -2h-28q-1 0 -1.5 -2.5t-0.5 -3.5v-3l0.5 -2.5t1 -4.5t0.5 -4v-3v-68l2 -3q1 0 3.5 -0.5t5.5 -1t5.5 -0.5h3.5t2 -0.5t2 -1.5v0v-1v0v0q-1 -2 -2 -3.5t-2 -1.5h-18v-3.5v-4.5v-4.5v-3.5q0 -3 2.5 -4.5t6 -2.5t6 -2t2.5 -4
q0 -2 -2.5 -3t-3.5 -1q-8 0 -12.5 2.5t-6.5 6.5t-2 8.5v8.5t-0.5 6.5t-2.5 2.5h-24q-2 0 -2.5 2t-0.5 4q0 3 2 3h5t6.5 -0.5t7.5 -0.5t5.5 1t2.5 5v7v10v10v7v12v13t-0.5 14t-1.5 13q-1 2 -4 3.5t-4 1.5h-1q-3 0 -6 -1t-7 -1q-3 0 -7 1.5t-4 5.5zM139 65q9 -6 17 -8t18 -2
q2 0 7.5 0.5t11 2t9.5 4.5t4 7v125q-2 9 -3 14.5t-2 10t-4.5 8t-11.5 6.5q-1 0 -3 1l-2 1h-30q-4 0 -7.5 -2.5t-6 -6t-3.5 -7.5t-1 -8v-94q0 -5 0.5 -12t1.5 -14.5t2.5 -14.5t2.5 -11zM58 152q-1 0 -3 0.5t-2 3.5v57q0 1 2 1h2q3 0 4 -1.5t1 -5.5v-52q0 -2 -1.5 -2.5
t-2.5 -0.5zM144 165q0 9 -0.5 18t1.5 16t7 11t16 4t16.5 -4t8 -11t2.5 -16v-19v-5v-6.5v-6.5v-5q0 -3 -1 -4t-3 -1h-2t-2 1v23h-11v-43l0.5 -1.5t0.5 -2.5l2 -2h17l1 -2t2 -2v-1v-1v0q-5 -1 -11 -1.5t-11 -2.5v-1.5v-3.5v-3v-3q0 -5 1 -8.5t1 -8.5q0 -2 -2 -3t-4 -1
q-1 0 -3 0.5t-2 3.5v30l-2 0.5t-3 1.5h-4t-5.5 0.5t-5.5 1t-4 0.5v0.5v0.5q0 3 3 3.5t7 0t8 -0.5t6 2v19v19q0 3 -0.5 6.5t-1.5 3.5h-13l-1 -1l-2 -2v-1q0 -3 1 -6t1 -6t-2 -5.5t-4 -2.5q-1 0 -1.5 1l-0.5 1v26zM97 163v44q0 3 1 3.5t2 0.5t3 -0.5t2 -3.5v-54q0 -2 -1 -2h-2
q-2 0 -4.5 1t-2.5 4q0 2 0.5 3.5t1.5 3.5zM150 176q0 -2 0.5 -3.5t2.5 -2.5q7 -2 12 -2h11h11q1 3 1 4.5v3.5q0 7 -0.5 12.5t-2.5 9.5t-6.5 6t-11.5 2q-6 0 -9.5 -2.5t-5 -7t-2 -9.5t-0.5 -11zM47 77q0 4 3 4v0h1q4 -4 9 -11t10.5 -14t9.5 -12.5t6 -5.5h1.5h0.5l1.5 2t3.5 4
t3.5 4t2.5 2q1 2 3 5.5l4 7t4 6t5 2.5q1 0 2.5 -0.5t1.5 -2.5q0 -1 -2 -5t-5.5 -9.5l-7 -11t-7.5 -10.5t-6.5 -8t-3.5 -3t-4 3.5t-7.5 9t-9.5 12.5t-9.5 13.5t-7 11.5t-2.5 6zM73 65q-1 1 -1.5 2.5t-0.5 3.5h26q2 0 3.5 -2t1.5 -4q0 -1 -1.5 -1h-2.5h-1.5h-1.5h-4t-6.5 0.5
t-7 0.5h-4.5z" />
</svg>
