<?xml version="1.0" standalone="no"?>
<!DOCTYPE svg PUBLIC "-//W3C//DTD SVG 1.1//EN" "http://www.w3.org/Graphics/SVG/1.1/DTD/svg11.dtd" >
<svg xmlns="http://www.w3.org/2000/svg" xmlns:xlink="http://www.w3.org/1999/xlink" version="1.1" viewBox="-10 0 266 256">
   <path fill="currentColor"
d="M159 196h2t2 2v50l1 1.5t2 1.5v0q4 0 5.5 -2.5t2 -5.5t0 -6.5t-0.5 -4.5v-8v-7.5t-0.5 -7t-0.5 -8.5q0 -2 1 -3.5t3 -1.5q5 0 9 4.5t4 10.5v30q4 0 6 -0.5t3 -2t1 -4v-6.5v-6q0 -3 -0.5 -7l-1 -8t-1.5 -6q-2 -4 -6 -6t-8 -3.5t-6.5 -3.5t-2.5 -7q0 -3 2 -5t4.5 -3t5.5 -2
t6 -3.5t5 -6t2 -10.5q0 -2 -1 -5t-4 -3q-4 0 -5 3.5t-1 8t-2 8.5t-8 4q-1 0 -3 -0.5t-2 -2.5v-17q0 -2 -2.5 -3.5t-3.5 -1.5q-2 0 -3.5 1.5t-1.5 3.5l1 2.5t1 3.5v5v6q-1 2 -3.5 2.5t-4.5 0.5q-5 0 -8 -2t-4 -4.5t-1 -6.5t-1 -9q0 -1 -1 -1h-1q-2 0 -3.5 1.5t-1.5 3.5v5.5
t1 7t3 6.5t5 3q1 1 3 1t5 0.5t5 1t3 1.5q5 3 5 8q0 4 -3 6t-7.5 4t-9 4.5t-7.5 6.5q-2 3 -2.5 7.5t-1 9.5t-1 9.5t-0.5 7.5q0 2 1.5 4t3.5 2t2.5 -3.5t1.5 -9t1.5 -11.5t2 -11.5t5 -9t9.5 -3.5zM52 236v2.5t1 1.5h8h12.5t15.5 -0.5t15.5 -1t11.5 -1.5q2 -1 3 -3.5t1 -4.5
h-24l-3 -1q-1 -21 -3 -41.5t-2 -41.5q0 -5 2.5 -8t6 -3.5t7.5 -0.5h7t5.5 -0.5t2.5 -3.5t-2 -3h-4q-5 0 -9.5 1t-9.5 1h-3q-1 0 -1 -1q-1 0 -1.5 -0.5l-0.5 -0.5v-22q0 -2 3.5 -2.5t8 -1.5t8 -2t3.5 -3v-2t-2 -2h-2h-3q-2 0 -6 0.5t-8 1.5t-7.5 2.5t-4.5 2.5v2.5v2.5
q0 5 0.5 9.5t0.5 9.5v5l-1 2q-1 0 -3.5 0.5t-5 0.5t-5 0.5t-3.5 0.5h-2h-3t-3.5 0.5t-2.5 2.5v1q0 2 1 3t4 1q5 0 11 -2t12 -2q2 0 3 6t1.5 15t1 20t0.5 20v16v7v9q-2 2 -4 2t-4 1q-1 0 -4.5 0.5t-7.5 1t-7.5 1t-4.5 0.5v2zM61 176v46q2 0 4 -0.5t4 -1.5q1 -10 1 -19v-19v-4
v-7v-6v-5l-0.5 -2l-1 -4t-1.5 -3.5t-3 -1.5l-2 2t-1 2l-0.5 2.5t-0.5 5.5v5.5v3.5t0.5 3t0.5 3zM102 150q0 16 2.5 32.5t2.5 33.5l2 -0.5l2 -0.5q1 0 1.5 -0.5l0.5 -0.5v-66q0 -2 -2.5 -2h-2.5q-2 0 -4 0.5t-2 3.5zM196 134q1 2 2 2.5t3 0.5q3 0 5 -1.5t2 -4.5
q0 -2 -1.5 -7.5t-4 -11t-5 -10.5t-4.5 -6l-26 -12q-2 -1 -2.5 -4t-0.5 -5q0 -4 5 -5.5t11.5 -3t12 -5.5t5.5 -12q0 -7 -3.5 -10t-9 -4.5t-12 -1.5t-13 -0.5t-11 -1t-6.5 -4.5q0 -1 0.5 -3.5t0 -5l-1 -5t-3.5 -2.5q-4 0 -5.5 2.5t-1.5 6.5q0 9 4.5 13t10.5 6t13 2h14t10 1.5
t4 5.5t-2 6.5t-5.5 3.5t-7.5 2t-6 2q-4 1 -6.5 4.5t-4 7t-2.5 6t-3 2.5q-5 0 -7.5 -4t-3.5 -9.5t-1.5 -10.5t-0.5 -7t-1.5 -2h-2.5t-2.5 0.5t-0.5 2.5v11q0 13 6 19.5t18 8.5q1 5 1.5 8.5t0.5 7.5t-1.5 5.5l-3 3t-4.5 2t-5 2.5q-1 0 -3.5 1t-4 2.5t-3 2l-1.5 0.5v5
q3 0 5.5 -1t5.5 -3t5.5 -3t5.5 -1q2 0 3 2t1 4t0.5 4.5t3.5 2.5l1.5 -1t2 -1.5l1 -1l0.5 -0.5v-12q1 -1 3.5 -2l5 -2t5 -2.5l2.5 -1.5q1 0 1.5 -1l0.5 -1l0.5 -1.5t1.5 -1.5v0h1q3 2 5 6t3 7v2.5t0.5 4.5t0.5 4v3zM165 102q0 -3 0.5 -4.5t3.5 -1.5q1 0 3 0.5l4 1t3.5 1.5
t1.5 3t-1.5 3t-3.5 1.5t-4 0.5h-3q-3 0 -3.5 -1.5t-0.5 -3.5zM46 79q0 2 2 3.5t4 1.5t4.5 -3.5t5 -9t5.5 -11.5t6 -11.5t5.5 -9t5.5 -3.5q2 0 4.5 3t5.5 6t5 7t2 6t-2 3t-5 1.5t-5.5 0.5h-3.5t-2.5 0.5t-4 0.5t-4.5 0.5t-3 0.5t-1.5 2.5t-0.5 3.5q10 0 18.5 -2.5t17.5 -2.5
h1v1l11 9h1q2 0 3 -2.5t1 -4.5q0 -1 -3 -5t-7 -9.5t-9 -11.5t-9.5 -11.5t-7.5 -9l-3 -3.5q-3 0 -4 0.5t-1 1.5t-0.5 2.5t-1.5 3.5q-2 4 -7 11.5t-10 15.5t-9 15t-4 10z" />
</svg>
