<?xml version="1.0" standalone="no"?>
<!DOCTYPE svg PUBLIC "-//W3C//DTD SVG 1.1//EN" "http://www.w3.org/Graphics/SVG/1.1/DTD/svg11.dtd" >
<svg xmlns="http://www.w3.org/2000/svg" xmlns:xlink="http://www.w3.org/1999/xlink" version="1.1" viewBox="-10 0 266 256">
   <path fill="currentColor"
d="M133 248l1 1t2 1h1q3 0 4 -2.5t1 -5.5v-85l0.5 -1t1.5 -1q4 -3 8.5 -3h8.5q4 -6 6 -8.5t9 -2.5h1q6 5 7.5 9t1.5 11q0 4 -2.5 6.5t-6 3t-8 1t-8 1t-6 2.5t-2.5 6q5 0 9 -0.5t7.5 -1t7 -1.5t8.5 -3h0.5h0.5q3 0 5 5.5t3.5 13.5t3 17.5t3.5 17.5t3.5 13.5t3.5 5.5t3.5 -2
t1.5 -4q0 -1 -0.5 -3t-1 -4.5l-1 -5t-1.5 -3.5v-1.5t-1 -2.5t-1 -2.5v-1.5q0 -1 -0.5 -3.5t-0.5 -6t-0.5 -6t-0.5 -3.5q-1 -6 -3 -10t-2 -10v-7q3 -2 5.5 -6t4 -8t2.5 -8t1 -8q0 -7 -0.5 -14.5t-1.5 -13.5l-0.5 -2.5t-1.5 -4.5l-2 -4t-2 -2h-33l-0.5 0.5t-1.5 0.5v1v1
q1 1 1.5 3l0.5 2h13.5t10.5 2.5t6.5 7.5t2.5 14v3t-0.5 4.5t-0.5 4.5t-1 3q0 2 -0.5 3.5t-1.5 3.5t-1.5 3.5l-0.5 1.5h-6v-19q0 -2 -2.5 -3t-5.5 -2t-5.5 -1.5t-3.5 -0.5q-7 0 -10 2t-5 4t-5 3.5t-9 1.5q-3 0 -4.5 -2t-2 -5t0 -6t0.5 -6l-0.5 -1.5t0 -2.5t0.5 -2t1 -1h6.5
t6.5 -1t5 -3t2 -6h-2.5h-1.5q-1 0 -3 0.5t-4.5 0.5t-4.5 0.5l-2 0.5h-1q-2 0 -2 -3v-4q0 -11 2.5 -16t6 -7.5t6.5 -3.5t5 -5q2 -5 2 -9v-10v-2v-4v-3v-3q-2 -2 -4.5 -3t-5.5 -1.5t-6 -0.5h-5h-5h-6l-4.5 1.5t-1.5 3.5q0 1 0.5 2.5t1.5 1.5h1q1 0 4 -0.5t6.5 -1t6.5 -0.5h4
q5 0 6 2.5t1 7.5q0 6 -2 10t-5.5 8t-7.5 7.5t-7 6.5q0 1 -1 5.5t-1 9.5t-0.5 9.5t-0.5 7.5q0 9 1 19t1 19v6v6v6v2q0 1 -0.5 3t-0.5 4t-0.5 4.5l-0.5 2.5q0 1 0.5 4.5t0.5 8t0.5 8t0.5 4.5v7v10v10.5v6.5zM54 226q0 2 1.5 3t3 1h3.5h3q12 0 23.5 -1.5t25.5 -4.5q1 0 1.5 -1
t0.5 -2t-0.5 -2t-1.5 -1h-17q-1 0 -2 -2q-2 -6 -1.5 -12t0.5 -12q0 -1 -0.5 -5.5t-0.5 -9.5t-0.5 -9.5t-0.5 -5.5v-18v-18h2.5t3.5 -0.5t4 -0.5h3q2 -1 4.5 -1.5t2.5 -4.5l-0.5 -1.5l-0.5 -1.5l-0.5 -1t-1.5 -1h-17v-13q0 -3 2 -3.5t4.5 -1t4.5 -1.5t2 -4q0 -2 -2 -2.5
t-3 -0.5q-8 0 -16 6v7.5t-0.5 9t-2.5 7.5t-6 3h-5l-1.5 -0.5t-3.5 -0.5t-3.5 -0.5t-2.5 -0.5q-2 0 -3.5 2t-1.5 4t0.5 3t2.5 1q5 0 10 -0.5t11 -0.5q2 0 3.5 2.5t2 5.5t0.5 6v5v71q0 3 -4.5 3h-10t-10.5 0.5t-5 4.5zM57 157q0 13 2.5 26t2.5 26l1 0.5l1 0.5q2 0 3 -2.5
t1.5 -5.5t0.5 -6v-4v-11.5t-0.5 -14.5t-1.5 -12.5t-4 -5.5t-4.5 3t-1.5 6zM105 199q-1 3 0.5 3.5t3.5 0.5h1t1 -1q1 -4 1 -6.5v-6.5v-5v-9v-10.5t-1 -10.5t-2 -8t-3 -3l-0.5 0.5t-0.5 1.5q-1 1 -1 2t-0.5 3t-0.5 3v2l0.5 2t0.5 4.5t0.5 4.5l0.5 2v6.5v9.5v9v6zM44 88
q0 3 0.5 3.5t3.5 0.5q4 0 6 -3t3 -6.5t2.5 -7t4.5 -3.5q1 0 4 0.5t4 0.5l27 -3l1.5 -2t2.5 -3v-1q0 -2 -2 -2h-4q-6 0 -11.5 0.5t-11.5 0.5h-4t-2 -3v-1t1 -1q0 -1 1 -3l2.5 -5t2.5 -5.5t2 -3.5l0.5 -1.5t1.5 -3t2.5 -2.5l1.5 -1q4 0 7 3t6 8t5.5 11t5 10.5t5 8t4.5 3.5
q3 0 4 -2t1 -4t-2.5 -6.5t-6.5 -11t-8.5 -13.5t-8.5 -12.5t-7.5 -9.5t-4.5 -4q-4 0 -5.5 2t-2 4.5t-1 5.5t-1.5 5q0 2 -0.5 3t-1.5 1.5l-2 1t-2 3.5l-1 1.5t-1.5 3t-1.5 3t-1 2.5l-0.5 3t-0.5 4q-2 3 -4.5 6.5t-5.5 8t-5 8.5t-2 8zM200 62h-7.5t-9 0.5t-7.5 2.5t-3 8h13
t13 -1.5t10 -5.5t4 -13v-6t-1 -6t-2.5 -5t-4.5 -3h-4.5h-4.5q-7 0 -12.5 1.5t-13.5 1.5l-1 2q2 3 4.5 3.5t5.5 0.5q5 0 9.5 -1t8.5 -1q3 0 4 1.5t1.5 3.5t1 4.5t0.5 4.5t-0.5 4.5t-3.5 3.5z" />
</svg>
