<?xml version="1.0" standalone="no"?>
<!DOCTYPE svg PUBLIC "-//W3C//DTD SVG 1.1//EN" "http://www.w3.org/Graphics/SVG/1.1/DTD/svg11.dtd" >
<svg xmlns="http://www.w3.org/2000/svg" xmlns:xlink="http://www.w3.org/1999/xlink" version="1.1" viewBox="-10 0 266 256">
   <path fill="currentColor"
d="M201 203v0q1 0 1.5 0.5l0.5 0.5v45q0 1 1.5 1.5l1.5 0.5q3 0 4.5 -2.5t2.5 -5.5t1 -6.5v-4.5q0 -27 -1 -53t-1 -52q0 -1 -0.5 -3.5t-0.5 -3.5t-0.5 -4.5t-0.5 -7v-7v-4.5q-3 -4 -7.5 -6.5l-9 -5t-7.5 -6t-3 -9.5l0.5 -1t0.5 -2q2 0 5 -0.5t6 -1.5l6 -2t4 -4q1 -9 1 -15
v-14q0 -2 0.5 -4t0 -3.5t-1.5 -2.5t-3 -1h-3t-2 2v14l-2 0.5t-4.5 1t-4.5 0.5t-7 0.5t-10.5 1l-11 1t-7.5 0.5l-5 5l3 2h22q2 0 3 1t1.5 3t0.5 4v3q0 4 -4 5t-9.5 1.5t-10 2t-4.5 6.5q7 0 13 -1.5t13 -1.5q2 0 3 1.5t1.5 4t1 4.5t1.5 4q2 2 5 4.5t6.5 4.5t6.5 4t3 6
q0 3 0.5 8.5t1 13t1 16t0.5 16t0.5 13t0.5 8.5v1v1q0 1 -0.5 2.5t-0.5 4t-0.5 4t-0.5 2.5t-2 1.5t-5 1t-5.5 0.5h-3.5h-4q-2 -3 -2.5 -7t-0.5 -7v-2v-3.5t0.5 -2.5t1.5 -1h13l2 -3l1 -1.5l1 -1.5l-1 -0.5l-1 -0.5h-14q-1 0 -2 -1.5t-1 -3v-3v-2.5q0 -4 2.5 -5.5l5 -3t5 -3.5
t2.5 -6v-33q0 -2 -1 -2.5t-2 -0.5q-2 0 -2.5 1.5t-0.5 4.5q0 1 -0.5 5t-0.5 8.5v8v5.5q-1 1 -2 3t-2 2h-1v0q0 -1 -0.5 -2l-0.5 -1q-1 -1 -1 -3.5t-0.5 -5.5t-0.5 -5.5v-3.5v-4v-7v-6v-4t-1 -1.5t-2.5 -0.5h-2.5h-1v45q0 1 -1 1.5t-2 0.5t-3 -2t-2 -3v-33l-1 -1l-1.5 -1.5
t-1.5 -1t-2 -0.5v0q-2 0 -2.5 1t-0.5 2q0 4 0.5 10.5l1 13t2 12t3.5 6.5q2 2 4.5 2.5t4.5 2.5v6v7q0 1 -0.5 2.5t-1.5 1.5h-14l-0.5 1l-0.5 1v1v1l0.5 1l0.5 1h14q1 0 1.5 1t0.5 2l0.5 1t0.5 2.5t0.5 3t0.5 2.5v1v1q-1 5 -4.5 6.5t-7 2t-6.5 0.5t-3 3v1q1 0 1.5 1l0.5 1h17
v41q0 3 1 3.5t3 0.5q3 0 4.5 -2.5t2 -6.5t0.5 -7v-6q0 -3 -1 -7t-1 -8v-2q0 -3 1 -3q0 -1 2.5 -1.5t6 -1t6.5 -0.5h4zM106 212q3 6 7.5 10t10 6.5t11 4.5t10.5 3h1v0q2 0 4 -1t2 -3q0 -4 -3 -5t-6.5 -1.5t-6.5 -1.5t-3 -2v-15q0 -1 2.5 -2t6 -2.5t6 -4t2.5 -5.5v-45l-1 -0.5
t-2 -1.5h-1h-1l-0.5 1l-0.5 1q-1 3 -0.5 11.5t0 17t-2.5 15t-7 6.5l-0.5 -0.5l-0.5 -0.5q0 -2 -0.5 -8.5t-1 -13.5t-1 -13.5t-0.5 -8.5v-6q0 -9 2 -13.5t5 -6t5 -3t2 -4.5v-33l-0.5 -1.5t-1.5 -1.5l-1 -2q-1 0 -2 0.5t-1 1.5q-1 8 -3.5 11.5t-6 5t-7.5 1.5h-7t-5.5 1.5
t-2.5 5.5q7 0 13 -1t14 -2h0.5h0.5q2 0 2 2v4q0 6 -3.5 9t-8 5t-10 2.5t-9.5 1.5v5q4 0 7.5 -1t7.5 -1h2q0 3 0.5 8t0.5 11t0.5 11t0.5 7v21v21q0 5 -3 5q-2 0 -3.5 -1t-2.5 -3t-1.5 -4t-0.5 -3v-55q0 -1 -2 -1.5l-2 -0.5h-3v2.5t-0.5 3.5t-0.5 3.5v2.5v1t0.5 2.5t0.5 2.5v2
v1q0 3 -0.5 7t-0.5 7v13.5t1 14.5zM42 228q0 4 4 4.5t7 0.5q7 0 12 -0.5t10 -0.5t10.5 -0.5t13.5 0.5q1 0 2 -1t1.5 -2.5t0.5 -3v-2.5h-20l-3 -3q0 -20 -1 -40t-1 -41v-15l21 -4l0.5 -1t0.5 -2v-1v0q0 -1 -0.5 -1.5l-0.5 -0.5h-21l-0.5 -2t-0.5 -3v-8v-6l3 -4h14l0.5 -1
t0.5 -2q1 0 1.5 -1.5l0.5 -1.5q0 -1 -1 -1.5t-2.5 -1t-2.5 -0.5h-2q-8 0 -12.5 2.5t-6.5 7t-2.5 10t-0.5 12.5l-1 3h-20q-1 0 -1.5 1.5t-0.5 2.5q0 2 1 3t4 1h2.5t5 -0.5t4.5 -0.5h4h4v25q2 4 2.5 8l1 8t0 8.5t-0.5 8.5v1v7.5t-0.5 11.5t-0.5 11v7q-1 1 -2 1.5t-2.5 1
t-2.5 0.5h-1q-1 1 -4 1t-6 0.5t-5.5 0.5h-3.5l-1.5 1.5t-0.5 1.5zM52 154v16v9t0.5 13t1 13t0.5 9v0q2 0 3 -1t1.5 -3t1 -3.5t0.5 -2.5v-63q0 -2 -1.5 -3t-3.5 -1h-2t-1 1v16zM88 163v3q0 2 0.5 8t1 12.5t1 12.5t0.5 8h1h1q2 0 3 -1t1.5 -2.5t0 -3t-0.5 -2.5v-5v-3v-11
t-0.5 -15.5t-0.5 -16t-1 -10.5q0 -2 -1 -2h-2h-3t-1 2v1v3t0.5 4.5t0.5 4.5v3v0q0 3 -0.5 5t-0.5 5zM105 84q0 2 1 2.5t2 0.5q5 0 10.5 -3t10 -8t8 -11t3.5 -11q0 -1 -1.5 -6.5t-3.5 -10.5t-4 -9t-5 -4q-2 0 -2.5 1.5t-0.5 3.5q0 4 1.5 7t3 6.5t3 6.5t1.5 7q0 6 -4.5 10
t-9.5 7t-9 5.5t-4 5.5zM44 64q0 4 4 4q2 0 4.5 -3t5 -7.5t5.5 -10t6 -10t5.5 -7.5t4.5 -3q1 0 3.5 2.5t5.5 6.5t6 9t5.5 8.5t4 6.5l1.5 3h1.5h2.5h3t2 -3q0 -1 -2 -4.5t-6 -9t-8.5 -11.5t-8 -11t-7 -8.5t-4.5 -3.5t-2.5 0.5t-1.5 1.5q-2 4 -7 11t-10 15t-9 15t-4 9zM64 59
q0 3 1.5 4t3.5 1h2l23 -1q0 -1 0.5 -1.5l0.5 -0.5q1 0 1 -1t-1 -1l-1 -1.5t-2 -1.5h-26q-1 0 -1.5 1.5zM181 53v-1t1 -1q0 -1 1 -3.5l1 -2.5l11 -2q2 0 2 2v2q0 5 -3.5 8t-7.5 3q-2 0 -3.5 -1.5t-1.5 -3.5z" />
</svg>
