<?xml version="1.0" standalone="no"?>
<!DOCTYPE svg PUBLIC "-//W3C//DTD SVG 1.1//EN" "http://www.w3.org/Graphics/SVG/1.1/DTD/svg11.dtd" >
<svg xmlns="http://www.w3.org/2000/svg" xmlns:xlink="http://www.w3.org/1999/xlink" version="1.1" viewBox="-10 0 266 256">
   <path fill="currentColor"
d="M88 243q0 2 2.5 2.5t3.5 0.5q10 0 20 -0.5t20 -1.5t20 -1.5t20 -0.5q2 0 3 -1.5t1 -3.5v-1l-0.5 -0.5l-0.5 -0.5h-17v-29q0 -1 -2 -1.5t-3 -0.5t-2.5 0.5t-1.5 2.5v28h-12q-1 0 -1.5 -0.5t-0.5 -1.5t-0.5 -4.5t-0.5 -5.5v-11v-12q0 -2 0.5 -4.5l0.5 -2.5h30l0.5 -0.5
l1.5 -1.5t1.5 -2t0.5 -2q-1 -3 -3 -3h-4q-5 0 -10 1t-10 1q-7 0 -8.5 -2t-1.5 -7t3 -7t7.5 -3t9 -1.5t7.5 -1.5l0.5 -1t0.5 -2v0v0q0 -3 -2 -3h-3q-3 0 -7.5 0.5t-9 1.5t-8.5 2.5t-5 3.5t-1.5 4.5t-0.5 5t-0.5 5t-0.5 3.5l-2 3h-8h-8t-8 0.5t-7 1.5l-0.5 1t-1.5 2v0v1l2 3h3
q6 0 11.5 -1t10.5 -1q1 0 3.5 0.5t3.5 0.5t2 1.5t1 2.5v34l-2 3h-4h-5q-2 0 -4 -1v-14v-4t-0.5 -4t-1.5 -4t-3 -2t-3 1.5t-2 3.5v4t0.5 6.5t0.5 6.5v4v1q0 3 -2 3.5t-5 0.5t-5 1t-2 4zM60 177q0 2 1 2.5t4 0.5q2 0 7 -3.5t10.5 -10t12 -13.5t12 -14t10.5 -12.5t9 -8.5h4
q4 0 7 2t6 5l3 3l3.5 3.5t2.5 3l1 1.5v4l-48 2q-1 1 -1 2v2v1.5t1 1.5h12h9t8 -0.5t8.5 -0.5t10.5 -1q2 -2 3 -3.5t3 -1.5q3 0 8 3t9.5 6.5t8.5 7t6 5.5h7q2 0 2 -2v-3q0 -2 -1.5 -4.5t-4 -4t-5.5 -3t-5 -1.5q-3 -2 -8 -5.5t-11 -8t-12 -9.5t-11.5 -9.5t-9 -7t-4.5 -2.5
q-2 0 -7 4.5t-10 11t-9.5 12.5t-6.5 8l-4.5 4.5l-7.5 7.5l-7.5 7.5t-5.5 4.5q-3 3 -6.5 5.5t-3.5 7.5zM92 102v22q5 0 7 -2t2.5 -5.5t0 -7.5t-0.5 -8l1 -3q1 0 3 -0.5t5.5 -0.5t4.5 -1q1 0 2 0.5t2 -0.5h2t4.5 -0.5t4.5 -1t3 -0.5l1.5 -1.5t0.5 -1.5q0 -2 -1.5 -2.5
t-3.5 -0.5q-6 0 -12.5 1.5t-12.5 1.5q-4 0 -4 -4q0 -3 4.5 -4t10 -2.5t10 -6t4.5 -13.5q0 -7 -2 -11t-6 -6.5t-9 -3t-11 -1.5q-1 -1 -1 -2v-2v-2t1 -2h21l0.5 -0.5t0.5 -1.5q1 0 1.5 -1.5l0.5 -1.5v-0.5v-0.5q0 -1 -2 -2t-3 -1h-4.5t-5.5 1t-5.5 1h-3.5l-0.5 -1l-0.5 -1
q0 -1 -0.5 -2.5t-0.5 -3.5t-0.5 -3.5t-0.5 -2.5h-2h-3t-2 2v11q0 2 -4.5 2.5t-9 0t-8.5 0t-4 4.5v1.5t2 1.5h24v1v3v2t-1 2q-9 0 -15 2t-11 8q-1 0 -1.5 1l-0.5 1v19q0 3 2 4.5t5.5 2.5t7 1.5l7 1t5.5 2t2 3.5t-1 3.5t-3 1.5h-28q-1 0 -3.5 2t-2.5 3q0 2 1.5 3.5t3.5 1.5
q7 0 14 -1.5t14 -1.5h4zM174 112q0 1 2 3t4 2q6 0 6 -7q0 -3 -2 -6l-4 -6t-3.5 -6t-1.5 -6q0 -6 2.5 -9t5.5 -4t5.5 -2.5t2.5 -4.5q0 -1 -0.5 -2.5t-1.5 -1.5q-3 0 -7 1.5t-7.5 4t-5.5 5.5t-2 7q0 9 1 16.5t6 15.5zM184 32q0 4 -2 6.5t-5.5 3.5t-7.5 2t-8 2.5t-7.5 4
t-5.5 7.5q-1 1 -2 4.5l-1 3.5v41q0 2 0.5 2.5t2.5 0.5q3 0 4 -3v-33q0 -1 0.5 -3t1 -4.5t0.5 -4.5t1 -3q3 -5 9.5 -6.5l13 -3t11.5 -4t5 -9.5v-4v-4.5t-1.5 -4.5t-2.5 -3h-2.5t-3.5 -0.5t-3.5 -0.5h-2.5h-4t-7 0.5t-8 0.5h-6q-1 0 -3 0.5l-4 1t-4 2t-2 3.5t2 2h2
q7 0 12.5 -1t12.5 -1h12q3 0 3 2v3zM75 66q0 -1 2 -2t4 -1.5t4 -0.5h2q4 0 5.5 3.5t1.5 6.5q0 2 -1.5 3t-3.5 1t-4.5 -0.5t-5 -1.5t-4 -3t-0.5 -5zM101 70v-4t3 -3h15q1 0 1 2v2q0 2 -2 4t-5 3t-5.5 1.5t-4.5 0.5t-2 -2v-4zM88 49h4t2 3q0 1 -0.5 2.5t-2.5 1.5h-14
q0 -5 3 -6t8 -1zM101 53q0 -4 3 -5t6 -1q2 0 5.5 1t3.5 5q0 1 -1.5 2t-3.5 1h-4h-3h-5q-1 0 -1 -1v-2z" />
</svg>
