<?xml version="1.0" standalone="no"?>
<!DOCTYPE svg PUBLIC "-//W3C//DTD SVG 1.1//EN" "http://www.w3.org/Graphics/SVG/1.1/DTD/svg11.dtd" >
<svg xmlns="http://www.w3.org/2000/svg" xmlns:xlink="http://www.w3.org/1999/xlink" version="1.1" viewBox="-10 0 266 256">
   <path fill="currentColor"
d="M124 248q0 2 1 2.5t3 0.5q4 0 5.5 -2.5t1.5 -5.5q0 -6 -1 -12t-1 -13q0 -9 1.5 -17t7.5 -16q4 -5 6.5 -7.5t4 -4.5t2.5 -5.5t1 -10.5q0 -5 -4.5 -7t-9.5 -3t-9 -2.5t-4 -7.5q0 -4 2 -6.5t5 -4t7 -2t7 -0.5q4 -3 5 -8.5t1 -9.5v-5.5v-3.5q0 -2 -0.5 -5t-0.5 -5.5
t-0.5 -4.5l-0.5 -2l-3 -3q-2 2 -2.5 4.5l-1 5t-1.5 4.5t-5 3h-4t-6 0.5t-6 0.5h-4q-1 1 -1 1.5v1.5v2t1 1h26q1 0 1 3v3q0 7 -4 9.5t-8.5 3.5t-8.5 2t-4 5v17q0 5 4 6.5t9 2.5t9.5 3t4.5 9v0l-2 4l-7.5 7.5t-6 7t-5 7.5t-3.5 9v7.5v11.5v11v7q0 1 -0.5 2t-0.5 2.5t-0.5 3
l-0.5 1.5v2zM199 245l1 1.5t2 1.5q4 0 5.5 -3t1.5 -6q0 -6 -1 -12t-3 -12t-3.5 -12t-1.5 -13q0 -3 2 -5.5l4 -5t3.5 -4.5t1.5 -6q0 -6 -4.5 -10t-10 -5.5t-11.5 -2.5t-10 -1q-3 0 -5.5 1t-2.5 4q0 1 1 3t3 2h22q1 0 3 1.5t3 2.5v2v2v5t-4 2l-1 -0.5l-1 -0.5l-1 -0.5l-2 -1
t-2 -1.5l-1 -1h-1.5t-3.5 -0.5t-4 -0.5h-3h-3h-5t-3 2q0 4 4 5t8.5 1t8.5 0.5t4 3.5v1q-1 0 -1.5 0.5l-0.5 0.5q-1 1 -4 1.5t-6.5 1t-6.5 1.5t-4 1q-2 1 -3.5 0.5t-2.5 -0.5t-2.5 0.5t-3.5 2.5v1v0l2 2l1 1q1 0 3.5 0.5l2.5 0.5q4 0 7 -0.5t6 -1.5t6.5 -2t7.5 -2l1 1
l0.5 1.5t1 3.5t1 4.5t1.5 3.5v3t0.5 4t0.5 4v3l0.5 2.5t1.5 3.5v4t0.5 6.5t0.5 6.5v4zM52 209q0 3 2.5 4t5.5 1q6 0 12.5 -1.5t13.5 -2.5h4.5t7 -1t7 -1t4.5 -1q3 0 4 -1t1 -4q0 -2 -1 -3t-3 -1h-1h-1q-1 0 -3 1t-4 1t-4 0.5t-3 0.5v0q-7 0 -7 -6q0 -2 0.5 -3t0.5 -3v-1
q0 -1 -0.5 -4.5t-0.5 -4.5v-11.5t-0.5 -17.5t-0.5 -17.5v-11.5v-4q0 -4 2.5 -5t6.5 -0.5t7.5 0t5.5 -4.5l-5 -4h-16l-0.5 -2t-0.5 -3l-0.5 -2t-0.5 -3q0 -7 3 -9t6 -3l6 -2t3 -7q-2 0 -6.5 0.5t-9 1.5t-8 2.5t-3.5 5.5q0 3 1 6t1 7q0 8 -3.5 10t-8.5 1.5t-8.5 -0.5t-3.5 3v1
l2 2l1 1h16l4 3v2v4.5t0.5 5.5t0.5 5q1 16 1.5 31.5t0.5 31.5q0 1 -0.5 2.5l-0.5 1.5l-2 4h-21q-2 0 -3 2t-1 3zM63 127h-2t-1 1v64q2 0 5 -1t3 -5v-56q0 -2 -2 -2.5t-3 -0.5zM99 188l1 2h1q2 0 2.5 -2t1.5 -3v-13q0 -11 -1 -21t-1 -21q-1 -3 -2 -4t-4 -1v8v13v12.5v8.5
q0 1 0.5 4t0.5 6.5t0.5 6.5t0.5 4zM174 133q0 3 4 4.5t9 3t10 2t7 0.5h5q1 0 1.5 -0.5l0.5 -0.5v-1q0 -3 -2 -5t-5.5 -2.5t-7.5 -0.5t-7.5 -0.5t-5.5 -1.5t-2 -4q0 -4 4.5 -6.5t10 -5t10.5 -6t5 -11.5q0 -5 -3.5 -7t-8 -3t-9 -0.5t-7.5 0.5q-3 -1 -3 -3t-0.5 -4.5t-1 -4.5
t-3.5 -3q-2 -1 -3 2t-1.5 7.5l-1 9t-0.5 5.5q-1 4 -3.5 7.5t-2.5 8.5q5 0 7.5 -2.5t3.5 -5.5t2.5 -5.5t3.5 -2.5h18q0 1 0.5 3.5t0.5 3.5q-1 5 -5.5 6t-9 3t-7.5 6t-3 14zM108 77q0 3 2 3h4q1 0 6.5 -3t12 -6.5t11.5 -7t6 -4.5q0 -3 0.5 -7.5t1.5 -9t1.5 -9t0.5 -7.5
q0 -2 -1 -4t-3 -2q-1 0 -2 0.5t-1 1.5q-1 7 -1.5 15.5t-0.5 15.5q0 1 -2 2.5t-2 2.5h-1q-2 0 -2.5 -1.5t-1.5 -3.5v-10q0 -5 1 -10t1 -10t-2 -8.5t-8 -3.5v30q0 1 -1 1.5l-1 0.5q-1 0 -2 0.5l-1 0.5h-1q-1 0 -2 -1t-1 -3t-0.5 -3t-0.5 -2v-14q0 -1 -0.5 -1.5l-0.5 -0.5h-1
q-2 0 -3.5 1t-1.5 3v21q0 1 0.5 2t1.5 1.5t2 1.5l2 2h4h5q3 4 3 8q0 5 -3.5 7t-7.5 3.5t-7 3t-3 4.5zM162 27v1v6.5t0.5 7.5t0.5 7v3q1 4 3.5 6t6 3.5t7 2.5t6.5 1q2 1 4 2.5t4 2.5l4 2t5 1q2 0 4.5 -1t2.5 -3q0 -4 -4.5 -5.5t-9 -2t-8.5 -2t-4 -3.5q0 -3 1.5 -4.5t3.5 -2
t5 -0.5h4q2 -4 2.5 -8t0.5 -8v-4v-5.5t-1 -4.5t-3 -2h-1.5t-0.5 1q-2 5 -2.5 11t-1.5 11q0 1 -0.5 1.5t-1.5 0.5h-1q-1 0 -1 -1l-0.5 -2.5t-0.5 -3.5t-0.5 -4.5t-0.5 -7.5t0.5 -7.5t0.5 -5.5l-3 -1h-1h-1q-1 0 -2 1t-1 2v34l-0.5 1.5t-1 2.5t-1 2.5t-1.5 1.5t-3 -2.5
t-2 -4.5v-26q-3 0 -5 1.5t-2 4.5zM45 62q0 2 1.5 2.5t3.5 0.5q3 0 4.5 -1.5t2 -3.5t1.5 -4.5t2 -3.5l1 -1.5t2.5 -2.5t2.5 -2l2 -2t2.5 -4.5t3.5 -6.5t4 -5.5t4 -2.5t3 1.5t2 3.5l1.5 2t2.5 3.5t2 3.5l1 2v2v2.5t-1 1.5h-23l-0.5 0.5t-0.5 1.5v1q0 1 1 1.5l2 1t2.5 0.5h2.5
t4.5 0.5t7.5 0.5t7.5 -0.5t5.5 -0.5q-1 4 1 6t5 2v-12l-2 -2q-5 -7 -9 -16.5t-9 -17.5q-1 -2 -1.5 -2.5t-2.5 -0.5h-2t-3 2q-1 1 -3.5 5t-5.5 8.5t-6 8.5t-4 6l-4.5 4.5t-5 5.5t-4 6t-1.5 6z" />
</svg>
