<?xml version="1.0" standalone="no"?>
<!DOCTYPE svg PUBLIC "-//W3C//DTD SVG 1.1//EN" "http://www.w3.org/Graphics/SVG/1.1/DTD/svg11.dtd" >
<svg xmlns="http://www.w3.org/2000/svg" xmlns:xlink="http://www.w3.org/1999/xlink" version="1.1" viewBox="-10 0 266 256">
   <path fill="currentColor"
d="M38 246q0 2 0.5 3.5t3.5 1.5l1.5 -0.5t3.5 -1t3.5 -0.5h1.5q7 -1 15 -1h16t16 -1t15 -4v-3q0 -2 -0.5 -3t-2.5 -1q-6 0 -11 1t-10 1h-5h-3l-2 -2v-69v-1.5t-0.5 -3.5t-0.5 -3.5v-2.5t-1 -3t-1 -3q0 -6 3 -8.5t7.5 -3.5t9.5 -1h10l1.5 -1.5t1.5 -2.5l0.5 -0.5l0.5 -0.5
q0 -2 -3.5 -3t-4.5 -1l-3 1t-4 1h-5q-3 0 -5 -0.5l-4 -1t-2.5 -2.5t-0.5 -6q0 -9 3 -12.5t7 -5.5t7.5 -2.5t3.5 -3.5t-3 -3.5t-5 -0.5h-5t-6.5 0.5t-6 2t-2.5 3.5v30l-3.5 0.5t-5.5 1.5h-3.5t-6 0.5t-6.5 0.5h-4q-2 1 -3.5 3t-1.5 4v1l2 0.5t3 1.5h1h1q1 0 3.5 -0.5t5.5 -1
t5.5 -0.5h3.5h4h2t2 2v97l-3 2h-28q-2 0 -2 3v3zM128 242l1.5 1.5l1.5 1.5h2h4h3h3q19 0 37.5 -1.5t37.5 -1.5v-2v-1v-3.5t-2 -1.5h-5h-7h-7.5h-5.5l-2 -0.5t-3 -1.5q-2 -7 -2 -14v-14v-3v-5v-5.5v-3.5q2 -3 5.5 -5l7 -4t6 -4.5t2.5 -8.5t-4 -10.5t-10 -6.5h-3h-4.5h-4.5h-4
h-11t-13 1.5t-10.5 5.5t-4.5 11q0 4 1 8t2.5 7.5t4.5 6t7 3.5v44h-21q-1 0 -1.5 2.5t-0.5 4.5zM172 187q2 0 3 1.5t1.5 3.5t0.5 4v4v8.5t-0.5 11t-1 10t-1.5 4.5h-15v-39q0 -2 1.5 -3.5t3.5 -2.5t4.5 -1.5t3.5 -0.5zM49 228q0 1 1.5 2.5l1.5 1.5h1q2 0 3.5 -2t1.5 -4v-59
q0 -1 -0.5 -2.5t-1 -2.5t-1.5 -2t-3 0q-2 0 -3 2t-1.5 4t-0.5 4v4q0 13 1 26.5t1 27.5zM92 159v67q0 1 1 1.5l1 0.5h1q2 0 3.5 -2t1.5 -3v-53q0 -4 -1 -7.5t-7 -3.5zM145 172q0 -6 3 -11t10 -5h28q4 0 6.5 3t2.5 7q0 5 -3.5 8t-7.5 6q-8 1 -14.5 1.5t-13.5 0.5q-5 0 -8 -2
t-3 -8zM131 124q0 1 0.5 2t1.5 2h25h26h4q2 0 4.5 -0.5t4 -1.5t1.5 -4v-2t-2 -2h-6q-5 0 -10 1t-11 1q-5 0 -9.5 -1t-9.5 -1h-1q-1 1 -3.5 1.5l-5 1t-4.5 1t-3 0.5t-1.5 0.5t-0.5 1.5zM112 116q0 1 1 2t2 1t5 -2.5t9.5 -6.5t12 -8.5t12 -8.5t9 -7t4.5 -3q-2 -3 -2.5 -5
t-1 -3.5t-0.5 -3.5v-4q0 -6 1 -12.5t1 -12.5q0 -2 -1 -4t-3 -4q0 1 -0.5 1.5t-1.5 0.5q0 1 -1 2.5l-1 1.5v41l-1 1t-2 1q-1 1 -2 1.5l-1 0.5q-1 0 -2.5 -1.5t-1.5 -2.5v-15q0 -13 1.5 -25t1.5 -25q-3 0 -5.5 1t-2.5 4v51q0 1 -1.5 1.5t-2.5 0.5q-2 0 -3.5 -1.5t-2 -3.5
l-1 -4t-0.5 -3q0 -6 1 -11.5t1 -10.5q0 -2 -1 -4t-3 -2h-1l-1.5 1.5l-0.5 0.5v34q0 4 3 6l6 4l6 4t3 5q0 4 -5 7t-11 6t-11 6.5t-5 7.5zM175 83q2 4 7.5 9.5t12 11t13 9.5t9.5 4q2 0 3 -1t1 -4v-3q-3 -1 -7.5 -3t-9 -5t-8 -6.5t-3.5 -6.5t2 -4.5t4.5 -3.5t5.5 -3.5t4 -4.5
q1 -6 1.5 -11.5t1 -10t0.5 -9v-9.5v-3.5v-3.5t-1 -1.5t-2 -0.5t-2 0.5t-2 1.5v7t-0.5 10t-0.5 10v7l-0.5 2.5t-1 4.5t-1.5 4t-3 2q-3 0 -3 -2v-8q0 -10 0.5 -20t0.5 -20q0 -3 -0.5 -6.5t-4.5 -3.5h-2t-1 2v67l-0.5 1t-1.5 1h-1h-1l-1.5 -2l-1.5 -2v-39q0 -1 -1.5 -3.5
t-3.5 -2.5h-1q0 1 -0.5 1.5l-0.5 0.5v9v9v8.5t0.5 9.5t0.5 11zM36 85q1 0 1.5 1l0.5 1h1h0.5h0.5q2 -1 5 -3.5t5.5 -5t4.5 -5t3 -3.5q3 -5 5 -10t4 -10.5t5 -10t10 -8.5q5 1 8.5 5.5t6.5 9.5t5.5 10.5t5.5 10t6.5 7.5t7.5 3q0 -7 -3 -13t-7.5 -11.5t-9 -10.5t-8.5 -9
q-1 -2 -2.5 -5.5t-2.5 -6.5t-3 -5t-5 -2t-4.5 1.5t-2 4l-1 5t-2.5 4.5q-7 11 -14.5 22t-14.5 23q-1 0 -1.5 1.5t-1.5 3.5t-1.5 3.5t-1.5 2.5zM67 62q0 2 1 4t3 2h25q1 0 2 -1.5t2 -2.5v-0.5v-1.5h-33z" />
</svg>
