<?xml version="1.0" standalone="no"?>
<!DOCTYPE svg PUBLIC "-//W3C//DTD SVG 1.1//EN" "http://www.w3.org/Graphics/SVG/1.1/DTD/svg11.dtd" >
<svg xmlns="http://www.w3.org/2000/svg" xmlns:xlink="http://www.w3.org/1999/xlink" version="1.1" viewBox="-10 0 266 256">
   <path fill="currentColor"
d="M125 241q0 1 1 3t3 2v0q2 -1 4 -3.5t2 -5.5q0 -9 -0.5 -17.5t-0.5 -16.5v-9v-6t0.5 -6t0.5 -8q1 -1 1 -3t1 -4.5t2.5 -4t2.5 -1.5h1l0.5 0.5l1.5 1.5q3 6 3.5 11.5t1.5 10t3.5 7t10.5 2.5q9 0 13 -2.5t5.5 -6.5t2 -9t0.5 -9t0.5 -6.5t4.5 -2.5q3 0 4.5 4t2 10t0.5 12.5
t1 9.5v46q0 1 1.5 1h2.5q4 0 6 -2.5t2 -5.5v-5v-7.5t-0.5 -12.5t-1 -14.5t-1 -14t-1 -12t-0.5 -8.5q-1 -3 -3.5 -7t-7.5 -4q-8 0 -12.5 2.5t-6 6.5t-2 9t-1 9t-3 6.5t-7.5 2.5q-2 0 -3 -0.5t-2 -2.5v-11t-1 -9t-3.5 -6t-9.5 -2t-11 3t-6 8t-2 11v12v4t-0.5 7.5t-0.5 8.5v7v6
t0.5 8t0.5 8v5zM51 230v2q0 2 2 3q16 -1 31 -4.5t31 -4.5q2 0 2 -1.5v-2.5t-0.5 -2.5t-2.5 -1.5h-21q0 -5 1 -11t-2 -12v-73q0 -4 4.5 -4.5t10 -0.5t10 -1.5t4.5 -7.5h-26l-0.5 -1l-0.5 -1q-1 -1 -1.5 -2.5l-0.5 -1.5q0 -4 3 -6t6.5 -2.5t6.5 -1.5t3 -4v0v-1l-0.5 -0.5
l-0.5 -0.5q-2 0 -4.5 -0.5t-3.5 -0.5q-7 0 -10.5 2t-5.5 5t-2.5 6.5t-1 6t-1.5 4.5t-4 2h-23q-2 0 -2.5 2.5t-0.5 4.5q0 3 1.5 3.5t3.5 0.5q6 0 12 -2t12 -2q1 0 1.5 1.5t1 3.5t0.5 4v1v3t-0.5 4t-0.5 4v2v77q0 1 -0.5 1.5t-1.5 0.5l-3 1t-5 1h-3.5t-5.5 0.5t-6 0.5h-4
q-2 2 -2 3.5v3.5zM59 201q0 1 -0.5 3t0 4t1.5 3t2 1q3 0 4.5 -1t2.5 -3.5t1.5 -4.5t0.5 -4v-58q0 -2 -1.5 -2.5t-2.5 -0.5q-6 0 -7 3t-1 8q0 9 0.5 17.5t0.5 17.5q0 4 -0.5 8t-0.5 9zM105 204q0 1 1.5 1h2.5q3 0 4 -2t1 -5q0 -12 -1 -24t-2 -23v-11q-1 -2 -2 -3t-3 -1
q-1 0 -2 0.5t-2 1.5v12v27t3 27zM131 136q0 2 1 4t3 2q1 0 2 -0.5t1 -1.5q3 -6 4 -7.5t2.5 -1t4 0.5t6.5 -2h7t10.5 -0.5t10.5 -0.5t7 -1h3t4 -0.5t3.5 -0.5h2.5q1 -1 1 -1.5v-2.5t-1.5 -2.5t-3.5 -0.5q-5 0 -11 1t-11 1q-2 0 -4.5 -1.5t-2.5 -3.5q0 -1 1 -3.5t3 -3.5h2
t4.5 -0.5t4.5 -0.5h3q2 -1 4 -2.5t2 -4.5q0 -2 -1.5 -2.5t-3.5 -0.5q-4 0 -7.5 0.5t-6.5 0.5t-4 -1t-1 -4t2.5 -4.5t5 -2t5.5 -1t5 -0.5l1 -1t1 -2h0.5h0.5q0 -1 -0.5 -1h-0.5q0 -1 -0.5 -1.5l-0.5 -0.5h-15q-2 0 -3 -1.5t-0.5 -3.5l1 -4l0.5 -2q3 0 6 1l6 2l6 2t6 1
q2 0 3.5 -1.5t1.5 -3.5q0 -3 -3.5 -5t-8 -3.5t-9 -3.5t-6.5 -3l-0.5 -0.5l-0.5 -0.5q0 -5 4 -8t8.5 -5t8.5 -4t4 -5v-1v0q-2 -4 -6 -7.5t-8.5 -6.5t-9.5 -4.5t-10 -1.5q-3 0 -6.5 2t-5.5 6l-24 32h-1v1q0 2 0.5 3.5t2.5 1.5t4.5 -1t4.5 -1q3 0 5 0.5t2 3.5t-1 5t-2.5 4
t-2.5 4t-2 5q-2 14 -4.5 28t-2.5 30zM141 118q0 -2 2 -3t4.5 -2t4.5 -1h4q1 0 2 0.5t2 2.5q0 1 -0.5 3.5t-1.5 3.5q0 1 -1 1h-12q-1 0 -2 -1q0 -1 -1 -2t-1 -2zM155 89q3 0 4 2.5t1 5.5v3v2q-1 0 -2 1l-1 1h-3h-4t-4 0.5t-3 0.5q0 -6 3 -11t9 -5zM47 84q0 2 0.5 3.5t2.5 1.5
q4 0 6.5 -2.5t4 -5.5t3.5 -5.5t4 -2.5t4 1t5 1h2q1 -1 4.5 -1.5t7.5 -1.5t7.5 -1.5t4.5 -1.5q1 0 1.5 -1t0.5 -2t-0.5 -2t-1.5 -1h-27l-1 -0.5t-1 -1.5v0q0 -3 1.5 -7t3.5 -7.5t5 -6t6 -2.5q1 0 4.5 4t7.5 9.5t7 10.5t5 7q1 2 1.5 4.5l1 5t2 4t3.5 1.5q3 0 3.5 -1t0.5 -4
q0 -2 -2 -7.5t-5.5 -12t-8 -13.5t-8.5 -13t-7.5 -9.5t-4.5 -3.5q-3 0 -7 4.5t-7.5 10.5t-6 12t-4.5 9q-1 1 -3.5 4.5t-5 7.5t-5 7t-3.5 4q-1 2 -1 3v2zM146 79q2 -6 5.5 -11.5t10.5 -5.5q0 5 -0.5 9.5t-1.5 9.5h-5h-4.5t-4.5 -2zM149 44q0 -4 1.5 -7t4.5 -5.5t6 -4.5t6 -2
q2 0 4.5 0.5t4.5 1.5t4 2.5t2 4.5q0 2 -2 3.5t-5 1.5t-4.5 -2t-4.5 -2h-2l-3 15q0 2 -2 2h-2q-4 0 -6 -2.5t-2 -5.5z" />
</svg>
