<?xml version="1.0" standalone="no"?>
<!DOCTYPE svg PUBLIC "-//W3C//DTD SVG 1.1//EN" "http://www.w3.org/Graphics/SVG/1.1/DTD/svg11.dtd" >
<svg xmlns="http://www.w3.org/2000/svg" xmlns:xlink="http://www.w3.org/1999/xlink" version="1.1" viewBox="-10 0 266 256">
   <path fill="currentColor"
d="M117 246q0 5 4 5q3 0 4.5 -1t2.5 -4q4 -28 4.5 -55.5t1.5 -55.5q0 -10 1.5 -17t5.5 -11t10.5 -6t16.5 -2q2 0 6 0.5t8 1.5t7.5 2t3.5 3l3 14q-1 30 0 61t3 62q0 1 1.5 3t2.5 2q3 0 4 -1.5t2 -3.5t1 -4v-4v-3.5v-2.5q0 -1 -0.5 -2t-1 -2.5l-1 -3t-0.5 -2.5q-3 -16 -3 -33
v-35q0 -8 0.5 -15.5t0.5 -16.5v-6t-0.5 -5.5t-2 -5t-4.5 -4.5q-5 -2 -8 -3t-6 -1.5t-6 -0.5h-6q-4 0 -11.5 1t-15 2.5t-13.5 5t-6 8.5v36q-2 2 -2.5 3.5t-0.5 3.5q0 3 1 6t1 6q0 20 -2 40t-6 40v0.5v0.5zM46 226q0 5 3 5.5t6 0.5q12 0 25.5 -2t26.5 -3q1 0 1 -1v-2v-1.5
t-1 -1.5h-17q-1 0 -3 -2.5t-2 -3.5v-83l0.5 -0.5t1.5 -0.5q0 -1 1.5 -2l1.5 -1h24q0 -2 -1 -4.5t-3 -2.5h-23q-1 0 -1 -1t-0.5 -2.5t-0.5 -2.5v-2q0 -9 3.5 -11.5t7.5 -3.5t7.5 -1.5t3.5 -5.5h-22q-1 0 -2 1t-2 2.5t-2 2t-1 1.5q0 3 -1 10t-2 12q-1 0 -1.5 1l-0.5 1h-24
q-1 0 -1.5 2t-0.5 3v2t2 2h24l3 3v74q0 1 -0.5 4.5t-0.5 5.5l-1 2.5t-2 2.5h-25l-0.5 1t-0.5 2v0zM140 190v13t1.5 12.5t5.5 8.5t12 3q10 0 16 -1.5t9.5 -5t4.5 -10t1 -16.5q0 -6 -0.5 -11t-2.5 -8.5t-6 -6t-11 -2.5q-6 0 -11.5 1t-10 3.5t-6.5 7t-2 12.5zM149 207
q0 -4 1.5 -6t5.5 -2h4q0 1 0.5 2.5t0.5 2.5v1.5v3.5t-0.5 3.5t-0.5 2.5q-1 2 -1.5 2.5t-1.5 0.5q-5 0 -6.5 -3.5t-1.5 -7.5zM169 209q0 -7 2 -9.5t9 -2.5v5.5t-0.5 7t-2.5 6t-5 2.5q-2 0 -2.5 -1t-1 -2.5t0 -3t0.5 -2.5zM59 143q-1 0 -2.5 0.5t-1.5 2.5v66q0 1 1.5 1h1.5
q3 0 4.5 -2.5t1.5 -4.5q0 -3 0.5 -11t0.5 -16t0.5 -16t0.5 -11v-1q0 -3 -1.5 -5.5t-5.5 -2.5zM99 144q-1 0 -2 1t-1 3v56q0 3 0.5 4t2.5 1q3 0 3.5 -3.5t0.5 -6.5v-51q0 -2 -1.5 -3t-2.5 -1zM146 189q0 -7 4.5 -11t10.5 -4v17q0 1 -1 1.5t-2 0.5h-5h-5q-1 0 -1.5 -1.5
l-0.5 -1.5v-1zM168 185v-4t0.5 -4t2 -3.5t3.5 -1.5q3 0 4.5 2.5t2.5 5.5t1 6.5v4.5h-12l-1 -1l-0.5 -2t-0.5 -3zM145 117v3v14t2 10t6 6t13 2q10 0 15 -3t7 -8.5t1.5 -13t-0.5 -16.5q-5 0 -7 2t-2.5 4l-1 4t-3.5 2h-22v-3.5v-3.5t-1 -3t-3 -1t-3 1.5t-1 3.5zM155 138
q0 -3 1.5 -5.5t4.5 -3.5t6.5 -1.5t6.5 -0.5h1q1 1 2.5 1.5l1.5 0.5q1 0 1 3v2q0 8 -3.5 10t-9.5 2t-9 -1t-3 -7zM47 86q0 2 0.5 3.5t2.5 1.5q3 0 6 -3.5t6.5 -9.5t6.5 -13t6 -13t6 -10t5 -4t4 3.5t5 8t5.5 9.5t5.5 9.5t5.5 7.5t5.5 3q2 0 3.5 -0.5t1.5 -2.5q0 -1 -2.5 -5.5
t-6 -10.5t-8 -13t-9 -12.5t-7.5 -9.5t-4 -4q-2 0 -3 0.5l-3 1.5q-5 11 -11 22t-11 21q-3 6 -6.5 10t-3.5 10zM125 89q0 2 1 2h3q3 0 5.5 -6t3.5 -13.5t1.5 -14.5t0.5 -10v-4t-0.5 -3.5t-1.5 -3t-3 -1.5q-3 0 -4.5 6.5t-2.5 15.5t-1.5 18t-1.5 13v1zM158 87q1 1 2 1l1 1
q1 0 2.5 -2t2 -4.5t1 -4.5l0.5 -2v-60l-2 -1l-2 -1l-0.5 -0.5l-0.5 -0.5q-2 0 -3.5 1.5t-1.5 3.5v3v4v5v2v4v4.5v3.5v2v8t0.5 12.5t0.5 12.5v8zM188 76q3 1 3.5 3t1.5 4l2 4t4 2v-1q2 -2 3.5 -2.5t1.5 -3.5v-1q0 -1 -1 -2.5t-2 -3.5t-2 -3.5l-1 -1.5q-5 -9 -5.5 -17.5
t0.5 -18.5q1 -3 -0.5 -4t-2.5 -1q-3 0 -5 2t-2.5 5t-0.5 6v5q0 1 0.5 4l0.5 3q0 1 0.5 4.5t1.5 6.5t2 6.5t1 4.5zM73 68v2t2 1h9l2.5 0.5t5.5 0t5 -1.5t2 -3v-1l-0.5 -0.5l-0.5 -0.5h-22q-2 0 -2.5 1t-0.5 2z" />
</svg>
