<?xml version="1.0" standalone="no"?>
<!DOCTYPE svg PUBLIC "-//W3C//DTD SVG 1.1//EN" "http://www.w3.org/Graphics/SVG/1.1/DTD/svg11.dtd" >
<svg xmlns="http://www.w3.org/2000/svg" xmlns:xlink="http://www.w3.org/1999/xlink" version="1.1" viewBox="-10 0 266 256">
   <path fill="currentColor"
d="M76 246v2t2 2h11q23 0 45 -2t45 -1l1 -0.5t2 -0.5v-0.5v-0.5q0 -1 -1 -3t-2 -2h-9q-9 0 -17.5 0.5t-17.5 0.5h-3.5t-2.5 -3v-37q0 -1 2.5 -2t6 -1.5t6.5 -0.5h4q5 0 9.5 0.5t8.5 0.5q2 0 3 -0.5t3 -3.5l-3.5 -3.5t-2.5 -0.5h-0.5h-1.5h-4t-8 0.5t-7.5 0.5h-4.5h-1.5
t-3 -0.5t-3 -0.5h-2.5l-0.5 -0.5t-0.5 -1.5q0 -5 2.5 -7t6.5 -3t8 -1h7l3 -3q-1 -2 -3.5 -2.5t-4.5 -0.5q-6 0 -13.5 1t-12.5 5q-1 5 -1 8t-1 4.5t-3.5 2t-7.5 0.5q-1 0 -4 0.5t-6.5 0.5t-6.5 0.5t-4 0.5t-3 1t-2 3v0l1.5 1.5l0.5 0.5h33q0 2 0.5 4.5t1.5 3.5v32l-1 1
l-2.5 0.5t-6 0.5t-7 0.5t-5.5 0.5h-20q-2 0 -2 1v2zM143 226v1v1.5t0.5 3.5t1 3.5t1.5 2.5v0h1t2 -1.5t1 -2.5l2 -23q0 -3 -1 -3.5t-4 -0.5h-1h-2v3.5v5.5t-0.5 6t-0.5 4v0zM100 211h-1t-1 2v23q0 1 1 1h2h1h1q0 -1 0.5 -3t0.5 -4t0.5 -4.5l0.5 -2.5v-2q0 -3 -0.5 -6.5
t-4.5 -3.5zM56 191q0 2 1.5 2.5t3.5 0.5q6 0 11.5 -5t10.5 -11t9.5 -12.5t7.5 -10.5q1 0 2 -1l2.5 -2.5t3 -2.5l1.5 -1q1 0 2 -1.5t2.5 -3l2.5 -2.5l2 -2l1 -1.5l2 -3t2 -2.5t2 -1t4 2.5t6 5.5l5.5 5.5t2.5 3.5q0 2 -4 2.5t-10 1t-12 0.5h-8l-0.5 0.5t-0.5 1.5v0q0 2 1 3
t3 1h4h2h7.5t6.5 -0.5t7 -1t8 -1.5q1 -1 2.5 -1.5t2.5 -1.5v0h0.5h0.5q1 1 3 2t3 1l32 26h2q3 0 5 -1.5t2 -4.5v-1.5v-1.5q-12 -7 -24 -14.5t-24 -15.5q-4 -1 -7 -4.5t-6.5 -6.5t-6.5 -5.5t-7 -2.5q-3 0 -4 1.5t-3 3.5q-7 6 -13 13.5t-12.5 14.5l-13 14t-13.5 12
q-1 1 -2.5 2t-3.5 2t-3 2.5t-1 2.5zM90 112v22q0 3 3 3q1 0 3 -1t2 -2v-22l1 -1l1.5 -0.5t3 -0.5t3.5 -0.5t3 -0.5h3h4.5t4 -1t1.5 -2v-1q0 -1 -1 -1h-24q-1 0 -1.5 -2t-0.5 -3q0 -3 3.5 -4t5.5 -1q0 -1 2 -1t3.5 -1t3 -1t2.5 -1l1.5 -1.5t2 -3t1.5 -3t1 -2.5v-19
q0 -4 -3 -5.5t-7 -3t-8 -2t-5 -0.5q-1 -2 -1 -3v-3q0 -4 4 -5t8.5 -1.5t8.5 -1.5t4 -3l-0.5 -1.5l-0.5 -1.5h-24v-18q0 -1 -0.5 -1.5t-1.5 -0.5h-1v0q-1 0 -2 0.5t-1 1.5v17l-0.5 0.5l-1 1t-3 1t-4.5 0.5v0q-4 0 -6.5 -1t-6.5 -1q-1 0 -3 0.5t-2 2.5t1 3q3 1 6 1.5t6 0.5h6
t5 -1q2 1 2.5 2.5t0.5 2.5q0 5 -2 7t-5.5 2.5t-7.5 1t-7.5 2.5t-5.5 6.5t-2 13.5q0 8 4.5 12t10 6t10 3t4.5 3v2q0 2 -2 3h-5h-8t-7.5 0.5t-5.5 0.5t-4.5 0.5t-2.5 3.5q0 1 0.5 2t1.5 1h6q5 0 10 -1t11 -1l2 0.5l2 0.5zM132 116v0v1l0.5 0.5l0.5 0.5h61q2 0 2 -1.5v-2.5
v-1.5t-2 -1.5h-28v-12l3 -3h18l1 -1t2 -1q0 -1 0.5 -1.5l0.5 -0.5v-1v-1l-0.5 -0.5l-0.5 -0.5h-4h-4h-5h-4h-7t-11.5 0.5t-11.5 0.5h-7q-1 1 -1 2v2v1t1 1h16l1 0.5t1 1.5q1 0 1.5 0.5l0.5 0.5v14h-23l-0.5 1l-0.5 1v0.5v0.5zM72 80q0 -2 1.5 -3t4 -1.5t4.5 -0.5h4q3 0 4 2
t1 5t-0.5 4.5t-3.5 1.5q-1 0 -3.5 -0.5l-5 -1t-4.5 -2t-2 -4.5zM115 78q0 3 -2 5t-5 3t-6 1h-5v-4.5t1 -4.5q0 -1 1 -2l1 -1h13q1 0 1.5 1t0.5 2zM133 65q0 5 1 10.5t6 7.5q2 0 2.5 -1.5t0.5 -3.5t-0.5 -3.5t-2.5 -2.5v-3.5v-3.5q0 -3 0.5 -8t2 -9t4.5 -7.5t7 -3.5
q1 0 3 0.5t2 2.5v1l-3.5 7t-1.5 9q0 8 1 14.5t8 11.5q2 0 2.5 -1.5t0.5 -3.5q0 -5 -1.5 -10.5t-1.5 -11.5v-10q1 -4 3.5 -7t6.5 -3q3 0 3.5 0.5t0.5 3.5q0 6 -2 11.5t-2 11.5q0 3 1 6t3 6t4.5 5t5.5 2t3 -4q0 -2 -1.5 -4t-3 -5t-2.5 -6.5t-1 -7.5v-2q0 -1 0.5 -3l1 -4
t1.5 -4t1 -3l2 -2t2.5 -1.5t2.5 -1.5t1 -2q0 -3 -1 -3h-6h-11.5t-17 0.5t-16 1.5t-9.5 2q1 1 2.5 1.5t3 1.5t2.5 1.5t1 1.5q0 4 -1.5 6.5t-3 6t-3 6.5t-1.5 7zM72 65q0 -3 1.5 -4.5t3.5 -2t4.5 -1t4.5 -0.5t3.5 0.5t1.5 2.5q0 1 -0.5 1.5l-0.5 0.5q0 1 -0.5 3t-0.5 3h-7
h-2.5h-3.5t-3 -1t-1 -2zM98 62v-2q0 -2 1 -3h2.5h2.5q4 0 7.5 1.5t3.5 6.5l-0.5 1.5t-1.5 1.5h-13q-2 0 -2 -2.5v-3.5z" />
</svg>
