<?xml version="1.0" standalone="no"?>
<!DOCTYPE svg PUBLIC "-//W3C//DTD SVG 1.1//EN" "http://www.w3.org/Graphics/SVG/1.1/DTD/svg11.dtd" >
<svg xmlns="http://www.w3.org/2000/svg" xmlns:xlink="http://www.w3.org/1999/xlink" version="1.1" viewBox="-10 0 266 256">
   <path fill="currentColor"
d="M43 242q0 1 1.5 2t3.5 1h3h3q12 0 25.5 -1t25.5 -2q0 -1 1.5 -2.5l1.5 -1.5v-1q0 -3 -3 -4t-5 -1q-4 0 -8.5 1t-9.5 1v-6t0.5 -10t0.5 -10v-6q0 -1 -0.5 -4t-1.5 -4l2 -58q0 -2 2 -3t3 -1v0h1q1 0 2.5 1t2.5 1q3 0 6.5 -2t3.5 -6q0 -1 -1 -2t-3 -1q-1 0 -3.5 -0.5l-5 -1
t-5 -0.5h-3.5v-14l0.5 -1l0.5 -1q2 -1 3.5 -2t3.5 -1.5l4 -1t2 -1.5v0v-1q0 -1 -0.5 -2.5t-1.5 -1.5h-7h-6q-2 0 -4 0.5t-3 2.5t-2 6v3.5v5.5v5.5v3.5t-2 2.5t-3 1.5h-3.5t-5.5 0.5t-6 0.5h-4q-2 1 -2.5 2.5t-0.5 3.5q0 3 1.5 3.5t3.5 0.5q5 0 9.5 -1t8.5 -1q1 0 2.5 -0.5
t1.5 2.5v94l-3 4q-1 0 -4 0.5t-6.5 0.5t-6.5 0.5t-4 0.5q-2 0 -4 1t-2 5zM119 238l0.5 2t1.5 2h80q1 0 3.5 -2.5t2.5 -4.5v-1l-1 -1.5t-2 -2.5q-3 0 -7.5 0.5t-9.5 0.5t-10 -0.5t-8 -1.5v-7q0 -2 -0.5 -4.5t0 -5t1.5 -4.5t4 -3h3.5t5 -0.5t5 -0.5h3.5q2 -1 3 -2.5t1 -3.5
q0 -1 -0.5 -2t-1.5 -2h-6q-4 0 -7.5 1.5t-6.5 1.5t-4 -2.5t-1 -5.5v-7t-0.5 -7t-2 -5t-3.5 -2h-1v0q-1 0 -2 1.5l-1 1.5v22l-1 0.5l-1 0.5q-2 2 -5.5 2.5t-6.5 0.5t-6 1t-3 3v1q1 1 1.5 2l0.5 1h19l3 4v20l-1 0.5t-2 0.5l-1.5 0.5t-3.5 1t-3.5 0.5h-2.5t-4.5 0.5l-7 1
t-6.5 0.5h-5q0 1 -1 2zM57 150h-2t-1 1v65q0 2 1 2h2q2 0 3.5 -1.5t2 -4t0.5 -5.5v-4v-7v-8t-0.5 -13t-0.5 -13v-9q-1 -2 -2 -2.5t-3 -0.5zM92 170v12q0 5 0.5 10t0.5 10t1 12h1q3 0 4 -2t1.5 -4.5t1 -5.5t0.5 -4t-0.5 -6t-0.5 -10.5t-0.5 -11t-0.5 -8.5v-2v-4.5t-0.5 -4.5
t-2.5 -3v0h-1q-1 0 -2 1t-1 2.5t-0.5 3t-0.5 2.5v13zM169 138v11.5t2 10.5t5.5 8t10.5 3q11 0 16 -2.5t7 -7.5t2 -13v-19v-4v-5v-4v-2l-5 -6h-32q-2 0 -3.5 4t-2 9t-0.5 10v7zM115 127q0 4 -0.5 11t0.5 13.5t4 11.5t9 5q11 0 17.5 -1t9.5 -5t3.5 -11.5t0.5 -19.5v-9
t-1.5 -6.5t-4.5 -4t-8 -1.5h-10q-5 0 -9.5 1.5t-7.5 5t-3 10.5zM177 152v-7t5 -3q2 0 3 1t1 3v4v3v2.5t-0.5 3.5t-1.5 3t-2 0q-4 -1 -4.5 -3.5t-0.5 -6.5zM124 143q6 0 8 1t2 7q0 3 -1 6.5t-5 3.5q-1 0 -1 -1q-1 0 -2 -1.5l-1 -1.5v-14zM196 159v-15q0 -1 1.5 -1.5l1.5 -0.5
q2 0 2.5 2t0.5 4q0 3 -1 7t-3 5zM142 152q0 -5 2 -6t6 -1v3t-0.5 4t-1.5 3.5t-2 1.5q-2 0 -3 -1.5t-1 -3.5zM122 134q0 -2 0.5 -4.5t1.5 -5t2.5 -4t3.5 -1.5t2.5 1.5l1 3t0.5 3v2.5q0 3 -1 5.5t-4 2.5h-4.5t-2.5 -3zM142 132v-2q0 -1 0.5 -5.5t0.5 -5.5h2q3 0 4 3t1.5 6
t0.5 6v4q-3 0 -6 -1t-3 -5zM183 114h2t1 2v18h-11q0 -2 0.5 -5.5l1 -7t2 -5.5t4.5 -2zM199 116q1 0 1.5 1.5t1 3.5l1 4t0.5 3q0 5 -2.5 5.5t-6.5 0.5v-3t0.5 -6.5t1.5 -6t3 -2.5zM168 27h-6.5t-11.5 1t-11 3t-5 5v40q0 6 3.5 11.5t7.5 8.5h5.5h5.5h8.5t11 -1.5t9.5 -4.5
t4 -9v-41v-1.5t-0.5 -3t-1 -2.5t-1.5 -2l-9 -3t-9 -1zM164 77q0 -5 1.5 -7.5t6.5 -2.5q6 0 6 7q0 3 -0.5 5.5t-1.5 4.5t-3 3.5t-4 1.5t-3 -1.5t-1.5 -3.5t-0.5 -4v-3zM43 82v3t2 2h1q1 -1 2.5 -2t2.5 -2q3 -7 6 -12.5t6 -10.5t6.5 -10t8.5 -12l0.5 -0.5t0.5 -1.5h1
q1 0 3.5 3.5t5 8.5t6.5 11t7 11.5t6 10t5 6.5q2 0 2.5 -1.5t0.5 -3.5l-2 -4.5t-5.5 -11.5t-8 -15t-8.5 -15t-7 -11.5t-5 -4.5l-2.5 4t-7 10t-9 13l-9 14t-7 12.5t-2.5 8.5zM143 77v-3.5v-2.5q2 -3 4 -3.5t4 -0.5t2.5 1t1 3t0.5 3.5v3.5v7q-1 2 -3 2h-3h-2h-2q-2 -2 -2 -5v-5
zM67 72v0.5v0.5l0.5 0.5l0.5 0.5h20q2 0 3 -1.5t1 -3.5t-1 -3t-2 -1h-3h-2h-5q-2 0 -5 0.5t-5 2t-2 4.5zM151 36q1 0 2.5 0.5t1.5 1.5v18q0 1 -1 1.5t-2.5 0.5h-2.5h-2h-2t-2 -2v-14q0 -1 1 -2t2.5 -2t3 -1.5zM172 36q3 0 4.5 1t1.5 7v3.5v4.5t-0.5 3l-0.5 1h-13v-6
q0 -4 0.5 -7t2.5 -5t5 -2z" />
</svg>
