<?xml version="1.0" standalone="no"?>
<!DOCTYPE svg PUBLIC "-//W3C//DTD SVG 1.1//EN" "http://www.w3.org/Graphics/SVG/1.1/DTD/svg11.dtd" >
<svg xmlns="http://www.w3.org/2000/svg" xmlns:xlink="http://www.w3.org/1999/xlink" version="1.1" viewBox="-10 0 266 256">
   <path fill="currentColor"
d="M57 246q1 5 6 5v0q2 -1 3.5 -1.5l1.5 -0.5v-153l2 -2q1 0 5.5 -0.5t9 -1.5t8.5 -2t6 -1q1 0 4 -0.5t6 -1.5t5.5 -2.5t3.5 -3.5q2 -3 2 -6t1 -8l2 -6t1 -7v-1v-8t-0.5 -11.5t-0.5 -12v-7.5l-2.5 -2.5l-2.5 -2.5q-2 0 -3 1.5t-2 3.5t-1.5 4t-0.5 3q-2 0 -6.5 1t-10 2
t-10 2.5t-6.5 2.5q-1 0 -2.5 0.5t-3 1.5t-2.5 1.5t-2 0.5q0 1 -0.5 3l-0.5 2q-1 1 -3 4.5t-2 5.5q-3 17 -4 34.5t-1 35v35v34.5v59zM191 245q0 2 0.5 4t3.5 2q1 0 2.5 -0.5t1.5 -2.5v-186v-5t-0.5 -8t-0.5 -8v-6q-1 -5 -5 -8t-9 -4t-10.5 -1.5t-9.5 -0.5q-2 -1 -3.5 -2.5
t-2.5 -3.5t-2 -3t-3 -1h-2t-1 2v11t-0.5 9.5t-1 9.5t-0.5 10v12q0 5 1.5 9.5t4.5 7.5t10 4q1 0 4.5 0.5t7.5 1t7.5 1t4.5 0.5l2 2v6.5t0.5 17.5t0.5 25t0.5 28t1 27t0.5 22v4q0 6 -1 12t-1 12zM131 170v5v6v6v3q0 1 -0.5 2.5t-0.5 3t-0.5 3.5l-0.5 2q0 1 -1.5 2.5l-1.5 1.5
h-43q-2 0 -2 2.5v3.5h93q2 0 2.5 -1t0.5 -2v-2.5t-2 -1.5h-35v-49h29q2 0 2.5 -1t0.5 -2v-2.5t-2 -1.5h-30v-27q0 -1 2 -3t3 -2h29q1 0 1.5 -2t0.5 -3l-0.5 -0.5l-0.5 -0.5l-8 -2l-79 2q-7 0 -7 6h50v32h-39q-5 0 -5 4q0 3 4 3h36l4 2v1.5v3.5v4v4zM68 76q0 -5 2.5 -7.5
t6 -3.5t8 -1.5t7.5 -1.5q5 -1 8.5 -3t8.5 -2h2.5t1.5 2l0.5 3l0.5 3q0 8 -4.5 11.5t-10.5 5.5t-13 2.5t-12 0.5q-3 0 -4.5 -2.5t-1.5 -6.5zM156 53l2.5 0.5t5.5 0.5h5h3q2 0 5 0.5t5.5 1t4.5 1t3 0.5l1 2v21q0 1 -2 1h-2q-6 0 -12.5 -1t-11.5 -2q-4 -1 -5.5 -4t-2 -7t0 -8
t0.5 -6zM71 52q0 -7 4 -11.5t10 -6.5t12.5 -3t11.5 -1q4 0 5 3t1 7q0 6 -5 9q-2 1 -5.5 2t-7.5 2t-7.5 1.5t-5.5 1.5q-1 0 -4.5 0.5t-4.5 0.5q-4 -2 -4 -5zM156 40v-5t2 -5h7q3 0 8 0.5t9 1.5t6.5 3.5t2.5 7.5v2t-1 3h-7h-8q-2 0 -5 -0.5t-5.5 -0.5t-4.5 -0.5l-2 -0.5l-2 -2
v-1.5v-2.5z" />
</svg>
