<?xml version="1.0" standalone="no"?>
<!DOCTYPE svg PUBLIC "-//W3C//DTD SVG 1.1//EN" "http://www.w3.org/Graphics/SVG/1.1/DTD/svg11.dtd" >
<svg xmlns="http://www.w3.org/2000/svg" xmlns:xlink="http://www.w3.org/1999/xlink" version="1.1" viewBox="-10 0 266 256">
   <path fill="currentColor"
d="M50 244q0 2 1.5 4t3.5 2h1.5h0.5q2 -1 4.5 -3.5t2.5 -3.5v-143q0 -1 3 -2t8.5 -2.5t11.5 -3.5t11.5 -4t10 -4.5t6.5 -4.5q2 -3 2.5 -8t1 -10.5t0 -11t-0.5 -9.5v-13t-2 -14l-1.5 -1.5l-1.5 -1.5h-1q-2 0 -3 1.5l-2 3t-1.5 3.5t-2.5 3q-6 1 -13 2t-13.5 2.5t-12.5 4.5
t-10 8q-2 20 -3 40t-1 40q0 1 0.5 4.5t1.5 3.5v107l-1.5 6t-0.5 5zM202 248q0 1 1 1.5t2 0.5q3 0 4.5 -2.5t2 -6t0 -7t-0.5 -5.5q0 -19 -1 -39l-2 -40v-30v-30.5t-1 -30.5t-4 -29q-2 -4 -6 -5.5t-8.5 -1.5h-10t-10.5 0.5t-9 -0.5t-7 -3q0 -1 -0.5 -2.5t-1 -3.5t-1.5 -3
t-2 -1h-1l-1 0.5l-1 0.5q-2 4 -2.5 8t-0.5 8v0.5v0.5q0 1 0.5 2.5t0.5 4t0.5 4.5l0.5 2v7.5t0.5 11.5t0.5 11.5v7.5q1 3 3.5 4.5t4.5 3.5q21 5 43 3q0 1 1 1.5l1 0.5q0 1 0.5 5t0.5 5q1 30 1.5 60.5t2.5 60.5v5.5v7.5v7.5v4.5zM124 239q0 3 0.5 3.5t4.5 0.5q2 0 4 -2l3 -3
v-54v-2.5t0.5 -4t0.5 -4v-2.5h4q8 0 12.5 7t6.5 17t2.5 20t-0.5 15q1 3 2 4t3 1t3.5 -1.5t1.5 -4.5v-0.5v-0.5v-12t-1 -16.5t-3 -16t-6 -11.5q-5 -4 -9.5 -6t-8 -3.5t-6 -5t-2.5 -10.5v-6q8 -1 15 -3t12 -6t8 -10.5t3 -15.5v-6q-1 0 -2 -0.5t-2 -0.5v-0.5t-1 -0.5
q-2 0 -3 2.5t-2.5 6.5l-3 8t-3.5 8t-5 6.5t-7 2.5q-1 0 -3 -0.5t-3 -0.5t-1.5 -0.5l-0.5 -0.5v-35q0 -1 -2.5 -1h-2.5h-3.5t-2.5 3v21v5q0 2 -0.5 4t-1.5 3t-3 1q-8 0 -12 -4.5t-6.5 -10t-4 -10t-3.5 -4.5t-3.5 1t-1.5 3v1l5 15t5.5 10t9.5 6t16 3v6v6.5t-2 5.5
q-8 4 -13.5 6t-8.5 5.5t-5 8.5t-4 13q0 2 -0.5 7.5l-1 11t-1 10.5t-0.5 7v4q0 3 0.5 4t3.5 1q2 0 3 -4t2 -10t1.5 -13t1.5 -14t3.5 -13t5.5 -9q2 -2 5.5 -4.5t6.5 -2.5q2 0 3 2t1 4.5t0.5 5t0.5 3.5q0 15 -2 29t-2 28zM63 76q0 -1 0.5 -3.5t0.5 -3.5q1 -2 6.5 -4t12.5 -4
t13.5 -3t8.5 -1v19q0 2 -6 4t-13 3.5t-12.5 2.5l-5.5 1q-2 0 -3 -1.5t-1.5 -3.5t-0.5 -4v-2zM159 81q-5 -2 -6.5 -6t-1.5 -8v-6q0 -2 2.5 -2h3.5q8 0 18 0.5t17 1.5q4 1 4.5 3.5t0.5 5.5q0 7 -1.5 10.5t-9.5 3.5h-2q-2 0 -5.5 -0.5t-7.5 -1t-7.5 -1t-4.5 -0.5zM65 47
q0 -5 4 -8.5t9.5 -5t11.5 -2t10 -0.5q3 0 4.5 1.5t2.5 4.5t1 5v6v2t-2 1q-9 0 -18 1.5t-18 3.5q-2 -1 -3.5 -3.5t-1.5 -5.5zM159 31l33 4q2 0 3.5 1.5t1.5 4.5q0 6 -1 9t-6 3h-15t-14 -2q-2 0 -4.5 -1t-4 -1.5l-1.5 -0.5v-13q0 -1 1 -1.5t2 -0.5t3 -1z" />
</svg>
