<?xml version="1.0" standalone="no"?>
<!DOCTYPE svg PUBLIC "-//W3C//DTD SVG 1.1//EN" "http://www.w3.org/Graphics/SVG/1.1/DTD/svg11.dtd" >
<svg xmlns="http://www.w3.org/2000/svg" xmlns:xlink="http://www.w3.org/1999/xlink" version="1.1" viewBox="-10 0 266 256">
   <path fill="currentColor"
d="M47 244v0q0 3 1 5t4 2q4 0 6 -2.5t2.5 -5.5t0.5 -6v-5t0.5 -6t0.5 -10v-12.5t0.5 -12.5t0.5 -10.5v-5.5v-3q0 -3 -1 -7t-1 -8q0 -15 1 -28.5t1 -28.5q0 -1 7.5 -3t16.5 -4.5t17 -5t10 -3.5q3 -2 4.5 -9.5t2 -16.5t0.5 -17v-11v-9q-2 -2 -3 -3.5t-4 -1.5q-2 0 -3 1.5
t-2.5 4t-3 4.5t-2.5 3q-2 1 -4 1.5t-4 0t-4 -0.5t-4 1l-2.5 1t-5.5 2t-6.5 2.5t-4.5 1.5q-7 3 -10 6.5t-4 7.5t-0.5 9t-0.5 11v4.5t-0.5 6t-0.5 6.5v4v12v18v22v21v18v12q0 2 -0.5 8.5l-1 13t-1 12.5t-1.5 8l-0.5 2t-0.5 3v1zM196 108q0 35 2 70.5t2 71.5q2 0 5.5 -1t3.5 -5
l-1 -54v-7v-15t-0.5 -23.5t-1 -28t-1 -27.5t-0.5 -23.5t-1 -15.5q0 -3 -2 -6.5t-4 -5.5q-9 -2 -16 -3.5t-15 -2.5q-4 0 -6.5 -1.5t-3 -4t-0.5 -4.5t-0.5 -4.5t-1.5 -3.5t-4 -1q-1 0 -2.5 1t-1.5 2.5t-0.5 3.5t-0.5 3q0 3 1 6t1 5v3q0 2 -0.5 7.5t-0.5 11t-0.5 11t-0.5 7.5
q2 7 6 10.5t10 5t12 1.5t11.5 0.5t9 2t3.5 6.5v2v1q0 1 -1 2.5t-1 2.5zM98 211q2 5 6.5 7.5t10 3t11 0.5h9.5q12 0 19.5 -2t11 -6t4 -11.5t0.5 -19.5v-17q0 -1 -1 -2.5t-2 -1.5l-1 0.5t-2 1.5q-1 0 -1.5 1l-0.5 1v13l-3 1h-2h-4.5h-5.5h-4q-3 0 -7.5 0.5t-9.5 0t-9.5 -0.5
t-8.5 -1q-2 -1 -2.5 -3t-0.5 -4.5t-1 -4.5t-3 -2t-3 1.5t-1.5 3t0 3t0.5 3.5v9t0.5 7.5t1 8t-0.5 10.5zM116 211q-5 -2 -6.5 -6t-1.5 -9v-2v-3q5 0 9.5 -0.5t8.5 -0.5h8h10h15q2 0 2 1.5v2.5q0 8 -4.5 13t-12.5 5h-14t-14 -1zM96 145q0 4 2.5 5t6.5 1h51q4 0 6 -1t3 -2.5
t1.5 -3t1.5 -1.5h1q3 1 4.5 2t2.5 1.5l2 1t3 0.5t3.5 -0.5t2.5 -2.5q0 -1 -1 -3l-1 -2q-8 -7 -15.5 -12t-14.5 -11q-4 -2 -6.5 -5l-5 -6t-6 -5t-8.5 -2q-1 0 -5.5 3.5t-11.5 8t-14.5 10.5t-13.5 11t-10.5 8.5t-4.5 4.5q0 3 1.5 4t3.5 1h2h1q2 -2 7 -6t10.5 -8.5t10 -8
t6.5 -5.5q2 -1 4.5 -3l5 -4t5 -3t4.5 -1h2q1 0 2.5 1.5t3.5 3l4 3t3 2.5q1 0 4 3t6.5 6t6 5.5t2.5 3.5v0.5v0.5l-0.5 0.5t-1.5 0.5l-32 1l-30 -1q-3 0 -3.5 1.5t-0.5 2.5zM64 80q0 -1 0.5 -4t1.5 -4q2 -1 8 -3t13 -3.5t13 -2.5t10 -1q0 7 -4.5 11.5t-11 7.5t-13.5 4.5
t-13 1.5q-3 0 -3.5 -2.5t-0.5 -4.5zM156 71q0 -2 1.5 -3t3.5 -2h2h3.5h3.5h2q3 0 7.5 -0.5t8 0t6 3t2.5 7.5q0 1 -1 3.5t-2 4.5h-4q-3 0 -8.5 -0.5t-11 -1.5t-9.5 -3.5t-4 -7.5zM103 38l1.5 0.5t3 1.5t2.5 1.5t1 1.5q0 2 -1 5.5t-4 4.5q-2 1 -6.5 1.5t-9.5 1.5t-9.5 2
t-6.5 1q-1 1 -4 1h-4q0 -7 4 -10.5t10 -6t12 -3t11 -2.5zM156 47v0v0q0 -1 0.5 -2t1.5 -2h11q1 0 5.5 0.5t8.5 1t7 2.5t3 6q0 2 -1.5 3.5t-3.5 1.5h-8t-10.5 -1t-9.5 -3.5t-4 -6.5z" />
</svg>
