<?xml version="1.0" standalone="no"?>
<!DOCTYPE svg PUBLIC "-//W3C//DTD SVG 1.1//EN" "http://www.w3.org/Graphics/SVG/1.1/DTD/svg11.dtd" >
<svg xmlns="http://www.w3.org/2000/svg" xmlns:xlink="http://www.w3.org/1999/xlink" version="1.1" viewBox="-10 0 266 256">
   <path fill="currentColor"
d="M59 239v1.5v3.5t0.5 3t1.5 1h1l3 -3l3 -3q-1 -18 -0.5 -36.5t1.5 -36.5t1.5 -36t0.5 -36q0 -3 3.5 -4.5t8.5 -3t10.5 -3t11 -4t9 -5.5t4.5 -8v-6t0.5 -10.5t0.5 -10.5v-7v-10v-10q0 -1 -1.5 -1.5t-2.5 -0.5q-2 0 -2.5 1.5l-1 3l-1 3t-3.5 2.5q-1 0 -4 0.5t-7 1t-7 0.5
t-5 1q-6 1 -9.5 3.5t-5.5 6.5t-3.5 9t-2.5 11q0 1 -0.5 5t-1 8.5t-1 8.5t-0.5 5q1 40 0 78.5t-1 77.5zM190 235v4q0 2 0.5 4t1.5 3.5t3 1.5q1 0 2 -1.5t1.5 -3t0.5 -3.5v-3v-10q0 -24 -0.5 -46.5t-0.5 -46.5q0 -13 1 -27t1 -28v-12q0 -5 -0.5 -10.5t-0.5 -11t-1 -12.5
q-4 -4 -9 -7t-11 -4t-12.5 -1.5t-11.5 -0.5q-1 -1 -1.5 -2t-0.5 -2t-0.5 -2t-1.5 -1t-2 0.5t-2 1.5v2.5t-0.5 3.5t-0.5 3.5v2.5v1v2v3t1 3v43q0 4 3.5 6t8.5 3t11 1.5t11 1t8.5 2.5t3.5 5q0 13 -1 25t-1 25q0 18 1 36t1 36q0 4 -1 7.5t-1 7.5zM95 213l2 2l2.5 2.5l3 3
l1.5 1.5l3 2h15h12t13.5 -1t12 -3.5t8.5 -7.5q1 -11 2.5 -20.5t1.5 -19.5v-6q0 -1 -1 -1h-2q-2 0 -3 1t-1.5 3t-1 3.5t-1.5 2.5q-2 0 -5 0.5t-6 0.5t-6 0.5t-4 0.5h-3h-2q-2 0 -5.5 -0.5t-5.5 -2.5l-7 -12l-0.5 -0.5t-1.5 -0.5t-2 1.5t-1 2.5q0 10 5.5 14t13 5t16 0.5
t14.5 -0.5q1 1 1 3v2q0 3 -3 4.5t-6.5 2t-8 0t-7.5 -0.5q-9 0 -17.5 -0.5t-19.5 -1.5q-5 -5 -5 -11q0 -7 1 -14l-1 -1l-1 -1h-3.5h-2.5q0 13 2 24t4 23zM101 206q0 -1 0.5 -3t1.5 -2h48q2 0 5.5 1.5t3.5 4.5t-2.5 4.5t-6.5 2.5t-7 1.5t-5 0.5h-2h-3h-4h-3h-7t-8.5 -1
t-7.5 -3t-3 -6zM97 139q3 5 5.5 8t6.5 4.5t8 2t10 0.5q3 0 9 -0.5t12.5 -2t11.5 -4.5t5 -8v-27q0 -5 -3.5 -8t-8 -4t-9.5 -1.5t-8 -0.5q-6 0 -13 0.5t-13 3t-10.5 7.5t-4.5 13v0q0 1 0.5 3.5t0.5 5t0.5 5t0.5 3.5zM103 134l1.5 -2t2.5 -2q4 0 9 -0.5t10.5 -1t10.5 -1
t10 -0.5h1q1 0 4.5 0.5t4.5 1.5v2q0 6 -2.5 9.5t-6.5 5.5t-9 2h-10q-3 0 -7.5 -0.5t-9 -2t-7.5 -4t-2 -7.5zM103 116q1 -4 5.5 -6t9.5 -3t10.5 -1h8.5h4.5h4.5q4 1 7.5 3.5t3.5 7.5q0 1 -0.5 2t-2.5 2h-8.5t-13.5 0.5t-13 0.5h-9h-2q-3 0 -4.5 -1.5t-0.5 -4.5zM71 68
q0 -1 1 -2.5t2 -1.5q7 -3 16 -6.5t16 -3.5q2 0 4 0.5t2 2.5q0 7 -3 11.5t-7.5 7.5t-11 4.5t-12.5 1.5h-4l-2 -2v-1.5t-0.5 -3.5t-0.5 -4v-3zM151 60v-1q0 -1 0.5 -2t1.5 -1h31q3 0 4.5 1.5t2 3.5t1 4.5t0.5 3.5v7t-3 6h-10q-6 0 -11 -1t-9 -3.5t-6 -6.5t-2 -11zM75 44
q0 -4 4 -6.5t9 -4.5t10 -2.5t8 -0.5t4.5 3.5t1.5 5.5q0 3 -1 5.5t-4 3.5q-1 1 -4.5 1.5t-8 1t-8 0.5h-4.5l-1 1h-1q-3 0 -4 -2.5t-1 -5.5zM162 48q-1 0 -3 -1t-4 -2.5t-2 -2.5v-10h28q2 0 3.5 1t2.5 3t1.5 4t0.5 3q0 3 -0.5 5t-3.5 2h-2h-4t-6.5 -0.5t-6.5 -1t-4 -0.5z" />
</svg>
