<?xml version="1.0" standalone="no"?>
<!DOCTYPE svg PUBLIC "-//W3C//DTD SVG 1.1//EN" "http://www.w3.org/Graphics/SVG/1.1/DTD/svg11.dtd" >
<svg xmlns="http://www.w3.org/2000/svg" xmlns:xlink="http://www.w3.org/1999/xlink" version="1.1" viewBox="-10 0 266 256">
   <path fill="currentColor"
d="M54 47v203q0 2 1.5 2.5t2.5 0.5q3 0 4 -2.5t2 -4.5v-24q0 -12 -1 -24.5t-1 -24.5v-4v-4t0.5 -4l0.5 -2v-5t0.5 -8.5t0.5 -8.5v-5v-9.5v-8.5t0.5 -8t1.5 -8q4 -4 11.5 -4.5t13.5 -1.5q11 -2 17 -7t8.5 -11.5t2.5 -15v-19.5v-4v-7q0 -4 -0.5 -7t-0.5 -5q1 -2 -0.5 -2.5
t-2.5 -0.5t-3.5 0.5t-2.5 2.5v11q0 1 -0.5 1.5t-1.5 0.5q-3 1 -5 1.5t-4 0.5h-4.5t-5.5 1q-1 0 -3 0.5t-3.5 1t-3.5 1l-2 0.5q-1 0 -3.5 0.5l-5 1t-5 0.5h-3.5zM191 239v2t0.5 4.5t1.5 4t3 1.5t3 -1.5t1.5 -3t0.5 -4v-3.5v-7v-15t-0.5 -22.5t-0.5 -27t-0.5 -27t-0.5 -22.5
v-15v-47l-5 -21q-1 -3 -4.5 -4t-8 -2t-10 -1t-10.5 -0.5t-8 -1t-3 -1.5v-2v-4v-3v-3q-1 -4 -5 -4q-3 0 -4.5 3t-1.5 6q0 15 1 29t1 31q1 4 4.5 6.5t7.5 3.5t8.5 1.5t8.5 0.5t6 -0.5t5 -0.5q4 0 5.5 1.5t2 4t0.5 5v5.5q0 1 0.5 6t0.5 11t0.5 11t0.5 6v11.5v17.5v21v21v17v12z
M143 203q0 9 -3 17.5t-3 17.5q6 0 8.5 -3.5t3.5 -8t1 -10v-9.5q0 -7 -2 -14.5t-2 -14.5q0 -3 1.5 -4.5t3.5 -2.5l4 -2t3 -1q2 1 3 3.5t2 4.5q0 3 1 8.5t2 11.5t1.5 11t0.5 6t0.5 2.5t0.5 3.5t-0.5 3.5t-0.5 2.5q1 0 2 1t2 1v0v0q4 0 4.5 -3t0.5 -5v-5.5t-1 -10.5t-1.5 -12.5
t-1.5 -12.5t-2.5 -10t-2.5 -5q-2 -2 -4 -2.5t-5 -0.5t-5 1t-4.5 2.5l-5 3t-5.5 1.5q-2 0 -6 -1t-8.5 -2.5t-7.5 -3.5t-3 -3q0 -2 1 -4t2.5 -4.5t3.5 -4t4 -1.5h2q2 0 7.5 0.5l11 1t10.5 0.5h7l2 0.5t2 1.5h1v0l2 -2l2 -2l-4 -2q-10 -1 -19.5 -2.5t-19.5 -1.5q-1 -1 -1.5 -2
t-0.5 -2l0.5 -1.5t1.5 -2.5l0.5 -1l0.5 -1h37q2 0 2.5 -1t0.5 -3v-1.5v-0.5l-32 -3q-1 0 -2.5 -1t-2.5 -2v0q0 -4 3 -6t6 -2h5.5h7.5t7.5 0.5t4.5 0.5h1q1 0 3.5 -1t1.5 -3q0 -1 -2.5 -3t-3.5 -2h-50q-7 0 -13.5 2.5t-11.5 7t-7.5 11t-2.5 13.5t2 11.5t5 7t5.5 4.5t2.5 4
q0 4 -4 7t-9 5.5t-9 5t-4 6.5q0 1 2 1h2q6 0 10.5 -3.5t8 -7.5t7 -7.5t8.5 -3.5q2 0 3 2t1 3q0 2 -0.5 3l-1.5 3q-1 0 -3 2.5t-4.5 4.5t-4.5 4t-2 3v1q0 2 1.5 2h2.5q4 0 7 -3t5.5 -6.5t5 -6.5t6.5 -3q2 0 4.5 1t2.5 4v1v0q-1 3 -4 5.5t-5.5 5t-5 4.5t-3.5 3q-1 2 -2.5 4.5
t-3 5.5t-2.5 5.5t-2 3.5q-1 0 -1.5 1t-1.5 2t-2 1.5t-1 1.5v0q0 3 2 3h3q3 0 5.5 -3t6 -7t6.5 -9.5t6 -9.5t5.5 -7t4.5 -3q3 0 4 2.5t1.5 5t0.5 5.5v4zM95 148v-3.5t3 -1.5h3t4 0.5t3.5 1.5t1.5 3t-2.5 4.5t-5.5 2.5t-5 -2.5t-2 -4.5zM89 133q0 -1 0.5 -4t1.5 -3h26
q2 0 2.5 1t0.5 2q0 2 -2 5.5t-4 3.5h-21q-2 0 -3 -2t-1 -3zM100 116q0 -3 2 -5t4.5 -2.5t5.5 -1t5 -0.5q4 0 6 1.5t2 6.5q0 3 -2 3.5t-5 0.5h-5t-6 -0.5t-5 -1t-2 -1.5zM64 86l2 -14l1 -2q2 0 6 -1t8.5 -2l9 -2t6.5 -2l5 -2l1 -1l0.5 0.5l0.5 0.5l1 0.5t2 0.5v5q0 5 -1.5 8
t-4 4t-6 2t-7.5 2l-10.5 3.5t-10.5 1.5l-1.5 -0.5t-1.5 -1.5zM150 75v-10q0 -1 1 -2t2.5 -1.5t3.5 -0.5h2h1h1t2.5 0.5t2.5 0.5h1h17q4 2 4.5 6t0.5 8v2.5v1.5l-3 2h-7q-3 0 -6.5 0.5t-7.5 0t-7.5 -1t-5.5 -2.5l-0.5 -1.5l-0.5 -1.5l-0.5 -0.5zM107 37v15q0 1 -6 3t-13.5 3
t-14 2t-8.5 1q0 -8 4 -12.5t10.5 -7t13.5 -3.5t14 -1zM162 36q6 0 10.5 0.5t8 2.5t5.5 5t2 10h-5t-9 -0.5t-9 -0.5h-5q-3 0 -6.5 -0.5l-3.5 -0.5v-13q0 -1 1.5 -2t3.5 -1h4h3z" />
</svg>
