<?xml version="1.0" standalone="no"?>
<!DOCTYPE svg PUBLIC "-//W3C//DTD SVG 1.1//EN" "http://www.w3.org/Graphics/SVG/1.1/DTD/svg11.dtd" >
<svg xmlns="http://www.w3.org/2000/svg" xmlns:xlink="http://www.w3.org/1999/xlink" version="1.1" viewBox="-10 0 266 256">
   <path fill="currentColor"
d="M133 224v21q0 3 1 3.5t3 0.5q4 0 6 -3t2 -7q0 -1 -0.5 -4t-0.5 -5v-79q-2 -7 -2 -12.5v-11.5v-12l3.5 -3.5t3 -2t3.5 -1t5 -0.5q1 0 4 0.5l3 0.5q1 0 1.5 1t0.5 2q1 7 1 15v18t1.5 17.5t5 15t9.5 10.5t17 4q3 0 6 -1t3 -6q0 -3 -1 -5q-6 0 -11 -1t-9 -3.5t-7 -6.5t-4 -10
v-12.5v-19t-0.5 -22t-0.5 -22v-19v-12.5v-1v-1l0.5 -1.5l0.5 -1.5v-1v-1q0 -1 -0.5 -4.5l-1 -7t-1 -6.5t-0.5 -5q-1 -3 -3.5 -4.5t-5.5 -2t-6 0t-5 0.5h-2h-4h-2.5h-1.5q-3 1 -6.5 4.5t-3.5 6.5v73q0 1 -1 1.5t-2 0.5h-16q-1 0 -2 1.5t-2 1.5v1q0 3 2 4.5t5 1.5t6 -1t7 -1
h0.5h0.5q1 1 1.5 3.5t0.5 3.5zM47 240q1 2 1.5 2h1.5q2 0 4 -0.5t2 -2.5v-35q10 1 19 -1t17 -8q1 -1 2.5 -6t3 -11t2.5 -11t1 -7q-4 0 -7.5 0.5t-6.5 3.5h-27l-3 -3v-13l1 -2q2 0 5.5 -1t7 -1.5t7 -1.5t4.5 -1q5 -1 7.5 -3.5t3.5 -6t1.5 -7t2.5 -7.5q0 -1 1 -2.5t1.5 -3
t1.5 -2.5t1 -2q0 -3 -2 -4t-5 -1l-1 0.5t-2 1.5q-1 0 -5 0.5t-8.5 1t-8 1t-5.5 0.5h-3q-3 0 -4 -1.5t-1 -4.5t1.5 -6.5t4.5 -3.5l28 -5q2 0 3 -4t2.5 -9.5t3.5 -10.5t7 -7v-0.5v-1.5q0 -3 -2 -3h-4q-9 0 -17.5 1.5t-16.5 1.5h-5q-2 -2 -3 -5t-1 -5q0 -5 3.5 -7.5t7.5 -4
t9.5 -2.5t10 -2t7.5 -2t3 -4q0 -2 -1 -2.5t-3 -1t-4 -0.5h-2h-3t-2 1q-1 0 -4 0.5t-6.5 1.5t-7 1.5t-4.5 0.5q-3 1 -5 3.5t-3.5 6t-2 6.5t-1.5 6q1 46 -1 92t-2 93v11zM57 188q0 -6 2 -9.5t5.5 -5t8 -1.5h10.5h2t2 1t1 3v2q0 5 -2 8t-5 4.5t-7 2t-8 0.5q-2 0 -5.5 -0.5
t-3.5 -4.5zM58 133v-3v-3q0 -5 2.5 -7.5t6 -4t8 -1.5h8.5q3 0 4 2.5t1 4.5q0 5 -2.5 8t-5.5 4.5t-7 2t-8 0.5h-4t-3 -3zM142 81v-21v-9t0.5 -11.5t3 -10t7.5 -4.5q4 0 8.5 2.5t4.5 7.5v59l-0.5 1.5t-1.5 1.5q0 1 -0.5 1.5l-0.5 0.5h-19l-2 -4v-14zM60 73q0 -5 2 -7t5 -3
t6.5 -1.5t6.5 -0.5h9q2 3 2 5q0 5 -2 8t-4.5 4.5t-6.5 2t-7 0.5h-9l-1.5 -4.5t-0.5 -3.5z" />
</svg>
