<?xml version="1.0" standalone="no"?>
<!DOCTYPE svg PUBLIC "-//W3C//DTD SVG 1.1//EN" "http://www.w3.org/Graphics/SVG/1.1/DTD/svg11.dtd" >
<svg xmlns="http://www.w3.org/2000/svg" xmlns:xlink="http://www.w3.org/1999/xlink" version="1.1" viewBox="-10 0 266 256">
   <path fill="currentColor"
d="M123 244q0 6 6 6q2 0 3.5 -1.5t2 -3.5t1 -4.5t0.5 -3.5v-95q0 -4 4 -6t9.5 -3t11.5 -1h8q5 0 8.5 0.5t3.5 5.5q0 6 -2 11.5t-4.5 11t-4.5 11.5t-2 13v8.5t1 7.5q1 2 5.5 9t10 14.5t10 13.5t6.5 6q7 0 7 -8q0 -6 -4.5 -10.5t-10 -11t-10 -14t-4.5 -19.5q0 -7 2.5 -12.5
l5 -11t5 -10.5t2.5 -12q0 -5 -1.5 -7t-4 -3.5t-6 -1.5h-6.5q-9 0 -16.5 1t-15.5 1h-4.5t-3.5 -2v-7v-7t1 -6h12t17 -1t16.5 -2.5t9.5 -4.5q0 -1 0.5 -2.5t0.5 -3t0.5 -3l0.5 -1.5q0 -1 0.5 -2l1 -2l1 -2l0.5 -1v-2v-3v-6t-1 -8t-2.5 -7t-4.5 -3h-47q-2 0 -4 -1.5t-2 -4.5
t1 -5.5t3 -5t4 -4t5 -1.5q13 -1 24.5 -2.5t24.5 -1.5q3 0 4 -1.5t1 -3.5q0 -4 -1.5 -4.5t-4.5 -0.5q-14 0 -28.5 1.5t-27.5 2.5q-7 5 -10 11.5t-4.5 14t-2 15.5t-0.5 16q0 9 1 18.5t1 19.5q0 30 -1 60t-1 61v2.5t-0.5 3t-0.5 3v2.5zM48 242q0 1 1 1.5t2 0.5q3 0 4 -0.5
t2 -1.5q1 -3 1 -8v-9t0.5 -8t1.5 -6q2 0 6 -0.5t9 -1.5t9 -2t5 -1q5 -1 7 -4t2 -7.5v-9t-1 -7.5q1 -2 2 -2.5l2 -1t2 -1.5t1 -2t-1.5 -3l-1.5 -2h-8q-6 0 -13 0.5t-14 0.5h-6l-1 -1v-14q0 -2 3 -2h7.5h10t9.5 -3.5t6.5 -10.5t1.5 -19q2 -1 4.5 -2.5t2.5 -3.5t-2.5 -3.5
t-3.5 -1.5q-8 0 -16 1t-15 1q-6 0 -8 -2.5t-2 -8.5v-3t0.5 -4t1 -3.5t1.5 -1.5l31 -6q2 0 4 -2t2 -3v-15q1 -2 1.5 -5t0.5 -3.5t2 -1.5t3 -2v0v-1v-2.5t-2 -1.5h-42q-2 0 -2.5 -1t-0.5 -2q0 -5 3 -7.5t8 -4.5t10.5 -2.5t10 -1t7.5 -2t3 -3.5q0 -3 -1 -4t-4 -1h-3
q-1 1 -4.5 1t-7.5 1t-7.5 1t-4.5 1q-2 2 -5.5 3t-6.5 2t-5 3t-2 7v134q1 2 1 4v5q0 10 -0.5 21t-0.5 22v24zM59 181l3 -3l2 -0.5l4 -1t4.5 -0.5h4.5h4h4t3 3v3v3q0 9 -4.5 12t-13.5 3l-2 -0.5l-4 -1t-3.5 -1t-1.5 -1.5v-15zM59 138v-20l1 -0.5t2 -0.5q1 -1 4 -1t6 -0.5
t5.5 -0.5h3.5q5 0 6 2t1 5q0 7 -1.5 10.5t-4.5 5.5t-7 2h-10h-3h-2zM136 90v-2q0 -1 0.5 -3l0.5 -2q0 -1 0.5 -4.5t0.5 -6.5q0 -4 -0.5 -7t-0.5 -4q2 -1 4.5 -2.5t3.5 -1.5h36q1 0 1.5 3.5t1 8t0.5 9v6.5v2q0 1 -2.5 3.5l-3.5 3.5q-6 1 -9.5 1t-7 0.5t-7 0.5h-8.5h-9
q-1 -1 -1 -2.5v-2.5zM56 63q0 -5 2.5 -7.5t6.5 -3.5t9 -1h8q2 0 3.5 1t2 3t0.5 3.5v3.5q0 4 -1 6t-3.5 3.5t-5 2t-5.5 2.5q-3 0 -6 -1t-5.5 -2t-4 -3.5t-1.5 -6.5z" />
</svg>
