<?xml version="1.0" standalone="no"?>
<!DOCTYPE svg PUBLIC "-//W3C//DTD SVG 1.1//EN" "http://www.w3.org/Graphics/SVG/1.1/DTD/svg11.dtd" >
<svg xmlns="http://www.w3.org/2000/svg" xmlns:xlink="http://www.w3.org/1999/xlink" version="1.1" viewBox="-10 0 266 256">
   <path fill="currentColor"
d="M138 200q0 3 4 11.5t9.5 17t11 15t9.5 6.5q3 0 6.5 -1.5t3.5 -5.5q0 -2 -5 -6.5t-11 -10t-11 -12.5t-5 -14t3 -11.5t7 -8t9 -6.5t9 -6.5t7 -7.5t3 -10l-1 -55v-7l-1 -34q0 -2 3 -2t6.5 -0.5t6 -2t2.5 -5.5v-2t-2 -1q-1 -1 -5 -1h-8h-8h-6h-13q-7 0 -12.5 0.5t-12 1
t-13.5 2.5l-1.5 0.5l-3 1t-2.5 2t-1 2.5v1l0.5 1.5t1.5 1.5h9q11 0 22.5 -1.5t22.5 -1.5q2 0 3 3.5t1.5 8.5t0.5 12v13t0.5 11t1.5 7v3q0 1 0.5 3.5t0.5 4.5v2q0 13 -2.5 23.5t-9.5 20.5q-3 4 -8 7t-10 7t-8.5 9t-3.5 14zM52 227v1q1 2 2.5 4.5t3.5 2.5h1l2.5 -1.5l2.5 -1.5
v-33l1 -4q9 0 15.5 -1.5t10.5 -5t6 -9.5t1 -16q1 -2 2 -2.5t2.5 -1t3 -1.5t2.5 -3l-4 -3h-5q-9 0 -17.5 1.5t-17.5 1.5q-1 0 -1.5 -1t-1 -3t-1 -3.5t-0.5 -2.5t1 -3.5t3 -2.5l27 -6q2 0 3 -1.5t2 -3.5t1.5 -4t0.5 -3t0.5 -2.5t0.5 -4v-4.5v-3q1 -1 2.5 -1.5t3 -2l2.5 -2.5
t1 -2q0 -3 -1.5 -3.5t-3.5 -0.5q-8 0 -15.5 1t-15.5 1h-8q-2 0 -2 -2v-2v-3t0.5 -4l1 -4t1.5 -2l26 -5q1 0 2.5 -1t3 -2.5l2.5 -2.5l1 -1v-17l1.5 -1.5l2.5 -2.5q2 -1 4.5 -2.5t2.5 -3.5q0 -1 -0.5 -2.5t-1.5 -1.5h-2h-3q-8 0 -16 1t-18 3q-2 0 -2.5 -1.5t-0.5 -3.5
q0 -4 3 -6.5t8 -3.5t11 -1.5t10.5 -1.5t8 -3t3.5 -5q0 -4 -2.5 -4h-5.5h-2q-1 0 -4.5 0.5l-7 1l-7 1t-4.5 0.5q-3 1 -6.5 2.5t-7 3.5t-6 5t-3 7t-0.5 5.5t0.5 2.5t0 2.5l-1.5 4.5v21t-0.5 31.5t-0.5 37t-0.5 37t-0.5 31.5v21v1zM65 166q6 -2 9.5 -3t8.5 -1q3 0 4 1t1 3
q0 6 -2 9.5t-5.5 5.5t-8 2.5t-9.5 0.5v-3v-4.5t0.5 -4.5l0.5 -2q0 -1 0.5 -2.5zM121 95v11.5t1 14.5t3 12.5t5 6.5q1 0 3 0.5t5 1l6 1t4 0.5l0.5 0.5l0.5 0.5q2 0 4 -1.5t3.5 -3.5l3 -4t2.5 -3v-7.5t0.5 -11t0.5 -11v-7.5v-2.5v-2.5v-4t-0.5 -4t-2 -3t-2.5 -1h-1
q-1 0 -2 1.5t-2 2.5v7q0 4 -1 7t-3 4.5t-6 1.5q-5 0 -8 -1t-4 -3t-1 -5v-10l-1 -1.5t-2 -1.5h-1q-2 0 -3 2t-1.5 4.5t-0.5 4.5v4zM130 119q0 -7 4 -7.5t9 -0.5h7q2 0 2 2.5v3.5q0 7 -1.5 11.5t-9.5 4.5q-6 0 -8.5 -4.5t-2.5 -9.5zM64 111l3 -4h2.5t5.5 -0.5t5 -0.5h1h2h2
t2 1v6q0 5 -1.5 8t-4 4.5t-6 2t-7.5 0.5h-2.5t-1.5 -2v-15zM63 59v-4q0 -3 2 -4q7 -1 13 -2t12 -1q0 7 -0.5 11t-3 6.5t-6.5 3.5t-11 1h-4q-1 -3 -1.5 -5.5t-0.5 -5.5z" />
</svg>
