<?xml version="1.0" standalone="no"?>
<!DOCTYPE svg PUBLIC "-//W3C//DTD SVG 1.1//EN" "http://www.w3.org/Graphics/SVG/1.1/DTD/svg11.dtd" >
<svg xmlns="http://www.w3.org/2000/svg" xmlns:xlink="http://www.w3.org/1999/xlink" version="1.1" viewBox="-10 0 266 256">
   <path fill="currentColor"
d="M55 247q0 3 2.5 3.5t4.5 0.5q3 0 4.5 -1.5t2.5 -4t1 -5v-5.5q0 -4 -1 -8.5t-1 -9.5v-3v-3q2 -3 6 -3.5t9 -2t9.5 -5.5t5.5 -14v-2v-3v-3v-3t1.5 -2t3.5 -1.5t3.5 -2t1.5 -4.5q-9 0 -17.5 1t-17.5 1h-5l-1 -2v-15q0 -2 4.5 -3t10 -1.5t10 -2.5t4.5 -7v-20q0 -4 2 -5
t4 -1.5t4 -1.5t2 -5q-9 0 -18.5 1.5t-18.5 1.5q-2 0 -3 -2.5t-1 -4.5q0 -7 4 -11q1 0 3.5 -0.5t4.5 -1t4.5 -1l2.5 -0.5q7 -2 10 -3.5t4 -4.5t0.5 -7t0.5 -11l0.5 -1.5l0.5 -1.5h3.5t4.5 -1l4 -2t2 -3t-2 -2q-1 0 -3.5 -0.5t-4.5 -0.5q-8 0 -16.5 1t-17.5 1q0 -7 2.5 -11
t6.5 -6t8.5 -3.5t8.5 -3t7 -4t3 -6.5l-1 -1l-1 -1h-3.5h-3.5q-3 0 -8.5 2t-11 5.5t-10.5 7t-7 6.5q-2 2 -3 8t-1.5 14t-1 17t-0.5 17t-0.5 14t-0.5 8v7q0 2 0.5 8t0.5 12v11.5v8.5v6zM184 247q0 4 4 4q2 0 4.5 -3t3.5 -6v-5v-5q0 -10 -1 -20.5t-2.5 -20.5t-2.5 -20.5
t-1 -20.5q0 -7 1 -13.5t1 -13.5v-3v-5t-0.5 -5t-0.5 -3q-1 -2 -4 -3h-3h-5.5h-4.5h-4h-4h-5h-5h-2h-1.5t-3.5 0.5t-3.5 1.5t-1.5 2v1l1.5 2.5t2.5 2.5h31q1 0 2 1.5t1.5 3.5t1 4.5t0.5 3.5q0 2 -0.5 4.5t-1.5 5t-2.5 4t-4.5 1.5q-1 0 -3 -0.5t-3 -1.5h-25q-2 0 -2.5 1.5
t-0.5 3.5q0 1 0.5 3t2.5 2h28l7 3v1q0 8 -6.5 13.5t-14 9.5t-14 7t-6.5 6t2 3h3q8 0 14.5 -3.5t12.5 -7.5q2 -1 3 -2.5l2 -3t2.5 -3t3.5 -1.5h2q2 0 2 2q0 8 1 16t1 16q0 10 -1 20t-1 21zM114 243q0 1 1 3.5t3 2.5q3 0 5 -1.5t3.5 -4t2 -5.5t0.5 -5q0 -4 -0.5 -6.5
t-1.5 -6.5v-97q0 -1 0.5 -4t1 -7.5t1 -8.5t0.5 -6q1 -1 1.5 -2.5t0.5 -2.5q4 -7 8.5 -11t8 -8.5t6 -9.5t2.5 -15v-9q-2 -4 -4.5 -6.5t-6 -3t-7.5 -0.5h-7h-3.5h-4.5t-3.5 1t-1.5 3v0.5v0.5h2.5t3.5 0.5l4 1t3 0.5h3h4.5t4 1t1.5 4v18q-3 5 -6.5 8.5t-7 7.5t-6.5 8t-4 9
q-2 10 -3 21t-1.5 22t0 22t0.5 20q0 2 -0.5 5.5t-0.5 4.5v2q0 4 0.5 6.5t0.5 6.5q0 10 -1.5 20.5t-1.5 20.5zM85 175q3 0 4 2.5t1 4.5q0 5 -2 8t-5 4.5t-7 1.5h-8v-17q1 0 3.5 -0.5t6 -1.5t5.5 -2h2zM68 136v-2.5t-0.5 -5t-0.5 -4.5v-3v-0.5v-0.5q0 -3 2 -4t4.5 -1.5
t5.5 -0.5h4q4 0 4.5 2.5t0.5 6.5t-0.5 7t-2 5t-4.5 2.5t-8 0.5q-1 0 -2.5 -0.5t-2.5 -1.5zM70 77v-7v-5t1 -6q5 -1 8 -1h7q2 0 4.5 0.5t2.5 4.5q0 9 -6 12t-14 3l-1.5 -0.5zM161 72q0 4 2 4.5t4 0.5q9 0 15 -1t10 -3.5t5.5 -8t1.5 -14.5v-5t-0.5 -7t-2 -6.5t-4.5 -2.5h-27v7
h21l1 1l2 2l0.5 1l0.5 1l0.5 2.5t0.5 3.5q0 9 -4.5 13t-10.5 5.5t-10.5 2.5t-4.5 4z" />
</svg>
