<?xml version="1.0" standalone="no"?>
<!DOCTYPE svg PUBLIC "-//W3C//DTD SVG 1.1//EN" "http://www.w3.org/Graphics/SVG/1.1/DTD/svg11.dtd" >
<svg xmlns="http://www.w3.org/2000/svg" xmlns:xlink="http://www.w3.org/1999/xlink" version="1.1" viewBox="-10 0 266 256">
   <path fill="currentColor"
d="M36 247v2.5t2 1.5q5 0 8.5 -2t3.5 -7v-45l2 -0.5t3 -1t4.5 -1t7.5 -1t7.5 -1t4.5 -0.5q4 -1 6 -3.5t2.5 -6t0 -7t-0.5 -6.5q1 -1 1.5 -3t0.5 -3q1 -2 2.5 -3t4 -1.5t4.5 -1.5t3 -3q-2 -3 -4 -3.5t-5 -0.5h-3l-1.5 1t-2.5 1l-3 0.5t-7 1t-7.5 1t-6.5 1.5h-1q-6 0 -9.5 -1
t-3.5 -7q0 -2 0.5 -4.5t1.5 -3.5q9 -1 15 -1t10.5 -1.5t7.5 -6t5 -13.5l0.5 -1.5t0.5 -3t0.5 -2.5t0.5 -2q1 -2 3.5 -3t4.5 -1t4 -1t2 -4q0 -2 -2 -2.5t-4 -0.5q-11 0 -21 1.5t-21 1.5q-4 0 -5 -2t-1 -6q0 -5 2.5 -7.5t6.5 -3t8.5 0t9 0t8 -1.5t5.5 -5t2 -8.5t1 -9.5l1 -1.5
l1 -1.5l14 -8v-1q0 -4 -4 -4q-9 0 -18 2.5t-18 2.5h-1.5h-3.5t-3.5 -0.5l-1.5 -0.5v-3q0 -7 5.5 -10t12.5 -5t12.5 -4t5.5 -7q0 -3 -1.5 -3.5t-3.5 -0.5q-5 0 -11 2t-12 5t-11 7t-7 8q-1 1 -1.5 5t-1.5 8.5t-1.5 8l-0.5 3.5q-3 30 -4 60l-2 60q0 17 -1.5 33.5t-1.5 34.5z
M136 224q8 3 14 3h15q7 0 13 -0.5t10.5 -2.5t7 -7t2.5 -13q0 -9 -3.5 -13.5t-9 -7.5t-11.5 -5.5t-11 -5.5v-3.5v-2.5q0 -8 4.5 -11t11 -3t13.5 1t13 1l4 -2t2 -3q0 -3 -1.5 -4.5t-3.5 -1.5q-10 0 -19.5 1.5t-18.5 2.5q-3 0 -10.5 0.5t-16 1t-16 1t-10.5 0.5q-2 2 -3 4t-1 4
q9 0 18.5 -1t18.5 -1h5q1 2 1.5 3.5t0.5 3.5q0 4 -4.5 7.5t-9.5 8.5t-9.5 11t-4.5 14q0 5 2.5 11t6.5 9zM139 202q0 -10 6 -16.5t16 -6.5h2q4 2 8 4.5t7 5.5t5.5 7t2.5 8t-3.5 7t-8 4.5t-9 2t-6.5 0.5h-1q-1 0 -3.5 -0.5t-5 -1.5t-4.5 -2l-2 -1q-3 -1 -3.5 -5t-0.5 -6z
M74 163q3 0 5 1t2 5q0 5 -2 8t-5 4.5t-7 2t-7 0.5h-2q-2 0 -5 -0.5l-3 -0.5v-14q0 -2 3 -3.5t7.5 -2t8.5 -0.5h5zM50 127v-12l0.5 -1t1 -1.5t1.5 -1t2 -0.5t4 -0.5t7 -1t7 -1t4 -1.5q3 1 4 3.5t1 5.5q0 5 -2.5 7.5t-6 4t-8 1.5h-7.5h-3.5h-3.5zM118 126q0 3 3 3h4
q19 0 38 -2.5t38 -4.5q1 -1 1.5 -2t0.5 -2q0 -4 -3 -4.5t-5 -0.5q-6 0 -11.5 1t-10.5 1h-3.5h-2.5l-2.5 -2.5l-1.5 -1.5v-1q0 -8 2 -12t5.5 -6t7.5 -2t7 -0.5t5.5 -2t2.5 -5.5q-12 0 -19.5 0.5t-12 3t-6.5 9.5t-2 20q-2 1 -5 2t-5 1t-5 0.5t-6.5 1.5t-7 1t-4.5 1l-0.5 1.5
t-1.5 2.5v0zM108 76v1q1 0 2 1t2 1l2 -1l2 -1q7 -6 12.5 -12.5l11 -13l11 -13t12.5 -11.5h1h2q4 0 8.5 3.5t8.5 8.5t8 11t8 11.5t7.5 9t8.5 3.5q2 0 3.5 -2t1.5 -5t-5 -9t-11.5 -12.5t-13.5 -12t-10 -8.5l-2.5 -2.5t-4 -3.5t-4.5 -4t-2 -3h-6q-2 5 -4.5 7.5l-5 5t-5.5 5
t-5 6.5q-8 10 -14.5 18t-16.5 18q-1 0 -1.5 1.5l-0.5 1.5v0.5v0.5zM53 66q0 -5 3 -8t7.5 -4t9 -1.5t8.5 -0.5q3 0 4 2.5t1 5.5q0 5 -1.5 8t-4 4t-6.5 1.5t-8 0.5h-5q-3 0 -5 -1l-1.5 -3t-1.5 -4zM146 63q3 1 5 1.5t5 0.5h4q1 -1 4.5 -1.5t7.5 -1t7 -1t5 -0.5l0.5 -1l0.5 -1
l0.5 -0.5l0.5 -0.5l-0.5 -0.5l-0.5 -0.5l-0.5 -0.5l-0.5 -0.5h-11h-13t-13 1q-1 1 -1 2v2v2z" />
</svg>
