<?xml version="1.0" standalone="no"?>
<!DOCTYPE svg PUBLIC "-//W3C//DTD SVG 1.1//EN" "http://www.w3.org/Graphics/SVG/1.1/DTD/svg11.dtd" >
<svg xmlns="http://www.w3.org/2000/svg" xmlns:xlink="http://www.w3.org/1999/xlink" version="1.1" viewBox="-10 0 266 256">
   <path fill="currentColor"
d="M52 162q0 22 -1.5 43t-1.5 43q6 0 8.5 -3t3.5 -7.5t1 -9.5v-10q6 -2 12 -3l12 -2q3 -2 4 -4.5t1.5 -5t0.5 -5.5v-7q1 -4 3 -6t4.5 -4t4 -3.5t1.5 -5.5q-9 0 -19 2t-20 2h-4q-2 -2 -2 -5v-5v-4v-3l1 -1.5l1 -1.5l26 -6l1 -0.5t2 -2l2 -3t1 -2.5v-19q0 -2 1.5 -3t3 -1t3 -1
t1.5 -3q0 -3 -4 -3h-1q-1 0 -5.5 0.5t-10.5 1.5t-10.5 2t-6.5 1h-1q-2 0 -3 -1.5t-1 -3v-3.5v-2v-4v-3q3 -4 8 -5t9.5 -1.5t9 -1.5t7.5 -6q-1 -11 0.5 -16t4 -6.5t4.5 -2.5t2 -4q0 -2 -1 -2.5t-3 -0.5h-1.5h-1.5q-8 2 -15.5 4.5t-16.5 2.5h-1l-1.5 -1l-1.5 -1v-2.5v-2.5
q0 -6 2.5 -9t7 -5t9 -2.5t8.5 -1.5t7 -2.5t3 -4.5t-2 -3.5t-4 -0.5q-3 0 -6 0.5t-6 1.5q-8 3 -14 5.5t-9.5 6.5t-5 10t-1.5 17v86q1 4 1 5.5v4.5zM156 186q3 0 6 4.5t6 11.5t6 15t6.5 14.5t7 11t7.5 4.5q5 0 5 -5v-2v-1l-10 -16t-9 -17q-1 -2 -3 -5.5t-4 -6.5t-3.5 -5.5
l-1.5 -2.5v-5h6q4 0 8 -0.5t7 -2.5t4 -5q1 -7 1 -11.5v-11.5v-5t-0.5 -8t-2.5 -7t-4 -3t-2.5 1.5t-0.5 3.5t-0.5 4t-1.5 3q-6 1 -10.5 1.5t-8.5 0.5q-2 0 -4 -0.5t-3 -3.5l-3 -17l-1.5 -0.5t-1.5 -1.5h-1q-4 0 -4 4q0 5 1 9t1 8q0 2 -0.5 3t-3.5 2h-7t-9 1t-9 2.5t-6 4.5
l1 2h2.5h3.5q6 0 12.5 -1t13.5 -1q3 0 5.5 2.5t3.5 5.5t1.5 6.5t0.5 6.5q0 2 -0.5 3.5t-2 2t-3.5 0.5h-5q-2 1 -7 2t-10.5 2.5t-10.5 2.5t-7 2l-1 1.5t-2 1.5v0.5v0.5v1v0l2 2l1 1h1h1q2 0 5 -0.5t6.5 -1t6 -1l2.5 -0.5q6 -1 11.5 -4t11.5 -3zM81 183l3 3v12q0 3 -2.5 5
t-6.5 3t-7.5 1h-5.5v-17q0 -1 2.5 -2.5l2.5 -1.5q1 0 3.5 -0.5l5 -1t4 -1zM162 154q0 -3 2 -4.5t5 -2t6 -0.5h5h2h2q2 2 2 4.5v5.5q0 7 -3.5 11.5t-10.5 4.5q-3 0 -5 -2t-3.5 -5t-1.5 -6v-6zM60 132v-2q0 -3 2 -3q5 -1 9.5 -2.5t9.5 -1.5q4 0 5.5 3t1.5 7t-2 6.5t-5 4
t-6.5 2t-6.5 0.5q-6 0 -7 -4t-1 -10zM110 121q0 2 2 2h3q4 0 9 -1t9.5 -4t8 -6.5t4.5 -8.5v-3t0.5 -4t1 -4.5t1.5 -3.5q4 -1 7 -1.5t7 -0.5q5 0 6.5 3.5t2.5 7.5t2.5 8.5t4.5 6.5q3 0 6 1.5t7 2l8 1t7 0.5q0 -6 -2 -8.5t-5.5 -3.5t-7 -1.5t-7 -2t-5.5 -4.5t-2 -10v-1l1.5 -1
l1.5 -1h20q1 0 2 -1l2 -2l0.5 -1l0.5 -1v-1q0 -3 -2.5 -3.5t-4.5 -0.5q-7 0 -14 2t-15 2h-3h-2l-1 -2v-13q0 -2 4.5 -2.5t10 -0.5t10.5 -1.5t5 -6.5v-25q0 -2 -1.5 -2h-2.5q-3 0 -4.5 2t-1.5 5t0.5 6.5t-0.5 6.5t-4.5 5t-10.5 2q-2 0 -3.5 -1.5t-1.5 -4.5v-1v-3t0.5 -6
t0.5 -6v-3v-2q0 -4 -2 -5.5t-5 -1.5h-4l-1.5 9t-0.5 8q0 4 1 7.5t1 8.5q0 2 -1.5 3.5t-3.5 1.5q-6 0 -9.5 -1.5t-5 -4.5t-1.5 -7.5v-10.5h-8l-0.5 1.5l-0.5 1.5v2q0 10 1 15t4 8t8.5 3.5t14.5 0.5l2 2v12q0 2 -3.5 3t-9 1.5t-12.5 0.5h-11.5t-9.5 1t-4 4q0 1 0.5 2t1.5 1h31
q0 2 0.5 5.5t0.5 4.5q0 5 -4.5 7.5t-10 4t-9.5 3t-4 5.5zM60 84l0.5 -1t0.5 -3t0.5 -4t0.5 -4q1 -2 3 -3t5 -1.5t6 -0.5h4h6q1 2 1.5 4t0.5 4q0 5 -2 7.5t-5 3t-7 0.5h-7h-5z" />
</svg>
