<?xml version="1.0" standalone="no"?>
<!DOCTYPE svg PUBLIC "-//W3C//DTD SVG 1.1//EN" "http://www.w3.org/Graphics/SVG/1.1/DTD/svg11.dtd" >
<svg xmlns="http://www.w3.org/2000/svg" xmlns:xlink="http://www.w3.org/1999/xlink" version="1.1" viewBox="-10 0 266 256">
   <path fill="currentColor"
d="M51 242q0 2 1.5 5t3.5 3t4.5 -1.5t2.5 -3.5v-33q0 -3 4.5 -3.5t11 -1t11.5 -1.5t7 -5v-17q0 -3 1 -5.5t2.5 -3.5t3.5 -2t6 -2v-2q0 -3 -1.5 -3.5t-3.5 -0.5q-8 0 -16.5 2t-17.5 2h-8q-2 -1 -2.5 -3t-0.5 -4v-4.5v-4.5v-2t2 -1l28 -6q4 0 5.5 -2.5t1.5 -5.5
q0 -4 -0.5 -7.5t0.5 -7.5t4 -7t10 -4v-2q0 -2 -1 -3.5t-4 -1.5q-8 0 -17.5 2.5t-18.5 2.5h-5h-3l-3 -3v-12q0 -2 2 -3l2 -1q10 0 18 -1t16 -6l1 -1l1 -1v-24q0 -1 2 -1.5t4.5 -1t4 -1t1.5 -3.5q0 -2 -1.5 -3.5t-3.5 -1.5q-9 0 -17 3t-16 3h-4t-3.5 -0.5t-3 -1.5t-1.5 -4
q0 -4 3.5 -7.5t8.5 -6t10.5 -4t10 -2.5t8 -2.5t3.5 -4.5q0 -1 -1.5 -2t-3 -1.5t-3 -0.5h-2.5h-1q-1 0 -3.5 0.5t-3.5 1.5q-1 0 -3.5 1t-5.5 2t-5.5 2t-2.5 2q-12 5 -16.5 13.5t-4.5 21.5q0 34 1.5 67t1.5 67v7v10v11v7v2t-0.5 4.5t-0.5 4.5v3v2zM113 213v1l1 1.5t2 1.5h6
q12 0 24.5 -2.5t24.5 -2.5h4q1 0 5.5 0.5t10 0.5t10 0.5t5.5 0.5h1q2 0 2.5 -1.5t0.5 -3.5q0 -1 -0.5 -3.5t-3.5 -2.5h-35q-2 0 -2.5 -4t-0.5 -8v-4v-4.5v-5.5q1 -5 6 -6t11.5 -0.5t11.5 0t5 -5.5q0 -2 -1 -3.5t-3 -1.5q-6 0 -11.5 1t-11.5 1h-5q-2 -2 -2 -5v-5v-2.5v-3.5
q1 -2 5 -2.5t9 -1.5t10 -5t6 -12q1 -9 1.5 -17t0.5 -15.5v-14.5v-17v-26q-2 -2 -5.5 -5t-7 -5t-7.5 -3.5t-7 -1.5q-2 0 -3.5 0.5t-1.5 2.5q0 4 4 6l9 4.5t9 7t4 12.5q0 2 -1 5t-4 3h-2q-1 0 -4.5 -1t-6.5 -2t-6.5 -2t-4.5 -2q-1 1 -1.5 2t-0.5 2l0.5 0.5l0.5 0.5q3 2 8 4
t9.5 4.5t7.5 6.5t3 9v4t-0.5 4t-1.5 3.5t-3 1.5q-3 0 -5 -1t-4 -2.5t-4 -2.5t-4 -1q-1 0 -3.5 1t-2.5 4t4 4.5t9 2.5t9 3.5t4 6.5q0 8 -1.5 12.5t-5.5 7t-9 3t-11 0.5q-5 0 -10 -1t-8.5 -3.5t-6 -7t-2.5 -10.5q0 -3 3.5 -5.5t8 -4.5t8 -4.5t3.5 -5.5q0 -2 -1.5 -2.5
t-2.5 -0.5q-3 0 -5 1.5l-4 3l-4 3t-5 1.5h-1q-3 -3 -3.5 -7.5t-0.5 -9.5q0 -3 4 -6t9 -6t8.5 -5.5t3.5 -5.5q0 -4 -3 -4q-2 0 -4.5 1t-4.5 2.5t-4.5 2.5t-4.5 1q0 -1 -0.5 -4t-0.5 -4q1 -6 4.5 -9t7.5 -6t7 -5.5t3 -5.5t-1 -3.5t-3 -0.5t-3 0.5t-2.5 1t-2.5 1.5t-4 3
q-7 4 -10.5 9.5t-4.5 12t-1 14v15.5q0 9 0.5 17.5t1.5 17.5q0 7 2.5 11t6.5 7.5t8.5 5.5t9.5 4q1 0 2 0.5l1 0.5v18l-0.5 0.5t-1.5 0.5h-9q-1 0 -4 0.5t-6.5 0.5t-6.5 0.5t-4 0.5v0.5v1.5t0.5 2t1.5 2l28 3q2 0 2.5 2.5t1.5 2.5v10v4v6t-1 5.5t-4 2.5q-10 -1 -19.5 -0.5
t-18.5 1.5l-2 2t-1 2v1zM80 177h6q2 2 2.5 4t0.5 5t-0.5 7t-2.5 5q-1 0 -3 0.5t-4 0.5t-3.5 0.5t-2.5 0.5h-2h-1q-2 0 -5 -1l-3 -1v-17q0 -2 2.5 -2.5t5.5 -1t6 -0.5h4zM60 139v-3t-0.5 -4.5t-0.5 -4.5v-4v-1q0 -2 2.5 -3.5t6 -2t6.5 0t5 0.5h4h4q2 1 3 3.5t1 4.5
q0 4 -1.5 6t-3.5 5q-6 2 -11 3.5t-10 1.5h-3q-1 0 -2 -2zM59 75v-3v-3t0.5 -3.5t0.5 -3.5v-3q7 -1 13 -2t12 -1q3 0 5 1t2 5q0 6 -2 9.5t-5.5 5.5t-7.5 2.5t-9 0.5h-6q-3 -1 -3 -2v-3z" />
</svg>
