<?xml version="1.0" standalone="no"?>
<!DOCTYPE svg PUBLIC "-//W3C//DTD SVG 1.1//EN" "http://www.w3.org/Graphics/SVG/1.1/DTD/svg11.dtd" >
<svg xmlns="http://www.w3.org/2000/svg" xmlns:xlink="http://www.w3.org/1999/xlink" version="1.1" viewBox="-10 0 266 256">
   <path fill="currentColor"
d="M123 192v60q3 0 6 -2.5t3 -4.5v-33.5t2 -33.5h1h2q5 0 8 4t5.5 11t4 14.5t2.5 14.5t2 11.5t2 5.5q4 -3 5 -6.5t1 -7.5q0 -14 -4 -26.5t-13 -23.5q-4 -5 -7.5 -6t-5.5 -1.5t-3.5 -3t-1.5 -9.5q0 -1 0.5 -2t1.5 -1l20 -6q1 0 1.5 -1t1.5 -2l2 -2t1 -2v-16q0 -1 -1 -1.5
t-2 -0.5h-1v0l-2 2l-1 1l-3 12q0 2 -1.5 3t-3.5 1.5l-4 1t-3 0.5h-0.5h-0.5q-1 0 -2.5 -0.5l-1.5 -0.5v-24q0 -1 -1.5 -1h-2.5h-2.5t-2.5 1v10v9q0 1 1 2.5t1 2.5l-1 1.5t-2 2.5q-1 0 -3.5 -0.5t-3.5 -1.5q-7 -1 -9 -2.5t-2.5 -3t-1 -4t-2.5 -7.5q0 -1 -0.5 -2t-1.5 -1.5
t-1.5 -1.5l-0.5 -1q0 -4 3.5 -6t8.5 -3.5t10 -1.5h7h2.5t2.5 1h5h5q2 0 7 0.5t10 0t9 -1.5t4 -4v-2t-2 -1h-33q0 -7 2 -9.5t4.5 -3t6 0t6.5 0.5t5 -2t2 -7q-6 0 -11 1t-10 1q-3 0 -4.5 -1.5t-1.5 -3.5t0.5 -3.5t2.5 -1.5h18l1 -1.5t1 -2.5l0.5 -0.5l0.5 -0.5l-0.5 -0.5
l-0.5 -0.5l-1 -0.5l-1 -0.5q-1 0 -2.5 -0.5l-1.5 -0.5q-1 0 -3 0.5t-3 0.5h-1.5h-2.5q-2 0 -4 -0.5t-2 -3.5q0 -2 1.5 -4t3.5 -2q4 0 7.5 1.5t7 3.5t7.5 3t8 1q0 -5 -2.5 -7.5t-5.5 -4t-6.5 -2l-7 -1t-5.5 -1.5t-2 -4v-1.5t1 -1.5q1 0 3.5 -0.5t5 -1.5l5 -2t3.5 -1
q2 -1 3 -2t1 -3t-0.5 -3t-2 -1.5l-3 -1t-2.5 -0.5t-2.5 -1t-4 -2t-4.5 -1.5t-3 -1.5q-2 -1 -3.5 -3.5t-2.5 -5t-2 -4.5t-3 -2q-3 0 -4.5 2t-2.5 5l-2 6t-4 4q-2 1 -4.5 3.5l-5.5 5.5l-6 6l-4 4l-2.5 2l-2.5 2q-1 0 -1.5 0.5t-0.5 1.5v0q0 2 1.5 3.5t2.5 1.5q3 0 4.5 -1
t3.5 -2.5t4 -2.5t4 -1h1l2 1t2 2l-0.5 1t-1 1.5l-2 2l-3.5 3.5l-3.5 3.5t-1.5 2.5q-4 4 -6.5 10.5t-4.5 13t-3 13.5t-1 13q0 4 2.5 7t2.5 4v1q0 1 -0.5 2.5l-0.5 1.5v1q0 5 2.5 11.5t6.5 9.5h6q4 0 7 1t5.5 2.5t2.5 5.5q0 5 -2.5 7.5t-6 4.5t-7.5 4.5t-6 5.5
q-8 12 -11.5 28.5t-3.5 30.5q0 3 0.5 4t2.5 1q5 0 6.5 -4t2 -8.5t0.5 -9.5v-8q2 -7 3.5 -15t6.5 -14l5.5 -5.5t6.5 -2.5q2 0 3 0.5t1 2.5v0.5v0.5q0 1 -0.5 5t-0.5 5zM101 99q0 -4 1.5 -5.5t3.5 -2.5t5 -0.5t6 0.5h4h5q1 1 1 2v3q0 1 -0.5 3t-2.5 3h-3t-5 0.5t-5 0.5h-3h-3
q-3 0 -3.5 -0.5t-0.5 -3.5zM104 80q0 -3 2 -4q1 -1 3 -1h4t3.5 -0.5t2.5 -0.5h2q2 0 4 0.5t2 2.5t-0.5 3.5t-2.5 2.5q-4 0 -7.5 0.5t-7.5 0.5q-2 0 -3.5 -1t-1.5 -3zM114 63l0.5 -0.5l0.5 -0.5l8 -9h2h2t2 2v10q0 1 -1 1.5t-2.5 1t-2.5 0.5h-2q-2 0 -4.5 -1t-2.5 -4zM116 38
q0 -3 2 -5t4.5 -4t6 -2.5t5.5 -0.5q3 0 7 1.5t4 5.5q0 1 -1 1.5t-3 0.5q-1 0 -1.5 -0.5t-1 -1.5l-1 -2t-2.5 -1q-3 0 -5 1q0 6 -1 8t-6 2h-4t-3 -3z" />
</svg>
