<?xml version="1.0" standalone="no"?>
<!DOCTYPE svg PUBLIC "-//W3C//DTD SVG 1.1//EN" "http://www.w3.org/Graphics/SVG/1.1/DTD/svg11.dtd" >
<svg xmlns="http://www.w3.org/2000/svg" xmlns:xlink="http://www.w3.org/1999/xlink" version="1.1" viewBox="-10 0 266 256">
   <path fill="currentColor"
d="M71 244q1 3 1.5 5t4.5 2t6.5 -2.5t2.5 -6.5q0 -8 -1.5 -16t-1.5 -16v-3t0.5 -4t0.5 -3v-2l1 -1l4.5 -0.5t10 -0.5t11.5 -0.5t10 -0.5h14.5h22.5h21.5h14.5q0 -5 -3 -7t-7 -2q-8 0 -16 1t-16 1q-9 0 -12.5 -3.5t-3.5 -12.5l1 -1l0.5 -2t0.5 -3l1 -1l1 -1h34q1 0 1.5 -2
l0.5 -2q0 -3 -2 -4.5t-5 -1.5q-6 0 -11 1t-11 1q-7 0 -9 -2t-2 -9q0 -3 1.5 -5t5.5 -2h33q1 0 1 -2v-3v-2.5t-1 -1.5h-36l-3 -3v-17l0.5 -0.5l0.5 -0.5h5q4 0 9 1t10 2.5t9.5 3t9.5 1.5q3 0 5 -1t2 -4t-2 -4.5t-4 -1.5q-2 -1 -5 -1t-7 -1t-7 -1h-5q-1 -1 -3 -0.5t-4 0l-4 -1
t-3 -2.5l17 -16q1 0 1 -1.5v-2.5q0 -3 -3 -6t-6.5 -5.5t-7 -4t-5.5 -3.5v-1v-4t1 -4.5t2.5 -4t3.5 -1.5h42q4 0 4.5 -0.5t0.5 -2.5q0 -4 -3 -6t-6 -2q-6 0 -11 1t-11 1h-11l-0.5 -1t-0.5 -2v-1q0 -1 1 -3t2 -3.5t2 -3.5t1 -5t-0.5 -4t-3.5 -1t-5 3t-3.5 7t-2.5 8t-2 6
q-1 1 -2 3.5t-2.5 5.5t-2.5 5.5t-1 3.5q-1 2 -3.5 2.5t-4.5 0.5q-3 0 -4.5 -3t-2 -8.5l-1 -11t-2 -10.5t-4.5 -8.5t-9 -3.5q0 3 0.5 5t1.5 4t1.5 4.5t0.5 4.5q0 3 -1.5 4t-3.5 1.5t-5 0.5h-4q-1 0 -5 0.5t-8 0.5h-7.5h-5.5l-1.5 3t-0.5 3q0 3 2.5 4t4.5 1q9 0 17 -2.5
t17 -2.5q3 0 4.5 2t2 4.5t1 5.5t0.5 5q0 3 -3.5 5t-7.5 4.5t-7.5 5.5t-3.5 8q0 3 1.5 5t3.5 3t4 2.5t3 3.5l18 4v0.5v0.5q0 1 -4.5 4t-10 6.5t-10.5 6.5t-7 5q-4 4 -7 11.5t-5 17t-3 20t-1.5 20.5t-0.5 19v14v19zM84 174q0 -3 0.5 -4.5t3.5 -3.5h6t8.5 -0.5t8.5 -0.5h5h5h5
q1 2 1 4.5v4.5v4t-1 4.5t-2.5 4t-3.5 1.5h-33q-1 0 -1.5 -2t-1 -4.5t-0.5 -4.5v-3zM85 154q0 -1 0.5 -3t1.5 -4.5t2 -4.5t2 -3q7 -1 11.5 -1h11.5h4.5t4.5 0.5t3 2t1 4.5v4v3.5t-1 3t-4 1.5h-35q-1 0 -1.5 -1t-0.5 -2zM98 128q0 -2 2.5 -5.5t6.5 -6t8.5 -4.5t6.5 -2t3 2
t1.5 4.5t0.5 5v3.5v1l-1 2t-2 2h-23q-1 0 -2 -0.5l-1 -0.5v-1v0zM102 81q0 -3 2.5 -5.5t6 -4.5t8 -2.5t6.5 -0.5h7.5t5.5 1t5.5 2.5t5.5 4.5v2q0 2 -1 4l-2 4t-3 3.5t-4 1.5h-1q-1 -2 -1.5 -3.5t-1 -3.5t-2 -3t-3.5 -1t-3 2l-2 4t-3 3.5t-5 1.5q-2 0 -4.5 -0.5t-5 -2
t-4 -3.5t-1.5 -4z" />
</svg>
