<?xml version="1.0" standalone="no"?>
<!DOCTYPE svg PUBLIC "-//W3C//DTD SVG 1.1//EN" "http://www.w3.org/Graphics/SVG/1.1/DTD/svg11.dtd" >
<svg xmlns="http://www.w3.org/2000/svg" xmlns:xlink="http://www.w3.org/1999/xlink" version="1.1" viewBox="-10 0 266 256">
   <path fill="currentColor"
d="M129 167v81q0 1 1.5 1.5t2.5 0.5v0h1q1 0 1.5 -0.5t0.5 -1.5q1 -1 2 -3.5l1 -2.5v-31h73q2 0 2.5 -2t0.5 -3v-2.5t-1 -1.5h-34l-3 -1v-1.5v-2.5v-2.5v-2.5q0 -2 0.5 -5.5l1 -7t1 -5.5l0.5 -2l2 -2h25q2 0 2.5 -2.5t0.5 -3.5v-2.5t-2 -1.5h-18q-1 0 -2.5 -0.5t-3 -0.5
t-3 -0.5l-1.5 -0.5v-17l4 -3h21q2 0 3.5 -2t1.5 -4v-1q0 -1 -0.5 -2.5t-1.5 -1.5h-26v-32q4 0 7 2l6 4l6 4t7 2q2 0 4 -0.5t2 -3.5q0 -4 -2.5 -6.5t-6 -3.5t-7.5 -2t-7.5 -2t-6 -2.5t-2.5 -5.5q0 -1 0.5 -2.5t1.5 -2.5l23 -12q2 -1 2 -2v-3q0 -4 -2.5 -6.5t-6 -4t-7.5 -2.5
t-7.5 -2.5t-6 -3.5t-2.5 -5v-19q0 -2 -1.5 -3.5t-3.5 -1.5h-1h-1q-1 1 -3 2.5t-2 2.5v24l-1 1.5t-2.5 3l-2.5 2.5q-2 1 -5.5 4.5l-7 7t-7 6.5t-5.5 4q-1 1 -4.5 3.5t-3.5 5.5q0 1 1 1h3q3 0 5.5 -1.5t5.5 -1.5t6.5 1.5t3.5 6.5v0.5v0.5q-13 15 -17.5 31.5t-4.5 36.5l0.5 1
t0.5 2.5t0.5 2.5l0.5 1q0 1 -0.5 3.5t-1.5 3.5zM103 244q0 3 3 3q2 0 3.5 -2t2.5 -4t1.5 -4.5t0.5 -3.5v-3v-5v-6v-3t0.5 -5.5t0.5 -10.5v-12.5t0.5 -12t0.5 -10v-5.5v-1v-1q0 -2 -0.5 -6t-0.5 -9t-0.5 -9.5t-0.5 -6.5q-2 -8 -6.5 -16t-11.5 -13l-0.5 -1l-0.5 -1
q0 -2 0.5 -2.5t1.5 -1t2 -0.5t2 -1q10 -4 14.5 -11t5.5 -18q0 -1 0.5 -5t1 -8.5t1 -9.5t0.5 -7v-1.5v-0.5q0 -3 -2 -4t-4 -1t-2.5 0.5t-1.5 4.5v3.5t-0.5 5.5t-0.5 6v4l-2 2h-2.5h-3.5q-11 0 -21 -2t-20 -2q-1 0 -4 -0.5t-5.5 0t-4.5 1.5t-2 3v1l1 2.5t2 2.5h20l1.5 0.5
t2.5 1.5l0.5 1l0.5 1v24l-3 2h-28q-1 0 -1.5 2.5l-0.5 2.5q0 3 1.5 4.5t3.5 1.5q6 0 12 -1.5t12 -1.5h9q15 10 20 23.5t5 31.5q0 5 -1 8t-1 7t0.5 6.5t1.5 5.5v3v4.5v5.5v3q0 13 -1.5 25.5t-1.5 25.5zM139 201v-3.5t-0.5 -5l-1 -5t-0.5 -3.5v-4q0 -8 5.5 -10t11.5 -2
q4 0 7 0.5t8 1.5v2v2q0 7 -1 13.5t-1 13.5q-3 2 -7 2h-7h-7t-7 -2zM53 191q1 3 3.5 4t5.5 1.5t6 0.5h5h2h2.5t3.5 -0.5l4 -1t3 -0.5q3 -1 4.5 -5t2 -8t1 -8.5t0.5 -6.5t0.5 -7t0.5 -10.5v-10.5v-7h-6v1.5t-0.5 3t-0.5 3v2.5q-1 4 -2 7.5t-6 3.5h-3q-2 0 -5 -0.5t-5.5 -1.5
t-2.5 -3v-17q0 -1 -1 -2l-2 -2h-1q-2 0 -4 2l-3 3q0 11 -1 21t-1 21v17zM63 172v-4.5v-2.5l3 -4h17q3 0 3 2.5v4.5q0 5 -1 10.5t-5 8.5h-6q-4 0 -6.5 -0.5t-3.5 -2.5t-1 -5v-7zM137 148q0 -2 1 -6.5t5 -5.5h9q2 0 5.5 -0.5t6.5 0t5 2t2 4.5q0 1 -0.5 4l-1 6t-1 5.5t-1.5 2.5
h-26q-1 0 -2 -2l-0.5 -3.5t-1.5 -5.5v-1zM141 126q0 -4 2 -10t4.5 -12.5t6 -11t7.5 -4.5h1h1.5t3 0.5t2.5 1t1 1.5v3q0 1 0.5 3t0.5 3v2v13t-1 8t-5 4.5t-12 1.5h-7t-5 -3zM110 59q0 5 -1 9.5t-3 8.5t-5.5 6.5t-9.5 2.5h-2t-1 -1v-21l0.5 -1.5t1.5 -1.5q0 -1 0.5 -1.5
l0.5 -0.5h19zM150 67q0 -1 3.5 -4.5t7.5 -7t8 -6t5 -2.5q2 0 4.5 1.5t5.5 3.5t4.5 4t1.5 4v0.5v0.5l-1 1l-2 2l-2 2l-1 1h-1h-1l-1 -1l-2 -2l-2 -2t-2 -1h-1q-2 0 -3 1t-1.5 3t-0.5 4v4q-1 0 -2 0.5t-2 0.5q-1 1 -2.5 1.5l-1.5 0.5l-10 -7l-0.5 -1z" />
</svg>
