<?xml version="1.0" standalone="no"?>
<!DOCTYPE svg PUBLIC "-//W3C//DTD SVG 1.1//EN" "http://www.w3.org/Graphics/SVG/1.1/DTD/svg11.dtd" >
<svg xmlns="http://www.w3.org/2000/svg" xmlns:xlink="http://www.w3.org/1999/xlink" version="1.1" viewBox="-10 0 266 256">
   <path fill="currentColor"
d="M130 248q0 1 1.5 2l1.5 1q2 1 3.5 -1t1.5 -3v-29t2 -29q3 -4 6.5 -4h6.5h4.5t7 -0.5t6.5 -0.5h4h6h9h9h6q1 0 4 -1.5t2 -3.5q0 -1 -1 -2.5t-2 -1.5h-30v-25h23l1.5 -1t2.5 -2l0.5 -0.5t1.5 -0.5v-1q0 -3 -2.5 -3.5t-4.5 -0.5h-4h-1.5t-3.5 0.5t-4 0.5h-2q-2 0 -4.5 -1
t-2.5 -3v-22h23q2 0 3 -2t1 -3t-0.5 -2t-1.5 -1q-6 -3 -11 -2t-12 1v-21q4 0 8 2l8 4t8 3.5t8 1.5q0 -2 -0.5 -5t-3.5 -4q-1 0 -3.5 -1t-5 -1.5t-5 -1.5t-3.5 -1q-1 -1 -3.5 -2.5t-2.5 -4.5q0 -4 4.5 -6t10 -3.5t10.5 -3.5t5 -6v0v-1q-1 0 -2 -1.5t-2 -1.5l-30 -15l-0.5 -1
t-0.5 -2v-1q0 -3 1 -7t1 -7v-3q0 -1 -0.5 -2.5t-1.5 -2t-3 -0.5q-4 0 -5 3.5t-0.5 7.5t0.5 8.5t-2 6.5q-1 1 -3.5 2.5t-5 3.5t-5 3.5t-3.5 2.5t-3 2l-4 2t-3 2.5t-1 3.5q0 4 3 6t6.5 3.5l7 3t3.5 4.5q0 1 -2.5 2t-4 2.5t-2.5 1.5l-3 3l-3.5 3.5l-3 3l-1.5 1.5q0 1 -0.5 2.5
t-1 3.5t-1.5 4.5t-1 3.5q0 3 -1 9t-1.5 12.5t-1 11.5t-0.5 6v5q-2 19 -3 39t-1 39v18zM52 208q3 5 7 5.5t8 0.5q7 0 13 -2.5t10 -8.5q1 -1 2 -3.5t2.5 -5.5t2.5 -6t2 -4q1 -3 3 -6.5t4.5 -6.5t4 -6.5t1.5 -6.5q-7 0 -10.5 3.5t-6 8.5t-4 11t-4 11t-6 8.5t-10.5 3.5
q-3 0 -6 -2t-3 -7q1 -7 5.5 -13t10 -12t10 -12.5t4.5 -14.5q0 -4 -0.5 -7.5t-2 -6.5t-5 -5t-7.5 -2t-6.5 1.5t-5.5 3.5t-5.5 3.5t-6.5 1.5v-2.5t-0.5 -3t-0.5 -3.5v-2q0 -4 4 -9t8.5 -9t10 -6.5t8.5 -2.5q7 0 13 3t11 7t8.5 10t3.5 13v0q-1 3 -2 5t-4 2q-5 0 -7.5 -3.5
t-4 -8t-2.5 -8t-3 -3.5t-2.5 1.5t-0.5 3.5q0 4 1 9t3 9t5 6.5t9 2.5q9 0 11.5 -5t2.5 -14t-4 -17.5t-12 -13.5q-4 -2 -7.5 -3t-6.5 -2t-5 -3.5t-2 -7.5v-3t1 -3q3 -2 7 -3t7 -3q4 -3 6.5 -9t3.5 -12.5t1.5 -12.5t0.5 -9t-1.5 -3.5t-3.5 -0.5h-3q0 1 -0.5 2.5t-0.5 3.5
t-0.5 3.5t-0.5 2.5t-0.5 3.5t-1.5 2.5h-27q-4 0 -4 -2.5v-6.5q0 -3 -1 -6t-6 -3q-1 0 -1.5 0.5l-1.5 1.5v10q0 3 -0.5 8.5t0 10.5t2 9.5t5.5 6.5l1.5 0.5t3.5 1.5t3 2l2 2v2.5t0.5 3.5t0.5 3.5v2.5q0 2 -2.5 4t-7 4.5t-9.5 5.5t-9 7t-7 10t-3 13q0 6 3.5 11.5t10.5 5.5h2h2
q1 -1 3 -2.5t4 -4t4 -4t3 -2.5q0 -1 1.5 -1.5l1.5 -0.5q2 0 4 2l3 3v8q0 9 -5 16t-11 14t-11 14t-5 17v2.5v2.5zM140 170v-3.5v-2.5q0 -2 0.5 -4t0.5 -4t0.5 -3.5l0.5 -1.5h26v23l-0.5 0.5l-0.5 0.5q-4 3 -6 2.5t-6 -0.5h-5q-3 0 -5 -0.5t-3.5 -2t-1.5 -4.5zM143 131
q0 -6 1.5 -9.5t4 -5t6.5 -2t10 -0.5q2 0 3 0.5t2 3.5v4.5v4.5v2.5v5.5t-1 5t-2 2h-22l-0.5 -1t-1.5 -2v-8zM146 102q0 -3 2.5 -6t5.5 -6t6.5 -5t6.5 -2q2 0 3 1.5t1.5 4t0.5 5v3.5v3.5v2.5l-5 5h-17q-3 0 -3.5 -2.5t-0.5 -3.5zM155 58q0 -2 2.5 -4.5t6 -4.5t6.5 -3t5 -1
t5.5 1t6.5 3t6 4.5t5 4.5q-3 4 -7 5.5t-8 1.5q-2 0 -3 -1t-1.5 -2t-1.5 -1.5t-4 -0.5l-0.5 0.5t-0.5 1.5q-1 0 -2.5 3t-2.5 3t-3 -1t-4 -2.5t-3.5 -3.5t-1.5 -3zM72 50v-3t2 -2h25q1 0 3 1t2 3q0 3 -2 5t-5 3.5t-6 2t-5 0.5q-6 0 -10 -1.5t-4 -8.5z" />
</svg>
