<?xml version="1.0" standalone="no"?>
<!DOCTYPE svg PUBLIC "-//W3C//DTD SVG 1.1//EN" "http://www.w3.org/Graphics/SVG/1.1/DTD/svg11.dtd" >
<svg xmlns="http://www.w3.org/2000/svg" xmlns:xlink="http://www.w3.org/1999/xlink" version="1.1" viewBox="-10 0 266 256">
   <path fill="currentColor"
d="M163 194q3 0 5.5 4t5.5 10t5.5 13t5 13t5 10t4.5 4q3 0 5 -2.5t2 -5.5q0 -4 -2 -9.5t-5.5 -11t-6.5 -10.5t-6 -9q-1 -3 -2 -4l-2 -2t-1.5 -2t-0.5 -3t1.5 -5l3 -6t2.5 -6t1 -7q0 -7 -4.5 -11t-11.5 -6t-14.5 -2.5t-11.5 -0.5h-4h-7h-9h-7h-5h-8h-8h-5q-1 1 -2.5 3t-0.5 3
q0 2 1.5 2.5t2.5 0.5q10 0 19.5 -1t19.5 -1h5q3 0 5.5 0.5t5 0.5t6.5 1q1 0 4.5 1t7 1.5t6.5 1.5l3 1v7v4q0 2 -0.5 4t-2 3.5t-3.5 1.5h-2l-2 -1.5l-2 -1.5q-1 0 -2.5 -0.5t-4 -1.5t-4.5 -1.5t-3 -0.5q-8 -2 -16 -2.5t-16 -0.5h-3h-7t-11 0.5t-11.5 0.5h-7.5l-3.5 3.5
t-1.5 3.5q0 4 3 4q10 0 20 -1.5t20 -1.5h10.5t13 0.5t12.5 2.5t9 6q-3 3 -9 5t-13.5 3t-14 1.5t-9.5 0.5h-3h-4t-7 -0.5t-7 -0.5h-4q-6 2 -6 8q0 1 1 2t2.5 1.5t3.5 0.5h3h2q4 -1 11 -1t14.5 -0.5t14.5 -1t11 -2.5q2 -1 5 -2t6 -3t6 -3t4 -1zM63 147q1 1 2 1h2h1q1 0 3 -1
t2 -2v-15l1 -1q1 -1 3.5 -1t5 -1t5.5 -1.5t4 -1.5h24h2.5t3 -0.5t3 -1.5t1.5 -2t-0.5 -2t-1.5 -1h-18q-3 0 -4 -3t-1 -5v-2q0 -2 2 -2q1 0 3 -0.5t4.5 -0.5t4.5 -0.5t3 -0.5q2 0 3.5 -1t1.5 -3t-1 -2.5t-3 -0.5h-2h-4h-4h-3q-3 -2 -3 -6q0 -3 2.5 -3.5t5.5 -0.5q4 0 7 -0.5
t3 -4.5q-2 -1 -5.5 -1.5l-7 -1t-5.5 -2t-2 -5.5v-1.5t1 -2.5q4 1 8.5 4t10.5 3q1 0 1.5 -2t0.5 -3q0 -3 -3 -5t-6.5 -3.5t-6.5 -3.5t-3 -5q0 -1 3 -2.5t6.5 -3t6.5 -2.5t4 -2v-1v-1q0 -2 -5 -6.5t-11 -9.5t-11.5 -8.5t-6.5 -3.5h-1q-3 1 -5.5 4t-4.5 6t-3.5 6.5t-2.5 4.5
q-1 2 -4 4t-6 5t-5 6t-2 5t0.5 3t1.5 1h1q2 0 4 -1.5t3.5 -2.5l3 -2t3.5 -1q4 0 7 2t5 3q-3 8 -8.5 14.5t-8.5 14.5q-2 6 -3 11.5t-1.5 10.5t-0.5 10v12v4v5v6v4zM139 132v1q0 1 0.5 3t1.5 3v0q4 0 5 -2.5t1.5 -5t1.5 -5.5t5 -4h12h8q3 0 6.5 0.5t7.5 0.5t9 1q2 -1 3 -2
t1 -3q0 -3 -1.5 -4t-4.5 -1h-2t-3.5 0.5t-3 0.5h-2.5h-2q-3 0 -4 -1.5t-1 -2.5q0 -2 0.5 -4.5t0.5 -4.5h14l1.5 -1t1.5 -2v-1v-1l-1.5 -1.5l-1.5 -1.5h-12q-3 0 -3 -2v-3v-3.5t1 -2.5h14l1.5 -1.5t1.5 -2.5v0v-1q-1 -2 -3.5 -3t-5 -1t-5 -0.5t-3.5 -0.5t-2 -2.5t-1 -3.5
q1 0 2.5 -1.5l2.5 -2.5v0h1v0q1 1 2.5 2l3 2l3 2t2.5 1.5l2 1l1 0.5q2 0 3.5 -2t1.5 -3q0 -4 -3 -6t-6.5 -3.5t-7 -2.5t-5.5 -1q-1 0 -1 -1v-2q0 -4 3.5 -5.5t8 -2t8 -2t3.5 -5.5q0 -2 -5.5 -6t-11.5 -8.5t-11.5 -7.5l-5.5 -3q-2 0 -5.5 3.5t-6.5 7t-5.5 7.5t-3.5 6
q-2 3 -6.5 6t-6.5 6v0q0 2 0.5 2.5t2.5 0.5q3 0 5.5 -2.5t6.5 -2.5q1 0 3 1t3.5 2t2.5 2.5t1 2.5t-1 3t-3 5t-3.5 5.5t-1.5 3.5q-1 7 -2.5 15l-3 16t-2.5 16t-1 15zM74 115q0 -6 4 -7.5t9 -1.5h3h2q3 1 3 2.5v3.5q0 3 -2 4.5t-4.5 2.5t-6 1h-5.5q-3 0 -3 -1.5v-3.5zM148 106
q0 -1 2 -1.5l4 -1t4 -0.5h2h6q1 2 1.5 3.5t0.5 2.5t-1 3.5t-2 2.5h-14l-0.5 -1t-0.5 -2q-1 -1 -1.5 -3t-0.5 -3zM89 88h5q0 1 0.5 2l0.5 1v1q0 2 -1 3.5t-3 1.5q-1 0 -3 0.5t-5 0.5h-5h-3q0 -7 3.5 -8.5t10.5 -1.5zM150 90q0 -1 0.5 -3t2.5 -2h13q1 0 1.5 2.5t0.5 3.5v1.5
t-2 1.5h-13q-2 0 -2.5 -1.5t-0.5 -2.5zM82 76q0 -1 0.5 -3t2 -4t3 -3.5t3.5 -1.5q1 0 2 1.5t1 3v2.5v3q0 4 -1 5t-5 1q-2 0 -4 -0.5t-2 -3.5zM154 72q0 -2 1 -4l2 -4t3 -4t4 -2h1q1 1 1 2v13q0 2 -2 2h-2h-3h-2t-2 -1t-1 -2zM80 41q0 -2 1 -4t2.5 -4t2.5 -3.5t2 -2.5h1.5
h2.5t4 0.5t3 3.5q0 1 -1 3.5t-2.5 5.5t-3.5 5t-3 2q-3 0 -6 -1.5t-3 -4.5zM154 38q0 -4 4.5 -8.5t8.5 -4.5q2 0 5 1.5t5 3t4 4t2 5.5q-3 0 -5 -1t-3 -2t-2.5 -2t-3.5 -1q-1 0 -2 1.5t-1.5 4t-0.5 4.5v2h-2q-4 0 -6.5 -1.5t-2.5 -5.5zM104 36h1h1l0.5 0.5t0.5 1.5h1v0
q0 2 -1 2.5t-3 0.5v-5z" />
</svg>
