<?xml version="1.0" standalone="no"?>
<!DOCTYPE svg PUBLIC "-//W3C//DTD SVG 1.1//EN" "http://www.w3.org/Graphics/SVG/1.1/DTD/svg11.dtd" >
<svg xmlns="http://www.w3.org/2000/svg" xmlns:xlink="http://www.w3.org/1999/xlink" version="1.1" viewBox="-10 0 266 256">
   <path fill="currentColor"
d="M69 248q0 2 2 2.5t3 0.5q3 0 5 -2t3.5 -4.5t3 -5.5t3.5 -5q4 -5 9.5 -9.5t11 -10t9.5 -11t6 -12.5v-13q0 -10 -0.5 -17.5t-2.5 -12t-7 -8t-15 -7.5q-3 -1 -4 -4t-1 -6t-1 -5t-4 -2q-1 0 -2 2t-1.5 4.5t-1.5 4.5t-1 3q-11 6 -17.5 12.5t-10.5 14t-5.5 17t-1.5 22.5
q0 3 0.5 5t4.5 2q2 0 3 -1t2 -4q0 -8 0.5 -17t3 -17.5t7.5 -15t14 -10.5h2h3q10 0 15.5 3.5t8.5 9.5t4.5 14t1.5 16q0 7 -3.5 13t-9 11.5t-11 10t-9.5 8.5q-2 1 -3.5 3l-3 4l-3 4t-2.5 4q-1 1 -3 4t-2 5zM140 232l3 3q2 -2 4.5 -4t2.5 -6l-0.5 -0.5l-0.5 -0.5v-5t-0.5 -8
t-0.5 -7.5v-3.5v-1v-1l1 -2.5t2 -2.5h59q2 0 3 -2t1 -3q0 -2 -2 -3.5t-4 -1.5h-1.5t-3 0.5t-3 0.5h-1.5h-4h-4h-3h-2l-2 -3v-25h24q2 0 2 -2.5v-2.5q0 -2 -1 -4t-3 -2h-1l-2.5 0.5t-5 0.5t-4.5 0.5t-3 0.5h-1v0l-2 -2t-1 -2v-20h19q1 0 2 -2.5l1 -2.5v-1v-1l-0.5 -1.5
l-0.5 -1.5h-1q-4 0 -7 0.5t-7 0.5h-5q-1 -1 -1.5 -3t-0.5 -4q0 -3 0.5 -6.5t4.5 -3.5q2 0 4 1t3.5 2t2.5 1.5t4 0.5q1 0 3 -1.5t1 -3.5q-1 -3 -4 -4.5t-6 -2.5t-5.5 -2.5t-2.5 -4.5t2 -5t5 -3.5t6.5 -2.5t6.5 -2.5t5 -3.5t2 -6t-4 -6.5t-9 -4.5l-10 -4t-7 -5v-4v-3
q0 -4 1 -7.5t1 -7.5q0 -3 -1.5 -5.5t-4.5 -2.5t-4.5 3.5t-2 7.5t-0.5 9v6q-1 5 -5 9t-8.5 8t-9.5 7.5t-9 7.5v2q0 3 3.5 4t7.5 2.5l8 3t6 4.5q-4 5 -9.5 10t-10 10.5t-7 12t-2.5 14.5v101zM64 220q-2 2 -2 5v5h4l1 -1t2.5 -2t2.5 -2.5t2 -2.5q0 -1 3 -4t6.5 -7t8 -9t8.5 -9
t6.5 -7l2.5 -3h-0.5h-0.5q0 -1 -0.5 -1.5l-0.5 -0.5h-0.5h-0.5h-0.5h-0.5l-1.5 0.5t-1.5 1.5l-2 1q0 1 -2.5 3t-5.5 4.5t-5.5 5t-2.5 3.5q-1 1 -4 3.5t-6 6t-6 6.5zM103 164q-3 0 -9.5 4.5t-12.5 10.5t-11 11.5t-5 8.5q5 0 8.5 -2t6.5 -5t5.5 -6.5t4.5 -6.5q1 0 3 -1.5
t5 -3.5t5 -4t2 -4v-1l-0.5 -0.5t-1.5 -0.5v0zM148 179v-24h1.5t3.5 -0.5t4 -0.5h4q1 0 2.5 -0.5t4 -0.5h4.5h2v26q0 2 -1 3t-3 1.5t-4 0.5h-3h-1.5h-0.5h-3t-4 -0.5t-3.5 -0.5h-1.5zM97 150h-7l-2.5 2t-6 5t-7.5 5.5t-7 4.5q-2 2 -3 3.5t-1 4.5q4 0 9.5 -2.5t11 -6.5
t9.5 -8.5t4 -7.5zM151 145q-3 -1 -3.5 -3.5t-0.5 -4.5q0 -1 0.5 -3.5l1 -5t2 -4t3.5 -1.5h19q1 0 2 2.5t1.5 5.5t0.5 5.5v3.5q0 3 -0.5 5t-3.5 2h-2q-1 0 -4 -0.5t-6 -0.5t-6 -0.5t-4 -0.5zM56 131q0 1 1.5 2t1.5 2h1h1q2 -1 3 -4t1 -5q0 -4 -0.5 -6.5t-0.5 -3.5
q2 -7 6 -10.5l8 -7t6.5 -8t2.5 -15.5t-1.5 -23t-4.5 -23h-3.5h-3.5q-4 0 -7.5 0.5t-6.5 0.5t-7 1l-8 2q-1 0 -1.5 0.5l-0.5 0.5v1v1l0.5 0.5t1.5 0.5q0 1 4 1h4h5t3 -1l2 -0.5t3 -0.5q2 0 2.5 1t0.5 3v1.5v1.5q-1 0 -3 1.5t-4.5 3.5t-4.5 3t-2 2q-2 1 -4.5 1.5t-4.5 1.5
t-3.5 2.5t-1.5 3.5v1q0 1 0.5 1.5t1.5 0.5h1q4 0 8 -2.5t7.5 -5.5t7 -5t7.5 -2q2 0 2.5 1t0.5 3q0 3 -5.5 6.5t-12.5 7.5t-12.5 7.5t-5.5 5.5t1.5 2.5t2.5 0.5q4 0 7.5 -3l7 -6t7 -5.5t7.5 -2.5h1q0 1 0.5 4t0.5 4q-1 3 -6 5.5t-11.5 5.5t-11.5 6.5t-5 9.5h6q6 -5 12.5 -9.5
t13.5 -6.5q1 0 1.5 1t0.5 2q0 4 -3 7t-7 7.5t-7 9.5t-3 12v3v3zM108 121q0 2 0.5 3.5t3.5 1.5q0 1 1.5 0l1.5 -1l8 -26q1 -1 2.5 -2t3 -3t3 -3.5l1.5 -1.5q1 -1 1.5 -2l0.5 -1v-6v-6q0 -5 0.5 -13t-0.5 -16t-4.5 -13.5t-10.5 -5.5q-5 0 -11.5 1.5t-11.5 1.5q0 1 -1 2t-1 2
l1 1l1 1h16q0 4 -2 7t-4.5 5.5t-5.5 4.5l-6 4l2 2h1.5t3 -0.5t3 -1.5t2.5 -1l2.5 -2.5l3.5 -3.5l3.5 -3.5t3.5 -1.5q3 0 4 2t1 5q0 4 -4 6t-9 4t-9 4t-4 6v1l0.5 0.5l0.5 0.5l0.5 0.5l0.5 0.5q2 0 5.5 -2t6.5 -4t6 -3.5t4 -2.5h1q2 0 2.5 1.5t0.5 3.5q0 4 -4.5 7t-10 6
t-10 5.5t-4.5 5.5q4 0 7.5 -1.5l7 -3t6.5 -3t5 -1.5h1l3 2l-0.5 1.5t-1.5 1.5q0 1 -1.5 2t-3 3t-3 3.5l-1.5 1.5q-2 2 -3.5 5t-2.5 6.5l-2 7t-1 5.5zM156 108q0 -2 2 -5t4.5 -6t6 -5.5t5.5 -2.5h1h1l1.5 1.5l1.5 1.5l-2 19l-3 3l-2 0.5t-3 0.5h-4q-2 0 -4 -0.5t-3.5 -2
t-1.5 -4.5zM159 67v-2q2 -2 4 -4.5t4.5 -5t5.5 -4t6 -1.5q2 0 5.5 1t6.5 3t5.5 4.5t2.5 5.5t-2.5 4.5t-5.5 1.5q-2 0 -3 -1t-1.5 -2.5t-1.5 -2.5t-3 -1t-2.5 2t-1 5t-1.5 5t-4 2q-1 0 -3.5 -1t-4.5 -2.5t-4 -3.5t-2 -3z" />
</svg>
