<?xml version="1.0" standalone="no"?>
<!DOCTYPE svg PUBLIC "-//W3C//DTD SVG 1.1//EN" "http://www.w3.org/Graphics/SVG/1.1/DTD/svg11.dtd" >
<svg xmlns="http://www.w3.org/2000/svg" xmlns:xlink="http://www.w3.org/1999/xlink" version="1.1" viewBox="-10 0 266 256">
   <path fill="currentColor"
d="M60 201v39q0 2 2 5.5t5 5.5q3 -2 4 -8.5t0.5 -16t-0.5 -20.5t1.5 -20t5.5 -15t12 -6q3 0 4 3t1 7v9.5t0.5 10t2.5 8t6 4.5h10q10 0 20 -0.5t20 -0.5q9 0 15 3t9.5 7.5t6 10t4.5 10.5t4.5 8t5.5 3q2 0 3 -1t1 -4q0 -1 -0.5 -2.5t-0.5 -2.5t-1 -2t-2 -3q-3 -7 -6.5 -13.5
t-8.5 -11.5t-11.5 -8t-14.5 -3q-9 0 -18 1.5t-18 1.5t-13.5 -3.5t-6 -8.5t-1.5 -10.5v-10.5t-0.5 -8.5t-4.5 -3.5h-12l-1 2h-2t-2.5 0.5l-3 1t-1.5 1.5q-6 5 -8.5 11.5t-3 12.5t-0.5 11t-2 6zM111 186q0 3 1 3h4l1 0.5t3 0.5h3h3q17 0 34 -1.5t34 -2.5l1 -3v0q0 -2 -1 -3.5
t-2 -1.5t-3.5 -0.5t-3.5 -0.5q-5 0 -9 1t-9 1h-8q-1 0 -1.5 -2l-0.5 -2q0 -6 3 -9t7.5 -3.5t10 0t10.5 -0.5l1 -1.5t1 -2.5t-2 -2l-2 -1h-8q-4 0 -8 1t-8 1q-3 0 -3 -3q0 -4 4 -7t9.5 -4.5t11 -3.5t8.5 -5v-3.5v-3.5v-5t-1 -3.5t-2.5 -3l-3.5 -3.5q-2 0 -5.5 -0.5t-7.5 -0.5
t-7.5 -0.5t-5.5 -0.5h-2q-8 0 -19 1t-19 2q-1 1 -1.5 2t-0.5 2q0 2 0.5 2.5t2.5 1.5h3t4.5 0.5t4.5 0.5h3v2v1q0 6 -3 10t-7.5 7.5t-8 6.5t-3.5 6q10 0 16.5 -5.5t10 -13t6 -13t4.5 -5.5h24q4 0 6 2.5t2 6.5v3t-0.5 1.5t-2 1t-3.5 1.5q-2 0 -5 1l-6 2l-6 2t-4 1q-2 1 -3 4
t-1 6t-0.5 5.5t-1.5 2.5l-27 3q-2 0 -3.5 1.5t-1.5 2.5q0 3 1.5 3.5t2.5 0.5q6 0 11.5 -1t11.5 -1q4 0 5 2t1 5q0 4 -2 6.5t-7 2.5h-27q-2 0 -2.5 1t-0.5 2zM53 148v1q0 1 0.5 2t1.5 1h1h2q5 0 12 -1.5t13.5 -5t11 -8t4.5 -9.5q0 -4 -0.5 -8t-2.5 -8t-5 -7t-7 -3q-2 0 -3 1
t-1 3t1.5 4.5t3 4.5t3 4.5t1.5 6.5q0 3 -4.5 6.5t-10.5 6l-12 5t-9 4.5v0zM58 107q1 3 4 3q2 0 3.5 -1t2.5 -3q1 -6 0.5 -12.5t-0.5 -13t2 -12.5t7 -9q2 0 7 -0.5t10.5 -1.5t10 -1.5t6.5 -0.5h3h4h2h2l3 3v30v4v3.5t1.5 3t3.5 1.5q1 0 2 -0.5t2 -1.5v-3t0.5 -5t0.5 -5v-3v-3
t-0.5 -4t-0.5 -4v-3v-4q0 -5 1 -7t4 -3t6 -1h6q17 0 32 3q1 2 2 9.5t2.5 15.5t3 14t3.5 6q3 0 4.5 -3.5t1.5 -6.5q0 -1 -0.5 -5t-1 -9t-2 -10.5t-3.5 -10t-4.5 -7.5t-5.5 -3h-42l-2.5 -0.5t-3.5 -1.5l-0.5 -0.5l-0.5 -0.5v-12l3 -3l1.5 -0.5t3 -0.5t3.5 -0.5t4 -0.5h8
t12.5 -0.5t12.5 -0.5h8q3 -1 3.5 -2t0.5 -3q0 -4 -3 -4h-5q-16 0 -31 1t-30 2.5t-30.5 2t-31.5 0.5l-2 2l-2 2v1q0 3 2 4t4.5 1.5t4.5 0.5h4q11 0 22 -2t23 -2h4q0 1 0.5 2.5t0.5 3.5t0.5 4l0.5 2v1.5v0.5q0 3 -3 3.5t-5 0.5l-49 5q-5 0 -7.5 6t-3 13.5t-0.5 15v10.5v5
q0 4 1 5zM81 90q0 3 2.5 3.5t5.5 0.5q5 0 10.5 -0.5t11.5 -1.5q2 0 2 -1v-2q0 -2 -1.5 -3t-3.5 -1h-2h-1q-1 0 -4.5 0.5l-7 1t-7 0.5t-5.5 1v1v1zM149 92h2.5h3.5h4.5h2.5l1.5 0.5t3 0.5t3 0.5l1.5 0.5q6 0 6 -6q0 -1 -1.5 -2t-4 -2t-4.5 -1h-3q-2 0 -5 0.5l-6 1t-5 1.5
t-2 2v1zM81 71q0 3 2 3h11q1 0 4.5 0.5t7 0t6 -1.5t2.5 -3t-1 -2.5t-2.5 -1t-3 0t-2.5 0.5q-2 0 -6 -0.5t-8 0t-7 1.5t-3 3zM146 69q0 1 1.5 2t2.5 2h10h3.5t5.5 -0.5t5.5 -1.5t2.5 -4v0q0 -1 -0.5 -1.5l-0.5 -0.5h-27q-1 0 -2 1.5l-1 1.5v1z" />
</svg>
