<?xml version="1.0" standalone="no"?>
<!DOCTYPE svg PUBLIC "-//W3C//DTD SVG 1.1//EN" "http://www.w3.org/Graphics/SVG/1.1/DTD/svg11.dtd" >
<svg xmlns="http://www.w3.org/2000/svg" xmlns:xlink="http://www.w3.org/1999/xlink" version="1.1" viewBox="-10 0 266 256">
   <path fill="currentColor"
d="M89 245q1 3 1.5 5t3.5 2q1 0 2.5 -0.5t1.5 -2.5v-68l2 -2l3 -3h1q5 0 7 4.5t3 10.5t1 12v8t-1 5t-1 5q0 2 1.5 3t3.5 1t3.5 -1.5t2 -4t0.5 -4.5v-4v-8.5t-1 -10.5t-2 -9.5t-3 -7.5t-5.5 -4t-6.5 -2t-5.5 -3.5t-2.5 -7.5q0 -4 4 -5.5t9 -2.5t9 -3.5t4 -8.5v-21q0 -1 -2 -1
h-2q-4 0 -4.5 4t-0.5 9t-1.5 9.5t-7.5 4.5h-5l-0.5 -0.5t-0.5 -1.5v-32q0 -1 -1 -1.5t-2 -0.5t-2 0.5t-1 1.5q-3 9 -2 18.5t1 17.5q-7 0 -11 -2t-6 -5t-2.5 -6.5l-1 -7t-2 -5.5t-5.5 -2q-1 0 -2 2.5l-1 2.5v0q0 10 2 15.5t5.5 9t7 4.5t7 1.5t5.5 1.5t2 3v11q-10 0 -16 4
t-9.5 11t-4.5 15.5t-1 16.5q0 1 0.5 4t0.5 4q0 3 1.5 3h3.5q3 0 4 -3.5t1.5 -9t0.5 -12t1 -12t4.5 -9.5t9.5 -4q2 0 3.5 1t0.5 4v13v13q0 2 -0.5 7.5t-0.5 11.5t-0.5 11.5t-0.5 7.5zM139 175q0 6 -0.5 13t0.5 14t2.5 13.5t5.5 10.5q1 2 3.5 2.5t5.5 1t5.5 0.5h4.5
q5 0 10.5 -0.5t10 -2.5t7.5 -6t3 -11v-64q-2 -8 -2.5 -13.5t-2.5 -9.5t-6 -5.5t-15 -1.5q-5 0 -10 0.5t-9.5 2t-7.5 5t-3 9.5q-1 6 -1 11.5t-0.5 10t-0.5 9.5v11zM150 215q0 -1 -1 -3t-1 -4t-0.5 -4.5l-0.5 -2.5v-1q0 -3 1.5 -4.5l2.5 -2.5q8 0 14 -1t13 -1q4 0 7.5 2.5
t3.5 7.5q0 1 -0.5 4t-2 6.5t-3 6t-3.5 2.5h-24q-2 0 -4 -2t-2 -3zM145 177v-5v-6t1 -5.5t4 -3.5q4 0 7.5 -0.5t6.5 -1t6 -0.5h7h9l0.5 1l0.5 1q1 1 1.5 5t0.5 6v1q0 3 -0.5 7t-2.5 7q-5 0 -8.5 0.5l-7 1t-6.5 0.5h-7q-1 0 -4.5 -0.5t-4.5 -0.5q-3 0 -3 -2.5v-4.5zM148 141
q0 -6 1 -9t5 -7h3t4 -0.5l4 -1t3 -0.5q10 0 15 4t5 14q0 2 -1 5t-4 3h-32l-3 -3v-2v-3zM57 101q1 1 2 3t2 2q2 0 4 -2l3 -3q0 -7 -0.5 -14.5t0.5 -14t4.5 -11.5t10.5 -7q1 0 3.5 -0.5t5.5 -1l6 -1t5 -1.5h23v49q0 2 1.5 3t2.5 1q2 0 3 -1.5t2 -3.5v-3v-4.5v-4.5v-3
q0 -7 -1 -13.5t-1 -13.5q0 -4 1 -5.5t5 -2.5h7t10 0.5t9.5 1t6.5 0.5q6 0 9.5 4.5t5.5 11t2 13.5v12v0q0 1 -0.5 2t-0.5 2.5t-0.5 2.5l-0.5 1q0 1 1.5 2t2.5 2v0q2 0 3.5 -2.5t2.5 -4.5v-10v-11t-1 -14t-4 -12t-9 -6l-47 -3l-3 -2v-1.5v-2.5v-1.5v-3.5t2 -2q2 -1 8 -1h13
t14 -0.5t13 -1t10 -1.5t4 -3v-2t-2 -2h-26l-1 2h-68h-2.5t-3 0.5t-3 0.5h-2.5t-5.5 0.5t-9.5 0.5t-9 0.5t-6 0.5v1.5v1.5q0 2 0.5 3.5t2 1.5h3.5h4q10 0 19.5 -1t19.5 -1h6q4 0 6.5 1t4 3t1.5 7v0q-1 1 -1.5 2t-0.5 2l-18 2l-18 2q-12 2 -18.5 4.5t-9 6.5t-3 12t-0.5 22v10z
M79 92q0 2 0.5 2.5t3.5 0.5l29 -4q2 0 2.5 -0.5t0.5 -2.5q0 -3 -3 -3h-2h-1q-1 0 -5 0.5t-8 0.5t-7.5 0.5t-5.5 0.5t-3 1t-1 4zM144 91v0q0 1 1 1.5t2 0.5h8h10.5t11.5 -2q1 0 1 -1v-2v-1l-28 -2q-3 0 -4.5 1.5t-1.5 4.5zM79 69q1 3 4.5 4t5.5 1q1 0 3.5 -0.5t6 -0.5
t6.5 -0.5t4 -0.5q2 0 4.5 -1.5t2.5 -3.5v-1q0 -1 -1 -2t-2 -1v0q-2 0 -7.5 0.5t-11 1.5t-10.5 2.5zM144 68q0 2 0.5 3t2.5 1q7 0 14 -1t14 -1q1 0 2 -1t1 -2v0v-1q-3 -2 -6 -2h-6q-7 0 -11 0.5t-11 1.5v1v1z" />
</svg>
