<?xml version="1.0" standalone="no"?>
<!DOCTYPE svg PUBLIC "-//W3C//DTD SVG 1.1//EN" "http://www.w3.org/Graphics/SVG/1.1/DTD/svg11.dtd" >
<svg xmlns="http://www.w3.org/2000/svg" xmlns:xlink="http://www.w3.org/1999/xlink" version="1.1" viewBox="-10 0 266 256">
   <path fill="currentColor"
d="M174 209q2 0 3.5 3t3 7.5t3 9.5t3 9.5t3 7.5t3.5 3h3t2 -1v-6q0 -6 -2 -10.5t-4.5 -9t-4 -9t-1.5 -9.5q0 -3 0.5 -5t1.5 -3t2 -2.5t2 -3.5q1 -6 1 -10v-9q0 -1 -0.5 -3.5t-2 -4.5t-3 -3.5t-3.5 -1.5h-41q-3 0 -6.5 1.5t-3.5 4.5q0 1 0.5 2.5t1.5 1.5h45q4 0 5 3t1 5
t-0.5 4.5t-2 4.5t-3 3.5t-3.5 1.5q-4 0 -7.5 -2t-6.5 -4h-25q-1 0 -2.5 1.5l-2.5 2.5l0.5 1.5t1.5 1.5q0 1 0.5 1.5l0.5 0.5h15h3.5t5.5 0.5t5.5 2t2.5 2.5q0 4 -2 6t-5 3t-6.5 1.5t-5.5 0.5q-1 1 -3 1t-4.5 0.5t-5 0.5h-3.5l-3 3t-1 4t1.5 3h3.5q10 0 19.5 -4t19.5 -8h1z
M61 241q0 2 2 2h3t3.5 -0.5t2.5 -3.5v-24l1 -4q1 0 4.5 -0.5t5.5 -1.5h7t11 -0.5t10.5 -2t4.5 -4.5v-0.5v-0.5l-1.5 -1.5l-1.5 -1.5h-3.5h-3.5q-7 0 -13 1t-13 1q-3 0 -5.5 -0.5t-4.5 -3.5v-3v-4v-5.5t2 -5.5q9 -1 18.5 -1.5t19.5 -1.5q0 -1 1 -2l2 -2v0q0 -2 -2.5 -4
t-3.5 -2q-8 0 -15.5 2.5t-14.5 2.5q-3 0 -4 -1t-1 -4q0 -7 3.5 -11t8.5 -6t11 -3t11 -2.5t8.5 -4t3.5 -8.5t-2.5 -9.5t-6 -5.5t-8 -3t-9.5 -1q-2 0 -6 0.5t-5 0.5q-2 0 -5.5 1t-6.5 1.5t-5.5 1t-2.5 1.5v7q7 0 14.5 -2t15.5 -2h5q2 0 4 0.5t3 2.5t1 5q0 5 -3 7t-7.5 3
t-10 1.5t-10 2.5t-8 6.5t-4.5 12.5q0 2 -0.5 5.5t-0.5 7t-0.5 6t-0.5 3.5l0.5 2t0.5 4t0.5 3.5t0.5 2.5q0 7 -1.5 14t-1.5 14v1q0 1 0.5 3.5l1 5l1 5t0.5 3.5zM136 141v1q1 0 1.5 0.5l0.5 0.5h7h13.5t17.5 -2t15.5 -5t6.5 -9t-2.5 -10.5t-7 -7t-10 -3.5t-10.5 -1h-7t-10 0.5
t-9 2t-4 5.5q0 2 1 2.5l2 1t2.5 0.5h3.5q5 0 10 -1t10 -1h3h3.5h3.5h2q4 2 4.5 3t0.5 6t-3.5 7.5t-9 3t-11.5 0t-11 0t-9 1.5t-4 5zM56 99q0 2 1.5 2.5t2.5 0.5q5 0 6.5 -5.5t2 -12.5t1 -14.5t3.5 -12.5q2 -2 7.5 -4t12 -3.5t12.5 -2t9 -0.5t6.5 0.5t3.5 4.5t-1 7t-1 6v4
q0 1 0.5 5t0.5 8.5t0.5 8.5t0.5 6q0 1 1 1.5t2 0.5q3 0 4.5 -3t1.5 -6v-2v-5v-5v-3t0.5 -4.5t0.5 -7.5t0.5 -7.5t0.5 -4.5q2 -4 5 -4.5t6 -0.5q17 0 26 1.5t13 6.5t5 15t2 26q0 2 1.5 2h2.5q4 0 4.5 -3.5t0.5 -7.5q0 -20 -1.5 -30t-7.5 -14t-16.5 -4t-28.5 -1h-14
q-1 0 -2 -2t-1 -3l0.5 -1t0.5 -2.5t0.5 -3t1.5 -1.5q3 0 8.5 -0.5t12.5 -0.5t12.5 -0.5t7.5 -0.5t5 0.5t6.5 0t5.5 -2t2 -5.5v-1l-1 -1.5t-2 -1.5h-6q-15 0 -29 1t-28.5 2t-29 1.5t-28.5 0.5q-3 0 -4 1.5t-1 3.5t0.5 3.5t2.5 2.5h10q7 0 14.5 -1.5t16.5 -1.5q2 0 5 0.5
t5.5 1.5t4 3.5t1.5 6.5q0 1 -2.5 2l-2.5 1h-20q-1 0 -3.5 0.5t-3.5 1.5q-12 2 -19 3.5t-11 5.5t-5 11.5t-1 21.5v16zM80 86q0 2 2 3t4 1h2h4t6.5 -0.5l7 -1t4.5 -0.5t1 -1v-2v-1.5t-1 -1.5h-4.5h-4.5h-4.5h-7t-6.5 1t-3 3zM143 84l0.5 1.5l0.5 1.5h34l1 -1.5l1 -1.5
q1 -2 0 -3t-3 -1.5t-4 -0.5h-3h-4h-4t-6.5 0.5t-6.5 0.5h-5q0 1 -0.5 2t-0.5 2zM78 66v1v0l1 0.5t1 1.5h11h5.5h7t6.5 -1.5t3 -3.5q0 -3 -2 -3.5t-3 -0.5h-6q-4 0 -9.5 0.5t-10 2t-4.5 3.5zM144 61v7h5t6.5 -0.5t6.5 -0.5h4q3 0 6.5 -1t5.5 -4l-4 -3z" />
</svg>
