<?xml version="1.0" standalone="no"?>
<!DOCTYPE svg PUBLIC "-//W3C//DTD SVG 1.1//EN" "http://www.w3.org/Graphics/SVG/1.1/DTD/svg11.dtd" >
<svg xmlns="http://www.w3.org/2000/svg" xmlns:xlink="http://www.w3.org/1999/xlink" version="1.1" viewBox="-10 0 266 256">
   <path fill="currentColor"
d="M116 247q0 1 0.5 2.5t2.5 1.5q4 0 7.5 -4.5t5.5 -10.5t3 -12t1 -9q0 -6 -1 -12t-1 -11q0 -6 1 -11.5t1 -10.5q0 -9 -3 -17.5t-8 -16.5v-17q0 -2 -1 -2.5t-2 -0.5q-2 0 -3.5 1.5t-2 3t-0.5 4.5v4q0 7 2.5 12t5 9.5t4.5 9.5t2 11t-2.5 11t-2.5 12q0 5 2 9.5t2 9.5t-2 9
t-4.5 8t-4.5 8.5t-2 8.5zM76 246q1 2 2 2.5t3 0.5h3.5t2.5 -1q0 -2 0.5 -5.5t1 -7.5t0.5 -7.5t1 -5.5l0.5 -2l0.5 -2q4 -8 8 -14t7.5 -12t6 -12.5t2.5 -16.5q0 -9 -2.5 -17.5t-6.5 -17.5q-1 -2 -4.5 -4t-5.5 -3h-18q-3 0 -5.5 3t-5 7t-4 8t-2.5 6q-1 3 -1 7.5t-0.5 8.5l-1 8
t-3.5 7v24h9l2 -3v-3.5v-4.5v-5.5v-2.5v-3t0.5 -3.5t1.5 -3t2 -1.5q4 0 6.5 2.5t4 6t3.5 6.5t4 3q3 0 3 -4q0 -6 -3.5 -10t-7.5 -7.5t-7.5 -6t-3.5 -6.5q0 -3 1 -7t6 -4t8.5 4t6 8.5t4.5 8t4 3.5t2.5 -1.5t0.5 -3.5q0 -5 -4 -9.5t-8.5 -8t-8 -6t-3.5 -5.5q0 -1 1 -2t3 -1.5
l4 -1t3 -0.5q4 0 7.5 3.5t6 8.5t4 10t1.5 8q0 10 -2 17.5t-5.5 13.5t-8 11t-8 10.5t-6 12t-2.5 14.5v4.5v4.5zM154 206q0 11 -2.5 22t-2.5 22q4 0 7 -2.5t4 -7.5q1 -10 2 -18.5t1 -17.5q0 -6 -1.5 -11.5t-3 -10.5t-3 -10.5t-1.5 -11.5q0 -5 4 -8h3.5h2.5q4 0 8 1l8 2t7.5 2
t7.5 1q3 0 4 -1.5t1 -3.5t-3.5 -3t-10 -2t-13.5 -2.5t-13 -3.5t-10 -6t-4 -11q0 -5 2 -9.5t2 -9.5q0 -2 -1.5 -2.5t-2.5 -0.5h-2.5t-1.5 1q-1 6 -1.5 10t-0.5 9q0 3 1.5 6.5t3 6.5t2.5 6.5t1 6.5q0 4 -1 8.5t-1 9.5t1.5 9.5l3 9t2.5 9.5t1 11zM176 241q0 3 1 5.5t5 2.5v0
q1 0 1.5 -0.5l0.5 -0.5q0 -6 0.5 -10.5t0.5 -9v-8.5v-9t-0.5 -9t-1.5 -7.5l-2 -7t-1 -7.5h19l0.5 -1.5t0.5 -2.5t-1 -1.5t-3 -1t-3 -0.5h-3q-4 0 -8 0.5t-9 0.5q-1 1 -2 2.5t-1 3.5q0 4 1.5 8.5t3 9.5t2.5 10t1 10q0 6 -1 11.5t-1 11.5zM161 121q0 5 3 8t7 4.5t8.5 2
t8.5 0.5q2 0 2.5 -0.5t0.5 -4.5q0 -3 -2.5 -4t-6 -1.5t-6.5 -0.5h-4l-1.5 -4.5t-0.5 -3.5v-2l0.5 -1.5t1.5 -2.5t1 -2v-2q1 -2 -0.5 -2.5t-2.5 -0.5q-3 0 -4.5 2t-2.5 5t-1.5 5.5t-0.5 4.5zM121 101q-1 3 1 3.5t3 0.5t3 -0.5t2 -1.5v-8.5v-12.5v-13v-8v-3t0.5 -4t0.5 -4
t1 -3q2 -3 5.5 -3.5t7.5 -0.5h8.5t7.5 0.5t8.5 1t9.5 1.5q3 0 5 2t3 4q-1 11 -0.5 22t1.5 21l2 2v0q3 0 4.5 -1t2 -2.5t0.5 -3.5v-4v-6v-9.5t-1 -11t-2.5 -10t-4.5 -7.5t-7 -4l-50 -2q-1 -1 -1 -3v-2q0 -2 0.5 -4.5t2.5 -2.5q14 -2 29 -2h28q2 0 2.5 -0.5t0.5 -2.5
q0 -1 -1.5 -2.5t-2.5 -1.5h-36q-1 0 -3.5 0.5l-2.5 0.5h-1q-19 0 -38 -1.5t-38 -1.5h-5q-2 1 -2 2.5v2.5v2t2 2h55v12l-3 3h-30q-5 0 -10 0.5t-9 2.5t-7 5t-4 9v3.5t-0.5 8t-0.5 9v7.5v4v3.5v3t1 2.5t3 1q4 0 5 -3t1.5 -7.5t0 -10.5t-0.5 -11t1 -9t4 -6q10 -2 22 -4t24 -2h2
t3 2v14q0 8 -1 16t-1 16v2v3v3v2zM76 83q0 3 2.5 4t5.5 1q2 0 6.5 -0.5t10 -1.5t9.5 -1.5t4 -1.5v-1q-1 -1 -1.5 -2l-0.5 -1h-33q-2 0 -2.5 1t-0.5 3zM139 80v2t2 1h35q1 0 2 -1t1 -2v0v0v-1q0 -1 -1 -1.5t-2 -0.5h-33q-2 0 -3 0.5t-1 2.5zM107 58h-4h-7t-8 0.5t-6.5 0.5
h-2.5l-1 6h30q1 0 2.5 -1t1.5 -3q0 -3 -1.5 -3h-3.5zM139 61l0.5 1t1.5 2l0.5 0.5l0.5 0.5h35q0 -3 -1.5 -5t-5.5 -2h-27l-1 0.5l-1 0.5l-1.5 1.5z" />
</svg>
