<?xml version="1.0" standalone="no"?>
<!DOCTYPE svg PUBLIC "-//W3C//DTD SVG 1.1//EN" "http://www.w3.org/Graphics/SVG/1.1/DTD/svg11.dtd" >
<svg xmlns="http://www.w3.org/2000/svg" xmlns:xlink="http://www.w3.org/1999/xlink" version="1.1" viewBox="-10 0 266 256">
   <path fill="currentColor"
d="M95 247q0 4 3 4h0.5h1.5q3 -3 6 -9t5.5 -12t4.5 -11t3 -6h3t5 -0.5t5 -0.5h3h4q5 0 7.5 5.5t4 12t4 11.5t8.5 5q2 0 3 -0.5t1 -2.5q0 -5 -2 -9t-4.5 -7.5t-5 -7.5t-2.5 -9q1 -1 3 -1.5t3 -1.5q10 -4 17 -11t7 -19t-4 -18.5t-10.5 -9.5t-16 -4.5t-20.5 -1.5
q-8 0 -17.5 0.5t-17.5 3.5t-13 9t-5 16q0 5 0.5 8t1.5 6t3 6t5 6q1 2 4 4.5l6 5t5.5 5l2.5 2.5q0 4 -2 8l-4 8l-4 8t-2 8zM101 197q0 -1 1.5 -2t4 -1.5t4 -1t2.5 -0.5h53q0 3 -3.5 5.5t-8 3.5t-10.5 2t-11 1h-8h-5h-4.5t-6.5 -0.5t-5.5 -2t-2.5 -4.5zM89 179q0 -3 4.5 -4
t11 -2t14.5 -1.5t15.5 -0.5h13.5h7h6t5.5 0.5t4.5 2t2 4.5v4t-2 3h-8.5h-12.5t-15 0.5t-15.5 0.5h-13h-8.5h-3q-3 0 -4.5 -2t-1.5 -5zM89 163v0q1 -1 3 -3.5t3 -2.5q2 -1 5.5 -2t7.5 -2t7.5 -1.5t4.5 -0.5t2.5 -0.5t3.5 -0.5h4h4h2h4.5t4 0.5t2.5 0.5q2 0 5.5 1l7 2t6.5 3
t4 4q0 1 -0.5 2t-1.5 1q-15 -1 -30.5 0.5t-31.5 1.5h-3t-4.5 -0.5t-4.5 -0.5h-3q-1 0 -1.5 -0.5l-0.5 -0.5v-0.5v-0.5zM84 121q0 9 5 13t12 5.5t14.5 1t13.5 -0.5h5.5h3.5q2 0 5.5 -0.5t8 -1t8.5 -1t5 -0.5q4 -1 7.5 -3.5t6.5 -5.5v-2.5v-2.5q0 -6 -3 -10t-8 -6.5t-11 -3
t-11 -0.5h-2h-8t-12.5 0.5t-12.5 0.5h-9q-4 2 -7.5 3t-5.5 2.5t-3.5 4.5t-1.5 7zM93 124q0 -6 5 -8.5t9 -2.5h55q3 0 4.5 3.5t1.5 5.5q0 5 -5.5 7t-12.5 3t-14 1h-10q-2 0 -7.5 0.5t-11 0t-10 -2.5t-4.5 -7zM61 106q1 1 2.5 1h2.5q4 0 5.5 -3.5t1.5 -6.5q0 -1 -0.5 -3.5
t-0.5 -5t-0.5 -5t-0.5 -3.5v-3v-4v-7t0.5 -7.5t2.5 -6t6 -3.5q10 -2 19 -3t20 -2q1 1 2.5 1.5t1.5 1.5q0 13 1 25t1 25q0 1 1 1h2q3 0 4 -2.5t2 -4.5v-14q0 -7 -1 -13.5t-1 -12.5q0 -2 0.5 -4t2.5 -3h5t6.5 -0.5t6.5 -0.5h5v0q11 0 16.5 2t8 6.5t2.5 10v12.5q0 6 0.5 13.5
t3.5 15.5h1h1q2 0 3.5 -0.5t2.5 -2.5v-5v-5q0 -7 -1.5 -13t-1.5 -13q-1 -5 -1.5 -10t-2.5 -9t-6 -7t-10 -3h-36q-2 0 -3.5 -1.5t-2 -4t-0.5 -4.5v-4q0 -3 3 -5t6 -2h48q2 0 2.5 -1.5t0.5 -2.5v-3t-1 -2h-13q-28 0 -57 2t-57 5q-2 0 -3.5 1t-1.5 2q0 3 3.5 4.5t5.5 1.5
q11 0 22 -1.5t22 -1.5h8q2 2 2 3.5v3.5q0 3 -0.5 6t-2.5 6q-7 0 -17 -0.5t-19 1.5t-15.5 7t-6.5 14v4q0 2 -0.5 6t-0.5 7v7v4t0.5 7t0.5 7v5zM83 87q0 3 1 3.5t4 0.5q6 0 11.5 -0.5t11.5 -1.5q2 0 3.5 -1t1.5 -2q0 -2 -2.5 -3t-3.5 -1h-3h-4.5t-7 0.5t-6.5 0.5h-5q-1 1 -1 2
v2zM143 86v0q0 1 0.5 1.5l0.5 0.5h29q1 0 2.5 -1.5t1.5 -2.5v-0.5v-0.5l-1 -1l-2 -2h-7h-5t-8.5 1t-7.5 2t-3 3zM82 67q-1 0 -0.5 1.5t1.5 1.5h8h11t11 -2l3 -3v0q0 -2 -1.5 -3t-2.5 -1h-2q-2 0 -5.5 0.5t-6.5 0.5h-6h-3q-1 1 -4 2t-3 3zM143 62v2t1 1h30q0 -4 -2 -5.5
t-6 -1.5h-6h-8t-6.5 1t-2.5 3z" />
</svg>
