<?xml version="1.0" standalone="no"?>
<!DOCTYPE svg PUBLIC "-//W3C//DTD SVG 1.1//EN" "http://www.w3.org/Graphics/SVG/1.1/DTD/svg11.dtd" >
<svg xmlns="http://www.w3.org/2000/svg" xmlns:xlink="http://www.w3.org/1999/xlink" version="1.1" viewBox="-10 0 266 256">
   <path fill="currentColor"
d="M84 183q2 0 3.5 0.5t1.5 2.5v59q0 2 1.5 2.5t2.5 0.5q2 0 3.5 -1.5t2 -3t0.5 -4.5v-3q0 -10 -1 -20t-1 -21v-10l2 -3h13l0.5 1t1 3t0.5 4v3q0 2 -0.5 7.5t-1 11.5l-1 12t-0.5 7v4q0 2 0.5 5t3.5 3t4 -3.5t2 -8t1 -9.5v-5v-8v-12q0 -6 -0.5 -13t-1 -13t-1 -11t-2.5 -7
t-5 -2t-5.5 -0.5t-4.5 -1t-2 -4.5t2.5 -7t6 -5t8 -4t8.5 -4t6.5 -4.5t2.5 -5.5q0 -1 -1 -3t-3 -4t-4 -3t-3 -1h-44q-1 0 -1.5 1t-0.5 2q0 2 1.5 3t3.5 1h4.5t7.5 -0.5t7.5 -0.5h4.5h4h3t4 1t3.5 2t1.5 3v1l-2 2l-1 1q-2 1 -4.5 2.5t-5 2.5t-4.5 2l-2 1h-3l-1 1t-2 3t-2.5 4
t-2.5 4q0 1 -0.5 2t-0.5 2t-0.5 1.5t-2.5 1.5q-1 0 -4 -1t-4 -2q-4 -2 -6 -6.5t-3 -10t-1.5 -9.5t-3.5 -4h-1q-1 1 -1 2v24q0 5 2 7t4.5 3t6 1t6.5 1.5t5 5.5t2 11v4.5t-2 3.5q-12 0 -18.5 6.5t-9 15.5t-2.5 19.5v19.5q0 2 1 3.5t3 1.5q3 0 4.5 -2.5t1.5 -4.5v-33
q0 -3 1.5 -6.5t3.5 -6.5t5 -5t6 -2zM184 166q0 3 0.5 8t1 11t1 11.5t0.5 7.5v5v9v8v5q0 2 0.5 4t1.5 4.5t2.5 4t3.5 1.5t3 -2.5t1 -3.5q0 -7 -0.5 -14.5l-1 -15t-1.5 -15t-1 -12.5q-1 -6 -3 -11.5t-2 -10.5v-1q1 -1 3 -2.5t3.5 -3.5l3 -4t1.5 -4q0 -6 -2.5 -9.5t-6.5 -5
t-9 -1.5t-9 -0.5t-6.5 -1.5t-2.5 -4t3 -4t5 -2q2 0 5.5 0.5t7.5 0.5t8 0.5t5 0.5h1h1q2 0 2.5 -2t0.5 -4q0 -3 -4 -3q-3 0 -5 0.5t-4 0.5h-1h-3t-4.5 -0.5t-5 -0.5h-2.5q-2 -1 -3.5 -0.5t-3.5 -1.5q-1 -2 -1 -4.5t-3 -2.5q-1 -1 -2 0t-1.5 2.5l-1 3l-0.5 1.5v3.5v5.5v5.5
v3.5l-1 3h-20l-3 3l2 2h44q4 0 6.5 3t2.5 6t-0.5 5.5t-4.5 3.5l-2 -1t-4.5 -2t-4.5 -2l-2 -1h-34q-2 0 -3 1.5t-1 3.5h36l2.5 1.5t3.5 2.5l1 0.5l1 0.5q-2 3 -8.5 4.5t-14.5 1.5h-14t-6 1v3q1 0 3 0.5t5 1t4 0.5h1h1h5t6.5 -0.5t5.5 -1l2 -0.5h2.5t3 -1t2.5 -1.5t2 -0.5h2
q2 0 3 0.5t1 2.5zM135 202v12t1 13t5 10.5t12 4.5h2h1q8 -2 12.5 -2.5t7 -2.5t3 -6t0.5 -11q0 -9 -1 -16.5t0 -17.5q-1 -2 -2.5 -4t-3.5 -3.5t-4.5 -2.5t-3.5 -1q-9 0 -14.5 1.5t-8.5 4t-4.5 8t-1.5 13.5zM144 225q0 -3 2 -4.5t5 -2t6 0t5 0.5h5q2 1 2.5 2.5t0.5 2.5
q0 3 -1 5t-3.5 3t-5 1.5t-5.5 0.5t-7 -3t-4 -6zM143 207q0 -2 0.5 -4.5t3.5 -2.5h21q1 0 2 1t1.5 2t0.5 2.5v1.5q0 1 -0.5 3t-3.5 2h-3.5t-5.5 0.5t-6 0.5h-4h-3q-2 0 -2.5 -2t-0.5 -4zM143 190v-1v-1q3 -5 6 -5.5t7 -0.5q6 0 10.5 2t4.5 9h-27q-1 0 -1 -1.5v-1.5zM97 163
q0 -2 0.5 -3t1.5 -2h1.5h1.5q11 0 11 10q0 4 -2.5 5t-5.5 1q-5 0 -6.5 -3.5t-1.5 -7.5zM132 70v6q0 4 0.5 8.5t1 8t2.5 3.5h0.5h0.5l0.5 -0.5l0.5 -0.5q1 -1 2 -3.5l1 -2.5v-38l1 -2t2 -2h2h4h3h3h8t12 0.5t10 2t4 4.5v1.5t-2 1.5h-18q-10 0 -18 2l-0.5 0.5t-0.5 1.5h-1v0
q0 1 1 1l1 1.5l1 1.5h9q6 0 13 -1t13 -1q2 0 3.5 1.5t1.5 3.5v4t0.5 6t0.5 5.5t0.5 3.5t1 3.5t2.5 2.5t3 -1.5t1 -2.5v-35q0 -6 -4 -9t-9.5 -4t-11.5 -1t-10 -1h-4.5t-7 -0.5t-6.5 -0.5h-5l-3 -2l0.5 -2.5t1.5 -4.5l0.5 -1l0.5 -1q14 -1 29 -0.5t29 -2.5q1 0 1.5 -1t0.5 -2
l-0.5 -1t-1.5 -2h-8q-5 0 -9 0.5t-9 1.5h-9h-13h-17h-16h-13h-9q-1 0 -3.5 0.5t-5.5 0.5h-5.5h-2.5q-1 0 -3 0.5t-4 0.5t-4 -0.5t-3 -0.5q-1 1 -1 2v1q0 3 2.5 4t6 1h7h5.5q6 0 12 -1t13 -1h3h4.5h4.5h2q4 0 4.5 3t0.5 5v1.5t-1 1.5q-3 1 -8.5 1.5t-12.5 1t-14.5 1.5t-14 2
t-11 3t-5.5 4l-2 10t-1 10.5v10.5v9q0 1 0.5 2.5t2.5 1.5q3 0 4.5 -3t1.5 -6.5v-8.5t0.5 -9.5t2 -8t3.5 -5.5q5 -2 11.5 -3.5t13 -2.5t13 -1h11.5q3 0 5.5 2t2.5 5v0q-1 1 -1 2.5t-1 2.5v2v3.5v3.5v2zM82 81v0l1 2h15h14h2.5t4 -0.5t4 -1.5t2.5 -3l-1 -1t-1 -2h-2.5h-1.5
q-3 0 -5 0.5t-5 1.5h-22q-1 0 -3 1t-2 3zM149 79v1l1.5 1.5l1.5 1.5h33l5 -5l-2 -1h-36l-1.5 0.5l-1.5 0.5v1zM82 62q-1 2 1.5 3t3.5 1q9 0 17.5 -1t17.5 0l1 -1.5t2 -1.5v-1q0 -2 -2.5 -3t-3.5 -1l-34 2q-1 0 -2 1t-1 2z" />
</svg>
