<?xml version="1.0" standalone="no"?>
<!DOCTYPE svg PUBLIC "-//W3C//DTD SVG 1.1//EN" "http://www.w3.org/Graphics/SVG/1.1/DTD/svg11.dtd" >
<svg xmlns="http://www.w3.org/2000/svg" xmlns:xlink="http://www.w3.org/1999/xlink" version="1.1" viewBox="-10 0 266 256">
   <path fill="currentColor"
d="M54 213q0 9 1.5 15.5t4.5 11t8.5 6.5t15.5 2q8 0 15 -1t12 -4.5t8 -9.5t3 -16t-2.5 -17t-7 -10.5t-11.5 -5t-17 -1.5t-18 4t-11 14v3q0 1 -0.5 3t-0.5 4v2zM137 213v3t0.5 6l1 6t0.5 4q0 2 1.5 4.5t4 5t5 4.5t3.5 2h27q5 0 10 -3t8 -7q0 -1 0.5 -3.5t1.5 -5.5t1.5 -6
t0.5 -4v-2v-6.5t-1 -11.5t-3.5 -11t-6.5 -5h-38q-5 0 -8.5 4t-5.5 8q0 1 -0.5 3.5l-1 5t-0.5 5.5v4zM66 225q0 -3 1 -4t3 -1.5t5 -0.5h4q3 0 4 1t1.5 3t0.5 4v3v7q-1 1 -1.5 1h-1.5q-3 0 -6 -1t-5 -2.5t-3.5 -4.5t-1.5 -5zM145 226q0 -2 1.5 -3.5t4 -2.5t4.5 -1h4q5 0 5 6
v4.5v4.5t-1.5 3t-3.5 1t-4.5 -1t-4.5 -2.5t-3.5 -4t-1.5 -4.5zM93 227q0 -4 2 -6t5 -2.5t6.5 -0.5h5.5q0 4 -0.5 7t-2 6t-4 4.5t-6.5 1.5q-5 0 -5.5 -3t-0.5 -7zM172 224q0 -5 3 -5h7q1 0 2.5 -0.5t3 0t2.5 1.5t1 3q0 5 -4 9.5t-9 4.5q-3 0 -4 -1.5t-1.5 -3.5t-0.5 -4v-4z
M66 203q0 -3 1.5 -5t3.5 -3t5 -1.5t5 -0.5q3 0 4 3t1 6v2v2.5v3t-1 1.5h-18l-0.5 -1.5l-0.5 -1.5v-2.5v-2.5zM93 209l-0.5 -2t-0.5 -3q0 -4 2.5 -7.5t6.5 -3.5q5 0 8 3.5t3 7.5v1.5v0.5l-0.5 2t-1.5 3h-7h-5.5t-4.5 -2zM144 204q0 -6 5 -9.5t10 -3.5q3 0 4 4t1 6q0 7 -4 8.5
t-9 1.5q-4 0 -5.5 -1.5t-1.5 -5.5zM170 203q0 -3 0.5 -5.5t1.5 -5.5q1 -1 2 -1h3q6 0 10 3t4 10q0 2 -1 3.5t-3 2.5t-4.5 1h-3.5q-4 0 -6.5 -2.5t-2.5 -5.5zM97 141q0 4 0.5 8.5t1.5 9t3.5 7.5t7.5 4h13q8 0 15.5 -1t12.5 -4t8.5 -8.5t3.5 -15.5q0 -3 -0.5 -6.5t-1.5 -7
t-3 -6.5t-5 -4q-2 -1 -4.5 -2l-5 -2t-4.5 -2l-2 -1l-25 4q-5 0 -8 3t-4.5 7t-2 8.5t-0.5 8.5zM107 151v-2t2 -1h14q3 0 3 2.5v3.5q0 3 -1 5.5t-4 2.5q-2 0 -4.5 -0.5t-4.5 -2t-3.5 -4t-1.5 -4.5zM134 154q0 -1 0.5 -2t1 -2.5t1.5 -2.5t2 -1h12q2 0 2 1.5v1.5q0 6 -4 9t-9 3
q-6 0 -6 -7zM107 134q0 -6 3.5 -9t9.5 -3q3 0 4.5 3.5t1.5 6.5q0 5 -4 6.5t-8 1.5h-5q-2 -1 -2 -3v-3zM134 138v-6v-5t2 -5l2.5 -0.5l2.5 -0.5q5 0 8.5 2.5t3.5 8.5q0 4 -1.5 6t-6.5 2q-3 0 -5.5 -0.5t-5.5 -1.5zM59 75v50q0 1 1.5 1.5l1.5 0.5q3 0 4.5 -2.5t2.5 -4.5
q-1 -13 -1 -27t4 -26q0 -1 0.5 -2t0.5 -2q10 -5 21 -6.5t22 -1.5h5l1.5 1.5l0.5 0.5q1 1 2 3l1 2v34q0 3 0.5 4t2.5 1t3.5 -1t1.5 -3v-40l2 -3q0 -1 3 -1t7 -0.5t8 -0.5h7q10 0 15.5 2t7.5 6t2.5 10.5t1.5 15.5v8t0.5 12t1.5 11t4 5q1 0 2.5 -1t2.5 -2v-2.5v-3.5v-4v-3
q0 -9 0.5 -19.5t-1.5 -20t-8 -16t-18 -6.5h-7h-10h-11h-7q-2 -1 -3.5 -2t-1.5 -3q0 -6 5 -9t12 -4t16 -0.5t16 0.5t12 -1t5 -4q0 -4 -2.5 -5t-5.5 -1q-29 0 -60 2t-61 3h-3.5t-5 0.5t-4 2t-1.5 3.5v2.5t1 1.5h68q0 5 0.5 8t0 4.5t-2.5 2t-7 1.5q-2 0 -8 0.5t-12.5 1.5
t-12.5 1.5t-9 0.5q-4 2 -7 5t-5 8q-1 1 -1.5 3t-1 3.5t-0.5 2.5v1zM81 94q0 1 1.5 2t3.5 1h4h3q5 0 10.5 -1t11.5 -2v-1v-2.5t-2 -1.5h-4h-4h-5q-3 0 -5.5 0.5t-5 0.5t-6.5 1l-1 1.5zM145 93q0 2 1 2.5t4 0.5h2h4h3h3h9t9 -2v-1v0q0 -2 -1 -3t-2.5 -1.5t-3 -0.5h-3.5h-3h-4
t-6 0.5t-6 0.5h-4q-2 1 -2 4zM81 75q1 1 2.5 2t2.5 1h26q2 0 2.5 -1t0.5 -3q0 -1 -0.5 -3t-2.5 -1h-5h-4q-2 0 -5.5 -0.5t-6.5 0t-6 1.5t-4 4zM144 71v0q0 1 1 2.5t2 1.5h28q3 0 3.5 -1.5t0.5 -3.5t-1.5 -2.5t-4.5 -0.5h-1h-5.5t-8 0.5t-8 0.5h-5.5l-0.5 0.5t-0.5 1.5v1z
" />
</svg>
