<?xml version="1.0" standalone="no"?>
<!DOCTYPE svg PUBLIC "-//W3C//DTD SVG 1.1//EN" "http://www.w3.org/Graphics/SVG/1.1/DTD/svg11.dtd" >
<svg xmlns="http://www.w3.org/2000/svg" xmlns:xlink="http://www.w3.org/1999/xlink" version="1.1" viewBox="-10 0 266 256">
   <path fill="currentColor"
d="M44 248v1q0 1 1 2h7q39 0 77 -2t78 -2q1 0 1.5 -1t0.5 -2q0 -2 -0.5 -2.5t-3.5 -0.5h-68l-2 -2v-2.5t-0.5 -5.5t-0.5 -6.5v-5.5v-2t-0.5 -5t-0.5 -6v-4v-5t0.5 -5.5t0.5 -4.5v-3v-3t0.5 -4.5t0.5 -4v-1.5l3 -3h19q1 0 2 2.5l1 2.5l0.5 2l1 4t1 3.5t1.5 1.5q0 1 2 3t3 2v1
v1v1v1q-6 5 -11.5 10.5l-10.5 10.5v0.5v0.5v1l0.5 0.5l1.5 1.5h1q5 0 8 -4t5.5 -8.5t5.5 -8.5t7 -4t7 2.5t3 7.5q0 3 -2.5 7t-6 7.5t-7 6.5t-5.5 5v0.5v1.5t0.5 2.5t3.5 0.5q2 -1 6 -5t8.5 -9.5t7.5 -11t3 -8.5q0 -4 -4.5 -6.5t-9.5 -5t-9.5 -5.5t-4.5 -9q0 -1 0.5 -2.5
l0.5 -1.5l3 -3h29v-3t-2 -3h-7q-34 0 -68 1.5t-68 3.5q-1 0 -1.5 0.5t-0.5 1.5t0.5 2t1.5 1h38q0 10 -2.5 13.5t-7 5.5t-9.5 3.5t-10 7.5v3v3q0 3 3 8.5t7.5 10t9 8t8.5 3.5q3 0 3 -3v-1q-3 -3 -7 -5.5t-7.5 -6t-6.5 -7t-3 -8.5t4 -7t8 -2t7.5 4t7 8.5t8.5 8t11 3.5
q0 -4 -4 -6.5t-8.5 -5.5t-8 -6.5t-3.5 -9.5v-1.5v-0.5l0.5 -1t1.5 -2l2 -2t1 -2q1 -3 1.5 -5.5t1 -4t2 -3t5.5 -1.5l2 -0.5t5 -0.5t5.5 -0.5t3.5 -0.5h1h1q1 0 1.5 0.5t0.5 1.5v69l-4 3l-4 0.5t-9.5 1t-11.5 0.5h-9h-9h-12h-13h-8q0 1 -1.5 2l-1.5 1v1zM110 115v2
q0 2 0.5 6.5t0.5 8.5t0.5 6.5l0.5 2.5l2 4q0 1 3 1t6 0.5t6 0.5h4h4q4 0 5 -1q3 0 4.5 -3.5t2 -8.5t0.5 -10v-6v-6l-2 -2q0 1 -1 3.5t-1 3.5t-0.5 2.5l-0.5 1.5h-22q-3 0 -3.5 -1.5l-1 -3t-1 -3.5t-2.5 -2q-4 0 -4 4zM58 111q0 3 0.5 7.5t1 10t2 10.5t3.5 6h11h4h6.5t6 -1.5
t2.5 -3.5v-2.5v-3.5v-3v-2v-3v-3v-3.5v-1.5q0 -1 -0.5 -3.5l-0.5 -2.5h-3v8h-24q0 -4 -2.5 -6.5t-6.5 -2.5zM164 143l1 2h32l1 -2t1 -3v-4v-7.5t0.5 -9t0.5 -7.5v-1v-1q0 -1 -1.5 -2t-1.5 -2q-2 0 -2.5 2t-2 5t-3.5 5t-7 2q-6 0 -9 -1.5t-4.5 -3t-3 -3.5t-3.5 -2q0 9 1 17
t1 16zM117 128h27q-1 4 -2 8.5t-5 6.5q-1 0 -3 -0.5t-4.5 -1t-4.5 -1t-3 -0.5q-1 -1 -3 -1.5l-2 -0.5v-10zM65 132q0 -2 0.5 -4t2.5 -2h22v12q0 2 -1.5 2.5t-4 1t-3.5 0.5h-2q-7 0 -10.5 -1.5t-3.5 -8.5zM167 133v-3v-2l0.5 -1t1.5 -1h23q1 0 1 1t0.5 2.5t0.5 2.5v1
q0 2 -1.5 4.5t-3.5 2.5h-20q-1 0 -1.5 -0.5t-0.5 -1.5v-2v-3zM48 87v3q0 3 0.5 5t1.5 3.5t4 1.5h1.5t1.5 -2v-6v-9v-10.5v-5.5q0 -3 0.5 -7t1.5 -7t3.5 -6t5.5 -3q13 -3 25.5 -4.5t24.5 -1.5q2 0 5 0.5t3 3.5v59q3 0 5.5 -1t2.5 -4v-1q0 -2 -0.5 -8.5t-1 -14t-0.5 -14v-8.5
v-6v-4l3 -2h57l1.5 1l1.5 1q3 2 5 8.5t2.5 14t1 13.5t0.5 7v3.5t0.5 5t0.5 5v3.5h2h1q4 0 4 -4v-11q0 -6 -0.5 -13t-2 -14.5t-4 -13t-6.5 -9t-10 -3.5h-57v-15l2 -2h1.5t4 -0.5t5 -0.5h4.5h16q2 0 7 -0.5t10.5 -0.5t10.5 -0.5t7 -0.5q1 0 1.5 -1.5l0.5 -1.5q0 -1 -0.5 -1.5
t-1.5 -0.5h-11q-31 0 -60.5 1.5t-60.5 3.5h-2.5h-5.5h-4.5h-3.5t-1.5 0.5t-0.5 1.5v0q0 2 2.5 3.5t4.5 1.5q17 0 34 -1.5t34 -1.5v16l-2.5 0.5t-3.5 1.5h-6t-10.5 0.5t-11.5 0.5h-9q-12 1 -18.5 3.5t-9.5 8t-4 14t-2 19.5v7zM67 87q2 2 5.5 1.5t5.5 -0.5h8h7.5t7.5 -0.5
t9 -0.5q1 0 1.5 -1l0.5 -1v-1v-1l-1 -0.5l-1 -0.5l-40 3zM149 85l1 1t2 1h1q4 0 8.5 -0.5t8.5 -1t8 -0.5h9q2 0 2 -2v-3h-3h-4.5h-4.5h-3h-6.5t-7 0.5t-6 1l-2.5 0.5zM68 62q2 2 5.5 2h5.5h7.5t10.5 -0.5t9 -2t4 -5.5h-3q-3 0 -5.5 0.5t-5 0.5h-2.5h-6.5t-7 0.5t-6 0.5h-2.5
zM169 54h-20q-1 0 -2 1.5t-2 2.5v2h39q1 0 3 -1.5t2 -3.5t-2 -2.5t-5 -0.5h-5.5h-4.5h-2.5t-0.5 2z" />
</svg>
