<?xml version="1.0" standalone="no"?>
<!DOCTYPE svg PUBLIC "-//W3C//DTD SVG 1.1//EN" "http://www.w3.org/Graphics/SVG/1.1/DTD/svg11.dtd" >
<svg xmlns="http://www.w3.org/2000/svg" xmlns:xlink="http://www.w3.org/1999/xlink" version="1.1" viewBox="-10 0 266 256">
   <path fill="currentColor"
d="M162 151v98q0 1 2 1.5l2 0.5q2 0 3.5 -1.5t1.5 -3.5v-168q0 -2 -1.5 -4t-4.5 -2v0q-1 0 -1.5 1t-0.5 2v41l-0.5 2.5t-0.5 3.5v2v2l0.5 3l0.5 3v4t-0.5 6t-0.5 5.5v3.5zM88 244l4 3q2 -1 3.5 -3t2 -4.5t1 -5.5t0.5 -5q0 -11 -1 -21.5t-1 -21.5v-4t2 -4q16 1 33 -2
l0.5 -0.5l0.5 -0.5v-1v-1q0 -1 -1.5 -2l-1.5 -1h-31q-2 0 -2 -2v-2v-4q0 -4 2 -6t5 -3t6.5 -1t7 -1t5.5 -3t2 -7v-43l-2 -8h-0.5h-1.5q-2 0 -3.5 2t-1.5 4.5v5v3.5l-1 2h-18v-2v-3v-3v-2v-3.5t0.5 -5t0.5 -5t1 -3.5l0.5 -0.5t0.5 -1t1.5 -1t2.5 -1.5t2.5 -1.5t1.5 -1.5
q3 -1 3.5 -6t0.5 -11v-9.5t1 -4.5h24q1 0 1 -2v-3q0 -2 -4 -2.5t-8.5 -0.5h-9.5q-3 0 -3 -1v-21q0 -1 -2 -1h-3h-2t-2 1v22l-1 0.5t-3 0.5t-3.5 0.5t-3.5 0.5h-5h-5l-1.5 -0.5t-1.5 -1.5v-20l-0.5 -0.5l-1 -1t-2 -1l-1.5 -0.5l-0.5 0.5l-0.5 0.5q-1 1 -1.5 2.5l-0.5 1.5v18
l-2 4q-1 0 -3 -0.5t-5 -0.5t-5 0.5t-3 0.5h-3t-4 1t-3.5 2t-1.5 3v0q0 1 1 1.5l1 0.5h25l3 4v3t0.5 5t0.5 5.5t1 3.5q1 3 3 4.5t4 2t4 1.5t3 3q1 1 1 3.5t0.5 5.5t0.5 5v3v4t-0.5 4.5t-0.5 4t-1 1.5h-16q0 -3 -0.5 -6.5t-1 -6t-2.5 -4.5t-5 -2t-4 2t-1 5q0 12 2 25.5t5 25.5
q2 4 6 4.5l8 1t7 2t3 6.5v4t-1 2q0 1 -0.5 2l-0.5 1h-35l-2 2l-3 3v1v0.5v0.5q1 2 3 2.5t5 0.5q5 0 11 -1t12 -1q2 0 5 0.5t4 0.5l1 1v63zM82 117h3.5t2.5 2v25q0 2 -1.5 2h-2.5h-3.5t-4.5 -1t-3 -2.5t-1 -3.5v-18q0 -2 1 -2.5t3 -1t4 -0.5h2zM111 116q2 0 3.5 1t2 2.5
t0.5 4.5v4q0 8 -3 12t-12 4h-2.5t-2.5 -2v-21q0 -3 1.5 -4t3.5 -1.5t4.5 0t4.5 0.5zM169 65q5 0 9.5 4t9 9.5t9 9.5t10.5 4q2 0 3 -0.5t1 -3.5v-0.5v-0.5q0 -1 -1.5 -2.5l-3 -3l-3 -3t-2.5 -1.5q0 -1 -1.5 -2l-3 -2l-3 -2t-2.5 -1l-5 -5l-6 -6l-5 -5t-2 -3v-30q0 -3 -1.5 -4
t-3.5 -1q-3 0 -4 5t-1.5 12.5t-0.5 13.5v9q-1 4 -5 7.5t-9 7.5t-9.5 8.5t-6.5 8.5q0 1 2 1.5t3 0.5v0q3 0 6.5 -4t7.5 -8.5t8.5 -8.5t9.5 -4zM82 50q0 -2 1.5 -3.5t4 -2t5.5 -0.5h4h5l1 2v3v4v5.5t-1 5t-3 3.5t-5 1q-8 0 -10 -5t-2 -13z" />
</svg>
