<?xml version="1.0" standalone="no"?>
<!DOCTYPE svg PUBLIC "-//W3C//DTD SVG 1.1//EN" "http://www.w3.org/Graphics/SVG/1.1/DTD/svg11.dtd" >
<svg xmlns="http://www.w3.org/2000/svg" xmlns:xlink="http://www.w3.org/1999/xlink" version="1.1" viewBox="-10 0 266 256">
   <path fill="currentColor"
d="M86 174v73q0 1 1 2l2 2h1h1l2 -1t2 -3v-69l4 -4h33q2 0 2 -2v-3q0 -2 -0.5 -3t-4.5 -1h-29l-1 -0.5t-2 -0.5l-1 -1l-1 -1v-13l2.5 -0.5t4.5 -0.5l1.5 -0.5t3.5 -0.5t4 -0.5l2 -0.5q3 -1 4.5 -6t2 -11t0.5 -11.5v-8.5v-11q-1 -2 -2 -3.5t-3 -1.5t-3.5 0.5t-1.5 2.5v11
q0 1 -1.5 2t-1.5 2h-0.5h-0.5q-5 0 -7.5 -1.5t-3.5 -4.5t-1 -6.5v-7.5q0 -3 4 -4t8 -4t7 -10t2 -20q1 0 4 -0.5t5.5 -1t4.5 -2t2 -3.5v-1q-1 0 -3 -0.5l-4 -1t-3.5 -1t-2.5 -1.5q-1 0 -2 -1t-1 -2v-24l-1.5 -2t-1.5 -3l-2 -1h-1q-4 0 -5 2.5t-1 5.5q0 6 1 11.5t1 11.5v1
l-1 2.5t-2 2.5h-20l-1 -0.5t-2 -1.5l-1 -0.5t-1 -1.5v-27l-1 -0.5t-1.5 -1t-2.5 -1l-2 -0.5h-1h-1l-0.5 0.5l-1.5 1.5v9q0 5 1 10t1 11v0q0 1 -0.5 2t-1.5 1h-17l-1.5 1.5t-1.5 2.5v1q0 2 2.5 2.5t6 1t6.5 0.5h4q2 2 2.5 5l1 6t1 6.5t1.5 6.5t4 4t5 1.5t4 2.5t2 8v7t-1 5
t-3 3t-6 1q-5 0 -7 -1.5t-2.5 -3.5t-0.5 -4v-4t-1.5 -3.5t-4.5 -1.5q-2 0 -3.5 1.5t-1.5 3.5q0 5 1 11t1.5 12t1.5 11.5t1 8.5q2 5 6.5 6t9 1.5t8.5 2t4 7.5q0 1 -0.5 2t-0.5 2.5t-1 2.5t-2 1h-35q-2 0 -3 2.5t-1 3.5q0 2 1.5 3t4 1.5t4.5 0.5h3q7 0 14 -1.5t14 -1.5z
M144 148q1 0 3.5 1t5 1.5l5 1t3.5 1.5q1 0 4.5 0.5l7 1t7 0.5t4.5 1q5 1 7.5 4t4 7t2 8t0.5 8q0 1 0.5 3.5t0.5 5t0.5 4.5t0.5 3v10v15.5v15.5v10q5 0 8 -1t3 -6v-24q0 -1 -0.5 -3l-0.5 -2v-3v-6v-6v-3q-1 -8 -1 -16t-2 -15t-6.5 -12t-13.5 -7q-2 0 -6.5 -1t-10 -1.5
t-10.5 -1t-7 -1.5q-5 -2 -7 -4.5t-2 -8.5q0 -7 3.5 -12t10.5 -5l36 -4q7 0 11.5 -6t4.5 -13v-3q0 -2 -0.5 -6t-0.5 -9t-0.5 -9.5t-0.5 -5.5q0 -2 -1.5 -3.5t-3.5 -2.5t-4.5 -1h-3.5h-2.5h-2.5q-2 0 -9.5 0.5t-16 1t-15.5 1t-10 0.5q-2 1 -2 4v3h16q1 0 1.5 1t0.5 2v1.5v2.5
q0 9 -1 18t-1 18l-0.5 1l-0.5 1q-1 0 -3.5 1.5t-3.5 1.5q-3 2 -5 4t-3 5t-1 6v7q0 5 1 11t7 9zM68 130v-2v-2.5t1 -2.5t2 -1h17l-2 18q0 1 -2 1h-3q-5 0 -9 -2.5t-4 -8.5zM104 120q1 0 3.5 1t2.5 3q0 3 -0.5 5.5t-1.5 5t-3 4t-5 1.5h-2q-3 0 -3 -2v-15q0 -1 3.5 -2t5.5 -1z
M161 96q1 -1 1.5 -4.5t0.5 -4.5t0.5 -1.5t1.5 -0.5h30q2 0 2 2v3v3.5t-2 2.5q-3 1 -5.5 2t-4.5 1t-4.5 0.5t-5.5 0.5h-3t-4 -0.5l-4 -1t-3 -2.5zM78 59v-3.5t1 -2.5q2 0 5 -0.5t6.5 -0.5t7 -0.5t6.5 -0.5v8q0 5 -1 8.5t-3.5 6t-7.5 2.5q-9 0 -11.5 -4.5t-2.5 -12.5zM163 67
q0 -3 0.5 -5.5t4.5 -2.5h26q3 0 3.5 2.5t0.5 4.5q0 4 -1.5 6t-4 2.5t-6 0.5h-5.5h-6t-6 -0.5t-4.5 -2.5t-1.5 -5z" />
</svg>
