<?xml version="1.0" standalone="no"?>
<!DOCTYPE svg PUBLIC "-//W3C//DTD SVG 1.1//EN" "http://www.w3.org/Graphics/SVG/1.1/DTD/svg11.dtd" >
<svg xmlns="http://www.w3.org/2000/svg" xmlns:xlink="http://www.w3.org/1999/xlink" version="1.1" viewBox="-10 0 266 256">
   <path fill="currentColor"
d="M79 247v0q0 1 1.5 2t1.5 2h1h1l3.5 -3.5l3.5 -3.5v-4.5t0.5 -7t0.5 -6.5v-4v-1q0 -6 -1 -12t-1 -13v-3.5t0.5 -4t0.5 -2.5l5 -5q1 0 3.5 0.5t5.5 0.5t5.5 -0.5t3.5 -0.5q2 0 4.5 -1t2.5 -4q0 -1 -0.5 -2t-1.5 -1h-27q-1 0 -1 -1.5v-3.5v-4v-1q0 -6 2.5 -8t6.5 -2.5t8 -2
t6 -6.5q4 -9 4.5 -18t0.5 -19v-3v-5.5v-4.5v-4q-1 -1 -2.5 -2t-3.5 -1h-1l-1 0.5l-1 0.5v22l-1.5 0.5t-3 0.5t-3.5 0.5t-3 0.5h-1h-2h-2t-2 -2q-1 -6 -1 -10v-10q0 -4 2 -7t4.5 -5.5t5 -5.5t2.5 -7q0 -1 0.5 -4t0.5 -6q0 -4 -0.5 -6.5t-0.5 -4.5h3.5t4.5 -0.5t4.5 -0.5h3.5
q1 -1 3 -2t2 -3v0l-1.5 -1.5l-0.5 -0.5h-19q-1 0 -1 -1.5v-2.5q0 -3 0.5 -5t0.5 -5t-0.5 -6.5t-4.5 -3.5q-1 0 -1.5 1.5l-1 3l-1 3l-0.5 1.5v1q0 3 0.5 6.5t0.5 7.5h-24v-17q0 -1 -2 -1.5t-3 -0.5q-2 0 -4 1.5t-2 3.5q0 1 1 3l1 2v2v2v3.5t-2 3.5l-2.5 -0.5t-4.5 -0.5
q-3 0 -5 0.5t-3 0.5t-3 1.5t-2 2.5v1l2 2t2 1h18l2 2v2t0.5 4.5t0.5 5.5v5q1 7 3 10.5t4.5 5t4.5 2t2 2.5v25h-20q-3 0 -3 -3.5v-8.5q0 -4 -1.5 -8t-8.5 -4q0 14 1 29.5t5 28.5q3 2 5.5 5t6.5 4h2.5t5 0.5t4.5 0.5h3v3.5t0.5 5t0.5 5v3.5v1v1q0 2 -1 2h-34q-2 0 -3.5 1.5
t-1.5 3.5q0 1 0.5 2t1.5 1h6q6 0 10 -1t9 -1h2t4 0.5t4 0.5t2 1v56q-1 0 -1.5 3t-0.5 4v1zM129 176v2t2 2h12h13q3 0 11 -0.5t16.5 -0.5t16.5 -0.5t11 -0.5q3 -2 3 -5t-2 -3h-4q-19 0 -38 1l-38 2q-2 0 -2.5 1t-0.5 2zM60 128v-3t1 -2t2.5 -1.5t3.5 -0.5q1 -1 3 -1t3.5 -0.5
t2.5 -0.5h1l4 3v2t0.5 4.5t0.5 5v3.5q0 5 -1 7t-5 2q-8 0 -12 -5.5t-4 -12.5zM90 129q0 -1 0.5 -3.5t0.5 -3.5q2 -3 5 -3h6h2.5h2.5q1 0 1.5 2t0.5 3q0 2 -0.5 5.5t-2 7t-3.5 5.5t-6 2q-2 0 -3.5 -1.5t-2 -4l-1 -5t-0.5 -4.5zM141 127q1 5 2 8t3 5t4.5 3t8.5 1q7 0 14 -0.5
t13.5 -3t10.5 -7.5t4 -14v-56q-1 -2 -1.5 -6.5t-2 -8.5t-3.5 -7t-7 -3h-31q-8 0 -11.5 4t-5 10t-2 13t-0.5 12q0 13 1.5 25t2.5 25zM146 100q0 -4 4.5 -5.5t10 -2.5t11 -0.5t6.5 0.5h3h2.5t3 0.5t3.5 0.5t3 1v4q0 7 -1.5 12.5t-2.5 13.5q-1 5 -3 7t-5 3.5t-7 1.5h-8h-2h-3
h-3.5h-1.5q-4 -4 -6 -8t-3 -9t-1 -10v-9zM177 44q5 0 8 3.5t4.5 8t1.5 10v9.5v4.5v3.5l-4 2h-42q0 -11 0.5 -19t3.5 -12.5t9.5 -7t18.5 -2.5zM74 52v-3t2 -3q1 0 2.5 -0.5t3 -0.5t3.5 -0.5l2 -0.5q2 0 5.5 1t4.5 1q0 1 0.5 3l1 4t0.5 4v2v2q0 2 -1 4.5t-2.5 4.5t-3.5 3.5
t-4 1.5q-4 0 -7 -2.5t-4.5 -5.5t-2 -7.5t-0.5 -7.5z" />
</svg>
