<?xml version="1.0" standalone="no"?>
<!DOCTYPE svg PUBLIC "-//W3C//DTD SVG 1.1//EN" "http://www.w3.org/Graphics/SVG/1.1/DTD/svg11.dtd" >
<svg xmlns="http://www.w3.org/2000/svg" xmlns:xlink="http://www.w3.org/1999/xlink" version="1.1" viewBox="-10 0 266 256">
   <path fill="currentColor"
d="M76 246v1q1 0 2 1.5t2 1.5l1 -0.5t2 -1.5l2 -2l1 -1v-69h5t6.5 -0.5l7 -1t5.5 -1.5v-2v-1.5t-1 -1.5q-5 0 -11 0.5t-10 -2.5q-1 0 -1.5 -0.5l-0.5 -0.5v-13q0 -2 2 -3.5t4.5 -2t5.5 -1.5t4 -2q2 -1 1.5 -2t1.5 -2q1 -2 1 -5.5t1 -7.5t1.5 -7.5t0.5 -4.5v-1q0 -5 -1.5 -10
t-1.5 -10h-6v13h-12l-2 -4l2 -21q0 -3 2.5 -4.5t5 -3.5t5 -4.5t3.5 -7.5v-4t0.5 -7t0.5 -7v-5l2 -1h15q2 0 2.5 -3t0.5 -4h-20v-19q0 -1 -2 -2.5l-2 -1.5h-1h-1l-2 2t-1 2v17h-3.5t-5.5 0.5t-5.5 0.5h-3.5t-3 -1l-2 -1v-19q-1 0 -4 0.5t-4 0.5l-1 0.5t-1 1.5v16q0 3 -3 3h-7
t-7.5 0.5t-3.5 3.5q0 1 0.5 2.5t1.5 1.5h18l4 4v26q0 1 1.5 2.5t4 2.5t4.5 2l2 1v30l-1 0.5t-2.5 0.5h-2.5h-1q-6 0 -8 -2t-2.5 -5t-1.5 -5t-4 -2t-3.5 2.5t-0.5 4.5v8t0.5 12.5t1.5 12t3 7.5q1 2 4.5 4t7.5 4l7 3.5l3 1.5v16h-32q-2 0 -3 1.5t-1 3.5q0 3 1.5 3.5t4.5 0.5
q6 0 11.5 -1t11.5 -1h4t3 2v4v4v10.5t-0.5 18.5t-0.5 19t-1 11v1zM110 235q0 4 0.5 6.5t1.5 6.5l1 0.5t2 0.5q2 0 4 -1t1 -4q-1 -15 0 -29.5t6 -28.5q2 -4 5.5 -10t7.5 -12.5t7 -12t3 -9.5q0 -6 -4 -12.5t-8.5 -11.5t-8.5 -9t-3 -7q0 -4 3 -7t6.5 -5t8 -4.5t8 -5.5t5.5 -8
t2 -12v-40l-1 -1.5t-2 -1.5q-2 0 -4 1.5t-2 3.5q-1 1 -1 4t-0.5 6t-0.5 6v4q-1 1 -3 2t-3 1t-4.5 0.5t-7.5 0.5t-7.5 0.5t-4.5 0.5t-1.5 0.5l-0.5 0.5q0 2 1.5 3.5t3.5 1.5h2h3t6.5 -0.5t7 -0.5h3.5h2q2 0 3.5 1.5t1.5 3.5q0 8 -2.5 12.5t-6.5 7.5t-8.5 6t-8 6t-5.5 7t-1 11
q0 6 3.5 9t7.5 6.5t7.5 8.5t3.5 13q0 6 -2.5 10.5t-6 9t-7 8.5t-5.5 9q-4 12 -5.5 25t-2.5 26v1v2zM158 131q0 5 2 8.5t5.5 6t7.5 3.5t9 1q4 0 8.5 -0.5t7.5 -4.5q0 -2 0.5 -5.5t0.5 -8t0.5 -8.5t0.5 -6q1 -7 4 -11.5t9 -9.5v-1v-1q0 -3 -3 -3q-7 0 -10.5 4t-5 9.5
t-2.5 12.5t-1.5 13t-2.5 9.5t-7 3.5q-7 0 -10 -4t-3 -11q0 -5 2 -9.5t4.5 -8.5t5.5 -8l6 -8q2 -4 3 -8.5t2 -9.5t1 -10v-9q0 -3 -1 -8t-3 -10t-5.5 -8.5t-7.5 -3.5q-2 0 -2 2v3v3q0 1 1 3l2 4l2 4l1 2q2 5 2 9.5v8.5q0 11 -3.5 19.5t-8 16t-8 14.5t-3.5 15zM62 123v-2v-2
t1 -2t2 -1h13v23q0 2 -2 3t-3 1q-4 0 -6 -2t-3 -5t-1.5 -6.5t-0.5 -6.5zM86 130v-8t2 -8h2q3 0 6 0.5t3 4.5v18q0 1 -1 2t-3 1.5t-3.5 1t-2.5 0.5t-2 -1.5t-1 -3.5v-4v-3zM73 59v-1q0 -1 0.5 -3.5t0.5 -5.5t0.5 -5.5t0.5 -3.5q3 -3 7 -3h8q6 0 6 6q0 3 -0.5 7.5t-1.5 8.5
t-3 6.5t-7 2.5q-3 0 -7 -2.5t-4 -6.5z" />
</svg>
