<?xml version="1.0" standalone="no"?>
<!DOCTYPE svg PUBLIC "-//W3C//DTD SVG 1.1//EN" "http://www.w3.org/Graphics/SVG/1.1/DTD/svg11.dtd" >
<svg xmlns="http://www.w3.org/2000/svg" xmlns:xlink="http://www.w3.org/1999/xlink" version="1.1" viewBox="-10 0 266 256">
   <path fill="currentColor"
d="M176 141q0 27 0.5 54t2.5 53q1 3 2 3h2q2 0 3.5 -0.5t2.5 -2.5v-9q0 -20 -2.5 -38.5t-2.5 -38.5v-4q0 -2 0.5 -4.5t2 -4.5t3.5 -2q4 0 7 2.5t7 2.5q2 0 2.5 -1t3.5 -1v-6q-1 0 -2.5 -0.5t-3 -1.5t-2.5 -1.5t-1.5 -1t-2.5 -1.5t-3 -1q-2 -1 -6 -2.5t-8.5 -3t-8 -3.5
t-4.5 -4v-7t-0.5 -10.5t-0.5 -10.5v-7v-3q0 -4 1.5 -5.5t4 -2.5t5.5 -1h6h1l0.5 0.5l0.5 0.5q1 11 2.5 22.5t0.5 21.5q0 1 1.5 2t1.5 2h1h1q0 -1 1.5 -2t1.5 -2v-81q0 -2 -1.5 -3.5t-3.5 -1.5q-1 0 -2.5 0.5t-1.5 2.5v28h-21v-50q0 -6 -4 -6h-3t-2 1v58q0 1 -1.5 1t-3.5 0.5
t-4.5 0.5h-3.5q-2 0 -3.5 -1.5t-1.5 -3.5v-23q0 -2 -1 -4.5t-4 -2.5q-1 0 -1.5 0.5l-1.5 1.5q1 23 -0.5 44t-1.5 43q5 0 6 -2.5t3 -5.5v-6t0.5 -8t0.5 -7.5v-5.5v-2t0.5 -4t1 -3.5t1.5 -1.5h16v44q0 3 -5.5 6.5t-12 7.5t-13 7.5t-8.5 5.5q-2 1 -2.5 3l-1 4t-1.5 3.5t-3 1.5
l-6 1.5t-4 0.5t-4.5 -0.5t-6.5 -0.5v-15l2 -1q9 -1 14 -3.5t7 -7t2.5 -11t0.5 -15.5v-3.5t-0.5 -5.5t-1.5 -5.5t-3 -2.5q-3 0 -3 1.5t-0.5 4t-3.5 4t-12 1.5v0q-1 0 -1.5 -0.5l-0.5 -0.5v-18l0.5 -0.5t1.5 -0.5l9 -7.5t4.5 -5.5t1.5 -8t1 -14q0 -2 2 -2.5t4 -0.5h3.5t2.5 -2
q1 -1 1 -3v-2h-14v-18l-1 -0.5t-2 -1.5l-1.5 -0.5l-1.5 -0.5q-1 0 -2.5 1t-1.5 2v3v5v4.5v2.5q0 1 -0.5 2t-1.5 2h-3t-4 0.5t-4 0.5h-3h-1h-1q-1 0 -3.5 -0.5t-3 -1t-1.5 -1l-1 -0.5v-16l-1 -0.5t-2 -0.5h-1h-1l-1.5 1.5l-1.5 1.5v16q0 1 -3 1.5l-6 1t-5.5 1t-2.5 3.5
t1.5 3.5t4.5 0.5t4.5 -1t3.5 -1h1l2 2t2 1v5.5t0.5 7.5t2 7.5t3.5 4.5q3 3 6 4t4 2.5t1.5 3.5t0.5 7v4.5t-0.5 4.5t-2 3t-4.5 1h-3t-4 -0.5t-4 -0.5h-2q-2 -1 -2 -3t-0.5 -4.5t-1.5 -4.5t-3 -2q-3 0 -3.5 1.5t-0.5 3.5v4q0 2 0.5 7t1 11t1 11t0.5 7q0 1 1 2.5l2 3t2 2.5l1 1
h21v18l-3 2h-30q-1 0 -1.5 1.5t-0.5 2.5v2q0 2 1.5 3t3 1.5t3.5 0.5h3q5 0 10.5 -2t11.5 -2h0.5h1.5q1 8 1 17t0.5 18t0 18t-0.5 16q0 3 1.5 3.5t2.5 0.5q3 0 4 -1.5t2 -4t1 -5v-3.5v-2v-2.5t-0.5 -4t-0.5 -4v-2.5l-0.5 -4.5t-0.5 -10.5t-0.5 -12.5t-0.5 -9.5v-1v-1
q1 0 1.5 -2t0.5 -3h4t6 -0.5t6 -0.5h4q5 -1 6 -2.5t1 -4t1.5 -5t7.5 -6.5q2 -1 3 -2t2 -2.5t2.5 -2t3.5 -0.5h2q2 4 1.5 9.5t-0.5 9.5v24t-1 24q0 3 -1 7l-2 8t-1.5 8.5t-0.5 7.5q0 4 4 4q2 0 3.5 -2.5t1.5 -4.5q2 -11 2.5 -20.5t1 -18.5t1 -18.5t0.5 -20.5q0 -2 0.5 -5
t0.5 -7t0.5 -7t0.5 -5q2 -3 4.5 -4.5t6.5 -1.5h3t4 1t3.5 2t1.5 3zM61 122l0.5 -2t1.5 -2l2.5 -0.5t4.5 -1l4 -1t3 -0.5q0 -1 1 -1h1q1 0 2 0.5t1 1.5v21q0 2 -2 2.5t-3 0.5q-8 0 -11.5 -5.5t-4.5 -12.5zM102 113q4 0 7 3q-1 4 -1 8t-1.5 7t-4.5 5t-8 2h-1.5t-1.5 -1v-19
q0 -1 1.5 -2t3.5 -1.5l4 -1zM75 61q0 -4 1 -7t3.5 -4t6 -1.5t7.5 -0.5q2 0 3 1t1.5 2.5t0.5 3.5v4q0 6 -2 10.5t-9 4.5t-9.5 -3.5t-2.5 -9.5z" />
</svg>
