<?xml version="1.0" standalone="no"?>
<!DOCTYPE svg PUBLIC "-//W3C//DTD SVG 1.1//EN" "http://www.w3.org/Graphics/SVG/1.1/DTD/svg11.dtd" >
<svg xmlns="http://www.w3.org/2000/svg" xmlns:xlink="http://www.w3.org/1999/xlink" version="1.1" viewBox="-10 0 266 256">
   <path fill="currentColor"
d="M76 247q0 1 1.5 2t1.5 2h1h1q0 -1 2 -3t3 -2q0 -3 -0.5 -10t-0.5 -15t0.5 -15.5t0.5 -10.5v-5v-6t0.5 -5.5l0.5 -2.5l2 -2h23l0.5 -1t1.5 -2v-1.5v-2.5h-25q-1 0 -2 -2t-1 -4t-0.5 -4.5t-0.5 -3.5q0 -4 4.5 -5t9.5 -3t9 -5t4 -11v-30q0 -2 -2 -3t-4 -1l-0.5 0.5t-1.5 0.5
l-0.5 1.5t-1 3.5t-1 3.5t-0.5 2.5q-1 2 -3 1.5t-3 -0.5h-3h-2l-0.5 -0.5l-0.5 -0.5v-19q0 -2 1 -3t2.5 -2t3 -1.5t2.5 -2.5q2 -3 2.5 -6.5t0.5 -7.5t0.5 -7.5t2.5 -6.5h3t4.5 -0.5t4.5 -1.5t2 -3l-1 -2h-13l-1 -2v-13q-1 -1 -2 -3t-2 -2h-0.5h-0.5l-2 2l-1 1v18h-24
l-0.5 -2.5t-0.5 -4.5l-0.5 -2t-0.5 -4t-0.5 -3.5t-0.5 -2.5h-1.5h-1.5h-3q-2 0 -2 1v16q0 2 -2 2h-5t-5 1.5t-2 5.5q9 0 12 1.5t3.5 5t0.5 8t4 11.5q3 4 5.5 5.5t4.5 3t3.5 4.5t1.5 9q0 2 -0.5 3.5t-1.5 3.5h-2.5t-3 0.5t-3 0.5h-2.5h-2h-2t-2 -1v-4t-1 -4t-2 -3.5t-3 -1.5
q-3 0 -4 1.5t-1 3.5q0 8 1 17t2 16q1 8 5 11t8 3.5t7.5 0t3.5 1.5v20h-27q-2 0 -3.5 1.5t-1.5 3.5v2t2 1h6q5 0 10 -0.5t10 -0.5h2.5t1.5 2q0 14 -1 28.5t-1 29.5v2v4v4v2zM126 249q1 1 2 1.5t2 0.5q2 0 3 -1.5t1.5 -3.5l1 -4t0.5 -3v-1l-0.5 -1.5t-0.5 -3t-0.5 -3
l-0.5 -1.5v-1q0 -18 4 -37t12 -36l3.5 -7t3 -5.5t3 -6t2.5 -9.5l1 -2t1 -3v-28q0 -4 2 -5.5t5 -1.5q1 0 2.5 0.5t1.5 1.5v7.5v11.5v11.5v7.5q0 3 1 8t3 8q2 2 4 3.5t3.5 2.5t3 2.5t1.5 4.5t-0.5 4.5t-2.5 4.5q-6 3 -10.5 5.5t-7.5 6t-4.5 8t-1.5 11.5q0 15 5.5 27.5
t13.5 23.5q1 3 2 3.5t3 0.5t4 -1t2 -4q0 -4 -3.5 -8.5t-8 -10.5t-7.5 -13.5t-3 -16.5q0 -7 2 -11t5.5 -7t7 -4.5t7 -3.5t6 -5t2.5 -8q0 -6 -3.5 -8.5t-7 -5.5t-6.5 -8t-3 -14q5 0 9.5 -0.5t8.5 -2.5t6 -6t2 -10q0 -8 -4 -12t-9.5 -6t-12 -2h-12.5q-1 -1 -1 -3v-3q0 -5 3 -7
t7.5 -3t9.5 -1.5t8 -3.5l3.5 -3.5t2.5 -4.5q0 -4 -1.5 -8t-4.5 -6q-3 0 -9 -1t-12 -2.5t-11.5 -3t-6.5 -4.5q-2 -2 -2.5 -4.5t-1 -5.5t-1.5 -5.5t-4 -2.5q-2 0 -3 1t-1 3q0 4 1.5 7l3 6t2.5 5.5t1 6.5t-2.5 7t-6 5t-8 4t-8 3t-6 2.5t-2.5 2.5l0.5 1.5t1.5 1.5v0q9 0 15 -3.5
t11 -8t10.5 -8.5t12.5 -4h7t7.5 1t6 3.5t2.5 6.5t-3 5.5t-7 2t-9 1t-8.5 2.5t-6 5.5t-1.5 10.5q-3 1 -8 2t-9.5 3.5t-7.5 6t-3 8.5q0 7 1.5 11t4 6t7 3t10.5 1q1 1 1.5 2t0.5 2q-1 4 -2.5 8.5t-4 8.5l-5 8t-3.5 8q-9 20 -12 41t-3 44v2v3zM87 138v-4.5v-3.5v-5.5v-3.5
q0 -2 0.5 -4t1.5 -2h12l0.5 2.5t1.5 4.5v2q0 3 -0.5 6t-2 5.5t-4 4.5t-5.5 2h-1q0 -1 -1.5 -2t-1.5 -2zM62 126q0 -5 1 -7t3.5 -3t5.5 -1.5t7 -0.5v23q0 2 -2 2.5t-3 0.5q-6 0 -9 -4.5t-3 -9.5zM139 104q0 -6 4 -10.5t10 -4.5h2q2 0 3 2v4v4v4.5v6.5t-1 5.5t-3 2.5
q-8 0 -11.5 -3.5t-3.5 -10.5zM181 108q0 -1 0.5 -3.5t0.5 -5t0.5 -5t0.5 -3.5h11q2 0 3 1.5t2 4t1 4.5v3q0 7 -3.5 9.5t-8.5 2.5h-5q-1 -1 -1.5 -4t-0.5 -4zM86 51h4h3l2 2v17q0 1 -1 2.5t-2.5 2.5l-3 2t-2.5 1h-3q-2 0 -4.5 -0.5t-5 -1.5t-2.5 -3v-20q0 -1 2 -1.5t3 -0.5h4
h6z" />
</svg>
