<?xml version="1.0" standalone="no"?>
<!DOCTYPE svg PUBLIC "-//W3C//DTD SVG 1.1//EN" "http://www.w3.org/Graphics/SVG/1.1/DTD/svg11.dtd" >
<svg xmlns="http://www.w3.org/2000/svg" xmlns:xlink="http://www.w3.org/1999/xlink" version="1.1" viewBox="-10 0 266 256">
   <path fill="currentColor"
d="M160 215v7t0.5 5.5t0.5 5t1 7.5l0.5 1.5t1 3.5l1 4t1.5 2t3 -1.5l2 -1.5v-6q0 -8 -2.5 -16.5t-2.5 -16.5q0 -1 1 -2.5t1.5 -3t1.5 -3.5l1 -2q2 -6 5 -9t6.5 -5t7 -4.5t6.5 -6.5q7 -9 9 -20.5t2 -22.5v-4q0 -2 -1 -5.5t-2 -7.5t-2 -7.5t-1 -4.5q-3 -3 -6.5 -7t-7.5 -6.5
t-8 -4t-9 -1.5q-1 0 -1 -1v-2q0 -15 2.5 -30t2.5 -29v-7l-2 -2l-2 -2h-1v0q-2 0 -3 3.5t-1.5 9t-1 12.5t-0.5 13v11v7v5q0 2 0.5 4t0.5 4t1 6q-9 3 -15 8.5t-9.5 13t-4.5 16.5t-1 18q0 1 0.5 6t1.5 11t2.5 11t2.5 5h1l3 -2v-4v-4q0 -5 -0.5 -9.5t-0.5 -10.5q0 -1 0.5 -2
t2.5 -1h1q1 1 3 2.5t4.5 3.5t4.5 4l2 2l2.5 2.5l0.5 0.5l0.5 0.5t2.5 0.5q4 0 4 -4q0 -6 -4.5 -9t-10.5 -5.5t-10.5 -5.5t-4.5 -8l0.5 -2t1 -4.5t1.5 -4t2 -1.5q7 0 12.5 4t10.5 8.5t9.5 8.5t9.5 4q0 -5 -2.5 -9.5t-7 -8t-10 -6t-9.5 -4.5t-7 -4.5t-3 -4.5q0 -3 2 -5
t5.5 -2.5l7 -1t5.5 -0.5q8 0 13.5 5.5t8.5 13t4 15.5t1 15q0 11 -3 17t-7.5 9.5t-9.5 7t-10 10.5t-6.5 14.5t-1.5 16.5zM85 230q1 2 1.5 2h1.5q2 0 3 -1.5t2 -3.5v-20v-20v-2.5t-0.5 -4t-0.5 -4v-2.5v-3v-4t0.5 -4t0.5 -3l2 -1q0 -1 1.5 -2l1.5 -1h22q1 0 1 -1.5v-2.5v-1.5
t-1 -1.5h-27q-1 0 -1.5 -3t-0.5 -4q0 -2 1 -3.5t3 -3.5q2 0 5 -0.5t5.5 -1.5l5 -2t4.5 -4q1 -5 1.5 -9l1 -8t0.5 -8v-8v-3v-4t-1.5 -3.5t-3.5 -1.5q-1 0 -1.5 0.5t-1.5 2.5v2.5t-0.5 4t-0.5 4v2.5h-3h-3q-5 0 -7.5 -2t-2.5 -7q0 -7 1 -9.5t2.5 -4t3.5 -2.5t4 -5q1 -2 2 -6
t1.5 -7.5l1 -7t0.5 -5.5l3 -4h17q1 0 1.5 -1t0.5 -2t-0.5 -1.5l-1.5 -1.5h-2h-3h-3.5h-2.5l-1.5 -0.5l-3 -1t-2.5 -1.5t-1 -2v-17q0 -1 -2 -1h-2h-1.5h-0.5q-1 5 -2 11.5t-1 11.5h-22v-20q0 -2 -1.5 -2.5t-3.5 -0.5q-1 0 -2.5 1.5t-1.5 2.5v18l-3 3h-18v2.5v3.5t1 1.5l1 0.5
h17q0 1 0.5 1.5l1.5 1.5l1 1t1 2v20l1 0.5t1 1.5q1 0 2.5 0.5l3 1t2.5 1t2 0.5l0.5 0.5l0.5 0.5v25h-2.5h-3.5h-4h-2q-4 0 -5 -2.5t-1.5 -5.5t-1.5 -5t-4 -2h-1l-0.5 0.5l-0.5 0.5q0 2 -0.5 5t-0.5 6.5t-0.5 6.5t-0.5 4v1q0 8 1 13.5t4 9t8 5t14 1.5q2 0 2 2v3q0 2 -1 5
t-4 3h-30l-0.5 1t-1 1.5t-0.5 2.5v2h33l2 2v4.5t0.5 11.5t0.5 14v12q0 1 0.5 5.5t0.5 9.5q0 4 -0.5 8.5t-0.5 5.5zM67 116v-6q3 -2 6 -2.5t7 -0.5h2.5h1.5l1 3v17q0 2 -1 2h-2q-7 0 -11 -3t-4 -10zM93 106h13l3 3v2v3q0 5 -3 8.5t-8 3.5h-3t-2 -2v-18zM137 71q0 2 0.5 3
t2.5 2q4 -3 5.5 -7.5t2 -9.5t0.5 -10v-9v-3v-4v-4v-3l-1.5 -1.5t-1.5 -0.5t-2 0.5t-1 1.5q0 8 -0.5 13.5t-2 10.5t-2 10t-0.5 11zM193 74q1 2 2 2h2q2 0 3.5 -1t1.5 -3q0 -10 -1 -20.5t-2 -20.5v-5q0 -2 -0.5 -4t-1.5 -3t-3 -1h-2.5t-1.5 2v3v4.5v4.5v2v11v9t1 9t2 11z
M77 54q0 -5 1 -8t3 -4t5.5 -1.5t8.5 -0.5h2.5h1.5q2 1 2 2.5v2.5v2v1l-0.5 2.5t-1 4.5l-1 4t-0.5 3h-2.5t-3 0.5t-3 0.5h-2.5h-2q-4 0 -6 -2.5t-2 -6.5z" />
</svg>
