<?xml version="1.0" standalone="no"?>
<!DOCTYPE svg PUBLIC "-//W3C//DTD SVG 1.1//EN" "http://www.w3.org/Graphics/SVG/1.1/DTD/svg11.dtd" >
<svg xmlns="http://www.w3.org/2000/svg" xmlns:xlink="http://www.w3.org/1999/xlink" version="1.1" viewBox="-10 0 266 256">
   <path fill="currentColor"
d="M195 249q1 1 2 1.5l1 0.5q1 0 2.5 -1t2.5 -2v-6q0 -6 -1.5 -11.5t-4 -11.5t-4 -11.5t-1.5 -11.5q0 -4 1 -6.5t4 -6.5v-20q0 -4 -4.5 -5.5t-10 -2t-11 -0.5h-7.5h-2h-4h-3h-3q-1 1 -1 1.5v1.5v2t1 1t4 0.5t6 0.5t6 0.5t4 0.5q2 0 5 0.5t5.5 1.5t4.5 3t2 5v1q0 1 -1 4.5
t-2 4.5h-0.5h-0.5v0v0q-1 0 -2 -1t-3 -2t-3 -2t-2 -1l-1.5 -0.5t-4 -0.5t-4.5 -0.5t-4 -0.5h-5h-8.5h-7.5h-6v1.5t0.5 2.5t1.5 2t2 0q2 1 6 1t8 0.5l8 1t5.5 1t3.5 0.5q3 0 4.5 0.5t3 1.5t1.5 4q0 1 -2 1.5t-4 1.5h-3t-3.5 0.5t-3.5 0.5h-2h-4t-6.5 -0.5t-6 -0.5h-3.5h-7h-7
q-2 0 -2 1v2q0 3 1.5 4.5t3.5 1.5h42q1 -1 4.5 -2t4.5 -1h1q2 0 4 4.5t3.5 10.5t2.5 11.5t1 7.5q0 1 0.5 3t1 4.5t1 4.5t0.5 3zM87 172v0q1 0 1.5 0.5t0.5 1.5v68l1 1l2 2h1h1q1 -1 2.5 -2l1.5 -1v-70l19 -3l1 -1.5t2 -1.5v-1q0 -2 -1 -3t-3 -1q-5 0 -8.5 0.5t-7.5 1.5
q-3 -1 -3.5 -3.5t-0.5 -4.5q0 -5 2.5 -6.5t5.5 -2.5t6 -1.5t5 -3.5q2 -2 3 -6t1 -8t-0.5 -8t-0.5 -7v-12.5t-1 -12.5l-3 -1h-1h-1q-1 2 -1 5t-0.5 6t-2 5t-4.5 2q-4 0 -6 -2t-2.5 -5t-0.5 -7v-6v-4v-3q4 -3 6.5 -5.5t4.5 -5t2.5 -6t0.5 -8.5q1 -2 3.5 -2.5t5 -0.5t4.5 -1
t2 -4q0 -2 -2 -3t-5 -1h-5t-2 -2v-14l-1.5 -1t-2.5 -2h-1h-1l-1 1.5t-2 1.5v3t-0.5 4t-0.5 4v3q-1 4 -1 4.5t-2 0.5h-1h-1q-1 0 -3 -0.5t-4 -0.5t-3.5 -0.5l-1.5 -0.5l-3 -1v-14q0 -1 -1 -1.5t-2 -0.5h-2h-2t-1 2v2t-0.5 4.5t-0.5 4.5t-1 3q0 1 -0.5 2l-0.5 1h-18
q0 3 0.5 5.5t4.5 2.5l1 -1h2t4 -0.5t3.5 -0.5h2.5t2.5 1t1.5 2q0 7 0.5 11t2 6t3.5 2.5t4 2.5t3.5 5.5t1.5 10.5v5q0 3 -1 5l-1 2t-2 2h-11v-15q0 -2 -2.5 -2h-3.5h-1h-2q0 5 -0.5 9t-0.5 7.5v6.5v8v12q1 7 3.5 9.5t5.5 4t6 2t5.5 1.5t4 3t1.5 7q0 2 -0.5 5t-4.5 3h-27
q-2 0 -3 2t-1 4q0 1 1 2t3 1h10q5 0 10 -1t10 -1zM137 144v0v2v4t0.5 4t2.5 3h1q1 0 1.5 -1.5t1 -3.5t0.5 -3.5t2 -2.5q1 0 2.5 -0.5t3.5 -0.5t3.5 -0.5t2.5 -0.5h7.5t11.5 -0.5t11 -0.5h7q3 -1 4 -2.5t1 -4.5h-22q-1 0 -1 -2v-3v-3.5t1 -2.5h14q1 0 2 -1.5t1 -2.5v-1v0
q0 -1 -0.5 -2l-0.5 -1h-17q-1 0 -1.5 -1.5l-0.5 -1.5q0 -3 3 -4t7 -2.5t8.5 -4t6.5 -8.5q-1 -2 -5 -4t-7.5 -4t-6.5 -3t-3 -2q0 -3 4 -4.5t8 -2.5t8 -2.5t4 -5.5q0 -3 -3.5 -4.5t-7.5 -2.5t-7.5 -2.5t-3.5 -4.5q0 -5 2 -7t4.5 -2.5t6 -1t6 -1t4.5 -2.5t2 -6h-16v-18
q0 -2 -1.5 -2h-2.5q-4 0 -5 6t-2 13t-2.5 13t-6.5 6q-3 0 -5 -2.5t-3 -6t-1.5 -7.5t-1 -7.5t-2 -6t-4.5 -2.5q-1 0 -2 1t-1 3v12q-1 3 -3.5 3h-5.5q-2 0 -4 1t-2 4v1.5t1 1.5h17q1 0 2 1.5t2.5 3.5t2.5 3.5l1 1.5q-5 6 -11 11t-11 11q0 1 -0.5 2.5l-0.5 1.5h15q1 0 1.5 2
t0.5 3v1v1q-4 4 -9 9.5t-7 11.5v6.5t-0.5 10t-0.5 10v6.5v1zM72 120v-3.5t1 -2.5h14v24q0 2 -1 2h-2q-4 0 -6 -2t-3.5 -5t-2 -6.5t-0.5 -6.5zM95 132v-4.5t0.5 -7t1.5 -6l1 -2.5h11l0.5 1.5t1.5 1.5v7q0 3 -0.5 6t-1.5 5.5t-3.5 3.5t-5.5 1t-4 -1.5t-1 -4.5zM168 127v4t-1 4
q0 1 -0.5 1.5l-0.5 0.5h-20q0 -4 2.5 -6t6 -3t7.5 -1h6zM146 118l0.5 -1.5t0.5 -2.5l1.5 -1.5l0.5 -0.5h17q1 0 1.5 2l0.5 2q0 2 -2 3t-4.5 1.5t-5.5 0.5h-4h-0.5h-0.5q-1 0 -3 -1t-2 -2zM151 101q0 -2 2 -4t4.5 -4t5 -3t5.5 -1q0 6 -1.5 10t-7.5 4h-4.5t-3.5 -2zM176 94h3
t3.5 0.5t2.5 1t1 2.5v2q-1 0 -3.5 0.5l-2.5 0.5h-1q-2 0 -2.5 -2.5t-0.5 -4.5zM154 75v-1q0 -3 1.5 -5.5t4 -4t5 -2.5t4.5 -2q2 1 4 1.5l4 1t3.5 1.5t1.5 3q0 3 -2 5t-5 2q-1 0 -1.5 -1t-0.5 -2t-0.5 -2t-1.5 -1t-1.5 0.5l-0.5 0.5q0 1 -0.5 2.5l-1 3t-1.5 2.5t-3 1
q-1 0 -4.5 -1t-4.5 -2zM98 49v14q0 1 -2.5 2.5t-4.5 1.5t-4.5 -1t-3.5 -2q-1 0 -1.5 -0.5l-0.5 -0.5v-13h2.5t5.5 -0.5t5 -0.5h4z" />
</svg>
