<?xml version="1.0" standalone="no"?>
<!DOCTYPE svg PUBLIC "-//W3C//DTD SVG 1.1//EN" "http://www.w3.org/Graphics/SVG/1.1/DTD/svg11.dtd" >
<svg xmlns="http://www.w3.org/2000/svg" xmlns:xlink="http://www.w3.org/1999/xlink" version="1.1" viewBox="-10 0 266 256">
   <path fill="currentColor"
d="M78 246q0 2 0.5 3.5t2.5 1.5q1 0 1.5 -0.5l1.5 -1.5t3 -3.5l2 -2.5v-42l0.5 -1.5l0.5 -1.5l1.5 -1.5l0.5 -0.5h19q2 0 3 -1t1 -2q0 -2 -1.5 -3.5t-3.5 -1.5h-18q-2 0 -3.5 -1.5t-1.5 -2.5v-1.5v-0.5q0 -2 0.5 -5t0.5 -6t0.5 -5l0.5 -2l3 -4h16l0.5 -1.5t1.5 -2.5v-1v-1
q-1 0 -1.5 -0.5l-0.5 -0.5h-16l-0.5 -0.5l-1.5 -1.5q-2 -3 -2.5 -3.5t-0.5 -2.5q0 -6 2 -8.5t4.5 -3.5t5.5 -2t6 -3t4.5 -6.5t1.5 -12.5q0 -5 -2 -8t-5.5 -5.5t-8 -3.5t-8.5 -2q0 -1 -0.5 -4t-0.5 -4v-2q0 -2 1.5 -3t2.5 -1q1 -1 4 -2t6 -1.5t5.5 -1.5t4.5 -2l3 -3l0.5 -2
l1 -4t1 -4.5t0.5 -3.5v-2v-4v-4v-4v-3v-4v-4v-3q-1 -2 -2 -3.5t-3 -1.5q-1 0 -1.5 0.5l-1.5 1.5q1 6 1 10q0 3 -1.5 5t-4.5 2.5t-9 0.5h-3h-2l-2 -3v-21q0 -1 -1.5 -1.5l-1.5 -0.5q-6 0 -6 7v1v2.5t0.5 4t0.5 4v2.5v2v2t-1 2h-28l-1 1.5t-2 2.5v0v1q0 1 1.5 1.5l1.5 0.5h28
q2 0 2.5 2.5t0.5 4.5l-0.5 3l-1 6t-1 5t-2.5 2h-29q-1 0 -3 2t-2 4q0 1 1 1.5t2.5 1t2.5 0.5h2q5 0 10 -1t10 -1h2.5h3.5q2 1 2.5 4t0.5 5v1q0 1 -1 3.5t-2 3.5q-6 1 -10.5 2t-7.5 3.5t-4.5 6.5t-1.5 11q0 5 2.5 8.5t6.5 5.5t9 3t9 1l2 2v16l-2 1l-2.5 0.5t-3.5 0.5
q-4 0 -6.5 -1t-4.5 -2.5t-3 -2.5t-3 -1h-2.5t-1.5 2v2.5v3.5q0 9 1 17t1 17q2 3 6.5 4t9 1.5t8 1t3.5 1.5v4.5v3.5q0 10 -1.5 20t-1.5 20zM140 219l6 2t5.5 1h4.5h7q8 0 15 -1.5t15 -3.5q4 -13 4.5 -27.5t0.5 -27.5q0 -2 0.5 -6t0 -8t-2 -7t-5.5 -3l-1.5 0.5t-1.5 1.5v22
q0 2 -2 4l-3 3q-8 -1 -15.5 0.5t-15.5 1.5q-2 0 -4.5 -1.5t-2.5 -4.5v-18q0 -3 -1 -3.5t-3 -0.5h-2.5t-1.5 2v5.5v8.5v9v6q0 10 -0.5 20.5t1.5 20.5q1 1 1.5 2t0.5 2zM145 185v-2.5v-2.5q2 -2 6 -3t8 -1t8 0.5t6 0.5h3h3h3h1l4 3v6v7t-0.5 7.5t-2 7t-5.5 4.5h-12
q-3 0 -6 0.5t-6 0t-5.5 -2t-3.5 -4.5q-1 -6 -1 -10.5v-10.5zM61 168v-3t1 -3l1 -1h2h3h2h4.5t4.5 0.5t2 2.5v22q0 1 -1.5 2t-1.5 2h-0.5h-0.5q-5 0 -8 -2t-5 -5t-2.5 -7t-0.5 -8zM60 116q0 -6 3 -9.5t8 -5.5t10 -2.5t10 -0.5q4 0 8 2t4 8q0 7 -2 10.5t-5.5 5.5t-8.5 2.5
t-11 0.5h-10q-2 -1 -4 -4.5t-2 -6.5zM130 119q0 1 0.5 2t1.5 1h4h5q15 0 30.5 -1.5t31.5 -3.5q2 1 2.5 0t0.5 -2v-2.5t-2 -1.5h-4h-4q-13 0 -25.5 1.5t-25.5 1.5q-1 0 -2.5 0.5t-4 0.5t-4 0.5t-2.5 0.5t-1.5 1t-0.5 2zM119 98q0 1 0.5 2t2.5 1v0q4 -1 8 -6t8 -11t7.5 -13.5
t6.5 -13t5.5 -9.5t3.5 -4q3 0 6.5 4t7.5 9.5t8.5 12.5t8.5 13t8 10t8 4q3 0 4.5 -1t3.5 -4q-14 -12 -25.5 -27t-21.5 -29q-2 -3 -2.5 -6t-4.5 -3q-1 0 -1.5 0.5t-1.5 0.5q-2 6 -5 11t-6 9.5t-6.5 9.5t-4.5 11q-1 1 -1.5 3l-0.5 2q-1 3 -3.5 6t-5.5 6t-5 6t-2 6zM87 64v-2v-3
q0 -7 2.5 -9.5t8.5 -2.5q3 0 6.5 0.5t3.5 4.5q0 8 -5 11t-11 3h-2.5t-2.5 -2z" />
</svg>
