<?xml version="1.0" standalone="no"?>
<!DOCTYPE svg PUBLIC "-//W3C//DTD SVG 1.1//EN" "http://www.w3.org/Graphics/SVG/1.1/DTD/svg11.dtd" >
<svg xmlns="http://www.w3.org/2000/svg" xmlns:xlink="http://www.w3.org/1999/xlink" version="1.1" viewBox="-10 0 266 256">
   <path fill="currentColor"
d="M126 147q1 26 0 52t-1 52q3 0 4.5 -1t2.5 -4v-4v-6v-6v-4l0.5 -1.5t0.5 -2.5t0.5 -2.5l0.5 -1.5q0 -1 -1 -3.5l-1 -2.5v-1.5v-3.5v-4v-3q0 -16 0.5 -32.5t3.5 -31.5q2 -6 5 -11.5t4 -10.5l0.5 -2t0.5 -3.5t0.5 -3l0.5 -1.5q0 -1 0.5 -1.5l0.5 -0.5h3.5h3.5h5.5t4.5 2
q0 1 0.5 3t0.5 4.5t0.5 5l0.5 2.5q0 4 2.5 6.5t5 5.5t5 7.5t3.5 11.5q1 24 1.5 49t-0.5 49q1 1 1.5 1h1.5q2 0 3.5 -2t2 -4.5t0.5 -5v-4.5q0 -24 -1 -48t-4 -48q0 -5 -3 -8.5l-6 -7t-5.5 -7t-2.5 -8.5v-4l0.5 -1t1.5 -1h25q2 0 2 -2v-2q0 -2 -1.5 -3.5t-3.5 -1.5h-1h-3.5h-5
t-5.5 0.5l-3 0.5h-1q-2 0 -3 -1.5t-1 -3.5q0 -5 2.5 -9.5t6 -7.5t7.5 -5t9 -4v-2v-1q0 -2 -0.5 -3.5t-3.5 -1.5v0q-1 0 -2 0.5t-1 1.5q-1 0 -1.5 0.5l-0.5 0.5q-1 1 -3.5 3t-5.5 4.5t-6 4.5t-4 2v1q-4 0 -7 -2.5t-6 -4.5t-6.5 -4.5t-7.5 -2.5v5l3 3t5 4q3 3 6 4.5t5 3.5t3 5
t1 8q0 3 -1 4t-3 1h-4h-4h-3h-2l-4 -4q-3 -9 -6 -16.5t-3 -16.5q0 -4 2.5 -6t6 -3.5t7 -2t6.5 -0.5q1 0 5.5 -0.5t9.5 -0.5t9.5 -0.5t6.5 -0.5t3.5 -1t1.5 -3q0 -3 -2.5 -3.5t-4.5 -0.5h-2h-1q-1 0 -4 0.5t-4 0.5q-7 1 -15 1t-15 1.5t-11.5 6.5t-4.5 15q0 4 1.5 8t2.5 8
t2.5 8t1.5 7v2t-1 1t-3.5 0.5t-5 0.5t-4.5 1t-2 4l0.5 0.5l0.5 0.5h18q1 0 1 1.5v2.5v3t-1 3q-1 1 -2.5 3.5t-2.5 6t-2.5 6t-1.5 3.5q-2 4 -2.5 8t-2.5 8zM86 245q0 4 5 4q3 0 4 -3t1 -5v-55l2 -2h2.5h3.5t4 -0.5t3 -0.5q2 -1 2.5 -1.5t0.5 -1.5q0 -2 -0.5 -4t-2.5 -2t-4 1
t-4 1q-5 0 -6.5 -4t-1.5 -9q0 -4 2.5 -5.5t6 -2t6 -1t2.5 -3.5q0 -1 -0.5 -2.5t-2.5 -1.5h-11q-1 0 -2 -2.5t-1 -3.5q0 -5 1.5 -7.5t3.5 -4t4.5 -2.5t4.5 -3t3.5 -5t1.5 -10q0 -8 -3 -10.5t-6.5 -3.5t-6.5 -1t-3 -3v-18h7.5t6 -1.5t4.5 -3.5t3 -6q1 -8 1.5 -14t0.5 -13v-3
t-0.5 -4t-1.5 -3.5t-3 -1.5h-1l-1 0.5l-1 0.5v13l-1.5 1.5t-2.5 1.5v0v0q-5 0 -7 -2t-3 -5t-0.5 -6.5t1 -6.5t-0.5 -5t-4 -2h-0.5h-0.5q-1 1 -1 6t-0.5 9.5t-1.5 8.5t-3 5l-25 2q-2 1 -2.5 2t-0.5 3t1.5 2.5t3.5 0.5q5 0 10 -1t10 -1h2q2 0 2 1l2 1v4q0 6 -2.5 8.5t-6 3
t-7.5 0t-7.5 -0.5t-6 0.5t-2.5 3.5t2 4t4 1q5 0 8.5 -0.5t7.5 -0.5h7l0.5 1t0.5 2l0.5 1.5t0.5 3t0.5 3.5t0.5 3v1q0 4 -3.5 5t-7.5 2t-7.5 4t-3.5 10q0 8 1.5 12t4 5.5t5.5 2t5 1t4 2.5t2 7t-1.5 7t-7.5 2q-3 0 -4.5 -1.5l-3 -3l-3 -3t-3.5 -1.5q-3 0 -3 1.5v3.5v8.5
t0.5 12t2.5 11.5t5 5h3h5h4h3l1 0.5t2 0.5q0 2 0.5 5.5t0.5 4.5q0 13 -1.5 26t-1.5 25zM145 180q0 3 2.5 4t5.5 1.5t6 0.5h5h4h5q1 -1 2.5 -2t1.5 -3v-1l-0.5 -1t-1.5 -2q-1 1 -4 0.5t-4 -1.5t-1.5 -4t-0.5 -5v-6.5v-9.5v-9.5v-5.5q0 -3 -0.5 -3.5t-2.5 -0.5q-1 0 -2 0.5
t-1 3.5v30q0 2 -1 4t-3 2t-3.5 -2t-1.5 -4v-29l-1 -1.5l-1 -1.5h-1v0l-2 2v1.5t-0.5 3.5t-0.5 3.5v2.5v2v2v6t0.5 8.5t0.5 9v5.5zM72 169v-6t3 -4l2 -0.5t3 -0.5h4t4 2q-1 3 -0.5 5t1 3.5t0.5 3v4.5h-14l-3 -3v-2v-2zM73 112q0 -4 2.5 -6t5.5 -3t7 -1h6h4.5h4.5q2 2 2.5 3.5
t0.5 3.5q0 7 -5 10t-11 3h-5t-5.5 -1t-4.5 -3t-2 -6zM95 52q0 -2 1 -2.5t2 -0.5h2.5h2.5q2 0 5 1.5t3 4.5q-1 2 -3 5.5t-5 3.5q-5 0 -6.5 -4t-1.5 -8z" />
</svg>
