<?xml version="1.0" standalone="no"?>
<!DOCTYPE svg PUBLIC "-//W3C//DTD SVG 1.1//EN" "http://www.w3.org/Graphics/SVG/1.1/DTD/svg11.dtd" >
<svg xmlns="http://www.w3.org/2000/svg" xmlns:xlink="http://www.w3.org/1999/xlink" version="1.1" viewBox="-10 0 266 256">
   <path fill="currentColor"
d="M147 172q1 0 2 0.5t1 1.5v75q0 1 1.5 1.5l1.5 0.5q3 0 4 -1t2 -4q0 -1 0.5 -3t1 -4.5t0.5 -4.5v-3v-2q0 -10 -1 -19.5t-1 -19.5v-13q1 -2 3 -4t4 -2q3 0 6.5 1.5t5.5 4.5q2 7 3.5 15.5t2.5 16.5t1 16t1 15q0 1 0.5 1.5t2.5 0.5q1 0 2.5 -1.5t2 -3.5t1 -4.5t0.5 -3.5v-1
q0 -3 -1 -8.5t-1.5 -12t-1.5 -12t-1 -7.5q-2 -5 -2.5 -9t-1.5 -7.5t-4 -5.5t-9 -3q-1 0 -4.5 -0.5t-5.5 -0.5h-2v-10q0 -1 2 -1h5t6.5 -1t7 -3t5.5 -6.5t2 -11.5v-1q-1 -2 -1.5 -5t-1 -5t-0.5 -3h-5q-1 0 -1 4.5t-0.5 10t-3 9.5t-9.5 4q-4 0 -6 -2t-2.5 -5t0 -6.5t0.5 -7
t-1.5 -5.5t-4.5 -2h-3v5t-0.5 7t-0.5 7v5v3q0 1 -2 1q-7 0 -9 -4.5t-2.5 -10t-1.5 -10t-5 -4.5l-1 0.5l-1 0.5v4.5v3.5q0 5 1 10.5t3 10t6 6.5t12 1q2 0 1.5 1.5t-0.5 2.5q0 5 -1.5 6.5t-4.5 3t-6 2.5t-5 4q-4 5 -6 11.5t-2.5 13.5t-0.5 14t-1 13q-1 4 -2 7.5t-1 7.5v3v2
l1 0.5t2 1.5h1q2 0 4 -2t3 -5q0 -1 -0.5 -4t-0.5 -7q0 -3 0.5 -6t0.5 -4q0 -3 0.5 -10.5t2.5 -15t5 -13.5t8 -6zM77 182q0 15 -1 30t-1 31h3q1 0 3 -0.5t3.5 -1.5t1.5 -3q1 -12 1.5 -24.5t0.5 -25.5q0 -5 4 -6.5t9 -1.5t9 -1t4 -5q0 -3 -2 -4t-4 -1q-3 0 -6 1t-6 1h-4.5
t-3.5 -2v-15h18q3 0 4 -1.5t1 -3.5q0 -1 -0.5 -2.5t-1.5 -1.5h-18q-2 0 -2 -3v-3q0 -4 3.5 -5.5t7.5 -3t7.5 -3.5t3.5 -8v-19q0 -3 -3 -5t-6.5 -3t-7.5 -1h-5l-1 -2q-1 0 -0.5 -2t1 -4.5t1.5 -4.5t2 -2q8 -3 13.5 -4.5t13.5 -1.5q1 0 3 0.5l2 0.5l2 1v3.5t0.5 5.5t0.5 5v3
t1 4t1.5 6t2.5 5t4 2h62q1 0 1 -1v-2q0 -3 -2.5 -4.5t-5.5 -1.5q-6 0 -12 1.5t-12 1.5q-3 0 -5.5 -1t-2.5 -4v-1l2 -1q2 -1 5 -2t6.5 -1t6 -0.5t4.5 -0.5q4 -3 5 -8.5t2 -10.5h14l1 -1.5t2 -2.5v0v0v-1l-1 -2.5t-2 -2.5h-14q-2 0 -2 -2v-4t-1 -4t-3 -2h-2.5t-1.5 2v12l-2 1
q-1 0 -3.5 0.5t-6 1t-5.5 0.5h-1q-2 0 -2.5 -1.5t-0.5 -3v-3v-1.5v-5q0 -3 1 -4.5t2.5 -2l4.5 -1.5q2 0 6.5 -0.5t9.5 -1t9.5 -1t6.5 -0.5q3 1 3.5 -0.5t0.5 -3.5t-2 -3t-4 -1q-6 0 -13 1t-14 1h-3t-4 -0.5t-3.5 -2t-1.5 -3.5v-1.5t0.5 -3t0.5 -3v-1.5h1v-1q0 -3 -2.5 -4.5
t-4.5 -1.5t-3 0.5t-1 3.5v20q-2 0 -5 0.5l-6 1t-6 0.5t-5 1h-1t-2.5 1t-2.5 1.5t-1 1.5t1.5 2t2.5 1q1 1 1.5 4.5t0.5 5.5t-2 4.5t-4 2.5q-1 0 -3 -0.5t-2 -2.5v-32q0 -3 -2 -3h-3q-4 0 -4.5 2.5l-1 5t-0.5 5.5q0 2 -1 2h-13q0 -1 0.5 -3.5t0.5 -4.5l-0.5 -1.5t-1 -3.5
t-1 -3.5l-0.5 -1.5q-1 -1 -2.5 -1.5t-2.5 -0.5q-2 0 -2.5 1t-0.5 4v3.5v5.5v5.5v3.5q-2 1 -6.5 0.5t-9.5 0t-8.5 2t-3.5 4.5t1 3.5t4 0.5q4 0 8.5 -1t8.5 -1h4l3 11q1 0 0.5 1.5t-1.5 1.5q-1 1 -2 2.5l-1 1.5h-25q-1 0 -2 2t-1 3q0 2 0.5 2.5l1.5 1.5h5q5 0 9.5 -1t9.5 -1
q3 0 4 3t1 6q0 4 -2 6t-5 2.5t-6.5 0.5t-6 1.5t-4.5 4.5t-2 10q0 9 2 13.5t4.5 6.5t6 2t6.5 1t5 2.5t2 5.5t-2 5.5t-5 1.5q-5 0 -9 -1t-8 -3q-1 -1 -3 -1.5l-2 -0.5q-2 0 -2.5 1t-0.5 2v8t1 12t2.5 11t4.5 5h21zM58 165q0 -3 1.5 -4.5t4 -2.5t5 -1h4.5h2.5h1.5q1 2 1.5 3.5
t0.5 3.5q0 4 -1.5 6t-5.5 2h-4.5t-4.5 -0.5t-3.5 -2t-1.5 -4.5zM63 114q0 -6 3 -9t7.5 -4t9.5 -1h9h6q3 1 3.5 3.5t0.5 5.5q0 7 -2.5 10t-7 4.5t-10.5 1.5h-11q-4 -2 -6 -4.5t-2 -6.5zM133 75q0 -4 4 -5t8 -1q2 0 3.5 1t1.5 4v2v3.5t-0.5 6t-0.5 6v3.5q-1 2 -2.5 2h-2.5
q-4 0 -6.5 -2t-3 -5.5l-1 -7t-0.5 -7.5zM159 78q0 -1 0.5 -3.5t3.5 -2.5h17q0 3 -0.5 5.5t-3.5 4.5l-2 0.5t-4.5 1t-4.5 1l-2 0.5h-1q-2 0 -2.5 -3t-0.5 -4zM89 65v-5q0 -2 0.5 -4l1 -4t2 -3t4.5 -1h1v0q2 0 4.5 1.5l2.5 1.5v11q0 1 -2 1.5t-4 1.5t-3.5 1h-1.5
q-1 0 -2.5 -0.5t-2.5 -0.5zM132 50q0 -2 1.5 -2.5l3 -1t3.5 -0.5h3h2.5h3.5q2 2 1.5 4t-0.5 4v5q0 3 -3 3q-6 0 -10.5 -2.5t-4.5 -9.5z" />
</svg>
