<?xml version="1.0" standalone="no"?>
<!DOCTYPE svg PUBLIC "-//W3C//DTD SVG 1.1//EN" "http://www.w3.org/Graphics/SVG/1.1/DTD/svg11.dtd" >
<svg xmlns="http://www.w3.org/2000/svg" xmlns:xlink="http://www.w3.org/1999/xlink" version="1.1" viewBox="-10 0 266 256">
   <path fill="currentColor"
d="M51 235q0 4 1.5 5.5t4.5 1.5q32 0 64.5 -1.5t64.5 -3.5h4.5t7 -0.5t6 -1.5t2.5 -4v-3t-1 -2h-5h-6h-7h-4h-2t-2 -0.5l-2 -1l-1 -0.5h-1v0q-1 1 -3 1.5l-2 0.5h-1q-4 0 -8 -2.5t-4 -8.5v-28l3 -2h5t7 -0.5t7.5 -0.5h4.5q4 -1 7.5 -4.5t3.5 -8.5v-28q0 -2 -1.5 -3.5
t-3.5 -1.5q-1 0 -3 2l-3 3v4v7v6v4q0 4 -2.5 5.5t-5.5 2.5t-6.5 1h-5.5q-3 0 -5 -3.5t-2 -6.5t1 -6.5t1 -8.5t-1 -8.5t-1 -8.5t2.5 -8t6.5 -4.5t9 -1.5t9 -0.5t7 -1.5t3 -4v-32q-1 0 -4 0.5t-4 0.5l-2 2q-1 6 -1 11t-2 8t-5 4.5t-9 1.5q-1 0 -3 -0.5l-2 -0.5l-3 -4l-0.5 -1
t-0.5 -3v-3.5v-3.5v-3.5v-5.5t0.5 -5t0.5 -3q0 -2 0.5 -6t4.5 -6q8 -1 14 -2t10 -4t5.5 -8.5t1.5 -15.5v-3.5v-4.5t-1 -3t-3 -1q-5 0 -6 3t-1 8q0 4 -0.5 8.5t-4.5 6.5q-1 0 -3 0.5t-4 0.5t-4 0.5t-3 0.5h-1v0q-1 0 -1.5 -0.5t-0.5 -1.5v-26q0 -3 -2 -4.5t-4 -1.5
q-1 0 -2 0.5t-2 1.5q-1 27 -1.5 53t-1.5 53q-2 3 -2 7v7v7t2 7v64q0 3 -1 7t-4 5h-2h-3h-3h-3l-1 -1t-2 -1l-2 1t-3 1h-1h-1h-2.5t-1.5 -3q0 -1 -0.5 -3.5t-0.5 -5v-4.5v-3v-26v-26v-2t0.5 -4t0.5 -3.5v-2.5v-1.5t-0.5 -3.5t-0.5 -3.5v-2.5v-9v-9.5t1 -9.5v-88q0 -1 -1 -1
t-2.5 -0.5t-3 -0.5h-1.5q-2 0 -3.5 0.5t-1.5 3.5v26q0 3 -1 4t-3 1.5t-4 0.5h-3q-7 0 -10.5 -2t-5 -5t-2 -6.5t-1 -6.5t-2.5 -5t-6 -2h-2h-3q0 1 -0.5 3.5t-0.5 3.5v1q0 3 0.5 5t1 3.5t1.5 3t2 3.5l3 9t3.5 5.5t6 3t8.5 0.5q4 0 7 -1t6 -1h3t2 2q2 6 2 12v12v14q0 2 -0.5 4
t-1.5 2h-2h-2q-2 0 -4.5 -0.5t-6 -0.5t-6.5 -0.5t-4 -0.5q-3 -1 -3.5 -6.5t-1 -11.5t-1.5 -10.5t-4 -4.5h-1q-4 5 -4.5 8t-0.5 8q0 2 0.5 7.5t2 11t3.5 9.5t5 4h30v45q0 3 -1.5 4.5t-4 2t-5 0.5h-4.5q-5 0 -8 -3t-4 -7t-1 -9.5v-10.5q-1 -2 -2.5 -2.5t-3.5 -0.5t-3.5 2
t-1.5 6v10t1 12t4 10.5t9 4.5q1 0 4.5 0.5t6.5 0.5q4 0 7 -0.5t4 -0.5l2 2v2.5t0.5 5.5t0.5 6.5v5.5v2v4v4v2l1 1.5t1 2.5v1q0 2 -2 2h-3h-1.5t-1.5 -2h-7q-6 0 -11.5 1t-11.5 1q-3 0 -6 -1t-6 -1t-5 4t-2 7z" />
</svg>
