<?xml version="1.0" standalone="no"?>
<!DOCTYPE svg PUBLIC "-//W3C//DTD SVG 1.1//EN" "http://www.w3.org/Graphics/SVG/1.1/DTD/svg11.dtd" >
<svg xmlns="http://www.w3.org/2000/svg" xmlns:xlink="http://www.w3.org/1999/xlink" version="1.1" viewBox="-10 0 266 256">
   <path fill="currentColor"
d="M193 248l1 1l2 2h1q3 0 4 -3t1 -6q0 -4 -1 -9.5t-3 -11t-4.5 -10.5t-5.5 -7q-2 -2 -6 -2.5t-7.5 -1.5t-6 -3t-2.5 -6t2.5 -6t6 -3t8 -2t8 -3t6 -5.5t2.5 -9.5q0 -4 -2.5 -6.5t-6 -4t-6 -4t-2.5 -7.5v-3l12 -7q2 0 2.5 -2l1 -4l1 -4t2.5 -4q1 -12 1 -22v-23v-23
q-2 -4 -5 -4v0q-1 0 -1 1q-2 3 -2 8v9q0 1 -1.5 1.5t-2.5 1.5q-4 -3 -6.5 -6t-4.5 -5.5t-2.5 -6t-0.5 -7.5t3.5 -5.5t8 -1.5t8.5 0.5t6 0.5q2 -1 2 -1.5v-1.5q0 -3 -2.5 -4t-5.5 -1q-11 0 -23.5 0.5t-23.5 5.5l-0.5 0.5l-1.5 1.5q-2 7 -3 15t-1.5 17t0 17t0.5 15t1 14.5
t2 13.5q0 2 1.5 3.5t3 2.5t2.5 2.5t1 3.5q0 6 -4.5 10t-9.5 7t-9 6t-4 6q0 2 1 2.5t2 0.5q8 0 14 -5.5t10 -12t7.5 -12t6.5 -5.5q2 0 3.5 0.5t2.5 1.5v2.5t0.5 3.5t0.5 3.5t1 2.5q1 3 3 4.5t4 2.5t3.5 2.5t1.5 4.5q0 4 -2 6t-5.5 3t-7.5 2t-7 3t-5.5 5.5t-2.5 11.5v3v4
q4 4 8.5 5.5t8.5 3t7.5 4.5t5.5 10q0 1 1 4.5t1.5 7.5t1.5 7t1 5zM65 212q0 2 1.5 2.5t4.5 0.5t8 -4.5t9.5 -11t9.5 -15t8.5 -16t6 -14t2.5 -8.5q0 -5 -2.5 -11t-5.5 -13l-6 -14t-3 -13v-2q0 -3 -0.5 -5.5t-0.5 -4.5v-4v-3t0.5 -4.5t0.5 -5.5v-3l0.5 -2.5t0.5 -3.5v-2
q0 -2 -1.5 -5t-3.5 -3t-3 3t-1 4v3v11t0.5 13.5t0.5 11v5.5q1 5 3 12t2 13q0 2 -1.5 2.5t-3.5 1.5q-1 1 -4 5t-7 9.5t-8.5 11.5t-8.5 11t-6.5 9t-2.5 6t1 2.5t3 0.5h2q3 -2 6.5 -6.5t7.5 -10l8 -11t7.5 -10.5t7 -8t4.5 -3h1l5 5v3.5v2.5q0 11 -4.5 19.5t-11.5 16.5t-14 15
t-12 15v0.5v1.5zM52 127q0 2 1 3.5t3 1.5t3 -1t2 -3l2 -4t2 -3q0 -1 1 -2.5t1.5 -3.5t1 -3.5l0.5 -1.5q1 -1 2 -4t2 -5.5l2 -5l1 -2.5v-3t0.5 -4t0.5 -4v-3v-26v-26q-2 -6 -8 -6q-3 0 -4.5 1.5t-1.5 3.5q0 8 2 14t2 15q0 10 -0.5 20.5t-1.5 20.5q-1 4 -3 8l-4 8l-4 8t-2 7z
M152 122v-4t2 -3q4 0 7.5 -0.5t6.5 -0.5t6 -0.5t7 -0.5h6q2 1 2.5 2.5t0.5 3.5q0 4 -3 6t-7.5 2.5t-9 0t-7.5 -0.5h-9q-2 0 -2 -2v-3zM116 37v18q0 3 1 9.5t1.5 14t2 15.5t3 15t3 11t3.5 4q4 0 4 -3q0 -4 -2 -8.5t-3 -8.5q-4 -22 -4 -44t1 -44q-1 -1 -2 -1h-2q-3 0 -4 0.5
t-2 4.5v17zM149 102l0.5 -1.5t1.5 -2.5q0 -1 0.5 -2l0.5 -1h40q0 1 -0.5 4.5t-0.5 4.5l-0.5 0.5t-0.5 1.5q-5 0 -9 0.5t-7 0.5h-7h-7h-9q-1 0 -1.5 -2t-0.5 -3zM149 80q0 -3 2.5 -6.5t6.5 -6t8 -4t8 -1.5q2 0 6 2t7 5t5.5 6.5t2.5 6.5q0 2 -1 3t-3 2q-9 -1 -19 -0.5t-20 1.5
q-2 -1 -2.5 -3t-0.5 -5zM151 57l3 -17q0 -3 3 -4t5 -1q3 0 4 2t2 5t1 6v4l-1.5 1.5t-4 3.5t-4.5 3.5l-2 1.5q-1 0 -2 -0.5l-2 -1t-2 -1.5t0 -2z" />
</svg>
