<?xml version="1.0" standalone="no"?>
<!DOCTYPE svg PUBLIC "-//W3C//DTD SVG 1.1//EN" "http://www.w3.org/Graphics/SVG/1.1/DTD/svg11.dtd" >
<svg xmlns="http://www.w3.org/2000/svg" xmlns:xlink="http://www.w3.org/1999/xlink" version="1.1" viewBox="-10 0 266 256">
   <path fill="currentColor"
d="M47 246q0 4 4 4q5 0 6.5 -3.5t2 -8.5l1 -10t1.5 -8v-35q-2 -5 -2.5 -11.5t-1.5 -12.5v-5v-9v-10v-6q0 -13 -2 -26.5t-2 -26.5q0 -8 2.5 -12.5t6 -7t8 -4t8.5 -3.5t6.5 -5t2.5 -9q0 -14 -6 -19.5t-20 -5.5q-4 0 -6.5 0.5t-2.5 3.5q0 4 2 5t5 1t6.5 -0.5t6.5 0t5 2t2 4.5
q0 8 -2.5 12.5t-6 6.5t-8 3t-8 3.5t-6 7t-2.5 14.5v8.5t0.5 13.5t0.5 13v8v5v11v16.5t0.5 19.5t0.5 19v17v11q0 1 -0.5 4.5t-0.5 8.5t-0.5 8.5t-0.5 4.5v3zM116 214q0 9 -2 18t-2 18q7 0 9.5 -2.5t5.5 -9.5v-18q0 -11 -1.5 -22.5t-3 -22.5t-2.5 -22t-1 -22v-1.5v-1.5l0.5 -2
t1.5 -4t2 -3.5t1 -2.5t1 -3.5t2 -5.5l2 -6t1 -4q0 -9 -3 -13.5t-8.5 -7.5t-12.5 -3.5t-13 -0.5v0h-3.5t-5.5 0.5t-5.5 0.5h-3.5q-2 1 -2 1.5v2.5q0 3 3 4t5 1h6h8h9h5q6 1 7.5 6t1.5 10v3t-0.5 4t-1.5 3.5t-3 1.5h-1l-10 -10l-2 -0.5t-5.5 -0.5t-6.5 -0.5t-5 -0.5
q-3 0 -5.5 2t-2.5 5t2.5 4t6 1t7.5 0.5t8 1.5t6.5 4t2.5 9v3q0 1 -2 2h-3t-4 0.5t-4 0.5h-2q-1 1 -5 1.5t-7.5 2t-6.5 3t-3 4.5q0 1 0.5 2t2.5 1q4 0 7 -1t6.5 -2.5t6.5 -2.5t7 -1t6.5 5t4 12t2.5 16t1.5 17.5t0.5 15.5v10zM163 183q0 7 1.5 10.5t4.5 5t6.5 2t7.5 2t7.5 5.5
t6.5 12q1 1 1.5 3l0.5 2v25h8l1 -4q1 0 1 -4v-5t-0.5 -8.5t-2 -13t-3.5 -12t-4 -7.5q-2 0 -5 -1l-6 -2l-6 -2t-4 -1t-2 -0.5t-2 -1.5v-4q0 -4 2.5 -5.5t6 -2.5t7.5 -2t7.5 -3t5.5 -5.5t2 -9.5q0 -7 -2.5 -9.5t-6 -3.5t-6.5 -2.5t-3 -6.5q0 -4 3 -6t6.5 -4.5t7 -6.5t3.5 -12
v-57q0 -1 -1.5 -2l-3 -2t-3 -1.5t-2.5 -0.5l-1 0.5l-1 0.5q0 1 0.5 3.5t0.5 3.5q-7 0 -12 -5t-5 -13q0 -4 1.5 -6t4 -2.5t5.5 -0.5h5t3.5 -1t1.5 -4t-2.5 -5t-5.5 -1l-42 3l-5 3l-0.5 2.5t-1 5.5l-1 6t-0.5 4v4v4v5v3q-1 0 -1.5 2.5t-0.5 3.5v1v1q0 2 0.5 7t0.5 10.5
t0.5 10.5t0.5 7l0.5 2t0.5 3l0.5 2.5l1 5l1 5l0.5 2.5l7 13v0.5v1.5q0 6 -3.5 9t-8.5 5.5t-8.5 5t-3.5 6.5q0 2 1 2h2q9 0 14 -4.5t8.5 -10t6.5 -10.5t8 -5q3 0 4.5 1t2 3t1 4.5t1.5 5.5q0 2 3 4t6 3.5t5.5 3.5t1.5 5q-1 4 -4 5.5t-6.5 2t-7 0.5t-6.5 2t-5 5t-2 10zM153 109
q0 -2 0.5 -3.5t2.5 -2.5l33 -2q4 0 5.5 1t1.5 4q0 5 -4.5 7.5t-10 3.5t-11.5 1h-7q-4 0 -7 -2.5t-3 -6.5zM150 88v-2q0 -2 1 -3q1 0 3 -0.5t4.5 -1t4.5 -1t3 -0.5h2h3h1.5t3 0.5l3 1t2.5 0.5h1v0q1 0 2 -0.5l2 -1t2 -0.5h1h1q4 0 5.5 2t1.5 6q0 3 -1 5t-6 2h-35
q-3 0 -4 -2.5t-1 -4.5zM150 68v-1v-1q2 -1 4.5 -4t5 -5t5.5 -3.5t6 -1.5t7 1.5t8 4t7 5.5t3 5l-0.5 1l-0.5 1q-2 1 -7.5 2t-11 1h-11.5h-9q-2 0 -4 -1.5t-2 -3.5zM96 47v1l0.5 1t1.5 1h6q4 0 9.5 -1t9.5 -3.5t7.5 -6.5t3.5 -9t-2.5 -8t-6 -5t-7.5 -3t-8 -1t-7.5 0.5
t-3.5 5.5q0 2 0.5 3t2.5 1q1 0 4 0.5t5.5 0.5t5.5 0.5t4 0.5t1 2.5v3.5q0 5 -4 7.5t-9 3.5t-9 2t-4 3zM150 46v-2v-1v-2.5t0.5 -5t0.5 -4.5v-3q2 -4 4 -4.5t5 -0.5h4t4 2v5q0 3 -1 6.5t-3 6.5t-4.5 5t-6.5 2q-3 0 -3 -4z" />
</svg>
