<?xml version="1.0" standalone="no"?>
<!DOCTYPE svg PUBLIC "-//W3C//DTD SVG 1.1//EN" "http://www.w3.org/Graphics/SVG/1.1/DTD/svg11.dtd" >
<svg xmlns="http://www.w3.org/2000/svg" xmlns:xlink="http://www.w3.org/1999/xlink" version="1.1" viewBox="-10 0 266 256">
   <path fill="currentColor"
d="M154 184l1.5 1.5t2.5 3t2.5 3t2.5 1.5q2 2 6 2.5t7.5 1t7 2t4.5 4.5l0.5 2l1 4l1 4l0.5 2q0 2 2.5 8.5t5.5 13t6.5 12t5.5 5.5q3 0 3 -1.5v-3.5q0 -5 -1 -9t-3 -8t-3.5 -7.5t-3.5 -8.5l-1 -3t-1.5 -6.5t-1 -6.5t-1.5 -4q-1 -5 -6 -7t-10.5 -3t-10 -2t-4.5 -5
q0 -6 2.5 -8.5t5.5 -3t7 -1t7.5 -2t5.5 -5t2 -11.5q0 -7 -5.5 -10t-11.5 -5t-11.5 -3t-5.5 -3q0 -1 2.5 -1.5t5.5 -1t5.5 -1t3.5 -0.5q5 -1 8.5 -6t5.5 -12t2.5 -15t0.5 -16v-14.5v-9.5v-5.5v-4.5q0 -2 -2 -2h-3q-3 0 -4.5 2t-2 4.5t-1.5 4.5t-3 2h-1l-4 -2t-4 -2.5t-3.5 -3
t-1.5 -2.5t1 -3.5t2 -4.5t2.5 -4t2.5 -2h13l1 -1t2 -2.5t2 -2.5t1 -2q0 -2 -2 -3t-3 -1h-10q-6 0 -15 1t-16.5 4t-13 8t-5.5 13t2 15.5t2 15.5v4v7v7v4t1 3.5t1.5 5l1 5t1.5 3.5l2 1q0 1 2 3.5l4 5t3.5 4.5t2.5 3v1v1q0 4 -2.5 6.5t-6.5 4t-8.5 2t-8.5 2t-7 3t-3 4.5t2 3.5
t4 0.5q4 0 9 -0.5t9 -1.5q3 0 6 -2.5l6 -5t6 -4.5t7 -2q3 0 6.5 0.5t7 2t5.5 3.5t2 5v1.5v0.5q-1 3 -5 4t-8.5 2.5t-9.5 6.5t-9 15q-1 0 -1 1v0v1q0 1 1 1zM42 213q0 2 1 3.5t3 1.5h3t2 -2v-105q0 -5 3 -7t7 -2q1 0 4 -0.5t5.5 -0.5t4.5 1t2 3q1 0 1 2.5v2.5q0 6 -3 8.5
t-6.5 5t-6.5 6t-3 10.5t3 10t7.5 4.5t10 2t10.5 2t8.5 5.5t3.5 12q0 2 0.5 6.5t0.5 9.5t0.5 9t0.5 6q0 5 5 5q3 0 4.5 -1t2 -3t0.5 -4v-4q0 -11 -1 -22t-6 -20q-4 -6 -10 -7.5t-12.5 -2.5t-11.5 -3.5t-5 -8.5q0 -1 0.5 -2.5t0.5 -2.5q6 -2 14 -3t16 -3t13 -6t5 -12
q0 -5 -2 -8.5t-6 -5t-8.5 -2t-8.5 -0.5q-3 0 -5.5 1t-5.5 1h-7t-10 -1t-8.5 -2.5t-3.5 -3.5q0 -6 4 -9t9.5 -4.5t11.5 -2t10 -0.5t7.5 1t8.5 1h8q2 0 2 -2.5v-3.5v-1.5v-1.5l-3 -2h-22q0 -6 3.5 -10.5t7 -8t6.5 -7t3 -8.5q0 -4 -1.5 -9t-6.5 -6h-14q-1 0 -5 -0.5t-8 -0.5
q-5 0 -9.5 0.5t-8.5 1.5t-6.5 2.5t-2.5 3.5v3t1 2h14q2 0 2 1.5v1.5q0 5 -3.5 8t-7.5 5.5t-7.5 6t-3.5 7.5t4 4h1q1 0 2 -0.5l3 -1.5l3 -1.5l1 -0.5q6 -4 9.5 -9.5t7 -10.5t7.5 -9t10 -4q1 0 4 1t3 3q0 4 -1.5 6.5t-3.5 4.5t-4.5 3.5t-4.5 4.5q-2 2 -3 4t-2 4.5t-2.5 4
l-3.5 3.5q-1 0 -3 0.5l-4 1t-3.5 1t-2.5 0.5q-5 2 -8.5 6.5t-5 10t-2 11.5t-1.5 11v6.5t-0.5 10t-0.5 10.5v7v39v38zM145 102h33q1 0 2 0.5t2 0.5v1q0 5 -3 7.5t-7 3.5t-8.5 1h-6.5q-7 -1 -9.5 -4.5t-2.5 -9.5zM85 110q0 -5 4 -7t8 -2t7 1.5t3 5.5v3q-1 0 -3 0.5l-4 1l-4 1
t-3 0.5h-1h-2q-2 0 -3.5 -1t-1.5 -3zM146 91q-2 -1 -2.5 -2.5t-0.5 -3.5v0q0 -1 0.5 -1.5l0.5 -0.5h38l1 2q1 0 1.5 1.5l0.5 1.5q-1 0 -3 2l-2 2q-1 1 -3 1h-3q-4 0 -7 -0.5t-6.5 -0.5t-7 -0.5t-7.5 -0.5zM141 68q0 -3 2 -6t5 -4.5t6.5 -3t6.5 -1.5q1 0 4.5 1.5t8 3t8.5 3.5
t4 3t-0.5 2t-1 2.5t-1.5 2.5l-1 1h-39q-2 0 -2 -1v-3zM138 43q0 -5 4.5 -9t9.5 -4q6 0 6 6q0 1 -2 3l-4.5 4.5t-5 4t-3.5 1.5q-2 0 -3.5 -2t-1.5 -4z" />
</svg>
