<?xml version="1.0" standalone="no"?>
<!DOCTYPE svg PUBLIC "-//W3C//DTD SVG 1.1//EN" "http://www.w3.org/Graphics/SVG/1.1/DTD/svg11.dtd" >
<svg xmlns="http://www.w3.org/2000/svg" xmlns:xlink="http://www.w3.org/1999/xlink" version="1.1" viewBox="-10 0 266 256">
   <path fill="currentColor"
d="M187 197q3 2 4.5 6.5t2 10.5t1 12.5t1 12t1.5 8.5t3 3q3 0 4.5 -1t3.5 -3v-4v-4q0 -2 -1 -10t-3 -17t-5 -15.5t-7 -7.5l-24 -3q-1 0 -1.5 -1.5t-0.5 -2.5v-2v-1q0 -6 3 -8t7 -2.5t8.5 -0.5t9 -1t7 -4.5t2.5 -11.5v-7q-1 -2 -5 -4t-7.5 -3.5t-6 -3t-2.5 -3.5
q2 -4 6.5 -5.5t8.5 -2.5q3 -2 5 -9.5t3 -16.5t1 -18v-13v-4v-5v-5.5v-2.5q0 -1 -0.5 -3l-1 -4t-2 -4t-2.5 -2q-3 0 -3.5 3l-1 6l-1 6t-3.5 3t-5.5 -1.5t-4.5 -4t-3 -5t-1 -5.5q0 -5 2.5 -7t5.5 -2.5t7 0t7 0.5t5 -1t2 -4q0 -5 -5 -5h-2h-1q-2 0 -8.5 0.5t-13.5 1t-13.5 1
t-8.5 0.5q-7 1 -9.5 3t-4.5 8q-1 2 -1.5 7l-1 10l-1 10t-0.5 7v3v5v7v5v4v5.5v6.5v4q2 6 5.5 11t9.5 10v0q0 5 -3.5 9t-8 7.5t-8 6.5t-3.5 6q10 0 15.5 -4.5t9.5 -10t7.5 -10t9.5 -4.5q3 0 4 1t1 3t0.5 4.5t2 4t4 2.5t5 2.5t4.5 3.5t2 4q0 1 -0.5 3.5l-0.5 2.5
q-8 0 -14.5 0.5t-11 3t-7 7.5t-2.5 14q0 5 3.5 8t8.5 4.5t10 2t8 0.5zM47 170q0 2 1 3t3 1.5t3.5 0.5h3.5q5 0 9.5 -1.5t10.5 -1.5q2 0 8 -0.5t12.5 -1t12 -1t8.5 -0.5q2 -1 4 -2.5t2 -4.5v-2t-1 -2h-15l-1 -2v-2.5v-6.5v-6v-5v-8v-10v-8.5v-4.5v-3t0.5 -4t0.5 -4v-2
q1 -2 2.5 -3.5t3.5 -3t3.5 -3.5t1.5 -5v-19q0 -1 -2 -3t-2 -3q-1 0 -3.5 -0.5t-5.5 -1t-5.5 -1t-3.5 -0.5q-6 0 -13 0.5t-13.5 3t-10.5 7t-4 12.5q0 9 3 12.5t7 4.5t7.5 2t3.5 6v1q0 1 -0.5 4.5t-0.5 7.5t-0.5 7t-0.5 4q0 2 -0.5 8.5t-1 13.5t-1 13l-0.5 6h-19l-1 0.5
t-2 1.5t-2 2.5t-2 2.5v0.5v0.5zM94 90q2 0 4 3t2 5v2q0 3 -0.5 10t-0.5 15.5t-0.5 15.5t-0.5 10q0 4 -1 6t-5 2h-4t-2 -3v-62q0 -3 3 -3.5t5 -0.5zM147 104v-1v-2q1 0 3 -0.5t4 -0.5h25q0 -1 1.5 -1.5l1.5 -0.5q4 0 8 1.5t4 6.5q0 3 -3 5.5t-7 3.5t-8 1h-7h-8t-7 -0.5
t-5 -3.5t-2 -8zM144 85q0 -3 1.5 -4t3.5 -2h3h6h5h4h14t14 2v2q0 3 -1.5 5t-3.5 4h-3h-4h-4h-3q-2 0 -7.5 0.5t-10.5 0t-9.5 -2.5t-4.5 -5zM68 73q0 -6 4 -9t9 -4t10.5 -1.5t9.5 -0.5h2h4h3.5h1.5q2 1 2 2v2q0 6 -2 10t-6 6.5t-9 3.5t-11 1h-6t-6 -1t-4.5 -3t-1.5 -6z
M146 68q0 -3 2.5 -6.5t6 -6t7.5 -4t6 -1.5t6.5 2t8.5 5t7 6t3 5v2t-1 1h-45q-1 0 -1 -1v-2zM147 46q0 -9 3.5 -13.5t12.5 -4.5q1 0 2.5 0.5t2.5 2.5q0 4 -1 7.5t-3.5 6t-6 4.5t-6.5 2t-3.5 -1.5t-0.5 -3.5zM118 15q-2 0 -4 0.5t-4.5 1l-5 1t-3.5 0.5t-5 0.5t-9 1t-9.5 0.5
h-6.5h-8.5t-5.5 0.5t-3 3t-1 8.5h5.5h8t8.5 -0.5t6 -0.5l3.5 -0.5l7 -1l7 -1t4.5 -0.5t4 0.5t6.5 0t6 -2t2.5 -4.5v0q0 -1 -1 -4t-3 -3z" />
</svg>
