<?xml version="1.0" standalone="no"?>
<!DOCTYPE svg PUBLIC "-//W3C//DTD SVG 1.1//EN" "http://www.w3.org/Graphics/SVG/1.1/DTD/svg11.dtd" >
<svg xmlns="http://www.w3.org/2000/svg" xmlns:xlink="http://www.w3.org/1999/xlink" version="1.1" viewBox="-10 0 266 256">
   <path fill="currentColor"
d="M162 204h4t6.5 0.5t6.5 0.5h5q6 1 8.5 4t3 7.5t0 9.5t-0.5 10q0 1 0.5 3t0.5 4.5t0.5 4.5t0.5 3h1.5h1.5q5 0 7 -3t2 -7q0 -9 -1 -19.5t-4 -19.5q-1 -3 -4.5 -4t-8 -1h-9.5t-9 -0.5t-6.5 -3t-2.5 -7.5q0 -4 3 -6t8 -3t10.5 -1t10.5 -1.5t8 -5t3 -10.5t-2.5 -9.5t-5 -4
l-5 -3t-2.5 -5.5q0 -3 3 -4.5l7 -3.5t7 -6t3 -12v-71h-3h-2q-1 0 -2 0.5t-1 1.5v17l-1 1l-1 1h-1h-1q-5 -4 -10 -9.5t-5 -13.5l1 -1t1.5 -2t1.5 -2.5l1 -1.5h24q1 0 1.5 -2t0.5 -3q0 -3 -2.5 -4.5t-4.5 -1.5q-5 0 -15.5 0.5t-21 3t-18 6.5t-7.5 12v77q0 5 2.5 7.5t5.5 3.5
l6 2t3 4v1v0q-3 4 -7.5 6.5t-9 4.5t-8 3.5t-5.5 5.5q0 2 3 2h4q5 0 10 -2.5t9 -6t7 -8t5 -8.5q1 0 2.5 -1t2.5 -1h1h1l1.5 1l1.5 1q0 7 3.5 12.5t9.5 8.5v4q0 5 -3 6.5t-7.5 2.5t-10 1t-10 2t-7.5 6.5t-3 12.5q0 2 0.5 4t1.5 4t2.5 4t3.5 2zM40 235q0 1 1.5 2.5t3.5 1.5
q3 0 6.5 -3t7 -8.5t6.5 -11.5l6 -12t5 -11t3 -7q0 -1 1.5 -3.5t2.5 -5t2.5 -5l1.5 -2.5l1 -0.5l1 -0.5q2 0 4.5 5t5.5 12.5t6.5 16t7 15.5t7 12t7.5 5q7 0 7 -7q0 -2 -2.5 -6.5t-5.5 -9.5t-6.5 -9t-5.5 -6q-6 -11 -11.5 -25t-5.5 -27q0 -1 0.5 -1.5l1.5 -1.5q2 -2 5 -5.5
l6 -7t5.5 -6t3.5 -2.5q2 0 3.5 1.5t2 4t0.5 5v3.5q0 4 -2 7t-5 6l-5.5 5.5t-2.5 6.5q0 1 0.5 2t1.5 1q3 0 6.5 -3.5t7 -8t6 -9t2.5 -7.5q0 -8 -2.5 -13.5t-6 -10.5t-6 -12t-2.5 -17q0 -4 1 -6.5t1 -6.5v-2t-2 -1q-3 0 -4.5 3t-2.5 7t-1 8v5q0 6 1.5 11t1.5 11q0 2 -1 5.5
t-3 7t-4.5 6l-4.5 4.5l-2 -2v-13q0 -9 0.5 -17.5t0.5 -17v-17.5t1 -19q1 -3 2.5 -3h3.5q4 0 7 1.5t6.5 3.5t7 3.5t7.5 1.5h1q0 -1 1.5 -2t1.5 -2v0q0 -4 -4.5 -6.5t-11 -4t-12.5 -2.5t-8 -3v-6t-1 -7.5t-3 -6.5t-6 -3v0l-1.5 1.5l-0.5 0.5q1 11 -1.5 17.5t-7 9.5t-11 3.5
t-11.5 1.5t-8.5 3.5t-3.5 7.5q0 2 0.5 3t2.5 1q5 0 9.5 -2.5l9 -5l9 -5t8.5 -2.5q2 0 3 2.5t1 4.5q0 12 -0.5 22.5t-1 21.5t-0.5 22v23q-3 9 -6.5 17.5t-7 16t-8 15t-9.5 16.5q-1 0 -2 2.5t-2 4.5q0 1 -2 4t-4 6.5t-4 6.5t-2 4zM46 141q0 2 1 7t2.5 10.5t3.5 9t4 3.5
q3 0 4 -2t1 -4q0 -3 -1 -6.5t-2.5 -6.5t-2.5 -6.5t-2 -6.5l0.5 -2l1 -4t1.5 -3.5t2 -1.5q2 0 4 1.5t3.5 3.5t2.5 4t1 3h10q0 -3 -2 -6t-5 -6t-5 -6t-2 -6q0 -5 1.5 -9.5t3.5 -8.5t3.5 -8.5t1.5 -9.5v-4.5v-4.5q-2 -3 -3 -3.5t-3 -0.5q-3 0 -3.5 1t-0.5 5l-0.5 2.5t-0.5 5.5
t-0.5 5.5t-0.5 3.5q-2 7 -5 13l-6 12t-5 12t-2 14zM157 115v-3t2 -2l41 -3q1 -1 1.5 1.5t0.5 3.5q0 5 -2 7.5t-5.5 3.5t-7 1.5t-7.5 0.5q-3 0 -7 -0.5t-7.5 -1.5t-6 -3t-2.5 -5zM154 93v-2.5t1 -1.5q2 0 6.5 -0.5t9.5 -1t9.5 -1t6.5 -1.5l2 -0.5t3 -0.5h3q5 0 7 2t2 7
q0 4 -3.5 5.5t-7.5 2t-8.5 0t-5.5 -0.5h-2.5t-3.5 0.5t-4 0.5h-2h-2q-3 0 -7 -2t-4 -6zM157 75v-1l1.5 -1.5t2.5 -1.5q1 -1 3.5 -3t5 -4.5t5.5 -4.5t4 -3h0.5h0.5q2 0 5 1.5t6.5 4.5t5.5 5.5t2 4.5q0 3 -4 4.5t-8.5 2t-10 0.5h-7.5h-10q-1 -1 -1.5 -2l-0.5 -1v-1zM154 59v-1
v0q1 -6 1.5 -10.5t2 -8t4.5 -5t10 -1.5q4 0 4.5 3t0.5 6q0 2 -2 5.5t-5.5 7t-7 6t-5.5 2.5q-3 0 -3 -4z" />
</svg>
