<?xml version="1.0" standalone="no"?>
<!DOCTYPE svg PUBLIC "-//W3C//DTD SVG 1.1//EN" "http://www.w3.org/Graphics/SVG/1.1/DTD/svg11.dtd" >
<svg xmlns="http://www.w3.org/2000/svg" xmlns:xlink="http://www.w3.org/1999/xlink" version="1.1" viewBox="-10 0 266 256">
   <path fill="currentColor"
d="M121 200q0 13 -1 26t-1 26q15 0 15 -16q0 -13 -1.5 -27.5t-1.5 -27.5q-2 -5 -5.5 -8t-8 -5t-9.5 -2.5t-9 -1.5t-6.5 -3t-2.5 -5v-1q11 -1 24 -1.5t25 -0.5q1 0 2 -0.5l1 -0.5q1 -1 1.5 -4t0.5 -4h-22l-0.5 -1l-0.5 -1q-1 -1 -1.5 -3.5l-0.5 -2.5v-5t0.5 -6.5t1.5 -6
t3 -2.5h5.5t6.5 -1t5.5 -2.5t2.5 -4.5q0 -2 -1.5 -3.5t-3.5 -1.5h-15q-1 -1 -1.5 -2t-0.5 -2q0 -10 3.5 -16t7 -10t6.5 -8t3 -9q0 -9 -4 -13.5t-10.5 -7t-13.5 -3t-13 -1.5q-3 0 -4.5 -3t-2.5 -7t-2.5 -7t-3.5 -2q-3 0 -3.5 2t-0.5 4q0 7 2 11t4.5 6.5t4 4.5t1.5 4
q0 3 -3 8.5t-7 11t-7 10t-2.5 6.5t2 3t2.5 1q4 0 7 -2.5t5.5 -6t4.5 -7t3 -6.5q1 -2 2 -5.5t2 -6.5t3 -5t5 -2h5.5t5 1t4 2.5t1.5 5.5q0 3 -2 7t-5 8t-6 7.5t-3 7.5q-1 1 -1 4v6.5t-0.5 6.5t-2.5 5q-1 0 -3.5 0.5l-5 1t-5.5 0.5h-4h-1v0q-1 0 -4 -2t-3 -3h-25q-4 0 -6 2.5
t-2.5 5.5t-1 6.5t-1.5 5.5q0 2 -0.5 7.5t-1 12.5t-1 12.5t-1.5 7.5v2t-0.5 3t-0.5 3.5v1.5v5.5t0.5 10t0.5 10v5.5q0 2 0.5 6t0.5 9t-0.5 9.5t-0.5 6.5q1 1 2 3t2 2q3 0 5 -2.5t3 -6t1.5 -6.5t0.5 -5q0 -7 -2 -13t-2 -13t2.5 -14t2.5 -15q0 -1 0.5 -6t0.5 -10.5t0.5 -10
t0.5 -6.5q0 -3 0.5 -6.5t1.5 -6t3.5 -4t6.5 -1.5h2.5t1.5 1l2 3v10.5v12.5q0 6 0.5 12.5t1.5 11.5t4.5 7.5t8 3.5t9.5 2.5t9 4t7 7t3 12.5zM157 184q0 7 3 11t7 6t9 2.5t9 0.5t7 1t3 3v33q0 2 1.5 3.5t3.5 1.5t3.5 -1.5t2.5 -3.5t1.5 -4t0.5 -3v-1v0q0 -1 -0.5 -3l-1 -4
l-1 -4l-0.5 -2v-3v-4v-4v-2q-1 -6 -5 -9.5t-9 -5t-11 -1.5h-10q0 -1 -0.5 -3l-0.5 -2q0 -5 3 -6.5t7.5 -2.5t10 -1.5t10 -2.5t7.5 -6t3 -13q0 -5 -4 -7.5t-9 -4.5v-12l0.5 -0.5l0.5 -0.5q8 -5 12 -12t5.5 -14.5t1.5 -16.5v-17q2 -4 2.5 -6t0.5 -6q0 -1 -1 -3.5t-2.5 -4.5
t-3 -3.5t-3.5 -1.5q-2 1 -3 3t-1.5 4t-1.5 3.5t-3 1.5q-4 0 -7 -3.5t-3 -7.5q0 -2 0.5 -4t3.5 -3h4.5t7 -0.5t6 -1.5t2.5 -5q0 -1 -0.5 -3t-2.5 -2h-19q-1 -1 -4 -1h-5q-14 0 -21 6.5t-9.5 16.5t-2.5 22v22v4v5t0.5 6t0.5 5.5v3.5q1 3 3 5t4.5 3.5t4 3t1.5 4.5t-2.5 7
t-6 8.5t-7 8.5t-5.5 5v1v1q0 2 1 2.5t3 0.5q8 0 12.5 -5.5t8 -12.5t6 -12.5t6.5 -5.5h1.5h2.5t2 0.5t1 1.5t0.5 3t0.5 4.5t0.5 4.5t0.5 3l1 1.5t2.5 2.5t2 2t1.5 2v1v1q0 4 -3 5.5t-7.5 2.5t-9.5 2t-9.5 3t-7.5 5t-3 9zM109 115v4v4.5t-0.5 7t-0.5 7v4.5q-2 2 -4.5 3t-5 1
h-5.5h-3v-28q0 -1 1 -1.5t2 -0.5h3t5 -0.5t5.5 -0.5h2.5zM165 118q-1 -1 -1 -3v-2v-3t1 -2h33q2 0 2 1v2q0 2 -1.5 3.5t-3.5 2.5t-4.5 1.5t-3.5 0.5h-2h-4t-6 -0.5t-6 -0.5h-4zM161 90q0 -1 1 -2t2 -1h39v9h-39l-1 -0.5l-1 -0.5q0 -1 -1 -3t0 -2zM58 56q0 6 -3 8t-6.5 3
l-7 2t-3.5 3v12q0 1 3 1h3q3 0 7.5 -2t9 -5t7.5 -7t3 -7v-3t0.5 -4t0.5 -4v-2q0 -5 -0.5 -10.5t-2 -10t-5 -7.5t-10.5 -3q-2 0 -3 2t-1 4q0 3 1 6.5t3 7t3 8t1 8.5zM164 75q2 -2 5 -4.5t6 -4.5l6 -4t4 -3q2 2 3 4.5t4 3.5q2 2 5 3t4 4q-2 0 -4 1l-4 2h-2h-3.5h-3.5h-2h-9
t-9 -2zM173 41q3 0 4.5 0.5t1.5 3.5q0 6 -5 9.5t-11 3.5v-7t1 -5.5t3 -3.5t6 -1z" />
</svg>
