<?xml version="1.0" standalone="no"?>
<!DOCTYPE svg PUBLIC "-//W3C//DTD SVG 1.1//EN" "http://www.w3.org/Graphics/SVG/1.1/DTD/svg11.dtd" >
<svg xmlns="http://www.w3.org/2000/svg" xmlns:xlink="http://www.w3.org/1999/xlink" version="1.1" viewBox="-10 0 266 256">
   <path fill="currentColor"
d="M151 206q0 4 3.5 6.5t9 4t10.5 3.5t8 4q2 3 3.5 7.5l3 9t3.5 7.5t6 3q2 0 3 -0.5l3 -1.5v-5q0 -7 -3 -13t-7.5 -10t-10 -7t-10 -5t-7.5 -4t-3 -4q0 -6 3 -8.5t7.5 -3t10 -1t10 -2t7.5 -5.5t3 -12q0 -6 -3 -8.5t-6.5 -4.5t-6.5 -4t-3 -8q0 -3 2 -4t4.5 -2t5 -2.5t4.5 -3.5
q3 -4 4 -8t1.5 -8l1 -8t1.5 -9v-43q0 -2 -2 -2.5t-3 -0.5q-2 0 -4.5 0.5t-2.5 2.5v22l-0.5 0.5t-1.5 0.5v0h-1q-5 -4 -8.5 -9t-9.5 -9v-13l6 -3l1.5 -1l1.5 -1h21q2 0 2.5 -1.5t0.5 -3.5v-2t-1 -1h-33q-7 3 -15.5 4t-15.5 1l-7 7l-0.5 2t-1 5t-0.5 6v5v1.5t0.5 3l1 3
t0.5 2.5v51q0 6 3 8t6.5 3t6.5 2t3 5q0 6 -5 10.5t-10 8t-10 6t-5 3.5q0 3 2 3h4q6 0 12 -3.5t10.5 -8.5t7.5 -11t4 -11h9q1 0 1 2t0.5 5l1 6l0.5 3q1 3 3.5 4t4.5 2.5t4 3.5t2 5t-1 5t-3 3q-6 1 -13 2t-12.5 3.5t-8.5 7.5t-3 13zM47 236q1 2 2 3.5t4 1.5q4 0 5 -2.5t1 -5.5
v-2v-5t-0.5 -8.5t-0.5 -8.5v-5v0v-1v-3t0.5 -4t0.5 -4v-2v-20q1 -1 1.5 -2.5t1.5 -2.5h4t5.5 -0.5l5 -1t3.5 -0.5h10.5t15 -0.5t13.5 -2t6 -4.5v-1q-1 0 -2 -1t-2 -1h-24q-3 0 -3.5 -2.5t-0.5 -3.5q0 -5 2.5 -6.5t6 -2.5t7.5 -1h7q1 0 1.5 -2t0.5 -3l-1.5 -1t-2.5 -1h-20
v-13q0 -2 3.5 -2.5t8 -1t8.5 -1.5t4 -5h-22l-0.5 -2.5t-0.5 -5.5t1 -5.5t4 -2.5h1q4 2 8.5 4t9.5 2q0 -7 -3.5 -9.5t-7.5 -4t-7.5 -3t-3.5 -4.5v-1v0q1 -1 5 -4t8.5 -6.5t8.5 -6.5t4 -4q0 -2 -1 -3.5t-2.5 -2.5t-3.5 -1.5t-3 -1.5q-2 -2 -5 -4.5t-5.5 -5l-4.5 -4.5l-2 -2
v-17q0 -1 -2 -1.5t-3 -0.5t-4 0.5t-3 3.5v16l-2.5 1.5t-6 3.5t-7 4.5t-6.5 3.5q-1 1 -3 2l-4 2t-3.5 3t-1.5 4q0 3 4.5 5.5t10 5t9.5 5.5t4 6q0 1 -1 2.5t-3 3.5t-4 3.5t-2 2.5q-4 6 -6 12.5t-6 11.5q-5 26 -7 51.5t-2 51.5v4v6.5v6.5v4zM62 149q0 -2 0.5 -5t3.5 -3
q1 0 3 -0.5l4 -1t4 -0.5h3h1h1h1.5t1.5 2v12q0 2 -2 3t-4.5 1h-5.5h-3q-4 0 -6 -2t-2 -6zM65 132q-1 0 -1.5 -1.5t-1.5 -1.5v-1q0 -2 1 -4.5t2.5 -4.5t3 -3.5t4.5 -1.5h1.5t3.5 0.5t3.5 1t2 0.5t1 0.5l0.5 0.5v13q0 1 -0.5 1.5t-1.5 0.5q-1 1 -2.5 1.5t-2.5 0.5l-2.5 -0.5
t-4.5 -0.5t-4 -0.5zM147 117q11 0 18 -0.5t17 -0.5h4t4 0.5t3 2t1 3.5q0 3 -0.5 5t-3.5 3q0 1 -2 1t-4.5 0.5t-4.5 0.5h-3h-1h-2.5t-0.5 -2q-5 2 -8 2h-8h-1.5t-3 -0.5l-3 -1t-1.5 -1.5v-12zM149 109q-2 0 -2 -2v-3v-3q0 -1 2 -2q6 0 10.5 -0.5t8.5 -0.5h8h9h7q3 1 3.5 2.5
t0.5 3.5v3t-2 2h-4h-7h-6h-4l-2.5 1l-2.5 1q-1 0 -3.5 -1t-3.5 -1h-2.5h-3.5h-3.5h-2.5zM69 102q0 -2 2 -5.5l4 -7t4.5 -6t4.5 -2.5h1l2 2t2 1v1q0 3 -0.5 6.5l-1 7t-2.5 6.5t-6 3q-3 0 -6.5 -1t-3.5 -5zM145 86q0 -3 2.5 -6t6 -5t7.5 -3.5t7 -1.5q2 0 6 2t7.5 5t6.5 6t3 5
q0 1 -1 2t-3 1h-38q-2 0 -3 -1.5t-1 -3.5zM66 55q1 -2 4 -5t6.5 -6t7 -5.5t5.5 -2.5t4 2l4 4q1 0 2.5 2t3 3.5t3 3.5t2.5 2v1v2q0 2 -3.5 3.5t-5.5 1.5l-0.5 -0.5t-1.5 -0.5q-2 -3 -2 -4t-3 -1t-3.5 2t-0.5 6v5.5t-3 3.5q-5 -4 -10 -9t-9 -8zM145 61q0 -7 3 -10.5t10 -3.5h6
q1 0 1.5 0.5l0.5 0.5q0 1 0.5 4.5t1.5 5.5v1q0 2 -2.5 4t-5 3.5t-5.5 2.5t-4 1q-4 0 -5 -3t-1 -6z" />
</svg>
