<?xml version="1.0" standalone="no"?>
<!DOCTYPE svg PUBLIC "-//W3C//DTD SVG 1.1//EN" "http://www.w3.org/Graphics/SVG/1.1/DTD/svg11.dtd" >
<svg xmlns="http://www.w3.org/2000/svg" xmlns:xlink="http://www.w3.org/1999/xlink" version="1.1" viewBox="-10 0 266 256">
   <path fill="currentColor"
d="M129 247q1 3 2 3.5t3 0.5q4 0 6.5 -2.5t2.5 -6.5q0 -6 -0.5 -12.5t-0.5 -13.5v-2v-7t0.5 -12t0.5 -12v-7q0 -5 1 -12t4 -13.5t7.5 -10.5t11.5 -4q3 0 4.5 1.5t2 4t1 5.5t2.5 5q1 2 4.5 3.5t6 3t5 4t2.5 6.5q0 3 -3 4t-6.5 1.5t-8 1t-8 1.5t-6 3.5t-2.5 8.5q0 7 6 11.5
t13 8t12.5 5.5t5.5 5v27q0 3 2 3h4q3 0 5.5 -1t2.5 -5t-0.5 -9t-1.5 -10.5t-3 -10.5t-5 -8q-2 -3 -7 -4l-10 -2t-8.5 -3.5t-3.5 -8.5q0 -1 0.5 -2.5t3.5 -2.5h8.5t11 -1t9.5 -4t4 -9q0 -8 -4 -11t-9.5 -4t-9.5 -3t-4 -9q0 -5 1.5 -7.5t4 -3.5t5.5 -2t5.5 -3t4.5 -6t2 -12
q0 -15 -1.5 -29.5t-0.5 -29.5q-1 -2 -3 -5t-4 -3q-3 0 -4 2t-1.5 4.5t-1 4.5t-3.5 2q-5 0 -7 -2t-3 -5t-1 -6v-7h30l1.5 -2t1.5 -4l-1.5 -1.5l-1.5 -1.5q-7 -1 -10 -1h-9h-5q-15 0 -23.5 0.5t-13 3.5t-6 11t-1.5 23q0 3 1 3.5t1 1.5v1v5t-0.5 8l-1 8t-0.5 5t0.5 3.5t0.5 6.5
t0.5 7t0.5 5q0 1 0.5 2t0.5 2.5t0.5 3t0.5 2.5t1 2t1.5 2t1.5 2t1 3t-2 6.5t-5 9t-5.5 8.5t-3.5 5q0 16 -1 31.5t-1 31.5v21zM92 235q2 3 6 5.5t8 2.5q3 0 4.5 -2t1.5 -4q0 -1 -0.5 -1.5l-0.5 -0.5l-11 -13v-2v-4q0 -9 1 -19t1 -19q0 -3 -2 -5l-4 -4l-4 -4t-2 -5
q0 -4 2.5 -4.5t5.5 -0.5q7 0 9 3t3 6.5t1.5 6.5t3.5 3t5 -2t3 -4q-5 -10 -8 -20.5t-2 -21.5q-1 -1 -1.5 -1h-1.5q-2 0 -3 0.5t-2 2.5v4.5t-0.5 6.5t-2 5.5t-4.5 2.5h-0.5h-0.5q-1 0 -2 -1.5l-1 -1.5v-1.5t0.5 -2.5t0.5 -2.5v-1.5v-3q0 -3 -1 -3.5t-4 -0.5q-4 0 -5.5 3.5
t-1.5 7t-1.5 6.5t-5.5 3h-1.5h-1.5l-1 -0.5l-2 -1l-2 -1l-1 -0.5q-4 -1 -6.5 1t-2.5 5v3h6h7.5t6.5 1.5t3 4.5q0 8 -5.5 14.5t-12 11.5t-12 9.5t-5.5 7.5q0 2 1.5 2h2.5q6 0 11.5 -3.5t10 -8.5t8 -10t6.5 -8h5v3t0.5 4.5t0.5 5v3.5v1v1q0 5 -1 10t-1 10q0 6 0.5 10t1.5 11z
M151 115v-1.5v-1.5l3 -2h36l0.5 0.5t0.5 1.5v1q0 4 -2.5 6t-6.5 3.5t-8 2t-6 0.5h-6t-5.5 -1t-4 -3t-1.5 -6zM87 110q0 3 1 5.5t4 4.5q3 -2 5 -7t2.5 -11.5t0.5 -12.5v-9q0 -2 -1 -4t-1 -4q0 -3 0.5 -6.5t3.5 -4.5q6 -1 11.5 -1.5t11.5 -0.5q0 -3 -1.5 -4.5t-4.5 -1.5h-3.5
h-4.5h-5.5h-3.5t-1.5 -1.5l-0.5 -1.5q0 -3 3 -6t7 -6.5t7 -7.5t3 -8q0 -2 -1.5 -4t-4.5 -2l-1 1t-2 1l-8 13v0h-1v0q-1 -1 -2 -1.5l-1 -0.5v-13q0 -2 -2.5 -2.5t-3.5 -0.5q-3 0 -4.5 2.5t-1.5 5.5q0 7 2 13.5t2 13.5q0 3 -1.5 4.5t-3.5 2t-4 0.5h-4q-4 0 -7.5 -1t-8.5 -1
h-2.5t-3 1l-3 2t-1.5 2v1q0 1 1 1.5l1 0.5h32q1 0 2 1.5t1.5 3t1 3.5t0.5 3q0 9 -2 19t-2 19zM60 108q0 2 1.5 3t3.5 1q4 0 7 -4.5t5 -10t3.5 -11t2.5 -7.5q-1 -1 -2.5 -3t-2.5 -2q-2 -1 -5 4t-6 11t-5 12t-2 7zM105 83q0 1 1.5 5.5t3.5 9t4 8t4 3.5q4 0 4.5 -1.5t0.5 -4.5
t-0.5 -7t-2 -8t-3.5 -7t-6 -3q-3 0 -4.5 0.5t-1.5 4.5zM148 95v-3.5t2 -3.5h3.5h5.5h6h4l2 -0.5t3 -0.5v0h5t6 0.5t5.5 2t2.5 4.5v2.5t-2 2.5q-6 1 -11.5 1.5t-11.5 0.5h-4l-1.5 -1l-1.5 -1q-1 0 -3.5 1t-3.5 1h-2q-3 0 -3.5 -2t-0.5 -4zM146 75q0 -4 2.5 -7t6 -5.5t7.5 -4
t7 -1.5l0.5 0.5l0.5 0.5l21 9q1 1 1.5 2.5t0.5 2.5q0 2 -1.5 4.5t-3.5 2.5h-38q-3 0 -3.5 -1.5t-0.5 -2.5zM156 35q3 0 4.5 3.5t1.5 5.5q0 4 -3 7.5t-7 3.5l-0.5 -0.5l-0.5 -0.5l-0.5 -0.5l-0.5 -0.5v-15q0 -1 2.5 -2t3.5 -1zM61 16q0 4 1.5 7.5t4 7t4.5 7t4 7.5h8v-3.5
t-0.5 -2.5t-1.5 -2t-2 -3q-1 -5 -2 -8.5t-2.5 -5.5t-4.5 -3t-9 -1z" />
</svg>
