<?xml version="1.0" standalone="no"?>
<!DOCTYPE svg PUBLIC "-//W3C//DTD SVG 1.1//EN" "http://www.w3.org/Graphics/SVG/1.1/DTD/svg11.dtd" >
<svg xmlns="http://www.w3.org/2000/svg" xmlns:xlink="http://www.w3.org/1999/xlink" version="1.1" viewBox="-10 0 266 256">
   <path fill="currentColor"
d="M88 239v10l1 0.5t2 1.5h1q3 0 5 -5.5t3.5 -12t3 -12.5t3.5 -8q0 -1 0.5 -2l0.5 -1q1 -4 1 -9v-10.5t0.5 -10t3.5 -8.5q1 -1 3.5 -2t5 -1h5.5h5q3 0 4 1t3 4q1 17 3.5 33.5t4.5 32.5l3 6t5 2q2 0 3 -0.5t1 -3.5q0 -7 -3 -13.5t-4 -13.5q-2 -9 -4 -19t-2 -19v-3v-2l3 -3h26
t26 -2q1 0 1.5 -1t0.5 -2t-0.5 -2.5t-1.5 -1.5h-45l-0.5 -0.5l-0.5 -0.5v-1q0 -5 3 -7.5t7 -4t9 -2t9.5 -1.5t7.5 -4t3 -9q0 -5 -2.5 -8t-5.5 -5t-5.5 -3.5t-2.5 -4.5q0 -4 2.5 -5.5t6 -4t6.5 -6t4 -11.5v-5.5t0.5 -11t0.5 -13v-10.5v-2q0 -2 -0.5 -3.5t-2.5 -1.5h-3t-2 2
v13l-2 1l-13 -13v-1v-2v-2v-2.5t0.5 -3l0.5 -1.5h22q1 0 1.5 -1.5t0.5 -2.5t-0.5 -2t-2.5 -2h-3h-4.5h-5.5h-2h-17.5t-17.5 3l-1 0.5t-2 2t-1.5 2.5t-0.5 2v63q0 1 1 3t3 4l3.5 3.5l2.5 2.5v0q0 4 -3 6.5t-6 4.5l-6 4t-3 6v0v0q0 1 0.5 1.5t1.5 0.5v0q5 0 8.5 -4t7.5 -8.5
t7.5 -8.5t7.5 -4q3 0 4 2t1.5 5l1 6t2 4.5t3 2.5t3.5 1.5t3.5 2t1.5 4.5q0 1 -1 3t-2 2q-3 1 -6.5 1t-7.5 1t-7.5 2t-6.5 2q-2 1 -3.5 4.5t-2.5 6.5t-2 5.5t-2 2.5q-10 0 -19.5 1t-19.5 1q-3 0 -5 -0.5t-4 -1.5v-1.5v-1.5q0 -6 1.5 -9t4 -5t5.5 -3t5.5 -2.5t4 -4t1.5 -7.5
t-3 -6t-7 -2t-7.5 -2t-3.5 -6q0 -2 1.5 -3t3 -1.5t3.5 -1t3 -0.5q4 -4 6.5 -10.5t3 -14t0.5 -15v-11.5v-4.5v-5.5t-1 -5t-4 -2q-2 0 -2.5 2t-1 3.5t-0.5 3.5v3h-4l-12 -11v-2v-1q0 -6 3 -8t7 -3t9 -0.5t9 1.5q1 -1 1 -2v-2q0 -2 -1 -3.5t-4 -1.5h-1q-3 0 -9 0.5t-11.5 1
t-9.5 1t-5 0.5q-9 1 -14 4t-6 13q0 8 -0.5 13.5t-0.5 10.5v11v12v17q0 3 2.5 4t4.5 2l4 2t2 4q0 4 -3.5 6t-7.5 4.5t-7.5 5t-3.5 6.5q0 2 1 2.5t3 0.5q3 0 7.5 -3t8.5 -7.5t7 -9l5 -7.5h1q5 0 5.5 2t2.5 6q1 3 4 4.5t6.5 1.5t6 1t2.5 3q0 4 -2.5 5.5t-5.5 2.5l-6 2t-4 3
q-2 4 -2 8t-1 7t-3 5.5t-8 2.5h-5.5h-8.5h-7.5h-4.5q-2 0 -2 1.5v2.5v1.5t2 1.5h46q1 0 1 2v2q0 21 -5 41l-2.5 7.5t-2.5 8l-1 3.5zM69 97q0 -4 4.5 -6t10.5 -2.5t11 -0.5h7q3 0 5.5 1t2.5 5t-3 6t-7 3t-8 1h-7h-4.5t-5 -1t-4.5 -2.5t-2 -3.5zM147 94v-3.5t2 -2.5
q5 -1 11.5 -2t12.5 -1q1 0 3.5 0.5l5 1t4 2t1.5 3.5t-1.5 3.5t-3.5 1.5h-29q-1 0 -3 -0.5t-3 -1.5v-0.5v-0.5zM69 77q0 -5 3 -6t7 -2h4t6 -0.5t5.5 -0.5h3.5q1 -1 2 -1.5t2 -0.5h2.5t3 0.5t2.5 1t1 1.5v10l-1 2q-9 0 -18.5 1.5t-18.5 1.5q-3 0 -3.5 -2t-0.5 -5zM146 73v-2
v-2q7 -2 14 -1.5t15 0.5q1 0 3 -1t3 -1h1v0q4 0 6 1.5t2 4.5q0 2 -1 4.5t-4 2.5h-36q-3 0 -3 -2.5v-3.5zM91 47h3t3 2l2.5 2.5l2.5 2.5l2 2l1 1l-1 4h-1.5t-3 0.5t-3 0.5h-2.5h-5h-6.5h-6.5h-4v-3l2 -1.5t5 -3t4 -2.5q3 -1 4.5 -3t3.5 -2zM155 58q0 -3 1.5 -4t4 -2t5 -1.5
t3.5 -0.5q11 0 11 11h-23q-2 0 -2 -1v-2zM70 45q0 -7 3 -11.5t10 -4.5h5t1 4q0 3 -1 5.5t-3 4.5t-4.5 3.5t-5.5 3.5l-0.5 0.5l-0.5 0.5q-2 0 -3 -2t-1 -4zM163 29q4 0 5 2.5t1 5.5t-2.5 5.5t-6 4t-7 2.5t-6.5 1v-16q0 -1 2.5 -2l5 -2t5.5 -1h3z" />
</svg>
