<?xml version="1.0" standalone="no"?>
<!DOCTYPE svg PUBLIC "-//W3C//DTD SVG 1.1//EN" "http://www.w3.org/Graphics/SVG/1.1/DTD/svg11.dtd" >
<svg xmlns="http://www.w3.org/2000/svg" xmlns:xlink="http://www.w3.org/1999/xlink" version="1.1" viewBox="-10 0 266 256">
   <path fill="currentColor"
d="M102 231q0 3 1 6t3 5.5t5 4t7 1.5h25q2 0 5.5 -4t7.5 -9.5t7.5 -10.5t6.5 -7q1 -1 3 -2.5t4.5 -3t4.5 -3.5t2 -4v0l-2.5 -2.5l-1.5 -1.5h-0.5h-0.5h-0.5h-0.5q0 1 -2 2t-4.5 2.5t-4 2.5t-2.5 1q0 1 -1.5 1.5t-2.5 0.5q-4 3 -7 8t-6 9.5t-7.5 7.5t-10.5 3t-11 -3t-5 -8
t4.5 -9.5t10 -9.5t10 -9.5t4.5 -9.5q0 -4 -1.5 -6t-4.5 -4t-6 -3t-6 -1q-4 0 -8 1t-8.5 2.5t-8.5 2.5t-8 1q-5 0 -8.5 -3t-3.5 -9q0 -5 3 -8t6.5 -5t8.5 -2h10q4 0 8 0.5t10 1.5q2 -1 3.5 -3l3 -4t3 -3.5t3.5 -1.5q4 0 12.5 0.5t16.5 2.5t14 6.5t6 12.5q0 4 -3.5 8.5
t-8.5 4.5q-6 0 -10 -2.5t-7 -5.5t-5 -6t-4 -3q-4 0 -4 4q0 6 3.5 10.5t8.5 7t11 4t10 1.5t6 -1.5l4 -3t4 -3.5t4 -3v-5v-4q0 -11 -5.5 -17.5t-14 -10t-19 -4t-18.5 -0.5q-1 0 -1.5 -0.5l-0.5 -0.5q-1 0 -1.5 -2t-1 -3.5t-1.5 -3l-1 -1.5q-2 -3 -5 -4.5t-7 -2.5t-7.5 -1.5
t-5.5 -1.5q-5 -2 -7.5 -6t-3.5 -8t-2 -7t-3 -3t-3.5 2.5t-1.5 4.5v2q1 1 1 3.5t1 5t1.5 5l0.5 2.5q1 4 3 5.5t4.5 1.5h5.5h5q1 0 3.5 0.5t5.5 1.5t5.5 2t2.5 3v14h-35q-6 0 -10 3t-7 8t-4 10t-1 10v3.5t1 5t2 4.5t4 2h11q4 0 8.5 -1t9 -2.5t8.5 -2.5t9 -1h6q2 1 2.5 2t0.5 3
v2l-4 4l-4 4q-1 0 -2 2.5l-1 2.5q-4 4 -7 6.5t-5.5 4.5t-4 5.5t-1.5 9.5zM52 159v4t4 2q2 0 3.5 -1.5t2.5 -4l2 -5t2 -4.5q-1 -12 -0.5 -24.5t1.5 -25t3 -24.5l4 -24q1 -5 1.5 -10.5t3.5 -9.5q2 -2 6.5 -5t6.5 -4q7 0 12 -0.5t10.5 -0.5h10.5h12h18q2 0 6 0.5t9 1t9 1t6 0.5
q5 3 5 8q0 2 -0.5 7t-1.5 10t-2 9t-2 4h-13q-10 0 -20 -0.5t-21 -0.5q-9 0 -17 5q-1 1 -2 3l-2 4t-2 4.5t-1 3.5v2v3v5t2 5q10 0 18.5 0.5l17 1t17 1.5t17.5 2q4 0 7 3.5l6 7t5 6.5t3 3q2 0 2.5 -1.5t0.5 -2.5q0 -8 -4 -13t-11 -8t-14 -4t-13 -1q-3 0 -9 -0.5t-13 -0.5
t-13 -0.5t-9 -0.5q-2 0 -2 -3v-3q0 -8 5 -11t12 -3q12 0 24 1t25 1h3h4h3h2l2 -2q0 -11 2.5 -22t2.5 -22v-3t-1 -3q-4 -3 -9 -5t-11 -2h-8h-13t-15 -0.5t-15 -0.5h-12.5h-8.5h-5q-12 0 -19.5 4.5t-12 12t-7 17.5t-3 20.5t-1 20.5t-1.5 18q-1 13 -3 26.5t-2 27.5zM92 42
q1 3 3 3h4h4h8t13.5 -0.5t16 -0.5h16t13.5 -0.5t8 -0.5t2 -1v-2v-2q-14 -1 -26 -1.5t-26 -0.5h-6t-8.5 0.5t-8.5 0.5h-6t-3.5 1.5z" />
</svg>
