<?xml version="1.0" standalone="no"?>
<!DOCTYPE svg PUBLIC "-//W3C//DTD SVG 1.1//EN" "http://www.w3.org/Graphics/SVG/1.1/DTD/svg11.dtd" >
<svg xmlns="http://www.w3.org/2000/svg" xmlns:xlink="http://www.w3.org/1999/xlink" version="1.1" viewBox="-10 0 266 256">
   <path fill="currentColor"
d="M61 231q0 6 4 9.5t8 6.5h3.5h4.5q8 0 12.5 -3.5t8 -8t6.5 -10.5t7 -11q3 -3 6 -5.5t6 -4.5t6 -4.5t5 -6.5q-2 -3 -6 -3q-2 0 -3.5 0.5t-3.5 1.5q-1 0 -3 2.5t-5 5.5t-5 5.5t-3 3.5q-3 3 -5.5 8t-5.5 10t-7 8t-9 3t-8.5 -3t-3.5 -8q0 -7 4 -10.5t8.5 -6.5t8 -7.5
t3.5 -12.5q0 -7 -2.5 -10.5t-9.5 -3.5q-4 0 -7 1t-7 1h-1.5h-2.5q-1 -3 -1.5 -5.5t-0.5 -5.5q0 -4 2 -6.5t5 -4.5t6.5 -4t6.5 -5t5 -7.5t2 -12.5q0 -2 -3.5 -7t-7.5 -9.5t-7 -8.5l-3 -4q-2 0 -2.5 1.5t-1 3.5t-0.5 3v3q0 5 3 8t6.5 5.5t6.5 5t3 6.5t-2.5 6.5t-6.5 4.5
t-8.5 4t-8.5 4.5t-6.5 6t-2.5 9.5q0 9 3 14t12 5q6 0 10 -0.5t9 -2.5q4 0 5 2t1 5q0 5 -4.5 9t-9.5 8t-9 9t-4 13zM148 226q5 6 12 9h4.5h4.5q6 0 12 -1t10.5 -3.5t7 -7.5t2.5 -12q0 -3 0.5 -9.5t0.5 -14t0.5 -16.5t1 -16.5t0.5 -14t1 -9.5v0q0 -1 -0.5 -3t-1 -3.5t-1.5 -3
t-3 -1.5q-1 -1 -2 0t-1.5 2t-0.5 2.5v1.5v4t0.5 6.5t0.5 6.5v4v1v1v3t-0.5 4.5t-0.5 4.5v3q-1 0 -2 1t-2 1v0h-1v0v0q-1 0 -3 -0.5t-4 -0.5t-4 -0.5t-3 -0.5v-9.5t-0.5 -14.5t-0.5 -14.5v-9.5v-3v-6.5t1 -4.5t3 -3t6 -2q1 0 4 -0.5t6.5 -0.5t6.5 -0.5t4 -0.5l5 -5
q-1 -3 -3.5 -3h-4.5q-5 0 -9.5 1t-8.5 1q-3 0 -4.5 -0.5l-4.5 -1.5v-2.5v-1.5q0 -15 2 -29t2 -29v-9q-2 -2 -3 -2.5t-3 -0.5t-4 0.5t-2 2.5v47q0 1 -0.5 4t-1.5 4v2q0 5 1 9.5t1 10.5q0 13 -1.5 27t-1.5 28q0 3 1 5.5t1 6.5l-0.5 2.5t-0.5 3.5l-2 1l-2 1h-1h-1
q-2 -1 -5.5 -1.5l-3.5 -0.5v-36q0 -2 -2 -2h-2h-2t-2 2v5v8.5v8.5v5v7v9.5v7.5v4q0 2 1 8t1.5 12.5t1.5 12.5t1 8zM157 176q1 0 6 -0.5l10 -1l10 -1t7 -0.5v0q4 0 4.5 2.5t0.5 4.5v10t-1 12t-3 11.5t-6 9.5h-3.5t-4.5 0.5t-4.5 0.5h-2.5h-5.5t-5 -1.5t-4.5 -3.5t-2 -5v-33
q0 -1 1.5 -2.5zM98 153q0 4 1 8.5t3 8.5t5.5 7t7.5 3q1 0 4 -0.5t5.5 -1.5t4 -3t1.5 -4v-20q0 -1 -1 -2l-2 -2q-7 -7 -14 -8t-16 -1q0 4 4 5.5t8.5 3t8.5 4.5t4 9q0 4 -1.5 6t-6.5 2q-3 0 -5 -2.5t-3.5 -5l-3 -5t-4.5 -2.5zM45 135q0 2 1.5 2h2.5q2 0 4.5 -2.5t2.5 -4.5v-67
l5 -19q1 -3 5 -5t9.5 -3t12 -1.5t12 -0.5h9.5h5q6 0 9.5 2.5t3.5 9.5v3.5t-0.5 5l-1 5t-1.5 3.5q-10 3 -17 3t-12.5 1.5t-8 6t-2.5 16.5v4.5t1 2.5t2.5 1.5t3.5 2.5q1 0 4 -0.5t6 -0.5q4 0 7 0.5t4 0.5q5 0 7.5 2.5t3.5 6t1 8.5v7v6t2 2h1l1.5 -1.5l1.5 -1.5l2.5 -12.5
t1.5 -13.5q0 -2 -1 -3.5t-2 -3.5t-2.5 -3t-3.5 -1h-28q-2 0 -4.5 -3t-2.5 -5q0 -5 3 -7t7.5 -2.5t9.5 -0.5q6 0 11 -0.5t9 -2t5 -4.5q1 -7 1.5 -13.5t0.5 -13.5q0 -3 -0.5 -4.5l-1.5 -4.5q-3 -3 -5.5 -4.5t-5.5 -2t-5.5 -0.5h-6.5h-13h-3t-4 0.5t-4 0.5h-2q-7 1 -12.5 1
t-10.5 1.5t-8.5 5.5t-5.5 12q0 2 -0.5 5t-1 6.5t-1 6l-0.5 2.5v7.5t-0.5 15t-0.5 16.5v13v8v9zM113 45q-6 0 -12 1.5t-12 2.5q-2 0 -6 -0.5t-8.5 -0.5t-7.5 2t-3 6h6h10h9.5h5.5h7q4 0 7 -0.5t6 -2t6 -4.5q-3 -4 -8 -4z" />
</svg>
