<?xml version="1.0" standalone="no"?>
<!DOCTYPE svg PUBLIC "-//W3C//DTD SVG 1.1//EN" "http://www.w3.org/Graphics/SVG/1.1/DTD/svg11.dtd" >
<svg xmlns="http://www.w3.org/2000/svg" xmlns:xlink="http://www.w3.org/1999/xlink" version="1.1" viewBox="-10 0 266 256">
   <path fill="currentColor"
d="M104 200v1v1q0 1 1 5t2 8.5t1.5 8.5t1.5 5v4.5t1 7.5t2.5 7t3.5 3q3 0 4.5 -3t1.5 -5q0 -5 -1 -10t-2.5 -10l-3 -10t-1.5 -10v-5q3 -3 5.5 -4t5.5 -1h3h3q1 2 2.5 6.5t3 10t3.5 12t4.5 11.5t4.5 8.5t5 3.5q2 0 2.5 -2t0.5 -4q0 -6 -2.5 -11.5t-5.5 -11.5t-5.5 -12
t-2.5 -12q0 -1 0.5 -4.5t1 -7.5t1.5 -7t3 -4q3 -3 4.5 -5t2.5 -4t1.5 -4.5t0.5 -6.5q0 -11 -2 -16.5t-4.5 -8t-5.5 -3t-5.5 -0.5t-4.5 -1t-2 -5v-1q1 0 2.5 -2l1.5 -2q1 -1 3.5 -1t5 -0.5l5 -1t3.5 -0.5h1q4 0 9.5 3t11 7t10.5 7.5t8 3.5t4 -2t1 -5v-0.5v-0.5q-1 -2 -6 -5
t-11 -6l-13 -6.5l-13 -6.5t-10 -6t-4 -4q0 -2 2 -3.5t5 -2t5 -0.5h4h5.5t8 -0.5t8 -0.5h5.5q2 -1 4.5 -2t2.5 -4l-0.5 -1.5t-1.5 -1.5h-3h-3q-9 0 -18.5 1.5t-18.5 1.5h-4.5h-5.5q-1 -1 -1.5 -4l-0.5 -3v-1v-1l0.5 -2l0.5 -2q0 -1 0.5 -1.5l0.5 -0.5l36 -3q3 0 4.5 -1
t1.5 -4t-4 -3q-8 0 -16.5 1t-17.5 1q0 -1 0.5 -3.5t2 -5.5t3 -5t4.5 -2h34l0.5 -1l0.5 -1q0 -1 0.5 -2t0.5 -2q-1 -3 -3 -3.5t-5 -0.5q-6 0 -11.5 1t-11.5 1h-3t-2 -2v-13q0 -2 -1.5 -2.5t-3.5 -0.5h-1.5t-1.5 2l-2 10t-2.5 9.5t-3.5 9t-5 9.5h-2q-2 0 -4 -3t-3.5 -7t-3 -9
t-3 -9.5t-4 -7t-5.5 -2.5q-2 0 -2.5 0.5t-0.5 2.5v1v1q0 1 0.5 3l1 4l1 4l0.5 2v1q0 2 -2.5 3t-5.5 1h-6h-3h-3t-4.5 0.5t-4.5 0.5h-3q-1 1 -2 2.5t-1 2.5q0 2 2 4t4 2q4 0 8 -1t7.5 -2t7.5 -2t9 -1t6.5 4.5t2.5 8.5q-2 1 -9 1.5t-14 1.5t-12.5 2t-5.5 3q0 4 3 4.5t6 0.5
q4 0 8.5 -0.5t9 -2t9 -2.5t8.5 -1q2 0 4 0.5t2 2.5v14q0 1 -4 1.5t-10.5 1t-14 0.5t-14 1t-11 2.5t-4.5 4.5t2 4t5 1q8 0 16.5 -2.5t16.5 -2.5h3.5t2.5 2q-4 6 -9 11t-11 10t-11.5 9.5t-11.5 8.5q-2 3 -6 4.5t-7 4.5q-1 2 -1 6q0 2 0.5 2.5t3.5 0.5t5.5 -1.5t5 -3.5t5 -4.5
l3.5 -3.5q2 -1 5 -4.5t6.5 -7l6.5 -6.5l4 -4h3h3q1 0 2 1h14v12q-10 2 -16 7.5t-6 17.5q0 4 0.5 7.5t1.5 8.5q1 2 5 4t6 2q1 0 3.5 0.5t5 0.5h5h3.5q1 2 2.5 3.5t1.5 3.5q0 5 -5 7t-11 3t-11 3.5t-5 8.5zM111 155q0 -3 4 -4.5t9.5 -2.5t11 -1.5t7.5 -0.5t4 2t2 4q0 5 -3.5 7
t-6.5 2q-1 0 -3.5 0.5t-6 0.5t-6 0.5t-3.5 0.5q-3 -1 -6 -3t-3 -5zM111 138q0 -4 3.5 -5.5t7.5 -2t8 -0.5h6t3.5 0.5t4.5 1t4 1.5t2 3q0 1 -1.5 1.5t-2.5 1.5t-2.5 1.5l-1.5 0.5h-5t-8.5 0.5t-8 0.5h-5.5v0q-2 0 -3 -1.5t-1 -2.5zM126 88q2 0 5 1t5.5 3l5 4t2.5 3t-0.5 1.5
l-0.5 0.5q-3 2 -8 1.5t-9 -0.5h-11q1 -1 2 -3.5t2.5 -5t3.5 -4t3 -1.5z" />
</svg>
