<?xml version="1.0" standalone="no"?>
<!DOCTYPE svg PUBLIC "-//W3C//DTD SVG 1.1//EN" "http://www.w3.org/Graphics/SVG/1.1/DTD/svg11.dtd" >
<svg xmlns="http://www.w3.org/2000/svg" xmlns:xlink="http://www.w3.org/1999/xlink" version="1.1" viewBox="-10 0 266 256">
   <path fill="currentColor"
d="M63 176q0 4 1 10.5t2.5 15t3.5 17t5 16t5.5 12t6.5 4.5q2 0 3.5 -2t1.5 -4t-1.5 -5l-3 -6t-3.5 -5.5t-2 -5.5q-5 -13 -7.5 -25.5t-2.5 -26.5q0 -2 0.5 -5.5t1.5 -6.5t3 -5.5t5 -2.5q2 0 4.5 6t6 15.5t7 20.5t7.5 21t8.5 17.5t7.5 10.5q1 0 2.5 -2t2.5 -3v-1
q0 -4 -2.5 -7.5t-4.5 -6.5l-8 -18l-8 -18t-6.5 -18.5t-2.5 -18.5q0 -1 1 -4t2 -5.5l2 -5t2 -3.5q3 -2 5.5 -3.5t5 -3.5t4 -4t2.5 -6v-2.5t0.5 -4.5t0.5 -4.5v-2.5v-2q0 -13 -3.5 -18t-8.5 -7t-8.5 -2t-3.5 -3q0 -6 3.5 -11.5t11.5 -5.5q2 0 4 2.5t3 6t2.5 6t4.5 2t3.5 -2
t0.5 -3.5l-2.5 -4.5t-6 -10t-7.5 -12t-8 -12.5t-6.5 -9.5t-3.5 -3.5h-1l-0.5 0.5t-1.5 0.5q-1 1 -4 5t-6.5 8.5t-7 8t-3.5 4.5q-2 2 -6.5 7.5l-9 11t-8 11t-3.5 7.5q0 1 0.5 3.5t2.5 2.5q3 0 6 -4t5.5 -9t5 -9t5.5 -4h6t6 1t4.5 3.5t1.5 5.5q0 6 -1.5 7t-4.5 1
q-2 0 -5.5 0.5t-6 3t-4 9t-1.5 19.5v2v4v4v3q2 6 7 8.5t9.5 3.5t8 2t3.5 5q0 2 -2 3t-5.5 2t-7.5 3t-7 6t-5.5 10t-2.5 16zM194 172q-1 18 0.5 36t3.5 36q0 2 1 4.5t3 2.5q4 0 5 -3t1 -5v-4q0 -1 -0.5 -5.5t-1.5 -9.5t-1.5 -9t-0.5 -5q-2 -29 -2 -58v-57q0 -2 -0.5 -6.5
t-1.5 -8.5t-3 -7.5t-6 -3.5h-38q-3 0 -3 -2v-3q0 -8 0.5 -12.5t2.5 -7.5t6.5 -4t11.5 -1q2 0 6.5 -0.5t10.5 -0.5q5 0 9.5 0.5t6.5 0.5q1 -1 2 -1.5t2.5 -1.5t2 -2t0.5 -2t-1.5 -2l-1.5 -1q-1 0 -2.5 -0.5t-3.5 -0.5h-2.5h-2.5h-2.5h-3.5t-3.5 0.5l-1.5 0.5q-2 0 -7 0.5
t-11 1.5t-11 1.5t-7 0.5q-3 2 -4.5 4.5t-2.5 6t-1.5 7t-0.5 5.5v87q0 10 5.5 15.5t13 7.5t16 2.5t15.5 0.5zM153 153q-1 -6 -1.5 -11t-0.5 -11v-7l2 -2h3.5t8 -0.5t9.5 -0.5h9h4q1 0 1.5 -0.5t1.5 0t2 0.5t1 1v35l-1.5 0.5t-2.5 0.5h-7q-4 0 -8 0.5t-7.5 0t-7.5 -2t-6 -3.5z
M71 108q0 -2 1 -4.5t3 -3.5q7 -1 15.5 -1.5t16.5 -0.5q2 0 4 0.5t2 3.5q0 20 -21 20q-3 0 -7 -0.5t-7 -2t-5 -4.5t-2 -7zM150 99q0 -1 -0.5 -4t0 -6t1 -5.5t2.5 -3.5q2 0 6 -0.5t9 -1t9 -0.5h6h2q4 0 6 4q1 6 1.5 11t0.5 11v4v2l-2 2h-4h-6h-4h-4.5h-4.5h-2q-1 0 -4 -0.5
t-5 -0.5t-4 -0.5l-2 -0.5l-1 -3v-3v-5zM73 87q0 -2 2 -3.5t5 -2.5t6 -1h5h2h4t5.5 0.5l5 1t3.5 0.5l0.5 1t0.5 2q0 3 -3 4.5t-6 1.5h-28q-2 0 -2 -1v-3zM95 25q2 0 4 2t4 5t2.5 6t0.5 5v3t-3 1h-26v-3l1 -2t2.5 -4t3.5 -4t3 -4t3 -3.5t5 -1.5z" />
</svg>
