<?xml version="1.0" standalone="no"?>
<!DOCTYPE svg PUBLIC "-//W3C//DTD SVG 1.1//EN" "http://www.w3.org/Graphics/SVG/1.1/DTD/svg11.dtd" >
<svg xmlns="http://www.w3.org/2000/svg" xmlns:xlink="http://www.w3.org/1999/xlink" version="1.1" viewBox="-10 0 266 256">
   <path fill="currentColor"
d="M64 212q1 2 2 8t2.5 12.5t3.5 11.5t5 5t3.5 -1.5t0.5 -4.5q0 -6 -3 -13t-4 -13q-1 -5 -1 -9t-0.5 -8t-0.5 -7v-9v-3v-4q0 -3 0.5 -5l0.5 -2q0 -2 1 -4.5t2.5 -5t3.5 -4.5t4 -2t3 1.5t2 3.5q0 1 1 5l2 8l2 8t1 5q1 2 3.5 10t6 16t6.5 14t6 6t3 -3v-1q0 -1 -0.5 -2.5
t-0.5 -2.5l-1 -1.5t-1 -2.5q-3 -7 -7 -15.5t-7 -18t-5.5 -18.5t-2.5 -17q0 -6 2 -9.5t4.5 -6.5t5.5 -5.5t5.5 -6.5t4.5 -10t2 -15q0 -7 -2 -11.5t-5 -7t-7.5 -4t-10.5 -2.5v-12h1.5t4 -0.5t5 -0.5h4.5l3 -0.5t4 -0.5q4 0 6.5 2l5 4t4 3.5t3.5 1.5l1.5 -1.5t1.5 -2.5v-1
q0 -2 -4 -7t-9.5 -11.5t-11 -12l-8.5 -8.5q-1 -2 -3 -4l-4.5 -4.5l-4 -4l-1.5 -1.5h-2l-45 65q-2 1 -2 2v3q0 3 3 3t6 -3.5t5.5 -8t4.5 -8.5t4 -4h20v14q-1 0 -3 0.5t-3.5 0.5t-3.5 0.5t-3 1.5l-2.5 2.5l-3 3l-2.5 2.5l-1 1v34q0 3 4 5.5t9 4t9.5 3.5t4.5 5t-4.5 6t-9.5 6.5
t-9 7.5t-4 9v46zM170 140h1l1.5 1.5l0.5 0.5v101l1.5 0.5l1.5 0.5q1 0 2.5 -1t2.5 -2v-13.5v-19.5v-20.5v-13.5q0 -1 0.5 -5t0.5 -8t0.5 -8t0.5 -5l1.5 -0.5l1.5 -0.5q3 0 5.5 2t4 5t2.5 6t1 6q1 3 1.5 9t1.5 11.5t1.5 10t0.5 5.5v6.5v10.5v10v7l1.5 1.5t1.5 0.5q2 0 3 -1
t2 -3q0 -1 0.5 -3.5t0.5 -5.5v-5v-3v-4v-6q0 -2 -0.5 -4t-0.5 -3q0 -2 -1 -9l-2 -14t-2 -13.5t-1 -9.5q0 -6 -4.5 -9t-9 -5l-9 -4t-4.5 -8q0 -2 0.5 -3.5t1.5 -2.5q5 0 10.5 -0.5t10.5 -2t8 -5t3 -10.5q0 -5 -1.5 -10t-4.5 -9q-7 -1 -13 -2t-13 -3q0 -1 -0.5 -2.5l-0.5 -1.5
q0 -3 3 -4.5t7 -2.5l8 -2t6 -3q2 -1 3 -5t1 -8t-0.5 -8t-0.5 -6v-12q0 -2 -1.5 -3.5t-4.5 -1.5h-1.5t-1.5 2v34q0 1 -1.5 2t-3 1.5t-3.5 0.5h-2l-1.5 -0.5t-2.5 -0.5l-1 -3v-32q0 -1 -0.5 -3l-1 -4t-1 -3.5t-2.5 -1.5h-2t-1 2v44l-1.5 1t-2.5 2v0h-1q-4 0 -6.5 -3t-4 -7
t-2 -9t-0.5 -9t-0.5 -7t-2.5 -3t-2 2.5v4.5q0 7 0.5 16t3.5 17q2 3 5 4l6 2t5.5 2.5t2.5 5.5q0 2 -0.5 4.5t-3.5 2.5h-16q-2 0 -3.5 3.5t-3 7.5t-2.5 8t-1 6q0 6 4.5 8.5t10 3.5t9.5 2.5t4 5.5q0 3 -2 5t-4.5 3t-5.5 2.5t-5 4.5q-4 7 -7 18t-4.5 23.5t-2 24.5t-0.5 20
q0 2 -0.5 4t0 3.5t1.5 2.5t3 1h1h1l4 -12q-1 -10 -0.5 -18t1.5 -16.5t2 -16.5t1 -17q2 -2 3.5 -5.5t3 -6.5t3.5 -6t4 -3zM70 110q0 -3 4 -4.5t9 -2t9 -0.5h5q6 0 9 1.5t3 6.5q0 7 -4.5 9t-9.5 2q-3 0 -7 -0.5t-8 -1.5t-7 -3.5t-3 -6.5zM151 102q0 -4 2.5 -6t6 -3.5t7 -1.5
h6.5v21q0 1 -2.5 2l-2.5 1h-1q-2 0 -5 -1t-5 -2.5t-4 -4t-2 -5.5zM181 108v-3q0 -2 0.5 -4t0.5 -4t0.5 -4l0.5 -2h18l0.5 4t0.5 7l0.5 0.5t0.5 1.5q0 3 -1 4.5t-2.5 2.5t-4.5 1h-5h-7q-2 -1 -2 -2v-2zM70 91q0 -3 2.5 -5t5.5 -3t6 -1.5t5 -0.5q1 0 3 0.5t4.5 0.5t4.5 0.5
t3 0.5q2 2 3.5 4t1.5 4t-0.5 2.5l-1.5 1.5h-4.5t-7 0.5t-7 0.5h-4.5h-1q-4 0 -7 -0.5t-5 -4.5h-0.5h-0.5zM74 48v-1l1 -1.5l1 -1.5q1 -2 4 -5l5.5 -5.5l4.5 -4.5l2 -2h3l19 19v3q-9 0 -16.5 1t-16.5 1h-3h-2l-1 -0.5t-1 -1.5v-1z" />
</svg>
