<?xml version="1.0" standalone="no"?>
<!DOCTYPE svg PUBLIC "-//W3C//DTD SVG 1.1//EN" "http://www.w3.org/Graphics/SVG/1.1/DTD/svg11.dtd" >
<svg xmlns="http://www.w3.org/2000/svg" xmlns:xlink="http://www.w3.org/1999/xlink" version="1.1" viewBox="-10 0 266 256">
   <path fill="currentColor"
d="M62 248q0 2 1 2h2q4 0 5.5 -2t1.5 -5t-1 -6t-2 -5q-2 -13 -4.5 -26t-2.5 -25v-5v-5q1 -2 3.5 -5t5.5 -3h1h1q1 1 2 3.5l2 5t1.5 5t1.5 3.5t2.5 6.5t3.5 12.5t4 14.5t4.5 14t4 11t2.5 4.5l1 0.5t2 0.5q4 0 5 -1.5t1 -4.5t-2 -8.5t-4.5 -11.5t-4.5 -11t-3 -8
q-1 -4 -3.5 -10t-4.5 -12t-3.5 -12t-1.5 -11v-1l5 -4l2 -18q0 -2 1 -3l2 -2t2.5 -1.5t2.5 -2.5q4 -4 5 -7t2 -4t4.5 -1.5t11.5 -0.5q1 0 3 0.5t2 3.5v23l-4 3l-22 3q-1 0 -1 1t0.5 2.5t1.5 1.5h25v95l1 0.5t2 0.5h1q1 0 4 -1.5t3 -3.5v-88q0 -3 3 -3.5t5 -0.5h3h6h6h3
l1.5 -0.5t2.5 -1t2.5 -0.5h1.5q1 0 3.5 1t3.5 2v4v5v6v3q0 21 -1 42t-1 43q3 0 6.5 -1.5t5.5 -5.5q-1 -11 -0.5 -23t1 -23.5t0.5 -23v-23.5l0.5 -1t1.5 -2l1 -1l1 -1h21q1 0 1 -2.5v-2.5q0 -3 -1.5 -4.5t-4.5 -1.5h-3h-2.5t-3.5 0.5t-3.5 1t-2.5 0.5q-2 0 -3.5 -2t-1.5 -3
v-22q0 -1 3.5 -1.5t7.5 -0.5t7.5 -1.5t3.5 -4.5q0 -1 -1 -3.5t-3 -2.5h-13q-1 0 -1.5 -0.5t-0.5 -2v-1.5v-1q0 -4 2 -7t4.5 -6.5t5 -7.5t2.5 -8q0 -8 -3.5 -12.5t-8 -7.5t-9.5 -6t-9 -7q-2 -3 -4 -5t-3.5 -4.5t-4 -3.5t-5.5 -1q0 4 2 7.5t4.5 7t5 6.5t2.5 8t-2 10t-4.5 10.5
t-4.5 10.5t-2 11v5q4 -1 6.5 -4.5t4.5 -8.5t3.5 -10t3 -9.5t3.5 -7.5t4 -3t3.5 1.5t3 3.5t2 3.5t0.5 3.5t-1.5 8t-4 12.5t-5 12t-4.5 6.5q-1 1 -5 1t-8 0.5t-7 1.5t-3 4q0 2 2 3t5 1q1 1 3.5 0t3.5 -1h1h3q3 0 4 0.5t1 3.5v3v4.5t-0.5 5.5t-0.5 5v2l-3 4h-2t-4 0.5t-4 0.5
h-3h-13h-12q-1 -5 -1.5 -8t-0.5 -8q0 -7 3 -9.5t6 -3.5t5.5 -1.5t2.5 -2.5q0 -3 -2 -3.5t-5 -0.5h-4.5h-3.5q0 -5 3 -10t6.5 -9.5t6 -9t2.5 -10.5v-1v-1q-5 -8 -11 -14.5t-12 -11.5q-1 -3 -2 -6.5t-2.5 -7t-3.5 -5.5t-6 -2v0q-1 0 -2.5 1t-1.5 2l4 8l4 8t4.5 8t5.5 8
q-4 3 -6.5 7.5t-4.5 9.5q-1 1 -2.5 4.5t-3.5 7.5t-3.5 7.5t-2.5 4.5v1v1q1 0 1.5 0.5l0.5 0.5q5 0 8 -3.5t5 -7.5q0 -1 2 -4t4.5 -7t4 -7.5t2.5 -4.5l0.5 -0.5l0.5 -0.5q3 1 4.5 3t1.5 5q0 1 -3 6.5t-6 12.5t-6.5 12.5t-5 6t-3.5 1t-5 1t-5.5 1t-4.5 0.5h-1l-0.5 -1l-0.5 -1
q-1 -2 -2 -5t-1 -6v-6v-4q-2 -3 -3.5 -4.5t-3 -2t-3.5 -1t-5 -0.5q-1 -1 -2 -1.5l-1 -0.5v-11q0 -1 1.5 -1.5t4 -0.5h3.5h3h6l0.5 2t1.5 3.5l2 3t3 1.5t3 -1.5t1 -3.5q0 -1 -2.5 -6t-6 -11t-7.5 -12.5t-8 -12t-6.5 -9t-3.5 -3.5h-1.5h-0.5q-1 2 -3 7t-5 11t-5 11t-3 7
q-2 4 -5 8t-6 8.5t-5 9t-2 9.5q0 2 1 2.5t2 0.5q5 0 8 -4t5 -8.5t4.5 -8t6.5 -3.5q3 0 4 1t1 4q0 5 -1 6.5t-2.5 2.5t-3.5 1.5t-4 2.5q-1 1 -2 2.5l-2 3t-1.5 3l-0.5 1.5v28q0 4 2.5 6t6.5 3.5t8 1.5h5q2 3 3 6t1 5q0 6 -5 9t-11 6.5t-11 7.5t-5 13q0 2 0.5 3.5t1.5 3.5
q0 3 1 10.5t2 16t2 16t2 10.5q0 1 0.5 3l1 4l1 4t0.5 3zM63 108q0 -2 0.5 -3t1.5 -2q5 -1 11.5 -2t11.5 -1q3 0 4 2.5t1 5.5q0 7 -3.5 9t-10.5 2q-6 0 -11 -2.5t-5 -8.5zM83 82q3 0 5.5 1.5t2.5 4.5q0 2 -1 3.5t-3 1.5h-23q0 -2 2 -4.5t5 -4t6.5 -2t5.5 -0.5zM111 87
q1 0 1 1q0 2 -1 2t-1 -2q0 -1 1 -1zM70 47l1 -2.5t2 -3.5t2 -2.5t2 -3.5t1.5 -3.5t1.5 -1.5h1q1 0 3.5 2.5t5 6t4 7t1.5 5.5h-22q-1 0 -2 -1.5t-1 -2.5z" />
</svg>
