<?xml version="1.0" standalone="no"?>
<!DOCTYPE svg PUBLIC "-//W3C//DTD SVG 1.1//EN" "http://www.w3.org/Graphics/SVG/1.1/DTD/svg11.dtd" >
<svg xmlns="http://www.w3.org/2000/svg" xmlns:xlink="http://www.w3.org/1999/xlink" version="1.1" viewBox="-10 0 266 256">
   <path fill="currentColor"
d="M95 225v1q0 1 1 4.5t1.5 7t1 6t1.5 3.5q0 2 0.5 2.5t2.5 0.5t4 -1.5t2 -3.5v-1q0 -1 -0.5 -2.5t-0.5 -2.5q-1 -1 -1.5 -4.5l-1 -7l-1 -7t-0.5 -5.5q2 -4 6.5 -7t9.5 -3h1.5h1.5l1 1.5t1.5 3t1 2.5t1.5 2l2 2t3 2q0 1 1 3.5t2.5 5t3 5.5t2.5 4q1 2 2 5t4 3t3.5 -2t0.5 -4
q0 -4 -3 -9t-5.5 -9.5t-5.5 -9t-3 -7.5t2.5 -5t2.5 -5q0 -1 0.5 -2.5t0.5 -3t0.5 -3t0.5 -2.5q1 -3 4 -4.5l6 -3t6 -4.5t3 -10v-1q0 -1 -0.5 -3.5t-0.5 -5.5t-0.5 -6t-0.5 -4q-1 -2 -4.5 -3.5t-8 -2.5t-9 -1.5t-6.5 -0.5q-4 0 -8.5 1t-8.5 3t-8 4.5t-6 5.5q-1 1 -1.5 3t-1 5
t-0.5 5v3q-1 7 3 11t10 5.5t12.5 2t10.5 0.5v10q0 1 -3 2l-6 2t-6 1.5t-4 0.5t-3 0.5t-4.5 1t-4.5 1l-2 0.5q-2 1 -2.5 2.5t-0.5 2.5t-0.5 4l-1 6t-0.5 5.5v3.5v1zM106 162q0 -1 2 -1.5l4 -1t4.5 -0.5t3.5 -1h26q2 0 2 2.5v3.5q0 5 -5 7t-10 2h-6.5t-9 -1t-8 -3.5t-3.5 -6.5
zM57 152q0 3 2.5 4t5.5 1h1.5h1.5l2.5 -2.5l3.5 -3.5t3.5 -3t1.5 -2l5.5 -5.5t6.5 -7t6 -6.5l4 -4h1.5h1.5q13 0 25 2q1 0 2 0.5t2 0.5q4 0 9 -3t10 -3h3t2 2l37 35h1h1q4 0 5 -1t1 -5v-1t-1 -1l-31 -29q-7 -4 -13 -11t-12 -13v-1v0q0 -1 0.5 -3.5t1 -5.5t1.5 -5t2 -2h23
l3 4q0 1 0.5 3t0.5 5t0.5 5t0.5 3q0 2 0.5 2.5t2.5 0.5t4 -2t2 -4v-17l-0.5 -1.5t-2 -2.5l-3 -2t-2.5 -1h-26q-2 0 -3.5 -1.5t-1.5 -3.5t1 -4t3 -3q8 -1 16.5 -1.5t17.5 -0.5q2 -1 2.5 -2t0.5 -3q0 -4 -4 -4q-8 0 -15.5 2t-16.5 2q-2 0 -4.5 -1t-2.5 -4q0 -4 2.5 -5t6.5 -1
t8 -0.5t8 -2t6 -4.5t2 -10v-4.5t-0.5 -5t-2 -4t-3.5 -1.5h-1l-1.5 1.5l-0.5 0.5v16q0 1 -2 3.5t-3 2.5h-15q-2 0 -2 -3v-7t-0.5 -7.5t-3.5 -3.5t-4 3t-1 6q0 16 0.5 32.5t0.5 33.5q-3 0 -4.5 -0.5t-2.5 -1.5l-1.5 -1.5t-2.5 -0.5h-1q-2 1 -3 2l-2 2t-2 1.5t-4 0.5
q0 -17 1 -33.5t1 -33.5v-5q-3 -3 -5.5 -4t-5.5 -1v21q0 1 -1.5 2t-2.5 1v0h-3.5t-5.5 -0.5t-5 -1t-2 -1.5v-13l-1 -0.5t-1 -1.5q-3 -1 -3.5 -1h-1.5q-3 0 -3 1.5v3.5v8t1 10q1 1 3 1t3.5 -0.5t3 0t1.5 1.5h14q1 0 2.5 2.5l1.5 2.5v0q0 3 -1.5 4t-3.5 1.5t-4 0.5h-4h-4
t-7 0.5t-7 0.5h-4l-2 2l-1 1v1q0 3 2 3.5t5 0.5q6 0 13.5 -1t13.5 -2q2 2 2 3v4v2.5t-2 2.5q-7 1 -12.5 2t-9 3t-6 6t-2.5 12q0 1 0.5 3t1 3.5t1.5 3t3 1.5q3 0 3.5 -2t1 -5t0.5 -6.5t1.5 -6.5t5 -5t9.5 -2q4 0 5.5 1.5t1.5 3v4.5q0 2 1 4t3 3.5t2 4.5q0 1 -2.5 3t-6 4.5
t-6.5 5.5t-4 6l-3.5 3.5l-5.5 5.5t-6 5.5t-4 3.5t-4 2.5t-6.5 4t-6 4.5t-2.5 4zM106 149q2 -3 5.5 -4.5t7 -1.5h7.5h7h11q2 1 4 3t2 4h-42zM129 98q2 0 5.5 1.5t6.5 4t5 5t2 4.5l-0.5 0.5t-1.5 0.5q-6 2 -13 2h-13h-14q2 -1 5 -4l6.5 -6.5t6 -5.5t5.5 -2z" />
</svg>
