<?xml version="1.0" standalone="no"?>
<!DOCTYPE svg PUBLIC "-//W3C//DTD SVG 1.1//EN" "http://www.w3.org/Graphics/SVG/1.1/DTD/svg11.dtd" >
<svg xmlns="http://www.w3.org/2000/svg" xmlns:xlink="http://www.w3.org/1999/xlink" version="1.1" viewBox="-10 0 266 256">
   <path fill="currentColor"
d="M129 209q2 0 4 2.5t4.5 6t4.5 7t4 5.5l1 0.5t2 1.5q2 1 2.5 4t2 6t3 5.5t4.5 3.5q2 0 3.5 -1.5t2 -4l1 -5t0.5 -3.5q0 -2 -4 -5.5t-8.5 -7.5t-8.5 -9t-4 -10t1.5 -9t1.5 -9q6 -5 9.5 -10t3.5 -13v-2v0q0 -1 -0.5 -2.5t-0.5 -2.5q-2 -7 -3.5 -10t-3.5 -3.5t-4 0l-4 1
t-4.5 -0.5t-4.5 -5q2 -4 6 -5t8 -1q3 0 6 0.5t5 2.5l16 17q1 2 3 4.5t4.5 5t5.5 4.5t5 2q3 0 4.5 -2.5t1.5 -5.5q0 -4 -3 -6l-6 -4l-2 -2t-4 -4.5t-4.5 -4.5l-2.5 -2q-3 -3 -7 -5.5l-8 -5t-6.5 -5.5t-2.5 -8v-7.5t1 -8.5t3 -7.5t5 -3.5h3t2 2v22q0 1 1.5 1.5t2.5 0.5
q3 0 4 -2t1.5 -4.5t0.5 -5.5v-4q0 -5 -0.5 -8.5t-3.5 -7.5q-6 -1 -8.5 -1h-6.5h-8.5t-8.5 1l-3 3v1v1l11 6v1v2v3t-0.5 4.5t-1.5 4t-3 1.5t-3.5 -1.5l-3 -3t-3.5 -3t-4 -1.5h-2l-1.5 1.5t-6 6.5t-9.5 11.5t-9 11.5t-5 6.5t-4 4t-6.5 6l-7.5 7.5l-7.5 7.5t-5.5 6.5t-2 4
q0 2 1.5 2.5t3.5 0.5q4 0 10 -6.5t12 -14.5t12 -14.5t12 -6.5h3t4 1t3 2t1 3q0 3 -3 4.5t-7 3t-7.5 4t-3.5 8.5q0 5 1.5 9.5t0.5 10.5q7 4 12 5t13 1q3 1 3 2.5v3.5q0 4 -2 5.5t-5 2.5t-6.5 2t-7 3.5t-5.5 8.5t-2 15q0 2 0.5 5t1 6.5t2 6t4.5 2.5q4 0 5 -2t1 -5
q0 -6 -1.5 -11.5t-1.5 -11.5q0 -4 3.5 -6.5t7.5 -2.5zM116 175l-1.5 -1.5t-0.5 -1.5q0 -2 3.5 -3t7.5 -1.5t7.5 0t4.5 0.5h10q1 0 1.5 0.5t0.5 1.5q0 3 -1.5 4.5t-3.5 2.5t-4.5 1h-3.5h-5.5t-4.5 -0.5t-4.5 -1t-5.5 -1.5zM139 150h7q2 0 2.5 2t0.5 4t-0.5 3t-2.5 1h-32
q0 -4 3 -6.5t6.5 -3t8.5 -0.5h7zM120 124v-1h1l10 -13q0 -1 2.5 0.5t5 4l5 5t2.5 4.5v1q-1 0 -1.5 1l-0.5 1h-22q-1 0 -1.5 -1t-0.5 -2zM66 123q-1 3 0.5 3h3.5q4 0 10 -4t11.5 -9.5t9 -11.5t3.5 -11q0 -4 -2 -5.5t-4.5 -3t-4.5 -3.5t-2 -5v-5q4 -3 9 -3.5t10 -3.5v-1.5
v-0.5q0 -2 -2 -2.5t-4 -0.5q-5 0 -10.5 0.5t-11.5 1t-11.5 1t-9.5 0.5q-2 1 -3 2t-1 3q0 3 0.5 3.5t3.5 0.5q4 0 8 -1t8 -1q1 0 3 0.5t2 2.5v14q0 2 2 2.5l4 1t4 1.5t2 4q0 6 -4 10t-9 6.5t-10 6t-5 8.5zM178 50q1 2 1.5 7t1.5 10.5t1.5 10.5t0.5 6q0 4 -0.5 6.5t4.5 2.5
q6 0 6 -6v-1q0 -2 -0.5 -7t-1.5 -10.5t-1.5 -10t-0.5 -6.5q-1 -6 -5.5 -9t-10.5 -4t-12 -1h-9q-2 -1 -2.5 -1.5t-0.5 -2.5q0 -1 0.5 -4t1 -6.5t2.5 -6t5 -1.5q1 0 2 2.5l2 5t3.5 6t7.5 5.5v0h0.5h0.5q2 0 5 -0.5t6 -1.5t5 -2.5t2 -3.5v-1q-1 0 -2 -0.5l-1 -0.5h-18
q-1 0 -1.5 -1.5t-0.5 -2.5q0 -5 3.5 -6t8 -1.5t8 -1t4.5 -3.5q1 -2 0 -3t-2.5 -1.5t-2.5 -0.5h-2h-2h-1q-1 0 -5.5 1t-9.5 2t-9.5 2t-6.5 1q-5 1 -8 4t-4 7t-1.5 8.5t-0.5 8.5q0 1 -0.5 1.5l-0.5 0.5q-1 0 -2.5 -0.5t-2.5 -1.5v-3.5t-0.5 -5.5t-0.5 -5.5v-3.5t-0.5 -3
t-1 -4.5t-1.5 -4t-3 -1.5q-3 0 -4 2q-1 0 -1 2v3q0 7 0.5 14t4.5 13q1 2 4 2.5t5 0.5q3 0 5 0.5t2 3.5q0 5 -1.5 6.5t-3.5 2t-4.5 0.5t-5 1.5t-4 5.5t-1.5 11q0 1 -0.5 3.5t-0.5 5v5.5v3q2 0 4.5 -0.5t3.5 -2.5q0 -3 -0.5 -7.5t0.5 -9t3.5 -7.5t6.5 -3q3 0 4 2t1.5 4t1.5 4
t4 2h20q3 0 4 -2t1 -4h-19q-1 0 -3 -1t-2 -3v0v0q0 -1 0.5 -1.5t1.5 -0.5l2 -0.5t4.5 -1t4 -1t2.5 -0.5t2.5 -0.5t1.5 -1.5h0.5h0.5l-0.5 -0.5l-0.5 -0.5l-0.5 -0.5l-0.5 -0.5q-1 0 -3 -0.5t-4.5 -0.5t-4.5 -0.5t-3 -0.5q-2 0 -2.5 -0.5t-0.5 -2.5v-1.5t2 -1.5h6h5h5.5
t5 0.5t4.5 2.5zM70 14v10t1 11.5t4.5 9.5t9.5 4q13 0 18.5 -4.5t5.5 -17.5q0 -5 -0.5 -9.5t-1.5 -10.5q0 -1 -1.5 -1.5t-2.5 -0.5q-2 0 -2.5 2.5t-1.5 5.5t-4 5.5t-11 2.5q-4 0 -4.5 -3.5t-0.5 -7.5q-1 -1 -2 -1h-3h-2t-2 1v4zM80 35q0 -2 1.5 -3.5t4 -2.5t5 -1h3.5q4 0 5 1
t1 4t-1.5 4.5t-3.5 2.5t-4.5 1h-4.5q-4 0 -5 -2t-1 -4z" />
</svg>
