<?xml version="1.0" standalone="no"?>
<!DOCTYPE svg PUBLIC "-//W3C//DTD SVG 1.1//EN" "http://www.w3.org/Graphics/SVG/1.1/DTD/svg11.dtd" >
<svg xmlns="http://www.w3.org/2000/svg" xmlns:xlink="http://www.w3.org/1999/xlink" version="1.1" viewBox="-10 0 266 256">
   <path fill="currentColor"
d="M54 188v20q0 1 0.5 4.5t1.5 7.5t1.5 7t0.5 4q0 2 0.5 5t1.5 6.5t2.5 6t3.5 2.5q4 0 5.5 -2.5t1.5 -6.5t-0.5 -10t-2 -11.5l-3 -11t-3.5 -9.5v-31l1 -1.5l2 -3t2.5 -2.5t2.5 -1t3 5.5t4 13.5t4.5 17.5t4.5 18t4.5 13.5t5.5 5q2 0 3 -2.5t1 -3.5q0 -6 -2.5 -11t-4.5 -10
q-1 -5 -3 -11.5t-4 -13.5t-3.5 -14t-1.5 -12q0 -2 1.5 -3t3 -1.5l3 -1t2.5 -2.5l2 -15q1 -2 3 -3.5t4.5 -2.5t4.5 -3t3 -5q1 -7 1.5 -11t0.5 -10q0 -13 -6 -17.5t-18 -4.5q-4 0 -9 0.5t-10.5 1.5t-9 4t-3.5 8v30q0 2 1.5 4t3.5 3.5t4 2.5l4 2h3t5 0.5t5.5 0.5h3.5v2v1
q0 6 -4.5 8.5t-10.5 5t-11 6.5t-6 12v20zM187 202v4t0.5 5.5t0.5 4.5v2q0 3 0.5 8t2 10t4 9t5.5 4t3.5 -2t0.5 -4q0 -6 -2 -12.5t-3.5 -13.5t-3 -13.5t-1.5 -12.5v-2q0 -2 0.5 -6t1.5 -4h1q0 1 1.5 4l3 6t3 5.5t1.5 3.5q1 2 2 2.5t2 0.5q2 0 4 -0.5t2 -3.5v-0.5v-1.5
q-3 -5 -5.5 -9t-4.5 -8t-3.5 -8.5t-4.5 -9.5v-1q0 -5 2 -9.5t5 -9t5 -9t2 -8.5q0 -2 -0.5 -3.5t-3.5 -2.5q-4 2 -5.5 6t-2.5 7.5t-2 6.5t-4 5q-2 -1 -2.5 -4.5t-0.5 -4.5v-14v-15q-1 -2 1 -3t4.5 -1.5t5 -1.5t2.5 -4t-2.5 -3h-5.5q-2 0 -4.5 -1t-2.5 -4q0 -5 2.5 -7t5.5 -3
t6.5 -2.5t4.5 -5.5q2 -5 2 -11v-11v-3v-4.5v-4.5v-3q-1 -2 -4 -2q-1 0 -2.5 1t-1.5 3v25q0 4 -3 7.5t-6 3.5q-4 0 -4 -3.5v-6.5v-2v-2t1 -7.5t1.5 -13.5t1.5 -13t1 -8v-1q0 -1 -2 -2.5t-3 -1.5l-0.5 0.5t-0.5 1.5q-1 1 -2 4t-2 4q-1 17 -2.5 37t-0.5 38l-1 1q0 1 -4.5 1.5
t-10.5 1t-12.5 1.5t-10.5 1h-2h-2q-2 0 -3 -1t-1.5 -2.5l-1 -3t-2.5 -1.5h-1q-1 0 -2 1.5l-1 1.5q0 13 -0.5 26.5t-1.5 26.5q-2 2 -2.5 5.5t-0.5 7.5v7v7q-1 3 -2 10.5t-2 15.5t-2.5 15.5t-1.5 10.5q-2 3 -3.5 7t-1.5 7q0 5 4 5q5 0 7 -4t3 -9t0.5 -10t0.5 -7q0 -6 1 -13
t3 -13q1 -3 2 -11.5t2 -18t1.5 -17.5t1.5 -12v-3v-5v-5v-3q0 -5 5 -7.5t11 -3.5t12 -1h10h2h2h2h2l1 2q1 10 2 18t2.5 15.5t2.5 15.5t1 16q0 9 -1 17t-1 16zM142 205q0 5 1 7.5t5 2.5h7t10 -0.5t9 -1.5t4 -4t-2 -3.5t-4 -0.5q-4 0 -9 1t-9 1q-3 0 -3 -2v-4q0 -5 3 -7t7 -3
t8 -2.5t6 -4.5q1 -13 2.5 -24t1.5 -23q-5 0 -7 2.5t-2.5 7.5t0 10t0.5 10t-1 9t-4 5l-3 -3v-3v-4.5v-5.5v-4v-8v-10t0.5 -10.5t1.5 -9.5q4 -1 7 -2t3 -6q-5 0 -8.5 0.5t-7.5 2t-8 2t-8 0.5v1v1q0 3 2 3.5t4 0t4 -0.5t2 2v36h-1t-2 0.5l-2 1t-1 -0.5q-1 0 -2 -2l-1 -2v-27h-7
v5v6.5v7v4.5q1 6 2 8.5t2.5 4t4.5 2t7 2.5v5q0 6 -2 8.5t-4 4.5t-4 5t-2 9zM67 119v-12l3.5 -0.5t8.5 -1t9.5 -1t6.5 -0.5q8 0 8 9q0 4 -2 6t-5 3t-6 1.5t-5 0.5t-2 -1h-4t-4 -0.5t-3.5 -0.5h-1.5zM65 92q0 -4 3.5 -5.5t6.5 -1.5l2.5 -0.5t5.5 -0.5t6 -0.5t5 -0.5h1q7 0 7 7
q0 2 -0.5 4t-2.5 2h-32q-1 0 -1.5 -1.5t-0.5 -2.5zM126 22v53l0.5 1.5l0.5 1.5l3.5 3.5l3.5 3.5h2h4.5h4.5h3h4h4h4h2q3 0 5.5 -1t2.5 -5q0 -2 -3 -3h-11q-1 -2 -1.5 -4.5t-0.5 -4.5v-3q5 0 9.5 -1.5t6.5 -7.5q1 -4 1.5 -8t1 -7.5t0.5 -7v-7.5v-5q0 -2 -1 -2h-2q-2 0 -3 1.5
t-1.5 3t-0.5 3.5v4v1v0q0 1 1 3.5l1 2.5v1q0 3 -0.5 6.5t-1.5 6.5t-3.5 4.5t-5.5 1.5q-1 0 -1.5 -0.5t-0.5 -1.5v-45q0 -2 -1.5 -2h-2.5q-3 0 -4 2.5t-1 6.5v1v2t0.5 2.5t0.5 3v2.5v48q0 2 -2 2h-2q-4 0 -6 -4.5t-2 -11v-12.5v-9v-3v-5v-4v-3q-1 -2 -3.5 -3t-4.5 -1zM83 8
q-2 1 -6 5t-8.5 10t-9.5 13.5t-9 14t-6.5 11.5t-2.5 7q7 0 9 -1.5t3 -3t2.5 -3.5t5.5 -4q11 1 20.5 -1t20.5 -2q4 0 6 1.5t5 1.5q2 0 4 -2t1 -5q-1 -1 -3.5 -5t-6 -8.5t-8 -9.5t-8 -9.5t-6.5 -7zM66 46q0 -2 2 -5.5t5 -7t6 -6.5t4 -3t1.5 0.5l1.5 1.5q2 3 5.5 6.5t6 6.5
l2.5 3v4l-2 0.5t-4.5 1t-5.5 1t-5 0.5h-8h-8q-1 -1 -1 -1.5v-1.5z" />
</svg>
