<?xml version="1.0" standalone="no"?>
<!DOCTYPE svg PUBLIC "-//W3C//DTD SVG 1.1//EN" "http://www.w3.org/Graphics/SVG/1.1/DTD/svg11.dtd" >
<svg xmlns="http://www.w3.org/2000/svg" xmlns:xlink="http://www.w3.org/1999/xlink" version="1.1" viewBox="-10 0 266 256">
   <path fill="currentColor"
d="M57 186q0 2 1 8t2.5 13.5t4 16t4.5 15t4.5 10.5t4.5 4q2 -1 2.5 -2t0.5 -3l-0.5 -1l-0.5 -1l-0.5 -1.5t-0.5 -3t-0.5 -3l-0.5 -1.5q-2 -6 -4 -13t-3.5 -14t-3 -13.5t-1.5 -13.5q0 -1 0.5 -4.5t0.5 -4.5q1 -2 4.5 -3.5t6.5 -1.5q1 0 1.5 1t0.5 3q6 18 11 35t12 35q0 1 1 3
t2 2q3 0 4 -2t1 -4v-1t-1 -1q-2 -8 -4.5 -14t-4.5 -15t-6 -18.5t-8 -18.5v-11q2 -2 3 -4.5t1.5 -5t0.5 -5.5v-6q2 0 5 -1t5.5 -2.5t4.5 -3.5t2 -5v-32q0 -4 -2.5 -6t-5.5 -2.5l-6 -1t-5 -1.5v-4v-4q0 -8 1.5 -11t4 -4t4 -1.5t1.5 -3.5t-3 -3q-5 0 -10.5 1t-10.5 1
q-2 0 -4 -1t-2 -3t2 -5.5t5 -7.5t6 -6.5t5 -2.5q3 0 6 3.5t6 8.5t5.5 11t5 11.5t5 9t4.5 3.5q3 0 3 -4v-4t-1 -5.5l-2 -5t-3 -3.5l-25 -39q0 -1 -2 -2.5t-3 -2.5v0q-1 0 -4.5 4.5t-8 11.5t-9.5 15t-9.5 15.5t-7.5 13t-3 7.5q0 4 3 4t5 -3t3.5 -6.5t3 -6t2.5 -2.5h17
q1 0 1.5 1t0.5 3v4v2v6.5t-2 6.5q-7 -1 -12 1.5t-7.5 6.5t-4 10t-1.5 12v1q1 1 1.5 3.5t1 4.5t1.5 4.5t1 3.5q2 3 5.5 4t6.5 1h7.5t6.5 3q-1 8 -3.5 11.5t-6 4.5t-6.5 2t-6 3t-5 6.5t-2 14.5zM121 236q0 3 2 3.5t4 0.5h4q3 0 9 -0.5t13.5 -1t15.5 -0.5t16 -0.5t14 -0.5h9
q1 -1 1 -1.5v-2.5v-2t-1 -2h-4q-8 0 -15.5 1.5t-15.5 1.5h-10h-14h-15h-10q-2 -1 -2.5 1t-0.5 3zM161 168q-3 0 -6.5 0.5t-6.5 2t-5.5 4t-2.5 6.5v27q0 4 3 6.5t7 3.5l8 2t6 1h1q1 0 4 -0.5l6 -1t5.5 -0.5h3.5q2 -2 5 -5.5t3 -7.5v-28q0 -5 -4 -7t-9.5 -3t-10.5 -0.5t-7 0.5
zM146 201q0 -2 1.5 -3t3.5 -1t5.5 -0.5t7.5 -0.5t7.5 -0.5t4.5 -0.5h4q2 0 4 1.5t2 4.5t-1.5 5.5t-4 4t-5.5 2.5t-6 1q-2 0 -6 -0.5t-7.5 -2t-6.5 -4t-3 -6.5zM167 174l2.5 0.5t4.5 0.5t4 0.5t3 0.5q2 1 2.5 2t0.5 3t-0.5 4t-2.5 2h-33q0 -4 1.5 -6.5t4 -4t6 -2t7.5 -0.5z
M131 114v6v1t0.5 2t0.5 2v1q1 3 0.5 6.5t-0.5 6.5t1.5 6t5.5 4q1 0 3.5 1t4.5 1.5t4 1.5l2 1h31q7 0 11.5 -3.5t7 -8.5t3 -11t0.5 -12v-2v-4t-0.5 -6.5t-0.5 -6.5v-4q-1 -3 -2.5 -4.5t-3.5 -2.5t-4.5 -2t-4.5 -2h-36l-2 0.5t-2 1.5q-1 0 -2 0.5t-2 0.5q-5 2 -8 4t-4.5 5
t-2 7t-0.5 10zM138 116q0 -9 3 -14t7.5 -7.5t11 -3t14.5 -0.5q9 0 14 1.5t7.5 5.5t2.5 10v15q0 3 -0.5 7t-2.5 8t-4.5 6.5t-6.5 2.5h-31q-6 0 -9 -3.5t-4.5 -8.5t-1.5 -10.5v-8.5zM154 124q0 7 3 9.5t10 2.5q5 0 8.5 -2t5.5 -5.5t2.5 -8t0.5 -9.5v-2.5v-2.5q-2 -4 -6.5 -4.5
t-8.5 -0.5t-7 0.5t-6 4.5q-1 6 -1.5 9.5t-0.5 8.5zM63 121q0 -2 2.5 -3.5t5.5 -2t7 -0.5h4h4h6.5h6.5h4q0 3 -0.5 7t-1.5 6.5t-4 4t-7 1.5q-3 0 -7.5 -0.5t-8.5 -1.5t-7 -3.5t-4 -7.5zM161 119q0 -6 2 -9t7 -3q2 0 3.5 0.5t2.5 2.5v6q0 5 -1.5 9.5t-7.5 4.5q-4 0 -5 -4
t-1 -7zM66 104q0 -3 3 -5t6.5 -2.5t6.5 -0.5h6h8q3 2 4 3t1 3q0 3 -2 4t-4.5 2t-5.5 1h-5q-1 0 -4 0.5t-6 0t-5.5 -1.5t-2.5 -4zM166 51q5 0 9.5 1.5t9 4.5l9 6t7.5 6h2q3 0 4.5 -2t1.5 -5q0 -5 -6 -7.5t-13.5 -4.5t-13.5 -4.5t-6 -7.5v-1.5t0.5 -3.5t1 -3.5t0.5 -2.5v-2v-2
q0 -6 -2.5 -7.5t-8.5 -1.5v29l-1 0.5t-1 1.5q-2 1 -6.5 3.5t-9.5 5t-8.5 5.5t-3.5 4q0 3 2 3h3q5 0 8.5 -2.5t7 -5.5t7 -5t7.5 -2z" />
</svg>
