<?xml version="1.0" standalone="no"?>
<!DOCTYPE svg PUBLIC "-//W3C//DTD SVG 1.1//EN" "http://www.w3.org/Graphics/SVG/1.1/DTD/svg11.dtd" >
<svg xmlns="http://www.w3.org/2000/svg" xmlns:xlink="http://www.w3.org/1999/xlink" version="1.1" viewBox="-10 0 266 256">
   <path fill="currentColor"
d="M141 247q0 1 0.5 2.5t2.5 1.5q6 0 9 -5t4.5 -12.5t1.5 -15.5t1 -15.5t3.5 -12.5t8.5 -5q4 0 6 5t3 11.5t1.5 13t1.5 9.5q0 1 0.5 4t1.5 6t1.5 6t1.5 4q0 2 2 2h3q6 0 6 -5q0 -7 -1.5 -13.5l-3 -13t-3.5 -13t-2 -12.5q0 -3 2 -5t4 -3t4 -3l4 -4q3 -6 3 -14v-14v-18
t-2.5 -11t-8.5 -5.5t-18 -1.5q-13 0 -22.5 0.5t-15.5 4t-9 11t-3 22.5v9.5t1.5 10.5t4 9t7.5 5q3 1 6.5 1.5t5.5 3.5q0 1 -0.5 3.5t-0.5 5t-0.5 5.5t-0.5 4v1v2v3v1q0 4 -2 8.5t-3.5 9.5t-3 9.5t-1.5 7.5zM50 165q0 16 4 30.5t6 29.5q1 2 1 5.5t0.5 6t2.5 4.5t5 2q7 0 7 -6
v-3q0 -1 -0.5 -1t-1 -1t-0.5 -4q-4 -16 -8 -33.5t-4 -34.5v-3.5t1 -4.5t3 -3.5t4 -1.5q3 0 5 3.5t3 8t1.5 9t0.5 6.5q3 10 7 19.5t8 18.5q1 3 1.5 7.5t2 8.5t3.5 7t7 3q2 0 4 -1.5t2 -4.5t-2 -8t-5 -10t-5.5 -10l-4.5 -9q-2 -7 -3.5 -14t-2.5 -15q-2 -5 -4.5 -9.5
t-2.5 -11.5v-1q1 -1 1.5 -2t2 -2.5t2.5 -3t1 -2.5v-2.5v-2.5v-3.5v-2.5l1 -2q1 0 3 -1t2 -2q4 -2 5.5 -5.5t2.5 -7.5t1 -8v-8v-11q-2 -4 -6.5 -5t-8.5 -2t-7 -3t-3 -8t5 -8t11 -2q2 0 4 1.5t5 1.5q5 0 5 -4v-3q-1 0 -2.5 -1.5l-3.5 -3.5l-3.5 -3.5l-2.5 -2.5t-4 -5.5
t-6.5 -9t-6.5 -7.5t-5 -3q-1 0 -4 3t-7 8.5t-8.5 12t-8.5 12t-6.5 9.5t-2.5 6q0 3 3 3h0.5h1.5l5 -5t4 -3.5t4.5 -2t6.5 -0.5h6q3 1 3.5 4.5t0.5 5.5t-0.5 3.5t-3.5 2.5q-3 0 -6.5 1t-7.5 2.5t-6.5 4t-2.5 6.5v27q0 2 1.5 4t4 3.5t4.5 2.5t3 1h20l0.5 1l0.5 1v1v2.5t-1 3
l-2 3l-1 1.5l-22 10q-2 1 -3.5 3.5t-2 6t-1 6.5t-0.5 5zM146 174q-2 -1 -3.5 -3t-1.5 -5q0 -1 0.5 -2l1.5 -3l22 -2t22 -1h4q3 0 5 2v4q0 6 -6 10q-3 1 -6 1t-5.5 0.5t-5 0.5h-6.5q-6 0 -10 -0.5t-11 -1.5zM138 144q0 -2 0.5 -3t2.5 -2q2 0 6.5 -0.5t9.5 -0.5t9 -0.5t6 -0.5
h10h8q3 2 5 3.5t2 3.5q0 4 -2.5 5t-6 1.5t-6.5 0t-5 -0.5t-6 0.5t-9 0.5t-9.5 0.5t-6.5 0.5q-8 0 -8 -8zM139 125q0 -2 2.5 -3.5t6.5 -2.5t8.5 -1t8.5 -0.5t6.5 -0.5h2.5h3h3t4.5 0.5t4.5 0.5h3l3 3t2 4l-0.5 1.5l-0.5 1.5q-10 2 -21 2.5t-21 0.5h-4t-5 -0.5t-4 -2t-2 -3.5z
M57 102q0 -2 2 -2.5t4.5 -1t4.5 -0.5h2q1 0 3.5 -0.5t5.5 -1t6 -0.5h5h1q3 0 4.5 2t1.5 4q0 4 -2.5 6t-5.5 3t-6.5 1h-6.5h-5.5t-6.5 -1t-5.5 -3t-1.5 -6zM116 66v4.5v8t1 8t3 4.5q3 2 5.5 3t4 2t2.5 4t1 9h1h1q3 0 4 -1.5t1 -4t-0.5 -4.5t-0.5 -3q1 -3 3 -3.5t4.5 -1.5
t4.5 -3.5t2 -11.5v-4v-5l-1 -0.5l-1 -0.5l-1.5 0.5l-1.5 0.5v3.5v5.5t-1 5t-3 2q-4 0 -5 -3.5t-1 -8.5q0 -4 -0.5 -8t-3.5 -4t-3.5 3t-0.5 5q0 3 0.5 5.5t0.5 5.5q0 2 -0.5 5t-3.5 3h-1l-0.5 -1t-0.5 -2q-1 -1 -1.5 -3.5t-1.5 -5t-1.5 -5t-0.5 -3.5h-4zM159 96q0 2 0.5 4
t2.5 2q3 0 4 -1q1 -5 1.5 -11t0.5 -12v-11.5t-1 -10.5q2 -2 4 -3t4.5 -1.5t5.5 -1t5 -2.5t3.5 -6t1.5 -11v-3t-1 -2q-1 -2 -2.5 -2h-3.5q-3 0 -3.5 3.5t-0.5 6.5q0 4 -0.5 7.5t-4.5 3.5q-2 0 -4 -0.5t-2 -2.5l-3 -26q-1 -2 -3 -4.5t-4 -2.5t-2.5 1.5t-0.5 3.5v3.5t0.5 5.5
t1 5.5t0.5 3.5v6v7q-1 1 -2 1.5t-2 0.5q-5 0 -6.5 -3.5t-2.5 -8t-1.5 -7.5t-4.5 -2l-1.5 1t-1.5 2v17q0 3 4 4t8.5 2t8.5 2t4 3q0 10 -1 20t-1 19zM174 70v4.5t1 8t2 8t4 3.5q0 1 2 0.5t3 -0.5q0 1 2 2t2 2q2 1 2.5 2t1 1.5t1 0.5h1.5q2 0 3 -0.5t1 -2t0.5 -3t1.5 -2.5
q6 -5 10.5 -9t4.5 -13q0 -2 -0.5 -5t-4.5 -3q-5 0 -6 3t-0.5 6.5t0 6.5t-3.5 3q-2 0 -2.5 -1t-0.5 -4q0 -1 -0.5 -4t-0.5 -7q0 -3 0.5 -6.5t0.5 -4.5q-1 -2 -2 -2h-2h-1.5h-1.5l-2 20q2 0 2.5 1t0.5 2q0 3 -0.5 6.5t-4.5 3.5t-5.5 -3.5t-2 -7t-0.5 -6.5t-3 -3q-2 0 -2.5 1
t-0.5 2zM60 85q0 -3 3 -4.5t7 -2t7.5 -0.5h5.5h12q0 1 1 1.5t2 1.5t1.5 2t0.5 2l-1.5 1.5l-1.5 1.5q-8 1 -13 1.5t-12 0.5q-1 0 -5 -0.5t-5 -0.5q-2 0 -2 -1.5v-2.5zM65 42l1 -1.5t2 -3.5t2 -3.5t2 -2.5q2 -3 3 -3.5t4 -0.5h1h2q0 1 1.5 2t3 2.5l3 3l2.5 2.5l0.5 2t0.5 3
t-3 2t-6.5 1h-7h-4.5h-3h-2z" />
</svg>
