<?xml version="1.0" standalone="no"?>
<!DOCTYPE svg PUBLIC "-//W3C//DTD SVG 1.1//EN" "http://www.w3.org/Graphics/SVG/1.1/DTD/svg11.dtd" >
<svg xmlns="http://www.w3.org/2000/svg" xmlns:xlink="http://www.w3.org/1999/xlink" version="1.1" viewBox="-10 0 266 256">
   <path fill="currentColor"
d="M176 247q1 1 2 1.5l1 0.5q3 -1 5.5 -3.5t2.5 -5.5q0 -4 -1 -8.5l-2 -9l-2 -9t-1 -9.5v-5l1.5 -1.5l3 -3l3 -3l1.5 -1.5q6 -7 6.5 -16t0.5 -17q0 -2 -1 -7t-2.5 -9.5t-4 -8t-6.5 -3.5h-32v-31q3 -2 3.5 -4t0.5 -5t-1 -4.5t-2 -2.5t-3.5 -1.5t-4.5 -2.5v-1v-1q0 -3 4 -4.5
t9.5 -2t10.5 -0.5h8h5q3 2 3 6q0 2 -1.5 3t-3.5 2.5t-4 2.5t-3 2q-5 6 -5 14v15v2t0.5 2.5t1.5 2.5t2 1h1q1 -1 1.5 -2.5l1 -3t0.5 -3.5v-2v-3.5t0.5 -5t0.5 -5v-3.5q1 0 1.5 -1l1 -2t1.5 -2l1 -1l5 -5l3 -3h1q1 0 2 2.5t2 3.5q0 3 -0.5 5.5t-2 4t-2 3.5t-0.5 5t0.5 7.5
t2 8.5t4 7t6.5 3q3 0 3.5 -1.5t0.5 -3.5t-1 -3.5l-2 -3t-2 -4.5t-1 -6q0 -6 1.5 -10t1.5 -10v0q0 -1 -0.5 -2l-1 -2t-1 -2.5l-0.5 -1.5q-1 -1 -2 -1.5t-2.5 -1.5t-2.5 -1.5t-1 -2.5q0 -3 2.5 -4t6 -1t6 -1t2.5 -4v-1.5t-1 -1.5h-17q0 -4 3 -6t7 -5t7 -7t3 -12q0 -2 -2.5 -4
t-4.5 -2h-1q-1 1 -2.5 2l-1.5 1v14q0 1 -1.5 2t-2.5 2h-1v0l-1.5 -1.5l-0.5 -0.5v-28q0 -3 -1 -3h-3q-1 0 -3.5 0.5t-2.5 2.5v31q-4 0 -5.5 -1.5t-2 -4t-1 -5.5t-0.5 -6q0 -1 -1 -1.5t-2 -0.5h-2h-1q0 11 2.5 16t5.5 7t5.5 3t2.5 4q0 1 -0.5 2l-1.5 3q-8 2 -16.5 2.5
t-17.5 0.5q-3 0 -3 -4t1 -6t3 -3t4.5 -2t4 -3t3 -5.5t1.5 -10.5q0 -2 -1 -4.5t-4 -2.5q-2 0 -2.5 3.5l-1 7l-1 7t-3.5 3.5l-1.5 -0.5t-1.5 -1.5v-28q0 -3 -0.5 -4t-2.5 -1q-1 0 -3.5 0.5t-2.5 1.5v34q0 1 -2 1h-1q-4 0 -5 -3t-1 -7t-1 -7.5t-4 -3.5t-3 1.5v3.5
q0 10 2.5 13.5t5.5 5.5t5.5 3.5t2.5 5.5q0 1 -0.5 2t-0.5 2q-1 1 -2.5 1.5t-3.5 0.5t-3.5 1t-1.5 2q0 3 2 3h4.5h4.5t2 3v0.5v0.5q-4 6 -7.5 11t-5 10t-2.5 11t-1 13q0 2 1 3.5t3 1.5h1q1 -1 3.5 -2.5t2.5 -2.5v-24q0 -1 1 -3l2 -4l3 -3q1 0 2.5 0.5l3 1t3 1.5t1.5 2
q0 5 -1.5 8.5t-1.5 8.5q0 4 0.5 8t0.5 8v3v2q-2 3 -4.5 3.5t-4.5 1.5q-7 5 -8.5 12.5t-1.5 15.5q0 2 0.5 7t1 10.5t1.5 10t2 4.5l16 7v1.5v2.5q0 5 -1 9.5l-2 9t-2 9.5t-1 10q0 3 3 3t4.5 -3t2.5 -6.5t1.5 -7t0.5 -5.5q0 -1 0.5 -3.5t0.5 -5t0.5 -5t0.5 -3.5q2 -4 4.5 -5
t6.5 -1t5.5 2t2 5t0 6.5t-0.5 6.5q1 6 2 13t1 13zM64 177v8.5t0.5 12.5t1.5 14.5t2.5 13.5t3 9.5t4.5 3.5q1 0 2.5 -0.5t2.5 -2.5v-2.5v-3.5q0 -6 -1.5 -12.5l-3 -13l-3 -13t-1.5 -13.5q0 -2 0.5 -5t2 -5.5t3.5 -4t5 -1.5q2 0 4 5t4 13t4 17t3.5 17t3.5 13t3 5q6 0 6 -6
q0 -7 -2.5 -11t-3.5 -10q-3 -9 -6 -20.5t-5 -21.5l-0.5 -1t-0.5 -2l0.5 -1t0.5 -2l1 -1t2 -2.5t2 -2.5l1 -1q2 -4 3 -7.5t2 -7.5t2.5 -7.5t3.5 -7.5v-4.5t0.5 -7.5t0.5 -7.5v-4.5v-3q0 -6 -3.5 -9t-7.5 -4.5t-7.5 -2.5t-3.5 -3v-12q0 -2 2 -3.5t4 -2l4 -1t3 -0.5q2 0 4 1.5
t3.5 3.5t3 3.5t3.5 1.5t2 -2v-2q0 -4 -1 -6t-2.5 -4t-3.5 -3.5t-4 -4.5q-3 -3 -5 -7.5t-5 -9t-6 -8t-7 -3.5q-3 0 -5 2t-2.5 4.5t-1.5 5.5t-3 5q0 1 -2 4t-4.5 6.5t-4.5 6t-3 3.5l-0.5 1.5t-1.5 3.5t-2 4.5t-2 3.5l-1.5 2.5l-3 5t-2.5 5t-1 4.5v2t2 2q5 -2 8 -6.5t5.5 -8.5
t5.5 -7.5t10 -3.5h2.5h2.5q2 2 2 5.5v5.5v7q-2 5 -5.5 5.5t-7.5 1t-6.5 4.5t-2.5 15q0 7 1.5 14t5.5 11.5t10 6.5t14 1q1 1 1.5 2t0.5 2v2q-3 4 -7 6.5l-8 5t-8 4.5t-7 6v3v3v3v3zM137 184q0 -4 4 -6q9 0 18 -1t19 -1h2.5t3 0.5t3 1.5t1.5 3q0 4 -4 7t-9.5 4t-11 1h-8.5h-5
h-5q-3 -1 -5.5 -3.5t-2.5 -5.5zM136 163q0 -2 2 -3.5t4 -2.5h6.5h10t10 -0.5t6.5 -0.5l2.5 -1t3.5 -1h1q2 0 4 3t1 5q0 1 -1.5 2.5l-2.5 2.5q-9 3 -15.5 3h-15.5h-3h-4h-4.5h-3.5q0 -1 -0.5 -3.5t-0.5 -3.5zM166 136h5t6 0.5t5 2t2 4.5v2t-1 2q-5 1 -11 2t-12 1.5t-12 0.5
h-11q0 -6 3 -9t7.5 -4t9.5 -1.5t9 -0.5zM72 114q0 -3 3 -4t6.5 -1.5t7 -0.5h5.5h4.5h4.5q1 2 1.5 3.5t0.5 3.5q0 4 -1.5 6.5t-4 4t-6 2t-6.5 0.5q-8 0 -11.5 -3t-3.5 -11zM93 88h9q2 -1 2.5 0.5t0.5 3.5q0 4 -4 6t-7 2h-5t-6.5 0.5t-6.5 0.5h-5q0 -5 2 -7.5t5 -4t7 -1.5h8z
M73 49l2 -3.5l4 -7t4 -6.5t3 -3h2l1 2l1 2l2.5 2.5l3 3l2.5 2.5l2 2v2q0 3 -2 4t-4.5 1.5t-5.5 0.5h-5h-4h-4t-1.5 -0.5t-0.5 -1.5z" />
</svg>
