<?xml version="1.0" standalone="no"?>
<!DOCTYPE svg PUBLIC "-//W3C//DTD SVG 1.1//EN" "http://www.w3.org/Graphics/SVG/1.1/DTD/svg11.dtd" >
<svg xmlns="http://www.w3.org/2000/svg" xmlns:xlink="http://www.w3.org/1999/xlink" version="1.1" viewBox="-10 0 266 256">
   <path fill="currentColor"
d="M166 247q0 3 1 3.5t3 0.5q4 0 6 -3t3 -7t1 -8.5v-6.5v-72q0 -1 1.5 -2t3.5 -2t3.5 -1h2.5q3 0 4.5 2t2.5 6q1 1 1 3t1 5t1 5t1 3q1 11 2 22.5t1 22.5q0 5 -1 8.5t-1 8.5q0 3 1 3.5t4 0.5h3q1 0 2 -1v-10q0 -22 -2 -44t-6 -43l-3 -3t-4 -2t-4 1t-3.5 2t-3.5 2t-4 1
q-4 0 -5.5 -2t-2 -5.5t-1 -6.5t-2.5 -5q0 -1 -1.5 -2.5l-3 -3t-3 -2.5t-2.5 -2v-2.5v-1.5q0 -1 1.5 -4.5t4 -7.5t5 -7t3.5 -3h29l1.5 -1t1.5 -2v-1q0 -2 -1.5 -4t-3.5 -2h-26q-1 0 -1.5 -2t-0.5 -3q0 -6 2.5 -8.5t6 -3.5t7.5 -1h7q4 0 6.5 -1t2.5 -3q0 -1 -0.5 -2.5
t-1.5 -1.5h-23l-0.5 -1.5t-1.5 -2.5v-1.5v-0.5q0 -1 0.5 -2.5l1 -3t1.5 -3t2 -1.5h20q1 0 2 -2.5l1 -2.5v0v-1l-3 -4h-8h-8q-1 1 -3.5 1.5t-3.5 0.5q-10 1 -18 0.5t-15.5 0.5t-13.5 4.5t-12 12.5v3v5.5v4.5v3q0 8 0.5 16.5t2.5 16.5q1 3 4 5.5t5.5 4.5t5 4.5t2.5 5.5
q0 4 -3.5 7.5t-8 6.5t-9 5t-7.5 3v0.5v1.5q0 3 3 3q5 0 9.5 -2.5t8.5 -5.5t7 -7t6 -7h4q5 0 6.5 2t1.5 7q0 4 -3.5 8.5t-8 8.5t-10.5 7.5t-11 7t-8.5 6.5t-3.5 5t1 3t3 1q1 0 2.5 -1t2.5 -1h1q1 -1 3 -2.5t4 -3.5t4 -3.5t3 -1.5q1 -2 5 -6l8.5 -8.5t8 -7.5t4.5 -3q2 0 3 1.5
l2 3t1 3.5v4v5q-4 3 -9 9t-10.5 13t-10.5 15t-9.5 16t-7 14.5t-2.5 11.5v2.5v2.5q3 1 5 1t5 -5t6 -12.5t7 -16t7.5 -16.5t7.5 -13t7 -5h1l2 2t1 2v56q0 1 -1 3t-2 4.5t-2 4.5t-1 3v1zM45 166q0 2 2.5 3t3.5 1q4 0 7 -5t6.5 -10.5t7.5 -10.5t9 -5h1v0q1 1 3 2t4 2.5l4 3
t2 2.5q2 1 4 3t4 4.5t4 4t3 1.5q3 0 3 -1.5v-4.5v-4q-3 -4 -8 -7.5t-9 -8t-7 -9.5t-3 -11v-32q0 -2 -2 -2h-2q-2 0 -3.5 0.5t-2.5 1.5v5q0 4 1 8t1 8l-0.5 1l-0.5 1v5.5t-0.5 6.5t-0.5 6v3q-1 4 -6 9l-10.5 10.5l-10 10t-4.5 8.5zM136 92q0 -3 3.5 -4.5t6.5 -1.5h15l3 4
q0 1 -0.5 2.5t-1.5 3.5t-2.5 4t-2.5 3q0 1 -2.5 2t-3.5 2h-0.5h-0.5q-2 0 -4 -2l-4.5 -4.5t-4 -4.5t-1.5 -4zM46 90q0 2 1 3.5t3 1.5q6 0 10 -4.5t8 -10.5t8 -11t10 -5l0.5 0.5l0.5 0.5q2 1 5 5t6 8.5t6 7.5t5 3t3.5 -2t1.5 -4t-1.5 -4.5t-3.5 -4t-4 -3.5l-3 -3t-2.5 -3
l-3 -4t-3.5 -4.5t-2 -3.5q-1 0 -1.5 -1.5l-0.5 -1.5v-32q0 -3 -2 -4.5t-4 -1.5t-3 0.5t-1 3.5v36q0 5 -5 10t-11.5 10t-11.5 9.5t-5 8.5zM130 69q0 -4 4 -6t10 -3t11.5 -0.5t7.5 0.5h4q1 0 1.5 2t0.5 3v0v1q0 5 -1 7.5t-2.5 3.5t-4.5 1.5t-7 0.5h-1.5t-3 0.5l-3 1t-2.5 0.5
v0q-8 0 -11 -2.5t-3 -9.5zM133 51q0 -5 3.5 -8.5t9 -5.5t11 -2.5t9.5 -0.5h1q3 3 4 5t1 5q0 6 -4 8t-9.5 3t-11 0.5t-9.5 -0.5q-2 0 -3.5 -1t-1.5 -3z" />
</svg>
