<?xml version="1.0" standalone="no"?>
<!DOCTYPE svg PUBLIC "-//W3C//DTD SVG 1.1//EN" "http://www.w3.org/Graphics/SVG/1.1/DTD/svg11.dtd" >
<svg xmlns="http://www.w3.org/2000/svg" xmlns:xlink="http://www.w3.org/1999/xlink" version="1.1" viewBox="-10 0 266 256">
   <path fill="currentColor"
d="M160 182q0 3 1.5 9t4 14t5.5 16t7 14.5t8 11t8 4.5q3 0 5.5 -2.5t2.5 -5.5t-3.5 -5.5t-5.5 -3.5q-4 -7 -8 -14.5t-7.5 -15t-6 -15t-2.5 -15.5q0 -4 2.5 -6.5t6.5 -4l8 -3t7 -3.5q1 0 2.5 -2t3 -3.5l3 -3l2.5 -2.5q1 -5 1 -9v-7.5v-7.5v-9q0 -3 0.5 -7.5t-0.5 -9t-3.5 -8
t-7.5 -3.5h-40v-12q0 -4 3.5 -5.5t9 -2t12 -1t12 -2.5t9.5 -5.5t4 -10.5q0 -3 -0.5 -7t-2 -7t-4.5 -4.5t-8 -1.5q-6 0 -13 0.5t-14 0.5h-5q-2 -1 -3 -3t-1.5 -5t-0.5 -5v-4q0 -1 -1 -1h-2h-1h-1t-2.5 0.5l-1.5 0.5v19q0 4 4 5.5t9.5 2t12 0.5h12.5t10 1t4 4q0 5 -3 8t-7 4
q-1 0 -5 0.5t-8.5 1t-8 1t-5.5 0.5q-4 1 -6 3.5t-3.5 5.5t-2 6.5t-0.5 6.5q0 7 2 11.5t10 4.5q6 0 11.5 -1t10.5 -1h4.5t5 0.5t4.5 2t2 3.5v35q0 5 -3 7.5t-6.5 5t-8.5 4.5t-9 6t-6.5 9.5t-2.5 15.5zM104 241q0 2 1 3.5t4 1.5q2 0 4 -2.5t3.5 -6t2 -7.5t0.5 -6v-84
q0 -1 1 -2t2.5 -2l3 -2t2.5 -1t1.5 3.5t1 9t1 11.5t1 11.5t0.5 10v5.5q1 2 1.5 7t1 10.5t1.5 10.5t1 7q1 3 2.5 5.5t3.5 2.5q3 0 5 -1.5t2 -4.5q0 -4 -1 -9t-2.5 -10t-2.5 -10t-2 -8l-3 -64q0 -1 -1.5 -2t-2.5 -1.5t-2.5 -1t-2.5 -0.5q-3 0 -4.5 2t-2.5 5t-2.5 5t-4.5 2
t-4.5 -1.5t-2.5 -4l-2 -5t-3 -3.5q-1 0 -2.5 -1.5t-3.5 -2.5t-3.5 -2t-2.5 -2l-1 -1t-1 -2v-0.5v-0.5v-1q2 -4 4 -10t4 -10l2 -2h18q2 0 2 -2v-2q0 -4 -3 -4.5t-7 -1t-7 -1.5t-3 -5q0 -6 2.5 -8t6.5 -2t7 -0.5t3 -3.5q0 -2 -2.5 -3t-5 -1t-5 -0.5t-2.5 -2.5v-11q0 -1 3 -1.5
l6 -1t6 -1.5t3 -4q0 -1 -1.5 -2.5t-4 -2t-4.5 -1t-3 -0.5l-2 0.5l-4 1l-4 1l-2 0.5q-1 0 -3.5 0.5t-5.5 0.5t-5.5 0.5t-3.5 0.5l-1 0.5t-2 0.5q-5 5 -7.5 12.5t-4 15.5t-2 16t-0.5 13t0.5 8.5t2 6.5t4 5.5t6.5 5.5v2v1q-2 4 -5 8t-7 8t-7.5 7t-5.5 5q0 1 -0.5 1.5t-0.5 1.5
t0.5 2.5t2.5 1.5q5 0 10.5 -5t10 -10.5t8 -10t5.5 -4.5q3 0 5 1.5t2 4.5q0 8 -5.5 15.5t-12 14.5t-12.5 14.5t-6 15.5q0 2 1 2.5t3 0.5q4 0 7.5 -4t7 -10t7 -12.5t6.5 -12.5t6 -9.5t6 -3.5q2 0 3 1t2 3t1.5 3.5t0.5 2.5q0 3 -1.5 7t-3.5 8l-4 8t-4 6l-3 3q-5 8 -8 16.5
t-8 16.5q-3 5 -6 9.5t-3 10.5q0 2 1 3.5t3 1.5q5 0 7 -3q1 -2 2.5 -5.5t3.5 -7.5l4 -8t2 -6q1 -1 3 -6t4.5 -11t4.5 -11t4 -5t3 2t1.5 4.5t0.5 5.5v4q0 8 -1 17.5t-2 16.5q-1 6 -3 11t-2 11zM147 121l0.5 0.5l1.5 1.5q1 0 2.5 0.5t2.5 0.5h25q6 0 6 -5v-2.5t-2 -1.5h-11
q-2 0 -6 -0.5t-8 0t-7.5 2t-3.5 4.5zM74 88q0 -3 4 -4.5t7 -1.5t4 1t1 3q0 1 -0.5 3t-2 3.5t-3 2.5t-2.5 1q-4 0 -6 -2t-2 -6zM74 64q0 -4 2 -6t5 -2.5t6 -0.5h6v7.5t-2 6.5q0 1 -0.5 1.5l-0.5 0.5h-13q-1 0 -2 -1t-1 -2v-2v-2zM89 32q3 0 6 0.5t3 4.5t-2 6t-4.5 3t-5.5 1
h-6q0 -5 1.5 -10t7.5 -5z" />
</svg>
