<?xml version="1.0" standalone="no"?>
<!DOCTYPE svg PUBLIC "-//W3C//DTD SVG 1.1//EN" "http://www.w3.org/Graphics/SVG/1.1/DTD/svg11.dtd" >
<svg xmlns="http://www.w3.org/2000/svg" xmlns:xlink="http://www.w3.org/1999/xlink" version="1.1" viewBox="-10 0 266 256">
   <path fill="currentColor"
d="M75 246q0 2 0.5 3.5t3.5 1.5q4 0 6 -4t3 -8q2 -9 3 -19.5t2.5 -21t2.5 -20.5t2 -19q1 -7 9 -7h2h1l2 3v4t0.5 9.5t0.5 11.5t1 9v15q1 3 4 3h1h1l1.5 -4.5t0.5 -4.5v-4q-1 -3 -1 -10.5t-1 -16t-1 -16t-1 -10.5l-1 -1t-2 -1h-1v0v0q-1 1 -3 1.5t-4 1.5t-4 2.5l-2 1.5
q-2 0 -3 -5.5t-2 -12l-2 -13t-3 -10.5l1 -2.5t2 -4.5l2 -4t2 -3q0 -1 0.5 -3l1 -4t2 -3t3.5 -1h21q1 0 2 -1.5t2 -2.5v0v-1l-1.5 -1.5l-0.5 -0.5h-26v-13q0 -1 3.5 -1t7.5 -0.5l8 -1t5 -0.5v-2q0 -2 -1.5 -3.5t-3.5 -1.5q-3 0 -6 1t-6 1q-4 0 -4.5 -3t-0.5 -5v-2v-2.5
t0.5 -3l0.5 -1.5h21q1 0 1.5 -1l0.5 -1q0 -1 -1 -3t-2 -2h-8q-12 0 -22 1.5t-17.5 5.5t-11.5 12t-4 21q0 12 3.5 20.5t12.5 16.5l-3 7q-2 1 -5 3.5t-6.5 6t-6.5 6t-5 3.5l-3.5 3.5t-2.5 3.5v1v0q0 1 1.5 2t1.5 2h1h1q1 -1 3.5 -3l5 -4t4.5 -4t3 -2q1 -1 3 -3.5t5 -5t5 -4.5
l3 -3q3 2 4.5 4.5t1.5 6.5v3q-9 10 -18 17t-20 14q-1 0 -1.5 1t-0.5 2q0 3 1.5 3h3.5q3 0 7.5 -3t9.5 -7t9.5 -8.5l7.5 -7.5h1t1.5 1.5l1 3l1 3t0.5 2.5q0 5 -4 10t-9.5 9.5t-11 8.5t-8.5 6t-6 7t-7 7v2q0 2 1 2.5t3 0.5q6 0 10.5 -3.5t8.5 -8.5t7.5 -10t6.5 -8
q1 0 1.5 -0.5l0.5 -0.5q3 0 3 2.5v4.5q0 12 -3 25t-5 25q-1 5 -3.5 9t-2.5 9zM191 202l3 37q0 4 3.5 6t6.5 2q0 -9 -1.5 -17t-2.5 -16v-3t-0.5 -4t-0.5 -4v-2q-1 -7 -3.5 -15t-2.5 -15q0 -3 3 -5.5t6.5 -6.5t6.5 -9t3 -13t-4 -13t-8.5 -7.5t-8.5 -4.5t-4 -4v-2v-1h1l1 -1
q6 -10 10.5 -19t9.5 -20v-2q0 -9 -4.5 -13.5t-10.5 -7.5t-13 -4.5t-13 -3.5q-4 -1 -5.5 -4.5t-2.5 -7t-3.5 -6t-8.5 -2.5q0 6 2.5 11.5l5 11t4.5 10.5t2 12t-2 14t-5 14t-6.5 13.5t-6.5 13.5q-5 12 -6.5 26t-1.5 27q0 18 2 37t5 37q0 1 1 1.5t2 0.5t2 -0.5t1 -1.5v-4.5v-4.5
q0 -12 -2.5 -23.5t-2.5 -22.5q0 -5 4 -8t9.5 -4t11.5 -1h10q6 0 8 3.5t2.5 8.5l1 10t2.5 7zM144 149h3t4.5 -0.5t4.5 -0.5h2h1q1 0 5 1t8 2.5t7.5 4t3.5 4.5q0 1 -1.5 2t-4 2t-4.5 1.5t-3 1.5q-7 1 -14 1.5t-14 0.5v-3.5v-5.5t0.5 -6t1.5 -5zM149 139q-1 0 -1.5 -1t-1 -2.5
t-0.5 -2.5v-2l1 -4t2 -6l2 -1q1 0 3 -0.5t5 -0.5t5.5 -0.5t3.5 -0.5h1q4 0 10 0.5t11.5 2t9.5 5t4 9.5q0 3 -1 6.5l-2 7t-3.5 6t-5.5 2.5t-4.5 -2.5t-4 -5t-6.5 -5.5t-12 -3q-1 0 -3.5 -0.5t-5 -0.5t-4.5 -0.5t-3 -0.5zM155 105q0 -5 3.5 -10t4.5 -9q1 0 1.5 -2t1.5 -4.5
t1.5 -4t0.5 -2.5l1 -0.5l1 -0.5q3 -6 2.5 -13t-0.5 -12q0 -1 1 -1.5t2 -0.5q3 0 6.5 0.5t6.5 1.5t5.5 2.5t3.5 4.5v6q0 7 -2 13.5t-5 12t-5.5 12t-4.5 12.5h-23q-1 0 -1.5 -1.5t-0.5 -2.5v-1zM75 87q0 -3 3.5 -4.5t6.5 -1.5q2 0 3 1.5t1 3.5v3t-1 4t-2.5 3.5t-2.5 1.5
q-4 0 -6 -4t-2 -7zM70 69q0 -3 1 -5t3.5 -2.5l5 -1t5.5 -0.5q5 0 8 1t3 7q0 2 -1.5 5t-3.5 3h-20l-0.5 -1.5t-0.5 -3.5v-2zM93 37q1 0 2 1.5t1.5 3l1 3t0.5 2.5t-1 4t-3 3h-19q0 -3 2 -5.5t4.5 -5t5.5 -4.5t6 -2z" />
</svg>
