<?xml version="1.0" standalone="no"?>
<!DOCTYPE svg PUBLIC "-//W3C//DTD SVG 1.1//EN" "http://www.w3.org/Graphics/SVG/1.1/DTD/svg11.dtd" >
<svg xmlns="http://www.w3.org/2000/svg" xmlns:xlink="http://www.w3.org/1999/xlink" version="1.1" viewBox="-10 0 266 256">
   <path fill="currentColor"
d="M157 208q0 10 1.5 21t3.5 22h3h2q8 0 10 -7q-2 -5 -4.5 -10t-5.5 -10v-28q0 -4 4.5 -7t10 -4.5l11 -3t7.5 -4.5q0 -1 1 -2.5l2 -3t2 -2.5l1 -1q4 -7 5 -14t1.5 -14.5t0.5 -15v-14.5v-3v-4t-0.5 -3.5t-0.5 -2.5l-1 -1v-7t-1 -10t-3.5 -9t-6.5 -3h-19h-14t-14 2
q-1 0 -1.5 1t-0.5 2t2 2.5t3 1.5h6.5t10 -0.5t10.5 -0.5h7h2q4 0 6 4.5t3 10t1.5 11t0.5 8.5q0 2 -0.5 4t-1.5 5v39q0 6 -3.5 9.5t-9 5.5t-11.5 4.5t-10 5.5q-1 1 -2.5 3t-2.5 4.5t-2.5 4.5t-2.5 4v10zM95 176v7t0.5 11t0.5 11v7q-1 10 -2.5 19t-1.5 19q5 0 7.5 -3.5t3 -8
t0 -9.5t-0.5 -7q1 -10 3 -19t2 -20q0 -6 -1.5 -12t-1.5 -12q0 -2 0.5 -5t2.5 -5.5t4 -4.5t5 -2h1q3 4 3 7.5v8.5v8l-0.5 1.5l-0.5 1.5q0 1 0.5 3.5l0.5 2.5v9q0 10 -0.5 20.5t-2.5 20.5q0 1 1.5 2l1.5 1h1h1l2 -2l2 -2v-35q0 -1 0.5 -3l1 -4t0.5 -4v-3v-1v-2v-4.5t-0.5 -8
t-1 -8t-0.5 -4.5q0 -3 0.5 -5.5t0 -5t-2 -4t-5.5 -1.5t-6 2.5t-5 2.5q-1 0 -2 -1l-2 -2t-1.5 -2t-0.5 -2l-0.5 -3t-1.5 -5.5t-1.5 -5.5t-1.5 -3q0 -3 -2.5 -5.5l-5 -5l-4.5 -4.5t-2 -5v-1q1 -1 3 -4l4 -6t4 -5.5t3 -3.5q1 0 4 -0.5t6 -0.5t6 -0.5t4 -0.5q2 0 3 -0.5t1 -2.5
t-1.5 -4t-4.5 -2h-18v-11q0 -3 3.5 -3.5t8.5 -0.5q4 0 7.5 -0.5t3.5 -4.5l-0.5 -2l-0.5 -2h-17l-0.5 -0.5t-0.5 -1.5q-1 0 -1 -2v-3v-2q0 -2 0.5 -3t1 -2.5t2.5 -1.5h18l0.5 -0.5t0.5 -1.5v-1v0q0 -1 -1 -2l-2 -2h-10q-15 0 -23.5 0.5t-14 4t-7.5 11.5t-2 23v9v7t0.5 7.5
t1.5 8.5q0 2 1.5 3.5t3 3.5t2.5 3.5t1 2.5q0 5 -5 8.5t-10.5 6.5t-10 6.5t-4.5 8.5q5 0 10 -2.5t9.5 -5.5t8.5 -7t7 -6h1h1q4 0 6 2t2 6t-3 8.5t-7.5 9t-9.5 8.5t-9 8t-7 7.5t-3 6.5t2 3q3 0 7 -3t8.5 -7.5t8.5 -10t8 -10.5t6.5 -8l2.5 -3h1q1 0 1 1l0.5 2.5t1.5 3.5
q0 1 0.5 4t0.5 6v5.5v3.5q0 6 -2.5 11.5t-6.5 10.5l-8 10t-7 10q-1 0 -2.5 3t-3 7t-3.5 7l-2 3q-3 4 -4.5 6.5t-1.5 7.5q6 0 10.5 -4t8 -9.5t6.5 -12t5 -11.5t4.5 -9t4.5 -4zM144 125v7.5t1 11t3.5 9.5t7.5 4l21 -2q4 -1 6.5 -3.5t3.5 -6.5t1 -7.5v-6.5q0 -2 0.5 -6t0 -8
t-1.5 -7t-4 -3h-1l-1 1t-1 2t-0.5 2.5t-0.5 4t-0.5 4t-0.5 2.5q-1 0 -3 0.5t-5 0.5t-5.5 0.5t-3.5 0.5q-8 0 -10 -2.5t-2 -4.5t0.5 -4t-2.5 -2h-1l-1 0.5l-1 0.5v12zM151 141q0 -4 3 -6.5t7 -3t8 -0.5h7t3 2.5t1 3.5q0 3 -1.5 5t-3.5 3q-1 0 -3 0.5t-4.5 0.5t-5 0.5
t-3.5 0.5h-1q-7 0 -7 -6zM138 72v6t1 8t3 7t6 3h39l1 -1.5t2 -1.5v-1q0 -1 -1 -2t-2.5 -1.5t-3 -0.5h-1.5h-31q-1 0 -2.5 -1t-2 -2.5t-1.5 -3.5t-1 -3q0 -4 1.5 -9t2.5 -10q2 -4 8.5 -5t14.5 -2l16 -2t13 -4l0.5 -0.5l0.5 -0.5v-18q0 -2 -1.5 -4t-3.5 -3t-4.5 -1.5
t-3.5 -0.5q-6 0 -11 0.5t-11 0.5h-12q-2 0 -3.5 -1.5t-2.5 -3t-2.5 -2.5t-2.5 -1q-2 0 -3.5 1t-1.5 3q0 3 2 6.5t4 5.5q12 -1 24 -0.5t24 2.5q1 0 1 1v2q0 6 -4 8.5t-10 3t-13 0.5q-8 0 -14 2t-10 8t-4 18zM70 75q0 -3 2.5 -3h4.5q3 0 4.5 0.5t1.5 3.5t-1 5t-4 5h-0.5h-0.5
q-1 0 -2.5 -1t-2.5 -3t-1.5 -4t-0.5 -3zM71 55q0 -6 3 -7.5t9 -1.5q4 0 5.5 3t1.5 6q0 2 -0.5 4.5t-3.5 2.5h-11q-2 0 -2.5 -1l-1 -2t-0.5 -3v-1zM73 35q0 -6 4.5 -8.5t9.5 -2.5h2.5h2.5q1 0 1.5 0.5l0.5 0.5q0 1 -0.5 3t-1 4.5t-1.5 4t-2 1.5h-14q-2 0 -2 -1v-2z" />
</svg>
