<?xml version="1.0" standalone="no"?>
<!DOCTYPE svg PUBLIC "-//W3C//DTD SVG 1.1//EN" "http://www.w3.org/Graphics/SVG/1.1/DTD/svg11.dtd" >
<svg xmlns="http://www.w3.org/2000/svg" xmlns:xlink="http://www.w3.org/1999/xlink" version="1.1" viewBox="-10 0 266 256">
   <path fill="currentColor"
d="M83 244q0 4 1 4.5t3 0.5h3.5t2.5 -2v-105q0 -2 3 -3t5 -1t3.5 6t2.5 14t1.5 15t0.5 10v1q0 1 -0.5 4t-0.5 7t-0.5 7t-0.5 4v5q0 3 0.5 4.5t3.5 1.5q2 0 3 -0.5t3 -2.5v-12v-12q0 -1 -0.5 -7t-1 -13l-1 -14t-0.5 -10q-1 -3 -1 -6.5t-1 -6t-2.5 -4t-5.5 -1.5q-3 0 -6 1
t-6 1q-1 0 -3.5 -4.5t-5.5 -10.5l-5.5 -11l-2.5 -5v-1l0.5 -1.5t1.5 -2.5t1.5 -2.5t1.5 -1.5q0 -1 1 -3t2.5 -4.5t2.5 -5t2 -3.5l1 -0.5t2 -0.5t3 -0.5t4 -0.5t4.5 -0.5l2.5 -0.5q1 0 2 -1l2 -2v-1v-1q-1 -2 -3.5 -2.5t-4.5 -0.5q-3 0 -5 0.5t-3 0.5v-15q0 -2 2.5 -2.5
t5.5 -1t5.5 -1.5t3.5 -3l-1 -2h-16v-15q4 -1 8.5 -2t7.5 -5v-1v0l-2 -2h-3.5h-3.5h-9.5t-8.5 1t-9 2t-11 2q-8 6 -11 16.5t-2 19.5q0 1 0.5 4.5l1 7l1 7l0.5 3.5q1 4 0.5 7t1.5 6l1 1.5t2 2.5t2 2.5l1 1.5l0.5 0.5t0.5 1.5l-0.5 0.5l-0.5 0.5l-13 16v6q4 0 6.5 -2.5
l4.5 -4.5l4.5 -4.5t5.5 -2.5t4 3t1 5v3q-6 8 -13 13t-16 9q0 1 -0.5 2t-1.5 2v1q0 1 1.5 1.5t2.5 0.5q3 0 7.5 -2.5t9 -6t8 -7t6.5 -5.5h3q0 1 0.5 2.5t1 3.5t1.5 4v1q0 2 -3 6t-6.5 8.5t-7 8.5t-4.5 6q-5 9 -9 20t-4 22v3.5t3 1.5q1 1 2 0l2 -2l2 -2t1 -2t0.5 -3.5t1 -5.5
t1 -5.5l0.5 -2.5q0 -2 3 -8t6 -12.5t6 -11.5t4 -5t2 0.5t1 1.5q0 10 1 19.5t1 19.5q0 12 -1.5 24.5t-1.5 23.5zM197 231q0 3 1 3.5t3 0.5q4 0 6.5 -3.5t2.5 -7.5q0 -7 -1 -15l-2 -16q-1 -15 -0.5 -31t-1.5 -32v-2.5t-1 -4t-1.5 -4t-0.5 -2.5v-7q0 -6 2 -11.5l4 -11t4 -10.5
t2 -11v-8t-1 -7.5t-3 -6.5t-6 -4q-7 -3 -12.5 -5t-12.5 -2h-6t-3 4q0 3 2.5 3.5t6.5 1t8 0.5t8 2.5t6.5 7.5t2.5 14v3.5t-1 4.5t-2.5 3.5t-3.5 1.5q-1 0 -2 -1l-2 -2t-2 -2.5t-2 -2.5q-1 0 -3 -0.5l-4 -1l-4 -1t-3 -0.5h-1h-2q-4 0 -4 3t4 4t8.5 2.5t8.5 4t4 8.5v1v1
l-5.5 5.5t-5 4.5t-5 3.5t-5.5 3.5q-2 1 -4.5 2l-2.5 1l-1 -1v-68q0 -5 -2 -7.5t-5 -4t-6.5 -2.5t-6.5 -1q-7 0 -12 0.5t-12 1.5v5h10l1 5v125q0 3 0.5 10.5t0.5 16t0.5 16.5t0.5 11h1h1q2 0 3.5 -0.5t2.5 -3.5v-10v-10l-0.5 -1.5t-0.5 -3t-0.5 -3t-0.5 -2.5q0 -2 0.5 -7
t0.5 -10.5v-10.5v-7v-4l1 -102l0.5 -2t1.5 -2q0 -1 0.5 -2.5l0.5 -1.5h0.5h0.5q3 0 6.5 4t4.5 7v35q0 15 -1 28.5t-1 27.5v1q0 1 0.5 3t1.5 2v1v1q-1 0 -1.5 2l-0.5 2v2q0 19 0.5 38.5t2.5 37.5l1.5 1l1.5 1h1q2 0 3 -2.5t1 -4.5q0 -13 -1 -26t-1 -26v-3v-6t0.5 -6t0.5 -4
t4 -2t8.5 -1.5t8.5 -1t6 -0.5t3.5 0.5t1.5 2.5q-1 18 1 35t2 34v6q0 1 -1 3.5zM190 106h1q0 1 1 2l1 1q-1 5 -0.5 8.5t1 6.5l1 6t0.5 7q-3 0 -4 2l-27 3v-23q0 -1 2 -1t4.5 -0.5t5 -1.5t4.5 -2l1.5 -1.5l3 -3t3 -2.5t2.5 -1zM60 79q0 -1 1.5 -2t3.5 -1.5t3.5 -1t3.5 -0.5
t2.5 1t0.5 3q0 3 -1.5 7t-5.5 4q-3 0 -5.5 -3.5t-2.5 -6.5zM57 58q0 -4 2 -6t5 -3t6.5 -1.5t6.5 -0.5q2 0 3 1.5t2 3.5t1 4v3v4t-3 3h-18q-4 0 -4.5 -3t-0.5 -5zM62 37q0 -2 1.5 -4.5t3.5 -4t5 -2.5t5 -1q4 0 5.5 3.5t1.5 6.5v0v1l-3 4h-2.5t-4.5 0.5t-4.5 0.5h-2.5h-0.5
h-0.5q-4 0 -4 -4z" />
</svg>
