<?xml version="1.0" standalone="no"?>
<!DOCTYPE svg PUBLIC "-//W3C//DTD SVG 1.1//EN" "http://www.w3.org/Graphics/SVG/1.1/DTD/svg11.dtd" >
<svg xmlns="http://www.w3.org/2000/svg" xmlns:xlink="http://www.w3.org/1999/xlink" version="1.1" viewBox="-10 0 266 256">
   <path fill="currentColor"
d="M87 248q0 1 1 1.5t2 0.5q3 0 4.5 -3.5t1.5 -6.5t-0.5 -5.5t-0.5 -5.5v-4.5t1 -4.5v-76q0 -4 3.5 -8.5t6.5 -6.5l3 3l0.5 2t0.5 4t0.5 4t0.5 4v9v5.5t0.5 9.5t0.5 9v5v30l1.5 1.5t1.5 0.5q3 0 5 -2.5t2 -4.5v-3v-4v-5v-3l1 -2t1 -3q-1 -8 -2.5 -17t-2.5 -17.5t-2 -17.5
t0 -18q-2 -1 -4 -1h-4q-3 0 -5.5 1.5t-5.5 1.5q-2 0 -3 -1t-1.5 -2.5t-0.5 -3v-3.5q-1 -2 -3 -5.5t-5 -6.5t-5 -5.5t-2 -3.5l0.5 -0.5l0.5 -0.5q0 -1 1 -3t2 -2q0 -1 1 -2.5t2 -3.5t2 -3.5t1 -2.5q1 -1 4 -2l6 -2t5.5 -2t2.5 -2t-0.5 -3.5t-1.5 -2.5h-12l-0.5 -3t-0.5 -5
q1 -3 3 -4t4.5 -1.5l5 -1t4.5 -0.5l0.5 -1t0.5 -2q0 -2 -2.5 -2.5t-6 -1t-6.5 -2t-3 -5.5v-3t2 -2h11q2 0 3 -2t1 -3q0 -2 -0.5 -3t-1.5 -2h-12h-9t-10.5 0.5t-10 2t-6.5 5.5q-3 5 -4.5 9.5t-2 8.5t-0.5 8.5v9.5v3v4v4v3l2.5 5l3 6t3 5.5t1.5 4.5t-2.5 4.5t-6 5t-6 4.5
t-1.5 4q0 1 1 2l2 2h1q3 0 6 -2.5t5.5 -5l5 -5t6.5 -2.5h1h2.5t2.5 0.5l1 0.5v9l-23 22v1v1q0 2 1.5 3.5t3.5 1.5q4 0 6.5 -3.5l5 -7l5 -7t5.5 -3.5q1 0 2 2l2.5 5t2 5.5t0.5 3.5q0 3 -1 5.5t-3 5l-4 5t-3 4.5q-1 0 -3 3t-4 6.5t-4 6t-2 3.5q-5 8 -7.5 16t-3.5 16
q-1 4 -2.5 6.5t-1.5 5.5t1 4t4 1h3q1 0 2 -2q0 -5 2.5 -14t5.5 -18.5t7.5 -17t8.5 -10.5q1 0 2 0.5t2 0.5q0 11 0.5 21t0.5 21q0 10 -1.5 19t-1.5 18v8zM153 144v103q3 0 6 -1t3 -5q0 -5 -0.5 -10t-2.5 -9v-4.5v-6.5v-7v-5q0 -16 1 -32t1 -32q0 -23 -2 -46t-2 -47
q0 -4 1 -8.5t1 -9.5q0 -3 -2 -7t-6 -4v37q0 2 -2 3.5t-4 1.5t-4.5 -0.5t-4.5 -3.5q0 -1 -0.5 -3.5l-1 -5t-1 -5.5t-0.5 -4t0.5 -4t0 -5.5t-1.5 -4.5t-4 -2q-1 0 -2 1.5t-1 3v3v2.5v7t0.5 6.5l1 7t2.5 8.5q0 3 3.5 5t7.5 3t7.5 1t3.5 1v18l-1.5 0.5l-1.5 0.5q-1 0 -3.5 0.5
t-5.5 1t-5.5 0.5h-3.5l-1.5 1.5l-1.5 1.5v1v1l3 3q3 0 7 -0.5t7.5 0t6 3t2.5 6.5q0 7 -3.5 10t-7.5 4t-7 2.5t-3 7.5v89q0 4 3 4t5 -2.5t3 -4.5v-4v-5q0 -8 -1.5 -15.5t-1.5 -15.5v-11v-10t0.5 -10.5t0.5 -11.5q0 -4 2 -5.5t5 -1.5h1.5t1.5 1zM180 241q-1 3 1 3.5t3 0.5
q2 0 4 -1.5t2 -4.5q0 -24 -2.5 -47.5t-2.5 -46.5v-11q0 -4 1 -9q1 0 2 -0.5t2 -0.5q4 0 5.5 3.5t2.5 8.5q0 3 0.5 11t1.5 17t1.5 17t0.5 12q1 1 1 5.5t0.5 9t1.5 8t3 3.5l0.5 -0.5l0.5 -0.5q1 0 2.5 -1t2.5 -2v-3v-2q0 -17 -3.5 -33.5t-4.5 -32.5q-1 -6 -0.5 -11.5
t-1.5 -11.5q-1 -4 -3.5 -5t-4.5 -1h-4.5t-4.5 -1.5t-3 -4.5t-1 -11v-2.5t2 -2.5h21q1 0 1 -2.5v-2.5v-3t-1 -2h-23l-0.5 -1.5t-0.5 -2.5v-7v-6q10 1 15.5 -1.5t8 -7t3 -11t0.5 -13.5v-16q0 -2 -1.5 -3.5t-4.5 -1.5t-4.5 3t-1.5 8q0 4 0.5 9.5t0.5 10t-2 7.5t-6 3h-1h-2.5
t-2.5 -0.5t-1 -1.5v-35q0 -2 -3 -2h-2h-4q-2 2 -2 4v5q0 17 1 34.5t2 34.5q1 4 0.5 6t-0.5 4t0.5 4t1.5 5q-1 17 0 33t1.5 32.5t1.5 32.5t0 32zM62 76q0 -4 4 -6t8 -1l1.5 1.5l1.5 1.5q0 2 -1 3.5t-2.5 3.5t-3 3t-1.5 2q-4 -1 -5.5 -3t-1.5 -5zM59 56v-2.5t0.5 -3l1 -3
t1.5 -1.5h18q2 0 2.5 3t0.5 4q0 3 -1.5 4t-4 2t-4.5 1h-4t-4 -0.5t-4 -0.5q-2 0 -2 -1.5v-1.5zM64 33q0 -2 1.5 -3.5t3.5 -2.5t4.5 -1.5t3.5 -0.5q3 0 5 1.5t1 5.5q0 2 -3.5 3.5t-5.5 1.5v0q-1 0 -2.5 -0.5t-3 -0.5t-3 -1t-1.5 -2z" />
</svg>
