<?xml version="1.0" standalone="no"?>
<!DOCTYPE svg PUBLIC "-//W3C//DTD SVG 1.1//EN" "http://www.w3.org/Graphics/SVG/1.1/DTD/svg11.dtd" >
<svg xmlns="http://www.w3.org/2000/svg" xmlns:xlink="http://www.w3.org/1999/xlink" version="1.1" viewBox="-10 0 266 256">
   <path fill="currentColor"
d="M66 248l0.5 0.5t1.5 0.5q0 1 1.5 1.5l1.5 0.5q3 0 5.5 -3.5t5 -9t4 -12.5t2.5 -13t2 -11.5t1 -8.5q0 -1 0.5 -4.5t0.5 -8t0.5 -8t0.5 -6.5v-8.5t1 -10.5t3 -9t6 -4q2 0 3.5 0.5l1.5 0.5v67q-2 3 -2 7v6q0 1 0.5 4t0.5 4l1 0.5t2 0.5q2 0 3 -1t1.5 -2.5t1 -3.5t0.5 -4
q0 -1 0.5 -3.5t0.5 -5.5t0.5 -5t0.5 -3v-4.5v-9.5v-11v-9v-7v-10v-10.5v-6.5q0 -3 -3 -4t-5 -1q-3 0 -5.5 1t-5.5 1q-1 0 -2 -1t-1 -2v-3v-2q0 -2 -0.5 -4t-0.5 -4.5t-0.5 -4t-0.5 -2.5l-0.5 -1.5t-1.5 -3t-1.5 -2.5t-0.5 -2l-0.5 -1l-0.5 -1q0 -2 1 -6t2.5 -7.5t3.5 -6.5
t4 -3h3h4h3.5h2.5q2 -1 2.5 -2t0.5 -2v-3t-2 -2h-14l-0.5 -0.5t-0.5 -1.5v-3v-1v-1v-2.5t0.5 -2.5l0.5 -1h16v-9q0 -1 -2 -1.5t-4.5 -0.5t-4.5 -0.5t-2 -2.5v-11l2 -1h4.5t5.5 -0.5t5 -2.5t2 -4v-3.5t-3 -0.5h-12q-8 0 -16 0.5t-15 2.5q-4 1 -6 8t-3 16.5t-1.5 18t-0.5 11.5
v12q0 2 1.5 4t2.5 3.5t2 3.5t1 4v2l-25 25q-1 1 -1 5q0 1 0.5 2t1.5 1q2 0 5 -2t5.5 -4t4.5 -4l3 -3l3 -3t4.5 -4t4 -4t2.5 -3q3 1 4 4t1 6v1q-5 4 -8 8.5t-6 8.5q-5 6 -11 10.5t-11 9.5v2q0 1 0.5 2.5t2.5 1.5q5 0 10 -4.5t8.5 -10.5t7.5 -11t8 -5q3 0 3.5 2.5t0.5 4.5
q0 4 -2 7.5t-4.5 7l-5 7t-4.5 6.5q-5 7 -9.5 15t-8.5 16t-6.5 17t-2.5 18q1 0 3.5 -1t3.5 -1q1 -1 3.5 -8t6 -15t6.5 -16t4 -10t3 -5t3 -5t2 -2h2q0 18 -2.5 34t-7.5 33q-1 1 -2 3.5t-2.5 5.5t-2.5 5.5t-1 4.5zM196 239v1l2.5 1.5t3.5 1.5q5 0 6 -3.5t2 -7.5v-17
q0 -12 -1 -23.5t-1 -22.5q0 -9 1 -17.5t1 -17.5v-8.5t-1 -11.5t-3 -10.5t-7 -4.5h-22l-3 -3v-2v-3v-6t0.5 -5.5t1 -5.5t1.5 -7q1 -6 4 -7t10 -1l1.5 0.5l1.5 0.5l1.5 1.5l0.5 0.5v16q2 0 2 2t-0.5 4.5t0 4t4.5 1.5h2h1q1 -1 2 -3t1 -3q1 -6 1 -10.5t0.5 -8t0.5 -7.5v-9v-12
q-2 -6 -6 -9.5t-9.5 -4.5t-11.5 -1.5t-11 -0.5q-2 0 -6 0.5t-8 1.5t-8 2.5t-6 3.5l-1 3t-2 5l-0.5 2t-0.5 3q-1 2 -1.5 7.5t-1 12t-1 12.5t-0.5 8v5q0 2 0.5 4t3.5 2q2 0 3 -1.5t1 -3.5t0.5 -7t1 -11t1 -11.5t0.5 -7.5q0 -1 0.5 -3l1 -4l1 -4t0.5 -3q4 -2 8.5 -3.5t9 -1.5h9
h8.5q5 0 8.5 3t3.5 8q0 4 -2 6t-5 2h-7t-7.5 0.5t-6 2.5t-3.5 6v3v4v5v2q0 2 -0.5 5t-0.5 7t-0.5 7.5t-0.5 4.5l-1 0.5t-2 0.5l-2 0.5t-4.5 0.5t-4.5 0.5t-3 0.5q-4 1 -7.5 6.5t-5.5 13t-3 14.5t-1 11q0 1 1 3.5l1 2.5q0 16 -2.5 32t-2.5 32v5v4.5t0.5 5t1.5 6.5l0.5 0.5
l0.5 0.5h0.5h0.5q1 0 2 -1t1.5 -2.5l1 -3t0.5 -2.5q0 -2 0.5 -5.5t0.5 -7.5t0.5 -8t0.5 -6v-40q2 -5 2.5 -11.5t0.5 -12.5t0.5 -12t1.5 -11q1 -4 5 -6t9.5 -2.5t9.5 -0.5h8h7t7.5 1t6 3.5t3.5 6.5l-1 2l-1 2v2v3q0 1 0.5 4t0.5 6.5t0.5 7t0.5 4.5q0 22 -1.5 45t-1.5 46z
M150 163q0 6 0.5 10t2.5 7t5.5 5t9.5 2q9 0 14 -4t6.5 -10t1 -13.5t-0.5 -15.5v-23l-1 -1.5t-2 -1.5h-1v0q-1 0 -2 1.5l-1 1.5v3.5v4.5v4.5v3.5q-1 3 -4 4.5t-6.5 1.5t-7 -0.5t-4.5 -0.5v-19q0 -3 -2 -4t-4 -1h-2t-2 2v10v10l0.5 1.5t0.5 3t0.5 3l0.5 1.5q0 1 -1 2.5t-1 2.5
v9zM158 160v-3v-3l3 -3h17q3 0 3.5 2t0.5 4q0 3 -1 6t-2.5 6t-4 5t-6.5 2q-3 0 -5.5 -1t-3.5 -3.5t-1 -5v-6.5zM75 73q0 -3 1.5 -3h3.5q3 0 4 1t1 4q0 2 -1 4t-4 2t-4 -3t-1 -5zM74 53v-4t2 -3h15q1 0 1.5 2t0.5 3v2q-1 1 -2 3.5l-1 2.5h-14q-2 0 -2 -2.5v-3.5zM90 20
q2 0 3 2t1 4v2v3.5t-0.5 2.5l-0.5 1h-14v-11q0 -1 1 -2t3 -1.5t4 -0.5h3z" />
</svg>
