<?xml version="1.0" standalone="no"?>
<!DOCTYPE svg PUBLIC "-//W3C//DTD SVG 1.1//EN" "http://www.w3.org/Graphics/SVG/1.1/DTD/svg11.dtd" >
<svg xmlns="http://www.w3.org/2000/svg" xmlns:xlink="http://www.w3.org/1999/xlink" version="1.1" viewBox="-10 0 266 256">
   <path fill="currentColor"
d="M65 245q0 2 2 3t4 1q3 0 6 -2.5t4 -4.5q1 -9 3 -17l4 -16l4 -59l5 -8h0.5h1.5q2 0 3 2t1.5 4.5l1 5t0.5 3.5v67q0 2 1.5 3.5t3.5 1.5t2.5 -0.5t1.5 -2.5q0 -1 0.5 -4.5t0.5 -7.5v-7.5v-4.5v-18v-18t-1.5 -17.5t-3.5 -17.5l-1.5 -1t-2.5 -2v0h-1q-1 1 -2.5 1.5t-3 1.5
t-3.5 2l-2 1l-0.5 0.5l-0.5 0.5l-1 -1q-1 0 -1.5 -2l-1 -4t-0.5 -4v-2q0 -2 -2 -5.5l-4 -7t-3.5 -6.5t-1.5 -4v-1v-1l2.5 -2.5t3 -3.5t2.5 -4t2 -3v-1t0.5 -2.5t0.5 -2.5v-2q1 -2 4 -2.5t6 -0.5t5.5 -0.5t2.5 -4.5q0 -1 -0.5 -2.5t-1.5 -1.5h-11q-1 0 -2 -0.5t-1 -1.5v-12
q0 -1 2.5 -1.5t5.5 -1t6 -0.5h3v-2q0 -3 -2.5 -3.5t-5.5 -0.5t-5.5 -1t-2.5 -4q0 -5 3 -7t7 -2.5t7 -0.5t3 -2q0 -1 -1.5 -2.5t-3.5 -2.5t-4 -1.5t-3 -0.5q-3 0 -4.5 0.5t-2 1l-1.5 1.5t-4 2h-3.5t-5 0.5t-5 0.5h-3.5q-8 1 -12 8t-6 15.5t-2 17v13.5q0 2 0.5 5.5t2 6t3.5 5
t5 3.5v8l-6 3t-8 4.5t-7 5.5t-3 5t0.5 4t2.5 2l1 -0.5l1 -0.5q1 -1 4 -3.5t6.5 -5l7 -5t4.5 -3.5l3 -1.5t2 -0.5q2 0 3.5 2.5t1.5 4.5q0 5 -5.5 10.5t-12 11t-12 11t-5.5 11.5h6l3 -2.5t6.5 -6t7 -7.5t5.5 -6q1 -1 2 -2.5t2.5 -3t2.5 -3t1.5 -2l0.5 -0.5h1h2t1 1v4t0.5 5
l1 6t1.5 4q-6 6 -13.5 15t-14 19.5t-11 21.5t-4.5 19q0 4 4 4q3 0 6.5 -7t7 -16t7.5 -17.5t7 -13.5q2 -1 5 -4l3 -3h1q0 14 -1.5 29t-5.5 29l-2.5 5l-3 6t-2.5 6t-2 5zM162 232q0 3 2.5 4t4.5 1t5 -0.5t3 -4.5v-74l1 -3q9 0 18 -1t17 -4q2 0 2 -1v-2q0 -2 -2 -3.5t-4 -1.5
q-5 0 -11 1t-12 1h-9q-2 -1 -3 -3t-1 -4v-1q1 0 2 -2t2 -3l19 -3q3 0 5.5 -3t4 -6.5t2.5 -7.5t1 -6q0 -4 -1.5 -9.5t-4 -10t-6 -7.5t-9.5 -3h-2.5t-4 0.5t-4.5 0.5h-4l-2.5 1t-3.5 1h-1v0q-1 0 -2.5 -0.5t-3.5 -0.5t-3.5 -0.5t-2.5 -0.5q-4 1 -7.5 4t-6.5 7.5t-4.5 9.5
t-1.5 8q0 15 8.5 21t21.5 7q2 0 2 3v3v5q-1 0 -3 1l-2 1q-2 0 -7.5 0.5t-11 1.5t-11 1.5t-7.5 0.5l-0.5 1l-0.5 1v1v1l1 1.5t2 1.5h6q7 0 14 -1t13 -1h5l2 2v3v5.5v7.5v5v25t-2 24q0 1 -1 3zM146 113q0 -3 1.5 -4.5t4 -2t5 -0.5h4.5t3 1.5t1.5 3t0.5 3.5v4q0 3 -0.5 4.5
t-4.5 1.5q-5 0 -10 -2.5t-5 -8.5zM187 105h4q3 0 5 1v5q0 6 -5 8.5t-11 2.5h-4.5t-2.5 -3v-11q0 -2 2 -2.5t4.5 -0.5h4.5h3zM146 96v-1v-1q2 -3 5.5 -6.5t7.5 -3.5q3 0 4 2t1 4q0 4 -1.5 7t-6.5 3h-3h-3.5t-2.5 -1t-1 -3zM173 91q0 -5 3.5 -6t7.5 -1q6 0 9.5 4t3.5 11h-19
q-3 0 -4 -3t-1 -5zM62 75l2 -2h12q2 0 2 2v3t-0.5 3.5t-1.5 4.5t-2.5 3.5t-3.5 1.5t-3.5 -2.5t-3 -5.5t-2 -5t0.5 -3zM62 65v-12l3 -3h16q1 0 1.5 2.5t0.5 3.5v2.5t-0.5 3t-0.5 2.5t-1 1h-19zM126 58q0 1 2.5 2.5t3.5 1.5h18l1 -0.5t2 -0.5l3.5 -3.5t2.5 -3.5v-39
q0 -1 -2 -1h-2h-2t-2 1v21h-18v-18h-3.5h-3.5t-1.5 1l-0.5 1v8v7v6.5t0.5 7.5t1.5 9zM175 61q1 0 2.5 0.5t4 0.5h4h2.5h1h5t5.5 -1t4 -3t1.5 -5v-38q0 -1 -1 -2t-2.5 -1.5t-3 -0.5h-1.5v20q0 1 -3 1.5l-3 0.5q-8 0 -10 -4t-3 -12h-2h-2.5t-1.5 1v4v4.5v5.5v3q0 6 -0.5 12
t1.5 12q2 1 2 2zM135 49q0 -2 1.5 -3.5t3.5 -2.5t4 -1h4t2.5 1.5t0.5 2.5q0 4 -2 7t-6 3q-3 0 -5.5 -2t-2.5 -5zM180 45q0 -4 3 -4.5t6 -0.5h4q2 0 3 1t1.5 2t0.5 3q0 5 -3.5 7t-7.5 2t-5.5 -3.5t-1.5 -6.5zM67 42v-1q0 -4 3 -6.5t6 -2.5q7 0 7 7q0 3 -2.5 4t-4.5 1
q-3 0 -4.5 -0.5z" />
</svg>
