<?xml version="1.0" standalone="no"?>
<!DOCTYPE svg PUBLIC "-//W3C//DTD SVG 1.1//EN" "http://www.w3.org/Graphics/SVG/1.1/DTD/svg11.dtd" >
<svg xmlns="http://www.w3.org/2000/svg" xmlns:xlink="http://www.w3.org/1999/xlink" version="1.1" viewBox="-10 0 266 256">
   <path fill="currentColor"
d="M180 246l3 3t4 2q3 0 3.5 -2t0.5 -4q0 -9 -1.5 -17t-1.5 -16q0 -6 1 -12l2 -12l2 -12t1 -12q0 -4 -2 -7l-4 -6l-4 -6t-2 -7q0 -6 2.5 -9.5t5 -5t5 -2.5t2.5 -3v-37h11l1 -0.5t1 -1.5v-1l-3 -5t-7.5 -12t-10 -15t-10.5 -14.5t-8.5 -11.5l-3.5 -5h-2h-2q-6 0 -10 4.5
t-7.5 10.5t-6 12t-4.5 9q-3 4 -6.5 7.5t-7 6.5t-6.5 7t-3 9q8 0 12.5 -3.5t7 -8t5 -8.5t6.5 -4q9 0 16.5 1t16.5 1q2 0 4 -1t4 -1q1 0 3.5 2t4.5 5t3 6t1 5l-0.5 0.5t-1.5 0.5q-4 3 -5 6t-1 5.5t-1.5 4t-6.5 1.5q-4 0 -5 -2.5t-1 -4.5q0 -3 -0.5 -5.5t-4.5 -2.5h-1l-0.5 1
t-0.5 2v33q0 3 1 5l2.5 5t3 6.5t1.5 8.5q0 3 -2.5 7t-4.5 7q-1 2 -4 4.5l-3 2.5h-2q-1 0 -2 -2t-2.5 -5.5t-2.5 -7t-2 -5.5v-3v-5v-3.5v-3.5q1 -1 2.5 -3l3 -4t2.5 -3.5t1 -2.5v-34q0 -2 -3 -2h-2h-2h-2q0 1 0.5 2.5t0.5 3.5t0.5 3.5l0.5 1.5v2q0 4 -5 4t-7 -2.5t-2.5 -5
t-1.5 -5t-4 -2.5q-2 0 -2.5 0.5t-0.5 3.5v30q0 3 1.5 4.5t4 2.5t4.5 2.5t2 4.5v22q-4 3 -7.5 7t-3.5 8q0 2 0.5 3.5t2.5 1.5t3.5 -1.5t2.5 -3.5l2 -4t4 -2t3 3v6v2q0 3 -1.5 8.5t-2.5 12t-2 12.5t-1 8v2v2.5v3.5v3q0 2 -0.5 5.5t0 8t1 8t2.5 4.5q0 1 1.5 1.5l1.5 0.5
q1 0 2.5 -2t2.5 -3v-7q0 -9 -1 -17t-1 -16q0 -3 1 -8.5l2 -11t2.5 -10t3.5 -5.5l3 0.5t3.5 0t2.5 -3t4 -3.5l2 -4t3 -2q3 0 4.5 2t2.5 5t1 6v4q0 6 -1.5 10.5t-3.5 9.5q0 4 -0.5 7t-0.5 5.5v5.5v6v15t1 14zM83 241q0 2 1 4t3 2q3 0 5.5 -2.5t3.5 -4.5q0 -11 1 -24t1 -24
v-10.5t0.5 -15.5t0.5 -15.5v-10.5q1 0 2.5 -0.5t2.5 -0.5h0.5h0.5h1.5h0.5q3 15 5 30t3 31q0 1 -0.5 3t-0.5 4q0 3 0.5 5t1.5 3t2.5 1.5t2.5 0.5t2 -0.5t1 -2.5v-10v-9t-0.5 -10t-1.5 -9.5t-3 -7.5v-34l-1 -0.5t-2 -1.5l-1.5 -0.5t-3 -1.5t-3.5 -1.5t-3 -0.5l-1.5 1.5
t-2.5 1.5h-1h-1h-0.5h-0.5l-3 -30q-1 -1 -2.5 -3.5t-3 -5.5l-2.5 -5t-1 -4v-1l9 -19h17q0 -3 -1 -4.5t-3 -2.5t-4.5 -1t-4.5 -1v-1q0 -1 0.5 -2.5t0.5 -3.5t0.5 -3t1.5 -1h12q0 -3 -1 -4.5t-2.5 -2.5t-4 -1t-5.5 -1v-11q0 -2 2 -2.5l4 -1l4 -1t2 -2.5v-1l-1 -1.5t-2 -1.5h-5
t-8 -0.5t-7.5 -0.5h-5.5h-1q-9 0 -14 4.5t-8 11t-4 14.5t-1 15t2.5 11t5 6.5t4.5 4t2 3.5q0 5 -3.5 9t-8.5 7t-8.5 5.5t-3.5 6.5q0 2 1 3.5t3 1.5q3 0 7 -3.5t7.5 -8t7 -8t6.5 -3.5q1 0 2 1.5l2 3t1.5 3t0.5 2.5q0 6 -5 11.5t-11.5 10.5t-12.5 10t-7 10q-1 0 -1 1
q0 3 1.5 3.5t3.5 0.5q5 0 9.5 -4.5t9 -10.5t8.5 -11t8 -5q1 0 2 2t1.5 4.5l1 5t0.5 3.5v3v2l-11 11t-9 12q-2 3 -5.5 9t-7.5 13t-7 12.5t-3 6.5q0 2 2 2.5t4 0.5t5.5 -3.5t6.5 -9.5t6.5 -12.5t6 -12.5t5 -9.5t3.5 -3.5q2 0 3 2t1 3v1q-1 15 -2.5 30t-3.5 31q-1 5 -2 10.5
t-1 10.5zM174 101h11q1 0 1.5 0.5t0.5 1.5v1.5v2.5q0 3 -0.5 6.5t-4.5 3.5q-3 0 -4.5 -1.5t-2.5 -4t-1 -5.5v-5zM137 104q0 -2 2 -3t3 -1q5 0 6.5 1.5t1.5 5.5q0 3 -1 5t-4 2q-4 0 -6 -3t-2 -7zM69 59h3h5.5t4.5 1.5t2 3.5q1 4 -1 7.5t-6 3.5q-3 0 -4.5 -2t-2.5 -4.5t-1 -5
v-4.5zM67 45v-3q0 -1 2 -2h8h3.5t5 0.5t4.5 2t2 3.5q0 3 -1.5 4t-3.5 2t-4.5 1h-3.5q-4 0 -8 -1.5t-4 -6.5zM150 46q0 -2 1.5 -4.5l3 -5t3.5 -4.5l3 -3h1q3 0 4 2.5t2 4.5q1 0 2 1.5t2.5 3.5t3 3.5l1.5 1.5v1q0 2 -1 3t-3 1h-4t-8 -0.5t-7.5 -2t-3.5 -2.5zM73 28
q0 -3 1.5 -4.5t3.5 -2.5t4.5 -1h4.5q5 0 5.5 3t0.5 7q0 3 -1.5 3.5t-3.5 0.5h-4t-5 -0.5t-4 -2t-2 -3.5z" />
</svg>
