<?xml version="1.0" standalone="no"?>
<!DOCTYPE svg PUBLIC "-//W3C//DTD SVG 1.1//EN" "http://www.w3.org/Graphics/SVG/1.1/DTD/svg11.dtd" >
<svg xmlns="http://www.w3.org/2000/svg" xmlns:xlink="http://www.w3.org/1999/xlink" version="1.1" viewBox="-10 0 266 256">
   <path fill="currentColor"
d="M75 246q1 2 2 3.5t3 1.5q3 0 6 -4q2 -20 3 -41t0 -42l2 -2.5t4 -4.5l4 -4t3 -2q2 0 3.5 1t1.5 3q0 16 -2.5 31t-2.5 30v4q1 1 2 1.5t2 0.5v0q2 0 5 -2t3 -3q0 -3 0.5 -11.5t0.5 -17.5t0.5 -17t0.5 -12v-3v-5q0 -4 -1 -7.5t-6 -3.5t-8.5 2.5t-5.5 2.5h-1q-1 -5 -2.5 -10
t-4 -10t-4 -9.5t-1.5 -8.5v-1.5v-0.5q0 -3 1 -6t2 -6.5t1.5 -6l0.5 -2.5l2 -1l2 -0.5t4.5 -0.5t4.5 -0.5l2 -0.5q1 -1 4.5 -1.5t2.5 -3.5q0 -1 -1.5 -2l-1.5 -1h-12q-2 0 -2 -1.5v-1.5v-2q1 -1 2 -4t1 -4q1 0 3 -0.5t3.5 -0.5t3.5 -0.5l2 -0.5q2 0 3.5 -0.5l1.5 -0.5
q1 -1 1.5 -3.5l0.5 -2.5h-15l-0.5 -1.5t-1 -3.5t-0.5 -4v-1q0 -4 3.5 -5t7 -1.5t7 -1.5t3.5 -4q0 -2 -0.5 -3t-3.5 -1h-6.5t-4.5 1t-4.5 2t-6.5 2q-8 2 -15 3.5t-12 4.5t-7.5 8.5t-2.5 14.5q0 3 1 8.5t2 11.5t2 11t2 6q0 1 1.5 3l1.5 2q1 1 0 3.5t-2 3.5q-2 2 -6 5.5l-8 7
t-6.5 7t-2.5 8.5q6 0 10 -2t7 -5.5l6 -7t7 -7.5h1.5h0.5q2 0 3 1t1.5 3t0.5 3.5v3.5v0q0 1 -1 3l-1 2l-28 27q0 1 -0.5 2t-0.5 2t0.5 2.5t0.5 2.5l0.5 0.5l0.5 0.5q5 0 9 -4.5t8 -9.5t7 -9.5t7 -4.5q2 0 2.5 1.5t2.5 4.5v0q0 6 -3 12t-8 11.5t-10.5 11t-10 10.5t-8 9t-3.5 6
t1.5 3.5t3.5 1.5q4 0 7.5 -4.5t7 -10l7 -11t7.5 -6.5q1 0 2.5 0.5t1.5 1.5l0.5 1.5t0.5 3.5v3.5v2.5t-0.5 2t-1 3t-1 3t-0.5 2q-1 7 -1.5 15t-0.5 14v3v4v4v3zM140 209q1 0 6 0.5t10.5 1t10 1t6.5 0.5h0.5h1.5h0.5h0.5h2.5t3 -0.5t3 -0.5h1.5h8h9.5t8 -2t3.5 -7
q0 -2 -0.5 -3t-3.5 -1q-6 0 -12 1.5t-13 1.5h-9h-15h-15h-9h-3t-4 0.5t-4 0.5t-3 1l-0.5 0.5t-1.5 0.5v1q0 2 2 4t4 2h1v0q1 0 2.5 -0.5t3 -0.5t3 -0.5t2.5 -0.5zM141 168q0 6 3 12t10 8h3t5 0.5t5 0.5h3q8 0 14.5 -1.5t11 -5t7 -9t2.5 -14.5q0 -5 -2.5 -8.5t-6 -5.5t-8 -3
t-9.5 -1q-7 0 -14 1t-12.5 4t-8.5 8t-3 14zM153 172v-2t1 -2t3.5 -1.5t5.5 -0.5h5h4h4h6.5t6.5 0.5t4 1.5l0.5 1l0.5 1q0 4 -3 6t-7 3t-8 1h-7h-5t-5.5 -0.5t-4 -2.5t-1.5 -5zM153 157q0 -3 2 -5t5 -2.5t6.5 -1t5.5 -0.5h5q4 0 7 1t5 2.5t2 4.5v2t-1 1h-36l-0.5 -0.5
l-0.5 -0.5v-1zM126 104q0 6 1.5 9.5t4 6t6.5 5t8 5.5q1 0 3 0.5t4 0.5h4h2h4h4t4 -0.5l2 -0.5h1.5t3.5 -1t3.5 -1.5l1.5 -0.5q10 -2 15.5 -4t8 -5t3 -9t0.5 -17v-2v-3.5v-3.5v-2q-1 -6 -5.5 -7.5t-9.5 -4.5h-13q-10 0 -20 1t-18.5 4.5t-13 10.5t-4.5 19zM137 94
q0 -8 4.5 -11.5t11 -5t13.5 -1.5h12q2 0 5 0.5t6.5 1t6.5 1.5t4 4v8q0 3 -0.5 8t-1.5 10t-4 8.5t-8 3.5h-37q-3 0 -5.5 -4t-3.5 -9t-2 -9.5zM151 101q0 3 2 5t4.5 3t5.5 2t5 1q4 0 7.5 -0.5t6.5 -2t4.5 -3.5t1.5 -6t-1.5 -6.5t-4.5 -4t-6.5 -2t-7.5 -0.5q-7 0 -12 3t-5 11z
M163 99q0 -3 2 -4t5 -1t5 1t2 4q0 2 -3.5 4t-5.5 2q-3 0 -4 -2t-1 -4zM70 89q0 -1 1.5 -3t2.5 -2h1q1 0 2 1.5t2 1.5q-1 2 -2 2.5t-3 0.5h-2.5t-1.5 -1zM67 69q0 -9 12 -9q1 0 2 0.5l3 1.5v4q0 10 -11 10h-2.5h-1.5q-2 -1 -2 -2.5v-4.5zM121 50q2 3 3 4t3 1q3 0 7 -1t8.5 -2
t9 -3t6.5 -3h23q3 1 7 2.5t9 2t9 1t7 0.5q2 0 3 -0.5t1 -2.5q0 -4 -5.5 -6t-12.5 -3t-13.5 -1.5t-9.5 -0.5q-2 -1 -2.5 -2.5t-0.5 -2.5q0 -3 1 -5.5t1 -5.5q0 -5 -1.5 -7t-6.5 -2h-3t-3 2v23l-2 1q-3 1 -8.5 2t-11.5 2t-11 3t-7 4zM69 52q2 -4 6 -7.5t9 -3.5h2q0 1 0.5 3.5
l0.5 2.5v1v0q0 4 -3.5 5t-6.5 1h-4.5t-3.5 -2z" />
</svg>
