<?xml version="1.0" standalone="no"?>
<!DOCTYPE svg PUBLIC "-//W3C//DTD SVG 1.1//EN" "http://www.w3.org/Graphics/SVG/1.1/DTD/svg11.dtd" >
<svg xmlns="http://www.w3.org/2000/svg" xmlns:xlink="http://www.w3.org/1999/xlink" version="1.1" viewBox="-10 0 266 256">
   <path fill="currentColor"
d="M130 246q0 1 0.5 2t1.5 1h1q1 0 2.5 -1t3.5 -1.5t3.5 -1.5t2.5 -1q1 -2 3.5 -7.5t5 -11.5t5.5 -11t4 -7q2 -3 2.5 -4t3.5 -1h1h1q1 1 2.5 4.5t4 8.5t5.5 10.5t5.5 10.5t4.5 8t3 3h5q3 0 5.5 -0.5t2.5 -4.5t-5 -11t-11 -14.5t-12 -15.5t-8 -14q-1 -4 -1.5 -12t-0.5 -13v-4
v-5t0.5 -5.5t1.5 -3.5q0 -1 1.5 -2.5t2.5 -3t2.5 -3t1.5 -2v-1.5v-4v-3.5v-2.5l0.5 -2t0.5 -3.5t0.5 -3.5l0.5 -2v-11v-11q0 -2 -2 -2h-4h-3v6q0 3 -1 6t-3 5t-6 2q-5 0 -6.5 -3t-2 -6.5t-1.5 -6.5t-3 -3h-0.5h-0.5l-1.5 1.5l-0.5 0.5v37q0 3 1 5.5t2.5 4t3.5 2.5t5 3
q1 0 1.5 4t1 8.5t0.5 9v6.5v4v2q0 1 -0.5 2t-0.5 2t-0.5 2l-0.5 1q0 1 1 3l1 2q0 6 -4 13.5t-9.5 15.5t-11 15.5t-8.5 12.5v0.5v1.5zM83 240q0 4 2.5 5t4.5 1q4 0 6 -2.5t2 -6.5v-88q0 -3 3.5 -6t6.5 -3q2 0 2.5 0.5l1.5 1.5q-1 10 -0.5 19t1 18.5t0.5 19v18.5q0 1 1 2t1 2
h1q4 0 5.5 -3t1.5 -7q0 -18 -1 -37.5t-2 -37.5q-2 -4 -4.5 -5t-5.5 -1h-6t-6 -1q-1 0 -2 -2l-2 -4t-1.5 -3.5t-0.5 -2.5q-2 -2 -4.5 -4t-5.5 -3.5t-5 -3.5t-2 -5v0q1 -2 3 -5.5l4 -7t3.5 -6l1.5 -2.5h16q2 0 2 -2v-3q0 -3 -2.5 -4t-6 -2t-6 -2.5t-2.5 -5.5q0 -5 2 -7
t4.5 -2.5t5.5 -1.5t5 -4q-1 -3 -3.5 -4t-4.5 -1.5t-3.5 -2t-1.5 -5.5q0 -6 3 -8t6 -2.5l6 -1t3 -3.5q0 -2 -1.5 -3.5t-4 -2.5t-5 -1h-3.5h-12t-11.5 2t-10 5t-6.5 9q-5 12 -6 22.5t-1 22.5q0 7 0.5 14t4.5 13l0.5 1t1.5 2l2 2t1 2q0 3 -3.5 6t-7.5 6.5t-7.5 7.5t-3.5 8
q0 3 3 3q4 0 5 -1l20 -20h8q1 0 1.5 1t0.5 2v1q0 3 -5 9t-10.5 12t-10.5 12.5t-5 12.5v2v1.5t1 1t2 -0.5q2 -1 7 -8t11 -14t10.5 -13t5.5 -6q2 0 3.5 1.5t2.5 4t1.5 4.5t0.5 4q0 3 -2 6t-4 5.5t-4.5 4.5t-5.5 5q-2 4 -6 9t-7.5 11t-6.5 11.5t-4 10.5v2q0 3 0.5 3.5t3.5 0.5
q6 0 11 -6t8.5 -14.5l7 -17t7.5 -12.5h1v0l2 2v4v6.5v6.5v4q0 13 -0.5 25t-4.5 26l-1 2zM140 158v44q0 3 0.5 3.5t2.5 0.5q1 0 2 -0.5t1 -1.5q1 -3 2 -7.5t1 -8.5t0.5 -8t0.5 -7q0 -2 -1 -4.5l-2 -5t-3 -4t-4 -1.5zM188 199q0 2 2 2h4q3 0 4.5 -1t2.5 -4q-1 -3 -1.5 -9.5
t-2 -13.5t-3.5 -12.5t-6 -5.5q-2 0 -3 1t-1 4q0 1 0.5 2.5l0.5 1.5q0 2 0.5 7t1 10.5t1 10.5t0.5 7zM128 143v2t2 2q3 0 5 -3.5t3 -6.5q1 -11 1.5 -19t0.5 -18q0 -8 -2 -10.5t-10 -2.5q0 4 2 8t2 9q0 4 -2.5 5.5t-5.5 3t-5.5 3t-2.5 4.5q0 2 1.5 3t3.5 1h1l2 -1.5t2 -2.5h1
h1q5 4 5 10q0 2 -1 3.5t-1.5 3t-1.5 3t-1 3.5zM191 107q0 9 1 18.5t6 16.5q0 1 1.5 3l1.5 2h15q1 0 1.5 -1t0.5 -2q0 -4 -2.5 -5.5t-5.5 -3t-5.5 -3t-2.5 -4.5t3 -4t6 -0.5t5.5 0t2.5 -4.5q0 -5 -3 -6.5t-6.5 -2t-7 -1.5t-3.5 -5v-1v-1l0.5 -2t1 -4.5t1 -4t0.5 -2.5
l0.5 -0.5l0.5 -0.5l-1 -1l-3 -3t-4 -2h-1q0 1 -0.5 1.5l-0.5 0.5q-1 4 -1.5 6.5t-0.5 5v5.5v6zM153 125q0 -3 1 -5t3 -3t4.5 -1h5.5t5.5 1t2.5 4t-1.5 6.5t-4.5 4.5h-2h-3q-5 0 -8 -0.5t-3 -6.5zM62 89q0 -4 3.5 -6t7.5 -2v4t-1 4t-2 3.5t-3 1.5t-3.5 -1.5t-1.5 -3.5zM60 70
v-3l0.5 -2t0.5 -3.5t0.5 -3.5l0.5 -2q2 -2 4 -2h5h6q2 0 2 2.5v3.5q0 6 -4.5 10t-11.5 4q-2 0 -2.5 -1t-0.5 -3zM145 47v4t0.5 6.5t0.5 6v3.5q1 4 3.5 5.5t6 2t7 0t6.5 -0.5h9q4 -2 5.5 -7.5t2 -11t1 -9.5t2.5 -4h2l2.5 0.5t4.5 1t4 0.5h2h1q2 0 3.5 -0.5t3.5 -1t3 -2
t1 -3.5t-3 -3t-7.5 -1t-9 -0.5t-7.5 -1.5v-6t-1 -5.5t-3 -4.5t-6 -3q-1 0 -2.5 1.5t-1.5 2.5v4v6t-0.5 5.5t-3.5 4.5h-6h-7q-1 -1 -3 -1.5l-2 -0.5v-12q0 -2 -1.5 -2.5t-3.5 -0.5q-1 0 -2.5 0.5t-1.5 1.5v15h-22q-1 0 -2.5 2t-3.5 3v0v1v0v0q4 5 10 5v0h3.5t4.5 -0.5
t4.5 -0.5h2.5zM173 42q2 2 2.5 4.5t0.5 5.5q0 4 -2 6.5t-5.5 4t-8 1.5h-7.5v-17q0 -1 1 -1.5t3 -1t3.5 -0.5h2.5t5 -0.5t5 -1.5zM63 41l0.5 -1.5l1 -3t1.5 -3t1 -2.5q1 -3 4.5 -5t6.5 -2q2 0 3 1.5t1.5 3.5t1 3.5t-0.5 3.5l-1 2t-2 3l-0.5 0.5l-0.5 0.5h-14z" />
</svg>
