<?xml version="1.0" standalone="no"?>
<!DOCTYPE svg PUBLIC "-//W3C//DTD SVG 1.1//EN" "http://www.w3.org/Graphics/SVG/1.1/DTD/svg11.dtd" >
<svg xmlns="http://www.w3.org/2000/svg" xmlns:xlink="http://www.w3.org/1999/xlink" version="1.1" viewBox="-10 0 266 256">
   <path fill="currentColor"
d="M80 245q1 3 2 4.5t4 1.5h2.5t1.5 -3q-1 -15 0 -30t6 -30q3 -9 5.5 -17t2.5 -18q0 -4 -1 -12.5t-3.5 -16.5t-6.5 -14t-11 -6t-12.5 4.5t-8.5 11t-4.5 14.5t-1.5 14q0 5 0.5 11t0.5 12.5t0.5 12.5t1.5 11l1.5 0.5l1.5 0.5h1v0q1 0 2.5 -0.5l1.5 -0.5v-21l0.5 -0.5l1.5 -1.5
v0v0h1l10 10l1 -0.5t2 -1.5v-1v-2q0 -5 -3 -8.5l-6 -7t-6 -7.5t-3 -9q0 -3 0.5 -5.5t3.5 -2.5q2 0 4.5 1t5 3.5l4.5 4.5t3 4q3 0 3 -1.5v-2.5q0 -5 -3 -7.5t-6.5 -5t-6.5 -4.5t-3 -5q0 -4 3.5 -7t6.5 -3q7 0 10 4.5t4.5 10.5t2 12.5t0.5 10.5q0 11 -2.5 20.5t-5.5 19.5
t-5.5 19.5t-2.5 20.5v2v4v4v3zM163 235q0 2 0.5 4.5t2.5 2.5t3 -1.5t2 -3.5t1.5 -3.5t1.5 -3.5v-37q0 -1 0.5 -4.5t0.5 -5.5v-56q0 -8 3 -11.5t7.5 -4t10.5 0t13 0.5h1t3 -1t3 -2t1 -2v-0.5v-0.5l-2 -2l-1 -1h-36l-1 -2v-2v-4t-0.5 -4t0 -5.5l1 -5t2.5 -3.5l2 -1t4.5 -2
t4 -2t2.5 -2l1 -1q5 -11 6 -22.5t1 -23.5v-9q-1 -2 -2.5 -2.5t-3.5 -0.5h-2q-2 0 -2 1q0 6 0.5 12t1 12.5t-0.5 12.5t-3.5 10.5t-7 7t-11.5 2.5q-2 0 -4.5 -0.5t-5.5 -1.5t-5 -3t-2 -5l-3 -40q0 -2 -1 -3t-2 -1q-3 0 -5 4v5q0 12 2 23.5t3 22.5q2 5 4.5 5.5t5 0.5t5 -0.5
t4 1t2.5 6t1 14.5v3v3l-3 2h-5.5h-7.5t-7.5 0.5t-4.5 0.5h-4q-2 0 -4 0.5t-4 1.5t-2 3q0 1 0.5 2t1.5 1h35l2 2v5v9.5v10.5v8v12v16v15v8q0 1 -0.5 5.5t-1 10t-1 10.5t-0.5 6v3zM42 124q0 1 1 1.5t2 0.5q3 0 4 -3t1.5 -7.5t0.5 -10v-10t1 -8t3 -3.5q5 -3 9 -4.5t8 -2t8 -0.5
h9h2.5h3.5h5h2q3 1 5 3.5t2.5 5t0.5 5.5v5t0.5 5.5t0.5 7t0.5 7t0.5 5.5l1 0.5t2 0.5q3 -1 4.5 -4.5t1.5 -6.5q0 -9 -2 -20t-6 -19q-1 0 -4 -0.5t-6.5 -1t-6.5 -1t-5 -0.5q-1 0 -3 -0.5t-3 -1.5v-4v-4q0 -2 -0.5 -5.5t0.5 -6.5t3 -5t5 -2q4 0 6 1.5t3 4t1.5 5.5t0.5 7h1h1
q4 0 5.5 -3t1.5 -7v-8t-1 -12.5t-3 -11.5t-5 -5h-5h-5q-14 0 -23 1.5t-13 6.5t-5.5 14t-1.5 23q0 2 1.5 2.5t3.5 0.5q1 0 2.5 -1t2.5 -2q1 -4 1 -9.5t0.5 -10.5t2.5 -9.5t7 -5.5q2 -1 4.5 -1.5t5.5 -1l6 -1t5 -0.5q4 0 7.5 3t3.5 8q0 3 -3.5 3.5t-8 0.5t-8.5 1t-5 5
q0 2 -0.5 5t-0.5 6.5t-0.5 7t-0.5 4.5t-0.5 4t-1.5 4l-0.5 0.5l-0.5 0.5q-1 0 -3.5 1t-5.5 1.5t-5.5 0.5t-3.5 1q-5 1 -7.5 3.5t-3.5 6.5t-1.5 8.5t-1.5 8.5q0 1 -1 3l-1 2q0 1 1 2.5t1 2.5v13z" />
</svg>
