<?xml version="1.0" standalone="no"?>
<!DOCTYPE svg PUBLIC "-//W3C//DTD SVG 1.1//EN" "http://www.w3.org/Graphics/SVG/1.1/DTD/svg11.dtd" >
<svg xmlns="http://www.w3.org/2000/svg" xmlns:xlink="http://www.w3.org/1999/xlink" version="1.1" viewBox="-10 0 266 256">
   <path fill="currentColor"
d="M85 248q1 2 1.5 2h2.5q1 0 4 -1t3 -4v-31q4 -4 7.5 -9t6.5 -10t5 -10.5t2 -11.5q0 -3 -1.5 -10t-3.5 -15t-5 -15.5t-6.5 -14.5t-7.5 -11t-9 -4q-10 0 -16 7.5t-9 18t-4 21.5t-1 18v7t1 10t2.5 8.5t4.5 3.5t4 -1.5t1 -3.5q0 -8 -1 -14.5t-1 -14.5q4 0 6.5 4t4.5 8.5t4 8
t5 3.5t4 -2t1 -4q0 -6 -4 -10.5t-9 -8.5t-9 -8.5t-4 -10.5q0 -2 1 -4.5t4 -2.5h0.5h0.5l2.5 2.5l3.5 3.5l3.5 3.5l2.5 2.5t2.5 4t3 6.5t3.5 5.5t4 2t2 -2.5v-3.5q0 -7 -4 -12t-8.5 -10t-8.5 -8.5t-4 -8.5q0 -3 3.5 -6t6.5 -4q9 8 13.5 17t7.5 20q1 2 1.5 3.5t0.5 2.5
t0.5 2.5t2.5 2.5v22q-10 13 -16.5 29t-6.5 33v2.5v2.5zM193 107v1q0 1 -0.5 3.5l-1 5t-0.5 4.5v2l-1 3t-1 4q-3 20 -7 40.5t-11 40.5q-1 2 -2.5 6t-2.5 8t-2 7l-1 3v7q5 0 10 -9t9.5 -22.5t8 -30t5.5 -31.5t3.5 -26t1.5 -15v-5v-6q0 -4 -0.5 -7t-1.5 -5q-1 -1 -3 -3.5
t-4.5 -5.5t-4 -6.5t-1.5 -6.5v-4q0 -2 0.5 -4.5t1 -4.5t1.5 -2h18q1 0 2 -1.5t2 -2.5v-0.5v-0.5v-0.5v-0.5l-1 -1.5l-1 -1.5h-9q-8 0 -15.5 1t-15.5 2q-11 2 -22 1.5t-22 1.5q-2 1 -3.5 2t-1.5 3q0 1 0.5 1.5t1.5 0.5h11q1 0 1.5 1t0.5 2v1.5v1.5q0 9 -2.5 18t-2.5 18v3
q0 1 0.5 5.5t1.5 9.5t1.5 9.5t1.5 6.5q1 3 4 4t5.5 2.5t5.5 3t5 3.5v2v4v3v3q0 10 -2.5 20.5t-6 21t-8.5 20.5t-10 19v2q7 0 10.5 -3t5.5 -7.5t3 -9.5t3 -10q2 -7 5 -13.5t4 -13.5q4 -14 5 -27.5t1 -27.5q0 -12 -3 -24t-3 -24q0 -7 2.5 -12t4.5 -12q2 -1 3.5 -1.5t3.5 -0.5
q5 0 5 5v1v1q-1 2 -1.5 6l-1 8t-1 7t-0.5 4q0 3 -1 5t-2 3.5t-1.5 3.5t-0.5 5q5 0 6.5 -2.5t2 -6t1 -6.5t4.5 -4l1 0.5t2 1.5q2 2 3.5 5t2.5 7t1 7v6zM143 117v-1.5v-0.5l12 -12l1 3v24l-0.5 0.5l-0.5 0.5h-1q-3 0 -5 -1.5t-3 -3.5t-2 -4.5t-1 -4.5zM104 25q0 4 -2 5.5
t-5.5 2l-7 1t-6.5 1.5q-3 3 -4 8t-0.5 10t0.5 9.5t-2 5.5q-4 2 -9.5 2.5t-10.5 2t-8 4.5t-3 10v25q2 0 5.5 -2t3.5 -5v-22l6 -5h2t5 -0.5t6 -0.5h5h2h5t5.5 -0.5t4.5 -0.5q1 0 2.5 0.5t3.5 0.5h3h1l3 1v31h1q2 0 3 -0.5l2 -1t2 -1.5v-13v-11t-2 -10q-1 -3 -5 -3t-9 -0.5
t-8.5 -1t-3.5 -3.5v-19q0 -2 2 -3.5t4.5 -2t5 0t3.5 0.5v17q0 1 2.5 1.5l2.5 0.5q2 0 3 -0.5t1 -3.5v-38q0 -2 -1.5 -3.5t-4 -2t-5 -0.5h-3.5h-13t-13.5 2t-11.5 6t-6 12v3.5v8t-0.5 9t-0.5 7.5v2q0 1 1 2.5t3 1.5q5 0 6 -3.5t0.5 -8.5t-0.5 -11t2.5 -11t9.5 -8.5t20 -3.5h6
q2 1 2 3v3zM138 103v-2.5v-3.5q0 -10 1 -20.5t4 -21.5q1 -3 3 -3h4q5 0 5.5 1t0.5 6l-0.5 3.5t-1 8.5t-2 11t-3 11t-3.5 8.5t-4 3.5h-2t-2 -2zM138 23q0 3 1.5 3.5t4.5 0.5q6 0 12.5 -0.5t13 -1.5t13 -1.5t11.5 -1.5q1 0 3 -1t2 -3q0 -4 -3 -4h-5h-3h-2q-3 0 -10 1t-14.5 2
t-14 2t-9.5 2v1v1z" />
</svg>
