<?xml version="1.0" standalone="no"?>
<!DOCTYPE svg PUBLIC "-//W3C//DTD SVG 1.1//EN" "http://www.w3.org/Graphics/SVG/1.1/DTD/svg11.dtd" >
<svg xmlns="http://www.w3.org/2000/svg" xmlns:xlink="http://www.w3.org/1999/xlink" version="1.1" viewBox="-10 0 266 256">
   <path fill="currentColor"
d="M161 220q0 3 2 8.5t5.5 10t7.5 8t7 3.5q2 0 3 -1.5t1 -2.5v-2q-2 -2 -5.5 -5t-6 -6t-4 -6t-1.5 -7q0 -3 2 -7t6 -4h1.5t1.5 1q0 1 1.5 3.5t3 5.5t3 5.5t1.5 3.5q1 1 2.5 3.5t3.5 5t3.5 4.5t4.5 2q5 0 5 -6q0 -2 -3.5 -5.5t-7 -8.5l-7 -10t-3.5 -9q0 -3 1 -4.5t2.5 -3
t2.5 -3t1 -3.5q0 -4 -1 -7.5t-2.5 -6.5l-3 -6t-1.5 -7q0 -2 1 -4.5t2 -4.5t2 -4.5t1 -5.5v-39q0 -4 -2.5 -6t-5.5 -3l-6 -2t-3 -3v-13q0 -1 1.5 -2t3.5 -1.5t4 -0.5h3h2.5h2.5q1 2 2 3t3 1q1 0 2 -0.5t1 -2.5v-2v-4v-4v-2v-7v-5.5t-1 -5t-2 -7.5q0 -1 -1.5 -3.5l-1.5 -2.5
h-29l-3 -20l-1 -0.5t-1.5 -1t-1.5 -1l-1 -0.5q-1 1 -3.5 2.5t-2.5 2.5v19q0 1 -3.5 2t-8 3t-9 5t-4.5 9q0 1 -0.5 4t-0.5 7.5v9v7.5q-1 0 -1 2v1q0 1 0.5 2.5t2.5 1.5t3.5 -1.5t2.5 -3t2.5 -3t4.5 -1.5h2.5h1.5q2 4 2 7v7v3v1l-9 9q0 6 -1.5 13t-1.5 13q0 4 0.5 9t1.5 9.5
t3.5 8.5t6.5 7v3v4v2v3t-0.5 3.5t-1.5 1.5l-18 20q-2 1 -2.5 4.5t-0.5 7v7v5.5v11q1 2 2 4.5t4 2.5t4.5 -1t1.5 -4q0 -5 -0.5 -9.5t-0.5 -9.5v-11q1 -4 3.5 -7t5 -5.5t5.5 -5t6 -6.5q2 -2 2 -5.5t-0.5 -6.5t1 -5.5t5.5 -2.5q7 0 11 1.5t6.5 4.5t4 7.5t2.5 9.5v1v1l-0.5 1
t-0.5 2q-4 2 -8 4.5t-8 6t-6.5 7.5t-2.5 9zM84 241l0.5 1.5t1.5 3t2 2.5t2 1q3 -1 4.5 -3.5t1.5 -5.5v-1v-1l-0.5 -1.5l-1 -3t-1 -2.5t-0.5 -2v0q0 -11 2.5 -20t6.5 -19q2 -3 4 -5.5t3 -6.5v-3v-3v-4v-3q0 -5 -0.5 -14.5t-3 -18.5t-7 -16t-12.5 -7q-11 0 -16 6.5t-6.5 16
t-1.5 19v15.5q0 7 2.5 13.5t4.5 13.5q1 1 3.5 1h4.5q0 -7 -2.5 -13.5t-2.5 -14.5q5 0 7 2t3.5 4t3 5t4.5 5q3 -2 3 -5t-3 -7.5t-7 -8.5l-7.5 -7.5t-3.5 -4.5q-1 -1 -0.5 -3.5t0.5 -3.5q2 0 3 -0.5t3 1.5l3 3t4.5 4t4.5 4.5t3 3.5h1h1l0.5 -0.5t0.5 -1.5v-0.5v-0.5v-0.5v-0.5
q-1 -1 -2 -3l-1 -2l-20 -22v-0.5v-1.5q0 -2 1.5 -3.5t3 -2t4 -1t4.5 -0.5q5 0 8 6t4.5 14.5t2 16t0.5 10.5q0 6 -1 10t-2 7t-3 6.5t-5 8.5q-4 8 -5 17t-1 18v9zM145 149q0 -3 4.5 -5t10.5 -2.5t11 -0.5h7h3.5t2.5 2q0 7 -5 10t-11 3h-6t-6 -0.5t-6 -1.5t-5 -4v-1zM144 128
v-2.5t1 -1.5q5 -1 8.5 -2t6.5 -1h6h7h10l1 2t2 2v1q0 4 -4.5 6t-10.5 2.5l-12 1t-9 0.5h-5q-1 -3 -1 -4.5v-3.5zM51 98v2q0 1 0.5 3t0.5 4.5t0.5 4.5t0.5 3h1.5h1.5q2 0 2.5 -1t0.5 -4q0 -1 0.5 -3.5t0.5 -5.5t0.5 -5.5t0.5 -4.5q3 -3 7.5 -5.5t9.5 -3.5t10 -1.5t10 -0.5
h1.5t3 0.5t2.5 1t1 1.5v26l1 0.5t2 0.5v1q5 0 5.5 -3.5t0.5 -5.5q0 -6 -0.5 -11.5t-1.5 -12.5q0 -1 -1.5 -1.5l-3 -1t-4.5 -1t-6.5 -1t-6.5 -1t-4 -0.5q-1 -2 -1.5 -4.5t-0.5 -5.5v-6q2 -2 5.5 -4t6.5 -2t4 2t1 4.5t0.5 5t2.5 2.5v0l2 -2t2 -1v-13v-9t-1.5 -7t-4.5 -5t-9 -2
q-13 0 -20.5 2.5t-10.5 7.5t-3.5 13.5t-0.5 19.5q5 0 6.5 -2.5t2 -6.5t0.5 -8q0 -5 2 -9t8 -6.5t17 -2.5q2 0 4 2t2 3q0 3 -2.5 4.5t-6 2t-7.5 2t-6 4t-2 5.5t0.5 6.5t0.5 6.5t-2 6t-6 3.5l-8 1t-7.5 4.5t-3.5 14zM145 111q0 -4 3 -6t7 -3t8 -1h7t5.5 0.5l5 1t4 2.5t1.5 5
q0 2 -5 3t-11 1.5t-11.5 0.5h-7.5q-3 0 -4.5 -0.5t-1.5 -3.5zM155 95q0 -1 -0.5 -3t-0.5 -4t-0.5 -4t-0.5 -3v-1v0q0 -1 0.5 -4t0.5 -6t0.5 -5.5t0.5 -3.5v-1q0 -3 -0.5 -6t-2.5 -5l-4 3v15q0 2 -3 2h-4h-3.5t-2.5 -2v-6q0 -6 1 -9.5t6 -7.5q8 -1 15.5 -2.5t15.5 -1.5
q12 0 16.5 4t4.5 17l-0.5 2t-1.5 2h-15v-14q0 -1 -1.5 -2t-2.5 -2v0h-1l-2 2l-2 2q1 3 1 9t-0.5 12.5t-1.5 12.5t-3 10q-1 1 -2.5 1h-2.5h-3t-1 -1z" />
</svg>
