<?xml version="1.0" standalone="no"?>
<!DOCTYPE svg PUBLIC "-//W3C//DTD SVG 1.1//EN" "http://www.w3.org/Graphics/SVG/1.1/DTD/svg11.dtd" >
<svg xmlns="http://www.w3.org/2000/svg" xmlns:xlink="http://www.w3.org/1999/xlink" version="1.1" viewBox="-10 0 266 256">
   <path fill="currentColor"
d="M159 240q0 4 1 8t5 4q2 0 3 -0.5t2 -2.5q0 -16 1 -28.5t4 -23.5t8.5 -21.5t15.5 -22.5v-9q-5 0 -9 2.5t-6 6.5t-4 8.5t-4 9.5q-3 5 -5 9t-4 10q-1 2 -2 5.5t-1.5 7t-1.5 6.5l-1 3v2v4v5v2v3t-0.5 4.5t-1 4.5t-0.5 3zM58 205v9t0.5 12t2 10.5t4.5 4.5t4.5 -1.5t2 -4
t0.5 -5.5v-5q0 -11 -2 -21t-2 -21v-2q0 -2 0.5 -4.5t0.5 -4.5v-3q2 -4 3 -9t1.5 -9.5t1.5 -9.5l2 -10q1 -1 3.5 -6t5 -11t5 -10.5t2.5 -6.5q1 0 1 -1.5t0.5 -4t1 -4t1.5 -1.5q0 -1 0.5 -1.5l0.5 -0.5h13l3 3v3.5v4.5v5v3q1 4 3 7t4.5 6t4.5 6t3 6q3 11 4 21.5t1.5 21.5
t0.5 21.5v21.5v14q-1 2 -1.5 3.5t-0.5 3.5t1 3.5t3 1.5t3 -0.5t2 -1.5q0 -5 0.5 -8.5t0.5 -6.5t0.5 -6t0.5 -6q0 -20 -1.5 -40t-5.5 -40q-1 -7 -3.5 -11.5t-5.5 -9t-5 -9.5t-2 -13q0 -2 2 -4.5t4 -2.5h16q4 0 4.5 -3t0.5 -5h-23q0 -3 -0.5 -5t-0.5 -3.5t0.5 -3t2.5 -3.5
q0 -1 1.5 -2t3 -2.5l3 -3l1.5 -1.5l3 -3t3.5 -4t2.5 -3.5l1 -1.5v-4q-4 0 -7 3t-5.5 6t-5.5 6t-7 3t-6.5 -3.5t-5.5 -7t-6.5 -6.5t-9.5 -3v3l1.5 1.5t3.5 4t4 4.5l3 3t2 2.5t2.5 2.5t3 2.5l1.5 1.5v8v7q0 1 -0.5 2l-0.5 1h-15q-1 0 -2 -2.5l-1 -2.5l-0.5 -1t-1 -2.5l-1 -3
l-0.5 -1.5q-2 -4 -4.5 -7t-4.5 -5.5t-4 -5.5t-2 -8v-7q4 -5 9 -6.5t11 -2t11.5 0t11.5 0.5q1 0 5 -0.5t7.5 -0.5t7 -0.5t5.5 -0.5l0.5 -1t0.5 -2v-1q0 -1 -1 -2t-3 -1.5t-3.5 -1t-2.5 -0.5l-2 0.5t-4 0.5t-3.5 0.5t-2.5 0.5h-5h-10h-10h-6q-3 0 -7 1t-8 2.5t-6.5 4.5t-4.5 6
v4.5v3.5q0 8 3 12.5t7 8.5t7.5 8t3.5 11v2v2h-8t-10.5 0.5t-9 1.5t-3.5 3q0 7 6 7t11 -1.5t10 -1.5q2 0 2 1v2q0 5 -1.5 9t-4 8.5t-5.5 8t-5 7.5q-4 10 -7 20t-4 21t-1 21.5v20.5zM88 135v2q0 1 0.5 3t0.5 3q1 10 1 17q0 6 2 10.5t7 6t16 1.5h6h5t1 -1v-2q0 -2 -1.5 -3
t-3.5 -2t-4 -1.5t-4 -0.5v-2v-2q0 -3 1 -6t1 -6q0 -4 -1 -7.5t-1 -7.5q0 -3 1 -5t1 -5q0 -4 -1 -7.5t-5 -3.5q-1 0 -2 0.5t-1 1.5v4t-0.5 6t-0.5 5v4v5t0.5 6t0.5 5v3v2t0.5 2.5t0.5 3v1.5q0 2 -1 2.5t-2 0.5q-2 0 -5 -1t-3 -4v-9.5v-11t-0.5 -11t-1.5 -10.5l-1.5 -1.5
t-1.5 -0.5t-1.5 0.5l-1.5 1.5v2t-0.5 4t-0.5 3.5v1.5v3zM148 135q0 2 0.5 3t2.5 1t4 -2q1 -1 3.5 -4t5 -6.5t4.5 -6t3 -4.5q3 -2 4.5 -5.5t4.5 -5.5t5 -3.5l4 -3t3.5 -3.5t1.5 -5v-2q0 -2 -1 -2q0 -1 -2 -1.5l-2 -0.5h-1h-1l-4 4t-6 6.5t-6 6.5l-4 4l-1 1.5l-2 3t-2.5 3
l-2.5 2.5q-1 2 -3 4.5t-3.5 5l-3 5t-1.5 5.5zM148 64q-1 1 1 2.5t3 1.5q2 0 4.5 -1.5t4.5 -3.5t3.5 -4t2.5 -3l2.5 -2t5 -4.5t4.5 -4t3 -2.5q0 -1 2 -2.5t3.5 -3.5t3.5 -3.5t2 -2.5h1v-1q0 -2 -1.5 -3.5t-2.5 -1.5h-1q-6 3 -11 7t-10 8.5t-9.5 9t-7.5 8.5q-1 0 -2 2.5
t-1 3.5z" />
</svg>
