<?xml version="1.0" standalone="no"?>
<!DOCTYPE svg PUBLIC "-//W3C//DTD SVG 1.1//EN" "http://www.w3.org/Graphics/SVG/1.1/DTD/svg11.dtd" >
<svg xmlns="http://www.w3.org/2000/svg" xmlns:xlink="http://www.w3.org/1999/xlink" version="1.1" viewBox="-10 0 266 256">
   <path fill="currentColor"
d="M182 187q3 0 5 4.5t4 12t3.5 15.5t3.5 15t3.5 12t4.5 5t3.5 -3t0.5 -5q0 -8 -2 -15.5t-5 -14.5t-5 -14.5t-2 -15.5q0 -2 1.5 -4.5t3 -4.5t3.5 -4.5t2 -5.5v-3q-1 -2 -1.5 -4.5l-1 -5t-1 -4.5l-0.5 -2l-1 -2q-1 0 -3.5 -0.5t-6.5 -1l-8 -1t-6 -0.5h-5h-6h-2h-3h-2.5h-2.5
l-0.5 0.5l-1.5 1.5v1q0 1 1.5 2t2.5 1t2.5 0.5l1.5 0.5h6t8 0.5t8 0.5h6q3 1 4.5 3t1.5 5q0 4 -0.5 7.5t-4.5 5.5q-3 -4 -5 -6t-4.5 -2.5t-5.5 -1t-7 -0.5h-3h-4.5t-5 1t-2.5 2t0.5 2t1.5 2h3.5h5.5h5.5h3.5t3 1t4.5 2t3.5 2.5t1 3.5t-4 3t-10 2t-11.5 2t-7.5 3l3 3q0 1 3 1
h4q5 0 9.5 -1t9.5 -1zM51 222v5q0 5 0.5 9.5t2 7.5t3.5 2q1 -1 3 -2.5t2 -2.5v-11q0 -14 -1 -27.5t-1 -27.5v-12q0 -3 0.5 -8.5t1 -12t1 -12t1.5 -8.5q1 -4 2.5 -7l3.5 -7q2 -5 3.5 -10t3.5 -9t6 -7t10 -3h1q0 1 1.5 1.5l1.5 0.5q1 10 4.5 20t5.5 20q2 11 2.5 22t0.5 23v5
v5.5t-2 4t-5 1.5q-1 0 -3.5 -0.5t-2.5 -2.5v-64l-3 -4q-3 1 -3.5 6t-1 12t0 15t0.5 14.5t-1.5 11t-4.5 4.5q-1 0 -4.5 -1.5t-3.5 -3.5v-42q0 -1 -2 -3.5t-4 -2.5q-1 0 -1.5 0.5t-0.5 1.5v2v1q0 12 0.5 24.5t3.5 24.5q2 4 5 6t6.5 3l7 2t6.5 2q1 1 3 1.5t3.5 1.5t3 1.5
l1.5 0.5l2 3v3.5t-0.5 7.5t-0.5 8t-1 7q0 1 -0.5 3.5t-1 5.5t-1 5.5l-0.5 2.5v1v2q0 2 1.5 3t3.5 1q3 0 4.5 -3t1.5 -5q2 -14 2 -27.5v-27.5v-38q0 -1 -0.5 -5t-1 -8.5t-1 -8.5t-0.5 -5q-1 -1 -1.5 -3.5t-0.5 -3.5q-1 -3 -2.5 -6.5l-3 -7t-2.5 -7t-1 -7.5q1 -3 3.5 -3.5
l5 -1l5 -1t2.5 -3.5t-2 -4t-4.5 -1h-5t-3.5 1q-1 -1 -1.5 -2t-0.5 -2q0 -5 3.5 -10t7.5 -10t7 -9t3 -6q0 -1 -1 -1h-2q-3 0 -5.5 2t-4.5 5t-4.5 5t-5.5 2q-2 0 -3 -2t-3 -4.5t-4.5 -4.5t-6.5 -2q-2 0 -3 0.5t-1 2.5q0 1 0.5 1.5l0.5 0.5q4 3 7 5t6 6q1 3 1.5 8.5t0.5 8.5v6
q-1 2 -4.5 2.5l-3.5 0.5h-1h-1q-2 0 -5 -0.5l-3 -0.5q0 -1 -0.5 -2t-0.5 -2.5t-0.5 -2.5l-0.5 -1q-1 -8 -3.5 -13.5t-2.5 -13.5q0 -5 3 -8.5t8 -5.5t10 -3t9 -1q2 0 6 -0.5t8.5 -0.5t8.5 -0.5t6 -0.5t2.5 -1t0.5 -2q0 -3 -1 -3h-14q-14 0 -26.5 1t-25.5 7q-3 5 -4.5 10.5
t-1.5 12.5q0 6 1.5 10.5t4 8t4 6.5t1.5 6q0 1 -0.5 1.5t-1.5 0.5h-16q-1 0 -2 2.5t-1 3.5q0 2 1 2.5t4 0.5q1 0 3 0.5t3 0.5q2 0 4 -0.5t3 -0.5l1.5 1.5t0.5 1.5q0 6 -2.5 10l-5 8t-5.5 8.5t-4 8.5v11v15.5t-0.5 18t-0.5 18.5v15.5v10.5v11zM134 232q0 1 0.5 2.5t1.5 3.5
t2 3.5t2 1.5l1.5 -0.5t1.5 -1.5q1 0 1.5 -0.5t0.5 -1.5v-7q0 -15 -1 -29t-1 -29v-32q2 -7 6 -12t7.5 -9t6.5 -8t3 -9q0 -3 -1.5 -5t-4 -2.5l-5 -1t-5.5 -0.5q-5 0 -8 0.5t-8 1.5q-1 0 -1.5 1.5l-0.5 1.5q0 1 1.5 2l1.5 1h23l0.5 2t0.5 3q0 2 -2 5t-5 5.5t-6 5.5t-4 5
q-2 3 -3.5 7t-2 8.5t-1 8.5t-0.5 8v37v6.5t-0.5 10t-0.5 10.5v7zM174 123v1v0q0 1 1 1.5t2 0.5q4 0 9.5 -0.5t10.5 -2.5t8.5 -5.5t3.5 -9.5q0 -5 -2.5 -9.5t-8.5 -4.5q-5 0 -10.5 1t-10.5 2v1v1v1.5t1 1.5h20q2 0 2.5 1t0.5 3q0 4 -3 9q-2 0 -5.5 0.5t-7.5 1.5t-7 2.5
t-4 2.5v1zM138 79q0 2 1 3t3 1t7.5 -1.5t13 -3.5t15.5 -4.5t15 -5t11.5 -4.5t4.5 -3q0 -4 -5 -4q-2 0 -8 1.5t-13 4t-15 5t-14.5 5t-11 4.5zM197 41q-5 0 -10.5 0.5t-11 2t-11 3.5t-10.5 4q-1 0 -3 1l-4 2t-3.5 2l-1.5 1v5q1 0 6 -1t11 -3t12.5 -4t11.5 -4t9 -3l4 -1
q0 -1 0.5 -3zM143 36q0 4 3 4h1q1 0 1 -1q2 0 8 -1.5l12 -3l12 -3t8 -1.5q1 -1 3.5 -1.5t5 -1.5t4 -2t1.5 -3q0 -3 -2.5 -3h-4.5h-4l-2 0.5t-3.5 1.5t-3.5 1.5l-2 0.5q-2 1 -6.5 2t-9.5 2.5t-9.5 2.5t-6.5 1q-2 -1 -3.5 1t-1.5 4z" />
</svg>
