<?xml version="1.0" standalone="no"?>
<!DOCTYPE svg PUBLIC "-//W3C//DTD SVG 1.1//EN" "http://www.w3.org/Graphics/SVG/1.1/DTD/svg11.dtd" >
<svg xmlns="http://www.w3.org/2000/svg" xmlns:xlink="http://www.w3.org/1999/xlink" version="1.1" viewBox="-10 0 266 256">
   <path fill="currentColor"
d="M51 203v4v6v4v2q0 2 0.5 6.5t1 9.5t1 9.5t0.5 6.5h7q0 -13 -1 -26t-1 -26q0 -11 0.5 -23t2.5 -22l4 -14l4 -14t3.5 -13.5t1.5 -14.5q1 -1 4 -2.5t4 -1.5v0q4 0 7 1.5t4 4.5q5 11 8 21t5 20t2.5 20.5t0.5 23.5v9l-2 0.5t-3 0.5h-1q-2 0 -4.5 -2.5t-2.5 -5.5v-59
q-1 0 -2.5 0.5t-2.5 1.5v5.5t-0.5 8t-0.5 8v5.5v1v1v1.5t0.5 3.5t0.5 4v2h1v1v1q0 1 -1 1v3.5t-0.5 5.5t-0.5 5.5v3.5q-1 2 -3.5 1.5l-2.5 -0.5h-2h-2l-1 -3q0 -13 -0.5 -26.5t-1.5 -25.5q0 -1 -1 -1.5t-2 -0.5t-1.5 0.5t-0.5 1.5v22v22q0 1 0.5 4.5t1.5 6.5t3 6t5 3h26
q1 0 1.5 1.5t0.5 3.5t0.5 4t0.5 3v3q0 2 -0.5 6t-0.5 9t-0.5 9t-0.5 6l1 2.5t2 2.5q2 0 3.5 -1.5t1.5 -3.5v-4v-5.5v-5.5v-3q0 -26 -1.5 -51t-4.5 -50q-1 -4 -3 -7.5t-4.5 -7.5t-4 -7.5t-1.5 -6.5v-1q0 -1 0.5 -2t1.5 -1l2 -0.5t4 -1.5t3.5 -1t2.5 -1q1 0 3 -1t2 -3v0
q0 -1 -1 -1.5l-1 -0.5h-17v-9.5t2 -9.5q1 -4 4.5 -7.5t6.5 -7t5.5 -7t2.5 -9.5q-4 0 -7.5 3.5t-6.5 7.5t-5 7.5t-5 3.5h-1h-1q-1 -1 -3.5 -4t-5.5 -5.5t-6 -4.5t-6 -2v5l1 1l2.5 2.5l3 3t1.5 2.5l5.5 5.5t3.5 4.5t2 5t1 7q0 7 -3 8.5t-9 1.5h-6q0 -6 -2 -11t-5 -9.5
t-5.5 -9.5t-2.5 -11t2.5 -9t7.5 -6q2 0 6 -0.5t9 -1.5t9.5 -1.5t6.5 -1.5h2.5t5.5 -0.5t5.5 -0.5h3.5q2 -1 3.5 -2t1.5 -3q0 -3 -4 -3h-1.5h-1.5q-1 0 -5 0.5l-8 1l-8 1t-6 0.5q-4 1 -10.5 2t-13 3t-10.5 6t-4 11q0 6 2.5 12t5.5 11.5t5.5 10.5t2.5 9q0 3 -3 3.5l-6 1
t-6 1.5t-3 4q0 2 0.5 3.5t2.5 1.5q3 0 6 -1t6 -1t3 1.5v3.5q0 8 -3 15t-5 15q-4 17 -6 35.5t-2 35.5zM166 151q3 0 4.5 6t2.5 16t1.5 22t0.5 23t0.5 20t1.5 13h1.5h1.5q3 0 5 -1t2 -4t-1.5 -6t-1.5 -7q-2 -8 -3 -16t-1 -16q0 -4 3 -6t7.5 -4.5t8 -5.5t5.5 -7q0 -2 0.5 -5.5
t0.5 -4.5q0 -7 -1 -12t-4 -8t-7.5 -4t-12.5 0l-1 -1l1 -24l2 -1q1 0 2.5 -0.5t3.5 -0.5t4 -0.5t3 -0.5l2.5 -2.5t1.5 -2.5v-17q0 -3 -2 -4.5t-5 -2t-5.5 -0.5t-4.5 -1l-1.5 -7.5t-0.5 -6.5v-5q6 -3 13 -4.5t13 -1.5q0 -1 0.5 -3l0.5 -2q0 -2 -1.5 -2h-1.5q-9 0 -17 2
t-16.5 4.5t-16.5 5t-17 4.5l-3 3q1 2 2 2.5t3 0.5h2l1.5 -0.5t3.5 -1t3.5 -1t2.5 -0.5v18h-13q-1 0 -2 1.5t-1 2.5v1v1l0.5 0.5l0.5 0.5h16v15q0 2 -3.5 3t-8 2.5t-8.5 6t-4 13.5q0 2 0.5 5t1.5 5t3 3t5 1l2 -0.5t3 -0.5t3.5 1t2.5 2v1v2q0 22 -2.5 43t-5.5 43v1v1l0.5 1
t1.5 2v0q4 0 6 -5t2.5 -11.5t0.5 -12.5v-8q0 -1 0.5 -8t1 -15t1 -14.5t0.5 -8.5v-11q2 -3 5 -3h5zM189 152q5 0 8 3.5t3 8.5q0 3 -1 7t-3 7t-5 5.5t-7 2.5q-1 0 -2.5 -0.5t-1.5 -2.5v-26q0 -4 3 -4.5t6 -0.5zM136 137q0 -6 3 -9t8 -3q4 0 4.5 3t0.5 6q0 4 -1 7t-6 3
q-2 0 -5.5 -2.5t-3.5 -4.5zM158 139v-1v-3.5t0.5 -5t0.5 -5v-3.5q1 -2 3 -2h3q3 0 4.5 1t2 3t0.5 4v5q0 2 0.5 4t0 4t-2 3t-4.5 1q-2 0 -5 -1.5t-3 -3.5zM167 97q4 0 5.5 2t1.5 7v2q0 3 -2 3h-13v-11q0 -2 3 -2.5t5 -0.5zM187 94q8 0 8 8q0 2 -2.5 5t-5.5 3v0
q-2 -1 -3.5 -1.5l-1.5 -0.5v-11q0 -2 1.5 -2.5t3.5 -0.5zM159 77q0 -5 4.5 -7t9.5 -2h1q0 1 0.5 3.5t0.5 5v4.5v3v2q0 3 -1.5 3h-4.5q-6 0 -8 -3t-2 -9zM142 48v2l0.5 1t1.5 2h4q3 0 7.5 -1t10.5 -1.5t12 -2t10.5 -3t8 -3t3.5 -3.5t-2 -2.5t-3 -0.5t-1.5 0.5l-0.5 0.5
l-2.5 0.5t-5.5 1.5t-5 1.5t-3 0.5q-8 2 -17 3.5t-18 3.5v0zM142 30q0 2 2 2h3q6 0 11.5 -1.5t12.5 -3.5q2 -1 6 -1.5t8.5 -1t8.5 -1.5t5 -2t1.5 -2.5t0.5 -2.5q0 -3 -4 -3q-1 0 -5.5 0.5t-10.5 2t-13 3.5t-13 4t-9.5 4t-3.5 3z" />
</svg>
