<?xml version="1.0" standalone="no"?>
<!DOCTYPE svg PUBLIC "-//W3C//DTD SVG 1.1//EN" "http://www.w3.org/Graphics/SVG/1.1/DTD/svg11.dtd" >
<svg xmlns="http://www.w3.org/2000/svg" xmlns:xlink="http://www.w3.org/1999/xlink" version="1.1" viewBox="-10 0 266 256">
   <path fill="currentColor"
d="M63 86q0 4 -1 7t-2 5t-2.5 4.5t-4 6.5t-4 7.5t-2.5 7t-1.5 7.5t-1.5 9q-5 27 -5.5 55.5t-0.5 54.5q5 0 8.5 -2t3.5 -7q0 -7 -0.5 -13t-0.5 -13v-15v-8t0.5 -11t1 -13t1 -13t1 -11t1.5 -7q2 -4 3.5 -9.5t3.5 -11.5l4 -12t5 -10.5t7 -7.5t10 -3q2 0 3.5 1.5t2 3.5t0.5 4
t1 4q2 5 6 8.5t5 7.5q3 6 4 14.5t1 17.5v18v14h-5.5h-7t-6 -1.5t-2.5 -4.5q0 -12 2 -23.5t2 -22.5q0 -2 -0.5 -3.5t-3.5 -1.5t-4.5 4t-2 9.5t-0.5 12.5t-0.5 13t-2 10t-5.5 4q-2 0 -3.5 -1.5t-2.5 -3.5t-1.5 -4.5t-0.5 -4.5q0 -6 2 -12t2 -12v-10l-0.5 -1t-1.5 -1h-1
q-3 0 -4.5 6t-2.5 13t-1.5 14t-0.5 8q0 10 6 13.5t14 4.5t17 0.5t15 1.5v4t0.5 6t0.5 6v4q0 5 -0.5 10t-1.5 9t-1.5 8t-0.5 9q0 2 0.5 3t2.5 2q1 0 2.5 -0.5t2 -2t1.5 -2.5t1 -2t0.5 -4t0.5 -6t0.5 -5.5t0.5 -4.5v-3v-8v-9v-7v-6v-8.5v-7.5v-6q-2 -6 -2 -12.5v-12.5
t-0.5 -12.5t-2.5 -12.5q-1 -2 -3.5 -5.5t-5 -6.5t-4.5 -6t-2 -6q0 -4 2 -5t5.5 -2t6.5 -1h7.5t5.5 -1t2 -3q0 -1 -0.5 -2t-2.5 -1h-23q-1 0 -1 -1.5v-2.5q0 -6 3 -10t6.5 -8t6.5 -7t3 -7t-3 -4q-4 0 -6 2t-4 5t-4.5 5t-5.5 2t-4.5 -2.5t-3.5 -6t-4.5 -6t-6.5 -2.5
q-1 0 -2 1.5l-1 1.5q0 3 3 6.5t6.5 7t6.5 7.5t3 9q0 7 -2 9.5t-8 2.5h-3h-3q-2 -1 -3.5 -4l-3 -6t-2.5 -6.5t-3 -5.5l-1 -2l-2 -4l-2 -4t-1 -3v-1q0 -6 4 -9.5t9 -5.5t11 -2.5t10 -1.5h5.5t8 -0.5t8.5 -0.5h6q4 -1 4 -5q-4 -3 -9 -3.5t-10 -0.5h-2l-2 1l-2 1q-7 1 -16 1.5
t-17 3.5t-13.5 8.5t-5.5 16.5q0 4 2.5 7.5t5.5 6.5t5.5 6.5t2.5 8.5v3q0 2 -2 2h-19q-2 0 -3 2t-1 3q0 2 1 3.5t3 1.5h19zM169 185q3 0 4 2.5t2 3.5q1 2 3 3t4.5 2.5t4 3.5t1.5 3v46q3 0 5 -0.5t2.5 -2.5t0.5 -4.5t1 -5.5v-27q0 -4 4 -7t8 -5.5t7 -5.5t3 -9q0 -2 -1.5 -3
t-3.5 -1q-3 0 -4 2l-2 4t-2.5 4t-4.5 2t-3.5 -2t-0.5 -4.5v-5t-3 -2.5t-3.5 2.5t-1 5.5t-1 5t-2.5 2q-3 0 -4 -2t-2.5 -4.5t-5.5 -5t-13 -3.5l-1 1l-1 1q0 1 -1.5 3.5t-1.5 3.5q-1 0 -2.5 -0.5t-2 -1t-1.5 -0.5v-7q0 1 -1.5 2.5t-3 3.5t-3 3l-1.5 1q-3 0 -4 -1.5l-2 -3
t-2.5 -3.5t-4.5 -2q-1 0 -1.5 2t-0.5 3q0 6 4 10.5t11 4.5v48l2 2l5 -4q0 -9 1 -21.5t2 -22.5l3 -3t5.5 -4.5t6 -4t3.5 -1.5zM141 143v7t1.5 8t3.5 6.5t7 2.5q8 0 16.5 0.5t16 -1t12.5 -6.5t5 -15v-7t-2 -8q0 -1 -1.5 -2t-2.5 -1.5t-1.5 -1.5t-0.5 -4q0 -5 2.5 -6.5
t5.5 -3.5t5.5 -6t2.5 -14q0 -2 -1.5 -3.5t-3.5 -1.5h-2.5t-1.5 2v13l-1.5 1.5t-2.5 1.5h-1.5h-1.5q0 -6 1 -11.5t1 -10.5q0 -2 -0.5 -5t-2.5 -3l-0.5 0.5l-0.5 0.5l-0.5 1t-0.5 2l-0.5 3l-1 6t-0.5 5.5v3.5q-1 2 -1.5 5l-0.5 3h-5v-13l-1 -1t-2 -1h-1h-1l-0.5 1l-0.5 1v18
q0 2 1.5 2t4 1t4.5 3t2 6l-0.5 1.5l-0.5 1.5l-3 2h-4.5h-5.5h-3h-5h-4h-2h-2t-3.5 -0.5t-3 -1.5t-1.5 -3q0 -4 1.5 -5.5t3.5 -2.5t4 -1.5t4 -2t3.5 -5t1.5 -10.5v-3v-3q-1 -2 -1.5 -2h-1.5q-4 0 -4 3v6.5t-0.5 6t-4.5 2.5h-1q-1 0 -1.5 -1.5l-0.5 -1.5v-3v-5v-4v-3
t-1.5 -1.5t-2.5 -0.5q-3 0 -4 3t-1 7v7t-3 3q-2 0 -3 -1t-1.5 -3t-1 -3.5t-1.5 -2.5q-2 1 -3 2t-1 3q0 4 1.5 6t3.5 3t4.5 2t4.5 4v3.5v3.5q0 3 -0.5 6t-3.5 5v5v6zM148 153q1 -2 4 -3t5 -1h33l3 1q1 1 0.5 3t-1.5 4q-1 0 -2.5 0.5t-2.5 1.5q-2 0 -4 0.5t-3 0.5h-1
q-3 0 -7.5 0.5t-9 0t-8.5 -2t-6 -5.5zM149 139q0 -2 1.5 -4.5t3.5 -2.5h38q1 0 1 2v2q0 2 -1 4t-4 2h-34q-3 0 -4 -0.5t-1 -2.5zM200 56q-13 0 -27.5 3.5t-27.5 5.5q-2 0 -5.5 0.5l-3.5 0.5v6q18 0 35 -3t35 -4q1 -1 1.5 -2t0.5 -2v0v-1q0 -1 -0.5 -2t-1.5 -2h-2.5h-3.5z
M141 47q0 3 2 3h4q6 0 12.5 -0.5t13 -1.5t12.5 -1.5t12 -1.5q1 -1 2 -2.5t1 -3.5v-1q-1 0 -2 -1.5l-1 -1.5h-1v0h-1q-3 1 -6 3t-6 2l-2.5 0.5t-6 0.5t-7 0.5t-5.5 0.5h-0.5h-0.5q-2 0 -4.5 0.5t-5.5 1.5t-6 1.5t-4 1.5v0v0zM194 12q-2 0 -6.5 0.5t-11 1t-13.5 1.5t-12.5 3
t-9.5 5t-4 6q10 0 20 -3t18 -4h7q4 0 8.5 -0.5t7.5 -2t3 -4.5v-1.5t-1 -1.5h-6z" />
</svg>
