<?xml version="1.0" standalone="no"?>
<!DOCTYPE svg PUBLIC "-//W3C//DTD SVG 1.1//EN" "http://www.w3.org/Graphics/SVG/1.1/DTD/svg11.dtd" >
<svg xmlns="http://www.w3.org/2000/svg" xmlns:xlink="http://www.w3.org/1999/xlink" version="1.1" viewBox="-10 0 266 256">
   <path fill="currentColor"
d="M69 247l0.5 0.5l0.5 0.5l1 1t1 2h1q3 0 4.5 -3t2 -7t1 -9t0.5 -9.5t1 -7.5t2 -3q5 -1 9.5 -1h9.5h7l3 1v3v3q0 6 -0.5 11.5t-0.5 10.5v4t2 2q4 0 6 -2.5t2 -6.5v-23q0 -2 2.5 -3t6 -1.5t5.5 -0.5h4h8q2 1 2.5 3t0.5 3v4.5v6.5v7v4q0 3 0.5 6t3.5 3q4 0 5 -3.5t1 -6.5v-4
v-6.5t-0.5 -10t-1 -12.5t-1 -12.5t-0.5 -10v-5.5v-6t-0.5 -5.5t-2 -4.5t-4.5 -4h-5h-7h-7h-5h-6h-6.5h-6.5h-4q-3 0 -7.5 0.5t-8 1.5t-6.5 3.5t-4 7.5q0 2 -0.5 9.5t-1 15.5t-1.5 15t-1 10v1q-1 7 -3 14.5t-2 13.5zM188 246q0 1 1 1.5l1 0.5q2 0 3 -1.5t2 -3.5t1 -4v-3v-23
q0 -18 -0.5 -35.5t-2.5 -35.5q0 -4 -1.5 -7.5t-3 -7.5t-3 -7.5t-1.5 -7.5q0 -3 1 -5.5t2.5 -5t2.5 -5t1 -5.5t-1 -5t-2 -3.5t-2.5 -3.5t-1.5 -4v-1q2 -3 5 -6.5t4 -7.5l0.5 -1.5t0.5 -3.5t0.5 -4.5t0.5 -3.5v-3q0 -5 -1 -9.5t-3 -8t-5.5 -5.5t-9.5 -2v0q-2 0 -5 0.5l-6 1
t-5.5 1l-2.5 0.5q-5 1 -7 3.5t-3 6t-1 8v7.5v5q0 4 1 4v1.5t0.5 3.5l1 4t1.5 3q0 2 2 3.5t2 3.5q0 3 -3 5.5t-6.5 4.5l-7 4t-5.5 3v0.5v0.5q0 3 3 3q2 0 7 -3t10 -7t9.5 -8t6.5 -6h1h1q4 0 6 2.5t3.5 5.5t2.5 7t1 6q0 3 -1 5t-2 3.5t-2 3.5t-1 4q0 8 2 14t4 13q1 6 1.5 11.5
t2.5 11.5v21v22.5t0.5 22.5t0.5 21zM97 202v-2q3 -5 8.5 -8.5t11.5 -3.5h1h1q5 2 10 4.5t9 7.5v1v1q-1 0 -1.5 0.5l-0.5 0.5q-5 1 -8.5 1t-7 0.5t-6.5 0.5h-8h-7l-1.5 -1.5t-0.5 -1.5zM87 173q1 -1 1.5 -1h1.5l3 1t6 3l6 4t3 4l-0.5 0.5l-0.5 0.5q-5 3 -10 7t-8 8h-4
q0 -6 0.5 -13t1.5 -14zM127 182q0 -1 2.5 -4t6 -5.5t6.5 -4.5t4 -2q2 0 2.5 2.5t1.5 3.5v4v6.5v6.5v4h-5l-18 -9v-1v-1zM95 165q5 -2 11 -3.5t10 -1.5h2h2t4.5 0.5t4.5 0.5h3q1 1 1.5 2t1.5 2v0q0 2 -2.5 4t-5.5 3.5t-6 2.5t-4 1q-6 0 -12 -3.5t-10 -7.5zM121 118h-4h-5h-4
h-2q-1 0 -4 0.5t-6.5 1.5t-6 2.5t-2.5 3.5v15l1 1t2.5 1.5l3 1l1.5 0.5q2 1 5.5 1.5l3.5 0.5h2.5h3.5h4h4q8 0 14.5 -0.5t15.5 -1.5q3 -2 3 -4.5v-5.5q0 -7 -2.5 -10.5t-7 -5t-9.5 -1.5h-11zM94 134q0 -4 3 -5.5t7.5 -2t8.5 -0.5h6h12q7 0 12 3q1 0 1 2v2q0 4 -3.5 5.5
t-8 1.5t-9 -0.5t-5.5 -0.5h-4h-5h-6h-3t-3.5 -1.5t-2.5 -3.5zM71 109v0v0q0 1 0.5 1.5l0.5 0.5h5h6h6h4q17 0 33.5 -1t32.5 -1q2 0 2 -1v-2q0 -3 -2 -3.5t-4 -0.5h-3h-2.5t-4.5 0.5t-4.5 1l-2.5 0.5h-58h-2.5t-3 0.5t-2.5 1.5t-1 3zM74 89q0 1 2 1h2q4 0 6.5 -2.5t4.5 -6
t3.5 -6.5t4.5 -6q3 3 4.5 6t3.5 6.5t4.5 6t5.5 2.5q2 0 3 -2t1 -3q0 -3 -2.5 -6t-5.5 -6t-6 -7t-3 -10q7 0 13.5 2t13.5 2q3 0 3 -3t-2.5 -4t-5.5 -2t-7 -1.5t-7.5 -1t-6 -2t-2.5 -4.5q0 -2 0.5 -5t2.5 -3h11l1 -1.5t2 -1.5v-1q0 -2 -2 -3t-4.5 -1h-4.5h-3l-0.5 -1t-0.5 -2
l-0.5 -2t-0.5 -4v-3.5v-2.5q-1 -1 -2 -1h-1q-2 0 -2.5 0.5t-1.5 3.5v11q-2 1 -5.5 1.5l-7 1t-6 2t-2.5 5.5h19q1 0 1 2v3q0 4 -0.5 6t-3.5 4q-5 1 -8.5 1.5t-6.5 1.5t-6 2.5l-7 3.5l-0.5 0.5l-0.5 0.5q-1 1 -1.5 2l-0.5 1q1 2 2.5 2.5t3.5 0.5q3 0 6 -1t6 -2.5t6.5 -3
t7.5 -1.5q0 1 0.5 4t-0.5 4q0 4 -2.5 6.5t-6 5.5t-6 5.5t-2.5 5.5zM152 49v-2t2 -2h32q0 6 -0.5 9t-1.5 5t-3.5 3.5t-6.5 3.5h-16q-2 0 -3 -2t-1.5 -5t-1 -5.5t-0.5 -4.5zM158 56q0 2 2 1.5t3 -0.5h4q2 0 4.5 -0.5t4.5 -0.5h2v-2h-2.5h-5t-5 0.5l-2.5 0.5h-3t-2 1zM154 36
v-1q0 -3 2 -4.5t4.5 -2t5.5 -1t4 -0.5t4.5 0.5l3.5 0.5q2 0 4 1.5t2 4.5q0 2 -1 2.5l-3 1.5h-10h-8t-8 -2z" />
</svg>
