<?xml version="1.0" standalone="no"?>
<!DOCTYPE svg PUBLIC "-//W3C//DTD SVG 1.1//EN" "http://www.w3.org/Graphics/SVG/1.1/DTD/svg11.dtd" >
<svg xmlns="http://www.w3.org/2000/svg" xmlns:xlink="http://www.w3.org/1999/xlink" version="1.1" viewBox="-10 0 266 256">
   <path fill="currentColor"
d="M140 222q0 3 3 8.5t7.5 10.5t9 9t8.5 4h6t3 -5q0 -3 -4 -5t-9.5 -5.5t-10 -9t-4.5 -16.5q0 -6 1.5 -11.5t1.5 -11.5q0 -3 -2 -4.5l-4 -3t-4 -2.5t-2 -4t2.5 -4.5t6.5 -2.5t8.5 -2.5t8 -4t6 -7t2.5 -11.5t-1 -10.5t-3 -5t-4.5 -1.5t-5 -0.5t-4.5 -1t-4 -2.5l-0.5 -1.5
t-1.5 -3t-1.5 -2.5t-0.5 -2l-2 -2v0h-1q-1 1 -1.5 2.5t-1 3.5t-0.5 3v2l-1 0.5t-2 0.5q-1 1 -3.5 1.5t-5.5 1t-5.5 0.5h-3.5q-6 4 -7.5 9.5t-1.5 12.5q0 2 0.5 4l0.5 2q1 6 3.5 8t5.5 2.5t6 1.5t5 4q-2 3 -5.5 4.5t-6.5 3.5q-1 1 -3.5 4t-5 8t-5.5 10t-5 10t-3 9t-1 6t1 2.5
t3 0.5q3 0 5.5 -3.5t4 -8.5t3.5 -11t4 -11t5.5 -8.5t8.5 -3.5t8 3t3 7q0 7 -2 14t-2 15zM57 222v5t4 2q3 0 5.5 -6t3.5 -14.5t1.5 -19t1 -20.5t1.5 -18.5t2 -12.5v-1.5v-0.5q0 -1 0.5 -3.5t0.5 -3.5q0 -13 0.5 -25.5t1.5 -25.5t1.5 -25.5t-0.5 -25.5q2 -6 7 -9t11.5 -4
t13.5 -0.5t12 0.5h6t10 -0.5t9.5 -0.5h5.5h1h1q9 0 18.5 2t19.5 2q2 0 3 -1.5t1 -3.5v-2.5t-3 -1.5q-11 0 -23 -1.5t-24 -1.5q-13 0 -26.5 0.5t-25.5 1.5q-3 0 -6 0.5t-6.5 1t-6 2t-4.5 3.5q0 1 -0.5 3t-1.5 4t-1.5 4l-0.5 2q0 1 -1 4t-2 4v45l-3 8v1.5v3.5v3v3q0 7 1 12
t1 11q0 4 -1.5 9.5t-1.5 10.5q0 3 -0.5 9.5t-0.5 12.5t-0.5 11t-0.5 7q0 10 -2 19.5t-2 20.5zM158 206v4t1 5.5t2.5 4t3.5 1.5h18q3 0 5 -1.5t4 -4t2.5 -5.5t0.5 -5q0 -7 -5 -9.5t-11 -2.5q0 2 1 3.5t2 2.5l2 2t1 3q0 10 -10 10q-5 0 -8 -2t-3 -8q0 -3 2 -5.5t5 -4.5
t5.5 -4.5t2.5 -6.5t-2 -5t-5 -1h-1.5h-2.5q1 5 -0.5 8.5t-3.5 6.5l-4 6t-2 8zM121 154v-1.5v-1.5q5 -1 8.5 -1.5t6.5 -0.5t4.5 0.5t2.5 4.5q1 2 0 3.5t-3 2.5t-4 1h-3h-4t-4 -0.5t-3 -2t-1 -4.5zM148 156q0 -4 4 -5.5t7 -1.5t3.5 2t0.5 4q0 4 -2.5 5t-5.5 1q-2 0 -4.5 -1
t-2.5 -4zM149 139q0 -4 2 -5t6 -1q3 0 5 1t2 5q0 3 -3.5 3.5t-5.5 0.5t-4 -0.5t-2 -3.5zM137 133q3 0 4 0.5t1 4.5q0 2 -0.5 3t-4.5 1h-2.5h-5.5h-5h-3q0 -3 1.5 -4.5t4 -3t5 -1.5h5.5zM91 124q-2 2 -1 2.5t2.5 1l1.5 0.5q1 0 4.5 -3t8 -7t10 -8.5t10 -9t7 -7.5l2.5 -3
q0 -4 -1 -8.5t-3.5 -8.5t-6 -6.5t-7.5 -2.5q-3 0 -8.5 3.5t-11.5 8t-10.5 8.5t-4.5 6v0q0 1 0.5 2t1.5 2h1v0q3 -1 5 -3.5t5 -2.5h1l1 1q1 1 2.5 3t1.5 3q1 0 2.5 2.5t3.5 5l2 2.5zM173 76v4.5t0.5 7t0.5 7v4.5t1 4l2 6t2 5.5l1 2.5h10q2 0 2 -1v-2v-2q-1 -1 -2.5 -4
t-2.5 -3h-1l-0.5 -1t-1 -2.5l-1 -3t-0.5 -2.5v-1.5t-0.5 -3t-0.5 -3v-2.5v-13l-1 -0.5l-1 -0.5q-1 -1 -2.5 -2t-3.5 -2l-4 -2t-3 -2v-12q0 -1 1.5 -1.5t4 -1t5 0t3.5 0.5h4q1 1 1 4t0.5 6t2 5t4.5 2q2 0 3.5 -1t1.5 -3v-2l-1 -1t-1 -2t-1 -6t-2 -11t-2 -10.5l-1 -4.5h-1h-2
q-2 0 -3 1.5t-1 4v5v4.5q-3 1 -5.5 2t-6.5 1h-4q-1 -2 -2 -5.5t-2 -6.5t-3 -5.5t-5 -2.5q0 5 1 9t1 8t-3 5t-6 1.5t-6 1.5t-3 4q5 0 9 -1t8 -1h0.5h0.5l0.5 0.5l0.5 0.5v5q0 4 -1 7.5t-2.5 6.5t-3.5 6t-3 6q-2 7 -3 12t-1 12q5 0 6.5 -1.5t2 -4.5t0.5 -6.5t1 -6.5
q0 -1 1 -2.5t2 -4l2 -5t2 -3.5t1.5 -1h1.5q3 0 5.5 1t3.5 3zM102 80q1 0 2 -1t1 -2h1q3 0 5 2.5t3 5t2 6t1 4.5t-1 3t-2 3q-5 -4 -7.5 -10t-4.5 -11zM115 71q7 0 9.5 3t2.5 10v4t-2 3q-1 0 -1 -1l-0.5 -0.5l-0.5 -0.5q-1 -1 -2 -3.5t-2.5 -4.5t-2.5 -3.5l-1 -1.5v-5zM95 48
q0 3 2.5 5t5.5 2.5t6.5 0t5.5 -0.5h11q3 -1 5 -5t2.5 -9t0.5 -9.5t1 -7.5q-2 -1 -3 -1h-3q-1 0 -2.5 0.5t-3.5 1.5t-4.5 1.5t-6.5 0.5h-8q-1 0 -3 -1.5t-3 -2.5h-0.5h-0.5v0v0q0 1 -0.5 4t-1 6.5t-0.5 6.5v4v4zM102 39q0 -2 0.5 -2.5t2.5 -1.5q1 0 3 -0.5t4.5 -0.5t4.5 -0.5
t3 -0.5t2.5 0.5t1.5 1.5v13q0 1 -1 2t-2.5 1h-2.5h-2q-7 0 -10.5 -2t-3.5 -10zM107 42q0 2 2 2h3h3t2 -2t-2 -1.5t-3 0.5t-3 -0.5t-2 1.5z" />
</svg>
