<?xml version="1.0" standalone="no"?>
<!DOCTYPE svg PUBLIC "-//W3C//DTD SVG 1.1//EN" "http://www.w3.org/Graphics/SVG/1.1/DTD/svg11.dtd" >
<svg xmlns="http://www.w3.org/2000/svg" xmlns:xlink="http://www.w3.org/1999/xlink" version="1.1" viewBox="-10 0 266 256">
   <path fill="currentColor"
d="M89 181q0 6 -1.5 12.5t-4 13t-6 13t-6.5 11.5q-2 3 -4 5t-4 4.5t-3.5 5t-1.5 5.5q6 0 10.5 -2.5t7.5 -7t5 -9.5t4 -9.5t4 -7t4 -2.5h2q0 3 2 9t5 12t6.5 10.5t8.5 4.5h1l1 -0.5t2 -1.5v-1.5v-2.5q0 -3 -1.5 -6t-3.5 -5.5t-4.5 -5t-3.5 -5.5q-5 -8 -8 -18.5t-3 -20.5
q0 -5 2.5 -7.5t6.5 -3.5t8.5 -3t7.5 -6t4.5 -11.5t2 -15t0.5 -14.5v-12v-9q0 -9 -1.5 -12.5t-5 -5t-8.5 -1.5t-13 -2l-1 -0.5t-2 -0.5v-4q0 -7 4.5 -10.5t9.5 -7t9.5 -7t4.5 -10.5q0 -1 -0.5 -3.5t-1.5 -3.5t-2.5 -2l-3 -2t-3 -1.5l-1.5 -0.5h-25q-4 0 -6 -2t-4 -4.5
t-4.5 -4.5t-5.5 -2q-2 0 -2.5 1.5t-0.5 3.5q0 6 4.5 9.5t9.5 4.5l0.5 1l0.5 1q0 3 -5 7.5t-11 10.5t-10.5 14t-4.5 17q0 1 1 3t3 2t4 -3t3.5 -7t2.5 -8t2 -5q4 -6 9 -10.5t10 -9.5q2 -1 3 -2.5l2 -3l2 -3t3 -1.5l2.5 -0.5t4.5 -0.5t4.5 -0.5t3.5 -0.5q0 1 1 1.5l2 1t2 1.5
t1 2q0 4 -2.5 6.5t-5.5 4.5t-6.5 4t-4.5 4q-1 1 -2 4t-2 6.5t-2 6t-2 3.5q-3 2 -6 2.5t-6.5 0.5t-6.5 1l-6 2q-3 3 -4.5 7.5t-2 9.5t0 10t0.5 9q0 13 -0.5 22t2 15t9 10.5t20.5 7.5v2.5v3.5zM56 218q0 1 0.5 2t1.5 1q6 0 8.5 -5t3.5 -12t1 -14v-9q-5 0 -7 1.5t-3 4t-1 6.5
t-1 8q0 1 -0.5 3t-1 4.5l-1 5l-0.5 2.5v0.5v1.5zM114 189v6t0.5 8.5t2 8t4.5 3.5q2 0 3.5 -2t1.5 -4v-3q-1 -1 -1 -5t-1 -8t-1 -7.5t-1 -5.5q-2 -4 -4 -4t-3 2t-1 4v4v3zM158 201q1 0 4.5 0.5t7.5 1t7.5 0.5h4.5q3 0 6.5 -0.5t6.5 -1.5t6 -3t4 -5q1 -2 2 -8t1.5 -14
t0.5 -16.5t0.5 -16t0.5 -13.5v-9q0 -2 -1 -6l-2 -8t-3 -7.5t-4 -5.5q-1 0 -4 -1t-6.5 -2t-6 -2t-2.5 -3v-67q0 -2 -2 -2h-3q-2 0 -3.5 2.5t-2 5.5l-1 6t-0.5 4t0.5 3.5t1.5 3.5v46q0 1 -2 2.5t-4.5 2.5l-5 2t-3.5 1q-5 3 -7.5 10t-4 15t-1.5 16v13v5v7.5v6.5v3q0 3 0.5 8.5
t2 11t4.5 9.5t8 5zM151 153v-7l2 -2h42l3 3l0.5 3t0.5 4q0 4 -0.5 10.5t-1.5 12t-4 10.5t-8 6q-1 0 -4 0.5t-4 0.5q-9 0 -14.5 -4t-8 -9.5t-3 -12.5t-0.5 -15zM75 156v0q0 -1 1 -1l2 -1.5t4.5 -3t4.5 -3t3 -1.5l2.5 -2.5t2.5 -0.5q1 0 4 2t6 4.5t5.5 5t2.5 4.5t-2 3
t-4.5 1.5t-5 0t-3.5 -0.5q-3 0 -6.5 0.5t-7 0t-6.5 -2t-3 -5.5zM67 133q0 -3 3.5 -7t8.5 -7.5t10 -6.5t8 -3q1 0 5 3t7.5 6.5t6.5 7.5t3 7v3.5t-0.5 4.5t-2 3.5t-2.5 1.5q-5 0 -8.5 -2.5t-5.5 -5.5t-3 -7.5t0 -8.5h-2q-3 0 -4 4t-3 8t-5.5 8t-9.5 4q-2 0 -3 -1.5t-2 -3.5
t-1 -4.5v-3.5zM151 129q0 -7 2 -13.5t6 -11.5t10 -8t13 -3t11 5t5.5 12t1.5 14v12h-47l-2 -2v-5zM67 106q0 -6 2 -9.5t5 -5.5t7 -3t9 -1v14q0 1 -2.5 3t-6 4.5t-7 4t-4.5 1.5t-1.5 -1t-1 -2.5t-0.5 -2.5v-2zM100 94v-4t3 -2h6t6 1t4.5 3.5t1.5 6.5v4.5t-0.5 5t-1.5 4t-3 1.5
h-1h-1q-1 0 -2.5 -2t-3.5 -3.5t-4 -3.5l-3 -3t-1 -3v-5z" />
</svg>
