<?xml version="1.0" standalone="no"?>
<!DOCTYPE svg PUBLIC "-//W3C//DTD SVG 1.1//EN" "http://www.w3.org/Graphics/SVG/1.1/DTD/svg11.dtd" >
<svg xmlns="http://www.w3.org/2000/svg" xmlns:xlink="http://www.w3.org/1999/xlink" version="1.1" viewBox="-10 0 266 256">
   <path fill="currentColor"
d="M58 246q0 3 1 4t4 1h1.5h1.5l2.5 -2.5l3.5 -3.5t3.5 -4t2.5 -2q1 -2 4 -6.5t6 -10t6 -9t4 -3.5t3.5 4t5 8.5l5 9t4.5 7.5l1 1.5t2 3.5t2 3.5l1 1.5h1.5h2.5q2 0 4.5 -0.5t2.5 -3.5q0 -4 -2 -5t-5 -3l-2.5 -2.5t-2.5 -3.5t-2.5 -3.5l-1.5 -1.5q-1 -1 -3 -5.5t-4.5 -9
t-4.5 -9t-3 -6.5q0 -5 -0.5 -10t-0.5 -11q0 -3 1 -4.5t3.5 -2t4.5 -1t4 -1.5q6 -3 8.5 -10t4 -14.5t1.5 -15v-12.5q0 -9 -1 -15t-4 -10t-8.5 -6t-15.5 -2v-4q0 -7 4 -11.5t8.5 -8t8.5 -7t4 -9.5q0 -3 -1 -5.5t-2.5 -5.5t-4 -4.5t-5.5 -1.5h-24q-4 0 -6.5 -2t-4.5 -5t-4 -5
t-6 -2q0 8 3 12t7 6l7 3.5t3 4.5q0 5 -5 8.5t-11 7.5t-11 10t-5 16q0 1 0.5 2.5t2.5 1.5t3.5 -1.5t2 -3t1.5 -3t2 -3.5q2 -4 6 -7.5t7.5 -6.5t6.5 -5t4 -4q2 -4 3 -8.5t5 -8.5h5q6 0 9.5 1.5t3.5 7.5q0 4 -4 7.5t-8.5 7t-8.5 9.5t-3 17q-12 1 -18.5 4.5t-9 9t-3 13.5
t-0.5 18v10t1 12t3.5 11.5t6.5 8.5q1 0 4.5 1t6.5 1.5t5.5 1.5t3.5 2v9q0 15 -5.5 25.5t-14.5 22.5q-2 2 -4 3.5t-4.5 3t-4 3.5t-1.5 5zM67 205q-3 5 -4 9t-1 9q5 0 8 -3.5t4.5 -9t2 -11t0.5 -9.5q0 -1 -0.5 -3.5t-1 -4t-1.5 -3t-4 -1.5h-1.5t-1.5 2v25zM144 160
q0 7 -0.5 15.5t0.5 16t4 15t9 12.5h7h16.5t10.5 -2.5t6 -8t2 -15.5v-6t0.5 -11t0.5 -11v-6v-1q0 -3 0.5 -6.5t-0.5 -7t-2.5 -6t-5.5 -2.5q-3 0 -3.5 2t-1 5.5t0 6l0.5 2.5q-6 2 -11 2h-12h-11q-1 0 -1.5 -0.5t-0.5 -1.5v-1v-2v-3v-1q0 -1 -0.5 -2t-1.5 -2.5t-2 -2t-2 0.5
l-1 1q0 1 -0.5 3.5t-0.5 5.5v6v5zM114 179q0 2 1 8t3 11.5t5 10t7 4.5q2 0 2.5 -1.5t0.5 -4.5q0 -1 -2 -6t-4.5 -10.5t-5 -10t-4.5 -4.5q-1 0 -2 1t-1 2zM154 196q0 -2 1.5 -3t2.5 -1l2 -0.5t4.5 -0.5t5 -0.5t3.5 -0.5h1h1q1 0 2.5 0.5t3.5 0.5t3.5 0.5t2.5 0.5q1 1 2 2.5
t1 2.5q0 4 -2 8.5t-7 4.5h-20q-1 0 -2.5 -2t-2.5 -4t-1.5 -4.5t-0.5 -3.5zM152 171v-7q1 0 2.5 -1.5t2.5 -1.5h30l0.5 0.5t0.5 1.5q1 0 1.5 1.5l0.5 1.5v17q-8 0 -14.5 0.5t-13.5 0.5q-4 0 -6 -0.5t-3 -2t-1 -4v-6.5zM75 154q0 -2 2.5 -4t5.5 -4t6 -3t5 -1q5 0 10.5 4t8.5 8
q0 4 -2.5 5.5t-6 2t-7 0.5h-5.5t-5 -0.5t-5 -0.5t-4.5 -2t-2.5 -5zM69 130q0 -3 3 -7t7 -7.5t8 -6t7 -2.5v0h1l2.5 2t3.5 2q1 1 3 2.5t5 3.5t5 3.5t3 1.5q1 1 1.5 4t0.5 4v0q0 2 -0.5 4l-1 4t-2 3.5t-2.5 1.5q-5 0 -9 -3.5t-7 -5.5v-12l-1 -0.5l-1 -0.5h-1q-1 0 -2 3.5
t-3 7.5t-5 7.5t-9 3.5q-2 0 -3 -1.5t-2 -3.5t-1 -4.5v-3.5zM137 70q0 5 1.5 12t3.5 14.5t5 14.5t7 11q1 1 3 3.5t3 2.5l3 -1v-8q-3 -4 -5.5 -9t-5.5 -10.5t-4.5 -11t-1.5 -10.5q0 -8 5 -11.5t12 -3.5h2.5h1.5l2 2q0 1 0.5 3t1.5 5t1.5 5t0.5 3l3.5 7l5 10l5 10l3.5 7
q1 1 2 1h2q3 0 5 -0.5t2 -3.5q0 -5 -4 -10t-8.5 -11.5t-8.5 -13t-4 -13.5v-1q0 -2 0.5 -3.5t1.5 -1.5h19q1 0 2.5 -2t2.5 -3q0 -1 -0.5 -2t-1.5 -2t-1.5 -2t-1.5 -1v0h-1l-1.5 0.5t-2.5 1t-2 1.5t-2 1q-4 1 -13 1.5t-17 2t-14.5 5.5t-6.5 11zM98 94q0 -3 2.5 -4t4.5 -1
q8 0 11 5t3 12q0 1 -0.5 4t-2.5 3q-4 0 -7 -2t-5.5 -4.5t-4 -6t-1.5 -6.5zM72 110v-3v-2q0 -16 16 -16q2 0 3 2.5t1 3.5q0 2 -2 4.5t-4.5 4.5t-4.5 3.5t-3 2.5h-1q-1 0 -2 0.5t-2 0.5l-0.5 -0.5z" />
</svg>
