<?xml version="1.0" standalone="no"?>
<!DOCTYPE svg PUBLIC "-//W3C//DTD SVG 1.1//EN" "http://www.w3.org/Graphics/SVG/1.1/DTD/svg11.dtd" >
<svg xmlns="http://www.w3.org/2000/svg" xmlns:xlink="http://www.w3.org/1999/xlink" version="1.1" viewBox="-10 0 266 256">
   <path fill="currentColor"
d="M137 245q0 1 1.5 2l1.5 1h1q2 0 3.5 -3t2 -8.5t1 -11.5l1 -12t0.5 -11t1 -7q2 -6 4.5 -15t6.5 -16h1.5h0.5q2 0 4 1.5t3.5 3t3 3.5t1.5 4q1 1 2 4t2 6.5t2 6.5t1 4t0.5 5t0.5 9.5v10.5v7v2v4t-0.5 3.5l-0.5 1.5v1q0 3 1.5 3.5t3.5 0.5q6 0 7 -3.5t1 -7.5q0 -11 -1 -21.5
t-3 -21t-7 -20t-14 -16.5v-5q12 -5 16 -12t4 -19q0 -5 -3 -8t-7 -5l-8 -4t-6 -5v-8v-10t1 -11q1 -2 3.5 -2h3.5q4 0 7.5 2t7 5t6.5 5t6 2q2 0 4.5 -1t2.5 -3q0 -5 -6.5 -8.5t-14.5 -7t-14.5 -6t-6.5 -5.5q0 -7 1.5 -13.5t1.5 -13.5v-4t-1 -4t-2.5 -3.5t-3.5 -1.5q-4 0 -5 3
t-1 7q0 1 0.5 5t0.5 8.5t0.5 9t0.5 5.5v1q0 5 -4.5 8t-10 6t-10 6.5t-4.5 8.5v0q0 1 0.5 1.5t1.5 0.5h1q4 0 6.5 -2t5 -4.5t5.5 -4.5t8 -2q0 4 0.5 9.5t0.5 10.5t-1.5 9.5t-4.5 7.5q-1 1 -3.5 2t-3.5 1l-0.5 1.5t-0.5 2.5q-1 1 -1.5 3t-1.5 3.5t-1.5 3l-0.5 1.5l-0.5 3
t-0.5 5q0 1 0.5 4t0.5 4q1 2 4 4l6 4t5.5 4.5t2.5 4.5q0 3 -1.5 5t-3.5 4.5t-4 5.5t-3 5q-4 15 -6 31t-2 31v9zM51 244q0 2 1.5 2.5t3.5 0.5q6 0 10 -5.5t7 -12.5t6 -12.5t7 -5.5q3 0 5.5 5.5t4.5 12.5t5 12.5t7 5.5q3 0 5 -1.5t2 -4.5t-1.5 -6t-4 -5.5l-5 -5t-4.5 -5.5
q-4 -8 -6.5 -16.5t-5.5 -16.5v-28q0 -1 4.5 -2.5l10.5 -3.5t10.5 -6t4.5 -9v-47q0 -1 -1 -3t-2.5 -4.5t-3.5 -4.5l-2 -2q-3 -1 -5.5 -1t-5 -0.5t-4.5 -2t-2 -4.5q0 -6 4 -9.5t9 -7t9 -6.5t4 -10q0 -5 -4 -8t-9.5 -4t-11 -1.5t-9.5 -0.5q-2 0 -4.5 -1.5t-4.5 -3t-4.5 -2.5
t-5.5 -1t-3 3t2 4.5t4.5 3t4.5 3.5t2 4v1q-3 4 -7.5 7t-8 7t-6 8t-2.5 10q0 2 1 3.5t3 1.5q3 0 6.5 -6t8.5 -14t11.5 -14t15.5 -6q4 0 7 2.5t3 5.5t-2.5 5.5t-5.5 4.5l-6 4t-5 4t-2 4t-0.5 4.5t-0.5 5t-2 4.5q-1 0 -3 1t-4 1t-4 0.5l-2 0.5q-8 2 -11.5 5t-5 7t-1.5 10v14v13
q0 7 2 12.5t5.5 10t10.5 7.5l4.5 1.5t3.5 3.5q0 1 0.5 5t0.5 8.5t0.5 8t0.5 5.5q-1 7 -3.5 14t-6 13.5t-8 12t-8.5 10.5q-2 2 -2.5 3.5t-0.5 3.5zM53 206q-3 2 -3.5 5t-0.5 6q6 0 9 -2.5t4.5 -6.5t2 -9.5t0.5 -11.5l0.5 -3.5t0.5 -5.5q0 -1 -0.5 -4.5t-0.5 -4.5q-2 -1 -5 -1
q-1 0 -2 0.5t-2 2.5q1 9 0 18t-3 17zM100 172v2l9 34q0 2 1 2h2q3 0 4 -1.5t1 -3.5q0 -1 -0.5 -2l-0.5 -1l-0.5 -1.5l-1 -3t-1 -2.5l-0.5 -1q-1 -3 -1 -7.5t-0.5 -9t-2 -8t-5.5 -3.5q-3 0 -3.5 2t-0.5 4zM73 143v-1v0l10 -10h1h2t3.5 1t5.5 3t4.5 4t0.5 3q0 3 -2 4t-4.5 1
h-4.5h-4h-3h-4t-3.5 -1t-1.5 -4zM145 129q0 -9 5.5 -15t13.5 -6q4 0 7 1.5t5 4.5t3 6.5t1 6.5q0 2 -1.5 4.5t-3.5 5t-4.5 4.5t-3.5 2h-2q-3 0 -6.5 -1t-6.5 -2.5t-5 -4.5t-2 -6zM86 100q2 0 6 2t8 5.5t7 7t3 7.5v3.5t-1 4l-2 3t-3 1.5h-1h-1q-1 -1 -3 -4t-4.5 -6t-4.5 -5
t-4 -3q-2 0 -3 1t-2 3.5t-1.5 4.5t-1 2.5l-2 2l-3 3l-3 3l-1.5 1.5h-1v0h-0.5h-0.5l-3 -3l-2 -2v-18l2.5 -1.5l5 -3t5.5 -3l3 -1.5l3 -3l1.5 -1.5t1 -0.5h2.5zM62 103v-6q0 -7 3.5 -11t12.5 -4q2 0 2 2.5v3.5q0 3 -1 6t-3 5t-5 4t-6 2l-1 -0.5t-2 -1.5zM91 87q0 -3 1 -4
t3 -1q5 0 10 3t5 9t-5 9v0h-1q-2 0 -4.5 -1.5t-4.5 -4t-3 -5.5t-1 -5z" />
</svg>
