<?xml version="1.0" standalone="no"?>
<!DOCTYPE svg PUBLIC "-//W3C//DTD SVG 1.1//EN" "http://www.w3.org/Graphics/SVG/1.1/DTD/svg11.dtd" >
<svg xmlns="http://www.w3.org/2000/svg" xmlns:xlink="http://www.w3.org/1999/xlink" version="1.1" viewBox="-10 0 266 256">
   <path fill="currentColor"
d="M66 202v46q0 2 1.5 3t3.5 1q1 0 2.5 -1t2.5 -2q-1 -32 0.5 -62.5t7.5 -61.5q0 -2 2 -5t2 -4l2 -1h3.5h5.5h6h4t2.5 -0.5l1.5 -0.5l70 -13l1 -1t1 -2v-1v0q0 -1 -0.5 -1.5l-0.5 -0.5h-5q-7 0 -14 1t-14 2.5t-14 3.5t-14 3q-2 2 -5 2.5t-6 0.5h-6h-6q-2 0 -4.5 -0.5
t-2.5 -3.5l0.5 -1l0.5 -1q6 -1 11.5 -3.5t11.5 -3.5q15 -2 30 -4.5t30 -5.5q2 0 3 -1.5t1 -3.5t-2 -2h-3q-7 0 -13.5 2.5t-13.5 3.5q-8 1 -17 2.5t-18 2.5q-5 2 -11 4t-12 2q-2 0 -2.5 -1t-0.5 -2q0 -3 6.5 -6t16 -6t20.5 -5t21 -4t16 -3t6 -2q0 -3 -2.5 -3.5t-4.5 -0.5
q-4 0 -9 1t-10 1v0q-1 0 -1 -0.5t-1 -0.5v-1q0 -2 2 -4t4.5 -3.5t5 -2t4.5 -0.5q4 0 7 1.5t5.5 3.5l5 4t6.5 2q3 0 4 -0.5t1 -3.5t-4 -5.5t-8.5 -4.5t-9 -3t-5.5 -1q-5 0 -9.5 3t-8 7t-6.5 7.5t-5 3.5q-3 0 -3.5 -1.5t-0.5 -4.5v-16t3 -15q6 -3 11 -6.5t8 -8.5v-1
q0 -2 -1 -3.5t-3 -1.5q-1 0 -4.5 2t-7 5t-6.5 5.5t-4 3.5q-1 0 -1.5 6t-1 13t-1 13t-0.5 7l1 2t2 2v1q0 2 -3.5 3.5t-9 2.5t-11.5 2.5t-11.5 3.5t-9 4.5t-3.5 7.5q0 4 2.5 6.5t2.5 6.5q0 3 -1.5 6t-2.5 6t-2.5 6t-2.5 6q0 2 -1 6.5t-1.5 10t-1.5 10.5t-1 8q-1 3 -0.5 8
t0.5 11q0 5 -0.5 10t-2.5 9zM144 216l1.5 1l3 2t2.5 2t1 2q1 0 4.5 3t8 6.5t8 6.5t4.5 3l1 2h2q3 0 5 -1.5t2 -3.5q0 -3 -5.5 -7t-12.5 -8.5t-13.5 -8.5t-9.5 -8v-3q0 -4 2 -6t5 -2.5t6 -0.5h7q2 -3 4.5 -3.5t5.5 -2.5q4 -4 7.5 -11t3.5 -13q0 -2 -0.5 -5t-1.5 -6t-2.5 -5.5
t-4.5 -2.5h-31q0 -4 2 -6t5.5 -3t8 -1.5t8 -1.5t5.5 -3t2 -6q0 -5 -2 -10h-12q-8 0 -16 1.5t-16 1.5q-3 0 -6 -1t-6 -1q0 4 1.5 5.5t1.5 5.5t-4.5 6t-10 5t-10.5 7t-5 10q0 1 0.5 2l0.5 1q3 -1 5 -3t4 -4.5l4 -5t5 -4.5q2 -1 5 -2t6 -2.5t5.5 -3t4.5 -4.5q0 -1 0.5 -2.5
l0.5 -1.5q1 -2 4 -2.5t6.5 -1t7 0t5.5 0.5h7q1 0 2 1t1 2q1 2 -2.5 3.5t-8.5 3t-9.5 5t-5.5 10.5q-5 0 -9 0.5t-8 1.5l-8 2l-8 2q-3 0 -3.5 2l-1 4t-0.5 4v3v2q0 1 0.5 2.5t0.5 3.5t0.5 3.5l0.5 1.5q0 3 3 5t4 5q3 4 6.5 5t6 1.5t6 0.5t7.5 1q0 1 0.5 4t1.5 3v2q0 6 -6 10
t-13 7.5t-13 7.5t-6 10h6l1 -1t3 -2l4 -2t3 -2t4.5 -4t8 -6t8 -5.5t4.5 -2.5zM99 220v2t2 1q1 0 4.5 -2.5t7.5 -6t7.5 -7t5.5 -4.5q-1 -1 -1.5 -2t-1.5 -2q-3 2 -7 4t-8 4.5t-6.5 5.5t-2.5 7zM167 202q0 2 0.5 2.5l2.5 2.5l3 3t4 3.5t4 3.5l3 3h1h1q1 0 3 -1t2 -3
q0 -1 -3 -4t-7 -6t-7.5 -5t-4.5 -2t-1.5 1t-0.5 2zM127 189q0 -2 2.5 -3.5t5.5 -2.5l6 -2t4 -1q3 0 6.5 1.5t3.5 5.5v2q-4 1 -8 1.5t-8 0.5q-1 0 -4.5 -0.5t-4.5 -0.5t-2 -0.5l-1 -0.5v0zM144 170q-1 2 -4 4.5t-7 4.5t-8 3t-6 1t-4.5 -0.5t-2.5 -2.5t4 -4.5t9 -5t10 -4.5
t6 -2q2 0 7.5 1.5t11 4t9.5 6t4 5.5q0 3 -1 3.5t-3 0.5q-5 0 -8 -2t-5.5 -5t-5.5 -5.5t-6 -2.5zM109 166q0 -4 3 -6.5t7 -4t8 -1.5h7h2.5h1.5l3 3l-1 1l-3 1.5t-7 3t-8 3.5t-6 4q-1 0 -2.5 0.5l-1.5 0.5h-1q-2 0 -2 -2v-3zM149 155q0 -2 1.5 -2.5t2.5 -1.5h8.5t8.5 1.5
t7 4.5t3 8q0 6 -5 6q-1 0 -5 -2t-8.5 -4.5t-8.5 -5.5t-4 -4zM95 46q-3 0 -8 3.5t-10 8t-8 8.5t-3 7q6 0 9.5 -3t6 -6.5t5.5 -6.5t8 -3h2.5t1.5 1q1 0 2 1.5t2.5 3l3 3t2.5 1.5l1.5 1.5t1.5 0.5q2 0 2.5 -1t0.5 -3q0 -3 -2.5 -5.5t-5.5 -5t-6.5 -4t-5.5 -1.5zM63 52l1.5 1
t1.5 2h1q4 0 7.5 -3.5t6.5 -7t6.5 -6.5t7.5 -3q3 0 5.5 2t5 4.5t4.5 4t5 1.5h1l0.5 -1l0.5 -1v-1v-1l-1.5 -1t-2.5 -2.5t-2.5 -3l-1.5 -1.5l-1.5 -1t-3 -2.5l-2.5 -2.5l-1 -1l-2.5 -2.5l-1 -1t-1 -0.5h-2.5l-5 4t-11 9.5t-10.5 10zM141 45v3q3 0 6 -2t5.5 -4.5t5 -4.5
t6.5 -2q3 0 5 1t4.5 3t4.5 3t5 1h1l1 -1t2 -1v-1q0 -3 -3.5 -5.5t-7.5 -5t-8 -3.5t-5 -1h-1.5h-1.5z" />
</svg>
