<?xml version="1.0" standalone="no"?>
<!DOCTYPE svg PUBLIC "-//W3C//DTD SVG 1.1//EN" "http://www.w3.org/Graphics/SVG/1.1/DTD/svg11.dtd" >
<svg xmlns="http://www.w3.org/2000/svg" xmlns:xlink="http://www.w3.org/1999/xlink" version="1.1" viewBox="-10 0 266 256">
   <path fill="currentColor"
d="M57 248q0 2 1.5 2.5t2.5 0.5h2h2q0 -1 2 -3t4.5 -4t4 -4t2.5 -3q2 -2 3.5 -6t3 -7.5t3.5 -6.5t6 -3l1 0.5l1 0.5q1 0 1.5 2t1.5 4t1.5 3.5t0.5 2.5v2l9 16h0.5h1.5q2 0 4.5 -1t2.5 -5v0q-11 -14 -18 -30.5t-7 -33.5q0 -1 0.5 -4.5t0.5 -4.5q3 -4 8.5 -6t9.5 -4
q2 -5 3.5 -9t2.5 -8t1.5 -8t0.5 -9q0 -8 -1 -17.5t-6 -16.5q-1 -2 -4.5 -3.5l-7 -3t-6.5 -3t-3 -3.5q0 -4 3 -8t6.5 -7t8 -5t8.5 -3q1 -3 1.5 -6t0.5 -6q0 -6 -4.5 -9.5t-10 -5t-11 -2t-9.5 -1.5q-3 -1 -4.5 -2.5l-3 -3t-3.5 -3t-5 -1.5q-2 0 -3 0.5t-1 2.5q0 5 2.5 7t5.5 4
t5 4t2 6q0 2 -1.5 3.5t-4.5 3t-5.5 2.5t-3.5 2q-3 3 -5.5 6.5t-4 8l-3 9t-1.5 8.5q0 2 1 2.5t2 0.5q3 0 4 -1.5t2 -4t2 -4.5l2 -4q0 -1 1.5 -3t2.5 -4t2 -3.5l1 -1.5q3 -3 7 -5.5t7 -6.5l0.5 -1t1.5 -2.5t1.5 -2.5t0.5 -2q1 -1 3 -1h3h4.5t5 1t4 2.5t1.5 4.5t-3 5.5t-6.5 4
t-7 3.5t-4.5 5q0 1 -1 3.5t-2 5.5t-2 5.5t-1 3.5q-1 2 -4 3l-7.5 2.5t-8.5 5t-7 10.5v15v9v10t1 10t3 9q2 2 6.5 4.5t8.5 4.5t7.5 4t3.5 5v31q-4 7 -7.5 14t-7.5 13q-1 2 -3.5 5l-5 6t-4.5 5t-2 3zM159 174q2 4 2.5 8t1 9t0.5 9.5v7.5v8v11v11v7q5 0 6.5 -1t2.5 -5
q0 -3 -0.5 -10t-1 -15t-1 -15t-0.5 -10l-0.5 -2t-0.5 -4t-0.5 -4l-0.5 -2v-1v-1l1.5 -1t1.5 -2h1q5 0 8 5t5 12t3 15.5t2.5 16t3.5 12t4 4.5q3 0 4 -1.5t1 -3.5q0 -5 -1.5 -13t-4 -17.5t-5 -17t-4.5 -10.5q-2 -2 -4 -4.5t-4.5 -4.5t-5.5 -3t-6 0v-17l1 -0.5t2 -0.5
q4 -1 9 -2.5t8.5 -3.5t6 -5.5t2.5 -9.5q0 -5 -2.5 -8t-6.5 -5t-8.5 -3t-8.5 -1q-2 0 -2 -3v-3q0 -1 0.5 -2.5t0.5 -2.5q3 0 6.5 -1.5t7 -3.5t5.5 -5t2 -7q0 -9 -3.5 -13t-7.5 -6t-7 -2.5t-3 -3.5v-18q0 -4 3 -5t7 -2t7 -2.5t3 -5.5q0 -6 -7 -6h-1.5t-2.5 1q-3 2 -7 4.5
t-8.5 5t-7.5 4t-3 2.5q-1 0 -3.5 2l-5 4t-5.5 4t-4 3q-4 3 -5 4t-1 4v3t2 1q4 0 7 -2.5t5.5 -5.5t5.5 -5.5t7 -2.5q2 0 3 1t2 2.5t1 3.5v3q0 6 -3 8.5t-6.5 4t-6 4.5t-2.5 10q0 5 1.5 8t3.5 4.5l4 3t4 2.5t3.5 2.5t1.5 4.5v2.5v1.5q-5 1 -9.5 2t-7 3.5t-4.5 5.5t-2 9
q0 1 0.5 3.5t1 5.5t1.5 5.5t2 2.5h14l2 4q1 0 1 2v2q0 5 -1 7t-2.5 3t-3.5 2t-4 5t-4 7.5t-3 6.5t-2 6.5t-2 7.5q0 2 -0.5 6.5l-1 9l-1 9t-0.5 6.5q-1 1 -1 3v4v4.5t4 1.5t5.5 -4.5t2 -11t0.5 -13v-9.5l0.5 -3.5l1 -7t1 -6.5t0.5 -4q1 -3 2.5 -5t5.5 -2h1h1zM68 174
q-2 0 -3.5 1t-1.5 3v37q3 0 4.5 -1t2.5 -3t1.5 -4.5t0.5 -4.5v-2.5t0.5 -6l1 -7t0.5 -5.5v0q0 -2 -2 -4.5t-4 -2.5zM114 208q1 1 2 1.5t2 0.5q2 0 2 -1v-3t-0.5 -7.5t-2 -12t-3.5 -11t-3 -4.5h-1l-0.5 0.5t-1.5 0.5v3.5v2.5q0 5 0.5 8t1 6.5t2 7.5t2.5 8zM74 154
q-2 -1 -2 -2v-2v-2q1 0 3 -1.5t4.5 -3l5 -3t4.5 -1.5q1 0 3.5 1l5 2t4.5 3t2 4q0 3 -2 4t-4.5 2t-5 1h-3.5q-5 0 -8 -0.5t-7 -1.5zM66 130q0 -3 2.5 -6.5t5.5 -7t7 -5.5t7 -2h2q3 2 6.5 4.5l7 5t6 5.5t2.5 7l-0.5 2.5l-0.5 2.5q-1 2 -2 2.5t-3 0.5h-3t-2 -1l-2 -2l-3 -3
q-3 -2 -3 -4.5v-4.5t-1.5 -3t-5.5 -1v12q0 1 -2 2.5t-4.5 2.5t-5 1.5t-3.5 0.5q-3 0 -4 -3t-1 -6zM148 118l3 -3h3t7 -0.5t6 -0.5h2h5t5.5 1t4 3t1.5 5q0 4 -2 7t-5.5 4.5t-7.5 2.5t-7 1q-1 0 -3.5 -0.5l-5 -1t-4.5 -1.5t-2 -3v-14zM92 98q0 -3 0.5 -6t4.5 -3q3 0 6 2t5 4.5
t2.5 6t0.5 6.5q0 4 -3 4t-5.5 -1.5t-5 -3.5t-4 -4.5t-1.5 -4.5zM81 89q3 0 4 3t1 5q0 3 -1.5 5.5t-4 4t-5.5 2.5t-5 1h-1l-0.5 -0.5l-0.5 -0.5v-12q0 -2 1.5 -3t4 -2.5t4.5 -2t3 -0.5zM151 78v-3.5t1 -2.5q4 -3 7 -4t7 -1q6 0 10.5 2t4.5 7t-4 7.5t-8 2.5h-6q-4 0 -6.5 -0.5
t-4 -2t-1.5 -5.5z" />
</svg>
