<?xml version="1.0" standalone="no"?>
<!DOCTYPE svg PUBLIC "-//W3C//DTD SVG 1.1//EN" "http://www.w3.org/Graphics/SVG/1.1/DTD/svg11.dtd" >
<svg xmlns="http://www.w3.org/2000/svg" xmlns:xlink="http://www.w3.org/1999/xlink" version="1.1" viewBox="-10 0 266 256">
   <path fill="currentColor"
d="M47 244q0 2 0.5 4t2.5 1q5 -1 9.5 -6t8.5 -11t8 -11t6 -5q4 0 7 4.5t5.5 10t5.5 10t6 4.5t4.5 -1t2.5 -5q1 0 0 -1t-1 -2q-7 -8 -12.5 -14.5t-9 -13t-5.5 -14.5t-2 -20v-3.5t2 -1.5q1 -1 3 -2l5 -2.5l5 -2.5t3 -2q3 -1 5 -5.5t3 -7.5q0 -3 0.5 -9t1 -12.5l1 -13t0.5 -8.5
v-1q0 -10 -3.5 -14.5t-7.5 -6.5t-7.5 -4t-3.5 -6q0 -7 4 -10.5t8.5 -6t8.5 -6t4 -10.5q0 -8 -4 -11t-9.5 -4t-11.5 -1q-7 0 -11 -2q-2 0 -4 -2t-4.5 -4t-4.5 -3t-4 -1q0 8 3.5 13.5t11.5 5.5q1 0 1 1v1q0 3 -4 6.5t-8.5 8.5t-8.5 11t-4 14q5 0 7.5 -3.5t5 -8t4.5 -9t6 -6.5
q0 -1 2.5 -2t3.5 -2q2 -1 3.5 -3t3.5 -3.5t4 -2.5t5 -1q4 0 6.5 2.5t2.5 7.5q0 2 -2 4l-4 4t-4.5 3.5t-3.5 1.5q-3 3 -5 6.5t-3.5 7t-3 6.5t-2.5 4q-3 1 -6.5 1.5t-6.5 1.5t-5.5 2t-5.5 4q-3 4 -4 9.5t-1 11.5v11v9q0 10 1 16t3.5 11t7.5 8t14 7l1 5v3.5v7.5t-0.5 8.5
t-0.5 7.5l-2.5 7.5t-4.5 6.5q-1 2 -4 5.5t-6.5 7.5t-6.5 7.5t-5 4.5v2v1zM52 211q0 2 1.5 3t2.5 1q4 0 6 -3.5t2.5 -8t0.5 -9v-7.5v-9q-1 -1 -2.5 -2t-2.5 -1t-2 0.5t-1 1.5q0 6 -0.5 10.5t-1.5 8.5t-2 7.5t-1 7.5zM98 183v7.5t1 8.5t3 6.5t6 2.5q0 -1 -1 -6.5t-2 -11.5
t-2 -10.5t-3 -4.5h-1l-1 2v6zM127 203q0 3 1.5 3h4.5h26.5t26.5 -1q2 0 5.5 -0.5t8 -1t7.5 -1.5t3 -2q0 -2 -1 -3.5t-3 -1.5h-33v-30l0.5 -0.5t1.5 -0.5q4 -3 9.5 -3t10.5 1q2 -1 2.5 -2.5t0.5 -3.5q0 -3 -0.5 -3.5t-3.5 -0.5q-5 0 -9 0.5t-9 0.5q-2 0 -3 -1t-1 -3v-5v-3
q0 -3 1 -4t3 -2t4.5 -1.5t3.5 -1.5q7 -7 11 -15t6.5 -17.5t3.5 -19t1 -19.5v-4q0 -3 -0.5 -6.5t-2 -6.5t-4 -5.5t-5.5 -2.5h-18q-9 0 -17 0.5t-14 3t-9.5 9t-3.5 18.5q0 7 0.5 15.5t2.5 17t5 16t8 13.5l3 1.5t5.5 3l5 3t2.5 2.5v14l-24 4l-5 5q1 1 3 2t4 1q4 0 9 -1.5
t10 -1.5q2 0 3 1t1 3v4v3v2v4t-0.5 6t-0.5 6v4q-1 1 -2.5 1.5t-2.5 1.5h-19h-2t-4.5 0.5t-4.5 1.5t-2 3zM65 152q0 -2 2 -4t4.5 -4t5.5 -3t5 -1q5 0 8 3t6 7q0 1 0.5 1.5t0.5 1.5q0 2 -2 3.5t-4.5 2.5t-5.5 1h-5q-1 0 -4 -0.5t-5.5 -1.5t-4 -2.5t-1.5 -3.5zM79 111l1 -0.5
l1 -0.5q3 0 6 2t6 5l5.5 5.5l4.5 4.5v5q0 3 -0.5 6t-4.5 3q-5 0 -7.5 -3t-4.5 -6.5t-3 -6.5t-4 -3v0l-3 14l-1.5 0.5l-3 1t-3 1.5t-2.5 1h-1q-2 0 -3.5 -0.5t-1.5 -2.5v-12l1 -1l2 -2t3 -2.5t4.5 -3t5 -3.5t3.5 -2zM142 96q0 -2 1.5 -3.5t2.5 -1.5h18q1 0 1 2.5v4.5v3v12
t-1 12q-1 0 -2 0.5l-1 0.5q-4 0 -7.5 -3.5t-6 -8t-4 -10t-1.5 -8.5zM173 92l2 -1l1.5 -0.5t3.5 -0.5t4 -0.5t3 -0.5h2q3 0 3 2v4q0 3 -1 8t-3 10t-5 9t-6 4l-0.5 -0.5l-0.5 -0.5l-1.5 -0.5l-1.5 -0.5v-32zM83 86q4 0 8 0.5t7 2.5t4.5 5t1.5 8v2q0 1 -0.5 4t-0.5 4
q-1 0 -2 0.5l-1 0.5q-3 0 -5.5 -2t-6.5 -5q-2 -2 -2 -3.5v-3.5t-0.5 -3.5t-2.5 -3.5q-1 0 -3 3.5t-5 7.5t-6.5 7t-9.5 3q0 -7 0.5 -11.5t2 -7.5t5.5 -4.5t12 -3.5h2h2zM140 72q0 -5 1 -10t3 -9t6 -6t11 -2h1.5t1.5 1q0 4 0.5 7t0.5 5.5v5.5v6v6q0 1 -0.5 3l-0.5 2h-21l-3 -3
v-6zM183 44q7 0 11 4.5t4 12.5v10t-1.5 6t-4.5 3t-8 1h-4h-4q-1 -1 -2 -2.5t-1 -2.5v-23q0 -4 3.5 -6.5t6.5 -2.5z" />
</svg>
