<?xml version="1.0" standalone="no"?>
<!DOCTYPE svg PUBLIC "-//W3C//DTD SVG 1.1//EN" "http://www.w3.org/Graphics/SVG/1.1/DTD/svg11.dtd" >
<svg xmlns="http://www.w3.org/2000/svg" xmlns:xlink="http://www.w3.org/1999/xlink" version="1.1" viewBox="-10 0 266 256">
   <path fill="currentColor"
d="M177 216q0 4 1.5 10t4.5 11.5t7.5 9.5t9.5 4q6 0 6 -6q0 -2 -3 -4.5t-6.5 -5.5t-6.5 -7.5t-3 -11.5q0 -4 1.5 -8t3.5 -7.5t3.5 -7t1.5 -8.5q0 -1 -0.5 -4t-1.5 -4l-12 -12v-0.5v-1.5q0 -3 2 -4.5t5.5 -2.5t5.5 -3t2 -6q0 -3 -1.5 -6t-1.5 -5v-1q0 -1 0.5 -2l0.5 -1h14
q2 0 2 -2v-2q0 -2 -1 -3.5t-3 -1.5h-4h-4q-5 0 -10.5 1.5t-10.5 1.5q-7 0 -7 -6q0 -4 2 -5t5.5 -2t7.5 -2t7.5 -4t5.5 -9t2 -16q0 -3 -0.5 -4t-2.5 -1q-3 0 -3.5 4.5t-2.5 9.5t-5.5 9.5t-11.5 4.5h-1q0 -1 -0.5 -1.5l-0.5 -0.5q-1 -1 -1 -4v-5q0 -6 1.5 -10t3 -6t3.5 -3.5
t4 -3.5t3.5 -6t1.5 -10q1 -2 3.5 -2.5t5.5 -0.5t5.5 -0.5t2.5 -3.5v-2.5t-1 -1.5h-4h-4q-15 0 -30.5 2t-30.5 3h-2.5t-3.5 0.5t-4 0.5h-2v2v2t1 1h25q0 1 0.5 2.5t1 3.5t1 3.5t0.5 2.5t0.5 3t2.5 3q3 2 5 2.5t4 3.5q-1 6 -1.5 12t-0.5 12q-1 2 -3 2h-5q-4 0 -6 -2t-3 -4.5
t-1 -5.5t-0.5 -5.5t-1.5 -4t-4 -1.5q-2 0 -3.5 1.5t-1.5 3.5v2l0.5 0.5t0.5 1t1 2.5l0.5 2t1.5 4.5t1.5 4.5l0.5 2q2 3 4 4.5t5 1.5h5.5t4.5 0.5t3.5 2.5t1.5 7v3q0 2 -1 2q-1 3 -5 3.5l-8 1t-7.5 3t-3.5 10.5q0 4 1.5 7l3 6l3 6t1.5 7v2v1l-1 1.5t-2.5 3t-2.5 3t-2 1.5
q0 1 -2.5 7t-5 12.5t-4.5 12t-2 6.5q0 3 1 4.5t4 1.5q2 0 4 -3.5t4 -8.5t3.5 -11.5t3 -11.5t3.5 -8.5t4 -3.5t3 1.5t1 3.5t1 4t4 2q2 0 3 -2t1 -4q0 -3 -1.5 -6t-1.5 -6t2.5 -5t5.5 -2q1 0 3.5 3t5.5 6.5t4.5 6.5t1.5 5q0 4 -1.5 7.5t-3.5 6.5t-3.5 7t-1.5 8zM56 231
q0 2 1 3.5t3 1.5q4 0 7.5 -3.5t6 -8t4 -10t3.5 -10t3.5 -8t4.5 -3.5q2 0 3.5 2.5t3 6.5t3 8.5t2.5 8.5t3 6.5t5 2.5t4 -1.5t1 -3.5q0 -4 -2.5 -7t-3.5 -6q-1 -1 -2.5 -4.5t-3.5 -7.5l-4 -8l-3 -6l-2.5 -7.5t-1.5 -8.5t2.5 -6t5.5 -3.5t6.5 -3t5.5 -4.5q3 -4 4 -9.5t1.5 -11
t0.5 -11v-10.5v-14t-2 -15q0 -3 -3 -5t-7 -3.5t-7 -3.5t-3 -4q0 -4 3 -6.5l6 -5t5.5 -4.5t2.5 -6t-3 -6.5t-6.5 -4t-8 -2.5t-6.5 -3q-3 -2 -3.5 -5t-1.5 -6t-2.5 -5t-5.5 -2q-5 0 -5 7q0 2 1 4.5t3 4.5t3.5 4.5t1.5 5.5q0 2 -5 5.5t-10.5 7.5t-10.5 9.5t-5 13.5q0 3 3 3
q4 0 5 -1.5l2 -3t1 -4t1 -3.5q3 -4 6 -6t6.5 -4t6.5 -4.5t6 -5.5l1 -2t2 -2l1.5 -0.5t2.5 -0.5q4 0 6 1t2 6q0 2 -1 3t-2.5 1.5t-3 1.5t-2.5 1q-5 5 -5 7.5t0.5 4.5t-1.5 3.5t-11 4.5q-7 3 -10.5 7.5t-5 11t-1 13.5t-0.5 13q0 1 -0.5 3t-0.5 3q0 4 0.5 9.5t1.5 10.5t4 9t8 6
q1 0 2.5 0.5t4 1.5t4 1.5t2.5 2.5v2.5v3.5q0 8 -2 16t-6 15t-8.5 14t-9.5 14q-1 1 -1 2v2zM54 201q0 3 3 3h1.5h0.5l1.5 -1.5l3 -3l3 -3t1.5 -3.5l0.5 -2.5t1 -5.5t1 -5.5t0.5 -4.5v-1q0 -3 -1 -5.5t-4 -3.5q-3 2 -4 5t-1.5 6t-0.5 6.5t-1 6.5t-3 5.5t-2 6.5zM103 172v2
q1 2 2 5.5t2 6.5t1.5 5l0.5 2h7v-5.5t-1 -9t-3 -7.5t-6 -3q-2 0 -2.5 1t-0.5 3zM149 145q0 -2 1.5 -4t3.5 -3t4.5 -1.5t4.5 -0.5t2.5 0.5t1.5 2.5q1 5 1.5 9t0.5 9t-3.5 5.5t-6.5 0.5t-5 -2t-3 -5t-1.5 -6t-0.5 -5zM175 138q0 -3 1 -4.5t4 -1.5t4.5 1t2.5 3t1.5 4.5t0.5 3.5
q0 5 -3.5 7.5t-7.5 2.5q-1 0 -2 -2t-1 -4.5v-5.5v-4zM71 145q0 -2 1.5 -4t4 -3.5t5.5 -3t5 -1.5t4.5 1.5t5.5 3t4.5 4t1.5 4.5v3t-1 2h-22l-1.5 -0.5t-3 -1.5l-3 -2t-1.5 -2zM83 111l-0.5 0.5l-0.5 0.5q0 3 -0.5 6t-1.5 6.5t-3.5 5.5t-6.5 2h-2t-2 -2v-16q0 -3 3 -5
t6.5 -4.5t7 -3.5t5.5 -1q3 0 6.5 1t7 3.5t5.5 5t2 6.5v1v2.5t-0.5 5t-0.5 4.5v3q-1 1 -2 1h-2q-4 0 -5.5 -1.5t-6.5 -4.5q-2 -1 -2 -4t-0.5 -5.5t-1.5 -4.5t-5 -2zM88 74q1 0 4.5 0.5t7 1.5t6 3t2.5 5v15q-7 0 -10 -2.5t-4.5 -6t-2.5 -6t-3 -2.5q-1 0 -2.5 3t-3.5 6.5t-6 6
t-11 2.5q0 -5 1.5 -9.5t4.5 -8t7 -6t10 -2.5zM160 59q0 -2 1.5 -3.5t3.5 -2t4 -0.5h5h4t3 2l0.5 2l0.5 2q0 6 -3.5 8t-9.5 2l-2 -0.5t-3 -0.5q-4 -3 -4 -9zM141 32q1 0 3.5 0.5t5 0.5t5 0.5t3.5 0.5h1h1l2 -1l2 -1h5t6.5 -0.5t7 -0.5h4.5q2 -1 4.5 -2.5t2.5 -3.5t-2 -2.5
t-4 -0.5h-2h-2t-2 0.5t-2.5 0.5h-1.5q-2 1 -6.5 1t-10 0.5t-10.5 1t-7 0.5q-3 2 -3 5v0.5v0.5z" />
</svg>
