<?xml version="1.0" standalone="no"?>
<!DOCTYPE svg PUBLIC "-//W3C//DTD SVG 1.1//EN" "http://www.w3.org/Graphics/SVG/1.1/DTD/svg11.dtd" >
<svg xmlns="http://www.w3.org/2000/svg" xmlns:xlink="http://www.w3.org/1999/xlink" version="1.1" viewBox="-10 0 266 256">
   <path fill="currentColor"
d="M199 246q1 2 2 2.5t3 0.5q4 0 5.5 -3.5t1.5 -6.5q0 -15 -2.5 -29.5t-2.5 -29.5q0 -29 2 -56.5t6 -56.5v-2q0 -6 -4.5 -10t-10.5 -7.5t-12.5 -6t-10.5 -5.5l-1.5 -0.5l-1.5 -0.5l-1.5 0.5t-3 2t-0.5 2.5l12 12v3.5v6.5v4v4.5v4.5v2q0 2 -0.5 4.5t-0.5 5t-0.5 4l-0.5 1.5
l-2 2q1 12 0 23.5t-1 23.5v13q0 1 0.5 4l0.5 3q0 15 -2 30t-2 30q0 2 1 2.5t3 0.5t3.5 -4.5t2.5 -12t1 -16v-16.5v-14.5v-9.5q0 -2 0.5 -8t1 -14.5t1 -18t1 -17.5t1 -14.5t0.5 -8.5v-3v-4t1 -4t3 -2q3 0 5.5 1.5t4 4t2.5 5.5t0 6l-0.5 2l-1 4t-1 3.5l-0.5 1.5q-3 21 -3 42
v42q0 19 1 38t0 39zM47 242q0 1 0.5 2.5t2.5 1.5q6 0 9 -4.5t5.5 -10t4.5 -10t5 -4.5q4 0 6 4t4 9t4.5 9t6.5 4q3 0 4 -2t1 -4q0 -5 -2.5 -9t-5.5 -8l-6 -8t-4 -8q-2 -6 -3 -12.5t-1 -12.5t2.5 -8.5t5.5 -4t6.5 -3.5t5.5 -7q2 -4 3 -10.5t1.5 -12.5t0.5 -12v-10v-2v-3.5
t-0.5 -5.5t-1 -5.5t-0.5 -4.5q-2 -3 -5.5 -5.5t-6.5 -4.5t-5.5 -4t-2.5 -6q0 -6 3.5 -10.5t7 -8.5t7 -8.5t3.5 -10.5q0 -8 -4 -12t-10 -5.5t-13 -2.5t-13 -2l-0.5 -0.5l-0.5 -0.5q-2 0 -4 2l-3 3q1 4 4.5 4.5t6.5 1t6 1.5t3 5t-4 7t-8.5 6.5t-8.5 8.5t-4 11q0 3 1 5.5t4 2.5
q2 0 3.5 -2t3 -5.5t2 -6.5t1.5 -5l14 -15q1 -3 2 -5t5 -2t6 1.5t2 5.5q0 5 -1.5 8t-4 5.5t-5.5 4.5t-5.5 5t-3.5 7.5t0 11.5q-1 4 -4.5 6t-8 2.5t-8.5 2t-6 4.5v21q0 4 -0.5 10t-0.5 12.5t1 12.5t3 10q3 5 5.5 7t5 3t5 1.5t4 2.5t2.5 6.5t1 13.5q0 2 -0.5 5.5l-1 7t-1.5 6.5
t-2 5q-2 3 -5.5 6t-6.5 6.5t-5.5 7.5t-2.5 8zM151 182v50q0 1 1 2l2 2h1q2 0 3 -2t1.5 -4.5t0.5 -5.5v-3q0 -7 -1 -13.5t-1 -13.5v-1q0 -1 0.5 -5t0.5 -8.5t0.5 -8t0.5 -5.5v-1q0 -8 -0.5 -15t-0.5 -13.5t-0.5 -13.5t-0.5 -16q-1 -4 -4 -6.5t-7 -5t-7 -5.5t-3 -7
q0 -3 3.5 -4.5t7.5 -3t7.5 -3.5t4.5 -7v-2v-4v-4v-2v-9v-6.5t-0.5 -7.5t-1.5 -9q-2 -3 -6 -3q-1 0 -2 0.5t-1 1.5v20q0 1 -7 2t-15.5 2.5t-15.5 3.5t-7 5h1q0 1 0.5 1.5l0.5 0.5q3 0 6.5 -0.5t6.5 0t5 2.5t2 6q0 9 -3 12.5t-7 4.5t-7 1.5t-3 3.5q0 2 2 2h3q3 0 6 -1t5 -1h2
q1 1 3 3.5t4.5 5l4.5 4.5t3 2q0 1 1.5 2t2.5 2t2.5 2l1.5 1q2 3 3 10.5t1.5 16t0.5 16.5v12v10t-1 10zM54 178q1 5 0.5 9t-1.5 8.5t-2 8.5t-1 9q5 0 7.5 -3t3.5 -6.5t1 -7.5v-8v-3t-0.5 -4t-1.5 -3.5t-3 -1.5q-1 0 -1.5 0.5zM88 183q0 3 0.5 7t1.5 8t3 6.5t6 2.5
q0 -2 -0.5 -7t-1 -10.5t-2 -10t-4.5 -4.5q-1 0 -2 1t-1 2.5v2.5v2zM113 144v16q0 5 -0.5 13t0.5 15t4.5 12t11.5 5h4.5t5 -1t4 -2.5t1.5 -4.5v-43q1 -3 1.5 -7t0.5 -8q0 -2 -0.5 -5t-0.5 -5t-2 -3.5t-5 -1.5v8t-0.5 10.5t-2.5 9t-8 3.5q-1 0 -3.5 -1t-2.5 -3v-25
q0 -1 -2 -1.5l-2 -0.5q-2 0 -3.5 1t-0.5 4v15zM129 161q4 0 6 2t2.5 5t0 7t-0.5 7v4.5t-0.5 5t-2 4t-4.5 1.5q-2 0 -5 -1t-3 -4v-29l1 -1l1 -1h2h3zM57 150q4 -3 8.5 -5t9.5 -2h4.5t5.5 1t5 3t2 4q0 3 -2 4.5t-5 2.5t-5.5 1.5t-4.5 0.5t-5 -0.5t-5.5 -2t-5 -3.5t-2.5 -4z
M75 124h-2q1 8 -3.5 12t-11.5 4l-1 -0.5l-1 -0.5l-0.5 -1.5t-0.5 -3.5t-0.5 -4l-0.5 -2q0 -3 3.5 -5.5t7.5 -5t8.5 -4t5.5 -1.5q9 0 12.5 6.5t3.5 13.5v1.5v3.5t-0.5 3t-1.5 1q-5 0 -7.5 -2.5t-4 -5.5l-3 -6t-3.5 -3zM56 101q0 -7 4 -11t12 -4v18q0 2 -2 3l-4 2t-4 1.5
t-3 0.5q-2 0 -2.5 -1t-1 -2.5t0 -3.5t0.5 -3zM80 87q8 0 11.5 4t3.5 13q0 2 -0.5 3.5t-3.5 1.5q-4 0 -6.5 -2t-3.5 -5.5t-1 -7.5v-7zM144 48q5 0 6.5 2t1.5 8q0 11 -11 11h-1h-1.5t-2 -0.5t-0.5 -1.5v-14q0 -3 3 -4t5 -1z" />
</svg>
