<?xml version="1.0" standalone="no"?>
<!DOCTYPE svg PUBLIC "-//W3C//DTD SVG 1.1//EN" "http://www.w3.org/Graphics/SVG/1.1/DTD/svg11.dtd" >
<svg xmlns="http://www.w3.org/2000/svg" xmlns:xlink="http://www.w3.org/1999/xlink" version="1.1" viewBox="-10 0 266 256">
   <path fill="currentColor"
d="M77 199q-2 5 -3 8.5t-2.5 6t-3 6t-5.5 7.5q-1 2 -3.5 5.5t-2.5 4.5q-2 2 -4.5 5.5t-2.5 6.5h8t5 -1t4 -3.5t4 -6.5q0 -1 1.5 -3.5t3 -5.5l3 -6t1.5 -4q1 -1 2 -1.5t2 -0.5l1 0.5t2 0.5q0 1 1.5 4.5t3.5 7t3.5 7t1.5 4.5q1 3 1 4q0 2 0.5 3t1 1h2.5q4 0 6 -1.5t2 -5.5v-1
q-1 -4 -4.5 -7.5t-5.5 -6.5q0 -1 -2 -5.5t-4 -10t-4 -10t-2 -5.5v-37l3 -2q2 -1 5 -2t6 -2.5t5.5 -3t3.5 -3.5q2 -3 3 -6.5t1 -7.5v-8t-1 -6q1 0 1.5 -1.5l0.5 -1.5v-1q0 -3 -0.5 -7t-1 -8.5t-1.5 -8.5t-3 -6q-3 -3 -6.5 -4.5t-7 -2.5t-6 -2t-2.5 -5q0 -5 4 -7.5t8.5 -4.5
t8.5 -4.5t4 -8.5q0 -8 -4 -11.5t-9.5 -5t-11.5 -2t-11 -1.5q-3 -1 -5 -3t-3.5 -4.5t-4 -4t-5.5 -1.5q-2 0 -3 1t-1 4q0 6 3.5 9t7 5t7 3.5t3.5 5.5q0 1 -2.5 3t-6 4.5t-6.5 4t-4 2.5q-3 4 -6 11t-3 11q0 1 0.5 2l0.5 1h1h1l1.5 -0.5l1.5 -0.5q2 -4 4.5 -8t5.5 -8.5t6.5 -7.5
t8.5 -4l8 -15h0.5h1.5q2 0 5 0.5t5 1t3 2.5t1 5v4q-6 3 -10 5.5t-6.5 5.5t-4 7t-3.5 10q-9 1 -17 4.5t-11 12.5q0 2 -0.5 5t-0.5 6.5t-0.5 6.5t-0.5 4v4q0 5 0.5 9t1.5 10q1 8 5 11.5t9 5.5t8.5 3t3.5 2v39zM122 246q0 3 1.5 3h3.5q6 0 8 -6q2 -24 2.5 -47.5t3.5 -47.5
q0 -1 0.5 -2t0.5 -2h1q5 0 5 5q3 23 4.5 46.5t0.5 47.5q0 3 1.5 4.5t3.5 1.5q4 0 5 -2t1 -5q0 -11 -1 -22.5t-2 -22.5l-2 -22t-1 -22q0 -4 1.5 -7.5t3.5 -6.5t4 -6.5t3 -6.5q0 -3 0.5 -10.5t0.5 -16t0.5 -16t0.5 -10.5v-2q0 -3 -0.5 -6.5t-1.5 -7t-2.5 -6t-4.5 -3.5h-10
q-7 0 -12 1t-8.5 3.5t-5.5 7t-2 11.5q0 15 1 29t1 29q3 4 4.5 9t1.5 11v1v1l-3 6q-2 15 -2 31t-1 31q-1 7 -3 13.5t-2 13.5zM184 203q0 3 0.5 10.5t2 15t4.5 13.5t8 6q3 0 3.5 -2t0.5 -5q0 -7 -3 -13.5t-5 -12.5t-2 -10v-11q0 -13 3 -25t7 -25q0 -1 0.5 -2.5t1 -3.5l1 -4
l0.5 -2q0 -6 -2 -12t-4 -13t-4.5 -14t-2.5 -14v-2q0 -2 0.5 -3.5t0.5 -3.5v-2q2 -4 4.5 -8.5t2.5 -8.5v-4.5t-3 -1.5q-4 0 -6.5 5.5t-4 12.5t-2.5 14t-1 10q0 5 2.5 9t2.5 9q0 7 -3 13t-7 11.5t-7.5 11t-3.5 11.5q3 0 6.5 -4t6.5 -8.5t6 -9.5t5 -7q3 2 4 4.5t1 6.5
q0 7 -3 12.5t-5 12.5q-4 10 -4.5 21.5t-0.5 22.5zM60 166q-2 0 -3 2t-1 4v36q0 2 1 2h2q2 0 4.5 -3t2.5 -6v-30q0 -1 -1.5 -2.5t-3.5 -2.5v0h-1zM103 168h-2t-2 1v32q0 2 1.5 3t3.5 1h1h2v-5.5t0.5 -9t0.5 -9v-5.5v-1q0 -3 -1 -5t-4 -2zM71 144q0 -1 2 -3l4.5 -4.5t5 -4
t4.5 -1.5l2.5 2.5l3.5 3.5t3.5 4t1.5 4q0 1 -0.5 1h-0.5q0 1 -2 2t-3 1h-7h-4q-2 0 -4.5 -0.5t-4 -1.5t-1.5 -3zM58 120q0 -2 0.5 -3t2.5 -2q1 0 3.5 -0.5t3.5 -0.5q2 -1 4 -3t4 -4.5t4 -4t4 -1.5h1q1 0 3 2t4.5 3.5l5 3t2.5 2.5q2 1 2.5 1t1 0.5l1 1t2.5 1.5v6v4
q0 2 -0.5 4t-1.5 3.5t-4 1.5h-1q0 -1 -1.5 -2t-3 -2.5t-2.5 -3t-2 -1.5q-1 -1 -1.5 -3.5l-1 -5t-1 -4t-2.5 -1.5q-1 0 -3 4l-4.5 9t-6 9.5t-8.5 4.5l-0.5 -0.5t-1.5 -0.5q0 -4 -1.5 -8.5t-1.5 -9.5zM134 114h29q0 5 -0.5 9t-2 7t-5 5t-9.5 2q-4 0 -6.5 -2.5t-3.5 -6
t-1.5 -7.5t-0.5 -7zM58 101q0 -6 5 -11t11 -5q2 0 3.5 1t1.5 3q0 3 -1.5 6t-4 6t-5.5 4.5t-6 1.5q-2 0 -3 -2.5t-1 -3.5zM134 91q0 -1 0.5 -3t0.5 -3l1 -1h25v17l-5 5h-18q-1 0 -1.5 -0.5t-0.5 -1.5q-2 -3 -2 -5.5v-7.5zM88 89q0 -3 0.5 -4t3.5 -1q7 0 10 5t3 10
q0 2 -0.5 3.5t-2.5 1.5t-4.5 -1.5t-4.5 -3.5t-3.5 -5t-1.5 -5zM135 70q0 -3 0.5 -7.5t3.5 -6.5q1 0 2.5 -0.5t3.5 -0.5t4 -0.5t3 -0.5h2q1 0 4 0.5t3 2.5v19h-25q-1 0 -1 -2.5v-3.5z" />
</svg>
