<?xml version="1.0" standalone="no"?>
<!DOCTYPE svg PUBLIC "-//W3C//DTD SVG 1.1//EN" "http://www.w3.org/Graphics/SVG/1.1/DTD/svg11.dtd" >
<svg xmlns="http://www.w3.org/2000/svg" xmlns:xlink="http://www.w3.org/1999/xlink" version="1.1" viewBox="-10 0 266 256">
   <path fill="currentColor"
d="M58 246q0 2 1 2.5t3 0.5q5 0 8.5 -3.5t6.5 -9t6 -10.5t6 -8q4 2 6 7t3.5 10t4 9t8.5 4q2 0 3.5 -0.5t1.5 -3.5q0 -4 -1.5 -6t-3 -3.5t-3.5 -3t-4 -3.5q-6 -9 -9 -21t-3 -22q0 -1 0.5 -3.5l0.5 -2.5q1 -3 4.5 -3.5t6.5 -1.5q7 -2 10 -7t4.5 -11.5t2 -13t0.5 -12.5
q0 -9 -0.5 -19t-4.5 -18q-2 -3 -6 -4t-7.5 -2t-7 -2.5t-3.5 -5.5q0 -7 4.5 -11t9.5 -7t9 -6.5t4 -10.5q0 -6 -2.5 -9t-7 -5t-9.5 -3t-9 -3q-4 -1 -7 -3t-6.5 -4.5t-7 -4t-7.5 -1.5q0 7 3 10t6.5 5t6 3.5t2.5 4.5v0q-1 2 -3 5t-5 6.5t-5 6.5t-3 4q-3 4 -6.5 10t-3.5 11v1
q0 1 0.5 2l0.5 1q0 1 1 1q4 0 7 -3.5t5 -7.5t3.5 -8.5t3.5 -6.5t3.5 -5t4 -6.5t5.5 -6t7 -2.5t8 2t4 7q0 3 -2 5.5t-4.5 4t-5.5 3t-5 3.5q-4 4 -5 6.5t-1.5 4.5t-1 5t-2.5 8l-2 2q-5 1 -9 2t-8 2.5t-6.5 4.5t-4.5 9v17q0 7 0.5 14.5t2 15t5 13.5t11.5 9q2 1 6.5 2.5t5.5 4.5
q1 0 1 1.5v3.5v4v1q0 13 -4 22t-11 20l-2.5 2.5l-3.5 3.5t-3 4t-1 3zM132 172q0 9 0.5 18t1.5 17q1 9 2.5 14.5t5.5 8t9.5 3.5t14.5 1h7q6 0 11.5 -0.5t10.5 -2.5t6 -5l5 -17v-62q0 -6 -3.5 -9t-8 -4t-8 -1.5t-3.5 -2.5v-13l3 -5h13q1 0 2 -1.5t2 -2.5v-1v0q-1 -1 -1.5 -2
t-0.5 -2h-3h-3h-5t-11.5 0.5t-14 1t-14 1t-11 2t-4.5 3.5v1q1 0 1.5 1l0.5 1h18l0.5 1.5l1 3t1 3.5t0.5 3v1v1q-3 5 -9 8t-12 5q-4 7 -4.5 15.5t-0.5 16.5zM148 222q0 -1 1 -1l16 -17h1h1q3 0 6 2t5.5 4.5t4.5 5t3 3.5v2q0 2 -0.5 3t-2.5 2q-6 1 -10 1.5t-9 0.5
q-1 0 -4 -0.5t-5.5 -1t-4.5 -1.5t-2 -3zM55 217q0 4 4 4q3 0 5 -4t3 -9.5t1 -10.5v-7q0 -3 -1.5 -4.5t-4.5 -1.5q-2 0 -3.5 4t-2.5 10t-1 11.5v7.5zM111 216q1 1 2 1.5t3 0.5t2.5 -2t0.5 -4q0 -3 -0.5 -7t-1.5 -8.5t-3 -8t-5 -4.5q-2 2 -2 3v4q0 6 1.5 12.5t2.5 12.5z
M168 195q-4 0 -6.5 2t-5 4.5l-4.5 4.5t-6 2q-2 0 -3.5 -1.5t-2 -3t-0.5 -3.5v-5v-4q1 -1 3 -3.5t4 -4.5t4 -4.5t3 -3.5q3 -4 4 -10.5t2.5 -12.5t3.5 -10.5t7 -4.5q3 0 4 4.5t2 10.5t2.5 12.5t3.5 9.5q2 2 4.5 4l5 4t4 4.5t1.5 5.5v5v5.5t-1.5 5t-3.5 2.5q-3 0 -5.5 -2.5
t-5.5 -5t-6.5 -5t-7.5 -2.5zM140 163q0 -3 0.5 -6.5t1.5 -7t3.5 -5.5t6.5 -2q2 0 2.5 2t0.5 4q0 1 -0.5 5.5t-2 8.5t-3.5 7t-5 3q-1 0 -2 -1t-1 -2.5t-0.5 -3t-0.5 -2.5zM184 150q0 -1 0.5 -3.5l0.5 -2.5q0 -2 1 -2h2q3 0 5 2t3 4.5t1.5 5.5t0.5 6v7q-1 2 -2 3t-3 1
q-3 0 -4.5 -3t-2.5 -6t-1.5 -6.5t-0.5 -5.5zM68 160q0 -2 3 -4.5t7 -4.5t7.5 -4l3.5 -2q2 0 2.5 0.5t2.5 1.5q1 1 3 2l4 2t3.5 2.5t2.5 1.5q0 1 0.5 2l0.5 1q0 3 -2.5 5.5t-6 3.5t-7.5 1.5t-6 0.5h-4h-4q-1 -1 -3 -2t-3.5 -2.5l-2.5 -2.5t-1 -2zM63 143q0 -4 3 -8.5t7 -8.5
t8.5 -6.5t6.5 -2.5t6 2t8.5 5.5t8 6.5t3.5 4v2q-1 1 -2 5t-1 5h-2q-7 0 -9.5 -2.5t-4.5 -5.5t-3 -6t-4 -3q-1 0 -3 3t-4.5 6.5t-6.5 6.5t-8 3q-3 0 -3 -2v-4zM165 120q0 -2 0.5 -4.5t4.5 -2.5q2 0 3 1t1.5 3t0.5 3.5v3.5t-0.5 5t-3.5 3q-2 0 -3 -1.5l-2 -3t-1 -3.5v-4z
M61 110q0 -5 2 -8t5 -4.5t7 -2.5t7 -1v16q0 2 -2 3.5t-4.5 3t-5.5 2.5t-4 1q-2 0 -3 -1t-1.5 -2.5t-0.5 -3.5v-3zM92 100v-3t1 -2q1 -1 2.5 -1.5t2.5 -0.5q4 0 6.5 2t4 5t2 6.5t0.5 5.5v4v2q0 1 -1 1.5l-1 0.5q-3 0 -6 -2t-5.5 -5t-4 -6.5t-1.5 -6.5zM129 88v6q8 0 13.5 -5
t8.5 -12.5t4.5 -15.5t1.5 -15v-2v-4.5v-4.5v-2q0 -1 -0.5 -2t-1.5 -1q-1 -1 -3.5 0t-2.5 3q0 8 -0.5 15.5t-2.5 15t-6 14t-11 10.5zM177 27v44q0 3 3 7t7 7.5t8.5 5.5t7.5 2t3 -1v-3q0 -3 -3.5 -5.5t-8 -6.5t-8 -10.5t-3.5 -16.5q0 -4 1 -7.5t1 -7.5v-2.5v-2.5
q0 -1 -0.5 -1.5t-1.5 -0.5q-1 -1 -3.5 -1h-2.5z" />
</svg>
