<?xml version="1.0" standalone="no"?>
<!DOCTYPE svg PUBLIC "-//W3C//DTD SVG 1.1//EN" "http://www.w3.org/Graphics/SVG/1.1/DTD/svg11.dtd" >
<svg xmlns="http://www.w3.org/2000/svg" xmlns:xlink="http://www.w3.org/1999/xlink" version="1.1" viewBox="-10 0 266 256">
   <path fill="currentColor"
d="M50 248q0 2 2 2.5t3 0.5h1.5h1.5l3.5 -3.5l5 -5l4.5 -4.5l3 -3t2 -3.5t2.5 -5.5t3 -5.5t3.5 -2.5q4 0 6 5t4.5 11t5.5 10.5t8 4.5q2 0 3.5 -1t1.5 -3q0 -4 -2.5 -7t-5.5 -6l-5.5 -5.5t-4.5 -5.5q-4 -12 -5.5 -22t-2.5 -22q0 -1 -1 -1h-2h-2.5t-1.5 1v32q0 1 -1 3t-3 5
l-4 6t-4 5q-1 2 -4.5 4.5t-6.5 5t-5.5 5.5t-2.5 5zM165 144v105q4 0 5.5 -3t1.5 -7q0 -1 0.5 -3t0.5 -5v-5v-3q0 -9 -0.5 -16.5t-1.5 -16.5v-90l-1 -3t-1 -4v-1q0 -3 0.5 -7t2.5 -7q6 0 12 -1t11.5 -3.5t8.5 -7t3 -11.5q0 -16 -14 -18h-19q-4 0 -11 -0.5t-14.5 0t-13.5 2.5
t-9 6v9q0 9 2.5 13.5t6.5 6.5t8 2h8t7 1t4 6q1 15 1 30t2 31zM59 182q-1 0 -2 3.5t-1.5 8t-0.5 9.5v6q-1 5 -2.5 7.5t-1.5 7.5q5 0 8 -4t4 -9t1.5 -10.5t0.5 -8.5q0 -1 -0.5 -3t-1 -3.5t-1.5 -2.5t-3 -1zM102 185q0 1 1 6.5t2.5 11t3.5 10t6 4.5q2 0 2 -2.5v-3.5
q0 -3 -1.5 -8t-3.5 -10.5t-4 -9.5t-3 -4q-2 0 -2.5 2t-0.5 4zM126 172q0 1 1 1.5t3 0.5q3 0 7.5 -2.5t8 -6t6 -8t2.5 -7.5q0 -1 -1 -2t-3 -1l-1.5 0.5t-1.5 1.5l-19 19l-0.5 1t-1.5 2v1zM51 131q0 6 1 13t3.5 13t7.5 10t13 4q14 0 22 -3t12.5 -8.5t6.5 -14.5t2 -23
q0 -8 -1 -15t-3.5 -12.5t-7.5 -8.5t-14 -4q0 -1 -0.5 -2t-0.5 -2h-0.5t-0.5 -1q0 -6 3.5 -10.5t8 -8t8 -8t3.5 -10.5q0 -7 -4 -10.5t-9.5 -5t-11.5 -1.5t-10 -1l-5.5 -5.5t-7.5 -3.5q-3 0 -3 3q0 2 1.5 4.5t4 5t4.5 4t3 2.5v2q-1 0 -3 2l-4 4l-3.5 3.5l-2.5 2.5l-4.5 4.5
l-5.5 5.5t-5 6.5t-1 6.5l1 1l2 2h0.5h0.5q4 0 8 -5.5t9 -13t11 -13t13 -5.5h4t4 1t3 2.5t1 3.5v1v2q-6 5 -9 9.5t-4.5 8.5t-3 8.5t-5.5 10.5q-12 1 -18.5 4.5t-9 9.5t-3 15t-0.5 20zM178 149q0 3 3.5 7t8 7.5t9.5 5.5t8 2q2 0 3 -1.5t1 -3.5t-1 -3.5t-2 -2t-2.5 -1
t-2.5 -1.5q-1 0 -3 -1.5t-4.5 -3t-4.5 -3t-3 -1.5h-10zM68 158q0 -3 2 -5t5 -3t6 -1.5t5 -0.5q3 0 5.5 1t4.5 2t3.5 3.5t1.5 4.5v1l-6 3h-19q-1 0 -3 -1.5t-4 -1.5q-1 -1 -1 -2zM83 126q-1 0 -1.5 0.5l-1.5 1.5q3 8 -1.5 13.5t-11.5 5.5q-3 0 -4 -1.5t-1.5 -4t-0.5 -5v-4.5
v-6l0.5 -0.5t1.5 -0.5q1 -1 3.5 -2.5l5 -3l5 -3t3.5 -1.5h5q4 0 6.5 1t5 3t5 4.5t6.5 5.5l1 2v4v4q0 2 -0.5 4.5t-1.5 4t-3 1.5h-0.5h-0.5l-13 -8q-2 -1 -2 -3.5v-5t-1 -4.5t-4 -2zM130 119v3t3 1q2 0 5.5 -2t6.5 -4.5t6 -5.5l4 -4v-1v-1q0 -2 -1 -4t-3 -2h-1q-1 1 -3.5 3
t-5.5 4.5t-5 4.5l-3 3q-2 2 -2.5 2t-0.5 3zM179 105q0 3 2.5 5.5t6 4.5t7.5 3.5t7 1.5q4 0 4.5 -1t0.5 -4v-3q-4 -3 -11 -6.5t-12 -3.5q-2 0 -3.5 0.5t-1.5 2.5zM88 96q0 -1 0.5 -2l1.5 -3h2h3q8 0 11 4.5t3 12.5v6t-4 3h-1h-1q-3 -3 -6 -5t-5 -4t-3 -5t-1 -7zM81 90
q0 5 -1 9t-3 7.5t-5.5 5.5t-8.5 2v-17q0 -2 2.5 -3t5.5 -2t6 -1.5t4 -0.5zM134 56q0 -10 10 -10q3 0 5.5 2.5t4 5.5t2.5 7t0 6q0 3 -2 3h-4q-6 0 -11 -4t-5 -10zM158 45h11l1 1.5t2.5 4t3 5.5t1.5 5q1 0 1.5 2.5t0.5 3.5l-0.5 0.5l-1.5 1.5l-2 0.5t-3 0.5v0q-4 0 -6.5 -3
t-4.5 -7t-2.5 -8.5t-0.5 -6.5zM180 48q0 -3 2.5 -3h5.5q2 0 4.5 0.5t3.5 2.5v6q0 3 -0.5 6.5t-5.5 3.5h-3q-2 -3 -4.5 -7t-2.5 -9z" />
</svg>
