<?xml version="1.0" standalone="no"?>
<!DOCTYPE svg PUBLIC "-//W3C//DTD SVG 1.1//EN" "http://www.w3.org/Graphics/SVG/1.1/DTD/svg11.dtd" >
<svg xmlns="http://www.w3.org/2000/svg" xmlns:xlink="http://www.w3.org/1999/xlink" version="1.1" viewBox="-10 0 266 256">
   <path fill="currentColor"
d="M179 189v57q0 2 2 2.5t3 0.5q2 0 3.5 -1t2.5 -4v-15q0 -9 -1.5 -18t-1.5 -18q0 -3 3.5 -4.5t8 -2t9 -0.5h5.5q0 -1 0.5 -1.5l0.5 -0.5q0 -2 -1.5 -4t-3.5 -2q-1 0 -2 0.5t-2 0.5t-2.5 0.5l-1.5 0.5h-6h-5q-1 -1 -2 -1.5l-1 -0.5v-21q0 -2 3.5 -3t7.5 -3t7.5 -5t3.5 -9
v-55q0 -5 -4 -8t-8.5 -4.5t-8.5 -2.5t-4 -3v-14l3 -4h20q2 0 2.5 -1.5t0.5 -2.5v-2.5t-1 -1.5h-25v-24q0 -1 -1.5 -2t-3.5 -1.5t-4 -0.5h-2v31q-1 0 -5 -0.5t-5 -0.5q-3 0 -8 0.5t-8.5 1l-3.5 0.5l-4 3q2 3 5 3h6h6h2.5t3.5 -0.5t3.5 -1l1.5 -0.5q1 0 3.5 1t2.5 3q0 1 0.5 3
t0.5 5t0.5 5t0.5 3v2q0 2 -4 2.5t-8.5 2t-8 4t-4.5 8.5v22v21q1 11 5.5 16.5t9.5 8t9.5 3.5t4.5 2v20l-1 3l-1 0.5t-3 0.5t-4 0.5t-3 0.5t-3.5 -0.5t-5.5 -0.5t-5.5 1t-3.5 3l3 3h27zM47 234q0 2 0.5 3t2.5 1q4 0 7 -4.5t6 -9.5t5.5 -9.5t5.5 -4.5q4 0 6.5 3.5t5 8t4.5 8
t4 3.5h1q2 -1 2.5 -3t0.5 -4q0 -3 -1.5 -5.5t-3 -4.5t-3.5 -4.5t-3 -4.5l-1.5 -2t-3 -4.5t-3 -4t-1.5 -2.5q-1 -2 -1.5 -5t-0.5 -6v-6v-4v-13q1 0 4 -2.5t6.5 -5.5t6.5 -5l3 -2q4 0 4.5 5.5t0.5 12.5v13.5t3 9.5t7 4t8 1.5t8.5 0t8.5 -0.5q1 0 4 -0.5t3 -3.5t-3 -3t-6.5 -1
t-6.5 -4t-3 -10v-7q4 -3 7 -4.5t5 -3.5t3 -5.5t1 -9.5v-4v-5.5t-1 -5t-3 -2.5q-1 0 -1 0.5v0.5q-1 0 -2 1.5l-1 1.5q0 2 0.5 5.5t0 7.5t-1.5 7t-5 3q-1 0 -2 -0.5t-2 -1.5v-13v-5.5v-7.5t1 -7.5t3 -5.5t4 -3t3 -2t1.5 -2t0.5 -4t-1 -5.5t-4 -2.5h-1q-1 0 -1.5 0.5l-0.5 0.5
q0 1 1 3l1 2v0.5v0.5q0 3 -4 6t-9.5 5.5t-10 4t-5.5 1.5q-2 0 -2.5 -4.5t-0.5 -10.5t-1 -11.5t-3 -7.5q-1 -1 -3.5 -1.5t-5.5 -1.5t-5.5 -2.5t-2.5 -4.5q0 -6 3.5 -10.5t7 -8l7 -7t3.5 -7.5t-3 -6.5t-7 -4t-8.5 -2t-6.5 -1.5q-6 -2 -10.5 -4.5t-10.5 -2.5q0 4 1.5 5.5t3.5 3
t3.5 3t1.5 4.5t-2.5 7.5t-5.5 10t-5.5 11.5t-2.5 12q2 0 4 -0.5t5 -2.5q1 -3 3 -9.5t5.5 -12.5t7.5 -10.5t8 -4.5q3 0 6 0.5t3 4.5v0.5v0.5q-5 5 -8 9t-5.5 8t-3.5 9t-1 12q-14 1 -18.5 9.5t-4.5 22.5v2q0 1 0.5 6t1.5 10t1.5 9.5t0.5 6.5q0 3 2 5.5t4.5 4l5 3t4.5 2.5
q0 1 1.5 4t1.5 4v32q0 6 -3.5 10t-7.5 8t-7.5 8.5t-3.5 10.5zM49 202q0 1 0.5 1.5t2.5 0.5q3 0 4.5 -4t1.5 -6v-26q0 -2 -1.5 -3.5t-3.5 -1.5q-1 0 -2 0.5t-1 2.5v7.5t-0.5 10t-0.5 10.5v7v1zM87 168v3q0 2 0.5 5.5t0.5 6.5t0.5 5t0.5 3t0.5 2.5t1.5 3t1.5 3l0.5 1.5h4
q0 -3 -0.5 -9t-1.5 -12.5t-2.5 -11.5t-2.5 -5q-2 0 -2.5 1.5t-0.5 3.5zM107 176q0 -5 0.5 -10.5t0.5 -11t-2 -10.5t-6 -8l-1.5 -1.5l-0.5 -0.5v-15l2 -1l1 -0.5t3 -0.5t4 -0.5t4 -0.5h1q1 0 2 2t1 3v59q0 1 -1 1h-2q-2 0 -3 -1t-3 -4zM62 142v-2v-1l2 -2t2 -2.5t2.5 -2.5
l1.5 -1q1 0 1.5 -0.5l0.5 -0.5q2 0 4 1.5t4.5 3t4 3.5t1.5 4q0 3 -1.5 4t-4 2t-4.5 1h-4q-4 0 -7 -1.5t-3 -5.5zM158 124q0 -6 4 -7.5t9 -1.5q2 0 4.5 0.5t2.5 2.5v26l-0.5 0.5l-1.5 1.5h-5q-4 0 -6.5 -2.5t-4 -5.5t-2 -7t-0.5 -7zM186 115h12l0.5 1t0.5 2v7v6.5t-1 6.5
t-3.5 5.5t-6.5 2.5h-1q0 -1 -0.5 -1.5l-0.5 -0.5v-29zM55 122q0 -8 4.5 -12.5t12.5 -4.5t14 5.5t6 14.5q0 2 -0.5 4.5t-3.5 2.5h-1l-1.5 -1.5l-3 -3l-3 -3l-1.5 -1.5q-1 -2 -1.5 -4t-0.5 -4t-1.5 -3.5t-3.5 -1.5t-2.5 2.5t-0.5 5.5t-0.5 6.5t-3.5 4.5q-1 1 -3 2t-3 1
q-3 -2 -3 -4.5v-5.5zM156 97q0 -4 1.5 -7.5t3.5 -6t5 -4.5t6 -2t4 2t1 5v5.5v4.5q0 1 -0.5 4.5t-0.5 4.5q-2 3 -4 4t-6 1q-5 0 -7.5 -3t-2.5 -8zM184 77h12q3 0 4 3t1 6v6.5v5.5v5q-1 3 -3 3.5t-4 0.5h-2t-3.5 -0.5l-3 -1t-1.5 -2.5v-26zM53 99q0 -6 2.5 -10.5t8.5 -4.5
q5 0 5 4q0 3 -1 5.5t-3 5t-4 4t-5 1.5q-1 0 -2 -1.5t-1 -3.5zM75 88q0 -2 2 -3t4 -1q4 0 6 3.5t2 8.5v4t-2 3q-4 -1 -8 -5.5t-4 -9.5zM101 89q1 1 3 1h4q1 0 5 -1.5t8 -4t7.5 -5t3.5 -3.5v-15q0 -2 -2 -2h-3h-3q-1 7 -2 11t-2.5 5.5t-4 2t-4.5 1.5t-4.5 3t-5.5 7zM98 60v1
q0 1 0.5 1.5t1.5 0.5v0h1v0q3 -2 7.5 -4t9 -5t8 -7t3.5 -8v-6.5t-1 -7t-3 -6t-5 -2.5q-2 0 -3 1t-1 3q0 4 1 7.5t1 8.5v3.5v2.5q-1 1 -4.5 3.5l-7 5t-6 5t-2.5 3.5z" />
</svg>
