<?xml version="1.0" standalone="no"?>
<!DOCTYPE svg PUBLIC "-//W3C//DTD SVG 1.1//EN" "http://www.w3.org/Graphics/SVG/1.1/DTD/svg11.dtd" >
<svg xmlns="http://www.w3.org/2000/svg" xmlns:xlink="http://www.w3.org/1999/xlink" version="1.1" viewBox="-10 0 266 256">
   <path fill="currentColor"
d="M49 246v2.5t2 1.5q7 0 11.5 -5.5t7.5 -11.5t6 -11.5t7 -5.5q2 0 4 4.5t4 9.5t5 9.5t8 4.5h2t2.5 -0.5t2.5 -1t1 -1.5q0 -2 -1 -4t-2.5 -3t-3 -2.5l-3.5 -3.5q-4 -7 -7.5 -13.5t-5.5 -13t-3 -13.5t-1 -15v-7q5 -3 10 -4t10 -3q3 -2 4.5 -6t2.5 -9.5t1 -12v-12.5v-10v-8
v-12q-1 -3 -3.5 -5t-5.5 -3t-6.5 -1h-6.5q-1 0 -1 -1v-2v-3t1 -3q0 -1 1.5 -3.5t2.5 -5t2.5 -4.5t1.5 -3q2 -3 4.5 -4l5 -2t4.5 -3.5t2 -9.5q0 -5 -3 -7.5t-7.5 -3.5t-9 -1.5t-7.5 -1.5q-2 0 -4 -2t-3.5 -4.5t-2.5 -4.5t-3 -2q-3 0 -4.5 2t-1.5 5t2 5t4.5 3.5t4.5 3.5t2 4v1
v1q-5 5 -10 8t-9.5 6.5t-7 8.5t-2.5 13q0 2 0.5 5.5t3.5 3.5t4.5 -4.5t3.5 -9.5t4.5 -10.5t7.5 -7.5q3 -1 5.5 -3.5t4.5 -5.5t4 -5t4 -2q3 0 6.5 1.5t3.5 5.5t-2 7t-5.5 5.5t-6.5 5t-4 5.5q-1 2 -1.5 4.5t-0.5 5.5t-0.5 5t-2.5 2q-11 4 -16.5 7t-8 8t-3 11.5t-0.5 16.5v9
v7.5t1 7.5t2 9q2 2 5 4t6 3.5t6 2.5t3 2v18q0 11 -0.5 17t-2.5 10.5t-5.5 9.5t-10.5 13q0 1 -1.5 2t-3 2.5l-3 3l-1.5 1.5v3zM121 219q0 3 1 3.5t4 0.5h6h14t21 -0.5t21 -1t14 -0.5q3 -1 4 -2.5t1 -4.5v-2.5t-3 -1.5h-20l-4 -3v-3.5t-0.5 -8.5t-0.5 -8v-1v-1q0 -5 2.5 -7
t6 -4t6 -5.5t2.5 -10.5q0 -6 -4.5 -10.5t-11.5 -4.5h-4t-7 0.5t-7.5 0.5h-4.5l-8 2t-7.5 3.5t-6 5.5t-2.5 7q0 5 2.5 7.5t5.5 4.5t5.5 4.5t2.5 5.5v1q0 2 -0.5 5.5t-0.5 7.5t-0.5 7.5t-0.5 4.5t-0.5 1.5l-0.5 0.5q-1 1 -2 1.5l-1 0.5h-21q-1 0 -1 2v3zM54 212v2t1 3
q5 -1 7.5 -5.5t4 -9.5t1.5 -10v-8q0 -1 -0.5 -3.5l-1 -5t-1.5 -4t-3 -1.5q-1 0 -2 1.5t-2 2.5q0 1 0.5 4.5t0.5 7.5t-0.5 7.5t-0.5 4.5l-0.5 2t-1.5 4t-1.5 4l-0.5 2v2zM155 192q0 -7 1 -9.5t7 -2.5q2 0 5 2t3 5l-2 25h-2h-2q-4 0 -6 -2t-3 -4.5t-1 -6.5v-7zM97 186v5
t0.5 8.5t2 8t4.5 3.5q2 0 3.5 -2t1.5 -4q0 -3 -1 -5t-3 -4v-24h-4t-3 2v3q0 1 -0.5 3t-0.5 4v2zM143 161v-6q7 -2 12.5 -2.5t12.5 -0.5h14q2 1 3.5 3.5t1.5 4.5l-2.5 5t-4.5 5q-8 1 -13.5 2t-12.5 1t-9 -3t-2 -9zM69 153v-1q1 0 2 -1.5t2.5 -3l3 -3t2.5 -1.5l1 -1t2 -1h1
q1 0 3.5 1t5 3t4.5 4t2 3q0 2 -2 3t-4 1.5t-4 0.5h-4h-4h-4.5t-4.5 -1t-2 -3zM65 121q1 -1 3.5 -2.5t5.5 -3.5t5.5 -3.5t4.5 -1.5q3 0 6.5 2t7 5t5.5 7t2 7q0 4 -0.5 8t-4.5 4t-6 -3t-3.5 -7t-3 -7.5t-4.5 -3.5q-2 0 -2.5 2.5t-2 6t-4 7t-6.5 5.5h-1h-1l-0.5 -1l-0.5 -1v-20
zM127 130q0 1 1 2t2.5 1h3.5h2q16 0 30 -1t30 0q3 -1 5 -2t2 -4t-1.5 -3.5t-4.5 -0.5q-9 0 -16.5 0.5t-16 1t-16.5 1t-18 -0.5q-1 1 -2 2.5t-1 3.5zM88 92q0 -4 2.5 -5t4.5 -1h3h1q1 1 2 1.5t2 1.5t1.5 2t0.5 2v17l-0.5 1t-0.5 2l-1.5 1.5l-0.5 0.5q-3 0 -5.5 -3t-4.5 -7
t-3 -7.5t-1 -5.5zM76 88q2 0 2.5 0.5t1.5 2.5v3v3q0 7 -5 10.5t-11 3.5v-7t1 -7.5t3.5 -6t7.5 -2.5zM127 49v17t2 17.5t6 15.5t12 11h3h4.5h4.5h3q16 0 24.5 -1t12 -5.5t4 -13t1.5 -23.5l0.5 -1.5t0.5 -3t0.5 -3l0.5 -1.5v-16v-15l-1 -2.5t-3 -2.5q-3 0 -3.5 2t-1 4.5t-1 4
t-1.5 1.5h-12v-15q0 -1 -1.5 -2t-2.5 -1q-2 -1 -3.5 1t-1.5 3v14q-1 1 -4 1.5t-4 0.5v0q-3 0 -4.5 -1.5t-2 -4t-1 -4.5t-0.5 -4h-1h-2q-2 0 -3 0.5t-1 3.5q0 2 0.5 3t0.5 3t-1 2.5t-3 1t-3 0.5h-3h-5q-1 -2 -2.5 -2.5t-3.5 -0.5q-1 0 -2.5 0.5t-1.5 2.5v13zM158 91
q0 -3 1.5 -5.5t5.5 -2.5q7 0 8 2.5t1 8.5q0 3 -0.5 6.5t-4.5 3.5q-7 0 -9 -3.5t-2 -9.5zM138 87q0 -2 1 -3t3 -1q6 0 8 4.5t2 9.5q0 2 -1 3.5t-3 1.5t-4 -1.5t-3 -4l-2 -5t-1 -4.5zM188 82q7 0 7 6q0 4 -3 8t-7 4h-1.5t-1.5 -1v-13l2 -2t3 -2h1zM135 63q1 0 3.5 -0.5t5 0
t4.5 1t2.5 2t1 5l0.5 3.5l-1 1h-14q-1 0 -1.5 -1.5t-0.5 -4v-4.5v-2zM157 67v-2t1 -2h15q3 0 3 2.5v4.5v3q0 2 -2 2h-6q-5 0 -8 -1t-3 -7zM182 65v-1l0.5 -1t1.5 -2h4h4q3 0 4 2v2v2q0 7 -7 7h-1.5h-2.5q-1 -2 -2 -4.5t-1 -4.5zM153 55h-19q0 -1 0.5 -5t0.5 -5l0.5 -0.5
t1.5 -0.5h12q1 0 2 1.5t1.5 3.5t0.5 4v2zM158 49v-3t2 -2l13 -2q1 0 2 1t1 2.5v2.5v2v2v1q-1 1 -4 1.5t-4 0.5q-5 0 -7.5 -1t-2.5 -5zM182 48q0 -5 2.5 -6t7.5 -1q2 0 3 1.5t1.5 3.5t0.5 4v3h-13q-1 0 -1.5 -0.5t-0.5 -1.5v-2v-1z" />
</svg>
