<?xml version="1.0" standalone="no"?>
<!DOCTYPE svg PUBLIC "-//W3C//DTD SVG 1.1//EN" "http://www.w3.org/Graphics/SVG/1.1/DTD/svg11.dtd" >
<svg xmlns="http://www.w3.org/2000/svg" xmlns:xlink="http://www.w3.org/1999/xlink" version="1.1" viewBox="-10 0 266 256">
   <path fill="currentColor"
d="M155 240v3t0.5 3.5l1 3t2.5 1.5q3 0 4.5 -3t1.5 -5v-79q0 -3 2 -4t4 -1q5 0 8 5.5t4 13.5t1.5 18t0.5 18.5t1 14t3 5.5q3 0 4.5 -2.5t1.5 -4.5v-17t-1 -19t-3 -19t-6 -15q-1 -3 -4.5 -4l-7 -2t-6 -2t-2.5 -5q0 -5 2.5 -6.5t6 -2t7.5 -1t6 -2.5t3 -4t1.5 -4.5t1 -4.5
t2.5 -4q2 -3 4.5 -4.5t4.5 -3t3.5 -3.5t1.5 -5q0 -5 -1.5 -7t-4 -3.5t-4.5 -3t-3 -6.5q0 -1 2 -2.5t5 -3.5t5.5 -4.5t2.5 -6.5q0 -6 -2.5 -9t-7.5 -7v-3.5v-5.5v-4.5v-3.5q0 -4 -0.5 -4.5t-2.5 -0.5h-3t-2 2q0 1 0.5 3.5t0.5 5.5q0 2 -0.5 4.5t-0.5 3.5q0 4 -2 5.5t-4 3.5
t-3.5 4.5t-1.5 9.5v1q1 1 2 3t2.5 4t2.5 4.5t1 3.5v1q-1 0 -2 1.5t-2.5 3t-3 2.5t-1.5 2q-1 1 -1 2.5v2.5q0 3 1 5l2 4t1.5 4t0.5 5q0 5 -4.5 8.5t-9.5 3.5h-2.5t-2.5 -1v-8q0 -3 0.5 -5.5t1.5 -4.5t3 -3.5t5 -4.5l3 -44q0 -1 -0.5 -3.5t-1.5 -2.5q0 -1 0.5 -3.5t-0.5 -3.5
q0 -1 -1 -2t-2.5 -2t-2.5 -2t-1 -2v-17q0 -3 -1.5 -3.5t-3.5 -0.5q-4 0 -5 2.5t-0.5 6l1 7t-1.5 5.5q-2 1 -5 5t-5 5q0 5 -0.5 9.5t-1 8t-0.5 7.5v9v5t0.5 6t0.5 5.5t1 4.5q2 3 3 5t2.5 4t2 4t0.5 5t-0.5 7t-4.5 4q-1 0 -3.5 -1t-5 -3t-4 -3.5t-1.5 -3.5t1 -4t1.5 -3.5
t1.5 -4t1 -5.5q0 -4 -1.5 -6.5t-3 -4.5t-2.5 -4.5t-1 -6.5q0 -3 1.5 -5.5t3.5 -5t3.5 -5.5t1.5 -7t-2 -7t-6 -6v-20q0 -2 -1.5 -2h-2.5q-3 0 -4 3.5t-2.5 8.5t-3.5 10.5t-9 9.5v14q0 1 2.5 2.5t4.5 3.5t4 5t2 7q0 1 -2 3t-4.5 4t-4.5 5t-2 7q0 3 2 5t4 3.5t4.5 3t4.5 3.5
q1 2 2.5 6.5t5.5 6.5t7.5 2.5t6 1.5t4.5 3.5t2 7.5q0 3 -3 4.5t-7 4t-7.5 6t-4.5 9.5q-1 5 -1 9t-2 7q-1 10 -2 21t-1 22v4t1 4q3 -1 5 -3t3 -5v-4v-6v-6v-4q0 -4 1 -12t2.5 -16.5t4 -15t6.5 -6.5q1 0 2 0.5t1 1.5q0 12 1 23t1 23q0 8 -1 16t-1 16zM77 149v35q0 7 -4.5 14
t-10 14t-10 13.5t-4.5 12.5h8q1 -1 3 -4t5.5 -7.5t5.5 -7.5q2 -2 2.5 -5t2 -6t3 -5.5t5.5 -2.5l0.5 0.5t0.5 1.5q4 7 7.5 14.5t7.5 15.5h1.5h1.5q5 0 5 -5q0 -3 -1 -4t-3 -4q0 -1 -1 -2.5t-2.5 -3.5t-2.5 -4t-2 -3q-5 -9 -7 -18.5t-2 -21.5v-14q1 -1 3 -2.5t4 -2.5t4.5 -2
t4.5 -2q4 -3 6 -10t3 -15.5t0.5 -16t-0.5 -11.5v-1q0 -1 -1 -3.5t-2 -4.5t-2 -3.5l-1 -1.5l-17 -3l-1 -0.5l-1 -0.5v-1q0 -7 3.5 -12t8 -9t8.5 -7.5t4 -8.5q0 -6 -3.5 -9t-8 -4.5t-10 -1.5t-8.5 -1q-2 0 -3.5 -1.5t-3 -2.5l-3 -2t-3.5 -1q-5 0 -5 4t2 5.5t4 2.5t4 2.5t2 4.5
q0 5 -5 8t-11 6.5t-10.5 9t-4.5 15.5q3 0 7 -2.5t7.5 -6.5l7 -8t5.5 -6q1 0 2 -0.5t2.5 -1.5t2.5 -1.5l1 -0.5q1 -2 2 -4.5t2.5 -4.5l3 -4t4.5 -2t6 1.5t3 4.5t-0.5 4.5t-3.5 4.5l-2.5 2.5l-5 5l-4.5 4.5l-3 3l-3 15q-1 2 -4.5 3t-8 2t-9 3.5t-5.5 6.5v3v4v4v2v10.5t0.5 8.5
t1.5 8.5t3 10.5q1 4 3.5 6t5.5 3t6.5 1.5t6.5 0.5zM50 197q0 1 1.5 1h2.5q5 0 7 -3.5t3.5 -8.5t1.5 -11v-8t-0.5 -5.5t-4.5 -2.5h-3q-1 0 -2 2q2 9 0 18.5t-6 17.5zM95 171q0 8 0.5 13t3.5 13h1h1q6 0 6 -5q0 -9 -1.5 -18t-2.5 -17h-1q-2 0 -4 1t-3 4v9zM69 136
q0 -2 1.5 -3.5t3.5 -3t4.5 -2t3.5 -0.5q2 0 4 1l4 2t3 3t1 4t-1.5 3.5t-3.5 2t-4.5 0.5h-4.5q-3 0 -7 -1.5t-4 -5.5zM82 100q8 0 12.5 5.5t4.5 12.5v6l-1 0.5t-1 1.5h-1q-3 0 -5 -2.5t-3.5 -4.5t-3.5 -4t-4 -2q-1 0 -2.5 2t-3.5 4l-4.5 4.5t-5.5 2.5q-1 0 -2 -0.5t-1 -1.5
v-11q0 -2 3 -4t6.5 -4t7 -3.5t4.5 -1.5zM122 102q0 -3 2.5 -5.5t6.5 -2.5q7 0 7 6q0 4 -2 6.5t-6 4.5h-1v0q-4 0 -5.5 -3t-1.5 -6zM187 98q0 -3 2 -3.5t5 -0.5h2.5h1.5q1 1 1.5 2.5t0.5 2.5q0 4 -2.5 5t-4.5 1h-2.5h-2.5q-1 -1 -1 -3v-4zM61 100l-0.5 -2t-0.5 -3
q0 -4 2 -6.5t4.5 -4t6 -2t6.5 -0.5q0 3 -1.5 6t-3.5 6t-4.5 5t-5.5 3q-1 0 -2 -0.5t-1 -1.5zM86 88v-4q2 -1 3 -1h3q5 0 7.5 4t2.5 9v3q0 3 -2 3t-4.5 -1.5t-4.5 -3.5t-3.5 -4.5t-1.5 -4.5zM154 87v-2v-4t1 -3.5t2 -1.5h11l0.5 1.5t1.5 1.5v5q0 2 -0.5 5t-1.5 5.5t-2.5 4
t-5.5 1.5q-3 0 -4 -1t-1.5 -3t-0.5 -5v-4zM152 62q1 -2 1.5 -5t1.5 -6.5t3 -5.5t5 -2t4 1.5t1.5 3.5t1 4.5t0.5 3.5q0 6 -1.5 9.5t-7.5 3.5q-3 0 -6 -1t-3 -6zM188 63q0 -3 3 -5t5 -2t3.5 1.5t1.5 4.5q0 2 -2 4.5t-4 2.5t-4.5 -1.5t-2.5 -4.5zM121 63q0 -5 2.5 -8.5
t7.5 -3.5q7 0 7 7v2.5t-0.5 3t-1 2.5t-1.5 1h-11l-1.5 -1t-1.5 -2v-1z" />
</svg>
