<?xml version="1.0" standalone="no"?>
<!DOCTYPE svg PUBLIC "-//W3C//DTD SVG 1.1//EN" "http://www.w3.org/Graphics/SVG/1.1/DTD/svg11.dtd" >
<svg xmlns="http://www.w3.org/2000/svg" xmlns:xlink="http://www.w3.org/1999/xlink" version="1.1" viewBox="-10 0 266 256">
   <path fill="currentColor"
d="M49 245v6q9 0 14 -6t8 -13.5t5 -13.5t6 -6t5.5 6t3 13t4 13t6.5 6q3 0 3.5 -1.5t0.5 -4.5t-1.5 -6.5l-3 -7t-3.5 -6.5t-3 -5q-3 -7 -4.5 -16t-1.5 -17v-8l1 -2q1 0 2.5 -1t4 -2t4 -2t2.5 -1q3 -2 5 -6.5t3 -9t1 -9.5v-7v-22v-22q1 -7 -2.5 -9.5t-8 -4t-8 -3t-3.5 -5.5
q0 -5 4 -7.5t8.5 -4.5t8 -5t3.5 -11q0 -5 -3.5 -8t-8 -4.5t-9 -2t-8.5 -1.5q-3 -1 -5 -3.5t-3.5 -5.5t-3 -5t-4.5 -2q-2 0 -4 1t-2 3v1q0 1 2 3t3.5 4.5t3 5.5t1.5 4t-4 5t-9 8.5t-9 10.5t-4 12q0 3 2 4t4 1t4.5 -4.5t6.5 -11t8.5 -12.5t9.5 -9h1.5h1.5h5.5t7 1t5.5 3t1 6
q-1 3 -3 4.5t-5 2.5t-6 1.5t-5 2.5t-3.5 6.5t-0.5 11.5l-2 2q-11 2 -16.5 4.5t-8.5 7.5t-3.5 12t-0.5 18v20q1 5 2 9t3 7.5t4.5 6.5t6.5 6q3 2 7 3.5t6 4.5v4.5v4.5q0 8 -2.5 16t-6 15.5t-9 14t-11.5 12.5zM119 245q0 3 2 4t4 1h3t2 -2q0 -1 0.5 -5t0.5 -5q0 -18 -2 -36.5
t-2 -36.5l0.5 -1.5t0.5 -3t0.5 -3t0.5 -2.5t0.5 -3t0.5 -4v-4.5v-2.5q2 -3 4.5 -3.5t4.5 -0.5q3 0 4.5 0.5t1.5 3.5v3q-4 3 -7 6t-3 9q0 4 2.5 6.5t5.5 5t5.5 4t2.5 2.5q0 4 -2 6.5t-4.5 5t-4.5 5.5t-2 9q0 3 1 10t3 14.5t4.5 13.5t5.5 6h1q1 -1 2.5 -3.5t1.5 -4.5
q0 -3 -2 -7.5t-5 -9t-5 -10t-2 -10.5q0 -3 0.5 -6t4.5 -3h2q1 1 3 7.5t4 13.5t5 12.5t5 5.5t3.5 -2t1.5 -4q0 -3 -2.5 -7t-5 -9.5t-5 -11.5t-2.5 -13q0 -3 0.5 -4.5t2 -2.5l3 -2t2.5 -3q-1 -3 -4.5 -3.5t-8 -1.5t-7.5 -3t-3 -6t1.5 -5.5t4.5 -1.5q4 0 8 1t8 1q3 0 5.5 -2
t5.5 -2q5 0 8 1t3 6v3q-3 3 -6.5 6t-5.5 6.5t-4 7.5t-2 9q0 3 3 11t6.5 16t8 13.5t7.5 5.5t4 -1t2 -4q-4 -3 -8 -8t-7.5 -11t-5.5 -12t-2 -11q0 -3 0.5 -5t3.5 -2q2 0 4.5 5.5t6 12t7.5 12t9 5.5q2 0 2.5 -1t0.5 -3v-1.5v-1.5q-3 -4 -7 -8t-7.5 -9t-6 -10t-2.5 -10
q0 -3 1.5 -5t3 -3.5l3 -3t1.5 -4.5q0 -5 -3 -7t-6 -3.5t-6 -2.5t-3 -5q0 -3 2.5 -5t5.5 -3t6.5 -2t6.5 -2l0.5 -2t0.5 -3v-1q0 -6 -3 -8.5t-7 -3t-7.5 -1t-3.5 -2.5q0 -4 2.5 -6t5 -4.5t5 -5.5t2.5 -7q0 -2 -1 -2.5t-3 -0.5q-3 0 -4.5 2t-3 4.5t-4 4.5t-6.5 2h-5
q-2 -2 -2 -4v-4q0 -1 1 -4.5t2.5 -8t3.5 -7.5t3 -3h20v13h1.5h2.5l0.5 -0.5t0.5 -1.5q1 -1 2 -3.5l1 -2.5v-2.5v-3.5t-0.5 -4t-0.5 -3t-0.5 -3t-1.5 -4t-2 -3.5t-2 -1.5h-21q-6 0 -8 4t-2.5 9.5l-1 11t-1.5 8.5l-2 3t-3 3v5t-0.5 3.5t-1.5 2.5t-5 1q-6 0 -8.5 -2t-4 -4.5
t-3 -4.5t-5.5 -2v9t3 9q1 0 5.5 0.5t5.5 0.5q2 1 2 3.5v3.5q0 5 -2.5 6.5t-6 2t-6.5 1t-4 3.5q-2 5 -3 10.5t-1.5 11t-0.5 11.5v11v15v23v23v15q-2 4 -2 7zM49 221q0 5 5 5q3 0 5.5 -4.5t4 -10t2 -11t0.5 -8.5v-5q0 -3 -1 -4q0 -2 -1 -2h-3q-2 0 -4 5t-3.5 11.5t-2.5 12.5
t-2 9v2zM95 187q0 2 1.5 7.5t3 11.5t3.5 11t3 5q3 0 3.5 -1.5t0.5 -3.5q0 -8 -2.5 -15t-2.5 -16q-1 -3 -2 -4t-3 -1q-3 0 -4 2t-1 4zM67 162v-1.5v-0.5q0 -2 2 -5t5.5 -5.5t6.5 -4t5 -1.5q1 0 2 1.5t2.5 2.5t3 2.5l1.5 1.5q2 1 4 3.5t3 3.5v0q0 2 -2.5 3.5t-5.5 3t-6.5 2
t-4.5 0.5q-5 0 -8.5 -1.5t-7.5 -4.5zM61 135q0 -5 2 -8.5t5 -6.5t6.5 -5.5t6.5 -4.5l1 -1h2q3 0 5.5 2t5 4.5t4.5 5.5t4 5q1 1 1 3v3q0 4 -0.5 7t-3.5 7v0q-4 0 -6.5 -2.5t-4 -5.5t-2 -6t-1.5 -6h-0.5h-1.5q-2 0 -3 3l-2.5 7.5t-4.5 7.5t-9 3q-2 0 -3 -1.5t-1 -3v-3.5v-4z
M153 140q0 -4 3.5 -5t6.5 -1h3h2q2 0 2 1v3q0 4 -2.5 6.5t-6.5 2.5t-6 -1.5t-2 -5.5zM133 125q0 -3 2 -4.5t5 -1.5t4 1t1 4q0 5 -7 5q-2 0 -3.5 -0.5t-1.5 -3.5zM170 114v12h-18q0 -4 2 -6.5t4.5 -3.5t5.5 -1.5t6 -0.5zM180 120q0 -4 4 -4q2 0 3 0.5t1 2.5t-1 3.5t-3 1.5h-1
q-1 0 -2 -1t-1 -2v-1zM85 85q9 0 13 5t4 14v7q0 1 -1.5 1.5l-1.5 0.5q-3 -1 -5 -4.5t-3.5 -7t-3.5 -6t-5 -2.5h-1t-1 1q0 3 -1.5 7t-4.5 7t-6.5 5t-7.5 2v-10t1.5 -7t4 -5t7.5 -4t7 -3t5 -1zM153 103q0 -3 4 -4t6 -1q3 0 6 1t3 4t-1.5 4.5t-3.5 2t-4 0.5h-4q-3 0 -5 -1.5
t-1 -5.5zM122 59v4.5t0.5 5t1.5 4t3 1.5t3 -2t3 -4.5t4.5 -4.5t6.5 -2q2 0 3 1.5t2 3.5t1.5 4l0.5 2h1h1h1.5t1.5 -2v-22l-5 -5h-19q-4 2 -8 3l-1.5 7.5t-0.5 5.5zM130 54q0 -3 3.5 -5t6.5 -2q2 0 4 1t2 4v0.5v0.5l-1.5 1.5l-1.5 1.5h-11l-1 -0.5t-1 -1.5zM183 47q4 0 5 1
t3 5q-1 0 -2 0.5t-2 0.5l-2 0.5t-5 0.5h-4h-3q0 -5 3 -6.5t7 -1.5zM121 30q0 2 1.5 2.5t3.5 0.5h1h6t8.5 -0.5t8.5 -0.5t6 -1l1 -1l2 -2v-1v-1q-1 0 -2 -0.5l-1 -0.5h-11q-1 0 -5 -0.5t-8.5 0t-7.5 1.5t-3 4zM165 28l3 3h28q2 0 5.5 -2t5.5 -4l-4 -2h-7h-10q-2 0 -5 0.5
t-5.5 0.5t-5 0.5l-2.5 0.5z" />
</svg>
