<?xml version="1.0" standalone="no"?>
<!DOCTYPE svg PUBLIC "-//W3C//DTD SVG 1.1//EN" "http://www.w3.org/Graphics/SVG/1.1/DTD/svg11.dtd" >
<svg xmlns="http://www.w3.org/2000/svg" xmlns:xlink="http://www.w3.org/1999/xlink" version="1.1" viewBox="-10 0 266 256">
   <path fill="currentColor"
d="M162 170q3 0 4.5 3t1.5 7v7.5t1 4.5q0 1 0.5 2.5t1.5 3.5t1.5 3.5l0.5 1.5v2v3v3v1q0 1 1 4t2 7.5t2 8.5t1 6q1 1 1.5 3l0.5 2v3.5v3t2 1t3 0.5q2 0 4 -3t2 -5q-1 -5 -3 -10t-3 -10q-2 -6 -4 -17.5t-4.5 -23.5t-6.5 -22.5t-10 -15.5h-5t-6 -0.5t-5.5 -2t-2.5 -4.5
q0 -2 0.5 -4t3.5 -3h8q12 0 18 5t9.5 12t5.5 16t6 17q1 1 2 3t2 4.5t2 4.5t2 3l1 2h1q3 0 3.5 -3t0.5 -5l-2 -4.5t-5 -11.5t-6.5 -14.5t-6.5 -14t-5.5 -11.5t-3.5 -5q-3 -2 -8 -3t-9.5 -1h-9t-7.5 1l-1 -2v-12h5.5t9.5 -0.5t9 -0.5h6h3t4.5 0.5t4 1.5t2.5 3t2.5 6l3 8l3 8
t2 5.5t1 4t1 4.5t1.5 3t4 1t3.5 -1t0.5 -4q0 -5 -2.5 -12t-5.5 -13.5t-7.5 -12.5t-7.5 -9h-5h-6h-7h-4q-2 0 -5.5 -0.5t-6.5 -0.5t-5.5 -0.5l-2.5 -0.5l-1 -1v-45l0.5 -0.5t0.5 -1.5q1 0 4 -0.5t4 -0.5h27q3 0 3.5 -1t0.5 -2t-0.5 -2.5t-3.5 -1.5h-35l-2 -2v-21
q-6 0 -7.5 0.5t-1.5 6.5q0 4 0.5 6.5l1.5 7.5v52q0 1 -0.5 3.5l-0.5 2.5v1q0 10 1 20t0 21q2 4 6.5 5t9 1.5t7.5 2.5t3 7t-3.5 6t-8.5 2t-8.5 2.5t-3.5 7.5v60q0 1 2 3.5t4 2.5l0.5 -0.5l0.5 -0.5v-3v-3v-4v-2q0 -14 -0.5 -26.5t-0.5 -26.5q3 0 5 3.5t2.5 8l1 9t0.5 7.5
q0 1 0.5 5.5t1 10t1 10t0.5 6.5t1 4t3 2q3 0 5 -3t2 -5q0 -3 -2 -7t-3 -8q0 -4 -1 -9l-2 -10t-1.5 -10t-0.5 -9v-7q2 -2 3 -3.5t3 -1.5zM92 232q0 1 1.5 2t3.5 1q5 0 10 -4t9 -9.5t6.5 -12t2.5 -11.5q0 -6 -3 -10t-10 -4q-4 0 -8.5 2t-8 4t-7.5 5t-6 5h-2h-1.5t-1.5 -2v-2.5
v-4.5v-4v-3t-1.5 -2.5t-3.5 -1.5v0h-1l-1.5 6t-0.5 5q0 5 0.5 9.5t1.5 10.5q0 2 3 1.5l3 -0.5h2h3q2 -2 5.5 -6t7.5 -7.5t8.5 -5.5t8.5 -2q3 0 5 2.5t2 5.5q0 5 -3.5 9t-8 8.5t-9 8t-6.5 6.5v1zM48 228v3t3 1t5 -3t3 -7t1 -7.5v-5.5t0.5 -8.5t1.5 -15t1.5 -18t1 -18t1 -15
t0.5 -8.5v-2v-1v-1.5t-0.5 -3t-0.5 -3v-1.5q0 -1 3.5 -4t8 -6.5t8.5 -6l4 -2.5q2 0 4 0.5l2 0.5v13h1.5h2.5l0.5 -0.5t0.5 -1.5l0.5 -1.5t0.5 -3.5t0.5 -3.5l0.5 -1.5q0 -1 1 -1.5t2 -0.5v0v0q2 0 4 1l4 2l4 2t4 1q3 0 3 -4q0 -2 -3 -3.5t-7.5 -3t-8 -3t-3.5 -3.5
q-1 -1 -0.5 -4.5t0.5 -4.5q6 0 10 2.5t9 2.5q2 0 3.5 -0.5t1.5 -2.5q0 -1 -3 -3.5t-7.5 -4.5t-8 -4t-4.5 -2v-2v-1q0 -3 0.5 -4t1.5 -1.5t2.5 -1t3.5 -1.5l2.5 -2.5l3 -3l2.5 -2.5l1 -1v-28q0 -3 -2 -4t-4 -1t-2.5 1.5t-0.5 3v3.5v3q-1 2 -4.5 3t-9 1h-12t-11.5 0.5
t-8.5 1.5t-3.5 4v1l1 3h9q10 0 19.5 -0.5t18.5 -0.5q0 8 -3.5 11.5t-9 4t-12.5 0.5t-12.5 1.5t-10 6.5t-5.5 16q0 3 0.5 7t-1.5 8v51t-3 52q-1 9 -3 18t-2 18zM77 129h-2t-1 1v36q0 6 3 7.5t8 1.5q4 0 8 -1.5t7 -4.5h17l3 -3q-1 -9 1 -17t2 -16q0 -3 -1.5 -5t-3.5 -2h-3
t-1 2q-2 7 -2 15.5v16.5l-1 0.5t-2 0.5v0q-2 0 -4.5 -0.5t-2.5 -2.5v-5q0 -5 0.5 -10t0.5 -11v-9q0 -1 -1 -2t-2 -1v0h-1q-2 0 -3 1t-1 3v4v2v9t-0.5 10t-0.5 8.5v3.5l-6 7l-2 -1t-3 -1l-0.5 -0.5t-0.5 -1.5v-31q0 -1 -1.5 -2.5t-3.5 -1.5zM66 93q0 -2 3.5 -5t8 -6.5t9 -6
t5.5 -2.5q3 0 3.5 2t0.5 4q0 4 -3 6.5t-7 4.5q0 1 -2.5 2.5l-5 3t-4.5 2.5t-3 2h-1q-2 0 -3 -2.5t-1 -4.5zM152 83q0 6 1 8.5t8 2.5h41q1 0 1.5 -1.5t0.5 -2.5l-0.5 -1t-1.5 -2h-4q-6 0 -13 1t-14 1q-5 0 -8.5 -1t-3.5 -6q0 -4 2.5 -6t6 -3t8 -1t8.5 -1t7.5 -2t4.5 -3
q2 -2 2.5 -5.5t0.5 -7.5v-7v-6q0 -7 -2.5 -10t-7.5 -4t-10 -0.5t-10 0.5h-14q-3 -1 -4 0t-1 3q0 1 0.5 2.5t1.5 1.5h9h10.5t10.5 0.5t10 1.5v9v3t-0.5 4.5t-0.5 5t-1 3.5q-2 3 -5.5 4t-8 1.5l-9 1t-8 2t-5.5 5t-2 9.5zM68 71q0 -5 2.5 -7.5t7 -4t9.5 -1.5h9q0 3 -3 6.5t-7 7
t-8.5 5t-6.5 1.5q-3 0 -3 -2.5v-4.5z" />
</svg>
