<?xml version="1.0" standalone="no"?>
<!DOCTYPE svg PUBLIC "-//W3C//DTD SVG 1.1//EN" "http://www.w3.org/Graphics/SVG/1.1/DTD/svg11.dtd" >
<svg xmlns="http://www.w3.org/2000/svg" xmlns:xlink="http://www.w3.org/1999/xlink" version="1.1" viewBox="-10 0 266 256">
   <path fill="currentColor"
d="M173 248q1 2 1.5 2h2.5t3.5 -1t2.5 -4v-5.5v-5.5q0 -7 -1.5 -11.5t-1.5 -10.5q-2 -15 -3.5 -30t-6.5 -30q-1 -3 -4.5 -6.5t-7.5 -7t-7.5 -6l-3.5 -2.5q0 -3 2 -4t4 -1q9 0 15 5.5t10.5 13.5t8 18t6.5 18.5t5.5 14t6.5 5.5t4.5 -1.5t0.5 -5.5q0 -3 -1.5 -8.5t-4.5 -12
t-6.5 -14t-7.5 -14t-7.5 -11.5t-5.5 -8q-2 -2 -6.5 -3.5l-9 -3t-8 -3t-3.5 -3.5v-12q0 -1 1 -1.5t2 -0.5q11 0 18.5 3.5t12 8.5t6.5 10.5t4 10.5t4 8t6 3q2 0 3 -1.5t1 -3.5q0 -3 -1.5 -6.5t-3.5 -7.5t-4 -7.5t-3 -6.5q-3 -6 -7.5 -10t-9.5 -6t-10 -2.5t-9.5 -1t-7 -1
t-2.5 -1.5v-7v-7t0.5 -11t1.5 -10.5t2 -4.5h27q1 -1 2 -1.5t1 -1.5h1h1q0 1 0.5 2.5t1.5 2.5v1q0 2 -2.5 2.5t-6 1t-7.5 1t-7 1.5t-5.5 4t-2.5 8q0 7 5 8.5t11 2.5h5.5t7 0.5t7 0.5h4.5q0 -5 -3.5 -7.5t-8 -3t-10 -0.5h-8.5l-1 -0.5l-1 -0.5v-0.5v-0.5q0 -2 2.5 -2.5
t6.5 -0.5t8.5 -1t8.5 -3.5t6.5 -8t2.5 -15.5q0 -5 -2.5 -9.5t-6.5 -5.5h-13q-6 0 -11 0.5t-11 0.5h-2v-3t-0.5 -3.5t-1.5 -3t-3 -1.5h-3.5t-2.5 2v24.5t-1 25t-1.5 25t-0.5 25.5q0 2 -0.5 5.5t0 7.5t1 7.5t2.5 5.5q1 1 3 3.5t4.5 5t5 4.5t3.5 3v5l-1 1t-2 2.5t-2.5 2.5
t-2.5 2h-1.5t-3 0.5t-3 0.5h-1.5q-1 1 -3.5 3t-3.5 4q-2 14 -5 27t-3 28v3v3q0 2 1.5 2h2.5q3 0 4 -0.5t2 -4.5v-3.5t0.5 -5.5t0.5 -6v-4q0 -2 1 -8t2 -12.5t2 -11.5t3 -6q1 2 1.5 6t0.5 5v9v14v13v9q0 2 1.5 5.5t4.5 3.5q2 0 3 -0.5t2 -2.5v-14q0 -10 -1 -19.5t-1 -18.5
v-4.5v-4.5t1 -4t3 -2t3 4t2 9.5t2 12.5t1.5 13t1.5 11t1 7v4t0.5 6t0.5 5.5v3.5zM71 237q1 1 2 1.5t2 0.5q2 -1 4.5 -2.5t2.5 -2.5v-47q0 -1 1.5 -1.5t2.5 -0.5q8 -2 18 -2.5t18 -0.5q1 0 2 -0.5t2 -1.5q0 -1 0.5 -3l0.5 -2h-17v-18q0 -2 2 -2.5t4.5 -1l5 -1t2.5 -3.5
q0 -5 -2 -5h-4q-3 0 -5 -2t-2 -10q0 -3 2.5 -4l5 -2t5 -1h3.5l1 -1.5l1 -1.5q0 -4 -2.5 -4.5t-5.5 0t-5.5 0t-2.5 -3.5q0 -4 0.5 -6.5t0.5 -6.5q1 0 4 0.5t6 0.5t5.5 -1t2.5 -4q0 -2 -2.5 -3t-5.5 -1.5t-6 -0.5h-4l-1 -2q2 -3 5.5 -6t7 -6.5t5.5 -7t2 -7.5q0 -1 -0.5 -4
t-0.5 -4q-1 -1 -4 -3.5t-6 -6t-5 -6.5t-3 -4v-4v-6v-5.5v-3.5q-1 -3 -2.5 -3.5t-3.5 -0.5h-3q-2 0 -2 2v19q0 1 -0.5 2l-0.5 1q0 1 -1 1.5t-2 2t-2.5 2t-1.5 1.5q-4 5 -5 11t-1 13q0 3 1.5 6t3.5 5.5t3.5 5t1.5 6.5q0 1 -1 2.5t-3 2t-3.5 1.5t-2.5 2q-4 6 -6 12t-3.5 12
t-2 12.5t-1.5 12.5q-1 16 -3.5 31t-2.5 32v13q0 7 1 14zM83 172v0v-1v-3t0.5 -3.5t0.5 -3v-1.5q0 -1 1 -2l1 -1h13l0.5 0.5l0.5 0.5v1v3t-0.5 4.5t-1.5 4.5t-3 3v0h-1q-2 0 -6 -0.5t-5 -1.5zM88 142v0v-1v-2.5t0.5 -3.5t0.5 -3.5v-1.5q2 -1 4.5 -2t4.5 -1h1l0.5 0.5l0.5 0.5
v13q0 1 -2.5 2l-2.5 1v0h-1v0q-1 0 -3.5 -0.5t-2.5 -1.5zM99 104q3 0 3 4t-2 7t-7 3q0 -1 0.5 -3.5t1 -4.5t1.5 -4t3 -2zM49 32h-1.5t-1.5 1v45q0 2 2 4t4.5 2.5t5 0.5h3.5h5.5t7 -1t6.5 -3t3 -5v-52h-10l-1 1t-1 2v3v5v4.5v3.5l-1 1h-13v-3.5t-1 -4.5t-2.5 -3t-4.5 -1z
M54 60q1 -2 3 -3.5t4.5 -2t5 -0.5h4.5v0q2 2 2 6v6v3v2l-3 3h-11q-1 0 -2 -2.5l-1 -2.5q-1 0 -1 -1.5t-0.5 -3t-0.5 -2.5v-2zM98 63q0 -2 0.5 -4.5t2 -5t3 -4.5t3.5 -2q3 0 5.5 1.5t4.5 4t3 5t1 5.5q0 4 -4 4h-1q-1 0 -2 -1v-2.5t-0.5 -3.5t-1 -3.5t-2.5 -1.5q-4 0 -4.5 3
t-0.5 6v6t-2 3h-3l-0.5 -1.5l-1 -3t-0.5 -2.5v-3zM183 36h-29v-2.5v-3.5l0.5 -1t1.5 -1q2 0 7 0.5t10.5 1t10 2.5t4.5 4q0 3 -2 5z" />
</svg>
