<?xml version="1.0" standalone="no"?>
<!DOCTYPE svg PUBLIC "-//W3C//DTD SVG 1.1//EN" "http://www.w3.org/Graphics/SVG/1.1/DTD/svg11.dtd" >
<svg xmlns="http://www.w3.org/2000/svg" xmlns:xlink="http://www.w3.org/1999/xlink" version="1.1" viewBox="-10 0 266 256">
   <path fill="currentColor"
d="M104 230q2 0 3.5 3t2.5 7t3 7.5t5 3.5q2 0 3 -2t1 -4q0 -1 -1.5 -3l-3 -4t-2.5 -3.5t-1 -3.5q1 -2 3 -3.5t4.5 -3t5 -2t4.5 -0.5h2h1q0 2 1 6t1.5 8.5t2 8t3.5 3.5h1q1 -1 1.5 -3.5l0.5 -2.5v-2v-1q0 -1 -0.5 -2.5t-1 -3.5l-1 -4l-0.5 -2q-1 -6 -2.5 -10t-3.5 -7t-5.5 -4
t-10.5 -2h-4.5t-7.5 -0.5t-7.5 -0.5h-5.5q-1 -1 -1 -2v-2q0 -3 2.5 -3.5t5.5 -0.5h1q3 1 8 1.5t11.5 1t12 1t7.5 1.5q1 3 3 10.5t5 15.5t5.5 14t5.5 6q2 0 2.5 -1.5t0.5 -3.5t-3 -9.5t-6.5 -15.5t-7 -15t-5.5 -7h-2h-4h-3h-2q-4 -1 -10.5 -1.5t-12.5 -1t-10.5 -1.5t-5.5 -1
l-3 -1q3 -3 3.5 -9.5t0.5 -13.5t0.5 -12.5t1.5 -5.5l47 -3v-4h-2h-3h-7t-10.5 0.5t-10.5 0.5h-7q-1 1 -4 0.5t-4 -1.5v-2t1 -2.5t1.5 -2.5l0.5 -1h4.5h3.5h3.5t4.5 -1h33l2 1q0 1 0.5 3t1 4.5t0.5 4.5v2q0 1 -1.5 4t-3.5 3h-39l-2 1t-3.5 2.5t-3.5 3t-2 2.5v0q1 1 2 2.5
t2 3.5t2.5 3.5l1.5 1.5q7 0 11.5 0.5t8.5 0.5h8h10h13q1 0 1.5 -1t0.5 -2v0v-1v0v0q0 -1 -0.5 -1t-1.5 -1q-2 0 -6.5 0.5t-10.5 0.5q-5 0 -10 -0.5t-7 -0.5h-2t-4.5 -0.5t-4 -1.5t-1.5 -3v-1l1.5 -1.5l1.5 -1.5h32q8 0 12 -4t4 -11q0 -2 -0.5 -5t-1 -5.5t-2 -4.5t-4.5 -3
q-4 0 -10 -0.5t-12 -1.5t-12.5 -1h-11.5q-1 0 -1.5 -0.5l-0.5 -0.5q0 -1 1 -4t1.5 -7t2 -7t2.5 -3h13q1 0 1.5 -1t0.5 -2t-0.5 -1.5t-1.5 -0.5h-15l-0.5 -1.5t-1.5 -2.5v-1q0 -4 3.5 -4.5t7 -0.5h6.5t3 -4v-1q0 -1 -1.5 -1.5t-3.5 -1t-3 -0.5h-2v-1q0 -3 2 -5.5t4 -2.5
q3 0 4.5 1t3.5 1h2h1l1 -1t2 -1l0.5 0.5t0.5 1.5l1 1.5l2 3t1.5 3l0.5 1.5l0.5 0.5l0.5 0.5q2 1 4 1.5t3.5 1t2.5 1.5t1 4t-2 4.5t-5 2t-5.5 1.5t-2.5 4v12l1.5 1t3.5 2.5t4 2.5t3 1t3 0.5t4.5 0.5t4.5 0.5l2 0.5q2 0 5.5 0.5l3.5 0.5q2 2 3 6.5t1.5 10t0.5 10.5v7
q0 9 -1 18.5t-1 18.5q0 7 0.5 13t1 11.5t0.5 12v14.5q0 1 1.5 1h2.5h2.5t1.5 -3q1 -20 2 -41t1 -42q0 -9 -1.5 -19t-1.5 -19q-4 -4 -10.5 -5.5t-13.5 -3t-12 -3t-5 -5.5q0 -3 3 -5t5 -2h26q3 0 7 -2t6 -4q3 -13 3.5 -26t0.5 -25q0 -4 -1 -7.5t-5 -6.5h-5.5t-9 -0.5
t-8.5 -0.5h-6h-3q-6 0 -11 1t-11 0q-1 1 -1 1.5v2.5t2.5 2.5t4.5 1.5h3h4h3.5h2.5t1.5 1t0.5 2v2v1q0 3 -1.5 7.5t-5.5 4.5q-2 0 -3 -1.5t-1 -3t-1 -3.5t-3 -3q-2 2 -2.5 4.5t-0.5 5.5v6v4l-1 2t-2 2h-1q-1 0 -5.5 -2t-9.5 -4.5t-8.5 -6t-3.5 -5.5q0 -3 1 -3.5t4 -0.5
q2 0 4.5 1t4.5 2t4 2.5t5 1.5q0 -7 -2.5 -10t-6 -4.5t-7 -3.5t-5.5 -7q-1 -2 -0.5 -4.5t0 -5.5t-2 -5t-4.5 -2q-2 0 -3 3t-1.5 7t-0.5 8v5q-3 0 -8 1t-10 2.5t-9 4t-4 5.5q-1 2 0.5 2.5t2.5 0.5q3 0 6.5 -1.5t6.5 -3l6 -3t7 -1.5q2 0 4 0.5t2 2.5q0 6 -3 9.5t-8 4.5t-10.5 2
t-10.5 2.5t-8.5 4t-3.5 8.5q4 0 8 -1t7 -3t5.5 -3t4.5 -1t2.5 1t1 2.5t0.5 3.5v3v2v3q-4 3 -10.5 3h-11.5q-3 2 -3 4t1.5 2.5t3.5 0.5q6 0 12 -1.5t12 -1.5h3q2 2 2 3v3v2t-2 2h-24q-1 0 -2 1.5t-1 2.5v0q0 2 1 2.5t2 0.5q7 0 14 -1t13 -1q0 1 0.5 3.5l0.5 2.5q0 1 -0.5 3.5
t-0.5 5t-0.5 5t-0.5 3.5v0v0h-1.5h-0.5l-1 -1l-2 -2t-1.5 -2t-1.5 -1h-0.5h-0.5q-3 0 -5 3q1 17 0 33t-1 33v18q0 1 1.5 1.5t2.5 1.5q9 -1 16.5 -0.5t16.5 1.5q1 0 3 0.5l4 1t3.5 1.5t1.5 3v0q-10 2 -19.5 4t-19.5 4q-2 0 -3 1.5t-1 3v3.5v4v3.5v4.5t1.5 3.5t3.5 1.5h1
l1.5 -1t1.5 -2v-5t0.5 -5.5t2 -4t4.5 -1.5zM148 188q4 2 6.5 7.5l5 11t4.5 10t4 4.5t2.5 -1.5t0.5 -2.5q0 -2 -1.5 -6t-3.5 -8.5t-3 -8.5t-1 -5q-6 -4 -13.5 -6t-15.5 -3t-16 -1h-15q-1 0 -2 0.5t-1 2.5v1.5t1 1.5h13q1 0 6.5 0.5l11 1t10.5 0.5t7 1zM162 87q0 -3 1.5 -4
t3.5 -1.5t4 -0.5q3 0 5 -1t3 -3t1 -7q0 -3 -0.5 -5.5t-0.5 -4.5q0 -1 0.5 -3.5t1 -4.5l1 -4t0.5 -3v-1v0l-2 -2v0q-3 0 -4 1.5t-1.5 3.5t-1 3.5t-3.5 1.5h-3t-2 -2v-12l3 -3h16q2 0 3 2t1 4.5v5v3.5v1q0 2 -0.5 7.5l-1 11t-1 10.5t-0.5 7q-1 2 -3.5 3t-5.5 1.5t-6 0.5h-3h-1
q-2 0 -3 -1.5t-1 -3.5zM95 69v-7q2 -2 4.5 -2.5t4.5 -0.5q7 0 7 6q0 5 -2 10t-8 5h-4q-2 -2 -2 -5.5v-5.5zM146 72v-1q0 -1 0.5 -3t1 -3.5t0.5 -2.5v-1q0 -1 0.5 -1.5t1.5 -0.5l1.5 0.5t2.5 1.5q1 0 1.5 0.5l0.5 0.5v13l-2 2l-2 -1l-4 -2l-2 -2v0zM164 68q0 -4 1 -6t5 -2
q3 0 3.5 3t0.5 5q0 3 -0.5 5t-3.5 2q-5 0 -5.5 -2t-0.5 -5z" />
</svg>
