<?xml version="1.0" standalone="no"?>
<!DOCTYPE svg PUBLIC "-//W3C//DTD SVG 1.1//EN" "http://www.w3.org/Graphics/SVG/1.1/DTD/svg11.dtd" >
<svg xmlns="http://www.w3.org/2000/svg" xmlns:xlink="http://www.w3.org/1999/xlink" version="1.1" viewBox="-10 0 266 256">
   <path fill="currentColor"
d="M114 249q0 1 1 1.5t3 0.5q1 0 2 -0.5t1 -1.5l0.5 -2.5l0.5 -2.5q0 -5 -1.5 -10t-3.5 -10t-3.5 -9.5t-2.5 -9.5q-1 -1 -1.5 -3t-1 -4.5t-1 -4.5l-0.5 -2q0 -1 -0.5 -2t-0.5 -2q-3 -11 -5.5 -24t-2.5 -25q0 -3 1.5 -4.5t4.5 -3t6 -1.5h5q3 0 4.5 1t3 2.5t3.5 3t4 1.5
t2.5 -1.5t0.5 -2.5q0 -3 -1.5 -4.5l-3 -3t-2.5 -3t-1 -3.5q0 -3 1 -4.5t2.5 -3t3 -3.5t1.5 -4v-1q-1 0 -2 -1.5t-2 -1.5l-9 10h-6l-1.5 -1t-4 -2.5t-4.5 -3.5l-3 -3q-2 -1 -2.5 -2t-0.5 -2q0 -2 0.5 -3t2.5 -2q1 -1 3 -2t4.5 -2.5t5 -2.5l2.5 -1h2h1h1.5h0.5q1 0 2 1t2.5 2
t2.5 2l1 1h2h3h3h2l0.5 0.5l1.5 1.5q-1 5 -1 11.5v14t0.5 15t1.5 12.5q0 1 0.5 2t0.5 2q1 0 3 1t4 2.5t4 2.5l2 1q1 1 2 3.5t1 3.5q0 3 -2.5 4.5t-6 2l-7 1t-7 2t-5.5 5.5t-2 11v9t0.5 8.5t0.5 8.5t1 10q0 1 0.5 4.5l1 7t1.5 6t2 2.5q4 0 5 -2.5t1 -6.5v-2q0 -1 -1 -8
t-1.5 -15t-1.5 -15.5t-1 -8.5v-1q0 -3 2.5 -6t5.5 -3h2t1 2q1 7 2 14.5l2 15t1.5 15t-0.5 14.5q1 1 2 1h2q4 0 4 -1.5v-4.5q0 -13 -2.5 -25.5t-2.5 -24.5q0 -2 0.5 -5.5t3.5 -3.5t4.5 4t3 9.5t3 10.5t1.5 6t0.5 3t0.5 5t0.5 5t0.5 3q0 3 1 7t1.5 7.5t1 6.5l0.5 3h8
q1 0 1.5 -1.5t0.5 -2.5v0q0 -7 -2 -14.5t-4.5 -15t-5 -14.5t-4.5 -14q-2 -5 -2.5 -12t-3.5 -12q-2 -3 -5.5 -5t-6.5 -4.5t-5 -5.5t-2 -5t0.5 -3.5t2.5 -1.5h16q1 0 2 1t2 3t2 3.5t2 1.5q0 1 1.5 3.5t3 5.5t3 5.5t1.5 3.5t1 4.5t2.5 8t4 10t4.5 10t4 7.5t4 3q3 0 5 -1.5
t2 -4.5l-1.5 -3.5t-4 -9t-5.5 -12.5t-5.5 -12.5t-4.5 -10t-3 -5.5t-3 -4t-4.5 -6t-5 -5t-4.5 -3l-21 -3q-1 0 -1 -3v-4v-6t1 -6q2 1 6 1.5t8.5 1.5t8.5 1.5t6 0.5q1 0 3.5 0.5t2.5 1.5q4 1 7 7t5.5 13t4.5 14t4 10h1h2q4 0 4.5 -1.5t0.5 -4.5q0 -6 -2.5 -10.5t-4.5 -8.5
q-6 -14 -10.5 -19.5t-10.5 -8t-14.5 -3t-21.5 -2.5v-10v-9t0.5 -7.5t0.5 -8t1 -10.5l2 -2t3 -1q8 -1 17.5 -1.5t18.5 -0.5q1 0 1.5 -1t0.5 -2t-0.5 -2t-1.5 -1h-36q-2 0 -2 -4v-9t-0.5 -9t-5.5 -4v0l-4 4q1 16 0.5 31.5t-2.5 31.5q-1 2 -2 2h-2h-0.5h-0.5l-11 -11v-1v-1
q1 -3 2.5 -4.5t3 -3.5t2.5 -4t1 -6t-2.5 -6.5t-6.5 -4.5t-8.5 -3t-8.5 -2t-6.5 -1.5l-2.5 -0.5v-20q0 -2 -0.5 -2.5t-2.5 -0.5q-1 0 -3 1t-2 2v18q0 2 -3.5 3t-8.5 2t-11 2t-11 3t-8.5 4t-3.5 5q0 2 1.5 2.5t3.5 0.5q6 0 10.5 -2t9 -4.5t8.5 -4.5t9 -2h2q2 0 2 2q0 1 0.5 3
t0.5 5v4v3v4v5t-0.5 4l-0.5 2q0 4 -0.5 5.5t-2.5 1.5q-4 0 -6.5 -2.5t-2.5 -5.5t1 -4.5t2 -3.5t2.5 -4t1.5 -5q-3 0 -5 1.5t-4 3.5t-4 3.5t-5 1.5v0q-3 -1 -4.5 -2t-2.5 -1.5l-2 -1t-3 -0.5t-4 1t-2 4v0v0q1 1 3 1.5t4 1.5t3.5 2t2.5 2q2 1 2.5 1.5t0.5 2.5q0 3 -1.5 5.5
t-3 4t-4 3t-3.5 3.5q1 2 2 3t2 1q3 0 5.5 -2t4.5 -4l4 -4t5 -2q2 0 3 1t2.5 2l3 2t2.5 0l1.5 9t0.5 8v5.5t-0.5 4.5t-0.5 4.5t-1 6.5q-8 -4 -12 -11q3 -5 5.5 -9t2.5 -10h-4q-1 1 -2 3t-2.5 4t-3.5 3t-4 1t-3.5 -0.5t-3 -1.5l-3 -2t-3.5 -1q-1 0 -3 0.5t-2 2.5t2 3.5t3.5 3
l3 3t1.5 4.5v1v1l-13 13v1v1q0 2 0.5 3t2.5 1q4 0 6.5 -2t4.5 -4.5l4 -5t6 -2.5h1l16 8v2v3q0 9 -3 19.5t-6 20.5q-1 2 -3.5 6.5t-5 10t-4.5 10t-1 6.5q-1 1 -2.5 4t-3.5 6.5t-3.5 7t-1.5 4.5q-1 1 -3 2.5l-2 1.5q0 1 -0.5 1h-0.5q0 3 2.5 3h4.5q4 0 8 -5t7 -11.5t5 -13
t4 -10.5q1 -3 3 -5.5t3 -5.5q2 -5 2.5 -10.5t0.5 -9.5l3 -4q4 3 5 7q3 18 7.5 37t10.5 37zM98 117q0 -2 0.5 -4t2.5 -2t5.5 2.5t4.5 4.5q0 1 -1 2t-2.5 2t-2.5 1.5t-2 0.5q-3 0 -4 -2t-1 -5zM167 71q0 6 2.5 9.5t6 5t9 2t10.5 0.5h2h4h3h3q0 -1 1.5 -2t1.5 -2t-2 -2.5
t-3 -2.5q-1 0 -4 0.5t-7 0.5q-3 0 -6.5 -0.5t-4.5 -0.5q-4 0 -6 -2t-2 -5q0 -4 2.5 -5.5t6.5 -2.5t8.5 -1.5t8.5 -2.5t6.5 -5t2.5 -9q0 -2 -0.5 -5.5t-1.5 -7t-1.5 -6.5t-1.5 -3h-42q-1 0 -1.5 1t-0.5 2t1.5 2t1.5 2q2 0 6 -0.5t8 -0.5q5 0 9 0.5t6 0.5q1 0 3.5 0.5l2.5 0.5
v19q0 3 -2.5 4t-6 1.5t-7.5 1t-7.5 2t-6 4t-2.5 7.5zM98 67v-3t2 -2q5 0 8.5 3t5.5 7v0q0 2 -1.5 3l-3 2t-3.5 1h-3q-3 0 -4 -1t-1 -2.5v-3.5v-4zM102 41q3 0 7 1.5l8 3t6.5 4.5t2.5 6q0 2 -2 5t-5 3h-1l-1.5 -1t-3 -1.5t-3 -1.5l-1.5 -1l-1.5 -0.5t-3 -0.5t-2.5 -0.5
l-1 -0.5q-1 0 -1.5 -0.5l-0.5 -0.5v-13q0 -1 1.5 -1.5z" />
</svg>
