<?xml version="1.0" standalone="no"?>
<!DOCTYPE svg PUBLIC "-//W3C//DTD SVG 1.1//EN" "http://www.w3.org/Graphics/SVG/1.1/DTD/svg11.dtd" >
<svg xmlns="http://www.w3.org/2000/svg" xmlns:xlink="http://www.w3.org/1999/xlink" version="1.1" viewBox="-10 0 266 256">
   <path fill="currentColor"
d="M143 198q3 7 4.5 13.5t3 13.5t3 13.5t4.5 13.5q1 2 2 2.5t3 0.5t3 -1t1 -3t-1 -7.5t-3 -12.5t-5 -15t-5.5 -14t-5.5 -10.5t-5 -4.5l-31 -3q-1 0 -2.5 -1t-1.5 -3q0 -1 0.5 -2t2.5 0h3q1 0 3.5 -0.5t3.5 -0.5h3h14t14 3q1 2 3.5 6.5t5.5 10t5.5 10t3.5 6.5t2 6t2.5 7.5
t3 6t4.5 2.5q2 0 3.5 -1.5t1.5 -3.5q0 -3 -1 -6q-1 -1 -3.5 -5.5t-5.5 -10t-7 -12t-7 -11.5t-5 -8.5l-2 -3.5l-44 -4q-1 0 -1.5 -1.5t-0.5 -2.5q0 -3 2 -3h43q4 0 8 4t8 9.5t7 12t5.5 12t4 9t2.5 3.5q3 0 4.5 -1.5t1.5 -4.5t-3.5 -10.5t-8 -15.5t-9.5 -14.5t-7 -7.5
q-3 -1 -9 -1.5t-12 -0.5h-13t-12.5 -1t-8.5 -3.5t-3 -7.5v-1q0 -1 0.5 -4t0.5 -6.5t0.5 -6.5t0.5 -4q0 -2 2 -2.5t4 -1.5q10 -1 20 -1h21q1 0 1.5 -2.5l0.5 -2.5h-6q-5 0 -10 -0.5t-9 -0.5h-6h-3t-3.5 -0.5t-3 -0.5h-2.5t-2 -0.5l-1 -0.5v-4v-5l-0.5 -0.5t-1.5 -0.5
q-4 4 -6.5 11t-3 15t-0.5 15.5v13.5t-2 12t-2 13q0 4 2 7.5t6 4.5q2 0 6 0.5t9 0.5t9.5 0.5t5.5 0.5h2v1q0 1 -3.5 2.5t-8.5 3t-10.5 3t-11 4t-8.5 6t-3 7.5v1v2.5t0.5 3l1 3l0.5 1.5q1 2 1 5.5t0.5 6t2 4.5t3.5 2h2h2q1 -1 1.5 -2.5t0.5 -3.5q0 -6 -2.5 -11t-2.5 -11
q0 -4 3.5 -7t7.5 -3h3t2 1q2 8 5 15.5t3 16.5q1 1 1.5 1h1.5q3 0 5 -2t2 -5q0 -4 -1.5 -7.5t-3 -6.5t-3 -6.5t-1.5 -7.5l0.5 -1.5t0.5 -2.5l2 -1.5t4 -2.5t4 -2.5t4 -1.5v0zM119 137q0 6 3.5 7.5t8.5 2.5q2 0 6 0.5t7.5 1l7 1l3.5 0.5h4.5h4.5h3.5h2.5l4 -4q-1 -2 -4 -3h-31
h-2.5t-5 -0.5t-5 -2t-2.5 -3.5t3 -2.5t4 -1.5h6h8h9h5q6 0 11 -3t5 -10v-25q2 -3 2 -7v-7l1 -0.5t1.5 -1t2 -1t3.5 -0.5t3.5 -0.5t2.5 -0.5q2 -1 2 -2v-1v-2.5t-2 -1.5h-28v-16q4 0 7.5 1.5t6 3.5t6 4t6.5 2q2 0 3.5 -1.5t1.5 -4.5q0 -4 -3 -4.5t-5 -1.5q-3 -1 -8.5 -2.5
t-9 -2.5t-3.5 -2v-8q4 0 7.5 1.5t6.5 3t5.5 2.5t3.5 1q2 0 3.5 -1t1.5 -3q0 -4 -4 -6t-9 -3.5t-9.5 -3t-4.5 -4.5q0 -1 -0.5 -3t-0.5 -4v-3.5v-2.5q-2 -3 -4 -3q-3 0 -4 2q1 7 -1 11.5t-5 7t-7.5 3.5t-8 2t-6 3t-2.5 5q0 2 4 2h1h1l16 -8h1h1q6 0 6 6q0 3 -5 5t-11.5 3.5
t-11.5 4t-5 7.5q4 0 7 -1.5t6.5 -3.5t6.5 -3.5t7 -1.5q1 0 1.5 0.5l1.5 1.5v2v2v6t-1 5q-7 1 -15.5 2t-14.5 1l-0.5 0.5l-0.5 0.5q0 2 1 3t3 1l2 0.5t4.5 0.5h4h2.5q0 1 0.5 3.5l0.5 2.5q0 1 -0.5 2.5t-1 4t-1 4t-2.5 1.5h-12v1.5v1.5q1 1 1 1.5t1 0.5l36 3q2 0 4 1.5t2 4.5
q0 9 -2.5 12t-10.5 4h-25q-3 0 -5.5 1.5t-4.5 3.5v2v3zM72 112q0 1 1 1.5t3 0.5q4 0 10.5 -4t12.5 -10t10.5 -12.5t4.5 -10.5q0 -8 -4 -14t-9 -11v-1q0 -2 3 -3t7 -3t7.5 -6.5t3.5 -12.5v-4l-1 -0.5t-2 -1.5v0h-1q0 1 -0.5 1.5l-0.5 0.5q0 1 -0.5 2.5t-1 3.5t-1 3.5
t-0.5 2.5q-1 3 -2 4t-2.5 1.5t-3 0t-4.5 -0.5q0 -6 2 -11.5t2 -11.5q0 -2 -0.5 -3t-3.5 -1v0v0l-1 1t-1 2q-1 0 -1.5 1.5t-0.5 3t-0.5 3t-0.5 2.5l-0.5 2.5l-1 5t-0.5 4.5v3t-2 1h-2q-5 0 -7.5 -3.5t-2.5 -9.5v-1l0.5 -2.5l0.5 -2.5v-1v-1q-1 -2 -2 -3t-3 -1q-3 0 -3 2.5
v4.5q0 5 0.5 8.5t1.5 9.5q1 4 4 5t6.5 1.5t5.5 2.5t2 6q0 3 -1 5.5t-3 4.5q-8 6 -16 12.5t-15 14.5v1q0 2 1.5 3t2.5 1q2 0 3.5 -1t3.5 -2q7 -8 14.5 -14.5t15.5 -14.5h1q3 0 5 3.5t2 6.5v2t-1 1q0 1 -1 2.5t-2.5 3t-2.5 3l-1 1.5q-2 2 -6.5 5.5l-9 7t-8.5 6.5t-4 4zM146 91
q0 -7 3 -10t10 -3h2.5h3.5q3 1 3.5 3.5t0.5 5.5v3t-0.5 3.5t-1.5 3t-3 1.5h-1q-2 -1 -6 -1t-6.5 -0.5t-3.5 -0.5l-1 -1v-2v-2z" />
</svg>
