<?xml version="1.0" standalone="no"?>
<!DOCTYPE svg PUBLIC "-//W3C//DTD SVG 1.1//EN" "http://www.w3.org/Graphics/SVG/1.1/DTD/svg11.dtd" >
<svg xmlns="http://www.w3.org/2000/svg" xmlns:xlink="http://www.w3.org/1999/xlink" version="1.1" viewBox="-10 0 266 256">
   <path fill="currentColor"
d="M96 227q0 2 0.5 6l1 8t1.5 7t3 3t4.5 -2t2.5 -4q0 -5 -2.5 -9.5t-2.5 -9.5q0 -4 3 -5t7 -1q6 0 7 4.5t1 9.5t1 9.5t5 4.5q3 0 4 -1.5t1 -4.5t-1 -5.5l-2 -5t-2 -5.5t-1 -5q0 -3 1 -4t2.5 -1.5t3.5 -0.5h3q5 0 6.5 5t2.5 10.5t2.5 10t5.5 4.5h1.5t1.5 -1v-3v-3
q0 -3 -2 -9.5t-5 -13t-6 -12t-6 -7.5q-2 -1 -5.5 -1.5t-6.5 -0.5h-4q-1 0 -2.5 0.5t-3 0.5t-3 0.5l-1.5 0.5q-2 0 -5.5 -0.5t-3.5 -1.5v-4q5 0 8.5 -0.5t7 -0.5h7.5h8h13q3 2 6.5 9t8 14t9 13t8.5 6q2 0 3.5 -1.5t1.5 -3.5q0 -3 -2 -5t-4 -5q-1 -1 -3 -3.5l-4 -5t-3.5 -4.5
t-2.5 -3l-17 -17q-2 -1 -3 -1h-3q-8 0 -16 0.5t-16 0.5h-4h-3t-1 -2v-2q0 -3 6.5 -4.5t15.5 -2t17.5 -0.5h10.5h2.5h2.5q2 2 6.5 7.5t9 11.5t8.5 10.5t6 4.5l1.5 -0.5t2.5 -1.5t1.5 -2t-0.5 -2l-18 -22q-3 -7 -9 -9.5t-13 -2.5q-11 0 -22 1t-22 1h-5q-1 -2 -1.5 -3.5
t-1.5 -3.5q3 -10 2.5 -15t0.5 -7.5t5 -3.5t14 -1h4t6.5 -0.5t7 -0.5h4.5l1 -2v0v-1q0 -1 -0.5 -1.5l-0.5 -0.5h-42q0 -1 0.5 -3t0.5 -3q0 -2 -0.5 -3.5t-3.5 -1.5q-2 0 -3 3.5t-1.5 9.5t-1 12.5t-0.5 12.5v11v7v7q0 2 0.5 5t0.5 6.5t1 7.5q1 3 5 3.5t7 0.5q5 0 10 -1.5
t10 -1.5q1 0 4.5 0.5t3.5 1.5q2 1 2 4t-3 4t-7.5 1h-10t-10 1t-7.5 4.5t-3 10.5zM107 151q0 3 2 5t5 2h3q3 0 9 -0.5t13 -1t13 -1t9 -0.5l1 -1l2 -2v0v0q0 -2 -2 -2.5t-3 -0.5q-11 0 -20.5 1.5t-20.5 1.5q-2 0 -2 -1v-2v-1v-1q1 -1 3.5 -1t3.5 -1h5t8.5 -0.5t8 -0.5h5.5
q5 -2 6.5 -7t1.5 -10v-5t-1 -5q-3 0 -5 -0.5t-4 -0.5h-4h-5h-6h-6t-6.5 0.5t-7.5 0.5q-1 1 -2 1.5t-2 1.5l1 1h20t20 2l0.5 1t0.5 2v1.5t-0.5 3.5t-0.5 3.5v2.5q-4 2 -11 2t-14 1t-12.5 3t-5.5 8zM79 97v1q0 5 -1.5 11.5t-1.5 11.5q7 0 8.5 -4t2 -9.5t1 -10t4.5 -4.5
q3 0 3.5 2.5l1 5t1 4.5t2.5 2v0q1 0 2 -1l1 -1v-3.5v-2.5v-2v-3.5t-0.5 -3t-2.5 -1.5l-12 -3l-0.5 -0.5l-0.5 -0.5q0 -3 1.5 -4.5t4 -3t4.5 -2.5t3 -3l0.5 -3t0.5 -4q0 -6 -2 -8t-4 -2.5t-3.5 -0.5t-1.5 -3l0.5 -0.5l0.5 -0.5q6 -1 7.5 -4.5t1.5 -9.5q0 -3 -0.5 -5t-2 -3.5
t-3.5 -3t-3 -4.5q-1 -1 -1.5 -2.5t-0.5 -2.5t-1 -2t-3 -1t-2.5 0.5t-0.5 1.5v2.5v2.5q0 3 -2.5 5t-5.5 3.5t-5 4t-2 6.5q0 5 2 7t5 2.5t5.5 1.5t2.5 4q0 1 -2 2t-4.5 2t-4.5 3.5t-2 6.5q0 5 2 7t4 3l4 2t2 4v0.5v0.5q-2 2 -3 2.5t-3 1t-4 0.5t-4 1t-3.5 4t-2.5 6t-1 6.5v4.5
q0 3 2 3q3 0 4.5 -1.5l2.5 -2.5q0 -1 0.5 -4t1 -5.5t1.5 -4.5t4 -2h1q0 1 1 2l1 1v1zM169 96h2t1 2v12q0 1 1.5 1.5t2.5 0.5l2 -0.5t2 -1.5v-12q0 -2 1.5 -2.5t3.5 -0.5h1.5t1.5 1v15q6 0 7 -3t1 -8v-3t-1 -4t-1.5 -3.5t-1.5 -1.5h-12l-0.5 -1.5t-0.5 -2.5t2.5 -2t5 -2.5
t4.5 -4.5t2 -9v-5q-1 -2 -3 -2.5l-4 -1l-4 -1t-3 -2.5q2 -4 4.5 -4t5 -1t4.5 -4t2 -11v-5q-4 -3 -6.5 -3.5t-4 -1t-2.5 -2.5t-2 -7q0 -1 -1 -1.5l-1 -0.5h-1h-1l-1.5 0.5t-1.5 1.5v11l-1.5 0.5t-3.5 2t-3 4t-1 7.5q0 4 1 6.5t2 4t2.5 2.5t1.5 2l-1.5 1.5l-3 3t-2.5 2t-2 0.5
v13q0 2 2 3t4 2.5l4 3t2 4.5q0 2 -2.5 2.5t-5.5 0.5t-5.5 1.5t-2.5 3.5v11q0 1 0.5 1.5l0.5 0.5h1q2 0 3 -2t1.5 -4.5t1.5 -4.5t3 -2zM117 82l-0.5 0.5t-0.5 1.5v19q0 2 2 3t4.5 1h5.5h3q7 0 11 -0.5t6.5 -3t3.5 -6t1 -10.5q0 -1 -1 -2.5t-2 -1.5q-2 0 -4 1t-4 1q-4 0 -4 -4
t2.5 -5t5.5 -2t5.5 -3.5t2.5 -8.5v-2.5v-2.5l-1 -2h-2h-1v4q0 3 -1 4.5t-2.5 3t-3.5 1.5t-3 -1.5t-1.5 -3.5t-0.5 -5v-3l0.5 -1t1.5 -1q5 -7 8 -12t7 -11v0v-1t-0.5 -1.5t-1.5 -0.5h-2q-2 0 -5.5 0.5t-7.5 1t-7 1t-4 0.5q-2 0 -5.5 0.5t-7.5 1t-7 1.5t-3 2l0.5 0.5l0.5 0.5
l0.5 0.5l0.5 0.5h10l0.5 0.5l0.5 0.5q1 5 2 7.5t2.5 4t4 2l7.5 1.5v1v1v1v1l-0.5 2t-0.5 3.5t-0.5 3t-0.5 2.5t-1.5 2t-2.5 1q-4 0 -5.5 -2t-2 -4.5l-1 -5t-4.5 -4.5q0 1 -1 2.5l-1 1.5q0 9 3 12.5t7 4.5t7.5 1.5t3.5 4.5q0 3 -2 3.5t-4 0.5q-3 0 -5 -2t-5 -2zM141 90
q3 0 3.5 2.5t0.5 4.5v2t-1 1q-5 1 -8.5 1.5t-8.5 0.5h-1h-2t-1.5 -0.5t-0.5 -1.5v-7l3 -1t6.5 -1t6.5 -0.5zM168 69q0 -5 2 -6t6 -1t6.5 1t2.5 6q0 4 -2.5 5t-6.5 1t-6 -1t-2 -5zM78 66q0 -4 3 -5.5t7 -1.5q2 0 4.5 2t2.5 4q0 4 -3 5.5t-6 1.5q-4 0 -6 -1t-2 -5zM124 42
q0 -3 1.5 -4.5t3.5 -2l4 -1t4 -0.5q6 0 6 5q0 3 -2 4.5t-4.5 2l-5 1t-4.5 0.5q-2 -1 -2.5 -2.5t-0.5 -2.5zM169 39q0 -1 0.5 -3.5t2.5 -2.5h11q1 0 2 2l1 2v1q0 5 -3 6.5t-7 1.5q-3 0 -5 -1.5t-2 -5.5zM76 36q0 -4 3.5 -5t7.5 -1t5.5 1.5t1.5 5.5q0 1 -0.5 2.5l-0.5 1.5
q-1 2 -4 2h-4h-6q-2 -1 -2.5 -3t-0.5 -4zM116 20l1 2h3.5h3.5h2h3.5h3.5h1q1 0 2.5 -0.5t3.5 -0.5t3 -0.5l1 -0.5v-4h-6.5t-9 0.5t-8.5 1.5t-4 2z" />
</svg>
