<?xml version="1.0" standalone="no"?>
<!DOCTYPE svg PUBLIC "-//W3C//DTD SVG 1.1//EN" "http://www.w3.org/Graphics/SVG/1.1/DTD/svg11.dtd" >
<svg xmlns="http://www.w3.org/2000/svg" xmlns:xlink="http://www.w3.org/1999/xlink" version="1.1" viewBox="-10 0 266 256">
   <path fill="currentColor"
d="M108 217v8q0 5 0.5 11.5t2.5 11t5 4.5t6 -2t3 -5q0 -2 -1 -5.5t-2.5 -7t-2.5 -7.5t-1 -8q0 -5 0.5 -8t4.5 -6q1 0 3 -0.5t4.5 -1t4.5 -1t3 -0.5h1h2q3 0 5 3.5t4 9t4 12t4 12.5t5 9.5t8 3.5q2 0 4.5 -1t2.5 -3q0 -3 -4 -8t-8.5 -11.5t-8.5 -13t-4 -12.5q0 -1 0.5 -2
t1.5 -1h7h8h9t8 -1v-2q0 -2 -0.5 -2.5t-1.5 -2.5h-9h-9q-1 0 -4 0.5t-6.5 0.5t-6.5 0.5t-4 0.5q-8 0 -15 0.5t-12 2.5t-8 7t-3 15zM58 245q0 2 1 3.5t3 1.5q4 0 6.5 -0.5t2.5 -3.5q0 -10 -1 -19t-1 -18v-26q0 -14 0.5 -27t2 -26.5t4.5 -25.5q4 -5 9.5 -5.5t11.5 -0.5h6
q2 0 2 1v2q0 3 -2 4.5t-4 3.5t-4 5t-2 9v4v4q2 2 6 4t8.5 3t8.5 1.5t7 0.5l1 1.5l1 1.5v1q0 2 -2 4l-3 3q-6 0 -11.5 1t-9 3.5t-6 6t-2.5 9.5v5t1 6t2.5 5t5.5 2q2 0 3.5 -1t1.5 -3t-1 -4t-2 -3.5t-1.5 -3t-0.5 -3.5q0 -4 2.5 -6t6.5 -2h1t1 1l17 15l1 0.5l1 0.5
q2 0 3.5 -0.5t1.5 -3.5l-0.5 -1.5t-1.5 -1.5q0 -1 -1.5 -3l-3 -4l-3 -4t-2.5 -3q5 -4 8.5 -7t3.5 -9q0 -5 -2.5 -7t-6.5 -3.5t-8.5 -2t-8.5 -2t-6.5 -3.5t-2.5 -6t2.5 -5t6.5 -1h1l3.5 0.5l7 1t7 0.5h4.5l3.5 -0.5t7.5 -1t7.5 -1t4.5 -0.5l0.5 -0.5l0.5 -0.5q2 0 6.5 1.5
t9.5 3t8.5 4t3.5 5.5q0 4 -3 6.5t-7.5 4t-9.5 2.5t-9 3t-7 4.5t-3 6.5q0 2 1 7t3 9.5t4.5 8.5t5.5 4t3 -2v-3q0 -2 -1.5 -4.5t-3 -4.5t-3 -4.5t-1.5 -5.5q0 -4 2.5 -6.5t7.5 -2.5t8 5t5.5 11t6 11.5t9.5 5.5q2 0 4.5 -2.5t2.5 -4.5q0 -3 -3.5 -6.5l-7.5 -7.5t-7.5 -8
t-3.5 -9q0 -1 3 -3t7 -4.5t7 -5.5t3 -7q0 -5 -3 -8t-7.5 -4t-9.5 -1.5t-9.5 -1.5t-7 -3.5t-2.5 -6.5q0 -1 1.5 -2t2.5 -1h18q3 0 5.5 -2t4 -4t3 -4.5t1.5 -4.5t-1 -4.5t-2.5 -5t-3 -4.5t-3.5 -2h-22l-1.5 -1t-2.5 -1l-1 -2q-2 -4 1.5 -6.5t8.5 -4.5t10.5 -4t7.5 -6
q3 -3 5 -6.5t2 -8.5q0 -2 -2 -3.5t-5 -1.5t-4 2t-2 5l-2 6t-4 6t-8.5 4.5t-15.5 1.5h-4.5h-4.5q-2 0 -2 -2v-2q0 -6 1 -11t1 -11q0 -3 -2 -3.5t-5 -0.5h-1h-2t-2.5 0.5t-1.5 1.5v7v7q0 1 0.5 2l1 2t0.5 2.5v1.5q0 3 -2 5.5t-5 2.5h-6.5t-7 -0.5t-7 -1.5t-6.5 -3
q-2 -2 -4 -5.5t-3.5 -7t-3 -6.5t-3.5 -3q-7 0 -7 7q0 6 3 11t7.5 8.5t10 5.5t11.5 1v2v2v1.5t-0.5 3l-1 3t-2.5 1.5h-30q-2 0 -3.5 1.5t-1.5 2.5t0.5 2t1.5 1h35v16q-7 1 -13.5 1.5t-12 2.5t-9.5 5.5t-7 9.5q0 3 -0.5 10.5t-1 15.5t-1 15.5t-0.5 10.5v6t-0.5 12t-0.5 14v11
v9q0 6 0.5 12.5t0.5 13.5v8zM113 99l1.5 -1.5l1.5 -1.5q8 -1 14 -1h14q4 0 5 0.5t1 3.5t-2 5t-4.5 2.5t-5.5 0.5h-6h-4.5t-7 -0.5t-6 -2.5t-1.5 -5zM113 88v-16l3 -1l3 -0.5t6.5 -0.5t7 -0.5t5.5 -0.5h7h5l2 2v14l-4 3h-35zM169 71q5 0 7 2.5t2 6.5q0 5 -4 6t-8 1h-1h-2
t-2 -0.5t-1 -1.5v-13l1 -0.5t2.5 -0.5h3h2.5zM113 57v-2v-1l3 -2h34l0.5 3t1.5 5v1v1q-1 0 -1.5 0.5l-0.5 0.5h-35q-1 0 -1.5 -0.5l-0.5 -0.5v-2.5v-2.5z" />
</svg>
