<?xml version="1.0" standalone="no"?>
<!DOCTYPE svg PUBLIC "-//W3C//DTD SVG 1.1//EN" "http://www.w3.org/Graphics/SVG/1.1/DTD/svg11.dtd" >
<svg xmlns="http://www.w3.org/2000/svg" xmlns:xlink="http://www.w3.org/1999/xlink" version="1.1" viewBox="-10 0 266 256">
   <path fill="currentColor"
d="M59 240v3.5t1 3.5t2 3t3 1t3.5 -2t2.5 -4v-9.5v-15.5v-17v-17v-15v-10v-3.5t0.5 -7t0.5 -7v-4.5q1 -5 1 -11q0 -7 0.5 -13t2 -12t4.5 -10t10 -6t12 -2q2 0 3 1t1 3q0 4 -2 5l-4 2t-4 4t-2 9t3.5 7.5t8 2t8.5 1t4 3.5q0 4 -4.5 4.5t-10 1t-10 2.5t-4.5 9l0.5 3t1.5 5.5
t2.5 4.5t3.5 2t2.5 -1t0.5 -2q0 -3 -1 -5.5t-1 -5.5q0 -4 4 -6t7 -2h3q3 4 4.5 7.5t1.5 8.5q0 3 -1 4t-2.5 1.5t-3.5 1t-4 1.5q-6 5 -9.5 12t-4.5 15.5t-1 16.5v15q-2 6 -2.5 11.5t-0.5 10.5v5q0 1 1 1.5t2 0.5q4 0 5.5 -5t2.5 -13.5t1 -18t1 -18.5t3 -16.5t7 -10.5
q3 -3 8 -4t10.5 -1.5t11.5 -0.5h9h32l0.5 -0.5t0.5 -1.5v0q0 -2 -1 -3t-3 -1.5l-4 -1t-3 -0.5q-2 0 -3.5 1t-2.5 1q-3 0 -5.5 -2t-4 -5t-2 -6t-0.5 -6t1.5 -5.5t5.5 -2.5q3 0 5 4l4.5 9t6 9t9.5 4q2 0 2.5 -1t0.5 -3q0 -4 -2.5 -7t-6 -5t-6.5 -4.5t-3 -7.5q0 -3 1.5 -4.5
t3 -2.5t3.5 -3t2 -5q0 -5 -4 -7t-9 -3.5t-10 -1.5t-8 -1l-1.5 -1t-1.5 -2v0v0v-1v0q0 -1 1.5 -2l1.5 -1h4.5t7.5 -0.5t7.5 -0.5h4.5q1 -1 3.5 -1.5t3 -0.5t1 -0.5l0.5 -0.5v-17q0 -2 -1.5 -3.5t-3.5 -2.5l-4 -2t-3 -1h-4.5h-6.5h-6h-4q-2 -1 -2 -2v-2q0 -4 2 -5.5t5 -2.5
t7 -1.5t7 -2t5.5 -5t2.5 -10.5q0 -2 -2 -3.5t-4 -1.5q-3 0 -3.5 1.5t-1 3.5l-1 4t-2.5 3q-4 3 -11.5 5t-12.5 2q-3 0 -4 -1.5t-1 -4.5t1 -6t1 -6q0 -6 -2.5 -8t-7.5 -2q-1 0 -2.5 0.5t-1.5 1.5v21l-1 1l-2 2l-2 1t-3.5 1t-3 0.5l-1.5 0.5q-1 0 -3 -0.5t-4 -1.5t-4 -1.5
t-3 -1.5q0 -2 -0.5 -4.5t-1.5 -5.5t-2.5 -4.5t-4.5 -1.5q-5 0 -5 4q0 7 2 11t5 6t6.5 3t6 2t4.5 2.5t2 4.5q0 1 -0.5 2t-2.5 1h-36q-2 0 -2.5 1.5t-0.5 2.5q0 3 3 5h5q7 0 14.5 -1t14.5 -1h2t2 2v2v3q0 6 -3.5 8t-9 2.5t-11.5 1t-11 4.5q-6 13 -7 26t-2 27q-2 25 -2 50.5
t-1 50.5zM161 209q6 0 9.5 2.5t6 6.5t3.5 9t2.5 8.5t3 6.5t3.5 3h1l6 -1.5t2 -5.5q0 -3 -2.5 -6t-3.5 -5q-6 -9 -9 -14t-7 -7.5t-10.5 -3t-18.5 -0.5q0 -1 -0.5 -4t-0.5 -4l0.5 -0.5t1.5 -0.5q4 -1 9 -1.5l10 -1t10 -0.5h9l3 -3v-1q0 -2 -2.5 -3t-3.5 -1t-3.5 1l-2.5 1h-4
t-6.5 0.5t-7 0.5h-5.5t-6 0.5t-9.5 0.5t-11 0.5t-10 1t-7.5 1.5t-3 3v0.5v0.5q1 0 3.5 1t2.5 2h2q4 0 9.5 -1.5t10.5 -1.5h2.5t1.5 3v23q0 1 -0.5 2t-1.5 2l-1.5 1.5t-1.5 0.5l-12 -1l-0.5 -0.5l-0.5 -0.5q-1 -2 -1.5 -4.5l-1 -5t-0.5 -5v-3.5t-1.5 -2l-1.5 -1h-1v0h-1
l-0.5 0.5l-0.5 0.5q0 1 -0.5 5t-0.5 5q0 10 2 14t5.5 5.5t10 1t16.5 -0.5h4h6h6h4l0.5 -0.5t0.5 -1.5v-1q0 -2 -2 -3.5t-5 -2t-6 -0.5h-5q-1 -1 -2 -4t-1 -4q0 -3 2 -4.5t4 -2t5 -0.5h5zM140 176q3 2 4.5 2h4.5q4 0 6.5 -1t6 -1.5t6.5 -1t7 0.5l0.5 -0.5l1.5 -1.5v-1v0
l-3 -3h-15h-14h-6.5t-9.5 0.5t-9.5 0.5h-6.5v1.5v0.5q0 1 1.5 2.5t3.5 1.5h22zM122 137q0 -6 2.5 -9.5t5.5 -6t5 -4t2 -3.5v0q0 -1 -0.5 -1.5l-0.5 -0.5h-30q-4 0 -4.5 -2t-0.5 -4v-2.5v-1.5q2 -2 3 -2h4t4 0.5t4 1.5h23q3 -2 5 -2.5t6 -0.5q2 0 5 0.5l6 1t5.5 2t2.5 2.5
q0 6 -3 8t-7.5 4t-7.5 5.5t-3 10.5q0 4 1 7.5t1 6.5v1l-2 2t-2 1h-16q-1 0 -2 -2t-2.5 -4.5t-2.5 -5zM116 91v-2q0 -2 2 -2q1 0 3 -0.5t4.5 -0.5h4.5h3l0.5 -0.5t1.5 -0.5q2 0 4 1.5t2 3.5t-2.5 4t-4.5 2h-16q-2 0 -2 -2v-3zM113 73q0 -5 2.5 -7t6 -3t7.5 -1h9q3 0 3.5 2
t0.5 4q0 4 -1 6t-4 4q-5 1 -8.5 1.5t-8.5 0.5q-4 0 -5.5 -1.5t-1.5 -5.5zM155 63v0q1 0 3 0.5t4 0.5t4 0.5t3 0.5t1.5 1t0.5 2q0 5 -2 7.5t-4.5 3.5t-7.5 1h-7v-12q0 -1 1.5 -2.5l2.5 -2.5h1zM115 53q0 -3 3 -4.5t7 -2.5t8 -1h4v0q3 2 4 3t1 3v2.5t-2 2.5l-22 1
q-2 0 -2.5 -1.5t-0.5 -2.5z" />
</svg>
