<?xml version="1.0" standalone="no"?>
<!DOCTYPE svg PUBLIC "-//W3C//DTD SVG 1.1//EN" "http://www.w3.org/Graphics/SVG/1.1/DTD/svg11.dtd" >
<svg xmlns="http://www.w3.org/2000/svg" xmlns:xlink="http://www.w3.org/1999/xlink" version="1.1" viewBox="-10 0 266 256">
   <path fill="currentColor"
d="M126 205q0 5 -3 7.5t-7.5 3.5t-9 2.5t-6.5 3.5q-3 3 -4 6.5t-1 7.5v8v7q1 0 2.5 -0.5l3 -1t3 -1.5t1.5 -2v-16q0 -1 2.5 -3.5t3.5 -2.5q5 -2 9.5 -2.5t7.5 -1.5t4.5 -4t1.5 -11v-3v-3q-3 -5 -10 -6h-23l-0.5 -0.5l-0.5 -0.5v-1q0 -6 5 -7.5t11.5 -2t12 -1t5.5 -4.5v-23
l-2 -4t-4.5 -8t-4.5 -8l-2 -4v-1l5 -9q1 -2 3 -3t4.5 -2t4 -2t1.5 -4h-6h-7.5h-8.5h-6q-1 0 -5 -0.5t-6 -2.5l-0.5 -1.5t-0.5 -2.5q0 -5 3 -6l9 -3h1q4 0 8.5 2.5t10.5 2.5q4 0 6.5 -1t5 -1.5t5 -1.5t4.5 -1h6q4 0 7.5 0.5t6 2t2.5 4.5q0 4 -3.5 6.5t-8 4.5t-8.5 3.5t-7 1.5
q-1 2 -1 5v6q0 2 0.5 6t2 7t3.5 5.5t5 2.5h3.5t1.5 -2v-0.5v-0.5l-9 -17v-1v-2q0 -6 7 -6q3 0 6 4.5t6 9.5t7 9.5t9 4.5q4 0 4 -4q0 -3 -1 -4l-2.5 -2.5t-3 -2t-3.5 -2.5l-3 -3l-4 -4l-3.5 -3.5l-1.5 -1.5v-5q6 -2 10.5 -5t4.5 -9q0 -5 -2.5 -7t-6.5 -3.5t-8.5 -2t-8.5 -1
t-6.5 -1.5t-2.5 -4q0 -2 0.5 -3t2.5 -2h8t10 -1.5t8 -4t3 -7.5q0 -2 -0.5 -4t-1 -4.5t-2 -4t-3.5 -1.5h-22q-1 0 -1 -2v-2q0 -2 0.5 -4t3.5 -3q2 0 5.5 0.5t7 0.5t6 -1t4.5 -3.5t3 -4l2 -3t1 -3v-3.5v-3v-2l-3.5 -3.5t-4.5 -3.5v0q-2 0 -2.5 2.5t-1 6t-1 6.5t-3.5 4
q-7 3 -15.5 4t-15.5 1q-1 0 -2.5 -0.5t-1.5 -2.5v-2l0.5 -2t0.5 -4.5t0.5 -4.5l0.5 -2v-1q0 -4 -2.5 -4.5t-5.5 -0.5h-2.5h-1.5l-1 3v18l-3 3h-2.5t-6 0.5t-6.5 0.5v0q-4 0 -7.5 -0.5t-6.5 -2.5q-1 0 -1.5 -0.5l-0.5 -0.5v-12q0 -1 -1 -1.5t-2.5 -1.5t-3 -1h-1.5
q-1 0 -2 0.5l-1 0.5v2v2q0 5 1 9.5t3 8.5q1 2 5 3t8 1t7 0.5t3 1.5v7l-1.5 0.5t-2.5 0.5q0 1 -1 0.5t-2 -0.5q-1 1 -4.5 1t-7.5 0.5t-7.5 1t-4.5 0.5q-2 1 -2 1.5v1.5v1.5t2 1.5h7q6 0 11.5 -1t11.5 -1q2 0 2.5 2.5t0.5 3.5v4t-2 4q-5 1 -11.5 1t-11.5 2q-7 2 -11 8t-5.5 13
t-1.5 15t-1 14v8.5t-1 14t-1 14.5v8v5q0 5 -0.5 10.5t-0.5 11.5v9v8q0 5 0.5 10.5t0.5 10.5v8l1 1q1 1 2 1.5l1 0.5l2.5 -2.5t1.5 -2.5q0 -26 1 -51.5t2 -51.5q2 -2 2 -7t0.5 -11t0.5 -12.5t1 -12t3.5 -9.5t7.5 -6q3 -1 5.5 -1h4.5h4h5q0 7 -2.5 9.5t-5 3.5l-5 2t-2.5 6
t3 7.5t6.5 4t8 2t8.5 0.5v2q0 4 -3 5.5t-7 2.5t-8 2.5t-5 4.5v4v4q0 5 1.5 10t1.5 10q-3 0 -4.5 -0.5t-2.5 -0.5q-2 0 -2.5 1t-0.5 3q0 3 1 3.5t3 0.5q8 0 16 -1t16 -1q3 0 3.5 1t0.5 4t-2.5 4t-6 1.5t-8.5 0.5q-4 0 -7.5 1t-6 4t-2.5 9t2 9.5t9 3.5q4 0 7.5 -0.5t7.5 -0.5
h4q1 1 1.5 2t0.5 2zM180 214h1h1q1 0 2 2.5t1 3.5v27q0 2 0.5 2.5t2.5 0.5q1 0 2.5 -1t2.5 -3t1.5 -3.5t0.5 -3.5q0 -4 -0.5 -9.5l-1 -11t-1.5 -11t-1 -9.5q0 -1 -0.5 -3.5t-1 -5.5t-1 -5.5t-0.5 -3.5q-2 -4 -6.5 -5.5t-9.5 -2t-10 0t-7 0.5q-2 -1 -2.5 -2.5t-0.5 -2.5
q0 -4 6 -4.5t13.5 0t14.5 -0.5t8 -4q0 -2 -2 -3.5t-3 -1.5h-4h-5h-9q-5 0 -10 1t-9.5 2.5t-5.5 5.5q0 1 -0.5 4.5t-0.5 7v7v4.5l-0.5 1.5l-0.5 1.5v6.5t0.5 7t2 6t5.5 3.5q5 2 9 2.5t9 0.5q3 0 5 -0.5t5 -0.5zM153 205v-2v-2t0.5 -3.5t3.5 -2.5l20 1q1 0 3 2.5t2 3.5t-1 2.5
t-2 1.5t-2.5 0.5t-3.5 0.5t-3.5 0.5t-2.5 0.5h-1q-3 0 -6.5 -1t-6.5 -2zM152 184q0 -2 1 -3t3 -1.5t4 -0.5h3h3t4.5 0.5t4.5 0.5h2q2 1 2 2v2v2.5t-2 2.5h-4.5h-4.5t-4 0.5t-5.5 0t-4.5 -2t-2 -3.5zM101 156v-1v-1l0.5 -2.5l0.5 -2.5q0 -3 -1.5 -6t-1.5 -6q0 -5 3.5 -6
t7.5 -1h2t2 1q4 5 6.5 11t6.5 11v1q0 1 -1.5 2t-2.5 1l-2 0.5t-4.5 0.5t-5.5 0.5t-4 0.5h-1h-1l-3 -1q-1 0 -1 -2zM115 83q0 -3 2.5 -4.5t5 -1.5h5h3.5h5q4 0 5.5 0.5t1.5 1.5v2q0 4 -1.5 6t-4 3t-6.5 1h-6t-6.5 -2.5t-3.5 -5.5zM114 62q0 -2 2 -3.5l2 -1.5h28v2
q0 2 -0.5 3.5t-0.5 3v1.5l-2 2l-1 1h-25l-0.5 -1t-1.5 -2q0 -1 -0.5 -3zM153 56h16q1 0 1 2v3q0 3 -1.5 4.5t-4 2t-6 0.5h-5.5v-12zM115 50q-1 0 -1 -3t2.5 -4.5t5.5 -2t6 -0.5h4h4h4q2 0 3.5 1t1.5 3t-0.5 3l-1.5 3q-1 0 -3 0.5t-4.5 0.5h-4h-2.5h-3h-4t-4 -0.5t-3 -0.5z
" />
</svg>
