<?xml version="1.0" standalone="no"?>
<!DOCTYPE svg PUBLIC "-//W3C//DTD SVG 1.1//EN" "http://www.w3.org/Graphics/SVG/1.1/DTD/svg11.dtd" >
<svg xmlns="http://www.w3.org/2000/svg" xmlns:xlink="http://www.w3.org/1999/xlink" version="1.1" viewBox="-10 0 266 256">
   <path fill="currentColor"
d="M100 202v1v7.5t0.5 9t0.5 8v3.5q1 5 2 11t6 9q1 -1 2 -3.5l1 -2.5v-0.5v-1.5q0 -5 -2 -9t-3 -9v-7v-11v-11v-7q-3 0 -4 1.5t-2 3.5t-1 4.5v3.5zM65 245v3t3 1l1 -0.5t2 -0.5l4 -5q-1 -13 0.5 -29.5t5.5 -33t11 -31t19 -22.5q2 -2 5.5 -3t7 -1.5t7.5 -0.5h6q4 0 8.5 0.5
t7.5 2.5q7 4 12 13t9.5 20t7.5 23.5t5 24.5t3 22t0 15q1 2 1.5 2h1.5q4 0 5 -2.5t1 -5.5q0 -13 -2 -30t-6.5 -34t-12.5 -31.5t-19 -22.5q-2 -1 -5.5 -2t-7 -2.5t-6 -4t-2.5 -6.5v-28h4h2h2t3 1q1 1 3.5 2.5t5.5 3.5t5.5 4t3.5 2q5 4 11.5 6.5t11.5 5.5q3 3 5 4.5t5 1.5
t4.5 -1.5t1.5 -4.5q0 -2 -5 -5.5t-12.5 -7.5t-16 -8t-16 -7t-12 -6t-4.5 -4v-1l1 -1q1 0 3.5 -1.5t5.5 -2.5t5.5 -2t3.5 -2q4 -1 9.5 -3t10.5 -5t8 -7t3 -9v-3t-3 -1l-2 0.5l-2 0.5q-8 10 -18.5 17t-21.5 10h-1h-1l-0.5 -0.5l-0.5 -0.5q0 -7 0.5 -13t0.5 -13v-4v-4t-1.5 -4
t-3.5 -2l-2 -0.5t-3 -0.5q-4 0 -6 2t-4 2q-3 0 -5.5 -1.5t-5.5 -1.5q-6 0 -13 2t-13 4l-0.5 1t-0.5 2v0v1q2 3 3 3.5t3 0.5h2l1.5 -0.5l3 -1t2.5 -0.5h2q1 -1 4.5 -1.5t7.5 -1t7.5 -0.5h4.5q3 0 4 2.5t1.5 6t0.5 6.5v5q0 6 -0.5 8.5t-5.5 2.5q-7 0 -13.5 -3t-12.5 -7
l-10.5 -7t-6.5 -3q-3 0 -3.5 1.5t-0.5 4.5q0 4 3.5 7t10 5.5t13.5 4.5t13 4t10 3.5t4 2.5t-6 3.5t-14.5 6.5t-19 9t-19 10t-14.5 9t-6 6t2 2.5t3 0.5q3 0 9 -2.5t12.5 -6t12 -7t9.5 -5.5q3 -2 6 -4.5t6 -4.5t6.5 -3.5t7.5 -1.5q3 0 4 1t1 4v8t-0.5 10.5t-2.5 9.5t-7 5h-4.5
h-2.5t-2.5 0.5t-4.5 2.5q-7 4 -13 11t-10.5 15t-7.5 16.5t-4 17.5q0 1 -0.5 4.5l-0.5 3.5q0 1 -0.5 2.5t-1.5 3t-1 2.5v1q-1 2 -0.5 4.5t0.5 5.5q0 2 -0.5 5t-1.5 5v5.5t-0.5 9t-0.5 8.5v5v2zM124 202v9t1.5 14.5t4 13.5t7.5 6q4 0 4 -4q0 -3 -1.5 -5t-3.5 -5q-2 -4 -3 -10
t-1 -10v-9t1 -12.5t2.5 -11.5t4.5 -7v-5v-6v-8.5t-1.5 -11.5t-4.5 -10t-9 -4q0 4 1 7.5l2 7t2 7.5t1 8q0 8 -1.5 17t-5.5 16v3v3v4v3zM149 192v12.5t1.5 14.5t5 12.5t11.5 5.5q0 -4 -2 -8t-4.5 -7.5t-4 -7t-1.5 -7.5v-22l-2 -1q-2 1 -3 3.5t-1 4.5zM103 174v1l0.5 0.5
l0.5 0.5h0.5h0.5q3 0 5 -2.5t3.5 -6.5t2 -7.5t0.5 -5.5q0 -3 -1 -5.5t-3.5 -4.5t-5.5 -3t-5 -1q0 2 0.5 4t1.5 4l2 4t1 5q0 4 -1.5 8.5t-1.5 8.5zM143 172q0 2 1 2.5t3 0.5q4 0 6.5 -2.5t4.5 -6.5t2.5 -8t0.5 -7q0 -2 -1.5 -5.5t-5.5 -3.5v9.5t-1.5 7t-4 6.5t-5.5 6v1v0z
" />
</svg>
