<?xml version="1.0" standalone="no"?>
<!DOCTYPE svg PUBLIC "-//W3C//DTD SVG 1.1//EN" "http://www.w3.org/Graphics/SVG/1.1/DTD/svg11.dtd" >
<svg xmlns="http://www.w3.org/2000/svg" xmlns:xlink="http://www.w3.org/1999/xlink" version="1.1" viewBox="-10 0 266 256">
   <path fill="currentColor"
d="M52 216v5v5.5v5.5v2q0 2 0.5 4.5t1.5 4.5t3 3.5t4 1.5t4 -0.5t2 -2.5v-0.5v-0.5q0 -1 -1 -2t-2 -2.5t-1.5 -2.5l-0.5 -1q-2 -4 -2 -9v-10q0 -9 2.5 -17.5t2.5 -18.5v0q0 -1 -1.5 -2l-1.5 -1q-1 0 -2 0.5t-1.5 1l-1 1l-0.5 0.5q-2 5 -3 9t-1.5 8.5t-0.5 8.5v9zM76 200
q0 3 1 11t3 16t5 14.5t7 6.5q2 0 2.5 -1t0.5 -3v-1v-1q0 -1 -1.5 -3.5l-1.5 -2.5q-3 -10 -5.5 -20.5t-2.5 -21.5q0 -8 2.5 -16t5 -16.5l5 -17t2.5 -16.5q0 -5 -2.5 -9t-7.5 -4q0 5 0.5 10t0.5 10v1l-0.5 2l-0.5 2q-4 15 -8.5 30t-4.5 30zM101 193v8q0 3 0.5 6.5l1 7t0.5 8.5
q1 2 2 6t3 8.5t4 7.5t4 3q3 0 3 -1.5v-3.5q0 -3 -1 -5.5l-2 -5t-2.5 -5t-2.5 -4.5q-3 -10 -3.5 -22.5t-1.5 -22.5h-0.5h-0.5h-2t-1 1v3t-0.5 4t-0.5 4v3zM138 137h-1.5t-1.5 2v46q0 1 0.5 2t1.5 2.5t1.5 3t1.5 2.5q2 3 5.5 4.5t7.5 2t8 0t7 -0.5h9t9.5 -0.5t8.5 -2.5t7 -6
q1 -5 1.5 -10t0.5 -10v-11v-9v-26q-1 -3 -3 -4t-5 -1t-3 3q0 4 0.5 7t0.5 7v2t-0.5 2.5l-1 3t-1.5 1.5h-18l-1 -2v-2v-4v-5v-3v-5v-7v-6.5v-3.5v-9.5t0.5 -10.5t0.5 -9v-4l2 -1l29 -3l1 -1.5t2 -2.5v0v0v-1v0l-2 -2l-1 -1q-1 -1 -3 -1h-3q-6 0 -11.5 2t-10.5 2q-2 0 -3 -1.5
t-1 -3.5v-4v-3q0 -10 1.5 -20t1.5 -20h-5t-5 1q-1 9 -2 18.5t-1 17.5q0 3 0.5 5t1.5 5v58q-2 7 -2 13.5t-1 13.5q-2 1 -5 1h-5h-6q-2 0 -2.5 -2t-0.5 -4t-0.5 -3.5t-3.5 -1.5zM141 163q0 -4 6 -6t13.5 -2.5t15 -0.5h10.5h3.5h3.5q3 2 3 6v8t-1 10t-3.5 9t-6.5 5
q-5 0 -8.5 0.5t-6.5 0.5t-6.5 0.5t-7.5 0.5q-5 0 -7.5 -2t-3.5 -4.5t-1 -6t-1 -8.5v-1t-0.5 -2t-0.5 -2v-1q0 -1 -0.5 -2t-0.5 -2zM67 148q0 1 -0.5 3t-1 4.5t-1.5 4.5l-1 2v3.5v3.5q4 0 6.5 -2t3.5 -5t1.5 -6.5t0.5 -6.5v-5q0 -3 -1 -4q-1 -3 -2.5 -7t-1.5 -8q0 -2 3.5 -6
t8.5 -8.5t10 -7.5t8 -3q1 0 3.5 1t5 3t4.5 4l3 3q1 0 2.5 1.5t3 3.5t3.5 3.5l2 1.5q0 1 1 1h1q2 0 2.5 -1.5t0.5 -2.5q0 -3 -4 -7t-9.5 -7.5l-11 -7t-7.5 -6.5v-7v-3v-4t0.5 -3.5t2.5 -1.5q5 0 8.5 3l7 6l7 6t7.5 3q2 0 3.5 -1t1.5 -3q0 -4 -5 -7t-12 -5.5t-12.5 -4.5
t-6.5 -3t-1.5 -4t-0.5 -4q0 -3 2 -5t5 -3t6 -2.5t6 -4.5t5 -8t2 -13q0 -2 -1 -4.5t-4 -2.5q-5 0 -5 4v9.5t-1.5 10t-9.5 4.5q-1 0 -2 -0.5t-1 -1.5q-3 -13 -2 -26q-2 -3 -4 -4t-6 -1h-4h-5.5t-8 0.5t-8.5 1t-5 0.5q-2 1 -2 4q0 2 1.5 2.5l3 1t3 0t2.5 -0.5h7h3t4 -0.5l4 -1
l2 -0.5q3 0 4 3l2 6t1 6.5v5.5q0 4 -2.5 5t-5.5 1q-5 0 -8 -1t-5 -3.5t-3 -6t-2 -7.5h-3v-2q-2 1 -3.5 3.5t-1.5 4.5q1 7 3.5 11t6 6t9 2.5t11.5 0.5q2 1 3 3t1 3q0 2 -2 4.5t-5 4.5t-6 3.5l-5 2.5l-2 1l-4 2t-4 1.5t-3 1.5l-2 1.5t-3.5 3.5t-3 3.5t-2.5 1.5v2q0 4 3 4
q6 0 10 -3.5l8 -7t8.5 -6.5t9.5 -3v2.5t0.5 4t0.5 4v2.5q-1 7 -7.5 12.5t-13.5 11t-13 10.5t-6 11v4l5 -2.5t4 -1.5h1q1 1 2.5 3.5t1.5 5t0.5 4.5t0.5 3zM100 165q1 0 2 0.5t1 1.5h1q4 0 6.5 -3t4 -7t2.5 -8t1 -7q0 -2 -0.5 -5.5t-1.5 -7t-3 -6t-5 -2.5q-1 0 -1.5 1.5
t-0.5 2.5v1q0 1 1 3t2 4.5t1.5 4.5l0.5 2q0 2 -0.5 6t-2.5 7.5l-4 7t-4 4.5z" />
</svg>
