<?xml version="1.0" standalone="no"?>
<!DOCTYPE svg PUBLIC "-//W3C//DTD SVG 1.1//EN" "http://www.w3.org/Graphics/SVG/1.1/DTD/svg11.dtd" >
<svg xmlns="http://www.w3.org/2000/svg" xmlns:xlink="http://www.w3.org/1999/xlink" version="1.1" viewBox="-10 0 266 256">
   <path fill="currentColor"
d="M162 202q0 5 3 13.5t7.5 16t10.5 13t12 5.5h4l1 -1.5l1 -1.5q0 -3 -5 -7t-11 -10t-10.5 -13.5t-4.5 -16.5q0 -8 4.5 -13.5t10 -10t10 -9.5t4.5 -13q0 -4 -2.5 -7.5t-5.5 -6.5t-5.5 -6t-2.5 -5q0 -1 0.5 -1.5t1.5 -0.5q2 -2 7 -3t7 -2q5 -1 7 -5.5t2.5 -9.5t0.5 -10v-9
v-16q-1 -2 -2 -2.5t-3 -0.5h-2t-1 1v3.5v5.5v5.5v2.5q-1 6 -1 11t-1 9t-4.5 6.5t-9.5 4.5q-3 -2 -4 -6t-1 -7q0 -1 -0.5 -5.5t-1 -10t-1 -11.5t-1.5 -9v-1v-5t1 -6t2.5 -5.5t5.5 -2.5h29l0.5 -1l0.5 -1v-1v-1q0 -1 -1.5 -2l-1.5 -1h-30q-2 0 -2 -1t-0.5 -2t0 -1.5l0.5 -0.5
q0 -5 1 -9t1 -8q0 -1 -0.5 -2.5t-1.5 -3t-2.5 -2t-2.5 -0.5q-2 0 -3.5 3.5t-1.5 5.5t1 5t1 6q0 1 -0.5 2.5l-1 3t-1.5 3t-2 1.5l-26 3l-1 1.5t0 1.5q0 1 2 2l2 1h24q1 0 1.5 2t0.5 3v18l0.5 3t0.5 6.5t0.5 6.5t0.5 4v4v6t-0.5 6t-0.5 4q-2 0 -4.5 0.5t-5.5 0.5t-5 -1.5
t-2 -5.5v-34h-6v39q0 6 3 8t7.5 2h9t6.5 2q0 1 0.5 2t0.5 2.5t0.5 2.5l0.5 1q1 1 2 3l2 4t2 3.5t1 2.5q1 2 3 4.5t2 4.5q0 6 -4 10.5t-9 9.5t-9 11.5t-4 15.5zM85 123v55q0 4 -2.5 6t-4.5 5q0 1 -2.5 5t-5.5 10.5l-6 13t-6 12.5t-4.5 10l-1.5 4h1h4t4 -0.5t3 -1.5
q4 -6 7 -13t5 -14t4.5 -14.5t6.5 -13.5v0q3 0 5 3.5t3.5 8t2.5 9t1 6.5q1 1 2 4.5l2 7t2.5 7t1.5 4.5q1 3 2 4t4 1t4.5 -2t1.5 -4q0 -1 -2 -4t-4 -7.5t-4.5 -10t-5 -10.5t-4 -8.5l-1.5 -3.5q-1 -2 -2 -5.5t-2 -6l-2 -5l-1 -2.5v-48l-0.5 -0.5l-0.5 -0.5q-1 0 -3 -0.5z
M48 199q0 1 0.5 2.5t2.5 1.5q5 0 8.5 -6.5t6 -15t3.5 -16.5t1 -12v-3t-0.5 -4t-1.5 -3.5t-3 -1.5h-1q-1 0 -1.5 0.5t-0.5 1.5q-1 3 -1.5 5.5t0 5.5t0.5 6v6q-1 6 -2.5 11t-4.5 10l-1 2t-2 3.5l-2 3t-1 2.5v0v1zM102 137q0 13 1 25t6 25q1 1 1.5 3.5t2 4.5t3 3.5t3.5 1.5
q5 0 5 -4v-1q-5 -8 -7.5 -14t-4 -12.5t-2.5 -13t-1 -15.5q0 -2 -3 -2.5t-4 -0.5zM45 137v1l0.5 1l0.5 1h1q5 0 10.5 -5t10.5 -10.5t10 -10.5t8 -5q5 0 9.5 4t8.5 9t7.5 9t7.5 4q2 0 3.5 -0.5t1.5 -2.5v0q-2 -2 -6 -5.5t-8 -7.5l-7.5 -7.5l-4.5 -4.5t-2 -3t-2 -2
q0 -1 -0.5 -1.5l-0.5 -0.5v-19l1.5 -0.5t3.5 -1l4 -1t4 -0.5h1h3h2h2q5 -2 8 -5.5t4.5 -8t2 -9.5t0.5 -10q0 -11 -6 -17.5t-18 -6.5h-16.5t-18.5 2t-15 7t-6 15q0 16 8 25t25 10l1 1v19l-1.5 2.5t-3.5 4.5q-3 3 -7 6.5t-8.5 7t-9 6.5t-7.5 6q0 1 -0.5 2l-0.5 1v1zM69 86
q-2 0 -3 1t-1.5 2.5t-1 3.5t-1.5 3q-1 2 -4 3.5t-5.5 3.5t-4.5 4.5t-2 5.5q4 0 7.5 -1t6 -3t5.5 -4.5t7 -5.5l1.5 -3t0.5 -2q0 -3 -1.5 -5.5t-3.5 -2.5zM102 95q0 1 0.5 2.5t1.5 2.5l15 11h2h4.5t1.5 -3q0 -2 -1.5 -4t-3.5 -3t-4.5 -2t-3.5 -2q-1 0 -2 -2t-2.5 -3.5t-2.5 -3
l-1 -1.5q-3 0 -3.5 3t-0.5 5zM73 70l0.5 -0.5l0.5 -0.5q0 -1 0.5 -3.5l0.5 -2.5v-31q-1 -2 1 -2.5t4 -0.5h2q2 0 3 2q1 6 1.5 10.5t0.5 10.5t-0.5 10t-1.5 10q-1 2 -2 2h-3q-2 0 -4.5 -0.5t-2.5 -3.5zM91 70v-3q0 -2 0.5 -7t1 -11t1 -11t0.5 -7q1 -1 2 -1.5t2.5 -0.5h2.5h1
q0 10 1 19.5t1 19.5q0 4 -1 5t-4 1t-5.5 -0.5t-2.5 -3.5zM109 46v-3q0 -1 0.5 -5t1.5 -6l1 -0.5t2 -0.5q2 0 3.5 3t2 6.5t1 7.5t0.5 5v2q0 1 -0.5 2.5t-0.5 3.5v2q-1 2 -2.5 3t-4.5 1h-1h-1q0 -1 -0.5 -3.5t-0.5 -5.5t-0.5 -6t-0.5 -4v-2zM59 59v-4v-4v-3.5v-5t1 -5t3 -2.5
t3.5 3t2.5 6t1 6v4q0 4 -1 6.5t-4 2.5q-2 0 -3.5 -0.5t-2.5 -3.5z" />
</svg>
