<?xml version="1.0" standalone="no"?>
<!DOCTYPE svg PUBLIC "-//W3C//DTD SVG 1.1//EN" "http://www.w3.org/Graphics/SVG/1.1/DTD/svg11.dtd" >
<svg xmlns="http://www.w3.org/2000/svg" xmlns:xlink="http://www.w3.org/1999/xlink" version="1.1" viewBox="-10 0 266 256">
   <path fill="currentColor"
d="M151 246q0 2 1 3.5t3 1.5t3.5 -1.5t1.5 -3.5q0 -5 -1.5 -9.5t-1.5 -9.5q0 -13 1 -23.5t8 -20.5q4 -8 11.5 -13t14.5 -10t12.5 -11.5t5.5 -16.5q0 -3 -1.5 -7.5t-3.5 -8t-5.5 -6t-7.5 -2.5t-9.5 2t-12 6t-13 8.5t-12 9t-9 9t-3.5 7.5q4 0 7.5 -2t6 -4.5t5.5 -4.5t7 -2
l1 0.5l1 0.5q1 1 3.5 4t4.5 6t3.5 6.5t1.5 6.5q0 2 -1.5 3.5t-3 2.5t-3.5 2t-3 3l-1 1.5t-2.5 4t-2.5 4t-2 2.5l-0.5 1.5l-0.5 1.5q-4 9 -4 18.5v18.5v5t0.5 6.5t0.5 6.5v4zM51 230v0q0 1 0.5 1.5t1.5 0.5v0h1q3 0 7 -3.5t7 -9t6.5 -12t6 -12t5 -9.5t3.5 -4t3 4t5 9t6 11.5
t6 12t6 9.5t5 4q2 1 3 -2t1 -5q0 -3 -2 -6.5t-5 -6.5t-5.5 -6.5t-4.5 -5.5q-3 -7 -5.5 -12.5t-4 -11.5t-2 -12t-0.5 -14v-2.5t0.5 -3.5t0.5 -4v-2v-16v-15v-2t-0.5 -2.5t-0.5 -2.5v-1v-2q-3 1 -4.5 3t-1.5 5q0 17 -0.5 31t-3.5 26.5t-9 25t-15 26.5q-3 3 -6.5 7.5t-3.5 8.5z
M56 183q0 2 1.5 2.5t2.5 0.5q5 0 8 -7.5t5 -17.5t2.5 -20t0.5 -14v-2v-3.5v-3.5v-2l-2 -2v0q-2 0 -3 3t-2 8t-2 10.5t-1.5 11t-1 10t-0.5 5.5q-1 1 -1.5 3.5t-1.5 5t-2 4.5t-2 3q0 1 -0.5 2.5t-0.5 2.5v0zM107 121q0 2 0.5 7t1.5 12t2 14.5t2.5 14t3.5 11t3 4.5q2 0 3 -1.5
t1 -2.5q0 -3 -1 -5t-2 -5q0 -1 -0.5 -4t-1 -6.5l-1 -7t-0.5 -4.5q0 -2 -1 -7.5t-2 -11.5t-2 -10.5t-2 -4.5q-3 0 -3.5 2.5t-0.5 4.5zM169 129v-4q4 -3 9 -6t11 -3q3 0 4.5 2t3 5.5t2 6t0.5 4.5q0 3 -2 5.5t-4.5 5t-5 4.5t-4.5 4v0h-1q-1 0 -3.5 -3.5t-4.5 -7.5t-3.5 -8
t-1.5 -5zM46 115q0 4 4 4h1q4 -2 10 -7t12.5 -10t12 -9t8.5 -4h1l3 4l2 1.5l4 3l4 3l2 1.5l3 3t4.5 4t4 4t2.5 3h1h1q2 0 4 -1t2 -3t-4 -5t-8.5 -6.5t-9.5 -7t-6 -5.5q-1 -1 -2.5 -4t-3 -6.5t-3 -6l-1.5 -2.5h-1l-4 2v9l-1.5 2t-3.5 4t-4 3.5t-4 3.5q-1 0 -4.5 2.5t-8 5
t-8 4.5t-4.5 3q-3 2 -4 3t-1 4zM141 107q0 3 3 3q1 0 5 -2t8.5 -4.5t10 -5.5t10.5 -6.5t9 -6t5 -3.5l3 -3l4 -4l3.5 -3.5l2.5 -2.5q2 -2 2.5 -5.5t0.5 -6.5t-1.5 -7.5t-3.5 -8.5t-5 -7t-6 -3h-17q-1 0 -3 1t-4 2.5t-3.5 3t-3.5 2.5q-4 2 -8 3.5t-7 4t-5.5 6t-2.5 9.5
q3 0 5 -1.5t3.5 -3t3 -2.5t4.5 -1q1 0 3.5 3.5t5 7.5t4.5 8t2 5q0 8 -4 11.5t-9.5 5.5t-10 4t-4.5 7zM54 88q-1 3 0.5 4t3.5 1q3 0 6.5 -2t6.5 -5t5 -6t2 -6t-4 -3l-3.5 2t-7 5.5l-6 6zM109 79q0 1 2 3.5t5 5t5.5 4t4.5 1.5q3 0 3 -4q0 -3 -2 -5t-5 -4t-6 -3.5t-5 -1.5
q-1 0 -1.5 1t-0.5 3zM166 51v-5l1.5 -0.5t1.5 -1.5q1 0 3 -0.5t4 -1.5t3.5 -1.5t2.5 -0.5v0q3 0 6 2t5 5t3 6.5t1 5.5q0 3 -2 6t-4.5 6t-5 5.5t-4.5 2.5t-4.5 -3.5t-5 -8.5t-4 -9.5t-1.5 -6.5zM60 36q0 12 3.5 17t9 7t13 2t16.5 1h2q14 0 20.5 -7t6.5 -20q0 -1 -0.5 -4
t-0.5 -5q0 -4 -3.5 -6.5t-8 -4t-9.5 -2.5t-7 -1h-1q-2 0 -6 0.5t-8.5 0.5t-8.5 0.5t-5 0.5q-7 3 -10 8.5t-3 12.5zM84 24l1 -1l2 -2h0.5h0.5v0h1q1 1 2 4.5t1 7v7v4.5v8l-2 3h-10q0 -7 1.5 -15.5t2.5 -15.5zM98 51q0 -1 0.5 -3.5t0.5 -3.5t0.5 -3.5t0.5 -5.5t-0.5 -5.5
t-0.5 -3.5q1 -1 2.5 -2t2.5 -1t2 3.5t1.5 8.5t1 9.5t0.5 6.5q0 3 -1.5 3.5t-4.5 0.5h-4l-0.5 -2zM115 28q2 0 3.5 1.5t2.5 3.5t1.5 4.5t0.5 4.5t-1 4.5t-4 2.5h-1.5t-1.5 -1v-20zM70 37v-2v-3l0.5 -0.5l0.5 -0.5h1q2 0 2.5 2t0.5 3q0 2 -0.5 5.5t-3.5 4.5q-1 -2 -1 -4v-5z
" />
</svg>
