<?xml version="1.0" standalone="no"?>
<!DOCTYPE svg PUBLIC "-//W3C//DTD SVG 1.1//EN" "http://www.w3.org/Graphics/SVG/1.1/DTD/svg11.dtd" >
<svg xmlns="http://www.w3.org/2000/svg" xmlns:xlink="http://www.w3.org/1999/xlink" version="1.1" viewBox="-10 0 266 256">
   <path fill="currentColor"
d="M83 193q3 0 5 4.5t4.5 10.5t5.5 13.5t5.5 14t5.5 10.5t6 4q4 0 5.5 -2t1.5 -5t-0.5 -4l-1.5 -3t-4 -6.5t-6.5 -9t-6.5 -9t-4 -6.5q0 -1 -1 -6t-2.5 -10t-2.5 -9t-2 -4q-2 -11 -2 -24v-24l-0.5 -0.5t-0.5 -1.5h-1h-1l-2 2l-2 2q-1 5 -1 11v12v12t-2 11q-2 8 -8.5 17.5
t-14 19t-13 18t-5.5 14.5q0 3 4 3q2 0 2.5 -0.5l2.5 -2.5t5 -6.5t6.5 -9t6 -8t2.5 -4.5q3 -3 4 -6.5t3 -6.5t3.5 -5.5t4.5 -5.5h1zM150 162v7v7.5v6.5v3q0 3 0.5 7.5t1.5 9t3.5 8.5t6.5 5h2h4h4h3q6 0 12.5 -0.5t12.5 -2.5t9.5 -6.5t3.5 -12.5q0 -15 -2.5 -30t-2.5 -31
q-1 -2 -2 -2h-2q-5 0 -6 2.5t-1 6.5q0 3 1 6t1 6q0 2 -2 4.5t-4 2.5l-29 3q-1 0 -2 -0.5t-2 -1.5t-2 -1.5t-1 -1.5v-18q0 -2 -1 -2h-2h-3l-1 2v4v7.5v7.5v4zM104 160q0 2 1.5 9.5t3.5 15.5t5 14t8 6q2 0 3 -2.5t1 -4.5t-1 -5t-3 -5.5t-3.5 -5t-2.5 -4.5q-1 -3 -1.5 -7
t-1.5 -8.5t-1.5 -8.5t-0.5 -7l-0.5 -1t-1.5 -1v0v0q-3 0 -3.5 2t-1 4.5t-0.5 5v3.5zM158 182q0 -3 0.5 -6.5t5.5 -4.5h4.5t7.5 -0.5t7.5 -0.5t5.5 -1l2.5 -0.5l2.5 -0.5q3 0 4.5 1.5t2.5 4.5t1 6v5q0 6 -1.5 10.5t-4 6.5t-7 2.5t-10.5 0.5q-11 0 -16 -6t-5 -17zM61 149
q-1 0 -2.5 3.5t-3.5 9t-4 12.5t-3 13t-2 11t-1 6q5 0 9 -6t6.5 -14t4 -16t1.5 -13v-5l-4 -1h-1zM40 138q0 1 0.5 2.5t1.5 1.5q7 0 12.5 -4.5t11 -9.5t11 -9.5t11.5 -4.5q4 0 8 4t8 8.5t8.5 8.5t9.5 4q2 0 3.5 -0.5t2.5 -3.5q0 -1 -1.5 -2l-1.5 -1q-1 -1 -3 -2.5t-5 -3t-5 -3
t-2.5 -2l-2.5 -2.5l-4.5 -4.5l-5 -5l-3.5 -3.5q0 -1 -0.5 -2t-0.5 -2v-24q1 0 4.5 -0.5t5.5 -0.5l1 -1t2 -1.5l2 -1l1 -0.5q7 -3 11 -5.5t5.5 -6t2 -8.5t0.5 -12q0 -10 -1.5 -15t-8.5 -9q-2 -1 -6 -1.5t-9 -1t-9.5 -1t-5.5 -0.5h-9q-6 0 -12 1t-11 3.5t-8 7.5t-3 12v2
q0 1 0.5 4.5t0.5 7.5t0.5 7.5t0.5 4.5q1 6 5.5 9t10 4t11.5 1.5t10 0.5v3.5v2.5v6q0 4 -0.5 7.5t-1.5 7t-3 4.5q-1 1 -5 4t-8.5 6t-8 5.5t-5.5 3.5q-1 1 -3 2l-4 2t-3.5 2.5t-1.5 3.5zM63 82q-3 0 -3.5 1.5t-1 4t-0.5 5.5t-1 4q-2 3 -5 5.5l-6 5t-4.5 5.5t-1.5 7l4.5 -2.5
t9.5 -6t9 -6.5t4 -5v-15l-1 -1.5t-2 -1.5h-1zM142 114q0 2 0.5 3t3.5 1q7 0 15.5 -0.5t17.5 -1.5t17.5 -1.5t16.5 -1.5l2.5 -2.5t0.5 -2.5q0 -4 -2 -4h-4q-5 0 -9 1t-9 1q-2 0 -4 -0.5t-2 -3.5v-27l1 -0.5t3 -0.5t4 -0.5t4 -0.5h3h5h5h3q5 0 6 -1.5t1 -4.5q0 -2 -1 -4t-4 -2
l-2.5 0.5t-4.5 0.5t-4 0.5t-3 0.5h-3h-5t-5.5 -0.5t-3.5 -0.5q0 -6 -0.5 -12t-0.5 -13q0 -4 1 -7.5t1 -7.5q0 -3 -1.5 -5t-5.5 -2q-2 0 -4.5 1t-2.5 4v47h-39v8q9 0 18.5 -1t18.5 -1v0q1 0 2 1t2 1v3v3v3v3q0 2 -0.5 5t-0.5 5.5t-0.5 4.5l-0.5 2l-3 3q-6 1 -13.5 2t-13.5 2
v3zM102 83q0 4 1.5 9.5t4.5 10t7 7.5t10 3q2 0 2.5 -1.5t0.5 -3.5t-1 -3.5t-3 -3t-4 -2.5t-3.5 -2t-2 -3t-1 -4.5t-1.5 -4t-3 -1.5q0 -1 -3 -1h-4zM67 66q0 -3 2 -6.5t3 -6.5q1 -1 1.5 -4l0.5 -3q0 -1 -0.5 -3t-0.5 -4t-0.5 -4t-0.5 -3v-4q0 -3 1 -5.5t5 -2.5q2 0 3.5 0.5
t2.5 2.5q-1 10 0.5 17t1.5 16v9q0 1 -2 2.5t-3 2.5q-1 0 -2.5 -0.5t-4 -1t-4.5 -1t-3 -1.5v0v0zM97 22h1l1 1v10.5v11.5t1 11.5t4 9.5q-1 2 -3 2h-4q-3 0 -3.5 -0.5t-0.5 -4.5v-36q0 -2 1 -3.5t3 -1.5zM106 36v-2v-4t1 -3.5t2 -1.5q3 0 4 1t1.5 2.5l1 3t2.5 2.5v3.5v3.5v5.5
t-1 7t-2.5 6.5t-4.5 3h-1q-1 -6 -2 -13t-1 -14zM54 39v-4v-3l2 -2.5t3 -2.5h1v0l4 7v20l-4 7q-2 -2 -3.5 -4.5t-2 -5.5t-0.5 -6v-6z" />
</svg>
