<?xml version="1.0" standalone="no"?>
<!DOCTYPE svg PUBLIC "-//W3C//DTD SVG 1.1//EN" "http://www.w3.org/Graphics/SVG/1.1/DTD/svg11.dtd" >
<svg xmlns="http://www.w3.org/2000/svg" xmlns:xlink="http://www.w3.org/1999/xlink" version="1.1" viewBox="-10 0 266 256">
   <path fill="currentColor"
d="M94 248l1 1l2 2q2 0 7.5 -4.5t12 -10t13 -10t10.5 -4.5t8.5 4t9.5 9.5t10.5 9.5t9.5 4q2 0 4 -0.5t2 -2.5q0 -1 -3 -3.5t-7.5 -5.5t-10 -6.5t-10 -7.5t-7.5 -7t-3 -6v-18q0 -1 -1.5 -1.5l-1.5 -0.5q-2 0 -3 0.5t-1 2.5v17q0 3 -5 8t-12.5 10t-14.5 10.5t-10 9.5zM63 192
q0 7 -1 14l-2 14l-2 14t-1 14q7 0 9 -6q1 -3 1 -9t0.5 -13t1 -13.5t0.5 -8.5v-6.5t2 -5.5v-35l1 -6v-32q0 -1 3 -2.5l6 -3t6 -2.5t4 -1v0h1q0 1 1 2.5t2 3.5l2 4l1 2q1 1 1.5 2.5t0.5 2.5q0 3 -3 5.5t-6.5 5.5t-6.5 6.5t-3 8.5q3 0 6.5 -2.5t6.5 -6.5t5.5 -7.5t4.5 -5.5
q5 -3 10 -4t10 -2.5t8 -4.5t3 -10t-3.5 -12t-10.5 -5q-6 0 -12.5 2.5t-12 5.5t-11 5.5t-11.5 2.5v0l-1.5 -1.5l-0.5 -0.5q-3 -13 -3 -27.5v-27.5q0 -9 3.5 -15t13.5 -7q4 0 10.5 -0.5t13.5 -1t13 -1t7 -0.5h4h7h9h6h5h8h8h5q4 1 6.5 1.5t6.5 0.5q2 0 4 -1t2 -4q0 -1 -1 -2
t-3 -1h-8h-11.5h-11.5h-8h-22t-19.5 0.5t-19.5 1.5t-21 3q-5 1 -7.5 3.5t-4 6t-2 7.5t-0.5 7q0 16 1.5 31t1.5 31v1.5v1.5q0 1 -0.5 4.5t-0.5 7.5t-0.5 7.5t-0.5 4.5l1 2.5t1 3.5v1v1v4.5t-2 4.5l-1 37q0 1 0.5 2.5t0.5 2.5v0zM86 231l1.5 1.5t1.5 0.5q4 0 9 -3.5t10 -8
t8.5 -9.5t3.5 -9q0 -2 -0.5 -4.5t-3.5 -2.5h-0.5h-0.5q-1 1 -1.5 2.5l-1 3t-0.5 3v2.5q-1 4 -4.5 7l-7 6t-7.5 5.5t-7 5.5zM158 201v3q0 1 0.5 4.5t0.5 4.5q1 2 5.5 5t10 5.5t10.5 5t8 2.5q0 -5 -3 -8t-7.5 -5.5t-9 -4.5t-8 -4.5t-3.5 -5.5t-3 -7q-1 2 -1 3v2zM138 172
q0 4 -3 6t-7 3t-8 1.5t-6 1.5q-1 0 -3.5 2.5l-2.5 2.5q-1 0 -3.5 1t-3.5 2q-2 1 -5.5 2t-7 2.5t-6.5 3.5t-3 6q5 0 12 -2.5t14 -6t13.5 -7t11.5 -4.5q1 0 2 -0.5l2 -1t2.5 -1l1.5 -0.5v0h1q5 0 11.5 3t13.5 6.5t13.5 7.5t10.5 5h2q3 0 4 -0.5t1 -3.5t-0.5 -3.5t-3.5 -1.5
q-1 0 -3.5 -1t-6 -2t-6 -1.5t-3.5 -1.5q-4 -1 -8.5 -2.5t-9 -3.5t-7.5 -4.5t-3 -6.5v-2.5t3 -1.5q1 0 4.5 -0.5t7.5 -1.5t7.5 -1.5t5.5 -0.5q4 -1 7.5 -4t3.5 -8q0 -6 -3 -10t-7.5 -6.5t-10 -3t-10.5 -0.5h-2l-2.5 0.5t-3.5 0.5q-6 1 -13.5 1t-14.5 1.5t-11.5 5.5t-4.5 12
q0 5 2.5 8.5t6.5 5t9 2.5t8 1h1q1 0 3.5 -1l2.5 -1h1h1q3 0 3 3zM86 185v0.5v0.5l0.5 0.5t1.5 0.5v0h1q1 0 4 -1l6 -2t6 -1.5t4 -1.5q2 -1 2.5 -2t0.5 -2v-2t-1 -1q-2 0 -6 1.5l-8 3t-7.5 3t-3.5 3.5zM162 172v0.5v1.5q4 5 9.5 7.5t10.5 4.5h1q1 0 3 -1t2 -3v-1
q0 -1 -4.5 -3t-9 -3t-8.5 -2zM120 163v-1v-3.5t0.5 -5t0.5 -5v-3.5q4 -5 10 -5h0.5h0.5l2.5 2.5t1.5 2.5v18q0 1 -1.5 1h-3.5t-4 0.5t-3 0.5t-2.5 -0.5t-1.5 -1.5zM143 162q0 -1 -0.5 -2.5t-0.5 -2.5t0.5 -2.5t0.5 -2.5t0.5 -3l1 -4t1 -3.5l0.5 -1.5h7l1 3l2 6t1.5 6.5
t0.5 4.5q0 3 -3 3h-6h-3t-3 -1zM106 153q0 -2 1 -6t5 -4q2 0 3.5 0.5t1.5 2.5t-0.5 4.5t-1.5 5t-2.5 4.5t-3.5 2q-1 0 -2 -1.5t-1 -2.5v-2.5v-2.5zM161 146q0 -4 4 -4t6 2.5t2 6.5q0 3 -0.5 5.5t-4.5 2.5q-3 0 -4 -1.5t-2 -3.5t-1 -4v-4zM156 103q0 5 4.5 10.5t11 10t14 7
t12.5 2.5q0 -4 -2.5 -7t-6.5 -4.5t-8.5 -3.5t-8 -4t-6 -4.5t-2.5 -6.5q0 -3 2 -5l4.5 -4.5t4.5 -5t2 -7.5q0 -1 -0.5 -3l-0.5 -2q-1 -2 -3.5 -3t-5 -1.5t-4.5 -0.5h-4v-2q0 -5 5 -8q1 0 2.5 -0.5t3.5 -1t3.5 -0.5h2.5h2h1q1 0 2.5 0.5t2.5 1.5q0 1 0.5 3.5t1.5 5t2.5 4.5
t3.5 2t3 -0.5t1 -2.5q0 -4 -2 -8.5t-3 -8.5v-4t-0.5 -6.5t-0.5 -6.5v-4l-2 -2v0q-2 0 -3 2t-1 3l-0.5 2.5t-0.5 4.5t-0.5 4l-0.5 2l-1 2l-17 1l-2 -1v-3.5v-5.5t-0.5 -5.5t-0.5 -3.5q0 -2 -1.5 -3.5t-3.5 -1.5q-3 0 -3 3q0 4 1 8t1 9q0 3 -2.5 4t-5 1t-4.5 0.5t-2 3.5
q0 2 1.5 2.5t3.5 1t3.5 0t2.5 -0.5q1 2 1 4q0 5 -2 8.5t-5 6.5t-5.5 6.5t-2.5 7.5q4 0 6.5 -2t4 -4.5t3.5 -5.5t4 -5h6h2t2.5 0.5t2.5 1t1 2.5q0 3 -2 5.5t-4.5 4.5t-4.5 4.5t-3 6.5zM100 99q0 -1 1 -1.5t2.5 -1l3 -1t2.5 -0.5t2 2.5t2 5.5t1.5 5.5t0.5 3.5q0 3 -3 3.5
t-6 0.5v0q-4 -2 -5 -7t-1 -10zM116 96q0 -2 1 -3t3 -1q5 0 7 4t2 9q0 1 -2 4t-4 3q-2 -1 -3 -3t-2 -4.5t-1.5 -5t-0.5 -3.5zM89 40v7v5.5t0.5 5.5t1.5 7q0 2 0.5 5.5l0.5 3.5l5 2h24q3 0 5.5 -3.5t2.5 -6.5v-33q0 -1 -1.5 -1h-1.5q-2 0 -3.5 2t-2.5 4h-2.5t-3.5 0.5t-4 0.5
h-2h-2q-5 0 -9 -1t-6 -6l-2 1v7zM97 63v-1t1 -1h22q1 0 1 1.5v1.5q0 2 -1.5 3t-4 1.5t-5 0.5h-4.5q-3 0 -6 -0.5t-3 -5.5zM95 49v-2t2 -2h23q1 0 1 2v3v1v2q-4 1 -7.5 1.5t-7.5 0.5h-4t-3.5 -0.5t-2.5 -2t-1 -3.5z" />
</svg>
