<?xml version="1.0" standalone="no"?>
<!DOCTYPE svg PUBLIC "-//W3C//DTD SVG 1.1//EN" "http://www.w3.org/Graphics/SVG/1.1/DTD/svg11.dtd" >
<svg xmlns="http://www.w3.org/2000/svg" xmlns:xlink="http://www.w3.org/1999/xlink" version="1.1" viewBox="-10 0 266 256">
   <path fill="currentColor"
d="M111 214q-3 8 -4.5 18.5t-1.5 19.5q7 0 10 -3t4 -8t1 -10v-10v-15q0 -1 -0.5 -2.5t-0.5 -2.5v-2.5t0.5 -5t0.5 -5v-3.5v-11q1 -3 1 -13t0.5 -21t1 -20.5t1.5 -13.5q0 -3 2.5 -4t4.5 -1t3.5 0.5t2.5 3.5q1 33 1.5 65.5t1.5 65.5q0 2 0.5 5.5t0.5 4.5q1 2 2.5 2.5t2.5 0.5
q4 0 4.5 -3t0.5 -5q0 -18 -1.5 -35.5t-1.5 -35.5v-3t2 -2h27q2 0 3 3t2 7t1.5 7.5t0.5 4.5t0.5 6t1 11.5t1 11.5t0.5 6v3t-0.5 4.5t-1 4.5l-0.5 2v1q0 3 2.5 5.5t5.5 2.5q1 0 3 -0.5t1 -3.5v-22v-14t-1 -16t-3 -15.5t-6 -13.5q-2 -3 -8 -4.5t-13 -2.5t-12.5 -1.5t-5.5 -2.5
v-16l2 -1q1 -1 4 -1.5t7 -1t7 -0.5t4 -1q3 0 7.5 -0.5t8 -1.5t6.5 -3t3 -6q0 -1 0.5 -5.5t0.5 -9.5v-9v-6q0 -1 0.5 -3l0.5 -2q0 -3 -1 -5.5t-4 -2.5q-4 0 -5 5.5t-0.5 12t0 13t-4.5 9.5q-6 4 -14.5 4.5t-15.5 0.5h-2q-1 0 -3.5 -0.5t-2.5 -1.5v-14q0 -2 2.5 -3t5.5 -2
t5.5 -2t3.5 -3t1.5 -4.5l1 -5t1.5 -5t2 -4.5v-47q0 -5 -3.5 -8t-8.5 -4.5t-10 -2t-8 -0.5h-6l-3.5 0.5l-7 1t-6.5 1t-4 0.5q-7 1 -12 3t-8.5 5t-5.5 8.5t-2 13.5q0 5 0.5 9l1 8t1 8.5t1.5 10.5l1.5 2l1.5 2q4 8 7 10.5t6 3.5t5.5 1.5t4.5 4.5q-1 3 -1 6t-1 5t-3.5 3t-6.5 1
q-3 0 -8 0.5t-9.5 0t-8 -2.5t-4.5 -6v-3.5v-5.5v-6v-4l-0.5 -2.5t-1.5 -5.5t-2.5 -5.5t-4.5 -2.5q-2 0 -3.5 2.5t-2.5 4.5v12v11t1.5 9.5t4.5 8.5t9 7h2q9 0 18.5 -1t19.5 -1v22l-3 3q-1 0 -4.5 0.5t-7.5 0.5t-7.5 0.5t-4.5 0.5t-3 0.5l-2 0.5q-6 4 -8.5 12.5t-3.5 19
t-1 20.5v16v10q0 3 1.5 4t3.5 1q5 0 6.5 -3.5t2 -8t0 -9t-0.5 -6.5v-7t0.5 -10.5t0.5 -10.5v-7q3 -7 8.5 -11t13.5 -4q1 0 2.5 0.5l1.5 0.5l4 3v46zM101 87v-2v-1q0 -4 2.5 -5.5t6.5 -1.5t7.5 0.5t6.5 -0.5h3.5t7.5 -1t7.5 -1.5l3.5 -0.5h3q4 0 6.5 2.5t2.5 5.5q0 4 -3 6.5
t-7.5 3.5t-9 1h-6.5q-8 0 -16 -0.5t-15 -5.5zM96 59q0 -4 7 -6t16.5 -3t18.5 -1h13q7 2 7 9q0 2 -0.5 5t-4.5 3h-55q-1 0 -1.5 -1t-0.5 -2.5v-2.5v-1zM96 37q0 -3 3 -5.5t8 -4t11 -2.5t11.5 -1t9.5 -0.5t6 -0.5q6 0 8.5 3t2.5 9v2.5v1.5l-3 2h-4.5t-11 0.5t-13.5 0.5h-12h-7
h-7q-1 0 -1.5 -2l-0.5 -2v-1z" />
</svg>
