<?xml version="1.0" standalone="no"?>
<!DOCTYPE svg PUBLIC "-//W3C//DTD SVG 1.1//EN" "http://www.w3.org/Graphics/SVG/1.1/DTD/svg11.dtd" >
<svg xmlns="http://www.w3.org/2000/svg" xmlns:xlink="http://www.w3.org/1999/xlink" version="1.1" viewBox="-10 0 266 256">
   <path fill="currentColor"
d="M169 196q2 0 3.5 4.5l3.5 10.5t3.5 13t3.5 13t4 10t4 4t4 -2t2 -4q0 -7 -3.5 -14.5t-5.5 -14.5q0 -1 -1.5 -4.5l-3 -7t-2.5 -6.5t-2 -4v-3q10 -13 13.5 -25t3.5 -27q0 -8 -2.5 -12t-6.5 -6t-9.5 -2.5t-11.5 -1.5q-2 0 -2 -1v-2q0 -7 0.5 -12.5t1.5 -11t1 -11.5v-13
q0 -1 0.5 -2.5t1.5 -2.5l0.5 -0.5l0.5 -0.5q5 0 9.5 5.5t9 12t8 12t5.5 5.5q3 0 4.5 -2.5t1.5 -4.5q0 -4 -2.5 -8t-5.5 -7q-1 -1 -5.5 -5t-9 -8.5t-8.5 -8t-5 -5.5l-2 -3v0v-1v-3.5t0.5 -5l1 -5t0.5 -3.5v-1v-2q0 -2 -1 -3t-3 -1t-4 0.5t-3 2.5v3.5t-0.5 5.5t-1 5.5
t-0.5 3.5q0 3 0.5 5t-1.5 4q-2 3 -8 9t-12 12.5t-10.5 12.5t-4.5 10q6 0 10.5 -4t8.5 -9t7.5 -10.5t7.5 -8.5q1 1 1 2v2q0 6 -0.5 12.5t-1.5 12.5t-1 12.5v12.5l-3 4h-17l-1 1.5t-1 3t-0.5 3t-0.5 2.5h50q2 0 2.5 1.5t1 3.5t1 4.5t0.5 3.5q0 3 -1 8.5t-2.5 11t-4 9.5t-4.5 4
q-1 0 -3 -2.5t-3.5 -6t-3.5 -7t-4 -4.5q-3 -1 -7.5 -1h-8.5h-4q-3 0 -5 0.5t-3.5 2t-1.5 3.5v3q0 1 2 2q4 -2 7 -2h8q4 0 6.5 1t3.5 3t2.5 4.5t5.5 5.5v10l-1.5 1.5l-1.5 1.5q-8 6 -17.5 12t-17.5 11v5q8 0 14 -3t11 -7t8.5 -7.5t7.5 -3.5zM48 216q0 2 1 4t4 2q6 0 14 -0.5
t16.5 -1t16.5 -1.5t14 -1l2 -2t2 -1v-1q0 -2 -2.5 -3t-5.5 -1t-5.5 -0.5t-2.5 -2.5v-36q0 -1 3 -3t6 -4.5t5.5 -6.5t2.5 -9v-5.5t-1.5 -6.5t-3 -5t-4.5 -3h-3t-4 -0.5t-4 -0.5h-3q-8 0 -14.5 0.5t-13.5 1.5q-5 5 -6.5 10t-1.5 12q0 6 2 8.5t4.5 5t4 5.5t1.5 11q0 2 -0.5 4
t-0.5 5t0.5 6.5t0.5 7.5v2v2.5t-0.5 2.5t-2.5 1h-13q0 -1 -0.5 -1.5t-1.5 -0.5q-3 0 -4.5 2t-1.5 4zM89 171h2h2l2 3v1v1q0 2 -0.5 6.5t-0.5 9.5t-0.5 10t-0.5 7l-0.5 0.5l-0.5 0.5q-1 1 -4 1.5t-4 0.5q-1 -1 -2 -2.5t-1 -2.5v-33q0 -1 1 -2t2.5 -1h2.5h2zM72 148q0 -6 3 -8
t7.5 -3t9 -0.5t8.5 0.5q6 0 6.5 3t0.5 8t-1.5 8t-4 4t-6 1.5t-7.5 0.5h-8q-4 -3 -6 -6.5t-2 -7.5zM50 105q0 2 0.5 4t3.5 2v0q2 0 9 -0.5t15.5 -1t15.5 -1t8 -0.5h3h5h5h3t4 -1.5t3 -3.5v-1v0l-0.5 -0.5l-1.5 -1.5h-6.5t-7 -0.5t-6 -2t-2.5 -6.5q0 -4 1.5 -6t4.5 -2.5
t6.5 -1t7.5 -2.5q2 -11 4.5 -22.5t2.5 -23.5q0 -2 -2 -4t-5 -2v0q-1 0 -2 1t-1 2t-0.5 4.5t-1 8t-0.5 8v4.5q0 2 -0.5 5.5t-1.5 6t-2.5 5t-4.5 2.5q-6 0 -6 -6q0 -5 1 -10t1 -10q0 -7 -0.5 -12.5t-1.5 -13.5q-1 -2 -2 -3t-3 -1h-3v8v13t-0.5 13t-0.5 8v2.5t-0.5 3.5
t-0.5 3.5t-1 2.5q0 2 -2 2h-2q-3 0 -5 -2t-3 -5v-4.5t-0.5 -7.5t-0.5 -8v-5v-4q0 -3 -0.5 -5.5t-2 -4t-4.5 -1.5h-1l-3 3v5v5q0 1 0.5 5t1 8.5t1 8.5t0.5 5q1 8 4.5 11.5t8 5t7.5 2t3 2.5v2q0 2 -0.5 5.5t-1.5 3.5l-2 1h-35q-3 0 -3 1.5v3.5z" />
</svg>
