<?xml version="1.0" standalone="no"?>
<!DOCTYPE svg PUBLIC "-//W3C//DTD SVG 1.1//EN" "http://www.w3.org/Graphics/SVG/1.1/DTD/svg11.dtd" >
<svg xmlns="http://www.w3.org/2000/svg" xmlns:xlink="http://www.w3.org/1999/xlink" version="1.1" viewBox="-10 0 266 256">
   <path fill="currentColor"
d="M114 248q0 2 0.5 4.5t3.5 2.5q2 0 3 -2.5t2 -6.5t1.5 -7.5t2.5 -4.5q1 -2 7.5 -2.5t13.5 -1.5t12.5 -3.5t5.5 -8.5q0 -2 -1.5 -3t-2.5 -1q-3 0 -5.5 2t-5.5 4t-6.5 3.5t-6.5 1.5h-3.5t-1.5 -2v-1v0q4 -5 9.5 -10.5t12.5 -8.5v-4q0 -2 -0.5 -3.5t-2.5 -1.5t-5 3.5t-6.5 8
t-7 7.5t-7.5 3q-3 0 -3 -3t1 -5.5t3 -4t3 -3.5t1 -4q0 -1 -0.5 -2t-1.5 -1q-2 0 -4 2t-4 5.5t-3 6.5t-1 5q0 4 1.5 8t1.5 8q0 3 -1 5t-2.5 4.5t-2 5t-0.5 5.5zM168 120q1 0 2.5 3.5t2.5 9.5t2 12.5t1.5 13t1 11.5t1.5 7l0.5 1.5l1 3t1 2.5l0.5 1q0 1 0.5 5t0.5 8.5t0.5 8.5
t0.5 5t0.5 7t1.5 12t2.5 11t3.5 5t3 -1.5t1.5 -3.5t0.5 -4v-3v-3v-3q0 -1 -1 -5.5l-2 -9l-2 -9t-1 -5.5q-1 -4 -1 -7t-0.5 -5.5t-1.5 -5.5t-3 -7q0 -7 -1.5 -14.5t-2.5 -15l-2 -15t-1 -14.5q0 -1 1.5 -3t4 -4t4.5 -4.5t3 -4.5v-4v-4q0 -3 -0.5 -6t-1.5 -6.5t-3.5 -5.5
t-6.5 -2h-39l-0.5 0.5l-1.5 1.5v0v1l2 2t2 1h30q6 0 9 4.5t3 10.5q0 3 -2 7.5t-5 4.5q-4 0 -5.5 -2l-3 -4t-4 -3.5t-9.5 -1.5v0q-2 0 -4.5 0.5t-6 0.5t-6.5 0.5t-4 0.5l-0.5 0.5l-0.5 0.5v1v0q0 1 0.5 1.5l0.5 0.5h28l2.5 3t3.5 4v1v1q0 2 -1.5 3t-4 2t-4.5 1.5t-3 0.5
t-3.5 0.5t-5.5 1t-5.5 1t-3.5 0.5t-1.5 1.5t-0.5 2.5q5 0 8.5 0.5t6.5 0t6 -0.5t7 -1q1 -1 2.5 -1.5t2.5 -0.5zM67 240v1q1 0 2.5 2t2.5 2v0v0q3 0 4.5 -3t2 -7t1 -7.5t0.5 -5.5q1 -1 3.5 -3t2.5 -3q3 -4 6 -6.5t5.5 -4t5.5 -3t7.5 -3.5t7 -7.5t3 -11.5t1 -11t1.5 -5h18
l-0.5 -2t-2.5 -3h-9h-9q-3 0 -7 0.5t-7.5 0.5t-6 0.5l-2.5 0.5l-4 3l2 1q3 0 6.5 -0.5t6 0t4.5 2.5t2 6v2q0 1 -0.5 3t-0.5 4.5t-0.5 4.5t-0.5 3q-1 3 -4.5 4t-6.5 2q-1 0 -3.5 1l-5 2t-4.5 1.5t-3 1.5q-3 2 -6 7t-5.5 11t-4.5 11.5t-2 8.5zM79 177q0 1 1.5 3.5t2.5 2.5h21
l0.5 -0.5t0.5 -1.5v0v-1l-1 -2h-2.5h-3.5t-3.5 -0.5t-2.5 -0.5q-1 -1 -2.5 -2t-1.5 -3v-18q0 -1 3.5 -2t8 -1.5t8.5 -1t6 -0.5h8h10.5t9.5 2t7 6v3v4q0 8 -3 10.5t-7 2.5t-7 0.5t-3 5.5q8 0 13 -0.5t8.5 -2t4.5 -6t1 -12.5v-5v-5q-3 -4 -7 -5.5t-8.5 -2t-9.5 -0.5t-8 -2v-3
v-4t-1 -3.5t-3 -1.5q-3 0 -3.5 1.5t-1 4t-0.5 4.5t-2 2q-8 2 -14.5 1.5t-10.5 1t-6 5.5t-2 15v12zM60 123q0 2 1.5 3.5t3.5 1.5q14 0 28 -2.5t28 -2.5q2 0 2.5 -1t0.5 -2v-1.5t-1 -1.5h-14q0 -1 -0.5 -5t-0.5 -5q1 -3 2 -4.5l2 -3t1.5 -3t0.5 -4.5q0 -7 -3 -10.5t-11 -3.5
q-4 0 -9 0.5t-9.5 2.5t-7 5.5t-2.5 9.5q0 2 1 4t3 4t3.5 4.5t1.5 5.5v2q0 3 -2 3h-16q-2 0 -2.5 1.5t-0.5 2.5zM89 115q0 -4 2 -5.5t6 -1.5h2q1 0 2 1t1 2v3q0 3 -1.5 4t-4.5 1t-5 -0.5t-2 -3.5zM82 93q0 -2 2 -4t4.5 -3t5.5 -1.5t5 -0.5q4 0 6 2.5t2 6.5q0 6 -4 7t-10 1
q-4 0 -7.5 -1t-3.5 -7zM58 66q0 2 1 3.5t3 1.5h1q2 0 5 -0.5t6.5 -0.5t6 -0.5l2.5 -0.5h10q6 0 13 -0.5t12.5 -1.5t5.5 -3q0 -3 -3 -3t-6 0.5t-5 0.5q-4 0 -7.5 -0.5t-3.5 -4.5q0 -3 3.5 -4t8 -3t8.5 -7t4 -15q0 -2 -1 -4.5t-4 -2.5t-3.5 4t-1 8.5t-1.5 8t-6 3.5h-2h-2
q-1 -2 -1 -3.5v-3.5q0 -6 0.5 -12t0.5 -12q0 -3 -1 -5t-5 -2h-1.5t-1.5 1v38q0 1 -1.5 1.5t-2.5 0.5q-6 0 -7 -6q0 -1 -0.5 -4l-1 -6t-1 -5.5t-0.5 -3.5t-1.5 -1.5t-2.5 -0.5q-3 0 -4 2t-1 5q0 1 0.5 3.5t1.5 6t1.5 6.5l0.5 3q2 2 5 3.5t6.5 2.5t6 2.5t2.5 3.5q0 1 -0.5 2
t-1.5 1q-3 1 -7.5 1.5t-9 0.5h-8.5h-7q-2 0 -2 2zM156 46l1 0.5l1 0.5v17l1.5 0.5t2.5 0.5h1v0q1 0 2.5 -0.5l1.5 -0.5v-15q0 -1 1.5 -1.5t2.5 -0.5q4 0 7 1.5t6.5 3t6.5 2.5t6 1q0 -4 -3 -7.5t-7 -5t-9 -3t-9 -2.5q-1 0 -1.5 -1t-0.5 -2t0.5 -1.5l0.5 -0.5q0 -1 0.5 -4
t0.5 -4q0 -2 -1.5 -5.5t-4.5 -3.5q-2 0 -3 1.5t-1 3.5v4.5v3.5v1l0.5 3t0.5 4h0.5t0.5 1q0 2 -5 3.5t-11 2.5t-11 3.5t-5 6.5q4 0 7 -1t6.5 -2.5t6.5 -2.5t7 -1z" />
</svg>
