<?xml version="1.0" standalone="no"?>
<!DOCTYPE svg PUBLIC "-//W3C//DTD SVG 1.1//EN" "http://www.w3.org/Graphics/SVG/1.1/DTD/svg11.dtd" >
<svg xmlns="http://www.w3.org/2000/svg" xmlns:xlink="http://www.w3.org/1999/xlink" version="1.1" viewBox="-10 0 266 256">
   <path fill="currentColor"
d="M178 188q0 1 0.5 3.5t0.5 5t0.5 4.5t0.5 3q0 2 1 6.5t2 9.5t2.5 10.5t3.5 10t4 7.5t5 3q2 0 3.5 -1.5t1.5 -3.5q0 -4 -3 -8t-4 -8q-3 -13 -5 -26t-6 -25q-1 -16 -2 -34t-1 -35q0 -1 -0.5 -4.5t0 -7.5t2 -6.5t3.5 -2.5h0.5h0.5q0 3 1 8t2 8l11 99q1 5 2 7.5t6 2.5v0
q2 -1 3 -3.5t1 -3.5v-1q0 -1 -1 -2.5t-1 -2.5t-0.5 -3.5t-1 -4.5t-1 -4.5t-0.5 -3.5t-0.5 -4t-1 -7t-1 -7.5l-0.5 -3.5q0 -1 -1 -3.5t-1 -3.5l-6 -56q-2 -3 -2 -6v-7v-8q1 -2 3.5 -2.5l5 -1t4.5 -1.5t2 -4t-1.5 -3h-3.5h-5.5t-5.5 1q-6 5 -9.5 9t-6 8.5t-3.5 9.5t-1 12
q0 17 1 33.5t1 33.5q0 2 -1 3.5t-2.5 1.5h-4h-3.5q-3 0 -5.5 -1t-2.5 -4v-24l2 -0.5t4 -1.5t3.5 -2.5t1.5 -3.5v-11v-10q0 -7 -0.5 -17t-0.5 -20t-0.5 -17l-0.5 -7l-3 -3l-3 3v1.5v3.5v4v3q0 15 1 29t1 28q0 5 -1 7t-6 2q0 -15 -1.5 -29.5t-1.5 -29.5q0 -12 1 -23.5t1 -23.5
q0 -3 -1.5 -6t-5.5 -3q-2 0 -3.5 0.5t-1.5 3.5v3q1 6 1 14.5t0.5 18.5t0.5 20t0.5 18t0.5 13.5v6.5t0.5 3.5t0.5 5t0.5 4.5t0.5 3t0.5 2t1.5 1v31q0 2 -1.5 4t-3.5 2t-3 -0.5t-2 -2.5q0 -22 -2 -43.5t-3 -43.5l-3 -3l-3 3v2v3v4v3q0 3 0.5 9.5t0.5 15t0.5 17.5t0.5 17.5
t0.5 15t0.5 9.5q1 5 3.5 5.5t6.5 0.5q7 0 14 -1t14 -1q2 0 4.5 -0.5t3.5 1.5zM44 212q1 3 2.5 5.5t3.5 5t4.5 4t5.5 1.5h40q8 0 12 -4t7 -10q1 -16 2.5 -30.5t1.5 -29.5v-20q0 -1 -0.5 -5t-1 -8.5l-1 -9t-1.5 -6.5q0 -3 -0.5 -4t-3.5 -1h-1h-1v2t-0.5 3.5t-1.5 3t-2 1.5
t-2.5 -1.5t-3 -4t-3 -4.5t-3.5 -3q-3 1 -4 4t-1.5 5.5t-2.5 5t-6 2.5l-1 -0.5l-1 -0.5l-2 -4t-2.5 -4.5t-3.5 -4.5t-4 -2q-4 0 -6 3.5t-3.5 6.5l-3 6t-4.5 2q-3 0 -3 -3v-5.5t-0.5 -5t-3.5 -2.5h-1l-0.5 1t-1.5 1v8v13.5v12.5v8v34t2 34zM52 207q0 -2 1.5 -6t4 -8t5.5 -7
t5 -3q3 0 4 2t2 4.5t2 4.5t4 2q4 0 5.5 -2t3 -5t3 -5t4.5 -2h1l2 1l11 23v1q0 6 -4 8.5t-9.5 4t-10.5 1.5h-9t-7.5 -0.5t-8.5 -2t-6.5 -4t-2.5 -7.5zM49 168v-2v-4.5v-3.5v-3q4 -1 7.5 -2t6.5 -3q3 0 8.5 -0.5t12 -0.5t12 -0.5t7.5 -0.5h4q2 0 3.5 0.5t3.5 1.5q0 1 0.5 4.5
t0.5 5.5v7v8.5t-1 8.5t-3 6q-3 -2 -4.5 -5.5l-3 -7t-3.5 -6.5t-5 -5l-0.5 0.5t-0.5 1.5q-1 0 -2 2t-2.5 4t-2.5 4l-1 2q-1 1 -2 1.5t-2 0.5v0v0q-2 0 -3 -1t-2 -3t-2 -3.5t-2 -2.5q-1 0 -3.5 -2l-2.5 -2q-4 1 -6 5t-3.5 7.5t-3 6.5t-3.5 3v0h-1q-1 -5 -1 -11v-11zM49 140
q0 -2 3 -7.5t6.5 -10.5t6.5 -8.5t4 -3.5q3 0 5 3t3.5 6l3 6t4.5 3t4 -2t1.5 -4.5t1.5 -4.5t3 -2q4 0 7 1.5t5.5 4.5t4 6.5t1.5 7.5v2.5v2.5q-3 1 -11 1t-17 0.5t-17 1t-11 0.5h-4h-3t-1 -3zM52 28v1v1q0 3 1 7.5t1.5 9.5t0.5 8v4q2 7 4.5 11t7 5.5t9.5 2t11 0.5q3 0 7.5 0.5
t8 0t6.5 -2.5t3 -7h-23v-14q0 -2 3 -2.5t6.5 -2t6.5 -4t3 -8.5v-5.5t-0.5 -7.5t-1 -7t-2.5 -3h-1l-2 1.5t-2 2.5v21q0 2 -2 2.5t-3 0.5q-3 0 -4 -3t-1 -5v-6v-9v-8v-6l-0.5 -1t-1.5 -1v0h-1q-1 0 -3 1t-2.5 1t-1 0.5t-0.5 1.5v60q-7 0 -10 -4.5t-4.5 -11t-1.5 -13.5v-12
q0 -1 -2 -3l-2 -2h-1q-3 0 -4.5 2t-1.5 4z" />
</svg>
