<?xml version="1.0" standalone="no"?>
<!DOCTYPE svg PUBLIC "-//W3C//DTD SVG 1.1//EN" "http://www.w3.org/Graphics/SVG/1.1/DTD/svg11.dtd" >
<svg xmlns="http://www.w3.org/2000/svg" xmlns:xlink="http://www.w3.org/1999/xlink" version="1.1" viewBox="-10 0 266 256">
   <path fill="currentColor"
d="M36 119v95q0 12 3.5 19.5t10 11t15.5 4.5t19 1h8l2 -1t3 -1q8 -2 11.5 -2.5t5.5 -2t3.5 -5t6.5 -9.5v-107q0 -1 -2 -1.5t-3 -0.5q-3 0 -4 1t-3 5v0q0 4 1 7.5t1 6.5v3.5v2.5q0 1 -1 1.5l-1 0.5q-4 0 -6 -4t-3 -9t-2.5 -9t-6.5 -4h-1l-0.5 0.5t-0.5 1.5l-5 17q-1 2 -2.5 3
t-2.5 1q-2 0 -3 -1t-2 -3q-1 -1 -2 -3l-2 -4l-2 -4t-1 -3h-2q-1 0 -3 2t-3.5 5t-3 5.5t-2.5 3.5l-2.5 2.5l-2.5 2.5l-2 2l-1 1h-2v-4t-0.5 -6.5t-0.5 -7t-1 -4.5q0 -4 -2 -7t-6 -3zM135 240q0 1 0.5 2t1.5 1h8q19 0 38 -1t37 -2l1.5 -3t0.5 -3t-1.5 -2.5t-4.5 -0.5
q-5 0 -9.5 1t-9.5 1q-2 0 -3 -3.5t-1.5 -8t-0.5 -9t-1 -5.5v-66q0 -1 2 -2.5t4.5 -3t4.5 -3t3 -1.5v-7v-5v-6t-1.5 -5t-3.5 -2q-1 0 -2 0.5t-1 1.5q0 2 -0.5 6.5t-1 8.5t-3 7.5t-6.5 3.5h-27q-5 0 -6.5 -3.5t-2 -7.5t-1.5 -7.5t-6 -3.5v0q-1 0 -2 1.5t-2 1.5q0 1 0.5 3l1 4
l1 4t1.5 3q0 1 0.5 3l0.5 2q2 2 4 3t4.5 2t4.5 1.5t2 2.5q1 8 1.5 17.5l1 19t0 18.5t-0.5 16q2 2 2 4.5v5.5q0 6 -2.5 9t-6.5 3.5t-8.5 0.5t-9.5 1q-1 0 -1 1v1zM51 225q0 -2 2 -6.5t4.5 -8.5t5.5 -7t5 -3q3 0 4.5 3.5t3 7.5l3 8t3.5 5v0q2 0 4 -3.5t3.5 -8t4 -8.5t5.5 -6
q2 2 5 5.5t5 8t3.5 8.5t1.5 8q0 3 -2.5 5.5t-6 3.5t-7.5 1.5t-6 1.5h-3.5t-6 0.5t-7 0.5h-5.5h-2q-7 0 -12 -5t-5 -11zM169 181v-33q1 -3 2.5 -4t4.5 -1q4 0 6 3t2.5 7t0.5 8v6v13v19.5v20v13.5h-14q-2 -12 -2 -26.5v-25.5zM139 198v4v5v4.5v2.5l2 3l3 -2l0.5 -1t0.5 -2.5
t0.5 -3.5t0.5 -3v-9.5v-14.5v-15v-9h-5q-2 9 -2 19.5v21.5zM202 162v45q0 7 6 7q2 0 3.5 -1t0.5 -5v-17q0 -9 -1.5 -19t-0.5 -19q-1 -3 -2.5 -3h-3.5t-3 0.5t-1 2.5v1v1l0.5 3t1.5 4zM44 181l7 -2h5t11.5 -0.5t13 -0.5t11.5 -1h4h7.5h7.5h4v32q-3 0 -5 -3.5t-3 -8t-3 -8
t-5 -3.5h-1.5h-0.5q-1 1 -2 4t-3 6.5t-4 6t-4 2.5q-3 0 -5 -2.5t-3.5 -5.5t-3 -5t-3.5 -2q-4 0 -6.5 3.5t-4.5 7.5t-4 7.5t-6 3.5q-2 0 -3 -0.5t-1 -3.5v-27zM67 143q3 0 4 2.5l2 5t2.5 5t4.5 2.5q2 0 4 -2.5t4 -5.5t3.5 -6t3.5 -5q0 1 1 1.5l1 0.5q0 1 1.5 3t2.5 4t2.5 4
t1.5 3q2 0 4 1.5t4 3.5t3 4t1 4v1l-1 1l-1 1h-74q0 -1 0.5 -4l0.5 -3l3 -2.5t6.5 -5.5t6.5 -6t5 -6q1 -1 1.5 -1h2.5zM41 48v10v12.5t1 12.5t2 10q1 1 2 3.5t2 4.5l2 4l1 2l5 1h2h4.5h4.5h4h19.5t19.5 -1q5 -2 5 -7q0 -4 -4 -4q-3 0 -6 1t-5.5 1.5t-5.5 1.5t-6 1h-5
q-2 -2 -2 -5v-5q0 -1 0.5 -3.5t0.5 -3.5q2 -1 6.5 -1.5t9 -2t8 -3.5t3.5 -7v-2q0 -2 -0.5 -7.5t-0.5 -11.5t-0.5 -11t-0.5 -7q-2 -2 -3 -2h-2q-2 0 -3.5 1.5t-1.5 3.5q0 7 1 12.5t1 11.5q0 7 -2 11.5t-9 4.5h-2h-1.5t-2 -0.5t-0.5 -1.5v-54q0 -2 -1.5 -4.5t-3.5 -2.5
q-3 0 -5.5 1.5t-3.5 3.5q0 1 1 2.5l1 1.5q0 3 0.5 6.5t0.5 7t0.5 7t1.5 7.5v53h-12q-2 0 -3.5 -3t-2.5 -6.5t-1.5 -7t-0.5 -4.5v-12q0 -1 -0.5 -5t-0.5 -8t-0.5 -7.5t-0.5 -4.5q-1 -2 -2 -2h-2h-3.5t-2.5 2v5zM131 95l3 1t3 2h2h2q1 0 4 -0.5t6 -0.5t6 -0.5t4 -0.5q2 0 2 -1
v-2q0 -3 -2 -3.5t-4 -0.5q-3 0 -6.5 -0.5t-7.5 0t-7 1.5t-5 5zM175 93q0 3 2 3h4q8 0 17.5 -1t16.5 -4v-2q0 -2 -1.5 -3.5t-3.5 -1.5h-2t-4 0.5l-4 1t-3 0.5t-4 0.5l-6 1t-5.5 1t-3.5 0.5t-2 1.5t-1 2.5v0zM124 67v5l2.5 0.5t5.5 1t5 0.5h1h1q7 -1 17.5 -1.5t20.5 -1t18 -1
t9 -0.5h1.5t3.5 -0.5t4 -0.5t2 -1l0.5 -1l0.5 -1q0 -3 -1.5 -4.5t-4.5 -1.5h-2l-3 0.5l-6 1l-6 1l-3 0.5q-3 0 -8 0.5t-11.5 1t-13.5 1t-13.5 0.5t-12 0.5t-7.5 0.5zM132 42q0 3 2 4.5t4 1.5h1q2 0 5 -0.5t7 -1t7 -0.5h5q1 -1 2.5 -1.5t2.5 -1.5l-4 -4h-28q-3 0 -3.5 1
t-0.5 2zM176 44q1 1 4.5 1.5t4.5 0.5v0h1q1 0 4 -0.5t6.5 -1t6.5 -1t4 -0.5q0 -1 1.5 -2t1.5 -2v-1q0 -3 -1 -3.5t-4 -0.5q-2 0 -6.5 0.5t-9.5 2t-9 3t-4 3.5v1z" />
</svg>
