<?xml version="1.0" standalone="no"?>
<!DOCTYPE svg PUBLIC "-//W3C//DTD SVG 1.1//EN" "http://www.w3.org/Graphics/SVG/1.1/DTD/svg11.dtd" >
<svg xmlns="http://www.w3.org/2000/svg" xmlns:xlink="http://www.w3.org/1999/xlink" version="1.1" viewBox="-10 0 266 256">
   <path fill="currentColor"
d="M71 244q0 3 1.5 4t4.5 1q2 0 3.5 -2.5t1.5 -6v-7.5q0 -5 0.5 -9t2 -7t3.5 -5q5 1 8.5 1t6 -0.5t6 -0.5t7.5 -1l2 -0.5t4.5 -1.5t4.5 -1.5t2 -1.5v-2h-34q-1 0 -1.5 -0.5l-0.5 -0.5v-1v-1q3 -3 8 -6.5t10 -7.5t9 -7.5t4 -6.5q-6 0 -11.5 3.5t-10 7t-8 6.5t-7.5 3h-2t-2 -1
v-6q0 -8 5.5 -13t12 -8t13 -5t8.5 -5q0 -2 -2 -2h-4q-6 0 -13 2.5t-13 6.5t-10 10t-4 13q0 3 1 6t2 5.5t2 4.5t1 4t-2 4.5t-3 4.5q-3 7 -4.5 15t-1.5 15zM181 209q3 0 4.5 3t2.5 7.5t1 9.5t1 9.5t2.5 7.5t4.5 3v0q1 0 2 -0.5t2 -1.5v-4q0 -6 -1.5 -11.5t-3.5 -10.5
t-3.5 -9.5t-1.5 -8.5q0 -6 1.5 -11.5t1.5 -11.5t-5.5 -11t-13.5 -8.5t-16 -5.5t-14 -2q0 5 4.5 7.5t10.5 4t12 4t9 5.5q1 1 1.5 3.5t0.5 4.5t-0.5 4t-0.5 3q-5 0 -9.5 -2t-9.5 -5t-10 -5.5t-10 -2.5q-3 0 -3 3t5 5.5t11 4.5t11 4.5t5 5.5q0 5 -4 6t-9 1t-9 0.5t-4 2.5v2t2 2
h2h3h3h2q6 0 11.5 -1t11.5 -1zM125 126q-2 4 -8 6.5t-13.5 4.5t-15 5t-14 6.5t-11 8t-4.5 11.5h7q7 -8 14.5 -14t17.5 -10q4 -2 10 -3t12 -3t10 -5.5t4 -10.5q0 -11 -5 -17.5t-11 -10t-10.5 -5t-4.5 -4.5t2.5 -4.5t6 -2t8 -1t8.5 -2t6.5 -5.5t2.5 -11q0 -1 -0.5 -4l-0.5 -3
q0 -2 -1 -2h-2h-1q-1 12 -6.5 16.5t-17.5 4.5h-5l-1.5 -4.5t-0.5 -3.5t2 -4t5 -3t6 -1.5t5 -1.5t2.5 -3t0.5 -4.5t0.5 -5t2.5 -4.5h2t4 -0.5l4 -1t3 -1.5v-1v-1l-0.5 -0.5l-1.5 -1.5h-8q-19 0 -37 2t-36 2q-4 -1 -4.5 0t-0.5 3t0.5 3.5t2.5 1.5h26l3 12l1.5 1t3 1.5t3 1.5
t2.5 1l0.5 0.5t0.5 1.5v10q-11 0 -15.5 -3t-6.5 -7t-2.5 -7t-3.5 -3v0q-1 0 -2 0.5t-2 1.5v7q0 5 0.5 9t6.5 7q2 1 5.5 1t7.5 0.5t8 1.5t6 2v3v2q0 4 -2 6t-5.5 3t-7 1.5t-6.5 2.5q-3 1 -4.5 2.5t-3 3.5l-3 4t-4.5 4q-2 3 -3.5 4.5t-2.5 3t-1.5 3.5t-0.5 5v1v2t0.5 2t1.5 1
q2 -2 4.5 -5l5 -6t5 -5.5t5.5 -2.5h0.5h0.5l3 16l0.5 1t1.5 1l1.5 0.5l1.5 0.5q3 0 3.5 -2t0.5 -4q0 -3 -1 -5.5l-2 -5l-2 -5t-1 -5.5q0 -1 1 -2.5t3 -3t4 -2t3 -0.5q2 0 3 2.5t1.5 5.5t0.5 7t1 7.5t2.5 5.5t5.5 2q0 -8 -1 -15.5t-1 -15.5q10 0 16.5 6t6.5 16q0 1 -0.5 3.5z
M146 116q0 3 0.5 7t1.5 8t3 7t6 4q1 1 4.5 1.5t7 2t7 2t4.5 1.5q3 1 5.5 3l5 4t5.5 3.5t6 1.5q4 0 4.5 -0.5t0.5 -2.5q0 -3 -1 -4t-4 -2t-8.5 -3.5t-11 -4.5t-10 -4t-5.5 -2.5t-3 -1t-4.5 -1t-4 -2t-1.5 -3.5v0l2 -2v0q5 0 10.5 1.5t10.5 3.5t9.5 4t9.5 4h1h2q2 0 4 -1t2 -4
q0 -2 -4 -3t-9.5 -2.5t-12.5 -2.5t-13 -3t-10 -4t-4 -5q0 -2 1 -4.5t4 -2.5q6 0 11 1.5t10 4t9 4t9 1.5q2 0 3.5 -0.5t1.5 -2.5q0 -3 -3.5 -5t-8.5 -3t-11.5 -2t-11.5 -2t-8.5 -2.5t-3.5 -4.5q0 -2 2.5 -3t4.5 -1q6 0 13 1t12 3q3 0 6 2t6 2h1q1 0 2 -1t1 -2v-1q0 -2 -2 -3
t-5 -2t-5.5 -1.5t-3.5 -0.5t-5.5 -0.5l-9 -1t-8.5 -1t-6 -0.5v-1q0 -4 3.5 -5.5t8.5 -2t11 -0.5t11 -1t8 -3.5t3 -8.5q0 -7 -3 -10.5t-7.5 -4.5t-10 -1.5t-10.5 -1t-8 -2t-3 -5.5q0 -1 0.5 -3t1.5 -2q3 -1 9 -1h12.5t11 -1t4.5 -4v-1v-1q-1 -1 -4 -1.5t-4 -0.5h-27l-3 -1
v-13l-1 -0.5t-1 -1.5h-0.5h-0.5h-0.5h-0.5q0 1 -1 2t-2 1v10v7v6t0.5 6.5t1.5 7.5l1 1l2 2l2 2l1 1h26q2 0 2.5 3t0.5 5q0 3 -1 4t-4 3q-1 0 -4.5 0.5t-7.5 1t-7 1t-5 0.5q-6 1 -9.5 6t-5 11t-1.5 13v12zM87 42v-0.5v-0.5q5 -3 11 -3.5t12 -0.5q2 0 4 0.5t2 3.5t-1.5 5t-4 3
t-5 1h-5.5h-3h-4q-2 -2 -4 -3.5t-2 -4.5zM64 16q0 3 2 3.5t4 0.5h6q2 0 9 -0.5t15 -1t15 -1t10 -1.5q1 0 1.5 -0.5l0.5 -0.5v-1q0 -1 -2 -2t-3 -2h-3h-3.5h-4.5h-3h-10h-14.5t-13.5 1.5t-6 4.5z" />
</svg>
