<?xml version="1.0" standalone="no"?>
<!DOCTYPE svg PUBLIC "-//W3C//DTD SVG 1.1//EN" "http://www.w3.org/Graphics/SVG/1.1/DTD/svg11.dtd" >
<svg xmlns="http://www.w3.org/2000/svg" xmlns:xlink="http://www.w3.org/1999/xlink" version="1.1" viewBox="-10 0 266 256">
   <path fill="currentColor"
d="M57 245q0 3 3 3q5 0 8.5 -1t7 -3t7.5 -4.5t8 -3.5q1 -1 4.5 -2t6.5 -2t5.5 -1.5t3.5 -0.5q4 -1 8.5 -2t8 -2.5t5.5 -5t2 -9.5v-1.5v-1.5q-3 -10 -8 -14t-10 -6t-9 -3t-4 -5v-2q6 -1 11.5 -2t10.5 -2.5t8 -5.5t3 -10q0 -3 -1 -3.5t-2 -0.5q-3 0 -5 2.5t-4 5.5t-5 5.5
t-9 2.5h-2h-3q-1 -1 -1.5 -2t-0.5 -3l2.5 -2.5t5 -5.5l5 -6t3.5 -4q1 -2 4.5 -3t7.5 -1t6.5 -0.5t2.5 -2.5v-1q0 -1 -0.5 -2l-0.5 -1h-4q-7 0 -14.5 1t-13.5 2q-14 1 -27 1.5t-26 -0.5q-3 2 -3 5q0 2 1 2.5t4 0.5h3.5t5.5 -0.5t5.5 -0.5h3.5h5h5q0 5 1 8t2.5 4t3 1t3.5 0.5
t3 2.5t1 6q0 2 -3 2.5t-5 0.5q-9 0 -12.5 -3t-5 -6l-3 -6t-6.5 -3q-2 0 -3 2t-1 3q0 8 4 11.5t9.5 5.5t11.5 2h11q0 5 -0.5 7t-1.5 2.5t-3 1t-7 1.5q-4 2 -8.5 4.5t-9 6t-7 8t-2.5 10.5q0 1 0.5 2t1.5 1q3 0 5.5 -2t4 -5t3.5 -5t5 -2q2 0 3.5 2.5t2 5.5t2 5.5t3.5 2.5
t2.5 -3t0.5 -4q0 -5 -2.5 -9t-2.5 -9q0 -3 1.5 -3.5t3.5 -0.5q5 0 7 3.5t3 7.5t1.5 7.5t3.5 3.5q4 0 4.5 -2t0.5 -5q0 -4 -2 -7t-2 -7q0 -2 1 -3t3 -1q4 0 6.5 2t4 5.5t2 7t0.5 6.5q0 5 -1.5 7.5t-5.5 2.5q-2 1 -6 1.5l-8 1t-8 1.5t-6 1q-2 2 -6 4t-8.5 3.5l-9 3t-7.5 1.5
q-1 2 -1 3v2zM144 213v0.5v0.5q2 8 4 11t4 3.5t5.5 1t8.5 3.5l7 3.5t10.5 5t10.5 4t8 1.5q2 0 3 -1t1 -3q0 -3 -4 -5.5t-10 -4.5t-13 -4t-13 -4t-10 -4.5t-4 -5.5t1 -3.5t4 -0.5h3l30 8q2 1 4 1h4q1 0 3.5 -0.5t2.5 -3.5q0 -4 -3 -4.5t-6 -0.5l-2.5 -0.5t-5 -0.5t-5 -0.5
l-2.5 -0.5q-3 0 -6.5 -1l-7 -2t-7 -2.5t-5.5 -1.5q-2 -1 -2 -1.5v-2.5t1 -4t4 -2q6 0 12 1.5l12 3l12 3t12 1.5q0 -4 -2 -5.5t-5 -3.5q-10 0 -20 -1.5t-20 -3.5q-2 0 -2.5 -1t-0.5 -3v-2t2 -1l2.5 -0.5l2.5 -0.5q5 0 10 1t9.5 2.5t9.5 2.5t10 1q2 0 3 -1.5t1 -3.5t-3.5 -3
t-9 -1.5t-11.5 -1t-11 -1t-8.5 -1.5t-3.5 -3q0 -3 3.5 -4t8.5 -1h10q6 0 11 -1t8.5 -3.5t3.5 -7.5q0 -4 -2.5 -9t-8.5 -5h-1.5t-2.5 0.5t-2 0.5h-2l-3.5 0.5t-5.5 0.5h-6t-5.5 -0.5t-4 -2.5t-1.5 -6v-2t2 -2q9 -1 19.5 -1.5t19.5 -0.5q1 0 1.5 -1.5l0.5 -1.5v-0.5v-0.5v-0.5
v-0.5l-1 -1l-2 -2h-1q-6 0 -12 1t-11 1h-6h-5q-2 -2 -3.5 -2.5t-4.5 -0.5h-2t-2 1v24q0 2 1.5 3.5t2.5 1.5q9 -1 18 -0.5t17 1.5q2 1 2 2v2q0 3 -1 4t-4 2h-12.5t-12.5 1t-10 4.5t-5 11.5q0 1 -0.5 5.5t-1 10.5t-0.5 11.5t-1 8.5v0.5v1.5zM92 150v-2t2 -1l2 -0.5t4 -0.5
t3.5 -0.5t2.5 -0.5h1q2 0 2 1.5v2.5v2q-3 2 -5 3t-5 1q-2 0 -4.5 -1.5t-2.5 -3.5zM70 126h0.5h0.5l1 2h6q13 0 26 -1t25 -2l1 -1l1 -1v-1v-1l-1 -0.5l-1 -0.5h-5h-6q-2 0 -8.5 0.5t-13.5 1t-13.5 1t-8.5 0.5q-1 0 -2 1l-1 1h-0.5t-0.5 1zM66 99q0 6 1 8.5t4 4t7 1.5t10 1v0
q3 0 5.5 -2.5t3.5 -4.5q0 -1 0.5 -3.5t0.5 -5v-5v-3.5l0.5 -1.5l0.5 -1.5q0 -2 -0.5 -3.5t-3.5 -1.5t-4 2t-2 5h-3.5h-3.5q-3 0 -6.5 -0.5t-6.5 -2.5q-1 0 -2 2t-1 4v4v3zM157 82v19q0 1 0.5 2.5t2 2.5t2.5 2l1 1h6q4 0 7.5 -0.5t6.5 -2t4.5 -4t1.5 -7.5t-0.5 -9.5
t-2.5 -7.5q-3 0 -5 2t-4 3.5t-4.5 3t-5.5 0.5q-2 0 -3 -1t-1.5 -2t-2 -1.5t-3.5 -0.5zM112 80v6t0.5 9t2 8.5t3.5 3.5h22q1 0 2.5 -2.5t1.5 -3.5v-17q0 -1 -1 -1.5t-2 -0.5q-2 0 -3 1l-3 3h-15q-1 -2 -3 -4t-5 -2zM77 101q0 -4 1 -4.5t4 -0.5t5 0.5t2 3.5q0 4 -1.5 5t-4.5 1
t-4.5 -1t-1.5 -4zM123 101l-0.5 -1.5t-1.5 -1.5v-1q0 -1 1.5 -2t3 -1.5t2.5 -0.5h3q3 0 4.5 1t1.5 4t-0.5 4t-4.5 1q-1 0 -4.5 -0.5t-4.5 -1.5zM163 96q0 -2 2 -2h3h5t5 1v1.5v1.5q0 4 -1.5 4.5t-4.5 0.5t-6 -1.5t-3 -5.5zM54 84q1 2 2 3.5t3 1.5h1.5h0.5q1 -1 2.5 -4
t1.5 -4v-4v-7v-7v-4q1 -3 2.5 -5t2.5 -3t3 -2t5 -1q13 -2 24 -3t23 -1v31q0 1 2 1h2q5 0 5 -6v-25l3 -3h3.5t8.5 -0.5t10 -0.5t8 -1h1h1l2 1t3 1l2.5 0.5l5 1t4.5 1t3 0.5t2 2.5t1 3.5t0.5 4.5t0.5 8t0.5 8t0.5 4.5t1 2t2 1v0q2 0 4 -1.5t3 -2.5q0 -1 0.5 -4t0.5 -4
q0 -6 -1 -12t-3.5 -10.5t-7.5 -7.5t-12 -3h-8.5h-13.5h-13.5h-8.5q-2 -2 -2.5 -3t-0.5 -4t5 -4.5t11.5 -2t13 -0.5h8.5h3.5h4.5h5.5h3.5q2 -1 2.5 -2.5t0.5 -3.5q0 -4 -4 -4q-2 0 -4 0.5t-4 1.5q-29 3 -56.5 3t-55.5 1q-3 0 -3 1.5v2.5v2.5t1 1.5h20q9 0 17 -0.5t17 -0.5
q6 0 6 7q0 3 -2.5 5t-5.5 2h-3h-6h-6h-3q-2 0 -7 0.5t-10.5 1.5t-10.5 2t-7 1q-6 0 -8.5 3t-3 7t0 8.5t0.5 8.5v3v4.5v4.5v3zM75 72l3 3q4 -1 8.5 -1.5t9.5 -1l10 -1t9 0.5q2 -1 2 -4v-3h-8.5t-13.5 0.5t-12.5 2t-7.5 4.5zM144 65v5h33q2 0 5 -1t3 -4q0 -1 -1 -2t-3 -1
q-8 0 -18 1t-19 2zM77 54v2t1 1h13h12h3.5t4 -0.5t3 -0.5h1.5l2 -3q-2 -2 -4 -2h-4q-8 0 -16 0.5t-16 1.5v0v1zM144 53l2 1l2.5 0.5t6.5 0.5t7.5 0.5t6.5 0.5h1.5t3 -0.5t3 -1.5t1.5 -2t-1.5 -2.5t-2.5 -1.5h-7t-8.5 0.5t-8 1.5t-6.5 3z" />
</svg>
