<?xml version="1.0" standalone="no"?>
<!DOCTYPE svg PUBLIC "-//W3C//DTD SVG 1.1//EN" "http://www.w3.org/Graphics/SVG/1.1/DTD/svg11.dtd" >
<svg xmlns="http://www.w3.org/2000/svg" xmlns:xlink="http://www.w3.org/1999/xlink" version="1.1" viewBox="-10 0 266 256">
   <path fill="currentColor"
d="M54 239q0 3 2.5 4t4.5 1h5q5 0 15.5 -0.5t23.5 -1t27.5 -1.5t28 -1.5t24 -0.5h15.5q0 -1 1.5 -2t1.5 -2t-0.5 -2t-1.5 -1h-43v-5.5t-0.5 -7l-1 -7t-0.5 -5.5v-2q0 -9 3.5 -14.5t9 -9.5t11.5 -7t11 -6.5t8.5 -9t3.5 -14.5q0 -14 -3.5 -20.5t-8.5 -9t-11 -3t-11.5 -2.5
t-9 -7t-3.5 -18v-4v-3l2 -2h16t12.5 -2t8.5 -7t3 -16q0 -8 -3 -12t-8 -5.5t-11 -1.5h-12q-1 0 -4 0.5t-5.5 2t-4 3t-1.5 4.5v57l1 3t2 5q2 6 6.5 8.5t9 3.5t9 1.5t8.5 2.5t6.5 6t2.5 13q0 10 -4.5 15t-10.5 8t-12.5 6t-11.5 10q-3 5 -5 11.5t-2 14v14t1 12.5l-2 1h-32l-2 -3
q1 -6 1 -12v-13q0 -6 -0.5 -12.5t-1.5 -12.5q-1 -5 -4 -7t-7.5 -3.5t-9.5 -2.5t-9 -3t-7 -6.5t-3 -11.5q0 -11 3 -16.5t8 -8.5t10.5 -4t11 -3t9.5 -5t5 -9q1 -11 1 -21v-20v-5v-7v-7.5v-5.5q-4 -5 -9.5 -6t-11.5 -1q-5 0 -10.5 1.5t-9 4t-6 7t-2.5 10.5q0 10 3 15t8 7
t12.5 1t16.5 -1q1 0 1 2v3q0 7 -2 15t-7 13q-8 2 -16 5t-14 7.5t-9.5 11t-2.5 17.5q0 2 0.5 6.5t2 9t4 8t6.5 4.5l22 3q2 0 3.5 1.5t2.5 3.5t1.5 4.5t0.5 3.5v40l-0.5 1.5l-0.5 1.5q-1 2 -2 2h-43q-2 0 -3 1t-1 3zM155 59v-4v-6t1 -5.5t4 -2.5h25q1 0 1 2t0.5 4t0.5 4.5v3.5
q0 7 -3.5 9.5t-8.5 2.5h-6t-6.5 -0.5t-5.5 -2t-2 -5.5zM82 49v-6q1 -2 3 -3.5t4.5 -2t5 0t4.5 0.5h8q3 4 3.5 8t0.5 9v7q-3 3 -7 3h-10t-7 -1.5t-4 -5t-1 -9.5z" />
</svg>
