<?xml version="1.0" standalone="no"?>
<!DOCTYPE svg PUBLIC "-//W3C//DTD SVG 1.1//EN" "http://www.w3.org/Graphics/SVG/1.1/DTD/svg11.dtd" >
<svg xmlns="http://www.w3.org/2000/svg" xmlns:xlink="http://www.w3.org/1999/xlink" version="1.1" viewBox="-10 0 266 256">
   <path fill="currentColor"
d="M155 115q-15 4 -24 8.5t-14.5 10t-8 12.5t-4 15.5t-3.5 19t-7 22.5q-3 9 -8.5 16.5t-11.5 13.5q-2 3 -4.5 4.5l-5 3t-4.5 3.5t-2 6q9 0 17.5 -7t15.5 -16.5t12 -19.5t7 -17q1 -6 1.5 -12.5t2 -12.5t3.5 -12t5 -12q3 -5 10 -7t14.5 -4t14 -5.5t8.5 -11.5q2 -7 3 -15.5
t2.5 -16.5l3 -16t5.5 -15l0.5 -1t1.5 -2t1.5 -2t1.5 -2q3 -7 5 -13.5t6 -14.5q0 -1 -0.5 -2l-0.5 -1l-0.5 -0.5l-0.5 -0.5q-2 0 -3.5 1.5l-2.5 2.5q-1 2 -3 6.5t-4.5 10t-4.5 10t-3 6.5q-1 3 -2 7t-3 8t-4 7t-6 3h-10.5t-10.5 -1.5t-10 -4t-8 -5.5q-2 -3 -4 -10.5t-4 -16
t-5 -14.5t-6 -6h-2t-1 1q0 4 1 6.5t2.5 5.5l3 6t1.5 6l2 14t4 13t7.5 10t13.5 5h6t8.5 0.5t8.5 0.5h6v3v7t-1 8t-3 8t-5 6z" />
</svg>
