<?xml version="1.0" standalone="no"?>
<!DOCTYPE svg PUBLIC "-//W3C//DTD SVG 1.1//EN" "http://www.w3.org/Graphics/SVG/1.1/DTD/svg11.dtd" >
<svg xmlns="http://www.w3.org/2000/svg" xmlns:xlink="http://www.w3.org/1999/xlink" version="1.1" viewBox="-10 0 266 256">
   <path fill="currentColor"
d="M65 246l1.5 2t2.5 3v0q3 0 6 -2.5t5 -4.5v-38q0 -1 0.5 -4t0.5 -4q1 -2 8 -3t16.5 -1t20 -0.5t19.5 -2t15 -4.5t6 -8v-33h22q2 0 2 -1.5v-2.5q0 -3 -2 -4t-5 -1q-4 0 -8 0.5t-9 2.5h-75q-1 0 -4 1t-4 1h-2q-2 0 -3 -2.5t-1.5 -5.5t0 -6t0.5 -4v-5v-3l1 -2h16h11
t14.5 -0.5t13 -1t7.5 -0.5q1 0 5 -0.5t8.5 -1.5t8 -3t3.5 -4v-31l2 -3h25q1 0 1.5 -2t0.5 -3q0 -3 -2.5 -4.5t-6.5 -1.5h-1q-1 0 -3 1l-2 1q-11 2 -22.5 2.5t-22.5 0t-22.5 -0.5h-22.5h-11q-3 -3 -3 -6.5v-6.5v-3v-4q3 -4 6 -5.5t7 -2.5q25 -4 49.5 -6t49.5 -1q2 -1 3.5 -2
t1.5 -4t-2.5 -4.5t-6.5 -1.5h-1q-1 0 -3.5 0.5t-5.5 1t-5 0.5h-2l-1.5 0.5t-2.5 0.5t-2.5 0.5l-1.5 0.5q-6 1 -15 1h-18t-18.5 1t-18 3.5t-14.5 7.5t-9 13v4v5v6v3q0 33 2.5 66t2.5 67v2q0 2 -0.5 8.5l-1 13t-1 12.5t-0.5 9q-1 0 -1.5 2t-0.5 3zM78 176v-1q0 -2 0.5 -6
t0.5 -7.5t0.5 -6.5l0.5 -3l1 -2q1 0 6.5 -0.5t13.5 -1l16 -1t13 -0.5h6h8.5h8.5h5v4.5v8t-0.5 8.5t-1.5 5q-1 4 -5.5 6t-10.5 3.5t-13 2t-13.5 0.5h-11.5h-8h-2h-4h-4h-3q-1 -1 -1.5 -2t-0.5 -2.5t-0.5 -2.5l-0.5 -1v-1zM77 101q0 -1 -0.5 -4t-0.5 -6t-0.5 -5.5t-0.5 -4.5
v-1.5v-1.5q0 -2 0.5 -4t2.5 -2q17 0 34 -2t34 -2h7t5 4v3v4q0 11 -2 15.5t-6.5 6t-10.5 2t-14 3.5h-42l-2 -1.5t-3 -1.5q0 -1 -0.5 -1.5z" />
</svg>
