<?xml version="1.0" standalone="no"?>
<!DOCTYPE svg PUBLIC "-//W3C//DTD SVG 1.1//EN" "http://www.w3.org/Graphics/SVG/1.1/DTD/svg11.dtd" >
<svg xmlns="http://www.w3.org/2000/svg" xmlns:xlink="http://www.w3.org/1999/xlink" version="1.1" viewBox="-10 0 266 256">
   <path fill="currentColor"
d="M59 148q0 21 -2 40.5t-6 39.5q-2 7 -4.5 12t-2.5 12q4 0 7 -3.5t5 -8.5t3.5 -10.5t2.5 -11t1.5 -10t1.5 -6.5q0 -1 0.5 -2.5t0.5 -2.5q1 -4 1 -12v-17t0.5 -16.5t1.5 -10.5q4 -1 9.5 -3t11.5 -5t10 -6.5t4 -6.5q-4 0 -8 1t-8 3t-8 3.5t-8 1.5q-1 0 -2.5 -0.5t-1.5 -1.5
t-0.5 -3t-0.5 -4.5t-0.5 -4.5t-0.5 -3v-1v0q1 -1 1.5 -3l0.5 -2q1 -1 3.5 -1.5t5.5 -2t6 -2t4 -1.5q2 -1 5 -1.5t6 -1.5t4.5 -3t1.5 -6q-4 0 -8.5 1t-8.5 3t-8 3t-8 1q-2 0 -3 -1t-1.5 -2.5t-0.5 -3v-3.5v-6t2 -5q10 -2 17.5 -6t16.5 -9q2 -1 2 -3v-4q-4 0 -9 1.5t-9.5 3.5
t-9 3.5t-9.5 1.5q-1 0 -1.5 -1.5t-0.5 -2.5q0 -8 5 -13t11.5 -8.5t11.5 -6.5t5 -6q0 -2 -0.5 -2.5t-2.5 -0.5h-1q-6 2 -15 5.5t-14 6.5t-7 6.5t-2.5 7.5t-0.5 8.5v9.5q0 21 2 41.5t2 41.5zM132 178v3.5t0.5 5.5t0.5 5.5v3.5q1 3 2 10.5t3 15.5t5 14.5t6 6.5q6 0 10.5 -3.5
t6.5 -8.5t3 -12t1 -13.5v-12.5t1 -10q0 -1 1 -2t2 -1q1 -1 2 0l2 2t1.5 2t0.5 2v24q0 3 2 8.5t4.5 11t5.5 9.5t6 4q1 0 3.5 -1.5t1.5 -3.5l-1 -2t-2 -3l-0.5 -0.5l-0.5 -0.5q-1 -2 -2 -3.5l-2 -3t-1.5 -2.5l-0.5 -1q-1 -1 -1.5 -3.5t-1.5 -5.5t-1.5 -5.5t-0.5 -3.5v-2.5
v-3.5t0.5 -4t0.5 -3q5 0 9.5 1.5t9.5 1.5h3.5t1.5 -2q0 -3 -5 -5.5t-11.5 -4.5t-11.5 -5t-5 -7q0 -3 3 -6l7 -7t7 -9t3 -11v-2.5t-2 -1.5h-1q-2 1 -3.5 4t-3 5.5t-3 4.5t-4.5 2h-1v0v-7q0 -3 -0.5 -6.5t-2 -6.5t-4.5 -6l-1 4v21l-0.5 1.5t-1.5 1.5v0q-3 0 -5 -1.5t-4 -3.5
l-4 -4t-4 -2v1v2q0 5 2 8t6 8q1 1 3 1.5t3 1t2 1.5t1 3q0 3 -1 5.5t-3 4.5t-4 3.5t-4 3.5h-0.5h-1.5q-3 0 -6.5 -1.5t-7.5 -3.5t-7 -4.5t-5 -4.5v-2v-2q0 -2 1 -3.5t3 -2.5l4 -2t3 -3q3 -6 4 -12t1 -13q-3 0 -4.5 2.5t-3 6t-3 6t-5.5 2.5v0l-3 -14l-3 -4l-2 2v18q0 2 -1 2.5
t-3 0.5h-1h-1q-3 -3 -6.5 -7t-7.5 -6q-1 0 -1.5 0.5t-0.5 1.5v0q0 6 3 9.5t6 6l6 5t3 4.5q0 6 -5 10.5t-11 8t-11 6.5t-5 4q0 2 2 2h3h2h1q1 0 2.5 -1t3.5 -2l4 -2t3 -1v0h1l2 1v9q0 5 -1 9.5t-3 8.5t-4.5 8t-5.5 9v4q7 0 11.5 -5t6.5 -11.5t3 -14.5t1.5 -15t2 -12t5.5 -5
q1 0 2 0.5t2 1.5zM142 184q3 0 6.5 1t3.5 5q0 1 -0.5 2.5t-0.5 3.5h3h2l1.5 -0.5l4.5 -1.5v26q0 1 -1 3.5t-2.5 5t-3 4.5t-2.5 2q-2 0 -2.5 -2t-1.5 -3q-3 -11 -5 -22.5t-2 -23.5zM122 121v1l4 3q3 -2 6.5 -4t7.5 -4.5t6.5 -6t2.5 -8.5v-25q0 -3 2.5 -6t4.5 -3q5 0 7 4t3 9
t0.5 10.5t-0.5 7.5q1 5 5 9t9.5 7.5t11 5.5t8.5 2q2 0 3 -0.5t1 -1.5q0 -2 -4.5 -4.5t-10 -6t-10 -7.5t-5.5 -8v-3v-4t0.5 -3.5t0.5 -2.5q4 0 7.5 1.5l7 3l7 3t7.5 1.5v-1v-2t-0.5 -2l-0.5 -1q0 -1 -3 -3t-8 -4t-10.5 -5t-10.5 -6.5t-8 -6.5t-3 -6v-3q6 -3 11 -6t8.5 -7
t6 -9t2.5 -13v-2t-2 -2l-1 0.5t-2 1.5q0 2 -2 6t-4.5 8.5t-5.5 7t-6 2.5t-3.5 -2.5t-1.5 -5.5q0 -1 -0.5 -3t-0.5 -4.5t-0.5 -5t-0.5 -3.5q-1 -2 -2 -2.5t-2 -0.5t-2 0.5t-1 1.5q0 5 0.5 9.5t0.5 9.5q0 4 -0.5 5t-3.5 1q-5 0 -8.5 -2t-6.5 -4.5t-5.5 -4.5t-5.5 -2q0 8 4 13
t9 7.5t9 5.5t4 7v2q0 2 -1 2q-3 5 -6.5 9t-7.5 7.5t-8 6.5t-7 8q0 1 1 1.5t2 0.5h0.5h0.5l16 -9h3q0 5 -0.5 9t-2 7.5t-3.5 6.5t-6 7l-1.5 0.5t-2.5 1t-2 1.5t-1 2z" />
</svg>
