<?xml version="1.0" standalone="no"?>
<!DOCTYPE svg PUBLIC "-//W3C//DTD SVG 1.1//EN" "http://www.w3.org/Graphics/SVG/1.1/DTD/svg11.dtd" >
<svg xmlns="http://www.w3.org/2000/svg" xmlns:xlink="http://www.w3.org/1999/xlink" version="1.1" viewBox="-10 0 266 256">
   <path fill="currentColor"
d="M122 122v10.5v16t0.5 16t0.5 10.5q1 9 2.5 16t5 13.5t8 12t9.5 11.5l4.5 4.5t4.5 5t4 4l2 1.5h13q1 0 1.5 -2.5l0.5 -2.5q0 -2 -5 -7l-11 -11t-11.5 -12t-8.5 -10q-3 -5 -4 -10.5t-1.5 -11l-1 -11t-2.5 -10.5v-28q0 -4 4.5 -5.5t10 -3t10 -4.5t5.5 -10l3 -35q1 -3 3.5 -4
t6 -1.5t8 -0.5h8t6 -1t2.5 -3v-3t-2 -2h-30v-28q0 -1 -2.5 -3.5t-4.5 -2.5l-1 0.5t-2 0.5q0 1 -0.5 1.5l-0.5 0.5v33l-2 2l-4 0.5t-9.5 1l-11 1t-8.5 0.5h-13h-8l-3 -2q-1 0 -1 -2v-3q0 -7 1 -13.5t1 -13.5v-2.5t-2 -1.5q-4 0 -5.5 3t-2 7t0 9.5t0 10t-1 7.5t-3.5 3h-24
q-3 0 -4 2t-1 4q0 5 4 5q6 0 11 -1.5t11 -1.5q4 0 5.5 1t1.5 5l4 30q0 3 2 5l4 4h5.5t6.5 0.5t6 2t5 3.5zM99 73l2 -2q2 0 8 -0.5t12.5 -1t12.5 -1t8 -1.5q1 0 3.5 -0.5l2.5 -0.5h3h3.5t0.5 3v9v8q0 5 -0.5 9t-2.5 8t-5 6q-1 0 -3.5 0.5t-5.5 1t-5 1t-3 0.5h-0.5h-0.5
q-3 0 -8.5 -1t-10 -3.5t-8 -6t-3.5 -7.5v-21z" />
</svg>
