<?xml version="1.0" standalone="no"?>
<!DOCTYPE svg PUBLIC "-//W3C//DTD SVG 1.1//EN" "http://www.w3.org/Graphics/SVG/1.1/DTD/svg11.dtd" >
<svg xmlns="http://www.w3.org/2000/svg" xmlns:xlink="http://www.w3.org/1999/xlink" version="1.1" viewBox="-10 0 266 256">
   <path fill="currentColor"
d="M81 180q0 8 0.5 16.5t1.5 16.5q0 1 0.5 2.5t1.5 3t1 3v1.5q1 1 1 4.5t0.5 7t0.5 6.5v4h2h1.5t1.5 -1v-4v-4q0 -16 -2 -31.5t-2 -31.5v-5t0.5 -9t0.5 -9v-6q0 -8 2.5 -16t5.5 -16t5.5 -16t2.5 -16q0 -2 -0.5 -6.5t-2 -9.5t-4 -8.5t-5.5 -3.5t-3 3v2l0.5 1l1 2l1 2l0.5 1
q2 4 2 8.5v9.5q0 10 -3.5 19t-6.5 19q-3 15 -4 30.5t-1 30.5zM158 163q0 12 1 20t3 15.5t6.5 15t10.5 15.5q2 3 5 5.5t6.5 5t7 4t5.5 1.5t2 -1v-2q0 -2 -3.5 -5t-7.5 -7t-8 -7t-5 -5q-5 -6 -8 -13.5t-4.5 -15.5t-2 -16t-0.5 -16v-13.5t2 -13.5q0 -1 1.5 -5.5l3 -9t3 -8.5
t2.5 -6q1 -3 3 -6.5t3.5 -6.5t3 -6.5t1.5 -7.5q0 -3 -2 -9t-5.5 -11.5t-7.5 -9.5t-7 -4q0 4 2 8t4.5 8.5t4 9t1.5 11.5v4l-1 2.5t-2.5 5t-2.5 5.5t-2 4q-3 6 -4 13t-5 13q-1 2 -1 6.5t-1 10t-1.5 10t-0.5 6.5v3v3zM51 177q0 16 2 31t6 29l1 0.5l1 0.5q2 0 2.5 -1.5t0.5 -3.5
q0 -14 -2.5 -27.5t-2.5 -28.5q0 -13 1 -26.5t6 -26.5q3 -9 7 -18.5t4 -19.5q0 -9 -3 -18t-12 -15q-3 0 -3 4v0.5v0.5q3 4 5 6.5t3 5.5t1.5 6t0.5 8t-1.5 10.5t-3.5 10.5t-3.5 10t-2.5 10q-3 13 -5 26t-2 26zM112 165q0 2 0.5 5t1 7t1 7.5t0.5 4.5t1 3.5t1.5 5t1.5 5l1 2.5
q0 2 1 6.5l2 9t2 8.5t3 4t3.5 -1.5t1.5 -2.5v-1q0 -1 -1 -3t-1.5 -4.5t-1.5 -4.5t-1 -3q-3 -11 -5.5 -23.5t-2.5 -24.5q0 -11 3 -21.5t7 -20t7.5 -19.5t3.5 -21q0 -2 -1.5 -6.5l-3 -9t-4.5 -8t-6 -3.5q0 6 2.5 10t2.5 7v27l-1 1l-10 28q-1 0 -2.5 5t-2.5 11.5t-2 12.5t-1 7z
M69 34l1 2h4.5t8.5 0.5t8 0.5h1h1h7.5t12 -0.5t12.5 -0.5h8q1 -1 2 -2.5t1 -2.5l-0.5 -1.5t-1.5 -1.5q0 -1 -0.5 -1.5l-0.5 -0.5l-10 4h-40h-3t-4.5 0.5t-4.5 1.5t-2 2z" />
</svg>
