<?xml version="1.0" standalone="no"?>
<!DOCTYPE svg PUBLIC "-//W3C//DTD SVG 1.1//EN" "http://www.w3.org/Graphics/SVG/1.1/DTD/svg11.dtd" >
<svg xmlns="http://www.w3.org/2000/svg" xmlns:xlink="http://www.w3.org/1999/xlink" version="1.1" viewBox="-10 0 266 256">
   <path fill="currentColor"
d="M152 164l1 1l2 2q2 5 4 9.5t3.5 9t2.5 8.5t3 9q1 3 3 8l4 10t3.5 9.5t1.5 5.5t0.5 3.5t1.5 5t2 4.5t3 2t4 -2.5t2 -4.5l-0.5 -1l-0.5 -1l-0.5 -1l-1 -2l-1 -2l-0.5 -1q-2 -8 -5.5 -16.5t-6.5 -16.5q-2 -6 -3.5 -12t-4 -12.5t-5.5 -12t-8 -9.5q-3 -3 -7.5 -3.5t-7.5 -0.5
q-12 0 -24 2t-24 2q-5 0 -9.5 -3.5t-4.5 -9.5q0 -3 4.5 -6t10.5 -4.5t12 -2.5t8 -1t7.5 -0.5t11.5 -1t11.5 -1t7.5 -0.5q5 -4 7.5 -10.5t2.5 -11.5q1 -6 -2 -8.5t-6.5 -4t-8 -1.5h-7.5q-10 0 -19 1t-19 1h-2h-4h-3.5h-1.5q-4 -1 -4.5 -3.5t-0.5 -4.5q0 -7 5 -10t13.5 -4.5
t17.5 -1.5t17 -0.5t13.5 -2t5.5 -5.5v-18q0 -1 -1.5 -3t-3 -3.5t-3.5 -2.5t-4 -1h-60q-3 0 -5 -3.5t-3.5 -8t-3 -8t-3.5 -2.5q-2 0 -2.5 1t-0.5 3v2q0 1 0.5 3.5t1 5.5t1 5.5t0.5 3.5l4.5 4.5t6.5 2.5h2h4h3h3q8 0 16 -1t17 -1q4 0 8.5 0.5t8 1.5t6 3.5t2.5 8.5q0 4 -5.5 6
t-14 2.5t-17.5 0.5q-10 0 -18.5 1t-14 3.5t-5.5 7.5v19q0 3 2.5 4.5t5.5 2l6 1t4 0.5q8 0 16.5 -2t16.5 -2q1 0 4.5 0.5t7.5 0.5t7.5 0.5t4.5 0.5q2 2 2 4.5v5.5v1.5v2.5l-3 3l-3 3l-48 4q-1 0 -2 0.5t-2 1.5q-6 2 -10.5 3t-7 3t-3.5 6t-1 11v4.5v4.5q2 6 6.5 7t9.5 1
q11 0 22 -1.5t22 -1.5h5h4.5t4.5 0.5t6 0.5z" />
</svg>
