<?xml version="1.0" standalone="no"?>
<!DOCTYPE svg PUBLIC "-//W3C//DTD SVG 1.1//EN" "http://www.w3.org/Graphics/SVG/1.1/DTD/svg11.dtd" >
<svg xmlns="http://www.w3.org/2000/svg" xmlns:xlink="http://www.w3.org/1999/xlink" version="1.1" viewBox="-10 0 266 256">
   <path fill="currentColor"
d="M171 236v3.5t0.5 5t2 4t3.5 1.5q4 0 6 -3t2 -7q0 -21 -1.5 -42.5t-1.5 -42.5q0 -11 -0.5 -21.5t1.5 -21.5q1 -5 4.5 -8t7.5 -6t7 -6.5t3 -9.5v-2v-1l-14 -18q-2 0 -3.5 -1.5t-2.5 -3.5t-2 -3.5t-4 -1.5l-1 0.5l-1 0.5l-4.5 4.5t-7.5 7t-7 7t-4 5.5q-1 0 -2 2t-2 2
q0 3 3.5 5.5t7.5 5.5t7.5 6.5t3.5 8.5q0 4 -2 7t-7 3q-3 0 -5.5 -1t-4.5 -1h-1q-1 0 -5.5 1.5t-5.5 1.5q-2 0 -3.5 -1t-1.5 -3q0 -9 0.5 -17.5t2 -15.5t5 -14t10.5 -13l2.5 -2.5l3 -3l2.5 -2.5l1 -1v-5l-27 -27h-6l-1.5 1t-4 3t-4.5 4t-4 3q-5 4 -9 9.5t-8 9.5q0 2 4.5 5
t9.5 6.5t9.5 8t4.5 9.5v33q0 1 -1.5 4t-1.5 4t-1 2t-1 2h-5t-8.5 0.5t-8 0.5h-5.5v0q-3 0 -4.5 -1.5t-1.5 -4.5q0 -4 3.5 -7.5l7 -7l7 -7t3.5 -8.5v-1.5v-0.5l-28 -29h-1q-1 0 -3.5 2t-6 5t-7.5 6.5t-7.5 7.5t-5.5 7t-2 5v3t1 2q9 5 14.5 7.5t8.5 5.5t3.5 8.5t0.5 15.5
q0 14 -1.5 27l-3 26t-2.5 26t-1 27v3v4v4v3q0 2 1.5 2h2.5q4 0 5 -1.5t2 -5.5q1 -5 1.5 -10t0.5 -10v-11q0 -5 1 -12q0 -1 0.5 -3.5l0.5 -2.5q1 -2 1 -6t0.5 -8.5t0.5 -8.5v-6q3 -4 8 -5l72 -5l3 3v7.5v9.5v10.5v6.5q0 1 0.5 4t1 7t1 7.5t0.5 4.5v1.5v1.5l2 1q0 5 -1.5 9.5
t-1.5 10.5zM88 146v-14l3 -3q0 -1 3.5 -1.5t8.5 -1l10 -1t8 -0.5h9.5t15.5 -0.5t15 -0.5h10v5t-1 6.5t-2 6t-4 2.5zM64 81q0 -1 2 -4t5 -6t5.5 -5t4.5 -2v0h1l13 12q2 1 2 3v4q0 3 -1.5 5.5t-3.5 4.5t-5 3t-5 1l-5 -2.5t-6 -4t-5 -5t-2 -4.5zM164 80q0 -2 1.5 -4.5t3.5 -4.5
t4.5 -3.5t5.5 -1.5q2 0 4.5 1.5t4.5 4.5t3.5 6t1.5 5v1v1q-3 3 -6 6.5t-8 3.5h-2l-2.5 -2.5t-3 -3.5t-3 -3.5t-2.5 -1.5q0 -1 -1 -2t-1 -2zM116 42v-0.5v-0.5q1 -2 3 -4.5l4 -5t4.5 -4t4.5 -1.5h3l1.5 1.5t3.5 3t3.5 3t2.5 1.5l2.5 2.5t0.5 2.5q0 3 -1.5 5t-3.5 4t-4.5 3.5
t-3.5 2.5h-1h-1q-2 0 -5.5 -1t-6 -3t-4.5 -4.5t-2 -4.5z" />
</svg>
