<?xml version="1.0" standalone="no"?>
<!DOCTYPE svg PUBLIC "-//W3C//DTD SVG 1.1//EN" "http://www.w3.org/Graphics/SVG/1.1/DTD/svg11.dtd" >
<svg xmlns="http://www.w3.org/2000/svg" xmlns:xlink="http://www.w3.org/1999/xlink" version="1.1" viewBox="-10 0 266 256">
   <path fill="currentColor"
d="M132 144q9 0 12 2.5t3.5 6.5t0 10t0.5 13l5.5 22t6.5 19t10 17t16 15q2 1 2.5 1.5t2.5 0.5t3 -0.5t1 -1.5q0 -3 -2 -5.5t-4.5 -4.5l-5 -4t-4.5 -4q0 -1 -1 -4l-1 -3q-5 -10 -9 -19.5t-6.5 -18.5t-4 -18.5t-1.5 -21.5q-1 -2 -2.5 -3l-3 -2t-2.5 -2.5t-1 -2.5q0 -2 2 -6
t4.5 -7.5t5 -6.5t4.5 -3l1 1l1.5 0.5t2.5 0.5t2.5 0.5l1.5 0.5q5 1 11.5 1.5t12.5 0.5h4q-1 -4 -4 -5.5t-7 -1.5h-9q-4 0 -7.5 -0.5t-6 -2t-2.5 -4.5v-3t1 -4t1.5 -4t1.5 -2h21l0.5 -0.5t0.5 -1.5v-1v0l-0.5 -0.5t-0.5 -1.5h-3.5h-5t-5 -0.5t-3.5 -0.5l-1.5 -0.5l-1.5 -0.5
v-26q1 0 4 -1t4 0q2 0 4.5 1.5l5 3t5 2.5t5.5 1q1 0 1.5 -0.5t0.5 -1.5v-2q-5 -3 -13.5 -7t-18.5 -7.5t-19.5 -5.5t-14.5 -3q1 -6 0 -13t-1 -12l-2 -2l-1 -1h-1h-1q-1 1 -1.5 2.5t-0.5 3v3v1.5q0 1 -0.5 3.5t-0.5 5.5t-0.5 5.5t-0.5 3.5t-1 2l-1 1q-8 4 -15 6.5t-14.5 5.5
t-14.5 6.5t-14 8.5q-1 0 -3.5 2.5t-2.5 5.5q4 0 7.5 -1.5t7 -3.5t7 -4.5t6.5 -3.5q12 -7 24.5 -11.5t25.5 -4.5q2 0 7 0.5t10 1.5t8.5 2.5t3.5 4.5v1q0 1 -0.5 4.5t-1 7.5t-1 7t-0.5 5q-1 2 -3 2.5t-4 0.5h-1q-1 0 -3 -0.5t-2 -1.5v-23l-0.5 -0.5l-0.5 -0.5h-1v0
q-1 5 -1.5 8.5l-1 7t-0.5 7.5v7v11q1 2 2 3.5l2 3l2 3t1 3.5q0 5 -2 10t-6 8t-8.5 5t-8.5 2q-2 0 -4.5 -3t-4.5 -7t-3.5 -7.5t-1.5 -5.5v0q5 -4 7.5 -8t3.5 -9t0.5 -10t-0.5 -11v-3v-4v-3v-2l-3 -6h-1l-0.5 1.5t-0.5 3t-0.5 3.5t-0.5 3v2.5v3.5v3.5v2.5q0 2 -2 2.5t-3.5 1
t-4.5 0.5h-3q-2 0 -2.5 -0.5t-1.5 -2.5q0 -1 -0.5 -3.5l-1 -5t-1.5 -5t-1 -3.5l-1 -1h-1h-1l-0.5 1t-0.5 2t0.5 3.5t1 5.5t1 5.5t0.5 3.5v1q0 3 -5.5 4t-11.5 1.5t-11 2t-5 6.5q4 0 8 -1t7.5 -2t7 -1.5t7.5 -0.5q2 0 3.5 0.5t2.5 1.5t1.5 3t0.5 5h0.5t0.5 1q0 3 -3.5 4.5
t-8 2.5t-10 1.5t-10.5 1.5t-8 2.5t-3 4.5h11t10 -1q5 -2 10.5 -4t10.5 -2q3 0 5 2.5t4 5.5t3 6.5t1 6.5v2l-7 7l-1 2.5t-1.5 6.5t-1.5 7.5t-2 6.5q-2 9 -3.5 18t-3.5 17t-6.5 16t-11.5 15q-2 1 -5 2t-5 3l-4 4t-2 5q9 0 16.5 -5t13 -12t9.5 -15t5 -16v-1v-2v-3v-1
q2 -8 4.5 -16t4.5 -17v-3t0.5 -4l1 -4t2.5 -3q3 -2 7.5 -2.5t9.5 -0.5zM104 96q0 -2 1 -3.5t3 -2l4 -1t3 -0.5v4.5t-1 4.5t-2.5 4t-3.5 2q-3 0 -3.5 -3t-0.5 -5zM147 94q0 -3 2 -4t4 -1h2h2q1 1 1 2.5v2.5q0 3 -1.5 5.5t-4.5 2.5q-2 0 -3.5 -3t-1.5 -5z" />
</svg>
