<?xml version="1.0" standalone="no"?>
<!DOCTYPE svg PUBLIC "-//W3C//DTD SVG 1.1//EN" "http://www.w3.org/Graphics/SVG/1.1/DTD/svg11.dtd" >
<svg xmlns="http://www.w3.org/2000/svg" xmlns:xlink="http://www.w3.org/1999/xlink" version="1.1" viewBox="-10 0 266 256">
   <path fill="currentColor"
d="M158 198q4 0 7 4t5.5 9.5t5 12t5.5 12.5t7 9.5t9 3.5t5 -5q0 -2 -4 -8t-9 -13l-10 -14t-7 -11q1 -1 4 -2t6.5 -2t6.5 -2.5t3 -2.5v-29q0 -2 -2.5 -4t-4.5 -2q-3 0 -3 1.5t-1 3t-3 3t-8 1.5h-6q-2 -1 -3 -3.5t-2 -5.5t-2.5 -5t-3.5 -2h-1l-0.5 1.5l-0.5 1.5v1q0 3 1 6t1 6
q0 2 -3 3.5t-6.5 1.5h-8t-8.5 0.5t-6.5 1.5t-2.5 4t3 3.5t5 0.5q6 0 12 -1t13 -1q4 0 6 3t2 7q0 2 -0.5 3.5t-2.5 2.5q-3 1 -9.5 1t-13.5 0.5t-12 2t-5 4.5t3 4t5 1h1.5h0.5q1 0 5.5 -1t9.5 -2t9 -2t6 -2h2zM55 227q0 4 4 4t6 -1.5t2.5 -4.5t0.5 -6v-6v-111q0 -5 3 -7.5
t8 -2.5q3 0 5.5 1.5t3.5 4t1.5 5.5t0.5 5t0.5 6t1 10t1 12.5t1 12.5t1 10t0.5 6v2v4v4v3q1 12 2.5 24t0.5 24q0 1 1.5 2l1.5 1q2 1 3 0t1.5 -2.5t0.5 -3v-1.5q0 -10 -0.5 -21.5t-1.5 -23t-1.5 -23t-1.5 -22.5q0 -6 0.5 -14.5t-1 -17t-6 -14t-13.5 -5.5q-7 0 -13.5 2t-10.5 8
v3v4v4v3q0 7 1 13.5t1 13.5q0 4 -1 7t-1 7q0 6 1 12t1 12q0 15 -2 29t-2 28zM165 177q0 -3 2.5 -4t5.5 -1h6h4q0 6 -2 10.5t-9 4.5q-5 0 -6 -3t-1 -7zM118 146l1 1h5q9 0 14.5 -2t8.5 -5t4 -6.5t1.5 -6.5t0.5 -5t1 -2t3 -0.5t5 -0.5t5 -0.5t3 -0.5h1h1q1 9 2.5 14.5t5 9
t9 4.5t14.5 1q3 0 5 -0.5t2 -3.5v-1v-1q-5 -1 -10.5 -1.5t-9.5 -2.5t-7 -5.5t-3 -10.5v-1v-2q4 0 7.5 -0.5t7 -2t5.5 -4t2 -6.5q0 -2 -0.5 -5.5t-1.5 -7t-3 -6t-5 -2.5h-43q-1 0 -3 1.5t-2 2.5q0 3 2 4t4 1q1 0 2.5 -0.5l1.5 -0.5h3t5 -0.5t5.5 -0.5h2.5h1h1q1 0 3.5 0.5
l5 1l5 1t3.5 0.5q2 1 2.5 2t0.5 3q0 5 -4.5 7.5t-10 3.5t-11.5 1.5t-10 0.5q-3 0 -6.5 -1.5t-7 -4t-6 -5.5t-2.5 -7v-19q0 -2 5 -4t11 -3.5t11.5 -2t7.5 -0.5h5h8h8h5q4 -1 6 -4.5t2 -6.5t-0.5 -6.5t-2 -7.5t-4 -6.5t-6.5 -2.5h-43q-3 0 -4 -3t-1 -6.5t-1 -6.5t-5 -3h-2
t-1 1q-1 1 -1 4v3q0 6 1 10t2.5 6t5.5 3.5t10 1.5q7 0 14 -1t14 -1q2 0 4.5 0.5t4.5 1t3 2t1 4.5q0 4 -1.5 6t-5.5 2q-10 2 -20.5 2t-19 2.5t-14 8.5t-5.5 19v10t3 10q1 1 3.5 3t5.5 4t4.5 4.5t1.5 3.5q0 10 -3.5 13t-7.5 4t-8.5 1.5t-6.5 5.5zM47 61q0 2 1 3t3 1
q4 0 8.5 -2l9 -4t9 -3.5t9.5 -1.5q4 0 7 1.5t5.5 3.5t6 4t7.5 2q3 0 3 -3q0 -1 -1.5 -3.5t-3.5 -3.5l-24 -11v-24q0 -1 -2 -2.5t-3 -2.5h-1h-1q-1 0 -2 1.5l-1 1.5v24q0 4 -5 5.5t-10.5 3t-10 3.5t-4.5 7z" />
</svg>
