<?xml version="1.0" standalone="no"?>
<!DOCTYPE svg PUBLIC "-//W3C//DTD SVG 1.1//EN" "http://www.w3.org/Graphics/SVG/1.1/DTD/svg11.dtd" >
<svg xmlns="http://www.w3.org/2000/svg" xmlns:xlink="http://www.w3.org/1999/xlink" version="1.1" viewBox="-10 0 266 256">
   <path fill="currentColor"
d="M115 171q0 5 0.5 13t2 17t3.5 18t5.5 16.5t9 11.5t11.5 4q0 -3 -1 -6t-3.5 -6t-4.5 -5.5t-4 -5.5q-2 -5 -4.5 -11t-3.5 -11v-6v-9v-9v-6q0 -12 1 -23.5t1 -23.5q0 -5 -2.5 -7t-6 -3t-7 -0.5t-7.5 0.5q-1 0 -3.5 -0.5t-5 0t-5 1.5t-3.5 2q1 2 3.5 3t3.5 1v21q0 18 -3 34
t-12 32q-2 2 -4 3.5t-3.5 4t-3 4.5t-1.5 5q0 1 1 1.5t2 0.5h2q13 -12 19 -23.5t8.5 -24t2.5 -27v-31.5h14q1 0 1.5 3t0.5 5q0 1 -0.5 4t-1 6.5t-1 6.5t-0.5 4t-0.5 3t-0.5 4v5v4zM141 247q2 0 2 2t-2 2q-1 0 -1 -2t1 -2zM186 180l0.5 0.5l0.5 0.5q2 9 3 15.5t2.5 12.5t4 12
t8.5 14l0.5 1t2 2t2.5 1.5l1 0.5q1 0 3 -1.5t3 -1.5q-3 -6 -6 -11t-5.5 -10t-4.5 -10.5t-3 -11.5v-6t-0.5 -8.5t-0.5 -8.5v-5q0 -17 2 -33.5t2 -33.5q0 -7 -2 -10.5t-5.5 -5.5t-7.5 -3.5t-7.5 -3t-6 -4.5t-2.5 -8q0 -4 2.5 -8t5.5 -8t5.5 -7t2.5 -6v-2t-2 -2l-1.5 0.5
t-2.5 0.5q-8 8 -14 17t-6 20q0 5 2.5 7.5t6 4t7.5 3t7.5 3.5t5.5 6t2 10q0 8 -1 15t-2 14.5t-1.5 15t-0.5 14.5v4v5v5v4zM40 232q0 3 4 3q3 0 7 -5.5t7.5 -12.5t6 -14.5l3.5 -10.5v-4.5t0.5 -5.5l1 -6t1.5 -5v-16q0 -12 -1 -24.5t-1 -24.5q0 -20 11 -29.5t30 -9.5
q13 0 13 13q0 5 -2.5 8t-6.5 5.5t-8.5 3.5t-8.5 1h-2q-1 0 -4 -0.5t-4 -1.5l-2 2q1 3 3.5 4.5t5 2t5.5 0.5h6q6 0 11.5 -2t9.5 -5.5t6.5 -8.5t2.5 -12t-3.5 -10t-8 -4.5t-8 -3.5t-4.5 -7q1 -2 4 -5l6 -6l6 -6l4 -4q2 -2 3.5 -3t2.5 -2t1 -2v-4q-6 0 -11 2.5t-8.5 7t-6.5 9.5
t-5.5 9.5t-5 7t-5.5 2.5q-1 0 -2 -3t-2.5 -8.5t-3.5 -11.5t-5.5 -11.5t-7.5 -9t-10 -3.5l-2 0.5t-2 1.5t0.5 2t0.5 2l8.5 8.5t8 9.5t6 10.5t2.5 11.5v1q0 1 -1 2t-1 2q-6 3 -10.5 6.5t-8 7.5t-5.5 9.5t-2 12.5q0 11 1 22.5t1 22.5q0 17 -1.5 33.5t-7.5 32.5q-1 3 -3 5.5
t-3.5 5.5t-3.5 5.5t-2 6.5zM141 211q0 1 1.5 1.5t2.5 0.5q2 0 5 -5.5t5.5 -13.5t5 -18t4.5 -19.5t3 -17t1 -10.5q0 -6 -1 -12.5t-5 -11.5v0v0h-1v0q-1 0 -2 1.5t-2 2.5q1 26 -2.5 49t-12.5 48q-1 1 -1.5 3z" />
</svg>
