<?xml version="1.0" standalone="no"?>
<!DOCTYPE svg PUBLIC "-//W3C//DTD SVG 1.1//EN" "http://www.w3.org/Graphics/SVG/1.1/DTD/svg11.dtd" >
<svg xmlns="http://www.w3.org/2000/svg" xmlns:xlink="http://www.w3.org/1999/xlink" version="1.1" viewBox="-10 0 266 256">
   <path fill="currentColor"
d="M88 248l1.5 1.5l1.5 1.5h1q2 0 3 -1.5t1 -3.5q0 -20 -1 -41t-1 -42q0 -27 1.5 -54t1.5 -54v-5q0 -4 -0.5 -8.5t-0.5 -8.5v-5t-0.5 -1.5t-1.5 -0.5l-1.5 -0.5t-3 -0.5t-3 -0.5t-2.5 -0.5h-15h-15q-3 0 -5 1.5t-2 4.5v1q0 1 0.5 1.5t1.5 0.5h13q0 42 -2.5 82.5t-5.5 81.5
q-1 10 -3 19.5t-2 19.5v3.5t1 3.5h2h3q3 0 4.5 -1t2.5 -4q-1 -25 1 -50t4.5 -49.5t4 -49t0.5 -49.5q0 -6 4 -6.5t8 -0.5h2h2l2 3v3v5v6v5v27.5t-4 27.5v11v17v17v11v15v17.5v15.5v8t0.5 5t0.5 8t0.5 7.5t0.5 5.5zM110 246v0v0q0 1 1.5 2t1.5 2h1q2 0 5 -2.5t3 -4.5l5 -42
q0 -1 3 -2.5t6.5 -2.5t7.5 -2.5t5 -4.5q1 -8 1.5 -13t0.5 -12v-1.5v-3t-0.5 -3t-2.5 -1.5v0q-1 0 -1.5 1l-0.5 1q-1 7 -2.5 16t-4.5 16q-1 0 -3 0.5l-2 0.5h-1q-1 0 -2.5 -2t-1.5 -3l0.5 -2.5l0.5 -2.5q1 -1 1 -3.5t0.5 -5t0.5 -4.5v-3q0 -7 -2.5 -12.5t-5.5 -9.5t-5.5 -7
t-2.5 -7q0 -3 1.5 -5t3.5 -3t4.5 -1.5t5.5 -0.5q6 0 10.5 2t4.5 9q0 5 -2.5 8t-6.5 6q1 2 3 2h3q3 0 5 -1.5t3 -4t1.5 -5.5t0.5 -6q0 -18 -19 -18q-5 0 -9.5 0.5t-8 3t-6 6t-2.5 8.5q0 4 2.5 7t5.5 5.5t5.5 5t2.5 6.5v31q0 2 -1.5 4t-3.5 2q-5 0 -7.5 -4.5t-3.5 -10
t-0.5 -11.5t0.5 -10l-0.5 -0.5l-0.5 -0.5h-1q-2 0 -2.5 1.5t-0.5 3.5v4v2v6.5v7t1 6.5t3 6q1 1 3 2.5t4.5 3t4 2.5t1.5 3q0 5 -1 11t-2.5 11.5t-3.5 11t-3 10.5v2zM177 245q0 2 0.5 3.5t3.5 1.5q5 0 6 -7l3 -42q7 -1 11 -4.5t6.5 -9t3 -11.5t0.5 -12v-4v-5q-1 0 -2 -1.5
t-2 -1.5h-1v0q-1 0 -1.5 0.5l-0.5 0.5v20q-2 2 -2.5 5t-1 5t-2 4t-5.5 2q-3 0 -4 -1.5t-1 -4.5q0 -4 0.5 -6l1.5 -6l-5 -23l-12 -12v-1.5v-2.5q0 -4 1.5 -5.5t3.5 -3t5.5 -1.5h6.5t4.5 2.5t1.5 5.5q0 2 -1 4t-1.5 3.5t-1.5 3.5t-1 5q6 0 9.5 -4.5t3.5 -11.5q0 -8 -5 -11.5
t-13 -3.5q-4 0 -8 0.5t-7 2.5t-5 5.5t-2 8.5t2 7.5t4 4t4.5 3t3.5 3.5q2 4 2.5 7l1 6t0.5 6v6v10l-2 4t-3 2q-1 0 -1.5 -0.5l-0.5 -0.5q-2 -1 -4.5 -3.5t-2.5 -3.5l-3 -24h-5v4.5t0.5 7.5t0.5 7.5v4.5q1 6 4 9t7 5t7 3l3 1q0 11 -2.5 22t-2.5 22zM147 96q0 1 0.5 2t1.5 1
q2 -1 3 -3.5l2 -5t1.5 -4.5t2.5 -2q8 -1 16 -3t14.5 -6.5t10 -11.5t3.5 -17v-4q0 -1 -1.5 -1.5l-1.5 -0.5h-1q-3 0 -4.5 5.5t-4.5 12t-9 12t-18 5.5h-2h-2q-1 -9 -3.5 -15t-5.5 -11t-5.5 -9.5t-2.5 -9.5q0 -3 1.5 -4.5t4.5 -2t5.5 -1t4.5 -0.5q11 0 11 12q0 4 -2 6.5t-4 4
t-4 2.5t-2 3t2.5 2h3.5q3 0 6 -1t5.5 -3.5t3.5 -5.5t1 -6q0 -10 -5 -17t-15 -7q-4 0 -8.5 1t-9 3t-7.5 5t-3 8q0 6 3 11t6.5 10t6.5 10t3 12h-9t-8 -1t-7 -3.5t-6 -8.5q-1 -1 -1.5 -3.5t-1 -5.5t-2 -5t-3.5 -2q-1 0 -2 1.5t-1 2.5q0 4 2.5 9t4.5 8q3 6 8.5 9t11.5 5.5
t10.5 4t4.5 3.5q0 3 -1.5 5t-1.5 5z" />
</svg>
