<?xml version="1.0" standalone="no"?>
<!DOCTYPE svg PUBLIC "-//W3C//DTD SVG 1.1//EN" "http://www.w3.org/Graphics/SVG/1.1/DTD/svg11.dtd" >
<svg xmlns="http://www.w3.org/2000/svg" xmlns:xlink="http://www.w3.org/1999/xlink" version="1.1" viewBox="-10 0 266 256">
   <path fill="currentColor"
d="M77 195v49q0 2 1 4.5t3 2.5q3 0 4 -2.5t1.5 -5.5t0.5 -6v-4q0 -18 -2 -36t-2 -36q0 -29 2 -58t2 -58q0 -5 -5 -7.5t-11 -4t-12.5 -2t-9.5 -0.5q-2 0 -3.5 0.5t-1.5 3.5q0 2 1.5 3t3.5 2t4 2.5t2 4.5q0 21 -1 43t-2 43q0 1 -1 4t-1 4l1 40v6l1 54q0 1 0.5 1.5l0.5 0.5h1
q1 0 4 -2t3 -3v-62l2 -2l-2 -1v-4.5t-0.5 -11t-0.5 -13v-11.5v-2v-1v-3t0.5 -4.5t0.5 -4.5v-2v-6v-9v-12v-11v-9v-6q0 -1 0.5 -3.5t0.5 -5t0.5 -5t0.5 -3.5q1 -2 3 -2h4q3 0 6 1.5t3 4.5q0 16 -1.5 32t-1.5 32q0 6 0.5 12.5t0.5 13.5q0 12 -0.5 24t-0.5 25v1q0 1 0.5 3z
M93 237q0 4 3 4t6 -3.5t6.5 -8.5t7 -11.5t6 -11.5t5 -9t3.5 -4q4 0 6 3.5t4 8.5t4 11t4.5 11t5.5 8t7 3q1 0 3 -0.5t2 -2.5q0 -3 -4.5 -11t-10.5 -16.5t-11.5 -16.5t-6.5 -12q0 -18 -0.5 -37t-1.5 -37q0 -5 -0.5 -7.5t-5.5 -2.5q-3 0 -3 4q0 19 1.5 37.5t1.5 37.5
q0 6 -2 12.5t-5.5 13t-7.5 12t-7 10.5q-3 3 -6.5 7.5t-3.5 7.5zM174 208q0 2 1 2.5t3 0.5q4 0 8.5 -5.5t8 -14t7 -19t5.5 -20t3.5 -17t1.5 -10.5v-9q-2 -6 -6.5 -10t-9.5 -7.5t-8.5 -7.5t-3.5 -10q0 -5 3.5 -9.5t8 -9t8 -8.5t3.5 -7t-1 -4t-3 -1q-1 0 -2 0.5t-2 0.5
q-2 3 -6.5 7.5t-8 10t-6 11t-2.5 10.5t3 9t6 9v1q0 7 -3 15t-7 16t-7.5 16t-3.5 15q0 1 0.5 2t1.5 1q3 0 5.5 -4t5 -10t5 -13.5l4.5 -13.5t4.5 -10t5.5 -4q2 0 3.5 2t2.5 4.5t1.5 5.5t0.5 5q0 8 -3 18t-7 20t-9 20t-9 17q-2 2 -2 2.5v2.5zM142 119q0 3 0.5 8.5t1 13t1.5 15
t2 14t2 10.5t2 4q3 0 3.5 -2t0.5 -4v-2v-2q0 -2 -0.5 -7t-1 -11t-1.5 -12.5t-1.5 -12.5t-1 -11t-0.5 -8q-1 0 -1.5 -0.5l-0.5 -0.5h-1q-2 0 -3 3t-1 5zM103 158q0 6 -2.5 11.5t-2.5 12.5q4 0 6.5 -4t3.5 -9t1 -10v-7v-2v-1q0 -2 -0.5 -6.5t-0.5 -10t-0.5 -10t-0.5 -6.5
q0 -1 -1 -2l-1.5 -1.5t-2 0.5l-1.5 1v11q0 8 1 16.5t1 16.5zM127 76q3 0 5 1t3.5 3t2.5 4.5t3 4.5q1 1 3 3.5t4 4.5t3.5 3l1.5 1h7v-4q-3 -3 -8 -7t-9.5 -9t-8 -10t-3.5 -9q0 -6 1 -11.5t1 -11.5v-6t-0.5 -8.5t-1 -8t-1.5 -4.5q-1 0 -2.5 0.5t-2.5 1.5q-1 0 -1.5 0.5
t-0.5 1.5v50q0 1 -0.5 2t-0.5 2q-1 1 -3 3.5l-2 2.5q-1 1 -2.5 2t-3 2.5l-2.5 2.5t-2 1h-1l-11 11q-1 0 -1 1q0 2 2 2h3q3 0 4.5 -1.5t5.5 -4.5q1 -1 3 -3.5t4.5 -4.5t5 -4.5l3.5 -3.5h2zM101 67q0 2 0.5 3t1.5 1h1q4 -2 5.5 -6.5t1.5 -9.5v-9.5v-7.5t-1.5 -5t-4.5 -2
l-0.5 0.5l-0.5 0.5l-0.5 0.5l-0.5 0.5v25q-1 1 -1.5 3.5t-0.5 3.5v2zM143 27v3.5t0.5 5t0.5 5v3.5v6t1 8t2 7.5t3 4.5q3 0 4 -2.5t1 -4.5l-5 -31q0 -3 -2 -4t-5 -1z" />
</svg>
