<?xml version="1.0" standalone="no"?>
<!DOCTYPE svg PUBLIC "-//W3C//DTD SVG 1.1//EN" "http://www.w3.org/Graphics/SVG/1.1/DTD/svg11.dtd" >
<svg xmlns="http://www.w3.org/2000/svg" xmlns:xlink="http://www.w3.org/1999/xlink" version="1.1" viewBox="-10 0 266 256">
   <path fill="currentColor"
d="M79 249q0 2 1.5 2h2.5q3 0 4.5 -1.5t2 -4.5t0.5 -6v-5q0 -9 -0.5 -20t-4.5 -20v-90q2 -5 2.5 -11.5t1 -14t0 -15t0.5 -13.5v-8q0 -7 -3 -11t-7 -5.5t-9.5 -1.5h-10.5h-15q-2 1 -3.5 2t-1.5 3v2q1 1 1.5 2.5l0.5 1.5h13l2 3v3v5q0 11 -1 23t-3 24q-1 15 -1 31v32
q-1 19 -2.5 38.5t-1.5 39.5q0 3 1.5 6t5.5 3q2 0 3.5 -1t3.5 -4q-1 -50 1 -99.5t5 -99.5q1 -2 2.5 -2.5t3.5 -0.5h2.5t1.5 2q0 1 0.5 3.5t0.5 5.5t0.5 5.5t0.5 3.5v1v1q0 28 -2 55t-2 54q0 20 1 41t3 41zM111 224q3 2 4.5 5.5t3 7.5t4 7.5t6.5 3.5q3 0 5 -3t2 -6l-0.5 -1.5
t-1.5 -1.5l-1 -1.5l-2 -3t-2 -2.5l-1 -1q-4 -6 -7 -13t-5 -14t-3.5 -14.5t-1.5 -13.5q0 -9 4 -15.5t8.5 -13t8.5 -13.5t4 -15v-5q-1 -1 -2.5 -3t-4 -4t-4 -4t-2.5 -2q-2 -2 -3 -2.5l-2 -1t-1.5 -1.5t-0.5 -3v-8.5t0.5 -9t2.5 -7t7 -2.5q4 0 5 4.5t1.5 9.5t1.5 9.5t6 4.5
q4 0 4 -5v-1v-1l-0.5 -2.5l-1 -5t-1 -4.5t-0.5 -3q-2 -11 -2 -21v-22l-1.5 -1l-1.5 -1h-1q-4 0 -5 3.5t-1.5 8.5t-0.5 9.5v7.5q-1 0 -4 0.5t-4 0.5h-2v-36q0 -4 -2 -5.5t-5 -1.5q-2 0 -3.5 0.5t-2.5 2.5q3 9 5 17.5t2 16.5q0 5 -2.5 6t-5.5 1t-6 0.5t-5 3.5q0 1 0.5 2.5
t1.5 1.5q3 0 5.5 0.5t4.5 1t3.5 2.5t1.5 6q0 13 -5.5 25.5t-12.5 23.5v7q4 0 7 -4t5 -8.5t4.5 -8.5t4.5 -4q6 0 9 4t3 9q0 4 -1.5 8.5t-4.5 8t-5.5 7t-5.5 7.5q-4 6 -4.5 13t-0.5 14t1 13t2.5 12t2.5 12zM134 201q0 3 3 4.5t5 1.5t6 0.5t8 0.5h8h5h22q11 0 22 -2
q3 -1 3 -1.5v-2.5q0 -3 -1 -5t-4 -3h-23q-1 0 -3.5 -0.5l-2.5 -0.5v-4.5v-4.5q0 -7 1.5 -10.5t3.5 -5.5t4.5 -2h5t4 -1t1.5 -4q0 -4 -3 -5t-7 -0.5t-7 0t-3 -2.5v-15l1 -2q3 0 6.5 0.5t6 0t4.5 -2.5t2 -5q0 -1 -0.5 -2l-0.5 -1l-16 -4q-1 0 -2 -1.5t-1 -3.5v-3v-3
q0 -6 1 -9.5t3 -5t4.5 -2t5 -1.5t4 -2.5t1.5 -6.5v-3q0 -3 0.5 -5.5t0.5 -5.5v-3v-5t-0.5 -5.5t-0.5 -4.5v-2v-3.5t-1 -5.5t-2.5 -5t-2.5 -2q-4 0 -4.5 2.5t-0.5 5.5q0 6 1 12t1 12v9t-0.5 5t-2.5 3t-7 1v-66l-0.5 -1t-1.5 -1q-1 -1 -2.5 -1.5t-2.5 -0.5l-1 2q-1 1 -2.5 3
l-1.5 2v1q0 11 2 22t2 22v6q0 3 -0.5 6.5t-2 5.5t-3.5 2q-3 0 -5 -3t-2.5 -6.5t-0.5 -7.5v-5v-28q0 -2 -1.5 -4.5t-3.5 -2.5h-1v1q-1 0 -2 0.5l-1 0.5v7q0 14 1 26t3 25q1 2 4 3.5t5.5 2t5 1.5t2.5 2v26l-3 3h-22q-2 0 -2.5 1.5t-0.5 2.5t0.5 3t2.5 2h22l1 2v2v4
q0 4 0.5 6.5t-1.5 5.5l-1.5 1.5l-0.5 0.5h-18q-2 0 -3.5 1.5t-1.5 3.5q0 3 3 3.5t5 1.5h3h4h5h3q3 1 3 4.5v6.5v7t-1 8q-2 1 -8 1t-12 0.5t-10.5 1.5t-4.5 4z" />
</svg>
