<?xml version="1.0" standalone="no"?>
<!DOCTYPE svg PUBLIC "-//W3C//DTD SVG 1.1//EN" "http://www.w3.org/Graphics/SVG/1.1/DTD/svg11.dtd" >
<svg xmlns="http://www.w3.org/2000/svg" xmlns:xlink="http://www.w3.org/1999/xlink" version="1.1" viewBox="-10 0 266 256">
   <path fill="currentColor"
d="M49 237v11q4 0 8 -5t7.5 -12.5t7 -17t6 -18t4.5 -16t3 -11.5v-2t0.5 -4t0.5 -3.5t1 -2.5q0 -1 1 -2l1 -1l2 2l1 2.5t2.5 6t2.5 7t2 5.5q0 2 1 6t2 8.5t1.5 9t1.5 5.5q0 2 1.5 7.5t3 11.5t4 10.5t5.5 4.5q1 0 2.5 -0.5t1.5 -1.5v-3.5v-3.5v-3.5v-3.5l-1 -2.5t-2 -5.5
t-2 -5.5t-1 -3.5q-3 -11 -7 -23t-7 -23q-3 -15 -4.5 -32t-1.5 -31q0 -12 0.5 -24t1.5 -24q0 -4 1.5 -7.5t1.5 -6.5q0 -4 -2 -8.5t-7 -4.5q-1 0 -2.5 1t-2.5 2v5v6v7v4q0 4 -0.5 10.5t-1 15t-1 17.5t-1 17.5t-1 15.5t-0.5 10q-3 4 -5 11t-3.5 14t-3 14.5l-2.5 12.5l-1 1z
M197 244q1 0 2 0.5l1 0.5h0.5h0.5q4 0 5.5 -2t1.5 -6v-2v-2q-7 -16 -13 -32t-10.5 -32.5t-7 -33.5t-2.5 -35q0 -19 2 -37.5t2 -37.5q0 -4 -2 -5t-5 -1h-5t-2 3q0 24 -0.5 49t-2.5 48q-1 2 -2 7.5l-2 11t-1 10.5v8q-2 12 -4.5 22t-5 18.5t-6.5 18t-8 20.5q-1 0 -1 1v1
q0 2 0.5 4t3 2.5t5 -2t4.5 -7t4 -10t3.5 -11t2.5 -9.5l1.5 -6t2 -6.5t2.5 -10t2 -10.5t2 -7q0 -1 1.5 -2.5t2.5 -1.5q2 0 2 1q1 11 4 21.5t6.5 20.5t8 20t7.5 21z" />
</svg>
