<?xml version="1.0" standalone="no"?>
<!DOCTYPE svg PUBLIC "-//W3C//DTD SVG 1.1//EN" "http://www.w3.org/Graphics/SVG/1.1/DTD/svg11.dtd" >
<svg xmlns="http://www.w3.org/2000/svg" xmlns:xlink="http://www.w3.org/1999/xlink" version="1.1" viewBox="-10 0 266 256">
   <path fill="currentColor"
d="M36 245q0 3 3 3q2 0 4 -2t3.5 -4.5t2.5 -5t2 -3.5q1 -3 3.5 -7.5t4.5 -9t3.5 -8t1.5 -4.5q2 -5 3.5 -12.5l3 -15t2.5 -15t1 -12.5q0 -2 0.5 -7t0.5 -10.5t0.5 -9.5t2.5 -5q0 -2 0.5 -8t1 -13t1 -13t0.5 -8v-1q0 -7 -1 -13.5t-1 -13.5v-13q4 -5 10.5 -7t14.5 -3t15.5 -0.5
t12.5 0.5h11.5h13.5t14 1t12.5 3.5t9 7.5t3.5 12v8.5t-0.5 12.5t-0.5 15t-0.5 15t-0.5 13t-1 8v5v5.5v8v8.5v5q0 11 1 22t3 22.5t6 22t9 19.5q3 3 5 3q3 0 3.5 -1.5t0.5 -3.5q0 -3 -2 -7.5t-4.5 -9.5t-4.5 -9.5t-3 -8.5q-3 -20 -4 -39.5t-1 -40.5q0 -18 1.5 -36t1.5 -37
q0 -13 -5 -19t-12.5 -8.5t-17 -2.5h-19.5q-1 0 -5 -0.5t-8.5 -0.5t-8.5 -0.5t-5 -0.5h-4h-6q-10 0 -21 2t-22 3q-3 2 -5 5.5t-2 6.5q0 7 1.5 13.5t1.5 13.5l0.5 4t0.5 10v10.5v8.5v7v10q0 6 -0.5 10.5t-0.5 6.5q-1 19 -4 38t-7 37q0 1 -0.5 2t-1.5 2q0 1 -1 3t-1.5 3.5
t-1.5 3t-1 2.5l-3 6t-4.5 8.5t-4 8t-1.5 4.5zM85 209q0 4 2.5 5t6.5 1.5t7.5 0.5h6.5l2.5 0.5t5.5 0.5t5.5 0.5l2.5 0.5h15h5t9 0.5t9 0.5h5h2.5t3.5 -0.5t3.5 -1t2.5 -1.5v-1v-1q0 -1 -2 -1q-4 0 -11 -0.5t-13 -1.5t-11 -4.5t-5 -10.5q0 -1 0.5 -2.5l1 -3t1 -2.5t1.5 -1h32
l0.5 -1t0.5 -2v-0.5v-0.5v-0.5v-0.5l-2 -0.5t-3 -0.5q-1 -1 -5 -1t-8 -1t-8 -1t-5 -1q-4 -1 -4 -3.5v-6t-0.5 -6t-5.5 -2.5v0q-1 0 -2 0.5t-1 1.5v13l-4 3q-17 -1 -32 2v3q0 1 3.5 1.5t5.5 0.5h1h2q2 0 5.5 0.5t6.5 0.5t5.5 0.5l2.5 0.5l3 3v5v3v5.5t-1 4.5t-2 2h-41z
M103 152q9 0 18.5 1t18.5 1q6 0 12.5 -1t11.5 -3t8.5 -6.5t3.5 -11.5q0 -11 -3 -16.5t-9 -7.5t-13.5 -2.5t-16.5 -0.5h-9t-8.5 0.5l-9 1t-9.5 1.5q-3 1 -4 4t-1.5 6t-0.5 6v5q0 6 2.5 12.5t8.5 10.5zM132 145q0 -3 1.5 -4.5t4 -3t5 -2t4.5 -0.5q4 0 6.5 1t5.5 4v1
q0 2 -2 3.5t-5 2t-5.5 0.5h-3.5h-2.5h-3.5t-3.5 -0.5t-1.5 -1.5zM108 142q0 -3 1.5 -5.5t4.5 -4l6 -3t5 -1.5h2q2 0 3.5 0.5t2.5 1t1 1.5v0.5v0.5q-4 5 -8 8.5t-11 3.5h-3h-3l-0.5 -1zM100 118q5 0 8 1.5t6 5.5l-10 11h-1v0q-1 -1 -1.5 -2.5l-0.5 -1.5v-3t-0.5 -4t-0.5 -4
v-3zM156 127q0 -5 1.5 -7t6.5 -2q3 0 3.5 3.5t0.5 6.5q0 1 -0.5 3.5t-2.5 2.5q-5 0 -7 -1.5t-2 -5.5zM131 119v0q4 -5 7 -6.5t7 -1.5h2t2.5 0.5t2.5 1t1 1.5q0 2 -1 4t-2.5 3.5t-3.5 2.5t-3 1h-3.5t-4.5 -1t-3 -2t-1 -3zM154 86l5 2q6 3 9.5 7.5t6.5 9.5t5.5 10.5t5.5 9.5
v-1v-1q0 -6 -2 -12.5t-5.5 -12t-8 -10t-9.5 -6.5q-3 -2 -8 -2.5t-11.5 -1t-12.5 -0.5t-11.5 -0.5t-8.5 -2t-3 -4.5q0 -4 3.5 -5.5t6.5 -2.5q7 1 14.5 1t15.5 -0.5t15.5 -1t14.5 -2.5q2 -2 2.5 -4t0.5 -5q0 -5 -2 -7.5t-5.5 -4t-7.5 -2.5t-7 -3h-11q-6 0 -11.5 1t-11 1.5
l-11 1t-11.5 0.5q-1 0 -1.5 0.5t-0.5 1.5v1v0q3 0 10.5 0.5t15.5 0.5t15.5 0.5t10.5 0.5t5.5 0.5l5 1t4.5 2.5t2 6q0 3 -1.5 3h-5.5q-2 1 -5.5 1t-7.5 0.5t-7.5 0.5h-4.5t-3.5 -1t-3.5 -1h-2.5h-3.5h-8t-8 1.5t-7 4t-4 6.5q-1 3 0.5 6t4 5.5t5 4.5t5.5 2h43zM114 114
q0 -3 1.5 -3.5t3.5 -0.5h4.5t2.5 2q0 3 -1.5 4t-3.5 1t-4.5 -0.5t-2.5 -2.5z" />
</svg>
