<?xml version="1.0" standalone="no"?>
<!DOCTYPE svg PUBLIC "-//W3C//DTD SVG 1.1//EN" "http://www.w3.org/Graphics/SVG/1.1/DTD/svg11.dtd" >
<svg xmlns="http://www.w3.org/2000/svg" xmlns:xlink="http://www.w3.org/1999/xlink" version="1.1" viewBox="-10 0 266 256">
   <path fill="currentColor"
d="M63 187v0q4 14 6 27.5t4 27.5q1 4 3 6.5t6 2.5q3 0 4.5 -1t1.5 -4v-2q-1 -1 -2 -4t-2 -7t-2 -7t-1 -4q-4 -12 -6.5 -24.5t-2.5 -24.5q0 -13 2 -26t5 -26q1 -4 2.5 -8t3.5 -8t3 -7.5t1 -7.5v-2v-3.5t-0.5 -5.5t-0.5 -6v-4v-1v0v-3t0.5 -4.5t0.5 -4.5v-2v-1q0 -3 -1.5 -10
t-4.5 -14t-7 -12.5t-9 -5.5q-3 0 -4.5 2t-1.5 4q0 4 2.5 7t5.5 6.5t5.5 7t2.5 7.5v52q0 2 -0.5 3.5t-1.5 3l-2 3t-1 3.5q-1 1 -1.5 4t-1 6.5t-1.5 7t-1 5.5q-3 13 -3.5 27t-0.5 27zM178 246q0 2 2 2.5t4 0.5q4 0 6.5 -3.5t4 -9t2.5 -12.5t2 -13t2 -11.5t3 -8.5q1 -2 2 -7.5
t2 -12t1.5 -12t1.5 -8.5l1 -2t1 -3v-3v-4q0 -10 -4.5 -17t-9.5 -13t-9.5 -12.5t-4.5 -16.5v-2v-2q2 -4 5 -10.5t5.5 -13t4.5 -13t2 -12.5v-3t-3 -1t-6 4t-6 10.5t-5 14t-3.5 15t-2.5 13.5t-1 9t1.5 5.5l3 5l3 5t1.5 5.5q0 2 -1.5 9.5t-4 18t-5.5 22.5t-6 22t-5.5 17t-3.5 7
l-4 -3v-3t-0.5 -7t-0.5 -8v-6q-1 -9 -0.5 -18t0.5 -17t-1 -16.5t-3 -17.5q-2 -3 -5.5 -4t-7.5 -1q-11 0 -17 3t-9 8t-4 13t-1 17v5v9v10v11v8v5q0 2 -0.5 8.5t-1 13.5t-0.5 13v8q-1 3 0.5 3h3.5q4 0 5.5 -3.5t1.5 -8.5v-10t1 -8v-57l3 -5q1 0 4.5 -0.5t8.5 -0.5t8 -1h1h1
q0 1 0.5 1.5l0.5 0.5l2 14v77q0 1 2 1h2q4 0 5 -2.5t1.5 -7t0 -8.5t-0.5 -6h4h4t4 -1t2 -4q1 -2 2.5 -8t3.5 -12.5t3.5 -12t2.5 -8.5q1 -2 2 -6.5t2 -10.5t2.5 -12t2.5 -11t3 -8t3 -3h1q1 1 2 3.5t2 4.5l1 2v13q0 24 -6 47t-13 46q-2 2 -3 5t-1 6zM41 190v5v6.5v5.5v3l0.5 3
t1.5 6.5l2 7t1 5.5q1 5 6 5q3 0 4.5 -2t1.5 -5q0 -7 -2 -15.5t-5 -14.5v-49q1 0 1.5 -2t0.5 -3t1 -5t2 -9t2 -9t2 -6v-1q0 -2 -2 -2h-3q-4 0 -5 1.5t-2 5.5t-2 9.5t-2.5 11.5t-2 12t-0.5 11v4v7v8v6zM91 222l0.5 0.5l0.5 0.5q0 1 1 1v0q3 0 4 -2.5t1 -4.5q0 -6 -2 -11.5
t-4 -11.5v-18q0 -15 3 -30.5t3 -31.5q-3 0 -5 4t-3.5 10.5t-2.5 14t-1 14.5v14v9v11t1 9.5t2 10t2 11.5zM118 140v-21q0 -2 2 -3t4.5 -1.5t4.5 -0.5h4h6q3 3 3 8.5v10.5v1v3v2t-1 1h-23zM94 39q0 4 1.5 8t2.5 9v7.5v11.5v11v8q5 0 7 -3.5t2.5 -8.5t-0.5 -10t-1 -8v-15v-4
t-1 -4.5t-2 -4t-4 -1.5q-2 0 -3.5 1t-1.5 3zM115 87l1.5 3l1.5 3l1.5 0.5l1.5 0.5q2 0 4 -0.5t2 -2.5v-1q-1 -1 -2 -4.5t-1 -4.5t-0.5 -3t-0.5 -4v-5v-3q0 -9 1 -17.5t1 -17.5q0 -7 -2.5 -10.5t-9.5 -3.5q0 7 1.5 12.5t1.5 11.5q0 8 -0.5 16t-0.5 17v13zM57 68q0 4 -1 6.5
t-1.5 5.5t-1.5 6t-1 6q6 0 8.5 -2t4 -6t2 -8.5t0.5 -8.5v-5v-5q-2 -2 -3 -6t-2.5 -8t-4 -7t-6.5 -3q-3 0 -4 1.5t-1 3.5t1.5 5l3.5 7t4 8.5t2 9.5zM132 73v6q0 3 0.5 6t2 5t5.5 2q2 0 3 -1t1 -3q0 -4 -2 -8.5t-2 -9.5q0 -10 2 -20t2 -20q0 -2 -0.5 -4t-1 -4.5t-2.5 -4
t-4 -1.5q-3 0 -3.5 1.5t-0.5 3.5q0 6 1 11.5t1 10.5q0 8 -1 15.5t-1 14.5zM151 69v8t0.5 7.5t2.5 6t7 2.5q0 -7 -1 -13.5t-1 -13.5v-4v-3q1 -2 1.5 -6t1.5 -8.5t1.5 -9t1.5 -5.5q-1 -2 -1.5 -4.5t-1.5 -4.5t-2.5 -3.5t-4.5 -1.5h-1l-1 2q0 14 -1 26t-1 25z" />
</svg>
