<?xml version="1.0" standalone="no"?>
<!DOCTYPE svg PUBLIC "-//W3C//DTD SVG 1.1//EN" "http://www.w3.org/Graphics/SVG/1.1/DTD/svg11.dtd" >
<svg xmlns="http://www.w3.org/2000/svg" xmlns:xlink="http://www.w3.org/1999/xlink" version="1.1" viewBox="-10 0 266 256">
   <path fill="currentColor"
d="M61 134v4q0 2 0.5 5.5t0.5 7t0.5 6.5t0.5 4q3 17 7 31t12 23.5t20.5 15t32.5 5.5q14 0 25 -5.5t19 -15t12.5 -21.5t5.5 -25q0 -1 -0.5 -4t-0.5 -6q0 -4 0.5 -7t1.5 -5v-54q0 -1 -0.5 -3t-0.5 -3l-0.5 -3.5t-1 -6.5l-1 -6t-1.5 -4q-3 -12 -8 -20.5t-13 -13.5t-18 -7
t-21 -2h-2h-4h-4h-2q-16 5 -26.5 10.5t-16.5 12.5t-9 16t-4.5 19t-2 22t-1.5 26v4zM92 208q0 -3 1 -4.5t3 -3l4 -3t3 -2.5q5 -6 6.5 -14t1.5 -15q0 -4 -0.5 -7t-1.5 -7h-1h-1l-2 2v4t-0.5 6t-0.5 6t-1 4q0 3 -1.5 7t-4 8.5t-5.5 7.5t-6 3t-5.5 -6t-4.5 -13.5t-3.5 -14.5
t-1.5 -9q0 -3 3 -4.5t6.5 -3t7.5 -2.5t5 -2q3 -1 5.5 -4.5t5 -7.5l5 -8t3.5 -6v-0.5v-0.5v-3.5t-1 -5t-1.5 -5t-1.5 -2.5t-3 6.5t-5.5 14.5t-9 14.5t-14.5 6.5q-4 0 -4.5 -2.5t-0.5 -6.5t1 -7t1 -7t-1 -6.5t-1 -6.5t3 -6t7.5 -3t10 -2.5t10 -5t7.5 -9t3 -15.5v-4.5v-5
t-1.5 -4.5t-3.5 -2l-1 0.5l-1 0.5q0 6 -1 13.5t-3.5 13.5t-8 10t-13.5 4q-3 0 -4.5 -0.5t-1.5 -3.5v-1v-1q3 -13 6 -21.5t8.5 -14.5t13.5 -10.5t20 -9.5h2h3h4h2q12 0 21.5 3t16.5 9.5t11 15.5t4 22v4t-3 2q-13 0 -20.5 -4.5t-12.5 -15.5q-1 -2 -2.5 -5.5t-2.5 -6l-1 -2.5
h-2q0 1 -0.5 2.5l-1 3t-0.5 3v1.5q3 10 7 16t10 9.5t13 5.5t16 2q2 0 2.5 3.5t1 7.5t0 7.5t-0.5 4.5v10t-3 9q-1 0 -3 0.5l-2 0.5q-9 0 -14 -3t-8 -7t-4.5 -9t-2 -9t-1.5 -7t-3 -3v10t1 12.5t3 12t5 7.5q1 1 4.5 1.5t7.5 1.5t7 1.5t5 1.5q3 0 4.5 1t1.5 4q0 18 -5 36
q-1 1 -3 1h-4q-10 0 -15.5 -6t-8.5 -13t-4.5 -13t-4.5 -6v10t1 12t3.5 11.5t7.5 8.5q2 1 6 1.5t7 1.5t5 3t2 6q0 1 -2 3t-4.5 4t-4.5 4t-3 2q-1 1 -4 2t-6.5 2l-7 2t-4.5 1h-2q-3 0 -10 -1t-14.5 -4t-13 -6.5t-5.5 -7.5z" />
</svg>
