<?xml version="1.0" standalone="no"?>
<!DOCTYPE svg PUBLIC "-//W3C//DTD SVG 1.1//EN" "http://www.w3.org/Graphics/SVG/1.1/DTD/svg11.dtd" >
<svg xmlns="http://www.w3.org/2000/svg" xmlns:xlink="http://www.w3.org/1999/xlink" version="1.1" viewBox="-10 0 266 256">
   <path fill="currentColor"
d="M138 246q0 5 5 5t9.5 -5.5t9.5 -15t9 -21.5t8 -25t7 -26.5t5.5 -24.5t3.5 -19.5t1 -12.5v-12q0 -3 -4 -6t-9.5 -5t-12 -3.5t-12 -4t-9 -5t-3.5 -6.5q0 -9 5 -15t12 -10t15.5 -6t15.5 -2q2 -1 2 -2.5v-2.5q0 -2 -0.5 -4t-3.5 -2q-10 0 -20 3t-18 8.5t-12.5 14t-4.5 20.5
q0 3 1.5 5l3 4l3 4t1.5 6t-1.5 9t-4 10t-5 9t-4.5 7q-8 19 -15.5 39.5t-17.5 38.5q-1 2 -3 3.5t-3 3t-2 3.5t-1 5t1 3.5t4 0.5q4 0 8 -5.5t9 -15t10 -21t10 -24t10 -24t9 -20.5t7 -14.5t6 -5.5q9 0 15.5 5t6.5 14q0 12 -3 22.5t-6 21.5q-6 21 -13.5 41t-16.5 41
q0 1 -1.5 3.5t-2.5 5.5t-2.5 5.5t-1.5 4.5zM63 22v78t-2 78q-1 15 -2.5 29.5t-1.5 29.5q4 0 7 -1.5t5 -4.5t2.5 -6.5t0.5 -7.5v-5v-10v-10v-6q0 -4 0.5 -11t0.5 -15.5t0.5 -15t0.5 -8.5q0 -1 0.5 -3t0.5 -4t0.5 -4t0.5 -3v-1q0 -3 -1 -6t-1 -6q0 -1 0.5 -3.5l1 -5t1.5 -4
t3 -1.5h33q2 0 3 -2t1 -4t-1 -2.5t-3 -0.5h-37l-2 -2v-2v-4.5t-0.5 -4.5t-0.5 -4q0 -9 1.5 -18.5t1.5 -18.5v-8q-1 0 -3 -2.5t-3 -2.5v0h-1t-3 1t-3 2z" />
</svg>
