<?xml version="1.0" standalone="no"?>
<!DOCTYPE svg PUBLIC "-//W3C//DTD SVG 1.1//EN" "http://www.w3.org/Graphics/SVG/1.1/DTD/svg11.dtd" >
<svg xmlns="http://www.w3.org/2000/svg" xmlns:xlink="http://www.w3.org/1999/xlink" version="1.1" viewBox="-10 0 266 256">
   <path fill="currentColor"
d="M193 149q0 18 -5.5 36.5t-11.5 36.5q-1 3 -3.5 7t-4.5 7.5t-3.5 7.5t-1.5 8q2 0 5.5 -0.5t5.5 -1.5q4 -4 7.5 -11.5t6.5 -17.5t5.5 -20.5t4.5 -21t3 -19t1 -13.5v-3v-4.5v-4.5v-3q-2 -6 -8 -9.5l-12 -7t-11 -7.5t-5 -11q0 -4 5.5 -8.5t12 -8.5t11.5 -8t5 -8
q0 -2 -1.5 -2.5t-2.5 -0.5q-4 0 -11 4t-13.5 10t-11.5 12.5t-5 11.5q0 4 2 6.5t4.5 5t4.5 5t2 6.5q0 1 -2.5 8.5t-5 15.5t-5.5 15.5t-4 9.5q0 1 -1.5 4l-3.5 7t-3.5 7.5t-2.5 5.5l-3 4.5t-1.5 2.5t-1 2.5t-0.5 4.5q7 0 12 -6t9 -15t7 -19.5t6 -19.5t6 -14.5t6 -5.5h3l1.5 1
t3 2.5t3 3.5t1.5 4q0 1 0.5 4t0.5 5zM113 245q2 2 3 2.5t3 0.5q3 0 5 -2t3 -4v-9q0 -34 -1.5 -65.5t-0.5 -65.5q-1 -2 -4 -3t-4 -2h-3h-4h-4h-2h-8t-8.5 0.5t-8 2t-5.5 5.5q0 1 -0.5 3.5t-0.5 5v4.5v3v4v8v7v4q-1 19 -2.5 36.5t-2.5 36.5v2t-0.5 4t-0.5 4v4v3t0.5 4t0.5 4v3
t1 1.5t2 0.5q3 0 5.5 -2.5t2.5 -5.5q0 -1 0.5 -4t0.5 -6t0.5 -5.5t0.5 -3.5v-21v-6.5t0.5 -12t0.5 -12v-6.5v-1v-3v-3v-1q0 -1 1 -1.5l1 -0.5h5t6.5 -0.5t7 -0.5h4.5h4q2 0 3.5 1t2 3t0.5 4v4q0 4 -1 7t-1 6v3q0 1 0.5 3.5t0.5 5.5t0.5 5.5l0.5 2.5q0 12 -1 24.5t-3 24.5z
M82 135q0 -8 0.5 -13.5t2.5 -9.5t6.5 -5.5t13.5 -1.5q5 0 7.5 2.5t2.5 7.5v26h-29l-4 -1v-2v-3zM61 86q0 1 0.5 1.5t1.5 0.5v0q3 0 5 -1.5t3 -3.5q0 -10 2.5 -20t2.5 -20q0 -4 -0.5 -8.5t-2.5 -8.5t-5 -6.5t-8 -2.5q-2 0 -3.5 0.5t-1.5 2.5t1 4t2.5 4t3 3.5l2.5 2.5
q0 2 0.5 5t0.5 4q0 6 -2.5 12.5t-2.5 12.5v1v3.5v5t0.5 5t0.5 3.5zM117 56v0q0 2 0.5 5t0.5 6t0.5 5.5l0.5 2.5v4.5t1 4t2.5 3t3.5 1.5q3 0 6.5 -1.5t3.5 -4.5q0 -1 -1 -2t-2 -1q-3 -5 -4.5 -10t-1.5 -11q0 -4 1 -7.5t2.5 -7l3 -7t1.5 -7.5q0 -8 -5 -12t-12 -4q0 6 2 10.5
t2 10.5t-2.5 11t-2.5 11zM89 58q0 3 0.5 7t1.5 8t2.5 7.5t5.5 5.5q2 0 2.5 -2t0.5 -4q0 -5 -1.5 -9.5t-1.5 -10.5q0 -7 2.5 -13.5t2.5 -13.5q0 -3 -0.5 -6.5t-2 -6.5t-4 -5t-6.5 -2h-3.5t-1.5 3q0 2 1 4t2.5 4l3 4t1.5 5q0 7 -2.5 12.5t-2.5 12.5z" />
</svg>
