<?xml version="1.0" standalone="no"?>
<!DOCTYPE svg PUBLIC "-//W3C//DTD SVG 1.1//EN" "http://www.w3.org/Graphics/SVG/1.1/DTD/svg11.dtd" >
<svg xmlns="http://www.w3.org/2000/svg" xmlns:xlink="http://www.w3.org/1999/xlink" version="1.1" viewBox="-10 0 266 256">
   <path fill="currentColor"
d="M68 211q0 7 5 14t12.5 13t15.5 9.5t15 3.5q1 0 2.5 -0.5t1.5 -2.5t-6 -5.5t-13.5 -8t-13.5 -11.5t-6 -16q0 -5 2 -10t9 -5h1q5 5 10 11.5t10 12.5t11 10.5t13 4.5v-1v-1l-0.5 -1.5t-1.5 -1.5l-26 -26q-1 0 -1.5 -2t-1.5 -3.5t-1.5 -3.5t-0.5 -3t3 -2.5l7 -3.5t7.5 -4
t4.5 -4v-2.5t0.5 -3.5t0.5 -3.5v-2.5v-1q0 -5 -4.5 -6.5t-11.5 -2t-15.5 -1t-16 -3.5t-13.5 -10t-7 -19q-1 -7 1 -14t4.5 -13.5t5 -13.5t2.5 -14q-3 0 -5.5 4t-5 9.5t-4.5 12l-4 13t-2.5 11.5t-0.5 7q0 14 5 21.5t12 11t16 4t16.5 1t12.5 2t5 6.5q0 2 -0.5 4t-3.5 3
q-8 2 -16 4.5t-14.5 6.5t-10.5 10.5t-4 15.5zM199 165q0 9 -3.5 15.5t-8.5 11.5t-11.5 9t-11.5 7t-8.5 5.5t-3.5 5.5q10 0 20 -4.5t18 -12.5t13 -17.5t5 -19.5q0 -7 -3 -12t-7 -9.5t-9 -8.5t-9.5 -8.5t-7.5 -10t-3 -11.5q0 -12 4.5 -21.5t10.5 -20.5q1 -2 1.5 -2.5l1 -1
t0.5 -1v-2.5q0 -1 -0.5 -2t-2.5 -1v0l-2 1q-4 6 -7.5 11.5t-7 11.5t-5.5 12t-2 13q0 5 0.5 11t4.5 10l3 3l4.5 4.5t4.5 5t2 4.5q0 4 -3 8.5t-7.5 9t-10 9.5t-10.5 9t-8 7t-3 5l0.5 0.5l0.5 0.5q5 -2 10 -5t9 -5l28 -28h1h2q2 0 4.5 1.5t4 3.5t2 4.5t0.5 4.5zM74 110
q0 4 2.5 8t5.5 7t7 4.5t9 1.5t11 -1.5t11 -4.5t8 -8t3 -11q0 -5 -3 -9t-7.5 -7.5t-9.5 -5.5t-9 -4v-4v-4q0 -3 0.5 -6t1 -5t2.5 -2l28 -3q2 -1 3.5 -2.5t1.5 -3.5q-7 0 -14.5 0.5t-14.5 0.5h-2q-2 0 -2 -1q-1 -3 -1 -9t-0.5 -12t-1.5 -11.5t-3 -6.5q-2 1 -3.5 2.5t-1.5 3.5
q0 15 -0.5 32t-1.5 31v3.5t-0.5 2t-1.5 1t-2 1.5q-1 0 -3 0.5l-2 0.5q-4 4 -7 10t-3 11zM82 112q0 -9 5.5 -16t16.5 -7q3 0 6 2t5.5 5t3.5 6.5t1 6.5t-2 6.5t-5 5.5t-7 3t-7 1q-2 0 -5 -1t-5.5 -3t-4.5 -4.5t-2 -4.5zM93 107q0 2 2.5 3t4.5 1q3 0 5 -1.5t2 -4.5t-2 -3.5
t-4 -0.5t-5 1t-3 5z" />
</svg>
