<?xml version="1.0" standalone="no"?>
<!DOCTYPE svg PUBLIC "-//W3C//DTD SVG 1.1//EN" "http://www.w3.org/Graphics/SVG/1.1/DTD/svg11.dtd" >
<svg xmlns="http://www.w3.org/2000/svg" xmlns:xlink="http://www.w3.org/1999/xlink" version="1.1" viewBox="-10 0 266 256">
   <path fill="currentColor"
d="M66 218l1 31l1 0.5t2 1.5h1h1q0 -1 1.5 -2t1.5 -2l0.5 -2.5t0.5 -5t0.5 -4.5t0.5 -3v-0.5v-1.5v-1v-1q0 -2 -0.5 -9t-1.5 -15.5t-1.5 -15.5t-0.5 -8q0 -3 0.5 -9t0.5 -13t0.5 -13.5t0.5 -9.5q1 -5 2 -9.5t3.5 -8t6.5 -5.5t9 -2q2 0 4 0.5t2 3.5v41h-9q-1 0 -1 -2.5
t-0.5 -5l-1 -5t-3.5 -2.5q-1 0 -1.5 0.5l-0.5 0.5v5.5v5.5v9.5t1 12.5t3.5 11t8.5 5h8q4 0 9 -1t9 -2.5t6 -5.5v-2v-4v-3v-2v-7.5t-0.5 -11t-1.5 -10.5t-4 -5l-0.5 0.5l-0.5 0.5l-1 0.5l-1 0.5v14l-1 0.5t-2 0.5l-2 1l-2 1h-1h-1v0q-1 0 -1.5 -1l-0.5 -1v-41l2 -2h2h3
q6 0 9 2.5t4.5 6t1.5 8.5t1 10q5 24 8.5 47t3.5 48v0q0 1 -0.5 2t-0.5 2.5t-0.5 2.5t-0.5 2q0 3 2 5.5t5 2.5t4 -1t3 -4v-4.5v-4.5q0 -16 -2.5 -32.5t-4.5 -32.5q0 -6 -1.5 -14.5t-2.5 -17.5t-3 -17t-5 -13t-8 -5.5l-10 -1t-8.5 -2.5t-3.5 -9q0 -4 1.5 -6.5t4 -4.5l5 -4
t4.5 -5v-3.5v-5.5v-6.5v-3.5q1 -7 4.5 -8t7.5 -1t7 -1t3 -8h-40q-1 0 -1.5 -3t-1 -6.5t-2 -6.5t-4.5 -3t-4.5 2.5t-2 6t0 7t0.5 4.5l-1 3h-40q-1 0 -3 2t-2 3t0.5 2t0.5 2q1 0 1.5 0.5l0.5 0.5h26l4 2q-1 13 0.5 19t4 8.5t6 3t7 1.5t5.5 3.5t2 9.5v6q-4 3 -8.5 4t-9 2.5
t-9 3.5t-8.5 7q0 1 -0.5 3t-0.5 5t-0.5 5t-0.5 3v9v14.5v16.5t0.5 16.5t0.5 14v9.5v5zM188 243q0 2 0.5 3t3.5 1q2 0 4.5 -2t4 -5l3 -6t1.5 -5q1 -3 2 -9t2 -11.5t2 -9.5t1 -5v-94q0 -1 -1.5 -2.5l-2.5 -2.5t-4 -2.5t-6 -3.5t-5 -3.5t-3 -1.5q-3 -2 -7 -3.5t-8 -3.5t-6.5 -5
t-2.5 -8q0 -6 3 -8.5t8 -4t10 -2t9.5 -1t7.5 -2t3 -4.5q0 -4 -2.5 -5t-5.5 -1h-2h-2q-2 0 -6.5 2t-9.5 3.5t-9.5 3.5t-6.5 2q-2 1 -4 3.5t-2.5 5.5l-1 6t-0.5 5q0 7 3 10.5t7 6t8 4.5t7 6v10q0 21 -2.5 42.5t-7.5 43.5q-1 2 -2 5t-2 6.5t-2 6.5t-1 6q0 1 1.5 1.5t2.5 0.5
q4 0 7 -6.5t4.5 -15t3 -16t1.5 -10.5l9 -71q4 0 7 3t5 7v4.5t0.5 7t0.5 7v4.5v1v1q0 3 -0.5 11.5t-1 18.5t-1 18.5t-0.5 12.5q-1 1 -1.5 3t-0.5 4l-0.5 2t-0.5 5v5t-1 2q0 2 -1.5 5.5t-3 8t-3 8t-2.5 5.5v1v1zM93 172q0 -3 2.5 -5t5.5 -2.5t6.5 -1t6.5 -0.5t6 1.5t3 5.5v2.5
v3t-1 3t-2 1.5h-21q-4 0 -5 -3t-1 -5zM85 53q0 -4 3 -6.5t7 -3t8 -0.5q5 0 7 -1q2 2 3 2.5t1 2.5q0 5 -0.5 9.5t-2 7.5t-4.5 5t-8 2t-7.5 -1.5t-4 -3.5t-2 -5.5t-0.5 -7.5z" />
</svg>
