<?xml version="1.0" standalone="no"?>
<!DOCTYPE svg PUBLIC "-//W3C//DTD SVG 1.1//EN" "http://www.w3.org/Graphics/SVG/1.1/DTD/svg11.dtd" >
<svg xmlns="http://www.w3.org/2000/svg" xmlns:xlink="http://www.w3.org/1999/xlink" version="1.1" viewBox="-10 0 266 256">
   <path fill="currentColor"
d="M155 248q0 3 3 3q4 0 8.5 -7.5t10 -19t11 -25t10 -26.5t7 -23t2.5 -14q0 -8 -2 -13t-6 -8.5t-9.5 -6.5t-11.5 -8q-1 0 -2.5 -1.5t-3.5 -3t-3 -3l-1 -1.5v-5l1.5 -1.5l3.5 -3.5l3.5 -3.5t3.5 -2.5q2 -2 6.5 -4.5t8.5 -5.5t7.5 -6t3.5 -6q0 -2 -2 -3t-4 -1q-3 0 -6 1t-6 4
l-4 4t-6.5 6t-6.5 6.5t-4 4.5q-3 2 -6.5 6t-3.5 8t2 6t4.5 4t4.5 4.5t2 5.5q0 4 -2.5 11.5t-6 15.5t-6.5 15.5t-4 10.5q-6 13 -10 26t-10 26l-1 2l-1 2q0 2 2 3.5t3 1.5q3 0 7 -8t8.5 -20.5t9.5 -26.5t9 -26t7.5 -20.5t4.5 -8.5q5 0 8 2.5t4.5 6t2.5 7.5t1 7q0 10 -2 19
t-5.5 18t-7.5 18l-8 18q-1 3 -4 8t-6.5 10.5t-5.5 11t-2 9.5zM90 239q0 4 1 6.5t5 2.5q2 0 3.5 -1.5t2 -3.5l1 -4t0.5 -3v-50q0 -1 1.5 -2.5t1.5 -2.5q9 0 14 -1t8 -4.5t4 -9t1 -13.5q0 -3 -1 -6t-5 -3t-4.5 4.5t-0.5 10t-2 10t-9 4.5h-4.5t-3.5 -3v-6v-7.5t0.5 -7t0.5 -7.5
t1 -9q1 -2 3.5 -3t4.5 -1q3 0 5.5 0.5t4.5 0.5q1 0 4 -0.5l6 -1t5.5 -0.5h3.5q1 -1 1.5 -2l0.5 -1v-0.5v-0.5v-1l-2 -2l-1 -1q-1 0 -3.5 0.5t-3.5 1.5h-2h-4.5h-5.5h-3h-3h-3.5h-2.5h-2l-2 -2v-11q0 -1 3 -1.5t4 -0.5q6 -1 9.5 -2t6 -3t3.5 -6t1 -11q0 -4 -1 -7.5t-1 -7.5
v-1v-1q3 0 5.5 -1t4.5 -4q1 -10 3 -19t2 -20v-2v-3t-0.5 -3.5t-0.5 -2.5q-1 -1 -2 -1h-2h-2.5t-1.5 1v19h-21l-0.5 -1.5t-0.5 -2.5t-0.5 -2.5t-0.5 -3.5t0.5 -3.5t0.5 -2.5q-1 -1 -2.5 -2t-2.5 -1t-1.5 0.5t-0.5 1.5v43q0 3 1.5 5t4 3l5 2t4.5 2v2.5v3.5v5.5t-0.5 7t-1.5 6
t-3 2.5h-31q-4 0 -5.5 -3t-2.5 -7t-0.5 -8.5t0.5 -5.5q0 -2 2 -3.5t5 -3.5t5 -6t2 -12v-1v-6t-0.5 -8.5t-0.5 -8.5v-6t-1 -2.5t-2 -0.5q-2 0 -3 2t-1.5 4.5t-0.5 5.5v4h-4h-3q-8 0 -10.5 -2.5t-3 -5l-1 -5t-3.5 -2.5q-2 0 -3 2.5t-1.5 5.5t0 6t0.5 5v6q0 1 0.5 3t1 5
t0.5 5.5t1 3.5q0 3 2 4.5t4.5 2.5t4.5 2l2 1v26l0.5 1.5l0.5 1.5q1 1 3.5 4t3.5 3t3 1t5 1.5t5 1.5t3 1q2 1 2 3.5v4.5v2v2.5t-1 2.5t-3 1h-37q-2 0 -3.5 1.5t-1.5 3.5q0 1 1 2.5t3 1.5q8 0 16 -1.5t17 -1.5h3.5t1.5 3q0 8 1 14.5t1 13.5v6t-2 5h-4h-3t-4 -1l-4 -2t-2 -3
v-23l-1.5 -0.5t-2.5 -1.5h-1q-1 0 -2 2t-1 3v2l0.5 3l0.5 3v2t-0.5 2t-0.5 2v1q0 6 1.5 9.5t5 6t8 3t9.5 0.5l1 3q1 1 1 4v4q0 12 -2 24t-2 23zM66 45q0 -2 1 -3.5t3 -2t4 -0.5h4q5 0 6.5 2t1.5 6q0 5 -2 8t-8 3t-8 -3.5t-2 -9.5zM116 49q0 -3 1 -5.5t4 -2.5h4t4 0.5
t3.5 0.5h1.5v12l-3 3h-13l-1 -1.5l-1 -1.5v-2.5v-2.5z" />
</svg>
