<?xml version="1.0" standalone="no"?>
<!DOCTYPE svg PUBLIC "-//W3C//DTD SVG 1.1//EN" "http://www.w3.org/Graphics/SVG/1.1/DTD/svg11.dtd" >
<svg xmlns="http://www.w3.org/2000/svg" xmlns:xlink="http://www.w3.org/1999/xlink" version="1.1" viewBox="-10 0 266 256">
   <path fill="currentColor"
d="M75 246q0 2 0.5 2.5t2.5 0.5t3.5 -1t1.5 -3t-0.5 -5t-1 -7t-0.5 -7v-5v-2v-2q0 -5 0.5 -15t1 -19.5t0.5 -17v-9.5v-3t0.5 -4.5t1.5 -4.5t3 -4q2 1 8 0t13 -3t12 -5t5 -6q0 -2 -1.5 -3.5t-3.5 -1.5q-3 0 -6 2l-6 4t-6 3.5t-7 1.5q-1 0 -2 -0.5t-1 -1.5q0 -6 4 -9.5t9 -6.5
t9 -5.5t4 -6.5q-9 0 -16.5 6t-13.5 12h-1q-2 0 -3.5 -0.5t-1.5 -2.5q0 -5 4 -8t9 -6t9 -5.5t4 -5.5v-1v0q0 -1 -1 -1.5t-2 -1.5v0q-2 0 -3.5 1t-3 2.5t-3 2.5l-1.5 1q-9 6 -12.5 12.5t-4.5 13t-1 15.5q0 7 -2 17q0 1 -1 3.5l-1 2.5q-1 14 -1 27.5v27.5v3q0 1 0.5 5.5l1 9
l1 9t0.5 5.5zM176 243q0 2 1.5 3t2.5 1q2 0 4 -1t2 -3v-14q0 -19 -1 -37.5t-3 -36.5q0 -7 -3 -13t-3 -14q0 -2 1 -3.5t2 -3.5l2 -4t1 -5q0 -5 -3.5 -9.5t-9 -7t-11 -4.5t-9.5 -4l-1 -0.5l-1 -0.5q-2 0 -3 0.5t-1 3.5t4.5 4.5t10 3.5t10 5t4.5 9q0 3 -0.5 4t-3.5 1h-0.5h-1.5
q-3 -2 -6.5 -5t-7.5 -5.5t-8.5 -4.5t-8.5 -2q-1 0 -1.5 0.5l-0.5 0.5q0 2 4 4.5t8.5 5.5t8.5 6t5 5v2q0 3 -2.5 4t-5.5 1t-5 -1.5t-3.5 -3.5t-3.5 -3.5t-5 -1.5q0 9 5 12.5t13 3.5q3 0 6 -1t6 -1q2 0 3.5 3.5t1.5 5.5t1 5t1.5 6t1 5t0.5 3q1 2 1.5 7t0.5 10.5t0.5 11
t0.5 7.5v9.5v13.5v13.5v9.5zM126 190v52l0.5 1t1.5 2h1q1 0 2.5 -1.5t1.5 -3.5l3 -50h15v47q0 1 1 2t2 1v0v0h0.5h0.5l0.5 -1.5t1.5 -3t1.5 -3t0.5 -2.5v-62q0 -2 -2 -3.5t-3 -1.5q-3 1 -3.5 4t-0.5 6.5t-1 6t-6 2.5q-3 0 -4.5 -1t-2 -2.5t-0.5 -3.5t-1 -4q-2 -3 -4.5 -4.5
l-5 -3t-4.5 -3t-2 -5.5v-2.5v-2.5q6 -3 14 -3.5t15 -0.5l0.5 -1t0.5 -2l-0.5 -0.5l-0.5 -0.5h-26q-3 0 -5 1.5t-3 4t-1.5 5.5t-0.5 5q0 4 2 6t5 3.5t5 3.5t2 6v3.5t-3 1.5l-1.5 0.5t-3.5 0.5t-3.5 0.5t-2.5 0.5h-1q-1 0 -1.5 -1.5t-0.5 -3.5t-1 -4.5t-3 -3.5h-1q-1 0 -2 4
t-1.5 10.5t-1 14l-1 15t-0.5 13v8.5v2.5t2 1.5q3 0 5 -1q0 -12 1.5 -22t1.5 -22l3 -5h15zM106 59q-1 1 -2.5 3t-3.5 4l-4 4l-3 3t-5.5 4t-9 6.5t-8.5 6t-4 3.5v2v2h5t5 -2q2 -1 6 -4t8.5 -7t8.5 -7t6 -4q3 -3 4.5 -4t1.5 -4q0 -1 -1 -3.5t-3 -2.5h-1zM118 55q1 1 1 7v12
t1 11t4 5h1q0 -1 1 -2t2 -1q1 -5 1 -8v-7v-4v-1.5t-0.5 -3t-0.5 -3v-1.5q0 -1 0.5 -3t2.5 -2q5 -1 11 -1.5t13 -0.5h12h11l3 -0.5t4 -2.5l-5 -4h-26q-1 0 -2 -0.5t-1 -1.5h-1q0 -5 2.5 -9t2.5 -9v-5l-1.5 -2l-1.5 -2q0 -1 2 -2.5l2 -1.5v-1q0 -2 -2.5 -3t-4.5 -1
q-10 0 -16 3t-9.5 8t-4 12t-0.5 16l-1 2h-12v-4v-6.5v-5.5v-5q0 -3 -1 -5t-5 -2q-2 0 -2 4v2t1 3v20h-31q-2 0 -2 2v3q0 4 3 4.5t7 0.5q8 0 16 -2t17 -2h4.5h4.5zM139 65l6 3t8.5 5t8.5 5l6 3q4 3 7 6t8 3q2 0 5 -1t3 -4t-5 -5q-1 -1 -4.5 -2.5t-7 -3.5t-6.5 -3.5l-5 -2.5
q-5 -3 -11.5 -5.5t-12.5 -2.5v5zM129 41q0 -4 0.5 -8t2 -8t4 -6.5t7.5 -2.5q2 0 2.5 0.5t0.5 2.5v8v4t-0.5 6.5t-1.5 6t-3 2.5h-10q-1 0 -1.5 -0.5l-0.5 -0.5v-4z" />
</svg>
