<?xml version="1.0" standalone="no"?>
<!DOCTYPE svg PUBLIC "-//W3C//DTD SVG 1.1//EN" "http://www.w3.org/Graphics/SVG/1.1/DTD/svg11.dtd" >
<svg xmlns="http://www.w3.org/2000/svg" xmlns:xlink="http://www.w3.org/1999/xlink" version="1.1" viewBox="-10 0 266 256">
   <path fill="currentColor"
d="M108 238q0 1 0.5 3.5t1 4.5t1.5 3.5t2 1.5q4 0 5 -3l2 -6q-1 -26 0.5 -52t4.5 -51q1 -2 1 -4.5t0.5 -4.5t1 -3.5l0.5 -1.5l3 -3h3.5h5t4.5 -1t2 -4v-1t-1 -1h-13q0 -6 2.5 -7.5t5.5 -2.5t5.5 -3t2.5 -7q-4 0 -7.5 2t-6.5 5t-5.5 5t-3.5 2h-1q0 -1 -0.5 -1.5l-0.5 -0.5
v-10q0 -3 3 -4.5t7 -2.5t8 -2.5t4 -3.5q-1 -2 -3 -2.5t-4 -0.5q-5 0 -9 2t-7 5t-5 7t-2 9q0 3 1 5l2 4t1.5 3.5t0.5 4.5q0 4 -0.5 10.5t-2.5 9.5q-2 25 -3.5 48.5t-5.5 46.5v2zM189 249q0 2 3 2q2 0 3 -2t1.5 -4t0.5 -5v-3q0 -10 -1 -19.5t-2 -18.5l-2 -40t-5 -40v-1
q0 -2 1 -3.5l2 -3t2 -3.5t1 -6q0 -7 -3.5 -11t-8.5 -5.5t-11 -2t-12 -0.5q0 3 4 4t8.5 2t9 3.5t6.5 10.5q-1 0 -2.5 2l-1.5 2h-1q-2 0 -4 -1.5t-4 -3.5t-4.5 -3.5t-5.5 -1.5q-2 0 -3.5 0.5t-1.5 2.5t1 2.5l3 1.5q1 1 2.5 1.5t3 1.5t3.5 2l2 1q1 0 1 1v1l-0.5 1.5t-1.5 1.5
h-14l-0.5 1t-1.5 1v0.5v0.5v0.5v0.5q1 0 1.5 0.5l0.5 0.5h19l2 2l0.5 3t1.5 7t1.5 8t0.5 7q2 13 2.5 25.5t1 25.5t0.5 26t2 25zM94 168v2v2.5t-1 3.5t-1 3.5v2.5v2v4v3v2q-2 7 -4.5 13.5t-4.5 13.5t-4 13.5t-2 13.5q5 0 9 -6.5t7 -17.5t5 -23.5t3 -24.5t1.5 -21t0.5 -13
v-3.5t0.5 -7.5t0.5 -7.5v-3.5v-2q0 -15 -0.5 -29.5t-2.5 -29.5l-3 -3t-4 -2l-25 -9l-0.5 -1t-0.5 -2v0q0 -5 2.5 -8t6 -5t7.5 -3t8 -1h5.5t3.5 -0.5t1 -2v-6.5q-5 0 -13 0.5t-14.5 3t-11.5 7t-5 12.5t2.5 11.5t7 4.5t9.5 1t9 1.5t7 6t3 14.5q0 1 -2 2t-5 1.5l-6 1t-4 0.5
q-3 0 -3 -3t-1 -7t-2.5 -6.5t-6.5 -2.5q0 5 1 11t1 12q0 29 -3.5 56.5t-8.5 55.5q0 3 -1 6t-1 6q0 4 2 4q3 0 5.5 -4.5t4 -11t3 -14.5t3 -14.5t3 -11t3.5 -4.5h1q0 1 1.5 2t2.5 2t2.5 2t2.5 2t3.5 2t2.5 4zM145 238v3t1 3q4 -1 6.5 -5t2.5 -7v-1q0 -1 -0.5 -3.5l-0.5 -2.5
q0 -1 1 -4l1 -3q1 -5 1.5 -9.5t0.5 -8.5v-9.5t1 -8.5l3 -1.5t2 -0.5t3 0.5t2 1.5v29q-2 2 -2.5 5t-0.5 6v6v6q3 0 6 -1.5t4 -4.5q1 -14 1 -29t2 -29v-1v-2q0 -2 -1 -3.5t-3 -1.5q-1 -1 -2 -1h-2v12l-1 1l-1 1h-1.5h-2.5h-3.5t-2.5 -2q1 -8 0 -12t-2.5 -6t-4 -2.5t-4.5 -1.5
t-3 -2t-1 -5t3.5 -5.5t7.5 -2t8 -0.5t4 -3q0 -2 -2 -3.5t-3 -1.5q-5 0 -9.5 1t-7.5 3.5t-5 5.5t-2 8v3v3q3 2 5 2.5t7 2.5q1 1 1 2v2v1t1 1v11q-5 0 -6.5 0.5t-1.5 0t0.5 -2.5t-0.5 -6l-1.5 -4.5t-2.5 -1.5q-3 0 -3 2q0 8 -1 16t-2.5 16t-2.5 15.5t-1 15.5q0 1 0.5 2t1.5 1
q3 0 5 -5q0 -1 0.5 -4t1.5 -6.5t1.5 -6.5t0.5 -4v-5.5t0.5 -7t2.5 -6.5t6 -3h1q0 1 0.5 4.5t0.5 4.5v2q0 6 -1 11.5t-2.5 11.5t-2.5 12t-1 12zM76 138v-2v-2t0.5 -3t0.5 -3.5t0.5 -3l0.5 -1.5l2 -3h14l2 2v1.5t0.5 3.5t0.5 4v3v1v1v3t-0.5 4.5t-0.5 5v3.5q-1 1 -2 1h-2h-1
h-1q-1 -1 -3.5 -2.5t-4.5 -4t-4 -4.5t-2 -4zM77 98v-3t1 -2l2 -3l17 -3v23q0 1 -2 2l-2 1h-1q-9 0 -12 -3t-3 -12zM146 17v31q0 2 -2.5 4t-7 5.5t-9.5 6.5t-9.5 7t-7 7.5t-2.5 6.5q3 0 9 -3.5t12.5 -7.5t11.5 -8.5t7 -7.5h2l4.5 2.5t9.5 5l10 5t6 3.5q3 2 4.5 3.5l3 3t4 2
t5.5 0.5q2 0 4.5 -1.5t2.5 -3.5q0 -1 -3.5 -2.5t-9 -4t-12 -5.5t-12 -6t-9 -5t-3.5 -4v-37q0 -2 -1.5 -3t-3.5 -1t-3.5 1t-1.5 3l0.5 1t0.5 2zM106 61q0 1 0.5 1.5l0.5 0.5h1v0q1 0 2.5 -1.5t2.5 -1.5q8 -6 12.5 -12.5t4.5 -16.5q0 -4 -1 -7t-5 -3h-1h-2q0 8 -1 13t-3 9
t-4.5 8t-6.5 10zM165 26q0 4 1.5 9t4.5 10t7 8t9 3q2 0 4 -1t2 -4q0 -1 -3 -3t-6.5 -4.5t-6.5 -7.5t-3 -13h-8l-0.5 1l-0.5 1v1z" />
</svg>
