<?xml version="1.0" standalone="no"?>
<!DOCTYPE svg PUBLIC "-//W3C//DTD SVG 1.1//EN" "http://www.w3.org/Graphics/SVG/1.1/DTD/svg11.dtd" >
<svg xmlns="http://www.w3.org/2000/svg" xmlns:xlink="http://www.w3.org/1999/xlink" version="1.1" viewBox="-10 0 266 256">
   <path fill="currentColor"
d="M54 165q3 4 3.5 11t0.5 14.5v15.5t2 14.5t6.5 11t12.5 5.5q6 1 10 1t8 0.5t8 0.5h10q16 0 32.5 -0.5t32.5 -1.5q2 0 6 -0.5l8 -1t7.5 -2t6.5 -3.5q1 -1 2 -3.5t1 -5.5v-6v-5v-3.5v-3.5q-3 -5 -6.5 -7t-8 -3t-9 -0.5t-9.5 0.5h-16h-7.5t-11.5 0.5t-11.5 0.5h-7.5
q-2 2 -3.5 2h-4.5q-4 0 -9 -2t-9 -3q-1 -6 -1.5 -13.5t-0.5 -15v-14.5v-13v-10v-12t0.5 -10t0.5 -5v-10t1.5 -9.5t4.5 -7.5t10 -2q3 -1 9 -1t14 -0.5t16.5 -1t16 -1t13.5 -1t9 -0.5q8 -1 11.5 -3.5t3.5 -11.5q0 -4 -1 -8t-3 -7t-5 -4.5t-7 -1.5h-75q-2 2 -8.5 2.5t-14 1
t-15 1.5t-10.5 3q-5 3 -7.5 10.5t-3.5 16.5t-1.5 19t-0.5 18.5t-0.5 14t-2.5 6.5q1 0 1.5 1.5l1 3t0.5 2.5v1v36zM73 223q0 -1 2 -2t4.5 -2.5t4.5 -3t3 -2.5q2 -4 3.5 -6t6.5 -4q12 0 23.5 -1t23.5 -1v26l-1.5 0.5t-1.5 1.5h-1h-1l-1.5 -0.5t-2.5 -0.5t-2.5 -0.5l-1.5 -0.5
h-2q-2 0 -4 0.5l-4 1t-3.5 1t-2.5 0.5h-1h-8.5t-13.5 -1t-13 -2t-6 -4zM152 203l5 -2h2h4h3.5h3.5h4.5h5.5h5h3q3 0 6.5 1t4.5 4v7q0 5 -0.5 7.5t-1.5 3.5t-4 1t-7 1h-3t-6 0.5t-5.5 0.5h-3.5h-2.5h-4.5h-3.5h-2.5l-1.5 -0.5l-1.5 -0.5v-23zM64 140q0 -3 1.5 -4t3.5 -1.5
t4 -0.5h5h3h2l2 2q-1 12 0 24.5t2 24.5l0.5 2t1.5 3q0 1 0.5 4t0.5 4l-1 1t-2 1.5l-2 1t-2 1.5t-2.5 3t-3.5 4l-3.5 3.5t-1.5 2.5l-3 -5l-0.5 -5t-1 -12l-1 -14t-1.5 -12q0 -7 -0.5 -14t-0.5 -14zM142 132q1 0 2 0.5t2 1.5q1 4 1 8v8v8v7q0 2 0.5 5.5t0.5 6.5t0.5 5.5
l0.5 2.5l1 1l5 -3v-49q0 -1 2 -1.5l2 -0.5q7 0 11 3.5t6.5 8.5t3 11t0.5 11q0 1 -0.5 3t-0.5 4t-0.5 4t-0.5 3q1 0 2 0.5t2 1.5v0h1l1.5 -1.5l0.5 -0.5q1 -4 1.5 -7l1 -6t0.5 -6v-7q0 -10 -2.5 -15.5t-6.5 -8.5t-8.5 -4t-8.5 -2t-6.5 -2.5t-2.5 -5.5q0 -2 0.5 -3.5t1.5 -2
t2.5 -1.5l4.5 -3q4 -4 8 -9t8 -9q2 0 6 -0.5t8 -1.5t7 -2t3 -4l-0.5 -1l-0.5 -1h-3.5h-3.5h-4.5h-3.5t-8.5 0.5l-15 1t-14.5 1.5t-9 1h-8t-10.5 0.5t-9.5 2t-4 5.5h20q1 0 4 3.5t6 8.5t5 10t2 6q0 6 -4 7t-9 2t-9.5 3t-5.5 9q0 1 -0.5 4t-1 6.5l-1 7t-0.5 5.5v1v2v3.5t0.5 5
t0.5 5t1 3.5l0.5 0.5l0.5 0.5h1q1 0 2 -2.5t1.5 -4.5t0.5 -3t0.5 -5t1 -8.5t1 -8.5t0.5 -5q1 -3 3 -5.5t4.5 -4.5t5.5 -3t5 -1zM65 126v-14v-14q1 -2 1 -8t0.5 -12.5l1 -13t1.5 -9.5q0 -2 1 -5t4 -3l3 3t6.5 6t6 6l2.5 3q0 9 -2 17.5t-3 17.5v6.5v9.5t-1.5 8.5t-4.5 3.5h-2
q-1 0 -3 -0.5l-4 -1t-4 -0.5h-3zM139 93v0v-1v-0.5v-0.5q1 0 2 -1.5l1 -1.5h22q1 0 1 1.5v1.5v2q-1 2 -5.5 5.5t-7.5 4.5h-1q-1 0 -3.5 -1.5t-4 -3l-3 -3t-1.5 -2.5zM83 43v0l1.5 -1.5l0.5 -0.5q12 -1 23 -3t24 -2h4.5h4.5l3 3v20q-9 1 -16 1.5t-16 0.5h-15q-2 -2 -4.5 -4
t-4.5 -4t-3.5 -4.5t-1.5 -5.5zM152 55v-6v-3.5t0.5 -4.5t1.5 -3.5t3 -1.5h2h4h4h2q3 0 7 -0.5t8.5 0.5t7.5 3t3 7q0 3 -1.5 5.5t-3.5 3.5q-9 2 -15 2h-13h-5t-5 -2z" />
</svg>
