<?xml version="1.0" standalone="no"?>
<!DOCTYPE svg PUBLIC "-//W3C//DTD SVG 1.1//EN" "http://www.w3.org/Graphics/SVG/1.1/DTD/svg11.dtd" >
<svg xmlns="http://www.w3.org/2000/svg" xmlns:xlink="http://www.w3.org/1999/xlink" version="1.1" viewBox="-10 0 266 256">
   <path fill="currentColor"
d="M103 196q0 3 1 8t3 11l4 12t5.5 11t7 8.5t8.5 3.5q3 0 4 -0.5t1 -3.5q0 -4 -3.5 -8t-8 -9.5t-8.5 -13t-4 -15.5q0 -12 7 -21t17 -16l1 -1v-7q0 -7 -3.5 -11t-8 -6.5t-8 -4.5t-3.5 -6q0 -2 2 -4t4.5 -3t5.5 -2t5 -1q1 0 2 0.5l1 0.5l11 10l1 0.5t2 0.5q5 0 5 -6v-1
l-7.5 -7.5t-6.5 -9.5q0 -1 -0.5 -4t-0.5 -6t-0.5 -5.5t-0.5 -4.5v-2q0 -4 2.5 -4.5t5.5 -0.5t5.5 -0.5t2.5 -4.5v-1.5t-2 -1.5h-37q-1 0 -1 -1t-0.5 -2t-0.5 -2v-1q0 -3 2.5 -4t6 -2t7.5 -2t7.5 -4t6 -8t2.5 -13q0 -2 -3.5 -4t-5.5 -2t-3 2t-1 5v6q0 3 -1 5.5t-4 4.5t-9 2
q-2 0 -3 -0.5t-1 -3.5q0 -7 1.5 -14.5t1.5 -15.5q0 -3 -1 -3.5t-4 -0.5q-2 0 -4.5 1t-2.5 3v35q-8 0 -11.5 -1.5t-5 -4t-1.5 -5.5t0.5 -5.5t-0.5 -4.5t-4 -3q-2 0 -3.5 0.5t-1.5 1.5v19q0 4 3 5.5t7.5 3t9 2t6.5 2.5v1.5v2.5q0 2 -1.5 5.5t-4.5 3.5h-22q-2 0 -4 2t-3.5 4.5
t-2 5.5t-0.5 5q0 4 1.5 8t1.5 8t-3 5.5t-6.5 2t-6.5 1.5t-3 5q0 2 1 2.5t3 0.5q5 0 9 -2.5t9 -2.5q2 0 4 1.5t3 4.5t1.5 5.5t0.5 4.5q0 3 -1.5 6.5t-3.5 7t-3.5 7t-2.5 6.5q-2 8 -2.5 17.5t-0.5 16.5v1q0 1 0.5 2.5t0.5 3t0.5 3.5l0.5 2q0 2 0.5 7t1 10.5l1 11t0.5 6.5t2 3
l2 2q1 0 2.5 -0.5t2 -1.5t1.5 -2.5t1 -2.5q0 -6 -1.5 -12.5t-3.5 -12.5v-51q2 -3 3 -7.5t2 -6.5h4q0 1 1.5 2.5l3 3t3.5 3t4 1.5t2 -2v-4l-1 -2.5t-3 -5.5t-3.5 -5.5l-1.5 -2.5q2 -3 6 -6t8 -3h2q1 3 4.5 5.5t6.5 5t5 6t2 7.5q0 6 -3.5 10.5t-8 9.5t-8.5 10t-3 12zM163 246
q0 2 1 3t2 1q3 0 5.5 -2.5t2.5 -5.5q0 -2 0.5 -7t0.5 -11t0.5 -10.5t0.5 -6.5v-1q0 -16 -1 -31t-1 -31v-7v-8v-8v-3l2 -4h25q3 0 3.5 -2t0.5 -4t-0.5 -3t-2.5 -1.5t-3.5 0t-3.5 0.5q-4 0 -6 0.5t-5 0.5h-2q-1 0 -3.5 -1t-2.5 -2v-5q0 -17 1.5 -33.5t1.5 -33.5q0 -6 -6 -6
q-3 0 -4.5 0.5t-2.5 4.5l-1 19v8v12v15v15v13v7q0 1 -0.5 6t-0.5 10.5t-0.5 10.5t-0.5 6v7v13v16v12v9v15v14v9zM82 116q0 -3 2 -4.5t4.5 -3t4.5 -3t2 -4.5v0v0q0 -1 -1.5 -2l-1.5 -1l-0.5 -0.5l-0.5 -0.5q-3 0 -5 2.5t-5 2.5q-2 0 -3 -1.5t-2 -3.5t-1 -4v-3q0 -4 3 -6t7 -3
t8 -1.5t6 -0.5q4 0 4.5 3t0.5 6v3v6t-0.5 9t-0.5 9v6q-1 3 -5 5t-7 2q-5 0 -7 -4t-2 -8zM114 99h1l11 9v2q0 1 -2 2.5t-4.5 2t-4.5 1t-3 0.5v-15q0 -1 0.5 -1.5t1.5 -0.5v0zM112 90v-5q0 -6 3.5 -6.5t9.5 -0.5q5 0 6 3t1 7v3v4t-0.5 4t-2.5 2l-1.5 -1l-1.5 -1q-1 -1 -3 -2
t-4 -2.5l-4 -3t-3 -1.5z" />
</svg>
