<?xml version="1.0" standalone="no"?>
<!DOCTYPE svg PUBLIC "-//W3C//DTD SVG 1.1//EN" "http://www.w3.org/Graphics/SVG/1.1/DTD/svg11.dtd" >
<svg xmlns="http://www.w3.org/2000/svg" xmlns:xlink="http://www.w3.org/1999/xlink" version="1.1" viewBox="-10 0 266 256">
   <path fill="currentColor"
d="M69 245q0 6 5 6q3 0 4 -1t1 -5q1 -4 1.5 -14t1 -21.5t1 -21t0.5 -14.5q0 -2 0.5 -8t0.5 -14t0.5 -16.5t1.5 -16.5t2 -14t3 -8q1 -3 4.5 -4.5t7 -2t7 -0.5h6.5q4 0 13 -0.5t20 -1t20 -1t13 -0.5q5 -1 5 -5h-1q0 -1 -1 -2l-1 -1q-1 -1 -4 -1h-4q-9 0 -17.5 2t-17.5 2h-5
q0 -1 -0.5 -3t-0.5 -4t-0.5 -4l-0.5 -2v-0.5v-0.5v-0.5v-0.5l0.5 -1.5t1.5 -2.5q11 -1 19.5 -2t14 -4t8.5 -10t3 -21q0 -3 -1 -5t-4 -2q-2 0 -3 0.5t-2 2.5v7t-0.5 8t-2.5 7.5t-5 5.5q-1 1 -4 1.5t-6.5 1.5t-6.5 1.5t-5 0.5q-1 0 -3 -0.5t-2 -1.5v-1q0 -7 0.5 -14t0.5 -14
v-16q-1 -2 -2 -2.5t-3 -0.5q-1 0 -4.5 1t-3.5 3v44l-2 2h-3.5h-3.5q-8 0 -12 -2.5t-5 -6t-1 -7.5v-7.5t-0.5 -6t-3.5 -2.5q-4 0 -5.5 2.5t-1.5 5.5q0 6 1.5 11.5t3.5 12.5q1 2 4 5t7 3h21q1 0 1.5 1.5l1 3t0.5 3.5v2v3v3q-1 0 -2 1l-2 2l-33 2q-4 1 -6.5 4.5t-3.5 9t-1 12
t-0.5 12.5t-1 10.5t-1.5 5.5q1 13 0 26.5l-2 27t-2.5 27t-1.5 26.5z" />
</svg>
