<?xml version="1.0" standalone="no"?>
<!DOCTYPE svg PUBLIC "-//W3C//DTD SVG 1.1//EN" "http://www.w3.org/Graphics/SVG/1.1/DTD/svg11.dtd" >
<svg xmlns="http://www.w3.org/2000/svg" xmlns:xlink="http://www.w3.org/1999/xlink" version="1.1" viewBox="-10 0 266 256">
   <path fill="currentColor"
d="M143 203q0 13 1 24t1 25l2 -0.5t4 -0.5t3.5 -1t1.5 -3v-66q0 -1 2.5 -2t3.5 -2h3.5t5.5 -0.5t5.5 -0.5h3.5q10 -2 15 -7.5t7 -13.5t2.5 -16.5t0.5 -16.5q0 -7 -7 -7q-2 0 -3.5 1t-2 3t-0.5 4t-0.5 4t-0.5 6.5t-1 9.5t-1 10t-1 6q0 2 -3 3.5t-7 2.5t-7.5 1.5t-4.5 1.5h-3
t-5 0.5t-6 0.5h-4h-2q-5 0 -12 0.5t-13.5 -1t-11.5 -5t-5 -10.5q-1 -2 -1 -6t-1 -9t-1 -9t-1 -6l-0.5 -0.5l-1.5 -1.5t-2.5 -2t-2 -0.5l-1.5 1.5t-1 2l-0.5 2.5t-0.5 3.5q0 4 1 12.5t3.5 17t6.5 15t11 6.5h31l1 1.5t2 1.5v1v0.5v0.5q0 1 -0.5 3.5t-1 5.5t-1 5.5t-0.5 3.5
v0.5v0.5zM51 230q0 3 0.5 5.5t4.5 2.5t7 -4t3 -8q2 -12 3 -25.5t1.5 -27l1 -27t1.5 -24.5v-12v-21v-22v-12v-3v-4.5t0.5 -4.5t0.5 -3q2 -3 8.5 -5t13.5 -3t14.5 -1.5t11.5 -1.5l2.5 -0.5t6 -1t6 -1t3.5 -0.5t6 -0.5t12 -0.5t13.5 -0.5t10.5 -0.5h18q1 -1 2 -2.5t1 -2.5v-1
q0 -1 -0.5 -3t-1.5 -2h-10q-5 0 -16 0.5t-24.5 1t-27.5 2.5t-26.5 4t-21 5t-10.5 6q-4 6 -5 12t-1 13q0 6 0.5 13t0.5 13q-1 25 -3 51t-1 51q-2 3 -3 9t-1.5 13t-0.5 13v10zM116 138q0 5 2.5 8t6.5 4.5t8.5 2t9.5 0.5h3q8 -1 14.5 -1.5t10.5 -3t6 -7.5t2 -14q0 -6 -3 -8.5
t-7.5 -3t-9 -0.5h-7.5q-7 0 -13 0.5t-11 2.5t-8.5 6.5t-3.5 13.5zM126 135q0 -3 1.5 -6.5t5.5 -3.5h31q1 0 1.5 1.5l1 3t0.5 3v1.5v5t-3 2h-13l-1.5 0.5t-3.5 1t-3.5 0.5h-1.5h-3.5t-5 -1t-4.5 -2.5t-2 -4.5zM170 37h-3q-2 0 -6 0.5t-8.5 0.5t-7.5 0.5t-4 0.5q-3 0 -9.5 1
t-13.5 2.5t-12.5 4t-5.5 6.5v31q0 6 4.5 9.5t10.5 5t12 2t9 0.5q7 0 17.5 -0.5t19.5 -3.5t15.5 -8.5t6.5 -15.5v-7.5v-7t-0.5 -7t-1.5 -7.5q-1 -3 -4 -4.5t-6.5 -2t-7 -0.5h-5.5zM110 81q0 -1 0.5 -2l1.5 -3q14 -2 30.5 -4t32.5 -2h7l1.5 3t0.5 3q0 5 -3.5 7.5t-7.5 4
t-8.5 1.5h-7.5h-19h-20q-2 -1 -5 -3t-3 -5zM108 60q0 -3 3.5 -5t9 -3.5t12 -2.5t13 -1.5t11.5 -0.5h7h2h4h3h2q3 0 6 2.5t3 5.5t-4 5q-3 0 -12 1t-19.5 1.5t-19.5 1.5t-12 1h-2q-2 0 -4.5 -1.5t-2.5 -3.5z" />
</svg>
