<?xml version="1.0" standalone="no"?>
<!DOCTYPE svg PUBLIC "-//W3C//DTD SVG 1.1//EN" "http://www.w3.org/Graphics/SVG/1.1/DTD/svg11.dtd" >
<svg xmlns="http://www.w3.org/2000/svg" xmlns:xlink="http://www.w3.org/1999/xlink" version="1.1" viewBox="-10 0 266 256">
   <path fill="currentColor"
d="M51 249q1 1 2 1.5t2 0.5q2 0 4.5 -2t2.5 -5v-32q0 -1 -0.5 -3.5t-1.5 -3.5v0q0 -4 1 -8t1 -8q0 -11 -1 -22.5t-1 -23.5v-2q0 -2 0.5 -7.5t0.5 -12.5t0.5 -13t0.5 -8q0 -6 -0.5 -14t-0.5 -17q0 -8 1 -16.5t4 -15.5t8 -11t14 -5h6.5h10.5h10h7q2 -2 2.5 -1.5t2.5 0.5v14
l-1.5 0.5t-4.5 1t-5.5 1t-4.5 0.5h-3h-4h-3h-2q-2 0 -3.5 1.5t-2.5 3t-2 2.5l-2 2l-3 6t-1 6t1.5 8t4 7.5t5.5 6.5t6 5v0q0 3 -2.5 4.5t-6.5 2.5t-8.5 1.5t-8 1.5t-5.5 2t-1.5 3.5t2 3t2.5 0.5h2q1 0 4 -1t7 -1.5t7 -1.5t5 -1q2 -1 4.5 -2t4.5 -2.5t3.5 -3.5t1.5 -5
q0 -5 -3 -8t-6.5 -5.5t-6.5 -5.5t-3 -10q0 -6 5 -9t11.5 -4.5t12.5 -1.5h11h11.5t15 2t13 6t5.5 12q0 4 -2 7t-4.5 4.5t-6 2.5t-6.5 3t-5 4t-2 7v1t1 1q0 1 1 2t2 2.5t2.5 2.5l1.5 1h2q6 4 12.5 7t13.5 3h6q2 -1 2.5 -2t0.5 -3q0 -3 -5.5 -4.5t-12 -2.5t-12 -3t-5.5 -6
q0 -2 1.5 -3.5t4.5 -2.5l6 -2t6 -3.5t4.5 -7t1.5 -11.5q0 -9 -3.5 -13.5t-9.5 -6.5t-12.5 -2.5t-12 -1t-9 -2.5t-3.5 -8v-2l6 -1.5t5 -0.5q11 0 22 1t22 1h6q2 -1 2.5 -2t0.5 -3t-1.5 -3t-3.5 -2t-4 -1h-3h-101q-14 0 -20.5 2.5t-8.5 7.5t-2.5 13t-3.5 19q-2 32 -2 62v63v70
zM169 239q0 3 2.5 5t4.5 2q3 -3 3 -5v-6q0 -18 -1.5 -36t-1.5 -36q0 -8 3 -10t5.5 -2t5.5 -0.5t3 -4.5h-38q-1 0 -1.5 1t-0.5 2q0 3 2 4t4.5 1t5 1.5t2.5 4.5q0 2 0.5 5.5t0.5 7.5t0.5 8t0.5 5v10.5v16.5v15.5v10.5zM83 186q0 9 -2 16.5t-4.5 14.5t-4 14t-1.5 14
q4 0 6.5 -1.5t3.5 -4t1 -6t1 -7.5q3 -11 5 -21.5t2 -23.5v-3v-6q0 -2 -0.5 -5t-0.5 -4q-3 -4 -5 -10t-2 -12q0 -3 2.5 -5t5.5 -3.5t6.5 -2t5.5 -0.5q9 0 15 4t6 14q0 5 -1 8.5t-2.5 7t-3.5 7.5t-2 9v2.5v5.5t0.5 6t0.5 5q1 3 2 10t2.5 14t4 12.5t5.5 5.5q2 0 3.5 -1.5
t1.5 -3.5t-1 -5t-2.5 -5.5l-3 -5t-1.5 -5.5q0 -1 -0.5 -3t-1 -5t-1 -5.5t-0.5 -4t-0.5 -3.5t-0.5 -4v-3.5v-2.5q0 -5 1.5 -10t3.5 -9.5t3.5 -9.5t1.5 -11q0 -4 -1.5 -7.5t-4.5 -6.5t-6.5 -5t-7.5 -4l-2.5 -0.5t-3 -1t-1.5 -2t-1.5 -3t-1.5 -2.5l-2 -2q-2 0 -2.5 1.5t-1 3.5
t-0.5 5q0 2 -1 3q-2 3 -5.5 3.5t-7.5 1.5t-6.5 3.5t-2.5 9.5q0 6 1.5 11.5t3.5 11t3.5 11t1.5 11.5zM99 167v74h6v-3.5t0.5 -6t0.5 -6v-3.5v-70q2 -2 5 -3l6 -2v-1q0 -1 -0.5 -2t-1.5 -2h-10h-8q-5 0 -9 2q0 3 1.5 3.5l3 1l3 1t1.5 2.5zM140 238q0 3 1.5 3h3.5t4 -3.5
t3.5 -8.5t3 -11t2 -11.5t1 -10t0.5 -5.5t-0.5 -4t-0.5 -4q-1 -2 -2 -6.5t-2.5 -9t-2.5 -9t-2 -6.5v-3q0 -5 1 -8t3 -5t5 -3t6 -3q1 -1 4.5 -1h4.5q10 0 16.5 4t6.5 15q0 3 -1 7.5t-2 9.5l-2 10t-1 10v7t0.5 11.5l1 13t2 12t3.5 9t5 3.5t4 -0.5t2 -2.5q-4 -12 -6.5 -22
t-2.5 -23v-9v-6t0.5 -6t1.5 -7q0 -2 1 -4.5t1.5 -5t1.5 -5.5t1 -5t-1 -5l-2 -6t-2.5 -5t-4.5 -2l-18 -6q-2 0 -2.5 -1.5l-1 -3l-1 -3t-2.5 -1.5t-3 1.5l-2 3t-2 3.5t-3 3q-3 3 -6.5 4.5t-7 3.5t-5.5 5.5t-2 9.5q-1 6 1 12t4 12.5t4 12.5t2 13q0 11 -4 21t-7 21v0zM129 102
q0 3 2 3.5t3 0.5l1 -0.5t2 -0.5q0 -3 1 -5t1.5 -4t0.5 -4v-4q0 -4 -1 -8.5t-1 -8.5q0 -5 4 -6t9 -1h10.5t7.5 -4l-3 -3h-60l-0.5 0.5l-0.5 0.5q-1 1 -1.5 2.5l-0.5 1.5q0 1 2 2t3 1h21l0.5 0.5t1.5 0.5v1q0 6 -1 11t-1 11v13z" />
</svg>
