<?xml version="1.0" standalone="no"?>
<!DOCTYPE svg PUBLIC "-//W3C//DTD SVG 1.1//EN" "http://www.w3.org/Graphics/SVG/1.1/DTD/svg11.dtd" >
<svg xmlns="http://www.w3.org/2000/svg" xmlns:xlink="http://www.w3.org/1999/xlink" version="1.1" viewBox="-10 0 266 256">
   <path fill="currentColor"
d="M67 18l-4 2q-1 3 0 4.5t3 2.5t4.5 1.5t4.5 0.5l46 4l-1 24l-18 1q-8 1 -14.5 3t-12.5 8q-6 12 -6.5 26t0.5 28v99q0 4 -1.5 10l-3.5 14q-4 15 0 22l6 -1q4 -6 6 -20q1 -7 1.5 -12.5t0.5 -9.5l1 -105v-20v-10t2 -10q3 -8 10 -10q8 0 15 -2l54 -2h9t7.5 -0.5t7 -2t7.5 -5.5
q3 -5 4 -15t-5 -15q-4 -3 -8.5 -4t-9 -1.5t-9.5 -0.5h-10h-55zM132 57v-25l33 1l17 1q2 1 2.5 3.5t0.5 5.5t-0.5 5.5t-1.5 3.5q-7 6 -24 6q-8 0 -14.5 -0.5t-12.5 -0.5zM97 89l-5 2q0 8 7 8h13h30q16 2 28 11l2 8t1 9q1 11 -2 17q-2 -3 -4.5 -5.5t-5.5 -6.5q-13 -5 -37 -7
t-38 2q-3 7 5 8q4 1 7 1h6q7 1 15 1h15q15 -1 27 10l4 7q-1 4 -8 5q-2 1 -5 1h-5q-5 1 -14 1h-15q-17 -1 -26 3q-1 3 0.5 4.5t4 2.5t4.5 1h4l48 -3l15 -3l4 22l8 51l2 12t4 10q8 -1 6 -10q-1 -5 -1.5 -8.5t-0.5 -6.5l-9 -58q-2 -5 -3 -12q-2 -5 1 -10q2 -6 2.5 -10.5
t1.5 -9.5v-13q0 -6 -1.5 -12t-5.5 -10q-13 -11 -38 -12h-22h-19z" />
</svg>
