<?xml version="1.0" standalone="no"?>
<!DOCTYPE svg PUBLIC "-//W3C//DTD SVG 1.1//EN" "http://www.w3.org/Graphics/SVG/1.1/DTD/svg11.dtd" >
<svg xmlns="http://www.w3.org/2000/svg" xmlns:xlink="http://www.w3.org/1999/xlink" version="1.1" viewBox="-10 0 266 256">
   <path fill="currentColor"
d="M140 177q2 0 3.5 4t3 9.5t3 10.5t1.5 6q3 7 6 11.5t6.5 9t7.5 8t9 8.5q4 3 9.5 6t10.5 3q3 0 3 -3t-2.5 -5t-5.5 -3q-13 -11 -21.5 -24.5t-14.5 -30.5l-4 -8t-2 -9q0 -3 1.5 -5.5t3 -6t3 -6.5t1.5 -7q0 -11 -5.5 -17.5t-13.5 -10t-18 -5t-19 -1.5q0 3 2.5 4.5t4.5 1.5
q2 1 5 2t6.5 2t7 1.5t4.5 0.5q1 2 2.5 2.5t2.5 1l2 1t2 2.5q1 0 1.5 1.5t1.5 3t1.5 2.5t0.5 2v1.5v2.5v2.5v4.5t-0.5 3.5t-1.5 1.5h-3q-5 -6 -12.5 -11t-16 -7.5t-17.5 -3.5t-17 -1q0 3 1 4t3 1q1 1 5 2t9 2t9.5 2t5.5 2q4 1 7.5 2.5t6.5 4t5 5.5t2 8q0 2 -2.5 3t-6 1.5
t-6.5 1t-4 0.5q-6 0 -11.5 -3t-10 -6t-8.5 -5.5t-8 -2.5q-2 0 -3 0.5t-1 2.5v2q9 10 19.5 15.5t23.5 5.5q6 0 11 -1.5t11 -1.5zM103 69q0 6 -3.5 13t-8.5 13t-11.5 11t-11.5 8q-1 1 -2 1t-3 0.5t-3 1t-1.5 1t-1 1.5l-0.5 1v1.5v0.5q12 0 22 -5t17 -13t12.5 -18.5t9.5 -21.5
q1 -2 6 -3.5t10.5 -3t10.5 -2t6 -0.5q8 0 8 7v2q-3 5 -5.5 9t-4.5 8t-3 8.5t-1 9.5q0 6 4 9.5t9 6t11 4t10 1.5q1 0 3.5 0.5t6 0.5h6.5h3q0 -3 -3 -5t-7.5 -3t-10 -2.5t-10.5 -3.5t-8 -5.5t-3 -8.5v-2v-3q1 -1 3.5 -4.5t4.5 -7l4 -7t2 -6.5q0 -5 -2 -8t-6 -6h-2h-3.5h-3.5
h-2q-7 0 -14 1.5t-15 1.5q-2 0 -3 -1.5t-1 -3.5v-3v-5v-5v-3q0 -2 -2 -5.5t-4.5 -7t-5 -6.5t-4.5 -3q-1 0 -1.5 1t-0.5 2q0 3 1.5 8l3 10t3 9.5t1.5 7.5q-1 4 -3.5 5.5t-5.5 1.5q-10 0 -17.5 -5.5t-12.5 -11.5t-8.5 -11.5t-5.5 -5.5v0l-2 2t-2 1q3 7 7 13.5t9.5 11.5t11.5 9
t13 6h3.5h3.5q2 1 2.5 2.5t0.5 3.5z" />
</svg>
