<?xml version="1.0" standalone="no"?>
<!DOCTYPE svg PUBLIC "-//W3C//DTD SVG 1.1//EN" "http://www.w3.org/Graphics/SVG/1.1/DTD/svg11.dtd" >
<svg xmlns="http://www.w3.org/2000/svg" xmlns:xlink="http://www.w3.org/1999/xlink" version="1.1" viewBox="-10 0 266 256">
   <path fill="currentColor"
d="M122 112q0 3 2.5 8.5t7 11.5t9 10t7.5 4h24l0.5 3t0.5 4q2 12 4 27t6 30t11.5 27t19.5 17l2 -1v-1q0 -3 -3 -6t-6 -6.5l-6 -7t-4 -5.5q-3 -9 -6 -20t-5.5 -22t-4 -22t-1.5 -20v-3q1 0 2 -1.5t2.5 -2.5t2.5 -2.5l1 -1.5q5 -5 6.5 -13t1.5 -14q0 -7 -3 -12t-7 -8.5
t-9.5 -6.5t-11.5 -5v0h-1l-1 0.5l-1 0.5q3 3 7.5 7t8.5 8.5t7 9.5t3 10q0 2 -0.5 5t-2 6.5t-4 6t-4.5 2.5t-3 -2t-1.5 -5t-1.5 -5.5t-1 -4.5q-2 -3 -4 -5t-4.5 -4t-5.5 -3t-6 -3q-2 -1 -3 -3.5t-2.5 -4.5t-3 -3.5t-5.5 -1.5q0 7 5.5 13t11.5 11.5t11.5 12t5.5 13.5v1
q0 1 -0.5 1.5t-1.5 0.5h-20l-1 -0.5t-2 -1.5q0 -1 -1.5 -2.5t-3.5 -3t-3.5 -3l-1.5 -1.5q-2 -3 -3 -5l-2 -4t-3 -3t-5 -1zM92 246q1 2 1.5 3.5t2.5 1.5t2 -1.5v-2.5q0 -9 -1 -18.5t-2.5 -18.5t-2.5 -18.5t-1 -18.5q0 -16 1 -31t0 -31q2 -3 5 -5t5.5 -4t4 -4.5t1.5 -7.5
q0 -4 -1.5 -7.5t-3.5 -6.5t-5.5 -4.5t-7.5 -1.5q-3 0 -8 1t-10 3.5t-8.5 6t-3.5 7.5q0 7 1.5 9.5t4.5 4.5t6.5 3.5t7.5 5.5q3 2 4 6t1.5 8t0.5 8v6q0 12 -2 23.5t-2 22.5q0 1 0.5 3.5t0.5 3.5q1 3 2 10.5t2.5 16.5t3 16.5t1.5 10.5zM54 187v10.5t0.5 15.5t2 14t4.5 6h1
l0.5 -0.5t0.5 -1.5v-59q4 -7 5.5 -16.5t1.5 -17.5q0 -3 -1.5 -7t-4.5 -7.5t-6.5 -5.5t-7.5 -2q0 3 1.5 6l3 6t3 6.5t1.5 7.5q0 11 -2.5 22.5t-2.5 22.5zM106 156v1q1 8 2 18.5t3 21t6.5 20t12.5 14.5h1h1l0.5 -1t0.5 -2l-0.5 -1t-0.5 -2q-6 -9 -9 -18t-7 -18v-63v-3t-1 -3.5
t-2.5 -3t-2.5 -1.5l-0.5 0.5l-0.5 0.5l-0.5 0.5l-0.5 0.5q0 1 0.5 2.5l0.5 1.5v9q0 7 -1.5 13.5t-1.5 12.5zM71 91q0 -3 2 -5t4.5 -3t5.5 -2t6 -1q1 0 4.5 1.5t3.5 3.5v12q0 1 -1.5 2l-3 2t-3.5 1.5t-3 0.5q-5 0 -10 -3t-5 -9zM200 29v5.5v9.5v9v6q1 3 1.5 7.5t2.5 8.5
t4.5 7.5t6.5 3.5q0 -5 -1.5 -8.5t-3 -7.5t-2.5 -8.5t-2 -9.5q0 -9 2 -16t2 -14q0 -5 -4 -7h-9q-11 0 -14.5 3t-4.5 8t-1.5 12t-4.5 14h-5h-5q0 -1 -1.5 -1.5l-1.5 -0.5v-29q0 -1 -1.5 -2t-3.5 -2t-4 -1.5t-3 -0.5q-9 0 -12.5 4.5t-4.5 10.5t-1 13.5v12.5q0 3 -2 6t-4 5.5
t-4 5.5t-2 6q4 0 6 -2q7 -6 9.5 -11.5t3.5 -11.5t1 -12.5t3 -14.5q1 -1 2 -1.5t3 -0.5l1.5 0.5t2.5 1l2 1t1 1.5v26l4 4h18q4 0 6 -3t3 -7.5t1.5 -9.5t1.5 -9.5t3 -7t7 -1.5q2 1 3 3.5t1 4.5zM40 75q0 1 1 1.5t3 0.5h1l8 -8t10 -9.5t10.5 -8t10.5 -3.5t8.5 2.5t7 5.5
t7.5 5.5t8 2.5l0.5 -0.5t0.5 -1.5q-5 -6 -11.5 -11.5t-12.5 -12.5q1 -5 5 -8.5t8 -6.5t7.5 -6t3.5 -8h-5q-3 2 -6.5 6t-7.5 8t-8.5 6.5t-7.5 2.5h-3h-2q-2 -2 -5.5 -4t-7.5 -3.5t-7.5 -2.5t-5.5 -1h-1.5t-1.5 2q0 1 1 2.5t2 1.5q5 4 11 7t11 5q0 1 0.5 1.5t0.5 1.5
q0 2 -1.5 3.5t-3.5 3t-4 2.5l-4 2l-18 18q0 1 -0.5 2t-1.5 1v1z" />
</svg>
