<?xml version="1.0" standalone="no"?>
<!DOCTYPE svg PUBLIC "-//W3C//DTD SVG 1.1//EN" "http://www.w3.org/Graphics/SVG/1.1/DTD/svg11.dtd" >
<svg xmlns="http://www.w3.org/2000/svg" xmlns:xlink="http://www.w3.org/1999/xlink" version="1.1" viewBox="-10 0 266 256">
   <path fill="currentColor"
d="M124 249q0 1 0.5 1.5t1.5 0.5l1.5 -0.5t1.5 -1.5q6 -11 10 -22.5t8.5 -23.5t10.5 -22.5t16 -19.5q2 -2 3 -3.5t4 -1.5t4 3v17q0 10 -0.5 20.5t-0.5 20.5q0 2 0.5 5t2.5 3h1q1 -1 1.5 -2.5l1 -3t0.5 -3.5v-2v-50q-1 -5 -1.5 -10t-0.5 -10.5v-10.5t-1 -10q0 -4 -3 -8t-3 -7
q0 -6 2.5 -12t2.5 -12q0 -2 -1.5 -6.5t-3.5 -9t-5 -8t-6 -3.5h-25q-2 0 -2.5 -1.5t-0.5 -2.5q0 -8 2 -15t2 -14v-1v-3t-0.5 -4.5t-1.5 -4t-3 -1.5t-3.5 1.5t-1.5 3.5t1 4t1 4q0 9 -2 17t-1 16q-1 2 -5.5 2.5t-10 1t-9.5 1.5t-4 3q0 1 1 1.5t2 0.5q6 0 12 -0.5t12 -0.5v23
q0 2 -3.5 3t-8 2t-9 1h-5.5q-4 0 -5 -0.5t-2 -3.5q0 -2 -0.5 -6.5t-1 -10t-1 -10t-0.5 -5.5q-1 -8 -5 -14t-13 -6q0 5 3.5 8.5t4.5 6.5q0 1 1 7t2 12.5t2 12.5t1 8v1v0l-2.5 2.5t-2.5 1.5l-21 3q-3 0 -3 3q0 2 2 2.5t4 0.5h1q1 0 3.5 -0.5t4.5 -1t4.5 -1t3.5 -0.5
q1 1 2.5 1.5t1.5 1.5q-2 9 -4 17t-4.5 15.5t-6.5 14.5t-11 15v1v0q0 1 1 1.5t2 0.5q3 0 6 -3t4 -5q2 -3 4 -7l4 -8l3.5 -7l1.5 -3q1 -1 2 -5t2 -9t2 -9t2 -5q1 -4 4 -6.5t6.5 -3.5t8 -1h8.5h5l1 1v24l-1 1h-17h-1h-4t-3.5 1t-2.5 2v1v0q0 1 1 2t2 1l25 3v1.5v3.5
q0 4 -0.5 7.5t-1.5 7.5q-1 2 -3 2h-3q-8 0 -15.5 -2.5t-14.5 -2.5v3q7 7 12.5 19t9.5 25t6 26.5t2 22.5zM111 168l2 -3h43l0.5 0.5t1.5 0.5v1l-2.5 5t-5.5 11.5t-6 12t-4 7.5q0 1 -1 3.5t-2.5 5.5t-3 5t-4.5 2v0v0q-3 -3 -3.5 -6l-1 -6t-0.5 -6.5t-1 -6.5q-2 -6 -5.5 -13.5
t-6.5 -12.5zM137 156v-3v-4q0 -8 2 -11.5t5.5 -5t8.5 -2t11 -3.5q3 -1 6 -3.5t7 -2.5q1 0 2 0.5t2 3.5q1 5 1.5 9t0.5 8t-2 6t-4 3.5t-5 2.5l-6 2q-1 0 -4.5 0.5t-7.5 0.5t-7.5 0.5t-4.5 0.5h-1h-1l-1 -0.5t-2 -1.5zM139 121v-6t0.5 -6t1.5 -5.5t4 -3.5l3 -0.5l3 -0.5
q2 0 6 1t8 3t7 4.5t3 5.5q0 1 -3.5 3t-8.5 3.5t-10 2.5t-7 1h-6l-1 -2v0zM140 90v-3.5v-3.5v-4q0 -3 0.5 -6t1.5 -5t3 -3h7q14 0 19.5 6.5t5.5 20.5v6l-1.5 1.5l-0.5 0.5v0h-1q-2 0 -4 -2t-4 -3q-6 -2 -12 -3.5t-14 -1.5z" />
</svg>
