<?xml version="1.0" standalone="no"?>
<!DOCTYPE svg PUBLIC "-//W3C//DTD SVG 1.1//EN" "http://www.w3.org/Graphics/SVG/1.1/DTD/svg11.dtd" >
<svg xmlns="http://www.w3.org/2000/svg" xmlns:xlink="http://www.w3.org/1999/xlink" version="1.1" viewBox="-10 0 266 256">
   <path fill="currentColor"
d="M121 249q1 1 2 1.5t2 0.5q2 0 3.5 -0.5t0.5 -3.5q0 -17 0.5 -32t0.5 -29.5t0.5 -29t0.5 -30.5v-5q0 -2 -0.5 -4t-1.5 -3.5t-4 -1.5h-2q0 3 -0.5 12.5t-1 20t-1 19.5t-0.5 13v3v2v13.5t0.5 20t0.5 20v13.5zM196 240q2 6 6 6t5 -3t1 -6v-3t-1 -2l-21 -75v-1v-1q0 -4 2 -5
t5 -4q5 -6 6.5 -15t1.5 -17q0 -12 -1.5 -19.5t-6 -12t-12 -6.5t-18.5 -2h-4t-6.5 0.5t-6 1.5t-2.5 2v1v0q0 1 1.5 2t1.5 2h14t15.5 1.5t12.5 6.5t5 14v8t-1.5 10t-3 9.5t-4.5 6.5q-2 -1 -3.5 -3.5t-2 -5.5l-1 -6t-0.5 -4q-3 -2 -5 -2.5t-5 -0.5h-5.5t-5 1t-4 3t-1.5 5
q4 0 8.5 0.5t8 2.5t6 6t2.5 10q0 3 -2.5 6.5t-6 6.5t-7.5 5t-7 2h-2.5t-1.5 -2v-25q0 -1 -1.5 -3t-2.5 -3h-0.5h-0.5h-1v0q0 1 -1 2t-1 2v16q0 19 2 37.5t5 37.5q1 2 2 3.5t4 1.5q2 0 3.5 -1.5t1.5 -3.5q0 -8 -1.5 -14.5t-3.5 -13t-3.5 -13t-1.5 -14.5h2q2 0 3.5 1t3.5 1
t4 -1.5t4.5 -3l5 -3t4.5 -1.5t4 4t3 8.5t1.5 9t0.5 5.5q1 5 3.5 9t3.5 9q0 1 0.5 5.5t1 9.5t1 9t0.5 6zM94 216q-3 5 -4 11t-1 11q4 0 6.5 -2t3.5 -5t1.5 -6.5t1.5 -6.5q0 -3 0.5 -11t1 -16.5t1 -16t0.5 -9.5v-6v-9v-8.5v-5.5h-7q0 2 -0.5 6t-0.5 9v9.5v6.5q0 1 -1 3.5
t-2 3.5v42zM49 109v22q0 3 2.5 5.5t5.5 4t6.5 2t5.5 0.5h5q4 0 8 -1t6.5 -2.5t2.5 -5.5v-30h64q1 0 1.5 -1t0.5 -2v-2.5v-2.5h-25l-0.5 -1t-0.5 -2t-1 -2l-1 -1v-28q0 -2 4.5 -2.5t9.5 -0.5t9.5 -1.5t4.5 -5.5q0 -3 -2.5 -3.5t-4.5 -0.5q-3 0 -6 1t-6 1q-2 0 -5.5 -0.5
t-3.5 -4.5v-26q0 -2 -2 -3.5t-4 -1.5t-3 0.5t-1 3.5v77h-28v-41l-1.5 -1t-2.5 -1h-1h-1q-1 0 -2.5 1l-1.5 1v29h-24v-26l-1.5 -1t-2.5 -1h-3.5h-3.5v50zM54 101q0 -4 2 -6t5.5 -3t6.5 -1h6h4h3l3 4v3v6v8t-1 9.5t-3.5 7.5t-7.5 3q-6 0 -9 -3t-5 -8t-3 -10.5t-1 -9.5z" />
</svg>
