<?xml version="1.0" standalone="no"?>
<!DOCTYPE svg PUBLIC "-//W3C//DTD SVG 1.1//EN" "http://www.w3.org/Graphics/SVG/1.1/DTD/svg11.dtd" >
<svg xmlns="http://www.w3.org/2000/svg" xmlns:xlink="http://www.w3.org/1999/xlink" version="1.1" viewBox="-10 0 266 256">
   <path fill="currentColor"
d="M56 236q0 2 2.5 3t5.5 2t6 1.5t5 0.5q30 0 60.5 -1t60.5 -4l2 -2l2 -2v-1t-2 -2.5t-4.5 -2l-5 -1t-3.5 -0.5h-52q-2 0 -2.5 -2t-1 -4.5t-0.5 -4.5v-3q0 -5 1 -10t3 -10q2 1 8 1q5 0 10.5 -0.5t10 -1.5t4.5 -3t-1.5 -3.5t-3.5 -2.5t-4 -1.5t-3 -0.5q-4 0 -8 1t-9 1h-4
q-2 -2 -2 -3v-4v-7v-7t0.5 -6.5t2.5 -5.5q11 -1 17.5 -2t10.5 -2.5t6 -4t3.5 -6.5t3.5 -10t5 -14q5 0 9 -2t6.5 -5t4.5 -6.5t2 -8.5q0 -6 -2.5 -10t-6 -6.5t-8.5 -3t-10 -0.5q-11 0 -15.5 6.5t-4.5 15.5q0 7 2 10t5 4.5t5 3.5t2 6v3l-0.5 0.5t-1 1.5t-2.5 3q-4 9 -9.5 13.5
t-17.5 4.5q-2 0 -3.5 -0.5t-1.5 -2.5v-1.5v-0.5q0 -2 0.5 -7.5t1 -11.5t1 -11.5t0.5 -6.5v-3t-0.5 -4.5t-0.5 -4t-1 -2.5v-11v-10q0 -2 3.5 -4t8 -5t8 -8t3.5 -12q0 -11 -5.5 -16.5t-16.5 -5.5q-5 0 -12 1t-12.5 3.5t-9.5 7t-4 10.5q0 8 2 12.5t5 6t6.5 2.5t6.5 3t5 6.5
t2 13.5v10.5t-2 9.5v37q0 3 -1.5 4t-3.5 1q-8 0 -12.5 -1.5t-8 -5t-5.5 -8.5t-4 -11v-1q0 -1 2.5 -3t6 -5.5t6 -8t2.5 -9.5t-2.5 -8t-6 -4.5t-8 -2.5t-8.5 -1h-2q-1 0 -2.5 0.5t-3.5 0.5h-2q-6 3 -10 7.5t-4 11.5q0 10 7 15.5t16 5.5q2 3 2.5 8.5t1.5 10.5t3.5 9.5t7.5 4.5
l25 4q1 0 1.5 1t0.5 2v2v3q0 3 0.5 6.5t0.5 7.5q0 3 -1 6.5t-4 6.5h-21h-4t-4.5 0.5t-5 2t-3.5 2.5q4 4 7.5 5t8.5 1t10.5 -1.5t11.5 -1.5q3 0 3 3v4q0 1 -0.5 2.5l-0.5 1.5q0 1 -1 3t-1 3l1 2t1 3l0.5 1.5l0.5 1.5q0 1 -0.5 3.5t-1.5 4.5t-2 3t-2 1h-38q-1 0 -4 -0.5
l-3 -0.5q-1 0 -1 -0.5v-0.5q-1 0 -3 1t-3.5 2t-3 2.5t-1.5 2.5zM66 93q0 -3 1.5 -5.5t4 -4t5.5 -2t6 -0.5q4 0 8 2t4 7q0 4 -2 6t-5 3.5t-6.5 2t-7.5 0.5q-1 0 -2.5 -1t-3 -2.5t-2 -3t-0.5 -2.5zM163 92q0 -7 2.5 -10.5t9.5 -3.5q6 0 11 2.5t5 8.5q0 4 -1.5 6.5t-4 3.5
t-6 1.5t-6.5 0.5h-3h-3l-3 -4l-0.5 -2t-0.5 -3zM107 40q0 -5 2.5 -8t5.5 -5t7.5 -3t8.5 -1h4.5h4.5q4 3 6 6t2 8q0 4 -2.5 7t-6 4.5t-7 2t-7.5 0.5q-2 0 -5.5 -0.5t-6 -2t-4.5 -3.5t-2 -5z" />
</svg>
