<?xml version="1.0" standalone="no"?>
<!DOCTYPE svg PUBLIC "-//W3C//DTD SVG 1.1//EN" "http://www.w3.org/Graphics/SVG/1.1/DTD/svg11.dtd" >
<svg xmlns="http://www.w3.org/2000/svg" xmlns:xlink="http://www.w3.org/1999/xlink" version="1.1" viewBox="-10 0 266 256">
   <path fill="currentColor"
d="M122 245q0 4 5 4q3 0 4.5 -5t2 -11.5t0.5 -13t1 -8.5q3 -7 8.5 -9.5t12 -4l13 -3t11.5 -5t8.5 -11t3.5 -21.5q0 -23 -12 -38.5t-36 -22.5q-3 -1 -6 -1t-6 -2q1 -8 0.5 -15.5t-1.5 -14.5q-1 -2 -1.5 -2h-2.5q-3 0 -3.5 3.5t-1.5 5.5v5v8v6.5v5.5q-1 2 -7.5 4t-15.5 4.5
t-17.5 5.5t-13.5 9q1 1 2 1h2q4 0 8 -1t8 -2.5t7.5 -3.5t7.5 -4q7 -2 15 -3t16 -1q13 0 22 5t14.5 13.5t8.5 19t3 20.5q0 9 -3.5 14t-8.5 8t-11.5 5t-12.5 4t-11.5 6t-8.5 10q-2 3 -2.5 8t-1 10.5t-0.5 10.5v7zM67 188l0.5 1.5l0.5 1.5h3h2q6 0 12 -2t12.5 -4.5t12 -5.5
t11.5 -5q3 -1 7 -2t9 -2t9.5 -2.5l7.5 -2.5q2 -1 2 -3v-4q-9 0 -20.5 3t-24 7t-24 9t-19.5 9l-0.5 0.5t-0.5 1.5zM146 138q-3 0 -10 1t-16 3t-18 4.5t-16 6t-12 7t-5 7.5q7 0 12.5 -2t11.5 -5t11.5 -6t11.5 -4q2 -1 6.5 -2t9.5 -2.5t10 -2.5t7 -1v-2q0 -1 -0.5 -1.5
t-2.5 -0.5zM70 140q0 2 2 2h3q9 0 15.5 -2.5t13.5 -5.5q4 -1 10.5 -1.5t13 -2t11.5 -4t5 -6.5q-19 0 -37 5.5t-36 12.5l-0.5 0.5l-0.5 0.5v1zM147 72q0 4 2 7t5 5.5t6.5 4t6.5 1.5q11 0 17.5 -5t6.5 -16q0 -9 -6 -13t-15 -4h-3h-2q-1 0 -3 1t-4.5 2t-4.5 2.5t-3 1.5
q-2 5 -2.5 7t-0.5 6zM68 79q2 3 5 4.5t6 2.5t6.5 1.5t6.5 0.5q10 0 13 -5.5t3 -13.5v-6q-9 -11 -24 -11l-6 4t-5.5 4.5t-3.5 5.5t-1 7v3v3zM153 70q0 -2 1.5 -4t4 -3.5t5 -2.5t4.5 -1q6 0 10 3t4 9q0 7 -4.5 9.5t-10.5 2.5t-10 -4t-4 -9zM76 73q0 -6 5 -8.5t10 -2.5
q2 0 3.5 0.5t3.5 1.5q0 1 0.5 2.5t0.5 3t0.5 3t0.5 2.5q0 2 -1.5 3t-3 1.5t-3.5 1t-3 0.5q-2 0 -4 -0.5t-4 -1.5t-3.5 -2.5t-1.5 -3.5zM102 28q0 6 2 9.5t6 5.5t8.5 2.5t9.5 0.5t9.5 -0.5t7.5 -2t5 -5t2 -9.5q0 -2 -0.5 -5t-1.5 -6t-3 -5t-5 -2h-24q-4 0 -6.5 1.5t-4.5 4.5
t-3.5 6t-1.5 5zM111 30v-4.5t2 -4.5l2.5 -0.5t5 -1.5t5 -1.5t3.5 -1.5h2q6 0 9.5 3t3.5 8q0 4 -1.5 6.5t-4 4t-6 2t-6.5 0.5t-5.5 -0.5t-4.5 -1.5t-3.5 -3t-1.5 -5z" />
</svg>
