<?xml version="1.0" standalone="no"?>
<!DOCTYPE svg PUBLIC "-//W3C//DTD SVG 1.1//EN" "http://www.w3.org/Graphics/SVG/1.1/DTD/svg11.dtd" >
<svg xmlns="http://www.w3.org/2000/svg" xmlns:xlink="http://www.w3.org/1999/xlink" version="1.1" viewBox="-10 0 266 256">
   <path fill="currentColor"
d="M134 216q0 1 1.5 7t3.5 12t5 11t5 5q3 0 4 -2t1 -5q0 -4 -1.5 -6.5t-4 -5.5t-4.5 -7t-2 -10v-7q3 -3 6 -4.5t6.5 -2l7 -1t6 -3t4.5 -6.5t2 -12q0 -5 -3 -7.5t-6.5 -4.5t-8 -2.5t-8.5 -1.5q-1 -2 -1 -3.5v-3.5q0 -5 3 -7.5t6.5 -5t6.5 -5t3 -9.5q0 -3 0.5 -9t1 -13
t1 -13.5t0.5 -8.5v-2q0 -2 -1.5 -3t-3.5 -1q-5 0 -5 3v7h-8l-2 -1t-4.5 -2.5t-5 -3.5t-4.5 -3t-2.5 -2t-0.5 -3q0 -3 1 -4t5 -1h27q1 0 3 -2t2 -3v-1q0 -1 -1 -2t-2 -1h-5h-6q-3 0 -11 0.5t-16.5 1.5t-16.5 1.5t-11 0.5q-3 2 -6.5 4.5t-4.5 6.5v23v23q0 11 4 16.5t8.5 8
t8.5 3t4 2.5q0 5 -3.5 8.5t-8 6.5t-9 5.5t-7.5 5.5q-6 7 -7.5 16.5t-1.5 18.5v4.5v7t1 6t4 2.5t3.5 -1t0.5 -4q0 -4 -1 -8t-1 -9v0q1 -2 1.5 -5l1 -6l1 -6t1.5 -4q1 -5 3.5 -8t6 -5.5t7.5 -4t8 -2.5q0 -1 1.5 -1.5l1.5 -0.5q2 -4 2.5 -6.5t0 -4.5t-0.5 -3t1.5 -2t4.5 -2
t9 -2h1h1l2 0.5l2 0.5v4v3q0 1 -0.5 2t-0.5 2.5v3v1.5q1 4 4.5 5.5t8 2.5t8.5 2.5t4 5.5q0 6 -2.5 9t-6 4t-7.5 1t-7.5 2t-5.5 6.5t-2 13.5zM100 134v-2q8 -2 16 -2.5t16 -0.5q5 -1 10.5 -2t10.5 -1h2h2l0.5 1t1.5 2v1q0 3 -4 5.5t-9 3.5t-10 1.5t-6 0.5h-7.5t-9.5 -0.5
t-9 -2t-4 -4.5zM97 116q0 -2 1.5 -5t4.5 -3h34q2 -1 3.5 -1h4.5q4 0 8 1t7 3v0.5v0.5q0 3 -2 4.5t-5.5 2.5t-6.5 1h-5q-1 0 -3.5 0.5t-5.5 0.5h-5.5h-3.5h-1q-2 0 -4 0.5t-4 0.5h-3h-3q-1 0 -3 -0.5t-4 -0.5h-3t-1 -2v-3zM132 86q1 0 4.5 1.5t7.5 4t7.5 4.5t4.5 3q-1 1 -3 1
t-4.5 0.5t-4.5 0.5h-3h-8h-12.5h-12.5h-8v-2l1 -0.5t2.5 -1.5l3 -2t2.5 -1l5 -2.5t6 -2.5t6.5 -2t5.5 -1zM97 84q0 -5 2 -7.5t5 -4t6.5 -2t7.5 -0.5h3h2q2 1 2.5 2t0.5 2q0 4 -2.5 6.5t-6 4.5t-8 2.5t-7.5 0.5t-4 -0.5t-1 -3.5zM68 19v7t0.5 10t1.5 9.5t3 5.5h10h14.5
t11 -2.5t7 -7t2.5 -14.5v-4.5v-5.5q-1 0 -2.5 -2t-2.5 -2h-0.5h-0.5v0l-3 10h-3t-7.5 0.5t-9 0.5t-7.5 1h-1q-2 0 -3 -2t-1.5 -3.5t-2 -3.5t-4.5 -2q-2 0 -2 1.5v3.5zM142 45q5 3 9 4t10 1q5 0 9.5 -0.5t8.5 -2t6.5 -4.5t2.5 -10v-5t-1 -8t-2.5 -6.5t-4.5 -2.5v3q0 1 -0.5 3
t-1.5 3.5t-3 1.5h-28q-1 0 -2 -1.5t-1.5 -3t-1.5 -3t-3 -1.5q0 1 0.5 3t0.5 3t0.5 5t0.5 8t0.5 8t0.5 5zM78 39q0 -3 3 -4.5t7.5 -2t9 -0.5h6.5q3 0 4.5 1t1.5 5q0 3 -3.5 4t-5.5 2h-2t-4.5 0.5t-5 0.5h-4.5h-1q-2 0 -4 -2t-2 -4zM145 35q0 -2 1.5 -3t3.5 -1h23q3 0 4.5 2.5
t1.5 4.5t-3 3.5t-6.5 2t-7.5 0.5h-4q-4 0 -8.5 -2t-4.5 -7z" />
</svg>
