<?xml version="1.0" standalone="no"?>
<!DOCTYPE svg PUBLIC "-//W3C//DTD SVG 1.1//EN" "http://www.w3.org/Graphics/SVG/1.1/DTD/svg11.dtd" >
<svg xmlns="http://www.w3.org/2000/svg" xmlns:xlink="http://www.w3.org/1999/xlink" version="1.1" viewBox="-10 0 266 256">
   <path fill="currentColor"
d="M93 172v2q8 10 13 18t9 16.5t6 18t4 22.5h0.5h0.5q2 0 3.5 -4t3 -9.5t3 -12.5t2.5 -13.5t2 -11.5t2 -7q3 -7 6 -13t8 -13v-6q-3 1 -5.5 2.5t-4.5 3t-4.5 2.5t-5.5 1h-4t-2 -4t3.5 -6.5t8.5 -3.5t10 -1h7v-1v-2.5t-2 -1.5h-24l-1 -2q0 -1 -0.5 -2.5t-0.5 -3.5v-3.5
t-1 -2.5q0 -1 -1 -2.5t-2 -1.5h-1q0 1 -0.5 2.5t-1.5 4t-1.5 4t-0.5 2.5l-0.5 0.5t-1.5 0.5q0 1 -1 1.5l-1 0.5h-20q-1 0 -2 1t-1 2v1q0 2 4 2.5t9 1t9.5 1.5t4.5 3v14h-29zM70 124v25.5t-1.5 26.5t-4.5 26t-8 25q-1 2 -2.5 4.5t-3 4t-2.5 4t-1 5.5q5 0 9.5 -5t7.5 -11.5
t5 -14t3 -11.5q0 -3 1 -9t2 -12.5t2 -11t1 -5.5q0 -2 0.5 -8.5t1 -13.5t0.5 -14v-10q0 -2 0.5 -7.5t0.5 -12.5q0 -6 -0.5 -12t-0.5 -9l5 -10q1 -2 5 -3t9 -2t10 -1h7h3.5h2.5l1 2v10l-0.5 0.5t-0.5 1.5q-8 5 -15 9t-14 11q-1 2 -1 4v5t1.5 6.5t3.5 6.5t5 5t7 2q3 0 3 -2
q0 -1 -2 -2.5t-4 -3.5t-4 -4.5t-2 -6.5q0 -3 1 -6t5 -3q2 0 3.5 2t3.5 4.5t4.5 4.5t5.5 2v-5l-10 -10v-1.5v-1.5q0 -3 2.5 -4t4.5 -1t4.5 1.5t5 4l4.5 4.5l3 3h3h3t2 -3q0 -2 -2.5 -3.5t-5 -4l-5 -5t-2.5 -7.5v-8t1.5 -5t3.5 -3t7 -2h3.5t5.5 -0.5t5.5 -0.5h3.5h5h7h7.5h5.5
q1 -1 1 -2v-3q0 -1 -0.5 -2t-1.5 -1.5t-1.5 -1t-0.5 -2.5q0 -4 2 -8.5t5 -8.5t5.5 -8t2.5 -8h-9t-7.5 0.5t-7.5 1.5l-8 2q-1 0 -3.5 0.5t-2.5 2.5v1q2 2 3.5 5t3.5 5.5t3.5 6t2.5 5.5v0.5v0.5v2t-2 1h-32q0 -4 1.5 -8.5t4 -8.5t4.5 -8.5t2 -9.5q-2 0 -8 0.5t-12.5 1t-11.5 1
t-5 2.5l0.5 1t1.5 2q3 5 6.5 10t7.5 10v4v2t-2 3q-9 1 -17.5 2.5t-17.5 3.5t-13.5 5.5t-6.5 8.5t-2.5 11.5t-0.5 14.5t0.5 14.5t0.5 14.5zM150 128q0 2 1.5 3.5t3.5 1.5h15q1 0 1.5 4t1.5 10.5t2 14.5t2 15.5t1.5 12.5t1.5 7q1 1 3 5l4.5 9l5 10l3.5 7q2 4 4.5 6t7.5 2
q0 -5 -1.5 -8.5t-4 -7t-5 -6.5t-4.5 -8q-4 -8 -6.5 -17.5t-4 -19.5t-2 -19.5t-0.5 -18.5q0 -4 1.5 -7.5t3 -6.5t3 -7t1.5 -8q0 -7 -3.5 -13t-9.5 -9q-1 -1 -3.5 -2t-5 -2.5t-4 -2l-1.5 -0.5h-5q0 3 4 6t8 6.5t7.5 8t3.5 10.5v3v2q0 2 -1.5 2h-2.5q-3 0 -5 -2t-4 -5t-4 -5
t-6 -2q-1 0 -2 0.5t-2 2.5q0 1 0.5 1.5t1.5 0.5l1 1l2 2t2.5 1.5t1.5 1t0.5 1l0.5 0.5q1 1 1.5 3t1.5 3.5t1.5 3t1.5 2.5v0v1v1v1q-3 1 -5 1h-4q-3 0 -5 0.5t-5 1.5v1zM114 185q0 -3 3.5 -5t7.5 -2h8h6v3l-7 15v4.5t-1 6t-2.5 5t-3.5 2.5v-0.5v-0.5q-1 -3 -2.5 -7t-3.5 -8
t-3.5 -7.5t-1.5 -5.5zM60 20l0.5 1t1.5 2l1 1t2.5 2t2.5 2.5l1 1.5q1 1 2.5 3.5t2.5 5.5t2.5 5t2.5 3q0 1 1 1h2t3 -0.5t2.5 -3t2 -6.5l3 -8l3 -8t1.5 -7h-5h-7h-7h-5h-2t-4 0.5t-4 1.5t-3 3zM170 27q0 -2 1.5 -3.5t3.5 -2.5t4 -1h4v0l0.5 1t1.5 2v0q0 1 -1.5 3t-3 4.5l-3 5
l-1.5 2.5q-3 -1 -4.5 -4.5t-1.5 -6.5zM76 27q0 -2 2 -4t4 -2h1.5t1.5 2v13q0 1 -1.5 1h-1.5q-3 0 -4.5 -3.5t-1.5 -6.5zM126 24v-2t1 -1h13q0 2 -0.5 4.5l-1 5t-1.5 4.5t-3 2h-1q-3 -1 -5 -5t-2 -8z" />
</svg>
