<?xml version="1.0" standalone="no"?>
<!DOCTYPE svg PUBLIC "-//W3C//DTD SVG 1.1//EN" "http://www.w3.org/Graphics/SVG/1.1/DTD/svg11.dtd" >
<svg xmlns="http://www.w3.org/2000/svg" xmlns:xlink="http://www.w3.org/1999/xlink" version="1.1" viewBox="-10 0 266 256">
   <path fill="currentColor"
d="M63 240q0 3 2 4.5t5 1.5q14 0 27.5 -2t27.5 -3q1 0 8.5 -0.5t16.5 -0.5t18 -0.5t14 -0.5h5.5t5 -1.5t4 -3.5t1.5 -6q0 -3 -1 -3.5t-4 -0.5q-12 0 -24.5 2.5t-25.5 2.5h-5h-3l-2 -2l-2 -22q0 -3 3 -4.5t8 -2t11 -1t11 -1t8.5 -2t3.5 -5.5t-3 -5t-6 -1q-8 0 -15.5 1
t-14.5 1h-6l-1 -4v-13t-2 -14h-2q-1 0 -2.5 0.5t-1.5 2.5v23q0 3 -2 4t-4.5 1.5t-5.5 0.5h-4l-27 4q-1 0 -3 2t-2 3q-1 3 1 4.5t4 2t5 0.5h4q6 0 11.5 -1t11.5 -1h4h4q2 3 2.5 6t0.5 6v5t-0.5 5.5t-2 4.5t-4.5 2l-2.5 0.5t-5.5 0.5t-5.5 0.5t-3.5 0.5h-8t-12 1t-10.5 2.5
t-4.5 5.5zM97 121h1l1.5 1.5l0.5 0.5v38q0 3 1.5 4t3.5 1q3 0 4.5 -3.5t2 -8t0.5 -9.5v-7q0 -16 -1 -32.5t-2 -33.5v-11t-0.5 -17t-0.5 -17v-11q-1 -3 -3 -4t-4 -1q-1 0 -2.5 0.5t-1.5 2.5v27q0 2 -1.5 3t-3 1.5t-3.5 0.5h-3q-7 0 -10 -3.5t-3.5 -8t-1.5 -8.5t-5 -4t-5 2.5
t-1 6.5v6.5t1 7t2.5 6.5t4.5 4h3.5t5 0.5t5 0.5h4.5q2 1 4 0.5t3 -0.5t2 0.5l3 1.5l1 1l1 1v16l-1 0.5l-1 0.5q-3 2 -7 2.5t-7 0.5q-2 0 -5 0.5t-7 0.5t-7.5 -0.5t-4.5 -0.5q-3 0 -3 1.5v3.5q0 8 8 8q7 0 14.5 -1t15.5 -1h5l0.5 3t0.5 4v0q0 3 -1 6.5t-3 4.5q-3 1 -7 2
t-8.5 2t-8 3t-5.5 5q0 2 -1 5.5t-1.5 7t-1.5 7t-1 5.5v1v2v1.5t-0.5 3.5t-0.5 3.5v1.5q0 1 1.5 3t2.5 2q6 -1 7.5 -4.5t2 -8t0.5 -9.5q0 -6 2 -10.5t6 -7.5t13 -3zM133 154v2.5t0.5 3.5t1.5 3t2 1q2 0 4.5 -2t2.5 -5v-34q0 -1 1 -2.5t2 -2.5h4h4q8 0 11.5 2.5t5 6.5t1 9t0 9
t2 6.5t6.5 2.5q3 0 4 -1t1 -4q0 -1 -0.5 -2l-0.5 -1q0 -3 -0.5 -7l-1 -8t-1 -7.5l-0.5 -3.5q-1 -7 -6.5 -9t-10.5 -3q-2 0 -5 -0.5t-6.5 -0.5t-6.5 -0.5t-4 -0.5q-2 0 -2 -1.5v-2.5q0 -7 3 -10t8 -4t10.5 -1h10t8 -1.5t3.5 -6.5q0 -3 -3 -3.5t-6 -0.5q-6 0 -11 1t-10 1h-2
h-3.5h-2.5h-2q-2 0 -2.5 -2t-0.5 -4.5v-5v-4.5q0 -3 0.5 -4t2 -1t3 -0.5t3.5 -0.5q1 0 4 -1l6 -2t5.5 -2.5t3.5 -1.5q3 -2 4 -4.5t2 -5.5t1 -6v-6v-4v-4q-1 -3 -3 -3.5t-4 -0.5q-3 0 -4 2t-1.5 5.5t-0.5 7t-1 7t-4 5.5t-9 2q-5 0 -6.5 -2.5t-2 -6t0 -7.5t0.5 -8t-1.5 -6
t-5.5 -2q-2 0 -3 2.5t-1 4.5q0 9 1.5 19t1.5 19v9v14v15v15.5v13.5v9l1 3l1 3q0 1 -0.5 3t-1 4.5t-0.5 4.5v2v2z" />
</svg>
