<?xml version="1.0" standalone="no"?>
<!DOCTYPE svg PUBLIC "-//W3C//DTD SVG 1.1//EN" "http://www.w3.org/Graphics/SVG/1.1/DTD/svg11.dtd" >
<svg xmlns="http://www.w3.org/2000/svg" xmlns:xlink="http://www.w3.org/1999/xlink" version="1.1" viewBox="-10 0 266 256">
   <path fill="currentColor"
d="M183 179q0 11 -4 23t-9 21q-1 2 -3.5 5.5t-5.5 7.5t-5.5 8.5t-2.5 7.5q6 0 9.5 -3t6.5 -7.5t4.5 -9.5t4.5 -9q4 -6 7 -11t5 -12q0 -1 0.5 -4t1.5 -6.5t1.5 -6.5t0.5 -5v-2q0 -7 -4.5 -10.5t-9.5 -5.5t-9.5 -3t-4.5 -4v-11q0 -2 1.5 -3t4.5 -2.5l5 -2.5t3 -2v-3.5
t0.5 -5.5t1 -5.5t0.5 -3.5t0.5 -2t0.5 -2h0.5h0.5h0.5h0.5q0 1 1.5 2t1.5 2t0.5 3.5t1 5.5t1 5.5t0.5 3.5q0 2 2 7t4 10.5t5 9.5t6 4t5 -1.5t2 -3.5v-3q-10 -7 -14 -17.5t-5 -21.5q1 -3 3.5 -3.5t5.5 -0.5t5 -1t2 -4t-3.5 -4t-8.5 -1t-10.5 0.5t-11 -0.5t-9 -3.5t-3.5 -9.5
h-2q-1 0 -2 0.5t-1 1.5q0 5 2 8t4 5t4.5 4t2.5 6q0 1 -0.5 3t-0.5 4.5t-0.5 4.5t-0.5 3q-2 3 -5 4.5t-5.5 3t-4.5 4t-2 7.5t2 8t5.5 4.5l7 3t6.5 3t5 4.5t2 8zM105 173v5v6v5v3l1 5.5t2 12t2.5 13.5t2.5 12q0 1 0.5 2.5t0.5 2.5h1h1q2 -1 5 -3t3 -5q0 -5 -1.5 -9.5t-3 -9.5
t-3.5 -10t-2 -10v-41q0 -3 2.5 -6t5.5 -3q2 0 2.5 1t0.5 4q1 2 2.5 8.5t3 14t3 13.5t1.5 8l0.5 1.5l1 3l1 3t0.5 2.5q1 1 1.5 5t1.5 8.5t1.5 8.5t0.5 6t1 2.5t2 0.5q4 0 5 -2.5t1 -5.5q0 -1 -0.5 -3t-0.5 -3l-0.5 -1t-1 -2.5t-1 -2.5t-0.5 -2q-4 -14 -7.5 -28.5t-3.5 -29.5
q-2 0 -2.5 -1.5t-1 -3.5t-0.5 -4v-3q0 -2 1 -3.5t2.5 -3.5t2.5 -3.5t1 -3.5v-2.5v-4.5v-4v-2l1 -1.5t2.5 -3t3 -2.5l1.5 -1q2 -3 3 -7t1.5 -8.5t0.5 -9v-7.5v-13q-1 -3 -4 -4.5t-6 -2.5t-5.5 -2t-2.5 -3v-26q0 -3 -1.5 -6.5t-4.5 -3.5h-2t-2 1q1 7 1.5 14t-0.5 13.5
t-4.5 10.5t-11.5 4q-2 2 -3 6t-1 9v8.5v6.5v13q2 5 6 7.5t8.5 3.5t8 2.5t3.5 3.5q0 9 -2.5 12t-6 4.5t-7.5 2.5t-6 5q-1 1 -1.5 3t-1.5 4t-1.5 4l-0.5 2v5v5v6v4zM39 167q0 2 0.5 3t2.5 2h6q10 0 19 -1t20 -2l2.5 -1.5t2.5 -2.5t-0.5 -2.5l-0.5 -1.5h-16q0 -18 1 -35.5
t0 -35.5q1 -2 3 -2t5 0.5t6 0t4 -2.5l-3 -4h-13v-4.5v-8.5v-8q0 -8 1.5 -15.5t1.5 -14.5q0 -6 -1 -9t-7 -3q-2 0 -2.5 0.5t-0.5 3.5v23q-1 8 -1 18t-2 18q0 1 -1 1.5l-1 0.5h-15q-2 0 -2.5 1.5t-0.5 3.5t1.5 2.5t3.5 0.5h2h1q1 0 2 -0.5t2.5 -0.5t2.5 -0.5l1 -0.5q1 0 2 1
t2 1v2.5v3.5v4v2q0 10 -1 20t-1 19q0 2 -0.5 5t-0.5 5.5t-0.5 4.5l-0.5 2l-1 3h-21q-1 0 -1.5 1.5t-0.5 2.5zM114 90v-2t2 -2l26 -2q3 0 3 1.5v2.5q0 2 -0.5 4t-1 4.5t-2 4t-3.5 1.5l-16 2q-2 0 -3.5 -1.5t-2.5 -3.5t-1.5 -4.5t-0.5 -4.5zM164 62q0 9 4.5 13.5t11 6.5
t13.5 2.5t13 1.5l4 -2t2 -4v-2t-2 -2h-28q-5 0 -6.5 -2.5t-2.5 -6t-2 -6t-4 -2.5t-3 3zM134 61h4.5h4.5q3 1 3 4.5v6.5l0.5 1t0 2t-0.5 1.5t-1 0.5h-29v-13l1.5 -0.5t1.5 -1.5q3 -1 4 -1t2.5 -0.5t3.5 0t5 0.5zM169 30q0 9 3.5 15t10 9t14 4t14.5 1h1q2 -1 3.5 -2t1.5 -4v0
q-1 -1 -1.5 -2.5l-0.5 -1.5l-33 -3l-2 -2v-5q0 -3 -1 -7t-2.5 -6.5t-5.5 -2.5q-2 0 -2 2.5v4.5z" />
</svg>
