<?xml version="1.0" standalone="no"?>
<!DOCTYPE svg PUBLIC "-//W3C//DTD SVG 1.1//EN" "http://www.w3.org/Graphics/SVG/1.1/DTD/svg11.dtd" >
<svg xmlns="http://www.w3.org/2000/svg" xmlns:xlink="http://www.w3.org/1999/xlink" version="1.1" viewBox="-10 0 266 256">
   <path fill="currentColor"
d="M78 242q0 2 1.5 3t4 1.5t4.5 0.5h3h2t2.5 -0.5t2.5 -0.5h1q1 0 6 -0.5l10 -1t9.5 -1t5.5 -0.5h6.5t10.5 -0.5t13 -0.5h13t10.5 -0.5t5.5 -0.5h4t5 -0.5t4 -2t2 -4.5v-1.5t-2 -1.5h-64v-25l5 -5h5t6.5 -0.5t7 -0.5t4.5 -1q1 0 2.5 -0.5t3.5 -1t3 -1.5t1 -3v0v0
q0 -1 -1 -1.5t-2 -0.5h-36v-61q0 -4 3 -5t6.5 -2t6 -2.5t2.5 -6.5q0 -6 -2 -11t-4.5 -9.5t-4.5 -9.5t-2 -10v-5l1 -2l2 -4t2 -3.5t1 -2.5q1 -1 2 -4.5t1.5 -7.5t1 -7.5t0.5 -4.5q-1 -8 -4 -10t-10 -2q-10 0 -20 0.5t-18 6.5v7q0 7 2.5 15.5t5.5 15.5q2 3 3.5 5t1.5 6
q0 5 -1 9.5t-2.5 8.5t-2.5 8.5t-1 9.5v5t1 3l16 6l0.5 0.5l0.5 0.5q1 2 1.5 5t0.5 4v56h-5.5t-9 1t-8.5 3t-4 5h29v3v5v4v3v1.5t-0.5 3.5t-1 3.5l-0.5 1.5q0 1 -0.5 3t-1.5 2q0 1 -2.5 0.5t-3.5 -0.5q-9 1 -20 3t-19 4q-1 0 -1.5 1l-0.5 1v1zM75 206l3 4q3 -2 4 -6t1 -8.5
v-8.5v-6q0 -13 -1 -25.5t-1 -25.5v-14q1 -1 1.5 -2.5t2.5 -2.5l0.5 0.5t0.5 1.5q4 7 6.5 16.5t4 19t2 18.5t0.5 17q2 -1 3.5 -2t1.5 -3v-3v-4v-4v-3q0 -15 -2.5 -28.5t-5.5 -27.5q-3 -4 -7.5 -7.5t-8.5 -5.5v-2v-2v-3t0.5 -4t0.5 -4v-3q6 -2 8.5 -6t4 -9.5t1.5 -11.5t1 -11
q-1 -3 -2 -5t-3 -4l-2 2q0 7 -1 14t-3 14q-1 0 -1.5 1l-0.5 1l-3 -4v-19.5t-2 -20.5l-0.5 -0.5t-1.5 -0.5v-0.5v-0.5q-1 0 -1 0.5v0.5q-1 0 -2 0.5t-2 0.5v4t-0.5 6t-0.5 5.5v3.5t0.5 3t0.5 3v5q0 1 0.5 3.5t0 5.5t-1.5 4.5t-3 1.5q-4 0 -4.5 -4.5t-1 -10.5t-1.5 -11t-6 -5
v0q-2 4 -2 6v5v3v4t0.5 5.5t0.5 5t1 2.5q0 5 3.5 7t7 3.5t6 3t2.5 7.5q0 7 -1.5 10t-4.5 5t-6.5 4t-6.5 7q-1 2 -1.5 5.5t-1 8t-1 8.5t-0.5 6v5q0 11 0.5 23.5t1.5 21.5q0 1 2 2v0q4 0 5 -5.5t1.5 -13.5t0 -18t0 -18.5t1.5 -15.5t5 -9q3 3 4.5 7.5t1.5 9.5v10.5v9.5
q0 1 0.5 7.5t0.5 14.5t0.5 14.5t0.5 8.5v13zM183 198q1 1 2 1.5t2 0.5h1t1 -1q1 -1 1 -3.5t0.5 -5t0.5 -5v-3.5v-12.5v-19.5v-19.5v-12.5l2 -2q2 2 3.5 7t3 11.5t2 12.5t0.5 9q0 1 0.5 3.5t0.5 5.5t-0.5 5t-0.5 3l1.5 1.5l0.5 0.5h1q3 0 4 -3l2 -6v-14q0 -7 -0.5 -13
t-1.5 -11.5t-2.5 -11t-4.5 -12.5q-2 -4 -4.5 -5.5t-5 -3.5t-3.5 -4.5t-1 -7.5q0 -7 2.5 -10.5t5.5 -5.5t5.5 -4t2.5 -6v-26q0 -1 -1 -4t-3 -3h-1q0 1 -0.5 1.5l-0.5 0.5q0 1 -0.5 4t-0.5 6t-0.5 5.5t-0.5 3.5q-1 4 -1.5 5.5t-3.5 1.5h-2t-1 -2v-31q0 -3 -2 -6t-5 -3
q-1 0 -2 0.5t-1 1.5v46q-5 0 -6.5 -4t-2.5 -8.5t-2.5 -8.5t-7.5 -4q0 6 1 12t3 12q1 3 3.5 5.5t5.5 4.5t5 3l2 1v21q0 1 -0.5 2t-0.5 2q-4 5 -7 9.5t-5 9t-3 10t-1 12.5q-1 3 -1 8t-0.5 10t-0.5 8v3l3 4q1 -1 2 -2.5t1 -2.5q1 -5 1.5 -11t1 -13t2 -13.5t2.5 -11.5
q1 0 2.5 -1.5t2.5 -1.5l0.5 -0.5l0.5 -0.5v1q1 0 1.5 1.5l0.5 1.5q-1 21 1 41t1 41zM116 116q-2 0 -2 -2v-4q0 -11 4 -15.5t13 -4.5h7q4 3 5.5 7.5t1.5 8.5q0 6 -4 9t-10 3h-2q-1 0 -3 -0.5t-4 -0.5t-4 -0.5zM133 74q0 5 -3.5 6.5t-7.5 1.5q0 -6 2 -7t9 -1zM127 63v-2.5
t2 -1.5l0.5 0.5t0.5 1.5q1 1 1 3.5v3.5q-4 0 -4 -5zM109 38q0 -3 3.5 -4.5t8.5 -2.5t9.5 -1.5t6.5 -0.5h1v1q2 0 3.5 2t1.5 3q1 1 0.5 5t-1.5 8t-2.5 7t-2.5 4q-1 -3 -3 -7t-6 -4q-3 0 -4 2.5l-2 5t-1.5 5t-2.5 2.5t-3.5 -3.5t-3 -7.5t-2 -8t-0.5 -6z" />
</svg>
