<?xml version="1.0" standalone="no"?>
<!DOCTYPE svg PUBLIC "-//W3C//DTD SVG 1.1//EN" "http://www.w3.org/Graphics/SVG/1.1/DTD/svg11.dtd" >
<svg xmlns="http://www.w3.org/2000/svg" xmlns:xlink="http://www.w3.org/1999/xlink" version="1.1" viewBox="-10 0 266 256">
   <path fill="currentColor"
d="M42 249l3 3t2 1q2 0 3 -1t2 -3q0 -43 1 -85.5t3 -85.5q7 -4 14.5 -5t17.5 -1h1l2 0.5t3 0.5v6q0 5 -0.5 9.5t-1.5 8.5q0 2 -3 3.5t-7 4t-7 6t-3 9.5v69q0 4 3.5 6.5t8.5 4t10 1.5h7q8 0 13 -2t8 -6t4 -10.5t1 -13.5v-1q-1 -3 -1 -10t-0.5 -15.5t-1 -16t-0.5 -10.5l-4 -8
t-5 -7q-1 -1 -3.5 -1.5t-4.5 -1t-3.5 -1t-1.5 -3.5v-22l31 -4q1 0 2 -1t1 -2q1 0 1 -1v0q0 -1 -1 -1l-1 -1.5t-2 -2.5h-9q-4 0 -8 1.5t-8 1.5l-1 -1q-1 0 -3 -2t-2 -3v-25q0 -5 3 -5.5t5 -0.5h4t6 -0.5l6 -1t4 -0.5t2 -1t1 -2h0.5t0.5 -1l-1 -1l-0.5 -1.5l-0.5 -1.5h-5h-3
q-5 0 -12 0.5l-14 1t-12.5 1t-6.5 0.5q-15 2 -22 6.5t-9.5 11.5t-2 17.5t0.5 23.5q-1 38 -2.5 76t-1.5 76v20zM127 216l3 4h3h5h3h3.5h3.5h2t6 -1t11 -1.5t11 -1t7 -0.5l2.5 0.5t5.5 0.5t5 0.5t3 0.5h6q3 0 5.5 -0.5t2.5 -4.5q0 -5 -3 -6t-7 -1q-5 0 -9.5 2t-10.5 2v0
q-1 -1 -3 -1.5l-2 -0.5q0 -2 -0.5 -7t-0.5 -10.5t-0.5 -10.5t-0.5 -7v-3q0 -5 4.5 -5.5t10 0t9.5 0t4 -4.5q0 -3 -2 -4.5t-5 -1.5t-6 1t-6 1h-4t-3 -2v-3.5v-5.5v-5.5v-3.5q-1 -3 -1.5 -6t-3.5 -3h-3t-2 2v25l-4 5h-23q-1 0 -1.5 1.5t-0.5 2.5t0.5 2t1.5 1h19q1 0 3.5 2.5
t2.5 3.5v32l-0.5 1.5t-1.5 2.5l-0.5 1.5l-0.5 1.5h-30q-2 0 -4.5 2t-3.5 3zM80 176q0 -2 1.5 -3t3 -1.5t3.5 -1l2 -0.5h13h12q2 2 2 4v5v3v2q-1 0 -2 1.5l-2 3t-2.5 2.5l-1.5 1h-9q-5 0 -8 -0.5t-5 -2t-3.5 -4.5t-3.5 -8v-1zM79 151q0 -6 2.5 -8t6.5 -2.5t8.5 -0.5h8.5h3h4
t3 0.5t2 0.5l1 1q1 1 1 3v3q0 6 -1.5 9t-4.5 4t-7 1h-9h-3t-4 -0.5t-4 -0.5h-2q-4 0 -4.5 -3.5t-0.5 -6.5zM80 130v-12q0 -2 3.5 -4l7 -4t7.5 -3t5 -1q3 0 6 2t4.5 5t2.5 6t1 6q0 4 -3 5.5t-7.5 2t-9 0t-6.5 -0.5h-4h-3zM133 114v1l2 2l1 1h75q2 0 3 -1.5t1 -3.5t-2 -3.5
t-4 -1.5h-29l-2 -2v-1.5v-3.5v-3v-3q0 -2 -0.5 -5t0 -7t0.5 -7.5t2 -5.5q2 -4 6 -4.5t8.5 0t8 -0.5t3.5 -5q0 -3 -0.5 -4.5t-3.5 -1.5h-3q0 1 -2.5 1t-4.5 0.5t-4.5 0.5h-2.5l-2.5 -1t-2.5 -2v-33q0 -2 -1.5 -4.5t-3.5 -2.5q-1 0 -3 0.5t-2 1.5v41l-23 3q-2 1 -2 2.5v2.5
q0 4 4 4t7.5 -1t6.5 -1q2 0 3.5 0.5l1.5 0.5l1 0.5l1 0.5v37l-1 0.5l-1 0.5l-2 2l-1 1h-29l-1 1.5t-2 2.5v1zM57 59v-7v-7.5t0.5 -7t3.5 -5.5q6 -2 11.5 -3.5t11.5 -1.5q2 0 4.5 0.5t3.5 3.5q1 6 1.5 10t0.5 10q0 3 -0.5 5t-1.5 5q-6 2 -10.5 2h-10.5h-12q-2 0 -2 -1v-3z
" />
</svg>
