<?xml version="1.0" standalone="no"?>
<!DOCTYPE svg PUBLIC "-//W3C//DTD SVG 1.1//EN" "http://www.w3.org/Graphics/SVG/1.1/DTD/svg11.dtd" >
<svg xmlns="http://www.w3.org/2000/svg" xmlns:xlink="http://www.w3.org/1999/xlink" version="1.1" viewBox="-10 0 266 256">
   <path fill="currentColor"
d="M117 229l-0.5 0.5t-0.5 1.5t-0.5 3.5t-0.5 3.5q23 0 45 -1.5t45 -0.5q3 1 4 -0.5t1 -3.5q0 -3 -1 -4t-3 -1q-9 0 -16.5 1t-16.5 1q-3 0 -4 -2t-1 -4.5v-5.5v-5v-5q0 -1 0.5 -2t1.5 -1h22l0.5 -1t1.5 -1v-1v-1q-1 0 -1.5 -1l-0.5 -1h-26v-30q7 0 12 4t9.5 9t9.5 9t11 4
q3 0 4 -1t1 -4t-3.5 -6t-8.5 -5.5t-11 -5t-11.5 -5.5t-9 -6.5t-3.5 -7.5v-4t0.5 -4l1 -4t2.5 -2q5 0 10.5 -1.5t9.5 -4t7 -6.5t3 -10q0 -7 -2 -10t-6 -5t-9 -2h-10q-2 -1 -2.5 -3.5t-0.5 -4.5t2.5 -3.5t5 -5t5 -9.5t2.5 -15q3 -5 8 -5.5t10 0t9 -0.5t4 -8q-6 0 -12.5 0.5
t-13.5 1.5q-2 -1 -2.5 -2t-0.5 -3v-2l0.5 -1.5t0.5 -3.5t0.5 -3.5l0.5 -1.5q0 -7 -3.5 -8t-8.5 -1v26h-27q0 -1 0.5 -3.5t0.5 -4.5v-5.5v-3.5v-3t-0.5 -4.5t-2 -4.5t-3.5 -2h-1q0 1 -1.5 2t-1.5 2v30h-35q0 2 1 4.5t4 2.5h29l1 2q1 7 1.5 12.5t2 9t5 5.5t10.5 4l0.5 1.5
l0.5 1.5q0 1 -0.5 3t-1.5 2q-5 1 -10.5 2t-9.5 3t-6.5 6t-2.5 11q1 6 4 9t7.5 4.5t9 2.5t8.5 3v2v3q0 1 -0.5 3l-1 4t-0.5 4v3l-2 1q-1 1 -4 3t-5.5 4t-5 3.5l-2.5 1.5q-2 1 -5.5 3t-8.5 4.5t-9 5t-6 2.5q-1 1 -1 2v2q0 4 3 4q5 0 10.5 -3t11 -7l11 -8t10.5 -6q2 3 2.5 6.5
t0.5 7.5t-0.5 8t-0.5 7h-23q-1 0 -1 2v3t0.5 2t2.5 1h22v17l-3 3l-2 0.5t-4.5 1t-5 0.5h-4.5h-21zM40 168q-1 0 -1.5 0.5t-0.5 1.5v3v4q15 0 31 -1.5t31 -2.5q2 -1 2 -3v-3h-23v-50q0 -1 1 -4.5t1 -4.5q1 -1 2 -2.5l1 -1.5h18q1 0 1 -2v-2v-2.5t-1 -1.5h-19v-48q0 -3 0.5 -5
t0.5 -6q0 -3 -1.5 -6t-5.5 -3q-6 0 -6 6q0 13 1 24.5t1 24.5v6q0 2 -0.5 4t-2 3.5t-5.5 1.5q-1 0 -4.5 0.5t-7.5 0.5t-7 0.5t-5 0.5v1l1 1.5t2.5 2.5t2.5 2t2 1h1.5t3 -0.5t2.5 -0.5h1h4h4.5t4.5 1v20v18.5t-2 17.5q-2 2 -5.5 3t-8 1.5t-8.5 0t-6 -0.5zM179 144q0 3 2.5 6.5
t6 6.5t7 5.5t5.5 5.5h2q3 0 5.5 -0.5t2.5 -3.5q0 -2 -4 -5.5t-9 -7t-10.5 -5.5t-7.5 -2zM117 160q0 3 4 3q2 0 7 -2.5t10 -5.5t8.5 -7.5t3.5 -7.5q-2 0 -7.5 2.5t-11 6t-10 7t-4.5 4.5zM140 118q0 -7 4.5 -9.5t9.5 -2.5h3q3 0 3 2v19l-0.5 1.5l-0.5 1.5l-0.5 0.5l-0.5 0.5
q-3 0 -6.5 -0.5t-6 -2t-4 -4.5t-1.5 -6zM170 106h2.5h5t5 0.5l2.5 0.5q1 0 2.5 0.5l1.5 0.5v15q0 3 -2.5 4l-5 2t-5.5 1.5l-3 0.5q-2 0 -2.5 -1t-0.5 -3v-21zM149 64v-3v-2l3 -4h22q1 0 1.5 1.5t0.5 3v2.5v1q0 10 -4 14t-13 4h-5q-4 -3 -4.5 -8t-0.5 -9z" />
</svg>
