<?xml version="1.0" standalone="no"?>
<!DOCTYPE svg PUBLIC "-//W3C//DTD SVG 1.1//EN" "http://www.w3.org/Graphics/SVG/1.1/DTD/svg11.dtd" >
<svg xmlns="http://www.w3.org/2000/svg" xmlns:xlink="http://www.w3.org/1999/xlink" version="1.1" viewBox="-10 0 266 256">
   <path fill="currentColor"
d="M183 192v56q0 2 2 2.5t3 0.5q2 0 4 -1t3 -2v-6.5v-10.5v-10v-6q0 -25 -1.5 -48t-4.5 -48q0 -2 -0.5 -5.5t-1.5 -6.5t-2.5 -5.5t-4.5 -4.5q-4 -2 -8.5 -3t-9.5 -2.5t-9.5 -2.5t-7.5 -2t-3 -3v-4q0 -3 0.5 -5t3.5 -3l26 -4q1 0 2 -1l2.5 -2.5l3 -3l2.5 -2.5q0 -1 0.5 -2.5
t0.5 -2.5v-36q0 -3 -2.5 -5t-5.5 -2q-6 0 -6 7q0 1 1 2.5t1 2.5q0 4 -6 6t-13.5 2.5t-14.5 0.5h-9q-3 1 -11 1.5t-17 1t-17.5 1t-11.5 0.5q-3 1 -4.5 2t-1.5 4q0 2 0.5 3t2.5 2h9q12 0 23.5 -2t23.5 -2q3 0 5 1t2.5 3.5t1 4.5t0.5 5q0 2 -2.5 4t-5.5 3t-6 1.5t-5 0.5
t-7.5 0.5t-12 1t-12 1t-8.5 0.5h-4.5t-4.5 1t-3.5 2.5t-1.5 4.5q0 4 4 4h1q1 0 2.5 -0.5t2.5 -1.5l50 -2q2 -2 5 -2t5 2.5t3 6t1.5 7t0.5 5.5t-1 2.5t-2.5 1t-3.5 0.5h-3q-4 0 -5.5 -2t-3 -4.5t-2.5 -4.5t-4 -2t-4.5 2t-2.5 4v2.5t-0.5 3.5t-0.5 4v3q-3 1 -9 2t-12.5 2.5
t-11 4t-6.5 4.5q0 1 1 2l1 1l2 2h6q7 0 16.5 -2.5t15.5 -6.5q-1 3 -0.5 4l1 2t1.5 2.5t1 3.5v1q0 1 -1 1.5l-1 0.5l-1 2.5t-2 3.5q-8 1 -15 2.5t-15 4.5q-2 0 -3.5 1.5t-1.5 3.5t3 3t5 1t5 -1.5t6.5 -3t6.5 -2.5t5 -1q2 1 4.5 5.5t2.5 7.5t-3.5 5t-9 3.5t-11.5 3t-11.5 2.5
t-9.5 2.5t-4 3.5q0 4 2 5t6 1h1.5h1.5l28 -9h1h2h2.5t1.5 1v6q0 13 -0.5 25.5t-0.5 26.5q0 2 0.5 5.5t4.5 3.5q3 0 4.5 -1.5t2 -3.5t0.5 -4.5v-3.5v-58l1 -0.5t2.5 -1.5t3 -1.5t2.5 -0.5q2 -1 8 -2.5t11.5 -3t10 -4t4.5 -5.5q0 -2 -1.5 -2.5t-4.5 -0.5q-9 0 -17.5 2.5
t-18.5 2.5v-11q0 -1 3 -2.5t4 -1.5q1 -1 4 -1.5l6 -1t5.5 -1.5t4.5 -1q4 -2 4 -6q0 -1 -1 -2t-2 -1h-3h-2h-3h-2q-1 0 -2 0.5t-2.5 0.5t-2.5 0.5l-1 0.5q-6 0 -8 -2t-2 -7v-2t2 -2q2 -1 5.5 -1.5t7.5 -1.5t7 -2.5t3 -5.5v-2t-2 -2l4 -2l2 0.5t5.5 1.5t6.5 2l6 2q4 2 7 4
t4.5 4.5t2 5.5t1.5 7q0 1 0.5 5t1 9t1.5 11t1.5 11t1 9t0.5 5v2v2q0 1 -0.5 2.5t-0.5 2.5t0.5 4.5t0.5 4.5zM159 40h4.5t5 0.5t4 2t1.5 4.5q-1 5 -4.5 8t-8 4.5t-9.5 2t-9 0.5v-18q0 -1 2.5 -2t5 -1.5t5 -0.5h3.5z" />
</svg>
