<?xml version="1.0" standalone="no"?>
<!DOCTYPE svg PUBLIC "-//W3C//DTD SVG 1.1//EN" "http://www.w3.org/Graphics/SVG/1.1/DTD/svg11.dtd" >
<svg xmlns="http://www.w3.org/2000/svg" xmlns:xlink="http://www.w3.org/1999/xlink" version="1.1" viewBox="-10 0 266 256">
   <path fill="currentColor"
d="M140 191q2 5 3 11.5t4 11.5q0 1 2.5 4.5t6 8l7 9l7 9t6.5 7t4 2.5q3 0 4.5 -1.5t1.5 -4.5q0 -2 -2.5 -6t-6.5 -9t-8.5 -10t-8.5 -10t-6.5 -9.5t-2.5 -7.5v-2.5v-2.5q7 -2 14 -2.5t13 -4.5q2 -9 3 -18t1 -19v-8q0 -2 -2 -4t-4 -2q-3 0 -4 2t-1.5 5t-0.5 6t-1 5
q-2 2 -5.5 3t-7 1.5t-7.5 0t-6 -0.5h-5q-1 0 -2 -0.5l-1 -0.5v-12q0 -1 4 -2t8.5 -2.5t8.5 -6t4 -13.5q0 -5 -1.5 -9.5t-5.5 -6.5q-2 0 -4.5 -0.5t-6 -0.5t-6.5 -0.5t-4 -0.5h-2h-2q-2 0 -6 0.5t-8.5 0.5t-8.5 0.5t-5 0.5q-3 0 -6.5 3t-3.5 6v19q0 2 1 3.5t3 2.5l4 2t3 2h21
l3 2v13q0 1 -3 1.5t-5 0.5q-11 1 -22 1.5t-22 1.5q-2 0 -2.5 1t-0.5 3q0 1 0.5 2.5t2.5 2.5h6q10 0 19.5 -1.5t18.5 -1.5h3h3h4h2q3 2 4 5.5t1 6.5v3.5t-2 2.5h-7.5t-12 0.5t-12 0.5h-7.5h-5t-6.5 0.5t-6.5 2t-3 3.5v2t1 1h3h4h5h3q12 0 24.5 -1.5t24.5 -1.5h3zM141 168
q0 -3 3 -4t7 -1.5t8 -0.5h6q4 0 5.5 3t1.5 6t-3 5t-7 3t-7.5 1.5t-5.5 0.5h-5q-1 -3 -2 -6.5t-1 -6.5zM103 129q-2 -2 -3.5 -4t-1.5 -4q0 -5 1.5 -7t4 -2.5t6.5 -0.5h6l1.5 -0.5t3.5 -0.5t3.5 -0.5l1.5 -0.5h8q2 0 5 0.5t5.5 1.5t4 3t1.5 5t-2 5.5t-4 4.5q-7 1 -11 1h-10
h-10t-10 -1zM92 73q0 5 1 10t7 8h10q11 0 20.5 -1.5t20.5 -3.5q0 -1 1 -1.5t2 -1.5t2 -2.5t1 -2.5v-18q0 -3 -3 -4.5t-7.5 -2t-8.5 -0.5h-6h-13t-13 2t-10 6t-4 12zM100 75v-6q2 -3 5.5 -4.5t8 -2t8.5 -0.5h7h12q2 0 3 1t1 2.5v3.5v3v3v3q-5 2 -9 3t-7.5 1.5t-7 0.5h-8.5h-2
h-4h-3.5h-2.5q-1 -2 -1 -4.5v-3.5zM57 53q0 3 1 3.5t5 0.5h1.5h1.5q1 0 3 -1t4.5 -2.5t4.5 -2.5t3 -1q5 -3 10.5 -5.5l11 -5t11.5 -4.5t11 -2q8 0 16.5 2.5t16 5.5t15 6.5t15.5 5.5h1h2q3 0 4.5 -1.5t1.5 -4.5q0 -2 -4 -4t-9.5 -4t-12 -3.5t-12.5 -3t-10.5 -2.5t-6.5 -1
q-5 -1 -7.5 -5t-4 -9t-3 -8t-4.5 -2q-1 0 -3 2t-2 3v13l-2 1t-4.5 2.5t-4.5 2.5t-6.5 2.5t-10 3.5t-11.5 4.5t-11 4.5t-8 4.5t-3 4.5z" />
</svg>
