<?xml version="1.0" standalone="no"?>
<!DOCTYPE svg PUBLIC "-//W3C//DTD SVG 1.1//EN" "http://www.w3.org/Graphics/SVG/1.1/DTD/svg11.dtd" >
<svg xmlns="http://www.w3.org/2000/svg" xmlns:xlink="http://www.w3.org/1999/xlink" version="1.1" viewBox="-10 0 266 256">
   <path fill="currentColor"
d="M165 182q0 7 4.5 18.5t11 23t14.5 19.5t16 8q3 0 4.5 -2t1.5 -5l-0.5 -1l-0.5 -1q-7 -7 -14 -15t-13 -16.5t-10 -18t-4 -20.5q0 -4 4 -9.5t8.5 -10.5l9 -10t7.5 -8q3 -4 5 -12.5t4 -17.5t2.5 -17.5t0.5 -13.5v-2.5t-0.5 -3t-0.5 -3v-2.5q-1 -1 -1 -4.5t-0.5 -7.5t-0.5 -7
v-4q0 -2 -0.5 -4l-1 -4t-0.5 -3.5v-1.5q-2 -3 -7 -5.5t-12 -4t-14.5 -2.5t-15 -1.5t-13.5 -0.5h-9h-12q-3 1 -4.5 2.5t-1.5 4.5q0 2 1 3t3 0h46l15 1.5t8 3t5 7t6 12.5v4v6v6v4q0 5 -0.5 14t-1.5 18.5t-3.5 18t-5.5 13.5q-4 7 -9.5 12.5t-10 11.5t-7.5 12.5t-3 15.5zM70 180
v2q0 3 0.5 8t1 10.5t1 10t0.5 6.5t0.5 5t1.5 6.5t3 5.5t5 2t4.5 -1.5t1.5 -4.5v-1q0 -1 -0.5 -4.5t-1.5 -8t-2 -8t-1 -4.5q-1 -5 -1.5 -8.5t-0.5 -6.5v-7v-8q0 -15 3.5 -24t8.5 -15.5t11 -13.5t11 -18q0 -1 1.5 -3.5t1.5 -3.5v-3q0 -3 0.5 -6t0.5 -5v-4q0 -8 -0.5 -17
t-3.5 -17t-8.5 -13t-15.5 -5q-4 0 -8.5 1.5t-8.5 2.5q-10 8 -16.5 19.5t-10 24.5t-5.5 26.5t-2 25.5q0 4 0.5 7t5.5 3q2 0 4.5 -0.5t2.5 -3.5l3 -43q1 -3 2 -5t4 -2q5 0 9 4t6.5 8.5t5 8.5t5.5 4t4.5 -2.5t1.5 -4.5q0 -6 -5 -11t-11 -9t-11 -7.5t-5 -6.5q0 -4 3 -9.5t8 -10
t11 -7t11 -2.5q3 0 4.5 1.5t3 4t2 5.5t1.5 5q0 2 0.5 5.5t1.5 6.5t1 5.5v2.5v5.5t-1 9t-1.5 8.5t-0.5 5q-9 11 -16 19t-11.5 16.5t-7 18.5t-2.5 25zM108 226q0 5 5 5h3q6 -4 8.5 -8.5t5.5 -11.5q1 -3 3.5 -9.5t6 -14.5t6 -15t3.5 -9q2 -15 4.5 -22t5 -9.5t5.5 -2t6.5 1
t6.5 -0.5t6 -7q1 -4 1.5 -6.5t1 -5.5t0.5 -5.5v-5.5v-2v-3.5t-0.5 -2.5t-1.5 -1h-1q-1 0 -2.5 0.5t-1.5 1.5q-1 3 -1.5 7.5l-1 9t-2.5 7.5t-7 3q-3 0 -5 -1.5t-2 -4.5v-4q0 -1 0.5 -5l1 -8l1 -8t0.5 -5q1 -2 3.5 -2.5t6 -1.5t7.5 -2t7 -4t5.5 -8t2.5 -14q0 -3 -1 -4.5
t-4 -1.5h-2h-2q0 1 -0.5 3l-1 4l-1 4t-0.5 3t-0.5 3t-1.5 3.5l-2 3t-2 1.5h-1q-1 0 -3 -1t-3 -1l-1 -0.5t-1 -1.5v-36h-3t-4 2q0 4 -0.5 9l-1 10t-1.5 10t-2 9h-1h-1q-3 0 -5 -1t-4 -3t-3.5 -4.5t-1.5 -5.5t1 -6.5t1 -7.5q0 -2 -1 -3.5t-4 -1.5q-1 0 -2 0.5t-2 2.5v4t-0.5 7
t-0.5 7.5v4.5v1q0 4 3 6.5t7 3.5t7.5 2.5t4.5 4.5q0 3 -1 7t-1.5 8.5t-0.5 8.5v6q-2 2 -3.5 2h-3.5q-9 0 -9 -9q0 -4 0.5 -7t2.5 -7q-1 -3 -2 -3.5t-3 -0.5t-3.5 3.5t-2.5 7.5t-1 8.5v6.5q0 5 3 6.5t7 2.5t7 2t3 5q0 7 -2.5 16t-6 18t-7 17.5t-6.5 14.5q0 1 -1.5 4.5t-3.5 7
t-3.5 6.5t-1.5 4l-1 1l-2 2t-1.5 2.5l-0.5 1.5l-0.5 1z" />
</svg>
