<?xml version="1.0" standalone="no"?>
<!DOCTYPE svg PUBLIC "-//W3C//DTD SVG 1.1//EN" "http://www.w3.org/Graphics/SVG/1.1/DTD/svg11.dtd" >
<svg xmlns="http://www.w3.org/2000/svg" xmlns:xlink="http://www.w3.org/1999/xlink" version="1.1" viewBox="-10 0 266 256">
   <path fill="currentColor"
d="M175 249q1 2 3 2h3h1.5h1.5q2 -2 2 -5v-5q0 -6 -1 -14t-4 -16.5t-7.5 -15.5t-10.5 -11h-2t-2.5 -0.5t-2.5 -0.5h-1q-2 -1 -5.5 -3.5t-6 -5.5t-5 -6.5t-2.5 -7.5q0 -2 0.5 -4t3.5 -3h4.5t7.5 -0.5t7.5 -0.5h4.5q10 -1 15 -3t7.5 -6t2.5 -10.5v-16.5v-4t-3 -2q-4 0 -6 2.5
t-3 6.5t-1 8.5t-1.5 8t-5 6t-10.5 2.5h-24v-32l3 -6l28 -4l1.5 -1t1.5 -2l-0.5 -1.5t-1.5 -1.5h-27l-5 -3v-12h-7v12q0 1 -1.5 2t-2.5 1q-3 1 -7 1.5t-8.5 0.5h-8h-6.5q-2 -1 -2.5 0.5t-0.5 3.5t2 3t4 1h4.5h3.5q5 0 8 -1t7 -1q2 0 3.5 1t1.5 4v30l-1 7h-1.5h-2.5
q-7 0 -13.5 -1.5t-12.5 -3.5q-1 -1 -2.5 -3t-2 -4.5t-1 -4.5t-0.5 -4t1 -4t1 -4q0 -3 -2.5 -5t-5.5 -2q-1 0 -3.5 1t-2.5 3v8.5t1 11t2.5 10t3.5 6.5q11 3 21 3q9 0 20 2q2 2 2 6v9q0 4 1.5 8t7.5 6q0 1 3 2t6 2.5t6 2.5l3 1q7 4 11 11t6 15t3 16.5t2 14.5zM52 95q0 2 1 2.5
t3 0.5q4 0 8.5 -1.5t9 -3.5t8 -4t6.5 -4q10 -3 21 -7.5t21 -4.5q6 0 12 1.5l12 3t11.5 4t11.5 3.5q5 2 9 4.5t10 2.5h5q3 -1 3.5 -3.5t0.5 -3.5v-1v0q-1 0 -3 -1.5l-2 -1.5q-3 -1 -10.5 -3t-16 -4t-16 -4t-10.5 -3q-1 0 -2 -0.5t-2.5 -1l-3 -1l-1.5 -0.5q-1 0 -1.5 -0.5
t-0.5 -1.5v-6q0 -5 1.5 -8.5t7.5 -3.5h2h2l2 1.5l2 1.5q9 2 17.5 3.5t17.5 3.5q0 1 1 1.5l3 1.5l3 1.5t2 0.5h1h2q2 0 4 -1t2 -3q0 -4 -5 -7t-12.5 -5t-16.5 -3.5t-16.5 -3t-12.5 -3t-5 -3.5q0 -3 1 -5t1 -5q0 -2 -1 -5.5t-4 -3.5q-2 0 -4 1t-2 4v17l-2 3q-11 1 -21 3t-21 3
l-2 2q-1 0 -3.5 0.5t-5.5 1.5t-5.5 1.5t-3.5 0.5q-4 2 -7.5 3.5t-3.5 5.5q0 2 0.5 3t4.5 1q1 0 4.5 -1.5t8 -3t8.5 -3t5 -1.5l36 -8h1h1q4 0 5 3t1 6q0 2 -0.5 6.5t-1.5 5.5t-6.5 2.5t-14 4t-18 5t-17.5 5t-13.5 6t-5.5 7.5z" />
</svg>
