<?xml version="1.0" standalone="no"?>
<!DOCTYPE svg PUBLIC "-//W3C//DTD SVG 1.1//EN" "http://www.w3.org/Graphics/SVG/1.1/DTD/svg11.dtd" >
<svg xmlns="http://www.w3.org/2000/svg" xmlns:xlink="http://www.w3.org/1999/xlink" version="1.1" viewBox="-10 0 266 256">
   <path fill="currentColor"
d="M90 246q0 1 0.5 2l0.5 1h0.5h0.5q3 0 5 -3.5t3 -9t1 -12.5t0.5 -13t0 -11t0.5 -7v-5t0.5 -8.5t0.5 -8.5v-5q1 -5 4 -8.5t7 -6l8 -5t8 -4.5q11 2 17.5 10.5t10 20t4.5 24.5t2 24t2 18t5 7q2 0 3 -2.5t1 -6v-6.5v-3q0 -7 -0.5 -19t-3 -24.5t-6 -23t-9.5 -15.5l-5 -2.5
t-5.5 -3l-5 -3t-2.5 -4.5q-3 -7 -4 -15t-1 -17v-17.5v-15.5v-2v-4.5v-4.5v-3q1 -5 4 -6t7 -1q7 0 14 1t13.5 2.5t13.5 2.5t14 1q0 -1 -0.5 -2t-0.5 -2q-3 -1 -8.5 -2.5t-8.5 -2.5t-11 -2.5t-15.5 -3t-14 -2.5l-6.5 -1l-4 -20l-3 -1l-2 3v19q0 1 -2 1.5t-3 0.5q-16 3 -31.5 6
t-30.5 9q0 1 -0.5 2l-0.5 1q0 1 0.5 1.5l0.5 0.5h5q7 0 13.5 -2t13.5 -4t13.5 -3.5t13.5 -1.5h4.5t2.5 3q0 16 1 31.5t1 31.5v13q-2 6 -5.5 9.5t-7.5 6t-8.5 5t-7.5 7.5q-2 4 -3.5 9.5t-2.5 11.5t-1 11.5v10.5v24v24zM61 140q0 3 3 3q5 0 12.5 -2t14 -6t12 -9t6.5 -10v-3
q0 -3 0.5 -5.5t0.5 -4.5v-3v-9t-0.5 -12t-2 -11t-4.5 -7l-1 1q0 7 -2.5 11.5t-6.5 8t-9.5 5.5t-10 4.5t-7.5 4.5t-3 5h7q1 -1 4.5 -2.5l7 -3t6.5 -3l5 -2.5q2 0 3 -0.5t3 -0.5q3 0 3 3q0 5 -6 8.5t-13.5 6.5t-13.5 5.5t-6 5.5v1q0 1 0.5 1.5t1.5 0.5v0q4 0 9 -2.5t9.5 -5.5
t8 -5.5t6.5 -2.5q2 0 3 2t1 4q0 4 -3 7.5t-7.5 6t-10 5t-10 4.5t-7.5 3.5t-3 2.5zM152 58l-1 1l-0.5 1.5l-0.5 1.5v50q0 7 5 10.5t12 5.5t14.5 2.5t12.5 0.5q0 -2 -0.5 -3.5t-3.5 -2.5q-9 -2 -17 -4t-16 -6q0 -1 -0.5 -2l-0.5 -1q0 -4 2 -4.5t6 -0.5q6 0 13 1.5t14 1.5
q0 -4 -2.5 -6t-6.5 -2h-9q-4 0 -8 -1t-6.5 -3t-2.5 -7v-3.5t2 -1.5q5 0 9 1t8.5 2.5l9 3t8.5 1.5q0 -3 -1.5 -4.5t-4 -2.5t-5 -1.5t-4.5 -1.5q-1 0 -4 -1.5t-5.5 -3t-5 -2.5t-3.5 -2q-3 -1 -4 -4t-1 -5.5t-1 -5t-2 -2.5z" />
</svg>
