<?xml version="1.0" standalone="no"?>
<!DOCTYPE svg PUBLIC "-//W3C//DTD SVG 1.1//EN" "http://www.w3.org/Graphics/SVG/1.1/DTD/svg11.dtd" >
<svg xmlns="http://www.w3.org/2000/svg" xmlns:xlink="http://www.w3.org/1999/xlink" version="1.1" viewBox="-10 0 266 256">
   <path fill="currentColor"
d="M183 160q3 0 5 6.5t3.5 16t3 21t2.5 21t3 16t5 6.5h2.5t1.5 -1v-7q0 -11 -2 -21t-4.5 -20l-5 -20t-2.5 -21v-1t1 -1q9 -5 13.5 -12t4.5 -17q0 -8 -2.5 -12.5t-7 -7t-10 -3.5t-11.5 -1h-3h-4h-4h-2q-2 0 -3.5 1.5t-1.5 3.5v1l2 1.5t3 1.5h11.5t12 1.5t9 4.5t3.5 11
q0 2 -0.5 5t-2 5.5t-3 4t-4.5 1.5q-1 0 -4 -2l-7.5 -5t-10 -5t-10.5 -2h-6q-1 1 -1.5 2t-0.5 2q0 2 4 3t9.5 2.5t9.5 3.5t4 7v1q-1 1 -6 2t-10.5 2t-9.5 3t-4 4q0 3 2 3h4q4 0 7 -0.5t5.5 -2t5.5 -2t6 -0.5zM83 239q0 3 1.5 5t4.5 2q1 0 1.5 -1.5l1 -3l1 -3l0.5 -1.5v-5
v-8.5v-8.5v-5q0 -11 -1 -20.5t-1 -20.5q0 -4 2.5 -6t6 -2.5t7.5 -0.5h7.5t5.5 -1t2 -4q0 -4 -2 -4h-5t-5.5 0.5t-5.5 0.5t-6 1t-7 2v-3q0 -8 1.5 -11.5t3.5 -5t4 -1.5h6q4 0 8 -1t8 -5v0v-1q0 -1 -1.5 -2.5l-1.5 -1.5h-22l-1 -0.5t-1 -1.5v-1v0q0 -1 1 -2.5t1.5 -3t1.5 -3
t1 -2.5t1.5 -2.5t2.5 -4t2.5 -4.5t2.5 -3l2 -0.5t3 -0.5q1 -1 3.5 -1h5h4.5h4v-3.5t-2 -2.5q-6 -4 -13 -7t-12 -7t-9 -9t-4 -14q0 -1 1 -1.5t2.5 -0.5h3.5h1q5 0 9 2t9 2h5l1.5 -1.5l0.5 -0.5q0 -3 -4 -5t-9 -3.5t-9.5 -3t-6.5 -3.5v-3.5t-0.5 -5.5t-1 -5.5t-0.5 -4.5
q-1 -5 -5 -5h-3t-2 2v22q0 2 -5 3t-11 2.5t-11.5 3t-5.5 6.5q0 1 0.5 3.5t3.5 1.5q2 -1 5.5 -2t7.5 -2t7.5 -2t5.5 -1h1.5h1.5v17q0 1 -0.5 1.5l-0.5 0.5q-2 1 -6 3.5t-8.5 5t-7.5 4.5t-4 3q-2 1 -4.5 1.5t-4.5 1.5t-3.5 2.5t-1.5 4.5q0 2 1.5 3t3.5 1q4 0 7 -1.5t7 -1.5
q5 0 6.5 2.5t3.5 5.5q1 1 2.5 3t3.5 4t3.5 4.5t2.5 2.5q0 1 0.5 2t0.5 2q0 3 -2.5 4t-6.5 1h-8.5t-8.5 0.5t-6.5 2t-2.5 4.5q0 2 1.5 3t3 1h3.5h3q5 0 10 -1.5t10 -1.5q3 0 4 4t1 6q0 7 -4.5 10t-10 3.5t-12 -0.5t-11.5 -1q-1 2 -1 5q0 2 0.5 2.5t2.5 0.5h34l0.5 0.5
l1.5 1.5v1q0 15 -1 29.5t-1 29.5v14zM134 234v3t0.5 4t1.5 3.5t2 1.5q3 0 4.5 -2.5t1.5 -4.5q0 -3 0.5 -11.5t0.5 -17t0.5 -16.5t0.5 -11v-25l2 -3l5 -55l0.5 -1t1.5 -2t2.5 -2t2.5 -1q5 -5 14.5 -8t18.5 -5.5t16 -6.5t7 -11t-2.5 -14t-9.5 -10h-4h-4.5h-5.5h-3
q-10 0 -17.5 0.5t-16.5 3.5q-2 0 -2 1.5v2.5v1v2q6 0 9.5 1t5 4t2 7.5t0.5 9.5q0 2 -2.5 5t-6.5 7l-7.5 7.5t-5.5 7.5q-5 33 -8.5 67.5t-3.5 67.5zM71 88q0 -3 2.5 -5.5t6 -4.5t7.5 -3t6 -1q1 0 3.5 1.5t4.5 3t4 3.5t2 4q0 1 -2.5 4.5t-5 7.5t-5.5 7t-4 3h-2q0 -1 -1.5 -2
t-3.5 -2.5t-3 -3t-2 -1.5q-1 -2 -4 -5.5t-3 -5.5zM177 50h25q1 0 2 1t1.5 2.5l1 3l0.5 1.5q0 5 -2.5 7.5t-6 4t-8 2.5t-7.5 1h-1t-2 -0.5t-2 -0.5t-1 -1v-21z" />
</svg>
