<?xml version="1.0" standalone="no"?>
<!DOCTYPE svg PUBLIC "-//W3C//DTD SVG 1.1//EN" "http://www.w3.org/Graphics/SVG/1.1/DTD/svg11.dtd" >
<svg xmlns="http://www.w3.org/2000/svg" xmlns:xlink="http://www.w3.org/1999/xlink" version="1.1" viewBox="-10 0 266 256">
   <path fill="currentColor"
d="M174 173q0 10 1.5 18t4 15.5t6 14.5t7.5 16q2 2 2.5 4.5t1.5 4t2 2t3 0.5q4 0 6 -1t2 -5t-1.5 -7t-4.5 -6l-5.5 -5.5t-3.5 -5.5q-5 -8 -7.5 -16.5t-2.5 -18.5q0 -7 2 -12t5 -10t6.5 -10t5.5 -10q5 -13 6.5 -27t1.5 -27q0 -9 -0.5 -17t-1.5 -17q0 -4 -1 -6.5t-2.5 -4.5
t-4 -3t-6.5 -3h-9t-14.5 -0.5t-14.5 -1t-9 -0.5h-1h-1l-1.5 0.5t-3.5 1t-3.5 0.5h-2.5l-0.5 1.5t-0.5 2.5l0.5 1t0.5 2h4t6 0.5t5.5 0.5h3.5q1 1 2 1.5l1 0.5v29q0 3 -1 3h-3q-3 0 -3.5 -3t-0.5 -6.5t-1 -6.5t-5 -3v21q0 3 2 4t5 1.5t5 1t2 1.5v36q0 3 -1 3h-3
q-1 0 -3.5 -0.5t-2.5 -2.5v-17l-1.5 -1.5t-2.5 -1.5q0 -1 -1 -1v1q-1 0 -2 1.5t-2 1.5q0 1 0.5 4t0.5 6t0.5 6t0.5 4q1 4 2.5 5.5t3.5 2.5t4.5 2t3.5 4v6q0 8 -2 17t-4 17q-2 9 -6 18.5t-8 17.5q-2 2 -4 4.5l-4 5t-3.5 5.5t-1.5 5q0 3 1 4t3 1h2q5 -5 8 -9t5.5 -9t4.5 -10
t5 -11q0 -1 1.5 -4l3 -6t2.5 -6.5t2 -3.5q1 -4 1.5 -10.5l1 -13t2 -13t4.5 -9.5q6 0 10 -1.5t6 -4t2.5 -6.5t0.5 -11q0 -3 -0.5 -4.5t-3.5 -1.5h-2h-2v6t-1 7.5t-3 6.5t-5 3q-1 0 -2 -0.5t-1 -1.5v-14q0 -12 1.5 -17t3.5 -7t4.5 -2.5t5 -2.5t4.5 -6.5t3 -14.5v-1
q0 -2 -1.5 -3t-3.5 -1q-3 0 -3.5 3t-1 7t-2 7t-6.5 3q-1 0 -2.5 -1.5t-1.5 -3.5v-29q0 -1 1 -2t3 -1h4h2h6.5t7 1.5t5.5 4t2 6.5q0 2 0.5 6.5t1 10t0.5 10.5v6v3v10.5t-0.5 11.5t-1.5 11.5t-3 9.5q-1 5 -5 9.5t-7.5 9t-6.5 9.5t-3 11zM82 235q0 2 1.5 3.5t3.5 1.5t5 -2t3 -5
v-40l-1.5 -4.5t-0.5 -3.5q0 -3 0.5 -7t3.5 -7q2 0 5.5 -0.5t7.5 -0.5t7.5 -1t3.5 -3t-1.5 -3t-3.5 -1h-19q-3 0 -3.5 -3t-0.5 -5v-2q0 -2 0.5 -3.5t1 -2.5t2.5 -1h17l3 -4l-3 -4h-16l-0.5 -0.5l-0.5 -0.5v-2v0q0 -2 1 -4.5t2 -6t2 -6t1 -3.5l2 -6t3 -6t4 -5t4 -2q3 0 5.5 1
t5.5 1h1h2t2 -0.5t1 -1.5q-2 -3 -8.5 -6.5t-14 -6.5t-13 -6.5t-5.5 -5.5v-1v-1v-2.5t0.5 -4t0.5 -4v-2.5q1 -2 2 -2h3q3 0 5.5 1t5.5 2.5t6 2.5t6 1q2 0 3 -0.5t1 -3.5t-5 -5.5t-11 -4t-11.5 -2.5t-5.5 -3v-25q0 -1 -2.5 -2l-2.5 -1v0h-1q-1 0 -3 0.5l-2 0.5v4.5v4.5
q0 5 1 8t1 8t-5 7t-10.5 4t-10.5 4t-5 8q0 2 2 2.5t4 0.5q3 0 6 -1.5t6 -3.5t5.5 -4t6.5 -2q2 0 2 1.5v3.5q0 7 -3 11.5t-7.5 8t-9.5 5.5t-9.5 4t-7.5 4.5t-3 5.5t2 3.5t4 0.5t4 -1t4 -2.5t3.5 -2.5t3.5 -1t5 5.5t6.5 12t5.5 12.5t2 7q0 2 -2 5t-3 3h-22q-1 0 -1.5 2t-0.5 3
t0.5 2.5t2.5 1.5q7 0 13 -0.5t12 -0.5q0 1 0.5 3.5t0.5 5.5q0 2 -0.5 4t-2.5 3q-2 0 -7 -0.5t-10 0t-8.5 2.5t-3.5 7q0 1 0.5 2l1.5 3q6 -2 12.5 -3.5t12.5 -1.5q1 0 3 -0.5t2 1.5v51q0 1 -0.5 4t-1.5 4v2zM74 92q0 -3 2 -5t4.5 -3t5.5 -2t4 -1q4 0 8.5 2t6.5 5l-2.5 7.5
t-3.5 9t-4.5 8.5t-4.5 6q-2 -1 -5 -4.5t-5 -7.5t-3.5 -8t-2.5 -7z" />
</svg>
