<?xml version="1.0" standalone="no"?>
<!DOCTYPE svg PUBLIC "-//W3C//DTD SVG 1.1//EN" "http://www.w3.org/Graphics/SVG/1.1/DTD/svg11.dtd" >
<svg xmlns="http://www.w3.org/2000/svg" xmlns:xlink="http://www.w3.org/1999/xlink" version="1.1" viewBox="-10 0 266 256">
   <path fill="currentColor"
d="M173 246q1 2 3 4t4 2q3 0 3.5 -2.5t0.5 -4.5q0 -15 -2.5 -29.5t-2.5 -30.5v-4q0 -4 0.5 -7.5t2 -6.5t4.5 -3q2 0 4 4t4 8.5t4 8.5t5 4t4 -2t1 -4q0 -4 -3 -8.5t-6 -9.5t-6 -11t-3 -12q0 -4 2 -7l4 -6t4 -6.5t2 -6.5v-2t-1 -2l-1 -1t-2 0l-11 11h-0.5h-0.5q-3 0 -3.5 -2
t-1.5 -4q0 -1 -0.5 -3t-1 -4.5t-1 -4.5l-0.5 -2q0 -5 4.5 -5.5l9 -1t8.5 -2t4 -8.5q-6 0 -11.5 2t-11.5 2q-1 0 -3.5 -1t-2.5 -2v-14l3 -3q6 -1 10 -1.5t7 -2.5t5 -5.5t2 -9.5v-4t-0.5 -6t-1 -5.5t-3.5 -2.5v0q-3 2 -4 5t-1.5 6.5t0 7t0.5 5.5q-1 2 -3.5 2.5t-5.5 0.5
t-5 -0.5t-4 -0.5q0 -8 0.5 -17t0.5 -18q0 -2 -1.5 -4.5t-4.5 -2.5t-4 2.5t-1 5.5v5.5v4.5q0 14 0.5 28t0.5 28h-15l-2 -1v-4.5t-0.5 -7t-0.5 -7v-5.5v-2q0 -2 -0.5 -4t-1.5 -3.5t-3 -1.5q-3 0 -3 1.5v3.5q0 9 1 17t1 17q0 10 -1.5 18t-2.5 17v3v3v4v3q-1 7 -3 14l-4 14
t-3.5 14t-1.5 14q0 3 2.5 5t6 3t7 1.5t5.5 0.5q4 0 6.5 -4t5 -9.5t4 -12.5t2.5 -13.5t1.5 -11.5t0.5 -7q0 -1 -1.5 -1.5t-2.5 -0.5q-4 0 -5.5 3.5t-2.5 9t-1.5 12.5t-1.5 12.5t-3 9t-6 3.5h-3.5t-2.5 -1v-3v-3q0 -10 2.5 -19.5t4.5 -18.5q3 -12 4 -25.5t1 -24.5q2 -3 5 -3.5
t6 -0.5h3.5h3.5l4 8t5 14t4 14.5t2 8.5v1l-1 2.5t-1.5 4.5l-1 4t-1.5 3q-1 7 -2.5 16.5t-1.5 18.5q0 13 1 25.5t0 27.5zM92 247q0 2 1.5 2h2.5q6 0 6 -5q0 -4 -1.5 -8t-2.5 -7v-50q0 -3 0.5 -6t1.5 -6t2 -5.5t2 -4.5q1 -1 1.5 -2t2 -2.5l2.5 -2.5l1 -1v-3q0 -5 -0.5 -11.5
t-2.5 -11.5q-1 -2 -3 -3.5t-3.5 -3t-2.5 -3.5t-1 -5t2.5 -5t6 -4t6 -5.5t2.5 -10.5q0 -6 -1.5 -11t-1.5 -10q0 -4 1.5 -5t3.5 -1.5t3.5 -1.5t1.5 -3q0 -4 -1.5 -4.5t-5.5 -0.5q-6 0 -11.5 2.5t-12.5 2.5h-3h-2q-2 -2 -2 -4.5v-5.5q0 -6 1 -11.5t1 -11.5q0 -2 -1 -4t-3 -2
q-4 0 -5.5 3t-1.5 6q0 8 1.5 16.5t1.5 16.5q0 3 -2.5 4.5l-5 3t-5.5 3t-4 4.5q-1 0 -2 1.5t-1.5 3.5t-1.5 3.5l-1 1.5q0 2 -0.5 5.5t-0.5 5.5q0 6 2 11t4 9l4 8t2 9q0 1 -2 4t-3.5 7t-3.5 8t-2 6q-4 10 -5.5 21t-1.5 21q0 3 0.5 4t3.5 1q2 0 3.5 -0.5t2.5 -2.5v-13
t0.5 -11.5t2 -10.5t4.5 -11q1 0 1.5 -1.5l1 -3t1.5 -3l1 -1.5h2q2 0 4 1.5l4 3l4 3t5 1.5q2 0 2.5 -1t0.5 -3q0 -3 -2.5 -5t-5.5 -4t-5.5 -4t-2.5 -5q0 -2 1.5 -4.5t3 -4t4 -2.5t4.5 -1q1 0 3.5 3t5 7.5t4 8.5t1.5 6l-0.5 2.5t-1.5 3.5q-2 7 -4.5 14t-4.5 14t-3.5 14.5
t-1.5 14.5v3v1q1 3 1.5 8.5t1 11.5t1.5 11.5t1 7.5zM60 90q0 -3 1.5 -6t3.5 -6t4 -4.5t5 -1.5h1h1l2 8t2.5 8.5t2.5 8.5t1 8t-3.5 7.5t-7.5 3.5q-3 0 -5.5 -3.5t-4 -7.5t-2.5 -8.5t-1 -6.5zM90 95q-2 -6 -4 -14t-2 -15v-1q3 -1 6.5 -2.5t7.5 -1.5q3 0 5 2.5t3 6.5t1.5 7.5
t0.5 5.5q0 6 -4 10t-10 4h-2t-2 -2z" />
</svg>
