<?xml version="1.0" standalone="no"?>
<!DOCTYPE svg PUBLIC "-//W3C//DTD SVG 1.1//EN" "http://www.w3.org/Graphics/SVG/1.1/DTD/svg11.dtd" >
<svg xmlns="http://www.w3.org/2000/svg" xmlns:xlink="http://www.w3.org/1999/xlink" version="1.1" viewBox="-10 0 266 256">
   <path fill="currentColor"
d="M152 235q6 6 14.5 11.5t18.5 5.5q0 -3 -3.5 -5.5t-8 -5.5t-8.5 -5.5t-6 -6.5q-3 -3 -3 -8.5v-9.5q0 -5 0.5 -9t0.5 -8q0 -3 -2 -6.5t-4.5 -6t-4.5 -5.5t-2 -6t2 -4t5 -2t5 -2t3 -4q0 -1 -0.5 -4.5t-1.5 -7t-2 -6.5t-3 -3v0q-1 0 -1.5 0.5l-0.5 0.5v17q0 1 -3 2.5t-4 2.5
h-1v0q-3 -2 -4 -4.5t-2 -5.5t-1 -6v-5q0 -3 1 -5.5t3 -4t4.5 -2.5t5.5 -3l1 -3h-1.5h-1.5q-3 0 -5.5 1.5t-5.5 1.5l-0.5 -0.5l-0.5 -0.5v-20h4t6 -0.5l6 -1t3 -2.5l-1 -2h-5q-8 0 -16.5 0.5t-16.5 1.5h-0.5h-0.5l1 1l1 0.5t2 0.5q1 1 4.5 1.5t4.5 0.5v23l-3.5 2t-8.5 6
t-9 9.5t-4 13.5q0 3 1.5 6t1.5 7q0 3 -1.5 5.5t-3 4.5l-3 4t-2.5 6q0 5 -0.5 10.5t-1.5 11t-3 11t-5 9.5q-1 2 -4 3t-6.5 2.5t-6 3.5t-2.5 3q0 3 3 3q4 0 8 -2t8 -5t7 -6l6 -6q1 -5 2.5 -10t2 -10.5l1 -11t1.5 -9.5q0 -1 0.5 -2l0.5 -1h1q2 0 4.5 1.5t5 3.5t5.5 4t7 2
q0 -3 -1.5 -4.5t-4 -3.5l-5 -4t-3.5 -5q2 -4 7 -5.5t9 -1.5t7 3t5 7t3 8.5t3 7.5v25v2.5t0.5 3.5l1 4t1.5 3zM108 153v-3q1 -1 3 -3.5t4.5 -5t5 -4t4.5 -1.5t3 3t1.5 7t0.5 8v5q0 3 -2 4.5t-5 3t-6 2.5t-5 1q-1 0 -2 -2.5t-1.5 -5.5t-0.5 -6v-3zM86 137l-4 4t-4 4.5l-4 5
t-3 3.5q-2 2 -4 3t-3.5 2t-2.5 2t-1 4q5 0 9.5 -2.5t8.5 -6.5t7.5 -8t6.5 -7q2 -2 3.5 -5.5l3 -7t2 -7.5t1.5 -7q0 -1 0.5 -4.5t1.5 -8t1.5 -8t0.5 -4.5q1 -5 5 -7.5t9 -3.5t9.5 -1.5t7.5 -0.5h2q2 0 5.5 0.5t4.5 0.5q3 2 5.5 7.5t4.5 14t4 18t6 17t9.5 12.5t14.5 5
q1 0 2 -0.5t1 -1.5l-3 -3l-6.5 -6.5t-6.5 -7t-4 -5.5q-3 -5 -4.5 -11.5l-3 -13t-3 -12t-4.5 -10t-8 -7.5t-13 -3q-14 0 -22 2.5t-12.5 6.5t-6.5 10t-3 13.5t-3 16t-7 18.5zM69 93v3q6 0 11.5 -4.5t9.5 -11t6.5 -13.5t2.5 -13q0 -3 -1 -8.5t-3 -11t-5 -9t-7 -3.5q0 4 1.5 8.5
l3 9t3 8.5t1.5 9.5t-2.5 10.5t-5.5 9.5t-7 8.5t-8 7zM160 48q0 5 2 11t5.5 10.5t8 7.5t11.5 3h2t1 -2q0 -1 -3 -4t-7 -6.5t-7.5 -8.5t-3.5 -10q0 -1 -0.5 -4t-0.5 -7q0 -3 0.5 -6t0.5 -5l-0.5 -1t-1.5 -1v0q-2 0 -3.5 3t-2 6.5t-1 7.5t-0.5 6zM125 59q0 1 1 2.5t2 1.5h1
q4 -7 5 -13.5t1 -14.5v-4.5v-7.5t-1 -7t-4 -3q-2 0 -3 3t-1 5l-0.5 2t-0.5 3.5v3v2.5v2q0 1 -0.5 3.5t-0.5 4.5v3v3t0.5 4t0.5 4v3z" />
</svg>
