<?xml version="1.0" standalone="no"?>
<!DOCTYPE svg PUBLIC "-//W3C//DTD SVG 1.1//EN" "http://www.w3.org/Graphics/SVG/1.1/DTD/svg11.dtd" >
<svg xmlns="http://www.w3.org/2000/svg" xmlns:xlink="http://www.w3.org/1999/xlink" version="1.1" viewBox="-10 0 266 256">
   <path fill="currentColor"
d="M135 152q3 0 4.5 3t2.5 7.5t1.5 9t0.5 6.5q5 18 12.5 34t19.5 31q2 3 5.5 5.5t7.5 2.5q0 -4 -2 -8.5t-5.5 -9t-6.5 -8t-5 -7.5l-1 -2t-2.5 -4.5t-2.5 -5t-2 -3.5l-4 -12t-3.5 -12l-3 -12t-3.5 -11q2 -5 7.5 -6.5t10.5 -3t9 -5t4 -12.5q0 -3 -0.5 -6.5t-2 -6t-4 -4.5
t-6.5 -2h-2h-3.5t-5 0.5t-5 0.5h-3.5h-1q-1 0 -1.5 -1.5t-0.5 -2.5q0 -6 2 -8t5 -3.5t7 -3t7.5 -4t7 -7t5.5 -13.5v-16q0 -6 0.5 -11.5t0 -11t-3 -10t-8.5 -5.5h-13q-8 0 -17.5 -0.5t-18 1.5t-14.5 7t-6 15q0 6 0.5 14.5t1.5 17t4 16t8 10.5h10q5 0 10 2l1 2v12l-0.5 1
l-0.5 1q-1 0 -4 0.5t-4 0.5h-10h-10q-1 0 -1.5 -3t-2 -5.5t-3.5 -4.5t-4 -2t-2.5 1t-0.5 2q0 4 1 7.5t2 7.5t2.5 8t1.5 7q0 12 -5 22.5t-13 18.5q-1 2 -3 3.5l-4 3t-3.5 3t-1.5 4.5v1.5v2.5q6 -2 11.5 -6t10 -9.5t8.5 -11t7 -11.5h4h7h6h4h2t2.5 -0.5t2.5 -0.5h1h2zM125 120
h4h4q3 5 4 10t1 10v1q-1 0 -2 1t-1 2q-7 0 -15 1t-15 1q0 -7 0.5 -12t2.5 -8t6 -4.5t11 -1.5zM145 128q0 -3 0.5 -5.5t2.5 -3.5h4h4h3.5t4.5 1t3 2.5t1 4.5q0 6 -4 10.5t-10 4.5q-3 0 -4.5 -1.5t-2.5 -3.5t-1.5 -4.5t-0.5 -4.5zM118 84q0 -2 2 -5t5.5 -6t7 -5.5t5.5 -4.5h1
h1q0 1 1.5 2t2.5 2l2.5 2.5l1.5 1.5l4 2t3.5 2.5t2.5 3t1 3.5v1.5t-1 1.5q-3 1 -5.5 1.5t-4.5 1t-4 0.5h-5h-5.5t-7 -0.5t-6 -1t-2.5 -2.5zM109 64q0 -3 1 -5t3 -4t5 -3.5t5 -3.5q0 -1 2 -3l4.5 -4.5t4 -4.5t2.5 -2h4q3 4 8 8t9.5 8.5t7.5 9t3 9.5q0 2 -1.5 3t-3.5 1h-1h-1
l-2.5 -2.5t-3.5 -3t-4 -2.5t-3 -2t-2 -2.5t-2.5 -3t-3.5 -2.5t-4 -1t-4.5 3.5t-5.5 8t-6.5 8t-7.5 3.5q-2 0 -2.5 -1.5t-0.5 -3.5v-4v-4zM143 26l-0.5 -1l-0.5 -1q0 -2 1 -3t3 -1q6 0 10 0.5t6.5 2t4 4.5t1.5 8l0.5 1.5l1 3t0.5 2.5v1q-1 5 -5 5q-1 0 -3 -1t-3.5 -2.5
t-3 -3.5t-2.5 -3q0 -1 -1.5 -2.5l-3.5 -3.5l-3.5 -3.5t-1.5 -2.5zM110 45v-2.5t-0.5 -3.5t-0.5 -4v-3q0 -2 2 -4t5 -3.5t5.5 -2.5t4.5 -1q4 0 4 4q0 3 -2 6.5t-4.5 7t-5.5 5.5t-6 2v0v0q-1 0 -1.5 -0.5z" />
</svg>
