<?xml version="1.0" standalone="no"?>
<!DOCTYPE svg PUBLIC "-//W3C//DTD SVG 1.1//EN" "http://www.w3.org/Graphics/SVG/1.1/DTD/svg11.dtd" >
<svg xmlns="http://www.w3.org/2000/svg" xmlns:xlink="http://www.w3.org/1999/xlink" version="1.1" viewBox="-10 0 266 256">
   <path fill="currentColor"
d="M163 214q0 3 2 9t5 12t6.5 11t6.5 5q7 0 7 -7v-1v-2q-4 -3 -7 -6.5t-6 -7.5t-4.5 -8.5t-1.5 -8.5q0 -7 3.5 -11t7.5 -8t7.5 -8.5t3.5 -10.5t-3 -9.5t-6.5 -6l-7 -5t-3.5 -7.5q0 -2 3.5 -2.5t7 -1.5t7 -2.5t3.5 -7.5q0 -1 0.5 -3t0.5 -4t-0.5 -4t-0.5 -3q1 0 2.5 -1l3 -2
l3 -2t1.5 -3q0 -3 -3 -3.5t-6 -0.5q-6 0 -11.5 0.5t-10.5 0.5h-8q-2 0 -2 -2v-3q0 -4 5 -5.5t11 -2.5t10.5 -3t4.5 -9v-26q0 -3 -2 -3.5t-3 -0.5q-2 0 -2.5 0.5t-0.5 1.5v1.5t-1 3.5l-2.5 2.5t-2.5 1.5h-12q-2 0 -2.5 -2t-0.5 -3q0 -4 2.5 -6.5t6 -3.5t7.5 -1.5t7 -0.5
q2 -1 2.5 -2t0.5 -2q0 -3 -2 -3.5t-3 -0.5h-1.5h-1.5l-2.5 0.5l-5 1t-5 1.5l-2.5 1h-1q-1 0 -1.5 -1.5t-0.5 -2.5q0 -4 1 -8t1 -8q0 -8 -8 -8q-2 0 -3 3l-2 6q0 1 0.5 4.5t0.5 7t0.5 7t0.5 4.5v3v5q0 2 -0.5 4.5t-2 4.5t-3.5 2q-3 0 -5 -2q0 -1 -0.5 -3l-1 -4t-1.5 -3.5
t-3 -1.5t-2.5 1.5t-0.5 3v3.5v2v13t1 13q1 3 3.5 4.5t5.5 3t5.5 3t2.5 5.5q0 6 -3.5 7.5t-8.5 2.5t-9 4t-5 11q0 3 1 5.5t2.5 5l3 5t1.5 5.5t-1 5.5t-2.5 5t-3.5 5t-3 5.5q-2 11 -3 18t-1 16v3.5v2.5l3 2h1v0q2 0 4 -1.5l2 -1.5v-28q1 -2 1.5 -4.5t1.5 -5t2 -4.5t3 -2
q3 0 4 3t1.5 6.5t2 6.5t6.5 3q2 0 2.5 -1t0.5 -4t-1 -5.5t-2.5 -4.5l-3 -4t-2.5 -5q-1 -2 0.5 -4.5t4 -3.5t5.5 -2t4 -1t4 3t6.5 7t6.5 8t3 5q0 6 -3 10t-6.5 8.5t-6.5 10.5t-3 15zM77 168v10v8.5t0.5 9t1.5 9.5q0 4 1 10.5t3 13.5t4.5 12t6.5 5t4.5 -1t0.5 -5t-2 -7t-3 -7
q-3 -14 -5.5 -26t-2.5 -26q0 -10 0.5 -18t1.5 -18t3.5 -20.5t4.5 -20.5t4 -20.5t2 -20.5v-1q-2 -5 -2.5 -10.5t-2 -10t-4 -9t-6.5 -7.5h-3q-2 0 -3 0.5t-1 2.5q0 3 2.5 6t4.5 6q2 6 4 14t2 15q0 12 -2.5 22t-5.5 21q-4 15 -6 31t-2 32zM59 216q0 1 0.5 3.5t1.5 5t2 4t3 1.5
q4 0 5.5 -1.5t1.5 -4.5q0 -4 -1 -9t-2.5 -9.5l-3 -9t-3.5 -8.5v-4v-6.5v-6.5v-5v-7v-8.5t0.5 -9t1.5 -8.5t2.5 -8t1.5 -9v-4t-3 -2q-2 0 -4 3.5t-3.5 8.5t-3 11.5t-2 12.5t-1 11.5t-0.5 7.5q0 13 2 25.5t5 25.5zM105 216q0 2 1.5 2h2.5h2t2 -2v-3.5v-3.5q0 -6 -1 -12.5
t-2.5 -13t-2.5 -13.5t-1 -14q0 -9 2 -17.5t2 -16.5q0 -1 -0.5 -3t-0.5 -3t-1 -1.5t-2 -0.5q-3 0 -5 4t-3 9t-1 10v7v16v15q1 3 1.5 4t0.5 2q0 2 -0.5 3.5t0.5 3.5q0 2 1 6t1.5 8.5t1.5 8.5t2 5zM138 128q0 -1 0.5 -3t0.5 -3q1 0 3.5 -1t3.5 -2q1 0 2 -0.5t2 -0.5v-0.5
t1 -0.5v1q1 0 2 0.5l1 0.5q1 1 1 3.5t0.5 5t1 4.5t0.5 3v2v1t-1 1h-13q-1 0 -2 -1.5t-1.5 -3.5t-1 -3.5t-0.5 -2.5zM163 121v-2q0 -2 1 -3q1 0 5 -0.5t5 -0.5l1 -0.5t2 -0.5q4 0 5.5 2.5t1.5 6.5q0 6 -4 9t-10 3q-2 0 -3.5 -1.5t-2 -3.5t-1 -4.5t-0.5 -4.5zM116 65
q0 5 -1.5 9l-3 8l-3 8t-1.5 8q5 0 8.5 -4t5.5 -9.5t3 -11.5t1 -10v-9t-1 -9.5t-3.5 -8t-7.5 -3.5q-3 0 -4 0.5t-1 3.5t2.5 5.5t3.5 4.5q1 4 1.5 9t0.5 9zM65 91q0 2 1 3.5t3 1.5q3 0 5 -3t3 -7.5t1.5 -8.5t0.5 -6q0 -4 -0.5 -9.5t-2.5 -11t-5 -9t-9 -3.5q-2 0 -2 2v3
q0 5 1 9t2.5 8.5t3 8.5t1.5 9q0 3 -1.5 6.5t-1.5 6.5zM146 79q0 -4 3 -6t6.5 -2.5t7.5 -0.5h6h14q1 0 1.5 1l0.5 1q0 6 -3 9.5t-8 4.5t-10 1.5t-9 0.5q-3 0 -6 -2.5t-3 -6.5z" />
</svg>
