<?xml version="1.0" standalone="no"?>
<!DOCTYPE svg PUBLIC "-//W3C//DTD SVG 1.1//EN" "http://www.w3.org/Graphics/SVG/1.1/DTD/svg11.dtd" >
<svg xmlns="http://www.w3.org/2000/svg" xmlns:xlink="http://www.w3.org/1999/xlink" version="1.1" viewBox="-10 0 266 256">
   <path fill="currentColor"
d="M202 203q2 5 3 13t3 16t5.5 13.5t10.5 5.5q0 -5 -1 -10t-4 -10q-7 -21 -9 -44t-2 -46q0 -6 1 -12.5t1 -13.5q0 -6 -1 -11.5t-1 -11.5q0 -10 1 -20t1 -20v-4v-5v-6v-4q-3 -7 -6 -11t-6.5 -6t-9 -2h-12.5h-82l-26 10l-5 5v1.5v3.5v3v4q0 18 1 35.5t1 36.5v30q-2 4 -3 9.5
t-1.5 11.5l-1 12t-1.5 11q-1 6 -3 11.5t-3 11.5q-1 4 -3.5 8.5l-5 9t-4.5 8.5t-2 7t3 3v0q4 -2 7 -6t5.5 -8.5t4.5 -9t3 -7.5l0.5 -1l0.5 -1q9 -24 12 -50t3 -52q0 -18 -1.5 -35.5t-1.5 -34.5v-1q0 -2 1.5 -5.5t1.5 -4.5l2 -1q8 -4 17 -5.5t18.5 -2t18.5 0t18 0.5h11.5h10.5
t10.5 1t11.5 2q2 1 4 5t2 7v45q-1 1 -1.5 4t-0.5 5v0q0 14 1 28t1.5 28t1 28.5t0.5 27.5zM142 195q3 0 6 4t6 9.5t7 12t9 12t11.5 9t15.5 2.5l0.5 -0.5l0.5 -0.5v-1v0q0 -2 -2 -4t-5.5 -4t-6 -3.5t-4.5 -2.5q-1 -2 -5 -7t-8.5 -11t-8 -11.5t-3.5 -6.5v-1v-1q4 0 8 -1.5
t7.5 -3.5t5.5 -5t2 -8q0 -9 -3.5 -14.5t-9 -8t-12.5 -3.5l-14 -2l-0.5 -1.5t-0.5 -3t-0.5 -3t-0.5 -2.5v0v-1q0 -1 0.5 -2t1.5 -1h1.5h2.5q4 0 7 1t6 2.5t6.5 2.5t7.5 1q0 -4 -2.5 -6.5t-6 -3.5t-7.5 -2.5t-7.5 -2.5t-6 -3.5t-2.5 -6.5v-2t0.5 -2l1 -2t1.5 -1q5 0 10 3
t9.5 7t9 7t9.5 3h2t1 -2q0 -1 -1.5 -2.5l-3 -3t-3.5 -3t-3 -2.5q-2 -1 -5 -3t-7 -4t-7.5 -4t-4.5 -2q-3 -2 -5.5 -3t-2.5 -5q0 -3 2 -5.5t5.5 -4t7 -2t5.5 -0.5q3 0 6 2t6 5q1 1 3.5 3t5.5 4.5t5.5 5l3.5 3.5h2q0 -6 -4 -10.5t-8.5 -8.5t-8.5 -8.5t-4 -10.5v-3v-3l0.5 -1
t0.5 -2t0.5 -2l0.5 -1q0 -7 -3.5 -10.5t-8 -5t-10 -1.5h-9.5q-8 0 -16.5 1t-15.5 4v0.5v1.5v1.5t1 1.5q9 -1 14.5 -1.5t12.5 -0.5h6t8 0.5t7 1.5t4 5q0 1 -0.5 4t-0.5 4q-9 0 -17 -1t-17 -1h-2q-1 1 -4 1.5l-6 1t-5.5 1.5t-3.5 1q0 1 -1 1.5l-1 0.5v0v1t1.5 1.5t2.5 0.5
q6 0 11 -1t11 -1h6q5 0 9.5 0.5t8.5 1.5t4 4q0 2 -1 3t-2 1.5t-2.5 0.5t-3.5 1l-2 1t-5 1.5t-5 1.5l-2 1h-5.5h-7.5h-8h-5l-1 0.5l-1 0.5v1v1q1 1 1.5 2l0.5 1h22q0 5 -2.5 8t-6 5.5t-8 4t-8.5 4.5l-5 2.5t-3 2.5v3h6l2 -1t5 -3t6 -3.5l5 -2.5t4.5 -3t4.5 -2t3 2.5t1 4.5v2
v1q-2 3 -7.5 7t-11.5 7.5t-10 6.5t-4 6q5 0 8.5 -2t7.5 -4t7.5 -4t7.5 -2v17l-2 2h-5t-8.5 0.5t-8.5 1.5t-4 3l0.5 0.5t0.5 1.5l2.5 0.5t3.5 0.5h0.5h0.5q6 0 11.5 -0.5t11.5 -0.5h12q7 0 12 1t8.5 5t3.5 11v6q-3 3 -6.5 5.5t-7.5 2.5t-5.5 -2t-3 -5l-3 -6t-5.5 -4h-4.5
h-4.5h-4.5t-7.5 0.5t-7 2t-3 3.5t2 2.5t3 0.5q4 0 7 -1t7 -1q2 0 4.5 0.5t5 1.5t4.5 2.5t2 4.5q0 2 -2 3t-4.5 2t-5.5 1h-3h-6.5t-9 0.5t-9 0.5h-6.5v5l3.5 0.5t4.5 1.5h10q8 0 15 -1t14 -1z" />
</svg>
