<?xml version="1.0" standalone="no"?>
<!DOCTYPE svg PUBLIC "-//W3C//DTD SVG 1.1//EN" "http://www.w3.org/Graphics/SVG/1.1/DTD/svg11.dtd" >
<svg xmlns="http://www.w3.org/2000/svg" xmlns:xlink="http://www.w3.org/1999/xlink" version="1.1" viewBox="-10 0 266 256">
   <path fill="currentColor"
d="M189 245q0 2 0.5 4t3.5 2q1 0 2.5 -2.5t2.5 -3.5v-7.5t0.5 -12t0.5 -12v-7.5v-4v-8.5v-9.5v-8v-8v-10v-9v-5v-7t-0.5 -13.5t-0.5 -16v-16v-13v-7.5q-1 -10 -0.5 -17t-1.5 -11.5t-7 -6.5t-16 -2q-2 0 -7 -0.5t-10 -0.5t-10 -0.5t-7 -0.5t-2 -0.5v-1.5q0 -4 1 -7t1 -7v-5
l-3 -1.5t-3 -0.5q-3 0 -3.5 1.5t-0.5 4.5t0.5 6t0.5 6v1q0 1 -0.5 2.5l-0.5 1.5h-32q-4 2 -8.5 3t-8 2t-7.5 3.5t-6 6.5q-2 22 -2.5 44.5t-2.5 44.5q-2 27 -3.5 54.5t-1.5 54.5q0 2 0.5 3t2.5 1q1 0 2 -1t2 -2.5t1 -3.5t1 -3q2 -46 3.5 -93t6.5 -93q1 -6 7.5 -8.5t14.5 -3.5
t16 -1h11h3.5t1.5 3q0 1 -3 3.5t-7 5t-8 4t-6 1.5q-3 0 -4 -2t-2 -5q-3 0 -4.5 3.5t-1.5 6.5l0.5 2t0.5 4v4v3t0.5 3.5t0.5 6.5q0 3 -0.5 6t-0.5 4q2 2 3 4t2 4.5t2.5 4t4.5 1.5q1 0 3 0.5t5 0.5t5 0.5t3 0.5l3.5 0.5l3.5 0.5h2h2q2 0 6.5 -0.5l9 -1t8 -1t4.5 -0.5
q4 0 7.5 -3.5t3.5 -7.5l4 -31v-1.5v-3t-0.5 -3.5t-0.5 -3q0 -3 -0.5 -3.5t-2.5 -0.5t-2.5 1.5t-1 3.5t-1 3.5t-3.5 1.5q-2 0 -6 -2l-9 -4.5t-8.5 -5.5t-4.5 -4q4 -2 7.5 -2.5t7.5 -0.5q9 0 17.5 1t16.5 2q2 3 3 7t1 8v8v7v24q0 3 0.5 12t0.5 19.5t0.5 19.5t0.5 11v3v4.5v4.5
v4q0 17 -1.5 34.5t-1.5 34.5zM169 207q0 10 -1 19t-1 18q4 0 5.5 -1.5t2.5 -4t1 -6v-5.5q0 -11 -0.5 -21.5t-0.5 -20.5q-1 -6 -1.5 -11.5t-2 -9.5t-5 -6.5t-10.5 -3.5q-8 0 -14 -0.5t-13 -0.5h-10t-12 1.5t-10.5 4t-6.5 7.5q-4 15 -5 31t-1 32v4v3q1 2 1.5 2h1.5
q2 0 2.5 -0.5t1.5 -2.5q0 -3 0.5 -9.5t1 -14t1 -14.5t0.5 -10q0 -4 1 -8.5t2.5 -8.5t5 -6.5t8.5 -3.5h3h5h4h3h9t12.5 0.5t12 2.5t6.5 6q0 4 0.5 9l1 10l1 10t0.5 9zM137 176q-3 0 -7.5 0.5t-8.5 2t-7 4t-3 6.5v49q0 1 1.5 1h1.5q4 0 5 -4t0.5 -10t-1.5 -13t0 -13t4.5 -10.5
t11.5 -4.5q4 0 6.5 2t2.5 7v36q0 1 -0.5 3t-0.5 3v1q0 3 2 3t3.5 -1t2.5 -3t1.5 -4.5t0.5 -3.5v-4l-0.5 -4t-0.5 -8t-0.5 -7.5t-0.5 -4.5q0 -4 -0.5 -8t-2 -7.5t-4 -5.5t-6.5 -2zM165 121h3q1 0 2.5 0.5l3 1t1.5 1.5v30q2 0 4.5 -2t2.5 -5v-23q1 -2 1 -3.5v-3.5v-5.5
t-3 -3.5q-5 0 -5 6q-6 1 -12.5 1.5t-12.5 1.5h-44q-5 0 -7 -0.5t-3.5 -1.5t-3 -2.5t-4.5 -3.5q-2 0 -2 2v4v4v1.5t0.5 3t0.5 3v2.5l-0.5 2l-1 4l-1 4t-0.5 3t-0.5 5t-0.5 5q5 0 7 -4.5t2.5 -9.5t0.5 -9q0 -5 1 -5h20l0.5 1.5t1.5 1.5v1q0 2 -2 4t-5 4t-5.5 3.5t-3.5 2.5v1
q0 2 1 2.5t3 0.5q4 0 7 -2t5.5 -5t3.5 -7t0 -8q3 -1 6.5 -1h6.5q7 0 9 1.5t2 3.5v6q0 4 3 8q5 1 7.5 1h6.5h2h2.5t2.5 -0.5t1 -1.5v-1l-2 -2l-1 -1h-14q-1 0 -1.5 -2.5t-0.5 -3.5v-2v-3.5t2 -2.5l1.5 -0.5t3.5 -0.5t3.5 -0.5t2.5 -0.5h2zM104 96q0 -2 2 -2.5t4 -0.5h4h3
t4.5 -0.5t7 -0.5t7 -0.5t4.5 -0.5h12h11l2 3v1q0 4 -4 5.5t-9 2t-9.5 0.5h-6.5h-6q-6 0 -11.5 -0.5t-10 -2t-4.5 -4.5zM101 80v-0.5v-1.5q12 -2 23.5 -1.5t22.5 0.5q5 0 8 -1.5t8 -1.5q3 0 3.5 2t0.5 5v3t-1 2h-56q-4 0 -6.5 -1t-2.5 -5zM103 68q0 -1 4 -3.5t9.5 -5t10.5 -4
t7 -1.5h3l20 10q3 -1 6 0.5t4 3.5q-4 0 -8 2h-39q-3 1 -5.5 1h-5.5h-5l-0.5 -1t-0.5 -2z" />
</svg>
