<?xml version="1.0" standalone="no"?>
<!DOCTYPE svg PUBLIC "-//W3C//DTD SVG 1.1//EN" "http://www.w3.org/Graphics/SVG/1.1/DTD/svg11.dtd" >
<svg xmlns="http://www.w3.org/2000/svg" xmlns:xlink="http://www.w3.org/1999/xlink" version="1.1" viewBox="-10 0 266 256">
   <path fill="currentColor"
d="M149 232q0 2 1.5 5.5t4 6.5t5 5t5.5 2q2 0 4 -1.5t2 -3.5q0 -1 -1.5 -3t-3.5 -3.5t-4.5 -3t-3.5 -2.5v-12q4 -3 7 -7t3 -9q0 -4 -2.5 -6t-6 -3.5t-6 -3.5t-2.5 -6q0 -2 2 -3t4.5 -1.5l5 -1t3.5 -0.5v-3.5t0.5 -5t0.5 -5t1 -3.5q0 -1 0.5 -2l0.5 -1q1 -1 3 -1.5t2 -2.5
q0 -3 -3.5 -2.5t-8 0.5t-8 -1t-3.5 -7v-3t3 -1h23l3 6l0.5 4.5t1 10.5l1 12t0.5 9v12v17v17.5v11.5l0.5 1l0.5 1h0.5h0.5q2 0 3.5 -2.5t1.5 -4.5v-12q0 -5 -0.5 -10t-0.5 -11q0 -4 0.5 -8.5t0.5 -9.5v-10t-0.5 -14t-1.5 -12.5t-2 -7.5t-3.5 -4.5l-2.5 -2.5h-29q-1 0 -1.5 -2
l-0.5 -2q0 -4 4 -5t9 -1t10 -0.5t8 -2.5l3.5 -3.5l2.5 -2.5v-17l-1 -1t-1.5 -2t-2 -1.5t-1.5 -1.5q-3 -1 -5.5 -1.5t-5.5 -0.5h-5t-6 -1v-1q0 -6 5 -7.5t10.5 -2t10 -1.5t4.5 -7q-5 0 -8.5 1t-8.5 1q-2 0 -3 -2t-1 -4q0 -5 3 -7.5t6.5 -4t6.5 -2t3 -2.5t-3 -2q-16 0 -34 1
t-35 2v4h17q1 0 1.5 1t1 3t0.5 3.5v2.5q0 3 -2 4.5t-5.5 2t-7 0.5h-5.5v5q6 0 11 -1t11 -1h1q1 4 1.5 6.5t0.5 6.5t-3.5 4.5t-8 1t-8 2t-3.5 8.5q0 6 2 10t5.5 6t8 2.5t10.5 0.5q2 0 1.5 2.5l-0.5 2.5v3v2q-7 1 -14.5 1.5t-14.5 1.5v1v1v1.5t2 1.5h5q5 0 9.5 -1t9.5 -1
q3 0 3 4q0 6 -1.5 9.5t-4.5 5t-6 1.5t-6 0.5t-4.5 2t-1.5 6.5q0 3 1 6t2 5.5t2 5.5t1 6q0 4 -1.5 7t-3.5 5.5t-3.5 5.5t-2.5 6q0 2 -0.5 5.5t-1.5 6.5t-1.5 6t-0.5 5t1 3.5t2 1.5q3 0 5 -3.5t3 -8t1.5 -10t1.5 -10.5t2.5 -8t3.5 -3h1v0l8 8v0v0h1l1 -1l1 -1l0.5 -1.5
l0.5 -1.5l-0.5 -1l-1 -2l-1 -2l-0.5 -1v-1v-1t1 -2.5t3 -1.5q1 0 3.5 1.5t5 3.5t4 4t1.5 4q0 4 -1 6t-3 4.5t-3.5 6t-1.5 9.5zM197 246l1 2.5l1 2.5q5 0 6 -3l2 -6v-9v-12v-15v-14v-13v-8v-62.5t-1 -61.5q0 -4 -2.5 -7t-5.5 -5q-1 -1 -3.5 -1.5l-5 -1t-5 -0.5h-3.5
q-2 0 -8 -0.5t-13 -0.5t-13 0.5t-8 0.5l-5 -2v-20q0 -1 -2.5 -2.5t-4.5 -1.5h-1q-2 2 -3.5 4.5t-2 6t-0.5 6.5v6l-3 3h-6.5h-10t-10 0.5t-6.5 0.5q-12 1 -18 4t-8 7.5t-2.5 12t-0.5 17.5q-1 20 -1.5 40.5t-1.5 40.5q-2 21 -3.5 42.5t-1.5 42.5q0 3 1 4t3 1q5 0 7 -3
q0 -22 0.5 -44t2 -43.5l3 -43t2.5 -43.5v-3.5v-5.5v-5.5v-3.5q1 -5 7 -7t13.5 -2.5l15 -1t11.5 -0.5h3h5.5h7.5h5q15 0 29 1t29 1q3 5 5 12q-1 38 0 75t1 75v9.5v11.5t-0.5 11.5t-0.5 10.5zM91 237q0 3 4 3q3 0 4 -1.5t2 -4.5q0 -4 -0.5 -11.5t-0.5 -16.5v-21v-20t0.5 -17.5
t0.5 -10.5q0 -19 2 -37.5t2 -36.5q0 -6 -1 -10t-7 -4v31h-13v-19q0 -3 -1.5 -3.5t-3.5 -0.5q-1 0 -2 0.5t-1 3.5q1 13 -1 27t-2 28q4 0 5.5 -2.5t2 -5.5t0.5 -7t1 -7t3.5 -5.5t6.5 -2.5h1q0 1 0.5 1.5l0.5 0.5v4q0 2 0.5 5t0.5 6v4v12q0 6 -0.5 11t-0.5 10.5t-1 12.5
q-1 3 -2.5 3.5t-3.5 0.5h-2q-2 0 -3.5 -0.5t-2.5 -1l-1 -0.5v-25q0 -2 -1 -2.5t-3 -0.5q-1 0 -2 0.5t-2 1.5q1 19 -0.5 37t-1.5 36h2.5t3 -0.5t2.5 -1.5t1 -3v-30q0 -2 1 -2.5t2.5 -1l3 -1t2.5 -0.5q6 0 6.5 3.5t0.5 8.5q0 16 -1 31.5t-1 31.5zM126 174q0 -4 4 -7t9 -3
l1 0.5t2 0.5q0 1 0.5 1.5l0.5 0.5v17l-0.5 0.5l-0.5 0.5q-1 1 -4 2t-4 1h-1v0q-1 -1 -2 -4.5t-1 -4.5q-1 0 -2 -2t-2 -2v-1zM149 167q0 -3 2 -4t4 -1q4 0 4.5 2t0.5 6q0 3 -2 5.5t-6 2.5h-1q0 -2 -0.5 -5t-1.5 -4v-2zM122 109v-4.5t1 -3.5h11q2 0 2.5 3t1.5 6t1 6v3
q-2 0 -5 -0.5t-6 -1.5t-4.5 -3t-1.5 -5zM145 106v-6q0 -1 2.5 -1.5t3.5 0.5q2 0 3.5 2.5t3 6t2.5 6.5t1 4h-12q-2 0 -3 -1.5t-1 -3.5v-4v-3zM163 104q0 -4 3 -5t7 -1q3 0 4 3.5t1 5.5q0 3 -1 6.5t-4 3.5q-2 0 -3.5 -1.5t-3 -3.5t-2.5 -4.5t-1 -3.5zM143 63q0 -3 1 -4.5
t2.5 -2t4.5 -0.5h6q2 0 3.5 0.5t1.5 3.5q0 2 -1.5 5.5t-3 7.5l-3 8t-2.5 7v4t-2 1q-3 0 -4 -4t-1.5 -9l-1 -10t-0.5 -7z" />
</svg>
