<?xml version="1.0" standalone="no"?>
<!DOCTYPE svg PUBLIC "-//W3C//DTD SVG 1.1//EN" "http://www.w3.org/Graphics/SVG/1.1/DTD/svg11.dtd" >
<svg xmlns="http://www.w3.org/2000/svg" xmlns:xlink="http://www.w3.org/1999/xlink" version="1.1" viewBox="-10 0 266 256">
   <path fill="currentColor"
d="M152 234q0 1 6 3.5t13.5 5.5t14.5 5.5t8 2.5h3t2 -2q0 -4 -6.5 -6t-14 -4t-13.5 -5t-6 -9q0 -3 4 -6t9 -6.5t9 -8.5t4 -13v-41q0 -3 -3.5 -7t-8 -8t-9.5 -6.5t-8 -3.5v-8q0 -1 2.5 -1.5t5.5 -0.5t7 -0.5t7 -2t5 -4t2 -7.5q0 -3 -3 -5.5t-6 -2.5q-1 -1 -3 -1t-4.5 -0.5
t-4.5 -0.5h-3v-1v-1q0 -1 0.5 -3t1.5 -4.5t2 -4t2 -1.5h13l2 -2l-0.5 -0.5t-1.5 -0.5q-1 -1 -4 -1.5t-5 -0.5l-0.5 -1.5l-1 -3t-1 -2.5l-0.5 -1q-3 0 -4 2.5l-2 5t-2.5 5.5t-3.5 4l-0.5 -0.5l-0.5 -0.5q-1 -1 -2 -3t-3 -4.5t-3 -5t-2 -2.5h-1q-1 5 -3 7.5t-5 2.5h-5t-2 2v1
q0 1 0.5 1.5l0.5 0.5h1h1l1.5 -0.5t3.5 -0.5t3.5 -0.5t2.5 -0.5h1q4 0 6 4.5t2 7.5q0 4 -3.5 4.5l-7 1t-6.5 1.5t-3 6t2.5 7t5.5 3l6 2t3 4t-3.5 6.5t-7 6.5t-6.5 5.5t-3 5.5q4 0 7 -2t6 -4.5t5 -4.5t5 -2q2 0 4.5 1.5t4.5 2.5q5 4 9 7t6 7t2.5 9t0.5 11q0 5 -0.5 10l-1 10
t-2.5 10t-5 8.5t-6 5.5l-6 4t-5 5.5t-2 8.5l0.5 2t0.5 3zM97 237q0 2 0.5 3.5t2.5 1.5q1 0 2 -1.5t1.5 -3t0.5 -3v-1.5q5 -28 7 -52.5t4 -51.5q1 -16 3 -32.5t2 -32.5v-4.5t-0.5 -7.5t-1.5 -7t-4 -3v0v0q-1 2 -1 5q0 4 -0.5 7t-2 5.5t-4.5 2.5t-4.5 -2t-2.5 -4.5t-3 -4.5
t-5 -2q0 6 0.5 12t0.5 12q0 5 -1 9.5t-2.5 8.5t-3 7.5t-1.5 6.5q4 0 6.5 -2.5t4 -5.5l3 -6t3.5 -5v-4t0.5 -5.5t1.5 -5t3 -2.5q4 0 4.5 2.5t0.5 4.5q0 6 -1 10.5t-1 10.5q0 4 -0.5 11t-0.5 13v11v5l-2 3h-1.5h-2.5q-5 0 -6 -1.5t-1.5 -4t-1.5 -6t-5 -7.5h-1v6.5v9.5t-0.5 10
t-0.5 6v3t-1 5t-1.5 5.5t-0.5 3.5q0 3 -1.5 5t-3 4.5t-2.5 5t-1 5.5q0 1 0.5 1.5l1.5 1.5q7 -6 11 -13.5t6 -15.5v-6t0.5 -6t2 -4.5t5.5 -1.5t5 0.5t1 4.5v4l-1 1t-1.5 2l-1 2l-0.5 1v2v5v4v3v3.5t-0.5 6t-0.5 6.5v5q-1 10 -3.5 20.5t-2.5 20.5zM193 143v19t1 24t3.5 23
t8.5 17h1q2 0 2 -1v-2q0 -8 -2 -16l-4 -16v-61l-0.5 -2.5l-0.5 -2.5v-1q0 -16 2.5 -33t2.5 -34v-3t-0.5 -5t-0.5 -5v-3q-6 -8 -12 -11.5t-13 -5t-14.5 -2.5t-16.5 -3q-2 0 -3 -1.5l-2 -3l-2 -3t-5 -1.5q-2 0 -3 1.5t-1.5 3.5t-1.5 4t-3 2q-9 1 -18 1.5t-17 3t-14.5 7.5
t-10.5 15q1 5 1 8.5t0.5 6.5t0.5 7v7q0 11 -1 23.5t-2 25.5t-2.5 25.5t-2.5 23.5q-1 2 -1.5 5l-1 6l-1 6t-0.5 4q-1 2 -3 5.5t-4 7.5t-4 7t-2 6l0.5 1.5t1.5 1.5q2 0 4 -1.5t3.5 -3.5t3 -4.5t1.5 -4.5q1 -1 2 -3.5t3 -6t3 -6.5t1 -4q1 0 1 -2v-4.5t0.5 -4.5l0.5 -2
q0 -2 1 -8t2.5 -13.5t2.5 -13.5t2 -8v-4.5v-7.5v-8.5v-6.5v-5q0 -3 0.5 -11t1 -17t0.5 -17t1 -11q3 -7 9.5 -11t13.5 -6t15 -2.5t15 -0.5h15q2 0 8.5 1t13.5 2t12 2t6 1q1 2 2.5 4.5t2 5.5l1 6t1.5 5v13q0 19 -2 38t-2 38zM129 191q0 8 3 12.5t10 4.5q9 0 14.5 -2.5
t5.5 -12.5q0 -1 0.5 -2t0 -2.5t-1 -2.5t-1.5 -1t-2 1l-2 2t-2 1.5t-3 0.5h-5q-2 0 -4.5 -0.5t-5 -2t-3.5 -3.5q-1 1 -2.5 3t-1.5 4zM136 196q1 -2 2 -2h3h3.5t4.5 0.5l4 1t2 2.5t-1.5 2.5l-3 1t-2.5 0.5h-3q-4 0 -5 -1t-4 -5zM126 176q0 2 2.5 2.5l5 1t4.5 0t3 -0.5h7h7
t6.5 -0.5t8.5 -0.5v-5q-3 1 -6 0t-6 -2.5t-4.5 -4t-1.5 -5.5q0 -4 2 -5.5t4.5 -2.5l5 -2t3.5 -2q0 -1 -0.5 -1.5t-1.5 -0.5q-5 -2 -11 -1.5t-11 0.5h-6.5h-4.5l-2 1q3 2 6.5 6t3.5 7t-2 5l-4 4t-4.5 3.5t-3.5 3.5zM140 172q0 -2 1.5 -4t2.5 -3l6 7q-1 1 -2.5 1h-3.5h-3
q-1 0 -1 -1zM143 152l2.5 -1l2.5 -1h2h1q0 2 -1.5 2.5t-3.5 0.5h-2t-1 -1zM138 103q0 -2 1.5 -3.5t3.5 -1.5q6 0 6 6q0 3 -1.5 3.5t-4.5 0.5h-1.5h-1.5q-2 -2 -2 -5zM168 101q0 -2 0.5 -3t2.5 -1q7 0 7 5q0 3 -1.5 4.5t-3.5 1.5q-3 0 -4 -2.5t-1 -4.5zM158 98q2 0 2.5 1
t0.5 2q0 3 -1.5 3.5t-3.5 0.5v-4t2 -3zM130 50q2 2 5 2.5t6 0.5h7h6q7 0 14 -1t15 -1q0 -1 -0.5 -2.5t-2.5 -1.5h-11q-4 0 -9.5 -0.5t-10.5 -0.5t-10 1t-9 3z" />
</svg>
