<?xml version="1.0" standalone="no"?>
<!DOCTYPE svg PUBLIC "-//W3C//DTD SVG 1.1//EN" "http://www.w3.org/Graphics/SVG/1.1/DTD/svg11.dtd" >
<svg xmlns="http://www.w3.org/2000/svg" xmlns:xlink="http://www.w3.org/1999/xlink" version="1.1" viewBox="-10 0 266 256">
   <path fill="currentColor"
d="M164 185q0 11 3.5 21t10 18.5t14.5 15t18 10.5h1h1l1.5 -1.5l1.5 -1.5l-3 -3.5t-7.5 -8t-9.5 -11t-9.5 -13t-7.5 -13.5t-3 -14q0 -8 4.5 -14t9.5 -12t9 -12.5t4 -15.5q0 -6 -3.5 -10t-7.5 -7t-7.5 -5.5t-3.5 -5.5l2 -20q0 -2 3.5 -4.5t7.5 -6.5t7 -10t3 -15
q0 -7 -2 -11.5t-7 -9.5h-11h-8h-7.5t-7.5 0.5t-9 1.5q-2 -1 -3.5 1.5t-1.5 4.5h39q3 0 4.5 1.5t2 3.5t0.5 4v4q0 3 -1 7t-3 7t-4.5 5.5t-5.5 2.5t-6.5 -2.5l-7 -5t-8 -5t-9.5 -2.5q0 4 3 6.5t6.5 4.5t6.5 5t3 7q0 1 -3.5 2.5t-7.5 3.5t-8.5 3.5t-6.5 2.5q0 2 1.5 2h2.5
q13 0 25 -7q3 1 3.5 4t0.5 5q0 6 -3 12t-7 11t-9 9.5t-9 7.5q-1 0 -4 2t-3 3v0v1v0q0 1 1.5 1.5l1.5 0.5q6 -1 11 -4.5t9 -8t8.5 -8t7.5 -3.5q4 0 6.5 1.5t4 4.5t2 6t0.5 6q0 6 -4 12t-9 12t-9 12.5t-4 14.5zM86 190q0 2 0.5 6.5t0.5 10.5v12.5t0.5 12t1.5 9t2 3.5t1 -0.5
v-0.5q1 0 2 -1.5l1 -1.5v-55q6 0 10 3t7.5 6.5t8 6.5t10.5 3q4 0 4 -4q0 -2 -2.5 -4t-5.5 -4t-6 -3t-4 -1q-6 -5 -11.5 -11t-10.5 -13v-2q0 -4 2 -5.5t4.5 -2t5.5 -1t5.5 -2t4 -5t1.5 -10.5q0 -8 -5 -12.5t-13 -4.5q-5 0 -10 1t-9.5 3.5t-7 7t-2.5 10.5q0 7 2.5 9.5t5 4
t5 2.5t2.5 4q0 7 -3 12.5t-8 10.5t-10.5 8t-10.5 6t-8 5t-3 3q0 2 1.5 2.5t2.5 0.5q6 0 11 -3t9.5 -6.5t8.5 -6.5t9 -3h1zM82 139q0 -4 2 -6t5 -3t6.5 -1.5t5.5 -0.5h4t4 2v2v3q0 4 -2 6.5t-4.5 3.5t-5.5 1.5t-6 0.5q-4 0 -6.5 -2t-2.5 -6zM56 116q0 2 1 3t2 1q4 0 8.5 -2.5
t8.5 -5.5t8 -5.5t8 -2.5t8 1.5t8 3.5l8 4t9 2q0 -3 -4.5 -6t-10 -6t-9.5 -6.5t-4 -8.5q0 -3 2 -4t4.5 -1.5t5.5 -0.5h4q3 -3 4 -5.5t1 -6.5q0 -6 -1.5 -9.5t-4.5 -5.5t-7.5 -2.5t-9.5 -0.5t-9.5 1t-8 3t-5 5.5t-1.5 10.5q0 5 2.5 7.5t6 3.5t6.5 2t3 5q0 5 -5 8t-11 6
l-11 5.5t-6 6.5zM82 69q0 -4 1.5 -5.5t3.5 -2t5 -0.5h5q6 0 9 1.5t3 7.5q0 3 -1.5 4t-3.5 2t-4 1h-4h-5t-4 -1t-3.5 -2.5t-1.5 -4.5zM46 49q-2 1 -2 3.5v3.5h9l2.5 -1t5.5 -3t6 -3.5l5 -2.5q6 -3 11 -7t12 -4h2l28 16h0.5h0.5h2.5t1.5 -2q0 -1 -1.5 -3t-2.5 -2l-27 -19
l-4 -12h-1q-2 0 -3.5 2.5t-3.5 5.5t-4.5 6t-5.5 5q-1 1 -5.5 3.5t-9.5 5t-9.5 5t-6.5 3.5z" />
</svg>
