<?xml version="1.0" standalone="no"?>
<!DOCTYPE svg PUBLIC "-//W3C//DTD SVG 1.1//EN" "http://www.w3.org/Graphics/SVG/1.1/DTD/svg11.dtd" >
<svg xmlns="http://www.w3.org/2000/svg" xmlns:xlink="http://www.w3.org/1999/xlink" version="1.1" viewBox="-10 0 266 256">
   <path fill="currentColor"
d="M51 246v6q5 0 10.5 -4.5t11 -11t9.5 -12.5t5 -10q3 -10 5.5 -22.5t2.5 -23.5q0 -8 -1.5 -15.5t-1.5 -15.5h62l2 -0.5t3 -0.5q7 -3 11 -5.5t7 -6.5t4 -9t1 -11q0 -10 -4.5 -14.5t-9.5 -7t-9 -3.5t-4 -4v-1.5t1 -1.5q2 -3 4.5 -7t5 -9t5.5 -9.5t6 -7.5q1 -3 6 -6t10 -7
t8.5 -7.5t3.5 -5.5v-0.5v-0.5q-1 0 -2 -1t-2 -1q-6 1 -11.5 5t-10 8t-9 8.5t-9.5 7.5h-37q-1 0 -3 0.5t-5 0.5t-5 0.5t-3 0.5h-1q-3 0 -6 -4.5t-7.5 -10t-10.5 -10t-13 -4.5h-0.5h-0.5l-1 0.5t-1 1.5v0v0v1v0l1.5 1.5l2.5 2.5l2.5 2t5.5 4t5 4.5t3 2.5q2 2 3.5 7t4 10.5
t4.5 10.5t4 6l1 13l-0.5 0.5t-0.5 1.5q-7 3 -11.5 6t-6.5 6.5t-3 9t-1 13.5q0 11 1 22t1 22q0 12 -1 24t-4.5 23t-10 21t-16.5 18zM90 122v-1q0 -1 0.5 -4t0.5 -6.5t0.5 -6t0.5 -3.5q4 -6 11 -8.5t15 -3t16 0t13 0.5t9.5 0.5t7 2t4.5 4.5t2 9q0 3 -1 7t-3 8q-16 6 -34.5 7
t-35.5 1q-3 0 -4.5 -2t-1.5 -5zM108 51q0 -1 2 -2.5t3 -1.5h34l1.5 0.5l3 1t3 1.5t1.5 2l-10 27h-29q-1 0 -2.5 -3.5t-3 -8.5t-2.5 -9.5t-1 -6.5z" />
</svg>
