<?xml version="1.0" standalone="no"?>
<!DOCTYPE svg PUBLIC "-//W3C//DTD SVG 1.1//EN" "http://www.w3.org/Graphics/SVG/1.1/DTD/svg11.dtd" >
<svg xmlns="http://www.w3.org/2000/svg" xmlns:xlink="http://www.w3.org/1999/xlink" version="1.1" viewBox="-10 0 266 256">
   <path fill="currentColor"
d="M54 248q0 1 0.5 2t2.5 1q3 0 6 -2.5t5 -6.5v-9.5t0.5 -14.5t0.5 -17t0.5 -17.5t1 -15t0.5 -9.5v-3v-4q0 -8 1 -15.5t1.5 -14.5t1 -15t1.5 -17v-8.5t0.5 -9.5t1.5 -9t4 -7q2 -3 5 -3.5t6 -0.5t6 -0.5t5 -2.5q19 -2 38 -2.5t38 -1.5q3 -2 5.5 -6.5t2.5 -8.5q0 -3 -0.5 -6
t-2 -5t-4 -3.5t-5.5 -1.5h-4h-5h-5h-4h-38t-38 2q-1 0 -3 1.5t-2 2.5q0 3 1.5 4.5t3.5 2t4.5 0t3.5 -0.5q14 0 27 -1t27 -1h22q2 1 4.5 2t2.5 4q0 2 -1.5 4t-3.5 3h-6.5t-9.5 0.5t-9.5 0.5h-6.5h-13q-9 1 -17.5 1.5t-16.5 2.5t-14 6.5t-9 14.5q-3 17 -5 35.5t0 36.5l-2 4
q0 13 -0.5 27t-1.5 27.5l-2 27t-1 27.5zM185 244q1 2 3.5 3t5.5 1l1.5 -0.5t2.5 -0.5l1 -2t1 -3q-1 -5 -3 -10t-5 -9.5t-6 -9.5t-5 -9v-1q0 -3 2.5 -4t6 -1.5t7 -1.5t4.5 -4v-6v-7t-0.5 -11.5t-1 -14t-1 -13.5t-1 -10t-1.5 -5v-7v-10v-11v-7t-0.5 -5.5t-2 -6.5t-3.5 -5
t-5 -2h-27q0 -1 -0.5 -2t1.5 -1l26 -4l0.5 -0.5l0.5 -0.5v-1v-1q0 -1 -1.5 -2.5l-1.5 -1.5l-1.5 0.5t-3 0.5t-2.5 0.5l-1 0.5h-8t-10.5 1t-9.5 3.5t-4 8.5v4t1 4q3 0 9 -0.5t12.5 0t12 1t7.5 2.5v7.5t0.5 11.5t0.5 11.5v7.5v3v4v5v2q1 6 2.5 12t1.5 13q0 3 -1.5 6.5
t-6.5 3.5q-6 0 -8 -3t-2.5 -6.5t-1 -6.5t-2.5 -3q-3 0 -4 2t-1 5v6v4q-1 4 -5 4.5t-9 0t-9 0t-4 3.5q0 4 3 5t5 1q1 0 3.5 -0.5t4.5 -0.5t4.5 -0.5l2.5 -0.5h2q4 0 6.5 2.5t2.5 6.5q0 1 -0.5 3.5t-3.5 1.5h-4.5t-7 0.5t-7 0.5t-5 0.5t-3.5 0.5t-4 0.5t-3 2t-1 3.5q0 3 3 3.5
t6 0.5q7 0 14 -2t13 -2q4 0 6 2.5t3 6.5q1 2 2 6.5t2.5 10t2.5 10t2 6.5zM92 228q0 3 1 4.5t4 1.5q2 0 4.5 -4.5t6 -11.5t6.5 -15.5t5.5 -16l4.5 -13.5t2 -9v-1.5v-3.5v-5v-2l0.5 -2.5t0.5 -5t0.5 -5l0.5 -2.5q0 -3 -1 -6t-2.5 -6t-3.5 -5t-6 -2h-1q-1 0 -3.5 0.5l-2.5 0.5
l-20 21q-2 2 -4 6.5t-2 7.5q0 4 4 4q5 0 7.5 -4.5t5 -9.5t5.5 -9.5t8 -4.5q2 0 3.5 1.5t2 3.5t0.5 4v4q0 15 -4 28l-8 26q-1 1 -2 4.5t-2 4.5l-2.5 5t-3 5.5t-3 5.5t-1.5 6zM190 176q0 5 -0.5 7.5t-1.5 3.5t-4 1h-7q0 -7 3.5 -9.5t9.5 -2.5zM136 147q0 7 7 7q0 -1 1 -2t2 -3
t2 -3.5t2 -2.5q1 -2 5 -3t8 -1t7 -0.5t3 -2.5v-1q0 -1 -0.5 -2t-1.5 -1h-20q-1 0 -1.5 -2t-0.5 -3q0 -2 0.5 -3.5t3.5 -2.5q1 0 2.5 0.5t3.5 0.5t3.5 0.5l1.5 0.5h2h2l1.5 -0.5t3.5 -0.5t3 -0.5t2 -0.5l1 -1.5l1 -1.5q0 -2 -1.5 -4t-3.5 -2q-4 0 -7.5 1.5t-8.5 1.5h-3
t-3.5 -0.5t-1.5 -2l-1 -1.5v-1q0 -7 3.5 -9t8 -2.5t8 -2t3.5 -6.5q-2 0 -7.5 0.5t-11 1.5t-10 2.5t-5.5 2.5q1 13 -1 25.5t-2 24.5zM111 82q0 6 -4 9t-9 5.5t-9 6t-4 8.5q5 0 12 -2.5t13 -6.5t10 -9.5t4 -10.5q0 -3 -2 -6t-5.5 -6t-7 -5t-5.5 -2q-3 0 -3 3v2l10 10v1.5v2.5z
" />
</svg>
