<?xml version="1.0" standalone="no"?>
<!DOCTYPE svg PUBLIC "-//W3C//DTD SVG 1.1//EN" "http://www.w3.org/Graphics/SVG/1.1/DTD/svg11.dtd" >
<svg xmlns="http://www.w3.org/2000/svg" xmlns:xlink="http://www.w3.org/1999/xlink" version="1.1" viewBox="-10 0 266 256">
   <path fill="currentColor"
d="M58 228q-2 0 -3 0.5l-3 1.5q-1 0 -2.5 1l-1.5 1v8l1.5 0.5t2.5 1.5h1q22 0 43 -2t43 -2q12 0 23.5 1t23.5 1h3h4h4h3q2 -1 3.5 -2t1.5 -4q0 -1 -0.5 -3t-1 -3.5t-2 -2t-3.5 -0.5q-1 0 -4 0.5t-6.5 1t-6.5 1t-4 0.5h-2h-11t-10 -0.5t-10.5 -1t-11.5 -0.5l-0.5 -2l-0.5 -2
l-4 -27q1 -2 4.5 -3t8 -2t10 -2.5t10.5 -4.5t9 -8t5 -13q0 -2 0.5 -5.5t1 -8t1 -8.5t0.5 -6q1 -10 1.5 -22.5t0.5 -23.5v-7.5t-0.5 -7t-0.5 -7t-1 -8.5q0 -3 -1 -4t-3 -1.5t-4 -0.5h-3v19q1 1 1.5 2.5t0.5 2.5q0 2 -0.5 4t-1.5 4q1 19 0 38t-3 38q-4 5 -5 7.5t-1 4t-2 3.5
t-8 5l-7 3.5t-6 1.5q-2 0 -3 -0.5t-2 -2.5v-12q0 -13 0.5 -26t1.5 -26t1.5 -27t1.5 -28v-17.5t3 -16.5v0v0v-1v0q0 -2 -0.5 -4.5t-1.5 -2.5q-1 -1 -4.5 -2t-4.5 -1h-2q-2 0 -3 0.5t-2 2.5v26q0 10 1 19t1 19q0 3 -1 6t-1 6v3q0 2 0.5 5t0.5 7t0.5 7t0.5 5l1 1.5l1 1.5
q0 1 -1 2l-1 1q0 1 -0.5 2.5t-0.5 4t-0.5 4.5t-0.5 3q0 3 -0.5 9.5t-1 14t-1 14.5t-0.5 10l-1 2t-2 2t-2.5 -0.5t-2.5 -0.5l-1.5 -1l-1.5 -1q-10 -4 -15 -13t-6.5 -20t-1.5 -22.5v-19.5q0 -14 1 -28t1 -27q0 -5 -1.5 -7t-6.5 -2h-3t-4 2v10t-0.5 15.5t-0.5 15.5v10v3
q0 19 2.5 38.5t10.5 36.5q2 6 8 9.5t12.5 5.5t11.5 3.5t5 3.5v19l-8 4h-5h-5h-4h-4h-4.5h-1.5q-1 0 -4 -1l-3 -1q-1 0 -3 1l-2 1h-1h-1q-4 0 -7.5 -1t-6.5 -1z" />
</svg>
