<?xml version="1.0" standalone="no"?>
<!DOCTYPE svg PUBLIC "-//W3C//DTD SVG 1.1//EN" "http://www.w3.org/Graphics/SVG/1.1/DTD/svg11.dtd" >
<svg xmlns="http://www.w3.org/2000/svg" xmlns:xlink="http://www.w3.org/1999/xlink" version="1.1" viewBox="-10 0 266 256">
   <path fill="currentColor"
d="M125 246q0 1 0.5 2t1.5 2h2h2h4t3 -3v-57l1 -2q8 0 13.5 -1t9 -3.5t5 -7t1.5 -12.5v-4q0 -4 -1 -5q-1 -3 -5 -3q-3 0 -4 2t-1 5v6.5t-0.5 6.5t-3.5 5.5t-9 2.5q-3 0 -4.5 -3t-2 -7t-0.5 -7.5v-4.5v-5t1 -4l3 -2h54q1 0 2 -2.5l1 -2.5v0v-1t-1.5 -2t-3 -1h-3.5h-2h-7t-6 1
h-34q-1 0 -1.5 -1t-0.5 -2v-2v-4v-1.5v-2.5l3 -3h14l1.5 -3l2.5 -5q2 -4 2 -6v-7v-3.5v-3.5q0 -3 -1.5 -3.5t-2.5 -0.5t-3 1t-2 3v14l-3 4q0 1 -2 1t-3.5 0.5t-3.5 1t-3 0.5h-5h-6h-2h-3h-3h-3q-2 -1 -3 -4t-1.5 -6.5t0 -6.5t0.5 -4q-2 -2 -5 -2q-1 0 -2 0.5t-2 2.5v4.5v4.5
q0 7 0.5 11t3 5.5t7 2t11.5 -0.5l4 3v10q0 1 -1.5 2t-2.5 1q0 1 -3.5 1.5t-5.5 0.5h-2h-5h-6h-4q-8 0 -15.5 -1t-15.5 -1q-2 0 -5.5 2.5t-4.5 5.5q5 4 12 4q11 0 22.5 -1.5t23.5 -1.5h11q2 0 2 1v2v0.5v0.5q0 1 -1 3.5l-1 2.5v4v6v6v4l-2 2h-2h-3h-3.5t-5.5 -0.5t-5 -2
t-2 -3.5v-16l-1.5 -1.5t-2.5 -1.5q-3 0 -4.5 3t-1.5 5q0 9 1.5 14t5.5 8t10 3.5t14 -0.5q2 7 2 12v13t-1 16.5t-1 16.5zM56 100q0 1 0.5 2.5t1.5 2.5h1.5h1.5q7 0 15.5 -4.5t17.5 -9.5t18 -9.5t19 -4.5q6 0 13 1.5t14 4.5t13.5 6t11.5 6q3 1 5 3t7 2q4 0 5 -2.5t1 -5.5
t-5 -5t-12.5 -4t-16 -4t-16 -4.5t-12.5 -5.5t-5 -8q0 -3 1.5 -5t5.5 -2q6 0 12 2t11.5 4.5t11.5 4.5t11 2h5l1 -4v-2v-1q-1 -1 -5.5 -2.5t-11 -3t-13 -4t-12.5 -4t-9.5 -2.5l-3.5 -1v-12q0 -3 4.5 -4t10 -2t10.5 -3t5 -8v-2t-1 -1l-2 -1q-4 1 -9.5 2t-10.5 3t-9.5 4.5
t-6.5 5.5q-2 2 -2 5v6t-0.5 6t-2.5 3q-1 1 -3.5 1t-5 0.5t-4.5 1t-3 0.5q-5 2 -8.5 4t-8.5 1l-24 11q-1 0 -1.5 0.5t-0.5 1.5q0 3 2.5 4.5t5.5 1.5h0.5h0.5q11 -4 22 -8.5t20 -9.5h1.5h0.5q5 0 6.5 2t1.5 7q0 4 -4 6.5t-9 4t-10 2t-8 1.5q-4 1 -6.5 4t-6.5 5q-2 1 -6 2.5
t-8.5 3t-8 4t-3.5 4.5z" />
</svg>
