<?xml version="1.0" standalone="no"?>
<!DOCTYPE svg PUBLIC "-//W3C//DTD SVG 1.1//EN" "http://www.w3.org/Graphics/SVG/1.1/DTD/svg11.dtd" >
<svg xmlns="http://www.w3.org/2000/svg" xmlns:xlink="http://www.w3.org/1999/xlink" version="1.1" viewBox="-10 0 266 256">
   <path fill="currentColor"
d="M192 248q0 1 0.5 1.5t1.5 0.5t2.5 -1t1.5 -2t0.5 -4t0.5 -6.5t0.5 -6t0.5 -4.5v-2q0 -3 -0.5 -9.5t-1.5 -13.5t-3 -13.5t-4 -9.5q-4 -5 -10 -9t-12 -8.5t-10 -9.5t-4 -13t1.5 -16t1.5 -17q0 -3 -0.5 -9t-2 -12t-4.5 -10.5t-7 -4.5q0 6 1.5 8t1.5 7q1 4 1.5 6.5t0.5 5v5.5
v6q0 10 -1 19t-1 18t3.5 14t8.5 9t10.5 8t10.5 9q4 5 6.5 13.5t4 18t2 18.5t-0.5 14zM58 161q0 3 1 8t3.5 10t5.5 8.5t8 3.5h36q6 0 10 -3.5t6.5 -8.5t3.5 -11t1 -10v-60q0 -2 -0.5 -6l-1 -8t-1.5 -7t-4 -3v17v18.5t-0.5 19t-1.5 18.5l-0.5 1t-0.5 2h-1q-4 0 -8 -5t-7 -12
t-5 -14t-3 -10q-1 -22 -1.5 -44t0.5 -44q-1 -1 -2.5 -3.5t-3.5 -2.5v0q-1 1 -1.5 2.5t-0.5 2.5v94q-1 2 -3 8t-5 12.5t-6 11.5t-5 5h-1l-0.5 -1t-0.5 -2v-84q0 -1 -1.5 -3t-2.5 -2h-1l-1 0.5t-1 1.5q0 19 -2.5 37.5t-2.5 37.5v5q0 3 0.5 7t0.5 8v5zM71 167q0 -2 3.5 -7
t7.5 -11t8 -10.5t6 -4.5h2l1.5 3l1.5 3q1 1 2.5 3t3.5 4t4 3.5t2 2.5q5 0 6.5 3t1.5 7v6t-1 7q-6 3 -11.5 3.5t-11.5 0.5h-2h-4h-3h-2q-3 -1 -5.5 -2t-4.5 -2.5t-3.5 -3.5t-1.5 -5zM164 134q0 2 1.5 2h1.5q2 0 2.5 -0.5t2.5 -1.5q6 -4 11.5 -7.5t9.5 -8t6.5 -10t2.5 -13.5
v-3q0 -3 -1 -3q0 -1 -0.5 -1.5l-0.5 -0.5q-4 -9 -8.5 -12.5t-9.5 -5.5t-9.5 -4t-9.5 -8q-1 -1 -3.5 -6t-5 -10.5t-4.5 -10l-2 -4.5q-2 0 -2 2v4q0 4 1 10t4 12.5t6.5 12t6.5 8.5q4 2 9 3.5t9 3.5t7.5 5.5t3.5 9.5q0 8 -4.5 13.5t-10 10t-10 7.5t-4.5 6z" />
</svg>
