<?xml version="1.0" standalone="no"?>
<!DOCTYPE svg PUBLIC "-//W3C//DTD SVG 1.1//EN" "http://www.w3.org/Graphics/SVG/1.1/DTD/svg11.dtd" >
<svg xmlns="http://www.w3.org/2000/svg" xmlns:xlink="http://www.w3.org/1999/xlink" version="1.1" viewBox="-10 0 266 256">
   <path fill="currentColor"
d="M187 244v4.5t3 1.5q4 0 6 -3t3.5 -6.5t1.5 -8v-6.5t0.5 -7.5t1 -13.5l1 -16l1 -16t1 -13.5t0.5 -7.5v-6v-10v-11v-6t0.5 -2.5t0.5 -3.5t0.5 -3.5t0.5 -2.5v-1q0 -4 -0.5 -9t-1 -10.5t-2 -10t-3.5 -8.5q-2 -3 -8 -5t-13.5 -3.5t-15.5 -2.5t-14.5 -2t-11 -3t-4.5 -5
q0 -6 1 -12.5t1 -12.5q0 -3 -1.5 -6.5t-4.5 -3.5q-4 0 -5.5 1t-2.5 3t-1 4.5v5.5v8.5t0.5 9.5t2 9.5t5.5 6.5v7q0 5 -1 10t-3 9.5t-6 7.5t-10 3v-5v-6.5t0.5 -6.5t0.5 -4t-0.5 -3t-1 -4.5t-0.5 -4.5v-3t-1.5 -3t-3.5 -2v0l-2 2l-1 1v88l-2 5q-6 -2 -9.5 -7.5t-3.5 -11.5
q0 -14 1 -28t1 -28v-29v-4q0 -3 -0.5 -5t-2 -3t-3.5 -1q-3 0 -4.5 1.5t-1.5 4.5v1l0.5 2t0.5 5t0.5 5l0.5 2v3v2q0 2 -0.5 7.5t-0.5 11.5t-0.5 11.5t-0.5 6.5v11.5v11.5t-1 11.5t-4 9.5q-1 1 -2 3t-2 3.5t-2 2.5l-1 1h-1q-1 0 -1.5 -2.5t-0.5 -3.5v-16q0 -7 1 -13.5t1 -14.5
q0 -2 -0.5 -3.5l-1.5 -4.5v-33q0 -2 -2 -2.5t-4 -0.5q-3 0 -4 3.5t-1 6.5v3q0 3 -0.5 5.5t-0.5 5.5v4q0 16 1 32t1 32q0 4 0.5 9.5t1.5 11t3.5 10t6.5 7.5q2 1 6.5 1.5t8.5 0.5q10 0 15 -2t7.5 -5.5t3.5 -9.5t3 -14q0 -1 1 -3t1 -2.5t1 -1.5t2.5 -2l3 -2l1.5 -1l1 -0.5
l1 -0.5l1 1q1 1 1 3.5v3.5q0 9 -2 18.5t-4 18.5t-5 18t-5 18v1.5t-0.5 3.5t-0.5 3v1q0 4 1 4.5t4 0.5q4 0 6.5 -4t3.5 -10.5t2 -14.5t2 -15.5t2.5 -13.5t4.5 -8q2 -1 5 -4t7 -3t3 5q-1 8 -2.5 16.5t-3.5 16.5t-3 16.5t-1 16.5q0 2 1 4t4 2t4.5 -2t2 -4t1 -4.5t0.5 -4.5
q0 -3 1 -12t2 -18.5t1.5 -18t0.5 -11.5q1 -1 2 -3t2 -2h1l2 1.5t3.5 3.5t3 3.5t1.5 3.5q0 8 -1 15.5t-2.5 15.5t-2.5 15.5t-1 15.5q0 2 1 4.5t4 2.5q4 0 6 -8t3 -20t1.5 -25.5t1 -25.5t2 -20t4.5 -8t5 1.5t4 3.5t3 4.5t1 4.5q0 22 -3 44.5t-6 43.5v4zM65 171q0 -2 1.5 -5.5
t3.5 -7t4.5 -6.5t4.5 -3q3 0 6 2.5t5.5 5.5t4.5 6.5t2 6.5q0 2 -2.5 4.5t-4.5 2.5h-22q-2 0 -2.5 -2.5t-0.5 -3.5zM129 158q0 -1 0.5 -3t0.5 -4t0.5 -4l0.5 -2q0 -2 2 -2v0q1 0 3 0.5t3.5 2t3 2.5t1.5 3q0 4 -4 7t-8 3q-1 0 -2 -0.5t-1 -2.5zM155 152q0 -1 1.5 -3t3.5 -3.5
t4.5 -2.5t4.5 -2q0 1 0.5 4.5l0.5 3.5v1v1v2.5t-1 3.5t-2 3t-3 1q-1 0 -2.5 -1l-3 -2t-2.5 -2.5t-1 -3.5zM106 133v-2q1 -6 1 -9.5t0.5 -5.5t3 -4.5t7.5 -5.5q0 -1 1 -1.5t2 -2t2 -2.5l1 -1h1.5h0.5v26q0 2 -1.5 4.5t-4 4.5t-5 3t-4.5 1q-3 0 -4 -1t-1 -4zM136 134
q0 -4 2.5 -6.5t7.5 -2.5h1q0 1 1 4t1 4v1q0 2 -0.5 3t-2.5 1h-2.5t-3.5 -0.5t-3 -1.5t-1 -2zM155 133v-3.5t0.5 -5t1.5 -4.5t3 -2q5 0 7.5 3.5t2.5 7.5t-3 6.5t-8 2.5q-3 0 -3.5 -1t-0.5 -4zM180 125v-5q0 -4 0.5 -7t2 -5t4.5 -2h2.5t3 1t2.5 1.5t1 1.5v20q0 2 -1.5 2.5
t-2.5 0.5q-5 0 -8.5 -1.5t-3.5 -6.5zM134 119v-3t0.5 -4l1 -4l0.5 -2q0 -3 0.5 -4.5t2.5 -1.5q3 0 5.5 3t2.5 7q0 1 -1 3t-2.5 3.5t-3.5 2.5t-4 1v0q-1 0 -1.5 -0.5zM164 110q0 -3 1.5 -4.5t3.5 -1.5h1q1 0 2 0.5t1 1.5q1 2 -1.5 5t-4.5 3t-2.5 -1.5t-0.5 -2.5zM169 68
q5 0 5.5 3.5t0.5 7.5t-1 8t-3.5 7t-5.5 5t-7 2v-8q0 -6 1 -11.5t3 -9.5t7 -4zM183 84v-3.5t0.5 -3.5t1.5 -3t3 -1t3.5 2.5t2.5 5t1.5 5.5t0.5 4q0 2 -1.5 4t-3.5 3v1q-3 0 -4.5 -1.5t-2 -4l-1 -5t-0.5 -3.5zM139 88v-18q0 -3 2.5 -4t4.5 -1h2q3 0 3 2v27l-1 1l-1 1h-0.5
h-0.5h-1zM195 89q-1 0 -1 2t1 2t1 -2t-1 -2z" />
</svg>
