<?xml version="1.0" standalone="no"?>
<!DOCTYPE svg PUBLIC "-//W3C//DTD SVG 1.1//EN" "http://www.w3.org/Graphics/SVG/1.1/DTD/svg11.dtd" >
<svg xmlns="http://www.w3.org/2000/svg" xmlns:xlink="http://www.w3.org/1999/xlink" version="1.1" viewBox="-10 0 266 256">
   <path fill="currentColor"
d="M92 243q0 3 1 5.5t5 2.5v0q1 -1 3 -2.5t2 -2.5l3 -25q0 -2 2 -3.5t4.5 -2.5t5.5 -1h5h2h3q2 1 2.5 4l0.5 3v5.5v7.5v8.5v5.5q1 1 2 1h2q3 0 4.5 -1.5t2 -4l1 -5t0.5 -3.5q0 -5 -1 -8.5t-1 -7.5q0 -2 0.5 -3.5t2.5 -3.5h5q6 0 9 2.5t4.5 6.5t2.5 8.5t1.5 8t2 6t3.5 2.5
q3 0 4.5 -3t1.5 -5q0 -9 -2.5 -16t-7 -12t-11.5 -7t-16 -1l-1.5 -1t-1.5 -2v-1v-1l1 -1l1 -1q4 -1 8.5 -1.5t7.5 -2.5t5 -5t2 -9t-1.5 -9.5t-5 -5.5t-7.5 -3t-9 -1q-1 -1 -1.5 -2.5t-0.5 -2.5q0 -3 2.5 -4l5 -2t5 -3.5t2.5 -9.5q0 -4 -1.5 -7t-4 -4.5t-5.5 -2.5t-7 -2v-10
l11 -11v-1.5v-1.5q0 -16 -15 -16q-8 0 -13 4t-5 12q0 3 2 4.5t4.5 3.5t4.5 3.5t2 4.5q0 7 -3 9.5t-6.5 4.5t-6.5 5t-3 10v3v2q2 3 5 4t6 1.5t5.5 2t2.5 3.5q0 3 -3.5 3.5t-8 2t-8 6t-3.5 14.5q0 5 2 8t5 4t7 1.5t6.5 1t4.5 1.5t1 4l-1 1l-2 2q-9 -1 -15.5 2t-10.5 8.5
t-6 12.5t-2 16zM112 179q0 -5 3 -7t7 -3t8 -1h7h11q3 1 3.5 3t0.5 4v3.5t-2 2.5t-5 3t-4 2h-25q-3 0 -3.5 -2.5t-0.5 -4.5zM116 138q0 -3 2.5 -5t5.5 -3t6.5 -1.5t5.5 -0.5q4 0 6 1.5t2 5.5q0 3 -1 4.5t-3.5 2.5t-5 1h-5.5h-3t-4.5 -0.5t-4 -1.5t-1.5 -3zM69 105
q0 7 5.5 10.5t12.5 3.5q5 0 9.5 -1.5t7.5 -5.5v-4v-3q0 -8 -2 -12.5t-10 -4.5q-4 0 -8 1t-7.5 3t-5.5 5t-2 8zM152 99q0 8 4.5 12t12.5 4q7 0 12 -3.5t6 -11.5t-3.5 -10.5t-11.5 -2.5h-6.5t-6.5 1.5t-5 4t-2 6.5zM81 105q0 -4 3.5 -5t6.5 -1q2 0 3 0.5t1 2.5q0 7 -6 7
q-2 0 -5 -0.5t-3 -3.5zM162 101q0 -3 2.5 -4t5.5 -1q2 0 3.5 1t1.5 3q0 5 -2.5 5.5t-6.5 0.5q-2 0 -3 -1.5t-1 -3.5zM122 92q0 -4 2.5 -6t6.5 -2q3 0 5 1.5t2 5.5t-2.5 5.5t-5.5 1.5q-4 0 -6 -1t-2 -5zM88 34q0 6 0.5 12t3 11t6.5 8.5t11 3.5h47q6 0 9 -4t5 -10.5t3 -12.5
t1 -10q0 -6 -6 -6q-2 0 -3.5 0.5t-2.5 2.5v3.5t-0.5 5t-0.5 5t-1 3.5q0 1 -0.5 3.5t-2.5 2.5q-3 0 -5.5 -2t-5 -4.5t-5 -4.5t-5.5 -3v-23q0 -2 -2.5 -3.5t-4.5 -1.5q-3 0 -3.5 3.5t-1 8.5t-1.5 10t-4 8q-3 2 -6.5 5.5t-7.5 3.5q-3 0 -4 -3l-2 -6t-1 -6v-5l-1.5 -1.5
t-2.5 -1.5q-3 0 -4.5 3t-1.5 5zM112 58v-1q4 -3 9 -6.5t10 -3.5q2 0 4 0.5t4 2t3.5 3t1.5 3.5t-3 3.5t-6.5 2t-7.5 0.5h-3h-1h-1.5t-3.5 -0.5t-4 -1.5l-2 -1v-1z" />
</svg>
