<?xml version="1.0" standalone="no"?>
<!DOCTYPE svg PUBLIC "-//W3C//DTD SVG 1.1//EN" "http://www.w3.org/Graphics/SVG/1.1/DTD/svg11.dtd" >
<svg xmlns="http://www.w3.org/2000/svg" xmlns:xlink="http://www.w3.org/1999/xlink" version="1.1" viewBox="-10 0 266 256">
   <path fill="currentColor"
d="M79 244q1 1 3 2.5t4 1.5h1l1 -1l2 -2v-7q0 -9 -2.5 -16.5t-2.5 -16.5q0 -6 1.5 -12.5t2.5 -13t2.5 -12.5t1.5 -13q0 -3 -0.5 -8.5t-1.5 -10.5t-4 -9t-8 -4q-2 0 -3.5 1.5t-1.5 3.5q0 3 1.5 6t3 6.5t3 8t1.5 11.5q0 6 -1 12t-2.5 12.5t-2.5 12.5t-1 13v17t3 18zM129 240
q1 2 3 3.5t4 1.5q1 0 2 -1t1.5 -2.5t0.5 -3.5v-2q0 -5 -2 -8t-3 -8q-2 -8 -3.5 -17.5t-1.5 -17.5q0 -5 1 -10.5t2 -10.5l2 -10t1 -10v-6.5t-1 -4.5t-3 -4l-5 -5h-2q-1 0 -2.5 0.5t-1.5 2.5t1 4.5t2 5.5t2 6.5t1 6.5t-0.5 6t-1.5 5.5l-2 5t-2 5.5q-1 6 -1.5 12t-0.5 12
t1.5 11.5l3 11t3 10.5t2.5 11zM165 188v12t1 12q0 1 2.5 6l5.5 11t6 10.5t4 4.5q4 0 5 -3t1 -5q0 -5 -2.5 -9.5t-5 -9.5t-5 -11.5t-2.5 -13.5q0 -10 1 -20t1 -20v-15q-1 -5 -4.5 -9.5t-9.5 -4.5q-2 0 -2.5 1t-0.5 3q0 1 1.5 3.5t3 6t3 7.5t1.5 7q0 9 -2 18.5t-2 18.5zM66 46
v6v4q1 2 1.5 8t1 12.5t1.5 12.5t1 8q1 9 6.5 15t15.5 6h59q1 0 4.5 -1t5.5 -1l2.5 1t3.5 1h3.5t5 -0.5t5 -0.5t3.5 -1l1 -2t0 -2q0 -1 -1.5 -3t-2.5 -2h-4h-3h-6.5t-5 0.5l-5 1t-6.5 1.5h-9t-14.5 -0.5t-14 -0.5t-9.5 -1q-4 0 -8.5 -0.5t-7.5 -2.5t-5 -5t-2 -9q0 -4 6.5 -9
t15 -10t16 -8t10.5 -3t8 1.5t10 4t9.5 5.5t7.5 6h13q0 -5 -2 -7.5t-5 -4t-6.5 -2.5t-7.5 -3l-5 -2.5t-6.5 -3.5t-6.5 -3.5t-4 -1.5q0 -8 -0.5 -17t-1.5 -17q-1 -1 -3.5 -2t-4.5 -1h-1q-1 0 -1.5 0.5l-0.5 0.5v32l-2 4q-4 3 -7.5 6t-8 6t-9 5.5t-7.5 4.5h-1h-1q-2 0 -5 -1
t-3 -4v-27l-3 -2.5t-4 -3.5h-1h-1l-1 1l-2 2v4.5v4.5z" />
</svg>
