<?xml version="1.0" standalone="no"?>
<!DOCTYPE svg PUBLIC "-//W3C//DTD SVG 1.1//EN" "http://www.w3.org/Graphics/SVG/1.1/DTD/svg11.dtd" >
<svg xmlns="http://www.w3.org/2000/svg" xmlns:xlink="http://www.w3.org/1999/xlink" version="1.1" viewBox="-10 0 266 256">
   <path fill="currentColor"
d="M112 164q3 0 4 3t1 5v78q0 2 1 3t2 1q2 0 3 -1.5t1.5 -3.5t0.5 -3.5v-3.5v-10.5v-15.5v-16.5v-10.5v-3.5t0.5 -6t0.5 -6.5t0.5 -4t1 -3t2.5 -3q5 -1 9 2t8 7q2 6 3 11t2 10.5l2 11t4 9.5v30q0 1 1 2t2 1t2.5 -1t1.5 -2q1 -5 1.5 -8.5t0.5 -8.5q0 -8 -1.5 -15t-3.5 -15
q-1 -8 -3 -15.5t-5.5 -13t-10 -9.5t-17.5 -6q-1 0 -1 -1t-0.5 -2t0 -2l0.5 -1q0 -4 2.5 -6.5t6 -4t7.5 -3t7 -3.5q6 -4 10 -11.5t6 -13.5v-1.5v-2.5q0 -9 -3.5 -15t-8.5 -10t-11.5 -7.5t-12.5 -6.5v-5v-4q0 -3 0.5 -5.5t0.5 -5t1 -2.5l1 -3h41l1.5 -1.5l2.5 -2.5l2 -1l-3 -4
h-39q-1 0 -3 -1t-3 -1l-1.5 -1.5l-0.5 -0.5v-14q0 -1 -2.5 -2l-2.5 -1v0q-2 0 -3 2.5t-1 3.5v44q0 3 -1.5 4.5t-3 2.5t-3.5 1t-5 1q-5 2 -10 5.5t-9 8t-6.5 10t-2.5 10.5q0 18 11 27.5t28 11.5v16l-2 2q-7 0 -12.5 2.5t-9 7t-5.5 10.5l-4 12q-1 6 -2.5 10.5t-1.5 10.5v4v5.5
t0.5 7.5t0.5 7.5v4.5l0.5 1t1.5 1l1.5 1t1.5 0l1.5 -1t1.5 -2v-11v-15.5t1.5 -17t4 -15.5t7 -11.5t10.5 -4.5zM86 103q0 -8 3.5 -13.5t9.5 -9.5t13 -6t13 -2q15 0 22.5 7t7.5 23q0 7 -2.5 12t-7 8.5t-10 5.5t-12.5 2q-7 1 -13.5 -0.5t-12 -5t-8.5 -9t-3 -12.5zM112 97
q0 4 2.5 7t6.5 3t6.5 -2.5t2.5 -6.5q0 -3 -2.5 -4t-5.5 -1t-6.5 0.5t-3.5 3.5z" />
</svg>
