<?xml version="1.0" standalone="no"?>
<!DOCTYPE svg PUBLIC "-//W3C//DTD SVG 1.1//EN" "http://www.w3.org/Graphics/SVG/1.1/DTD/svg11.dtd" >
<svg xmlns="http://www.w3.org/2000/svg" xmlns:xlink="http://www.w3.org/1999/xlink" version="1.1" viewBox="-10 0 266 256">
   <path fill="currentColor"
d="M67 241q0 2 1 5.5t4 3.5q2 0 4 -1t2 -4q1 -6 1.5 -11.5t0.5 -10v-9.5v-11v-9v-8t-0.5 -8t-1.5 -9v-101q0 -2 1 -2.5t2 -0.5q5 0 7 4.5t3 10.5t1.5 12t1.5 9v43q0 1 0.5 3t0.5 4t0.5 3.5t0.5 2.5v1v0q0 1 -0.5 2.5t-0.5 4t-0.5 4t-0.5 2.5v2q0 1 0.5 2.5t2.5 1.5t3 -2.5
t1.5 -6t0.5 -6.5v-4q0 -18 -0.5 -36t-2.5 -35q0 -2 -0.5 -5.5t-1 -8t-1 -8t-0.5 -5.5q-2 -2 -4.5 -2.5t-5.5 -0.5h-6q-2 0 -2 -1v-28l-1 -2q-1 0 -2 -1t-1 0q-1 0 -3 1t-2 2v28q0 1 -3 2t-6.5 4t-7 7.5t-3.5 12.5q-1 3 -1 9t-0.5 12.5t-0.5 13v9.5v24v25q1 2 2 3.5t3 1.5
q5 0 5 -6v-90v-5.5t1 -5t3 -4t5 -1.5q1 0 3 0.5t2 2.5v90q-2 10 -2.5 19t-0.5 18.5v19v18.5q-1 0 -1 2v3zM108 244q0 1 0.5 2.5t2.5 1.5q1 0 3 -1l4 -2l0.5 -0.5l0.5 -0.5q0 -19 1 -37t1 -38q0 -4 4 -5h4t6 -0.5t5.5 -0.5h3.5h7.5t11 -0.5t12.5 -0.5h13h11h7q0 -2 -1 -4.5
t-3 -2.5q-5 0 -10 1t-10 1h-5.5t-6.5 -0.5t-5 -1.5t-2 -4q0 -1 0.5 -3t2.5 -2h29q2 0 2.5 -1.5t0.5 -2.5v-1v-1q-1 0 -4.5 -0.5t-7.5 -0.5t-7 -0.5t-5 -0.5h-4h-4q-1 -1 -1 -2.5v-3.5v-3.5t1 -2.5h33q1 0 1.5 -1.5l0.5 -1.5q0 -1 -1 -2t-1 -2v0v-2q0 -2 1.5 -4t1.5 -4
t-3.5 -4t-9 -3.5t-10.5 -2t-6 -1.5l-0.5 -0.5l-0.5 -0.5l0.5 -0.5l0.5 -0.5l3 -3l14 -3q1 -1 1 -1.5v-1.5t-4.5 -4.5t-11 -6.5t-12 -5.5t-7.5 -2.5l-3 1.5t-7.5 3.5t-9.5 4.5t-9 5t-7.5 4.5t-3.5 3q2 2 5 3.5t6.5 2t6 1.5t2.5 3v1l-3 2.5t-4 3.5q-1 0 -3 1.5l-2 1.5
q-4 6 -6 12t-2.5 12.5t-0.5 12.5v13q-2 21 -4.5 42t-2.5 42zM136 230q2 3 5.5 5t7 2.5t7.5 1t7 0.5q10 0 16.5 -0.5t11 -3.5t6 -9.5t1.5 -16.5v-7v-5.5t-0.5 -5t-1.5 -6.5q0 -1 -0.5 -2t-1 -2.5t-1.5 -2.5t-2 -1h-39q-4 0 -7 2t-5.5 5t-3.5 7t-1 7v4v5.5t0.5 8.5t0.5 8v6z
M144 214q0 -3 2.5 -4t5 -1.5t5.5 0t5 0.5v5.5t-0.5 6.5t-2.5 5t-5 2q-6 0 -8 -5t-2 -9zM169 220q0 -6 2 -10.5t9 -4.5q5 0 7.5 2t2.5 6v3.5t-0.5 4.5t-1.5 4t-3 2h-14l-2 -2v-2v-3zM156 183h2.5t1.5 2v12l-3 3h-15q0 -6 3 -11.5t11 -5.5zM169 196v-11q0 -3 2.5 -3h3.5
q7 0 10 2.5t3 9.5v3q0 1 -1 1h-14zM121 150v-3t3 -1h27q2 0 3 2t1 4t-2 3.5t-4.5 1.5h-5h-3.5h-6h-6t-5 -1.5t-2 -5.5zM122 133v-1q1 -1 1.5 -2.5t0.5 -2t0.5 -1l0.5 -0.5h26q2 0 3 1.5t1.5 4t0.5 5.5v3h-7.5t-11.5 -1t-10.5 -2t-4.5 -4zM163 112q0 -4 0.5 -5.5t3.5 -1.5
t7 0.5t8 1.5t7 3.5t4 5.5q0 1 -0.5 2t-1.5 1h-23q-4 0 -4.5 -2.5t-0.5 -4.5zM132 113q0 -2 2 -4t5 -3.5t6 -2.5t5 -1h2t2 2v15h-7t-5 -0.5l-4 -1t-5 -2.5l-0.5 -1zM136 88q3 -3 7.5 -7t9.5 -4q2 0 5 0.5t6 2t5 3.5t2 4v1q-1 1 -3.5 1.5l-2.5 0.5h-2q-1 0 -2 -1l-1.5 -1.5
t-1 -2t-1.5 -1.5t-1.5 0.5l-0.5 0.5q0 1 -0.5 5t-0.5 5q-1 0 -2 0.5l-1 0.5h-1h-1q-1 0 -2.5 -1l-3 -2l-3 -2t-2.5 -1zM113 66q-3 2 -3.5 4.5t-0.5 4.5q7 0 13 -3t11.5 -7t11.5 -7.5t13 -3.5h2q1 0 4 1t6.5 2t6.5 2t5 1q3 1 6 3.5l6 5t6 4.5t6 2t3.5 -1t0.5 -4q0 -6 -6 -9.5
t-14 -5.5t-15.5 -3t-11.5 -4v-2.5v-2.5q0 -3 1 -5.5t5 -2.5t8.5 1.5t8.5 4l8 5t8 4.5q3 -1 4 -2t1 -3q0 -4 -5.5 -7t-13 -5.5t-14.5 -4t-9 -2.5q0 -1 -0.5 -2.5t-1 -4t-1 -4.5t-0.5 -3q-1 -2 -1.5 -2.5t-1.5 -0.5t-3 0.5t-2 1.5v14q0 2 -3.5 3.5t-8.5 2.5t-11 2.5t-11 4
t-8 5.5t-3 8q5 0 11 -2.5t11.5 -5.5t10 -5.5t7.5 -2.5t4 2t1 5t-2 5.5t-5 4t-6 2t-6 2.5q-1 0 -4.5 1.5t-7 3.5t-6.5 3.5t-4 1.5z" />
</svg>
