<?xml version="1.0" standalone="no"?>
<!DOCTYPE svg PUBLIC "-//W3C//DTD SVG 1.1//EN" "http://www.w3.org/Graphics/SVG/1.1/DTD/svg11.dtd" >
<svg xmlns="http://www.w3.org/2000/svg" xmlns:xlink="http://www.w3.org/1999/xlink" version="1.1" viewBox="-10 0 266 256">
   <path fill="currentColor"
d="M108 242q3 2 6.5 4.5t7.5 4.5h3h4.5h4.5h3q9 0 18.5 -1t17.5 -6q4 -8 6.5 -15.5t3.5 -16t1 -17v-16.5v-18q-2 -6 -6.5 -9t-10 -4.5t-11.5 -1.5h-11q-9 0 -19.5 1t-19.5 4q-3 8 -4 14t-1 14v15.5t0.5 17t1.5 16.5t5 14zM51 241q0 2 0.5 3t3.5 1l1.5 -0.5l1.5 -0.5
q10 -16 15 -33.5t6.5 -36t1 -37.5t-0.5 -37q1 -7 1 -12.5t0.5 -10.5t0.5 -10v-12q2 -3 5.5 -4.5t8 -2.5t9 -1.5t7.5 -1.5h88q1 0 1 -1.5v-1.5v-2.5t-1 -1.5q-1 0 -3 -0.5t-4 -0.5t-3.5 -0.5t-2.5 -0.5h-4h-8h-8h-4q-3 0 -7.5 -0.5t-8.5 -1t-7 -1l-3 -0.5v-19q0 -1 -2 -1.5
t-3 -0.5q-3 0 -3.5 3t-1 7t-1.5 8t-4 6q-6 0 -12 0.5t-11.5 1.5t-11.5 2t-11 2q-4 2 -4.5 7.5t0 12t0 12.5t-2.5 10v3v4.5v4.5v3q0 13 1 26t1 26q0 11 -1 22.5t-3 22.5t-6 22t-9 21l-0.5 1zM112 221v-2t2 -1t9.5 -0.5t15 -0.5t14.5 -0.5t10 -0.5h4q2 0 3 1t1 4q0 7 -4 10.5
t-10 5.5t-12.5 2.5t-10.5 0.5h-4.5h-4.5q-5 -3 -9 -8t-4 -11zM109 189q8 0 15 -0.5t13.5 -1t13 -0.5h13.5h9q1 1 1 2v2q0 10 -4 13.5t-13 3.5q-2 0 -5 -1t-6 -1q-8 0 -16.5 2t-16.5 2q-2 0 -2 -3v-4t-0.5 -3t-0.5 -4t-0.5 -4t-0.5 -3zM110 175q0 -9 6.5 -14t14.5 -5h35
q2 0 3 2t2 4.5t1.5 5t0.5 4.5v5l-0.5 1t-1.5 1h-41q-4 1 -7 1h-6h-5.5t-1.5 -5zM147 75v3l1 2t1 3v2.5t0.5 5t0.5 4.5v3q1 3 4 6.5t6.5 6t6 4.5l2.5 2v19q0 2 1 3t3 1q3 0 3.5 -4t0.5 -8.5t1 -9t6 -6.5l1.5 -0.5l3 -1l3 -1t1.5 -1.5q4 -1 6 -6t2.5 -10l1 -10t0.5 -8
l-0.5 -1.5t-0.5 -3.5t-1 -3.5t-2 -1.5q-3 0 -4 5.5t-2 12.5t-3 12.5t-7 5.5h-1q0 -1 -1.5 -2l-1.5 -1q0 -9 -0.5 -18t-1.5 -17q-2 -4 -4 -4q-3 0 -3 1.5t-1 4.5v3v5v5v2v4.5t-0.5 6t-0.5 6.5v4h-3q-4 0 -6 -5t-3 -11.5t-1.5 -11.5t-3.5 -5q-2 0 -3 3t-1 5zM114 136l1 1t2 0
q2 0 4 -2.5t2 -4.5t-0.5 -3.5t-0.5 -4.5t1 -5.5t3 -4t4.5 -3t5.5 -2.5q2 -5 3.5 -8t2 -6.5t1 -6.5t0.5 -7q0 -1 -0.5 -3.5t-0.5 -3.5q-1 -3 -5 -3q-3 0 -3.5 4t-1 9.5t-2 10t-5.5 4.5h-2q0 -2 -0.5 -7.5t-1.5 -10.5t-2 -9.5t-3 -4.5l-0.5 0.5l-0.5 0.5l-1 0.5t-2 0.5
q1 8 0.5 16t-1.5 15q-1 0 -1.5 0.5t-0.5 1.5h-1q-4 0 -5 -3.5t-1 -8t-1 -8t-5 -3.5q-2 0 -2.5 2.5t-0.5 4.5q0 5 1.5 11.5t4.5 11.5q3 3 5 4t4.5 2t3.5 3t2 6v3v4v4v3z" />
</svg>
