<?xml version="1.0" standalone="no"?>
<!DOCTYPE svg PUBLIC "-//W3C//DTD SVG 1.1//EN" "http://www.w3.org/Graphics/SVG/1.1/DTD/svg11.dtd" >
<svg xmlns="http://www.w3.org/2000/svg" xmlns:xlink="http://www.w3.org/1999/xlink" version="1.1" viewBox="-10 0 266 256">
   <path fill="currentColor"
d="M122 244q0 2 3 2q1 0 2 -0.5t1 -2.5t0.5 -5.5t0.5 -8v-8v-5.5v-2v-4v-5v-2q1 -3 2 -9.5t2.5 -13.5t4.5 -12.5t5 -5.5q4 0 6.5 6t4 15t2 19.5t1 19.5t1.5 15.5t3 6.5l1 -1v-56q0 -5 -1.5 -10t-3 -9t-3 -8.5t-1.5 -8.5q0 -6 2.5 -11t5.5 -10q2 -5 1.5 -9t-0.5 -10v-2v-4v-4
v-2q-3 -3 -3 -5v-6q0 -8 2.5 -11.5t7 -5.5t9.5 -2.5t9 -2.5t6.5 -6t2.5 -12v-3v-4.5t-0.5 -4t-2.5 -2.5l-0.5 0.5t-0.5 1.5q-1 0 -2 2l-1 2q-1 0 -1 1t1 1l0.5 2.5t0.5 3.5q0 7 -5.5 10t-10.5 3q-1 0 -3 -0.5t-3 -0.5l2 -14l14 -3l1 -1q0 -3 -1.5 -3.5t-3.5 -0.5t-4 0.5
t-4 0t-3 -3t-1 -8.5q0 -3 3 -3.5t7 -0.5t8 -0.5t6 -3.5l-3 -4h-41q-1 1 -3 1.5t-3 0.5h-1q-4 0 -7.5 -1t-7.5 -1h-6t-7 1t-5.5 3t-2.5 5h26q3 0 3 2v3q0 2 -0.5 5t-2.5 5h-2.5t-3.5 0.5t-4 0.5h-2h-4.5h-5.5t-5 1t-2 2q0 3 2.5 3h4.5q4 0 8.5 -0.5t9.5 -0.5h2.5t1.5 1v17
l-2 4q-13 -2 -20.5 0.5t-11.5 7.5t-5.5 12.5t-2 16t-1 18t-2.5 17.5q-3 12 -8.5 22t-13.5 20q-1 1 -3 3.5t-3 4t-2 1.5v5h1.5h0.5q1 -1 2.5 -2l1.5 -1q12 -11 19 -23.5t11 -27.5q1 -3 2 -8.5t2.5 -11t2.5 -10l1 -4.5v-4t0.5 -6t1 -5.5t0.5 -3.5t0.5 -3t0.5 -3q1 -2 4 -3.5
t6 -2.5t6.5 -1.5t5.5 -0.5q5 0 8 1t5 3t4.5 5t5.5 7q0 3 -3 5t-6 4.5t-5.5 6t-2.5 8.5q0 3 0.5 7.5t1.5 8.5t3 7.5t6 4.5v2v3q0 4 -2 8.5t-4.5 9t-5.5 8t-4 6.5q-2 4 -2.5 11t-1 14.5t-0.5 14v10.5v15zM97 160q0 3 0.5 8.5t2 12t4 11t6.5 4.5q0 -8 -2.5 -15.5t-2.5 -16.5
v-1.5v-3t0.5 -2.5t2.5 -1t3 1.5t2.5 3.5t3 3.5t4.5 1.5q0 -4 -2 -6.5l-4 -5t-4 -5.5t-2 -7q0 -2 1.5 -2.5t3.5 -0.5t3.5 1l3 2t3.5 1.5t4 0.5v-2q-1 -1 -3 -2.5t-3.5 -3.5l-3 -4t-1.5 -4q0 -3 1 -6.5t1 -6.5v-5t-0.5 -6.5t-1.5 -5.5t-4 -2h-1v4.5t-0.5 7t-0.5 7v4.5t-0.5 3
t-0.5 4t-0.5 3.5l-0.5 1.5q-1 5 -3 8l-4 6t-3.5 6.5t-1.5 8.5zM192 155q0 6 -3 11t-6.5 9.5t-6.5 8t-3 7.5h4l2 -2q4 -4 7.5 -8.5t7 -8.5t5.5 -9t2 -11q0 -8 -2 -12.5t-4.5 -7.5l-5 -6t-2.5 -8v-5v-6v-7v-4l-1.5 -1.5t-1.5 -0.5q-2 0 -2 1t-1 4q-2 7 -2.5 13t-2 11.5
t-4 10.5t-8.5 10l-0.5 0.5t-0.5 1.5l0.5 1t1.5 2l16 -15q1 -1 2 0t1.5 2.5l1 3t0.5 2.5q0 4 -3 6.5t-6 5.5t-6 5.5t-3 5.5q4 0 6.5 -2t4.5 -4.5t4.5 -4.5t5.5 -2q2 0 2.5 1t0.5 2zM139 115q0 -2 0.5 -5t2 -6t4 -5t4.5 -2q3 0 4 2t1.5 5t0.5 6v4q0 6 -1 10.5t-5 9.5
q-1 1 -2 1h-1q-2 0 -3.5 -2.5t-2.5 -6t-1.5 -6.5t-0.5 -5zM150 74h0.5h0.5q4 0 4 5h-5v-5zM157 45v0q1 0 2.5 1t1.5 2v14l-1 0.5l-1 0.5q-5 2 -11 2h-10v-11t2 -6t6 -2.5t11 -0.5zM140 37v-12h22v12l-3.5 0.5t-5.5 1.5h-7h-4z" />
</svg>
