<?xml version="1.0" standalone="no"?>
<!DOCTYPE svg PUBLIC "-//W3C//DTD SVG 1.1//EN" "http://www.w3.org/Graphics/SVG/1.1/DTD/svg11.dtd" >
<svg xmlns="http://www.w3.org/2000/svg" xmlns:xlink="http://www.w3.org/1999/xlink" version="1.1" viewBox="-10 0 266 256">
   <path fill="currentColor"
d="M59 246q0 2 2 3.5t4 1.5t4 -1.5t2 -3.5q0 -7 -1 -14.5t-1 -14.5v-11q0 -7 1 -14.5t3 -13.5t7 -6q4 0 9 1t10 1h6t7.5 -1t6.5 -3t3 -5v-1q-1 0 -2 -1t-2 -1q-5 0 -10 2t-10 2q-4 0 -8 -0.5t-6 -4.5q2 -5 7 -7.5l10 -5t9 -5t4 -7.5q-6 0 -11.5 3t-10 6.5t-8.5 6.5t-7 3
t-5 -3.5t-2 -6.5q0 -6 5 -10.5t11 -7.5l11 -5.5t5 -5.5q0 -1 -2 -1h-2q-7 0 -13 2.5t-10.5 7t-7.5 10t-3 11.5q0 3 1 5.5l2 5t2 4.5t2 5q0 1 -1.5 5t-3 9t-3.5 9.5t-2 6.5q-1 5 -1.5 8.5t-0.5 7.5v7v9v18zM184 244q0 2 1 3.5t4 1.5q2 0 4 -2.5t2 -3.5v-5v-7v-7.5v-4.5
t0.5 -2t0.5 -2t0.5 -1.5t0.5 -1.5v0v-1q0 -6 -1.5 -12l-3 -12l-3 -12t-1.5 -12q0 -4 2 -6.5t2 -6.5q0 -19 -10.5 -26.5t-28.5 -7.5h-4h-3l-2 2l3 3q7 -1 13 0.5t11 4.5t8 7.5t3 11.5v3.5t-2 2.5q-5 0 -9.5 -2t-9 -4.5t-9 -4.5t-9.5 -2q-1 0 -3 1.5t-2 2.5q0 3 5 4.5t11 2.5
t11 3.5t5 7.5q0 2 -1.5 3.5t-4 2t-4.5 0.5h-3q-4 0 -7.5 -1t-6.5 -1q-2 0 -3 1t-1 3t2 3t3 1h2.5h3.5h3h2q6 0 8.5 -0.5t4 -1t3 -1.5t4.5 -2q3 0 5 3.5t3.5 9t2 12t1 12t0.5 9.5v4q0 7 -1.5 13.5t-1.5 13.5zM79 69q0 12 2.5 19.5t7.5 12t13.5 6t19.5 1.5t21.5 -1t18.5 -5
t13 -11.5t5 -21.5q0 -12 -2.5 -19.5t-8 -11t-14.5 -4.5t-20 -1l-2 -2v-16q0 -2 -2 -2.5t-3 -0.5h-2t-1 1v5q0 2 -0.5 5.5t-1.5 6.5t-3 4q-2 0 -5.5 1t-8 1.5t-8 1.5t-5.5 1q-5 1 -8 4.5t-4.5 7.5t-1.5 9v9zM89 82q0 -4 3.5 -5.5t8.5 -2t10 -0.5h7h5l2 4v3v4v4v6t-1.5 5
t-4.5 2q-5 0 -10 -1.5t-10 -3.5t-7.5 -6t-2.5 -9zM135 95q-2 -8 -2 -16v-3.5t3 -2.5q4 -1 7 -1t5.5 -0.5t5 -0.5h5.5h7q2 2 2.5 4.5t0.5 5.5q0 5 -2.5 8.5t-6 5.5t-8.5 2.5t-9 0.5h-5.5t-2.5 -3zM87 62q0 -7 3 -10.5t7.5 -5.5t10 -3t10.5 -1h3t2 2v21q-7 0 -14 0.5t-15 0.5
q-2 0 -4.5 -0.5t-2.5 -3.5zM131 45l2 -2t3 -1.5t3.5 -0.5h3.5q3 0 8 0.5t9 2.5t6.5 5t2.5 8q0 1 -0.5 3.5t-2.5 2.5h-31q-1 0 -1.5 -2.5t-1 -5.5l-1 -6t-0.5 -4z" />
</svg>
