<?xml version="1.0" standalone="no"?>
<!DOCTYPE svg PUBLIC "-//W3C//DTD SVG 1.1//EN" "http://www.w3.org/Graphics/SVG/1.1/DTD/svg11.dtd" >
<svg xmlns="http://www.w3.org/2000/svg" xmlns:xlink="http://www.w3.org/1999/xlink" version="1.1" viewBox="-10 0 266 256">
   <path fill="currentColor"
d="M71 248q2 3 5 3q2 0 3 -1.5t2 -3.5v-4.5v-7.5v-7.5v-4.5l1 -2.5t1 -3.5v-1.5v-3.5t0.5 -4l0.5 -2q2 -6 7.5 -7.5t11 -2t10 -1t4.5 -4.5q0 -2 -1 -3.5t-3 -1.5l-1.5 0.5l-1.5 0.5h-4h-4.5t-1.5 -3v-3l7 -7l4 -2t2 -3q0 -3 -1 -3.5t-3 -0.5q-1 0 -2.5 0.5t-2.5 1.5l-17 17
h-3q-3 0 -4.5 -2t-1.5 -6q0 -5 5 -8.5t10.5 -6t10.5 -4.5t5 -4t-0.5 -2.5t-2.5 -0.5q-1 0 -2 0.5t-2 0.5t-2.5 0.5t-2.5 1.5q-5 1 -10 3t-9 4.5t-7 6.5t-3 10q0 4 1.5 6.5l3 5t3 3.5t1.5 3q0 5 -1 10.5t-2 10.5t-2 10.5t-1 10.5v12zM163 198q3 1 4 5t1.5 9t0 10.5t0 10
t1.5 8t4 3.5t4 -2t1.5 -4.5t0.5 -4.5v-5q0 -4 -1 -8.5t-2.5 -9t-2.5 -9t-1 -8.5q0 -2 1 -3l2 -2t2.5 -2t1.5 -3l0.5 -1.5t1 -4t1 -4.5t0.5 -3v0q0 -6 -4.5 -9.5t-11 -6t-13.5 -3.5t-10 -1q-2 0 -4 1.5t-2 3.5l0.5 0.5l0.5 0.5l0.5 0.5t0.5 1.5q7 1 15.5 2.5t14.5 5.5
q1 3 1.5 5.5t0.5 5.5q0 2 -1 3.5t-3 1.5q-3 0 -6.5 -2.5t-8 -5.5t-9.5 -5.5t-11 -2.5q-3 0 -3 3v1.5t2 1.5q3 1 7 2.5t8 3.5t7 4.5t5 6.5q-1 1 -2 1.5t-2 0.5q-5 0 -11 -2.5t-11 -2.5q-2 0 -3 1t-1 3t2 3.5t5 2.5t6 1.5t4 0.5h17zM54 141v2t2 1h5q32 0 63.5 -1.5t62.5 -0.5
l2 -2l1 -1v-1q0 -2 -2 -3t-4 -1h-2q-2 0 -6.5 0.5t-9.5 1t-10 0.5h-6h-1q-2 0 -2.5 -2t-0.5 -4q0 -5 3.5 -8t7.5 -5.5t7 -5.5t3 -9t-4.5 -8.5t-11 -4t-13.5 -1.5h-9h-12.5t-15 1.5t-13 5t-5.5 10.5q0 6 1.5 9.5t6.5 6.5h5t6 0.5t5.5 2t2.5 3.5q0 1 -0.5 2.5t-1.5 3.5t-2.5 3
t-2.5 1h-47q-2 0 -2 1.5v2.5zM136 120h2t1 1v13h-24q0 -4 1.5 -7t4.5 -4.5t6.5 -2t8.5 -0.5zM94 111v-11q0 -1 2.5 -2l2.5 -1q1 0 3.5 -0.5t3.5 -0.5h43q4 0 5.5 2.5t1.5 5.5t-1.5 4.5t-4 2.5t-5.5 1.5t-5 0.5q-1 0 -4 0.5t-7 1t-7 1t-5 0.5h-2h-2q-2 0 -4.5 -0.5t-5 -0.5
t-4.5 -0.5l-2 -0.5zM84 74q-1 0 -2 0.5t-1 1.5t-0.5 2.5l-0.5 1.5h7.5h10t11.5 -0.5t11.5 -1t9 -1t4.5 -1.5h43q1 0 1.5 -2t0.5 -3t-1.5 -2t-3 -1h-3h-2.5q-11 0 -23 1t-22 2q-3 2 -8.5 2.5t-11.5 0.5h-11h-9zM54 74q0 1 1 2t2 1h1q4 0 9.5 -2t10.5 -5t10.5 -6t10.5 -4
q1 -1 4.5 -1.5t7 -1.5l7 -2t5.5 -1q7 -1 15.5 -1t17 -2t14 -6.5t5.5 -14.5q0 -3 -0.5 -5t-1.5 -4t-3 -4t-4 -5h-19h-10t-8 0.5t-7.5 1l-10.5 1.5q-2 1 -9 3t-15 4.5t-14 5.5t-6 6t3 3t6 -1.5t6.5 -3t6.5 -3t6 -1.5t4.5 0.5t2 1t1 1.5l1.5 3q1 3 3.5 6t2.5 6q0 2 -0.5 3
t-2.5 2q-1 1 -3.5 1.5l-5 1l-5 1t-3.5 1.5q-2 0 -8 2t-12.5 4.5t-11.5 6t-4 5.5zM107 27q0 -2 0.5 -2.5t2.5 -0.5l2 -0.5t4.5 -1t4.5 -1t3 -0.5h1q3 0 6 2t5 5.5t3 6.5t1 6v3v1q0 1 -0.5 1.5l-0.5 0.5h-18l-2 -3t-5 -7t-5 -7zM138 23h0.5h0.5q0 -1 1 -2t2 -1h15q2 0 5 2.5
t3 4.5v1q-1 1 -1 2.5t-0.5 3.5t-1 3.5t-0.5 2.5q-3 2 -4.5 2.5t-3.5 0.5h-1.5h-0.5q-4 -6 -6.5 -10t-6.5 -9z" />
</svg>
