<?xml version="1.0" standalone="no"?>
<!DOCTYPE svg PUBLIC "-//W3C//DTD SVG 1.1//EN" "http://www.w3.org/Graphics/SVG/1.1/DTD/svg11.dtd" >
<svg xmlns="http://www.w3.org/2000/svg" xmlns:xlink="http://www.w3.org/1999/xlink" version="1.1" viewBox="-10 0 266 256">
   <path fill="currentColor"
d="M68 240q0 3 1 6t5 3t5.5 -7t2 -16t0.5 -18.5t2 -13.5q5 -1 11.5 -2t12.5 -4t10 -7t4 -11q0 -1 -0.5 -2t-1.5 -1l-5 5t-6.5 6t-7 5.5t-7.5 2.5l-2 -0.5l-2 -0.5q-1 -1 -1.5 -2t-0.5 -3q0 -5 2.5 -9t6 -7.5t6.5 -7.5t3 -9q-6 0 -10 5.5t-8 12t-7.5 12t-8.5 5.5t-6 -3t-1 -8
v-1v-1l11 -18v-5q-5 0 -8.5 3t-6 7t-4 8.5t-1.5 7.5q0 7 2.5 10t6 5t6.5 3.5t3 5.5q0 10 -3 21.5t-3 22.5zM175 191q4 0 6.5 3.5t4 9t2 10.5t1.5 7v5.5t0.5 7t0.5 7v5.5h1.5h0.5q3 0 4 -1.5t2 -3.5t1 -4v-3q0 -6 -1 -11.5t-2.5 -11t-2.5 -11t-1 -11.5q0 -3 1 -5.5t2.5 -5
t2.5 -5t1 -5.5q0 -8 -3.5 -14.5t-12.5 -6.5q0 4 1 7t2.5 6t2.5 6t1 7q0 2 -1.5 3t-3.5 1t-6 -4.5t-9 -9.5t-10 -9.5t-10 -4.5v4l3 3l4.5 4.5l5 5l3.5 3.5q3 3 5 5.5t2 6.5t-3 4h-5q-9 0 -13.5 -4.5t-7.5 -11.5h-4q0 5 2 10.5t4 9.5q5 3 7.5 3h7.5q4 0 7.5 -0.5t6.5 -0.5z
M67 84q-1 0 -2.5 0.5t-1.5 1.5v48q0 1 1.5 1.5t2.5 0.5h3h1q5 0 9 -1t10 -3v0v-1v0q-1 -1 -2 -1.5t-2 -0.5l-2 -0.5t-4 -0.5t-4 -0.5l-2 -0.5l-0.5 -1.5l-0.5 -1.5q0 -4 2.5 -5t5.5 -1.5t5 -1.5t2 -4h-14l-1 -2t-1 -3v-1q0 -2 1 -3.5t3 -2.5t4.5 -1.5t3.5 -0.5v-1
q0 -1 -1.5 -2t-3.5 -1.5t-3.5 -0.5h-1.5q-2 0 -2.5 -2t-1 -3.5t-1 -2.5t-2.5 -1zM98 115q0 11 5.5 15t14.5 4q8 0 14.5 -0.5t11 -2.5t7 -6.5t2.5 -13.5t-1.5 -13.5t-4 -7t-5 -3l-5 -1t-4 -1t-1.5 -3.5q0 -4 3.5 -5.5t8 -4t8 -8t3.5 -16.5q0 -8 -1.5 -11.5t-4 -5t-6.5 -3
t-9 -5.5q-2 -2 -2.5 -4t-1 -3.5t-1.5 -2.5t-4 -2q-2 -1 -3 0.5t-2 4.5t-1.5 5.5l-0.5 2.5l-6 2t-5.5 3t-4.5 4t-3 5q0 1 -0.5 4.5t-0.5 4.5q0 6 0.5 11.5t3.5 10.5q2 3 5.5 4l7 2t6 2t2.5 4q0 2 -4 4t-8.5 5t-8.5 9t-4 16zM164 132v0q0 1 0.5 1.5t1.5 0.5h9h7q3 0 5.5 -0.5
t5 -2.5t3.5 -5v-3.5v-4.5v-5v-3q0 -8 -1 -16.5t-1 -16.5v-1q0 -1 0.5 -3l1 -4t1.5 -4t1 -3v-3v-6v-6v-4q0 -7 1.5 -14t1.5 -13q0 -3 -1 -3.5t-2 -0.5q-3 0 -4.5 2t-2.5 4.5t-2 5.5t-2 4q-5 3 -12 3h-11v1q0 2 3 2.5t7 1t8.5 1t6.5 1.5v4v1v2t-0.5 2t-1.5 1h-20v4
q1 0 3.5 0.5l5 1l5 1l2.5 0.5q3 1 3.5 1.5t0.5 2.5t-0.5 4t-1.5 4t-2.5 4t-2.5 2h-18q0 3 3.5 3.5t5.5 0.5q1 0 3 0.5t4 0.5t4.5 0.5l2.5 0.5q2 0 2 2.5v3.5q0 4 -2 6t-5.5 2.5t-7 0t-6.5 -0.5q-1 0 -1.5 1l-0.5 1v1v1l1.5 0.5l1.5 0.5q1 0 3.5 0.5t5 0.5t5 0.5l2.5 0.5
q2 0 2 2v2v3t-2 2h-16l-0.5 1t-0.5 2v1v1l0.5 0.5l0.5 0.5h15q2 0 2.5 2t0.5 3q0 4 -2 6t-5 2.5t-6.5 0.5h-5.5q-1 0 -1.5 0.5t-0.5 1.5v1zM114 124q0 -2 1.5 -3.5t3.5 -2l4 -1t4 -0.5q3 0 4.5 1.5t4.5 5.5v1v1l-1 0.5l-1 0.5q-1 0 -4 0.5t-4 0.5h-3t-4 -0.5t-3.5 -1
t-1.5 -2.5zM137 111q0 -5 2 -7.5t5 -5.5q1 0 1.5 1l1 2t0 2.5l-0.5 1.5q0 1 0.5 3.5t0 5.5t-1.5 4.5t-3 1.5t-3 -1t-1.5 -2.5t-0.5 -3v-2.5zM105 111q0 -3 1.5 -6t4.5 -5q4 2 5.5 4t1.5 5t-3.5 6.5t-6.5 3.5q-1 0 -1.5 -1l-1 -2t-0.5 -2.5v-2.5zM116 97l4 -4h2h4h2.5h3.5
t4 0.5t3 1.5l-2 2t-4 3.5l-4 3t-3 1.5h-1zM65 70q1 7 5.5 8t10.5 1h3.5t1.5 -2q0 -3 -2 -3t-4 -1t-4.5 -2.5t-2.5 -5.5t2.5 -5.5t5 -2t5 -1.5t2.5 -3q0 -3 -2 -3h-6t-5.5 -0.5t-2.5 -4.5q0 -3 2 -4.5t5 -2t5 -1.5t2 -3v-1q0 -2 -2 -2.5t-4 -0.5h-4h-2q-1 0 -2 -2.5
t-2.5 -4.5t-4 -5t-5.5 -4q-2 0 -2 1v2q0 3 1.5 6t1.5 7q0 2 1 8t1.5 12.5t1 12t0.5 7.5zM114 67q1 0 2 -1.5t2.5 -2.5t3 -2.5l1.5 -1.5l2 -2t1 0l11 10q-3 3 -5 3.5t-6 0.5q-3 0 -6.5 -0.5t-5.5 -3.5zM104 50v-3t0.5 -3.5t1.5 -2.5t2 -1t3 1t4 2.5t3.5 3t1.5 3.5q0 3 -3.5 7
t-7.5 4q-2 0 -3 -1.5t-1.5 -3t-0.5 -3.5v-3zM136 51q0 -1 1 -3t2.5 -3.5l3 -3l1.5 -1.5h1v0h1v0l2 15l-0.5 1.5t-1.5 2.5l-0.5 1t-1.5 1q-3 0 -5.5 -3t-2.5 -7zM118 37v-2.5t2 -1.5h16l3 3q-2 3 -5 5t-8 2q-3 0 -5.5 -1.5t-2.5 -4.5z" />
</svg>
