<?xml version="1.0" standalone="no"?>
<!DOCTYPE svg PUBLIC "-//W3C//DTD SVG 1.1//EN" "http://www.w3.org/Graphics/SVG/1.1/DTD/svg11.dtd" >
<svg xmlns="http://www.w3.org/2000/svg" xmlns:xlink="http://www.w3.org/1999/xlink" version="1.1" viewBox="-10 0 266 256">
   <path fill="currentColor"
d="M122 176q2 15 5 30.5t8 29.5q1 3 2.5 5.5t3.5 5t4.5 4t5.5 1.5v-6l-9 -21q0 -3 -0.5 -7.5t-1.5 -9t-2 -8.5t-2 -7l-2 -26t-1 -25v-4.5v-4.5v-4.5v-2.5l5 -4q5 -1 10 -1.5t9 -1.5t7 -4t3 -9q0 -1 -0.5 -3l-1 -4t-1.5 -3t-2 -1q-3 0 -4.5 2.5t-3 6t-3 6.5t-5.5 4
q-1 0 -4 -0.5l-3 -0.5v-12q0 -1 -2.5 -2.5t-5.5 -2t-6 -0.5h-3q0 2 1 3.5t1.5 3.5t1.5 4t1 3q0 7 -6 7q-7 0 -11 -1t-6 -3l-4 -4l-4 -4t-5 -3.5t-8 -1.5v3t1 3q3 7 6.5 10.5t8 5t10 2t11.5 1.5q1 0 2 0.5t2 0.5v7q0 6 -1 10t-1 9v6q0 1 0.5 3t0.5 4t0.5 4l0.5 2q0 1 -1 2.5
t-1 2.5zM146 179q0 2 3 7t7 10.5t8.5 10t7 6t4 2l3 1l3 1t2.5 2.5h16q1 0 2 -1.5t2 -1.5q0 -1 -1 -2t-1 -2l-0.5 -0.5t-1.5 -0.5q-5 0 -10.5 -2.5t-10 -5.5t-9 -7t-8.5 -7q-2 -3 -3.5 -4.5l-3 -3t-4 -2t-5.5 -0.5zM76 212q0 3 2 3.5t4 0.5q1 0 4 -2t4 -3q5 -3 8.5 -6.5
t6.5 -7t4.5 -8t1.5 -10.5v-1q0 -2 -1 -4t-2 -3l-1 0.5t-1 1.5q-3 4 -5.5 8t-5.5 9q-4 5 -9 10.5t-10 10.5v0.5v0.5zM44 171q0 3 3 5.5t7 3t7.5 1t5.5 0.5q5 0 12 -3.5t13.5 -8.5t11 -11t4.5 -10q0 -3 -1.5 -3.5t-4.5 -0.5t-5 1t-3 2.5t-1.5 3.5t-2.5 4q-1 2 -2 2.5l-2 1
t-2 1.5t-2 3l-0.5 1.5l-0.5 1.5l-4.5 3t-3.5 1.5t-3.5 0.5h-4.5q-5 0 -7.5 -1.5t-7.5 -1.5q-2 0 -4 0.5t-2 2.5zM154 149q3 4 7 8.5t8.5 8.5t9.5 6t11 2q1 0 4 -1.5t3 -2.5t-0.5 -2t-0.5 -2q-2 -1 -8 -5l-12 -8t-11.5 -7t-6.5 -3q-2 0 -3 1.5t-1 2.5v1.5v0.5zM57 87q0 1 2 2
t4 1h4h2h5h4t6.5 -0.5t12.5 -1t15 -1t15 -1t12.5 -1t6.5 -0.5h8h14h13h8t4.5 -0.5l7 -1t6.5 -1t5 -0.5l0.5 -2t0.5 -3v-1v0q0 -1 -1 -2l-2 -2q-5 2 -11 2.5t-11.5 1l-11 1t-11.5 0.5q-1 0 -3.5 0.5t-5.5 0.5t-6 0.5t-4 0.5q-2 -1 -2 -3v-2q0 -7 1 -14t1 -13q0 -4 3 -6.5
t6.5 -3t8 -0.5h8t5.5 -1t1 -3q0 -2 -2.5 -3.5t-3.5 -1.5h-2.5h-3.5h-4h-2q-12 0 -23.5 1.5t-23.5 1.5h-3.5h-3.5t-2.5 -0.5t-1.5 -1.5v-17l-1 -0.5t-1 -1.5h-1q-3 0 -5 3.5t-3.5 8t-1.5 9v5.5q0 7 1 13.5t0 13.5l4 1l26 2q3 -1 5 -1.5t5 -0.5h2q3 0 3 2q1 14 -11 14
q-4 0 -13 1t-19.5 1.5t-20 0.5h-12.5q-1 1 -1.5 2t-0.5 2zM100 53v-3v-4t0.5 -3.5t2.5 -1.5q8 0 14.5 -1t13.5 -1q3 0 4 1.5t1 4.5q0 1 0.5 3.5t0 4.5t-1.5 3.5t-3 1.5h-9q-2 0 -6 0.5t-8 0t-6.5 -1.5t-2.5 -4z" />
</svg>
