<?xml version="1.0" standalone="no"?>
<!DOCTYPE svg PUBLIC "-//W3C//DTD SVG 1.1//EN" "http://www.w3.org/Graphics/SVG/1.1/DTD/svg11.dtd" >
<svg xmlns="http://www.w3.org/2000/svg" xmlns:xlink="http://www.w3.org/1999/xlink" version="1.1" viewBox="-10 0 266 256">
   <path fill="currentColor"
d="M158 247q0 1 0.5 2.5t2.5 1.5t4 -3t3 -5q0 -1 0.5 -4t0.5 -5.5t0.5 -5t0.5 -3.5v-91q0 -1 1 -1.5t2 -0.5q4 0 6.5 5t4 11t1.5 12t1 9q0 2 0.5 7.5t1.5 12t1.5 12t0.5 6.5v3.5v5.5v5.5v3.5q0 2 1 2.5t3 0.5t3 -1.5t2 -4t1 -5v-4.5q0 -6 -1.5 -11t-1.5 -10q-1 -6 -1 -12.5
t-0.5 -13.5t-1.5 -14t-4 -12q-2 -6 -5.5 -9.5t-7 -6.5t-5.5 -7t-2 -11q0 -2 2 -4t4.5 -3.5t5.5 -2.5t5 -1t2 1t1 4q0 1 1 2.5t2 3.5t1.5 3.5l0.5 1.5q0 1 1 3.5t1.5 5t1.5 5l1 2.5q0 1 1 1.5t2 0.5t2 -1t1 -2.5t0.5 -2.5t0.5 -2q0 -4 -2 -8t-4 -7.5t-4 -7.5t-2 -8
q0 -5 2.5 -10t2.5 -10q0 -8 -2 -12.5t-5.5 -7t-7.5 -3.5t-7.5 -1.5t-5.5 -1.5t-2 -3v-24l-1 -0.5t-1 -1.5q-1 0 -2 -0.5l-1 -0.5q-2 0 -3.5 1.5t-1.5 3.5v26h-17l-1 1.5t-1 2.5v1v1l0.5 1t1.5 1h15l4 4v15h-23l-0.5 0.5t-1.5 0.5v1v1l2.5 2.5l1.5 1.5h16l1 1.5t2 2.5
q1 0 1.5 1.5l0.5 1.5q0 1 -0.5 4t-3.5 4h-2t-4 0.5l-4 1l-2 0.5q-1 0 -3 -0.5t-3.5 0t-2.5 1t-1 3.5v0v0.5t1.5 1l1.5 0.5h21v19q0 2 -1 3t-2 1.5t-2.5 1t-2.5 0.5q-7 7 -11 16t-5.5 19t-1.5 19.5t-1 18.5q0 1 -1 4.5t-1.5 8t-1.5 8t-1 4.5v1v1q1 0 2 1.5l1 1.5q1 0 2 -0.5
t2 -1.5t1.5 -2l0.5 -1q1 -4 2 -12.5t1.5 -19t2 -21t3.5 -19t5 -14t7 -5.5q2 0 3 0.5t1 2.5v4.5t0.5 7.5t0.5 7.5v4.5v0.5v1.5q0 21 -2.5 42t-2.5 42zM85 239q1 2 1.5 2h1.5h2.5t0.5 -2q3 -4 3 -9t1 -10v-48l1 -6l0.5 -0.5l0.5 -0.5q3 0 5.5 3t3.5 6q0 1 0.5 4t1 5.5l1 5
t0.5 3.5v7.5v11.5v11.5v7.5l0.5 0.5l0.5 0.5q1 1 2 1q2 0 3 -2.5l2 -5t1.5 -5t0.5 -3.5q0 -12 -2.5 -24.5t-4.5 -24.5q-1 -1 -4 -3l-6 -4t-5.5 -4t-1.5 -4l1 -16l3.5 -3.5l5 -5t4.5 -5t3 -3.5q3 -3 4 -5t1 -6q0 -3 -1.5 -6t-3.5 -5.5t-3.5 -5t-1.5 -5.5q0 -8 3.5 -10.5
t7.5 -2.5t7 -0.5t3 -4.5l-0.5 -0.5t-1.5 -0.5q0 -1 -1.5 -1.5l-1.5 -0.5h-19v-32q0 -2 2 -3t4.5 -1t5 -1t3.5 -3q0 -1 -0.5 -2t-1.5 -1h-5h-4q-7 0 -13.5 1t-13.5 1l-2.5 -0.5t-3.5 -0.5v-2v-3t-1 -3.5t-2 -2.5v0q-3 0 -4.5 2t-2 4.5l-1 5t-0.5 4.5q0 5 1.5 11l2.5 10
q0 1 2 2.5t2.5 2l1.5 1.5l1 1h20q0 1 0.5 3t0.5 4t-1 3.5t-4 1.5h-36q-3 0 -3.5 1t-0.5 3t1.5 3t3 1.5t3.5 0t3 -0.5q8 0 16.5 -0.5t16.5 -0.5h4l2 1l-0.5 3.5t-1.5 4.5q-1 5 -7.5 10.5t-13.5 11t-13 10t-6 6.5t2 2h4h3.5t3.5 -1l27 -26h1h1q3 0 5 3.5t2 6.5q0 2 -0.5 3.5
l-1.5 4.5l-10 10t-11 9q-3 2 -6.5 3.5t-6.5 3t-6.5 3.5t-6.5 4q0 1 -0.5 2.5t-0.5 2.5l1 0.5t2 0.5v0.5t1 0.5q4 0 6.5 -2l5 -4t4.5 -4t5 -2t3.5 3.5t0.5 5.5v2v2q-10 3 -16 10t-9.5 16.5t-4.5 19.5t-1 18q0 2 0.5 4.5t3.5 2.5h1q0 -1 2 -2t3 -1v-5.5t0.5 -7.5t0.5 -7.5
t1 -5.5q0 -3 1 -8.5t3 -10.5t5 -9t7 -4h1q1 0 1.5 0.5l0.5 0.5v3v3.5v3.5v2q0 14 -1 27.5t-1 27.5v5zM168 89q0 -1 0.5 -2.5t2.5 -2.5q1 0 2 0.5t2.5 1t2.5 1t1 1.5t-0.5 2t-2 2t-3 1.5t-2.5 0.5q-3 -1 -3 -5zM171 75q-1 -2 -1.5 -4t-0.5 -4v-3t0.5 -4t1 -3.5t2.5 -1.5
q8 0 12.5 3t4.5 11v3v4t-1 3.5t-3 1.5h-2q-1 0 -3 -1l-4 -2t-3.5 -2t-2.5 -1zM75 44v-5q0 -6 3 -7t9 -1q1 0 4 0.5t4 0.5q2 0 1.5 2.5t-0.5 3.5v4t-1 4h-7h-6.5t-6.5 -2z" />
</svg>
