<?xml version="1.0" standalone="no"?>
<!DOCTYPE svg PUBLIC "-//W3C//DTD SVG 1.1//EN" "http://www.w3.org/Graphics/SVG/1.1/DTD/svg11.dtd" >
<svg xmlns="http://www.w3.org/2000/svg" xmlns:xlink="http://www.w3.org/1999/xlink" version="1.1" viewBox="-10 0 266 256">
   <path fill="currentColor"
d="M66 248v1l1 2h1q6 0 8.5 -4t5.5 -7q4 -5 6 -12t3 -15t2 -15t2.5 -13t5 -9.5t9.5 -3.5h2t1 1q0 10 0.5 22t1.5 22q0 3 1 8.5t3 11t5.5 9t8.5 3.5h1l0.5 -0.5l0.5 -0.5v-1q0 -2 -1 -3.5t-2.5 -3.5t-3 -3.5l-2.5 -2.5q-1 -3 -2 -7.5t-1.5 -10t-1 -10.5t-0.5 -8v-8t0.5 -9.5
t2 -8t4.5 -3.5q7 0 10.5 3t6.5 9v13t1.5 14t3.5 13.5t6 10.5q1 1 2 2.5t2.5 2.5t2.5 2l1 1h5q0 -4 -2.5 -6.5t-4.5 -5.5q-4 -7 -7 -16t-3 -17q-1 -1 -1 -4v-6v-7t-1 -5q-4 -5 -10.5 -8.5t-13.5 -4.5q0 -1 -0.5 -3t-1.5 -2v-1q0 -3 1 -6.5t1 -6.5v-4t-3 -2h-2q0 10 -1.5 15
t-4 7.5t-5 4t-6 3t-7 4.5t-8.5 9q0 1 -0.5 2l-0.5 1v3t-0.5 5t-0.5 5t-1 3q0 1 -1 6l-2 10t-2 9.5t-1 6.5l-0.5 1.5l-0.5 1.5l-3 3t-4 5t-3.5 5t-2.5 3v0zM195 129h-0.5h-0.5l-0.5 0.5l-0.5 0.5q-1 1 -2.5 4l-3 6t-3 5.5t-1.5 3.5q-2 3 -5.5 7t-7 8.5t-6 9t-2.5 8.5
q5 0 11 -6t11.5 -14.5t9 -16.5t3.5 -12v-2.5t-2 -1.5zM60 146q-2 0 -2.5 2t-0.5 3q9 0 16 -2.5t14 -5.5t13 -7.5t13 -8.5q5 -2 11 -4.5t11.5 -5t9 -6.5t3.5 -11q0 -3 -1.5 -6t-3.5 -6t-4.5 -5t-4.5 -4v-2q0 -3 0.5 -5t2 -3t3.5 -1t5 -1q2 0 5 -3.5t5 -7.5l4 -8t2 -6
q0 -5 -1.5 -9t-3.5 -7.5t-5.5 -6.5t-7.5 -6h-11q-4 0 -9 1t-9.5 2.5t-8.5 4.5t-6 8v1.5v3.5v3v2q0 9 2 14t5.5 8t7 3.5t6.5 1t5.5 1.5t2.5 2q0 7 -5 12t-12 10t-15 8.5t-15.5 6.5t-12 5.5t-4.5 3.5q0 3 3 3v0q2 0 5.5 -0.5t4.5 -0.5q2 -1 6 -3.5t9 -5l9 -4.5l6 -3
q3 -1 5.5 -3t6 -4.5t6.5 -3.5t6 -1q4 0 6 4t2 8q0 3 -6 8t-13 9t-14.5 8t-11.5 6q-1 1 -3 2t-4.5 2.5t-4.5 2.5l-2 1q-1 0 -4 1l-6 2l-6 2t-4 1zM166 124q-1 3 -4 6t-5.5 6t-4.5 5.5t-2 6.5h5l1.5 -1.5t4 -3.5t4.5 -4l4 -4q3 -3 7.5 -7t8.5 -8.5t7 -9.5t3 -10q-2 0 -3 1
l-2 2t-2.5 1.5t-2.5 1.5zM190 50q-1 0 -4 5.5t-6.5 12.5t-6.5 13.5t-4 9t-3 4t-3.5 3t-3 3.5t-1.5 5h4q1 0 2.5 -1.5t3.5 -4t4.5 -4.5t4.5 -4l6 -8t5 -7.5t3.5 -8t1.5 -10.5v-1q0 -2 -0.5 -3.5t-1 -2.5t-1.5 -1zM107 40q0 -5 2 -9t5.5 -6t7.5 -3t9 -1q10 0 15.5 5.5
t5.5 13.5q0 3 -1 6.5t-3.5 6.5t-5 5t-6.5 2q-6 0 -11 -1t-9.5 -3t-6.5 -6t-2 -10zM121 43q0 2 2.5 4t5.5 2q4 0 6 -1.5t2 -4.5q0 -4 -2.5 -5.5t-6.5 -1.5q-2 0 -4.5 2t-2.5 5z" />
</svg>
