<?xml version="1.0" standalone="no"?>
<!DOCTYPE svg PUBLIC "-//W3C//DTD SVG 1.1//EN" "http://www.w3.org/Graphics/SVG/1.1/DTD/svg11.dtd" >
<svg xmlns="http://www.w3.org/2000/svg" xmlns:xlink="http://www.w3.org/1999/xlink" version="1.1" viewBox="-10 0 266 256">
   <path fill="currentColor"
d="M160 249q0 1 1 1.5t2 0.5q2 0 3.5 -1t2.5 -4v-3.5v-4.5v-5v-3v-17t-2 -17q0 -4 -2 -10.5t-2 -11.5q0 -3 2.5 -4.5t6 -3t6 -3.5t2.5 -5q0 -4 -1.5 -7.5t-3.5 -6t-5 -4t-7 -1.5l-1.5 0.5l-1.5 0.5l-0.5 0.5l-0.5 0.5q0 2 1.5 3.5l3 3t3 3.5t1.5 4q0 4 -3.5 6.5t-7.5 2.5
h-1.5h-1.5q-6 -7 -10.5 -11t-10 -7t-11.5 -4t-14 -1q0 4 2.5 6t6.5 3t8.5 1.5t8 2t6.5 4.5t3 7q0 2 -1 2q0 1 -2.5 2t-3.5 1l-28 1q-5 1 -7 -2.5l-4 -7t-3.5 -7.5t-5.5 -4q-1 0 -2 0.5t-2 0.5l-0.5 1l-0.5 1q0 3 2 7.5t5 8t6.5 6.5t6.5 3h3.5t6 0.5t6 0.5h3.5h1.5t2.5 -0.5
t2.5 -0.5h1.5l2 -0.5t3.5 -0.5t3.5 -0.5l2 -0.5l2 -2l3 -3h0.5h0.5q4 0 6 3.5t3 7.5t1.5 8.5t0.5 5.5q0 2 0.5 5.5t0.5 7.5t0.5 7.5t0.5 4.5v28zM73 209l0.5 1t1 1.5l1 1t1.5 0.5q0 1 2 1h3q2 0 7.5 -1t13 -2t15.5 -2.5t14.5 -3t10.5 -2.5t4 -2v-2.5t-1 -2.5h-6
q-13 0 -26.5 2.5t-25.5 4.5h-4t-4.5 1t-4.5 2t-2 3zM59 130l0.5 1t1.5 2h10q7 0 13.5 -1l13 -2l13 -2t13.5 -2v-1v-2q0 -2 -0.5 -3t-3.5 -1h-17q-1 0 -1.5 -1.5l-1 -3t-0.5 -3.5v-2q0 -6 4 -7.5t8 -1.5h8t4 -3t-2 -4t-4 -1q-13 0 -26.5 2t-26.5 3q-1 0 -1 1.5v2.5q0 2 0.5 3
t3.5 1q4 0 8.5 -1t8.5 -1h3h2q3 1 3.5 5t0.5 7v2.5v2.5q-1 1 -6 1.5t-11 1t-11.5 2t-6.5 5.5zM142 122q2 3 4.5 5.5t5.5 3.5h10h8t7 -1.5t5.5 -4t4.5 -6.5v-5.5t0.5 -8t0.5 -8v-5.5v-2v-3.5t-1 -5t-2.5 -4t-3.5 -1.5l-1 0.5l-1 0.5l-0.5 2.5t-0.5 5t-0.5 4.5t-0.5 3t-0.5 2
t-1.5 1h-26q-1 0 -1.5 -0.5l-0.5 -0.5q0 -1 -0.5 -4.5t-0.5 -5.5h-1h-1l-3 2v4q0 9 1 16t0 16zM149 110q0 -3 2 -4.5t5 -2.5t6 -0.5t5 0.5h3.5h3.5q2 1 2.5 3.5t0.5 4.5v3t-1 3.5l-2 3t-3 1.5h-19q-1 0 -1.5 -1.5t-1 -4t-0.5 -4.5v-2zM102 58q-2 0 -7.5 3t-12.5 7t-13.5 7.5
t-9.5 4.5l-2.5 1t-3.5 2q-2 1 -2 3v4q1 0 6 -1.5t11.5 -4t13 -5.5t12 -6t9.5 -6t4 -5q0 -4 -5 -4zM185 59h2l12 13h1h1q3 0 3.5 -1.5t0.5 -4.5v-2q-2 -3 -5 -5.5t-5 -5t-3.5 -5.5t-1.5 -7q0 -1 -0.5 -3.5t-0.5 -5.5q0 -2 0.5 -4.5t0.5 -3.5q-1 -4 -4 -6.5t-7 -4t-8.5 -2
t-7.5 -0.5q-10 0 -20.5 0.5t-20.5 4.5v1v1q0 3 1.5 3.5t3.5 0.5q5 0 10.5 -0.5t9.5 -2.5h24q3 0 5 2.5t3 5.5l2 6t1 5q0 3 -2 3h-4q-5 0 -9 -2.5t-9 -4.5h-13h-6.5t-9.5 0.5t-9 2t-4 4.5q0 2 1 2.5t3 0.5q7 0 14 -1t14 -1h12q1 1 4 1.5t5.5 1t4.5 1.5t2 3q0 3 -2.5 5t-6 3.5
t-7 2.5t-5.5 1q-1 0 -5.5 0.5l-9 1t-8.5 1t-5 0.5q-2 0 -3 1t-1 2v3v2h4t6.5 -0.5t6.5 -1t4 -0.5l4 -0.5t8.5 -1.5t8.5 -2t7 -2q4 -1 6.5 -3t6.5 -2zM48 59q0 3 1.5 4t4.5 1h1h1q1 0 3 -1.5t4.5 -2.5l5 -2t3.5 -2t6 -2.5t10.5 -4t10 -4t4.5 -2.5q0 -2 -1.5 -3t-3.5 -1
t-6 1.5t-9.5 3t-11.5 4t-11.5 4.5t-8.5 4t-3 3zM48 34q0 3 1.5 3.5t3.5 0.5h2h1q2 -1 7 -3t11 -4t11 -4t7 -3q1 -1 3 -1.5t3.5 -2t3 -2.5t1.5 -3v-1l-1 -1h-6q-3 0 -7.5 1t-9.5 3t-10.5 4.5t-10 5t-7.5 4.5t-3 3zM90 13q2 0 2 1q0 2 -2 2q-1 0 -1 -2q0 -1 1 -1z" />
</svg>
