<?xml version="1.0" standalone="no"?>
<!DOCTYPE svg PUBLIC "-//W3C//DTD SVG 1.1//EN" "http://www.w3.org/Graphics/SVG/1.1/DTD/svg11.dtd" >
<svg xmlns="http://www.w3.org/2000/svg" xmlns:xlink="http://www.w3.org/1999/xlink" version="1.1" viewBox="-10 0 266 256">
   <path fill="currentColor"
d="M60 166q0 3 1.5 7t3.5 7t5 5t7 2h27q1 0 1.5 2t1.5 4t1.5 4.5t1.5 2.5q0 1 1 3t2 4.5t2 4.5t2 3q3 6 12 11.5t19.5 9t21 6t16.5 2.5h7q1 -1 2 -2.5t2 -1.5v-1q0 -2 -4.5 -3t-11.5 -2.5t-15 -4t-15 -5t-12 -6.5t-6 -10q0 -2 2 -6.5t5 -9t6.5 -8l4.5 -4.5q7 0 14 -2
t12.5 -6t8.5 -10.5t3 -15.5q0 -6 -4 -11t-9.5 -8.5t-12 -5.5t-11.5 -2q0 4 4 6.5t8.5 5.5t8.5 7t4 12q0 4 -2 8t-4.5 7t-6.5 5t-8 2h-3.5t-2.5 -2v-9.5v-8.5t-1 -7.5t-3 -8.5q-1 0 -1.5 -0.5t-0.5 -1.5l-3 36q-2 3 -3.5 7.5t-3 8.5t-4.5 7t-7 3q-1 0 -2.5 -1.5t-2.5 -3
t-2 -3.5t-1 -3l-5 -43l-4 -2q-2 3 -3 7t-1.5 9t0 10t0.5 8q-1 2 -3.5 3t-4.5 1q-8 0 -14.5 -4t-6.5 -13q0 -6 4.5 -10.5t9.5 -8t9.5 -6.5t4.5 -7q0 -1 -1.5 -1.5t-2.5 -0.5q-3 0 -5.5 1.5t-5.5 3.5q-5 4 -10 6.5t-8.5 6.5t-5.5 9t-2 12zM124 140l2 2q3 -2 4.5 -6t2 -8.5
t0.5 -8.5v-7q3 -3 7.5 -2.5t6.5 0.5q3 0 8 -0.5t11 -1t11 -0.5h7q1 -1 1.5 -2t0.5 -2q0 -2 -0.5 -3t-3.5 -1h-49q0 -6 2.5 -9t7.5 -4t10.5 -2.5t10.5 -4.5q4 -3 5 -7t1.5 -8l1 -8t3.5 -7v-11v-5.5v-7.5t-1 -7.5t-4 -3.5h-1l-0.5 1t-1.5 1q0 14 -1 26.5t-6 22t-14.5 14.5
t-24.5 5q-10 0 -17 -1.5t-12 -6t-8 -11.5t-5 -16q0 -2 -1 -6t-1.5 -8.5t-1 -8.5t-0.5 -6h-1h-1q-2 0 -2.5 2.5t-0.5 4.5v2v7.5t0.5 9t1 8l0.5 3.5q0 10 4.5 15.5t9.5 9.5t11.5 6t11.5 3.5t8.5 2.5t3.5 3v3.5t-2 2.5t-5.5 0.5t-8 1t-8.5 0.5h-6h-12q-2 0 -5 0.5t-6 0.5
t-5 0.5l-2 0.5l-2 2q1 2 3.5 3.5t5.5 1.5h2h4.5h4.5h3q7 0 14.5 -1t14.5 -1h8q1 1 2 3l1.5 3t0.5 4t0.5 6.5t0.5 6.5v4zM95 45q0 6 2 11t5 8.5t7.5 5.5t10.5 2q13 0 22 -8t9 -22q0 -6 -2 -10.5t-5.5 -8t-8.5 -5t-10 -1.5q-7 0 -11 2t-7 5.5t-5.5 7t-6.5 6.5v4v3zM102 46
q0 -5 2 -8.5t5.5 -5.5t7.5 -3t8 -1q6 0 9.5 1.5t7.5 6.5v7q0 11 -5.5 15.5t-15.5 4.5q-7 0 -13 -4t-6 -13zM117 46q0 4 1.5 5.5t5.5 1.5q2 0 3 -1.5t1.5 -4t0.5 -4v-2.5h-4t-4 0.5t-3 1.5t-1 3z" />
</svg>
