<?xml version="1.0" standalone="no"?>
<!DOCTYPE svg PUBLIC "-//W3C//DTD SVG 1.1//EN" "http://www.w3.org/Graphics/SVG/1.1/DTD/svg11.dtd" >
<svg xmlns="http://www.w3.org/2000/svg" xmlns:xlink="http://www.w3.org/1999/xlink" version="1.1" viewBox="-10 0 266 256">
   <path fill="currentColor"
d="M46 130v8.5t0.5 9.5t1.5 9.5t3 8.5q1 2 4 3.5t6 2.5t5 3t2 5v69q0 2 2.5 2h2.5q2 0 3.5 -0.5t2.5 -2.5q0 -1 0.5 -3t0.5 -5v-4v-3q0 -6 -1 -12t-1 -12q0 -4 0.5 -7.5t4.5 -6.5q6 -4 7.5 -6.5t1.5 -5v-5t3 -6.5q2 -2 6 -4.5t5 -4.5q0 -1 1 -3t1.5 -4t1.5 -3.5t1 -2.5
q0 -2 0.5 -6t0.5 -9t0.5 -9t0.5 -6t-0.5 -7.5t-0.5 -11.5t-0.5 -11.5t-0.5 -7.5l-1 -2.5t-1.5 -5t-1.5 -5l-1 -2.5q-1 -2 -2 -3.5t-2.5 -3t-2.5 -3t-1 -4.5v-2q0 -1 0.5 -6t1.5 -10.5t1.5 -10.5t0.5 -6v-1q0 -4 -4 -4h-2.5t-1.5 2q-1 8 -2.5 15t-1.5 15q0 6 1.5 11t3.5 9.5
t4.5 9.5t3.5 11q2 8 2 14v16v4v6.5v6.5v4t-0.5 3t-1 4.5t-1 4.5t-0.5 3l-0.5 1t-1 2.5l-1 3t-1.5 1.5l-0.5 -0.5l-0.5 -0.5l-1 -0.5l-1 -0.5q2 -18 0 -35.5t-1 -35.5q-1 -2 -3 -4.5t-4 -2.5t-2.5 1.5t-0.5 2.5v3v1q0 18 1.5 35t1.5 36v0v5t-0.5 5.5t-0.5 4.5v2l-0.5 1.5
t-1 3.5t-1.5 3.5t-2 1.5h-1q-1 0 -2 -1.5t-2 -2.5v-6.5t-0.5 -9l-1 -9t-0.5 -5.5v-65q0 -2 -1 -3.5t-3 -1.5q-1 0 -2 0.5t-1 3.5v75q0 1 -1.5 1.5t-2.5 0.5h-1l-3.5 -3.5t-2.5 -3.5q-2 -10 -2 -18.5v-18.5q0 -9 0.5 -18.5t2.5 -18.5q4 -6 7.5 -10t6 -8t4 -9t1.5 -12
q0 -2 0.5 -6.5t0 -9t-2 -8t-5.5 -3.5t-4 4q0 5 1 10t1 11v13q-1 3 -3 6t-4.5 5.5l-5 5t-3.5 4.5q-3 3 -4 10.5t-1 16v16.5v12zM103 210q0 3 1 4t4 2h14q21 0 43 -0.5t42 -2.5q2 0 3.5 -1.5t1.5 -3.5t-1 -3t-2.5 -1.5t-3.5 -0.5h-3q-6 0 -11.5 1t-12.5 1h-10q-1 0 -2 -3
t-1.5 -7l-1 -8t-0.5 -5v-6q1 0 4 -0.5t4 -0.5q2 0 6 -0.5t8.5 -0.5h8.5h5q2 -2 2 -3v-2v-2.5t-2 -2.5h-2h-3q-10 0 -20 2t-20 3h-4h-7h-6h-4h-2.5t-3.5 0.5t-4 0.5h-2q-2 1 -2 2v2t1.5 2t3 1h3.5h3q4 0 8 -1t9 -1q2 0 3.5 3t2 6t0 6t-0.5 4v5v3l-1 3l-2 0.5t-4.5 0.5h-5.5
h-4q-2 0 -6 0.5t-9 0.5q-4 0 -8 -0.5t-6 -0.5t-2.5 1.5t-0.5 2.5zM149 151v2q0 2 0.5 3.5l1 3t1.5 1.5t2.5 -1t2.5 -2v-6v-8v-9v-6v-2t0.5 -4t0.5 -3.5v-2.5q1 -4 3 -7.5t3.5 -7.5t2.5 -7.5t1 -7.5q0 -10 -3 -19t-7 -17v-1v-1l2 -1q1 -1 2 -1.5l1 -0.5q3 1 7 5t7.5 9.5
t5.5 10.5t2 8q0 7 -1.5 14l-3 14l-3 14t-1.5 14v8t1 7t3.5 5t6.5 2v-2v-4v-3.5v-2.5l-0.5 -2t-0.5 -4.5t-0.5 -5l-0.5 -2.5q0 -6 2 -12t4.5 -12.5t4 -12.5t0.5 -12q0 -5 -2.5 -10t-5 -9.5t-4.5 -7.5t-2 -6v-1q0 -1 1 -2.5l1 -1.5h20q0 -6 -1.5 -7.5t-6.5 -1.5h-3l-2 0.5
l-4 1l-4 1l-2 0.5h-4h-8h-7h-4q-6 0 -11.5 1t-11 1.5l-11 1t-11.5 -0.5l-4 4v0q0 3 2 4t4 1t4 -0.5t3 -0.5q3 1 5 3.5t3 6t2 6.5t3 4q0 1 0.5 2.5l0.5 1.5v17q-5 9 -7 20.5t-2 21.5v3v4v3v2v2.5t1 5t2 4.5t2 2q3 0 3.5 -2t0.5 -3q0 -6 -0.5 -12.5t-0.5 -12.5t1.5 -11.5
l3 -11l3 -11t1.5 -11.5q0 -8 -2.5 -16t-2.5 -16q0 -2 1.5 -2.5t3.5 -0.5h3t2 1q4 8 6.5 16t2.5 16q0 9 -2 17t-5 16q-1 8 -1.5 18t-0.5 19z" />
</svg>
