<?xml version="1.0" standalone="no"?>
<!DOCTYPE svg PUBLIC "-//W3C//DTD SVG 1.1//EN" "http://www.w3.org/Graphics/SVG/1.1/DTD/svg11.dtd" >
<svg xmlns="http://www.w3.org/2000/svg" xmlns:xlink="http://www.w3.org/1999/xlink" version="1.1" viewBox="-10 0 266 256">
   <path fill="currentColor"
d="M69 196q1 1 4 2t6 2.5t5.5 2.5t3.5 2q1 0 2.5 0.5l1.5 0.5h22q1 0 1.5 1.5t0.5 3.5t1 4t1 3q1 0 2.5 2t3 3.5t3.5 3t3 2.5q2 3 6 6.5t8.5 7t8.5 6t8 2.5q2 0 3 -1t1 -4q1 -2 -3.5 -5t-10 -5.5t-10 -5.5t-4.5 -6v-1l1 -2.5t2 -4.5l2 -4t2 -3q0 -1 0.5 -1.5l0.5 -0.5h32
q1 -4 3.5 -6t4.5 -4t3.5 -4t1.5 -7t-0.5 -9t-1.5 -9q-2 -2 -3 -5t-4 -4q-1 -1 -2.5 -2t-3.5 -2t-3.5 -2l-1.5 -1q-2 -1 -4.5 -1.5t-4.5 -1.5l-4 -2t-3 -4t-1 -5.5t-0.5 -4t-1.5 -2t-5 -0.5q0 9 2.5 14.5t6.5 9t9 5t9 3.5t7 4.5t3 7.5q0 14 -8 20t-20 6h-5q-2 -1 -2 -1.5
v-1.5v-2q0 -1 0.5 -3.5t0.5 -5t0.5 -5t0.5 -3.5v-1v-2q0 -1 -1 -5t-1 -5t-1 -1.5t-2 0.5l-1 1t-1 2v19q0 3 -1 7.5t-2.5 9t-4 8t-5.5 3.5q-4 0 -6.5 -6.5t-4 -15t-2.5 -16t-2 -9.5q0 -2 -0.5 -4.5t-0.5 -3.5l1 -1.5t2 -3.5l2 -4l1 -2v-1.5v-2.5v-4q0 -2 -0.5 -4t-2 -4
t-3.5 -2v1q-1 0 -2 1l-1 1v4t-0.5 5t-0.5 5.5v3.5q-1 2 -2.5 3t-3.5 1.5t-4 0.5t-3 1q-14 4 -21 12.5t-7 22.5v3zM81 183q0 -4 2 -7.5t5 -6.5t7.5 -4.5t8.5 -1.5q1 0 2.5 1t1.5 2v7.5t1 6.5t1.5 6.5t0.5 7.5q0 2 -1.5 4t-2.5 3h-1q-4 0 -8.5 -1t-8 -3.5t-6 -5.5t-2.5 -8z
M127 99v33l0.5 0.5l0.5 0.5h1q2 0 3 -1t2 -3t1 -4v-3v-22t-4 -22q-1 -3 -4.5 -4.5t-7.5 -3t-6.5 -4t-2.5 -6.5v-2l7.5 -2.5t8.5 -3t6.5 -4t2.5 -6.5v-9t-1 -12t-3 -10t-6 -4h-1.5t-1.5 1v15q-1 0 -2.5 0.5t-3.5 1.5l-4 2t-6.5 2t-9.5 1.5t-11 2t-10.5 2.5t-8 2t-3.5 3
q0 3 3.5 3.5t6.5 0.5t6 -1l6 -2l6 -2t6 -1q5 0 5 5v2q0 2 -0.5 5l-0.5 3l-40 8q-3 1 -3 5q0 2 1.5 2.5t4.5 0.5q4 0 8 -1.5t8 -2.5t8 -2.5t8 -1.5q1 0 5.5 3.5t9 7.5t8 7.5l3.5 3.5zM190 48v84l0.5 0.5l0.5 0.5h0.5h0.5q3 0 4.5 -3t1.5 -5v-78v-4t-1 -4t-3 -3.5t-4 -1.5
l-40 1q-2 0 -2.5 1t-0.5 2q0 3 2 3.5t5 1t5 1.5t2 4q0 17 -1.5 33t-1.5 33v7l3 4h1q2 0 3.5 -1.5t1.5 -3.5q-1 -16 -0.5 -35t1.5 -35q0 -1 0.5 -3t1 -2.5l1 -1l0.5 -0.5h13zM77 86q-2 0 -3.5 0.5t-1.5 2.5v28q0 3 2 6t4 4h11h3h6h6t4 -1q2 -1 3 -5.5t1 -9.5v-10v-7v-8
q0 -1 -1 -2l-1 -1q-4 -1 -4 1t-0.5 5t-3.5 5.5t-11 2.5h-4h-3q-2 -1 -2.5 -3l-1 -4t-1 -3t-2.5 -1zM79 109q0 -1 0.5 -2t1.5 -1t5 -0.5t5 -1.5h1q5 0 8.5 1.5t3.5 6.5q0 6 -2.5 7t-8.5 1q-5 0 -9.5 -2.5t-4.5 -8.5zM108 44q0 -13 14 -13v0l2 2l1 1v11q0 1 -1.5 1.5t-3.5 1
t-4 0.5h-3q-5 0 -5 -4z" />
</svg>
