<?xml version="1.0" standalone="no"?>
<!DOCTYPE svg PUBLIC "-//W3C//DTD SVG 1.1//EN" "http://www.w3.org/Graphics/SVG/1.1/DTD/svg11.dtd" >
<svg xmlns="http://www.w3.org/2000/svg" xmlns:xlink="http://www.w3.org/1999/xlink" version="1.1" viewBox="-10 0 266 256">
   <path fill="currentColor"
d="M111 195q0 1 0.5 4l1 6t0.5 6t1 3q4 10 12 17t18.5 11.5t21.5 7t21 2.5q0 -3 -6 -6t-14 -5.5t-15.5 -4.5t-10.5 -5q-1 -2 -4 -4.5t-3 -3.5v-4l0.5 -1t2 -2.5t3 -2.5t1.5 -2q3 -2 4 -3t2 -1.5t2 -2l3 -4.5h22q1 -3 4.5 -3.5t7 -1.5t6 -4.5t2.5 -12.5q0 -7 -2.5 -11.5
t-6.5 -9t-8 -8t-8 -8.5q-1 -1 -2 -3l-2 -4t-2.5 -3.5t-4.5 -1.5q0 8 4 13.5l8 11l8 11t4 13.5q0 10 -6 13.5t-15 3.5q-1 0 -2.5 -0.5l-1.5 -0.5q-1 -11 -3.5 -22.5t-9.5 -20.5v-1v0q-1 0 -1 1l-0.5 0.5t-1.5 0.5v1q0 3 1 6.5t2.5 7.5t2.5 8t1 8v2v3t-0.5 3t-0.5 2
q-1 3 -2.5 6t-4 6t-5.5 5t-7 2t-6 -3.5t-2.5 -8t0 -8.5t0.5 -7q0 -7 0.5 -14t0.5 -15l0.5 -2.5t-1.5 -2.5q-1 0 -2 1.5t-1 2.5q-1 2 -1.5 7.5t-1.5 11.5t-2 11.5t-1 7.5v2zM79 184q2 3 3.5 5.5t3.5 4t4.5 3t7.5 1.5h5q0 -1 0.5 -1.5l0.5 -0.5l0.5 -0.5l0.5 -0.5
q0 -2 -3 -2.5t-6 -2t-5.5 -5.5t-2.5 -12t4 -14t8.5 -11t8.5 -10t4 -12h-5q-3 6 -6 10t-6.5 7t-6.5 5.5t-5.5 6.5t-3.5 9t-1 12v8zM61 114q0 3 4 3h130q1 0 2.5 -1.5t1.5 -3.5q0 -1 -2 -1.5t-4.5 -1t-4.5 -0.5h-2q-1 0 -4 -1.5t-5.5 -2.5t-5.5 -2.5t-4 -2.5q-3 -1 -6.5 -3
t-7.5 -4t-7.5 -3.5t-7.5 -1.5v0q0 -2 2 -3.5t4 -3.5t4.5 -3t3.5 -2q1 0 3 -1.5t4 -3.5t4 -3.5t3 -2.5q2 -1 3.5 -1h4.5h3.5t6 -0.5t6 -0.5h4.5q1 -1 1 -2v-2t-0.5 -2t-2.5 -1h-22l-1.5 -1t-2.5 -2l-1.5 -1t-2.5 -1.5t-2.5 -1.5t-1.5 -2q-1 -1 -4.5 -2.5t-7.5 -3t-6.5 -3
t-2.5 -2.5v-1l1 -1l4 -4t4.5 -4t4 -3.5l1.5 -1.5q1 0 3.5 -0.5t5.5 -0.5h6h3v-1v-2.5t-1 -1.5h-78l-9 2l-0.5 0.5l-0.5 0.5q0 2 1.5 3t4 1h4.5t3 1l1.5 1t3.5 2.5l4 3t3 2.5q2 1 4 2.5t2 3.5v1v1q-7 3 -10.5 6.5t-10.5 5.5q-1 0 -2.5 1t-3 2.5t-3 2.5t-2.5 1h-22v1.5t0.5 3
t1.5 1.5h28q1 0 2.5 2t3.5 4l3.5 3.5t2.5 1.5q1 1 3.5 2t4.5 2.5t4 2.5t2 3t-1.5 3.5t-3.5 3t-4 2t-4 1.5l-3 1t-6 2.5t-5.5 2.5t-3 1.5l-1.5 1.5l-2.5 2.5l-2.5 2.5l-1 1q-1 0 -3 0.5t-4.5 0.5t-4.5 0.5t-2 -0.5q0 1 -0.5 1.5zM86 109q1 0 4 -1.5t7.5 -3.5t10 -4t10 -4
t7.5 -3.5l3 -1.5h2h1q5 3 9.5 5t8.5 3.5t8.5 3.5t9.5 4q1 0 1.5 1l0.5 1q0 1 -0.5 1.5t-1.5 0.5h-78zM100 68l4 -1h4.5t10 -0.5t11.5 -0.5t10 -1h4q1 0 3 1t2 3q0 3 -2.5 5t-6.5 3.5t-7.5 2.5t-6.5 1q-6 0 -13.5 -4t-12.5 -9zM97 56l27 -15h1q3 0 7.5 1.5t9 3.5t8.5 4t7 3
l1 3v1v1q-4 1 -8 1h-7.5h-7.5h-8h-13h-4.5t-5 -0.5t-4 -0.5h-1.5zM112 26l3 -3h17l2 3l-2.5 2.5l-3.5 3.5h-2h-2q-4 0 -6.5 -1.5t-5.5 -4.5z" />
</svg>
