<?xml version="1.0" standalone="no"?>
<!DOCTYPE svg PUBLIC "-//W3C//DTD SVG 1.1//EN" "http://www.w3.org/Graphics/SVG/1.1/DTD/svg11.dtd" >
<svg xmlns="http://www.w3.org/2000/svg" xmlns:xlink="http://www.w3.org/1999/xlink" version="1.1" viewBox="-10 0 266 256">
   <path fill="currentColor"
d="M194 175v73q0 2 2 2h3q3 0 4 -1t2 -4v-14v-14v-1.5t-0.5 -3.5t-0.5 -3.5v-2.5v-2t0.5 -4.5t0.5 -4.5v-2v-2.5t-0.5 -3.5t-0.5 -3.5v-1.5q0 -1 -0.5 -6.5t-1 -12.5t-1 -14.5t-1.5 -11.5q0 -5 -2.5 -10.5t-8.5 -6.5q0 -1 -2.5 -1.5t-3.5 -0.5l-1.5 -1.5l-3 -3l-3 -3
l-1.5 -1.5v-1q0 -5 2.5 -8t6.5 -4.5t8.5 -2t8.5 -2t7 -4.5t3 -8v-8t-1 -10t-4 -8t-8 -3h-31q-2 0 -4 2t-3 2q1 2 2 3t3 1q1 0 2.5 -0.5t2.5 0.5q1 0 2.5 3.5t2 8.5t1 9.5t0.5 5.5v2v2l-9 10v18q0 2 2 4t5 4t6 3.5t4 2.5q5 2 6.5 7.5t2 12.5t1 13.5t1.5 10.5zM65 221v6
q0 5 0.5 9.5t2 7.5t4.5 3h1.5h2.5q2 -2 2 -4.5v-4.5q0 -5 -1 -10.5t-1 -10.5v-3v-4.5t0.5 -7l1 -7t0.5 -4.5q5 -6 9 -12t5 -15v-1.5v-3.5v-3v-2q0 -1 1 -2t2.5 -2t2.5 -2.5t1.5 -1.5t1.5 -2.5t2 -3.5q3 -8 4.5 -15.5t1.5 -15.5v-16v-16v-21q-1 -3 -3 -5l-4 -4t-3.5 -4
t-1.5 -6v-23q0 -2 -3 -2h-2q-3 0 -4.5 1t-1.5 4q-1 1 -1 5v4q0 4 0.5 10t3.5 9q1 2 3 3.5t3.5 3t2.5 3.5l2 4v5t0.5 6.5t0.5 6.5v4v3.5t-0.5 5.5t-0.5 6v3v32q-1 1 -2 2.5t-2 1.5q-3 0 -3 -2v-2v-2.5t-0.5 -3.5t-0.5 -3.5v-1.5q0 -4 -0.5 -12t-1 -17.5t-0.5 -18v-11.5
q0 -1 -1.5 -2l-1.5 -1h-1q-2 0 -2.5 1t-1 3t-0.5 3v3q0 15 1 30.5t1 30.5v9v6t-0.5 7t-1.5 9v3t-0.5 4t-1.5 4t-3 2h-0.5t-0.5 -1l-2 -8v-103q0 -3 -2 -3.5t-3 -0.5q-3 0 -4 1.5t-2 3.5v13q0 10 1 20t1 19v6v6t-0.5 6.5t-1.5 5.5h-2h-2.5t-1.5 -1q-1 -4 -1.5 -9l-1 -10
t-0.5 -10v-9l0.5 -2.5t0.5 -5v-4.5v-3q1 -2 0.5 -6.5t-0.5 -8.5t0.5 -8t3.5 -7q3 -4 6 -6.5t4.5 -5t2.5 -6t1 -9.5q0 -2 -0.5 -5t-1.5 -5.5t-3 -4.5t-5 -2l-0.5 0.5l-0.5 0.5q-2 3 -2.5 6.5t-0.5 7.5t0.5 7t0.5 5q0 1 -1 3.5t-2 3.5q-1 0 -3.5 2.5t-2.5 3.5q-3 4 -3.5 9
l-1 10t-0.5 10.5v9.5v12v17.5t1.5 17.5t4.5 12q2 1 3.5 1.5t3.5 0.5t3.5 1t2.5 3v8.5v13.5v13.5v8.5v3t0.5 4.5t1 4.5t0.5 3l-1 2.5t-1 3.5v2zM120 133q-1 0 -3 1t-2 3v49q0 1 0.5 3.5l1 5t2 4t3.5 1.5h28q2 0 3.5 -2t2.5 -4.5t1.5 -5t0.5 -3.5v-52q0 -1 -1.5 -1h-1.5
q-3 0 -4 1.5t-1 3.5t-1 5t-3 5t-6.5 3.5t-12.5 1.5h-2t-2 -1v-3v-4v-4.5v-2.5q0 -2 -1 -3t-2 -1zM123 170q0 -2 0.5 -5t4.5 -3h17q4 0 4.5 3.5t0.5 6.5q0 1 -0.5 4t-1.5 6.5t-2.5 6t-3.5 2.5h-16l-0.5 -3t-1 -6.5l-1 -7t-0.5 -4.5zM133 70q-2 0 -3.5 5t-2 11t-0.5 12t-1 8
q-1 3 -3.5 4.5t-5.5 3.5t-5 4.5t-2 7.5q4 0 7 -2t5.5 -4.5t5.5 -4.5t7 -2h1t1 1q5 3 9.5 6.5t10.5 3.5l1 0.5t2 0l2 -1l1 -0.5q0 -4 -4 -7t-8.5 -5.5t-8 -5t-3.5 -4.5v-28q0 -1 -2.5 -2l-2.5 -1h-1zM182 64q0 -3 2 -4t5 -1q5 0 6.5 3.5t1.5 8.5v4.5t-1.5 5t-3 4t-4.5 1.5
t-4 -3t-1.5 -6.5t-0.5 -7.5v-5zM136 59q3 0 5.5 1.5t4.5 3.5t4 4.5t3 3.5h1q3 0 4 -2t1 -5t-2.5 -5.5t-6.5 -4t-6.5 -3.5t-2.5 -5v-28q0 -2 -1.5 -4.5t-3.5 -2.5t-4.5 1.5t-2.5 3.5q0 1 0.5 2.5t1 4t0.5 4v2.5v3v4q0 5 -2.5 9t-5.5 7.5t-5.5 6.5t-2.5 7q0 1 0.5 2t3.5 1
q2 -1 4 -2.5t4 -3.5t4 -3.5t5 -1.5z" />
</svg>
