<?xml version="1.0" standalone="no"?>
<!DOCTYPE svg PUBLIC "-//W3C//DTD SVG 1.1//EN" "http://www.w3.org/Graphics/SVG/1.1/DTD/svg11.dtd" >
<svg xmlns="http://www.w3.org/2000/svg" xmlns:xlink="http://www.w3.org/1999/xlink" version="1.1" viewBox="-10 0 266 256">
   <path fill="currentColor"
d="M71 249q0 2 3 2t4.5 -3.5t1.5 -6.5v-41q9 -7 13.5 -17t3.5 -22q1 -2 4 -4t6 -3.5t6 -3.5t3 -6q1 -7 1.5 -13.5t0.5 -12v-11.5v-13v-4v-7v-7v-4q-2 -6 -4.5 -9.5t-5 -6.5t-4 -7t-1.5 -12v-7v-3t0.5 -4t0.5 -3.5v-2.5q0 -4 -1 -4.5t-3 -0.5q-3 0 -4.5 1.5t-1.5 5.5v28
q0 4 2.5 7.5t5.5 7t5.5 7t2.5 8.5v56q0 2 -0.5 5t-2 5.5t-3.5 4t-4 1.5h-2t-1 -2q-2 -16 -2.5 -33.5t0.5 -33.5q-1 -4 -3 -5q0 1 -2 2.5t-2 2.5v0v1v16t0.5 19t0.5 15.5v6.5l0.5 1.5t0.5 3.5v3.5v2.5v1v0v6.5t-0.5 7t-0.5 6v2.5q0 2 -0.5 4t-1.5 4t-2.5 3.5t-3.5 1.5h-0.5
h-0.5q-1 -8 -1.5 -17t-1 -18.5l-1 -19t0.5 -17.5q-1 -2 -1.5 -2.5t-0.5 -2.5v-1q0 -1 0.5 -5t0.5 -8.5t0.5 -8.5t0.5 -5v-2q0 -3 -1 -4t-4 -1h-1t-2 1v2t-0.5 4.5t-0.5 4.5v2v1v1v8.5t0.5 14.5t0.5 14.5v8.5v5v4t-3 2t-5.5 -3.5t-3.5 -6.5q0 -1 -0.5 -4.5l-1 -7l-1 -7
t-0.5 -4.5v-3v-2v-16t3 -15q4 -9 8 -13.5t7.5 -8.5t5.5 -9t2 -16v-3v-4v-3v-3q-1 -3 -2 -4t-4 -1q-1 0 -2 0.5t-1 2.5v27q0 6 -4.5 10.5l-9 9t-8.5 9.5t-4 12v40q1 3 1 6v6t0.5 5.5t2.5 5.5q1 0 2 1.5t2.5 3t3 2.5t2.5 2t2.5 1.5t3 0.5t3 0.5t1.5 2.5q0 1 0.5 5.5t0.5 9
t0.5 9t0.5 6.5v11.5v17.5v18.5v11.5zM121 232q0 3 2.5 3.5t5.5 0.5q8 0 16 -1.5t16 -1.5t15.5 1t14.5 1h17q1 0 2.5 -2t1.5 -3h1q0 -1 -0.5 -1h-0.5q0 -1 -0.5 -2.5l-0.5 -1.5h-28v-4.5v-6.5t0.5 -6t0.5 -4l-0.5 -1.5t-0.5 -3t-0.5 -2.5l-0.5 -1v-1v-1q0 -1 0.5 -3t0.5 -5
t0.5 -5.5t0.5 -3.5q1 -1 4 -1.5t5.5 -2t4.5 -3.5t2 -6v-18q0 -2 -1 -3.5t-2 -1.5l-1.5 -1l-3 -2t-2.5 -2t-2 -1h-3q-3 0 -5.5 -0.5t-5.5 -0.5h-4h-10.5t-11 1.5t-9 5t-3.5 10.5q0 6 2 10.5t4.5 7.5t4 4.5l1.5 1.5l4 30q-2 5 -2 10v9q0 2 -1.5 2.5t-2.5 0.5h-2.5h-2.5
t-3.5 0.5t-5.5 0.5t-5.5 0.5t-3.5 0.5q-2 0 -2 1v2zM161 224q-2 -9 -2 -14.5v-13.5v-11q2 -6 9 -6h2q3 8 3 17v18v5v5q0 2 -2 2h-3q-2 0 -3.5 -0.5t-3.5 -1.5zM144 155q0 -4 1 -6.5t3 -4.5q4 -1 6.5 -1t5 -0.5t5 -0.5h6.5t7.5 0.5t6 2t4 4t1.5 7.5t-3 7.5t-7 3.5t-9 1h-8
h-10l-9 -10v-1.5v-1.5zM125 112v1q1 0 1.5 0.5l0.5 0.5h14h14h1.5t3.5 -0.5t3.5 -0.5h1.5h4.5t7 0.5t7 0.5h4.5h2h1h4t6 -0.5t6 -0.5h4l1.5 -3t0.5 -2q0 -2 -1 -2.5t-2.5 -0.5h-2.5h-2q-8 0 -14 0.5t-14 1.5q-2 -2 -3 -3.5t-1 -3.5q0 -5 3.5 -6.5t8 -3.5t8.5 -5t4 -10v-45
q0 -1 -1 -3t-2 -2v0h-1q-1 0 -2.5 0.5l-1.5 0.5v49q0 1 -1.5 2.5t-3.5 3t-4 2.5t-3 1h-1l-1.5 -1t-1.5 -2t0.5 -4t0.5 -6v-6v-4q0 -3 0.5 -10t0.5 -14.5v-14.5v-10h-9q0 19 -0.5 36.5t-1.5 35.5q-1 2 -2 2v0q-9 0 -12 -4t-3 -12q-1 -6 -1 -11v-9.5t-0.5 -9.5t-1.5 -10
q0 -1 -0.5 -1.5t-1.5 -0.5v0h-1l-1.5 1.5l-1.5 1.5v6q0 4 -0.5 12.5t0.5 17t4 15.5t10 9l2 0.5t3.5 1t3.5 1t3 0.5q1 1 1 3.5v4.5v2v1l-3 2h-32l-1 1l-2 2l-0.5 0.5t-1.5 0.5v1z" />
</svg>
