<?xml version="1.0" standalone="no"?>
<!DOCTYPE svg PUBLIC "-//W3C//DTD SVG 1.1//EN" "http://www.w3.org/Graphics/SVG/1.1/DTD/svg11.dtd" >
<svg xmlns="http://www.w3.org/2000/svg" xmlns:xlink="http://www.w3.org/1999/xlink" version="1.1" viewBox="-10 0 266 256">
   <path fill="currentColor"
d="M119 247q0 3 1 4t4 1q4 0 6 -1.5t2 -6.5v-42q0 -2 1.5 -3.5t3.5 -2t4.5 0t3.5 0.5q0 9 1 16t1 16q1 1 2.5 2t2.5 2h13h12q1 0 3 -0.5t4 -1.5t3.5 -2t1.5 -3v-29q5 0 7 3.5t3 8t0.5 10t-0.5 8.5v12l-0.5 2t-0.5 3v1v0q1 3 2.5 4t3.5 1q3 0 4 -2t1.5 -5t0.5 -6v-4v-12
v-10.5t-0.5 -11.5t-0.5 -13q-1 -4 -1 -8.5t-1 -8t-3.5 -6t-7.5 -3.5q-1 0 -5.5 -0.5t-5.5 -0.5q-11 0 -22 2t-23 2q-2 0 -3 -0.5t-1 -2.5q0 -3 0.5 -7.5t4.5 -5.5q7 -3 16 -4t18 -1t18 0.5t16 0.5l1 -1l2 -2v0v-1l-2 -2l-1 -1q0 -1 -1 -1q-6 0 -12 1t-11 1q-3 0 -7 -1t-4 -5
q0 -3 3 -4.5l5 -2.5h3.5t5 -0.5t5 -0.5h3.5v-2v-2v-2.5t-3 -1.5h-1t-2.5 0.5t-2.5 0.5h-2l-2 0.5t-3 0.5q-4 0 -6.5 -0.5t-2.5 -4.5t2.5 -5.5t6 -2t7.5 -0.5h6l2 -2t1 -2q1 -1 3 -2l4 -2l4 -2l2 -1q0 -4 -4 -6t-8 -3.5l-8 -3t-4 -3.5t3 -2.5t6.5 -0.5t6.5 -1t3 -4
q0 -4 -4.5 -5t-10 -2t-10.5 -2.5t-5 -5.5v-1l0.5 -1t1.5 -1q8 1 14 1t10.5 -1.5t7.5 -6t3 -13.5q0 -2 -3 -2h-4q-3 0 -4 2t-1.5 4.5t-1.5 5t-4 2.5q-1 0 -4 0.5t-6 0.5t-6 0.5t-4 0.5h-2h-2t-1 -2v-25q0 -3 -2 -3.5t-3 -0.5q-3 0 -4.5 2.5t-1.5 5.5q0 5 1.5 10t1.5 10
q0 2 -2 3t-3 1q-4 0 -7.5 -1t-7.5 -2q-3 -1 -4 -3.5t-1.5 -5l-1 -5t-3.5 -2.5t-5.5 2.5t-2.5 5.5q0 6 2 9t4.5 4.5t6.5 2t8 2.5q2 0 4.5 2t4.5 1q-1 2 -6 6t-10.5 8.5t-10 8.5t-4.5 6q0 1 1 1h2q4 0 6.5 -1.5t5 -4t5.5 -4t6 -1.5h4q3 0 3 2q0 1 -1.5 2t-3 2.5t-3 2t-2.5 1.5
q-6 6 -9 10t-4 8.5t-1.5 10t-2.5 13.5v41q-5 2 -6 6.5t-1.5 9t0 9.5t-1.5 9v37q-1 0 -1.5 3l-0.5 3v2zM68 247q1 1 2 1.5t3 0.5q6 0 6 -7v-49q10 -9 14 -20t4 -25q8 -3 12 -10.5t5 -16.5t1 -18v-15v-24q-2 -7 -4 -12t-7 -10v-24l-1 -1.5t-1 -2.5l-0.5 -0.5l-0.5 -0.5
q-3 0 -5 2.5t-2 4.5q0 6 0.5 14t2.5 14q1 0 2 2.5l2 5t2.5 5t1.5 3.5v1v3v2.5v1.5q0 1 0.5 3t1.5 3v35q-1 2 -1.5 6l-1 8t-2 7t-3.5 3t-2.5 -0.5t-0.5 -2.5v-67q-2 0 -4.5 1t-2.5 4v51v6l-1 32q-1 2 -1.5 4.5l-1 5t-1.5 4.5t-4 2h-0.5h-0.5q-2 -27 -2 -53.5v-53.5
q0 -1 -1.5 -1.5t-2.5 -0.5t-2.5 0.5t-1.5 1.5v56q0 2 -1 5.5t-2 5.5q-4 -2 -5.5 -6.5t-2 -9.5t-0.5 -10.5v-9.5v-10q0 -6 1 -11.5t2.5 -11t4.5 -9.5q0 -1 2 -2.5t4 -3.5l4 -4l3 -3q3 -3 3 -6.5v-7.5v-5t-0.5 -5.5t-1.5 -5t-4 -2.5t-5 1.5t-2 4.5t1 5.5t1 5.5q0 6 -3 10l-6 8
t-6 7.5t-4 9.5q-1 10 -1.5 18.5t-0.5 17.5v8.5v10t0.5 10.5t3.5 8q0 1 2.5 2.5t4.5 3.5t4.5 4t2.5 4v38q-1 1 -1.5 2l-0.5 1v1v1q0 1 0.5 3t0.5 4t0.5 4.5l0.5 2.5v37zM154 218q0 -3 2.5 -4.5t6 -2.5t7.5 -1h6l3 3t1 4q0 2 -1 4t-3 2h-21q-1 0 -1 -2v-3zM151 192v-2
q0 -1 1 -2.5t2 -2.5t2.5 -2l1.5 -1q1 0 2.5 -0.5t2.5 -0.5q3 0 6.5 1t6 2t4.5 3.5t2 6.5q0 2 -1.5 6t-4.5 4h-22q-1 0 -1.5 -1.5t-1 -3.5t-0.5 -4v-3zM132 183q0 -4 2 -7t5 -4.5t6.5 -2t6.5 -0.5t4 0.5t1 3.5v1v1l-4.5 4.5t-5.5 4.5t-5.5 4t-5.5 2q-4 0 -4 -2v-5zM171 171
v-2q3 -2 6.5 -2h6.5q8 0 11 3t3 12q0 3 -0.5 4.5t-4.5 1.5q-2 0 -5.5 -2t-7.5 -4.5t-6.5 -5.5t-2.5 -5zM143 127q6 0 9.5 -0.5t8.5 -0.5h4q1 2 1 3v3t-1 4.5t-3 2.5h-24q0 -2 1 -6t4 -6zM140 117v-3.5t0.5 -3t1.5 -2.5t2 -1h21v12h-24q-1 0 -1 -1v-1zM146 97q0 -3 2 -5.5
t5 -4.5t6.5 -3t5.5 -1v16h-1.5t-3 0.5t-3.5 0.5h-3h-1h-5t-2 -3zM172 90v-1.5t1 -2.5q2 -1 4 -1q5 0 9 2t4 7v1v1l-13 3l-2 -2t-2 -3q-1 0 -1 -1.5v-2.5zM157 67q0 -2 2.5 -4t4.5 -2q1 0 3.5 0.5t5.5 1.5t5 2.5t2 2.5q0 2 -0.5 3t-1.5 1h-1l-2.5 -2.5t-3.5 -2.5h-1
q-2 0 -3.5 1.5t-1.5 3.5q-1 0 -3.5 -1.5t-3.5 -1.5q0 -1 -0.5 -1.5z" />
</svg>
