<?xml version="1.0" standalone="no"?>
<!DOCTYPE svg PUBLIC "-//W3C//DTD SVG 1.1//EN" "http://www.w3.org/Graphics/SVG/1.1/DTD/svg11.dtd" >
<svg xmlns="http://www.w3.org/2000/svg" xmlns:xlink="http://www.w3.org/1999/xlink" version="1.1" viewBox="-10 0 266 256">
   <path fill="currentColor"
d="M95 200v12t0.5 16.5t1.5 15t3 6.5t3.5 -0.5t2.5 -3.5v-2v-3v-4v-2v-10v-8.5t-0.5 -9t-0.5 -11.5q0 -3 2 -4.5t4.5 -1.5t6 -0.5t6 -1.5t4 -3.5t1.5 -7.5h-15q-7 0 -11 2t-6 6.5t-2 14.5zM149 176l0.5 1.5t0.5 3.5t0.5 3.5l0.5 1.5v5q0 6 1 15.5t2 18.5t1.5 15l0.5 6l1 4
h1.5h2.5q4 0 5.5 -1.5t1.5 -7.5q-3 -12 -4.5 -23.5t-2 -23.5t-0.5 -24v-24q1 0 2.5 -1l1.5 -1q3 2 7 6.5t8 9.5t7.5 10t6.5 8h0.5h1.5q2 0 5 -2t3 -5q0 -2 -1.5 -4.5t-4 -4.5t-4.5 -3.5t-3.5 -2.5t-4.5 -4.5t-7 -7.5t-7.5 -8t-4.5 -5v-1q0 -4 3.5 -7t8 -6t8.5 -6t4 -8
q0 -2 -0.5 -4t-2.5 -2q-3 0 -6.5 2.5t-6.5 5.5t-5.5 6t-4.5 5h-5l-0.5 -1.5t-1.5 -3.5t-2 -4.5t-2 -4.5l-2 -4t-1 -3.5v-3v-3.5v-3v-3q4 0 9 -0.5t11 -1t11 -1.5t9 -2v-1v-2q0 -5 -5 -5q-8 0 -16 2.5t-16 2.5q-4 0 -7 -2.5t-3 -7.5q0 -3 2.5 -5t6 -3.5t7.5 -3.5t7 -5
t5.5 -8.5t2.5 -14.5q0 -3 -1 -5.5t-5 -2.5q-2 0 -2.5 2t-0.5 5.5t-1 8t-2.5 8t-5 5.5t-9.5 2q-2 0 -3 -2t-1.5 -5t-0.5 -6v-5v-1t0.5 -2.5t0.5 -2v-1.5v-5q0 -5 -0.5 -6t-5.5 -1q-4 0 -5 1t-1 5q0 14 2.5 27.5t2.5 28.5l-0.5 1.5t-0.5 2.5q-1 0 -5 0.5l-8 1l-8 1t-6 0.5
q-3 0 -11 0.5t-16.5 1t-15.5 1.5t-8 2v1v2q0 2 0.5 4.5t3.5 2.5t6 -0.5t6 -1.5l6 -2t6 -1q1 0 7 -0.5t13 -1t13 -1t8 -0.5l1.5 -0.5t2.5 -0.5t2.5 -0.5l1.5 -0.5h1q2 0 5.5 6t6 14t4.5 16t2 11q0 12 -2.5 23t-2.5 22zM101 104q-1 0 -1.5 0.5l-1.5 1.5q-8 14 -18.5 25
t-21.5 23q-1 1 -2.5 4t-2.5 3q0 1 -0.5 4.5t-0.5 4.5q7 0 14 -6t13 -15t12 -17.5t12 -13.5q3 2 8 6t10.5 8t10 7.5t7.5 3.5q4 0 4 -6l-3 -3t-7 -6.5t-9 -8t-9.5 -7.5t-8 -5.5t-5.5 -2.5zM85 156q0 2 1 3.5t3 1.5h1l2 -0.5l4 -1t3.5 -1l1.5 -0.5q2 0 5 -0.5t6.5 -0.5
t6.5 -0.5t5 -0.5q0 -1 1.5 -2l1.5 -1v-1q0 -3 -2 -3.5t-4 -0.5h-8t-12 0.5t-11 2.5t-5 5z" />
</svg>
