<?xml version="1.0" standalone="no"?>
<!DOCTYPE svg PUBLIC "-//W3C//DTD SVG 1.1//EN" "http://www.w3.org/Graphics/SVG/1.1/DTD/svg11.dtd" >
<svg xmlns="http://www.w3.org/2000/svg" xmlns:xlink="http://www.w3.org/1999/xlink" version="1.1" viewBox="-10 0 266 256">
   <path fill="currentColor"
d="M162 244q0 1 1 2t2 1h1q3 0 5 -2.5t2 -6.5v-1v-1q-1 -1 -2 -4.5t-2 -8t-1.5 -8t-1.5 -4.5q-1 -9 -2 -20t-1 -21q0 -7 0.5 -12t1.5 -13l0.5 -0.5l0.5 -0.5q1 0 3 0.5l2 0.5l16 16l0.5 0.5l0.5 0.5q4 0 6 -2t2 -6q0 -5 -3.5 -8t-7.5 -4l-17 -21v-0.5v-0.5q0 -4 1.5 -7t4 -6
t4.5 -6t2 -6q1 -2 -1 -4t-3 -2q-2 0 -4.5 2.5t-4.5 5.5t-4 5.5t-3 3.5q-3 -3 -5 -6.5t-3.5 -8t-2.5 -9t-1 -7.5v-1q0 -1 1.5 -1.5l1.5 -0.5l44 -3q2 0 4.5 -2t2.5 -5t-2 -3.5t-4 -0.5q-9 0 -18.5 1.5t-18.5 1.5h-5.5h-3.5l-2 -2v-13l2.5 -0.5t3.5 -0.5t3.5 -0.5t5 -0.5
t5 -0.5t3.5 -0.5q5 -2 6.5 -6.5t1.5 -10.5q0 -3 -0.5 -4t-4.5 -1t-5 1t-1 3v4t-1.5 3.5t-5.5 3t-12 1.5v-17q0 -2 -2 -3t-4 -1t-3.5 1.5t-2.5 3.5v11q0 6 1 12t1 12q0 4 -4.5 6t-12 3t-16 1.5t-16.5 0.5h-15h-9q0 1 -0.5 2t-1.5 2v1q0 1 1.5 2t3.5 1h3h3h6q2 0 5 -1h53l1 3
t2 7t2.5 8t1.5 6l0.5 2l1 4t1.5 4l1 2q0 2 1.5 4.5t2.5 5t2 4.5t1 4q0 13 -2.5 25.5t-2.5 25.5v3q0 1 1 1q0 7 1 14.5t2 16t2 16.5t4 14zM88 243l1 1h1q1 0 2 -1t2 -2.5t2 -2.5t1 -2l0.5 -2.5t0.5 -5t0.5 -5t0.5 -3.5v-3v-6v-7v-3v-7.5v-12.5t0.5 -12.5t0.5 -7.5v-3.5v-5.5
v-6v-4l3 -4h12l1.5 -1.5l2.5 -2.5q0 -1 0.5 -2l0.5 -1q0 -1 -0.5 -1.5l-0.5 -0.5h-7q-8 0 -15.5 1.5t-16.5 2.5v6q1 0 4.5 0.5t4.5 0.5q0 1 0.5 1.5t1.5 0.5v20q0 19 -1.5 37.5t-1.5 37.5v6zM54 133q0 4 0.5 9.5t2.5 11t5.5 9t8.5 3.5h4q2 0 4.5 -0.5t4.5 -1.5t2 -3
l-0.5 -1.5t-1.5 -1.5q-10 -1 -15 -5.5t-5 -15.5q0 -9 2.5 -14.5t7 -8.5t11 -4t14.5 -1h9t9 1.5t7 5t4 9.5l-1 2.5t-1 3.5v2v4v4v3q-1 4 -3.5 5t-6 2t-6 2.5t-2.5 5.5v2.5t2 1.5q9 0 14 -2.5t7.5 -7t3.5 -11t1 -14.5v-3t-0.5 -4t-0.5 -3v-3q-2 -5 -5.5 -8t-8.5 -4.5t-10.5 -2
t-9.5 -1.5v-19l-1 -0.5t-1 -1.5h-1h-1q-3 4 -4 9.5t-1 10.5q-1 2 -4.5 3l-7 2t-6.5 1.5t-5 1.5l-6 6t-5 5.5t-3 6t-1 9.5z" />
</svg>
