<?xml version="1.0" standalone="no"?>
<!DOCTYPE svg PUBLIC "-//W3C//DTD SVG 1.1//EN" "http://www.w3.org/Graphics/SVG/1.1/DTD/svg11.dtd" >
<svg xmlns="http://www.w3.org/2000/svg" xmlns:xlink="http://www.w3.org/1999/xlink" version="1.1" viewBox="-10 0 266 256">
   <path fill="currentColor"
d="M155 166q0 3 1 10t3 16.5t4.5 20t5.5 19t6.5 14t7.5 5.5q2 0 3 -0.5t1 -3.5t-1 -6.5t-3 -7t-4 -7.5t-3 -7t-2 -7.5t-2.5 -9t-2.5 -8.5t-2 -7t-0.5 -5.5t0.5 -4.5q0 -3 -0.5 -5.5t-2.5 -4.5v-27l0.5 -1t1.5 -2v0h1l2.5 2.5l2.5 2.5l23 12h1h2q2 0 3.5 -0.5t1.5 -3.5
q0 -4 -5.5 -7.5t-12 -7.5t-12 -8.5t-5.5 -11.5q0 -6 2.5 -11l5 -10t5 -10.5t2.5 -10.5q-5 0 -7.5 2t-4 5t-2.5 7t-2 7t-3 5.5t-5 2.5q-2 0 -3 -1.5t-3 -3.5l-2.5 -7.5t-3 -9.5t-2.5 -9.5t-1 -8.5q0 -2 0.5 -3t2 -1h3h3.5h4.5t7 -0.5t6.5 -0.5h4t3 -0.5t4.5 -0.5h5.5h3
q0 -5 -4 -6.5t-9 -1.5l-1.5 0.5l-1.5 0.5h-3.5t-5 0.5t-5.5 1l-3 0.5q-1 0 -2.5 -0.5t-3.5 -0.5t-4 -0.5l-2 -0.5q-1 -1 -1.5 -2l-0.5 -1v-1v-1l0.5 -0.5t1.5 -0.5q5 0 12 -0.5t11 -6.5q0 -1 0.5 -3t1 -5t1 -5.5t0.5 -3.5v0v0q0 -3 -1.5 -4.5t-4.5 -1.5t-3.5 1.5t-0.5 4.5
t0.5 6t-0.5 5.5t-3 4t-7 1.5q-2 0 -5 -0.5t-3 -3.5v-17q0 -3 -1.5 -4t-4.5 -1q-2 0 -3.5 1t-1.5 3q0 7 1 14t1 14v7q-2 1 -4.5 2t-4.5 1h-16t-14 0.5l-14 1t-16 0.5v0l-1.5 -0.5t-2.5 -0.5t-2.5 -0.5l-1.5 -0.5h-1q-2 0 -3.5 1.5t-1.5 3.5v2.5t1.5 1.5h5.5h5q13 0 25.5 -1
t24.5 -1h19q3 2 4 5t1.5 6.5t0.5 7.5q0 3 1 5q0 3 1.5 7t3 8.5t3.5 8t4 5.5q0 1 1 2t2 2.5t1.5 2.5t1.5 1v9q0 9 -1.5 18.5t-1.5 18.5zM89 171q4 0 5 3t1 7v66q2 0 4.5 -1t3.5 -3v-4v-4.5v-5.5v-3q0 -11 -1 -21t-1 -20q0 -6 0.5 -9t2.5 -4.5t5 -1.5h9h5t4 3q0 8 1.5 16
t3 15.5l3 15t3.5 15.5q1 2 2 2.5t3 0.5q4 0 4 -4q0 -1 -0.5 -4t-1.5 -5.5t-1.5 -4.5t-0.5 -4q-3 -15 -5 -30.5t-5 -31.5v-74q0 -1 -1.5 -2t-2.5 -1h-1h-1l-1.5 1t-1.5 2q0 4 0.5 8.5t-1 8t-4.5 6t-8 2.5q-2 0 -4.5 -0.5t-3.5 -3.5v-3.5v-6.5v-5.5v-4.5q-1 -6 -6 -6
q-3 0 -3.5 2t-0.5 5q0 7 1 14.5t1 15.5v4v5v6.5v3.5q-2 3 -5.5 3h-6.5h-5l-5 -4v-49q0 -2 -1 -4.5t-4 -2.5h-2t-2 1q1 36 -0.5 71.5t-8.5 69.5q0 4 -1.5 7t-1.5 7q0 2 1 3t3 1q3 0 4.5 -2t2.5 -5q0 -2 1 -9t2.5 -14.5t2.5 -14.5t1 -10l1 -2.5t1 -3.5q1 0 3.5 -0.5t5 -0.5
t5 -0.5t3.5 -0.5zM72 162v-15l5 -5h16l2 1v3v4v7t-2 7l-0.5 0.5l-0.5 0.5h-17zM103 164v-22l1.5 -0.5t2.5 -1.5h8h8q1 1 2 3.5t1 5v4.5v4v3v2l-2 2h-21zM103 117q0 -3 1.5 -4t3.5 -1.5t5 -0.5h5q6 0 6 6v5q0 2 -0.5 4.5t-1.5 4.5t-3 2q-6 0 -9 -0.5t-4.5 -2.5t-2 -5t-0.5 -8
z" />
</svg>
