<?xml version="1.0" standalone="no"?>
<!DOCTYPE svg PUBLIC "-//W3C//DTD SVG 1.1//EN" "http://www.w3.org/Graphics/SVG/1.1/DTD/svg11.dtd" >
<svg xmlns="http://www.w3.org/2000/svg" xmlns:xlink="http://www.w3.org/1999/xlink" version="1.1" viewBox="-10 0 266 256">
   <path fill="currentColor"
d="M146 248q0 2 1 2.5t2 0.5q3 0 4 -2t4 -4q5 -6 8 -13t4.5 -15t2 -16t0.5 -15v-1v-5.5t-0.5 -9.5t-1 -9t-0.5 -6v-2q0 -2 0.5 -4l1 -4t1.5 -3.5t3 -1.5v0q1 0 2.5 1t2.5 2t4 3.5l6 5l6 5t4 3.5q2 0 2.5 -1t0.5 -2v-1v-1q-2 -3 -5.5 -6.5t-7 -8t-6 -8.5t-2.5 -8v-3
q4 -4 8.5 -9t4.5 -12h-3l-12 12h-0.5h-0.5h-3t-2 -2l-8 -15v-0.5v-0.5q0 -3 2.5 -4.5t5.5 -2t7 0t7 0t5 -1.5t2 -4v0v0q0 -1 -1 -1.5t-2 -0.5h-24q-2 0 -3 -1.5l-2 -3t-1 -3v-2.5q0 -3 4.5 -3.5t10 -1.5t10 -3.5t4.5 -7.5v-19l-0.5 -1t-1.5 -2h-1q-2 0 -3 4t-3.5 9t-6.5 9
t-11 4h-2t-2 -1v-8.5t-0.5 -11t-2 -9.5t-5.5 -4q0 8 1 15t1 14v1v1t-0.5 2.5t-0.5 2.5v1q0 1 0.5 3.5l0.5 2.5v5q0 2 -0.5 4t-2.5 4q-7 1 -12.5 1.5t-12.5 0.5h-11q-2 -2 -2 -4v-3q0 -6 1.5 -8t4 -2.5t6.5 -0.5t8 -1v-1v-1q0 -4 -3 -4.5t-6 -0.5q-4 0 -7 -1t-3 -5v-3t2 -3
l21 -3q2 0 2 -1v-2t-0.5 -2.5t-2.5 -1.5h-18q-1 0 -2.5 -1.5t-2.5 -1.5v-7t-1 -6t-2.5 -5t-5.5 -2v21l-2 3l-3.5 0.5t-8 1t-7.5 0.5q-2 0 -3.5 -0.5t-3.5 0t-3.5 1t-1.5 3.5q0 1 1 2q3 0 9 -0.5t12 0t10 3t4 8.5q0 2 -3.5 3t-8.5 1t-9.5 0.5t-7.5 1.5q-1 0 -2.5 0.5l-3 1
t-2.5 1l-1 0.5v4h33q1 0 1.5 1t1 2.5t1 2.5t0.5 2q0 4 -4 6t-10 3t-13 1h-13t-10 1.5t-4 4.5q0 1 0.5 2t2.5 1h9q9 0 18 -1t19 -1q3 0 3 3v5q0 6 -4.5 8.5t-10.5 3t-12.5 0t-10.5 0.5q-2 2 -3 5l3 1h35l3 3v22h-14q-2 0 -3 -2.5t-1.5 -5.5t-1.5 -5t-4 -2v0q-1 0 -1.5 0.5
l-0.5 0.5v14q0 3 2.5 4t5.5 2t5.5 2t3.5 3h7q7 0 12 -1t8.5 -3.5t5 -7.5t1.5 -12q-3 0 -4.5 1.5t-3 4t-3 4t-5.5 1.5v-20q0 -3 4 -4t8.5 -1.5t8 -1.5t3.5 -4v-1l-0.5 -1l-0.5 -1h-20q-1 0 -2 -1.5t-1 -3v-2.5v-2v-4.5t3 -2.5q9 0 17 -2t17 -2q2 0 3.5 0.5t3.5 1.5q0 6 1 10
t2.5 8l3 8t4.5 10v1v1v1v1l-1 1.5t-1.5 2.5t-1.5 2.5l-1 1.5q-3 6 -4 12t-1 13q0 10 1.5 19.5t1.5 19.5q0 7 -1 12.5t-2.5 10.5t-4 9.5t-6.5 11.5q-1 0 -1.5 1t-0.5 2v0zM74 189q0 14 9 20.5t22 6.5q5 0 11 -1.5t10.5 -4.5t7.5 -7.5t3 -10.5q0 -16 -6.5 -22.5t-21.5 -6.5
q-12 0 -20 4t-14 13q-1 1 -1 4v5zM85 187q0 -7 4.5 -12t13.5 -6q5 0 9 1t7.5 3.5t5 6t1.5 7.5q0 6 -1.5 9t-5 5t-7 3t-8.5 1q-8 0 -13.5 -4t-5.5 -14zM99 185q0 3 0.5 5t3.5 2t5.5 -1t2.5 -4q0 -7 -6 -7h-3.5t-2.5 2v1.5v1.5z" />
</svg>
