<?xml version="1.0" standalone="no"?>
<!DOCTYPE svg PUBLIC "-//W3C//DTD SVG 1.1//EN" "http://www.w3.org/Graphics/SVG/1.1/DTD/svg11.dtd" >
<svg xmlns="http://www.w3.org/2000/svg" xmlns:xlink="http://www.w3.org/1999/xlink" version="1.1" viewBox="-10 0 266 256">
   <path fill="currentColor"
d="M159 174q0 15 4.5 31t13.5 28q1 2 3.5 5t4.5 6t3.5 5l1.5 2h5q0 -5 -2.5 -9t-5.5 -7.5t-6 -7.5t-4 -8q-5 -14 -7 -27t-2 -28v-21q0 -2 2.5 -4.5t4.5 -2.5t4.5 3t4.5 6.5t4 7.5t4 5q0 1 1.5 2t2.5 2t2.5 2l1.5 1q3 1 3.5 -1t0.5 -3q0 -2 -0.5 -3.5t-1.5 -3.5
q-8 -7 -13.5 -15.5t-10.5 -18.5q1 0 2 -2l1 -2q2 -2 4.5 -6t5.5 -8t5 -7t1 -4l-1 -1.5t-2 -1.5q-1 2 -3.5 5.5l-5 7t-5 6t-4.5 2.5q-3 0 -5 -6t-3.5 -13.5t-2 -14.5t-0.5 -9v-2t2 -2l33 -3q2 0 3.5 -1.5t1.5 -2.5q0 -2 -1.5 -2.5t-3.5 -0.5q-6 0 -12 1t-13 1h-10
q-1 -1 -1 -2v-2v-3t1 -2l19 -3q3 0 4.5 -3.5t2 -7l1 -7t0.5 -4.5q0 -2 -0.5 -3.5t-3.5 -1.5q-1 0 -2 3t-2 7t-3.5 7t-6.5 4q-1 0 -4 -0.5l-3 -0.5v-25l-0.5 -1t-1.5 -2v0q-4 0 -5 3t-1 6q0 2 -0.5 6.5t-1 10.5t-1 11t-0.5 7l-1 2t-2 2l-47 3l-1 1t-1 2v1v0q0 1 0.5 1.5
l0.5 0.5h50l3 5q0 2 0.5 5.5t0.5 7.5t1 7.5t1 4.5q1 7 4 14.5t3 14.5v2v1l-1 1t-2 2.5t-2 2.5l-1 1q-2 5 -2.5 10t-0.5 10v11v10zM48 235v3q4 0 9 -3.5t8 -5.5q3 -5 6.5 -11.5t6.5 -13t5.5 -13.5t4.5 -13q4 -20 5.5 -42t1.5 -43q0 -8 -0.5 -17.5t-1.5 -17.5q0 -2 -1.5 -7.5
t-3.5 -12t-4.5 -11t-4.5 -4.5q-1 0 -1.5 1.5t-0.5 2.5q0 4 1 7.5l2 7t2 7.5t1 7v6q-1 2 -3.5 2.5t-4.5 0.5h-2.5t-1.5 -3q0 -1 -0.5 -3l-1 -4t-0.5 -4.5t-1 -2.5q-1 -2 -2 -2.5t-3 -0.5q-4 0 -4 2q0 8 2.5 15.5t2.5 15.5v0.5v1.5l-1 3.5t-2 7.5t-2 7.5t-1 4.5v2v2t2 1
q5 -4 7 -8t2 -8t0.5 -8t3.5 -9l0.5 -0.5l0.5 -0.5h11l0.5 2t1 5t1.5 4v2q0 2 -1 4.5t-1 4.5q0 3 1 5.5t1 5.5v0q-1 1 -1.5 4l-0.5 3q0 2 -0.5 4.5t-0.5 5.5v5.5v3.5q0 2 -1.5 3t-3 1t-3 0.5l-1.5 0.5q-2 0 -4.5 -1t-4.5 -3q-1 -1 -1 -4v-4.5t-1.5 -4t-4.5 -1.5
q0 12 -1.5 25.5t-4.5 25.5q-2 5 -3.5 8.5t-1.5 9.5q1 0 2 -0.5l3 -1.5q0 -1 1.5 -3t2.5 -5t2.5 -5t1.5 -3q1 -1 1.5 -2.5t0.5 -2.5t0.5 -3.5t1 -6t1 -6t0.5 -4.5q1 -1 3 -2t3 -1q5 0 7.5 1t2.5 6q0 10 -2.5 22t-7 23.5t-11 22t-14.5 17.5zM83 227q1 0 4.5 0.5t7.5 0.5t7 0.5
t4 0.5h3h2q1 0 4 -0.5t5.5 -0.5t5 -0.5t3.5 -0.5h3.5t6 -1t5.5 -1.5t2 -2.5v-2.5t-1 -1.5h-18v-25q0 -3 3.5 -4t7.5 -2t8 -2.5t4 -4.5h-20l-1 -2l-0.5 -2t-1 -3.5t-0.5 -3.5v-3l-0.5 -3t-2.5 -4q-2 2 -3 4.5t-1 6.5v6t-2 5h-3.5t-5 0.5t-5 0.5t-3.5 1q-3 0 -3 2v1.5v0.5h2.5
t3.5 0.5t4 0.5h3q1 1 4 1.5t3 1.5t0.5 5t0.5 5q0 2 -0.5 5.5l-0.5 3.5q0 2 -0.5 5.5l-0.5 3.5l-3 1l-31 3l-0.5 0.5t-0.5 1.5h-0.5h-0.5q0 1 0.5 1h0.5l0.5 0.5zM104 140q2 6 5.5 8t7.5 3t9 1h10h10l0.5 -0.5l0.5 -0.5l0.5 -0.5l0.5 -0.5l-0.5 -0.5l-0.5 -0.5l-0.5 -1
l-0.5 -1h-11l-0.5 -1.5t-0.5 -2.5q1 -7 2.5 -9.5t3.5 -3t4.5 -1.5t4.5 -6l0.5 -2t1.5 -4t1.5 -4.5t0.5 -4.5v-1v-1q-2 -4 -4.5 -5.5t-5 -2.5t-4.5 -2.5t-2 -5.5v-2v-3q2 0 4 -0.5t4.5 -0.5t4.5 -0.5t2 -2.5q-1 -3 -5.5 -3h-6.5q-7 0 -12.5 0.5t-10 2.5t-7.5 5.5t-5 10.5
q0 2 -0.5 4.5l-1 5l-1 5t-0.5 4.5v1q0 1 1 2.5t1 2.5v3.5v5.5v5.5v3.5zM109 139q0 -1 0.5 -1h0.5q0 -1 0.5 -2.5t0.5 -2.5l0.5 -0.5l0.5 -0.5h17l0.5 1.5t0.5 2.5v2q0 3 -2 5t-5 2q-2 0 -4 -0.5t-4.5 -1t-4 -1.5t-1.5 -3zM109 116q0 -5 2.5 -7.5t6.5 -3.5t8.5 -1h9.5t6 2.5
t1 6.5t-1.5 6t-5.5 4q-1 0 -4 0.5t-6.5 0.5t-6.5 0.5t-4 0.5h-1q-3 0 -4 -3t-1 -6zM126 85q2 1 3 2.5t1 3.5v2q0 1 -0.5 2.5l-0.5 1.5h-17q0 -3 1 -5t3 -3t4.5 -1.5t5.5 -2.5z" />
</svg>
