<?xml version="1.0" standalone="no"?>
<!DOCTYPE svg PUBLIC "-//W3C//DTD SVG 1.1//EN" "http://www.w3.org/Graphics/SVG/1.1/DTD/svg11.dtd" >
<svg xmlns="http://www.w3.org/2000/svg" xmlns:xlink="http://www.w3.org/1999/xlink" version="1.1" viewBox="-10 0 266 256">
   <path fill="currentColor"
d="M141 116q0 10 1 20t4 20q1 3 4.5 5.5t7 4.5t6.5 3t3 2v75q0 2 1 2.5t2 0.5q5 0 7 -3.5t2 -7.5q0 -15 -2.5 -30.5t-2.5 -31.5v-2v-3q1 -1 3.5 -2t6 -3t6 -3.5t3.5 -1.5l2.5 -2.5t3 -3.5l3 -4t1.5 -3v-37l-1.5 -0.5t-2.5 -0.5t-2.5 1.5t-1.5 3.5v29q0 3 -2 5.5t-4.5 4.5
t-5.5 3t-5 1h-2.5t-1.5 -2v-56q0 -3 4.5 -5t10 -3.5t10 -4.5t4.5 -10v-34q0 -1 -0.5 -2t-1.5 -2v0h-1l-1.5 1t-2.5 2.5l-2 3t-1 2.5v24q0 6 -4.5 10t-9.5 4q-4 0 -5 -2t-1.5 -5t-0.5 -6v-6q0 -5 0.5 -13t1.5 -13t5 -7.5t9 -5t8.5 -4.5t3.5 -4q0 -3 -2 -4.5t-4 -1.5
q-3 0 -7.5 3t-9 6.5t-8 7.5t-3.5 6q0 1 -0.5 3l-1 4t-0.5 4v3v6.5v10.5q0 5 0.5 10t0.5 7q-6 0 -9 -0.5t-3.5 -2t-1 -4.5l-1.5 -9q0 -1 -1 -3l-1 -2v-4.5v-7.5v-6.5v-4.5l-0.5 -1t-1.5 -1v0h-1q-1 0 -2 1l-1 1q0 1 -0.5 4t-0.5 4q0 11 1.5 21t5.5 20q1 2 3 2.5t4.5 1l5 1
t3.5 2.5q0 2 0.5 7t0.5 11t0.5 11.5t0.5 7.5v11v11q-1 2 -2 2h-2q-6 0 -9 -5t-4 -11.5t-1 -13v-10.5q0 -2 -3 -2h-4zM87 244q-1 3 1.5 3.5t3.5 0.5q2 0 4 -0.5t1 -4.5v-4v-4.5v-5.5v-3q0 -11 -1 -21.5t-1 -21.5v-2v-4v-4v-2q0 -1 1.5 -2l1.5 -1q8 -5 12.5 -7t7 -5.5t3 -9
t0.5 -16.5v-2v-4v-3.5v-2.5q-1 -2 -2 -2.5t-3 -0.5t-3 1t-2 4q0 4 0.5 10.5t0 12.5t-4 10.5t-10.5 4.5q-1 0 -2 -1.5t-1 -3t-0.5 -2.5t-0.5 -2v-47q0 -2 3.5 -3.5t8 -3t8 -3.5t4.5 -4q2 -3 3 -7t1 -8.5v-8.5v-8v-2v-3v-3.5v-1.5q0 -3 -1.5 -3.5t-2.5 -0.5t-1.5 0.5t-1.5 0.5
v5t-0.5 8.5t-0.5 8.5v5q-1 3 -1.5 5.5t-1.5 5t-3 4.5t-4 3q-1 1 -5 0t-5 -1v-39q0 -10 4.5 -15t10 -8t10 -5.5t4.5 -7.5q-11 0 -18 4t-11 9.5t-6 13.5t-2.5 16.5t-0.5 17v15.5q-1 2 -3 2h-3q-4 0 -6.5 -2t-4 -5t-2 -6.5t-1.5 -7.5v-5v-7v-7.5v-5.5q-1 -3 -1.5 -4t-2.5 -1
q-3 0 -4 2t-1.5 4t0 4.5t0.5 4.5q0 3 -0.5 9.5t0.5 13.5t3.5 12.5t7.5 7.5h2t4 0.5t4 0.5h3l2 1t3 3q2 6 2.5 13t0.5 14v14v13q0 3 -3 3h-5q-6 0 -10.5 -3t-4.5 -10v-26q0 -3 -2 -4t-4 -1t-2.5 1.5t-0.5 3.5v3v6.5t0.5 9t0.5 9v6.5l2 6t5 4q1 0 3.5 0.5t5.5 1l6 1t4 1.5l3 3
l0.5 2t1 4.5t0.5 5v4.5v11.5v17.5v17v11z" />
</svg>
