<?xml version="1.0" standalone="no"?>
<!DOCTYPE svg PUBLIC "-//W3C//DTD SVG 1.1//EN" "http://www.w3.org/Graphics/SVG/1.1/DTD/svg11.dtd" >
<svg xmlns="http://www.w3.org/2000/svg" xmlns:xlink="http://www.w3.org/1999/xlink" version="1.1" viewBox="-10 0 266 256">
   <path fill="currentColor"
d="M73 249q0 4 3 4t4.5 -2.5t2.5 -4.5q0 -2 0.5 -5.5t0.5 -7t0.5 -6.5t0.5 -5v-2q0 -9 -1 -18t-1 -18v-9v-8t0.5 -8.5t1.5 -10.5q10 0 15 -5t7 -12t2 -15v-18h-2q-1 0 -3 0.5t-2 2.5l-3 30q-1 3 -4.5 6t-6.5 3q-1 0 -1.5 -0.5l-1.5 -1.5q-1 -7 -1.5 -12t-0.5 -9v-8v-10v-11
q1 -2 4.5 -3.5t7.5 -2.5t7 -2.5t3 -5.5l4 -28q0 -1 -0.5 -2t-1.5 -2l-2 -2t-2 -1q-3 0 -3.5 2.5t-0.5 6.5v8.5t-0.5 8.5t-2.5 7t-7 3q-3 0 -5 -2t-2.5 -4.5t-0.5 -5.5v-6q0 -6 0.5 -11.5t1.5 -11.5q1 -4 4 -6.5t7 -4.5t7 -4t3 -5q0 -2 -1.5 -2.5t-3.5 -0.5q-7 0 -12 3.5
t-8 9t-4.5 12.5t-1.5 13v10.5t2 10.5q0 4 -1.5 4.5t-3.5 0.5q-4 0 -6 -4.5t-3 -9.5t-0.5 -10.5t0.5 -8.5q-2 -1 -3.5 -1h-3.5h-2t-2 1v3v3v3v2q0 9 0.5 15t3 9.5t7.5 5t14 2.5v10.5t0.5 16t0.5 16v10.5v2h-14q-1 0 -2 -1.5t-1.5 -3.5l-1 -4l-0.5 -2v-5.5t-0.5 -8t-0.5 -8
v-5.5q1 -3 -1.5 -3.5t-4.5 -0.5t-3 1t-1.5 3t-0.5 4v4v3.5v3.5l1 1.5l1 1.5q1 9 1.5 15t3 9.5t8 4t15.5 -0.5q1 2 1 4v4v20.5t-0.5 19.5t-1 20.5t0.5 21.5q-1 1 -1.5 4.5t-0.5 4.5v2zM133 170q1 5 4 8.5t7 5.5t9 2.5t10 0.5h1q2 0 6.5 -1t9.5 -1.5t9.5 -1.5t6.5 -1
q1 0 2.5 -1t3.5 -2.5t3 -2.5t2 -1l5 -20v-19v-19t-0.5 -18t-1 -17.5t-0.5 -19.5q-1 -3 -4 -4t-6 -1v31q-9 0 -15 -4.5t-9.5 -11.5t-5 -15t-1.5 -15v-1v0l36 -4q3 0 5 -1t2 -4t-2 -3.5t-4 -0.5q-20 0 -41.5 2t-40.5 4q-3 1 -4 2t-1 5h41v33q0 3 -2.5 6.5t-6 5.5t-7.5 3.5
t-6 1.5v-21q0 -1 -1.5 -3t-3.5 -2t-3.5 2t-2 4.5t0 4.5t0.5 3t-0.5 4t-0.5 6v7v6v6v6t0.5 5.5l0.5 2.5q0 3 0.5 9.5t1.5 14t1.5 14.5t1.5 10zM138 150v-4.5t2 -4.5q11 0 21 -2.5t21 -2.5h5.5t7 0.5t6 2t2.5 5.5v1q-2 12 -4 18t-6 9t-10.5 3.5t-18.5 0.5q-6 0 -10 -1t-7 -3
t-5 -6.5t-4 -11.5v-2v-2zM134 114v-1q1 -1 1.5 -2l0.5 -1q1 -2 4.5 -5.5l7 -7l6.5 -6.5t4 -5q1 0 2 -0.5t2.5 -1.5t2.5 -1.5t2 -1.5q10 4 19 9.5t15 13.5v7v8.5t-2 7.5q-2 1 -8 1.5t-13.5 1t-13.5 1t-9 0.5h-2h-3q-9 0 -12.5 -3.5t-3.5 -13.5z" />
</svg>
