<?xml version="1.0" standalone="no"?>
<!DOCTYPE svg PUBLIC "-//W3C//DTD SVG 1.1//EN" "http://www.w3.org/Graphics/SVG/1.1/DTD/svg11.dtd" >
<svg xmlns="http://www.w3.org/2000/svg" xmlns:xlink="http://www.w3.org/1999/xlink" version="1.1" viewBox="-10 0 266 256">
   <path fill="currentColor"
d="M61 247q1 2 2 3t3 1q3 0 4.5 -2t2.5 -4.5t1 -5v-4.5q3 -19 4 -39.5t1 -37.5q1 -3 2.5 -4t3.5 -1.5l4 -1t4 -2.5q2 -3 3.5 -7.5t1.5 -9.5v-10v-9v-4v-3l-4 -2q-2 3 -2.5 9t-1 12.5t-1.5 12t-3 6.5q-1 0 -3 -1t-3 -1v-6t-0.5 -10t-0.5 -10v-7q0 -1 0.5 -3.5t0.5 -5.5
t0.5 -6t0.5 -4q1 -2 3 -2t4 -1q5 -2 8 -6t4.5 -9t2 -10.5t0.5 -10.5q0 -3 -1 -3.5t-4 -3.5h-1h-1q-1 0 -1.5 0.5t-0.5 1.5t-0.5 4l-1 6l-1 6t-0.5 4t-1 3.5t-1.5 4t-2 3t-3.5 1.5v0q-1 0 -1.5 -0.5l-0.5 -0.5v-36q0 -1 0.5 -2t1.5 -2.5t2 -2.5t1 -2q1 -1 2.5 -3t3.5 -4l4 -4
l3 -3v-0.5v-1.5q0 -2 -0.5 -3.5t-3.5 -1.5q-4 0 -8 2t-7 5.5t-5 8t-2 8.5q0 2 -0.5 7.5t-0.5 11t-0.5 10.5t-0.5 8q0 1 -1 3t-3 2q-3 0 -4.5 -3.5t-1.5 -5.5v-4.5t-0.5 -7t-0.5 -6.5v-4q-1 -2 -3.5 -3t-3.5 -1q-2 1 -3.5 3.5t-1.5 4.5v1q0 2 1 6t1.5 8t1.5 7.5t1 4.5
q1 2 3 4t4.5 3.5t5.5 2.5t5 2v3v4v4v2v10q0 7 -0.5 13t-1.5 11.5t-3 7.5q-4 -2 -6 -7t-2.5 -11t0 -12t0.5 -10q-1 -1 -2 -1.5t-3 -0.5q-5 0 -6 3.5t-1 7.5q0 8 0.5 15t1.5 16q3 2 6.5 3t6.5 2.5t5 3.5t2 7q0 14 -1 29t-3 29q0 6 -1.5 11t-1.5 11v7zM92 223q0 2 1 3t3 1h109
l0.5 -1t1.5 -1q0 -1 0.5 -2l0.5 -1q0 -2 -1 -3.5t-2 -1.5h-13q-1 0 -1.5 -1t-0.5 -2l-1 -1t-1 -2l6 -26t5.5 -26.5t4 -26.5t1.5 -27q0 -9 -4 -14.5t-9.5 -10.5t-10 -11.5t-4.5 -17.5q-1 0 -2 -1t-2 -1t-2 2t-1 4.5v4.5v2q0 8 3.5 12.5t7.5 8t7.5 8t3.5 11.5v7q-1 1 -3.5 1.5
t-3.5 0.5h-0.5h-1.5q-3 0 -4 -3t-1 -6.5t-0.5 -6.5t-3.5 -3q-2 0 -3 3t-1.5 6.5t-0.5 7v4.5q-1 1 -1 5v8q0 4 0.5 8t0.5 5q-1 0 -1 4t-0.5 9t-1.5 10t-1 8t-1.5 8t-3.5 9.5t-3.5 8.5t-1.5 6q0 1 0.5 2.5t1.5 1.5q5 0 8 -5.5t4 -12t2 -12t2 -5.5h14l0.5 1l0.5 1v1q0 2 -1 9
t-3.5 15t-5.5 14t-6 6h-41l-4 -4v-17l3 -3l4.5 -4.5l4.5 -4.5l3 -3t1.5 -3.5l1 -5t0.5 -4.5v-3q2 -5 4.5 -6t4.5 -2t4.5 -4.5t3.5 -12.5q0 -3 0.5 -7.5t1 -10t1 -10t0.5 -5.5v-4v-4.5t-0.5 -4.5t-1 -2.5l-2 -2t-3 -3.5t-3 -3.5l-1.5 -1.5q-1 -1 -1.5 -3.5t-0.5 -3.5v-24
l-1.5 -1.5t-1.5 -0.5q-2 0 -2.5 0.5l-1.5 1.5v3v4v4v3v3v4.5v4.5v1q1 4 1.5 5.5t1.5 2.5t2.5 2t3.5 4l2 6t1 6.5v6.5v6v10q0 5 -1 10.5t-3 9t-7 3.5v-55q-4 0 -5.5 2.5t-1.5 6.5v57q0 2 -0.5 5t-2 6t-3 5.5t-3.5 2.5t-3 -1.5t-1 -3.5t-0.5 -3.5l-0.5 -1.5v-1q0 -17 2 -33.5
t2 -33.5q0 -1 -1 -3.5t-3 -2.5h-1q-1 0 -2.5 1.5l-1.5 1.5v50l-1 0.5t-1 1.5h-1v0q-3 0 -4 -2.5t-1 -5.5v-6v-4q0 -9 0.5 -18t3.5 -18q1 -4 3.5 -7t4.5 -6t3.5 -6t1.5 -8q0 -6 -2 -12t-2 -12v0q1 -1 2.5 -1.5l1.5 -0.5q17 -1 35 -1.5t36 -0.5q3 -1 3 -5q0 -2 -1.5 -3
t-3.5 -1h-1q-4 1 -11.5 1t-14 0.5t-12 0.5h-5.5q-5 1 -12 0.5t-13.5 0l-13 1t-9.5 2.5l-0.5 0.5l-0.5 0.5l0.5 0.5l0.5 0.5q0 1 2 1.5l4 1t3 0.5h3l1 3v4.5v4.5q0 9 -0.5 13t-1.5 7t-3 6.5t-5 9.5q-2 5 -3 10.5t-1 11.5v12v11t1 8.5t2.5 6.5t4 6t6.5 6v49q0 2 -2 3t-5 1.5
t-6.5 1t-6.5 0.5t-5 1t-2 3zM177 155v-5t1 -4q1 0 2.5 -0.5t2.5 -0.5t4 0.5t3 3.5v15q-6 0 -9.5 -1.5t-3.5 -7.5zM178 121l4 -3h11q1 0 1.5 0.5t0.5 1.5v5q0 5 -0.5 9.5t-6.5 4.5h-2q-2 0 -3.5 -0.5t-3 -0.5t-1.5 -1v-16z" />
</svg>
