<?xml version="1.0" standalone="no"?>
<!DOCTYPE svg PUBLIC "-//W3C//DTD SVG 1.1//EN" "http://www.w3.org/Graphics/SVG/1.1/DTD/svg11.dtd" >
<svg xmlns="http://www.w3.org/2000/svg" xmlns:xlink="http://www.w3.org/1999/xlink" version="1.1" viewBox="-10 0 266 256">
   <path fill="currentColor"
d="M189 240v3t0.5 3.5t1.5 3t3 1.5h1q1 0 2.5 -1.5l1.5 -1.5v-45q0 -2 -0.5 -5l-0.5 -3v-7v-11v-11v-6q0 -5 -1 -13t-1.5 -16.5t-1.5 -14.5t-1 -7l-2 -4l-14 -15q-2 -1 -2.5 -4.5t-0.5 -7v-7.5v-6q0 -1 0.5 -4t1.5 -3h23q3 0 3.5 -1.5t0.5 -3.5q0 -4 -5 -4q-4 0 -7.5 1
t-7.5 1h-7q-1 0 -1.5 -1.5t-0.5 -2.5q0 -4 2 -5.5t4.5 -2t6 -0.5t6.5 -1q2 -1 3 -3t2 -4.5t1 -5v-4.5t-1.5 -3.5t-3.5 -1.5q-4 0 -4.5 2.5t-0.5 4.5q0 3 -0.5 5.5t-3.5 3.5q-1 1 -4 0t-4 -1v-18q0 -1 -1.5 -1h-2.5q-2 0 -4.5 1t-2.5 2q0 5 1 9.5t1 8.5q0 3 -0.5 5t-1 3.5
t-0.5 4v5.5q-2 2 -4 2h-5q-2 0 -7 0.5t-11 1t-11 1t-7 0.5q-5 -1 -5 3q0 3 3 3q10 -1 21 -2t21 -1q2 0 3 0.5t2 2.5v7v9t1 9t2 7q3 3 5.5 6t5 5.5t4 5.5t1.5 8q4 30 4 60.5v60.5zM77 150v95l1 0.5t2 0.5q2 0 3 -1.5t2 -4t1 -5v-4.5q0 -13 -1 -26t-1 -27v-28l1 -0.5l1 -0.5
q7 -2 11 -4t6 -4.5t3 -7t1 -12.5q0 -3 -1 -5t-5 -2h-1l-3 22q0 2 -1 3t-2.5 1.5t-3 0.5h-2.5h-3t-2 -2v-38l0.5 -0.5l0.5 -0.5q6 -3 10 -5.5t6.5 -6t3.5 -8t1 -12.5v-3v-4q-1 -3 -2 -3.5t-3 -0.5q-1 0 -1.5 0.5l-1.5 1.5v17q0 2 -0.5 4.5t-1.5 5t-2.5 4t-3.5 1.5
q-1 0 -1 -0.5v-0.5q-1 0 -2 -1l-2 -2v-8v-10q0 -4 0.5 -8t1 -8.5t0.5 -10.5q1 -4 4 -5l6 -2t5.5 -2t2.5 -4t-2.5 -4t-4.5 -1q-3 0 -6 1.5t-6.5 3.5t-5.5 4.5t-2 4.5v51l-0.5 1.5t-1.5 1.5h-1q-2 0 -4 -1.5t-3.5 -4t-3 -5.5t-1.5 -5v-3.5v-5.5v-6v-4l-1 -1l-2 -2v0h-1l-2 2
l-1 1v11v11q0 6 3 10q1 1 4 2.5t5.5 3t5 3.5t2.5 3v38q0 2 -1.5 2h-2.5q-4 0 -6 -2t-2.5 -6t0 -8t0 -7.5t-1.5 -6t-5 -2.5l-0.5 1l-0.5 1v28q0 3 2.5 5t6 3.5t7.5 2t6 0.5zM129 240q0 2 1 2h2q2 0 3 -4t1 -9.5v-12.5t0.5 -13t2.5 -9.5t6 -3.5q3 0 5 2t2.5 5t0 5.5t-0.5 4.5
t0.5 6.5t1 10t1 10t0.5 6.5h1h2q3 0 4 -2t1 -5q0 -9 -2.5 -18.5t-2.5 -19.5q0 -2 1.5 -4t3 -3.5l3 -3t2.5 -4.5q0 -5 0.5 -8.5t0.5 -7v-7.5v-7v-7v-6.5t-0.5 -6.5t-0.5 -8l-1 -1.5l-2 -3t-2.5 -2.5t-2.5 -1h-28q-3 0 -6.5 3t-4.5 5q-1 1 -1.5 3.5t-1 4.5l-1 4t0.5 2l1 2v3.5
v5.5v6v4q0 2 0.5 6t0.5 8t0.5 6.5l0.5 2.5l11 11v0.5v1.5q0 10 -1.5 20t-1.5 20v4v3zM127 169l0.5 -1.5t1.5 -1.5q7 -1 12 -1.5t12 -0.5q1 0 3 0.5t3 0.5l1 1v2v3v3t-0.5 4.5t-2 3.5t-3.5 1h-19q-2 0 -3.5 -2t-2.5 -4.5t-1.5 -4.5t-0.5 -3zM127 158v-2v-3q0 -5 3 -7.5t7 -3
t9 -0.5h8h4t2 1l2 1v13q0 1 -4.5 1.5t-9.5 1t-10 0.5h-5h-3t-3 -2zM125 131q0 -4 2.5 -6.5t5.5 -3t6.5 -1t6.5 -0.5h4.5h4.5q4 3 4.5 5t0.5 5q0 2 -1 4t-4 2h-28q-1 0 -1.5 -2.5zM122 96v0.5v0.5l0.5 0.5t1.5 0.5h9h10h3.5t5 -0.5t4 -0.5h1.5v-6q-9 0 -17.5 2t-17.5 2v1v0z
M147 72h-7q-4 0 -9 0.5t-8 1.5t-3 4h34l1 -1.5t2 -1.5v-1v-1l-0.5 -0.5t-1.5 -0.5h-8z" />
</svg>
