<?xml version="1.0" standalone="no"?>
<!DOCTYPE svg PUBLIC "-//W3C//DTD SVG 1.1//EN" "http://www.w3.org/Graphics/SVG/1.1/DTD/svg11.dtd" >
<svg xmlns="http://www.w3.org/2000/svg" xmlns:xlink="http://www.w3.org/1999/xlink" version="1.1" viewBox="-10 0 266 256">
   <path fill="currentColor"
d="M116 198v51q0 1 1 1h2q3 0 4 -3t1 -5v-10.5v-11t0.5 -11.5t1.5 -11q1 -3 4.5 -3.5t7.5 -0.5t9 -0.5t9 -2.5t6.5 -6t2.5 -12h-5t-3 2q-1 0 -1.5 1.5t-1.5 3l-2 3t-1 2.5q-1 0 -4 0.5t-6.5 1.5t-6 1.5t-3.5 0.5h-1.5h-0.5q-2 0 -4 -1t-2 -3v-2l0.5 -2t0.5 -3.5v-3.5v-2
q3 -4 8.5 -4.5t11 -1.5t9.5 -4t4 -12v-2v-2q-1 -1 -2.5 -1.5l-1.5 -0.5q-3 0 -4 3t-3 6.5t-5.5 6.5t-11.5 3q-3 0 -3 -2v-4q0 -7 3 -10t6.5 -4t7 -1.5t4.5 -2.5q-2 -2 -4 -2.5t-4 -0.5q-9 0 -13.5 4t-6.5 9t-2 9.5t-1 4.5t-3 0.5l-2 0.5q-7 0 -9.5 -3t-3.5 -7t-2.5 -7
t-5.5 -3q0 13 4 18t9 7t9 2t4 2v13q0 1 -1.5 2t-3 1h-3.5h-3q-9 0 -13 -3.5t-6 -7.5t-3 -7.5t-5 -3.5q-2 0 -3 1t-1 4q0 9 3.5 14t9 7.5t12.5 3t15 -0.5zM186 231q1 2 2 2h2q4 0 4.5 -3t0.5 -6q0 -7 -1 -14.5t-2.5 -15l-3 -15t-2.5 -15.5v-2v-4v-4v-3q0 -8 -2 -16t-2 -17v-6
q2 -3 5 -5t5.5 -4.5t4 -5.5t1.5 -8v-4.5v-5t-0.5 -4.5l-0.5 -2l-9 -9l-24 -2q0 -1 -0.5 -2t-0.5 -2v-1.5t0.5 -3t0.5 -3.5v-3q1 -1 1.5 -3l0.5 -2h20q1 0 2 -1.5t1 -2.5v-1v0q0 -1 -1 -2t-2 -1t-5 0.5t-5 0.5h-2.5h-3.5t-3.5 -0.5t-2.5 -0.5v-1v-1q0 -4 1 -7t1 -7v-6
q-1 0 -2.5 -2l-1.5 -2h-1v0q-3 0 -4.5 4t-2 10t-0.5 12v7v3.5v5.5v5v3q-1 4 -3.5 4.5t-5.5 0.5t-5 1t-2 5h40q5 0 7.5 3t2.5 8t-0.5 8.5t-2.5 9.5q-1 1 -3 1h-0.5h-1.5l-2.5 -2l-2.5 -2q-6 -4 -14 -4.5t-15 -0.5h-4t-3 3v1q1 0 2 1l1 1q1 0 3.5 0.5t5 0.5t4.5 0.5t3 0.5
q2 0 4.5 0.5t4.5 2t3.5 3t1.5 3.5v1v1q-4 1 -6.5 2.5t-5 2.5t-5 2.5t-5.5 3.5q-5 2 -10.5 2t-10.5 2v1v0v2t2 1h5q5 0 9 -0.5t7.5 -2t7 -3.5t7.5 -4q2 -1 2.5 -1h2.5t2.5 1t0.5 3v3v3q0 2 0.5 6t1 8.5t0.5 8.5t1 6q2 19 4.5 37.5t3.5 37.5zM66 143v1v0q0 1 1 2t2 1
q4 -1 12.5 -4t16 -8t13 -11t5.5 -13v0v0q-2 -4 -5 -6.5t-6 -4.5t-5.5 -3t-2.5 -3v0v0q0 -1 0.5 -1.5l0.5 -0.5q1 0 3.5 -0.5t5.5 -0.5h5.5t3.5 -1h1h3.5t3 -1t1.5 -2l-0.5 -0.5l-0.5 -0.5l-1 -0.5l-1 -0.5h-40q-1 0 -5 -1.5t-6 -1.5q-2 -1 -2.5 -3l-1 -4t-1.5 -3.5t-4 -1.5
h-4l-0.5 1.5l-0.5 1.5q1 7 3.5 11t6.5 6t9.5 2.5t11.5 1.5v2q0 6 -4.5 8.5t-10 4.5t-10.5 5t-5 8q0 2 1 3t3 1q4 0 8.5 -3.5t9 -7.5t9 -7t7.5 -3h1.5h0.5l7 7v1v1q0 5 -2.5 8.5t-7 6t-10 4.5t-10 3.5t-7 3.5t-2.5 3zM69 47q0 12 4 18.5t15 9.5q1 0 3.5 -0.5t5.5 -0.5t6 -0.5
t4 -0.5q3 0 6 -1.5t6.5 -3.5t5.5 -5t2 -6v-20q0 -5 -3 -7t-7.5 -3t-8 -2t-4.5 -3q0 -1 0.5 -3.5t0 -5.5t-1.5 -5t-4 -2q-1 0 -3 2.5t-3 3.5v12q-1 2 -3.5 3t-5.5 1.5t-5.5 1t-5 2.5t-3.5 5.5t-1 9.5zM79 57q0 -2 1 -2.5t3 -1t3 -0.5h3h2h4h4h3h3h4h4h3t1 1.5v2.5q0 2 -2 4.5
t-4.5 3.5t-5.5 1.5t-5 0.5h-6.5t-6.5 -1t-5.5 -3t-2.5 -6zM78 45q-1 -3 2 -6t7.5 -4.5t9 -2.5t5.5 -1q7 0 12 2t5 10l-0.5 1t-1.5 1q-2 0 -6 0.5t-8.5 0.5t-9 0.5t-5.5 0.5h-4h-4q-2 0 -2 -2z" />
</svg>
