<?xml version="1.0" standalone="no"?>
<!DOCTYPE svg PUBLIC "-//W3C//DTD SVG 1.1//EN" "http://www.w3.org/Graphics/SVG/1.1/DTD/svg11.dtd" >
<svg xmlns="http://www.w3.org/2000/svg" xmlns:xlink="http://www.w3.org/1999/xlink" version="1.1" viewBox="-10 0 266 256">
   <path fill="currentColor"
d="M122 248q0 1 0.5 2t2.5 1q6 0 9 -6t4.5 -14t1.5 -16v-11v-10v-2.5t-0.5 -3l-1 -3l-0.5 -1.5q1 -4 2.5 -4.5t3 -1.5t2.5 -3t1 -8q0 -4 -2 -8t-5 -7t-6.5 -5t-8.5 -2q-1 0 -2.5 0.5t-1.5 2.5v0q1 3 4.5 4.5t6.5 3.5t5.5 4t2.5 7q0 4 -4 4q-1 0 -4.5 -3t-8.5 -7t-11 -7
t-13 -3q0 5 4 7t9 4t9.5 5t4.5 8v1t-1 2q-1 0 -4.5 0.5t-4.5 0.5h-1q-5 0 -9 -1.5t-9 -1.5h-2.5t-1.5 2v1v0q2 3 4.5 4t5 1.5t6 0.5h5.5q1 0 3.5 0.5t4.5 0.5q3 0 5.5 -0.5l2.5 -0.5l2 5v2v3v4v2q0 12 -3 22.5t-7 21.5v3zM164 224q0 2 0.5 6.5t1.5 9t3 8.5t6 4q2 0 3 -2
t1 -4q0 -4 -1 -7t-2.5 -6.5t-2.5 -7t-1 -8.5v-6q1 -2 1 -4.5t0.5 -5.5t1 -5l0.5 -2l2 -2q1 0 4 -0.5t6.5 -0.5t6.5 -0.5t4 -0.5q4 0 8 -3.5t4 -7.5q0 -2 -1.5 -2.5t-2.5 -0.5q-3 0 -5.5 1t-5 2.5l-5 3t-5.5 1.5t-3 -3q0 -4 3 -7t6.5 -5t6.5 -4.5t3 -6.5q0 -3 -1 -3h-3
q-3 0 -6 3.5t-6 7.5l-6 8t-6 4q-2 0 -3 -2.5t-1 -4.5q0 -4 2 -7t4.5 -6.5t4.5 -6.5t2 -7q-5 0 -8.5 3t-6 7t-3.5 9t-1 9q0 3 1 5l2 4t2 3.5t1 4.5q0 2 -1.5 4t-1.5 5q-1 6 -1.5 13.5t-0.5 12.5zM59 169v73q0 2 2.5 2.5t3.5 0.5q2 0 3 -1t1.5 -3t1 -3.5t0.5 -3.5
q0 -4 -0.5 -7t-1.5 -8v-67q8 -2 12 -6t5.5 -9t1.5 -11v-15v-1q0 -1 -1 -3t-3 -2v0q-1 0 -1.5 0.5t-0.5 1.5t-0.5 3.5t-0.5 5.5t-0.5 6t-0.5 4l-0.5 2t-0.5 3l-0.5 1t-0.5 2.5t-0.5 2.5t-0.5 2l-1.5 -0.5t-2.5 -1t-2.5 -1l-1.5 -0.5v-42q1 -1 3.5 -2t5.5 -3t5 -4t2 -4v-34
l-3 -3l-5 4v29q0 2 -2 4.5t-4 2.5h-2t-2 -1q1 -6 0.5 -13t0.5 -14.5t3 -14t6 -10.5q1 -1 3.5 -2.5t4.5 -2.5t3.5 -2.5t1.5 -3.5t-0.5 -3t-2.5 -2q-13 4 -18 11.5t-7 16.5t-2 20q0 10 -1 20l-1 1h-1q-2 0 -3 -2t-1 -3v-5.5v-8.5v-9v-6q-1 -4 -1 -5t-3 -1q-2 0 -3 0.5t-1 2.5
v34q0 5 2 7t5 3t5 2t2 4q1 10 1.5 20t0.5 19v2.5v1.5q0 1 -1.5 1.5l-1.5 0.5l-2 -2l-3 -3q-1 0 -2 -1.5l-1 -1.5v-27q0 -2 -1 -3t-3 -1q-3 0 -4 3t-1 6v8q0 4 0.5 8t1.5 8t4 8q1 2 3.5 3t5 1.5t4 2t1.5 4.5q0 4 -0.5 7t-1.5 7zM111 132l3 4l4 -4v-40q0 -1 2 -1.5l2 -0.5
q2 0 5 2.5t3 4.5v34h5v-42q0 -1 -3 -2.5l-5 -2.5l-4.5 -1.5t-3 -1.5t-2 -3t-0.5 -5q0 -2 1.5 -4t3.5 -3t4.5 -2.5t3.5 -3.5q4 -5 4 -11.5v-12.5v-5q-1 -1 -2 -1.5t-2 -0.5t-2.5 0.5t-1.5 3.5v22l-1 0.5t-1 1.5q-1 0 -2 0.5l-1 0.5q-2 0 -3.5 -1.5t-1.5 -2.5q0 -9 1 -18.5
t1 -17.5q0 -3 -1 -5t-4 -2q-1 0 -2 0.5t-1 3.5v40q0 1 -1 2l-1 1h-1q-2 0 -3 -1.5t-1 -3.5v-20q0 -3 -1 -3.5t-2 -0.5q-3 0 -4 2t-1 5v2.5t0.5 5t0.5 5t1 3.5q0 2 0.5 4.5l1 5t1 4l0.5 1.5h10l0.5 1.5t0.5 2.5v0.5v1.5q0 4 -0.5 6t-2 3.5t-3.5 2.5t-4 4q-3 3 -4.5 7.5
t-2.5 9.5t-1 9.5v8.5v3.5v3.5l1.5 1t2.5 2v0h1q2 -1 2 -2q-1 -7 0 -15t3 -15q0 -2 1.5 -5l1.5 -3h5v38zM185 131l0.5 0.5t1.5 0.5q2 0 3 -1t1.5 -3t0.5 -3v-4q0 -6 -1 -12t-1 -12v-2v-4t1 -3.5t2 -1.5q5 0 7.5 5t3.5 11.5t1 13.5v8t1 2h2q2 0 3 -1.5t1.5 -3.5t0.5 -4v-3
q0 -8 -1.5 -16.5t-6.5 -14.5q-3 -3 -5.5 -4t-4.5 -2t-3.5 -3t-1.5 -6q0 -3 1.5 -4.5t3.5 -2l4 -1t4 -2.5t3 -5.5t1.5 -7t0.5 -7.5v-6v-9q0 -1 -1.5 -1.5t-2 0t-2.5 2t-2 2.5t-0.5 4t-0.5 6t-0.5 5.5t-0.5 3.5q0 2 -1.5 3.5t-3.5 1.5h-0.5h-0.5q-2 -9 -2.5 -18.5t0.5 -18.5
l-0.5 -0.5l-1.5 -1.5v0q-2 0 -3.5 2.5t-2.5 4.5q0 2 0.5 5.5t0.5 8t0.5 8.5t0.5 5v2v1q0 2 -0.5 3t-3.5 2q-3 -2 -3.5 -5.5t-0.5 -7.5v-8t-4 -6l-1 1q-1 1 -1 4v5v4.5v5t0.5 5t1.5 4.5q2 3 4 4.5l4 3t3 3.5t1 6q0 5 -2.5 7t-5 3.5l-5 3t-2.5 4.5v36q3 0 4.5 -1.5t1.5 -4.5
q0 -4 -0.5 -7.5t-0.5 -7.5v-4t0.5 -6.5t2 -5.5t4.5 -2h1l1 0.5t1 1.5q-1 4 -1 9v11t0.5 11.5t1.5 10.5zM140 123v1q0 1 0.5 3.5t1.5 3.5q0 -1 1.5 -3.5t4 -5.5t3.5 -3t1.5 1.5l1 3t1.5 3t3 1.5q3 0 3 -4q0 -2 -1 -4.5t-2.5 -4.5t-2.5 -4t-1 -4q0 -1 0.5 -1.5l0.5 -0.5l8 -16
v-1v-1q-1 0 -1.5 -1.5l-0.5 -1.5v0h-1q-2 0 -3 1t-1.5 3t-1.5 3t-3 1t-3.5 -1t-2.5 -1.5t-2.5 -1.5t-4.5 -1q0 3 1.5 5.5t3 4.5l3 4t1.5 6q0 2 -1 4.5t-2.5 4t-2.5 3.5t-1 4zM148 60q2 0 3.5 1.5l3 3t2.5 3.5t2 3q1 0 1.5 -1.5l0.5 -1.5v-1q0 -3 -1.5 -5.5l-3 -5t-2.5 -5
t-1 -5.5v-2q1 -2 3 -4l4 -4t3 -4.5t1 -4.5v-3t-2 -1t-3.5 1.5t-3 3.5t-3 4.5t-2.5 3.5q-3 -2 -4 -4l-2 -4t-2.5 -3t-4.5 -1q0 3 1 5.5t2.5 5l3 5t1.5 5.5q0 4 -1.5 6.5t-4 5.5t-4 6t-1.5 6h3l9 -9h1h1z" />
</svg>
