<?xml version="1.0" standalone="no"?>
<!DOCTYPE svg PUBLIC "-//W3C//DTD SVG 1.1//EN" "http://www.w3.org/Graphics/SVG/1.1/DTD/svg11.dtd" >
<svg xmlns="http://www.w3.org/2000/svg" xmlns:xlink="http://www.w3.org/1999/xlink" version="1.1" viewBox="-10 0 266 256">
   <path fill="currentColor"
d="M62 243q0 2 1.5 2.5t2.5 0.5q3 0 5.5 -3t2.5 -6v-91l2.5 -1.5t5.5 -3t6 -4t3 -5.5q0 -1 0.5 -3.5t0.5 -5.5t0.5 -5.5t0.5 -3.5l0.5 -1t0.5 -2.5t0.5 -2.5l0.5 -1v-6v-5l-3 -1.5t-2 -0.5t-2 0.5t-1 1.5v6t-0.5 8.5t-0.5 8.5v6q-1 1 -1.5 4l-0.5 3l-9 3v-51l1 -1t2 -1
q5 -2 8.5 -6t5 -9.5t2 -11.5t1.5 -12v-5q0 -3 -0.5 -5t-3.5 -3l-3 4v4.5v7.5t-0.5 7.5t-0.5 5.5t-0.5 4t-1.5 4.5t-2.5 4t-4.5 1.5q-1 0 -2 -0.5t-1 -2.5v-10t1 -14.5t1.5 -13.5t1.5 -7q1 -2 4 -2.5t6.5 -0.5t6 -1t3.5 -5q1 -3 -0.5 -3.5t-2.5 -0.5q-2 0 -5 0.5t-7 1.5
t-7 2.5t-4 2.5q-2 3 -2.5 8t-0.5 11t0.5 12t0 11t-1.5 8.5t-4 3.5q-2 0 -3.5 -0.5t-1.5 -3.5v-38q-1 0 -3.5 0.5t-3.5 0.5l-1 0.5t-1 1.5v5v5v9.5t1 10.5t3 9t6 7q1 2 3 2t3 2v20v19v2t-0.5 4t-1.5 3.5t-2 1.5q-2 0 -2.5 -1t-1 -2.5t-0.5 -3.5v-2v-6t-0.5 -8.5t-0.5 -8.5v-6
q-2 -1 -2.5 -1.5t-2.5 -0.5q-1 0 -2 0.5t-1 1.5v14q0 11 1 17t2.5 9t3 3.5t3.5 1t4 1.5t3 4q0 4 -0.5 13t-0.5 19.5t-0.5 19.5t-0.5 13l0.5 2t-0.5 3q0 6 -1.5 13.5t-1.5 13.5zM127 230q7 3 11.5 4.5t10.5 1.5q7 0 14.5 -1.5t13.5 -2.5q4 -1 7 -4t4.5 -7t2 -8.5t0.5 -8.5v-4
v-3.5t-0.5 -5.5t-0.5 -5.5v-3.5q-2 -2 -4 -4.5t-4 -2.5q-1 0 -4.5 -0.5t-7.5 -1.5t-7.5 -1.5t-5.5 -0.5h-1q-8 0 -15 1.5t-12.5 5.5t-9 10.5t-3.5 16.5q0 5 0.5 8t2 6t3.5 5.5t5 5.5zM127 212q0 -7 6 -7h47q2 0 2 1.5v2.5q0 7 -4.5 10.5t-9.5 5.5h-2.5h-3.5h-3h-3h-8
t-9.5 -1t-8 -3.5t-3.5 -8.5zM127 196l-0.5 -1.5l-0.5 -1.5q0 -6 4 -8.5t9 -3.5t10 -1h7h6.5t9.5 1t8.5 3.5t3.5 7.5v0.5v0.5l-1 1.5l-1 1.5q-10 1 -17 1.5t-16 0.5h-6h-4.5t-5 -0.5t-6.5 -1.5zM93 155q-1 2 1.5 3.5t3.5 2.5q2 -1 8 -1.5t13 -1t15 -1t15.5 -1t13 -1t8.5 -0.5
h31q3 0 4 -0.5t1 -2.5q0 -1 -0.5 -3t-1.5 -2h-26q0 -7 1.5 -11t4 -5.5t5 -2t5 -2.5t4.5 -5t3 -11v-10.5t0.5 -16t0.5 -16v-10.5v-1q0 -2 -1 -4t-3 -2h-2t-1 2v58q0 5 -1.5 7t-4 2.5t-5 0.5h-4.5q0 -4 1.5 -5.5l3 -3l3 -3t1.5 -4.5q0 -6 -1.5 -12t-2.5 -12q-2 -2 -3 -6.5
t-1 -7.5q0 -5 2 -11t4.5 -11.5t5 -10.5t2.5 -8q0 -4 -3 -4t-5.5 4t-4.5 9t-3.5 10t-2.5 8q-2 -2 -3.5 -5.5t-2.5 -7.5t-1.5 -7.5t-1.5 -6.5q-1 -1 -2 -1.5t-2 -0.5q-3 0 -3 1.5v3.5v4q0 1 2 5.5l4 9t3.5 8.5t2.5 5q1 3 1 5v5q0 5 -1 8.5t-2.5 7t-3 7.5t-1.5 8t0.5 6t1.5 4
t1.5 4t0.5 5l-2 0.5t-3 0.5t-2.5 -2t-1.5 -3q-1 -4 -1.5 -7t-0.5 -6v-5.5v-5.5q0 -8 1 -16.5t1 -17.5q0 -4 -1.5 -4.5t-5.5 -0.5v57q0 9 3 13t6.5 6t6.5 3t3 5q0 5 -2 7.5t-5 4t-7 1.5h-8h-15h-9l-2 -2v-14q0 -1 3 -1.5t6.5 -2t7 -3.5t3.5 -6q1 -7 1.5 -16t0.5 -18v-18v-16
l-1.5 0.5t-1.5 1.5l-3 61q-1 3 -4.5 5t-6.5 2q-2 0 -3.5 -0.5t-1.5 -3.5q0 -4 2 -6.5t4 -4.5t3.5 -4.5t1.5 -6.5t-1 -8t-2.5 -8t-3 -7.5t-1.5 -7.5q0 -6 2.5 -12t6 -11t6 -9t2.5 -8q0 -3 -3 -3q-4 0 -6 4t-3.5 8.5t-3 8.5t-5.5 4v0q-3 -5 -5 -11.5t-3 -11.5q-1 -1 -2 -1.5
t-3 -0.5q-1 0 -1.5 0.5l-1.5 1.5q1 4 3 8.5t4.5 9t4 9t1.5 7.5q0 6 -1.5 10.5t-3.5 9t-3.5 9.5t-1.5 10v4v3l3 3l2.5 2.5t2 3t0.5 4.5t-2.5 5t-5.5 2q-2 0 -4.5 -2t-2.5 -5v-67q-4 0 -5 3t-1 6v58q0 6 3 8.5t6.5 4t7 3.5t3.5 8q0 2 -0.5 4t-1.5 4h-4.5t-7.5 0.5t-7.5 1.5
t-3.5 3zM173 100v-4.5t0.5 -5.5t1.5 -4.5t3 -1.5t3 2t1.5 4.5t1 5.5t0.5 4q0 4 -2.5 5.5t-5.5 1.5t-3 -2.5v-4.5zM118 101l-0.5 -2t-0.5 -3q0 -2 0.5 -5l1 -6t2 -5t3.5 -4q3 4 4 7.5t1 7.5v2q0 2 -0.5 3t-0.5 2v2q-1 2 -2 3t-3 1t-3 -0.5t-2 -2.5z" />
</svg>
