<?xml version="1.0" standalone="no"?>
<!DOCTYPE svg PUBLIC "-//W3C//DTD SVG 1.1//EN" "http://www.w3.org/Graphics/SVG/1.1/DTD/svg11.dtd" >
<svg xmlns="http://www.w3.org/2000/svg" xmlns:xlink="http://www.w3.org/1999/xlink" version="1.1" viewBox="-10 0 266 256">
   <path fill="currentColor"
d="M164 167q2 0 4.5 6.5t5 15.5t5 19.5t5 20t5.5 15.5t7 6q3 0 5.5 -2t2.5 -6v-1q-1 -3 -2.5 -6t-3 -6.5t-3 -6.5l-2.5 -5q-5 -12 -9.5 -25.5t-7.5 -25.5l-0.5 -0.5t-0.5 -1.5q0 -3 3.5 -4.5t8 -4t8 -8.5t3.5 -17q0 -2 -1 -6t-2 -7t-3.5 -5.5t-6.5 -3.5l-22 -3l-1 -1
q0 -1 -0.5 -3.5t-0.5 -3.5q0 -13 1.5 -24.5t0.5 -23.5q1 -2 1.5 -2h1.5q7 0 11.5 6t8 13.5t6 13.5t5.5 6q1 0 3.5 -1t3.5 -2v-1.5v-2.5q0 -2 -1.5 -6t-4 -7.5t-5 -6.5t-3.5 -5q-3 -3 -7.5 -6.5t-9.5 -7t-8.5 -7t-3.5 -7.5q0 -1 0.5 -2.5l0.5 -1.5l0.5 -3l0.5 -3
q0 -3 -1.5 -6.5t-4.5 -3.5q-1 0 -2 0.5t-1 1.5v27q-7 3 -13.5 9.5t-12 14.5t-8.5 16.5t-3 16.5q4 0 7.5 -3.5t6 -8.5t4.5 -10.5t4 -10.5t5 -8.5t7 -3.5q3 0 4 3v3v5v4v3v4v5v4v2v5.5t-0.5 7t-0.5 5.5v2l-2 2q-2 0 -6.5 -0.5t-9.5 0t-8.5 2t-3.5 5.5v2t2 2q12 -1 24.5 -0.5
t25.5 1.5q5 2 8.5 6.5t3.5 10.5q0 3 -1 6.5t-2.5 7t-4.5 5.5t-7 2v0l-2.5 -5l-3 -6t-3.5 -5t-4 -3q-1 0 -3.5 -0.5t-6 -1t-6.5 -1t-4 -0.5h-2h-2l-2 0.5t-2 1.5h-14q-2 0 -2 3t3 4q2 0 6.5 0.5t9.5 1t9.5 1t6.5 0.5q4 1 9 3.5t5 8.5q0 3 -1 5t-4 2h-2t-2.5 -0.5t-3 -0.5
h-1.5h-4q-1 0 -6.5 0.5t-11 1.5t-10 2t-4.5 3v1l2 2l2 2h7h6h6t6 -0.5t7 -0.5q3 -1 6.5 -2.5t6.5 -1.5zM88 102q0 19 2 37.5t4 37.5q1 2 1.5 7t1.5 11.5t2.5 14t3 14t3.5 10.5t4 4q5 0 5 -5t-2 -8.5t-3 -8.5v-3.5t-0.5 -6t-0.5 -6v-3.5l-0.5 -1.5t-1.5 -2.5t-1.5 -2t-0.5 -2
l-0.5 -2.5t-0.5 -3.5q-3 -22 -5 -44t-2 -44v-7q0 -4 0.5 -9t0.5 -10v-6q2 -12 1 -23q1 -4 4.5 -4.5l7 -1t6.5 -2t3 -4.5t-1.5 -4.5t-3.5 -1.5q-5 0 -11 2.5t-11 4.5q-6 1 -13 2.5t-12 4t-9 7t-5 12.5q-1 5 -1.5 10.5t-0.5 11.5v12v10v6v6v6v2q0 2 0.5 6.5t1 10t1 10t0.5 6.5
q2 2 2.5 9.5t1.5 16.5t2 19t2.5 18.5t3.5 14t6 5.5h0.5h0.5q0 -1 1.5 -2l1.5 -1v-7q0 -8 -2 -18t-7 -18q-1 -4 -2 -13.5t-2.5 -20.5t-2.5 -20.5t-1 -13.5v-20v-12.5v-13t1 -13t4 -12.5l0.5 -1.5l0.5 -1.5l19 -9h1h1q2 0 3 1t1 3q0 8 -0.5 16t-2.5 16v5v8.5v8.5v6z" />
</svg>
