<?xml version="1.0" standalone="no"?>
<!DOCTYPE svg PUBLIC "-//W3C//DTD SVG 1.1//EN" "http://www.w3.org/Graphics/SVG/1.1/DTD/svg11.dtd" >
<svg xmlns="http://www.w3.org/2000/svg" xmlns:xlink="http://www.w3.org/1999/xlink" version="1.1" viewBox="-10 0 266 256">
   <path fill="currentColor"
d="M175 179q1 14 4.5 29.5t6.5 28.5q0 1 0.5 3.5t1.5 4.5l2 4t4 2q2 0 2.5 -3t0.5 -5v-3l-0.5 -1.5t-1.5 -3t-1 -3v-1.5q-2 -8 -2.5 -16.5t-2.5 -17.5l-1 -3t-2 -7t-2 -7t-1 -4v-2v-2v-2.5v-2.5q3 -1 7 -5t7.5 -9t6 -9.5t2.5 -6.5v-20l-1 -1.5l-2 -3l-2 -3t-2 -1.5
q-3 -4 -7.5 -5t-8 -2t-6 -3t-2.5 -9v-6t0.5 -8.5t1.5 -8t3 -3.5h27l5 -6l-5 -3h-24q-1 0 -2.5 -1t-2.5 -2v-12q0 -6 1 -11t1 -11q0 -3 -1 -6.5t-5 -3.5t-5 4t-1 7v35q0 5 -0.5 12.5t-0.5 15t-0.5 12.5l-0.5 5l-9 3v5q1 0 3.5 0.5t5 0.5t5 0.5t3.5 0.5q2 0 5.5 0.5t7 2t6 3.5
t2.5 6v21q0 2 -1.5 4.5t-4 4.5t-4.5 4.5t-4 3.5q-3 -1 -4 -3.5t-1.5 -5t-1 -4.5t-2.5 -4t-6 -3t-11 -1h-6q-1 0 -1 1v2t3.5 1.5t8 2.5t8 6t3.5 10q0 2 -0.5 3t-2.5 2q-3 1 -9 1t-12 0.5t-11 1.5t-5 4q0 1 1.5 2t3.5 1h4h2q6 0 12 -1t12 -1h4h2zM44 105q0 9 1.5 15t4.5 10
t8.5 6t14.5 4q1 0 2.5 0.5l1.5 0.5v28l1 2t2.5 4.5t2.5 5t3 4.5q2 4 4 7.5t4 8.5q1 0 2 2.5t2.5 5l3 5t2.5 3.5q0 2 4.5 6.5t9.5 9t9.5 8.5t7.5 4q2 0 3 -1t2 -4q0 -1 -2.5 -3.5l-5 -5t-4.5 -5t-3 -3.5q-3 -2 -8.5 -8t-10.5 -13t-9 -14t-4 -12q0 -3 2 -6t5 -5.5t5.5 -5
l4.5 -4.5q1 -2 1.5 -4t2 -4t2.5 -4t3 -3q4 -3 9.5 -3.5t8.5 -1.5q5 -1 7.5 -5.5t3.5 -10t1.5 -10.5t0.5 -9v-5t-1 -6q-2 -3 -3 -7t-4 -6q-2 -1 -5.5 -2t-7 -2.5t-6.5 -3t-3 -4.5q0 -4 2 -8.5t3 -8.5l21 -20v-6q-6 0 -11 3.5t-9 9t-7 11.5l-5.5 11t-4 8.5t-3.5 3.5
q-9 0 -12.5 -1t-4.5 -3.5t-1 -6.5t-2 -10q-3 -5 -5 -10t-6 -8q-6 -5 -12 -7.5t-13 -2.5q0 4 2 6.5t5.5 4.5t7 4.5t7 6t5.5 9t2 14.5v4q-8 2 -14.5 4.5t-11 6.5t-7 10t-2.5 16zM86 164q0 -1 -0.5 -4.5t-0.5 -7.5v-7v-5v-6v-7q0 -4 0.5 -7l0.5 -3v-4v-6t0.5 -6t0.5 -4
q0 -3 -0.5 -7t0 -7.5t2.5 -6t6 -2.5h7t6 2q1 2 1 9t0.5 14.5t1 14t0.5 9.5v4q0 2 -1 5.5t-3 8t-4.5 9t-5 8.5t-5 6.5t-3.5 2.5h-1l-1 -1.5zM52 108q0 -11 4 -17.5t13 -11.5q0 -1 2 -2l2 -1q1 -1 2 -1.5l1 -0.5q1 0 2 0.5t1 1.5v13q0 11 -1 21.5t-3 21.5h-2h-1q-5 0 -8.5 -2
t-6 -6t-4 -8t-1.5 -8zM119 129v-10t-0.5 -7.5l-1 -7t-0.5 -8.5v-2q0 -1 0.5 -3t0.5 -4.5t0.5 -5l0.5 -2.5l1 -2l8 -1l6.5 6.5l4.5 4.5t3 6t1 12q0 4 -1 8.5t-3 8.5t-5.5 6.5t-8.5 2.5l-1 -0.5l-1 -0.5l-2 -0.5z" />
</svg>
