<?xml version="1.0" standalone="no"?>
<!DOCTYPE svg PUBLIC "-//W3C//DTD SVG 1.1//EN" "http://www.w3.org/Graphics/SVG/1.1/DTD/svg11.dtd" >
<svg xmlns="http://www.w3.org/2000/svg" xmlns:xlink="http://www.w3.org/1999/xlink" version="1.1" viewBox="-10 0 266 256">
   <path fill="currentColor"
d="M175 161q4 0 5.5 3t2.5 7t1 8v6q2 7 4.5 12t4.5 11q1 4 2.5 11t3.5 14t6 12.5t9 5.5h1q0 -1 0.5 -1.5l0.5 -0.5v-1q0 -1 -2 -4.5l-4 -7t-4.5 -7.5t-2.5 -7q-2 -7 -2.5 -14t-4.5 -13l-10 -41v0q0 -1 2.5 -3t5 -5t5 -7t2.5 -10q0 -9 -3.5 -15.5t-9.5 -10.5t-14 -5.5
t-16 -1.5q0 4 5.5 6t12 4.5t12 6.5t5.5 11q0 3 -0.5 6t-1.5 6t-2.5 5t-4.5 2h-1q-1 -1 -3 -2.5t-3.5 -3.5t-3 -3.5l-2.5 -2.5q-1 0 -2 -0.5t-2 -1.5q-4 -1 -8.5 -4t-9 -5.5t-8 -5t-6.5 -2.5v4l1.5 1.5t4 3.5t4.5 4.5t4 3.5q2 2 6.5 4.5t9.5 5t9 5t4 5.5q0 2 -2 3.5t-4.5 2.5
t-5.5 1h-4q-6 0 -10 -2t-7.5 -4.5t-6.5 -4.5t-7 -2h-0.5h-0.5l-0.5 0.5l-0.5 0.5q5 9 12.5 14t17.5 5q4 0 8 -1t8 -1zM43 241v1q0 1 0.5 1.5t1.5 0.5v0q5 0 9 -3t7 -5q11 -8 21 -15t17.5 -16t11.5 -20t4 -26q0 -6 -3 -11t-7 -9.5t-7 -9t-3 -11.5q0 -4 2.5 -6t5.5 -3t7 -2
t7 -3q2 -2 5.5 -5t6.5 -7t4.5 -8t1.5 -8v-1l-0.5 -0.5l-0.5 -0.5q-4 3 -8 8l-8 10t-9 8.5t-13 3.5h-1q-1 0 -1.5 -1l-0.5 -1v-25q8 0 15 -4t12.5 -10t8.5 -13.5t3 -15.5q-3 0 -4.5 2t-2.5 5l-2 6t-3 5t-4.5 5t-5 5.5t-5.5 4.5t-7 2q-3 0 -4 -1t-1 -3q0 -7 1.5 -12.5t3 -11.5
t3 -11.5t1.5 -11.5q0 -2 -0.5 -3.5t-2.5 -1.5h-0.5h-0.5l-1.5 1.5l-1.5 1.5q-2 13 -4.5 25.5t-3.5 25.5q-1 1 -2 1.5t-3 0.5q-5 0 -8.5 -3t-6 -7.5t-4.5 -10t-3.5 -10l-2.5 -7.5t-3 -3h-1q-1 0 -1.5 0.5t-0.5 1.5v0v1q0 7 1.5 13t4 10.5t7 9.5t9.5 10h3.5t5.5 1t3 2v27
q-11 0 -18.5 -5.5t-12.5 -12t-8.5 -11.5t-6.5 -5q0 6 2.5 12.5t7 12t10 10t11.5 6.5q3 1 6 1t5.5 1t4 2.5t2.5 5.5l0.5 2.5t1.5 5t1 4.5t1 3v1q0 4 -4 10t-9 12t-10 11.5t-8 9.5q-1 2 -5 4.5t-7.5 5t-6.5 4.5t-3 4q0 1 1 1.5t3 0.5q5 0 10.5 -4t11.5 -10t12 -13t10.5 -13
l7.5 -10l3 -4q3 0 5 3t2 5v26l-0.5 1.5t-2 4t-2.5 4.5t-2 3q-5 9 -12.5 16.5t-15.5 12.5q-2 1 -5.5 3t-7.5 4.5t-7.5 4.5t-4.5 3t-1.5 2l-0.5 1v1zM173 65l3 3t6.5 7.5t8 10t9 9.5t8.5 7t7 2l1.5 -1.5l1.5 -1.5q-3 -4 -6.5 -5.5t-6.5 -5.5q-8 -5 -13.5 -14t-8.5 -18
q-1 -2 -3 -7.5t-3.5 -11.5t-3 -10.5t-2.5 -4.5h-1.5t-0.5 1v5t-0.5 8l-1 8t-0.5 6q0 6 -2.5 11.5t-6.5 10.5l-8 10l-8 10v1v1q7 0 11.5 -5t7.5 -10.5t5.5 -10.5t6.5 -5z" />
</svg>
