<?xml version="1.0" standalone="no"?>
<!DOCTYPE svg PUBLIC "-//W3C//DTD SVG 1.1//EN" "http://www.w3.org/Graphics/SVG/1.1/DTD/svg11.dtd" >
<svg xmlns="http://www.w3.org/2000/svg" xmlns:xlink="http://www.w3.org/1999/xlink" version="1.1" viewBox="-10 0 266 256">
   <path fill="currentColor"
d="M175 181q3 2 5 7.5t3 13.5t2 16.5t2.5 16t3.5 12t5 4.5t4.5 -3t1.5 -6q0 -8 -2 -15t-4 -14.5t-3.5 -14.5t-1.5 -15q0 -6 2.5 -12.5t6.5 -11.5q1 -8 2 -18t1 -19q0 -8 -1.5 -13.5t-4.5 -8.5t-8 -4t-12 -2q-1 -1 -1.5 -3.5t-0.5 -4.5v-4v-3v-4.5v-2.5l5 -5h22q2 0 2.5 -2
t0.5 -3q0 -2 -1.5 -4t-3.5 -2h-22l-3 -3q1 -8 2 -17t1 -16q0 -3 -1 -5.5t-4 -2.5h-1q-1 0 -2.5 1.5t-2.5 1.5v8v11.5t-0.5 13.5t-0.5 13v11.5v7.5t-0.5 4t-0.5 4.5t-0.5 4l-0.5 1.5l-3 3h-2.5h-3.5h-4h-3q-2 1 -2.5 1.5t-0.5 1.5q0 2 0.5 3.5t2.5 1.5h38q1 0 2 2l2 4t1.5 4
t0.5 3v12v8.5t-0.5 7t-2 6.5l-3.5 7q-3 -6 -4 -10t-3 -6.5t-5.5 -4t-11.5 -1.5h-3h-4t-2 1t-1 2h-0.5t-0.5 1q0 2 2 4t4 2t4.5 -1t4.5 -1q3 0 5 2.5t3 6t1 7v5.5v4.5t-3 2.5l-27 3q-1 1 -1 2.5v2.5q0 2 1 3t2.5 1.5t3.5 0.5h3q11 0 21 -5zM74 181h-1.5t-1.5 2v34q0 3 1 6
t3 5t4.5 3.5t4.5 1.5h27q7 0 10.5 -4.5t3.5 -11.5v-34q0 -1 -2.5 -3t-3.5 -2q-2 0 -2.5 2l-1 4l-1 4t-1.5 3q-5 1 -9 1h-9q-8 0 -11 -1.5t-4 -3.5l-2 -4t-4 -2zM80 205q1 -2 4 -3t6.5 -1.5t6.5 -0.5h5h5h4q2 1 3.5 2t1.5 3q0 10 -6 13.5t-15 3.5h-5h-4q-2 -1 -3.5 -3
t-2 -4.5t-0.5 -5v-4.5zM95 184q0 1 1.5 2t2.5 1l1 -0.5t2 -0.5v-2.5t0.5 -3.5t0.5 -4v-3v-36l1.5 -1.5t1.5 -0.5h2q4 4 6.5 8t4 8.5t1.5 9.5t1 11q1 3 4 3t4 -3t1 -5q0 -9 -4 -18t-9 -15q-2 -3 -4.5 -4.5t-4.5 -3t-3.5 -3.5t-1.5 -6v-3v-3q4 -2 8 -3t9 -1h1q1 0 3.5 0.5
l2.5 0.5l3 32l1.5 2t2.5 3h1q2 0 3 -2.5t1 -3.5q0 -15 -1 -31t-2 -30q0 -1 -1 -1h-2h-2t-3 1q1 6 1 10t-2 8q-1 0 -1.5 0.5l-0.5 0.5h-20l-2 -1v-2v-4q0 -4 1.5 -7t4 -5.5t4.5 -5.5t3 -8v-3t-0.5 -2.5t0 -2.5l1.5 -3q2 -2 4.5 -3t5.5 -1.5t5 -2t2 -4.5q0 -1 -2 -2l-2 -1h-3
q-1 0 -2.5 -0.5t-3.5 -0.5h-2q-16 0 -31.5 1.5t-31.5 1.5q-2 0 -3.5 1.5t-1.5 4.5l0.5 2t1.5 2h20q1 5 1.5 8.5t1.5 7t3.5 6t6.5 4.5q3 1 5 1t4 2v6v3v4t-0.5 4t-2.5 2l-24 -2v-17q0 -1 -2 -1.5t-3 -0.5q-3 0 -4 2.5t-1 5.5v2t0.5 3t1 3t0.5 2v2v3.5v4.5v3q0 10 -2 20t-2 20
q2 0 4 -0.5t4 -1.5t3 -2.5t1 -4.5v-25l5 -5h2.5t5 -0.5t5.5 -0.5t5 -1v0h1l3 2v7q0 5 -1 7.5t-3.5 4l-5 3t-5.5 5.5q-6 6 -7.5 16t-1.5 18q0 4 2 4q3 0 4.5 -5t3.5 -11t4.5 -12.5t6.5 -9.5q1 1 2 4t1 6v5.5v3.5v28zM84 59q0 -4 2 -6t5 -3t6.5 -1.5t6.5 -0.5q2 0 3 3t1 4
q0 6 -2.5 9t-8.5 3t-9.5 -0.5t-3.5 -7.5zM67 24q0 2 1 2.5t2.5 1t3.5 0.5h3q10 0 19 -0.5t20 -1.5q4 0 6 -3t2 -7h-27t-28 2l-1.5 3t-0.5 3z" />
</svg>
