<?xml version="1.0" standalone="no"?>
<!DOCTYPE svg PUBLIC "-//W3C//DTD SVG 1.1//EN" "http://www.w3.org/Graphics/SVG/1.1/DTD/svg11.dtd" >
<svg xmlns="http://www.w3.org/2000/svg" xmlns:xlink="http://www.w3.org/1999/xlink" version="1.1" viewBox="-10 0 266 256">
   <path fill="currentColor"
d="M128 160q0 23 -1 45.5t-1 45.5h5q0 -2 0.5 -6.5t0.5 -9t0.5 -9t0.5 -6.5v-16v-23t0.5 -20t2.5 -10q1 -1 3.5 -2t5 -2.5t5 -2.5t3.5 -2q5 -8 5 -18q0 -1 -0.5 -3l-0.5 -2q-3 2 -4.5 5.5t-2.5 7t-3 6.5t-7 3q-2 0 -2.5 -0.5t-1.5 -3.5q0 -1 -0.5 -3.5t-0.5 -5.5t-0.5 -5.5
t-0.5 -3.5q1 -5 5 -8t8.5 -6.5t8.5 -9t4 -14.5q-4 0 -6 3.5t-4 8t-4 8t-6 3.5q-1 0 -1.5 -1l-0.5 -1v-3q0 -1 -0.5 -3t-0.5 -4v-2v-10t1 -4.5t3.5 -3l7.5 -4.5q3 -2 5 -6t3 -8.5t1.5 -9t0.5 -8.5v-3t-2 -2q-3 2 -4 7t-1.5 10.5t-3 9.5t-10.5 4v-45l-0.5 -1t-1.5 -1h-1
q-1 0 -2 4t-1 9.5v12.5v12t-1 9.5t-3 3.5q-5 0 -7 -4.5t-4 -10.5t-4 -10.5t-5 -4.5q0 6 0.5 14t4.5 13q2 3 5.5 5t6 4t4.5 4.5t2 7.5q0 6 -1 10t-4 10q-3 -2 -6 -5t-5.5 -6.5t-4.5 -5.5t-4 -2q0 9 3.5 14.5t7.5 7.5t7.5 3t3.5 2v30q0 1 -1 2.5l-1 1.5q-3 0 -5.5 -2.5t-5 -6
l-5 -7t-4.5 -4.5v1v1q0 8 3.5 11.5t7.5 6t7.5 5.5t3.5 9zM193 168q3 0 5 6t3.5 15t2.5 20t2 20t3 15.5t4 6.5h1q0 -1 0.5 -2t0.5 -2v-1v0v-2.5t-0.5 -3t-0.5 -3v-2.5q0 -2 -1 -7t-1.5 -11t-0.5 -11.5t-1 -7.5q-1 -3 -2.5 -8t-2.5 -10l-2 -10t-1 -8v-1.5v-1.5q7 -5 9.5 -10
t2.5 -14q0 -4 -2 -10t-5.5 -11.5t-8 -9t-9.5 -3.5q0 5 2.5 8.5t5.5 7t6 7.5t3 9q0 1 -0.5 4l-1 6t-2 5.5t-3.5 2.5q-4 0 -7 -4.5t-5.5 -10t-5 -10t-4.5 -4.5h-1q-1 0 -1.5 0.5t-0.5 1.5v0v1q0 5 2.5 9.5t6 8t6 7.5t2.5 10q0 2 -4 3t-8.5 1t-8.5 0.5t-4 2.5t1 2.5t3 1
t3.5 0.5h3.5q4 0 8 -1.5t8 -1.5zM61 246q0 2 1 2.5t3 0.5q1 0 2 -0.5t1 -1.5q0 -14 -0.5 -27t-0.5 -27q0 -20 2 -39.5t6 -39.5q2 -8 4.5 -16.5t5.5 -16.5t5 -16.5t2 -16.5l-0.5 -2.5t-0.5 -3.5q-5 -4 -11 -7.5t-12 -9.5q-3 -2 -4.5 -6.5t-5.5 -6.5q-1 0 -1 1.5v2.5v3l8 17v1
q0 7 -4 12.5t-8.5 10.5t-8.5 10t-4 11h4l1.5 -1.5l3.5 -3.5t4 -4.5t4 -3.5l3 -6t4.5 -8t5 -7t5.5 -3h2t2.5 0.5t2.5 1t1 1.5v12l-1.5 4.5t-3 10.5t-3.5 12.5t-4 10.5q-3 10 -4 20.5t-2 21.5t-2 20.5t-1.5 18.5t-1 19t-0.5 21v2v5.5t0.5 7.5t0.5 7.5v5.5zM147 182q0 12 2 25
t5 25l2 4t2 4.5t2 4l1 1.5h4q0 -5 -1.5 -9.5t-3 -9.5t-3 -9.5t-1.5 -9.5q-1 -11 -1.5 -23.5t-0.5 -23.5l-0.5 -1l-0.5 -1h-0.5h-0.5h-1l-0.5 1t-1.5 1q-1 3 -1 6t-0.5 5t-0.5 5v5zM108 168q-1 4 -1 9.5t-0.5 11t-1 10.5t-2.5 9q-1 3 -3 7.5t-3.5 8.5t-2.5 7l-1 3v5
q3 0 5 -3.5t4 -8.5t4 -10.5t4 -8.5q0 -2 0.5 -6.5t1 -10t1 -10.5t0.5 -7v-3v-3.5t-2 -1.5h-1v0q-1 0 -1.5 0.5t-0.5 1.5zM45 142q-4 12 -7 26t-3 27q2 0 4.5 -5.5t4.5 -13.5t4 -18t3.5 -18.5t2.5 -15.5t1 -9v-4t-0.5 -6t-1.5 -5t-3 -2h-1h-1zM86 158v13q0 2 0.5 5t0.5 6
t0.5 5.5l0.5 2.5l3 3q0 -3 0.5 -8.5t0.5 -13.5v-16t0.5 -15.5t0.5 -13.5v-9v-3v-3.5t-2 -3.5l-1 1q0 1 -0.5 5t-1 10t-1 12.5t-1.5 10.5v12zM194 71q3 2 5.5 7.5t5.5 11.5t7 10.5t8 4.5h2.5t1.5 -1q0 -2 -2.5 -6t-6 -8.5t-6.5 -9t-3 -6.5q-5 -9 -6.5 -19.5t-2.5 -20.5
q0 -1 -1 -1.5t-2 -0.5h-0.5h-1.5v4t-0.5 6.5t-0.5 6.5t-1 4q0 1 -0.5 5t-0.5 5q-1 4 -5 9.5t-8 10.5t-7 10t-3 7q5 0 9 -3.5t7 -8.5t5.5 -9.5t6.5 -7.5z" />
</svg>
