<?xml version="1.0" standalone="no"?>
<!DOCTYPE svg PUBLIC "-//W3C//DTD SVG 1.1//EN" "http://www.w3.org/Graphics/SVG/1.1/DTD/svg11.dtd" >
<svg xmlns="http://www.w3.org/2000/svg" xmlns:xlink="http://www.w3.org/1999/xlink" version="1.1" viewBox="-10 0 266 256">
   <path fill="currentColor"
d="M51 246v1.5t2 1.5q17 -1 36 -3.5t36 -6.5q13 -3 19 -10t7.5 -16t1 -20.5t-0.5 -23.5v-10.5t0.5 -19t0.5 -23v-23.5t0.5 -19t0.5 -11v-15v-15q-1 -1 -1.5 -1h-2.5h-1.5t-1.5 1q0 2 -0.5 6.5t-0.5 9.5v9.5v6.5q0 5 -0.5 16.5t-0.5 25.5v30v30t0.5 25.5t0.5 16.5q-1 2 -1 4
t-0.5 4t-1.5 4t-2 3q-4 3 -12.5 5.5t-18.5 4t-20.5 3t-19 2.5t-14 2.5t-5.5 4.5zM165 242q1 4 4 4q2 0 3 -1.5t1.5 -4t1 -4.5t0.5 -3q0 -28 -2 -56t-2 -56v-23l0.5 -2t0.5 -4t0.5 -4t0.5 -3t0.5 -4t1.5 -3q3 -5 7.5 -7.5t9 -5.5t7.5 -6.5t3 -10.5q0 -2 -0.5 -4.5t-1 -4.5
t-2 -4t-3.5 -2h-26l-6 4q1 1 2.5 2t2.5 1h19q3 0 4 2t1 4q0 6 -3 9t-7 5.5l-8 5t-6 6.5q-2 2 -3 7l-2 10t-1 9.5v7.5q0 18 0.5 35t1 33.5l1 33t0.5 34.5zM183 128q0 2 1 11t2.5 21.5t4 27t4.5 26t4 19.5t3 8q3 0 5.5 -2t2.5 -5q0 -6 -2 -10.5t-3 -9.5q0 -2 -1.5 -6.5
t-2.5 -9t-1.5 -9t-1.5 -5.5v-2.5t-0.5 -5t-0.5 -5v-3.5v-2v-2v-3v-2q-2 -10 -3.5 -20.5t-1.5 -21.5v-12q1 -4 3 -6.5t4.5 -5t4 -4.5t1.5 -4q0 -4 -3 -4q-2 0 -3 0.5t-2 1.5q-6 5 -8.5 10t-4 10t-1.5 11v14zM53 216q0 4 1.5 6.5t4 4t5.5 2t6 0.5q9 0 14.5 -3t5.5 -13
q0 -5 -2 -7.5t-4.5 -4.5t-4.5 -4t-2 -5t2 -5t4.5 -4t4.5 -5.5t2 -8.5q0 -6 -2 -9t-5 -6t-5 -6t-3 -8l-0.5 -0.5t-1.5 -0.5q-2 0 -3 1t-1 2.5v3.5v3q-1 4 -4 6.5t-5.5 5t-4.5 5t-2 7.5t2.5 7t5.5 3t5.5 2.5t2.5 5.5q0 5 -2.5 7.5t-5.5 5t-5.5 5t-2.5 7.5zM97 214q0 2 2.5 4.5
t5.5 4.5t6.5 3.5t5.5 0.5q8 0 12.5 -5t4.5 -13q0 -4 -2 -6.5t-4.5 -4.5t-4.5 -4t-2 -5q0 -1 0.5 -2.5t0.5 -2.5q5 0 9 -4.5t4 -10.5v-5t-2 -5q-1 0 -2.5 -2t-3.5 -3.5t-3.5 -3.5l-1.5 -2q-2 -2 -2 -3v-2v0h-2q-3 0 -4.5 1.5t-1.5 4.5q-2 2 -4.5 4t-4.5 4.5l-4 5t-2 6.5
t2 6.5t4.5 4.5l5 4t2.5 6q0 2 -2.5 4.5l-5 5t-4.5 6t-2 8.5zM62 213q0 -2 1.5 -3.5l3 -3t3.5 -2t4 -0.5q4 0 6 3t2 7q0 5 -3.5 6t-7.5 1q-3 0 -6 -2t-3 -6zM107 210q0 -5 2 -6.5t6 -1.5t7.5 2t3.5 7q0 4 -3.5 5.5t-6.5 1.5q-4 0 -6.5 -2t-2.5 -6zM62 171q0 -4 3.5 -8t7.5 -4
q2 0 5 0.5t3 3.5v13q0 2 -2.5 3t-4.5 1q-1 0 -3 -1l-4 -2t-3.5 -2.5t-1.5 -3.5zM104 171q-1 -3 0.5 -5.5t3.5 -4.5t5 -3t5 -1q4 0 7 3.5t3 8.5t-3.5 7t-8.5 2q-3 0 -7 -1.5t-5 -5.5zM46 131q0 3 2 4t4 1q11 0 21.5 -1l21 -2t21.5 -1.5t22 -0.5l0.5 -1.5l0.5 -1.5v-0.5v-0.5
v-0.5v-0.5q-3 0 -4.5 -0.5t-3 -0.5h-3.5h-3q-19 0 -37 1t-37 0q-2 1 -3.5 2t-1.5 3zM46 97q0 2 1.5 5l3 6t4 5t4.5 2h19q1 0 2.5 -1.5l3 -3l3 -3t1.5 -2.5v-3v-4q0 -6 -2 -9.5t-5 -5.5t-5.5 -3.5t-2.5 -3.5q0 -4 2.5 -6.5l5.5 -5.5t5 -6.5t2 -9.5v-3.5v-2.5q-3 -5 -8 -7
t-8 -7v-2.5t0.5 -3.5t0.5 -4v-3v-1q0 -2 -1 -2h-2q-3 0 -4.5 2t-2 5t0 6.5t0.5 4.5q-1 2 -4 3t-6 2.5t-5.5 3t-2.5 3.5v16q0 3 3 5t7 3.5t7 2.5t3 3q0 5 -3 8t-7 5.5t-7 5t-3 6.5zM97 97q0 4 1.5 7.5t5.5 6.5q1 0 4.5 0.5t5.5 0.5q4 0 8 -1t7.5 -2.5t5 -5t1.5 -8.5t-2 -7.5
t-5 -4.5t-5 -4t-2 -6q0 -5 2.5 -6.5t5.5 -3.5t5.5 -5t2.5 -10q0 -4 -1.5 -6.5t-3.5 -4.5t-5 -3.5t-6 -3.5v-18h-7q0 8 -1.5 13t-3.5 7.5t-4 4l-4 3t-3.5 4t-1.5 7.5q0 4 2.5 7.5t6 5.5t6 4t2.5 5q0 5 -2.5 7.5t-6 4.5t-6 4.5t-2.5 7.5zM57 98q0 -5 4.5 -7.5t8.5 -2.5t8 2.5
t4 7.5t-3.5 7.5t-8.5 2.5q-4 0 -8.5 -2.5t-4.5 -7.5zM107 95q0 -1 1 -3t2.5 -4t3 -3t3.5 0l11 5l0.5 1.5t0.5 2.5q0 4 -2.5 8.5t-7.5 4.5t-8.5 -3.5t-3.5 -8.5zM68 40q4 0 8 2t4 6q0 6 -2.5 10t-8.5 4h-2q-1 -1 -2.5 -1.5t-3 -1.5t-2.5 -1.5t-1 -1.5v-13q0 -1 1 -1.5t2.5 -1
t3.5 -0.5h3zM106 51q0 -6 3 -8.5t8 -2.5q2 0 4.5 0.5t4.5 1.5t3.5 2.5t1.5 4.5q0 5 -4 8t-8 3q-2 0 -4.5 -0.5t-4 -2l-3 -3t-1.5 -3.5z" />
</svg>
