<?xml version="1.0" standalone="no"?>
<!DOCTYPE svg PUBLIC "-//W3C//DTD SVG 1.1//EN" "http://www.w3.org/Graphics/SVG/1.1/DTD/svg11.dtd" >
<svg xmlns="http://www.w3.org/2000/svg" xmlns:xlink="http://www.w3.org/1999/xlink" version="1.1" viewBox="-10 0 266 256">
   <path fill="currentColor"
d="M148 122q0 10 2 20t5 20q1 2 4 9.5t7 16.5t9.5 19t10.5 18.5t9.5 14t7.5 5.5q2 0 4.5 -1.5t2.5 -5.5q0 -1 -2.5 -6.5t-6.5 -11t-7 -10.5t-4 -6t-2.5 -3.5t-3 -4.5l-3 -4l-1.5 -2q-9 -17 -15.5 -34t-6.5 -37q0 -16 7 -29t17 -26l4 -4t3.5 -4t3 -4.5t1.5 -6.5q0 -3 -1 -7
t-3 -7t-4.5 -5.5t-5.5 -3.5q-5 0 -8.5 -0.5t-6.5 -1t-6.5 -0.5h-6.5h-10t-12 0.5t-10 1.5t-4 4q0 4 2 5.5t5 1.5q9 0 18.5 -2t18.5 -2q4 0 8 0.5t7 2t5 5t2 8.5q0 1 -4 7l-9 13.5t-9.5 14t-6.5 9.5q-3 8 -4 16.5t-1 16.5zM47 94q0 3 0.5 9.5t2 13t5 11.5t9.5 5h27q4 0 8 -2
t7 -5t5 -7t2 -9v-46q0 -2 -1 -5.5t-3 -6.5t-4.5 -5t-5.5 -2h-32q-2 0 -5 1t-5 2.5t-4 4t-3 4.5q0 2 -0.5 7l-1 10l-1 10t-0.5 7v3zM59 99q0 -4 3 -6q2 0 6 -1t9 -1.5t9.5 -1t5.5 -0.5h2h2q2 0 4 0.5t2 3.5q1 0 1 2.5v3.5q0 6 -1.5 10t-5.5 10q-7 2 -11 3t-9 1t-8 -2t-5 -5.5
t-3 -7.5t-1 -9zM59 77l1 -14q2 -1 2.5 -3t1.5 -3q5 -1 13 -3t14 -2q4 0 6 4q1 1 1.5 3.5t1.5 5t1.5 5t0.5 3.5t0.5 1.5t0.5 1.5t-0.5 2.5t-1.5 1.5h-39z" />
</svg>
