<?xml version="1.0" standalone="no"?>
<!DOCTYPE svg PUBLIC "-//W3C//DTD SVG 1.1//EN" "http://www.w3.org/Graphics/SVG/1.1/DTD/svg11.dtd" >
<svg xmlns="http://www.w3.org/2000/svg" xmlns:xlink="http://www.w3.org/1999/xlink" version="1.1" viewBox="-10 0 266 256">
   <path fill="currentColor"
d="M92 245q0 1 0.5 2t1.5 1h1h1l1.5 -1.5l1.5 -1.5v-61q6 0 9.5 6t4.5 13.5t1.5 15t-0.5 10.5q1 2 1.5 2h2.5q3 0 4 -1.5t1 -4.5q0 -13 -2 -23.5t-10 -20.5q-1 -2 -3 -2.5t-4 -1.5t-3.5 -2t-1.5 -3q0 -4 3 -6.5t7 -4.5t7.5 -5t3.5 -8q0 -6 -3.5 -8.5t-7 -4.5t-6.5 -3t-4 -4
q-1 -4 2 -6.5t6.5 -4t7 -2.5t3.5 -2v-17l-1 -0.5t-1 -1.5q-1 0 -3 -1.5l-2 -1.5q-5 -2 -6.5 -4t-2 -4t-1 -3t-4.5 -1q-2 0 -3 1t-1 2.5v3.5q0 1 -1 2q0 2 -3 2.5t-6 2t-5.5 4t-2.5 8.5q0 5 2.5 7.5t6 4.5t6 4.5t2.5 6.5q0 5 -2.5 6.5t-6.5 2.5t-7 3.5t-3 10.5v3v4q3 3 6 4.5
t6 2.5t5 2t2 4q0 1 -3 4.5t-7.5 7.5t-8.5 8.5t-6 9.5t-2 12v12v9q0 1 0.5 1.5t1.5 0.5q2 0 3 -1.5t2 -3.5q0 -6 0.5 -11t1.5 -9t2.5 -8.5t3.5 -9.5q0 -1 1 -2t2 -3t2 -3l2 -2q1 0 2 1l1 1q2 15 2.5 30.5t-0.5 29.5zM157 240q0 2 1 2h3h1.5t1.5 -2v-9q0 -7 -1 -14t-1 -14
q0 -6 0.5 -9l1.5 -9v0h1q5 0 8.5 6t6.5 14t5 15.5t3 10.5q0 1 0.5 1.5l0.5 0.5h1h1q0 -1 1.5 -2t1.5 -2q1 0 1 -2v-3q0 -4 -1.5 -9t-3.5 -10l-4 -10t-5 -8.5t-6 -6t-6 -4.5t-5 -5t-2 -8q0 -2 3 -3t6.5 -3t6.5 -4.5t3 -8.5t-3 -8.5t-7 -4t-7.5 -2.5t-3.5 -3q0 -6 3 -8t7 -4.5
t6.5 -5.5t2.5 -9q0 -4 -2 -6t-5 -2.5t-6 -1.5t-5 -2q-1 -1 -1.5 -2t-1.5 -2t-1.5 -2.5t-1.5 -1.5l-1 -2q-1 0 -1.5 1l-0.5 1v2v3v2.5v1.5q0 2 -2.5 3t-5 1.5t-4.5 2t-2 4.5q0 6 2.5 9t5 5.5t4.5 5t2 7.5q0 4 -1.5 5.5l-3.5 3.5t-3.5 4.5t-1.5 6.5q0 5 1.5 7.5t4 4.5t4.5 4.5
t2 7.5v2v2q-7 6 -11.5 12.5t-6.5 13.5t-2.5 14.5t-0.5 14.5h5l4 -32q1 -1 2 -3t2 -4.5t2.5 -4.5t3.5 -2q1 0 2 0.5t1 1.5q0 14 1.5 28t0.5 27zM80 150q0 -3 2 -5t5 -3t6 -1.5t6 -0.5h3.5h3.5q0 1 1 1.5t2.5 2l2.5 2.5t1 2q0 3 -2.5 5t-5.5 4t-6 3t-5 1q-5 0 -9.5 -2.5
t-4.5 -8.5zM147 149q0 -7 4.5 -9.5t11.5 -2.5h3t4 0.5t3 1.5t1 3q0 7 -5 9t-11 2h-4h-3.5t-2.5 -1t-1 -3zM102 96q5 0 7 1.5t2 6.5q0 2 -1.5 4t-4 3t-5 1.5t-4.5 0.5q-1 0 -3 -0.5t-3.5 -0.5t-2.5 -0.5t-1 -1.5v-11q0 -2 2 -2.5t4.5 -0.5h5h4.5zM145 104q0 -4 1.5 -5.5
t4.5 -2t5.5 -0.5h5.5t5 1t2 5q0 3 -1 5t-3.5 3t-5 1h-5.5q-5 0 -7 -1.5t-2 -5.5zM78 40q0 10 1 16t5 9t10.5 4.5t18.5 3.5v0h19.5t20.5 -2.5t16.5 -8t6.5 -16.5q0 -6 -1.5 -13t-2.5 -13q-3 -4 -8.5 -5.5t-12 -2t-12.5 0t-10 0.5h-12.5t-15.5 1t-14.5 4t-8.5 8v14zM87 50v-2
q1 -1 3.5 -2t3.5 -1h67l3 2l0.5 1t0.5 2q0 6 -5 9t-11.5 4.5t-13.5 1.5h-11h-12q-6 0 -11.5 -1t-9.5 -4.5t-4 -9.5zM85 35q0 -8 6.5 -10.5t14.5 -4.5h4h9t10.5 -0.5t8.5 -0.5h3q4 0 8.5 0.5t8 1.5t6 3.5t2.5 7.5q0 4 -4 5.5t-8 1.5h-31h-7t-11 0.5t-11 0.5h-7t-2 -2v-3z" />
</svg>
