<?xml version="1.0" standalone="no"?>
<!DOCTYPE svg PUBLIC "-//W3C//DTD SVG 1.1//EN" "http://www.w3.org/Graphics/SVG/1.1/DTD/svg11.dtd" >
<svg xmlns="http://www.w3.org/2000/svg" xmlns:xlink="http://www.w3.org/1999/xlink" version="1.1" viewBox="-10 0 266 256">
   <path fill="currentColor"
d="M52 245q0 2 2 2h3h4l137 -9q2 0 4 -2t2 -3l-3 -1h-38l-4 -2v-1v-2v-3v-2v-1t0.5 -2.5t0.5 -2.5v-2q0 -4 -1 -6t-2 -3.5t-2 -2.5t-1 -4v-1v-1l11 -14v-24l-1 -2t-2.5 -4l-3 -4t-2.5 -2l1 -14q2 -2 7 -6.5t10.5 -10.5t9.5 -11t4 -8h-5l-24 23l-2 -2v-2.5v-3.5
q0 -7 4.5 -12.5t10 -10.5t10 -10.5t4.5 -13.5q-2 0 -5.5 2.5t-7 6t-6.5 7t-5 5.5h-0.5h-1.5q-2 0 -2.5 -2.5t-0.5 -4.5q0 -8 4 -14t9 -12t9 -12t4 -14q0 -2 -0.5 -3.5t-3.5 -1.5q-1 0 -3 4.5t-5 10t-5.5 10t-5.5 4.5h-1l-1 -0.5l-1 -0.5q0 -3 0.5 -6.5t0 -7.5t-0.5 -8t-1 -6
l-1 -0.5l-1 -0.5q-2 0 -2.5 3t-1 7.5t-0.5 8.5t-1 7h-2q-4 0 -6 -3.5t-4 -8t-4 -8t-6 -3.5q0 6 2 10.5t5 8.5l6 8l6 8q1 2 1.5 4t0.5 4.5v4.5v3v4v4l-3 1q-1 -1 -3 -3.5l-4 -5t-3.5 -5t-2.5 -3.5l-0.5 -0.5t-0.5 -1.5h-1h-1l-2 2v1q0 3 3.5 8t7.5 11t7.5 12.5t3.5 13.5v4.5
t-3 1.5t-4.5 -2.5t-3 -5.5t-3 -5.5t-4.5 -2.5q-1 0 -1.5 0.5t-0.5 1.5v0q0 4 3 8t7 8.5t7 8.5t3 8q0 5 -3 7q-4 0 -8 -1.5t-8 -1.5q-6 0 -12 2.5t-11 2.5h-2t-1 -2v-11q7 -7 11.5 -14.5t7.5 -16.5q-1 0 -1.5 -0.5l-0.5 -0.5q-3 0 -5 3.5l-4 7t-4.5 6.5t-5.5 3t-4 -2.5
t-1 -5.5q0 -4 1 -6.5t2 -4.5t3 -4l5 -5q4 -6 7.5 -13.5t5.5 -13.5v-1v-1h-2.5t-2.5 2q-1 1 -3 4t-4 6.5l-4 7t-3 4.5h-4l-0.5 -1.5t-1 -4t-0.5 -5v-3.5v-3q0 -4 3 -8t7 -8.5t7 -10.5t3 -13v-3v-3l-0.5 -0.5l-0.5 -0.5h-1q-1 0 -2.5 4t-3.5 8.5t-4 8.5t-5 4q-1 0 -2 -0.5
t-1 -1.5v-28q0 -2 -2 -5t-4 -3v0q-1 0 -1.5 0.5t-0.5 1.5v37q0 1 -1 1.5t-2 0.5q-4 0 -6 -3.5t-4 -7.5t-4 -7.5t-6 -3.5q-2 0 -2 1.5v2.5q0 3 2 7.5t5.5 8.5t7 7.5l5.5 5.5q1 0 3 0.5l2 0.5q1 1 1 2.5t0.5 3.5t0.5 4v2v3t-0.5 4t-1 3.5t-2.5 1.5h-0.5h-0.5q-12 -10 -19 -22
h-1q-2 0 -2 1v3q0 4 2.5 8.5t4.5 7.5l4 4l6 6l5.5 5.5t4.5 3.5v15q-6 0 -9.5 -3.5t-7 -8t-7 -8t-8.5 -3.5v3q0 1 1 2.5t2.5 4t3 4.5t2.5 4l4.5 4.5t6 5.5t7 5.5t6.5 4.5l8 17v1q0 5 -2.5 10t-2.5 10q0 3 1.5 6t3.5 5t3.5 4.5t1.5 5.5t-1.5 6t-3.5 6.5t-3.5 6.5t-1.5 8
q0 3 2 6t2 6q0 1 -1 2l-1 1q-10 2 -20.5 3.5t-20.5 1.5l-2 2l-1 1v1zM105 221q0 -12 7.5 -18t18.5 -6q6 0 9.5 2.5t5.5 6.5t2.5 9.5t0.5 9.5q0 1 -0.5 2.5t-1.5 2.5l-2 2t-2 1h-32q-2 0 -3 -1.5t-1.5 -3.5l-1 -4t-0.5 -3zM122 218q0 4 1.5 6t4.5 2q4 0 5.5 -2.5t1.5 -5.5
t-1.5 -5.5t-4.5 -2.5q-2 0 -3 0.5t-2 2t-1.5 3t-0.5 2.5zM113 188q-2 -1 -3.5 -3.5t-2.5 -6t-1.5 -6.5t-0.5 -5q0 -5 3.5 -9t7.5 -6q6 -1 12.5 -1.5t12.5 -0.5q5 0 7.5 1.5t4 4.5t1.5 6v7q0 3 -0.5 6.5t-1.5 7t-3 6t-6 2.5q-7 0 -14.5 -1.5t-15.5 -1.5zM122 173q0 3 2 3.5
t6 0.5t6 -1.5t2 -5.5q0 -3 -2 -5t-5 -2q-5 0 -7 3t-2 7z" />
</svg>
