<?xml version="1.0" standalone="no"?>
<!DOCTYPE svg PUBLIC "-//W3C//DTD SVG 1.1//EN" "http://www.w3.org/Graphics/SVG/1.1/DTD/svg11.dtd" >
<svg xmlns="http://www.w3.org/2000/svg" xmlns:xlink="http://www.w3.org/1999/xlink" version="1.1" viewBox="-10 0 266 256">
   <path fill="currentColor"
d="M78 246q1 3 2.5 5.5t4.5 2.5t5 -4v-4.5v-5.5q0 -8 -1.5 -17t-1.5 -17q-2 -17 -2 -34.5v-33.5v-10q0 -1 1 -1.5t2 -0.5t2 0.5t1 1.5q4 11 5.5 22.5t2 23.5t0.5 24t1 23h2q4 0 5 -3t1 -7v-2v-2q0 -3 -0.5 -9t-1.5 -14t-1.5 -17t-1 -17t-1 -14.5t-1.5 -9.5q0 -2 -3 -4.5
t-6 -4.5t-5 -3.5t-2 -2.5v-15l1 -1.5t2 -2.5q10 -8 12.5 -19.5t2.5 -25.5v-1v-3v-3v-2q-1 -1 -2.5 -3.5t-2.5 -2.5q0 -1 -1.5 0l-1.5 1q0 10 -0.5 19.5t-1.5 19.5q0 4 -1 6.5t-5 2.5h-2t-2 -2v-59q0 -1 -2.5 -2.5l-2.5 -1.5h-1q-2 0 -3.5 2t-1.5 4v3v6.5t0.5 9.5t0.5 9.5
v6.5q2 3 2 7v8v8q-1 1 -2 1.5l-1 0.5h-1q-2 0 -4 -1.5t-4 -4t-3 -4.5t-1 -3v-26q0 -1 -2 -3t-3 -2q-5 0 -7 4v2.5v2.5v8.5t1 7.5t1.5 8t2.5 9q1 5 4.5 7t7.5 3.5t7.5 2t3.5 1.5v19q-10 6 -15 12t-7 13.5t-1.5 16.5t0.5 21v23.5t2 23.5l1 1.5t2 1.5h0.5h0.5v0v0q1 0 3 -2
t2 -3v-5v-4q0 -11 -1 -21.5t-1 -21.5q0 -2 0.5 -9t1.5 -14.5t3 -13.5t6 -6q1 0 1.5 1l1.5 3l0.5 2t0.5 4t0.5 3.5t0.5 2.5v8t0.5 13t0.5 13v8v7v11v13v13v11v7zM154 242q1 3 2 4.5t4 1.5h1.5h0.5q1 0 2.5 -3l1.5 -3v-61q5 -6 9 -11.5t7 -11.5t5.5 -12.5t6.5 -14.5l1.5 -1.5
l1.5 -1.5q3 -1 4 1.5t2 5.5t1 6v4q0 9 -3 18l-6 18l-2.5 5t-5 11.5t-5 12.5t-2.5 8t1.5 2.5t3.5 0.5q3 0 6 -5t6 -12.5t6 -16.5t5 -18t3 -16t1 -11q0 -8 -3 -15t-7 -13.5t-7 -13.5t-3 -16q0 -7 1.5 -13.5t3.5 -13t3.5 -13t1.5 -13.5q-5 0 -7 3t-3 6.5l-2 7t-5 5.5
q-1 6 -1.5 10.5t-1 8t-0.5 7.5v8t1.5 8t3 8.5l2.5 7.5t1 4q-1 5 -3.5 11t-6 13t-6.5 14t-5 12q-1 2 -1.5 2h-1.5h-1h-1q0 -12 -1.5 -22t-3.5 -22q0 -2 -0.5 -4l-1 -4t-1.5 -3.5t-3 -2.5h-3h-2.5h-3.5h-1q-6 0 -10.5 0.5t-7.5 2.5t-5 6t-2 10v5v8.5v8.5v5q0 18 1.5 35.5
t1.5 35.5v3t-0.5 4.5t-0.5 5v3.5t1 2.5t3 1.5q5 0 7 -3v-7q0 -17 -2 -33t-2 -33v-17l1.5 -2.5t2.5 -2.5h22l0.5 2t0.5 3q1 2 1.5 5t0.5 4v19v16t-0.5 13.5t-0.5 14t-1 17.5zM127 132v-2q0 -3 0.5 -6t1 -5.5t2.5 -2.5h15q2 0 3 2t1.5 4.5t0.5 4.5v3v7q-1 1 -3 2t-4.5 1h-5.5
h-3h-3h-3l-2 -2v-2.5v-3.5zM111 74v4.5t1 7t2.5 6.5t3.5 4l1.5 -0.5t1.5 -1.5q1 -14 2 -27.5t1 -26.5q0 -3 0.5 -5.5t0 -4.5t-2 -3.5t-4.5 -1.5q-1 0 -1.5 0.5l-0.5 0.5v6v7v8v5t-1 4t-1.5 7t-1.5 7t-1 4zM134 91q1 2 2 3.5t3 1.5q1 0 2 -0.5t2 -1.5q-1 -15 0 -28.5t1 -28.5
v-14q0 -4 -3.5 -4.5t-6.5 -0.5q0 6 2 13t2 14q0 9 -2 17t-2 17v12zM153 89q1 3 3 5t5 2q1 0 2.5 -0.5t2.5 -3.5l-0.5 -1t-0.5 -2t-0.5 -2l-0.5 -1q0 -2 -0.5 -4.5t-0.5 -5t-0.5 -5l-0.5 -2.5q0 -5 1 -9t2.5 -8t2.5 -8t1 -8q0 -8 -4 -13t-9 -10h-1q-2 0 -2.5 2t-0.5 3
q0 5 2.5 9.5t2.5 9.5q0 11 -2.5 21t-2.5 20v2v4q0 1 0.5 2.5t0.5 2.5z" />
</svg>
