<?xml version="1.0" standalone="no"?>
<!DOCTYPE svg PUBLIC "-//W3C//DTD SVG 1.1//EN" "http://www.w3.org/Graphics/SVG/1.1/DTD/svg11.dtd" >
<svg xmlns="http://www.w3.org/2000/svg" xmlns:xlink="http://www.w3.org/1999/xlink" version="1.1" viewBox="-10 0 266 256">
   <path fill="currentColor"
d="M161 244v1q0 1 0.5 3.5t2.5 2.5q1 0 2.5 -1t2.5 -2.5t1.5 -3t0.5 -2.5v-58l2 -2q6 0 10 -3t6 -7t2.5 -9t0.5 -11v-3q0 -3 -0.5 -5.5t-1.5 -4t-3 -1.5t-3 2.5t-1 5.5v6v4v3t-0.5 4t-0.5 4v3q-2 1 -3.5 1h-3.5h-3t-1 -3v-3v-4v-4v-3v-4v-4.5v-4.5v-2t0.5 -3t1.5 -3
q2 -2 7.5 -2.5t11 -0.5t10.5 -2t5 -7q-9 0 -16 1t-15 1h-3l-2 -3v-1v-1q0 -1 0.5 -2.5t0.5 -3t0.5 -3l0.5 -1.5q0 -2 3.5 -4t5.5 -4t2.5 -6l1 -8t0.5 -8v-7v-3q0 -2 -0.5 -4t-1 -3.5t-2.5 -1.5q-3 0 -3 3q0 2 -1 4v5.5t-0.5 9.5t-1 9t-0.5 6l-3 1q-1 0 -2.5 0.5t-3 0.5
t-3.5 0.5t-3 0.5h-2q-2 0 -2.5 -3t-1 -7t-0.5 -9v-9t-1 -7t-3 -3h-2.5t-1.5 2v2v4.5v4.5v2v9q0 4 1 8t3 7.5t6 5.5q1 1 3 2l2 1v6v5t-1 4q-2 1 -6 1h-5h-9q-5 0 -9 -2v-11v-7t0.5 -11l1 -12t1.5 -12t2.5 -10t3.5 -5q5 -3 10.5 -3.5t10.5 -2.5h32q1 0 2.5 -1t1.5 -3v0
q0 -1 -1.5 -2l-1.5 -1h-22v-18q0 -3 -2.5 -4t-4.5 -1q-5 0 -5 3.5v8.5q0 1 0.5 3.5l0.5 2.5v3q0 3 -4 4t-9.5 2t-11.5 3.5t-8 8.5q-3 12 -4.5 25t-2 25.5t-0.5 25.5t-1 25v11.5v18.5v17v12q-1 3 -1 5v5v6.5t1 5.5h2h2t2 -1q3 -6 3.5 -9.5t0.5 -8.5q0 -13 -1 -26t-1 -26v-8
v-8t0.5 -8.5t0.5 -9.5q1 -2 4 -2.5t5 -0.5h2h3.5t6 0.5t6 0.5h4.5q1 2 1 4v4v5l-0.5 2.5l-0.5 2.5q0 1 0.5 3.5t0.5 3.5v5v7l-2 2t-3 2q-3 1 -5 -4t-2.5 -11.5t-1.5 -12t-3 -5.5l-1 0.5t-2 0.5q0 1 -0.5 4.5t-0.5 4.5t0.5 4.5t0.5 4.5q2 8 3 11t2.5 4.5t4.5 2.5t9 4l0.5 0.5
l0.5 0.5v23q0 10 -0.5 19.5t-0.5 18.5zM78 248l0.5 0.5l0.5 0.5h1h1l2.5 -1t3.5 -2q2 -64 1 -129l1.5 -1.5t1.5 -0.5q4 0 6 4t3 9t1.5 10t0.5 8q0 17 -1 34t-1 34q3 0 4.5 -1.5t3 -4t1.5 -5.5v-5v-65q0 -7 -1.5 -12.5t-5.5 -11.5q-3 -1 -5.5 -1h-4.5t-3 -1t-1 -6q0 -4 3 -6
t6.5 -3.5t7 -4.5t4.5 -9q1 -1 1.5 -6t1.5 -11.5t2 -12.5t1 -10v0v-1l-1 -2t-2 -2l-1 -2q-2 0 -3.5 1.5t-1.5 3.5q0 1 -0.5 5t-1 9t-0.5 9t-1 5q0 2 -0.5 5.5t-1.5 6.5t-3 5.5t-5 2.5h-3t-2 -2v-68q0 -2 -1 -2.5t-2 -0.5q-4 0 -5 2.5t-1 5.5v0.5v1.5t0.5 5.5t0.5 10v12v12
t0.5 10t0.5 5.5v1v1v1q0 2 -0.5 3.5t-1.5 3t-2 1.5q-2 0 -4 -1.5t-3 -3.5l-0.5 -2t-1 -4.5t-1 -4.5l-0.5 -2q0 -2 -0.5 -7.5l-1 -11t-1 -10.5t-0.5 -7l-1 -0.5t-2 -0.5q-4 0 -5 2.5t-1 7.5v1v0l0.5 1.5t0.5 2.5t0.5 2t0.5 2v9.5t0.5 11.5t2 11t6.5 8q1 1 3.5 1.5l5 1t4.5 1
t2 1.5v10q0 2 -2.5 2.5t-5.5 1.5t-6 2.5t-4 2.5q-3 3 -5 9.5t-3.5 15.5t-2.5 19t-1.5 19t-1 16.5t-0.5 11.5q0 1 1 3.5t2 2.5q5 0 7 -4t2 -8q0 -2 0.5 -6.5t0.5 -10.5t0.5 -12t0.5 -9v-10.5t1.5 -15t4 -13t7.5 -5.5q2 0 2.5 0.5t0.5 2.5q0 1 0.5 3.5t0.5 5t0.5 5t0.5 3.5v3
v7v8v6q0 19 -1.5 38t-1.5 38v5v5z" />
</svg>
