<?xml version="1.0" standalone="no"?>
<!DOCTYPE svg PUBLIC "-//W3C//DTD SVG 1.1//EN" "http://www.w3.org/Graphics/SVG/1.1/DTD/svg11.dtd" >
<svg xmlns="http://www.w3.org/2000/svg" xmlns:xlink="http://www.w3.org/1999/xlink" version="1.1" viewBox="-10 0 266 256">
   <path fill="currentColor"
d="M163 197q0 14 -2 27t-2 27q6 0 8.5 -3t3.5 -7t1 -9v-10v-50q0 -1 2.5 -3.5t5 -4.5t5 -3.5l2.5 -1.5h1q1 0 2 1l1 1q2 7 2 12v12q0 11 -1.5 22t-1.5 22q0 4 4 4q3 0 4.5 -3t2.5 -7.5t1.5 -8t0.5 -5.5v-11q0 -2 -0.5 -8.5t-0.5 -13.5t-0.5 -13.5t-0.5 -8.5q0 -3 -2 -7
t-7 -4h-1h-1l-15 15v0h-1q-3 0 -3 -4v-2v-5v-4v-3q-1 -4 -2.5 -8t-2.5 -8l-2 -8t-1 -8q0 -2 1 -4.5t3 -4.5l4 -4t3 -4h23q2 0 2.5 -1.5t0.5 -2.5q0 -2 -1.5 -4t-3.5 -2q-1 0 -3 0.5l-2 0.5q-1 1 -5.5 1.5t-5.5 0.5q-16 1 -31.5 2.5t-31.5 3.5v2v2t1 1h3.5h3.5q7 0 14 -1.5
t13 -1.5q3 0 4 0.5t1 2.5q0 5 -4.5 11t-11 10.5t-13.5 8t-11 4.5l-0.5 1l-0.5 1q0 5 6 5q4 0 8 -3t8 -6.5t7.5 -6.5t6.5 -3h1q1 0 1 1q1 1 3 6t2 7q0 4 -5.5 8t-12 8t-11.5 7.5t-5 5.5t1.5 2.5t3.5 0.5q4 0 7.5 -2.5t6.5 -6t6 -6t6 -2.5t4.5 2t2.5 5t1.5 5.5t0.5 4.5
q0 4 -3 8t-6.5 7.5t-8 7t-6.5 5.5l-4 4l-4 4l-3.5 3.5l-1.5 1.5v7q4 0 8 -2l3.5 -3.5l5.5 -5.5l5.5 -5.5l3.5 -3.5l1 -0.5t2 -1.5t2 -1.5t1 -1.5h1q1 0 2 1.5t1 3.5v4v2zM83 236q1 2 2 2h2q4 0 5 -2.5t1 -5.5v-24.5t-3 -23.5v-60l1.5 -1t3.5 0q1 0 2.5 2.5t2.5 3.5
q0 2 0.5 6t1.5 9t1.5 9t0.5 5t1 2.5t1 2.5q1 15 1.5 31t0.5 31q0 2 3 2q2 0 3.5 -1t2.5 -4v-7v-7q0 -2 -0.5 -7t-1 -11t-1 -11.5t-0.5 -7.5t-1 -10t-2.5 -17t-3 -16t-3.5 -8q0 -1 -1 -1.5l-2 -1l-2 -1l-1 -0.5q-2 -1 -5 -3.5l-3 -2.5v-14q0 -2 2 -3.5t5 -2.5t5.5 -2t3.5 -2
q2 -2 3 -8t1.5 -13.5t0.5 -14v-8.5q0 -5 -2.5 -6.5t-6.5 -1.5v10q0 5 -0.5 11l-1 12t-0.5 11l-2.5 2.5t-2.5 0.5h-3t-2 -2q0 -1 -0.5 -3t-0.5 -5t-0.5 -5.5t-0.5 -3.5v-2v-2q0 -1 0.5 -6t0.5 -11t0.5 -11t0.5 -7v-1q0 -6 -3.5 -7t-8.5 -1q0 12 1 23.5t1 22.5v19q0 2 -1 4
t-4 2q-4 0 -6 -2t-3 -4.5t-1.5 -6t-0.5 -5.5t-0.5 -5.5t-0.5 -7.5t-0.5 -7.5t-0.5 -5.5q0 -1 -1.5 -2t-2.5 -1t-2 0.5t-2 0.5v10v8q0 7 1 13.5t2 12.5t4 6l19 4v18q0 3 -3 4t-7 2.5t-7.5 4.5t-4.5 12q-1 1 -1 3.5t-0.5 5t-0.5 5.5v4v8t-0.5 15t-0.5 14.5t-1 8.5v3t-0.5 4.5
t-0.5 4.5v3v2t0.5 4t0.5 4v2q2 2 3 2h2q3 0 4 -2.5t1.5 -5.5t0 -6t-0.5 -4v-4.5t0.5 -8.5t0.5 -10.5v-10.5t0.5 -9t0.5 -5v-5v-4.5t0.5 -7.5t0.5 -8v-5q1 -3 3.5 -5.5t6.5 -2.5h2t1 1q3 29 3.5 57t-0.5 57zM120 77q0 1 0.5 2.5t2.5 1.5q6 0 10.5 -3.5t8 -8.5t5.5 -10.5
t4 -10.5l-0.5 -0.5l-0.5 -0.5q0 -1 0.5 -3.5l0.5 -2.5q0 -1 0.5 -3.5t0.5 -3.5l-0.5 -3l-0.5 -3q-1 -3 -2 -3.5t-3 -0.5h-2h-1q-1 5 -1 9v9.5t-0.5 9t-3.5 8.5q-2 3 -4.5 4.5t-5.5 3t-5.5 3.5t-2.5 6zM164 33q0 10 0.5 17.5t3.5 13.5t9.5 9t17.5 3q2 0 3 -1t3 -4v-0.5v-0.5
v-0.5v-0.5l-1 -1l-2 -2q-7 -1 -11.5 -1.5t-7 -2.5t-3.5 -5.5t-1 -10.5v-10q0 -1 1 -3.5l1 -2.5q0 -3 -1.5 -5t-3.5 -2q-5 0 -6.5 3.5t-1.5 6.5z" />
</svg>
