<?xml version="1.0" standalone="no"?>
<!DOCTYPE svg PUBLIC "-//W3C//DTD SVG 1.1//EN" "http://www.w3.org/Graphics/SVG/1.1/DTD/svg11.dtd" >
<svg xmlns="http://www.w3.org/2000/svg" xmlns:xlink="http://www.w3.org/1999/xlink" version="1.1" viewBox="-10 0 266 256">
   <path fill="currentColor"
d="M170 212q5 0 8.5 6t6.5 13t6 13.5t7 6.5q2 0 2.5 -1.5t0.5 -4.5v-4q0 -1 -1.5 -3.5t-2.5 -5.5t-2.5 -5.5t-2.5 -3.5q-1 -2 -2.5 -4t-3.5 -4t-3 -4t-1 -4t1 -4t2.5 -4t2.5 -4t1 -5q0 -7 -4 -11t-10 -5t-12 -1h-11h-5.5t-5 0.5t-5.5 1t-7 1.5q-1 0 -1.5 0.5t-0.5 1.5v0v1
q0 1 1.5 2l1.5 1h1q7 0 15 -0.5t16 -0.5q3 0 5.5 -0.5t5 0.5t3.5 2.5t1 5.5v4.5t-3 2.5h-1q-3 -1 -6.5 -2.5t-5.5 -1.5h-26l-0.5 0.5t-1.5 0.5v1v1q1 0 1.5 0.5l0.5 0.5q2 1 6 1.5t7 0.5h7h6q2 1 2.5 2t0.5 2q0 4 -2.5 5.5t-5.5 2.5t-6.5 1t-5.5 1q-1 0 -3.5 0.5l-5 1l-5 1
t-3.5 0.5l-0.5 1t-0.5 2v1q0 2 2 2h3q9 0 16.5 -1.5t14.5 -4.5q3 -1 4 -1.5t1.5 -1t1 -0.5h1.5zM71 242q0 1 0.5 2.5t2.5 1.5t3.5 -2t2.5 -4q2 -15 2 -30t-0.5 -30t-0.5 -30t2 -30h8l1 4t1.5 10.5t1.5 14.5l2 16t1 14v9q0 2 -0.5 3.5t-0.5 3.5t0.5 7t1 11t1.5 10t2 4
q4 0 5 -3t1 -6v-3q0 -2 -0.5 -7.5t-1 -12t-0.5 -12v-7.5q-1 -2 -1.5 -4.5t-0.5 -5.5v-5.5v-3.5l-1 -1v-16q0 -2 -0.5 -5t-0.5 -6t-0.5 -6t-1.5 -5q-2 -4 -5 -5.5t-5.5 -2.5t-4.5 -2.5t-2 -6.5t1.5 -6.5t3 -2t4 -1t5.5 -3.5q2 -2 4 -8.5t3.5 -13.5t2.5 -14t1 -10
q0 -2 -0.5 -4.5t-3.5 -2.5q-4 0 -6 3.5t-2.5 9t0 11.5t0 11.5t-2 9t-6.5 3.5q-1 0 -2.5 -0.5t-1.5 -3.5v-3v-4v-4v-3q0 -11 1 -22t1 -22q0 -6 -3.5 -7t-8.5 -1q0 5 1.5 9t1.5 9q0 12 -1 22.5t-1 22.5l-0.5 1t-1.5 2.5t-2 2.5l-1 1q-3 0 -5 -3t-2.5 -6.5l-1 -7t-0.5 -5.5
q0 -4 1 -8.5t1 -9.5q0 -4 -1.5 -6t-4.5 -2q-4 0 -4.5 3.5t-0.5 5.5v15t1.5 15t6 12t12.5 5q2 2 2 5.5v5.5v3q0 3 -1 4q-1 4 -4 4.5t-6.5 1.5t-7 5t-4.5 16v1v3v3v2q-2 20 -2.5 41.5t-0.5 42.5q2 0 3.5 -1t2.5 -4q0 -1 0.5 -4t0.5 -6.5t0.5 -6.5t0.5 -5v-12t0.5 -17.5
t1.5 -19.5t2.5 -18t4 -13t6.5 -5l0.5 0.5l0.5 0.5q1 9 1.5 16t0.5 16q0 23 -1 46t-1 46zM157 160l2 2t2 1v0q1 0 2 -1t1.5 -2.5t1.5 -3.5l1 -2v-24q6 0 9 3.5t5 8.5t3 8.5t4 3.5t4 -1t1 -4q0 -7 -4.5 -13.5t-9.5 -11.5q-4 -2 -6.5 -3t-4.5 -2.5t-3 -4t-1 -8.5q0 -2 0.5 -3
t2.5 -1q7 0 12 5t9.5 11t7.5 11t6 5q2 0 4 -1t2 -4q0 -2 -3 -6.5t-7 -9t-8 -8.5t-6.5 -5.5t-5.5 -2.5t-5.5 -1.5t-4.5 -1.5t-4 -4v-1q0 -3 2 -5.5t5 -4.5t6.5 -3.5t6.5 -1.5q2 0 3 0.5t2 1.5t3.5 3t4.5 4.5t4.5 5t3.5 2.5v0.5v0.5q3 0 4.5 -1.5t1.5 -4.5t-2 -6t-5 -5.5
t-6 -4.5t-6 -5q1 -14 -2 -21t-9 -9.5t-15 -3t-21 -0.5h-11h-7l-3 3l3 3l47 5q3 0 6.5 2.5t3.5 6.5q0 2 -2.5 2.5t-4.5 0.5h-3h-1t-2.5 -0.5t-2.5 -0.5h-1q-1 0 -6 -0.5t-11.5 -1l-13 -1t-10.5 -0.5h-1q-2 0 -5.5 1t-3.5 3q0 1 0.5 2t1.5 1q13 0 26 0.5t26 3.5q0 1 1.5 1
t2.5 0.5l2 1t1 1.5q0 3 -4 5.5t-10 3.5t-13.5 1.5t-14 1t-12 0.5t-7.5 1v1q0 1 0.5 2t1.5 2h4h6.5t6.5 0.5t4 0.5h2q3 0 5.5 -1t5.5 -1q2 0 3 3t1 6q0 2 -3.5 4.5t-8.5 5.5t-11 6.5t-11 7t-8.5 7t-3.5 6.5q0 1 0.5 2t2.5 2q2 -1 5 -3.5l6 -5t6.5 -5t4.5 -3.5t3.5 -3l5 -4
l5 -4t3.5 -2q4 0 4 3v6v3v3q-1 1 -3 2t-4 1.5l-2 0.5q-3 4 -6.5 8t-6 9t-4.5 10.5t-2 10.5q2 0 3.5 -0.5t3.5 -1.5l7 -14t6 -16q2 -1 3 -1h2h2t1 1q1 4 1 8.5t0.5 9t0.5 8.5t-1 7z" />
</svg>
