<?xml version="1.0" standalone="no"?>
<!DOCTYPE svg PUBLIC "-//W3C//DTD SVG 1.1//EN" "http://www.w3.org/Graphics/SVG/1.1/DTD/svg11.dtd" >
<svg xmlns="http://www.w3.org/2000/svg" xmlns:xlink="http://www.w3.org/1999/xlink" version="1.1" viewBox="-10 0 266 256">
   <path fill="currentColor"
d="M171 199q-1 1 -2.5 3.5t-3.5 5.5t-4 5.5t-3 2.5q-3 4 -9.5 8.5t-12.5 9t-11 9t-5 8.5q9 0 16.5 -3.5t14.5 -9.5t13 -12.5t12 -12.5q4 -4 6 -8.5t2 -9.5q0 -6 -4 -10.5t-9 -8.5t-9 -7t-4 -7l0.5 -1.5t0.5 -2.5t1 -2.5t2 -1.5l44 -3l0.5 -0.5l0.5 -0.5v-0.5v-0.5v-0.5v-0.5
q0 -1 -1 -2t-1.5 -1h-3.5h-2q-9 0 -18 1l-18 2h-13h-11t-10.5 0.5t-12.5 1.5v1v2t2 1h27l1 1t2 2.5l2 3l1 1.5v2.5t0.5 3t0.5 3.5v2q2 4 5 6l6 4t5.5 5t2.5 7v2.5v1.5zM74 226q0 2 0.5 3.5t3.5 1.5q2 0 3.5 -2t2 -4t1 -4.5t0.5 -4.5v-91l2 -15h0.5h0.5q3 0 4.5 3.5t3 9
t2.5 12t1.5 12t1 10.5t0.5 6v6v10v9v5v2.5v3.5t0.5 4l0.5 2l1 1h1q2 0 3.5 -0.5t0.5 -3.5l0.5 -2.5t0.5 -4.5v-5v-3v-19t-0.5 -19.5t-2.5 -19.5t-5 -19q-2 -3 -4.5 -4.5t-4.5 -2.5t-3.5 -3t-1.5 -6q0 -7 1 -9.5t3.5 -2.5t5.5 -0.5t5 -3.5q3 -4 4.5 -9t2 -10.5t0.5 -10.5v-10
q0 -2 -1.5 -4t-4.5 -2l-1 0.5l-1 0.5q0 1 -0.5 4.5t-0.5 7t-0.5 7t-0.5 4.5v2q0 1 -0.5 3.5l-1 5t-2.5 4.5t-5 2q-1 0 -2 -2t-1 -3v-16v-16.5t1 -16.5q-1 -3 -2.5 -5t-4.5 -2h-1q0 1 -0.5 2t-0.5 2v13t-0.5 14.5t-0.5 14t-1 12.5q-2 3 -5 3t-5 -2.5t-2.5 -7t0 -9.5t0 -9.5
t-2 -8t-4.5 -3.5l-1 0.5t-2 0.5l-0.5 0.5t-0.5 1.5v6v8t1 10.5t2 10.5t3 7q2 4 5.5 4h6.5t5 1.5t2 8.5q0 5 -1.5 8t-4 5t-5.5 3t-5.5 3t-4.5 5.5t-3 9.5q0 4 -1 12t-1.5 16.5t-1.5 15.5t-1 9v10v4t0.5 7t1.5 7t2 3h1q1 0 3 -2t2 -3l5 -82q0 -3 2.5 -5.5t4.5 -2.5q1 0 2 0.5
t2 1.5v4.5t0.5 7.5t0.5 7.5v5.5v0q0 21 -1.5 42t-1.5 42zM146 136q0 1 0.5 2.5t2.5 1.5q4 0 5 -4t1.5 -8.5t3 -8.5t8.5 -4h2q1 5 2.5 9.5t4 8t6 6t8.5 2.5v-5q-2 -2 -4 -4.5t-4 -5.5t-3.5 -6t-1.5 -6l3 -2.5l6 -5t6 -4.5t4 -2q5 -9 5.5 -18.5t0.5 -19.5q0 -3 -1.5 -7t-4 -7
t-6 -5.5t-6.5 -3.5q-1 0 -4.5 -1l-7 -2t-6.5 -2l-3 -1v-16l-2 -1.5t-3 -1.5v0h-1q-1 0 -2.5 0.5t-1.5 1.5v18l-1.5 0.5t-2.5 1.5q-15 4 -23 13.5t-8 25.5q0 5 0.5 10t1.5 10q0 3 1.5 5t3.5 4t3 4.5t1 5.5q0 7 -1.5 11.5t-6.5 10.5v3q5 0 7.5 -2t4 -5.5t1.5 -7.5t1 -7
q0 -2 1 -2.5t2.5 -1.5t2.5 -2t1 -2l-0.5 -0.5l-0.5 -0.5l-3 -3t-4 -4.5t-4 -4.5t-3 -4q0 -1 -0.5 -3.5t-0.5 -5v-5v-3.5q0 -15 8.5 -24t23.5 -9q4 0 8.5 0.5t8.5 1.5t8 3.5t7 5.5q0 1 0.5 3l1 4l1 4t0.5 3v2q0 14 -3.5 21.5t-8.5 11t-11.5 4.5t-11.5 3.5t-8.5 8.5t-3.5 18z
M143 76v9.5t1.5 7.5t5 4t9.5 1q7 0 10.5 -1.5t5 -4.5t1.5 -7.5v-10.5v-3v-4v-4v-2q-1 -3 -3 -5t-4 -3h-4h-4q-6 0 -10 1.5t-5.5 4t-2 7t-0.5 10.5zM151 86q0 -4 1.5 -5.5t6.5 -1.5q8 0 8 7q0 1 -0.5 3.5t-3.5 2.5h-11q-1 0 -1 -3v-3zM149 65q0 -4 3 -5t6 -1q4 0 7 1t3 5
q0 6 -2.5 7t-7.5 1h-3h-3l-2 -4t-1 -4z" />
</svg>
