<?xml version="1.0" standalone="no"?>
<!DOCTYPE svg PUBLIC "-//W3C//DTD SVG 1.1//EN" "http://www.w3.org/Graphics/SVG/1.1/DTD/svg11.dtd" >
<svg xmlns="http://www.w3.org/2000/svg" xmlns:xlink="http://www.w3.org/1999/xlink" version="1.1" viewBox="-10 0 266 256">
   <path fill="currentColor"
d="M149 250q1 1 2 1.5t2 0.5q5 0 6 -4t1 -8q0 -2 0.5 -6t0.5 -9t-0.5 -9t-0.5 -6q1 -1 2 -3t3 -2q4 1 7 4.5t5 8t3.5 9.5t3 9.5t3 7.5t3.5 3q4 0 5 -4t1 -6q0 -3 -2 -8.5t-4.5 -11t-5 -10t-4.5 -5.5t-5 -2t-6.5 -2.5t-6 -3t-2.5 -4.5q0 -2 2.5 -3t6 -2t7.5 -2t7.5 -3t5.5 -6
t2 -11q0 -5 -2 -7.5t-5.5 -3.5t-7.5 -1h-7.5t-6 -1t-2.5 -3q0 -1 0.5 -2.5t1.5 -1.5q5 -1 10 -1.5t9 -2t6.5 -5t2.5 -9.5q0 -3 -1 -4t-2 -1.5t-2.5 -1t-2.5 -2.5q-1 0 -2 -2t-2 -3q-3 -2 -6 -2t-5 -0.5t-3.5 -2.5t-1.5 -8v-2t0.5 -4t1 -3.5l0.5 -1.5v-2v-2v-3v-2
q-1 0 -2 -0.5t-2 -0.5h-1v0q-1 0 -2 1l-2 2v3t-0.5 4.5t-0.5 4.5v3v2v4t-0.5 4t-1.5 3q-3 3 -7 3.5t-7.5 2t-5.5 4t-2 7.5q0 8 3 11t7 4.5t7.5 2t3.5 4.5q0 3 -3.5 4t-8 3t-8 6t-3.5 11q0 6 4 8t8.5 3.5t8 2.5t3.5 5q0 2 -2 4.5t-5 5l-6 5t-5 3.5q-3 4 -5.5 9t-4 10.5
t-2.5 11t-1 10.5q5 0 8 -3.5t4 -8t2 -10t3 -9.5l1 -2t3 -4.5t3.5 -4.5t3.5 -2t2.5 1.5t0.5 3.5q0 9 -0.5 19.5t-2.5 20.5zM71 237q0 2 1 6t4 5q1 0 2 -0.5t2 -1.5t1.5 -2.5l0.5 -1.5q1 -2 1 -5t0.5 -5.5t0.5 -4.5v-2l-2 -3q1 -22 0 -42t-1 -42q0 -5 -0.5 -12.5t1.5 -12.5h3
q3 0 4.5 2t2.5 4.5t1 5.5t1 5q2 19 3.5 39.5t1.5 40.5q0 3 -1 6t-1 6q0 2 1 4.5t4 1.5q1 0 2.5 -1t2.5 -2v-27q0 -22 -2 -43.5t-8 -41.5q-1 -4 -3.5 -6.5t-5 -4.5t-4.5 -4.5t-2 -6.5v-3.5t2 -2.5q1 -1 3 -2l5 -2.5l5 -2.5t3 -1q3 -3 4 -7.5t1.5 -8.5t0 -8.5t-0.5 -8.5
t-0.5 -8t-5.5 -4q-2 0 -3 5t-1 11.5v13.5q0 6 -1 10q-2 1 -3.5 1h-3.5h-3q-2 0 -2 -1v-55q0 -2 -2 -2.5t-3 -0.5q-2 0 -4 0.5t-2 2.5v56q-5 0 -7 -3.5t-3 -8.5t-1.5 -11t-1 -11t-2 -8t-4.5 -2q-4 1 -4.5 2t-0.5 3v3l0.5 2.5l0.5 2.5q1 2 1.5 6t1.5 9t1.5 9t0.5 6q2 3 5 5
t6.5 4t6 4.5t2.5 5.5q0 5 -4 8t-9 6.5t-9.5 8.5t-5.5 14v8v12.5t-0.5 14.5t-0.5 15v12.5v7.5v16v16q-1 3 0.5 3h2.5q3 0 4.5 -2t2.5 -5t1 -6v-5l-0.5 -1t-0.5 -2.5t-0.5 -3l-0.5 -1.5v-1v-1q0 -1 0.5 -6.5t0.5 -11.5t0.5 -11.5t0.5 -6.5v-25q0 -2 1 -8t2.5 -12t4.5 -11t6 -5
v0q1 0 1.5 0.5t0.5 1.5q-1 13 0.5 25.5t1.5 25.5q0 7 -1 13t-1 13q0 9 1 17.5t1 17.5q0 4 -1 7.5t-1 7.5zM139 174v-2.5v-2.5q0 -5 2.5 -7t6.5 -3t8.5 -1h7.5h3h2t4 0.5t4 0.5h3v4q0 9 -5 12t-13 3h-6t-6 -0.5l-6 -1t-5 -2.5zM139 126q0 -4 2 -6t5 -3t6 -1h7h5.5t7 1t6 3
t2.5 6q0 3 -3.5 5t-8.5 3.5t-9.5 1.5h-6.5l-1.5 -0.5t-3.5 -1t-3.5 -1t-2.5 -0.5q-2 -1 -2 -3.5v-3.5zM172 88q0 4 2 8t6 7h3h3h9t7.5 -1.5t6 -4.5t2.5 -9t-3 -9.5l-6 -7t-5 -7t1 -9.5q-1 -3 -5 -3.5t-6 -0.5v17q0 1 -2.5 2.5t-5.5 4t-5 6t-2 7.5zM109 95q1 2 3 3.5t4 2.5
q2 0 5 0.5t4 0.5q4 0 7.5 -0.5t6.5 -2t5 -4t2 -7.5q0 -8 -2.5 -11.5t-5 -5t-5 -2t-2.5 -2.5v-15l-1 -1.5t-2 -1.5q0 -1 -1 -1q-3 0 -4 3t-1.5 6.5t-0.5 6.5t-1 4q0 1 -1.5 2.5t-3.5 3t-3.5 3l-1.5 1.5q-2 2 -2 5v5q0 1 0.5 3.5t0.5 3.5zM115 89q0 -6 4.5 -10t10.5 -4
q5 0 7.5 2.5t2.5 6.5q0 6 -5 8.5t-10 2.5q-3 0 -6.5 -1.5t-3.5 -4.5zM180 86q0 -5 2 -6.5t6 -1.5t7.5 1t3.5 6t-2.5 6.5t-6.5 1.5q-5 0 -7.5 -1t-2.5 -6zM138 51q0 2 1 4.5t2.5 4.5t3.5 3.5t4 1.5h21q3 0 5 -2.5t3.5 -6t2.5 -7.5t1 -6q0 -4 -1 -6t-3 -3t-4 -1.5t-6 -2.5
q-3 -1 -3 -4v-6t-1 -5.5t-6 -2.5q-1 0 -3 0.5t-2 1.5v16q-7 4 -11 8.5t-4 12.5zM147 49v-5q0 -1 1 -2l1 -1h21q1 0 1.5 2t0.5 3v2q0 7 -5 9t-10 2q-10 0 -10 -10z" />
</svg>
