<?xml version="1.0" standalone="no"?>
<!DOCTYPE svg PUBLIC "-//W3C//DTD SVG 1.1//EN" "http://www.w3.org/Graphics/SVG/1.1/DTD/svg11.dtd" >
<svg xmlns="http://www.w3.org/2000/svg" xmlns:xlink="http://www.w3.org/1999/xlink" version="1.1" viewBox="-10 0 266 256">
   <path fill="currentColor"
d="M170 243q0 3 1 5.5t4 2.5t4 -1t3 -4v-8q0 -7 -1 -12.5t-2 -12.5q-1 -5 -1 -9.5t-1 -8.5t-4 -7t-9 -3q-10 0 -15.5 3.5t-7.5 14.5v7t-0.5 11t-1 11.5t-0.5 7.5v3q0 1 0.5 3t2.5 2q1 0 3.5 -1t2.5 -3v-46q0 -2 1.5 -3t3 -1.5t2.5 -0.5h3q6 0 9 2.5t4 7t0.5 9.5t-0.5 10
t-0.5 10t-0.5 11zM71 240q0 2 1 3.5t3 1.5q3 0 4.5 -2.5t1.5 -4.5v-57q0 -1 0.5 -4t0.5 -6.5t0.5 -6.5l0.5 -3v-2v-1q0 -2 -0.5 -6.5t-0.5 -10t-0.5 -10t-0.5 -6.5l2.5 -5t4.5 -3t4.5 3t2.5 7t1.5 8t0.5 5v4t0.5 6.5t0.5 6.5v4q0 3 0.5 10.5t0.5 16.5v16v11q4 0 5.5 -4.5
t2 -10t0 -11t-0.5 -8.5v-3.5v-4.5v-4v-2q0 -3 -0.5 -9.5t-1 -14t-1 -14t-0.5 -9.5q-2 -4 -4 -6t-4.5 -3t-5.5 -1.5t-6 -3.5v-7q0 -8 1.5 -9.5t3.5 -1.5h4.5t5.5 -3q5 -7 5.5 -16t0.5 -16v-3v-5v-4v-3q-1 -2 -2 -2.5t-3 -0.5h-2.5t-1.5 2v1l0.5 2.5t0.5 5t0.5 5t0.5 3.5v1
q0 2 -1 6t-2 8.5t-2.5 7.5t-3.5 3q-3 0 -4 -2.5t-1 -4.5q0 -9 1 -17t1 -16v-16q-2 -3 -5 -3t-4 2t-1.5 5t-0.5 6v4q0 9 1 16.5t1 15.5q0 3 -1.5 6.5t-4.5 3.5q-2 0 -4 -1t-3 -4l-3 -37q0 -1 -1.5 -1.5t-2.5 -0.5q-2 0 -3 0.5t-2 3.5v8v9t0.5 10t1.5 10t3 8q1 3 4 3h6.5
t5.5 3t2 13v1l-0.5 2t-1.5 2q-7 3 -12.5 6.5t-6.5 12.5q-1 2 -1.5 5.5t-1 7.5t-0.5 7v3q-1 2 -1 6v9v9t1 6q-1 1 -1.5 6.5t-1 11.5t-0.5 10.5v5.5q0 2 0.5 3.5t2.5 1.5t4 -2l3 -3q1 -13 1.5 -26.5t1.5 -26.5v-10.5t0.5 -14.5t3 -12.5t8.5 -5.5v110q0 1 -0.5 4.5t-0.5 4.5v1
v1zM116 215q0 1 0.5 3t2.5 2q3 0 4.5 -2.5t2.5 -5.5l4 -36l1 -1.5t2 -2.5t2.5 -2t2.5 -1q1 -1 4 -1.5t6 -0.5h6h5h11.5t11.5 2q4 2 5 8.5t1.5 14l1 15t1.5 11.5h3h3.5t2.5 -2v-5q0 -6 -1 -11l-2 -10q-1 -7 -2.5 -13t-4 -10.5t-7.5 -6.5t-14 -2q-2 0 -8 0.5t-13.5 1.5
t-13.5 2.5t-8 2.5q-2 2 -3.5 9t-3 15t-2.5 15.5t-1 10.5zM120 139q0 6 -1 12t-1 13h6l0.5 -3.5t1.5 -6.5q0 -6 1 -12l2 -12q0 -1 0.5 -1.5l0.5 -0.5h2.5t3 -0.5l3 -1t2.5 -0.5q2 2 2.5 3.5t0.5 3.5q0 3 -1.5 4t-3 1.5t-3 1.5t-1.5 3t3 2q6 0 9.5 -3t4.5 -6.5t1.5 -6.5
t1.5 -3h12q1 0 1 4q0 3 0.5 6.5t3.5 7t9 3.5h1l4.5 -1.5t1.5 -3.5q0 -2 -2 -3t-4.5 -1.5t-4 -1.5t-1.5 -5q0 -3 2 -4.5t5 -1.5h6h6q0 1 -0.5 3t-0.5 4.5v5.5v2q0 2 0.5 4.5t1 6t1 6.5t0.5 4q1 1 1.5 1h1.5q4 0 6 -3v-2.5v-2.5q0 -12 -2 -24.5t-3 -23.5h-1.5h-1.5
q-4 0 -4.5 1.5t-0.5 4v4.5t-4 3q-14 -1 -28 0t-28 1h-4q0 -4 -3.5 -8.5t-7.5 -4.5q0 8 1 16t1 16zM127 93q1 6 3.5 9t6.5 5t9 2h10q19 0 28 -4t12 -12.5t3 -21t1 -28.5v-2v-4.5t-0.5 -4.5t-2 -3.5t-3.5 -1.5q-4 0 -4.5 1.5t-0.5 4t0.5 5t-1.5 3.5q-1 0 -2 0.5t-2 0.5
q-2 0 -4 -1.5t-3 -3t-3 -3t-4 -1.5q0 -1 -0.5 -4.5t-1.5 -7.5t-2 -7t-4 -3q-1 0 -2.5 1t-1.5 3v17l-1 0.5l-1 0.5q-1 1 -3.5 2.5t-5 4t-5 4t-3.5 2.5h-2q-3 0 -3.5 -2t-1 -4.5t-1 -4.5t-3.5 -2t-3.5 1.5t-0.5 4.5q0 14 1.5 27t1.5 27zM135 93q0 -2 2 -3t4 -1h4h3h2.5t4 -0.5
t4 -0.5h2.5h1h4h3h4h2h4h3h3l1.5 1t1.5 2v0v1q0 2 -1.5 3.5t-3 2.5t-4 1.5t-3.5 0.5h-35q-2 0 -4 -2.5t-2 -4.5zM135 76v-1.5v-2.5l2 -0.5t2 -1.5q8 -1 17.5 -2t17.5 -1h5t5 0.5t3.5 1.5t1.5 4q0 4 -6.5 5.5t-14.5 2.5t-16 1h-10h-6q-2 -1 -1.5 -3t0.5 -3zM161 41q1 0 5 1.5
t9 4t9 5t4 4.5q0 1 -2 2.5t-3 1.5h-45v-2l1 -1l2.5 -2.5l3 -3l2.5 -2.5l2 -1t3 -1l1.5 -1t2.5 -2t2.5 -2t2.5 -1zM77 23q1 0 1 1q0 2 -1 2t-1 -2q0 -1 1 -1z" />
</svg>
