<?xml version="1.0" standalone="no"?>
<!DOCTYPE svg PUBLIC "-//W3C//DTD SVG 1.1//EN" "http://www.w3.org/Graphics/SVG/1.1/DTD/svg11.dtd" >
<svg xmlns="http://www.w3.org/2000/svg" xmlns:xlink="http://www.w3.org/1999/xlink" version="1.1" viewBox="-10 0 266 256">
   <path fill="currentColor"
d="M129 238v3t0.5 4.5t2 4.5t3.5 2t3 -2t1 -5q-1 -20 1 -40.5t4 -40.5q1 -1 4.5 -2t8.5 -2.5t11.5 -3.5t12 -4t10.5 -5t7 -7v-1q0 -2 -1 -4.5t-3 -2.5q-1 0 -2.5 1t-2.5 2l-2 2t-1 2q-15 11 -32 11q0 -2 1 -4t3 -3.5t3.5 -3l2.5 -2.5l3 -3t4 -3.5t3.5 -3l1.5 -1.5
q2 -1 4 -1.5t3.5 -1t2.5 -1t1 -3.5q0 -5 -5 -5q-3 0 -4.5 1.5t-4.5 2.5q0 1 -2.5 2.5t-5 4t-5 4t-2.5 2.5q-3 2 -4.5 4.5t-3.5 5.5l-4 6t-5 4q-2 0 -3.5 -1t-2.5 -2.5t-1.5 -3.5t-0.5 -4v-1.5v-1.5l15 -17l0.5 -0.5l0.5 -0.5q0 -2 -1 -3t-3 -1q-4 1 -7.5 4t-6.5 7t-4.5 8.5
t-1.5 8.5q0 5 3.5 9.5t7.5 5.5v6q0 9 -1 18t-2.5 18.5t-2.5 18.5t-1 19zM74 244q1 0 2 1.5t2 1.5t2 -1t2 -2.5t1 -3.5t1 -2v-18q0 -18 -1 -35t-1 -35v-3v-4.5v-4.5v-3q1 -2 2 -3t3 -1q3 0 5 3t3.5 8.5t2 12t1 12t0.5 10.5v7q0 1 0.5 4.5t0.5 7.5t0.5 7t0.5 4v4.5v7.5v7.5
v5.5t0.5 2.5t2.5 0.5q3 0 4.5 -3t1.5 -6.5v-7.5v-6q0 -22 -3.5 -43t-5.5 -43q-1 -1 -4 -2l-6 -2t-5 -2t-2 -3v-14q0 -1 2.5 -2.5t5.5 -3.5t6.5 -4t3.5 -5q0 -11 1 -19.5t1 -18.5v-2v-3.5v-3.5v-2q-1 -2 -2 -2h-3h-2q-3 0 -3 2v45q0 1 -2 3t-4 2t-3.5 -1t-2 -3t-0.5 -4.5
v-3.5q0 -14 1.5 -28.5t1.5 -28.5v-5q-1 -2 -2 -2h-2q-2 0 -4.5 1t-2.5 2v70q0 2 -1.5 2h-1.5q-4 0 -8 -2.5t-4 -6.5v-35q0 -2 -2 -2.5t-3 -0.5q-4 0 -5 3t-1 7q0 5 0.5 11.5t1.5 13.5t3.5 13t6.5 10q2 1 4 1h4t3.5 0.5t2.5 2.5q0 1 0.5 3t0.5 3q0 6 -2 8t-4 3.5t-5.5 3
t-6.5 5.5q-5 7 -6 15.5t-1 16.5q0 2 -0.5 8.5t-1 14t-1 14t-0.5 8.5v14v15q0 1 1.5 1h1.5q5 0 6.5 -7.5t2 -19t0.5 -24.5t0.5 -24.5t3 -19.5t7.5 -8q3 0 3 6q-1 26 0.5 52t0.5 53zM144 214v1l1 3h11h7q5 0 11 -0.5t12 -0.5t11 -1t8.5 -2.5t3.5 -3.5q0 -3 -0.5 -4.5
t-3.5 -1.5q-6 0 -12 0.5t-11 0.5q0 -5 -1 -9.5t2 -9.5q1 -3 3.5 -3.5t5.5 -1t5.5 -1.5t2.5 -5q0 -2 -1 -3t-3 -1q-5 0 -9.5 0.5t-10 1.5t-10.5 2t-10 1l-1.5 0.5l-3 1t-3 1.5t-1.5 2q1 4 2 4.5t3 0.5q4 0 7 -1t6 -1q2 0 3.5 1.5t2.5 3.5t1 4v4q0 3 -1 5.5t-2 4.5
q-1 0 -2.5 0.5t-3 0.5t-3.5 0.5l-2 0.5h-3t-4.5 1t-4.5 2t-2 2zM153 112q0 4 1 4.5t3 0.5h1h1q1 -2 2 -5t3 -4t5 -4t6.5 -6t6 -5t3.5 -2q3 0 5 2.5l4 5t5 5t8 2.5q0 -3 -2.5 -7.5t-6 -9.5t-7.5 -8.5t-6 -3.5v0h-1q-1 1 -4 4.5t-6.5 7.5t-6.5 7t-4 3v0v0q-1 -1 -1.5 -2
l-0.5 -1v-20q0 -1 3 -4t7 -6l8 -6t5 -3q3 0 4.5 1.5t3.5 3t3.5 2.5t4.5 1q2 0 3 -0.5t1 -3.5q0 -2 -2 -4.5t-5 -5t-6.5 -4.5t-4.5 -2v-2q-3 0 -6.5 3.5t-7 7.5t-6.5 7.5t-5 5.5v-10v-4.5v-5.5t1 -5.5t2 -4.5q2 -1 5.5 -2.5t6.5 -3.5t5 -5t2 -7q0 -2 -1 -2.5t-3 -0.5
q-3 0 -5 1.5t-4 3.5l-4 4l-3 3q-7 6 -10 11.5t-3 14.5q0 2 0.5 6.5t1 10t1 10t0.5 5.5v26zM110 109q0 2 1 3t2 1l0.5 -0.5t1.5 -0.5q1 -1 3 -3.5t4.5 -6t4.5 -6t5 -2.5q2 0 3.5 2t2.5 4l2 4t3 2t2.5 -1t0.5 -3t-1.5 -5.5t-3.5 -7t-5 -6.5t-6 -3q-1 0 -4.5 4t-7 8.5t-6 9.5
t-2.5 7zM110 69v2.5t2 1.5q3 0 5.5 -3t5.5 -6t5 -6t4 -2t3 3.5t2.5 4.5l3 4t3.5 2v-6.5t-1 -8.5t-3.5 -7t-6.5 -3h-3q-6 5 -10 11t-10 11v2z" />
</svg>
