<?xml version="1.0" standalone="no"?>
<!DOCTYPE svg PUBLIC "-//W3C//DTD SVG 1.1//EN" "http://www.w3.org/Graphics/SVG/1.1/DTD/svg11.dtd" >
<svg xmlns="http://www.w3.org/2000/svg" xmlns:xlink="http://www.w3.org/1999/xlink" version="1.1" viewBox="-10 0 266 256">
   <path fill="currentColor"
d="M161 249l1.5 1.5t1.5 0.5q3 0 4.5 -2t2.5 -4t1 -5v-5q0 -11 -1 -21.5t-1 -21.5v-23q1 -3 3.5 -3h4.5q3 0 4.5 1.5t2 4t1 5.5t0.5 5q0 1 0.5 4.5t0.5 7.5t0.5 7.5t0.5 4.5v32q0 1 1 1.5t2 0.5v0h1v0q1 0 1.5 -0.5t0.5 -1.5q1 -1 2 -3t1 -3v-48l-5 -20q-1 -3 -4.5 -5
t-7 -2.5t-7 -1.5t-3.5 -3v-21l2 -2q6 0 11 -0.5t8 -2.5t4.5 -5.5t1.5 -10.5v-4t-0.5 -5.5t-2 -4.5t-3.5 -2t-4 0.5t-2 2.5v20l-3 3h-12q-1 0 -1 -2v-2v-4v-4t0.5 -6t0.5 -5.5v-4.5q1 -2 2.5 -3l3 -2t3 -1.5t3.5 -2.5q1 -1 1.5 -4.5l1 -7t1 -6t2.5 -2.5h19q2 0 2.5 -1.5
t0.5 -3.5t-0.5 -3t-2.5 -1h-18l-7 -8h-1h-1q-3 0 -3.5 1.5t-1.5 3.5t-3.5 4t-7.5 2q-4 0 -6 -1.5t-3 -3t-2 -3.5t-4 -2q-2 0 -3 0.5t-1 3.5l0.5 2t1.5 2q-1 0 -2 0.5l-1 0.5q-4 0 -7 -4t-3 -8q0 -3 3 -5t7 -2.5t8 0t6 0.5h9h7.5t7.5 0.5t9 0.5q2 -1 2.5 -2t0.5 -3v-2t-2 -2
h-56l-0.5 -1t-0.5 -2q-1 -1 -1 -3t-0.5 -4t-0.5 -4v-3t-2 -1h-2h-2h-2t-2 0.5l-1 0.5v15q0 1 -0.5 1.5t-1.5 0.5q0 1 -1 1.5l-1 0.5h-52q-4 0 -6 1t-2 4v2.5t1 1.5h15q11 0 21 -1t20 -1h5q1 0 2.5 1l1.5 1v14l-0.5 0.5t-1.5 0.5l-4 4t-4 1t-4 -1.5t-2 -4t-2 -4t-4 -1.5
q-2 0 -3.5 1.5t-3.5 4t-4 4t-7 1.5q-4 0 -5 -3t-2 -8h-1.5h-1.5q-2 0 -3 1.5l-2 3t-2 3.5t-3 3h-5t-6.5 0.5t-6 2t-2.5 5.5v1.5t1 1.5h6q3 0 6.5 -1t7.5 -1q3 0 4 1.5t1.5 4t0.5 4.5t1 4q0 1 1.5 1.5l3 1t2.5 1t1 1.5v1q0 1 -1 3.5l-1 2.5v3.5v6.5v5v4q-1 3 -2 3.5t-4 0.5
q-5 0 -6.5 -1.5t-2 -4t-0.5 -5.5t-0.5 -5.5t-2.5 -4t-7 -1.5q0 6 0.5 12t2.5 11t6.5 8t12.5 4l2 3v19l-19 6l-0.5 0.5l-1 1t-1 1.5t-1.5 2.5t-1.5 3l-0.5 1.5q-3 14 -3.5 28.5t-0.5 28.5q0 1 -0.5 2.5t-0.5 2.5v0v1v0q1 1 3 2t3 1q3 0 4.5 -1.5t2 -4t1 -5.5t0.5 -4
q0 -5 -1 -8.5t-1 -7.5v-1q1 -2 1 -6.5t0.5 -9t0.5 -7.5v-3q0 -5 2 -9.5t8 -4.5q2 0 3.5 0.5t2.5 2.5v8q0 18 -1 36.5t-1 37.5q4 0 7.5 -1.5t3.5 -6.5v-65v-3t1 -4t2 -3.5t3 -1.5q5 0 6.5 3t1.5 6v62q0 1 1.5 1.5l1.5 0.5q2 0 3.5 -1.5l3.5 -3.5q-1 -9 0 -17t1 -17
q0 -8 -1.5 -16.5t-1.5 -16.5q0 -3 2.5 -7t3.5 -6q1 -1 2 -2.5t2.5 -2.5t2.5 -2l1 -1h14q1 0 3 2t3 4.5t1.5 5t0.5 4.5q0 6 -2.5 12t-3.5 12q0 3 -0.5 9.5t-1 14.5t-0.5 14.5v9.5v2q0 2 3 2q2 0 4 -1t2 -3v-49q0 -4 3 -8t4 -8h9l1 1.5l1 1.5v1q0 16 -1 32.5t-1 32.5v14z
M86 134q0 -2 2 -3.5t4.5 -2t6 -2t6 -4.5t4.5 -8t2 -13q0 -3 -1.5 -4.5t-4.5 -1.5q-1 0 -3 0.5t-2 2.5v17q0 2 -2 2h-3q-4 0 -5.5 -1t-1.5 -5v-2t0.5 -2.5t0.5 -3v-2.5v-2v-3v-4v-3q1 -2 3.5 -2.5t5 -1.5t4.5 -2t3 -3q1 -4 1.5 -7t1.5 -4.5t3.5 -2t7.5 -0.5q2 0 4 1t2 3v2
v8.5t-0.5 14t-0.5 14v8.5q-1 9 -1 13t-2 6t-5.5 4t-9.5 8l-1 1l-2 2l-2 2l-1 1h-2h-3h-3h-3q0 -1 -0.5 -2l-0.5 -1l-0.5 -2t-0.5 -4.5t-0.5 -5t-0.5 -4.5v-1zM134 81v-5t0.5 -5.5t2 -4.5t4.5 -2q5 0 6 2.5t1 6t-0.5 7t2.5 5.5q1 0 2 0.5l2 1t2.5 0.5t1.5 1q1 0 2 1l1 1v28
q0 1 -2.5 2l-2.5 1v1q-2 0 -3.5 -3.5t-2 -7.5l-1 -8t-0.5 -5h-2q-3 0 -3 3v10q0 10 2.5 13.5t6 4.5t6 0.5t2.5 1.5v21q0 2 -1 2h-2h-0.5h-1.5q0 -1 -1 -2l-2 -2t-1.5 -2t-1.5 -2l-5.5 -5.5l-4.5 -4.5t-3 -4.5t-1 -6.5v-6.5t-0.5 -10.5t-0.5 -11.5v-8.5q0 -1 -0.5 -3.5
t-0.5 -3.5zM81 73v-4q1 0 3 -0.5t2 -1.5h2q3 0 6 1t3 6q0 1 -0.5 2.5t-2.5 1.5h-11q-1 0 -1.5 -0.5t-0.5 -1.5v-2v-1zM156 70v-1v-2q4 -2 6 -2.5t5 -0.5q2 0 3.5 0.5t3.5 1.5v5q0 3 -1 5t-5 2q-5 0 -8.5 -2t-3.5 -6z" />
</svg>
