<?xml version="1.0" standalone="no"?>
<!DOCTYPE svg PUBLIC "-//W3C//DTD SVG 1.1//EN" "http://www.w3.org/Graphics/SVG/1.1/DTD/svg11.dtd" >
<svg xmlns="http://www.w3.org/2000/svg" xmlns:xlink="http://www.w3.org/1999/xlink" version="1.1" viewBox="-10 0 266 256">
   <path fill="currentColor"
d="M80 248q0 2 1 2.5t2 0.5q2 0 3.5 -1t2.5 -4q-1 -15 2 -29q0 -1 1 -2t2 -1q1 -1 3 1t2 3v27q0 1 2 1h2q2 0 3 -1t2 -3v-9q0 -4 -0.5 -10.5t-2.5 -10.5q-1 -2 -3.5 -3l-5 -2t-4 -2t-1.5 -3t2 -3l5 -2.5t5.5 -4t2.5 -8.5q0 -8 -2.5 -11.5t-5.5 -4.5t-5 -2t-2 -5q0 -3 2 -4.5
t4.5 -3t5 -4t2.5 -8.5v-8q-1 -1 -2.5 -1.5t-2.5 -1.5q-3 -1 -4.5 -2.5t-2.5 -3.5l-1.5 -3t-1.5 -1q-2 0 -2.5 1t-1 3t-0.5 3v2q-2 2 -4.5 2.5l-5 1t-4 2t-1.5 5.5t2 6.5t4.5 5t5 4.5t2.5 6q0 2 -0.5 3l-1.5 3q-1 0 -4.5 0.5t-4.5 0.5q-4 1 -4.5 3.5t-3.5 4.5v17q0 2 2.5 2.5
t5.5 0.5h5t2 1v9q0 1 -1.5 1.5t-2.5 0.5q-7 2 -11 5.5t-5.5 8t-2 10.5t-0.5 13q2 0 5.5 -1t4.5 -3q0 -6 1 -12t3 -12q1 -1 2.5 -1h2.5q3 0 3.5 3t0.5 5v1v4t-0.5 6.5t-0.5 7v4.5v0zM174 187q0 14 3.5 25.5t10.5 22.5q1 3 2.5 6.5t5.5 3.5q2 0 4 -0.5t2 -3.5q0 -4 -2 -8
t-4.5 -8t-5.5 -8.5t-4 -7.5t-1.5 -6t-1 -5.5t-0.5 -4.5v-7v-4v-4l1 -2t1.5 -4.5l1 -5t1.5 -3.5q1 -2 2.5 -4t3 -3.5t2.5 -3.5t1 -4q0 -6 -3 -9t-7.5 -4t-9.5 -1.5t-9 -0.5q-2 0 -2 -1v-3q0 -8 2.5 -12t6.5 -6.5t10 -4t12 -5.5q2 -1 2 -2v-3v-3q0 -3 -0.5 -4.5t-1.5 -3
t-3 -1.5t-2.5 1.5t-1 3.5t-0.5 4.5t-2 3.5q-1 0 -4 1.5t-5.5 3t-4.5 3t-3 1.5q-3 1 -10 4.5t-15 7t-14 7.5t-6 6t2 2.5t3 0.5q3 0 6.5 -1.5t6.5 -3.5t5.5 -4.5l4.5 -4.5h1q2 0 3.5 1t1.5 3v1v1q-4 11 -7 20.5t-7.5 17.5t-10 16.5t-12.5 17.5l-1 3v1q0 2 0.5 2.5t2.5 0.5
q5 0 10.5 -6.5t10 -15t7.5 -16.5t5 -12q1 -1 1 -3t0.5 -3.5t1.5 -3t2 -2.5q3 -2 6 -2h6h3t4.5 0.5t4 1.5t1.5 3t-1 4.5t-2.5 5t-3.5 4.5t-2 4q-2 6 -3.5 12t-1.5 11zM73 184q0 -4 2 -6t4.5 -2.5t5.5 -0.5h6h3.5h2.5l2 2v10q0 2 -2 2.5l-4 1t-3.5 1l-1.5 0.5h-1q-4 0 -9 -1.5
t-5 -6.5zM78 142q0 -2 1.5 -3.5t3.5 -2t4.5 0t4.5 0.5q3 0 5 0.5t2 3.5q0 2 -0.5 3.5t-1.5 3.5h-2.5t-3 0.5t-3 0.5h-2.5h-1q-2 0 -4.5 -2t-2.5 -5zM111 126q0 1 1 1.5t2 0.5t2 -0.5l3 -1.5q-1 -6 -0.5 -12t1.5 -11l0.5 -0.5t1.5 -0.5q3 0 4 1.5t1.5 3.5t2.5 3.5t6 1.5
q0 -5 -2 -8.5t-4.5 -6t-4.5 -5.5t-2 -7v-1l1.5 -2l1.5 -2q1 -1 2 -3t2 -5t2 -5t2 -3v-1v0l-2 -2v0q-2 0 -3.5 1.5t-3 4t-2.5 4.5t-1 3h-2q-2 0 -3.5 -2.5t-2 -5.5t-0.5 -6.5v-5.5v-2t1 -2q3 0 6 -0.5l6 -1t4.5 -2.5t1.5 -5h-19l-0.5 -0.5t-1.5 -0.5v-0.5v-0.5q0 -4 3.5 -5
t8 -2t8 -3t3.5 -9v0q0 -3 -1 -5t-4 -2q-2 0 -3 2l-2 4t-2.5 4t-5.5 3q-1 0 -3 -0.5l-2 -0.5v-13l-1 -0.5t-2 -1.5v0h-1v0l-2 2l-1 1v28l-2 2h-2.5t-6.5 0.5t-8 0.5h-6h-3h-3q-1 -1 -1.5 -2.5t-1.5 -3.5t-2 -3.5t-3 -1.5q-1 0 -2 0.5t-1 2.5t-0.5 7.5t-0.5 11.5t-0.5 11.5
t-0.5 7.5v2v5v5v3q0 4 -1.5 7.5t-2.5 7.5l-2 8t-1 8q0 2 1 2.5t3 0.5q3 0 5 -2.5t3 -6.5t1 -8t1 -6q0 -2 0.5 -5.5l1 -7l1 -7l0.5 -3.5v-5t0.5 -6.5t0.5 -6.5v-4l3 -3l2 -0.5t4.5 -0.5t5 -0.5t4.5 -0.5h7h5l3 3q0 5 2 9.5t3.5 9l3 9t1.5 8.5t-0.5 7.5t-3.5 6.5zM75 85
q0 6 0.5 11t2 8t5.5 4t10 1h3h3l4 -5v-24q-2 0 -3 1.5l-2 3t-4 3t-10 1.5q-1 0 -2 -1t-1.5 -2l-1 -2t-1.5 -1h-1l-0.5 0.5t-1.5 0.5v1zM83 98q0 -3 3 -3h5h4t2 3t-2.5 4t-4.5 1t-4.5 -1t-2.5 -4zM144 90q0 4 4 4l1 -0.5t2 -1.5l2 -1.5l2 -1.5q4 -2 10.5 -4t13.5 -5.5
t12 -7.5t5 -8v-3t-0.5 -3.5t-1.5 -3t-3 -1.5t-3.5 1.5t-2 4t-0.5 4.5v3q-1 3 -8 6.5t-14 6.5t-13 5.5t-6 5.5zM77 69q1 3 3 3h4h4.5h5t4.5 -1t2 -3v-1l-0.5 -0.5l-0.5 -0.5h-5h-3h-7.5t-6.5 3zM143 58q0 1 0.5 2t1.5 1q3 0 6 -1t6 -2.5t5.5 -3t5.5 -2.5q5 -2 8.5 -3.5
t6.5 -3.5t4.5 -5t1.5 -9q0 -1 0.5 -3t0 -4t-1.5 -3t-3 -1t-3.5 1.5t-1.5 2.5t-0.5 3t-0.5 4v4v3q-3 4 -7.5 6.5t-9.5 4t-10 3.5t-9 4v2z" />
</svg>
