<?xml version="1.0" standalone="no"?>
<!DOCTYPE svg PUBLIC "-//W3C//DTD SVG 1.1//EN" "http://www.w3.org/Graphics/SVG/1.1/DTD/svg11.dtd" >
<svg xmlns="http://www.w3.org/2000/svg" xmlns:xlink="http://www.w3.org/1999/xlink" version="1.1" viewBox="-10 0 266 256">
   <path fill="currentColor"
d="M65 247q0 2 2 2h3q4 0 6 -5t2.5 -11.5t0 -13t-0.5 -10.5q0 -1 -0.5 -4.5l-0.5 -3.5v-3.5t-0.5 -5.5t-0.5 -6v-4v-8t0.5 -14t0.5 -15v-11q1 -5 1.5 -10.5t3.5 -10.5q1 0 3 -1t4.5 -1.5t4.5 -1t3 -1.5h4h6.5t10.5 -0.5t12.5 -1t12.5 -0.5t10.5 -0.5t6.5 -0.5h7h6l3 3
q1 18 3 34.5t3.5 33.5t2.5 34t0 34q4 2 6 2t3.5 -0.5t1.5 -2.5v-47q-1 -2 -1.5 -4.5t-0.5 -6t0.5 -6t0.5 -3.5q0 -2 -0.5 -7t-1 -11t-1 -11.5t-1.5 -7.5v-1.5t-0.5 -2.5t-0.5 -2v-2q-1 -11 -1.5 -17.5t-3.5 -10t-9 -4t-19 -0.5q-19 0 -39 0.5t-39 4.5q-3 1 -5.5 3.5t-4 6.5
t-2 8t-0.5 6v51q0 1 0.5 4.5t0.5 4.5q0 13 -1.5 26t-1.5 26v7zM90 229q0 3 1 4t3 1l1 -0.5t2 -0.5h1.5t3.5 -0.5t3.5 -0.5h2.5t5 -0.5t9.5 -1t12 -1t12 -1t9.5 -1t5 -0.5t3.5 -0.5l5 -1t4.5 -1.5t2 -3q0 -1 -0.5 -2.5t-1.5 -2.5h-2h-3q-6 0 -12 1.5t-13 1.5l-1.5 -1t-1.5 -2
v-1q0 -5 3 -9t7 -7.5t7.5 -7t3.5 -9.5q0 -3 -2 -6t-4.5 -6t-5 -5t-4.5 -4q-1 -1 -1 -2v-1q0 -5 4 -6.5t8.5 -2t8 -1t3.5 -4.5q0 -2 -2.5 -2h-3.5q-4 0 -7.5 1t-7.5 1t-5.5 -1.5t-1.5 -5.5v-1l0.5 -1.5l1 -3l1 -3l0.5 -1.5q4 -2 10.5 -2.5t10.5 -0.5l1 -3v-1q0 -1 -1 -1.5
t-2.5 -1t-3 0l-1.5 0.5q-10 0 -20.5 1.5t-18.5 2.5q-9 1 -14 3t-7.5 5.5t-3.5 9t-1 14.5v7q0 1 0.5 3t0.5 4t0.5 3.5l0.5 1.5l13 12l2.5 0.5t7 0.5t8.5 0.5t7 0.5h2q5 0 5 -4v-1.5t-1 -0.5l-30 -3q-2 -1 -3 -2.5t-2 -4t-1 -5v-3.5q0 -3 3 -5t6.5 -3t8 -1t7.5 -1h2h2
q1 3 4.5 7t6.5 8.5t6 8.5t3 6q0 4 -2.5 6.5t-5.5 5t-6 4.5t-5 5q-1 2 -1.5 5l-1 6t-2.5 5t-5 2l-31 3q-2 1 -2 2v2zM103 143q0 -4 1.5 -7t5 -5t7 -2.5t6.5 -0.5h3.5h3.5q2 3 2.5 6.5t0.5 7.5q0 2 -2 3.5t-5 2.5t-6 1h-5h-9q-3 -2 -3 -3v-3zM60 29v7.5t0.5 12.5t2 14t3.5 13
t5.5 10t8.5 4h6.5t7 -0.5t6 -2t2.5 -4.5h-7.5t-8.5 -1t-7 -3t-3 -7v-1.5v-2.5v-2t1 -1l16 -3l5 -5q-2 -3 -6 -3q-3 0 -6 1t-6 1h-2h-2q-2 -2 -2 -3v-3v-2t2 -2h3.5t5 -0.5l5 -1t3.5 -0.5q2 -1 3.5 -2t1.5 -3q0 -1 -0.5 -2l-0.5 -1h-4q-4 0 -7.5 0.5t-6.5 0.5q-4 0 -5 -2.5
t-1.5 -5.5t-2 -5t-5.5 -2q-3 0 -4 2t-1 5zM108 85q0 3 3 3h1q2 0 4 -1.5t4 -2.5t4 -2.5t4 -1.5q4 0 7 2.5t6 4.5l1.5 0.5l1.5 0.5l1 -1l2 -2v-1q0 -2 -1 -3.5t-2.5 -2.5t-3 -2.5t-1.5 -3.5t2 -4.5l4 -5t4 -6.5t2 -9q0 -4 -3.5 -7t-6.5 -6v-1q0 -3 1.5 -4.5t3.5 -3l4 -3
t2 -4.5t-2 -4l-4 -2l-3.5 3.5l-5 5t-5 4t-4.5 1.5l-0.5 -0.5t-1.5 -0.5q-1 -2 -2 -3.5t-2.5 -3.5t-3.5 -3t-4 -1t-3.5 1t-1.5 3v1.5v0.5l10 10v6l-10 10v1v2q0 5 1.5 8.5t3.5 6t3.5 4.5t1.5 4q0 3 -2 4l-4 2t-3.5 2.5t-1.5 4.5zM158 79q-1 2 -1.5 4t-0.5 4h4.5t3 -0.5
t3 -0.5t4.5 -1q9 -1 13 -3t5.5 -5.5t1.5 -8.5v-14q1 -7 2.5 -14.5t1.5 -15.5q0 -3 -0.5 -4t-3.5 -1t-5 1t-2.5 3t-2 4t-2.5 4q-2 2 -5.5 2t-7 0.5t-6.5 1t-3 3.5v0.5v0.5l1 1t2 1h20q2 0 2 2v2q0 6 -3.5 7t-8 1.5t-8 2t-3.5 6.5q5 0 8 -1t7 -1q2 0 4.5 1t1.5 4q0 5 -2 7.5
t-5.5 4t-7 2t-7.5 0.5zM117 54q0 -2 1.5 -4.5t3.5 -4t4.5 -2.5t4.5 -1q4 0 7.5 4t5.5 7q-1 0 -2.5 2t-4 4.5t-5 4t-4.5 1.5t-4 -1t-3.5 -3t-2.5 -4t-1 -3z" />
</svg>
