<?xml version="1.0" standalone="no"?>
<!DOCTYPE svg PUBLIC "-//W3C//DTD SVG 1.1//EN" "http://www.w3.org/Graphics/SVG/1.1/DTD/svg11.dtd" >
<svg xmlns="http://www.w3.org/2000/svg" xmlns:xlink="http://www.w3.org/1999/xlink" version="1.1" viewBox="-10 0 266 256">
   <path fill="currentColor"
d="M171 184q4 17 9.5 32.5t11.5 31.5q1 2 1.5 2.5t2.5 0.5t3.5 -1t1.5 -4t-1 -6.5t-2.5 -7l-3 -7t-2.5 -6.5q-1 -5 -3.5 -9.5t-4.5 -10t-4 -10.5t-2 -9q0 -1 4 -5t8.5 -9.5t8.5 -12.5t4 -14t-3 -10.5t-7.5 -5.5t-9.5 -3t-9.5 -1h-7.5t-3 -1v-19l1 -1t1 -1.5t0.5 -1l0.5 -0.5
l26 -3q2 -1 3.5 -2.5t2.5 -3.5t1.5 -4t0.5 -4v-3v-7v-6v-4v-3t0.5 -6.5t0.5 -6v-3.5v-3q0 -2 -1 -5t-4 -3q-1 0 -2 0.5t-2 1.5v9t-3 9l-0.5 1l-0.5 1h-22l-0.5 -1l-0.5 -1v-1q0 -5 1 -9.5t1 -10.5v-2q0 -1 -0.5 -3t-0.5 -3v-3q1 -4 -1 -5t-4 -1h-3.5t-1.5 3v39h-20l-0.5 1.5
t-0.5 2.5v0v1l1 0.5t2 0.5h18v26q0 3 -4.5 4t-9.5 1.5t-9 1t-4 3.5v1l0.5 0.5l0.5 0.5h24v6t-0.5 6l-1 6t-2.5 5q-1 0 -3.5 0.5t-5.5 1t-5.5 1.5t-2.5 3t1 2.5t3 0.5q6 0 11.5 -0.5t11.5 -0.5q5 0 10.5 -0.5t10.5 0t8 3t3 9.5q0 2 -0.5 6t-2 8t-3.5 7t-6 3q-3 0 -4.5 -2.5
t-3.5 -5.5t-5 -6t-9 -3l-5 0.5t-10.5 1t-9.5 2t-4 3.5t1 2h2q6 0 11.5 -0.5t11.5 -0.5q2 0 3 -0.5t3 1.5q0 1 1 3t2 3.5t2 3.5t2 3v0.5v1.5q0 5 -6.5 8t-14.5 5t-15 3.5t-7 4.5l0.5 0.5l0.5 0.5l0.5 0.5l0.5 0.5h3h2q9 0 18 -4t16 -8h1h1q0 1 1.5 2zM79 157q0 3 0.5 10
t1.5 16.5t2.5 19t3.5 18t4.5 14t5.5 7.5q1 0 2 -1t1.5 -2t0.5 -2.5v-1.5v-1l-0.5 -1t-0.5 -2l-0.5 -0.5l-1.5 -1.5q-2 -5 -4 -12t-3.5 -14l-3 -14t-1.5 -13q0 -15 0.5 -32t4.5 -33q2 -6 3.5 -11.5t3 -10.5t2.5 -10.5t1 -13.5v-2q0 -2 -0.5 -6l-1 -8t-1 -7.5t-0.5 -4.5
q0 -2 -2 -5.5l-4 -7t-5 -6t-6 -2.5q-2 0 -3 0.5t-1 2.5q0 5 2.5 10t6 10t6 11t2.5 13q0 9 -2 19t-7 17l-5 44q-2 3 -1.5 7t0.5 7zM53 175q0 9 1 16.5t2 18.5q0 2 1 5.5t2 6.5t3.5 5.5t6.5 2.5q1 0 2.5 -2t1.5 -3l-0.5 -2t-1.5 -2q0 -1 -0.5 -2.5t-1.5 -3.5t-1.5 -3.5
l-0.5 -1.5q-4 -10 -4.5 -19t-0.5 -20v-19q4 -8 5 -17.5t3 -18.5v-1q0 -2 -1 -3.5t-3 -1.5q-3 0 -4.5 4.5t-3 12t-2.5 16t-1.5 15.5t-1 12zM103 174q1 1 1.5 5.5t1 9.5t1.5 10.5t2 10.5t3 8t4 3q3 0 3.5 -2t0.5 -4q0 -6 -2.5 -11.5t-4.5 -11.5q-1 -9 -2 -18.5t-1 -18.5
t2.5 -19t2.5 -19q0 -2 -0.5 -3t-1.5 -1q-2 0 -5 3t-4 6q1 10 0 19.5t-1 19.5v13zM62 91q0 2 2 3t3 1q3 0 4.5 -2t3 -4.5t2 -5t0.5 -3.5v-26q0 -2 -1 -5t-3 -5t-4 -3.5t-5 -1.5q-4 0 -4 4q0 3 1.5 6.5t3.5 7.5t3.5 7.5t1.5 7.5q0 3 -1.5 5.5t-3 4.5t-2.5 4.5t-1 4.5zM107 90
q0 4 4 4q2 0 4 -2.5t3.5 -5.5t2.5 -6t2 -5v-3.5t0.5 -5.5t0.5 -5.5v-3.5q0 -2 -0.5 -6t-1.5 -8t-3 -7t-5 -3q-4 0 -4 3q0 7 2.5 14.5t2.5 14.5v5v5l-2 4t-2.5 3.5t-2.5 3.5t-1 4zM165 62l3 -4h2t4.5 -0.5t5.5 -1t5 -0.5l1 -0.5l1 -0.5q1 0 2 0.5t2 1.5v6q0 13 -4.5 18.5
t-17.5 5.5q-2 0 -3 -1.5t-1 -2.5v-21z" />
</svg>
