<?xml version="1.0" standalone="no"?>
<!DOCTYPE svg PUBLIC "-//W3C//DTD SVG 1.1//EN" "http://www.w3.org/Graphics/SVG/1.1/DTD/svg11.dtd" >
<svg xmlns="http://www.w3.org/2000/svg" xmlns:xlink="http://www.w3.org/1999/xlink" version="1.1" viewBox="-10 0 266 256">
   <path fill="currentColor"
d="M132 244q3 4 4.5 5.5t5.5 1.5q0 -14 -2 -27t-2 -27q0 -3 1 -9.5t2.5 -15t3.5 -17t4.5 -16t6 -12.5t7.5 -5t7.5 0.5t6.5 1.5t5.5 3.5t2.5 6.5q0 7 -3.5 11t-8 8.5t-8 10t-3.5 14.5q0 3 2 9.5t5 14.5t6.5 16.5t8.5 16t9.5 12t9.5 4.5q3 0 3.5 -2.5t0.5 -4.5v-2q0 -2 -1 -2
q-5 -7 -11.5 -15t-11.5 -16t-8 -17t-3 -19q0 -5 3.5 -9.5t7.5 -7.5t7.5 -5.5t3.5 -4.5v-18q0 -4 -4.5 -7t-10 -4.5t-11 -2t-7.5 -0.5l-2 -1v-5t-0.5 -6.5t-0.5 -6.5t-1 -4q0 -1 -0.5 -2.5t-0.5 -2.5v-1v0q0 -1 0.5 -1.5l0.5 -0.5q2 -1 5.5 -2.5t4.5 -2.5q1 1 4 3.5t6.5 5.5
t7.5 7l7 7t5.5 5t3.5 2q3 0 4.5 -1.5t1.5 -4.5q0 -4 -4.5 -9t-10.5 -9.5t-12 -8.5t-10 -8v-34v-2.5t-0.5 -4t-0.5 -4v-2.5q-1 -2 -3.5 -2.5t-3.5 -0.5q-3 0 -3 3v4q0 9 1 18t1 18v10q-2 2 -8 6.5t-12.5 9.5t-12 9t-5.5 6v1l3 3h1v0q3 -1 5.5 -3l5 -4t4.5 -4t5 -2q1 0 1 0.5
v0.5l1 0.5l1 0.5v4v4q0 10 -2.5 19.5t-6 18.5t-6.5 18.5t-4 18.5q-1 8 -1.5 14.5t-0.5 15.5v9q0 2 0.5 6t1 8.5t1 8.5t0.5 5zM74 193q0 1 1 3.5t1.5 5.5t1 5.5t1.5 3.5q0 3 1.5 8.5t3.5 11.5t4.5 10.5t6.5 4.5q2 0 4 -1t2 -3q0 -3 -1 -5t-2.5 -4t-2.5 -3.5t-2 -3.5
q-2 -6 -4 -13t-3.5 -14t-2.5 -14t-1 -13q0 -12 2 -24l4 -24t3.5 -24t1.5 -24v-3v-5v-3v-3t-0.5 -5.5t-1 -9.5t-1 -9.5t-0.5 -6.5q-1 -2 -2 -5t-3 -5.5t-4.5 -4.5t-5.5 -2h-4t-2 3v0.5v1.5q4 4 7.5 10.5t5.5 13t3.5 13.5t1.5 13t-0.5 10.5t-2 9.5t-2.5 9.5t-2 9.5q0 1 -0.5 5
t-1 9t-1 9t-0.5 5t-0.5 3t-1 4.5t-1 4.5l-0.5 2v43zM47 173v9v10t0.5 10t1.5 9q0 2 1 6t2.5 8t3.5 7t4 3t4 -1.5t2 -4.5v-2l-0.5 -1.5l-1 -3l-1 -3l-0.5 -1.5q-3 -11 -5.5 -22.5t-2.5 -22.5v-3v-4v-3.5v-1.5q0 -2 1 -8t2.5 -13t2.5 -13t2 -8v-2v-1q0 -2 -0.5 -4t-4.5 -2
l-1.5 1t-1.5 2q-1 4 -2.5 9.5t-2.5 11l-2 11t-1 8.5v3v5v7v5zM97 162v5t0.5 5.5t0.5 5.5v2q0 3 1 10.5t3.5 15t5.5 13t7 5.5q3 0 4 -0.5t1 -3.5q0 -4 -2.5 -6.5t-4.5 -6.5q-1 -4 -2.5 -9t-3 -10.5t-2.5 -11t-1 -9.5q0 -8 1 -17.5t2 -18.5q1 -3 2.5 -6.5t1.5 -7.5l-0.5 -2
l-0.5 -2q0 -1 -1 -1.5t-2 -0.5l-1.5 3t-2.5 6t-2.5 6.5l-1.5 3.5v3t-0.5 4.5t-0.5 4v2.5v3q0 2 -0.5 4.5t-0.5 6.5v4zM61 76q0 6 -1 10t-1 9q5 0 8 -2.5t4 -6.5t1 -8.5v-8.5q0 -2 -0.5 -8.5t-2.5 -12.5t-6 -10.5t-9 -4.5q-2 0 -3 0.5t-1 2.5t1 4t2.5 4l3 4t1.5 4q2 7 2.5 12
t0.5 12zM104 91q0 3 3 3q4 0 6 -4.5t3 -10t1 -11v-7.5t-0.5 -8t-2 -12t-3.5 -10.5t-6 -4.5q-2 0 -3 2.5t-1 3.5q0 4 1 8l2 8l2 8t1 8q0 7 -1.5 13.5t-1.5 13.5zM127 70q0 1 0.5 2.5t1.5 1.5t2.5 -0.5t2.5 -1.5q5 -4 7 -7t3 -7t1 -8v-10v-3v-4v-4v-3q-2 -3 -4 -3
q-1 0 -2.5 0.5t-1.5 1.5v27q0 3 -1.5 5.5t-3 4.5t-3.5 4t-2 4zM184 34q0 6 0.5 12.5t3 12t6.5 9.5t12 4q2 0 3.5 -1.5t1.5 -4.5t-2.5 -4t-6 -2.5t-6 -3t-2.5 -4.5v-26q0 -1 -1.5 -2.5t-2.5 -1.5q-2 0 -3.5 1t-2 3t-0.5 4v4z" />
</svg>
