<?xml version="1.0" standalone="no"?>
<!DOCTYPE svg PUBLIC "-//W3C//DTD SVG 1.1//EN" "http://www.w3.org/Graphics/SVG/1.1/DTD/svg11.dtd" >
<svg xmlns="http://www.w3.org/2000/svg" xmlns:xlink="http://www.w3.org/1999/xlink" version="1.1" viewBox="-10 0 266 256">
   <path fill="currentColor"
d="M119 249q0 2 3 2q1 0 2 -0.5t1 -2.5t0.5 -5t1 -6.5t1 -6.5t0.5 -5v-3.5v-5.5q0 -16 -1 -34t-2 -34q-1 -1 -2.5 -3.5t-2.5 -2.5h-1l-2 2v33v19t0.5 17t0.5 17t1 19zM155 139v0q-1 1 -1.5 2l-0.5 1v39q0 4 2.5 11.5t6.5 15t9 14t9 10.5l2 1t4.5 2t4.5 2.5l2 1.5q3 1 5 4
t6 3q0 -4 -2.5 -7t-5.5 -5.5t-6.5 -4.5t-5.5 -5q-2 -4 -6 -9t-6 -9q-4 -7 -6 -14t-3 -14.5t-1.5 -15.5t-0.5 -15q-1 -4 -1.5 -5.5t-3.5 -2.5h-1zM52 231v1l0.5 0.5t1.5 0.5v0v0h0.5h0.5q1 -1 3 -2t3 -1q13 -12 20 -25t7 -31v-5.5t-1 -9t-3 -8t-5 -3.5t-3 2v4v4t0.5 5.5l1 5
t1.5 3.5q-2 18 -8.5 31.5t-18.5 26.5v1zM64 139q0 2 1 2h2q5 0 10 -2.5t8.5 -6t6 -8.5t2.5 -10q0 -3 -1 -5.5t-3 -5t-4.5 -4t-5.5 -1.5h-1.5t-1.5 1q1 1 2 2.5t2 4t1.5 4.5t0.5 3q0 8 -2 11.5t-5 5t-6 3.5t-6 6zM101 136q0 1 1 1.5t2 0.5q4 0 8 -2.5t8.5 -6t8 -7l5.5 -5.5
v-2v-3q0 -4 -2 -7t-5.5 -5.5t-7.5 -3.5t-8 -1q0 3 1.5 5t4 4t4 4t1.5 5q0 5 -3.5 9t-7 6.5t-7 4t-3.5 3.5zM165 116q-2 2 -5.5 4.5t-7.5 5t-7 5t-3 4.5q4 0 10.5 -2t12 -5t9.5 -7t4 -9q0 -4 -2 -6.5t-5 -4.5t-6.5 -3t-6.5 -1q0 2 1 4t2.5 3.5t2.5 3.5t1 4v2v2zM171 52
q0 4 0.5 10.5t3 13t6.5 11.5t10 5q2 0 3.5 -0.5t1.5 -2.5v0q-1 -5 -5 -8t-7 -6q-2 -2 -3.5 -7t-2 -10t-1 -9.5t-0.5 -7.5l-0.5 -0.5t-1.5 -0.5v0h-1q-1 0 -2 1t-1 2v9zM56 86v4h3q1 0 2 -1l2.5 -2.5l3 -3t1.5 -2.5q1 0 2 -2t1 -4q1 -1 2 -4t2.5 -6l2.5 -5t1 -3q1 -2 1 -6
v-8.5v-8.5v-6q1 -2 3 -3.5t5 -1.5q2 0 6 1.5t4 4.5v39q-1 4 -1 7v7v7l1 1h1h1q3 -3 3 -6.5t1 -8.5q0 -1 0.5 -6.5t1 -13l1 -15t0.5 -11.5v-2q0 -13 -12 -13h-4q-4 1 -9.5 1.5t-10.5 0.5t-9 0.5l-4 0.5l-3 3q1 2 2.5 3t4 1.5t4.5 0.5t4 1v11q0 14 -2.5 25.5t-11.5 23.5z
M120 81q0 1 0.5 1.5t1.5 0.5h1q2 0 4.5 -3t4 -6.5t2.5 -7t1 -5.5q0 -4 -1 -7.5t-3 -7t-5 -5.5t-8 -2q0 3 1 5.5t2.5 5.5t2.5 5.5t1 6.5q0 5 -2.5 9.5t-2.5 9.5zM148 75l3 1.5t2 0.5q2 0 3 -4.5t1.5 -10.5l1 -12t2.5 -9q3 -6 6.5 -10t9.5 -9q2 -2 5.5 -2.5t7 -0.5t6 -0.5
t2.5 -3.5q0 -1 -2 -2.5t-3 -1.5h-74l-2 3l3 2h2.5t3 0.5t3 0.5h2.5q3 2 6.5 7.5t6 11.5t4.5 12t2 10v3v2.5t-0.5 4.5t-1 4.5zM138 17h14h13q1 1 3.5 1.5l2.5 0.5v1q0 1 -3 3l-4.5 3t-4.5 3.5t-5 2.5h-1z" />
</svg>
