<?xml version="1.0" standalone="no"?>
<!DOCTYPE svg PUBLIC "-//W3C//DTD SVG 1.1//EN" "http://www.w3.org/Graphics/SVG/1.1/DTD/svg11.dtd" >
<svg xmlns="http://www.w3.org/2000/svg" xmlns:xlink="http://www.w3.org/1999/xlink" version="1.1" viewBox="-10 0 266 256">
   <path fill="currentColor"
d="M122 249q0 2 3 2t4 -5q0 -10 1.5 -19.5t1.5 -19.5q2 -17 2 -34t3 -34q0 -1 0.5 -2l0.5 -1q4 -5 10 -8t12 -5q1 0 4.5 -1t8 -1.5t8 -1.5t4.5 -1q1 -1 2 -1.5l1 -0.5q7 -5 10.5 -13.5t5 -18.5t1.5 -19.5v-17.5v-8q-1 -3 -1.5 -4t-2.5 -1q-4 0 -5.5 5.5t-2 13t-0.5 15v10.5
q0 1 -0.5 4.5t-1 7.5t-1 7.5t-0.5 4.5q-2 5 -6 7.5t-9.5 4.5t-12 3t-12.5 3t-11 5.5t-8 10.5q-2 4 -3 9t-1 10v9q0 5 -1 9q-1 18 -2.5 35t-1.5 34v7zM94 240l4 3q2 -1 2.5 -3t0.5 -5q0 -1 -1 -4.5t-2.5 -8.5t-3 -10.5t-3 -10.5t-3 -8t-1.5 -4q-1 -12 -2 -21t-1 -20t2.5 -21
l5 -20l5 -20t2.5 -21q0 -4 -1 -10.5t-4 -12.5t-7.5 -10.5t-10.5 -4.5q-2 0 -2.5 1t-0.5 2q0 2 1.5 4l3 4t3.5 4l3 3q2 3 3 6.5l2 7t1 7v7.5q0 9 -2.5 17.5l-5 17t-5 16.5t-2.5 17v1v0q0 1 0.5 2.5t1.5 2.5q-1 14 0 25t3 22t6 22t8 23zM51 193q1 5 2.5 11t3.5 12t5 12t7 9
q2 -1 2.5 -2.5t0.5 -3.5q0 -4 -1 -7t-2.5 -6t-3.5 -6t-2 -7q-2 -8 -4 -16.5t-2 -17.5q0 -11 2 -22t2 -22v-2v-3l-0.5 -0.5l-0.5 -0.5q0 -1 -1 -1v0q-4 0 -5 4t-2 7q0 1 -0.5 3.5t-0.5 6v6.5v4v21v21zM149 210q2 2 4.5 3.5t4.5 2.5h4.5h4.5q18 0 25 -7t7 -25v-5t-1 -6v-28
q0 -3 -1.5 -5t-3.5 -2.5t-4.5 -1t-4.5 -0.5q-8 0 -14.5 1t-11.5 4.5t-8 9t-3 13.5q0 12 1.5 23t0.5 23zM101 187q3 2 4 6t2 8.5t3 7.5t6 3q0 -5 -1 -9t-2.5 -7.5t-3 -7.5t-2.5 -8t-1.5 -7.5t-0.5 -7.5v-8v-7v-3v-5.5v-5.5v-3l2 -6v-1q0 -2 -1 -3t-2 -1h-2t-1 1q-1 5 -2 9
t-1 7v6.5v7.5v8.5v7.5t1 8.5t2 9.5zM183 189h3t2 1v12q0 2 -3 3t-7 2t-8 1h-4h-3h-3.5t-3 -0.5t-1.5 -2.5v-12q0 -1 4 -1.5t9 -1.5t9.5 -1h5.5zM153 177q0 -6 3.5 -9t8.5 -3.5t10.5 -0.5h10.5q4 0 4 3v6v5q-2 3 -5.5 4t-7.5 1.5t-8.5 0.5h-7.5q-5 0 -6.5 -1.5t-1.5 -5.5z
M184 142q5 3 5 9q0 4 -3 5.5t-7 1.5q-1 1 -4.5 1t-7.5 0.5t-7.5 0.5h-4.5v-1v-1q0 -6 3 -8.5t7.5 -4.5t9.5 -2.5t9 -0.5zM122 110q0 1 1 1h2h1q1 -1 4.5 -3.5t4.5 -3.5q2 -1 3.5 -3t3.5 -4.5t3.5 -4t3.5 -2.5t5.5 1.5t7 5.5t7.5 6t8 3q0 -6 -2.5 -9t-6 -5.5t-8 -4t-8.5 -4.5
q-1 -1 -2.5 -2t-2.5 -1t-2.5 2t-2 4t-0.5 3l-19 18l-0.5 1t-0.5 2zM57 104q0 3 3 3t5 -4t3 -9.5t1 -10.5v-6v-12q-1 -2 -2 -5t-2.5 -5.5t-3.5 -4.5t-5 -2q-2 0 -2 1v3q0 4 1 8t2.5 8t2.5 8t1 9t-2 9.5t-2 9.5zM111 83q-2 4 -4 9t-2 11q1 0 2.5 -0.5t2.5 -1.5q11 -18 11 -40
q0 -2 -0.5 -4.5t-1.5 -5.5t-2.5 -4.5t-3.5 -1.5q-1 0 -1.5 0.5l-0.5 0.5v37zM153 57q4 0 7.5 3.5t6.5 7.5t6 7t6 3q1 0 2 -0.5t1.5 -1t0.5 -1.5v-2q0 -5 -3.5 -9t-8 -7.5t-9 -6.5l-7.5 -5h-1q-1 0 -4 2.5t-6 5.5l-6 6l-4 4l-9 9v2q5 0 9 -2.5t7 -6t5.5 -6t6.5 -2.5z" />
</svg>
