<?xml version="1.0" standalone="no"?>
<!DOCTYPE svg PUBLIC "-//W3C//DTD SVG 1.1//EN" "http://www.w3.org/Graphics/SVG/1.1/DTD/svg11.dtd" >
<svg xmlns="http://www.w3.org/2000/svg" xmlns:xlink="http://www.w3.org/1999/xlink" version="1.1" viewBox="-10 0 266 256">
   <path fill="currentColor"
d="M197 249l3 1.5t3 0.5q4 0 5.5 -2t1.5 -6v-2v-3q-1 -2 -3 -8.5t-4.5 -13.5t-4 -13.5t-2.5 -8.5q-1 -5 -3 -10.5t-2 -10.5v-2t0.5 -1t1 -1l1.5 -3l2.5 -5t3 -6.5t3.5 -7t2 -4.5v-10v-10q0 -8 -4 -12.5t-8 -7.5t-7.5 -4t-3.5 -3l1 -27l2 -2t2 -1q1 -1 4 -1.5t6 -0.5h5.5h4.5
q3 -2 3 -5q0 -2 -2.5 -3t-4.5 -1q-4 0 -8 0.5t-8 0.5v-35q0 -4 -1 -4.5t-4 -0.5t-4.5 1.5t-1.5 4.5v36q-2 5 -2.5 10l-1 10l-1 10t-2.5 10q-2 0 -4.5 1t-2.5 4q0 4 2 4.5t5 1.5h3.5h5.5h5.5h3.5q5 4 6 11.5t1 14.5q0 5 -1 10.5t-6 7.5q-4 -2 -5.5 -4.5t-3.5 -4.5t-4 -3.5
t-7 -1.5h-2.5t-3.5 0.5t-3 1t-1 2.5q0 1 3.5 2t7.5 3t7.5 6.5t3.5 13.5v3v3q-3 0 -6 2t-5.5 3.5t-5.5 2.5t-6 1q-1 0 -1.5 -1t-0.5 -2q0 -3 1 -6t1 -7q0 -3 -0.5 -5t-1.5 -5q-2 -3 -4.5 -5t-5 -5t-4.5 -5.5t-2 -6.5v-3q0 -1 2 -2l23 -3q2 0 2 -1.5v-2.5q0 -2 -0.5 -2.5
t-4.5 -0.5h-23v-19q8 0 12.5 -2.5t7 -6.5t3 -10t0.5 -13q0 -2 -2 -3.5t-4 -1.5h-1.5t-1.5 2v6t-0.5 8t-2.5 6.5t-5 2.5h-2.5h-1.5q-1 -1 -1.5 -2l-0.5 -1v-1v-1q0 -1 0.5 -3.5t0.5 -5.5t0.5 -6l0.5 -3q0 -4 -0.5 -6.5t1.5 -6.5q6 0 10.5 -1t7.5 -3t5 -6t2 -11
q0 -2 -0.5 -4.5t-4.5 -2.5q-3 0 -4 3t-1.5 6.5t-2 6.5t-6.5 3h-2.5t-1.5 -2v-26q0 -2 -1.5 -3.5t-3.5 -1.5q-1 0 -1.5 0.5l-1.5 1.5v4.5t-0.5 7t-0.5 7v4.5v3t-0.5 3.5t-1 2.5t-2.5 1q-4 0 -6 -4t-3.5 -8.5t-3 -7.5t-4.5 -2q-2 1 -2.5 3t-0.5 4t0.5 2.5t0.5 1t0.5 1.5l1.5 3
q2 4 3.5 6t3.5 3.5t5 2.5t7 4v8v6q0 5 -0.5 10t-2 9t-3.5 4q-3 0 -4.5 -2t-2 -5l-1 -6t-0.5 -4q0 -2 1 -4t1 -4q0 -1 -0.5 -2.5t-1 -2.5t-1.5 -2t-2 -1q-2 1 -3 3t-1.5 4.5t-0.5 4.5v4q0 4 1 8t2 9q1 3 3.5 4.5t5.5 2.5t5 1.5t2 1.5v18q0 2 -2.5 2.5t-3.5 0.5h-2
q-2 0 -3.5 -0.5t-2.5 -1t-2 -1.5l-3 -14q0 -2 -1 -2h-2q-3 0 -3.5 2.5t-0.5 4.5q0 4 1 8.5t3 7.5q1 1 3 1t4 0.5l4 1t3 0.5h2h3h3h2l0.5 0.5t0.5 1.5l0.5 2t0.5 3.5t0.5 3t0.5 2.5l0.5 1.5l0.5 1.5v1v0q-2 7 -5 14.5t-7 14.5t-8 13.5t-8 11.5q-5 -4 -7 -9t-2.5 -10.5l-1 -11
t-3.5 -10.5v-4v-6v-6v-4q0 -10 1 -20t1 -21h-3t-3 2q0 1 -0.5 5.5l-1 9l-1 9t-0.5 5.5t-0.5 2.5t-0.5 4.5v4v4q0 16 2.5 30.5t7.5 28.5q0 2 2 5.5t3.5 6.5t3.5 6t4 3t4 -1.5t2 -3.5q0 -1 -0.5 -1.5l-0.5 -0.5l-0.5 -1.5t-1.5 -3t-1.5 -2.5t-0.5 -2v-1v-2.5t0.5 -2.5l0.5 -1
l1.5 0.5l1.5 0.5q3 -1 6 -5t5.5 -9t5 -10.5t5 -10t4 -7.5t2.5 -3q4 0 5 4t1 7q0 4 -1.5 11t-4 14t-5.5 13.5t-5 10.5q-3 3 -5.5 6.5t-5.5 6.5t-5 6.5t-2 7.5q6 0 10.5 -2.5t8 -7t6 -10.5t4.5 -11.5t4.5 -11.5t5.5 -10q1 0 2 -1.5l1 -1.5h2h3h3h1q3 0 4.5 -0.5t2.5 -1.5
t2.5 -1.5l4.5 -1.5h1h1q3 0 5 3.5t3.5 8t3 10.5t2.5 11.5t2 10t1 6.5v3t0.5 4.5t0.5 4.5v3zM65 153q0 12 1 23t5 24l3.5 10.5t5 14.5t6 12.5t5.5 5.5q3 0 4.5 -2.5t1.5 -5.5q-11 -19 -17 -40t-6 -43v-7t0.5 -10.5t0.5 -9.5t1 -5q0 -1 0.5 -5t2 -8.5t2.5 -9.5t2 -8
q0 -1 0.5 -2t1 -2.5l1 -3t0.5 -2.5q1 -8 1.5 -18.5t0.5 -19.5v-9t-1.5 -9t-4.5 -7t-9 -3q0 1 0.5 3.5l0.5 2.5q0 1 1 2t1.5 2.5l1 3t1.5 2.5q1 5 1 12v12q0 7 -1 13.5t-3 13t-3.5 13t-3.5 13.5q-1 5 -2 11t-1.5 12.5t-0.5 12.5v11zM58 234q1 1 2.5 2t3.5 1h1l1 -0.5t2 -1.5
v-3v-3q0 -4 -1 -9t-2.5 -9.5t-3.5 -9t-3 -9.5q-3 -13 -3 -27v-27q0 -9 2 -17.5t2 -17.5q0 -2 -1 -3.5t-3 -1.5q-3 0 -6 3.5t-3 5.5v74q0 8 1.5 14.5t3.5 12.5t4 12.5t3 13.5zM89 83q0 3 3 4q6 -4 10 -11t4 -13v-34q0 -2 -2 -4.5t-4 -2.5q-3 0 -4 3t-1 5q0 6 2 12t2 14
q0 3 -2 7t-3.5 7.5t-3 6.5t-1.5 6zM51 79q0 4 3 4q5 0 8 -4.5t3.5 -10.5t0.5 -12v-8q0 -1 -1 -4.5t-2.5 -7.5t-4 -6.5t-4.5 -2.5t-3.5 1t-1.5 3q0 4 2 6.5t3 6.5q1 3 1.5 9.5t0.5 11.5q0 4 -2.5 7t-2.5 7z" />
</svg>
