<?xml version="1.0" standalone="no"?>
<!DOCTYPE svg PUBLIC "-//W3C//DTD SVG 1.1//EN" "http://www.w3.org/Graphics/SVG/1.1/DTD/svg11.dtd" >
<svg xmlns="http://www.w3.org/2000/svg" xmlns:xlink="http://www.w3.org/1999/xlink" version="1.1" viewBox="-10 0 266 256">
   <path fill="currentColor"
d="M124 249q1 1 3 1q5 0 6.5 -3t1.5 -7q0 -7 -1 -15.5t-2 -16.5q-1 -15 -1 -29v-28v-30q0 -6 5 -8t10.5 -3.5t10 -3.5t4.5 -8q0 -2 -1.5 -2.5t-3.5 -0.5t-3 1t-2 2.5t-2 2.5t-3 2q-1 1 -3.5 0l-2.5 -1q0 -4 1.5 -6.5t4 -5.5t4.5 -5.5t2 -7.5q-6 0 -9 3.5t-5.5 8t-5 8
t-6.5 3.5q-2 0 -2.5 -1t-0.5 -2v-3v-3q0 -3 1 -5.5t3 -5.5t3 -5.5t1 -6.5q-4 0 -7 2.5t-5 5.5t-3 7.5t-1 7.5q0 4 1.5 7l3 6t3 5.5t1.5 6.5q0 9 -1.5 18t-1.5 19q0 24 1 48zM195 241q0 2 1 3.5t3 1.5t3.5 -2t1.5 -4q2 -12 2 -22v-23v-24q0 -2 -0.5 -8t-0.5 -12.5t-0.5 -12
t-0.5 -8.5l-2 -8t-1 -8t1.5 -6.5t2.5 -5t2.5 -5.5t1.5 -6q0 -4 -1 -8t-3.5 -7t-6 -5t-7.5 -2q0 3 1.5 5t3 4.5l3 5t1.5 5.5q0 1 -0.5 3t-1.5 2q-2 0 -4.5 -3l-5 -6t-6 -5.5t-7.5 -2.5h-1q0 1 -0.5 2l-0.5 1q0 3 2 5t4.5 4t4.5 3.5t3 4.5l-0.5 2.5t-0.5 3.5q-3 0 -5 -1.5
t-3.5 -3t-3.5 -2.5t-5 -1q-1 0 -1 1.5v1.5v1v1q3 4 5.5 6t4.5 3t5.5 1.5t7.5 0.5l2 2l0.5 2t0.5 4.5t0.5 5t0.5 4.5q0 15 1 29.5t1 29.5q0 13 -1 26t-1 27zM174 211v31q0 1 1.5 1.5t2.5 0.5q2 0 3 -1.5t1 -3.5v-5v-4q0 -3 0.5 -7.5t0 -9.5t-2.5 -8.5t-6 -4.5h-5t-8 -1t-7 -2
t-3 -4q0 -6 4.5 -7.5t10.5 -2.5t11.5 -2t7.5 -5q0 -1 0.5 -3t0.5 -4.5t0.5 -4.5t0.5 -3v-1v-2v-0.5v-0.5l-10 -5h-20q-1 1 -3 1.5t-4.5 0.5t-4 0.5t-2.5 0.5v0.5v1.5q0 2 2 3t5 1h5t2 2v13q0 2 -2 2.5t-4.5 1.5t-4 2t-1.5 4v14l5 6h19q1 0 1.5 1l0.5 1q1 0 1.5 1.5t1.5 1.5z
M69 154v5v6.5t0.5 6l0.5 2.5q0 1 0.5 4t1 6.5t1.5 7l1 3.5q1 4 2 10.5t3 13.5t5 12t7 5q2 0 3.5 -2t1.5 -5t-1 -7t-3 -7.5t-4 -7.5t-3 -7q-4 -10 -5.5 -21t-3.5 -22q1 -15 2.5 -28.5t5.5 -27.5q3 -12 6 -24.5t3 -25.5q0 -4 -1.5 -11t-4.5 -13.5t-7.5 -11t-9.5 -4.5
q-4 0 -4 3t1.5 5t3.5 4.5t4.5 4.5t3.5 4q1 3 2 6.5t1.5 7l1 7t0.5 6.5v0q-1 2 -1 4t-0.5 4t-0.5 3.5v1.5q0 3 -1 7.5t-2.5 10.5t-3 13t-2.5 13t-2 10.5t-1 7.5q0 1 -0.5 4t-0.5 6v6v4zM46 174q1 4 2 11.5t2.5 15.5t4 14t6.5 6q2 0 4 -0.5t2 -3.5v-1v-1q-6 -13 -8.5 -26
t-3.5 -26t-0.5 -26.5t0.5 -27.5q-5 0 -7 2.5t-2 7.5v55zM88 145q0 2 1 7t2 12t3 14.5t4 13.5t3.5 10t4 3.5t3 -2t0.5 -3.5v-1v-1q-5 -11 -8 -24t-3 -26v-7.5t0.5 -7t1 -8t1.5 -9.5q0 -2 -1.5 -2.5t-2.5 -0.5q-2 0 -3.5 0.5t-0.5 2.5q0 2 -1 5.5t-1.5 8t-1 8.5t-1.5 5v2z
M165 165q0 -3 2.5 -5t5.5 -2t4 2.5t1 4.5q0 5 -1.5 7t-5.5 2t-5 -2.5t-1 -6.5zM145 130q-1 2 0 4t2 3.5t2.5 3t3.5 1.5h21q4 0 5.5 -4t1.5 -6q0 -8 -4.5 -12t-12.5 -4q-7 0 -12.5 3t-6.5 11zM152 129q0 -2 1.5 -3l3 -2t3.5 -1h4q3 0 4.5 2t1.5 5q0 4 -2.5 5.5t-6.5 1.5
t-6.5 -2t-2.5 -6zM98 88v2.5t2 1.5q4 0 6.5 -5.5t3.5 -12t1.5 -12.5t0.5 -7q0 -3 -0.5 -7l-1 -8t-2.5 -7t-6 -3q-1 0 -2.5 0.5t-1.5 1.5q0 2 1 5.5t2 8t2 8.5t1 7q0 4 -1 7t-2 6.5l-2 7t-1 6.5zM51 37q0 4 1.5 9t3.5 9.5t3.5 9t2.5 9.5v2v3v3v2q0 2 1 2.5t3 0.5t3 -1
t1.5 -2.5t0.5 -3.5v-3q0 -3 -0.5 -10.5t-2.5 -14.5t-5.5 -13t-8.5 -6q-3 0 -3 4zM118 40v2t2 1h20q2 0 1.5 4t1 9t5 9t11.5 4q15 0 19.5 -6.5t3.5 -20.5l2 -3h18q2 0 2 -1.5v-2.5q0 -2 -2 -3.5t-4 -1.5l-0.5 0.5t-1.5 0.5h-1t-2.5 0.5t-2.5 0.5h-2l-1.5 -0.5t-2.5 -0.5
l-1.5 -1.5l-0.5 -0.5v-11q0 -3 -2 -3.5t-3 -0.5q-2 0 -4 1t-2 3t1 4t1 4v0v1q0 1 -0.5 3t-1.5 2q-4 1 -6.5 1.5t-6.5 0.5q-5 0 -6.5 -3t-2 -7t-1.5 -7t-6 -3q-2 0 -3 1t-1 4q0 4 1 8.5t1 8.5h-20q-2 0 -2 2v2zM150 45q-1 -2 1 -2.5t4.5 -0.5h4.5h3q3 0 6.5 0.5t3.5 5.5
q0 6 -3.5 9.5t-8.5 3.5h-3q-2 0 -3.5 -0.5t-2.5 -1t-1 -1.5z" />
</svg>
