<?xml version="1.0" standalone="no"?>
<!DOCTYPE svg PUBLIC "-//W3C//DTD SVG 1.1//EN" "http://www.w3.org/Graphics/SVG/1.1/DTD/svg11.dtd" >
<svg xmlns="http://www.w3.org/2000/svg" xmlns:xlink="http://www.w3.org/1999/xlink" version="1.1" viewBox="-10 0 266 256">
   <path fill="currentColor"
d="M107 246q0 2 2 3t4 1t3.5 -0.5t2.5 -2.5q5 -20 8 -38t6 -38q0 -1 0.5 -2.5t0.5 -2.5q0 -4 0.5 -13t1 -19.5t0.5 -20v-13.5v-16t2 -14.5t7.5 -10.5t16.5 -4q3 0 4.5 2t1.5 6q0 3 -4 4t-8.5 3t-8.5 4.5t-4 8.5q4 0 6.5 -1l5 -2t5.5 -2t7 -1q0 9 -1 12.5t-3.5 5t-6.5 2.5
t-10 7q-2 1 -3.5 2.5l-1.5 1.5q0 1 0.5 2l0.5 1l1.5 1.5l0.5 0.5q1 0 2.5 -0.5t2.5 -1.5q1 0 2.5 -1.5t3.5 -3l4 -3t3 -1.5h2h2.5t1.5 2v20q0 1 0.5 1.5t1.5 0.5v0q3 0 4.5 -3t2 -7t0.5 -7.5v-4.5q1 0 2 -0.5l1 -0.5q2 0 5 2t6 4.5t5.5 5l3.5 3.5h1q3 0 3.5 -2t0.5 -4
q0 -5 -4.5 -8.5t-10 -6t-10 -4t-4.5 -2.5v-13q0 -1 1 -2t2 -1h1q3 0 5 1t4 2.5l4 3t5 1.5q1 0 2 -0.5t1 -3.5l-0.5 -1t-0.5 -2q-2 -2 -6 -4.5t-8 -4t-7 -2.5t-3 -2v-8q0 -2 5 -2t11 -1.5t11 -4t5 -8.5q0 -2 -0.5 -5.5t-1.5 -7t-3.5 -6t-5.5 -2.5h-55h-3t-3.5 0.5t-3 1.5
t-1.5 3t1 3t3 1.5t3.5 0.5h3.5v0q1 0 2 -0.5t2.5 -0.5t2.5 -0.5t2 -0.5q2 0 6 -0.5t7 -0.5h6h3l1 1q1 0 3 -0.5t4 -0.5h3.5h2.5q2 0 4 1t3.5 2.5t2.5 3.5t1 3q0 5 -4.5 7.5t-11.5 3.5t-15.5 1.5t-16 1.5t-13 2.5t-6.5 5.5l-5 19q2 3 2 6v6q0 27 -1 54.5t-5 54.5
q-1 5 -3.5 11.5t-5 13.5t-4.5 13t-2 11zM66 169v8.5t0.5 7t1 6.5t1.5 7q0 2 1 10t3 17t4.5 16t5.5 7t5.5 -2t2.5 -5q0 -2 -1 -4.5t-2 -5.5t-2.5 -5.5t-2.5 -4.5q-4 -11 -6.5 -24t-2.5 -25q0 -4 0.5 -9l1 -10t1.5 -10t2 -9q1 -9 4 -18.5t5.5 -18.5t4.5 -18.5t2 -19.5v-2
q0 -2 -0.5 -4.5t-0.5 -4.5v-2q-1 -4 -2.5 -9.5t-4 -11t-6 -9.5t-8.5 -4h-2h-2.5t-1 1t-0.5 2l1.5 2t1.5 3q1 0 1.5 1.5l0.5 1.5q3 8 5.5 14t4 11.5t2.5 12t1 15.5q0 4 -1.5 9.5l-3 11t-3.5 11t-3 9.5q-4 12 -6 25.5t-2 26.5zM144 223q3 3 6 5.5t5.5 3.5t6.5 1.5t8 0.5
q9 0 14 -1.5t8.5 -4t5 -6t3 -8t3.5 -9.5t5 -11q1 -1 3 -3.5t2 -3.5l0.5 -0.5l0.5 -0.5q0 -1 -0.5 -3t-1.5 -2q-5 -1 -7.5 2t-5 8t-5 11t-5.5 11.5t-7.5 9t-11.5 3.5q-8 0 -13.5 -4t-8.5 -10t-4.5 -13t-1.5 -12.5t-0.5 -9.5t-1.5 -4h-5q0 13 2 25.5t6 24.5zM48 226q2 3 7 3
q3 0 4 -2t1 -5q0 -5 -2 -10t-3 -10t-1.5 -9t-0.5 -8v-9v-9q0 -8 0.5 -14t1.5 -11.5t2.5 -11t3.5 -13.5v-2q0 -3 -0.5 -5t-3.5 -2t-5.5 4.5t-4 11.5t-3 15.5t-2 16t-1 13t-0.5 7.5t0.5 5.5t0.5 4.5q0 2 1 7.5t2 12t2 12t1 8.5zM90 167q0 14 2 27.5t7 26.5h3q2 0 3 -1t1 -4
q0 -5 -2 -9.5t-3 -9.5q-2 -9 -2.5 -18.5t-0.5 -18.5q0 -6 1 -11.5t2.5 -11t3 -11.5t1.5 -11q0 -4 -4 -4h-1.5h-1.5q-5 14 -7 28t-2 28zM150 152q0 2 0.5 5l0.5 3v1.5t0.5 2.5t0.5 2.5v1.5v10.5t0.5 12.5t3.5 10t10 4h5q3 -2 4 -4t2 -4.5t2.5 -5t6.5 -4.5t7.5 -6.5t3.5 -9.5
t1 -11v-11v-5q-1 -3 -2 -3.5t-3 -0.5h-1.5h-1.5q0 3 -0.5 9.5t-1 13.5t-2 12.5t-4.5 5.5h-1q-1 -1 -1.5 -2l-0.5 -1v-42q0 -1 -1 -1.5t-2 -0.5q-3 0 -4 3t-1.5 6t0 6.5l0.5 3.5q0 6 1 9.5t1 7.5v1l-0.5 1.5t-0.5 2.5t-0.5 2.5l-0.5 1.5q0 1 -0.5 3.5t-0.5 5v4.5v3q-1 2 -2 2
h-2q-3 0 -4 -1.5t-2 -3.5q-1 -12 -1.5 -24t-0.5 -24q0 -1 -1 -2l-2 -2q-2 0 -3 1.5t-1.5 4t-0.5 4.5v2zM53 90q0 4 4 4t7 -3t4.5 -7.5t2 -9t0.5 -7.5q0 -2 -0.5 -7.5t-1.5 -11.5t-3.5 -10t-6.5 -4q-3 0 -5 1t-2 4q0 1 0.5 2l0.5 1q0 1 0.5 2t1.5 2.5t2 2.5l1 1v2.5t0.5 5
t0.5 5.5v5v1v1l-1 3.5l-2 7t-2 6t-1 3.5zM101 91q0 1 0.5 2t2.5 1q3 0 5.5 -4.5t4 -10.5t2.5 -11.5t1 -7.5t-0.5 -7t-1.5 -9.5t-3.5 -7.5t-5.5 -3t-3.5 1t-0.5 3q0 3 1 6t2 5.5t1.5 5t0.5 5.5q0 5 -1 9.5t-2 8l-2 7t-1 7.5z" />
</svg>
