<?xml version="1.0" standalone="no"?>
<!DOCTYPE svg PUBLIC "-//W3C//DTD SVG 1.1//EN" "http://www.w3.org/Graphics/SVG/1.1/DTD/svg11.dtd" >
<svg xmlns="http://www.w3.org/2000/svg" xmlns:xlink="http://www.w3.org/1999/xlink" version="1.1" viewBox="-10 0 266 256">
   <path fill="currentColor"
d="M161 248q0 2 1 2.5t3 0.5q3 0 4 -1t2 -4q1 -1 1 -5v-5q0 -5 -1 -10t-1 -11v-1q0 -1 0.5 -3.5l0.5 -2.5q4 -1 8.5 -1.5t9.5 -1t9 -0.5h7q2 -1 2 -3.5v-2.5h-36l-1 -2q-1 -1 -1.5 -2.5l-0.5 -1.5q1 -6 4 -8t7.5 -2.5t9.5 0t8 0.5q1 0 1.5 -1t0.5 -2q-1 -2 -2.5 -2.5
t-3.5 -0.5h-1.5h-1.5q-1 0 -2 0.5t-2 0.5t-2.5 0.5l-1.5 0.5q-3 0 -4.5 -1.5t-1.5 -4.5q0 -4 3.5 -6.5t8 -3t9.5 -0.5h8q2 0 2 -3q0 -2 -2 -3t-4 -1q-4 0 -8 0.5t-8 0.5q-2 0 -2.5 -1.5t-0.5 -3.5q0 -5 1.5 -7t3.5 -2.5t4.5 -1t4.5 -2.5t3.5 -5.5t1.5 -11.5t-2 -12t-5.5 -6
t-8.5 -2h-13q-5 0 -12 0.5t-13.5 2.5t-11.5 6t-5 11q0 8 1.5 12t3.5 6t4.5 2.5t4.5 1.5t3 3t1 6t-2 6t-5.5 2.5t-7 0.5h-6.5l-3 3l1 1h22q1 0 2.5 1.5t2.5 3t2 3.5t1 3q0 2 -1 4t-2 2h-20q-2 0 -3 1t-1 2q0 3 2 3.5t4 0.5q6 0 11.5 -2t10.5 -2q3 0 3 1.5t2 5.5v0q0 6 -4.5 8
t-10.5 2.5t-12.5 0t-9.5 1.5v1v2.5t1 1.5h36l0.5 2t0.5 3v10q0 6 -0.5 11.5t-0.5 11.5zM73 165q0 2 1 7.5t2 13t2.5 16t3.5 15.5t4 12t4 5q1 0 3.5 0.5t3.5 0.5v-5t-0.5 -6t-1.5 -5.5t-3 -3.5q-6 -14 -8 -29.5t-2 -30.5q0 -11 2 -21.5l4 -21t3.5 -20.5t1.5 -21
q0 -12 -1.5 -22.5t-4.5 -21.5q-1 -3 -3.5 -7t-6.5 -4q-2 0 -3.5 1.5t-1.5 3.5v0.5v1.5q8 13 10 26t2 28q0 12 -3 23t-4 22q-1 7 -2 12.5t-1.5 10t-0.5 9.5v11zM49 171v16t1 16q1 2 1.5 5.5t2 7t3 6t4.5 3t4 -2t1 -4.5v-3l-1 -1t-1.5 -2.5t-1.5 -3t-1 -2.5q-3 -9 -4.5 -20
t-1.5 -21q0 -13 3 -24.5t6 -22.5v-2q0 -2 -1 -3.5t-3 -1.5t-3 2t-2 5t-1 5.5v3.5l-1 1.5t-1.5 3.5t-1 3.5l-0.5 1.5v3.5t-0.5 5t-0.5 5v3.5v17zM96 154q0 2 0.5 6.5t1 11.5t1.5 14.5t3 14t4.5 10.5t5.5 4q2 0 2.5 -1t0.5 -3q0 -6 -2 -12t-4.5 -12t-4.5 -12t-2 -12
q0 -7 1.5 -13.5t2.5 -13t2.5 -13t1.5 -13.5q-6 0 -8.5 5.5t-4 13t-1.5 14.5v11zM161 177q-1 -1 -2 -4.5t-2 -8t-1.5 -8t-0.5 -5.5q-1 0 -1 -1v-1q0 -2 1.5 -3t3 -1h3h3.5h4q2 0 4 2v2v1q0 3 -0.5 7t-2 7.5t-2.5 7t-1 5.5q-1 2 -1.5 2h-1.5h-2t-1 -2zM139 132q0 -2 0.5 -3
t1.5 -2q9 -2 16 -2h16h3h5h5.5h3.5q2 0 2.5 1t0.5 2q0 4 -3.5 6t-8.5 3t-10 1h-7h-4h-5t-4 -0.5t-3 -0.5q-3 0 -6 -0.5t-3 -4.5zM141 118q1 -4 4.5 -6t7.5 -2.5l8 -1t7 -0.5q6 0 10.5 0.5t11.5 1.5l0.5 1t0.5 2v1q0 2 -2.5 2.5t-3.5 1.5h-7t-10.5 0.5t-10.5 0.5h-7h-4h-3
t-2 -1zM53 95q0 4 4 4q3 0 5.5 -4t3.5 -9.5t1 -11v-7.5t-0.5 -6.5t-1.5 -9.5t-3 -8.5t-5 -3.5q-4 0 -4 4q0 8 2.5 14.5t2.5 13.5t-2.5 12.5t-2.5 11.5zM101 95q0 1 1 1h2q4 0 6.5 -3.5t3.5 -8t1.5 -9.5t0.5 -8v-8.5t-1.5 -11.5t-3.5 -10.5t-5 -4.5q-4 0 -4 3t1 6.5t2.5 7
t2.5 6.5t1 7q0 5 -1.5 9.5t-3 8.5t-2.5 7.5t-1 7.5zM133 75q0 7 2.5 12t9.5 6h14h12.5t12 -2t9.5 -5.5t4 -11.5q0 -5 -1.5 -10.5t-7.5 -7.5h-16h-12t-9.5 1t-9 4t-8.5 7v4v3zM142 77q0 -2 1 -4l2 -4t3 -3.5t4 -1.5h28q4 0 5.5 3t1.5 5v1q-1 1 -1.5 2t-1 2.5t-1.5 3l-1 1.5
q-6 3 -11 3.5t-11 0.5q-1 0 -5 -0.5t-5 -0.5q-5 -1 -6.5 -2.5t-1.5 -5.5zM163 13l-2.5 0.5t-2.5 1.5v15q0 4 -5.5 5.5t-11.5 3t-11 3.5t-5 8q3 0 6 -1t5 -1.5t5 -1.5l6 -2q8 -2 14.5 -3t14.5 -1q7 0 12.5 1t11.5 3h1q2 0 3 -1.5t1 -2.5q0 -3 -1.5 -4t-4 -1.5l-5 -1
t-3.5 -0.5h-4t-6.5 -0.5t-7 -0.5h-4.5v-16q0 -2 -2.5 -2.5t-3.5 -0.5z" />
</svg>
