<?xml version="1.0" standalone="no"?>
<!DOCTYPE svg PUBLIC "-//W3C//DTD SVG 1.1//EN" "http://www.w3.org/Graphics/SVG/1.1/DTD/svg11.dtd" >
<svg xmlns="http://www.w3.org/2000/svg" xmlns:xlink="http://www.w3.org/1999/xlink" version="1.1" viewBox="-10 0 266 256">
   <path fill="currentColor"
d="M151 249q1 2 3 2q1 0 3 -0.5t2 -2.5v-52l3 -3l1.5 -0.5t3.5 -0.5t4.5 -0.5t3.5 -0.5h3h3h3h2l1.5 3t0.5 3q0 3 -2.5 5.5t-5.5 4t-6 2.5t-5 2q-2 2 -1.5 4.5t0.5 4.5q0 3 0.5 7.5t2 9t3.5 8t5 3.5h1l0.5 -1t1.5 -1l0.5 -1.5l0.5 -1.5q0 -3 -1.5 -5.5l-3 -5t-2.5 -5
t-1 -5.5q0 -4 3 -7t7 -3t5 5t1 11.5t1.5 12.5t5.5 8q3 0 4 -2.5t1 -4.5v-2v-2l-0.5 -1.5l-1 -3t-1 -2.5t-0.5 -2q-1 -5 -1.5 -10.5t-1.5 -12t-1 -12.5t-1 -11l-1 -3v-27q0 -1 1 -1.5t2 -0.5h11q1 0 1 -1v-2q0 -2 -3.5 -4t-8.5 -4t-9.5 -3.5l-7.5 -2.5h-7t-8 -0.5t-7 -2.5
t-3 -6v-2q0 -2 1 -2q0 -1 5 -3t10.5 -4t10.5 -4t6 -2q2 0 4 1.5t3.5 3.5t3.5 3.5t5 1.5q2 0 3.5 -1.5t1.5 -3.5q0 -3 -2 -4.5t-5 -3t-5.5 -3t-4.5 -3.5q1 -9 -1.5 -13.5t-6 -7.5t-6.5 -4.5t-3 -5.5q0 -6 2.5 -8t5.5 -3t6.5 -3t4.5 -7v-2t0.5 -3.5t0.5 -3v-2.5q1 0 1.5 -2.5
t0.5 -3.5t-2 -1h-3q-4 0 -4 2v4.5t-1 4.5t-7 2v-26q0 -1 -1.5 -1h-2.5h-2t-2 1q-1 4 -1.5 8t-0.5 8t0.5 7.5t0.5 6.5q-1 1 -2 1h-2q-2 0 -2.5 -0.5t-1.5 -2.5v-2.5t-0.5 -4t-0.5 -4.5v-3l-0.5 -0.5t-1.5 -0.5h-0.5h-0.5v0v0q-1 0 -1.5 0.5l-0.5 0.5v4v4q0 7 2 10.5t5 5.5
t5 2.5t2 1.5v1q-1 2 -1.5 5t-1 5t-0.5 3h-11l-0.5 -1.5t-0.5 -2.5q-1 0 -1.5 -1.5l-1 -3t-1.5 -2t-2 -0.5q-3 0 -3.5 2l-1 4t-1.5 3.5t-3 1.5h-3t-2 -2v-11q0 -1 2 -1.5t4.5 -2.5t5 -6.5t2.5 -11.5v-8q-1 -2 -2 -2h-2h-0.5h-0.5q-1 6 -1.5 10.5t-4.5 8.5l-2 -3v-25
q0 -2 -1.5 -3.5t-2.5 -1.5t-2 0.5t-1 1.5v5v9v8v6l-0.5 3t-1.5 4h-1h-1h-1.5t-1.5 -2l-4 -19h-1q-3 0 -3.5 1.5t-0.5 3.5q0 6 1 9.5t4 9.5q1 3 3 3.5t3.5 0.5t3 2t1.5 9q0 3 -2 4t-4.5 2t-4.5 1.5t-2 2.5v1l2 2h3h3q4 0 7.5 -1t7.5 -1q2 0 4 1.5t2 4.5q0 2 -0.5 3t-2.5 3
q-1 0 -4.5 0.5l-7 1t-6.5 0.5h-5q-5 1 -7 2t-2 6h31q6 0 6 5q0 2 -1 4.5t-4 2.5h-23q-1 0 -1 1v2q0 2 1 2.5t3 1t3.5 0t3.5 -0.5h3t5 0.5t5 0.5t3 1q2 0 2 1v2q0 2 -0.5 3.5t-1.5 3.5q-12 3 -23.5 6t-22.5 10v0v1l1.5 1.5l0.5 0.5h12q1 0 2 3t1 6.5t0.5 6.5t0.5 5
q0 10 -1.5 21t-2.5 22q-1 9 -3 17t-2 17q6 0 8 -2.5t2.5 -6.5t0.5 -8.5t0.5 -8.5t3 -7t9.5 -3q2 0 2.5 1.5t0.5 3.5q0 7 -2.5 13.5t-2.5 13.5q4 0 6 -3t3.5 -7.5t1.5 -8.5v-7v-4v-3l-2 -4h-15q-2 0 -2.5 -2.5t-0.5 -3.5q0 -2 1 -4.5t3 -2.5h22l2 2v1.5t0.5 3.5t0.5 4.5v4.5
v39zM70 159q0 3 0.5 10.5t1.5 17t2.5 19.5t3.5 18.5t4.5 13.5t5.5 5t4 -0.5t1 -4.5t-1.5 -8.5t-3 -9.5t-3 -9.5t-1.5 -8.5q0 -1 -1 -6.5t-1.5 -13t-1.5 -15t-1 -11.5v-1q0 -12 2 -24t4.5 -23.5t4 -23.5t1.5 -24q0 -5 -0.5 -13t-2.5 -15t-6.5 -12t-12.5 -5q-4 0 -4 3
q0 2 1.5 4t3.5 4.5t4.5 4.5t3.5 4q3 6 3.5 12.5t0.5 12.5q0 10 -2.5 19.5t-3.5 19.5l-4 30t-2 30zM47 173v9v6.5t0.5 7t0.5 9.5q1 1 1.5 5t1.5 8.5t3 7.5t4 3q3 0 4.5 -1.5t1.5 -4.5q0 -5 -1 -11t-2.5 -12.5t-3 -12t-1.5 -10.5v-1v-3.5v-3.5v-3v-9.5t0.5 -8.5l1 -8t1.5 -10
q2 -3 2.5 -7t0.5 -8q0 -3 -1.5 -5t-4.5 -2t-4.5 4t-2 9t-0.5 10q0 6 -1 8v3.5t-0.5 5.5t-0.5 6v3v16zM90 179q1 2 2 8.5t2.5 13t3 11.5t2.5 5h2t1 -2q1 0 1 -2v-3v-3t-1 -2q0 -1 -0.5 -2.5t-1.5 -3t-1.5 -3t-0.5 -2.5q-1 -3 -1.5 -7.5l-1 -9t-0.5 -9v-7.5q0 -11 1.5 -23.5
t2.5 -22.5q1 -5 -2 -5t-4 3t-1.5 6.5t-1 7.5t-0.5 6v2.5t-0.5 5t-0.5 5v2.5v15v16zM123 183q0 -2 3 -4.5t6.5 -6t6.5 -9t3 -12.5l-0.5 -1t-0.5 -2.5t-0.5 -2.5t-0.5 -2v-1q0 -2 1.5 -2.5t3.5 -0.5h3v4.5t0.5 7l1 7t0.5 4.5v1v2q-1 3 -1.5 8t-0.5 8v4l-3 1h-20l-0.5 -1
t-1.5 -2v0zM155 157v-3q0 -1 0.5 -3t0.5 -4v-2q0 -2 1.5 -4t4.5 -2q1 0 2.5 1t1.5 2v12.5t3 11.5q2 3 5 4t6 2.5t5 3.5t1 6q0 2 -1.5 2.5t-2.5 0.5h-2q-3 0 -8 -0.5t-8 -1t-4 -0.5l-3 -3l-0.5 -1.5t-0.5 -3.5v-4v-3v-2q0 -1 -0.5 -3t-0.5 -3v-3zM172 149q0 -6 6 -6
q1 0 2 0.5t2.5 0.5t2.5 1t1 2v18q0 2 -0.5 2.5t-2.5 0.5q-3 0 -5.5 -2t-3.5 -5t-1.5 -6t-0.5 -6zM123 152v-5q3 -5 9 -5q2 0 2 2v4v7.5t-1 7.5q-2 2 -3 2h-3h-2q-1 -4 -1.5 -6.5t-0.5 -6.5zM155 106q0 -2 1.5 -3t3 -1.5t3.5 -0.5h4h5t5 1v1v1q0 2 -2.5 3.5t-5.5 2l-6 1
t-4 0.5q-3 -1 -3.5 -2t-0.5 -3zM53 95l3 1h1q3 0 4.5 -3.5t3 -8t2 -8.5t0.5 -6q0 -4 -0.5 -9.5t-1.5 -11.5t-4 -10t-8 -4q-3 0 -4 0.5t-1 4.5q0 3 1.5 6.5t3 7.5t2.5 8.5t1 9.5t-1.5 9.5t-1.5 9.5v4zM101 60q0 5 -1 9.5t-2 8.5l-2 8t-1 9q5 0 8 -6t4.5 -14t2 -15.5t0.5 -9.5
q0 -3 -0.5 -6t-2 -6.5t-4 -5.5t-5.5 -2h-0.5h-0.5q0 1 -0.5 2l-0.5 1v1v1l0.5 2t0.5 3q1 0 1.5 1t0.5 2q1 5 1.5 8.5t0.5 8.5zM155 86v-3t2 -2q1 0 4 -0.5t4 -0.5q2 0 5 0.5t5 1.5t3.5 2.5t1.5 4.5v3t-2 3h-3h-4h-5.5t-5 -1t-4 -3t-1.5 -5z" />
</svg>
