<?xml version="1.0" standalone="no"?>
<!DOCTYPE svg PUBLIC "-//W3C//DTD SVG 1.1//EN" "http://www.w3.org/Graphics/SVG/1.1/DTD/svg11.dtd" >
<svg xmlns="http://www.w3.org/2000/svg" xmlns:xlink="http://www.w3.org/1999/xlink" version="1.1" viewBox="-10 0 266 256">
   <path fill="currentColor"
d="M64 249q0 2 2 2h3q4 0 9.5 -1.5t8.5 -4.5l38 -38q1 -2 2.5 -4t3.5 -2h2l28 27q5 2 7.5 5.5t5 7.5t6 6.5t9.5 2.5q2 0 4.5 -2.5t2.5 -4.5q0 -1 -4.5 -4.5t-11 -8.5t-14 -11t-14 -12t-10.5 -11.5t-4 -10.5v-39q0 -2 -1.5 -2h-1.5q-3 0 -4.5 1.5t-2.5 3.5q0 6 1 13.5
t0.5 14.5t-2.5 14t-7 12q-1 0 -3 1.5l-4 3l-4 3l-2 1.5q-1 1 -2 2.5t-2.5 3.5t-2.5 3.5t-1 2.5q-2 1 -7.5 5.5t-12 8.5t-11 7.5zM92 159v8.5t-0.5 10.5t-2.5 10t-6 8q-2 2 -5.5 3.5t-6.5 3t-5.5 4t-2.5 6.5q4 0 6.5 -0.5t4.5 -2l4 -3t5 -3.5q6 -4 10 -8t5.5 -8.5t2.5 -10
t1 -12.5v-3t-0.5 -3.5t-1 -2.5t-2.5 -1q-3 0 -4 1t-2 3zM161 164q0 5 2 13t6 15.5t10 13t13 5.5q1 0 3.5 -2.5t1.5 -4.5q0 -2 -2.5 -3.5t-5.5 -3t-6 -2.5t-4 -4q-2 -3 -2.5 -9.5t-1.5 -12.5t-3 -10.5t-5 -4.5q-4 0 -5 3.5t-1 6.5zM59 135q0 2 1 2.5t2 0.5q5 0 7.5 -3.5
t3 -8.5t0.5 -11t0.5 -11t3 -8.5t7.5 -3.5q3 0 5 0.5t3 3.5v2v3q0 7 -1 13t-1 12q0 4 0.5 6t2.5 6q2 -1 4.5 -2.5t2.5 -2.5v-36q0 -6 7 -6q1 0 2.5 2t2.5 4.5t2 5.5t1 4v5.5v9.5v9v6q5 0 6.5 -3t1.5 -7q0 -5 0.5 -11t-0.5 -12.5t-3.5 -12t-7.5 -8.5q-3 -1 -5 -1t-3.5 -0.5
t-2.5 -2t-1 -4.5t2.5 -5t6 -3.5t7 -3.5t5.5 -4.5t3.5 -6t2 -7.5t1 -7.5t0.5 -6.5t-2 -4t-4 -1q-3 0 -4 2.5t-1.5 6t-0.5 8t-1 8.5t-3 6.5t-7 2.5q-2 0 -3.5 -1.5t-1.5 -3.5v-32q0 -3 -4 -5t-9.5 -3t-10.5 -1.5t-7 -0.5h-7t-6 1t-4.5 3t-1.5 6h37q2 0 3.5 2.5t2 6t0.5 6.5v4
v2.5v3.5t-0.5 4t-0.5 3q-1 3 -1 4t-2 1q-5 0 -8 -4t-4.5 -8.5t-2 -8l-0.5 -3.5h-11q0 15 7.5 24t22.5 10v2q0 5 -3 7.5t-7 4t-8 2.5t-6 5l-3.5 7t-2 6.5l-1 7t-0.5 8.5q0 1 -0.5 3t-1 4.5t-1 4.5t-0.5 3zM143 125q1 5 4.5 7.5t8 3.5t9 1.5t8.5 0.5q7 0 13 -2t10.5 -5
t7.5 -8.5t3 -12.5q0 -9 -2 -13.5t-6 -6.5t-10 -2.5t-14 -0.5q-10 0 -16 0.5t-9.5 3.5t-5 8.5t-1.5 14.5v11zM148 114q0 -2 1 -2.5t3 -0.5l1 0.5l1 0.5q2 0 6 0.5t6.5 0.5h2.5v12q0 1 -1 1.5t-3 1t-3.5 0.5h-2.5q-6 0 -8.5 -4.5t-2.5 -9.5zM176 118l0.5 -1t1.5 -2l0.5 -1
l0.5 -1h15q1 0 1.5 1.5t0.5 2.5v1l-10 10h-1h-2q-5 0 -6 -2.5t-1 -7.5zM197 126q1 0 1 2q0 1 -1 1t-1 -1q0 -2 1 -2zM149 102q3 -4 6.5 -8t8.5 -4q2 0 3.5 1.5t1.5 3.5v2q0 1 -0.5 4t-1.5 4l-2 0.5t-3 0.5q-3 0 -7 -0.5t-6 -3.5zM176 99q0 -3 2 -5h5q4 0 7.5 1t3.5 6v2.5
t-2 1.5h-13q-2 0 -2.5 -2.5t-0.5 -3.5zM144 61q0 6 4 8.5t10 5.5h13q5 0 10.5 -0.5t9 -2t6 -5t2.5 -10.5v-7q-2 -3 -5.5 -4.5t-7.5 -2t-8 0t-7 0.5q-5 0 -9.5 0.5t-8.5 2t-6.5 5t-2.5 9.5zM154 59q0 -3 1.5 -7t7.5 -4h1q2 0 5 1t6.5 1.5l7 1t4.5 0.5q3 1 3.5 2.5t0.5 3.5
q0 5 -2 7t-5 2.5t-7 0.5h-6h-3h-3h-3h-3q-4 -1 -4.5 -3.5t-0.5 -5.5zM141 23v1l2 2t2 1h59q2 0 2 -1.5v-2.5v-2t-2 -2h-17h-11t-10 0.5t-10.5 0.5t-12.5 1l-1 0.5t-1 1.5v0z" />
</svg>
