<?xml version="1.0" standalone="no"?>
<!DOCTYPE svg PUBLIC "-//W3C//DTD SVG 1.1//EN" "http://www.w3.org/Graphics/SVG/1.1/DTD/svg11.dtd" >
<svg xmlns="http://www.w3.org/2000/svg" xmlns:xlink="http://www.w3.org/1999/xlink" version="1.1" viewBox="-10 0 266 256">
   <path fill="currentColor"
d="M180 187q0 5 -1 10t-3 10t-4.5 9.5t-5 7.5t-5.5 6.5l-6 7t-5 7t-2 8.5q8 0 14 -5.5t11 -13t8.5 -16t5.5 -14.5q0 -1 1.5 -5l3 -8t2.5 -8t1 -5q-1 -5 -4 -7t-7 -3t-8 -1.5t-7 -2t-5 -4.5t-2 -9q0 -3 2.5 -4t5.5 -1h44q3 0 4 -0.5t1 -2.5q0 -4 -3 -4.5t-6 -0.5
q-10 0 -19.5 1.5t-18.5 1.5h-8h-12h-12h-7h-3.5t-5.5 0.5t-5.5 1l-2.5 0.5q-2 0 -4.5 -0.5t-5 -0.5t-4.5 1t-2 4q0 2 1 3t2.5 1h3.5h3q9 0 17 -1t17 -1h4q0 1 1.5 4t1.5 5q3 8 8 11t10 5t8 4.5t3 8.5zM36 237q0 2 0.5 4t3.5 2t6.5 -6t6.5 -13.5t5.5 -14.5t3.5 -10q0 -1 1 -5
t2 -8.5t2 -8.5t1 -6l1 -1l1 -1h1l2.5 5t5 11.5t5 12.5t3.5 8t1.5 7.5t2 10.5t4 8.5t6.5 3.5t5.5 -1t1.5 -5q0 -3 -1.5 -6.5t-3.5 -6.5t-4 -6.5t-4 -6.5q-9 -23 -15.5 -46.5t-6.5 -48.5v-3q0 -1 0.5 -5t0.5 -8.5t0.5 -9t0.5 -5.5l-1.5 -6t-0.5 -6v-2v-3q0 -2 0.5 -7.5
t1.5 -11.5t1.5 -11.5t0.5 -7.5q-1 -3 -2.5 -4t-4.5 -1q-4 0 -5.5 2t-1.5 6q0 14 1.5 27t1.5 26v7l1 53q0 5 -2.5 10t-2.5 9l-8 28t-9 28l-2.5 5l-3 6t-2.5 6t-1 6zM41 128q1 1 2 1.5t2 0.5q2 0 2.5 -1t2.5 -3q0 -8 0.5 -14t0.5 -12v-13v-13v-24q0 -2 -1.5 -3.5t-3.5 -1.5
t-3.5 2.5t-1.5 4.5q0 8 1 16t1 17t-1 17.5t-1 17.5v4v4zM114 125q0 2 0.5 2.5t2 0.5h2.5h2q6 0 13 -0.5t13.5 -0.5t12.5 -0.5t12 -0.5h3.5t6 -0.5t6.5 -0.5h4q1 -1 1.5 -2t0.5 -2q0 -3 -2 -3h-4q-6 0 -12 0.5t-12 0.5h-2q0 -1 -0.5 -3.5t-1 -5.5t-0.5 -5.5v-3.5v-2v-3v-7
t0.5 -10.5t1 -10.5t0.5 -7t5.5 -2.5t12 -2.5t12 -6t5.5 -12v-4.5t-0.5 -5.5t-2 -5t-4.5 -3q-1 0 -4 -1l-6 -2t-6 -1.5t-4 -0.5h-2h-16.5t-15 2.5t-11 7.5t-4.5 16q0 7 5 9.5t11 4t11 3t5 7.5v44q0 1 -0.5 4.5t-1.5 4.5l-0.5 1l-0.5 1h-31l-1.5 1t-1.5 2q-1 0 -1.5 0.5
t-0.5 1.5v0v0zM91 43h-1l-1.5 1l-1.5 1v82q1 0 3.5 -0.5t3.5 -1.5v-5.5t0.5 -7.5t0.5 -7.5v-5.5v-5t-0.5 -9.5t-0.5 -9.5v-5v-8q0 -5 0.5 -8.5t0.5 -7.5q0 -3 -4 -3zM126 98q-4 0 -8.5 0.5t-6.5 2.5l-2.5 2.5t-3 2.5t-2.5 2l-1 1v5q4 0 6.5 -1t4.5 -3t4.5 -3t5.5 -1q5 0 9 1
t8 1h3t1 -2q-3 -5 -7.5 -6.5t-10.5 -1.5zM184 101q4 0 7 1.5t6 2.5l6 2t6 1v-7l-1 -0.5l-3 -1.5t-3.5 -1.5t-2.5 -1.5l-6 -1.5t-6 -0.5q-6 0 -12.5 2.5t-9.5 8.5q0 1 1 1h2q4 0 8 -2.5t8 -2.5zM102 84q0 1 1 1.5t2 0.5q4 0 6.5 -0.5t5 -1.5l5 -2t5.5 -1q5 0 9 2t8 2v0
l1.5 -1.5l0.5 -0.5v-0.5v-0.5q0 -3 -2.5 -4.5t-5.5 -2.5t-7 -1.5t-5 -0.5q-3 0 -7 0.5t-7.5 2t-6.5 3.5t-3 5zM188 79q3 0 6 1t5.5 2l5 2t5.5 1q4 0 4 -4t-3 -5.5t-7.5 -2t-9 -0.5h-6.5h-11q-4 1 -6.5 4t-2.5 7q3 0 5.5 -1t4.5 -2t4.5 -1.5t5.5 -0.5zM134 45q0 -1 1 -1.5
l1 -0.5q7 -2 14.5 -2h15.5h17l1.5 1.5l0.5 0.5v1v0.5v0.5q-1 2 -5.5 4t-9 2.5l-9 1t-6.5 0.5q-5 0 -11.5 -2t-9.5 -6zM132 31q0 -3 3.5 -5t7.5 -2.5t9 -0.5h6t7 -0.5t9.5 0t8.5 2.5t4 6q0 2 -0.5 2.5l-1.5 1.5h-29h-2.5t-5 0.5t-4.5 0.5h-3h-1q-3 0 -5.5 -1t-2.5 -4z" />
</svg>
