<?xml version="1.0" standalone="no"?>
<!DOCTYPE svg PUBLIC "-//W3C//DTD SVG 1.1//EN" "http://www.w3.org/Graphics/SVG/1.1/DTD/svg11.dtd" >
<svg xmlns="http://www.w3.org/2000/svg" xmlns:xlink="http://www.w3.org/1999/xlink" version="1.1" viewBox="-10 0 266 256">
   <path fill="currentColor"
d="M69 221v7t1 10t2.5 8.5t3.5 3.5q3 0 3.5 -2t0.5 -3q0 -8 -2 -15.5t-2 -15.5v-8q0 -4 0.5 -7.5l1 -7t1.5 -7.5q0 -2 -1 -3.5t-3 -1.5h-0.5h-1.5q-1 11 -2.5 21t-1.5 21zM89 221q1 1 1.5 5.5t2 8.5l3 8t4.5 4q0 -1 0.5 -2l0.5 -1v-1q0 -5 -1 -10t-2 -9.5l-2 -9t-1 -10.5
q0 -7 1.5 -14t1.5 -14q0 -3 -1 -4.5t-4 -1.5h-2.5t-1.5 1t0.5 2.5t0.5 2.5v4q0 7 -0.5 13.5t-0.5 13.5v14zM167 174v12q0 5 -0.5 10t-2.5 10t-6 10q0 1 -2.5 3t-5 5t-5 5.5t-4.5 3.5q-1 1 -3 2l-4 2t-3 3t-1 4q6 0 12 -3.5t11.5 -8.5t9.5 -11t6 -11h3l1 1t2 2.5l2 3t1 2.5
q1 0 1 1.5t1 1.5l17 17q1 1 2.5 1.5t3.5 0.5t3.5 -0.5t1.5 -3.5q0 -1 -3 -3.5t-6.5 -5.5t-7 -5.5t-4.5 -3.5q-5 -7 -8.5 -17t-3.5 -19v-5.5v-4.5q1 -3 3.5 -3.5t5 -0.5t5.5 -0.5t5 -2.5q3 -2 5.5 -4.5t4 -4.5t2 -5t0.5 -6q0 -5 -2 -8.5t-4 -6.5l-4 -6t-2 -6v-8.5v-7t-0.5 -7
t-1.5 -7.5v-46q0 -2 1.5 -3.5t3.5 -1.5q1 0 2.5 -0.5t3.5 -0.5h3.5h2.5q1 -1 1.5 -2t0.5 -2v0v-1q-1 0 -3.5 -0.5t-5.5 -0.5t-5 -0.5t-3 -0.5q-6 0 -13.5 0.5l-15 1t-14.5 1t-13 0.5q0 1 -0.5 1.5l-0.5 0.5v1v1h3h5.5t4.5 1t4 3q0 5 0.5 9.5t0.5 8.5v8v10t-0.5 9.5t-0.5 9.5
t0.5 10t0.5 10v4v5q-2 1 -4.5 2.5t-5 4t-4 5t-1.5 5.5q-1 7 1 12t6 8.5t9.5 5.5t10.5 3v3zM109 207q0 2 0.5 8t2 12t3.5 11t5 5q2 0 2.5 -2t0.5 -4q0 -4 -1 -7.5t-2 -7.5t-2.5 -8t-1.5 -8q0 -6 1 -12.5t1 -11.5q0 -3 -1 -5.5t-4 -2.5h-1q0 8 -1.5 16t-1.5 17zM144 182
q0 2 0.5 5t0 6.5t-0.5 6.5t-1 5q-2 5 -3.5 7t-1.5 6q2 0 3.5 -1.5l3.5 -3.5t3 -4t1 -4v-21q0 -1 -0.5 -2t-1.5 -2v0h-1zM190 190q0 3 1 7t2.5 7t4.5 5t7 2q1 0 1 -1v-2v-1q0 -1 -1 -2t-2 -2.5l-2 -3t-1 -2.5q-1 -1 -1 -4t-0.5 -6t-1.5 -5t-3 -2q-1 0 -2 1.5t-1.5 3t-0.5 3.5
v2zM149 154q0 -1 0.5 -2t1.5 -1l15 -2l0.5 1l0.5 1q1 1 1.5 2.5t0.5 2.5q0 2 -0.5 5.5t-4.5 3.5q-1 0 -3.5 -1t-5 -2.5t-4.5 -3.5t-2 -4zM175 162v-2.5v-1.5q0 -1 0.5 -4t2.5 -3h19v5l-3 2.5t-5 3.5l-3 0.5t-4 0.5h-2h-2.5t-2.5 -1zM46 157q0 1 0.5 1.5t2.5 0.5h1
q1 -2 4 -6.5t7 -10t8.5 -11t9 -10t8.5 -7.5t7 -3h1l2 0.5t3 0.5q0 1 1.5 3t3.5 3.5t3.5 3.5t2.5 3l1 2t2.5 4.5t2.5 4.5t1 3l0.5 0.5t1.5 0.5v0h1q1 0 2 -1t1 -2v0v-1v0q-2 -5 -4 -10.5t-5.5 -10t-8 -8t-9.5 -4.5t-9.5 2t-9.5 8t-10 11t-9 12t-7.5 11.5t-5.5 8.5v1zM106 150
q0 2 0.5 3t2.5 1q3 0 4.5 -2.5t1.5 -5.5q0 -2 -1 -4.5t-4 -2.5h-1q-1 0 -2 1.5t-1 3.5v4v1v1zM70 149q0 2 1.5 2h1.5q3 0 5 -1.5t2 -4.5q0 -4 -2 -5.5t-6 -1.5v3.5v3.5l-1 2zM90 126v24q3 0 4.5 -1t2.5 -3t1 -4v-4v-4t-0.5 -3.5t-2 -3t-3.5 -1.5h-1h-1zM175 133
q0 -4 2.5 -4.5t5.5 -0.5t5.5 1t5 3t3.5 5t1 5t-1 2.5t-2 0.5h-8.5t-6 -1t-4 -3.5t-1.5 -7.5zM149 142q0 -5 4.5 -9.5t9.5 -4.5q3 0 5.5 3t2.5 7v1q-1 0 -2 2t-2 2h-16q-1 0 -1.5 -0.5zM163 117v-7t-0.5 -5.5t-1 -5.5t-0.5 -6v-2q5 -2 8 -2h7h7q1 0 2 3.5t1 7v6.5v5v9
q-1 1 -2 1h-2h-2h-5.5t-6 -0.5l-2.5 -0.5zM95 62q0 2 -3 5t-8 7.5t-10.5 9t-10 9.5t-8 10t-3.5 10q5 0 10 -6t10.5 -13t11 -13t9.5 -6q1 0 1.5 0.5t0.5 1.5v17l0.5 0.5t1.5 0.5l1 -0.5t2 -0.5v-4v-4.5t1.5 -3t3.5 -1.5q4 0 7 3.5t5.5 7.5t4.5 7.5t4 3.5h1q1 0 2 -0.5t2 -1.5
v0q0 -5 -4.5 -11t-10 -11t-10 -9.5t-4.5 -6.5q0 -3 4.5 -7t9.5 -9.5t9 -12.5t4 -15q-5 0 -7 4t-4 9t-5 9.5t-9 4.5v-30l-1.5 -2t-2.5 -2h-2q-3 0 -8 0.5t-10 1.5t-8.5 3t-3.5 4h25l2 2v2t0.5 5l1 6t0.5 5q0 1 -0.5 3.5l-0.5 2.5h-4l-17 -17h-0.5h-1.5q-3 0 -4 3q0 1 2 3.5
l4 5t3.5 4.5t2.5 3t3.5 2.5t4.5 3t4 3.5t2 4zM161 72v-2.5t2 -1.5l15 -3q1 0 2 0.5l2 1t2 1.5l1 1v12h-21q-1 0 -1.5 -1t-1 -2.5t-0.5 -3v-2.5zM160 43q0 -2 1 -3.5t3 -1.5h21q1 0 1 1v2v2q0 1 -0.5 3.5t-0.5 4.5v4v2l-3 3l-15 1q-2 1 -3.5 -1.5t-2.5 -5.5t-1 -6v-5z" />
</svg>
