<?xml version="1.0" standalone="no"?>
<!DOCTYPE svg PUBLIC "-//W3C//DTD SVG 1.1//EN" "http://www.w3.org/Graphics/SVG/1.1/DTD/svg11.dtd" >
<svg xmlns="http://www.w3.org/2000/svg" xmlns:xlink="http://www.w3.org/1999/xlink" version="1.1" viewBox="-10 0 266 256">
   <path fill="currentColor"
d="M160 189q3 0 7 4.5t7.5 11.5t7 15t6.5 15t6 11.5t6 4.5t4 -2t1 -4q0 -5 -2 -11t-5.5 -12t-6.5 -11.5t-6 -9.5q-2 -4 -5.5 -8.5t-3.5 -9.5q0 -4 2 -7t4.5 -6.5l5 -7t2.5 -10.5q0 -3 -1.5 -6t-3.5 -6t-5 -5t-6 -3q-1 0 -6 -0.5t-10.5 -0.5h-10.5h-7h-3h-33t-34 2q-1 1 -1 2
v2q0 3 2 4.5t4 1.5q13 0 25.5 -1.5t25.5 -1.5h15h8.5t11.5 1t10.5 3.5t4.5 5.5v5t-1 6t-2.5 5.5t-4.5 2.5l-1 -0.5l-1 -0.5l-7 -7t-6.5 -4.5t-8 -2t-9.5 -0.5h-4q-3 1 -9 1t-13 0.5t-15 0.5t-15.5 0.5t-13.5 1t-8 0.5t-2.5 2.5t-0.5 3.5q0 4 2.5 4h4.5q17 0 34.5 -2t35.5 -2
h8.5t9 1t7 4t2.5 8q0 3 -3 4t-7 1h-7.5h-5.5h-4.5h-7t-6.5 0.5t-4 0.5t-2.5 0.5t-3 0.5h-3.5h-2q-2 0 -6.5 0.5t-10.5 0.5q-5 0 -9.5 -0.5t-6.5 -0.5q-3 2 -3 5q0 2 1 3t3 2h16q19 0 37.5 -2.5t36.5 -2.5zM79 106q0 3 1.5 4.5t3.5 2.5t4.5 1.5t4.5 0.5q2 1 6 1.5t7.5 1
t6.5 1t4 0.5h15h17l2 -0.5t4 -0.5t4 -0.5l2 -0.5q2 0 6.5 0.5t9 0t8 -2t3.5 -6.5q0 -2 -2 -3t-4 -1q-5 0 -9.5 0.5t-8.5 2.5h-7t-11 0.5t-11 0.5h-7h-2h-1h-6t-8 -0.5t-8 -0.5h-5q-3 -1 -5 -1.5t-2 -4.5q0 -1 0.5 -2.5t2.5 -2.5q16 -1 32 -1h32q5 -1 9.5 -2.5t7 -4t3.5 -6.5
t1 -10q0 -4 -0.5 -6.5t-4.5 -5.5q-6 0 -9 -0.5t-8 -0.5q-8 0 -15 1t-15 1q-7 0 -12 -0.5t-13 -1.5q0 -5 -1.5 -8.5t-3.5 -6.5t-4 -7t-2 -8v-2t1 -1l2 -2h25l0.5 0.5t0.5 1.5q2 2 3 5t1.5 6t1.5 5.5t3 5.5q1 1 2.5 1.5t2.5 0.5v0q2 0 4 -1.5t2 -3.5t-1 -5t-2 -5.5l-2 -5
t-1 -5.5v-3t3 -1l18 1q2 1 4 6t4.5 10.5t6.5 10.5t10 5h2.5h2.5q1 0 1.5 -0.5t0.5 -1.5l0.5 -1t0.5 -2q-1 -3 -4 -5.5t-6.5 -5t-6.5 -5.5t-3 -7v-3t2 -2q1 0 3.5 -0.5t5 -0.5t5 -0.5t3.5 -0.5q4 0 5 -0.5t1 -3.5t-1.5 -4t-3.5 -1h-4.5h-4.5q-23 0 -47 1.5t-46 6.5
q-1 0 -3 0.5l-2 0.5q-3 2 -3 5v6q0 4 1.5 9t4 9.5t4.5 7.5t2 4q0 3 -2.5 3.5t-5.5 0.5t-6 0.5t-3 3.5q0 6 6 6q19 0 37 -2.5t37 -2.5h4.5t4.5 1t3.5 2.5t1.5 4.5q0 5 -2.5 6t-6.5 2q-3 0 -10.5 0.5t-16.5 0.5t-16.5 0.5t-10.5 0.5h-3.5t-5.5 0.5t-5.5 0.5h-3.5q-5 3 -6 8
t-1 10z" />
</svg>
