<?xml version="1.0" standalone="no"?>
<!DOCTYPE svg PUBLIC "-//W3C//DTD SVG 1.1//EN" "http://www.w3.org/Graphics/SVG/1.1/DTD/svg11.dtd" >
<svg xmlns="http://www.w3.org/2000/svg" xmlns:xlink="http://www.w3.org/1999/xlink" version="1.1" viewBox="-10 0 266 256">
   <path fill="currentColor"
d="M104 248q0 3 4 3l2 -0.5t3 -1.5l1.5 -0.5l1.5 -0.5q6 -3 12 -6.5t11 -8t8 -10.5t3 -14q0 -4 -2 -7t-3.5 -4.5l-3 -3t-1.5 -3.5q0 -4 6 -6.5t13.5 -5.5t14.5 -6.5t9 -8.5l0.5 -1.5l1 -3l1 -3l0.5 -1.5q2 -4 4.5 -7t4.5 -5.5t3 -5.5t1 -8v-7t-1.5 -6t-3.5 -5.5t-6 -5.5v0
q0 -3 1.5 -5t3.5 -4t3.5 -5t1.5 -7q0 -3 -2 -7t-5.5 -8.5t-7 -7t-6.5 -2.5q-2 0 -5.5 3.5t-6 8t-4.5 9.5t-2 8q0 2 1.5 4.5t3.5 5t3.5 4.5t1.5 5q0 2 -1.5 4.5t-3 5.5t-2.5 6.5t-1 6.5q0 6 2.5 9.5t6 6t6 4.5t2.5 5q0 4 -5 8.5t-11.5 7.5t-13.5 4.5t-12 1.5q-1 0 -1.5 -1
l-1 -2t-0.5 -2v-3q0 -4 2 -6.5t4.5 -4.5t4.5 -4.5t4 -5.5v-5v-5q0 -8 -0.5 -11t-2 -4t-2.5 -1.5t-3 -5.5q6 -5 7 -9.5t1 -11.5v-7l-6 -7q-1 0 -3 -1.5l-2 -1.5q-3 -3 -4.5 -6.5t-5.5 -6.5q-1 5 -4.5 9t-6.5 7.5t-5.5 8t-2.5 9.5q0 3 2 5.5t4 4.5t3.5 4t1.5 5q0 2 -1 4.5
t-2.5 5l-3 5t-1.5 5.5v1l0.5 1t1 2.5t1 2.5t1 1.5t1 2l0.5 1.5q1 1 3 2t3.5 2t3 2.5t1.5 3.5v1v3.5t-0.5 5t-0.5 4.5v3q-2 3 -5.5 3.5t-6.5 0.5q-2 0 -7 -1.5t-10.5 -3t-10 -4t-4.5 -4.5q0 -5 2.5 -8l5 -6l5 -6t2.5 -8v-9t-3 -8q-2 -3 -4.5 -4.5t-2.5 -5.5q0 -3 2.5 -6
t4.5 -5v-16q-6 -4 -11 -10t-9 -12v0h-1q-1 0 -1.5 0.5l-0.5 0.5q0 1 -0.5 2t-1 3t-1 3.5l-0.5 1.5q0 1 -1.5 2.5t-3.5 4t-3.5 4l-2.5 2.5v2.5v3.5q0 5 1.5 8t3.5 5t4 3.5t2 4.5q-2 3 -4 5.5t-3 5.5l-2 6t-1 7q0 7 2 10t5 4.5t5 3t3 4.5v4.5v2v1.5t1 3q3 5 8 8t10.5 4.5
t12 2.5t12 2t9.5 2t6 4l0.5 1l1 2l1 2l0.5 1q2 3 3.5 5.5t1.5 6.5q0 3 -2 6l-4 6t-4.5 5t-3.5 3q-2 2 -5.5 3.5t-7 2.5t-6.5 3.5t-3 5.5zM66 137q0 -5 3 -10t9 -6q2 0 4.5 1t4.5 3.5t2.5 5t0.5 5.5q0 2 -1 4.5t-3 5t-4 4.5t-4 2q-3 0 -5.5 -1.5t-3.5 -4t-2 -4.5t-1 -5z
M121 139q0 -2 0.5 -5t2 -5.5t3.5 -4t4 -1.5t4 1.5t4 3.5t3.5 4t2.5 4q0 2 -1 4.5t-3.5 5t-5 3.5t-4.5 1q-6 0 -8 -3t-2 -8zM169 128v-5.5t1 -5t3 -4.5t5 -2q4 0 6.5 2t4 4.5t2 5.5t0.5 6q0 6 -3.5 9.5t-9.5 3.5q-3 0 -4.5 -1.5t-3 -3.5t-1.5 -4.5v-4.5zM116 99q1 -5 4 -9
t8 -4q4 0 9 2.5t5 7.5t-3.5 9.5t-8.5 4.5q-2 0 -4.5 -0.5t-4.5 -2t-4 -4t-1 -4.5zM65 97q0 -4 2.5 -8.5t7.5 -4.5t8 3t3 8q0 2 -1 4t-2 4.5t-2.5 4t-4.5 1.5h-1t-1 -1l-9 -9v-2zM169 87q0 -2 0.5 -4.5t1.5 -4.5t2.5 -3.5t3.5 -1.5q3 0 5 1.5t3.5 3.5t2 4.5t0.5 4.5
q0 4 -3.5 8t-8.5 4q-4 0 -5.5 -4t-1.5 -8zM90 53q1 0 3 2l4 4t3.5 4t2.5 2q2 2 5 2q1 0 2 -0.5t1 -1.5v-1v0q-3 -4 -7 -7.5t-4 -9.5q0 -3 0.5 -7t5.5 -4t10 4t9.5 9t10 8.5t11.5 3.5q0 -2 -4 -6t-9 -8t-9 -8t-4 -7q0 -2 1.5 -3t4 -1.5t5 -0.5h3.5h2h1l5.5 5.5l7 7t8 6
t7.5 2.5h1l2 -2v-0.5v-0.5q0 -3 -3 -5t-6.5 -3.5t-6.5 -4t-3 -6.5q0 -3 2 -4t4 -1.5t4.5 -1t2.5 -3.5t-2 -3.5t-4 -0.5t-8 1t-13.5 3.5t-16 5t-15 6t-11 8t-4.5 8.5v4.5t1 4.5z" />
</svg>
