<?xml version="1.0" standalone="no"?>
<!DOCTYPE svg PUBLIC "-//W3C//DTD SVG 1.1//EN" "http://www.w3.org/Graphics/SVG/1.1/DTD/svg11.dtd" >
<svg xmlns="http://www.w3.org/2000/svg" xmlns:xlink="http://www.w3.org/1999/xlink" version="1.1" viewBox="-10 0 266 256">
   <path fill="currentColor"
d="M178 154q0 3 0.5 9.5t1 14.5t0.5 14.5v9.5q0 2 1 6t2 9.5t2.5 11.5t3.5 11t4.5 8t5.5 3q1 0 1.5 -1t0.5 -2q0 -4 -1 -7t-2 -6.5t-2.5 -6.5t-2.5 -6q0 -4 -1 -14t-1.5 -20.5t-1 -20t-1.5 -13.5v-1q0 -2 3.5 -4.5t7.5 -6.5t7.5 -9t3.5 -13q0 -11 -6 -17t-14 -9.5t-18 -4.5
t-18 -1q0 4 2 6q5 1 12 2t13.5 4t11 7.5t4.5 11.5q0 2 -1 5t-2 5.5t-2.5 5t-3.5 2.5t-3 -3t-2 -7t-4 -7t-9 -3q-1 0 -5.5 -0.5t-9.5 -0.5h-9.5h-5.5q0 4 3.5 5t8.5 1.5t10 2t8 5.5q2 2 4.5 6t2.5 8q0 2 -3 4t-7 3.5t-8.5 2.5t-6.5 2q-1 0 -4 1t-6 1.5t-5.5 1.5t-3.5 1
q-2 0 -2 1v1q0 2 1 2.5t3 0.5q8 0 16 -2t16 -5q3 -1 5 -3t5 -2h1zM42 187q0 3 3 3t6.5 -1.5t6.5 -4t6 -5.5l5 -5l3.5 -3.5l5.5 -5.5l5.5 -5.5l3.5 -3.5h5l24 24l0.5 0.5t1.5 0.5q5 0 5 -4q0 -5 -3.5 -9.5t-7.5 -8t-7.5 -7.5t-3.5 -8t2.5 -7.5t5.5 -6.5t5.5 -6.5t2.5 -8.5
q-5 0 -8 3t-5.5 7l-5 8t-6.5 5q-3 -2 -6.5 -6t-7.5 -7.5t-8 -5.5t-8 -2l-0.5 0.5t-1.5 0.5v1q0 3 3.5 6.5l7 7t6.5 7.5t3 7t-5 8t-11.5 11t-12.5 11.5t-9 7.5v2zM92 76q3 0 7.5 4.5t9.5 10t9.5 10t7.5 4.5q1 0 1.5 -1t0.5 -2q0 -4 -3.5 -7t-4.5 -6q-2 -3 -5 -7t-5.5 -8.5
t-4.5 -7.5l-2 -3v-2l21 -26v-3h-3l-2.5 2t-5.5 5t-5 4q-3 3 -5.5 6t-6.5 3q-5 0 -9.5 -4t-9 -9t-9.5 -9t-12 -4q0 4 2 7t4.5 5.5l5 5l4.5 4.5q1 2 3 5t4 5.5t3 5l1 2.5v3l-29 28q-1 1 -1.5 3t-0.5 4q5 0 11 -3t11.5 -7t10 -9t7.5 -9v0zM170 45q4 4 9 8.5t10 8t11 5.5t11 2
q2 0 3 -0.5t2 -2.5l-1 -1.5t-2 -1.5q-4 -3 -7 -5l-6 -4t-6 -4.5t-7 -6.5q-2 -1 -5 -6.5t-5.5 -11.5t-5 -10.5t-3.5 -4.5l-1 0.5t-2 0.5q-2 6 -3.5 13t-4.5 13q-1 4 -4 6.5l-6 5t-6.5 5t-6.5 4.5q-1 1 -2 2.5t-2.5 2.5t-2.5 2l-1 1v2q6 0 11 -2t10 -5.5t9 -7.5l8 -8h6z" />
</svg>
