<?xml version="1.0" standalone="no"?>
<!DOCTYPE svg PUBLIC "-//W3C//DTD SVG 1.1//EN" "http://www.w3.org/Graphics/SVG/1.1/DTD/svg11.dtd" >
<svg xmlns="http://www.w3.org/2000/svg" xmlns:xlink="http://www.w3.org/1999/xlink" version="1.1" viewBox="-10 0 266 256">
   <path fill="currentColor"
d="M136 248l2 2l2 2v0q3 0 5 -5t3.5 -11.5t2 -12.5t1.5 -8q0 -5 0.5 -12t1 -14.5l1 -15t0.5 -14.5v-6q-1 -2 -1.5 -7.5t-1.5 -11l-2 -11t-2 -7.5q-1 -1 -2.5 -3.5t-3.5 -5.5t-3 -5.5t-1 -4.5q0 -3 2.5 -5l5 -4t5 -5t2.5 -7q-3 0 -5.5 1.5t-4.5 4t-4.5 4.5t-5.5 2l-1 -0.5
t-2 -0.5l-2 -1.5l-4 -3t-3.5 -3t-2.5 -1.5q-3 -2 -6 -5t-7 -3q0 4 2 7t5 6t6 5t4 4q0 1 0.5 1.5t0.5 1.5q0 2 -0.5 2.5t-1.5 2.5q0 1 -2 3.5t-4 5.5t-4 5.5t-2 3.5q-4 6 -6 14t-3 16.5t-1.5 16.5t-0.5 16v2v4v3v1q0 1 0.5 4t1 7l1 8t0.5 6q1 3 2.5 8.5t3.5 11.5t4.5 10
t5.5 4q0 -8 -3 -16.5t-5 -17.5q-3 -13 -3 -28v-28q0 -3 1.5 -11.5t4.5 -17.5t7 -16t10 -7q2 0 5 4.5t5.5 10.5t4 12t1.5 8v62q-2 5 -2.5 11t-0.5 11q0 6 -0.5 11.5t-5.5 9.5zM186 170q4 0 6.5 3.5t5 7.5t4.5 7t6 3h1.5t1.5 -1q-1 -1 -2 -3.5t-2.5 -5.5t-3 -5.5t-1.5 -3.5
q-1 0 -1.5 -1.5t-1.5 -3.5t-2 -3t-1 -2q-1 0 -1.5 -1.5l-0.5 -1.5q1 -4 3 -6.5t4 -5.5t4 -6.5t2 -7.5q-3 0 -5.5 3t-5 6.5t-5.5 6t-7 2.5q-3 0 -5.5 -0.5t-4.5 -2t-4.5 -2t-4.5 -0.5q0 3 2 5t4.5 3.5l5 3t2.5 4.5q0 4 -2 7t-5 5.5t-5 5.5t-2 6v2.5t2 1.5q3 0 5.5 -3t5 -7
t4.5 -7t4 -3zM47 127l3 3l3.5 0.5t5.5 0.5h4t4.5 -0.5t4.5 -0.5h2h2.5t5 -0.5l5 -1t4.5 -1.5q1 0 4 -1t3 -4q0 -1 -0.5 -1.5t-2.5 -1.5h-2.5h-4.5h-4h-3q-2 -1 -2.5 -2.5t-0.5 -3.5q0 -4 0.5 -7t1.5 -8q2 0 5 -0.5t6.5 -1t6 -1.5t2.5 -2v-1l-0.5 -1t-1.5 -1h-12
q-2 0 -8.5 0.5l-13 1t-11.5 1t-5 1.5v3l2.5 0.5t3.5 0.5t3 0.5t4 0.5t4 -0.5t3 -0.5l3 3v3v3q0 7 -1.5 10.5t-3.5 4.5t-5 1h-5q-3 0 -5.5 0.5t-3.5 3.5zM165 122q1 2 3 2q4 0 6 -2t4 -4.5t4.5 -4.5t5.5 -2t5.5 1.5t4.5 3.5t4.5 3.5t6.5 1.5q0 -4 -2.5 -6.5l-5 -5l-5 -5
t-2.5 -6.5l0.5 -1t1.5 -2l1 -2t2 -3.5l2 -3t2 -2.5v-2q0 -1 -0.5 -2t-1.5 -1q-2 0 -3.5 2l-3 4t-3.5 3.5t-5 1.5h-2q-1 0 -3 -0.5t-4.5 -1t-4.5 -1t-3 -0.5l-1.5 0.5t-2.5 1.5v1q0 3 2.5 4t5.5 2.5t5 3t2 4.5v1zM167 79l1 2q1 -1 2 -3.5l1 -2.5l3.5 -7t6 -11t6.5 -13
t6.5 -12.5t5 -9t1.5 -4.5q-6 0 -12.5 0.5t-13.5 0.5t-13.5 0.5t-12.5 0.5v1v1v1v0q0 1 1 2l2.5 2.5t2 2.5t1.5 2q0 1 1.5 3t3 4.5t2.5 5t2 2.5l2 8t1 8.5v8.5v7zM84 76q1 1 1.5 1t0.5 1h1h1q2 -4 4 -9t3.5 -10t3.5 -10l4 -10q1 -2 3.5 -5t5 -5.5t4.5 -5.5t2 -6t-1 -3h-2h-1
h-1q-3 0 -10 0.5t-15.5 1.5t-15.5 2t-10 1q-1 0 -1.5 0.5l-0.5 0.5q0 1 0.5 2t1 1.5l3 3l3.5 3.5t3 4t4 6.5l4 7t2 4.5q2 6 2.5 12.5t0.5 11.5zM77 28v-0.5v-1.5q3 -1 6 -1h7h7q1 0 1.5 1t0.5 3q0 1 -0.5 2l-0.5 1q0 4 -2 8.5t-7 4.5q-2 0 -4.5 -2t-4 -4.5t-2.5 -5t-1 -5.5z
M161 29v-1l1 -1t2 -1h18q2 0 2 3v3v3q-1 0 -2 1.5l-2 3t-2.5 3l-1.5 1.5h-2q-2 0 -4 -1.5t-4.5 -4t-3.5 -5.5t-1 -4z" />
</svg>
