<?xml version="1.0" standalone="no"?>
<!DOCTYPE svg PUBLIC "-//W3C//DTD SVG 1.1//EN" "http://www.w3.org/Graphics/SVG/1.1/DTD/svg11.dtd" >
<svg xmlns="http://www.w3.org/2000/svg" xmlns:xlink="http://www.w3.org/1999/xlink" version="1.1" viewBox="-10 0 266 256">
   <path fill="currentColor"
d="M163 193q0 13 1.5 24.5t6.5 22.5q1 3 2.5 6l1.5 3h4q0 -8 -2 -16.5t-5 -16.5v-21v-21q0 -2 0.5 -4.5t1 -5.5t1.5 -5.5t3 -3.5h3.5t5 -0.5t5 -0.5h3.5q2 -1 2.5 -1.5t0.5 -1.5v-1q0 -1 -1 -1q-8 -2 -14.5 -2.5t-14.5 -0.5h-17q-3 1 -9 1t-11.5 0.5t-9 1t-4.5 0.5l-3 3l3 3
h23l1 2l1 2v4t0.5 6t0.5 6v4q0 11 -0.5 22t-2.5 21l-4 6l-4 6t-3.5 6t-1.5 7q7 0 11 -6t6 -14.5t3 -16.5t1 -13v-8v-12v-12.5v-7.5q1 -2 2.5 -2.5t3.5 -0.5h4h3h5q2 0 2 2v2v2v1l-0.5 1.5l-1 3t-1 2.5t-0.5 2q-2 6 -2 11.5v11.5zM92 238v2.5t1 3.5q4 -2 6 -7t3 -11t1.5 -12
t0.5 -10v-13v-23t0.5 -28t0.5 -28.5v-23v-12.5v-22v-17.5t-1 -16.5q-4 -3 -8 -3q0 9 1 18.5t1 18.5v15q-1 2 -3 2.5t-4.5 1t-4.5 0.5h-3h-4t-3 -1q-1 -1 -1 -3.5t-0.5 -5t-1.5 -5t-2 -4.5q0 -1 -0.5 -1.5t-1.5 -0.5l-1 0.5t-2 1.5q1 1 1 5t-1 5q0 3 -0.5 8t-1 9.5t-1 8
l-0.5 3.5l-8 14l-0.5 0.5t-0.5 1.5t0.5 1.5t2.5 0.5t4.5 -1.5t4.5 -4.5l4 -6t2 -5q1 -1 1 -3v-3.5t0.5 -3t2.5 -3.5q5 -1 8.5 -1h8.5l2.5 -0.5t2.5 1.5v65q0 1 -2.5 1.5t-5.5 1t-6.5 0.5h-4.5q-4 0 -5 -3t-1.5 -6.5t-1 -6.5t-3.5 -3q-1 0 -1.5 0.5l-1.5 1.5v32v2t-0.5 4
t-0.5 4t-1 3q-1 6 -3.5 11t-2.5 11q7 0 10.5 -6.5t5.5 -14t3 -14t2 -6.5h18l2 1q0 1 -0.5 2.5t-0.5 3.5t-0.5 3.5t-0.5 2.5v2q0 5 1 9t1 8q0 6 -1 12t-2.5 12t-2 12t-0.5 12zM131 88q-1 2 -1.5 7t-1.5 10l-2 10t-1 7q-1 1 -2 4.5t-2.5 6.5t-3 5.5t-1.5 3.5h4l1.5 -1t2.5 -2
l2 -2t1 -2q4 -7 5.5 -13.5t2 -13t1.5 -11t4 -8.5t8.5 -6t16.5 -2h4.5h4.5q2 1 3.5 6t2.5 11.5t2 14t3 14t4.5 10.5t6.5 4q0 -7 -2.5 -14.5t-3.5 -15.5q0 -1 -0.5 -6l-1 -10l-1 -10t-0.5 -7q-2 -3 -5.5 -3.5t-7 -0.5t-7 -0.5t-4.5 -4.5v-2.5v-3.5q0 -3 0.5 -5t1 -3.5
t2.5 -2.5t5 -1q2 0 5.5 -0.5t8 -1t8.5 -1t5 -0.5q2 -1 2 -3.5v-2.5q-8 0 -16.5 1t-17.5 1h-1q0 -1 -0.5 -1.5l-0.5 -0.5q0 -1 -0.5 -4t-0.5 -6.5t-0.5 -6.5t-0.5 -5q0 -5 -4 -7l-2 2q0 6 -1.5 13t-1.5 14t0.5 14.5t1.5 14.5l-2 2t-1 3q-3 0 -6.5 0.5t-7 2t-6 4t-2.5 5.5z
M145 107q0 1 0.5 2t1.5 1h9h4h6t5.5 -1t2.5 -3q0 -1 -0.5 -2t-2.5 -1h-20q-6 0 -6 4z" />
</svg>
