<?xml version="1.0" standalone="no"?>
<!DOCTYPE svg PUBLIC "-//W3C//DTD SVG 1.1//EN" "http://www.w3.org/Graphics/SVG/1.1/DTD/svg11.dtd" >
<svg xmlns="http://www.w3.org/2000/svg" xmlns:xlink="http://www.w3.org/1999/xlink" version="1.1" viewBox="-10 0 266 256">
   <path fill="currentColor"
d="M83 185q0 5 -2 11t-5 12.5t-6 12.5t-6 9q-1 2 -3.5 4.5t-5 5.5t-4.5 5.5t-2 5.5h7q1 0 2.5 -1.5l3.5 -3.5t4 -4.5t3 -3.5q7 -9 13 -23t10.5 -30.5t7.5 -34.5t4.5 -35t2.5 -32t1 -25v-21q0 -2 -0.5 -5l-1 -6t-1.5 -5.5t-3 -2.5q-1 0 -1.5 0.5l-1.5 1.5v28q0 1 -0.5 2.5
t-0.5 3t-0.5 3t-0.5 2.5q0 2 -2.5 2h-3.5h-2.5h-2.5q-2 -3 -2 -7t-1 -7.5t-2.5 -6t-6.5 -2.5v16.5t-0.5 17t-1.5 17t-5 16.5q-1 3 -4 6.5t-5.5 6.5t-4.5 6t-2 8q4 0 7 -2.5t6 -6t5.5 -7t3.5 -5.5l3.5 -7t3.5 -5.5t4.5 -3.5t6.5 -1h1h2h2t1 1v22q-3 4 -3 8q0 5 -0.5 9t-2 7
t-8.5 3q-4 0 -5.5 -2t-2.5 -5t-2 -5t-5 -2h-1l-0.5 0.5l-0.5 0.5q1 11 -0.5 20.5t-4.5 18t-7.5 17t-9.5 17.5q-2 1 -2 1.5v2.5t0.5 3t2.5 1q5 0 8 -5t5.5 -10.5t6.5 -10t13 -4.5q2 0 3.5 0.5t1.5 2.5zM130 206q0 9 1 15.5t4.5 10t9 5t14.5 1.5q13 0 21 -1t12 -5t5.5 -11.5
t1.5 -20.5v-11.5t-1.5 -7t-5 -3.5l-10.5 -3q-6 -1 -11.5 -3t-11.5 -2q-12 0 -18.5 6.5t-10.5 16.5v2v4.5v4.5v2zM139 205q0 -8 1 -12.5t3 -7.5t6.5 -4t11.5 -1h7q7 1 11.5 2t6.5 3.5t3 7t1 11.5q0 9 -1.5 14t-5 7t-9 2h-13.5h-2h-4h-3.5h-2.5q-4 -1 -5.5 -3.5t-2.5 -5.5
t-1.5 -6.5t-0.5 -6.5zM150 201q0 12 8 18h7h4.5t4.5 -0.5t4 -2t2 -3.5l2 -17q0 -3 -2 -4t-4 -1.5t-5 -0.5h-4q-7 0 -12 2t-5 9zM158 204q0 -4 2.5 -6.5t7.5 -2.5l2 0.5l2 0.5q1 0 1.5 2l0.5 2q0 2 -0.5 5t-1 3.5t-2 1t-2.5 1t-2.5 1t-2.5 0.5q-3 -2 -4 -3.5t-1 -4.5zM72 169
q0 -6 2.5 -11t8.5 -5q7 0 7 6q0 3 -0.5 5t-2 4.5t-3.5 4t-4 1.5q-1 0 -4.5 -0.5t-3.5 -1.5v-3zM159 133q-2 0 -4 2t-4 5t-3.5 6t-3.5 4l-2.5 2.5t-3.5 3t-3.5 2.5t-1.5 2q-1 1 -4 1.5t-5.5 2t-4.5 3t-2 4.5q5 0 10.5 -2t11 -5t10 -7t8.5 -7h1.5h2.5q2 0 4 1t3.5 2.5l3.5 3.5
t4 3q7 4 16 7.5t17 3.5q2 0 3.5 -0.5t1.5 -2.5q0 -3 -7 -5.5t-15 -5t-14.5 -6.5t-6.5 -10q0 -7 1.5 -14.5t3.5 -14.5q1 -2 2 -2.5t3 -0.5q1 0 3 0.5t1 2.5v17t1 16l1 1v0q2 0 3 -2.5t1 -6.5v-8t0.5 -8t1.5 -6.5t3 -2.5q4 0 4.5 5.5t0.5 12t1 12t5 5.5h1.5t1.5 -2v-5v-6
q0 -1 -0.5 -4t-0.5 -7t-0.5 -7.5t-0.5 -4.5q0 -7 -4 -9t-10 -2v-4.5t0.5 -2.5t2 -2t4.5 -2q2 -1 4 -4.5t3.5 -7.5t2.5 -8t1 -6v-1q-1 0 -1.5 -0.5l-0.5 -0.5h-1q-3 0 -4 2l-2.5 5t-3 5.5t-5.5 2.5v-36q3 -4 4 -7.5t1 -8.5q0 -3 -0.5 -4.5t-3.5 -1.5t-3 1t-1 4q-1 6 -5 9.5
t-8 6.5t-7.5 5.5t-3.5 5.5q3 0 5 -0.5t3 -1.5t2.5 -2t4.5 -1q1 -1 2.5 1t1.5 4v23v2t-0.5 2.5t-1.5 2.5l-1 1h-1q-3 -1 -4 -4.5t-2 -6.5t-2.5 -5.5t-4.5 -2.5q0 6 1 11.5t4 10.5q1 2 3 3t3.5 2t3 2.5t1.5 3.5q0 3 -2.5 4.5l-5 3t-5.5 3t-3 3.5l-3 25v0q-2 0 -3.5 -0.5
t-3.5 -0.5zM133 142l4 3q1 -3 1.5 -8l1 -10t1 -8.5t3.5 -3.5q2 0 2.5 1.5t0.5 3.5q0 1 0.5 3t0.5 4t0.5 3.5t0.5 2.5l2 1l1.5 -1.5t1.5 -2.5v-19q0 -3 -2 -4t-4.5 -1.5t-4.5 -2t-2 -3.5q0 -5 2.5 -7t6 -3.5t6.5 -3.5t4 -7q0 -1 0.5 -3.5t0.5 -5v-5v-3.5v0v0q-2 0 -4 2.5
t-3.5 6t-3.5 7t-4 5.5l-3 -2v-25q0 -2 -1 -3t-3 -1l-0.5 0.5l-0.5 0.5l-3 28h-3q-1 -1 -2 -3.5t-3 -6t-3 -6t-2 -3.5q-1 -2 -3 -2v6.5t1 7t2.5 7t3.5 5.5t3.5 2.5t3 1.5t2 2t0.5 3q0 3 -1 4.5t-2.5 2.5l-3 2t-2.5 2q-8 9 -10.5 18t-2.5 21q5 0 7 -5t2.5 -11t1.5 -10.5
t5 -4.5h1q1 0 2 0.5t1 1.5v26zM83 79q0 -3 1.5 -6t5.5 -3q1 0 4 0.5t3 2.5v11q0 2 -3 3t-5 1q-3 0 -4.5 -3.5t-1.5 -5.5zM144 10q0 8 -2.5 14t-6.5 12q-2 2 -4.5 3.5t-4.5 3.5l-4 4t-2 5q6 0 12 -2.5t10.5 -7t7 -10t2.5 -11.5v-3t-1 -4t-2.5 -3t-2.5 -1h-1h-1z" />
</svg>
