<?xml version="1.0" standalone="no"?>
<!DOCTYPE svg PUBLIC "-//W3C//DTD SVG 1.1//EN" "http://www.w3.org/Graphics/SVG/1.1/DTD/svg11.dtd" >
<svg xmlns="http://www.w3.org/2000/svg" xmlns:xlink="http://www.w3.org/1999/xlink" version="1.1" viewBox="-10 0 266 256">
   <path fill="currentColor"
d="M157 246q0 2 1.5 3.5t4.5 1.5q2 0 3.5 -1t1.5 -4v-165q0 -1 0.5 -1.5t1.5 -0.5q10 -2 16.5 -3.5t9.5 -5t4 -9.5t1 -17v-3v-3v-4v-3q-1 -2 -4 -3t-5 -1v29q0 7 -5 10t-10 3q-1 0 -3 -0.5l-2 -0.5q-3 -1 -3.5 -1.5t-0.5 -2.5q0 -10 1 -19.5t1 -19.5v-6q-4 -5 -11 -5v54
q0 2 -2 2h-2q-3 0 -5.5 -2t-4 -5.5t-2.5 -7t-1 -5.5q0 -1 -0.5 -3t-0.5 -4.5t-0.5 -5t-0.5 -3.5l-0.5 -0.5l-0.5 -0.5q-1 0 -4 -0.5l-3 -0.5q0 2 1 8t2.5 13.5t3.5 13.5t4 8h2t3 0.5t3 0.5h2q1 1 3.5 1.5l2.5 0.5v150l-0.5 2.5t-0.5 5t-0.5 4.5t-0.5 3v3zM80 240l1 0.5
t2 1.5v0q2 0 3 -1.5l2 -3t1.5 -3t0.5 -2.5v-111l3.5 -0.5t4.5 -1.5h4t6 -0.5t5.5 -0.5h3.5l1.5 -1.5t0.5 -1.5q0 -2 -1 -3.5t-3 -1.5h-1q-1 0 -3.5 0.5t-5.5 0.5t-5.5 0.5l-2.5 0.5h-3q-3 0 -4 -2t-1.5 -5t0 -6t0.5 -5v-4v-3q4 -1 6.5 -2t4.5 -2.5t3.5 -4t4.5 -5.5
q1 -5 1.5 -8t1 -6.5t0.5 -6.5v-8v-4.5v-5.5q0 -1 -2 -1.5t-4 -0.5h-1q0 2 -0.5 5t-0.5 7v7.5v4.5q0 3 -0.5 6t-1.5 5.5t-3 4t-5 1.5h-3t-1 -3v-54q0 -2 -1.5 -2.5t-3.5 -0.5h-2.5t-1.5 1v61l-0.5 0.5t-1.5 0.5h-1q-4 0 -7.5 -3t-3.5 -8q0 -1 -0.5 -5t-0.5 -8t-0.5 -7.5
t-0.5 -5.5l-6 -6q-1 0 -2 0.5l-1 0.5v1v2v1v1q0 2 1 7t2 11t1.5 11t1.5 7q1 5 4 6.5t7 2.5t6.5 2.5t2.5 5.5v2.5v1.5v4.5t-0.5 5t-0.5 4.5v2l-2 2h-31q0 8 8 8q5 0 10.5 -0.5t10.5 -0.5h3t2 1v90q-1 6 -1.5 10t-0.5 9v5t1 4zM117 238q0 1 1.5 2t1.5 2h1q1 0 2.5 -1t2.5 -3
v-8q0 -7 -0.5 -14t-0.5 -14v-4q0 -2 0.5 -7.5t1.5 -12t1.5 -12t0.5 -8.5q1 -6 3 -11.5t5 -10.5t6.5 -10t6.5 -10v-2v-2q0 -5 -2 -10t-5 -8.5t-7 -5.5t-10 -2l-1 0.5t-2 0.5v1v1q2 2 5.5 3.5t6.5 4t5 5t2 6.5q0 5 -2.5 9.5t-5.5 9t-6.5 8.5t-4.5 9q-4 16 -5 32.5t-1 33.5v6v8
v9v5zM195 233q0 3 1 3.5t3 0.5q3 0 4.5 -1.5t2 -4t0.5 -5v-4.5t-0.5 -4t-1.5 -4q1 -19 0.5 -38t-3.5 -38q-2 -4 -3.5 -6.5t-3 -5.5t-2 -6t-0.5 -8q0 -4 2 -7.5t4 -6.5t4 -5.5t2 -6.5q0 -2 -1.5 -2h-2.5q-3 0 -6.5 3t-6 8t-4 10t-1.5 7q0 7 1.5 11.5t5.5 9.5l6 27v5.5
t0.5 13.5t0.5 16.5v13.5v4q0 5 -0.5 10t-0.5 10z" />
</svg>
