<?xml version="1.0" standalone="no"?>
<!DOCTYPE svg PUBLIC "-//W3C//DTD SVG 1.1//EN" "http://www.w3.org/Graphics/SVG/1.1/DTD/svg11.dtd" >
<svg xmlns="http://www.w3.org/2000/svg" xmlns:xlink="http://www.w3.org/1999/xlink" version="1.1" viewBox="-10 0 266 256">
   <path fill="currentColor"
d="M156 216q0 2 0.5 7.5t1.5 11.5t3.5 10.5t5.5 4.5q2 0 4 -1t2 -4q0 -4 -1.5 -7.5t-3.5 -7.5t-3.5 -8t-1.5 -8q0 -6 4.5 -10t10.5 -7t11.5 -6t8.5 -7q2 -3 2 -5.5v-5v-5t1 -4.5v-2q0 -2 0.5 -3.5t0.5 -3.5v-2v-3t-0.5 -3.5t-0.5 -3.5v-1v-2t-0.5 -2.5t-0.5 -3v-1.5
q-1 -8 -1 -13t-2 -8.5t-7 -5t-15 -1.5h-2q-2 0 -3.5 0.5t-2.5 1t-1 2.5q0 1 0.5 1.5l1.5 1.5q11 0 16.5 2.5t7.5 7t2 11.5v17v13.5t-2 12.5q-1 5 -4 8t-7 5t-8.5 3.5t-8 4.5t-6 7.5t-2.5 11.5zM75 237q0 3 0.5 4t4.5 1h1l3 -7q0 -14 1 -26t1 -25q0 -4 -1 -7.5t-1 -7.5v-2
q1 -1 1.5 -5t0.5 -5l5 -2.5t6.5 -3t6 -3.5t2.5 -5v-19q0 -4 -2 -6.5t-5.5 -4t-6.5 -2.5t-6 -1v-16q4 -1 9.5 -3t8.5 -6q0 -1 0.5 -3t0.5 -4t0.5 -4t0.5 -3v-2q0 -10 -3 -13.5t-6.5 -5t-6.5 -2.5t-3 -5q0 -7 1 -14.5t1 -15.5q0 -3 -4 -3q-5 0 -5 6v27q0 3 -1.5 4.5t-4 2.5
t-5 1.5t-4.5 1.5q-4 5 -4.5 9t-0.5 10q0 8 3 12t6 5.5t6 2.5t3 3v15l-2.5 1.5t-5.5 3l-6 3t-4 3.5q-3 4 -3 9v10v6q4 5 9 6.5t11 2.5v27q0 14 -1 27.5t-1 27.5zM122 145q0 7 0.5 15t3 15t8 11.5t14.5 4.5h2h2.5t4 -0.5t4.5 -0.5h2q1 0 1 -1v-1q0 -3 -3 -4q-3 0 -7 -0.5
t-8 -1.5t-7.5 -3t-5.5 -4q-4 -8 -4.5 -14.5t-0.5 -15.5v-2v-5q0 -2 0.5 -4t0.5 -3q1 -5 4 -9t8 -7q1 -1 4.5 -2t7 -1.5t6 -1.5l2.5 -1v-21l21 -3q3 -1 5 -3.5t3.5 -6t2.5 -7.5t1 -6v-18v-18q-1 -1 -2 -2.5t-2 -1.5q-2 0 -2.5 2t-1.5 4q0 2 -0.5 5.5l-0.5 3.5l-3 1h-17
q-3 0 -4.5 -2.5t-2 -6t0 -6.5t0.5 -4l-0.5 -0.5l-1.5 -1.5v0h-1l-2 2l-1 1v3v2v5t0.5 6.5t1.5 6t4 2.5h25q0 3 0.5 4.5t-1.5 3.5q-10 1 -18 1.5t-18 0.5h-5.5h-3.5l-3 -3q-1 0 -1 -2v-3q0 -5 1 -9t1 -8q0 -3 -1 -4t-3 -1q-2 1 -2.5 4.5t-1.5 7.5t-1 7.5v5.5q0 9 0.5 15.5
t3.5 11.5t8.5 7.5t14.5 3.5l0.5 3l0.5 3v5t-2 5q-11 2 -17 5t-9 8t-4 12t-1 16zM144 166q2 3 6 4.5t8.5 1.5h8.5h8h11q1 0 2 -0.5t1 -1.5v-1q0 -1 -1 -1.5l-2 -1t-2.5 -0.5h-1.5q-2 0 -5 -0.5t-8 -0.5q-3 0 -6.5 0.5t-5.5 0.5t-2.5 -1t-0.5 -2q0 -2 1.5 -4.5t3 -4.5t4 -3.5
t4.5 -1.5h1h1l14 14h1q2 0 2 -2v-4q0 -4 -2.5 -6t-5.5 -3.5t-6 -3.5t-3 -4v-23l-0.5 0.5l-0.5 0.5q-3 1 -4 4.5t-1.5 7.5t-0.5 7.5v5.5q-1 1 -4 3.5t-4 2.5q0 1 -1 0.5t-2 -0.5v-21q0 -1 -1 -2.5t-2 -1.5q-2 0 -3 4t-1 9.5v10.5v7v2v4v2.5v2.5zM63 133q0 -3 2 -6t5 -5
t6.5 -3t6.5 -1q8 -1 12.5 2.5t4.5 10.5q0 10 -5 13.5t-14 3.5q-7 0 -12.5 -3t-5.5 -12zM66 72q0 -9 6 -13t14 -4q7 0 10.5 4.5t3.5 10.5q0 8 -5 11.5t-11 3.5q-8 0 -13 -2.5t-5 -10.5zM138 76q-2 -2 -2 -4.5v-4.5v-1.5v-1.5l8 -2h39q1 0 1.5 2t0.5 3q0 5 -4 8t-9.5 4
t-10.5 1h-8h-1h-1l-2 -0.5t-4.5 -1.5t-4.5 -1.5z" />
</svg>
