<?xml version="1.0" standalone="no"?>
<!DOCTYPE svg PUBLIC "-//W3C//DTD SVG 1.1//EN" "http://www.w3.org/Graphics/SVG/1.1/DTD/svg11.dtd" >
<svg xmlns="http://www.w3.org/2000/svg" xmlns:xlink="http://www.w3.org/1999/xlink" version="1.1" viewBox="-10 0 266 256">
   <path fill="currentColor"
d="M132 245q0 4 3 4t5 -5.5t3.5 -15t2 -21.5t1 -25t0.5 -26.5t1 -25.5t2.5 -21.5t3.5 -14.5q1 -3 4.5 -3h6.5h2l0.5 2.5l1 5t1 4.5t0.5 3t1.5 3t2.5 2t3 1t4.5 1.5l5 1t4.5 0.5q0 -3 -2 -4.5t-4.5 -3t-5.5 -3t-4 -3.5q0 -2 -1 -5t0 -3l1 -3h23q0 -1 -0.5 -3t-2.5 -3h-2.5
t-5 -0.5t-4.5 -0.5h-3q-3 -1 -4.5 -2t-1.5 -4v-1q0 -1 0.5 -4.5t2.5 -4.5h3.5h3.5q7 0 11 2.5t6 6.5t2.5 9.5t0.5 12.5q0 19 -1 37.5t-1 37.5v19q0 3 0.5 10.5t1 16t1 16t1.5 10.5q0 1 1 2l2 2q2 0 3.5 -2.5t1.5 -3.5v-1q0 -2 -0.5 -5l-1 -6t-0.5 -5v-3l-1 -3l-1 -3
q0 -7 -0.5 -12.5t-0.5 -10.5v-10v-11q0 -21 1.5 -41.5t1.5 -40.5q0 -11 -2 -16.5t-6 -8.5t-11 -4.5t-16 -2.5l-2 -2v-5q0 -3 0.5 -7.5t2 -9t4 -8t7.5 -3.5q-1 2 -0.5 6t2.5 8t4 6.5t5 2.5q4 0 6 -3q-5 -4 -7 -7.5t-2 -8.5v-3q0 -3 2 -3l2 -0.5t3.5 -0.5t3.5 -0.5l2 -0.5
q1 0 1.5 -1t0.5 -2v-1v-1l-1.5 -0.5t-1.5 -1.5q-1 0 -3 0.5t-4.5 1t-5 0.5h-2.5q-11 2 -16.5 5.5t-7.5 8.5t-2.5 10t0 9.5t-0.5 7.5t-4 3q-4 0 -6 -2t-2 -6q0 -7 1 -14.5t1 -15.5v-3.5t-3 -2.5v0q-1 0 -1.5 1l-0.5 1q-1 5 -1 9t-0.5 7.5t-0.5 7.5v8v12q1 2 4 2.5l6 1t5 0.5
t2 2v16l-0.5 0.5t-1.5 0.5q-6 2 -10 4t-7 5t-4.5 7t-1.5 11q0 2 -0.5 6.5t-0.5 10t-0.5 10t-0.5 6.5v5v6v7v4v9t-0.5 12t-0.5 11.5v6.5q-1 4 -2 9.5l-2 11l-2 11t-1 8.5zM97 244l1.5 1.5l1.5 1.5q1 0 2 -0.5t1.5 -1l1 -1l0.5 -0.5q7 -12 10 -25.5t5 -26.5q1 -3 2 -11
t2 -17.5t1.5 -18.5t1.5 -14v-3.5v-4.5q0 -4 -2 -6.5t-4.5 -5t-4.5 -5t-2 -6.5v-1q0 -1 0.5 -3.5t1.5 -5l2 -5t2 -2.5h17l0.5 -1t1.5 -1v-1v-1l-1.5 -1.5l-0.5 -0.5h-43q-1 0 -1.5 0.5t-0.5 1.5t-0.5 2.5l-0.5 1.5h18v23q0 3 1.5 5.5t4 4.5t4 4.5t1.5 6.5q0 6 -1 12.5
t-2 13.5q-3 23 -7.5 45.5t-12.5 45.5zM176 139q2 0 4 1.5t2 3.5v100h5v-7.5t0.5 -11t0.5 -13v-13t0.5 -11t0.5 -7.5v-20v-21q-1 -1 -1.5 -2t-2 -2.5t-3 -2t-2.5 -0.5h-26q0 2 1 3t2.5 1t2.5 0.5t2 2.5v4.5v4.5q0 11 -0.5 22t-2 21.5t-2 21t-0.5 21.5q6 0 7 -7l6 -84
q3 -1 3 -3t3 -2zM40 152q0 5 2.5 6.5t6.5 1.5h5q2 0 8 -0.5t13 -0.5t13 -0.5t9 -0.5v-1v-1q0 -2 -1.5 -3t-4 -1.5t-4.5 -0.5h-3q-2 0 -5.5 -0.5t-3.5 -1.5v-50q0 -1 2 -1.5t4.5 -0.5t5 -0.5t3.5 -2.5v-1v0v0l-3.5 -0.5t-7.5 -1.5t-4 -2v-47l1.5 -1.5t2.5 -1.5q1 -1 4.5 -1.5
t5.5 -0.5v-2l-0.5 -1.5t-1.5 -1.5h-37q-2 0 -3.5 1.5t-1.5 3.5v2q5 1 10 1.5t10 -0.5q1 5 1 9.5t0.5 8.5t0.5 8v8v7q0 1 -0.5 3t-0.5 3.5t-0.5 2.5l-0.5 1h-22q0 3 1 5t3 3h3t4.5 -0.5t4.5 -1t3 -0.5l1.5 0.5l1.5 0.5v54h-25zM102 31v3v5v4.5v1.5q0 1 0.5 3l1 4t2 3.5
t3.5 1.5h20l5 -3l0.5 -2t1.5 -4.5t1.5 -5t1.5 -3.5q1 -5 1 -11.5v-10.5q0 -2 -1 -4.5t-3 -2.5t-3 2t-1.5 4.5t-1.5 5t-3 3.5h-7q-6 0 -8.5 -2t-3 -4.5t-0.5 -4.5t-2 -2h-1l-1.5 1.5l-1.5 1.5v3v5v4v4zM108 39q0 -1 0.5 -3l0.5 -2l1 -2h21v4t-0.5 6.5t-2 6t-3.5 2.5h-13
q-2 0 -2.5 -2l-1 -4t-0.5 -4v-2z" />
</svg>
