<?xml version="1.0" standalone="no"?>
<!DOCTYPE svg PUBLIC "-//W3C//DTD SVG 1.1//EN" "http://www.w3.org/Graphics/SVG/1.1/DTD/svg11.dtd" >
<svg xmlns="http://www.w3.org/2000/svg" xmlns:xlink="http://www.w3.org/1999/xlink" version="1.1" viewBox="-10 0 266 256">
   <path fill="currentColor"
d="M157 197h3t3 1v51q0 2 1.5 2h2.5h2t2 -2v-47l2 -5l2 -0.5t3 -0.5q4 0 8 1t7 3t4.5 5.5t1.5 8.5v30q0 3 1 4t3 1q3 0 4 -3t1 -6v-10t-0.5 -15t-3.5 -14t-8 -8q-1 0 -4 -0.5t-6.5 -1.5t-6.5 -1.5t-5 -0.5q-2 -2 -2.5 -3.5t-0.5 -3.5q0 -5 2.5 -7t6 -3t8 -1t8.5 -2.5t6.5 -7
t2.5 -13.5q0 -2 -0.5 -3.5t-3.5 -1.5h-0.5h-1.5q-1 5 -2 8.5t-3.5 6.5t-5.5 4t-9 1h-6q-1 0 -1.5 -1.5l-0.5 -1.5q0 -1 -0.5 -3.5t-0.5 -5t-0.5 -5t-0.5 -3.5l-2 -2q-3 2 -4 6t-1 8t-0.5 7t-3.5 3q-7 0 -11 -3.5t-6 -7.5t-3.5 -7.5t-3.5 -3.5t-3 1t-1 3v2t1 1q1 7 3 11.5
t5 6.5t7.5 2.5t12.5 1.5q3 1 3.5 5t0.5 6q0 5 -3.5 7t-8 3l-9 2t-7.5 5q-3 5 -4.5 11t-2.5 13t-1 14v12q3 0 5.5 -2.5t2.5 -5.5l6 -33q0 -1 0.5 -2.5t1.5 -3l2 -3t2 -2.5q2 -1 5 -1h5zM45 176v2.5t1 1.5h66q2 0 2.5 -1t0.5 -2v-3t-1 -2h-24v-49h6t8 -1t6.5 -3t2.5 -5h-20
q-2 0 -2.5 -2.5t-0.5 -4.5v-1v-2q0 -4 0.5 -9.5t0.5 -11t0.5 -9.5l0.5 -4l1 -2h19q0 -4 -2 -6t-6 -2h-2q-3 0 -10.5 0.5t-15.5 1t-15 0.5h-10l-0.5 0.5t-0.5 1.5t0.5 2.5l0.5 1.5h31v43l-2 3q-1 0 -4.5 0.5t-7.5 0.5t-7 0.5t-5 0.5h-1.5t-3 0.5t-2.5 1.5t-1 2v1l0.5 1t1.5 1
h30v49l-3 1h-26q-1 0 -3.5 0.5t-2.5 1.5v1zM142 131q5 1 8.5 2t7 1h6.5h7h13.5t13.5 -1q4 -3 6.5 -7.5t4 -9.5t2 -10.5t0.5 -9.5v-1.5v-0.5q0 -2 -0.5 -6t-1 -9t-1 -9.5t-0.5 -5.5q-2 -3 -5.5 -4.5t-7.5 -2t-9 -0.5q-4 0 -7.5 -0.5t-5.5 -2t-2 -5.5v-3.5t0.5 -3.5t1.5 -3.5
t3 -1.5l19 -4l0.5 -0.5l0.5 -0.5v-0.5v-0.5v-0.5v-0.5l-0.5 -1l-0.5 -1h-19l-3 -1v-3q0 -3 -1 -5.5l-2 -5t-3 -2.5l-1 1q-1 0 -2.5 0.5l-1.5 0.5v42l-3 2q-10 2 -16 4t-9 5.5t-4 10t-1 17.5q0 5 0.5 10.5t1.5 10.5t4 9.5t7 6.5zM149 123q-1 -2 2 -5t7 -6t7.5 -5.5t5.5 -2.5
h1h1q0 1 2 2.5t4.5 3t4 3t2.5 1.5q1 1 2.5 2l3 2t2.5 2.5t1 4.5q-1 0 -2 1.5t-2 1.5h-14h-14h-3t-4.5 -0.5t-4 -1.5t-2.5 -3zM137 109v-7t4 -6q1 -1 4.5 -3.5l7 -5t7.5 -5t7 -3.5h1q3 0 8.5 3t11 7.5t9.5 8.5t4 7t-1 5.5t-5 2.5q-5 0 -9 -4t-7 -8.5t-5 -8.5t-3 -5
q-3 2 -5.5 7t-5.5 10t-7 8.5t-10 3.5t-6 -7zM173 65v-3q5 2 10.5 2t9.5 1t6 4.5t2 10.5v3.5v3.5t-0.5 1.5t-1.5 0.5v0v0q-3 0 -7.5 -2t-8.5 -6t-7 -8t-3 -8zM165 63q0 5 -3 9.5t-6.5 8t-8 5.5t-9.5 2q0 -7 1.5 -12t4.5 -8t8 -4t13 -1z" />
</svg>
