<?xml version="1.0" standalone="no"?>
<!DOCTYPE svg PUBLIC "-//W3C//DTD SVG 1.1//EN" "http://www.w3.org/Graphics/SVG/1.1/DTD/svg11.dtd" >
<svg xmlns="http://www.w3.org/2000/svg" xmlns:xlink="http://www.w3.org/1999/xlink" version="1.1" viewBox="-10 0 266 256">
   <path fill="currentColor"
d="M105 248q0 1 0.5 2t3.5 1q6 0 13.5 -6t14.5 -12.5t12 -12.5t7 -6q3 0 5 2t3.5 4.5l3 5t2.5 3.5l4.5 4.5t5.5 6t6 6t4 3.5h5h3.5t2.5 -2q0 -1 -3 -4t-7.5 -7t-9.5 -8.5t-9.5 -9t-7.5 -8.5t-3 -7v-23l0.5 -1l0.5 -1l14 -2t12 -3.5t7.5 -8t2.5 -15.5t-2.5 -16.5t-8 -10
t-13.5 -4.5t-17 -1q-7 0 -14.5 2.5t-11.5 9.5q-1 4 -1.5 7t-1 5.5t-0.5 5.5v6q0 12 4 16.5t8.5 6t8 2t3.5 4.5v24q-2 3 -5.5 6.5t-5.5 6.5q-1 1 -4 3.5t-6.5 5t-6.5 5t-4 3.5q-1 0 -3 1.5t-4 2.5t-4 2.5l-2 1.5q-2 1 -2 1.5v2.5zM110 217q0 2 1.5 2h2.5q3 0 7.5 -3t8.5 -7.5
t7 -9t3 -8.5q0 -1 -1 -2t-2 -1q-2 0 -4 2l-3 3t-4 4.5l-6 7l-6 7t-4 4.5v0.5v0.5zM175 192v0v1l23 23q2 2 5 2q2 0 3.5 -1t1.5 -3v-1q-2 -2 -5.5 -6.5t-8 -8.5t-9 -7t-7.5 -3t-3 4zM40 172v1v0q0 1 1.5 2t1.5 2h10q13 0 26 -1.5t26 -2.5q1 0 1.5 -1t0.5 -2t-0.5 -2.5
t-1.5 -1.5h-21v-55q0 -1 0.5 -1.5t1.5 -0.5l2.5 -0.5t3.5 -1.5h2.5t3 -0.5t2.5 -0.5h2q0 -1 1 -2t1 -2l-1 -0.5l-1 -0.5q-4 -3 -7.5 -2.5t-8.5 0.5l-2 -1v-47l2 -1q1 0 3 -0.5t4 -0.5t4.5 -0.5l2.5 -0.5q3 0 4 -0.5t1 -2.5q0 -3 -1 -3q-1 -1 -4 -1h-3q-11 0 -21.5 0.5
t-23.5 1.5q-2 1 -2 1.5v1.5v2.5t2 1.5h19l0.5 1t1.5 2q2 8 1.5 15t-0.5 16v4v5v4v2l-1 4h-21q-2 0 -2 2v3q0 2 1.5 2.5t3.5 0.5q5 0 9 -0.5t9 -1.5l1 2v2v5v6v4q0 3 0.5 7.5t0 10t-0.5 10.5t-1 9q-1 3 -6.5 3.5t-10.5 0.5q-6 0 -11 0.5t-5 2.5zM136 158q0 -5 2.5 -6t7.5 -2
h4.5t10 -0.5t11.5 -0.5h10h1q2 0 3 2.5t1 4.5q0 5 -4.5 8.5t-10 5t-11 2t-8.5 0.5q-6 0 -11.5 -4t-5.5 -10zM165 126h10q1 0 3 1.5t4 3.5t3.5 4.5t1.5 4.5q0 1 -0.5 2t-1.5 2h-9t-14 0.5t-13.5 0.5h-8.5h-4q0 -7 2.5 -11t6 -5.5t9 -2t11.5 -0.5zM156 66v4v6t-0.5 6.5
t-1.5 4.5q-2 3 -6 6t-9 5.5t-10.5 5t-10.5 5t-7.5 6t-2.5 6.5q7 0 14 -4t13.5 -8.5t13 -8.5t13.5 -4t12.5 2.5t11 6.5t11.5 7.5t12 4.5q1 1 4 0l3 -1v-1v-1q0 -3 -3 -5t-8 -4t-11 -4t-11.5 -4.5t-10 -5t-7.5 -5.5v-4.5t-0.5 -7.5t-0.5 -7.5v-5.5v-3v-2t1 -1q8 -1 14 -2
t10.5 -3.5t6.5 -6.5t2 -12v-4v-4q-1 -1 -1.5 -1h-1.5q-4 0 -4.5 3.5t-1 8t-4 8t-12.5 3.5q-3 0 -5.5 -1t-2.5 -5t1 -8.5t1 -9.5v-4v-4q-1 -1 -2.5 -2t-2.5 -1h-1q-1 1 -2.5 1.5l-1.5 0.5v32h-2.5t-4 0.5t-4 0.5h-2.5q-5 -1 -6.5 -4.5t-2.5 -7.5t-1.5 -7t-3.5 -3
q-2 0 -3.5 1.5t-1.5 4.5l0.5 1.5t0.5 2.5q1 1 1.5 2t0.5 2q2 6 3.5 9t4 4.5t7 2t11.5 2.5l2 1v4.5v5.5zM113 85v1l2 2t2 1q1 1 5 -1.5t9 -6t9 -6t4 -3.5q0 -2 -1.5 -2.5t-2.5 -0.5q-3 0 -7.5 2t-9 4.5t-7.5 5.5t-3 4zM182 73l19 10h3q2 0 3 -1t1 -4q0 -2 -3.5 -4t-8 -4
t-9 -3t-5.5 -1l-2 0.5t-2 1.5z" />
</svg>
