<?xml version="1.0" standalone="no"?>
<!DOCTYPE svg PUBLIC "-//W3C//DTD SVG 1.1//EN" "http://www.w3.org/Graphics/SVG/1.1/DTD/svg11.dtd" >
<svg xmlns="http://www.w3.org/2000/svg" xmlns:xlink="http://www.w3.org/1999/xlink" version="1.1" viewBox="-10 0 266 256">
   <path fill="currentColor"
d="M102 245v3q0 3 2 3t4 -4.5t3 -11.5t1.5 -16t1.5 -18.5t1.5 -19t2 -16.5t4 -11t5.5 -4l2 0.5t3 0.5h58q1 0 4 -1t3 -3t-3 -2h-3q-12 0 -24 1t-24 1q-3 0 -6.5 -1t-3.5 -5v-1l27 -8h2q2 0 7 -0.5t10.5 -1t10 -1t6.5 -0.5t2 -1v-2q0 -2 -1 -2.5t-3 -0.5q-17 0 -32.5 4
t-31.5 8l-0.5 0.5l-0.5 0.5q-4 0 -4.5 -3.5t-0.5 -5.5q0 -5 2 -7.5t5.5 -4t7 -2.5t7.5 -1l47 -4q1 0 1.5 -0.5l0.5 -0.5v-0.5v-0.5v-0.5v-0.5l-1.5 -1.5l-1.5 -1.5h-3.5h-3.5q-6 0 -12.5 1t-13.5 1h-1q0 -1 -1 -2t-2 -1v-5v-7v-7v-5v-11v-12t0.5 -12t3 -11t7.5 -6t11 -2
t10.5 -3t4.5 -8q-9 0 -15.5 2t-14.5 6q-1 1 -3 1.5t-3.5 1.5t-2.5 2l-1 1l-5 78q0 2 -4.5 2.5t-10 2.5t-10.5 6t-5 13q0 1 0.5 2.5l0.5 1.5q0 1 0.5 2.5t1 4t1 4t0.5 2.5l-1 1.5t-1.5 3t-1.5 3l-1 1.5q-2 5 -3.5 10.5t-2.5 10.5q-4 17 -6 34.5t-2 35.5zM123 206q0 4 5 4
q6 0 11.5 -1t11.5 -1q3 0 11 -0.5t17 -0.5t17 -0.5t12 -0.5q1 0 1 -1v-2v-1.5t-1 -1.5h-32l-1.5 -0.5t-1.5 -1.5q-1 0 -1.5 -0.5l-0.5 -0.5v-19l2 -2h6t8.5 -0.5t8 -2t3.5 -5.5q-4 0 -8 0.5t-7 2.5h-48l-3 4q1 0 2 1.5l1 1.5h1h1h3t3.5 -0.5l3 -1l1.5 -0.5q1 0 2 -0.5
l1 -0.5q1 0 2 0.5l2 1l2 1t2 0.5l2 2l1 1v14q0 1 -1 2t-2.5 1.5t-2.5 1t-2 0.5t-5.5 0.5t-10 1t-10 1t-5.5 0.5q0 1 -0.5 1.5t-0.5 1.5zM51 158v5q11 0 22 -0.5t22 -1.5q1 0 1.5 -1l0.5 -1v-1v0q0 -1 -1 -2.5l-1 -1.5h-17q-1 0 -3 -2.5t-2 -3.5v-47l2 -4q4 0 8.5 -0.5
t8.5 -2.5v-1v-2.5t-1 -1.5h-16v-4v-5v-6v-4v-4.5t0.5 -8t0.5 -8.5v-5q1 -2 3 -2.5t4 -0.5l2 -0.5t4 -0.5t3.5 -0.5t2.5 -0.5t1.5 -0.5t0.5 -1.5v-1v0q0 -1 -1.5 -2l-1.5 -1h-6q-9 0 -17.5 0.5t-19.5 2.5q-1 0 -3 1t-2 3t2.5 3t4.5 1h3t4.5 -0.5t4.5 -0.5h3q0 9 -0.5 17.5
t-0.5 17.5q0 7 -1.5 10t-3.5 4t-4 0.5t-3.5 -1t-2.5 0t-1 3.5t2 3.5t5 0.5t5 1t2 5v46q0 2 -1.5 3t-4 2t-5 1t-3.5 1zM121 77q-1 0 -2 0.5l-1 0.5q-1 1 -3 2.5t-3.5 3.5t-3 3.5t-2.5 1.5q-1 2 -2.5 4l-3 4t-2.5 3.5l-1 1.5v3h5q1 -1 3 -4t4.5 -6t5.5 -5.5t5.5 -3t4.5 1t4 4
t4.5 4.5t4.5 2v-5l-1.5 -1.5t-3 -3.5t-3.5 -4t-3 -4q-1 -1 -2.5 -2t-3.5 -1zM185 85q1 0 2.5 0.5t2.5 0.5l0.5 1t1.5 1l2.5 2.5t3.5 3l4 3t2 2.5h1h1q2 0 2.5 -1t0.5 -3v-1.5v-0.5l-20 -16h-4l-1.5 1.5t-3.5 3t-3.5 3t-2.5 1.5q-1 2 -4.5 3.5t-3.5 4.5h5zM100 66v1.5t2 1.5
q2 -2 4.5 -5.5t5 -6.5t5.5 -6t6 -3q2 0 4.5 2.5t4 5t3 5.5t1.5 5h1.5h0.5q2 0 2.5 -1t0.5 -3q0 -3 -1.5 -6.5t-4 -7.5t-5.5 -6.5t-5 -2.5t-4 1t-4.5 3t-4.5 4t-2 3q-1 1 -2.5 3l-3 4t-2.5 4.5t-2 2.5v1v1zM187 41q-4 0 -8 2.5t-8 6.5t-6 9t-2 9q4 0 6.5 -3t5 -7t5.5 -7t7 -3
q3 0 5 3t3.5 6t3.5 6t5 3q2 0 3 -1.5t1 -3.5v-2q-2 -1 -4 -4.5t-4.5 -6.5t-6 -5t-6.5 -2z" />
</svg>
