<?xml version="1.0" standalone="no"?>
<!DOCTYPE svg PUBLIC "-//W3C//DTD SVG 1.1//EN" "http://www.w3.org/Graphics/SVG/1.1/DTD/svg11.dtd" >
<svg xmlns="http://www.w3.org/2000/svg" xmlns:xlink="http://www.w3.org/1999/xlink" version="1.1" viewBox="-10 0 266 256">
   <path fill="currentColor"
d="M189 248q0 2 1 2h3t5 -2t3 -5q0 -8 -2 -17.5t-2 -17.5q0 -3 -0.5 -9t-0.5 -13v-16v-16q0 -7 0.5 -13t0.5 -9l-0.5 -2.5t-0.5 -4.5t-0.5 -4t-0.5 -3q-1 -7 -5 -11t-9.5 -5.5t-11.5 -2t-11 -0.5t-8.5 -0.5t-3.5 -2.5t2 -6t5 -8t6 -7t6 -3l1 0.5l1 0.5q2 1 4.5 4.5t5.5 7
t6 6.5t6 3q1 0 2 -0.5t2 -1.5t1 -2v-2q0 -3 -3 -6.5t-6.5 -7t-7.5 -6t-6 -3.5q-1 -1 -1 -4v-5v-6t2 -6v-26h-8q0 7 -0.5 12t-1.5 10t-1 10.5v12.5q-1 1 -2.5 3t-4 5t-4 5t-2.5 3l-4 6t-4.5 6t-5 5.5t-5.5 2.5q-2 0 -5.5 -0.5t-4.5 -1.5t-1 -4t1 -4q-1 -1 -3 -3.5t-4.5 -5
l-4.5 -4.5l-3 -3l-4 -6t-2 -7v-2v-7.5t0.5 -13.5t0.5 -13v-8v-1q0 -2 -1 -3t-4 -1h-1t-2 1v18.5t-1 16.5t-4 16t-8 16q-1 2 -3.5 4t-5.5 4t-5 4t-2 5q0 2 1 2.5t2 0.5q5 0 8.5 -3t7 -6.5t6 -8t4.5 -7.5h5q0 1 1.5 3t2.5 4.5t2.5 4.5t1.5 3l1 1l2 2t1.5 2l0.5 1v1v1
q0 2 -1 2.5t-4 0.5h-2h-4h-4.5h-2.5q-9 1 -14.5 4t-8.5 8.5t-4 12t-1.5 14t0 14.5t-0.5 13l-4 36t-1 37l-1.5 2t-1.5 3q-1 2 2 3t5 1t3 -0.5t1.5 -1.5l1 -2t1.5 -2v-9v-13v-13v-9t0.5 -10t1.5 -17t2 -20.5t3 -19.5t4 -15t6 -6l17 -3q1 0 3.5 -0.5t6.5 -0.5h7.5h5.5h27t27 2
q3 2 4.5 7t1.5 8v67q2 7 2.5 14.5t0.5 14.5v15q0 7 1 14zM81 240q1 2 2 2h3q4 0 6 -8t2.5 -20.5t1 -27t2 -27t5 -20.5t12.5 -8q2 0 4.5 1t2.5 4q0 4 -1 8t-2 8.5t-2 8.5l-2 8v17v7v8t1 8.5t3 6.5q1 0 2.5 0.5t3 0.5t3 0.5t2.5 0.5q11 0 14.5 -6.5t3.5 -15.5v-6v-6t-0.5 -6
t-1.5 -7l-1 -0.5t-2 -1.5h-1v0q-1 1 -1.5 2t-0.5 2v3.5v5.5v6v4l-0.5 2t-1 4.5t-1.5 4.5t-2 2h-2t-2.5 -0.5t-3 -0.5h-2.5v-38q0 -1 0.5 -3t1.5 -4t2.5 -4t2.5 -2h1q1 0 4 0.5t6 0.5t6 0.5t4 0.5t2.5 4.5t2.5 11t2.5 14t2 14t1 11l0.5 4.5v6.5v8.5t1.5 7t5.5 3q1 0 3 -0.5
t2 -3.5v-4v-5q0 -13 -3.5 -28t-5.5 -29v-5t-1 -7.5t-3 -6t-5 -2.5h-27q0 -5 -0.5 -8.5t1.5 -7.5q4 -2 6.5 -2.5t5.5 -0.5q4 0 7 1t7 1q3 0 6.5 -1.5t3.5 -5.5t-5 -3h-16q-11 0 -20.5 1.5t-20.5 1.5q-9 5 -13 14.5t-5.5 21t-1.5 22.5t-1 20q-1 8 -2.5 15.5t-1.5 14.5v8z
M65 66q1 2 2 2h2q3 0 5.5 -2.5t2.5 -5.5v-23q0 -2 -2.5 -4t-4.5 -2l-1.5 0.5t-1.5 1.5q-2 5 -2 10.5v11.5v11v0zM112 66q1 2 2 2h2q2 0 3.5 -1t1.5 -4v-35q0 -2 -3 -2h-3h-2t-2 2v6q0 8 1 16t0 16zM138 41q0 6 0.5 11t1.5 13h0.5h1.5q2 0 4 -1.5t2 -3.5v-29q0 -1 -2 -1.5
t-3 -0.5q-2 0 -3 1.5t-1.5 3.5t-0.5 4v3zM184 59q0 2 1 4t4 2q2 0 4 -3t2 -6v-28q0 -2 -2 -3t-3 -1q-2 0 -3 1t-2 3q1 8 0 15.5t-1 15.5z" />
</svg>
