<?xml version="1.0" standalone="no"?>
<!DOCTYPE svg PUBLIC "-//W3C//DTD SVG 1.1//EN" "http://www.w3.org/Graphics/SVG/1.1/DTD/svg11.dtd" >
<svg xmlns="http://www.w3.org/2000/svg" xmlns:xlink="http://www.w3.org/1999/xlink" version="1.1" viewBox="-10 0 266 256">
   <path fill="currentColor"
d="M79 245q0 2 1 4t4 2q5 0 8 -3.5t4 -9t1.5 -12.5t1.5 -13t3 -10.5t6 -5.5q12 0 21.5 -1t20.5 -1h4h4q2 2 3 7t1.5 11t0.5 12.5t1 11.5t3 8.5t5 3.5t4.5 -1.5t2 -4l1 -5t0.5 -3.5q0 -8 -2.5 -16t-3.5 -16q-4 -19 -4 -37t-1 -37q0 -1 -0.5 -3t-1.5 -3.5l-2 -3t-2 -1.5
q-3 0 -4 1.5t-1.5 3t-1 3.5t-3.5 3q-9 1 -18.5 2t-18.5 1h-3h-4q1 -3 -0.5 -6.5t-5.5 -5.5q-1 1 -2.5 3t-2.5 3q-1 13 -1.5 27.5t-2.5 27.5q-3 16 -7 30.5t-7 30.5l-0.5 1t-0.5 2zM104 173q0 -6 2 -13t2 -12q2 -3 5.5 -4t8 -1.5t8.5 0t6 0.5h3h4h4h3q4 0 5.5 2t1.5 5
t-0.5 6.5t-0.5 4.5t1 2l1 1q0 1 0.5 4t0.5 4l1 1q0 8 -7 10q-9 1 -17.5 1.5t-17.5 0.5q-6 0 -10 -2.5t-4 -9.5zM112 162v1q1 0 2 2t2 3h2h3h4h2h5t8 -0.5t7 -1.5t3 -4v-1q-1 -1 -3 -2.5t-4 -1.5h-1h-5t-8 0.5t-8 0.5h-5l-2 2t-2 1v1zM56 112q0 2 1 3.5t4 2.5v0h1h6.5
t10 -0.5t12.5 -1t13 -1t10.5 -1t5.5 -0.5h8h13h12h8q1 0 4.5 -0.5t7.5 -0.5t7.5 -0.5t4.5 -0.5h3.5h5.5t5.5 -1.5t2.5 -4.5q0 -5 -3.5 -5.5t-7.5 -0.5h-6q-2 0 -8.5 0.5t-13.5 1t-13 1t-8 0.5h-1q-1 0 -2 -1t-1.5 -2.5t-0.5 -2.5v-3q0 -2 0.5 -5t4.5 -3l38 -3q2 0 2.5 -1
t0.5 -3t-1 -3.5t-4 -1.5h-36q-2 0 -3.5 -2.5t-1.5 -3.5q0 -2 1 -3t3 -2q4 0 11 -1t14 -3t12 -5.5t5 -10.5v-23q0 -2 -2 -2.5t-4 -0.5q-3 0 -5.5 2.5t-2.5 4.5v3.5t0.5 5.5t0.5 5.5v2.5v1q0 2 -2.5 3.5t-5.5 2.5t-6.5 2t-4.5 1h-1q-1 0 -4 -1t-4 -1v-8q0 -4 1 -6.5t1 -5.5v-7
t-1 -5t-3.5 -3.5t-6.5 -1.5v0l-2 2l-1 1q0 1 -0.5 5t-0.5 7.5t-0.5 7t-0.5 5.5v4t-1 3.5t-2 2.5t-4 1h-5h-6t-5.5 -1.5t-3.5 -3.5q0 -1 0.5 -4t0.5 -6t-0.5 -6t-0.5 -4q0 -3 -1.5 -5t-1.5 -5q-7 0 -9 2t-2 9v6q0 4 0.5 7.5t1.5 6.5t3 5l2.5 2.5l3 3t2.5 3l1 1.5l23 2
q1 1 2 2.5t1 2.5q0 3 -2.5 4.5t-4.5 1.5h-28q-1 0 -3 0.5l-4 1t-3.5 1.5t-1.5 3q0 1 0.5 2.5t0.5 2.5l1 0.5l1 0.5h39l2 2t2 3v1q0 4 -2 7.5t-7 3.5h-52q-3 0 -6 2.5t-3 5.5z" />
</svg>
