<?xml version="1.0" standalone="no"?>
<!DOCTYPE svg PUBLIC "-//W3C//DTD SVG 1.1//EN" "http://www.w3.org/Graphics/SVG/1.1/DTD/svg11.dtd" >
<svg xmlns="http://www.w3.org/2000/svg" xmlns:xlink="http://www.w3.org/1999/xlink" version="1.1" viewBox="-10 0 266 256">
   <path fill="currentColor"
d="M179 246q0 1 1 2l2 2v0q3 0 5 -2.5t2 -5.5v-1.5v-1.5l-9 -74v-3v-4v-7t2 -7v0h1q3 0 5 2l4 4l4 4t2 3h3q3 0 5.5 -1t2.5 -5q0 -3 -1.5 -4.5t-4.5 -2.5t-5 -1t-4 -2l-1 -1t-2 -2.5t-2 -2.5t-1 -2q-1 0 -2.5 -1t-4 -2.5t-4.5 -2.5t-3 -1l-1.5 -0.5t-3 -1.5t-3 -1.5
l-1.5 -0.5q-1 0 -2 -2t-1.5 -4t-1.5 -3.5t-3 -1.5l-3 3t-4 5t-3.5 6t-1.5 4l-18 17q-3 1 -5.5 3.5t-4.5 6t-3 7t-1 7.5q5 0 9 -4t7 -9t5.5 -9t6.5 -4q1 0 1.5 0.5l1.5 1.5v4v5v6v3q0 10 -0.5 18.5t-1.5 18.5q0 1 -0.5 2l-0.5 1l-4 32l-1 3t-1 5h-1q0 2 1.5 3t3.5 1q3 0 4 -2
t2 -5.5t1.5 -6.5t1.5 -5q0 -2 1 -6.5t1.5 -9.5t0.5 -10v-7q0 -3 0.5 -12.5t0.5 -19.5t-0.5 -19t-0.5 -13l2.5 -2.5l2.5 -2.5h1v0q1 1 3 1.5t3.5 1.5t3.5 2l2 1l2 2q-1 14 -0.5 28t2 28l3 28t3.5 27zM46 86v2q0 4 0.5 11t0.5 14t0.5 12l0.5 5q0 6 1.5 11.5t4.5 9.5t7 6.5
t10 2.5h2.5h1.5q8 -1 13 -1.5t8 -3t5 -6.5t3 -12q1 -5 2 -12t1 -12q0 -4 -0.5 -7.5t-0.5 -7.5t0.5 -8t0.5 -8q0 -3 -0.5 -7.5t-2.5 -8.5t-5 -7t-7 -3h-30q-5 0 -8 3.5t-4.5 8.5t-2.5 10t-1 8zM54 118q0 -3 1.5 -4.5t3 -2t4 -0.5h4.5h3h2l2 2v36q0 2 -1.5 2h-1.5
q-5 0 -8 -4.5t-5 -8.5q0 -1 -0.5 -4t-1.5 -6t-1.5 -6t-0.5 -4zM83 108h12q2 0 2.5 2.5t0.5 3.5v7q0 6 -1 12.5t-3.5 11.5t-6.5 5q-3 0 -3.5 -1t-0.5 -5v-36zM188 122v2t1 2q3 0 4.5 -1.5t2.5 -3.5t1 -4v-4q0 -8 -1 -16l-2 -16t-1.5 -16t0.5 -16q-3 -3 -7 -4t-8.5 -1.5
t-8.5 -0.5h-7q-1 -2 -1.5 -4.5t-0.5 -3.5v-2t1 -2l2 -2h32q1 0 4 -2t4 -4l-2 -3l-0.5 -0.5l-0.5 -0.5h-7q-20 0 -40.5 2t-40.5 2q-4 -1 -4.5 0.5t-0.5 3.5v2.5t2 1.5h6q8 0 15.5 -0.5t15.5 -0.5q3 0 3.5 1t0.5 3v2v2.5t-0.5 2.5t-1.5 2l-21 4q-1 0 -2 2t-2 4.5t-1.5 5
l-0.5 2.5v58q0 3 1 3.5t3 0.5t3.5 -3.5t1.5 -6.5q0 -6 -1 -12t-1 -12q0 -2 0.5 -7.5t1 -11.5t2 -11t4.5 -7q4 -1 7.5 -1t7 -0.5t6.5 -0.5h7h12q3 2 6 5q1 6 2.5 13t2.5 14.5t1.5 15t0.5 13.5q0 3 -0.5 5.5t-0.5 5.5zM161 70q3 0 4.5 3.5t2 8t0.5 9.5v10t1 8t4 3q2 0 3 -2.5
t1 -3.5v-13.5t-2 -13.5t-6 -10.5t-12 -4.5q-3 0 -5.5 1t-5 2.5t-4 4t-1.5 5.5v30q0 2 0.5 2.5t2.5 0.5q1 0 2.5 -0.5t1.5 -2.5v-30q0 -2 1.5 -3t3.5 -2t4 -1.5t4 -0.5zM56 100q-1 0 -1 -2v-3q0 -6 0.5 -13.5t4.5 -12.5q1 0 4.5 -0.5t4.5 -1.5h1h1q0 1 0.5 1.5l0.5 0.5v27
q0 1 -0.5 3t-2.5 3h-5h-5q-2 0 -3 -2zM81 92v-1q0 -1 0.5 -4t0.5 -6.5t0.5 -7t0.5 -4.5q-1 -3 1 -3h3q4 0 6 1.5t3.5 4t1.5 5.5v6q0 1 0.5 4t0 6t-1 5t-2.5 2h-11l-0.5 -1t-0.5 -2q-1 0 -1.5 -2l-0.5 -2v-1z" />
</svg>
