<?xml version="1.0" standalone="no"?>
<!DOCTYPE svg PUBLIC "-//W3C//DTD SVG 1.1//EN" "http://www.w3.org/Graphics/SVG/1.1/DTD/svg11.dtd" >
<svg xmlns="http://www.w3.org/2000/svg" xmlns:xlink="http://www.w3.org/1999/xlink" version="1.1" viewBox="-10 0 266 256">
   <path fill="currentColor"
d="M183 153q4 25 5 49t1 49h8l1 -3v-10v-14v-10.5t-0.5 -12t-0.5 -10v-4.5l-2 -2q0 -2 -0.5 -7t-1.5 -10.5t-1.5 -10.5t-1.5 -7q0 -5 -1 -7.5t-2 -4.5t-2.5 -4.5t-2.5 -6.5h-0.5h-0.5q0 -1 0.5 -1h0.5q0 -1 1 -3.5l2 -5t1.5 -5t1.5 -3.5v0q0 -9 -4.5 -14t-11 -8t-14 -3.5
t-14.5 -1.5t-11 -2.5t-4 -4.5q0 -8 1 -16.5t1 -15.5l1.5 -1.5t2.5 -0.5v0q1 0 1 1q6 1 11 3l10 4q2 1 5 2t6 1.5t5 1.5l2 1q1 0 3 1.5t5 3.5l6 4t5 3l1 1.5t2 1.5h1q2 0 2.5 -2.5t0.5 -3.5q0 -4 -5 -7.5t-13 -6.5t-17 -5.5t-16.5 -5t-13 -5.5t-5.5 -5q0 -3 1 -5.5t1 -5.5
q0 -2 -1.5 -3.5t-3.5 -1.5t-3.5 0.5t-2.5 2.5q1 3 1 6v6t-1.5 5.5t-5.5 3.5q-12 4 -23 10.5t-22 13.5q-2 1 -4 2.5t-4 3.5t-3 4t-1 4q4 0 8.5 -2t8.5 -5t8.5 -6t9.5 -5l6 -4t6.5 -4.5t6.5 -4t6 -1.5h2t1 1v6v5v7t-0.5 8t-0.5 7v3h-38q-1 0 -1.5 1.5t-0.5 2.5t0.5 2t2.5 1h34
q1 0 1.5 2t1 5.5t0.5 7v4.5v3q-3 0 -10 0.5t-15 0.5t-15 0.5t-10 0.5h-3t-4.5 0.5t-5 0.5h-2.5l-3 1.5t-1 1.5q0 3 4 5h7h5.5t5.5 -2q10 -1 18 -1h18h8l1 1v21l-1 2h-3h-4q-9 0 -17.5 -1t-17.5 -1q-4 0 -4 3t1.5 4t3.5 1h4h3h6.5t9.5 0.5t9.5 0.5h6.5q3 1 3.5 2.5t0.5 2.5
q0 10 -0.5 18.5t-1 17.5t-0.5 18v20l-2 3h-3q-12 0 -18 -7.5t-8 -17.5t-1.5 -21.5t0.5 -20.5q-1 -1 -2.5 -2t-2.5 -1h-1v0l-2 2l-1 1v4.5v4.5v2v2.5v2.5v1q0 2 0.5 8t1.5 13t1.5 13t0.5 8q1 6 7 9.5t13.5 5t15 2t10.5 1.5h41q2 0 3.5 -1.5t1.5 -3.5t-1.5 -4t-4.5 -2
q-4 0 -7.5 2t-7.5 2h-5h-3q-2 0 -5 -0.5t-5.5 -0.5t-4.5 -0.5l-2 -0.5l-2 -1v-24l2 -2q5 -1 9.5 -1t8 -1t6.5 -4t5 -7v-6t0.5 -8t0.5 -8v-6v-2q0 -4 -3 -4h-1q-1 1 -2 1.5l-1 0.5l-3 32q-1 2 -2.5 2.5t-4 1t-4.5 0.5h-3h-6q-1 -4 -1.5 -5.5t-0.5 -4.5v-2q0 -2 0.5 -6.5
t0.5 -10t0.5 -10t0.5 -6.5q2 -2 6 -2.5l8 -1t9 -0.5q4 0 7 -1q4 -1 6.5 -3.5t6.5 -2.5h4.5t2.5 2q0 1 1 2.5t2 3.5t2 3.5t1 2.5zM127 133v-4.5v-5t1.5 -4t3.5 -1.5q1 0 6.5 0.5t12 1.5t11 3t4.5 6q0 2 -4 4t-9 3.5t-10 2t-6 0.5h-4h-4q-2 -1 -2 -2.5v-3.5zM128 95
q0 -1 0.5 -3l0.5 -2l1 -2h4q3 0 10.5 0.5t15 2.5t13 5t5.5 8v4t-0.5 5.5t-2 4.5t-4.5 2q-2 0 -4.5 -1t-4.5 -2.5t-4.5 -2.5t-4.5 -2q-8 -1 -12 -1q-5 0 -8 -1t-4 -4.5t-1 -10.5z" />
</svg>
