<?xml version="1.0" standalone="no"?>
<!DOCTYPE svg PUBLIC "-//W3C//DTD SVG 1.1//EN" "http://www.w3.org/Graphics/SVG/1.1/DTD/svg11.dtd" >
<svg xmlns="http://www.w3.org/2000/svg" xmlns:xlink="http://www.w3.org/1999/xlink" version="1.1" viewBox="-10 0 266 256">
   <path fill="currentColor"
d="M136 178q3 6 6 13.5l6 15t7 14t10 11.5q1 1 4.5 4t7 5.5t6.5 4.5t4 3q2 1 2.5 1.5t2.5 0.5q3 0 5 -1.5t2 -4.5q0 -4 -5.5 -7.5t-12.5 -8t-12.5 -10t-5.5 -12.5q0 -4 1 -8.5t3 -9t5 -7.5t7 -4q8 7 14 17.5t9 21.5h9l0.5 -2t1.5 -3v-2q0 -2 -2 -6t-5 -8.5t-6.5 -9
t-7.5 -8.5t-7.5 -6.5t-5.5 -2.5q-7 0 -11 3.5t-6.5 7.5t-4 7.5t-4.5 3.5q-2 0 -2.5 -4t-2.5 -9.5t-5.5 -9.5t-10.5 -4h-4t-4 1q-5 7 -10 13.5t-9 13.5t-6 14.5t-2 16.5q6 0 9.5 -4t5 -9.5t3 -11.5t4.5 -10q0 -1 1.5 -3l3 -4t4 -3.5t3.5 -1.5h1v0q1 0 2 0.5t2 1.5zM71 237
q0 3 0.5 5t2.5 2q4 0 6 -1.5t4 -3.5v-6q0 -13 -0.5 -25.5t-0.5 -24.5q0 -28 1 -54.5t0 -54.5q6 -31 6 -63q-8 0 -10 4t-2 11q0 2 -0.5 6.5t-0.5 9t-0.5 9t-0.5 6.5h-15v-32h-3q-1 0 -3.5 0.5t-4 1.5t-2.5 3q1 2 1 9v14v15q0 6 -1 9q0 1 -0.5 3.5t-1 6t-1 6t-0.5 3.5v1v2t1 4
t3 3q3 0 5 -3t3 -7t1.5 -8t0.5 -6v-2t0.5 -4.5t0.5 -4.5v-2q1 -1 3 -2l4 -2t4 -1h3l1 0.5l1 0.5v3v3q0 9 -0.5 16.5l-1 15t-0.5 16v18.5l-0.5 2t-1 2.5l-1 1l-0.5 0.5h-14v-23q0 -3 -1.5 -3.5t-3.5 -0.5h-3t-2 2q1 12 0 23.5t-2 22.5t-2.5 22.5t-1.5 23.5v4q0 3 3 3h1
q2 -1 3 -3t2.5 -4t2.5 -4t1 -3l3 -49q0 -2 1.5 -2.5t3.5 -1t4 -0.5h2q2 0 3 4t1.5 10t1 13t0.5 14v12v8v13q-1 3 -2 6.5t-1 6.5zM119 149q0 2 1.5 3.5t3.5 1.5q4 0 4.5 -3t1 -6.5t1 -6.5t5.5 -3q3 0 6 1.5t5.5 3.5t4.5 4t3 2q3 0 5.5 -2t4 -4t3.5 -3.5t5 -1.5h2.5t1.5 2v13
q0 2 1 2h2q4 0 5 -2.5t1 -6t1 -6t5 -2.5h1h1l12 12h1q3 0 3.5 -3t0.5 -5v-2v-2q-1 -1 -4 -2.5t-6.5 -3.5t-6 -3.5t-3.5 -2.5q-6 -3 -6 -9q0 -3 1.5 -4.5t3.5 -1.5t4 0.5t3.5 1.5l3 2t4.5 1q2 0 3.5 -0.5t0.5 -4.5q-1 -2 -4 -4.5t-6.5 -4.5t-6.5 -4t-5 -2q-2 -2 -2.5 -4
t-1.5 -4t-2.5 -4.5t-5.5 -5.5h-18h-18q-1 0 -3.5 0.5t-5.5 1.5t-5 2t-3 3v3.5v3t-2 2.5l-3 3q-3 3 -6.5 5t-6.5 4.5t-5 5.5t-2 8q6 0 9.5 -3.5t8.5 -9.5h2q3 0 4 3t1 6q0 4 -3.5 7.5t-8 7t-9 6.5t-6.5 6v3v2t2 2q3 0 5.5 -2t5 -5t5 -5t5.5 -2q4 0 4 5q0 2 -1.5 5t-1.5 6z
M136 106q3 0 6 1.5t5.5 3t4.5 3t4 1.5h1h1l14 -9h1q2 0 3 3.5t1 5.5q0 3 -2 6t-5 5t-6 3.5t-6 3.5l-1 0.5t-2 0.5l-4 -2t-8.5 -4.5t-8 -5l-3.5 -2.5v-12q0 -2 2 -2h3zM132 88q0 -1 1.5 -2l3 -2t3.5 -1.5t3 -0.5h27q1 0 2 2.5l1 2.5v1q0 3 -2 6t-5 5.5t-6.5 4.5t-6.5 4
q-1 -2 -4.5 -5l-7 -6t-6.5 -5.5t-3 -3.5zM95 68v1l1.5 1.5l1.5 1.5q4 0 11 -3.5t14.5 -8t14.5 -8.5t11 -4q5 0 8.5 2t7.5 3l2 0.5t4.5 1.5t4.5 1.5t3 0.5q3 1 6 3.5t7 4.5t7.5 3.5t7.5 1.5q3 0 3.5 -1t0.5 -4q0 -2 -4 -4.5t-10 -5t-11 -4.5t-7 -3q-2 0 -4.5 -1t-6 -2
t-6.5 -2t-4 -1q-2 -2 -2 -4v-4q0 -5 3 -7t7.5 -2.5t9 0t8.5 -0.5h4t6 -0.5t6 -0.5h4q2 -1 3 -3t1 -4q0 -1 -2 -1.5t-3 -0.5q-13 0 -24.5 1t-23.5 3q-14 1 -28 1q-13 0 -27 2q-1 0 -1.5 0.5t-0.5 1.5v0v0q0 2 1.5 3t3.5 1t3.5 0.5l1.5 0.5h7t11 -0.5t11 -0.5h7v2.5v3v3v2.5
l-0.5 1.5t-0.5 2.5l-45 20q-1 0 -2 2t-1 4z" />
</svg>
