<?xml version="1.0" standalone="no"?>
<!DOCTYPE svg PUBLIC "-//W3C//DTD SVG 1.1//EN" "http://www.w3.org/Graphics/SVG/1.1/DTD/svg11.dtd" >
<svg xmlns="http://www.w3.org/2000/svg" xmlns:xlink="http://www.w3.org/1999/xlink" version="1.1" viewBox="-10 0 266 256">
   <path fill="currentColor"
d="M155 249q1 0 2 0.5t1 1.5h1h1l2 -2l1 -1q0 -9 0.5 -15.5t2.5 -11.5t6 -10t10 -11q3 -3 5 -4t3 -2l2.5 -2.5t3.5 -5.5q1 -1 2 -5.5t2 -9.5t1.5 -9t1.5 -5v-3v-5v-6v-5v-3.5v-5.5v-5.5v-3.5q-3 -11 -6.5 -17t-8 -8.5t-9.5 -3t-9 0t-7.5 -0.5t-5.5 -4l4 -8t4 -6.5t5 -4
t9 -2.5h19q3 -1 3 -4t-2 -4t-4 -1q-3 0 -6 1t-6 1h-3t-3.5 -0.5t-2.5 -1.5t-1 -3v-1v0q1 -5 2 -8.5t2 -7.5q2 -4 6 -4t8 0.5t7 -0.5t3 -5v-2t-1 -2h-10h-9q-1 0 -4.5 0.5t-7 0.5t-7 0.5t-4.5 0.5h-14h-13h-13t-14 1q0 1 -0.5 2.5t-0.5 2.5t1.5 2.5l1.5 1.5h17q1 0 2 2.5
t2.5 6t2.5 6.5t1 4q1 1 1 2t-0.5 2t-1.5 2l-26 3l-1 1t-2 1v1q0 5 4 5q5 0 10 -1t10 -1h10q1 3 3 7t2 8q0 3 -3.5 5t-8 3.5t-10 2t-10.5 2.5t-8 4.5t-3 6.5h6q5 -2 9.5 -3.5t8.5 -3l8 -3t9 -3.5h13q14 0 23 2.5t14 8t6.5 15.5t1.5 24v2q0 2 -1 6.5t-2 9.5t-2 9.5t-1 6.5
q-2 4 -5 7t-6 5q-6 6 -10.5 11t-7.5 10t-4.5 11.5t-1.5 15.5v4.5v4.5zM74 230q1 2 2 2h2t2 -0.5t2 -1.5q3 -8 3.5 -17.5t0.5 -18.5t-0.5 -18.5t0.5 -17.5q1 -35 2.5 -69.5t1.5 -70.5q0 -3 -2.5 -5t-5.5 -2q-1 0 -1.5 0.5l-1.5 1.5l2 38v2q0 3 -0.5 6t-2.5 6h-4h-2.5t-3 -0.5
l-3 -1t-1.5 -1.5v-22l-1 -0.5t-1 -1.5q-1 0 -2 -0.5l-1 -0.5q-2 0 -3.5 3t-1.5 4v62q0 1 1 1.5t2 -0.5q4 -1 5 -4t1 -6.5t-0.5 -7.5t0.5 -7.5t3.5 -5.5t8.5 -2q1 0 2.5 1.5t1.5 3.5v63l-0.5 1l-0.5 1q-1 0 -4.5 0.5t-5.5 1.5v0q-2 0 -3.5 -1.5l-2.5 -2.5v-3v-3v-4v-3
l0.5 -2.5t0.5 -3.5q0 -3 -2 -4t-4 -1t-4 0.5t-1 4.5q1 14 0.5 29.5t-1.5 28.5q-1 4 -2 8.5t-1 8.5v1l1 1.5t2 1.5h1q3 0 4.5 -3.5t2.5 -6.5q0 -6 -0.5 -13.5t0.5 -13t5 -9.5t13 -4v8t0.5 13t0.5 13v8q0 1 -0.5 3t-1 5t-1.5 5t-1 3v10v10zM141 202q0 3 3 3h2t1 -2q1 -7 2 -15
t0 -16h3.5t5.5 -0.5l6 -1t4 -0.5h1q2 0 2.5 3t0.5 6t0.5 6t3.5 3t3 -3q0 -10 -0.5 -18.5t-0.5 -17t-0.5 -17.5t-0.5 -20q0 -1 -1 -1h-2q-2 0 -2.5 1t-1 2.5t-1.5 2.5t-3 1q0 1 -2 1t-4 0.5t-4 0.5h-2q-4 0 -5 -2.5t-1 -5.5v-5.5t-3 -2.5q-1 0 -2.5 2t-1.5 3v33h-18l-0.5 -3
t-0.5 -5v-16q0 -1 -1.5 -2.5t-3.5 -1.5q-4 0 -3 4v19t-0.5 17.5t-2 17t-3.5 17.5v2q0 1 0.5 2t1.5 1q3 0 4.5 -3.5t3 -7.5t3 -7.5t4.5 -3.5h17q0 8 -0.5 15.5t-0.5 14.5zM120 156q0 -2 1 -3.5t2 -2.5h3t4 -0.5l4 -1l2 -0.5h3q2 0 2.5 1t0.5 4v3v4t-0.5 3l-0.5 1h-19
l-0.5 -2.5t-0.5 -3.5q-1 0 -1 -1v-1zM147 160v-1.5v-0.5q0 -1 0.5 -4t1.5 -4q5 -1 10 -1.5t11 -0.5v17h-11q-5 0 -10 -2l-1.5 -1.5t-0.5 -1.5zM147 133q0 -2 2.5 -3.5t5 -2t5.5 -1t5 -0.5q4 0 5 3t1 6v3t-1 2h-19q-3 0 -3.5 -2.5t-0.5 -4.5zM136 42q0 -2 0.5 -4t3.5 -3
q3 0 6 -0.5t5.5 -0.5t5 -0.5t5.5 -0.5h6l1.5 1.5t0.5 2.5v1q-1 3 -1.5 6t-1.5 6t-1.5 5.5t-0.5 3.5l-3 6t-4.5 8.5t-4.5 8l-2 3.5l-2 2q-3 -4 -4 -8.5t-2 -9.5t-1.5 -9.5t-1.5 -8.5l-2.5 -2.5t-1.5 -2.5v-1.5v-2.5z" />
</svg>
