<?xml version="1.0" standalone="no"?>
<!DOCTYPE svg PUBLIC "-//W3C//DTD SVG 1.1//EN" "http://www.w3.org/Graphics/SVG/1.1/DTD/svg11.dtd" >
<svg xmlns="http://www.w3.org/2000/svg" xmlns:xlink="http://www.w3.org/1999/xlink" version="1.1" viewBox="-10 0 266 256">
   <path fill="currentColor"
d="M55 245q0 2 1 3.5t4 2.5h9q13 0 25.5 -1t25.5 -2t25.5 -2t25.5 -1h5q1 0 2 0.5l1 0.5q1 0 2 -0.5l1 -0.5q1 -1 3 -1.5l2 -0.5h12q1 0 1 -1v-2t-0.5 -4t-2.5 -3h-27q0 -11 -1 -21.5t0 -21.5q-1 -1 -2.5 -3.5t-3.5 -2.5t-3 1.5t-2 3.5v36q0 5 -1.5 8t-6.5 3q-3 0 -4 -1.5
t-2 -3.5t-1 -4v-4v-23.5t3 -24.5q5 -3 9 -4.5t7 -3.5t4 -5.5t1 -11.5v-4v-4l-1 -1t-2 -1v0h-1q-2 0 -3 3t-2 6.5t-2.5 7t-3.5 4.5q-7 2 -16 4.5t-17 2.5q-7 0 -13.5 -1.5t-13.5 -0.5q-3 -2 -4.5 -6.5t-3.5 -8.5t-3.5 -7.5t-4.5 -3.5t-3.5 1t-0.5 4q0 9 4.5 17.5t12.5 12.5
q1 1 4 1.5l6 1t5.5 1t2.5 1.5v33l-2 1v2.5v2.5q0 4 1 7.5t1 6.5t-2 4t-4.5 1.5t-5 0t-3.5 -0.5v-43q0 -3 -2.5 -6t-5.5 -3q-1 0 -2 0.5l-1 0.5v39l-3 14l-2 1t-3 1l-2.5 -1t-3.5 -1h-2h-3h-3h-2q-1 2 -1.5 2.5t-0.5 2.5zM119 234q0 -1 -0.5 -2.5t-0.5 -3.5t-0.5 -3.5
t-0.5 -2.5v-1v-2q0 -2 0.5 -8t0.5 -12.5t0.5 -12.5t0.5 -8h12q2 0 2.5 2l1 4t0.5 4.5v2.5v1v1.5t-0.5 3t-0.5 3v1.5v6.5v9.5v9.5v6.5q-1 3 -2.5 3.5t-5.5 0.5h-4t-3 -3zM173 122q4 10 6 21.5t3 22.5q1 2 0.5 4.5t0 5.5t1.5 5t4 2q1 0 3 -2.5t2 -3.5v-3v-2.5v-3.5v-2
q0 -14 -3.5 -30.5t-8.5 -29.5q-1 -3 -4.5 -8t-7.5 -11l-7 -10.5t-3 -6.5t2 -5l4 -6t3.5 -5l1.5 -2v-1q-5 -7 -12 -14.5t-13 -12.5q-4 -3 -11 -6t-15 -5.5t-15 -4t-11 -1.5q-3 0 -4 0.5t-1 3.5t4 5.5t9.5 4t11 2.5t7.5 2l5 2.5t6 2.5t5 2l2 1q1 0 2.5 1.5l3 3t2.5 3l1 1.5
l5 3v3v2v4v3t-1 3.5t-3 1.5q-6 0 -9.5 -4t-7.5 -7q-1 -1 -6.5 -3t-12.5 -5t-14.5 -6t-14.5 -5t-12.5 -3.5t-7.5 -1.5t-2 2v3v3q0 2 2 2q3 2 9.5 4t15 5t18 6t17 6t12.5 6t5 5q0 1 -1 3.5t-2 2.5h-11q-7 0 -14 -1t-13.5 -2.5t-13.5 -2.5t-14 -1q-4 0 -4 3q0 5 3 7
q14 3 28.5 5.5t27.5 2.5q6 0 11 -1t10 -1q8 0 11.5 5t5 11t3.5 12.5t6 9.5zM89 131q2 7 7 9.5t12 2.5h17.5t17.5 -1q8 -7 9.5 -14.5t1.5 -17.5v-12q-1 -2 -2.5 -3.5t-3.5 -1.5t-2.5 2.5t-0.5 5t-0.5 4.5t-2.5 2q-3 0 -7 -1h-2t-4 -0.5t-3 -0.5h-3q-7 0 -12.5 0.5t-12.5 3.5
q-1 -2 -1.5 -4t-1.5 -4t-2.5 -3.5t-3.5 -1.5t-2.5 3t-0.5 5v3q0 1 0.5 4.5t1 7.5t0.5 7.5t1 4.5zM97 123l0.5 -2l0.5 -2l1 -1q11 0 21 -1.5t20 -1.5q3 0 3 2v4q0 6 -3.5 8t-9 3t-10.5 1h-9h-2h-4h-4h-2q-2 -2 -2 -5v-5z" />
</svg>
