<?xml version="1.0" standalone="no"?>
<!DOCTYPE svg PUBLIC "-//W3C//DTD SVG 1.1//EN" "http://www.w3.org/Graphics/SVG/1.1/DTD/svg11.dtd" >
<svg xmlns="http://www.w3.org/2000/svg" xmlns:xlink="http://www.w3.org/1999/xlink" version="1.1" viewBox="-10 0 266 256">
   <path fill="currentColor"
d="M58 242q0 4 3.5 4h6.5q16 0 32 -0.5t31.5 -1t31.5 -1t32 -0.5q4 0 6.5 -1.5t2.5 -4.5q0 -1 -2.5 -3.5t-4.5 -2.5q-6 0 -12.5 2t-13.5 2l-0.5 -0.5t-1.5 -0.5h-2h-4t-3.5 -0.5t-2.5 -0.5l-0.5 -1.5t-0.5 -2.5t-0.5 -3.5t-1 -6t-0.5 -6.5v-4v-23v-22q5 -1 9 -1.5t7.5 -2.5
t5.5 -5.5t2 -8.5q0 -2 -0.5 -3t-2.5 -1q-3 0 -4.5 1.5t-3 4t-3 4.5t-3.5 3q-11 4 -22.5 3.5t-22.5 -0.5q-8 0 -12.5 -2.5t-7 -5.5t-4 -5.5t-3.5 -2.5q-3 0 -3.5 0.5t-0.5 4.5q0 5 2.5 8.5t6 5.5t8 3t8.5 1l2 4v20l-2 2q1 0 2 1t1.5 2.5t0.5 3v1.5q0 1 -0.5 3.5t-0.5 5
t-0.5 5t-0.5 3.5v18l-2 3h-48q-3 0 -3.5 1.5t-0.5 3.5zM123 215v-22.5t2 -23.5q0 -1 0.5 -1.5l0.5 -0.5l1.5 -0.5t3.5 -0.5t4 -0.5t3 -0.5h1q2 0 2.5 1.5t1 3.5t0.5 3.5v1.5q1 6 1.5 9.5t0.5 6.5v7v9v4v4v4v2v2.5t-0.5 3.5t-0.5 3.5t-1 2.5l-0.5 0.5l-0.5 0.5h-17l-2 -5v-2
v-3.5v-4.5v-4zM88 179h-3.5t-1.5 3v37q0 1 1.5 3.5t2.5 2.5h1q1 -1 2 -1.5l1 -0.5q1 -5 1.5 -9t0.5 -7.5v-7v-7.5q0 -2 0.5 -4.5t0 -4.5t-1.5 -3t-4 -1zM177 177q-2 0 -3 0.5t-1 3.5l-0.5 2.5t-0.5 5.5t-0.5 5t-0.5 3v5.5v7.5t-0.5 8t-0.5 5h5.5t3 -1t2.5 -2.5t2 -3.5v-11
q0 -2 0.5 -6.5t0 -9.5t-2 -8.5t-4.5 -3.5zM51 106q0 11 3.5 16.5t8.5 8t12.5 2.5h15.5q11 0 19 -5t8 -16q0 -5 -0.5 -9.5t-1.5 -8t-3.5 -6t-7.5 -5.5q-7 -1 -16 -1.5t-17 -0.5t-12.5 4.5t-7.5 10.5v2q0 2 -0.5 3.5t-0.5 2.5v2zM147 107q0 10 3 15t8.5 7t12.5 2.5t15 0.5h9
q4 -2 6.5 -5t3.5 -7t1 -8.5v-7.5q0 -9 -1 -13.5t-4 -7.5t-8.5 -3.5t-13.5 -0.5q-16 0 -24 6t-8 22zM90 117v-1v-4t1 -2h14q1 0 2.5 2.5l1.5 2.5v0v1t-2 3t-4.5 3l-5 2t-4.5 1q-3 -1 -3 -3.5v-4.5zM155 113q0 -3 2.5 -3.5t5.5 -0.5t6.5 1.5t3.5 5.5q0 2 -2 5.5t-4 3.5
t-4 -1.5t-3.5 -3t-3 -3.5t-1.5 -4zM63 116q0 -4 3 -4.5t7 -0.5q2 0 5 0.5t3 4.5q0 5 -2.5 6t-5.5 1q-4 0 -7 -1.5t-3 -5.5zM182 110h13v11q0 1 -1 1.5t-2 0.5t-5 0.5t-5 0.5v-14zM63 99q0 -4 4 -7t8 -3q2 0 3.5 0.5t2.5 1.5v4q0 5 -2.5 6.5t-7.5 1.5q-4 0 -6 -0.5t-2 -3.5z
M90 98v-3.5t1 -3.5h3h3q3 0 6.5 2t3.5 6q0 2 -1.5 2.5t-4 1t-4.5 0.5h-4q-3 0 -3 -1.5v-3.5zM155 98q0 -4 3.5 -6.5t7.5 -2.5q7 0 7 8q0 4 -2 5t-6 1q-3 0 -6.5 -0.5t-3.5 -4.5zM182 98q-1 -6 1 -8t7 -2q7 0 7 6v4t-2 3h-1.5h-2.5q-3 0 -5.5 -0.5t-3.5 -2.5zM97 49
q0 10 4 15t13 9h2h4h3h2q9 0 15 -1t14 -5q2 -1 3.5 -4t2.5 -6.5t1 -7v-5.5q0 -11 -2.5 -16.5t-7.5 -8t-12.5 -2.5h-17.5q-9 0 -14 2t-7 6t-2.5 10t-0.5 14zM105 48h4h6.5t6.5 1t4 3q0 7 -1 9.5t-7 2.5q-7 0 -10 -5t-3 -11zM133 49q1 -2 3.5 -2h3.5q5 0 8 1.5t3 6.5q0 4 -2 6
t-7 2h-4t-3 -2q0 -1 -0.5 -2.5t-0.5 -3.5t-0.5 -3.5t-0.5 -2.5zM105 34q0 -5 4 -6t9 -1q4 0 6 1t2 6v3t-1 2h-18q-2 0 -2 -2.5v-2.5zM135 35q0 -8 7 -8q4 0 7 2t3 7q0 2 -2 2.5t-5 0.5h-2.5t-3.5 -0.5t-3 -1.5t-1 -2z" />
</svg>
