<?xml version="1.0" standalone="no"?>
<!DOCTYPE svg PUBLIC "-//W3C//DTD SVG 1.1//EN" "http://www.w3.org/Graphics/SVG/1.1/DTD/svg11.dtd" >
<svg xmlns="http://www.w3.org/2000/svg" xmlns:xlink="http://www.w3.org/1999/xlink" version="1.1" viewBox="-10 0 266 256">
   <path fill="currentColor"
d="M80 170q0 2 0.5 9t2 16.5t3.5 19t5 17.5t7 13.5t9 5.5q2 0 3 -0.5t1 -2.5v-2q-5 -8 -9 -18t-7 -20.5t-4.5 -21t-1.5 -19.5q0 -6 2.5 -9.5t6 -5t8.5 -1.5h10h6q2 10 6 21.5t9 23t11 22.5t11 20q1 1 2 3l1 2q2 1 3.5 1.5t2.5 0.5q3 0 5.5 -1t2.5 -5l-1.5 -3.5t-4 -7l-5 -7
t-3.5 -3.5l-12 -23q-2 -1 -4.5 -7t-5.5 -13t-5 -14t-2 -10t0.5 -7.5t2 -8.5t2.5 -8t1 -7q2 -3 5.5 -4t5.5 -4q1 -2 3 -5.5t2 -4.5v-54q-2 -5 -2.5 -11.5t-2 -12t-5.5 -9t-11 -3.5t-13 0.5t-12 1.5t-11.5 2.5t-11.5 3.5q-1 3 -2.5 6.5t-2.5 5.5v10t-0.5 8t-0.5 8v8
q0 17 0.5 28t4.5 17.5t14 8.5t29 1q2 1 2 3.5v2.5q0 8 -4 11t-9.5 4t-12 1t-12 2.5t-9 8t-3.5 16.5zM90 91q0 -5 4 -7q6 0 11.5 -0.5t10 -0.5t9.5 -0.5t10 -0.5h7q5 5 5 12v1q-2 5 -4.5 8t-5.5 5t-7 3t-10 1q-7 0 -12.5 -0.5t-9.5 -2.5t-6 -6.5t-2 -11.5zM89 74v-14l3 -3
q11 -1 24 -3.5t24 -2.5q2 0 3.5 1.5t1.5 3.5v4.5v3.5v6q-1 2 -3 3t-5 1h-48zM92 46q-2 -1 -2 -3v-5q0 -7 4 -10t10 -4.5t12.5 -1t12.5 0.5h7q4 2 5 6t1 8q0 6 -4 6.5t-8 1.5h-4.5t-7.5 0.5t-7.5 0.5h-4.5l-2 1t-3 1t-4.5 -0.5t-4.5 -1.5z" />
</svg>
