<?xml version="1.0" standalone="no"?>
<!DOCTYPE svg PUBLIC "-//W3C//DTD SVG 1.1//EN" "http://www.w3.org/Graphics/SVG/1.1/DTD/svg11.dtd" >
<svg xmlns="http://www.w3.org/2000/svg" xmlns:xlink="http://www.w3.org/1999/xlink" version="1.1" viewBox="-10 0 266 256">
   <path fill="currentColor"
d="M195 248q1 1 1.5 1h2.5q3 0 6 -2.5t4 -5.5v-5v-8v-7v-5v-6v-9v-7v-3q0 -1 -0.5 -6t-1 -11t-1 -11t-0.5 -6q-1 -15 -0.5 -29.5t0.5 -29t-0.5 -29t-3.5 -28.5q0 -1 -0.5 -4.5l-1 -7t-1 -6.5t-0.5 -4q-3 -5 -6.5 -5.5t-8.5 -0.5q-15 0 -28 2.5t-29 4.5q-4 2 -7.5 3.5t-5 3.5
t-2.5 5t-2 9v5.5t-0.5 7t-0.5 6.5v3v112q-2 8 -3 16.5t-1 17.5t-0.5 17.5t-1.5 16.5v1q0 2 1.5 2h3.5q3 0 5.5 -3t3.5 -6v-16v-25v-29v-29v-26v-16q0 -3 0.5 -11t0.5 -17.5t0.5 -17.5t0.5 -11q0 -4 3 -7t7.5 -4.5t11 -2t12 -0.5h10.5h8h3h4h4h3q4 3 5 6.5t1 7.5v8t3 8
q-1 14 -0.5 28t1.5 28t1.5 28t0.5 28t-1.5 28.5t-1.5 28.5v1.5t0.5 2.5t0.5 2.5v1.5v3v5v5v3zM132 127q0 5 -0.5 12.5t0.5 14.5t3.5 13t8.5 8q1 0 5 0.5t5 0.5q2 0 5.5 -0.5l3.5 -0.5q1 0 3.5 -1t4.5 -2t3.5 -2t2.5 -2l1 -3v-2q0 -3 0.5 -5.5t0.5 -5.5v-4v-7q0 -4 -0.5 -8
t-0.5 -7v-4v-3.5t-0.5 -5.5t-0.5 -5.5v-2.5q-1 -4 -1 -8t-3 -8h-2h-3h-3h-2h-8.5t-9 1.5t-8.5 4.5t-5 8v24zM141 148v-2.5t2 -1.5h27l1 2t1 3q0 5 -1.5 9.5t-5.5 6.5h-8q-5 0 -7.5 -0.5t-4 -2.5t-2.5 -5t-2 -8v-1zM49 62v13q0 2 0.5 7.5t0.5 12.5t0.5 13t0.5 7v12.5
t1.5 12.5t5 9.5t11.5 3.5t14.5 -2t11.5 -9q0 -1 0.5 -3t1 -5t0.5 -5.5v-3.5v-38v-37v-6t-0.5 -6t-1 -5l-0.5 -2l-5 -6h-3.5h-5.5q-8 0 -15.5 1.5t-14.5 5.5q-1 5 -1.5 8.5t-0.5 6.5v7v8zM61 117v-5v-4q2 -2 4 -3t4.5 -1.5t5.5 -0.5h5h7l1 2v37h-20q-2 0 -3.5 -3t-2 -7.5
l-1 -9t-0.5 -5.5zM141 131q0 -3 1.5 -5.5t4.5 -3t6 -0.5h6h4t4 0.5t3.5 2t1.5 4.5l-1 2t-1 3q-1 0 -1.5 1l-0.5 1h-25l-1 -1.5t-1 -2.5v-1zM139 108q1 -3 3 -5t5 -3t6 -1.5t5 -0.5q6 0 8 3t2 8v1q0 1 -0.5 2t-1.5 1h-23q-1 0 -2.5 -2t-1.5 -3zM59 80q0 -3 3 -5.5t7 -3.5
t8 -1h6h4t3 2v17l-0.5 1t-1.5 1q-4 2 -7 2h-8h-10q0 -1 -0.5 -2.5l-1 -3l-1 -3t-0.5 -2.5l-0.5 -0.5t-0.5 -1.5zM132 67q-2 0 -3.5 2.5t-1.5 4.5h5h5h6h9t10 -0.5t9.5 -1.5t7.5 -2.5t3 -3.5t-1.5 -3.5t-3.5 -1.5q-1 0 -1.5 0.5l-0.5 0.5q-2 0 -8 0.5t-13 1.5t-13 2t-9 1z
M60 60q0 -1 -0.5 -3.5l-0.5 -2.5q0 -11 3.5 -15.5t14.5 -4.5h3h3l3 4.5t1.5 3.5t0.5 4v5v9q-1 0 -4.5 0.5t-7 0.5t-7 0.5t-4.5 0.5h-2h-2q-1 0 -1 -2zM134 48v2l0.5 0.5t1.5 0.5t4 0.5t4 0.5q8 0 14.5 -2.5t14.5 -3.5q2 -1 2 -1.5v-1.5q0 -4 -3 -4t-9 0.5t-12.5 1.5t-11.5 3
t-5 4z" />
</svg>
