<?xml version="1.0" standalone="no"?>
<!DOCTYPE svg PUBLIC "-//W3C//DTD SVG 1.1//EN" "http://www.w3.org/Graphics/SVG/1.1/DTD/svg11.dtd" >
<svg xmlns="http://www.w3.org/2000/svg" xmlns:xlink="http://www.w3.org/1999/xlink" version="1.1" viewBox="-10 0 266 256">
   <path fill="currentColor"
d="M148 177q0 3 1 8.5t2 12.5t3 15t4 15t4.5 12t4.5 7q3 -1 3.5 -3.5t0.5 -4.5q0 -4 -1 -8.5t-4 -6.5q-3 -13 -6.5 -25t-3.5 -25q0 -3 0.5 -6.5t2 -6.5t4 -5.5t5.5 -2.5h2q2 3 4.5 10t5 16.5t6 19.5t6.5 18.5t6.5 14t7.5 5.5q2 0 4 -1t2 -4q0 -5 -2 -10t-5 -9.5l-6 -9
t-5 -9.5l-1 -3.5l-2 -7t-2 -6.5t-1 -4q-2 -5 -4 -10.5t-2 -11.5q0 -3 1 -5.5t5 -5.5v-19q0 -1 0.5 -2t1.5 -2l0.5 -1t1.5 -2t1.5 -2l0.5 -1q1 -1 2 -3.5t2.5 -5.5t2.5 -5.5t1 -3.5q0 -3 0.5 -8.5t0.5 -12t0.5 -12.5t0.5 -8v-2v-2q-3 -4 -5.5 -9t-7.5 -7h-3h-3.5h-4.5h-2h-15
t-10 2t-6 7t-3 14q-1 8 -1.5 18t-0.5 19q0 8 2.5 12.5t6.5 7.5t8.5 4t8.5 2t6.5 1t2.5 2v18l-4 2.5t-9 6t-9.5 7.5t-5.5 8q0 1 -0.5 3t-0.5 4v4v3zM52 218q0 2 0.5 3t1.5 1h9q17 0 32.5 -1t34.5 -2l2 -1.5t2 -2.5l-0.5 -2l-0.5 -2h-3.5h-5.5h-5.5h-3.5t-3 -0.5t-4.5 -1
t-4.5 -1.5t-3 -2v-6v-5q0 -2 1 -4h6t8.5 -0.5t7.5 -2t3 -4.5v-2.5t-1 -1.5h-22q-2 0 -2.5 -3.5t-1 -7.5t-1.5 -7.5t-5 -3.5h-0.5h-0.5q-1 2 -1 6.5t-0.5 8.5t-1.5 7.5t-3 3.5h-23q-2 0 -2.5 1t-0.5 2v2.5t2 1.5h25q1 0 1.5 0.5t0.5 1.5v1t0.5 3t0.5 4v3v1v1l-0.5 2t-0.5 3
h-5.5t-7.5 0.5t-7.5 0.5h-5.5q-1 0 -3 0.5t-3.5 1t-3 1.5t-1.5 3zM89 122v20q0 2 -3.5 4.5t-8 5.5t-10.5 6t-11 6.5t-8 6.5t-3 7q7 0 13 -3t12 -7.5t11 -9.5t11 -8h1h2q1 0 3.5 0.5t2.5 1.5l27 16h1.5h1.5q2 0 4.5 -0.5t2.5 -3.5t-6.5 -5.5t-14.5 -6t-14 -7t-6 -6.5v-4
l0.5 -2t0.5 -3l-0.5 -1t-0.5 -2v-2q0 -2 0.5 -2.5t2.5 -1.5q5 -1 9.5 -2t8 -3t5.5 -6t2 -10t-4 -8.5t-9 -3.5t-9 -2t-4 -5q0 -3 1.5 -4l3 -2l3 -2t2.5 -3q2 -5 3 -11t2 -11q2 -1 4.5 -1.5t5.5 -0.5t5.5 -0.5t3.5 -0.5l0.5 -0.5l0.5 -0.5l1 -1v-1h-1q0 -1 -1 -2.5t-2 -1.5
h-16v-2v-4.5v-4.5v-3q0 -2 -1.5 -5t-4.5 -3q-2 0 -3 1t-2 3t-1 4v3t0.5 3l0.5 2v3q0 2 -0.5 4t-2.5 3h-3h-4h-4h-3q-1 0 -2.5 -0.5t-1.5 -1.5v-19q0 -2 -2 -2h-2h-3t-2 2v19l-3 4h-17l-1.5 0.5l-1.5 0.5v1q0 3 3 4.5t7 2t7 0.5h5q1 1 2 3t1.5 4t1 4.5t1.5 3.5l3.5 3.5t3.5 3
t3 3t1 4.5v3.5t-3 2.5q-7 -1 -13 0.5t-11 7.5v2.5t-0.5 4t-0.5 4v2.5v1q0 3 3.5 5.5t8 3.5l9 2t6.5 1zM51 147q0 3 4 3q2 0 6.5 -2t9.5 -5.5t9 -6.5t4 -6q0 -1 -0.5 -2t-1.5 -1h-1q-2 2 -7 4t-10 5t-9 6t-4 5zM101 131v1q2 1 6 3.5t9 5t10 4.5t6 2q2 0 4 -1t2 -3t-2 -3.5
t-5 -2.5t-5.5 -2t-3.5 -1q-1 -1 -3.5 -2t-5.5 -2t-5.5 -1.5t-3.5 -1.5q0 1 -1 2t-2 1v1zM71 111v-4q0 -7 5 -10.5t11 -3.5q1 0 1.5 0.5l0.5 0.5v18l-2 2h-1.5t-3 -0.5t-3.5 -1t-3 -0.5l-2 -0.5t-3 -0.5zM97 107q0 -3 0.5 -6t2.5 -5h2h2q5 0 7.5 1t2.5 6q0 4 -2.5 6t-7.5 2
h-2t-2.5 -0.5t-2 -1.5t-0.5 -2zM152 97v-3.5t3 -0.5h5h5h11.5t11.5 1l1.5 1.5t0.5 2.5q0 3 -1.5 5.5t-4 3.5t-5.5 1.5t-6 0.5h-7t-7 -1.5t-5 -4t-2 -6.5zM150 80q0 -3 1 -6.5t4 -5.5h2.5h3.5h3h3h7.5t8.5 0.5t7 3t3 8.5l-0.5 1t-1.5 2q0 1 -0.5 1.5l-0.5 0.5h-38q-2 0 -2 -2
v-3zM84 56v-2.5t2 -1.5h14q1 0 1 1t0.5 2t0 2l-0.5 1q0 3 -1.5 6t-5.5 3t-7 -3.5t-3 -7.5zM153 58q-1 0 -1 -1.5v-2.5t0.5 -3.5t1.5 -5t2.5 -4t3.5 -1.5h23q2 0 4 1.5t3.5 3.5t2 4.5t0.5 4.5v3.5t-3 2.5h-12h-12.5t-12.5 -2z" />
</svg>
