<?xml version="1.0" standalone="no"?>
<!DOCTYPE svg PUBLIC "-//W3C//DTD SVG 1.1//EN" "http://www.w3.org/Graphics/SVG/1.1/DTD/svg11.dtd" >
<svg xmlns="http://www.w3.org/2000/svg" xmlns:xlink="http://www.w3.org/1999/xlink" version="1.1" viewBox="-10 0 266 256">
   <path fill="currentColor"
d="M189 245q0 2 1 2.5t3 0.5t4.5 -1t2.5 -4v-71q-1 -1 -1.5 -5t-1.5 -7.5t-2.5 -6.5t-4.5 -3h-36q-1 0 -2.5 -1t-3 -2.5t-2 -3t-0.5 -3.5q0 -4 2.5 -7t7.5 -3q5 -1 12 -0.5t13.5 -0.5t12 -4t8.5 -10q0 -3 1 -10t1.5 -15t1 -15t0.5 -9v-3t0.5 -4.5t0.5 -5.5v-4v-3t-0.5 -5
t-0.5 -5v-3q-1 -3 -3 -6t-6 -3h-54l-1.5 1.5t-1.5 2.5t0.5 2.5l0.5 1.5h21l0.5 2.5t0.5 6t1 5.5v5q0 3 -0.5 5.5t-4.5 2.5t-5.5 -2t-2.5 -5t-1.5 -6t-3.5 -5q-1 0 -1.5 1t-0.5 2v2q0 1 0.5 3.5t0.5 5t0.5 4.5t0.5 3q1 2 3 2.5l4 1t4 1.5t4 3v8v4.5t-0.5 4.5t-1.5 3.5t-4 1.5
q-4 0 -5.5 -1.5t-2.5 -4t-2 -5.5t-4 -4q-2 1 -2.5 3.5t-0.5 4.5q0 8 3.5 10t7.5 3t7 2.5t3 7.5t-1.5 9t-3.5 4.5t-4.5 3l-5 3t-3.5 4.5t-1 8v5t1 5.5t3 4.5t5 2h35q2 0 3.5 2t2 4.5t0.5 4.5v3v64q0 1 -0.5 4.5t-0.5 5.5zM51 228q0 2 1.5 2h2.5q4 0 6 -6t4 -15.5t3 -21.5
t1.5 -25t1 -25.5t1 -22.5t1.5 -16.5t3 -7.5q4 -2 10 -3t12.5 -1.5l13 -1t10.5 -0.5q2 -1 2 -2v-2q0 -2 -1.5 -2.5t-3 -0.5h-3h-2.5h-12t-16 1t-14 4.5t-7 9.5l-8 92q-3 10 -3 21.5t-3 22.5zM84 138v6t1 8t2.5 7t4.5 3h21q2 0 3.5 -3.5t2 -7.5t0.5 -9v-5v-12.5t-1 -13.5
q-3 -4 -6.5 -5t-8.5 -1t-10 1.5t-7 6.5q0 1 -0.5 4t-0.5 6.5t-0.5 6.5t-0.5 4v2v2zM91 132q0 -8 2.5 -13.5t10.5 -5.5q3 0 4.5 2.5t1.5 5.5v6v5v8t-1 8t-3 6t-7 2q-3 0 -5 -2.5t-2.5 -6.5t-0.5 -8.5v-6.5zM183 97q0 -1 1 -5t2 -5q0 -1 -0.5 -4t-0.5 -4q-3 0 -4 2t-2 4.5
t-2 4.5t-5 2q-2 0 -3 -0.5t-2 -1.5v-6q0 -9 1.5 -13t4 -5t5.5 -1t5.5 -1t4 -4.5t1.5 -12.5v-3q0 -3 -3 -3v0q-1 0 -1.5 0.5t-0.5 1.5l-3 14h-9q-2 0 -2 -3v-4v-3v-3.5t0.5 -5t1 -4l0.5 -1.5l1 -2h19q2 0 3.5 1.5t1.5 3.5v4v5v6v4q0 4 0.5 11t0 14t-1.5 14t-3.5 13t-7 9.5
t-11.5 3.5h-4t-3 -3v-14q0 -2 2 -3t5 -1.5t5.5 -1t3.5 -0.5zM57 56q0 3 2 4t4 1h1h1q1 0 2.5 -0.5t4 -1t4 -0.5h2.5q2 0 9 -0.5l14 -1t13.5 -1t9.5 -0.5q1 -1 3 -2t2 -3q0 -1 -1 -2.5l-1 -1.5h-22q-2 0 -2.5 -1.5t-1 -4t-0.5 -5.5v-3t0.5 -2.5l1 -3t1 -2.5t1.5 -1h19l5 -6
l-4 -3l-3 -0.5t-5 -0.5q-15 0 -29 1t-29 3q-1 1 -2 2.5t-1 3.5v0q0 1 2 2t2 2h1q5 0 9 -1t9 -1h3h3h3h3q0 1 0.5 2.5t0.5 2.5v1v3t-0.5 6.5t-2 6.5t-3.5 3h-22q-2 0 -4.5 2t-2.5 3z" />
</svg>
