<?xml version="1.0" standalone="no"?>
<!DOCTYPE svg PUBLIC "-//W3C//DTD SVG 1.1//EN" "http://www.w3.org/Graphics/SVG/1.1/DTD/svg11.dtd" >
<svg xmlns="http://www.w3.org/2000/svg" xmlns:xlink="http://www.w3.org/1999/xlink" version="1.1" viewBox="-10 0 266 256">
   <path fill="currentColor"
d="M98 234v3t0.5 4.5t1.5 4t3 2.5q1 -1 2 -7.5t1.5 -16.5t1 -21.5l1 -23t1 -20.5t1.5 -14t4.5 -10.5t7.5 -11t7 -10t3 -6.5t-1 -2.5t-3 -0.5q-13 0 -24.5 1t-24.5 1q0 3 2.5 7.5l5 9t5 9.5t3.5 10q2 22 2 46v46zM121 20h-17t-19 2.5t-16 8.5t-7 17v118q0 11 -2 24.5t-4 24.5
q-1 2 -2.5 5.5l-3 7t-2.5 7t-1 6.5h5l1 -1t2 -3t2 -3.5t2 -3.5q3 -5 6 -15.5t4.5 -22t2.5 -22.5t2 -18v-3.5t0.5 -6t1 -6t0.5 -3.5v-22q0 -15 -1 -29.5t-1 -29.5q0 -2 0.5 -6.5t2.5 -6.5q5 -4 12 -6t14.5 -4t15 -3t12.5 -1l1 -0.5t1 -1.5v-1v0q0 -1 -1 -1.5l-1 -0.5h-5h-5z
M121 218q4 2 8.5 2h8.5q8 0 17 -0.5l18 -1t17.5 -2t16.5 -3.5q1 0 1 -1v-2v-2.5t-1 -1.5h-39v-27l1 -3h2t4.5 -0.5t5 -1.5t4.5 -1q1 0 5 -0.5t5 -1.5v-5h-25v-2v-3t-0.5 -3.5l-0.5 -1.5q1 -5 6 -7.5t11 -5t11 -7t5 -13.5q0 -5 -2.5 -8.5t-6 -6t-7.5 -5t-8 -5.5q-2 -1 -4 -5
t-4.5 -8t-5 -7t-5.5 -3q-2 0 -2.5 1t-0.5 5q-4 -4 -5.5 -8t-1.5 -9l0.5 -2.5t0.5 -3.5q1 -2 3 -3.5t5 -1.5q2 0 3 1.5t1.5 3t1 4t1.5 3.5q0 1 1 2.5t2.5 3l2.5 2.5l1 1h5q0 -4 -1 -6.5t-2.5 -5t-3 -5.5t-1.5 -7v-2q1 -1 2.5 -1.5t3 -1.5t3 -1.5t2.5 -0.5v-0.5t1 -0.5
l0.5 0.5l0.5 0.5l0.5 0.5l0.5 0.5q1 1 2 4t3 6.5t3.5 6.5t1.5 4q2 4 5.5 7.5t8.5 3.5q3 0 3 -3q0 -4 -3 -7.5t-6.5 -7t-6.5 -7.5t-3 -8v-2q1 0 3 -1.5t3.5 -3.5t2.5 -3.5t2 -2.5v-3v-5v-3v-4q-2 -4 -6 -4v0h-1q-2 10 -6.5 15.5t-10.5 8.5t-13 4.5t-12.5 3.5t-9.5 6.5
t-4 12.5q0 7 2 11.5t5 7.5t6 4.5t6 3.5t5 4.5t2 6.5q0 3 -1 6.5t-3 6.5t-4 5.5t-4 4.5q-2 1 -6 2t-7.5 3t-6.5 4t-3 5q9 0 17 -4.5t14 -9.5t9.5 -9.5t5.5 -4.5t4.5 1t4.5 3t3.5 4.5t1.5 5.5q0 6 -3.5 8.5t-7.5 5t-9 4.5t-7 6q-3 5 -4.5 11t-2.5 12l-1 1q-1 0 -3.5 0.5
t-5.5 0.5t-5 0.5t-3 0.5t-3 1.5t-2 3.5v1l1 0.5t2 0.5h20v26q0 2 -3 3.5l-5 2.5h-5.5t-7.5 0.5t-7.5 0.5h-4.5q-2 1 -2 1.5v2.5v0.5v0.5zM95 116h0.5h0.5q1 -1 2.5 -1t4 -1t4 -1.5t2.5 -0.5h2q2 0 3.5 1t1.5 3q0 1 -1 3.5t-3 5t-4 4t-3 1.5q-2 0 -3.5 -1.5t-3 -4t-2.5 -5
t-1 -3.5zM84 81h3t4 0.5l4 1t3 0.5v0h1q2 0 5 -0.5t7 -1t7 -0.5h5q1 -1 1.5 -2.5t0.5 -2.5h-38q-3 0 -3 3v0.5v1.5zM79 58q1 0 4.5 0.5t6.5 0.5t6.5 0.5t4.5 0.5h0.5h1.5h0.5h0.5q1 -1 4.5 -1.5t7 -1.5t6.5 -1.5t4 -0.5q2 -1 2 -4v-4h-4h-6t-6 0.5t-4 0.5q-2 0 -7 1t-10 2.5
t-8.5 3l-3.5 1.5v1.5v0.5z" />
</svg>
