<?xml version="1.0" standalone="no"?>
<!DOCTYPE svg PUBLIC "-//W3C//DTD SVG 1.1//EN" "http://www.w3.org/Graphics/SVG/1.1/DTD/svg11.dtd" >
<svg xmlns="http://www.w3.org/2000/svg" xmlns:xlink="http://www.w3.org/1999/xlink" version="1.1" viewBox="-10 0 266 256">
   <path fill="currentColor"
d="M44 245q1 1 2.5 1h2.5q3 0 5 -0.5t5 -2.5q3 -21 3 -42.5v-42.5q0 -19 -1.5 -38.5t-1.5 -38.5q0 -5 0.5 -10.5t1 -11.5t1 -11t0.5 -9q0 -1 0.5 -3.5t1.5 -3.5l1.5 -0.5t1.5 -1.5q1 0 3.5 -2t3.5 -2l28 -5l1 -0.5t1.5 -1l1 -1l0.5 -0.5q0 -1 -0.5 -2t-0.5 -2h-4h-3
q-4 0 -11.5 1t-14.5 2.5t-13.5 3.5t-9.5 5q0 3 -0.5 5t-0.5 4.5v4.5v5q0 10 0.5 21t0.5 22q0 8 -0.5 15.5t-0.5 15.5q0 4 0.5 7.5t0.5 6.5q0 24 -2.5 48.5t-2.5 48.5v3v4v5v3zM90 210q0 2 1 2.5t3 1t3.5 0.5h3.5q3 0 10 -0.5t14.5 -1t14 -1.5t9.5 -2h54q2 0 5 -2t3 -4v-1
l-0.5 -0.5l-0.5 -0.5q-4 -3 -10 -3.5t-10 -0.5q-1 0 -2.5 1t-2.5 1l-2.5 0.5t-5 0.5t-5.5 0.5t-5 0.5h-1h-1q0 -1 -1.5 -2t-1.5 -2v-27q-1 -2 -1 -4v-4v-3t3 -2h8q5 0 10.5 -0.5t10 -2t4.5 -3.5q0 -5 -2.5 -5h-6.5q-5 0 -9.5 0.5t-10.5 0.5h-4h-3l-2 -1v-2.5t0.5 -5
t0.5 -5.5t1 -5q0 -3 2.5 -6.5t6 -7t7 -6t6.5 -2.5q4 0 6 3.5t3 7.5t3 7.5t7 3.5q3 0 4.5 -3.5t1.5 -5.5v-3q-6 -6 -11.5 -11t-14.5 -5q-4 0 -6 1.5t-4.5 3.5t-4.5 3.5t-5 1.5h-2t-1 -2v-21v-12v-11.5t0.5 -11.5t1.5 -13q2 -5 6.5 -8.5t8.5 -6.5t7 -6.5t3 -8.5q-6 0 -10 1.5
t-7 4t-5.5 5.5t-6.5 7q-1 2 -4 3.5t-4 4.5v8v5q0 3 -0.5 5.5t-2.5 5.5q-2 -1 -3.5 -2l-3 -2t-2.5 -1.5t-4 -0.5t-6.5 2t-6.5 5t-6 5.5t-7 2.5q-2 0 -2.5 -2.5t-2 -5.5t-3.5 -5t-7 -2h-4.5t-5 1t-4.5 3t-2 4q0 13 -1 23.5t-1 22.5q0 2 -0.5 5t0 5.5t1.5 5t4 3.5h6
q5 0 8.5 -0.5t6.5 -2.5q0 -1 0.5 -3l1 -4t1.5 -4.5t3 -3.5v-32q3 -1 6 -3t6 -4.5t6 -4t7 -1.5h2l8 8q4 -2 5.5 1t2 7.5t0.5 10v7.5v1v1q0 1 -1.5 4.5t-1.5 4.5q-4 -1 -6.5 -3.5t-4.5 -4t-5.5 -2.5t-7.5 -1q-2 0 -4.5 2t-4 4.5t-2.5 5t-1 4.5q0 3 1.5 3.5t3.5 0.5q3 0 4 -1.5
t2 -3.5t2.5 -4t4.5 -2t7 3.5t8 5.5l1.5 0.5l1.5 0.5l2 31q0 1 -3.5 1.5t-5.5 0.5h-21q-2 1 -4.5 2.5t-3.5 3.5q2 4 6.5 4.5t8.5 0.5t8 -1.5t8 -1.5q3 0 5.5 2t2.5 5v1l-0.5 2t-0.5 3v26q0 3 -4.5 4.5t-10.5 2.5t-11 1h-7h-4h-7h-6h-5q-2 1 -2.5 2.5t-0.5 3.5zM80 110v-3
q1 -3 1 -9t0.5 -12.5t1 -12.5t0.5 -9q2 -1 4 -3t4 -2h1q2 3 3 6t1.5 7t0.5 7v5q0 1 -0.5 4t-1 7t-1 7.5t-1.5 5.5q0 4 -2 7t-6 3q-3 0 -4 -3t-1 -5zM185 59q4 0 5.5 3t3 6.5t3 6t4.5 2.5t6 -1.5t3 -4.5t-3 -6.5t-6.5 -7t-8 -5.5t-6.5 -2q-5 0 -7.5 1.5t-4.5 4t-4 6t-5 6.5v1
q0 1 1 1.5t3 0.5t4.5 -1.5t4 -3l3.5 -3.5t3 -4h0.5h0.5z" />
</svg>
