<?xml version="1.0" standalone="no"?>
<!DOCTYPE svg PUBLIC "-//W3C//DTD SVG 1.1//EN" "http://www.w3.org/Graphics/SVG/1.1/DTD/svg11.dtd" >
<svg xmlns="http://www.w3.org/2000/svg" xmlns:xlink="http://www.w3.org/1999/xlink" version="1.1" viewBox="-10 0 266 256">
   <path fill="currentColor"
d="M99 249l1.5 1.5t1.5 0.5q2 0 4.5 -1.5t3.5 -3.5v-8t0.5 -13t0.5 -13v-8q1 -4 1.5 -10t2 -12t4.5 -11t8 -7l22 -11l3 1v25q0 1 -2 3t-3 2q-2 1 -2.5 -0.5t-1 -3.5t-1 -3.5t-2.5 -1.5q-4 0 -5.5 4t-1.5 7v3q0 1 0.5 4.5t1 7.5t1 7.5t0.5 5.5q1 4 3 6.5t5 3.5t6 1h8
q5 0 10.5 -0.5t9.5 -3.5q3 -19 3 -40q0 -3 -1 -5.5t-5 -2.5q-2 0 -3 1.5t-1.5 3.5t-2 3.5t-3.5 1.5t-3 -1.5t-1 -4v-4.5v-3v-3.5t0.5 -5t1.5 -4t3 -1.5q7 0 12 3t8 8.5t4.5 12t2.5 13.5t1 13v10q0 7 -1 14t-1 15q0 2 0.5 4t3.5 2q4 0 6 -3t3 -7.5t1 -9.5v-7q0 -16 -2 -32
t-10 -30q-2 -2 -6 -4t-8.5 -4t-7.5 -3.5l-3 -1.5q0 -3 2 -4.5t5 -2t6.5 -1.5t4.5 -2q5 -3 7.5 -9.5t3.5 -13.5t1.5 -14t0.5 -13v-10q0 -3 -2 -3.5t-3 -0.5q-3 0 -4.5 3t-2 6.5t-1 7.5t-0.5 6v1q1 0 1.5 2t0.5 3v0v1q0 1 -0.5 2.5t-1.5 2.5q0 1 -0.5 3.5l-1 5t-0.5 5t-1 3.5
q-2 2 -3.5 4t-3 3.5t-4 2.5t-7.5 1q-1 0 -3 -1.5t-2 -3.5v-65l-2 -0.5t-3 -1.5v0h-1q-1 1 -2.5 2t-2.5 1v4v3v7t2 6v39l-1.5 0.5t-1.5 1.5h-1q-2 0 -5 -1t-6.5 -2.5t-6.5 -3.5t-3 -4l-5 -33h-8q0 5 0.5 12.5t2.5 14.5t5.5 13t9.5 8q2 2 5 2t5.5 0.5t4.5 2t2 5.5v1v2
q-18 3 -28.5 10.5t-15 18.5t-5.5 26t-1 32v3v4.5v4.5v3zM46 238q0 2 0.5 4.5t3.5 2.5t5 -3t3 -7t1.5 -7.5t0.5 -4.5q0 -7 -0.5 -14t-2.5 -13l1 -68v-9l4 -67q0 -5 3.5 -9.5t8.5 -5.5l28 -5q1 0 2 -0.5l1 -0.5v-1q0 -4 -2 -5t-4 -1q-8 0 -16 0.5t-15 3t-11.5 7.5t-5.5 14
q-3 41 -3.5 83.5t0.5 84.5q-1 5 -1.5 10.5t-0.5 10.5zM144 211v0q1 -1 2.5 -3t2.5 -2l2 0.5l2 0.5h2t2.5 -0.5t3 -0.5h2.5h1q2 0 3.5 1t1.5 3v1l-0.5 2t-1.5 2t-2.5 0.5t-3.5 0.5t-3.5 0.5t-2.5 0.5t-2.5 -0.5t-3.5 -1t-3.5 -1.5t-1.5 -3zM146 198q-1 -1 -1 -2v-1q0 -3 2 -4
t4.5 -1.5t5.5 -0.5h5h4h4q2 0 2 2v3v4q-3 2 -5 2h-5q-5 0 -8 -0.5t-8 -1.5zM71 122q2 5 4.5 7t7.5 2q10 0 15.5 -6t5.5 -16q0 -8 -0.5 -17t-1.5 -16q0 -2 -0.5 -5.5t-1 -6l-1 -5l-0.5 -2.5l-1 -2h-19q-1 0 -2 1t-2.5 2t-2.5 2t-1 2v4v7v7.5v4.5l-0.5 2.5t-0.5 3.5v1v1v5
t0.5 9t0.5 9v6zM80 120q0 -4 -0.5 -7t-0.5 -6v-7v-7v-13t1 -14q1 -3 3 -4t5 -1q1 0 2 0.5l1 0.5l2 3v2.5t0.5 6t0.5 7v5.5v15v15q-1 6 -8 6h-2.5t-3.5 -2zM135 91v7.5t0.5 9.5t1.5 9t2 5l4 -3v-31q0 -2 -2 -2h-3q-2 0 -2.5 1.5t-0.5 3.5zM170 120q0 1 1 1.5l1 0.5h0.5h0.5h1
q2 -2 3.5 -5t2 -7t0.5 -8v-6q0 -2 -1 -6t-4 -4t-5 3v3t-0.5 4.5t-0.5 4.5v3v3t0.5 5t0.5 5v3zM181 43l-0.5 2t-0.5 3t-0.5 3.5t-0.5 5.5v6v4q6 0 7.5 -4t2 -8.5t1 -8t3.5 -3.5h1q0 1 1.5 2t2.5 2.5t2.5 2.5t3.5 1t3.5 -2t1.5 -4q0 -3 -2.5 -5.5t-6.5 -5t-7 -4.5t-3 -4v-14
q0 -3 -2 -3h-4t-3.5 2t-2 5t-0.5 6v4q-1 2 -3 4t-4.5 4t-4.5 3.5t-5 1.5l-1.5 -0.5l-1.5 -0.5q-1 0 -3 -1.5l-4 -3t-4 -2.5t-3 -2q-3 -2 -3 -5t-0.5 -6t-2 -5.5t-5.5 -2.5l-2.5 0.5t-2.5 1.5v17l-1.5 1.5t-2.5 1.5t-2.5 1.5t-2.5 1.5q0 1 -2 2.5t-3.5 3l-3 3l-2.5 2.5v1
q0 2 1.5 2h2.5q3 0 4.5 -1t3.5 -2t3.5 -2t3.5 -1q3 0 3.5 3.5t0 7.5t0 7.5t5.5 3.5v0q1 -1 2 -2.5t1 -2.5v-17q0 -1 2 -1.5l2 -0.5q3 0 4.5 1t2.5 4h17q2 -1 4.5 -3t5.5 -2q1 0 2.5 0.5t1.5 1.5z" />
</svg>
