<?xml version="1.0" standalone="no"?>
<!DOCTYPE svg PUBLIC "-//W3C//DTD SVG 1.1//EN" "http://www.w3.org/Graphics/SVG/1.1/DTD/svg11.dtd" >
<svg xmlns="http://www.w3.org/2000/svg" xmlns:xlink="http://www.w3.org/1999/xlink" version="1.1" viewBox="-10 0 266 256">
   <path fill="currentColor"
d="M127 229q4 7 13.5 10t20.5 5t21 3t16 2h1q6 0 8.5 -2.5t2.5 -8.5v-2.5t-2 -2.5q-1 0 -2.5 -0.5t-4 -0.5t-4.5 -0.5l-2 -0.5q-1 0 -3.5 0.5t-6 0.5t-6 0.5t-3.5 0.5h-2h-3h-4t-3 -4v-2.5v-2.5q0 -8 5 -11t10.5 -4.5t10.5 -2.5t5 -5v-21l-1.5 -3t-0.5 -3q0 -3 1 -7t1 -8
q0 -2 -1 -5.5t-2.5 -7t-4 -5.5t-6.5 -2h-33q-7 0 -11 5.5t-4 12.5q0 5 2.5 8t6 5l7 4t5.5 6q0 2 0.5 6.5t0.5 10.5t0.5 11t0.5 6v6q0 5 -1 8t-7 3q-4 0 -6 -1.5t-4 -4.5t-3 -6t-1 -6v-22q0 -2 -2 -3.5t-4 -1.5q-4 0 -5 3t-1 6l0.5 2l0.5 2q0 2 0.5 6.5t1.5 9t1.5 9t0.5 5.5z
M43 239q0 2 0.5 4t3.5 3l1.5 -0.5l1.5 -0.5q4 -3 5.5 -10t2 -14.5l1 -15t0.5 -9.5v-11.5t0.5 -14.5t0.5 -12.5v-6.5l0.5 -2t0.5 -4t0.5 -3.5t0.5 -2.5q0 -2 0.5 -7.5t0.5 -12t0.5 -12t0.5 -8.5v-46q2 -4 1.5 -7t1.5 -7q2 -3 5.5 -4.5t7.5 -2.5t9 -1t8.5 -1t6 -3t2.5 -5v-2.5
v-1.5q-1 -1 -2 -1.5t-2 -0.5q-5 0 -12 2.5t-13 4.5q-9 2 -13.5 3.5t-6.5 4t-2.5 7.5t-0.5 15q0 1 -0.5 6t-1 11t-0.5 11v6v2v0v2.5t0.5 3l1 3l0.5 1.5v1v2q0 13 -2.5 26t-2.5 26v6v9v10v5q-1 6 -1.5 13t-1.5 14t-2 14.5t-1 13.5zM182 173q4 0 4 2.5v4.5v3v2.5t-0.5 4t-0.5 4
v2.5q-2 3 -7.5 5t-9.5 2h-2t-2 -2v-21q0 -2 2.5 -3.5t6 -2t6.5 -1zM143 157q0 -5 2.5 -7t6 -3t7.5 -1h7h2.5h3.5h3.5h2.5q4 2 4.5 3.5t0.5 3.5v3.5t-1 4.5t-2 3.5t-4 1.5h-26q-5 0 -6 -3.5t-1 -5.5zM74 74q0 3 -0.5 8.5t-0.5 11.5t0.5 12.5t2 11.5t5 8t8.5 3q4 0 8 -1.5
t7 -4.5q1 -14 1.5 -24.5t0.5 -22.5v-6q0 -5 -0.5 -9.5t-2 -8t-4.5 -3.5h-4t-7 -0.5t-7 -0.5t-4 -1h-1v0q-2 7 -2 14v13zM183 86h2.5t1.5 1v41l1 0.5t2 0.5t3 -1.5t2 -2.5v-39q0 -1 1 -1.5t2 -0.5q2 0 3.5 1.5t1.5 3.5v30q0 1 0.5 2t1 2.5t1.5 2t2 0.5q2 0 3.5 -2.5t1.5 -4.5
v-12v-13t-3 -11q-1 -3 -3.5 -5t-5.5 -4t-4.5 -3.5t-1.5 -2.5q0 -3 2.5 -4t6.5 -3.5t7 -8t3 -16.5v-2q0 -2 -0.5 -4t-0.5 -4v-2q-2 -3 -5 -3q-1 0 -2 0.5t-1 2.5q0 5 0.5 10t0 9t-3 6.5t-7.5 2.5v-39q0 -2 -2.5 -2h-3.5q-2 0 -3 1.5t-1.5 4t-0.5 5.5v3q0 7 2 12.5t2 12.5
q0 2 -1 4t-4 2q-4 0 -5.5 -2t-2 -5t-0.5 -7t-0.5 -7.5t-1.5 -6.5t-4 -4q-1 2 -1 5v4q0 7 0.5 12t2.5 12q1 3 4 4t6 1.5t5 1.5t2 4q0 4 -1 6t-2.5 3t-4 2t-4.5 4q-4 5 -5.5 12t-1.5 13v8q1 1 2 1.5t2 0.5h0.5h1.5q1 -3 1.5 -8t1 -10.5t1.5 -9.5t4 -4zM136 86q-1 9 0 16.5
t3 16.5q1 3 1 4.5t3 1.5q1 0 2 -1.5t1 -3.5v-1q0 -1 -0.5 -5.5t-0.5 -9.5t-0.5 -9t-0.5 -6q0 -5 3 -5t4 1l2 2v6.5t0.5 9t0.5 9v6.5v1l2 2l2 2v0q3 0 4 -3t1 -5v-2.5v-1.5q0 -2 -0.5 -6t-1 -8.5t-1 -8.5t-1.5 -5q-1 -3 -3.5 -5t-5 -3t-4.5 -2.5t-2 -4.5q0 -2 1.5 -3.5
t3.5 -3l4 -3t3 -2.5q2 -2 3 -5t1 -6t-0.5 -6.5t-0.5 -6.5v-4.5t-1 -7t-2.5 -6t-3.5 -2.5q-1 0 -2 1t-1 2v2.5v1.5q0 6 2 12t2 12q0 3 -1 5.5t-5 2.5h-3t-2 -2v-33q0 -1 -2 -1.5t-3 -0.5q-2 0 -3 2t-1 4q0 8 1.5 15t1.5 13q0 3 -1 4.5t-3 1.5q-3 0 -3.5 -0.5t-1.5 -2.5
q0 -1 -1 -4l-2 -6l-2 -6t-1 -4h-3h-2.5t-1.5 2q0 1 1.5 4.5t3 8t3.5 8.5t2 5q7 1 9.5 1.5t2.5 6.5t-3 9t-7 5.5t-7 6t-3 11.5v5.5t1 7.5t2.5 6.5t3.5 2.5t2.5 -1.5t0.5 -3.5q0 -4 -1 -8t-1 -8q0 -2 0.5 -4.5t2 -5t3 -4.5t3.5 -2h1q0 1 1 1.5zM82 81v-17q1 -3 3 -5t5 -2
q2 0 3.5 0.5t3.5 1.5q1 4 1.5 7t0.5 6v6v7v8q0 1 -0.5 5l-1 8l-1 8t-0.5 5q-2 2 -3 2h-3q-3 0 -5 -3t-2.5 -7.5t-0.5 -8v-4.5v-17z" />
</svg>
