<?xml version="1.0" standalone="no"?>
<!DOCTYPE svg PUBLIC "-//W3C//DTD SVG 1.1//EN" "http://www.w3.org/Graphics/SVG/1.1/DTD/svg11.dtd" >
<svg xmlns="http://www.w3.org/2000/svg" xmlns:xlink="http://www.w3.org/1999/xlink" version="1.1" viewBox="-10 0 266 256">
   <path fill="currentColor"
d="M71 240v3t0.5 3.5t1.5 3t4 1.5q2 0 3.5 -2.5t2 -5.5t0.5 -6v-4v-103q0 -7 0.5 -17.5t0.5 -20.5t0.5 -17.5l0.5 -7.5l2 -2l29 -3q1 -1 1 -2v-3q0 -2 -0.5 -3t-2.5 -1q-8 0 -17 0.5t-18.5 1t-19 1.5t-17.5 2q-2 1 -2.5 2.5t-0.5 3.5t0.5 4t3.5 2q7 0 12.5 -1.5t11.5 -1.5h2
t2.5 0.5t2.5 1t1 1.5v63l-2 4v82q-1 7 -1.5 11t-0.5 10zM46 217q0 1 0.5 1.5t1.5 0.5v0q3 0 5.5 -3t2.5 -5v-11t0.5 -16t0.5 -19v-19t0.5 -16t0.5 -11v-2v-1q0 -2 -0.5 -5.5t-0.5 -8t-0.5 -8t-0.5 -5.5q1 -2 -1.5 -2.5t-3.5 -0.5h-2h-1q-1 1 -1 4t-0.5 6.5t-0.5 6.5v4v1.5
t0.5 3l1 3l0.5 1.5v6q0 18 -1 35.5t-1 35.5v5v7v8v4zM102 86h-2t-1 2v128l0.5 0.5l0.5 0.5q1 1 2.5 1.5l1.5 0.5q1 0 2 -1.5t2 -4t1 -5.5v-4q0 -8 -1 -15.5t-3 -14.5v-86q0 -2 -1 -2h-2zM120 119q0 13 1 25t1 24q1 14 3.5 21t7.5 11t13 5t19 2h1.5t2.5 0.5t2.5 1l1.5 0.5
q1 0 2.5 -0.5t4 -1.5t4 -1.5t2.5 -0.5q9 -1 14 -3t7 -5.5t2.5 -9t1.5 -15.5q0 -1 0.5 -4.5t0.5 -8t0.5 -8t0.5 -4.5v-3v-5.5v-7.5v-5v-12v-11t-0.5 -10.5t-1.5 -11.5t-4 -9.5t-7.5 -5t-9.5 -2t-10 -1.5l-1 -3v-1t-0.5 -2.5t-0.5 -2.5v-2v-10q0 -3 2 -8q1 -1 1.5 -2l0.5 -1
h32q3 0 3.5 -2t0.5 -3q0 -4 -2.5 -5.5t-5.5 -1.5q-11 0 -21.5 1.5t-21.5 3t-21.5 3t-21.5 1.5q-2 1 -3.5 2.5t-1.5 3.5q0 1 1 1.5t2.5 1t3 0.5h1.5q4 0 7.5 -1t6.5 -1t6 2.5t3 4.5v29h-3t-4 -0.5t-4 -0.5h-3q-2 0 -4 2.5t-3.5 4.5t-3 4.5l-1.5 2.5q0 1 -0.5 1.5t-1.5 0.5v21
l-1 3q0 1 -0.5 4.5t-0.5 4.5zM141 190v-1q2 -1 4.5 -4.5t6 -7.5t6.5 -7t4 -3q3 0 8 2.5t9.5 6t8 7.5t3.5 6q0 3 -2 4l-4 2t-4.5 1h-3.5h-15h-14q-2 0 -4.5 -2t-2.5 -4zM153 135q4 -14 6 -27.5t1 -28.5q1 -2 2 -2h3q3 0 4.5 1t2.5 5q1 7 1.5 14t2 13.5t4 13t6.5 13.5
q1 3 4.5 5t6.5 4t5 4.5t2 7.5v4.5t-0.5 7t-1.5 6.5t-3 3l-3 -1.5t-4 -2.5t-4.5 -3.5t-7.5 -5.5t-7 -5.5t-5 -4.5h-2h-3q-3 0 -7 3.5t-7.5 8l-7 9t-5.5 5.5l-0.5 0.5l-0.5 0.5q-1 0 -2.5 -2.5t-1.5 -3.5v-26l3 -2q1 0 3 -0.5t3 -1.5q4 -2 6.5 -4.5t6.5 -7.5zM131 135v-21
q0 -4 -0.5 -10.5t0.5 -12t4 -9t10 -3.5h2h3q1 4 1 6v5t-0.5 11t-2 16.5t-4.5 15t-9 6.5q-1 0 -3 -0.5t-1 -3.5zM179 77q2 0 5 -0.5t6 0t5.5 1.5t3.5 5q0 1 0.5 3.5t1.5 5t1 4.5v2q0 1 0.5 3t0.5 5v6v5v4v5t-0.5 5.5t-0.5 3.5t-0.5 1.5l-0.5 0.5h-1q-2 0 -4 -3t-4.5 -6
t-4 -6.5t-1.5 -5.5q-1 -2 -2 -4.5t-1.5 -5t-1.5 -4.5l-1 -2q0 -1 -0.5 -4.5t-0.5 -7v-7v-4.5zM164 34q1 0 2.5 1.5t1.5 3.5v26q0 2 -2 2h-3h-2q-3 0 -3 -2v-30q0 -1 2 -1h4zM47 22q0 2 0.5 3.5t1.5 2.5q1 0 3 0.5t4 0.5h3h3q13 0 25 -2.5t25 -3.5q3 1 3.5 -1.5t0.5 -3.5v-2
v-2h-2.5t-3.5 -0.5t-4 -0.5h-2h-1q-6 0 -13 0.5l-14 1t-14 1.5t-13 2q-2 0 -2 1.5v2.5z" />
</svg>
