<?xml version="1.0" standalone="no"?>
<!DOCTYPE svg PUBLIC "-//W3C//DTD SVG 1.1//EN" "http://www.w3.org/Graphics/SVG/1.1/DTD/svg11.dtd" >
<svg xmlns="http://www.w3.org/2000/svg" xmlns:xlink="http://www.w3.org/1999/xlink" version="1.1" viewBox="-10 0 266 256">
   <path fill="currentColor"
d="M169 224q3 5 5.5 9.5t6.5 7.5q2 1 4.5 3t5.5 3.5t5 3l2 1.5h7q0 -3 -1 -3t-3 -2l-1.5 -1.5t-3.5 -3t-3.5 -2.5t-2.5 -2q0 -1 -2 -2.5t-4 -3.5l-3.5 -3.5l-2.5 -2.5v-1v-1l0.5 -0.5t1.5 -0.5q0 -1 2 -2l2 -1q1 -1 3 -1.5t4.5 -1t5 -0.5h3.5q1 -2 2.5 -3.5t1.5 -3.5
q0 -5 -2 -9.5t-7 -4.5v13l-0.5 0.5t-0.5 1.5q-4 2 -9 3t-7 1h-1q-1 0 -2 -1t-1.5 -3t-0.5 -4v-4t2 -2.5t4.5 -1t4.5 -1.5t2 -4h-16q-1 0 -1 -1.5t-0.5 -3.5t-1.5 -3t-3 -1l-1 0.5t-2 0.5v0v1v0v0q0 1 1 3.5t1 3.5v2q0 2 -4.5 3t-10.5 1.5t-10.5 2t-4.5 3.5q7 0 13.5 -1
t12.5 -1q5 0 6 2.5t1 7.5v2v2q-2 0 -6.5 1.5t-9.5 3l-10 3t-6 1.5l-3 1.5t-2 1.5q1 2 2 2h3q4 0 8 -1.5t8 -2.5t8 -2.5t9 -1.5h2zM52 247q3 2 6 2q0 -3 -1 -6.5l-2 -7t-2 -6.5t-1 -7q0 -5 1.5 -9.5t3.5 -8.5t3.5 -8.5t1.5 -9.5q0 -3 -0.5 -7t-5.5 -4v0q0 9 -3 17t-7 15v3v3
v3v2q0 9 1.5 15t4.5 14zM100 219q0 2 0.5 7t2 9.5t4.5 8.5t7 4q0 -4 -1 -7.5l-2 -7l-2 -7t-1 -9.5q0 -4 1 -7.5t2.5 -7t2.5 -7t1 -6.5q0 -6 -1.5 -10.5t-5.5 -7.5q1 7 -0.5 13t-3 11.5t-3 11.5t-1.5 12zM74 218v6.5t1.5 8.5t3 7.5t4.5 3.5q1 0 1.5 -2t0.5 -3q0 -4 -2 -7.5
t-2 -7.5q0 -1 1 -1q0 -1 0.5 -4t1 -5.5t0.5 -5.5t1 -4q1 0 1.5 -1t0.5 -2.5t0.5 -2.5l0.5 -1l0.5 -1.5l1 -3l1 -3t0.5 -2.5t-1 -3.5t-2.5 -5.5t-3.5 -5t-4 -2q0 4 1 8t1 8q0 5 -1.5 8.5l-3 7t-2.5 7.5t-1 8zM175 162q0 7 3 12t7.5 8t10.5 4.5t12 1.5l0.5 -0.5l0.5 -0.5
l0.5 -0.5l0.5 -0.5l-0.5 -1.5l-0.5 -1.5q-4 -1 -8.5 -2t-8.5 -2.5t-6.5 -4.5t-2.5 -9v-2t1 -3l20 -3l-3 -4h-52q-6 0 -8.5 -4t-3.5 -9v-2v-4v-4v-3q0 -13 1.5 -27t1.5 -28q-3 0 -4.5 1t-1.5 3q-4 15 -4.5 30t-0.5 30q0 22 23 23q1 0 2 1.5t1 2.5t-1 2.5t-2 2.5l-2.5 2.5
l-3.5 3.5l-3.5 3.5l-2.5 2.5q-3 1 -6.5 2t-3.5 5q14 0 20.5 -7t7.5 -20h16zM46 162q0 1 1.5 1h2.5q4 0 7.5 0.5t7.5 0l8 -1t7 -2.5h37l2 -3l-2 -2h-3h-5h-5h-5q-13 0 -25.5 0.5t-25.5 3.5q-1 0 -1.5 1t-0.5 2zM62 146v1l1 0.5t2 0.5h1v0q2 0 7.5 -0.5t11.5 -1.5t11 -1.5
t7 -1.5v0q0 -2 -1.5 -3t-4 -1h-4.5h-2q-7 0 -14 2t-14 2q0 1 -0.5 1t-0.5 1v1zM152 134q0 4 2.5 6t5.5 3t6 1.5t6 0.5q4 0 8.5 -0.5t9 -2t7.5 -4t4 -7.5q0 -1 0.5 -4.5l1 -7l1 -7t0.5 -4.5v-7q0 -6 -0.5 -11t-3 -9.5t-6.5 -6.5t-10 -2q-12 0 -18.5 0.5t-9.5 4t-4 10t-1 17.5
v1v0v6t0.5 9t0.5 9v5zM158 128v-3q0 -3 2 -3q8 -1 17 -1.5t17 -0.5q0 7 -1 10.5t-3.5 5.5t-7 2.5t-10.5 0.5h-4h-4q-2 -2 -4 -5t-2 -6zM41 102q0 14 8 21t21 7q7 0 12.5 -0.5t12.5 -1.5q2 0 2 -2v-3h-35q-4 0 -6.5 -2.5t-4 -6.5t-2 -8t-0.5 -6q0 -9 3 -14t7.5 -8t10.5 -4.5
t12.5 -2.5l13 -2t12.5 -3q2 -2 3.5 -4.5t2.5 -5t2 -5.5t3 -5v-17l-1 -1.5l-1 -1.5q-3 -5 -7.5 -8t-9.5 -4.5t-10.5 -1.5h-10.5h-13l-1.5 0.5t-1.5 1.5v0v0v1q0 1 1 2l1 1h35q4 0 6.5 3t4 8t1.5 9.5v6.5q0 8 -5 12t-13 6t-17 3t-17 4.5t-13.5 11t-5.5 20.5zM158 101
q7 -1 13 -2.5t13 -1.5h5q3 0 5 1t2.5 4t0.5 5v1t-0.5 2t-0.5 2t-1 1h-37v-12zM68 101q0 2 1 4.5t3 4.5h10h5.5t7.5 -0.5t7 -2t3 -5.5h-29q0 -6 4 -8t9.5 -3t9.5 -2.5t4 -4.5q-3 0 -9 0.5t-12 2t-10 5t-4 9.5zM158 88q0 -4 3 -6t6.5 -3t7.5 -1h7h8q3 1 3.5 3.5t0.5 5.5v2.5
v2.5h-5.5t-8 0.5t-8 0.5h-5.5h-3q-2 0 -4 -1t-2 -4zM138 18v35q0 3 2 4t4 1h3q6 0 13.5 -0.5t15 -0.5t13 -0.5l5.5 -0.5l1 -1l-3 -3l-3 -0.5t-7 -0.5h-8.5h-7.5q-1 0 -4 -0.5t-5 -0.5q-3 0 -6 0.5t-4 0.5q-2 -1 -2.5 -3t-0.5 -4v-1v-2t0.5 -2t1.5 -1l41 -3l0.5 -0.5
l0.5 -0.5q0 -4 -4 -4h-38l-2 -1q0 -1 0.5 -2.5t0.5 -3.5t-0.5 -3.5t-0.5 -2.5q0 -2 -0.5 -3.5t-2.5 -1.5h-0.5h-0.5zM62 52l1 1l2.5 0.5t3.5 0.5h8t9.5 -0.5t7.5 -2.5t3 -7q0 -4 -1 -8.5t-7 -6.5h-4h-4h-2h-3h-2h-2t-3.5 0.5l-5 1t-4.5 1l-2 0.5l-1 2l1 1h29q3 0 4 2t1 4
q0 4 -3.5 5t-8.5 2t-9.5 1.5t-7.5 2.5z" />
</svg>
