<?xml version="1.0" standalone="no"?>
<!DOCTYPE svg PUBLIC "-//W3C//DTD SVG 1.1//EN" "http://www.w3.org/Graphics/SVG/1.1/DTD/svg11.dtd" >
<svg xmlns="http://www.w3.org/2000/svg" xmlns:xlink="http://www.w3.org/1999/xlink" version="1.1" viewBox="-10 0 266 256">
   <path fill="currentColor"
d="M173 251q0 4 3 4q2 0 3.5 -1.5t3 -3.5t2 -4t0.5 -4v-3v-5v-4v-3v-9q0 -5 -0.5 -11t-1.5 -11.5t-3 -8.5q-3 -4 -9.5 -5.5t-12 -2.5t-10 -2t-4.5 -5q0 -5 3 -7t7.5 -3t10 -1.5t10 -2t7.5 -5.5t3 -11q0 -5 -2 -9t-7 -5q-3 1 -10 0.5t-13.5 0t-11.5 2t-5 5.5h12q2 0 3 1.5
t1.5 3.5t0.5 4v3q0 5 -2.5 6.5l-5 3t-5 4.5t-2.5 9v3.5t1 5.5t2 5t3 2h23q1 0 2 1t2 2.5t1.5 3.5l0.5 2v3t0.5 4t0.5 3.5v2.5v17v18l-0.5 2.5t-0.5 3.5v1zM94 187v4v6v6v4v8.5t0.5 12t0.5 12.5v8h1h1q2 -1 4.5 -3t2.5 -5q0 -12 -1.5 -24.5t-1.5 -24.5v-4v-4q3 -4 6 -5.5
t6 -2.5t6 -2.5t5 -4t3.5 -6.5t1.5 -12v-6v-8t-1.5 -7t-5.5 -3q-2 0 -2.5 3.5t0 8t0.5 10t-0.5 10.5t-3 8t-8.5 3h-3q-2 0 -2 -1v-38q0 -5 2 -8t5 -5t7 -3.5t7 -3.5t5.5 -5t2.5 -8q0 -6 -3.5 -9.5t-8 -5t-10 -1.5h-10.5q-1 0 -3.5 -0.5t-5 0t-5 1.5t-2.5 3q0 3 2 3.5t5 0.5
q2 0 4 0.5t2 3.5q0 4 -2.5 5.5t-5.5 3t-5.5 3t-2.5 3.5v0l3 2q5 0 8 -1.5t5 -3.5t3.5 -5t2.5 -7l0.5 -1.5l0.5 -1.5h17l0.5 0.5t1.5 0.5v5q0 5 -2.5 8.5t-6 5.5t-8 3.5t-8.5 2.5q-9 1 -14.5 2t-9 4t-5 8.5t-1.5 16.5v4v4q1 6 6 7.5t10 2t8.5 2.5t2.5 8q0 3 -2.5 4l-5 2l-5 2
t-4.5 3q-8 12 -11.5 26t-3.5 28q0 2 2 2h3h3t3 -1q0 -2 0.5 -6.5l1 -9l1 -9t0.5 -6.5q0 -3 1 -7t3 -7q1 -1 3 -2.5t3 -2.5l2.5 -2.5l1.5 -1.5h3zM77 149q0 -2 1.5 -3t3.5 -1.5t4 -0.5h3t2.5 0.5t2.5 0.5l1 1v11q0 2 -2 2h-2q-2 0 -4.5 -1t-4.5 -2t-3.5 -3t-1.5 -4zM161 142
q0 -3 2 -4t4 -1h3t3 2v1.5t0.5 3.5t0.5 3.5v1.5q-1 2 -3 3.5t-4 1.5q-4 0 -5 -4t-1 -8zM78 130v-3q3 -2 6 -3t6 -1t5 1.5t2 5.5l-1 3.5t-2 3.5h-3h-3q-4 0 -7 -1t-3 -6zM184 64q0 14 -1 27.5t-1 27.5q4 0 6 -2t3 -6t1.5 -8t0.5 -7v-3v-7v-8v-6v-5v-7v-8v-5q0 -4 -2.5 -7
t-6.5 -5t-8 -3t-8 -1q-1 0 -3.5 -0.5t-6 -0.5t-6.5 -0.5t-4 -0.5t-4 -0.5t-5 -0.5h-2v-17l-2.5 -2.5t-4.5 -3.5v0v0h-1q-1 0 -1.5 0.5l-0.5 0.5q0 1 -0.5 3t-0.5 4.5v5v3.5q-1 0 -0.5 2l0.5 2q-1 3 -4.5 4t-9 1t-12 0.5t-12 1t-10 1.5t-6.5 4q-3 15 -5 31t-2 31v8t1 8h1h2
t4 -2t3 -4v-41q0 -1 1 -2l1 -1h1h1l2 1t2 2h1q3 0 7.5 -1.5t9 -4t8 -5t3.5 -4.5q0 -1 0.5 -2.5t0.5 -3.5t0.5 -3.5l0.5 -1.5q0 -1 1 -2l2 -2t2 -1.5l1 -0.5h18l5 4v17q0 1 3.5 2.5t7.5 3t8 2l4 0.5h3.5t3 -0.5t2.5 -1.5t1 -3q0 -4 -4.5 -5t-10 -1.5t-10 -1.5t-4.5 -6
q0 -3 3 -6t6 -3h2q2 0 4.5 0.5t5.5 1t5.5 1l2.5 0.5q3 1 4.5 3.5t2 6t0.5 7.5v6zM139 100q0 7 2.5 12.5t10.5 5.5q6 0 10.5 -1t7 -3.5t3.5 -6t1 -9.5v-7q-2 -4 -6.5 -5t-8.5 -1t-7.5 1t-6.5 2.5t-4.5 4t-1.5 7.5zM145 103q0 -5 4 -8.5t8 -3.5q5 0 6.5 4t1.5 7v5t-3 3h-6
q-5 0 -8 -1t-3 -6zM81 59v-5q0 -4 1.5 -7t4.5 -4.5t6.5 -2t7.5 -0.5t5.5 0.5t1.5 3.5q0 4 -3 7t-7 5t-8 3.5t-6 1.5h-1v0l-0.5 -0.5z" />
</svg>
