<?xml version="1.0" standalone="no"?>
<!DOCTYPE svg PUBLIC "-//W3C//DTD SVG 1.1//EN" "http://www.w3.org/Graphics/SVG/1.1/DTD/svg11.dtd" >
<svg xmlns="http://www.w3.org/2000/svg" xmlns:xlink="http://www.w3.org/1999/xlink" version="1.1" viewBox="-10 0 266 256">
   <path fill="currentColor"
d="M78 247q0 2 1.5 3t3.5 1q4 0 8 -5.5t8 -13.5t8.5 -17.5t7.5 -18t5.5 -13.5t3.5 -5q2 0 5 5t7 13l8.5 17t8.5 16.5t7.5 13t5.5 5.5q7 0 7 -6v-3t-2 -2q-9 -11 -16.5 -22.5t-13.5 -24.5q-3 -5 -4.5 -10.5t-4.5 -10.5l-1.5 -2l-1.5 -2q-2 -5 -1.5 -12t0.5 -13
q0 -1 -0.5 -3.5t-1 -4.5t-1 -4.5t-0.5 -4.5v0q1 -2 3 -2.5t3 -0.5q3 0 7 3t8.5 6.5t8.5 7.5t5 6q2 2 3 6t3 8.5t4.5 7.5t5.5 3q2 0 3 -0.5t2 -2.5q-1 -7 -4.5 -12.5t-7.5 -10.5t-9.5 -9.5t-10.5 -9.5q-2 -1 -5.5 -3t-7.5 -4t-7 -4.5t-3 -3.5q0 -10 2 -15t4.5 -7t5.5 -2.5
t5.5 -1t4 -1.5t1.5 -5q0 -2 -2.5 -3t-4.5 -1h-1l-17 9q-2 0 -2.5 2.5t-1 4.5l-1 4t-0.5 3v2.5t-0.5 3.5l-1 4t-1.5 3q-1 2 -3.5 3.5t-5.5 3t-5.5 3t-4.5 3.5t-7 9t-10 14.5t-9 15.5t-4 11q0 2 1.5 4t3.5 1q2 0 4.5 -4.5t6 -11t7 -13.5t8 -13.5t8.5 -10.5t8 -4q2 0 3.5 0.5
t1.5 1.5v3q0 1 0.5 3t0.5 4v2v3t-0.5 3.5t-0.5 2.5v2l-0.5 2.5t-0.5 3.5v3v7v6v3q0 1 -1 2.5t-2 3.5t-1.5 3.5t-1.5 2.5q-1 2 -1 5.5t-1 5.5q-4 7 -7.5 14t-7 13.5t-7.5 13t-9 12.5l-0.5 1zM86 78q0 2 1 3t3 1q1 0 2.5 -0.5t1.5 -2.5v-27q6 0 8.5 1.5t5 3.5t4 4t4.5 2
q2 0 2 -1v-3q0 -4 -1.5 -6t-4 -3.5t-5.5 -2.5t-6 -3q-1 0 -2 -1l-2.5 -2.5l-2.5 -2.5l-1 -1v-14q0 -1 -2.5 -2.5t-3.5 -1.5h-1v0l-1.5 1.5t-0.5 1.5l1 1t1 2v5q0 7 -4.5 11.5t-10 8t-9.5 7t-4 8.5q0 2 1 2.5t3 0.5q4 0 6 -2.5t4 -5.5t5 -6t7 -3l1.5 0.5t1.5 1.5v4.5v5.5
q0 4 -0.5 7.5t-0.5 7.5zM156 43h1.5t1.5 1v30q3 0 5 -2q2 -6 2 -12.5v-12.5q0 -1 1 -1h1q4 0 7 1.5t5.5 4t5.5 4t7 1.5q2 0 3 -0.5t2 -2.5q-2 -3 -7.5 -6t-11.5 -5.5t-10.5 -5t-4.5 -4.5v-15q0 -1 -1.5 -2.5l-2.5 -2.5q-1 0 -1.5 0.5l-1.5 1.5t-1 4v5.5v5v3.5q-1 1 -5 4.5
t-9 7.5t-9 8t-4 6v0.5v0.5q1 0 2 1t1 2h1q4 0 6.5 -3.5l5 -7t5 -6.5t6.5 -3z" />
</svg>
