<?xml version="1.0" standalone="no"?>
<!DOCTYPE svg PUBLIC "-//W3C//DTD SVG 1.1//EN" "http://www.w3.org/Graphics/SVG/1.1/DTD/svg11.dtd" >
<svg xmlns="http://www.w3.org/2000/svg" xmlns:xlink="http://www.w3.org/1999/xlink" version="1.1" viewBox="-10 0 266 256">
   <path fill="currentColor"
d="M80 222q0 2 0.5 6.5t1 9.5t2 9t4.5 4t5 -3v-5q0 -6 -1.5 -11t-1.5 -11q0 -8 4 -13.5t9.5 -11t10.5 -11t7 -12.5q1 -4 2 -7t1 -5.5v-5.5v-7v-6.5t-1 -10t-2.5 -11.5t-3.5 -10.5t-5 -8t-7 -3.5h-18q-1 0 -3 1.5t-3.5 3l-3 3l-2.5 2.5q-6 4 -9 8t-5 8t-2 9.5v13.5
q0 13 1.5 23.5t5.5 23.5q0 1 1 2.5t3 1.5q1 0 3 -1t2 -3v-2l-1 -2t-1.5 -4t-1 -3.5t-0.5 -2.5q-3 -10 -4 -18.5t-1 -17.5q6 0 10 3.5t7.5 8t5.5 8.5t3 4q3 0 4 -2.5t1 -4.5q0 -6 -4.5 -10t-9.5 -7.5t-9.5 -6.5t-4.5 -6q0 -4 1.5 -7t4.5 -5q6 2 12.5 6.5t9.5 11.5q1 2 1 3
v1.5t1 1t3 2.5h1q2 0 2.5 -2t0.5 -3q0 -2 -1 -5.5t-3.5 -6.5t-5 -5.5l-3.5 -3.5q-2 -1 -4 -1.5t-3.5 -1t-2.5 -1.5t-1 -4q0 -2 1.5 -3t4 -1.5t4.5 -1t3 -0.5q8 0 12 4.5t6 11t2.5 13.5t0.5 13q0 12 -3.5 22.5t-11.5 20.5q-4 4 -8 7t-6.5 5.5t-4.5 7t-2 12.5zM158 224
q1 0 3.5 2.5l5 5t4.5 5t3 3.5q2 2 3 4t2 3.5t2.5 2.5t4.5 1t4.5 -0.5t1.5 -3.5q0 -5 -5.5 -10t-12 -10t-11.5 -12t-5 -16q0 -5 5 -7t11 -4t11 -4.5t5 -8.5l2 -29q0 -7 -4 -10.5t-10 -3.5t-12.5 1t-12.5 1q-3 0 -5 -1t-2 -5v-2q0 -2 0.5 -5l0.5 -3l3 -2h4h7h6h5h4t6 -0.5
t5 -0.5h2l1 -1v-18q0 -1 -2 -2l-2 -1h-17h-11h-12t-11.5 1t-9.5 3v1q0 3 4 3q10 0 20 -1.5t20 -1.5h11q2 1 2.5 2t0.5 2q0 2 -1 4t-2 2l-37 3l-1.5 1t-2.5 2l-2 1v22q0 1 2.5 2t3.5 2q1 0 5 -0.5t8 -0.5t7.5 0.5t5.5 0.5h3h4t3.5 0.5l1.5 0.5l3 3v5q0 9 -1.5 17t-8.5 14
q-3 1 -6.5 2t-6.5 2t-6 3t-5 4v4v4q0 4 1 7t2 5.5t2.5 5t2.5 6.5zM139 160q0 3 1.5 4t3.5 1h1.5h0.5l2.5 -0.5l2.5 -0.5q1 0 4 -0.5t6 -0.5q4 0 6.5 0.5t4.5 0.5t2 -1v-3v-1v-1q-5 -1 -9.5 -1h-9.5h-5h-6q-1 0 -3 1t-2 2zM89 86q0 1 0.5 1.5t1.5 0.5q2 0 4 -3t2 -4v-31
q0 -1 1 -1.5l1 -0.5h0.5h0.5q2 0 4.5 3.5t6 7.5t7 7.5t6.5 3.5t3 -4q0 -3 -2.5 -6.5t-6.5 -6.5t-7.5 -6t-5.5 -4t-4 -3.5l-2 -2.5v-17q0 -3 -2 -3h-3q-5 0 -5 5q0 2 0.5 4t0.5 4q0 6 -3.5 11t-8 9t-9.5 8t-9 9q0 1 -0.5 2.5l-0.5 1.5v1q0 4 3 4l1 -0.5l1 -0.5q2 -1 4.5 -4.5
t5.5 -7t6.5 -6t6.5 -2.5h1.5t1.5 1v3v2q0 5 -1 9t-1 9q0 1 0.5 3.5t0.5 3.5zM161 52v22v1.5v3t1 2.5t2 1q2 0 3.5 -1t1.5 -3v-33l0.5 -0.5l0.5 -0.5l1.5 0.5l1.5 0.5q1 1 2.5 3t3.5 4t3.5 4t2.5 3t1.5 3.5t1.5 4.5l2 4t3 2q3 0 3.5 -2.5t0.5 -4.5q0 -6 -4 -11t-9 -9.5
t-9.5 -7.5t-4.5 -5v-4q0 -4 -0.5 -7t-1 -5.5t-1.5 -2.5q-2 0 -3 1.5t-1.5 3.5t-0.5 4v3q0 2 -0.5 6t-0.5 5q-2 0 -4.5 2.5l-6 6t-7 8t-6.5 8.5t-4.5 7.5t-1.5 4.5v3q4 -1 7.5 -4t6 -7t5 -8.5t5.5 -6.5h2h2t2 1z" />
</svg>
