<?xml version="1.0" standalone="no"?>
<!DOCTYPE svg PUBLIC "-//W3C//DTD SVG 1.1//EN" "http://www.w3.org/Graphics/SVG/1.1/DTD/svg11.dtd" >
<svg xmlns="http://www.w3.org/2000/svg" xmlns:xlink="http://www.w3.org/1999/xlink" version="1.1" viewBox="-10 0 266 256">
   <path fill="currentColor"
d="M163 170q0 4 0.5 12t1.5 16.5t3.5 18t6 16.5t8.5 12t12 5v-3q-1 -3 -2.5 -5.5t-2.5 -4t-2 -3.5t-2 -5q-5 -11 -8.5 -23t-3.5 -24v-3.5v-3.5q1 -1 1.5 -1h2.5q3 0 5 1.5t4 3.5t4.5 4t6.5 2q0 -5 -3.5 -9.5t-7.5 -8.5t-9 -7t-7 -6q0 -2 -0.5 -6t-2 -8t-3.5 -7t-7 -3
q0 3 1.5 6.5t1.5 5.5q0 6 -2.5 12t-6.5 11.5t-8.5 10.5t-8.5 8v0v1v0l0.5 0.5l1.5 1.5q4 -1 7 -4t5.5 -6t5.5 -5t8 -2zM60 239q-1 3 0.5 3.5t2.5 0.5q4 0 6 -2.5t4 -4.5q7 -6 11 -13.5t6 -16t3 -17t3 -17.5h2q3 0 5 1t4.5 2.5t5 2.5t6.5 1q0 -4 -3 -7.5t-7.5 -7t-8.5 -6.5
t-6 -5v-5.5t-0.5 -7t-2 -6t-5.5 -2.5v22l-1 1.5l-1 1.5q-2 3 -6.5 5.5t-8 6l-6.5 6.5t-3 4q0 2 1 2.5t2 0.5q4 0 6.5 -1.5t5 -4t5 -4t5.5 -1.5q0 5 -0.5 12t-1.5 13.5t-3 13t-5 10.5q-1 0 -2.5 2t-3.5 4l-4 4t-2 3q-1 1 -2 3.5zM128 107l-5 26q0 2 -1.5 3.5l-3 3t-2.5 3
t-1 3.5q7 0 11 -3.5t6 -9.5t3 -12.5t2 -12.5t3 -9.5t5 -3.5q6 0 9.5 6t7.5 13t9 13t14 6q0 -3 -3.5 -10t-8 -14t-9.5 -13t-9 -9q-2 -2 -3 -2t-2 0.5t-3 0.5t-5 -1q-2 0 -3 -1.5t-2 -4t-1 -4.5t-1 -3l-1 -1.5t-2.5 -2.5t-2.5 -2.5l-1 -1.5q-1 0 -1.5 -1.5l-0.5 -1.5
q0 -1 0.5 -3t0.5 -3h9.5t13.5 0.5t13 0.5h10h3t4.5 -0.5t4 -1.5t1.5 -3v-2t-2 -1q-1 -1 -3.5 -1t-5.5 -0.5t-5.5 -0.5h-3.5h-6h-8.5h-8.5h-6q0 -1 0.5 -5t0.5 -8.5t1 -8t3 -3.5h37q1 0 1.5 -1t0.5 -2v-1q0 -1 -3 -2t-7.5 -2t-8.5 -2t-5 -1q-5 0 -12.5 0.5t-11.5 2.5h-42
q-2 0 -4.5 1t-2.5 2t0.5 1.5l0.5 0.5q2 1 3.5 2t2.5 1h35q2 0 2 2v2q0 2 -1.5 4t-3.5 2h-27q-1 0 -3.5 -1.5t-3.5 -1.5t-4 -1l-3 -1q-1 0 -4.5 -3t-7.5 -6t-7 -5t-4 -2q-2 0 -2.5 1t-0.5 2q0 6 4.5 11t10.5 7.5t13 4t12 2.5h5h9h9h5q2 0 2.5 2t0.5 3l-0.5 1t-0.5 2l-65 3
l-1.5 1.5t-1.5 2.5t0.5 2t2 1.5t3 0.5h2.5h1q1 0 5.5 -0.5t9.5 -1t9.5 -1t6.5 -0.5h1h2q3 0 5 0.5t5 1.5v1q0 4 -3.5 6.5t-8.5 5t-11 4.5t-11.5 4.5t-9 5t-3.5 4.5q9 0 16 -3t13.5 -6.5t12.5 -7t11 -3.5q3 0 4.5 1.5t1.5 4.5v1q-3 3 -6.5 6t-7.5 5q-2 1 -6.5 2.5l-9 3
t-8 3.5t-3.5 5q6 0 11.5 -1.5t10 -3.5t9.5 -4.5t10 -4.5h1v0q3 0 4.5 1t2.5 2l0.5 0.5l0.5 0.5q0 4 -4.5 7t-11 6.5t-13.5 6.5t-13.5 6.5t-11 6t-4.5 5.5q7 0 12 -1.5t10 -3.5t10 -4.5t10 -6.5q3 -1 4 -2l1.5 -1.5l1 -1t2.5 -0.5q1 0 2 0.5z" />
</svg>
