<?xml version="1.0" standalone="no"?>
<!DOCTYPE svg PUBLIC "-//W3C//DTD SVG 1.1//EN" "http://www.w3.org/Graphics/SVG/1.1/DTD/svg11.dtd" >
<svg xmlns="http://www.w3.org/2000/svg" xmlns:xlink="http://www.w3.org/1999/xlink" version="1.1" viewBox="-10 0 266 256">
   <path fill="currentColor"
d="M92 246l0.5 0.5l0.5 0.5q1 1 2.5 1.5l1.5 0.5l6 -6v-50l1.5 -0.5l3 -1t3 -0.5h2.5t3.5 -0.5t4.5 -0.5t4 -0.5t3 -0.5q3 -1 3.5 -2t0.5 -3q0 -3 -0.5 -3.5t-3.5 -0.5q-5 0 -9.5 0.5t-9.5 0.5h-6q-2 0 -1.5 -2.5t0.5 -3.5v-4t1 -4q1 0 4 -0.5t5.5 -0.5t5.5 -0.5t4 -0.5
q3 -1 5 -1.5t2 -3.5l-0.5 -1.5t-1.5 -1.5h-23v-6.5t0.5 -2.5t2 -1.5t5.5 -4.5l2 -1.5t4 -3.5l3.5 -3.5t1.5 -2.5h2q2 0 4 0.5t3.5 1.5t3.5 2t4 1q1 0 3 -0.5t2 -2.5v0q0 -1 -0.5 -2t-0.5 -2q-2 0 -5 -2t-6.5 -3.5t-6.5 -3t-4 -2.5q-1 0 -4 -1l-6 -2t-5.5 -2.5t-3.5 -2.5
q0 -1 0.5 -4t0.5 -4q5 0 9 1t8 2.5t7.5 2t5.5 0.5t4 -1.5t2 -3.5t-1.5 -3l-3 -2t-3.5 -1.5t-4 -1.5l-2.5 -0.5t-5.5 -1t-5.5 -1l-2.5 -0.5q-4 -1 -5.5 -2.5t-2 -3l-1 -3t-2.5 -1.5t-3 1t-2 2.5t-1.5 3.5t-2.5 3.5t-7.5 3t-11 3.5t-10 4.5t-3.5 4.5q0 3 2.5 4t4.5 1h0.5h0.5
q2 -1 5 -3t5.5 -4t5.5 -3t6 -1q4 0 4.5 1t0.5 5t-3.5 7t-9 5.5t-12.5 4t-12.5 3.5t-9 4.5t-3.5 5.5t1.5 3.5t4.5 0.5t6 -1t5.5 -2.5t5.5 -3t6 -1.5t6.5 2t6.5 4.5t5 6t2 6.5v3t-1 3l-1 2h-27q-1 0 -1.5 2t-0.5 3q0 4 3 5t7 1t8 -2t9 -2q2 0 3.5 1t1.5 3v4v4v2v2
q-1 1 -3.5 1.5t-3.5 0.5t-5 0.5t-8.5 0.5h-9h-5.5q-1 1 -1.5 2t-0.5 2q0 2 2.5 4t4.5 2q7 -2 11 -2.5t10 -0.5h3h3q2 0 2 2v3q0 7 -1 14t-1 15v4v5v5.5v3.5zM187 199q1 3 1 9.5t0.5 13.5t2 12.5t4.5 5.5t4 -1t1 -4q0 -7 -1.5 -12.5t-1.5 -11.5v-112q0 -3 -3.5 -4.5t-8 -2.5
t-8.5 -1t-5 -1q-1 0 -2.5 -1l-3 -2l-3 -2l-1.5 -1l-1.5 -0.5t-2.5 -0.5v0q-2 0 -3 1.5t-1 2.5t1.5 2t2.5 2.5t2.5 3t1.5 2.5v3q0 11 -3 21.5t-4 20.5q-1 15 -0.5 29t-0.5 28q-2 8 -3 16t-1 15v6q1 2 2 2h2q2 0 4 -0.5t2 -2.5l8 -110v-8t1 -7.5t3 -5.5t7 -2q4 0 6 1.5t3 4.5
q0 1 0.5 3.5t0.5 4.5v5v3v4.5v5.5t-0.5 6t-1.5 6v53zM87 128q0 -2 1.5 -4t3.5 -3t4.5 -1.5t4.5 -0.5t4 1l4 2t3.5 2.5t1.5 3.5t-1.5 4t-4 4t-5 2.5t-4.5 0.5h-1h-1l-10 -10v-0.5v-0.5zM97 46v3.5v4.5v5.5v3.5v2.5t0.5 4t0.5 4t1 2.5h1h2t1 -2q2 -2 2.5 -5.5t0.5 -7
t-0.5 -6.5t-0.5 -5l0.5 -1.5t1.5 -1.5v0q4 0 7 1t6 2.5t6 2.5l6 2q2 0 3.5 -1.5t1.5 -3.5q0 -1 -0.5 -2t-1.5 -1l-7 -3.5t-10.5 -4.5t-9.5 -4t-4 -3v-20h-2.5t-2.5 1q-1 0 -1.5 0.5l-0.5 0.5v20q0 1 -6 3.5t-13 5.5t-12.5 7.5t-5.5 8.5q0 2 2.5 2.5t3.5 0.5q4 0 7.5 -2.5
t6 -5t5.5 -5t7 -4.5l2.5 0.5zM170 71l1 0.5t1 1.5h1v0q2 -1 4 -3l2 -2v-24q6 0 9 1.5t5.5 4t4.5 4t6 1.5q1 0 2.5 -0.5t1.5 -2.5q1 -5 -2.5 -8t-8 -5.5t-9.5 -4.5t-8 -3v-3.5t-0.5 -4.5t-0.5 -4v-3q-1 -3 -1.5 -3.5t-2.5 -0.5q-1 0 -3 0.5t-2 1.5v21q-2 1 -7 3t-10 4.5
t-8 5.5t-3 5t1 2.5t3 0.5q3 0 5.5 -1.5t4.5 -4t4.5 -4t5.5 -1.5t3.5 1t0.5 4v21z" />
</svg>
