<?xml version="1.0" standalone="no"?>
<!DOCTYPE svg PUBLIC "-//W3C//DTD SVG 1.1//EN" "http://www.w3.org/Graphics/SVG/1.1/DTD/svg11.dtd" >
<svg xmlns="http://www.w3.org/2000/svg" xmlns:xlink="http://www.w3.org/1999/xlink" version="1.1" viewBox="-10 0 266 256">
   <path fill="currentColor"
d="M154 244q0 2 1 2.5t3 0.5q3 0 7.5 -4t9.5 -10.5t10 -14.5t9 -15.5t7 -13.5t3 -9q0 -6 -3.5 -12t-8.5 -11l-10 -10l-9 -9v-2v-2q0 -6 2.5 -10.5t6 -8.5t6 -8t2.5 -9q-5 0 -9.5 4t-8 10t-5.5 12t-2 11q0 3 1 4.5t2 3.5t2.5 4t1.5 4q0 4 -5.5 11t-12 14.5t-11.5 14.5t-5 11
v2t1 2q2 0 5 -3t7 -8t8 -10.5t7.5 -10.5t7.5 -9t7 -4q6 4 10.5 9t4.5 13q0 4 -5.5 12.5t-12 17.5t-13.5 17.5t-11 12.5v0.5v0.5zM55 230q5 4 12 5.5t13 1.5t13 -0.5t13 -2t10.5 -5t6.5 -10.5v-12v-7v-7.5t-0.5 -7t-0.5 -7.5q-7 -9 -19 -9q-7 0 -14 0.5t-14 0.5q-9 1 -14 3
t-7 5.5t-2.5 9.5t-0.5 15v4v5v4v2q0 1 0.5 2.5l1 3t1.5 3t1 2.5v1zM59 210v-3.5t2 -2.5h3t4.5 -0.5t5 -0.5h3.5h3q1 0 3 -0.5t2 1.5v23h-16q-2 0 -4 -2t-3.5 -5t-2 -6t-0.5 -4zM93 226v-22q0 -1 2 -1.5t4.5 -1t5.5 -0.5h4q3 0 5.5 1t2.5 4q0 9 -4 15.5t-13 6.5q-1 0 -3 -0.5
l-2 -0.5zM59 189q0 -4 2 -6.5t5 -4t6.5 -2t6.5 -0.5q2 0 3.5 1.5t2 3t0.5 3.5v5v3v3q-4 1 -7.5 1h-7.5h-8q-2 -1 -2.5 -3t-0.5 -4zM91 186q0 -3 1 -5t3 -5h2.5h3.5q6 0 9.5 2t3.5 9q0 3 -1.5 4.5t-4 2l-5 1t-5.5 0.5q-4 0 -5.5 -2.5t-1.5 -6.5zM58 130q0 1 0.5 5t1.5 7.5
t3.5 6t5.5 2.5h37q4 0 6.5 -1.5t4 -5t2 -7t0.5 -6.5q0 -4 -2.5 -6.5t-6 -4t-7.5 -1.5h-8t-10 -0.5t-12 0t-10.5 3t-4.5 8.5zM67 136q0 -5 2.5 -7t6.5 -3t9 -1h8h4.5h4.5q5 1 6 4.5t1 7.5t-3 5.5t-7.5 2.5t-8.5 0.5t-7 -0.5h-9q-5 0 -6 -2.5t-1 -6.5zM55 97q0 1 1.5 2t2.5 1
h18h12h10.5t11 -0.5t12.5 -0.5q2 -1 2 -3t-1 -2.5t-4 -0.5h-61q-1 0 -2.5 1t-1.5 3zM170 72v17q0 3 0.5 3.5t2.5 0.5q1 0 2.5 -0.5t1.5 -1.5v-15q0 -1 1 -1t1 -1l8 -2t7.5 -2.5t6 -4t3.5 -7.5v-2v-5t0.5 -6t0.5 -5v-0.5v-1.5q0 -2 -1 -4.5t-4 -2.5h-1.5t-1.5 1q1 7 0.5 14.5
t-3.5 13.5q-1 2 -3 3t-3.5 0.5t-3.5 -1t-4 -0.5q0 -11 0.5 -22t0.5 -22q0 -2 -0.5 -2.5t-4.5 -3.5h-0.5h-0.5v0l-3 7v41l-1 1.5l-1 1.5l-1.5 1.5l-0.5 0.5h-11q-3 0 -4 -5t-1.5 -11t-1 -11.5t-3.5 -5.5h-1l-1.5 1.5l-0.5 0.5v4.5v4.5v7v5.5t0.5 5.5t1.5 7q1 2 4.5 3t7 1.5
t7 0t5.5 -0.5zM86 73v13h2t3 -1q3 -1 2.5 -3l-1 -4t0.5 -4t6 -5q8 -2 12 -4.5t6.5 -6t2.5 -9v-14.5q0 -3 -0.5 -4.5t-4.5 -1.5h-1.5h-1.5q0 8 -1.5 16t-4.5 15q-2 2 -3.5 2h-3.5h-1h-2t-2 -0.5t-1 -1.5v-40l-0.5 -0.5t-1.5 -0.5q0 -1 -2.5 -1h-2.5v44q0 1 -3 1h-4
q-5 0 -10 -3q-2 -6 -2.5 -14t-0.5 -14l-1 -0.5l-1 -0.5q-1 0 -2 -1l-1 -1q-2 1 -2.5 2t-0.5 3v1q0 3 0.5 6.5l1 7t1 6.5l0.5 3q1 4 3.5 6.5t6 4t7.5 2.5z" />
</svg>
