<?xml version="1.0" standalone="no"?>
<!DOCTYPE svg PUBLIC "-//W3C//DTD SVG 1.1//EN" "http://www.w3.org/Graphics/SVG/1.1/DTD/svg11.dtd" >
<svg xmlns="http://www.w3.org/2000/svg" xmlns:xlink="http://www.w3.org/1999/xlink" version="1.1" viewBox="-10 0 266 256">
   <path fill="currentColor"
d="M142 245q0 3 0.5 4.5t3.5 1.5t3.5 -1t0.5 -6v-39l-3 -4l-3.5 -0.5t-5.5 -0.5h-4h-4.5t-5 0.5t-4.5 1.5q-3 2 -5 7.5t-3.5 12t-2 13t-0.5 9.5q0 4 3 4q2 0 3.5 -1.5l3.5 -3.5q0 -1 0.5 -5l1 -8l1 -8t0.5 -6q1 -6 4 -7.5t9 -1.5h4t3 2v4t0.5 6.5t1 6.5t0.5 4v2q0 3 -1 6
t-1 7zM84 239q0 3 1 3.5t3 0.5q4 0 6 -3t2.5 -8t0.5 -11v-11.5t1 -10t3 -6.5q5 -3 12 -3h13q1 0 7.5 0.5t13.5 1.5t12.5 2t5.5 2q1 0 1.5 2.5t0.5 3.5v3t0.5 5.5t0.5 7t1 5.5v1v0q0 1 -0.5 2.5t-0.5 3t-0.5 3.5l-0.5 2v2q0 2 1 4t4 2q2 0 3.5 -1.5t2 -4t0.5 -4.5v-4v-9
t-0.5 -8t-1 -8.5t-1.5 -10.5q-3 -4 -10 -6t-14.5 -3t-15.5 -0.5t-12 0.5h-10.5t-8.5 1t-7.5 3.5t-7.5 7.5q0 4 -0.5 10t-1.5 12t-2 11.5t-1 9.5zM60 199q1 2 2 2h2t2.5 -1t2.5 -2.5t1.5 -2.5l1 -2t1 -3.5l1 -5t0.5 -5v-3.5q3 -3 4.5 -4t3 -1t3.5 0.5t5 -0.5q11 -1 15.5 -4.5
t6 -7t1.5 -6.5t2 -4q7 -2 15 -2.5t15 -0.5q5 0 5.5 3.5t1.5 8t3.5 8.5t12.5 4q4 0 7.5 -1t8.5 -1q1 0 4 0.5t3 2.5v22q0 1 2.5 1.5l2.5 0.5q4 0 4 -3v-6q0 -9 -0.5 -17.5t-1.5 -17.5t-1.5 -17.5t0.5 -18.5l-1.5 -1.5l-1.5 -1.5h-1q-2 0 -4 1.5t-2 3.5v23h-5.5t-12.5 0.5
t-14.5 0.5t-12.5 1q-11 0 -22 0.5t-22 0.5h-19q0 -1 -1 -4.5t-2 -7.5t-1.5 -7t-1.5 -3h-8v18q2 1 2 4v4q0 6 -1 12t-2.5 12t-2.5 11.5t-1 11.5v5zM76 158q0 -2 0.5 -4t1.5 -3q1 0 4 -0.5t6 -0.5t6 -0.5t4 -0.5h2q1 0 2 0.5t2 1.5q1 0 1 1.5v2.5q0 3 -2 5t-5 2.5t-6.5 1
t-5.5 0.5q-1 0 -4 -0.5t-4 -0.5q-2 0 -2 -2v-3zM158 146h26q1 0 1.5 1t1 2.5t0.5 2.5v2v1q0 2 -0.5 3.5l-0.5 1.5h-21q-2 0 -3.5 -1.5t-2 -4.5t-1 -5t-0.5 -3zM87 83v5v3q1 5 1 11t0.5 12t1 10.5l0.5 4.5l2 3l4.5 0.5t10 1t12 1t11.5 0.5h3q3 0 9 -0.5t12 -1.5t11 -2t7 -3
q2 -3 3 -9t1.5 -13t0.5 -13v-9v-3t-0.5 -3.5t-0.5 -3.5v-2q-1 -2 -3 -2.5t-4 -0.5v13q0 2 -2.5 2h-2.5q-1 0 -5 -2t-8.5 -4.5t-8.5 -5.5t-5 -4l-1.5 -2.5t-3.5 -5.5t-3.5 -5.5t-2.5 -3.5l-1.5 -1.5t-3 -3.5t-3.5 -3.5t-3 -2.5t-3 -2t-4.5 -2.5t-4 -3t-2.5 -3.5v-4v-6.5
t-1.5 -5.5t-4.5 -2q-2 0 -3.5 0.5t-1.5 2.5v14q0 1 -2 3t-4.5 4t-5 3.5t-4.5 1.5q0 1 -1 2t-2 1q0 1 -2.5 2.5t-5.5 3.5t-5.5 3.5t-3.5 1.5q0 1 -0.5 2l-0.5 1v1v1l1.5 1.5l1.5 1.5q3 1 7 -2t8 -6.5l8 -7t8 -3.5h1.5t1.5 2v19l0.5 0.5t1.5 0.5h1q3 0 4 -3.5t1 -8t0.5 -8
t2.5 -3.5v0q4 2 8 4.5t7 5.5t5 6.5t2 8.5q0 2 -2.5 4.5t-6.5 4t-8 2.5t-6 1q-1 0 -2.5 -1t-2.5 -2l-2 -2t-2 -1h-2.5t-1.5 2v4v4zM97 121q15 -3 31 -4.5t33 -1.5q3 0 4 0.5t1 3.5t-2.5 4.5t-5.5 2.5t-6.5 1.5t-4.5 0.5h-21h-22q-3 -1 -4.5 -2.5t-2.5 -4.5zM97 106
q0 -2 3.5 -3.5t9 -2t12.5 -1t14 -0.5h11h8h5.5h4.5q2 1 2 2v2q0 2 -0.5 3.5t-2.5 2.5q-6 0 -13.5 0.5t-16 1t-16.5 1t-15 0.5q-3 0 -4.5 -1.5t-1.5 -4.5zM98 93q0 -3 4.5 -5.5t10.5 -4.5t11.5 -3.5t7.5 -1.5t6 1t7.5 3t6.5 4.5t3 4.5v1.5v0.5q-3 0 -9 0.5t-13 0.5t-13.5 0.5
t-8.5 0.5h-6h-5q-1 0 -1.5 -0.5t-0.5 -1.5v0zM164 64l3 3q3 -3 4 -6t1 -7v-6.5t1 -7.5h2q4 0 7.5 2.5t6.5 5.5t6 5.5t6 2.5t3.5 -1.5t0.5 -3.5q0 -5 -4 -8t-9 -5t-10 -4.5t-7 -5.5q0 -1 0.5 -3.5t0.5 -5.5t-1 -5.5t-4 -2.5t-4 2t-1.5 5t0 6t-0.5 5q0 3 -5 6t-10.5 6t-10 6.5
t-4.5 8.5q3 0 6.5 -1.5t6.5 -4t5.5 -5t5.5 -3.5q1 -1 2.5 0t2.5 1v21z" />
</svg>
