<?xml version="1.0" standalone="no"?>
<!DOCTYPE svg PUBLIC "-//W3C//DTD SVG 1.1//EN" "http://www.w3.org/Graphics/SVG/1.1/DTD/svg11.dtd" >
<svg xmlns="http://www.w3.org/2000/svg" xmlns:xlink="http://www.w3.org/1999/xlink" version="1.1" viewBox="-10 0 266 256">
   <path fill="currentColor"
d="M80 191v55q0 1 1.5 2.5t3.5 1.5h2t1 -1v-16q0 -19 -0.5 -38.5t-0.5 -38.5q1 0 2 -0.5t2 1.5q3 8 5 15t3 14t2 14.5t1 16.5q1 3 0.5 7t0 7.5t2 6t6.5 2.5q0 -19 -3 -37l-6 -36v-3t-0.5 -4.5l-1 -5t-1.5 -3.5q-1 -2 -3.5 -3.5t-5 -2.5t-4.5 -2.5t-2 -3.5q0 -3 3.5 -5.5
l7 -5t6.5 -7t3 -13.5q0 -6 -3 -8.5t-6 -4.5t-6 -3.5t-3 -5.5q0 -3 2.5 -5t5.5 -4t5.5 -4t2.5 -6v-19l-2 -2t-4.5 -4t-4.5 -4t-3 -4v-10t-2 -12l-0.5 -0.5l-0.5 -0.5q-3 0 -4 2.5t-1 4.5v1l0.5 2t0.5 4t0.5 4l0.5 2v2q0 5 -1.5 7.5t-3 3.5t-4 2t-4 2.5t-2.5 5.5t-1 11
q0 4 2 6.5t4 4.5l4.5 4.5t2.5 6.5q0 5 -3 6t-6 1.5t-6 4t-3 12.5q0 8 2.5 11.5t6 5.5t6 5t2.5 8q0 2 -2 3t-4.5 1.5l-5 1t-3.5 1.5q-2 1 -3.5 6t-2.5 11t-1.5 11.5t-0.5 7.5v18l-2 12t-1 13l-0.5 2.5t0 5.5t1.5 5t3 2t3.5 -2.5t1.5 -3.5q0 -3 0.5 -10.5t1 -15.5t1 -15.5
t1 -10.5t0 -8t0 -10t2.5 -8.5t7 -3.5q3 0 4.5 3t1.5 7.5v9v7.5v2v1q0 1 -1 3l-1 2l1 1zM164 80q-2 3 -5.5 3t-7 -0.5t-7 0t-5.5 2.5q-8 6 -11 17.5t-4 23.5t-1 24.5v21.5q-2 19 -3.5 38t-1.5 39h3.5h2.5q1 -1 1.5 -1t0.5 -1v-9.5t0.5 -17t1.5 -20t2 -19.5t2 -15.5t2 -6.5
q2 -1 3.5 -1.5t3 0t3.5 0.5h5q0 12 -0.5 22.5t-1.5 20.5t-2.5 20.5t-2.5 22.5v2q0 3 3 3q1 0 1.5 -0.5l1.5 -1.5q2 -2 2.5 -5.5t1 -6.5l1 -6t0.5 -4t0.5 -6t1 -11t1 -11.5t0.5 -7.5v-7.5v-7.5t0.5 -7.5t2.5 -5.5q1 -2 2 -3t2 -1.5t2 -0.5h2t3.5 -0.5t2.5 1.5q0 10 0.5 21
t1 22.5l1 23t2.5 22.5q1 2 3.5 3t5.5 1q0 -10 -1 -19.5t-2 -19.5l-2 -20t-1 -19v-4v-5v-4v-2l3 -1h19q1 0 1.5 -1l0.5 -1v-1q0 -2 -2 -3.5t-4 -1.5h-26l-1 -2l-0.5 -1.5t-0.5 -4t-0.5 -4.5t-0.5 -4v-6q0 -5 0.5 -8t2.5 -7q7 3 12.5 9t10.5 10v1h1q2 0 2.5 -1.5t0.5 -2.5
v-1.5v-1.5q-4 -8 -12.5 -13.5t-17.5 -8.5v-13h32q2 0 2.5 -1t1 -2.5t0.5 -3v-2.5h-29q-2 0 -2 -1.5v-2.5v-2q2 -3 5.5 -5.5t6.5 -5.5t5 -6t2 -7q0 -9 -5 -12.5t-12.5 -4t-15.5 -1.5t-13 -6q-2 -1 -3 -3.5t-2 -4.5t-2.5 -4t-4.5 -2q-2 0 -2 1.5v2.5q0 3 1.5 5.5t3.5 5t3.5 5
t1.5 5.5l-0.5 1l-0.5 1q-1 2 -4.5 4.5t-8 6t-7.5 6t-3 3.5q0 2 1.5 2h2.5q2 0 5 -1.5t6 -3.5l6 -4t4 -4q1 0 2.5 -1l3 -2t2.5 -2l1 -1h24q3 0 4.5 3t1.5 5q0 3 -2.5 6t-6 7t-7 8.5t-4.5 8.5zM132 144v-2v-2l4 -4l9 -9t9.5 -8.5t6.5 -3.5l0.5 0.5t0.5 1.5t0.5 3.5t0.5 5.5
t0.5 5.5t0.5 3.5v1v3t-0.5 4.5t-1.5 4.5t-3 2h-24l-3 -2v-1.5v-2.5zM162 88v16q0 1 -1.5 2.5t-3.5 2.5l-4 2t-3 2t-3 2.5t-4.5 3.5t-4.5 4l-3 3h-3q0 -3 0.5 -8t1 -10.5t2 -10t3.5 -4.5zM69 110q0 -3 2 -5t4.5 -2.5t5.5 -0.5h6q4 0 5.5 1.5t1.5 5.5q0 8 -2.5 11t-9.5 3
q-1 0 -3.5 -0.5t-3.5 -0.5q-3 -2 -4.5 -5t-1.5 -7zM74 59q0 -5 3.5 -6t8.5 -1h5l3 3t2 4v0q-1 2 -2 5t-2 4.5l-1 1.5h-13q-1 0 -2 -1t-1.5 -3t-0.5 -4v-3z" />
</svg>
