<?xml version="1.0" standalone="no"?>
<!DOCTYPE svg PUBLIC "-//W3C//DTD SVG 1.1//EN" "http://www.w3.org/Graphics/SVG/1.1/DTD/svg11.dtd" >
<svg xmlns="http://www.w3.org/2000/svg" xmlns:xlink="http://www.w3.org/1999/xlink" version="1.1" viewBox="-10 0 266 256">
   <path fill="currentColor"
d="M69 149q1 0 2 0.5l1 0.5v97q0 1 1 2t2 1q3 1 4 -2t1 -4v-19q0 -14 -1 -28t-1 -28v-3t0.5 -4.5t0.5 -4.5v-3q-1 -3 1 -3.5t3 -0.5q2 0 4 0.5t3 3.5q2 19 2.5 39t0.5 40l1 1h1h1q1 0 2 -1.5l1 -1.5q0 -1 0.5 -3t0.5 -4t0.5 -3.5t0.5 -2.5v-2q0 -15 -1.5 -32t-3.5 -32
q0 -1 -1.5 -3.5l-1.5 -2.5q0 -1 -0.5 -1.5t-1.5 -0.5l-2 -0.5l-4 -1l-4 -1l-2 -0.5q-1 -1 -1 -3v-3q0 -5 2 -7t5 -4t5.5 -6t2.5 -13v-5v-4q-1 -3 -3 -4t-4.5 -1.5t-4.5 -1.5t-2 -4t1 -5.5t3.5 -4.5t5 -3.5t5.5 -3.5l2 -3v-21l-1 -1t-2 -2.5t-2.5 -2.5t-2.5 -2l-3 -0.5
l-3 -0.5l-1.5 -1.5l-0.5 -0.5v-18l-0.5 -0.5l-0.5 -0.5q-1 -1 -3 -1.5l-2 -0.5q-1 0 -1.5 0.5t-0.5 1.5v24q-4 2 -7.5 3t-6 3t-3.5 5t-1 8q0 9 2 12t5 3.5t6.5 1t6.5 4.5q-2 6 -4 8.5t-4.5 3.5t-4.5 1.5t-4 2t-3 4.5t-1 9q0 8 3 12t6.5 6t6.5 2.5t3 1.5v12l-1 0.5t-2 0.5
q-8 3 -12 5.5t-6 6.5t-2.5 9t-0.5 13q0 1 -0.5 4.5t-0.5 7.5t-0.5 8l-0.5 4q0 1 0.5 3.5t1 5.5t0.5 5.5v3.5v1.5t-0.5 3l-1 3t-0.5 2.5v3q0 2 0.5 4t3.5 2h3t2 -3q1 -8 1 -16v-16v-16v-16q0 -3 0.5 -7t2 -7t4 -5t6.5 -2zM137 89h-1q-1 1 -1.5 2.5t-0.5 3.5t0.5 3.5l0.5 1.5
q0 5 -0.5 11.5t-0.5 14v15t-0.5 14t-0.5 10.5v5q0 7 -1 12.5t-3.5 10.5l-5 10t-6.5 12q-2 3 -4.5 7t-5.5 8t-5 8t-2 7h6l2.5 -3t3.5 -5l1 -1.5t2 -3.5t2 -3.5t2 -2.5l3.5 -7l5 -10t5 -8.5t3.5 -3.5h1h1q0 1 1.5 3.5t2.5 4.5t2 4.5t2 3.5q1 2 2.5 6.5t3.5 9.5t4.5 8.5
t5.5 3.5t3 -1.5v-3.5v-3q-9 -14 -15 -26t-10 -28v-24q0 -15 0.5 -30t0.5 -31q0 -1 -1 -3t-3 -2zM177 214q0 2 1 2h3q4 0 6.5 -3.5t3.5 -8.5t2 -9.5t1 -7.5q2 -7 5 -14.5l6 -15t5 -15t2 -15.5q0 -6 -3.5 -12t-8 -12t-8 -13t-3.5 -16q0 -5 2 -10t3.5 -9t3 -8.5t1.5 -9.5v-5.5
t-3 -3.5q-1 0 -3 4.5t-3.5 10.5t-3 11.5t-1.5 7.5v29q2 3 4 6.5t2 7.5q0 2 -1 4.5t-2.5 5.5t-2.5 5.5t-2 4.5q-1 3 -4.5 10t-6.5 15.5t-5.5 16t-2.5 11.5v3q0 2 1 2q3 0 5.5 -5t5 -11.5t4.5 -14.5t4.5 -15t5.5 -11.5t6 -4.5q2 0 2.5 0.5t2.5 3.5v2t0.5 4t0.5 4v3v0
q0 3 -2 10.5t-4.5 16t-5 16.5t-4.5 11l-2.5 5l-3 6t-2.5 6t-1 5zM115 135q0 10 -1.5 19.5t-1.5 18.5h1.5t3 -0.5t2.5 -1t1 -1.5v-58q0 -1 -1 -2.5t-2 -2.5q-3 1 -3 3v4q0 5 0.5 10.5t0.5 10.5zM153 170l3 3l3 -3v-8q0 -13 -0.5 -25t-1.5 -25q0 -1 -0.5 -1.5l-0.5 -0.5h-1h-1
v0l-0.5 0.5t-0.5 1.5v58zM59 110v-1q0 -2 1 -4t2.5 -4t3 -3.5t3.5 -1.5h14q2 0 2.5 1.5l1 3t0.5 3.5v2q0 8 -4 11t-13 3q-3 0 -7 -3t-4 -7zM103 93v1q0 1 0.5 2l0.5 1q1 0 3.5 -1t3.5 -2l1 -1.5t2 -1.5q2 -2 6 -5t7.5 -6t6 -5l2.5 -2h7q5 6 11 10.5t11 10.5h1.5h1.5h2.5
t1.5 -3q0 -5 -5 -8.5t-11 -7t-11 -7t-5 -7.5q0 -9 0.5 -18.5t0.5 -18.5q0 -3 -0.5 -4t-3.5 -1h-3t-1 3v43q0 3 -4 6.5t-9 7l-10 7t-7 7.5v0zM114 33v37l2.5 -2.5t2.5 -3.5v-5t0.5 -6.5t0.5 -7v-4.5v-1q0 -2 -1 -4.5t-4 -2.5h-1zM62 64v-6q0 -9 5 -11.5t13 -2.5h7q1 1 2 2.5
t1 3.5v4v3q0 7 -4.5 8.5t-9.5 1.5h-7.5t-6.5 -3zM156 64l1 1h1h1l1.5 -1.5l1.5 -1.5q1 -7 1.5 -12t0.5 -11v-5t-3 -3h-1.5h-0.5q-1 1 -1.5 3.5t-0.5 3.5v5t-0.5 8t-0.5 7.5v5.5z" />
</svg>
