<?xml version="1.0" standalone="no"?>
<!DOCTYPE svg PUBLIC "-//W3C//DTD SVG 1.1//EN" "http://www.w3.org/Graphics/SVG/1.1/DTD/svg11.dtd" >
<svg xmlns="http://www.w3.org/2000/svg" xmlns:xlink="http://www.w3.org/1999/xlink" version="1.1" viewBox="-10 0 266 256">
   <path fill="currentColor"
d="M128 141l-1.5 3t-2.5 3q0 1 -0.5 3l-1 4t-1 3.5t-0.5 2.5q-2 11 -2.5 22.5l-1 23t0 23t0.5 21.5h4t4 -2q-1 -24 1 -46.5t4 -46.5q1 -2 2 -2.5t2 -0.5h2q2 0 9 0.5t15 0.5t15.5 0.5t9.5 0.5h3q4 0 5.5 -1.5t1.5 -6.5h-51q-2 0 -2.5 -1t-0.5 -3q0 -3 4 -5t10 -3.5t13.5 -2
t13.5 -1.5t10 -1.5t4 -2.5t-1.5 -4t-3.5 -2q-13 0 -25.5 3.5t-24.5 6.5h-2q-2 0 -2.5 -1t-0.5 -3q0 -5 3 -7.5t7 -3.5t8.5 -2t7.5 -3h29q1 0 1.5 -2l0.5 -2q0 -1 -0.5 -2.5t-1.5 -1.5h-24q-3 0 -3.5 -1t-0.5 -3l3 -2.5t6.5 -5t7 -4.5l3.5 -2q1 0 2 0.5l1 0.5l10 10h0.5h1.5
q2 0 4 -1.5t2 -3.5q0 -3 -2.5 -5.5t-6 -5t-7 -4.5t-5.5 -2q-5 0 -8 3l-7 7h-4l-0.5 -1.5t-0.5 -3t-0.5 -3.5t-0.5 -3v-1.5v-2.5q0 -2 2.5 -4.5t6.5 -5.5t7.5 -5t5.5 -2q3 0 4.5 2l3 4l3 4t4.5 2q2 0 4.5 -1t2.5 -4q0 -1 -2.5 -4t-6 -6t-6.5 -5.5t-4 -2.5q-4 0 -7.5 2t-6 4.5
t-5 4.5t-4.5 2q-1 0 -1.5 -1t-0.5 -2v-2v-1q0 -5 2 -8.5t5 -5.5t6 -3.5l6 -3t5 -4t2 -7.5q-6 0 -12 2t-11.5 5.5t-9 9t-3.5 11.5q0 1 0.5 3t0.5 5t0.5 5t0.5 3v4v5.5v7.5v6v4v7v7v4q-2 3 -7 4.5t-9.5 3t-8.5 5t-4 11.5v5v1.5t0.5 2.5t1 2.5zM74 149q3 0 3.5 1.5t0.5 4.5v90
q0 3 1.5 3.5t3.5 0.5q1 0 3 -0.5t2 -3.5v-14q0 -21 -1 -41.5t-1 -41.5q4 0 6 2.5t3 7t1 8.5t1 7l3 50h2h1h2t2 -2v-3v-5.5v-4.5v-4q0 -13 -1 -27t-6 -26q-1 -4 -3.5 -6.5l-4.5 -4.5t-4 -4.5t-2 -6.5q0 -3 3 -4.5t6 -3.5t6 -6t3 -12q0 -6 -2.5 -9t-5 -5l-5 -4t-2.5 -8
q0 -3 2.5 -5l5 -4t5 -5.5t2.5 -10.5q0 -6 -2.5 -9.5t-5 -5.5t-5 -3.5t-2.5 -3.5v-17q0 -2 -1 -2h-2q-4 0 -5.5 3t-2 7t-0.5 7v5q-1 2 -4 3t-5.5 2t-4.5 2.5t-2 4.5v17q0 3 2 4.5t5 2.5t5.5 2t3.5 1q2 1 2 4v4q0 4 -2 6t-4.5 2.5t-5.5 1t-5.5 2.5t-4 5.5t-1.5 10.5q0 6 3 8.5
t6.5 4t7 4t3.5 8.5q0 5 -3 7t-6.5 3.5t-7 3.5t-4.5 7q-4 11 -4 24v25v21q3 2 5 2t3.5 -0.5t1.5 -2.5v-42q1 -2 1.5 -7.5l1 -11t2.5 -9.5t7 -4zM163 200l-26 4q-1 0 -1.5 1t-0.5 2v2v1q13 0 27 -0.5t27 -1.5h3t4 -1t3 -2t1 -3t-1 -2.5t-4 -0.5q-1 0 -4 -0.5t-6 -0.5t-5.5 0.5
t-3.5 0.5q-2 -2 -2.5 -4t-0.5 -4v-2q0 -1 0.5 -4.5t0.5 -4.5q1 -1 3 -1t4.5 -1t4.5 -1.5t3 -0.5q2 0 4 -1t2 -4v-1.5t-1 -1.5h-6h-7h-9q-6 0 -11.5 0.5t-10 1t-7.5 1.5t-3 3q0 3 3.5 3.5t8.5 0.5q4 0 7.5 0.5t3.5 2.5v19zM68 106q0 -8 5.5 -9.5t11.5 -1.5h6q2 1 4 4t2 5
q1 3 -1 5t-4.5 3.5t-5 2.5t-4.5 1q-4 0 -9 -2.5t-5 -7.5zM111 90q0 1 0.5 1h0.5q0 1 1 2l2 2h1q3 0 4.5 -2.5t2.5 -5t2.5 -4.5t4.5 -2q1 0 1.5 0.5t1.5 0.5l12 11h1q1 0 2 -1t1 -2q0 -3 -2.5 -7t-5.5 -7t-6.5 -5t-5.5 -2h-1q-1 1 -3.5 4t-5.5 6.5t-5.5 6.5t-2.5 4zM71 54
q0 -12 14 -12q4 0 7.5 2.5t3.5 6.5q0 7 -3 9.5t-9 2.5q-5 0 -9 -2t-4 -7zM111 58q0 5 5 5l1 -0.5l1 -0.5q1 0 2.5 -2t3 -4.5t3.5 -4t4 -1.5l1.5 0.5t2 1t1.5 2t3 3t3 2.5l2 2h0.5h0.5q1 0 2.5 -0.5t1.5 -2.5t-2 -5.5t-4.5 -7t-5 -6t-4.5 -2.5q-3 0 -6.5 2.5t-7 5.5t-6 7
t-2.5 6z" />
</svg>
