<?xml version="1.0" standalone="no"?>
<!DOCTYPE svg PUBLIC "-//W3C//DTD SVG 1.1//EN" "http://www.w3.org/Graphics/SVG/1.1/DTD/svg11.dtd" >
<svg xmlns="http://www.w3.org/2000/svg" xmlns:xlink="http://www.w3.org/1999/xlink" version="1.1" viewBox="-10 0 266 256">
   <path fill="currentColor"
d="M138 246q0 2 1 3.5t3 1.5t3.5 -4.5t2.5 -10l2 -11t1 -8.5q0 -2 -0.5 -5.5t0 -7.5t1.5 -7t5 -3q3 0 5.5 2t3.5 4.5t2 5.5t1 5t1 6.5t1.5 9.5t1 9.5t1.5 6.5q0 4 1 5t4 1q1 0 3.5 -0.5t1.5 -2.5l-9 -41v-11l0.5 -0.5t1.5 -0.5q5 -4 7.5 -9t3 -10t0 -11t-0.5 -13
q0 -3 0.5 -9.5t0 -12t-3.5 -10t-9 -4.5h-30q-7 0 -10 3.5t-4.5 9t-1.5 11.5v10v3t0.5 4.5t0.5 3.5v2q0 2 0.5 6t1 7.5t0.5 6t1 3.5l10 10v1.5t0.5 3.5t0.5 4v3q0 6 -1 11t-2 9.5t-2 9.5t-1 10zM66 144q2 0 4 0.5t2 2.5v89l1 1t2 1q0 1 1 1v-1q1 0 1.5 -0.5l0.5 -0.5v-91
q0 -2 1 -2h2q5 0 7 4t2.5 9.5l1 11t1.5 7.5q1 10 1.5 22.5t-0.5 23.5l2 3h0.5h0.5h0.5h0.5q0 -1 2 -2.5t2 -2.5v-7q0 -16 -2 -31.5t-4 -31.5q-1 -5 -4 -8t-6 -5.5t-5.5 -4t-2.5 -4.5q0 -5 2.5 -7.5t5.5 -5t6 -5.5t3 -9q0 -5 -3 -8t-6.5 -5.5t-6.5 -4t-3 -4.5q0 -4 3 -6
t7 -3.5t7 -5t3 -10.5q0 -5 -3 -9t-6.5 -6.5t-6 -3.5t-2.5 -2v-17q0 -1 -2 -1h-2h-3t-2 1v6q0 3 0.5 5.5t0.5 5.5t-2.5 5t-6 3.5t-6.5 4t-3 8.5q0 7 3 10.5t6.5 5.5t6 4t2.5 7q0 3 -2.5 4.5t-6 3t-6.5 4t-3 8.5q0 8 3 11t6.5 4.5t6 4t2.5 8.5q0 5 -2.5 7t-6.5 3.5t-7.5 3.5
t-4.5 7v3v4v5v2q-1 15 -1.5 29.5t-1.5 29.5q0 2 1 3t2 1q3 0 5 -4v-2t0.5 -4.5t0.5 -4.5v-2v-43l5 -18q0 -3 2 -4t4 -1zM145 185q-4 -1 -4.5 -3t-0.5 -5v-1.5t0.5 -2.5t1.5 -1h30q3 0 5.5 2t2.5 5q0 2 -2 4t-4 3t-5 2t-5 1q-1 0 -1.5 -0.5l-0.5 -0.5q-1 0 -3.5 -0.5t-5.5 -1
t-5 -1t-3 -0.5zM137 164v-3.5v-3.5v-3v-3.5t1.5 -3t3.5 -1.5h32q2 0 4.5 2t2.5 4q0 5 -1 8t-5 4h-5t-8 0.5t-7.5 0.5h-5.5h-1h-2q-1 0 -4.5 -0.5t-4.5 -0.5zM159 120h8.5t6.5 1.5t4.5 4.5t1.5 8q0 2 -0.5 3t-2.5 1h-41q0 -6 2 -9.5t4.5 -5.5t7 -2.5t9.5 -0.5zM154 74
q-1 3 -1 5.5t-2 5.5q-4 4 -11 9t-14 9.5t-12 9.5t-5 10q5 0 12 -5t13.5 -11.5t13 -12t10.5 -5.5q2 0 3 0.5t2 1.5q9 7 19 13.5t19 12.5q1 1 2 1h3t3 -0.5t1 -2.5q0 -4 -3.5 -7t-9 -6t-11.5 -5.5t-11.5 -5.5t-9 -6.5t-3.5 -7.5v-64q0 -1 -1.5 -1h-2.5q-3 0 -4.5 2.5t-1.5 5.5
q0 10 1 20t1 21v13zM61 102v-2v-3l0.5 -0.5l0.5 -0.5q2 -1 5.5 -3.5t4.5 -3.5v0q3 0 5.5 1.5t4.5 3t3.5 4t1.5 4.5q0 5 -4.5 8.5t-8.5 3.5q-6 0 -9.5 -2.5t-3.5 -9.5zM119 77q4 6 9.5 7t11.5 1h3.5t2.5 -3t-3 -3.5t-6.5 -1t-7 -2t-3.5 -7.5q0 -3 2 -4t4.5 -1.5t4.5 -0.5h5
l1 -1.5t2 -1.5v-1v-1q-1 0 -1.5 -1l-0.5 -1h-18l-0.5 -1t-1.5 -1v-1q0 -2 1.5 -3.5t3.5 -1.5q1 0 3.5 -0.5t5 -0.5t5 -0.5t3.5 -0.5l2 -2t1 -3h-23q0 -1 -1.5 -5t-1.5 -5l-0.5 -0.5t-1.5 -0.5l-2 0.5l-2 0.5v8v9.5t0.5 9t1 9.5t1.5 11zM170 80q1 0 3 0.5t4.5 1t4.5 0.5h2
q4 0 6 -1.5t3.5 -4t2 -5.5t1.5 -6v-4v-9t0.5 -9.5t0.5 -7.5v-2v-2q0 -2 -1 -4.5t-4 -2.5t-3.5 2.5l-1 5t-1 4.5t-1.5 2h-16l-0.5 1t-0.5 2v1v0v0q0 1 0.5 1.5l0.5 0.5h6q3 0 6.5 0.5t5.5 2t2 5.5q0 1 -0.5 3t-2.5 2h-17l-0.5 0.5t-0.5 1.5v1q0 2 3 2t6.5 0.5t6.5 1.5t3 4
q0 4 -3 5.5t-6 2t-6 0.5t-3 3v0.5v0.5zM61 55q0 -5 5 -8t10 -3q4 0 8.5 3t4.5 8q0 4 -4 8t-9 4q-2 0 -5 -1t-5 -2.5t-3.5 -3.5t-1.5 -5z" />
</svg>
