<?xml version="1.0" standalone="no"?>
<!DOCTYPE svg PUBLIC "-//W3C//DTD SVG 1.1//EN" "http://www.w3.org/Graphics/SVG/1.1/DTD/svg11.dtd" >
<svg xmlns="http://www.w3.org/2000/svg" xmlns:xlink="http://www.w3.org/1999/xlink" version="1.1" viewBox="-10 0 266 256">
   <path fill="currentColor"
d="M172 223q0 2 0.5 6.5t1.5 9t2.5 8t5.5 3.5q2 0 3 -1t1.5 -2.5t0.5 -3.5v-3q0 -9 -1.5 -18t-1.5 -18q0 -14 1 -28.5t5 -28.5h1.5h0.5q3 0 4.5 2t2.5 4.5t2.5 5t5.5 2.5q2 0 4 -1t2 -4q0 -4 -2.5 -7t-5.5 -6t-5.5 -6t-2.5 -8q0 -3 1.5 -6.5t4 -7t4 -6.5t1.5 -7
q0 -3 -1 -4.5t-4 -1.5h-1v0l-7 14h-0.5h-1.5q-3 0 -5.5 -5.5t-5 -12.5t-4 -13.5t-1.5 -7.5t1 -3.5t1 -3.5l0.5 -1l0.5 -1l24 -3l1 -1.5t2 -2.5v-1v0q-1 -1 -3.5 -3t-3.5 -2l-0.5 -0.5l-0.5 -0.5q-4 0 -7.5 2t-7.5 2t-6 -1t-2 -5q0 -5 3.5 -6.5t8.5 -2.5t8.5 -2t3.5 -6v-5
t-1 -6.5t-2 -6.5t-3 -3q-1 0 -2 0.5t-2 1.5l-0.5 0.5l-0.5 0.5v17h-13l-2 -1v-1v-1l0.5 -1.5t1 -3.5t1 -3.5l0.5 -1.5v-2q0 -3 -3.5 -5t-6.5 -2h-3q-1 0 -1 2q2 10 2.5 21t1.5 21q0 1 0.5 1h0.5l-0.5 0.5l-0.5 0.5l-0.5 1l-0.5 1l-36 5q-2 0 -3 0.5t-1 2.5t1.5 3.5t3.5 1.5
h1q2 0 5.5 -0.5t7.5 -1t7 -1t4 -0.5l1.5 -0.5t3 -0.5t2.5 -0.5l1 -0.5q1 0 2 0.5t1 1.5l5 24q1 0 3.5 6.5t4.5 14t3.5 13.5l1.5 6v2l-0.5 2t-1.5 4t-2 3.5t-1 2.5l-0.5 4t-1.5 8.5t-1.5 8t-0.5 4.5t-1 3l-1 2v9t-0.5 13t-0.5 13.5t-1 8.5v7zM54 179q2 7 3 13.5t3.5 12t7 8.5
t14.5 3q6 0 11.5 -1t10 -3t7.5 -6.5t4 -11.5q3 -14 3.5 -28t1.5 -28v-1q0 -2 -1.5 -3t-3.5 -1h-1.5h-1.5q0 3 -0.5 9.5t-1 14t-1 15.5t-1.5 14.5t-3 10.5t-5 4t-5 -1t-3 -4v-23q0 -16 1.5 -31.5t0.5 -31.5q2 -2 5.5 -2.5t7.5 -0.5t6.5 -1.5t2.5 -5.5q0 -3 -2.5 -3.5
t-4.5 -0.5q-3 0 -5 1t-5 1h-0.5h-0.5q-1 0 -3 -1t-3 -1v-4t-0.5 -6t-0.5 -6v-4v-3v-4v-4v-2q4 0 7 1.5t5.5 3.5t5.5 4t6 2q2 0 3.5 -1.5t1.5 -3.5q0 -5 -4.5 -8t-10 -5.5t-10 -5.5t-4.5 -8v-32q0 -1 -1 -1.5t-2.5 -0.5h-2.5h-1h-4q-1 1 -1.5 2.5t-0.5 2.5v2q0 4 1 8.5t1 9.5
q0 7 -3 12t-7.5 8.5t-9.5 6t-9.5 5.5t-7.5 7t-3 9q0 2 1.5 2.5t3.5 0.5v0v0q5 -2 9 -5.5l8 -7l8 -7t8 -5.5h1h1l0.5 0.5t0.5 1.5v28q1 2 1.5 4t0.5 4t-0.5 3.5t-2.5 0.5q-2 0 -5.5 0.5t-8 0.5t-8 0.5t-4.5 0.5q-3 0 -6 1.5t-3 5.5q0 2 2 3.5t4 1.5h1h2l3.5 -0.5t7.5 -1.5
t7.5 -1.5l3.5 -0.5h1h1l2.5 1.5t2.5 2.5v84q0 3 -2 3.5t-4 0.5q-5 0 -7.5 -5t-3 -12.5t-0.5 -16.5t-0.5 -16.5t-3 -12.5t-6.5 -5h-0.5h-0.5l-0.5 0.5t-0.5 1.5v42zM127 159v1.5t2 1.5h2h4h4h3h4h4h4.5h1.5q1 0 3 -0.5l4 -1t3.5 -1.5t1.5 -3q0 -3 -1.5 -3.5t-3.5 -0.5h-7.5
t-12 1t-11.5 2t-5 4zM126 112q0 10 4.5 16.5t14.5 6.5q13 0 18.5 -7t5.5 -20q0 -10 -4 -14.5t-13 -4.5q-11 0 -18.5 5t-7.5 18zM136 115q0 -7 5.5 -13t13.5 -6q2 0 3.5 1.5t2 3.5t0.5 4.5v4.5q0 7 -3.5 12t-10.5 5q-5 0 -8 -3.5t-3 -8.5z" />
</svg>
