<?xml version="1.0" standalone="no"?>
<!DOCTYPE svg PUBLIC "-//W3C//DTD SVG 1.1//EN" "http://www.w3.org/Graphics/SVG/1.1/DTD/svg11.dtd" >
<svg xmlns="http://www.w3.org/2000/svg" xmlns:xlink="http://www.w3.org/1999/xlink" version="1.1" viewBox="-10 0 266 256">
   <path fill="currentColor"
d="M79 203q0 9 0.5 17t3.5 15t8.5 11.5t16.5 4.5t22 -1t21 -2t16.5 -3t11 -5.5t6.5 -10t2 -17.5q0 -2 0.5 -4.5t0 -4.5t-2 -4t-3.5 -2t-3.5 0.5t-2.5 3.5q0 1 -0.5 4t-1 6.5t-1 6.5t-0.5 5q0 1 -0.5 2.5t-1 4t-1.5 4t-2 1.5l-6 2t-5.5 1.5l-5 1t-5.5 0.5q-5 0 -7 -2.5
t-2.5 -6.5t0 -8.5t0.5 -7.5v-2.5t-0.5 -4t-0.5 -4v-2.5l-0.5 -2t-0.5 -3t0.5 -3t0.5 -3q4 -1 13.5 -2.5t19 -2.5t17 -1.5l7.5 -0.5q1 -1 1.5 -2.5t0.5 -2.5v-1q0 -2 -1 -2.5t-3 -1t-4 -0.5h-2q-11 0 -24 2.5t-24 3.5q-1 0 -1.5 -1t-1 -2.5t-0.5 -2.5v-2v-48q8 0 16.5 4
t17.5 9t17.5 9.5t15.5 4.5q2 0 3.5 -2t1.5 -4t-4.5 -5t-11 -6.5t-15 -6t-16.5 -5t-15 -4t-10 -1.5v-9q4 0 8.5 -1t8.5 -3.5l8 -5t6 -5.5h1.5h1.5q2 0 6 2.5t7.5 5.5t7 5.5t5.5 2.5h2q1 0 2 -0.5l2 -1l1 -0.5v-8q-3 -1 -7 -4.5t-8.5 -6.5t-8.5 -5.5t-8 -2.5q-3 0 -6.5 3
t-7 6.5t-7.5 6.5t-8 3h-2h-1q-1 -4 -1.5 -9t-0.5 -10q0 -1 0.5 -4t0.5 -4l1 -3h8l23 -14h1h2q4 0 7.5 3t6.5 7t6 7.5t7 3.5q3 0 5 -3t2 -6v-2q-3 -4 -7 -7.5t-9 -6.5t-10 -5t-9 -2t-8 3t-7.5 6t-7.5 6t-8 3q-1 0 -1.5 -1l-0.5 -1v-8v-7q0 -3 4 -5q1 -1 4 -3t6.5 -3.5t6.5 -3
t4 -1.5t4 -1t7 -2t7 -1.5t4 -0.5q5 -1 5 -6q0 -4 -2 -4.5t-5 -0.5t-11.5 2.5t-18 6t-17 7t-9.5 6.5v1t-0.5 2.5t-0.5 3v2.5q0 2 -0.5 5t-0.5 5.5t-0.5 5t-0.5 3.5v11v16.5t0.5 16.5t0.5 11h-1.5h-0.5q-17 4 -33 10t-33 13q-2 1 -2.5 2t-0.5 4q0 2 0.5 3t3.5 1q6 0 14 -3
t15.5 -6.5t14.5 -7.5t13 -7h8l0.5 1t0.5 2t0.5 2t0.5 3t0.5 3.5t0.5 2.5v0.5v0.5v0.5v0.5l-0.5 1t-0.5 2.5t-0.5 2.5t-0.5 2v5v9v8v6l-3 3l-52 3l-2 2t-2 3h-1v1q0 2 0.5 3t1.5 2h6q6 0 12 -1l12 -2l12 -2t13 -1q4 0 4.5 3.5t0.5 7.5v2v5v5v5v3v5v5.5v3.5q0 2 -1 3.5t-2.5 2
t-3.5 1t-4 0.5q-10 0 -15 -3t-6.5 -7.5t-1.5 -9.5t-0.5 -9t-3 -7t-8.5 -3zM50 108q0 2 0.5 4.5t3.5 2.5t7.5 -3.5t9 -8t9 -7.5t7.5 -3h1.5h0.5l3.5 3.5l5.5 5.5t6 5t5 2q5 0 5 -5q0 -4 -3 -5t-5 -3q-3 -3 -5 -5.5t-4.5 -5t-5.5 -4t-8 -1.5h-2q-4 4 -8 7l-8 6t-8 6.5t-7 7.5
v1zM53 71q0 2 0.5 3.5t2.5 1.5q4 0 8 -3.5l8 -7l8 -7t9 -3.5q2 0 5 1.5t6 4t5.5 5l3.5 3.5h1h1q2 -1 3.5 -2.5t1.5 -3.5l-0.5 -0.5l-0.5 -0.5q-2 -3 -5 -6t-7 -6t-7.5 -4.5t-7.5 -1.5t-9.5 3t-11.5 7t-10 8.5t-4 8.5z" />
</svg>
