<?xml version="1.0" standalone="no"?>
<!DOCTYPE svg PUBLIC "-//W3C//DTD SVG 1.1//EN" "http://www.w3.org/Graphics/SVG/1.1/DTD/svg11.dtd" >
<svg xmlns="http://www.w3.org/2000/svg" xmlns:xlink="http://www.w3.org/1999/xlink" version="1.1" viewBox="-10 0 266 256">
   <path fill="currentColor"
d="M194 248q0 2 1 2.5t3 0.5q3 0 4 -2.5t2 -5.5v-7v-10v-10v-7v-9v-10v-10v-4v-7q0 -5 -0.5 -10t-1.5 -9.5t-2 -7.5v-17q0 -13 1 -26t1 -26v-6.5t-0.5 -10.5t-1.5 -12.5t-2 -11.5t-3 -9t-4 -4q-2 -1 -4 -1.5t-4.5 -1l-5 -1l-2.5 -0.5h-5.5t-7.5 -0.5t-7.5 -0.5h-5.5h-18h-18
q-2 1 -6 1.5t-8 0.5t-7.5 -0.5t-5.5 -0.5q-8 1 -13 3t-8 5.5t-3.5 9t-1.5 13.5v8v13.5t-0.5 15.5t-0.5 15.5t-0.5 13.5t-0.5 9v5l-1 54q-1 4 -2 11t-1 15v15v12v10q1 1 1.5 1h1.5q3 0 4.5 -2t2.5 -5t1 -6v-4q1 -3 1 -8t0.5 -10.5t0.5 -10.5v-6v-9v-16v-19v-19v-15v-9
q0 -3 0.5 -8.5t1 -12.5t1 -14.5t1 -14.5t1 -12.5t0.5 -7.5q1 -3 3 -5t5 -2q1 0 4.5 3t7 7t6.5 7.5t3 4.5q0 4 -3.5 8t-7 7t-7 7t-3.5 8q6 0 9.5 -3t6.5 -7t5.5 -7t6.5 -3h1h1l16 16h2.5h2.5q6 0 10 -2t6.5 -6l5 -8t5.5 -6q2 1 4.5 4.5t6 7.5t6.5 7t4 3q3 0 3.5 -1t0.5 -3
q0 -3 -3 -6l-6.5 -6.5t-6 -6.5t-2.5 -7q0 -1 1 -2.5t3 -3.5l3.5 -3.5t2.5 -3.5l0.5 -3t0.5 -4h1h2q3 0 4.5 1.5t2.5 4t1.5 5t1.5 4.5q0 2 0.5 7t0.5 10t0.5 10t0.5 7v68q2 13 3 26t1 26.5t-0.5 26.5t-0.5 26zM163 212q4 1 6 5.5t3.5 9t2.5 8t3 3.5q4 0 4.5 -1.5t0.5 -4.5
q0 -5 -2 -11l-4 -12t-4.5 -11.5t-4.5 -10.5q-1 -3 -2.5 -5.5t-2.5 -5l-2 -5t-1 -5.5q1 -3 4 -3.5t6.5 -1t6.5 -1t3 -4.5q0 -2 -2 -3.5t-4 -1.5q-3 0 -5.5 1t-5.5 1h-6q-1 -4 -2 -6.5l-2 -5t-1 -5v-5.5q0 -4 1.5 -5.5t4 -2.5t5.5 -2t5.5 -3t4.5 -7t2 -14q0 -4 -2.5 -6
t-5.5 -3.5t-7 -1.5h-6q-13 0 -24.5 0.5t-25.5 0.5q-1 1 -3 1.5t-4.5 1t-4.5 1.5t-3 1q-2 1 -3 2t-1 3q0 1 -0.5 4.5t-0.5 7.5v7v4q0 12 1 22.5t1 21.5q1 14 1 24t3 16.5t10.5 9.5t22.5 3q10 0 20.5 -0.5t19.5 -4.5zM96 178q0 -3 2 -4.5t5 -2.5t6.5 -1.5t5.5 -0.5h4.5t7 -0.5
t7 -0.5t4.5 -1l2 -0.5t3.5 -1l3 -1t2.5 -0.5h1q1 0 2.5 2.5t2 6t1 6.5t1.5 5l0.5 2t1.5 4.5t2 4.5t1 3v1q0 3 -2.5 4l-5 2t-5 1h-3.5h-3h-5.5h-6.5h-6h-3h-6.5h-6.5h-4q-3 -1 -5 -4.5t-3 -7.5t-1 -8v-8zM92 154l0.5 -0.5l0.5 -0.5q0 -1 0.5 -2.5t0.5 -2.5q3 -1 6 -1.5
t6.5 -1t6.5 -1t5 -2.5q5 -4 5.5 -7t1.5 -5.5t3.5 -4t9.5 -1.5h4q1 1 1 3.5t0.5 5.5t1 5.5t1.5 3.5l0.5 1.5l1 3l1 3l0.5 1.5v2q0 3 -6 4.5t-14 2.5t-16 1h-12h-7q0 -1 -0.5 -3.5l-0.5 -2.5q0 -1 -0.5 -1h-0.5zM118 94h10t7.5 1.5t5.5 5t2 9.5q0 4 -3 6t-6.5 2.5t-7.5 0.5h-6
q-4 2 -4 4q0 3 -0.5 5.5t-4 5.5t-14.5 6v0h-1q-1 0 -1.5 -0.5l-0.5 -0.5v-39q0 -2 3.5 -3t7.5 -2t8 -1h5zM147 97q0 -1 1 -2t2.5 -1h3.5h1h5t3 3q0 1 0.5 3l0.5 2v5q0 3 -1 5t-2.5 3t-4.5 1h-3t-2 -1zM112 47q1 0 2.5 -1.5l3.5 -3.5l3.5 -3.5t1.5 -2.5q2 -2 1.5 -3.5
t-0.5 -4.5h-6q-3 5 -6 8t-8 3h-2l-13 -13q1 0 1.5 -0.5l0.5 -0.5q10 -3 21 -3h21q3 0 7.5 -0.5t9.5 0t9 1t7 2.5q1 0 1.5 0.5l0.5 0.5q0 3 -1 4.5t-2.5 3.5t-4 3t-3.5 1q-2 0 -4 -1t-4 -2.5t-3.5 -3.5t-3.5 -3q-3 0 -3 3t2 5t4.5 3.5t4.5 3t2 4.5t-2 7t-4.5 7.5t-6 6
t-5.5 2.5t-3 -1t-1 -2.5t-0.5 -2.5t-1.5 -2q-2 -2 -4.5 -3t-5 -2.5t-4.5 -3.5t-2 -6z" />
</svg>
