<?xml version="1.0" standalone="no"?>
<!DOCTYPE svg PUBLIC "-//W3C//DTD SVG 1.1//EN" "http://www.w3.org/Graphics/SVG/1.1/DTD/svg11.dtd" >
<svg xmlns="http://www.w3.org/2000/svg" xmlns:xlink="http://www.w3.org/1999/xlink" version="1.1" viewBox="-10 0 266 256">
   <path fill="currentColor"
d="M190 245q1 0 2 1.5t2 1.5q2 0 3 -1.5l2 -3t2 -4l1 -2.5q0 -2 -0.5 -5t-0.5 -6.5t-0.5 -6.5t-0.5 -5v-12.5v-20t-0.5 -20.5t-0.5 -14v-9v-103q0 -4 -2.5 -7.5t-6 -5.5t-8 -3t-7.5 -1h-7.5h-11.5h-11h-8h-9h-12h-10.5h-5.5t-5 0.5t-9 1l-10 1t-8 0.5q-3 1 -5.5 3t-3.5 5
t-1.5 7t-0.5 7v0q0 1 0.5 1.5t0.5 1.5t0.5 2.5l0.5 1.5l-0.5 1.5t-0.5 3.5t-0.5 4l-0.5 2v4q0 5 1 10t1 11v2q0 1 -0.5 5.5t-0.5 9t-0.5 9t-0.5 5.5v1q0 10 1 20t1 20q0 13 -0.5 26.5t-1.5 26.5q0 6 -1.5 14t-1.5 15q0 5 5 5q3 0 5 -5.5t3 -11.5t1 -12v-6q0 -1 0.5 -4
t0.5 -6.5t0.5 -6t0.5 -3.5v-2v-4v-5v-4q0 -30 -1 -60t-1 -60v-4v-6v-6v-4q1 -2 2 -3.5t3 -1.5t2 0.5t1 1.5l4.5 4.5l7 7l6.5 6.5l3 3l-0.5 2l-0.5 2q-3 7 -8 11.5t-10 8.5v1v1q0 4 4 4t6 -2.5t4 -6t5 -6t7 -2.5q5 0 6.5 3.5t4.5 7.5h1h2q4 0 4 -5v-2q-1 0 -3.5 -2t-4.5 -4.5
l-4 -5t-2 -4.5l0.5 -0.5l0.5 -0.5l13 -16v-1v-1q0 -5 -4 -5q-3 0 -4.5 2.5l-3 5t-4 5t-5.5 2.5h-1q-4 -4 -8.5 -8t-8.5 -8q0 -2 2 -2.5l4 -1t3.5 0t3.5 -0.5h2h4.5t5 -0.5l2.5 -0.5h5h8.5t8.5 0.5t5 0.5h5h26q0 1 0.5 1.5t1.5 0.5v1q0 2 -1.5 5t-3.5 5t-4.5 3.5t-5.5 1.5
t-4 -2t-2.5 -4.5t-3.5 -4.5t-7 -2q0 2 2.5 5.5t5 6.5t4.5 6t2 5t-3 5l-5.5 5.5l-5 5t-2.5 4.5q0 1 1 1.5t2 0.5q3 0 5 -2t4 -4.5t4 -4.5t4 -2q4 0 6 3t4 6.5t4 6t5 2.5q2 0 3 -2t1 -3q0 -3 -2.5 -6t-5.5 -5.5t-5.5 -5.5t-2.5 -7v-1l3 -3t4 -4.5t3.5 -4.5t2.5 -3l0.5 -1.5
t1 -2.5t1 -2.5t1.5 -1.5q4 0 5.5 2t2.5 5t1.5 6.5t0.5 5.5q0 36 1.5 70.5t1.5 69.5q0 13 -1.5 25.5t-1.5 25.5v8zM102 134v8.5t-0.5 11.5t-0.5 11.5t-1 7.5v1.5t-0.5 3.5t-0.5 4v2v3v3q-1 6 -3 11.5t-3.5 11t-3 11.5t-1.5 12q5 0 7 -2.5t3 -6t1.5 -7t0.5 -6.5q2 -8 3.5 -16
t3 -16.5t2.5 -16.5t1 -17q0 -1 0.5 -3.5t0 -5t-1.5 -4t-4 -1.5h-1.5h-1.5zM129 233q1 1 3 1.5l2 0.5q3 0 4 -2t1 -4v-5v-7v-7v-5q0 -16 -1 -32.5t-1 -33.5v-11l5 -5q8 1 16.5 0.5t16.5 -2.5q1 0 2.5 -1t1.5 -2v-1q0 -1 -0.5 -1.5l-0.5 -0.5h-39l-0.5 -2.5t-1.5 -3.5v-21
q0 -1 -2 -2l-2 -1q-1 -1 -2 -1.5t-2 -0.5l-0.5 0.5t-0.5 1.5v29l-2 0.5t-5 1t-6.5 1t-5.5 0.5q-4 0 -8.5 -0.5t-9 -0.5t-7.5 2t-3 7h6h10h10h6t2.5 -0.5t3 -0.5t3 -0.5l1.5 -0.5h1q2 0 2.5 2t1.5 3q1 26 1.5 52.5t-0.5 52.5zM151 140q0 3 0.5 10.5t1.5 17.5t3 20.5t4.5 19.5
t5 15t5.5 6q2 0 3.5 -1t1.5 -3q0 -3 -1 -7t-3 -7.5t-3.5 -7t-2.5 -6.5v-2.5t-0.5 -3.5t-0.5 -3.5v-2.5l-0.5 -1.5l-1 -3l-1 -3l-0.5 -1.5q-3 -10 -2.5 -19.5t-2.5 -18.5l-2 -4t-2 -2t-1.5 1t-0.5 2.5v2.5v2zM102 83v26l0.5 0.5t1.5 0.5v0q2 0 3.5 -1.5t1.5 -2.5v-18l-2 -2
l-3 -3h-1.5h-0.5zM152 100q0 2 0.5 4t2.5 2q3 0 4 -2t1.5 -4t0 -4t-0.5 -3q0 -2 0.5 -3.5t0 -3.5t-1.5 -3t-3 -1h-1h-1q-1 5 -1.5 9t-0.5 9z" />
</svg>
