<?xml version="1.0" standalone="no"?>
<!DOCTYPE svg PUBLIC "-//W3C//DTD SVG 1.1//EN" "http://www.w3.org/Graphics/SVG/1.1/DTD/svg11.dtd" >
<svg xmlns="http://www.w3.org/2000/svg" xmlns:xlink="http://www.w3.org/1999/xlink" version="1.1" viewBox="-10 0 266 256">
   <path fill="currentColor"
d="M120 246q1 0 2.5 2t2.5 3h1q1 0 3 -2.5t2 -4.5v-29q0 -4 5 -6.5t11.5 -5t12 -4t7.5 -3.5q6 -6 8.5 -14t3.5 -17t1 -18v-16v-8q0 -3 -0.5 -6.5t-0.5 -7.5t-1 -9q0 -2 -2 -5.5t-4.5 -6t-5 -4.5t-5.5 -2h-28q-2 0 -2.5 -2t-0.5 -4t-1 -4t-3 -3q-2 0 -3 1.5t-2 4t-1.5 5
l-0.5 2.5q-8 1 -17 2t-16 4t-11.5 9.5t-4.5 17.5v47l0.5 2t1 5.5t1.5 6.5t1 5q0 1 1 2.5t1 2.5q2 3 5.5 6.5t7 6.5t8 4.5t8.5 1.5q2 0 4.5 -1t2.5 -4l-0.5 -0.5l-0.5 -0.5l-11 -5.5t-9 -5.5t-7.5 -7t-6.5 -11v-6t-0.5 -8t-0.5 -8v-6v-2v-1q0 -1 0.5 -4t0.5 -6v-5.5v-2.5
q2 -10 3 -16t4 -8.5t8.5 -3.5t15.5 -3l3.5 -0.5l7 -1l7 -1t4.5 -0.5q15 0 23.5 1.5t12.5 7t4.5 15t0.5 24.5q0 5 -0.5 11.5l-1 13t-1.5 13t-4 11.5q-2 6 -8 8t-12.5 4t-12 5t-6.5 9q-1 2 -1.5 5.5t-1.5 7t-1.5 6.5t-0.5 4v2.5v3.5v3.5v3.5zM49 236l1.5 1.5t1.5 0.5
q3 0 4.5 -2.5t2.5 -5.5t1 -6v-4v-2.5t-0.5 -4t-0.5 -4.5v-2v-8.5t0.5 -14t0.5 -14.5v-8q1 -32 0.5 -64t2.5 -64q2 -4 4 -5.5t5 -1.5h1h1q2 2 4.5 4t5.5 4.5t4.5 5.5t1.5 6q0 5 -2.5 7t-5.5 4.5t-5.5 4.5t-2.5 7q4 0 6.5 -1.5t5 -3.5t4.5 -4.5t5 -5.5v0h1q2 0 4 1.5t3.5 3.5
t3.5 3.5t5 1.5v-5l-9 -13q0 -1 1 -2.5t2 -2.5q1 -2 3 -5.5l4 -7t4.5 -6t3.5 -2.5q6 0 10 2.5t7 6.5t5.5 8.5t6.5 8.5v0q0 3 -1.5 5l-3 4l-3 4t-1.5 5q6 0 9 -3t6 -7h2l16 14h1q2 0 3.5 -1.5t1.5 -2.5t-0.5 -2t-1.5 -2l-1.5 -2t-3.5 -3.5t-3.5 -3l-2.5 -2.5v-3q0 -2 2 -5.5
t4.5 -7t5.5 -6.5t5 -3q4 0 6 6t3 14.5t1 16.5v11q0 7 -1 13.5t-1 13.5v6q0 3 0.5 6l1 6t0.5 6v39q0 17 -0.5 33t-0.5 32v2.5t1 3.5t2 3t2 1q2 0 3.5 -1.5t3 -3.5t2 -4.5t0.5 -3.5q0 -7 -1.5 -14t-1.5 -14q-2 -42 -3 -83.5t-1 -83.5q1 -4 -1.5 -8.5t-7.5 -5.5h-18.5t-19 -1
t-19 -1.5t-18.5 -0.5h-21h-2t-2.5 0.5t-3 0.5h-2.5q-4 1 -9.5 1t-10 2t-8 5t-3.5 10v24l-2 28t-1 27v4t0.5 6t0.5 6v4v7q0 16 -1.5 32.5t-1.5 33.5v7v9v10v6zM101 171q0 9 4.5 13t12.5 4q11 0 17 -1.5t8.5 -5t4 -9.5t4.5 -15l0.5 -1.5t1.5 -3.5l1.5 -3t0.5 -2l0.5 -2.5
l0.5 -2.5q-7 0 -9.5 3.5t-3 9l-1 11t-4.5 9.5l-2 1q-4 1 -9 2.5t-10 1.5q-3 0 -7 -2t-4 -5q0 -4 2 -7.5t4.5 -6.5t4.5 -6t2 -7t-2.5 -7t-6 -5.5t-6 -5.5t-2.5 -8t3 -8t7.5 -4t9.5 -1h9h10q2 1 3.5 2.5t1.5 3.5v1.5v0.5q-3 5 -8 6t-9 2t-7 2.5t-3 5.5h10t11.5 -1t9.5 -4.5
t4 -9.5t-2 -9.5t-5.5 -5.5t-8 -2.5t-8.5 -0.5q-3 0 -8.5 1t-11.5 2.5t-10 4.5t-4 7v18q0 2 2 3.5t5 3.5t5.5 4t2.5 5t-1.5 5.5t-4 5.5t-4 6.5t-1.5 6.5zM144 25q0 -1 1.5 -1.5t3.5 -1t4 -0.5h3q2 0 4 0.5l4 1t3.5 1.5t1.5 3v1.5v0.5l-13 13l-2 -2.5t-3.5 -4.5l-3 -4t-2.5 -3
q0 -1 -0.5 -2t-0.5 -2zM84 26q0 -2 2 -3.5t5 -2t6 0t4 0.5q2 0 5 0.5t3 3.5q0 1 -1 3.5t-3 5t-4 4t-4 1.5h-1t-1 -1l-11 -11v-1z" />
</svg>
