<?xml version="1.0" standalone="no"?>
<!DOCTYPE svg PUBLIC "-//W3C//DTD SVG 1.1//EN" "http://www.w3.org/Graphics/SVG/1.1/DTD/svg11.dtd" >
<svg xmlns="http://www.w3.org/2000/svg" xmlns:xlink="http://www.w3.org/1999/xlink" version="1.1" viewBox="-10 0 266 256">
   <path fill="currentColor"
d="M187 241q0 2 1 3t3 1t3.5 -1.5t2 -4t0.5 -4.5v-4v-4.5t-1 -4.5v-7t-0.5 -11t-0.5 -12.5v-12.5t-0.5 -11t-0.5 -7v-22q0 -21 1 -41t1 -41v-27q-2 -7 -7.5 -10t-13 -3.5t-15 0t-12.5 0.5h-24q-1 0 -3 0.5t-5 0.5t-5 0.5t-3 0.5h-3.5t-8 0.5t-9.5 1t-9.5 1.5t-7 2t-2.5 3
v5.5t-0.5 7.5t-0.5 7.5v5.5q0 1 -0.5 3.5t-1.5 3.5q1 45 -1 88.5t-5 88.5v3q5 0 7.5 -2.5t3.5 -6t1 -7.5v-7v-5v-10v-9v-5v-5t0.5 -9t1 -11t0.5 -11t0.5 -9t0.5 -5v-6v-9v-11v-12v-9v-5v-10.5t1 -15.5t1 -15.5t1 -10.5q2 -3 6.5 -5.5t7.5 -2.5q4 0 7.5 0.5t6.5 0.5
q8 0 16.5 -1.5t16.5 -1.5h2l2 0.5t4 0.5t4 0.5t3 0.5v0h1q1 0 2.5 -0.5t3.5 -0.5t3.5 -0.5t2.5 -0.5h2h3q2 0 4 0.5t4 0.5t3.5 0.5l1.5 0.5l3 3l0.5 1t0.5 3t0.5 4t0.5 3v7q0 12 -1 23.5t-1 24.5q0 21 1 42t1 42q0 16 -1 31.5t-1 30.5zM138 185v48q0 2 3 2q2 0 4 -1.5
t2 -4.5v-51l1 -3q1 -1 2.5 -1t3.5 -0.5t4 -0.5h3q2 0 3.5 0.5t2.5 1.5q2 5 2.5 10.5l1 11t0 11t-0.5 9.5q0 2 1 2.5t2 0.5q2 0 3 -2t1 -4v-4.5v-3.5v-8v-7.5t-0.5 -7t-0.5 -8.5q-1 -4 -4.5 -6t-7.5 -2.5t-8.5 -0.5h-7.5q-1 -1 -1 -2.5t-0.5 -3.5t0 -3.5l0.5 -1.5v-4v-2
l27 -3q1 0 1.5 -2t0.5 -3h-29q-1 0 -1.5 -2.5t-0.5 -3.5q0 -5 2.5 -7.5t5.5 -3.5t6.5 -1t6.5 -1t5 -4t2 -8v-1q0 -1 -0.5 -3t-0.5 -4.5t-0.5 -4.5l-0.5 -2l-1 -0.5t-2 -0.5q-3 0 -3.5 3.5t-0.5 8t-2.5 8.5t-10.5 4h-1q0 -1 -1 -1.5l-1 -0.5l-3 -26l-1.5 -1.5l-2.5 -2.5v0h-1
l-2 3v22q0 17 1 34t1 34v3t-2 3zM112 226v2t0.5 2.5t0.5 2.5t2 1q1 0 3 -1t2 -4v-136q0 -2 -1.5 -2.5t-3.5 -0.5h-1.5t-0.5 2q0 1 -0.5 3.5t-0.5 5.5t-0.5 5.5t-0.5 3.5v5l-0.5 1.5l-0.5 1.5h-12l-0.5 -0.5t-0.5 -1.5q-1 -2 -1.5 -4.5l-1 -5t-0.5 -5v-4.5q-1 -1 -2 -1h-2
q-3 0 -3 1.5v4.5q0 6 0.5 10.5t2.5 10.5q0 1 1 1.5l1 0.5h3.5t5.5 0.5t5.5 0.5h3.5q2 2 2.5 4t0.5 4t-0.5 4t-2.5 3l-26 2q-2 1 -2.5 1.5t-0.5 2.5q0 3 2 3.5t4 0.5q5 0 10 -1.5t11 -1.5q5 0 5.5 3t0.5 9q0 1 -1 4.5t-3 3.5l-20 3l-3 3l-0.5 1.5t-0.5 3.5t-0.5 4t-0.5 3v16
v16l1.5 1.5t1.5 0.5q4 0 5 -4t1 -6q0 -6 -1 -10.5t-1 -10.5v-8q1 -2 3 -3.5t4.5 -2.5t5.5 -1.5t5 0.5l1 1t2 1v8.5t0.5 6.5t0.5 6v7q0 6 -1 11.5t-1 10.5zM82 77q0 2 0.5 2.5t2.5 0.5q3 0 6 -3t6 -6.5t5.5 -6t4.5 -2.5t3.5 2t2.5 5t2.5 5t4.5 2h1q1 0 2 -0.5l1 -0.5v-2v-2
q0 -3 -1.5 -5t-3.5 -3.5t-3.5 -3.5t-1.5 -5v-1.5v-0.5l11 -15l0.5 -0.5t0.5 -1.5t-0.5 -3t-2.5 -2t-4 1.5t-3.5 4l-3 5t-1.5 3.5l-1 0.5t-2 0.5q-3 0 -4.5 -2t-3.5 -5t-3.5 -5t-4.5 -2q-1 0 -1.5 0.5t-0.5 2.5q0 3 1.5 5t4 4t4 4.5t1.5 6.5v2q-4 5 -9 10.5t-10 9.5v1v0z
M138 76q0 1 1 2.5t2 1.5q2 1 4 -1.5t5 -6t5 -6.5t3 -4q1 0 2.5 1t2.5 2.5t2.5 3l1.5 1.5q1 2 3 4.5t4 2.5q3 0 3 -3t-1.5 -5.5t-4 -4.5t-4.5 -4.5t-2 -6.5q0 -2 2 -4t4 -4.5t3.5 -5t1.5 -5.5h-5l-11 15h-1h-1q-3 0 -3.5 -1.5t-3.5 -4.5q0 -1 -2 -2.5t-3 -3t-2 -2.5l-1 -1h-6
q0 4 2.5 6.5t5.5 4.5t5.5 5t2.5 6q0 2 -2 4.5t-4.5 5.5t-5 5.5l-3.5 3.5v1z" />
</svg>
