<?xml version="1.0" standalone="no"?>
<!DOCTYPE svg PUBLIC "-//W3C//DTD SVG 1.1//EN" "http://www.w3.org/Graphics/SVG/1.1/DTD/svg11.dtd" >
<svg xmlns="http://www.w3.org/2000/svg" xmlns:xlink="http://www.w3.org/1999/xlink" version="1.1" viewBox="-10 0 266 256">
   <path fill="currentColor"
d="M51 249q1 0 2 0.5t2 0.5q5 0 7.5 -3.5t3.5 -8.5t0.5 -10t-0.5 -9q0 -15 -0.5 -30.5t-3.5 -31.5l4 -120q0 -3 5.5 -5.5t12 -4.5t13 -3t8.5 -1t5.5 -0.5t9 -0.5h11.5t11 -0.5t9 -0.5h5h8h6q2 0 4.5 0.5t5 0.5t4 0.5l1.5 0.5l3 3q0 9 1 18t1.5 17.5t1.5 17.5t1 19l1 3v2
q0 1 0.5 3t0.5 4v3v4.5v6t-0.5 7t-1.5 6.5l1 38v5v42q-1 5 -2 11t-1 12q0 5 6 5q3 0 5 -2t3 -4.5t1.5 -5.5t0.5 -6q0 -6 -1.5 -11.5t-1.5 -10.5q0 -8 0.5 -15t0.5 -15q0 -15 -1.5 -30t-1.5 -30v-1q0 -1 0.5 -5t0.5 -9t0.5 -8.5t0.5 -5.5v-1q0 -6 -0.5 -12t-1 -13t-1 -13
t-0.5 -10q-3 -7 -3.5 -12t-1.5 -8.5t-5 -5.5t-14 -3h-8q-27 0 -53.5 1.5t-53.5 9.5q-2 2 -3.5 4.5t-2.5 5t-1 6v5.5v23l-0.5 4t-0.5 8t-0.5 7.5l-0.5 3.5v3q0 6 1 12t1 12q0 29 -2 57.5t-2 57.5v16zM89 202q3 4 2.5 8t-0.5 8q1 5 4.5 8t9 4.5t11 2t8.5 0.5q8 0 16 -1t15 -4
t11 -8.5t4 -15.5q0 -6 -0.5 -12t-2.5 -12q0 -2 -1.5 -5l-1.5 -3h-6v9h-3q-3 -2 -7 -4.5t-7.5 -5.5t-6 -6.5t-2.5 -7.5v-3.5v-2.5q1 -2 2 -2.5t3 -0.5q7 0 12 2.5t9.5 5.5t8.5 5.5t8 2.5q1 0 2 -1t1 -3t-1.5 -4t-4.5 -3.5t-5.5 -3t-4.5 -1.5l-2.5 -1t-5.5 -2t-5.5 -1.5
t-3.5 -0.5v-5l3 -1t5 -2q1 0 3 -0.5l4 -1l4 -1t3 -0.5q3 -2 5 -6.5t2.5 -10t0.5 -10.5v-8v-13q-1 -2 -3 -3.5t-4 -1.5v6t-0.5 8.5t-0.5 8.5v6v4t-0.5 5.5t-2 4.5t-3.5 3t-5 2t-6.5 2t-6 1.5t-3.5 1.5l-3.5 -0.5t-4.5 -0.5v-49l-0.5 -1l-0.5 -1h-2h-3h-4t-2 3q0 9 0.5 17
t0.5 16v17q0 2 -3.5 3.5t-9.5 3.5t-13 5t-12.5 5.5t-9.5 6t-4 7.5q5 0 9.5 -1.5t8.5 -4l8 -5t9 -4.5l1 -0.5t2 -0.5q3 -2 5 -3.5t6 -1.5h2h1q1 4 1.5 7t0.5 8q0 2 -2.5 5.5t-6.5 7t-8 5.5t-6 2t-3.5 -1t-1.5 -3l-1.5 0.5t-3 0.5t-1.5 1v26zM100 212v-2q0 -3 1 -3
q13 -3 27 -4.5t28 -1.5q5 0 5 6q0 7 -5 10t-11.5 4t-13.5 1h-11h-7.5t-6 -0.5t-4.5 -3t-2 -6.5zM97 194q0 -1 4 -5t9 -7.5t10 -6.5t7 -3q4 0 8 2t8 5.5t7.5 7l5.5 5.5l-3 4h-5t-12 0.5t-15 0.5h-12h-4h-5t-3 -3zM75 87q0 6 0.5 12t2 12t5.5 10t10 4h1h3.5t5.5 -0.5t5.5 -1
t3.5 -0.5t1 -1v-2q0 -2 -1.5 -2.5l-3 -1l-3 -1t-1.5 -3.5v-25q0 -2 -1.5 -3.5t-3.5 -1.5h-1.5t-1.5 2v25q0 1 -0.5 4t-1.5 4h-1h-2h-3.5t-2.5 -3v-7q0 -4 -1 -8.5t-3 -8t-6 -3.5zM148 96q-1 0 -3 0.5t-2 1.5v19q0 1 0.5 2t1.5 1q0 1 1 1q2 0 3.5 -2t2 -4.5t0.5 -4.5v-3
t-0.5 -4l-0.5 -3q0 -1 -1 -2zM73 71v4q5 0 8 -2t5.5 -5t4 -6.5t3.5 -6.5h1h2q2 0 4.5 1t5 3.5t4 4.5t2.5 4h8l1 -1.5t1 -2.5v-1v0l-13 -13v-2v-1q0 -5 1.5 -8.5t1.5 -7.5v0l-1 -5l-3 1q-1 2 -2 4.5t-2.5 4.5t-3.5 4t-4 2q-3 0 -5 -1.5t-4 -3.5t-4 -3.5t-4 -1.5q-3 0 -3 4v1
l9 10q1 0 1 1.5v1.5q0 7 -4.5 12t-9.5 9zM134 68v1q6 0 9 -2.5t5.5 -6t5 -6.5t6.5 -3q3 0 5 2.5t4 5.5t4 5t5 2q4 0 4 -3v-2q-5 -3 -8.5 -6.5t-3.5 -9.5q0 -3 2 -6t2 -6v-2t-2 -2q-3 0 -4.5 2.5l-3 5t-3.5 5t-6 2.5v-1l-13 -12h-9q0 3 2 4.5t4.5 3.5l5 4t2.5 5q0 6 -4.5 11
t-8.5 9z" />
</svg>
