<?xml version="1.0" standalone="no"?>
<!DOCTYPE svg PUBLIC "-//W3C//DTD SVG 1.1//EN" "http://www.w3.org/Graphics/SVG/1.1/DTD/svg11.dtd" >
<svg xmlns="http://www.w3.org/2000/svg" xmlns:xlink="http://www.w3.org/1999/xlink" version="1.1" viewBox="-10 0 266 256">
   <path fill="currentColor"
d="M166 223v14t1 14h1.5h1.5q3 0 4.5 -2t2.5 -5t1 -6v-5q0 -7 -1 -14t-1 -15v-4v-4l2 -2h21l1 -1.5t1 -2.5l0.5 -0.5l0.5 -0.5q0 -2 -3 -3t-5 -1q-4 0 -7.5 1t-7.5 1q-2 0 -4 -1t-2 -4t1.5 -4t4.5 -1.5t5.5 0t5 0.5t4.5 -1t2 -4q0 -1 -0.5 -2t-1.5 -1h-18l-3 -3v-18h3
q2 1 4 3t4 3.5t4.5 3t5.5 1.5q2 0 2.5 -1t0.5 -4q0 -5 -4 -7t-8.5 -3t-8.5 -2.5t-4 -4.5q0 -4 1.5 -5t4 -1.5t6 -0.5t6 -1t4.5 -3.5t2 -7.5q0 -2 -0.5 -4t-3.5 -2t-4 2.5l-2 5t-3.5 4.5t-7.5 2h-2t-1 -1v-12q0 -1 0.5 -1.5l0.5 -0.5q6 -4 9 -9.5t5 -12.5h2.5t4.5 -0.5t4 -2
t2 -3.5t-2 -2t-4 0.5t-5 0.5q-2 0 -2 -2l-0.5 -1.5t-0.5 -3t-1 -3t-2 -1.5h-1q-1 1 -1.5 2.5l-1 3t-0.5 3.5v2q-2 1 -4 1h-5q-5 0 -8 -1t-4.5 -2.5t-2.5 -3t-2 -1.5q-3 0 -3.5 1.5t-1 3.5t-1.5 3.5t-4 1.5h-3t-2 -2l-0.5 -2.5l-0.5 -2.5q0 -5 0.5 -8.5t1.5 -5.5t3.5 -3.5
t7.5 -1.5h2.5h1.5l1.5 0.5l3 1l3 1l1.5 0.5q9 2 17.5 3.5t16.5 3.5l0.5 0.5l0.5 0.5q4 0 4 -4q0 -2 -0.5 -3.5t-2.5 -1.5l-20 -3l-3 -6t-5 -8t-5 -7l-2 -3q0 -2 0.5 -2.5l1.5 -1.5q0 -1 1 -3t2.5 -3.5t2.5 -3.5l1 -2q1 0 2 -0.5l1 -0.5q5 0 8 5t4.5 11.5t3 11.5t4.5 5v-22
q0 -2 -1.5 -4.5t-3.5 -4.5t-4.5 -3.5t-4.5 -2.5l-2.5 -0.5t-4.5 -0.5h-4.5h-3.5h-75q-8 0 -13 3.5t-8.5 9t-5.5 12t-2 13.5q0 1 1.5 2t3.5 1q4 0 5.5 -5t3 -11.5t3 -12t6.5 -5.5l3 2.5t6 5.5t5 5.5l2 2.5q0 2 -2 4t-5 4.5t-5.5 5t-2.5 6.5v2.5t2 1.5q1 -1 3 -3.5t5 -5
t5.5 -5t5.5 -4.5h1q1 0 2.5 1.5t3.5 3t4 3.5t2 3q-2 1 -8 2.5t-13.5 3.5l-15 4t-14.5 4.5t-11 5.5t-4 7h4.5t2.5 -0.5l2 -1t4 -1.5q5 -3 12.5 -5.5t15.5 -5t15.5 -4.5t12.5 -2h3h2l0.5 0.5t0.5 1.5v21l-0.5 1l-0.5 1q0 1 -1 1.5l-1 0.5h-12q-2 0 -3 -2t-1 -4t-0.5 -4.5
t-2.5 -2.5q-2 1 -2.5 3t-1 5t-1 4.5t-2.5 1.5h-11l-1 -1l-1.5 -1.5t-2 -3.5t-1.5 -4h-1q-2 0 -2.5 1t-0.5 3t-0.5 3.5t-1.5 2.5q-2 2 -6 2t-8 -0.5t-7 0t-3 4.5q0 2 2 2.5t4 0.5q4 0 7.5 -0.5t6.5 -0.5t5 1.5t4 4l4 5t3 4.5v13l-0.5 1l-0.5 1h-2h-3q-4 0 -6 -2t-3 -4.5
t-1.5 -4.5t-2.5 -2q-3 0 -3 2v4q0 6 3 8.5t7 3t7.5 1.5t3.5 4t-4.5 5.5t-10 6t-10 7.5t-4.5 10q5 0 8.5 -2.5t6.5 -5.5t6 -5t7 -2l0.5 2t0.5 4v4v3l-0.5 2.5t-1.5 5t-2.5 4.5t-3.5 2h-21v3t2 3l2.5 0.5t3.5 0.5t3 -0.5t3 -0.5h1.5t3.5 -0.5t3.5 -0.5h1.5q1 0 2 0.5l1 0.5
q0 1 0.5 2.5l0.5 1.5q0 5 -4 7t-8.5 2.5t-9.5 0t-7 0.5q-1 0 -1.5 1t-0.5 2l0.5 1.5t1.5 1.5h25v5v5v3.5t-0.5 5t-0.5 5v2.5q-1 4 -2 7t-1 7v4t3 2q4 0 6 -3t3 -7.5t1 -9.5v-11q0 -5 0.5 -9t2.5 -6q1 -1 4.5 -2t7.5 -2t7 -2.5t3 -2.5v-25q0 -2 -1 -2h-2h-1l-1 1l-2 2l-2 2
l-1 1h-2.5t-3 -0.5l-3 -1t-2.5 -0.5v-3t-0.5 -4t-0.5 -4v-3q1 -3 1.5 -4t2.5 -1q1 0 2.5 0.5t3 1.5t2.5 2t3 1q3 0 3 -0.5t1 -4.5q2 -4 5 -7t7 -6h3q1 0 4 1.5t6.5 3t5.5 4t2 3.5q0 2 -1.5 4t-1.5 5h5q1 -2 2 -3.5t2.5 -3.5t3 -3t4.5 -1q2 0 3 2t1 5v5.5v3.5v3v2l-2 2h-14
q-2 -2 -4.5 -4t-4.5 -2v20q0 4 2 5.5t5 2t6 0t6 0t5 2t2 5.5v3.5t-1 4.5v15zM94 186q0 -2 1.5 -3.5t3.5 -2.5t4 -1.5t4 -0.5t4 0.5t2 2.5t-1.5 4t-4 4t-5 3t-4.5 1t-3 -3t-1 -4zM148 182l0.5 -1.5t1.5 -2.5q1 0 4 -0.5t4 -1.5h1q4 0 5.5 1t1.5 4q0 4 -0.5 5t-4.5 1h-4
t-4 -0.5t-3.5 -1.5t-1.5 -3zM98 136q0 -3 2.5 -4t6 -2.5t6 -4t2.5 -9.5q0 -1 -0.5 -2.5t-2.5 -1.5v0q-1 0 -1 1q-1 4 -2.5 8t-7.5 4q-1 0 -3 -2.5t-2 -3.5q0 -6 1 -8t2.5 -3t3 -1.5t3.5 -4.5q2 -2 3 -4t2 -3.5t2.5 -2t5.5 -0.5h5q2 1 3 2.5t1.5 3.5t0.5 4v3v4t-0.5 6.5l-1 7
t-0.5 5.5t-2.5 5t-6 5.5t-6.5 5t-4 1.5q-5 -1 -7.5 -2.5t-2.5 -6.5zM136 123q0 -8 0.5 -14.5t1.5 -15.5q0 -1 2 -2t3 -1q3 0 4.5 1.5t2 3t1 3.5t2.5 4q0 2 2 3l4 2t3.5 2t1.5 2v14q-6 0 -8.5 -0.5t-3 -2t-1.5 -3t-4 -3.5q-2 0 -2 1v2q0 6 3 8t6 3l6 2t3 4q0 4 -3 6t-7 2h-2
l-1 -2q-4 -3 -6.5 -4.5t-4 -3.5t-2.5 -4.5t-1 -6.5zM157 90h18q1 0 1 3v2q0 9 -9 9q-5 0 -7.5 -4.5t-2.5 -9.5zM89 98q0 -3 2.5 -3h4.5h4t2 2q0 3 -2.5 4t-4.5 1q-3 0 -4.5 -1t-1.5 -3zM150 52l-0.5 -1l-0.5 -1q0 -4 2.5 -6.5t5.5 -2.5h2h1l7 9v5q-4 0 -8.5 -0.5t-8.5 -2.5z
M115 34q0 -2 2 -5t4 -5.5t5 -4t5 -1.5q3 0 5.5 1t4.5 2.5t4 4.5t5 5v2v2q0 4 -2.5 7t-5.5 4.5t-6.5 3t-6.5 3.5q-1 0 -2 -2l-2 -4t-2 -3.5t-2 -2.5l-3 -2.5t-3 -4.5zM99 22q0 -3 2 -3.5t4 -0.5h5.5t2.5 4v3l-2 1q-1 1 -3 2.5l-2 1.5l-7 -6v-1v-1zM148 21l3 -3h13q0 1 -0.5 3
t-1.5 3.5t-2.5 2.5t-3.5 1v0h-1z" />
</svg>
