<?xml version="1.0" standalone="no"?>
<!DOCTYPE svg PUBLIC "-//W3C//DTD SVG 1.1//EN" "http://www.w3.org/Graphics/SVG/1.1/DTD/svg11.dtd" >
<svg xmlns="http://www.w3.org/2000/svg" xmlns:xlink="http://www.w3.org/1999/xlink" version="1.1" viewBox="-10 0 266 256">
   <path fill="currentColor"
d="M159 209q0 1 0.5 3.5t1 5.5t0.5 5.5v3.5q1 2 1.5 6t2.5 8t4.5 7t5.5 3t4 -2.5t1 -4.5q0 -5 -1.5 -8.5l-3 -7t-3.5 -7.5t-2 -8q0 -7 2 -12t5 -9.5t7 -8.5t7 -9q8 -11 9 -23t1 -25v-5v-6.5v-5.5v-3q0 -1 -0.5 -5t-1 -8.5l-1 -9t-0.5 -6.5q0 -1 -0.5 -2.5l-1 -3t-1.5 -3
t-2 -1.5q-4 -1 -7.5 -1.5t-7.5 -0.5q-11 0 -20.5 2.5t-18.5 6.5v1q0 2 2 3t3 1q9 0 18.5 -2.5t17.5 -2.5q6 1 8 7t3 14t0.5 16t-0.5 12v3v5v5v3q-2 7 -3.5 14t-4.5 13q-2 6 -6 11l-8 10t-7 10.5t-3 11.5zM101 245q1 2 2.5 3t3.5 1q3 0 4 -3t1 -5q0 -10 -1 -20t-1 -20v-20
q7 -6 11 -14t6 -17.5t2.5 -19t0.5 -16.5q0 -2 -0.5 -6.5t-0.5 -9t-0.5 -9t-0.5 -6.5q-2 -5 -4.5 -7.5t-6 -3.5t-8 -1.5t-9.5 -0.5q-7 0 -14.5 2.5t-14.5 2.5q-2 1 -2 2v2q0 2 0.5 4t3.5 2q9 0 17.5 -2.5t17.5 -2.5h5q2 0 4 2q1 5 2 8.5t1.5 6.5t1 6.5t0.5 7.5q0 12 -2 26
t-7 26q0 2 -2 4l-3.5 3.5l-3 3t-2.5 4.5v1.5t-0.5 4t-0.5 4.5v2v27v28zM132 180q0 2 0.5 3t3.5 1t6.5 -2.5t7 -5.5t6.5 -6.5t5 -4.5q1 -1 4.5 -3.5l7 -5t6.5 -4.5t4 -3v-4q-1 0 -5.5 2t-10 5t-12 7t-11.5 8t-8.5 7.5t-3.5 5.5zM58 176q0 2 1.5 2.5t2.5 0.5h1.5h0.5
q1 0 3.5 -0.5t3.5 -0.5q18 -19 38 -34q1 -3 3 -4t2 -4q0 -1 -0.5 -2.5t-2.5 -1.5v0l-1 1l-2 2t-4 3.5l-4 3t-2 2.5q-2 1 -5.5 3.5t-8 5t-9.5 6t-9 6.5t-6.5 6t-1.5 5zM137 144q0 2 1.5 2.5t2.5 0.5h1q1 0 3.5 -1.5l2.5 -1.5q2 -1 6 -4t8.5 -7t9 -7t5.5 -5q2 0 4.5 -2t2.5 -5
h-0.5h-0.5q0 -1 -0.5 -1.5l-0.5 -0.5h-1t-5 2t-8.5 5t-10 7t-10 7.5t-7.5 6.5t-3 4zM63 137q0 1 1.5 3t3.5 2v0h0.5h0.5l32 -19q1 -2 2.5 -3t3.5 -2t3 -2.5t1 -4.5q-4 0 -7.5 1t-5.5 5q-2 0 -5 1.5l-6 3l-6 3t-4 1.5q-1 1 -3.5 2.5t-4.5 3t-4.5 3.5t-1.5 2zM53 115l2 3h11
l3.5 -1.5t8 -4t10 -5.5t8.5 -5q1 0 2.5 -1t2.5 -2q1 0 4 -1.5t4 -1.5v-2q0 -2 -0.5 -3t-2.5 -1q-3 0 -8.5 2t-10.5 5l-10 6t-8 4h-2h-2h-3h-1q-1 1 -2.5 2t-2.5 2t-2 2.5zM137 109q0 1 0.5 2t2.5 1t9 -3.5t14 -8t12.5 -8.5t5.5 -6q-4 0 -11 3t-14.5 7t-13 8t-5.5 5zM66 51
q0 3 2 4t6 1q7 0 15.5 -1t16.5 -2.5t16 -2.5t15 -2h7.5t14 -0.5l15 -1t11.5 -0.5h16q3 0 3 -1.5v-3.5q0 -4 -1 -5t-4 -1h-4t-4 2q-6 1 -10.5 1.5l-9 1t-8.5 0.5h-9h-7q-3 -2 -3.5 -4.5t-0.5 -5.5q0 -2 0.5 -4.5t3.5 -2.5q1 0 5 -0.5t8.5 -0.5t8.5 -0.5t5 -0.5h4t4 -0.5
t3.5 -2t1.5 -3.5q0 -3 -0.5 -4t-3.5 -1q-8 0 -16.5 2t-16.5 3h-14q-3 0 -10.5 0.5t-15.5 1.5t-15 1.5t-10 1.5q-1 0 -2.5 2t-2.5 2v1v1l2 1h6q10 0 19.5 -1.5t19.5 -1.5q5 0 6 3t1 8t-5 7t-12.5 2.5t-16.5 0t-16.5 -0.5t-12.5 1t-5 6z" />
</svg>
