<?xml version="1.0" standalone="no"?>
<!DOCTYPE svg PUBLIC "-//W3C//DTD SVG 1.1//EN" "http://www.w3.org/Graphics/SVG/1.1/DTD/svg11.dtd" >
<svg xmlns="http://www.w3.org/2000/svg" xmlns:xlink="http://www.w3.org/1999/xlink" version="1.1" viewBox="-10 0 266 256">
   <path fill="currentColor"
d="M94 248q1 0 1.5 0.5l0.5 0.5q1 0 2 1t2 1q2 -1 3 -4.5t1 -5.5q0 -5 -1.5 -8.5t-1.5 -7.5q0 -12 2.5 -19.5t6.5 -13.5t7.5 -12t5.5 -15q3 -19 3 -38.5v-38.5q0 -5 -1 -7.5t-6 -6.5h-19h-20h-5.5t-4.5 0.5t-3 2t-1 3.5q0 3 0.5 4.5t3.5 1.5q8 0 16.5 -2t17.5 -2h9
q2 2 3.5 6t1.5 8.5v9v6.5v6v8t-1 7.5t-3 5.5q-2 1 -7 4t-11.5 6t-14 6.5t-13.5 6.5t-10 5.5t-5 3.5v2v2.5v2.5v1q7 0 15 -3t15 -8t13.5 -10.5t12.5 -8.5h2q2 0 2.5 1.5t0.5 3.5q0 6 -2 12t-5.5 11.5t-7 10.5t-5.5 11q0 2 -1 7t-1.5 10t-0.5 9.5v7.5q0 1 0.5 3t1 4.5t1 4.5
t0.5 3zM168 210q0 4 1.5 10.5t3.5 12.5t6 10.5t9 4.5h4l1.5 -3t0.5 -3q0 -3 -1.5 -5.5t-3.5 -4.5t-4 -4.5t-3 -4.5q-2 -4 -2 -8v-8q0 -6 1.5 -10.5t4 -8.5l5 -8t4.5 -9q6 -11 7.5 -25.5t1.5 -26.5v-12.5t-1 -13.5t-3.5 -12.5t-7.5 -9.5h-10q-11 0 -21.5 1.5t-21.5 1.5
q-2 0 -2.5 0.5t-1 2t-0.5 2.5v1h50q2 0 3 3.5t2 8t1.5 8.5l0.5 4q0 4 -1.5 5.5t-3.5 2t-4.5 1t-5.5 2.5q-1 0 -3 1l-5 2.5l-5 2.5t-3 2q-1 0 -3 1.5t-4 2.5t-4 2.5t-3 1.5t-3 1t-4 1.5t-3.5 2t-1.5 3.5q0 1 0.5 2t2.5 1q7 0 13.5 -3.5t12.5 -7.5t12.5 -8t12.5 -4h1
q1 4 1.5 7t0.5 6q0 10 -1.5 19.5t-5.5 18.5q-2 6 -5 10.5t-5.5 8.5t-4.5 9t-2 12zM131 170q0 2 1.5 2.5t3.5 0.5q4 0 11 -2.5t14 -7t13 -9.5t8 -8q0 -2 -1 -2h-3h-1l-43 21q-2 1 -2.5 2t-0.5 3zM53 141q0 3 3 3h4t6.5 -1.5t10.5 -4.5t12.5 -6.5t11.5 -7t8.5 -6.5t3.5 -5
t-2 -2h-2q-3 0 -4.5 1t-3 2.5l-3 3t-4.5 1.5q-8 4 -17.5 7.5t-16.5 7.5q-1 0 -3.5 2.5t-3.5 4.5v0zM53 112q0 3 2 4.5t5 1.5q4 0 12 -3t16 -7t14 -8.5t6 -7.5v-2t-2 -1l-2.5 1t-6.5 2.5t-8.5 3.5t-8.5 4l-7 3.5t-5 1.5q-3 1 -6.5 1.5t-6.5 1.5q-1 1 -1.5 2t-0.5 2zM135 112
q0 1 1 2t3 1t8.5 -3.5t14 -7t14 -6.5t6.5 -4q0 -2 -1.5 -2h-2.5q-2 0 -9 2t-14.5 5t-13.5 6.5t-6 6.5zM101 13q-3 0 -7.5 1t-8.5 3t-7 5t-3 7v33h2.5t3.5 -0.5t3.5 -2t1.5 -3.5v-24q0 -3 4.5 -5.5t11.5 -4t15 -2.5t16 -1.5t13.5 -1t6.5 -0.5h6q3 0 6.5 0.5t6.5 1t5 2.5
q1 9 2 19t1 18q1 1 2 1.5t2 0.5q2 0 3.5 -2t2.5 -5t1.5 -6t0.5 -4q0 -3 -0.5 -8l-1 -10t-2.5 -9t-6 -5h-5h-7h-7h-5h-15h-13.5t-13 0.5t-15.5 1.5zM96 53q0 2 2.5 3t5 1h5.5h3q7 0 13 -0.5t12 -0.5t12.5 -0.5t14.5 -0.5q1 -1 3 -2t2 -2q0 -3 -2 -3.5t-4 -0.5h-4h-9
t-14.5 0.5t-14.5 0.5h-8h-5h-5.5t-4.5 1.5t-2 3.5zM101 35q0 2 1 2.5t3 1t3 0.5h3q12 0 26 -1.5t25 -2.5q2 0 2 -3v-3q-14 0 -28.5 0.5t-29.5 0.5q-2 1 -3.5 2t-1.5 3z" />
</svg>
