<?xml version="1.0" standalone="no"?>
<!DOCTYPE svg PUBLIC "-//W3C//DTD SVG 1.1//EN" "http://www.w3.org/Graphics/SVG/1.1/DTD/svg11.dtd" >
<svg xmlns="http://www.w3.org/2000/svg" xmlns:xlink="http://www.w3.org/1999/xlink" version="1.1" viewBox="-10 0 266 256">
   <path fill="currentColor"
d="M86 209v4.5t0.5 8t0.5 8v4.5v3v5t1 5t3 2q4 0 6 -3t2 -6q0 -5 -1 -10l-2 -10l-2 -10t0 -11q0 -9 3 -14.5t7 -10.5l8 -10t6 -12q0 -1 0.5 -4t1.5 -6.5t1.5 -6.5t0.5 -5q2 -12 3 -23t1.5 -21.5t1 -21.5t0.5 -22q0 -2 -0.5 -4.5t-0.5 -4.5v-4v-2l-3 -9h-1.5t-3 -0.5t-3.5 -1
t-3 -0.5h-7h-4q-2 0 -4.5 0.5t-4.5 1.5t-2 4l0.5 1t0.5 2l1 1l1 1h17q3 0 3.5 1.5t0.5 3.5q0 1 -0.5 2l-0.5 1l-25 28v1v1q0 4 4 4t7 -3t5.5 -7t5 -7.5t7.5 -4.5l1 3v2v5t-0.5 5.5t-0.5 4.5q-1 1 -2 3.5t-2 3.5l-23 25q-1 0 -2.5 3l-1.5 3q0 1 1.5 2t2.5 2v0q4 0 7 -2.5
t5.5 -6.5t4.5 -7.5t5 -5.5l1 1v21q-1 1 -4 4.5t-6.5 7l-7 7l-4.5 4.5l-1 1.5l-2 3t-2 2.5l-1 1v1q0 2 1.5 2.5t2.5 0.5q3 0 4 -1l4 -4q1 -1 2.5 -3t3.5 -4t3.5 -4t2.5 -3v0q2 0 2.5 1.5t0.5 2.5q0 8 -2 13.5t-5 10.5t-7 9.5t-7 9.5q-2 3 -3 8l-2 10t-1 10v9zM127 247
q0 1 1 1.5l1 0.5h1q3 0 5 -3t2.5 -7.5t0.5 -8.5v-6q0 -3 0.5 -9t1 -13.5t0.5 -16t0.5 -16t0.5 -13.5t1 -9h4q3 0 5.5 1t4.5 4v16q0 9 -1 18.5t-2 18.5t-2 18.5t-1 18.5v1l1 1.5t2 1.5t2.5 -1t2.5 -3.5t2 -4.5t1 -3q3 -21 3.5 -42.5t-0.5 -42.5q1 -2 3 -3t4 -1t4.5 1.5
t2.5 3.5v94q0 2 2 3t3 1t3 -1t2 -3v-70q0 -1 -0.5 -2.5t-1.5 -2.5v-1q0 -5 1 -11.5t2 -11.5q2 -1 4.5 -1.5t5 -0.5t5 -0.5t3.5 -0.5v-3q0 -4 -1 -4.5t-5 -0.5q-5 0 -9 1t-9 1h-3h-2l-1 -2v-24h3l16 9q1 0 1.5 -0.5t1 -1.5t0.5 -2v-2q0 -4 -1.5 -6t-4 -3.5t-5.5 -2.5t-5.5 -3
t-4 -5.5t-1.5 -8.5v-3v-2l5 -2h27v-3t-0.5 -3.5t-1.5 -2.5t-3 -1h-22q-3 0 -4 -2t-1 -4q0 -4 4 -5t8.5 -3.5t8.5 -7t4 -13.5q0 -3 -0.5 -6t-1.5 -6.5t-2.5 -5.5t-4.5 -3h-15h-10q-4 0 -8.5 0.5t-9 0.5t-10.5 1q-2 1 -3 2.5t-1 3.5q0 3 3 4t6 1.5t6 0.5h3q2 0 2 2v3
q0 11 -6.5 19t-15.5 11v6q13 0 21 -8t9 -22q0 -1 0.5 -4t0.5 -5v-2l4 -2h20q1 0 1.5 1t0.5 2.5v2.5v2q0 5 -1.5 7.5t-4 4t-6 2.5t-7.5 2q-4 4 -4 10t1 10q-1 1 -3 2t-4 1q-11 3 -16 6t-7.5 8t-3 12.5t-0.5 20.5v6v10v10v6q0 11 -1.5 22.5t-3 22.5t-2.5 22.5t-1 22.5v4v4z
M50 195v10t0.5 7.5t0.5 8t1 10.5q0 1 0.5 3.5t1 4.5t2 3.5t3.5 1.5t3 -2t2 -4.5t1 -5v-3.5q0 -6 -1.5 -12t-1.5 -13v-6v-8v-7.5t1 -6.5q2 -6 4.5 -10.5t5.5 -9t5 -9t3 -10.5q2 -23 3.5 -46.5t1.5 -46.5v-3v-5v-4.5v-2.5q0 -1 -0.5 -3l-1 -4t-2 -4t-3.5 -2h-22q-3 0 -5 3
t-2 5q0 1 0.5 2.5t1.5 2.5q5 -1 11 -1t11 2q1 0 1.5 0.5t0.5 1.5l-0.5 1t-1.5 2q-5 7 -12 12.5t-13 12.5q0 1 -0.5 3l-0.5 2q0 1 0.5 2l0.5 1q0 1 1.5 1h2.5q4 0 7 -2.5t5.5 -6t4.5 -6t4 -2.5t2.5 2t0.5 3q0 7 -4.5 12t-9.5 9t-9.5 8t-4.5 9v3.5t2 1.5q4 0 6.5 -2.5t5 -5.5
t4.5 -5.5t6 -2.5v2.5t0.5 3t1 3.5t-0.5 2q-1 4 -5.5 9t-9.5 11t-9 11.5t-4 9.5q0 2 1.5 2.5t2.5 0.5q5 0 7.5 -3t4.5 -6.5t4 -7.5t5 -7l2 2v2v4q0 8 -2 15t-5.5 13.5t-7.5 12.5t-8 13v18zM164 112q3 0 4 1.5t1 5.5q0 6 -1.5 10t-3.5 8q0 1 -0.5 1.5t-1.5 0.5h-20v-17
q0 -1 2.5 -2.5t6.5 -3.5t8 -3t5 -1zM162 78q4 0 5.5 3.5t1.5 6.5q0 2 -0.5 3.5t-1.5 3.5l-3 2.5t-7.5 5.5t-8 5.5t-3.5 3.5h-1h-1v-11.5t2 -11.5t6 -8t11 -3z" />
</svg>
