<?xml version="1.0" standalone="no"?>
<!DOCTYPE svg PUBLIC "-//W3C//DTD SVG 1.1//EN" "http://www.w3.org/Graphics/SVG/1.1/DTD/svg11.dtd" >
<svg xmlns="http://www.w3.org/2000/svg" xmlns:xlink="http://www.w3.org/1999/xlink" version="1.1" viewBox="-10 0 266 256">
   <path fill="currentColor"
d="M189 245l2 4t3 2q4 0 6 -3t2 -6q0 -5 -2.5 -10.5t-3.5 -9.5q-2 -7 -3.5 -14t-3.5 -14q-1 -4 -1 -9t-0.5 -10t-1 -9.5t-1.5 -9.5v-70q0 -3 -2.5 -6t-5.5 -3h-36q-2 0 -3.5 -1.5t-2 -3.5l-1 -4t-0.5 -3v-3t0.5 -1t2 -0.5t4.5 -0.5q2 0 6.5 -0.5t10.5 -1t10.5 -1t6.5 -0.5
q3 0 4 -2t2 -4.5t1 -5v-4.5v-5q-1 -1 -2 -1.5t-2 -0.5v0q-3 0 -4.5 2t-2.5 4.5t-1.5 5t-0.5 3.5q-4 3 -10 3.5t-11 0.5h-4q-4 0 -5 -1q-2 -1 -2.5 -2t-0.5 -3q0 -4 4.5 -5t9.5 -1.5t9.5 -2t4.5 -7.5v-17l-1 -0.5t-2 -0.5h-1q-1 0 -2.5 0.5t-2.5 2.5q-1 7 -1 11t-2 5.5t-6 2
t-11 0.5v-18l-1 -1t-2.5 -2l-3 -2t-2.5 -1h-10h-8h-7.5t-7.5 0.5t-9 1.5l-0.5 0.5l-0.5 0.5q0 2 3 4t5 2h1q1 0 4.5 -0.5t7.5 -1t7 -1t4 -0.5h4q2 0 3.5 1.5t2.5 4t1 5v4.5v2.5t-1 1.5h-27q-2 0 -2.5 -2t-0.5 -4.5t-0.5 -4.5t-2.5 -2q-3 0 -4 2t-1 4t0.5 4.5t2 4.5t3.5 3.5
t5 1.5h22q1 0 3 2l3 3l0.5 0.5l0.5 0.5q0 3 -4 4.5t-6 1.5h-12h-10t-10 -1q-2 -1 -3.5 -3.5t-2.5 -5t-2.5 -5t-4.5 -2.5h-1l-2 2t-1 2v0v1q0 1 0.5 3.5l1 5t2 5t2.5 3.5l10.5 1.5t9.5 0.5t11.5 -1t11.5 -1h2q1 0 3.5 0.5t3.5 0.5v3q0 3 -1.5 6.5t-2.5 6.5h-3t-4.5 0.5
t-4.5 0.5h-2q-3 0 -8.5 0.5t-12 0.5t-12 0.5t-7.5 0.5q-1 0 -1.5 1.5t-0.5 2.5q0 2 1.5 3t3 1.5t3.5 0.5h3q19 0 37.5 -2.5t37.5 -2.5h4h6t5 0.5l2 0.5l3 1q-1 40 3.5 79.5t13.5 79.5zM139 240q0 3 3 3q4 0 7 -6t5 -15t4 -20t3.5 -21t2 -17t0.5 -9v-1q0 -8 -3.5 -13
t-9.5 -7.5t-13.5 -4t-15 -1.5h-14.5t-12 1l-6 -3v-11q0 -1 1 -1.5l3 -1.5t3.5 -1.5t2.5 -0.5l58 -3l0.5 -0.5l0.5 -0.5q1 -1 1.5 -2l0.5 -1q0 -1 -1.5 -2l-1.5 -1h-10q-7 0 -15 0.5t-16 0.5q-8 1 -15.5 1t-13 2t-8.5 7t-3 16v0q1 2 2 3.5t2.5 3.5t3 3.5t2.5 1.5v1
q0 3 -2 4.5t-3 4.5q-2 6 -3 12.5t-3 12.5q-2 4 -5.5 10.5l-7 13t-6.5 12t-3 6.5v2.5t2 1.5q6 0 11.5 -6t9.5 -15t7.5 -20t5.5 -20t3.5 -15l1.5 -6h15q0 6 -1.5 13t-4 15t-5 15.5t-4.5 12.5l-1 1.5t-1.5 3t-1.5 3l-1 1.5q0 1 -0.5 1.5l-0.5 0.5q-2 3 -3 7.5t-2.5 8t-4 6.5
t-2.5 7q0 3 3 3q5 0 7.5 -2t4 -5.5t2 -7t1.5 -6.5q3 -10 7 -20t7.5 -19.5t6 -19.5t3.5 -21h5q3 0 5.5 0.5t4.5 2.5v5v5v5.5t-1 5t-1.5 5t-1.5 5.5q-3 8 -4.5 16t-3.5 16q-3 9 -7.5 16.5t-6.5 16.5q0 2 1 2h2q5 0 9 -4q4 -16 9.5 -30.5t9.5 -29.5q0 -1 1 -5t1.5 -8.5t1 -8
t1.5 -4.5q0 -1 1 -4t2 -4q5 2 5.5 6t0.5 9v4v3t-0.5 5t-1 8.5l-1 9t-0.5 6.5t-0.5 3l-1 2t-0.5 2v4q-2 8 -5 18t-4 20v1z" />
</svg>
