<?xml version="1.0" standalone="no"?>
<!DOCTYPE svg PUBLIC "-//W3C//DTD SVG 1.1//EN" "http://www.w3.org/Graphics/SVG/1.1/DTD/svg11.dtd" >
<svg xmlns="http://www.w3.org/2000/svg" xmlns:xlink="http://www.w3.org/1999/xlink" version="1.1" viewBox="-10 0 266 256">
   <path fill="currentColor"
d="M82 175q1 0 2 0.5t1 3.5v69q0 2 1 2h2h2t3 -2l0.5 -2t0.5 -4v-3.5v-2.5v-57q1 -3 2 -4t4 -1t4.5 2t3 5t2 6.5t0.5 5.5q0 1 0.5 4.5t0.5 6.5t0.5 6l0.5 3v6v10v9v6q4 0 6 -2.5t2.5 -6t0.5 -7v-6.5v-10.5v-13.5t-1 -13.5t-4 -9.5t-6.5 -4.5t-6.5 -3t-5 -4t-2 -8.5
q0 -4 3 -5.5l7 -3.5t7 -5t3 -11v-5.5t-4 -2.5h-2q-1 0 -2 1l-3 16q0 2 -1 2h-2q-3 0 -4.5 -2t-1.5 -5v-3v-1q0 -1 0.5 -3l0.5 -2q0 -1 0.5 -4.5t0.5 -6.5q0 -4 -0.5 -7t-0.5 -4q2 -3 7 -4.5t10.5 -3.5t10 -4t4.5 -5q0 -2 -1.5 -3t-3.5 -1q-4 0 -6.5 1.5t-5 3.5t-5.5 3.5
t-7 1.5q-1 0 -2 -2t-1.5 -5t-0.5 -5v-3q0 -4 4 -5.5t9.5 -2.5t10 -4t4.5 -9q-3 0 -6 1t-5.5 2.5t-5.5 2.5t-6 1t-3.5 -1.5t-0.5 -4.5q0 -7 2 -10.5t5 -5.5t6.5 -3t6.5 -1.5t5 -2t2 -4.5t-1 -3h-3q-4 0 -8 2.5t-9 2.5h-2t-2 -2v-17q0 -2 -2 -2h-2q-1 0 -3 0.5t-2 2.5v24
q0 2 -5.5 3.5t-11.5 3t-11 4t-5 5.5q0 2 2 2.5t4 0.5q4 0 6.5 -1t5.5 -2l6 -2t7 -1v18l-2.5 1.5t-3.5 2.5q-2 0 -5.5 1t-7.5 2t-7.5 2.5t-3.5 4.5v1q1 0 2 1.5t2 1.5v0h1q5 -1 12 -3.5t13 -2.5q2 0 2 2v4q0 5 -3 8t-7.5 5.5t-9.5 4t-9 3t-6.5 3t-2.5 3.5q0 1 1.5 2t2.5 1
l2.5 -0.5l5 -1t4.5 -1t3 -0.5q2 0 3.5 -1.5t3 -2.5l3 -2t3.5 -1t3.5 0.5t0.5 3.5v8v7v4.5t-0.5 5.5t-0.5 6l-3 1.5t-2 0.5q-3 0 -5 -1.5t-3 -4t-1.5 -5.5t-0.5 -5h-1h-2q-6 0 -6 7q0 4 0.5 8t4.5 6h2.5t3.5 0.5t4 0.5h2q2 0 4 1t3 2v6v4q0 3 -2 5q-7 -2 -12 1.5t-8.5 9.5
t-5 14.5t-2 16.5t-0.5 15v11v4t3 2q2 0 5 -1t3 -4v-7v-10v-10.5v-6.5q0 -3 0.5 -7.5t2.5 -9t4.5 -8t6.5 -3.5zM127 209q0 4 2 4.5t4 0.5q7 0 14.5 -0.5t15.5 -1.5t15.5 -1.5t14.5 -1.5q4 -1 7.5 -1.5t3.5 -4.5q0 -2 -1.5 -4.5t-3.5 -2.5q-9 0 -17 2.5t-16 2.5v-41
q0 -1 1.5 -3.5t2.5 -2.5h21l2 -2q0 -1 0.5 -2l0.5 -1v-0.5v-0.5q0 -2 -1.5 -3t-2.5 -1h-2q-1 0 -3.5 0.5t-6 1t-6 1t-3.5 0.5l-1 -1l-0.5 -3.5t-1 -7.5t-0.5 -8.5v-7.5v-6v-4l3 -2h4.5h7t6.5 -0.5t4 -0.5q2 0 4 -0.5l4 -1t3.5 -2t1.5 -3.5q0 -3 -1.5 -3.5t-4.5 -0.5
q-7 0 -14 1.5t-14 2.5l-2 -1v-34h26q3 0 3 -2v-3q0 -2 -1 -4.5t-3 -2.5q-5 0 -9.5 1.5t-9.5 1.5h-3t-2 -3v-8q0 -5 1 -9t1 -9q0 -3 -1 -5t-4 -2q-2 0 -5 1.5t-3 4.5q0 2 1 3.5t1 3.5t-0.5 5.5l-1 7t-1 6.5t-2.5 4q-1 0 -3 0.5t-4.5 0.5t-5 0.5l-2.5 0.5q-2 0 -5 1t-3 4v1.5
t1 1.5h24v33q0 1 -2.5 2l-2.5 1q-3 0 -7.5 -0.5t-9 0t-7.5 2.5t-3 6q7 0 13.5 -1t13.5 -1q1 0 2 0.5t1 1.5v37l-2 3h-15h-2h-4t-4 0.5t-3 2.5v0v1v0v0l3 3l2 2h1h1l10 -2t10 -1h2t1 2v44l-2 2h-2.5h-5t-4.5 0.5t-3 0.5h-2t-3.5 0.5t-3.5 1.5t-2 3z" />
</svg>
