<?xml version="1.0" standalone="no"?>
<!DOCTYPE svg PUBLIC "-//W3C//DTD SVG 1.1//EN" "http://www.w3.org/Graphics/SVG/1.1/DTD/svg11.dtd" >
<svg xmlns="http://www.w3.org/2000/svg" xmlns:xlink="http://www.w3.org/1999/xlink" version="1.1" viewBox="-10 0 266 256">
   <path fill="currentColor"
d="M102 243q0 2 0.5 4.5t3.5 2.5t5 -2t3 -5t1 -6v-5q0 -14 -0.5 -28.5t-0.5 -29.5q0 -22 0.5 -44.5t0.5 -45.5v0q0 -3 -0.5 -7.5t-0.5 -5.5q-1 -2 -3 -4.5t-4 -2.5h-40v-7t0.5 -9.5t2 -8t5.5 -4.5l56 -4q2 -1 2.5 -2.5t0.5 -2.5q0 -3 -3 -5h-5h-5h-6h-5h-1t-2 0.5l-2 1
l-1 0.5h-20t-15.5 1.5t-10.5 7.5t-5 18q-1 3 -1.5 10l-1 14t-1 13t-0.5 8v15q0 18 1 29.5t6 18.5t15.5 9.5t30.5 3.5l1 0.5t1 1.5v0q0 7 -1 14t-1 14q0 5 1 9t1 9q0 6 -1 12t-1 12zM188 248q1 2 2.5 2h2.5q5 0 6 -4t1 -8q0 -3 -1.5 -9.5t-3 -14t-4 -14t-3.5 -10.5
q0 -3 -1.5 -6.5t-3 -7.5t-2.5 -7.5t-1 -7.5q0 -2 2.5 -4.5t5.5 -4.5t6 -3.5t5 -3.5l2.5 -5t2.5 -6t1.5 -6.5t0.5 -5.5q0 -1 -0.5 -6.5t-1.5 -11t-3 -10.5t-6 -5h-23q-1 0 -1.5 -1.5t-0.5 -3.5v-4v-2v-8t2 -9q0 -2 3 -2.5t7 -0.5h8.5t8 -0.5t6 -1.5t2.5 -4q0 -2 -1.5 -3.5
t-3.5 -1.5h-32v-36q0 -1 -3 -2t-4 -1q-3 0 -5 1.5t-2 4.5q0 15 2 30t2 30v2q-1 1 -1 3t-0.5 4.5t-0.5 4v1.5l-2 2h-22l-1.5 1.5t-1.5 2.5q-1 2 1.5 3.5t3.5 1.5h51q3 0 4.5 2.5t2 6t0.5 7v4.5q0 3 -1 7.5t-3 8.5t-5.5 6.5t-7.5 2.5h-1h-1q-1 -3 -1.5 -6.5t-2 -7t-4 -5.5
t-6.5 -2h-2h-1q-1 1 -4.5 1.5t-7.5 1t-7 1.5t-5 1q0 1 -0.5 2.5t-0.5 2.5q0 2 3 2.5t4 0.5h3h1.5t3.5 -0.5t3 -1t2 -0.5q6 0 10 2.5t4 9.5q0 2 -2.5 4t-6 3t-8 1.5t-8 1.5t-6 2.5t-2.5 3.5q0 3 1.5 4t3.5 1q4 0 7.5 -1t6.5 -2.5t6.5 -2.5t6.5 -1q2 0 3 1.5t2 4t1.5 4.5
t0.5 3q4 19 6.5 37.5t8.5 36.5zM61 126v-3.5v-3.5l4 -1h35q1 0 1.5 0.5t0.5 1t1 1.5l1 1v33l-4 3h-20q-6 0 -9.5 -3.5t-6 -8.5t-3 -10.5t-0.5 -9.5zM61 105v-24q0 -2 1.5 -3.5t2.5 -1.5q7 -2 12 -2h11h11q2 1 3 3.5t1.5 6t0.5 6.5v5q0 3 -0.5 6t-3.5 5q-16 2 -31 2h-4z" />
</svg>
