<?xml version="1.0" standalone="no"?>
<!DOCTYPE svg PUBLIC "-//W3C//DTD SVG 1.1//EN" "http://www.w3.org/Graphics/SVG/1.1/DTD/svg11.dtd" >
<svg xmlns="http://www.w3.org/2000/svg" xmlns:xlink="http://www.w3.org/1999/xlink" version="1.1" viewBox="-10 0 266 256">
   <path fill="currentColor"
d="M187 205v44q0 1 1 1.5t2 0.5q4 0 6 -4t2 -8q0 -21 -1 -43.5t-1 -43.5q0 -1 -0.5 -4t-0.5 -6t-0.5 -5l-0.5 -2l-6 -6h-36q-1 0 -1 -2v-3q0 -4 3 -6t8 -3t11 -1.5t11 -1t9 -1.5t4 -4q1 0 0.5 -2t-0.5 -3q1 -1 3 -1.5l4 -1t3 -1.5t1 -3q0 -4 -1.5 -6.5t-4 -4.5t-4.5 -5
t-2 -7t1 -8.5t1 -8.5q0 -6 -3 -9.5t-7.5 -5.5t-10 -2.5t-10.5 -0.5h-1h-5t-5.5 0.5t-5 0.5h-3.5q-1 1 -4 1.5l-3 0.5v5h1.5t3 0.5t4 0.5h3.5h9t12 0.5t10.5 3t4.5 8.5q0 3 -0.5 5t-3.5 2h-4l-1.5 -1t-3 -1.5t-3 -1.5l-1.5 -1q-7 -2 -13.5 -2.5t-13.5 -0.5h-4q-2 0 -4 0.5
t-4 2t-2 3.5t2 3.5t4 1.5q3 0 6 -1t6 -1q2 0 7 0.5t10 1.5t8.5 3t3.5 5q0 2 -1 2t-3 1q-2 0 -4 0.5t-4.5 1.5t-4 1h-2.5t-4 0.5t-6.5 0.5t-6.5 0.5t-5 0.5q-2 -1 -2.5 0.5t-0.5 3.5q0 3 2.5 3h5.5q12 0 22.5 -2.5t21.5 -4.5h1q2 0 4 2t3.5 4.5t2 5t0.5 4.5q0 1 -6.5 2.5
t-14.5 2.5t-15.5 3t-10.5 4q-4 2 -5.5 7t-2.5 8v11t-0.5 16.5t-0.5 16.5v11v1q0 2 0.5 5.5t1.5 7.5t3 6.5t6 2.5h36zM48 227v2.5t1 2.5h4h3t3 -2q0 -7 0.5 -13.5t0.5 -13v-12.5v-13q0 -9 -1 -17.5t-1 -16.5q0 -5 2 -8t7 -3h3t3 2q2 44 1 88q0 2 1 2.5t2 0.5q2 0 4 -1t2 -4
v-86q0 -2 3 -2h2q3 0 5.5 1.5t2.5 5.5v76l2 10h0.5h0.5q3 0 5.5 -2t2.5 -5v-1q0 -1 -0.5 -3.5t-1 -5.5l-1 -6t-0.5 -4v-67q0 -2 2 -2h3q4 0 6 3t2 7t-0.5 8.5t-0.5 6.5q0 1 0.5 4t0.5 6.5t0.5 6.5t0.5 4v5v8v7v5v5t0.5 8.5t0.5 8.5v6q1 0 1.5 1.5l0.5 1.5h1q5 0 6 -2.5
t1 -6.5q0 -31 -2.5 -62t-5.5 -62v-1v-1q0 -3 1.5 -6t1.5 -7q0 -6 -4 -8.5t-9 -4t-10 -2t-8 -2.5v-4v-4t-0.5 -4.5t1.5 -4.5h6q5 0 9.5 -1t8 -2.5t3.5 -4.5v0q0 -1 -0.5 -1.5t-1.5 -0.5h-23q-2 0 -2.5 -3t-0.5 -5v-1v-2t0.5 -2.5t0.5 -2.5v-1q0 -3 -2.5 -5.5t-5.5 -2.5
q-2 0 -4.5 1t-2.5 4q0 10 1.5 20.5t1.5 20.5q0 3 -0.5 5t-2.5 4q-7 0 -12.5 1.5t-10 4.5t-6.5 8t-2 12v72q1 6 1 13v12q0 9 -0.5 17.5t-0.5 16.5zM147 179v-2q1 0 1.5 -2.5t0.5 -3.5q7 -1 13 -1.5t13 -0.5q2 0 5 0.5l3 0.5l2 3v22l-2.5 1.5l-2.5 1.5h-10h-8q-3 0 -5 -1
t-3.5 -3t-2.5 -6l-0.5 -1t-1.5 -2.5t-1.5 -2.5l-0.5 -1v-2zM147 148q0 -6 4 -8t9 -3t10.5 -0.5t8.5 0.5q2 0 3.5 2t2 4.5t0.5 5v3.5v5q0 2 -2 3q-8 1 -13 1.5t-12 0.5h-6q-2 -1 -3 -2.5t-1.5 -4t-0.5 -4.5v-3zM58 115v-9.5t0.5 -10.5t3 -9t7.5 -4h1h1q0 1 0.5 3.5t1.5 2.5
v27q0 2 0.5 3t0.5 3t-0.5 3.5t-2.5 1.5h-11l-1 -3q-1 -1 -1 -3v-5zM80 93q0 -2 0.5 -4.5t1.5 -5t2.5 -4.5t4.5 -2q2 0 3 1.5t1.5 3t0.5 3.5v3v18v17q0 3 -2.5 3h-4.5h-2h-2q0 -1 -1 -5.5t-1 -10t-0.5 -10.5t-0.5 -7zM106 80q5 0 7 4t2.5 9.5t0 10.5t-0.5 8q0 4 -1 7.5
t-5 3.5q-2 0 -4.5 -1t-2.5 -4v-34q0 -1 1.5 -2l1.5 -1q0 -1 1 -1v0z" />
</svg>
