<?xml version="1.0" standalone="no"?>
<!DOCTYPE svg PUBLIC "-//W3C//DTD SVG 1.1//EN" "http://www.w3.org/Graphics/SVG/1.1/DTD/svg11.dtd" >
<svg xmlns="http://www.w3.org/2000/svg" xmlns:xlink="http://www.w3.org/1999/xlink" version="1.1" viewBox="-10 0 266 256">
   <path fill="currentColor"
d="M64 247q0 3 1.5 3.5t2.5 0.5q3 0 5 -1.5t5 -3.5q0 -3 1.5 -10.5t3 -16t3 -16t2.5 -10.5l0.5 -2t0.5 -3t0.5 -3.5t0.5 -5t0.5 -5t0.5 -3.5q1 -3 5 -3h6h3.5t3.5 2v15t1 13t1.5 12.5t2.5 14.5q0 3 0.5 7.5t1 8.5t2.5 7t6 3q2 0 3 -1.5t1 -3.5q0 -3 -0.5 -5.5t-2 -5
t-2.5 -5.5t-1 -5q-3 -12 -5 -25.5t-2 -25.5v-4.5t2 -2.5h21q3 0 3.5 -2t0.5 -3q0 -3 -2.5 -3.5t-4.5 -0.5q-12 0 -23 1.5t-22 1.5q-3 0 -7.5 0.5t-9.5 0t-9 -2t-6 -5.5q-2 -5 -2.5 -9l-1 -8t-0.5 -8v-10q0 -11 1 -21.5t1 -21.5q0 -2 -0.5 -4t-3.5 -2t-4.5 2t-1.5 4v5v6v6v4
v5v6.5v5.5v3q0 2 0.5 7.5t1 12t1 12t1.5 7.5q0 1 1 3l2 4t2.5 4t2.5 2h23l0.5 1l0.5 1v1v1l-0.5 2l-1 4t-1 3.5t-0.5 2.5q-2 13 -3.5 26t-6.5 26q0 2 -1 3l-2 2t-1.5 2t-0.5 3zM197 166l4 4v5.5t0.5 13t1.5 16t1 13.5v3v4v5v2v3t0.5 4t0.5 4v3h3h2q3 0 5 -0.5t2 -2.5
q0 -8 -1 -16.5t-4 -16.5q0 -3 -0.5 -10.5t-1 -16t-1 -15.5t-0.5 -10v-3v-3v-11t0.5 -19.5t0.5 -20v-11.5v-3q0 -9 -5.5 -12.5t-13.5 -3.5q-7 0 -13.5 2t-13.5 2q-3 0 -5 -1.5t-2.5 -4t-0.5 -5.5v-6v-7q3 -5 6.5 -6.5t8.5 -1.5q3 0 9 -0.5t13 -1t13.5 -0.5h8.5v-5
q0 -1 -1.5 -1.5t-3.5 -0.5h-4h-3h-11t-14.5 0.5t-14.5 2.5t-10 6q-2 6 -2.5 10t-0.5 10v7l0.5 3l0.5 3q0 1 -0.5 2t-0.5 2l1 64q1 10 5.5 14.5t11 6.5t14.5 1.5t15 -0.5zM156 124q0 -1 0.5 -2t1.5 -2q7 -1 14 -1h14h11l4 3v32l-4 4h-1h-3h-4h-2q-11 0 -17.5 -1t-9.5 -4.5
t-3.5 -10.5t-0.5 -18zM76 106v15.5t2 13.5t6.5 10t14.5 4q5 0 10 -0.5t9.5 -2.5t7.5 -5.5t4 -9.5q1 -10 1.5 -18t0.5 -17t-0.5 -14.5t-3 -8.5t-7.5 -4t-14 -1q-10 0 -16.5 2t-9.5 7t-4 12t-1 17zM82 127q0 -3 5 -4.5t11 -2t12 -0.5h9q4 0 5 1t1 5q0 5 -2.5 8.5t-6 5t-8 2
t-8.5 0.5h-9q-5 -1 -7 -5.5t-2 -9.5zM81 104v0q0 -1 1.5 -2t1.5 -2q2 0 6.5 -0.5t9.5 -1t9.5 -1t5.5 -0.5h5q2 0 3.5 1t1.5 2.5v3.5v4t-0.5 3.5t-4.5 2.5q-5 0 -8.5 0.5t-6.5 0.5t-6.5 0.5t-7.5 0.5h-5q-3 -2 -4 -5.5t-1 -6.5zM156 107v-2q0 -3 0.5 -8t1 -8t0.5 -4l1 -2
q1 0 3 -0.5t4.5 -1l5 -1t4.5 -0.5h4h6h4.5h5.5l2.5 2.5t2.5 4.5v18q0 1 -1 2t-1 2q-1 0 -1.5 0.5l-0.5 0.5h-39q-2 0 -2 -1v-2zM110 75h8q2 1 4.5 5t2.5 7l-1.5 1.5l-1.5 1.5h-38q0 -6 2.5 -9t6.5 -4.5t8.5 -1.5h8.5zM49 46q0 4 1.5 6.5t6.5 2.5h4q1 0 3.5 -1t5.5 -1.5
t5.5 -1t3.5 -0.5q3 0 11 -0.5t16.5 -1t16 -1t10.5 -0.5q4 -2 4 -5q0 -2 -1.5 -3t-3.5 -1q-8 0 -16.5 1t-16.5 2.5t-16.5 2.5t-16.5 1q-4 0 -5.5 -1t-1.5 -4q0 -2 0.5 -3.5t3.5 -1.5h31l1.5 -0.5l3 -1l3 -1t2.5 -1.5q1 0 3 -2l4 -4t3 -3.5l1 -1.5v-6h-3q-4 6 -9 10t-11 4h-1
h-3.5t-5 -0.5l-5 -1t-3.5 -0.5h-2h-3t-2 -0.5t-1 -2.5q0 -1 1 -2t1.5 -2t1.5 -2t1 -3q0 -1 -1.5 -1h-2.5h-3.5t-3.5 1q-4 7 -7.5 15.5t-3.5 15.5z" />
</svg>
