<?xml version="1.0" standalone="no"?>
<!DOCTYPE svg PUBLIC "-//W3C//DTD SVG 1.1//EN" "http://www.w3.org/Graphics/SVG/1.1/DTD/svg11.dtd" >
<svg xmlns="http://www.w3.org/2000/svg" xmlns:xlink="http://www.w3.org/1999/xlink" version="1.1" viewBox="-10 0 266 256">
   <path fill="currentColor"
d="M188 114v4t0.5 7t0.5 7.5t1 4.5q0 1 0.5 3.5t1 5.5l1 6l0.5 3v5v7v8v4q0 3 0.5 9.5t0.5 14.5t1 16.5t2 15.5t2.5 11.5t4.5 4.5t3.5 -4t0.5 -6v-3v-1t-0.5 -2.5t-0.5 -2.5v-2q-1 -3 -1.5 -9t-1 -12.5t-1.5 -12t-1 -6.5q-2 -21 -4 -41t-2 -41q0 -4 1 -7t2.5 -6l3 -6t1.5 -7
q0 -10 -2.5 -14.5t-6.5 -7t-10.5 -3t-15.5 -0.5q-1 -2 -2 -5.5t-1 -5.5q0 -1 2.5 -2.5t4.5 -1.5h3h5h5.5h3.5l2.5 -0.5t5.5 -1t5 -1.5t2 -3v-1q0 -1 -2 -2.5t-3 -1.5h-32q-2 0 -2 -1.5v-1.5q0 -3 1 -6t1 -6v-3v-3q-2 -1 -3.5 -1h-3.5q-3 0 -4 1.5t-1 4.5t0.5 5.5t0.5 3.5
q0 5 0.5 9.5t0.5 8.5v1q0 2 -0.5 5.5t-0.5 6v2.5l-2 2h-3t-5 0.5t-5.5 0.5h-3.5q-2 1 -3.5 2t-1.5 3q0 1 0.5 2t1.5 1h55q1 0 2 1.5t1.5 3.5l1 4t0.5 3q0 2 -0.5 3.5t-1 3.5t-1.5 3.5t-3 1.5l-0.5 -0.5l-0.5 -0.5l-2 -1t-3 -2q-13 -6 -26 -6h-1.5h-0.5q-1 0 -3 0.5t-5 0.5
t-5.5 0.5t-3.5 0.5l-1.5 1t-1.5 2v1v0q0 1 1.5 2l1.5 1h6h9h9h6q1 0 3 0.5t4.5 1.5t4.5 2t2 3q0 3 -6.5 5.5t-14.5 4.5t-16.5 3.5t-11.5 2.5v0.5v1.5q0 4 4 4q12 0 24 -4t22 -7zM74 245q0 2 1.5 2.5t3.5 0.5q3 0 5 -1.5t3 -3.5t2.5 -4t3.5 -4q1 -5 3 -9.5l4 -9t4 -8.5t3 -9
q1 -4 2.5 -9l3 -10t2.5 -10t1 -10q0 -7 -1.5 -12t-4 -10t-6.5 -9t-8 -9q-1 -1 -1.5 -4t-0.5 -4t0.5 -2t1.5 -1t4 -0.5t6 -0.5t6 -0.5t4 -0.5q4 0 7 -0.5t3 -4.5q0 -3 -1.5 -3.5t-4.5 -0.5q-4 0 -7.5 0.5t-7.5 0.5h-7q-3 -2 -3.5 -4.5t-0.5 -5.5v-2.5v-2.5q1 -2 5 -3.5
t8 -2.5t7.5 -2.5t3.5 -5.5v-17q0 -2 -2 -3t-3 -1t-2 0.5t-1 1.5l-3 16q-1 2 -4 2.5t-4 0.5q-3 0 -4 -1.5t-1 -4.5q0 -8 2 -11.5t5 -5t6 -1.5t6 -1.5t5 -5.5t2 -13v-3q0 -3 -1 -3q0 -2 -2 -2h-2h-3q-1 0 -2 2q1 3 1 6t-1 6t-3.5 4.5t-5.5 1.5h-3t-2 -1v-20q0 -3 -1.5 -3.5
t-2.5 -0.5h-3t-2 2v6v8.5t1 8.5q-2 2 -3.5 2h-3.5q-4 0 -6.5 -1.5t-4 -4t-2 -6t-0.5 -7.5q-1 -1 -2 -1h-3t-3.5 1t-1.5 3q0 9 2.5 14t5.5 7t7 2.5t7.5 1t5.5 2t2 5.5v2.5t-0.5 4.5t-0.5 4v3q-3 3 -7 3t-6.5 -1.5t-3.5 -4t-1.5 -6t-0.5 -7.5q-1 -2 -2 -2.5t-4 -0.5q-5 0 -5 5
q0 7 3 13t8 10h5t6 0.5t5.5 2.5t2.5 5v3.5v4.5t-1 3.5t-3 2.5h-5h-3.5t-5 -0.5l-5 -1t-2.5 -1.5v-13l-1.5 -1t-1.5 -2h-0.5h-0.5q-3 0 -5 2.5t-2 4.5v6t1.5 7t3.5 5.5t6 2.5h21q2 0 3 3.5t2 8t1.5 8.5t0.5 5q0 5 -1.5 10t-3.5 10t-4.5 10l-4.5 9q-1 2 -2.5 5.5t-3.5 7.5
t-4 7.5t-3 4.5q0 1 -2.5 4.5t-5.5 7.5t-5.5 8l-2.5 4q0 2 1 3t3 1q3 0 7.5 -5t9.5 -12.5t9.5 -17t8.5 -19t6.5 -17t3.5 -12.5h2h1q2 0 4 2t3 4.5l2 5t1 4.5q0 8 -3.5 19t-9 23t-11 22.5t-9.5 16.5q-1 1 -1.5 2t-0.5 2zM171 205v40q0 1 1.5 1h2.5q2 0 3 -0.5t2 -2.5v-3v-4v-4
v-2q0 -18 -2 -35.5t-1 -35.5q-2 -4 -6 -6t-8.5 -2.5t-8.5 0t-8 0.5l-2 -2v0v-1l3 -3l2 -2l28 -5v-6h-9t-14.5 1.5t-13 4.5t-5.5 8v53q0 1 1 2.5t2.5 2t3.5 1l2 0.5h27zM143 188q0 -3 2.5 -5t5.5 -2.5t7 -0.5h5q1 0 1.5 0.5l0.5 0.5q1 0 2.5 1t1.5 2v11l-3 3h-19
q-1 0 -2 -1.5t-1.5 -3t-0.5 -3v-2.5zM143 166v-2v-2.5t1 -2t2 -0.5h23v12l-3 3h-19q-3 0 -3.5 -2.5t-0.5 -5.5z" />
</svg>
