<?xml version="1.0" standalone="no"?>
<!DOCTYPE svg PUBLIC "-//W3C//DTD SVG 1.1//EN" "http://www.w3.org/Graphics/SVG/1.1/DTD/svg11.dtd" >
<svg xmlns="http://www.w3.org/2000/svg" xmlns:xlink="http://www.w3.org/1999/xlink" version="1.1" viewBox="-10 0 266 256">
   <path fill="currentColor"
d="M65 201q0 6 2.5 13.5t7 14.5t10 13.5t9.5 10.5q2 0 2 -1v-2q0 -3 -1 -5.5t-2.5 -5t-3.5 -4.5t-3 -4q-4 -8 -7 -17.5t-3 -18.5q0 -11 5 -17.5t13 -10t17.5 -4.5t18.5 -1q7 0 13.5 1t11.5 3.5t8.5 7.5t6.5 13v5q0 10 -2 19.5t-6 19.5q-1 0 -1.5 0.5l-0.5 0.5q-1 1 -1.5 2.5
l-1 3l-1 3l-0.5 1.5q0 2 1 2.5t3 0.5q3 0 6 -6.5t6 -14.5t4.5 -15t1.5 -9v-11t-1.5 -11.5t-4.5 -10t-9 -6.5q-8 -3 -17.5 -6.5t-18.5 -3.5q-2 0 -2 -2v-3q0 -5 5 -7.5t11 -4t13 -1.5t11 -2v0v-1q-1 0 -1.5 -1l-0.5 -1q-8 1 -19 1t-20 -2v-0.5v-0.5v-0.5v-0.5l0.5 -0.5
t0.5 -1.5q1 0 1.5 -1.5l0.5 -1.5v-3v-5v-4.5v-3.5l1.5 -1.5l1.5 -1.5h1q4 0 9 2.5t10.5 6t12 6.5t13.5 3h2.5h2.5q-10 -8 -21.5 -14t-22.5 -11q-1 0 -3 -0.5l-2 -0.5q-2 -2 -3.5 -4t-1.5 -5q0 -2 1 -2t4 -1h3.5t5.5 -0.5t5.5 -0.5h3.5t3 -1t4.5 -1.5t4.5 -1.5t3 -1h1.5h1.5
q3 0 5.5 4t5 10.5t4.5 14t3.5 14.5t2 12.5t0.5 7.5q0 3 0.5 8t1 11t1 13.5t1 14t1 11.5t0.5 7v2.5t-0.5 4t-0.5 4v2.5v2q0 3 0.5 5.5t2.5 3.5l0.5 -0.5l0.5 -0.5q1 -1 2.5 -3l1.5 -2v-76q-2 -5 -2.5 -9.5l-1 -9t-0.5 -9.5t-1 -10q-1 -4 -4 -9t-5.5 -10.5t-5 -10t-2.5 -9.5
t2 -9t2 -10q0 -9 -4.5 -14.5t-11.5 -8t-15 -3t-15 -0.5q-1 0 -3.5 -0.5t-3.5 -1.5q0 -1 -0.5 -3l-1 -4t-1.5 -4t-3 -2q-1 0 -1.5 1l-0.5 1v13q-2 0 -6 0.5t-9 1.5t-9 1.5t-5 1.5h-1t-2.5 0.5t-2 0.5h-1.5l-1.5 -0.5l-1.5 -0.5h-5t-6 1t-5 2t-2 3t1.5 2.5t3.5 1t4 0.5h2
q9 0 18 -2t18 -2h5q0 1 0.5 2t0.5 3t0.5 3t0.5 2v0.5v1.5v1.5t-2 1.5q-7 1 -13 1.5l-12 1t-12.5 0.5h-14.5q-4 -1 -4.5 0.5t-0.5 3.5v2.5t1 1.5h8q11 0 21 -1.5t21 -1.5h6q1 0 1.5 0.5t0.5 1.5l0.5 1.5t0.5 2.5v2v2q0 3 -1 4.5t-3.5 2.5t-5 1h-4.5q-3 0 -8.5 0.5t-12 0.5
h-12.5h-8q-1 1 -1.5 2t-0.5 2t0.5 2t3.5 1h47q2 0 3 1t1 2t-0.5 2.5t-1.5 2.5l-31 19q-2 3 -6.5 5.5l-9 5t-8 5t-3.5 5.5q0 4 4 4h3q1 -1 4.5 -3t7.5 -5t7.5 -5t4.5 -3q6 -4 11.5 -9.5t11.5 -8.5q1 -1 2.5 0t2.5 1v7t0.5 6t0 5.5t-1.5 6.5l-1 0.5l-1 0.5q-1 1 -4.5 1
t-7.5 0.5t-7.5 1t-5.5 0.5q-2 1 -3 1h-2h-1t-3 1q1 3 4.5 4t6.5 1h4.5h6.5h7.5h4.5q2 1 2.5 3.5t0.5 4.5q0 5 -3.5 7t-9.5 4t-13 4t-13 6.5t-9.5 12t-3.5 21.5zM93 202q0 8 2.5 13.5t6.5 8.5t10.5 4t13.5 1t11.5 -1t7 -4t4.5 -7.5t4 -10.5v-1q0 -4 -1.5 -8.5t-4.5 -8.5
t-6.5 -6.5t-8.5 -2.5t-11.5 1t-12.5 3.5t-10.5 7t-4.5 11.5zM99 202q0 -2 2.5 -5t6.5 -5t7.5 -3.5t6.5 -1.5q12 0 16.5 4t4.5 16q0 7 -5 10.5t-12 3.5q-4 0 -9 -1t-9 -3t-6.5 -5.5t-2.5 -9.5zM116 203q-1 3 1.5 5t4.5 2q3 0 3.5 -1.5t3.5 -3.5v-0.5v-0.5q0 -4 -2.5 -5
t-5.5 -1q-2 0 -3.5 1t-1.5 4zM129 65v-5t1 -5q1 0 3.5 0.5t5.5 0.5t5.5 0.5t3.5 0.5q2 0 4 0.5t4 2l4 3t2 3.5v1q-1 0 -2 1l-2 2q-7 2 -11 2.5t-10 0.5h-3.5h-3.5q-1 -1 -1 -4v-4zM130 47q-2 0 -1.5 -2.5l0.5 -2.5q0 -6 2.5 -7.5t8.5 -1.5h10t11.5 1t9.5 4.5t4 9.5q0 4 -1 6
t-4 5q-9 -7 -18.5 -9t-21.5 -3z" />
</svg>
