<?xml version="1.0" standalone="no"?>
<!DOCTYPE svg PUBLIC "-//W3C//DTD SVG 1.1//EN" "http://www.w3.org/Graphics/SVG/1.1/DTD/svg11.dtd" >
<svg xmlns="http://www.w3.org/2000/svg" xmlns:xlink="http://www.w3.org/1999/xlink" version="1.1" viewBox="-10 0 266 256">
   <path fill="currentColor"
d="M170 185q5 0 7 5t3 12.5t2 16t2 16t3.5 12t6.5 4.5t5.5 -3t1.5 -6q0 -7 -1.5 -14t-3.5 -14t-4.5 -13.5t-4.5 -13.5v-2v-3q8 -8 12 -16.5t4 -19.5v-6v-5q-1 -4 -5.5 -6t-10.5 -3.5t-11.5 -2t-8.5 -0.5l-1 -4v-17l1 -1q6 -1 12 -1.5t11 -3t8 -7t3 -12.5v-41l-0.5 -1
t-0.5 -2q-1 0 -1.5 -0.5l-0.5 -0.5h-11l-0.5 1t-0.5 2v12q-1 2 -2.5 2.5t-4 1t-4.5 0t-4 -0.5l-1 0.5t-2 0.5t-1.5 -0.5t-0.5 -1.5v-31q0 -4 -3 -5t-5 -1q-1 0 -3 0.5t-2 1.5v38q0 3 -4 3h-10.5t-10 1t-4.5 6v2t1 2h7h6h1.5t3 -0.5t3 -0.5h1.5q4 0 5.5 2t2 5t0.5 6v6v7
q-2 3 -6.5 3.5l-9 1t-7.5 1t-3 3.5v1l2 0.5l2 0.5h4h6h6h4v19q0 2 -1.5 3.5t-3.5 1.5l-2.5 0.5t-5 0.5h-4.5h-3q0 1 -1.5 2t-1.5 2v0v0v1l0.5 1t1.5 1h58l4 3v2v3q0 3 -0.5 7.5t-1.5 9t-3 8t-5 3.5t-5 -1.5t-3.5 -3.5t-3.5 -3.5t-5 -2.5q-8 -3 -16.5 -4t-16.5 -1
q-2 0 -3.5 1t-1.5 3q0 3 3 3.5t7.5 1t10.5 0.5q5 0 10 1t8 3t3 6q0 3 -1.5 5t-5.5 1q-1 1 -5 1t-8 0.5t-7.5 1t-5.5 0.5h-13l-2 0.5t-4.5 1t-4 1t-1.5 2.5v0.5v1.5h3.5t5 0.5t5 0.5h3.5h2q10 0 19.5 -2.5t18.5 -2.5zM76 204q0 3 1 10.5t3 15.5t5 14t7 6q3 0 3.5 -2.5
t0.5 -4.5q0 -6 -1.5 -11t-3 -9.5t-3 -9.5t-1.5 -10q0 -7 2 -11.5t5.5 -8.5l7 -8t6.5 -9q6 -9 8.5 -19.5t2.5 -21.5q0 -17 -1 -34t-4 -34q0 -2 -0.5 -5t-1 -5.5t-1.5 -5t-3 -3.5q-9 -7 -19 -7q-5 0 -10 2.5t-9 6.5t-7.5 8.5t-5.5 8.5q-1 6 -1.5 10.5t-1 8t-0.5 7.5v10v10
q0 4 0.5 8t0.5 8.5t1 11.5q0 3 0.5 9t1.5 12t3.5 10.5t6.5 4.5q3 0 4 -2t1 -4q0 -1 -1 -5t-1.5 -8t-2 -7.5t-2.5 -5.5v-17q3 0 4.5 2t3 4.5t2.5 5t1 4.5q1 1 2 3.5t1.5 5t1.5 5t1 3.5q1 1 2 1.5t2 0.5q2 0 3 -2.5t1 -5.5q0 -4 -2 -9.5t-5 -11t-6.5 -10.5t-6.5 -9
q-2 -3 -3.5 -3.5t-2.5 -4.5v-3.5v-4.5v-3.5v-5t1 -4.5t3 -2h2q9 8 16.5 17.5t8.5 21.5q1 2 1.5 2h1.5q2 0 3.5 -2t1.5 -4q0 -5 -3.5 -11.5t-8 -13t-9.5 -12.5t-9 -9v-2.5v-2.5q0 -7 5 -11.5t12 -4.5t10.5 6.5t5.5 15.5t2.5 17.5t0.5 12.5v20v20q0 3 -1 6.5t-2 7.5l-2 8t-3 6
q-5 7 -9.5 10.5t-8.5 7.5t-6 9.5t-2 14.5zM164 77v-4.5v-4.5q2 -6 7.5 -7t10.5 -1q7 0 7 6q0 5 -0.5 10t-2.5 8.5t-6 6t-10 2.5h-4q-2 -4 -2 -8v-8z" />
</svg>
