<?xml version="1.0" standalone="no"?>
<!DOCTYPE svg PUBLIC "-//W3C//DTD SVG 1.1//EN" "http://www.w3.org/Graphics/SVG/1.1/DTD/svg11.dtd" >
<svg xmlns="http://www.w3.org/2000/svg" xmlns:xlink="http://www.w3.org/1999/xlink" version="1.1" viewBox="-10 0 266 256">
   <path fill="currentColor"
d="M120 235v11q0 3 0.5 4t2.5 1q3 0 4.5 -1.5t2.5 -4t1.5 -5t0.5 -4.5v-5v-10v-9v-6v-10.5t0.5 -12.5t0.5 -10.5v-4.5l5 -7l32 -4q1 0 2.5 -1.5l3 -3l3 -3t1.5 -2.5q8 -10 9 -21.5t1 -23.5q0 -9 -1.5 -19.5t-4.5 -19.5q-2 -6 -8.5 -9t-14 -4.5t-15 -2t-11.5 -0.5l-2 -2v-30
q0 -3 -1 -3.5t-3 -0.5q-3 0 -4 2t-2 5q0 2 -0.5 6t-1 8.5t-1 8.5t-0.5 6l-1.5 0.5l-1.5 0.5q-1 0 -4.5 0.5t-7.5 1t-7.5 1t-3.5 1.5q-9 1 -14.5 5t-8.5 10t-4 13t-1 15v9q0 4 0.5 8t0.5 8.5t1 9.5q0 6 2 10.5t5 8t7 7t9 7.5q3 3 8.5 7t11.5 4q2 0 4.5 -1t2.5 -3t-3 -4.5
t-6.5 -4.5t-7.5 -4.5t-6 -4.5q-3 -4 -7 -6.5t-7 -6.5q-2 -2 -2 -4.5t-0.5 -5t-0.5 -5t-2 -4.5v-40q0 -5 6.5 -9.5t15.5 -8t18 -5.5t13 -2h1q2 0 7 1l10 2l10 2t7 1q6 2 9 8t4.5 13.5t1.5 14.5v13q0 14 -2 21.5t-6 11t-9.5 4t-11.5 1.5t-12.5 3.5t-12.5 9.5l-2 3
q-1 20 -2 36.5t-1 34.5zM82 119q0 3 4 4.5t8.5 2t9.5 1t6 0.5q8 0 14.5 -0.5l13 -1l13 -1t15.5 -1.5q3 -1 6 -5q-1 -1 -3 -2t-4 -1.5t-4 -0.5h-3q-18 0 -37 1t-37 2l-1 0.5l-1 0.5v0.5v0.5zM87 93q6 1 11 1t9 0.5t8 0.5h10h11q2 0 6.5 -0.5t9.5 -0.5t9.5 -0.5t5.5 -0.5
t2 -1.5t1 -2.5h1q0 -2 -1.5 -3t-3.5 -1.5l-4 -1t-3 -0.5h-16q-15 0 -28 1t-28 1q-1 0 -3 1t-2 3q0 1 2 2.5t3 1.5z" />
</svg>
