<?xml version="1.0" standalone="no"?>
<!DOCTYPE svg PUBLIC "-//W3C//DTD SVG 1.1//EN" "http://www.w3.org/Graphics/SVG/1.1/DTD/svg11.dtd" >
<svg xmlns="http://www.w3.org/2000/svg" xmlns:xlink="http://www.w3.org/1999/xlink" version="1.1" viewBox="-10 0 266 256">
   <path fill="currentColor"
d="M160 191q4 0 7 4.5t5.5 11t5 14t4.5 14t3.5 11t3.5 5.5q2 0 3 -1t2 -2.5t1.5 -3t0.5 -2.5q0 -7 -3 -14t-6.5 -14.5t-8 -14t-6.5 -12.5v-1q0 -2 1.5 -5.5t4 -7.5t4.5 -8.5t2 -10.5q0 -8 -2.5 -12.5t-6.5 -7t-9.5 -3t-11.5 -1.5h-6t-9 -0.5t-9 -0.5h-6v-1v-1q0 -13 1 -26
l2 -26l2 -26t1 -26q0 -4 -1.5 -7t-5.5 -3q-2 0 -3 0.5t-2 2.5q-2 14 -2 28v28v28t-2 27q-2 1 -8.5 1.5t-13 1.5t-12 2t-5.5 3t1.5 3l3 2t4 1h3.5q10 0 18.5 -2.5t18.5 -2.5h12q0 1 2 1.5l2 0.5h2q1 0 5 0.5t7.5 1t7.5 1t5 0.5q4 2 5 5t1 7v6t-0.5 5.5t-2 4.5t-4.5 2
q-2 0 -3.5 -1.5l-3 -3t-3 -3.5t-4.5 -3t-6 -1.5t-6.5 -0.5t-6.5 -0.5t-6 -1.5h-33l-2 0.5l-2 0.5q-1 0 -4.5 0.5t-7 0.5t-6.5 0.5t-4 0.5q-3 1 -3 2v3t0.5 3t3.5 1q11 0 22 -2.5t21 -2.5h3.5t5.5 0.5t6.5 0.5h5.5q3 1 7.5 2t8.5 3t6 5t2 8q0 1 -1.5 2l-1.5 1q-1 1 -3 1.5
t-4 0.5t-3.5 0.5l-1.5 0.5h-64q-1 0 -1.5 2l-0.5 2q0 2 3.5 3.5t7.5 2t8.5 1t6.5 0.5q14 0 28.5 -2t27.5 -6h0.5h1.5zM100 41q-2 0 -8 0.5t-13.5 2.5t-13 5.5t-5.5 7.5v44q0 4 2.5 6.5t6 3.5t7.5 1.5t7 0.5h7t7.5 -0.5t5.5 -2t2 -6.5h-32q-1 0 -2 -1.5t-1.5 -3.5t-0.5 -4v-2
v-3v-3l0.5 -0.5t1.5 -0.5q6 -2 14 -2h14q1 0 2.5 -2l1.5 -2q1 -2 -1 -3.5t-3 -1.5h-27q-2 0 -2.5 -1.5t-0.5 -3.5q0 -4 1 -6.5t2.5 -4.5t4 -3t5.5 -3l24 -3l0.5 -0.5l0.5 -0.5q0 -3 -2.5 -5t-4.5 -3zM139 107q0 1 1.5 2.5t2.5 1.5h3h5h4h3q4 0 9 0.5t9 -0.5t7.5 -3t4.5 -7
q0 -3 1 -6t1.5 -6.5t1.5 -7t1 -5.5q0 -10 -2 -16.5t-6 -10t-10.5 -4.5t-16.5 -1h-5t-6 0.5t-5 2.5t-2 5q8 0 18 0.5t18 3.5q5 3 5 9t-3.5 7t-8.5 2q-2 0 -6 0.5t-8 0.5h-8h-5l-2 2l-1 1v1v0v1l1 1.5t2 1.5h6q7 0 13.5 -1t13.5 -1h4l1.5 3t0.5 3q0 7 -2 10.5t-9 4.5
q-2 0 -6 0.5t-8.5 1l-9 1t-6.5 0.5l-0.5 0.5t-0.5 1.5z" />
</svg>
