<?xml version="1.0" standalone="no"?>
<!DOCTYPE svg PUBLIC "-//W3C//DTD SVG 1.1//EN" "http://www.w3.org/Graphics/SVG/1.1/DTD/svg11.dtd" >
<svg xmlns="http://www.w3.org/2000/svg" xmlns:xlink="http://www.w3.org/1999/xlink" version="1.1" viewBox="-10 0 266 256">
   <path fill="currentColor"
d="M186 249l1 2h1q5 0 5 -5q0 -1 0.5 -4.5t0.5 -7.5v-8v-4q0 -37 -2 -72q0 -4 -0.5 -10.5t-1 -12.5t-1 -10l-0.5 -4l-8 -8h-30l-2 -3l0.5 -3t0.5 -7.5t0.5 -9.5t0.5 -8v-2t0.5 -4t1 -3.5t0.5 -2.5v-7v-8q0 -1 -0.5 -3t-1 -4.5t-0.5 -5v-2.5q-1 -7 -1.5 -11t-2.5 -6.5
t-6 -3.5t-11 -1q-6 0 -10.5 0.5t-10.5 2.5q-3 2 -6 5t-4 6q-1 15 -1.5 30.5t-1.5 30.5q0 1 -0.5 3.5t-0.5 6.5q0 2 0.5 5t0.5 4l-3 1h-3h-4h-5h-3q-6 1 -9 5.5t-4.5 11t-1.5 12.5t-1 9q0 3 -0.5 10.5t-1.5 16t-1.5 16.5t-0.5 10v2v3v3v2q-1 10 -2 19t-1 18v3.5t2 1.5t4 -1.5
t3 -3.5q3 -10 2.5 -21.5t-0.5 -21.5v-6t0.5 -7.5t0.5 -6.5v-3l5 -4q13 0 24.5 -1t24.5 -1q0 19 -1 37.5t-1 36.5h4t4 -0.5t3 -2t1 -4.5v-63q0 -1 5.5 -2t13 -2t15 -1h11.5q1 0 3.5 -0.5t4.5 1.5q-1 20 0.5 39t1.5 39zM80 164q0 -2 6 -5.5t14 -7t15 -6.5t9 -3h2h1.5t1.5 1
t3 2l6 3t8.5 4.5t8.5 5t5 2.5v3l-3 0.5t-7.5 1t-9.5 1t-8 0.5h-2q-13 0 -25 -1t-25 -1zM137 140l-0.5 -1t-0.5 -2t3 -3t7 -4.5t8.5 -5.5t9 -5t7.5 -3.5t4 -1.5t3 1t3 2v6.5t0.5 10t0.5 10v6.5v0v1v2.5t-0.5 3t-0.5 2.5v1l-3 2q-1 0 -4.5 -1.5t-5.5 -3.5q-8 -5 -15 -8.5
t-16 -8.5zM78 117q2 0 8 2.5t11.5 5.5t10 6.5t4.5 5.5v1t-1 1l-36 18h-5v-10.5t1 -13t2.5 -11.5t4.5 -5zM94 114q0 -2 1 -2.5t4 -0.5q11 -1 19.5 -1h19.5h16q2 0 3.5 1t1.5 3v1.5v0.5q-2 1 -5.5 2.5t-7.5 3.5t-7.5 4t-5.5 2q-3 2 -5 3.5t-6 1.5q-1 0 -5.5 -2.5t-9.5 -6
t-9 -6.5t-4 -4zM103 99v-28l2 -3h15v36h-20zM126 98v-2v-6t0.5 -8.5t0.5 -9v-5.5l6 -1.5t5 -0.5h5q2 2 2 5.5v4.5q0 8 -0.5 13.5t-1.5 13.5l-1.5 1l-1.5 1h-1h-4q-3 0 -4.5 -0.5t-3 -1.5t-1.5 -4zM58 18l4 67q1 1 3.5 3t3.5 2h20q1 0 1.5 -0.5t0.5 -1.5v-1q0 -3 -3.5 -3.5
t-8 -1.5t-8 -3t-2.5 -8q1 -4 4 -5.5t6.5 -2t6.5 -1.5t3 -4v0q0 -1 -0.5 -1.5l-0.5 -0.5h-9q-6 0 -10 -1v-2.5v-2.5v-1v-3t0.5 -2.5t1.5 -1.5l18 -3l0.5 -0.5t0.5 -1.5q0 -2 -1 -3t-3 -1q-3 0 -6 1t-7 1q-1 0 -2 -0.5t-2 -1.5v-2.5v-4.5v-4v-3q-1 -4 -1.5 -5t-3.5 -1
q-2 0 -4 1t-2 4zM160 85q1 3 3.5 3h4.5q12 0 17.5 -4t8 -10.5t2.5 -15t1 -17.5v-4v-6v-5v-5q-1 -2 -2 -3.5t-3 -1.5t-3.5 1.5t-1.5 3.5v2.5v3.5v3.5v2.5l-1 2h-4.5h-5.5t-5.5 0.5t-3.5 0.5q-3 0 -4 0.5t-1 2.5v2.5t2 1.5h21q0 6 0.5 9.5t-0.5 4.5t-3.5 1.5t-8.5 0.5
q-2 0 -4.5 0.5t-4.5 1l-2 0.5v5h20q1 0 2 1.5t2 2.5v0q0 6 -3.5 7.5t-8 2t-8.5 1.5t-6 4zM104 45l3 -1l2.5 -0.5t5.5 -0.5t6.5 -0.5t5.5 -0.5h2h2.5h2.5h3h3.5h2.5l1 2v12l-2 3h-3.5t-8.5 0.5l-10 1t-9 0.5h-1q-1 0 -3.5 -1t-2.5 -2v-13zM105 30q0 -4 2.5 -6.5t6 -4
t7.5 -1.5h7h9q5 1 6.5 5t1.5 9v1t-1 2q-3 0 -6.5 0.5t-6 0.5h-5.5h-6h-2h-3h-3.5h-1.5q-3 0 -4 -2t-1 -4z" />
</svg>
