<?xml version="1.0" standalone="no"?>
<!DOCTYPE svg PUBLIC "-//W3C//DTD SVG 1.1//EN" "http://www.w3.org/Graphics/SVG/1.1/DTD/svg11.dtd" >
<svg xmlns="http://www.w3.org/2000/svg" xmlns:xlink="http://www.w3.org/1999/xlink" version="1.1" viewBox="-10 0 266 256">
   <path fill="currentColor"
d="M41 244q0 2 1 3t3 1q3 0 6 -4t6 -10.5t6 -14t5.5 -15t4 -12.5t1.5 -6l0.5 -0.5l0.5 -0.5q3 0 4 2l2 4q0 1 1 4t3 6.5t3 6.5t1 4q2 3 4 9t5 12t6.5 10.5t6.5 4.5t4 -0.5t1 -3.5q0 -4 -1.5 -7.5t-4 -7t-5.5 -6.5t-4 -6q-7 -13 -10.5 -25.5t-8.5 -26.5v-42l2 -3v-19
q0 -1 -1.5 -3t-2.5 -2q-2 0 -3.5 1.5t-2 4t-0.5 5v3.5v6v11v11v6q0 2 -0.5 5t-0.5 6.5t-0.5 6t-0.5 3.5l-0.5 2.5t-1.5 6t-1.5 7t-1.5 5.5l-0.5 2.5t-1.5 2.5q-2 5 -6 12l-8 14t-7 14t-3 13zM135 172q2 8 2 16v15t0.5 13.5t3.5 11t9 7t18 2.5h1h4.5t7 -0.5t7 -0.5h5.5
q5 -2 6.5 -6t2 -8.5l1 -9t3.5 -7.5v-5.5v-5.5v-12t-2 -12q0 -1 -1 -1.5t-2 -0.5q-4 0 -5.5 3.5t-2 7.5t-2 7t-6.5 3h-1q-2 0 -5.5 -1l-3.5 -1v-36q10 -1 20 -1.5t20 -0.5q1 0 1.5 -1t0.5 -2q0 -3 -2.5 -4t-4.5 -1h-3t-4.5 0.5t-4.5 0.5h-2h-2q-1 0 -3 0.5t-4 0.5h-2
q-2 0 -5 -0.5l-3 -0.5l-2 -1v-26q0 -3 3 -4t6.5 -1.5t6.5 0l3 0.5q6 -11 6.5 -22.5t0.5 -23.5v-5v-6.5v-6.5v-4l-3 -1.5t-2 -0.5q-4 0 -5.5 2t-1.5 6q0 3 1 5t1 4v2q0 3 -0.5 7.5t-1 9.5t-0.5 8.5v4.5v3t-0.5 4t-1.5 4t-3 3q-1 0 -3 0.5t-4.5 0.5t-5 0.5l-2.5 0.5
q-6 0 -9 -3t-5 -6.5t-2.5 -8t-0.5 -9.5v-6.5v-9.5v-10.5v-6.5q-1 -2 -3 -3.5t-4 -1.5q-3 0 -4 2.5t-1 5.5q0 15 2.5 30.5t7.5 29.5q4 1 7 2.5t5 4.5q1 6 1.5 10.5t0.5 9.5v4v3q-1 1 -4.5 1.5t-4.5 0.5h-27q-4 0 -4 4l0.5 0.5l0.5 0.5q1 0 4.5 0.5t7.5 0.5t7.5 0.5t5.5 0.5h3
h4h3.5h2.5q0 8 1 17.5t-2 17.5l-0.5 0.5t-1.5 0.5h-13v-15q0 -3 -2.5 -3.5t-3.5 -0.5q-2 0 -3.5 0.5t-2.5 3.5zM147 200l1 -4l2.5 -0.5t5 -0.5t5 -0.5t3.5 -0.5h5q2 0 6 0.5t7.5 1t6 0.5h2.5l2 2v2.5v3.5q0 9 -1.5 14t-4.5 7.5t-8.5 3t-13.5 0.5q-2 0 -5 -0.5t-6 -1.5t-5 -3
t-2 -6v-18zM45 183q0 2 0.5 3t2.5 1t4 -3t3.5 -8.5t2 -11.5t0.5 -11.5t0.5 -9.5t0.5 -5v-3.5v-4.5t-1 -3.5t-2 -1.5q-3 0 -5 2.5t-3 4.5q1 7 0.5 13.5t-1.5 12.5t-1.5 12t-0.5 13zM102 179l3 1.5t3 0.5q3 0 3 -1.5v-4.5q0 -5 -1.5 -10t-1.5 -10q0 -2 -0.5 -6.5t-0.5 -9.5
t-0.5 -9.5t-0.5 -6.5l-1.5 -0.5t-2.5 -0.5v0q-2 0 -3 1.5t-1 3v3.5v3q0 12 1 23.5t3 22.5zM41 103q0 1 0.5 2t2 1.5t2.5 1t2 0.5v0v0q5 -2 9 -7t8.5 -10.5t9 -9.5t10.5 -4q4 0 7.5 4t6.5 9t6.5 9t6.5 4q2 0 4 -1.5t2 -3.5q0 -4 -4.5 -8t-10 -7.5t-10 -8t-4.5 -10.5v-38
l1.5 -4.5t0.5 -4.5q0 -6 -6 -6q-3 0 -5.5 2.5t-2.5 6.5q0 6 2 13t2 14q0 10 -3.5 16.5t-8 11.5t-11 10t-11.5 12l-3 3zM41 68v7q3 0 7.5 -2t8.5 -5t7 -6.5t3 -5.5v-24q0 -3 -1.5 -3.5t-3.5 -0.5t-4.5 1.5t-2.5 3.5q0 3 1 6t1 6t-1.5 6.5t-4 6.5t-5 5.5t-5.5 4.5zM101 33v14
q0 8 1.5 14t6 10t12.5 4q3 0 4 -0.5t1 -3.5t-2.5 -4.5t-5.5 -3t-5.5 -3.5t-2.5 -6q0 -1 -0.5 -4t-0.5 -6t0.5 -6t0.5 -5q0 -3 -1.5 -3.5t-3.5 -0.5t-3 1t-1 3z" />
</svg>
