<?xml version="1.0" standalone="no"?>
<!DOCTYPE svg PUBLIC "-//W3C//DTD SVG 1.1//EN" "http://www.w3.org/Graphics/SVG/1.1/DTD/svg11.dtd" >
<svg xmlns="http://www.w3.org/2000/svg" xmlns:xlink="http://www.w3.org/1999/xlink" version="1.1" viewBox="-10 0 266 256">
   <path fill="currentColor"
d="M50 194v1q1 2 1 5.5t0.5 7t0.5 6v2.5q0 4 0.5 9t1.5 10t3.5 9t5.5 6h13q4 0 9.5 0.5t10.5 -0.5t9 -3.5t5 -8.5q0 -6 0.5 -10.5t0.5 -9v-9.5v-10v-13q0 -2 -2 -4.5t-4 -2.5q-3 0 -3.5 2t-0.5 3q0 4 1 7t1 7v4l-2 1t-3 1h-1q-5 0 -7.5 -1.5t-4 -3.5t-2.5 -3t-3 -1v12l3 5
h19q0 2 0.5 3t0.5 1.5t-0.5 1.5t-2.5 2h-6t-9 0.5t-9 1t-6 0.5h-2q-3 0 -5 -3t-3 -6v-4.5t-0.5 -6.5t-0.5 -6v-5q-1 -1 -2 -1h-2t-3 1t-2 3zM138 172v6v5v11t0.5 14.5t0.5 13.5v7q1 7 4 11t7 5.5t10 1.5h12h15q6 -3 8.5 -7t3 -9t0.5 -10.5t1 -11.5v-1v-1l-1 -5v-30l-2 -2
l-3 -3h-1h-1l-1.5 0.5t-1.5 1.5v19l-1.5 0.5t-4.5 1t-4 0.5h-2q-2 0 -3.5 -2t-1.5 -4v-3q1 -4 1 -10.5t0.5 -12.5t0.5 -10.5v-4.5l5 -6h26q2 0 3.5 -2t1.5 -4t-2 -3.5t-4 -1.5q-1 0 -2 0.5t-2 0.5t-2 0.5l-1 0.5h-11h-12q-3 -3 -3.5 -6t-0.5 -6q0 -9 3.5 -11.5t7 -4
t6.5 -3.5t3 -10v-58q0 -2 -1 -5t-3 -3v0l-2 2q0 3 -0.5 11.5t-0.5 17.5t-0.5 17t-0.5 11v5q0 1 -1 2t-2 2.5t-2 2l-1 0.5h-19q-3 0 -5 -3.5t-2 -6.5q-1 -2 -1.5 -4t-0.5 -4.5v-4.5v-3q0 -2 -0.5 -7t-0.5 -10t0.5 -10t0.5 -7q-1 -1 -2 -3t-2 -2q-3 0 -4.5 3.5t-1.5 5.5l1 42
q1 5 3 10.5t4 9.5q1 1 3.5 2t5.5 1t5.5 1t2.5 3l1 26l-41 4l-1.5 1.5l-1.5 1.5v1v1q0 1 0.5 1.5l0.5 0.5h29q2 -1 3.5 -1.5t4.5 -0.5h2q2 0 3 2q0 6 0.5 10.5t0.5 8.5v8v9v4v4q-1 4 -3 5t-5 1q-5 0 -7.5 -1.5t-3.5 -4t-1 -4.5v-4.5t-1.5 -4t-4.5 -1.5zM67 239l-2 -3v-1
q0 -2 1.5 -3l3 -2t3 -1h2.5h13h13q2 0 2 1.5v2.5q0 3 -2 5t-5 2.5t-6 0.5h-5h-9t-9 -2zM177 200h12q2 2 2 7v6t-0.5 6t-1.5 8t-3.5 6.5t-6.5 2.5h-22q-1 0 -2.5 -1t-3.5 -3l-3.5 -3.5t-1.5 -3.5v-20l0.5 -0.5t1.5 -0.5q3 -2 6.5 -3t7.5 -1h7.5h7.5zM70 137q0 4 0.5 12
t1.5 16t4 14t8 6q0 -7 -1 -13.5l-2 -13t-2 -13.5t-1 -14q0 -10 1.5 -20l3 -20l3 -20t1.5 -21q0 -3 -1 -9.5t-3 -13t-5 -11.5t-7 -5q-3 0 -3.5 2.5t-0.5 4.5q0 3 2 6t4.5 6.5t4.5 7t2 8.5q0 7 -1 13t-2.5 12l-3 12t-1.5 13q-1 11 -1.5 20.5t-0.5 20.5zM46 122v13t1.5 16t5 14
t10.5 6q0 -7 -3 -12.5t-5 -11.5q-1 -4 -1 -8v-8v-9v-8v-2.5t-0.5 -3.5t-1.5 -3.5t-3 -1.5v0q-1 0 -2 1.5t-1 2.5v15zM95 161q0 1 2 2.5t3 1.5t3 -1.5t2 -3.5q0 -3 -1 -5t-2.5 -4t-2.5 -3.5t-1 -4.5v-38q0 -2 -1 -2h-2h-2t-1 2v4q0 2 -0.5 5.5t-0.5 6.5v4q0 9 0.5 18t3.5 18z
M52 71l-2 4t-2 3.5t-1.5 4t-0.5 4.5q6 0 9.5 -2.5t5 -7t1.5 -10v-10.5q0 -3 -0.5 -8t-1.5 -9t-3.5 -7t-7.5 -3q-2 0 -3.5 1t0.5 5l0.5 1t1.5 2t1.5 2t0.5 2q2 4 2 8v8v12zM93 82v5q6 0 10 -3.5t6.5 -9t4 -11.5t1.5 -10q0 -2 -1 -6t-2.5 -8.5t-3.5 -8t-5 -3.5q-1 0 -2 0.5
t-1 1.5q0 6 2.5 10.5t2.5 11.5q0 10 -2 16.5t-10 14.5z" />
</svg>
