<?xml version="1.0" standalone="no"?>
<!DOCTYPE svg PUBLIC "-//W3C//DTD SVG 1.1//EN" "http://www.w3.org/Graphics/SVG/1.1/DTD/svg11.dtd" >
<svg xmlns="http://www.w3.org/2000/svg" xmlns:xlink="http://www.w3.org/1999/xlink" version="1.1" viewBox="-10 0 266 256">
   <path fill="currentColor"
d="M182 204q2 3 3.5 7t2.5 8t2.5 8t4.5 7q1 1 2.5 3t4 4.5l4.5 4.5t5 3h1q2 0 3 -1.5t1 -3.5q0 -1 -2 -3.5t-4.5 -5l-5 -5t-3.5 -4.5q-8 -22 -11 -42t-3 -44q0 -17 1.5 -33.5t1.5 -33.5v-9q0 -1 -1.5 -3l-1.5 -2q-1 -1 -3 -3.5t-4.5 -5t-5 -4.5t-3.5 -3q-3 1 -7.5 -3.5
t-10 -10.5t-10 -11.5t-7.5 -6.5v1v2q0 5 2.5 9.5t6 8.5t6.5 9t2 10v24v5l-1 30q-1 1 -2 3.5t-2 3.5q0 1 -0.5 4.5t-1 7.5t-1 7.5t-0.5 4.5l-1 2l-5 22q-3 2 -4.5 6t-2.5 8.5t-2 8.5l-2 8q-5 9 -11.5 19.5t-14.5 18.5v6q4 0 6 -3t4 -4q11 -10 19 -24t13.5 -29.5t8.5 -31.5
t5 -30q3 -17 2 -33t-1 -34q4 0 7.5 2t6 5t4 6.5t2.5 7.5v3v6v6v3q0 10 -1 19.5t-1 19.5q0 19 1 37.5t4 37.5zM58 241v1q0 1 0.5 1.5l0.5 0.5h1q5 0 11.5 -7t13 -15.5t11.5 -17t6 -12.5q1 -1 2 -6t2.5 -10t2.5 -9.5t1 -6.5v-3v-3q0 -1 0.5 -6l1 -10t1 -9.5t1.5 -5.5v-1
q0 -8 -0.5 -17t-2.5 -18t-6 -16.5t-11 -13.5l-0.5 -0.5l-0.5 -0.5q-1 -1 -3 -3.5t-3.5 -5t-3 -4t-1.5 -2.5q-2 -2 -2.5 -5l-1 -6t-1 -5.5t-2.5 -4.5v0h-1v0v0q-1 1 -1.5 2.5t-0.5 2.5v1q0 8 1 13.5t3.5 9.5t6 7.5l8.5 8.5q4 4 7 10t4.5 13t2 13.5t0.5 12.5v4q0 1 -0.5 2
l-0.5 1h-24l-0.5 -1t-0.5 -2l-0.5 -2.5t-0.5 -3.5t0.5 -3.5l0.5 -2.5q1 -2 3 -4t4.5 -3.5t4.5 -2.5t3 -2l2 -3h-5q-3 0 -5.5 1t-5.5 1q-4 0 -5.5 -3.5t-2.5 -7.5t-3 -7.5t-7 -3.5q0 8 2.5 15t2.5 15q0 10 -0.5 19t-0.5 21q-3 7 -4.5 14.5t-3.5 16.5q-1 3 -3.5 7t-5.5 8
t-5 7.5t-2 5.5v1l1 1h1q4 0 7 -3.5t6 -8.5t5 -11t4 -11.5t3.5 -9t3.5 -3.5h1l1 1t2 1q1 1 3 2t4 2.5l4 3t3 2.5h2q0 -5 -2.5 -8.5t-6 -6t-6.5 -5.5t-3 -5q0 -1 0.5 -2.5t1 -3.5t1.5 -3.5t2 -1.5h24l1 2l0.5 2t0.5 3q0 9 -2 19t-5.5 19.5t-7.5 18.5t-8 17q-2 3 -6 7t-8.5 8
t-7.5 8t-3 6z" />
</svg>
