<?xml version="1.0" standalone="no"?>
<!DOCTYPE svg PUBLIC "-//W3C//DTD SVG 1.1//EN" "http://www.w3.org/Graphics/SVG/1.1/DTD/svg11.dtd" >
<svg xmlns="http://www.w3.org/2000/svg" xmlns:xlink="http://www.w3.org/1999/xlink" version="1.1" viewBox="-10 0 266 256">
   <path fill="currentColor"
d="M168 215q0 10 -2.5 19t-2.5 19q1 0 3 -0.5t3.5 -1.5l3 -2t1.5 -3v-50q0 -2 2 -3.5t4 -1.5q2 1 4 5t3.5 9t2 11t2 11t2 8t2.5 3t3 -1t2 -3t1.5 -4.5t0.5 -3.5t-0.5 -2l-0.5 -1l-0.5 -2t-1.5 -4.5t-1.5 -4.5l-0.5 -2q-1 -3 -1 -7.5t-1.5 -8.5t-3.5 -7.5t-6 -3.5t-6.5 1
t-5.5 1q-1 0 -4 -3t-6 -6.5l-6 -7l-3 -3.5q0 -3 2 -7t6 -4l0.5 0.5t1.5 0.5l2 0.5t4.5 1t4 1t2.5 0.5q1 -1 1.5 -2.5t0.5 -2.5t-0.5 -2t-2.5 -1h-3h-4h-4h-3l-0.5 -0.5l-0.5 -0.5l-0.5 -0.5l-0.5 -0.5l0.5 -0.5l0.5 -0.5l1 -2t2 -3l2 0.5t4 0.5q3 0 4.5 -0.5t2.5 -0.5
q3 0 5 -1t2 -4h-16l-0.5 -1.5t-1.5 -2.5v-1q0 -3 3 -4t6 -1.5t6 -1.5t3 -4q-10 0 -19 0.5t-18 1.5q-4 1 -6.5 4t-4.5 6.5t-2.5 8t-0.5 7.5t0.5 5.5t1.5 5t2 4.5t1 5v2q-1 1 -2.5 2t-3.5 2t-4 2.5t-3 1.5q-1 1 -3 1.5l-4 1t-3.5 1.5t-1.5 3l0.5 0.5t1.5 1l1 0.5q4 -1 8.5 -3
t8.5 -4.5t8 -4.5t6 -2q3 0 4.5 0.5t1.5 3.5q0 2 -2 4t-4.5 4t-5 3.5t-3.5 3.5q-2 2 -5.5 5t-6.5 5.5t-5 5l-2 2.5v4q5 0 6.5 -0.5t2 -1t1 -2t3.5 -3.5q1 -2 4.5 -5t7 -7t7 -7.5t5.5 -4.5l0.5 -0.5l0.5 -0.5q3 0 4 3t1 5t-5.5 8.5t-12 14t-12 14.5t-5.5 10q0 4 4 4
q2 0 6 -5.5t8.5 -12t8.5 -13t7 -9.5q0 -1 0.5 -1.5t2.5 -0.5q1 0 2 0.5t0 2.5q0 1 0.5 2.5t0.5 3.5v4v2zM78 242q0 1 1 2t3 1q5 0 7.5 -4.5t3.5 -8.5q0 -2 1 -9t2 -14.5t2 -14t1 -9.5v-5v-7v-6.5t2 -5.5q-1 -9 -0.5 -16.5l1 -15t0.5 -15v-16.5q0 -12 -1 -23t-3 -22
q-3 -3 -7.5 -5t-9 -3.5t-8 -4t-3.5 -5.5q0 -5 4 -7.5t9 -4t10.5 -2t8.5 -0.5l1.5 -1.5t0.5 -1.5q0 -2 -1 -2.5t-3 -0.5q-6 0 -13 0.5t-13 2.5t-10.5 6.5t-4.5 11.5q0 5 2.5 7.5t6.5 4.5l8 4l8 4t6.5 6t2.5 11v39l-1.5 1t-2.5 1h-2h-2h-3h-2h-3h-2l-2 -2v-1.5t-0.5 -3.5
t-0.5 -4v-3v-4q0 -4 2.5 -6t5 -3t5 -1.5t2.5 -2.5v-1q0 -1 -1.5 -2l-1.5 -1h-1q-2 0 -4 0.5t-5 0.5h-2l-3 -17q-1 -1 -1.5 -1h-1.5q-3 0 -5 3t-2 5l0.5 0.5l0.5 0.5q2 9 2.5 20t0.5 20q0 22 -1.5 44t-4.5 44q-1 5 -3 10t-2 11q0 2 0.5 3.5t2.5 1.5q3 0 5 -4t3 -8.5t1.5 -9
t1.5 -6.5l0.5 -2.5t1 -5.5t1 -5.5l0.5 -2.5v-6t0.5 -8.5t0.5 -8v-5.5h2h1l2 0.5t3.5 1l3 1t2.5 0.5h1h1l1 -1.5t2 -1.5l-0.5 -1t-1.5 -2l-1 -1q-1 -1 -3 -1.5t-4 -2t-3.5 -2t-2 -1l-1 -1l-0.5 -0.5v-15l3 -3h18l-1 33v6l-3 41q-1 10 -4.5 19t-6.5 18v0.5v1.5zM143 159v-1
q0 -1 0.5 -1.5t1.5 -0.5l2 2t1 3h-3t-2 -2zM193 155l2 1q0 1 1.5 1.5l1.5 0.5q1 0 2.5 -1.5l1.5 -1.5v-32q-3 -5 -3.5 -8t-0.5 -7q0 -3 0.5 -5t1.5 -4l2 -4t1 -4q0 -4 -2.5 -8t-5.5 -7t-7 -5t-8 -2q-1 0 -2 0.5t-1 1.5t2 3l4.5 4.5l4.5 4.5t2 3q1 1 1.5 2t0.5 3t-1 2.5
t-3 0.5h-1h-1q-3 -5 -7.5 -7.5t-9.5 -3.5q0 1 -0.5 2t-1.5 1v1q0 3 2 4t4.5 2t4 2.5t1.5 3.5q-3 0 -5 -0.5t-3.5 -1.5t-2.5 -1.5t-4 -0.5q0 7 3 9.5t7.5 3t8.5 0.5t4 3q5 11 6 21t0 23zM114 146q0 2 0.5 3t2.5 1q4 0 5.5 -5t2.5 -11.5t2.5 -13t3.5 -9.5h6.5t9 -1t7.5 -3
t3 -6q-5 0 -9.5 0.5t-10.5 0.5q0 -4 3 -6t7 -3.5t6.5 -3.5t2.5 -6q-4 0 -7.5 2t-6.5 4l-6 4t-6 2q-2 0 -2 -1.5v-2.5q0 -5 2.5 -7.5t6 -4.5l7 -4t5.5 -6h-2h-2q-4 0 -8.5 2t-8.5 5t-6.5 6.5t-2.5 7.5q0 5 2.5 9t2.5 9t-1.5 9.5t-3.5 9.5t-3.5 10t-1.5 9zM143 142h11q1 0 1 2
v2v2.5t-1 1.5h-11v-8zM156 127q2 0 3 2t1 3v3t-2 2h-12q0 -4 3.5 -7t6.5 -3zM114 67q0 2 1.5 2.5t2.5 0.5q5 0 10 -3.5t10 -8t10 -8.5t10 -4q6 0 12 3.5t11 7.5t9 7.5t7 3.5q7 0 7 -7l-3 -2.5t-6 -4.5l-6 -4l-3 -2q-3 -1 -5 -1h-4t-3.5 -1t-4.5 -2q-2 -1 -4.5 -3.5
t-2.5 -3.5v-28q0 -1 -1.5 -2t-2.5 -1v-0.5v-0.5q-2 0 -3 2t-1 3v29q0 2 -3 4t-7.5 4.5t-9.5 5t-9.5 5.5l-7.5 5t-3 4zM137 18q-2 0 -3 2t-1.5 4.5t-1 5.5t-1.5 4q-2 2 -4 3t-3.5 2t-3 2.5t-1.5 4.5q11 0 17.5 -5.5t6.5 -16.5q0 -2 -1 -4t-4 -2zM174 22q0 1 1 5t2.5 8t4 7
t4.5 3h16q1 0 1.5 -0.5l0.5 -0.5v-1v-1l-1.5 -1t-1.5 -2q-1 -1 -3 -2l-4 -2l-4 -2t-3 -1q-1 -3 -1.5 -5.5t-1 -5.5t-2 -4.5t-5.5 -1.5q-3 0 -3 2v5z" />
</svg>
