<?xml version="1.0" standalone="no"?>
<!DOCTYPE svg PUBLIC "-//W3C//DTD SVG 1.1//EN" "http://www.w3.org/Graphics/SVG/1.1/DTD/svg11.dtd" >
<svg xmlns="http://www.w3.org/2000/svg" xmlns:xlink="http://www.w3.org/1999/xlink" version="1.1" viewBox="-10 0 266 256">
   <path fill="currentColor"
d="M50 203v35q0 1 1 3t2.5 4.5t3 4t3.5 1.5q4 -1 5.5 -2t1.5 -4t-1 -6t-2 -6.5t-2 -6.5t-1 -7q0 -12 2.5 -23t4.5 -23v-2q0 -2 -1 -4t-3 -2q-4 0 -6 5t-3 11t-2.5 12.5t-2.5 9.5zM76 200q0 1 0.5 4t1 7t1 7t0.5 4q1 3 2 8t3 9.5t4 8t5 3.5t3.5 -1t0.5 -4q0 -7 -2 -13
t-4 -12.5t-3.5 -12.5t-1.5 -13q0 -9 1.5 -18.5t3.5 -18.5t4 -18.5t2 -18.5q0 -4 -0.5 -9t-2.5 -9.5t-5 -7t-9 -2.5h-2.5t-1.5 2t2 5.5t4.5 7t4.5 7.5t2 8q0 11 -3 21t-5 21q-1 1 -1 5.5t-0.5 9.5t-1 9.5t-1.5 5.5q0 1 -0.5 3zM124 246q0 1 2 1.5l2 0.5q4 0 7 -2.5t5 -5.5
t4 -7l3 -6q1 -3 3.5 -8t4.5 -9.5t3.5 -8l1.5 -3.5l3 -1l21 39q3 7 7.5 9.5t11.5 2.5q0 -4 -1 -6.5t-2.5 -4.5t-3.5 -4t-4 -5q-4 -4 -7.5 -9.5t-7 -12t-6 -13.5t-2.5 -12q0 -14 0.5 -28t0.5 -28q8 0 12.5 3.5t8 8t5.5 8t4 3.5q3 0 5 -2.5t2 -4.5q0 -4 -4 -8.5t-9.5 -8.5
t-11.5 -7t-9 -4v-16l1 -1q1 0 4.5 -0.5l7 -1t6.5 -1t5 -0.5q2 -1 3.5 -1t2 -0.5t0.5 -1v-2.5q0 -3 -0.5 -4t-4.5 -1h-1.5h-1.5q-1 0 -5 1t-8.5 2t-8.5 2t-5 1q-3 1 -4 4.5t-1 7.5t-1 7.5t-4 6.5q-5 3 -9.5 6t-8 5.5t-7 5.5t-7.5 8v1v1q0 5 4 5l1 -0.5l1 -0.5q1 0 3.5 -2.5
l5 -5t4.5 -5t3 -3.5q3 -2 4.5 -5t6.5 -3q2 0 2 2v3v3q0 3 -0.5 9.5t-1 14t-1 14t-0.5 8.5q-2 3 -2.5 4t-0.5 2v2.5v4.5q0 2 -1.5 5.5t-3.5 8.5t-3.5 9t-2.5 5q-2 2 -5 6t-6.5 8.5t-6 8.5t-2.5 6zM103 189v11t1.5 17t3.5 16t6 7q3 0 3.5 -1.5t0.5 -3.5v-1.5v-1.5l-0.5 -1.5
t-1.5 -3t-1.5 -2.5l-0.5 -1v-4.5t-0.5 -7.5t-1 -8.5t-1.5 -6.5v-1v-1q0 -8 1 -15.5t1 -14.5q-4 0 -6.5 2.5t-3 6.5t-0.5 8v7zM66 150q1 1 1.5 1h2.5q3 0 4 -2t1.5 -5t0.5 -6.5v-5.5q0 -3 -0.5 -8t-2.5 -9t-5 -7t-8 -3q-2 0 -3.5 1.5t-1.5 3.5l0.5 1t1.5 2l0.5 1t1.5 2t1.5 2
l0.5 1q4 7 5 15t0 16zM110 145v1.5t1 1.5q8 -5 10.5 -13t2.5 -16q0 -3 -1 -6.5t-2.5 -7t-4 -6t-5.5 -2.5h-2t-3 2q1 2 2.5 4.5t3 5.5t2 6.5t0.5 5.5q0 6 -2 12t-2 12zM84 69v3v5v4.5v3.5q0 2 1 2.5t2 0.5q4 0 5.5 -2.5t2 -6t0.5 -7v-5.5q8 -3 12.5 -4.5t7.5 -4t3.5 -7.5
t0.5 -16v-7q0 -2 -2 -2h-3q-2 0 -3 2.5t-1.5 6t-0.5 7.5t-1 7.5t-2.5 6t-5.5 2.5q-2 0 -3 -1.5t-1.5 -3.5t-0.5 -4v-4q0 -5 1 -11t1 -11v-7t-5 -3q-1 0 -3.5 0.5t-1.5 3.5q1 9 0.5 19t-1.5 20q-1 2 -3 2h-3q-6 0 -7.5 -5t-1.5 -11t-0.5 -11t-4.5 -5q-3 0 -4 1t-1.5 2.5
t-0.5 3.5v4q0 11 1 15.5t4 7t7.5 4t11.5 5.5zM135 39v5t0.5 3.5t1 3.5t2.5 5q1 3 4 5t6.5 3.5t6.5 2.5t3 2v13l1.5 1t2.5 2h1v0q1 -1 1.5 -3t1 -4.5t1.5 -4.5t1 -3q1 -2 3.5 -2.5t6 -1t7 -2t7 -5t5.5 -9t2 -15.5q0 -1 -0.5 -3l-1 -4t-2 -3.5t-2.5 -1.5q-4 0 -5 2.5t-1 6.5
v8.5t-1 8.5t-5 7t-11 3q0 -10 1.5 -20t1.5 -19q0 -4 -2 -7t-6 -3q-2 0 -2.5 0.5t-0.5 2.5l-3 45q-1 2 -2.5 2.5t-2.5 0.5q-4 0 -6.5 -4t-3.5 -9.5t-1 -11v-7.5q-1 -2 -4 -2t-5 4v4v4z" />
</svg>
