<?xml version="1.0" standalone="no"?>
<!DOCTYPE svg PUBLIC "-//W3C//DTD SVG 1.1//EN" "http://www.w3.org/Graphics/SVG/1.1/DTD/svg11.dtd" >
<svg xmlns="http://www.w3.org/2000/svg" xmlns:xlink="http://www.w3.org/1999/xlink" version="1.1" viewBox="-10 0 266 256">
   <path fill="currentColor"
d="M78 203q0 3 1.5 11t4 16t6.5 14.5t9 6.5q3 0 3.5 -1.5t0.5 -3.5v-1v-2q-1 0 -3.5 -2.5t-2.5 -3.5q-5 -7 -8.5 -15.5t-3.5 -17.5q0 -5 1 -8t2 -8q2 -3 3.5 -3t2.5 -3q0 -1 0.5 -3.5l0.5 -2.5l4 -4t4 -4.5t3 -5t1 -5.5q0 -2 -0.5 -3t-0.5 -3q-1 -1 -3 -2.5t-4 -4t-4 -4
t-3 -2.5l-2 -2l-2 -2t-1 -2v-3q0 -5 0.5 -8.5t2 -5t5 -2t8.5 -0.5t6 4.5t1 9.5t0.5 9.5t3.5 4.5q4 0 4 -3q0 -7 -2 -14t-2 -15q0 -4 1 -9t1 -10q0 -2 -1 -2.5t-3 -0.5q-3 0 -3 1v5l-0.5 2t-0.5 3.5t-0.5 3.5l-0.5 2l-3 3h-16v-22q0 -1 -2 -1h-3h-2h-3.5t-1.5 3q0 4 2.5 9
t2.5 10v3h-3h-4.5t-4.5 0.5t-3 0.5q-2 0 -4.5 1t-2.5 4q0 2 1.5 2h3.5q4 0 8 -0.5t8 -0.5q0 6 -0.5 11t-2 9.5t-4.5 9t-7 9.5q-1 2 -4 4t-5.5 4.5l-5 5t-2.5 4.5h10l1 -1l2.5 -2.5l3 -3l2.5 -2.5q2 -2 3.5 -6t4 -7.5t5 -6t6.5 -2.5q2 0 4 2t4 5t3.5 5.5t1.5 3.5q0 3 -1.5 5
t-3.5 3.5l-4 3t-3 3.5q-2 4 -4 7.5t-3 7l-2 7t-1 8.5zM117 245l1.5 1.5t1.5 0.5q3 0 6.5 -3t3.5 -7q2 -9 3 -19t1.5 -20t1 -19.5t0.5 -18.5v-2v-3q0 -5 -0.5 -10t-0.5 -11v-9t1.5 -9.5t5 -7t9.5 -2.5q4 0 7 2.5t3 6.5v23q-2 5 -3 10t-3 10q-3 7 -6 12t-3 12t3.5 11.5
t10.5 4.5q9 0 12.5 -6t3.5 -14q0 -6 -2 -9.5t-9 -3.5q0 3 1 4.5t1.5 3t1.5 3.5t1 4q0 4 -3 8t-7 4q-6 0 -7 -4t-1 -8t1.5 -7.5t3.5 -6.5t4 -6.5t3 -7.5v-1t0.5 -2.5t0.5 -3v-1.5q0 -1 1 -3t1.5 -4.5t1 -4.5t1.5 -3q0 -1 1 -1h2q5 0 10 2.5t6 7.5v5.5v5.5q0 10 -1 19.5
t-1 19.5v4v6v5v2q0 3 1 9.5t3 13t4.5 11.5t6.5 5q2 0 4 -1t2 -4q0 -1 -1.5 -4.5t-3.5 -7.5t-4 -7t-3 -4q0 -2 -0.5 -5.5t-1 -7.5t-1 -7.5t-0.5 -4.5v-6q0 -11 2.5 -22t2.5 -22q0 -6 -3.5 -10t-8 -6.5t-9.5 -3.5l-10 -2q-1 -3 -2 -6.5t-1 -6.5v-2t1 -1q3 -2 7.5 -3t8.5 -1
t8 -0.5t7 -0.5q1 0 1.5 -1t0.5 -2q0 -3 -1.5 -3.5t-3.5 -0.5q-3 0 -9 1t-13 2t-14.5 3t-13.5 4.5t-10 5.5t-4 6v84q-2 6 -3 12l-2 12t-2.5 12t-4.5 12zM162 79l2 2l3.5 -3.5t1.5 -3.5v-4.5t1 -4.5q0 -2 2 -2t4.5 -0.5t5.5 -1.5t5.5 -3.5t4 -7.5t1.5 -13v-9q0 -1 -0.5 -1.5
l-1.5 -1.5v0h-1l-1 2q-1 4 -1 9t-1 10t-4.5 8t-9.5 3q-1 0 -2 -1.5t-1 -2.5v-35q0 -2 -1.5 -2h-2.5t-3 0.5t-2 2.5v37l-0.5 0.5t-1.5 0.5h-2h-2h-5t-4 -4v-3t-0.5 -5t-0.5 -5v-3v-2v-2t-0.5 -2t-1.5 -1h-1q-1 0 -2 0.5l-1 0.5l2 22q0 3 2 5t5 3t6 1.5t5 0.5q2 1 3 3.5t1 5
v4.5t-1 3zM65 35q0 5 0.5 9.5t2 8.5t5 7t8.5 3q1 1 2.5 0.5t2.5 -0.5l0.5 0.5l1.5 1.5t1 3t0.5 3.5l1 3t1.5 1.5q4 -1 4.5 -3.5t0.5 -4.5v-4t1 -2q8 0 12 -2t6 -5t2.5 -8.5t0.5 -13.5q0 -2 -0.5 -4.5t-3.5 -2.5t-3.5 4.5t-0.5 10t-1.5 10t-8.5 4.5l-2 -0.5t-2 -1.5v-29
q0 -1 -1.5 -3t-1.5 -3l-0.5 -1t-1.5 -1v0q-2 0 -3 2t-1 3q0 7 1 13t1 13v7q-2 2 -4.5 2h-3.5q-4 0 -6 -3t-2.5 -7.5t-0.5 -8.5v-6q0 -1 -1 -1.5t-2 -0.5q-5 0 -5 6zM69 37q1 0 1 1q0 2 -1 2t-1 -2q0 -1 1 -1z" />
</svg>
