<?xml version="1.0" standalone="no"?>
<!DOCTYPE svg PUBLIC "-//W3C//DTD SVG 1.1//EN" "http://www.w3.org/Graphics/SVG/1.1/DTD/svg11.dtd" >
<svg xmlns="http://www.w3.org/2000/svg" xmlns:xlink="http://www.w3.org/1999/xlink" version="1.1" viewBox="-10 0 266 256">
   <path fill="currentColor"
d="M83 245q0 2 1 2.5t3 0.5q3 0 9 -3.5t12 -8.5t10.5 -10.5t5.5 -8.5l3 -29q0 -1 4.5 -2.5t10.5 -2.5t11.5 -2t7.5 -1q5 0 8 3t5 8t3.5 10.5t3 10t3.5 8t5 3.5t4 -2t1 -4q0 -3 -3 -9t-7 -13t-7.5 -13t-4.5 -8v-1v-1v-0.5v-0.5q0 -1 1 -3l2 -4l2 -4t1 -3q1 -3 1.5 -7t0.5 -8
q0 -3 -2 -6t-4.5 -5.5t-6 -4t-6.5 -1.5h-31q-2 0 -2.5 -2l-1 -4t-1.5 -4t-3 -2h-1.5t-1.5 1v11h-1.5t-3 0.5t-3.5 0.5h-3q-2 0 -6 0.5t-8.5 0.5t-9 0.5t-5.5 0.5h-2t-2.5 0.5t-2.5 1t-1 1.5v0.5v0.5q0 1 1 2t2 1h6q9 0 18 -1.5t18 -1.5q2 0 2.5 1.5l1 3t0 3t-0.5 2.5v5
q0 3 -1 4q-3 1 -8.5 1t-12 0.5t-12.5 1t-8 0.5h-2.5h-3.5h-4h-2l-5 5q1 3 3 3h4q12 0 23 -1.5t22 -1.5h3h3l1 1v20l-3 2l-2.5 0.5t-6 0.5t-7 0.5t-6.5 0.5h-26q-2 0 -3 1t-1 2q0 2 1.5 3t3.5 1.5t3 0.5h4q10 0 20.5 -1t20.5 -1q0 11 -1.5 19.5t-7.5 17.5q-1 2 -5 4.5
t-8.5 4.5t-8 4.5t-3.5 4.5zM127 160l3 -1h3h4h7t8 1.5t6.5 3.5t2.5 6v1v1q-7 4 -16.5 6t-17.5 2v-20zM147 133h12q6 1 8.5 5.5t2.5 9.5v3t-0.5 4t-1.5 3.5t-3 1.5q-3 0 -5.5 -2.5t-4.5 -3.5q-2 0 -6 -0.5t-9 -0.5t-9 -0.5t-4 -1.5v-16l3 -0.5t5 -1.5h12zM71 101q3 4 7.5 7
t9.5 3q2 0 3.5 -0.5t1.5 -2.5t-2.5 -4t-5 -3t-4.5 -3t-2 -5t2.5 -5t6.5 -3t8 -1.5t7 -0.5h4h4q3 2 6 6.5t5.5 8t6 6.5t8.5 3h4t3 -3v-1v-1q-2 -1 -5.5 -3t-7.5 -4.5t-6.5 -5t-2.5 -4.5q0 -4 1 -4t5 -1h4.5t6 -0.5t6 -1t3.5 -0.5q4 5 9 9t10.5 7.5t11.5 5.5t12 2h1l2.5 -1
t2.5 -2l-0.5 -1t-1.5 -2q-9 -1 -15.5 -4t-13.5 -7q-2 -1 -3.5 -3t-1.5 -4v-1q2 0 6.5 -0.5t9.5 -1.5t8.5 -2t3.5 -4q0 -2 -1.5 -2h-2.5q-8 0 -15 1.5t-14 2.5q-17 2 -33.5 3.5t-32.5 2.5q-4 2 -7.5 3.5t-6 3t-4 4t-1.5 7.5v3v3zM58 28q0 6 1.5 11t5.5 10q1 2 4 2.5t6.5 1
t6.5 1t3 1.5v15q4 0 5 -2t1 -4v-5t3 -4l1.5 -0.5l3 -1l3 -1l1.5 -0.5q3 -1 5.5 -4.5t3.5 -7t1.5 -7t0.5 -6.5q0 -2 -1 -3.5t-3 -1.5h-2t-2 2q1 2 0.5 5.5t-1.5 7.5t-3.5 6.5t-6.5 2.5h-1l-0.5 -0.5t-0.5 -1.5v-28l-1.5 -0.5l-1.5 -0.5q-1 0 -2.5 0.5l-1.5 0.5v28q0 1 -1 1.5
t-2.5 0.5h-2.5h-1h-3q-2 0 -4 -2q0 -1 -1.5 -4.5t-2.5 -7.5t-2.5 -7t-2.5 -3q-4 0 -4.5 1.5t-0.5 4.5zM156 52v2q0 1 0.5 3t1 3.5t1.5 1.5h1q2 0 2 -1.5t0.5 -3t1.5 -3.5t5 -2q1 0 4 -0.5t4 -1.5l6 -2t5 -5l0.5 -2.5l1 -5l1 -5t0.5 -3.5q0 -2 -1 -5t-4 -3q-1 0 -2.5 0.5
t-1.5 1.5v16q0 2 -1.5 3t-4 1.5t-4.5 0.5h-3h-2h-3q0 -1 -0.5 -1.5l-0.5 -0.5v-1v-1v-3t0.5 -6.5t0.5 -6v-3.5v-1.5v-2.5v-3t-2 -2h-0.5h-0.5l-0.5 0.5l-1.5 1.5l-1 1.5l-1 1.5v27q0 1 -2.5 1h-2.5q-4 0 -6.5 -1.5t-4.5 -4.5q0 -1 0.5 -3.5t0 -5t-1 -4.5t-3.5 -2h-2.5
t-1.5 2v5q0 7 1 11t4 5.5t7.5 3z" />
</svg>
