<?xml version="1.0" standalone="no"?>
<!DOCTYPE svg PUBLIC "-//W3C//DTD SVG 1.1//EN" "http://www.w3.org/Graphics/SVG/1.1/DTD/svg11.dtd" >
<svg xmlns="http://www.w3.org/2000/svg" xmlns:xlink="http://www.w3.org/1999/xlink" version="1.1" viewBox="-10 0 266 256">
   <path fill="currentColor"
d="M85 191q0 10 0.5 20.5t1.5 19.5v4t0.5 4t0.5 4v2l4 3l4.5 0.5t10.5 0.5t12 0.5t11 0.5h34h33q2 -1 2 -2v-2q0 -2 -0.5 -4t-2.5 -2h-48q-1 0 -4 -0.5t-4 -1.5q-1 0 -2.5 -1.5t-1.5 -2.5v-20q0 -1 5.5 -2t12 -2l13 -2t9.5 -3l1.5 -1.5l1.5 -1.5v-1v-5.5t-0.5 -7.5t-1.5 -7
t-3 -3q-3 0 -5 3q1 6 0.5 10t-2.5 7t-5.5 4.5t-9.5 1.5h-1l-2.5 -0.5t-4.5 -1t-3.5 -0.5h-2.5q-1 -1 -1.5 -4.5t-1 -8.5t-1 -9.5t-0.5 -6.5q0 -1 2 -2t4 -1q16 -3 32 -4t32 0q3 -1 4.5 -2t1.5 -4q0 -2 -0.5 -3t-3.5 -1v0q-20 1 -39.5 2.5t-38 3t-37.5 1.5h-39q-3 1 -4 2.5
t-1 3.5q0 3 2 4t5 1h1q1 0 4 -0.5t6.5 -1t6 -1t3.5 -0.5h2q3 0 6 1t6 1q8 0 15.5 -1t15.5 -1h2t3 2q-1 17 0 34t1 34q-4 0 -8.5 0.5t-9 -0.5t-7.5 -3t-4 -7q0 -2 -0.5 -6.5t-1 -9.5t-0.5 -10v-7v-4v-4.5t-1 -4t-4 -1.5t-4 2t-1 5zM82 98q0 7 -0.5 14.5t1 14.5t5.5 11.5
t12 5.5q7 0 14 1t14 1q8 0 14 -1t14 -3q6 -2 9.5 -5.5t5 -8.5t2 -11t0.5 -11v-3v-2q-1 -7 -2.5 -11t-4 -5.5t-6.5 -2t-10 -0.5q-12 0 -23.5 0.5t-24.5 1.5q-3 1 -6.5 1.5t-6.5 2t-5 4t-2 6.5zM91 124q0 -2 0.5 -4.5t3.5 -3.5q14 0 27.5 -1.5t27.5 -1.5h4q3 0 5 0.5t3 2
t1 4.5q0 7 -4 10.5t-10 5t-13 1.5h-11h-9t-11.5 -1t-9.5 -3.5t-4 -8.5zM92 102q0 -2 1.5 -4t4 -4t5 -3t3.5 -1h30q2 -2 3.5 -2.5t4.5 -0.5t6.5 0.5t6.5 2t5 4.5t2 7l-0.5 2t-0.5 3q-4 0 -11 0.5t-15.5 0.5t-16 0.5t-10.5 0.5h-2.5h-3.5h-4q-2 0 -4 -0.5t-3 -1.5t-1 -4z
M60 32q0 10 2 15t4.5 8t6 4t6.5 1.5t5.5 2t3.5 4.5q1 0 1 1.5v3.5t0.5 3.5l0.5 1.5l0.5 1t1.5 1q2 -1 3 -4t1 -6t1 -5.5t3 -3.5q1 -1 3 -2t5 -2t5 -2t3 -1q1 -2 2 -4.5t2 -4.5v-19l-2 -1t-4 -1h-2v7t-0.5 7.5t-3 6t-6.5 2.5q-1 0 -2.5 -2t-1.5 -3v-21l-1 -1.5t-2 -1.5
t-4 0.5t-3 1.5v29q0 1 -1 1.5t-2.5 1t-3 0.5h-2.5h-3.5t-3.5 -1q0 -2 -0.5 -4.5t-0.5 -5.5t-0.5 -5.5t-0.5 -3.5q-1 -6 -5 -6t-4.5 2t-0.5 5zM166 70q0 3 1 3.5t3 0.5q3 0 4 -1.5t1.5 -3.5l1 -4t1.5 -3q0 -2 2 -2.5t5 -1l6 -1t5.5 -3.5t4 -9t1.5 -16q0 -4 -0.5 -5.5
t-3.5 -1.5q-4 0 -5 4.5t-1.5 9.5t-2 9.5t-6.5 4.5q-3 0 -6 -1.5t-3 -5.5v-2q0 -1 0.5 -3.5t0.5 -6t0.5 -6t0.5 -3.5v-1q0 -2 -1.5 -2.5t-2.5 -0.5q-2 0 -4 0.5t-2 3.5v28q0 1 -1 1t-2 0.5t-2 0l-1 -0.5q-5 0 -7 -2t-3.5 -5.5t-1.5 -8v-8.5q-1 -1 -2 -1.5t-2 -0.5t-2 1.5
t-1 3.5v4v2q0 8 2 12.5t5 7t6.5 3.5t6.5 1.5t5 1.5t2 4v1q-1 0 -1.5 1.5z" />
</svg>
