<?xml version="1.0" standalone="no"?>
<!DOCTYPE svg PUBLIC "-//W3C//DTD SVG 1.1//EN" "http://www.w3.org/Graphics/SVG/1.1/DTD/svg11.dtd" >
<svg xmlns="http://www.w3.org/2000/svg" xmlns:xlink="http://www.w3.org/1999/xlink" version="1.1" viewBox="-10 0 266 256">
   <path fill="currentColor"
d="M188 194q0 11 1.5 22t2.5 22q1 1 1 3.5t0.5 4.5t2 3t3.5 1q0 -22 -2 -44t-3 -44q-1 -5 -5.5 -8t-8.5 -5.5t-7.5 -4.5t-3.5 -5q0 -2 0.5 -3.5t3.5 -3.5h4h6t6.5 -0.5t4.5 -0.5q2 0 4 -1t2 -3q0 -3 -1.5 -3h-3.5h-24t-24 3q-2 0 -4 1t-2 2v2h21v50q0 1 -1.5 1.5l-1.5 0.5
q-4 0 -6.5 -2t-2.5 -6q0 -1 -0.5 -4.5t-0.5 -7t-0.5 -7t-0.5 -4.5h-5q0 8 0.5 16.5t3.5 15.5q3 5 8.5 6t10.5 1q1 0 4.5 0.5t6.5 0.5t6 0.5t5 0.5zM84 193q0 2 1 8.5t3 14t5 13t7 5.5q0 -6 -1 -11t-3 -10t-3 -10t-1 -10q0 -8 1.5 -16t6.5 -15v-5v-5q0 -5 -1.5 -9t-1.5 -9
q0 -3 1 -5.5t3 -4.5t3.5 -4t1.5 -6t-1.5 -8t-1.5 -8v-1l9 -8l-2 -2l-1 -1h-0.5h-0.5h-0.5h-0.5l-1 0.5t-2 0.5l-0.5 0.5t-0.5 1.5q-1 0 -3 1t-4.5 2.5t-5 2.5l-2.5 1h-3h-2t-2 -1v-3.5v-4.5t-0.5 -4t-0.5 -3l-0.5 -1.5t-1 -2.5t-1 -2.5t-1.5 -1.5l-1 1l-1.5 0.5l-1.5 0.5v28
q0 1 -2 1.5t-4.5 2t-5 4.5t-2.5 9q0 4 1 8t2.5 7.5t2.5 7.5t1 8v2.5v1.5q0 1 -1 3t-1.5 4t-1.5 4t-1 3q-2 6 -2.5 12.5t-0.5 12.5v2q0 2 0.5 5.5t0.5 8v8v5.5t1.5 2.5t2.5 0.5q3 0 3.5 -1t0.5 -3q0 -7 -0.5 -13.5t-0.5 -14.5v-8.5t0.5 -9t1.5 -9t4 -7.5q3 1 5 3.5t5 2.5v0
q1 -1 1.5 -2l0.5 -1q-3 -4 -4.5 -7.5t-1.5 -7.5q0 -3 1 -5t5 -5h1h1q2 0 3 1l2 2t2 2.5t1 3.5q1 0 1 3v4q0 5 -1.5 10t-3.5 9.5t-3.5 9.5t-1.5 11zM125 171q-1 7 -2 13.5t-2 13.5q-1 4 -2.5 8t-3.5 8t-3 8.5t-1 8.5q3 0 5.5 -2t3.5 -4t2 -5t2 -5.5t2 -6t2 -7.5t1.5 -6.5
l0.5 -2.5l3 -78q0 -6 2.5 -9.5t6.5 -6t9 -3.5t9 -2q2 0 7 -0.5t10.5 -1t10.5 -1t7 -0.5t2 -1v-2v-1.5t-2 -1.5h-15q-12 0 -21 1t-20 6q-1 1 -3 2.5t-4 2.5t-3.5 2l-1.5 1l-2 3v69zM169 184v-34q7 2 10.5 6t5 9t2 10.5t0.5 10.5h-14zM66 123q0 -4 1 -7t6 -3q2 0 4 1.5t3 3.5
t2 4.5t1 4.5q0 1 -1.5 3t-3.5 3.5t-4 2.5t-4 1t-2.5 -1.5t-1 -4t-0.5 -4.5v-4zM83 108q0 -3 3 -4.5t6 -1.5q2 0 3.5 1.5t2 3.5t0.5 4v4q0 3 -1.5 6t-5.5 3q-2 0 -3 -2t-2.5 -4.5t-2 -5t-0.5 -4.5zM145 110q0 1 1.5 2t4 1.5t4.5 0.5h2q5 0 8.5 -0.5t7.5 -0.5t8 -0.5t8 -0.5
q2 0 2 -3q0 -2 -2 -2.5t-4.5 -0.5h-4.5h-2h-8t-6.5 0.5t-7 0.5t-8.5 1l-1.5 0.5l-1.5 0.5v1zM93 71l2 2q4 -3 4 -6v-6q0 -4 1.5 -7t6.5 -6q4 -2 7.5 -4.5t6 -6t4.5 -7t2 -7.5h-3l-5 5t-5.5 5t-6 3.5t-7.5 1.5v-24l-3 -3l-4 3v25l-1 1.5t-2 1.5l-0.5 0.5l-0.5 0.5q-1 0 -2 -1
t-3 -2t-3.5 -2t-2.5 -2t-2.5 -3t-4.5 -1q-1 0 -2 1t-1 2q2 5 6 8t8 5t7 4t3 4q0 1 0.5 3.5t0.5 4.5v4v3zM160 49q0 1 0.5 3t0.5 4.5t0.5 4.5t0.5 3q0 2 0.5 2.5t2.5 0.5q1 0 2 -0.5t1 -1.5l3 -16q11 -3 18.5 -10.5t7.5 -19.5q-4 0 -6.5 3t-5 6.5t-6 6t-10.5 2.5v-23
q0 -1 -1.5 -1.5l-1.5 -0.5q-2 0 -3.5 0.5t-1.5 3.5v21q-1 0 -4 0.5t-4 -0.5q-4 0 -6 -3t-3.5 -6.5t-4 -6.5t-7.5 -3q0 4 2 8t5 7t6 6.5t6 5.5q2 1 5 1.5t4 2.5z" />
</svg>
