<?xml version="1.0" standalone="no"?>
<!DOCTYPE svg PUBLIC "-//W3C//DTD SVG 1.1//EN" "http://www.w3.org/Graphics/SVG/1.1/DTD/svg11.dtd" >
<svg xmlns="http://www.w3.org/2000/svg" xmlns:xlink="http://www.w3.org/1999/xlink" version="1.1" viewBox="-10 0 266 256">
   <path fill="currentColor"
d="M187 160q0 16 -1.5 33t-4.5 32l-2 6t-2 6.5l-2 7t-1 6.5q5 0 8 -2.5t4.5 -6.5t2 -8.5t0.5 -8.5l0.5 -4t1 -8.5t1 -8.5t1.5 -7v-3q0 -1 0.5 -6t1 -11.5t1 -11.5t0.5 -6v-8q0 -8 -2 -13t-5 -8.5t-6 -5.5t-6 -4.5t-5 -5.5t-2 -7q0 -5 1.5 -9t1.5 -9v0q0 -1 -1 -2t-2 -1v0h-1
t-2 3t-2 7t-1.5 7.5t-0.5 4.5q0 4 1.5 6.5l3 5l3 5t1.5 5.5q0 7 -1.5 14t-3.5 13.5t-3 13.5t-1 15q3 0 5.5 -4t3.5 -9.5t1.5 -12t1 -12.5t1.5 -9.5t4 -3.5t4.5 3t2 7.5t0.5 9v5.5zM57 244q0 1 0.5 3t2.5 2q4 0 5.5 -2.5t2.5 -6t1 -7v-5.5q2 -21 3 -42.5t2 -43.5v-3.5t0.5 -6
t0.5 -6v-3.5q1 -9 1 -17q0 -9 2 -17q1 -1 1.5 -3l0.5 -2l3 -0.5t4 -0.5q3 0 8 -0.5l10 -1t9 -1l4 -0.5h9h14h16h16h13.5h9.5q0 -1 1 -2l1 -1l0.5 -0.5l0.5 -0.5q0 -2 -3 -2.5t-5 -0.5h-3h-12t-18.5 0.5t-22 0.5t-22 0.5t-18.5 0.5h-12q-8 2 -11.5 7.5t-3.5 13.5l-8 131
q-1 5 -2 8.5t-1 8.5zM80 240v3.5t2 1.5h1q2 -1 4 -3l4 -4l4 -4t3 -2q1 -2 1.5 -3.5t1 -2.5t1 -2.5l1.5 -4.5q1 0 2 -2t3 -4.5t3.5 -5.5t2.5 -4l0.5 -0.5l0.5 -0.5h1h1q1 3 4.5 9t8 12.5t9 11.5t6.5 5q1 0 3 -1t2 -2q0 -5 -2.5 -9t-5.5 -7q-1 -1 -3.5 -4t-5.5 -6l-5.5 -5.5
l-3.5 -3.5q0 -1 -1 -3t-2 -4.5t-2 -4.5t-1 -3v-3.5v-5.5q0 -8 1 -16.5t1 -16.5q0 -2 -0.5 -4.5t-3.5 -2.5h-1l-0.5 1t-0.5 2t-0.5 2.5t-0.5 3.5t-0.5 3.5t-0.5 2.5v7.5v11.5v11.5v7.5q-6 14 -13 25t-18 20l-0.5 0.5l-0.5 0.5v3zM91 154v5.5v8t-0.5 8t-0.5 5.5q0 5 -1.5 8.5
t-1.5 8.5q4 0 6.5 -4.5t3.5 -10t1 -10.5v-9v-11q-1 -2 -2 -2h-2t-2 0.5t-1 2.5zM134 148q0 1 0.5 1.5l0.5 0.5l0.5 1.5l1 3t0.5 2.5v2q1 1 1 5.5t1 9.5t1 9t1 5q0 2 1.5 5.5t3.5 3.5t3 -1.5t1 -2.5v-2l-1 -2t-1.5 -4t-1 -3.5t-0.5 -2.5t-0.5 -5t-1 -8.5t-0.5 -8.5v-6
q-1 -2 -3.5 -3.5t-4.5 -2.5l-1.5 1.5t-0.5 1.5zM80 139q0 2 2.5 2h2.5q4 0 7.5 -3t7 -6.5l7 -7t8.5 -3.5t9.5 3t8 6t7.5 5.5t9 2.5q4 0 4 -4l-1 -1l-1 -1t-1 -2q-2 0 -5 -1.5t-6 -3.5t-6 -3t-4 -2q-3 -2 -6 -3.5t-5 -5.5q0 -1 0.5 -3t0.5 -5t-0.5 -5t-0.5 -3q0 -2 -1 -5
t-3 -3h-0.5h-1.5v7v8t-0.5 7.5t-2.5 6.5q-3 4 -6.5 7t-7.5 5t-8 5t-7 6zM94 93v17l0.5 0.5t1.5 0.5h1q1 0 2 -2t1 -3v-1v-3t-0.5 -4t-0.5 -3.5v-1.5h-5zM137 92h-1t-1 1v18q2 0 3.5 -1t2 -3t0.5 -4v-4v-6q-1 -1 -2 -1h-2zM68 32q0 13 1.5 17.5t5 5.5t7.5 1.5t9 5.5
q1 1 1.5 3.5t2.5 2.5h0.5h0.5q1 -5 3 -7.5t4.5 -3.5t6 -2t5.5 -5q2 -6 2.5 -10t0.5 -9v-2v-3.5t-1 -2.5t-3 -1t-2.5 2t-0.5 5v7t-1 7t-3 5t-6 2h-1l-1 -3v-10v-11l0.5 -2.5l0.5 -2.5v-6t-3 -1l-2.5 0.5t-2.5 1.5v33q0 1 -1 1h-2.5h-2.5h-2q-2 0 -4 -0.5t-3 -3.5
q0 -1 -0.5 -3t-0.5 -4t-0.5 -4t-0.5 -3v-2.5t-0.5 -3t-1.5 -2.5t-2 -1t-2 0.5t-1 1.5v4v3zM139 29q0 11 1.5 16t3.5 7.5t5 3.5t5.5 1.5t5 2t3.5 5.5q2 -6 8.5 -8t12.5 -1q5 -5 7 -10.5t2 -13.5v-7q-1 -1 -2.5 -2t-3.5 -1v0q-1 3 -1.5 8t-1 9.5t-3 7.5t-7.5 3h-2t-2 -1v-6
t-0.5 -9t-0.5 -9v-6v-5t-3 -3q-1 0 -2.5 0.5t-1.5 1.5v37h-12q-1 0 -2 -2l-2 -4v-3t-0.5 -5t-0.5 -5v-3l-3 -3q-2 1 -2.5 1.5t-0.5 2.5z" />
</svg>
