<?xml version="1.0" standalone="no"?>
<!DOCTYPE svg PUBLIC "-//W3C//DTD SVG 1.1//EN" "http://www.w3.org/Graphics/SVG/1.1/DTD/svg11.dtd" >
<svg xmlns="http://www.w3.org/2000/svg" xmlns:xlink="http://www.w3.org/1999/xlink" version="1.1" viewBox="-10 0 266 256">
   <path fill="currentColor"
d="M155 247q0 4 3 4t5 -1.5t3 -4t1.5 -5t1.5 -4.5q0 -2 1 -5.5t1.5 -7t1 -6t0.5 -3.5q0 -2 0.5 -6.5t0.5 -10t0.5 -10.5t0.5 -7q0 -1 1.5 -2t3.5 -2.5t3.5 -2t2.5 -0.5t1.5 1t1.5 2.5t1.5 3t0.5 2.5v43h1h3.5t2 -1t0.5 -3v-19v-12v-10t-0.5 -10.5t-0.5 -12.5q-1 0 -2 -1
l-1 -1h-1q-3 0 -5 2t-3.5 4.5t-3.5 5t-4 2.5h-2q-1 -6 -1.5 -9.5t-1 -6.5t-1.5 -6t-2 -8l-0.5 -1.5t-0.5 -2.5l0.5 -1.5l0.5 -1.5q1 -2 4.5 -4t6.5 -3.5t5 -3.5t2 -4q-11 0 -21.5 1t-21.5 2q-2 3 -2 5h16l2 4v0v1q-7 8 -14 13.5t-14 11.5v2q0 3 3 3q1 0 2.5 -0.5t3.5 -1.5
l3 -3t4 -4.5t4.5 -4.5t2.5 -3q2 -1 5 -1q2 0 2.5 1t0.5 2.5v2.5v2v3v2q-1 1 -6 4t-10.5 7.5t-10 8.5t-4.5 5q0 2 1 2.5t3 0.5q4 0 6 -1.5t4 -4l4 -5t4 -3.5q1 -1 2.5 -2l3 -2t2.5 -1.5l1 -0.5l3 1l0.5 3.5t0.5 5.5q0 4 -5 9t-11.5 10t-12 10.5t-5.5 10.5q0 2 1 2.5t2 0.5
q5 0 8 -4t5.5 -8.5t5 -8t8.5 -3.5h1.5t1.5 1v3v2q0 8 -2 17t-4 17q-1 2 -3 7t-2 8zM60 224q1 2 5.5 3.5t10.5 3t12.5 2t12.5 1t10.5 1t6.5 0.5h3h2l3 -3q-1 -3 -5 -4.5t-9.5 -2t-10 -1t-6.5 -0.5q-2 -1 -2.5 -3.5t-0.5 -5.5v-3t2 -4q1 -1 4.5 -2t7 -2.5t6 -4t2.5 -4.5l2 -22
q0 -2 -2 -4t-4 -2q-1 0 -2.5 0.5t-1.5 2.5v23q0 1 -1 2t-3 1.5t-3.5 1l-1.5 0.5q-2 0 -2.5 -0.5t-0.5 -2.5v-35l1 -2q1 0 2.5 -1.5l2.5 -2.5t2.5 -2l1.5 -1q2 -1 4 -2.5t2 -3.5q0 -1 -0.5 -2t-1.5 -1q-4 0 -8 2t-7.5 5l-7 6t-6.5 5q-5 3 -11 4.5t-11 5.5q-2 1 -2 2.5v3.5
q4 0 7.5 -1.5t6.5 -3l6 -3t6 -1.5q1 0 2.5 0.5t1.5 2.5v38q0 4 -2.5 8t-7.5 4q-1 0 -3.5 -0.5t-2.5 -2.5v-28q0 -3 -2 -5t-5 -2h-2t-2 1v10v8q0 3 0.5 6.5t0.5 7.5t1 9zM56 152q0 2 1 2.5t3 0.5q3 0 11 -3.5t16.5 -8.5t15 -9.5t6.5 -6.5q0 -4 -4 -4q-3 0 -6 1.5t-5.5 4l-5 5
t-5.5 4.5q-2 1 -6.5 2.5l-9 3t-8 3.5t-3.5 5zM57 127q0 2 1.5 2.5t3.5 0.5q7 0 12 -3.5t11 -6.5q3 -2 7.5 -3t8.5 -3t6.5 -5t2.5 -8q0 -6 -3.5 -8.5t-8.5 -3.5v-10v-9t2 -9q3 0 6.5 -1t6.5 -3t5 -5t2 -7v-25h-2.5h-3.5l-0.5 0.5t-0.5 1.5q1 6 -0.5 13t-2.5 13q-1 1 -3 2.5
t-4 1.5t-3 -1t-2 -3v-9q0 -5 1 -10t1 -10v-3t-0.5 -3.5t-1.5 -3t-3 -1.5q-1 0 -1.5 0.5l-1.5 1.5q-1 10 -1.5 20.5t0.5 20.5q-1 2 -3 2h-2q-4 0 -5.5 -3t-2 -6.5t-0.5 -8v-8.5q0 -3 -1 -5.5t-4 -2.5q-2 0 -3 1.5t-1 2.5v2v1v4.5t0.5 7.5t0.5 8v5q2 4 5.5 6t7 3t6 2t2.5 2v3
q0 3 -0.5 9t-1 9.5t-0.5 4.5h-25l-1.5 2t-2.5 3v1q0 1 1.5 2t2.5 1q7 0 15 -1.5t15 -1.5q3 0 3.5 2t0.5 4q0 4 -3 6.5t-7.5 4.5t-10 3.5t-10 3t-7.5 3.5t-3 4zM127 116q0 2 1.5 2.5t2.5 0.5q5 0 8 -3t4.5 -7.5t2.5 -9t1 -7.5v-3q0 -1 -0.5 -3t-0.5 -4.5t-0.5 -4.5t-0.5 -3
q-1 -3 -4 -3q-1 0 -2 0.5t-1 2.5v27l-1.5 1.5t-1.5 2.5t-1.5 2t-2.5 2.5t-2.5 3.5t-1.5 3zM188 114q1 3 3 4t4 1q3 0 4.5 -1.5t1.5 -4.5v-1v-1q-4 -4 -6.5 -9.5t-3.5 -11t-1 -11.5t1 -12l-5 -4q-3 2 -3.5 4.5t-0.5 6.5q0 11 2 20.5t4 19.5zM157 84q0 2 0.5 4.5t3.5 2.5v-0.5
v-0.5q1 0 2 -1l1 -1l3 -25l2 -2h1.5t3 -0.5t3.5 -0.5h3q5 -1 7.5 -3.5t3.5 -6t1 -8v-7.5v-11q0 -1 -1 -1h-2q-3 0 -4 2t-1 5.5v7.5t-1 7.5t-3.5 6t-7.5 2.5q-3 0 -3 -4q0 -3 0.5 -6.5t2.5 -7.5l-2 -1v-2v-2q0 -5 1 -8.5t1 -7.5q0 -2 -2 -3t-3 -1q-4 0 -5 3t-1 7.5v10v10
t-1.5 8t-4.5 3.5q-2 0 -5 -0.5t-3 -2.5v-26l-1 -1t-2 -1q-2 -1 -3.5 1t-1.5 3v1q0 2 0.5 5t0.5 6.5t0.5 6.5t0.5 5q1 2 2.5 4t4 3.5t5.5 2.5t5 1l2 3q-2 6 -2.5 10t-0.5 10z" />
</svg>
