<?xml version="1.0" standalone="no"?>
<!DOCTYPE svg PUBLIC "-//W3C//DTD SVG 1.1//EN" "http://www.w3.org/Graphics/SVG/1.1/DTD/svg11.dtd" >
<svg xmlns="http://www.w3.org/2000/svg" xmlns:xlink="http://www.w3.org/1999/xlink" version="1.1" viewBox="-10 0 266 256">
   <path fill="currentColor"
d="M58 242q0 7 2.5 8t8.5 1h5.5t4.5 -2q14 -1 28 -1h28t27.5 -0.5t27.5 -1.5q1 0 1.5 -1t0.5 -2v-1v0l-6 -2h-37q0 -5 -0.5 -9.5t-0.5 -8.5v-8v-9v-8.5t1 -8.5q9 0 14.5 -2t8.5 -6t4 -10t1 -16q0 -2 -1 -3t-3 -1h-1h-2q-2 9 -2.5 15t-3 10t-7.5 6t-15 3h-3.5h-6.5h-7h-5h-5
h-6h-7h-4q-5 0 -6.5 -4t-2 -9t-1 -9t-2.5 -4h-1q-3 2 -3.5 2.5t-0.5 3.5q0 4 1 9.5t2 10.5q2 3 5 5t7 2.5l8 1t7 0.5q2 7 2 14v14v3v5v5v3t-1 2l-2 2t-2.5 1h-2.5h-47zM120 200v-4v-2l3 -3h15q2 0 3 2.5l1 2.5v3v5.5v5.5v3v13q0 6 -2 12q0 1 -0.5 1.5t-1.5 0.5h-15l-1 -2
l-0.5 -3t-0.5 -8t-0.5 -10t-0.5 -9v-3.5v-4.5zM84 232v2.5t2 1.5t3.5 -1t2.5 -2.5l2 -3t2 -1.5q1 -7 1.5 -12t0.5 -11v-3.5t-2 -2.5q-2 1 -3 3t-2 4.5t-1 4.5v3q-1 4 -3.5 9t-2.5 9zM160 198q0 5 1.5 10t4 9.5t6.5 7t9 2.5q0 -2 -2.5 -7t-5.5 -10.5t-5.5 -9.5t-3.5 -4h-2.5
t-1.5 2zM105 166v1q0 1 0.5 1.5l0.5 0.5h37l1.5 -0.5l3 -1t2.5 -1t1 -1.5v-1l-2 -2h-6q-5 0 -9 0.5t-8.5 0.5t-9 0.5t-10.5 0.5l-1 1v1zM59 143q1 0 1.5 1.5t1.5 2.5t2.5 2t2.5 1h53l2 -1l-3 -4h-16q-1 0 -1.5 -1.5t-0.5 -3t-0.5 -3l-0.5 -1.5q0 -4 2 -6t5 -3t6 -1.5t6 -1.5
l1 -1v-24h-18l-0.5 -1t-1.5 -1v-4v-5q2 -2 4.5 -2h5t4.5 -1t2 -3q0 -1 -0.5 -2t-1.5 -1h-15q-10 0 -18 0.5t-13 3t-7.5 9t-2.5 17.5v8v8t0.5 8t0.5 10zM135 146q0 1 0.5 2t2.5 1q3 0 5 -3.5t3.5 -9t2 -12t1.5 -13t1.5 -12t2.5 -8.5q0 -1 1.5 -1.5t2.5 -0.5h3h1h3h2
q2 1 3.5 3t1.5 4q0 4 -1.5 8t-1.5 8q0 5 1.5 11t5 11.5t8 9t9.5 3.5h3.5t1.5 -3q0 -4 -3.5 -6t-7.5 -5t-7.5 -7t-3.5 -11t2.5 -13t2.5 -12v-2q-3 -4 -4.5 -5t-4.5 -1t-5 0.5t-5 0.5q-7 0 -14 -2.5t-15 -2.5q0 4 2.5 6t5 3.5l5 3t2.5 4.5q0 4 -1 7l-2 6t-2 6.5t-1 6.5
q-1 0 -1.5 0.5t-0.5 1.5v2v3v2v2q0 4 -2.5 7t-2.5 7zM68 134l0.5 -1l0.5 -1q4 -2 7 -2.5t8 -0.5h6q3 1 3.5 2.5t0.5 4.5v2.5t-0.5 2.5l-1 2t-1.5 1h-18q-1 0 -2 -1t-1.5 -3t-1 -3.5t-0.5 -2.5zM65 118q0 -5 4.5 -7.5t11 -4t12.5 -1.5h10h2h3t3.5 0.5t1.5 2.5v10q0 1 -1.5 1
t-3 0.5t-3.5 1t-3 0.5t-4 0.5t-7 0.5t-8 0.5t-7 0.5h-3q-3 0 -5.5 -1t-2.5 -4zM68 97q0 -3 2 -5t4.5 -3l5 -2t4.5 -1q5 0 7 2t2 6v2.5v1.5q-2 2 -4.5 3t-5.5 1t-6 -0.5t-6 -0.5q-2 0 -2.5 -1t-0.5 -3zM67 36q0 2 0.5 5.5t1.5 7t2.5 6t2.5 2.5h14q2 0 2.5 2.5t0.5 5t0.5 4.5
t2.5 2h1h1q0 -6 1.5 -9t4 -4t5 -1.5t5 -1.5t4 -3t1.5 -7q0 -1 0.5 -3.5t0.5 -5.5v-6v-4q-3 0 -5 0.5t-3 3.5v5t-0.5 6t-2.5 5t-5 2h-2t-2 -1v-25q0 -1 -1.5 -1h-2.5h-2t-2 1v26q0 3 -2.5 3.5t-3.5 0.5q-3 0 -5 -3t-3.5 -7t-2 -7.5t-0.5 -5.5q0 -1 -1 -1h-1q-3 0 -3.5 3
t-0.5 5zM134 29l3 21q1 4 4 4.5t6.5 1.5t6 3.5t2.5 10.5q3 0 3.5 -1.5t1 -3.5t0.5 -4.5t2 -3.5q6 -3 10.5 -3t7.5 -1.5t4.5 -5.5t1.5 -14v-4v-4t-1.5 -3t-3.5 -1h-1q-1 0 -2.5 1.5l-1.5 1.5v21l-2 1t-3 1t-4.5 -0.5t-4.5 -0.5v-24q0 -1 -1.5 -2.5t-3.5 -1.5t-4 1v2.5v2.5
q0 5 0.5 10.5t0.5 10.5q0 3 -0.5 4t-3.5 1q-4 0 -6 -2.5t-3 -6.5t-1.5 -8t-0.5 -6h-1h-1h-2.5t-1.5 2z" />
</svg>
