<?xml version="1.0" standalone="no"?>
<!DOCTYPE svg PUBLIC "-//W3C//DTD SVG 1.1//EN" "http://www.w3.org/Graphics/SVG/1.1/DTD/svg11.dtd" >
<svg xmlns="http://www.w3.org/2000/svg" xmlns:xlink="http://www.w3.org/1999/xlink" version="1.1" viewBox="-10 0 266 256">
   <path fill="currentColor"
d="M113 252q0 3 3 3q4 0 8.5 -3.5t9.5 -8.5t9.5 -11.5t8 -13t5.5 -12t2 -9.5q0 -7 -4 -11.5t-9 -7.5t-9 -7t-4 -11q0 -2 1.5 -5t2.5 -4q6 0 13 -0.5t14.5 -0.5t15 -0.5t14.5 0.5q1 -1 2.5 -2t1.5 -3q0 -3 -2.5 -4.5t-5.5 -1.5h-2.5h-1.5l-2.5 0.5l-5 1t-4.5 1t-3 0.5h-5h-8
h-9h-5q-3 0 -9 0.5t-14.5 1t-17.5 1.5t-17 1.5t-14 1t-9 0.5q-3 1 -3.5 2t-0.5 3t0.5 3.5t3.5 1.5q1 1 4 1h5q12 0 23 -2.5t24 -2.5h3l3 18q0 1 3 4t6.5 5.5t7.5 4.5t5 4l0.5 2.5t0.5 3.5q0 7 -3.5 13.5t-8 12.5t-10.5 11.5t-11 9.5q-1 1 -1.5 4t-0.5 4v1zM83 127q0 2 1 3.5
t3 1.5q17 0 35.5 -2.5t35.5 -3.5h2h4h3.5h2.5q0 -1 1 -2t2 -1v-1v-1q-1 0 -2 -1t-1 -2h-4h-4q-6 0 -12 1t-12 1q-3 0 -4.5 -1.5t-2 -4t-0.5 -5v-5.5q0 -7 1 -13t2 -13q0 -5 2.5 -8t5 -4.5t4 -2.5t1.5 -4q0 -2 -1.5 -3.5t-3.5 -1.5q-7 0 -11.5 3.5t-5.5 10.5q-2 13 -3 25
t0 25q-3 2 -9.5 2t-13 0.5t-11.5 2t-5 4.5zM62 116q0 2 0.5 3t3.5 1l2.5 -0.5t2.5 -1.5q1 0 3.5 -2t4.5 -4t4.5 -3.5t3.5 -2.5q2 -1 3 -3t4 -3q1 2 3 4t3.5 4t4 3t5.5 1t3 -3t-2 -6t-5 -5.5t-6 -4.5t-5 -3v0q-1 0 -3.5 1.5t-6 3t-6 3.5t-3.5 2l-3 3l-4 4l-4 4t-2 3
q-1 0 -1 1v1zM164 97q4 0 7 2.5t6 5.5t6 5.5t7 3.5q3 0 4 -2.5t1 -3.5v-3q-5 -6 -13.5 -11.5t-16.5 -5.5q-4 0 -8 2.5t-8 5.5t-6.5 7t-2.5 7q0 1 1 1.5t2 0.5q3 0 6 -2t5 -5t4.5 -5.5t5.5 -2.5zM62 90q0 2 1.5 2.5t3.5 0.5q5 0 8.5 -2.5t6.5 -5.5t6.5 -5.5t8.5 -2.5q4 0 6 2
t4 4.5l4 5t8 2.5q0 -6 -3 -9.5t-6 -6.5l-6 -6t-3 -8q0 -4 2 -5.5t4.5 -2t6 -0.5t5.5 -2q3 -1 4.5 -3.5t2.5 -5.5l2 -6t2 -5v-1q0 -3 -2 -7t-5 -4q-4 0 -4.5 4t-1 9.5t-2.5 10t-8 4.5q-1 0 -2.5 -1t-1.5 -2v-8q0 -6 1.5 -12.5t1.5 -13.5q0 -1 -2 -2t-3 -1t-2.5 1.5t-1.5 2.5
q0 3 -0.5 7l-1 8t-0.5 8.5v7.5q-2 2 -3.5 2h-3.5q-5 0 -6 -4t-0.5 -9.5t0 -9.5t-4.5 -4q-2 0 -2.5 1t-1 2.5t-0.5 3.5v2q0 6 1 12.5t0 12.5q4 2 8.5 2h6.5q3 1 3.5 3t0.5 4q0 5 -3.5 8t-8.5 6.5l-10 7t-8 6.5l-1 1v1zM140 88v0q0 1 0.5 1.5l0.5 0.5h1v0h0.5h0.5q3 -2 6 -3.5
t5 -3.5l4.5 -4.5t5.5 -6.5h1v0v0q4 4 9 7t9 7h1h1q3 0 4.5 -1.5t1.5 -4.5q0 -4 -3.5 -6.5t-8 -4.5t-8 -5t-3.5 -8q0 -2 3 -2.5t7 -1.5t8 -1.5t6 -3.5q1 -2 1.5 -4.5t1 -5.5t0.5 -5v-5q0 -6 -2 -8t-8 -2v19q0 3 -1.5 4t-3.5 1h-4h-3q0 -7 0.5 -13.5t0.5 -13.5v-2.5v-1.5
q0 -1 -0.5 -2l-0.5 -1h-8v8.5t-0.5 12.5t-2.5 11t-7 5q-2 0 -4 -1t-2 -3t-0.5 -4.5t-0.5 -5t-0.5 -5t-0.5 -3.5q0 -2 -1 -2h-2q-3 0 -3.5 1t-0.5 3q0 6 1 10t2 10q1 3 2 4.5t3 2t4.5 1t5.5 1.5l0.5 0.5l0.5 0.5v3v2q0 6 -3 9t-6.5 5.5t-6.5 6t-3 8.5z" />
</svg>
