<?xml version="1.0" standalone="no"?>
<!DOCTYPE svg PUBLIC "-//W3C//DTD SVG 1.1//EN" "http://www.w3.org/Graphics/SVG/1.1/DTD/svg11.dtd" >
<svg xmlns="http://www.w3.org/2000/svg" xmlns:xlink="http://www.w3.org/1999/xlink" version="1.1" viewBox="-10 0 266 256">
   <path fill="currentColor"
d="M157 171h2q3 0 3 2v75l1.5 1.5t2.5 1.5t2.5 -2.5t1.5 -3.5v-74l1 -0.5l1 -0.5h1q4 0 7 4.5t4.5 10.5t2.5 12t1 9q0 2 0.5 4.5t0.5 5.5t0.5 6t0.5 4v3v5v5v3h2.5t3 -1t2 -2t-0.5 -3v-5t-0.5 -8t-0.5 -7.5v-4.5q-1 -4 -1 -9.5t-1 -10.5t-2 -9.5t-4 -7.5q-2 -2 -5.5 -4.5
t-6.5 -4.5t-5.5 -4.5t-2.5 -6.5q0 -1 0.5 -2.5t0.5 -2.5q1 -3 5 -3.5t7.5 -2.5t6.5 -7t3 -18v-2t-1 -2q-4 2 -5 6.5t-2.5 9t-4 7.5t-8.5 3v-32l-1 -1.5t-2 -1.5v0h-1l-2 1l-2 34q0 1 -1.5 1.5t-2.5 0.5q-4 0 -5.5 -3t-1.5 -7t-0.5 -8.5t-2.5 -6.5h-1h-1l-1 0.5l-1 0.5v4v5v4
t1 4.5t1 6.5q1 3 4 4l6 2t5 2.5t2 6.5q0 3 -1 4t-3 2l-4 2l-4 2q-6 4 -9 11.5t-5 16.5t-2 18v14v2v2t0.5 3.5t0.5 3v2.5l1.5 0.5l1.5 0.5q3 0 4 -1t1 -4v-40l0.5 -2.5t2 -5.5t2.5 -6.5t2 -5.5q1 -3 2 -4t4 -1zM86 243q0 1 1 1.5t2 0.5q3 0 7.5 -4t7.5 -9.5t5 -11t2 -8.5
t-2 -7t-4 -7.5t-3.5 -7.5t-1.5 -6q0 -3 5 -3.5t10.5 -1t10 -1t4.5 -4.5h-61h-1.5t-3.5 0.5t-3.5 0.5t-1.5 1q-1 0 -1.5 0.5l-0.5 0.5l0.5 1.5t1.5 1.5l1 1h33l1.5 4t3 8.5t3 9.5t1.5 7q0 5 -2.5 10t-5.5 9t-5.5 7.5t-2.5 6.5zM74 141q0 10 4 15.5t14 5.5q4 0 9 0.5t10 0
t9 -2.5t6 -7v-3.5t0.5 -5.5t0.5 -6v-4v-3q0 -5 -2 -7.5t-5.5 -4.5t-7.5 -2.5t-7 -1.5v-2v-2q0 -6 3.5 -7.5t8 -3t8.5 -4t4 -10.5q0 -1 -1.5 -3t-2.5 -2q-3 0 -4 2.5t-2 6t-3 6t-6 2.5q-1 0 -3 -0.5t-2 -1.5v-18l-0.5 -0.5t-1.5 -0.5q0 -1 -1 -1.5l-1 -0.5q-1 0 -2.5 0.5
t-1.5 1.5v20q0 2 -2 2h-3q-4 0 -5.5 -3t-2.5 -7t-1.5 -7.5t-4.5 -3.5q-2 0 -2.5 1t-0.5 3v4.5t0.5 5.5t1 5t1.5 3t4.5 2t6.5 1.5t6 1.5l3 1q0 1 -0.5 3t-1.5 3q0 1 -1 2l-1 1l-14 4q-3 1 -4 4t-1.5 6.5t-0.5 6.5v5zM81 150v-3t1 -2q2 -1 6.5 -1t9 -0.5l9 -1t5.5 -0.5h3
q3 0 3.5 1t0.5 4q0 2 -0.5 3.5t-1.5 2.5q-5 3 -9.5 3.5t-9.5 0.5h-5q-2 0 -5 -0.5t-5 -2t-2 -4.5zM101 122h7q3 0 5 1t4 3t2 6q0 1 -0.5 2.5t-1.5 1.5h-36q0 -5 1.5 -7.5t4.5 -4t6.5 -2t7.5 -0.5zM168 87q4 0 7 2.5t7 5.5l8 6t8 3q1 0 2.5 -0.5t0.5 -3.5q-1 -4 -4 -6
t-6.5 -3.5t-7.5 -2.5t-7 -3t-5 -5t-2 -9v-1v-1v-2.5t0.5 -4.5t0.5 -4.5v-2.5q1 -2 3.5 -2.5t5 -1.5t5.5 -2t4 -3q2 -6 2.5 -9.5t0.5 -8.5v-4t-3 -2t-3.5 3.5t-1.5 8t-3 8t-9 3.5v-29l-1 -1t-1 -2l-2 -1l-1 0.5t-2 0.5q0 8 -0.5 15t-0.5 15q-1 2 -2 2.5t-3 0.5q-3 0 -5 -1.5
t-2.5 -4.5t0 -6t0.5 -6q0 -1 -1.5 -2l-1.5 -1h-1h-1l-1 0.5t-1 1.5l-0.5 2t-0.5 3q0 9 3.5 13.5t7 6t6.5 2t3 1.5q0 9 -1 15.5t-4 11.5t-8 9.5t-13 8.5q1 1 2 1.5t2 0.5q3 -1 6.5 -2.5t6.5 -4t6 -4.5l6 -4h1h1zM98 50v12q0 1 1 1.5t2 0.5l1 -0.5t1 -1.5l3 -13q5 -1 9 -2.5
t6 -3.5t3.5 -5t1.5 -9v-4l-0.5 -0.5t-1.5 -0.5q-2 0 -3.5 2t-3 4.5t-3 5.5t-3.5 4q-1 0 -3 -0.5t-3 -0.5v-21q0 -1 -1 -1.5t-2 -0.5q-4 0 -4.5 4t0 9t0 9t-6.5 4q-4 0 -5 -3t-1.5 -6.5t-1 -6t-3.5 -2.5v0q-1 0 -2 0.5l-1 0.5v2.5v2.5q0 6 1 9.5t3.5 5.5t6.5 3t10 2z" />
</svg>
