<?xml version="1.0" standalone="no"?>
<!DOCTYPE svg PUBLIC "-//W3C//DTD SVG 1.1//EN" "http://www.w3.org/Graphics/SVG/1.1/DTD/svg11.dtd" >
<svg xmlns="http://www.w3.org/2000/svg" xmlns:xlink="http://www.w3.org/1999/xlink" version="1.1" viewBox="-10 0 266 256">
   <path fill="currentColor"
d="M81 196v16.5t2.5 18t8 14.5t14.5 6h59q2 0 5.5 -1t6.5 -3t5.5 -4t2.5 -5v-50q0 -2 -1.5 -3t-3.5 -1t-2.5 2.5t-1 5.5t-2.5 5.5t-8 2.5h-3q-2 0 -5.5 -0.5t-7.5 -1t-7 -0.5h-4h-2.5t-3.5 -0.5t-3.5 -1.5t-1.5 -2q0 -2 0.5 -4.5t0 -5t-2 -4.5t-3.5 -2t-3 0.5t-1 2.5l1 1.5
l1 1.5q0 1 0.5 2.5l0.5 1.5q1 5 1 7.5t0.5 3.5t2 1.5t5.5 3.5h45q1 0 1.5 3t0.5 4q0 3 -1.5 4t-4.5 2q-19 -1 -37.5 0t-37.5 1h-2.5h-3.5q-3 -1 -3 -3v-4q0 -3 1 -5.5t1 -5.5t-1.5 -4.5t-4.5 -1.5h-2t-1 2zM92 230q0 -2 1.5 -3t3 -1.5t3.5 -0.5h4h5t9.5 -0.5t9.5 -0.5h5h3.5
h5.5h6h5h4h6h6h4q3 1 4 2.5t1 3.5q0 7 -6.5 10t-15 4.5t-16.5 1t-12 -0.5h-10t-11.5 -1.5t-10 -5t-4.5 -8.5zM91 180l1 1l5 -3v-32l2 -2q1 0 2.5 0.5t3 1.5l3 2t1.5 2l3 14q0 1 1 1h2q3 0 3.5 -2.5t0.5 -4.5q0 -7 -3.5 -10.5t-7.5 -5.5t-7.5 -3.5t-3.5 -4.5q0 -2 3.5 -3.5
t8.5 -4.5t9 -7.5t4 -12.5q0 -7 -2 -11t-5.5 -6t-8 -3t-9.5 -1v-8q0 -1 2 -1q3 0 6.5 -0.5t6.5 -3.5t3 -9v-2.5v-1.5l-1 -0.5t-2 -1.5h-1v0q-1 6 -3.5 9.5t-8.5 3.5h-2q-1 -1 -2 -4t-1 -4l-0.5 -0.5l-1.5 -1.5v0h-1q0 2 -0.5 4t-1 3.5t-1.5 3t-4 1.5t-5 -2.5t-3 -5.5t-2.5 -5
t-6.5 -2q0 4 2 8.5t5 7.5q1 2 4 3t6 1.5t5 1.5t2 5v1.5t-2 1.5h-14l-7 7v2t-0.5 5t-0.5 6v4v1.5v0.5q0 4 2.5 7.5t6 5.5t8 3t7.5 1v10l-1 0.5t-2 0.5q-7 2 -11 3t-6 3.5t-3 6.5t-3 11v1q0 2 1.5 3t2.5 1h2q1 0 2 -0.5t1 -1.5v-14l2 -1.5t4 -2.5q2 -2 4.5 -1.5t6.5 0.5v31z
M159 174l2 1q3 -1 3.5 -4.5t0.5 -7.5v-9t1 -7q1 0 4.5 -0.5t4.5 -0.5h1q3 0 5 2.5t2.5 6.5t0.5 7.5v5.5q2 0 4 -2.5t2 -4.5q0 -12 -4.5 -17t-17.5 -4q-1 -1 -2 -2.5l-1 -1.5q-1 -2 1 -3t3 -2l2 -0.5t4 -0.5t3.5 -0.5l1.5 -0.5q7 -4 8.5 -11t1.5 -13q0 -4 -1 -9t-6 -6l-17 -5
v-1.5v-0.5q0 -3 3.5 -4.5t7.5 -3t7.5 -4t3.5 -8.5q0 -2 -1 -4t-3 -2q-1 0 -2 2.5t-3 5l-4 5t-6 2.5l-0.5 -0.5t-0.5 -1.5q0 -4 -0.5 -6.5t-1.5 -4.5t-2 -4.5t-1 -5.5t4.5 -4.5t9 -4t8 -6.5t2.5 -13q0 -3 -1 -4t-3 -1h-2.5t-1.5 2v11q0 2 -1 3t-3 1.5t-3.5 1t-2.5 0.5h-2.5
t-1.5 -2v-14q0 -3 -1 -5t-4 -2q-2 0 -2.5 1t-0.5 2q0 3 1 5.5t1 5.5v5t-1 5h-2q-6 0 -8 -2.5t-2.5 -5.5t-1.5 -5.5t-5 -2.5q0 7 1 10.5t3 5.5t4.5 3.5t5 3.5t4.5 5.5t4 10.5v2v3v2v3q-2 2 -3 2.5t-2 0.5q-3 0 -5 -1.5t-4 -3.5t-3.5 -4t-2.5 -4q-2 0 -2 2v2q0 6 3.5 8.5
t7.5 3.5t7.5 2t3.5 5q0 2 -0.5 3.5t-2.5 1.5l-13 3q-2 1 -3.5 4t-2.5 7t-1 8v5q0 4 2.5 7.5t5.5 5.5q1 1 3 1.5l4 1l4 1l2 0.5v8l-3 1t-6.5 3t-6.5 5.5t-3 10.5q0 1 0.5 3l0.5 2l2 3l3 -3q0 -2 0.5 -4.5t1 -5.5t2 -5t4.5 -2q1 0 3 0.5t2 2.5v24zM75 115q0 -4 3.5 -4.5
t5.5 -0.5h3t2 1v14q-1 0 -3.5 -1t-5 -2.5t-4 -3.5t-1.5 -3zM97 109h15q1 0 1.5 1.5l0.5 1.5q0 3 -1.5 5t-3.5 3.5t-4.5 2.5t-4.5 1h-1l-1 -1t-1 -2v-12zM143 113q0 -1 0.5 -1.5t1.5 -0.5h6h5t5 2v4q0 2 -0.5 4.5t-3.5 2.5q-5 0 -9.5 -2.5t-4.5 -8.5zM166 117q0 -3 1.5 -4.5
t4 -2t5.5 -0.5h5v2.5t-0.5 4.5t-1.5 4t-3 2h-9q-1 0 -1.5 -0.5t-0.5 -1.5v-4zM75 100q0 -1 0.5 -3.5t2.5 -2.5h12q0 5 -1 8t-6 3q-3 0 -5.5 -0.5t-2.5 -4.5zM145 103v-1q0 -3 3 -6t6 -3q5 0 6.5 4t1.5 8q-5 0 -9 -0.5t-8 -1.5zM166 97q0 -3 3 -3.5t5 -0.5q4 0 5.5 2t2.5 5v1
q0 1 -1.5 2t-3 1.5t-2.5 0.5h-2q-1 0 -3 -0.5l-2 -0.5q-1 0 -1.5 -2.5l-0.5 -2.5v-2zM97 101v-4q0 -4 0.5 -5t5.5 -1t8 4t3 9h-3t-5 -0.5t-5.5 -1t-3.5 -1.5zM68 21v2q2 5 3.5 8t3.5 4.5t5 3l7 3.5q1 1 1.5 2.5t0.5 3t0.5 3t2.5 1.5h0.5h1.5q0 -6 1.5 -8.5t4 -4t5.5 -2
t5 -1.5t3.5 -3t1.5 -7v-2t-1 -2q-3 0 -4.5 1.5t-3 4t-3 4t-4.5 1.5h-1.5t-1.5 -1v-13l-1 -0.5l-1 -0.5q-1 0 -2.5 -0.5l-1.5 -0.5v3v3t-0.5 3.5t-0.5 2.5t-0.5 3.5t-2.5 2.5q-4 0 -5.5 -2.5t-3 -6t-3 -6t-4.5 -2.5q-1 0 -1.5 1t-0.5 2z" />
</svg>
