<?xml version="1.0" standalone="no"?>
<!DOCTYPE svg PUBLIC "-//W3C//DTD SVG 1.1//EN" "http://www.w3.org/Graphics/SVG/1.1/DTD/svg11.dtd" >
<svg xmlns="http://www.w3.org/2000/svg" xmlns:xlink="http://www.w3.org/1999/xlink" version="1.1" viewBox="-10 0 266 256">
   <path fill="currentColor"
d="M64 244v0.5v0.5q1 1 2.5 3t2.5 3q2 -1 3.5 -3.5t2 -5t1 -4t2.5 -1.5h41q2 0 4 -1.5t2 -3.5v-2.5t-1 -1.5h-19q0 -2 -0.5 -4t-0.5 -4t0.5 -4t2.5 -3h4t6 -0.5t5 -2t2 -4.5v-1l-0.5 -0.5t-1.5 -0.5h-15l-0.5 -1t-0.5 -2v-5v-5l2 -0.5t4.5 -0.5t4 -0.5t2.5 -0.5t2 -0.5
l1 -0.5q1 -2 1 -3.5v-1.5h-14l-0.5 -1t-1.5 -2t-1 -1.5v-2.5t1.5 -3.5t3.5 -1.5q3 0 5.5 2t4.5 2q3 0 4.5 -1.5t1.5 -3.5q0 -3 -3.5 -3.5t-7.5 -1t-7 -1.5t-3 -4q0 -4 2 -6t5 -3l6 -2t5 -4q-2 -2 -5 -4.5l-6 -5t-6.5 -3.5t-6.5 -1h-3q-1 0 -2.5 2t-3.5 4t-3.5 4t-2.5 2.5
t-2.5 1.5t-3 2.5l-2.5 2.5t-1 2v1.5v0.5q1 0 3 1t4 2.5t3.5 2.5t1.5 2q0 2 -1 4t-3 4l-3.5 3.5t-2.5 4.5q-3 5 -5.5 11t-3.5 12q-1 2 -1 6.5t-0.5 10t-1 10.5t-0.5 7l-0.5 1t-0.5 2t-0.5 2.5l-0.5 1.5v0.5v1.5zM137 245q0 2 0.5 3t2.5 3h0.5h0.5q2 0 3 -1.5t1.5 -3.5t0.5 -4
v-3l10 -3h44q5 0 5 -6l-0.5 -0.5l-0.5 -0.5h-5.5h-7.5h-7.5h-4.5q-2 0 -5 -0.5t-3 -1.5v-15h21l1.5 -1.5t1.5 -2.5v-1v0q0 -1 -0.5 -1.5l-0.5 -0.5h-21q-1 0 -2 -0.5t-1 -1.5v-2v-2t-0.5 -3t1.5 -2l21 -3q1 0 2 -1.5l1 -1.5v-1v-1l-1 -1l-2 -2h-1q-4 0 -8 1t-8 1
q-1 0 -3.5 -0.5t-1.5 -2.5l1 -12h1h2q2 0 4.5 1t4.5 2t4.5 2t4.5 1t2.5 -1t0.5 -3q0 -4 -3 -5t-6.5 -2t-7 -1.5t-5.5 -3.5q3 -5 8.5 -7.5t10.5 -2.5v-1.5v-0.5q0 -2 -4 -5t-9 -5.5t-9.5 -4.5t-6.5 -2q-1 0 -4.5 3t-8 7t-7.5 7.5l-3 3.5q0 1 2.5 2t5.5 2.5l5 2.5t2 3v1
q-4 5 -7 10l-6 10q-1 3 -1 9t-0.5 13t-1 13.5t-1.5 8.5q0 4 -0.5 9t-0.5 9zM74 221q0 -4 3 -6t6.5 -2.5t7.5 -0.5h6v14l-3 3h-18l-0.5 -1.5l-1 -3t-0.5 -2.5v-1zM145 223v-3t1 -3q0 -1 0.5 -2l0.5 -1h14q2 0 2.5 2.5t0.5 4.5q0 1 -1 4.5t-4 3.5h-13l-0.5 -2t-0.5 -3v-1z
M76 205v-3q0 -4 1.5 -6t4 -3t5.5 -1h6h3t2 2v10l-0.5 0.5l-0.5 0.5l-3 1.5t-2 0.5h-2h-3h-5.5t-5.5 -2zM146 202q0 -2 0.5 -4.5t2.5 -3.5q1 0 3 -0.5l2 -0.5q1 0 3 0.5l2 0.5q1 0 2 0.5l1 0.5v10q0 1 -1 1t-2 0.5t-2 0.5h-1h-3.5t-3 -0.5t-2.5 -1.5t-1 -3zM149 182
q0 -2 1.5 -4.5t3.5 -4.5t4 -3.5t3 -2.5l1 2v17h-10l-0.5 -0.5l-0.5 -0.5q-1 -1 -1.5 -2zM82 183v0q0 -3 2 -5.5t4 -4.5l4 -4l3 -3h1h1l0.5 0.5l0.5 0.5v16q0 1 -0.5 1.5l-0.5 0.5h-4h-5.5t-5.5 -2zM89 150q0 -2 1.5 -4.5t3 -4t4 -2.5t4.5 -1q3 0 5.5 1.5t4.5 5.5
q-1 1 -3.5 2.5t-2.5 2.5h-1h-1q0 -1 -0.5 -2.5t-0.5 -2.5q-1 0 -3 1l-2 1q0 1 0.5 3t-0.5 2q0 1 -0.5 2l-0.5 1q-2 1 -5 -1t-3 -4zM152 149v-1l10 -10h1q2 0 4 0.5t4 1.5t3.5 3t1.5 4t-1.5 3t-3.5 1t-2 -1.5t-2 -1.5q-3 0 -3.5 2.5t-1.5 4.5v1h-1q-3 0 -6 -2t-3 -5zM64 129
q0 1 1.5 2t3.5 1q1 0 3 -0.5t2 -2.5v-29q0 -2 1 -3t2.5 -2t3.5 -1.5l2 -0.5q1 -1 3.5 -1.5t4.5 -1t3.5 -1t2.5 -0.5h3.5t8 -0.5l9 -1t7.5 -0.5h1h1l1 0.5l1 0.5v40l1.5 0.5t2.5 0.5l1 -1q2 -4 3 -9.5t1 -10.5t-0.5 -10t-0.5 -9l3 -2h40l0.5 0.5t1.5 0.5q1 1 1.5 3l1 4l1 4
l0.5 2q0 2 0.5 5.5t0.5 8t0.5 8t0.5 5.5h1q2 0 3 -1.5t1.5 -4t0.5 -5v-3.5v-6q0 -3 -0.5 -6t-0.5 -6.5t-1 -7.5q-4 -5 -9 -6t-12 -1h-33q-2 -1 -2 -4v-5q0 -4 2 -6q3 0 10 -0.5t15 -1t15 -1t10 -0.5h3h6h5h4v-4q0 -3 -2 -3h-7q-6 0 -11.5 0.5t-11.5 0.5q-3 0 -3.5 -1.5
t-0.5 -4.5q0 -4 3.5 -5t8 -2t8.5 -4.5t4 -12.5q0 -2 -0.5 -4t-3.5 -2t-3.5 2.5t-1 6t-2 6t-6.5 2.5q-4 0 -5.5 -3.5t-1.5 -8.5t-0.5 -9t-4.5 -4h-1.5t-1.5 2v16v3t-0.5 3.5t-2 2.5t-2.5 1q-3 0 -5 -1q0 -1 -1 -2.5t-2 -3.5t-2 -3.5t-1 -2.5l-0.5 -0.5l-0.5 -0.5q0 -1 -1 -1
t-1 1q-1 0 -1 0.5v0.5v13l4 5h13q1 0 1.5 3.5t0.5 4.5q0 2 -0.5 3t-2.5 2q-9 1 -16.5 1h-17.5h-17q-2 -1 -2.5 -2t-0.5 -3q0 -5 3.5 -6.5t7.5 -3.5t7 -5t3 -11q0 -2 -0.5 -4.5t-3.5 -2.5q-2 0 -3 3.5t-2.5 7l-3 7t-5.5 3.5l-0.5 -0.5t-0.5 -1.5l-3 -20q0 -1 -1 -1.5t-2 -0.5
t-2 0.5t-1 1.5v20q0 1 -0.5 1.5t-1.5 0.5h-4q-5 0 -6.5 -2t-2.5 -4.5t-2 -6t-4 -5.5q-2 1 -2.5 3t-0.5 4q0 1 0.5 3.5t1.5 6t2.5 5.5t3.5 2h14q0 1 1 4t1 4q-1 2 -2.5 3.5t-2.5 1.5h-32q-4 0 -5.5 3t-1.5 6q15 0 28.5 -2t28.5 -2h17q1 2 1 4v4q0 3 -0.5 4l-1 2t-2.5 1h-5
q-2 1 -7 1t-10.5 0.5t-10.5 1t-8 0.5l-2 0.5t-4 1.5l-4 2t-2.5 2l-1.5 3t-1.5 4l-1 4l-0.5 2l-0.5 3t-0.5 6.5t-0.5 7.5t-0.5 7v1zM85 119l0.5 1t1.5 2l2 -1l2 -1h5.5t8 -0.5t7.5 -2t3 -4.5q-6 0 -13 0.5t-13 1.5l-1.5 1.5zM158 110v0q-1 0 -2.5 0.5t-3.5 1t-3.5 1.5t-1.5 3
h27l1 -1t1 -2v-1v-1h-3.5t-5 -0.5t-5 -0.5h-3.5h-1zM88 103q0 2 2 1.5t3 -0.5h10t10 -1v-4h-4h-5t-6 0.5t-4 0.5t-3 0.5t-3 2.5zM146 101q0 1 1 2t2.5 1h3.5h2h9.5t9.5 -1q0 -1 0.5 -1.5l0.5 -0.5q0 -3 -1.5 -3.5t-4.5 -0.5q-5 0 -11.5 0.5t-11.5 2.5v1z" />
</svg>
