<?xml version="1.0" standalone="no"?>
<!DOCTYPE svg PUBLIC "-//W3C//DTD SVG 1.1//EN" "http://www.w3.org/Graphics/SVG/1.1/DTD/svg11.dtd" >
<svg xmlns="http://www.w3.org/2000/svg" xmlns:xlink="http://www.w3.org/1999/xlink" version="1.1" viewBox="-10 0 266 256">
   <path fill="currentColor"
d="M137 223v25l0.5 1t0.5 2h0.5h0.5h0.5h0.5l3 -6q0 -12 1 -22t3 -19.5t4.5 -19t5.5 -19.5q1 -3 2.5 -5.5t3.5 -4.5t3.5 -4.5t1.5 -4.5h-24t-24 1q2 6 5.5 12t5.5 13q2 4 2.5 10.5l1 13t0.5 12.5v11q0 1 0.5 2.5t1.5 1.5zM102 199v35q0 1 1.5 1h1.5q2 0 3 -1.5t2 -3.5v-43
v-3t0.5 -6.5t0.5 -6.5v-3v-14t1.5 -14t7.5 -11t11 -8q2 -1 4.5 -3t5.5 -2q1 0 2.5 0.5l1.5 0.5l5 2.5t4 1.5q8 5 12 10.5t5.5 11.5t1.5 13v13v14t3 13v39h4q0 -3 1 -10.5t1.5 -15.5t1 -15.5t0.5 -10.5v0v-1q0 -7 -0.5 -14t-1 -14.5t-2.5 -14.5t-6 -13q-2 -4 -7 -6t-10 -3.5
t-9 -4t-4 -8.5v-2.5t1 -2.5q2 0 7 -0.5t10 -0.5t10 -0.5t6 -0.5q12 -1 15.5 -6.5t3.5 -15.5q0 -3 -0.5 -6t-1.5 -5.5t-3.5 -4t-5.5 -1.5h-42q-1 0 -1.5 -2l-1 -4t-0.5 -5v-3q0 -3 2.5 -3.5t5.5 -1t5 0t3 0.5t5.5 -0.5l9 -1t8.5 -1t6 -0.5l0.5 -0.5t0.5 -1.5v0v-1
q0 -1 -0.5 -1.5l-0.5 -0.5h-42l-3 -4v-16l-1 -0.5t-2 -0.5h-1v0q-1 0 -2 1.5l-1 1.5v34q0 1 0.5 3t0.5 3v1v0q0 1 -0.5 1.5l-0.5 0.5h-6q-3 0 -8.5 -1t-11.5 -2.5t-11 -3.5t-7 -5q-2 -1 -4 -4.5t-4.5 -7.5t-5 -7t-4.5 -3q0 12 6 20t15 13t19.5 7t20.5 1q1 3 1 7v7v9
q-1 3 -7 3h-13.5t-14.5 2t-11 8q-2 3 -2.5 6t-1 6.5t-0.5 7v6.5q-2 14 -4 29.5t-6 29.5q-2 3 -4 8t-5 9.5t-5 9t-2 8.5q1 0 3 -0.5t3 -0.5l2.5 -4t6 -9.5t6 -10t2.5 -5.5q6 -20 9 -41t5 -42q2 -4 4 -6.5t5.5 -3.5t6.5 -1h7q2 0 5 -0.5t6 0t5.5 2t2.5 4.5v1l-2 1q-2 6 -3 8
t-2.5 3t-4 2t-7.5 4q-2 2 -4.5 5.5t-5 7.5t-3.5 8t-1 7t0.5 6t0.5 6v9t-0.5 12t-1 11t-1.5 6zM133 157q0 -2 2 -3.5t5 -1.5h6h4h4q3 0 3 2q0 1 -2 5.5t-4.5 9t-4.5 8.5t-3 4t-1 -0.5t-1 -0.5q0 -2 -1.5 -5.5t-3 -6.5t-2.5 -6t-1 -5zM143 87v-21l2 -2h2h4h4h3q3 0 8 -0.5
t9.5 0t8 2.5t3.5 7q0 6 -2.5 9.5t-7 5.5t-10 2.5t-10.5 0.5h-3h-4t-4 -0.5l-2 -0.5z" />
</svg>
