<?xml version="1.0" standalone="no"?>
<!DOCTYPE svg PUBLIC "-//W3C//DTD SVG 1.1//EN" "http://www.w3.org/Graphics/SVG/1.1/DTD/svg11.dtd" >
<svg xmlns="http://www.w3.org/2000/svg" xmlns:xlink="http://www.w3.org/1999/xlink" version="1.1" viewBox="-10 0 266 256">
   <path fill="currentColor"
d="M153 232q-2 0 -5.5 -0.5t-7 0t-6 2t-2.5 4.5h10h8h13t14.5 -0.5t14.5 -0.5h12.5h8.5q2 -1 2 -1.5v-1.5q0 -3 -2 -4t-4 -1q-3 0 -6 0.5t-7 0.5h-3t-4.5 -0.5t-4 -1.5t-1.5 -3v-1q0 -1 1 -4t2 -4v-46q0 -2 1.5 -3t3.5 -2t4 -1t2 -1q1 0 2 -4t1.5 -9l1 -10t0.5 -7
q0 -1 -2 -2t-4 -1q-1 0 -2.5 3.5t-2 7.5t-1 8.5t-1.5 5.5q-7 4 -13.5 5t-14.5 1q-2 0 -5.5 -0.5t-4.5 -0.5l-5 -5v-20l-2 -1.5t-4 -2.5v0q-3 0 -3 2v3q0 6 1 12.5t4 11.5q1 2 3.5 3t5 2.5t4 3t1.5 2.5v23v17.5t-1 17.5l-1 1.5zM45 227v3v4l0.5 0.5t1.5 0.5h8q14 0 28.5 -0.5
t28.5 -0.5q1 0 4 -1t4 -1v-2v-1q-1 -1 -1.5 -2.5l-0.5 -1.5h-18v-38q0 -1 2 -2.5t4.5 -3.5t4.5 -6t2 -10q0 -13 -5 -17t-17 -4q-6 0 -12 1t-10.5 3.5t-7.5 7t-3 10.5t2 8.5t4.5 4.5t4.5 4.5t2 8.5v0q-1 1 -1.5 3.5t-0.5 3.5t-0.5 4t-0.5 6.5v6.5v5q-1 0 -1.5 1.5l-0.5 1.5
l-0.5 1.5t-1.5 1.5h-19zM173 168q2 0 3 0.5t1 2.5v52q0 2 -3 4.5t-5 2.5h-2.5t-1.5 -1v-54q0 -4 2.5 -5.5t5.5 -1.5zM78 221q0 -2 0.5 -5.5t0.5 -7.5t0.5 -7.5t0.5 -5.5q0 -4 1.5 -7.5t6.5 -3.5h2t1 2v6v7.5v7t-0.5 7.5t-1.5 9q0 1 -2.5 2t-3.5 1q-2 0 -3 -1.5t-2 -3.5z
M137 215q0 2 0.5 3t3.5 1h2.5t1.5 -1v-39l-3 -3l-3 3l-0.5 3.5t-0.5 9t-0.5 11t-0.5 8.5v4zM196 175v38q0 3 0.5 4t2.5 1q3 0 4.5 -3t1.5 -6v-3v-7.5t-0.5 -9.5t-1.5 -9t-2 -7t-4 -3zM71 168q0 -5 1.5 -8t5 -5t7.5 -2.5t8 -0.5t7.5 1t3.5 6v4.5t-1 5t-2 4.5t-3 2h-21
q-2 0 -4 -2.5t-2 -4.5zM162 137q0 3 0.5 5t1.5 5l0.5 0.5l0.5 0.5q2 0 3.5 -1t1.5 -3l4 -32q0 -1 2.5 -3t6 -4.5t7 -4.5l3.5 -2h1q1 0 1.5 0.5t0.5 1.5v15q0 2 2 2h2q4 0 5.5 -3t1.5 -6q0 -6 -1.5 -12.5t-1.5 -13.5q0 -3 -0.5 -10.5t-0.5 -15.5q0 -9 0.5 -16.5t0.5 -10.5
q-1 -1 -3 -2t-3 -1h-0.5h-0.5q-1 2 -1.5 6.5t-1 9.5t-1.5 9t-3 4h-1l-1.5 -0.5t-1.5 -1.5q-1 -1 -2.5 -3t-3.5 -3.5t-3 -3l-1 -1.5v-21q0 -1 -2 -3t-4 -2q-1 0 -1.5 0.5l-1.5 1.5q-1 3 -1.5 6.5t-0.5 6.5v7v5q-1 4 -6.5 6.5t-8.5 2.5q-1 0 -2.5 -0.5t-1.5 -1.5v-23
l-1.5 -0.5t-2.5 -0.5h-0.5h-1.5h-2t-1 1v7v6v4t0.5 6.5t1 6.5t0.5 4q0 7 -1 14.5t-2.5 14.5t-2.5 14t-1 15q0 2 1 2.5t2 0.5q3 0 4.5 -3.5t3 -8.5t2 -9.5t0.5 -5.5q2 0 4.5 1.5t5.5 3t5.5 3t3.5 3.5v6q0 7 -1 13t-1 12zM45 132q0 3 3 3q4 0 5.5 -3t2 -8l1 -10t1.5 -10t3 -8
t7 -3q4 0 4.5 3t2 6t4.5 6t13 3h4.5h3.5q2 -1 2 -1.5v-1.5v-2.5t-2 -1.5h-15l-1 -2.5t-1 -3.5v-0.5v-1.5v-1.5t2 -1.5h2.5t3.5 -0.5t4 -0.5h3q0 -1 2 -1.5l2 -0.5v-1q0 -3 -3.5 -3.5t-8.5 -0.5q-4 0 -8 -0.5t-4 -4.5q0 -1 1.5 -2t3.5 -1h4h2h10.5t9.5 3q2 11 2.5 21t1.5 21
h0.5h0.5q3 0 4.5 -1.5t2 -3.5t0.5 -4.5v-3.5q0 -10 -1 -18.5t-7 -16.5q-3 -1 -8.5 -1.5t-10.5 -2t-8.5 -3t-3.5 -5.5q0 -2 -0.5 -5.5t0 -7.5t2.5 -6.5t5 -2.5q2 0 3.5 1.5t2 3.5t1.5 4t3 4t6 3.5t11 1.5q2 0 3.5 -0.5t1.5 -2.5t-0.5 -3.5t-2.5 -1.5h-14q-2 0 -2 -2v-1.5
v-2.5q0 -3 2.5 -4.5t6 -1.5t7 0.5t5.5 0.5l1.5 -1.5t0.5 -1.5q0 -3 -2 -4t-4 -1h-4h-3h-2h-4h-4h-4q-3 0 -7 -0.5t-7 0t-5.5 2.5t-3.5 6q-1 5 -2 12.5t-2 12.5q-1 0 -1 0.5v0.5q-2 0 -4 -2t-4 -3q0 -1 -0.5 -4t-1 -6.5t-1 -6.5t-0.5 -4v-5v-6t-1.5 -5t-5.5 -2q-1 0 -2 1.5
t-1.5 3t-0.5 3.5v2v5l0.5 3t0.5 5.5t0.5 5.5l0.5 3v3.5v5t0.5 5t2.5 2.5l16 5q2 1 2 3v3v5q-11 2 -16 5.5t-7 8.5t-2 12.5t-1 18.5v2zM101 127h-3h-2.5t-3 0.5t-3 0.5h-1.5h-6h-8t-7 1.5t-3 5.5h6h9h9.5h5.5t3 -0.5t4 -0.5t3.5 -0.5t2.5 -0.5v-2q0 -2 -2 -3t-4 -1zM145 82
v-2v-1v-3t0.5 -4.5t0.5 -4.5v-3l4 -2t8.5 -4.5t8 -4.5l3.5 -2h1h1q9 5 15.5 13.5t6.5 18.5q0 3 -2.5 6.5t-6 5.5t-8 3.5t-7.5 1.5q-2 0 -6.5 -2t-8.5 -5t-7 -6t-3 -5z" />
</svg>
