<?xml version="1.0" standalone="no"?>
<!DOCTYPE svg PUBLIC "-//W3C//DTD SVG 1.1//EN" "http://www.w3.org/Graphics/SVG/1.1/DTD/svg11.dtd" >
<svg xmlns="http://www.w3.org/2000/svg" xmlns:xlink="http://www.w3.org/1999/xlink" version="1.1" viewBox="-10 0 266 256">
   <path fill="currentColor"
d="M197 250q0 1 1.5 1h2.5q5 0 6.5 -2.5t1.5 -6.5q0 -7 -1 -15t-2.5 -15.5t-2.5 -15.5t-1 -15v-34v-35q1 -5 2.5 -12t2.5 -14.5t2 -14.5t1 -12q0 -9 -4.5 -14t-11 -8t-13.5 -4.5t-13 -3.5q-3 -1 -6 -3t-5.5 -4t-5.5 -3.5t-5 -1.5t-2.5 1t-0.5 3q0 5 4.5 7.5t9.5 4t9.5 3.5
t4.5 6q0 1 -0.5 3.5t-1.5 5.5t-2.5 5.5t-3.5 2.5h-23q-2 0 -2 1v2v1v1q2 0 6 0.5t8.5 1t8.5 1t5 0.5h2q4 0 5.5 -3.5t3 -7.5t3.5 -7.5t6 -3.5q5 0 9.5 4t4.5 10v1q0 3 -1 9t-1.5 13.5t-1.5 15.5t-1.5 15.5t-1.5 13.5t-1 9v3.5v7.5v8v7q0 22 1 44t4 44zM66 185q0 2 0.5 6.5
t1 10.5t1 13t2 12.5t3.5 8.5t5 3q5 0 5 -6v-2t-0.5 -1.5t-1 -1.5t-1.5 -4q-3 -9 -5 -18t-2 -19v-3v-3v-4v-3q1 -3 2.5 -6t5.5 -3q3 0 5 5t4 12.5t3.5 15.5t3.5 15.5t4 12.5t4 5q3 0 4.5 -2t1.5 -4v-3l-0.5 -1.5t-1.5 -3.5t-2 -3.5l-1 -1.5q-2 -6 -4.5 -12.5t-4.5 -13
t-3 -13.5t-1 -13v-3.5v-3.5q4 -1 5.5 -3.5t2 -5.5t0.5 -6t2 -5q0 -1 1 -1.5l2 -1l2 -1l1 -0.5q4 -3 6 -7t2.5 -9t0.5 -10v-9v-5v-5q-1 -3 -3.5 -5t-6 -3t-6.5 -1t-6 -1q-1 -2 -1.5 -4.5t-0.5 -4.5q0 -6 2.5 -8t5.5 -2.5t5.5 -1t2.5 -5.5h-28q-1 0 -3 1.5t-2 2.5t2 1
q0 1 3.5 1.5t4.5 0.5v9q0 5 -2 8.5t-4.5 5.5t-5.5 4t-5.5 5t-4 7t-1.5 11q0 10 1 15t4 7.5t8.5 3.5t13.5 2q1 0 1.5 1.5l0.5 1.5v1q0 5 -2 7.5t-5 5t-6.5 5t-7 6t-5.5 9.5t-2 15zM127 189q0 6 3 11t10 5q8 0 13.5 -4.5t9.5 -11l8 -13t9 -11.5v-4q-5 0 -8.5 2.5t-6 6t-5 8
t-4.5 8.5t-5.5 6.5t-7.5 2.5t-6 -1.5t-2 -6.5v-5.5t3 -3.5q1 -2 3.5 -4.5l5.5 -5.5t5.5 -6t3.5 -4v-1.5v-2.5q0 -4 -0.5 -7.5t-4.5 -5.5h-3.5t-5.5 -0.5t-5.5 -0.5t-3.5 -1l-1 -0.5t-2 -0.5v-3v-2q0 -6 2.5 -10.5t7 -7.5t10 -5t9.5 -2q9 0 14.5 6.5t5.5 14.5q0 4 -1.5 6.5
t-4.5 2.5q-5 0 -7.5 -3t-4.5 -6t-4 -5.5t-5 -2.5q0 4 1.5 8t4 7.5t6 5.5t8.5 2h1l2 -0.5l2 -0.5h1h1q5 -3 7.5 -7t2.5 -10q0 -7 -3.5 -11t-8 -6t-8.5 -3.5t-5 -3.5v-5t-0.5 -4.5t-1.5 -4t-4 -2.5q-1 0 -2.5 -0.5t-3.5 -0.5h-3.5t-2.5 -1q-5 -1 -6.5 -3t-2 -4.5t-1.5 -4.5
t-5 -2v9q0 3 2 7q1 1 2 2.5t2 1.5h14q3 0 3.5 3t0.5 4q0 3 -5.5 6t-12 7t-12 9t-5.5 14q0 7 3 12t10 5q1 0 3 -1l2 -1h4h4q1 1 1.5 2t0.5 2v0q0 6 -3.5 10t-7.5 8t-7 8.5t-3 10.5zM74 114v-3v-3l1 -0.5l1 -0.5h33q2 0 2 2v2q0 2 -0.5 4t-1.5 4t-3 3.5t-4 1.5h-21
q-4 0 -5.5 -3.5t-1.5 -6.5zM74 95q0 -5 3 -7t7 -3.5t8 -1.5h7q6 0 9 1.5t3 8.5v3.5t-2 3.5h-2.5h-3.5h-3.5h-2.5t-5 0.5t-8 0t-7 -1.5t-3 -4zM48 68v1q1 0 1.5 1.5t0.5 2.5h1q3 0 7 -3.5t8 -9t8 -11.5t7.5 -11.5t7 -9t6.5 -3.5q4 0 7 3t5.5 6.5t4.5 8t4 8.5t4.5 7t5.5 3
q2 0 4 -2t2 -5q0 -1 -2.5 -4.5t-6.5 -8.5t-8.5 -10t-8.5 -9t-7.5 -7t-4.5 -3q-2 0 -3.5 0.5t-2.5 1.5t-1.5 2.5t-2.5 4.5t-7.5 10t-12 14.5t-11.5 14t-5 8.5z" />
</svg>
