<?xml version="1.0" standalone="no"?>
<!DOCTYPE svg PUBLIC "-//W3C//DTD SVG 1.1//EN" "http://www.w3.org/Graphics/SVG/1.1/DTD/svg11.dtd" >
<svg xmlns="http://www.w3.org/2000/svg" xmlns:xlink="http://www.w3.org/1999/xlink" version="1.1" viewBox="-10 0 266 256">
   <path fill="currentColor"
d="M131 235l-0.5 2.5t-0.5 5.5t1 5.5t3 2.5t5 -3t3 -6l-0.5 -2t-0.5 -3l-0.5 -1.5t-0.5 -2.5v-4v-3v-13t1 -11.5t3.5 -10.5t7.5 -10v7t0.5 11t1 11t0.5 7q0 7 2 10t9 3q5 0 9.5 -1t10.5 -2q1 -1 2.5 -3.5t2.5 -3.5v-4.5t0.5 -8t0.5 -8v-4.5q1 -4 1.5 -7t4.5 -3h1q1 0 2 1
t1 2v59h8q1 0 1.5 -1t0.5 -2v-3.5v-4.5q0 -21 -1 -41.5t-4 -40.5q0 -1 -0.5 -3t-2 -4t-2.5 -3.5t-3 -1.5h-44q-6 0 -9.5 3t-5.5 8t-3 11t-1.5 12t-0.5 11v8q-1 11 -2 20t-1 20zM160 212q0 -7 3 -8t9 -1h6q1 0 2.5 0.5t1.5 1.5v12q0 1 -1.5 2l-3 2t-3 1h-2.5q-6 0 -9 -2.5
t-3 -7.5zM53 188q0 8 3 13t10 9q8 0 13 -3.5t8.5 -9t5.5 -11.5t5 -12q1 -3 4.5 -6l7 -6t6 -5.5t2.5 -4.5q0 -1 -1 -2t-2 -1q-6 0 -10.5 3.5t-8 9t-6 12t-5.5 12t-6.5 9t-8.5 3.5q-3 0 -5 -2.5t-2 -5.5v-1v-1q4 -7 7 -12t6.5 -10.5t7 -10.5t7.5 -11v-4v-5v-6.5t-1 -4.5
t-3.5 -4t-5.5 -5h-1h-1q-3 0 -6.5 3t-6 7l-5 8t-4.5 6h-2h-1q-2 0 -3.5 -0.5t-2.5 -3.5v-3v-3q0 -8 4 -15t10 -12.5t13 -10t13 -6.5h1q4 0 10.5 1.5t12 4.5t9 8t3.5 12q0 1 -0.5 3.5l-1 5t-2 5t-3.5 2.5q-6 0 -8.5 -4t-3.5 -9t-1.5 -9t-3.5 -4q-2 0 -2 2v3q0 6 0.5 11t3 8.5
t6.5 6t11 2.5q3 0 5 -2l4 -4t2.5 -5.5t0.5 -5.5q0 -10 -3 -16.5t-7 -10.5t-8.5 -6.5t-9 -4l-7.5 -2.5t-3 -3q-1 -4 -1.5 -7.5l-1 -7l-1 -7t-3.5 -7.5l-2 -2.5t-4.5 -5t-5 -4.5t-3.5 -3q-3 -4 -3.5 -7t-1.5 -6t-3 -4.5t-8 -1.5q0 9 2 14.5t5 9.5t6.5 7.5l7 7t5.5 8.5t2 12
q0 4 -3 7.5t-7.5 6.5t-10 7t-10 9t-8 12t-3.5 17q0 2 0.5 5.5t0.5 4.5l0.5 1.5t1.5 2.5t1.5 2t1.5 1h16q2 0 3.5 -3.5t3 -8t3.5 -8t5 -3.5q4 0 5 4t1 7q0 7 -4.5 14.5t-10.5 14.5t-11 13.5t-5 11.5zM158 182q0 -2 1.5 -4.5l3 -5t3.5 -3.5t4 -1q3 0 5.5 1t5 3.5t3.5 5t1 5.5
v2v4.5t-0.5 4.5t-1.5 2h-19q-3 0 -4 -1.5t-1.5 -4t-0.5 -5v-3.5zM142 170q0 -4 1.5 -8t4 -7.5t5.5 -5.5t8 -2h2h2q2 2 2 3.5v3.5v4l-20 20h-0.5h-0.5q-2 0 -3 -3t-1 -5zM175 153q0 -1 1 -3t2 -3h4h3q5 0 8 2t4.5 6t2 8.5t0.5 9.5q-4 0 -8.5 -1t-8 -3.5t-6 -6.5t-2.5 -9z
M135 45v6v7.5t0.5 7t1.5 7.5q2 5 6.5 7.5t9 3.5t8 1t3.5 1v17l-4 4q-1 0 -3 2.5t-5 5t-5.5 4.5t-2.5 3q-2 1 -4 3t-3.5 4t-3 3.5l-1.5 1.5v4q3 0 5.5 -2.5t4.5 -3.5l3.5 -3.5l5.5 -5.5l5.5 -5.5t3.5 -4.5h1h1l1.5 1.5l0.5 0.5v15q0 2 2 2h3q3 0 4 -2t0.5 -5t-0.5 -6.5
t1.5 -7t5 -5t10.5 -1.5l0.5 -1.5t0.5 -2.5v0v-1q0 -1 -0.5 -1.5l-0.5 -0.5h-13q-3 0 -3.5 -2t-0.5 -4t0.5 -3l1.5 -3h4h4q9 0 13.5 4.5t6.5 11.5t2 15v15h2q4 0 5 -3t1 -6q0 -7 -1 -14t-3 -13q-2 -10 -7.5 -13.5t-11 -4.5t-10 -1.5t-4.5 -3.5q0 -4 2 -5.5t5.5 -2.5l7 -2
t7 -3t5.5 -5t2 -9q0 -1 -0.5 -3.5t-1.5 -5t-3 -4t-4 -1.5l-38 -3q-3 -1 -6 -3.5t-5 -5l-4 -5t-4 -2.5t-3.5 1t-1.5 4q0 4 2.5 8t6 6.5t8 4.5t7.5 2q5 0 8.5 -1t7.5 -1h7t7 1.5t5 4t2 6.5q0 3 -3 5.5t-5 2.5q-9 3 -12 5.5t-4.5 5t-2 5t-3.5 3.5h-2.5h-3.5q-6 0 -10 -2
t-5.5 -6t-1.5 -9.5v-11.5q0 -1 -1 -1.5t-2.5 -0.5h-2.5h-1z" />
</svg>
