<?xml version="1.0" standalone="no"?>
<!DOCTYPE svg PUBLIC "-//W3C//DTD SVG 1.1//EN" "http://www.w3.org/Graphics/SVG/1.1/DTD/svg11.dtd" >
<svg xmlns="http://www.w3.org/2000/svg" xmlns:xlink="http://www.w3.org/1999/xlink" version="1.1" viewBox="-10 0 266 256">
   <path fill="currentColor"
d="M66 245q0 3 1 3.5t3 0.5q4 0 6.5 -6.5t4.5 -16t3.5 -20.5t2.5 -21.5t1 -18t1 -10.5v-3.5t0.5 -5.5t0.5 -5.5v-3.5v-26v-26q-1 -3 -1 -6.5v-6.5v-6t-2 -6q-1 -4 -5.5 -6.5l-9 -5t-8 -5t-3.5 -5.5q0 -5 4.5 -7.5t9.5 -4.5t9 -3.5t3 -4.5q-1 -4 -3.5 -4h-4.5h-3h-2
q0 1 -2.5 2t-4.5 2.5t-4.5 2.5t-4.5 2q-3 2 -4 6t-1 8q0 7 2.5 10.5t6.5 6t8 4.5t8 7q3 4 4.5 10t2 12.5t0 13t-0.5 12.5v7l-2 4h-1h-2h-4t-5.5 -0.5t-4.5 -1t-2 -2.5v-24q0 -1 2 -2t4.5 -1.5t4.5 -2t2 -3.5q0 -4 -3 -4q-2 0 -3.5 1t-3.5 1h-2.5t-2.5 -2q1 -1 1 -4.5
t-0.5 -6.5t-1.5 -5t-4 -2q-4 0 -4 3v5q0 12 1.5 24.5t1.5 24.5q0 21 -2 42.5t-4 40.5q-2 3 -3 5t-1 4t1.5 3.5t2.5 1.5q2 0 3.5 -1t2.5 -2q0 -2 1 -6.5t1.5 -9t1.5 -9t1 -5.5v-3t0.5 -5t0.5 -5v-3q1 0 1.5 -1t0.5 -2h1h1l1 0.5l2 1l2 1l1 0.5h1q2 0 2 -1v-3t-1 -4t-3 -3.5
l-4 -3t-3 -1.5l-1.5 -1.5l-0.5 -0.5l2 -20h19q0 13 -0.5 27t-2 27.5t-4.5 26.5t-7 26l-1 1.5t-1 2.5v0.5v0.5zM197 134q2 2 3 4.5t1.5 5t0.5 5v4.5v92q0 2 1.5 3t3.5 1q1 0 2 -0.5t1 -3.5v-5v-7v-7v-5v-6v-8v-7v-3q0 -3 -0.5 -11t-0.5 -16.5t-0.5 -16t-0.5 -10.5
q-1 -5 -2 -9.5t-1 -9.5t2.5 -9t2.5 -10q0 -7 -4.5 -11t-11 -6t-13 -3t-11.5 -1h-3t-2 2t3 3t7 2.5t9 2.5t9 2.5t6.5 3.5t2.5 6q-1 4 -2 5.5t-4 1.5h-1h-1q-1 -1 -4 -2t-6 -2.5t-5.5 -2.5t-3.5 -2q-1 0 -3 -1.5l-2 -1.5h-1q-2 0 -3 0.5t-1 2.5q0 5 4 6.5t8.5 3t8.5 3.5t4 9
q-1 0 -5 0.5t-6 -0.5q-2 0 -4.5 -2.5t-5.5 -2.5q-1 0 -2.5 0.5t-1.5 3.5q3 4 6.5 6t7.5 2.5t8.5 0.5h9.5zM104 239q0 3 1 5.5t4 2.5h2t1 -2l7 -99l0.5 -3.5t1.5 -4.5l0.5 -1l0.5 -1h3t4.5 -0.5t4.5 -0.5t2 -1h5t6 -1t5 -2.5t2 -4.5q0 -1 -0.5 -2t-1.5 -1q-4 0 -10 2.5
t-11 2.5h-4q-1 -1 -1.5 -2l-0.5 -1q0 -3 4.5 -5.5t9.5 -5t9.5 -5.5t4.5 -6q0 -4 -4 -4q-3 0 -6 2.5t-6 5.5t-6 5.5t-7 2.5t-4 -5q0 -4 3 -7.5t7 -5.5t8.5 -4t7.5 -2q1 -1 1.5 -2t-0.5 -1q0 -2 -1.5 -3t-2.5 -1h-2q-3 2 -8 4t-9.5 5t-8 7t-3.5 9q0 4 1 7.5t1 6.5v3
q0 4 -0.5 9t-1 10.5t-1 9l-0.5 3.5l-1 4q0 9 -0.5 19t-2 19.5t-2.5 19t-1 19.5zM138 220q0 8 4 13.5t12 5.5q4 0 6.5 -1.5t4 -3.5t3 -5t3.5 -5l3.5 -3.5t5 -5.5t5 -5.5t2.5 -3.5l-1.5 -1.5t-2.5 -1.5q-5 1 -8.5 5.5l-7 9t-7 8.5t-6.5 4q-2 0 -6 -2.5t-4 -4.5q0 -5 3 -8.5
t6.5 -7.5t7 -7.5t3.5 -7.5q0 -5 -4.5 -8t-7.5 -3q-4 0 -6.5 1t-6.5 1t-6 -1t-2 -6t4.5 -7.5t9 -4t8.5 -4.5t4 -10v-4t-3 -2q-1 0 -2 1.5t-2.5 3.5t-2 4t-1.5 3q-2 4 -6 5.5t-7 3t-5.5 4.5t-2.5 9q0 7 5.5 10.5t11.5 3.5h1q0 -1 3 -1.5l3 -0.5h1q1 0 3.5 1t2.5 3v1
q-4 3 -9 8.5t-7 11.5q-1 1 -1.5 3zM167 185q1 3 5.5 3.5t6.5 0.5q6 0 9.5 -2.5t3.5 -8.5q0 -13 -6 -18.5t-18 -5.5h-4q-2 0 -2 3q0 2 3.5 2.5t7.5 2.5t7.5 5.5t3.5 9.5q0 4 -2.5 4.5t-5.5 0.5h-6t-3 3zM160 10q-1 0 -3.5 0.5t-2.5 1.5v39q0 3 -3.5 5t-8.5 4.5t-11 4.5
t-11 4.5t-8 5t-3 6.5h7q4 -3 9 -6t10.5 -6t11 -5t10.5 -2q7 0 13.5 2.5t13 6t13.5 6t13 2.5q0 -6 -6 -9.5t-14 -6.5t-15.5 -5.5t-10.5 -6.5q0 -1 -0.5 -4.5t-0.5 -5.5q0 -6 1 -12.5t1 -13.5q0 -2 -1.5 -3.5t-3.5 -1.5zM110 51q0 3 4 3h0.5h1.5q5 -3 9.5 -5t7.5 -4t5 -6
t2 -10v-9q-2 -1 -3 -1h-2q-3 0 -3.5 1.5t-1 3.5t-0.5 5v3q-1 3 -4.5 5.5l-7 5t-6.5 4.5t-2 4zM175 26q0 11 5.5 17t15.5 6h3h3l1 -1.5t0 -2.5q0 -2 -3 -3.5t-7 -2.5t-6.5 -1.5t-2.5 -2.5v-15l-2 -0.5t-3 -0.5q-2 0 -3 2.5t-1 4.5z" />
</svg>
