<?xml version="1.0" standalone="no"?>
<!DOCTYPE svg PUBLIC "-//W3C//DTD SVG 1.1//EN" "http://www.w3.org/Graphics/SVG/1.1/DTD/svg11.dtd" >
<svg xmlns="http://www.w3.org/2000/svg" xmlns:xlink="http://www.w3.org/1999/xlink" version="1.1" viewBox="-10 0 266 256">
   <path fill="currentColor"
d="M53 239q0 2 1 4t2.5 3.5l3 3t3.5 1.5h22q1 -2 3 -3.5t4.5 -3.5l5 -4t4.5 -4h20q1 0 1.5 -1t0.5 -2q0 -2 -2 -4t-5 -3l-6 -2t-5 -1q-3 1 -5.5 2.5t-5.5 4t-5 5.5t-4 4q-3 2 -5 2h-6h-2h-2.5t-2.5 -0.5t-1 -1.5t0.5 -1h0.5q1 -3 4.5 -5.5t7 -5.5l7 -6t6.5 -5q0 -1 1 -3.5
t1 -3.5q2 -3 6 -4t7.5 -2.5t6.5 -3t4 -4.5q0 -1 0.5 -4.5t1.5 -5.5v-1q0 -4 -2 -7t-5 -5t-7 -2.5t-7 -0.5h-3t-4.5 0.5t-4.5 0.5t-2 1v4q1 0 3 0.5t5 1t5 0.5h3l6 2t3 5q0 3 -1.5 6t-4 4.5t-5.5 2.5t-6 1t-6 -1.5t-6 -1.5q-6 0 -10.5 1.5t-10.5 1.5q-3 0 -4 -1t-1 -4
q0 -6 3.5 -8t8 -4.5t8 -6t3.5 -11.5q0 -7 -4.5 -9.5t-11.5 -3.5q-4 0 -4.5 1t-0.5 4t2 4t4.5 1t4.5 1t2 4q0 1 -0.5 2l-0.5 1q-2 4 -4.5 5.5t-5 2.5t-4.5 1.5t-4 2t-3 4.5t-1 10q0 1 0.5 4.5t0.5 4.5q1 6 7 6q3 0 5.5 -0.5t4.5 -1.5t4.5 -2t5.5 -2q1 0 4 0.5t4 0.5
q0 8 -4.5 12t-10 7.5t-10.5 7t-6 8.5zM139 239q0 4 3 7t6 3q5 0 10.5 -0.5t11 -3t9 -6.5t3.5 -10q-3 0 -4.5 1t-3.5 2.5l-4 3t-4 2.5q-5 2 -8.5 1.5t-7.5 -0.5q0 -5 1.5 -7.5t4.5 -3.5t6.5 -2.5t6.5 -3.5q6 -4 7.5 -9.5t3.5 -11.5q6 0 11 -0.5t8.5 -2t5.5 -4.5t2 -10
q0 -9 -4.5 -14.5t-14.5 -5.5q-4 0 -7.5 1t-3.5 5t3.5 4.5t7.5 1t7.5 1.5t3.5 5q0 3 -1.5 7t-5.5 4q-3 0 -5 -1.5t-5 -1.5t-3.5 2.5t-2.5 3.5q-5 0 -9 0.5l-8 1t-8 1.5t-8 1q-3 0 -4 -2t-1 -5q0 -5 2 -7.5t5.5 -4.5t7.5 -3.5t7 -4t5.5 -6t2.5 -9.5v-6q-1 -1 -2 -1.5t-2 -0.5
v0v0q-2 0 -3 2.5t-2 6t-3 7t-5 5.5q-5 2 -9.5 4t-7.5 5t-5 7t-2 9q0 3 1.5 5.5t4 3.5t5.5 2t5 1q7 0 13 -2.5t13 -2.5q0 8 -5 11.5t-10.5 6.5t-10 6.5t-4.5 11.5zM81 110q-1 0 -2.5 0.5t-1.5 3.5v28q0 6 5.5 9.5t12.5 5.5t14 2.5t10 0.5q11 0 17.5 -2.5t10.5 -7t5.5 -12.5
t1.5 -18q0 -3 -0.5 -5t-4.5 -3h-10.5h-15.5h-15.5h-10.5l-2 -0.5t-4.5 -0.5t-5 -0.5l-2.5 -0.5h-2zM176 153l3 4q2 -2 3 -4t1 -4v-5t0.5 -6.5t0.5 -6.5v-4q0 -11 -2 -22t-2 -22v-2.5t2 -1.5h18q2 0 3 -2t1 -3q0 -3 -1.5 -3.5t-3.5 -0.5q-4 0 -8.5 1t-8.5 1q-3 0 -4 -1
t-2 -2.5t-1.5 -3.5t-2.5 -3q-2 -2 -5.5 -3.5l-7 -3t-6.5 -3.5t-3 -5t1 -3.5t4 -0.5h28q4 0 6 -3t3 -6.5t1 -7.5v-6t-1.5 -3t-3.5 -1.5t-3.5 0t-2.5 0.5t-5 -0.5t-8 -0.5t-7.5 -0.5t-4.5 -0.5h-1h-1q-3 0 -12.5 0.5t-19.5 1t-19.5 1t-12.5 1.5q-4 0 -7.5 1t-6.5 5
q-2 11 -2 22v22v6v8v7t1 5q0 1 0.5 2.5t1.5 2.5h6t8 0.5t7.5 0.5h5.5h1h2h9t13 -0.5t13.5 -0.5h8.5l0.5 -1.5l0.5 -1.5l0.5 -0.5l0.5 -0.5l-0.5 -0.5l-0.5 -0.5l-0.5 -0.5l-0.5 -0.5h-57q-4 0 -8 -1.5t-4 -7.5v-3t3 -1q1 0 4 -0.5t6 -0.5t5.5 -0.5t3.5 -0.5h3.5h7.5h9h8h7h8
h8h4t3 0.5t4 0.5t3.5 0.5l1.5 0.5l2 1q-1 18 0.5 36t1.5 36zM86 142q0 -1 1.5 -2l1.5 -1h4h6h6h5h16t17 1v2v1q0 4 -3 6t-7 2.5t-8 0.5h-6h-8q-5 0 -11 -1t-10.5 -3t-3.5 -6zM86 131l-0.5 -0.5t-0.5 -1.5q-1 -1 -1 -4.5v-4.5h60q1 0 2 2.5l1 2.5v0v0v0.5v0.5q0 1 -0.5 2.5
t-0.5 2.5q-6 2 -12 2h-13h-9t-8 -0.5t-8 -0.5t-10 -1zM81 68l0.5 -1.5t1 -3.5t1.5 -3.5t2 -2.5l17 -3q3 -3 6 -5.5t6 -3.5t6.5 -1.5t8.5 -0.5h8q3 2 4.5 5t3.5 6q1 3 5 4t7.5 2.5t6.5 3t3 4.5v0l-1.5 1.5l-0.5 0.5q-6 1 -11 1t-9.5 0.5t-8.5 0.5h-11h-12l-1.5 -0.5t-3 -0.5
t-3 -0.5l-1.5 -0.5q-1 0 -3.5 0.5t-5.5 0.5t-5 0.5t-3 0.5t-3.5 -1t-3.5 -3zM83 45q0 -11 5 -16t13 -6.5t16.5 -1t16.5 0.5q4 0 5 3t1 6q0 1 -0.5 3t-1.5 2h-33q-1 0 -2 2l-2 4t-3.5 4t-7.5 2h-5q-2 -1 -2 -1.5v-1.5zM147 34q0 -3 0.5 -6t3.5 -6h6h6q2 0 4.5 0.5t5.5 0.5
t7 1v4q0 4 -1.5 5t-6.5 2q-1 0 -4 0.5t-6.5 0.5h-6.5h-4t-2 -0.5t-2 -0.5v-1z" />
</svg>
