<?xml version="1.0" standalone="no"?>
<!DOCTYPE svg PUBLIC "-//W3C//DTD SVG 1.1//EN" "http://www.w3.org/Graphics/SVG/1.1/DTD/svg11.dtd" >
<svg xmlns="http://www.w3.org/2000/svg" xmlns:xlink="http://www.w3.org/1999/xlink" version="1.1" viewBox="-10 0 266 256">
   <path fill="currentColor"
d="M143 175q2 0 5 6t6 14.5t7.5 18t10.5 18t13.5 14t17.5 5.5q0 -6 -4 -10t-9.5 -7.5t-11.5 -7.5t-8 -12q0 -1 1 -4.5t2.5 -7t2.5 -7t1 -4.5q1 -2 1.5 -4.5t1.5 -5t2.5 -5t3.5 -2.5q3 -1 5 2t3 8t1.5 11t1 11t2 8.5t4.5 3.5q2 0 4.5 -1t2.5 -4l-0.5 -0.5l-0.5 -0.5
l-0.5 -1.5t-1.5 -3t-1.5 -2.5t-0.5 -2q-1 -3 -2 -9t-2.5 -12t-4.5 -10t-9 -4q-7 0 -10 5.5t-4.5 12t-3 12t-6.5 5.5q-1 0 -2.5 -4t-2 -10t-2 -11t-3.5 -7q-1 -1 -3.5 -2.5t-3.5 -2.5q-6 2 -10.5 7.5t-7.5 13t-4 15t-2 12.5q0 1 1 2.5t3 1.5t3.5 -3t2.5 -7.5t1.5 -10.5
t2 -10.5t3 -8t4.5 -3.5zM60 165q0 6 5 8.5t10 2.5q6 0 9.5 -2.5t5.5 -6t4.5 -7.5t5.5 -8q2 -1 4.5 -3.5t3.5 -5.5h-1.5h-1.5q-6 0 -9 4t-6 8.5t-6 8.5t-8 4q-7 0 -7 -6q0 -7 3.5 -11.5t7.5 -9t7.5 -9t3.5 -10.5q0 -7 -3.5 -13t-11.5 -6q-4 0 -6 2.5t-4.5 5.5t-4.5 5.5
t-5 2.5t-5 -3v-6q0 -7 3.5 -13t9 -10t12 -7.5t12.5 -5.5h1h2q13 0 20.5 7.5t7.5 19.5q0 2 -0.5 4.5t-1.5 4.5t-2.5 4t-3.5 2q-3 0 -5 -3t-3 -7.5t-1 -8.5v-6l-2 -2l-1 2l-0.5 2.5t-0.5 3.5q0 3 0.5 7.5t2 8.5t4 7t6.5 3q5 0 8 -3t4.5 -7.5t2 -9t0.5 -7.5q0 -1 -0.5 -3
t-1 -3.5t-1.5 -2.5t-1 -2q-2 -6 -5 -8.5t-6.5 -3.5t-7.5 -2.5t-9 -4.5q-2 -1 -3.5 -3.5t-3 -6t-3.5 -7t-5 -6.5q-3 -2 -6.5 -4t-3.5 -6v-22l-0.5 -0.5l-0.5 -0.5h-1q-2 0 -3.5 1.5t-1.5 4.5v6v3v8.5t3 6.5l17 17q2 2 2.5 5t0.5 5t-3 4t-7.5 3.5t-9.5 4t-10 6.5t-7.5 10
t-2.5 15v5.5t1 5t3 4.5t5 2q5 0 8 -3t5.5 -6.5t4.5 -6.5t5 -3t4 1.5t1.5 4t0.5 4.5v4q0 6 -3.5 11t-8 10t-8 10t-3.5 12zM137 143q0 3 2.5 6t6 4.5t7 2.5t6.5 1h11t12 -1t10 -4.5t4 -9.5q0 -7 -3.5 -10.5t-8.5 -4.5t-11 -1h-11h-3q-1 0 -3 0.5t-4 0.5t-4 0.5t-3 0.5
q-3 3 -5.5 6.5t-2.5 8.5zM145 142v-2.5t1 -3.5t2.5 -3t2.5 -1h34q2 0 2 2v3q0 9 -5.5 11.5t-13.5 2.5h-6q-4 0 -7.5 -0.5t-6.5 -2.5t-3 -6zM179 108q6 5 13.5 9t14.5 9v0.5v0.5q2 0 4 -1.5t2 -2.5q0 -4 -3 -6.5t-8 -4.5t-10.5 -4t-10 -4t-7.5 -3.5t-3 -4.5q0 -4 6 -6.5
t13.5 -5t13.5 -6t6 -9.5q0 -2 -1 -2.5t-2 -0.5h-2q-7 7 -14.5 12t-17.5 5v0q-1 0 -1.5 -0.5l-0.5 -0.5v-17q0 -2 5.5 -2.5t12 -1t11.5 -2.5t5 -8v-15q0 -1 -1.5 -2t-3.5 -2t-4 -1.5t-3 -0.5h-24q-5 0 -13.5 -0.5t-17 1t-14 5.5t-5.5 13q0 2 1 4t3 4t4 3t4 1h26q1 0 2 1l2 2
l1.5 1.5l0.5 0.5q0 1 0.5 3t0.5 3q0 4 -0.5 7t-1.5 8q-1 -1 -3.5 -1.5l-5 -1t-5 -1.5t-3.5 -1q-3 -1 -6 -3.5l-6 -5t-6 -4.5t-7 -2v4q1 0 2.5 1t3.5 2.5t4 2.5l1 0.5t1.5 1l1.5 1.5t2.5 2t2.5 2l1 1q1 1 4 2t6.5 2l7 2t4.5 2v2v1q0 6 -5.5 10t-12.5 6.5t-12.5 5t-5.5 4.5v1
l1.5 1.5l0.5 0.5h1q4 0 8.5 -2.5t9.5 -6t11 -6t13 -2.5h4h4zM131 56q-2 -2 -3.5 -4.5t-1.5 -5.5t2 -5t4 -3t5 -1.5t6 -0.5q2 0 3.5 2t3 4.5t1.5 5.5v5q0 3 -0.5 3.5t-3.5 0.5q-4 0 -7.5 -0.5t-8.5 -0.5zM154 38v-2l11 -2h2q2 0 3.5 2t2.5 5t1 6v4v3v2l-1 1h-13l-1 -2.5
t-2 -6t-2 -6.5t-1 -4zM177 37q0 -2 1.5 -2.5t3.5 -0.5q3 0 5.5 0.5t5 1.5t3.5 3t1 5q0 6 -2.5 8t-8.5 2q-2 0 -3.5 -2t-2.5 -4.5t-2 -5.5t-1 -5z" />
</svg>
