<?xml version="1.0" standalone="no"?>
<!DOCTYPE svg PUBLIC "-//W3C//DTD SVG 1.1//EN" "http://www.w3.org/Graphics/SVG/1.1/DTD/svg11.dtd" >
<svg xmlns="http://www.w3.org/2000/svg" xmlns:xlink="http://www.w3.org/1999/xlink" version="1.1" viewBox="-10 0 266 256">
   <path fill="currentColor"
d="M71 240q0 5 4.5 7.5t8.5 2.5q5 0 7 -1.5t3.5 -3.5t2.5 -4.5t3 -5.5q1 0 2.5 -2t3.5 -4l3.5 -3.5t2.5 -1.5v-4q-6 0 -9 3t-6 7.5t-6 7.5t-8 3q-2 0 -3 -1.5t-1 -3.5q0 -4 2.5 -6.5t6 -5t6 -5.5t2.5 -7q0 -1 -1.5 -4.5t-3.5 -3.5h-20l-0.5 -0.5t-1.5 -0.5q0 -1 -1.5 -3.5
t-0.5 -2.5q0 -3 3.5 -4.5t7.5 -2.5t8 -1.5t6 -0.5h7.5t8.5 1t7 3t3 6q0 7 -6 7q-2 0 -3.5 -1l-3 -2t-2.5 -2.5t-3 -1.5q-1 0 -1 2v2q0 4 1.5 6.5t4 4t5.5 2t6 0.5q4 0 6.5 -3.5t2.5 -7.5q0 -9 -3 -12.5t-7.5 -5t-9 -2.5t-6.5 -5v-2.5t-0.5 -4.5t-0.5 -4.5t-1 -2.5
q0 -1 -0.5 -2l-0.5 -1l-2.5 1t-2.5 2v13q0 2 -5 3t-11 2.5t-11 5.5t-5 12q0 7 4 9.5t10 2.5q4 0 6 -1.5t5 -1.5q2 0 2.5 1t0.5 3v1v1l-5 5t-5.5 6t-4 6.5t-1.5 6.5zM144 239q0 3 1.5 5t3.5 3t4.5 2t4.5 1q3 0 4.5 -0.5t3.5 -2.5l22 -22v-5q-3 0 -7 2t-7 4.5t-5.5 6t-4.5 5.5
q-1 0 -3.5 0.5t-2.5 1.5h-1h-1l-3 -2v-3q0 -5 2.5 -7.5l5 -5t5 -5.5t2.5 -7v-6q-2 -2 -4.5 -2.5t-5.5 -0.5q-5 0 -7.5 1t-7.5 4q-2 -1 -3.5 -2t-1.5 -3q0 -5 3.5 -8t8.5 -4.5t10 -2t8 -0.5q6 0 9.5 0.5t5.5 1.5t2.5 4t0.5 8l-3 1l-3 1q-1 -1 -3.5 -3l-2.5 -2h-1h-1
q0 8 3 11.5t12 3.5q6 0 8 -4t2 -9q0 -7 -2.5 -11t-7 -6t-10.5 -2.5t-12 -1.5q-2 0 -2.5 -2t-0.5 -4t-0.5 -4.5t-2.5 -2.5l-2 1v15l-4 1t-8.5 3t-8 6t-3.5 10q0 5 2 8.5t8 3.5q3 0 4.5 -1t3.5 -2t3.5 -2t4.5 -1q0 1 1 3t1 3q-2 4 -4.5 6.5t-5 4.5t-5 5.5t-2.5 9.5zM93 138
q-7 0 -11.5 2.5t-6.5 6.5t-2.5 9.5t-0.5 11.5q6 0 7.5 -3t1.5 -6.5t0.5 -7t5.5 -4.5q4 -1 7 -2t7 -1t5.5 1.5t2 4t1.5 5t3 5t6.5 4t12.5 1.5q6 0 9 -2t4 -4.5t1 -5.5t1.5 -5.5t5 -4.5t11.5 -2q4 0 6 4t3 8.5t2 8t4 3.5t4 -2.5t1 -4.5q0 -4 -1 -8.5t-3.5 -8t-6 -5.5t-7.5 -2
q-7 0 -14 2t-11 8q-2 4 -2.5 6.5t-1.5 3.5t-3 1.5t-7 0.5h-8q-3 -1 -3 -2.5t0.5 -3.5t0.5 -4t-2 -4t-7 -3t-15 -1zM99 56v0.5v0.5q-1 1 -3.5 2.5t-2.5 2.5l-1.5 1.5t-2.5 3t-2.5 3.5t-2.5 2q-4 5 -7.5 13t-6 17t-4 18t-1.5 15h4q1 0 2 -1.5t2.5 -3t3 -2.5t3.5 -1
q23 -3 48 -5t49 -1q2 0 2.5 -1t0.5 -2q0 -3 -2.5 -4t-4.5 -1q-9 0 -17.5 1t-16.5 1h-11q-2 -1 -2.5 -3.5t-0.5 -4.5v-1t2 -1l44 -4q1 0 1.5 -1t0.5 -2q0 -2 -2 -3t-4 -1q-11 0 -20.5 0.5t-20.5 0.5q0 -5 1.5 -7.5t4.5 -3t7 -0.5h8h4t6.5 -0.5t6.5 -0.5h4q0 -1 1 -2l2 -2v0
v-1l-0.5 -1t-1.5 -2h-5q-7 0 -14 1t-14 1h-2q-1 0 -2.5 -0.5t-3 -0.5t-1.5 -1v-10q0 -1 1 -1.5t2 -0.5h7q5 0 9.5 1t8.5 1h5t5.5 -0.5t5 -2t2.5 -3.5t-1 -2.5t-3 -0.5h-6.5h-9.5h-9.5h-6.5h-2t-3 -0.5t-3.5 -1t-1.5 -1.5v-1q0 -3 4.5 -5t10.5 -4t11 -4.5t5 -6.5
q0 -1 -4 -4.5t-9.5 -7t-10.5 -6t-7 -2.5q-3 0 -10 2t-14.5 5.5t-13 7.5t-5.5 8q0 3 2.5 6t5 5l5 4t2.5 6zM78 113q0 -3 1.5 -4t4.5 -2h4.5t8 -0.5t8.5 -1t6 -0.5q0 -1 2 -1h3v11l-0.5 0.5l-1 1t-2 1l-1.5 0.5h-31q-2 0 -2 -2v-3zM82 95q0 -5 5 -8q6 -1 13 -2t13 -1
q1 0 3 0.5t2 2.5v12h-34q-1 0 -1.5 -1.5t-0.5 -2.5zM93 74q0 -2 1.5 -4.5t3.5 -4.5t4.5 -3.5t5.5 -1.5q2 0 4 0.5t4 1.5q1 1 2 4t1 5l0.5 0.5l0.5 0.5q0 1 -0.5 1.5l-0.5 0.5q0 1 -2 2.5l-2 1.5h-21l-0.5 -1t-0.5 -2v-1zM96 37v-2l7 -7t9 -3h1h2q1 5 1 7.5v6.5q0 5 -1.5 8
t-6.5 3q-2 0 -4 -1.5t-4 -3.5t-3 -4.5t-1 -3.5zM121 22l3 -3l1.5 1t4 2t5 2.5t3.5 2.5q3 1 4 2t1 3t-1.5 3.5t-3.5 2.5t-4 1.5t-3 0.5q-2 0 -3.5 -2.5t-3 -5.5t-2 -6t-1.5 -4z" />
</svg>
