<?xml version="1.0" standalone="no"?>
<!DOCTYPE svg PUBLIC "-//W3C//DTD SVG 1.1//EN" "http://www.w3.org/Graphics/SVG/1.1/DTD/svg11.dtd" >
<svg xmlns="http://www.w3.org/2000/svg" xmlns:xlink="http://www.w3.org/1999/xlink" version="1.1" viewBox="-10 0 266 256">
   <path fill="currentColor"
d="M145 240q0 4 2.5 7.5t6.5 3.5q5 0 8 -2t6 -5q2 -3 6 -6t7.5 -6.5t6.5 -6t3 -4.5q-7 0 -12 3t-8.5 7t-7 7t-7.5 3q-2 0 -3 -1t-1 -3q0 -3 3 -6.5l6 -7t6 -7.5t3 -9q0 -4 -2.5 -6t-6.5 -2q-3 0 -5 1t-4 2.5t-4 2.5t-4 1t-2.5 -1t-0.5 -2.5v-3v-2.5q0 -2 3 -4.5t7 -5
t8.5 -3.5t6.5 -1t6.5 1t9 3t8 4.5t3.5 5.5q0 2 -1 4t-3 2q-3 0 -7.5 -2.5t-6.5 -4.5q-1 0 -1 1.5v2.5q0 5 4.5 8t8.5 3q7 0 10 -3.5t3 -10.5q0 -6 -2.5 -9t-6 -4.5t-8 -2.5t-8.5 -2q-5 -2 -7.5 -4.5t-3.5 -5.5l-1.5 -4.5t-2.5 -1.5h-1h-1q0 7 -2 11t-4.5 6t-5.5 3t-5.5 2.5
t-4 5t-1.5 10.5q0 5 1.5 9.5t7.5 4.5q2 0 4 -1t3.5 -2.5l3 -3t3.5 -1.5t2.5 1.5t0.5 2.5q0 7 -5 12l-9 9l-1.5 4.5t-0.5 3.5zM78 232q0 5 4 7t9 2q4 0 6.5 -2t4 -5t3 -6.5t3.5 -5.5l1.5 -1l3 -2t2.5 -2l1 -1q1 0 2 -1t1 -2v0q0 -2 -1 -2.5t-2 -0.5q-6 0 -9 3.5t-5.5 7.5
t-5.5 7.5t-8 3.5q-1 0 -2 -2t-1 -3q0 -3 1 -6t3 -6t4 -5t5 -4v-1.5v-1.5q0 -6 -4 -7.5t-9 -1.5q-4 0 -7.5 2t-7.5 2q-2 0 -3 -2.5t-1 -3.5q6 -7 13.5 -11t16.5 -4q3 0 7 1t7 2.5t5.5 4t2.5 6.5v0.5v0.5l-0.5 1t-1.5 2h-1.5h-1.5q-3 0 -5 -1.5t-3.5 -3l-3 -3t-3.5 -1.5h-2
q1 2 2 5t3.5 6t5 4.5t4.5 1.5q7 0 11 -3.5t4 -9.5q0 -7 -4.5 -10.5t-10 -5.5t-10.5 -4t-5 -6v-1q1 0 1.5 -2t0.5 -3h5h9t13 0.5t13 0.5h9q11 0 19 -5.5t8 -17.5q0 -4 -0.5 -7.5t-4.5 -5.5l-5 6h-43q-2 0 -3.5 -2t-1.5 -4q0 -1 1 -4.5t1 -4.5q6 0 6 -6q0 -3 -3.5 -6t-7 -5.5
l-7 -5t-3.5 -4.5v-2q9 -2 14 -6.5t5 -14.5q0 -9 -5 -11t-14 -2q-1 0 -1 -3v-2v-2v-2l9 -3t4.5 -3t2 -5.5t0.5 -10.5q-4 0 -5 2t-1.5 4.5t-1.5 4.5t-4 3l-1.5 -0.5t-1.5 -1.5v-18q0 -1 -1 -2l-1 -1h-1q-3 0 -3.5 3.5t-1 8t-1 8.5t-4.5 4q-3 0 -4 -2t-1.5 -5t-1 -5t-3.5 -2
h-0.5h-0.5q0 1 -0.5 4t-0.5 4v1q0 3 1.5 5t4 3.5t5 2.5t4.5 1q1 1 1.5 2.5t0.5 2.5l-0.5 1t-1.5 2h-1.5h-3.5t-3.5 0.5t-2.5 0.5l-2 1t-4.5 2.5t-2.5 2.5v18q0 3 2.5 4.5t5 2.5t5.5 1.5t5 0.5v2q0 4 -5 7t-11 5.5t-11 5.5t-5 8q0 2 1.5 2h2.5q5 0 8 -3.5t7 -6.5l1.5 -1.5
t3.5 -3t3.5 -2.5t2.5 -1l0.5 -0.5l0.5 -0.5l0.5 0.5l0.5 0.5l0.5 0.5l0.5 0.5v16l0.5 1t0.5 2q1 0 1.5 0.5l0.5 0.5l1 -0.5t2 -0.5l1 -2v-14q0 -1 0.5 -1.5t1.5 -0.5q4 0 8 4.5t6 8.5l-4 3q0 1 -0.5 2.5t-1 4.5t-0.5 5v1q0 4 3 6q13 2 27 2t26 1v4q-1 0 -5.5 0.5t-9.5 0.5
h-9h-6h-4.5h-8t-8.5 -0.5t-6 -0.5h-2.5t-3 -0.5t-3 -0.5h-1.5q-1 0 -2 -0.5t-1 -1.5v-11q0 -1 -0.5 -1t-1 -0.5t-2 -0.5h-2.5v45q0 1 -5 2.5t-11.5 4.5t-11.5 8t-5 12q0 5 3 7.5t8 2.5t9 -2t9 -2q4 0 4 3v1.5v1.5q-5 6 -8 11t-3 13zM99 149q0 -3 1 -3h2h3h11t16.5 0.5
t16 0.5h10.5q0 1 0.5 1.5l0.5 0.5l-0.5 1.5t-1.5 1.5h-56l-1.5 -1.5zM167 102q2 0 3 0.5l3 1.5q0 1 2 3l4.5 4.5l4.5 4.5l3 3h2q3 0 3.5 -1t0.5 -4t-1 -4t-4 -3q-1 -1 -3.5 -3t-6 -4t-6.5 -3.5t-4 -2.5q4 -1 8 -2.5t7 -3t5 -5t2 -8.5q0 -6 -1 -9.5t-3.5 -5.5t-6.5 -2h-10
q-1 -1 -1 -3v-3v-2.5v-1.5q6 0 10 -1t6.5 -2.5t4 -5.5t1.5 -10q0 -2 -1 -2.5t-2 -0.5q-3 0 -3 2t-1 4.5t-3.5 4.5t-9.5 2q0 -4 0.5 -6.5t0.5 -6.5t-2.5 -7t-6.5 -3v21l-3 3h-1h-2q-5 0 -6 -3t-1 -6v-6t-2 -3q-1 0 -2 0.5t-1 1.5v16q0 2 2 3.5t5 2.5t6 1.5t4 0.5v4v5l-0.5 1
t-1.5 1h-12q-2 0 -3 3.5t-2 8t-1 8v4.5q0 4 3 7.5t7 5.5q-1 0 -2.5 1t-3 2.5l-3 3l-2 2t-3 2.5t-2.5 4q0 1 1.5 1.5t2.5 0.5q5 0 8.5 -4.5t6.5 -7.5h1v0l2 2q0 1 -0.5 3t-0.5 4t0.5 4t1.5 3h1v0q4 -2 5 -6t1 -8q1 0 1.5 -0.5zM148 82q0 -3 2 -3.5t4 -0.5q4 0 4.5 2.5
t0.5 6.5h-3.5t-3.5 -0.5t-3 -1.5t-1 -3zM173 78q1 0 3 0.5t2 3.5v0.5v0.5q0 1 -1.5 1.5t-3.5 0.5h-3h-2v-1v-1q0 -3 1 -4t4 -1zM83 71h4q2 0 3.5 0.5t1.5 2.5t-1 2.5l-2 1t-3 0t-3 -0.5v-6zM101 75q0 -2 1 -4t3 -2l0.5 0.5l0.5 0.5q1 0 3.5 0.5l2.5 0.5q0 4 -2 5t-5 1h-2.5
t-1.5 -2zM168 69q0 -3 1 -3.5t3 -0.5q3 0 6 0.5t3 4.5v1.5t-1 1.5h-11q-1 0 -1 -2v-2zM160 64q0 3 -0.5 5t-2 2.5t-3.5 0.5h-5q0 -5 3.5 -6.5t7.5 -1.5zM89 55q4 0 4.5 3.5t0.5 5.5h-13q0 -3 2.5 -6t5.5 -3zM101 63q0 -1 -0.5 -1.5l-0.5 -0.5q0 -3 2 -3.5t4 -0.5t5 0.5
t3 3.5q0 2 -1.5 2.5t-3.5 0.5h-4t-4 -1z" />
</svg>
