<?xml version="1.0" standalone="no"?>
<!DOCTYPE svg PUBLIC "-//W3C//DTD SVG 1.1//EN" "http://www.w3.org/Graphics/SVG/1.1/DTD/svg11.dtd" >
<svg xmlns="http://www.w3.org/2000/svg" xmlns:xlink="http://www.w3.org/1999/xlink" version="1.1" viewBox="-10 0 266 256">
   <path fill="currentColor"
d="M75 247q3 0 10 0.5t14.5 1.5t14.5 1.5t10 0.5h1h4h4h4h3h4h3h1q5 -1 12.5 -1.5t14.5 -1.5t11.5 -2l4.5 -1v-5h-116l-1.5 1.5t-2.5 1.5v1v1q1 1 2 1.5t2 0.5zM134 172q0 1 0.5 3.5t0.5 5.5t0.5 5.5t0.5 3.5q0 3 2.5 9.5t5.5 12.5t6.5 10.5t7.5 4.5h1q1 0 1.5 -1l0.5 -1
q-4 -4 -7 -10.5t-5.5 -13t-4 -13.5t-1.5 -12t3.5 -8t7.5 -5l8 -4t6 -5l15 -28v0v-1l-1.5 -1.5l-0.5 -0.5l-1 -1q-2 0 -5.5 5.5t-8 11.5l-9 12t-9.5 6q-4 1 -7.5 1.5t-7 0.5h-7h-8.5h-16q-4 -1 -8.5 -7t-8.5 -12.5t-6.5 -12t-4.5 -5.5q-1 0 -2 1.5t-1 2.5q0 2 0.5 3.5
l1.5 4.5q1 1 3 4.5t4 7.5t3.5 8t2.5 5q1 2 4.5 4t7.5 3.5t7 3t3 2.5v25q0 1 -1 2.5l-1 1.5q-1 2 -3 4.5t-4.5 6.5t-4 7.5t-1.5 5.5h6l1 -1l2.5 -2.5l3 -3l2.5 -2.5q4 -6 8 -13.5t4 -15.5q0 -3 -1 -5.5t-1 -6.5t2.5 -4.5t6.5 -0.5h1.5h2.5t2 0.5t1 1.5zM59 217v1q1 0 2 1t2 1
q4 0 8 -4.5t7 -10.5t5 -12t2 -8q0 -1 -0.5 -4.5t-0.5 -4.5t-0.5 -1.5t-1.5 -0.5h-1h-1l-0.5 0.5t-0.5 1.5q-1 1 -2.5 4.5t-4 8t-4.5 9.5t-4 9l-3.5 7zM166 173v2v3q3 8 6.5 14t8 10t10 7.5t13.5 6.5h2q1 0 2 -0.5t1 -1.5q0 -3 -3 -6t-7 -5.5l-8 -5t-5 -3.5q0 -1 -1.5 -2.5
t-3.5 -4t-3.5 -4t-1.5 -2.5q-3 -2 -4.5 -5t-5.5 -3zM95 129q0 3 3.5 4t5.5 1q10 0 21 -1t22 -3l1.5 -0.5t3 -0.5t3 -1t1.5 -2v-1v0q0 -1 -1 -1.5l-1 -0.5q-4 -1 -7 -1.5t-6 -0.5h-5.5h-5.5q-1 0 -6.5 0.5t-12 1.5t-11.5 2.5t-5 3.5zM120 91q2 3 6 3.5t7.5 1t7.5 0t7 -0.5h13
t16 -1t15 -4t12 -8q2 -1 2 -2v-1.5t-0.5 -1.5t0.5 -2q1 -5 4 -9t3 -10q0 -5 -0.5 -11t-2.5 -10.5t-5.5 -8.5t-9.5 -6q-2 0 -5.5 -1l-7 -2t-6.5 -2t-4 -1h-56v4q2 1 5 1.5t6.5 1.5t6 1.5t4.5 1.5l1.5 0.5l1.5 0.5q3 7 3.5 12t0.5 11t-2 10.5t-5 8t-5.5 7t-2.5 7.5
q7 0 11.5 -3.5t7 -9t3 -11.5t0.5 -12v-2v-4v-3v-1l-4 -8q3 -1 6.5 -1.5t6.5 -0.5h5l2 2q1 2 2 4.5t1.5 6t0.5 6.5v6q0 4 -2 7.5t-4.5 6.5t-4.5 6.5t-2 7.5q4 0 8 -2t7 -5.5t5 -8t2 -8.5q0 -6 -3 -12t-3 -11q0 -4 4 -4q13 0 18 6t5 19q0 9 -3.5 15t-9 10t-13 6t-15.5 2.5
t-15.5 1t-13.5 1.5q-2 0 -6 0.5t-6 2.5zM43 60q0 8 2.5 14t7 10.5t11 7t13.5 2.5q17 0 27.5 -8.5t10.5 -26.5q0 -8 -1.5 -15t-4.5 -12t-8.5 -7.5t-14.5 -2.5q-10 0 -18 1.5t-13.5 6t-8.5 12t-3 18.5zM57 71v-10q0 -14 6.5 -21t21.5 -7q9 0 15 5.5t6 16.5q0 12 -7 19.5
t-20 7.5q-8 0 -12.5 -2t-9.5 -9zM81 44q-2 0 -5 0.5t-3 3.5v12q0 1 1 1.5t2.5 1t2.5 0l1 -0.5q4 0 7.5 -1t3.5 -6t-3 -8t-7 -3z" />
</svg>
