<?xml version="1.0" standalone="no"?>
<!DOCTYPE svg PUBLIC "-//W3C//DTD SVG 1.1//EN" "http://www.w3.org/Graphics/SVG/1.1/DTD/svg11.dtd" >
<svg xmlns="http://www.w3.org/2000/svg" xmlns:xlink="http://www.w3.org/1999/xlink" version="1.1" viewBox="-10 0 266 256">
   <path fill="currentColor"
d="M54 240q0 5 3 7t7 2q7 0 13 -1t13 -2q16 -1 30.5 -2t30.5 -3q1 0 3.5 -0.5t3.5 -0.5q2 0 7.5 -0.5t11.5 -0.5t11.5 -0.5t7.5 -0.5h3t4 -0.5t3.5 -1.5t2.5 -2q0 -1 -0.5 -2t-0.5 -2l-1.5 -1.5l-0.5 -0.5h-29q-1 0 -1.5 -2t-0.5 -3v-2q0 -7 1 -13.5t1 -13.5q0 -1 -1 -3.5
t-3 -2.5q-3 0 -4.5 4t-1.5 6v3q0 1 0.5 2.5t0.5 4t0.5 4.5l0.5 2q0 8 -2.5 13t-10.5 5q-2 0 -4 -0.5t-2 -3.5v-1q0 -1 0.5 -2.5t0.5 -2.5q0 -8 -1.5 -17.5t-3.5 -17.5q0 -1 -0.5 -2l-0.5 -1l-0.5 -0.5l-0.5 -0.5q-1 0 -2 1.5t-1.5 3.5t-0.5 4v2q0 8 1 15.5t1 15.5
q0 2 -1 4.5t-3 4.5h-3.5t-5.5 0.5t-5 0.5h-3h-1.5h-0.5q-2 0 -3 -0.5t-2 -2.5v-21t-1 -21q-1 -1 -2 -3t-2 -2q-3 0 -4 2t-1 3v3q0 1 0.5 5.5t0.5 9.5t0.5 9t0.5 5v1q0 6 -1 9t-3 5t-6 2.5t-9 0.5h-6.5h-10.5h-9.5h-6.5zM80 227q1 0 1.5 0.5l0.5 0.5q0 1 1 1t1 -1l1.5 -1
t1.5 -2v-4v-4v-6t-0.5 -8t-2 -7.5t-4.5 -4.5l-1 1t-2 1v3.5v3.5q0 6 1.5 13t1.5 14zM67 146q0 9 4 15.5t10 10.5t13.5 6.5t15.5 2.5q5 0 9.5 -1t9.5 -1h2h3h2.5h1.5l1.5 0.5l1.5 0.5h1h1q2 0 5.5 -0.5t6.5 -1.5t6 -1.5t3 -1.5q5 -1 8.5 -3.5t5.5 -6t3.5 -7.5t3.5 -8
l1.5 -4.5t1 -2.5t0.5 -2v-3q0 -1 -0.5 -4.5t-3.5 -3.5q-1 0 -2.5 3t-3 7.5t-3.5 9.5t-6 9.5t-9.5 7.5t-13.5 4h-20h-20q-2 0 -5 -0.5t-6.5 -1.5t-6.5 -2.5t-4 -4.5l-8 -19q-1 -1 -2 -1.5t-2 -0.5q-5 0 -5 5zM96 149q0 2 2 2.5t3 1.5h21h17q8 0 17 -2q1 0 1.5 -1t0.5 -2
t-0.5 -2t-1.5 -1h-53l-6 3q-1 0 -1 1zM51 103q3 3 3.5 6t1 5.5t0.5 5.5q0 2 1 4t4.5 3.5t9.5 1.5h23h23q3 0 3.5 -1t0.5 -2t-0.5 -2t-1.5 -2q-8 0 -13 -0.5t-7.5 -2.5t-3 -6t-0.5 -13v-5q2 -4 5.5 -4.5t7 -1.5t6 -3t3.5 -9q1 -1 1 -3t0.5 -5t0.5 -5.5v-3.5q-1 -3 -3 -6
t-3 -6h-3t-4 -0.5t-4 -0.5h-2q-1 -1 -3 -1.5l-2 -0.5v-22l19 -3q0 -1 1 -1.5l1 -0.5v-1v-1l-1 -1.5l-1 -1.5h-5h-5q-4 0 -12 0.5t-15.5 2.5t-13.5 5t-7 8v1.5t-0.5 3t-0.5 3v1.5q0 1 -0.5 2t-1.5 2.5t-1.5 2.5t-0.5 2v7v9l0.5 2.5t0.5 5.5t0.5 5t0.5 3l-1 2t-1 3v3.5v5.5v3
v2.5v2.5v2zM130 122v0l1.5 1.5l0.5 0.5q1 0 3.5 -0.5t2.5 -1.5q4 -6 6 -13t6 -12q2 -3 3 -9t1.5 -13.5t1 -15.5t1 -14.5t1 -11t1.5 -6.5q3 -2 7 -2.5t8 -0.5h2h2q1 2 2.5 4.5t1.5 4.5q0 7 -1.5 13t-3 12.5t-2.5 13t-1 13.5q0 5 2 10.5t5 10.5t7 9t8 7h2q1 0 3 -1t2 -2
q0 -3 -2.5 -6.5t-5 -6.5t-6 -6t-4.5 -5v-14q0 -7 1 -14.5t2 -14.5l2 -14t1 -14q0 -3 -4.5 -5t-10 -2.5t-10.5 -0.5h-6q-2 0 -6.5 0.5t-9 1.5t-8 2t-3.5 3q0 3 1 3.5t2.5 0.5h4h4.5l3 3l2 2v29q-3 7 -3.5 13t-1.5 13q-2 9 -6.5 17.5t-8.5 16.5v1zM61 98l2 -3h2.5h4.5h8.5t6 2
t3.5 5t1 9q0 3 -0.5 5.5t-4.5 4.5h-3.5h-3.5q-4 0 -8.5 -1.5t-5.5 -6.5q-1 -2 -1 -4.5t-0.5 -4.5t-0.5 -4v-2zM61 74v-7.5t1.5 -4.5t4 -2.5l7.5 -1.5l2.5 -0.5t5.5 -0.5t5 -0.5t3 -0.5l2 -0.5t3 -0.5t3 0.5l4 1t4.5 1t3.5 0.5v4q0 9 -3.5 13.5t-8.5 7t-11.5 2.5h-14.5h-6
l-5 -4v-3.5v-3.5zM61 40q0 -4 2 -6.5t5 -4.5t7 -2.5t7 -0.5h2t3 1v8q0 1 0.5 4l0.5 3q0 3 -2.5 4.5t-6 2.5t-6.5 1h-4q-6 0 -7 -2.5t-1 -7.5z" />
</svg>
