<?xml version="1.0" standalone="no"?>
<!DOCTYPE svg PUBLIC "-//W3C//DTD SVG 1.1//EN" "http://www.w3.org/Graphics/SVG/1.1/DTD/svg11.dtd" >
<svg xmlns="http://www.w3.org/2000/svg" xmlns:xlink="http://www.w3.org/1999/xlink" version="1.1" viewBox="-10 0 266 256">
   <path fill="currentColor"
d="M51 245v3q0 1 2 2h11h10t9 -2h119q2 0 2 -2v-3q0 -3 -1 -3.5t-6 -0.5h-2.5t-4.5 0.5t-4.5 0.5h-2.5q-1 1 -3.5 0.5t-3.5 -0.5v-30q0 -3 -2 -4t-4 -1h-1.5t-1.5 2q-2 16 -1 33l-15 -1v-2.5t-0.5 -6t-0.5 -7v-6.5v-5q0 -4 1.5 -6.5t4.5 -3.5t6.5 -1.5t7 -1.5t5.5 -2.5
t3 -5.5q0 -1 0.5 -4l1 -6l1 -6t0.5 -5q0 -4 -1 -6.5t-5 -2.5q-3 0 -4.5 4t-2.5 8.5t-1.5 9.5t-0.5 8q-7 1 -11.5 1.5t-9.5 1t-9.5 0.5h-10.5q-4 0 -9 0.5t-10 -0.5t-9.5 -2.5t-7.5 -5.5q0 -2 -0.5 -5.5t-1.5 -7t-3 -6.5t-5 -3q-2 0 -3 0.5t-1 2.5q0 9 1.5 15.5t5 10.5
t10 6.5t15.5 3.5q3 1 3 4.5v5.5v1q0 3 -0.5 7t-0.5 7.5v6v2.5l-2 2h-13v-25q0 -6 -6 -6h-2t-1 2v30h-30q-3 0 -3.5 1.5t-0.5 3.5zM120 229v-12t1 -14q4 -1 6 -1h5h2t2.5 0.5t2.5 1t1 1.5v34h-19l-0.5 -1t-0.5 -2v-7zM96 173q0 2 1 3.5t2.5 2t3.5 0.5h3h7q3 0 9.5 -0.5
t14 -0.5t14 -0.5t8.5 -0.5l2.5 -2.5l2.5 -2.5v0v-1q0 -1 -0.5 -1.5t-1.5 -0.5h-63l-1 1.5t-2 1.5v1zM61 124v27q0 2 2.5 3t5.5 2.5t6 2t5 1.5q6 0 13.5 -1.5t13.5 -4.5q2 -1 3 -2l2 -2t2 -1.5t4 -0.5q22 0 43 2t43 2q2 0 3 -0.5t1 -2.5q0 -3 -3 -5h-3t-4.5 -0.5t-5 -0.5
h-3.5q-4 -1 -4 -5v-3q0 -3 -0.5 -5.5t-0.5 -4.5v-4v-4t0.5 -5.5t0.5 -4.5v-3v-2t0.5 -3.5t0.5 -3v-2.5q0 -3 -3 -7t-7 -4h-23q-3 0 -5 2t-3.5 4.5t-2 5t-0.5 4.5t-0.5 8t-1 13t-1 12.5t-0.5 8.5q-1 2 -3.5 1.5l-2.5 -0.5q-8 0 -12 -0.5t-5.5 -2t-1.5 -3.5v-4t-0.5 -3.5
t-3.5 -3.5q-4 2 -4.5 5.5t-1.5 8t-2.5 8t-5.5 3.5t-4.5 -2.5t-0.5 -4.5v-6t0.5 -8t1.5 -7.5t3 -3.5h17q1 0 1.5 -0.5t0.5 -1.5v-3v-3h-20q0 -1 -0.5 -3.5t-0.5 -4.5t1.5 -3.5t4.5 -1.5q2 0 5 1.5t5.5 3.5l5 4t4.5 4v0v0h1v0l2.5 -2.5l2.5 -2.5q-3 -4 -7 -7l-8 -6l-8 -6
t-7 -7v-6q0 -6 0.5 -9t1.5 -4t3 -1.5t3.5 -0.5t4 -1.5t4.5 -4.5q3 -6 4 -10.5t1 -10.5v-2v-3l-3 -1.5t-3 -0.5h-2t-1 2q0 1 -0.5 3t-0.5 4t-0.5 4t-0.5 3q-1 3 -2.5 6t-4.5 3h-1l-1.5 -1.5l-1.5 -1.5v-31q0 -2 -2 -2.5t-3 -0.5h-3t-2 2v32l-1 1.5t-2 1.5h-1q-4 0 -5 -4
t-1 -9t-1 -8.5t-4 -3.5q-2 1 -3.5 3.5t-1.5 3.5q0 7 0.5 12t2.5 8.5t6 5t12 1.5l1 4v18l-40 19q-1 1 -1 3q0 1 0.5 2t2.5 1q5 0 9.5 -2t8 -4.5t7.5 -4t9 -1.5h1l1 0.5l1 0.5v16l-4 2h-31q0 6 2.5 7t7.5 2h0.5h0.5q0 1 -0.5 1h-0.5q0 1 -0.5 2zM71 146q0 -5 -0.5 -8t-1 -5.5
t-1.5 -5t-1 -5.5v-1q1 0 2 -0.5t2 -0.5l2 -0.5t4 -0.5h4h3v6q0 4 -0.5 8t-0.5 7.5t-1 7.5h-5h-1h-2t-2 -0.5t-1 -1.5zM167 129q3 0 5.5 1t2.5 5q0 5 -4 6.5t-8 1.5h-4q-1 0 -3 -0.5t-3.5 -0.5t-3 -0.5l-1.5 -0.5v-9q0 -1 2.5 -1.5t5.5 -1t6 -0.5h5zM157 110h5.5t5 0.5t4.5 2
t2 4.5v2t-2 2h-24v-9q0 -1 1.5 -1.5t3 -0.5h3.5h1zM150 97q0 -3 2 -4.5t4.5 -2t5.5 -0.5h5q4 0 5.5 0.5t1.5 4.5q0 2 -1.5 3.5t-3.5 2t-4 0.5h-4h-8l-2 -2l-1 -1v-1zM133 25v5t0.5 6.5t0.5 7v4.5q0 4 3 6t6.5 2.5l7 1t3.5 1.5v13q0 1 1.5 1h2.5q2 0 3 -2t2 -4.5t1.5 -4.5
t2.5 -3t5 -1.5l6 -1t5.5 -1.5t4.5 -4t1.5 -7.5t-0.5 -7.5v-11q0 -2 -2 -2h-2q-4 0 -5.5 2t-1.5 4.5v6t-0.5 6t-2.5 4.5t-6 2h-2t-1 -1t-0.5 -3.5l-0.5 -2.5q0 -7 1 -13t1 -12q0 -2 -2 -3.5t-4 -1.5t-4.5 2t-2.5 4v31q0 2 -1.5 2h-1.5q-6 0 -6.5 -4t-1 -8.5t-2 -8.5t-8.5 -4z
" />
</svg>
