<?xml version="1.0" standalone="no"?>
<!DOCTYPE svg PUBLIC "-//W3C//DTD SVG 1.1//EN" "http://www.w3.org/Graphics/SVG/1.1/DTD/svg11.dtd" >
<svg xmlns="http://www.w3.org/2000/svg" xmlns:xlink="http://www.w3.org/1999/xlink" version="1.1" viewBox="-10 0 266 256">
   <path fill="currentColor"
d="M74 89v86q0 14 4 27t10 25q0 1 1.5 2.5t1.5 2.5q1 2 1.5 5t1.5 6.5t3 5.5t5 2q2 0 3.5 -0.5t1.5 -3.5t-1.5 -6l-3 -6t-3.5 -6t-3 -5q-5 -11 -7 -22.5t-4 -23.5q-1 -3 -2 -6.5t-1 -7.5q0 -3 2 -5t4.5 -4l5 -4t3.5 -4l0.5 -2t0.5 -4t0.5 -4.5t0.5 -3.5q1 -12 1.5 -25.5
t0.5 -25.5l1 -3q3 1 5 7t3 14t1 17t1 17t2 13t4 5t4 -2.5t1 -4.5q0 -1 -0.5 -2.5t-0.5 -2.5l-0.5 -3t-1.5 -6.5t-1.5 -6.5t-0.5 -4v-2v-4v-4v-2q0 -2 -0.5 -6.5t-1.5 -9t-1 -9t-1 -5.5q-2 -4 -5.5 -5.5t-7.5 -1.5q-2 0 -4 0.5t-3 2.5v14v15t-0.5 15.5t-0.5 12.5
q-1 5 -2.5 11t-5.5 9q-1 1 -2 0t-2 -1q0 -19 0.5 -37.5t-1.5 -38.5q-1 -2 -4 -3t-6 -1q-6 0 -9.5 4t-6 10t-3.5 13.5t-1.5 15t-0.5 13.5v9v11.5t2 11.5h1h2q2 0 4 -1t2 -6v-30v-4t0.5 -8.5t0.5 -8.5v-5q0 -2 0.5 -5t1 -5.5t2.5 -4.5t5 -2l1 0.5l1 0.5zM199 244q0 2 1 2h2
q5 0 6.5 -2t1.5 -6q0 -3 -1.5 -4.5t-3 -3.5t-3.5 -3.5t-3 -3.5q-3 -6 -5.5 -13t-5.5 -13q-3 -4 -6.5 -6t-6 -4t-4.5 -4.5t-2 -8.5q0 -3 2 -4.5t5 -2t5.5 -1t4.5 -0.5q3 -1 4 -4t1 -6v-5t2 -3q2 3 3.5 5l3 4t4 3t6.5 1q0 -8 -2.5 -12.5t-6 -9t-6 -9t-2.5 -10.5q0 -3 0.5 -5
t1.5 -4t1.5 -4t0.5 -5q0 -7 -1.5 -12t-5.5 -8t-9 -4t-12 -2l-2 -2v-19q2 0 6 -0.5t5 -0.5t3.5 -0.5t4.5 -2t3.5 -2.5t1.5 -3v-23q0 -2 -2 -2h-3t-3 0.5t-2 2.5v19l-1.5 0.5t-2.5 0.5q-1 1 -5 0.5t-5 -0.5v-25q0 -3 -2 -3.5t-4 -0.5l-2 -0.5t-2 1.5v28q0 2 -1.5 2h-2.5h-5.5
t-4.5 -3v-12q-1 -3 -1.5 -3.5t-1.5 -0.5q-3 0 -4 3t-1 5q0 6 1.5 10t5 6t8 2.5t9.5 0.5q0 2 0.5 5t0.5 6t-1 6t-2 5q-1 0 -3.5 0.5t-5.5 0.5t-5.5 0.5l-2.5 0.5q-3 0 -6.5 0.5t-3.5 4.5q0 2 2.5 2.5t4.5 0.5q6 0 11.5 -1t11.5 -1v16l-2 1h-2.5t-6 0.5l-7 1t-6.5 0.5h-7
q0 1 0.5 2.5t0.5 2.5l0.5 0.5t1.5 0.5h28l0.5 0.5t0.5 1.5q1 0 1 2v3q0 6 -4.5 7t-10.5 1q-5 0 -9.5 1t-4.5 7q7 0 12.5 -1.5t11.5 -1.5h1l2 2t1 2v50q0 2 -3.5 3.5t-4.5 1.5q-5 0 -7.5 -2.5t-2.5 -7.5q-1 -2 -1 -6t-0.5 -9t-0.5 -9.5v-6.5q0 -1 -1 -1.5t-2 -0.5
q-2 0 -3 0.5t-2 2.5v11v12q0 7 1.5 12t5 8.5t10.5 4.5h5t7 0.5t7.5 0.5h4.5q5 5 8.5 10.5t6.5 12t5 12.5t5 12zM171 156q0 -1 -0.5 -4.5t-0.5 -4.5v-7q0 -4 1.5 -6.5t3.5 -4t7 -1.5q4 0 6 3.5t2 7.5q0 1 -0.5 2l-0.5 1q0 1 -2.5 2.5t-3.5 2.5t-1 3.5t-0.5 4.5t-1.5 3.5
t-4 1.5q-2 0 -3 -0.5t-2 -3.5zM167 118q0 -3 2 -4.5t4 -1.5q3 0 4.5 1.5t1.5 4.5t-2.5 3.5t-4.5 0.5t-3.5 -1t-1.5 -3zM167 97q0 -10 9 -10q7 0 9.5 3t2.5 10q0 3 -0.5 5.5t-4.5 2.5q-1 0 -3.5 -1.5l-5 -3l-5 -3t-2.5 -3.5zM80 32q-1 2 -2.5 4t-4 3.5t-4.5 2.5l-4 2
q-4 3 -7.5 5t-6.5 4.5t-5 5.5t-2 7q6 0 12 -4t11.5 -8.5t10.5 -8.5t9 -4t8 3l8 6l8 6t8 3q2 0 3.5 -1t1.5 -3v-1q-1 -3 -6.5 -6.5t-12 -7t-11.5 -6.5t-5 -5v-19q-7 0 -8.5 2.5t-1.5 8.5v2t0.5 4t0.5 3.5v1.5z" />
</svg>
