<?xml version="1.0" standalone="no"?>
<!DOCTYPE svg PUBLIC "-//W3C//DTD SVG 1.1//EN" "http://www.w3.org/Graphics/SVG/1.1/DTD/svg11.dtd" >
<svg xmlns="http://www.w3.org/2000/svg" xmlns:xlink="http://www.w3.org/1999/xlink" version="1.1" viewBox="-10 0 266 256">
   <path fill="currentColor"
d="M195 202l4 47q0 1 1.5 1.5t2.5 0.5q3 0 4 -2t1 -4v-2q-1 -3 -1 -7t-0.5 -9t-1 -9.5t-2.5 -7.5l-3 -44q0 -1 -1.5 -1.5l-1.5 -0.5q-1 0 -3.5 -0.5t-5 -0.5h-5.5h-4q-2 -2 -2.5 -5t-0.5 -5t1.5 -3.5t3.5 -2.5t4 -1t4 -1q1 0 3.5 -0.5t5 -0.5h5h3.5q2 -1 2 -1.5v-1.5v-2.5
t-2 -1.5h-5l-4.5 0.5t-10.5 0.5t-13.5 1t-13.5 2t-10 3t-4 4h24l0.5 1.5t0.5 2.5v2v2q0 8 -0.5 16t-0.5 16q-2 2 -3.5 2.5t-3.5 0.5q-3 0 -6 -3.5t-3 -5.5v-21l-0.5 -0.5t-0.5 -1.5h-1h-1q0 1 -1.5 2t-1.5 2v0v1q0 2 0.5 6t1 8.5t1 8.5t0.5 6q1 1 2.5 3.5t3.5 2.5h36z
M77 191q1 0 1.5 1.5l0.5 1.5q0 1 1 4.5t1.5 7t1.5 7l1 3.5q1 4 2.5 9t4 9.5t6 8t8.5 3.5q0 -3 -0.5 -4.5l-1 -3t-1.5 -3t-2 -5.5q-10 -24 -16 -50v-1v-2q0 -2 1.5 -3.5t3 -2.5t3.5 -2.5t3 -2.5q5 -8 6.5 -16.5t1.5 -17.5q0 -8 -1 -14.5t-1 -13.5v-3v-2.5v-3.5v-2
q1 -3 2.5 -4t4.5 -1q2 0 3.5 3t2.5 6.5t1 7v4.5v23v25q-1 5 -2.5 11.5t-1.5 12.5v3t3 1q2 0 3.5 -3.5t2.5 -8t1.5 -10.5t0.5 -12v-9v-6q0 -11 -0.5 -20.5t-1.5 -22.5q0 -3 -0.5 -5.5t-2 -4.5t-3.5 -3t-5 -1q-4 0 -7.5 1.5t-4.5 6.5q-1 1 -1 3.5t-0.5 5t-0.5 5v3.5v3.5t0.5 6
t1 6t0.5 3.5v7q0 2 -0.5 7.5t-1.5 11t-3.5 10t-6.5 4.5q-2 0 -3 -1.5t-1.5 -4t0 -4.5t0.5 -3q0 -8 1 -16l2 -16l2 -16t1 -16q0 -9 -9 -9q-10 0 -15 5.5t-7 13.5t-2 17v15v5t2 4q-1 9 -0.5 20.5t1.5 21.5q2 3 5 3t3 -3v-5q0 -12 -1.5 -23t-1.5 -23v-3.5v-3.5v-2t0.5 -4.5
t1 -4.5t0.5 -3v-8q0 -3 1 -6t4 -4.5t8 -1.5q2 0 2 1.5v2.5q0 13 -2.5 26t-2.5 26v6v4l3 5v33zM115 239q0 4 5 4q2 0 4 -2.5t3 -5.5t1.5 -6.5t0.5 -5.5q1 -1 1.5 -3.5l1 -5t1 -4t0.5 -2.5q1 -6 2 -14l2 -16t2 -16.5t2 -16.5v-8t0.5 -8.5t2 -8.5t4.5 -6q8 -1 14.5 -2
t12.5 -1.5t12.5 -1t14.5 -0.5l1 -1.5t2 -1.5v-1v0q0 -3 -2 -3.5t-4 -0.5q-7 0 -14 1t-13 2q-10 2 -17 2t-11 2t-6.5 7t-3.5 16v4.5t-0.5 8t-0.5 8v5.5q-2 16 -5.5 32.5t-7.5 33.5q-1 3 -3 8t-2 8zM176 179q0 -4 4 -5.5t7 -1.5h4q2 2 2 4v5q0 5 -1.5 7.5t-6.5 2.5t-7 -3.5
t-2 -8.5zM153 126q0 1 2 2.5t3 1.5q10 0 20 -2.5t19 -2.5v-1v-2q0 -2 -1.5 -3t-4.5 -1q-1 0 -6.5 0.5t-12 1.5t-12 2t-7.5 3v1zM133 90q5 -1 10 -0.5t10 2t10 2.5t10 1q4 0 6 -3t5 -4h2h2h3h1q4 0 6.5 -3t4 -6.5t2 -8t0.5 -7.5v-2.5v-4.5v-6v-4q0 -2 0.5 -7t0 -10t-2 -8.5
t-6.5 -3.5q0 3 0.5 7t-0.5 7t-3 5t-7 2h-5t-5.5 -1l-5 -2t-2.5 -3q0 -1 -0.5 -3.5t-1 -5.5t-0.5 -5.5v-3.5v-2q-3 0 -5.5 2.5t-2.5 5.5t1 5t1 5v0.5v1.5l-13 9h-1h-2.5t-4.5 -0.5t-4 -1.5t-2 -3v-14q0 -1 -1.5 -1.5t-2.5 -0.5q-2 0 -3.5 1.5t-1.5 4.5q0 4 0.5 9.5t2.5 8.5
q0 5 -0.5 11t-0.5 12t1.5 12t4.5 11zM163 87l-0.5 -1l-0.5 -1l1 -2l2 -4t2 -3.5l1 -1.5h1q3 2 4.5 2.5t1.5 3.5t-1 5.5t-4 2.5h-1q-1 0 -3.5 -0.5zM134 75q0 -4 3.5 -5.5t6.5 -1.5q4 0 5 3.5t1 6.5v3t-2 3h-11l-0.5 -1.5l-0.5 -1.5q-1 -1 -1.5 -3l-0.5 -2v-1zM183 76
q0 -4 2 -5.5t5 -1.5h2q1 0 2 1l0.5 1t0.5 2v0q0 5 -0.5 6.5t-4.5 1.5q-2 0 -4.5 -1t-2.5 -4zM156 64v-4v-3q3 2 5 5t2 6q0 2 -1 4.5t-3 4.5q-3 -3 -3 -6.5v-6.5zM170 66q0 -3 1.5 -7.5t5.5 -6.5q0 1 0.5 3t1 4.5t0.5 4.5v2l0.5 0.5t0.5 1.5t-0.5 3t-2.5 2t-4.5 -2.5
t-2.5 -4.5zM48 66q0 2 2 3t4 1q5 0 9 -3.5t8.5 -8t9 -8t9.5 -3.5q4 0 7.5 2.5t7 5.5t6 5.5t4.5 2.5q4 0 4 -3q0 -4 -3.5 -7t-7.5 -6t-8.5 -5.5t-6.5 -5.5q0 -2 0.5 -5.5t0.5 -6.5t-1.5 -5.5t-5.5 -2.5q-3 0 -3.5 2.5t-1.5 5.5v16q-1 2 -6.5 5.5t-12 7t-11 7.5t-4.5 6z
M183 53q0 -5 2 -6t6 -1q8 0 8 8q0 4 -3 6t-7 2h-2h-3q-1 -3 -1 -5v-4zM145 46q3 -1 4 2t1 5q0 3 -1.5 4.5t-3.5 2.5t-5 1h-6v-10l1 -0.5t2 -1.5q2 -1 5 -2zM161 46q0 -2 1.5 -3.5t3.5 -1.5q1 0 2.5 1.5t1.5 3.5t-0.5 5.5t-4.5 3.5q-1 0 -1.5 -1t-1.5 -2.5t-1 -3v-2.5z" />
</svg>
