<?xml version="1.0" standalone="no"?>
<!DOCTYPE svg PUBLIC "-//W3C//DTD SVG 1.1//EN" "http://www.w3.org/Graphics/SVG/1.1/DTD/svg11.dtd" >
<svg xmlns="http://www.w3.org/2000/svg" xmlns:xlink="http://www.w3.org/1999/xlink" version="1.1" viewBox="-10 0 266 256">
   <path fill="currentColor"
d="M93 198q0 2 1 6l2.5 10t4 12t5 11.5t5.5 8.5t6 3t5.5 -1.5t2.5 -4.5v-0.5v-1.5q-9 -8 -15 -19.5t-6 -23.5q0 -2 0.5 -7.5t1.5 -11t2.5 -10t2.5 -6.5q2 -1 4 -3l4 -4t3 -4.5t1 -5.5q0 -6 -2.5 -10.5t-6.5 -7.5t-9 -5.5l-9 -4.5q-1 -2 -1.5 -4t-0.5 -4q0 -5 4 -6.5t8.5 -2
l9 -1t6.5 -3.5q2 -4 4 -9.5t3.5 -12t2 -12.5t0.5 -11v-11t-1.5 -14.5t-5 -13t-10.5 -5.5h-1q-1 0 -3 0.5t-5 0.5t-5 0.5t-3 0.5l-1 0.5l-1 0.5v1q0 2 3.5 3.5t8 3t8.5 3t6 4.5v2.5v2.5v3t-0.5 4t-1 3.5t-2.5 1.5h-1q-1 0 -2.5 -0.5t-3.5 -1t-3.5 -1l-1.5 -0.5q-1 0 -2 -1
l-1 -1h-1q-4 0 -4 4v1.5v1.5q3 1 7 2t7.5 3t6.5 4.5t3 6.5q0 1 -0.5 3l-1 4t-1.5 3.5t-3 1.5t-4 -0.5t-4 -2t-4 -2.5t-5 -1v6q1 1 4 2t5.5 3l5 4t2.5 5t-3.5 5t-8 2.5t-8.5 0t-6 -0.5h-15q-3 -1 -6 -3t-3 -6t3.5 -6.5t8 -5t8 -5t3.5 -7.5q-4 0 -7 1.5t-6 3.5t-5.5 4t-5.5 2
q-2 0 -2.5 -2l-1 -4t-0.5 -4v-3q0 -6 3.5 -8t8 -3.5t8 -3.5t3.5 -8q-3 0 -5.5 1t-5 2.5t-5 2.5t-5.5 1h-1l-0.5 -0.5l-0.5 -0.5q0 -1 -0.5 -3.5l-0.5 -2.5q0 -5 4 -8t8 -5t7.5 -3.5t3.5 -4.5v-2t-1 -2h-6q-11 0 -18 6.5t-7 17.5v5q0 2 0.5 7.5t1 11.5t1 11.5t0.5 7.5
q1 5 1.5 8.5t2 6.5t4.5 4.5t8 2.5q1 0 3 0.5t4 0.5t4 0.5l2 0.5l2 2v1.5v2.5q0 6 -2.5 9t-6.5 5.5t-8 5.5t-7 7q-5 6 -7.5 14t-3 15.5t-1 15.5t-0.5 15q0 3 0.5 10t2 14.5t4 13t6.5 5.5q3 0 5 -3t2 -6t-1.5 -6.5t-3.5 -6.5q-1 -12 -1.5 -23t-0.5 -23q0 -5 2 -12t5.5 -14
t8.5 -12t11 -5q3 0 6.5 1t7 3t6 5t2.5 6v1l-1 1.5t-2 2.5t-1.5 2.5l-0.5 1.5q-6 11 -9.5 22.5t-3.5 24.5v0zM149 244q2 4 3.5 4.5t3.5 0.5q3 0 4 -1t1 -3q0 -8 -3 -14.5t-4 -13.5q0 -5 -0.5 -9.5t-0.5 -9v-8.5v-10v-13q2 -12 9.5 -19.5t20.5 -7.5q2 0 4.5 0.5t5 1.5t4 3
t1.5 4q0 5 -3.5 11t-7.5 12.5t-7 12.5t-3 12q0 4 2 13t6 17.5t9 15t11 6.5q3 0 3.5 -1.5t0.5 -4.5q0 -4 -3.5 -9t-7.5 -10t-7 -11t-3 -14q0 -7 3 -13t6.5 -12t7 -11.5t3.5 -11.5q0 -9 -5 -12.5t-10.5 -5.5t-10 -3.5t-4.5 -6.5q0 -6 4 -7.5t9 -2t9.5 -1.5t5.5 -6q2 -9 2 -17
v-19v-4q0 -4 -0.5 -7t-0.5 -5v-3v-4t-1 -7.5t-1.5 -8t-0.5 -5.5q-1 -6 -5.5 -8t-10.5 -2h-14.5t-12 2t-10 5.5t-7.5 11.5v16v16q0 3 0.5 8.5t0.5 11.5t0.5 11.5t2.5 7.5q2 5 6 6t7.5 2t6 3.5t2.5 9.5q0 3 -2 4.5t-5 3.5t-5.5 3t-3.5 2q-3 3 -5.5 8t-4 10.5t-1.5 11v9.5
q0 17 1.5 33t4.5 32zM154 94v-7q1 -1 3 -1.5t4 -1.5q1 0 6 -0.5t10.5 -1t10.5 -1t7 -0.5h1q3 0 4 1.5t1 3.5q0 7 -2.5 11t-6.5 6.5t-9 3.5t-10 1q-8 0 -13.5 -3t-5.5 -11zM151 61q0 -2 2 -4t4 -3l38 -4q1 -1 2 1t1.5 4.5t0.5 5.5v2v4v3q0 2 -3 3t-6.5 1.5t-6.5 0.5h-5
q-1 0 -3.5 0.5t-5 0.5t-4.5 0.5t-3 0.5q-8 0 -9.5 -4.5t-1.5 -11.5zM153 41q0 -6 2.5 -9t7 -4.5t9.5 -1.5h10h11q3 5 3 11q0 4 -3.5 6t-8.5 2.5t-10.5 0t-8.5 -0.5h-11q-1 -1 -1 -2v-2zM63 -23h-1v0q0 1 1 1v-1zM79 -23h-2t-1 0q0 1 1 1t2 -1zM132 -23h-2t-1 0q0 1 1 1t2 -1
zM200 -23q1 0 -1 0h-2q1 1 2 1t1 -1z" />
</svg>
