<?xml version="1.0" standalone="no"?>
<!DOCTYPE svg PUBLIC "-//W3C//DTD SVG 1.1//EN" "http://www.w3.org/Graphics/SVG/1.1/DTD/svg11.dtd" >
<svg xmlns="http://www.w3.org/2000/svg" xmlns:xlink="http://www.w3.org/1999/xlink" version="1.1" viewBox="-10 0 266 256">
   <path fill="currentColor"
d="M177 216q0 1 2 4.5l4 7t3.5 6.5l2.5 5l1.5 2t3.5 3.5l4 3t3 1.5q3 0 5 -2t2 -4q0 -5 -3.5 -10t-7.5 -11t-7 -13t-3 -16q0 -4 2 -9.5t5 -11t6.5 -10t5.5 -8.5v-5q0 -8 -3.5 -11.5t-8 -5.5t-7.5 -4t-3 -6q0 -3 2.5 -5t5.5 -4l6 -4t4 -3q3 -4 4 -9.5t1.5 -10.5t0.5 -10v-9
q0 -13 -0.5 -20.5t-4 -11.5t-10.5 -5t-20 -1q-12 0 -18 2t-9 6t-3 11v17q0 4 -0.5 10t0 12.5t2 12t5.5 9.5q2 3 6 4t8.5 2t7.5 3t3 6q0 2 -2 4t-5 3.5t-6.5 2.5t-5.5 3q-6 4 -9.5 14t-4.5 21.5t-1 22.5v18v7v6t0.5 6.5t1.5 7.5q0 1 1.5 2t1.5 2h1q4 0 5 -3.5t1 -6.5v-6.5
t-2 -6.5v-4v-6.5v-6.5v-4v-19.5t2.5 -20.5t9 -16.5t18.5 -6.5h4.5t5 1t4 2.5t1.5 4.5q0 7 -3.5 12.5l-7 11t-7 12t-3.5 16.5q0 5 1 9.5t1 9.5zM47 159v9.5t1 10t3.5 8.5t7.5 5q1 0 4 1t7 1.5t7.5 1.5t5.5 1h4l4 0.5t8 0.5t8 0.5t5 0.5l2 -0.5l4 -1l4 -1t4 -1.5q3 -1 5 -1.5
t2 -3.5t-4 -5h-48h-4.5t-6.5 -1t-5.5 -2.5t-2.5 -5.5q0 -1 3 -3.5t7 -5t7.5 -5t5.5 -5.5l0.5 -2t1 -4.5t1 -4.5l0.5 -2l2 -4t2 -2q3 0 3.5 5t2.5 11t7 11t16 5q3 0 5 -0.5t2 -4.5q0 -3 -3.5 -4t-8 -2t-8 -3.5t-3.5 -9.5q0 -3 0.5 -5.5t3.5 -3.5q1 0 3.5 -0.5t5.5 -0.5
t5.5 -0.5t3.5 -0.5q3 -1 3.5 -1.5t0.5 -2.5q0 -1 -1.5 -3t-3.5 -2q-1 0 -3 0.5t-2 1.5h-57q-3 0 -4 -2t-1.5 -4.5t-1.5 -4t-4 -1.5h-3.5t-0.5 3v6v8v9v5t-0.5 2.5t-0.5 3.5t-0.5 4zM59 152q0 -6 1.5 -11t9.5 -5q4 0 7 1.5t3 6.5q0 3 -1.5 6.5t-3.5 6t-5 4.5t-6 2
q-5 0 -5 -3.5v-7.5zM56 15q-1 0 -2.5 0.5t-1.5 1.5v61q0 15 8.5 23t23.5 8h9t10.5 -1t9.5 -4t6 -7q0 -3 0.5 -10t0.5 -14.5t0.5 -14.5t0.5 -10v-2v-5v-5v-5v-3v-5.5v-4.5v-4q-1 -1 -3 -2t-3 -1h-1q-1 0 -3 0.5l-2 0.5v18l-2 1l-2.5 0.5t-6 0.5t-6.5 0.5t-5 0.5h-7h-7.5
t-6.5 -0.5l-3 -0.5v-13l-2 -1.5t-4 -2.5h-1zM151 94v0q1 -1 2 -2.5t2 -1.5h35q3 0 4.5 1.5t1.5 3.5q0 5 -2.5 7.5t-6.5 3.5t-8 1h-7t-6.5 -0.5t-6.5 -2t-5.5 -4t-2.5 -6.5zM64 47l4 -4h1.5t3.5 -0.5t4.5 -0.5h3.5q6 -1 11.5 -1.5t11.5 -0.5h3.5t2.5 3v40q0 5 -2 8t-5 5
t-7.5 2.5t-8.5 0.5q-2 0 -6 -0.5t-7.5 -2t-6.5 -4t-3 -6.5v-39zM150 72v-1q0 -1 1.5 -2.5l1.5 -1.5h43q1 0 1 1.5v2.5v3v1l0.5 1t0 2.5t-0.5 2.5t-1 1h-40q-3 0 -4.5 -4t-1.5 -6zM74 67q0 2 1 3t3 1h3.5t7.5 -0.5t7.5 -1.5t3.5 -3q0 -1 -1 -3t-2 -2t-3.5 -0.5l-2.5 -0.5h-5
t-5.5 0.5t-4.5 2t-2 4.5zM151 55v-1v-2q0 -5 2.5 -8t6.5 -4.5t8 -1.5h8h7.5t7 1t5 3.5t1.5 7.5v3.5t-1 3.5h-3h-5.5h-4.5h-4h-14t-14 -2z" />
</svg>
