<?xml version="1.0" standalone="no"?>
<!DOCTYPE svg PUBLIC "-//W3C//DTD SVG 1.1//EN" "http://www.w3.org/Graphics/SVG/1.1/DTD/svg11.dtd" >
<svg xmlns="http://www.w3.org/2000/svg" xmlns:xlink="http://www.w3.org/1999/xlink" version="1.1" viewBox="-10 0 266 256">
   <path fill="currentColor"
d="M89 213v35q0 1 1 2t2 1l1 -0.5t2 -0.5l1 -0.5t1 -1.5q-1 -15 0.5 -30.5t6.5 -29.5q1 -4 4 -9.5t5 -11l4 -11t2 -9.5q0 -5 -1 -13.5t-3.5 -16t-6.5 -13.5t-10 -6q-4 0 -6 0.5t-5 1.5q-2 1 -4 6t-3.5 11.5t-2.5 14t-2 14.5t-1 12.5v7.5v11l1 0.5t2 0.5t2 -3t1 -7t0.5 -8
t0.5 -6q3 1 5 3.5l4 5t3.5 4.5t3.5 2q3 0 3 -4q0 -5 -3 -8.5t-6 -6.5t-5.5 -6t-2.5 -7q0 -3 1.5 -3.5t3.5 -0.5h1.5h0.5l11 12h2q0 -6 -2 -10t-5 -7t-5 -5.5t-2 -5.5q0 -4 2 -7.5t6 -3.5t6.5 5t4.5 12t3 13t1 9q0 5 -1.5 10t-4 10l-5 10t-3.5 10q-3 7 -4.5 14t-4.5 14z
M139 245q1 2 2 2.5t3 0.5q1 0 2 -0.5t2 -2.5v-3v-3q0 -6 -1 -12.5t-2 -13.5t-2 -13.5t-1 -13.5v-13q2 -5 3.5 -10t3.5 -10t5.5 -8.5t8.5 -5.5q4 -2 6.5 -5.5t5 -6.5t5 -5.5t5.5 -2.5q2 0 3.5 1.5t2.5 4t1.5 5t0.5 3.5t-0.5 2t-0.5 2q-1 1 -2.5 5t-3.5 8t-3.5 8t-2.5 6
q0 1 -0.5 2.5l-1 3t-1 2.5l-0.5 1v34l0.5 2t1 2.5t2 4t1.5 4.5q1 3 1.5 8t2 9.5t4 7.5t6.5 3q3 0 4 -1.5t1 -4.5q0 -6 -2 -12.5t-5 -12.5t-5.5 -12.5t-2.5 -13.5v-13t3 -13q2 -3 3.5 -6t3.5 -6t3 -6.5t1 -7.5q0 -9 -2 -18q0 -3 -1.5 -6t-3.5 -5.5t-3 -5.5t-1 -7
q0 -3 1.5 -4.5t4 -3t4.5 -3t4 -3.5q0 -1 0.5 -4l1 -6t1 -5.5t0.5 -3.5v-1v-1q0 -3 -0.5 -7t-0.5 -8v-7v-4q-1 -8 -7 -10t-13 -2q-8 0 -12 3.5t-5 9t-0.5 12.5t0.5 13v4v6.5v6.5v4q1 3 2.5 4.5t3 2.5t3.5 1.5t5 2.5v1.5v2.5v1.5v2.5q-1 1 -2 4l-2 6t-3 5t-5 2q-2 0 -5.5 -2.5
t-7 -6.5t-6 -8t-2.5 -6t1 -3.5t2 -2.5t2.5 -2t2.5 -2v-4v-7v-6v-5v-5v-7.5v-5.5v-3v-4.5t-0.5 -5t-0.5 -4.5v-2l-5 -5h-2.5h-3.5q-10 0 -14.5 1.5t-6.5 5t-2 9.5v15q0 8 -0.5 15.5t1 13t5.5 8.5t14 4v1v1q0 8 -3 15t-7 13q-2 2 -5 4.5t-3 4.5q0 1 0.5 2t0.5 2q1 0 1.5 1
l0.5 1q4 0 6.5 -4t4.5 -8t4.5 -7.5t5.5 -3.5q4 0 6 3t2 8q0 3 -2 6.5t-4.5 6.5l-5 6t-3.5 5l-1 2.5t-2.5 5t-2 5t-1.5 3.5v6t-0.5 8.5t-0.5 8.5v6v4q0 5 0.5 11t2 12t2 11.5t1.5 10.5zM49 238q0 3 1 3.5t3 0.5t3.5 -0.5t1.5 -2.5q3 -20 5.5 -38t4 -36t2 -37t-0.5 -39l2 -2
q3 0 9 -0.5t12 -2t10.5 -5t4.5 -9.5v-29q0 -1 -1 -4t-3 -2q-2 0 -3 2t-1.5 4t-1.5 3.5t-4 1.5h-19q-3 0 -4 -2.5t-1 -4.5q0 -4 2.5 -6.5t7 -3.5t9.5 -2t9.5 -2t7 -2.5t2.5 -4.5t-2 -3.5t-4 -0.5q-4 0 -11 1t-14 3.5t-12 6t-6 8.5v19q0 18 1 35.5t1 34.5q0 24 -1.5 48.5
t-4.5 47.5q0 5 -2.5 10t-2.5 10zM130 77v-2t2 -2l2.5 -0.5l5 -1l5 -1t3.5 -0.5h2q2 0 2.5 1.5t0.5 3.5q0 5 -3 8t-7 3q-2 0 -4.5 -0.5t-4.5 -1.5t-3 -2.5t-1 -4.5zM175 77q0 -1 0.5 -2t0.5 -2q4 0 8.5 -1t9.5 -2q1 0 1 2v3q0 3 -2 7t-6 4q-5 0 -8.5 -2t-3.5 -7zM69 66v-1
q0 -1 0.5 -3.5t1.5 -2.5q5 -2 8.5 -2h8.5h9l2 4t1 4q0 3 -3.5 6.5t-6.5 3.5h-19l-0.5 -3.5t-1.5 -4.5v-1zM130 57q0 -3 2 -4t5 -1.5t6 -0.5h5q3 0 4.5 1t1.5 3q0 4 -1.5 6t-4.5 2.5t-6 0.5h-6t-4.5 -1.5t-1.5 -5.5zM174 58v-1v-2t0.5 -2t1.5 -1l16 -1q4 0 4.5 2t0.5 4
q0 3 -1.5 4.5t-3.5 2t-4 0.5h-5h-4h-3q-2 -1 -2 -3v-3zM130 38q0 -2 1.5 -3.5t4 -2.5t4.5 -1.5t4 -0.5t4.5 2t2.5 4q0 3 -1.5 4l-3 2t-4 1h-3.5h-2.5t-3 -0.5t-2.5 -1.5t-1 -3zM175 40q0 -3 2 -4.5t4 -2t4.5 -1t3.5 -0.5q3 0 4 2.5t1 4.5v2.5t-2 1.5h-15q-1 0 -1.5 -1.5z
" />
</svg>
