<?xml version="1.0" standalone="no"?>
<!DOCTYPE svg PUBLIC "-//W3C//DTD SVG 1.1//EN" "http://www.w3.org/Graphics/SVG/1.1/DTD/svg11.dtd" >
<svg xmlns="http://www.w3.org/2000/svg" xmlns:xlink="http://www.w3.org/1999/xlink" version="1.1" viewBox="-10 0 266 256">
   <path fill="currentColor"
d="M86 246q0 2 1 3.5t3 1.5q3 0 5 -2t3 -4q-1 -24 0.5 -47.5t2.5 -46.5q0 -29 0.5 -58.5t0.5 -59.5v-6q-1 -1 -1.5 -2t-0.5 -2.5t-1 -2.5t-4 -1h-2t-2 1v3v4.5v4.5v2q0 6 1 12t1 11v4t-0.5 4t-1.5 3.5t-3 2.5l-2.5 0.5t-3.5 0.5q-5 0 -7 -2t-2.5 -4t-0.5 -4.5t-0.5 -5t-2 -4
t-5.5 -1.5t-4.5 3t-0.5 6q0 1 0.5 4t1.5 6.5t1.5 7t1.5 4.5q0 1 -1 5t-1.5 8.5t-1.5 8.5t-1 5t-1 4.5t-2 4.5q1 2 2 2.5t3 0.5q5 0 7.5 -2.5t2.5 -7v-9.5t1 -9.5t4.5 -7t11.5 -2.5h2t1 2v30q0 11 0.5 24t-1.5 25q-1 1 -2.5 2t-4 1.5t-4.5 0t-3 -0.5h-6q-3 -2 -3.5 -7
t-0.5 -10t-1.5 -8.5t-6.5 -3.5q-1 0 -2 2.5l-1 2.5v0v1q0 1 0.5 3l0.5 2v16q0 14 -2.5 28t-2.5 28q0 2 1 4t4 2q2 0 3.5 -1.5t2.5 -3.5t1.5 -6.5t1.5 -10t1.5 -10t0.5 -6.5v-3.5v-3.5t1 -3.5t4 -1.5h18l0.5 1.5t0.5 2.5v1v2q0 3 -0.5 10.5t-1 16t-1 16t-0.5 10.5
q-1 2 -1.5 4t-0.5 5zM120 246q0 2 1.5 3t3.5 1q1 0 3 -1t2 -3v-32q4 -2 8 -5l8 -6t7.5 -5.5t6.5 -3.5q8 3 16.5 6.5t15.5 7.5q1 9 1.5 19t0.5 19q0 2 1.5 3t2.5 1q2 0 3.5 -1.5l3 -3t2.5 -3.5t1 -4q0 -5 -1.5 -10.5t-1.5 -10.5q0 -3 -0.5 -9t-1 -12.5t-1 -12t-0.5 -8.5
q-2 -19 -3 -38t-2 -39q-3 -3 -6.5 -4.5t-7 -2.5t-7.5 -1h-8q0 -1 -0.5 -2t-0.5 -2h-0.5t-0.5 -1q0 -5 2 -8t5.5 -5t8 -2h8.5q5 -3 6 -6.5t1 -8.5q0 -8 -3.5 -11.5t-8.5 -5t-11 -2t-11 -1.5q-2 0 -5.5 -1t-7.5 -1.5t-6.5 -1.5l-2.5 -1l-2 -1v-14q0 -2 -2.5 -2.5t-3.5 -0.5h-3
t-2 2v3.5v4.5q0 7 1.5 11t3.5 5.5t5 2t5.5 1t4 1.5t1.5 4v1q-1 1 -1 3t-0.5 4l-1 4t-0.5 3q-4 3 -9.5 4t-10.5 1q-3 1 -3 5q0 2 2.5 2.5t4.5 0.5q8 0 12.5 -2.5t8 -6t5 -9t2.5 -12.5h20q4 0 6 4.5t2 7.5t-2.5 4.5t-5.5 2l-6 1t-5 2.5q-3 1 -4 5l-2 8t-2.5 7.5t-3.5 3.5
l-22 5q-1 1 -3 3.5t-2 3.5q-2 8 -3 17.5t-1 19.5q0 9 0.5 18.5t0.5 16.5q-1 18 -3 35.5t-2 35.5zM133 200v-10v-8v-6t0.5 -6.5t0.5 -7.5l5.5 -5.5t7 -6t7 -4.5t6.5 -2q2 0 4 1t4 2.5l4 3t3 1.5l10.5 7.5t5.5 5.5t2.5 8t0.5 15q0 2 -1 5.5t-3 3.5q-3 0 -6.5 -1.5t-7 -3.5
t-6 -4.5l-3.5 -3.5v-18q-1 -3 -2 -7t-5 -4q-1 0 -2 1t-1 3v25l-3 3t-6.5 6l-7 6t-4.5 3t-2 -0.5t-1 -1.5zM134 144v-15q0 -10 1.5 -16.5t5.5 -9t10.5 -3.5t16.5 -1h13q2 1 3.5 3t2 4l1 4t1.5 5v28l-1 0.5t-2 0.5h-1.5h-0.5q-8 0 -12 -3t-5.5 -7.5t-2 -10.5t0.5 -12l-2 -2
l-1 -1h-1q-3 0 -4.5 3t-1.5 5v20l-0.5 0.5t-0.5 1.5q-1 0 -2.5 1.5t-4 3t-4 3t-2.5 1.5l-1 1h-2t-2.5 -0.5t-1.5 -3.5z" />
</svg>
