<?xml version="1.0" standalone="no"?>
<!DOCTYPE svg PUBLIC "-//W3C//DTD SVG 1.1//EN" "http://www.w3.org/Graphics/SVG/1.1/DTD/svg11.dtd" >
<svg xmlns="http://www.w3.org/2000/svg" xmlns:xlink="http://www.w3.org/1999/xlink" version="1.1" viewBox="-10 0 266 256">
   <path fill="currentColor"
d="M146 245q0 3 0.5 4.5t4.5 1.5t5 -2.5t1 -6.5q0 -13 -1 -25t-1 -25v-3v-4.5v-4.5v-4q10 -2 14 -6.5t4 -15.5v-4v-4q-1 0 -2 -1.5t-1 -2.5h-1q-3 0 -3 4v8q0 5 -1 8.5t-6 3.5h-2t-2 -2v-37l2 -5h3.5t5 -1l5 -2t2.5 -3t-3 -2q-2 0 -5 -1t-5.5 -3.5t-2.5 -10.5q0 -6 1 -8.5
t3 -3t4 -1.5t3 -6v-2t0.5 -5t1 -5.5t0.5 -4.5v-3v-4t-0.5 -3.5t-1.5 -3t-3 -1.5t-3 1.5t-2 3.5q1 4 1 8.5t-0.5 9t-3 7t-7.5 2.5q-2 0 -4.5 -2t-2.5 -5v-20q0 -2 -2 -3.5t-4 -1.5h-1l-0.5 0.5t-0.5 1.5v27q0 4 2 6.5t4 4t4 2.5t2 2v23h-20v6h16l3 5v38q0 1 -0.5 1.5
t-1.5 0.5v0h-1v0q-1 -1 -3 -2.5t-2 -2.5v-3v-4v-5v-3q0 -2 -1 -4.5t-4 -2.5l-0.5 0.5t-0.5 1.5v2v3.5v3.5v2q0 12 1 16t3 4.5t5 0.5t5 5v7.5v11.5v12.5v7.5v2t0.5 4.5t0.5 4.5v2l0.5 1l0.5 1q0 4 -1 7t-1 6zM184 208q0 7 0.5 12t2 10t4 10t6.5 11h4q3 0 5.5 -0.5t2.5 -4.5
v-2q-4 -4 -7 -8t-4.5 -8t-2 -9t-0.5 -11q0 -8 2.5 -14.5t6 -12t6 -10.5t2.5 -11q0 -4 -2 -7.5t-5.5 -5.5t-5.5 -3.5t-2 -2.5v-24l0.5 -0.5l0.5 -0.5q0 -1 2 -2t4 -2.5l4 -3l2 -1.5q1 0 2.5 -2t1.5 -3q0 -2 -2 -3.5t-4 -1.5l-2.5 2.5t-6.5 6t-8.5 8.5t-8.5 9t-6.5 7t-2.5 4
l0.5 1l0.5 1h1q2 0 3.5 -1t2.5 -1.5t3 -1t4 -0.5q0 5 -0.5 8.5t-1.5 6.5t-2.5 7t-4.5 9v4q4 0 5.5 -2.5t3 -5.5t3 -5.5t4.5 -2.5h2l2 1t2 2v14q-2 1 -3 3.5t-2 4.5t-2.5 4t-3.5 3q-1 1 -1.5 3.5t-1.5 5.5l-2 6t-1 4v3v3zM42 244v3t2 2q4 0 6 -4.5t2.5 -10.5t1 -14t0.5 -15
t0.5 -12t1.5 -7l14 -15h1h1q2 0 5 1.5t6 3.5t5.5 4t3.5 3q0 1 0.5 4t0.5 5.5t0.5 5.5t0.5 4v0q0 9 -1 17.5t-1 17.5v7q1 2 2 2h2q2 0 3.5 -0.5t0.5 -3.5v-10v-16v-16v-10v-29v-26t-0.5 -26t-0.5 -29q-1 -7 -4 -9.5t-6 -3.5t-5.5 -2t-2.5 -6t2.5 -7.5t5.5 -4t6 -3.5t5 -4
v-3.5v-2.5q0 -9 -2.5 -12.5t-7 -5t-11 -2t-12.5 -1.5q0 -1 -2 -1.5t-3 -0.5h-1q-2 0 -4.5 1t-2.5 4q0 2 1.5 3t3 1.5t2.5 1.5t1 3v1v2q-4 4 -6.5 7l-5 6t-4.5 6.5t-6 7.5v1q0 4 4 4q5 0 9.5 -5.5t9 -12.5t8.5 -12.5t9 -5.5q1 0 3.5 0.5l5 1t4 2t1.5 3.5q0 3 -2.5 4.5t-5.5 3
t-5.5 2.5t-3.5 2q-2 1 -3 4.5t-1.5 6.5t-0.5 6.5v4.5q-3 1 -7 2t-7.5 1.5t-6 3t-3.5 6.5q-1 41 -2.5 81.5t-3.5 80.5v4zM113 245q0 3 0.5 3.5t2.5 0.5q6 0 6 -7v-2v-4v-4v-2q0 -21 -0.5 -42t-0.5 -42v-5v-7v-7v-5q0 -1 0.5 -3.5l0.5 -2.5v-6v-10v-9v-6q0 -2 0.5 -8.5
t0.5 -13.5t0.5 -13t0.5 -9q0 -2 1.5 -3.5t3.5 -1.5q1 0 4.5 -0.5t7.5 -1t7.5 -1t5.5 -0.5q3 0 10.5 -0.5t16.5 -0.5h17h11q0 -1 -0.5 -2t-1 -2.5t-1 -2.5t-2.5 -1h-5h-8h-8h-5q-6 0 -14 -0.5t-15.5 0l-15 1t-14.5 3.5q-1 0 -2 1t-1 2l-2 13v5.5v12t-0.5 16t-0.5 17v16.5v13
v61v60zM55 163v-2v-6.5t0.5 -9.5t0.5 -9.5v-6.5q2 -1 4 -3.5t4.5 -4.5t4.5 -3.5t5 -1.5h1q1 0 3 2l4.5 4.5t5 4t3.5 2.5l0.5 1l0.5 1v35q0 2 -1.5 2h-2.5t-3 -1t-3.5 -2.5t-3 -3.5t-1.5 -3v-22q0 -2 -1.5 -2h-2.5h-1.5t-1.5 2q1 3 1 8.5t-1 11t-3.5 9t-8.5 3.5q-3 0 -3 -5z
M72 75q0 8 -1 15.5t-1 16.5q-1 1 -3 2.5t-3.5 3t-3.5 2.5t-4 1v-6t0.5 -7.5t0.5 -7t1 -5.5q0 -5 0.5 -8t2 -4.5t4 -2t7.5 -0.5zM78 104v-2q0 -2 0.5 -5.5t0.5 -8t0.5 -8.5t0.5 -5h8q1 0 2 5t1.5 11.5t0.5 12v6.5v4t-3 2q-4 0 -7.5 -4t-3.5 -8zM179 104q0 3 3 3h2l20 -22v-1
v-1l-1.5 -1.5l-1.5 -1.5q-2 0 -5 2.5t-6 6.5t-6 7.5t-5 5.5v1v1zM171 79q0 3 3 3h2q1 0 2.5 -1t2.5 -1l22 -18v-1v-1q0 -2 -1 -3.5t-3 -1.5t-6.5 3.5t-9.5 7.5t-8.5 8t-3.5 5z" />
</svg>
