<?xml version="1.0" standalone="no"?>
<!DOCTYPE svg PUBLIC "-//W3C//DTD SVG 1.1//EN" "http://www.w3.org/Graphics/SVG/1.1/DTD/svg11.dtd" >
<svg xmlns="http://www.w3.org/2000/svg" xmlns:xlink="http://www.w3.org/1999/xlink" version="1.1" viewBox="-10 0 266 256">
   <path fill="currentColor"
d="M195 244q0 2 1.5 4.5t3.5 2.5q4 0 5.5 -2.5t1.5 -4.5q0 -7 -2.5 -13.5l-5 -13t-4.5 -12.5t-2 -13v-2v-1q9 -6 12 -15t3 -19q0 -5 -0.5 -9t-2 -8t-5 -6.5t-9.5 -3.5q-1 0 -4 -0.5t-7 -0.5t-7.5 -0.5t-4.5 -0.5l-3 -3v-18l1 -1q1 0 2.5 -1t4 -1.5l5 -1t4.5 -0.5h2.5
t4.5 -0.5t4.5 -0.5h2.5q3 -2 4.5 -5.5t2.5 -7t1.5 -7t0.5 -6.5v-25v-25q-1 -2 -2.5 -2.5t-3.5 -0.5t-3 0.5t-1 2.5v27l-0.5 1t-1.5 2l-2 2h-19l-2 -5v-30q0 -4 -1.5 -6t-5.5 -2h-2.5t-2.5 2v34q0 6 -2.5 8t-6 2.5t-6.5 0.5t-3 3v1l0.5 1t1.5 1h15v24q0 4 -3.5 5t-7.5 2
t-7.5 1.5t-3.5 3.5q0 1 2 2.5t3 1.5h3h4h5h3q2 1 2 3v3v5q0 2 -0.5 5t-1.5 5.5t-3 2.5h-14l-1 1.5t-2 2.5v1v1l0.5 0.5t1.5 0.5h53q3 0 4.5 2.5t2.5 5.5t1 6v4v5t-1 7.5t-2.5 6.5t-4.5 3q-2 0 -3.5 -1.5t-2.5 -3.5l-2 -4t-2 -3q-5 -4 -10.5 -5.5t-11.5 -1.5h-6q-3 0 -7 0.5
t-7 2t-3 3.5q0 4 3 4.5t5 0.5q4 0 8 -1t8 -1q8 0 13 5.5t5 12.5q0 5 -5 8t-11 5t-12.5 3t-10.5 2l-1 1l1 2h3h3h6.5t5 -0.5t5.5 -1t7 -1.5q3 -1 6 -3t6 -2q2 0 3 1.5t1.5 3t1 3.5t1.5 3q0 2 1 7.5t2.5 11t2.5 10.5t2 7zM64 189q0 9 -0.5 16.5t1.5 13t7.5 8t17.5 2.5
q11 0 18 -1.5t10.5 -5.5t4.5 -11t1 -18q0 -7 -0.5 -11.5t-1.5 -10.5q-1 -2 -1.5 -2h-1.5h-2t-2 2v5.5t-1 6.5t-3.5 5t-6.5 1l-3 -3l-2 -2q0 -2 -0.5 -5.5t-0.5 -7t-0.5 -7.5t-0.5 -5q0 -5 2 -6.5t5.5 -2l7 -1t6.5 -4t5 -10t2 -18.5q0 -2 -1 -4.5t-4 -2.5h-2.5t-1.5 2v23
q0 2 -1.5 3t-3.5 2.5t-4 2t-4 0.5q-1 0 -2.5 -1.5t-1.5 -3.5v-43q0 -1 2 -2.5t4.5 -2t4.5 -1t4 -0.5q2 -2 3 -5.5t1.5 -8.5t1 -9.5t2.5 -7.5q1 -2 3 -3t4.5 -1.5t4.5 -1.5t2 -5h-3t-4.5 0.5t-4.5 0.5h-2q-4 0 -14.5 1t-22 1.5t-22 1.5t-14.5 1q-2 2 -2 5q0 1 0.5 2t3.5 1h18
l1 2q0 10 1 15.5t3.5 8.5t5 3.5t5 2t4.5 4t2 8.5q0 2 -0.5 7t-0.5 11t-0.5 11t-0.5 7q-1 2 -3 2h-3q-5 0 -7.5 -2.5t-3.5 -6t-0.5 -8t0.5 -7.5q0 -4 -1 -6.5t-5 -2.5h-2t-2 2v11v4v6t0.5 5.5t1.5 4.5q0 1 1 2t2 2.5t2 2l1 0.5h19v34q0 3 -2.5 4t-5.5 1l-1.5 -0.5l-3 -1
t-2.5 -1t-1 -1.5v-14q0 -2 -2 -3t-4 -1q-4 0 -3 5v17zM72 202q0 -2 4.5 -4t10.5 -2.5t11.5 -0.5h7.5h6q3 1 3 3.5v4.5q0 5 -2 8.5t-5.5 5.5t-8 3t-8.5 1q-9 0 -14 -5.5t-5 -13.5zM166 73q0 -2 0.5 -4t3.5 -3q5 -1 9 -1.5t9 -0.5h2q3 0 3 2v18q0 3 -2 4.5t-5 2.5t-6.5 1h-4.5
q-4 0 -5 -0.5t-1.5 -1.5t-0.5 -3v-5l-0.5 -2t-1.5 -3v-4zM79 66q0 -4 4 -5.5t8.5 -2t8.5 -0.5h5h3t2 1v6q0 10 -3.5 15.5t-14.5 5.5q-4 0 -6.5 -2t-4 -5t-2 -6.5t-0.5 -6.5zM57 31v1q1 0 1.5 0.5l0.5 0.5h2h3.5h3.5h2q6 0 12 -0.5t12 -1.5t12 -1.5t13 0.5q2 -1 2.5 -2
t0.5 -3t-0.5 -3t-2.5 -2h-7q-6 0 -13.5 1t-14.5 2t-13.5 2t-11.5 2l-2 3v1z" />
</svg>
