<?xml version="1.0" standalone="no"?>
<!DOCTYPE svg PUBLIC "-//W3C//DTD SVG 1.1//EN" "http://www.w3.org/Graphics/SVG/1.1/DTD/svg11.dtd" >
<svg xmlns="http://www.w3.org/2000/svg" xmlns:xlink="http://www.w3.org/1999/xlink" version="1.1" viewBox="-10 0 266 256">
   <path fill="currentColor"
d="M51 247q1 2 2.5 2.5t3.5 0.5t4 -1.5t2 -3.5v-102v-12l1 -82v-4q0 -3 0.5 -6t2 -5t4.5 -2q1 0 4.5 1.5t7 4t5.5 5.5t2 5v1q0 1 -0.5 3l-0.5 2l-13 14v5q5 0 8.5 -2.5t5.5 -6t4 -6.5t5 -4q1 0 3.5 2.5t6 5.5t7.5 5.5t8 2.5q0 -4 -3 -6.5t-6 -4.5t-6 -4.5t-3 -6.5
q0 -3 1.5 -6.5t3.5 -6.5t3.5 -6.5t1.5 -7.5q5 -2 7.5 -2h6.5q8 0 16 1.5t16 1.5q3 0 3.5 1t0.5 3q0 4 -4 7.5t-6 5.5h-1h-1q-3 0 -4.5 -2l-3 -4l-3 -4t-3.5 -2h-1q0 1 -0.5 2t-0.5 2q0 3 1.5 5t4 4t4.5 4.5t2 5.5q0 6 -3.5 10t-8.5 8v0v1q0 1 1.5 2.5l1.5 1.5q3 0 5 -2
t3.5 -5t3.5 -6t5 -3h2t1 1l11 11h1h1q2 0 3.5 -0.5t1.5 -2.5t-0.5 -2t-1.5 -1t-2.5 -3t-4 -3.5t-4 -3l-2.5 -2.5v-3q0 -2 1.5 -6.5t3.5 -8.5t5 -6.5t5 -2.5q4 0 6 3q4 17 4 35q0 17 1 34q1 13 2 25.5t2 24.5q1 25 0.5 50.5t2.5 50.5q1 2 2 2.5t3 0.5q6 0 6 -6q0 -9 -1.5 -18
t-1.5 -18q-2 -28 -3 -56l-2 -56v-8.5v-13.5v-13v-8q-1 -4 -1 -9.5t-1 -11t-3 -10t-6 -5.5q-2 0 -5 -0.5t-7 -1t-7 -1t-5 -0.5q-6 -1 -11 -1t-9.5 -0.5t-9.5 -0.5h-11q-9 0 -19 0.5t-19 2t-17 5.5t-15 12q0 1 -1 3l-1 2v89v7l-1 43l1.5 6t1 4.5t0.5 4.5v4q0 10 -1.5 19.5
t-1.5 18.5v3v4v4v3zM92 206q0 12 0.5 19.5t3.5 11.5t10 5.5t19 1.5h4q2 0 4.5 -0.5t3.5 -0.5h2h3t4 -1t4.5 -1.5t3.5 -0.5q6 -2 9.5 -4.5t4.5 -6t1 -7.5v-11v-3v-4v-5v-3q-1 -2 -1.5 -4t-3.5 -2q-2 0 -3 1.5t-1 4t-0.5 4t-2.5 1.5h-16l-3 -3l-0.5 -2.5t-0.5 -3.5
q0 -5 0.5 -8.5t5.5 -5.5l2.5 -1t5 -1.5t5 -1.5t3.5 -1q4 -1 7.5 -5t5.5 -5q0 -1 0.5 -4t0.5 -6t0.5 -6t0.5 -4v-2q0 -2 -1.5 -2.5t-3.5 -0.5v0v0q-1 0 -1.5 0.5t-0.5 1.5q-1 6 -2 11.5t-3.5 9t-6.5 5.5t-11 2q-4 0 -6 -1t-2 -5v-4.5t0.5 -5t0.5 -4.5t1 -3q0 -3 1.5 -4
t3 -1.5t3.5 -1t3 -2.5q4 -3 4 -8.5t1 -9.5q1 -3 5 -5.5t8.5 -4t8 -3.5t3.5 -3q0 -2 -1.5 -2.5t-2.5 -0.5q-7 0 -14 2.5t-14 4.5l-67 5q-2 0 -3.5 2t-1.5 5h33v18q0 2 2.5 3t6 2t6.5 2.5t3 4.5v20l-1 2h-2h-2h-3h-2h-9.5t-7.5 -2q-1 0 -2 -1l-1 -1v-15l-1 -0.5l-1 -0.5
q-1 -1 -3 -1.5l-2 -0.5q-1 0 -1.5 1t-0.5 2v2v1q0 9 2 14.5t6.5 8t10.5 3t14 0.5q1 0 3.5 2t2.5 3v2v3.5t-0.5 5t-1.5 5t-3 2.5h-18l-8 -8l-3 3v3v5zM100 217q0 -1 0.5 -2t1.5 -2q11 -1 21 -1.5t21 -1.5q1 0 2 -0.5t3 -1t3.5 -0.5h1.5q4 1 4.5 3t0.5 4q0 8 -4 12t-9.5 5.5
t-12.5 2t-12 0.5q-10 0 -15.5 -3.5t-5.5 -14.5zM142 113h1l1.5 0.5l1.5 0.5v14q0 2 -2 3.5t-5 2.5t-6 1.5t-4 0.5h-4t-4 -1t-3.5 -1.5t-1.5 -2.5v-13l1.5 -0.5l3 -1l3 -1t2.5 -1.5h2h4.5t5 -0.5t3.5 -0.5h1zM89 91q0 3 3 3h2q3 0 12.5 -1t20 -2t19.5 -2t13 -1q2 -1 3 -2
t1 -3q0 -1 -0.5 -2t-1.5 -2h-3.5h-2.5q-4 0 -7 0.5t-7 3.5q-2 0 -8 0.5t-12.5 1t-12.5 1t-8 0.5h-3t-4 0.5t-3 1.5t-1 3zM82 29v-2t2 -1q6 -3 10 -4t9 -1h3.5t1.5 2t-1 5t-2.5 6t-3.5 5t-4 2t-4.5 -1.5t-4.5 -3t-4 -3.5t-2 -4z" />
</svg>
