<?xml version="1.0" standalone="no"?>
<!DOCTYPE svg PUBLIC "-//W3C//DTD SVG 1.1//EN" "http://www.w3.org/Graphics/SVG/1.1/DTD/svg11.dtd" >
<svg xmlns="http://www.w3.org/2000/svg" xmlns:xlink="http://www.w3.org/1999/xlink" version="1.1" viewBox="-10 0 266 256">
   <path fill="currentColor"
d="M59 248v1q1 0 1 1t1 1q4 0 7.5 -3t7 -7.5t6 -9.5t4.5 -8q0 -2 1 -5.5l2 -7t2 -6.5t1 -4v-2v-4v-4v-3t0.5 -3.5t1 -5.5l1 -6t0.5 -4q2 -2 4 -3.5t4 -2.5t4 -2.5t3 -3.5v-4v-3q0 -8 -2 -12t-4.5 -6.5t-4.5 -3.5t-2 -4q0 -4 2.5 -8.5t2.5 -9.5v-7q1 -5 3.5 -7.5t5.5 -4.5
t5.5 -6t2.5 -13v-8q-3 -1 -5 -4t-3.5 -6.5t-2.5 -7t-1 -5.5q0 -4 1 -6.5t2 -4.5t2 -4.5t1 -5.5q-4 0 -7 2t-5 5.5t-3 7.5t-1 7q0 5 2 9.5t4.5 8.5t4.5 8.5t2 9.5q0 3 -1 6t-5 3t-5.5 -3.5t-3 -7.5l-3 -8t-4.5 -4q-2 0 -3.5 3.5t-2.5 7t-2.5 6.5t-5.5 3q-6 0 -6 -7
q0 -6 1.5 -11.5t4 -11t4 -11t1.5 -11.5q0 -7 -5 -10t-11 -3q0 6 2.5 10.5t2.5 10.5q0 5 -1.5 10t-3.5 9t-3.5 8.5t-1.5 9.5q0 6 2.5 9t5.5 5.5t6 5.5t4 8v3t0.5 4t0.5 3.5v1.5q1 2 2 3.5t2 2.5t2 2.5t1 4.5t-2.5 4.5t-5.5 4t-5 6t-2 8.5v1.5v1.5l0.5 2t0.5 4t0.5 3.5
t0.5 2.5q1 1 3.5 2t5 2.5t4.5 3.5t2 4l-5 37q-1 5 -4.5 10t-7.5 10t-7 9t-3 7zM130 174q1 2 1 5t1 6t2 5.5t4 4.5q2 0 4 1.5t4 2.5t3.5 2l1.5 1h34q3 0 6 -3t5.5 -7.5t3.5 -8.5t1 -8v-53q0 -1 -1.5 -4t-3.5 -5.5t-4 -4.5t-4 -2h-23l-0.5 -2t-0.5 -4.5t-0.5 -5.5t-0.5 -5v-1
v-4v-4v-2v-5v-3l2 -4l26 -3q1 0 3 -1.5t2 -3.5t-1.5 -3t-4.5 -1q-5 0 -10 1t-10 1h-5q-2 -4 -2 -11t-0.5 -14t-1 -12.5t-3.5 -6.5q-3 1 -4 4t-1 7v7.5v5.5q0 8 1 15t1 14v5q0 2 -0.5 7.5t-0.5 11t-0.5 11t-0.5 7.5q-1 2 -4.5 3t-8 3t-7.5 5t-3 8v48zM178 170h1l2.5 2.5
t3 3.5l3 4t1.5 4v1q0 3 -2 4.5t-4 1.5h-4.5t-7 0.5t-6.5 0.5h-4v-6q1 -1 2 -3t3 -5t4 -4q2 -4 8 -4zM142 180v-1q0 -1 1 -3.5t2.5 -5t3 -4.5t1.5 -3q1 -1 2 -3l2 -4t3 -3t4 -1t5.5 1.5t3.5 5.5q0 3 -2.5 8t-5.5 10t-6.5 9t-6.5 4t-5 -3.5t-2 -6.5zM179 159q0 -2 1.5 -4.5
t3.5 -5.5t4 -5t4 -2h1l0.5 0.5t0.5 1.5v22q0 2 -1 3.5t-2 2.5l-12 -13v0v0zM141 131q1 0 3 1.5t4 3.5t3.5 4t1.5 4q0 1 -1 4.5t-3 7t-4 6.5t-4 3t-3 -2t-1 -4v-24l1 -1.5t2 -2.5h1zM77 149q0 -2 1.5 -5t3 -5.5t4 -4t4.5 -1.5q7 0 9.5 4.5t2.5 10.5t-4 8t-9 2h-3h-4
q-2 -2 -3.5 -4t-1.5 -5zM164 142q0 -2 2 -6.5t5 -9t6.5 -7.5t6.5 -3q2 0 3 0.5t2 2.5v6q0 3 -1 7.5t-3 8t-5 6t-6 2.5t-6.5 -2t-3.5 -5zM145 122q0 -4 2.5 -5.5t5.5 -2t6 -0.5h5q3 0 3.5 1t0.5 3t-0.5 5t-2 5.5t-3.5 4.5t-5 2q-1 0 -3.5 -1.5t-4.5 -3.5t-3 -4.5t-1 -3.5z
M82 94q0 -2 0.5 -5l1 -6t2 -5.5t3.5 -4.5q3 6 5 12t2 12q0 1 -0.5 4t-1 5.5t-1.5 5t-3 2.5q-3 0 -4.5 -2.5t-2.5 -5.5t-1 -6v-6z" />
</svg>
