<?xml version="1.0" standalone="no"?>
<!DOCTYPE svg PUBLIC "-//W3C//DTD SVG 1.1//EN" "http://www.w3.org/Graphics/SVG/1.1/DTD/svg11.dtd" >
<svg xmlns="http://www.w3.org/2000/svg" xmlns:xlink="http://www.w3.org/1999/xlink" version="1.1" viewBox="-10 0 266 256">
   <path fill="currentColor"
d="M167 215q0 5 3.5 11t9 11.5t11.5 9t11 3.5q3 0 4.5 -2t1.5 -5t-2.5 -5t-6.5 -3.5t-8.5 -3.5t-8 -4.5t-6 -6t-2.5 -8.5t3 -8t7.5 -5t9.5 -3.5t7 -4.5q7 -9 10.5 -23t5 -29.5t1.5 -30.5v-25v-28q-2 -7 -6 -10.5t-9 -5t-10.5 -2t-11.5 -0.5h-4t-6.5 0.5t-6 1.5t-2.5 3
q0 1 1 2.5t2.5 2.5t2.5 3t1 4q0 29 -2 58t-2 58h2.5t2.5 -2l6 -115q0 -3 2 -4t4 -1q5 0 6 3t1 8v12v14.5t-1 14.5t-2 10v63q4 0 5 -5q0 -1 0.5 -3.5t0.5 -5t0.5 -5t0.5 -3.5v-5v-8v-9v-4v-8.5t0.5 -12.5t1 -14.5t1.5 -14.5t1 -12.5t1 -7.5q0 -1 1 -3t3 -2t4.5 3t2.5 5v22
q0 22 -1 44t-6 44q0 1 -0.5 3t-1 3.5t-1.5 3.5l-1 2q-5 5 -10 8t-10 6.5t-8 8t-3 12.5zM125 232q0 2 0.5 4.5t3.5 2.5h1q1 0 2 -0.5l1 -0.5v-70q0 -2 3.5 -3.5t7 -3.5t7 -5.5t3.5 -9.5v-41q0 -1 -1.5 -1.5t-2.5 -0.5q-2 0 -2.5 1.5l-1 3t0 3t0.5 3.5t-0.5 6.5t-0.5 10
t-0.5 10t-0.5 6.5q0 4 -1 5.5t-5 1.5h-2.5t-1.5 -2t-0.5 -8.5t-0.5 -14t-0.5 -13.5t-0.5 -9v-1v-1q0 -1 0.5 -4t1 -5.5t0.5 -4.5v-2l3 -3h3.5t5.5 -0.5t5 -1t3 -0.5t2 -0.5t2 -0.5v-1q0 -3 -3 -3.5t-4 -1.5h-3t-4.5 0.5t-5 0.5h-2.5v-16q0 -1 1 -2l2 -2l1.5 -0.5l3 -1
t2.5 -1l1 -0.5q2 -1 3.5 -6.5t2.5 -11.5t1 -11.5v-7.5t-0.5 -4.5t-3.5 -2.5h-1l-1.5 0.5t-1.5 1.5q-1 0 -2 1l-1 1v31l-1.5 0.5t-2.5 1.5l-3 1t-4 1h-1q-7 0 -10 -3t-4.5 -7.5t-0.5 -10.5t1 -13q-1 -2 -3.5 -3t-5.5 -1q0 9 0.5 18t1.5 18l3.5 3.5l3.5 3.5q1 0 2.5 0.5l3 1
t3 1.5t1.5 2v17l-3 5h-14l-1 2q0 3 2 3.5t5 0.5h5.5t4.5 1v8q0 15 -1 28t-1 29h-3q-2 0 -4 -2t-2 -5v-38l-1.5 -1l-1.5 -1h-1h-1l-0.5 0.5t-0.5 1.5v12v9v7t0.5 8t0.5 9q2 2 4.5 3.5t5 2.5t4.5 2.5t2 3.5v20q0 12 -1 23.5t-1 22.5zM50 178q0 9 0.5 15.5t2.5 11t7.5 7
t15.5 2.5q3 0 6.5 -0.5t7 -1.5t6 -3.5t3.5 -5.5q1 -2 1 -7.5t0.5 -11.5t0.5 -11.5v-7.5v-2v0q-1 -2 -2.5 -4.5t-2.5 -2.5h-2l-3 10h-10l-1 -1.5l-1 -1.5v-4v-5q0 -5 0.5 -8t1.5 -4t4 -1.5t8 -2.5q2 0 3.5 -6t2.5 -13t1.5 -13t0.5 -9q0 -2 -1 -5t-4 -3l-1 1l-1 1
q0 2 -0.5 5.5t-1 7.5l-1 8t-0.5 5.5t-0.5 3.5l-1 4t-1.5 3.5t-4 1.5q-1 0 -2 -0.5t-1 -1.5q0 -2 -0.5 -6.5t-0.5 -9.5t-0.5 -9.5t-0.5 -5.5v-6q0 -5 1.5 -8t3.5 -5t5 -4t5 -5q0 -2 0.5 -4.5t0.5 -6t0.5 -6.5t0.5 -4q1 -3 3 -4.5t2 -4.5q0 -2 -1 -2.5t-3 -0.5h-1h-9.5
t-14.5 0.5t-15 0.5h-10q-2 1 -4.5 2t-2.5 4v1q1 0 3 0.5l4 1t3.5 1t3.5 1.5v2.5t0.5 4.5t0.5 4t1 3q0 4 4 8t7 6.5t4 2.5v47q0 2 -2 4t-3 2q-3 0 -4.5 -2t-2.5 -5t-1.5 -6t-0.5 -5v-4.5t-0.5 -7.5t-0.5 -7.5v-5.5h-6v41q0 2 3 3.5t7 3t7.5 2t4.5 1.5v3v3q0 2 0.5 5.5t0 7.5
t-2 6.5t-4.5 2.5q-4 0 -5.5 -1.5t-2.5 -3t-1.5 -3t-2.5 -1.5q-1 0 -2 0.5t-2 1.5v3v5v5v4zM59 187q0 -4 2 -8t6 -4h24v23q0 3 -2 4.5t-4.5 2t-5.5 0.5h-4q-9 0 -12.5 -4.5t-3.5 -13.5zM62 53q0 -2 0.5 -4.5t3.5 -2.5h22v16l-1.5 1.5t-3.5 3t-3.5 2.5l-1.5 1q-9 0 -12.5 -5
t-3.5 -12zM56 22q1 0 4.5 -0.5t7.5 -0.5t7.5 0.5t5.5 0.5q1 0 3.5 0.5t3.5 0.5h-2q1 0 3 -0.5t3.5 -1l3 -1t1.5 -2.5q0 -3 -1.5 -5t-4.5 -2h-2q-2 0 -6.5 0.5t-10 1t-10.5 1t-6 1.5q-2 0 -2 1v2v2t2 2z" />
</svg>
