<?xml version="1.0" standalone="no"?>
<!DOCTYPE svg PUBLIC "-//W3C//DTD SVG 1.1//EN" "http://www.w3.org/Graphics/SVG/1.1/DTD/svg11.dtd" >
<svg xmlns="http://www.w3.org/2000/svg" xmlns:xlink="http://www.w3.org/1999/xlink" version="1.1" viewBox="-10 0 266 256">
   <path fill="currentColor"
d="M44 231q0 1 1.5 4t3 7t3 6.5t3.5 2.5h35q2 0 3.5 -1.5t3 -4t2 -5t0.5 -4.5v-50q0 -1 -2.5 -1.5t-3.5 -0.5q-2 0 -3 2t-1.5 4t-1.5 3.5t-3 1.5q-3 0 -6 -1t-3 -4v-1v-1q0 -2 0.5 -6t0.5 -9t0.5 -9.5t0.5 -5.5q2 -5 4.5 -6t5 -1.5t4.5 -1t4 -3t3 -8t1 -16.5v-2v-4v-4v-3
q0 -3 -1 -3.5t-3 -0.5q-3 0 -4 3.5t-1 6.5q0 1 -0.5 4.5t-1 7.5t-0.5 7.5v4.5t-1.5 2t-2.5 2v0h-1t-3 -1t-3 -3q0 -5 -0.5 -8.5l-1 -7t-0.5 -7v-7.5q0 -9 2 -12.5t5 -5.5t5.5 -4t3.5 -10q1 -1 1 -3.5t0.5 -5.5t0.5 -6v-4q1 -3 3.5 -3.5t4.5 -0.5q1 0 2.5 0.5t2.5 0.5v6.5
t0.5 10t1 10.5t0.5 6q1 11 4 17t8 9.5t12 5t16 1.5l2 -0.5t3 -0.5h3.5h2.5q2 1 3 -0.5t1 -2.5t-0.5 -2t-1.5 -2q-2 0 -4.5 -0.5t-5.5 -0.5t-5.5 -0.5t-3.5 -0.5l-2 -1l-2 -1v-22q8 -5 12.5 -11t4.5 -16q0 -5 -2.5 -8t-5.5 -4.5t-6 -2.5t-3 -4q0 -6 1 -10t3 -6.5t6 -3.5t9 -2
v-6q-11 0 -19.5 0.5t-15 3.5t-10 9.5t-4.5 18.5l-2 2h-11.5t-17.5 -0.5t-17.5 -1t-11.5 -0.5h-4q-4 0 -6.5 1.5t-2.5 5.5q0 3 2.5 4t5.5 1.5t6 0t5 -0.5l2 1v27q1 0 2.5 1l3 2t3 3t1.5 3v41q0 4 -0.5 5t-2.5 1q-5 0 -7 -4t-3 -9.5t-0.5 -11t1.5 -7.5q-1 -1 -2 -1.5t-2 -0.5
q-2 0 -4 0.5t-2 3.5v28q0 3 3.5 6t7.5 5.5t7.5 4.5t3.5 3v34q0 2 -3 2.5t-4 0.5q-4 0 -5.5 -1.5t-2.5 -4t-3 -4t-6 -1.5q0 11 1 23.5t1 23.5zM113 238q0 5 1.5 5.5t5.5 0.5q12 0 22.5 -0.5t21.5 -1t22 -0.5h24q2 -1 2.5 -2.5t0.5 -3.5t-2.5 -4t-4.5 -2h-42l-1 -3q-1 0 -1 -2
v-3q0 -5 0.5 -10t5.5 -7q7 -1 15 -2t16 0q1 -1 1 -2v-2v-3.5t-1 -2.5h-33l-1 -0.5l-1 -0.5v-3v-3q0 -6 2 -9t5 -5t7 -3.5t7 -3.5t5 -4.5t2 -7.5q0 -6 -6 -9.5t-14.5 -5t-16.5 -3t-13 -3.5q0 -1 -2.5 -3.5l-2.5 -2.5h-1h-1q-2 0 -3 0.5t-1 3.5q1 0 2 1.5l2 3l2 3l1 1.5
q1 0 1 1q0 4 -2 6.5t-5.5 4t-7.5 3.5t-7.5 4t-5.5 5t-2 7q6 0 11 -2.5t10 -6t9 -8t7 -8.5q0 -1 2 -1h2q6 0 11 1.5t12 2.5l3 3l3 3v1q0 1 -4 4t-8.5 6t-8.5 6t-5 5q0 2 -0.5 4.5t-1 6t-0.5 6v3.5h-25l-1 1t-1 2v1v1l1 1l1 1q3 1 6 1.5t6.5 1t6.5 0.5h5l1 2q0 1 0.5 4t0.5 4
v3v4t-0.5 4.5t-1.5 3.5q-3 -1 -9 -1t-12.5 0.5t-11 2.5t-4.5 5zM53 212q0 -4 2.5 -5.5t6 -2t7.5 -0.5h6h2q2 0 3.5 0.5t3.5 0.5h2q4 1 4.5 2t0.5 3q0 6 -1.5 13t-1.5 13q-3 5 -6 5.5t-8 0.5q-7 0 -11 -2.5t-6 -6.5t-3 -9.5t-1 -11.5zM188 114q0 3 0.5 6t2 5.5t3.5 4.5t5 2
t5 -1.5t2 -4.5t-1 -5t-2.5 -4.5l-3 -5t-1.5 -5.5q0 -7 3.5 -13.5t8 -13t8 -14.5t3.5 -18q0 -3 -0.5 -7.5t-2.5 -9t-4.5 -8t-7.5 -3.5h-22q-4 0 -7.5 4.5t-6 11.5t-4.5 15t-3 15.5t-1.5 14t-0.5 8.5q0 3 -0.5 5.5t0 4.5t2 3.5t5.5 1.5v-22q0 -1 1.5 -3.5t2.5 -2.5h1
q1 1 2.5 1.5t3 1.5t3.5 2l2 1h1h2t2.5 -0.5t1.5 -2.5q0 -4 -3 -6t-7.5 -3.5t-8 -3.5t-3.5 -7v-1h1q0 -1 0.5 -2.5t1.5 -3.5t2 -3.5t1 -2.5h2q4 0 6.5 3t4 6t4 6t5.5 3q2 0 2.5 -1.5t0.5 -3.5q0 -4 -2 -7.5t-5.5 -6t-7.5 -5t-6 -3.5v-1q0 -3 1.5 -4t3.5 -2t4 -1h5l3.5 0.5
l3.5 0.5q4 2 6 4.5t3 5.5t1 6.5v7.5v2v4v3v2q-3 6 -7 12t-7 12t-5.5 12.5t-2.5 13.5zM115 93q0 -5 1 -6t6 -1q2 0 3.5 0.5t2.5 0.5l1 0.5l1 0.5v22q-7 0 -11 -5t-4 -12zM64 68v-4v-4q2 -3 5.5 -3.5t6.5 -0.5q6 0 7 4t1 9v2v4.5t-1 4t-3 1.5h-12q-2 0 -2.5 -2t-1 -4.5
t-0.5 -4.5v-2zM111 66q0 -2 0.5 -3.5l1.5 -4.5q4 -1 6.5 -1.5t4.5 -1t4 -0.5h5q7 0 10 3t3 9q0 4 -1.5 6t-3.5 3t-5 1h-6h-6t-6 -1.5t-5 -3.5t-2 -6zM117 40v-3q0 -3 0.5 -5l1 -4t2.5 -3q0 -1 1.5 -1.5l3 -1l3 -1l1.5 -0.5l1 2v21q0 2 -2 2h-3q-3 0 -6 -0.5t-3 -5.5zM90 17
h-33q-3 0 -4.5 3t-1.5 5q8 0 18 -0.5t19 -1.5l1.5 -1l1.5 -1z" />
</svg>
