<?xml version="1.0" standalone="no"?>
<!DOCTYPE svg PUBLIC "-//W3C//DTD SVG 1.1//EN" "http://www.w3.org/Graphics/SVG/1.1/DTD/svg11.dtd" >
<svg xmlns="http://www.w3.org/2000/svg" xmlns:xlink="http://www.w3.org/1999/xlink" version="1.1" viewBox="-10 0 266 256">
   <path fill="currentColor"
d="M135 248q0 2 1.5 2.5t3.5 0.5h3t2 -2v-16t2 -16l-2 -1q0 -1 0.5 -4.5t1.5 -4.5q0 -1 2 -2t4 -1.5t4 -0.5h4t5 1t3 4q1 10 1.5 20.5t0.5 20.5q0 2 3 2t4 -1.5l3 -4.5q-1 -8 -2.5 -15.5t-1.5 -15.5v-9q1 0 1.5 -0.5t0.5 -1.5q1 0 3 -1.5l2 -1.5q4 -4 6 -6.5t3 -5.5t1 -7
t1 -9v-1v-1q0 -2 -0.5 -7.5t-1 -11.5t-1.5 -11.5t-1 -7.5q-3 -4 -6 -7t-8 -4h-4.5h-5.5h-10.5t-14.5 2t-12 5.5t-5 10.5v50q0 2 2 3t4.5 3t4.5 4.5t2 7.5q0 10 -1.5 20.5t-1.5 20.5zM42 230q3 3 6.5 5.5t7 3.5t8 1h8.5q3 0 8.5 -0.5t11 -2.5t9 -5.5t3.5 -8.5v-48
q0 -2 -1 -2.5t-2 -0.5q-3 0 -4 2t-1.5 5t-0.5 6v4q-1 3 -4 3.5t-6 0.5q-2 0 -3.5 -0.5t-2.5 -3.5v-4v-7v-7v-4t-1 -3t-1 -3v-4q0 -3 1.5 -4t4.5 -2l6 -2t5.5 -4t4.5 -9t2 -16v-1q-1 -1 -1.5 -4t-2.5 -3q-3 0 -4 2.5t-1 6v7.5t-0.5 7.5t-2.5 5.5t-7 1q-1 0 -2 -1.5l-1 -1.5
q-1 -5 -1.5 -8.5t-0.5 -7v-6.5v-8v-9q1 -2 3 -3t4 -2.5t4 -3.5t3 -7v-4.5t0.5 -7.5t0.5 -7.5v-4.5l1.5 -1t3 -1.5t3 -1.5t1.5 -2q0 -3 -3 -4t-5 -1q-12 0 -25 1.5t-26 2.5v2q0 2 1 3.5t2.5 2.5t3 1.5t2.5 2.5q0 1 0.5 3.5t0.5 5.5t0.5 5.5t0.5 3.5q1 6 3.5 9t5 4t4.5 2t2 4
v40q0 1 -2 1.5t-3 0.5q-6 0 -8 -5t-2.5 -11t-1 -11t-3.5 -5q-2 0 -3 1.5t-1.5 3.5t-1 3.5t-0.5 3.5t0.5 6t1 7.5t2 7t3.5 4.5q1 0 3.5 0.5l5 1t4.5 1t3 0.5q1 1 2 1.5l1 0.5q1 9 1.5 15t0.5 14v8q0 1 -0.5 2.5t-1.5 1.5h-15q-3 0 -3 -4v-8t-1 -7.5t-4 -3.5h-3t-1 1v8
q0 12 0.5 23.5t0.5 25.5zM49 208q0 -2 2.5 -3t4.5 -2q2 0 7.5 -0.5l11 -1t10.5 -1t7 -0.5h1h1l0.5 0.5t0.5 1.5v6q0 12 -3 17t-14 5q-6 0 -11.5 -1t-9 -3t-6 -6.5t-2.5 -11.5zM131 182q0 -1 1.5 -2.5l2.5 -2.5q9 -2 16 -2h16h3h5h5h3q1 2 1.5 4t0.5 5q0 4 -3 6.5t-6 4.5h-3
h-4.5h-4.5h-3h-8t-10 -1t-8.5 -3.5t-3.5 -8.5zM178 151h1q1 0 4.5 1.5t4.5 1.5v3q0 3 -1.5 5.5t-3.5 4.5h-8.5t-12 0.5t-12.5 0.5h-8h-4h-2h-2h-2t-1 -1v-13l2 -0.5t4 -1.5h9.5t11.5 -0.5t11.5 -0.5h8.5zM131 142q0 -5 4.5 -8t11 -4.5t12.5 -1.5h9q5 0 10 3t5 9v2t-2 2h-8.5
t-13 0.5t-12.5 1t-9 0.5h-3q-2 0 -3 -1t-1 -3zM172 94v1q1 0 1.5 0.5l0.5 0.5q1 1 4.5 3.5t7.5 5t7.5 5t4.5 2.5q3 3 5.5 4.5t6.5 1.5q3 0 5 -1.5t2 -4.5t-5.5 -6.5t-12.5 -6l-14 -5t-9 -3.5h-1h-1l-0.5 1t-1.5 1v1zM114 112q1 2 3 2h3q5 0 10.5 -3t11 -7.5t10 -9t8.5 -6.5
l1.5 -1.5l0.5 -0.5v-76q-2 0 -5 2t-3 4v65l-2 2l-4.5 4.5l-5 5t-4.5 3.5q-3 3 -6 4.5t-6.5 3t-6.5 3.5t-5 5zM61 86v-23q0 -1 2.5 -2t5.5 -2t6 -1h4h3t2 2v5v5v3v3.5v2.5v2l-1 3t-1 4l-1 0.5l-1 0.5h-15zM116 26v4v6.5v6.5v4v8q0 6 1 11.5t3 10t6 4.5h21l0.5 -1.5t0.5 -2.5
l-0.5 -0.5l-0.5 -0.5h-16q-2 -1 -4.5 -3t-2.5 -5q0 -4 4 -7q1 1 5 1.5t5 0.5h2h4.5t2.5 -3q0 -1 -0.5 -3t-1.5 -2h-20v-12h22q1 0 1.5 -1.5t0.5 -2.5v-1q0 -1 -1 -1q-1 -1 -4.5 -1.5t-5.5 -0.5l-2 1t-3 1h-3q-4 0 -5 -2t-1.5 -4t-2 -3.5t-5.5 -1.5zM174 78v1l1 0.5t1 1.5h4
h4q4 0 7.5 -0.5t6 -1.5t4 -3t1.5 -6q0 -1 0.5 -4.5t0.5 -7.5t0.5 -7.5t0.5 -4.5v-10v-3v-4.5t-1 -4t-3 -1.5t-3 1.5t-1.5 3t-1.5 3.5t-2 2t-4 0.5t-6 0.5t-5.5 0.5t-3.5 0.5l-1.5 0.5t-1.5 1.5h-0.5t-0.5 1l1 1l0.5 1l0.5 1h21q3 0 3 3v5v3t-1 3q-1 -1 -4 -1h-5h-5
q-3 0 -4 1q-2 0 -2.5 0.5t-0.5 2.5q0 1 0.5 2t1.5 1h19l1 3t0 4q-1 4 -4.5 5.5t-7.5 1.5t-7 0.5t-3 2.5zM55 30v2t1 1h8h6h6t6 -0.5t7 -0.5q0 -1 1.5 -3t1.5 -3v0v-1q0 -2 -2 -2h-3h-6t-11 0.5t-10.5 2t-4.5 4.5z" />
</svg>
