<?xml version="1.0" standalone="no"?>
<!DOCTYPE svg PUBLIC "-//W3C//DTD SVG 1.1//EN" "http://www.w3.org/Graphics/SVG/1.1/DTD/svg11.dtd" >
<svg xmlns="http://www.w3.org/2000/svg" xmlns:xlink="http://www.w3.org/1999/xlink" version="1.1" viewBox="-10 0 266 256">
   <path fill="currentColor"
d="M182 174q2 0 4 4t3.5 9.5t3.5 12.5t3 13t2 11t2 8q0 1 0.5 3.5t1 6t1 6t0.5 3.5h3q4 0 4.5 -1t0.5 -5q0 -7 -1 -14t-3 -14t-4 -14.5t-3 -13.5q-1 -4 -3 -7.5t-2 -8.5q0 -2 2 -4.5t5 -5t5 -7t2 -10.5q0 -14 -4.5 -20t-12.5 -8.5t-17.5 -2.5h-19.5h-3h-4.5t-4.5 0.5t-2 2.5
q0 1 0.5 3t1.5 2h41q4 0 7.5 2.5t5.5 6.5t3 8.5t1 8.5t-2.5 8t-6.5 4q-2 0 -4 -1.5t-3.5 -4t-3 -4.5t-2.5 -3q-6 -4 -13 -4.5t-14 -0.5h-11l-0.5 0.5t-0.5 1.5v1v0q1 2 2 3l1 1h26q1 0 3 2l4 4t3 4.5t1 3.5v4t-3 2h-35q0 1 0.5 4t2.5 4h3h4q8 0 15.5 -2t14.5 -2zM72 246
q0 1 2 1.5t3 0.5q4 0 6.5 -4t3.5 -9t1.5 -10t1.5 -8q0 -2 0.5 -5.5t1.5 -7t1.5 -7t0.5 -5.5l0.5 -2l1 -4t0.5 -4v-3q0 -2 0.5 -5.5t0.5 -7.5t0.5 -7t0.5 -4v-28q3 -2 5.5 -4t6.5 -2q3 0 4 4t1 7v57q0 2 1 2.5t3 0.5q3 0 3.5 -2t1.5 -4v-4v-5v-6v-3q0 -13 -1.5 -25.5
t-0.5 -25.5q-1 -2 -3.5 -4.5t-5.5 -2.5h-1l-1.5 1t-3 2.5t-3 2.5l-1.5 1h-1h-1l-1.5 -1l-1.5 -1v-7v-11v-11v-7q0 -6 -2 -11t-2 -11v-3l0.5 -1t1.5 -2.5t1.5 -3l0.5 -1.5v-2.5v-5t1 -4.5t4 -2h24q2 0 2.5 -1t0.5 -3v-1.5t-1 -1.5h-75q-2 0 -2 2v2v2.5t2 1.5h37q0 14 -8 26.5
t-19 21.5l-5 2.5l-6 3t-5 4t-2 5.5q4 0 7.5 -2t6.5 -2q1 0 2 0.5t2 1.5q0 1 0.5 3t1.5 4.5t1.5 4.5t1.5 3v0v1q-3 1 -7 3t-7.5 4.5t-6 5.5t-2.5 6q4 0 6.5 -0.5t4.5 -1.5t4 -3t4 -6q4 3 4.5 7t0.5 7v6q-2 4 -7 7t-9.5 6.5t-8 8t-3.5 9.5h4l1.5 -1t3 -2.5t3.5 -3t3 -2.5
q8 -8 14.5 -13.5t14.5 -11.5h4v36q-3 7 -4.5 14t-2 14.5t-2 14.5t-2.5 14q-1 1 -2 3.5l-2 5l-2 5t-1 3.5v0v1zM77 128v-3v-3v-4.5t1 -5t3 -4t5 -1.5v0q1 0 2.5 1l1.5 1v14q0 1 -2.5 3.5t-4.5 3.5q0 1 -1.5 1.5l-1.5 0.5q0 -1 -1.5 -2t-1.5 -2zM70 91q0 -3 1.5 -6t4 -6t5 -5
t5.5 -2q1 0 2 0.5t2 1.5v4.5v3.5q0 3 -0.5 6.5t-2 6.5t-4.5 5t-7 2q-2 0 -3 -1t-1.5 -3l-1 -4t-0.5 -3zM151 91q1 3 4.5 4.5t9 2.5t11.5 1h11h10h7h2h3.5t3 -0.5t1.5 -2.5v0q0 -1 -0.5 -2t-0.5 -2h-9t-13 -0.5t-13 -0.5h-9q-2 -1 -4 -1t-4 -1t-3.5 -2.5t-1.5 -3.5
q0 -9 3.5 -12.5t9 -5t11.5 -2t11 -1.5t8.5 -4t3.5 -10v-5t-1 -5.5t-2.5 -4.5t-4.5 -2h-44q0 -2 0.5 -5.5t0.5 -7t-1.5 -5.5t-5.5 -2q0 8 -1.5 15.5t-4 14t-6.5 12.5t-9 13l-0.5 0.5t-0.5 1.5q0 3 4 3q5 0 8 -5t5.5 -11.5t5.5 -11.5t7 -5h39q3 0 3 3v5q0 5 -3 7t-8 3t-11 1.5
t-10.5 2.5t-8 7.5t-3.5 14.5v9z" />
</svg>
