<?xml version="1.0" standalone="no"?>
<!DOCTYPE svg PUBLIC "-//W3C//DTD SVG 1.1//EN" "http://www.w3.org/Graphics/SVG/1.1/DTD/svg11.dtd" >
<svg xmlns="http://www.w3.org/2000/svg" xmlns:xlink="http://www.w3.org/1999/xlink" version="1.1" viewBox="-10 0 266 256">
   <path fill="currentColor"
d="M59 242q0 2 1 3t3 1h3q11 -10 17 -24.5t10 -31t5.5 -33t1.5 -29.5v-4v-6t0.5 -6t1.5 -5t4.5 -2.5t5.5 -0.5q4 0 5.5 1t1.5 5v4l-8 75q-1 3 -2.5 7t-3.5 8.5t-3 8.5t-1 7q5 0 9 -7t7 -17.5t4.5 -23.5t3 -25.5t2 -22t0.5 -13.5q0 -6 -3.5 -10.5t-9.5 -4.5h-3l-2.5 0.5
t-3.5 0.5l-1.5 -0.5l-1.5 -0.5q1 -14 -1 -26t-2 -24v-4q0 -2 1 -4q2 -1 4 -3.5t4.5 -5t4 -4.5t2.5 -2h17v-8q-19 0 -36.5 1t-35.5 3q-2 0 -2 1v2q0 3 2.5 4t4.5 1q8 0 16 -1.5t16 -1.5h2t1 2q0 3 -3.5 6t-9 7t-11.5 7.5t-11.5 6.5t-9 6t-3.5 4q0 3 1.5 3h3.5q3 0 6.5 -1.5
t7 -4l7 -5t5.5 -3.5q1 -1 2 -1h1q3 0 4.5 1.5t2 4t0.5 5.5v4v3.5v3.5q-2 2 -5.5 4t-8 4.5t-9.5 5t-9.5 5t-7.5 5t-3 4.5q0 3 1 4t4 1q4 0 9 -3.5t9.5 -7.5t9 -7.5t7.5 -3.5q2 0 3 1t1 3v4v3q0 5 -2 10t-5.5 9t-8 7.5t-7.5 6.5l-2 2q-3 7 -7.5 14.5t-8.5 15t-6.5 15.5
t-2.5 16v4.5v4.5q1 1 2 1.5l1 0.5h0.5h0.5h1q0 -1 0.5 -2t0.5 -2l0.5 -2t0.5 -4t0.5 -4t0.5 -2.5t2 -2.5t3 -2v-2t0.5 -2.5t0.5 -2.5v-2q2 -6 5 -13t6.5 -13.5t7.5 -12t9 -10.5q1 0 2 -0.5l1 -0.5q1 0 2.5 2.5l1.5 2.5v4.5v5.5v5v4q0 1 -0.5 2t-1.5 2.5t-1.5 2.5l-0.5 1
q-2 10 -3.5 19.5t-4 18.5t-6 18t-7.5 18q-2 3 -5.5 6t-3.5 8zM146 174v9.5t0.5 14t2 15.5t4 14.5t6.5 10.5t10 4q0 -3 -1 -6t-3 -5.5l-4 -5t-3 -5.5q-1 -4 -2.5 -10.5t-2 -13.5l-1 -14t-0.5 -11q0 -2 1 -6t2.5 -7.5t4 -6t5.5 -2.5q1 0 2.5 3.5t4 9t4.5 12t4.5 12.5t4 11
t1.5 6q1 4 2 9.5t3 11t5 9t9 3.5h3.5t1.5 -3v-1v-1q-5 -4 -7.5 -8t-4 -9t-2.5 -10t-3 -10.5t-4.5 -11t-4.5 -11t-3.5 -11t-1.5 -11.5q0 -3 1 -5.5t2.5 -4.5l3 -4t2.5 -5v-2v-3q0 -2 2.5 -3.5t5.5 -2.5t5.5 -2.5t3.5 -2.5q2 -3 2.5 -7.5t2.5 -7.5v-7t0.5 -10.5t0.5 -10v-6.5
v-3v-10t-1 -11.5t-3 -10t-6 -6.5q-5 -2 -10.5 -3t-10.5 -1q-4 0 -6.5 0.5l-5 1t-6 1.5t-7.5 2q-2 2 -3.5 5l-2.5 5q-1 8 -1.5 13.5t-0.5 11v10.5v13v3v6v5v4q1 1 1.5 3.5t1.5 5.5t2 5.5t3 2.5h21q1 0 2 1t1.5 2.5t0.5 3v2.5q0 5 -2.5 7.5t-6 4.5t-8.5 4.5t-8.5 6t-6 9
t-2.5 15.5zM155 99q0 -3 0.5 -6t4.5 -4q2 0 7 -1t10.5 -1.5t10 -1t6.5 -1.5h2q2 0 3.5 2.5t1.5 4.5l-1 1l-1 1v13q0 2 -2 3t-4.5 2t-5 1h-3.5h-9t-9.5 -1t-7.5 -3.5t-3 -8.5zM155 74v-6t2 -5q9 -3 18 -4t18 -1h3h3l2 1v3v4v6t-2 7q-5 1 -9 1t-7.5 0.5t-7.5 0.5h-8
q-5 0 -8.5 -0.5t-3.5 -6.5zM181 29q9 0 14.5 4t5.5 14q0 3 -3 3.5t-4 1.5h-3h-5h-4h-3h-5t-6.5 0.5t-6.5 0.5h-4v-5q0 -12 6.5 -15.5t17.5 -3.5z" />
</svg>
