<?xml version="1.0" standalone="no"?>
<!DOCTYPE svg PUBLIC "-//W3C//DTD SVG 1.1//EN" "http://www.w3.org/Graphics/SVG/1.1/DTD/svg11.dtd" >
<svg xmlns="http://www.w3.org/2000/svg" xmlns:xlink="http://www.w3.org/1999/xlink" version="1.1" viewBox="-10 0 266 256">
   <path fill="currentColor"
d="M189 249l2 0.5t2 1.5h1h1q1 -1 2.5 -3t1.5 -4q0 -3 -4.5 -5.5t-9.5 -5.5t-9 -7t-4 -10v-6.5t1 -9t2.5 -7.5t4.5 -3t5.5 2.5l5.5 5.5t5.5 6.5t3.5 4.5h1.5h0.5q3 0 3.5 -1t0.5 -3v-1v-1q-1 -2 -4.5 -6t-7.5 -8.5t-7.5 -7.5t-6.5 -3q-5 0 -7.5 3.5t-4 8t-2.5 8.5t-4 4
q-2 0 -3.5 -4t-3 -9t-3.5 -9t-7 -4h-2q-4 4 -7.5 8.5t-6.5 10.5t-4.5 11.5t-1.5 11.5v3q0 3 2 3q4 0 6 -3t3 -7.5t1.5 -9.5t1.5 -9.5t3 -7.5t5 -3q2 0 3 2.5t2 6t1.5 6.5t1.5 4t2.5 3.5l1.5 2.5q2 3 3.5 6.5l3 7t3.5 6.5t5 6q1 1 3.5 3l5 4l5 4t3.5 3zM60 195q0 5 5.5 8
t12.5 5t14 2.5t10 0.5t6.5 -1.5t3.5 -4.5q0 -2 -0.5 -2.5t-2.5 -0.5q-1 0 -3.5 -0.5t-5 -0.5h-4.5h-3q-4 -2 -4.5 -6t-0.5 -7q0 -4 2.5 -5.5t5.5 -2t6 -1.5t5 -4q4 -8 3.5 -17t-0.5 -17v-8q1 -3 -1 -3h-3h-2h-1q0 2 -0.5 6.5t-0.5 10t-0.5 10t-0.5 6.5q0 4 -2 8t-6 4
q-1 0 -2 -0.5t-1 -1.5v-53q0 -1 -1 -3.5t-3 -2.5v0l-2 2l-1 1v12.5v18.5v18.5v12.5q0 1 -0.5 3t-0.5 4.5t-0.5 5t-0.5 3.5q0 2 -0.5 2.5t-2.5 0.5h-3t-3.5 -0.5t-2.5 -1.5t-1 -3v-6t-0.5 -10t-0.5 -10v-7v-3v-4v-3t0.5 -5t0.5 -5v-3v0q0 -4 -1.5 -5.5t-5.5 -1.5l-0.5 0.5
l-0.5 0.5q-1 6 -1 9.5t-0.5 6.5t-0.5 7v7v8t0.5 8t0.5 8t1 10zM133 150q0 6 2 9.5t5.5 5t8.5 1.5h10h13.5t7.5 -1.5t4.5 -5.5t2.5 -12h1q0 -5 -5 -7t-11 -3t-12 -1h-8q-5 0 -10.5 1.5t-8.5 5.5v7zM140 152q0 -4 2 -6t5 -2.5t6 -0.5h6h8t9 1q1 2 1.5 3.5t0.5 3.5q0 4 -3 6
t-7 2.5t-9 0.5h-6q-5 0 -9 -1t-4 -7zM162 111q1 1 3.5 2.5t5.5 3.5t5.5 3.5t3.5 2.5q5 3 8.5 6.5t9.5 3.5q1 0 3.5 -0.5t2.5 -2.5q0 -3 -6.5 -6.5t-13.5 -7.5t-13 -6.5t-6 -3.5q-1 -1 -1 -2v-3v-1t1 -2l20 -4q1 0 2.5 -2t2 -4t0.5 -4.5v-3.5q0 -3 -1 -6t-5 -3h-0.5h-0.5
l-3 15q0 1 -2 2t-4.5 1.5t-4.5 1t-3 0.5l-1 -4v-22q4 1 9.5 0t9.5 -4t7 -6.5t3 -9.5q0 -7 -3.5 -10.5t-8.5 -4.5t-10 -1q-6 0 -12 -1h-4h-6q-7 0 -11.5 0.5t-7 2.5t-4 6.5t-1.5 11.5v1l0.5 2l0.5 2q1 1 2.5 2l3 2t2.5 2t2 1l2 0.5t4 0.5t3.5 0.5t2.5 0.5q2 0 5 1l3 1v23
q0 2 -2 2h-2q-7 0 -10 -2.5t-4 -6t-1.5 -6t-3.5 -2.5h-3t-1 3l0.5 1.5t1 3.5t1 3.5t0.5 2.5t0.5 2.5l0.5 1.5q2 3 5 3.5t6.5 1t6.5 1.5t3 4q0 4 -6 6.5t-13 5.5t-13 6.5t-6 7.5v0v0q0 1 0.5 1.5t1.5 0.5v0q6 0 11 -3t9.5 -6l9 -6t10.5 -3h1h2zM50 117q0 2 1 2h3h3
q5 -4 11.5 -8.5t11.5 -9.5h1h1q5 0 8.5 2.5t7 5.5t6 5.5t5.5 2.5h0.5h0.5l1 -0.5t2 -0.5q1 -4 -3 -7t-8.5 -6t-9 -5.5t-4.5 -6.5v-3l0.5 -2t0.5 -4.5t0.5 -4.5t0.5 -3q2 -4 6 -5t7.5 -2.5t6.5 -5.5t3 -15q0 -2 -2 -4t-5 -2v0q-2 3 -2.5 7t-1.5 7.5t-3 5.5t-7 2v-5.5
t-0.5 -7.5t-0.5 -7v-5t0.5 -3t1.5 -3q1 -3 3 -4.5t4 -2.5t4 -2.5t2 -4.5q0 -2 -1.5 -2.5t-3.5 -0.5q-3 0 -7 2t-7 5t-5 6.5t-2 6.5v4t1 3v23q0 3 -4.5 3.5t-10.5 1t-10.5 1.5t-4.5 5t1 4.5t4 0.5q5 0 9.5 -1.5t10.5 -1.5q4 0 4.5 0.5t0.5 5.5q0 7 -5 11.5t-10.5 8t-10.5 6.5
t-5 8zM153 35q9 0 12.5 5t3.5 14q0 2 -1.5 2.5t-3.5 0.5q-4 0 -6 -2.5t-3 -6t-1.5 -7.5t-0.5 -6zM133 47v-4t1 -3.5l2 -3t4 -1.5q2 0 3.5 2.5l3 5t2 5.5t0.5 5t-1.5 2.5t-3.5 0.5q-1 0 -3 -1l-4 -2t-3 -3t-1 -3zM172 40q0 -2 1 -2.5t3 -0.5q3 0 6.5 2t3.5 5q0 4 -2 6.5
t-5 2.5q-2 0 -3 -1.5t-2 -3.5t-1.5 -4t-0.5 -4z" />
</svg>
