<?xml version="1.0" standalone="no"?>
<!DOCTYPE svg PUBLIC "-//W3C//DTD SVG 1.1//EN" "http://www.w3.org/Graphics/SVG/1.1/DTD/svg11.dtd" >
<svg xmlns="http://www.w3.org/2000/svg" xmlns:xlink="http://www.w3.org/1999/xlink" version="1.1" viewBox="-10 0 266 256">
   <path fill="currentColor"
d="M115 244q0 3 2.5 4.5t4.5 2.5h8q18 0 36.5 -1t36.5 -3q2 0 3.5 -1t1.5 -3t-0.5 -2.5l-1.5 -1.5h-4.5h-4.5h-5.5h-3.5h-14t-21.5 0.5t-21.5 0.5t-14 1q-1 0 -1.5 1t-0.5 2zM55 157q-3 0 -3.5 0.5t-0.5 4.5v70q0 4 3 6.5t7 4t9.5 2.5t10.5 1h8.5h5.5h4.5t4.5 -0.5t3.5 -1.5
t1.5 -5l-0.5 -1.5l-0.5 -1.5l-3 -2h-20q-2 0 -2.5 -1.5l-1 -3t-0.5 -3.5v-2q0 -6 2 -9.5t5 -5.5t6.5 -3t6 -2t4 -3.5t1.5 -6.5q0 -2 0.5 -7.5t0.5 -12t0.5 -12t0.5 -7.5v-1v-1q-1 0 -2.5 -2t-2.5 -3l-2.5 5t-1.5 4t-0.5 5t-0.5 9t-0.5 9t-0.5 5q0 2 -1 5t-2.5 5t-3.5 4t-4 2
h-1v-1q-1 0 -1.5 -1.5l-0.5 -1.5v-14q0 -10 1 -19.5t1 -19.5q0 -3 -1.5 -3.5t-4.5 -0.5h-1.5h-1.5q-2 22 -2 44t-2 45q0 2 -2 2h-2q-2 0 -3.5 -0.5t-2.5 -1.5q-1 -3 -1 -9.5t-0.5 -15t-0.5 -16.5t-0.5 -15.5t-2 -11.5t-2.5 -4zM129 212q1 2 2 4.5t2.5 4.5t3.5 3.5t5 1.5h33
q5 0 8 -4.5t4.5 -10.5t1.5 -12v-9t0.5 -6t0 -6.5t-1.5 -6.5t-3 -4q-8 -2 -14 -2h-13h-15q-5 2 -8 6.5t-4 10t-1.5 11t-0.5 10.5v4.5v4.5zM137 206l-0.5 -2.5t1.5 -3.5q9 0 16.5 -0.5t15.5 -0.5h5q1 0 3 0.5l2 0.5v12q0 2 -3 3t-7 1.5t-7.5 0.5h-4.5h-6t-7 -1t-5.5 -3
t-2.5 -7zM180 182q0 3 -2 5t-4.5 2.5t-5.5 0.5h-5q-1 0 -5 0.5t-8 0.5h-8h-5q0 -2 0.5 -5t2 -6t3.5 -4.5t5 -1.5h27q3 0 4 3t1 5zM134 147q4 1 8 1.5t7 1t6 0.5h6h12.5t12.5 -2t10 -6t5 -12q0 -1 0.5 -4t1 -7.5t1 -8.5t1.5 -7v-1q0 -5 -3 -8.5t-6.5 -6t-8 -3.5t-7.5 -1h-7
h-11t-12.5 1t-11.5 3t-8.5 5.5t-3.5 8.5v37q0 3 3 5.5t5 3.5zM76 106l-1.5 1.5l-0.5 0.5q0 1 -1 2t-1.5 3t-1 3.5t-1.5 1.5q-2 3 -6 6t-8.5 6.5t-7 7.5t-2.5 9h7l5 -5t6.5 -7t6.5 -7t4 -5q2 -2 3 -2.5t3 -0.5h2q0 1 2 3l4.5 4.5l4.5 4.5t2 3q1 0 2 1.5t2 3.5t2.5 3.5
t2.5 1.5q2 0 5.5 -2t3.5 -5v-1h-1l-26 -29l-0.5 -1.5l-0.5 -1.5l-0.5 -2t-0.5 -4.5t-0.5 -5t-0.5 -4.5v0v-1q0 -1 1.5 -3l1.5 -2l22 -7q2 0 2.5 -2l1 -4t0.5 -4v-3t0.5 -3.5t0.5 -5t0.5 -5t0.5 -3.5q-1 -2 -2.5 -3t-2.5 -1h-2t-1 1q-1 4 -1.5 9.5t-2 10t-4.5 7.5t-8 3
q-3 0 -5 -1.5t-2 -4.5q0 -9 1.5 -16.5t5 -13t9 -9t13.5 -4.5q1 0 1.5 -2t0.5 -3l-2 -2l-3 -3h-1q-2 0 -7 2.5t-10 5.5t-9 6.5t-5 5.5q-2 6 -2 11.5v11.5v11.5t-1 10.5q-5 1 -10 1.5t-9 2t-6.5 4t-2.5 8.5q3 0 6 -1t6 -2.5t6 -2.5t6 -1t4 1t1.5 3t0.5 4v4v6zM138 140
q-2 -1 -3 -4t-1 -6v-6v-6q0 -11 3 -17t8 -8t13 -2h17h2.5h3.5h3.5h1.5q2 1 3.5 2.5l2.5 2.5q0 1 0.5 3.5t0.5 5t0.5 5t0.5 3.5v3q0 10 -2 15t-6 7.5t-9.5 3t-13.5 0.5h-12.5t-12.5 -2zM147 114q0 9 4 12.5t12 3.5q9 0 14 -4t5 -13v-3.5v-3.5q-3 -1 -6.5 -3t-6.5 -2t-6.5 0.5
t-7 2t-6 4t-2.5 6.5zM155 116q0 -5 4.5 -6.5t8.5 -1.5q3 0 4.5 2.5t1.5 5.5q0 2 -1.5 3.5t-3.5 2l-4 1t-3 0.5q-7 0 -7 -7zM166 53q6 0 10 2.5t8.5 6t9 6.5t10.5 3q3 0 5 -0.5t2 -4.5t-6.5 -7.5t-14.5 -6.5t-14.5 -5.5t-6.5 -5.5v-2q0 -1 0.5 -3.5t1.5 -6t1.5 -6.5t0.5 -5
q0 -3 -3.5 -4.5t-5.5 -1.5t-3.5 1.5t-2.5 3.5q0 1 0.5 4t0.5 6t0.5 5.5t0.5 3.5v1v1q0 3 -3 5.5t-7.5 5t-10 4.5t-10 4t-7.5 5t-3 6q0 1 1 1.5t2 0.5h2q5 0 10 -3l10 -6t10.5 -5.5t11.5 -2.5z" />
</svg>
