<?xml version="1.0" standalone="no"?>
<!DOCTYPE svg PUBLIC "-//W3C//DTD SVG 1.1//EN" "http://www.w3.org/Graphics/SVG/1.1/DTD/svg11.dtd" >
<svg xmlns="http://www.w3.org/2000/svg" xmlns:xlink="http://www.w3.org/1999/xlink" version="1.1" viewBox="-10 0 266 256">
   <path fill="currentColor"
d="M87 176v70q0 2 1.5 3t2.5 1q2 0 3.5 -1t1.5 -3v-68l2 -2h3t4 -0.5l4 -1t3 -0.5h3.5t4.5 -0.5t4 -2t2 -3.5l-0.5 -1t-1.5 -1l-1 -0.5t-2 -0.5h-23l-0.5 -1.5t-1.5 -2.5v-7q0 -6 2 -8.5t5.5 -4l7 -3t7.5 -6.5q3 -3 3.5 -8t2.5 -8v-26q0 -7 -4 -10.5t-9.5 -6t-10 -4.5
t-4.5 -5v0q1 -2 1 -4.5t0.5 -5t0.5 -4v-1.5l3 -4q1 0 3.5 0.5t5.5 0t5.5 -1.5t2.5 -4v-3t-3 -1h-3h-5h-5h-3l-2 -2v-22h-3t-3.5 1l-3 2t-1.5 3v18q0 1 -2 1h-4h-4h-3q-1 0 -3 0.5t-4.5 0.5t-4 0.5t-2.5 0.5v1v2v1.5t1 1.5h27v23q0 1 -2 2t-3 2h-1.5t-3 0.5t-3 0.5h-1.5l-3 3
l-4.5 4.5t-4 4.5t-2.5 3q-2 2 -2.5 3.5t-0.5 2.5v3.5v4.5q0 1 -0.5 2.5t-0.5 3t-0.5 3l-0.5 1.5q1 12 6.5 18t11.5 9t11.5 3.5t5.5 2.5v22h-35l-2 2.5t-3 3.5v1q0 3 3 3.5t5 0.5q7 0 14.5 -1t15.5 -1zM190 50q0 5 -1.5 7.5t-3.5 3.5t-6 1h-8q-8 1 -15.5 3t-13.5 7
q-2 1 -4.5 3.5l-2.5 2.5v167q0 1 1.5 1h1.5q3 0 4.5 -2t2.5 -5v-4v-5.5v-6.5v-5q0 -10 -1 -19.5t-1 -20.5q0 -5 1 -9.5t1 -9.5q0 -6 -1 -11.5t-1 -10.5v-4t2 -3q8 0 12.5 2.5t8 7t6 10t4.5 11.5v1q0 3 -4 4t-9 2t-9 2t-4 4q0 1 1 2t2.5 1.5t2.5 0.5h3q4 0 7.5 -2t7.5 -2
q5 0 7 4.5t2.5 11t1.5 12.5t4 10l6 34l1 0.5l1 0.5q4 0 6 -3.5t1 -7.5l-0.5 -1.5l-1 -3l-1 -3l-0.5 -1.5q-2 -9 -3 -17t-3 -16q-2 -6 -4.5 -11t-2.5 -12q0 -1 0.5 -2l0.5 -1l0.5 -1.5t2 -2.5t2.5 -2.5l1 -1.5q0 -1 0.5 -2.5t1 -4t1 -4.5t0.5 -4q0 -1 0.5 -3t0.5 -3.5v-3
v-2.5l-0.5 -2.5t-0.5 -3.5q-2 -11 -3 -17t-3.5 -9.5t-8 -4t-16.5 -0.5h-3h-4h-3.5h-2.5q-2 0 -2.5 1t-0.5 2q0 4 6 5t13 2t13 3.5t6 7.5v33q0 1 -2.5 4t-3.5 3t-2 -3t-2 -7t-3 -9t-6 -8.5t-10 -6t-15 -1.5l-2 -1v-7v-8.5v-9t0.5 -8.5t2.5 -8q2 -5 7 -6t11 -1h13t12 -2
t8.5 -7t3.5 -14v-5v-4q-2 -5 -6.5 -6.5t-10 -2t-10.5 -0.5h-8h-5q-4 0 -7 0.5t-5 0.5h-3h-2t-4.5 0.5t-4 1.5t-1.5 3t1 4t3 2q9 0 17 -1.5t16 -1.5h5.5t6.5 1t5 2.5t2 5.5zM68 117q0 -3 1.5 -4.5t4 -2t5 0t4.5 0.5q3 0 4 1t1.5 3t0.5 4v3v4q0 1 -0.5 3t-1.5 3t-3 1
q-3 0 -5.5 -1.5t-5 -3.5t-4 -4.5t-1.5 -6.5zM96 122v-2t0.5 -4t0.5 -3.5t1 -1.5h16q0 3 -0.5 7t-2 7t-4.5 5t-6 2q-4 0 -4.5 -3.5t-0.5 -6.5zM68 96v-1.5v-1.5l11 -11l1 -0.5l1 -0.5q2 0 4 1t2 3l2 13l-5 4h-14q-1 0 -1.5 -0.5l-0.5 -0.5v-2v-3zM96 101v-18q0 -2 2 -1.5
t3 0.5q2 0 5 1t5.5 3.5t3.5 5.5t1 6l-0.5 1.5l-0.5 1.5h-19z" />
</svg>
