<?xml version="1.0" standalone="no"?>
<!DOCTYPE svg PUBLIC "-//W3C//DTD SVG 1.1//EN" "http://www.w3.org/Graphics/SVG/1.1/DTD/svg11.dtd" >
<svg xmlns="http://www.w3.org/2000/svg" xmlns:xlink="http://www.w3.org/1999/xlink" version="1.1" viewBox="-10 0 266 256">
   <path fill="currentColor"
d="M143 176q2 0 3.5 2.5t2.5 3.5q0 1 1 3.5t2.5 5t2.5 5t2 2.5q7 15 17 27.5t21 23.5l1 0.5l1 0.5q2 0 4 -1.5t2 -3.5v-1q0 -1 -1 -1q0 -1 -2 -3t-3.5 -4t-3.5 -4.5t-3 -2.5q-2 -3 -5 -6l-6.5 -6.5t-6 -7.5t-2.5 -8q0 -2 2 -6t4.5 -8t5.5 -6.5t5 -2.5q1 0 2.5 0.5t2.5 2.5
q0 1 1.5 4t2.5 6t2 6.5t1 4.5q1 2 3 4.5t4 3.5q1 0 2 -0.5t1.5 -2t1 -2.5t0.5 -2q0 -2 -0.5 -3t-1.5 -2t-1.5 -2t-1.5 -2q-1 -2 -2 -6.5t-3 -9.5t-4 -8.5t-6 -3.5q-5 0 -8.5 4t-7 8.5t-6.5 8t-6 3.5h-2l-1 -2.5l-2 -5l-2 -5l-1 -2.5q-1 -3 -2.5 -6t-4.5 -3q-7 0 -11.5 4.5
t-7 10.5t-4 12.5t-2.5 11.5l-3 6v4q0 3 0.5 5.5t3.5 2.5t5 -6.5t3.5 -14.5t4 -15.5t6.5 -10.5zM81 173v69q0 1 2 1h2q2 0 3.5 -0.5t1.5 -4.5v-66h24q2 0 2.5 -1t0.5 -3t-1.5 -3t-3.5 -2q-5 1 -11 1t-11 -2q0 -1 -0.5 -1.5l-0.5 -0.5v-17q0 -1 3 -2.5t7 -4t7.5 -4.5t4.5 -4
q3 -5 3 -11v-13q0 -7 -1 -14t-4 -14q-1 -2 -4 -4t-6.5 -3t-6 -1.5t-2.5 -1.5v-21l2 -1q4 1 9.5 0.5t9.5 -3.5v-1v-1l-2 -2l-1 -1h-15q-3 0 -3.5 -3.5t-0.5 -8.5t-0.5 -8.5t-5.5 -3.5q-2 0 -2.5 1.5t-0.5 4.5v2v1.5t0.5 3t0.5 3v2.5l-0.5 2.5t-0.5 3.5q-2 0 -6 0.5t-5 0.5
l-2 0.5t-5 1t-5 1.5t-2 2q0 2 1 3t2.5 1.5t3.5 0.5h2t2 -0.5l2 -1t2.5 -1l1.5 -0.5l1.5 -0.5l1.5 -0.5q3 0 4.5 2.5t1.5 5.5v6v6t-2 5t-5.5 3t-7 2.5t-7 4.5t-5.5 8t-2 13q0 7 1.5 16t4.5 15q1 3 5 5l8 4t7 3l3 1v19l-0.5 0.5l-0.5 0.5q-1 1 -2 1.5l-1 0.5h-25q-1 0 -2.5 2
t-2.5 3l0.5 1.5t1.5 1.5h32zM136 138q0 5 3 8.5t7.5 5.5t9 2.5t8.5 0.5q5 0 10.5 -0.5t9.5 -3t7 -7t3 -11.5q0 -3 -2 -5t-4 -3.5t-5 -2.5t-5 -2h-2.5h-3.5h-4h-3q-5 0 -10 0.5t-9 2.5t-7 5.5t-3 9.5zM144 139q0 -3 1.5 -5.5t4.5 -4t6 -2t6 -0.5h7.5t7.5 1t5.5 3.5t2.5 7.5
q0 3 -2 4.5t-4.5 2.5t-5.5 1.5t-5 0.5h-6t-8 -1t-7 -3t-3 -5zM61 112q0 -2 3 -3t6.5 -1.5t6.5 -0.5h4v24q0 2 -1.5 2h-2.5q-3 0 -6 -2t-5.5 -5.5t-3.5 -7t-1 -6.5zM89 119q0 -8 2.5 -10.5t9.5 -2.5q3 0 4 2.5t1 4.5q0 3 -1 6t-3 5.5t-4.5 4t-4.5 1.5t-3 -1.5t-1 -3.5v-4v-2z
M123 109q5 1 11 1.5t12 0.5h12.5h10.5h30q2 0 3 -1t1 -2q0 -2 -1 -3t-3 -1h-32q-2 0 -3 -1.5t-1 -3.5v-3.5t1 -2.5h20q3 0 5 -3t3.5 -6.5t2 -7t0.5 -4.5v-1q0 -1 -0.5 -2t-1 -2.5t-1 -2.5t-1.5 -1q-2 0 -3 1.5t-1.5 4t-1 5.5t-2 5.5t-5 4t-9.5 1.5l-2.5 0.5t-2.5 -1.5v-27
q6 -1 12 -1t10.5 -1.5t7.5 -5t3 -9.5q0 -7 -5.5 -10.5t-12.5 -5t-14 -2t-12 -0.5q-3 0 -8.5 0.5t-11 2.5t-9.5 5.5t-4 8.5q0 6 2.5 9t6.5 4.5t9 1.5t9 0.5t7 1.5t3 4q0 6 -0.5 13t-1.5 12l-2 2v0q-5 0 -6.5 -3t-3 -6.5t-3.5 -6t-6 -2.5q0 5 1 9.5t3 8t6 5.5t9 1q0 1 0.5 2.5
l0.5 1.5v2q0 1 -0.5 2.5t-0.5 2.5t-1 1h-29v4zM61 95q0 -7 4.5 -11.5t11.5 -4.5h2q2 0 2 1v8q0 4 -0.5 6t-1.5 3.5t-3.5 2t-6.5 0.5q-1 0 -3.5 -0.5l-2.5 -0.5q-2 0 -2 -1v-3zM89 95v-16q0 -1 1.5 -1.5t2.5 -0.5q4 0 6 1.5t3.5 4t2.5 5.5t1 6v1q-1 1 -1.5 2l-0.5 1h-12z
M127 41q0 -4 2.5 -6.5t4.5 -2.5q5 0 7.5 4t2.5 9q0 2 -0.5 2.5t-2.5 0.5h-4t-4.5 -1t-4 -2.5t-1.5 -3.5zM149 34q0 -2 0.5 -3.5t2.5 -1.5t4.5 2t4.5 4.5t3.5 5.5t1.5 5t-2 2.5t-3 0.5q-6 0 -9 -5t-3 -10zM169 36q0 -2 0.5 -4.5t3.5 -2.5q2 0 4 1t4 2.5t3.5 3.5t1.5 5
q0 6 -6 6q-5 0 -8 -3t-3 -8z" />
</svg>
