<?xml version="1.0" standalone="no"?>
<!DOCTYPE svg PUBLIC "-//W3C//DTD SVG 1.1//EN" "http://www.w3.org/Graphics/SVG/1.1/DTD/svg11.dtd" >
<svg xmlns="http://www.w3.org/2000/svg" xmlns:xlink="http://www.w3.org/1999/xlink" version="1.1" viewBox="-10 0 266 256">
   <path fill="currentColor"
d="M162 179v74q3 0 6 -2.5t3 -5.5q3 -16 2 -33t-1 -31q4 0 8 -0.5t8 1.5q6 4 9.5 10.5t5.5 14.5t2.5 15.5t0.5 13.5q1 2 2 3.5t3 1.5q3 0 4 -1.5t1 -3.5q0 -6 -1 -14t-3 -15.5t-5 -14.5t-6 -12q-4 -5 -9 -6.5l-10 -3t-8.5 -4.5t-3.5 -12q0 -2 0.5 -4.5t2.5 -3.5h13t10 -2.5
t6 -7t2 -13.5v-1v-5t-0.5 -8.5t-0.5 -9v-5.5q-1 -2 -2 -2h-2q-2 0 -3.5 2.5t-1.5 6t0.5 6t0.5 3.5q-1 2 -3 3t-4.5 1.5t-5 0t-3.5 -0.5h-4h-4q-3 -1 -3 -4.5v-6.5q0 -6 2.5 -9t7 -5t9 -3t8.5 -2t6.5 -3.5t2.5 -6.5v-1v-4t-0.5 -6t-0.5 -6v-4q-4 -6 -9.5 -9t-12 -4l-13 -2
t-11.5 -4q-3 -1 -5 -5t-3.5 -8.5t-3 -7.5t-5.5 -3q-2 0 -2.5 1t-1 2.5t-0.5 2.5v3q0 5 2.5 8.5t5.5 6.5t5.5 6.5t2.5 7.5q0 8 -5.5 14.5t-12 11.5t-12 8t-5.5 6q0 2 3 2h1.5h0.5l1.5 -0.5t3 -1.5l3 -2t2.5 -1q6 -3 10.5 -7t8 -9t7 -10.5t7.5 -10.5h1q2 0 7 1t9.5 3t8.5 4.5
t4 6.5q0 7 -3 10t-7.5 4.5t-9.5 2t-9 2.5q-1 1 -4 3.5l-3 2.5v26l-2 2q-9 -1 -19 -0.5t-18 3.5l-1 0.5t-1 1.5l1 1.5l1 1.5h38l0.5 0.5l1.5 1.5v5v5q-4 3 -9.5 4t-11 2.5t-9.5 5t-4 12.5q0 3 0.5 4.5t1.5 3.5l3 3l3.5 3.5t2.5 3l1 1.5h24zM52 167q0 3 1 7.5t1 7.5
q1 13 3 21.5t7 13t13.5 6t22.5 1.5h4.5t7 -1t6.5 -2t4 -2l-4 -4h-29v-16q0 -1 3 -2t7 -3.5t7.5 -7t3.5 -11.5q0 -3 -1 -5t-1 -6t1 -7.5t1 -7.5q0 -3 -2 -4t-4 -1q-3 0 -4 2.5t-1 5.5v1v3.5t0.5 5.5t0.5 6v4v0.5v0.5q0 2 -0.5 4.5l-1 5t-2.5 4.5t-4 2q-1 0 -2 -0.5t-1 -1.5
q-1 -5 -1.5 -9t-0.5 -7.5v-6.5v-9v-2v-4v-4v-2q0 -3 2.5 -5t5.5 -3.5t5.5 -4t3.5 -8.5v-2q0 -3 -1 -5.5l-2 -5t-3 -2.5h-1q-1 1 -2.5 2l-1.5 1v14q0 1 -1.5 1.5t-3 1.5t-3.5 1.5t-3 0.5q-1 1 -3.5 1h-6t-6.5 0.5t-4 0.5t-4 0.5l-6 1l-6 1t-4 0.5q-2 3 -2 8q10 0 18.5 -1
t18.5 -1q0 4 -0.5 7.5t-0.5 7.5q0 11 1.5 22.5t1.5 22.5q0 3 -1 6t-4 3t-4.5 -2.5t-2.5 -5.5t-1 -6v-5q0 -1 -0.5 -5t-1 -9t-0.5 -9v-6q-1 -1 -2 -1.5t-2 -0.5q-3 0 -5.5 2.5t-2.5 5.5zM135 161q0 -5 2.5 -8.5t6 -5t8 -2.5t8.5 -1v26q0 1 -1 1.5t-3 0.5h-2h-1q-3 0 -6 -0.5
t-6 -2t-4.5 -3.5t-1.5 -5zM170 129q0 -3 2 -4.5t5 -2t6 -0.5h5q3 0 5 0.5t2 4.5q0 3 -1.5 5t-4 3t-5 1.5t-4.5 0.5q-1 0 -3.5 -0.5t-3.5 -0.5q-2 -1 -2.5 -3t-0.5 -4zM40 100q0 4 4 6h8q7 0 16 -0.5t17 -2.5t13.5 -6.5t5.5 -13.5v-8q-1 -1 -2 -1.5t-2 -0.5h-1q-3 10 -8.5 15
t-13 6.5t-16 1.5t-17.5 -1q-4 2 -4 5zM44 66q0 3 1 5t5 2h1q3 0 7.5 -0.5t9.5 -1t9 -1t5 -0.5q5 -1 9.5 -2.5t8.5 -4.5t6.5 -7t2.5 -10v-2l-17 -20q-1 -6 -2.5 -9t-8.5 -3q-3 0 -3.5 2t-0.5 6t2.5 8t6 7t6.5 6.5t3 7.5q0 3 -2 5t-4.5 3.5t-5.5 2.5t-5 1q-3 0 -5.5 -1
t-5.5 -1h-6t-8 0.5t-6.5 2t-2.5 4.5z" />
</svg>
