<?xml version="1.0" standalone="no"?>
<!DOCTYPE svg PUBLIC "-//W3C//DTD SVG 1.1//EN" "http://www.w3.org/Graphics/SVG/1.1/DTD/svg11.dtd" >
<svg xmlns="http://www.w3.org/2000/svg" xmlns:xlink="http://www.w3.org/1999/xlink" version="1.1" viewBox="-10 0 266 256">
   <path fill="currentColor"
d="M187 122q0 30 4 58.5t8 58.5v4v3q1 2 3.5 2.5t3.5 0.5q2 0 4 -0.5t3 -3.5q0 -1 0.5 -3.5t0.5 -3.5q0 -5 -1.5 -10l-3 -10l-3 -10t-2.5 -10q-2 -13 -4 -26.5t-1 -27.5l-2 -2v-30l1 -0.5t1 -1.5q4 -3 6.5 -6t4 -6t2 -7t0.5 -9v-6t-3 -6v-43q0 -2 -1.5 -2h-2.5t-3 0.5
t-4 1.5t-3 2.5t-1 2.5v26l-2 2q-10 0 -18 1t-17 1h-2q-1 0 -2 -0.5t-1 -1.5v-29q0 -1 -2.5 -3t-3.5 -3v0q-3 0 -5.5 2.5t-2.5 4.5q0 1 -0.5 3t-0.5 4v3v3v3v4q0 1 0.5 2.5t0.5 2.5q0 2 0.5 8t1.5 12.5t1.5 12t1.5 8.5q1 5 4.5 9t7.5 7v11q0 15 -0.5 31t-1.5 31q0 1 -0.5 3
t-0.5 3q-1 2 -1.5 8.5t-1.5 13.5t-2 13.5t-1 8.5v3q0 3 1.5 4t4.5 1h3q1 0 2 -2q0 -3 1 -10t2 -15t1.5 -15.5t0.5 -9.5v-4v-7v-6v-4t0.5 -6t1 -11t1 -13t1 -13t1 -10t0.5 -5q2 -1 5.5 -1.5t5.5 -0.5q4 0 6 3t3 7zM64 232h7t10.5 0.5t10.5 0.5h7l1.5 0.5t2.5 0.5h4h3h2h3
q1 0 2.5 -0.5t2.5 -0.5q3 -1 3.5 -2.5t0.5 -3.5t-1.5 -4t-4.5 -2h-26v-19l3 -4q4 0 7.5 -0.5t7 -2t6 -4.5t2.5 -8v-28q0 -2 -1.5 -2.5t-3.5 -0.5h-2.5t-2.5 1v9q0 5 -1 11t-3.5 10t-8.5 4q-2 0 -2.5 -0.5t-0.5 -3.5v-35q0 -1 3.5 -1.5t8 -3t8 -6.5t3.5 -11q0 -4 -2 -7t-5 -3
q-4 0 -5 3t-2 7.5t-4 8.5t-10 6q-3 0 -8.5 0.5t-11.5 1t-11.5 1t-7.5 0.5t-4.5 1.5t-2.5 4.5v2q4 1 6 1h6q5 0 10.5 -0.5t10.5 -0.5q3 0 4.5 5t2 12t0.5 15v10q0 4 0.5 9t0 8.5t-3 6.5t-7.5 3q-4 0 -5 -1.5t-2 -4.5q0 -2 -0.5 -6.5t-0.5 -9.5t-0.5 -9.5t-0.5 -6.5t-0.5 -5
t-1.5 -6t-3 -5.5t-5 -2.5t-3.5 3t-0.5 5v1.5v2.5l0.5 2t0.5 3.5t0.5 3t0.5 2.5v13t1 13t3.5 11t9.5 8zM58 109h-12l-0.5 1.5l-0.5 1.5q-1 1 -1 4v4q8 0 14.5 -1t12.5 -2.5t12.5 -3.5t15.5 -4q7 -2 9.5 -6t2.5 -13v-4q0 -2 -0.5 -4t-1.5 -3.5t-4 -1.5q-4 0 -5 3t-1 6v7.5
t-4 4.5zM152 81v-2q0 -1 0.5 -3l0.5 -2q9 -1 17.5 -3t17.5 -2q1 0 3.5 0.5l2.5 0.5l3 4l0.5 2t0.5 3q0 8 -3 12.5t-7.5 6.5t-10.5 2.5t-12 0.5q-5 0 -7.5 -1t-4 -3.5t-1.5 -6.5v-9zM44 71q0 6 4 7t10 1q5 0 15 -1.5t19 -5.5t16 -9.5t7 -12.5q0 -3 -3 -9.5t-7 -13t-8.5 -12
t-7.5 -5.5q-2 0 -5 0.5t-3 4.5q0 5 3 8.5t7 7.5t7 8t3 9q0 6 -4 9.5t-10.5 5t-14 1.5t-13.5 0.5t-10.5 2t-4.5 4.5z" />
</svg>
