<?xml version="1.0" standalone="no"?>
<!DOCTYPE svg PUBLIC "-//W3C//DTD SVG 1.1//EN" "http://www.w3.org/Graphics/SVG/1.1/DTD/svg11.dtd" >
<svg xmlns="http://www.w3.org/2000/svg" xmlns:xlink="http://www.w3.org/1999/xlink" version="1.1" viewBox="-10 0 266 256">
   <path fill="currentColor"
d="M89 198q1 1 1.5 3l1 4t1.5 3.5t3 1.5h70q7 0 12.5 6t10 13.5t8 13.5t5.5 6t2.5 -1t0.5 -3q0 -6 -2.5 -11.5t-6 -10.5t-8 -9.5l-8.5 -8.5q-12 -4 -26.5 -5t-27.5 0q-3 0 -4 -3t-1 -5q0 -3 2.5 -4.5t6.5 -2.5t7.5 -1h4.5l1 -2q1 0 1 -3.5v-5.5v-3.5v-5.5t-0.5 -5.5
t-1.5 -4.5h-1q-3 0 -3 4t-0.5 9t-4 9.5t-12.5 5.5v-3.5t-0.5 -5.5t-0.5 -5.5v-3.5q-1 -3 -1.5 -5.5t-3.5 -4.5l-2 2v43h-6t-5.5 -1t-4 -3t-1.5 -6q0 -2 -0.5 -5t-0.5 -7q0 -3 0.5 -6.5t0.5 -4.5q-1 -2 -2.5 -3.5t-3.5 -1.5t-2 3v2v6.5t0.5 9.5t0.5 10v6zM156 141v49h3l6 -13
v-41q1 0 3.5 -1t3.5 0q4 1 8 5l8 8t8.5 7t8.5 3v-5q0 -1 -1.5 -2.5t-3 -4t-2.5 -3.5q-3 -4 -7 -6.5t-8.5 -4.5t-8.5 -3.5t-8 -3.5q-2 -1 -2.5 -4l-1 -6t-0.5 -6v-5v-3q0 -2 0.5 -4.5t1.5 -2.5h24q0 2 2 9t4.5 14t6.5 12.5t8 5.5q1 0 1 -2v-2v-1.5v-1.5l-4 -8l-4 -8t-3.5 -8
t-1.5 -9q0 -7 2 -14t2 -14v-3t-1 -3l-0.5 -0.5l-0.5 -0.5l-0.5 -0.5l-0.5 -0.5v1q-1 0 -1.5 1t-0.5 2t-1 4t-2 6.5t-2 6.5t-1 4l-2 2h-2t-5.5 0.5t-6.5 0.5h-5h-3q-2 0 -3 -1t-1.5 -3t-0.5 -4v-4v-4v-3q1 -2 2.5 -3t3.5 -1.5l4 -1t4 -1.5q4 -2 8 -6t7 -9.5t4.5 -11t1.5 -9.5
v-5l-0.5 -0.5t-1.5 -0.5l-1.5 0.5l-1.5 0.5q-1 4 -3 10.5t-5.5 12t-8 9.5t-9.5 4q-2 0 -3 -1.5t-1 -3.5q0 -8 1 -15t1 -15q0 -3 -1.5 -7t-5.5 -4q-3 0 -3 2t-2 5v1q0 2 1 4.5t1 4.5v5q0 1 -0.5 4.5t-0.5 7t-0.5 6.5t-0.5 5h-1q-7 0 -10.5 -4.5t-5.5 -9.5t-4.5 -9.5
t-6.5 -4.5v0q-1 0 -1.5 0.5t-0.5 1.5v0q0 3 2 7t3 7q0 1 1 3l2 4t1.5 3.5l0.5 1.5q1 2 5 3.5t7.5 2.5t6.5 2.5t3 4.5v19h-22l-1 -1t-1 -2t-1 -4t-2 -5t-2.5 -4t-4.5 -2q0 8 1 15.5t1 15.5v4v5.5v5.5v4q-1 3 -3 5.5t-2 6.5q5 0 8 -4.5t4.5 -10.5t2 -12t0.5 -9h22
q0 6 1.5 13.5t1.5 13.5v1q-1 1 -4.5 3t-6.5 4t-6.5 4t-4.5 2q-1 1 -3 2l-5 2.5l-5 2.5t-3 2q-1 0 -2 1t-1 2t1 1.5t2 0.5h2h1h5q1 -1 3.5 -2.5t5.5 -3.5t6 -3.5t4 -2.5t4 -3t5 -2h1zM101 123h-1l-0.5 1l-0.5 1q-2 7 -5.5 12t-7 9t-8.5 8t-11 8q-2 2 -6 5t-7.5 6t-6 6.5
t-2.5 6.5q5 0 10.5 -3.5t11 -8t10 -9.5t8.5 -7q0 -1 2 -2t2 -2l3 -3t4.5 -4t4.5 -4.5t3 -2.5q1 -3 1 -4.5v-3.5q0 -3 -0.5 -4.5t-2.5 -4.5h-1zM98 79h-1l-0.5 0.5t-0.5 1.5v18l-1 1l-2.5 2.5l-2.5 2.5l-2 2q-5 4 -10 7.5t-9 7.5q-2 1 -5.5 4t-6 5l-2.5 2v6q3 0 7.5 -2.5
t10 -6.5t11 -9t10 -9.5t7.5 -8.5t3 -7q0 -5 -1 -8t-4 -9h-1zM50 96v1q0 1 0.5 2l0.5 1l0.5 0.5l0.5 0.5q2 0 6.5 -3t11 -7.5t12.5 -10t11.5 -11t8.5 -10.5t3 -8q0 -1 -0.5 -4t-1.5 -6t-2.5 -5.5t-2.5 -2.5t-1.5 3.5t-1.5 8l-2 9t-2 6.5q-4 5 -8 9t-7.5 7t-7.5 6.5t-9 6.5
l-1.5 1t-3.5 2t-3 2t-1 2z" />
</svg>
