<?xml version="1.0" standalone="no"?>
<!DOCTYPE svg PUBLIC "-//W3C//DTD SVG 1.1//EN" "http://www.w3.org/Graphics/SVG/1.1/DTD/svg11.dtd" >
<svg xmlns="http://www.w3.org/2000/svg" xmlns:xlink="http://www.w3.org/1999/xlink" version="1.1" viewBox="-10 0 266 256">
   <path fill="currentColor"
d="M167 247q0 3 2 3h1q2 -1 2 -2t1 -3t1.5 -4t1 -3.5t0.5 -2.5v-59q0 -1 0.5 -4t1.5 -4l0.5 -1l0.5 -1h14l1 2q0 14 2.5 28.5t7.5 27.5q0 2 2 4.5t4 2.5q0 -7 -0.5 -12.5t-2 -11.5t-2.5 -12t-1 -12v-4v-5v-6v-3q-2 -21 -3 -40.5t-1 -40.5l-0.5 -0.5l-0.5 -0.5q-1 -1 -4 -1
h-2v15q0 1 -1 2t-2.5 1.5l-3 1l-1.5 0.5h-2q-1 0 -4 -0.5t-4 -0.5v-11v-4q0 -4 0.5 -7.5t2 -6t5.5 -1.5l5 -5t3 -4t1.5 -4.5t0.5 -6.5q0 -7 -2 -11.5t-10 -4.5q0 4 1 8t1 9q0 3 -0.5 5.5t-4.5 2.5q-3 0 -5.5 -3.5t-4.5 -8.5t-3.5 -9.5t-1.5 -7.5q0 -2 1 -4t2 -3.5t1.5 -3.5
t0.5 -4t-1 -4.5t-3 -2.5h-2q0 1 -1.5 3t-2.5 4.5t-1.5 5t-1.5 3.5v2v3q0 4 1.5 7.5t3.5 7t3.5 7t1.5 7.5v4t-2 2q-1 0 -1 -1l-1.5 -0.5t-3 -1.5t-3 -1.5t-2.5 -0.5q0 -1 -1 -1t-2 0.5t-2 1.5q2 4 4 5.5t4 2.5t4.5 2t5.5 2q1 0 2 1.5l1 1.5v49q0 3 -2.5 3.5t-3.5 0.5h-4
q-2 0 -3 -2l-3 -35q0 -1 -1.5 -3t-3.5 -2v78q-4 8 -5 16t-2 15.5t-3.5 16t-8.5 17.5q1 1 2 1.5l1 0.5h1q3 0 6 -4.5t5.5 -10t4 -11t1.5 -7.5t0.5 -6t0.5 -7.5t0.5 -6.5l0.5 -3q0 -1 0.5 -2.5l1 -3l1 -3l0.5 -1.5h14v69q0 1 -0.5 5t-0.5 5v0.5v1.5zM88 239v2.5t2 1.5
t5.5 -4.5t6.5 -10.5t5.5 -11.5t3.5 -7.5q2 -11 3.5 -23t4.5 -23q1 -1 4 -2.5t6 -4.5t5 -5.5t2 -5.5v-28l-0.5 -0.5l-0.5 -0.5l-0.5 -0.5l-0.5 -0.5q-1 0 -2 4.5t-2 10t-3 11t-4 7.5h-1q-3 0 -3 -1.5v-4.5v-5v-7t0.5 -10.5t0.5 -10.5v-7t0.5 -3.5t2 -2l3 -1t2.5 -1.5
q3 -2 5 -6t3 -8.5t1.5 -8.5t0.5 -8q0 -2 -0.5 -3.5t-2.5 -3.5q-1 0 -2 0.5t-2 1.5l-0.5 0.5t-0.5 1.5v16l-2 2.5t-3 4.5l-0.5 0.5t-1.5 0.5v0h-1q-1 0 -1.5 -0.5l-0.5 -0.5v-3v-4.5v-4.5v-3v-7t0.5 -8.5t1.5 -8.5t3 -8q1 -1 3.5 -3t4.5 -4t3.5 -4.5t1.5 -5.5t-0.5 -4
t-3.5 -1q-1 0 -4.5 3.5t-7.5 8.5t-7.5 9.5t-3.5 6.5v42l-2 4l-6 -5v-20l-1.5 -1.5t-2.5 -1.5q0 -1 -1 -1h-1v5v8t0.5 7.5t0.5 4.5q0 5 2 7t4.5 3.5t4.5 3t2 4.5v18v15t-2 15l-1.5 0.5l-1.5 0.5q-2 0 -3 -1t-1.5 -2.5t-0.5 -3v-2.5q0 -2 -0.5 -5.5t-0.5 -7.5t-0.5 -8t-0.5 -5
l-1 -2q-2 1 -3 3t-1 5.5v6v3.5q0 6 0.5 10.5t2.5 8.5t4.5 7.5t7.5 6.5v3q0 5 -2 11t-3 10q0 1 -0.5 5t-1.5 8.5t-1.5 8t-1.5 4.5q0 4 -2 6.5t-4 5.5t-3.5 6t-1.5 6zM47 137h-1q-1 0 -2 0.5l-1 0.5v45q0 6 6 9t14 4.5t15.5 2.5t11.5 1v-6q-2 0 -5.5 -0.5t-7 -1.5t-6 -3
t-2.5 -5q0 -5 2 -7.5t5.5 -3.5t6.5 -2.5t5 -4.5v-2.5v-3.5v-3v-3v-3v-4v-3.5v-1.5q0 -2 -0.5 -4t-1 -4.5t-1 -4l-0.5 -1.5h-3q0 2 -0.5 6t-0.5 8.5t-0.5 8.5t-0.5 5q0 4 -2 6.5t-5 2.5h-1.5h-1.5q-1 -10 -1.5 -22t-0.5 -21q-2 0 -3.5 2.5t-2.5 3.5v8v12v12v8q0 1 -0.5 3
t-1 4.5t-1 4.5t-0.5 3h-0.5h-0.5q-4 0 -6 -6t-2.5 -13.5t-0.5 -15t-1 -11.5h-1zM154 152v-2q0 -2 0.5 -5.5t0.5 -5.5v-2h12l1 1q0 1 0.5 3.5t0.5 3.5q0 2 -0.5 5.5t-0.5 4.5l-0.5 1.5l-0.5 1.5h-12l-0.5 -2t-0.5 -3v-1zM176 145v-3v-2l3 -3h12v19q0 1 -0.5 1.5t-1.5 0.5
h-1.5h-2.5q-7 0 -8 -3.5t-1 -9.5zM178 128v-16l0.5 -1l0.5 -1h2.5h3.5q5 0 6.5 2.5t1.5 7.5v5q-1 1 -1.5 2l-0.5 1h-13zM46 123v0l1.5 1.5l0.5 0.5q3 0 9 -3t12.5 -7t11 -8.5t4.5 -6.5q0 -4 -1 -6.5t-4 -5.5l-1.5 1t-1.5 2q-1 1 -2.5 3l-3 4t-2.5 4.5t-2 3.5q-2 0 -5.5 2
t-7 4.5t-6 5t-2.5 5.5zM48 86l2 1t3 1q3 0 8.5 -1.5t10.5 -4.5t9 -6.5t4 -8.5q0 -4 -1.5 -6.5t-5.5 -5.5q-1 1 -2 2.5t-1.5 3.5t-1 3.5t-1.5 3.5q-2 2 -6 4.5l-8 5t-7 4.5t-3 4zM49 48q2 2 5 2h5q3 0 7.5 -2t9 -5t7 -7t2.5 -8q0 -1 -0.5 -4t-1.5 -6t-2.5 -5.5t-2.5 -2.5h-1
q-1 1 -2.5 2t-1.5 2l1 2t1 3v1q0 8 -3.5 11.5t-8 5.5t-8.5 4t-6 7z" />
</svg>
