<?xml version="1.0" standalone="no"?>
<!DOCTYPE svg PUBLIC "-//W3C//DTD SVG 1.1//EN" "http://www.w3.org/Graphics/SVG/1.1/DTD/svg11.dtd" >
<svg xmlns="http://www.w3.org/2000/svg" xmlns:xlink="http://www.w3.org/1999/xlink" version="1.1" viewBox="-10 0 266 256">
   <path fill="currentColor"
d="M196 211v37q0 2 1.5 2.5t3.5 0.5t3.5 -2.5t2 -5.5t0.5 -6v-5v-3v-3q0 -1 -0.5 -5l-1 -8l-1 -8t-0.5 -5q-2 -11 -2.5 -23t-5.5 -23q0 -1 -1 -2l-1 -1q-3 -3 -10.5 -4t-15.5 -1.5t-14 -2t-6 -6.5q0 -7 5 -9.5t11 -2.5h5h7h7.5h4.5q2 -1 4 -1.5l4 -1t3.5 -1.5t2.5 -4t2 -5
t1 -3.5v-3v-4.5q0 -5 -1.5 -9t-5.5 -7h-4h-5.5h-5.5h-4h-11h-9.5t-9.5 0.5t-12 1.5q-1 1 -1 2v2v2t1 1q1 1 5 1h4h5q4 0 4 -1l2 -0.5l2 -0.5q2 0 4 1t3 2v1v2q0 7 -1 10.5t-3 5.5t-4.5 2.5t-5 1.5t-5.5 2.5t-6 4.5v5v5q0 9 3 13.5t8 6t11 1.5t11.5 0.5t9.5 2t6 6.5v4.5v5.5
t0.5 6t0.5 4q0 2 0.5 5.5t1.5 7.5t1.5 7.5t1.5 4.5zM70 242v1q0 1 1 2t2 1q5 0 9.5 -5.5t8 -14.5t7 -20t5.5 -21l3.5 -17.5t1.5 -10.5q0 -7 -1.5 -14.5t-5.5 -12.5q-3 -4 -5 -5t-3.5 -2t-2 -3.5t-0.5 -10.5v-3v-2l2 -2l30 -3l0.5 -1.5l0.5 -1.5v-1q0 -2 -1.5 -2h-3.5
q-15 0 -31 1.5t-32 1.5q-3 0 -4.5 2t-1.5 5q0 2 1 3t4 1q5 0 10.5 -2t11.5 -2q2 0 3.5 0.5t2.5 2.5v4.5v6.5v5.5v3.5q0 3 0.5 4t2 1.5t2.5 1l3 1.5q6 4 7 10.5t1 12.5q0 9 -1.5 16.5t-4 15.5t-6 15.5t-5.5 15.5q-1 1 -3 4.5t-4 7.5t-3 7zM174 104q0 -7 4.5 -8.5t9.5 -1.5
t6.5 1.5t1.5 6.5q0 1 -0.5 3t-1.5 4.5t-2 4.5t-2 2h-12q-1 0 -2 -1.5t-1.5 -3.5t-0.5 -4v-3zM69 36v14t1.5 12.5t6 9t13.5 3.5q12 0 19.5 -5t7.5 -18v-1q0 -1 -0.5 -6t-0.5 -10.5t-0.5 -10t-0.5 -6.5t-1 -3.5t-3 -1.5t-3.5 0.5t-1.5 2.5v18h-25q0 -1 -0.5 -4t-1 -6.5
t-2 -6.5t-4.5 -3q-1 0 -2 0.5t-1 1.5v4t-0.5 6t-0.5 6v4zM152 61q3 4 7.5 5.5t10.5 1.5q1 0 5.5 -0.5t10 -1.5t10.5 -3t5 -6v-21q0 -4 -3 -6.5t-7 -3.5t-9 -1h-6q-8 0 -13 2t-7.5 5t-3 8t-0.5 11v4.5v5.5zM79 51q0 -4 2 -5.5t5 -2.5t6 -1h6h3h3q3 1 3.5 2.5t0.5 3.5
q0 10 -4 13.5t-15 3.5q-3 0 -5 -1.5t-3 -3.5t-1.5 -4.5t-0.5 -4.5zM159 51q0 -3 0.5 -5.5t1.5 -4.5t3 -3.5t5 -1.5h19l3 3v2v2q0 6 -1 9t-4 4.5t-7 2t-9 0.5q-3 0 -7 -2t-4 -6z" />
</svg>
