<?xml version="1.0" standalone="no"?>
<!DOCTYPE svg PUBLIC "-//W3C//DTD SVG 1.1//EN" "http://www.w3.org/Graphics/SVG/1.1/DTD/svg11.dtd" >
<svg xmlns="http://www.w3.org/2000/svg" xmlns:xlink="http://www.w3.org/1999/xlink" version="1.1" viewBox="-10 0 266 256">
   <path fill="currentColor"
d="M150 134q0 6 2.5 8t6.5 2t9 -0.5t9 1t7 6.5t3 16v83q0 1 2 1.5t3 0.5q3 0 4.5 -3t1.5 -6v-2v-1l-0.5 -1.5t-0.5 -2.5t-0.5 -2.5l-0.5 -1.5q0 -1 0.5 -3.5t1.5 -3.5v-10.5t0.5 -15.5t0.5 -15.5v-10.5v-1v-2q0 -1 -0.5 -4.5t-1 -7.5t-1 -7.5t-0.5 -4.5q-1 -6 -5.5 -8
t-10.5 -2.5t-11.5 0t-9.5 0.5l-1 -2l-0.5 -2t-0.5 -3q0 -7 3.5 -9.5t9 -3t12 0t12 -1.5t9 -7t3.5 -17q0 -4 -0.5 -7.5t-4.5 -6.5h-6h-5h-10q-5 0 -11.5 0.5t-11.5 1.5t-8.5 2.5t-3.5 3.5v0.5v0.5l1 0.5l1 0.5h17l0.5 1.5t0.5 3t0.5 3.5t0.5 3v5q0 5 -2.5 6t-5.5 2.5t-5.5 6
t-2.5 16.5zM54 248q1 2 2 2h2q3 0 5.5 -2t3.5 -5v-2v-4v-4v-3q0 -8 -1 -16.5t-1 -16.5v-13t1 -17.5t2 -19.5t2.5 -19t4 -16t6.5 -10q3 1 4 4.5t1 6.5q0 5 -1 9.5t-1 8.5q0 6 1.5 12.5t6.5 10.5h4h4q5 0 9 -2t6.5 -5.5t3.5 -8t1 -9.5v-1q-1 -1 -1.5 -3l-0.5 -2q0 -1 0.5 -2
t1.5 -1v-23l-1.5 -0.5t-2.5 -1.5h-1v0q-1 1 -2 1.5l-1 0.5v13l-1.5 0.5t-2.5 0.5q-1 1 -3.5 1.5l-2.5 0.5q-4 0 -5.5 -1.5t-2 -3t-0.5 -3.5t-2 -5l-1 -1l-2 -2l-2 -2l-1 -1v-1q0 -6 4 -10t10 -6.5t12 -4t10 -1.5q3 0 4.5 4t2.5 10t1.5 11t0.5 8v3v5v5v3v2.5t0.5 5t0.5 4.5v2
q0 28 -2.5 56t-2.5 56q7 0 10 -6l2 -34t1 -34v-3v-11.5v-14t-0.5 -15t-0.5 -13.5t-0.5 -10t-0.5 -5q0 -5 -1 -9.5l-2 -9t-2 -8.5t-1 -8q0 -6 5 -9l0.5 -2t0.5 -4v-4v-3l0.5 -1l0.5 -1q0 -10 -4.5 -15.5t-11 -7.5t-14.5 -2.5t-15 -0.5h-21q-2 1 -4 3t-2 5v1l0.5 0.5l0.5 0.5
h16q1 0 2 2l2 4t1 4v2v3.5t-1 2.5h-32q-1 0 -1.5 1.5t-0.5 3.5v3.5v1.5q6 0 12.5 -1t13.5 -1h4q1 0 1.5 1l0.5 1v13q0 2 -4 2.5t-9.5 0.5t-9.5 1t-4 4q0 4 3.5 4t7.5 -0.5t7.5 -0.5t3.5 3t-1 6t-3 5.5l-4 5t-3 5.5q-3 7 -6.5 15t-6.5 16q0 3 -0.5 10.5t-1.5 16t-1.5 16
t-1.5 10.5v4q0 15 1.5 29t0.5 29zM97 151q2 0 2 1q0 2 -2 2q-1 0 -1 -2q0 -1 1 -1zM94 131v-4v-4q5 -4 12 -4q4 0 4 3.5v5.5v6t-0.5 5.5t-2.5 4t-5 2.5q-3 0 -5 -1.5t-2.5 -4t-0.5 -5v-4.5zM184 85q1 0 3 0.5t3 0.5q3 1 4 5t1 7q0 5 -4 7t-9 2h-1.5t-3 -0.5t-2.5 -1t-1 -1.5
v-14q0 -2 1 -3t3 -1.5t4 -0.5h2zM95 58q0 -1 0.5 -3t2.5 -2q1 0 4.5 0.5t7 1.5t6 2.5t2.5 3.5t-1.5 3t-4 1.5t-5 0.5h-4.5q-4 0 -6 -1.5t-2 -6.5zM189 25h-1q-2 0 -6.5 0.5t-7.5 1l-3 0.5q-1 0 -3.5 1.5t-5.5 3t-5 3.5t-2 3v20q0 3 2 4.5t5 2.5t6.5 1h4.5q10 0 16 -1t9 -4.5
t4.5 -9.5t1.5 -16q0 -6 -5 -8t-10 -2zM163 49q0 -4 1 -6.5t5 -5.5q1 0 4.5 -0.5t5.5 -0.5h3.5h5t4 1t1.5 4v4q0 2 -0.5 5t-1.5 4.5t-3 1.5h-22q-3 0 -3 -2.5v-4.5zM99 45q0 -1 -0.5 -3t-0.5 -4t-0.5 -4l-0.5 -2v-1v0v-1l0.5 -1.5t1.5 -1.5l2 -0.5t3.5 -0.5t3 -0.5t2.5 -0.5
h1h1l7 3.5t5 3t2.5 4t0.5 7.5v4.5t-2 2.5q-7 0 -13.5 -2.5t-12.5 -2.5z" />
</svg>
