<?xml version="1.0" standalone="no"?>
<!DOCTYPE svg PUBLIC "-//W3C//DTD SVG 1.1//EN" "http://www.w3.org/Graphics/SVG/1.1/DTD/svg11.dtd" >
<svg xmlns="http://www.w3.org/2000/svg" xmlns:xlink="http://www.w3.org/1999/xlink" version="1.1" viewBox="-10 0 266 256">
   <path fill="currentColor"
d="M191 226q0 7 -1 13t-1 13q6 0 9 -4t3.5 -9t0.5 -11v-10v-7t-0.5 -11t-1 -12.5t-2 -11.5t-4 -9t-6.5 -5l-21 -4q-1 0 -2.5 -1t-2.5 -2t-2 -2.5t-1 -2.5q0 -6 3.5 -9.5t8.5 -3.5q2 0 6.5 -0.5t9 -0.5t9 -0.5t5.5 -0.5q4 -4 5.5 -8.5t1.5 -9.5q0 -8 -3 -13t-12 -5
q-6 0 -10 0.5t-8.5 1l-9 1t-11.5 0.5q-1 0 -1 1v2t0.5 2.5t1.5 1.5q3 0 6 -0.5t6 -0.5h2t2 1v19q0 1 -3 1.5t-6.5 2.5t-6 5.5t-2.5 10.5t2 11t6 6t8.5 2.5t8.5 1t7 2.5t4 7q1 7 1 13t0.5 12t0.5 11.5v11.5zM63 232q0 2 1.5 2h2.5h3t2 -1q2 -5 5.5 -11t6.5 -12t5.5 -12.5
t3.5 -12.5q1 -3 1 -5.5t0.5 -5t1.5 -4.5t4 -5q2 2 4 6t3.5 8.5t2.5 9t2 7.5q1 2 3.5 6.5t5 10t4.5 10.5t4 6q0 3 1.5 2t2.5 -1v3q4 0 5 -2.5t1 -5.5t-1 -4.5t-2.5 -3l-3 -3t-2.5 -3.5l-5 -7.5l-6 -9t-4.5 -9.5t-2.5 -9q0 -1 -0.5 -3l-1 -4l-1 -4t-0.5 -3q-1 -5 -3 -10
t-2 -10v-3t2 -2q5 1 9 2.5t7 3.5t6 5l7 7q1 -1 3.5 -2.5t2.5 -3.5q0 -3 -3 -5.5t-7 -4.5l-9 -4.5t-9.5 -5t-7 -5t-2.5 -4.5t1 -3.5t2.5 -3t3.5 -2.5t3.5 -2t3.5 -4.5t4 -8.5t4 -9.5l4 -9t4 -7.5t3 -3q2 -1 3 0t2 3t1 4v3q0 5 -2.5 11t-6 12t-6 11.5t-2.5 10.5q5 0 8 -2.5
t4.5 -6.5t2.5 -8l2 -8q2 -7 4 -12t2 -12v-4.5t-1 -4.5l-14 -14v-1v-2q0 -4 2 -7.5t4.5 -7t4 -6.5t1.5 -6t-1.5 -4t-3.5 -1q-3 0 -5.5 4.5t-5 10t-4 11.5t-1.5 8q0 5 1.5 8t1.5 8q0 2 -1.5 5.5t-3.5 8t-4 8t-3 6.5q-1 1 -2 2.5t-1.5 3.5t-1.5 3.5t-1 2.5q-1 1 -3.5 2.5
t-5 2.5t-4 1.5l-1.5 0.5q0 1 1 3.5l1 2.5v1v2t-0.5 2.5t-1.5 2.5q-5 3 -13 6t-15.5 7t-13 8.5t-5.5 11.5q5 0 11.5 -4t13 -8.5t12 -8t7.5 -3.5q3 1 3 2.5v3.5q0 5 -1 9.5t-2.5 9l-3 9t-2.5 9.5q0 1 -0.5 4t-1.5 3q0 1 -1 4l-2 6t-2.5 6t-1.5 4q-1 2 -3.5 6t-4.5 8t-4 7.5
t-2 5.5zM180 117v-6q2 -3 4.5 -4t5.5 -1h4q3 3 3 7.5v8.5q0 2 -2.5 4.5t-5.5 2.5t-5 -0.5t-3 -2t-1 -4.5v-5zM81 95q1 0 2.5 0.5t1.5 1.5v21q2 0 4 -1t3 -3q-1 -10 0.5 -15.5t3.5 -8t5 -3.5t5.5 -1.5t4 -1t1.5 -3.5q0 -2 -0.5 -3t-2.5 -1q-4 0 -6.5 1.5t-5.5 1.5t-3.5 -1.5
t-0.5 -3.5q0 -4 2.5 -5.5t5 -2t4.5 -2t2 -4.5t-1 -3.5t-3 -0.5t-3 1t-3 1q-4 0 -4.5 -2.5t-0.5 -4.5q0 -3 2 -5t5 -3t6 -1t5 -1l2 -3v-1q0 -2 -2 -2.5t-3 -0.5q-4 0 -7 0.5t-7 0.5v-4v-6v-6v-4t-1.5 -4.5t-4.5 -2.5q-2 0 -3 2t-1 4q0 6 0.5 12t0.5 12q0 4 -4 5t-9.5 1.5
t-10 2.5t-4.5 6q0 2 2 2h3q3 0 5 -1t4.5 -2t4.5 -2t5 -1h2t2 1v14q0 2 -4 3t-9 2.5t-9.5 3.5t-4.5 5q0 2 1 2.5t3 0.5q5 0 11 -3t9 -5h0.5h0.5h0.5h0.5q0 1 0.5 1.5l0.5 0.5v12l-1 0.5t-1.5 1t-3 1t-3.5 0.5t-4.5 1.5t-7.5 2.5t-7.5 2t-4.5 1.5t-1.5 1.5t-0.5 2q0 2 0.5 3
t2.5 1q4 0 7.5 -1.5t7 -3.5t7.5 -4t7 -2zM160 68q0 10 4.5 15.5t15.5 5.5q5 0 9 -0.5t7 -2.5t5.5 -5.5t4.5 -7.5v-1v-1v-4.5t-0.5 -5t-0.5 -4.5v-3q-1 -2 -3.5 -3.5t-6 -2t-6.5 -0.5h-5q-11 0 -17.5 4t-6.5 16zM168 67q0 -3 2 -5.5t5 -4t6.5 -2.5t6.5 -1q4 0 6 3.5t2 7.5
q0 10 -4 13.5t-13 3.5q-6 0 -8.5 -4.5t-2.5 -10.5z" />
</svg>
