<?xml version="1.0" standalone="no"?>
<!DOCTYPE svg PUBLIC "-//W3C//DTD SVG 1.1//EN" "http://www.w3.org/Graphics/SVG/1.1/DTD/svg11.dtd" >
<svg xmlns="http://www.w3.org/2000/svg" xmlns:xlink="http://www.w3.org/1999/xlink" version="1.1" viewBox="-10 0 266 256">
   <path fill="currentColor"
d="M150 147q0 10 3.5 14t8.5 5t10.5 0t10.5 0t8.5 5t3.5 14v66q3 0 6 -1.5t3 -5.5v-56q-2 -4 -2 -7t-1 -8q-2 -8 -6 -11t-9.5 -4.5t-11.5 -1.5t-12 -1q-3 -2 -3 -6v-5q0 -2 0.5 -3.5t0.5 -2.5l5 -5l2.5 -0.5t5.5 -1.5t6.5 -1.5t5.5 -1.5q4 0 8 -0.5t7.5 -1.5t6 -4t2.5 -8
v-27q0 -2 -1 -3.5t-3 -2t-3.5 -1t-3.5 -0.5q-11 0 -22.5 2t-22.5 2h-3q-1 -6 -3.5 -11t-2.5 -11q0 -3 0.5 -5.5t3.5 -4.5q1 -1 1 -3v-3q0 -6 -1.5 -11.5t-4 -10t-6.5 -7.5t-10 -3h-2.5t-1.5 2q0 3 2.5 5.5t5.5 4.5t6 4.5t4 5.5l-0.5 2t-0.5 3.5t-0.5 3t-0.5 2.5h-3
q-3 -4 -7.5 -7t-9.5 -3q0 3 1.5 5t3 3.5t3 3.5t1.5 4q0 4 -3 5t-7 1t-7.5 0.5t-3.5 4.5v1q1 1 3.5 1.5t3.5 0.5h1q5 0 9 -1t8 -1h2q2 2 4 7t3.5 9.5t3.5 8.5t3 4q5 0 9 -2t9 -2h1h3.5t2.5 0.5t1 2.5v1v4.5t-0.5 7.5t-0.5 7.5v4.5q-5 5 -9.5 6.5t-7 3.5t-4.5 6t-2 13zM94 118
h1q0 1 1.5 2t1.5 2v117l0.5 0.5t0.5 1.5h1h0.5h0.5q0 -1 1.5 -2l1.5 -1q0 -2 0.5 -6.5t0.5 -9t0.5 -8.5t0.5 -6v-86q1 -4 4.5 -4.5t6.5 -0.5h21q2 0 2.5 -2t0.5 -4t-0.5 -3t-4.5 -1h-2t-2.5 0.5t-3 0.5h-2.5q-3 1 -11.5 1.5t-18 1t-18.5 1t-12 0.5v8q7 0 14 -1t14 -1z
M63 230v3t3 1t5 -2t3 -4q5 -22 7.5 -44.5t3.5 -43.5q-1 -2 -2 -5t-4 -3q-1 0 -1.5 0.5l-0.5 0.5q-3 15 -3 28.5t-2 28.5q0 5 -1.5 10t-3.5 10t-3 10t-1 10zM126 224q1 1 2 3t2 2q5 0 5.5 -3.5t0.5 -7.5q0 -12 -1.5 -23.5t-1.5 -24.5v-17v-2t0.5 -4.5t0.5 -4.5v-2
q0 -4 -0.5 -7t-4.5 -3h-1l-0.5 0.5l-1.5 1.5q-1 8 -1 16v16q0 16 1 30.5t0 29.5zM76 64q0 3 -4.5 8.5t-10 13t-10 15.5t-4.5 17h5q3 -7 8 -14.5t8 -14.5l43 -47q1 -2 2 -5t1 -6q0 -4 -2 -7.5t-5.5 -6.5t-7.5 -4.5t-8 -1.5q-8 0 -15.5 4.5t-13.5 11.5t-10.5 15t-7.5 15v2
q0 3 0.5 4t2.5 1t4 -2.5t3.5 -5.5l3 -6t2.5 -4q0 -1 1 -1h1q1 0 3 2.5t4 5.5l4 6t3 3v1.5v0.5zM192 90h4q1 0 1.5 0.5t0.5 1.5v22q0 3 -3 4t-5 1h-2q-2 0 -4 -0.5t-2 -1.5v-23q0 -2 1.5 -2.5l3 -1t3.5 -0.5h2zM83 90q0 1 0.5 2t1.5 2h3h5.5h4.5h4h14.5t14.5 -2q2 -1 2 -1.5
v-1.5v-2.5t-2 -1.5h-17h-18h-3t-4 0.5t-4 1.5t-2 3zM159 41q0 3 0.5 6.5t1.5 7t3 6t5 3.5h13q6 0 10.5 -0.5t8 -2t5.5 -5t2 -10.5q0 -3 -0.5 -7t-1.5 -7.5t-2.5 -7t-4.5 -5.5h-1.5h-3.5h-3.5h-2.5q-6 0 -11 0.5t-9 2.5t-6.5 6.5t-2.5 12.5zM71 36q0 -2 1 -4.5t4 -2.5t6 2
t5.5 4.5t4 6t1.5 5.5t-0.5 4t-2 4t-3.5 3t-4 1q-2 -1 -4 -3.5t-4 -6t-3 -7t-1 -6.5zM168 39q0 -1 0.5 -3t1.5 -3.5t2 -3.5t2 -2h19q2 0 2.5 1.5t1.5 3t1 3v2.5v4t-1 6.5t-2 5.5t-4 2h-20q-1 0 -1.5 -2t-1 -5.5t-0.5 -6v-2.5zM87 23q0 -2 2 -2h3q6 0 9 4t3 9v5t-3 2
q-2 0 -4.5 -2t-4.5 -5t-3.5 -6t-1.5 -5z" />
</svg>
