<?xml version="1.0" standalone="no"?>
<!DOCTYPE svg PUBLIC "-//W3C//DTD SVG 1.1//EN" "http://www.w3.org/Graphics/SVG/1.1/DTD/svg11.dtd" >
<svg xmlns="http://www.w3.org/2000/svg" xmlns:xlink="http://www.w3.org/1999/xlink" version="1.1" viewBox="-10 0 266 256">
   <path fill="currentColor"
d="M200 213q0 10 -1 19.5t-1 19.5q1 0 3 -0.5l4 -1t3.5 -1.5t1.5 -2v-72l-4 -24q0 -1 -1 -2.5t-2.5 -2.5l-3 -2t-2.5 -1h-26q-2 0 -3 -1.5t-1.5 -3.5t-0.5 -4v-3v-6q2 -4 6 -5t9.5 -1.5t11.5 -0.5t10.5 -2t8 -6.5t3.5 -13.5t-4 -14t-13 -5q-2 0 -9.5 0.5l-15 1t-14 1
t-6.5 1.5v5h23v21q0 3 -2.5 4.5t-5.5 3.5t-6 6t-3 13q0 1 0.5 4t0.5 4q0 5 5 7t11.5 3t12.5 2t8 3q0 1 0.5 4t0.5 4q0 2 0.5 5.5t0.5 8t0.5 8t0.5 4.5v22zM78 239q0 3 0.5 3.5t3.5 0.5q6 0 9.5 -4.5t6.5 -11t4.5 -13t2.5 -10.5l1.5 -2.5t3 -5.5l2.5 -5t1 -3q3 -6 5 -13
t3.5 -14t2.5 -13.5t3 -13.5q2 -2 4.5 -2.5t4.5 -0.5h2t1 2v29q-1 0 -1.5 1.5l-0.5 1.5q-3 15 -6 29.5t-7 29.5v2v2q5 0 9.5 -3t5.5 -8q0 -2 1 -6t1.5 -9t1.5 -9.5t1 -6.5q0 -5 1 -14.5l2 -19t1.5 -16l0.5 -6.5l-2 -7h-1.5h-2.5q-3 0 -5.5 1t-5.5 1q-2 0 -3 -1.5t-1.5 -3.5
l-1 -4l-0.5 -2q-1 -2 -1.5 -4t-1.5 -4t-2 -3.5t-1 -2.5q-2 -2 -3 -2.5l-2 -1t-1.5 -1t-0.5 -3.5q0 -1 1.5 -4t4 -6.5t5 -6t3.5 -2.5q2 -1 4 -1t4.5 -0.5t5 -0.5h3.5q0 -1 0.5 -2l0.5 -1v-1q0 -2 -2.5 -2.5t-5.5 -1t-5.5 -2t-2.5 -5.5q0 -2 0.5 -5t3.5 -5q1 0 4 0.5t6 0.5
t5.5 -1t2.5 -4l-0.5 -1l-0.5 -1l-14 -3q-2 -1 -2 -3v-3t0.5 -3.5t2.5 -2.5h13l1 -1.5t1 -2.5v-1v-1l-0.5 -0.5l-1.5 -1.5h-3h-4h-4h-3q-6 0 -11 -0.5t-10 0.5t-8.5 3.5t-6.5 8.5q-3 8 -4.5 14.5t-1.5 15.5q0 5 1 9t2.5 8t2.5 7.5t1 6.5q0 2 -0.5 4t-1.5 3t-4 2.5t-6.5 3.5
t-6.5 3.5t-4 2.5q-1 0 -3.5 1t-5.5 2.5t-5 3t-2 3.5t1.5 2h2.5q4 0 9 -2t8 -4q1 -1 3.5 -2.5t5.5 -4t6 -4.5t4 -2t2 -0.5t2 -0.5q3 0 5 1t2 5q0 3 -3.5 6.5t-9.5 7t-12.5 7t-12 6.5t-9.5 5.5t-4 4.5t1 3t3 1q1 0 4 -1.5l7 -3.5t8.5 -4.5t8 -5t5.5 -4.5t1 -3q4 -3 6.5 -4
t6.5 -1t5.5 2.5t1.5 6.5v1v2q-11 8 -20.5 14t-19.5 15q-2 1 -6.5 4t-10 7t-9.5 7.5t-4 4.5q0 2 0.5 3.5t2.5 1.5q3 0 9 -4t13 -9.5l14 -11t10 -8.5l2.5 -2.5l3 -3t3.5 -3t4 -1.5t2.5 2t0.5 4q0 3 -1.5 8.5t-4 13t-5.5 15t-6 14.5t-6 13t-4 9q-1 1 -3 2.5t-3.5 3.5t-2.5 3.5
t-1 3.5zM185 95v-5l4 -3h1.5h2.5q6 0 9 1t3 8t-4.5 10t-10.5 3q-2 0 -3 -1.5t-1.5 -4t-0.5 -4.5v-4zM46 92q0 1 0.5 2.5t1.5 1.5q4 0 6.5 -3t4.5 -6.5t4 -6.5t6 -3h0.5h0.5l13 13h5q0 -5 -3 -10t-5 -9l-2.5 -2.5l-3 -3l-3 -3l-1.5 -1.5h-7q0 1 -1 2.5t-2.5 4.5l-2.5 5t-3 4
t-4 4.5t-3 5t-1 5.5zM102 74q0 -2 1.5 -3.5t3.5 -1.5t5 0.5t3 2.5v1l-1 1.5t-1.5 3t-1.5 3l-1 1.5q0 1 -0.5 1.5l-0.5 0.5h-1q-2 0 -3 -1t-1.5 -2.5t-1 -3.5t-0.5 -3zM165 45v5t1 6t3.5 5t5.5 2q7 0 13 -0.5t11 -3t8 -7t3 -12.5q0 -6 -1.5 -10t-7.5 -8h-4.5h-4.5q-7 0 -12 1
t-8.5 3.5t-5 7t-1.5 11.5zM100 52q0 -4 2.5 -6.5t6.5 -2.5h5q3 0 5 0.5t3 2t1 5.5q0 3 -1 6.5t-5 3.5h-5.5t-5 -1t-4.5 -3t-2 -5zM44 53l3 2h1h1q6 -5 10 -11t9 -10q3 0 4.5 2.5t2.5 5t2.5 4.5t3.5 2t3.5 -1t1.5 -3v-1q-1 -2 -2.5 -6t-4 -7.5t-5.5 -6.5t-7 -3q-2 0 -4.5 2.5
t-4.5 6t-4 6.5t-3 5q-1 1 -2 2.5t-2 4t-1.5 4.5t-1.5 2zM172 43q0 -3 2.5 -6t5.5 -4.5t7 -2t7 -0.5q2 0 3 1.5t1 3v3.5v3q0 6 -4.5 9t-10.5 3q-5 0 -8 -2.5t-3 -7.5zM108 33q0 -3 2.5 -5t5.5 -2.5t6 -0.5h5q0 6 -1.5 9t-6.5 3h-3.5h-3t-3 -1t-1.5 -3z" />
</svg>
