<?xml version="1.0" standalone="no"?>
<!DOCTYPE svg PUBLIC "-//W3C//DTD SVG 1.1//EN" "http://www.w3.org/Graphics/SVG/1.1/DTD/svg11.dtd" >
<svg xmlns="http://www.w3.org/2000/svg" xmlns:xlink="http://www.w3.org/1999/xlink" version="1.1" viewBox="-10 0 266 256">
   <path fill="currentColor"
d="M154 159q1 1 3.5 3t4.5 2h21q2 0 3.5 2t2 4t0.5 4v3v75q1 0 3 -0.5t3.5 -1t2.5 -1.5t1 -3v-74q0 -1 -0.5 -3t-1.5 -5t-2 -5t-2 -2l-28 -3q-2 0 -3 -2t-1.5 -4t-0.5 -4v-4v-6q0 -1 1.5 -1.5t2.5 -0.5t2 -0.5t2 -0.5t4.5 -0.5l7 -1l7 -1t4.5 -0.5q6 -2 8.5 -6t2.5 -10v-6
q0 -4 -1 -7.5t-3 -6t-5 -2.5h-30q-1 1 -4 1t-5.5 0.5t-4 1.5t-1.5 4q0 1 1.5 2.5t2.5 1.5t3.5 -0.5t3.5 -1.5h3q2 0 3 0.5l3 1.5v4v4v3v4q0 3 -0.5 5t-1.5 3q-3 3 -5.5 3.5t-4.5 1.5t-3 4.5t-1 11.5q0 1 0.5 3t0.5 4t0.5 4t0.5 3zM52 245q0 1 0.5 2.5t2.5 1.5t3 -0.5t2 -2.5
v-4t0.5 -6t0.5 -5.5v-4.5v-8v-14v-15v-16v-13.5v-8.5q1 -2 1 -7t0.5 -11t1.5 -12t2.5 -11.5t4.5 -8.5t8 -3q3 0 4 2.5t1 5.5q0 2 -1 4.5t-2 4.5t-2 4.5t-1 5.5t2 4.5t4.5 2t5.5 1t5 1.5q-2 4 -5 6.5l-6 5t-5 5.5t-2 8q0 3 0.5 5t1.5 4.5t3 4t5 1.5q1 0 2.5 -0.5t1.5 -2.5
q0 -1 -1 -2t-2.5 -3t-2.5 -4t-1 -5t1 -5.5t6 -2.5q1 0 2 1t2 3q1 1 3.5 4t2.5 4t1 1q2 0 2.5 -1t0.5 -2q0 -3 -1 -5.5t-2.5 -4.5t-2.5 -4t-1 -5q0 -1 1.5 -2l3 -2t2.5 -2t1 -4t-3.5 -3.5t-7.5 -0.5t-7.5 -1t-3.5 -5q0 -3 5 -5.5t11.5 -3t12.5 -1t8 -0.5q4 0 6 2.5t2 5.5
q0 2 -1 5t-3 5l-4 4l-4 4v4.5v4.5v5.5t1 7.5t3 7t5 3q2 0 2.5 -1.5t0.5 -3.5q0 -3 -1 -5t-2 -4.5l-2 -5t-1 -5.5q0 -2 0.5 -4t3.5 -2h1t1 1q1 0 2 2.5t2 4.5t2 4.5t2 3.5l1.5 1l1.5 1q2 1 3.5 -1t1.5 -3q-3 -5 -6.5 -11.5t-3.5 -12.5q0 -5 2 -7t2 -5q0 -6 -4 -7.5t-8.5 -2
t-8.5 -1.5t-4 -6q0 -3 2 -4.5t5 -2t6.5 -1t4.5 -0.5q3 -1 3 -2v-2v-3v-3t-0.5 -4.5t-0.5 -5v-2.5q-2 -3 -5.5 -3.5l-7 -1t-6 -2t-2.5 -5.5q0 -2 2.5 -4.5t5.5 -5t5.5 -6t2.5 -8.5v-5t-4 -3q-2 0 -3 3t-2 7t-4 7.5t-9 3.5q-2 0 -4 -2t-2 -4v-23q0 -3 -0.5 -3.5t-1.5 -0.5h-3
t-2 1v26q0 2 -2 5t-4 3q-7 0 -9.5 -3.5t-3.5 -8t-2 -8t-5 -3.5q-3 0 -3.5 1.5t-0.5 3.5t0.5 5.5t2 6.5l3 6t3.5 4q3 2 5 2t3.5 0.5t2 2t0.5 3.5q0 6 -3.5 7t-8.5 0.5t-8.5 0t-3.5 5.5q0 2 1.5 2.5t3.5 0.5q5 0 9 -0.5t9 -0.5v13q0 3 -2.5 4.5t-6 2t-6.5 1.5t-5 2t-3.5 6
t-2.5 12t-2 15t-1 15v12v6q0 2 -0.5 8t-0.5 14t-0.5 17t-0.5 17v14.5v8.5v3zM109 215q1 1 2.5 3.5t3.5 5.5l4 6t2 4q1 1 2.5 3l3 4t3 3.5t3.5 1.5t3.5 -1.5t1.5 -3.5t-4 -7t-9 -11.5t-9.5 -13.5t-4.5 -13v-4.5v-7.5v-7.5v-4.5q0 -2 -1.5 -2.5t-2.5 -0.5h-2.5t-1.5 2
q1 12 0 20.5t-4 16t-8 15t-13 17.5v6q7 0 10.5 -5t6 -11t5 -11t7.5 -5h1t1 1zM73 213q0 3 4 3q2 0 4.5 -3t4 -7.5t2.5 -9t1 -5.5q0 -2 -0.5 -4.5t-3.5 -2.5q-1 0 -2.5 4.5t-3.5 9.5t-4 9.5t-2 5.5zM123 183l1 5.5t3 11.5t4.5 11t5.5 5q2 0 3.5 -0.5t1.5 -3.5q0 -4 -2.5 -7.5
t-4.5 -6.5q-1 -2 -2 -5t-2 -6.5t-2 -6t-2 -2.5q-2 0 -3 1.5t-1 3.5zM175 114v-1q1 -2 1 -5.5t0.5 -5.5t0.5 -3h12q1 1 1.5 2.5t2 3.5t1.5 4v0v1q0 1 -1 4.5t-2 4.5q-1 0 -2.5 0.5t-2.5 1.5h-1q-4 0 -7 -1.5t-3 -5.5zM92 99q0 -3 3 -5t6 -2q1 0 1.5 1t1 2.5t0.5 2.5v1
q0 1 0.5 1h0.5q0 4 -2.5 5t-4.5 1h-4q-2 -2 -2 -3.5v-3.5zM91 82q0 -6 1.5 -8t7.5 -2q3 0 4.5 2t2 4t0.5 5v4h-15q-1 0 -1 -2v-3zM114 75q0 -3 2 -4t5 -1t5 2t2 5q0 2 -0.5 4t-1.5 3l-2 0.5t-3 0.5q-5 0 -6 -2.5t-1 -7.5zM147 54q0 2 0.5 4.5t2 5.5t3 5t2.5 2h27q3 0 6 -2
t5.5 -4.5t4 -5.5t1.5 -6q0 -8 -4 -14t-13 -6q-6 0 -12 1t-11 3.5t-8.5 6.5t-3.5 10zM91 59v0l1 -5h2.5t3 -0.5t3 -0.5h2.5h3v10q0 2 -2 2h-3h-3t-3.5 -0.5t-2.5 -1.5t-1 -4zM176 42h4h3q3 1 4 4t1 6q0 4 -2 6.5t-5.5 4t-7 2t-7.5 0.5q-1 -1 -4 -3t-3 -3v-12q0 -2 2.5 -3
t5.5 -1.5t5.5 -0.5h3.5z" />
</svg>
