<?xml version="1.0" standalone="no"?>
<!DOCTYPE svg PUBLIC "-//W3C//DTD SVG 1.1//EN" "http://www.w3.org/Graphics/SVG/1.1/DTD/svg11.dtd" >
<svg xmlns="http://www.w3.org/2000/svg" xmlns:xlink="http://www.w3.org/1999/xlink" version="1.1" viewBox="-10 0 266 256">
   <path fill="currentColor"
d="M187 247q0 2 0.5 3t3.5 1q1 0 3 -0.5t2 -2.5v-99l-1 -1l-2 -2t-2.5 -2t-2.5 -2t-3.5 -1t-3.5 -2h-2.5t-3.5 -0.5t-3.5 -0.5h-2.5q-1 -1 -2.5 -1t-3.5 -0.5t-3 -2t-1 -2.5q0 -8 3 -11.5t7.5 -4t10 -0.5h10t7.5 -2.5t3 -8.5t-1 -9.5t-3 -7.5q-7 -2 -14 -2h-14h-4h-4.5h-5.5
h-3q-1 1 -1 1.5v1.5q0 3 2 3.5t5 0.5t5.5 0.5t2.5 2.5v14l-1.5 1t-3 2.5t-3 2.5l-1.5 1q0 1 -0.5 3t-1 4.5t-1 4.5t-0.5 3v1q0 7 4.5 9t10 2.5t11 1.5t6.5 5q2 4 2 8t1 8v29q0 1 0.5 2.5t0.5 3t0.5 3t0.5 2.5v0v1q0 1 -0.5 2.5t-1.5 2.5v4v8v7v5t-0.5 4t-0.5 4v2zM55 233
q1 1 1.5 3t2.5 2t3 -2.5t2 -3.5q-1 -8 -0.5 -14l1 -12t1 -11.5t0.5 -12.5t-1 -14.5t-1 -15.5v-3q0 -1 0.5 -5t1 -8.5t1 -8.5t0.5 -5q0 -4 0.5 -10t1.5 -12t4 -10.5t9 -4.5h3h5.5h4.5h4q9 0 16.5 -0.5t12 1.5t6.5 7.5t3 16.5v5v9v10.5t0.5 11t0.5 9v5.5v1v10.5t-0.5 11.5
t-0.5 12v10q-1 7 -2.5 13t-1.5 12q0 2 0.5 3.5t4.5 1.5l2 -1.5t3 -1.5q0 -8 0.5 -15t0.5 -13.5v-13.5v-15v-7v-9.5v-7.5v-4v-8.5t-0.5 -13.5t-0.5 -13.5v-7.5v-9q0 -5 -2 -9q-1 -3 -6.5 -5t-12 -3t-12.5 -1.5t-7 -0.5h-2q-2 0 -6.5 0.5l-9 1t-8 1t-4.5 0.5q-4 0 -6 2
t-3.5 4.5t-2 6t-0.5 6.5q-1 3 -1.5 10t-1 13.5t-1 12t-0.5 7.5q-2 16 -2 32.5v33.5v26zM113 233q1 2 2 2.5t2 0.5q2 0 3.5 -1.5t1.5 -3.5q0 -8 -2.5 -16.5t-2.5 -16.5q0 -1 0.5 -3t1.5 -4l2 -4t2 -2v-14q0 -3 -5 -5t-11.5 -2.5t-12.5 -0.5h-7l-2 -0.5t-3 -0.5q-2 0 -3.5 0.5
t-1.5 1.5v1q1 1 1 1.5t1 0.5q8 1 17 2t17 2q5 2 5 5t-0.5 6t-3.5 3q-4 0 -6 -2.5t-5 -3.5q-5 -1 -8.5 -2t-7 -1.5t-7 -0.5h-8.5v3t2 4h7.5t8.5 0.5t8 1.5t7 2q1 0 1.5 0.5l0.5 0.5q0 1 -0.5 2t-1.5 2q-3 0 -7 0.5t-8.5 0.5h-8.5h-7v4q9 1 17.5 1.5t16.5 0.5q2 0 3 5t1.5 11
t0.5 11.5v7.5zM71 136q0 8 4 12t10 5.5t13 1.5h14q10 0 13.5 -5t3.5 -16q0 -3 -5 -5.5t-11.5 -3.5t-12.5 -1.5t-8 -0.5h-7.5t-6.5 1.5t-5 4t-2 7.5zM97 135v-3t2 -2q3 0 4.5 2.5t2.5 6t1.5 7t0.5 4.5q-3 0 -5 -1.5t-3.5 -4t-2 -5t-0.5 -4.5zM78 137q0 -1 0.5 -3l0.5 -2
q0 -1 2.5 -2l2.5 -1q3 -1 4.5 1.5t2 6t0.5 7.5v4q-7 0 -10 -2.5t-3 -8.5zM111 133q4 0 8 1.5t4 6.5q0 2 -1 4.5t-4 2.5q-2 0 -3.5 -2t-2 -4.5l-1 -5t-0.5 -3.5zM79 113q4 0 10.5 0.5t13 0.5h13h11.5q0 -2 -0.5 -4t-3.5 -2l-44 -1q-1 0 -2 0.5l-1 0.5v1v1l1 1zM173 107v-5
q0 -5 2.5 -7.5t7.5 -2.5q4 0 6 4t2 7q0 2 -1 3.5t-2 1.5h-5h-5t-5 -1zM84 96q4 1 8.5 1t9.5 0.5t10 0.5h9v-2.5t-1 -1.5q0 -1 -0.5 -1.5l-0.5 -0.5h-35v4zM105 30q0 2 0.5 4.5t0.5 5.5t1 5.5t1 4.5q1 1 3.5 2t4.5 2t4 2.5t2 3.5v2.5v3.5v4v3h3q0 -1 0.5 -3l1 -4t1.5 -3.5
t1 -2.5q1 -1 1.5 -2l0.5 -1l12 -3q2 -1 2.5 -3.5t1 -6t0.5 -6.5v-3v-11q-1 -1 -1.5 -1h-1.5t-1.5 0.5t-1.5 2.5q0 1 -0.5 4t-1 6.5t-1 6t-0.5 3.5q0 2 -1.5 2h-2.5t-2 -0.5t-1 -2.5v-32q0 -2 -2 -3t-4 -1v3.5v5.5v5.5v3.5q0 2 -0.5 5.5l-1 7t-1.5 6t-4 2.5q-5 0 -5.5 -4
t0 -8.5t0 -8.5t-3.5 -4h-2t-2 1v3v3zM77 70l2 2q3 -2 3.5 -4.5t0.5 -5.5v-5.5t3 -4.5q1 0 2 -0.5t2.5 -1t3 -0.5h1.5q2 -1 3 -4.5t2 -8t1 -9v-5.5t-1.5 -2.5t-2.5 -1.5q-3 0 -3 3.5v8.5t-1 9t-4 4h-3t-2 -2v-31l-1 -1t-1 -2h-0.5h-0.5h-0.5h-0.5q0 1 -1 1.5l-1 0.5v33
q-1 0 -3 0.5t-4 0t-3.5 -1t-1.5 -3.5v-19q0 -2 -1.5 -2.5t-2.5 -0.5q-3 0 -3.5 1.5t-0.5 3.5v1q0 1 0.5 4.5l1 7l1 7t0.5 4.5q1 2 4 3t5.5 1.5t4.5 2t2 4.5l0.5 2t0.5 4t-0.5 4t-0.5 3zM158 49q0 5 0.5 9t2.5 7t5.5 5t9.5 2q7 0 11 -1.5t6.5 -4.5t3.5 -7t1 -10
q0 -4 -0.5 -7.5t-2 -6t-4.5 -4t-8 -1.5q-3 0 -6.5 0.5t-7 1.5t-6 3t-4.5 4q0 1 -0.5 4.5t-0.5 5.5zM165 58v-4t1 -6t2 -5t4 -2h5.5t6 1t4.5 3t2 5q0 9 -3.5 11t-11.5 2h-7q-2 -1 -2.5 -2.5t-0.5 -2.5z" />
</svg>
