<?xml version="1.0" standalone="no"?>
<!DOCTYPE svg PUBLIC "-//W3C//DTD SVG 1.1//EN" "http://www.w3.org/Graphics/SVG/1.1/DTD/svg11.dtd" >
<svg xmlns="http://www.w3.org/2000/svg" xmlns:xlink="http://www.w3.org/1999/xlink" version="1.1" viewBox="-10 0 266 256">
   <path fill="currentColor"
d="M182 248q1 3 4 3q2 0 3 -1.5t2 -3.5v-3t0.5 -5t0.5 -5v-3v-4q0 -3 -0.5 -5.5t-0.5 -4.5v-3q0 -2 -0.5 -8.5t-1 -13.5t-1.5 -13.5t-1 -8.5q1 -6 -3.5 -9t-10 -4.5t-12 -2t-9.5 -2.5v-4q0 -3 0.5 -4.5t2 -2.5t3.5 -2t5 -2q1 0 4.5 -0.5t7.5 -1t7.5 -1t4.5 -0.5
q7 -1 8.5 -6.5t1.5 -11.5q0 -5 -0.5 -10t-5.5 -8h-10h-9h-12.5t-11 1t-4.5 3q0 3 3 4h2.5h4.5h4h3l2 1v21l-0.5 0.5t-1.5 0.5q-4 2 -6.5 3t-4.5 3t-2.5 4.5t-0.5 8.5q0 8 2 11t5.5 4t8 0t8 0.5t6 6.5t3.5 16v7.5t0.5 12.5t1 13t0.5 9v21zM121 242q-1 3 0.5 4t2.5 1
q2 0 3.5 -1t2.5 -3q0 -9 0.5 -15t0.5 -14v-6q0 -2 -1 -5q0 -21 -1.5 -41t-2.5 -41q0 -2 -2 -4l-3 -3q-1 0 -3.5 -0.5t-5 -0.5t-4.5 -0.5t-3 -0.5t-2 -0.5t-1 -1.5v-20q0 -2 2 -2.5t5 -1.5t5 -2.5t2 -4.5v-18q0 -2 -1 -3t-2.5 -1.5t-3.5 -1t-3 -0.5h-9.5t-8 1.5t-6 4.5
t-2.5 9q0 4 0.5 5.5t1.5 5.5q0 2 2.5 3.5t5 2t4.5 1l2 0.5v24q-13 1 -19 4.5t-8.5 9t-3 14t-0.5 20.5q-1 11 -3 22t-2 23v1l1 0.5l1 0.5q0 1 -1 3.5l-1 2.5v2v4.5v4.5v4v2v4.5v4.5v3q1 1 2 1h3t3.5 -1t1.5 -3q0 -24 1.5 -46.5t0.5 -45.5q1 -3 1 -6.5t1 -7.5t2.5 -7t3.5 -4
q6 -1 10.5 -2t10.5 -1h4.5t5.5 0.5t5 1.5t3 3q2 22 2.5 43.5t0.5 43.5v5v5.5t-0.5 7.5t-0.5 7.5v5.5zM74 200q1 2 3 3t4 1.5t4 0.5h3q2 0 6.5 -0.5t9 -1.5t8 -2.5t3.5 -2.5v-2.5t-1 -1.5h-11q-1 0 -1 -2v-3q0 -3 1.5 -4t4 -2t4.5 -1.5t2 -3.5v0l-1.5 -1.5l-0.5 -0.5h-10
l-0.5 -0.5l-0.5 -0.5q-1 -1 -1 -3v-2v-3q0 -1 1 -1l8 -9v-29h-3q-1 6 -2.5 8.5t-7.5 2.5q-4 0 -5.5 -1.5t-2 -3.5l-1 -4t-2.5 -2q-1 0 -2 0.5t-1 1.5l1 27q0 2 2 3t3.5 2l3 2t1.5 2v10q0 2 -2 2.5t-5.5 0.5t-5.5 0.5t-2 3.5v1l0.5 0.5l0.5 0.5h8t4 1t1.5 3.5t0.5 6.5h-17
l-1 1.5t-1 2.5zM90 149q0 -4 2.5 -4h5.5h3.5t1.5 3q0 4 -0.5 6.5t-4.5 2.5q-8 0 -8 -8zM170 111q0 -5 3 -5.5t8 -0.5h5l1 1q1 1 2 3.5l1 2.5l-4 13q-1 1 -2 1.5t-2.5 0.5h-2.5h-1q-3 0 -5 -1.5t-2.5 -3.5t-0.5 -5v-6zM57 112q0 2 0.5 3t2.5 2q1 0 5 -2.5t8 -6t7 -7t3 -5.5
v-2t-1 -1q-2 0 -6 2.5t-8.5 5.5t-7.5 6t-3 5zM112 95v0.5v0.5l2 1l3 3t4 4.5t5 4t6 1.5q1 0 1.5 -0.5t0.5 -1.5q0 -3 -2 -5.5t-5.5 -4.5t-6.5 -3.5t-6 -1.5v0q-1 0 -1.5 0.5l-0.5 0.5v0.5v0.5zM89 70q0 -5 4 -6t8 -1h5q3 1 3.5 4t0.5 5q0 4 -2 6.5t-6 2.5q-6 0 -9.5 -2
t-3.5 -9zM148 59q0 7 3.5 13t11.5 6q2 0 7 -0.5t9.5 -1.5t8 -3.5t3.5 -6.5v-18q0 -3 -2 -5t-4.5 -2.5t-5.5 -1t-5 -0.5q-8 0 -13.5 2.5t-10.5 9.5v1q0 1 -1 3.5l-1 2.5v1zM157 60q0 -8 4.5 -10t11.5 -2h2.5t3 0.5t3 1.5t1.5 2v12q0 2 -2.5 3l-5 2t-5 1h-2.5q-6 0 -8.5 -2
t-2.5 -8zM96 30q0 3 -2 5t-5 3t-6.5 2t-4.5 2q-1 0 -4 1.5t-5.5 3t-5 2.5t-3.5 2q-2 1 -2 3v3q6 0 11 -1.5t10 -4.5t9.5 -5.5t9.5 -5.5h7l23 12l1 0.5l1 0.5q2 0 3 -1t1 -3v-1.5t-2 -1.5l-2.5 -1t-4.5 -2t-4 -2.5t-3 -1.5q-1 -1 -3.5 -2t-5 -2.5t-4.5 -3t-2 -2.5v-18
q0 -1 -1 -1.5l-1 -0.5h-1q-3 0 -4 3.5t-1 5.5q0 3 0.5 6t0.5 6z" />
</svg>
