<?xml version="1.0" standalone="no"?>
<!DOCTYPE svg PUBLIC "-//W3C//DTD SVG 1.1//EN" "http://www.w3.org/Graphics/SVG/1.1/DTD/svg11.dtd" >
<svg xmlns="http://www.w3.org/2000/svg" xmlns:xlink="http://www.w3.org/1999/xlink" version="1.1" viewBox="-10 0 266 256">
   <path fill="currentColor"
d="M192 246q0 2 0.5 3.5t2.5 1.5q3 0 6 -4t3 -7v-6t0.5 -9t0.5 -9v-6v-15t-0.5 -14l-1 -14t-2.5 -15q-3 -3 -7 -4.5t-9 -1.5h-9.5t-8.5 -1t-6.5 -3.5t-2.5 -8.5q0 -2 2 -4.5t4 -4.5q2 0 6.5 -0.5t9.5 -1.5t9 -1.5t6 -0.5q9 -2 10.5 -8t1.5 -14q0 -3 -2 -6t-5 -5h-14h-9
t-8 0.5t-8 0.5t-9 1l-2 1v1q0 2 1.5 3t3.5 1t4.5 -0.5t4.5 -0.5q3 0 5.5 2t2.5 5q0 7 -1.5 10t-3.5 4.5t-5 2.5t-5 2.5t-3.5 4.5t-1.5 10q0 8 3.5 12t9 5.5t12.5 2t13 0.5q1 0 2.5 7t2 15t1.5 15.5t1 9.5q0 11 -2.5 22t-2.5 22zM49 240q0 4 1 6t4 2t5 -2.5t2 -5.5
q0 -1 -0.5 -2.5t-1.5 -2.5v-13q0 -18 2 -35.5t6 -34.5q1 -3 3.5 -4.5t6 -2t7 0t5.5 0.5q2 -1 3.5 -3.5t1.5 -4.5h-15q0 -3 2 -5t4.5 -3.5t4.5 -3.5t2 -5t-3 -3t-5.5 2t-5 5t-5 5t-4.5 2t-3.5 -0.5t-1.5 -2.5q0 -4 2.5 -6.5t6 -5t6 -5t2.5 -5.5q0 -2 -1 -2.5t-2 -0.5
q-3 0 -7 3t-7.5 7.5t-6 9t-2.5 6.5q0 3 1 4.5t2 3.5t2 3.5t1 3.5v1q0 1 -1.5 3.5l-1.5 2.5q-1 3 -2 7.5l-2 9t-1.5 9t-0.5 6.5q-1 3 -1.5 11t-1 17t-0.5 17v11zM126 245q0 1 0.5 1t2 0.5t2.5 0l1 -0.5h2h2q1 -1 1.5 -4.5t0.5 -4.5v-1v-1q0 -3 -0.5 -10.5t-1 -16t-1 -16.5
t-0.5 -11q-1 -9 -3.5 -17.5t-2.5 -17.5q0 -3 1 -6l2 -6l2 -6t1 -6q0 -2 -1.5 -4.5t-3.5 -5t-4 -4t-4 -1.5q-1 0 -2.5 0.5t-1.5 2.5q0 1 1 3t2.5 4.5t3 5.5t1.5 5t-0.5 4t-2.5 2v0q-3 -4 -8.5 -8.5t-10.5 -4.5h-1.5t-1.5 2q1 1 3.5 3t5 3.5t4 3.5t1.5 5q0 2 -2 2.5t-4.5 0.5
h-5t-2.5 2l3 4h14q1 0 2.5 2.5t2 6.5t1.5 8.5t1.5 9t1 8t0.5 4.5v5v9v8v6l2 3v3.5v4.5v10t-3 10zM101 238q1 2 2 2h2q3 0 4 -1t1 -5q0 -1 -0.5 -4l-1 -6t-0.5 -6t-1 -4q-1 -7 -5.5 -9.5t-9.5 -3.5t-9 -2t-4 -4t2.5 -5t6 -2.5t7.5 -1t7.5 -2.5t5.5 -6t2 -11q0 -3 -0.5 -5
t-5.5 -4h-7h-6q-2 0 -4.5 0.5t-5 0.5t-6.5 1v1q0 3 1 3.5t3 0.5h3q2 0 4 1v3v2q0 5 -2.5 8t-5 5.5t-4.5 6t-2 8.5t4 7t9 2.5t9.5 1t5.5 2.5q1 6 1.5 13.5t-0.5 12.5zM92 171q0 -2 0.5 -5t4.5 -3q3 0 3.5 2.5t0.5 4.5q0 4 -0.5 6.5t-3.5 2.5q-4 0 -4.5 -2.5t-0.5 -5.5z
M180 112q0 -1 -0.5 -2.5t-0.5 -3.5t-0.5 -4l-0.5 -2v-1q0 -2 2 -3t4 -1.5t4.5 -0.5h3.5q4 0 5 2.5t1 6.5q0 6 -4.5 8.5t-10.5 2.5h-2t-1 -2zM56 90q1 5 2.5 6t5.5 1q5 0 10 -2t7 -8q4 6 9 8t11 2q4 0 7 -1.5t7 -1.5q2 0 3 0.5t2 2.5h2h3q4 0 7.5 -0.5t5.5 -4.5q2 -6 3 -11
t1.5 -9.5t0.5 -9v-10.5v-3v-5v-4.5v-3.5q-1 -2 -2.5 -3t-3.5 -1h-1l-0.5 0.5l-0.5 0.5v11q0 1 -1 2t-2 1.5t-2 0.5h-2q-5 0 -6.5 -2.5t-2.5 -6t-3.5 -7t-9.5 -6.5v-13l-2 -4t-3 -2q-1 0 -2 0.5t-1 1.5v20q0 1 -1.5 1.5l-3 1l-3 1l-1.5 0.5q-2 2 -3.5 4t-2.5 4t-2.5 3.5
t-3.5 1.5h-4q-2 0 -4 -0.5l-4 -1t-2 -1.5v-14l-1.5 -1t-2.5 -1h-1q-2 0 -2.5 1t-0.5 2.5v2.5v2v6v10t0.5 15t0.5 15v9zM118 90v-3q0 -7 1.5 -10.5t7.5 -3.5q5 0 5.5 2.5t0.5 7.5v2.5t-1 3t-2 2.5t-2 1h-1q-1 0 -4.5 -0.5t-4.5 -1.5zM93 86l8 -12q0 -1 1 -1v0q1 0 1 1l1 2
t1.5 4.5t1 4t0.5 2.5t-1.5 1.5t-2.5 0.5t-2.5 -0.5t-3.5 -0.5t-3 -1zM64 80v-5q2 -1 5.5 -2t6.5 -1q4 0 4.5 3.5t0.5 7.5v2t-2 1h-13q-1 0 -1.5 -0.5t-0.5 -1.5v-4zM105 61l0.5 -0.5l0.5 -0.5q0 -2 1 -4.5t2 -4.5t2 -3.5l1 -1.5h1v32h-1l-1 -1.5t-2 -4l-2 -5t-1 -4.5
l-0.5 -0.5t-0.5 -1.5zM86 75v-9v-9.5t1 -9.5h2q2 0 3.5 1.5t2 3.5t1.5 4t1 4t-0.5 5t-1.5 5.5t-3 4.5t-5 2l-0.5 -0.5t-0.5 -1.5zM159 64q2 3 5 6.5t5 3.5h1q2 -1 4.5 -1t5.5 -0.5t5 -0.5h2h1.5t3 -0.5t3 -1.5t2.5 -1l1.5 -3l1 -2l1 -2t2.5 -2v-22q0 -2 -2.5 -2.5t-5 -0.5
h-5h-2.5h-11t-11 1q-5 4 -6 8.5t-1 10.5v9zM130 53q2 0 3 0.5t2 1.5v2v2q0 6 -4 7t-9 1h-1t-1 -1v-11l3.5 -0.5t5.5 -0.5v-1h1zM64 63v-4q0 -5 3 -6t8 -1q3 0 3.5 3.5t0.5 5.5q0 1 -1 3t-2 2h-1l-1 -1l-1 -1q-1 0 -4.5 -0.5t-4.5 -0.5zM166 54q0 -4 1.5 -6.5t4.5 -4t7 -2
t7 -0.5q4 0 6.5 2t2.5 7q0 8 -4.5 11t-12.5 3q-5 0 -8.5 -1.5t-3.5 -8.5zM96 40q0 -2 2 -3t4 -1h4h3q0 2 -1 4t-2.5 3.5l-3 3l-2.5 2.5q-3 -1 -3.5 -4t-0.5 -5z" />
</svg>
