<?xml version="1.0" standalone="no"?>
<!DOCTYPE svg PUBLIC "-//W3C//DTD SVG 1.1//EN" "http://www.w3.org/Graphics/SVG/1.1/DTD/svg11.dtd" >
<svg xmlns="http://www.w3.org/2000/svg" xmlns:xlink="http://www.w3.org/1999/xlink" version="1.1" viewBox="-10 0 266 256">
   <path fill="currentColor"
d="M197 200q0 13 -1 26t-1 26q3 0 5.5 -1.5t3.5 -4.5q2 -8 2 -17v-18v-5v-6.5v-5.5v-3q0 -2 -0.5 -7t-1 -11.5t-1 -12t-1.5 -7.5q-2 -4 -5 -7t-7.5 -3.5t-9.5 -1t-10 -0.5l-1 -1v-15l3 -4h2t5 -0.5t5.5 -1t4.5 -1t5 -1t6.5 -1.5t6 -3t2.5 -5v-19q-3 -2 -4 -3.5t-2 -2
t-3.5 -1t-7.5 -0.5h-9h-7.5t-7.5 0.5t-10 0.5q-1 1 -2.5 2t-1.5 2v1l0.5 0.5l0.5 0.5h17q2 0 2.5 2t0.5 4.5v4.5v2v3.5v3.5l-5.5 5.5l-5 5t-4 5.5t-0.5 8q0 1 0.5 3l1 4t1 3.5t0.5 2.5q4 2 7 3t6 1.5t6.5 0.5t7.5 -1q3 2 4 5.5t1.5 7t1 7.5t0.5 6v24zM114 195v5v6.5v6.5v4
q0 3 0.5 6t1.5 5t3 3.5t6 1.5q1 0 3.5 -0.5t5.5 -0.5t6 -0.5t5 -0.5q5 -1 7.5 -4.5t3.5 -8t1 -10v-9.5v-3t-0.5 -3.5t-1.5 -3t-3 -1.5h-1v2.5t-0.5 3t-0.5 3t-1 2.5q0 2 -2.5 2h-3.5h-4q-2 -2 -2 -4v-5v-2.5v-2.5q1 -3 3 -3.5t4.5 -1t4 -1.5t2.5 -5v-2t0.5 -4.5t0.5 -5v-3.5
v-1q0 -2 -1 -4.5t-3 -2.5h-1h-1v4t-0.5 5.5t-0.5 5.5v4t-1.5 2.5t-2.5 1.5q-3 0 -4 -4t-1.5 -9t-0.5 -10v-7l0.5 -1.5l0.5 -1.5q0 -1 1 -1.5t2.5 -0.5t2.5 -0.5l1 -0.5q2 -1 3 -4t1.5 -6.5t1.5 -7.5t2 -7v-0.5v-0.5q0 -3 -1.5 -3h-3.5q-10 0 -19.5 2t-19.5 2q-1 0 -1.5 0.5
t-0.5 1.5q0 2 1.5 2.5l3 1t3 0.5t1.5 2q-1 8 0 11t3 4t5 2t6 6q-1 9 0 16t1 15q-5 0 -7.5 -1t-4 -3t-1.5 -5v-9h-5q0 8 1 12.5t3 7t4.5 3t4.5 1.5t3.5 2t2.5 5q0 1 -0.5 2.5t-0.5 3v3.5v2q-6 0 -7.5 -0.5t-2 -2t-1.5 -2.5t-4 -1zM54 196v8.5v9.5t1 9.5t5 7.5h14h14
q1 0 3 -0.5l4 -1t4 -1.5t2 -3v-26l-1.5 -2.5t-1.5 -3.5l-2 -2h-1q-1 0 -2 1.5t-1.5 3.5t-2 3.5t-5.5 1.5q-1 0 -2 -0.5t-1 -1.5v-3v-2q0 -7 2 -9t4.5 -2t5 -0.5t3.5 -4.5l0.5 -2t0.5 -4.5t0.5 -5t0.5 -4.5v0q0 -4 -4 -4h-1.5h-1.5v4t-0.5 6t-2 5.5t-4.5 2.5h-2v-4t-0.5 -6.5
t-0.5 -6.5v-4v-4q0 -2 1.5 -3t3.5 -1.5t3.5 -1t1.5 -2.5q0 -1 0.5 -2.5t0.5 -3t0.5 -3.5l0.5 -2q0 -1 1 -3l2 -4t2 -3.5t1 -2.5v-1l-1 -1h-4h-6h-6h-3h-6h-6h-5h-2h-3t-4 0.5t-4 1.5t-2 2q0 3 1.5 4t3.5 1h4h4q1 0 1 3t0.5 7t2.5 7.5t8 3.5q1 6 1 10v10v8q0 1 -2 1h-3
q-3 0 -3.5 -2.5t-0.5 -5.5t-0.5 -6t-3.5 -3q-1 0 -2 0.5t-1 1.5v18q0 3 2 4t5 1h5.5t2.5 3v14q-1 0 -3.5 0.5l-2.5 0.5q-2 0 -3 -2t-2 -3.5t-2 -2.5t-3 -1q-1 0 -2 0.5t0 2.5zM64 217q0 -4 2.5 -5.5t6 -2.5t7.5 -1h6h3h2q1 1 1.5 3.5l0.5 2.5q0 4 -1.5 6t-4 3t-5 1.5
t-5.5 0.5q-5 0 -9 -1t-4 -7zM120 216q0 -4 2 -5.5t5 -2t6 -0.5h6h4h5q2 0 2 3v3q0 7 -5 9t-11 2q-2 0 -4.5 -0.5t-4.5 -1.5t-3.5 -2.5t-1.5 -4.5zM70 133q0 -5 2 -7t8 -2h3t3 2v12l-4 3h-10q-1 0 -1.5 -1t-0.5 -2v-5zM120 128q0 -6 5 -8t10 -2h1.5h2.5q0 1 0.5 2.5t0.5 2.5
v2q0 2 -0.5 5t-2.5 5q-1 0 -2.5 0.5t-3 0.5t-3 0.5t-2.5 0.5v0q-4 0 -5 -3t-1 -6zM183 99q0 -10 8 -10q6 0 7.5 2.5t1.5 8.5q0 4 -1 7.5t-5 3.5q-8 0 -9.5 -3t-1.5 -9zM64 99q-1 -1 -2 0t-1.5 2t-0.5 2v2q8 0 16 -0.5t15 -1.5q1 0 1.5 -1.5l0.5 -1.5v-0.5v-0.5q0 -2 -2 -2
h-3q-6 0 -12 0.5t-12 1.5zM137 93q-2 0 -6.5 -0.5t-8.5 0t-7.5 2t-3.5 4.5h26q3 0 4 -0.5t1 -2.5q0 -3 -1.5 -3h-3.5zM90 82h3q1 0 1 1v11q0 1 1.5 1.5t2.5 0.5q3 0 3 -2v-5.5t2 -5t10 -3.5h4t6 -0.5t5.5 -0.5h4.5l3 -3l-2 -2h-29l-3 -3v-1.5v-2.5v-3v-2l0.5 -1t1.5 -1h27
l0.5 -1.5t1.5 -2.5v-1q0 -1 -2 -2.5t-3 -1.5h-21l-3 -3l0.5 -2t2 -4.5t1.5 -3.5q1 -1 1.5 -2l0.5 -1h27l1.5 -1t1.5 -2v-1q0 -2 -1.5 -3t-2.5 -1h-2h-1.5t-3.5 0.5t-3.5 1t-2.5 0.5v0q-4 0 -4 -4t2 -7.5t4 -7.5l-1 -0.5t-2 -1.5t-2 -1.5l-1 -0.5h-1q-1 0 -2 1.5t-1.5 3
t-1 3.5l-0.5 2l-15 29l-4 -3q0 -6 -0.5 -9.5t-1.5 -7t-2 -7.5t-2 -9q0 -2 -1.5 -2h-2.5t-3 0.5t-2 2.5v0q0 1 0.5 2.5t1 4t1 4l0.5 1.5v2v2t-1 1h-20q-2 0 -2.5 2t-0.5 3v2.5t2 1.5h24q2 0 2.5 1.5l1 3t1 3.5t0.5 3q0 4 -2.5 5.5t-6 2t-7.5 0t-7.5 -0.5t-5.5 1t-2 4q0 5 4 5
q8 0 15 -2.5t15 -2.5h1t1 2v14h-33l-1 1.5t-2 2.5v0v0v1q0 1 1 2t2 1h6q6 0 11.5 -0.5t11.5 -0.5zM160 61q3 4 7.5 5t9.5 1q7 0 12 -1t8 -3.5t4.5 -7t1.5 -11.5q0 -4 -1.5 -7t-4.5 -4t-6.5 -1h-6.5q-7 0 -11.5 0.5t-7.5 2.5t-4 6.5t-1 11.5v4v4zM167 47q0 -3 2.5 -4.5
t5.5 -2.5t6 -1h6q4 0 6 2.5t2 6.5q0 3 -2.5 6t-5.5 3h-17q-1 0 -1.5 -1t-1 -2.5t-0.5 -3.5v-3z" />
</svg>
