<?xml version="1.0" standalone="no"?>
<!DOCTYPE svg PUBLIC "-//W3C//DTD SVG 1.1//EN" "http://www.w3.org/Graphics/SVG/1.1/DTD/svg11.dtd" >
<svg xmlns="http://www.w3.org/2000/svg" xmlns:xlink="http://www.w3.org/1999/xlink" version="1.1" viewBox="-10 0 266 256">
   <path fill="currentColor"
d="M188 246v3.5t3 1.5q2 0 3.5 -2t2.5 -4q1 -9 1 -15.5v-14.5v-5q0 -3 -0.5 -10t-1.5 -15.5t-1.5 -16t-0.5 -10.5q-2 -6 -6 -9t-9 -4t-11 -1q-5 0 -9.5 -1t-7 -3.5t-1.5 -8.5q0 -4 2 -6t5 -3t6.5 -1h5.5q1 0 4.5 -0.5t7.5 -0.5t7 -0.5t4 -0.5q4 -2 6 -7t2 -9q0 -7 -2 -10.5
t-7 -6.5h-12h-10q-6 0 -13 0.5t-12.5 1.5t-5.5 4l0.5 0.5l0.5 0.5l0.5 0.5l0.5 0.5h22v18l-3 1.5t-6 4.5t-5.5 7t-2.5 9v5t1 4.5t2.5 4t3.5 1.5l28 5l0.5 0.5t1.5 0.5q1 2 1.5 4l1 4l1 4t0.5 3t0.5 2.5t0.5 3.5t0.5 3.5t0.5 2.5v5t0.5 9.5t0.5 11v8.5v2q0 7 -0.5 14t-0.5 14
zM88 192v41q0 1 0.5 2.5t0.5 3t1 2.5t3 1h0.5h0.5q1 -1 3 -2.5t2 -2.5v-34q-1 -2 -1.5 -4t-0.5 -4q0 -4 3.5 -5t8.5 -2t9.5 -1.5t6.5 -4.5q3 -5 3 -12v-12q0 -2 -0.5 -4t-3.5 -2q-2 0 -2.5 1t-1.5 4v3.5v5.5t-0.5 5.5t-0.5 3.5q-5 6 -13.5 8t-16.5 2q-9 0 -14 -2.5t-7 -6.5
t-2.5 -9t-1 -9t-2 -6.5t-4.5 -2.5v0l-3 2l-0.5 2.5t-0.5 3.5t0.5 6.5t1.5 11t3 10t5 5.5h1h3h2h1h4.5t5 0.5t4.5 0.5h2zM78 161v3.5t1 4.5l2 4t3 2h16q3 0 4.5 -1.5t2.5 -3.5t1 -4v-3v-3v-4t-1.5 -3t-2.5 -1h-24q-1 0 -1.5 1t-0.5 2.5v3v2.5zM83 163q0 -2 1.5 -3t3.5 -2
t4 -1h4t4 2t2 4t-2 4t-4 2q-4 0 -8.5 -0.5t-4.5 -5.5zM65 122q0 1 0.5 5t1.5 7.5t2.5 6t4.5 2.5h36q4 0 6.5 -1.5t4 -4.5t2.5 -6t1 -7q0 -7 -3 -11t-8 -6t-11 -2.5t-12 -0.5q-4 0 -8.5 1t-8 3t-6 5.5t-2.5 8.5zM74 131q1 -1 3 -2.5l2 -1.5h31l2 2.5t2 3.5q0 2 -3 3t-6 1.5
t-6.5 0t-4.5 -0.5h-5q-3 0 -6.5 -0.5t-6.5 -1.5t-2 -4zM78 119v-2q0 -3 2 -4t5 -1.5t6 0t5 0.5t5 -0.5t6 0t5 1.5t2 4t-2 3.5t-4 0.5h-3q-2 0 -5.5 -0.5t-8 -0.5t-8.5 -0.5t-5 -0.5zM185 94q3 0 5.5 2t2.5 6q0 3 -2 5t-4 3.5t-5 2.5t-6 1l-2.5 -0.5t-2.5 -1.5v-15
q0 -1 2 -1.5l4 -1t4.5 -0.5h3.5zM65 88q2 4 5.5 6t8 2h9h7.5q12 0 19.5 -1.5t11.5 -5.5t5.5 -11.5t1.5 -19.5q0 -1 -0.5 -3t-1.5 -3.5t-3 -3t-3 -1.5h-23q-1 0 -1.5 -2.5t-0.5 -3.5t0.5 -3t1.5 -3l23 -2l0.5 -0.5t0.5 -1.5v0v-1q0 -1 -1 -2l-1 -1h-19q-2 0 -2.5 -2.5
t-1.5 -5.5t-3 -5.5t-7 -2.5v5v6.5v7v4.5t1 4t1 4q0 3 -3.5 4.5t-7.5 2t-8 0.5h-5q-3 2 -4 4.5t-1 5.5v4v4.5t0.5 7.5t0.5 7.5v5.5zM83 89q0 -2 2 -3.5l4 -3t4 -2.5t4 -1q3 0 6.5 2.5t3.5 5.5q0 2 -1.5 3t-3.5 1h-4h-3h-2h-4t-4 -0.5t-2 -1.5zM96 86v2t1 1q2 0 2 -1v-2v-2.5
t-2 -1.5q-1 0 -1 1.5v2.5zM76 58q4 0 6.5 3t2.5 7q2 0 4 -0.5t2 2.5v2q0 2 -2 4t-4.5 4t-5 3.5t-3.5 2.5v1h-1q-1 0 -1 -1l-0.5 -1t-0.5 -2v-24l1 -0.5t2 -0.5zM106 74q0 -6 4.5 -10t9.5 -8h1q1 0 2 1t1 2.5t0.5 3l0.5 1.5v1v1v2t-0.5 4t-0.5 3.5v2.5q-2 0 -2.5 1.5l-1 3
l-1 3t-3.5 1.5q-2 0 -3.5 -1.5t-3 -3.5t-2.5 -4t-1 -4zM111 73q1 1 3 2t3 1t2.5 -1t2.5 -2l-1 -1.5t-2 -1.5h-1q-2 0 -3 0.5l-2 1t-2 1.5zM152 74q1 0 3.5 0.5t5.5 0.5t5 0.5t3 0.5h1q10 0 14.5 -5t4.5 -15q0 -4 -1.5 -9t-5.5 -7h-10h-6.5t-7 0.5t-5.5 2t-3 4.5v10
q0 1 -0.5 3.5t-0.5 5.5t1 5.5t2 2.5zM78 72q0 1 2 1h2h2q2 0 3 -1q-1 -2 -3 -2h-2h-2q-2 0 -2 2zM152 59q1 -5 6 -8.5t10 -3.5q7 0 9.5 3.5t2.5 9.5q0 3 -1.5 4.5t-4 2.5t-6 1.5t-5.5 0.5q-4 0 -7.5 -2.5t-3.5 -7.5zM82 54q6 -1 9.5 -1.5t8.5 -0.5h2h4t3.5 0.5t1.5 1.5v1
l-12 12h-1h-1q-4 -2 -8 -6zM97 55v3.5v2.5l1 0.5t1 1.5q0 -1 0.5 -1.5l0.5 -0.5q1 0 1 -2.5v-3.5h-4z" />
</svg>
