<?xml version="1.0" standalone="no"?>
<!DOCTYPE svg PUBLIC "-//W3C//DTD SVG 1.1//EN" "http://www.w3.org/Graphics/SVG/1.1/DTD/svg11.dtd" >
<svg xmlns="http://www.w3.org/2000/svg" xmlns:xlink="http://www.w3.org/1999/xlink" version="1.1" viewBox="-10 0 266 256">
   <path fill="currentColor"
d="M136 192l0.5 1.5l0.5 1.5l1.5 1.5l0.5 0.5h24q1 0 1.5 0.5t0.5 1.5q1 1 1.5 4t0.5 4v42q0 2 2 2h3h3.5t2.5 -3q0 -1 0.5 -3.5t0.5 -5.5t0.5 -5.5t0.5 -3.5q0 -7 -2 -14t-2 -14v-3v-2l31 -3q1 0 2.5 -2t2.5 -3v0v-1q0 -3 -2 -3.5t-4 -0.5q-6 0 -12 1t-11 1t-6 -1t-1 -6v-1
v-2.5t0.5 -2t1.5 -0.5q3 -1 8 -0.5t10 0t8.5 -2.5t3.5 -7h-30q0 -1 1 -3t2.5 -4.5t2.5 -4t2 -1.5h23l2 -2l3 -3v-0.5v-0.5q0 -3 -2 -3.5t-4 -0.5q-4 0 -6.5 1t-5.5 1q-2 0 -3.5 -0.5t-1.5 -3.5q0 -2 2 -3.5t5 -4t5.5 -7t2.5 -12.5q0 -6 -1 -10t-3 -6t-5.5 -3.5t-9.5 -1.5
h-10t-14.5 0.5t-13 2.5t-5.5 6v24q0 2 1.5 4.5t3.5 4.5l4 4l2 2l1 2q0 2 -2.5 3t-5.5 1.5t-5.5 1t-2.5 3.5q0 1 1 1.5t3 0.5t4 -1t4 -1q7 0 10 4.5t5 11.5h-22q-2 0 -2.5 1.5t-0.5 2.5q0 4 2.5 4.5t5.5 0.5t5.5 -0.5t6.5 -0.5h2t1 1v12q0 2 -4.5 2.5t-10 0.5t-10 0.5
t-4.5 2.5zM66 218q7 1 12 1.5t12 0.5q11 0 18 -1t11 -4.5t6.5 -10t3.5 -17.5q0 -1 1 -3t1 -3v-91q0 -9 -2 -15.5t-6 -15.5q-2 -2 -4.5 -2.5t-5.5 -1.5t-5.5 -2t-2.5 -3v-17h26q1 0 1.5 -3l0.5 -3v-3q0 -2 -2 -2h-7q-13 0 -24.5 1.5t-23.5 1.5q-1 0 -3.5 -0.5t-3.5 -1.5h-5
h-5h-6t-5 1.5t-2 3.5t1 3.5t3 1.5h21l3 3v15q0 3 -3.5 3.5t-8 1.5t-8 4.5t-4.5 13.5q-1 2 -1 5.5t-0.5 7t-0.5 6.5v4v3v7v8v6v5v7v7v5q1 2 1 5.5v6.5v6t2 5v27q0 3 1.5 6.5t3.5 6.5t4.5 6t5.5 4zM69 208l-1 -1.5t-1.5 -3l-1 -3t-1.5 -1.5v-0.5v-0.5v-0.5v-0.5q1 -1 2.5 -2
t3 -2.5t2.5 -3t2 -2.5t3 -3.5l4 -5t4.5 -4t4.5 -1.5q1 0 2.5 1t3 3t2.5 4t2 3l3 3t4 4.5t4.5 4.5t3.5 3v3q0 4 -2.5 5.5t-6 2.5t-7.5 0.5t-6 -0.5h-3h-4t-6.5 -0.5t-6.5 -1t-4 -0.5zM91 161h-1h-1l-3.5 3.5l-5 5t-5 4.5t-3.5 4l-3.5 3.5t-4.5 1.5q-1 0 -2 -0.5t-1 -1.5
q-1 -7 -2 -12.5t-1 -11.5q0 -4 1 -6t3 -3.5l4 -3t5 -4.5q0 -1 1 -2.5t2.5 -4.5t2.5 -5.5t2 -4.5q2 -4 2.5 -10t0.5 -13.5v-14.5q0 -8 0.5 -14t2.5 -9.5t5 -3.5t5 1.5t2 4.5v46q0 12 3.5 17.5t8 9t9 6.5t5.5 8q0 2 -0.5 6t-0.5 9t-0.5 9t-0.5 6q0 1 -0.5 4t-1.5 4h-1
q-5 0 -8 -4.5t-6 -9.5t-6 -9.5t-7 -4.5zM166 139q0 -3 3 -4t6 -1t4 1.5t1 4.5q0 4 -2.5 9t-6.5 7q-5 -7 -5 -17zM57 113v-7q0 -5 0.5 -9t0.5 -7v-4q0 -2 0.5 -5.5t1.5 -7.5t3 -6.5t5 -2.5t4.5 2.5t1.5 6v7v5.5v12t-1.5 16.5t-4.5 15.5t-9 9l-1 -7v-2q0 -3 -0.5 -6t-0.5 -5
v-5zM103 73v-6t2 -6q1 1 5 2t5 1l1 2q3 8 4 17t1.5 18t0.5 18v17q-6 0 -9 -4t-5.5 -10t-3 -13.5t-1 -14.5t-0.5 -12.5v-8.5zM151 115h42q1 0 1 2v3q0 4 -3 5.5t-7 2t-8 0t-6 -0.5q-2 1 -3.5 1h-3.5q-4 0 -6 -0.5t-3.5 -1.5t-2 -4t-0.5 -7zM150 105q0 -3 3 -5.5t5 -2.5h33
q2 0 2.5 2t0.5 4v2q-5 1 -9.5 2t-8 1t-7.5 0.5t-9 0.5h-8q0 -1 -0.5 -2t-1.5 -2v0zM150 66q0 9 5.5 13.5t14.5 4.5q4 0 9 -0.5t9.5 -2.5t7.5 -5t3 -9q0 -9 -5.5 -11.5t-13.5 -2.5h-8t-8 1t-7.5 2t-6.5 3v3.5v3.5zM158 68q0 -2 2.5 -3.5t6 -2.5t7 -1h5.5h5q1 0 2.5 0.5
t1.5 1.5v10q0 1 -2.5 1.5t-5.5 1t-6 0.5h-4q-4 0 -8 -1.5t-4 -6.5zM91 33q3 0 4.5 2.5t2 5.5t0 6.5t-0.5 4.5h-1.5h-3.5t-3 -0.5t-2 -0.5l-1 -0.5l-1 -0.5v-14q0 -2 2 -2.5t4 -0.5zM139 46q1 2 1.5 2h1.5q4 0 7.5 -1.5t6.5 -4t6 -4.5t7 -2t8 2t8 4.5t7.5 4t8.5 1.5
q1 0 2 -0.5t1 -1.5q0 -6 -4.5 -8.5t-10 -3.5t-10 -2t-4.5 -5v-14q-8 0 -10 2t-1.5 5t0.5 6t-4 6q-6 3 -11 6t-10 8z" />
</svg>
