<?xml version="1.0" standalone="no"?>
<!DOCTYPE svg PUBLIC "-//W3C//DTD SVG 1.1//EN" "http://www.w3.org/Graphics/SVG/1.1/DTD/svg11.dtd" >
<svg xmlns="http://www.w3.org/2000/svg" xmlns:xlink="http://www.w3.org/1999/xlink" version="1.1" viewBox="-10 0 266 256">
   <path fill="currentColor"
d="M85 249q0 1 1 1.5t2 0.5q3 0 4 -1.5t1 -5.5q0 -2 0.5 -7t0.5 -10.5t0.5 -10.5t0.5 -7q0 -5 2.5 -12.5t7 -14t10.5 -10.5t14 -4q1 0 2 1t1.5 3t0.5 3.5v1.5q0 2 0.5 3.5t0.5 3.5t0.5 4l0.5 2q0 4 -4 4.5t-9 0.5q-4 0 -8 1t-4 5h21l1 0.5t1 1.5l1 2l1 2q0 5 -1.5 9t-3.5 7
q-2 0 -4.5 0.5t-5.5 1t-6 0.5h-4l-1.5 0.5t-1.5 1.5v1v0q0 1 1 1.5l1 0.5h3h4.5h4.5h3h8h6.5t5.5 -0.5l9 -1.5h2.5h3.5t4 -1t2 -2h0.5t0.5 -1h-0.5t-0.5 -1l-0.5 -0.5l-0.5 -0.5h-18l-1 -0.5t-2 -1.5v-3t-0.5 -4.5t-0.5 -5v-3.5v-1v-3.5t3 -1.5h12l1 -3q-4 -3 -8 -2t-8 1
v-26q3 0 6.5 -0.5t6.5 1.5q7 5 12 13t8 17t4.5 19t1.5 17v6q0 1 -1 2.5t-1 2.5q0 3 1 4t3 1q1 0 2.5 -0.5t2.5 -1.5v-4v-5v-6v-3q0 -16 -2 -29t-10 -27q-3 -4 -9 -7.5t-12 -6t-10.5 -4.5t-4.5 -4q0 -5 3 -7.5t8 -3t10.5 -1t10 -3t8 -8t3.5 -16.5t-3 -17t-8.5 -8.5t-14 -3
t-19.5 -1.5q-2 0 -2 -3v-3v-1v-2t0.5 -2t1.5 -1q12 -3 21 -6t15.5 -8.5t11.5 -13.5t9 -19q1 -3 2 -5.5t1 -5.5v-2t-2 -1q-4 3 -7 7t-5 9t-4.5 9.5t-5.5 7.5q0 1 -1.5 3t-2.5 2q-6 4 -13 8t-16 4q-2 0 -3.5 -1.5t-1.5 -3.5q0 -1 4 -6t8.5 -11t9 -11t6.5 -6l0.5 -0.5t0.5 -1.5
l-0.5 -1.5l-0.5 -1.5h-62q-1 0 -2.5 1.5l-1.5 1.5q0 4 4.5 8.5l9.5 9.5t9.5 10t4.5 11v2t-2 1h-7q-11 0 -18.5 -3.5t-13 -8.5t-9.5 -11t-6.5 -11t-5 -8.5t-4.5 -3.5q0 8 2 15.5t5.5 14t9.5 11.5t15 8q2 1 8 2l12 2t11 1.5t5 1.5v11q0 1 -3.5 2t-8.5 2t-10.5 3t-10.5 5.5
t-8.5 9t-3.5 12.5q0 9 4.5 14.5t11.5 8t15 4t16 1.5q3 1 3 3.5v4.5q0 4 -2.5 6t-6 3t-7.5 1.5t-7 0.5q-7 6 -12 14t-8 17t-4.5 18.5t-1.5 18.5v3q0 3 0.5 5.5t0.5 5.5v3zM95 124q0 -2 4.5 -3t11 -2t12.5 -1h8v16q0 2 -2.5 2.5t-4.5 0.5t-7 -0.5t-10 -2.5t-8.5 -4.5
t-3.5 -5.5zM138 127v-6t4 -5h4.5t7 -0.5t7 -0.5h4.5t3 -1l2 -1h1q2 0 2.5 1t0.5 2q0 5 -2.5 8.5t-7 6.5t-9 4.5t-9.5 1.5t-6.5 -2.5t-1.5 -7.5zM95 110v-1q0 -3 3 -6t7 -5t8.5 -3t7.5 -1q4 0 7 2t3 8q0 1 -1 3t-2 3h-4.5t-6 0.5t-6.5 1t-4 0.5h-3q-2 0 -4 -0.5t-5 -1.5z
M138 98v-3t2 -2q1 0 4 -0.5t4 -0.5q3 0 7 0.5t7.5 1.5t6 3t2.5 6q0 3 -3 4.5t-7.5 1.5t-8.5 -0.5t-7 -0.5q-4 0 -5.5 -3.5t-1.5 -6.5zM114 25v-1q8 -1 13 -1.5t11 -0.5h6t6 2v1q0 4 -2.5 6.5l-5.5 5.5t-6 5t-5 4h-3q-2 -2 -4 -4.5t-4.5 -5t-4 -5.5t-1.5 -6z" />
</svg>
