<?xml version="1.0" standalone="no"?>
<!DOCTYPE svg PUBLIC "-//W3C//DTD SVG 1.1//EN" "http://www.w3.org/Graphics/SVG/1.1/DTD/svg11.dtd" >
<svg xmlns="http://www.w3.org/2000/svg" xmlns:xlink="http://www.w3.org/1999/xlink" version="1.1" viewBox="-10 0 266 256">
   <path fill="currentColor"
d="M126 240q0 5 5 5q3 0 6 -3.5t5.5 -9.5t5.5 -13.5t6 -14t6 -12t6 -8.5q0 1 2.5 5.5t6 11t7.5 14.5t8 14.5t7 10.5t4 3q3 0 5 -3.5t2 -5.5q0 -1 -1 -2t-1 -2q-8 -10 -15 -19.5t-13 -20.5q-6 -15 -9 -31.5t-3 -32.5v0q1 -2 3 -2.5l4 -1t3 -0.5h2h30q3 -1 3 -4t-2.5 -3.5
t-4.5 -0.5q-20 0 -40.5 1.5t-40.5 3.5h-3h-4t-3.5 1t-1.5 2t1 3t3 2q10 0 21 -1t22 -1v48l-0.5 2l-1 4t-1.5 4t-1 3q-1 1 -2.5 4t-3 7t-3.5 7l-2 3q0 1 -0.5 2.5l-1 3l-1 3l-0.5 1.5q-1 2 -3.5 5t-4.5 6l-4 6t-2 6zM45 212q0 4 1 4.5t4 0.5q7 0 14 -1.5t15 -1.5
q1 0 5.5 -0.5t9 -0.5t8.5 -0.5t6 -0.5q1 0 1.5 -1t0.5 -2t-0.5 -2t-1.5 -1q-3 -2 -6 -2.5t-7 -0.5q-3 0 -6 0.5t-6 0.5l-1 -2l-0.5 -3.5t-0.5 -8.5t-0.5 -10t-0.5 -8v-5v-8v-9v-7v-5v-6v-5v-3l2 -2h3h5t5.5 -0.5t3.5 -0.5t2 -1l2 -2l-3 -4h-20v-13q0 -2 2 -3t4.5 -1.5
t4.5 -1t3 -0.5v-1.5v-0.5v-2t-2 -1h-2h-3q-11 0 -14 5.5t-2 16.5l-2 3h-23q-1 0 -1 2v2q0 2 0.5 2.5t2.5 0.5h20q1 0 2 2.5l1 2.5q-1 19 0 37t1 37q0 1 -1 3.5t-3 2.5h-20q-3 0 -3 2v3zM56 137q-2 0 -4.5 1t-2.5 4v52q0 3 1 3.5t3 0.5t4.5 -2t2.5 -5v-52q0 -2 -2 -2h-2z
M88 144q0 4 -0.5 12.5t0 17.5t2 15.5t4.5 6.5h2t1 -2v-11q0 -12 -1 -23t-1 -23q0 -1 -1.5 -2.5l-2.5 -2.5q-1 0 -2 0.5t-1 1.5v10zM118 190v5q8 0 12.5 -5.5t7 -12.5t3.5 -15.5t1 -13.5q0 -3 -0.5 -4.5t-3.5 -1.5t-4.5 5t-2 11t-1.5 12t-2 8q-1 1 -2 2.5t-2.5 3.5t-3 3.5z
M186 143q0 4 0.5 9l1 10t2 9.5t4.5 8.5q0 1 1.5 3l3 4t4 4t4.5 2t5.5 -1t3.5 -4q0 -1 -0.5 -1.5l-0.5 -0.5l-17 -20l-0.5 -1.5t-1 -3.5l-1 -4t-0.5 -3v-3.5t-0.5 -5t-0.5 -5v-3.5q-1 -1 -2 -1.5t-2 -0.5t-2 0.5t-2 1.5v6zM123 101q5 0 9 1l8 2t8 1.5t9 0.5q12 0 17.5 -6.5
t5.5 -19.5l2 -2h13l0.5 2.5t1.5 4.5v1v1q-1 0 -3 2t-4.5 3.5t-4.5 3.5t-2 3q0 2 1.5 2h3.5t5.5 -1t6 -2.5t5 -4t3.5 -5.5v-11q0 -5 -1 -9.5t-1 -9.5q0 -2 1 -4t1 -5v-3q0 -1 -0.5 -4.5t-1 -6.5t-0.5 -6v-5h-9v18q0 3 -1.5 4t-4 1h-4.5h-3h-6q0 -5 -3 -8t-6.5 -5l-7 -4
t-3.5 -7l0.5 -1t0.5 -2.5t0.5 -2.5l0.5 -1q0 -2 -2 -2h-2h-3t-2 2v13q0 2 -3 3t-5.5 3t-4.5 5.5t-1 9.5q-1 1 -3 1h-2h-5q-2 0 -4 -2v-6t-0.5 -7.5t-2 -6.5t-5.5 -3q-2 0 -2.5 2.5t-0.5 3.5q0 15 1.5 30.5t3.5 30.5q1 3 2 5t4 3zM149 93q0 -1 0.5 -3t1.5 -4t2.5 -3.5
t2.5 -1.5t3 1.5t3.5 3.5t2.5 4t1 4q0 6 -5 6q-2 0 -4 -0.5l-4 -1t-3 -2t-1 -3.5zM124 87q0 -5 3 -6t8 -1q1 0 2 2t1 3t0.5 2.5t0.5 3.5v3.5v2.5q-5 0 -10 -2t-5 -8zM143 68v-2.5v-3.5l0.5 -0.5t1.5 -0.5v-1q2 0 3.5 2.5t2.5 4.5v1v0q-1 2 -2.5 6.5l-2.5 7.5q-3 -2 -3 -6.5
v-7.5zM38 78q0 1 2.5 1.5t3.5 0.5q3 0 4 -2t2 -4.5t2.5 -4.5t4.5 -2h2h1t2.5 0.5t2.5 0.5h1h1h1h4.5t7.5 -0.5t7.5 -0.5h4.5h1q2 0 3 1t2 2.5t1.5 2.5t2.5 1q3 0 3.5 -1.5t0.5 -4.5q0 -2 -1 -4t-2 -3.5l-2 -3t-2 -3.5q-1 -1 -2 -3.5t-2.5 -5t-2.5 -5l-1 -2.5q-3 -2 -5 -4.5
t-3.5 -5t-3.5 -4t-6 -1.5h-4q-3 7 -7 13.5l-8 13l-8 13t-7 14.5h-0.5t-0.5 1zM161 71q0 -5 2 -10t5 -9v0h1q1 1 1.5 2t0.5 2v25q-4 0 -7 -3.5t-3 -6.5zM123 66q0 -4 2.5 -6t6.5 -2h4q2 0 2 3v1v4.5t-0.5 4.5t-0.5 3h-12q-1 0 -1.5 -1l-0.5 -1v-2.5v-3.5zM178 56h19q1 0 1 1
v1q0 5 -0.5 8t-2.5 4.5t-5 1.5h-7q-2 0 -3.5 -2t-1.5 -4.5v-5.5v-4zM74 37q1 0 2 0.5l1 0.5q2 1 4 3.5t4.5 5.5t4 6t1.5 5q-8 0 -15.5 1.5t-15.5 1.5q0 -3 1 -7t3.5 -7.5t5 -6.5t4.5 -3zM147 43v-2q1 -1 5 -2t5 -1l0.5 -0.5t1.5 -0.5q2 0 2.5 3t0.5 5t-0.5 4l-1 4t-2 3
t-2.5 1h-2q-2 -3 -4.5 -6.5t-2.5 -7.5z" />
</svg>
