<?xml version="1.0" standalone="no"?>
<!DOCTYPE svg PUBLIC "-//W3C//DTD SVG 1.1//EN" "http://www.w3.org/Graphics/SVG/1.1/DTD/svg11.dtd" >
<svg xmlns="http://www.w3.org/2000/svg" xmlns:xlink="http://www.w3.org/1999/xlink" version="1.1" viewBox="-10 0 266 256">
   <path fill="currentColor"
d="M202 228q2 5 5.5 11t6.5 10h1q2 0 3 -2.5t1 -3.5v-1l-0.5 -1.5l-1 -3l-1 -3l-0.5 -1.5q-1 -3 -2 -7t-2 -9t-2 -9t-1 -5q-2 -14 -2 -27t-2 -27v-89q2 -6 2 -9.5v-8.5q0 -8 -3 -13t-7.5 -8.5t-11 -5t-13 -2t-13 0t-11.5 0.5q-4 0 -5.5 0.5t-2 2t-0.5 4.5v5q-1 1 -1 5
t-0.5 8.5t-0.5 8.5v5q-1 0 -1 4v6v5q0 3 1 5l2.5 5t4.5 5q3 1 7 2.5t8.5 2.5t9 1.5t8.5 0.5h1t2.5 -0.5t3 -0.5h1.5l1 -0.5l1 -0.5q2 0 3.5 2t1.5 4q0 17 0.5 34t1.5 33.5t3 33t4 33.5zM35 237q0 3 0.5 4.5t2.5 2.5q5 -4 7.5 -10t4.5 -12.5t3 -13t1 -11.5q1 -2 1.5 -8
t1 -12.5t1 -12.5t0.5 -8v-5t-0.5 -9t-0.5 -10.5t-0.5 -11t-0.5 -9v-5.5v-5v-5q6 -1 14.5 -1t16.5 -1.5t14.5 -5.5t9.5 -12q0 -1 0.5 -3.5t0.5 -4.5v-5.5v-3.5q0 -11 -1 -22t-1 -22h-16t-16.5 1.5t-15.5 4.5t-13 9q-1 1 -2.5 4t-2 6.5t-1.5 7t-1 5.5v24q0 19 2 37t2 37
q0 15 -1 29t-3 28q-1 3 -2 7t-2 7.5t-2 7.5t-1 7zM84 240q0 1 1.5 2t1.5 2q2 0 3.5 -2.5t1.5 -3.5q1 -1 1 -3.5t0.5 -5t0.5 -4.5v-3v-2t-0.5 -4l-1 -4l-0.5 -2v-2q0 -6 0.5 -14t5.5 -13q1 0 3.5 -0.5l5 -1l5 -1t3.5 -0.5q1 -1 3 -2t2 -2l-0.5 -1t-1.5 -1l-3.5 -0.5
t-4.5 -0.5v-2q0 -3 1.5 -4t3.5 -2t3.5 -2t1.5 -4q0 -2 -2.5 -2.5t-3.5 -0.5q-2 0 -4.5 1.5t-4.5 2.5t-4.5 2t-4.5 1q-3 0 -4 -1.5t-1 -4.5q0 -5 3.5 -7.5t8.5 -3.5t8.5 -2.5t3.5 -5.5h-9t-12 1.5t-10 4.5t-4 9t1.5 9.5t3 6t3 4t1.5 4.5q0 6 -1 12.5t-2 12.5t-2 12.5t-1 13.5
v3v4t0.5 4t0.5 3zM138 179h15l1 1l1 1q0 1 0.5 3t1.5 3l3 55q0 1 1.5 1.5t2.5 0.5q2 0 3 -2l2 -4v-3v-6v-5v-3q0 -11 -1 -21.5t-1 -20.5q0 -5 1.5 -8l3 -6t3 -6.5t1.5 -7.5q0 -5 -2 -8t-5.5 -4.5t-7.5 -1.5h-8h-7l2.5 2t5.5 4.5t6 4.5t4 3v1q0 2 -1.5 4t-4.5 2q-2 0 -5 -0.5
t-5.5 -2t-5 -2.5t-5.5 -1q0 3 1.5 4.5t3 3.5t3.5 3.5t3 3.5q0 2 -1.5 3t-3.5 1.5t-3.5 0.5h-1.5v7zM87 114q2 0 4 1t4.5 2t4.5 1.5t3 0.5h55q2 0 4.5 -2.5l2.5 -2.5q-2 -4 -7 -5.5t-11 -1.5t-11.5 0.5t-8.5 0.5q-9 0 -19 0.5t-19 3.5l-1 0.5t-1 1.5zM58 67l1 -2
q11 -1 22 -3.5t22 -2.5q0 9 -2.5 13.5t-7.5 7.5t-11 4t-14 3h-1.5h-3.5h-3.5h-1.5v-20zM148 61v-3.5t3 -1.5h42v22q0 1 -1 2t-2.5 1.5t-2.5 0.5h-2q-6 0 -12.5 -0.5t-12 -2.5t-9 -6.5t-3.5 -11.5zM58 50q0 -8 4.5 -12.5t10.5 -7.5t12.5 -4.5t12.5 -1.5q1 0 3 0.5t2 3.5v23
l-3.5 0.5t-8 1t-9.5 1t-9 1.5h-6h-8q0 -1 -0.5 -3zM148 47q-1 -4 -1.5 -6.5t-0.5 -6.5q0 -3 0.5 -5.5t1.5 -6.5h1h1q3 1 8.5 2t11 1.5t10 1.5l4.5 1q4 1 6.5 3t3 5t0.5 6.5v7.5h-8q-2 -1 -7.5 -1t-11.5 -0.5t-11.5 -1t-7.5 -0.5z" />
</svg>
