<?xml version="1.0" standalone="no"?>
<!DOCTYPE svg PUBLIC "-//W3C//DTD SVG 1.1//EN" "http://www.w3.org/Graphics/SVG/1.1/DTD/svg11.dtd" >
<svg xmlns="http://www.w3.org/2000/svg" xmlns:xlink="http://www.w3.org/1999/xlink" version="1.1" viewBox="-10 0 266 256">
   <path fill="currentColor"
d="M113 196q1 1 2.5 4.5t3.5 8t4 8.5t4 6q4 5 8.5 8t10 5.5t10.5 5t10 4.5q2 1 3 3t3 2t2.5 -1t0.5 -2q0 -4 -6 -8l-13.5 -9t-13 -10t-5.5 -12q0 -4 2.5 -7t6.5 -5t8.5 -4t8.5 -4.5t6.5 -7t2.5 -11.5t-4 -12t-9 -8.5t-9 -7.5t-4 -10q0 -1 1.5 -3.5t2.5 -2.5h20l2 -1v-1v0v-1
v0l-1 -0.5t-1 -1.5q-4 -2 -10 -2h-10l-6 -5l-3 2v1.5t-0.5 4.5t-0.5 4v2v3q0 7 3.5 11.5t7.5 9t7.5 9t3.5 11.5q0 2 -1 5t-2.5 5t-4 4t-5.5 2v-0.5v-0.5q-1 0 -1.5 -1l-0.5 -1v-3.5v-4.5v-5v-3l-0.5 -2t-1.5 -4l-2 -4t-2 -2t-2 1t-1 2q0 2 0.5 5l1 6t1 5.5t0.5 3.5t0.5 1
h0.5q0 2 -1 5.5t-3 6.5t-4 5.5t-5 2.5t-4.5 -2.5t-2 -6t0 -6.5t0.5 -5v-5v-4q1 -1 1 -2.5v-2.5q0 -2 -0.5 -4t-2.5 -2q-1 0 -2 1.5t-1.5 3t-1 3.5t-0.5 3q-1 1 -1 3t-0.5 4l-1 4t-0.5 3l-2 2l-1 1h-1q-4 0 -6.5 -2.5t-3.5 -6t-1.5 -7t-0.5 -6.5q0 -4 2 -6.5t5.5 -4.5l7 -4
t6.5 -5t5.5 -8t2.5 -12q0 -4 -0.5 -8t-5.5 -6q-1 5 -6 6.5t-10 2t-9 1t-4 4.5q0 1 2 1.5t3 0.5q5 0 9.5 -1.5t9.5 -1.5q3 0 3.5 1t0.5 4q0 5 -2.5 8t-6 5.5t-7 4.5t-7 5.5t-6 8t-2.5 12.5v7q4 7 10 11.5t15 2.5zM182 168q4 9 4.5 19.5t1.5 21t4.5 20.5t13.5 17q1 0 1.5 -0.5
t0.5 -1.5q0 -5 -2.5 -9t-3.5 -9q-2 -5 -2.5 -10.5t-1.5 -11.5t-2.5 -12t-3.5 -10q0 -2 -0.5 -5.5t-0.5 -8t-0.5 -8.5t-0.5 -6v-9q0 -20 1.5 -40t1.5 -40q0 -9 -4 -14t-10.5 -7t-13.5 -2q-8 0 -15 1l-2 -2v-16h-3t-2 2q0 1 -0.5 3.5l-1 5l-1 5t-0.5 3.5t-0.5 2.5t-1.5 1.5v3
v4v4v3q0 10 1 18.5t4 15t9.5 10.5t18.5 4v0h1l1.5 -0.5t2.5 -0.5q-4 -3 -9 -4t-8 -4q-7 -5 -10 -13t-3 -16q0 -4 2 -4q4 0 6.5 2.5l5.5 5.5t7.5 5t10.5 2q0 -6 -4.5 -9.5t-10.5 -5.5t-11 -4.5t-5 -7.5v-3t2 -3h7q7 0 12.5 0.5t9 2.5t5.5 6t2 13q0 3 -0.5 7t-0.5 8t-0.5 7.5
t-0.5 5.5l-0.5 1.5l-1 3t-1 2.5t-0.5 2l0.5 2.5t1.5 2.5v54zM48 236q1 2 1.5 2h1.5q2 0 2.5 -0.5t1.5 -2.5q1 -1 2.5 -3t2.5 -4t2 -3.5t2 -2.5q5 -9 8 -20t4 -21.5t1 -21.5v-22q0 -9 -1 -18t-1 -18v-5q0 -3 1 -5q2 -3 7 -5.5t10.5 -5.5t10 -6.5t4.5 -8.5q-5 0 -8.5 2t-7 4.5
t-6.5 5t-6 4.5q-1 1 -3 0t-3 -1v-5v-5q0 -6 4.5 -9.5t10.5 -5.5t12 -3t10 -1q1 0 2 1t1 2.5v3v2.5q0 21 -13 37q-1 2 -4.5 4t-6.5 3.5t-5.5 4t-2.5 4.5q3 0 7.5 -1.5l7.5 -2.5q8 -5 12.5 -10.5t7 -12.5t3 -14.5t0.5 -16.5v-4v-5v-4v-2q0 -2 -0.5 -4l-1 -4t-2 -3.5t-3.5 -1.5
t-2 1.5v3.5t1 4.5t1 4.5t-0.5 3t-2.5 1l-29 3q-2 0 -5 2t-5.5 4t-4 4.5t-2.5 4.5v3.5v5.5v6v4q0 18 2 36t2 36q0 21 -5 42.5t-15 39.5z" />
</svg>
