<?xml version="1.0" standalone="no"?>
<!DOCTYPE svg PUBLIC "-//W3C//DTD SVG 1.1//EN" "http://www.w3.org/Graphics/SVG/1.1/DTD/svg11.dtd" >
<svg xmlns="http://www.w3.org/2000/svg" xmlns:xlink="http://www.w3.org/1999/xlink" version="1.1" viewBox="-10 0 266 256">
   <path fill="currentColor"
d="M201 249q1 1 2 1h2q3 0 5 -2.5t2.5 -6t0.5 -6.5v-6v-11q0 -6 -0.5 -13.5t-1 -13.5t-1.5 -9v-27q0 -13 -0.5 -27t-0.5 -27.5t-1 -26.5q0 -5 -0.5 -12t-1 -13.5t-1 -11.5l-0.5 -5l-5 -5l-3.5 -0.5t-8.5 -1l-10 -1t-9 -0.5h-2h-4h-3h-2q-2 -1 -3 -3l-2 -4t-2 -3.5t-3 -1.5
q-1 0 -2 1.5l-1 1.5v64q0 4 5.5 6t12 3t13 1.5t8.5 0.5q1 0 3 0.5t4.5 0.5t4 0.5l1.5 0.5l1 2l0.5 4t0.5 10t0.5 12t0.5 10q0 29 1 59t0 60zM153 214l0.5 0.5t0.5 1.5v34q3 0 6.5 -1.5t3.5 -4.5v-28q7 0 9.5 4.5t3 9.5t1.5 9.5t5 4.5h1q0 -1 1.5 -2t1.5 -2q0 -5 -0.5 -10
t-2 -9t-4.5 -7t-7 -6q-1 0 -3 -1t-3 -1l-2 -2t-2 -3q1 -3 3 -3.5t4.5 -1t4.5 -1t4 -2.5q3 -3 4 -6t1 -7t-2.5 -7t-5.5 -5l-6 -4t-3 -4q0 -3 2.5 -4.5t5.5 -3t5.5 -4t2.5 -8.5q0 -5 -3 -7.5t-6 -4t-5.5 -2.5t-2.5 -5t3 -6t6 -3l6 -2t3 -5q0 -3 -4 -3t-8.5 1.5t-9 3.5t-8.5 4
t-9 2l-3 3l1 2h11q2 0 2 2v3q0 4 -2 6t-5 3t-5 3.5t-2 7.5q0 3 2 5t4.5 3.5t4.5 3.5t2 5t-2.5 5t-5.5 4t-5 5.5t-2 8.5t2 7t5 4t5.5 4t2.5 6v2q0 1 -1 2q-2 1 -5 2t-6 1q-3 6 -6.5 14t-3.5 15q0 2 1 3.5t3 1.5q4 0 5 -4.5t2 -10.5t2.5 -11t6.5 -5zM44 241q0 4 5 4
q2 0 3.5 -1.5t1.5 -3.5v-2v-5v-5v-2q0 -1 0.5 -3t0.5 -5t0.5 -5.5l0.5 -2.5v-6v-8v-9v-5q0 -22 2 -43.5t1 -43.5l3 -3q7 -1 12.5 -2t10.5 -2.5t10.5 -3.5t12.5 -4l6 -6l1 -2.5t1.5 -6t1.5 -7t1 -5.5q1 -9 1.5 -20.5t0.5 -20.5q-7 0 -8.5 0.5t-1.5 1.5v3t-3 3q-3 2 -5.5 2
h-5.5h-5.5h-6.5q-2 0 -5 0.5t-6.5 1.5t-7 1.5t-4.5 1.5q-7 5 -9.5 13t-3 17t0.5 17.5t1 15.5q-2 38 -4.5 75.5t-2.5 75.5zM72 211v7t1.5 8t4 7t5.5 4h4h4h7q4 0 8.5 -0.5t7.5 -2t3 -5.5v-23q0 -1 -1.5 -1.5t-2.5 -0.5h-2q0 1 -0.5 3.5t-0.5 4.5t-0.5 4t-0.5 3q0 3 -1.5 5.5
t-4.5 2.5t-4 -1.5t-1 -3.5v-3q0 -2 0.5 -5t0.5 -5.5v-5v-2.5l5 -5h20l0.5 -1t0.5 -2v-1v0q0 -1 -0.5 -1.5l-0.5 -0.5h-21l-4 -2v-2v-3v-3t1 -6.5t3 -3.5q3 0 6 2l6 4t6 3.5t6 1.5q0 -8 -4 -11t-9.5 -5t-10 -5t-4.5 -11q0 -1 0.5 -2.5t1.5 -2.5l21 -10q3 -1 4 -3t2 -4.5
t1 -5.5v-5q0 -9 -5 -15t-15 -6q-3 0 -9.5 2.5t-13.5 6.5t-13.5 8.5t-8.5 7.5v0q0 2 1 2.5t3 0.5q3 0 5.5 -2.5t5.5 -2.5q2 0 4 2.5t3.5 6t2.5 7t1 5.5q0 4 -3.5 5.5t-7.5 2.5t-7.5 2.5t-3.5 6.5q6 0 11 -2.5t11 -2.5q2 0 2.5 2t0.5 4q0 3 -3.5 6t-8 6l-9 6l-7.5 5v1v1
q1 0 2 0.5t2 0.5v0h1q1 -1 5 -4t5 -4t2.5 -1.5t3 -1.5t3 -1.5l1.5 -0.5l1 2l0.5 2.5t0.5 3.5v2t-0.5 2.5t-0.5 2.5v1q0 1 -0.5 3l-0.5 2h-21q-1 0 -2 1.5t-2 2.5v1q0 2 2 2h3q4 0 8 -1t8 -1t4.5 1.5t0.5 6.5v0v5t-0.5 7t-0.5 7v4q-1 2 -1.5 2h-2.5q-3 0 -3.5 -3.5t-1 -7.5
t-1.5 -8t-5 -6q-3 3 -3 7zM148 181q0 -6 3.5 -8.5t9.5 -2.5t9.5 4t3.5 9q0 3 -1.5 5t-3.5 2.5t-4.5 1t-5.5 0.5q-11 0 -11 -11zM151 140q0 -2 1.5 -3.5t3.5 -2.5t4.5 -1h3.5q4 0 6.5 2t2.5 6q0 5 -3.5 7.5t-8.5 2.5q-4 0 -7 -3.5t-3 -7.5zM88 116l2.5 -5t4.5 -3q2 0 4 3t3 7
t1.5 8t0.5 6t-0.5 3t-2.5 1t-2.5 -0.5l-2.5 -2.5q0 -1 -1.5 -3.5t-2.5 -5l-2 -5t-2 -3.5zM107 110v-3t1 -2l0.5 -1l0.5 -1q3 0 5 2t3 5t1.5 6t0.5 5q0 5 -3 7q-5 -3 -7 -8t-2 -10zM161 79q-4 -1 -7 -5t-3 -8q0 -3 1 -5.5t5 -2.5q9 0 19 0.5t19 2.5q3 2 3.5 5.5t0.5 6.5
q0 1 -0.5 4l-0.5 3q-1 3 -2 3.5t-3 0.5h-1.5h-1.5q-1 0 -5.5 -1t-9 -1.5t-8.5 -1.5t-6 -1zM61 79v-15q0 -1 5.5 -2.5t13 -2.5t14 -2t9.5 -1h2h3l1 2q1 0 0 3t-1 5q-2 5 -6.5 8t-10 5t-11.5 3t-11 1h-3t-2 -1zM98 30h10q1 1 2 3t1 4v1q-1 2 -2 4.5l-1 2.5l-28 5l-1.5 0.5
l-1.5 0.5q-1 0 -3 0.5t-4.5 0.5h-4.5h-3q0 -8 3.5 -12.5t8.5 -6.5t11.5 -2.5t12.5 -0.5zM153 39v-1v-2t0.5 -2l0.5 -1h30q4 0 8 3t4 8q0 2 -0.5 4t-1.5 3t-4 1h-3h-4q-2 0 -3 -1h-8t-9.5 -1t-7 -3.5t-2.5 -7.5z" />
</svg>
