<?xml version="1.0" standalone="no"?>
<!DOCTYPE svg PUBLIC "-//W3C//DTD SVG 1.1//EN" "http://www.w3.org/Graphics/SVG/1.1/DTD/svg11.dtd" >
<svg xmlns="http://www.w3.org/2000/svg" xmlns:xlink="http://www.w3.org/1999/xlink" version="1.1" viewBox="-10 0 266 256">
   <path fill="currentColor"
d="M141 220q0 5 4.5 10t11 10t13.5 7.5t11 2.5h3.5h2.5l1 -0.5l1 -0.5v-1q0 -3 -3 -5.5t-7.5 -4t-9.5 -3.5t-9 -4.5t-7 -5.5t-3 -7q0 -5 3 -8t7 -4t9 -1.5t9 -1.5t6.5 -4t2.5 -9q0 -11 -6 -15t-17 -4h-4t-6.5 0.5t-6.5 0.5h-5q-1 0 -2.5 0.5l-3 1t-3 2t-1.5 3.5v0q1 2 3.5 2
h5.5h5h3q2 0 2.5 2t1 4.5t0 4.5t-0.5 3v7q-5 3 -8 7.5t-3 10.5zM200 243q0 3 2.5 5t5.5 2h1l0.5 -2t0.5 -3v-1q0 -25 -1.5 -46t-6.5 -44v-1v-1q0 -5 2.5 -9.5t2.5 -9.5q0 -6 -3.5 -10t-8.5 -7t-11 -4t-11 -1h-3h-3l-2 2l4 3q4 1 9 2t9.5 3t8 5.5t3.5 8.5q0 2 -1 5t-3 3
q-3 0 -6.5 -2t-7.5 -4.5t-9.5 -4.5t-12.5 -2q0 4 4 6t8.5 3t8 3t3.5 7q-1 0 -3 0.5t-3 -0.5q-1 0 -5 -0.5t-5 -0.5l-0.5 0.5t-1.5 0.5v1v1l3 3l2 2h24l0.5 0.5t0.5 1.5q2 3 2 6v6v6v7q1 10 3 21.5t2 22.5q0 4 -1 8t-1 8zM107 242q0 3 0.5 5t3.5 2t4.5 -2t2.5 -5
q-3 -39 3 -78q0 -4 5 -4.5t11 -1t11 -1.5t5 -6h-21v-3q0 -1 1 -2t2.5 -2t3 -2.5l2.5 -2.5t3 -1.5t4.5 -1t4 -2t1.5 -3.5q0 -3 -3 -3q-6 0 -9.5 2.5t-7 5.5t-7 5.5t-8.5 2.5q-2 -1 -3 -3t-1 -4q0 -6 4.5 -9t9.5 -5.5t9 -4t4 -3.5q0 -3 -1 -3.5t-4 -0.5q-5 0 -10.5 3t-9.5 7
t-7 10t-3 11v1q1 1 2.5 3t2.5 3.5t2.5 3.5t1.5 4v1q-1 1 -1.5 3.5t-1.5 6t-1.5 6t-0.5 3.5q-1 3 -1 7.5t-0.5 10.5t-0.5 13t-0.5 13t-1 10.5t-0.5 7.5v3zM46 236q0 3 0.5 6t4.5 3q1 0 3.5 -1.5t2.5 -3.5v-39l29 -5l0.5 -1l0.5 -1q3 -4 4.5 -7t1.5 -6.5v-7.5t-1 -9
q2 -1 4.5 -2.5t2.5 -4.5q0 -1 -1 -2t-3 -1q-7 0 -13.5 1t-13.5 1h-9l-2 -2v-13q0 -2 2.5 -2.5t6 -0.5t8 -0.5t8.5 -2.5t7 -5.5t3 -10.5q1 -1 1.5 -5l0.5 -4q1 -2 2 -3t2 -1t2 -1t1 -3q0 -3 -1.5 -3.5t-3.5 -0.5q-8 0 -15.5 1t-14.5 1q-4 0 -6.5 -0.5t-2.5 -4.5q0 -3 1 -5
t3 -5q2 0 7.5 -1t11.5 -3t10.5 -4t5.5 -5v-3.5t0.5 -5t0.5 -5v-3.5q6 -3 6 -10h-42q-1 0 -2 -1l-2 -2v-1v-1q5 -6 10 -9t11 -4.5t12.5 -2.5t13.5 -2q5 -1 5 -7q0 -3 -1.5 -3h-4.5q-6 0 -15 1.5t-17.5 5t-15 9.5t-6.5 14v160q0 9 -1.5 17.5t-1.5 16.5zM159 184q0 -2 1 -4.5
t4 -2.5q6 0 10.5 3t4.5 10q0 2 -1.5 3.5t-3 2.5t-4 1h-4.5h-2.5h-2.5q-2 -4 -2 -6.5v-6.5zM56 171q0 -3 2 -4.5t5.5 -2t6.5 -0.5h4h4h3l1 2q1 0 1 2v3q0 10 -4 14t-14 4h-4h-2l-2 -2v-1.5v-4t-0.5 -5t-0.5 -4.5v-1zM57 120q0 -8 5.5 -10t12.5 -2h1h2.5t2.5 0.5t1 1.5v14
l-5 4h-16q-2 0 -2.5 -1t-1 -2.5t-0.5 -2.5v-2zM117 106q0 1 1 1.5t3 0.5t6 -3t7 -6.5t5.5 -7.5t2.5 -7q-3 0 -7.5 2.5t-8 5.5t-6.5 7t-3 7zM152 78v25q0 1 2 1.5t3 0.5h2q1 -3 1.5 -6.5t0.5 -7v-6.5v-5l4 -5h20.5t20.5 -2q1 0 2.5 -1t1.5 -3t-1.5 -3t-2.5 -1h-2
q-4 0 -9.5 0.5l-11 1l-11 1t-9.5 0.5h-0.5h-0.5l-0.5 -1.5l-0.5 -1.5v-28q0 -6 6 -8.5t13 -4.5t13 -3.5t6 -4.5t-1.5 -3.5t-4.5 -0.5q-7 0 -15.5 3t-15.5 5q-2 2 -3.5 4t-3 4.5t-2.5 5t-1 4.5v27l-3 5h-37l-0.5 1.5l-0.5 1.5q-1 1 -1.5 2t-0.5 2l0.5 0.5t1.5 0.5h41zM172 84
q0 2 2 5.5t5 6t6.5 4t5.5 1.5h3.5t1.5 -2q0 -3 -2.5 -6t-6 -5.5t-7 -4t-5.5 -1.5h-1q-1 0 -1.5 0.5l-0.5 0.5v1zM76 53h3.5h2.5q3 2 4.5 5t1.5 6t-3.5 5.5t-7.5 3.5t-8 1.5t-7 0.5l-1 -0.5t-2 -1.5l-1 -0.5l-1 -0.5v-14q0 -2 2.5 -3t6 -1.5t6.5 -0.5h4zM129 44v9.5t2 9.5
q0 1 1 1h1q3 0 4 -3t1.5 -7t0.5 -7v-4q0 -4 -1.5 -6t-4.5 -2h-2t-2 2v7zM179 57l3 3q5 -3 5 -7.5v-9.5l0.5 -2t0 -4t-1 -3.5t-2.5 -1.5h-3t-2 1v24z" />
</svg>
