<?xml version="1.0" standalone="no"?>
<!DOCTYPE svg PUBLIC "-//W3C//DTD SVG 1.1//EN" "http://www.w3.org/Graphics/SVG/1.1/DTD/svg11.dtd" >
<svg xmlns="http://www.w3.org/2000/svg" xmlns:xlink="http://www.w3.org/1999/xlink" version="1.1" viewBox="-10 0 266 256">
   <path fill="currentColor"
d="M45 239q0 1 0.5 2.5t1 3.5t1.5 3l1 1q2 0 4 -1t3 -3l2 -4t1 -4t-1 -4t-1 -4q0 -5 1.5 -10t3.5 -9h9t10 -1.5t8.5 -4.5t3.5 -8q1 -4 0.5 -6.5t-0.5 -4t0.5 -3t1.5 -3.5q2 -3 4 -3t4 -0.5l4 -1t2 -3.5q0 -4 -1.5 -4.5t-4.5 -0.5q-6 0 -11.5 2t-11.5 2h-4h-6h-7h-4
q0 -1 -0.5 -2t0.5 -2v-3t0.5 -5t0.5 -5.5v-3.5q2 0 5.5 -0.5t8 -1.5t8.5 -2t5 -1t2 -0.5t2.5 -1t3 -1.5t1.5 -2v-22q0 -1 1 -1.5t1.5 -0.5t2 -0.5t3 -1.5t3 -1.5t2.5 -0.5v-2q0 -5 -4 -5q-10 0 -20 3t-20 3q-1 0 -3.5 -1t-2.5 -3v-16q0 -1 3 -1.5t7 -1t9 -1t9 -1t7 -2
t3 -5.5v-17q0 -4 3 -5.5t6.5 -2t6.5 -1.5t3 -4t-1.5 -3.5t-4.5 -0.5q-5 0 -10 1t-10.5 2.5t-10.5 2.5t-10 1h-7q-1 0 -2 -1.5t-1 -2.5q-1 -6 2.5 -10t9.5 -6.5t13 -4t13.5 -2.5t10.5 -3t4 -5t-1.5 -4t-4.5 -1h-2t-1 0.5t-1 0.5t-3 1q-1 0 -4.5 0.5t-7 1.5t-6.5 2t-4 1
q-9 2 -14.5 5.5t-8 8.5t-3 11.5t-1.5 15.5v7v12v14v15v11v7v3t-0.5 5t-0.5 5v3v6v11v14v13v11v7q-1 8 -2.5 17.5t-1.5 18.5zM157 246q0 2 1.5 2h2.5q5 0 6.5 -4.5t1.5 -8.5q0 -9 -1 -19t-2.5 -19.5t-2.5 -19.5t-1 -20q6 0 9 -2t5 -5t4.5 -5.5t7.5 -2.5q4 0 6 3l4 6l4 6t5 3
t5 -1t2 -5q0 -1 -3.5 -5.5t-7.5 -9t-8 -8t-6 -3.5q-3 0 -6.5 3.5t-7 7.5l-7 8t-6.5 6l-2 -4l-0.5 -5t-1 -11t-1 -12.5t-0.5 -10.5v-3v-6.5v-6.5v-6v-4v-7v-7v-4t0.5 -3.5t1.5 -5.5l2 -6t1 -4q1 -2 6.5 -5.5t11 -7.5t10 -7.5t4.5 -5.5q-1 -2 -3 -2.5t-4 -0.5q-4 0 -9.5 2.5
t-11 6.5t-9.5 8.5t-5 8.5q-3 10 -3.5 17t-0.5 17q0 18 1.5 35.5t2.5 35.5q1 25 2 48.5t3 48.5zM58 191q0 -5 1.5 -7.5t4 -3.5t5.5 -1h7h8q1 1 1.5 2t0.5 3l-0.5 2.5t-1 4.5t-1.5 4t-3 3l-18 3q-1 0 -1.5 -1t-1 -3t-1 -3.5t-0.5 -2.5zM117 128q-3 3 -5.5 6.5l-5 7t-4 7
t-1.5 8.5q3 0 5.5 -2l5 -4t4 -4.5t3.5 -4.5h1h2q6 0 9 4.5t6 9.5h5v-10l-2 -2.5t-4.5 -5l-5.5 -5.5l-5 -5l-1.5 -0.5l-1.5 -0.5h-1h-1l-1.5 0.5zM58 135q0 -7 1.5 -10.5t4.5 -5.5t7.5 -2.5t9.5 -0.5q8 0 8 8q0 2 -0.5 4.5t-1.5 5t-2.5 4t-4.5 1.5h-18q-3 0 -3.5 -1t-0.5 -3z
M165 95v0.5v0.5q1 0 2 1.5t2 1.5l1.5 -0.5t1.5 -1.5q1 0 3 -2l4 -4l3.5 -3.5l2.5 -2.5h1h2q3 0 5.5 2.5t4.5 5t4 4.5t5 2q2 0 4.5 -1t2.5 -4q0 -2 -3.5 -6t-8.5 -8t-9 -7.5t-6 -3.5t-2.5 1t-2.5 3q-1 2 -3.5 4.5t-5 6t-5 6.5t-3.5 4v0.5v0.5zM127 83q2 0 4 2t3.5 4t2.5 4.5
t2 3.5l1 0.5l1 0.5q2 0 3.5 -0.5t1 -3.5t-2.5 -7t-5 -8.5t-5.5 -8t-3.5 -4.5q-3 2 -6.5 5.5t-7 7.5t-5.5 7.5t-2 7.5h4l13 -10q0 -1 1 -1h1zM60 77v-7v-4q0 -3 2 -5q5 0 10.5 -2t10.5 -2h1t2 0.5t2 0.5t1 1v14q0 3 -3.5 4.5t-7.5 2t-7.5 0.5h-4.5q-2 0 -3.5 -0.5t-2.5 -2.5z
" />
</svg>
