<?xml version="1.0" standalone="no"?>
<!DOCTYPE svg PUBLIC "-//W3C//DTD SVG 1.1//EN" "http://www.w3.org/Graphics/SVG/1.1/DTD/svg11.dtd" >
<svg xmlns="http://www.w3.org/2000/svg" xmlns:xlink="http://www.w3.org/1999/xlink" version="1.1" viewBox="-10 0 266 256">
   <path fill="currentColor"
d="M164 248q1 2 1.5 2h1.5q5 0 6 -3t1 -7q0 -11 -1 -21.5t-1 -21.5v-4v-7q0 -3 0.5 -6t0.5 -4q0 -3 2 -5t5 -2q5 0 7.5 4.5t4 11.5t2 15t1 15t1.5 12t4 5q2 0 3 -0.5t2 -1.5q0 -1 0.5 -3.5t0.5 -3.5t-0.5 -3.5t-0.5 -3.5l-0.5 -2.5l-1 -5t-1 -4.5t-0.5 -3q-1 -9 -2 -16.5
t-3.5 -13.5t-8 -8.5t-15.5 -1.5l-2 -2v-91q0 -3 5 -4t11.5 -4t11.5 -9t5 -18q0 -3 -2.5 -4.5t-4.5 -1.5q-3 0 -4.5 4t-2.5 9t-3.5 9t-9.5 4h-2t-2 -2v-32q0 -3 -2 -5t-4 -2q-3 0 -4.5 4t-1.5 6v4q0 1 0.5 4.5t0.5 7t0.5 7t0.5 5.5l-2.5 2.5l-2.5 2.5q-1 0 -2 -0.5t-2.5 -0.5
t-3 -0.5t-2.5 -0.5t-1.5 -0.5t-0.5 -1.5l-3 -18q-1 -3 -3 -3.5t-4 -0.5h-2t-2 0.5t-1 1.5v3q2 6 3.5 12.5t5.5 11.5q0 1 1.5 2.5l1.5 1.5h16l1 1t1 2l0.5 2t0.5 4t0.5 3.5t0.5 2.5v75q0 7 -3.5 9.5t-8 4t-9 4.5t-6.5 11q-1 12 -2.5 24.5t-1.5 25.5q3 0 5 -1t3 -4l6 -47
q1 -4 5 -6.5t7 -2.5q1 0 2 0.5l1 0.5l2 8v42q1 3 1.5 7t0.5 8t-0.5 7.5t-0.5 4.5zM51 230q0 1 1 4t3 3q4 0 5.5 -3.5t2 -7.5t0 -7.5t-0.5 -5.5q1 -2 4 -2.5t7 -1t8.5 -1t8 -1.5t6.5 -3t3 -6q0 -1 -0.5 -2.5t-1 -3.5t-0.5 -4v-2q0 -2 1.5 -3.5t3 -2.5l3 -2t1.5 -3q0 -4 -3 -4
q-10 0 -19 2.5t-19 2.5l-1.5 -0.5t-1.5 -1.5v-22q0 -3 2.5 -4.5t6.5 -2.5t8.5 -1t8.5 -0.5t7 -2.5t4 -5v-3v-4v-3v-3q0 -2 1 -4t2 -3t2 -3t1 -4q0 -4 -4 -4q-8 0 -15.5 1.5t-15.5 1.5h-6l-1.5 -4.5t-0.5 -4.5t0.5 -7.5t4.5 -6.5q1 0 4 -0.5t6 -0.5t6 -0.5t4 -0.5q4 0 6.5 -2
t3.5 -5t1.5 -7t1.5 -8q0 -2 2 -3.5t3.5 -2.5l3 -2t1.5 -3q0 -3 -1.5 -3.5t-3.5 -0.5q-8 0 -16.5 2t-16.5 2h-6l-1.5 -1.5l-0.5 -0.5v-1v0q0 -5 3 -8t7.5 -4t10 -2t10 -1.5t7.5 -2t3 -4.5t-1 -3.5t-4 -0.5t-10 1.5t-14 4t-13 5.5t-7 6q-3 30 -3.5 61t-0.5 62v1q0 1 0.5 2
t1 2.5t0.5 3v1.5q0 14 -1.5 29t-1.5 30zM85 181q3 0 3.5 1.5t0.5 4.5q0 6 -2 8.5t-5 4t-7 1.5h-9h-2q-2 0 -2 -2v-11q0 -3 3.5 -4.5t7.5 -2t7.5 -0.5h4.5zM124 111v11q0 6 1.5 11t5 8t10.5 3h1.5h3t3.5 -0.5t2 -1.5q1 -1 1 -3.5v-2.5h-14q-1 0 -1.5 -1t-1 -2.5t-0.5 -3v-2.5
q0 -5 2.5 -7t5.5 -2.5t5.5 -1t2.5 -2.5v-1.5v-0.5q-1 -2 -3.5 -2h-5t-5 0.5l-2.5 0.5v-14q0 -2 2 -3.5t4.5 -3t5 -2t3.5 -0.5v-7q-8 0 -13 2t-8 5.5t-4 9t-1 13.5zM181 139q-2 2 -2 5q7 0 12 -0.5t8.5 -3t5.5 -7t2 -12.5v-1l-1 -3l-1 -3v-6t-0.5 -8t-0.5 -8v-5
q-2 -5 -4 -5.5t-5 -0.5q-4 0 -7.5 0.5t-8.5 1.5v1q0 1 2.5 2t5.5 3t6 5.5t4 9.5q-2 0 -5.5 0.5t-6.5 1t-5.5 1.5t-2.5 4v1q1 0 1.5 1l0.5 1h13q1 0 2 2l2 4t1 4v2q0 4 -1.5 6t-4 3.5t-5.5 2t-5 1.5zM60 133q0 -10 5 -14t15 -4q5 0 8.5 2t3.5 7t-2 7.5t-5 4t-6.5 1.5h-7.5h-9
q-1 0 -1.5 -1.5t-0.5 -2.5zM64 69q0 -4 2.5 -7t6 -4t7.5 -1.5t8 -0.5q3 0 3.5 1.5t0.5 4.5q0 9 -5.5 12t-12.5 3h-8q-1 -1 -1.5 -2l-1 -2t0 -2.5z" />
</svg>
