<?xml version="1.0" standalone="no"?>
<!DOCTYPE svg PUBLIC "-//W3C//DTD SVG 1.1//EN" "http://www.w3.org/Graphics/SVG/1.1/DTD/svg11.dtd" >
<svg xmlns="http://www.w3.org/2000/svg" xmlns:xlink="http://www.w3.org/1999/xlink" version="1.1" viewBox="-10 0 266 256">
   <path fill="currentColor"
d="M183 192v52q0 1 1 4t3 3t3 -2t1.5 -4l1 -4t0.5 -3q0 -11 -1 -22t-1 -21v-8q1 0 4 -0.5t6.5 -0.5t6 -0.5t3.5 -0.5q3 0 3.5 -1t0.5 -3q0 -4 -2 -4.5t-5 -0.5h-2t-1 1h-2t-2.5 0.5t-3 0.5h-1.5l-2 -0.5t-3 -0.5v-7q0 -9 2.5 -12.5t5.5 -5.5t5 -3.5t2 -6.5v-31q0 -2 -1 -2
h-2h-2q-1 3 -1 9.5t-0.5 12.5t-1.5 10.5t-4 4.5q-2 0 -3.5 -0.5t-1.5 -3.5v-35q0 -1 -1 -1h-2t-2.5 0.5t-1.5 2.5v37l-2 1t-2 0q-2 -1 -4 -3l-2 -2v-28l-1 -0.5t-2 -1.5h-1q-2 0 -3 2.5t-1 4.5v4q0 1 0.5 4.5t0.5 7t0.5 6.5t0.5 4q1 1 2 3t1 3q1 1 3 1.5t4 0.5t3.5 0.5
t1.5 2.5v25h-17l-0.5 1l-0.5 1v1v1q0 1 0.5 2l0.5 1h15zM42 237q0 2 0.5 4.5t3.5 2.5q2 0 4.5 -3.5t2.5 -5.5v-31l3 -2q9 0 15 -1t10 -4.5t5.5 -9.5t1.5 -16q0 -2 3.5 -2.5t5.5 -0.5h1l0.5 0.5t0.5 1.5v60q0 1 1.5 3t2.5 2h1q1 0 2 -1.5t2 -1.5v-40q0 -9 5 -13.5t13 -8.5h1
q4 0 6 1.5t4 3.5q4 2 6.5 3t4.5 2.5t2.5 3.5t0.5 7v4v7.5t-0.5 12t-0.5 12v6.5v2q0 1 0.5 2.5t2.5 1.5q1 0 2.5 -1.5t2 -3t1 -3.5t0.5 -3q0 -16 -0.5 -33t-1 -34.5t-1.5 -34.5t-2 -32q-1 -7 -6.5 -10t-11.5 -2v-5q0 -5 2 -8.5t5 -6t7 -4.5t7 -4t5 -5.5t2 -8.5q0 -8 -3 -13.5
t-11 -5.5h-32q-3 0 -3.5 2t-0.5 3q0 4 2.5 4h5t4.5 0.5t2 4.5v1.5v1.5q-1 0 -2.5 1t-3.5 1.5t-3.5 1t-2.5 0.5t-3 1.5l-2 1.5q0 1 0.5 2.5l0.5 1.5h2.5h2.5q8 0 12 -3t6 -6.5t4 -6.5t6 -3q5 0 7 1.5t2 6.5q0 6 -1.5 8.5t-4.5 4.5t-7 3.5t-7 4.5q-2 2 -3.5 6.5t-2.5 9t-2 8
t-2 3.5h-15q-2 0 -3 3t-2 6.5l-2 7t-3 3.5h-40l-3 -4v-15q0 -2 5 -3t11 -1t11.5 -1t7.5 -4q1 -3 1.5 -5t0 -4t-0.5 -4v-6q1 -3 2.5 -4t3.5 -1.5t3 -2t1 -5.5q-10 0 -19.5 1.5t-19.5 1.5q-4 0 -5 -1t-1 -5t3 -6.5t8 -3.5t11 -1.5t11 -1.5t8 -2.5t3 -5.5q0 -2 -0.5 -3t-2.5 -1
q-6 0 -14 1t-15.5 3.5t-13.5 7t-8 10.5q0 7 -0.5 13t-0.5 11.5v11v11.5q0 7 0.5 13.5t0.5 13.5q0 14 -1.5 27t-1.5 27v7l1 3t1 4t-0.5 3.5t-1.5 3.5v13t-0.5 11.5t-1 11.5t-0.5 12zM54 171h22q1 0 1.5 1.5t1 3.5t0.5 4v3q0 3 -1.5 5.5t-4.5 3.5t-6.5 1.5t-6.5 0.5
q-1 0 -3.5 -0.5t-2.5 -3.5v-19zM133 161v-6t-0.5 -10t-1.5 -9t-2 -4q-2 0 -3.5 2t-1.5 3v22q0 2 -1 3.5t-3 3t-4 2t-3 0.5h-3t-2 -2v-6v-12.5t1.5 -12.5t6 -10t12.5 -4q2 0 5.5 1t7 3t6.5 4.5t3 5.5v37q-6 0 -10.5 -4t-6.5 -7zM54 156v-3v-4.5t0.5 -4.5t1.5 -2l25 -4
q3 0 5.5 -2.5t3.5 -6t1 -7v-6.5q1 -4 5 -4q1 0 3 1t2 3v38q0 5 -4 7t-8.5 2.5t-9.5 0t-7 -0.5h-3h-5h-5h-3t-1.5 -1t-0.5 -2.5v-2.5v-1zM56 120l3 -4q1 0 3.5 -0.5t6 -1.5t5.5 -2h2q1 0 3 0.5t2 1.5v13q0 2 -3 3t-6.5 2t-7 1h-3.5q-2 0 -3.5 -0.5l-1.5 -0.5v-12zM131 114
v-22q0 -2 2.5 -2h3.5q4 0 6.5 2t3.5 5t1 7v8v11zM111 97q1 -2 2 -3t3 -1q3 0 4.5 1.5t2 3.5t0.5 5v4v7q-3 4 -7 4h-7q0 -5 0.5 -10.5t1.5 -10.5zM183 92v4q1 0 2.5 -0.5t3.5 -0.5t3.5 -0.5t2.5 -0.5q2 -2 4.5 -6.5t5 -10t4 -10.5t1.5 -7q0 -9 -2 -12.5t-4.5 -5t-5.5 -2
t-5 -3.5t-2.5 -7.5t-0.5 -7.5q0 -4 -1 -7t-3 -3q-3 0 -4.5 1.5t-2.5 3.5t-1 4.5v4.5q0 3 1 5.5t2.5 5t2.5 4.5t1 4t-0.5 2.5t-1.5 2.5t-4 6.5t-6.5 9t-6 8.5t-3.5 6v5h3l1.5 -1t3 -3t3 -3.5l2.5 -2.5q2 -2 4 -6t5 -7.5t5.5 -6.5t5.5 -3t4 2t1 6q0 5 -1.5 9.5t-4 8.5t-6 7.5z
M74 55q4 0 7 2.5t3 6.5t-1.5 6.5t-4.5 4t-6.5 2t-6.5 0.5h-2q-1 0 -2.5 -0.5t-2.5 -1.5t-1 -2v-12q0 -2 2.5 -3t5.5 -1.5t5.5 -1t3.5 -0.5z" />
</svg>
