<?xml version="1.0" standalone="no"?>
<!DOCTYPE svg PUBLIC "-//W3C//DTD SVG 1.1//EN" "http://www.w3.org/Graphics/SVG/1.1/DTD/svg11.dtd" >
<svg xmlns="http://www.w3.org/2000/svg" xmlns:xlink="http://www.w3.org/1999/xlink" version="1.1" viewBox="-10 0 266 256">
   <path fill="currentColor"
d="M58 213v8.5t0.5 13t2 11.5t4.5 5h2t2 -2v-2.5v-2.5v-3v-3t-0.5 -6.5t-1 -11.5t-1 -11.5t-0.5 -6.5v-1q0 -6 2.5 -10.5t6 -9.5t6.5 -9t3 -9q0 -4 -3 -6t-7 -2.5t-7.5 -0.5h-5.5v4q1 0 2.5 1t3.5 2t3.5 2t2.5 1l1 0.5l1 0.5v1q0 3 -2 5.5t-5 5.5l-5.5 5.5t-2.5 5.5
q-2 7 -2 12v13zM123 243q0 1 1 1.5t2 0.5h1.5h0.5q3 -4 4.5 -8t1.5 -8v-8.5v-9.5q0 -10 -0.5 -18t-3.5 -17q-1 -2 -2.5 -3l-3 -2t-2 -2.5t-0.5 -4.5t1 -5t5 -4l-1.5 -1.5t-1.5 -0.5q-5 0 -9.5 4.5t-4.5 9.5q0 2 0.5 2t1.5 1l1.5 1.5t3 2.5t3 2.5l1.5 1.5q1 1 2 3.5t1.5 5.5
t0.5 6v4t0.5 4t0.5 6.5t0.5 6t0.5 3.5v2q0 7 -1.5 11.5t-3.5 11.5v1zM165 88q-5 4 -8.5 7.5t-5.5 7.5t-2.5 8.5t-0.5 11.5v117q3 0 4.5 -2.5t1.5 -4.5v-4v-5v-5v-3v-4t0.5 -6t0.5 -6v-4q1 0 4 -0.5t4 -1.5h1q10 0 19 2t18 2q0 -2 -1.5 -3.5t-3.5 -2.5t-4.5 -1.5t-4.5 -0.5
v-19h15l2 -2q-1 -2 -3.5 -3t-5 -1.5t-4.5 -0.5h-4v-15l1.5 -0.5t1.5 -1.5q2 0 6 -0.5t5 -0.5v-3q-1 -1 -3 -1.5l-4 -1l-4 -1t-3 -1.5l-0.5 -0.5l-0.5 -0.5v-1v-1v-2.5t0.5 -3t0.5 -3v-1.5q1 -1 2 -1.5l1 -0.5h1h1h1.5t3 0.5l3 1l1.5 0.5h1v0l2 -2v-1q0 -2 -2.5 -3t-5.5 -1.5
l-6 -1t-4 -2.5q-1 -6 -1 -10t-2 -8q-1 -3 -3 -5t-2 -4q0 -3 3 -6t6 -6.5t5.5 -8.5t2.5 -13q0 -7 -1.5 -12t-4.5 -9.5t-7 -8.5t-8 -10q-2 -1 -2.5 -2t-0.5 -1.5t-0.5 -0.5h-2.5q-4 0 -5.5 1.5t-3 4t-2.5 5.5t-3 5.5t-3 5.5l-2 6t-2.5 5.5t-3.5 4.5v8q0 8 3.5 13.5t7.5 9
t7.5 5.5t3.5 3v2zM72 206q0 1 1.5 2.5t4 2t4.5 0.5h3q8 0 18.5 -1t18.5 -2l0.5 -0.5l0.5 -0.5l0.5 -0.5l0.5 -0.5l-0.5 -0.5l-0.5 -0.5l-0.5 -1l-0.5 -1h-20q-1 0 -1 -2v-4v-2.5t1 -3.5h3.5t4.5 -0.5t4 -1.5t3 -2l-1 -2h-15v-38q6 -2 11.5 -3.5t9.5 -4.5t6.5 -8t2.5 -12
t-2 -11.5t-6 -6.5t-9.5 -3t-11.5 -1q-1 0 -1.5 -1.5t-0.5 -2.5q0 -3 4.5 -4.5t10 -3t9.5 -5t4 -10.5q0 -3 -1.5 -5t-4.5 -4q-1 0 -3.5 -0.5l-5 -1l-5 -1t-3.5 -0.5q-3 -1 -4 -1t-1 -3q0 -1 0.5 -2t1.5 -2h3t4.5 -0.5t4.5 -1t3 -0.5t4 -0.5t4 -2.5l-2 -1h-21q-1 0 -1 -1v-2
q0 -2 1 -5t3 -5.5t4.5 -4.5t3.5 -2q3 0 5 1.5l4 3t4.5 3t4.5 1.5q0 -4 -2 -8t-5 -7.5t-6.5 -6t-7.5 -2.5q-3 0 -4.5 4.5t-2.5 9.5t-3 9t-5 4q-2 0 -4 -3.5t-4 -8t-5 -8.5t-7 -4q-1 0 -4 3t-7 6.5t-7.5 7l-4.5 4.5v1.5v0.5q0 2 0.5 3t2.5 1q3 0 5.5 -2l5 -4l5 -4t5.5 -2
t5 1.5t4.5 3.5t3.5 4.5t1 4.5v2.5t-1 1.5h-28l-0.5 0.5t-0.5 1.5h-0.5t-0.5 1h0.5h0.5q0 1 0.5 1.5l0.5 0.5h29q2 0 2.5 2t0.5 3v1v2q-5 0 -9.5 1t-8.5 3t-6.5 5t-2.5 9q-1 4 2 7t7.5 4t9 1.5t6.5 0.5q2 2 2 3.5v2.5t-3.5 2.5t-7.5 3t-8.5 3.5t-6.5 5q0 1 -1 2.5t-2 2.5v4v3
q0 10 2 14t6 6.5t9 3.5t12 4q0 5 0.5 8.5t0.5 7t0.5 6.5t0.5 7l-0.5 2.5t-0.5 3.5h-1h-4t-4 0.5t-3 2.5v0v0q0 3 2 3h4q3 0 5 1.5t2 5.5v3q0 2 -2 2q-4 0 -10.5 0.5t-10.5 2.5v1zM154 166q1 0 4 0.5t6 0.5h6h4q2 0 3.5 1.5t2 3t0.5 4v4.5v3v2l-2 2h-2h-3h-4h-3q-2 0 -5 -0.5
t-5 -1l-2 -0.5v-19zM152 151q0 -1 1 -4t2 -3h22q1 0 1.5 1.5t1 2.5t0.5 3v2q0 2 -0.5 5t-3.5 3h-6.5t-8 -1t-6.5 -3t-3 -6zM75 130v-3t3 -1h3h4.5t4.5 -0.5t3 -0.5v16q-3 0 -6 -0.5t-5.5 -2t-4.5 -3.5t-2 -5zM99 136q0 -5 2 -8t5.5 -4t7.5 -1h8q0 9 -5.5 12t-14.5 3
q-1 0 -2 -0.5t-1 -1.5zM154 132v-3v-4.5t0.5 -4t2.5 -2.5q4 2 8 1.5t7 0.5t5.5 3t2.5 8q0 1 -0.5 3.5t-1.5 2.5h-23q-1 0 -1 -2v-3zM90 105h2t1 1v12l-1.5 0.5t-3.5 0.5t-4.5 0.5t-4.5 0.5h-2.5h-3.5q0 -6 5.5 -10.5t11.5 -4.5zM99 111q0 -6 2.5 -7t8.5 -1q5 0 9 4t4 10h-22
q-1 0 -1.5 -0.5t-0.5 -1.5v-4zM158 108q0 -2 1 -4.5t3 -4.5t4 -3.5t4 -1.5q1 0 2 1t2 2.5t2 2.5t1 2v2t0.5 4.5t0.5 4.5v3q-3 0 -6 -0.5l-6 -1t-5.5 -2t-2.5 -4.5zM76 77q0 -6 4 -8t9 -2h2t2 1v12q0 2 -2.5 2h-2.5h-4t-3.5 -0.5t-3 -1.5t-1.5 -3zM101 67l7 -2h2q3 0 5.5 2
t2.5 6q0 3 -2 5t-4.5 2.5t-6 0.5h-6.5q0 -4 0.5 -7.5t1.5 -6.5zM152 51q0 -2 1 -6.5t3.5 -9t5 -8t5.5 -3.5q4 0 7.5 3t6 7t4 8.5t1.5 8.5q0 5 -0.5 9t-2.5 7t-5 6t-8 7v0h-1q-5 -3 -8 -5.5t-5 -6t-3 -7.5t-1 -10zM166 51v2v3t1 2t2 1t2 -1t1 -2v-3v-2v-3v-3t-3 -1t-3 2.5
v4.5z" />
</svg>
