<?xml version="1.0" standalone="no"?>
<!DOCTYPE svg PUBLIC "-//W3C//DTD SVG 1.1//EN" "http://www.w3.org/Graphics/SVG/1.1/DTD/svg11.dtd" >
<svg xmlns="http://www.w3.org/2000/svg" xmlns:xlink="http://www.w3.org/1999/xlink" version="1.1" viewBox="-10 0 266 256">
   <path fill="currentColor"
d="M62 245v5q9 0 15.5 -8t11 -20t7.5 -26t5.5 -26.5t5.5 -21t6 -8.5q2 0 6.5 -0.5t10 -1t10 -1t6.5 -0.5q7 -1 12 -6t5 -13v-1q0 -2 -0.5 -6t-0.5 -9t-0.5 -9t-0.5 -6h-0.5h-0.5q-3 0 -4 5.5t-1.5 12.5t-2 13.5t-5.5 9.5h-5.5t-9.5 0.5t-9.5 1t-6.5 0.5q-6 1 -10.5 4.5
t-6.5 8t-3 10t-3 11.5q-2 10 -4 21.5t-5.5 22t-8.5 20.5t-13 17zM112 212v0v0q0 1 0.5 1.5l0.5 0.5q4 0 12 -1.5t16.5 -4t14.5 -6t7 -8.5q0 -1 0.5 -4.5t0.5 -7v-6.5v-5v0v-4t-0.5 -6.5t-0.5 -6.5v-3v-2q0 -1 -1 -3.5t-3 -2.5q-1 0 -2 1.5l-2 3l-2 3t-2 1.5q-4 1 -10.5 2
t-13.5 3t-12 4.5t-5 6.5q5 0 10 -1t10 -2.5t10 -2.5t10 -1q3 0 4 2t1 6q0 1 -2.5 2.5t-6.5 3t-9 2.5t-9.5 2t-8 2t-4.5 2l3 3h5q8 0 14.5 -2t13.5 -2q2 0 2.5 0.5t0.5 2.5q0 5 -3 8t-8 5.5t-10.5 3.5t-10 2.5t-7.5 3t-3 4.5zM95 109q0 5 3.5 7.5t8.5 3.5t10 1h8h2h4.5h3.5h3
t2.5 -0.5t2.5 -0.5v-1q0 -2 -1.5 -3t-4 -1h-4.5h-2h-5t-7 -0.5t-7 -0.5h-5l-1.5 -3t-0.5 -2t0.5 -2t1.5 -1q9 -1 18 -1.5t18 -0.5v-2v-2q0 -1 -0.5 -1.5t-1.5 -0.5h-37l-0.5 -0.5l-0.5 -0.5q0 -1 0.5 -2l0.5 -1q1 0 4.5 -0.5t7.5 -0.5t7 -0.5t4 -0.5q2 -1 5 -1t5.5 -0.5
t4.5 -1.5t2 -4q-5 0 -11 0.5l-12 1l-12 1t-11 -0.5q-1 2 -1.5 5.5t-1 6.5t-0.5 6v4zM50 114q0 1 1 1h2h2q7 -6 11.5 -14t7 -17t3.5 -18.5t1 -18.5q2 -4 6 -4.5t8 -1.5q1 0 4 -0.5t6.5 -0.5h6.5h4l1.5 -3t0.5 -2v-1.5v-0.5q-7 -1 -11 -1h-10t-11 0.5t-11 2.5q-2 0 -4.5 2
t-2.5 3v38q0 5 -2.5 9.5t-5 8.5t-5 8.5t-2.5 9.5zM184 61v2t0.5 2.5t0.5 2.5v1q0 1 0.5 4t1 6.5t1.5 7t1 5.5q1 1 1.5 4t2.5 6.5t3.5 6t3.5 1.5q1 0 2 -1t1 -2q0 -2 -1 -7.5t-3 -11.5t-3.5 -12t-1.5 -10q0 -8 2.5 -15.5t2.5 -14.5v-3q-1 -1 -3.5 -2.5t-3.5 -1.5h-2h-4h-4h-3
h-3h-4.5h-3.5h-2h-5t-6.5 1t-6 2t-2.5 3v1q0 1 0.5 1.5l0.5 0.5q4 1 9 1.5t10 0.5h9.5h7.5q1 0 2 1.5t1 3.5q0 4 -1 8t-1 8zM89 71q0 1 1.5 2.5t2.5 1.5h17q1 0 3 -1.5t2 -2.5q0 -2 -1 -2.5t-2.5 -1t-3.5 -0.5h-2q-4 0 -7.5 0.5t-8.5 1.5l-0.5 0.5l-0.5 0.5v1zM127 73
q1 2 2 2h2h0.5h0.5q3 -8 3 -14v-14v-4v-4.5v-4.5v-2q0 -1 -0.5 -4.5l-1 -7t-2 -6t-4.5 -2.5h-0.5h-0.5q0 1 -0.5 4.5t-0.5 7t-0.5 6.5t-0.5 5v0q0 9 1 19.5t2 18.5zM175 66h-26q-1 0 -1 1t-0.5 2t-0.5 2v2q1 0 4 -0.5t6.5 -0.5h6h4.5q1 0 4 -0.5t3 -1.5v-4zM104 50h-3.5
t-5.5 1t-5 2t-2 3h24q1 0 1 -1v-2t-1 -2t-2.5 -1h-3h-2.5zM147 52q1 1 2.5 2t2.5 1h19l3 -3q-2 -3 -5.5 -4t-5.5 -1h-3t-4 0.5t-3.5 0.5t-1.5 1z" />
</svg>
