<?xml version="1.0" standalone="no"?>
<!DOCTYPE svg PUBLIC "-//W3C//DTD SVG 1.1//EN" "http://www.w3.org/Graphics/SVG/1.1/DTD/svg11.dtd" >
<svg xmlns="http://www.w3.org/2000/svg" xmlns:xlink="http://www.w3.org/1999/xlink" version="1.1" viewBox="-10 0 266 256">
   <path fill="currentColor"
d="M139 219q0 3 0.5 7.5t1.5 8.5t3.5 7t6.5 3q6 0 12.5 -0.5t12 -2.5t9 -6.5t3.5 -12.5q0 -5 -1 -9t-2.5 -8t-5 -6t-9.5 -2t-12 0.5t-10 2.5t-6.5 6t-2.5 12zM50 242q1 0 1.5 0.5l0.5 0.5h1q2 0 3.5 -2.5t2 -6.5l1 -8t0.5 -5t0.5 -4.5t1 -7.5l1 -8t0.5 -6v-4q0 -1 0.5 -7
t0.5 -13t0.5 -13t0.5 -7v-4v-3l-0.5 -1t-0.5 -2.5t-0.5 -2.5t-0.5 -2l0.5 -1.5t0.5 -2.5t0.5 -2.5l0.5 -1.5v-3t0.5 -4t0.5 -3v-1q0 -1 -0.5 -3.5t-0.5 -3.5v-5.5v-7.5v-9v-5q0 -9 -0.5 -20.5t1.5 -20.5q3 -5 8.5 -6.5t10.5 -1.5q3 -1 8 -1.5l10 -1t8.5 -1l3.5 -0.5l7 2v29
q0 2 1 4.5t3 2.5t3.5 -1.5t1.5 -3.5v-31l11 -2l46 2q1 0 2 1.5t2 4t1 4v1.5v24t0.5 21.5t0.5 21.5v23q0 4 -0.5 7t-0.5 7q0 12 1.5 24t2.5 24q1 2 0.5 10t0 16.5t2 15t4.5 6.5q1 0 1.5 -0.5t1 -2t0.5 -3v-1.5q0 -16 -2 -30.5t-3 -30.5v-8v-15v-14v-9v-3t-0.5 -6t-0.5 -6v-4
v-5t0.5 -9t0.5 -9v-5v-20v-20q-1 -2 -1.5 -5.5l-1 -7t-1 -6t-2.5 -2.5h-63q-2 0 -3 -1t-1.5 -2.5t-1.5 -2.5t-2 -1q-2 0 -2.5 0.5t-1.5 2t-2 2.5t-2 1q-7 2 -17 2t-20 1.5t-17.5 6t-8.5 13.5v5v6.5v7.5v4q0 14 0.5 27.5t0.5 26.5q0 40 -1 79q-1 9 -2.5 18t-1.5 18v7zM76 217
v11.5t2 8t5.5 5.5t10.5 2q3 0 8 -0.5t10 -2.5t9 -4.5t4 -7.5v-18l-1 -1.5l-1 -1.5q-3 -4 -6 -6t-6 -3t-7 -1h-8q-11 0 -15.5 4.5t-4.5 14.5zM147 227q0 -3 2 -3h4q3 0 4.5 1.5t1.5 4.5t-2.5 4.5t-4.5 1.5q-3 0 -4 -3t-1 -6zM85 228q0 -3 1 -3.5t4 -0.5t4 0.5t1 4.5q0 3 -1 4
t-4 1q-2 0 -3.5 -1.5t-1.5 -4.5zM111 222q1 0 2.5 1t1.5 3q0 3 -1 4.5t-3 2.5t-4.5 1.5t-4.5 0.5v-5.5t1 -4t2.5 -2.5t5.5 -1zM167 229q0 -3 3 -5t5 -2q1 0 1.5 1.5t0.5 2.5q0 3 -1.5 5.5t-3.5 2.5q-3 0 -4 -1.5t-1 -3.5zM84 214q0 -3 2 -5.5t6 -2.5q2 0 3.5 2.5t1.5 4.5
q0 3 -3 3h-5h-1h-2t-1.5 -0.5t-0.5 -1.5zM103 205q1 0 3.5 0.5t4.5 1t4 2t2 4.5l-0.5 0.5t-1.5 0.5q0 1 -1.5 1.5l-1.5 0.5q-2 0 -5.5 -0.5t-3.5 -1.5v-9zM147 214q0 -7 6 -7q3 0 4 1t1 4t-1.5 3.5t-3.5 0.5h-1h-2.5t-2 -0.5t-0.5 -1.5zM167 207h2t4.5 0.5t4 1.5t0.5 4
q0 2 -2 2.5t-4 0.5q-4 0 -4.5 -2t-0.5 -7zM77 166q0 3 0.5 6t1.5 6.5t3 5.5t5 2h27l2 -0.5l2 -0.5l0.5 -0.5l0.5 -0.5l-1 -1l-0.5 -1l-0.5 -1h-25q-1 0 -2 -1t-2 -1q0 -1 -1.5 -2.5t-1.5 -3.5v-22q0 -1 2.5 -3.5t4.5 -3.5q2 -2 6.5 -2h6.5h9q2 1 3 3t1.5 4.5t0 4.5t-0.5 4
q0 3 -1 4.5t-3 2t-4 0.5h-5h-6l-0.5 -1t-0.5 -2v-1q0 -1 1 -3t3 -2h1l2 0.5l2 0.5h1q2 0 2.5 -1.5t0.5 -2.5q0 -4 -3 -4h-6t-5 1t-3 3t-1 5v6q0 5 4.5 7t8.5 2h1q1 0 3 -0.5t4.5 -1t4.5 -1t3 -0.5q2 -2 3 -7t1 -7t-0.5 -4.5t-1.5 -5t-1.5 -5t-0.5 -3.5q-5 -2 -9 -3t-8 -1
q-10 0 -15.5 1.5t-8.5 5t-3.5 10t-0.5 15.5zM169 134l-5 0.5t-11 1.5t-11 2.5t-5 5.5v31q0 4 4 7.5t7 3.5h30l2 -3q-3 -3 -10 -3h-12t-11 -1t-5 -7v-1.5v-1.5q1 -8 1 -13.5t2 -8t6 -4t13 -1.5h1q2 0 4 0.5t3.5 1t1.5 2.5v14l-4 4h-11q-2 0 -1.5 -2.5l0.5 -2.5h8l0.5 -1.5
l0.5 -1.5q0 -4 -2.5 -5t-4.5 -1q-5 0 -7.5 3.5t-2.5 8.5q0 6 4 8.5t10 2.5q3 0 6.5 -0.5t6.5 -2.5t4.5 -5t1.5 -7v-8t-2 -7.5t-4.5 -6t-7.5 -2.5zM79 98q0 4 0.5 8t2 7.5t5 5.5t7.5 2q7 0 12.5 -1t10 -3.5t7 -7.5t2.5 -12q0 -2 -1 -5t-2.5 -5.5t-4 -4.5t-4.5 -3h-5.5h-5.5
q-6 0 -11.5 0.5t-11.5 6.5q-1 2 -1 6v6zM183 87q-1 -2 -4.5 -5t-6.5 -3h-20q-1 0 -3.5 1t-5 3t-4.5 4t-2 3v18q0 3 1.5 5t4 3.5t5 2.5t4.5 1q7 0 13 -1t10 -3.5t6 -7.5t2 -13v-8zM143 106q0 -3 2 -3.5t4 -0.5q6 0 6 6v0v0q0 1 -0.5 1.5t-1.5 0.5l-1.5 0.5l-1.5 0.5
q-4 0 -5.5 -1t-1.5 -4zM161 107q0 -4 2.5 -5.5t6.5 -1.5q2 0 3 1t1 3q0 3 -2 5t-5 2q-4 0 -5 -0.5t-1 -3.5zM87 107q0 -2 1 -3.5t3 -1.5t4.5 1t2.5 4t-1.5 3h-4.5q-2 0 -3.5 -0.5t-1.5 -2.5zM111 98q1 0 3.5 1.5t2.5 3.5q0 3 -1.5 4.5t-3.5 2t-4 0.5h-5q0 -1 0.5 -3t1.5 -4
t2.5 -3.5t3.5 -1.5zM87 93v-1q2 -2 3 -3.5t3 -1.5t3.5 1t1.5 3q0 3 -2 3.5t-4 0.5h-3.5t-1.5 -2zM161 89q0 -1 1.5 -1.5t2.5 -0.5q3 0 4 1t3 4q0 1 -2 2t-3 1t-3.5 -2t-2.5 -4zM106 89q0 -1 1 -1.5t2 -0.5h2t1 2l-1 1.5t-2 1.5l-1.5 -0.5t-1.5 -1.5v-1zM151 87q2 0 2.5 2
t0.5 3h-6v-0.5v-1.5q1 0 1.5 -1.5l0.5 -1.5h1zM77 62v1l2 1h9q1 0 4 0.5t6.5 0t6.5 -1.5t3 -4q0 -2 -2.5 -2.5t-3.5 -0.5t-5 0.5t-8.5 1t-8 1.5t-3.5 3zM146 59q0 2 1 3.5t3 1.5h24q1 0 2.5 -1t1.5 -3v-1l-2 -1.5l-2 -1.5h-24q-4 0 -4 3zM82 43q0 2 1 2.5t2.5 1t3 0.5h2.5h7
q2 -1 5.5 -1.5l3.5 -0.5v-6q-1 0 -4 0.5t-6 0.5h-6h-4q-3 0 -4 0.5t-1 2.5zM146 42q0 3 4 3h9h8t8 -2q1 0 1 -1q0 -3 -3 -3.5t-5 -0.5h-4q-1 0 -3.5 0.5l-5 1t-5 0.5h-3.5l-0.5 0.5t-0.5 1.5z" />
</svg>
