<?xml version="1.0" standalone="no"?>
<!DOCTYPE svg PUBLIC "-//W3C//DTD SVG 1.1//EN" "http://www.w3.org/Graphics/SVG/1.1/DTD/svg11.dtd" >
<svg xmlns="http://www.w3.org/2000/svg" xmlns:xlink="http://www.w3.org/1999/xlink" version="1.1" viewBox="-10 0 266 256">
   <path fill="currentColor"
d="M84 185v66q3 0 5 -1.5t3 -4t1.5 -5.5t0.5 -5v-6q0 -2 -2 -4v-34q0 -6 4 -8.5t10 -3.5t11.5 -1h8.5l0.5 -0.5t1.5 -0.5v-1v-1l-2 -2t-2 -1h-32v-18q0 -1 3 -2t6.5 -2t7.5 -1.5t6 -2.5l1.5 -1t2.5 -2l2 -2t2 -1v-6.5v-10.5v-9.5v-6.5v-1.5t0.5 -3.5t0.5 -3.5v-2.5v-1
q0 -2 -1 -4t-3 -2q-4 0 -5 2t-1 4t-0.5 5t-1.5 5.5t-4.5 4t-9.5 1.5q-5 0 -5.5 -3.5t-0.5 -7.5q0 -6 1.5 -9.5t3.5 -5.5t4.5 -3t4.5 -2.5t3.5 -4.5t2.5 -8v-4.5v-6.5v-7v-5l1 -1l19 -3q1 0 1 -0.5v-1.5q0 -2 -4 -3q-1 0 -3 -0.5t-4.5 -0.5t-5 -0.5t-3.5 -0.5l-3 -22
q0 -2 -1.5 -2h-2.5q-6 0 -6 7l1 2l1 2v8v7q-2 2 -6 2h-5q-2 0 -5 -0.5t-4 -0.5t-3 -0.5l-2 -0.5v-25q-1 0 -4 0.5t-4 0.5l-0.5 0.5l-0.5 0.5v23l-1.5 0.5l-1.5 0.5q-1 1 -3 1t-4.5 0.5t-4.5 0.5h-3l-1.5 1.5t-0.5 2.5t1.5 3t3.5 1h1.5h0.5h1.5t3 -0.5t3 -0.5t2.5 -1h1v0
l1.5 1.5l0.5 0.5l3 26q1 4 2 5.5t3 2.5t3.5 2t3 3.5t2.5 6.5t1 12v3.5v3.5l-2 1h-16l-0.5 -0.5t-1.5 -0.5q-3 -5 -2.5 -9.5t1.5 -10.5q-1 0 -2 -0.5t-2 -0.5v0q-3 0 -3.5 3.5t-0.5 4.5q0 10 0.5 21t2.5 21q1 5 5 7.5t8 4t7.5 2t3.5 2.5v16l-3 2h-31q-2 0 -2.5 1.5t-0.5 2.5
v2.5t2 1.5h32zM141 142v1v14.5t0.5 17t0.5 15v6.5q0 1 0.5 4.5t2 6.5t3 5.5t4.5 2.5h40q4 0 6 -3.5t2 -5.5t0.5 -6t0.5 -8t0.5 -8t0.5 -6v-20v-20q0 -1 -0.5 -2.5t-1.5 -3t-2 -2t-3 -0.5q-2 1 -2.5 3t-0.5 4q0 3 -0.5 5t-2.5 2q-4 1 -8 1.5t-7 0.5h-6.5h-7.5q-6 0 -8 -1.5
t-3 -3.5t-2 -4.5t-5 -3.5q0 1 -0.5 4t-0.5 4v1zM147 194q0 -3 2 -6t6 -3h36l1 1q0 1 0.5 3t0.5 3q0 5 -1.5 8t-4 4.5t-6.5 2t-8 0.5q-3 0 -7.5 -0.5t-8.5 -1.5t-7 -4t-3 -7zM147 162v-2.5v-2.5l3 -1l3 -0.5t6.5 -0.5t7 -0.5t6.5 -0.5h3.5h5.5h3h2l5 5v14l-3 4h-3.5t-9 0.5
t-11 0.5h-8.5h-1q-4 0 -6 -1.5t-2.5 -3.5t-0.5 -5v-6zM66 129q0 -5 3.5 -7t8.5 -2h4.5t3.5 3v9v3v4t-1.5 3t-3.5 1q-15 0 -15 -14zM92 141v-8q0 -8 2.5 -11t10.5 -3h3h4l0.5 1t0.5 2v2v1q0 8 -3.5 13t-12.5 5q-3 0 -5 -2zM142 119l0.5 0.5t1.5 0.5v0v0q4 0 4.5 -2t0.5 -4v-5
q0 -2 -0.5 -6t-1 -8.5t-0.5 -8.5v-6q0 -1 -0.5 -2.5t-1.5 -2.5v-1v-2q1 -1 1 -4.5t0.5 -7t1 -6.5t1.5 -4q2 -3 5 -5t7 -2q2 0 3 0.5t2 2.5q0 1 0.5 3t1 4.5t1 4.5t0.5 3q1 1 2.5 6t3.5 11.5t4.5 14t5 13.5t4.5 9.5t3 3.5q4 -2 4.5 -3.5t0.5 -3.5q0 -4 -1.5 -9.5t-3.5 -10.5
t-4.5 -10.5t-3.5 -9.5q0 -1 -1 -3.5t-1.5 -4.5t-1.5 -4t-1 -3l-1 -2l-2 -4l-2 -4t-1 -3l0.5 -0.5t1.5 -0.5q6 -2 15 -2t15 1q4 -3 4 -7q0 -1 -0.5 -2t-1.5 -1h-5h-3h-6.5t-10.5 0.5t-12.5 1t-12 2t-10 3.5t-5.5 4q0 1 -1 5t-1.5 8t-1.5 7.5t-1 5.5q0 6 0.5 12.5t1.5 12.5
t2 12.5t1 12.5zM77 51v-3t1 -2l1 -2h2h5t6 -0.5t5 -0.5h1q2 0 3.5 1.5t1.5 3.5v4v5v7t-1.5 5.5t-4 4t-7.5 1.5q-4 0 -7 -2.5t-4 -6t-1.5 -8t-0.5 -7.5z" />
</svg>
