<?xml version="1.0" standalone="no"?>
<!DOCTYPE svg PUBLIC "-//W3C//DTD SVG 1.1//EN" "http://www.w3.org/Graphics/SVG/1.1/DTD/svg11.dtd" >
<svg xmlns="http://www.w3.org/2000/svg" xmlns:xlink="http://www.w3.org/1999/xlink" version="1.1" viewBox="-10 0 266 256">
   <path fill="currentColor"
d="M178 215q0 5 0.5 10t4.5 10q1 2 2.5 4.5l3 5t4 4t5.5 1.5q2 0 3 -0.5t1 -3.5t-2.5 -6.5t-6 -8t-6 -9t-2.5 -10.5q0 -3 1.5 -5t4 -3.5t5 -3.5t4 -4.5t2 -3.5t0.5 -1.5t0.5 -1.5t2.5 -3l4 -24v-54q0 -7 -3.5 -11t-8.5 -6.5t-11 -3.5t-11 -3q-2 0 -4 -2t-3 -4.5t-2.5 -4
t-2.5 -0.5q-2 1 -3 2.5t-2 3.5t-2.5 4t-4.5 3q-1 0 -4 1l-6 2t-6 1.5t-4 1.5q-2 1 -2 2.5v2.5q7 0 15 -2t15 -5l2.5 -1t3.5 -2l1.5 0.5t2.5 1.5l1.5 0.5l1.5 0.5q5 2 10.5 3.5t10 4.5t7.5 7t3 11v41q-1 4 -1.5 7.5t-0.5 7t-0.5 7.5t-3.5 7q-4 6 -9.5 10t-9.5 10v4.5v4.5z
M151 242q1 2 2 2h2t2.5 -1t1.5 -4l3 -46h22l1 -1l2 -2v0v-1v0q0 -1 -0.5 -1.5l-0.5 -0.5q-6 1 -12 0.5t-12 -1.5v-2.5v-2.5l-0.5 -2.5t1.5 -3.5q3 0 7 -0.5t7.5 -1.5t6 -4t2.5 -7v-21q0 -1 -2 -1.5l-2 -0.5q-2 0 -3 1t-1.5 2.5t-1.5 2.5t-3 1h-4.5t-3.5 -2v-2v-2
q0 -3 1.5 -4.5t3.5 -2.5t4.5 -2t3.5 -3q0 -1 0.5 -2t0.5 -2t0.5 -2.5l0.5 -1.5q1 -3 3.5 -4t5.5 -1t5.5 -1t2.5 -5h-16l-3 -10h-1t-2 1t-1.5 2.5l-1 3t-0.5 2.5h-21v-6h-1.5h-2.5t-1.5 1.5t-0.5 2.5v3t-1 1h-15q-1 0 -1.5 1t-0.5 2v1l4.5 1.5t2.5 0.5q2 0 3.5 -0.5t5.5 0.5
l2.5 3t5 7.5t4.5 8.5l2 4v2v2.5t-0.5 2.5l-0.5 1h-11q-1 0 -1 -1q0 -2 -0.5 -3.5t-2 -3t-5.5 -1.5q0 7 0.5 15t3.5 15q1 3 3 4t5 1t4.5 0.5t1.5 1.5v12h-25l-0.5 0.5l-1.5 1.5v0v1l1.5 1.5l0.5 0.5h22q1 0 1.5 1.5t0.5 3v2.5v2q0 9 -1 17t-1 17v7zM80 191q1 0 2.5 0.5
t2.5 0.5l0.5 0.5l0.5 0.5v48h3h3q0 -1 1 -1t1 -1v-46l1 -1q1 0 3 -0.5t4.5 -0.5t4.5 -0.5t3 -0.5q2 0 5 -1.5t3 -3.5v-1q-1 0 -1.5 -0.5l-0.5 -0.5h-6q-4 0 -6.5 0.5t-5.5 0.5h-2.5t-1.5 -1v-20h23q0 -2 -1 -4t-3 -2h-18q-1 0 -1.5 -1t-0.5 -2l0.5 -0.5l0.5 -0.5
q0 -1 1.5 -3l3 -4l3 -4t2.5 -2q3 -4 4 -5.5t4 -1.5q2 0 3.5 1.5l3 3l2.5 2.5t4 1q2 0 2.5 -1t0.5 -3q0 -1 -0.5 -2.5t-1.5 -2.5t-3.5 -2.5t-5.5 -3.5t-5.5 -3.5t-3.5 -2.5t-3.5 -2.5t-4.5 -3.5t-3.5 -4t-1.5 -4v-2.5t0.5 -3t1.5 -2.5t3 0q5 1 9.5 3.5t10.5 2.5v-6l-22 -8
l-0.5 -1.5t-0.5 -2.5t-0.5 -2.5t-0.5 -2.5q0 -2 0.5 -3.5t0.5 -2.5q-1 -1 -2 -1h-2t-1.5 0.5t-0.5 2.5q0 1 -0.5 2t-0.5 3t0.5 3.5l0.5 1.5q-2 3 -7.5 5t-11.5 4t-11 4t-5 5t4 2.5t9 -3t10 -4.5t6 -2h2.5t1.5 1t0.5 3t0.5 3q0 4 -3 7t-7.5 5t-9.5 4t-9.5 4.5t-7.5 5.5t-3 8
q2 0 4 -1t3.5 -2.5t3 -2.5t4.5 -1t6.5 2.5t7 6t5.5 7.5t2 7q0 2 -0.5 3t-4.5 1h-19l-4 4l3 3h2h3q5 0 8.5 -0.5t7.5 -0.5h2t2 1v17l-3 3h-32q0 6 2.5 6.5t6.5 0.5q5 0 10 -1t10 -1zM177 151q2 0 3 2t1 4q0 4 -3.5 7.5t-7.5 3.5h-4t-3 -3v-11l1.5 -0.5l1.5 -0.5q1 0 2.5 -0.5
t3.5 -0.5t3 -0.5t2 -0.5zM145 158v-4q2 -1 3.5 -1h3.5t3 2t1 4v4.5t-3 2.5q-4 0 -6 -2t-2 -6zM76 128v-1q0 -2 1.5 -3.5t4 -2.5t5.5 -1.5t4 -0.5h4t4 1t3.5 2.5t1.5 3.5t-1 5t-3 5.5t-4.5 4.5t-5.5 2q-2 0 -2.5 -0.5l-1.5 -1.5q0 -1 -2 -2.5t-3.5 -4t-3 -4.5zM153 119v-1.5
t1 -1.5h19v1.5t-0.5 3.5t-1.5 3.5t-2 1.5h-12q-3 0 -3.5 -2.5t-0.5 -4.5zM91 40q1 0 2 0.5t1 2.5v25q5 0 6 -6v-3.5v-5.5v-5.5v-3.5t1 -2.5t2 -1.5h1q1 1 3.5 4t5 5.5t5.5 4.5t5 2q3 0 3 -3t-4 -7t-8.5 -8t-9 -6.5t-4.5 -3.5v-15q0 -1 -1.5 -1.5l-1.5 -0.5q-2 0 -2.5 0.5
t-0.5 1.5q-3 4 -3 8.5t1 9.5q-2 3 -8 6.5t-11.5 7.5t-10.5 8t-5 10q5 0 9.5 -2.5t8.5 -6t7.5 -7.5t6.5 -7h0.5h1.5zM157 43l1 0.5l1 0.5q0 1 1 2l1 1v22q2 0 4 -1t3 -3q0 -1 -0.5 -4t-0.5 -6t0.5 -5.5t0.5 -3.5t0.5 -3.5t3.5 -2.5v0q4 2 8 6t7.5 7t8 5.5t9.5 2.5
q0 -6 -3.5 -10.5t-9 -8t-11.5 -6t-10 -5.5q-2 -1 -2 -4v-7.5v-6t-3 -2.5l-2 0.5t-2 1.5v16q0 1 -3 4l-5 5q-1 2 -4.5 4.5l-7 5t-6.5 5.5t-3 6t4 3h0.5h0.5z" />
</svg>
