<?xml version="1.0" standalone="no"?>
<!DOCTYPE svg PUBLIC "-//W3C//DTD SVG 1.1//EN" "http://www.w3.org/Graphics/SVG/1.1/DTD/svg11.dtd" >
<svg xmlns="http://www.w3.org/2000/svg" xmlns:xlink="http://www.w3.org/1999/xlink" version="1.1" viewBox="-10 0 266 256">
   <path fill="currentColor"
d="M75 243q0 2 0.5 4t2.5 2q3 0 4 -1t2 -4l0.5 -2.5t1 -5.5t0.5 -5v-3v-9v-13v-12.5v-8.5l3 -3l21 -3q1 0 1.5 -1t0.5 -2t-0.5 -2t-1.5 -1q-6 -3 -12 -2t-12 1v-18q4 0 7 -1t5 -1.5t3.5 -2.5t3.5 -5l2 -2v-54q0 -2 -1.5 -2h-2.5q-3 0 -4 2.5t-1.5 6t0 7t0.5 4.5
q-1 1 -2.5 1.5t-3.5 0.5t-4 -0.5t-2 -2.5v-22q0 -1 2 -2.5t4 -2.5l4 -2t2 -3q0 -1 0.5 -4.5l1 -7t1 -6.5t0.5 -4q1 -4 2.5 -6.5t3.5 -3.5t3.5 -2t1.5 -2q0 -2 -1.5 -2.5t-3.5 -1t-4 -0.5t-2 -1v-3.5v-4.5v-5v-3t-1.5 -3t-2.5 -1q-1 0 -2 1t-1 2v2.5v4.5v5v3l-1 1.5l-1 1.5
q-4 1 -7 1h-8h-3q-2 0 -2 -1v-14l-1.5 -0.5t-2.5 -0.5h-0.5h-0.5h-2.5t-1.5 1v15h-13q-2 0 -2.5 2t-0.5 3q0 2 0.5 2.5t2.5 0.5h12l3 3q-1 11 1 20t11 15v27h-17q0 -1 0.5 -4t0 -6t-1.5 -5.5t-4 -2.5h-2t-2 2v7q0 12 1.5 22.5t3.5 23.5q1 4 3.5 5.5t6 2.5t7 1.5t5.5 0.5v3
v3.5t-0.5 5.5t-1.5 5.5t-4 2.5h-22q-2 0 -2.5 2t-0.5 4q0 1 0.5 2t2.5 1h1q1 0 4 -0.5t7 -0.5t7 -0.5l3 -0.5q1 0 1.5 -0.5l0.5 -0.5q1 0 1.5 0.5l1.5 1.5v4v6v5v4q0 11 -1 21.5t-1 20.5zM112 242q0 4 3 4q5 0 6.5 -3t1.5 -7t-0.5 -8t-0.5 -6t0.5 -6t0.5 -8.5t0.5 -8.5
t0.5 -5l0.5 -2.5t0.5 -3.5t0.5 -4t1 -6.5t1 -6.5t0.5 -4q2 -2 3.5 -4t2.5 -3.5t3 -2.5t5 -1h4l1.5 3t0.5 3v2q-1 0 -2 1t-2.5 3t-2 3t-1.5 2v2v3q0 4 1.5 6.5t3.5 4t5 3t7 4.5q-2 2 -5.5 4.5t-6.5 4.5t-5.5 5t-2.5 7q0 2 0.5 6t1.5 8t2 7.5t2 3.5q3 0 3 -2v-4
q0 -4 -0.5 -8.5t-0.5 -9.5q0 -2 1 -4t3 -2q3 0 4 4t2.5 8.5t3 8.5t4.5 4q2 0 2.5 -1.5t0.5 -3.5q0 -3 -1 -5.5t-2.5 -5l-3 -5t-1.5 -5.5t1.5 -5.5t3.5 -5t4.5 -4.5t4.5 -3q0 -1 0.5 -1t1.5 -1q-2 -2 -5 -3.5t-6.5 -2t-7 -0.5h-4.5q-3 -1 -3.5 -3.5t-0.5 -4.5t0.5 -4.5
t4.5 -2.5q3 0 6.5 1.5t6.5 1.5q5 0 9 -1.5t9 -1.5t9 1.5t4 7.5q0 5 -3 8t-7 6t-7 7t-3 11q0 8 2 13.5t6 13.5h1h1q3 0 3.5 -1t0.5 -3q0 -4 -1 -6.5t-2.5 -5.5t-3 -5.5t-1.5 -5.5v-3q0 -1 0.5 -2.5t1 -2.5t1.5 -1q3 0 4.5 2t2.5 5.5t2 7.5t2.5 7.5t5.5 6t10 2.5
q0 -1 -0.5 -3.5t-0.5 -3.5l-1.5 -1.5l-1.5 -1.5q-1 -1 -3 -4t-4 -6.5t-4 -6.5t-2 -4t-0.5 -2l-0.5 -1q0 -4 2 -5.5l4 -3t3.5 -4.5t1.5 -8q0 -7 -2 -9.5t-5.5 -3t-7.5 -1t-9 -3.5v-2v-2v-3.5t2 -3.5q5 0 9 -1t6 -3t3 -6t1 -10q0 -4 -2 -6.5t-5.5 -3.5t-7 -1.5t-6.5 -0.5v-9
l1 -0.5t2 -1.5q4 -1 6.5 -2.5t4 -3.5t2.5 -5t1 -8q0 -3 -4 -3q-3 0 -4 2.5t-2 5.5t-4.5 5.5t-11.5 2.5h-3.5t-2.5 -1v-3t-0.5 -4l-1 -4t-0.5 -3q0 -2 -0.5 -2.5t-2.5 -0.5q-3 0 -3 3.5v7.5t-1.5 7.5t-6.5 3.5h-1.5h-2.5q-3 -4 -5.5 -8.5t-3.5 -8.5h-0.5h-0.5q-3 0 -3 1.5
v3.5q0 5 2 7.5t4.5 5t4.5 5t2 6.5q0 3 -2 4t-5 1.5t-6 0.5h-7t-5 1t-2 3q0 3 3 3h23l0.5 1t0.5 2v2v3q0 5 -1.5 7.5t-5 4l-7 3t-6.5 4t-5.5 7t-2.5 12.5l-5 61l-0.5 2t-0.5 3v0zM155 160q0 -6 4 -6.5t8 -0.5h3.5t1.5 3v2.5t-0.5 3t-1 2.5t-1.5 1h-11q-1 0 -2 -2l-1 -2v-1z
M174 127v14q0 1 -1 1.5t-2.5 1.5t-3 1.5l-1.5 0.5h-2.5h-3.5h-4h-2v-16l1.5 -0.5t3.5 -1t4 -0.5t3 -1h4h4zM63 140q-1 -6 -2 -9.5t-1 -7.5q0 -2 0.5 -3.5t1.5 -2.5h7q1 0 2.5 -0.5t3 0t2.5 1t1 2.5v3v3.5t-0.5 6t-0.5 6v3.5q0 2 -2 2h-3q-5 0 -9 -4zM92 117h5l0.5 0.5
l0.5 0.5v22q0 1 -1.5 2t-3.5 1.5t-4 0.5h-3v-26l0.5 -0.5t1.5 -0.5h4zM186 127q3 0 5 2.5t2 5.5t-2.5 5t-5.5 2h-1t-1 -1v-12q0 -2 1 -2h2zM174 114q0 3 -2.5 4.5t-6 2t-7 0.5h-5.5q0 -1 0.5 -4.5t0.5 -4.5l0.5 -0.5l0.5 -0.5h17l0.5 1t1.5 2v0zM122 79q1 1 1.5 1h1.5
q4 0 4 -2t1 -4.5t3.5 -5t11.5 -2.5q3 0 3.5 2t0.5 4t0.5 3.5t2.5 1.5q3 0 4 -2.5t1 -5.5v-6v-4v-5v-3l-5 -4h-22l-1 0.5l-1 0.5l-2 1.5l-2 1.5q-1 2 -1.5 4t-0.5 5v5v3v5v6zM167 75q0 1 0.5 1.5t1.5 0.5v0q3 0 4 -1.5t1.5 -3.5l1 -4t2.5 -3h3t4 -0.5l4 -1l2 -0.5h2
q2 0 2.5 0.5t0.5 2.5v2.5v4.5q0 1 0.5 3l0.5 2q3 0 4.5 -1.5t2.5 -3.5t1 -4.5v-4.5q0 -5 -0.5 -9t-2 -6.5t-4 -3.5t-8.5 -1q-7 0 -11.5 1t-7 3.5t-3.5 7.5t-1 11v4.5v3.5zM72 57q0 -3 0.5 -6t1.5 -7q4 -1 6.5 -1.5t6.5 -0.5q2 0 4.5 1t2.5 3v9t-1 7.5t-3.5 5t-7.5 1.5
t-7.5 -3t-2.5 -9zM145 51q1 1 1 2v3v2q0 3 -1 3h-14q0 -4 1 -5.5t3 -2.5t4.5 -1t5.5 -1zM187 50q3 0 5.5 1t2.5 5h-19q0 -2 1 -3.5t3 -2t4 -0.5h3zM122 36q5 1 8 1.5t8 0.5h5h6t5.5 -1t2.5 -4q0 -1 -0.5 -2t-1.5 -1h-6h-6h-6t-6 0.5t-7 1.5q-2 0 -2 0.5v1.5v1.5v0.5zM167 31
q0 1 0.5 2t2.5 1h35q2 0 2.5 -1.5t0.5 -3.5q0 -3 -2.5 -3.5t-4.5 -0.5q-8 0 -15.5 1t-15.5 1q-2 -1 -2.5 0.5t-0.5 3.5z" />
</svg>
