<?xml version="1.0" standalone="no"?>
<!DOCTYPE svg PUBLIC "-//W3C//DTD SVG 1.1//EN" "http://www.w3.org/Graphics/SVG/1.1/DTD/svg11.dtd" >
<svg xmlns="http://www.w3.org/2000/svg" xmlns:xlink="http://www.w3.org/1999/xlink" version="1.1" viewBox="-10 0 266 256">
   <path fill="currentColor"
d="M168 228q1 0 1 0.5v0.5q1 0 2.5 0.5l1.5 0.5v16q0 1 1 2t2 1q1 1 3 0l2 -1v-18q0 -1 2 -1t4 -0.5t4 0t3 0.5q3 -1 8 -1.5t8.5 -1.5l3.5 -1v-7q-7 0 -13.5 1.5t-13.5 1.5q-2 0 -3.5 -1t-1.5 -3t4 -3t8.5 -3t8 -7t3.5 -15v-3t-0.5 -4t-0.5 -4v-2q-1 -2 -2.5 -2h-2.5
q-3 0 -3 2v4q0 3 -2.5 4.5t-12.5 1.5l-1 -2.5l-1 -2.5q1 -1 2.5 -2t2.5 -2q3 -1 4 -3.5l2 -5l2 -5t4 -3.5q1 -2 5 -2t7 -0.5t6 -2t3 -3.5q0 -3 -2.5 -3.5t-4.5 -0.5q-4 0 -8 1t-8 1q0 -5 2 -6.5t4.5 -2t4.5 -1t2 -3.5q0 -2 -1.5 -3.5t-3.5 -1.5h-2l-1.5 0.5t-3.5 1.5t-4 1.5
l-2 0.5h-4.5t-8.5 0.5t-9.5 0.5h-7.5h-6q-1 0 -2.5 0.5t-3 0t-2.5 -1t-1 -1.5q0 -2 1.5 -4t3.5 -3q12 -2 24 -2h24q2 0 3.5 -1.5t2.5 -3t1.5 -3.5t0.5 -4q0 -6 -3.5 -8t-8 -3t-8.5 -1.5t-4 -4.5q0 -1 2 -2l5 -2.5l6 -3t5 -3.5q2 -3 2.5 -8.5t1 -12t0.5 -13t1 -11.5v-3
q0 -4 -1.5 -7t-5.5 -3h-1l-1.5 6t-4.5 2q-2 0 -5.5 -0.5t-7 -1.5t-6 -3t-2.5 -5q0 -2 1 -3t3 -1q1 0 4.5 -0.5l7 -1t6.5 -1t5 -0.5q1 -1 1 -2v-2t-1 -2t-3 -1.5t-4 -0.5h-3q-9 0 -19 1t-18 2q-7 1 -10 5t-4 9.5t-1 11.5v11v7.5v9.5t1 10t2.5 9t5 6.5t8.5 1.5v3q0 4 -4 5.5
t-8.5 2t-8.5 1.5t-4 5l1.5 1t2.5 1.5t2.5 0.5h2.5h1q2 -1 4.5 -2t5.5 -2t5 -1.5t3 -1.5q3 -1 4.5 -3.5t2.5 -4.5t2.5 -3.5t5.5 -1.5t5 1t0.5 2t-0.5 3t2 4q1 1 4.5 2t6.5 2.5l6 3t3 3.5q0 1 -1 1.5l-1 0.5h-6.5h-9.5h-9.5h-6.5q-4 0 -8.5 1t-8.5 3t-6.5 5.5t-2.5 8.5
q0 2 2 4t4.5 3t5 1.5t4.5 0.5q1 1 1.5 3.5t0.5 3.5v1v2q-2 1 -7 1q-4 0 -8 0.5t-7 1.5t-3 5h25q3 6 7.5 12t10.5 10v2l-2 0.5t-4.5 1t-4.5 0.5h-3q-4 0 -5 -1.5t-1.5 -3.5l-1 -4t-3.5 -3l-3 4v3v4q0 8 1 13t4 8t8 4.5t13 2.5v0.5v0.5q0 1 -0.5 2t-1.5 2h-3.5t-5.5 0.5
t-6 0.5h-4l-6 1.5t-2 4.5q0 3 1.5 3.5t4.5 0.5q6 0 10.5 -2t9.5 -2zM55 187v56q0 1 1.5 1.5t2.5 0.5q2 0 3.5 -2.5t1.5 -4.5q0 -13 -1 -25t-1 -25q0 -3 0.5 -4t3.5 -1q2 0 4.5 3t2.5 6v49q2 0 4 -1.5t3 -2.5v-23v-22q-1 -2 -1.5 -6t-0.5 -5q-1 -3 -3.5 -4t-5 -1.5t-4.5 -2
t-2 -5.5q0 -3 3 -4.5t5.5 -3.5t5.5 -5.5t3 -10.5q0 -6 -2.5 -8t-5 -3.5l-5 -3t-2.5 -7.5q0 -4 3 -6l6 -4t6 -5.5t3 -11.5q0 -3 -2.5 -5.5t-5 -4.5t-4.5 -5t-2 -7l0.5 -2t0.5 -3l2 -1l1.5 -0.5t4 -0.5t5.5 -0.5t5 -0.5h5h6v2.5t0.5 4t0.5 4v2.5v1v2q-3 4 -7 8t-4 10t4.5 10
t8.5 7v2.5v1.5q0 4 -2 6t-4.5 4t-4.5 4.5t-2 6.5q0 7 2.5 9t5.5 4t5.5 5t2.5 10q0 3 -1.5 4t-3.5 2t-4.5 2.5t-3.5 3.5l-0.5 2t-1.5 4.5t-1.5 4.5t-0.5 3v2v3v7.5t0.5 11.5t0.5 11.5v7.5h1h1q4 0 3 -4q-1 -13 -1 -23t2 -21l0.5 -1.5t1.5 -3t1.5 -2.5t1.5 -1v0l3 2v2v4
q0 3 0.5 5t1.5 3v42l0.5 0.5l1.5 1.5h1q3 0 4 -3t1 -5q0 -9 -0.5 -16.5t-0.5 -16.5v-14q-1 -3 0.5 -3.5t2.5 -0.5q3 0 5 4t3 9t1.5 10t0.5 7q0 4 -1 8.5t-1 8.5v4.5t3 2.5q1 0 3 -1t2 -2v-45q0 -6 -3 -9t-6.5 -5t-6.5 -3t-3 -4q0 -5 2 -8t5 -5.5t5 -5.5t2 -8t-2.5 -7.5
t-6 -3.5t-6.5 -2t-3 -4q0 -5 2.5 -7.5t6 -4.5t6 -4.5t2.5 -8.5q0 -5 -2.5 -7.5t-6 -5t-6 -5t-2.5 -6.5q0 -7 1.5 -11.5t3.5 -8.5t3.5 -8t1.5 -11q0 -15 -8.5 -21t-24.5 -6q-2 0 -7.5 0.5t-11.5 2t-10.5 4.5t-4.5 7v26q0 3 1.5 5l3 4t3 4.5t1.5 5.5q0 8 -3 11.5t-6.5 5.5
t-6.5 4.5t-3 7.5q0 7 2.5 9.5t5 4.5t5 3.5t2.5 5.5q0 5 -2.5 7t-5 4.5l-5 5t-2.5 6.5t0.5 7t2 6t4 5t6.5 2v11q-8 4 -10.5 9.5t-2.5 14.5q0 4 -0.5 10t-0.5 11.5t-0.5 9.5t-0.5 5l2 6q1 -1 2.5 -1.5t2.5 -1.5v-8t0.5 -11.5t0.5 -12v-7.5q1 -1 1.5 -4.5t0.5 -4.5
q1 -3 2.5 -2.5t3.5 0.5zM153 198v-0.5v-1.5h3t4 -0.5t3.5 -0.5h2.5h2h2t3 1v2.5v2.5q0 4 -2.5 5.5t-7.5 1.5q-10 0 -10 -10zM179 201v-4t3 -2h14q0 5 -3 7.5t-7 2.5t-5.5 -0.5t-1.5 -3.5zM164 166q0 -3 2 -3.5t5 -1.5h3t4.5 -0.5t4.5 -0.5h3q0 8 -2.5 9.5t-9.5 1.5h-6
q-4 -2 -4 -5zM51 152q-2 -1 -2 -2.5v-2.5q0 -3 0.5 -5.5t4.5 -2.5h13q2 0 3.5 2t1.5 4q0 3 -2.5 4.5t-4.5 3.5v0v0h-1h-1h-2t-4 -0.5t-4 -0.5h-2zM160 147q0 -2 2 -3t5 -1h5.5h2.5h10l2 2t1 2q1 0 1 1q0 2 -3 3t-6.5 1.5t-7.5 0.5h-5h-3h-3q-1 -3 -1 -6zM97 144q0 -4 2.5 -7
t6.5 -3q1 0 3.5 0.5t4.5 1.5t3 2.5t1 3.5l-1.5 2t-1.5 3q-1 0 -1.5 0.5l-0.5 0.5h-14q-2 0 -2 -1.5v-2.5zM52 99q0 -5 3 -6t7 -1q5 0 8 1t3 6q0 4 -3.5 6t-7.5 2t-7 -2t-3 -6zM95 98q0 -3 3.5 -5t6.5 -2h4t4 1t3.5 2t1.5 4t-3 5t-7 2h-4t-4 -0.5t-3.5 -2.5t-1.5 -4zM147 82
v0v-1l6 -2h38q0 5 -4.5 7t-10.5 3t-11.5 0.5t-8.5 -0.5t-6 -1.5t-3 -5.5zM140 68q0 -2 3.5 -3.5t8 -2t10.5 -1t11 -1t9 -0.5h5q2 0 5 0.5t3 3.5q0 2 -0.5 3.5t-2.5 2.5q-9 1 -16 1.5t-16 0.5h-16q-2 0 -3 -1t-1 -3zM63 48q0 -1 0.5 -2t1.5 -2q5 0 10.5 -0.5l11 -1t11.5 -0.5
h9q0 5 -1.5 7.5t-4 4t-6 2t-7.5 0.5h-6t-8.5 -0.5t-7.5 -2t-3 -5.5zM142 51v-0.5v-1.5q6 -4 14 -7t16 -3q1 0 5 1t8 2.5t7 3t3 3.5t-0.5 3.5t-2.5 1.5h-48q-2 0 -2 -1.5v-1.5zM143 35q0 -8 5 -10.5t12 -2.5q2 0 3.5 1.5t1.5 3.5t-0.5 3.5t-1.5 2.5q-5 2 -8 3.5t-7 1.5
q-2 0 -3.5 -0.5t-1.5 -2.5zM60 30q0 -5 3 -7.5t7.5 -3.5t9 -0.5t8.5 0.5h5.5t7 0.5t6.5 2.5t3 5q0 4 -3 6h-7t-11 0.5t-11 0.5h-6t-1.5 0.5l-0.5 0.5q-1 0 -2.5 -0.5t-3.5 -1t-3 -1.5t-1 -2z" />
</svg>
