<?xml version="1.0" standalone="no"?>
<!DOCTYPE svg PUBLIC "-//W3C//DTD SVG 1.1//EN" "http://www.w3.org/Graphics/SVG/1.1/DTD/svg11.dtd" >
<svg xmlns="http://www.w3.org/2000/svg" xmlns:xlink="http://www.w3.org/1999/xlink" version="1.1" viewBox="-10 0 266 256">
   <path fill="currentColor"
d="M189 213l0.5 2.5t1 4.5t1 4.5l0.5 2.5q1 2 1.5 6t2 8t3.5 7t5 3t4 -3t1 -6t-2.5 -9.5t-6 -13.5t-7 -12.5t-6.5 -7.5q-1 -1 -5 -2l-8 -2t-7.5 -2t-5.5 -2v-15l0.5 -0.5t0.5 -1.5q1 0 3.5 -0.5t3.5 -0.5t4.5 -0.5t7 -0.5t7 -0.5t4.5 -0.5q4 -3 5.5 -8t1.5 -10t-2 -7.5
t-4.5 -5l-5 -5t-2.5 -7.5v-4q0 -3 2 -4l6 -4.5t2.5 -2.5t0.5 -2v-2t0.5 -3.5t2.5 -7.5v-63q0 -1 -0.5 -1.5t-1.5 -0.5q-3 0 -4.5 2t-2.5 5t-2 5t-5 2q-6 0 -8.5 -3.5t-2.5 -9.5t4 -7.5t8.5 -2t8.5 -1t4 -4.5v-2t-2 -2h-7h-15q-8 0 -16 1.5t-14.5 5t-8.5 10.5v17v24.5t1 24.5
q1 5 3 8.5l4 7t3.5 7t1.5 7.5q0 5 -2.5 9t-7 6t-9.5 3t-9 2q-1 0 -1.5 0.5t-0.5 1.5l-1 1.5l-1 1.5q1 2 2.5 2.5t2.5 0.5q7 0 14 -2.5t13 -7.5q4 -2 5.5 -6.5t3 -8.5t4.5 -7t9 -3q3 0 4 2t1.5 4.5t0.5 5.5q0 2 1 3q1 3 3 5t4 3.5t4 4t2 5.5v5q-8 4 -15 4.5t-12.5 2.5t-9 7
t-3.5 15v9q1 2 3 3t3 1q2 0 5.5 1t7.5 1.5t7.5 1.5t4.5 1q5 3 9 7zM97 236q1 2 2.5 4.5t3.5 2.5t3 -2t1 -4q0 -11 -3.5 -24t-8.5 -24v-33q0 -3 1.5 -6.5l3 -7l3 -7t2.5 -6.5q1 -2 3 -5.5t3.5 -7.5t2.5 -6.5l1 -2.5v-6l-1 -1.5t-3 -3t-4 -3.5t-3.5 -3t-4 -2.5t-4.5 -2.5v-8
q0 -5 2 -9.5t4 -8.5t4 -7.5t2 -7.5t-1 -8.5t-2.5 -9t-3.5 -8t-6 -5.5q-3 0 -4 1t-1 3t1.5 4.5t3.5 5.5t3.5 6.5t1.5 6.5q-1 3 -3.5 3.5t-4.5 0.5l-1.5 -0.5t-2.5 -0.5q0 -1 -4 -5t-9.5 -8t-10 -7t-7.5 -3q-2 0 -3 1.5t-1 3.5q0 3 5.5 6.5t12 7t12 8t5.5 9.5q0 3 -1 4.5
t-4 2.5q-1 0 -4.5 0.5t-7 1.5t-7 1t-4.5 1q-3 0 -3.5 0.5t-0.5 3.5q0 1 0.5 2t1.5 2h9q4 0 7.5 -1t7.5 -1h3t2 2v13l-2 2l-4.5 4.5t-5 4.5t-4.5 4l-1 1t-2 1q-2 5 -4.5 9t-4.5 7.5t-3.5 7.5t-2.5 9q-4 17 -4.5 33.5t-0.5 33.5v24q0 4 1 7t5 3h1l2 -2l3 -3v-5v-5
q0 -10 -1 -21t-1 -21q0 -11 1 -23.5t2 -22.5q1 -5 3 -9t5 -8t6.5 -7.5l6.5 -6.5q0 -1 0.5 -2t0.5 -2q1 0 3 -1l4 -2t3.5 -2t2.5 -1h2q4 0 5.5 2t1.5 5q0 7 -3 12.5t-6 11.5q-3 11 -5.5 22.5t-2.5 21.5v1q0 2 0.5 5.5t0.5 8t0.5 8t0.5 4.5q1 2 2 4.5t1 4.5t1 6t1.5 9t1.5 9
t1 6zM147 109q0 -5 4.5 -7t9.5 -2q1 0 5 -0.5t8 -0.5h9h5q0 4 -1 7.5t-5 4.5q-1 0 -4 0.5t-6.5 0.5t-6.5 0.5t-4 0.5t-3 1t-3 1v0h-1q-7 0 -7 -6zM145 89q0 -5 2.5 -7.5t5.5 -3.5t7.5 -0.5t9.5 0.5h15q2 1 4.5 2.5t2.5 4.5l-1 0.5l-1 0.5q0 1 -1 3t-2 2q-2 1 -7 1.5t-11 1
t-11.5 1t-7.5 0.5h-1q-3 0 -3.5 -2t-0.5 -4zM149 68q-2 0 -2 -1.5v-2.5q0 -2 2 -5.5t4.5 -6t5.5 -4.5t6 -2q2 0 6 2t7.5 4.5t6 5.5t2.5 6v3t-2 3h-5h-4h-8h-6t-6 -0.5t-7 -1.5zM145 35q0 -1 0.5 -2t0.5 -2.5t1 -2.5t2 -1h14q0 3 -0.5 6t-2.5 6t-4.5 4.5t-5.5 1.5h-3
q0 -1 -1 -4t-1 -4v-2z" />
</svg>
