<?xml version="1.0" standalone="no"?>
<!DOCTYPE svg PUBLIC "-//W3C//DTD SVG 1.1//EN" "http://www.w3.org/Graphics/SVG/1.1/DTD/svg11.dtd" >
<svg xmlns="http://www.w3.org/2000/svg" xmlns:xlink="http://www.w3.org/1999/xlink" version="1.1" viewBox="-10 0 266 256">
   <path fill="currentColor"
d="M148 190q0 6 4 8.5t9 2.5t11 -0.5t10 0.5q3 1 5.5 7t4 13.5t2.5 15t1 10.5h1h1q3 0 3.5 -1t1 -3t0 -4t-0.5 -3q0 -15 -1.5 -23.5t-6 -13.5t-13 -7t-23.5 -2l-1.5 -1.5t-1.5 -2.5v0q0 -6 3.5 -8t9 -2.5t11.5 -0.5t11.5 -1.5t8.5 -5t3 -11.5q0 -7 -3 -10.5t-7 -5t-7.5 -2.5
t-3.5 -5q0 -2 2.5 -4t5.5 -4.5l6 -5t4 -5.5q3 -9 4 -18.5t1 -19.5t-0.5 -19.5t0.5 -18.5q0 -3 -2 -4t-4 -1q-4 0 -5 2t-1 5t0.5 6t0.5 5q-2 0 -5.5 -1.5t-7.5 -3.5t-6.5 -4.5t-2.5 -4.5t0.5 -2.5t1.5 -2.5l2 -4l1 -2h25q1 0 1 -2v-2v-2t-1 -1t-3.5 -0.5t-5 -0.5t-5 -0.5
l-2.5 -0.5q-2 0 -7 0.5t-10.5 0.5t-10.5 0.5t-7 0.5q-7 1 -10.5 9t-4.5 17.5t-1 19v14.5v12v8q0 3 0.5 7t1.5 7.5t3 6.5q1 2 2.5 3.5t3 3.5l3 4t1.5 4q0 4 -4 6.5t-9 4.5t-9.5 4.5t-4.5 7.5q0 2 1 2.5t2 0.5q2 0 6.5 -2t9 -5l9 -6t5.5 -5l1 -2l2 -4t2 -3.5t2 -2.5h2h2h3h2
q2 6 6 9.5t8 6.5t7 5t3 4q0 3 -3 4.5t-6 1.5q-1 1 -5 1.5t-8.5 1t-8.5 1t-6 0.5q-6 5 -7.5 9.5t-1.5 13.5zM86 146q-4 0 -10 0.5t-11.5 2.5t-9.5 5.5t-4 8.5v35q0 6 3.5 9t8.5 4.5t10 1.5h9q9 0 15 -1t10.5 -4t6.5 -8.5t2 -15.5v-7.5t-0.5 -7.5l-1 -8t-1.5 -9
q-2 -3 -5.5 -4.5t-7 -2t-7.5 0t-7 0.5zM59 191v-3.5t2 -2.5l15 -2q2 0 2.5 2.5t0.5 4.5q0 3 -0.5 6t-1.5 7h-2.5h-3.5q-5 0 -8.5 -3.5t-3.5 -8.5zM87 191q0 -2 2 -5t5 -3h1q2 0 6 1t5 1l0.5 1l0.5 1q0 7 -3.5 11.5t-9.5 4.5h-5q0 -1 -0.5 -2t-0.5 -3t-0.5 -3t-0.5 -2v-2z
M59 170q0 -8 5.5 -11.5t11.5 -3.5h1l2 2t1 2l0.5 2.5l0.5 2.5q0 4 -1 7.5t-5 3.5h-5q-2 0 -4.5 -0.5t-4.5 -1.5t-2 -3zM89 168q0 -4 0.5 -8.5t4.5 -5.5q6 1 9.5 4t3.5 10q0 1 -1 4t-3 3h-11q-2 0 -2.5 -3t-0.5 -4zM77 91v46q0 2 1.5 2h2.5q2 0 3 -3.5t1.5 -8.5t0 -9.5
t-0.5 -6.5q1 -2 1.5 -5t1 -5.5l1 -5l0.5 -2.5l1 -2h3.5h5t5 -0.5l2.5 -0.5q3 0 6 -1t3 -4l-0.5 -1.5t-1.5 -1.5h-26v-39q0 -6 4 -9.5t9 -6t9 -5t4 -6.5q0 -3 -2 -4t-4 -1t-7 3.5t-10 7.5t-9 8.5t-4 6.5v45l-28 3v0.5v1.5v2t2 2h26zM54 132q0 2 0.5 3.5t2.5 1.5q4 0 6.5 -4
t3.5 -9t1.5 -10.5t0.5 -7.5v-4t-3 -2t-5 5t-3.5 11t-2.5 11zM97 102v3q0 2 0.5 6t1 9t1 9.5t0.5 6.5h2q3 0 4.5 -2t1.5 -4v-6t-1 -11t-2.5 -10.5t-3.5 -4.5t-3 0.5t-1 3.5zM143 110q0 -2 3 -3t7.5 -1.5t8.5 -0.5h6h9t10 1q1 1 1.5 2t0.5 2q0 5 -3.5 7.5t-8 3.5t-9.5 1.5
t-8 0.5h-8q0 -1 -1.5 -2t-3.5 -3t-3 -4t-1 -4zM141 91l0.5 -1.5l1 -3t1.5 -3t2 -1.5h42q1 0 1.5 0.5l0.5 0.5q0 1 0.5 3.5t0.5 3.5q1 0 1 1t-2.5 3.5t-4.5 2.5h-41l-0.5 -1l-0.5 -1q-1 0 -1.5 -1.5t-0.5 -2.5zM57 49v23q0 1 1.5 1.5t2.5 0.5q2 0 3 -0.5t2 -3.5v-11
q0 -3 0.5 -7t0 -8t-2 -7t-5.5 -3t-4.5 2t-0.5 6q0 2 0.5 4t2.5 3zM143 72v-1v-1q0 -3 2.5 -6.5t6.5 -6.5t8 -4.5t6 -1.5t6 2t8 4.5t7 5.5t3 5t-0.5 4t-3.5 2h-1q-2 0 -8 -0.5t-13 -0.5t-13 -0.5t-8 -0.5zM110 31q-4 0 -6.5 5.5t-4 12.5t-2.5 13.5t-1 8.5q3 0 6 -4.5
t5.5 -10.5t4 -12t1.5 -8v-3.5t-3 -1.5zM144 43q0 -5 2 -9.5t9 -4.5q2 0 4.5 0.5t2.5 3.5t-1.5 6t-3.5 5t-5 3.5t-5 1.5q-3 0 -3 -2v-4z" />
</svg>
