<?xml version="1.0" standalone="no"?>
<!DOCTYPE svg PUBLIC "-//W3C//DTD SVG 1.1//EN" "http://www.w3.org/Graphics/SVG/1.1/DTD/svg11.dtd" >
<svg xmlns="http://www.w3.org/2000/svg" xmlns:xlink="http://www.w3.org/1999/xlink" version="1.1" viewBox="-10 0 266 256">
   <path fill="currentColor"
d="M133 242q0 1 0.5 2t1 2.5t1.5 3t2 1.5q2 0 3.5 -1.5t2.5 -3.5v-20q0 -21 -1 -40.5t-1 -40.5q-1 -3 -1 -5v-5q0 -5 4 -7.5t10 -3.5t11 -1h9h12q2 0 2.5 2.5t0.5 4.5q0 3 -1 5l-2 4t-2.5 4t-3.5 5q-5 8 -6.5 16t-1.5 17v3v3.5v4v2.5q1 2 3 6.5t4.5 10l5 11t5.5 10.5t5.5 8
t4.5 3q3 0 5.5 -2t2.5 -5q0 -4 -2 -8t-5 -8t-6 -7t-5 -7q-4 -7 -5.5 -15t-1.5 -16v-11q2 -4 5 -9t5.5 -10t4.5 -10t2 -11q0 -3 -2.5 -6t-5.5 -3h-49q-4 0 -4.5 -3t-0.5 -5q0 -3 0.5 -6t4.5 -3q25 0 50 -7l0.5 -0.5t1.5 -0.5q0 -1 1.5 -3.5t2.5 -3.5v-5.5t0.5 -8t0.5 -8.5v-5
v-3q0 -2 -0.5 -5.5t-4.5 -3.5q-2 0 -3.5 2.5t-1.5 5.5v6v4l-3 1h-40q-3 0 -5 -1t-2 -4q0 -7 3.5 -11t8.5 -6t11.5 -2.5t11.5 -2.5h1.5t2.5 -1t2 -1h2q1 -1 4 -1t6 -0.5t6 -0.5h5q1 0 1 -1v-2v-3q-1 0 -4.5 -0.5t-4.5 -0.5q-13 0 -26.5 3t-25.5 7q-5 2 -7 4.5t-3 6.5t-1 8
t-1 8l-0.5 2t-1 4.5t-1 4.5l-0.5 2v8q0 25 1 50t1 51v2.5t0.5 4t0.5 4v2.5v9v13v14v9zM63 174q0 23 5 45q0 2 1 6l2 8t2.5 7t3.5 3q4 0 5.5 -3.5t1.5 -6.5q0 -7 -2 -14.5t-4 -16t-4 -16.5t-2 -16v-3t0.5 -4t1.5 -3.5t3 -1.5q3 0 6 6.5t5 15.5t4.5 20t5 20t5.5 15.5t7 6.5
q3 0 4 -2.5t1 -4.5v-1v-1l-0.5 -1.5t-1.5 -3t-1.5 -3l-0.5 -1.5q-1 -3 -3.5 -9t-4.5 -12.5t-4 -11.5t-3 -7t-2 -5.5l-2 -7t-1.5 -7t-0.5 -6.5q0 -2 1 -4t3 -3.5t3.5 -3.5t1.5 -5v-1v-3v-3v-2q0 -1 1.5 -2t3 -1.5t2.5 -1t2 -1.5q3 -2 4.5 -5.5t2.5 -8t1.5 -8.5t0.5 -7
q0 -10 -2 -15t-5 -6.5t-6 -1.5t-6 -1t-5 -3.5t-2 -9.5l0.5 -2t1.5 -2h13q1 0 2 -1.5t1 -2.5q1 -1 0 -2l-1 -1h-4h-4q-4 0 -8.5 1t-9.5 1q-2 0 -3.5 -0.5t-1.5 -3.5v-3.5t1 -3t2.5 -4t3.5 -4.5t3 -3.5t2 -1.5h5l1.5 1t3.5 3l4 4t3 4q1 1 3 3.5t4 5.5t4.5 5t4.5 2h1
q1 0 3.5 -1t2.5 -3l-2.5 -3.5t-7 -8t-9 -9.5t-9 -9.5t-8 -7.5t-4.5 -3q-3 0 -6.5 4.5t-6.5 10l-6 11t-5 7.5l-8 8t-7 8q-3 5 -3 10q0 4 3 4t5 -2.5t3.5 -5l3 -5t4.5 -2.5h15q1 0 2 1t1 2v2v2q0 4 -1.5 6t-4.5 3.5t-6 2.5t-5.5 3.5t-4.5 7t-2 12.5q0 3 0.5 7l1 8t2 7.5
t4.5 5.5q2 1 6 1.5t8 0.5t7 1t3 4q0 5 -2.5 7t-5.5 3t-7 1.5t-7 3t-5 8t-2 15.5zM72 110q0 -3 2 -5t5 -2.5t7 -0.5h6t4.5 -0.5t5 0t4.5 1.5t2 3q0 9 -6 13t-14 4q-6 0 -11 -3t-5 -10zM72 91q0 -4 2.5 -6t6 -3t6.5 -1h7h4h4q3 2 3.5 3t0.5 5l0.5 2.5t-1.5 3.5q-6 1 -10 1h-10
h-3.5h-4.5t-3.5 -1.5t-1.5 -3.5zM137 81q0 -3 0.5 -5t4.5 -4q2 0 7.5 -0.5t11.5 -1t11.5 -1t8.5 -0.5h4h5q1 2 1 3.5v3.5q0 6 -5.5 9t-13.5 4t-15.5 1h-10.5h-5q-3 -2 -3.5 -4.5t-0.5 -4.5z" />
</svg>
