<?xml version="1.0" standalone="no"?>
<!DOCTYPE svg PUBLIC "-//W3C//DTD SVG 1.1//EN" "http://www.w3.org/Graphics/SVG/1.1/DTD/svg11.dtd" >
<svg xmlns="http://www.w3.org/2000/svg" xmlns:xlink="http://www.w3.org/1999/xlink" version="1.1" viewBox="-10 0 266 256">
   <path fill="currentColor"
d="M67 207q0 3 1.5 10t4 14.5t5.5 13.5t7 6h1q2 -1 3.5 -3.5t1.5 -4.5v0q-2 -5 -5 -9.5t-5.5 -9t-4 -9t-1.5 -9.5q0 -2 1 -4t2.5 -4t3.5 -3.5t4 -1.5q3 0 5.5 3.5t4.5 8.5t4 10.5t4 10.5t4.5 8.5t5.5 3.5q4 0 4.5 -1.5t0.5 -4.5q0 -5 -3 -10t-7 -10t-7 -11t-3 -11
q0 -6 1.5 -11.5t1.5 -10.5q2 -4 6 -5.5t5 -4.5q1 -1 1.5 -3t1.5 -4t1.5 -4.5t1.5 -3.5v-1v-1v-2v-1q-2 -8 -3.5 -12.5t-4 -7t-7 -3t-12.5 -0.5q-7 0 -13.5 1t-12 3.5t-8.5 8t-3 13.5q0 2 0.5 5.5t1.5 7.5t2.5 7t3.5 3l26 5q3 1 3.5 2t0.5 3q0 5 -3.5 7.5t-8 5t-8.5 5.5t-6 6
v9zM186 187q6 0 9.5 3.5t5 8.5t1.5 11v11q0 2 0.5 6t1 8.5t0.5 8.5v5h2h2q4 0 5 -3.5t1 -7.5v-7t-1 -11.5t-2.5 -14t-3 -13.5t-3.5 -9.5t-5 -3.5h-40q-2 0 -3.5 -1.5t-2 -3.5l-1 -4t-0.5 -3q0 -2 0.5 -4.5t1.5 -4.5t2.5 -3.5t4.5 -1.5l35 -8q6 -2 8.5 -7t4 -11t1 -12
t-0.5 -10q0 -10 -1.5 -19.5t-1.5 -19.5q0 -4 0.5 -11t-0.5 -13.5t-4 -11.5t-11 -5h-60q-1 0 -3 1.5t-2 3.5h0.5h0.5q0 1 1.5 2.5l1.5 1.5h24l3 1l0.5 2t0.5 4t0.5 4.5t0.5 4.5v12v13l-2 1v0q-4 0 -6 -3.5t-3 -8.5t-0.5 -9.5t0.5 -6.5l-4 -3l-3 3v2v3v4v3l0.5 3t1.5 3
q1 7 1 10.5t1.5 5.5t5 2.5l10.5 1.5v3t0.5 4.5t0.5 4.5v2v2v2v3t-0.5 4.5t-0.5 4.5v2q-1 1 -2 1h-1q-3 0 -4 -2t-1.5 -5.5l-1 -7t-0.5 -6.5t-1.5 -4.5t-3.5 -0.5q-3 0 -3.5 1.5t-0.5 3.5q0 3 0.5 6.5l1 7t1.5 6.5t3 5q2 3 4.5 3.5t5 1.5t4.5 2.5t2 6.5q0 3 -2 5t-5 3.5
t-5.5 3t-3.5 4.5q-1 1 -1.5 3.5t-0.5 5v5v3.5v2v3v3v3t1.5 2.5t3.5 3t4 2t3 0.5h0.5h0.5q1 0 4.5 -0.5t7.5 -1t8 -0.5h4h3zM68 151v-2q0 -2 2 -3q9 -1 19 -2t20 -1q0 6 -2 9t-5 5t-7.5 2h-9.5h-5t-5.5 -0.5t-4.5 -2.5t-2 -5zM170 133q0 -3 2.5 -4.5t5.5 -2.5t5.5 -3t2.5 -6
v-24l-1 -4q-1 1 -2.5 1.5t-2.5 2.5q0 2 0.5 5t0.5 6.5t-0.5 6.5t-2.5 6q0 1 -1 1.5t-2 0.5q-3 0 -4.5 -3t-2 -6.5t-0.5 -7.5v-6v-9q3 -3 7.5 -5t7.5 -4q2 -2 3 -5t1 -6.5v-7v-5.5v-2q0 -2 -0.5 -4.5t-1 -4t-2.5 -1.5l-1.5 0.5l-1.5 0.5v8.5t-0.5 10.5t-2 9t-6.5 4
q-2 0 -3 -0.5t-1 -3.5v-37h24q3 0 4.5 4t2.5 10.5t1.5 14.5t1 15.5t0.5 13.5v9q0 8 -0.5 15t-3 12t-7 8.5t-13.5 3.5h-5q0 -1 -1 -3.5t-1 -3.5zM65 133q0 -3 4.5 -5t10.5 -3t11.5 -1.5t6.5 -0.5q4 0 6.5 1.5t2.5 6.5t-6 5h-34q-2 0 -2 -1v-2zM77 68q0 7 -5.5 13t-12.5 11
t-12.5 10t-5.5 12h8q0 -1 1.5 -2.5l3.5 -3.5l3.5 -3.5l2.5 -2.5l4.5 -4.5t8 -7t8 -6.5t5.5 -3q5 0 9.5 3t8.5 7.5t8 7.5t10 3q3 0 3 -3v-2q-3 -3 -9 -7t-12.5 -8.5t-11 -8.5t-4.5 -8v-2v-2l1.5 -0.5l1.5 -0.5q1 0 3.5 -0.5l5 -1t4.5 -0.5h3t2 -1.5l1 -1.5v-1v-1l-0.5 -0.5
l-0.5 -0.5h-16q-1 0 -2 -1t-2 -1v-2v-3v-3t2 -4h3t4.5 -0.5t4.5 -0.5h2q5 -1 6 -1t1 -3v-2t-2 -2h-23v-17q0 -2 -2.5 -2.5t-4.5 -0.5h-2t-2 2l0.5 2.5t0.5 5.5q0 2 -0.5 4.5t-0.5 3.5t-1.5 3.5t-3.5 2.5h-21q-2 0 -2.5 2t-0.5 3q0 3 1 3.5t3 0.5q5 0 10.5 -1t10.5 -1
q2 0 4.5 1t2.5 5v1q0 1 -1 4t-2 3h-21l-0.5 1l-0.5 1q-1 1 -1.5 2.5l-0.5 1.5l0.5 0.5t1.5 0.5h21l0.5 0.5t0.5 1.5l0.5 2t0.5 3zM69 102q0 3 2.5 3.5t4.5 0.5q6 0 12.5 -2t12.5 -5v-0.5v-0.5q0 -3 -3 -2.5t-4 0.5q-2 0 -6 0.5l-8 1t-7.5 1.5t-3.5 3z" />
</svg>
