<?xml version="1.0" standalone="no"?>
<!DOCTYPE svg PUBLIC "-//W3C//DTD SVG 1.1//EN" "http://www.w3.org/Graphics/SVG/1.1/DTD/svg11.dtd" >
<svg xmlns="http://www.w3.org/2000/svg" xmlns:xlink="http://www.w3.org/1999/xlink" version="1.1" viewBox="-10 0 266 256">
   <path fill="currentColor"
d="M103 211q0 9 1 18t4 18q0 1 0.5 2.5t1.5 1.5h8q1 0 1 -3v-4q0 -4 -1 -6.5t-2 -6t-2 -6.5t-1 -6t1.5 -5t3.5 -3t5 -1.5t5 -0.5q4 0 6 3t3.5 7t2 9t1.5 9t2.5 6.5t4.5 2.5t3 -2v-5q0 -4 -1.5 -8.5t-3.5 -9t-3.5 -9t-1.5 -8.5q0 -1 0.5 -1h0.5l0.5 -1.5l1 -3t1 -2.5l0.5 -1
v-2t0.5 -4t0.5 -3.5v-1.5q2 -4 4 -6t4 -4.5t3.5 -6t1.5 -9.5q0 -7 -4 -11.5t-10 -7.5h-5h-6t-7.5 0.5t-11 2t-9.5 4.5t-4 7v20l2 3t4 5l0.5 0.5t1.5 0.5q1 1 3.5 3l2.5 2l19 3l1 1.5l1 1.5q0 4 -5.5 5.5t-12 2.5t-11.5 3t-5 7zM111 165q0 -2 1 -5.5t2.5 -6.5t4.5 -5t6 -2
q5 0 9.5 0.5t8 2t5.5 5t2 9.5q0 4 -2 7t-5 5t-7 3t-7 1t-6 -1t-6 -2.5t-4.5 -4t-1.5 -6.5zM124 161q0 3 1 6t5 3q3 0 5 -3.5t2 -6.5t-2.5 -5t-4.5 -2q-4 0 -5 3t-1 5zM48 154v5q0 2 3 2h1q3 -1 5 -3t3.5 -4t3.5 -4t5 -4q1 -1 2.5 -2t3.5 -2.5l4 -3t3 -2.5l1.5 -1t3.5 -2
t3.5 -2t1.5 -2l3 -2.5t5.5 -5.5t5.5 -6t4 -3q2 -2 5.5 -5l7 -6t7.5 -5t6 -2q3 0 5.5 2t5 4.5t4.5 5t3 4.5q1 1 2.5 3t3.5 4l3.5 3.5l2.5 2.5q1 2 6 6.5t10 9.5l9.5 9.5l6.5 6.5l2 1.5l2 1.5h0.5h0.5q3 0 5.5 -1.5t2.5 -3.5v-2t-1 -1l-20 -21l-3.5 -3.5t-6.5 -5.5t-9 -6.5
t-9 -7t-6.5 -6.5t-2.5 -5v-1l0.5 -1.5l0.5 -1.5q3 -7 5 -10t4 -4t5.5 -1t10 -0.5t10.5 -4t6 -8t2.5 -10t0.5 -10.5v-12q-1 -2 -2 -3t-3 -1q-3 0 -3.5 2t-0.5 3.5t-1 3.5t-3 2l-2.5 0.5t-5 0.5t-5.5 0.5t-5 0.5h-1v0q-1 0 -3 -0.5t-2 -1.5l-1 -0.5l-1 -0.5v-11q0 -2 3.5 -2.5
t8.5 -1t11 -0.5t11 -0.5t8.5 -1.5t2.5 -4t-5.5 -4t-6.5 -1q-9 0 -18 1t-18 1q-3 1 -4 4t-1 6q1 15 0.5 27t-1.5 27q0 1 -0.5 3t-1 3.5t-1.5 2.5t-2 1q-2 0 -3 -1l-2 -2t-2.5 -2t-2.5 -1q-2 0 -3.5 1t-3 2.5t-2.5 2t-3 0.5q0 -14 0.5 -27.5t0.5 -27.5v-9q0 -3 -3 -4.5
l-5 -2.5h-10h-9h-6t-8.5 0.5l-9 1t-5.5 0.5q-2 1 -3 2t-1 3q0 3 4 4h1.5h3.5h3h2q8 0 14.5 -1t13.5 -1q5 0 6.5 2.5t1.5 6.5q0 3 -1.5 5t-4.5 2.5t-6 0.5h-5h-10q0 -1 -1 -2.5t-2 -3.5t-2 -3t-2 -1q-3 0 -3.5 2.5t-0.5 4.5q0 6 0.5 13.5t0.5 13.5q2 4 5.5 8t9.5 4h2t4 -0.5
t4 -0.5h3h3q2 0 3.5 1.5t3 4t2 5.5t1.5 5q0 2 -5 6.5t-13 10.5t-17 12.5t-16.5 12.5t-13 11t-5.5 8zM113 120q-4 2 -4 7l2.5 -0.5l2.5 -0.5q2 0 7.5 -0.5t12 -1t12 -1t7.5 -0.5l0.5 -0.5t0.5 -1.5v0q0 -3 -3 -3.5t-5 -0.5q-3 0 -7.5 0.5t-9.5 1t-9.5 1t-6.5 0.5zM87 57v-1
t2 -2l22 -6l3 3v2v3q0 4 -1 6.5t-3 3.5t-5 1h-7h-6q-3 -1 -4 -4t-1 -6zM178 46v0q1 1 4.5 1.5l3.5 0.5l0.5 1t0.5 2q0 4 -2 7t-5.5 5t-7.5 3t-7 1h-1l-2.5 -1t-2.5 -2v-13l1 -0.5l1 -0.5q3 -2 8 -3t9 -1z" />
</svg>
