<?xml version="1.0" standalone="no"?>
<!DOCTYPE svg PUBLIC "-//W3C//DTD SVG 1.1//EN" "http://www.w3.org/Graphics/SVG/1.1/DTD/svg11.dtd" >
<svg xmlns="http://www.w3.org/2000/svg" xmlns:xlink="http://www.w3.org/1999/xlink" version="1.1" viewBox="-10 0 266 256">
   <path fill="currentColor"
d="M69 228q1 1 2.5 4.5t3.5 7.5t3.5 7.5t3.5 3.5t2.5 -1t0.5 -3t-0.5 -3l-1 -2t-1.5 -2.5t-2 -4.5q-1 -2 -2.5 -6.5t-3.5 -9t-3.5 -8t-1.5 -4.5q-1 -5 -2 -14t-1 -17q0 -3 0.5 -6.5t2 -6.5t4 -5.5t7.5 -2.5q1 0 4 8t6 18.5t6 20t5 12.5q1 3 3.5 7.5t4.5 9t4 8l2 3.5l9 9
q2 -1 2 -1.5v-1.5v-2q-12 -21 -21 -43t-14 -46v-2q0 -1 1.5 -3t3 -5t3 -6.5t2.5 -6.5v-2v-3v-3v-1q1 -4 3 -6t3.5 -4t3 -4.5t1.5 -6.5q0 -22 -22 -24q-6 -1 -12.5 1.5t-11.5 6t-8 9.5t-1 12q1 7 5 11t9 6t11.5 3t11.5 0v2q0 5 -1.5 8t-5 4.5t-7 2.5t-8 2.5t-8 4t-6.5 7.5
q0 1 -0.5 2l-0.5 1v31l0.5 1t0.5 2q1 1 2.5 5.5t3.5 9.5t3.5 9.5t1.5 6.5zM161 244q0 2 0.5 3.5t2.5 1.5q3 0 3.5 -2.5t1.5 -4.5v-8t0.5 -10.5t0.5 -10.5v-7q3 -6 3.5 -12.5t0.5 -12.5v-13.5t1 -12.5q0 -1 2.5 -2t6 -2.5t6.5 -2.5t4 -2l5.5 -5.5t6.5 -8t5 -8.5t2 -7
q-5 0 -8.5 4t-7 9t-8 9t-10.5 4q-3 0 -4.5 -2t-2 -5.5t-1.5 -6.5t-2 -4q-3 -4 -6.5 -6t-6.5 -3.5t-4.5 -4.5t-1.5 -8q0 -3 1.5 -5.5t4.5 -4t6 -2.5t6 -1q5 0 8.5 4t3.5 9q0 2 -1 3.5t-2 2.5t-1.5 2.5t-0.5 3.5v0q0 1 0.5 1.5t1.5 0.5t2.5 -1.5l3 -3t2.5 -3.5t1 -3v-17
q0 -2 -1.5 -3t-4.5 -2t-5 -1h-4q-4 0 -9 1t-9 3t-7 6t-3 9q0 9 4 14.5t8 9t7.5 7t2.5 7.5q0 2 -1.5 2.5t-3.5 0.5q-5 0 -9.5 -3.5t-8.5 -7.5t-8 -7.5t-10 -3.5v2l1 1l2.5 2.5t2.5 3t2 2.5l4.5 4.5l5 5l5 5t3.5 2.5q1 2 4 2.5l6 1t5 2t2 4.5q0 6 -0.5 13t-2.5 12q0 4 -0.5 12
t-1 17t-1 17t-0.5 12v2zM184 198q0 3 2 9t5.5 11.5t8 10t7.5 4.5q2 0 2.5 -1.5t0.5 -2.5v-1l-3 -3l-2 -2q-1 -1 -2.5 -3l-3 -4t-2.5 -3.5t-2 -1.5q-2 -4 -2.5 -10t-0.5 -10q0 -7 2 -14t2 -15q-4 0 -6 5t-3.5 11t-2 11.5t-0.5 8.5zM138 163q1 8 1 17.5t-2 17.5q-1 3 -2 5
t-2.5 4t-2.5 4t-1 4q6 0 9.5 -3.5t5.5 -8.5t3 -10.5t1 -10.5v-4.5t-1 -7t-2.5 -6.5t-3.5 -3h-1zM89 88q5 0 10 4t5 9t-2 8.5t-5 6t-7 3.5t-8 1q-2 0 -4 -1t-4.5 -2.5t-4 -3t-1.5 -2.5v-14q0 -1 1.5 -2.5l2.5 -2.5q1 0 3 -0.5t4.5 -1.5t5 -1.5t3.5 -0.5h1zM79 106
q0 2 1.5 3.5t2.5 1.5q4 0 6 -2.5t2 -5.5t-1 -4t-4 -1t-5 2.5t-2 5.5zM184 43q1 3 3 10t6 14t8 12.5t9 5.5q2 0 2.5 -1t0.5 -2q0 -3 -1.5 -5t-3.5 -3.5l-4 -3t-2 -3.5q-5 -5 -8 -13.5t-3 -15.5q0 -4 0.5 -6.5t1.5 -5.5t1.5 -6.5t0.5 -8.5q-3 0 -4.5 1.5t-2 3.5t-0.5 4.5
t-2 4.5t-6.5 4t-9.5 3.5t-9.5 2.5t-7.5 2q-6 4 -9.5 10t-3.5 12q0 4 0.5 7t2.5 6h1q2 0 2 -4t1 -9t4 -9t10 -4q3 0 4.5 5t2.5 11t2 11t3 5h2q0 -7 -1.5 -14.5t-1.5 -14.5q0 -2 0.5 -3.5t2 -3t3 -2t3.5 -0.5q1 0 2 1t1 2zM46 74v1q0 1 0.5 1.5l0.5 0.5h0.5h0.5q2 0 5 -3.5
t7.5 -8.5t9 -11t8.5 -11.5t7.5 -8.5t4.5 -3q3 0 4.5 2t2.5 5t2 6.5t2 4.5q1 2 4 6t7 8l7.5 7.5l4.5 4.5h1h1q3 0 3 -2q0 -1 -3.5 -6.5t-8.5 -12t-10 -12.5t-6 -8q-2 -3 -3 -5.5t-1.5 -4.5t-1.5 -5t-4 -5l-1 -0.5l-1 -0.5q-2 0 -2.5 0.5t-1 1.5l-1 2l-1.5 3q-8 13 -16 24.5
t-18 24.5q-1 1 -2 2.5t-1 2.5v0zM72 63q0 2 1.5 2.5t3 0.5h3.5h2q3 0 6 0.5t6 0t5 -2t2 -4.5h-27q-2 0 -2 1.5v1.5z" />
</svg>
