<?xml version="1.0" standalone="no"?>
<!DOCTYPE svg PUBLIC "-//W3C//DTD SVG 1.1//EN" "http://www.w3.org/Graphics/SVG/1.1/DTD/svg11.dtd" >
<svg xmlns="http://www.w3.org/2000/svg" xmlns:xlink="http://www.w3.org/1999/xlink" version="1.1" viewBox="-10 0 266 256">
   <path fill="currentColor"
d="M198 243q0 2 1 3.5t3 1.5q4 0 5.5 -2.5t2 -6t0.5 -7t1 -5.5l-1 -32v-7v-7.5v-12.5t-0.5 -15.5t-0.5 -16.5t-0.5 -15t-0.5 -11q0 -6 -3.5 -13l-6.5 -13v-2v-5v-4v-3q0 -12 1.5 -24t1.5 -24q0 -4 -1.5 -6.5t-5.5 -2.5q-3 0 -4 1t-2 4q0 1 0.5 4t0.5 7q0 3 -0.5 6t-0.5 4
t-0.5 2.5t-0.5 2.5v42q0 1 0.5 2.5t1.5 3.5t1.5 3.5t1.5 1.5q3 7 5.5 15t2.5 16v9v14v14v8v3t0.5 4.5t0.5 4.5v3v1q0 13 -1.5 26.5t-1.5 27.5zM84 241q0 4 5 4h1q5 -3 7 -7t3.5 -7.5t2 -8t0.5 -10.5q2 -19 5 -38t2 -40q1 -2 3.5 -5t5.5 -3q2 0 2.5 2t1.5 3v6v8v8.5v5.5v7.5
v8.5v8v4q0 4 -1.5 8.5t-1.5 8.5q0 2 1 4.5t2 2.5q3 0 4.5 -3l2.5 -5l2 -34t1 -34v-5.5t-0.5 -7t-2 -6t-4.5 -2.5h-3l-1 0.5l-2 1l-2 1t-2 0.5l-2 -0.5t-3 -1.5q0 -3 -2.5 -8t-5 -9.5t-4.5 -8t-2 -4.5t0.5 -4t1.5 -5.5t2.5 -5t3.5 -2.5h18q2 0 3.5 -2t1.5 -4q0 -4 -3.5 -4.5
t-8 -0.5h-8t-3.5 -4q0 -2 0.5 -4.5t2.5 -2.5h15q1 0 1.5 -2t0.5 -3q0 -3 -3 -4t-6.5 -1.5t-6.5 -1.5t-3 -5q0 -3 2 -4t5 -1.5t5 -0.5h5q2 -2 2.5 -3.5t0.5 -3.5t-1 -3t-3 -1.5t-4 -0.5h-4q-4 0 -7.5 1t-7.5 1q-2 0 -5 -1t-5 -1q-8 0 -14 4.5t-8 12.5q0 9 -0.5 20.5
t-0.5 22.5q0 5 1 7.5t3.5 4.5t6 3t7.5 3q-2 1 -2.5 2l-1 2t-1.5 2t-3 2t-5.5 3l-7 4t-7 3.5t-5.5 2.5q-1 3 -1.5 5t-0.5 5h7l2.5 -1.5t6 -3.5l7 -4t5.5 -4q1 0 2.5 -1t3 -2.5l3 -3l1.5 -1.5h1.5h1.5q3 0 4 2.5t1 4.5q0 5 -6 11t-13.5 11.5t-13.5 10.5t-6 9q0 2 1 2.5t2 0.5
q7 0 12 -4t9.5 -9t8.5 -10.5t8 -9.5h2q3 0 4.5 3.5t1.5 6.5q0 4 -2 7.5t-5.5 6.5t-6.5 6t-5 6q-9 12 -17 26t-15 27v2q0 4 4 4q2 0 5.5 -4.5t7 -10.5t7.5 -13t8 -13.5t7.5 -10.5t5.5 -4t2.5 2t0.5 3q0 8 -1 16.5t-3 17.5t-4.5 18t-4.5 16q-1 4 -3 5.5t-2 5.5zM141 237v3.5
t2 2.5q0 1 1.5 1h2.5q3 0 5.5 -1t1.5 -6v-11v-17v-16.5v-10.5q0 -1 0.5 -6.5t0.5 -11t0.5 -10.5t0.5 -6v-13.5t1 -12.5q3 -10 5.5 -16t4.5 -11.5t3 -12t0 -17.5l2 -3v-41q0 -2 -3 -4.5t-5 -2.5t-2.5 1.5t-0.5 3.5q0 11 1 21t1 20q0 8 -1.5 15.5t-4 14t-4.5 13.5t-4 15
q-5 29 -6.5 60t-1.5 59zM77 72q0 -5 2.5 -5.5t5.5 -0.5t5 1t2 5q0 2 -1 5t-4 3q-4 0 -7 -2.5t-3 -5.5zM77 53q0 -1 1.5 -3t3.5 -3t4.5 -1.5t3.5 -0.5q7 0 7 6q0 5 -3.5 6t-8.5 1q-2 0 -5 -0.5t-3 -4.5zM79 33v-1q0 -4 3.5 -6.5t7.5 -2.5t6.5 1t2.5 5q0 9 -9 9q-3 0 -6 -1
t-5 -4z" />
</svg>
