<?xml version="1.0" standalone="no"?>
<!DOCTYPE svg PUBLIC "-//W3C//DTD SVG 1.1//EN" "http://www.w3.org/Graphics/SVG/1.1/DTD/svg11.dtd" >
<svg xmlns="http://www.w3.org/2000/svg" xmlns:xlink="http://www.w3.org/1999/xlink" version="1.1" viewBox="-10 0 266 256">
   <path fill="currentColor"
d="M77 247q0 2 1.5 3t3.5 1q4 0 5 -1.5t3 -5.5q3 -25 4.5 -49.5t5.5 -49.5v-1h1q2 0 3.5 1.5t2.5 3.5v24q0 12 -1 23.5t-1 23.5q6 0 8 -3t2.5 -7t0 -9t-0.5 -8l2 -14t1 -14q0 -2 -0.5 -6.5t-2 -10t-2.5 -9.5t-2 -4h-18q0 -1 0.5 -2.5t0.5 -3.5t0.5 -4t0.5 -3l-0.5 -1.5
t-1.5 -3.5l-2 -4t-1 -4q-1 -3 -4 -5.5t-3 -5.5l0.5 -0.5t0.5 -1.5t1 -3t2.5 -4.5t2.5 -5t2 -3.5l3 -3l0.5 -1.5l0.5 -1.5q3 -2 6 -2t6 -0.5t4.5 -2t1.5 -5.5h-16q0 -1 -0.5 -2.5t-0.5 -3t-0.5 -3t-0.5 -2.5q1 -3 4 -3.5l6 -1t5.5 -1t2.5 -3.5q0 -2 -2.5 -3t-5.5 -1h-6h-4
q-1 -2 -1 -3v-4v-4q2 -2 5 -2t6 -0.5t5.5 -2t2.5 -4.5t-2.5 -4t-6.5 -1q-10 0 -18.5 1.5t-14.5 6t-9 12t-3 17.5q0 7 0.5 15.5t2.5 14.5q0 1 1 2t1.5 2.5t1.5 3l1 1.5v4q0 4 -3.5 7t-8 5.5t-8 5.5t-3.5 8q0 2 2 2.5t3 0.5q4 0 7 -3l6.5 -6.5t6 -6.5t5.5 -3h1l1 1q1 1 3 3.5
l2 2.5v1q0 5 -5 10t-11 10t-11 10.5t-5 10.5q0 1 0.5 3t2.5 2h0.5h0.5q4 -2 8 -6.5t7.5 -9l7 -9t5.5 -7.5h0.5h1.5q2 0 3.5 1.5t2 4.5t0.5 5v3q0 5 -3 7t-5 5q-1 1 -3.5 4.5t-5 7.5l-5 8t-3.5 5q-2 3 -4.5 7.5t-4 9l-3 9t-1.5 8.5q0 1 2 2t3 1q4 0 6.5 -3.5t3.5 -7.5t2 -9
t2 -7q3 -6 6 -12.5t7 -13.5l1 -0.5t2 -0.5v0v0q0 2 0.5 7t0.5 10.5t0.5 10.5t0.5 7q-1 14 -4.5 25.5t-7.5 24.5v1zM136 151q0 13 1 28t2 28q1 6 4 9t7 4t9.5 1.5t9.5 0.5q7 0 13 -0.5t11 -2.5t8.5 -6.5t4.5 -11.5v-4v-4.5v-5.5v-3v-11q0 -4 -0.5 -9l-1 -10t-2.5 -11
q-1 -3 -3.5 -3.5t-4.5 -0.5v18q-6 0 -10 -2.5t-6.5 -6t-3.5 -7.5t-2.5 -7.5t-2.5 -6t-2 -2.5q-2 0 -4 1.5t-2 3.5q0 1 1 4.5l1 3.5v1.5v1.5q0 2 -2 5t-4 5.5t-5 4.5t-5 2h-1h-1v-4v-3.5t-0.5 -3t-2.5 -2.5q0 -1 -1.5 -1.5l-1.5 -0.5q-3 1 -3 3v5zM147 197q0 -3 2.5 -5t6 -3
t7 -1h5.5h7q2 0 5.5 0.5t6.5 0.5t5.5 0.5l2.5 0.5l1 1v2v3q0 6 -3 9.5t-7.5 5t-10.5 1.5h-11q-7 0 -12 -3.5t-5 -11.5zM166 154q3 0 5.5 2l5 4l5 4t5.5 3q2 1 3.5 1.5t3 1.5t2 2.5t0.5 4.5v2t-1 1h-50q0 -5 1 -7.5t3.5 -5.5t5 -5t6.5 -6l3 -1.5t2 -0.5zM126 48q0 1 0.5 2.5
t0.5 3.5t0.5 3.5l0.5 1.5v4v6v6v4t0.5 7.5t1.5 13.5t2.5 12.5t3.5 5.5q1 0 2.5 -0.5t2.5 -1.5v-10q0 -12 -2.5 -24t-2.5 -25v-4t0.5 -6.5t1.5 -5.5t3 -2t3.5 5.5t2.5 14t2.5 18t3 18t3.5 14t6 5.5h2.5t1.5 -2v-1q0 -1 -1 -3.5t-2 -6t-2 -6.5t-2 -4q-2 -11 -4.5 -24t-2.5 -25
q0 -3 1 -5t2 -3.5t2 -3.5t1 -5v-3.5t-2 -2.5q-4 0 -9 3t-9.5 7.5t-8 9.5t-3.5 9zM167 55q0 1 1 6t2.5 11.5t3 14t3 13.5l2.5 10t2 4q5 0 6 -2t1 -5v-3v-3l-0.5 -1.5t-1.5 -3t-1.5 -3t-1.5 -2.5q-3 -8 -4 -17t-1 -18v-3v-5t0.5 -5t0.5 -3l1 -0.5t2 -0.5h1v0q1 1 1 3t1 4
t1 4.5t1 2.5q0 3 1 8.5t2.5 12t3 14t3.5 13.5t4 10t4 4q3 0 5 -2.5t2 -5.5q0 -1 -1 -4t-2 -7t-2.5 -7t-2.5 -4q-1 -2 -2 -7t-2 -10.5t-2.5 -10.5t-1.5 -7l-2 -8t-1 -8q0 -2 1 -3t2.5 -2l3 -2t1.5 -4t-1.5 -3.5t-4.5 -0.5t-7 2t-8 5.5t-7 7t-4 6.5q0 2 -0.5 4t-0.5 4.5
t-0.5 4t-0.5 2.5zM77 76q2 0 3 0.5t1 2.5q0 4 -2 4.5t-6 0.5v-2q0 -2 0.5 -3.5t1.5 -2t2 -0.5zM82 50q3 0 5 3.5t2 5.5q0 4 -2.5 5.5t-5.5 2t-6.5 0.5h-5.5q0 -9 2 -13t11 -4zM74 37q0 -4 3.5 -5t6.5 -1q2 0 2.5 1t0.5 3q0 4 -1.5 4.5t-5.5 0.5h-4t-2 -3z" />
</svg>
