<?xml version="1.0" standalone="no"?>
<!DOCTYPE svg PUBLIC "-//W3C//DTD SVG 1.1//EN" "http://www.w3.org/Graphics/SVG/1.1/DTD/svg11.dtd" >
<svg xmlns="http://www.w3.org/2000/svg" xmlns:xlink="http://www.w3.org/1999/xlink" version="1.1" viewBox="-10 0 266 256">
   <path fill="currentColor"
d="M83 244q0 3 1.5 5.5t4.5 2.5q2 0 3.5 -2.5t2 -6t0.5 -7v-4.5t1 -4.5t1.5 -7.5t1 -7t0.5 -5v-11.5t0.5 -18t0.5 -18v-11.5q4 -5 10 -5q2 0 3 3t1.5 8t1.5 11t1 11.5t0.5 9.5t0.5 6q0 9 -2.5 17t-2.5 17q3 0 7 -0.5t6 -2.5v-5t0.5 -6.5t0.5 -6.5v-4v-4v-6.5v-13.5t-1 -16.5
t-2.5 -15.5t-3.5 -12t-5 -5h-1l-1.5 1t-2.5 1l-1.5 0.5t-2.5 1t-2.5 1l-1.5 0.5h-1h-1l-0.5 -0.5l-0.5 -0.5q0 -4 -1 -8.5t-2 -9.5t-2.5 -9.5t-3.5 -7.5q0 -1 -2 -2.5t-3 -2.5v-2q0 -1 1.5 -4.5t3 -8t3.5 -8l2 -3.5h18q0 -3 -1 -6t-6 -3h-1l-2 1t-3 1l-1.5 -0.5t-1.5 -1.5
v-10l10 -3q1 0 3 -1t2 -3q0 -3 -2 -3.5t-5 -1t-5.5 -1.5t-2.5 -5v-1t0.5 -2.5t0.5 -2.5t1 -1h15l2 -2q-3 -4 -6.5 -5.5t-7.5 -1.5q-13 0 -24.5 3.5t-19.5 14.5q-1 2 -3 4.5t-2 5.5v36l15 15l0.5 1l0.5 1q0 2 -0.5 2.5t-1.5 2.5q-2 1 -5.5 3.5t-8 5t-8.5 5.5t-5 4
q-2 2 -2.5 4.5t-0.5 4.5q6 0 12 -4t11 -9t9.5 -9t7.5 -4q2 0 3.5 1.5t2.5 3.5t2 3.5t1 3.5q0 3 -6 7.5t-13.5 10t-15 10.5t-10.5 8v1v1q0 2 1 4t4 2h1q2 -2 8 -7.5t12.5 -11t12 -9.5t7.5 -5q4 2 4.5 5.5t0.5 7.5v5t-2 6l-12.5 15t-14.5 18t-12 19t-5 19q8 0 11 -1.5
t4.5 -4.5t2 -8t3.5 -11q1 -3 3 -7.5t5.5 -9t7 -8t6.5 -3.5v8.5t0.5 12t0.5 12v8.5l-0.5 4t-1 8.5t-1.5 9.5t-2 8l-0.5 2t-0.5 3l-0.5 1zM176 238q0 3 1 4t4 1t5.5 -4t4 -9.5t2 -10.5t0.5 -7v-63l1 -0.5l1 -0.5l4.5 -4.5t4.5 -1.5t4 4v17q0 16 -0.5 30.5t-0.5 30.5q0 2 1 2.5
t3 0.5q3 0 5.5 -2t2.5 -5v-84q0 -2 -2.5 -4.5t-3.5 -2.5h-1v0q-1 1 -3 1.5t-4 2t-4 2.5t-3 1h-1q-2 0 -3 -3.5t-2 -8.5t-2 -11t-1.5 -12t-1 -11t-0.5 -7l-1 -2.5l-1 -2.5l0.5 -1.5t1.5 -1.5l2 -0.5t3.5 -0.5t3.5 -0.5l2 -0.5q2 0 2 -2t-1.5 -3t-3.5 -1.5t-4.5 0t-3.5 0.5
q-3 0 -10 -0.5t-13.5 0t-11.5 1.5t-5 4q0 2 0.5 3t3.5 1h3t4 -0.5t4 -0.5h3h1h2q3 0 5 1.5t3 4.5t1.5 6t0.5 5q0 4 -3 7.5t-8 6.5t-10.5 6t-10 6t-7.5 6t-3 5t1 3t3 1h3q2 -2 6.5 -5t9.5 -7t9.5 -7t6.5 -5l1 -0.5t2 -0.5h1q1 0 1.5 1l1 2t0.5 3v1q0 7 -6 12t-13 9.5t-13 9
t-6 10.5q0 2 1 3t3 2q2 0 4 -1.5t3.5 -4t3.5 -5l2 -2.5q1 -1 3.5 -3l5 -4l5 -4t3.5 -3h0.5h1.5q3 0 4 3t1 5t-0.5 3.5t-1.5 3.5q-1 1 -3 3.5t-4.5 5t-4.5 5t-3 3.5t-3.5 5t-6 9t-7 10.5t-6 10.5l-4.5 9t-2 6t1 3t3 1q3 0 6 -4t6 -10t6 -13t6 -13t6.5 -10.5t7.5 -4.5
q2 0 3 1.5t1 3v3.5v3q0 10 -1 19.5t-2 19.5l-4 12t-2 11zM207 103q0 1 1 1.5t2 0.5q2 0 5.5 -2t3.5 -4q0 -3 -1 -6.5t-3 -6.5q0 -1 0.5 -5.5t0.5 -9.5t-0.5 -9.5t-0.5 -6.5q0 -8 -0.5 -15.5t-3 -13.5t-8 -9t-15.5 -3h-1q-3 0 -8.5 0.5t-12 1t-12.5 1t-8 0.5q-4 1 -7.5 4.5
t-4.5 7.5q0 3 -1 11.5t-2 18.5t-2 18.5t-2 11.5v5q0 4 1 5t5 1h2q2 0 2 -2q0 -1 0.5 -4.5l1 -7t0.5 -7v-4.5q1 -4 0.5 -11.5t0.5 -15t3 -14.5t7 -9q7 -3 16 -3h17q13 0 18 8t6 20v53zM63 70q2 -2 5 -2h5h5.5t5.5 2v2v2q0 4 -3 8t-8 4l-0.5 -0.5l-0.5 -0.5q-3 -4 -5 -7.5
t-4 -7.5zM61 54q0 -3 1.5 -5t3.5 -3t5 -1h6h4h4q3 1 3.5 2t0.5 3t-0.5 5.5t-3.5 4.5h-7h-5t-5.5 -0.5t-4.5 -1.5t-2 -4zM150 46v1l1 1.5t2 1.5h4.5h4.5h8h13t10.5 -1.5t4.5 -3.5v-2t-1 -1h-3h-4h-4h-3h-8h-7.5t-7.5 0.5t-9 0.5q0 1 -0.5 1.5l-0.5 0.5v1zM70 36q0 -5 4 -8
t10 -3q3 0 4.5 1.5t1.5 4.5t-1.5 5.5t-4.5 2.5q-4 0 -7.5 -1.5t-6.5 -1.5z" />
</svg>
