<?xml version="1.0" standalone="no"?>
<!DOCTYPE svg PUBLIC "-//W3C//DTD SVG 1.1//EN" "http://www.w3.org/Graphics/SVG/1.1/DTD/svg11.dtd" >
<svg xmlns="http://www.w3.org/2000/svg" xmlns:xlink="http://www.w3.org/1999/xlink" version="1.1" viewBox="-10 0 266 256">
   <path fill="currentColor"
d="M63 245q0 1 0.5 2t2.5 1q7 0 10.5 -8t5.5 -20.5t3 -27t2 -27t2.5 -20.5t5.5 -8q1 0 2 2t1.5 4.5t0.5 4.5v3v0v10t-0.5 14.5t-0.5 14.5v10q0 1 0.5 3t0.5 3v1v1l-0.5 1.5l-1 3l-1 3l-0.5 1.5v2q0 3 3 3t4 -1.5t2 -4.5v-6v-9v-9v-6v-15v-13.5v-13.5t-1 -14q-1 -3 -2.5 -3.5
t-2.5 -0.5q-3 0 -5.5 2t-5.5 3q-1 -5 -1.5 -10.5t-2 -10t-4 -9t-6.5 -7.5v-0.5v-0.5v-0.5v-0.5q0 -1 1.5 -1.5t2.5 -1.5t1.5 -2t1.5 -1q0 -1 1 -2.5t2 -3.5t2 -3.5l1 -1.5q2 -3 5.5 -4t6.5 -1.5t5.5 -1t2.5 -3.5v-1q-1 -2 -3.5 -2.5t-4.5 -0.5h-5h-3l-0.5 -3.5t-0.5 -4.5
q0 -2 3 -3t6 -1t5.5 -1t2.5 -4t-2.5 -3.5t-5.5 -0.5h-5q-3 0 -3 -1v-13h4t6 -0.5t5.5 -2t2.5 -4.5v0l-1.5 -1.5l-0.5 -0.5h-8h-7h-6.5t-6.5 0.5t-8 1.5q-5 3 -7.5 9t-3.5 13t-1 14v12q0 8 1.5 14t1.5 13q0 3 -2.5 5t-6 4t-6 4.5t-2.5 5.5q0 4 3 4t4.5 -1.5l3.5 -3.5
l1.5 -1.5t3.5 -3t3.5 -3l1.5 -1.5q1 0 2 -0.5t2 -0.5q6 0 6 7q0 5 -4 9.5t-8.5 9t-8.5 9.5t-4 10v2t1 1q5 0 8 -3.5t5.5 -8t5 -8.5t6.5 -5q4 4 4.5 6.5t0.5 6.5t-1.5 8t-4.5 7.5t-5.5 7t-4.5 6.5q-1 3 -4 9.5l-6 13t-5 13t-2 9.5v3v2l1 1l1 1q3 0 5 -3.5t4.5 -9t5 -12.5
t4.5 -13t4 -11.5t3 -7.5h1v0q2 0 3 1.5t1 3.5q0 15 -4 30l-8 30q-2 4 -4.5 8t-2.5 10zM200 242q0 2 1 3.5t3 1.5t4.5 -2t2.5 -4v-188q0 -1 -0.5 -4t-0.5 -4q-1 0 -1 -2t-0.5 -3.5t-0.5 -3.5v-2q-1 -5 -5 -6.5t-9 -1.5t-9 -0.5t-5 -2.5q-1 -1 -1 -2t-0.5 -2.5l-1 -3
t-2.5 -1.5q-2 -1 -3 0.5t-1.5 4t-0.5 4.5v3v11t0.5 16.5t1.5 16t2 9.5q2 6 7 7t10 1.5t8.5 2t3.5 6.5v1v7.5v12.5t-0.5 15t-0.5 14.5v12v8.5q0 1 0.5 2.5t0.5 2.5v1v0q0 1 -0.5 4t-0.5 4v9.5v14.5v13.5v9.5l-0.5 2t-0.5 3.5t-0.5 3.5l-0.5 2v1v2zM157 242q-1 2 0 2.5t3 0.5
q4 0 6 -4v-2t-0.5 -2.5t-1 -2.5l-0.5 -1v-12v-12q2 -9 7 -16.5l10 -15t9 -15.5t4 -18q0 -9 -2 -17.5t-6 -14t-11 -9t-17 -3.5q-4 0 -6.5 3.5t-4.5 9t-3 12.5t-2 13.5t-1.5 11.5t-0.5 8q0 1 -1 4t-1.5 6.5l-1 7t-0.5 4.5v1v0l2 2t2 1v0v0q2 0 3 -1t1.5 -2.5t1 -3.5l0.5 -2v-3
t-0.5 -4.5t-0.5 -4.5v-3q1 0 3.5 -0.5t3.5 -0.5q2 1 3 3l2 4t2 3t3 1h3t1 -3q0 -4 -3 -6.5t-6.5 -5t-6.5 -5t-3 -5.5v-3t1 -3.5l2 -3t3 -1.5q3 0 6 2.5t5.5 5.5t4.5 6t3 5h5q0 -6 -4 -10.5t-9 -8t-8.5 -7.5t-3.5 -8q0 -5 2 -8t9 -3t11.5 4t7 10.5t3.5 13.5t1 12v6
q0 2 -1.5 5l-3 6l-3 6t-1.5 4q-7 5 -11 11.5t-6 14t-3 15.5t-1 16v2t0.5 3t0.5 3v2zM115 238q0 3 0.5 4.5t3.5 1.5q5 0 5 -7v-147l2 -1t4.5 -1.5l5 -1t4.5 -0.5l2 -0.5l4 -1t3.5 -1t2.5 -0.5q1 -2 2.5 -4t2.5 -4q0 -2 0.5 -8t1 -13t1 -13t0.5 -8v-6v-3t-0.5 -4t-1.5 -3.5
t-3 -1.5h-2q0 6 -2.5 8t-6 2.5t-7.5 0.5t-7 2l-1 1l-2.5 2.5l-2.5 2.5t-1 2q-2 2 -3 5.5t-1.5 7t-0.5 7.5v6v5.5v8.5v7.5v5.5l-2 3v2v4.5v5.5v4q0 14 1 28t1 27v4.5t-2 4.5v55q-1 3 -1 5.5v5.5zM66 81q0 -4 3 -6t7 -2q0 3 -1.5 6.5t-4.5 4.5q-1 0 -2.5 -1t-1.5 -2zM124 76
v-4t0.5 -5.5t1.5 -5t3 -2.5h20q2 0 2.5 1t0.5 3q0 5 -2 8.5t-5.5 5.5t-8 3t-8.5 1q-3 0 -3.5 -1.5t-0.5 -3.5zM178 61l2 -2q4 0 8.5 -1.5t8.5 -1.5h3t2 2v20q0 2 -2 2.5t-3 0.5h-4t-6.5 -0.5t-6 -1.5t-2.5 -3v-15zM65 57q0 -4 4 -5.5t7 -1.5h1q1 0 3 2l2 2q1 4 -2 7t-6 3
t-6 -1.5t-3 -5.5zM127 50v-2.5v-1.5q0 -4 2 -6.5t4.5 -4t6 -1.5h7.5t5.5 2.5t1.5 7.5q0 2 -1 4.5t-5 2.5h-2h-3.5t-6 -0.5t-6 -0.5h-3.5zM178 47v-3v-2v-4.5t3 -3.5h7q5 0 8.5 1.5t3.5 7.5v2.5v2.5q-1 2 -4 2h-4q-4 0 -7 -1t-7 -2zM77 27q3 0 4 4t1 6q0 5 -3.5 6t-7.5 1v-13
q0 -1 2.5 -2l2.5 -1l0.5 -0.5z" />
</svg>
