<?xml version="1.0" standalone="no"?>
<!DOCTYPE svg PUBLIC "-//W3C//DTD SVG 1.1//EN" "http://www.w3.org/Graphics/SVG/1.1/DTD/svg11.dtd" >
<svg xmlns="http://www.w3.org/2000/svg" xmlns:xlink="http://www.w3.org/1999/xlink" version="1.1" viewBox="-10 0 266 256">
   <path fill="currentColor"
d="M178 215q2 1 5 6.5t6.5 12t6.5 12t6 5.5q1 0 2.5 -0.5t3 -1.5t2.5 -2t1 -3q0 -1 -1.5 -4.5t-3.5 -7t-3.5 -6.5l-2.5 -5l-3.5 -3.5t-5 -6t-5 -6.5t-3.5 -4q-3 -4 -4.5 -9.5t-4.5 -9.5q-2 -10 -2 -19v-19v-20q1 -1 3 -2t4 -1.5l4 -1t3 -0.5h5.5h7.5h7.5h4.5q2 0 2 -1.5
v-2.5q0 -4 -3 -5t-6 -1h-3q-1 0 -7.5 0.5t-14 1.5t-14.5 1.5t-8 0.5h-11t-9.5 -0.5t-9 0t-9.5 1.5q-2 2 -2 3v2v2t2 2h8q7 0 13.5 -1t13.5 -1q4 0 6 1.5t3 3.5t1.5 5t0.5 6q0 10 -1 18.5t-1 19.5q0 1 -1 3.5t-2 3.5q-1 2 -3.5 6.5t-5.5 9.5t-5.5 10l-3.5 7q-2 2 -5 5.5t-6 8
t-5.5 8.5t-2.5 8t4 4q3 0 4 -0.5t2 -2.5q1 -1 3 -4t4 -6.5t4.5 -7t3.5 -5.5l3.5 -7l5 -10t5.5 -9t6 -4h0.5h0.5zM71 240q0 3 0.5 6t4.5 3q2 0 4.5 -3t4.5 -8.5t4 -12t3 -13t1.5 -11.5t0.5 -8v-4v-7v-8v-4t0.5 -5t1.5 -9t2 -8.5t2 -3.5q4 0 4.5 2.5t1.5 5.5q0 2 0.5 5
t1.5 5.5t1 5v2.5v3q0 2 0.5 5.5t0.5 6.5v5v4t-0.5 6t-0.5 6v4q-1 2 -1 5q0 2 1.5 3.5t3.5 1.5t4 -3t3 -7t2 -7.5t1 -5.5v-1q-2 -12 -2.5 -27t-2.5 -28q-1 -2 -3.5 -3.5t-5 -2.5t-5 -1h-4.5h-1l-1.5 1l-1.5 1h-1h-1l-0.5 -1l-0.5 -1q-1 -2 -1.5 -5.5t-1 -6.5t-0.5 -6v-5
q-1 -3 -2.5 -5.5t-3.5 -5t-3 -5t-1 -5.5q0 -1 0.5 -4t2 -6.5t2.5 -6.5l1 -3q1 0 3 -0.5t4 -0.5t4 -0.5l2 -0.5q1 0 2 -0.5t2 -0.5v-1q0 -2 -2 -3t-4.5 -1.5t-4.5 -1l-2 -0.5l-0.5 -1l-0.5 -1q0 -6 4.5 -7.5t9.5 -1.5v-1.5v-1.5q0 -3 -2 -3.5t-4.5 -0.5t-4.5 -0.5t-2 -4.5
q0 -1 1 -4t2 -4h4t5.5 -1t4.5 -2.5t2 -3.5t-1.5 -3.5t-3.5 -2t-4 -0.5h-3q-7 0 -16 2t-16 3q-3 0 -5 3t-3.5 6.5t-2.5 7.5t-2 6v34q0 3 1.5 4.5t3 3.5t2.5 3.5t1 4.5q0 5 -3 8t-7 6t-7.5 6.5t-3.5 8.5q6 0 9.5 -3t7 -7t7 -7t8.5 -3q1 0 2 0.5t2 1.5l0.5 0.5l0.5 0.5v12
l-1.5 1.5l-3.5 3.5l-4 4l-4 4q-3 2 -6.5 5t-7 6.5t-6 7.5t-2.5 9h7q1 0 3.5 -2.5t5.5 -6t7 -7t6 -5.5q0 -1 1.5 -2.5t2.5 -3t2.5 -3l1.5 -1.5q0 -1 0.5 -1.5t1.5 -0.5q3 2 4 5t1 7q0 5 -4.5 10t-7.5 9q-3 5 -8 12t-9.5 15t-7.5 15.5t-3 12.5q0 2 0.5 4t2.5 2q3 0 6 -3.5
t6 -9.5t5.5 -12.5t5 -12.5t5 -9.5t4.5 -3.5t3 1.5t1.5 3t0.5 3.5v3q0 8 -1 14.5t-3 15.5q0 1 -2 5.5t-3.5 10t-3 10.5t-1.5 6zM191 174q2 1 2.5 4.5t1.5 7t2 5.5t4 2t4 -1.5t1 -3.5q0 -6 -2 -11.5t-3 -11.5v-5t-0.5 -8t-0.5 -7.5v-5.5q-1 -1 -2.5 -3.5t-2.5 -3.5l-1.5 0.5
t-2.5 1.5l-0.5 1l-0.5 1v0v2v7t0.5 10.5t0.5 11v7.5zM137 184q0 2 0.5 4t2.5 2q3 0 4.5 -2.5t2.5 -5.5t1.5 -6t0.5 -4v-2v-4.5v-5.5v-4v-3v-4.5v-4.5v-3q-2 -2 -2.5 -3t-2.5 -1t-3.5 0.5t-1.5 2.5v2v0q0 1 1 3.5t1 3.5q0 9 -2 17.5t-2 17.5zM152 96q4 3 8 3.5t8 0.5h5t4 -1
l2 -0.5t3 -0.5q6 0 10.5 0.5t8 0t6 -3t4.5 -8.5q4 -11 4.5 -21t0.5 -21v-10q-2 -3 -5 -4t-7 -1v17h-5.5h-2.5t-3 0.5t-5 1.5q0 -5 -1 -8t-3 -5.5t-4 -4.5l-5 -5q-1 -2 -1.5 -4t-1 -4.5t-2 -4t-4.5 -1.5q-2 0 -3 1t-1 3t1 3t1 3q0 4 -2.5 6.5t-5 4.5t-5 5t-2.5 11h-4h-4
q-6 0 -9 -2.5t-4.5 -5.5l-2.5 -5t-4 -2h-2t-1 1v7v7q0 1 0.5 6t1 11t1 11t0.5 6q0 5 2 8t8 4h4t6.5 0.5t6.5 0.5h4zM157 89q0 -2 1 -4t2.5 -4t2.5 -4l2 -4h1q2 0 4 2t3.5 5t2.5 6t1 4t-1.5 2t-3 1h-3.5h-2h-2.5t-3.5 -0.5t-3 -1.5t-1 -2zM130 81q0 -4 3.5 -4h7.5q5 0 6.5 4
t1.5 9h-4q-2 0 -4.5 -0.5t-5 -1.5t-4 -2.5t-1.5 -4.5zM186 86v-1q1 -1 1.5 -3.5t0.5 -3.5l0.5 -0.5t1.5 -0.5h11q1 0 2.5 1t1.5 2q0 2 -1.5 4t-3.5 3l-4 2t-4 1t-4 -1t-2 -3zM61 73v-1q3 -2 5 -2h5q2 0 3 1t1 3t-1.5 5.5t-4.5 3.5q-1 0 -2.5 -1t-2.5 -2.5t-2 -3.5t-1 -3z
M152 67v-3q0 -1 0.5 -3t1.5 -3t3 -1q3 0 4 2t1 4t-0.5 4.5t-2 5t-3 4t-2.5 1.5t-1.5 -1.5t-0.5 -3v-3.5v-3zM129 62q0 -2 0.5 -3.5t2.5 -1.5h14q0 3 -1 7t-1 6h-2q-4 0 -8.5 -2t-4.5 -6zM171 64q0 -3 1 -5t5 -4q2 2 4 5t2 5q1 4 0 4.5t-4 0.5t-5.5 -1.5t-2.5 -4.5zM190 62
q0 -5 2.5 -6t6.5 -1t5 1t1 5v1v2t-0.5 2t-1.5 1h-12q-1 0 -1 -2v-3zM61 57q0 -3 2.5 -6t5.5 -3q1 0 2.5 0.5t3.5 1t3.5 1.5t1.5 2v1q-1 0 -1.5 2.5t-0.5 3.5q-1 0 -2.5 0.5t-3.5 0.5t-3.5 0.5t-2.5 0.5h-0.5h-0.5q-3 0 -3.5 -2t-0.5 -3zM159 40q3 -5 10 -5q3 0 4.5 1.5
t1.5 4.5q0 1 -0.5 3t-2 4t-2.5 3t-2 1q-5 0 -6.5 -4t-2.5 -8zM66 38q0 -4 2.5 -6t5.5 -2q4 0 5 1t1 4t-1.5 5t-5.5 2q-2 0 -4.5 -0.5t-2.5 -3.5z" />
</svg>
