<?xml version="1.0" standalone="no"?>
<!DOCTYPE svg PUBLIC "-//W3C//DTD SVG 1.1//EN" "http://www.w3.org/Graphics/SVG/1.1/DTD/svg11.dtd" >
<svg xmlns="http://www.w3.org/2000/svg" xmlns:xlink="http://www.w3.org/1999/xlink" version="1.1" viewBox="-10 0 266 256">
   <path fill="currentColor"
d="M68 229q0 2 -0.5 5t0 6.5t1.5 6t4 4.5q1 -2 3.5 -4t2.5 -4q0 -15 0.5 -27.5t6.5 -25.5q3 -7 5.5 -11.5t4 -8.5t2.5 -9t1 -12q0 -5 -0.5 -13.5t-2.5 -16.5t-6.5 -13.5t-12.5 -5.5h-2.5h-1.5q-7 5 -11.5 10t-7.5 10.5t-4.5 12t-1.5 14.5q0 10 2.5 18.5t4.5 17.5l1 2
q1 0 2.5 1l1.5 1q5 -3 5 -7q0 -1 -1 -4l-2 -6t-1.5 -5.5t-0.5 -3.5q-1 -1 -1.5 -4t-0.5 -4t0.5 -1.5t1.5 -0.5v0h1q1 1 3 2.5t2 2.5q1 1 2 2.5l2 3t1.5 3t1.5 2.5h5q0 -6 -2 -9.5t-5 -6.5t-6.5 -6t-4.5 -8q-1 -1 -0.5 -2t0.5 -2.5t0.5 -3t0.5 -2.5h2l2 1.5t4 3.5l4 4t3 4
l1 1.5l2 3t1.5 3t0.5 2.5h2q2 0 2.5 -1t0.5 -3q0 -5 -3 -9.5t-7 -8.5l-7 -7t-3 -5t1.5 -3.5t3 -2t3.5 -1t3 -0.5q5 0 8 5t5 11.5t2.5 13t0.5 9.5q0 12 -4 21t-8.5 18t-8.5 19t-4 23zM144 230q0 2 1.5 2h2.5q2 0 3.5 -0.5t0.5 -3.5v-22.5t2 -22.5q0 -2 1 -7t2.5 -10.5t3 -9.5
t3.5 -5q4 0 11.5 -0.5t14 -2.5t11 -6t4.5 -11q-4 0 -7 1t-6 3t-5.5 4t-6.5 3q-1 0 -4 -1t-4 -1q0 -2 4 -5t9 -5.5t9 -6t4 -6.5t-3 -3q-2 0 -4 1.5l-4 3t-3.5 3t-3.5 2.5l-3.5 3.5t-5.5 4.5t-5 4l-2 2q-1 1 -2 1.5l-1 0.5q-3 0 -4.5 -2t-1.5 -4q0 -3 2.5 -6.5t5.5 -6.5t5 -6
t2 -5t-0.5 -3t-1.5 -1q-2 0 -5 3.5t-6 8.5t-5.5 9.5t-2.5 5.5v2.5t0.5 2.5t0.5 2t0.5 1.5l1.5 1.5t2 2.5t2 2.5t1 2l-0.5 1t-1 2.5t-1 2.5t-0.5 2q-6 15 -8 32t-2 33v3v4zM111 218v3v3.5v2.5v1l3 2h-1q1 -1 2 -1.5t2 -0.5t1.5 -1t0.5 -4l0.5 -2t0.5 -3.5t0.5 -3t0.5 -2.5v-4
q0 -4 -0.5 -7.5t-0.5 -6.5v-5q6 0 12 -1t10 -6q1 -3 1.5 -6.5t1 -7.5l1 -8t0.5 -7q0 -1 -0.5 -2t-1.5 -1h-18q-2 0 -3 -1t-1.5 -3t-0.5 -4v-3v-4q0 -3 1 -5q3 0 6.5 -0.5t7 -2t6 -4t2.5 -5.5v-29h-18l-4 -2l-0.5 -2t-0.5 -4v-4.5v-3.5q0 -3 0.5 -5t2.5 -3q1 -1 3.5 -1t5 -1
t5 -1t3.5 -1l1.5 -0.5l1.5 -0.5q1 -6 3 -13.5t2 -14.5l-0.5 -1.5t-1.5 -1.5h-25q-1 0 -1 -3v-5t-0.5 -5.5t-2.5 -2.5q-3 0 -4 1.5t-1 3.5q0 8 0.5 16.5t0.5 17.5v10t-1 11v120q-2 6 -2 12.5v12.5zM159 197v2.5t2 1.5h10h11h6.5t9.5 -0.5t9.5 -0.5t6.5 -1q1 0 1 -1v-2v-2
t-1 -2h-22q-2 0 -2.5 -1.5t-1 -4t-0.5 -4.5v-4l0.5 -1.5t1.5 -1.5h15q1 0 1.5 -2.5t0.5 -3.5q-1 -3 -2 -3h-3h-2q-1 0 -5 0.5l-8 1l-8 1t-5 0.5h-2.5h-3.5t-3 0.5t-1 1.5q0 3 2 2.5t5 0t5.5 3t3.5 10.5v0q0 2 -1 3.5t-2 2.5h-3t-4.5 0.5t-4.5 0.5h-3q-2 1 -2.5 1.5t-0.5 1.5
zM129 158q4 0 5.5 3t1.5 6t-0.5 6t-1.5 5t-3 3.5t-6 1.5h-2t-2 -1v-21q0 -1 1 -1.5l2 -1t2.5 -0.5h2.5zM121 118v0v-4t0.5 -6t0.5 -6v-4h14l0.5 2t0.5 3v1v5t-0.5 6t-2.5 5.5t-5 2.5q-2 0 -5 -1t-3 -4zM41 108q0 2 0.5 3.5t3.5 2.5q3 -2 4.5 -6t2.5 -8.5t1 -8.5v-7
q7 -5 15.5 -6t16.5 -1h4t4.5 0.5t4 2t1.5 4.5v24l1 0.5l1 0.5l0.5 0.5l0.5 0.5v-0.5v-0.5q1 0 2 -1l2 -2v-10v-5q0 -4 -0.5 -8t-2 -7t-4.5 -3l-20 -5v-1.5v-1.5v-8t1 -9.5t3 -7.5t7 -3q2 0 3.5 2.5t1.5 5.5t-0.5 6t-0.5 4q1 0 2 1t2 1q3 -1 3 -3v-4v-3v-2t-0.5 -5.5
t-0.5 -9.5t-0.5 -9.5t-0.5 -5.5q0 -2 -1 -4t-4 -2h-2t-3.5 -0.5t-3.5 -0.5h-2q-12 0 -18.5 2.5t-9.5 7.5t-3.5 13t-0.5 18v8l1 0.5l1 0.5h1q4 0 5.5 -3t1 -8t-0.5 -10.5t2 -10.5t7 -8t15 -3q5 0 7.5 3t2.5 8q0 3 -1.5 4t-4.5 1.5t-5.5 1t-4.5 1.5q-5 3 -5.5 9t0 11.5
t-0.5 10.5t-7 6q-1 0 -2.5 0.5t-3 0.5t-3 0.5l-1.5 0.5q-1 0 -4 0.5l-3 0.5q-3 3 -4.5 7.5t-2 9.5t-0.5 10v7zM149 103v3t2 2t2.5 -1.5l1 -3t1 -3.5l0.5 -2q3 1 7.5 1.5t9 0.5h9h7.5h23l1.5 -1.5t0.5 -1.5q0 -2 -0.5 -2.5t-1.5 -0.5q-3 0 -7 0.5t-8 0t-7 -2.5t-3 -6
q0 -1 1 -4.5t4 -3.5h15l1 -1.5t0 -2.5q-1 -4 -3 -4.5t-5 -0.5q-8 0 -17 1t-18 3v1v1q0 3 2 3.5t5 0.5t5 2t2 8q0 3 -1 4t-5 1t-7 -0.5t-7 -1.5q-2 -2 -2 -3.5v-3.5q0 -8 3 -15.5t7 -14.5h11.5t12.5 -2t10 -6t4 -10q-4 0 -7.5 2t-6.5 4t-6.5 4t-7.5 2q-1 0 -3 -0.5t-2 -1.5
q0 -4 5 -7t11 -6t11 -6t5 -7q0 -5 -4 -5h-1h-1q0 1 -1.5 2.5t-3.5 3t-3.5 3t-2.5 1.5q-2 1 -4 3.5t-4.5 5t-5 4.5t-4.5 2q-4 0 -4 -4t2 -6.5l4 -5t4.5 -5t4.5 -5.5q0 -1 -1 -1.5t-2 -0.5q-3 0 -6 2.5t-6 5.5t-4.5 7t-1.5 6v1t0.5 2l1 2t0.5 2v6q0 4 -1 6.5l-2 5l-2 5t-2 5.5
q-3 8 -4 16.5t-1 17.5zM122 47q0 -5 2.5 -8t8.5 -3q4 0 5 2.5t1 5.5t-0.5 5l-1.5 6q-1 -1 -2.5 0.5t-3.5 1.5q-5 0 -7 -3t-2 -7z" />
</svg>
