<?xml version="1.0" standalone="no"?>
<!DOCTYPE svg PUBLIC "-//W3C//DTD SVG 1.1//EN" "http://www.w3.org/Graphics/SVG/1.1/DTD/svg11.dtd" >
<svg xmlns="http://www.w3.org/2000/svg" xmlns:xlink="http://www.w3.org/1999/xlink" version="1.1" viewBox="-10 0 266 256">
   <path fill="currentColor"
d="M80 218q0 5 -2 9t-4 7.5t-3.5 7.5t-1.5 8h4l1.5 -1t3 -3t3.5 -4l3 -3q3 -3 3 -7.5t0.5 -9t1.5 -8.5t4 -6q1 0 3 -0.5t2 -1.5q6 -4 9.5 -10.5t3.5 -14.5q-3 0 -5 3.5t-5 7.5t-8 7.5t-12 3.5q-5 0 -9 -3.5t-8 -8t-6.5 -8t-3.5 -3.5l-1.5 0.5t-1.5 1.5v0q0 5 3 9.5t7.5 8.5
t9 7.5t7.5 5.5q1 1 1.5 2.5t0.5 2.5zM150 246l2 3q2 -1 3 -3t2 -4.5t1 -5v-3.5v-51q2 -1 5 -1.5t5.5 -1t4.5 -2t2 -4.5h-17q0 -1 -0.5 -3.5t-1 -5.5t-2 -6t-2.5 -4l-2 1v17q0 1 -2 2t-4 1.5l-4 1t-3 0.5v1q0 2 2 2t4.5 0.5t4.5 2t2 7.5v56zM183 195q1 0 2.5 4t3.5 9.5
t4 12.5t4 13t4.5 9.5t4.5 3.5t2 -2v-3q0 -7 -2.5 -12l-5.5 -11q-4 -10 -8 -21.5t-4 -22.5q0 -3 1 -5t3 -3.5t3.5 -3.5t1.5 -4q2 -5 3 -10t1 -10q-3 0 -5 2q-1 1 -2 3.5l-2 5t-2.5 4.5t-1.5 3t-0.5 1.5t-1.5 0.5q-1 -1 -2.5 -5.5t-2.5 -10.5t-1.5 -12.5t-1 -12.5t-0.5 -10v-5
v-3v-2l2 -2h25q2 0 3 -2.5t1 -4.5h-32v-3.5v-3.5v-2.5t0.5 -5t0.5 -4.5v-3v-5.5t-0.5 -10t-0.5 -10v-5.5v-1v-1l0.5 -2.5t0.5 -3.5v-1v-3t-1 -4t-2 -3.5t-3 -1.5q-1 0 -2 0.5t-1 1.5q0 18 0.5 35.5t0.5 35.5h-34q-1 0 -1.5 -1t-2 -3t-3.5 -3.5t-5 -1.5q0 1 0.5 3.5l0.5 2.5
q0 1 0.5 2t1 2.5t1 2.5l0.5 1q0 1 -0.5 2t-0.5 2.5t-0.5 2.5t-0.5 2l0.5 2.5t1.5 3.5v4v6t0.5 5.5t0.5 3.5q0 2 -0.5 5t-0.5 6v5.5v2.5q0 1 -0.5 7.5t-1.5 14t-1.5 14.5t-1.5 11q0 5 -2 9.5t-4 8.5t-4 8.5t-2 8.5q4 0 7.5 -3.5t5.5 -8.5t3.5 -10t2.5 -8l4 -54q4 1 6.5 -0.5
l5 -3t4.5 -3t4 -1.5h1l12 8h3q0 -3 -1.5 -5t-3.5 -4t-4 -3t-5 -3v-5.5t-0.5 -7.5t-2 -7.5t-3.5 -5.5l-1 4v21q0 1 -2 2.5l-4 3t-4 2.5t-3 2v-41h34l1 5.5t2 14.5t2.5 19t2.5 19.5t1.5 16.5t0.5 8q0 4 -1.5 7t-3.5 6l-4 6t-2 6v2v1q4 -2 7 -6t6 -7h1zM68 182q0 6 5 9.5
t10 3.5q6 0 8.5 -4.5t2.5 -8.5q0 -5 -3.5 -8.5t-7.5 -3.5q-3 0 -5 1t-4.5 2.5t-4 3.5t-1.5 5zM76 182q0 -3 2 -4t4 -1q3 0 3.5 1t0.5 5q0 2 -0.5 4t-3.5 2q-2 0 -4 -2.5t-2 -4.5zM60 160q6 2 9.5 3t8.5 1q14 0 22 -7.5t8 -22.5q0 -6 -3 -10.5t-7.5 -7.5t-10 -4t-11.5 -1
q-5 1 -9.5 3.5t-8 6.5t-5.5 9t-2 10v6q2 1 3 3l2 4l2 4t2 3zM59 137q0 -4 2 -7.5t5.5 -6t7 -4t6.5 -1.5q5 0 8.5 1t9.5 4q2 3 2.5 6t0.5 7q0 10 -6.5 16t-15.5 6t-14.5 -5.5t-5.5 -15.5zM69 138q0 5 2 8t8 3q5 0 9 -3t4 -9q0 -3 -1 -5.5t-4 -2.5h-14l-3 4l-0.5 2t-0.5 3z
M73 139q1 -3 3 -4t5 -1q5 0 5 5q0 3 -2 3.5t-4 0.5t-4 -0.5t-3 -3.5zM60 86q0 9 6 12.5t13 3.5q9 0 14.5 -3.5t5.5 -12.5q0 -3 -1 -6t-3 -5.5t-4.5 -4t-5.5 -1.5q-5 0 -9.5 0.5t-7.5 2.5t-5.5 5t-2.5 9zM82 75h2.5h2.5q2 2 2 4.5v4.5q0 5 -2 8t-8 3h-2t-3.5 -0.5t-2.5 -1
t-1 -1.5v-12q0 -2 1.5 -3t3.5 -1.5t4 -0.5h3zM185 68q0 2 1 2h2q8 0 10 -3.5t2 -10.5q0 -6 -1 -12t-6 -10l-2 2v21q0 5 -2 6.5t-4 3.5v1zM46 66q0 2 1 2.5t2 0.5h1.5h0.5q1 -1 3 -2t4.5 -2.5t5 -2.5t3.5 -1l3.5 -3.5t3.5 -3t4 -2.5t4 -1h2h2l5 5l6 6t6.5 5t7.5 2v-3l-2 -2
l-2.5 -2.5l-2.5 -2.5t-1 -2l-3.5 -3.5t-6 -5.5t-5.5 -5l-2 -2v-25q0 -2 -2 -3t-3 -1l-2 3v23l-1 1.5t-2 1.5q-1 2 -6 6l-10 8t-9.5 7.5z" />
</svg>
