<?xml version="1.0" standalone="no"?>
<!DOCTYPE svg PUBLIC "-//W3C//DTD SVG 1.1//EN" "http://www.w3.org/Graphics/SVG/1.1/DTD/svg11.dtd" >
<svg xmlns="http://www.w3.org/2000/svg" xmlns:xlink="http://www.w3.org/1999/xlink" version="1.1" viewBox="-10 0 266 256">
   <path fill="currentColor"
d="M49 217v1q0 1 0.5 3t0.5 4t0.5 4t0.5 3t-0.5 4t-0.5 6t1 5.5t5 2.5q2 0 3.5 -0.5t2.5 -3.5v-9.5v-14.5v-16v-17v-14.5v-9.5q0 -1 0.5 -5t1 -9t1 -9.5t0.5 -7.5q1 -7 3 -12.5t5 -11t4.5 -11.5t2.5 -13h4h5t3 2q0 5 0.5 10.5t1.5 10.5t2.5 10t2.5 10q2 9 2 17.5v18.5v22
q-1 2 -1.5 4t-2.5 3l-3 -3v-52q0 -4 -3 -4h-1t-1 1q0 2 -0.5 7t-0.5 11t-0.5 12.5t-1 12t-2 9t-2.5 3.5q-2 0 -2.5 -2t-1 -4.5t-0.5 -5.5v-4q0 -8 1 -15.5t1 -16.5v-6q-1 -2 -2 -2h-2h-2t-1 1q0 2 -0.5 6.5t-1 10t-1 10.5t-0.5 7v0.5v0.5v1.5v0.5q0 1 0.5 4t0.5 5.5v4.5v2
q1 2 2 5t2 3l24 5q-1 5 -1 9t-0.5 7t-0.5 7v7v8q1 1 2 1.5t2 0.5q2 0 3 -1.5l3 -4.5q-1 -18 0.5 -36t1.5 -36v-7q0 -5 -0.5 -9.5t-0.5 -8.5t-1 -7q-1 -5 -2.5 -10t-3 -10.5t-3 -10.5t-1.5 -11q0 -2 2 -3t5 -1.5t5.5 -1.5t3.5 -4t-1 -3.5t-5 -1t-5.5 -0.5t-2.5 -3
q0 -5 2 -9.5t5 -8.5t5 -8.5t2 -9.5q0 -1 -1 -1.5t-2 -0.5q-3 0 -5.5 3.5t-4.5 7.5l-3.5 7l-1.5 3h-1v0q0 -1 -1.5 -3l-3 -4l-3 -4t-2.5 -3q-1 -3 -2 -3.5t-3 -0.5h-2t-2 2q0 4 2 7t5 6t5 7t2 9v4v3q0 2 -3 2h-3h-2.5h-2.5q-5 -8 -9 -17t-4 -19v0q0 -1 1 -2t1 -2
q4 -5 11.5 -8t15 -5t13 -4t6.5 -5q0 -3 -2.5 -3.5t-4.5 -0.5q-6 0 -15 1.5t-17 5.5t-14 9.5t-6 13.5q0 4 1.5 8.5t4 8.5t4.5 7.5t3 7.5t-2 4.5t-7 1t-7 2t-3 5.5h20q2 0 2 2v2q0 4 -1 7t-2.5 6t-3.5 5.5t-3 5.5q0 2 -1 5.5l-2 7t-2 6.5t-1 4q-2 9 -2.5 19l-1 20t-0.5 20
t-1 19v2zM182 194l3 1t6 3t5 3.5t2 2.5v37q0 1 3 2.5l3 1.5v0q4 0 5.5 -3t1.5 -6v-8t-0.5 -15.5t-1.5 -15.5t-2 -10l-5 -53q-1 -5 -5.5 -7.5t-10 -3.5t-11.5 -1t-9 -1v-3v-2v-7.5v-9t1.5 -8t5.5 -3.5t5 4t3 9t5 9t10 4q2 0 3 -0.5t1 -2.5v-1v-1q-4 -2 -6.5 -3t-4 -2.5
t-1.5 -4v-5.5q6 0 8 1t2.5 2.5t1.5 2.5t5 1q2 0 3.5 -1t1.5 -3q0 -3 -1.5 -5t-4.5 -4q-2 0 -5.5 -1t-8 -2t-8 -2t-4.5 -1l-4 -2t-4 -1.5l-2 -0.5v-11l1 -0.5t2.5 -1t3.5 -1t3 -1t4 -1l6 -1l6 -1t4 -0.5t1.5 -1.5l0.5 -1.5v-1q0 -2 -2 -3t-3 -1h-2q-1 0 -1.5 0.5t-1.5 0.5
t-3 1q-2 0 -7.5 1.5t-10.5 2.5t-9.5 2.5t-5.5 1.5t-4 0.5l-6 1l-6 1t-4 0.5l-2 0.5t-2 1.5q-1 0 -1.5 0.5l-0.5 0.5q0 1 0.5 2.5t1.5 1.5h4q6 0 12 -1t12 -1q0 1 1.5 3.5t0.5 3.5l-2.5 0.5l-2.5 0.5l-1 1t-2.5 2t-3 1.5l-1.5 0.5q-1 1 -3.5 1.5t-6 1.5t-6 2t-3.5 2
q-3 1 -3.5 2t-0.5 3t1 3.5t3 1.5q3 0 4.5 -2t4.5 -2q1 0 2.5 0.5t1.5 1.5q0 4 -2 6.5t-4.5 4t-5.5 3.5t-4 4q0 1 1 1.5t2 0.5q6 0 9.5 -2.5t5 -6t2.5 -7.5t2 -7.5t3 -6t5 -2.5q1 0 3 0.5t2 1.5v33l-2 3q-12 1 -18 3.5t-9 7.5t-3.5 12.5t-1.5 18.5q-1 15 -3 29t-2 28v2
q0 1 0.5 3t0.5 4.5t0.5 4.5t0.5 3l1.5 0.5l1.5 0.5q3 0 4 -1.5t1.5 -3.5t1 -4.5t0.5 -3.5v-5t0.5 -8t0.5 -7.5v-5.5q1 0 2.5 -1t3.5 -2t3.5 -2l1.5 -1l0.5 -0.5l0.5 -0.5q2 0 4.5 2t4.5 5t3.5 5.5t1.5 4.5q0 6 -1 13t-1 13q0 2 1 3.5t3 1.5t4.5 -2t2.5 -3v-24q-1 -2 -1 -4
v-4t1.5 -4t4 -4t4.5 -3t4 -1zM189 186q0 -3 2 -5t4 -2h2q1 4 1.5 7t0.5 6q0 1 -0.5 3l-0.5 2l-9 -10v-0.5v-0.5zM134 183l0.5 -0.5l0.5 -0.5l0.5 0.5l0.5 0.5q1 0 3 2l2 2q0 2 -0.5 3t-2 1.5t-2.5 1t-2 0.5v-10zM152 188v-1q1 -1 3.5 -4t5.5 -3v4v4t-1 3.5t-3 1.5t-3.5 -1.5
t-1.5 -3.5zM168 183h1h4t2 2t-2.5 3.5t-4.5 1.5v-7zM134 173q0 -1 2 -3.5t4.5 -4.5t4.5 -3.5t3 -1.5q6 0 9 3t3 8q0 2 -2 3.5t-4 2t-4.5 1t-3.5 0.5q-4 0 -6.5 -0.5t-5.5 -4.5zM168 170q0 -2 1.5 -4.5t4 -5t5 -4t4.5 -1.5t4.5 1t4.5 2.5t3.5 4t1.5 4.5v4q-1 1 -3.5 2l-5 2
l-5 2t-3.5 1q-5 0 -8.5 -2t-3.5 -6zM136 148h2q2 0 3 1t1 3t-2 4.5t-4 2.5v-11zM154 150l6 -13q2 0 2 1.5v2.5v3.5t-0.5 5t-1.5 4t-3 1.5v0v0q-1 0 -1.5 -0.5t-0.5 -1.5l-0.5 -1.5zM168 151q0 -4 1.5 -5.5t5.5 -1.5v3t-0.5 3.5t-1.5 3t-3 1.5q-1 0 -1.5 -1.5t-0.5 -2.5z
M187 147q0 -3 1.5 -5t3.5 -3q3 0 3.5 2t0.5 5q0 2 -0.5 4t-3.5 2q-2 0 -3.5 -1.5t-1.5 -3.5zM141 139q-1 -2 0 -3t2.5 -1.5l3 -1t2.5 -0.5t2.5 0.5t2.5 0.5q-2 2 -4 5t-5 3q-1 0 -2.5 -0.5t-1.5 -2.5zM171 133q0 -2 1.5 -3t3 -1h3.5h4t2 0.5t1 1.5q0 3 -3 5.5t-5 2.5
q-3 0 -5 -1.5t-2 -4.5zM131 49q0 4 1 4.5t3 0.5t7 -1t11 -2t12.5 -3t11.5 -3.5t8.5 -3.5t3.5 -3v-1l-1 -0.5l-1 -0.5h-2.5h-2.5q-6 0 -10 2t-9 3q-1 0 -6 0.5t-10.5 1.5t-10.5 2.5t-5 3.5zM186 16q-3 1 -9 2t-13 2.5t-13 2.5t-9 1q-3 1 -6 3t-3 6q1 0 6.5 -0.5t12.5 -1.5
t15 -2t14.5 -2.5t11 -3.5t4.5 -4q0 -3 -2.5 -3h-4.5h-2.5h-1.5z" />
</svg>
