<?xml version="1.0" standalone="no"?>
<!DOCTYPE svg PUBLIC "-//W3C//DTD SVG 1.1//EN" "http://www.w3.org/Graphics/SVG/1.1/DTD/svg11.dtd" >
<svg xmlns="http://www.w3.org/2000/svg" xmlns:xlink="http://www.w3.org/1999/xlink" version="1.1" viewBox="-10 0 266 256">
   <path fill="currentColor"
d="M123 221v15q0 2 0.5 4.5t1.5 4.5t2.5 4t3.5 2q4 0 4.5 -3t0.5 -5q0 -4 -0.5 -9l-1 -10t-1 -9.5t-0.5 -8.5v-1q0 -1 0.5 -4.5l1 -7t2 -6t4.5 -2.5t5 2l21 20q0 1 2.5 1.5t3.5 0.5q3 0 4 -1.5t1 -3.5q0 -3 -4 -7t-8.5 -8t-9.5 -7.5t-7 -5.5v-1v0v-0.5v-0.5l2 -2l1 -1l24 -5
l0.5 -0.5l0.5 -0.5q0 -3 -2 -4.5t-4 -1.5q-6 0 -12 2.5t-12 2.5q-2 0 -4 -1.5t-4.5 -3.5t-4 -5t-1.5 -5q0 -4 3 -4.5t7 -0.5h3h6h5h3q2 0 3.5 -0.5t3.5 -0.5t3.5 -0.5l1.5 -0.5v-5h-42q-3 0 -4 -2.5t-1 -4.5q0 -3 3.5 -4t8 -2t8.5 -3.5t4 -8.5l0.5 -0.5l0.5 -0.5q2 0 5 1.5
t7 3t7 3t4 2.5q8 6 12 15.5t5.5 20t1.5 21.5v20v2v4.5v5.5v4v15t-2 15q1 2 2.5 3.5t3.5 1.5t3.5 -2t2.5 -4q-1 -6 -0.5 -10.5t0.5 -8.5t0.5 -8t0.5 -9q0 -9 -1 -18.5t-2 -19.5q0 -5 -0.5 -11.5l-1 -13t-2.5 -12.5t-6 -11q-3 -4 -8.5 -6.5t-11.5 -4.5t-10.5 -5t-4.5 -8v-2
q0 -2 2 -2l32 -4q4 0 6.5 -5t4 -11.5t2 -12.5t0.5 -8v-11v-11.5t-2 -10.5t-6 -8h-4h-6h-6h-3h-6h-6h-5h-3h-3t-6 0.5t-5.5 1.5t-2.5 3q0 3 3 3h3h4h5h2q2 0 2 3v3v4t-0.5 3.5t-1.5 3t-2 1.5q-4 0 -5.5 -2t-1.5 -5t-0.5 -5t-3.5 -2t-3.5 2t-0.5 4q0 9 4.5 12.5t12.5 4.5v2v1
q0 2 -0.5 5.5t-0.5 4.5q-1 1 -2.5 1.5t-3.5 0.5q-4 0 -5 -4l-2 -8h-3v13q0 3 2.5 3.5t5.5 1t5.5 3t2.5 8.5q0 2 -0.5 5.5t-1.5 7t-2.5 6.5t-3.5 3q-4 1 -5 4t-0.5 5.5t0 4.5t-2.5 2h-13v-2t-0.5 -4l-1 -4l-0.5 -2v-2.5t-0.5 -3t-1.5 -2.5t-2 0q-3 1 -3.5 3t-0.5 4q0 6 1 12
t1 13v9q-1 0 -4 0.5t-7 0.5t-7 0.5t-4 0.5h-3t-4.5 0.5t-5 1.5t-2.5 3q0 3 2.5 3.5t4.5 0.5q7 0 13.5 -1.5t13.5 -1.5h3.5h2.5q3 2 4 4t2 5t2 5.5t2 4.5t3 3.5t2 2.5v1q-1 0 -1.5 2t-1.5 4l-2 4t-2 3q0 1 -1.5 4l-1.5 3q-1 7 -1.5 15t-0.5 15zM59 211v7q0 4 0.5 8t0.5 7v3
l1 3q0 1 2 1h2q2 0 4.5 -1t2.5 -4v-87q0 -6 3 -11t7 -8t9 -6t9 -6t6.5 -7.5t2.5 -10.5q0 -3 -0.5 -5t-1.5 -3.5l-2 -3t-2 -4.5q-2 -6 0.5 -9t6.5 -5t7.5 -4t3.5 -7l-0.5 -1.5t-0.5 -3t-1 -3t-3 -1.5q-1 0 -2 2t-1.5 4t-2 4t-3.5 2h-1l-1.5 -1.5l-0.5 -0.5v-13l1.5 -0.5
t2.5 -0.5q0 -1 1 -1.5t2.5 -1t2.5 -1t2 -0.5l0.5 -0.5l0.5 -0.5v-13l-0.5 -0.5t-0.5 -1.5h-1h-0.5h-0.5l-0.5 1l-0.5 1q-1 1 -2 4.5t-2 4.5l-0.5 0.5l-0.5 0.5q-4 0 -5.5 -2.5t-1.5 -6.5q0 -2 0.5 -3.5t2.5 -2.5q5 0 8 -0.5t5.5 -1.5t3.5 -3t1 -7h-2q-1 0 -3 0.5t-4 0.5h-2
q-2 0 -7.5 0.5t-12 1.5t-13 1.5t-9.5 1.5q-6 0 -9.5 4t-5 9t-1.5 10.5v11.5q0 3 -0.5 9.5t1 13t4.5 11.5t10 5h29q1 0 1.5 1.5t0.5 3t0.5 3t0.5 2.5q0 5 -3 7.5t-7 5t-8.5 4.5t-9 5t-7.5 8.5t-4 13.5v5t-0.5 9t-0.5 9v5v6t-0.5 11t-0.5 13v9zM160 82q0 -7 3.5 -10.5t7.5 -5
t7 -2.5t3 -3v-12l-0.5 -0.5t-1.5 -0.5h-1q-2 0 -2.5 2t-2 4t-3.5 4t-6 2v-14l2 -1.5t4 -1.5l2 -0.5t3.5 -1l3 -1t2.5 -0.5q1 -2 1.5 -4.5l1 -5t1 -4.5t2.5 -2q1 0 2.5 2.5t2 5.5t0.5 6v5q0 9 -0.5 16.5t-3 13t-8 8.5t-15.5 3h-3t-2 -2zM64 57v-7t0.5 -5.5t1 -5.5t0.5 -7
q2 -4 4.5 -6t6 -3t7 -1h6.5h3t2 2v12q0 1 -1.5 2t-1.5 2h-1q-2 0 -3.5 -1.5t-2.5 -3t-2 -3.5t-1 -3l-0.5 -0.5l-0.5 -0.5q-2 0 -2 2.5v3.5q0 8 4 10t12 2v16q0 1 -2 1.5t-3 0.5q-3 0 -4.5 -1.5t-2 -3.5t-2 -3.5t-3.5 -1.5h-2.5t-1.5 2q0 6 2 9t4.5 4.5t5.5 1.5t5.5 1
t4.5 2.5t2 5.5q0 2 -1.5 2.5t-3.5 0.5q-9 0 -14.5 -1t-8.5 -3.5t-4.5 -8t-1.5 -13.5zM173 19q2 1 2.5 3.5t0.5 5.5t-1 6t-5 3h-3t-2 -2v-11l0.5 -1t1 -1.5t3 -1.5t3.5 -1z" />
</svg>
