<?xml version="1.0" standalone="no"?>
<!DOCTYPE svg PUBLIC "-//W3C//DTD SVG 1.1//EN" "http://www.w3.org/Graphics/SVG/1.1/DTD/svg11.dtd" >
<svg xmlns="http://www.w3.org/2000/svg" xmlns:xlink="http://www.w3.org/1999/xlink" version="1.1" viewBox="-10 0 266 256">
   <path fill="currentColor"
d="M116 248q0 3 4 3t5.5 -3t2.5 -8t1 -10q0 -6 0.5 -10.5t1.5 -7.5t3 -3q1 0 4.5 -0.5t4.5 -0.5q2 0 5.5 0.5l3.5 0.5h4.5t5.5 0.5t4.5 0.5h1.5l4 4v2.5t0.5 6.5t0.5 7v0q0 5 -1.5 7.5t-1.5 6.5q0 3 1 4t3 1q3 0 4.5 -1t2.5 -4q0 -1 0.5 -4.5t0.5 -8.5v-7v-6v-6v-9t-0.5 -7
t-0.5 -4v-9t-1 -10t-3.5 -8.5t-8.5 -4.5q-2 0 -6 -0.5t-8.5 -1t-8 -1t-4.5 -0.5h-18h-18q-4 2 -9 2t-10 1t-8.5 3.5t-6.5 7.5v6t-0.5 8.5t-0.5 8v5.5v3.5v2.5q-2 10 -4.5 20t-2.5 20q7 0 10 -2.5t3 -9.5q0 -4 0.5 -9.5t1 -9t0.5 -4.5l3 -3l37 2q1 0 1.5 0.5t0.5 1t0.5 2
t1.5 2.5v1v1q-1 1 -1.5 5t-1.5 9t-1.5 9.5t-0.5 5.5l-0.5 0.5t-0.5 1.5zM95 197q2 -2 5.5 -3.5l7 -3t7.5 -2.5t7 -1q1 0 5.5 1t9 2.5t7.5 3.5t3 4v1l-1 1t-2 1h-11h-11q-3 0 -7 -0.5t-8 -0.5t-7 -0.5l-3 -0.5zM137 182l4 -2l9 -4.5t9 -4t5 -1.5q3 0 4.5 1.5t2.5 4t1 5.5v5
q0 3 -1 6.5t-4 3.5q-1 0 -6 -1.5t-10 -4t-9.5 -5t-4.5 -3.5zM86 173q1 0 4.5 0.5t6.5 1.5t5.5 3t2.5 4q0 3 -3.5 5t-8 3.5t-9 2.5t-5.5 1v-5q0 -4 0.5 -7.5t2 -6t4.5 -2.5zM102 170v0v-1q0 -2 3.5 -2.5t8 -1t8.5 -0.5h6h9t9 1v1v0q0 4 -3.5 5.5t-8 2.5t-8.5 1h-5
q-5 0 -10 -2t-9 -4zM86 130q0 6 2.5 9.5t6.5 5.5t9.5 2.5t10.5 0.5t10.5 -0.5t8.5 -0.5h6h7h8.5h4.5h3t4.5 -1t4 -2t1.5 -3v-18q0 -2 -2 -4t-4.5 -2.5t-5.5 -1t-4 -0.5l-58 1q-2 0 -4.5 1.5t-4.5 3.5t-3 4.5t-1 4.5zM95 134q0 -2 1.5 -4.5t3.5 -3.5l15 -3h42q3 0 5 2.5
t2 5.5q0 5 -5.5 7t-13 2.5t-14.5 0.5h-10h-3h-5h-4h-2q-1 0 -3 -0.5l-4 -1t-3.5 -2t-1.5 -3.5zM68 101v1q1 0 2.5 2t2.5 3h1q8 0 16.5 -1.5t16.5 -1.5q4 0 14 -0.5t21 -1t21 -0.5h13q3 1 5 -1.5t2 -4.5h-7.5h-12t-12 -0.5t-7.5 -0.5h-2.5h-4t-4 -0.5t-2.5 -0.5v-3
q0 -3 1.5 -5t5.5 -2h7h10h11h7h3t4.5 -0.5t4.5 -0.5h3q1 -1 2 -2.5t1 -2.5t-0.5 -1.5t-1.5 -0.5h-7.5h-12.5h-12h-8t-4.5 -0.5t-5 -0.5t-4.5 -0.5l-2 -0.5l-2 -1v-13h47l1.5 -1.5t1.5 -2.5h1v-1h-1q0 -1 -1.5 -2.5l-1.5 -1.5h-34q-2 0 -2.5 -1.5t-0.5 -2.5q0 -5 2 -7.5
t5.5 -4t7.5 -1.5h8t7 0.5t6 0.5h4t5.5 -0.5t4.5 -2t2 -3.5q0 -1 -0.5 -2t-1.5 -1h-37q-1 0 -1.5 -1.5l-0.5 -1.5q0 -4 2 -7t2 -7q0 -2 -1 -3t-4 -1q-2 0 -4 3t-3.5 7.5t-3.5 10t-4 10.5t-4 8t-6 3q-1 0 -2 -0.5t-1 -1.5l-5 -34q0 -1 -1 -2t-2 -2.5t-2.5 -2t-2.5 0.5l-1.5 2
t-1.5 3q-1 2 1 6t2 7t-3 3.5t-8 0.5h-11t-11 0.5t-8 3t-3 7.5q9 0 18 -1.5t18 -1.5q8 0 11 3.5t4 11.5q-1 2 -3.5 2.5t-3.5 0.5h-5h-9h-8h-5t-3 0.5t-4.5 1t-4 1.5t-1.5 3q0 3 1 3.5t3 0.5q9 0 17.5 -1t17.5 -1h4q3 0 4.5 1l3 2t1.5 4t-1 4.5t-4 3.5q-6 1 -12 1.5t-13 0.5
h-12h-10q-2 0 -4.5 1.5t-2.5 3.5v1l1 1l1 1h2h4.5h4.5h3q9 0 17.5 -1t17.5 -1q3 0 4.5 1t2 3t0.5 4v4h-48l-1.5 1t-1.5 2l-2 1v1z" />
</svg>
