<?xml version="1.0" standalone="no"?>
<!DOCTYPE svg PUBLIC "-//W3C//DTD SVG 1.1//EN" "http://www.w3.org/Graphics/SVG/1.1/DTD/svg11.dtd" >
<svg xmlns="http://www.w3.org/2000/svg" xmlns:xlink="http://www.w3.org/1999/xlink" version="1.1" viewBox="-10 0 266 256">
   <path fill="currentColor"
d="M57 240q0 4 1.5 7.5t5.5 3.5q2 0 3 -0.5t2 -2.5v-4v-4q0 -6 -0.5 -12t-0.5 -12q0 -8 2 -15t4 -14.5t4 -14.5t2 -14q0 -9 -2.5 -16t-2.5 -15q0 -5 1.5 -9.5t3 -8.5t3 -8.5t1.5 -9.5q0 -3 -0.5 -5.5t-2 -4.5l-3 -4t-3.5 -4q-3 -6 -3.5 -12t-0.5 -12q0 -4 1 -7t2.5 -6.5
t2.5 -6.5t1 -6t-1 -3.5t-3 -0.5q-5 0 -7.5 4.5t-4 10.5t-2 11.5t-0.5 7.5q0 5 2.5 11.5t5.5 12t5.5 10t1.5 6.5q0 5 -2 9.5l-4 9t-4 9.5t-2 10v2l8 24v1v1q-2 7 -4.5 14.5t-4.5 14.5q-4 13 -4.5 26t-0.5 26zM126 243q0 2 1 2h2q2 0 4 -1t2 -4v-32h17v31q0 1 2 1h2
q2 0 3.5 -1t1.5 -3v-3t0.5 -4.5t0.5 -4.5v-3v-4t-0.5 -4.5t-0.5 -4.5v-2v-3.5t-0.5 -5.5t-0.5 -5.5v-3.5v-7.5t-0.5 -8.5t-2.5 -8t-6 -5h-14h-9h-8t-8 1t-10 2q-3 1 -5 4t-2.5 6.5t-0.5 7.5v7v5v8v9v5v3.5t-1 6.5t-1.5 6.5l-0.5 3.5v3q0 2 1 3.5t4 2.5q3 -1 4.5 -4t1.5 -6
v-4.5v-6.5v-7v-4l1 -2h1.5t4 -0.5t4.5 -0.5h4l1.5 -0.5l1.5 -0.5q1 0 2.5 0.5t1.5 1.5q0 8 0.5 17t1.5 17zM180 240q0 3 1 4t3 1q3 0 5 -2.5t2.5 -5.5t1 -6.5t0.5 -5.5v-20v-21q-2 -6 -5 -13.5t-3 -13.5q0 -5 1.5 -9.5l3 -9t3 -9.5t1.5 -12q0 -6 -0.5 -10.5t-2.5 -10.5
l-2 -2.5t-2 -3.5l-0.5 -1.5t-0.5 -2.5q0 -5 2 -10t4.5 -10t4 -10t1.5 -11q0 -3 -0.5 -7.5t-2 -8.5t-4.5 -6.5t-7 -1.5q-1 0 -2 1l-1 1q0 2 1.5 4.5t3 5.5t3 6.5t1.5 6.5q0 6 -2 10.5t-4.5 9t-4.5 9t-2 9.5q0 4 1.5 8l3 8t2.5 8t1 8q0 6 -1.5 11l-3 10l-3 10t-1.5 10
q0 7 1.5 13l3 12l3 12t1.5 13q0 8 -1.5 15t-2.5 15q-1 0 -1 1v2zM111 200q0 -2 2.5 -4t6 -3.5l7 -3t4.5 -1.5q4 0 6 1.5t7 3.5v3q0 2 -1.5 4t-5.5 2h-23q-1 0 -2 -0.5t-1 -1.5v0v0zM102 189v-2v-2.5t0.5 -3.5t0.5 -3.5v-2.5l2 -2l1 -1h1q1 0 3 1t4.5 2.5t4 3t1.5 2.5
q0 3 -1.5 4.5t-4 3t-4.5 2.5l-4 2h-1q-2 0 -2.5 -1t-0.5 -3zM141 183q0 -2 1.5 -5t3.5 -3h2.5t1.5 1v13q-3 0 -6 -1.5t-3 -4.5zM120 170q0 -3 2 -4.5t5 -2t6 -0.5h6h3.5t2.5 3q0 1 -1 2.5t-2 2.5t-3 2t-4 2.5t-3.5 2.5l-1.5 1h-1l-9 -7v-1v-1zM102 136q0 6 3 8.5t8 3.5
t10 0.5t9 -0.5h18q5 -1 7 -5t2 -9q0 -1 -0.5 -3.5t-0.5 -3.5q-2 -2 -4.5 -3.5t-5.5 -2.5h-14h-10.5t-10.5 1t-8 4t-3 10zM114 141q-3 -2 -3 -5q0 -4 3 -6t7.5 -2.5t8.5 -0.5h6h4t4 0.5t4 1.5t2 4q0 4 -2.5 6t-5.5 3t-7 0.5t-7 -0.5h-1.5h-0.5h-2.5t-3.5 -0.5t-4 -0.5h-2z
M93 109v1l1 0.5t2 0.5h70l3 -3l-3 -3h-27q-1 0 -1.5 -1.5t-0.5 -2.5t0.5 -2t1.5 -1q4 -1 8 -1.5t7.5 -2t5.5 -4.5t2 -8q0 -3 -1.5 -4.5l-3 -3t-2.5 -2t-1 -1.5v-18l1 -1l1.5 0.5l3 1t3.5 1.5t3 1l2.5 1.5t3.5 1.5q2 1 2.5 -0.5t0.5 -2.5v-3t-2 -3q-2 0 -5.5 -1t-6 -2
t-4.5 -3t-2 -5t1 -5.5t2 -5.5t2 -5.5t1 -6.5q0 -2 -1 -2.5t-3 -0.5q-4 0 -5 3t-1 6.5t-1 6.5t-5 3q-2 0 -5 -0.5l-3 -0.5v-21h-10q-1 0 -1 2v3q0 4 0.5 8t0.5 8q0 2 -1 3t-3 1h-2q-1 0 -3 -1l-4 -2t-3.5 -1.5t-1.5 -1.5l-3 -11q0 -1 -1 -1.5t-2 -0.5h-2h-3q0 3 1 6l2 6
t1.5 6t0.5 6q0 2 -2.5 4.5t-6 4.5l-7 4t-4.5 3l-0.5 0.5l-0.5 0.5q0 2 2 2h3q4 0 8 -2t8 -5t7 -6l5 -5h2.5h2.5q3 0 4.5 0.5t1.5 4.5q0 2 -2 3.5t-4.5 2t-5 1.5t-3.5 3v3.5v2.5q0 9 2.5 12t6 4t6.5 1.5t3 5.5q0 3 -1 5t-5 2q-8 0 -11.5 -2.5t-4.5 -5t-1.5 -5t-3.5 -2.5
t-3 1.5v4.5q0 5 2.5 8t7 4.5t9.5 1.5t9 1v1q0 3 -2.5 4.5t-4.5 1.5h-26l-0.5 1.5l-0.5 1.5v1zM151 75q1 0 2 0.5t1 2.5q0 9 -5 11t-11 2q0 -5 3 -10.5t10 -5.5zM121 71q-2 -1 -2.5 -3.5t-0.5 -4.5t0.5 -3t1.5 -2q4 -1 7.5 -1.5t7.5 -0.5q5 0 8.5 1t3.5 7q0 4 -3.5 6.5
t-8.5 2.5h-2q-1 0 -2.5 -0.5t-3.5 -0.5t-3.5 -0.5t-2.5 -0.5zM135 46q0 -3 2.5 -4.5t5.5 -1.5t4 2t1 4v1l-2 3h-3h-2.5t-3 -0.5t-2.5 -1.5t0 -2z" />
</svg>
