<?xml version="1.0" standalone="no"?>
<!DOCTYPE svg PUBLIC "-//W3C//DTD SVG 1.1//EN" "http://www.w3.org/Graphics/SVG/1.1/DTD/svg11.dtd" >
<svg xmlns="http://www.w3.org/2000/svg" xmlns:xlink="http://www.w3.org/1999/xlink" version="1.1" viewBox="-10 0 266 256">
   <path fill="currentColor"
d="M61 226v4v5v5v2q0 3 1 6t4 3q2 0 3.5 -0.5t1.5 -2.5q0 -1 0.5 -3t0.5 -3q0 -5 -1 -10t-1 -10q0 -10 1 -17.5t2 -14.5t2.5 -14.5t3.5 -16.5v-4v-4q0 -4 -1.5 -8l-3 -8l-3 -8t-1.5 -9q0 -4 1 -8.5t2.5 -8.5l3 -8t1.5 -8v-3t-1 -2l-10 -21v-1.5v-2.5q0 -5 1.5 -10t3.5 -9.5
t4 -8.5t2 -6t-2 -2.5t-3 -0.5q-3 0 -6 4.5t-5 11.5t-3 13.5t-1 9.5q0 5 2 8.5t4 7.5l4 8t2 8t-1 7t-2.5 6.5t-3 6.5t-1.5 7q0 5 1.5 9t3 7.5t2.5 7.5t1 9q0 4 -1 8l-2 8t-2.5 8t-2.5 8q-1 9 -1 22v23zM97 154q0 24 -1 47t-1 46q2 0 5 -2t3 -5v-41q0 -2 1.5 -3.5t2.5 -1.5h16
q1 0 1.5 0.5t0.5 1.5l0.5 2l0.5 2v32l2 5l0.5 0.5l0.5 0.5q2 0 3.5 -1.5t1.5 -3.5v-15v-4.5t0.5 -7.5t0.5 -7v-5q4 -1 7.5 -2t7.5 -1h3.5t2.5 2q1 8 2 16.5t1 16.5q0 4 -1 6.5t-1 5.5q0 2 1.5 3t3.5 1q4 0 5 -3.5t1 -6.5v-14.5t-3 -14.5l-3 -53q0 -2 -2.5 -4.5l-3.5 -3.5h-3
t-5 -0.5t-5 -0.5h-3l-1.5 -0.5t-2.5 -0.5t-2 -0.5t-2 -0.5v0q-4 0 -9.5 1t-11 2.5t-9.5 4.5t-5 7zM178 156q3 10 5.5 20.5t4 21.5t2.5 22t0 22h1.5h1.5q4 0 4.5 -3.5t0.5 -6.5q0 -15 -2 -30.5t-6 -30.5q-1 -7 -3.5 -13t-2.5 -13q0 -4 1 -8t2 -8.5t2 -8.5t1 -9q0 -4 -1 -8.5
t-2.5 -9t-2.5 -8.5t-1 -9t1 -10t2 -9.5t2 -9.5t1 -10q0 -2 -0.5 -5.5t-1 -6.5t-2.5 -5t-5 -2q-2 0 -3.5 1t-1.5 3t2.5 6t2.5 10t-2.5 11.5t-2.5 9.5v27q4 6 5.5 13.5t1.5 14.5q0 9 -2.5 17.5t-2.5 16.5v4.5t1 3.5zM119 184l9 -9h1h2t3 0.5t4 1.5t3.5 2.5t1.5 2.5
q0 2 -1.5 3.5t-4 2l-5 1t-3.5 0.5q-4 0 -6 -1t-4 -4zM103 166q0 -2 0.5 -5.5t3.5 -3.5q2 0 4.5 1t5 2.5t4 3.5t1.5 4v2v1q-1 0 -2 1.5t-2.5 3.5t-2.5 3l-2 2q-2 2 -3.5 3t-3.5 1h-2q0 -1 -0.5 -3.5t-0.5 -5.5v-6v-4zM138 168q0 -2 1.5 -5t3 -5.5t4 -4t5.5 -0.5q2 0 3 2
t1 4.5v5v3.5v4v4t-1 3.5t-3 1.5v0v0q-1 -1 -3.5 -2.5t-4.5 -3.5l-4 -4t-2 -3zM116 153q0 -2 2 -3t4.5 -1.5t5.5 -0.5h4h2.5h3.5q1 1 1.5 2l0.5 1q0 4 -4.5 6.5t-7.5 2.5q-2 0 -4 -0.5t-3.5 -1.5t-3 -2.5t-1.5 -2.5zM97 118q0 4 3 7.5t7 4.5q1 0 4.5 0.5t5.5 0.5
q6 0 13.5 -0.5t13.5 -1.5q3 -1 5 -2.5t3 -4.5t1 -6v-6t-2.5 -6t-6.5 -3h-32q-8 0 -11.5 5.5t-3.5 11.5zM104 116q0 -1 1 -2.5t2 -2.5t2.5 -2t2 -1t2.5 -0.5t4.5 -0.5h4.5h3h3.5h4.5t4.5 0.5l2.5 0.5q2 1 2.5 3.5t0.5 4.5v3.5t-3 1.5q-7 2 -12 2h-11h-6h-5q-1 -2 -2 -3.5
t-1 -3.5zM92 90q-2 1 -5 1.5t-3 3.5h4h6h6h4q6 0 16 -0.5t19 -0.5t15.5 -0.5l6.5 -0.5l3 -3l-2 -1h-4h-6h-12.5t-18 0.5t-18 0.5h-11.5zM134 78q3 0 6 2t6 2q4 0 5 -3.5t1.5 -7.5t0.5 -8v-7v-3.5v-5.5v-4v-5l-0.5 -0.5l-0.5 -0.5q-1 -1 -3.5 -2l-2.5 -1h-48q0 -1 -0.5 -3
t-0.5 -3q1 -2 4 -3.5t7 -2.5t7.5 -1h5.5q1 0 6 -0.5t10 -0.5q6 0 11 0.5t7 0.5q2 -1 4 -2.5t2 -4.5q0 -1 -1.5 -2t-3 -1.5t-3.5 -0.5h-3h-10h-13t-13.5 1t-12 4t-9 7t-3.5 11v4q0 3 0.5 8t0.5 9.5t0.5 8.5t0.5 5q0 5 4 8.5t8 3.5q8 0 15.5 -1t15.5 -1zM97 64q0 -3 4.5 -4.5
t11 -1.5h11.5h9h8q3 0 3 2v4v3.5t-3 1.5q-6 2 -12.5 2h-13.5h-3h-4h-4h-3q-3 0 -3.5 -2.5t-0.5 -4.5zM131 41h12q0 1 0.5 2.5t0.5 2.5l-0.5 1t-0.5 2q-12 2 -23.5 3t-23.5 1q0 -6 4 -8.5t9.5 -3t11 -0.5h10.5z" />
</svg>
