<?xml version="1.0" standalone="no"?>
<!DOCTYPE svg PUBLIC "-//W3C//DTD SVG 1.1//EN" "http://www.w3.org/Graphics/SVG/1.1/DTD/svg11.dtd" >
<svg xmlns="http://www.w3.org/2000/svg" xmlns:xlink="http://www.w3.org/1999/xlink" version="1.1" viewBox="-10 0 266 256">
   <path fill="currentColor"
d="M124 226q0 3 2 7.5t5 8.5t6.5 6.5t7.5 2.5q3 0 4.5 -0.5t1.5 -4.5q0 -3 -2.5 -5t-5.5 -4t-5 -5t-2 -9q0 -4 1.5 -7.5t3.5 -6.5t3.5 -6t1.5 -5q0 -3 -3.5 -5t-5.5 -4l-0.5 -0.5t-0.5 -1.5q0 -3 2 -4.5t5.5 -2t7 -0.5t7 -0.5t6 -2.5t3.5 -6q1 -10 1 -21q0 -7 -5 -9.5
t-11 -2.5v-2q0 -3 2 -5.5t4 -4.5h1q5 0 9.5 2.5t8.5 6t8 6.5t9 3l2.5 -0.5l2.5 -0.5q2 0 2 -2v-2q0 -4 -5 -6t-11 -4t-11 -4t-5 -5q0 -1 0.5 -1.5l1.5 -1.5q3 -2 7.5 -2.5t7.5 -1.5t5.5 -3t2.5 -6q-4 0 -8.5 1.5t-8.5 3l-8 3t-8 1.5q-2 0 -4.5 -1t-5.5 -2t-4.5 -3t-1.5 -4
v-1h5.5t9 -0.5t9 -0.5h5.5q6 -1 13.5 -1t12.5 -2l0.5 -0.5t0.5 -1.5t-0.5 -1.5t-1.5 -0.5h-7q-8 0 -16.5 0.5t-16.5 0.5h-5q-1 0 -1.5 -0.5l-0.5 -0.5v-1q0 -2 2 -4.5t2 -3.5q8 -1 13.5 -0.5t9 -1t5.5 -5.5t2 -11q0 -4 -2 -5.5t-5 -2t-6 -1.5t-3 -4q-1 -1 -0.5 -2t1.5 -1
q5 -1 8.5 -2t5 -2.5t2 -4.5t0.5 -7v-8q-1 -1 -3.5 -2.5t-5.5 -2t-5.5 -0.5h-4.5v-3q0 -2 1 -4t1 -4t-1.5 -2.5t-3.5 -0.5l-3 0.5t-3 1.5v12q0 1 -2 2.5t-4.5 3.5t-4.5 5t-2 7q0 7 5 9t11 2q0 4 -2.5 6t-5 3t-4.5 2.5t-2 4.5v2.5v3.5t0.5 3.5t0.5 2.5v1.5v1.5q0 3 -1.5 5.5
t-3.5 4.5t-5 3.5t-6 1.5l-0.5 -0.5t-1.5 -0.5l-11 -10v-1v-3q0 -3 0.5 -5.5t0.5 -5.5q0 -5 -2.5 -7.5t-5.5 -3.5t-5.5 -2t-2.5 -2q0 -4 2.5 -5l5 -2t5 -3t2.5 -8v-2q0 -2 -0.5 -4t-1 -3.5t-1.5 -1.5h-11v-14q0 -1 -1 -1.5t-2 -0.5h-4h-4v12q0 2 -2.5 2.5t-5.5 1.5t-5 3.5
t-2 7.5t2 7t5 3.5t5.5 3t2.5 4.5q0 2 -2.5 4t-5.5 4t-5 4t-2 6q0 6 4 8t10 3t12.5 2t10.5 7v0v0v0.5v0.5q-1 0 -2 0.5l-1 0.5h-53q-1 0 -1.5 2t-0.5 3t0.5 1.5l1.5 1.5h8h8.5t8.5 -2h45l2 2t2.5 2l3 2t1.5 2q1 0 3 1.5t4.5 3t4.5 2.5t2 2v1q-1 0 -2 1t-1 2q-1 1 -1.5 2.5
t-1.5 3.5t-1.5 4t-0.5 3h-1h-1h-2.5t-1.5 -1v-12q0 -2 -2.5 -2.5t-3.5 -0.5h-2.5t-1.5 1v17h-10q1 -4 1 -7.5v-7.5v-3v-4t-2 -3t-4 -2h-36q-1 0 -2 1.5l-1 1.5l0.5 1.5l0.5 1.5l0.5 0.5t1.5 0.5h10q0 6 -5.5 10.5t-12 8.5t-11.5 8t-5 8q0 2 0.5 3t3.5 1q5 0 10 -3t9.5 -8
l9 -10t8.5 -10t7.5 -8t6.5 -3q2 0 2.5 2.5t1 5.5t0.5 6v4v6q-1 3 -4 3.5t-5.5 2t-4.5 4.5t-2 10q0 2 0.5 5t2 5.5l3 5t2.5 2.5l14 3q1 1 1 1.5v1.5l-2.5 3.5t-6 7.5t-6.5 8t-4 5q-1 2 -2 5t-2 6.5t-1.5 6.5t-0.5 6v3v2q1 2 2.5 2.5t3.5 0.5t3.5 -0.5t2.5 -2.5v-4v-6v-5.5
v-3.5q0 -3 2 -7.5t4.5 -8.5t5.5 -6.5t7 -2.5h4.5t2.5 3l0.5 2.5t0.5 3.5q0 4 -2 7t-4 5.5t-3.5 5.5t-1.5 7zM149 222q0 2 0.5 3.5t1.5 3.5t2 3t3 1q5 0 10.5 -0.5t10 -2t7.5 -5t3 -10.5q0 -6 -5 -8t-10 -2q0 3 2 5.5t2 6.5q0 6 -3 6.5t-8 0.5h-7l-3 -3v0q0 -5 2 -8t4.5 -6
t4.5 -6.5t2 -7.5q0 -2 -1.5 -4.5t-4.5 -2.5q-2 0 -2.5 2t-0.5 5v4v2q-1 4 -2.5 6t-3 4.5l-3 5t-1.5 7.5zM109 168v-1l3 -3q3 -1 7.5 -2t8.5 -1q3 0 3.5 3t0.5 5q0 4 -4 4.5t-7 0.5h-3t-4 -1t-3.5 -2t-1.5 -3zM140 168q0 -4 3 -5.5t8 -1.5q2 0 4.5 2t2.5 5q0 2 -1 3t-3 1.5
t-4 0.5h-3h-5q-2 -1 -2 -2.5v-2.5zM125 143l2.5 0.5t2.5 1.5v10h-23v-4q0 -2 2 -3q5 -2 8.5 -3.5t7.5 -1.5zM138 149v-3q0 -2 2 -3h3.5h3.5q5 0 8 1t3 6v3t-2 2h-2.5h-2.5h-5t-3.5 -0.5t-3 -1.5t-1.5 -4zM93 74q0 -6 4 -7.5t9 -2.5q3 1 3.5 2.5t0.5 3.5l-0.5 1.5t-0.5 2.5
t-0.5 2t-2.5 1h-11q-2 0 -2 -1.5v-1.5zM155 73q0 -3 1.5 -4.5t3.5 -2.5t4.5 -1.5t4.5 -0.5q3 0 5 2.5t2 5.5t-2 4t-4 1.5t-5 0t-4 -0.5q-4 0 -5 -0.5t-1 -3.5zM90 40q0 -3 1.5 -4.5t3.5 -2.5t4 -1h4q3 0 5.5 1.5t2.5 6.5q0 2 -1.5 2.5t-4 1t-4 0.5h-2.5h-7q-2 -1 -2 -2v-2z
M155 42v-1.5v-2.5q0 -3 1 -4.5t3.5 -2l5 -1t5.5 -0.5t5 1t2 5q0 2 -1.5 5t-4.5 3h-1q-1 0 -3 -0.5t-4.5 -0.5t-4.5 -0.5t-3 -0.5z" />
</svg>
