<?xml version="1.0" standalone="no"?>
<!DOCTYPE svg PUBLIC "-//W3C//DTD SVG 1.1//EN" "http://www.w3.org/Graphics/SVG/1.1/DTD/svg11.dtd" >
<svg xmlns="http://www.w3.org/2000/svg" xmlns:xlink="http://www.w3.org/1999/xlink" version="1.1" viewBox="-10 0 266 256">
   <path fill="currentColor"
d="M51 248q0 2 1 2.5t2 0.5q6 0 10.5 -4.5t8.5 -10.5l7 -10.5t7 -4.5t5.5 4t3.5 9t3.5 9.5t6.5 4.5q2 0 4 -1.5t2 -3.5q0 -3 -2 -6.5t-5 -7t-5.5 -7t-3 -6.5t-2 -8.5t-2.5 -11t-2 -9.5t-1 -5v-3v-4v-3.5v-3.5q1 -3 5 -4t8 -2.5t7.5 -4t5.5 -7.5q0 -6 0.5 -10t0.5 -8v-8v-9
v-16t-2.5 -11.5t-7.5 -7t-15 -2.5q-2 0 -2 -2v-3q0 -4 2 -6t5 -3.5t6.5 -3t6.5 -4t5 -7t2 -11.5q0 -6 -4.5 -9t-11.5 -4t-13.5 -1h-9.5q-5 -2 -9.5 -5t-7.5 -6h-1q-3 0 -3.5 1.5t-0.5 4.5q0 6 3.5 8.5t8 3.5t8.5 2t4 5q0 2 -5 5.5t-11.5 8.5t-11.5 10.5t-5 12.5q0 1 0.5 2
t1.5 1q4 0 5.5 -2.5t3.5 -5.5l2 -2l4 -4l4 -4l2 -2l3 -3t4.5 -4t4.5 -3.5t2 -2.5l0.5 -1.5l1 -3l1 -3l0.5 -1.5q1 -2 3 -2h4q5 0 9.5 1.5t4.5 7.5q0 3 -0.5 3.5l-2.5 2.5l-2 1.5t-4.5 3.5t-4.5 3.5l-2 1.5q-2 2 -4 5t-3.5 6t-3 5.5t-2.5 2.5q-4 1 -7.5 2.5t-6.5 2.5t-6 3.5
t-6 5.5q-1 5 -1.5 8l-1 6t-0.5 6v7q0 11 0.5 20t3.5 15t9.5 9t18.5 4v38q-1 1 -1.5 2.5l-1 3l-1 3l-0.5 1.5q-2 4 -6 9t-8.5 9.5t-8 8.5t-3.5 6zM128 197q0 3 1.5 10.5t3.5 15.5t4.5 14t5.5 6h2.5t1.5 -1q0 -3 -0.5 -6t-1.5 -6.5t-2 -6.5t-2 -5t-1 -6t-1 -8t-1 -8v-6
l-0.5 -1l-0.5 -1q0 -7 1.5 -13.5t3.5 -13t3.5 -12.5t1.5 -13q0 -6 -2 -13.5t-7 -11.5q-2 0 -2 1v3q0 5 1.5 9.5t1.5 9.5q0 9 -1.5 16.5t-3.5 15t-4 15.5t-2 16zM185 192v2t0.5 5t0.5 5.5v4.5q0 3 1.5 8.5t3.5 11.5t4.5 10t6.5 4q2 0 4 -1t2 -3l-0.5 -0.5l-0.5 -0.5
q-2 -4 -3.5 -8l-3 -8l-3 -8t-3.5 -9v-32q0 -4 1 -8.5t2.5 -8.5t2.5 -8.5t1 -8.5q0 -3 -0.5 -7t-2.5 -8t-4.5 -7t-5.5 -5v4q0 6 2 11.5t2 11.5q0 7 -1 13.5t-2.5 13t-2.5 13t-1 13.5zM157 191v6.5t1 10.5l2 12t2.5 10.5t3.5 8t5 3.5t4 -1t1 -4v-2t-1 -1q0 -1 -0.5 -3
t-1.5 -4.5t-2 -4.5l-1 -2q-2 -4 -2.5 -8.5l-1 -9l-1 -9t-0.5 -8.5q0 -6 1.5 -12l3 -12l3 -12t1.5 -12q0 -8 -3 -14.5t-9 -11.5q-1 0 -1.5 1t-0.5 2q0 3 1 6.5l2 7l2 7t1 7.5l-0.5 2.5t-0.5 3.5t-1 2.5t-1.5 4t-1.5 4t-1 2.5q-1 7 -2 14.5t-1 15.5zM61 173q-3 0 -5 6
t-2.5 13.5t0 14.5t0.5 8q4 0 6.5 -2t4 -5.5t1.5 -7.5v-8q0 -1 0.5 -4t0 -6.5t-1.5 -6t-4 -2.5zM104 207l2.5 2.5t3.5 1.5t2.5 -3t0.5 -5q0 -3 -1 -6.5t-2 -7.5l-2 -8t-1 -10h-0.5h-0.5q-3 0 -4 2.5t-1 5.5v2v1q0 2 0.5 5.5t1 7.5t1 7.5t0.5 4.5zM65 152q0 -3 1.5 -5
t4.5 -3.5t6 -2t5 -0.5q1 0 4 0.5l3 0.5q1 0 2.5 1t3.5 3t4 3.5l2 1.5v1q0 2 -2.5 3.5t-5.5 2t-6.5 1t-4.5 0.5h-5t-5.5 -0.5t-4.5 -2t-2 -4.5zM82 120q-3 0 -3.5 1.5t-0.5 4v4.5t-1 4q-1 1 -2.5 2t-3.5 1.5t-3.5 1.5t-2.5 1h-2q-2 0 -2.5 -1t-0.5 -3v-3.5v-2.5v-5
q3 -3 6 -5.5t6 -4.5t6 -3.5t7 -1.5q2 0 6 2.5t8 5.5t7 6.5t3 6.5q0 1 -0.5 3t-1 3.5t-1.5 3t-2 1.5q-5 0 -9 -3.5t-6 -7.5t-3.5 -7.5t-3.5 -3.5zM86 98q0 -5 1 -8t6 -3q2 0 4.5 0.5t5 1.5t4.5 3t2 5q0 1 -0.5 2.5t-0.5 4t-0.5 4.5t-0.5 3l-0.5 0.5l-0.5 0.5h-1q-2 0 -5 -1.5
t-6.5 -3.5t-5.5 -5t-2 -4zM61 92q1 0 2 -1t2 -1l1.5 -0.5t3.5 -1t4 -0.5t3 -1h1v0l2 2v1q0 8 -5.5 14.5t-14.5 6.5q0 -10 1 -19zM130 84q0 9 5 15t15 6h44q3 0 4 -1t1 -3q0 -1 -0.5 -2.5t-1.5 -1.5h-50q-1 0 -3 -2l-3 -3l-2 -2t-1 -3t3 -5.5t7.5 -6.5t9 -4.5t7.5 -1.5
t5.5 2.5t5 5.5l5 6t6.5 3q2 0 4 -1t2 -4q0 -2 -1 -3l-2 -2t-3 -1.5t-4 -2.5l-3 -3l-4.5 -4.5t-4.5 -5t-3 -3.5v-2v-2v-5.5t0.5 -9t1 -8.5t0.5 -5v-2q0 -1 -0.5 -2.5t-1.5 -2.5l-2 -2t-2 -1q-2 1 -3.5 2.5t-1.5 2.5v34q0 3 -2 6t-5.5 6t-7 5.5t-5.5 2.5l-1 -3v-38q0 -2 -2 -2
h-3q-2 0 -2.5 0.5l-2.5 2.5v5q0 7 2 14t2 13q0 1 -0.5 3t-0.5 4.5t-0.5 4.5t-0.5 3v4z" />
</svg>
