<?xml version="1.0" standalone="no"?>
<!DOCTYPE svg PUBLIC "-//W3C//DTD SVG 1.1//EN" "http://www.w3.org/Graphics/SVG/1.1/DTD/svg11.dtd" >
<svg xmlns="http://www.w3.org/2000/svg" xmlns:xlink="http://www.w3.org/1999/xlink" version="1.1" viewBox="-10 0 266 256">
   <path fill="currentColor"
d="M77 249q0 2 2 2h3q6 0 11.5 -4t10 -8.5t9.5 -8.5t10 -4q6 0 11 3.5t9.5 8t8.5 8t10 3.5h2h2.5t3 -0.5t1.5 -2.5q0 -4 -3.5 -7t-8 -5l-9 -4t-7.5 -4l-15 -8l-0.5 -1t-0.5 -2q0 -5 3.5 -8t9 -4.5t11 -2.5t11 -2.5t9 -5t3.5 -9.5v-23q0 -1 -1.5 -3.5t-2.5 -3.5
q-6 -3 -10.5 -4t-9.5 -2t-10 -1.5t-12 -0.5l-2 -2v0q0 -4 2.5 -6t5.5 -3t7 -1t7.5 -1t6 -3t2.5 -7t-2.5 -8t-7 -4t-9 -1.5t-9.5 -0.5t-9 -0.5t-6 -2.5t-3.5 -4.5t-5.5 -2.5v0q-1 0 -1.5 1.5t-0.5 2.5t1 3.5l1 2.5q0 2 -2 4.5t-5 4.5t-5.5 3.5t-4.5 1.5l-2.5 2.5l-3.5 3.5
t-4 3.5t-2 2.5l-4.5 4.5t-5 5.5t-4.5 6t-2 5q0 3 1 3.5t3 0.5q4 0 6 -2l4 -4q7 -8 12 -14.5t11.5 -11.5t14 -8t17.5 -3h4.5t5 0.5t4.5 2t2 4.5q0 1 -0.5 2t-1.5 2q-8 0 -13 1.5t-7 3t-2.5 4t-1 4.5t-1.5 4t-4 3q-4 1 -8 1.5l-8 1t-7.5 1.5t-7.5 3q-2 3 -2.5 5l-1 4t-0.5 4v4
v10.5t1 10.5q4 6 11 7.5t13.5 2.5t11 3t4.5 9q0 3 -6.5 8t-14.5 9.5t-15 9.5t-7 8zM72 229q0 3 1.5 3.5t3.5 0.5q3 0 7.5 -3t9.5 -7t8 -8.5t3 -7.5q-2 0 -4.5 0.5t-5.5 1.5q0 1 -1.5 2t-3 2.5t-2.5 3l-1 1.5q-2 1 -4.5 2t-4.5 2.5l-4 3t-2 3.5zM140 212q1 2 5 4.5t9 5
t9.5 4.5t6.5 2t4.5 -1t2.5 -4q0 -2 -4.5 -4t-10 -4.5t-10.5 -4t-7 -1.5t-3 0.5t-2 2.5zM103 192q0 -2 3 -3.5t6.5 -2.5l7 -2t5.5 -1q1 0 4 1t5.5 2.5t5 3.5t2.5 3q0 2 -2.5 2.5l-5 1t-4.5 0.5h-3h-5t-8 -0.5t-7.5 -1.5t-3.5 -3zM122 174q-2 0 -6 2t-8.5 4.5t-9.5 4.5t-10 2
q0 -4 3.5 -8t8 -7t10 -4.5t9.5 -1.5q5 0 10.5 1.5t11 4t10.5 5t9 5.5l0.5 1t0.5 2q0 3 -2 4t-4 1h-3q-1 -1 -4 -2.5l-6 -3t-6 -2.5t-4 -2l-1.5 -1l-3 -2l-3 -2l-1.5 -1h-0.5h-0.5zM126 152q9 0 18 0.5t17 4.5q0 1 0.5 2.5t0.5 3.5t0.5 4t0.5 3v0v1l-2 2l-1 1h-1q-2 0 -4 -1
t-4 -2.5t-4 -3.5t-4 -2l-1 -0.5t-2.5 -0.5t-3 -0.5l-1.5 -0.5q-1 0 -2.5 -0.5t-3 -1.5t-2.5 -1.5l-1 -0.5v-7zM116 153q0 4 -1.5 6t-3.5 3t-5 1.5t-6 1.5q-4 1 -6.5 3t-5.5 2q0 -4 0.5 -7t4.5 -4q6 -2 11 -4t12 -2zM164 91q0 4 2.5 8t6 7t7.5 5t8 2h3.5t2.5 -3q0 -4 -4 -6
t-8 -3.5t-8 -3.5t-4 -6q0 -6 2.5 -11t2.5 -11q0 -5 -1.5 -7t-4.5 -3t-5.5 -1.5t-3.5 -2.5q1 -2 4 -3.5t6.5 -2t6.5 -1t5 -0.5q4 0 5 4.5t2 9.5t2 9t5 4q3 0 4 -1.5t1 -4.5q0 -6 -2.5 -11.5t-3.5 -12.5q0 -1 -0.5 -4.5t-1 -7.5t-1 -7.5t-0.5 -4.5q0 -2 -1 -2.5t-2 -0.5h-2
t-1 1v19l-2 3h-1.5t-4 0.5t-5.5 1t-4 0.5h-4h-3t-2 -2q0 -4 0.5 -9.5t-1 -10t-4 -7.5t-8.5 -3q0 8 2 15t2 15q0 4 -3.5 5t-6.5 1q-4 0 -7.5 -1.5t-7 -4l-7 -5t-7.5 -3.5l-1.5 -0.5t-3.5 -1t-3.5 -1l-1.5 -0.5q-3 -1 -3 -4v-6t-1 -5.5t-4 -2.5q-1 0 -3 0.5t-2 2.5v14
q0 2 -5.5 5t-12 6t-12 6t-5.5 6v1l1.5 1.5l0.5 0.5h2.5h3.5q4 0 6.5 -2t5.5 -4.5t6 -4.5t7 -2q2 0 3 3t1 5q0 3 -1.5 4.5t-3.5 1.5h-4.5h-4.5q-1 1 -4 3t-6 5t-5 5.5t-2 3.5l2 2l1 1q3 1 5.5 -0.5t4.5 -4t4.5 -4.5t5.5 -2q2 0 5 1t3 4q0 4 -4.5 6.5t-10 5.5t-10 6.5
t-4.5 8.5q0 2 1 3t3 1h1q1 0 1 -1l19 -15v0h1l0.5 1l0.5 1v3.5t0.5 5.5t1.5 6t3 3l1.5 -0.5l1.5 -0.5v-3v-4v-4.5v-2.5q0 -2 1 -4t3 -2q3 0 5.5 1t4.5 2.5l4 3t5 1.5q2 0 3.5 -0.5t1.5 -3.5t-4 -5t-9 -4t-9 -3.5t-4 -5.5q0 -1 1 -2t2.5 -1.5t3.5 -1t3 -0.5q2 0 3.5 1t3.5 2
l3 1.5t3 0.5t3 -0.5t1 -2.5t-2 -4t-4.5 -4t-5 -3t-4.5 -1t-4.5 0.5t-4.5 0.5h-1l-0.5 -0.5l-0.5 -0.5v-14l3 -3l1 0.5t3 1t4.5 1.5t3.5 2q2 0 2.5 0.5t1.5 1t2 1.5t3 2q5 4 12.5 5t13.5 2v1v2q0 3 -1.5 7t-4.5 7.5t-5.5 7t-5.5 5.5v5q7 0 10 -3.5t5.5 -8.5t5.5 -9t9 -4h1
q0 1 2 1.5l2 0.5v4q0 5 -1.5 10t-1.5 10z" />
</svg>
