<?xml version="1.0" standalone="no"?>
<!DOCTYPE svg PUBLIC "-//W3C//DTD SVG 1.1//EN" "http://www.w3.org/Graphics/SVG/1.1/DTD/svg11.dtd" >
<svg xmlns="http://www.w3.org/2000/svg" xmlns:xlink="http://www.w3.org/1999/xlink" version="1.1" viewBox="-10 0 266 256">
   <path fill="currentColor"
d="M47 249q0 2 2.5 2h3.5q6 0 10 -4.5t7 -10.5l5.5 -11t6.5 -5q3 0 5.5 4.5t4.5 10t5.5 10t8.5 4.5q3 0 5 -1t2 -3q0 -1 -0.5 -2t-1.5 -1q-6 -9 -13 -16.5t-11 -16.5q-2 -4 -2 -9v-9v-9q1 -3 3.5 -5t5 -3.5t5.5 -2.5l6 -2q4 -6 5 -16t1 -17v-4t-0.5 -6.5t-0.5 -6.5v-4v-18
q-1 -3 -4.5 -5.5t-7.5 -4t-7.5 -2t-5.5 -1.5v-1q0 -7 3.5 -12t8 -9t8 -8.5t3.5 -10.5q0 -7 -4.5 -10t-10.5 -4.5t-12.5 -2.5t-10.5 -3l-1 -1.5l-2 -3t-2 -2.5t-2 -1q-2 -2 -5.5 -2.5t-5.5 -0.5q0 4 1.5 7.5t4 6t6 4.5t6.5 3v1.5v2.5q0 3 -1 5t-2.5 3.5t-3 3.5t-3.5 3
q-5 8 -9 17t-4 18q0 3 2 5t2 5q0 6 -2 11.5t-2 11.5q0 3 0.5 9.5t1.5 13.5t2 13t3 8q2 5 6 7t7.5 3.5t6.5 4t3 8.5q0 12 -3.5 21.5t-10.5 19.5q0 1 -3 4.5t-6 6.5t-5 6t-2 4zM134 172q0 1 0.5 2l0.5 1q0 3 0.5 10t1 15t1 15t0.5 8q0 7 2.5 10.5t6 5t8.5 2.5t11 1h8t9.5 -1
t8.5 -3t5 -7q0 -1 0.5 -4t0.5 -7t0.5 -7t0.5 -4t0.5 -3.5t0.5 -3.5v-3.5v-4.5q0 -3 0.5 -5.5l0.5 -2.5q0 -2 -0.5 -4.5t-0.5 -5.5v-5v-2q0 -4 -0.5 -7t-4.5 -3h-3t-2 2q1 7 0.5 14t-1.5 14q-1 0 -3 -1l-2 -1q-1 -1 -3 -2.5t-3.5 -3l-2.5 -2.5t-1 -2v-26q0 -2 -1.5 -3.5
t-3.5 -1.5t-3 1.5t-2 3.5v13t-1.5 11t-5.5 9t-11 7h-1h-1q0 -1 -0.5 -1.5l-0.5 -0.5v-20q0 -1 -1.5 -3t-3.5 -2q-1 0 -2 1t-1.5 2.5t-0.5 2.5v2zM144 218v-1q9 -1 17.5 -1.5t17.5 -0.5h2t3.5 0.5l3 1t1.5 2.5t-1 4.5t-2 4.5q-7 3 -11.5 4t-10.5 1q-3 0 -6.5 -0.5t-6.5 -2.5
t-5 -5t-2 -7zM54 183v15t-2 14q-1 4 -1.5 5.5l-1 3l-1 3t-0.5 5.5q6 0 9 -4t4.5 -9.5t2 -12t0.5 -9.5q0 -1 -0.5 -4.5l-0.5 -3.5q-1 -2 -4 -2.5t-5 -0.5zM98 187q0 1 1 6.5t2 12t2.5 11.5t4.5 5q2 0 2.5 -2.5t0.5 -4.5q0 -3 -0.5 -8t-1.5 -10.5t-2.5 -10t-4.5 -4.5
q-2 0 -3 1.5t-1 3.5zM144 203q0 -3 3 -5.5t6.5 -4.5t7.5 -3t6 -1t6 1.5t8 3.5t6.5 4t2.5 4t-1.5 3.5t-2.5 1.5h-40q-2 0 -2 -1.5v-2.5zM67 161q0 -1 1.5 -2.5t3.5 -3t4.5 -3t3.5 -1.5q2 0 4.5 1t4.5 3l4 4l4 4v0v0.5v0.5l-1 1.5t-1 2.5q-5 1 -8 1h-7t-8.5 -1.5t-4.5 -6.5z
M144 135v5.5t0.5 7.5t2 7t4.5 3q5 0 5 -4q0 -6 -2.5 -10.5t-2.5 -9.5q0 -4 1 -8t2.5 -7.5l3 -7t1.5 -7.5q0 -3 -1.5 -4t-4 -2t-5 -1h-4.5v-7l14 -3v-1v-1q0 -2 -2 -3.5t-4 -2l-4 -1t-2 -1.5v-15q0 -2 2 -2.5t4.5 -1t4.5 -1t2 -3.5v-0.5v-1.5h-3t-4 -0.5t-4 -2t-2 -3.5v-26
q0 -1 -1 -2l-2 -2h-1q-3 0 -3.5 3t-0.5 5q0 5 1 9t1 9v9q-3 2 -7 2t-5.5 -3t-1.5 -6.5t-0.5 -6.5t-4.5 -3q-3 0 -3 4v0.5v0.5q0 3 0.5 8t0.5 10t0.5 8t0.5 4t0.5 4t0.5 4q1 2 3.5 4t5 3.5t4.5 3t2 3.5v0.5v0.5q-1 4 -3.5 8t-5.5 7.5t-5.5 7.5t-2.5 9q6 0 8.5 -3.5t4.5 -7
l4 -7t7 -3.5q3 0 5 1t2 4t-1 6t-2 6.5l-2 7t-1 7.5zM59 140v-4q2 -1 4.5 -3t5.5 -4t6.5 -3.5t5.5 -1.5q1 0 2.5 0.5l1.5 0.5l16 13q1 0 1 1v3q0 5 -0.5 6.5t-5.5 1.5q-3 0 -5.5 -2.5t-4 -5t-3 -4.5t-2.5 -2q-2 0 -4 2t-3.5 4.5t-3.5 5t-5 2.5q-5 0 -5.5 -3t-0.5 -7zM184 135
q0 2 0.5 4.5t1.5 4.5t2.5 4t4.5 2q2 0 3 -1t1 -3t-0.5 -4t-1.5 -3.5t-2 -3.5t-1 -4v-1l10 -20v-12q0 -2 -2 -2.5t-4.5 -1t-4.5 -1.5t-2 -4q0 -4 2.5 -4.5t6.5 -0.5q3 0 6 -0.5t3 -4.5q0 -1 -0.5 -2t-1.5 -1h-13v-19q0 -1 3 -1.5t6.5 -1t6 -1.5t2.5 -4q0 -2 -1 -2.5t-3 -0.5
h-4q-1 0 -3.5 0.5t-3.5 0.5l-1 -0.5t-2 -0.5v-4.5v-6.5v-6v-5t-1 -4t-4 -2h-2t-1 2v27q0 2 -1.5 2h-1.5q-4 0 -4.5 -2.5t-0.5 -6.5q0 -3 -1 -6t-5 -3q-2 0 -2.5 2t-0.5 3q0 10 1 20.5t2 20.5q2 2 3.5 2.5t3.5 1t4 2t2 3.5q0 4 -3 7.5l-6 7l-6 7t-3 8.5q5 0 8 -2.5t5 -5.5
t4 -5.5t5 -2.5t4 2.5t1 4.5q0 4 -1 7.5t-3 6.5t-3 6.5t-1 7.5zM73 94v0q1 0 2.5 0.5l1.5 0.5v20q0 2 -2.5 4t-5.5 3.5t-6 2t-5 0.5v-9.5t1 -10.5t4 -8t10 -3zM85 102v-7q1 -1 1.5 -1h1.5q5 0 7.5 1.5t4 4.5t2 6.5t0.5 7.5v5q0 3 -1 4l-0.5 1l-0.5 1h-0.5h-0.5
q-5 0 -7.5 -2.5t-4 -5.5t-2 -7t-0.5 -8zM89 37q4 0 6.5 2t2.5 6q0 5 -2.5 8t-5.5 6.5t-6.5 7t-5.5 7.5v1v3v2v2q0 3 -2.5 4.5t-6 2.5t-7 1h-5.5q0 -5 2.5 -14t7 -17.5t10.5 -15t12 -6.5zM126 66q0 -1 1.5 -2.5l2.5 -2.5q0 -1 0.5 -1.5l0.5 -0.5h1q2 0 4 2t4 3v6v2t-0.5 3.5
t-1 2.5t-2.5 1t-4 -1.5t-3 -3.5t-2 -4.5t-1 -3.5zM176 64q0 -3 0.5 -5t4.5 -2h1h2q0 1 1 4.5t1 4.5q0 2 -1.5 4t-3.5 2q-4 0 -4.5 -3t-0.5 -5z" />
</svg>
