<?xml version="1.0" standalone="no"?>
<!DOCTYPE svg PUBLIC "-//W3C//DTD SVG 1.1//EN" "http://www.w3.org/Graphics/SVG/1.1/DTD/svg11.dtd" >
<svg xmlns="http://www.w3.org/2000/svg" xmlns:xlink="http://www.w3.org/1999/xlink" version="1.1" viewBox="-10 0 266 256">
   <path fill="currentColor"
d="M182 219q0 3 1 8.5t2.5 10.5t4.5 9t7 4q2 0 2.5 -2t0.5 -4v-2q0 -1 -1 -2t-1.5 -2.5t-1.5 -2.5l-1 -1q-2 -5 -2 -9v-8q0 -8 2 -14.5t4.5 -13t4.5 -13t2 -13.5v-11q-7 -15 -22 -24h-8q-10 0 -16.5 4.5t-11 12t-6 16.5t-1.5 18v9.5t0.5 11t1.5 10.5l2 10h2q1 0 1.5 -0.5
l1.5 -1.5v-4.5v-5.5q0 -6 -1 -13t-1 -13v-6l1 -0.5l1 -0.5v-0.5t1 -0.5t4 3t5.5 7l5 8t2.5 7h1q3 0 4 -2.5t1 -4.5l-0.5 -1t-0.5 -2q-6 -7 -10.5 -14t-11.5 -13v-2v-1q0 -2 0.5 -4t1.5 -4t2.5 -3.5t2.5 -1.5q4 0 8 4t7.5 8.5t7.5 9t6 4.5q3 0 3 -4q0 -6 -3.5 -8.5t-7.5 -5.5
q-1 -2 -3.5 -4t-5 -4.5l-4 -4t-1.5 -2.5v-1l2.5 -0.5t4.5 -1.5h1q7 0 11.5 2.5t7.5 7t4.5 10t1.5 11.5q0 7 -2.5 13t-5.5 12.5t-5.5 12.5t-2.5 13zM57 236v6q7 0 11.5 -5.5t8 -12t6 -12t6.5 -5.5q3 0 5 2.5t4 6.5t3.5 8.5t3.5 8t4.5 6t4.5 2.5q3 0 4.5 -0.5t1.5 -3.5v-3
t-1 -2t-3.5 -4t-5.5 -6.5t-5.5 -6.5t-3.5 -4q-4 -8 -6.5 -16.5t-2.5 -17.5t2.5 -12t6 -4t8 -3t8.5 -8q1 -2 2 -6t1.5 -8.5t1 -8.5t0.5 -6l-0.5 -1t-0.5 -2.5t-0.5 -2.5t-0.5 -2v-1v-3v-2v-2q0 -9 -1 -15t-3.5 -9.5t-7.5 -5.5t-14 -3q-2 -1 -2 -3v-3q0 -6 3.5 -10t7 -7.5
t7 -7.5t3.5 -9q0 -6 -3.5 -7.5t-8.5 -2.5h-4.5t-7.5 -0.5t-7.5 -0.5t-4.5 -1q-5 -1 -8.5 -4.5t-8.5 -3.5q-4 0 -4 4q0 2 2 4t5 3.5t5 3.5t2 4v1q0 2 -2 3.5t-3.5 3t-3.5 2.5t-3 4q-3 7 -5 14t-3 16q1 2 4 2q1 0 2.5 -4.5t3.5 -10t4.5 -10.5t4.5 -7q3 -4 6.5 -7t5.5 -8h18
q1 0 2 2t1 3q0 2 -1.5 4.5t-4 4.5t-4.5 4.5t-3 3.5q0 1 -1.5 5l-3 8t-2.5 7l-1 3q-10 1 -16 4.5t-8.5 9t-3 13t-0.5 17.5v17q0 1 1 3t1.5 4.5t1.5 5t1 3.5q2 4 6.5 6l9 4t7.5 4t3 5v12q0 9 -2 16t-5.5 13.5t-9 12.5t-10.5 11zM53 208q0 3 1.5 4.5t3.5 1.5q3 0 5 -4.5t3 -9.5
t1 -10v-6q0 -2 -2 -4.5t-5 -2.5h-1l-0.5 1l-0.5 1q1 4 0 8t-2 7.5l-2 7t-1 6.5zM114 209q0 1 1 2t2 1h1q2 0 3 -1.5t1 -3.5v0v-1q-1 -2 -1.5 -5.5t-1.5 -8t-2 -8.5t-1 -5q-2 -4 -5 -4q-1 0 -2 0.5t-1 1.5q0 8 2.5 16t3.5 16zM70 151v-1q4 -4 8 -6.5t10 -4.5q1 0 3.5 1t5 2.5
t4 3.5t1.5 4t-3 3.5t-6.5 2l-7 1t-4.5 0.5t-3 -0.5t-3.5 -1.5l-3 -2t-1.5 -2zM61 125q0 -3 3.5 -6t7.5 -6.5t8.5 -5.5t7.5 -2h2t2 0.5l2 1l3 1.5q1 1 2.5 2t3.5 2.5t4 2.5t2 2q3 2 3.5 5.5t0.5 6.5v3t-0.5 4t-1 3.5t-2.5 1.5q-8 0 -12 -4t-6 -8.5t-2.5 -8.5t-1.5 -4l-1 1
l-1.5 1t-1.5 2q1 4 0 7.5t-3 6.5t-5.5 5t-7.5 2q-3 0 -4.5 -2t-1.5 -4v-5v-5zM130 114q0 2 1 4t3 3q2 0 7.5 -0.5t11.5 -1t11 -1t8 -0.5l1.5 -0.5t3 -0.5h2.5h2h3.5h5.5t5 0.5t3 0.5h1h1q2 -1 5 -1.5t3 -4.5t-4 -4q-9 0 -17.5 0.5t-17.5 0.5l-0.5 -2.5l-0.5 -2.5q0 -1 3 -3
l6 -4l6 -4t4 -2t2 1t2.5 2l3 2t2 1t1.5 1t2 1v0h1q1 0 2 -1.5l1 -1.5v-1q0 -2 -2 -5t-5.5 -5t-6.5 -4t-5 -2q-3 0 -4.5 2.5t-3 4.5t-3.5 4t-6 2v-22q0 -1 1.5 -1.5t3.5 -1l4 -1t2 -1.5q1 0 2 -1l2.5 -2.5l2.5 -2.5t1 -2h0.5h0.5h0.5h0.5q2 1 3.5 2.5l3 3t3.5 2.5t4 1
q3 0 3 -4v-1q-4 -5 -8.5 -9t-11.5 -4h-2l-12 13h-4v-23q0 -4 3.5 -6t8 -3.5t7.5 -3.5t3 -6q0 -3 -1.5 -3h-3.5h-5.5t-4.5 3q-6 4 -9.5 7.5t-5 7.5t-2 9.5t0.5 12.5l-1 1.5t-2 1.5q-2 0 -3.5 -2t-3.5 -4.5t-4 -4.5t-5 -2q-2 0 -5 3t-6 7t-5 7.5t-2 5.5q5 0 7.5 -2t4.5 -4.5
t3.5 -5t4.5 -2.5l0.5 0.5l0.5 0.5q1 0 1.5 1t1.5 2t1.5 2l0.5 1q1 1 3 2t3.5 1.5t3 1.5t1.5 2l2 25l-1 1l-1 1h-1v0l-15 -13h-4l-11 14v4q2 0 4 -1t3.5 -2.5t3 -2.5t3.5 -1q3 0 4 2t3.5 3t4.5 1t3 0.5t1.5 2t0.5 4.5q0 2 -1 4.5t-4 2.5h-24zM61 102q0 -3 0.5 -6.5t2.5 -6.5
q1 -1 3 -2t4 -2.5t3.5 -2.5t2.5 -1h23q3 0 4.5 1.5t2.5 3.5t2 4.5t3 3.5v14q-7 0 -11.5 -3.5t-7 -7.5t-4 -7.5t-2.5 -3.5h-1q-1 7 -3.5 11t-8.5 8q-1 1 -3 2t-3.5 1.5t-2.5 1l-1 0.5l-3 -3v-2v-3z" />
</svg>
