<?xml version="1.0" standalone="no"?>
<!DOCTYPE svg PUBLIC "-//W3C//DTD SVG 1.1//EN" "http://www.w3.org/Graphics/SVG/1.1/DTD/svg11.dtd" >
<svg xmlns="http://www.w3.org/2000/svg" xmlns:xlink="http://www.w3.org/1999/xlink" version="1.1" viewBox="-10 0 266 256">
   <path fill="currentColor"
d="M155 187q4 0 6 4.5t3.5 12t2 15.5t1.5 15t2.5 12t3.5 5h1q5 -4 5 -9v-1q-1 -1 -1.5 -2.5t-0.5 -2.5l-10 -54q-2 -3 -2 -6.5v-7t-1.5 -6.5t-5.5 -4q-1 -1 -4 -1.5t-6 -1.5t-5.5 -1.5t-3.5 -0.5q-3 -1 -2.5 -3.5l0.5 -2.5v-2v-2v-2t2 -1q1 0 4 -0.5t4 -0.5q5 0 11 0.5
t9 3.5q2 1 4.5 5t4.5 10t4 12.5t3.5 12.5t3 11t1.5 8q1 1 1 4v5t1 6t3 4q3 -2 4 -4.5t1 -5.5q0 -4 -1 -10t-2.5 -13t-4 -14.5t-5 -14.5t-5 -12t-4.5 -7q-4 -4 -8.5 -5.5t-9.5 -2.5t-10 -1.5t-9 -0.5l-2 -2v-11h40q3 0 5.5 4t4.5 10t4.5 12.5t4.5 12.5t3.5 9.5t3.5 3.5
t3.5 -2t1.5 -4q-1 -5 -3 -10l-4 -10l-4 -12t-5 -10.5t-7.5 -8t-11.5 -3.5q-2 0 -6.5 -0.5t-9.5 -0.5t-9 0.5t-6 0.5q-2 -2 -2.5 -4t-0.5 -4q0 -11 2 -22t2 -23q1 -1 4.5 -1.5t8 -0.5t8.5 -0.5t5 -0.5h3t4.5 -0.5t4.5 -0.5h3v-1v-1q0 -1 -0.5 -2t-1.5 -1h-35l-4 -4v-29l-6 -3
q-1 4 -1.5 9.5t-0.5 11.5v10v8q0 10 -2 19t-2 19q-1 11 -1.5 22.5t-0.5 23.5v4v4.5v5.5v3q1 7 5.5 9t10 2.5t9.5 2t4 7.5q0 5 -5 7t-12 2.5t-13.5 2t-9.5 5.5q-1 5 -1.5 9t-0.5 8v9v9v15q2 1 2 3.5v3.5h1v0q7 -2 7 -9q0 -8 -1 -15.5t-1 -15.5v-4.5v-4.5q1 -4 4.5 -6t7.5 -2
q3 0 3.5 0.5t0.5 3.5l5 46q1 6 5 8q2 -1 2 -5v-6q0 -11 -2.5 -21t-2.5 -20q0 -4 1.5 -6t5.5 -2zM51 143v10q0 2 0.5 7.5t1 12t1 12.5t0.5 8q1 5 3 8t4.5 4t6 1.5t7.5 0.5q15 0 22 -4t10 -11.5t2.5 -18t-0.5 -23.5v-17q-1 -2 -2 -2.5t-3 -0.5t-2.5 1.5t-0.5 4.5q0 4 0.5 6.5
l1.5 7.5q-2 3 -6 3.5t-7 0.5v0l-3 -1v-5q0 -13 4 -21t9 -13.5t9.5 -10.5t4.5 -12q0 -8 -4.5 -14.5t-8.5 -13.5v-10q0 -1 3.5 -1.5t7 -1.5t7 -2.5t3.5 -4.5t-3 -3q-5 0 -9 2t-7 2q-2 0 -3.5 -2t-2 -5t-1 -5.5t-0.5 -3.5q0 -6 4 -7.5t8 -1.5h9t4 -3q0 -2 -0.5 -3t-1.5 -2h-7
q-10 0 -19 0.5t-21 0.5q-7 2 -9.5 4t-3 4.5t-0.5 6.5t-3 10v12v9v7.5t0.5 7.5t1.5 10q0 1 1.5 3t2.5 3q1 0 4 0.5t6 0.5t6 0.5t4 0.5h2q2 0 3 -0.5l3 -1.5q-1 -4 -4 -4.5t-6.5 -1l-7 -1t-5.5 -3.5v-3t-0.5 -4.5t-0.5 -5v-3.5v-2q0 -3 2 -4.5t4.5 -2.5t5.5 -1h6h4t3 2
q1 0 3 5.5t5 12t5 12.5l2 6v1v0q0 1 -1 2t-1 2l-17 18q-1 4 -3 5.5t-2 5.5q-1 2 -1.5 5.5t-1 8t-1.5 8.5t-1 6l-1 1h-16v-21l-1.5 -1t-2.5 -2h-1h-1l-1.5 1.5l-1.5 1.5v10zM61 175q0 -5 1 -7t5 -4h5.5t7 -0.5t7 -0.5h4.5q0 -1 2 -1h2h2q2 0 2 1q1 0 1.5 2t0.5 3
q0 9 -0.5 14.5t-3 9t-7.5 4.5t-14 1q-5 0 -7.5 -2t-4.5 -5t-2.5 -7t-0.5 -8zM162 96q5 -1 8.5 -0.5l7 1t7 0.5h7.5q3 0 5 -0.5t2 -4.5v-1.5t-2 -1.5q-2 0 -6.5 0.5t-9.5 0t-10 -0.5t-9 -1q0 -1 -0.5 -2t-0.5 -2v0q0 -2 0.5 -4.5t2.5 -3.5q7 0 14 -0.5t12.5 -3t8.5 -7
t3 -13.5v-4v-3v-3.5t-0.5 -4.5t-0.5 -3.5v-1.5l-4 -2h-43q-1 0 -1.5 1.5t-0.5 2.5v1q6 0 13.5 -0.5t14 0.5t10.5 4.5t4 11.5q0 7 -3 11t-8.5 5t-11.5 1.5t-12 1.5q-4 2 -4.5 6t-0.5 8v7q1 2 4 3t4 2zM67 43v-3v-4q0 -9 4.5 -12.5t12.5 -3.5q3 0 4 2.5t1.5 6t0.5 6.5v5
t-2 3.5t-5 1.5h-6h-5h-3q-1 0 -2 -2z" />
</svg>
