<?xml version="1.0" standalone="no"?>
<!DOCTYPE svg PUBLIC "-//W3C//DTD SVG 1.1//EN" "http://www.w3.org/Graphics/SVG/1.1/DTD/svg11.dtd" >
<svg xmlns="http://www.w3.org/2000/svg" xmlns:xlink="http://www.w3.org/1999/xlink" version="1.1" viewBox="-10 0 266 256">
   <path fill="currentColor"
d="M105 247l0.5 0.5l0.5 0.5q1 1 2 1.5t2 0.5q3 -2 4.5 -6t1.5 -7v-4v-7v-6v-4q0 -2 0.5 -7.5t0.5 -12.5t0.5 -13t0.5 -7v-3v-4v-5v-4q0 -17 -2 -33.5t-3 -33.5q-2 -5 -5 -8.5t-6 -6.5t-5.5 -7t-2.5 -9q0 -3 4 -4t9.5 -1.5t9.5 -1.5t4 -4t-2 -3h-5t-6.5 1t-7.5 1q-1 0 -3 -1
t-2 -3v-16q0 -3 3 -3.5l6 -1t6 -1.5t3 -5v0q0 -1 -0.5 -2t-1.5 -2q-10 3 -21 4.5t-22 2.5q-1 1 -3.5 1.5t-4.5 1t-4 0.5h-2q-5 13 -5 27v28q0 7 3 10.5t7.5 5t10 2t10.5 0.5h10q1 0 2.5 -1.5l1.5 -1.5q0 -1 -1 -2t-1 -2q-8 1 -14 1.5t-10.5 -1.5t-7 -6.5t-2.5 -13.5
q0 -2 0.5 -3t1.5 -2q4 -1 11 -2.5t12 -1.5h2h1l3 16q0 3 2.5 4.5t5.5 3.5t5 4.5t3 7.5q2 20 2.5 40.5t0.5 40.5q0 13 -1.5 25.5t-1.5 25.5v3v5.5v4.5v4zM125 189q0 15 2.5 30t2.5 31h2h1q3 0 5 -3t2 -6q0 -13 -2.5 -25t-2.5 -25v-5t0.5 -6.5t1.5 -6t4 -2.5q4 0 4.5 1.5
t0.5 4.5q0 4 1 14t2 21t2 21t2 14h1h1q7 0 7 -7q0 -9 -1 -17t-2.5 -16.5t-3 -16.5t-1.5 -16q0 -4 1.5 -4.5t6.5 -0.5q1 0 3 6t4 14.5t4 19t4 19.5t4.5 15t4.5 6t2.5 -1.5t0.5 -3.5q0 -7 -1.5 -15t-4 -16l-5 -16t-3.5 -15q-1 -3 -1.5 -7.5l-1 -9t-1.5 -9t-2 -6.5
q-3 -4 -7.5 -5.5t-9 -2t-8 -2t-3.5 -7.5q0 -4 2.5 -7t5.5 -4t7.5 -1.5t8.5 -0.5q1 0 2.5 1.5t3 3.5t2.5 3.5t2 3.5q8 17 15 33.5t10 34.5h2h2q3 0 4 -1.5t1 -4.5t-2 -10t-5 -14.5t-6 -14t-5 -7.5l-14 -29l-2 -1.5t-3 -1.5q-1 -1 -2 -1.5l-1 -0.5h-26v-11q0 -1 0.5 -1.5
t1.5 -0.5q5 -2 10 -2h11h14q4 2 6.5 6t4.5 9.5t3 11.5t3 11t3.5 8t4.5 3t4 -1t1 -4q0 -5 -2.5 -13.5t-7.5 -17t-11 -15t-12 -6.5h-34l-0.5 -1.5t-0.5 -2.5v-1v-1q0 -4 0.5 -10l1 -12t1 -10l0.5 -4l1 -1l1.5 -0.5t3.5 -0.5t4.5 -0.5t3.5 -0.5q2 0 5.5 -0.5t8 -0.5t8.5 -0.5
t5 -0.5t1.5 -0.5l0.5 -0.5v-1v-1l-0.5 -0.5t-1.5 -0.5h-2h-3h-4h-2q-7 0 -13 0.5t-12 0.5h-2q-1 0 -2.5 -0.5l-1.5 -0.5v-26l-1.5 -0.5t-2.5 -1.5h-0.5h-0.5h-1q0 1 -1.5 2l-1.5 1v52l-1 7v63q0 5 2 7.5t5.5 3.5t8 1t7.5 1q4 4 4 8v1.5t-2 1.5h-3.5t-5.5 0.5t-5 0.5t-3 1
q-6 0 -8.5 3.5t-6.5 7.5l-0.5 1.5t-1.5 1.5v12zM52 141v12v12t1 13.5t4 10.5t11 4q11 0 16.5 -2t8 -6.5t2.5 -11.5v-17v-8t-0.5 -12.5t-1.5 -12t-3 -6.5h-2t-4.5 -0.5t-4.5 -0.5h-3q-3 0 -7 0.5t-7.5 1.5t-6.5 3.5t-3 7.5v12zM62 159q0 -2 1 -4t4 -2h19q1 0 1.5 0.5t0.5 1.5
q0 2 -0.5 2.5l-0.5 0.5v11q0 4 -1 7.5t-4 5.5t-10 2q-4 0 -6 -3t-3 -7t-1 -8v-7zM63 135q0 -8 4.5 -10t12.5 -2h1t2 0.5l2 1t1 1.5v17h-21l-1 -1t-1 -2v-5zM193 35v3v5.5t-1 5t-3 2.5l-25 3l-2 1.5t-3 1.5q-2 1 -2 2v16q0 2 2 3t4 1.5t4.5 0.5h3.5h2q2 0 5 -0.5t6.5 -0.5
t7 -0.5t4.5 -0.5t1.5 -1t0.5 -2l-0.5 -1.5t-1.5 -1.5h-29l-3 -2v-1v-2v-3t2 -3l30 -4q2 0 3.5 -2.5t2.5 -6t1.5 -7t0.5 -5.5q0 -4 -1 -8t-4 -8h-8h-9t-7.5 0.5t-8 0.5t-10.5 1q-1 0 -2 1t-1 2v1v1l0.5 0.5l0.5 0.5h34l5 2v2v3zM60 51v-15q0 -1 3 -2.5t7 -2t7.5 -1l3.5 -0.5
h2t1 2v17q0 2 -2.5 2.5t-5.5 1t-5 0.5h-4h-3h-2z" />
</svg>
