<?xml version="1.0" standalone="no"?>
<!DOCTYPE svg PUBLIC "-//W3C//DTD SVG 1.1//EN" "http://www.w3.org/Graphics/SVG/1.1/DTD/svg11.dtd" >
<svg xmlns="http://www.w3.org/2000/svg" xmlns:xlink="http://www.w3.org/1999/xlink" version="1.1" viewBox="-10 0 266 256">
   <path fill="currentColor"
d="M44 246q0 2 1 3.5t3 1.5q3 0 5 -2t2 -4q0 -13 -2.5 -26t-2.5 -26v-4t1 -4t2.5 -3.5t3.5 -1.5h1q0 1 1.5 2t1.5 2q0 2 0.5 8t1 13l1 14t1.5 13t2 10t3 4t3 -1t1 -3q0 -7 -1 -14.5t-2.5 -15t-2.5 -14.5t-1 -15v-3q0 -2 2 -4l1.5 -0.5t2.5 -0.5q4 0 5 2t2 7q2 14 4.5 29.5
t3.5 30.5h4q1 0 1.5 -3t0.5 -5v-2v-2q0 -1 -1 -3.5t-1 -3.5t-0.5 -5l-1 -8t-1 -7.5t-0.5 -4.5t-0.5 -2t-0.5 -2l-0.5 -3.5t-1 -7.5t-1 -7t-0.5 -4q-1 -2 -2 -6t-2.5 -9t-3.5 -8.5t-5 -4.5q-1 -1 -4.5 -2t-6.5 -2t-5 -2.5t-1 -5.5l1 -1.5t2 -1.5h22q2 0 4.5 5t5 12.5t5 16.5
t4.5 17.5t3.5 14.5t2.5 8h1q1 0 2 -1.5t1.5 -3.5t0.5 -4v-3v-4q0 -1 -1 -2.5t-2 -3.5t-1.5 -3.5l-0.5 -1.5q-2 -7 -3.5 -14t-4 -14t-5.5 -13t-9 -11q-3 -2 -7.5 -2.5t-9.5 -1t-8 -2t-3 -5.5t2.5 -6t4.5 -2h24l3 3q3 3 4.5 8.5t4 11t5.5 9.5t7 4q0 -3 -2 -9.5t-5 -13.5
t-6.5 -12.5t-7.5 -6.5q-7 -2 -15 -2h-16l-2 -1v-24q2 -2 2 -3.5v-3.5v-3q0 -1 -0.5 -5.5t-1.5 -5.5q3 -4 6.5 -5.5t7.5 -2t8.5 -0.5h7.5q1 0 1.5 -0.5t0.5 -1.5v0v-1q-1 0 -2 -1l-1 -1h-25v-25q0 -1 -1.5 -2t-2.5 -1v-0.5v-0.5q-2 0 -4 1.5t-2 3.5l-2 48t-1 48v8v7.5t0.5 8
t1.5 10.5q2 3 6 3.5t8.5 1.5t7.5 4t3 10v3l-14 3.5t-10 4t-6 7.5t-2 14v13q0 5 0.5 10.5t0.5 11.5t1 14zM180 171q1 20 1.5 40t0.5 40q4 0 6 -0.5t3 -4.5v-4v-6v-6v-4q0 -13 -1 -26t-1 -26v-3.5t2 -2.5q1 0 3.5 -0.5t5 -0.5t5 -0.5t3.5 -0.5q2 0 3.5 -1.5t1.5 -3.5v-1v0
q0 -1 -1 -1.5l-1 -0.5h-23v-14q0 -1 0.5 -1.5l0.5 -0.5q6 -2 9.5 -4.5t5.5 -9.5q1 -12 1 -23v-1.5t-0.5 -3t-1.5 -2.5t-3 0l-1.5 1t-1.5 2v24l-1.5 2.5t-2.5 3.5h-1h-1h-2t-1 -2v-41q0 -1 2.5 -2.5t5.5 -3.5t5.5 -5t2.5 -7q0 -2 -1 -4t-1 -5q0 -4 2 -5.5t5 -2t5 -1.5t2 -4
q0 -2 -1 -3.5t-3 -1.5h-1l-2 0.5t-4 1.5t-4 1.5l-2 0.5h-3.5t-7.5 0.5t-8.5 0.5h-7.5h-2h-2h-2.5t-3.5 -0.5t-3.5 -0.5h-1.5v-6.5v-6t-1.5 -5t-5.5 -3.5h-2.5h-4.5h-5h-2q-5 0 -11.5 -0.5t-11.5 1.5q0 1 -0.5 1.5l-0.5 0.5q0 2 2.5 3t5 1t5 -0.5l2.5 -0.5l1 2v18l-1 3
q-8 -1 -12 1.5t-4 10.5v48q0 7 2 11.5t5 7t8 4t12 1.5q1 2 1.5 3.5t0.5 3.5q0 3 -2 7.5t-4.5 9.5l-5 10t-3.5 9q-3 12 -4 25t-1 26v5q0 3 1 5t3 3.5t6 1.5v-22q0 -10 0.5 -20t2 -19.5t5.5 -20.5q0 -2 2 -4.5t4 -5.5t3.5 -5.5t1.5 -4.5q1 -6 -1 -8.5t-5.5 -3.5t-8 -1.5
t-8 -2.5t-6 -6.5t-2.5 -13.5v-2q0 -3 -0.5 -6.5t-0.5 -6.5v-6v-4t0.5 -6.5t0.5 -6.5v-5q-1 -2 0.5 -3t3 -1h3.5h3q2 -1 5 -1t6.5 -0.5t6.5 -1t4 -1.5q2 -1 3 -2t2 -1.5t2.5 -0.5h3.5t5 1t3 5v17q0 3 1.5 4t3.5 2t3.5 2t2.5 2q0 2 0.5 8t0.5 12t0.5 12t0.5 8v3v2t-2 3h-1.5
h-2.5h-2h-2.5t-2.5 -1t-1 -2v-31q0 -2 -2 -3t-3 -1v35q0 5 2.5 6.5t6 2.5t6 3.5t2.5 8.5v3.5t-2 2.5h-7t-10 1t-8.5 3t-3.5 7q6 0 12.5 -1.5t13.5 -1.5q1 0 2.5 1t2.5 2zM130 112q1 3 4 4t6 1q1 0 3 -0.5t4.5 -1t4 -2t1.5 -3.5v-38q0 -3 -3 -3h-0.5h-0.5l-3 16q-1 0 -2 1
l-1 1q-1 0 -3.5 -1t-3.5 -1v-3t-0.5 -4t-1.5 -4t-3 -2q-3 0 -3 2v4q0 8 1 17.5t1 16.5zM145 93h1l0.5 0.5l0.5 0.5v13q0 1 -0.5 1.5l-0.5 0.5q-2 0 -5.5 0.5t-4.5 0.5v-16l3 -0.5t5 -0.5h1zM64 71q0 5 2 9.5t8 4.5h21q3 0 3.5 -1t0.5 -2v-2.5t-2 -1.5h-20q-2 0 -4.5 -2
t-2.5 -3q0 -7 5.5 -9t12 -3t12 -2.5t5.5 -5.5v-24l-2 -2l-2 -0.5t-4.5 -1l-5 -1t-3.5 -0.5h-4h-5h-4h-5t-2.5 1t-0.5 2t0.5 2.5t1.5 1.5h23q1 0 2 0.5l1 0.5l1.5 1.5l0.5 0.5v16q0 2 -2.5 3t-6 1.5t-8 1t-8 2t-6 5t-2.5 8.5zM185 55h6t3 4v4.5t-0.5 5.5t-1.5 5.5t-3 3.5
q0 1 -2 1h-3h-3t-3 -1l-1.5 -0.5l-1.5 -0.5v-18q0 -2 1 -3t2.5 -1h3.5h3zM134 47q0 -2 0.5 -4.5t1.5 -5t3 -4t5 -1.5q1 0 2.5 0.5t2.5 2.5v6q0 4 -1 8t-6 4q-2 0 -5 -1t-3 -5zM202 26h-9t-12 1t-10.5 3t-4.5 6q3 0 10 -0.5l14 -1t12.5 -1.5t5.5 -3q0 -3 -2 -3.5t-4 -0.5z
" />
</svg>
