<?xml version="1.0" standalone="no"?>
<!DOCTYPE svg PUBLIC "-//W3C//DTD SVG 1.1//EN" "http://www.w3.org/Graphics/SVG/1.1/DTD/svg11.dtd" >
<svg xmlns="http://www.w3.org/2000/svg" xmlns:xlink="http://www.w3.org/1999/xlink" version="1.1" viewBox="-10 0 266 256">
   <path fill="currentColor"
d="M145 199h2t1 2q3 5 4.5 11.5t1.5 13.5t-0.5 13.5t-0.5 11.5q5 0 6.5 -3t1.5 -8t-0.5 -10.5t-0.5 -10.5v-7q1 0 1.5 -0.5t1.5 -0.5h1v0q1 0 2.5 0.5t3.5 1.5t3.5 2t2.5 1h0.5h0.5q1 1 2.5 3t3.5 3.5t3.5 2.5t2.5 1q3 0 4.5 -2t1.5 -4q0 -4 -4 -6.5t-9 -4.5t-11 -4
t-11.5 -4.5t-9 -5.5t-3.5 -7q0 -3 1.5 -4.5t5.5 -1.5q2 0 3 1.5t1.5 3.5l1 4t0.5 3h1q4 0 4.5 -4t0.5 -6q0 -3 -1.5 -4.5t-3.5 -2.5t-4 -1h-5q-5 0 -11 -0.5t-11.5 0.5t-9.5 4t-4 10q0 2 0.5 3.5t3.5 2.5q2 -1 3 -3.5t2.5 -4.5t3.5 -3.5t5 -1.5q2 0 2.5 2.5t0.5 4.5
q0 3 -3.5 5.5t-8.5 5t-11.5 4.5t-11.5 4.5t-9 5.5t-4 6q0 2 1 2.5t3 0.5q4 0 8 -2.5t8 -5.5t7.5 -5.5t5.5 -2.5h1q1 0 1.5 1.5t0.5 3.5v3v2q0 7 -1 13t-1 13v3.5t3 1.5t5 -2.5t2 -5.5v-32q0 -5 3.5 -7.5t8.5 -2.5zM62 237q0 2 1 5t4 3q2 0 4 -1.5t2 -4.5v-41q2 -3 2 -4.5
v-4.5t0.5 -10t1 -15.5t1 -16t0.5 -9.5q1 -3 1.5 -7.5t1 -10t1 -11.5t1.5 -11t3 -8.5t5 -5.5h1.5h3t2.5 -0.5t2 -0.5l2.5 -1.5l2.5 -1.5h1q2 0 4.5 1t2.5 4q0 2 -2.5 3t-6 3t-6 4t-2.5 7q0 6 4 8t9 2.5t9.5 0.5t4.5 2v7l-2 0.5t-3 0.5q-5 2 -8.5 2.5t-9.5 0.5q-2 1 -3 3t-2 3
v3.5t-0.5 5.5t-0.5 5.5v3.5v3v1.5t1 1.5h39l1 1l2 2v1q0 3 -3 4t-7 1h-9.5t-10 0.5t-8 1.5t-4.5 5q0 1 -0.5 3t-1 5t-1 5.5t-0.5 3.5v2q0 2 0.5 3.5t3.5 1.5t4.5 -2.5t2 -6t0.5 -6.5v-5q1 -2 4.5 -3t7 -1.5t6.5 -0.5h6h3t7 -0.5t8 -0.5h7h5q4 0 8 0.5t7 0.5h5q3 1 4.5 3.5
t2 5.5t0 6.5t-0.5 5.5q0 1 1 1.5t2 1.5v0q3 0 4.5 -1t2 -2.5t0.5 -4.5v-4q0 -1 -0.5 -4.5t-1.5 -6.5t-3 -5.5t-5 -2.5h-35l-1 -1.5l-1 -1.5q0 -1 -0.5 -1h-0.5l0.5 -0.5l0.5 -0.5l0.5 -1t0.5 -2q1 0 2.5 -0.5t3.5 -0.5h3.5h1.5q2 0 6.5 -0.5t8.5 -0.5q5 0 9.5 0.5t6.5 0.5
l0.5 -0.5t0.5 -1.5l-0.5 -1t-1 -1.5t-1 -1.5l-0.5 -1h-23l-0.5 -0.5t-0.5 -1.5v-3.5v-3.5l-1 -1.5t-2.5 -3.5t-2.5 -3.5l-1 -1.5l-0.5 -1t-0.5 -2q0 -4 2.5 -5.5t5.5 -1.5h3q2 2 5 6t5.5 7.5t5.5 6.5t6 3t5.5 -2t2.5 -5t-3 -4.5l-6 -3t-5.5 -3.5t-2.5 -5q0 -2 2 -3.5
t4.5 -3.5l5 -4t2.5 -6q0 -6 -3 -9t-7 -4.5t-9 -1.5t-9 -0.5t-7 -1.5t-3 -3q0 -1 0.5 -1.5l0.5 -0.5l2.5 -0.5l2.5 -0.5q1 0 4 -0.5t6.5 -0.5t6 -0.5t4.5 -0.5q4 -1 5.5 -5t1.5 -8t-1 -7t-5 -4q-1 0 -3.5 -0.5t-5.5 -0.5h-6h-4q0 -1 -2 -0.5l-2 0.5q0 -1 -1 -3.5l-1 -2.5
q1 -3 5.5 -3t9.5 -1.5t9 -5.5t4 -13q0 -2 -1.5 -4t-4.5 -2q-2 0 -4 3t-4.5 6.5t-7 6.5t-12.5 3h-4t-4 -1t-3 -2.5t-1 -3.5q0 -3 0.5 -5t0.5 -4t-1 -4.5t-2.5 -4.5t-3.5 -4t-4 -2v31l-0.5 0.5t-1.5 0.5l-1.5 0.5t-2.5 0.5h-1v0q-2 0 -5 -0.5t-6.5 -1.5t-6 -1.5l-2.5 -0.5
l-3 -1q-3 -2 -3.5 -4.5t-1 -4.5t-2 -4t-4.5 -2q-1 0 -3 0.5t-1 4.5q2 7 4.5 11t6 6t6.5 2.5l6 1t4.5 2t1.5 4.5q0 1 -0.5 2l-0.5 1h-3.5t-5.5 0.5t-5.5 0.5h-3.5h-14q-2 1 -3 2t-1 2q0 3 2 4t4 1q7 0 14.5 -0.5t14.5 -0.5q0 2 0.5 3t0.5 2t-0.5 2.5t-1.5 3.5q-2 0 -7 1
l-10 2t-9 2.5t-5 3.5q-2 2 -2.5 5t-3.5 4l-10 120q0 6 -1 12.5t-1 13.5zM125 134v-2l4.5 -4.5t5 -5.5t4 -6t1.5 -6v-1.5t-2 -1.5q-1 0 -3 0.5t-4 0.5t-4 -0.5t-3 -0.5h-2h-4t-3.5 -0.5l-1.5 -0.5h-3h-2.5t-2.5 -1t-1 -3q0 -5 4.5 -7t9.5 -2q6 0 11.5 1.5t10.5 1.5t9 -2.5
t9 -2.5h7t7.5 1t6.5 2.5t3 4.5q0 5 -2.5 7t-6.5 2.5t-8 1.5t-8 2.5t-6.5 4.5t-2.5 9q0 3 1.5 5.5t2.5 5t2.5 4.5t1.5 5q0 2 -2.5 3t-6 1h-6.5h-4q-6 0 -9 -5t-3 -11zM102 142q0 -5 2 -8t7 -3t7.5 4t2.5 9v2.5t-1 2.5h-7q-5 0 -8 -0.5t-3 -6.5zM124 84q0 -2 2.5 -3t5.5 -1.5
t5.5 -0.5h3.5q3 0 4.5 0.5t1.5 3.5q0 2 -1.5 3.5t-3.5 2t-5 0.5h-4t-5.5 -0.5t-3.5 -4.5zM120 67v-3.5t3 -1.5q1 -1 3.5 -1t5 -1t5 -1t3.5 -1h1q4 0 6.5 1.5t2.5 4.5q0 2 -0.5 4t-2.5 4q-6 1 -9.5 1h-8.5h-6q-3 -1 -3 -2.5v-3.5zM157 68q0 -3 0.5 -4.5t2.5 -3t4 -2t5 -0.5h5
q2 1 2.5 4t0.5 5q0 1 -2 2t-4.5 1.5l-5 1t-3.5 0.5t-2.5 -0.5t-2.5 -3.5zM121 48q1 -2 3 -2.5t4.5 -1t5 -0.5h4.5q3 0 7 0.5t4 5.5q0 1 -0.5 2t-2.5 1h-23q-1 0 -1.5 -1.5t-0.5 -3.5z" />
</svg>
