<?xml version="1.0" standalone="no"?>
<!DOCTYPE svg PUBLIC "-//W3C//DTD SVG 1.1//EN" "http://www.w3.org/Graphics/SVG/1.1/DTD/svg11.dtd" >
<svg xmlns="http://www.w3.org/2000/svg" xmlns:xlink="http://www.w3.org/1999/xlink" version="1.1" viewBox="-10 0 266 256">
   <path fill="currentColor"
d="M179 164q-1 15 0.5 29t2.5 30v6v7.5t0.5 7.5t2.5 7h0.5h0.5q1 0 2.5 -2t3 -5t2 -5.5t0.5 -3.5q0 -15 -2.5 -29t-2.5 -29q0 -6 3 -8t6 -2.5t5.5 -0.5t2.5 -3q0 -4 -3 -4.5t-6 -0.5t-6 -1t-3 -5v-3.5t1 -2.5h14q1 0 1 -2v-2q0 -4 -2.5 -3.5t-5.5 0.5t-5.5 -2t-2.5 -10
q0 -5 2.5 -6t5.5 -0.5t5.5 0.5t2.5 -4q0 -3 -5 -5l-12.5 -5t-14 -6.5t-9.5 -8.5v-16v-1.5t-0.5 -3t-1 -2.5t-2.5 -1t-2.5 2t-0.5 4v4t-2 2v16q0 1 -0.5 1.5l-0.5 0.5l-7.5 5l-9 6t-9 5.5t-7.5 2.5q-1 0 -2 -1t-1 -2.5v-3t-1 -2.5q-2 -3 -4.5 -4.5t-5 -3.5t-4.5 -4t-2 -6
t3 -5.5t6.5 -2.5t6.5 -2.5t3 -6.5q0 -9 -3 -12.5t-6.5 -4.5t-6.5 -1.5t-3 -4.5t2.5 -5t5.5 -2t5.5 -4.5t2.5 -12.5q0 -3 -1.5 -4.5t-3.5 -1.5q-3 0 -4 2.5t-2 5.5t-2 5.5t-5 2.5h-3.5t-3.5 -1q1 -6 0.5 -11.5t-1.5 -10.5q-1 -2 -3 -2.5t-3 -0.5t-2.5 0.5l-1.5 0.5v27
q0 1 -1.5 1h-2.5q-5 0 -6.5 -2.5t-2 -6t-1.5 -6.5t-5 -3q-5 0 -5 5q0 7 2 10t4.5 4.5t4.5 3.5t2 6v3t-1 2h-12q-1 0 -2 1.5l-1 1.5q-1 2 1.5 3.5t3.5 1.5q2 0 3.5 -1t3.5 -1q3 0 4 1.5t1.5 3t0.5 3.5v4q0 4 -2 5.5t-5 3.5t-5.5 4t-4.5 8q-3 34 -3.5 68.5t-0.5 69.5v7
q0 1 1 1h3q3 0 4 -2t2 -5v-12.5v-18.5v-22v-23v-18.5v-12.5v-5.5t0.5 -8t0.5 -8.5t1 -6q0 -3 1.5 -7t5.5 -4q2 0 2.5 2t0.5 4t-1 5l-2 6t-2.5 5.5t-1.5 4.5q1 5 3.5 6.5t6 2.5t5.5 3t2 6q0 6 -2.5 9t-5.5 6.5t-5.5 8t-2.5 12.5q0 3 0.5 9.5t1 13.5t1.5 12.5t3 6.5l3 16l1 1
l2 2h1q2 0 3.5 -1.5t1.5 -3.5t-1 -5.5t-2.5 -6.5t-2.5 -5.5t-2 -4.5q0 -1 -0.5 -5t-1.5 -9t-1.5 -9.5t-0.5 -7.5v-2v-5t1 -4q1 0 1.5 -0.5l0.5 -0.5q2 0 3 2.5t2 6t1 7v4.5l9 32l0.5 0.5t0.5 1.5h1q3 0 3 -2.5v-4.5q0 -4 -1.5 -7.5t-2.5 -7.5q-2 -9 -4.5 -18.5t-2.5 -18.5
v-4t1 -2t1.5 -2.5t1.5 -3.5l0.5 -1.5t0.5 -3.5t0.5 -3.5l0.5 -1.5q0 -2 1.5 -2.5l3 -1l3 -1t1.5 -2.5q0 -1 -1 -2.5t-3 -2.5h-7t-7.5 -1t-5.5 -3t-2 -7q0 -2 1.5 -6t4.5 -4h18q2 0 4.5 2.5t5 5.5t4 6t1.5 5q0 5 -3 10t-5.5 9.5t-5.5 9.5t-3 11q0 18 3.5 36t4.5 36q0 2 1 2h2
q3 0 4.5 -1t1.5 -4q0 -7 -2 -14l-4 -14l-4 -14t-2 -14v-1q0 -2 0.5 -6t0.5 -7v-3l2 -2l1 2l0.5 1.5t1 3.5l1 4t0.5 4q2 11 4.5 21.5t6.5 21.5v0h1q2 0 2.5 -2t0.5 -4q0 -4 -1 -8t-2.5 -8t-3 -7.5t-1.5 -6.5t0.5 -3.5t2.5 -0.5q7 0 10.5 1t4.5 4t0.5 7t-0.5 10q0 11 -0.5 21
t-0.5 21q0 4 3 4q2 0 3 -0.5t3 -2.5q0 -6 0.5 -9t0.5 -8q0 -7 -0.5 -14.5t-0.5 -15.5v-18q1 -2 3 -3t4 -1.5t4 -1.5t3 -3q1 -7 1.5 -12t0.5 -12v-3v-4.5t-1 -4t-3 -1.5h-1t-1 1v2t-0.5 4l-1 4t-0.5 3t-1 2.5t-2 1.5q-3 0 -5 -2.5t-2.5 -6.5l-1 -8t-0.5 -6q0 -1 2.5 -3l5 -4
t5 -3.5l2.5 -1.5q2 -1 5.5 -2.5t5.5 -2.5q1 1 3.5 2.5l5 3l5 3t3.5 2.5q3 1 3 2v3v1v1q0 1 -0.5 4l-1 6t-1 5.5t-0.5 3.5t-1 1.5t-2 0.5q-2 0 -2.5 -2.5t-1 -6t-1 -6t-3.5 -2.5q-1 0 -1 1l-0.5 1l-0.5 1v10v8.5t1.5 8t4 6t7.5 4.5zM110 147q0 -3 1 -7t3 -8t5 -6.5t6 -2.5
q5 0 6 2t1 7v4.5t-1 5.5h-2h-4t-3.5 1t-2.5 2v0.5v0.5v0v1l1 1h13q0 7 -1 10t-2.5 4.5t-5 2t-8.5 2.5q-5 -4 -5.5 -9.5t-0.5 -10.5zM139 153q0 -3 1 -4t4 -1q2 0 3 0.5t1 2.5t-1 4.5t-4 2.5q-2 0 -3 -1t-1 -4zM175 150v-1.5v-1.5q3 1 4 2.5t1 6.5q-4 0 -4.5 -1.5t-0.5 -4.5z
M143 79q-2 0 -3 1.5t-1.5 3.5t-0.5 4t-1 3q-2 1 -4 1.5t-4 1.5t-3.5 2t-1.5 4q4 0 7.5 -1t7 -2.5t5 -4t1.5 -7.5v-3.5t-2 -2.5zM175 84q0 7 4 10.5t11 3.5h3h2q1 0 2 -1t1 -2q1 -3 -1.5 -4t-6 -1t-6.5 -1t-3 -3v-10h14q1 0 2 -1t1 -2v-1v0q0 -1 -1 -2l-2 -2l-22 -10
q0 -1 -1.5 -1.5t-3 -1.5t-2.5 -2t-1 -2v-37q0 -2 -3 -1.5l-3 0.5h-3.5t-1.5 2q0 5 1 9t1 9q0 4 -0.5 7.5t-1.5 9.5l-1 1t-2 1q0 1 -3.5 4t-8 6t-7.5 6l-4 4q-2 1 -2 1.5v3.5q5 0 9 -3t7.5 -6.5t7.5 -6.5t8 -3q3 0 5.5 1.5t5 3.5t4.5 4.5t3 4.5v1v1q0 3 -0.5 5t-0.5 5zM79 89
q0 -3 3 -4.5t5 -1.5q3 0 3.5 1t0.5 3q0 4 -2 5.5t-6 1.5q-1 0 -2.5 -1.5t-1.5 -3.5zM78 71q0 -5 3.5 -7.5t8.5 -2.5q3 0 3.5 3.5t0.5 4.5q0 6 -2 7t-8 1h-5q-2 0 -1.5 -2.5t0.5 -3.5zM101 68q0 -2 0.5 -3.5t2.5 -1.5q3 0 4 1.5t1 3.5q0 3 -1 5t-4 2q-2 0 -2.5 -2t-0.5 -5z
M140 26q-2 0 -3 2t-1 4q0 3 0.5 5.5t0.5 3.5q-1 3 -3 4.5t-3.5 3l-3 3t-1.5 5.5q1 0 4 -1.5t6 -3.5t5.5 -4t2.5 -3v-16q0 -2 -1 -2.5t-3 -0.5zM76 52q0 -5 3.5 -6t7.5 -1h4.5t2.5 3q0 5 -2 6t-6 1h-3h-2.5t-3 -1t-1.5 -2zM182 24h-1h-2t-2 0.5t-1 1.5v16q0 3 2 5t4.5 3.5
t5.5 2t5 0.5t3 -0.5t1 -2.5v-2q-1 0 -2 -0.5t-2.5 -1.5t-3 -1.5l-1.5 -0.5q0 -1 -0.5 -1.5l-0.5 -0.5v-15l-2 -3h-3z" />
</svg>
