<?xml version="1.0" standalone="no"?>
<!DOCTYPE svg PUBLIC "-//W3C//DTD SVG 1.1//EN" "http://www.w3.org/Graphics/SVG/1.1/DTD/svg11.dtd" >
<svg xmlns="http://www.w3.org/2000/svg" xmlns:xlink="http://www.w3.org/1999/xlink" version="1.1" viewBox="-10 0 266 256">
   <path fill="currentColor"
d="M56 247q1 4 5 4t6 -7t2.5 -17.5t0 -23t0 -24t2 -20t5.5 -11.5q6 -1 10.5 -2t9.5 -1h4q1 0 1.5 0.5t0.5 1.5l-2 21q0 2 -1.5 2.5t-3.5 0.5q-3 0 -4.5 -2.5t-2 -5.5l-1 -6t-0.5 -4h-0.5h-0.5q-4 0 -4.5 3.5t-0.5 6.5q0 5 2.5 8t6 5t6 3l2.5 1v63q0 3 1.5 4.5t4.5 1.5h1
l1 -0.5t1 -1.5v-63q0 -2 3 -3t6.5 -2.5t6.5 -4.5t3 -9v-4v-4t-1 -3t-3 -1t-3.5 2.5t-2 5t-1.5 5.5t-3 5l-4 -3l-1 -21q0 -2 1.5 -3t4 -2t4.5 -1.5t3 -0.5h7t10.5 -0.5t10.5 -0.5h7q1 0 4 0.5t3 2.5v1q0 1 -1 3.5t-1 3.5v1v2l0.5 1.5t0.5 3.5t0.5 3t0.5 2v1q0 2 -1 4.5
t-4 2.5q-5 0 -6.5 -3t-2.5 -7t-2.5 -7t-5.5 -3v3t0.5 4.5t0.5 4.5v3l0.5 2t1.5 4t2 3.5t2 1.5h13q1 0 1.5 3.5t1 8.5t0.5 10v7v4v6v6v3t0.5 3.5t0.5 5.5t0.5 5.5t0.5 3.5t1 1h2q3 0 5 -3t2 -6v0q-1 -3 -1.5 -11t-1.5 -16.5t-1.5 -16.5t-0.5 -11q1 -2 5 -3t7.5 -2t6.5 -2.5
t3 -6.5v-3v-3.5t-0.5 -3.5t-0.5 -3q-1 0 -2.5 -0.5l-1.5 -0.5q-4 0 -5 2.5t-1 5.5t-1 5.5t-5 2.5h-4q-2 -8 -2.5 -12t-0.5 -10v-3v-3q1 0 3 -0.5l2 -0.5q1 0 4.5 -0.5t6.5 -0.5q4 0 7.5 0.5t4.5 0.5q1 -1 1 -2v-2q0 -4 -3 -5t-6 -1q-8 0 -15.5 1t-15.5 1h-4h-5h-6h-3
q-2 -2 -3 -5t-2 -5h-4q-5 0 -5.5 1.5t-0.5 3.5t-1.5 3.5t-8.5 1.5q0 -6 1.5 -12.5t3 -12.5t3 -12.5t1.5 -13.5v-3q0 -2 -0.5 -4t-1.5 -3.5t-3 -1.5l-24 -3q-2 0 -3.5 -3t-2.5 -6.5t-1.5 -6.5t-0.5 -5q3 -2 8.5 -6t11.5 -8t12 -7t10 -3h0.5h0.5q1 1 4 1.5t6.5 1.5t6.5 2t4 2
q1 0 2 0.5t2 0.5l2 0.5l4 1l4 1t3 0.5q1 1 4.5 2.5t7.5 3.5t7.5 4t5.5 3q3 2 4 2.5t1.5 1l1 1t2.5 0.5q6 0 6 -5q0 -2 -3.5 -5t-9.5 -5.5t-12.5 -5t-13 -4.5t-11.5 -3.5t-7 -1.5q-6 -3 -11 -5t-11 -2q-7 0 -14 4t-12 7q-2 1 -7 4t-11 6.5t-13 7.5t-12.5 7.5t-9.5 6l-4 2.5
v3.5v3.5q5 0 9 -2t7.5 -4.5l7 -5t7.5 -5.5h1v0q1 0 1.5 1l0.5 1q1 6 2 10.5t3 8t5.5 5.5t10.5 2q2 0 4.5 -1t4.5 -1q4 0 5 3t1 6q0 2 -1 6t-2 10t-2.5 12.5t-3 12t-3 9l-1.5 3.5l-29 5q-2 1 -4 3t-4 4.5t-3.5 5.5t-1.5 5q-1 3 -1.5 12.5t-1.5 19.5t-1.5 19t-0.5 13v1.5v3.5
v5v3v2v4v4v2zM116 235v1.5t1 2.5t2 1.5t2 0.5q2 -1 4 -2.5t2 -4.5v-2q0 -2 -0.5 -5t-0.5 -7.5t-0.5 -8t-0.5 -4.5v-4.5t-0.5 -6.5t-2 -5.5t-4.5 -2.5h-1h-1q-1 1 -1.5 4t-0.5 4v2.5t0.5 3t1 2.5t0.5 2v5.5v8.5v9v6zM185 196v10t1 13.5t3 12t6 5.5q3 0 4 -1t1 -4t-0.5 -10
t-2 -14.5t-3 -13.5t-4.5 -6t-4 2.5t-1 5.5zM78 230q0 1 1.5 3t3.5 2v0v0l3 -3l2 -2l4 -32l-2 -8h-1h-1h-3t-2 1v31q-2 1 -3.5 3.5t-1.5 4.5zM142 230q0 1 1 3t3 2v0v0l2 -2t2.5 -2t2 -2.5l0.5 -1.5v-32q0 -1 -1.5 -2.5t-3.5 -2.5l-1.5 0.5l-1.5 0.5v5q0 3 0.5 5t0.5 5
q0 6 -2 11.5t-2 12.5zM57 129q0 3 4 3t5.5 -2t3 -5t3.5 -5.5t5 -3.5h3.5h5.5h5.5h3.5q2 0 3 -1l2 -2q-6 -3 -11.5 -3.5t-12.5 0.5q-1 0 -2 -1.5l-1 -1.5l0.5 -1.5l0.5 -1.5q1 -1 1.5 -2l0.5 -1h26l0.5 -1l0.5 -1v-1v-1l-0.5 -1l-0.5 -1h-25l-1 -2t1 -2l25 -4l1 -1t0 -2
q0 -2 -1.5 -2.5t-2.5 -0.5q-5 0 -8.5 1t-8.5 1q-3 0 -4 -1t-2 -2.5t-2 -2.5t-3 -1t-3 4t-2 9.5t-1.5 10.5t-1.5 7l-1 3.5t-2.5 6.5t-2 6.5t-1.5 4.5v1zM142 89q0 2 0.5 7t2.5 10.5t4.5 9.5t6.5 4q1 0 2.5 -1.5t1.5 -3.5t-1.5 -5t-3.5 -6.5t-3.5 -8t-1.5 -8.5q0 -6 2.5 -12
t2.5 -12q0 -1 -0.5 -3t-2.5 -2q-1 0 -2 0.5t-1.5 2t-1.5 4t-2 6t-2 6.5t-1 4v3v5zM166 86q0 5 1.5 11.5t5 11.5t8 8.5t11.5 3.5q0 -5 -3 -8.5t-6.5 -6.5t-6 -7.5t-2.5 -11.5v-6t0.5 -5.5t1.5 -6t3 -7.5q-1 -1 -2 -1.5t-3 -0.5t-3 0.5t-2 3.5q-2 7 -2.5 11t-0.5 11zM101 44
q0 1 0.5 2t1.5 1h2q2 0 4 0.5t3 0.5h3q6 0 10 -0.5t8 -0.5t9 -1t11 -2l0.5 -1t1.5 -2v-1v0q-1 -1 -2 -1.5t-2 -0.5h-11q-3 0 -9 -0.5t-13 0t-12 2t-5 4.5z" />
</svg>
