<?xml version="1.0" standalone="no"?>
<!DOCTYPE svg PUBLIC "-//W3C//DTD SVG 1.1//EN" "http://www.w3.org/Graphics/SVG/1.1/DTD/svg11.dtd" >
<svg xmlns="http://www.w3.org/2000/svg" xmlns:xlink="http://www.w3.org/1999/xlink" version="1.1" viewBox="-10 0 266 256">
   <path fill="currentColor"
d="M50 248q0 3 1.5 3.5t3.5 0.5q3 0 6 -4t6.5 -11t6.5 -15.5t6 -16.5t5.5 -14.5t4.5 -9.5q2 1 4 6.5t4 12.5t4 15t4.5 14.5t5.5 11t7 4.5h3.5t1.5 -2q0 -1 -2.5 -7t-6 -13t-7 -12.5t-4.5 -7.5q-3 -5 -4.5 -13.5t-3 -17.5t-2 -17.5t-0.5 -15.5q0 -6 1 -11.5t1 -10.5
q0 -3 -1 -4t-3 -1t-3 3.5t-2 9.5t-1 13t-1 13.5t-1 12t-1 8.5q-2 8 -5.5 16t-7 15.5l-7 15t-6.5 15.5q-2 4 -4.5 7t-2.5 7zM129 225v1l1 0.5t1 1.5h6q18 0 35 -1.5t35 -0.5q3 0 3 -1.5v-2.5q0 -4 -1.5 -4.5t-4.5 -0.5q-7 0 -14.5 0.5t-15.5 1.5l-4 -2v-3.5v-6.5v-12t2 -13
v-60h35l0.5 -1.5t0.5 -2.5l1 -1l-0.5 -0.5l-0.5 -0.5l-0.5 -1l-0.5 -1h-31l-0.5 -2l-1 -4t-0.5 -3.5v-2.5q2 -5 5 -6t7 -1h5.5t2.5 -4v-1l-1 -0.5t-1 -1.5h-6q-7 0 -10.5 1.5t-6 4.5t-3 7.5t-0.5 11.5q-1 1 -2.5 2t-2.5 1q-2 0 -4.5 0.5t-5.5 0.5t-5.5 0.5t-3.5 0.5
l-0.5 0.5t-0.5 1.5v0v1v0v0q0 1 0.5 2l0.5 1h22v83q0 2 -1 6t-2 6q-3 0 -8 -0.5t-10.5 0t-9.5 2t-4 4.5zM142 197q0 2 0.5 3.5t1.5 2.5q2 0 4.5 -2t2.5 -5v-48q0 -4 -4 -4q-2 0 -3 3t-1.5 8.5t-0.5 11.5v12v11v7zM189 142v54q0 4 0.5 6t3.5 2t3.5 -2t0.5 -6v-48q0 -4 -3 -5
t-5 -1zM53 189q0 3 1 4t3 1q3 0 6 -4t4.5 -10t3 -13t2.5 -13.5t1.5 -12t0.5 -7.5t-1.5 -4t-3.5 -2q-2 1 -2.5 2t-1.5 2.5t-1 3.5v3l-0.5 3.5t-0.5 7t-0.5 6.5t-0.5 4q0 4 -1.5 7.5t-3.5 7t-3.5 7t-1.5 7.5zM106 141q0 3 0.5 9.5t2 14t3.5 13t6 5.5q3 0 3 -4q0 -5 -2 -8
t-3 -8v-3.5t-0.5 -7.5t-1 -8.5t-0.5 -6.5v-2q0 -2 0.5 -2.5t1.5 -2.5q2 0 3.5 0.5t3.5 0t3.5 -1.5t1.5 -3t-2 -4.5t-4.5 -4.5l-5 -4t-3.5 -4q-1 0 -2.5 -2t-3.5 -4t-3.5 -4t-2.5 -2q-2 -2 -3 -5.5t-2 -8t-1.5 -8t-0.5 -6.5q0 -1 0.5 -2t1.5 -1q6 -1 13 -3t13 -5.5t10 -9
t4 -13.5q0 -6 -3.5 -9.5t-8.5 -6t-10.5 -3.5t-9.5 -1h-4.5t-8 -0.5t-8.5 -1t-5 -0.5q-12 1 -19.5 6.5t-7.5 17.5q0 9 3.5 14t8.5 8.5t11.5 4.5t13.5 2v2q0 9 -3 16t-8 13t-10.5 11t-10.5 9t-8 7.5t-3 7.5q0 1 0.5 2.5t2.5 1.5q5 0 10.5 -5.5t11.5 -12.5t11.5 -13.5t9.5 -9.5
l2 2t1 2q1 1 4 4.5t6.5 7.5t6 7.5t3.5 4.5v2q0 2 -1 3l-2.5 2.5t-3 4t-1.5 6.5zM50 101q0 3 3 3t7 -2.5t7.5 -6.5t5.5 -7.5t2 -6.5v-4.5t-3 -2.5q-2 0 -6 4t-7.5 8.5t-6 9t-2.5 5.5zM106 79q0 2 2 5.5t4 6.5t5 6t6 3q1 -1 1 -2v-3t-1.5 -5t-4 -6.5t-5 -5.5t-4.5 -2h-1l-1 1
l-1 1v1zM189 64q2 0 4.5 4.5t5 9.5t5 9t4.5 3q3 -1 3.5 -2.5t0.5 -3.5q0 -5 -3 -10t-5 -8q-1 -1 -2 -2.5t-1.5 -3t-1 -2.5l-0.5 -1h-2q0 -1 -2 -4l-5 -7.5l-5 -7.5q-1 -2 -2 -4.5t-3 -5t-4 -4.5t-5 -2q-1 0 -4 4.5t-7 11t-9 14t-9 15t-6.5 12.5t-2.5 7v1l0.5 0.5l0.5 0.5h1
q3 0 6 -3t6 -8.5t6 -12t6 -12.5t6 -10t7 -6q6 6 10 12t4 15l-1.5 -0.5t-2.5 -0.5t-4 0.5t-6.5 1.5t-6.5 1.5t-4 0.5v1q0 1 1 2t3 1.5t4 0.5h3q4 0 6 -0.5l6 -1.5q2 -1 3 -3t2 -2zM75 52v-2v-4.5t0.5 -7t1 -6.5t0.5 -5t1 -3.5t3 -1.5q3 0 5 1t2 4l2 25q0 1 -3 3t-4 2
q-2 0 -5 -1t-3 -4zM96 40v-4t0.5 -5.5t1.5 -4.5t4 -2q1 0 2 3.5t1.5 8t0.5 8.5v6t-0.5 4.5t-3.5 2.5t-4 -2t-1.5 -4.5t-0.5 -5.5v-5zM113 39v-3v-4t1 -3.5t4 -1.5t5 3t2 6q0 2 -0.5 5t-1.5 5t-2.5 4t-3.5 2t-3 -2t-1 -4v-4v-3zM61 38q0 -4 2 -6.5t6 -2.5v2t-0.5 4t-0.5 4v2
q0 3 -0.5 3.5t-2.5 0.5q-3 0 -3.5 -2.5t-0.5 -4.5z" />
</svg>
