<?xml version="1.0" standalone="no"?>
<!DOCTYPE svg PUBLIC "-//W3C//DTD SVG 1.1//EN" "http://www.w3.org/Graphics/SVG/1.1/DTD/svg11.dtd" >
<svg xmlns="http://www.w3.org/2000/svg" xmlns:xlink="http://www.w3.org/1999/xlink" version="1.1" viewBox="-10 0 266 256">
   <path fill="currentColor"
d="M70 247l1 3h1.5h1.5q7 0 13 -6.5t11.5 -14t10.5 -14t10 -6.5h1q1 0 2 1l1 1q1 1 4 4.5l6 7t5.5 7t3.5 4.5q2 2 3.5 4.5t3.5 5t4 3.5t5 1q1 0 2.5 -0.5t2.5 -2.5l-0.5 -2.5t-1.5 -3.5q0 -1 -2.5 -3t-4.5 -4l-4 -4l-3 -3l-1 -1.5l-2 -3l-2 -3l-1 -1.5l-4 -4t-4 -4.5l-4 -5
t-3 -4.5q0 -1 0.5 -4.5t0.5 -7.5t-1.5 -7t-4.5 -3t-4.5 3t-1.5 5q0 1 0.5 2t0.5 2.5t0.5 2.5l0.5 1v2q0 3 -3 7.5t-7.5 9l-8.5 8.5l-6 6q-2 1 -5 4.5t-6.5 6.5t-6.5 6.5t-4 4.5zM188 240v0.5v0.5q1 2 1.5 4t4.5 2v0q1 0 2 -0.5t2 -1.5v-2t0.5 -4t0.5 -4v-2q0 -1 -0.5 -5
t-1 -8.5t-1 -8.5t-0.5 -5v-2v-3l1 -2.5t1 -3.5q0 -12 -1 -24t-2.5 -24.5t-2.5 -24.5t-1 -24q0 -5 2 -8.5t2 -8.5q0 -1 -0.5 -3.5l-0.5 -2.5q-1 -2 -4 -3.5l-3 -1.5q-11 -1 -19.5 -1.5t-18.5 -0.5h-2.5h-2.5l-0.5 0.5l-1.5 1.5v1q0 2 3.5 3t8 1.5t10 1t10.5 1t8 1.5t3 4v1
l-2 2l-1 1q-1 0 -3 -0.5l-2 -0.5q-2 -1 -5 -1.5t-6.5 -1t-6.5 -0.5h-4l-4 -0.5t-6 -0.5q-1 0 -4.5 0.5t-4.5 0.5q-2 0 -2.5 0.5t-0.5 2.5q0 3 5 3.5t12 1t13 1t8 3.5q-10 1 -19.5 1.5t-19.5 0.5q0 2 1.5 3.5t4 2t5 0.5h4.5q6 0 13 -1t13 -1q2 0 4.5 0.5t4.5 3.5q6 29 7 60
t1 60q0 4 -1 7.5t-1 7.5zM70 218q0 2 1 2.5t3 0.5q4 0 5 -1.5t5 -5.5l3 -3l4 -4l4 -4l3 -3l1.5 -4.5t0.5 -4.5v-3t-3 -2q-1 0 -2 1t-1.5 2.5t-1 2.5t-0.5 2l-21 20l-0.5 1.5l-0.5 1.5v1zM141 189q0 3 2 8.5t5.5 10t7.5 8t8 3.5q3 0 5 -1t2 -4t-4 -6t-8.5 -6.5t-8.5 -7.5
t-5 -10h-1q-4 0 -3 5zM57 191q0 3 1 3.5t4 0.5q7 0 14 -4t14.5 -9t15.5 -9t17 -4q4 0 10.5 3t13 7t12 8t9.5 7h9l0.5 -1.5l0.5 -1.5q0 -1 -0.5 -1.5l-0.5 -0.5q-7 -5 -13 -8.5t-12.5 -7t-13.5 -7.5t-13 -8v-3q0 -2 1.5 -3t3.5 -1.5t4 -0.5h4q3 0 4.5 1t3 3.5t2.5 4.5t4 3
l4.5 3t3.5 2t3.5 1.5t3.5 0.5q3 0 4.5 -0.5t1.5 -3.5q0 -4 -3.5 -5l-7 -2t-6.5 -2t-3 -6q0 -2 3 -3l6 -2t6 -2.5t3 -5.5q0 -10 -6 -15t-14.5 -6.5t-18 -1.5h-17.5l-3 -0.5t-6.5 -0.5t-6.5 -0.5t-4 -0.5h-2q-4 0 -9 1t-9 3.5t-6 6t-2 8.5q0 6 2 9.5t6 5.5t8.5 2.5t9.5 1.5
q-1 3 -4 6q-3 1 -7 1.5t-7.5 1.5t-6 3.5t-2.5 6.5q16 0 29 -8q3 -2 4.5 -4t3 -3.5t3.5 -2.5t6 -1h2.5t2.5 1v10l-3 1l-1.5 0.5t-2.5 1t-2.5 1l-1.5 0.5q-3 2 -9.5 5t-14 6.5t-14.5 6.5t-9 4t-2 2v2zM98 139l2 -18h12q2 0 3 2t1.5 4t0.5 4.5v3.5q0 4 -2 6.5t-6 2.5
q-1 0 -3 -0.5t-3.5 -1t-3 -1.5t-1.5 -2zM125 131v-8l4.5 -1.5t4.5 -0.5q2 0 3 1t1.5 2l1 2t1.5 2v12q0 2 -1 2.5t-2.5 1t-2.5 0.5h-2q-3 0 -5 -1t-2.5 -2.5t-0.5 -3.5v-6zM74 131q0 -2 1.5 -4t4 -3t5 -1h4.5t2.5 1.5t0.5 4.5t-1.5 6.5t-4.5 4.5q-2 1 -4 0t-3.5 -2.5t-3 -3.5
t-1.5 -3zM146 126q2 0 4.5 -0.5t4.5 0t3.5 1.5t1.5 4t-1.5 5.5t-5.5 2.5q-2 0 -3.5 -1t-2 -3t-1 -4.5t-0.5 -4.5zM57 102q0 2 0.5 3t1.5 1h1q1 0 2.5 -1t3.5 -2.5t3.5 -2.5t1.5 -2l0.5 -1.5l1 -3l1 -3l0.5 -1.5q0 -1 1 -1.5l1 -0.5h6q5 0 9.5 1t9.5 1q1 0 4 -1t3 -3v-1
q-1 0 -2 -1.5t-2 -1.5l-22 -5q-2 0 -2.5 -1.5t-0.5 -2.5q0 -3 2 -3.5t4 -0.5h3h2l1.5 0.5t3.5 0.5t3 0.5t2 0.5l2 -0.5t3.5 -1t2.5 -1.5t1 -3t-3.5 -3.5t-8.5 -2t-9.5 -0.5t-6.5 -1l-0.5 -0.5t-0.5 -1.5q0 -2 1 -2.5t5 -1.5q1 0 4 -0.5t6.5 -1t6.5 -1t5 -0.5l1 -1.5t2 -1.5
v-1v-1l-0.5 -0.5t-1.5 -0.5h-25q-2 -1 -3.5 -1.5t-3.5 -0.5q-5 0 -6 6v19q0 1 -0.5 2l-0.5 1q0 1 -0.5 3t-1 4.5t-1 4.5t-0.5 3q-1 1 -2 3l-2.5 5t-3 5.5t-2.5 3.5v1v1zM114 102v1l1 2h1q2 0 3.5 -2.5t2.5 -5t1 -5v-3.5q1 -1 1 -3.5t0.5 -4.5t0.5 -4v-2v-2.5v-5.5v-5v-5v-4
v-5v-5.5v-3.5q0 -3 -3 -7t-5 -4l-36 -5q-3 0 -4.5 -2t-2.5 -4.5t-2.5 -4.5t-4.5 -2v0.5v0.5q-1 0 -2 1l-2 2v2.5v3.5v4t1 4t2 3t4 1q4 0 9.5 0.5t11.5 1t11.5 1.5t9.5 2q2 1 4.5 4.5t2.5 5.5q0 14 -1.5 27.5t-3.5 26.5v1zM145 47q0 5 1.5 7t4.5 3t6.5 1.5t6.5 0.5h4t7 0.5
t7.5 1t5.5 0.5h2q2 0 5 -2t3 -5q0 -1 -0.5 -2t-3.5 -1q-1 0 -5.5 0.5t-10.5 0.5q-4 0 -8.5 -0.5t-6.5 -0.5h-2.5t-3 -0.5t-3 -0.5h-1.5l-1 -4l3 -1q1 0 5 -0.5t8.5 -0.5t8 -0.5t5.5 -0.5q1 0 2.5 -0.5t3.5 -1.5t3.5 -2t1.5 -2v-15q0 -1 -1 -1.5l-1 -0.5q-1 0 -4 -1t-4 -1
h-5.5h-9.5h-8.5h-6.5t-3 -1l-2 -2l-2 -2t-3 -1q-1 0 -3 3.5t-4 7.5t-3.5 8t-1.5 5v2.5t2 1.5q1 0 2.5 -1.5t3 -3.5t2.5 -3.5t1 -2.5q1 0 1.5 -0.5l0.5 -0.5h34q2 0 2 1v2v1.5t-2 1.5h-8q-6 0 -11.5 1.5t-9.5 4t-4 7.5z" />
</svg>
