<?xml version="1.0" standalone="no"?>
<!DOCTYPE svg PUBLIC "-//W3C//DTD SVG 1.1//EN" "http://www.w3.org/Graphics/SVG/1.1/DTD/svg11.dtd" >
<svg xmlns="http://www.w3.org/2000/svg" xmlns:xlink="http://www.w3.org/1999/xlink" version="1.1" viewBox="-10 0 266 256">
   <path fill="currentColor"
d="M188 245q2 1 2.5 2t1.5 2t2 1.5t4 0.5v-6q-6 -9 -9.5 -18.5t-6 -19.5t-4 -20t-4.5 -19l-0.5 -1.5l-1 -3t-0.5 -3v-1.5q-1 -2 2 -4.5t7 -7t7.5 -10t3.5 -13.5q0 -5 -1.5 -10.5t-6.5 -8.5q-2 -1 -4 -2.5t-4.5 -2.5t-5.5 -1.5t-5 0.5v-5t-0.5 -6.5t-0.5 -7v-4.5v-2v-3.5
t0.5 -4.5t1.5 -3.5t2 -1.5q2 0 6.5 3t10 7t12 7.5t12.5 3.5q2 0 3 -0.5t1 -2.5q0 -1 -2 -2.5t-5 -2.5t-6 -1.5t-4 -1.5l-3.5 -3.5l-5.5 -5.5t-6 -5.5t-4 -3.5q0 -1 -2 -2.5t-3.5 -3.5t-3 -3.5t-1.5 -3.5l-0.5 -2.5t-0.5 -5t-0.5 -4.5t-0.5 -3l-1.5 -4.5t-3.5 -1.5h-1.5h-1.5
q0 9 -3.5 17.5t-8.5 16t-11 14.5t-12 13v2q5 0 9.5 -3.5t8 -8t6.5 -8.5t5 -4q1 0 2 0.5t1 2.5l0.5 2t0.5 4.5t0.5 4.5l0.5 2v1v1q0 1 -0.5 4.5t-0.5 7t-0.5 6.5t-0.5 5q-2 2 -5 2t-6.5 0.5t-6.5 1.5t-5 3q1 2 3 3t3 1h33q4 0 6 1t3 3.5t1.5 5.5t0.5 7q0 1 -1 3t-2 4.5
t-2.5 4t-3.5 1.5v0v0q-6 -7 -12.5 -9.5t-15.5 -2.5h-6.5t-4.5 3h-0.5t-0.5 1h0.5h0.5q0 1 0.5 1.5l0.5 0.5h8t9 1t7 3.5t3 7.5t-4 6.5t-9 2t-9 2.5t-4 7q7 0 12.5 -2.5t12.5 -2.5h2t2 1q2 12 4.5 22t5 20.5t6 21t8.5 21.5zM63 190v1l1 1q1 1 2 1.5t2.5 1t2.5 1.5l1 1
q4 3 6 7.5t3 7.5q1 2 1.5 5.5t1.5 6.5l2 6t2 3q2 0 4.5 -5.5t5 -12t4.5 -13t4 -8.5q0 -1 1.5 -2l1.5 -1q1 -1 1 -3.5v-2.5h-15l-1 -2v-2v-3q0 -6 2 -8.5t5.5 -3.5t7 -1t7 0.5t5.5 -0.5t2 -3t-0.5 -2.5t-2.5 -0.5h-25v-19q2 0 6 -0.5t8.5 -1t7.5 -2t3 -3.5v-1l-0.5 -0.5
l-0.5 -0.5h-13v-40q0 -2 -2 -4t-4.5 -3.5t-5 -2.5t-4.5 -1q-3 0 -7 1.5t-8 3.5t-6.5 5.5t-2.5 6.5v34l-3 3h-3t-4 0.5l-4 1t-3 0.5t-3 1t-2 2v1l2 2h6q9 0 18 -0.5t18 -0.5v16l-0.5 1t-1.5 1l-2.5 0.5t-3.5 0.5t-4 0.5t-6 0.5t-6 0.5t-4 0.5t-3 1t-2 2v1q0 1 0.5 1.5
t1.5 0.5h29l2 1v3v4v3v4t-1 3.5t-3 1.5h-1h-2l-2 -0.5t-4.5 -0.5t-4.5 -0.5l-2 -0.5h-1h-1l-3 3v1zM84 201q0 -2 1.5 -3.5t3 -2t3.5 -0.5h4q0 1 -0.5 3.5t-1.5 4.5l-2 4t-3 1q-3 -2 -4 -3.5t-1 -3.5zM75 128q0 -7 3 -9.5t10 -2.5q5 0 6.5 2.5t1.5 8.5l-0.5 2l-0.5 2l-1 1
h-17q-1 0 -1.5 -1.5t-0.5 -2.5zM75 101q0 -1 0.5 -2.5l1 -3t1.5 -3t2 -1.5h14q1 0 2 1.5t1.5 3l1 3t0.5 2.5t-0.5 2t-1.5 2q-4 1 -8 1h-8q-6 0 -6 -5zM83 65h-3.5t-5.5 0.5t-6 0.5h-4q-1 1 -4 1.5l-3 0.5v5h3.5h5.5h5.5h3.5q2 0 9 -0.5t14 -2t13 -2.5t6 -2v-1l-0.5 -0.5
t-1.5 -0.5q-5 0 -9.5 -0.5t-10.5 -1.5v-1q0 -4 2 -6l4 -4t5 -4t5.5 -4.5t4 -6.5t1.5 -11v-3.5t-3 -2.5q-3 1 -4 4t-2.5 6.5l-3 7t-4.5 5.5h-1v0v0q-1 0 -1.5 -0.5t-0.5 -1.5v-3.5t-0.5 -6t-1 -6t-0.5 -4.5v-2t-0.5 -3.5t-1.5 -3t-2 -1.5h-2t-1 1v29q0 2 -2 2h-3
q-2 0 -3.5 -2t-2.5 -4q0 -1 -1 -3.5t-1.5 -5t-1.5 -5t-1 -3.5h-5q0 6 1 13.5t4 12.5l4.5 4.5t5 4t4.5 3.5t2 4t-1 2.5t-4 1.5z" />
</svg>
