<?xml version="1.0" standalone="no"?>
<!DOCTYPE svg PUBLIC "-//W3C//DTD SVG 1.1//EN" "http://www.w3.org/Graphics/SVG/1.1/DTD/svg11.dtd" >
<svg xmlns="http://www.w3.org/2000/svg" xmlns:xlink="http://www.w3.org/1999/xlink" version="1.1" viewBox="-10 0 266 256">
   <path fill="currentColor"
d="M78 201q0 3 1 11t2.5 16.5t4.5 15.5t7 7q2 0 5 -2v-2v-3q0 -4 -1.5 -8.5l-3 -9l-3 -9t-1.5 -9.5q0 -11 3 -16t7.5 -8t9 -6.5t8.5 -10.5q1 -2 1.5 -6t1.5 -8.5t1.5 -8t0.5 -5.5v-1v0q0 -1 -0.5 -3l-0.5 -2v-36q0 -2 -2 -2.5t-3 -0.5q-2 0 -3 1t-1.5 2.5t-0.5 3v3.5v46
q0 10 -5 15.5t-11.5 10.5t-11.5 10.5t-5 14.5zM199 226q0 2 1.5 5t3.5 4q2 0 3 -1t2 -3t1.5 -4l0.5 -2v-110q-2 -8 -2 -16t0.5 -16t0 -16t-2.5 -15q-1 -5 -6 -6.5t-10.5 -2t-10 -2.5t-4.5 -8q0 -2 1 -4.5t1 -5.5t-1 -6.5t-5 -3.5v0q-6 3 -6 9v1l0.5 1.5t0.5 3.5t0.5 4l0.5 2
v0.5v1.5q0 3 -3 5.5t-7.5 4.5t-8.5 4t-7 5q-1 1 -2 5.5t-2 10t-1.5 12t-1.5 12.5t-1 11v7v7v12v12v6q-1 7 -2 15t-2 16.5t-1.5 16.5t0.5 16q-2 0 -2.5 1.5t-1 3.5t-0.5 4v4q0 3 2 4.5t6 1.5h1.5h2.5q1 -6 1.5 -13t0.5 -14v-14v-12q2 -4 3.5 -9t1.5 -10v-10v-10t-1 -9.5
t-1 -9.5q0 -7 2 -13.5t3 -13.5q1 -11 1.5 -19.5t3 -14t9 -8.5t19.5 -3h3h2.5h3.5h2q2 1 3.5 2t3.5 3q2 26 2.5 52.5t0.5 52.5v10v14.5v14.5v9t-0.5 4t-0.5 4t-0.5 4t-0.5 3v3zM147 146v79q0 2 1 2.5t3 0.5q6 0 6 -5q0 -4 -1 -6.5t-3 -5.5v-15q0 -13 1 -26t3 -26
q1 -10 5 -19.5t6 -19.5q-3 -4 -3 -11t0.5 -13.5t-1 -11.5t-7.5 -5v17l1 2v6q0 7 -0.5 13.5t-2 13l-3 13t-4.5 13.5q0 1 -0.5 2t-0.5 2zM185 148q0 17 -2.5 33t-4.5 33v2t-0.5 4.5t-0.5 4v2.5q5 0 6.5 -1t2.5 -6q3 -16 5.5 -33.5t2.5 -34.5v-5v-6t-0.5 -8.5t-0.5 -7.5v-4
q-1 -6 -4 -10.5t-3 -11.5q0 -6 2.5 -11.5t2.5 -11.5q0 -3 -1 -6.5t-4 -3.5t-4.5 5t-2.5 11.5t-1 12.5v9q0 7 2.5 13.5t3.5 13.5q0 1 0.5 3.5t0.5 5.5v5v3zM47 139q0 10 5 16.5t15 6.5h6q1 -1 1.5 -2.5t0.5 -2.5q-1 -4 -3.5 -4.5t-5.5 -1.5t-5.5 -2.5t-2.5 -6.5q0 -3 2 -4
t4.5 -1t5 -0.5t2.5 -3.5t-2 -3.5t-4.5 -1t-4 -1t-1.5 -3.5q0 -4 2 -5t4.5 -1t4.5 -0.5t2 -3.5v-1q0 -1 -2 -2h-2t-4 -0.5t-3.5 -0.5h-2.5v-15l-1.5 -0.5t-2.5 -0.5h-1q-2 0 -3.5 0.5t-1.5 2.5q-2 5 -2.5 10.5t-0.5 11.5q0 5 0.5 10.5t0.5 9.5zM86 99q-2 -1 -3.5 2t-1.5 4v42
q0 4 3 6t6.5 3t7 1.5t5.5 0.5q0 -4 -2 -5t-4.5 -2.5l-5 -3t-2.5 -4.5q0 -1 1 -1q1 -1 3 -2t4 -1.5t4 -1.5t2 -4q0 -2 -2.5 -2.5t-5.5 -0.5t-5 -1t-2 -4t2.5 -4t5.5 -1.5t5.5 -1t2.5 -2.5t-1.5 -3t-3.5 -2q-7 -1 -8.5 -2.5t-1.5 -3.5t0.5 -3.5t-3.5 -2.5zM50 47v12.5t1 10.5
t4 9t10 7q2 1 5 2l3 1h31q3 -2 6.5 -2.5t6.5 -2.5q4 -3 6.5 -8t4 -11t2 -11.5t0.5 -8.5q0 -10 -2.5 -15.5t-7.5 -8t-12 -2.5h-16q0 5 4 6t9 1.5t9 1.5t4 6q0 4 -3 5.5t-6.5 2t-7.5 0t-6 -0.5q0 5 3.5 5.5t8.5 0.5t8.5 1.5t3.5 8.5v1.5t-2 1.5h-23l-0.5 0.5l-0.5 0.5v1v0
q0 3 3.5 3.5t7.5 0.5t7 1.5t3 5.5t-3.5 5.5t-8 2.5t-9.5 0.5t-8 -0.5h-10q-1 0 -3 -1t-4 -2.5t-3.5 -2.5t-1.5 -3q0 -4 3.5 -4.5t7.5 -1t7.5 -1t3.5 -4.5q0 -3 -2 -3.5t-4 -0.5q-4 0 -7 0.5t-6 0.5q-4 0 -5 -1t-1 -4v-2.5v-1.5q2 -1 6 -1.5l8 -1t7 -2t3 -4.5q1 0 0 -1.5
l-1 -1.5h-6q-4 0 -7.5 1t-7.5 1q0 -5 1.5 -7.5t4 -3.5t5.5 -1t5 -0.5t3.5 -1.5t1.5 -3v-0.5v-0.5l-0.5 -0.5t-1.5 -0.5t-3 -0.5t-3 -0.5q-8 0 -13 2t-7.5 5.5t-3.5 8.5t-1 12z" />
</svg>
