<?xml version="1.0" standalone="no"?>
<!DOCTYPE svg PUBLIC "-//W3C//DTD SVG 1.1//EN" "http://www.w3.org/Graphics/SVG/1.1/DTD/svg11.dtd" >
<svg xmlns="http://www.w3.org/2000/svg" xmlns:xlink="http://www.w3.org/1999/xlink" version="1.1" viewBox="-10 0 266 256">
   <path fill="currentColor"
d="M81 246q0 2 0.5 3.5t4.5 1.5q3 0 4.5 -1.5t2.5 -4t1 -5v-4.5q0 -6 -0.5 -11.5t-0.5 -11.5q0 -25 1 -50t2 -51v-8.5v-7t0.5 -7t2.5 -7.5v-68l-1 -1l-2 -0.5t-4.5 -1t-5.5 -0.5h-5q-5 0 -11.5 -1t-12.5 -1q-1 0 -2.5 0.5t-3.5 1.5t-3 2t0 3q0 3 2.5 3t5 -0.5t4.5 -0.5t2 3
v5v6.5t-2 5.5q-2 39 -5 76.5t-3 75.5v8v12v12v8q0 2 1.5 2.5t2.5 0.5q4 0 6 -3t2.5 -7.5t0.5 -7.5v-6v-7v-11v-12v-7q1 -28 2 -55t3 -55q2 -4 3 -9t1 -10v-10t1 -9q1 -2 3.5 -3t4.5 -1t4.5 1t3.5 3v9q0 19 -2.5 38t-3.5 38q-1 3 -0.5 6t0.5 6t-0.5 6.5t-1.5 5.5v68v2.5
t0.5 3l1 3t0.5 2.5v1v1q-1 0 -1.5 1t-0.5 2t-0.5 4.5t-0.5 7.5t-0.5 7.5t-0.5 4.5v5zM122 211q1 6 6.5 9t12.5 3.5t14 0.5h12h2t4 -0.5t4 -0.5h3q2 0 4 -2t3.5 -4t2.5 -4t3 -4v-10v-6t-0.5 -8.5t-2.5 -7.5t-6 -2q-1 0 -1 2v3q0 2 -0.5 3.5t-1.5 1.5h-16v-27h34q1 0 1.5 -2
t1.5 -4.5t1.5 -5l0.5 -2.5q0 -2 -0.5 -3.5t-1 -3.5t-2 -3t-3.5 -1t-3 2.5t-1.5 5.5t-1 5.5t-2.5 2.5h-22q-1 0 -1.5 -1t-0.5 -3v-4v-1v-4.5t2 -3.5l2 -0.5l4 -1l4 -1t3 -1.5q3 -1 4 -3t1.5 -4.5t0.5 -5t2 -4.5q0 -1 0.5 -2l0.5 -1h18q1 0 1.5 -1.5t0.5 -2.5t-0.5 -2t-1.5 -1
h-10q-19 0 -38 2t-39 3l-1.5 0.5l-1.5 0.5v1v1q0 1 1.5 2l1.5 1h16l0.5 1.5t1.5 2.5q0 1 0.5 4.5t0.5 4.5q1 1 3.5 1.5t5 2t4.5 3t3 3.5q0 1 0.5 3l0.5 2q0 4 -1 7.5t-5 3.5q-2 0 -6 -0.5t-8 -1.5t-7 -1.5t-3 -1.5v-13l-1 -0.5t-2 -0.5q0 -1 -1.5 -1.5l-1.5 -0.5l-1.5 0.5
t-1.5 1.5q-1 1 -1.5 4.5t-0.5 4.5v1q0 6 2.5 9t6 4t8.5 1.5t9 0.5q1 1 2.5 1t4 0.5t4 0.5h2.5q-1 4 -0.5 6.5t1 4t0.5 3v5.5v0q0 1 -0.5 3t-0.5 2.5t-0.5 1t-1.5 0.5h-17q-1 0 -2 -1.5l-2 -3t-3 -3t-4 -1.5q-1 0 -2 0.5t-2 1.5v6v7q0 2 0.5 5.5t0.5 6.5t1 8zM137 191h2
q5 0 11.5 0.5t12.5 0.5t10.5 0.5l4.5 0.5l3 3v13q0 2 -2.5 3.5t-6 2t-6.5 0.5h-5h-7q-5 0 -9.5 -0.5t-8 -2t-3.5 -5.5v-14l1 -1t2 -1h1zM144 118q0 -3 3 -5.5t5 -3.5h4t6.5 -0.5t6.5 -1t4 -0.5h1q2 0 3 1.5t1 3.5q0 4 -2 7t-6 4q-1 0 -4.5 0.5t-4.5 0.5h-4t-5.5 -0.5
t-5 -1.5t-2.5 -4zM102 99q0 4 3 4q1 0 4.5 -2t8 -5.5t10 -7.5t10.5 -7.5t9.5 -6t6.5 -4.5q5 -2 10.5 -2.5t11.5 -1.5t11.5 -2t9.5 -5q5 -3 6 -7t1 -9q0 -4 -1 -9t-2.5 -9.5t-5 -7.5t-9.5 -3h-1.5h-1.5q-1 0 -5 0.5t-8.5 1.5l-9 2t-6.5 1q-3 1 -9.5 2.5t-12.5 3.5t-10.5 4.5
t-4.5 4.5v1l1.5 1l1.5 1h3h4h5h3q4 6 6.5 14t2.5 15q0 1 -2.5 3t-6.5 4.5t-9 6.5t-10 7t-8.5 6t-5.5 5v0.5v0.5zM141 90q1 2 2 2.5t2 0.5h2h7.5t10.5 -0.5t11 -1t7 -0.5q1 0 1.5 -1t0.5 -2q0 -3 -3 -3h-2h-4t-6 0.5l-6 1t-4 0.5t-4 -0.5t-6 -0.5t-5.5 1t-3.5 3zM144 34v-2
l10 -5q1 -1 2.5 -1.5t2.5 -0.5q2 0 4 4t4 9.5t3.5 10t1.5 6.5t-3 4t-6.5 2.5t-6.5 1t-5 0.5q0 -5 -1 -9t-2.5 -7.5t-2.5 -6.5t-1 -6zM171 23q6 0 9.5 0.5t5.5 1.5t4.5 3.5t5.5 6.5v0v1q0 4 -0.5 7.5t-2 6.5t-4 4.5t-7.5 1.5q-1 0 -3 -4.5t-3.5 -10.5t-3 -11t-1.5 -7z" />
</svg>
