<?xml version="1.0" standalone="no"?>
<!DOCTYPE svg PUBLIC "-//W3C//DTD SVG 1.1//EN" "http://www.w3.org/Graphics/SVG/1.1/DTD/svg11.dtd" >
<svg xmlns="http://www.w3.org/2000/svg" xmlns:xlink="http://www.w3.org/1999/xlink" version="1.1" viewBox="-10 0 266 256">
   <path fill="currentColor"
d="M111 247q0 4 3 4q7 0 15.5 -7t16 -17t12 -20t4.5 -16q0 -2 -1 -4t-3 -3t-4.5 -1t-4.5 -1h-4.5t-7.5 -0.5t-7.5 -0.5h-5.5q-4 -1 -7.5 -3t-3.5 -7t2 -8t5 -4.5t6.5 -2t6.5 -1t5 -1.5t2 -3q0 -3 -2.5 -3.5t-5.5 -0.5l-2 0.5l-2 0.5q-1 0 -3.5 1t-3.5 2q-5 1 -8 2.5
t-5.5 3.5t-3.5 5.5t-1 8.5q0 3 1.5 5.5t4 4t4 3.5t1.5 5q0 4 -6 10t-14.5 12.5t-16.5 11.5t-12 7l-1 0.5t-1 1.5v3v3q8 0 17 -5t16.5 -11.5t15 -14l12.5 -12.5l5 -2.5t5 -1.5h3h4h4h3q0 11 -5.5 20.5t-12.5 16.5t-13 12.5t-6 6.5zM47 170q1 1 2 1.5t2 0.5q3 0 4.5 -2
t2.5 -4.5l2 -5t3 -3.5h2.5t3 -0.5l3 -1l1.5 -0.5q2 0 5 -0.5l6 -1t6 -1.5t5 -2.5t2.5 -3.5l1 -4l1 -4t1.5 -3q2 -2 4.5 -3t2.5 -4t-4 -3h-1h-2t-6.5 0.5t-12 1t-12 1t-7.5 0.5v0.5t-1 0.5v-1q-1 0 -2 -0.5l-1 -0.5v-4v-1v-3v-2t1 -1l32 -4l2.5 -2t3.5 -4q3 -4 3.5 -7t1 -5
t2.5 -3.5t9 -1.5v-1v-1l-0.5 -1.5l-0.5 -1.5h-6q-10 0 -20 1.5t-19 1.5q-2 0 -4 -0.5t-2 -2.5t0.5 -4.5t2.5 -3.5q12 -3 23 -4.5t23 -1.5q1 -1 1.5 -2t0.5 -2t-0.5 -2t-2.5 -1h-20q0 -7 2 -9.5t5.5 -3t7.5 -2t8 -5.5v-3t0.5 -4.5t0.5 -4.5v-3v-1q0 -3 -0.5 -4t-2.5 -1
q-5 0 -6 3.5t-1.5 7t-1.5 7t-5 3.5q-3 0 -4.5 -0.5t-1.5 -3.5q0 -6 1 -12t1 -12q0 -3 -2 -4.5t-4 -1.5q-3 0 -4 1.5t-1.5 4l-1 5t-0.5 4.5v3.5v4.5v5.5v3.5q0 2 -3 2h-3q-5 0 -6.5 -3t-2 -6.5t-1.5 -7t-5 -3.5q-1 0 -2.5 0.5t-1.5 1.5v19q0 3 4 4t8.5 1.5t8.5 1.5t4 4
q0 7 -5 9t-10.5 3.5t-10.5 3.5t-5 9v1v1t0.5 2.5t0.5 2.5v2t-0.5 4.5t-0.5 4.5v18t-0.5 16l-1 16t-0.5 16v6zM156 162q0 2 1.5 3.5t3.5 1.5t4 -1.5t2 -3.5l3 -18l4 -3h27q3 0 4.5 -1.5t1.5 -3.5l-0.5 -1.5t-1.5 -1.5h-36q-2 0 -2 -1v-2q0 -6 2.5 -9t6 -4t7.5 -1t7.5 -1.5
t5.5 -4.5t2 -11q0 -7 -7 -7h-3q0 3 -0.5 6t-1.5 5t-3.5 3.5t-5.5 1.5h-2.5h-2.5q-1 -2 -2 -4.5t-1 -3.5q0 -6 2 -7.5t4.5 -2.5t5.5 -2t4 -6q1 0 1 -2t0.5 -4t0.5 -4v-2q1 -4 4 -4t6.5 0.5t6.5 0t3 -3.5q0 -4 -2.5 -5t-5.5 -1q-7 0 -13.5 1.5t-13.5 1.5q-3 0 -10 0.5t-14.5 1
l-15 1t-9.5 0.5q-2 1 -2 2v2t0.5 1.5t2.5 1.5h3h5h4h3q-1 9 2 13t7 5.5t7.5 3.5t3.5 5q0 5 -1.5 9.5t-6.5 4.5q-1 0 -4 -0.5t-5.5 -1t-4 -2t-1.5 -2.5v-11q0 -3 -2 -3.5t-3 -0.5q-2 0 -3.5 1.5t-1.5 4.5v2q0 1 0.5 3t1 4.5t1 4.5l0.5 2q2 3 5.5 4t7.5 2t8 1h6q1 2 2 5t1 6
q0 2 -1.5 3.5t-3.5 1.5h-38q-1 0 -1.5 1.5l-0.5 1.5q0 1 0.5 2t3.5 1h39q1 0 1.5 0.5t0.5 1.5v0q0 5 -1.5 9.5t-1.5 9.5zM59 143q0 -2 1.5 -5t4.5 -3h23q1 0 1.5 0.5l0.5 0.5v1q0 5 -3 7.5t-7 3t-8.5 0.5h-9.5q-2 0 -2.5 -1t-0.5 -4zM60 102q0 -2 0.5 -3.5t1.5 -3.5
q1 0 4.5 -0.5t7.5 -1t7.5 -1t5.5 -0.5v0q2 0 4 1.5t2 3.5q0 3 -2 5.5t-5.5 3t-7 0.5h-6.5h-5h-5q-2 0 -2 -1v-3zM147 76q0 -2 0.5 -3l1.5 -3q6 -2 10 -2h9h6q0 1 0.5 3.5t0.5 3.5h0.5h0.5l-1 1l-1 2.5t-2 2.5h-23q-1 0 -1.5 -2t-0.5 -3zM137 41q0 2 1.5 2.5t3.5 0.5h4h8.5
t13.5 -0.5t13.5 -0.5h8.5q0 -1 1.5 -1.5t2.5 -0.5t2.5 -1.5l1.5 -1.5q1 -2 0 -3t-2.5 -1.5t-3 -0.5h-2.5q-12 0 -25.5 2t-25.5 3q-1 0 -1.5 1t-0.5 2z" />
</svg>
