<?xml version="1.0" standalone="no"?>
<!DOCTYPE svg PUBLIC "-//W3C//DTD SVG 1.1//EN" "http://www.w3.org/Graphics/SVG/1.1/DTD/svg11.dtd" >
<svg xmlns="http://www.w3.org/2000/svg" xmlns:xlink="http://www.w3.org/1999/xlink" version="1.1" viewBox="-10 0 266 256">
   <path fill="currentColor"
d="M162 189h2.5t1.5 2q2 3 4.5 6.5t5 6.5t4.5 6.5t4 5.5q2 3 3 9t2.5 11.5t4.5 10t7 4.5q3 0 4.5 -1.5t1.5 -4.5v-2q0 -1 -1 -1q-1 -3 -3.5 -8t-5.5 -11.5t-6 -12t-4 -7.5l-1 -1t-2 -3t-2.5 -3t-1.5 -2l-1 -2l-2 -4t-2 -3.5t-2 -2.5l3.5 -7t2.5 -6l2 -6t1 -8v-4.5v-5.5
l-0.5 -1.5t-1.5 -1.5q-5 -6 -9.5 -9.5t-10 -5.5t-11.5 -2.5t-14 -0.5l-4 -0.5t-10 -0.5h-10.5h-8.5h-6.5h-9.5q-6 0 -10.5 0.5t-6.5 0.5l-0.5 1.5t-1.5 1.5v1v1q1 0 2 1t2 1q18 -1 38 -0.5t38 2.5q5 0 10 1.5t9.5 4.5t7.5 7t3 10t-4 10l-8 8q0 1 -1 1h-1q-1 0 -1.5 -0.5
t-1 -1.5l-1 -2t-1.5 -2q-3 -4 -6.5 -6t-7.5 -3l-8 -2t-10 -2h-26h-26t-26 2q-2 0 -2.5 1.5t-0.5 3.5q0 3 2.5 3.5t5.5 0.5q11 0 21.5 -1t21.5 -1h11h9.5t9 0.5t11.5 1.5q1 1 5 1.5t7.5 2t6 3.5t2.5 5t-6 5t-14 4.5t-15.5 4t-11.5 1.5q-2 1 -7 1.5l-10 1t-9 1t-5 0.5h-20
q-2 1 -3.5 2t-1.5 3t1.5 3.5t3 2t3 0.5h3.5q6 0 13.5 -1t14.5 -2t14 -2.5t13 -1.5q1 0 3.5 -1t3.5 -1q4 -1 8.5 -3t8.5 -4t8 -3t9 -1zM168 78q5 1 8.5 5t6.5 9.5t5.5 11.5t5 11.5t5 8.5t5.5 3t4.5 -2t1.5 -6q0 -7 -5 -14t-11 -13.5t-11 -12.5t-5 -11q0 -3 1.5 -6.5t4.5 -5.5
v-25q0 -6 -6.5 -9t-15 -5t-16.5 -3t-11 -1h-55l-4 3l4 4q3 0 11 0.5t16.5 0.5t16.5 0.5t11 0.5q5 0 12 0.5t12.5 2t9.5 5t4 11.5q0 2 0.5 5.5t0 7t-2 6t-4.5 2.5q-2 0 -4.5 -1.5t-5 -3.5t-5 -3.5t-5.5 -2.5q-19 -4 -38.5 -5.5t-39.5 -1.5h-10q-1 0 -2 0.5t-2 0.5v1
q0 2 2 3.5t3 1.5q3 0 10 0.5t15 1t14.5 1t9.5 0.5q4 1 12 1.5t16 2t14.5 4.5t6.5 8q0 4 -3 5.5t-6.5 2l-7 1t-4.5 3.5q-15 3 -29.5 5t-29.5 2q-2 0 -2 1v3t1.5 3t3.5 1.5t4 0.5h4q8 0 18.5 -1.5t22 -4.5t21.5 -6.5t17 -7.5z" />
</svg>
