<?xml version="1.0" standalone="no"?>
<!DOCTYPE svg PUBLIC "-//W3C//DTD SVG 1.1//EN" "http://www.w3.org/Graphics/SVG/1.1/DTD/svg11.dtd" >
<svg xmlns="http://www.w3.org/2000/svg" xmlns:xlink="http://www.w3.org/1999/xlink" version="1.1" viewBox="-10 0 266 256">
   <path fill="currentColor"
d="M141 140h-1q-2 1 -2 2v65q0 7 3 11t8 5t11 1h12h6t7.5 -1.5t6.5 -3.5t3 -7v-66q0 -3 -1 -4t-3 -2t-3.5 -1h-3.5v24l-3 3l-3.5 0.5t-8 1t-9.5 0.5h-8h-3h-1.5t-1.5 -2v-19q0 -2 -2 -4.5t-3 -2.5zM62 212q1 5 4 7t6.5 3t7 1h7.5h10t9 -1.5t6.5 -5t2.5 -9.5v-63l-1 -4
q-1 0 -2 -0.5t-2 -0.5t-4 0.5t-3 3.5t1 6.5t1 8.5q0 4 -1.5 7.5t-6.5 3.5q-1 0 -2.5 -0.5l-1.5 -0.5h-6t-7.5 -0.5t-6 -1l-2.5 -0.5l-3 -1v-19q0 -2 -2 -2.5l-2 -0.5q-4 0 -4.5 3t-0.5 6v6q0 3 0.5 10.5t1 16.5t1 16.5t0.5 10.5zM74 207q0 -1 -0.5 -3.5t-1 -5.5t-1 -5.5
t-0.5 -3.5v-3v-3.5t1 -3.5q2 0 5.5 -0.5t7 -0.5t7 -0.5t4.5 -0.5h3q1 0 3 1t3 2v10q0 6 -0.5 10.5t-2.5 7.5t-5.5 4.5t-9.5 1.5q-4 0 -7.5 -2t-5.5 -5zM146 188q0 -5 4 -7.5t9 -4t10 -1.5h8t5 1.5t2 4.5v1v5.5t-0.5 7t-0.5 7.5v5q-4 5 -10 6t-12 1h-8q-2 -2 -3.5 -5t-2 -7
t-1 -7.5t-0.5 -6.5zM134 54q0 9 -0.5 20t1.5 20.5t7.5 16t18.5 6.5t20 -2t10.5 -7t4 -13.5t0.5 -21.5v-9v-8t-0.5 -8.5t-0.5 -9.5q-1 -2 -3 -2h-3h-1h-2t-2 0.5t-1 1.5v26h-38v-19q0 -1 -1.5 -3t-2.5 -2q-3 0 -4.5 1.5t-2 3.5t-0.5 5v4zM60 105q0 4 3 6t6.5 3t7 1.5t6.5 0.5
t8.5 -1t10.5 -2.5t9 -4t4 -7.5v-61q0 -2 -1 -2h-2q-3 0 -4.5 3t-1.5 6.5t0.5 6.5l0.5 3q-1 2 -2 4.5t-2 2.5h-35v-22l-2.5 -1t-3.5 -1h-1h-1l-0.5 0.5t-0.5 1.5v15v12v11t0.5 11t0.5 14zM145 84q0 -2 0.5 -4.5t2.5 -2.5h33l2 1v3.5v4.5q0 8 -2 13t-5.5 7t-9.5 2h-14
q-3 0 -4.5 -3t-2 -7t-0.5 -8v-6zM69 85v-7q7 -4 15.5 -3.5t17.5 0.5h5l0.5 1.5l0.5 1.5q1 0 1 1v0q0 1 -1 1q0 1 -0.5 3.5t-1 5.5t-1 5.5t-0.5 3.5q-1 2 -3.5 4t-5.5 3t-6 1.5t-6 -0.5q-9 0 -12 -6t-3 -15z" />
</svg>
