<?xml version="1.0" standalone="no"?>
<!DOCTYPE svg PUBLIC "-//W3C//DTD SVG 1.1//EN" "http://www.w3.org/Graphics/SVG/1.1/DTD/svg11.dtd" >
<svg xmlns="http://www.w3.org/2000/svg" xmlns:xlink="http://www.w3.org/1999/xlink" version="1.1" viewBox="-10 0 266 256">
   <path fill="currentColor"
d="M194 249q1 1 2 1.5t2 0.5q2 0 3.5 -0.5t2.5 -3.5v-7t0.5 -11t0.5 -11v-7l0.5 -2t0.5 -3q0 -10 -1.5 -20t-3.5 -20t-3.5 -20t-3.5 -20v-2v-2q0 -5 1 -9.5t1 -10.5v-11q-2 -5 -7.5 -7t-12 -3t-13.5 -0.5t-11 0.5h-3h-4h-5h-3q-1 1 -1 1.5v2.5q0 1 0.5 2t2.5 1h5.5t8 0.5
t8.5 0.5h6q2 1 5.5 1t7.5 0.5t6.5 2.5t2.5 5v4t-1 3.5l-2 3t-2 1.5h-1v-1q-1 0 -2 -1t-2.5 -2t-2.5 -2l-1 -1q-4 -3 -8.5 -4t-10 -2t-10.5 -1h-9h-3.5t-2.5 3q0 2 3 3.5t7 2t7.5 1t5.5 0.5q1 1 4.5 2t6.5 2t5.5 1.5t2.5 1.5l5 5l-2 1q0 1 -4 1h-5q-7 0 -13.5 -1t-13.5 -1h-2
h-2l-1 1.5l-1 1.5v1q0 2 2 3t4.5 1.5t4.5 0.5t4 1h35l2 1q1 12 3.5 23.5t3.5 23.5v8v14v13v8v1.5t0.5 3.5t0.5 3.5v1.5v20zM57 192q0 2 1.5 4t2.5 3h2.5h3.5q1 0 2.5 0.5t2.5 0.5t2.5 -0.5t3.5 -0.5h3h2l4 -1t8 -1.5t7.5 -1.5t4.5 -1q2 0 7.5 -0.5t12 -1l13 -1t9.5 -0.5h4h7
h7h5l3 -2v-8q0 -1 -2.5 -1.5t-3.5 -0.5q-10 0 -19.5 0.5t-20.5 0.5v-22l2 -2q2 0 5.5 -0.5t8 -0.5t8.5 -0.5t5 -0.5q2 0 5.5 -0.5t4.5 -0.5q1 -1 1.5 -2t0.5 -2v0v0q0 -3 -2 -4t-4 -1q-5 0 -10.5 1t-11.5 1h-13q-2 -1 -2.5 -3.5t-0.5 -5.5t-1 -5.5t-5 -2.5t-4 4q0 3 1 5t1 4
q0 4 -3 5t-7 1h-43q-2 0 -2 1v2q0 4 2.5 6t6.5 2q10 0 19 -1.5t19 -1.5h6q2 1 3 3t1 4l-0.5 1.5t-0.5 3.5t-0.5 3.5t-0.5 2.5t-0.5 4.5t-2.5 4.5q-15 0 -28 2t-27 3q-1 0 -2 1t-1 2v1zM55 113q4 4 8.5 6.5t9.5 3.5t10.5 1.5t10.5 0.5h5t6 -0.5t5 -0.5h3h2.5t5 -0.5t4 -1.5
t1.5 -3q0 -3 -2 -4t-5 -1q-5 0 -10 1t-10 1q-6 0 -13 -0.5t-13 -2.5l-1.5 -1.5l-0.5 -0.5q-3 -7 -4 -11t-1 -11v-2v-2q2 -2 4 -2h4q3 0 6 0.5t3 4.5l-0.5 2t-1 4.5t-0.5 4.5v2v3.5v3.5q5 0 7.5 -2t3 -5.5t0.5 -8.5v-9q2 -4 3.5 -4.5t3.5 -0.5q3 0 4.5 2t1.5 5.5v8v8t1 5.5
t4 2t4.5 -3t1.5 -5v-2t-0.5 -4t-0.5 -3.5v-2.5v-5v-4t1 -4h3t4.5 -0.5t4.5 -1.5t2 -3q0 -1 -1 -2t-3 -1h-24q-1 0 -1.5 -1t-0.5 -2v-2v-1v-4t2 -3h4q3 0 5.5 1t5.5 2t5.5 2.5t5.5 1.5v-11q-1 0 -3 -1.5t-5 -3.5t-5 -3t-4.5 -1.5l-5 -1t-4 -2t-1.5 -3.5t0.5 -5t2.5 -3h17
l2 -2.5t2 -3.5q1 0 0 -2t-1 -3h-4h-4q-1 0 -3 1t-4 1.5l-4 1l-2 0.5q-8 1 -15.5 1t-14 1t-11.5 5.5t-8 13.5v27v22q0 12 2 23zM151 71q1 1 4.5 1.5l7 1l7 1t5.5 0.5h3q5 0 9 -1t10 -3q3 -1 3.5 -2.5t0.5 -3.5t-1 -3t-4 -1q-6 0 -10.5 2t-9.5 2q-7 0 -11 -0.5t-11 -1.5
q-2 -1 -2 -2.5v-3.5q0 -6 5 -9h15q2 0 5 -0.5t6 -0.5t5.5 -0.5l2.5 -0.5l8 -6v-19l-1.5 -1t-3 -1.5t-3 -1.5t-2.5 -1h-13q-6 0 -11 1t-11 1q-1 0 -2 -1t-2 -1.5t-2 -1.5t-2 -1q-2 0 -3.5 2.5t-3 6t-2 6.5t-0.5 5t2 3.5t3 1.5q3 -1 4.5 -2t3 -2.5t3.5 -3t4 -2.5q4 -1 8.5 -2
t8.5 -1h4.5t4.5 1t3.5 3t1.5 4v3.5t-2 2.5h-31q-2 0 -4 1.5t-3.5 4t-2 5.5t-0.5 5q0 1 0.5 4t0.5 5t1 4t4 3zM65 66v-1q2 -1 4.5 -3t5.5 -4t5.5 -4t5.5 -3h1h1q2 0 3 1.5t1.5 3.5t0 4t-0.5 3v3v3q-1 2 -3 3t-5 1h-5.5h-3.5h-4.5h-4.5q0 -1 -0.5 -3l-0.5 -2v-2zM85 28
q3 0 4.5 0.5t1.5 3.5q0 2 -1 4t-3 4q-1 1 -4 3t-6 4.5t-5.5 4.5t-3.5 3q-1 0 -2 0.5l-1 0.5v-6q0 -9 4.5 -15.5t15.5 -6.5z" />
</svg>
