<?xml version="1.0" standalone="no"?>
<!DOCTYPE svg PUBLIC "-//W3C//DTD SVG 1.1//EN" "http://www.w3.org/Graphics/SVG/1.1/DTD/svg11.dtd" >
<svg xmlns="http://www.w3.org/2000/svg" xmlns:xlink="http://www.w3.org/1999/xlink" version="1.1" viewBox="-10 0 266 256">
   <path fill="currentColor"
d="M205 249q0 2 1 2h3q6 0 6.5 -4.5t0.5 -9.5q0 -2 -0.5 -7l-1 -10t-1.5 -10t-2 -7v-25.5t-0.5 -25.5t-1 -25.5t-0.5 -25.5q-1 -1 -1.5 -3.5t-0.5 -4.5t0.5 -4t0.5 -3q0 -2 -1.5 -7t-4 -9.5t-5 -8.5t-5.5 -4h-42q-3 0 -3.5 -2.5t-0.5 -3.5q0 -3 0.5 -7.5t2 -9t3.5 -8t7 -3.5
q1 0 3 0.5t2 1.5l3 15q1 3 4 4t7 1h7.5h4.5h11q2 -1 3.5 -2t1.5 -3t-1.5 -3.5t-3.5 -1.5h-24q-2 0 -2.5 -2t-0.5 -4t1 -4.5t4 -2.5h24q2 0 2.5 -2t0.5 -4t-0.5 -3.5t-2.5 -2.5h-9h-9q-1 0 -5.5 0.5t-9.5 1t-9.5 1t-5.5 1.5q-1 0 -4.5 1t-3.5 2q-5 2 -6.5 8t-2.5 12.5
t-1.5 12t-1.5 5.5h-1q-1 0 -2.5 -0.5t-3.5 -0.5t-3.5 -0.5l-1.5 -0.5q-2 -2 -3 -6.5t-1 -10v-11v-8.5q0 -1 -2 -3t-3 -2v0h-1q-1 0 -2 1.5l-1 1.5v3t-0.5 3.5t-0.5 3.5v2q0 11 0.5 17.5t3 10t8 6.5t14.5 5q1 0 2 1t2 1v5q0 5 -3 7t-6.5 2.5t-7.5 1t-6 4.5q0 1 -0.5 3.5l-1 5
t-1 5.5t-0.5 4v4v6v6v4q-2 29 -3.5 57.5t-1.5 58.5v1q2 2 3 3.5t3 1.5q3 0 4.5 -1.5t2.5 -3.5q0 -3 -0.5 -10t-0.5 -15t-0.5 -15t-0.5 -10v-2v-2.5t-0.5 -5.5t-0.5 -5.5v-2.5v-1v-1v-6t0.5 -8t0.5 -7v-3q0 -1 0.5 -2t0.5 -2.5t0.5 -2.5t0.5 -2v-11t1 -16.5t3.5 -15t7.5 -6.5
q4 0 6 3t3 7t2.5 7t6.5 3h28q4 0 4.5 -1t0.5 -4v-2q0 -3 -2 -3h-29q-2 0 -3.5 -1.5t-1.5 -3.5v-1.5v-0.5l3 -3l2 -2l27 -3q3 0 4 -2t1 -5h-35q-3 0 -4 -3t-1 -5t1 -3t2.5 -1.5t3.5 -0.5h3h3h6h6h5h4h4h4h1l6 5q0 1 0.5 3t1 5.5t1.5 6.5t1 5q0 1 0.5 3t0.5 4.5t0.5 4.5t0.5 3
v1t0.5 2t0.5 2v1v2.5t-0.5 3.5t-0.5 3.5v2.5v1.5v1.5v2v2v2t0.5 4t0.5 4v3q0 4 -2 5.5t-5 1.5q-4 0 -7.5 -0.5t-6 -1.5t-4.5 -3.5t-2 -7.5q0 -3 2 -4.5t5 -2t6 -0.5h5q1 -1 1.5 -2t0.5 -2q0 -2 -2.5 -3.5t-4.5 -1.5q-1 0 -2 0.5t-3 0.5t-3 0.5t-2 0.5q-2 0 -8.5 0.5
t-13.5 0.5t-13.5 0.5t-9.5 0.5q-2 0 -5 1.5t-3 3.5v1q1 1 2 2.5l1 1.5h16q2 0 2 1.5v2.5q0 5 -2.5 8t-6 5t-6.5 4t-3 4v1q1 0 3.5 0.5t3.5 0.5q5 0 8.5 -2t5 -5.5t2.5 -7.5t2 -7.5t2.5 -6t5.5 -2.5q2 0 3.5 0.5t2.5 3.5l0.5 2.5t1 4.5l1 4t0.5 3q1 2 3 4.5t4 2.5h25l2 8v7
v11v12v12v10.5v6.5t0.5 5.5t0.5 7.5t0.5 7.5t0.5 4.5zM138 243q0 2 2 3.5t3 1.5h2q5 -3 11.5 -6.5t12.5 -8t10.5 -9.5t4.5 -12q0 -5 -3 -9.5t-6 -7.5t-6 -5.5t-3 -4.5t0.5 -4t2.5 -3h6q5 0 9.5 -0.5t8.5 -1.5t4 -4q0 -1 -0.5 -2.5t-2.5 -1.5h-11h-10q-3 1 -8.5 1t-11.5 0.5
t-11.5 1t-7.5 1.5l-1.5 0.5t-2.5 1.5l-2 2t-1 2q0 2 2 3t4 1q5 0 10 -1t11 -1q3 0 3.5 1t0.5 3v3.5t1 5.5q1 2 3.5 3.5t4.5 3.5t4 4.5t2 5.5t-1.5 5.5t-4 4.5l-5 4t-4.5 4q-1 0 -3.5 2t-5.5 3.5t-5.5 3t-3.5 2.5l-0.5 1.5t-0.5 2.5h-1zM42 168q0 2 2 4.5t4 2.5q1 0 3.5 -0.5
t3.5 -1.5q1 0 2.5 -0.5t2.5 -0.5q3 -1 10.5 -1.5t14 -1t12 -2.5t5.5 -5t-2.5 -4t-5.5 -1.5t-6 0t-4 0.5l-2 -2v-2t-0.5 -5t-0.5 -6v-5v-20v-20q0 -4 3 -5.5t7 -2t7.5 -1t3.5 -3.5q0 -1 -1 -3t-3 -3q-4 1 -7.5 1t-6.5 -2l-2 -2v-61q0 -2 -1.5 -2.5t-2.5 -0.5q-3 0 -4.5 1.5
t-2 3.5t-0.5 5v4q0 13 0.5 26t1.5 26l-1.5 2.5t-2.5 2.5l-22 3q-2 0 -2 1.5v2.5q0 4 2 5t5 1t4.5 -0.5l3 -1l3 -1t3.5 -0.5h2h1l2 3v61q0 2 -4.5 2.5t-10 1t-10 2t-4.5 5.5z" />
</svg>
