<?xml version="1.0" standalone="no"?>
<!DOCTYPE svg PUBLIC "-//W3C//DTD SVG 1.1//EN" "http://www.w3.org/Graphics/SVG/1.1/DTD/svg11.dtd" >
<svg xmlns="http://www.w3.org/2000/svg" xmlns:xlink="http://www.w3.org/1999/xlink" version="1.1" viewBox="-10 0 266 256">
   <path fill="currentColor"
d="M67 244q0 2 0.5 4t2.5 2q6 0 12 -6.5t11.5 -15.5t9 -17.5t4.5 -13.5q3 -2 5 -7.5t4 -12t3.5 -14t3 -13.5t3.5 -9.5t5 -3.5h1q0 1 1 2.5t1.5 3l1 3t1.5 2.5l2 2t3 2q1 3 1.5 7t1.5 7t5 10t9 15.5t11 17.5t11.5 17t10 12.5t6.5 4.5q7 0 7 -6t-3.5 -11t-8 -9.5t-9.5 -9
t-8 -10.5q0 -1 -1.5 -3.5t-3 -5.5l-3 -6l-1.5 -3q-1 -1 -2.5 -3.5t-2.5 -3.5t-3.5 -7t-5.5 -12.5t-5.5 -11.5t-2.5 -6t-0.5 -3t-1 -5t-1 -5.5l-0.5 -2.5v-2q0 -2 2.5 -6t6.5 -8t7.5 -6.5t6.5 -2.5t6.5 2.5t6.5 6.5t5 8l3 6h4q3 0 4.5 -0.5t1.5 -4.5q0 -2 -0.5 -4t-1.5 -3
l-24 -25l-8 -3l-1.5 1t-1.5 2l-1.5 2t-2.5 4t-2.5 4l-1.5 2q-1 2 -2.5 3.5t-3.5 3t-3.5 3l-1.5 1.5h-3v-48q0 -1 0.5 -3t0.5 -3h3q5 0 11 1.5t12.5 3.5t12.5 4.5t10 4.5l2 2l2 2t2 1.5t3 0.5q3 0 5 -0.5t2 -3.5q0 -6 -4.5 -9.5t-11.5 -6t-15.5 -4t-16 -3t-13 -3t-7.5 -4.5
q1 0 1.5 -2l1 -4t0.5 -3.5v-2.5q1 -4 0 -7.5t-5 -3.5t-6 3t-2 7t0.5 8.5t0.5 6.5l-2 1q-1 0 -3 0.5t-5 1t-5.5 1t-3.5 0.5q-2 1 -7 2t-11 2.5t-12.5 4t-11.5 5t-8.5 5.5t-3.5 7q0 2 1.5 3t3.5 1q3 0 6 -1t5.5 -3l5 -4t5.5 -3q9 -5 19.5 -8t20.5 -3h4l2 3v48q0 1 -0.5 2.5
t-1.5 3t-2 2.5t-2 1l-2 -1q-2 -3 -5.5 -8t-7.5 -9.5t-8.5 -8.5t-7.5 -4q-2 0 -4.5 2.5t-5.5 6.5t-6 9t-5 10t-4 9t-2 6l0.5 1.5t0.5 2.5l1.5 0.5l1.5 0.5h1q2 0 4 -1.5t3 -3.5l11 -21q1 -3 2.5 -3h3.5q3 0 4.5 0.5t3.5 2.5l4 4t6.5 6t6.5 6l4 4l0.5 1t0.5 2v1v1l-0.5 2
t-1 2.5t-1 2.5t-2 4.5t-2.5 4.5l-1 2q-3 10 -5 20.5t-4 19.5q-1 3 -3.5 8t-5.5 10.5l-6 11t-4 7.5l-4 6t-5 6t-5 5.5t-4 4.5v2z" />
</svg>
