<?xml version="1.0" standalone="no"?>
<!DOCTYPE svg PUBLIC "-//W3C//DTD SVG 1.1//EN" "http://www.w3.org/Graphics/SVG/1.1/DTD/svg11.dtd" >
<svg xmlns="http://www.w3.org/2000/svg" xmlns:xlink="http://www.w3.org/1999/xlink" version="1.1" viewBox="-10 0 266 256">
   <path fill="currentColor"
d="M170 195q0 6 0.5 10.5t1.5 7.5t2 7t2 10q1 2 1 5t0.5 6.5t2 6t4.5 2.5q4 0 4 -4t-1.5 -7.5t-2.5 -6.5q-3 -11 -4.5 -22.5t-1.5 -22.5v-2v-2.5t0.5 -3.5t0.5 -3.5v-2.5t0.5 -1.5t1.5 -0.5t2.5 0.5t1.5 1.5q1 0 4 1.5l6 3t5.5 2.5t3.5 2h1h1q2 0 4 -1t2 -3q0 -1 -3.5 -3
t-8 -4l-9 -4t-6.5 -2q-2 -1 -5.5 -1.5t-7.5 -1.5t-7 -2.5t-3 -5.5q0 -1 0.5 -2l0.5 -1l22 -8q4 -1 5.5 -5t1.5 -7q0 -4 -2.5 -6.5t-6 -4t-7.5 -1.5t-7 -1q-1 0 -1.5 -1l-0.5 -1v-1q0 -3 4 -4.5t9 -3t9 -4t4 -6.5q0 -5 -2 -7t-5 -3.5t-7 -2t-7.5 -1.5t-5.5 -3.5t-2 -7.5
q0 -3 1 -6t1 -6q0 -5 -1.5 -9.5t-1.5 -9.5q0 -4 2.5 -6t6.5 -2q5 0 6.5 5.5t3.5 12.5t4.5 12.5t8.5 5.5q2 0 4 -1t2 -3q0 -3 -2 -5.5t-5 -5.5t-5 -7t-2 -9v-5q1 0 5 -0.5t6 -0.5q2 -1 2.5 -1.5t0.5 -1.5q0 -3 -2 -3.5t-4 -0.5q-6 0 -16.5 0.5t-20.5 3t-17.5 8t-7.5 14.5v5
t0.5 6.5t1.5 5.5t4 2h0.5h0.5l0.5 -0.5l0.5 -0.5q0 -3 -0.5 -8t0.5 -10t3 -9t7 -4h3q1 7 2 14.5t4 14.5v1q0 8 -2 12.5t-5 6t-6.5 2t-6.5 1.5t-5 3t-2 7q0 6 3 8t7 2.5t8 0.5t5 3q1 0 0 2t-1 3q-2 0 -6 1t-8 3t-7 4t-3 5q-1 7 2.5 9t8.5 4t9 3.5t4 5.5q0 5 -2.5 7.5
t-6.5 4.5t-8 3t-7 2l-5 2.5t-6.5 3t-6.5 3t-4 2.5q-1 0 -1.5 2t-0.5 3q6 0 10 -2t7.5 -4.5t7 -4.5t8.5 -2q3 0 3.5 3t0.5 5q0 18 -2 32t-7 30v1q0 1 1 1.5t2 0.5q3 0 5 -3t3 -7.5t2 -8.5t1 -6q0 -1 0.5 -4t0.5 -6.5t0.5 -6.5t0.5 -4v-28q1 -5 4.5 -6t8.5 -1h3h2l3 4v2v3
q0 5 -1 10t-1 10zM97 244q2 2 4.5 2h4.5v-7l-1 -2t-2.5 -4.5t-3 -5.5l-2.5 -5q-3 -5 -4.5 -11t-4.5 -12v-2v-4v-3v-3q0 -8 0.5 -17t5.5 -16l1 -1t2 -2.5t2 -2.5t1 -2q2 -5 3.5 -12t1.5 -12q0 -4 -1 -7.5t-2 -6.5l-2 -6t-1 -6q0 -4 1.5 -6t4.5 -3.5t5 -3.5t2 -5
q0 -1 0.5 -4.5t0.5 -4.5q0 -6 -2.5 -12t-2.5 -12v-1q1 0 2.5 -0.5t3.5 -1t3.5 -1.5t1.5 -3q0 -1 -2 -2t-3 -1q-7 0 -13.5 1.5t-13.5 1.5t-7 -7q0 -4 1 -7t1 -6q0 -2 -1 -5t-3 -3h-0.5h-0.5l-4 6v25q0 3 -4 5t-9 5t-9 8.5t-4 15.5q0 6 1 13t5 12q2 3 5.5 7t3.5 9v1l-7 17
l-8 40v1.5v2.5v4t3 2q2 0 4 -4.5t3 -11t2 -14t2 -14.5t3.5 -11t5.5 -4q2 0 4 0.5t4 0.5t2.5 -1.5t1.5 -2.5l-3.5 -3.5l-2.5 -2.5v-1v-1q1 -1 2.5 -3t3 -3.5t4 -3t4.5 -1.5t4 2t3 5.5t1.5 6.5t0.5 5q0 9 -4 16t-7 14q-4 10 -6.5 19.5t-2.5 20.5q0 7 1.5 14t4.5 13.5t6 12.5z
M141 134q0 -4 2.5 -6t6.5 -3t8 -0.5t7 0.5h2h3h4.5h1.5q2 0 4.5 2t2.5 4q0 4 -3 6.5t-6.5 3.5t-7.5 1.5t-7 0.5h-5t-6 -1t-5 -3t-2 -5zM55 76q0 -8 1.5 -13t8.5 -10h2h1q4 0 6 3.5t2.5 7.5t1 8.5t1.5 7.5l1 1.5t2.5 3t2.5 3t2 1.5v1v2q0 2 -2 4.5t-4.5 5t-5 3.5t-5.5 1
q-4 0 -7 -3.5t-4.5 -8.5t-2.5 -10t-1 -8zM141 98q0 -2 4 -3.5t8.5 -2.5t8.5 -1.5t5 -0.5t4.5 0.5t4.5 0.5q2 0 5 2t3 5q0 2 -3.5 4t-8 2.5t-8.5 1t-6 0.5h-5t-5.5 -1t-4.5 -2.5t-2 -4.5zM82 53q0 -2 0.5 -5t2.5 -3h14q1 0 2 3.5t1.5 7.5t0.5 7.5v3.5v10q-1 3 -4.5 6t-6.5 3
q-2 0 -4 -4.5t-3.5 -10t-2 -11t-0.5 -7.5z" />
</svg>
