<?xml version="1.0" standalone="no"?>
<!DOCTYPE svg PUBLIC "-//W3C//DTD SVG 1.1//EN" "http://www.w3.org/Graphics/SVG/1.1/DTD/svg11.dtd" >
<svg xmlns="http://www.w3.org/2000/svg" xmlns:xlink="http://www.w3.org/1999/xlink" version="1.1" viewBox="-10 0 266 256">
   <path fill="currentColor"
d="M194 249l1.5 1.5t1.5 0.5q3 0 5.5 -2.5t2.5 -5.5v-74q-2 -12 -3 -25.5t-1 -27v-27v-25.5q-1 -9 -2 -14t-3.5 -7.5t-7.5 -3.5t-13 -2q-3 0 -9 -0.5t-13 -1t-13 -1t-8 -0.5q-2 -1 -2 -3.5v-2.5q0 -3 1 -5t1 -5q0 -5 -4 -5.5t-7 -0.5v20l-3 2h-3t-7 0.5t-7 0.5q-2 0 -8 0.5
t-13 1.5t-12.5 2.5t-5.5 3.5q-1 1 -2 4.5t-1 4.5q-3 22 -4 44t-1 44v44t-2 44v5v6q1 1 2 1h2q2 0 4 -2.5t2 -4.5v-43l0.5 -3t0.5 -4v-7v-11v-12v-6q0 -9 0.5 -19t1 -20.5t1 -20.5t2.5 -19l1 -1l2 -2v0q8 0 11.5 2t3.5 10q0 37 -2.5 73.5t-2.5 74.5q0 2 0.5 4t2.5 2
q3 0 4.5 -2t2 -5t0.5 -6.5v-4.5v-5v-9t0.5 -11t0.5 -11v-9v-5v-23v-22t0.5 -21.5t1.5 -22.5q1 -2 2.5 -2.5t3.5 -0.5t3.5 0.5t2.5 2.5v3v4v4v2q0 9 -1 16t-1 15q0 14 0.5 28t1.5 27.5t1.5 27t0.5 27.5q-1 2 0.5 2.5t2.5 0.5q3 0 5 -1.5t2 -4.5q0 -24 -2.5 -48.5t-2.5 -49.5
v-5v-8q0 -5 0.5 -8.5t0.5 -5.5q1 -6 1 -10v-10v-2v-3.5v-2.5v-2q-1 -4 -3.5 -5.5t-6 -2.5t-7 -1.5t-6.5 -1.5h-4h-7h-6h-4q-2 0 -2 -1.5v-2.5q0 -4 4.5 -6.5t10 -3.5t11 -1.5t8.5 -0.5h17q16 0 32.5 1t32.5 3q1 0 3 1t3 2q0 22 1.5 43.5t1.5 42.5q0 4 0.5 13t0.5 20v24v23
t-0.5 20t-0.5 13zM126 109v3v8t0.5 10.5t0.5 9.5v5q0 5 1.5 9.5t3.5 7.5t6 5t9 2q1 0 3.5 -0.5l2.5 -0.5h11t11 -1.5t8.5 -5t3.5 -11.5v-41q0 -8 -3 -10.5t-7 -3t-9 -1t-9 -3.5v-4v-2t0.5 -4t1.5 -3.5l1 -1.5l19 -3l1.5 -1.5l1.5 -1.5l-0.5 -1.5t-1.5 -1.5l-0.5 -0.5
t-0.5 -1.5h-22h-9h-7t-6.5 0.5t-7.5 1.5l-1.5 0.5l-3 1t-2.5 1t-1 1.5t1.5 2t3.5 1t6.5 -0.5t9 0t8 2t3.5 6.5v2q0 1 -0.5 4t-0.5 5q-5 0 -9.5 0.5t-8.5 2t-6 4.5t-2 9zM138 157l2 -2.5t5 -5.5t5.5 -6t2.5 -4l2.5 -2.5t2.5 -1.5l2.5 2t5 5t5 5.5l2.5 2.5l0.5 2t0.5 3
t-0.5 2.5l-0.5 1.5l-4 1h-28q-2 0 -2.5 -0.5t-0.5 -2.5zM135 141q0 -1 -0.5 -3t-0.5 -4.5v-5v-2.5l-0.5 -0.5l-0.5 -0.5l0.5 -0.5l0.5 -0.5v-5t0.5 -6t0.5 -5v-2q0 -1 1.5 -3.5t3.5 -2.5h13v24l-0.5 2t-2 4t-3 4.5t-2.5 3.5q-1 3 -2 3.5t-4 0.5h-3q-1 0 -1 -1zM161 113
q0 -6 1 -9.5t8 -3.5q4 0 5 1t1.5 3t0.5 4.5t2 5.5v27q0 1 -2 1h-2q-3 0 -5.5 -3.5t-4.5 -8.5t-3 -10t-1 -7z" />
</svg>
