<?xml version="1.0" standalone="no"?>
<!DOCTYPE svg PUBLIC "-//W3C//DTD SVG 1.1//EN" "http://www.w3.org/Graphics/SVG/1.1/DTD/svg11.dtd" >
<svg xmlns="http://www.w3.org/2000/svg" xmlns:xlink="http://www.w3.org/1999/xlink" version="1.1" viewBox="-10 0 266 256">
   <path fill="currentColor"
d="M196 250q1 2 4 2q2 0 3 -2t1 -5v-6v-3q0 -5 -1 -10t-1 -10v-1q1 -1 1.5 -4.5t0.5 -4.5q-1 -20 -0.5 -41t0 -42t-2 -41t-6.5 -40q-2 -4 -10.5 -5.5t-19 -2t-20 0t-13.5 0.5q0 -5 0.5 -9.5t0.5 -9.5q0 -2 -1 -3.5t-3 -2t-4 -0.5h-4q0 4 1 9t1 10q0 1 -1 3.5t-3 3.5
q-6 -1 -14.5 -1t-17 1t-16 4.5t-11.5 9.5q-2 3 -3 6.5t-1 7t-0.5 7.5t-1.5 7q0 21 -1 42l-2 42t-1.5 42t-0.5 42q0 3 0.5 3.5t3.5 0.5q4 0 5.5 -3.5t1.5 -8v-9.5t1 -8v-59l1 -8l1 -69q3 -9 3.5 -16t3 -12.5t8 -8.5t17.5 -3q4 0 5 3.5t1 6.5q0 6 -2 8.5t-5 3.5t-6.5 1.5t-6 1
t-4.5 2.5t-2 7q5 0 9.5 -2t9.5 -2h3t2 1v12l-1 0.5t-2 0.5q-2 0 -4.5 1t-6 1.5t-6 1.5t-3.5 1t-1.5 0.5t-0.5 1.5v0q0 2 2 2.5t3 0.5q4 0 8.5 -1.5t9.5 -1.5v0q1 0 1.5 0.5l0.5 0.5v13q-1 0 -5 1t-8 2.5t-7.5 2.5t-4.5 2q-2 0 -2.5 0.5t-0.5 1.5q0 3 1 3.5t3 0.5
q5 0 9.5 -2.5t9.5 -2.5q1 0 2 0.5t1 2.5v18q0 1 1.5 1h2.5h1.5t0.5 -1q2 -3 2.5 -5t0 -4t-0.5 -4.5v-5.5q1 -7 5.5 -9.5t9.5 -4t9 -2.5t4 -4q0 -2 -1.5 -2.5t-2.5 -0.5q-3 0 -5 1l-4 2t-4.5 2t-4.5 1q-3 0 -4.5 -1t-1.5 -4q0 -5 4 -7t8.5 -3.5t8.5 -3t3 -4.5l-1.5 -1.5
l-1.5 -1.5h-1h-1l-2 1t-4 1.5t-4 1.5l-2 1h-2h-1q-4 0 -4 -5q0 -2 1 -4.5t2 -4.5q1 0 3.5 -0.5t5.5 -1t5.5 -1t3.5 -1.5q2 0 4 -0.5t2 -3.5t-1.5 -3.5t-3.5 -0.5q-4 0 -7.5 2t-7.5 2h-4q-2 -2 -2 -5v-5q0 -1 0.5 -2.5l0.5 -1.5l3 -4h2.5t6 -0.5t7.5 -0.5h6h12h11.5t12.5 0.5
t11 3t8 7.5q3 10 5 20t2.5 20.5t0.5 21.5v20v11v17v19v20v16.5v10.5q2 10 1 21zM82 237q0 2 1.5 2h2.5q2 0 4 -2l4.5 -4.5t4 -4.5t2.5 -3q0 -1 1.5 -4t3.5 -5.5t3.5 -5.5l2 -4t2 -4.5t3.5 -7.5t3.5 -7.5t2.5 -4.5v0v0q2 0 4 4t5 10.5t6.5 14t7.5 14t8.5 10.5t8.5 4
q2 0 3.5 -0.5t1.5 -2.5t-2 -4.5t-4.5 -5l-5 -5l-4.5 -4.5q-2 -3 -6 -10t-8 -15t-6.5 -15.5t-2.5 -11.5t1 -4.5t4 -0.5q9 0 17 3.5t15 7.5q2 1 5 4t5 3t3.5 -1.5t1.5 -3.5q0 -5 -4 -8t-10 -5t-13 -3.5t-13 -3t-10 -3t-4 -4.5q0 -4 1 -8.5t1 -8.5q0 -3 -1 -5t-5 -2v0v0
q-1 1 -2 1.5l-1 0.5v25l-2.5 2t-4.5 3q-4 1 -11 3.5l-14 5t-12 6t-5 9.5q3 0 5 -0.5t4 -1.5l6 -3l9 -4.5l9 -4.5t6 -2h3h3.5t2.5 1q0 1 0.5 2.5l0.5 1.5q0 4 -4.5 13l-9.5 19t-10.5 18.5t-7.5 11.5q-1 2 -2.5 2.5t-2 1t-1 1.5t-0.5 3zM173 104q0 7 -2 12t-4 9.5l-4 9t-2 8.5
q7 0 9.5 -3.5t5.5 -9.5q0 -1 0.5 -4.5l1 -7l1 -7t0.5 -4.5t0.5 -3.5t0.5 -3.5v-2q0 -4 -3 -7t-7.5 -5t-8 -4.5t-3.5 -7.5q0 -6 2 -11.5t2 -10.5q0 -4 -4 -4h-1v0q-2 2 -3 5.5t-2 8t-1 8.5v6q0 3 1 5.5t1 6.5q0 6 -2.5 12l-5 12t-4.5 12t-2 12q4 0 6 -3.5t4 -8.5t3.5 -10.5
t3 -10.5t3.5 -8t4 -3q2 1 5.5 3t4.5 4v5z" />
</svg>
