<?xml version="1.0" standalone="no"?>
<!DOCTYPE svg PUBLIC "-//W3C//DTD SVG 1.1//EN" "http://www.w3.org/Graphics/SVG/1.1/DTD/svg11.dtd" >
<svg xmlns="http://www.w3.org/2000/svg" xmlns:xlink="http://www.w3.org/1999/xlink" version="1.1" viewBox="-10 0 266 256">
   <path fill="currentColor"
d="M170 195q2 0 5 5.5t5.5 12t4.5 12.5t2 8q0 1 0.5 3t0.5 4t0.5 4l0.5 2q1 3 3 4t5 1t3.5 -2t0.5 -5q0 -4 -0.5 -6.5t-2.5 -5.5q0 -2 -1.5 -6.5t-3.5 -9.5t-3.5 -9.5t-2.5 -6.5q-1 -6 -4.5 -9t-8.5 -4.5t-10 -2t-10 -0.5h-1q-1 0 -3.5 0.5t-3.5 1.5h-38q-2 0 -3 -3.5
t-1 -5.5q0 -8 5 -12.5t12.5 -6.5t15.5 -2.5t14 -1.5q1 0 3 -0.5t4.5 -1t4.5 -1l2 -0.5q7 -1 11 -2t7 -3.5t4.5 -7t1.5 -12.5v-6t-0.5 -10t-2 -9t-3.5 -4t-3.5 1.5t-1.5 3.5v28q0 2 -1.5 5.5t-3.5 4.5q-7 2 -12.5 3.5t-11.5 1.5h-4q-2 -2 -2 -3v-3v-2q0 -1 0.5 -6l1 -10
l1 -10t0.5 -6q1 -6 2 -8.5t3 -3.5t6 -0.5t10 -0.5h1.5t3 -0.5t3 -0.5h1.5h21q4 -1 4 -6v0q0 -1 -0.5 -2l-0.5 -1h-3t-4 -0.5t-4 -0.5h-3q-22 0 -44 2.5t-43 4.5h-2h-3q-2 0 -3.5 1.5l-2.5 2.5q0 1 0.5 1.5t1.5 0.5q0 1 2.5 2.5t3.5 2.5q2 2 2.5 5.5t0.5 8.5v8q0 5 1 8t4.5 4
t7 1.5t8 0t8 0t5.5 2t2 4.5q0 2 -0.5 3.5t-4.5 3.5q-7 1 -14 3t-12 6t-8 10.5t-2 15.5q1 4 3.5 6.5t6 4t7.5 1.5h7t10.5 0.5t15.5 0.5t15.5 -0.5t10.5 -0.5zM55 240q0 2 1 4.5t3 2.5t4 -2t3 -4q0 -2 0.5 -7t1 -11t1 -11t0.5 -7v-3v-2l0.5 -2t1 -3.5l1 -3t0.5 -2.5
q2 -19 1.5 -38.5t0.5 -39.5v-12.5t1.5 -14t5.5 -12t12 -7.5q10 -2 21 -2t21 -2q6 -1 11.5 -3.5t10.5 -2.5q5 -1 9.5 -1.5t8.5 -1.5t6.5 -4.5t2.5 -9.5q0 -10 -5 -17.5t-16 -7.5q-8 0 -16.5 1.5t-16.5 1.5q-7 1 -14 1t-14.5 0.5t-14.5 1.5t-13 4q-1 0 -1.5 1.5l-0.5 1.5v1
q0 2 1 3t3 1.5t3.5 0.5h2.5q10 0 20 -1t20 -2.5t20.5 -3t20.5 -1.5h3h2q3 3 3.5 5t0.5 5q0 5 -6 8.5t-15 5.5t-20 3.5t-22 2.5t-19.5 2.5t-12.5 4.5q-4 2 -5.5 5t-2.5 6.5l-2 7t-3 6.5v19q0 2 -0.5 9t-1 16t-1 19.5t-1 19.5t-0.5 15.5v9.5v4q-2 11 -3.5 21.5t-1.5 20.5z
M104 100q0 -3 2.5 -3.5t5.5 -0.5l2.5 -0.5t5.5 -0.5t6 -0.5t4 -0.5h2q2 0 3.5 0.5t1.5 2.5v22q0 3 -2.5 4t-5.5 1.5t-5.5 0t-3.5 -0.5h-5.5h-4.5q-2 -2 -3.5 -5t-2 -6.5t-0.5 -6.5v-6z" />
</svg>
