<?xml version="1.0" standalone="no"?>
<!DOCTYPE svg PUBLIC "-//W3C//DTD SVG 1.1//EN" "http://www.w3.org/Graphics/SVG/1.1/DTD/svg11.dtd" >
<svg xmlns="http://www.w3.org/2000/svg" xmlns:xlink="http://www.w3.org/1999/xlink" version="1.1" viewBox="-10 0 266 256">
   <path fill="currentColor"
d="M107 246q1 2 2 3.5t4 1.5q2 0 3.5 -2t2 -4.5t1 -5.5t0.5 -5v-4v-8v-8v-4q1 -13 5 -26t10 -24l1 -1h2q4 0 6 4t4 9t3 10.5t2 7.5q3 4 7 11.5t9.5 15t11.5 13.5t12 6q2 0 3 -1.5t1 -4.5t-2 -6.5t-5 -6l-6 -5t-6 -5.5q-5 -6 -10 -12.5t-9 -13.5t-6.5 -14.5t-2.5 -15.5v-2
t1 -1l2 -2t4 -2q1 -1 4.5 -3t7.5 -4.5t7.5 -4t4.5 -2.5v-7q-6 0 -10.5 2t-8.5 4.5t-8 4.5t-8 2q-1 0 -2.5 -3.5t-2 -7.5l-1 -8t-0.5 -5q0 -3 4.5 -4.5t11.5 -1.5h15t14.5 -0.5t11 -1t4.5 -3.5v-2.5t-1 -1.5h-3.5h-2.5q-12 0 -24.5 1t-23.5 2q-4 0 -5.5 -1t-2 -3.5t-0.5 -5
v-4.5v-6l2 -1l1.5 -0.5t3.5 -1t4.5 -1t3.5 -0.5q5 -1 9.5 -1.5t7.5 -2t5 -4.5t2 -9q0 -1 -0.5 -3t-1 -3.5l-1 -3t-2.5 -1.5q-3 0 -4 2t-1.5 4.5t-0.5 5t-2 4.5q-5 4 -13 4h-14v-18q0 -2 -2 -2.5t-3 -0.5h-1h-1q-1 5 -1.5 10t-0.5 10v10.5t-1 10.5v0v0v1v0q0 1 0.5 2t0.5 2
t0.5 2.5l0.5 1.5v1v0q0 1 -0.5 1.5t-1.5 0.5h-26h-5t-6.5 0.5t-6.5 2t-4 3.5l3 3h2h2.5h3.5h2q8 0 15 -1t15 -1h5l5 5l0.5 3.5t1.5 8t2 9.5t2 8v1v2q0 2 -2 4.5t-5 5.5l-6 6t-4 6q-4 10 -6 20t-3.5 20t-2.5 20zM55 243q0 1 1 1.5t2 0.5v0q5 0 6 -5q2 -32 3 -64t4 -64
q0 -1 1 -5.5t1.5 -9t1.5 -9t1 -5.5q1 -3 0.5 -7.5t0 -9l1 -9t3.5 -7.5q5 -6 12.5 -8t15.5 -2q9 -1 20 -1.5t21.5 -0.5h21h20.5q3 -1 4 -2t1 -3t-0.5 -4t-2.5 -2h-54v-12q0 -1 -3 -2.5t-4 -1.5t-2.5 1t-1.5 2v4q0 3 -0.5 5t-1.5 4t-3 3q-12 2 -21.5 1.5t-17 1.5t-12 8
t-6.5 21q0 3 -0.5 9t-1 13t-1 13t-0.5 9q-2 5 -3 12.5t-1.5 15.5t-0.5 15v13q0 4 -1.5 10.5t-1.5 11.5v2l0.5 2t0.5 3.5t0.5 3l0.5 1.5q0 1 -0.5 5.5t-1 9.5t-1 9t-0.5 5v9v9z" />
</svg>
