<?xml version="1.0" standalone="no"?>
<!DOCTYPE svg PUBLIC "-//W3C//DTD SVG 1.1//EN" "http://www.w3.org/Graphics/SVG/1.1/DTD/svg11.dtd" >
<svg xmlns="http://www.w3.org/2000/svg" xmlns:xlink="http://www.w3.org/1999/xlink" version="1.1" viewBox="-10 0 266 256">
   <path fill="currentColor"
d="M124 184v4.5t-0.5 7t-0.5 6.5v4v16q-1 6 -2.5 13t-1.5 14h12l3 -5v-34q0 -1 -0.5 -3.5t-1.5 -3.5v-2q0 -4 1.5 -7.5t1.5 -7.5t-0.5 -7t-0.5 -7q0 -3 1 -5t5 -2t6.5 2.5t4.5 6.5t3 7.5t1 5.5v44q-1 2 -1.5 3.5t-0.5 3.5q0 1 1 3.5t3 2.5h1l2 -0.5t3 -1.5q4 -6 4.5 -11
t0.5 -12q0 -8 -0.5 -19t-3.5 -20.5t-9 -16.5t-18 -7q0 -1 -0.5 -2.5t-0.5 -3.5t-0.5 -4t-0.5 -3q0 -4 3.5 -7t8 -5t8 -5t3.5 -7t-2 -7t-5 -6.5t-5 -7t-2 -7.5q-1 -1 -0.5 -4.5t0.5 -4.5h52q3 0 4 -2t1 -4q0 -4 -2.5 -5.5t-6.5 -1.5h-5t-5 2h-35l-3 -3l-0.5 -2t-0.5 -3
q0 -8 1.5 -16.5t0.5 -16.5q1 -1 2.5 -2t3.5 -1h4h4q4 0 7 1t7 1h3.5h3.5q3 -2 3.5 -2.5t0.5 -2.5q0 -1 -1 -3.5t-3 -2.5h-27q-3 1 -9.5 2t-14 1.5t-14.5 0.5h-11h-2h-3h-3h-2q0 -2 -2.5 -5.5t-4.5 -3.5h-1q-1 0 -2.5 2t-2.5 3v5v6q0 16 3 22.5t9 8.5t16.5 1.5t24.5 0.5v2
q0 6 -7 9q-15 1 -31.5 1.5t-32.5 -0.5q-2 1 -5 2t-3 4q0 2 1.5 3.5t3 1.5h3.5h4h20.5t20.5 -1q5 -1 9.5 -2.5t8.5 -1.5q6 0 7.5 4.5t1.5 9.5q0 1 -5 2.5t-12.5 3t-16.5 3.5t-16.5 4t-13 4t-5.5 3q0 2 1.5 3t3 1h3.5h3q6 0 13 -1.5t13.5 -4t13 -4.5t12.5 -4h2.5h1.5q5 0 8 3
t3 8t-6.5 9t-16 6.5t-20.5 5t-20.5 4t-15.5 4t-6 5.5q0 4 2 4.5t6 0.5q6 0 13 -2t13.5 -4t13.5 -4t14 -2h3l0.5 2.5t0.5 4.5t0.5 4t0.5 3v1v1q-13 1 -19 5.5t-9 11t-4 14.5t-5 17v32l1 1l2 2l1.5 -0.5t1.5 -1.5q1 0 1.5 -0.5l0.5 -0.5q1 -4 1.5 -9t0.5 -10v-9.5v-7.5t2 -9
t5 -12t6.5 -10t7.5 -4h1l0.5 0.5l1.5 1.5l-0.5 2t-0.5 4t0.5 3.5t0.5 2.5t0.5 2zM127 30q2 0 4 1.5t3.5 4t2 5t0.5 4.5q0 3 -0.5 4.5t-4.5 2.5h-8h-9t-10 -0.5t-8 -2.5l-2 -2l-1 -1v-11l4 -1t9.5 -2t11 -1.5t8.5 -0.5z" />
</svg>
