<?xml version="1.0" standalone="no"?>
<!DOCTYPE svg PUBLIC "-//W3C//DTD SVG 1.1//EN" "http://www.w3.org/Graphics/SVG/1.1/DTD/svg11.dtd" >
<svg xmlns="http://www.w3.org/2000/svg" xmlns:xlink="http://www.w3.org/1999/xlink" version="1.1" viewBox="-10 0 266 256">
   <path fill="currentColor"
d="M46 102q0 9 2 14t4.5 8.5t6 4.5t6 2.5t4.5 3.5t2 6v108q0 2 1.5 2h2.5q2 0 3.5 -1.5t2.5 -4t1 -5t1 -4.5v-7v-9v-9v-7q0 -14 -1 -28t-1 -29v-3v-4v-3v-3l8 -4t7 -5.5t5 -7t2 -9.5v-3.5t-0.5 -5.5t-0.5 -5.5t-1 -3.5q0 -2 -1 -2h-2h-2t-1 2q0 1 -0.5 3.5t-0.5 5.5
t-0.5 5.5t-0.5 3.5t-1 3t-1.5 4t-2 3t-3.5 1h-1l-1.5 -0.5t-1.5 -1.5q-1 -5 -1 -8.5t-0.5 -7t-0.5 -7.5v-8v-5.5v-5.5q1 -2 3 -2.5t4 -1.5q5 -3 8 -6t4.5 -7t2 -9t0.5 -11q0 -2 -1 -4t-3 -2q-5 0 -5.5 4.5t-1 9.5t-2 9.5t-5.5 4.5q-2 0 -2.5 -0.5l-1.5 -1.5v-4.5v-4.5v-9
q0 -7 2 -10q1 -2 4 -4t6.5 -4t6 -3.5t2.5 -2.5v-1l-1 -0.5l-1 -0.5h-8q-9 0 -13.5 3.5t-6 9t-1.5 11.5v11.5t-1 9t-5 3.5q-5 0 -6 -6q0 -1 -0.5 -4.5l-1 -7l-1 -7t-0.5 -5.5q-1 -2 -3 -2h-3q-4 0 -4.5 2.5t-0.5 6.5q0 6 1 12t3.5 11t7 8t11.5 3q2 3 2.5 7t0.5 8v8v8v15
q0 3 -1 3.5t-2 0.5q-2 0 -3.5 -1t-2 -3l-1 -4t-1.5 -3v-3t-0.5 -4.5t-0.5 -4.5v-3l-3 -1.5t-3 -0.5t-3.5 2t-1.5 5zM121 162q0 14 2.5 22.5t8.5 13.5t15.5 6.5t21.5 1.5t19.5 -3t11 -8.5t4.5 -14.5t1 -21v-3.5v-5.5v-5.5v-3.5q-3 -3 -7.5 -5t-9 -3t-8 -3t-3.5 -5
q0 -9 2.5 -13.5t5.5 -6t6.5 -2.5l7 -2t5.5 -5t3 -12v-3v-6v-7v-5v-5v-6v-6v-5q0 -3 -3.5 -4t-5.5 -1q-1 1 -1.5 4.5t0 7t0 6t-1.5 2.5h-12q-2 0 -3 -3t-1.5 -7l-1 -8t-0.5 -5q0 -5 4 -7.5t9.5 -3t10.5 0t8 0.5q0 -1 1.5 -2.5t1.5 -3.5l-0.5 -1.5t-1.5 -1.5h-8h-9.5t-17.5 1
t-21.5 2t-21.5 1.5t-16.5 1.5l-6.5 1q2 7 9 7h1h2.5t5 -0.5l5 -1l2.5 -0.5q1 0 3 1t3 1q0 1 0.5 1.5l0.5 0.5v28l-0.5 0.5t-0.5 1.5l-5 2.5t-5 1.5q-3 0 -3.5 -3t-0.5 -7q0 -3 -0.5 -6t-4.5 -3t-5 2.5t-1 6.5q0 3 0.5 10t1.5 14.5t1.5 14t2.5 9.5q1 4 4 4.5t6.5 1t6.5 1
t3 3.5v4v4q0 9 -3 13t-7 7.5t-7 8t-3 13.5zM136 181q0 -6 4 -9t9 -3q3 0 5.5 0.5t5.5 1.5v8v5q0 2 -0.5 4.5t-2 3.5t-4.5 1t-6 -0.5t-5.5 -2t-4 -3.5t-1.5 -6zM169 183q0 -5 1.5 -7.5t4 -4t6.5 -2t8 -0.5q2 0 4 2t2 6q0 3 -2 6t-4.5 4.5t-6 2.5t-5.5 1h-6q-2 -1 -2 -3.5
v-4.5zM152 141q5 0 6 4.5t1 9.5l-0.5 2.5l-0.5 2.5l-1 2h-23q0 -9 4.5 -15t13.5 -6zM169 149q0 -5 1 -8t6 -3q8 0 13.5 4.5t5.5 12.5v3.5t-2 1.5q-1 0 -3 0.5t-4.5 0.5t-5 0.5t-3.5 0.5v0q-6 0 -7 -4t-1 -9zM152 125v-23v-22v-10t0.5 -15t0.5 -15v-10q2 -3 3.5 -4.5
t4.5 -1.5q5 0 6.5 4.5t1.5 9.5v79l-2 13q0 1 -1 1.5t-2.5 0.5h-2.5h-2q-4 0 -5.5 -1.5t-1.5 -5.5zM126 80q0 -4 2.5 -6.5t6.5 -2.5h3.5t2.5 2v5v5t0.5 3.5t0 5.5t-1 5t-3.5 2t-5.5 -2t-3.5 -4.5t-1.5 -6t-0.5 -6.5zM188 65h3h2l1 1l1 1v21q0 1 -1.5 2.5t-3.5 2.5t-4 1.5
t-3 0.5v0q-1 0 -2.5 -1.5t-1.5 -2.5v-20q0 -4 3 -5t6 -1z" />
</svg>
