<?xml version="1.0" standalone="no"?>
<!DOCTYPE svg PUBLIC "-//W3C//DTD SVG 1.1//EN" "http://www.w3.org/Graphics/SVG/1.1/DTD/svg11.dtd" >
<svg xmlns="http://www.w3.org/2000/svg" xmlns:xlink="http://www.w3.org/1999/xlink" version="1.1" viewBox="-10 0 266 256">
   <path fill="currentColor"
d="M95 249l2.5 1t2.5 0q2 0 2 -3v-4q0 -6 -1 -12.5t-1 -13.5q0 -10 1.5 -15t3.5 -7.5t4.5 -2.5t6 -0.5t6.5 -2t5 -5.5q4 -6 6 -13t5 -12q1 -4 2 -5t1.5 -2t0.5 -2.5v-5.5q-5 0 -8 3t-4.5 7.5t-3 9.5t-3.5 9.5t-5.5 7.5t-8.5 3q-2 0 -3 -1.5t-1 -2.5v-1q0 -1 0.5 -2t1.5 -2
t1.5 -2l0.5 -1q0 -1 1 -4l2 -6l2 -6t1.5 -4t1.5 -3.5t2.5 -5t2.5 -5t2 -3.5q2 -3 4.5 -5.5t2.5 -6.5q0 -2 -1.5 -2.5t-3.5 -0.5q-4 0 -7 4.5t-5.5 11t-5 14.5t-4.5 14.5t-4.5 11t-5.5 4.5q-4 0 -5 -3t-1 -7q0 -7 2.5 -15t6.5 -15q1 -2 2 -2.5t1.5 -1t1 -1.5t0.5 -3t-1 -3
t-2 -1q-5 0 -8 6t-5.5 13.5t-3.5 14.5t-1 10q0 13 14 18v3.5v3.5q0 7 -1 13.5t-1 13.5v6t0.5 5.5t0.5 6t1 7.5zM186 245q0 1 2 3t3 2q2 1 3.5 0t2 -3t1 -4.5t0.5 -3.5q0 -8 -1.5 -16l-3 -16l-3 -16t-1.5 -16v-5l1 -1l2 -2t2.5 -2l1.5 -1q2 -5 4.5 -10.5t4 -11.5t2.5 -12.5
t1 -11.5q0 -8 -3.5 -12.5t-8 -7t-11 -3.5t-11.5 -1l-2 -2v-32l3 -4h31l0.5 -1t1 -1.5t1 -2l0.5 -1.5l0.5 -0.5l0.5 -0.5q0 -1 -2.5 -2.5t-3.5 -1.5h-27v-28q0 -4 -1 -5t-3 -1q-4 0 -6 2t-4 5v20v11t-0.5 16.5t-0.5 16v10.5q-1 3 -3.5 3h-4.5h-4t-2 3q0 1 1 2.5t2 3.5
q2 0 5 -0.5t6 -0.5q4 0 7 0.5t5 0.5h6q3 0 6 0.5t5.5 2t4.5 5.5v4.5v5.5t-0.5 7t-1.5 10t-3.5 9t-4.5 4q-1 0 -1.5 -0.5t-0.5 -1.5q-3 -5 -6 -9t-7.5 -6.5t-10 -4t-12.5 -1.5v8q6 1 11.5 2.5t9.5 4.5t6 8t2 12q0 4 -6 5.5t-13 2.5t-13 2t-6 5q0 1 0.5 1.5l1.5 1.5h5h5
q7 0 12 -1.5t11 -1.5q3 0 4.5 2t2 5.5l1 7t0.5 4.5q1 3 1 7.5t1 10t1 10t1 6.5v13zM51 245q0 1 2 2.5t3 1.5q2 0 3 -1t1.5 -2.5t0.5 -3v-2.5v-5v-6t-0.5 -12t-0.5 -14.5v-14t-0.5 -11.5t-0.5 -7v-1q0 -13 5.5 -24.5t15.5 -19.5q2 -2 5 -3.5t5.5 -3t4.5 -3.5t4 -5q3 -8 4 -16
t1 -17q1 -2 4 -3.5l6 -3t5 -3t2 -3.5t-1 -3t-2.5 -1h-3h-3.5q-10 0 -19 0.5t-19 1.5q-3 -1 -3.5 0.5t-0.5 3.5l0.5 2t1.5 2h23q0 8 0.5 13.5t0 10.5t-3 10t-8.5 10q-6 4 -11.5 8t-10.5 10q-3 4 -5 9.5t-3 11t-1.5 11t-2.5 10.5v6v8.5v8.5v6v8.5v11.5t0.5 12t1.5 10zM112 97
q0 2 2 3.5t4 1.5q8 0 13 -3.5t7 -9t2.5 -12.5t0.5 -13q0 -10 -1.5 -15.5t-5 -8t-9.5 -3.5t-15 -2q-2 0 -6.5 -0.5t-6.5 -2.5v-3v-5v-4v-3q0 -2 -1 -4.5t-3 -2.5h-1l-2.5 1t-2.5 2v17l-6 6h-25q-2 0 -3 3t-2 6.5t-1.5 7t-0.5 4.5v8.5t0.5 7.5l1 8t1.5 9q5 6 11 8t13 2h3h2
q2 -1 2 -1.5v-1.5v-2t-2 -1q-8 -1 -12.5 -2.5t-6 -4.5t-1.5 -8v-13v-3.5v-4.5v-5v-3q2 -4 6 -6t9.5 -2.5t11 0t9.5 0.5t9.5 -0.5t10.5 0t9 2.5t5 8v2v4v4v3v7v5.5t-1 5t-3 5.5q-1 3 -3.5 3.5l-5 1t-4.5 1t-2 3.5z" />
</svg>
