<?xml version="1.0" standalone="no"?>
<!DOCTYPE svg PUBLIC "-//W3C//DTD SVG 1.1//EN" "http://www.w3.org/Graphics/SVG/1.1/DTD/svg11.dtd" >
<svg xmlns="http://www.w3.org/2000/svg" xmlns:xlink="http://www.w3.org/1999/xlink" version="1.1" viewBox="-10 0 266 256">
   <path fill="currentColor"
d="M85 245v1q1 0 1.5 1t0.5 2h4q3 0 7 -3.5t8 -9t8 -11.5t7.5 -11.5t7 -9t5.5 -3.5t6 4.5t8 9.5t7 10t5 7l3 3t5 4.5t5 4.5l3 3h3h2h5.5t1.5 -4q0 -2 -0.5 -2.5t-3.5 -2.5q0 -1 -3 -3t-6 -4.5t-5.5 -4.5t-3.5 -2q-3 -3 -7.5 -7t-9 -9t-7.5 -10.5t-3 -10.5q0 -2 -0.5 -7
t-0.5 -11t-0.5 -11t-0.5 -7q0 -1 -1.5 -3t-3.5 -2t-3.5 2t-1.5 4q0 8 1 16.5t1 16.5q0 6 -2.5 11t-6 9.5t-8 8.5t-7.5 8t-4.5 7.5t-5.5 6.5q0 1 -1.5 1.5t-3.5 2t-3.5 3t-1.5 2.5zM80 208q0 5 3 5h1h1q6 -5 9.5 -9.5t6 -9t4 -10t3.5 -12.5v-3q0 -2 -0.5 -4.5t-2.5 -4.5
q-2 1 -4 6.5t-4.5 12t-5 12.5t-4.5 9l-1 1t-2.5 2t-2.5 2l-1 1v2zM155 168q0 4 3.5 11t9 14t11.5 12t11 5q1 0 2.5 -2t1.5 -3t-1 -2.5t-2 -2.5l-2 -1.5l-4 -3t-3.5 -3l-1.5 -1.5l-3 -3t-4 -3.5t-3.5 -3l-1.5 -1.5q-1 -1 -2 -4.5t-2.5 -7t-3 -6.5t-2.5 -3h-1q-1 0 -1.5 0.5
l-0.5 0.5v4v4zM64 159q0 3 3 4q8 -1 17 -5.5t18.5 -10t17.5 -9.5t14 -4t11.5 2t10.5 4.5l10 5t10 4.5q1 0 2.5 0.5l3 1t3 0.5t1.5 1q3 1 6.5 3.5t7.5 2.5q3 0 3.5 -1t0.5 -4v-2q0 -2 -2 -2l-29 -11h-1q-1 -1 -2.5 -1.5l-1.5 -0.5q-1 -1 -5 -2.5t-8 -2.5t-7.5 -2.5t-5.5 -2.5
q-2 0 -2.5 -2.5l-1 -5t0 -5.5t0.5 -4v-6q2 -2 3.5 -2h3.5q6 0 12.5 1.5t12.5 3.5t12.5 5t10.5 6q1 0 3 2l2 2l1 0.5l1 0.5q4 0 4.5 -1.5t0.5 -4.5v-3t-2 -3q-1 0 -4.5 -1.5l-7 -3t-6.5 -3t-5 -1.5l-1.5 -0.5l-1.5 -0.5q-8 -3 -17 -4t-17 -3q-2 0 -3.5 -1t-2.5 -2.5t-2 -2
t-3 -0.5t-3 1t-1.5 2.5t-1.5 2.5t-3 2q-3 1 -9.5 2.5t-14.5 4t-17 5.5t-16.5 6t-12.5 5.5t-5 5.5q0 2 2 2h3q4 0 6.5 -2t5.5 -3q15 -3 30 -9l30 -12q2 1 3 3.5t1.5 5.5t0.5 6v5t-6.5 6.5t-14.5 8.5t-15.5 7.5t-9.5 4.5t-5.5 1.5t-7 1.5t-6 3t-2.5 5zM95 38v19t3 13t9 7.5
t17 2.5h6t9 -0.5t10.5 -1.5t10 -2.5t7.5 -4t3 -5.5v-36q0 -4 -2 -6.5t-4.5 -4t-5.5 -2.5l-6 -2h-19h-16t-12 2t-7.5 7t-2.5 14zM103 57q0 -3 3.5 -4.5t8.5 -3t11.5 -2t12.5 -0.5h11h8q2 0 4 0.5t2 2.5q0 9 -4 13.5t-9.5 6.5t-13 2h-14.5h-10q-4 -3 -7 -6.5t-3 -8.5zM106 41
q-3 -1 -3 -3.5v-4.5q0 -3 2.5 -6.5t5.5 -3.5h43q2 0 3 1.5t2 3.5t1 4v4v2v3q-1 0 -4.5 0.5t-5.5 0.5h-1h-2h-8t-12.5 -0.5t-12 -0.5h-8.5z" />
</svg>
