<?xml version="1.0" standalone="no"?>
<!DOCTYPE svg PUBLIC "-//W3C//DTD SVG 1.1//EN" "http://www.w3.org/Graphics/SVG/1.1/DTD/svg11.dtd" >
<svg xmlns="http://www.w3.org/2000/svg" xmlns:xlink="http://www.w3.org/1999/xlink" version="1.1" viewBox="-10 0 266 256">
   <path fill="currentColor"
d="M138 249q0 1 1.5 1.5t2.5 0.5t2 -0.5t2 -1.5v-8q0 -5 -1 -9t-1 -8q0 -5 4 -5.5t7 -0.5h47q3 0 3.5 -2t0.5 -3q0 -6 -7 -6q-3 0 -7 1t-8 1h-1.5t-3 -0.5t-2.5 -1t-1 -1.5v-17q0 -2 3 -2h8q5 0 8.5 -1t3.5 -4v-1l-0.5 -1.5l-0.5 -1.5h-24v-20l3 -2h21l0.5 -1.5t0.5 -2.5
v-0.5v-1.5t-0.5 -2t-2.5 -1h-20l-2 -18q0 -2 1 -2.5t3 -0.5t4 1t3.5 2.5t3.5 2t4 0.5l1 -1l2 -2t1.5 -2l0.5 -1q-2 -4 -5.5 -5t-7.5 -2t-7 -2t-3 -5t3 -6t7 -3.5t7 -3.5t3 -5q0 -1 -5 -4.5t-11 -7.5t-11.5 -7t-7.5 -3q-1 0 -4.5 3.5t-7.5 8.5t-7 9.5t-3 5.5q0 4 3 6t6.5 3
t6.5 2t3 4q0 1 -2 4t-4.5 7l-5 8t-2.5 5q-3 10 -4.5 20t-2 20.5t-0.5 20.5v19q0 8 1 15.5t1 15.5zM55 243q0 1 2.5 3t4.5 2q3 0 4.5 -5.5t1.5 -13t0.5 -16.5t1.5 -16.5t4.5 -13t9.5 -5.5l2 0.5t2 1.5v12l-2 0.5t-3 1.5q-1 0 -3.5 0.5l-2.5 0.5v1v1q0 1 2 1.5t3.5 1t3.5 0.5
h2v2v2v3.5t-2 3.5h-2t-3.5 0.5t-3 0.5h-2.5l-0.5 1t-0.5 2q0 2 3 2.5t5 0.5h5t8.5 -0.5t7.5 -1.5t3 -4q0 -2 -1.5 -3t-3 -1t-3 -1t-1.5 -3t1 -3.5t2 -2.5t2 -1.5t1 -2.5v0l-8 -5v-0.5v-1.5q0 -2 1 -5.5t4 -3.5t5 3.5t4 8t3 10t1.5 10.5t0.5 9v5q0 4 -0.5 8.5t-0.5 9.5
q0 3 0.5 4.5t3.5 1.5q7 0 7 -7v-3q0 -1 -0.5 -5t-0.5 -8t-0.5 -7t-0.5 -4q0 -4 -0.5 -8.5t-1.5 -9.5t-2.5 -9.5t-3.5 -6.5q-3 -5 -6.5 -7t-6 -3.5t-4.5 -4.5t-2 -9q0 -5 2 -6.5t4.5 -2.5t5 -1t5 -1t4.5 -4t2 -9v-8q-1 0 -1.5 -1.5l-0.5 -1.5l-16 -3q-1 0 -2 -2.5t-1 -3.5
q0 -2 1.5 -3.5t4 -3t4.5 -3t3 -2.5v-2.5t0.5 -3t0.5 -3.5v-2q1 -3 4.5 -3h7t6.5 -0.5t3 -3.5q0 -2 -2.5 -3t-3.5 -1h-1h-2t-4 0.5t-3.5 1t-2.5 0.5q-2 -2 -2.5 -3t-0.5 -3t0.5 -5.5t2.5 -5.5h20t17.5 -2.5t12.5 -8t5 -17.5v-4.5v-4.5q-2 -6 -6.5 -8.5t-10.5 -3.5t-11 -1h-10
h-12q-2 0 -6 0.5l-8 1l-8 1t-5 0.5q-6 2 -8.5 7t-2.5 10v7.5t1 8.5q4 5 11 7t13 4v2v2v4q0 3 -0.5 6t-1.5 5t-3 2h-16q-2 0 -3 -2.5t-1 -5.5t-1 -5.5t-4 -2.5t-3.5 2.5t-0.5 5.5t-0.5 5.5t-3.5 2.5h-14q-2 0 -2.5 2t-0.5 3v1.5t2 1.5h20l0.5 0.5l0.5 0.5l0.5 1.5t0.5 3.5
t0.5 3.5t0.5 2.5v1v1q2 2 4 3t4 1.5t3.5 2t1.5 3.5t-0.5 3t-3.5 2q-3 0 -6.5 0.5t-6 1t-4.5 2t-5 4.5v3v3q0 5 1.5 7.5t4 4t6.5 2t7 0.5q4 0 5.5 2t2 4.5t0.5 5.5v5v2q0 3 -1.5 4t-4 1.5t-4.5 1t-4 1.5q-7 7 -11 14.5t-5.5 16t-2 17.5t-0.5 19l-0.5 1.5zM144 211v-22
q1 0 4 -0.5t6 -0.5t5.5 -0.5t3.5 -0.5q4 0 4.5 1t0.5 4v1.5v1.5q0 2 -0.5 5.5t-1 6l-0.5 2.5l-1 2h-21zM146 173q0 -1 -0.5 -3.5t0 -5l1 -5t2.5 -2.5h6h6t5 3q0 1 0.5 2.5t0.5 3.5t0.5 3.5t0.5 2.5v2q0 1 -0.5 4t-2.5 3h-16l-3 -3v-2v-3zM50 164q0 2 1 3t4 1q5 0 9 -2
q3 -2 6 -3t5.5 -2t3.5 -3.5t1 -5.5q-2 0 -7 1t-10 3t-9 4.5t-4 3.5zM106 153q0 2 2 4l4 4t4.5 3.5t4.5 1.5q1 0 2.5 -0.5t1.5 -2.5q0 -3 -2 -4.5t-5 -3t-6.5 -2t-5.5 -0.5zM150 142q0 -2 1 -5.5t2.5 -6.5t3.5 -5.5t5 -3.5l2 0.5t2 1.5t0.5 3.5t0.5 5t0.5 5t0.5 3.5v3
q0 3 -2.5 5.5t-6.5 2.5q-5 0 -7 -2t-2 -7zM73 133q0 -9 11 -9q4 0 4.5 3t0.5 6v5q-1 2 -3 2h-4q-4 0 -6.5 -1.5t-2.5 -5.5zM97 130q0 -3 1.5 -3.5t4.5 -0.5t5 1t2 5t-2.5 5.5t-5.5 1.5q-4 0 -4.5 -3t-0.5 -6zM149 99q0 -2 1.5 -5t3.5 -5t4.5 -3.5t5.5 -1.5q2 0 3 0.5t1 2.5
t-0.5 5.5t-1.5 6.5t-2.5 5.5t-3.5 2.5q-1 0 -3 -0.5t-4 -2t-3 -3t-1 -2.5zM83 93v-1v-2q4 -1 6.5 -1h6.5q3 0 4.5 0.5t1.5 4.5q0 5 -4 6t-8 1t-5.5 -2t-1.5 -6zM174 89q2 0 4 1t2 4q0 2 -2 3.5t-4 1.5v-10zM91 45v-1l0.5 -0.5l0.5 -0.5q3 0 10.5 -0.5t15 -0.5t15 -0.5
t10.5 -0.5h16q0 6 -3 9t-8 4t-11 1h-11q-1 0 -6.5 -0.5t-12 -2t-11.5 -3.5t-5 -4zM91 33l-0.5 -1l-0.5 -1q0 -5 5.5 -7t12.5 -2.5t14 -0.5h9h7.5t9 0.5t7.5 2t3 5.5q0 2 -0.5 2.5t-2.5 1.5q-2 0 -8 0.5t-13 0.5t-13 0.5t-8 0.5h-4h-5t-3.5 -0.5t-4 -0.5t-5.5 -1z" />
</svg>
