<?xml version="1.0" standalone="no"?>
<!DOCTYPE svg PUBLIC "-//W3C//DTD SVG 1.1//EN" "http://www.w3.org/Graphics/SVG/1.1/DTD/svg11.dtd" >
<svg xmlns="http://www.w3.org/2000/svg" xmlns:xlink="http://www.w3.org/1999/xlink" version="1.1" viewBox="-10 0 266 256">
   <path fill="currentColor"
d="M81 242q0 1 0.5 3t1.5 2q2 0 3.5 -1t2.5 -3t1.5 -4.5t0.5 -3.5v-93q0 -1 1 -1.5t2 -0.5q2 0 3.5 1.5l3 3l3 3t3.5 1.5q0 3 0.5 9.5t1 14.5t1 15t0.5 9v21q1 1 2 1.5t1 1.5h1q3 0 4.5 -2.5t1.5 -4.5v-4q0 -4 -1 -11.5t-1.5 -16t-1.5 -16t-1 -10.5q-1 -8 -5 -13.5t-8 -9
t-7.5 -5t-3.5 -2.5v-19q0 -2 2 -4.5t5.5 -5t6.5 -5t4 -3.5q2 -3 3 -7t1.5 -8t0.5 -8v-8v-4t-1 -4q0 -1 -1 -2.5t-2 -1.5h-1v0q-1 0 -2 1.5t-2 2.5v4.5t-0.5 8t-0.5 8.5v5q0 2 -1 4l-2 4t-2.5 3.5t-3.5 1.5q-4 0 -5 -3.5t-1.5 -8t0 -9t0.5 -5.5q0 -9 1 -17.5t1 -16.5v-3
t-0.5 -3.5t-1.5 -2.5t-2 -1q-4 0 -6 3t-2 7q0 15 0.5 30t0.5 31q-8 0 -11.5 -4.5t-5 -11t-2 -14t-0.5 -14.5q0 -1 -1.5 -2.5t-2.5 -1.5q-2 0 -3.5 2t-1.5 4q0 9 1.5 20t3.5 21q2 3 6.5 5.5t8.5 4.5t7 5t3 7v1v4.5t-0.5 5.5t-0.5 5v3t-3 3t-7 4.5t-7.5 5.5t-5.5 6
q-1 2 -1.5 6.5t-1 11.5t-1.5 14.5t-1.5 14.5t-0.5 12.5v7.5q0 3 0.5 7.5t4.5 4.5q2 0 4.5 -3.5t2.5 -6.5v-49q2 -3 2.5 -7.5t1.5 -9t3 -7.5t6 -3h2q2 0 2 2t0.5 8t1 12.5t1 12.5t0.5 8t-0.5 10t-1 17.5t-1 17.5t-0.5 10v2zM135 192q0 20 9 28t26 8q4 0 9.5 -1.5t11 -4.5
t9.5 -7.5t4 -10.5v-26q0 -7 -3 -11t-7.5 -6t-10 -2.5t-9.5 -0.5h-3h-4h-4h-2t-2 1t-2 1l-0.5 0.5t-0.5 1.5l3 6h29q3 0 4.5 2.5t2.5 5.5t1.5 6.5t0.5 5.5q0 9 -2.5 14.5t-6.5 8t-9.5 3.5t-13.5 1q-9 0 -13.5 -2.5t-6 -7t-2 -11t-0.5 -14.5v-3.5v-3.5q0 -2 0.5 -8.5t1.5 -14
t3.5 -13.5t5.5 -7l21 -9q7 1 11.5 -1.5t7 -7t3.5 -10.5t1 -12q0 -8 -4 -13t-9.5 -7.5t-12 -4t-12.5 -2.5t-9.5 -3t-3.5 -5v-25l-1.5 -1.5l-2.5 -2.5h-1h-1l-5 2.5t-3 4.5v0q0 2 0.5 4.5t1 5.5t1 5.5l0.5 2.5q0 2 1 5l2 6t2.5 5.5t2.5 3.5q7 3 14 3.5t13.5 2t11 5.5t4.5 14
q0 9 -4 12.5t-9 4.5t-11.5 2t-11.5 4q-7 4 -10 14t-4.5 21t-1.5 21.5v16.5z" />
</svg>
