<?xml version="1.0" standalone="no"?>
<!DOCTYPE svg PUBLIC "-//W3C//DTD SVG 1.1//EN" "http://www.w3.org/Graphics/SVG/1.1/DTD/svg11.dtd" >
<svg xmlns="http://www.w3.org/2000/svg" xmlns:xlink="http://www.w3.org/1999/xlink" version="1.1" viewBox="-10 0 266 256">
   <path fill="currentColor"
d="M176 166q3 0 4.5 2t1.5 5q0 2 1.5 8.5t2.5 14t2.5 14t1.5 7.5q1 3 1.5 8.5t1.5 11t2.5 9t4.5 3.5q1 0 3 -0.5t2 -2.5v-12q-1 -2 -2.5 -8.5l-3 -13t-3 -12.5t-1.5 -8q-1 -7 -3 -15t-2 -15v-2v-2l1.5 -1.5t2.5 -3t2.5 -2.5l1.5 -1q3 -4 3.5 -11t0.5 -11q0 -2 -0.5 -4.5
l-0.5 -2.5q0 -1 -1 -2l-3 -3l-4 -4l-3 -3q-3 -3 -7.5 -4t-9 -1.5t-9 0t-8.5 0.5h-13q-6 0 -13 1q-2 1 -2.5 1.5t-0.5 2.5v1.5t1 1.5h52q3 0 5 2t3.5 4.5t2.5 5t1 4.5v4q0 3 -0.5 6t-1.5 4.5t-3 1.5h-1h-1l-10 -10h-2t-5 -0.5t-6.5 -1t-5.5 -0.5h-11h-5q-5 0 -9 1t-7.5 2.5
t-3.5 4.5v1l1 1l1 1h1q8 0 16.5 -1t17.5 -1h14q3 2 4 5t1 7v2q0 3 -1 3q-2 1 -6.5 1.5t-10 1.5t-11.5 2t-11.5 2t-8.5 2.5t-3 3.5v0q0 1 0.5 1.5l0.5 0.5h3h3q6 0 11.5 -1l11 -2t11.5 -2.5t11 -1.5zM76 232q0 2 1 4.5t3 2.5q1 0 2 -0.5t2.5 -1.5t2.5 -1.5t1 -1.5v-103
q0 -1 1.5 -3t2.5 -2q3 0 4.5 4t2 9.5l1 11t1.5 7.5v63q3 0 5 -2t3 -4.5t1.5 -6t0.5 -5.5q0 -7 -0.5 -18l-1 -22t-2.5 -21.5t-4 -17.5q-2 -5 -4.5 -5.5t-4.5 -1.5t-3.5 -3t-1.5 -9v-6q1 -2 3.5 -3t5.5 -3t6 -3.5t5 -4.5l0.5 -0.5t1.5 -0.5q2 -12 3.5 -22t1.5 -21
q0 -3 -0.5 -6.5t-4.5 -3.5q-3 0 -4.5 2.5t-1.5 6.5t0.5 8t0.5 5t-0.5 4.5t-0.5 7.5t-0.5 7t-0.5 5q-1 2 -3 5t-6 3t-4.5 -3t-1.5 -7q0 -1 0.5 -5t0.5 -8v-7.5v-4.5v-5l1 -32q0 -1 -1 -1.5t-2 -0.5h-1h-1l-2 0.5t-3 1.5q-1 18 -1.5 36t0.5 36q-1 2 -1.5 2h-1.5q-4 0 -6 -3
t-3 -7.5t-1.5 -10.5t-0.5 -11.5t0.5 -10.5t0.5 -8q-1 -2 -2.5 -2.5t-3.5 -0.5h-2.5t-1.5 3v3v4v3v3v8v6t0.5 6.5t1.5 9.5q0 6 3.5 9.5t7.5 5.5t7 3t3 2v18q-12 2 -18 9t-8.5 17t-2.5 21.5t-1 20.5v6t-0.5 10.5t-0.5 10.5v7v2q0 2 1 3.5t3 1.5q4 0 5.5 -7.5t2 -18t0.5 -23
t1 -23.5t3.5 -18t7.5 -7q2 0 3 1.5t2 3.5t1.5 4t0.5 3l-2 76q-1 5 -1.5 8t-0.5 7zM127 201v2.5t1 1.5h6h6h7t10.5 -0.5t10.5 -0.5t7 -1q1 0 1.5 -0.5l0.5 -0.5v-1v-1l-1.5 -1.5l-1.5 -1.5h-4h-4.5h-5.5h-3q-8 0 -15.5 -0.5t-14.5 1.5v3zM133 87q1 3 4 3.5t5 0.5
q0 -5 -0.5 -9t-1.5 -8t-1.5 -7.5t-0.5 -7.5t2 -7.5t7 -3.5q3 0 5 1.5t4 3.5v3t0.5 4.5t0.5 4.5t1 3q0 1 0.5 4t1.5 5.5l2 5t3 2.5h2t2 -1v-6v-6q0 -1 -1 -3t-1 -3q0 -2 -1 -5.5t-1.5 -6l-0.5 -2.5l5 -6l2.5 -0.5t6 -1.5t7 -1.5t5.5 -1.5h3t4.5 -0.5t4.5 -0.5h3
q2 -1 2.5 -1.5t0.5 -2.5t-1 -3.5t-3 -1.5h-1l-63 10q-5 1 -7.5 4.5t-2.5 8.5v1v1q0 2 0.5 6.5t1 9.5t1 9t0.5 6zM182 51q0 2 2 8.5t5.5 13.5t7 12.5t6.5 5.5q1 0 1.5 -0.5l0.5 -0.5l1 -6q0 -1 -1.5 -4t-3 -6.5t-3 -6.5t-1.5 -4q-1 -2 -2 -4.5t-3 -4.5l-4 -4t-4 -2
q-1 0 -1.5 0.5t-0.5 1.5v1z" />
</svg>
