<?xml version="1.0" standalone="no"?>
<!DOCTYPE svg PUBLIC "-//W3C//DTD SVG 1.1//EN" "http://www.w3.org/Graphics/SVG/1.1/DTD/svg11.dtd" >
<svg xmlns="http://www.w3.org/2000/svg" xmlns:xlink="http://www.w3.org/1999/xlink" version="1.1" viewBox="-10 0 266 256">
   <path fill="currentColor"
d="M128 246v3t1 2h8l1 -5l-1 -23v-5v-50q0 -1 1 -1h2q6 0 10 5.5t5.5 13t2.5 15.5t1 12v4.5v7.5v7.5v4.5t1 1.5t2 0.5t3 -2t3 -2v-6q0 -5 -0.5 -9.5l-1 -9t-1 -9.5t-0.5 -10q-1 -6 -2.5 -13t-5.5 -11q-2 -3 -5.5 -4t-6.5 -2t-5.5 -2.5t-2.5 -5.5q0 -5 5 -6.5t11.5 -2t13 0
t9.5 0.5h3q1 0 2 1q0 1 0.5 3.5t1 5.5t1 5.5t0.5 3.5q0 2 0.5 5t1 6.5t2.5 5.5t5 2q1 0 3.5 -1t1.5 -3v-1t-0.5 -2l-1 -2l-0.5 -1q-1 -1 -1.5 -2.5t-0.5 -2.5q-3 -10 -4.5 -19.5t-1.5 -20.5q0 -6 1.5 -11t1.5 -11q0 -2 -1 -3t-4 -1h-1l-2 1t-2 2l-3 33h-1.5t-3.5 0.5
t-4.5 0.5h-3.5h-13h-14q-2 -1 -2.5 -3t-0.5 -4q0 -4 3 -6t6 -3.5t6.5 -3.5t5.5 -5q0 -1 1 -3t2 -4.5l2 -5t1 -3.5q-1 -2 -2 -2.5t-3 -0.5h-2t-2 1q-1 3 -1.5 6.5t-2 6t-3.5 5t-6 2.5v0q-1 -1 -2.5 -2t-1.5 -2v-18q0 -2 -2.5 -2h-2.5q-2 0 -3 0.5t-1.5 1.5t-0.5 2.5v4.5v3.5
t-0.5 5t-0.5 5v3.5q-1 2 -1.5 2h-1.5q-8 0 -11 -4t-4 -8l-2 -8t-5 -4l-0.5 0.5t-0.5 1.5v18q0 1 1.5 2.5t3.5 3t4 2l2 0.5q1 1 3 1t4.5 0.5t4.5 0.5h3l1 1v13h-44l-0.5 -0.5l-0.5 -0.5q-1 0 -1.5 -1.5l-0.5 -1.5l-2 -22l-2 -2t-2.5 -2t-3 -1.5t-2.5 -0.5q-2 0 -2 2v3
q0 5 0.5 9.5t2 9t2.5 9.5t1 10q0 10 -4.5 19l-9.5 19v1q0 2 2 2h3q4 0 7 -3t5 -8t3 -10.5t2 -10t2 -8t3 -3.5h42q1 0 1.5 0.5t0.5 1.5q0 3 -1.5 5t-4 3t-5 2.5t-4.5 2.5q-3 2 -7 7t-6 9q-4 8 -4.5 17.5t-0.5 17.5q0 7 0.5 12t1.5 12q1 1 1.5 1h1.5q2 0 3.5 -1t2.5 -3
q-1 -8 -1.5 -17t0 -18t4 -17.5t10.5 -13.5q2 -2 3 -2.5t3 -0.5h1.5t1.5 1v45q1 4 1.5 8.5t0.5 9.5q0 4 -1 7.5t-1 7.5zM65 80q11 4 23 5t24 1h9l1 -3v-1q0 -2 -4 -2.5t-8.5 -0.5t-8.5 -0.5t-4 -2.5v-13q0 -1 1 -1.5t2 -0.5q3 -1 5.5 -1t4.5 -0.5t3.5 -2t4.5 -3.5
q1 -8 1 -13.5v-12.5v-3v-2.5t-1.5 -3t-2.5 -1.5q-2 0 -3.5 1t-1.5 2v22q0 3 -2.5 6t-5.5 3q-4 0 -5 -2t-2 -7v-30q0 -3 -1.5 -3h-3.5h-3q-1 0 -2 1v8q0 12 1.5 23.5t1.5 23.5v7q-1 2 -2.5 2.5t-2.5 0.5q-8 0 -10 -4t-2 -11q-1 -2 -1 -6t-0.5 -9t-1 -9.5t-0.5 -6.5
q-1 0 -2 -1t-1 -2h-1h-1l-3 3v11v9.5t0.5 11t1.5 10.5t3 8zM135 51q0 2 0.5 7.5t2 11t3.5 9.5t5 4q4 0 4 -4v0q0 -1 -1.5 -2.5t-1.5 -2.5q-1 -5 -2 -11t-1 -11v-3v-3q2 -2 5.5 -4.5t6.5 -2.5q2 0 4 3.5t4 8t3 8.5t2 5q0 1 1 3.5t2 5.5t2 5.5t1 3.5t1 1h2q2 0 4.5 -0.5
t2.5 -3.5q0 -2 -2.5 -6t-5.5 -9t-5.5 -10.5t-2.5 -9.5v-5q1 -2 4.5 -2.5l7 -1t6.5 -1t3 -3.5q0 -1 -0.5 -2t-1.5 -2h-3.5h-2.5h-4.5h-2.5q-2 0 -6 1.5t-9 2.5t-9 2t-5 2q-6 2 -8.5 6t-2.5 10z" />
</svg>
