<?xml version="1.0" standalone="no"?>
<!DOCTYPE svg PUBLIC "-//W3C//DTD SVG 1.1//EN" "http://www.w3.org/Graphics/SVG/1.1/DTD/svg11.dtd" >
<svg xmlns="http://www.w3.org/2000/svg" xmlns:xlink="http://www.w3.org/1999/xlink" version="1.1" viewBox="-10 0 266 256">
   <path fill="currentColor"
d="M182 183q0 2 0.5 5l1 6t0.5 6v4q1 3 2 10.5t2.5 15.5t4 14.5t5.5 6.5t3 -2.5v-4.5q0 -5 -1 -9.5l-2 -9t-2.5 -9t-1.5 -9.5v-2v-4v-3v-3q-1 -3 -2 -5.5t-1.5 -4t-1 -3.5t-0.5 -6l0.5 -1.5l0.5 -1.5l2.5 -2.5t3 -3.5t2.5 -3.5t2 -2.5q1 -2 1.5 -5t0.5 -6t0.5 -6t0.5 -5
v-8.5t-0.5 -9.5t-2 -9.5t-4.5 -7.5q-2 -3 -4.5 -3.5t-4 -1.5t-3 -2.5t-1.5 -6.5v-1q0 -1 0.5 -3t0.5 -4.5v-4.5v-3q1 -2 4.5 -2.5l7 -1t6 -1.5t2.5 -5v0q0 -1 -1.5 -2l-1.5 -1h-13q-3 0 -3.5 -2.5t-0.5 -4.5q0 -5 1 -9.5t1 -9.5v-2v-3.5v-2.5v-2q0 -2 -1.5 -3.5t-4.5 -1.5v0
l-0.5 0.5l-1.5 1.5q-1 13 -1.5 27t-0.5 28v2l0.5 3.5l0.5 3.5q0 8 -3 10.5t-6.5 4t-6.5 3t-3 5.5h31l0.5 1l0.5 1q1 1 2 4t2 4v3v4v4v3v4v4.5v4.5v2l-0.5 2t-1 3.5t-1.5 3t-2 1.5q-3 0 -3.5 -2.5t-1.5 -5.5t-4 -6t-10 -3h-2t-3.5 0.5l-3 1t-1.5 1.5q0 3 3 3.5t7 1.5t7 4.5
t3 13.5q0 3 -3 5t-6.5 3t-7.5 2t-7 1q-1 0 -2.5 -0.5t-0.5 -3.5q1 -29 -2 -58q0 -3 -1.5 -5.5t-2.5 -4.5t-3.5 -4t-5 -3.5t-4 -3t-1.5 -3.5q0 -8 4 -12.5t8.5 -8t8 -8t3.5 -11.5q0 -9 -2.5 -14t-7 -7.5t-11 -3.5t-13.5 -2q-2 -1 -2.5 -3l-1 -4t-1.5 -3.5t-4 -1.5h-2t-1 1
t-0.5 3t-0.5 3q0 6 3 8.5t7.5 3.5t9.5 1t9.5 1.5t7.5 5t3 11.5q0 4 -1.5 7t-3.5 5t-5 3.5t-7 4.5q-2 2 -4 5t-3 6.5t-2 6.5t-3 3q-1 1 -2 0l-2 -2t-1.5 -2t-0.5 -2q0 -9 2.5 -18.5t2.5 -18.5q0 -3 -1.5 -4.5l-3.5 -3.5q-3 2 -4.5 7t-1.5 11v12v10v11q2 3 4.5 4.5t5.5 2.5
t5.5 2t2.5 3v48q0 1 -2 4.5t-4.5 7l-5 7t-3.5 5.5q-3 7 -3 17v18v11q1 1 1.5 3t2.5 2h0.5h0.5q0 -1 1 -1.5l1 -0.5v-43q0 -1 0.5 -3t1.5 -4t2.5 -3.5t3.5 -1.5v0q1 0 1.5 2l0.5 2q-1 17 0 35t3 34q0 2 3 2h3q0 -17 -1 -33t-1 -33v-5v-6v-6v-3l2 -7h12v78q0 2 0.5 2.5
t2.5 0.5t3.5 -1.5t1.5 -3.5q0 -3 -0.5 -4.5l-1.5 -4.5v-33l3.5 -1t8 -2t8.5 -2t5 -1v0l2 2t2 1zM72 111h1q0 1 0.5 1.5l0.5 0.5v121q0 2 1 2.5t2 0.5q4 0 5 -3v-20q0 -22 -1 -44t-1 -44v-8q0 -3 2 -7h1q3 0 4.5 3t1.5 5q0 3 0.5 8.5t1 12.5t1 14.5t1 14.5t1 12.5t0.5 7.5
v2.5t0.5 3t0.5 3.5v2v22q0 1 1 1.5l1 0.5h1q1 0 2 -1.5t1.5 -3t0.5 -3.5v-3v-4t-2 -3v-3.5v-5.5v-5.5v-3.5t-0.5 -4t-0.5 -6v-6v-3q-1 -8 -0.5 -15t0.5 -13t-0.5 -12.5t-1.5 -13.5q0 -3 -2.5 -5.5t-5.5 -4.5t-5 -3.5l-2 -1.5v-12q0 -2 3 -3l6 -2t6 -3t3 -4v-38q0 -3 -3 -3
q-2 0 -2.5 1t-0.5 4v33q0 1 -1.5 2l-3 2t-3.5 1.5t-3 0.5l-1.5 -1.5l-1.5 -1.5v-3v-4v-4v-2q0 -11 1 -22.5t1 -22.5q0 -7 -6 -7q-2 0 -3.5 1.5t-1.5 3.5t0.5 3l1.5 3q-1 12 0 23t1 23v6q-1 2 -1.5 2.5t-2.5 0.5q-4 0 -6 -3t-2.5 -7.5t0 -9.5t0 -9.5t-1.5 -7.5t-4 -3
q-4 0 -4 4q0 9 1.5 19t2.5 19q4 3 7.5 4t6 2t3.5 3.5t1 8.5v3v2q-4 3 -8.5 5t-7.5 6q-2 7 -3 14.5t-1 15.5t0.5 15t0.5 13q0 1 -0.5 3.5t-0.5 5t-0.5 5t-0.5 3.5v2v5v6v5v4v5v5.5v3.5q1 1 1.5 2t1.5 2l5 -4v-6v-14.5t0.5 -19.5t0.5 -20v-16v-16l0.5 -2.5t0.5 -5t0.5 -5
t0.5 -3.5q1 -1 3.5 -3t4.5 -2zM137 108q3 0 5 4t3 8.5t1.5 9t0.5 7.5t-2.5 5t-5.5 2q-2 0 -4 -1t-2 -3v-30q0 -1 1.5 -1.5t2.5 -0.5z" />
</svg>
