<?xml version="1.0" standalone="no"?>
<!DOCTYPE svg PUBLIC "-//W3C//DTD SVG 1.1//EN" "http://www.w3.org/Graphics/SVG/1.1/DTD/svg11.dtd" >
<svg xmlns="http://www.w3.org/2000/svg" xmlns:xlink="http://www.w3.org/1999/xlink" version="1.1" viewBox="-10 0 266 256">
   <path fill="currentColor"
d="M119 149q0 6 1 11.5t2 11.5q2 17 4.5 33.5t4.5 33.5q0 1 0.5 4.5l0.5 3.5q1 3 2 3.5t3 0.5q3 0 4.5 -2.5t1.5 -5.5q0 -6 -1.5 -10t-3.5 -9q-1 -9 -3.5 -19.5t-4 -21t-3 -20.5t-2.5 -20v-1q0 -3 2.5 -6t4.5 -3t3.5 4t3.5 10.5t3.5 14t3 14.5t2.5 12.5t1 6.5q0 2 1.5 7
t2.5 10.5t2 10.5t1 7q1 3 2 3.5t3 0.5q3 0 4 -2t1 -5l-0.5 -1.5l-0.5 -1.5v-1t-0.5 -2.5t-1 -2.5l-0.5 -1q-6 -18 -10 -37.5t-7 -38.5q-1 -3 -2 -6.5t-1 -7.5q0 -2 1 -3.5t2 -2.5l2 -2t1 -3q0 -3 -1 -3.5t-3 -0.5l-1 0.5l-1 0.5q-11 5 -17.5 13.5t-6.5 22.5zM161 141
q0 9 1.5 17.5t2.5 16.5l6 28t8 27q0 1 0.5 2.5l0.5 1.5q1 2 0.5 3.5t-0.5 2.5t0.5 2.5t1.5 3.5q2 2 3 2.5t3 0.5t3.5 -0.5t2.5 -2.5q-3 -13 -7 -26.5t-8.5 -26.5t-7.5 -26.5t-3 -26.5q0 -2 0.5 -4l1 -4t2 -3t3.5 -1t3.5 4t3 9.5t2.5 11t1 7.5q0 1 0.5 3t1 4.5l1 5l0.5 2.5
q1 3 2.5 8.5t3.5 12t3.5 12t2.5 7.5q1 4 2 5t3 1t4 -1.5t2 -4.5q0 -2 -1 -5t-2.5 -6t-2.5 -6t-2 -5q-3 -10 -5.5 -20.5t-4.5 -21.5q-2 -7 -4.5 -12.5t-2.5 -13.5q0 -3 1.5 -5t3 -3.5t2.5 -3t1 -4.5q0 -2 -1 -2.5t-3 -0.5h-1h-1q-5 4 -10 7t-8.5 7t-6 9t-2.5 12zM77 237v4.5
t2 2.5t3.5 -1t3 -3t2.5 -4t1 -4v-112q0 -2 1 -2h2h1.5t1.5 2q3 5 4 11t1.5 12.5t1 12.5t0.5 12q0 1 0.5 2t0.5 2.5t0.5 2.5l0.5 1v18v18q-1 1 -1.5 3.5t-0.5 3.5q0 3 2 4t4 1t3 -1t2 -4v-10q0 -14 -1.5 -28t-1.5 -28l-0.5 -2t-0.5 -3q-1 -1 -1.5 -5.5t-1.5 -9t-1.5 -8.5
t-0.5 -5q-2 -5 -6 -9.5t-9 -6.5v-13l7 -3.5t5 -3.5t3.5 -5.5t2.5 -7.5q1 -8 2.5 -17.5t1.5 -18.5q0 -3 -3 -3q-2 0 -3.5 2t-2.5 5q0 1 0.5 3.5t0.5 5.5t-0.5 5.5t-0.5 3.5q0 2 -0.5 5.5t-1.5 7t-3 6t-5 2.5q-1 0 -2 -0.5t-1 -3.5v-59q0 -2 -1.5 -2.5t-3.5 -0.5
q-3 0 -4.5 1.5t-1.5 5.5q0 12 1.5 24.5t1.5 24.5v4v4t-1 3.5t-3 1.5q-4 0 -6.5 -4.5t-4 -10t-1.5 -11v-8.5v-1q0 -1 0.5 -4l0.5 -3q0 -2 -2 -2h-3q-4 0 -4.5 1t-0.5 5v8.5t0.5 11.5t1.5 11.5t4 8.5q2 3 5.5 4t6 2t4.5 3t2 7v5q0 2 -2 4q-12 6 -17.5 17t-7.5 24t-1.5 27.5
t-0.5 27.5v8v3t0.5 4t1.5 3.5t3 1.5q1 0 2 -1.5t2 -3.5t1 -4t1 -3q0 -2 -0.5 -8t-0.5 -12q0 -7 0.5 -12.5t0.5 -7.5v-8t0.5 -11t1.5 -12.5t3 -11.5t4.5 -8t5.5 -3h1q2 1 2.5 3t0.5 4q0 27 -1 54.5t-3 54.5v3zM120 69q0 7 0.5 12t2 9.5t5 7.5t9.5 6l2.5 0.5t4.5 0.5h4h3h11
t14.5 -2t12.5 -5.5t5 -11.5v-40q0 -3 -2.5 -4.5t-5.5 -2.5t-6 -1.5t-4 -0.5h-3h-5h-4h-3l-2 -2v-20q0 -1 -1 -1.5t-2 -0.5t-4.5 1.5t-4.5 4.5l1 2t1 3v1t0.5 3t0.5 3.5v2.5l1 1q0 1 -2 2t-3 2q-1 0 -4 1t-6.5 1.5t-6.5 1.5t-4 1q-2 1 -3 4.5t-1.5 7.5t-0.5 8v5zM144 94v-1v0
q3 -4 6.5 -8t8.5 -4q1 0 3.5 0.5t4.5 2t3.5 3.5t1.5 4q0 1 -1 3t-3 2h-22l-0.5 -0.5l-1.5 -1.5v0zM127 57q3 0 6.5 1t7.5 3t7 5t3 6q0 2 -2.5 4.5t-5 5.5t-5.5 5t-5 2q-1 0 -2 -1.5t-1.5 -4l-1 -5l-0.5 -2.5q0 -1 -0.5 -4t-0.5 -5v-6v-4zM167 73v-1v0v-1v0q0 -1 1 -2l2 -2
q1 0 2.5 -2t3.5 -3.5t4 -3.5l2 -2h1q2 0 3 2.5t1 3.5v5.5t-0.5 7.5t-1.5 6.5t-3 2.5q-5 0 -8.5 -4t-6.5 -7zM140 51q2 -3 4.5 -4t6 -1.5t6.5 -0.5h6h2h3.5t3 1t1.5 3t-2 5t-4 5.5t-5 3.5t-5 1h-1h-1z" />
</svg>
