<?xml version="1.0" standalone="no"?>
<!DOCTYPE svg PUBLIC "-//W3C//DTD SVG 1.1//EN" "http://www.w3.org/Graphics/SVG/1.1/DTD/svg11.dtd" >
<svg xmlns="http://www.w3.org/2000/svg" xmlns:xlink="http://www.w3.org/1999/xlink" version="1.1" viewBox="-10 0 266 256">
   <path fill="currentColor"
d="M157 246q0 3 0.5 4t3.5 1q2 0 5 -2t3 -5v-33q0 -8 4 -13t9 -8.5t10.5 -7.5t8.5 -10t4 -15t1.5 -19t0.5 -19v-16v-2v-4.5v-4.5v-4v-12.5t-2 -11.5t-5.5 -9.5t-9.5 -7.5q-1 -1 -3 -1t-4 -0.5t-4 -1.5t-2 -2v-18q0 -3 -3 -5t-6 -2v27l-3 1t-7 2.5l-8 3t-5 2.5q-4 4 -6.5 13
t-4.5 19t-2.5 19.5t-0.5 14.5v1v2t0.5 2t0.5 2v12v12.5t1.5 13t4.5 11.5q1 1 2 3.5t2.5 4.5t3.5 3.5t4 1.5t4.5 -1t2.5 -4q0 -2 -1.5 -3t-3.5 -2.5t-4.5 -3t-2.5 -2.5q-4 -6 -4.5 -13t-0.5 -13l-0.5 -4t-0.5 -8t-0.5 -7.5t-0.5 -4.5v-0.5v-1.5v-0.5v-0.5q0 -2 1 -8.5
t1.5 -14t1.5 -13.5t1 -9q4 -12 11.5 -16.5t21.5 -4.5q9 1 13.5 5.5t7 11t2.5 14.5v15v9.5t-1 14.5t-2 17t-2 16.5t-3 13t-4 7.5l-1.5 1t-3.5 1.5t-3 1t-2 1.5q-7 5 -11 12.5t-6 16t-2.5 18t-0.5 17.5zM82 234q0 4 3 4t4.5 -2t2.5 -5t1 -6v-5v-3.5v-2.5l-2 -2l2 -1v-40l1 -2
l2 1t3 2l1 1l2 2l2 2t1 2h1q3 0 3 -4q0 -3 -2.5 -5.5t-5.5 -4t-5.5 -2.5t-2.5 -2v-16l3 -4q2 3 3.5 4.5t4.5 1.5t3 -4v-1v-1l-13 -12l-0.5 -2t-0.5 -3v-2q0 -1 -0.5 -3.5t0 -5t1.5 -4t3 -1.5q7 0 10.5 5.5t4.5 12.5v6t0.5 14l1 16t1.5 13v1v1q0 1 -0.5 5t-0.5 9t-0.5 9.5
t-0.5 5.5v2.5v3.5v5t3 3t4.5 -2.5t2 -6t0.5 -7v-5.5v-8q0 -6 -2 -9q1 -17 0 -33.5t-3 -32.5q-2 -6 -6.5 -9t-8.5 -5t-7 -4t-3 -6v-4v-5t0.5 -6t0.5 -5.5v-2.5l4 -4h14q2 0 4.5 -4.5t3.5 -10.5t2 -11.5t1 -6.5v-5t-1 -4q0 -1 -1.5 -1.5t-2.5 -0.5t-2 0.5t-1 1.5q-1 5 -1 11
t-1.5 11t-5 8t-9.5 3q-2 0 -3 -0.5t-1 -2.5q0 -8 1 -15.5t1 -15.5v-9q-2 -3 -5 -3h-2t-2 1v45q-5 0 -8 -0.5t-5 -2t-3 -5t-2 -9.5v-3.5t-0.5 -5t-0.5 -4.5v-3q-1 -3 -2.5 -3.5t-3.5 -0.5t-3.5 0.5t-1.5 2.5v1q0 2 1 5.5t1.5 7.5t1 7t0.5 4q2 5 4 8.5t5 6t7 4t10 2.5v3v3
q0 1 -0.5 4t-0.5 6.5t-0.5 6.5t-0.5 4q-1 2 -3 3t-5 2t-5 1h-3q-6 3 -9.5 9t-4.5 14t-1 17v13v9t1 9q0 2 -0.5 7t-1.5 11t-1.5 11.5t-1.5 7.5v3q0 3 1 4t4 1q2 0 3.5 -1.5t2 -3t0.5 -4v-4.5q0 -1 0.5 -5t1 -8.5t0.5 -8v-5.5q2 -1 4.5 -2t4.5 -2.5t4 -4t3 -4.5l-0.5 -1.5
t-1.5 -1.5v0h-1q-2 0 -4 1.5t-5 1.5h-2.5t-1.5 -2v-16l3 -1.5t6 -3.5t5.5 -4.5t2.5 -5.5q0 -2 -3 -2q-1 0 -2.5 1t-2.5 2l-2 2t-3 1h-1l-0.5 -0.5t-0.5 -1.5v-2v-3q0 -3 1 -7.5t3 -8t5 -5.5t7 -2h2t2 1v9v13.5v13.5v9v12v14v13v6t-0.5 6.5t-1 11.5t-1 11t-0.5 6v3zM149 148
q0 9 6 11.5t13 2.5q10 0 13.5 -5.5t3.5 -15.5v-4q0 -2 -2 -2h-1q0 1 -1.5 1.5l-1.5 0.5l-3 14q-1 3 -3 3h-4q-4 0 -8 -1.5t-6 -6.5q1 -3 3.5 -6.5t5 -8t4 -8.5t1.5 -7t-1.5 -6t-3.5 -6t-4 -6.5t-2 -7.5q0 -6 4 -9.5t11 -3.5q3 0 4.5 2t1.5 6q0 5 -1 8t-4 8q0 1 1 2t1 2h1
q3 0 5 -3t3 -7.5t1.5 -8.5t0.5 -6q0 -4 -1.5 -6t-4 -3t-5.5 -1.5t-7 -0.5q-5 0 -9 2.5t-8 7.5v2v3.5v3.5v2v8t2 8t4 6t2 6t-1.5 7.5t-3.5 6.5t-4 7t-2 9zM44 97q0 2 1.5 2.5t2.5 0.5q3 0 7.5 -2.5t8.5 -6t7 -7.5t3 -7q0 -1 -2 -1.5l-2 -0.5q-2 0 -6 3.5t-8.5 7.5t-8 7.5z
M102 79q0 1 2 4t5 6.5t6.5 6t4.5 2.5h1q1 0 2 -1.5l1 -1.5q-1 -2 -3 -5t-4.5 -6t-5.5 -5.5t-6 -2.5q-2 -1 -2.5 0t-0.5 3z" />
</svg>
