<?xml version="1.0" standalone="no"?>
<!DOCTYPE svg PUBLIC "-//W3C//DTD SVG 1.1//EN" "http://www.w3.org/Graphics/SVG/1.1/DTD/svg11.dtd" >
<svg xmlns="http://www.w3.org/2000/svg" xmlns:xlink="http://www.w3.org/1999/xlink" version="1.1" viewBox="-10 0 266 256">
   <path fill="currentColor"
d="M189 247q0 1 1 1h2q5 0 5.5 -3t0.5 -6q0 -9 -2 -16.5t-4 -15.5q-1 -3 -2 -9.5t-2 -13.5t-2 -13.5t-2 -8.5q2 -4 5.5 -5t6.5 -2.5t5 -5t2 -10.5v-0.5v-0.5q0 -1 -0.5 -3l-1 -4l-1 -4l-0.5 -2q-2 -4 -7 -4v2.5v5.5q0 2 0.5 4.5l0.5 2.5v2t0.5 2t0.5 2.5v1.5q0 6 -6 6
t-8 -4.5t-2.5 -9.5t-1 -9t-3.5 -4h-1l-0.5 0.5t-0.5 1.5v25q0 2 -2 3t-4 1q-3 0 -5 -2t-3 -5.5t-1 -6.5v-5q-2 -2 -4 -2h-4q0 1 0.5 3.5t0.5 5t0.5 5t0.5 3.5l2.5 3.5t3.5 5.5q1 0 1.5 0.5l0.5 0.5h16q0 5 2 9.5t2 8.5q3 17 6 34.5t4 34.5zM105 245q0 2 2 2q3 0 4.5 -3.5
t2 -8t0.5 -10t0.5 -10.5t1.5 -8.5t3 -4.5h2h2h3h1h4t6.5 -0.5t6 -0.5h4.5v2v4.5v4.5v3v3v5v4v2l-0.5 2t-0.5 3.5t-0.5 3l-0.5 1.5q0 3 1 3.5t2 0.5q3 0 4 -2.5t2 -5.5t1 -6v-4q0 -13 -2 -27t-1 -27q-2 -2 -4.5 -4t-5 -3t-5.5 -1.5t-4 -0.5v-2q0 -4 2 -5t4.5 -1.5l5 -1
t2.5 -3.5v-0.5v-0.5q-2 -2 -5 -1.5t-6 0t-3.5 -3t-0.5 -5.5t-0.5 -5.5t-4.5 -2.5h-2.5t-1.5 2v31q0 1 -2 2t-5 4t-5.5 6.5t-2.5 7.5v4v6v7v4q-1 8 -2.5 14.5t-1.5 15.5v2v3v4v2zM67 241q0 3 3 3t5 -1.5t3 -4.5q4 -18 6 -38t1 -38q1 -3 4.5 -3.5t8.5 -2t8.5 -6t3.5 -14.5
q0 -3 -0.5 -4.5t-3.5 -1.5h-2.5t-1.5 2l-3 15q0 2 -3 2h-3l-1.5 -0.5t-2.5 -0.5l-0.5 -2l-0.5 -2q0 -5 1.5 -9t1.5 -8q0 -2 -0.5 -4t-2.5 -2q-4 0 -5 4.5t-1.5 10t-1.5 10t-4 4.5t-6.5 -2.5t-3.5 -5.5v-19q0 -1 -2 -1.5t-3 -0.5q-2 0 -3 0.5t-1 3.5q0 1 -0.5 4t-1 6.5
t-0.5 7v4.5v2q0 3 2.5 4.5t6.5 2t7.5 1.5t5.5 3v5q0 13 -2 26t-3 23q-3 6 -4 13.5t-1 13.5zM118 188q0 -4 1 -8t4 -6q0 -1 2.5 -1t5 -0.5t4.5 -0.5h3q2 0 4.5 0.5t2.5 1.5v19h-26q-1 0 -1 -2v-3zM72 89v10t2 10q1 4 5 6t10 3.5t13 2t13 0.5h11h7q9 0 18 -1t19 -2q4 0 7 -3.5
t6 -8t4 -9t2 -7.5q1 -12 -4 -19t-17 -8v-10q2 0 7 -1t9.5 -2t8.5 -3.5t4 -5.5v-17q0 -1 -2 -1h-2q-3 0 -4.5 2t-2.5 5.5t-1.5 6.5t-0.5 4q-3 2 -4.5 2.5t-4.5 0.5t-4 -0.5t-1 -3.5v-2q0 -1 0.5 -4l1 -6l1 -6t0.5 -4v0q0 -5 -1 -7t-5 -2h-3q-1 0 -2 2q-1 7 -2.5 16t-0.5 17
q-1 1 -2 1h-2q-5 0 -7.5 -2t-4 -5.5t-1.5 -7.5v-7h-3q-3 0 -4 1.5t-1 4.5q0 8 2 12.5t5 6.5t6.5 3t6 1.5t5 1.5t2.5 4t-4 4t-6 1q-10 0 -19.5 -0.5t-19.5 -0.5q-6 0 -11 0.5t-11 0.5q0 -5 2 -6.5t4.5 -2t5.5 -1.5t5.5 -3t4 -7t1.5 -14v-3.5v-2.5q-2 -3 -4 -3h-2.5t-1.5 1v7
t-1 8t-3 6.5t-6 2.5h-2.5t-1.5 -1v-33l-0.5 -0.5l-1.5 -1.5l-1 -0.5t-2 -0.5t-2.5 1t-2.5 2q0 1 0.5 5t0.5 8q0 5 -0.5 8.5t-0.5 5.5q0 3 -0.5 5t-4.5 2t-6 -2t-3 -4.5t-1 -5.5v-6q-1 -2 -2.5 -2.5t-3.5 -0.5q-4 0 -4 4q0 8 2 13t5 7.5t6 3.5l6 2t5 3t2 7q0 2 -1 4t-2.5 3.5
t-3.5 3t-3 3.5v11zM81 100q0 -2 2 -3t4.5 -1.5t5 -0.5h3.5q10 0 20 -0.5t20 -0.5t19.5 -0.5t19.5 -0.5q0 9 -4.5 13t-11 6t-15 1.5t-15.5 -0.5q-2 0 -5.5 -0.5t-6.5 -0.5h-5.5h-2.5q-3 0 -7.5 -0.5t-9 -1.5t-8 -3t-3.5 -7zM83 82q0 -6 5 -8.5t11 -3.5h5h9.5h8.5h5h8h8.5h8.5
h4l2 0.5l4 1t3.5 0.5h2.5q2 1 4.5 2l2.5 1v12h-90q-2 0 -2 -2v-3z" />
</svg>
