<?xml version="1.0" standalone="no"?>
<!DOCTYPE svg PUBLIC "-//W3C//DTD SVG 1.1//EN" "http://www.w3.org/Graphics/SVG/1.1/DTD/svg11.dtd" >
<svg xmlns="http://www.w3.org/2000/svg" xmlns:xlink="http://www.w3.org/1999/xlink" version="1.1" viewBox="-10 0 266 256">
   <path fill="currentColor"
d="M73 197q0 1 2 2t5 2t5.5 1.5t3.5 1.5q5 2 8 5t7 6q3 3 6 8.5t6 12t6 11t5 4.5l1.5 -4.5t3.5 -10t3.5 -10.5t2.5 -6l5.5 -5.5l7.5 -7.5l7 -7t3 -4v0v-1q-2 0 -5.5 -0.5t-7.5 -0.5t-7.5 -0.5t-5.5 -0.5v0h-1q-3 0 -11.5 0.5t-18 0.5t-18 0.5t-11.5 0.5l-0.5 0.5l-0.5 0.5
q-1 0 -1 1zM186 147q0 2 0.5 8.5t0.5 14t0.5 14.5t0.5 9t1 6.5t2.5 10t3.5 11.5t5 11t6 8t6 3q1 0 1.5 -1.5l0.5 -1.5l-0.5 -0.5t-0.5 -1.5q-2 -5 -5 -10.5t-5.5 -11t-4.5 -11.5t-2 -12l-3 -56q-1 0 -1.5 -2l-0.5 -2v-1q0 -4 1 -7t1 -6t-0.5 -5t-1.5 -5q-9 -5 -17.5 -8
t-19.5 -3h-2q-2 0 -2 2q1 3 6.5 4t11.5 2t10.5 3.5t4.5 8.5q0 2 -1.5 3.5t-3.5 1.5t-5 -1.5t-6.5 -3l-7 -3t-6.5 -1.5h-2t-1 1q1 3 4.5 3.5t7 1.5t6 3t2.5 6q0 1 -1.5 1.5t-4 0.5h-4.5h-2q-6 0 -10.5 -2t-10.5 -2q0 4 2.5 5.5l5 3t6 1.5h5.5q6 0 12 -1.5t12 -1.5q1 0 2.5 2
t2 4l1 4t0.5 3zM105 203v-1v-1q8 -1 13.5 -1.5t13.5 -0.5h10l0.5 0.5t0.5 1.5l-2.5 4.5t-6 9t-6.5 8.5l-3 4l-3.5 -3.5t-7 -8t-6.5 -8.5zM143 170q0 3 -3 6t-6.5 5t-6.5 3l-3 1v2q4 0 9 -0.5t9.5 -2t7.5 -5t3 -8.5q0 -6 -4 -9.5t-9.5 -5t-12.5 -2t-13 -0.5t-10 -1.5t-4 -4.5
t2 -4.5t4.5 -2t5.5 -1.5t4 -3q0 -1 -2 -1h-3q-3 0 -6 1t-6 3t-4.5 4.5t-1.5 5.5q0 4 1.5 5.5t4 2.5t5.5 2t5 4q-2 3 -7.5 4.5l-11 3t-10.5 2t-5 2.5l2 2h1.5h2.5h7t7.5 -0.5t7 -1.5t6.5 -3q4 -3 7.5 -7t9.5 -4h5t6 1t4.5 2.5t1.5 4.5zM77 97q-9 2 -12 8t-3.5 13.5t0 15.5
t-2.5 14q-1 3 -4 7t-5.5 8t-5 7.5t-2.5 5.5q4 0 8 -2t7 -6t5.5 -8t3.5 -8q0 -1 1 -5t2.5 -8.5t2.5 -8.5t2 -5q0 -1 0.5 -1.5l0.5 -0.5q1 0 3.5 -0.5t5.5 -1.5t5.5 -2t2.5 -2v-12q0 -1 2 -1.5t4 -0.5l0.5 0.5t0.5 1.5l0.5 2t1 4.5t1 4.5l0.5 2q0 1 2 3t3 2h14q1 0 3 -2.5
t3 -3.5q2 -2 2 -4v-5v-3.5v-3.5q-9 -3 -17.5 -4t-18.5 -1h-3q-2 0 -5 0.5t-5 0.5h-3zM73 111q0 -4 2 -5.5t6 -1.5l1.5 0.5l1.5 0.5q2 1 2 2v3q0 3 -2.5 4.5t-5.5 1.5q-5 0 -5 -5zM105 108v0q0 -1 0.5 -2t1.5 -1h11q2 0 2.5 2t0.5 4q0 1 -1 2.5t-3 1.5h-4t-3.5 -0.5t-3 -2
t-1.5 -4.5zM162 81q0 4 1 5.5t6 3.5l33 13h4q0 -5 -5.5 -7.5t-12.5 -5t-12.5 -5t-5.5 -7.5q0 -4 4 -6.5t9 -4.5t9 -5.5t4 -10.5q0 -5 -4 -8t-9.5 -4t-11 -1.5t-9.5 -0.5q2 -3 1.5 -6.5t-2.5 -6.5t-5 -5t-6 -2l-1 1l-1 1v1q0 4 2.5 7.5t2.5 7.5q0 5 -2.5 9t-5 7.5l-5 7
t-2.5 7.5q4 0 7.5 -2.5t6 -6t4.5 -7t3 -6.5h5h6.5t6.5 0.5t5.5 2.5t3.5 6q0 1 -0.5 2l-0.5 1l-21 16q-2 1 -2 5v4zM98 59q0 3 -3.5 7t-8 8.5t-9 8.5t-5.5 7v0h1q4 0 9 -3t8.5 -7t6.5 -7t4 -3h1q5 8 13.5 12.5t16.5 7.5q1 0 2 -0.5l1 -0.5v-1v0v-1l-7.5 -5l-9 -6t-7.5 -7
t-3 -9l0.5 -0.5l0.5 -0.5q2 -3 6 -5t6 -6q4 -6 5.5 -13.5t1.5 -14.5q-5 0 -7 4t-3 9t-3 9.5t-8 4.5h-2v-6t-0.5 -8t-0.5 -8.5v-5.5t-0.5 -2.5l-1 -3t-1.5 -2.5t-3 -1v0q-1 0 -1.5 0.5l-0.5 0.5v37q-4 -2 -6 -3.5t-3.5 -4l-3 -5t-3.5 -5.5q-1 -3 -2.5 -6t-5.5 -3q-1 0 -1.5 2
t-0.5 4q0 7 4.5 12t9.5 8.5t9.5 6t4.5 5.5z" />
</svg>
