<?xml version="1.0" standalone="no"?>
<!DOCTYPE svg PUBLIC "-//W3C//DTD SVG 1.1//EN" "http://www.w3.org/Graphics/SVG/1.1/DTD/svg11.dtd" >
<svg xmlns="http://www.w3.org/2000/svg" xmlns:xlink="http://www.w3.org/1999/xlink" version="1.1" viewBox="-10 0 266 256">
   <path fill="currentColor"
d="M66 248q0 2 1.5 2.5t3.5 0.5q6 0 10.5 -3t7.5 -7.5t5.5 -10t4.5 -10.5q1 -3 3 -5.5t2 -7.5q0 -4 -2.5 -6.5t-5.5 -5t-5.5 -5.5t-2.5 -7q0 -2 0.5 -4.5t2.5 -2.5q8 -1 15 -2t15 -3l1.5 -1.5t0.5 -1.5q0 -2 -1 -3t-3 -1q-9 0 -17 1t-16 2.5t-16.5 2t-16.5 -0.5q-2 1 -3.5 2
t-1.5 4q0 1 0.5 2.5t2.5 1.5q5 0 9.5 -1t9.5 -1h8q2 2 2 4v4.5v5t1 4.5q1 0 2 1.5t3 3t3.5 3l1.5 1.5v2.5v2.5q0 7 -2.5 12t-6 9.5t-8 8.5t-8.5 9v0zM143 177h16q1 0 2.5 5.5t3.5 14t4 18t4.5 17.5t6 13.5t7.5 5.5q1 0 3 -0.5t2 -2.5v-12l-1 -2l-2.5 -5t-3 -6.5t-2.5 -5.5
q-1 0 -2.5 -2l-1.5 -2q-1 -3 -2.5 -7t-2.5 -8.5t-2 -8.5t-1 -8q0 -2 2 -3.5t5.5 -2t6.5 -2t5 -4.5q5 -7 6.5 -14.5t1.5 -15.5q0 -1 -1 -3t-3 -2q-5 0 -6.5 4t-1.5 9t-0.5 10t-2.5 7q-3 2 -6.5 4t-3.5 1l-5 -5l-0.5 -4t-1 -10l-1 -12t-0.5 -10v-1q0 -2 4 -3.5t8.5 -4t8.5 -7
t4 -14.5v-7q0 -1 -2 -2l-2 -1q-3 0 -4.5 1.5t-1.5 4.5v6t-1 6t-2.5 4.5t-5.5 1.5t-4 -2.5v-5.5q0 -7 0.5 -14t0.5 -15q0 -3 -1.5 -4.5t-4.5 -1.5q-6 0 -11 0.5t-11 0.5l-2 2t-1 2h-0.5t-0.5 1t2 2t3 1q3 0 6 -0.5t6 -0.5q2 0 4 0.5t2 3.5v1q0 1 -0.5 4.5t-0.5 8t-0.5 8
t-0.5 4.5q0 4 -0.5 7t-5.5 3t-7 -3.5t-2.5 -7.5t-1.5 -8t-5 -5q-1 0 -2 0.5t-1 1.5v4q0 7 1 11.5t3.5 7.5t6.5 4.5t11 2.5l2 1q-1 5 -0.5 9.5t1.5 9t1.5 9t0.5 8.5v3v3q-1 2 -3 2.5t-3 0.5q-5 0 -7 -4t-3 -9t-1.5 -9t-1.5 -4h-9q0 2 0.5 4.5t0.5 3.5q0 2 1 5.5t2 6.5t2 5
t1 3zM53 123q0 8 2 12.5t5.5 7t8.5 3.5t12 1q3 0 8.5 -0.5t10.5 -2t9 -4t4 -7.5v-24q0 -6 -2 -9t-5 -4.5t-6.5 -2.5t-6.5 -2.5t-5 -4t-2 -8.5q0 -5 2 -7t5.5 -3l7 -2t6.5 -4q2 -1 2.5 -4.5t1 -7.5t0 -7.5t-0.5 -6.5v-2.5v-2.5q-1 -2 -2.5 -3t-3.5 -1q-3 0 -3.5 4.5t0 10
t-0.5 10t-5 4.5q-2 0 -4 -1t-2 -4v-32q0 -1 -3 -2.5t-5 -1.5h-1.5t-1.5 1v6q0 6 1 12t1 13v3.5v5t-1 4t-3 1.5q-6 0 -10 -5q-1 -4 -1 -8.5t-1 -8.5t-3.5 -6.5t-7.5 -3.5q-2 2 -2 4v5q0 1 0.5 6t2 10t3 9.5t4.5 4.5h16v1.5t0.5 3.5t0.5 4v3v3q0 4 -0.5 6t-2.5 3t-5 1.5
t-8 2.5q-2 1 -4 4.5t-3 7.5t-1.5 8.5t-0.5 6.5zM66 131q0 -4 4 -6t9.5 -3.5t11 -1.5h8.5h2t1 1v12q0 2 -3 3.5t-7 2t-8 0.5h-5t-3.5 -0.5t-4.5 -1t-3.5 -2.5t-1.5 -4zM66 110v-1q5 -6 9.5 -8.5t11.5 -2.5q6 0 10.5 1t4.5 7v3t-2 3q-6 1 -11 1.5t-11 0.5h-11q0 -1 -0.5 -2
t-0.5 -2v0zM156 11h-1q-1 0 -1 1q-1 0 -3 0.5l-2 0.5v25q0 3 -5 4.5t-11 3.5t-11 5.5t-5 9.5q5 0 10 -2.5t10 -5.5t10 -5.5t11 -2.5q5 0 11 2.5t11.5 5t11 4.5t8.5 2t5.5 -1t2.5 -4t-3.5 -5t-9 -3.5t-11.5 -2.5t-11.5 -2t-9 -2.5t-3.5 -3.5v-22q0 -1 -2 -1.5z" />
</svg>
