<?xml version="1.0" standalone="no"?>
<!DOCTYPE svg PUBLIC "-//W3C//DTD SVG 1.1//EN" "http://www.w3.org/Graphics/SVG/1.1/DTD/svg11.dtd" >
<svg xmlns="http://www.w3.org/2000/svg" xmlns:xlink="http://www.w3.org/1999/xlink" version="1.1" viewBox="-10 0 266 256">
   <path fill="currentColor"
d="M71 184q0 3 1.5 8.5t4 13t4.5 15.5t5 14.5t5.5 11t5.5 4.5q2 0 4.5 -2t2.5 -4l-1 -1q-1 -4 -3 -8.5t-4.5 -9t-4.5 -9t-4 -7.5q-5 -13 -6.5 -26.5t-1.5 -26.5v-3q0 -3 1 -11t1.5 -16.5t1.5 -16.5t1 -11q3 -4 4.5 -9t2 -11t0.5 -12v-10t-1 -11.5t-3.5 -15t-6.5 -13
t-11 -5.5q-2 0 -3.5 0.5t-1.5 2.5v1h1q2 4 4 7.5t3.5 7t3.5 7.5t5 7q1 8 1 13.5v12.5q0 9 -2.5 16t-3.5 15q-3 15 -4 30.5t-1 31.5v20zM43 162q0 2 0.5 8.5t1.5 14t2.5 15.5t3.5 15t5 11t6 4q2 0 4 -1t2 -3q0 -1 -1.5 -4.5l-3 -7t-3.5 -7t-2 -5.5q-2 -5 -3 -11.5t-1.5 -13
t-0.5 -13v-11.5q0 -10 3 -20t3 -20q1 -3 -1 -4.5t-5 -1.5q-2 0 -3.5 3.5t-2.5 9.5t-2 12.5t-1.5 13t-0.5 11v5.5zM123 185v1q1 0 1.5 2.5t0.5 3.5t0.5 2.5t0.5 2.5q3 8 5 11t5.5 4t8 1.5t11.5 2.5l1.5 0.5t3.5 1.5t3.5 2l1.5 1h4t6 0.5t6 0.5h4l2 0.5t4.5 1t5 1.5l2.5 1h4
t3.5 -0.5t3 -1.5t1.5 -3q0 -4 -3.5 -5.5t-9 -2t-12.5 -0.5q-6 0 -11.5 -0.5t-9 -1.5t-3.5 -5v-1q0 -2 0.5 -4.5l1 -5t1 -4l0.5 -1.5h21q1 0 2.5 -3t2.5 -4q4 -9 4.5 -20t0.5 -21q0 -3 -0.5 -6.5t-5.5 -3.5h-1l-1 1.5t-2 1.5q0 2 -0.5 7l-1 10t-1 9.5t-0.5 6.5q-1 7 -3 10
t-9 3q-8 0 -8 -7t1 -15t1 -15v-6q0 -5 -0.5 -9.5t-1.5 -8t-3 -4.5l-20 -3l-1 -1l-2 -2t-2 -2.5t-1 -2.5v-1v-3q0 -5 3.5 -8t9 -4t11 -1.5t9.5 -0.5h2t3.5 0.5t3.5 0.5h2l1.5 0.5t3 1.5t2.5 2.5l1 1.5v17q0 3 -2 4.5t-5 2t-5.5 2t-2.5 5.5q13 0 20 -6t7 -19q0 -5 -2 -9
t-5.5 -6.5t-8 -4.5t-9.5 -2q-7 0 -15.5 0.5t-15.5 3.5t-12 8t-5 14q0 7 4.5 10.5t10 6t9.5 4t4 2.5v65v5.5t-1 4.5t-2.5 3t-4.5 1q-2 0 -4 -0.5t-3.5 -2l-3 -3t-1.5 -3.5v-60l-1 -0.5t-1.5 -1t-2 -1.5l-1.5 -1l-0.5 1t-1.5 1q-2 4 -2.5 9t-0.5 9l0.5 2t0.5 4t0.5 4l0.5 2v3
v2q0 1 -0.5 3t-0.5 4.5t-0.5 4.5l-0.5 2v1zM92 170q1 2 2 6.5t2.5 10t3.5 12t4 11.5t4 8.5t5 3.5q7 0 7 -6q0 -3 -1 -5t-3 -4t-3.5 -4t-2.5 -5l-0.5 -3t-1.5 -6l-2 -6t-1 -4l-0.5 -2t-1.5 -2q0 -2 -0.5 -4t-0.5 -3v-57q0 -1 -1.5 -1h-1.5q-3 0 -4 3t-1 5q-1 1 -1 2.5t-0.5 4
t-0.5 4v1.5v20v20zM95 92q0 1 1.5 1.5t2.5 0.5q4 0 6.5 -3t4.5 -7.5t3 -9t1 -7.5v-3q-1 -2 -1 -5.5t-0.5 -7.5t-0.5 -7.5v-4.5q-1 -2 -2.5 -4.5t-4.5 -2.5q-1 0 -3.5 1t-2.5 3q0 7 2.5 14t2.5 15q0 4 -1.5 7.5t-3 7.5t-3 7t-1.5 5zM50 89q0 3 1 3.5t3 0.5q3 0 5.5 -3.5t4 -8
t2 -9t0.5 -6.5v-9t-1.5 -9.5t-4.5 -7.5t-9 -3h-2h-3q1 4 3.5 8t4.5 6v26l-1 3.5t-2 4.5q0 1 -0.5 2.5zM165 54q7 0 12 3t9.5 7t8.5 7t10 3q3 0 4 -2.5t1 -5.5q0 -4 -3 -6.5t-7.5 -4t-10 -3t-10 -3t-7.5 -3t-3 -4.5v-1v-1q0 -1 0.5 -3.5t0.5 -5t0.5 -5t0.5 -3.5
q-2 -4 -4 -5.5t-6 -2.5q-2 0 -2 1v2l-0.5 0.5t-2.5 1.5v25q0 2 -5.5 3.5t-12 4t-12 6.5t-5.5 10q6 0 11.5 -2t10.5 -5t10.5 -5.5t11.5 -2.5z" />
</svg>
