<?xml version="1.0" standalone="no"?>
<!DOCTYPE svg PUBLIC "-//W3C//DTD SVG 1.1//EN" "http://www.w3.org/Graphics/SVG/1.1/DTD/svg11.dtd" >
<svg xmlns="http://www.w3.org/2000/svg" xmlns:xlink="http://www.w3.org/1999/xlink" version="1.1" viewBox="-10 0 266 256">
   <path fill="currentColor"
d="M158 196q3 5 8 14t11 18t13 16t14 7h1l2 -2v-1v0l-2 -2q-7 -6 -14.5 -13t-12.5 -15q-8 -15 -11.5 -29.5t-3.5 -30.5h2.5t3 -0.5t3 -0.5h2.5q3 1 5.5 4.5t4 9.5t2 12.5t1.5 12t2 9.5t3 4t2 -2v-3l0.5 -1.5t0.5 -3t0.5 -3l0.5 -1.5q0 -1 -1 -3.5t-1 -3.5t-0.5 -4t-1 -7
t-1 -7.5t-0.5 -4.5q-1 -5 -3.5 -8.5t-6.5 -5t-8 -1.5t-9 -1q-1 -1 -1 -4v-5q0 -3 -0.5 -5.5t-3.5 -2.5t-4 2.5t-1 5.5t-0.5 6t-3.5 3l-1.5 0.5t-3.5 0.5t-3.5 0.5l-1.5 0.5q-4 1 -7 6t-5 12t-3 13t-1 8v6.5t1 5.5q1 0 1.5 0.5l0.5 0.5q2 0 3.5 -3.5t2.5 -8.5t1.5 -10.5
t1.5 -11t2.5 -9t4.5 -3.5q1 0 4 0.5t4 0.5v3t0.5 5t0.5 5v3q-2 18 -10 35t-21 29v1v1t0.5 2t1.5 1q4 0 8 -3.5t7.5 -8.5t6.5 -11.5t5.5 -11.5t4.5 -8.5l2 -3.5h0.5h0.5zM68 172v10t1 15.5t2.5 17.5t3.5 16.5t5 12t7 4.5q0 -8 -2 -16l-4 -16t-3.5 -16t-1.5 -16v-4v-6.5
t0.5 -6.5t0.5 -5q0 -1 0.5 -2.5t0.5 -3t0.5 -2.5t0.5 -2q1 -5 3 -10t3.5 -10.5t3 -10.5t1.5 -11q0 -3 -1.5 -7t-3.5 -7q-1 0 -2 -1.5t-2.5 -3l-2.5 -2.5l-1 -1h-5q1 4 2.5 6.5t2.5 5.5l2 6t1 7q0 8 -2 15l-4 14t-4 14.5t-2 15.5zM46 183v9v8t0.5 8t0.5 8q1 2 1.5 6t1.5 8.5
t3 8t4 4.5h1q1 0 1.5 -1.5t0.5 -2.5v-3v-4.5t-1 -4t-2 -1.5q-1 -2 -1.5 -5.5t-1 -7.5t-0.5 -7.5v-4.5q-1 -11 -0.5 -20.5t2 -18.5t3.5 -18.5t6 -19.5v-1q0 -6 -1 -9.5t-2.5 -6.5t-4 -6t-7.5 -6v0h-1l-0.5 0.5t-1.5 0.5v1q0 2 1 4.5t2.5 5t2.5 5.5t1 7q0 9 -2.5 17t-4.5 18
q-1 8 -1 15v14zM94 172v9t0.5 13t1.5 14.5t3 14.5t4.5 12.5t6.5 7.5v-6q0 -6 -2 -11t-3 -11q-2 -9 -2.5 -19.5t-0.5 -19.5q0 -7 1 -14t2.5 -13.5t3 -13.5t1.5 -14q0 -2 -0.5 -7.5t-2 -11t-4 -9.5t-6.5 -4q0 7 2.5 13.5t2.5 13.5t-1 14t-2.5 14l-3 14t-1.5 14zM177 121v3v3.5
t0.5 5t0.5 4.5v3l4 -3v-2.5t0.5 -3.5t0.5 -4v-3t0.5 -3l1 -4t1.5 -4t2 -3q2 2 3.5 4.5t3.5 5t4 4.5t5 2q0 -4 -2 -7.5t-4.5 -7t-4.5 -7t-2 -7.5q0 -3 2.5 -6.5t5.5 -6.5t5.5 -6t2.5 -7q0 -1 -0.5 -3t-2.5 -2v0.5v0.5q-2 1 -3 3.5t-2.5 5t-3 4t-5.5 1.5q-2 0 -3.5 -3t-2 -6
t-1 -6.5t-0.5 -4.5v-2.5t2 -2.5h25v-6h-24l-1 -2.5t0 -2.5q2 -4 6 -6t8.5 -3.5t7.5 -4t3 -6.5q-4 0 -8.5 2t-8 4t-6.5 4t-6 2q-4 0 -5.5 -2.5t-4 -6t-6.5 -6t-14 -2.5h-11.5t-10.5 1q0 1 -0.5 1.5l-0.5 0.5q0 2 3 2.5t7.5 0.5t10 1t10 3t7.5 6.5t3 10.5v1l-0.5 0.5l-1.5 1.5
h-5.5t-9.5 0.5t-9.5 0.5h-6.5h-6v3q0 1 5.5 1.5t12.5 1t13.5 0.5h9.5q0 1 1.5 3.5t1.5 3.5t1.5 5.5t2.5 9t2 8.5t2 6v3q0 6 -2.5 12t-2.5 13zM122 120q0 1 0.5 2.5t1.5 1.5h39q2 0 5 -1t4 -3q0 -1 -0.5 -1.5l-0.5 -0.5q-1 0 -4.5 -0.5t-5.5 -0.5v0h-1q-10 1 -19.5 2t-18.5 1
zM136 87q0 6 1 8.5t6 5.5h7q9 0 13.5 -2.5t4.5 -12.5q0 -4 -2.5 -8t-5.5 -7h-6q-8 0 -13 4t-5 12zM143 88q0 -4 3 -6.5t7 -2.5q2 0 4.5 1t2.5 4q0 6 -2 9t-8 3q-4 0 -5.5 -2.5t-1.5 -5.5zM46 72v1l0.5 0.5l0.5 0.5q4 0 6.5 -3.5t4.5 -8t2.5 -8.5t0.5 -6q0 -3 -0.5 -7t-2 -8
t-4.5 -7t-7 -3l-0.5 0.5l-0.5 0.5v1v1q0 1 0.5 4t1.5 6.5t1.5 6.5l0.5 3l0.5 1t0.5 2l-0.5 1l-0.5 1q0 1 -0.5 4t-1.5 6.5t-1.5 6t-0.5 3.5v1zM79 45q0 4 -1.5 8t-2.5 7.5t-2.5 7t-1.5 7.5q5 0 8 -3.5t5.5 -8t4 -9.5t1.5 -8q0 -4 -1 -9t-3.5 -10t-5.5 -8.5t-8 -4.5v0.5v1.5
q0 4 1 7.5t2.5 7t2.5 7t1 7.5zM107 45q-1 4 -2.5 7.5t-3 7.5t-3 7.5t-1.5 7.5q5 0 8.5 -3t6 -8t3.5 -10t1 -9t-1 -8.5t-3 -8.5t-5.5 -6.5t-7.5 -2.5q0 3 1 6.5t3 6.5t3 6.5t1 6.5z" />
</svg>
