<?xml version="1.0" standalone="no"?>
<!DOCTYPE svg PUBLIC "-//W3C//DTD SVG 1.1//EN" "http://www.w3.org/Graphics/SVG/1.1/DTD/svg11.dtd" >
<svg xmlns="http://www.w3.org/2000/svg" xmlns:xlink="http://www.w3.org/1999/xlink" version="1.1" viewBox="-10 0 266 256">
   <path fill="currentColor"
d="M152 215q0 2 1.5 7.5t3.5 11.5t4.5 10.5t4.5 4.5q3 0 4 -2.5t1 -5.5q0 -4 -2 -7.5t-4 -6.5t-4 -6.5t-2 -7.5q0 -5 2 -9t5.5 -7l7 -6t6.5 -7q3 -3 4 -7t1.5 -8.5t0 -9t-0.5 -7.5q0 -5 -0.5 -12.5t-3 -14.5t-7 -12t-11.5 -5h-1q-1 0 -3.5 0.5l-2.5 0.5q-7 5 -10 10.5
t-4.5 11.5t-1.5 13v14v20l0.5 0.5t1.5 0.5v0.5v0.5q1 0 1 -0.5v-0.5l1 -0.5l1 -0.5q3 -4 3 -9v-10h1q2 0 4 2t3 4t2.5 3.5t3.5 1.5t2.5 -1t0.5 -3v-2q-2 -3 -5 -5l-6 -4t-5.5 -5t-2.5 -6q0 -4 1 -4.5t3 -0.5q6 0 9 3t6 8h0.5h0.5q2 0 2 -2v-4q0 -3 -2.5 -5t-6 -4t-6 -4
t-2.5 -6q0 -5 3 -6.5t7 -1.5q6 0 10 4.5t5.5 11t2 13t0.5 10.5q0 6 -0.5 12t-4.5 11t-8 9t-7 7.5t-5 8t-2 11.5zM73 175q0 1 1.5 6.5t2.5 13t3 16t4 15.5t4 11.5t4 4.5q4 0 4.5 -1.5t0.5 -4.5q0 -9 -3.5 -16t-6.5 -16q-5 -15 -5.5 -31.5t-0.5 -32.5q0 -15 3 -29l6 -28
q0 -1 0.5 -3.5t0.5 -4.5v-5v-4q0 -5 -1 -14.5t-3.5 -18.5t-7.5 -15.5t-12 -6.5q0 4 1.5 9.5t4 11t5.5 11t5 9.5v31q-1 1 -2 4.5t-2 4.5q0 3 -1 9t-2 12.5t-2 11.5t-1 6v3v6.5v6.5v6v4v6.5v6.5v5zM197 221q0 2 1.5 3.5t3.5 1.5q4 0 5.5 -3.5t1.5 -5.5v-61q-2 -2 -2.5 -6
t-0.5 -9t-0.5 -10t-0.5 -8l0.5 -1.5t0.5 -3t0.5 -3l0.5 -1.5v-2q0 -3 -1 -7t-1 -7q0 -5 1 -10.5t1 -10.5q0 -7 -0.5 -13.5t-3.5 -11.5t-8 -8.5t-15 -4.5l-1 -1v-21q0 -2 -1 -2.5t-3 -0.5h-2t-2 2v58q0 11 7 19t17 13q2 13 3 28t1 28v1t-0.5 2t-0.5 2v2v1q0 2 -0.5 3.5
t-0.5 3.5v3q0 6 1 11t1 11q0 5 -1 9.5t-1 9.5zM121 217q1 1 2 1h2h3t1 -3v-1.5t-0.5 -3t-0.5 -3v-1.5q0 -1 -0.5 -4t-0.5 -6.5t-0.5 -6t-0.5 -3.5l-2 -32t-1 -32v-17q1 -4 4.5 -5.5t7.5 -2t8 -2t7 -4.5q1 -3 2.5 -6.5t2 -7.5t1.5 -8t1 -6v-2v-2v-1t-0.5 -2.5t-0.5 -2.5v-1
v-1q0 -4 0.5 -7t0.5 -7v-5.5t-0.5 -7.5t-1.5 -7t-3 -3q-1 0 -2.5 2t-1.5 3v17l-1 1.5t-2 1.5q-1 1 -3 2t-5 2t-5 2.5t-3 1.5q-2 1 -3.5 5t-3 9.5t-3 12t-2.5 13t-1.5 11.5t-0.5 8v3q0 1 0.5 2t0.5 3t0.5 3t0.5 2q1 24 1 49q0 24 3 49zM55 207q0 1 2 3l2 2h0.5h0.5
q3 0 4.5 -2t1.5 -4v-2q-1 0 -1.5 -2t-1.5 -4.5t-1.5 -4.5t-0.5 -3q-3 -10 -3 -21v-21q0 -9 2 -17.5t2 -16.5q0 -2 -1 -4t-3 -2h-2t-1 1q-3 11 -5 22t-2 22v5.5v3.5q1 3 1.5 9.5t1.5 13.5t2 13.5t2 8.5zM92 151v3q0 3 0.5 7t1 9t1 9.5t0.5 6.5q0 1 1 5t2.5 8t2.5 7.5t2 3.5
q3 -1 4 -2.5t1 -3.5q0 -5 -2.5 -9.5t-2.5 -8.5q-1 -3 -1.5 -7.5t-0.5 -9t-0.5 -8l-0.5 -3.5v-3v-4.5v-5.5v-5v-3v-5.5v-4.5v-4q1 -3 1 -5v-5v-3t-2 -2t-3.5 4.5t-2 10.5t-1 12.5t-0.5 11.5v4zM179 77q0 -2 1 -3t4 -1q1 0 3.5 0.5t4.5 1t4 1.5t2 3v0q0 1 -0.5 3t-0.5 4
t-0.5 3.5t-0.5 2.5q0 2 -1 2h-2q-3 0 -6 -1.5t-4.5 -4t-2.5 -5.5t-1 -6zM126 84v-4q0 -3 2 -5h2.5t4 -0.5t4.5 -0.5h3h2q2 0 3 0.5t1 2.5q0 4 -1.5 6.5t-4.5 4.5t-6 3t-6 1q-2 0 -3 -0.5t-1 -2v-2.5v-3zM53 38q0 3 1 5.5t2.5 5.5l3 6t1.5 6v5.5v8v8.5v5q2 0 3.5 -1t2.5 -2
t2 -2.5l1 -1.5v-28q0 -2 -1 -5.5t-3 -6.5t-4.5 -5t-5.5 -2t-3 4zM100 72q0 3 2 3t3.5 -1.5t2.5 -4t1 -5v-4.5v-8.5t-1.5 -11t-4 -10.5t-6.5 -6l-0.5 2.5t-0.5 3.5q0 8 2.5 16t2.5 16q0 3 -0.5 5t-0.5 5zM144 48q4 0 5 4t1 7q0 2 -1 5t-3 3h-19q0 -3 1.5 -6t4 -6t5.5 -5t6 -2
zM177 56q0 -3 1 -6t5 -3q6 0 9.5 4t3.5 10q0 3 -0.5 4.5t-3.5 1.5q-6 0 -10.5 -2.5t-4.5 -8.5z" />
</svg>
