<?xml version="1.0" standalone="no"?>
<!DOCTYPE svg PUBLIC "-//W3C//DTD SVG 1.1//EN" "http://www.w3.org/Graphics/SVG/1.1/DTD/svg11.dtd" >
<svg xmlns="http://www.w3.org/2000/svg" xmlns:xlink="http://www.w3.org/1999/xlink" version="1.1" viewBox="-10 0 266 256">
   <path fill="currentColor"
d="M137 246q0 2 1.5 4t4.5 2q1 0 2.5 -0.5t2.5 -2.5q0 -4 1 -10.5t3 -13.5t4.5 -13.5t5.5 -9.5q4 -6 9.5 -10t12 -7l13 -6t11 -7t8 -10t3.5 -15q0 -13 -8 -20.5t-22 -7.5q-3 0 -7.5 -0.5t-7.5 1.5t-8 5t-11 7.5t-12 9.5t-11 9.5t-8 8t-3 6.5q6 0 11 -3.5t9 -7t7.5 -7
t7.5 -3.5q2 0 5 4.5t6 10t5 10.5t2 6q0 2 -1 3.5t-3 3t-4 2.5t-3 2l-3 3l-4 4l-4 4l-2 2q-3 3 -5.5 9t-4 12.5t-2.5 13.5t-1 11zM37 236q0 2 1 2.5t2 0.5h2.5h2.5q5 0 9 -5t7.5 -12t6.5 -15.5t5.5 -16t5 -12t5.5 -4.5h2q5 17 10.5 31.5t14.5 29.5q1 0 2.5 0.5t2.5 0.5
q4 0 5.5 -1.5t1.5 -5.5q-5 -7 -10 -15.5t-9 -17t-7 -17t-5 -17.5q-2 -14 -1.5 -27.5t-1.5 -27.5q0 -1 -0.5 -2t-1.5 -1v-17q0 -13 1 -25.5t1 -25.5v-12q-1 -3 -3 -7t-6 -4q-3 0 -4.5 1.5t-2 3t-0.5 3.5v4q0 7 2 13t2 12q0 3 0.5 9t0.5 13.5t0.5 14t0.5 8.5v25v25
q-1 5 -2.5 11t-3.5 12t-4.5 12t-5.5 10q0 1 -2.5 6t-6 10.5t-6.5 11.5t-5 9q-2 1 -4 4t-2 5zM168 138q0 -2 2.5 -4t6 -3.5t7 -2.5t5.5 -1q3 0 5.5 1t4.5 3l4 4l4 4v1q0 5 -1 10t-3 9.5t-5.5 7.5t-10.5 3q-2 0 -5.5 -4t-6.5 -9t-5 -10.5t-2 -8.5zM46 143q0 3 1.5 3.5t3.5 0.5
q4 0 6 -4t3 -9.5t1 -11v-7.5v-1q0 -3 -0.5 -10.5t-1 -16t-1 -15.5t-0.5 -10q-1 -3 -2.5 -3.5t-3.5 -0.5q-3 0 -4 1.5t-2 4.5v2v4.5v4.5v3q0 10 1 19.5t1 20.5v3v5.5v5.5v3q-2 3 -2 4.5v3.5zM103 135q0 3 0.5 7t4.5 4q3 0 4 -2.5t1 -4.5q0 -19 -1 -37t-1 -37q0 -1 -1.5 -4
t-4.5 -3v0q-1 1 -2 2.5t-2 1.5v9q0 11 2 21t2 21v1q0 1 -0.5 4t-1 6.5t-0.5 6.5v4zM123 114q1 2 2.5 2.5t3.5 0.5q4 0 7.5 -1.5t6.5 -4l6 -5t6 -4.5q5 -3 11 -6t11.5 -5.5t11 -5.5t10.5 -7q5 -3 9.5 -8t6.5 -10v-1.5v-3.5v-3v-2l0.5 -2t0 -4.5l-1 -5t-1.5 -3.5l-14 -13h-2
h-3q-10 0 -19 3t-17 7.5t-16.5 10.5t-16.5 11l-3 1.5t-1.5 1t-0.5 2v4.5q5 0 9 -2t7 -4.5t6 -4.5t8 -2q2 0 4.5 4.5t5 11t4 12t1.5 7.5v2q-1 1 -4.5 3t-7.5 4.5t-7.5 4.5t-4.5 3q-1 0 -4 1.5t-6.5 3t-5.5 3t-2 4.5zM163 46q0 -3 3 -6t7 -5t8 -3.5t7 -1.5q2 0 4.5 2t4.5 4
t3.5 4t2.5 2v1v1q0 5 -2 10.5t-5 10.5t-8 8.5t-10 3.5q-2 0 -4 -4t-5 -9.5t-4.5 -10.5t-1.5 -7z" />
</svg>
