<?xml version="1.0" standalone="no"?>
<!DOCTYPE svg PUBLIC "-//W3C//DTD SVG 1.1//EN" "http://www.w3.org/Graphics/SVG/1.1/DTD/svg11.dtd" >
<svg xmlns="http://www.w3.org/2000/svg" xmlns:xlink="http://www.w3.org/1999/xlink" version="1.1" viewBox="-10 0 266 256">
   <path fill="currentColor"
d="M57 248q0 2 1.5 2h2.5q6 0 9.5 -3.5t6.5 -9t4.5 -11t3.5 -9.5q3 -6 7 -13t6 -13q3 2 4.5 7t3 11.5t3 13.5t3 13.5t4.5 10t7 3.5q3 0 5 -2t2 -5q0 -1 -1.5 -4.5t-3 -6.5t-3.5 -5.5t-4 -4.5q0 -5 -1 -9t-2.5 -7.5t-2.5 -7t-2 -7.5q-5 -23 -6 -44.5t-1 -44.5q0 -1 -1 -3.5
t0 -3.5q0 -3 3.5 -4.5t7 -3.5t8 -4t8 -5t6 -8.5t2.5 -13.5q0 -5 -1 -12.5t-4 -14.5t-8 -11.5t-13 -4.5q-13 0 -23 6.5t-17.5 16t-13.5 21t-10 20.5l-1.5 4.5t-0.5 3.5t1 3t4 1q2 0 4.5 -3.5t4.5 -8t4.5 -9t5.5 -6.5q1 2 3.5 5.5t5 7.5t4.5 7.5l2 3.5q3 0 4 -2.5t1 -4.5
q0 -4 -2 -8t-4.5 -7.5t-4 -7t-1.5 -8.5q0 -3 2 -6t5 -3q5 0 7.5 2.5t4.5 6.5t2.5 8.5t1.5 8.5t2.5 6.5t4.5 2.5t3 -2.5v-4.5q0 -5 -2.5 -10.5t-5 -10.5t-5 -9t-2.5 -5q0 -3 1.5 -4.5t3.5 -3t5 -1.5h5q4 0 7 3.5t5 9t2.5 11t0.5 8.5v5v6q-1 4 -6 8t-9 6q-1 1 -4 2.5l-6 3
l-6 3t-4 1.5q-2 -1 -7 1.5t-10 6.5t-9 8.5t-6 7.5l-1.5 2.5t-3 5.5t-3 5t-1.5 3v11q3 0 6 -2.5t5 -6.5t4.5 -7.5t4.5 -6.5l2.5 -2.5l5 -5l5 -5l3.5 -3.5t2.5 -1.5t2.5 -0.5q2 0 3 5t1.5 11t0.5 12v8v10q0 2 -1 7t-1.5 10t-1.5 10t-1 6q-1 1 -2 3.5t-2 6t-1.5 6.5t-1.5 4
q-1 2 -5 9.5t-9 15.5t-8.5 15t-3.5 9zM140 189q0 9 0.5 17t3 13.5t8.5 8.5t18 3q4 0 10.5 -0.5t12.5 -2t11 -4.5t7 -8v-18q0 -11 -0.5 -18t-4 -11.5t-9.5 -6.5t-17 -4q-2 0 -2 -1v-2q0 -4 1 -7.5t1 -7.5v-3q0 -1 -0.5 -3t-0.5 -4.5t-0.5 -5l-0.5 -2.5v-5t0.5 -6t0.5 -5t1 -2
l1 -3h27q2 0 2.5 -2t0.5 -3v-3.5t-2 -2.5h-29v-44q0 -4 2.5 -5.5t6.5 -3t7 -3.5t4 -6q0 -1 -1 -2l-1.5 -1.5t-2 -0.5h-1.5q-5 0 -9.5 3t-8 8t-6 10t-2.5 10q0 6 1 11.5t1 11.5q0 1 -0.5 3.5l-1 5t-1.5 4.5t-2 2h-27q-1 0 -1.5 2t-0.5 3t0.5 2.5t1.5 1.5h28q1 0 1.5 1.5
l0.5 1.5v3v5q0 4 -1 6t-1 5q0 8 1.5 15.5t1.5 15.5q0 4 -3.5 6t-8.5 3.5t-10 4.5t-7 9v11zM152 201q3 -1 5.5 -2.5t5.5 -1.5q5 0 7 2t2 8v4q0 2 -0.5 4t-1.5 4t-3 2t-4.5 -0.5l-5 -1t-4 -2t-1.5 -3.5v-13zM181 204v-2.5v-2.5q2 -2 5 -2h5h7q2 1 2 3v2q0 3 -1 6t-2.5 5.5
t-3.5 4t-5 1.5h-2h-1q-3 -4 -3.5 -7.5t-0.5 -7.5zM62 189q0 4 4 4t8 -3.5t4 -8.5q0 -2 0.5 -8.5t1 -13.5t0.5 -13.5v-8.5v-4q0 -2 -1 -4t-4 -2h-2t-1 1q-2 4 -2 8v8v9v7t-1.5 7t-3 7.5t-2.5 7t-1 7.5zM152 184q0 -6 3 -11t11 -5q1 0 2 2t1 4t0.5 4.5t0.5 3.5v3t-1 3h-1.5
t-3.5 0.5t-3.5 0.5h-2.5h-1q-2 0 -3.5 -1.5t-1.5 -3.5zM113 122q0 1 1 6t1.5 10t1.5 10t1 7q1 2 1.5 7.5l1 11t2 10t4.5 4.5q4 0 4.5 -1.5t0.5 -5.5q0 -5 -1 -10.5t-2.5 -10.5t-2.5 -10t-1 -10v-3v-6v-5v-3q0 -2 -2.5 -3.5t-4.5 -1.5t-3 1t-2 3zM181 180v-4t0.5 -4t1.5 -3
t3 -1q7 0 9.5 4t2.5 9v3v2q-3 1 -5 1.5t-5 0.5h-5q-2 -2 -2 -4v-4zM141 153q0 3 2 3.5t4 0.5q3 0 4.5 -3t2 -6.5t0.5 -7t1 -5.5q0 -1 0.5 -3t1 -4.5t1 -4.5t0.5 -3v-1v-1l-0.5 -1.5t-1.5 -1.5v0q-3 0 -5.5 5t-4.5 12t-3.5 13t-1.5 8zM188 118q0 5 1 9.5t3 8t4 7.5l4 8v1h1
q4 0 4 -4q0 -1 -1 -7t-3 -12.5t-4 -11.5t-5 -5t-3.5 2t-0.5 4zM150 77q0 1 0.5 3.5t1.5 3.5h1h3t2 -2v-29q0 -2 -1 -2h-2h-2t-1 2q-1 1 -1 4.5t-0.5 7.5t-0.5 7.5v4.5zM191 82l2 2h1q2 0 3.5 -1.5t2.5 -4t1 -4.5v-4v-5q0 -3 -0.5 -6.5t-1.5 -6.5t-3 -3h-1q-1 0 -3 1t-3 1v5
q0 7 0.5 12.5t1.5 13.5z" />
</svg>
