<?xml version="1.0" standalone="no"?>
<!DOCTYPE svg PUBLIC "-//W3C//DTD SVG 1.1//EN" "http://www.w3.org/Graphics/SVG/1.1/DTD/svg11.dtd" >
<svg xmlns="http://www.w3.org/2000/svg" xmlns:xlink="http://www.w3.org/1999/xlink" version="1.1" viewBox="-10 0 266 256">
   <path fill="currentColor"
d="M164 249q0 2 2 2h3h2.5t1.5 -2v-12q0 -16 -0.5 -31.5t-0.5 -32.5v-4v-8v-7.5v-4.5l0.5 -0.5l0.5 -0.5h1q10 0 15 6.5t7 16t2 19.5v15q0 1 -0.5 4t-0.5 5v5.5v3.5q-1 2 -1 3.5v3.5t1.5 4t3.5 2q3 0 5 -2.5t2 -5.5v-2q0 -3 -0.5 -10l-1 -14t-1 -12.5t-0.5 -6.5
q0 -4 -0.5 -9t-2 -10t-3.5 -9t-5 -7q-2 -3 -6 -4l-8 -2t-7 -2.5t-3 -4.5q0 -4 0.5 -6l1.5 -6q5 -1 10 -1.5t9.5 -2.5t7 -6t2.5 -11q0 -9 -2 -14.5t-6 -8.5t-10.5 -3.5t-14.5 -0.5q-6 0 -12 1t-10.5 3.5t-7.5 6.5t-3 11q0 8 2 13t5.5 7t8.5 3t11 2v18l-1 0.5t-2 0.5t-3 0.5
t-4 1.5t-4.5 2l-2.5 1q-7 4 -10 12.5t-4 19t-0.5 20.5t0.5 16v19q1 3 4 3t5 -3v-31.5t2 -31.5q0 -4 1 -7.5t3 -6.5t5 -5t6 -2h3h2q0 5 0.5 16t0.5 24t0.5 24.5t0.5 16.5v19zM43 131q0 1 0.5 2.5t1.5 1.5h28l0.5 0.5t1.5 0.5q0 1 0.5 2t0.5 2v109q3 0 5.5 -0.5t4.5 -2.5
q0 -2 0.5 -6.5t0.5 -9.5t0.5 -10t0.5 -6v-4q0 -3 -0.5 -4.5l-1.5 -4.5v-66h27q3 0 3.5 -3t0.5 -5h-29q-1 0 -1.5 -1t-1 -2.5t-1 -3.5l-0.5 -2q0 -7 1.5 -9.5t4 -3.5t5 -1.5t5.5 -4.5q1 -1 3 -3.5l2 -2.5v-50l-2 -1t-3 -1h-1q-2 0 -2 2v3q0 7 1 13t1 12v7t-1 7.5t-3 6t-6 2.5
h-3q-2 -9 -2 -17.5v-17.5v-18q1 0 1.5 -2t0.5 -3v-1v-2q0 -1 -0.5 -5t-1.5 -5t-2 -1h-3h-1.5t-1.5 1v71q-6 0 -9 -2.5t-3 -10.5q-1 -2 -1 -7t-0.5 -11t-0.5 -11.5v-7.5q-1 -1 -2.5 -2t-2.5 -1l-0.5 0.5t-0.5 1.5v12v9v8t0.5 8t0.5 9q1 5 4 7.5t6.5 4.5t6 3l2.5 1v18l-3 4
h-25q-2 0 -3.5 1.5t-1.5 2.5zM145 97v-6q1 -2 4 -4t5 -2h31q2 0 3.5 1.5t2.5 3.5t1.5 4.5t0.5 3.5q0 6 -4 10t-9 6h-11q-5 0 -9.5 -0.5t-7.5 -2t-5 -5t-2 -9.5zM119 64q0 2 1.5 2.5t3.5 0.5q5 0 9.5 -3t9.5 -6.5t10.5 -6t13.5 -2.5q7 0 13 2t10.5 5t9 5.5t8.5 2.5
q3 0 3.5 -1.5t0.5 -2.5q0 -3 -3.5 -5.5t-8.5 -5t-10.5 -4t-10.5 -3.5t-8.5 -3.5t-3.5 -3.5q0 -4 1 -8t1 -8q0 -3 -2 -5t-5 -2q-5 0 -5 4t1 8t1 8v5q0 2 -2 4l-1.5 0.5t-3.5 1.5t-3.5 2t-2.5 1q-2 1 -6 3.5t-8.5 5t-8 5t-4.5 4.5z" />
</svg>
