<?xml version="1.0" standalone="no"?>
<!DOCTYPE svg PUBLIC "-//W3C//DTD SVG 1.1//EN" "http://www.w3.org/Graphics/SVG/1.1/DTD/svg11.dtd" >
<svg xmlns="http://www.w3.org/2000/svg" xmlns:xlink="http://www.w3.org/1999/xlink" version="1.1" viewBox="-10 0 266 256">
   <path fill="currentColor"
d="M86 159v90q0 1 1.5 1.5t2.5 0.5t2 -0.5t2 -1.5v-7.5t0.5 -11.5t0.5 -11.5v-7.5v-8v-12v-14.5t-0.5 -14.5t-0.5 -12v-8h21q1 0 1 -2v-2v-2.5t-1 -1.5h-20v-18q0 -1 2.5 -2t5.5 -3t5.5 -4.5t3.5 -5.5v-10t0.5 -15.5t0.5 -16v-10.5v-3q0 -2 -1.5 -3.5t-3.5 -1.5h-1l-1 1.5
l-1 1.5v54q0 1 -2 3.5t-3 3.5h-1h-2h-1.5t-1.5 -2q-1 -2 -1 -7.5t-0.5 -12t-0.5 -12v-7.5v-17q0 -6 1 -11.5t1 -11.5q0 -2 -1.5 -3l-3 -2t-3.5 -1h-3q0 15 0.5 30.5t0.5 30.5v6v5.5t-0.5 5.5t-0.5 7h-1.5h-0.5q-4 0 -6.5 -4t-2.5 -8l-3 -47q0 -1 -1.5 -1.5t-2.5 -0.5
q-4 0 -4.5 2.5t-0.5 5.5q0 13 2 27.5t6 27.5q3 5 7 6t9 4q1 0 1.5 0.5l0.5 0.5v21h-34q-2 0 -2.5 1t-0.5 3t1.5 3.5t3.5 1.5q6 0 12 -1t12 -1h4h2zM192 95q-14 1 -27.5 2.5t-27.5 3.5q-5 1 -8 5t-4 9t-1 10v11v6v10v11v6q-1 18 -3 37.5t-2 38.5q4 0 6.5 -4t3.5 -8
q2 -27 2 -55.5t1 -54.5q2 -10 7.5 -14t14.5 -4q3 0 10 -0.5t15 -1.5t15.5 -1.5t10.5 -0.5l0.5 -0.5l0.5 -0.5v-1q0 -2 -2.5 -3.5t-3.5 -2.5l1.5 -2t1.5 -3l-0.5 -1.5t-1.5 -1.5q-1 -1 -4 -3t-7 -4.5t-7 -4.5t-4 -3l-4 -2t-2 -3q0 -3 1 -5.5t3.5 -5t5 -4t4.5 -1.5t4.5 1t5 3
t4.5 3t5 1q2 0 3.5 -0.5t1.5 -3.5v-1t-1 -1q-1 -1 -6 -3.5t-10.5 -5.5t-10 -5.5t-6.5 -4.5q-1 0 -4 -2t-4 -3l-0.5 -0.5l-0.5 -0.5q-1 -2 -1 -4t-0.5 -4t-1.5 -3t-4 -1q-1 0 -3 0.5t-2 2.5v0v1l0.5 3l0.5 3v1q0 4 -2.5 7.5t-5.5 6.5t-7 5t-6 5q-1 0 -3 2l-4.5 4.5l-4.5 4.5
t-3 2l-1.5 1.5t-0.5 2.5q0 1 0.5 2.5t1.5 1.5l1 -0.5t2 -0.5q1 -1 3 -2.5t4 -3.5t4 -3.5t2 -2.5h4q1 0 4 1t5.5 2.5t4.5 3.5t2 4v1l-1 2t-2 2q-1 2 -4 5t-6 6.5t-6 6.5l-4 4q1 0 2 1l1 1q3 0 5 -1.5t3.5 -3.5t3 -4.5t2.5 -4.5l3 -3l3.5 -3.5l3 -3l1.5 -1.5h4q1 1 3 2t4 2.5
l4 3t3 2.5q1 0 3.5 1.5t4.5 2.5t4 2.5t2 4.5v0q0 1 -0.5 1.5t-1.5 0.5zM139 215q0 2 1.5 3t3 1.5t3.5 0.5h3h4t3 -1h9.5t13.5 -0.5t13.5 -0.5h9.5q2 -1 2.5 -2t0.5 -3v-2.5t-1 -1.5h-30v-16l1 -0.5l1 -0.5q5 -4 11 -4h10v-6h-23v-17l1 -0.5l1 -0.5q4 -1 6.5 -1.5t4 -1
t3.5 -2t4 -5.5q1 -8 1.5 -13t0.5 -13v-9q-1 -1 -1.5 -1h-1.5q-2 0 -3 1t-1.5 3t-0.5 4v3v3.5v5.5v5.5v3.5q-1 4 -4 6t-7 2h-1.5t-1.5 -1v-45h-1q-1 0 -1 1q-1 0 -2.5 0.5l-1.5 0.5v46q-7 0 -11 -3.5t-5.5 -8.5t-2 -11t-0.5 -13l-3 3q-1 1 -1 4.5v5.5v3v4t0.5 4l0.5 2
q0 8 3.5 11.5t7.5 5t7 2t3 1.5v16q-1 0 -3 0.5t-4.5 0.5t-4.5 0.5t-3 0.5q-2 0 -2.5 0.5t-0.5 2.5v2.5t1 1.5h17v18q-8 0 -14.5 2t-14.5 3v0zM148 49q0 -2 2 -4l4.5 -4.5t5.5 -3.5t4 -1q2 0 4 0.5t4.5 2t3.5 3.5t1 4v0.5v0.5l-12 14h-2q-1 0 -4 -1.5t-5 -3t-4 -3.5t-2 -4z
" />
</svg>
