<?xml version="1.0" standalone="no"?>
<!DOCTYPE svg PUBLIC "-//W3C//DTD SVG 1.1//EN" "http://www.w3.org/Graphics/SVG/1.1/DTD/svg11.dtd" >
<svg xmlns="http://www.w3.org/2000/svg" xmlns:xlink="http://www.w3.org/1999/xlink" version="1.1" viewBox="-10 0 266 256">
   <path fill="currentColor"
d="M56 189q0 2 1.5 7t3.5 10.5t3.5 10.5t2.5 7l2.5 7.5t3.5 8.5t4.5 7t6.5 3q2 0 3.5 -2t1.5 -4v0q0 -1 -0.5 -3t-1.5 -2q0 -1 -1.5 -4.5t-3.5 -7t-3.5 -7t-2.5 -4.5q-4 -9 -6 -20t-2 -21q0 -7 2.5 -13l5 -12l5 -12t2.5 -13q0 -6 -2.5 -9.5t-5.5 -5.5t-5.5 -4t-2.5 -5v-1v-1
v-3t0.5 -5t0.5 -5v-3l1 -1l2.5 -2.5t2.5 -2t2 -0.5l1.5 0.5l1.5 0.5q1 0 1.5 0.5t0.5 1.5v19q0 2 2 2h2q2 0 3 -6.5t2 -15t1.5 -16.5t0.5 -11v-4t-0.5 -4t-2 -3t-3.5 -1t-3.5 1.5t-1.5 2.5v19q-1 0 -3.5 0.5t-2.5 -1.5q-1 -1 -1.5 -4.5t-0.5 -4.5v-6.5v-10.5v-9.5v-6.5
l-4 -4t-6 -2q-2 0 -2.5 1.5t-0.5 3.5q0 9 1.5 17.5t1.5 16.5v7.5t-1 7.5q0 1 -1.5 1.5l-1.5 0.5q-1 0 -3 0.5t-4.5 0.5t-4.5 0.5t-3 0.5t-1 1v2q0 2 1 5q3 -1 5.5 -1t5 0.5t4 2.5t1.5 5q0 7 -3 14t-7 13.5t-7.5 13t-3.5 13.5q0 3 4 5q4 1 6.5 -4t5 -11t5 -11t5.5 -5t4.5 1.5
t2.5 3.5t1 4.5v3.5q0 4 -1 7t-3 5.5t-4 5.5t-3 6q-6 14 -6 31v6zM176 177q0 7 1 15t2 14q1 5 4.5 12.5t8 14.5t9 12t8.5 5q3 0 5 -1t2 -4t-1.5 -6t-3.5 -5.5l-4 -5t-4 -4.5q-7 -10 -10.5 -20.5t-3.5 -22.5v-9q0 -5 1.5 -8.5t4.5 -7.5t5.5 -7.5t4.5 -7.5t2 -8q0 -7 -4 -11
t-9 -7t-9 -7t-4 -10q0 -3 0.5 -6.5t2 -6.5t3.5 -5t6 -2q5 0 6 4.5t1 9.5t0.5 9.5t5.5 4.5q2 0 4.5 -1.5t2.5 -4.5v-1q0 -1 -0.5 -3t-1 -5t-1 -5t-0.5 -3q-1 -3 -1 -9t-0.5 -13t-0.5 -13v-8q0 -3 -1 -3.5t-2 -0.5q-2 0 -2.5 0.5t-2.5 1.5l-1 1l-1 1v24q0 4 -2 5t-5 1h-4.5
t-2.5 -3v-34q0 -4 -2 -5t-5 -1t-4.5 0.5t-1.5 4.5q0 8 2 16.5t2 16.5v3v2l-2 2h-4.5t-7 0.5t-6.5 2t-3 4.5t2 3.5t4 0.5q3 0 5 -1t5 -1q4 0 4.5 2.5t0.5 5.5q0 4 -1 10t-2.5 12.5t-3 12.5l-2.5 10q-1 3 -4 7.5t-3 8.5v0q0 1 0.5 1.5t1.5 0.5v0q4 0 5.5 -1.5t2.5 -3.5
t1.5 -4.5t1.5 -4.5q0 -1 1 -4l2 -6l2 -6t1 -4q1 -1 2 -1h2q3 0 5 1.5t3.5 4l3 5t1.5 4.5q0 6 -3 11t-5.5 10t-5.5 10.5t-3 13.5zM102 197q10 0 18.5 2t18.5 2q1 0 3 -0.5t4 -0.5h4h3q3 -2 3 -5q0 -2 -2 -2.5t-5 -0.5t-5.5 -0.5t-2.5 -2.5v-35q0 -3 2 -6t4.5 -6.5t5 -6.5
t3.5 -5v-4.5v-4.5q0 -7 -2 -11.5t-5 -7.5t-5.5 -6t-2.5 -7v-4q0 -2 0.5 -5t0.5 -6.5t0.5 -7t0.5 -4.5q1 -1 3 -1.5l4 -1t3 -1.5t1 -3v-1l-3 -3t-4 -2l-0.5 0.5l-0.5 0.5h-1h-2.5t-3 0.5l-1.5 0.5h-4.5t-8 0.5t-8 1t-4.5 0.5q-3 0 -5 1.5t-3.5 3.5t-2.5 4.5t-2 4.5
q-3 22 -4.5 45.5t-1.5 45.5v0v4t0.5 6t0.5 6v4q0 2 0.5 4.5t1 5.5t2 5.5t3.5 3.5zM103 147v-21q0 -1 0.5 -5.5t0.5 -9.5t0.5 -9.5t0.5 -5.5q0 -2 0.5 -5t1 -7t1 -7l0.5 -3q0 -1 1.5 -3.5t1.5 -3.5l0.5 -1t1.5 -1l1 1t2 1v2t0.5 3.5t1 3.5l0.5 2v1q0 7 -1.5 16.5t-2.5 16.5
v14.5t-0.5 22t-0.5 21.5v14q-1 0 -1.5 0.5t-0.5 1.5h-1q-2 0 -3.5 -2.5t-2.5 -6t-1 -6.5v-5v-19zM121 168q0 -1 0.5 -3.5l0.5 -2.5v-13.5v-20.5v-20.5v-13.5q0 -1 0.5 -5.5t1 -9.5t1 -9.5t0.5 -5.5q1 -2 2 -2h3t3 1t1 2.5t-0.5 3.5t-0.5 5q0 1 0.5 4t0.5 6t0.5 6t0.5 4
q1 4 3.5 7t4.5 6.5t3.5 7.5t1.5 7q0 5 -1.5 8.5t-3.5 6.5t-4 5.5t-4 6.5l-0.5 3t-1.5 5v5.5t-0.5 9t-0.5 8.5v6h-7q0 -1 -0.5 -3l-1 -4t-0.5 -3.5t-1 -2.5q0 -1 -0.5 -2.5t-0.5 -2.5z" />
</svg>
