<?xml version="1.0" standalone="no"?>
<!DOCTYPE svg PUBLIC "-//W3C//DTD SVG 1.1//EN" "http://www.w3.org/Graphics/SVG/1.1/DTD/svg11.dtd" >
<svg xmlns="http://www.w3.org/2000/svg" xmlns:xlink="http://www.w3.org/1999/xlink" version="1.1" viewBox="-10 0 266 256">
   <path fill="currentColor"
d="M155 225v6t1 8.5t2.5 8t3.5 3.5q6 0 8 -4.5t2 -8.5q0 -6 -1 -10.5t-1 -10.5q0 -8 2.5 -14t6.5 -11.5t8.5 -10t8.5 -10t6.5 -12t2.5 -14.5q0 -11 -2.5 -18.5t-8 -13t-13 -9t-17.5 -6.5q-2 0 -2.5 -1.5t-0.5 -3.5t-1 -3l-2 -2q-2 1 -2.5 2t-0.5 3t-0.5 3.5t-2.5 1.5
q-5 2 -8 3t-6 3t-6 4.5t-6 6.5v1v2t1 1q4 0 7 -2t6.5 -4.5t7 -4.5t8.5 -2q7 0 13.5 3t12.5 6q4 1 6 4t3.5 6.5t2 7.5t1.5 7v1v0q-1 4 -1 8t-1 7.5t-2.5 7t-3.5 6.5l-4.5 4.5l-7 7t-7 6.5t-4.5 4q-3 7 -6 16t-3 17zM75 168q0 9 1.5 19t3.5 20t5.5 19.5t6.5 18.5q1 2 3 1.5
t4 -0.5t4.5 -0.5t2.5 -4.5v-1v-1q0 -1 -1 -2t-1.5 -2.5t-1.5 -3l-1 -1.5q-1 -3 -2.5 -9.5t-3 -13.5t-3.5 -12.5t-3 -6.5q-1 -5 -1 -9.5t-0.5 -8.5t-0.5 -8v-10t1 -12t2.5 -11.5t2.5 -11.5t1 -12q0 -3 -1.5 -5.5t-4 -5t-5 -4.5t-3.5 -4v-1q0 -2 0.5 -5t1.5 -5.5t3 -5t4 -2.5
q3 -1 6.5 1t4.5 5v4v6v7v4q0 3 0.5 3.5t2.5 0.5q4 0 4 -3v-3v-3.5t-0.5 -5.5t-0.5 -5.5v-3.5l0.5 -2l0.5 -2q0 -7 0.5 -12t1 -9.5t1.5 -9t1 -9.5q0 -2 -1 -3t-3 -1q-4 0 -5.5 4.5t-2 10t-0.5 11.5q0 5 -1 7q-2 2 -3.5 2h-4.5h-2t-2 -2v-44q0 -2 -2.5 -3l-2.5 -1v0
q-4 0 -6.5 3t-2.5 6q0 9 2 17t2 17q0 1 -0.5 4l-0.5 3l-1 1q-1 0 -3.5 0.5t-5.5 0.5t-5 0.5t-3 0.5q-2 0 -4 2t-2 4t2 1.5l2 -0.5q4 0 7 -0.5t7 -0.5q2 0 3.5 0.5t1.5 3.5q0 4 -2.5 8t-6 8t-6 7.5t-2.5 6.5t1 3h3q4 0 5.5 -1.5t2.5 -3.5t2 -3.5t4 -1.5q6 0 8 6v4v5
q0 7 -1 13.5t-2.5 13.5l-3 14t-1.5 15zM112 208q0 2 0.5 3.5t3.5 1.5q2 0 3.5 -1t2 -3.5t0.5 -4.5t1 -4q4 -13 13 -22t20 -15q3 -2 6.5 -2t7.5 -1t6.5 -3t2.5 -5h-10t-10 1q-1 1 -4.5 2.5t-7.5 3t-7.5 3t-4.5 2.5q-5 4 -9.5 9t-7.5 11t-4.5 12t-1.5 12zM106 152q0 2 1 2.5
t3 0.5q8 0 16 -1.5t16 -3.5t16.5 -4.5t16.5 -2.5q0 -1 0.5 -2l0.5 -1l0.5 -0.5l0.5 -0.5q0 -1 -1.5 -1.5t-2.5 -0.5h-3l-63 12q-1 0 -1 1v2zM107 134q1 2 2.5 2.5t3.5 0.5v0q2 0 6.5 -0.5t9 -1.5t8 -1.5t4.5 -0.5q3 -1 8.5 -1.5t11 -1.5t10 -2.5t4.5 -5.5q-16 0 -31.5 3
t-31.5 6q-1 1 -2.5 1.5t-2.5 1.5zM117 80q3 5 6.5 6.5t8.5 1.5q3 0 7.5 -1t8.5 -3.5t6 -6t1 -7.5q-1 -3 -3 -5.5t-5 -4t-6.5 -2t-6.5 -0.5q-8 0 -13 3.5t-5 12.5v3q0 2 1 3zM165 74q0 8 6 10.5t13 2.5q3 0 6.5 -1t7 -2.5t6 -4t2.5 -5.5q0 -4 -1 -7t-3 -6t-4.5 -4.5
t-6.5 -1.5q-12 0 -19 4t-7 15zM123 75q0 -5 3 -8.5t8 -4.5q5 0 7.5 4t2.5 9v3t-3 2h-15q-3 0 -3 -2v-3zM173 73q0 -4 2.5 -7.5t6.5 -3.5q5 0 8 3t3 8t-3.5 6t-7.5 1t-6.5 -1.5t-2.5 -5.5zM137 34q0 8 6.5 11.5t13.5 3.5q5 0 8.5 -1.5t7 -4t5 -6t1.5 -7.5q0 -8 -5 -11t-12 -3
q-5 0 -9.5 0.5t-7.5 2.5t-5.5 6t-2.5 9zM145 34q0 -5 4.5 -8t8.5 -3q5 0 7 4t5 7v0.5v0.5q0 2 -1.5 3.5t-3.5 2t-5 1t-4 0.5q-4 0 -7.5 -2t-3.5 -6z" />
</svg>
