<?xml version="1.0" standalone="no"?>
<!DOCTYPE svg PUBLIC "-//W3C//DTD SVG 1.1//EN" "http://www.w3.org/Graphics/SVG/1.1/DTD/svg11.dtd" >
<svg xmlns="http://www.w3.org/2000/svg" xmlns:xlink="http://www.w3.org/1999/xlink" version="1.1" viewBox="-10 0 266 256">
   <path fill="currentColor"
d="M174 248q0 2 2 2.5t3 0.5q3 0 5.5 -1.5t2.5 -5.5v-25q0 -12 -0.5 -22t-1.5 -18.5t-3.5 -18t-6.5 -21.5h-0.5h-0.5q0 -4 3 -6t6 -3.5l6 -3t3 -5.5v-19q-1 0 -2 -1t-1 -2q-2 -3 -5.5 -7t-7 -7t-6 -5.5t-2.5 -4.5v-25q0 -1 1.5 -1.5l1.5 -0.5h1h1q1 1 3 2t4.5 2.5t5 2.5
t3.5 2l1 1l2.5 2.5l2.5 2.5t2 1h1q3 0 5 -1.5t2 -4.5q0 -4 -4.5 -7.5t-10 -6t-11 -4t-8.5 -2.5q-1 -1 -1 -3v-4q0 -4 0.5 -6.5t0.5 -5.5t-0.5 -4.5t-3.5 -1.5q-2 0 -4.5 0.5t-3.5 2.5q0 1 -0.5 3.5l-0.5 2.5q0 1 0.5 3.5l0.5 2.5q0 1 1 3.5t1 3.5q0 2 -3.5 3.5t-8 3t-10 4
t-10 5t-7.5 6.5t-3 9q5 0 10 -3l10 -6t9 -6t7 -3q1 0 2 2.5t1.5 6t0.5 7.5v4q0 8 -4.5 12.5t-9.5 8.5t-9 9t-4 14q0 5 3 9t6.5 7t6.5 5t3 5v0.5v0.5q0 1 -1 2.5t-1.5 3t-1.5 3t-1 2.5t-1 4t-1.5 6.5l-1 7t-1.5 5.5v3v5v5v3q-1 13 -3.5 27t-2.5 27q0 2 1.5 2.5t2.5 0.5
q5 0 7.5 -8t3.5 -19t1 -24t1 -24.5t3 -19t8 -7.5q2 0 3.5 2t2.5 5l2 6t2 4q1 8 2 14.5t1 12.5v12v14q0 9 -1 17t-1 17zM110 166v8v10v9v4t0.5 6t1 11l1 12t0.5 9q0 2 0.5 4.5t1 4.5t2.5 3.5t4 1.5q3 0 4 -2t1 -5q0 -6 -1.5 -11t-2.5 -11q0 -3 -0.5 -9.5t-1 -14t-1 -14.5
t-0.5 -9v-4v-6q0 -12 1 -24t1 -24v-4v-5v-5.5v-3.5q-1 -2 -1.5 -4.5t-0.5 -5.5t-0.5 -5.5t-2.5 -4.5q-4 -5 -9 -7.5l-10 -5t-8.5 -6t-4.5 -10.5q0 -3 2.5 -4.5t5.5 -3t6.5 -2t4.5 -0.5h3.5h5.5h5.5h3.5q2 0 3.5 -2t1.5 -4t-0.5 -2.5l-1.5 -1.5h-9q-5 0 -14.5 1.5t-18.5 4
t-17 6.5t-12 10q-3 5 -3.5 10t-0.5 10v3v3q0 2 0.5 4l0.5 2l0.5 3.5t1 9t1.5 12t1 12.5t0.5 11.5t0.5 8.5q0 25 -1.5 49.5t-5.5 48.5v4v4q4 0 7.5 -1.5t5.5 -6.5q0 -3 0.5 -11t1 -17t1 -17.5t0.5 -11.5v-26q0 -20 -1.5 -39t-1.5 -38v-17q0 -2 0.5 -4t1.5 -3.5t2.5 -3
t3.5 -1.5t3.5 0.5t2.5 3.5q1 8 2 16.5t1 16.5q0 6 -1 13t-2 13.5l-2 13t-1 13.5q0 8 3.5 11.5t10.5 3.5q8 0 12 -6t5 -13q0 -8 -0.5 -16t-2.5 -16q0 -3 -2.5 -5t-4.5 -3.5t-3.5 -2.5t-1.5 -2v-14q0 -1 1 -1h2q8 0 12 3t6 8.5t2 12.5v13q0 5 0.5 12.5t-1.5 12.5v6v9.5v8.5v6z
M81 141v-6q0 -4 0.5 -7.5t0.5 -7t1 -7.5t1 -9q1 -1 1.5 -2.5t2.5 -2.5q1 1 2.5 4.5t2.5 7.5t1.5 7.5t0.5 4.5v1q0 1 -0.5 3.5t-1.5 5.5t-1.5 5t-0.5 3l-3 1.5t-3 0.5h-2t-2 -2zM141 112q0 -4 2 -8t5 -7.5t7 -5.5t8 -2q2 0 6 2t7 5.5t5.5 7t2.5 6.5q0 4 -2.5 7.5t-6 6t-7.5 4
t-7 1.5q-4 0 -7.5 -1t-6 -4t-4.5 -6t-2 -6z" />
</svg>
