<?xml version="1.0" standalone="no"?>
<!DOCTYPE svg PUBLIC "-//W3C//DTD SVG 1.1//EN" "http://www.w3.org/Graphics/SVG/1.1/DTD/svg11.dtd" >
<svg xmlns="http://www.w3.org/2000/svg" xmlns:xlink="http://www.w3.org/1999/xlink" version="1.1" viewBox="-10 0 266 256">
   <path fill="currentColor"
d="M84 172v3.5t1 3t1.5 3t2.5 4.5q5 7 10.5 10t11.5 4l12 2t11 5q4 2 5.5 5t2 6.5t1.5 7t4 6.5q0 1 2 3.5t3.5 4.5t3 3.5t1.5 2.5q2 2 3.5 3t2.5 1.5t2.5 1t3.5 0.5q3 0 5.5 -0.5t3.5 -4.5l-0.5 -1t-0.5 -2q-5 -6 -10.5 -10.5t-9.5 -10t-6.5 -12t-2.5 -15.5q0 -6 1.5 -11.5
t3 -10.5t3 -10.5t1.5 -12.5q0 -3 -3.5 -5t-8 -3.5t-8 -3t-3.5 -4.5q0 -2 3 -3.5t7 -4t7 -6t3 -9.5v-1v-2q-1 0 -2 -1.5t-3 -3.5l-3.5 -3.5t-2.5 -1.5l-1 -1l-1 -1h-29v-27q0 -2 1.5 -3.5t4 -3t5 -2.5t4.5 -1q6 0 9.5 3t4.5 7.5t1 10v9.5q0 1 1 1h3h2.5t1.5 -3v-2t0.5 -4
t0.5 -4v-3h2q7 0 13 2t11 4.5t10.5 5t11.5 2.5q1 0 3.5 -0.5l2.5 -0.5q1 0 1.5 -1.5t0.5 -2.5q-1 -3 -6.5 -5.5t-14 -5t-18.5 -5.5t-18 -6t-13.5 -6.5t-5.5 -7.5v-1.5v-1.5l3 -1q9 0 16 -1t15 -1q5 0 6.5 3.5t2.5 8.5h2q3 0 4.5 -2t2 -5.5t0.5 -6.5v-5v-5t-1 -5t-2.5 -3.5
t-4.5 -1.5t-4 1.5t-1 4v5t-2 4.5h-6t-8 0.5t-8 0.5h-5h-4h-3.5t-1.5 -3v-19q0 -2 -2.5 -2h-2.5h-1h-2t-2 0.5t-1 1.5v19q0 2 -2.5 4t-3.5 2h-2t-2 -0.5t-2 -0.5h-2t-4.5 -0.5t-8.5 -0.5q-4 0 -7.5 0.5t-4.5 0.5q-2 -1 -2.5 -3.5l-1 -5t-2 -4.5t-5.5 -2q-2 0 -3 1t-1 3
q0 6 0.5 11t0.5 10v3q0 1 -0.5 2l-0.5 1q0 3 1.5 5.5t4.5 2.5t4 -2l2 -4t1.5 -4t2.5 -4q2 0 6.5 -0.5t9.5 -1t9.5 -1t6.5 -0.5h2q2 0 3 1.5t1 4.5t-6 6.5t-14 6.5t-16.5 6t-12.5 5q-1 1 -4 2t-6 3t-6.5 3.5t-4.5 2.5q-1 0 -1 1v2t0.5 3.5t2.5 2.5h10q3 -4 7 -7t8.5 -5.5
t9.5 -4t10 -1.5h2v3.5t0.5 5t0.5 5.5v4v0v1l-9 9v0v1v0v0q0 1 0.5 1.5t1.5 0.5h8q7 0 14 -1t15 -1h5q0 1 0.5 1.5l0.5 0.5q1 1 2 2.5t2 1.5q0 4 -3 6.5t-7.5 4.5t-8.5 3t-6 1q-3 2 -7.5 5.5t-7.5 5.5t-6 6t-5.5 9t-4 10t-1.5 9zM95 166l0.5 -1.5t1.5 -1.5h2h2q2 0 8 2
t13 4.5t12 5.5t5 4v1l-0.5 2t-0.5 3.5t-0.5 3.5t-0.5 3q-1 2 -2 2.5t-2 0.5h-2q-6 -3 -12.5 -4.5t-11.5 -4.5t-8.5 -7.5t-3.5 -12.5zM106 150q0 -1 1.5 -2.5t3.5 -3t4.5 -2t3.5 -0.5q3 0 7.5 1t8.5 2.5t7 4.5t3 6t-0.5 6.5t-3.5 3.5q-1 0 -6.5 -1.5t-12 -3.5t-11.5 -5t-5 -6
z" />
</svg>
