<?xml version="1.0" standalone="no"?>
<!DOCTYPE svg PUBLIC "-//W3C//DTD SVG 1.1//EN" "http://www.w3.org/Graphics/SVG/1.1/DTD/svg11.dtd" >
<svg xmlns="http://www.w3.org/2000/svg" xmlns:xlink="http://www.w3.org/1999/xlink" version="1.1" viewBox="-10 0 266 256">
   <path fill="currentColor"
d="M118 248q1 0 2 1t1 2h1q2 0 3.5 -1.5l2.5 -2.5v-8.5v-12.5v-12.5v-8.5q0 -5 2 -10.5t3 -11.5q2 -4 6.5 -11t10 -14t10 -13t4.5 -8q0 -5 -4 -7.5t-9 -5t-8.5 -5t-3.5 -5.5q0 -2 1 -3.5t2.5 -3t2.5 -3t1 -4.5q0 -2 -0.5 -3.5t-2.5 -2.5h-2h-4h-4h-2h-10t-14 1t-13 2.5
t-6 3.5v1.5t1 1.5h6q7 0 14.5 -1t14.5 -1h2.5h3t3 1t1.5 2t-4 4t-9 8t-11.5 10.5t-12 11.5t-9 12t-3.5 12q0 4 2 7.5t5 7t7 6.5t7 5q2 1 3.5 1.5l3 1t3.5 1.5t2 3q0 1 0.5 3.5t0.5 3.5q0 6 -1 12t-1 12v2q0 1 0.5 3.5t0.5 6v6v3.5zM95 164q0 -2 0.5 -5.5t2 -7t3.5 -6t4 -2.5
q1 0 3 1.5t4.5 3t4.5 3t3 2.5l3 3t4 3.5t3.5 3l1.5 1.5v7l-10 15v0q-4 0 -8.5 -2t-9 -5.5t-7 -7t-2.5 -7.5zM113 135q0 -2 2 -4.5t5 -5t5.5 -4t4.5 -1.5t5.5 1.5t7 4.5t6 6.5t2.5 5.5t-1 5.5t-2.5 6t-4 4.5t-4.5 2t-6 -2.5t-8.5 -6t-8 -7t-3.5 -5.5zM59 124q2 2 4 2t3 -0.5
t2 -2.5q0 -14 5.5 -26.5t17.5 -21.5q5 -4 12 -7t13.5 -6t11 -7.5t4.5 -12.5q0 -5 -1.5 -10.5t-5 -10t-7.5 -7.5t-10 -3t-12 1t-11 5l-9 9t-9 10.5t-6.5 11.5t-2.5 12q4 0 7 -4t5.5 -9t5 -9.5t5.5 -4.5v1q2 2 4.5 5t4.5 7t3.5 7.5t1.5 5.5q0 4 -2 6t-4.5 3.5t-5.5 3.5t-4 4
q-8 10 -14 21t-6 24v3zM143 82q1 0 5 0.5t7.5 0.5t7 0.5t5.5 0.5q6 1 9.5 5t5.5 9t3.5 10.5t3.5 10.5h3q2 0 3.5 -0.5t1.5 -3.5v-2v-1q0 -2 -1.5 -6t-3.5 -8t-3.5 -8t-2.5 -6t-3 -4t-5 -2l-33 -5q-2 0 -2 -1v-3q0 -4 4 -5.5t9.5 -2t12 -1t12 -2t9 -6t3.5 -12.5v-5v-6
t-1.5 -5.5t-4.5 -2.5h-44q-2 0 -3 1.5t-1 3.5t1.5 3t3.5 1h1q0 -1 2 -1.5l2 -0.5q3 0 3.5 3t0.5 5v3t-0.5 4.5t-0.5 5v3.5q-2 2 -4 3t-4.5 2t-4.5 2t-4 3v3.5v3.5q0 4 1.5 7.5t5.5 5.5zM102 57q-1 -4 -3 -8t-4.5 -7.5t-4.5 -7t-2 -7.5q0 -2 2 -3t4.5 -2t4.5 -1h4
q11 0 16 6.5t5 17.5q0 3 -2.5 5t-5.5 4t-6 3t-4 1h-0.5h-0.5v0q-1 0 -2 -0.5zM170 29q3 0 6 0.5t5 1.5t3.5 3t1.5 5q0 5 -2.5 8t-6.5 4.5t-8.5 1.5h-7.5q0 -4 -0.5 -8.5t0 -8t2.5 -5.5t7 -2z" />
</svg>
