<?xml version="1.0" standalone="no"?>
<!DOCTYPE svg PUBLIC "-//W3C//DTD SVG 1.1//EN" "http://www.w3.org/Graphics/SVG/1.1/DTD/svg11.dtd" >
<svg xmlns="http://www.w3.org/2000/svg" xmlns:xlink="http://www.w3.org/1999/xlink" version="1.1" viewBox="-10 0 266 256">
   <path fill="currentColor"
d="M53 246q0 4 2 4.5t5 0.5q25 0 50.5 -1.5t50.5 -1.5q2 0 7.5 -0.5t11.5 -0.5t11.5 -0.5t8.5 -0.5l1.5 -2l1.5 -2q0 -2 -1 -3t-2 -1.5l-2 -1t-2 -1.5h-29l-2.5 -0.5t-3.5 -0.5h-1h-1l-2 1.5t-3 1.5v0h-1q-1 0 -3 -0.5t-2 -1.5v-66q0 -1 2 -2q6 -3 9.5 -5.5t5.5 -6t3 -8
t1 -11.5q0 -2 -1.5 -3.5t-3.5 -1.5t-2.5 1.5t-0.5 3.5v4v2q-1 8 -6 11.5t-12.5 5t-14.5 1t-13 -0.5h-20q-1 0 -1.5 -2.5l-1 -5t-1.5 -4.5t-1 -3v-2q0 -2 -1 -4t-5 -2v0v0q-1 0 -3 0.5t-2 1.5v2v3q0 8 1.5 13t4.5 7.5t6 4t6.5 2t5.5 1.5t3 4v4v4q0 5 -1 8.5t-1 8.5t1 10t1 11
v3v4v5v2q-1 2 -3 2.5t-3 0.5h-38q-3 0 -6 2t-3 6zM119 232q-1 -6 -1 -10.5t-0.5 -9.5t-0.5 -9v-11v-19q2 -3 6.5 -3h7.5h2h2l2 2q-1 10 0 20t1 20v17q0 1 -0.5 2.5t-0.5 2.5q-1 0 -1.5 1.5l-0.5 1.5h-13q-1 0 -2 -2.5zM84 179q-2 0 -4.5 1t-2.5 3v47q0 2 1.5 2h2.5
q2 0 4.5 -2.5t2.5 -4.5v-44q0 -1 -2 -1.5zM166 199q0 6 0.5 14.5t2.5 13.5l0.5 0.5t1.5 0.5q2 0 3.5 -3.5t2 -7.5t0.5 -8v-5v-8q0 -5 -0.5 -11t-2.5 -10.5t-5 -4.5q-1 0 -1.5 0.5t-0.5 1.5v5t-0.5 8t-0.5 7.5v5.5v1zM124 142q0 2 1.5 2h2.5q2 0 3.5 -1.5t2.5 -4t1 -5v-3.5
v-4v-5v-6v-4q1 -1 5.5 -3t10 -4t10.5 -3.5t7 -1.5q5 0 6 3.5t2 8t2 8t6 3.5q2 0 3.5 -0.5t2.5 -3.5q-1 -4 -2.5 -9.5t-2.5 -11l-2 -11t-1 -9.5q0 -12 1.5 -23.5t1.5 -23.5q0 -4 -2 -5.5t-7 -1.5h-2q0 1 -1 3.5t-1.5 5.5t-1.5 6t-1 4q-1 3 -2 4.5t-4 1.5q-4 0 -8 -1
t-8.5 -1.5t-8.5 -1.5t-6 -1q-3 -1 -3 -6v-10.5t-1 -10t-7 -4.5q-3 0 -3.5 4t-0.5 10t-0.5 11t-3.5 8q-2 0 -5 0.5t-6 1.5t-6 1.5t-4 1.5q-2 0 -3 0.5t-1.5 0.5h-1.5h-2q-4 0 -4.5 -3t-1 -6.5t-1 -6.5t-5.5 -3q-2 0 -4 1t-2 4q0 6 1.5 11.5t1.5 10.5q0 9 -0.5 18t-0.5 17
q-1 5 -2.5 9.5t-3 8.5t-3 8.5t-1.5 9.5q5 0 8 -2t5 -4.5t2.5 -6t1.5 -6t2.5 -4.5t4.5 -2q10 0 19 1.5t18 1.5q3 2 4 6.5t1.5 9.5t0 10t-0.5 8zM80 91v-5v-12t4 -11q2 -2 8 -4t13.5 -3t14.5 -1.5t10 -0.5h7q4 0 7.5 0.5t7.5 0.5t9 1q7 2 8.5 6.5t1.5 11.5t-3.5 11t-9 6.5
t-11.5 3.5l-12 2h-3.5h-5.5q-2 0 -4.5 0.5t-3.5 0.5q-2 0 -4.5 -0.5t-5.5 -0.5h-4.5h-2.5h-4.5t-6.5 -1l-6 -2t-4 -3z" />
</svg>
