<?xml version="1.0" standalone="no"?>
<!DOCTYPE svg PUBLIC "-//W3C//DTD SVG 1.1//EN" "http://www.w3.org/Graphics/SVG/1.1/DTD/svg11.dtd" >
<svg xmlns="http://www.w3.org/2000/svg" xmlns:xlink="http://www.w3.org/1999/xlink" version="1.1" viewBox="-10 0 266 256">
   <path fill="currentColor"
d="M173 119q0 13 1 24.5t3 23.5t4 23.5t3 23.5q1 8 0.5 17t1.5 16q0 2 1.5 2.5t2.5 0.5q2 0 3 -1t1.5 -3t0.5 -4v-3v-7l-0.5 -3t-1 -6.5t-1 -6t-0.5 -3.5q-3 -19 -5 -38t-3 -38q-1 -5 -2 -11t-1 -11q0 -3 1.5 -5.5t4 -5t5 -4.5t3.5 -4q2 -5 2.5 -9.5l1 -9t0.5 -9t2 -8.5
l-6 -23l-2 -1l-4 -2t-3.5 -2l-1.5 -1q-1 0 -3 -0.5t-4.5 -1t-4.5 -1l-2 -0.5h-15h-15l-1 1.5t-2 1.5v1q0 1 2 2t3 2h4h6h6h4q9 1 15 2.5t9 4.5t3.5 8.5t0.5 14.5v7t-1 9.5t-3.5 8t-5.5 3.5q-2 0 -3 -2t-1.5 -5.5l-1 -7t-3.5 -7t-7.5 -5.5t-12.5 -2q-3 0 -5.5 -0.5t-4.5 0
t-4 2t-2 3.5q0 4 2.5 5t5.5 1t6.5 -1t7.5 -1t6 2.5t3 6t1 7.5t1 7l1 0.5t1 1.5q0 2 -2.5 4t-6.5 3t-8.5 2t-8 2t-6 2.5t-2.5 3.5q0 1 0.5 1.5l0.5 0.5h9q5 0 9.5 -1t10.5 -1h4zM78 171v13v16.5t1.5 19t6.5 16t15 6.5h13t13.5 -1.5t12 -4.5t7.5 -10v-4v-6v-6v-4q0 -14 -1 -28
t-1 -28q-1 -3 -4 -6t-7 -3h-3t-4.5 -0.5t-4.5 -0.5h-3q-6 0 -12.5 0.5t-12 2t-10 5t-6.5 10.5v13zM99 229q-4 -1 -6 -4.5t-2 -7.5q0 -2 0.5 -4t2.5 -3q11 -2 22 -2h22q0 5 -0.5 9t-1.5 7t-4 4.5t-9 1.5h-1h-4.5h-7.5t-7 -0.5t-4 -0.5zM89 198q-1 0 -1.5 -1t-0.5 -2v-2v-1
q0 -5 2 -7t6 -3q1 0 5 -0.5t8.5 -1t8.5 -1t5 -0.5h1t2.5 -0.5t2.5 -0.5h2h1h2.5t2.5 1q0 1 0.5 3t1 4.5t1 4.5t0.5 3v0q0 2 -2 2.5t-3 1.5q-8 2 -13.5 2h-12.5h-9t-10 -2zM91 164q0 -6 2.5 -8.5t6.5 -4t9 -1.5h9h2.5h3.5h3.5h2.5q2 1 3 2t1.5 3t0 4t-0.5 4v3v2l-4 2h-38
q-1 0 -1 -1t-0.5 -2t0 -2zM57 78v14q0 2 1 6.5t2.5 9.5t3.5 9t5 4h53l2 -1t2 -2l2 -2v0v-1l-2 -2l-1 -1h-19q-1 0 -2 -1.5t-2 -4t-1.5 -4.5l-0.5 -2q0 -6 2 -9t5.5 -4.5t7 -2.5t6.5 -2.5t5 -4t2 -7.5q0 -1 -0.5 -4.5t-1.5 -8t-2 -8t-2 -3.5h-19q-1 0 -1.5 -1t-1 -3t-0.5 -4
v-2q0 -6 2 -8.5t5 -3.5t6.5 -0.5t6.5 0.5t5 -1t2 -4q0 -5 -2.5 -5.5t-5.5 -0.5q-22 0 -34.5 2t-19 8.5t-7.5 19.5t-1 35zM69 97q0 -3 2 -4.5t4.5 -2t5.5 -0.5h3h4q3 0 3 1l1 1v16q0 2 -2.5 3t-3.5 1q-6 0 -11.5 -4t-5.5 -11zM67 66q1 -3 4 -5.5t7.5 -3.5t9 -1.5t7.5 -0.5h3
h2q2 1 4.5 1t5 0.5t4 1t2.5 0.5l1 2v12q0 2 -5 3.5t-11.5 2.5t-12.5 1.5t-7 0.5h-2q-2 0 -3.5 -0.5t-3.5 -0.5h-2l-0.5 -0.5l-0.5 -0.5q0 -1 -0.5 -2.5t-0.5 -3.5t-0.5 -3.5t-0.5 -2.5zM87 26h3.5h1.5q1 0 1.5 0.5t0.5 1.5l-2 18h-20q0 -5 0.5 -8.5t2 -6t4.5 -4t8 -1.5z" />
</svg>
