<?xml version="1.0" standalone="no"?>
<!DOCTYPE svg PUBLIC "-//W3C//DTD SVG 1.1//EN" "http://www.w3.org/Graphics/SVG/1.1/DTD/svg11.dtd" >
<svg xmlns="http://www.w3.org/2000/svg" xmlns:xlink="http://www.w3.org/1999/xlink" version="1.1" viewBox="-10 0 266 256">
   <path fill="currentColor"
d="M186 246q0 2 2 3.5t4 1.5q6 0 8.5 -3.5t2.5 -8.5t-2 -10t-2 -11l1 -2t1 -3v-55l-1 -2t-1 -3v-0.5v-0.5v-1.5v-0.5q0 -1 1 -3.5t1 -3.5q0 -10 -2.5 -21t-2.5 -22v-2t0.5 -4t0.5 -3.5t1 -1.5q0 -1 0.5 -2.5t1.5 -3t1.5 -3t0.5 -2.5q3 -8 3.5 -14t0.5 -13q0 -9 -1 -14t-4 -8
t-8 -4.5t-13 -4.5h-3h-4.5h-5.5h-3h-4h-5.5h-4.5h-2q-1 0 -2.5 0.5t-3.5 1t-3.5 1.5t-1.5 2t0.5 2t1.5 2q9 -1 19 -1.5t19 1t15 6.5t6 17q0 6 -0.5 10.5t-3.5 10.5h-1h-2t-2.5 -0.5t-2.5 -2t-2.5 -2.5t-3.5 -2q-7 -2 -15.5 -2.5t-16.5 -0.5h-3h-3h-3.5h-2.5q-2 0 -3 1t-1 2
q0 2 1 2.5l3 1.5h15q2 0 5 0.5t7 1t7.5 1t4.5 0.5q3 2 5 4.5t2 6.5t-4 6.5t-9.5 4t-12.5 2.5t-13 2.5t-10 3.5t-4 6q14 0 25.5 -3t24.5 -7q1 -1 3 -1.5l2 -0.5l0.5 0.5l1 1t1 2l0.5 1.5q2 19 2 39v38q0 1 0.5 4.5t0.5 7.5t0.5 7.5t0.5 4.5v1v1q-1 3 -1.5 8.5l-1 11t-1 9.5
t-0.5 5l-0.5 3t-0.5 4zM79 227q2 2 2.5 5.5t2.5 4.5q1 0 2.5 1t3 1.5t3 1.5t2.5 1h17h15t12 -2t9 -7t5 -13q0 -2 0.5 -6t1.5 -8.5t1 -7.5v-4v-3t0.5 -7t0.5 -9v-6v-5q0 -4 -0.5 -8t-0.5 -8v-5q1 -5 -2.5 -7.5t-7.5 -4.5q-1 0 -4.5 -0.5t-6.5 -0.5t-6.5 -0.5t-4.5 -0.5h-2h-1
q-2 1 -6.5 1t-9.5 1t-9.5 1t-5.5 1q-6 3 -8.5 9t-3.5 13t-0.5 14t0.5 14q0 11 1 21.5t0 22.5zM88 207q0 -2 1 -4t4 -2h48q3 0 4 2t1 4q0 3 -0.5 6.5t-1.5 7t-3 6t-5 3.5q-1 0 -4.5 0.5t-7.5 1t-7.5 0.5h-4.5h-0.5h-0.5q-7 0 -11.5 -1t-6.5 -3.5t-3 -6.5t-2 -11v-3zM88 183
v-3v-5.5t1 -4t2 -1.5h59v20l-1 1l-1 1q-1 0 -2 1l-1 1h-43q-6 0 -10 -2.5t-4 -7.5zM91 151q0 -5 3 -8t7.5 -4t9.5 -1h10h12.5t12.5 3l2 2v15l-3 2h-4.5h-4.5q-3 0 -10.5 0.5t-15 -0.5t-13.5 -3t-6 -6zM52 82v10t1.5 9.5t5 8t9.5 4.5h12q11 0 18 -1.5t11.5 -5t6 -10.5
t1.5 -19v-3q0 -2 -0.5 -7t-0.5 -11t-0.5 -11.5t-0.5 -6.5q0 -7 -1 -12t-4.5 -8t-8 -4.5t-12.5 -1.5q-16 0 -23.5 5t-10.5 13.5t-3 20v24.5v6zM71 106q-3 -3 -5 -7t-2 -7t0.5 -5t3.5 -4q4 1 8.5 0.5t8 -1t7.5 -0.5h8q1 0 3.5 -0.5t3.5 1.5v3v3q0 18 -19 18q-4 0 -8 -0.5
t-9 -0.5zM136 82v3h26q1 0 1.5 -2.5l0.5 -2.5h-6h-4t-7 0.5t-7 1t-4 0.5zM62 67v-4t0.5 -4.5t1 -4t2.5 -1.5q2 -1 7 -1.5t10.5 -1l11 -1t7.5 -0.5h0.5h1.5q2 0 3 2t2 4.5t1 5v3.5v2.5t-1 3t-2 2.5t-2 1h-39q-3 0 -3.5 -2.5t-0.5 -3.5zM139 43q0 2 3.5 3t8 1.5t8.5 0t5 -0.5
h11q1 0 2 -0.5t2 -0.5v-0.5v-0.5v-0.5v-0.5l-2 -2t-2 -1h-34l-0.5 0.5t-1.5 0.5v1zM66 35q0 -5 3 -7.5t7 -4t9 -1.5h9t7 1t4.5 3t2 5.5t1.5 7.5q-3 2 -7 3t-8.5 1t-9 -0.5t-7.5 -0.5h-9q-2 0 -2 -1t-0.5 -2.5t0 -2.5z" />
</svg>
