<?xml version="1.0" standalone="no"?>
<!DOCTYPE svg PUBLIC "-//W3C//DTD SVG 1.1//EN" "http://www.w3.org/Graphics/SVG/1.1/DTD/svg11.dtd" >
<svg xmlns="http://www.w3.org/2000/svg" xmlns:xlink="http://www.w3.org/1999/xlink" version="1.1" viewBox="-10 0 266 256">
   <path fill="currentColor"
d="M155 213q0 3 1 9t3 12t5 11t7 5t5 -2.5t1 -4.5q0 -4 -2 -7.5t-4.5 -7t-4.5 -7.5t-2 -8q0 -8 3.5 -13t9 -9.5t11 -8t9.5 -9.5q1 -1 2 -2.5l2 -3t1.5 -2.5l0.5 -1v-49l-0.5 -1.5t-1.5 -3t-2 -3.5t-2 -3t-4.5 -2.5t-8.5 -2.5t-10.5 -2.5t-10 -3t-7.5 -3.5t-3 -4q0 -6 3 -8.5
t8 -4.5q3 0 8 0.5t10 -0.5t9.5 -2.5t7.5 -5.5q0 -1 0.5 -3t1.5 -4.5t1.5 -5t0.5 -3.5l0.5 -0.5l0.5 -0.5q0 -3 -1.5 -5t-3.5 -3.5l-4 -3t-4 -2.5q-2 0 -6.5 -0.5t-9.5 -0.5t-9.5 -0.5t-6.5 -0.5h-2.5t-3 -0.5t-3 -0.5h-2.5l-0.5 -1l-0.5 -1v-16q0 -1 -2 -1h-2h-3.5t-2.5 3v5
q0 5 0.5 8.5t1.5 8.5q4 3 9.5 3.5t11.5 0t11.5 -1t10.5 0.5t8 4t3 9q0 1 -0.5 3t-0.5 3q0 2 -2 3t-3.5 1t-3.5 0.5t-3 0.5h-5.5t-8 0.5t-8 0.5h-5.5q-2 2 -4 5t-3 6t-2 6.5t-1 6.5q0 6 3.5 8.5t8 4.5t10.5 2.5t11.5 1.5t9.5 3t6 6q1 2 1.5 5t0.5 5.5v5.5v5q0 10 -2 17
t-5.5 13t-9 11.5t-13.5 11.5l-5 5t-3 5t-1 6v8zM82 226q0 4 4 4q3 0 4.5 -3t2 -7t0.5 -7v-5t0.5 -6t0.5 -10t0.5 -9.5t0.5 -6.5v-1q0 -11 -1 -21t-1 -21v-24q0 -1 0.5 -3.5t1.5 -3.5h1h1q4 0 5.5 3.5t1.5 6.5q1 2 1.5 5.5l1 7t1 6t0.5 3.5v17v5t0.5 8t0.5 7.5v4.5v6
q0 3 0.5 7.5t0.5 8.5v5h3t4 -2v-2v-4v-4v-2v-11v-17.5t-0.5 -20t-2 -19.5t-3 -15.5t-3.5 -7.5q-1 0 -2.5 -1t-3.5 -1.5t-3.5 -1t-1.5 -1.5q-2 -1 -2 -3v-4q0 -3 2 -5t5 -4t6.5 -3.5t5.5 -3.5q2 -3 3.5 -8t2 -10t0.5 -10v-8q0 -5 -5 -5q-3 0 -3.5 1.5t-0.5 3.5q0 1 -0.5 4
t-0.5 6t-0.5 6t-0.5 4q-1 2 -1.5 4.5t-1.5 5t-2 4.5t-4 2q-2 0 -3 -1.5t-1.5 -3.5t-0.5 -4v-4v-1q0 -1 0.5 -3.5t0.5 -5.5t0.5 -5.5t0.5 -3.5q0 -6 -1 -10t-3.5 -6t-6.5 -2.5t-10 -0.5h-2t-3.5 0.5t-3.5 0.5h-2q-3 1 -3 4q0 2 0.5 2.5t2.5 0.5h19l1 1.5t1 2.5l0.5 3t0.5 4v1
q0 2 0.5 7t0 10.5t-2 9.5t-5.5 4q-1 0 -4 -0.5t-3 -2.5v-27q0 -2 -1.5 -3t-3.5 -1q-3 0 -3.5 2.5t-0.5 5.5t-0.5 7t0 8t1.5 7.5t3 6.5q2 2 5 3l6 2t5 2.5t2 5.5t-2 6t-4.5 3t-5.5 1.5t-6 3.5t-5 8t-3 10t-1 11v10q0 3 -0.5 10.5t-1.5 16.5t-1.5 16.5t-1.5 10.5v2t-0.5 2.5
t-0.5 2.5v1v2q0 3 3 3q2 0 3.5 -1.5t2.5 -3.5t1 -4t1 -4q0 -2 0.5 -6t1 -9t1 -9t0.5 -5v-5t0.5 -9.5t0.5 -10.5v-8v-5q1 -1 1.5 -3.5l1 -5t1.5 -5t1 -3.5q1 -1 3 -3.5t4 -3.5l2.5 1t3.5 1v93q-2 3 -2.5 6.5t-1 7.5t-0.5 8v7zM132 136q0 4 3 4h6q9 0 19 -0.5t18 -0.5l2 -2
l1 -1v-1v-1q0 -1 -0.5 -2l-0.5 -1h-36l-0.5 -1t-1.5 -1q-3 0 -6.5 2t-3.5 5z" />
</svg>
