<?xml version="1.0" standalone="no"?>
<!DOCTYPE svg PUBLIC "-//W3C//DTD SVG 1.1//EN" "http://www.w3.org/Graphics/SVG/1.1/DTD/svg11.dtd" >
<svg xmlns="http://www.w3.org/2000/svg" xmlns:xlink="http://www.w3.org/1999/xlink" version="1.1" viewBox="-10 0 266 256">
   <path fill="currentColor"
d="M110 214q2 0 3.5 2.5t3.5 6t3.5 7t3.5 5.5q1 1 4 3t5.5 4.5t5 4.5t3.5 2l3 3t4 1q2 0 4.5 -1t2.5 -4t-1 -5q-2 0 -5.5 -1.5t-7 -3.5t-6 -4.5t-2.5 -5.5t1.5 -4.5t4.5 -2.5l33 -3q3 0 5 -2.5t3.5 -6t2.5 -6.5t1 -6t-1 -6t-3.5 -5.5t-5 -4t-5.5 -1.5q-4 0 -7 0.5t-7 0.5
q-1 0 -2 -1l-2 -2l-2 -2t-2 -1h-1.5h-0.5q0 4 -1.5 7t-4.5 5v3t-0.5 4.5t-0.5 4.5v3q-1 1 -1.5 4.5t-2 6l-3 5t-4.5 2.5q-3 -3 -5.5 -8.5t-4.5 -10.5t-4 -9t-4 -4q0 8 -1 12.5t-3.5 7t-7 3t-12.5 0.5q-5 0 -9 -3.5t-4 -8.5q0 -4 3.5 -6t7.5 -3.5t8.5 -2t7 -1.5t4.5 -3.5
t3.5 -5t2 -4.5l0.5 -2l51 -6q3 0 5 -4.5t3.5 -10.5t2 -11.5t0.5 -7.5l0.5 -0.5t0.5 -1.5v0q0 -3 -2 -4.5t-4 -1.5q-3 0 -4 2t-1 4t-0.5 4.5t-3.5 3.5q-11 1 -22 3h-45q-2 0 -2 -2v-4q0 -3 -0.5 -5t-3.5 -2l-1 0.5t-2 0.5l-0.5 0.5l-0.5 0.5v3.5v3.5q0 2 0.5 6.5l1 9t2 8.5
t2.5 5l2 1t4.5 2t4.5 2t2 2q1 3 -1.5 5t-6.5 3t-9 2.5t-9 3t-7 4.5t-3 7q0 2 1 5t2 7t2.5 6.5t3.5 2.5h27l1.5 -0.5t3 -1.5t2.5 -1.5t2 -0.5v0h1zM143 207v-1q0 -1 0.5 -3.5t1.5 -5t1.5 -5t1.5 -3.5h2h2h3.5t5.5 0.5t5.5 0.5h3.5q2 2 2.5 4t0.5 4q0 4 -2.5 6.5t-6.5 4.5
t-8 2.5t-8 0.5q-2 0 -3.5 -1t-1.5 -4zM92 152l0.5 -1.5l0.5 -1.5l2 -2h6t14 -0.5t16.5 -0.5h14.5h6h1.5h2.5t2 0.5t1 1.5q0 6 -5 9t-12 4t-14 1h-11t-8 0.5t-7.5 -0.5t-6.5 -3t-3 -7zM81 98q0 4 0.5 8t2 7t4.5 5.5t7 3.5h4h6h6h4q6 0 15.5 0.5t18.5 -1t16 -6t7 -13.5
q0 -3 -2.5 -6t-5.5 -5h-4.5h-4.5h-5.5h-3.5q-2 0 -8.5 0.5t-13 1.5t-13 1.5t-8.5 0.5q-1 1 -1.5 2.5t-0.5 2.5q12 0 24.5 -1t25.5 -1q3 0 5 0.5t2 4.5q0 5 -4.5 7t-10.5 3.5t-12 1.5h-9h-13q-7 0 -10.5 -1t-5.5 -3t-2.5 -6t-0.5 -10q0 -4 3.5 -7.5t6.5 -3.5l39 -5q3 0 5 -2
t3 -4.5t1.5 -5t0.5 -5.5v-5q-1 -2 -4 -3t-6.5 -1.5t-7 -0.5h-5.5q-7 0 -13 0.5t-13 1.5q-1 0 -1.5 1t-0.5 2t0.5 2t2.5 1h38q1 0 1 2v3q0 2 -1 4t-3 3q-7 0 -16.5 0.5t-18 3t-14.5 7.5t-6 15zM82 37q1 0 2 0.5t1 1.5v22q6 0 7.5 -4t1.5 -8v-8.5t3 -4.5q3 0 5.5 1.5t5 3.5
l5 4t5.5 2t3 -4t-4.5 -6.5t-10 -4.5t-9.5 -3.5t-4 -4.5v-13h-3.5h-2.5q-1 0 -1.5 0.5l-0.5 0.5q1 7 -1 11.5t-6 7.5t-8.5 4.5t-8 3t-6.5 3.5t-3 6q0 2 0.5 3.5t2.5 1.5t2.5 -0.5t2.5 -1.5q1 -1 4 -3t6.5 -4t6.5 -4t4 -2l0.5 -0.5zM160 32q1 0 2 0.5t1 2.5v22q0 1 1 1.5
l1 0.5q2 0 3.5 -0.5t1.5 -2.5l3 -21l1 -0.5l1 -0.5q5 0 7.5 3t5 7t5.5 7t7 3q2 0 3 -1.5t1 -3.5q0 -5 -1.5 -8t-4.5 -5t-6.5 -3.5t-6.5 -3.5q-1 0 -3 -1.5t-4 -2.5l-3 -1.5l-1 -0.5v-11h-10q0 1 -0.5 3.5t-0.5 3.5q-1 1 -1.5 2.5l-0.5 1.5q-2 2 -6.5 4.5t-9.5 5.5t-8.5 6
t-3.5 6t2 3q4 0 7 -2.5t5.5 -5.5t5.5 -5.5t7 -2.5z" />
</svg>
