<?xml version="1.0" standalone="no"?>
<!DOCTYPE svg PUBLIC "-//W3C//DTD SVG 1.1//EN" "http://www.w3.org/Graphics/SVG/1.1/DTD/svg11.dtd" >
<svg xmlns="http://www.w3.org/2000/svg" xmlns:xlink="http://www.w3.org/1999/xlink" version="1.1" viewBox="-10 0 266 256">
   <path fill="currentColor"
d="M178 235v2.5t0.5 4t0.5 4t1 2.5q0 3 3 3q2 0 4.5 -2.5t2.5 -5.5q0 -1 -1 -4.5t-2.5 -7.5t-3.5 -7t-3 -3h-22q-2 0 -2.5 -2.5t-0.5 -4.5q0 -6 2.5 -8t6.5 -2.5t8 -0.5t8 -1.5t6 -5.5t1 -12q0 -5 -4 -7.5t-8 -2.5h-7q-4 0 -9 0.5t-8.5 2t-3.5 3.5v1v1q3 1 6 1.5t5 1.5v4
q0 4 -1.5 6t-3.5 4t-4 5t-2 9q0 7 2 10t4.5 4t5.5 1.5t6.5 0.5t6.5 1.5t6 4.5zM125 239v3t1 3.5l2 3t3 1t4 -2.5t2 -4q-1 -10 -0.5 -21.5t1.5 -20.5q1 -4 1 -8.5t0.5 -9.5t1.5 -9.5t4 -8.5h2h4h3.5h2.5q3 0 4 -0.5t1 -2.5q0 -3 -2 -4t-4 -1t-3.5 -0.5t-1.5 -3.5v0
q0 -2 1.5 -4t2.5 -3.5t2.5 -3l2.5 -2.5v0v-0.5v-0.5q-1 -1 -1.5 -2l-0.5 -1h-7q-1 1 -2.5 3t-3 4.5l-3 5t-2.5 2.5q0 1 -1.5 2l-1.5 1l-0.5 -0.5t-1.5 -0.5q0 -1 -0.5 -4t-0.5 -4q0 -5 3.5 -9t7 -6.5l7 -5t3.5 -3.5q0 -3 -1 -3.5t-3 -0.5q-5 0 -9.5 3.5t-8.5 8.5t-7 11
t-3 10q0 3 2 5.5t4.5 4.5t4.5 4t2 6v1h-1q0 1 -0.5 2t-0.5 2q-2 9 -3 19t-5 19v1v1l0.5 1.5t0.5 3.5t0.5 3.5t0.5 2.5q0 3 -1.5 6.5t-1.5 6.5zM193 248q1 1 1.5 1h1.5h1.5h0.5q3 -2 4.5 -4t2.5 -3.5t1.5 -3.5t0.5 -6q0 -18 -3 -35t-6 -35v-1v-1q0 -3 1 -5.5t2 -4.5t2 -4.5
t1 -5.5q0 -4 -1.5 -8t-4 -7t-6 -5t-7.5 -2q-2 0 -3.5 0.5t-3.5 1.5q2 3 4.5 5t5 3.5t4 4t1.5 6.5q0 2 -0.5 3.5t-3.5 1.5l-0.5 -0.5t-1.5 -0.5q0 -2 -1 -4.5t-2.5 -4.5t-4 -3.5t-4.5 -1.5v13q0 1 1.5 2t3 2.5t3 2.5t1.5 2q-1 2 -4 3t-5.5 1.5t-5 1.5t-2.5 4q0 2 2 3t4 1
q4 0 7.5 -0.5t6.5 -0.5h2t1 1q1 12 3 24.5t2 24.5q0 6 -1 11.5t-1 11.5v6v5zM82 237q0 2 1.5 2.5t2.5 0.5q2 0 3 -0.5t2 -2.5q2 -8 2 -13v-11q0 -22 -2.5 -43t-2.5 -42q0 -2 0.5 -7.5t0.5 -11.5t0.5 -11t0.5 -7q1 -3 5 -4t9 -2t8.5 -2.5t3.5 -5.5h-26q0 -10 0.5 -19t0.5 -19
v-17q0 -2 -1 -4t-4 -2q-2 0 -3.5 1.5t-1.5 3.5v56q0 3 -5 4t-10.5 1t-10.5 1t-5 5q0 2 1.5 3t3.5 1.5t4 0.5h3q2 0 2 -1l2 -0.5l4 -1l4 -1l2 -0.5h1q3 0 3.5 2.5t0.5 4.5v6l-0.5 3.5t-0.5 7.5t-0.5 7.5t-0.5 4.5q0 28 2 55.5t1 56.5zM56 222v2.5v3.5t1 3t2 1q2 0 3.5 -1
t2.5 -3t2 -3.5t1 -3.5l3 -25v-84q0 -3 -0.5 -6t-4.5 -3q-1 0 -3 0.5t-2 2.5v58q-1 2 -1.5 4t-0.5 4v4v5q-1 10 -2 20.5t-1 20.5zM97 104q0 13 1 26t2.5 26.5t3 26t2.5 24.5l0.5 2.5l1 5t1.5 4.5t3 2t3.5 -3t1.5 -5q0 -1 -0.5 -5t-1.5 -9.5t-1.5 -11t-1.5 -10t-1.5 -7.5
l-0.5 -3q0 -3 -0.5 -10.5t-1 -16t-1 -16t-1.5 -10.5v-2.5t-0.5 -3.5t-0.5 -4v-2q-1 -2 -2 -2h-2q-2 0 -3 1t-1 3zM167 190q0 -3 1.5 -5.5t5.5 -2.5q2 0 3 1t1 3q0 4 -2 6.5t-6 2.5q-2 0 -2.5 -1.5t-0.5 -3.5zM132 109v0l2 2l1 1h1h1l2 -1t2 -2q2 -5 3 -8.5t1 -8.5v-4
q0 -2 -3 -2l-2 3t-3.5 7l-3 8t-1.5 5zM155 106l2.5 2.5l2.5 2.5v0h1t2 -2t1 -3v-28l3 -4h32l3 -2v-8l-1.5 -0.5t-2.5 -0.5q-6 0 -11 1.5t-11 1.5q0 -4 1 -7t3 -6t3.5 -6.5t2.5 -7.5q0 -7 -6 -7q-4 0 -5.5 2.5t-3 6.5t-1.5 8.5t-0.5 8.5t-1 6.5t-2.5 2.5q-3 0 -3 -1.5v-3.5
v-7t0.5 -8.5t1 -8.5t1.5 -6q1 -3 4.5 -5t7.5 -4t6.5 -3.5t2.5 -4.5q0 -2 -2 -3.5t-5 -1.5t-8 2t-9 5.5t-6.5 7.5t-2.5 8v31q0 2 -1.5 3.5t-3.5 1.5h-1h-1l-4 -34q0 -2 -2 -2h-3q-3 0 -3.5 1t-0.5 4t1 7.5t2.5 8.5t3 7.5t1.5 5.5v1t-1 1l-15 3q-1 0 -1.5 1t-0.5 2v2v2
q7 0 13.5 -1t12.5 -1q2 0 3.5 3t1.5 5v4v7v6v4zM172 80q0 3 1 8t3 10t4.5 8.5t5.5 2.5q3 0 3.5 -1.5t0.5 -3.5q0 -3 -1.5 -7t-4 -7.5t-5.5 -6.5t-7 -3zM61 72q0 2 0.5 2.5t2.5 0.5t4 -1t2 -4v-9q0 -2 0.5 -7t-0.5 -9.5t-3 -8t-6 -3.5q-2 0 -3.5 2t-1.5 4v2q0 1 1 3.5l1 2.5
q0 2 0.5 5.5t1 7.5t1 7.5t0.5 4.5zM97 61q0 3 0.5 5.5t1.5 5.5h0.5h0.5q3 0 5.5 -5t4 -12t2.5 -13t1 -7q0 -6 -7 -6q-3 0 -5 3.5t-2.5 9l-1 11t-0.5 8.5z" />
</svg>
