<?xml version="1.0" standalone="no"?>
<!DOCTYPE svg PUBLIC "-//W3C//DTD SVG 1.1//EN" "http://www.w3.org/Graphics/SVG/1.1/DTD/svg11.dtd" >
<svg xmlns="http://www.w3.org/2000/svg" xmlns:xlink="http://www.w3.org/1999/xlink" version="1.1" viewBox="-10 0 266 256">
   <path fill="currentColor"
d="M121 245q0 2 0.5 4t2.5 2t4.5 -2t2.5 -4v-75q0 -2 1 -2.5t2.5 -0.5h2.5h2q13 -1 25.5 -2t25.5 -3v-1v-1q0 -3 -2 -5t-5 -2q-6 0 -11 2t-10 2q-2 0 -2 -2v-3q0 -2 1 -4t2 -3.5t2 -3.5t1 -4t-1 -2.5t-3 -0.5h-2q-3 4 -4.5 8.5t-3 8t-4.5 5.5t-8 2h-2.5h-3.5q-1 -1 -2 -2.5
t-1 -2.5v-24l-1 -1t-2 -1v-0.5t-1 -0.5q-3 0 -4 2.5t-1 6.5t0.5 8.5t0 8.5t-2.5 6.5t-7 2.5t-6 -4t-1 -9t-1 -9t-6 -4q-1 0 -1.5 1.5t-0.5 2.5v1q0 1 0.5 3.5t1 5.5t0.5 5.5v3.5l-1 3l-4 0.5t-6 0.5t-5.5 0.5l-7 1t-7 0.5h-5.5q-1 0 -1 2v3q0 5 6 5t12.5 -2t13.5 -2h5h8.5
h8.5h6q0 19 -0.5 38t-0.5 37zM163 248q0 1 2.5 2l2.5 1q4 -2 4.5 -3.5t0.5 -4.5v-3q-1 -5 -2.5 -9.5t-3 -8.5t-2.5 -9t-2 -12q-1 -1 -1 -5v-8.5t-0.5 -8t-1.5 -3.5q-1 -1 -3.5 -1h-3.5q0 10 0.5 19l1 18t2.5 17.5t6 18.5zM81 243q0 3 0.5 4t4.5 1q3 0 5 -3.5t3.5 -8t2.5 -9
t1 -6.5t1 -7t2 -10.5l2 -11t1 -6.5v-2v-4.5t-3 -2.5q-1 0 -1.5 0.5l-1.5 1.5q0 2 -1.5 8t-2.5 12.5t-2 12.5t-1 9q-1 3 -2.5 5.5t-3 5.5t-3 5.5t-1.5 5.5zM137 111q0 3 2 6t3 6q1 6 1 10.5v10.5q3 0 4.5 -1.5t2.5 -3.5t1 -4.5v-4.5q0 -5 -2.5 -9t-2.5 -9q0 -2 1.5 -3.5
t4 -2.5t4.5 -1.5t4 -2.5q2 -1 2.5 -2t0.5 -2t1 -1.5t3 -0.5l1.5 0.5l1.5 0.5v4t0.5 6l1 6t0.5 4q0 3 1 7l2 8t3 7t5 3t4 -1t1 -4q0 -4 -1.5 -8.5t-3.5 -9t-3.5 -9t-1.5 -8.5v-3t1 -2h12q2 0 2 -2v-3v-3.5t-3 -1.5q-12 -1 -23.5 -1t-23.5 -1q-2 -1 -3.5 -3t-2 -4t-1.5 -4.5
t-3 -3.5q-3 0 -3 2v4q0 9 3.5 12t7.5 3.5t7.5 1t3.5 4.5q0 3 -2.5 4l-5 2t-5 2.5t-2.5 5.5zM68 111q0 2 1.5 6t3.5 8t4.5 7.5t4.5 3.5q3 0 3.5 -2.5t0.5 -3.5q0 -3 -1 -5.5t-2.5 -5t-3 -5.5t-1.5 -6q0 -1 1.5 -2.5t4 -2.5t4.5 -1.5t3 -0.5q4 0 6 4t3.5 8t3 7.5t5.5 2.5
q2 0 2.5 -1.5t0.5 -2.5q0 -3 -1.5 -5t-3.5 -4.5t-3 -4.5t-1 -5q0 -1 0.5 -2t1.5 -2l2 -2l2 -2q0 -2 0.5 -6t1.5 -6q1 0 2 -1.5t3 -3t3 -2.5l2 -2t1 -3v-4v-3v-3t0.5 -2t0.5 -2v-2.5v-1.5q0 -7 -4.5 -11t-9.5 -5.5t-8.5 -2l-3.5 -0.5v-17l-2 -2t-3 -2h-1v0q-1 0 -2.5 1.5
l-1.5 1.5v20l-16 3q0 1 -0.5 1.5l-0.5 0.5q-1 1 -2 3l-2 4t-2 3.5l-1 1.5v4.5v6.5v5v5l5.5 5.5t5.5 3.5q3 1 7 1t8 0.5t7.5 1.5t3.5 5q0 3 -2.5 4.5t-6 2t-7.5 1t-7.5 1.5t-6 4.5t-2.5 9.5zM75 66q0 -1 0.5 -3t2.5 -1q7 -1 13.5 -2t13.5 -1h4t4 2v1.5v1.5q0 5 -2.5 7
t-6.5 2.5t-8.5 0.5h-8.5t-8 -1.5t-4 -6.5zM135 50q0 8 4 12t9.5 5.5t12.5 1.5t14 1h7h6l2 -2t1 -2v0q0 -3 -2.5 -4t-6 -1.5t-6.5 0t-4 0.5q-2 0 -5 -0.5t-7 -0.5t-7.5 -0.5t-4.5 -0.5q-2 -1 -3 -2.5t-2.5 -3t-3 -2.5t-4.5 -1zM75 48q0 -3 3 -4.5t6.5 -2t6.5 -0.5h6h4h4
q3 1 5 2.5t2 4.5h-1q0 1 -1 2t-1 2q-7 -1 -13 0t-12 1q-3 0 -6 -0.5t-3 -4.5zM140 40q1 0 2.5 1t3.5 2t4 1.5t2 1.5l0.5 0.5t1.5 0.5h33l1 -1l2 -2v-1v0l-2 -2l-1 -1h-20h-6q-4 0 -7 -1t-5.5 -3t-2.5 -5v-3t-0.5 -4t-0.5 -4v-3q-1 -1 -2 -1h-2h-2t-2 1v3.5v3.5q0 5 0.5 8
t2.5 8z" />
</svg>
