<?xml version="1.0" standalone="no"?>
<!DOCTYPE svg PUBLIC "-//W3C//DTD SVG 1.1//EN" "http://www.w3.org/Graphics/SVG/1.1/DTD/svg11.dtd" >
<svg xmlns="http://www.w3.org/2000/svg" xmlns:xlink="http://www.w3.org/1999/xlink" version="1.1" viewBox="-10 0 266 256">
   <path fill="currentColor"
d="M155 8q0 28 -7 41q-7 15 -25 32q-9 5 -9 1q-1 -2 -2 -5.5t-3 -7.5l-15 -19q0 -5 -0.5 -10t-0.5 -9q1 -9 -4 -20q-5 15 -5 30q2 13 -14 24q-5 5 -6 10t0.5 9.5t6 8.5t11.5 5q-1 6 -6 10.5t-10 9.5q-3 15 0 18q5 2 15 10l-12 14q-5 14 -6 33q0 18 8 32q4 -15 2 -29
q-1 -17 6 -28q5 2 5 10q0 5 -0.5 8t-0.5 6l5 62q6 -11 6 -28q0 -4 0.5 -8t0.5 -7q0 -4 -0.5 -7t-0.5 -6v-8.5t-1 -9.5q-2 -9 1 -16q11 11 11 29q-1 18 0 30l4 -2q6 -17 4 -38t-19 -32q0 -5 4 -7.5t10 -4.5q2 -11 -1.5 -19t-13.5 -14l-2 -7l17 -4l23 -8l24 -22l25 23l21 3
q-10 -7 -19 -15t-14 -19zM73 75l11 -8q10 0 14.5 5t2.5 15q-5 2 -12 2q-8 0 -12 -1zM147 87l-14 3v5q5 1 11 2t14 1q16 2 25 -1q-4 -7 -16 -9q-11 -2 -20 -1zM163 108q-18 2 -16 12q2 9 -1 16l-30 6l31 9v65q-6 5 -16 3q-11 -1 -19 3l1 2l20 4t21 3q24 1 42 -5l-37 -10
l2 -67l33 -3l-35 -12q0 -17 9 -15q10 2 20 -2q-6 -4 -12 -6.5t-13 -2.5zM75 118l8 -5q7 3 12 6.5t5 10.5q-6 5 -10.5 5.5t-10.5 0.5q-2 -3 -3.5 -4.5t-1.5 -3.5t0.5 -4.5t0.5 -5.5zM121 149l3 50q-2 5 -4 8t1 7l8 -4q6 -13 6 -33q2 -20 -14 -28zM182 151q-6 9 -8.5 17
t-1.5 16t4 15.5t8 15.5h4l-6 -38q0 -3 1 -7t2 -9q1 -9 -3 -10z" />
</svg>
