<?xml version="1.0" standalone="no"?>
<!DOCTYPE svg PUBLIC "-//W3C//DTD SVG 1.1//EN" "http://www.w3.org/Graphics/SVG/1.1/DTD/svg11.dtd" >
<svg xmlns="http://www.w3.org/2000/svg" xmlns:xlink="http://www.w3.org/1999/xlink" version="1.1" viewBox="-10 0 266 256">
   <path fill="currentColor"
d="M159 174v75q0 1 1.5 1.5l1.5 0.5q3 0 5 -2t3 -5v-2v-3.5v-2.5v-3q0 -11 -0.5 -23t-0.5 -23v-11q2 -1 6 -1.5t8 -1.5t7.5 -2t3.5 -4v-1q-1 0 -1.5 -0.5l-0.5 -0.5h-20q-4 0 -4.5 -3t-0.5 -5v-6q4 -3 8 -3t7 -0.5t5 -3t2 -9.5v-1.5v-3.5t-1 -3.5t-2 -1.5h-1l-1.5 0.5
t-1.5 1.5t-0.5 3.5l-1 5t-2 4.5t-3.5 2q-5 0 -7.5 -4t-2.5 -8t1.5 -6.5t3.5 -4.5t4.5 -3t6.5 -2v-15q0 -2 2 -3l4 -2t4.5 -2t3.5 -1l1.5 0.5l1.5 0.5l3 3v52q0 1 1 4t1 4v0q0 3 -1 6t-1 5q0 4 0.5 6l1.5 6v51q0 1 1.5 2.5l2.5 2.5v0q3 0 4.5 -2t1.5 -4q0 -20 -1 -40l-2 -40
q-1 -12 -0.5 -25t0 -26.5t-2 -26t-6.5 -24.5q0 -1 -0.5 -2l-0.5 -1q-2 -3 -7.5 -5t-11 -3.5t-10 -3t-4.5 -4.5t1 -5t1 -5t-1.5 -4.5t-4.5 -1.5q-4 0 -5 2t-1.5 5.5t0 7t-1.5 5.5q-1 2 -5.5 3.5l-10.5 3.5t-10.5 4.5t-5.5 6.5l-7 27v13.5v21.5v25v25v21.5v13.5v6t-0.5 10.5
t-0.5 10.5v6v3q0 3 0.5 3.5t3.5 0.5q1 0 3.5 -0.5t2.5 -2.5v-92q0 -1 0.5 -4.5t0.5 -4.5v-1v-1v-1.5t-0.5 -3.5t-0.5 -3v-2l-0.5 -0.5t-0.5 -1.5l0.5 -0.5l0.5 -0.5v-5.5t0.5 -6.5t0.5 -5.5v-2.5l2 -2h15l0.5 1l0.5 1l1.5 3t0.5 3t0.5 3.5t0.5 3.5q1 2 2.5 3.5t3.5 3t3 3
t1 3.5v20q-6 0 -8.5 -2.5t-3.5 -5.5t-1.5 -5.5t-3.5 -2.5q-1 0 -1.5 1l-1 2t-0.5 2v2q0 8 2 11.5t4 4.5t5 1t5.5 0.5t4 2t1.5 5.5q0 2 -0.5 3.5t-3.5 2.5h-5.5t-7.5 1t-6.5 3t-2.5 5h26zM87 239q0 2 1.5 3.5t3.5 1.5t3.5 -1t2.5 -4v-8v-12q0 -6 0.5 -13.5t0.5 -14.5v-12v-8
v-17q0 -12 -0.5 -22.5t-0.5 -18.5v-9v-6v-8.5t-0.5 -8.5t-0.5 -5q-1 -5 -5 -8.5t-8 -3.5q-5 0 -9.5 1t-9.5 1q-3 0 -3 -2v-4q0 -10 3.5 -15.5t9 -7.5t11.5 -2.5t11 -0.5q6 0 9.5 -0.5t3.5 -4.5q0 -2 -1.5 -3.5t-4.5 -1.5q-10 0 -19.5 1t-18.5 4q-8 2 -11 6.5t-4 10.5
t-0.5 12.5t0.5 13.5q0 1 -0.5 4t-0.5 6t-0.5 6t-0.5 4v22v23q1 1 2.5 4t3.5 5.5t4 4.5t3 2h25l3 2v3v3q0 20 -1.5 39.5t-1.5 38.5zM59 117q0 -3 4 -4.5t9 -2t10 -0.5h7v5v8.5t-0.5 8t-0.5 5.5l-0.5 2.5t-0.5 3.5q-1 0 -2.5 0.5t-3.5 0.5t-3.5 0.5l-1.5 0.5h-3q-5 0 -8 -3
t-4.5 -7.5t-1.5 -9.5v-8zM152 100q0 -2 1.5 -3.5t3 -2t4.5 -0.5h5h1h2t2 0.5l1 0.5v12q0 1 -1.5 1.5t-3 1.5t-3 1.5t-2.5 0.5q-6 0 -8 -3.5t-2 -8.5zM60 89q0 -6 1 -9t3.5 -4.5t6 -2t9.5 -1.5h1q3 0 5 3t2.5 7t0.5 8v6v2q0 2 -1 2l-1 2h-23q-1 0 -1.5 -0.5t-0.5 -1.5
q-2 -3 -2 -5v-6zM168 44h2h3h3.5h2.5q4 4 7.5 7t6 7t4 8.5t1.5 11.5v6q-18 1 -36 3t-36 2q0 -12 1.5 -21t6 -14.5t12.5 -7.5t22 -2zM142 70q0 1 1.5 1.5l3 1t3.5 0l2 -0.5q3 0 8.5 0.5t10.5 0t8.5 -2.5t3.5 -7q-9 0 -18.5 0.5t-18.5 2.5q-1 0 -2 1t-1 2h-1v1z" />
</svg>
