<?xml version="1.0" standalone="no"?>
<!DOCTYPE svg PUBLIC "-//W3C//DTD SVG 1.1//EN" "http://www.w3.org/Graphics/SVG/1.1/DTD/svg11.dtd" >
<svg xmlns="http://www.w3.org/2000/svg" xmlns:xlink="http://www.w3.org/1999/xlink" version="1.1" viewBox="-10 0 266 256">
   <path fill="currentColor"
d="M135 247q0 2 2 3t4 1t3.5 -0.5t3.5 -3.5q2 -14 2 -30.5v-30.5q3 -4 6 -4.5t8 -0.5h7q4 2 4.5 4.5t0.5 5.5q0 12 -1 23.5t-1 23.5q0 5 1 8t5 3h4t3 -2v-52q-1 -2 -1 -3v-2q0 -2 0.5 -4t2.5 -2h19q2 0 2 -2.5v-2.5q0 -3 -1 -5.5t-4 -2.5q-4 0 -9 1.5t-10 1.5h-12t-17 -0.5
t-16 -3t-9 -6.5q-4 -21 -5 -42t0 -43q-1 -1 -1.5 -1h-2.5t-3 1.5t-1 3.5v27q0 7 -0.5 15t-0.5 16t1 15.5t3 14.5q1 4 4.5 5t6.5 2t6 2.5t3 5.5q0 15 -2 30t-5 30v1zM66 194v10q0 3 0.5 6.5l1 7t2.5 9.5q0 2 1 6t2 7.5t3 6t5 2.5t4 -2.5t1 -4.5q0 -7 -2 -14.5l-4 -15l-4 -15
t-2 -15.5q0 -5 3.5 -10.5t8.5 -11t9.5 -11t6.5 -10.5q2 -6 2.5 -12l1 -12t0.5 -12v-12v-6t-0.5 -8t-0.5 -8v-3v-4t-0.5 -6.5t-0.5 -7v-4.5q0 -2 -1 -5t-2 -6.5t-1.5 -6.5t-0.5 -4q-3 -2 -6.5 -4t-6.5 -2q-6 0 -11 1t-9.5 3.5t-7 7t-3.5 10.5l-4 41v5l-1 26q-1 2 -2 5t-2 6.5
t-1 6.5v6v4.5t0.5 7l1 7t0.5 4.5q0 2 1 2h3t4.5 -1t2.5 -4v-41l2 -6v-1q3 0 5 2.5t3.5 7t2.5 9t2.5 8.5t3 6t2.5 1q3 -1 4 -2.5t1 -3.5q0 -8 -3.5 -15t-8 -13t-8.5 -11t-4 -9v-4.5v-7.5t1 -7t4 -3q2 0 5 3.5t6 8t5 9t3 6.5h1h1q2 0 2.5 -1t0.5 -3q0 -5 -4 -11.5t-9 -12
t-9 -10t-4 -7.5q0 -4 1.5 -8t4 -7t5.5 -4.5t7 -1.5h2h3q5 7 7.5 16t3.5 18t1 19v18v4t-0.5 6t-0.5 5v2q0 2 -0.5 6t-1.5 9t-1.5 9.5t-1.5 6.5q-3 1 -7 5.5t-8 10t-7 10.5t-4 8v3v4.5v5.5v3zM148 152q6 1 10.5 2t9.5 1q11 0 16.5 -1.5t8.5 -5.5t3.5 -11t0.5 -18v-6
q0 -2 -0.5 -7.5t-0.5 -11.5t-0.5 -12t-0.5 -8t-2 -4t-4 -3l-18 -1q-3 2 -7 2.5t-8 2t-7 3t-4 5.5q-2 7 -2.5 11.5t-1 8.5t-0.5 8v10v9v10t1.5 9t5.5 7zM153 136v-1v-2t0.5 -2l0.5 -1h30q1 0 1 1t0.5 2t0.5 3v1q0 3 -0.5 4.5l-1.5 4.5q-6 1 -9.5 1h-9.5h-7q-3 -2 -4 -4.5
t-1 -6.5zM151 105h33l1 2t1 3v2.5v3v3.5v2q-9 0 -17.5 1t-17.5 1v-18zM151 96v-2v-3q0 -10 6 -13.5t15 -3.5q8 0 11.5 3.5t3.5 11.5q0 4 -2.5 6t-6 2.5t-7.5 0.5h-6h-6.5t-7.5 -2zM125 11v4v6.5v6.5v4v2.5t0.5 3.5t1 3.5t0.5 2.5q2 4 9.5 6t16.5 3t17 1h13h14l1 -1l2 -2
t1.5 -2t0.5 -2q-1 -3 -2 -3.5t-3 -0.5q-10 0 -20.5 1t-21.5 1h-2h-4h-3.5h-2.5q-5 -1 -6.5 -5t-2 -9t0 -10.5t0.5 -9.5h-10zM140 25v4h1.5t3.5 0.5t4.5 0.5h3.5h5q9 0 17.5 -0.5t18.5 -0.5q0 -1 1.5 -2.5l1.5 -1.5v-0.5v-0.5q0 -2 -2.5 -3t-4.5 -1h-1q-3 0 -10 1t-14.5 1.5
t-14.5 1.5t-10 1z" />
</svg>
