<?xml version="1.0" standalone="no"?>
<!DOCTYPE svg PUBLIC "-//W3C//DTD SVG 1.1//EN" "http://www.w3.org/Graphics/SVG/1.1/DTD/svg11.dtd" >
<svg xmlns="http://www.w3.org/2000/svg" xmlns:xlink="http://www.w3.org/1999/xlink" version="1.1" viewBox="-10 0 266 256">
   <path fill="currentColor"
d="M69 212q0 3 0.5 9t1.5 13t3.5 12t6.5 5t5 -3t1 -5q0 -10 -2.5 -19t-2.5 -19q0 -8 2 -17t4.5 -17.5t6 -17.5t5.5 -17q2 -7 3.5 -16t2.5 -17.5t1.5 -17.5t0.5 -17q2 -1 7 -2.5t11 -2t11.5 -1t8.5 -0.5t3.5 2.5t0.5 4.5v4t-2 4h-4.5t-7.5 0.5t-7.5 0.5h-4.5l-4 2t-2 4
q0 1 0.5 2t1.5 1h1q1 0 3.5 -0.5t5.5 -0.5t5.5 -0.5t3.5 -0.5h4q3 0 5 2.5t2 5.5t-1 4t-3 1.5t-4.5 0t-4.5 -0.5q-1 0 -4.5 0.5t-8 1t-8 0.5h-5.5v1v1v3t2 2h32q4 0 4.5 2.5t0.5 5.5q0 6 -1 12t-1 12t1 11t1 13h-2h-3q-7 0 -12.5 -0.5t-14.5 -1.5v-1v-1q0 -4 3.5 -6t8 -4
t8 -7t3.5 -15v-3t-1 -4q-2 -2 -4 -2q-3 0 -3.5 3.5t-1 8t-1 8t-5.5 3.5q-4 0 -5 -4t-0.5 -9t0 -9t-5.5 -4q-1 0 -2 0.5t-2 2.5q-1 15 -1.5 30t-1.5 29.5t-3 29t-6 29.5q0 2 1.5 4.5t3.5 2.5q5 0 7 -4t2.5 -9t1 -11.5t1 -12t1.5 -9t4 -3.5q2 0 3 2t1 3v34q0 1 2.5 2l2.5 1h1
q4 0 5.5 -3.5t1.5 -6.5v-3v-7t-0.5 -10t-0.5 -10v-7q-2 -1 -5 -1.5l-6 -1t-5 -0.5t-2 -1v-12l2 -2h2t5 -0.5t6.5 -0.5h5.5q1 -1 5 -0.5t6 0.5v6.5v10v9.5v7q0 10 -1.5 20.5t-1.5 20.5q0 2 1 3.5t4 1.5q2 0 4 -1.5t4 -3.5q-1 -8 -1 -16q0 -9 0.5 -17.5t1 -17.5t1.5 -17
q3 -5 9.5 -6t12.5 -1q1 0 3 0.5t2 3.5v13q0 1 -3 2.5t-6.5 3t-6.5 3l-3 1.5q-2 1 -2.5 4t-1 6.5t-0.5 7v4.5v5t0.5 6t1.5 5t4 2q2 0 3.5 -0.5t2.5 -2.5v-7v-7l-0.5 -1.5t-0.5 -3t-0.5 -3t-0.5 -2.5t1 -3.5t2.5 -4.5t3 -3.5t3.5 -1.5t3 2.5t1.5 6t0.5 7v5.5q0 1 -0.5 2.5
l-0.5 1.5q0 1 -0.5 3.5t-0.5 3.5v2t0.5 4t0.5 4v3q2 2 3 2.5t3 0.5q5 0 6.5 -4t1.5 -8q0 -14 -1.5 -28.5t-2.5 -28.5v-12.5t-0.5 -18.5t-0.5 -18.5v-12.5l-1 -0.5t-1 -1.5h-1v0q-2 2 -5.5 3.5t-3.5 2.5v22q-1 0 -4 1.5t-4 0.5q-1 0 -2 -2.5t-1 -3.5q1 0 1.5 -0.5t0.5 -1.5
q0 -2 -0.5 -5.5t-1.5 -7t-2 -6.5t-4 -3q-2 0 -3.5 3t-1.5 6v6v4q0 7 2 11t4.5 5.5t5 2l5 1t4 2.5t1.5 6v3.5t-3 1.5h-1q-4 0 -9 -0.5t-8.5 -1l-3.5 -0.5l-2 -3v-47l2 -4q9 0 19 -0.5t19 -1.5q1 0 3 -1.5l2 -1.5v-1v-1q0 -1 -1.5 -2l-1.5 -1h-39l-0.5 -0.5t-0.5 -1.5l-0.5 -2
t-0.5 -3v-3t2 -3q1 0 3.5 -0.5t5.5 -1l6 -1t5 -1.5l2 -1.5l2 -1.5q4 0 6.5 2.5l5 5l5 5t6.5 2.5q7 0 7 -7l-0.5 -1.5l-0.5 -1.5q0 -1 -2.5 -2.5t-4.5 -3.5t-4 -3.5t-3 -2.5t-2 -2.5t-1 -2.5v-21q0 -4 -4.5 -6.5t-10 -4t-11 -1.5h-7.5l-3 -3q2 -4 3 -6.5t1 -6.5q0 -3 -2.5 -4
t-5.5 -1h-2.5t-3 0.5l-3 1t-1.5 1.5v17l-1 0.5l-1 0.5h-2.5h-2.5t-4.5 0.5l-7 1t-6.5 1t-4 0.5q-2 1 -2 2v3q0 3 2 3.5t5 0.5q5 0 10.5 -1t10.5 -1q4 0 5 1t1 4t-0.5 4.5t-3.5 2.5q-2 0 -7.5 0.5t-11.5 1t-11.5 1t-7.5 0.5h-1h-1l-1.5 -1.5l-1.5 -1.5v-9t-2 -9t-5 -6.5
t-8 -2.5q-9 0 -15 1t-11 3.5t-8 7.5t-6 13q-3 9 -4.5 17.5t-2 17.5t0 18t0.5 18v8v11t0.5 12.5t2 11.5t3.5 8.5t6 3.5q3 0 4 -2t1 -5q0 -6 -1 -12.5t-2 -12.5l-2 -12t-1 -13v-4t1 -4q4 4 8.5 9.5t6.5 10.5v1t0.5 2.5t0.5 2.5v1q1 1 2.5 1h2.5h3t2 -1v-2.5v-1.5
q0 -5 -2.5 -11.5t-6.5 -12.5t-8.5 -11t-8.5 -6v-1v-1l0.5 -2.5t0.5 -5.5t0.5 -5t0.5 -3t1.5 -2l1.5 -1l0.5 -0.5l0.5 -0.5l0.5 0.5l0.5 0.5q2 2 4.5 5.5t5.5 7t5.5 6t6.5 2.5q3 0 4 -0.5t1 -3.5q0 -6 -4 -11t-9 -9.5t-9 -8.5t-4 -7t2 -6.5t4.5 -6t5.5 -4t7 -1.5q5 0 8 4
t4.5 9t1.5 10v8q0 8 -1 16t-1 16v5v3l2 2l-0.5 3.5t-1.5 4.5q-4 12 -7.5 23.5t-8.5 23.5q-4 10 -7 22.5t-3 24.5zM167 65q3 0 5.5 0.5t2.5 3.5t-2 4t-4 1h-4.5h-3.5q0 -3 1 -6t5 -3zM163 49q0 -1 0.5 -3t1.5 -2h16l2 3t3 5v2q0 1 -1 4t-3 3t-5 -1.5t-6.5 -3t-5.5 -3.5t-2 -4
z" />
</svg>
