<?xml version="1.0" standalone="no"?>
<!DOCTYPE svg PUBLIC "-//W3C//DTD SVG 1.1//EN" "http://www.w3.org/Graphics/SVG/1.1/DTD/svg11.dtd" >
<svg xmlns="http://www.w3.org/2000/svg" xmlns:xlink="http://www.w3.org/1999/xlink" version="1.1" viewBox="-10 0 266 256">
   <path fill="currentColor"
d="M133 247q0 1 1 3t3 2q5 0 9.5 -7t8 -16t6.5 -17.5t5 -11.5q1 -2 4.5 -6.5t7.5 -10t7.5 -10t5.5 -7.5q1 0 2.5 -2t3.5 -4t4 -3.5t3 -2.5v-1.5v-1.5q0 -3 -1 -4t-3 -1h-3q-9 8 -17 17.5t-15.5 20t-13.5 21.5t-11 22q-2 3 -4.5 9t-2.5 11zM93 241v7q6 0 8.5 -2.5t4 -6.5
t2 -9t0.5 -8q4 -24 8 -47.5t6 -47.5v-4.5v-6.5v-14t-2 -13.5t-5.5 -12.5t-9.5 -10q-2 -2 -7.5 -3.5t-10.5 -4t-9 -5t-4 -6.5q0 -6 4 -9.5t10 -6t13.5 -3.5t13.5 -2.5t10 -3t4 -5.5q0 -2 -2 -3.5t-4 -1.5q-7 0 -17.5 2t-19.5 7t-16 12t-7 16q0 6 4 9.5t10 5.5t12 3.5t9 4.5
q4 3 6 6t3 6t1.5 6.5t2.5 6.5q0 1 1 2.5t1 2.5v25q0 2 -2 2h-3h-3q-3 0 -6.5 -0.5t-7 -0.5t-6.5 -0.5l-3 -0.5l-3 -1v-18l0.5 -0.5t1.5 -0.5q4 -3 11 -4t11 -1q2 -1 2 -4v-3h-26q0 -1 -0.5 -4l-1 -6t-2 -5t-4.5 -2t-3 4v5.5v9.5v8.5v5.5q0 4 -0.5 10t-0.5 11.5t-0.5 9.5
l-0.5 4l-1 3q-1 16 -5 28.5t-8 27.5v2q0 5 3 7q4 -3 6 -6t3 -7t2 -7.5t2 -7.5q0 -3 1 -6l2 -6t2 -5.5l1 -2.5h5q3 3 7.5 8t8.5 7h1h1l1.5 -1.5l1.5 -1.5q-2 -5 -6 -9t-8 -7t-7 -6.5t-3 -6.5q0 -5 1.5 -7.5t4 -3.5t5.5 -1h7h5h6t4 2t2 4q0 11 -2.5 23t-2.5 23zM130 169
q0 2 0.5 3t2.5 1q3 0 7 -5t8 -11t7 -12l4 -8q2 -3 5.5 -7t8.5 -9t10.5 -10t10 -9t7.5 -7t3 -4q0 -3 -2 -5t-5 -2l-0.5 0.5l-0.5 0.5q-3 3 -5.5 5l-5 4l-5 4t-3.5 6q-1 0 -2 2t-2 2q-5 6 -12.5 13t-14 15.5t-11.5 17t-5 15.5zM134 96q0 2 1 2.5t3 0.5q7 0 10 -5t6 -9
q1 -1 2.5 -4t3.5 -5.5t3.5 -5t2.5 -3.5q0 -1 3 -4t7 -6.5t8.5 -7.5t8 -7.5t6 -5.5t2.5 -3q0 -7 -7 -7q-3 0 -8 4t-11 10.5t-12 14.5t-11.5 15.5t-10 13.5t-6.5 9l-0.5 1t-0.5 2z" />
</svg>
