<?xml version="1.0" standalone="no"?>
<!DOCTYPE svg PUBLIC "-//W3C//DTD SVG 1.1//EN" "http://www.w3.org/Graphics/SVG/1.1/DTD/svg11.dtd" >
<svg xmlns="http://www.w3.org/2000/svg" xmlns:xlink="http://www.w3.org/1999/xlink" version="1.1" viewBox="-10 0 266 256">
   <path fill="currentColor"
d="M61 247q0 2 2 2.5t4 0.5q5 0 8.5 -6t5 -13.5t2.5 -15t2 -11.5l3 -45q1 -4 3.5 -4.5t5.5 -0.5h2q2 0 3 1q0 12 1.5 23t3.5 22t4 22.5t2 22.5q1 2 2 2h3q3 0 5 -2.5t2 -5.5q0 -4 -1.5 -10t-3 -12.5t-3 -12.5l-2.5 -10q-1 -5 -1.5 -11.5t-0.5 -12.5t-0.5 -11.5t-2.5 -11.5
l-1.5 -1.5t-2.5 -1.5t-4 -0.5t-4 -0.5q-3 0 -7.5 0.5t-9.5 1t-9 2t-4 3.5q0 4 2.5 4h4.5q3 0 5 1.5t2 6.5q0 8 -1 16t-3 16q-4 6 -4.5 12.5t-1.5 12.5q-1 3 -2.5 6.5t-3.5 8t-3.5 8t-1.5 5.5zM153 98v9t0.5 13t1 14.5t1 14.5t2 12t3.5 6q5 4 9.5 4t9.5 1q4 -1 9.5 -2
t10.5 -3.5t8 -7t3 -10.5v-59q0 -9 -2 -15t-6 -12q-1 0 -3.5 -0.5t-5 -0.5t-5 -0.5t-3.5 -0.5h-3q-10 0 -16 2.5t-9 7t-4 11.5t-1 16zM48 103q0 3 -0.5 10t-1 15.5t-1 15.5t-0.5 10v4.5v4.5q6 0 8.5 -2.5t3.5 -7t1 -9.5v-8q0 -2 0.5 -6.5t1 -10t0.5 -10v-6.5q1 -3 4.5 -4
t7.5 -1h1.5t1.5 2t2 5t1.5 6t1 5.5t0.5 3.5q3 2 7 3.5t8.5 2t8.5 0t8 -0.5q2 0 4 -1t2 -4t-4 -3.5t-9.5 -1t-10.5 -0.5t-7 -2l-0.5 -3l-0.5 -3q0 -7 2.5 -9.5t6.5 -3.5t8.5 -0.5t8 0.5t6 -1.5t2.5 -5.5h-32l-0.5 -1l-0.5 -1l-0.5 -2t-0.5 -3q0 -2 0.5 -3.5l0.5 -1.5
q0 -1 0.5 -1.5l0.5 -0.5h37q1 0 1.5 1t1 2.5t0.5 3v2.5l0.5 2t1.5 4t1 4v3q1 1 1 6v8v9t-1 6q1 0 1.5 2t0.5 3l-0.5 3.5t-1.5 4.5l-0.5 2t-0.5 3t1 4t3 3t3.5 -2.5t2.5 -4.5v-25v-26q0 -2 -0.5 -6.5t-2 -9.5t-4 -8t-7.5 -3h-38l-0.5 -2.5t-0.5 -3.5l-0.5 -3t-0.5 -4v-7
t0.5 -8.5t2 -8t4.5 -3.5l40 -3q2 0 2 -1.5v-3.5v-2t-2 -2h-7h-11t-16 1.5t-14 4t-7 8.5l-3 35l-0.5 1t-1.5 1v0h-1q-3 0 -4.5 -2.5t-2 -6t-0.5 -7.5v-6v-4.5t-0.5 -7t-1 -6.5t-0.5 -4t-1 -3t-3 -2h-1l-1 0.5t-2 1.5v5t-0.5 9t-1 9t-0.5 5v1v1q1 1 1.5 4t1 5.5t1 4.5t0.5 3
q0 3 2.5 4.5t5.5 2t6.5 1.5t5.5 2v4v3t-0.5 4t-1.5 3.5t-2 1.5h-18l-1.5 2t-2.5 4t-1.5 4.5t-1.5 3.5zM166 154q0 -5 -0.5 -8t-0.5 -6v-6v-6v-3.5v-2.5q1 -2 5 -3t8.5 -2t9.5 -1.5t7 -0.5q3 0 5.5 1t2.5 5v1q-2 8 -2 15t-1.5 12t-6 8.5t-14.5 3.5q-4 0 -7.5 -0.5t-5.5 -6.5z
M161 100v-2q2 -8 2.5 -13t3 -8t7 -4.5t13.5 -1.5q5 0 7.5 1.5t4 4t1.5 6.5v8v3v3.5v3.5v2q-6 3 -11.5 3.5t-12.5 0.5h-2h-4h-3h-2q-4 -2 -4 -7zM101 36q0 4 2 6.5t5 3.5t6.5 1.5t7.5 0.5h3.5h5t4.5 -1t2 -3q0 -3 -1.5 -5t-4.5 -2h-1l-1.5 0.5t-2.5 1t-2 0.5h-1h-1h-2
q-1 0 -3.5 -1t-4.5 -2.5t-4 -2.5l-2 -1q-2 0 -3.5 1t-1.5 3z" />
</svg>
