<?xml version="1.0" standalone="no"?>
<!DOCTYPE svg PUBLIC "-//W3C//DTD SVG 1.1//EN" "http://www.w3.org/Graphics/SVG/1.1/DTD/svg11.dtd" >
<svg xmlns="http://www.w3.org/2000/svg" xmlns:xlink="http://www.w3.org/1999/xlink" version="1.1" viewBox="-10 0 266 256">
   <path fill="currentColor"
d="M99 246q1 3 4.5 4t6.5 1q12 0 18 -3t10 -7.5t8 -10.5t11 -11q0 -1 1.5 -1.5l3 -1t3 -1.5t2 -1t1.5 -1l2.5 -2.5l2.5 -2.5t1 -2l0.5 -0.5l0.5 -0.5q0 -1 -1 -1.5t-3 -0.5q-6 0 -11 3t-9.5 7.5t-8 9.5t-7.5 9.5t-9 7.5t-11 3q-3 0 -6 -2t-3 -5q0 -5 3 -8t7 -6t9 -5t9 -5
t6.5 -7t2.5 -10q0 -4 -2 -6.5t-5 -4.5t-6.5 -2.5t-6.5 -0.5t-6.5 1.5t-7.5 3t-8.5 3t-8.5 1.5t-7 -1.5t-3 -6.5q0 -7 6.5 -13.5t15 -11t17 -7.5t13.5 -3h3q2 1 6 1t8 0.5l8 1t5 0.5q3 1 8 2.5t9.5 4.5t7.5 7t3 9q0 4 -2 6.5t-4.5 4t-6 1.5h-6.5h-4h-4q-3 -2 -5 -5.5t-4 -7.5
t-4 -6.5t-5 -2.5q0 9 4.5 18t13.5 12q1 0 4.5 0.5t4.5 0.5t5.5 -0.5t9 -1.5t8 -3t3.5 -5v-23q0 -4 -5 -7.5t-12 -5.5t-16 -4t-16.5 -3.5t-13.5 -3.5t-8 -4q-1 -3 -1.5 -7t-1.5 -8t-2.5 -8t-4.5 -6l-1 2l-0.5 2.5t-0.5 3.5q0 7 2.5 12.5t2.5 11.5q0 3 -3.5 5.5t-9 5t-12 5.5
t-12 7.5t-9 10t-3.5 13.5v4.5v4.5q1 3 4 4.5t6 2.5t6 1h6q5 0 8.5 -1.5t7 -3.5t7 -3.5t7.5 -1.5q3 0 5 3t2 6v2q-5 7 -11 10l-11 5.5t-8 7t-3 15.5v7zM166 106l3 2t6.5 5t6.5 6l4 4q1 2 1.5 4.5t2 5t3 4.5t4.5 2t5.5 -2t2.5 -5v-1q-1 0 -1.5 -1.5l-0.5 -1.5l-4 -4l-6 -6
t-5.5 -6t-3.5 -5l-3.5 -3.5t-1.5 -4.5t3.5 -4.5t7.5 -2.5t7 -2t3 -4t-1.5 -5t-5.5 -2h-1l-19 9h-5l-0.5 -1t-1 -2.5t-1.5 -3t-1 -2.5q-1 -1 -1.5 -2.5t-1.5 -3.5t-1.5 -3.5l-0.5 -1.5v-1q0 -2 1.5 -2.5l3 -1t3 -0.5h1.5h7h11h11h8q0 -1 0.5 -3l0.5 -2q0 -3 -3.5 -4.5
t-5.5 -1.5q-9 0 -18.5 1.5t-18.5 1.5q-4 0 -5 -1t-1 -5v-4t1 -3h4t6 -0.5t5.5 -0.5h3.5q4 -1 8 -3.5t4 -6.5t-0.5 -7.5t-1.5 -6t-3.5 -4t-6.5 -1.5v19q0 1 -2 2t-4.5 1h-4.5h-4h-4t-3 -2v-17l-1 -1.5t-2 -1.5h-1h-1l-1 1l-2 2v9q0 8 2 15.5t2 14.5q0 1 -0.5 1.5l-0.5 0.5
q0 1 -2.5 1.5t-3.5 0.5h-33q-1 0 -1 -2t-0.5 -4t-0.5 -5v-2v-3v-3q2 -3 5.5 -3.5l7 -1t6 -1.5t2.5 -4q0 -4 -2.5 -4.5t-4.5 -0.5t-6.5 1t-10.5 3t-12.5 4t-11.5 4t-8.5 4.5t-3.5 4.5t2 2h3q6 0 11.5 -2t10.5 -2q4 0 5 4.5t1 7.5q0 4 -3 5.5t-7.5 2.5t-9 1h-7.5
q-1 0 -4.5 0.5t-7 0.5t-7 0.5t-5.5 0.5v2q0 3 1.5 5.5t4.5 2.5q5 0 10.5 -1.5l11 -3t11 -2.5t10.5 -1h1l0.5 0.5l0.5 0.5v18l-25 12q-2 3 -5.5 5t-7.5 4t-7 4.5t-3 4.5q0 3 1.5 3h3.5q5 0 10 -3t9.5 -7t10 -7t12.5 -3v34q0 2 1 2h2t1.5 -0.5t1.5 -2.5q3 -9 2.5 -19.5
t-1.5 -18.5q2 -3 6.5 -5.5t9 -4t8 -4t3.5 -4.5q0 -3 -3 -3q-4 0 -7 2t-7 3q-1 0 -4 -0.5t-4 -0.5v-9h1t2.5 -0.5t3 -0.5h3.5q2 -1 6 -1.5l8 -1l8 -1t7 -0.5t4.5 2t2 5t0.5 6t1 5q2 3 4.5 5t2.5 6q0 3 -4 6.5t-9 6.5t-9 7t-4 9q5 0 8.5 -2.5t6.5 -5.5t6.5 -5.5t8.5 -2.5z" />
</svg>
