<?xml version="1.0" standalone="no"?>
<!DOCTYPE svg PUBLIC "-//W3C//DTD SVG 1.1//EN" "http://www.w3.org/Graphics/SVG/1.1/DTD/svg11.dtd" >
<svg xmlns="http://www.w3.org/2000/svg" xmlns:xlink="http://www.w3.org/1999/xlink" version="1.1" viewBox="-10 0 266 256">
   <path fill="currentColor"
d="M181 249l3 2h1q1 0 2.5 -1t2.5 -2q0 -2 0.5 -6t0.5 -8.5t0.5 -9t0.5 -5.5v-3v-8.5t-1 -9t-2.5 -9t-4.5 -7.5q-2 -2 -6.5 -4t-10 -3.5t-11 -3.5t-10 -4.5t-7.5 -5.5t-3 -8q0 -2 -0.5 -7.5t-0.5 -11.5t-0.5 -11.5t-0.5 -7.5v-1q0 -6 0.5 -11t1.5 -10v-9t0.5 -12.5t0.5 -12
v-8.5q2 -3 6 -4.5t8.5 -2t8.5 0t7 0.5q8 0 16 1t16 1q2 0 4.5 -0.5t2.5 -3.5q0 -1 -1.5 -3.5t-3.5 -2.5h-61q0 -1 -0.5 -3.5t-1 -6t-1 -6t-0.5 -3.5q0 -3 -1 -3h-3h-1h-1v2.5t-0.5 3.5t-0.5 3.5v2.5q-1 3 -1 8.5t-0.5 12.5t-1 14.5t-0.5 14t-0.5 12t-0.5 7.5v20v19
q0 3 0.5 7t0.5 8t1 8t3 6q4 5 11.5 8t15 5.5t13.5 5t7 7.5q3 14 3.5 29.5t-0.5 29.5zM76 151q0 4 0.5 11t1 13.5l1 13t2.5 10.5q0 1 1.5 4t3.5 6.5t3.5 6.5t1.5 4q3 5 4.5 9t3.5 7t5 6.5t7 6.5h2h1q2 0 3.5 -0.5t1.5 -2.5t-0.5 -4t-2.5 -4q-5 -3 -8 -7.5t-5.5 -8.5t-4 -7.5
t-4.5 -4.5q-4 -10 -6.5 -20t-2.5 -21v-4t1 -4q3 -3 5 -6l4 -6t3 -6.5t1 -9.5q0 -1 0.5 -6t0.5 -11t0.5 -10.5t0.5 -6.5t1 -2h3q1 0 2.5 1t2 3t0.5 4v3v3.5t-2 3.5q1 14 0 27.5t-1 27.5v6l0.5 1l0.5 1h1q2 0 3 -3.5t1.5 -8t0.5 -9v-5.5q0 -3 0.5 -10t0.5 -15t0.5 -15t0.5 -10
q-1 -6 -3.5 -10t-9.5 -4q-2 0 -3.5 0.5t-3.5 4.5q0 1 -0.5 4t-0.5 6.5t-0.5 6.5t-0.5 4v3v5v6v3v3t-1 5.5t-2 4.5t-3 2q-1 0 -1.5 -1t-1 -2.5t-0.5 -2.5v-2q0 -8 1 -15t1 -15v-12q0 -4 -4 -5.5t-7 -1.5q-8 0 -13.5 6t-5.5 14q-2 11 -2 24v25v3v5.5v4.5v4q1 4 2 6t6 2v-71
q0 -7 4.5 -10.5t10.5 -3.5q0 1 0.5 5.5t0.5 9.5v9.5v6.5q0 1 -0.5 4t-1 6.5l-1 7l-0.5 3.5v1zM143 143q2 5 5 7.5t9 2.5q5 0 7.5 -2t4 -5t2 -7.5t0.5 -8.5q0 -5 -1.5 -12.5t-1.5 -12.5l-1.5 -1.5l-0.5 -0.5h-1q-2 0 -2 2.5v6t-2 6t-9 2.5l-2 -0.5t-2 -1.5q-1 0 -1.5 -0.5
l-0.5 -0.5v-13q-1 0 -2.5 0.5t-1.5 1.5v3v2q0 9 0.5 15.5t0.5 16.5zM177 112v18.5t3 18.5l1 2t2 2h16q2 0 3.5 -1t2.5 -2.5t1.5 -3t0.5 -2.5v-41l-0.5 -0.5l-0.5 -0.5q-1 -1 -2 -1.5t-2 -0.5t-2.5 1t-1.5 2v5t-0.5 6t-2.5 5t-5 2h-1l-1.5 -0.5l-1.5 -0.5l-2 -2v-13l-1 -0.5
t-2 -1.5h-1t-1.5 1t-1 2.5t-0.5 3v2.5zM159 126q2 0 2.5 2.5t0.5 5v2.5v7q-3 3 -7 3q-1 0 -4 -1.5t-3 -3.5v-12l1 -0.5t1.5 -1t3.5 -1t4 -0.5h1zM190 127q3 0 5.5 1t2.5 5v4t-0.5 4t-1.5 3.5t-3 1.5t-5.5 -1.5t-3.5 -3.5v-12l0.5 -0.5t1.5 -0.5q0 -1 2 -1h2zM149 59v27
q0 4 3 6t6.5 3t7 1h5.5q10 0 14 -1t5.5 -3.5t2 -7.5t2.5 -13v-1v-3.5t-0.5 -5.5t-2 -5t-4.5 -2h-2q0 1 -0.5 3t-1 4.5t-1.5 4t-3 1.5h-20q-2 -7 -8 -11zM158 81q0 -2 1 -4.5t4 -2.5h18q2 0 2.5 1l1 2t0.5 2v2q0 2 -1 4.5t-4 2.5h-18q-3 0 -3.5 -2.5t-0.5 -4.5zM49 78v2.5
t2 1.5h0.5h0.5l1.5 -0.5t1.5 -1.5q1 -1 4 -3.5t6.5 -5.5t6.5 -5.5t4 -3.5q3 -2 7.5 -4t7.5 -2h2h1l22 21v0q2 0 3.5 -2t1.5 -3l-0.5 -0.5l-0.5 -0.5q-1 -3 -4.5 -6.5t-7.5 -6.5t-8 -6.5t-6 -6.5l-1 -3v-27q0 -3 -1.5 -4.5t-3.5 -1.5h-1q-1 1 -3 2.5l-2 1.5v32q0 3 -5.5 7
t-11.5 8t-11 8.5t-5 9.5z" />
</svg>
