<?xml version="1.0" standalone="no"?>
<!DOCTYPE svg PUBLIC "-//W3C//DTD SVG 1.1//EN" "http://www.w3.org/Graphics/SVG/1.1/DTD/svg11.dtd" >
<svg xmlns="http://www.w3.org/2000/svg" xmlns:xlink="http://www.w3.org/1999/xlink" version="1.1" viewBox="-10 0 266 256">
   <path fill="currentColor"
d="M159 246q2 3 3 4t3 1q1 0 2 -0.5t1 -1.5v-12l-12 -27q-1 -1 -3.5 -5t-5.5 -9t-5.5 -9.5t-2.5 -6.5t2.5 -3t3.5 -2q2 -4 2.5 -8t0.5 -8t-1 -8t-3 -7.5t-5.5 -6t-8.5 -2.5l-32 2l-1.5 0.5l-3 1t-2.5 1.5t0 3q0 3 2 3h4q7 0 13.5 -1t12.5 -1h9q2 3 4.5 5.5t2.5 5.5v4t-0.5 4
t-1.5 3t-2 1h-1.5h-0.5l-1.5 -1t-3 -1.5t-3 -1.5l-1.5 -1q-4 -1 -9.5 -1h-9.5h-5h-6.5t-5.5 1.5t-2 3.5t1 4t3 2q5 0 9.5 -1t9.5 -1h4.5t5.5 0.5t5 1.5t2 4v2q-4 2 -11.5 3.5t-15.5 3t-14.5 3t-6.5 3.5v0q2 3 4.5 4t5.5 1q11 0 20.5 -2.5t20.5 -5.5h1q3 0 5 2t3 4.5t1.5 5.5
t1.5 5q2 5 4 10.5t4.5 11t5 10.5zM77 219q0 4 3 5t7 1h1l2 -1l2 -1q11 -1 23 -1.5t23 -2.5v-2v-1q0 -2 -0.5 -3.5t-1.5 -2.5h-13h-10.5t-15.5 1t-14 2.5t-6 5.5zM60 179q0 3 0.5 7t5.5 4q2 0 3.5 -2t2 -4.5t0.5 -5v-3.5q1 -2 1.5 -5.5t1.5 -7.5t1.5 -6.5t0.5 -3.5
q1 -4 2.5 -8.5t4 -8.5t5.5 -7.5t6 -6.5q7 -4 14 -6.5t14.5 -3.5t15 -1.5t14.5 -0.5q5 0 7 3t2 7q0 6 -0.5 11.5t-0.5 10.5q0 6 2 12.5t6 13t8.5 11.5t8.5 9h2h1q3 0 5 -0.5t2 -3.5v-1v-1q-5 -6 -9 -10.5l-8 -9t-6.5 -10t-2.5 -13.5q0 -1 -0.5 -5t-0.5 -8q0 -5 0.5 -9t0.5 -5
q-2 -5 -7 -7.5t-9 -2.5q-8 0 -15.5 1t-15.5 1v-7q0 -1 1 -1.5t2 -0.5l2.5 -0.5t3.5 -0.5q1 -1 3 -2t4.5 -2t4.5 -2.5t3 -1.5q5 -8 5.5 -16t0.5 -17v-8v-6.5t-0.5 -7t-0.5 -8.5q-4 -4 -9.5 -7t-11.5 -3t-13.5 0.5t-14 3t-12 6.5t-7.5 11v12q0 12 1.5 22.5t6.5 21.5q1 3 4 3.5
t6 0.5t5.5 0.5t2.5 2.5v1q0 1 -0.5 4t-0.5 4l-0.5 0.5t-1.5 0.5q-6 0 -12.5 3.5t-11.5 9t-9 12t-6 12.5q-3 9 -5.5 17.5t-2.5 18.5zM97 76q0 -3 1 -5q11 -2 21 -2.5t21 -0.5v4.5t-1 4.5q0 4 -4 6t-6 2h-26q-1 0 -2 -1t-2 -2.5t-1.5 -3t-0.5 -2.5zM92 54q0 -3 2.5 -5t5.5 -2
q5 -1 9 -1t8 -0.5t7 -0.5h8h10q2 1 2 3.5v2.5q0 4 -0.5 5.5t-4.5 2.5q-5 1 -9.5 1.5t-8.5 1t-8 0.5h-9h-6l-3.5 -3.5t-2.5 -4.5zM94 33q1 -3 4.5 -5.5t8 -3.5t9.5 -1.5t7 -0.5h5.5t6.5 0.5t5.5 2t2.5 4.5q0 4 -5 6t-11 2.5t-11.5 0.5h-7.5h-13q0 -1 -1 -2.5t0 -2.5z" />
</svg>
