<?xml version="1.0" standalone="no"?>
<!DOCTYPE svg PUBLIC "-//W3C//DTD SVG 1.1//EN" "http://www.w3.org/Graphics/SVG/1.1/DTD/svg11.dtd" >
<svg xmlns="http://www.w3.org/2000/svg" xmlns:xlink="http://www.w3.org/1999/xlink" version="1.1" viewBox="-10 0 266 256">
   <path fill="currentColor"
d="M142 249l2 2v0h1q1 -1 3 -2l2 -1v-6q0 -10 -1 -19.5t-1 -19.5v-4v-7v-6v-5q4 -7 5.5 -14.5t3.5 -13.5t7.5 -9.5t16.5 -3.5h7q1 2 1.5 4t0.5 4q0 1 -0.5 3l-0.5 2l-1 2t-2 3q-6 15 -6 33v2v4v4v2q2 4 3.5 11t4 14.5t6 12.5t9.5 5q2 0 2.5 -2t1.5 -3l-6 -12t-5.5 -12.5
t-4.5 -13t-2 -13.5q0 -4 0.5 -6.5t0.5 -5.5t1 -6.5t2 -7.5q1 -2 2.5 -4.5t2.5 -5.5t1.5 -5.5t0.5 -4.5q0 -7 -3.5 -9t-8.5 -2.5t-9 -2.5t-4 -8q0 -3 2.5 -5.5t5.5 -4t7 -3t6 -2.5q0 -1 1.5 -3t2.5 -4.5l2 -5t2 -4.5v-3v-4v-4v-2v-9.5t-0.5 -8.5t-1 -9t-0.5 -11
q-2 -3 -4.5 -4.5t-6 -2t-6.5 0t-6 0.5q-5 0 -10.5 -0.5t-10.5 1t-9 4.5t-5 9q-1 5 -1 9.5t-0.5 8t-0.5 7.5v8q0 6 1 12.5t3 11t7 6.5t13 2q1 1 1 2.5v2.5q0 9 -2 13t-5 6.5l-6 5t-6 8.5q-6 15 -7.5 31.5t-1.5 33.5q0 8 1 17.5t2 16.5zM82 240q0 1 0.5 2t1.5 1q5 0 6.5 -2
t2 -5t0.5 -6v-6q0 -1 0.5 -4t1 -6.5t1 -6t0.5 -4.5q1 -1 2 -1h3t2.5 0.5t0.5 3.5v34l3 3l5 -5t2 -6q0 -7 -1 -13.5t-1 -12.5v-3v-3q1 -2 4.5 -3t3.5 -3q2 -8 2 -16v-16v-20q-1 -4 -3 -6.5t-5.5 -3.5t-7 -1h-6.5h-2q-1 0 -3.5 0.5t-4.5 1t-4.5 1t-3.5 0.5q-3 2 -4.5 5.5
t-2.5 7.5t-1 8v7v7.5t1 11t2 10.5t2 6l3 1.5l3 1.5q1 0 1.5 1l0.5 1q0 2 -1 7t-1.5 11t-1.5 11t-1 7v1v1zM49 225q0 4 4 4q3 0 5 -2.5t2.5 -6t0.5 -7v-5.5v-4v-7v-7v-4q1 -12 1.5 -24.5t2.5 -24.5q2 -7 6.5 -10.5t9.5 -6t11 -4t11 -4.5t8 -8.5t3 -13.5q0 -1 -0.5 -4t-1 -6.5
t-1.5 -6.5t-2 -3h-13q-1 0 -1 -1.5v-2.5q0 -5 2.5 -6.5t5.5 -2t5.5 -1t2.5 -3.5q0 -2 -2.5 -2.5t-4.5 -0.5h-1q-2 0 -6.5 0.5t-9.5 0.5t-9.5 0.5t-6.5 0.5v5h14v29q0 2 -2 2h-3q-4 0 -5 -3t-0.5 -7t-0.5 -7.5t-5 -3.5q-2 0 -2.5 2t-0.5 5q0 9 1.5 14t5 7t9.5 2t16 -1
q2 0 3.5 1.5t1.5 3.5v1q-1 0 -1.5 1l-0.5 1q-1 0 -3.5 1.5t-5.5 3l-6 3t-4 1.5q-12 6 -18 11.5t-8.5 13t-3 17t-0.5 21.5q-1 13 -2 25t-1 24zM82 186q0 -2 0.5 -3l1.5 -3q6 -1 10 -1.5t10 -0.5h7q2 1 2.5 2.5t0.5 3.5q0 3 -1.5 5t-4 3t-5.5 1.5t-6 0.5q-2 0 -4.5 -0.5
t-5 -1.5t-4 -2t-1.5 -4zM84 170l-0.5 -1t-0.5 -2q0 -4 3 -5.5t7.5 -2t8.5 -0.5h7t4 0.5t1 4.5q0 2 -0.5 4t-2.5 4h-8q-5 0 -9 -0.5t-10 -1.5zM83 149q0 -3 2 -5t4 -3t5 -1.5t5 -0.5h6t4.5 1t3 3t1.5 6q0 2 -3 3t-6 1h-6.5h-4.5h-9q-1 -1 -1.5 -2t-0.5 -2zM150 94q0 -4 2 -5
t6 -1h4t8.5 -0.5t9 -0.5t6.5 -1h3q2 0 3 1t1 3q0 4 -2.5 9t-7.5 5h-24q-1 0 -2.5 -1.5l-3 -3t-2.5 -3t-1 -2.5zM122 101q0 1 1 1h2q2 0 5 -3v-4v-6.5v-6.5v-4v-20t-4 -19q0 -1 -1 -2t-2.5 -2l-3 -2t-2.5 -1h-24v-17q0 -1 -2.5 -2t-3.5 -1t-2 0.5t-1 1.5v17l-2 2
q-10 2 -15.5 3t-8.5 4t-4.5 8.5t-1.5 15.5q0 2 -0.5 6t-0.5 9.5t-0.5 9.5t-0.5 5v2q0 2 0.5 2.5t1.5 2.5q3 -1 5 -3.5t3 -6.5v-6.5v-9.5v-10.5v-6.5q0 -8 4.5 -11.5t10.5 -5.5t13 -2h13h13q5 4 6 9t2 12v41zM95 88l-0.5 -2t-0.5 -3q0 -4 1 -5t6 -1q2 0 4.5 1t2.5 5q0 7 -7 7
q-1 0 -3 -0.5t-3 -1.5zM148 73v-1.5v-2.5t0.5 -2t1.5 -1q7 -2 14 -2h14h16q1 1 1.5 3l0.5 2q0 2 -1.5 5t-3.5 5q-5 0 -9 0.5t-7.5 0.5h-7.5h-8h-7q-3 -1 -3.5 -3t-0.5 -4zM151 50q0 -1 0.5 -2.5t0.5 -2.5q5 -4 12 -5t13 -1h6t5.5 1t4 2.5t1.5 5.5q0 2 -0.5 4t-2.5 3h-5.5
t-8.5 0.5t-9 0.5h-5t-2.5 0.5t-2.5 0.5q-4 0 -5.5 -2t-1.5 -5z" />
</svg>
