<?xml version="1.0" standalone="no"?>
<!DOCTYPE svg PUBLIC "-//W3C//DTD SVG 1.1//EN" "http://www.w3.org/Graphics/SVG/1.1/DTD/svg11.dtd" >
<svg xmlns="http://www.w3.org/2000/svg" xmlns:xlink="http://www.w3.org/1999/xlink" version="1.1" viewBox="-10 0 266 256">
   <path fill="currentColor"
d="M202 200q0 13 -1 25.5t-1 25.5q8 0 11 -6.5t3 -14.5v-13v-15t-1 -15l-2 -14q-2 -7 -8 -11t-12 -7.5t-11 -7t-5 -9.5q0 -7 4 -10t9.5 -5t11.5 -3.5t11.5 -6t9.5 -12.5t4 -22q0 -6 -1 -12.5t-3 -12t-6.5 -9t-11.5 -3.5q-8 0 -16 2t-17 2q-2 0 -4.5 -1.5t-5 -3.5t-5.5 -3.5
t-6 -1.5q-8 0 -14 5.5t-11 14t-8 17.5t-3 15v3q0 3 2 3q3 0 4.5 -2t2.5 -4.5t2.5 -5t2.5 -3.5q4 3 6.5 7t4.5 8.5t3 9.5t1 9q0 5 -1.5 8.5t-3.5 6.5t-4.5 6.5t-3.5 7.5q-6 24 -8 47.5t-2 48.5q0 2 0.5 4.5t3.5 2.5q2 0 3 -1t2.5 -3t2 -3.5t0.5 -3.5q0 -7 -1 -14t-1 -14v-11
l4 -7v-5.5t0.5 -8t1 -8.5t0.5 -6v-3t0.5 -3.5t0.5 -3v-1.5l21 -41q3 -1 5.5 -4.5t4.5 -8t3.5 -9t1.5 -7.5v-4.5t-0.5 -7.5t-0.5 -7.5v-4.5h15l3 50h2q3 0 4 -2t1.5 -4.5t0.5 -4.5v-4v-7v-10v-11v-7t2 -2h3q4 0 6.5 3t4 7.5t1.5 9.5v8q0 10 -3.5 16t-8.5 10t-11 6t-11 5
t-8.5 7.5t-3.5 12.5t4.5 13t10.5 9t11.5 8.5t7.5 12.5v19zM44 185q0 13 0.5 21.5t4 13.5t11 6.5t21.5 1.5h2q1 0 3.5 -0.5l5 -1l5 -1l2.5 -0.5q3 -2 4.5 -6.5t1.5 -10v-10v-6.5v-4v-6v-5v-4l-0.5 -1.5l-1 -3t-1.5 -2.5t-3 0q-4 1 -5.5 5.5t-1.5 9.5h-12l-1 -3t-1 -5v-11v-11
q1 -2 5 -3t9 -3t9 -4t4 -7v-29q0 -2 -2 -2h-3h-2.5t-2.5 2v24q0 2 -1.5 3.5t-3.5 2.5t-4.5 1h-3.5h-3t-1 -4v-42q0 -3 2 -4t4.5 -2t4.5 -2t3 -3q1 -11 2 -16.5t2.5 -8t3 -2.5h3.5t4 -1t5 -5l-4 -4l-2 -0.5t-5 -0.5t-6 -0.5t-4 -0.5h-4h-7.5h-8.5h-7h-5h-8h-8h-5l-4 2t-2 4
t2.5 4t4.5 1h6t4.5 2t2 5t0.5 6t-0.5 5.5t0.5 3.5q1 3 3.5 5t6 3.5t5.5 3.5t2 5v39q0 1 -0.5 2t-1.5 2t-1.5 2t-1.5 1q-2 1 -4 0l-4 -2t-3 -3t-1 -4v-24q0 -3 -1 -3.5t-3 -0.5q-3 0 -5 4t-2 7q0 7 0.5 15t4.5 15q2 2 5.5 3t7.5 2t7 2.5t3 3.5v28l-0.5 0.5t-0.5 1.5h-6h-5
q0 -1 -1 -1.5l-1 -0.5v-16q-2 0 -5 0.5t-5 2.5v3.5v5.5q0 4 -0.5 6.5t-0.5 3.5zM57 200v-3.5v-3.5l3 -3h35q0 5 -0.5 12.5t-2.5 12.5q0 2 -1 2h-2h-2h-5.5t-7.5 -0.5t-6.5 -1t-3.5 -0.5q-3 0 -4.5 -1.5t-2 -3.5t-0.5 -4v-6zM129 65q0 -2 1.5 -5.5t4 -6.5t5.5 -5t6 -2
q7 0 11 3.5t6 8.5v3v2.5v3.5v2q0 2 -0.5 7t-2 10t-3.5 9t-5 4l-2 -2t-4.5 -6t-5.5 -8t-5 -8t-4 -6.5t-2 -3.5zM62 65v-1q0 -1 1 -5.5t1 -5.5q1 -1 3 -1.5t4 -0.5h3.5h2.5h3.5h2.5l2 2v17q0 2 -1.5 3t-4 1.5t-5 0.5h-3.5q-5 0 -7 -1.5t-2 -8.5zM50 12q0 1 0.5 2.5t1.5 1.5h44
l1.5 -1.5t1.5 -2.5h0.5t0.5 -1h-0.5h-0.5q0 -1 -1.5 -1.5l-1.5 -0.5h-42q-1 0 -2.5 1.5z" />
</svg>
