<?xml version="1.0" standalone="no"?>
<!DOCTYPE svg PUBLIC "-//W3C//DTD SVG 1.1//EN" "http://www.w3.org/Graphics/SVG/1.1/DTD/svg11.dtd" >
<svg xmlns="http://www.w3.org/2000/svg" xmlns:xlink="http://www.w3.org/1999/xlink" version="1.1" viewBox="-10 0 266 256">
   <path fill="currentColor"
d="M187 212l0.5 3t2 7.5t3 9.5t3 9t3.5 7t4 3t2.5 -1.5t0.5 -2.5q0 -5 -3 -10.5t-4 -10.5q-4 -20 -7.5 -40t-4.5 -40q-4 -5 -4.5 -11t-0.5 -12q0 -2 1.5 -3t3.5 -3t4 -5t2 -8q0 -6 -3 -10t-8 -7t-10.5 -4.5t-9.5 -2.5q-3 0 -6 -0.5t-6.5 -0.5t-6 -0.5t-2.5 0.5l-1 1
q2 4 6 5.5t9 2l10 1t9 2t7 4.5t3 8q0 3 -1 5t-5 2h-1v0l-1.5 -0.5t-1.5 -1.5l-1.5 -1t-3 -2.5t-3 -2.5t-2 -1.5t-3 -1t-5.5 -1.5t-6.5 -2t-5.5 -2q-1 0 -4.5 -0.5t-4.5 -0.5t-1.5 1t-0.5 2q0 2 5 3.5t11 3.5t11 4.5t5 6.5l-0.5 2t-1.5 2h-23q-1 0 -1.5 0.5l-0.5 0.5q0 3 2 4
t5 1h5.5h3.5h9q1 -1 2.5 -1.5t3.5 -0.5t4 4t3 9t1 10v7zM54 226v1.5t1 1.5h70q4 -1 8 -1q5 0 9.5 -0.5t8.5 -1.5t6 -3l-3 -4h-33v-20q0 -2 2 -4t4.5 -5t4 -6.5t1.5 -8.5q0 -10 -5.5 -17.5t-16.5 -7.5q-15 0 -23.5 8t-8.5 23q0 3 2.5 6t5 4.5l5 3l2.5 1.5v23l-1 2h-18t-18 2
q-2 0 -2.5 0.5t-0.5 2.5zM101 196h12l0.5 2.5t1.5 3.5v9v8q-2 2 -3.5 2h-2.5h-2.5t-2.5 -0.5l-2 -1t-1 -1.5v-22zM85 177q0 -5 2 -8.5t5.5 -6t8 -3.5t8.5 -1h4.5t4.5 1q2 0 4 2t2.5 4.5l1 5t0.5 4.5q0 6 -1.5 8.5t-4.5 4t-7 2t-9 0.5q-2 0 -5.5 -1t-6.5 -2.5t-5 -3.5t-2 -6z
M101 173v4.5t3 2.5h3t3.5 -1t2.5 -3t0 -4l-2.5 -2t-3.5 -2h-2q-2 0 -3 1.5t-1 3.5zM66 141q3 0 9 0.5t13 0.5t13.5 0.5t8.5 0.5h18h18q2 0 2.5 -1t0.5 -2v-1v-1h-3t-4 -0.5l-4 -1t-3 -0.5h-6h-10h-12h-9h-7h-8h-7h-4l-6 2v3zM52 69q0 7 2.5 12.5t6 10.5t8 9.5l8.5 8.5
q2 2 8.5 3.5t13.5 2.5t13.5 1.5t8.5 0.5q0 -4 -3 -5.5t-7 -2.5t-8.5 -1.5t-6.5 -1.5v-4q0 -6 0.5 -10.5t1.5 -10.5q1 -3 4 -3.5t7 -1.5t6.5 -4.5t2.5 -12.5v-4v-3.5t-1 -3t-2 -3.5q-2 -3 -4.5 -4t-5.5 -1h-5t-2 -1v-15q0 -2 3 -3t7.5 -1.5t8 -1.5t3.5 -4q0 -2 -3 -2h-4
q-5 0 -9 1.5t-8 3.5q-9 2 -17.5 6.5t-14 11t-9 14.5t-3.5 19zM65 80h23l1 0.5t1 1.5t0.5 2.5l0.5 1.5v4q0 3 -0.5 5.5t-1.5 4.5t-2 2q-4 0 -7.5 -2t-7 -5.5t-5.5 -7t-2 -7.5zM160 68q2 2 7 4.5t11.5 4.5t12.5 3t8 1v-3.5t-1.5 -2t-5.5 -1.5t-8 -3t-8 -3t-5 -2q-4 -1 -4.5 -2
t-0.5 -4t2 -5t5 -2.5t7 -1.5t7 -3t5 -5t2 -9q0 -4 -4 -6.5t-9.5 -3.5t-11 -1.5t-8.5 -0.5h-2q-2 0 -2 2q1 3 5.5 4t9 1.5t8.5 2t4 6.5q0 4 -4 5t-8.5 3t-8 5t-3.5 10v3.5v3.5zM63 63q0 -4 0.5 -7t4.5 -5q1 0 5 -0.5t8.5 -0.5t8.5 -0.5t6 -0.5h4h4.5t4.5 2v6q0 7 -3 10
t-7.5 4.5t-9.5 1.5h-11h-2q-2 0 -4 -0.5t-4 -0.5h-2q-2 -1 -2.5 -3.5t-0.5 -5.5zM130 68v1q4 0 7.5 -2.5t6 -7t4 -9t1.5 -7.5t-0.5 -8.5t-2 -11t-4.5 -9.5t-9 -4l-1.5 1t-1.5 2q1 0 2 1.5t2.5 3t2.5 3l1 1.5q0 1 1 2.5t1.5 3.5t1 3.5t1.5 1.5q0 10 -3 19t-10 16zM72 39
q0 -2 2.5 -4t5 -3.5l5 -3t3.5 -1.5h0.5h0.5h0.5h0.5q0 1 0.5 4t0.5 4v1v0v0l-1 2.5t-2 2.5h-14l-0.5 -0.5t-1.5 -0.5v-1z" />
</svg>
