<?xml version="1.0" standalone="no"?>
<!DOCTYPE svg PUBLIC "-//W3C//DTD SVG 1.1//EN" "http://www.w3.org/Graphics/SVG/1.1/DTD/svg11.dtd" >
<svg xmlns="http://www.w3.org/2000/svg" xmlns:xlink="http://www.w3.org/1999/xlink" version="1.1" viewBox="-10 0 266 256">
   <path fill="currentColor"
d="M166 245q0 3 2.5 4.5t4.5 1.5t3 -0.5t1 -3.5v-76q-2 -5 -2.5 -11t-0.5 -10q0 -1 2 -2.5t3 -1.5h26q2 0 2 -2.5v-2.5q0 -3 -0.5 -4t-4.5 -1h-25v-3.5t-0.5 -6t-0.5 -6v-3.5v-6v-10v-8.5v-6.5h31l1 -0.5t2 -1.5q0 -1 1.5 -2l1.5 -1q1 -2 -1 -3.5t-4 -1.5h-32
q-1 0 -1.5 -1.5t-0.5 -3v-1.5q0 -12 1.5 -23.5t1.5 -22.5q0 -3 -2 -7t-6 -4q-1 0 -2 1t-1 3v31v7t-0.5 8.5t-0.5 7.5v3l-2 3q-1 0 -4.5 0.5t-7 0.5t-7 0.5t-4.5 0.5q-2 0 -4.5 1.5t-2.5 3.5t1 2.5t4 0.5h27q1 0 1 1.5v2.5v3v2.5t-0.5 5t-0.5 4.5v3v1.5t0.5 3.5t0.5 4v2v4
v3.5t-0.5 4.5t-1 4.5t-1.5 2.5h-28l-1 1t-1.5 2.5t-0.5 3v2.5h33l1 3l0.5 3t0.5 6t0.5 6.5t0.5 5.5v25q0 13 -1 24.5t-1 23.5zM71 235q3 0 9 1t13 2t13 2t9 1l1 0.5t2.5 0.5t2.5 0.5t2 0.5h4q2 0 4.5 -0.5t2.5 -4.5q0 -3 -3 -4t-7 -1.5t-9 -0.5t-9 -0.5t-7 -1.5t-3 -4v-14
q0 -1 3.5 -1.5t7.5 -1.5t8 -3.5t5 -7.5v-2t0.5 -5t0.5 -6v-4v-3v-2v-5t-0.5 -6t-0.5 -6.5v-4.5q-1 -1 -1.5 -1h-2.5h-1.5t-1.5 1v39q0 3 -1 4.5t-2.5 2.5t-3.5 1.5t-3 0.5h-3t-2 -2l-3 -60q0 -1 -1 -1.5l-1 -0.5h-2.5h-2.5v34l2 4v40q0 4 -1 7t-4 3q-4 0 -8.5 -1.5
t-6.5 -5.5q0 -2 -0.5 -8.5t-1 -13.5l-1 -14t-0.5 -9v-3.5t-0.5 -5t-2 -4.5t-4.5 -2q-1 0 -1.5 1t-1 2.5t-0.5 3.5v3v5q0 3 0.5 10t1 15t1 15.5t0.5 9.5q1 4 4.5 7t6.5 4zM46 142q0 2 1 3t3 1q3 0 7 -1.5t7.5 -4t7 -5.5t6.5 -5q1 -2 4.5 -5t6 -5l2.5 -2h5l4 4t6.5 5.5t6 5
l3.5 3.5q2 1 4 2.5t3 1.5q3 0 3.5 -2t0.5 -5q0 -2 -1 -3.5t-3 -3t-4.5 -2.5t-3.5 -3q-1 0 -3 -1.5l-4 -3t-3.5 -3l-1.5 -1.5q-1 -1 -2.5 -2t-2.5 -2.5t-2 -2.5l-1 -1v-21l1 -4q3 0 7 -0.5t8 -1.5t7.5 -3t4.5 -6q1 -6 2 -11.5t1 -11.5q0 -2 -0.5 -4.5t-2.5 -4.5l-3 4
q-1 6 -2 11t-3 9.5t-6 6.5t-10 2t-6 -7v-3q0 -1 0.5 -4t1 -7t1 -7t0.5 -5q2 -2 7 -4t9.5 -4t8 -3.5t3.5 -4.5t-3 -5t-6 -2l-1 0.5l-1 0.5l-23 11q-1 1 -2 3t-1.5 4.5t-1 4.5t-0.5 3v6v9v8.5v5.5t-1 3t-2 2l-34 7q-3 0 -3.5 2.5t-0.5 5.5q10 0 19.5 -2t18.5 -4l1 -0.5l1 -0.5
q2 0 2.5 1t0.5 2.5v3.5v2v5v6t-0.5 5.5t-1.5 4.5q-2 4 -8 8.5t-13 8t-12.5 7t-5.5 6.5z" />
</svg>
