<?xml version="1.0" standalone="no"?>
<!DOCTYPE svg PUBLIC "-//W3C//DTD SVG 1.1//EN" "http://www.w3.org/Graphics/SVG/1.1/DTD/svg11.dtd" >
<svg xmlns="http://www.w3.org/2000/svg" xmlns:xlink="http://www.w3.org/1999/xlink" version="1.1" viewBox="-10 0 266 256">
   <path fill="currentColor"
d="M144 247q1 2 2.5 3t3.5 1h1q0 -1 1.5 -1.5l1.5 -0.5v-2v-3q0 -4 -0.5 -8.5t-0.5 -8.5q0 -12 1.5 -23t1.5 -22q0 -2 -0.5 -3.5l-1.5 -4.5q-8 -1 -14 -6.5t-10 -11.5h-1v0l-2 2v0q0 3 1 5t1 5v3q-6 9 -9 19t-3 21h5l11 -33q1 -2 3 -2h3q6 0 7.5 3t1.5 9v5t-2 4
q1 11 -0.5 21t-1.5 20v4.5v4.5zM173 171v13v16t0.5 16t1.5 13q0 1 1 5t2 7.5t3 6.5t5 3t3 -1.5v-3.5q0 -6 -2.5 -12.5t-3.5 -12.5q-1 -4 -1 -6.5t-0.5 -5t-0.5 -4.5v-7v-2q0 -2 0.5 -4t0.5 -3v-3t1.5 -3.5t2.5 -3.5l2 0.5t3 1.5l2.5 1t5.5 2t5.5 2t2.5 2h1q4 0 4 -5
q0 -3 -2.5 -4.5t-6 -2.5t-7 -1.5t-5.5 -1.5v-4v-4.5t2 -3.5l2 -4t1.5 -3.5t1 -3.5t1.5 -4q1 -1 2.5 -1.5t3 -0.5t3 -1t1.5 -3t-1.5 -3t-3.5 -1q-9 0 -19 1.5t-20 1.5v-1l2.5 -3t5.5 -6t6.5 -6t5.5 -5t5 -3t5 -3l4 -4t2 -6q0 -8 -2.5 -11.5t-6 -5t-6 -2t-2.5 -4.5
q0 -3 2.5 -4.5t6 -4t6 -6.5t2.5 -11q0 -3 -1.5 -5.5t-3.5 -4t-4.5 -3t-3.5 -4.5q-2 -1 -2.5 -4t-0.5 -6v-5v-5q-1 -1 -2 -3t-3 -2v0l-1.5 1.5l-0.5 0.5v22q0 3 -2 4.5t-5 3t-5 4.5t-2 8q0 7 2.5 11t10.5 7v5q0 5 -2 7.5t-5 4t-5 3.5t-2 5l0.5 0.5t0.5 1.5l8 16v1v2
q0 3 -2.5 6.5t-5.5 6t-7 4.5t-7 2v0l-9 -17v-2t1 -4t2.5 -4t2.5 -4.5t1 -5.5q0 -5 -1 -7.5t-2.5 -4t-4 -3.5t-5.5 -5v-1q0 -1 2 -3l5 -5t5.5 -6.5t2.5 -8.5q0 -4 -1.5 -6t-3 -3.5t-3.5 -3t-4 -4.5q0 -4 0.5 -8.5t0 -8t-3 -5.5t-6.5 -2v25q0 2 -2.5 3t-5 2.5t-5 2.5t-2.5 2v7
q0 7 2 10t4.5 4.5t4.5 2.5t2 5t-2 6t-4.5 4t-5 4.5t-3.5 6.5q1 1 1.5 2.5t1.5 3.5t2 3.5t2 2.5l0.5 0.5l1.5 1.5q4 2 7.5 4.5t6.5 5.5t4.5 7t1.5 10h-17q-2 0 -2 2v3h26q2 0 3.5 1.5t3 4l3 5t3.5 3.5q2 3 5.5 5t6.5 5zM48 156l3 46q1 9 4 13t8.5 6t11.5 1.5t13 -0.5h13
q2 0 2.5 -0.5t0.5 -2.5v-2t-1 -2h-20v-1.5t-0.5 -4t-0.5 -5v-3.5v-1q0 -2 3 -4t6.5 -4.5t6.5 -6t3 -7.5v-36l-1.5 -0.5l-1.5 -0.5h-0.5h-0.5v0v0q-2 1 -2.5 3.5t-0.5 4.5t0.5 4t0.5 3q0 2 -0.5 5.5l-1 7t-0.5 6v3.5t-1 2.5t-1.5 3t-1.5 3l-1 1.5h-6v-54q0 -2 -1.5 -4
t-4.5 -2q-2 0 -3 2t-1 3v0v1v7.5t0.5 12.5t1 15.5t1 15.5t1 12.5t0.5 6.5v4q0 2 -0.5 3.5t-1.5 2.5h-4q-4 0 -6.5 -2.5t-3.5 -6t-1.5 -7.5t-0.5 -7q0 -2 -0.5 -7.5t-1 -11.5t-0.5 -11.5v-7.5q0 -1 -1.5 -1.5l-1.5 -0.5h-1h-1l-0.5 0.5t-0.5 1.5q-1 0 -1.5 1.5zM163 150
q0 -1 0.5 -2.5l0.5 -1.5q6 -1 11.5 -1.5t11.5 -0.5h3q3 0 4 2l-2.5 5t-3.5 5.5t-4 4.5t-5 2q-2 0 -5 -1.5t-5.5 -3t-4 -4t-1.5 -4.5zM67 83h3t2 2v23l-1.5 1.5l-3.5 3.5l-3 3q-3 3 -6 5t-6 5t-5 6.5t-2 7.5q4 0 8 -3.5t8.5 -8t8.5 -9t9 -6.5q3 1 6 3.5t5.5 5.5t5.5 5.5
t7 2.5q2 0 2.5 -1t0.5 -3q0 -4 -4 -7t-9 -6t-9 -6.5t-4 -6.5v-19l1 -1l2 -2q6 -3 9 -6t5 -6t2.5 -8t0.5 -13h-5q0 5 -0.5 9t-1.5 7t-3.5 4.5t-7.5 1.5q0 -3 -0.5 -7t-0.5 -8q0 -5 1 -9t3 -6.5t4 -3.5t3 -2t2 -3t1 -6q-9 0 -14 5.5t-7 13.5t-2 17v15l-1 3q-1 0 -2.5 0.5
t-3.5 1t-3.5 0.5h-2.5l-2 0.5l-4 1t-3.5 1t-1.5 1.5q0 2 1.5 3t3.5 1q4 0 7.5 -1.5t6.5 -1.5zM120 100q0 -2 1.5 -3.5t3.5 -3t4.5 -2t4.5 -0.5q4 0 6.5 3.5t2.5 7.5q0 9 -9 9q-5 0 -9.5 -2.5t-4.5 -8.5zM172 99q0 -3 3.5 -6.5t6.5 -3.5q5 0 8.5 3.5t3.5 7.5q0 6 -4 8t-8 2
q-5 0 -7.5 -3t-2.5 -8zM120 59q0 -6 4 -7.5t9 -1.5h7l2 3l2 3v1q0 5 -2.5 9t-7.5 4q-6 0 -10 -2t-4 -9zM170 56q0 -5 3 -9t9 -4q5 0 8 4t3 9q0 4 -2.5 8t-7.5 4t-9 -3.5t-4 -8.5z" />
</svg>
