<?xml version="1.0" standalone="no"?>
<!DOCTYPE svg PUBLIC "-//W3C//DTD SVG 1.1//EN" "http://www.w3.org/Graphics/SVG/1.1/DTD/svg11.dtd" >
<svg xmlns="http://www.w3.org/2000/svg" xmlns:xlink="http://www.w3.org/1999/xlink" version="1.1" viewBox="-10 0 266 256">
   <path fill="currentColor"
d="M158 244q0 3 2 4.5t5 1.5q2 0 3 -1.5t2 -3.5t1.5 -4.5t0.5 -4.5q0 -14 -1 -29t-1 -29q-1 -8 -2 -15.5t-1 -15.5v-5v-4.5t0.5 -7.5t0.5 -7.5v-4.5q1 -2 4.5 -3l3.5 -1h4.5t6.5 -0.5l6 -1t4 -0.5q2 0 2 -1.5v-2.5q0 -2 -0.5 -3t-3.5 -1q-6 0 -11 0.5t-11 0.5q-1 0 -2.5 0.5
t-2.5 -1.5v-7q0 -7 0.5 -13.5t1 -12.5t0.5 -12.5v-14.5q2 -2 2.5 -5t0.5 -6t-0.5 -6t0.5 -6l1 -2.5t1 -3.5l-2.5 -2.5t-4 -2t-4.5 -0.5h-3q0 7 -0.5 15.5t-1.5 16.5v12q0 8 -0.5 17.5t-0.5 17.5v12q0 33 1.5 66.5t1.5 66.5q0 3 -1.5 5t-1.5 5zM57 211q1 5 4.5 7.5t7.5 3.5
t8 1t8 1q9 1 18.5 4t18.5 6h0.5h0.5q3 0 5 -1.5t2 -4.5t-2 -4.5t-5 -2t-7 -0.5h-7.5t-6 -1t-3.5 -4q-2 -5 -2 -9.5v-10.5v-2v-4q0 -3 0.5 -4.5t0.5 -2.5q1 -2 3 -3.5t5 -2l6 -1t5 -0.5q2 -1 4 -2.5t3.5 -3.5l3 -4t2.5 -2q-1 -13 0.5 -25.5t1.5 -24.5v-4q0 -4 -0.5 -8
t-0.5 -7v-5t-2 -3l-3 -3l-1.5 0.5t-1.5 1.5q-1 6 -1.5 10t-0.5 10q0 3 1 6t1 7v1v1q0 2 -0.5 7.5t-1 11.5t-1 11t-0.5 7q-3 4 -7 7.5t-9 3.5q-3 0 -4.5 -2t-2.5 -4.5t-1.5 -5.5t-0.5 -6q0 -9 2 -17.5t2 -17.5v-3v-2l-1 -2v-32q0 -2 3 -3t7.5 -2t8.5 -3t5 -6l4 -25
q1 -2 -1 -5t-4.5 -6.5t-5.5 -5.5t-5 -2h-29l-6 6t-5.5 6t-3.5 7t-1 10q0 10 3.5 15t8 7.5t8 3t3.5 2.5v135l-3 4h-13q-1 0 -2 -2t-2 -3q0 -2 -1 -5t-2 -4v-1q0 -22 2 -44.5t2 -44.5v-3t-0.5 -4t-0.5 -3v-3q0 -2 -1.5 -3.5t-3.5 -1.5h-1q-2 2 -2.5 5.5t-0.5 7.5v6.5v5.5
l-0.5 3.5t-0.5 7t-0.5 6.5t-0.5 4v36v36zM73 48q0 -6 2.5 -10t6.5 -6t9 -3t10 -1h3t4 0.5t4 1.5t2 3v23q0 3 -1.5 4.5t-4 2.5t-4.5 1.5t-4 0.5q-4 0 -9 -0.5t-9 -2t-6.5 -5t-2.5 -9.5z" />
</svg>
