<?xml version="1.0" standalone="no"?>
<!DOCTYPE svg PUBLIC "-//W3C//DTD SVG 1.1//EN" "http://www.w3.org/Graphics/SVG/1.1/DTD/svg11.dtd" >
<svg xmlns="http://www.w3.org/2000/svg" xmlns:xlink="http://www.w3.org/1999/xlink" version="1.1" viewBox="-10 0 266 256">
   <path fill="currentColor"
d="M50 178q3 11 3.5 20t1 16.5t1.5 13t5 9t11.5 5.5t21.5 2h5h5t3 -2.5t2 -3.5v-1v-1l-1.5 -1.5l-1.5 -1.5h-21v-36l2 -4q6 -1 11.5 -6t5.5 -13q0 -2 0.5 -7t0.5 -11.5v-14t0.5 -14t0.5 -11.5v-7v-4v-6v-9t-2 -10h-1h-1q-2 0 -3 0.5t-1 3.5v79q0 3 -0.5 6t-2 5.5t-3.5 4
t-4 1.5h-2.5t-1.5 -2v-103l0.5 -1l0.5 -1q5 -3 8 -5.5t4.5 -6t2 -8t0.5 -11.5q0 -14 -5 -21t-17 -7q-3 0 -6.5 0.5t-7 2t-6 4t-3.5 7.5v11v11q0 7 3.5 12t7.5 8t7 5t3 3v19v19v13t-0.5 20t-0.5 23t-0.5 23t-0.5 19.5v12.5l-1.5 1.5t-1.5 0.5q-2 0 -3.5 -1.5t-3 -4t-2.5 -5
t-1 -4.5t-0.5 -6t-0.5 -8.5v-8.5v-5q0 -4 -0.5 -11.5t-0.5 -16.5v-20v-20q0 -10 0.5 -17.5t0.5 -10.5l-1.5 -1.5l-0.5 -0.5q-1 -1 -2 -1.5l-1 -0.5q-2 1 -3.5 4.5t-1.5 4.5v83zM120 186q1 27 11.5 39t33.5 12q8 0 16 -2.5t14.5 -8t11 -14t4.5 -19.5q1 -7 0.5 -11.5
t1.5 -10.5v-8.5t0.5 -12t0.5 -12.5v-8v-10q0 -7 -0.5 -13.5t-0.5 -11.5v-5q0 -3 -1 -11.5l-2 -17l-2 -17t-1 -11.5q-1 -6 -6.5 -10t-9.5 -4q-1 0 -3 -0.5t-4 -0.5h-4h-2q-21 0 -33 3t-18 11t-7 23t-1 39v7v9.5t0.5 15t0.5 17.5v17.5v15.5v10zM127 75q2 -10 2 -17.5t1.5 -13
t5.5 -9t13 -5.5q3 -1 5.5 -1.5t6 -1.5t6.5 -1h5q10 0 17 3t11 14q0 3 1 11.5t2 17.5t1.5 17.5t0.5 11.5v2q0 4 -0.5 8.5t-0.5 8.5t0.5 7t0.5 7v1q-1 16 -1.5 32t-1.5 32q-1 8 -5.5 13.5t-11 8.5t-13.5 3.5t-13 0.5q-8 0 -14.5 -4t-10 -11t-5.5 -15.5t-2 -18.5v-101zM161 127
h1q1 1 1.5 2.5l0.5 1.5v75v2.5t0.5 3l1 3t2.5 1.5v0q1 -1 2.5 -2t1.5 -2v-85l4 -1q1 0 1.5 0.5l1.5 1.5t2 2.5t2 2.5t1.5 3.5t1.5 5.5t1.5 5.5t0.5 4.5v53l0.5 0.5l0.5 0.5h1h1l3 -7v-55q0 -8 -2 -13t-4.5 -7.5t-5.5 -3.5t-5.5 -2.5t-4.5 -4t-2 -7.5q0 -4 2 -5.5t4.5 -3
t5.5 -3t5.5 -5.5t4.5 -10.5t2 -17.5q0 -4 -0.5 -8.5t-4.5 -5.5l-2 3v27q0 3 -2 5.5t-4.5 3.5t-5 1h-4.5v-40q0 -1 -1 -2.5t-2 -1.5q0 -1 -1.5 -2.5l-1.5 -1.5v0q-2 0 -7 2.5t-10 5.5t-9 6t-4 5t2 2h3q3 0 5 -1.5t4.5 -3.5t5 -3.5t5.5 -1.5t3.5 3t0.5 6v3q0 1 -0.5 4.5
t-0.5 8t-0.5 8t-0.5 5.5t-1 2h-2q-5 0 -7 -3.5t-3 -8t-2.5 -8t-5.5 -3.5q0 15 5.5 23t17.5 13v3v3q0 6 -3 8.5t-6.5 5.5t-6.5 7.5t-4 13.5q0 2 -0.5 8.5t-1 14.5t-1 15.5t-0.5 10.5v4q0 3 0.5 4.5t2.5 3.5l4 -4v-11t1 -17.5t1.5 -17.5t0.5 -11q0 -2 0.5 -5t2 -5.5t3 -4.5
t4.5 -2zM63 37q0 -4 2 -6.5t4.5 -4t6 -2t6.5 -0.5q4 0 6.5 2t3.5 5.5t1 8v8.5q0 2 -0.5 4.5t-2 5t-3 4.5t-3.5 2q-12 0 -16.5 -6.5t-4.5 -20.5z" />
</svg>
