<?xml version="1.0" standalone="no"?>
<!DOCTYPE svg PUBLIC "-//W3C//DTD SVG 1.1//EN" "http://www.w3.org/Graphics/SVG/1.1/DTD/svg11.dtd" >
<svg xmlns="http://www.w3.org/2000/svg" xmlns:xlink="http://www.w3.org/1999/xlink" version="1.1" viewBox="-10 0 266 256">
   <path fill="currentColor"
d="M112 246q-4 2 -4 6h11t16.5 -0.5t16.5 -0.5h11t10.5 -1t14.5 -3t12.5 -6t5.5 -11v-79q0 -2 -0.5 -3t-2.5 -1q-1 0 -3 1t-2 3v76q0 5 -3.5 8t-8.5 4.5t-10 2t-8 0.5q-3 1 -11 1.5t-17 1t-17 1t-11 0.5zM46 213l0.5 2t0.5 3l0.5 1.5t0.5 3t0.5 2.5t0.5 2q2 3 6.5 4.5t10 2
t10.5 0.5h7q4 0 6 -0.5t7 -1.5q0 -1 0.5 -2t0.5 -2h0.5t0.5 -1h-1q0 -1 -2 -2t-3 -2v0q-3 0 -5 1t-4 1q-3 0 -4.5 -2t-2 -5t-0.5 -6v-6q0 -1 0.5 -3.5t0.5 -4.5q1 -2 3.5 -4t4.5 -4t4.5 -4t4.5 -5q2 -2 3 -11t1 -19.5v-20v-14.5q0 -1 -0.5 -3.5t-0.5 -5.5v-5v-4
q0 -2 -1 -4.5t-4 -2.5l-1 1t-2 1v42v10t-0.5 12t-0.5 10.5v4.5l-7 11h-3q-1 0 -1.5 -3.5t-1 -7.5t-0.5 -8v-5q0 -10 0.5 -20t1.5 -20t1.5 -20t-0.5 -20l2 -2l1 -0.5t2 -1.5t2.5 -1.5t2.5 -1.5q4 -3 6 -7.5t3 -10.5t1 -11.5v-10.5q0 -3 -2 -6t-4 -4.5t-5 -2.5t-6 -1
q-7 0 -12.5 1t-9.5 4t-6.5 8t-2.5 13v10t2 9q2 3 4.5 5.5t5 4t4.5 2l2 0.5v146q0 2 -2 2h-3q-4 0 -6.5 -3.5t-2.5 -8.5v-113q0 -1 -3 -3.5t-5 -2.5q0 17 -1 33t-1 32v1q0 3 0.5 11t0.5 16.5t0.5 16.5t0.5 11zM115 213v4.5t1 7t3 6.5t4 3h16q2 0 3.5 -2t2.5 -4t1.5 -4.5
t0.5 -4.5q0 -5 -1.5 -8.5t-3.5 -5.5l-3.5 -3.5t-1.5 -5.5q0 -3 1.5 -3.5t3.5 -2t3.5 -5t1.5 -10.5q0 -6 -2 -9t-4.5 -5.5t-4 -5.5t-1.5 -9h34v15q-6 3 -7.5 7t-1.5 11q0 4 1 7t2.5 5l3 4t1.5 4q0 4 -1.5 5.5t-3.5 3t-3.5 4t-1.5 6.5t2 7t4.5 4.5t6 2t6.5 0.5q5 0 8.5 -4.5
t3.5 -9.5t-2 -7.5t-4.5 -4t-4.5 -2.5t-2 -2q0 -4 2 -6.5t4.5 -5.5t4.5 -6.5t2 -8.5v-3.5v-2.5q-2 -3 -4 -5t-4 -3.5t-3 -4t-1 -6.5q0 -5 3.5 -7t7.5 -3t8 -1h7q7 -7 8 -16v-13.5v-20.5v-21v-13q0 -1 0.5 -3.5t0.5 -5t0.5 -5l0.5 -2.5v-1v-1l-3 -4.5t-4 -1.5q-1 0 -1.5 0.5
l-1.5 1.5v9v13v16v16v13v9q0 8 -1 13t-3.5 7.5t-7 3.5t-12.5 2q-4 1 -13 1.5t-19 1.5t-19.5 1.5t-12.5 1.5q-1 0 -1.5 0.5l-0.5 0.5v0.5v0.5v0.5v0.5q1 0 1.5 1l0.5 1h12q0 7 -0.5 10.5t-1.5 4.5t-2 1h-2t-1.5 1t-1.5 4v2t-0.5 4.5l-1 5t-0.5 4.5v1q0 3 2.5 4.5t4.5 3t4.5 3
t2.5 5.5l-0.5 1l-0.5 1l-13 5l-0.5 2t-0.5 4v0zM121 215v-1q0 -1 1 -2l1 -1h16l0.5 2.5t1.5 4.5v1q0 3 -1.5 4.5t-3 2t-3.5 1t-4 0.5q-4 0 -6 -4t-2 -8zM166 222q0 -6 1 -8.5t7 -2.5q3 0 5 1.5t2 5.5t-3 5.5t-6 1.5q-2 0 -4 -0.5t-2 -2.5zM166 184v-2.5v-3.5v-3.5v-2.5
q0 -1 0.5 -2t1.5 -1h11q2 0 2 2v3q0 3 -1 7t-3 7h-3q-2 0 -4.5 -0.5t-3.5 -3.5zM123 178q0 -5 1 -8.5t6 -3.5q6 0 8.5 3.5t2.5 8.5q0 6 -3 7t-8 1q-4 0 -5.5 -2t-1.5 -6zM113 105q0 8 4 13t12 5q9 0 13.5 -4.5t4.5 -14.5q0 -5 -2 -8t-4.5 -4.5t-4.5 -3t-2 -4.5q0 -6 2 -8
t4.5 -3.5t4.5 -3t2 -4.5v-21q0 -3 -2.5 -6t-4.5 -5v-15q0 -1 -2.5 -3t-3.5 -3q-1 0 -2.5 0.5t-1.5 1.5v23q-8 -1 -12 5t-4 14q0 4 2 6.5t4.5 5t4 5t1.5 6.5q0 7 -2 9t-4.5 3.5t-4.5 4t-2 9.5zM162 111q3 3 7 6.5t8 3.5h2q4 -1 6.5 -2.5t4 -3.5t2 -5t0.5 -7q0 -7 -2 -10
t-4 -4t-3.5 -1.5t-1.5 -1.5v-12q0 -2 2 -3.5t4.5 -3.5t5 -5.5t2.5 -10.5q0 -3 -1 -5t-3 -3.5t-3.5 -3.5t-1.5 -4q-1 -1 -1 -3.5t-0.5 -5t-0.5 -5v-3.5t-1.5 -2.5l-1.5 -1.5q-1 0 -2 0.5t-2 1.5l-1 2v17q0 1 -2 3t-4.5 4t-4.5 5.5t-2 8.5q0 4 1.5 6.5l3 5t3.5 5t2 6.5
q0 5 -2 8t-4 5.5t-4 5.5t-2 8q0 1 0.5 2.5t0.5 2.5zM120 106q0 -6 3.5 -8.5t8.5 -2.5t6 3.5t1 7.5v3.5v2.5q-1 3 -4 3.5t-6 0.5q-4 0 -6.5 -2.5t-2.5 -7.5zM169 106q0 -7 3.5 -9t9.5 -2q3 0 4 3t1 6q0 4 -3.5 7t-6.5 3q-4 0 -6 -2.5t-2 -5.5zM59 47v-4v-4q1 -2 3 -5.5
t5 -3.5h22v23q0 4 -2 6t-5 3.5t-6.5 2t-5.5 0.5q-4 0 -6.5 -1t-3.5 -3.5t-1 -5.5v-8zM168 55q0 -6 4.5 -8.5t9.5 -2.5v0l2.5 1t2.5 2v13q0 1 -1.5 2t-3.5 2t-3.5 1h-2.5q-4 0 -6 -3t-2 -7zM121 57q0 -7 4 -10t11 -3q4 0 5 3.5t1 7.5v2v2.5t-1 2.5t-2 1h-15q-2 0 -2.5 -2
t-0.5 -4z" />
</svg>
