<?xml version="1.0" standalone="no"?>
<!DOCTYPE svg PUBLIC "-//W3C//DTD SVG 1.1//EN" "http://www.w3.org/Graphics/SVG/1.1/DTD/svg11.dtd" >
<svg xmlns="http://www.w3.org/2000/svg" xmlns:xlink="http://www.w3.org/1999/xlink" version="1.1" viewBox="-10 0 266 256">
   <path fill="currentColor"
d="M133 246q0 1 1.5 3t2.5 2q4 0 4.5 -2.5t0.5 -4.5q0 -11 -2 -21t-3 -20q0 -8 2 -13t5 -9.5t6.5 -9t5.5 -10.5q2 -4 3 -10t1 -12t-0.5 -11.5t-0.5 -10.5v-25q-2 -3 -4.5 -6t-6.5 -3q-6 0 -10.5 4t-4.5 10q0 2 -0.5 6.5t-1 9.5t-1 9.5t-0.5 5.5t-0.5 4.5t-0.5 4.5
q0 2 0.5 5.5t0.5 4.5l0.5 0.5l0.5 0.5h1q2 0 3 -2t1 -4.5t1 -4.5t3 -2h1l11 12v0v1v1v1q0 1 -1 4t-1 4q-1 1 -3 3.5t-4 6t-4 6.5t-3 4t-2 3l-2 4t-1.5 4l-0.5 2v28q0 1 0.5 3l0.5 2q0 2 0.5 5t0.5 6t0.5 6.5t0.5 4.5zM164 185q0 3 1.5 9t4.5 13.5t6.5 15t7 14t7 10.5t6.5 4
t5 -1.5t2 -4.5q0 -5 -3 -7.5t-5 -4.5q-4 -5 -8 -10.5t-7 -12t-5 -13t-2 -12.5q0 -4 2.5 -8t6 -8t8.5 -8t8.5 -9t6 -11.5t2.5 -13.5q0 -9 -3.5 -16.5t-9 -13t-13 -8t-15.5 -2.5q0 4 3.5 6.5t6.5 3.5v64q0 4 -2 6.5t-4.5 5.5t-4.5 6t-2 6zM75 236q-1 2 0.5 2.5t3.5 0.5
t3.5 -4.5t2.5 -10.5t1 -11.5v-6.5q0 -8 -1 -15t-1 -15v-3v-5v-5v-3q1 -7 5 -8t8 -1h8q3 0 3 -3v-3t-2 -2h-19l-3 -3v-12l0.5 -0.5t1.5 -0.5q5 -3 9.5 -5.5t7.5 -6t4.5 -8.5t1.5 -12q0 -10 -3.5 -16t-7.5 -10t-7.5 -6.5t-3.5 -5.5q0 -5 2 -7t5 -2.5t6 -0.5h6t4.5 -0.5
t1.5 -3.5v-2t-1 -2h-21v-22q0 -2 -1.5 -3.5t-3.5 -1.5t-3.5 0.5t-1.5 3.5v21l-4 3h-16l-3 1.5t-1 2.5q0 1 0.5 3.5t2.5 2.5h19l0.5 1l0.5 1v5q0 6 -4 8.5t-9 4.5t-9 5.5t-4 9.5v25l0.5 1.5t0.5 2.5q3 3 7 5.5t7.5 4t5.5 4t2 5.5v3t-0.5 3.5t-1.5 2.5t-3 1h-23q-1 0 -1.5 1.5
t-0.5 2.5q0 2 1.5 2.5l3 1t3.5 0.5h3t3.5 0.5t5.5 0.5t5.5 -0.5t3.5 -0.5l1 4l0.5 4t0.5 6q0 13 -1 26.5t-1 26.5v18zM185 142q0 -8 1 -16t0 -16l1.5 -1.5t1.5 -0.5q5 0 7.5 4.5t2.5 8.5q0 2 -0.5 7t-2 10.5t-3.5 9.5t-4 4t-3 -1.5t-1 -3v-3.5v-2zM139 113v-5t1 -6.5t2.5 -6
t3.5 -2.5t3 1.5t1.5 3.5l1 4t0.5 3v5v8v7v5q-7 0 -10 -5.5t-3 -11.5zM62 103q0 -3 1.5 -4t3.5 -2t4 -1h5v19l-0.5 0.5t-0.5 1.5h-1q-6 0 -9 -4t-3 -10zM86 107q0 -6 1 -8t6 -2t6 0.5t1 4.5q0 2 -1 4.5t-2.5 4t-3.5 3t-4 1.5t-2.5 -1t-0.5 -2.5v-2.5v-2zM62 85v-1
q2 -3 5.5 -6.5t7.5 -3.5q1 0 2 1.5t1.5 3.5t0.5 4v3v1l-0.5 1l-0.5 1h-15q-1 0 -1 -1.5v-2.5zM86 82q0 -3 1 -6t4 -3t6 3.5t3 7.5q0 3 -3 4t-5 1h-2.5h-2.5q-1 -2 -1 -3.5v-3.5zM120 79q0 3 0.5 4t2.5 1t3.5 -3t3 -7t3.5 -8.5t6.5 -8.5t10.5 -7t16 -3q9 0 14.5 1.5t8.5 4.5
t5 8.5t5 13.5q1 1 2 1.5t3 0.5q3 0 4.5 -2t1.5 -5q0 -4 -2 -7.5t-4 -7.5q-5 -8 -10 -11t-9.5 -4t-8 -2t-6.5 -4v-5t-0.5 -6t-2 -5t-4.5 -2h-2.5t-1.5 1v18q0 1 -3.5 2.5t-8 3t-8.5 3t-5 1.5q-2 3 -4.5 7.5t-4.5 9t-3.5 9.5t-1.5 8z" />
</svg>
