<?xml version="1.0" standalone="no"?>
<!DOCTYPE svg PUBLIC "-//W3C//DTD SVG 1.1//EN" "http://www.w3.org/Graphics/SVG/1.1/DTD/svg11.dtd" >
<svg xmlns="http://www.w3.org/2000/svg" xmlns:xlink="http://www.w3.org/1999/xlink" version="1.1" viewBox="-10 0 266 256">
   <path fill="currentColor"
d="M169 206l3 42q0 1 1 1.5l1 0.5h1q2 0 4.5 -2.5t4.5 -3.5v-6q0 -6 -1 -15t-2.5 -18.5t-4.5 -18t-8 -13.5l-4 -2t-3.5 -1.5t-2 -2t-0.5 -4.5q0 -2 3.5 -6t8.5 -9t8.5 -10t3.5 -10q0 -3 -3 -4t-4 -1q-2 0 -4 3t-4 7t-4 8.5t-4.5 8.5t-5.5 6.5t-7 2.5h-38q-4 0 -7 -2.5
t-5 -6.5t-3.5 -9t-3 -9t-4 -7t-5.5 -3h-1.5t-1.5 1v12l16 29v7q-6 7 -11.5 15.5t-7.5 18.5q0 2 -1.5 7t-2.5 10.5l-2 11t-2 7.5v0q0 2 1.5 4t3.5 2q3 0 5.5 -5t4.5 -12t4 -16t4.5 -17.5t5 -15t6.5 -9.5q3 -2 7 -2.5t8.5 -1t9 0t7.5 0.5q13 0 20.5 4.5t10.5 17.5q1 0 1 2
t1 4.5t1.5 5t1.5 3.5zM158 120q1 2 1.5 2h1.5q3 0 3.5 -2t0.5 -5v-6q0 -2 1 -4q1 0 3.5 -0.5t5 -0.5t4.5 -0.5t3 -0.5h13q3 0 4.5 -0.5t1.5 -3.5q0 -2 -2 -2.5t-4 -0.5q-5 0 -9 0.5t-8 0.5h-7q-3 -1 -3.5 -2t-0.5 -3t0.5 -3.5t1.5 -3.5q4 -1 9 -1t9 -1t6.5 -3.5t2.5 -7.5
q0 -4 -1 -6.5t-5 -4.5q-2 3 -2.5 5.5l-1 5t-3 4t-8.5 1.5h-3h-3q-1 -2 -1.5 -3.5t-0.5 -3.5q0 -5 4 -6t8 -1l3 -19q0 -1 4 -1.5t9 -0.5t9 -0.5t4 -4.5t-4 -4q-5 0 -9.5 1.5t-9.5 1.5q-6 1 -13 1.5t-14.5 1l-15 1t-14.5 0.5q-2 -1 -2.5 0t-0.5 2v2.5t1 1.5h17q0 9 2.5 12.5
t6 5t6 2.5t2.5 6v1.5t-0.5 3t-1 2.5t-1.5 1q-2 0 -5 -0.5l-6 -1t-5.5 -1t-3.5 -2.5l-1 -1.5t-1.5 -4t-1.5 -4t-2 -1.5l-1 1t-2 1v2v2t0.5 3.5l1 5t2 4.5t2.5 2h23l0.5 1t0.5 2l1 1t1 2v1q0 4 -3 5.5t-7 2t-8.5 0t-8.5 -0.5t-7 1t-3 4q0 2 2 3t4 1q6 0 11.5 -1.5t12.5 -1.5
h1.5h2.5l0.5 1t0.5 2v2.5v3.5v4v2zM53 77v10t1 11t3.5 8.5t8.5 4.5q2 0 5.5 0.5t7.5 1t7 1t4 0.5h1q2 0 3.5 0.5t2.5 0.5h2q2 0 5.5 -0.5t4.5 -0.5t1.5 -1t0.5 -2q0 -2 -1.5 -3t-3.5 -3h-1h-1l-2 0.5t-4 0.5h-4h-2q-1 0 -1.5 0.5t-1.5 0.5q-9 0 -14.5 -3t-8 -7.5t-3 -11
t-0.5 -14.5q0 -9 2.5 -14t11.5 -7q2 0 6 -0.5t8.5 -1t8.5 -1t6 -0.5q2 -1 4 -3t3.5 -4.5t2 -5t1.5 -4.5q1 -7 -4 -10.5t-12.5 -5t-14.5 -1.5h-11h-14q-1 0 -2.5 1t-1.5 4q0 2 1 4t3 2h19q2 0 2 2.5v2.5q0 6 -1.5 9t-4.5 4.5t-6 2t-6.5 1.5t-6 3.5t-3.5 8.5v4t-0.5 5.5
t-0.5 5.5v4zM76 76q0 10 4 13.5t14 3.5q3 0 6.5 -1.5t5.5 -3.5q1 -6 2 -10.5t1 -10.5v-2v-2t-0.5 -2.5t-2.5 -1.5t-2.5 2t-1.5 3.5t-3 3t-7 1.5h-2l-1.5 -1t-3.5 -2t-3 -2t-2 -1v0q-2 0 -3 1.5t-1 4v4.5v3zM83 80q0 -2 1.5 -3t3.5 -1.5t4 -0.5h3q3 0 4 1t1 4q0 4 -1 4.5
t-5 0.5h-3t-3.5 -0.5t-3 -1.5t-1.5 -3zM150 50q0 -2 1.5 -3t3.5 -1q1 -1 3 -1t4 -0.5t3.5 -0.5h2.5q2 0 3.5 2t1.5 4q0 10 -11 10q-5 0 -8.5 -2t-3.5 -8zM98 22q4 0 6 3t2 8q0 1 -0.5 4t-2.5 3h-15v-15q0 -1 1.5 -1.5l3 -1t3 -0.5h2.5zM139 22q0 1 0.5 2t2.5 1v0q1 0 5 -0.5
l8 -1l8 -1t5 -0.5t4.5 0.5t7.5 0t7 -2t3 -4.5q0 -2 -2 -3.5t-4 -1.5t-6.5 0.5t-6.5 3.5h-27q-2 0 -3.5 2.5t-1.5 4.5z" />
</svg>
