<?xml version="1.0" standalone="no"?>
<!DOCTYPE svg PUBLIC "-//W3C//DTD SVG 1.1//EN" "http://www.w3.org/Graphics/SVG/1.1/DTD/svg11.dtd" >
<svg xmlns="http://www.w3.org/2000/svg" xmlns:xlink="http://www.w3.org/1999/xlink" version="1.1" viewBox="-10 0 266 256">
   <path fill="currentColor"
d="M163 246q1 3 2 4t4 1t5 -2.5t2 -5.5q0 -16 -2.5 -32t-2.5 -32v-4.5v-4.5l0.5 -0.5t1.5 -0.5q0 -1 1 -1t2.5 -0.5t2.5 -0.5h2q2 -1 7 -1.5t11 -1t11 -1t7 -0.5l1 -1t1 -2l-2 -2t-2 -1h-8q-8 0 -15.5 0.5t-15.5 0.5q-5 0 -6 -0.5t-1 -6.5q0 -4 2.5 -6.5t5.5 -5t6 -6.5
t3 -14q0 -4 -3.5 -7t-7 -5t-6.5 -4t-3 -5t3 -5l6 -4t6 -6t3 -13q0 -7 -3 -10.5t-7.5 -5.5t-7.5 -3.5t-3 -5.5v-1q0 -1 0.5 -4t1.5 -3l2 -0.5l2 -0.5q9 0 15.5 4t14.5 8h2h2q2 0 4.5 -0.5t2.5 -3.5v0v0q-4 -4 -9 -6.5t-10.5 -4l-11 -3t-10.5 -4.5q-2 -1 -3 -3t-2 -5t-2 -5
t-4 -2q-2 0 -3 1.5t-1 4t-0.5 4t-0.5 2.5q-2 4 -9 6.5t-14.5 4.5t-13.5 3.5t-6 5.5v0l1 1l1 1l2 2v0h1q3 -1 8 -3t10.5 -4t10.5 -3.5t8 -1.5h1l1 0.5t1 1.5v13q-5 4 -10 9.5t-5 13.5q0 7 4 12.5t11 8.5v2.5v1.5q0 4 -2 6.5t-4.5 4.5t-5 5.5t-2.5 9.5q0 9 3 12.5t6.5 5.5
t6.5 3.5t3 5.5q0 5 -2 7t-7 2q-1 0 -5.5 0.5t-9.5 0.5t-9.5 0.5t-6.5 0.5h-1.5t-3 1t-2.5 1.5t-1 1.5v0v1l0.5 1t1.5 1h44l1 1l1 5.5t1.5 13t1 15.5t0.5 13v6v9v8.5v5.5zM58 212q12 2 26.5 3.5t26.5 1.5q3 0 4.5 -0.5t1.5 -3.5t-1.5 -4t-4.5 -2h-6t-8.5 -0.5t-8.5 -1
t-5 -0.5t-2 -1t-1.5 -2.5t-0.5 -2.5v-2q1 -3 4 -5t6.5 -4t6.5 -4t3 -7v-34l-0.5 -1t-1.5 -1v0q-2 0 -3 2t-2 3v5.5t-0.5 7.5t-0.5 7.5v5.5q-1 3 -2.5 6t-4.5 4l-1 -0.5t-2 -1.5l-1 -0.5l-1 -0.5v-6.5t-0.5 -9t-0.5 -9v-6.5v-2q0 -9 2 -12.5t4.5 -6t4.5 -5.5t2 -11v-4v-5
l-1.5 -1.5t-2.5 -1.5q-2 -1 -3 2t-2 7t-3.5 8.5t-7.5 6.5q-1 0 -5.5 0.5t-8.5 1l-8 1t-6 0.5q-3 1 -4.5 2t-1.5 5h29l1 0.5t1 1.5l0.5 1.5l0.5 1.5v63q0 1 -1.5 1h-2.5q-3 0 -5 -2t-3 -5t-1.5 -6t-0.5 -5q-1 -2 -1 -6.5t-1 -10t-1.5 -10t-0.5 -6.5l-1 -1h-1h-1l-1.5 1.5
l-1.5 1.5v2v4v3v2v14q0 6 1 12t3.5 12t8.5 10zM150 123q0 -6 2 -11t10 -5q6 0 11 5t5 12q0 2 -1 5t-2.5 5.5t-4 4t-5.5 1.5q-9 0 -12 -4.5t-3 -12.5zM107 129q0 2 1.5 2h2.5h3q2 -1 5.5 -2t6.5 -3t5.5 -4.5t2.5 -6.5q-2 0 -6.5 1.5t-9 3.5t-8 4.5t-3.5 4.5zM189 110
q0 3 2.5 6.5t6 6.5t7.5 5t7 2q2 0 4.5 -1.5t2.5 -3.5q-1 -4 -4.5 -6.5t-8 -4.5t-9 -3t-8.5 -1zM38 95v1l3 3h7h7l2 -1l2 -1q10 -1 16 -1.5t9.5 -2.5t5 -7.5t1.5 -16.5q0 -2 -1.5 -3t-3.5 -1t-3.5 1.5t-1.5 3.5q0 1 -0.5 3.5t-1 4.5t-1 4.5t-0.5 3.5l-2 1q-2 0 -5.5 0.5
t-7.5 1.5t-8 1t-5 1h-2t-4.5 1t-4 1.5t-1.5 1.5zM194 79q0 2 2 4.5t5 4t6 2.5t5 1t3.5 -0.5t1.5 -2.5t-2.5 -4t-5.5 -4t-6 -3.5t-5 -1.5t-3 1t-1 3zM125 77q-2 0 -6 0.5t-7.5 2t-6 4t-2.5 5.5q2 0 6.5 -0.5t9 -2t8 -3t3.5 -4.5q0 -2 -2 -2h-3zM148 74q0 -2 1 -5t2.5 -5.5
t4 -4.5t4.5 -2h1q1 0 3 1l4 2l4 2t2 2q2 2 2 4v4q0 8 -5.5 12t-11.5 4q-1 0 -3 -0.5t-3 -0.5q-3 -1 -4 -5.5t-1 -7.5zM84 16v4.5v5.5v7v4t-0.5 3.5t-0.5 3.5q-2 3 -6 5t-8 3t-8.5 2t-8 2.5t-6 3.5t-2.5 6q11 0 22 -3.5t21 -7.5q3 -2 5 -6t2.5 -9l1 -10t0.5 -8t-2 -6t-6 -3
h-0.5h-0.5l-1.5 1.5z" />
</svg>
