<?xml version="1.0" standalone="no"?>
<!DOCTYPE svg PUBLIC "-//W3C//DTD SVG 1.1//EN" "http://www.w3.org/Graphics/SVG/1.1/DTD/svg11.dtd" >
<svg xmlns="http://www.w3.org/2000/svg" xmlns:xlink="http://www.w3.org/1999/xlink" version="1.1" viewBox="-10 0 266 256">
   <path fill="currentColor"
d="M190 245q0 1 1.5 3.5l1.5 2.5h1h1q3 0 5 -1t2 -4q0 -21 -1 -42t-3 -42l-0.5 -2t-1.5 -3q-3 -4 -9.5 -5t-13 -1.5t-11.5 -1.5t-5 -7v-3t0.5 -4.5t1.5 -4.5t3 -2l33 -5q2 0 4 -3t3.5 -7t2.5 -7.5t1 -5.5q0 -5 -2 -7.5t-5 -3.5t-6.5 -1.5t-6.5 -0.5h-8t-12 0.5t-10.5 2
t-4.5 3.5q0 1 0.5 2.5t1.5 1.5h12l3 3v15q-5 3 -8.5 5t-5.5 4.5t-2.5 6.5t-0.5 9q0 8 2.5 12t7 6t9.5 2t9 1t7 2.5t2 6.5q1 9 1.5 17t0.5 17q0 3 -1 6.5t-1 6.5v0.5v0.5q0 1 1 3.5t1 3.5v4v6v6v4zM86 240q0 1 0.5 2l0.5 1q1 0 2.5 0.5l1.5 0.5q4 0 6 -3.5t3 -9t1 -12.5
v-13.5v-12.5v-9h2q0 1 1.5 2t3.5 2.5t3.5 3t2.5 1.5q1 1 3.5 2t4.5 1.5t3 2t1 4.5v0.5v0.5q0 1 -0.5 5.5t-1.5 9.5t-1.5 9.5t-1.5 5.5v2q0 1 1 3.5t3 2.5q3 0 4.5 -1.5t2 -4t0.5 -5t1 -3.5q0 -1 0.5 -4t1 -7t0.5 -7v-4l0.5 -3.5t0.5 -7.5v-8.5v-7.5v-8v-10t-0.5 -8.5
t-0.5 -4.5v-5.5t-0.5 -7t-1.5 -7t-2 -5.5q-4 -4 -8 -7t-8.5 -5.5t-7.5 -5.5t-3 -8v-6t0.5 -6t0.5 -6t1 -7q1 -1 4 -1.5t6.5 -1.5t6.5 -1.5t5 -0.5q5 -2 7.5 -7t3.5 -11.5t1 -12.5v-10q0 -2 -1.5 -3.5t-3.5 -1.5t-3 0.5t-2 1.5v11.5t-1.5 12.5t-5 10t-10.5 4h-3t-2 -2v-8
q0 -7 0.5 -14.5t0.5 -15.5v-6q-1 -1 -3 -2t-3 -1t-2 0.5t-1 1.5l-1 0.5l-1 0.5v1v1q0 2 0.5 8t0.5 13t0.5 13t0.5 8l-2 2h-2.5h-3.5h-4h-4t-4 -1.5t-2 -3.5v-4.5t-0.5 -7t-0.5 -6.5v-4q-1 -5 -4.5 -6t-8.5 -1v10.5t1 9t2 8.5t3 9q2 3 6 4t9 1.5t8.5 0.5t3.5 2v34l-1 0.5
t-1 1.5h-2t-2.5 0.5t-3 0.5h-1.5q-2 1 -4.5 3t-5.5 4.5t-5.5 5l-3.5 3.5l-0.5 0.5t-1.5 0.5q-5 8 -7 17.5t-2.5 19.5t-0.5 21v19q-1 7 -2.5 15t-1.5 15v1q1 3 2 4.5t4 1.5t5 -3.5t2 -5.5v-31q8 -4 14.5 -9t13.5 -10v8q0 6 -1 12.5l-2 13l-2 13t-1 12.5zM101 173v-19
q0 -1 2 -1h2h1h2q1 2 3 4.5t4.5 4.5t5 3.5t5.5 1.5v25q-2 0 -5 -2.5t-7 -5.5t-7.5 -6.5t-5.5 -4.5zM64 180v-8.5t3 -7.5q0 -1 1.5 -1.5l1.5 -0.5q1 0 3.5 -0.5t3.5 -0.5q1 -2 3 -4.5t3.5 -5t4 -4.5t5.5 -2v0v0q1 1 1.5 4.5t0.5 4.5v2q0 6 -1.5 10t-3.5 6.5t-5.5 4.5t-7.5 5
q-3 2 -4 3t-1.5 2t-2 1.5l-4.5 1.5q0 -3 -0.5 -5t-0.5 -5zM103 125v-8q0 -1 1 -1.5t3 -0.5q8 0 12 5t5.5 12t2 14.5t0.5 12.5h-2l-21 -20q-1 -1 -1 -3v-4v-4v-3zM68 148q0 -4 2 -9t5 -10t7 -9t8 -5q3 0 4 1.5t1 3.5v4.5v2.5v3.5v3.5l-4 4t-7.5 6t-8 5l-3.5 2q-4 0 -4 -3z
M186 95q4 0 7 1.5t3 7.5q0 2 -1 3.5t-3 2.5t-4.5 1.5t-3.5 0.5h-4.5t-2.5 -3v-11q0 -1 1.5 -1.5l3 -1t2.5 -0.5h2zM84 83h-2.5t-2.5 1q-1 1 -4.5 3.5t-7.5 5t-7.5 5t-4.5 3.5q-2 1 -2.5 2.5t-0.5 3.5q4 0 10 -2t11.5 -5t9.5 -7t4 -7t-3 -3zM112 84l3.5 3.5t5 5.5t5 5t4.5 3
q0 1 1.5 2t3 1.5t2.5 1l1 0.5l5 -5q-1 -1 -4.5 -4t-8 -6.5t-8.5 -5.5t-6 -2h-2t-2 1zM157 56q0 4 2.5 7t6 4.5t7.5 2t7 0.5t7 -1t8.5 -3t7.5 -5t3 -6q0 -12 -5 -17t-16 -5h-7t-7.5 1t-6.5 2.5t-5 3.5q-1 5 -1.5 8.5t-0.5 7.5zM167 51q0 -4 1.5 -5.5t4.5 -2.5t6 -1h7h3.5
t3.5 1v5q0 6 -4 8.5t-10 2.5q-4 0 -8 -1t-4 -7z" />
</svg>
