<?xml version="1.0" standalone="no"?>
<!DOCTYPE svg PUBLIC "-//W3C//DTD SVG 1.1//EN" "http://www.w3.org/Graphics/SVG/1.1/DTD/svg11.dtd" >
<svg xmlns="http://www.w3.org/2000/svg" xmlns:xlink="http://www.w3.org/1999/xlink" version="1.1" viewBox="-10 0 266 256">
   <path fill="currentColor"
d="M171 249q1 1 2.5 1.5t2.5 0.5q5 0 6.5 -4.5t1.5 -8.5q0 -15 -1 -30t-1 -31q0 -23 1 -45.5t1 -46.5l2 -5q11 0 17.5 -4.5t10 -11.5t5 -16t1.5 -19q0 -2 -1 -4.5t-4 -2.5q-5 0 -6.5 3.5t-2 9t-0.5 11.5t-2.5 11.5t-6.5 9t-13 3.5q0 -12 1 -23t1 -22v-4t-0.5 -4t-1.5 -3
t-4 -1h-3q-2 0 -2 2l-4 53q0 3 -0.5 3.5t-2.5 0.5q-7 0 -10 -3.5t-4 -8.5t-0.5 -11t0.5 -11q0 -6 -1.5 -9.5t-5.5 -3.5q-2 0 -3 2t-1.5 4t0 4.5t0.5 3.5v7t0.5 6t1 6.5t1.5 8.5q1 4 5 6.5t8.5 4t8 2.5t3.5 2v102l0.5 2t0.5 4t0.5 4t0.5 3v1q0 8 -1 15.5t-1 15.5v4v6v6v4z
M39 109v7v8v7.5v4.5t0.5 6t1 11.5t1 14t1.5 14.5t1.5 12t0.5 6q0 3 0.5 7t1.5 7.5t2.5 7t4.5 5.5l1.5 1t3.5 2.5t3.5 2.5l1.5 1h3h4h4h3q16 0 24.5 -3t12.5 -9.5t5 -17t1 -26.5q0 -2 0.5 -7t0.5 -12.5v-15.5t0.5 -15.5t0.5 -13v-6.5v-11q0 -10 -0.5 -16t-2.5 -10t-6.5 -7
t-13.5 -7l-1 -0.5l-1 -0.5v-3v-4v-3t0.5 -5t1 -5t2.5 -2h23q2 0 3 -1t1.5 -3t0.5 -3.5v-2.5q-24 0 -46.5 1t-45.5 1q-2 3 -2 4.5v3.5t0.5 3.5t2.5 1.5q6 0 11 -2t10 -2q2 0 3.5 1t2 3.5t0.5 4.5v4q0 8 -3.5 11.5t-8 6t-9 6t-6.5 10.5v5v8v8v6zM201 139v24q0 4 1 10.5
t1.5 14.5t2 16.5t2.5 15t2.5 10.5t3.5 4t5 -2v-10q0 -10 -1 -19.5t-2.5 -19t-2.5 -19.5t-1 -19q0 -12 2 -23.5t2 -23.5q0 -3 -1 -5t-5 -2q-3 0 -4.5 3t-2.5 7.5t-1.5 8.5t-0.5 5v24zM134 223q0 2 0.5 3.5t2.5 1.5t4 -2t3 -5t1.5 -5.5t0.5 -3.5t0.5 -3.5t1.5 -5t1.5 -5
t0.5 -3.5q0 -3 1 -9l2 -12t1.5 -10.5t0.5 -5.5v-4q0 -4 0.5 -8.5t0.5 -8.5v-8v-6t-0.5 -8.5t-0.5 -8.5v-6q-1 -3 -2 -4t-5 -1q-2 0 -3 0.5t-1 4.5q0 1 0.5 3.5l1 5t0.5 5v3.5v4v6q0 20 -1 41t-6 40q-1 4 -3 7.5t-2 7.5zM64 216q0 -3 2 -6.5t4.5 -6t5.5 -4.5t6 -2t6.5 2t7 5
t5.5 6.5t2 6.5q-6 5 -11 5.5t-12 0.5h-2h-3.5h-3.5h-1q-3 -1 -4.5 -2.5t-1.5 -4.5zM77 184h-2l-14 14q0 1 -1 1h-1q-2 0 -3.5 -1.5t-1.5 -3.5v-4v-4q0 -5 1 -8t2.5 -5.5t4 -5t4.5 -6.5q6 -10 8 -21t3 -23t1 -24t1 -23q0 -1 1.5 -1.5t2.5 -0.5h3q0 4 0.5 12t0.5 17.5v17.5v11
v8.5t0.5 9t1.5 9t4 7.5l3.5 3.5t5 5.5t5.5 5.5t4 3.5v7q0 5 -0.5 8.5t-1.5 8.5l-1 0.5l-1 0.5q-5 0 -8.5 -3t-6.5 -6.5t-6.5 -6.5t-8.5 -3zM95 106v-2.5t0.5 -3.5t1 -3.5l0.5 -1.5v-25q0 -2 2 -2h3q3 0 4.5 1t2.5 2.5t1.5 3.5t2.5 5v72q0 1 -1.5 4t-2.5 4h-1h-2q-3 0 -5 -3
t-3 -7t-1 -8v-6q-1 -3 -1.5 -7.5t-0.5 -9v-8.5v-5zM52 156q0 -3 -0.5 -8.5t-0.5 -12t-0.5 -12.5t-0.5 -8v-5v-8.5t1 -13t3.5 -11.5t7.5 -5q2 0 3.5 1t0.5 5v3.5v5.5q0 2 0.5 4.5t0.5 3.5q0 2 -0.5 5t-0.5 6v5v2q0 2 -0.5 7t-1 11t-1 11t-1.5 7q0 2 -2.5 5.5t-4.5 3.5h-1v0
l-1 -1zM77 51q0 -7 1 -11t8 -5q0 1 0.5 3t0.5 4v3.5v2.5l0.5 1.5l0.5 1.5q0 3 -1 5t-4 2t-4.5 -2t-1.5 -5z" />
</svg>
