<?xml version="1.0" standalone="no"?>
<!DOCTYPE svg PUBLIC "-//W3C//DTD SVG 1.1//EN" "http://www.w3.org/Graphics/SVG/1.1/DTD/svg11.dtd" >
<svg xmlns="http://www.w3.org/2000/svg" xmlns:xlink="http://www.w3.org/1999/xlink" version="1.1" viewBox="-10 0 266 256">
   <path fill="currentColor"
d="M106 20q-4 0 -6 0.5l-4 1t-4 1.5t-5 2q-10 2 -16.5 3.5t-10.5 4.5t-5.5 9t-1.5 17v192q4 0 6 -1.5t2.5 -4t0.5 -6v-7.5q0 -1 0.5 -5t0.5 -8.5t0.5 -8.5t0.5 -5v-1q0 -15 -1 -30.5t-1 -31.5v-12v-11.5t0.5 -11t1.5 -12.5q5 -1 10.5 -3t11 -4.5l11 -5t9.5 -4.5
q3 -2 5.5 -5.5t3.5 -7.5t1.5 -8.5t0.5 -8.5v-5l-1 -2t-1 -3l1 -2.5t1 -3.5v-8v-9q-2 -3 -5 -3t-4.5 3t-1.5 5zM109 227q0 9 2 13.5t6 7t10 3t14 0.5q5 0 11 -1.5t10 -6.5v-3.5t0.5 -6t1 -6t0.5 -3.5v-1v0q-1 -1 -2 -4t-2 -4h-1q-3 0 -4 3t-1 6h-14l-2 -10l24 -4l1 -1t2.5 -2
t2.5 -2.5t2 -2.5q1 -2 1 -5.5v-5.5v-4t-1 -3q-2 -1 -4 -1.5l-2 -0.5v14q0 2 -2.5 3.5t-6 2.5t-7 1.5t-4.5 0.5q-2 0 -5 -1t-2 -4q0 -2 2 -3t4 -1t4 -0.5t3.5 -2t2 -5t0.5 -9.5l1 -3h17q1 0 2 -1.5t1 -2.5h0.5t0.5 -1h-0.5h-0.5q0 -1 -1 -2l-2 -2h-3.5h-3.5q-2 0 -7.5 0.5
t-13 1l-15 1t-14 1.5t-11 2t-5.5 2l3 4h2t5.5 0.5t5.5 0.5h3q0 1 1 4t2 4l0.5 3l0.5 3q1 1 2.5 1.5l3 1t3 1.5t1.5 3q0 1 -1 3.5t-3 2.5q-6 0 -9.5 -3.5t-5 -7l-3 -7t-2.5 -3.5q-2 0 -3.5 2t-1.5 4q0 10 4 13.5t8.5 5t9.5 1.5t7 2v5q0 4 -1 6t-6 2q-3 0 -4 -2t-1.5 -4
t-2 -3.5t-3.5 -1.5q-1 0 -1.5 1.5t-1.5 3.5t-1 4v3zM82 248q1 1 2 1h2h0.5h0.5l5 -9v-33v-6.5t0.5 -12t0.5 -12v-6.5q0 -4 0.5 -7.5t1.5 -7.5l2 -8t3 -7q0 -1 1.5 -1.5t3.5 -0.5t3.5 0.5l1.5 0.5q0 3 -1.5 4.5l-3.5 3.5t-3.5 4t-1.5 4h7q1 0 2 -1t3 -2.5t3.5 -3.5t2.5 -3
q3 -3 3.5 -5.5t1.5 -4t3.5 -2.5t8.5 -1q5 0 7.5 3l5 6t6 5.5t10.5 2.5q1 0 3.5 0.5t2.5 -2.5t-3 -4.5t-6.5 -2t-6.5 -2t-3 -4.5q0 -2 0.5 -2.5t2.5 -0.5q1 -1 3 -1t4.5 -0.5t5 -0.5h3.5t1 -1v-2v-2.5t-1 -2.5h-11q-5 0 -11 0.5t-12 0.5q0 -3 2 -6t5 -5.5t6.5 -4.5t6.5 -4
v-0.5v-0.5q0 -3 -3 -5.5t-7 -4.5t-8 -2.5t-6 -1.5t-3 -2.5t-2.5 -3t-2.5 -3t-3 -1.5q-1 0 -2 1.5t-1 3.5q0 1 1 2t1 3q0 4 -4 6.5t-8.5 5t-8.5 5.5t-4 7q0 2 0.5 3t2.5 1h3t3 -1q4 -5 6.5 -8t6 -5t7 -2.5t8.5 -0.5h5t5 3v0.5v0.5v0v0q0 1 -0.5 1.5t-1.5 0.5q-2 2 -4.5 5
t-5.5 6.5t-4.5 6t-2.5 2.5q-3 2 -7 2.5t-8.5 1.5t-8.5 2.5t-6 4.5q-3 5 -4 10t-1.5 9.5t-1 9.5t-2.5 9q0 16 -1 32t-1 32v5.5v5.5zM195 248q0 1 1.5 1h2.5q2 0 2.5 -1.5t1 -3.5t0 -4t-0.5 -3q0 -41 -2 -80.5t-2 -80.5v-3v-4v-3.5v-1.5q0 -1 0.5 -3.5t0.5 -3.5
q0 -11 -0.5 -17.5t-3 -10t-6 -5t-8.5 -1.5t-11.5 -0.5t-15.5 -2.5q-2 -1 -3.5 -2.5t-2.5 -3.5t-2.5 -3.5t-3.5 -1.5q-1 0 -2 1.5t-2 3.5q0 1 0.5 4.5t1 7.5t0.5 7.5v4.5t0.5 2.5t0.5 3.5t0.5 3.5t0.5 2.5v3v5v6v3q1 6 5 10t9 6t10.5 3t10.5 1.5t8 1.5t3 4q1 2 1 5.5t0.5 7.5
t0.5 7.5v4.5v11.5v17.5v17.5v11.5q1 4 1.5 9l1 10t0.5 10v10l1 3l1 3v5.5v7.5v8.5v5.5zM120 237v-1v-1q8 -1 17 -1.5t18 -0.5q0 6 -5 10h-9h-5.5h-7t-6 -1.5t-2.5 -4.5zM124 181q0 -3 2 -4t4 -1.5t4.5 0t4.5 0.5q3 0 4.5 0.5t1.5 4.5t-2 6t-7 2q-3 0 -7.5 -2t-4.5 -6z
M117 157q2 3 4.5 4t5.5 1h6t8 -0.5t7 -2t3 -4.5v-1.5t-1 -1.5h-8h-6h-7.5t-7 1t-4.5 4zM99 56h5q1 0 1.5 1t0.5 2q0 6 -4.5 10t-11.5 7t-13.5 4t-11.5 1v-14q0 -1 0.5 -1.5t1.5 -0.5q7 -4 15 -6.5t17 -2.5zM149 59q0 -3 2 -4t4 -1q3 0 8.5 0.5t11.5 1.5t10.5 4t4.5 7v3.5
t-1 3l-2 3t-2 1.5q-5 0 -11 -0.5t-11.5 -2.5t-9.5 -6t-4 -10zM67 48q0 -4 3.5 -7t9.5 -5t11.5 -3t9.5 -1h2.5t2.5 2v11l-1.5 0.5l-1.5 0.5q-1 0 -3 0.5t-4.5 0.5t-4.5 0.5l-2 0.5q-1 0 -4 1t-6 1.5t-5.5 1.5t-3.5 1h-1q-2 0 -2 -2v-3zM150 43q-2 -1 -2 -2.5v-3.5v-3.5
t3 -2.5h5h10q6 0 11.5 1t9 4.5t3.5 9.5v0q-1 1 -2 2.5l-1 1.5q-1 0 -4.5 -0.5t-7.5 -1l-8 -1t-5 -1.5q-1 0 -2.5 -0.5t-3.5 -1t-4 -0.5t-2 -1z" />
</svg>
