<?xml version="1.0" standalone="no"?>
<!DOCTYPE svg PUBLIC "-//W3C//DTD SVG 1.1//EN" "http://www.w3.org/Graphics/SVG/1.1/DTD/svg11.dtd" >
<svg xmlns="http://www.w3.org/2000/svg" xmlns:xlink="http://www.w3.org/1999/xlink" version="1.1" viewBox="-10 0 266 256">
   <path fill="currentColor"
d="M131 195q2 1 6 2t9 2.5t9 2.5t6 1q0 1 1.5 1h3t3 0.5l1.5 0.5q6 4 9.5 11.5t6.5 14.5t6.5 12.5t10.5 5.5q0 -6 -3 -14t-7.5 -16t-10 -14.5t-10.5 -7.5l-44 -13q-5 -2 -6 -7q0 -2 -0.5 -6.5t-0.5 -10t-0.5 -10t-0.5 -6.5q0 -1 0.5 -6t0.5 -10.5t0.5 -10.5t0.5 -6
q0 -5 0.5 -14.5l1 -19t2.5 -18t5 -12.5q1 -1 2 -1.5l3 -1.5t4 -1.5l2 -0.5q1 0 3.5 -0.5t5 -0.5t5 -0.5t3.5 -0.5h9t13 -0.5t13 -0.5t9 -1v-1v-1q0 -1 -0.5 -3t-2.5 -1h-24h-26.5t-18.5 4t-10.5 13.5t-4.5 28.5q-1 4 -0.5 7t0.5 7q0 3 -0.5 6t-1.5 7v77q0 3 2 5.5t4.5 4.5
t5.5 3t5 0zM55 243q1 2 1.5 2h1.5q4 0 6 -3.5t2 -6.5v-28q0 -2 3 -2.5t7 -0.5h7q4 0 5 -1q3 0 4.5 -4t2 -9t0.5 -9.5v-6.5q1 -2 2 -2.5l2 -1t2 -1.5t1 -4q-8 0 -16 2t-17 2h-1.5t-1.5 -2v-18l3 -3q3 0 6.5 -0.5t7.5 -1t7 -2t5 -4.5v-20q1 -4 2 -6t2.5 -2.5t3.5 -1.5t3 -3
l-1 -2l-2 -0.5l-2 -0.5q-7 0 -13 1.5t-13 1.5q-5 0 -7 -2t-2 -7q0 -4 2 -6t5.5 -2.5t7.5 0t7.5 -1t6.5 -4.5t4 -10v-4t0.5 -4.5t0.5 -5v-3.5q1 -2 3 -2h3t3.5 -1.5t1.5 -5.5q-10 0 -18.5 2t-18.5 2v0q-1 0 -1.5 -1l-0.5 -1v0q0 -6 5.5 -10t12.5 -7t12.5 -5.5t5.5 -6.5
q0 -3 -1 -4t-4 -1q-5 0 -11.5 3t-12.5 7.5t-11 10t-7 10.5t-1.5 10t-1.5 10q1 21 0.5 42.5t-1.5 42.5t-1.5 42.5t-0.5 42.5v8zM80 175h1h2t2 0.5t1 1.5v3v3q0 8 -3 11t-11 3h-1h-2t-2 -1t-1 -2v-15q0 -2 2 -2.5l4 -1t5 -0.5h3zM176 112q-1 0 -2 1t-1 3v48q0 2 2.5 4t5.5 3.5
t6 2t5 0.5q3 0 5 -2t4 -5q1 -7 1 -12t0.5 -9.5t0.5 -8.5v-11v-3v-3.5v-3.5v-3q-1 -2 -1.5 -2h-1.5q-2 0 -3 1t-1.5 2.5t-0.5 3.5v3v3v4v5v3l-1 2h-14v-23q0 -2 -1.5 -2.5t-2.5 -0.5zM138 116q-2 0 -3.5 1.5t-1.5 3.5v41q0 2 1.5 4t3.5 3t4.5 1.5t3.5 0.5q8 0 12 -4.5
t5.5 -11t1 -14t-0.5 -13.5v-13q0 -1 -1.5 -1.5l-1.5 -0.5h-1h-1l-0.5 1.5l-0.5 1.5v20q0 2 -2.5 2.5t-5.5 0.5h-6h-4q0 -6 0.5 -11.5t-1.5 -11.5h-1zM181 152v-4q0 -1 0.5 -1.5t1.5 -0.5h11l0.5 1t0.5 2v1.5v0.5q0 2 -0.5 4.5t-1 4t-2 3t-4.5 1.5q-4 0 -5 -3.5t-1 -8.5z
M139 146q1 0 5 -1t6 -1h3q2 0 2.5 2t0.5 5q0 10 -9 10h-2h-3q-1 -1 -1.5 -3.5l-1 -5t-0.5 -4v-2.5zM83 111q5 0 5.5 1t0.5 5q0 12 -4 16.5t-15 4.5h-2t-2 -2v-18q0 -2 2.5 -3.5t5.5 -2t5.5 -1t3.5 -0.5zM181 48q-1 0 -3 1t-2 3v11q0 1 -0.5 1.5l-0.5 0.5q-1 0 -3 0.5l-2 0.5
h-7h-7h-4v-15h-1.5t-2.5 1l-0.5 0.5l-0.5 0.5v38q0 3 1.5 4.5t4 2t4.5 0.5h4q5 0 11.5 -1.5t10.5 -6.5q1 -7 1 -13v-14v-13q0 -1 -1 -1.5t-2 -0.5zM153 81q0 -4 1.5 -5.5t4.5 -2t6 -0.5h5q4 0 5.5 0.5t1.5 4.5q0 8 -3.5 9t-9.5 1h-4h-4q-3 -1 -3 -3v-4zM69 78v-7
q0 -9 4.5 -12t12.5 -3q1 0 2.5 0.5t2.5 0.5q1 1 1 4v4q0 5 -1.5 8t-4 4.5t-6 2t-8.5 0.5q-1 0 -2 -0.5t-1 -1.5z" />
</svg>
