<?xml version="1.0" standalone="no"?>
<!DOCTYPE svg PUBLIC "-//W3C//DTD SVG 1.1//EN" "http://www.w3.org/Graphics/SVG/1.1/DTD/svg11.dtd" >
<svg xmlns="http://www.w3.org/2000/svg" xmlns:xlink="http://www.w3.org/1999/xlink" version="1.1" viewBox="-10 0 266 256">
   <path fill="currentColor"
d="M120 215q2 0 2.5 0.5t0.5 2.5v30q0 2 2 2.5t4 0.5t4 -1.5t2 -4.5q0 -6 -0.5 -12t-0.5 -12v-4l4 -1q0 -1 3 -1t7.5 -0.5t9 -0.5h7.5h5q1 0 4.5 -0.5t7 -0.5t6.5 -0.5t5 -0.5q2 -1 3 -3t1 -5q-14 0 -28 1t-28 1h-4t-3 -1v-5l-0.5 -1t-0.5 -2t0.5 -2t1.5 -1t4.5 -0.5t7.5 -1
t7.5 -1t4.5 -0.5q2 0 4 -1t4.5 -2.5t4 -3.5t1.5 -4v-29q0 -2 -2 -3.5t-4 -1.5q-3 0 -3.5 2.5t-0.5 5.5t-0.5 5.5t-3.5 2.5h-24l-0.5 -1.5t-0.5 -4v-4.5v-4t0.5 -3.5t1 -1.5t2 -0.5t3.5 -0.5q5 -2 7 -4t3 -4.5t1.5 -5.5t2 -5t4 -3.5t6.5 -2.5h6h8h8h6q1 0 1 -1v-1
q0 -3 -1.5 -5t-4.5 -2q-7 0 -14 1t-15 1q-3 0 -3.5 -1.5t-1 -3.5t-1 -3.5t-3.5 -1.5h-2h-1l-3 11h-34v-12l-2.5 0.5t-4.5 0.5q-1 1 -1.5 2.5t-0.5 2.5v3.5t-1 2.5q-1 0 -4.5 0.5t-4.5 1.5h-5.5t-9 0.5t-8.5 0.5h-6q-1 1 -1 2v2q0 3 1.5 3.5t4.5 0.5q6 0 12 -1t12 -1h5.5h5.5
q0 1 0.5 2l0.5 1q0 1 0.5 3t0.5 3.5t0.5 3.5t0.5 3q3 4 6.5 5t6 1.5t4 2.5t1.5 8v4v3q-1 2 -3.5 2.5t-5.5 1t-5.5 0t-3.5 -0.5h-3.5h-2.5l-3 -1l-3 -12q0 -1 -2 -1h-1q-3 0 -5 0.5t-2 3.5v3l0.5 1.5t0.5 3t0.5 2.5t0.5 2v11q0 5 1.5 9t4.5 6.5t11 2.5h3l2 -0.5t4 -0.5
t3.5 -0.5t2.5 -0.5q2 0 3.5 1.5t2.5 3t1 4v3.5t-3 2t-7.5 2t-8.5 1h-5h-4h-7h-7h-4q-1 0 -3.5 0.5t-4.5 0.5t-4.5 0.5t-3.5 0.5q-3 2 -3 4t1.5 3t3.5 2h4.5h4.5q12 0 23.5 -2.5t23.5 -2.5zM99 185q-2 -2 -3.5 -5t-1.5 -5t4 -3t8.5 -1.5l9 -1l4.5 -0.5q2 0 3 1.5t1.5 3
t0.5 3.5v2t-0.5 3t-0.5 3q-2 1 -4 1h-4h-8.5t-8.5 -1zM134 178q0 -2 1 -5t3 -3h24q1 0 1.5 1l0.5 1v1q0 4 -2.5 6.5t-5.5 3.5t-7 1.5t-6 0.5h-6q-2 -2 -2.5 -3.5t-0.5 -3.5zM111 125q0 -3 3 -4.5t6.5 -2t7.5 0t6 0.5h5h5l0.5 0.5t1.5 0.5v1q0 5 -2 8t-5.5 4.5t-7.5 2t-8 0.5
t-8 -3.5t-4 -7.5zM59 105q1 2 2 2h2q4 0 5.5 -2.5t1.5 -6.5q0 -7 -0.5 -14.5t-0.5 -14.5q0 -8 1 -11.5t4.5 -5.5t8 -2.5t10.5 -1.5l2.5 -0.5l5 -1t4.5 -1t3 -0.5h2h4h3t3 0.5t1.5 1.5l1 2t0.5 2.5v1.5v44q0 1 1 1.5t2 0.5h1q2 0 3.5 -1.5t1.5 -3.5v-44l0.5 -1.5t1.5 -1.5
q0 -1 0.5 -1.5l0.5 -0.5h35q10 0 14 6.5t5 16t0.5 19t-0.5 15.5h4q3 0 4 -2t1.5 -4.5t0.5 -5v-4.5v-3v-3v-3v-1q0 -2 -1 -6t-1.5 -8.5l-1 -9t-1.5 -5.5q0 -4 -3.5 -5.5t-7.5 -2.5t-7.5 -1.5t-5.5 -0.5h-35q-1 -1 -1 -2.5v-3.5v-5t3 -4h2.5t5 -0.5t5 -0.5h3.5h41q2 -1 3.5 -2
t1.5 -3t-1 -2.5t-4 -0.5h-5h-8h-7.5h-5.5h-6.5h-8.5h-7h-3q-2 0 -6 0.5t-5 1.5h-68q-2 0 -3.5 1.5t-1.5 3.5t0.5 3t2.5 1q11 0 21 -2t21 -2h3q3 0 5.5 0.5t5.5 0.5h3q2 0 2 2.5v3.5v6t-1.5 3.5t-3.5 2t-6 0.5q-4 1 -10 1t-12.5 1l-13 2t-11.5 2q-4 3 -5 8t-1.5 11t0 12
t0.5 9v20zM80 82q0 2 0.5 4t2.5 2v0h6t9 -0.5t9 -0.5h5q2 -1 2 -1.5v-2.5q0 -1 -0.5 -2t-2.5 -1q-7 1 -15 1.5t-16 0.5zM143 83v1l1 1l2 2h2h5h4h3h4h4.5h4.5h2q3 0 4.5 -0.5t1.5 -3.5v-1.5t-1 -1.5q-1 0 -5 -0.5t-5 -0.5h-1h-1q-2 0 -6.5 0.5t-8.5 0.5t-7 0.5t-3 2.5z
M100 59h-6q-3 0 -6.5 1t-6 2.5t-2.5 4.5h33q2 0 2 -1.5v-2.5v-1.5v-0.5q-1 0 -2.5 -0.5t-3.5 -1t-4 -0.5h-2h-2zM178 61h-28q-6 0 -6 6h32q1 0 1 -1t0.5 -2t0.5 -2v-1z" />
</svg>
