<?xml version="1.0" standalone="no"?>
<!DOCTYPE svg PUBLIC "-//W3C//DTD SVG 1.1//EN" "http://www.w3.org/Graphics/SVG/1.1/DTD/svg11.dtd" >
<svg xmlns="http://www.w3.org/2000/svg" xmlns:xlink="http://www.w3.org/1999/xlink" version="1.1" viewBox="-10 0 266 256">
   <path fill="currentColor"
d="M80 172q3 0 4 0.5t1 4.5v72l0.5 0.5t0.5 1.5h1q4 0 5.5 -3t2.5 -7t1 -7v-6v0q0 -1 -0.5 -2.5t-1.5 -2.5v-49q0 -2 4.5 -2.5t10 -1t10 -2t4.5 -5.5v-1q-1 -1 -3 -2t-4 -1h-1q-1 0 -3.5 0.5t-6 0.5t-6 0.5t-3.5 0.5v-18q0 -1 0.5 -1.5t1.5 -0.5q8 -2 12 -4.5t6 -6t2.5 -9.5
t0.5 -16v-3v-4q0 -3 -0.5 -5t-0.5 -3t-2 -2t-3 -1q-3 0 -3 3v5t-1.5 5.5t-6.5 2.5q-1 0 -3 -0.5t-3 -2.5v-3v-3q0 -4 0.5 -6.5t1.5 -4t2.5 -3t4.5 -3.5q3 -1 5 -6t3 -10.5t1.5 -9.5l0.5 -4h15q1 0 1 -1.5v-2.5v-2t-1 -1h-17v-26q0 -1 -1.5 -1.5t-2.5 -0.5h-1h-1
q-1 0 -1.5 0.5t-0.5 1.5v24h-23q-2 0 -2 -2v-3q0 -3 1 -5.5t1 -5.5q0 -7 -8 -7h-2.5t-1.5 2v23h-24q-1 0 -1 2v3t0.5 2.5t2.5 1.5h21q1 0 1.5 3t0.5 6.5t0.5 6.5t0.5 4q0 3 2 5t4 3.5t4.5 3t3.5 3.5q0 1 0.5 2.5t1 4t0.5 4v2.5v1q0 1 -2.5 3t-3.5 2h-2.5t-4 -0.5t-4 -0.5
h-2.5t-2.5 -1l-1.5 -1v-13q0 -1 -2.5 -1.5t-3.5 -0.5q-2 0 -2.5 1.5l-1 3t0 3.5t0.5 4v16t1 17q1 4 3.5 6.5t5.5 3t6.5 1t6.5 1t5 1.5t2 4q0 8 -2.5 11.5t-7 4.5t-9.5 0.5t-9.5 -1t-7 0.5t-2.5 6q0 3 2 4t4 1q6 0 13 -1t13 -1zM142 248q0 2 2 2.5t4 0.5q3 0 5.5 -1t2.5 -4
v-46l2 -7q8 1 15.5 -2t10.5 -11v-1v-3q0 -4 -0.5 -7.5t-0.5 -7.5v0q0 -2 2 -3.5l4 -3t3.5 -3t1.5 -3.5q0 -3 -2.5 -3.5t-4.5 -0.5q-5 0 -10.5 1t-10.5 1h-3h-3q-2 0 -2 -3v-4q0 -3 2 -5t5 -3t6.5 -1.5t6 -1.5t4.5 -3t2 -5v-18q0 -1 1.5 -1.5t3.5 -1t3.5 -1.5t1.5 -3v-1.5
t-2 -1.5h-34q-1 0 -1 -1.5v-1.5q0 -4 1.5 -7.5t4.5 -5.5q1 0 3.5 -0.5t5.5 -0.5t5.5 -0.5t3.5 -0.5q3 0 3 -1v-3q0 -3 -1 -3.5t-5 -0.5h-9.5t-8 1.5t-6 5t-2.5 9.5v5.5t-0.5 11t-0.5 13.5v11v1v1v4.5t0.5 8t0.5 8.5v5v1v2q0 3 -0.5 9.5t-1 15t-1.5 17.5t-1.5 17.5t-1 15
t-0.5 9.5q-1 2 -2.5 4.5t-1.5 5.5zM171 156v0q1 0 1.5 0.5l0.5 0.5v5v4v4q0 3 -0.5 5.5t-2 4.5t-4.5 2h-1q-1 0 -3 -1l-2 -1v-21l1.5 -0.5t1.5 -1.5q1 0 3.5 -0.5t3.5 -0.5h1zM196 63q0 1 0.5 5.5t1 9.5t0.5 9.5t1 6.5v7v12v13t0.5 12.5t2 9.5t3.5 4q3 1 4.5 -1t1.5 -4v-1
q0 -1 -0.5 -4.5t-1 -7.5l-1 -8t-0.5 -5v-5v-9v-9v-6v-4.5t-0.5 -8t-1.5 -9.5t-1 -7q-1 -7 -2.5 -11.5t-6.5 -7.5q-3 -1 -5.5 -1t-5.5 -0.5t-5.5 -1t-4.5 -1.5q-3 -2 -3.5 -6.5t-0.5 -9.5t-1 -8.5t-7 -3.5h-1.5t-1.5 2v5q0 5 1 9.5t1 8.5q0 2 -3 3.5t-7 2.5t-7.5 2t-5.5 3
q-3 3 -4.5 7t-3.5 8q-1 17 -3 33.5t-2 33.5v9q0 3 1 3.5t3 0.5t3.5 -6t2.5 -14t1 -15t1 -10v-2.5t0.5 -5.5t0.5 -5.5v-4.5q1 -8 2.5 -14t4.5 -9.5t8.5 -5.5t14.5 -2q8 0 15 3t12 11zM65 118q0 -2 1.5 -3t4 -1.5t4.5 -0.5h3h3q3 0 4 1q2 0 1.5 2t-0.5 3q0 4 -1 8.5t-5 4.5
q-7 0 -11 -3t-4 -11zM96 121v-3v-3q2 -4 6 -4q3 0 5 2t2 4t-0.5 4.5t-2 5t-3 4t-3.5 1.5t-3 -1.5t-1.5 -3t0 -3.5t0.5 -3zM158 114q0 -6 1.5 -9t7.5 -3q3 0 5.5 0.5t2.5 4.5q0 9 -2.5 11.5t-10.5 2.5q-3 0 -3.5 -3t-0.5 -4zM81 58v-2q0 -3 1 -3q0 -2 2.5 -3.5t4.5 -1.5h5h4
h6q1 2 1 3v3v6.5t-1 6.5q-5 4 -11 4q-7 0 -9.5 -3t-2.5 -10z" />
</svg>
