<?xml version="1.0" standalone="no"?>
<!DOCTYPE svg PUBLIC "-//W3C//DTD SVG 1.1//EN" "http://www.w3.org/Graphics/SVG/1.1/DTD/svg11.dtd" >
<svg xmlns="http://www.w3.org/2000/svg" xmlns:xlink="http://www.w3.org/1999/xlink" version="1.1" viewBox="-10 0 266 256">
   <path fill="currentColor"
d="M194 249l1 0.5t1 1.5h1q1 0 2 -2t1 -3v-78q0 -6 -2 -9t-5.5 -4t-7.5 -1.5t-8 -0.5h-15.5t-14 1.5t-11 6t-5.5 13.5q0 2 -0.5 7.5t-1 10.5t-1 9t-0.5 5v8t-0.5 13t-0.5 12.5v8.5h6l0.5 -2.5t1 -5.5l1 -6t0.5 -5v-5v-8v-8v-5q0 -2 4 -6t8.5 -7.5t8.5 -6t6 -2.5h1h1l2.5 2.5
t3.5 2.5t4 2.5t2 2.5q3 1 5 1.5t3.5 1t3.5 2t4 4.5q-1 12 -0.5 24.5t1.5 24.5zM86 238q1 2 1.5 2h1.5q2 0 3 -0.5t2 -1.5v-8.5v-13.5v-13.5v-8.5v-4t0.5 -6t0.5 -6t1 -4q2 -3 5.5 -3.5t7.5 -1t7 -1t3 -3.5t-1.5 -3t-4.5 -1h-4q-2 0 -5 0.5t-5 0.5h-3v-13q0 -1 2 -2l2 -1
q1 0 2.5 -0.5t3.5 -1t3.5 -1l1.5 -0.5q4 -2 6 -6.5t2 -9.5v-10v-7v-16q0 -1 -1.5 -2t-2 -1.5t-1.5 0t-1 1.5t-0.5 2.5t-1 3.5l-1 4l-0.5 2q-1 2 -3 2h-3h-1.5t-3 -0.5t-2.5 -1t-1 -1.5v-16q0 -1 1.5 -2.5t4 -3t4.5 -3t2 -3.5l3 -32q0 -2 2.5 -2.5t5 -0.5t5 -0.5t2.5 -3.5
q1 0 1 -1.5v-1.5h-13q-2 0 -2.5 -4t-1 -8.5t-1.5 -8t-4 -3.5q-2 2 -2.5 6t-0.5 8t-0.5 7t-1.5 3l-17 2l-1 -2v-2v-5v-4v-2q0 -1 -1 -4t-4 -3q0 1 -1.5 2l-1.5 1v17q0 2 -2.5 3t-6 1t-7 0.5t-4.5 0.5v2v2.5t2 1.5h16l2 2q0 5 -0.5 10.5t0.5 10t3 8.5t6 8q1 0 2.5 2t2.5 2v3v4
q0 6 -1 10t-9 4q-1 0 -3 -0.5t-3 -0.5t-1.5 -2.5l-1 -5t-1 -4t-2.5 -1.5t-3 1.5t-1 2.5v11q0 8 -0.5 15t1.5 12.5t7 8t15 1.5l0.5 0.5t0.5 1.5l0.5 1t0.5 3t0.5 3.5t0.5 2.5v1q0 2 -1.5 3.5t-3.5 1.5h-29q-1 0 -1.5 2.5t-0.5 3.5q0 3 2 3.5t4 0.5q6 0 12 -1.5t13 -1.5
q3 0 4 1.5t1 4.5q0 12 -1 23.5t-1 23.5v14zM148 200v28q0 4 2 6.5t6 3.5h8q9 0 14.5 -2.5t5.5 -12.5v-3q0 -1 -0.5 -4t-0.5 -6t-0.5 -6t-0.5 -4l-0.5 -1t-1.5 -1t-2 1.5t-3 3t-5 2.5t-8 1h-3h-3q-2 -1 -2 -3v-3h-6zM154 221q0 -3 1.5 -4.5t4 -2t4.5 -0.5h4h3h3q1 0 1.5 1
t0.5 2v1.5v1.5q0 6 -2 7.5t-8 1.5q-5 0 -8.5 -1t-3.5 -7zM137 182q0 -7 1.5 -11t4.5 -6.5t7.5 -3t10.5 -0.5v5t-0.5 4t-1.5 3.5t-3 3.5q-1 1 -3 2.5t-5 3.5t-5 3.5t-3 2.5v0v0q-2 0 -2.5 -1t-0.5 -2v-2.5v-1.5zM169 167v-3t1 -3h1.5t3.5 -0.5t3.5 -0.5h1.5h3q3 0 5 1.5t3 4
t1.5 5t0.5 4.5v3v4t-1 3.5t-3 1.5h-1q-7 -2 -13 -7.5t-6 -12.5zM157 86q-2 1 -5 4.5t-6.5 7t-6 7.5t-2.5 7v34q0 1 2 1.5l2 0.5q2 0 3.5 -1t2.5 -2t2 -1.5t4 -0.5q10 0 20 1.5t21 1.5q2 0 4.5 -0.5t2.5 -3.5l-0.5 -2t-1.5 -2h-28v-11q5 0 9.5 1t9.5 1h2h2q2 -2 2 -5
q0 -2 -0.5 -2.5t-2.5 -1.5q-1 0 -3.5 -0.5t-5 -0.5t-5 -0.5t-3.5 -0.5t-3 -0.5l-2 -0.5v-8q5 0 10 1.5t10 1.5q3 0 4 -0.5t1 -3.5t-1.5 -4t-4.5 -1q-1 0 -3.5 -0.5t-5.5 -0.5t-5 -0.5t-3 -0.5q-2 0 -2 -2v-3q0 -2 0.5 -4t2.5 -2q3 0 5.5 1.5t5 2.5t5.5 2t6 1q2 0 4.5 -0.5
t3.5 -2.5q0 -3 -3 -4.5t-7 -2.5t-7.5 -2t-4.5 -2v-0.5v-0.5q0 -2 2 -3.5t4 -2.5t4.5 -2t2.5 -4t-3 -4.5t-6 -2.5t-6 -2.5t-3 -4.5t1.5 -4t4.5 -1t6 -0.5t5.5 -2.5t4 -6t1.5 -11q0 -1 0.5 -2.5t0 -3t-1 -2.5t-2.5 -1t-2.5 3.5t-1.5 7.5t-4 7.5t-11 3.5h-2h-2l-1 -3v-21
q0 -1 -1.5 -2t-1.5 -2h-1v0h-0.5h-0.5q0 1 -1.5 2t-1.5 2v4t-0.5 6.5t-0.5 6.5t-1 4q0 4 -0.5 4.5t-2.5 0.5q-6 0 -9.5 -1.5t-5 -4.5t-2 -6t-1 -5.5t-1 -4t-2.5 -1.5q-3 0 -3 1.5v4.5q0 8 1 12.5t4 6.5t8 3t13 2v3q-2 1 -7.5 4.5t-11.5 8t-10.5 8t-4.5 4.5q8 0 15.5 0.5
t13.5 4.5zM71 126v-6q2 -3 5 -4t6 -1q6 0 6 6v5.5t-1 6.5t-2.5 5t-4.5 2t-5 -1.5t-3 -3.5t-1 -4.5v-4.5zM96 114h14v8t-1.5 8t-4.5 6t-8 2v-24zM145 128v-4t3 -3h5q4 0 7.5 1t3.5 5t-3.5 7t-7.5 3q-3 0 -5.5 -2.5t-2.5 -6.5zM146 114v-3q0 -4 2 -5.5t6 -1.5q3 0 5.5 0.5
t2.5 4.5q0 3 -1 4.5t-4 1.5h-5t-6 -1zM156 96q0 -2 1.5 -3t3.5 -1q1 0 2 1t1 3t-1.5 2h-3.5h-2t-1 -2zM151 74q0 -2 1.5 -4.5t4 -4.5t5 -3t5.5 -1q1 0 3 1t3.5 2.5t2.5 3t1 3.5t-0.5 3t-2.5 1t-3 -0.5t-1.5 -1.5l-1 -2t-2.5 -2q-1 1 -1.5 2.5t-1.5 3.5t-2 3.5t-3 1.5
q-7 0 -7 -6zM82 53v-6q0 -2 2.5 -3t5 -1.5l5 -1t3.5 -0.5q2 0 2.5 1.5l1 3t0.5 3.5v3q0 5 -0.5 9t-1.5 9q-3 5 -9 5q-4 0 -6 -2.5t-3 -5.5t-0.5 -7t0.5 -7z" />
</svg>
