<?xml version="1.0" standalone="no"?>
<!DOCTYPE svg PUBLIC "-//W3C//DTD SVG 1.1//EN" "http://www.w3.org/Graphics/SVG/1.1/DTD/svg11.dtd" >
<svg xmlns="http://www.w3.org/2000/svg" xmlns:xlink="http://www.w3.org/1999/xlink" version="1.1" viewBox="-10 0 266 256">
   <path fill="currentColor"
d="M187 208q3 0 5 3.5t3.5 8t2 10t1.5 10.5t2.5 8t4.5 3t3.5 -3.5t0.5 -5.5q0 -6 -2 -12t-4.5 -11.5t-5 -10t-2.5 -8.5v-1q1 0 1.5 -1l1 -2t1.5 -2l1 -1q3 -6 3.5 -9.5t0.5 -9.5q0 -7 -3 -12t-9 -10h-17q-10 0 -17.5 0.5t-18.5 1.5v1q0 3 2 4t4 1q9 -1 14 -1h13q4 0 8.5 0.5
t8 2.5t5 6t1.5 10q0 2 -1 5.5t-4 3.5q-2 0 -4 -1t-3.5 -2.5t-3.5 -2.5l-4 -2h-3h-4h-4h-3h-12.5t-12.5 2q-1 0 -3 1t-2 2q0 2 1.5 3.5t3.5 1.5q6 0 12 -1t13 -1h14q3 0 6 3t3.5 6t-4 5t-11 3t-15 1.5t-15.5 1t-12.5 1l-5.5 0.5l4 5h2t4 0.5t4 0.5h4q13 0 23 -1.5t22 -4.5h2z
M62 215q0 3 1 6t3 6t4.5 5t5.5 2q1 0 2.5 -0.5t3.5 -0.5t4 -0.5t3 -0.5l3 -2l1.5 -2.5t2.5 -5t2 -4.5t2 -3q0 -2 2.5 -6l5 -8t4.5 -7.5t2 -4.5t-1 -1.5t-2 -0.5q-7 0 -10 5.5t-6 12.5t-6 12.5t-9 5.5q-3 0 -6 -2t-3 -6q0 -5 2.5 -9.5t6 -9t7.5 -8.5t8 -7v-3v-2
q0 -1 -0.5 -4.5t-1.5 -5.5h-5h-5q-4 0 -7 1t-5.5 2t-5 1.5t-5.5 0.5q-4 0 -5 -2.5t-1 -5.5q0 -6 3 -8.5t7 -4.5t8.5 -3t8.5 -2q2 -1 5 -3l3 -2v-20q0 -1 -1.5 -3t-3 -4.5t-3.5 -4t-3 -1.5q-2 0 -2 2v3q0 3 1.5 5t2.5 4.5t2.5 5t1.5 5.5q0 1 -1 2.5t-2 2.5q-7 1 -13.5 2.5
t-11.5 4.5t-8 8t-3 13q0 3 0.5 6t2 5.5t3.5 4t6 1.5q3 0 6 -1.5t6 -4t6 -4t6 -1.5q2 0 4 2t2 5q0 2 -4 6t-8.5 9t-8.5 11t-4 11zM93 154q0 5 2 8.5t5 6t7 3.5t8 1q13 0 13 -13q0 -7 -3 -11.5t-7 -7.5t-10 -4.5t-11 -1.5v3q13 7 21 17q1 1 1 2v1q0 2 -1.5 4t-3.5 3
q-3 1 -6 -1t-5 -5t-4.5 -5.5t-3.5 -4.5l-1.5 3t-0.5 2zM201 138q1 2 2 2h3t3 -1t1 -2.5v-3.5v-3v-6v-1.5t-0.5 -3t-0.5 -2.5v-2q-1 -16 -1 -31.5t-2 -30.5q-1 -9 -6 -11t-10.5 -2.5t-10 0t-4.5 -2.5v-17l-2.5 -1.5t-4.5 -1.5h-1v0q-1 0 -1.5 0.5l-0.5 0.5v20q0 1 -1 1.5
t-2 0.5l-12 3t-6.5 3t-4 6l-4.5 12q0 2 -0.5 7t-1.5 11t-1.5 11.5t-0.5 7.5v1q0 1 -0.5 4t-0.5 6t-0.5 5.5t-0.5 3.5q0 5 1 8t5 3q2 0 3.5 -0.5t0.5 -3.5q-1 -8 -1 -15q0 -6 0.5 -12t1.5 -12.5t2 -14.5q1 -10 3.5 -15.5t6.5 -8.5t10.5 -3.5t16.5 -0.5h3h3h4h3q3 2 4 6t2 7
q4 40 3 79zM148 134v1.5t2 1.5q4 0 6.5 -2.5t4.5 -5.5t4 -5.5t5 -2.5q4 0 6 2.5l4 5t3.5 5t4.5 2.5q2 0 4 -1.5t2 -3.5q0 -1 -0.5 -1.5l-0.5 -0.5q-5 -5 -10.5 -9t-9.5 -10v-2.5v-3.5q0 -11 1 -21.5t1 -21.5q0 -4 -1 -6t-4 -4q-2 1 -2.5 2t-0.5 3q0 12 -0.5 26t-1.5 27
q0 4 -1.5 7t-4 6t-5.5 5.5t-6 4.5v2zM50 121q0 3 0.5 4t3.5 1h1h1q3 -3 4 -10.5t1.5 -16.5t0.5 -18.5t1.5 -18t4 -14t7.5 -6.5q6 -2 9.5 -3t8.5 -1t8.5 1t9.5 1q1 1 1.5 2.5t1 4t1 4.5t0.5 3q0 6 -1.5 9t-4 4.5t-6 1.5t-8.5 1h-3.5t-4 0.5t-3.5 0.5h-2l-3 3l-1 19l3 3l28 3
q2 1 2.5 2.5t1 3.5t1 3.5l0.5 1.5v3v4v3.5v2.5t1 1.5t2 0.5t2 -0.5t1 -1.5v-27l-5 -5h-28q-1 0 -1 -1.5v-2.5q0 -5 2.5 -8t6.5 -3.5t9 -0.5t9.5 -0.5t7 -2.5t2.5 -7v-25q0 -4 -3.5 -6t-8.5 -2.5t-9 0t-6 0.5v-15q0 -2 -2 -3t-4 -1q-3 0 -3.5 2.5t-0.5 5.5v5q0 3 -2 5
q-3 3 -7 3.5t-8 1.5t-7 3t-4 7q-4 19 -6 38t-2 37zM150 104v3.5t2 2.5h1l1 -1l2 -2v-7.5t0.5 -11t0.5 -11v-7.5v-3q0 -4 -3 -4q-1 0 -1.5 0.5l-1.5 1.5v7t-0.5 10.5t-0.5 10.5v6v5zM186 62v0h-1q0 1 -0.5 2l-0.5 1v42q0 1 0.5 1.5l0.5 0.5q3 0 4 -2t1 -5v-37l-1 -1l-2 -2
h-0.5h-0.5zM73 52v0.5v0.5l1.5 1t1.5 2h3.5h3.5h5.5t9 -0.5t8 -1.5t3.5 -2v-1l-1 -1q-1 0 -3 -0.5t-4.5 -1t-4.5 -0.5h-3h-2h-4h-6t-5.5 1t-2.5 3z" />
</svg>
