<?xml version="1.0" standalone="no"?>
<!DOCTYPE svg PUBLIC "-//W3C//DTD SVG 1.1//EN" "http://www.w3.org/Graphics/SVG/1.1/DTD/svg11.dtd" >
<svg xmlns="http://www.w3.org/2000/svg" xmlns:xlink="http://www.w3.org/1999/xlink" version="1.1" viewBox="-10 0 266 256">
   <path fill="currentColor"
d="M167 244q0 2 0.5 4.5t3.5 2.5q2 0 4.5 -2t2.5 -4v-97q0 -2 2.5 -2h2.5q4 0 6 2t3 5.5l2 7t2 6.5q0 3 1 11t2 17t1.5 17t1.5 11v2.5t0.5 5t1.5 4.5t2 2q4 0 5 -3v-2v-3.5v-3.5v-2q0 -8 -2 -15.5t-2 -15.5q-2 -14 -3 -26t-7 -25l-0.5 -0.5l-0.5 -0.5q-4 -2 -8 -2.5t-8 -0.5
l-2 -2v-2.5v-3.5v-2v-2.5v-2.5v-1q0 -1 0.5 -2t1.5 -1l14 -3q2 -1 3.5 -4.5t2.5 -8t1.5 -9t0.5 -5.5v-4v-5q-1 -3 -2.5 -3.5t-3.5 -0.5l-1 0.5l-1 0.5v7t-0.5 10.5t-3 9.5t-6.5 4q-2 0 -4.5 -0.5t-2.5 -4.5v-36l3 -2h27q1 0 2.5 -2.5t1.5 -4.5q0 -1 -0.5 -2t-2.5 -1
q-5 0 -11 0.5t-11 0.5h-4l-4 -3v-34q0 -3 -1.5 -4t-3.5 -1q-1 0 -3.5 0.5t-2.5 2.5v39l-3 3q-1 0 -3.5 0.5t-5 0.5t-5 0.5t-3.5 0.5h-4t-3.5 0.5t-2.5 1.5t-1 3v2.5t1 1.5t4 0.5t4 0.5q6 0 10 -2t8 -2h2.5t1.5 2t0.5 7.5t0.5 12t0.5 12t0.5 7.5v1v2q-6 0 -9 -2t-4.5 -5
t-1.5 -6.5t-0.5 -6.5t-1.5 -5t-3 -2h-1q-1 1 -1.5 3l-1 4t-0.5 4v2q0 9 2 13.5t4.5 6t5.5 1.5t5.5 0.5t4.5 3.5t2 10q0 3 -2.5 5t-6 4l-7 4t-5.5 5q-4 9 -6 18t-2 18q0 2 0.5 3.5l0.5 1.5l1 2q-2 1 -3 5.5t-2 6.5v4.5t-0.5 8t-0.5 9v6.5v2q0 2 0.5 3.5t2.5 1.5q4 0 6 -7
t2.5 -17.5t1.5 -22.5t2 -22t4.5 -17t9.5 -7h2t2 2v7v11v10v8q0 15 -1 29.5t-1 30.5zM67 201q2 3 4 10.5t4.5 16t5.5 14.5t6 6t4 -0.5t1 -2.5v-3q0 -1 -0.5 -2.5t-0.5 -3.5t-0.5 -4t-0.5 -3q-2 -1 -4.5 -7t-4 -13.5t-2.5 -14t-1 -8.5v-3v-2q1 -3 4.5 -5t6.5 -2v0h1q2 3 4 8
t4.5 11.5t5 13.5t5.5 13l5 10t3 4q2 0 4 -2.5t2 -3.5t-0.5 -2.5t-0.5 -2.5l-0.5 -1t-1 -2.5t-1 -2.5t-0.5 -2q-3 -5 -5.5 -11t-5.5 -11.5t-5 -11.5t-2 -12q0 -9 1.5 -13t4 -7t4.5 -5.5t4 -8.5q1 -2 1.5 -5t0.5 -6v-6v-5v-12q-2 -6 -4 -8.5t-4.5 -3.5t-6 -1.5t-7.5 -2.5v-2.5
v-3.5v-3.5v-5.5t1.5 -5t3.5 -2h11q2 0 3.5 3.5t3 7.5t4 7.5t5.5 3.5t3.5 -2t0.5 -4v-1v-1q-4 -11 -11 -20.5t-12 -20.5q-2 -2 -3 -5t-2.5 -5.5t-3.5 -4.5t-5 -2q-2 0 -6 4.5t-9.5 11.5t-11.5 15.5t-11 16t-8 13t-3 6.5q0 4 4 4t6.5 -4t5 -9.5t7.5 -9.5t14 -4v0q1 0 2 0.5
t2 1.5v4t0.5 6t0.5 6v4v1v1l-0.5 0.5l-0.5 0.5q-9 2 -13.5 4t-6.5 5.5t-2.5 9t-0.5 15.5v2t0.5 4t0.5 3v3q3 8 8 11t10 4.5t8.5 2.5t3.5 5q0 5 -4.5 7t-9.5 3.5t-9 4.5t-4 9v20zM74 128v-7q5 -3 12 -4t12 -1q3 0 5 1.5t3 3.5t1.5 4.5t0.5 5.5q0 4 -2 6t-4.5 3t-5.5 1h-5
q-9 0 -13 -3t-4 -10zM73 105q0 -4 2.5 -6t6.5 -3t8 -1.5t7 -0.5t6 2t3 5v4t-1 4q-7 -1 -13 0t-13 1q-4 0 -5 -0.5t-1 -4.5zM78 52l15 -16h1h1q2 0 4 1.5t3.5 3.5t2.5 4.5t1 4.5t-1 3.5t-4 1.5h-23v-3z" />
</svg>
