<?xml version="1.0" standalone="no"?>
<!DOCTYPE svg PUBLIC "-//W3C//DTD SVG 1.1//EN" "http://www.w3.org/Graphics/SVG/1.1/DTD/svg11.dtd" >
<svg xmlns="http://www.w3.org/2000/svg" xmlns:xlink="http://www.w3.org/1999/xlink" version="1.1" viewBox="-10 0 266 256">
   <path fill="currentColor"
d="M160 220v7t0.5 10.5t2.5 9.5t5 4q2 0 3 -0.5t2 -2.5v-6q0 -7 -2.5 -13.5t-2.5 -13.5q0 -5 4.5 -9.5t10 -8.5t11.5 -7.5t9 -7.5q5 -8 6.5 -17t1.5 -17q0 -5 -0.5 -12t-2 -15t-4.5 -15.5t-6.5 -13t-9.5 -9t-13 -3.5q-10 0 -16 4.5t-10 11.5t-6.5 14.5t-6.5 14.5
q0 1 -0.5 5.5t-1 9.5t-1 9t-0.5 6v2v5v4v4v6v6t0.5 6t1.5 6h1h2h2.5t2.5 -2v-2v-3q0 -8 -0.5 -13.5t-1.5 -14.5q1 -4 2 -6t4 -2q5 0 8.5 5t6.5 11l5.5 11t4.5 5q3 0 3.5 -2t0.5 -4q0 -8 -4.5 -13.5t-10.5 -10.5t-10.5 -10.5t-4.5 -12.5v-4.5t1 -4.5t2.5 -3t3.5 -1q4 0 10 5
t11 11t9 11l4 5q1 0 2 -0.5l1 -0.5v-4q0 -5 -2.5 -9.5t-6.5 -8.5t-9 -8t-9 -7t-6.5 -5.5t-2.5 -3.5q0 -3 2 -5.5t5.5 -4.5t7.5 -2.5t6 -0.5h4q6 5 10 11t6.5 13t3.5 15t1 15v7.5t-0.5 7t-1 7.5t-1.5 9q-6 4 -9.5 9.5t-9.5 8.5t-9.5 5.5t-5.5 5.5t-2.5 7t-0.5 10zM71 245l2 2
t3 1t3.5 -1.5t1.5 -3.5q0 -16 -2.5 -31.5t-2.5 -31.5q0 -1 0.5 -4t1.5 -5.5t2.5 -5t3.5 -2.5q3 0 4.5 2.5t2 5.5l1 6t1.5 5t2.5 8t3 12.5t3.5 12.5t2 8q1 1 1.5 4t2 6.5t3 6t3.5 2.5t3.5 -2.5t1.5 -4.5q0 -4 -2 -9t-4 -11t-4.5 -11l-4.5 -9q-2 -6 -4 -15t-3 -16l-0.5 -1
t-0.5 -2l0.5 -1l0.5 -1q0 -1 0.5 -1.5t1.5 -2t1.5 -2.5l0.5 -1l0.5 -2t0.5 -4t0.5 -3.5t0.5 -2.5l0.5 -0.5t0.5 -1.5q1 0 2.5 -0.5l3 -1t3 -0.5t1.5 -1q3 -1 5 -5.5t2.5 -9.5t0.5 -11v-8v-9q-2 -5 -6 -7.5t-8 -4t-7 -3t-3 -5.5q0 -6 3 -8.5t9 -2.5t8 3t3.5 7t3 7t4.5 3h1
l1.5 -0.5l1.5 -0.5v-4q0 -4 -2 -8.5t-4.5 -9t-5.5 -8.5t-5 -7q-2 -2 -3.5 -7.5t-4 -11t-5.5 -9.5t-7 -4h-1l-2 1l-0.5 1.5t-1.5 3t-1.5 3l-0.5 1.5q-1 2 -3 5l-4 6l-4 6t-2.5 3.5t-3 3.5t-5 6.5t-5 6.5t-2.5 4q-1 0 -2 2.5t-3 6t-3.5 7t-2.5 5.5q-1 1 -1.5 2.5l-0.5 1.5
q1 1 2 1h1q4 0 5.5 -1.5t2.5 -3t1.5 -4t1.5 -4.5q1 -1 2.5 -3t3.5 -4t3.5 -4t2.5 -2l2.5 -0.5t3.5 -0.5t3.5 0.5l2.5 0.5q2 0 3.5 0.5l1.5 0.5v14q0 1 -4 1.5t-8.5 3t-8.5 8.5t-4 18q0 9 1.5 15t5 9.5t9 5t14.5 2.5v2v2q0 3 -0.5 4t-2.5 3q-1 0 -4 2t-6.5 4t-6.5 3.5t-4 2.5
q-3 4 -5 7.5t-2 8.5q0 16 2 33t5 33zM76 117q0 -2 4 -4t9.5 -3t11.5 -1h8q4 0 4.5 3t0.5 5q0 4 -1.5 7t-4.5 4.5t-6.5 2t-7.5 0.5q-3 0 -6.5 -1t-6 -2.5t-4 -4t-1.5 -6.5zM76 97v-4t3 -4q6 -1 10 -1.5t10 -0.5h9q5 4 5 10q0 3 -3 4.5t-6.5 2t-7 0t-5.5 -0.5h-3h-4h-4h-3
q-2 -1 -1.5 -3t0.5 -3zM144 50q0 5 4.5 10.5t10.5 6.5l2 0.5t5 0.5h4h3h7q5 0 10 -1t9 -2.5t6 -4.5q2 -6 2.5 -9.5t0.5 -9.5q0 -7 -4.5 -10.5t-12.5 -3.5h-2q-2 0 -6.5 0.5l-9 1t-9 0.5h-5.5q-4 1 -6.5 3t-4.5 5t-3 6.5t-1 6.5zM155 57v-16q0 -1 2.5 -2t5.5 -1.5l6 -1
t4 -0.5t2.5 0.5t2.5 0.5h3.5t5 0.5t4 0.5h1.5l3 3q0 1 0.5 2.5t0.5 2.5q0 3 -0.5 6t-3.5 5q-7 1 -13 1h-13h-4h-3zM82 54l-0.5 -1l-0.5 -1v-1q0 -1 1.5 -4.5t4.5 -7t6 -6t5 -2.5t4 2t3 5.5l2 7t1 5.5q0 1 -1 2t-2.5 1.5t-3 0.5h-2.5h-0.5h-0.5h-3t-4.5 -0.5t-5 -0.5h-3.5z
" />
</svg>
