<?xml version="1.0" standalone="no"?>
<!DOCTYPE svg PUBLIC "-//W3C//DTD SVG 1.1//EN" "http://www.w3.org/Graphics/SVG/1.1/DTD/svg11.dtd" >
<svg xmlns="http://www.w3.org/2000/svg" xmlns:xlink="http://www.w3.org/1999/xlink" version="1.1" viewBox="-10 0 266 256">
   <path fill="currentColor"
d="M154 215q1 3 4.5 9t8 11.5t9.5 9.5t9 4q2 0 4 -2t2 -5t-3 -4.5t-7 -3t-7 -3.5t-3 -7q0 -4 2.5 -6t7 -3t9 -1.5t8.5 -2.5t6.5 -6t2.5 -12q0 -6 -3.5 -9.5t-8 -6t-8 -5t-3.5 -6.5q0 -5 2 -10t8 -5q4 0 5.5 3t2.5 6t2.5 6t3.5 3t3 -1.5t1 -3.5q0 -3 -1.5 -6t-3 -5.5
t-3.5 -4.5t-2 -4q0 -4 2 -8t2 -9q0 -4 -1.5 -6.5t-3.5 -4t-5 -2t-6 -1.5h-19h-19h-2t-4.5 0.5t-4.5 1t-3 1.5l2 3h6h10h10h7h6t8.5 1t7.5 2.5t3 5.5q0 2 -0.5 3.5t-2.5 4.5h-1v0h-1l-2 -0.5l-4 -1l-4 -1t-3 -0.5q-9 -1 -19 -2t-19 -1h-9q-2 0 -3 1.5t-1 3.5v1.5t1 1.5
q13 -1 27 -0.5t27 3.5q3 2 3 4v1v1q-2 0 -6 0.5t-8.5 0.5t-8.5 0.5t-6 0.5v0q-5 0 -9 -1t-9 -1h-3t-3.5 0.5t-2.5 1.5t-1 3q0 1 0.5 1.5t2.5 1.5h4t6 0.5t5.5 0.5h3.5v4q0 4 -2 6.5t-4.5 4.5t-6 3.5t-6 4.5t-4.5 8t-2 12q0 6 2.5 8.5t6.5 4t9 2t9 1.5zM66 175q0 3 1 8.5
t3.5 12t5 14t5 14t5 10.5t3.5 4h2h3h5t2 -3t-2 -6.5t-4.5 -6.5t-5 -6.5t-3.5 -6.5q0 -1 -0.5 -3.5t-1.5 -2.5q-1 -4 -3 -7.5t-3 -6.5t-2 -6.5t-1 -8.5q0 -1 1 -2.5t2.5 -2.5t3.5 -1.5l2 -0.5q3 0 6 5t7 12.5t8 16.5t7.5 16.5t7 12.5t6.5 5t3.5 -1.5t0.5 -3.5v-1v-1
q-3 -5 -8.5 -14t-11.5 -19t-10 -19.5t-4 -15.5v-1q0 -1 1.5 -1.5t3 -0.5t2.5 -1l1 -1v-17q3 -2 5.5 -4.5t4 -5.5t3 -6.5t1.5 -6.5q0 -8 -0.5 -14t-2.5 -11t-6.5 -8t-12.5 -5v-18q0 -2 1.5 -3.5t4 -2.5t5 -1.5t4.5 -0.5v0q1 0 1.5 0.5t0.5 1.5l1.5 2.5t3.5 5.5t3.5 5.5
t2.5 2.5q0 1 0.5 1.5l0.5 0.5h1q2 0 3 -1.5t1 -2.5q0 -3 -2 -8t-5 -10.5t-7 -11.5t-8 -11t-7 -9.5t-5 -5.5q-1 0 -2 1l-2 2l-2.5 3t-5 6.5t-5 6.5t-2.5 4l-3.5 3.5l-5.5 5.5t-5.5 6t-3.5 4t-3 3.5t-4 5.5t-3.5 5.5t-1.5 5.5t3 3q5 0 7.5 -3.5t4.5 -8t4 -8t7 -3.5h1l1 0.5
t2 1.5t2 1.5l1 0.5q3 1 5 1.5t3 1.5t1 3v7t-2 7t-5 3t-7 1.5t-7 2.5t-5 5.5t-2 10.5v10.5t2 11t5 9.5t9 5q1 0 3.5 0.5t5.5 0.5t5.5 0.5t4.5 0.5q1 0 1 2v3q0 5 -5 8t-10.5 6.5t-10.5 7.5t-5 10zM158 187q0 -2 -1.5 -1.5t-2.5 0.5v21q-5 0 -9.5 -2t-8.5 -4q-1 -1 -1 -3.5
v-4.5v-2v-2q0 -1 1.5 -2.5t3 -2.5t3 -2.5l1.5 -1.5q1 -1 3 -2l4 -2l4 -2t2 -2l3 -14l1.5 -0.5t3.5 -1l4 -1t4 -0.5v0h1q1 0 2.5 0.5l1.5 0.5v19q0 1 3 3t7 4.5t7 6t3 7.5t-2.5 6t-6.5 2h-3t-2 -3q0 -1 -0.5 -2.5t-0.5 -3.5t-0.5 -3.5t-0.5 -2.5q0 -2 -0.5 -2.5t-2.5 -0.5
q-3 0 -3 2v1v2t0.5 4.5t0.5 4.5v3v1v2l-1 2t-2 3.5t-2.5 3l-2 2t-1.5 1t-2 0.5q-2 0 -3 -3t-1 -4q0 -2 -0.5 -5t-1.5 -7t-1.5 -7t-0.5 -5zM69 115v-1l1 -1l2 -2q9 -1 19 -2t19 -1q0 10 -2.5 15.5t-13.5 5.5h-9t-6.5 -1.5t-5 -4t-4.5 -7.5v-1zM69 97q0 -3 4 -5t9 -3.5
t9.5 -1.5h6.5q4 0 7 1.5t3 5.5q0 3 -1 4t-4 2q-4 1 -7 1t-6 0.5t-6 0.5h-6h-6q-1 -1 -2 -2.5t-1 -2.5zM135 98v1q0 1 0.5 2l0.5 1h73q1 0 1.5 -2l0.5 -2q0 -2 -1 -3t-4 -1h-29q-1 0 -1 -1.5v-2.5t0.5 -3.5t2.5 -2.5h23q2 0 2 -2v-3q0 -3 -3 -3h-6q-13 0 -26 1l-26 2
q-1 0 -1.5 1t-0.5 2t0.5 2t1.5 1h23q1 0 1.5 1t0.5 2v1.5v0.5v4l-33 3v1zM147 68l2 1h1h1l0.5 -0.5l0.5 -0.5v-26q0 -2 3.5 -3.5t5.5 -1.5q5 0 6.5 5t2 11t1 11t3.5 5t4 -2t1 -4q0 -5 -1 -8.5t-1 -7.5q0 -6 1 -9t8 -3q4 0 6 4t3.5 9t2.5 10.5t1 7.5q1 1 2 1.5l1 0.5
q1 0 1.5 -0.5t0.5 -1.5q1 0 1.5 -2.5t0.5 -3.5q0 -3 -1 -6t-2.5 -6t-2.5 -6t-1 -6v-1v-1h4t4 -1t3.5 -2.5t1.5 -3.5v-1l-1.5 -1.5l-1.5 -1.5h-4h-3h-5.5t-5.5 2h-5.5t-9 0.5l-9 1t-5.5 1.5q-8 1 -13.5 4.5t-5.5 11.5v2q0 2 0.5 5t1.5 6.5t1.5 6.5t0.5 4zM78 44v-0.5v-0.5
l16 -15l0.5 -0.5l0.5 -0.5q3 0 3.5 1l1.5 3q1 0 2 1.5t2 3.5t2.5 3.5t1.5 2.5v0v1v0q0 1 -0.5 1.5t-1.5 0.5q-6 2 -10.5 2.5t-11.5 0.5q-2 0 -4 -0.5t-2 -3.5z" />
</svg>
