<?xml version="1.0" standalone="no"?>
<!DOCTYPE svg PUBLIC "-//W3C//DTD SVG 1.1//EN" "http://www.w3.org/Graphics/SVG/1.1/DTD/svg11.dtd" >
<svg xmlns="http://www.w3.org/2000/svg" xmlns:xlink="http://www.w3.org/1999/xlink" version="1.1" viewBox="-10 0 266 256">
   <path fill="currentColor"
d="M124 248v1l2 2h8q4 0 7.5 -1t8.5 -1q6 0 13 1t13 1h3q2 0 2 -2h25q2 0 3.5 -2t1.5 -4v-1l-0.5 -1l-0.5 -1h-22l-0.5 -1t-1 -1.5t-1 -2l-0.5 -1.5q0 -1 -0.5 -4.5t-0.5 -5.5q0 -9 1 -13t3.5 -5.5t6.5 -3t10 -6.5v-2.5t0.5 -4t0.5 -4v-2.5v-1v-2v-3t-1 -3.5t-2.5 -3
t-3.5 -1.5q-3 0 -4 3.5t-0.5 7.5t0 8t-3.5 5q-8 4 -17 4.5t-18 0.5q-5 0 -7.5 -1.5t-3.5 -4t-1.5 -5.5t-1 -5.5t-2.5 -4t-6 -1.5l0.5 2.5l0.5 2.5v4.5t0.5 5t0.5 4v1.5q0 1 3 3.5t6 4.5t5.5 4l2.5 2v29l-3 0.5t-5 0.5q-1 1 -4.5 1t-7 1t-6.5 2.5t-3 3.5zM48 158q0 20 0.5 39
t0.5 38q0 1 0.5 3l1 4t1.5 3.5t3 1.5q3 0 5.5 -3.5t2.5 -6.5q0 -2 -0.5 -3t-1.5 -4q0 -2 -0.5 -8l-1 -12l-1 -12t-0.5 -8v-4v-8.5v-8.5v-7v-6v-8.5v-8.5v-5q0 -2 1 -5t1.5 -7t1.5 -7.5t1 -4.5q0 -3 0.5 -6t1.5 -6t2.5 -5t5.5 -2q6 0 10.5 6.5t7.5 15t5 17.5t4 14v46
q0 1 -2 1.5t-3 0.5q-2 0 -3 -0.5t-2 -3.5q0 -2 -0.5 -8t-1 -12.5t-0.5 -12v-8.5v-3v-6v-6v-3q0 -3 -0.5 -4.5t-2.5 -1.5q-4 0 -4 4q1 15 0.5 30.5t-2.5 30.5h-1q-3 0 -4.5 -6.5t-2 -15.5t-1 -17t-0.5 -12q-1 0 -1.5 -0.5l-0.5 -0.5h-1q-2 0 -3 1.5t-1 3.5v11.5t0.5 13
t1.5 13t3 11.5q1 4 4.5 5.5t7 2.5t7.5 1t7 1t5 3t2 7q0 8 -1.5 17t-1.5 17q0 3 1.5 3h3.5q3 0 4.5 -1t2.5 -3.5t1 -4.5v-5q0 -12 -1 -24t-2 -25v-6v-12v-12v-7l-0.5 -3t-1 -6.5l-1 -7t-1.5 -5.5q0 -4 -2.5 -7t-5.5 -6.5t-5 -6.5t-2 -7q0 -6 4 -8t9 -2t9 -0.5t4 -3.5
q0 -2 -2.5 -3.5t-4.5 -1.5q-5 0 -9.5 1t-8.5 1q0 -7 1.5 -12.5t4 -10t6 -9t8.5 -10.5v-1.5v-1.5q0 -2 -0.5 -3t-3.5 -1t-5.5 2.5t-4.5 5.5t-4.5 6.5t-5.5 4.5q-2 -3 -4 -5.5t-5 -5t-6 -4t-6 -1.5q-4 0 -4 4q0 3 3.5 5t7 5t6.5 8.5t3 15.5v3v3q0 4 -3 4h-5h-3h-2
q-1 -6 -3.5 -11.5t-4.5 -11t-3.5 -11t-1.5 -11.5t3 -9.5t8 -5t11 -1.5t11.5 -0.5t10 -1.5t5.5 -5l-3 -3l-3.5 -0.5t-5.5 -0.5q-8 0 -16 0.5t-15 3.5t-11.5 9t-4.5 16q0 6 2 11.5t5 10.5t5.5 9t2.5 8q0 2 -2.5 3t-5.5 2t-5 2.5t-2 4.5t1 4t3 1h4h3v2q0 9 -3.5 17.5t-4.5 16.5
v26zM163 234l2 -26q0 -3 2.5 -3.5t5.5 -0.5v30q0 4 -1.5 4.5t-3.5 0.5q-3 0 -4 -0.5t-1 -4.5zM131 220q0 3 1 6t4 3t4 -2t1 -4t0.5 -4.5t0 -4.5t-1.5 -4t-3 -2t-3 1.5t-1.5 3.5l-1 4t-0.5 3zM199 210h-1q-1 0 -2 1l-1 1v12l1 0.5t2 0.5t2 -1t1 -3v-3.5v-1.5v-4t-2 -2z
M171 178q-2 0 -5.5 -0.5t-7 0t-6.5 2t-3 4.5h36l0.5 -1t0.5 -2v-1v0q0 -1 -0.5 -1.5l-0.5 -0.5h-14zM126 161q8 1 14.5 1.5t14.5 0.5h2h3.5h2.5h2l4 -5l-1 -3h-13q-1 0 -1.5 -1.5t-0.5 -2.5v-1v-1l0.5 -1.5t0.5 -3.5t0.5 -3.5l0.5 -1.5q0 -1 1.5 -1.5t3.5 -1t3.5 -1
t1.5 -1.5v-15q0 -3 -2.5 -4t-5.5 -2t-5 -2.5t-2 -4.5t2 -4t4.5 -1.5t4.5 -1t2 -3.5q0 -1 -1 -2t-3 -1.5t-3.5 -1t-2.5 -0.5l-1.5 1t-3 1.5t-2.5 1l-1 0.5q-9 2 -14 2.5t-7 3t-2.5 8t-0.5 15.5v9v10t1 10t4 8zM201 154q0 3 1.5 3.5t2.5 0.5q2 0 5 -1.5t3 -4.5q0 -12 -2 -22
t-3 -22v-1v-4v-3v-2l-2.5 -2.5t-3.5 -2l-4 -1t-3 -1.5q-2 0 -5 1t-6.5 1.5t-6.5 0.5t-4 1q-1 0 -2 0.5t-2 0.5v1v1l3 3t3 2q2 24 1 48q-1 3 0.5 4t3.5 1t3.5 -0.5t2.5 -1.5v-4q0 -9 -1 -17.5t-1 -17.5v-4q0 -2 0.5 -4.5t2 -4t3.5 -1.5t3.5 0.5t2.5 3.5q2 5 3 11.5t1.5 13.5
t0.5 13v11zM130 147q0 -2 1 -3.5t3 -2l4 -1t3 -0.5t2.5 0.5t1.5 1.5v12q0 1 -1 1.5t-2 0.5h-2.5h-1.5q-3 0 -5.5 -2t-2.5 -7zM130 128q0 -3 2.5 -5t6 -3t7 -1.5t5.5 -0.5q3 0 4 3t1 5q0 3 -2.5 4.5t-6.5 2.5t-8 1h-6t-2.5 -2t-0.5 -4zM131 105h9l0.5 2t0.5 3q0 3 -2 4t-4 1
t-3 -1t-1.5 -2.5t0 -3.5t0.5 -3zM133 76v6q5 0 11.5 -1t12.5 -2.5t11.5 -4t9.5 -6.5h27l1 -1t2 -1q1 -1 2 -2.5t1 -2.5q0 -2 -1.5 -3.5t-3.5 -1.5q-16 3 -31.5 8t-31.5 11q-1 0 -5 0.5t-5 0.5zM143 53q0 2 1 2.5t2.5 1t3 0.5h1.5q3 0 9 -1t12.5 -2.5t12 -3t8.5 -1.5
q3 -1 5 -2t2 -4q0 -2 -4 -2h-1q-1 0 -3 0.5t-4.5 1l-5 1l-2.5 0.5q-2 0 -6.5 0.5l-9 1l-9 1t-5.5 0.5q-2 1 -4.5 2.5t-2.5 3.5zM143 35q0 3 1.5 3.5t3.5 0.5q9 0 18.5 -2.5t18.5 -6.5q1 0 4.5 -1.5l3.5 -1.5v-5h-3.5t-5 0.5t-5 0.5h-3.5l-2.5 1t-5.5 2t-5.5 2l-2.5 1h-3.5
t-6 0.5t-5.5 2t-2 3.5z" />
</svg>
