<?xml version="1.0" standalone="no"?>
<!DOCTYPE svg PUBLIC "-//W3C//DTD SVG 1.1//EN" "http://www.w3.org/Graphics/SVG/1.1/DTD/svg11.dtd" >
<svg xmlns="http://www.w3.org/2000/svg" xmlns:xlink="http://www.w3.org/1999/xlink" version="1.1" viewBox="-10 0 266 256">
   <path fill="currentColor"
d="M54 247q0 2 3 2t4 -3q1 -1 1 -3v-4q0 -20 -2 -40t-2 -40v-27q2 -6 2.5 -12.5t4.5 -12.5q1 -1 2 -3.5l2 -5t2 -4.5t1 -3q1 -1 1 -3.5t0.5 -4t1.5 -3t4 -1.5t4.5 2.5t2 5.5l1 6t1.5 5q2 2 3 3.5l2 3l2 3t2 4.5q1 17 2.5 33t3 32.5t2 32.5t0.5 33l0.5 0.5l0.5 0.5h1
q3 0 4 -1.5t1.5 -3.5t0.5 -4.5v-4.5q0 -14 -1.5 -29t-3.5 -29q-2 -15 -2.5 -30.5t-2.5 -30.5q0 -4 -2 -7l-4 -6t-3.5 -6.5t-1.5 -6.5v-3t1 -3q1 -3 4.5 -3.5t7.5 -0.5t7 -1t3 -4q0 -2 -1 -2.5l-3 -1.5h-3t-4.5 0.5t-4.5 0.5h-3q0 -1 -0.5 -4.5t0.5 -3.5q0 -4 2.5 -6.5
t5.5 -5t5 -5.5t2 -6q0 -2 -1 -2.5t-2 -0.5t-2 0.5l-3 1.5q-5 7 -8 11.5l-7 10.5q-3 -2 -5.5 -5.5t-4.5 -6.5t-4.5 -6t-5.5 -6v-1v-1q0 -3 2.5 -4t5.5 -2l40 -4v-5q-4 0 -10 -0.5t-13.5 0t-15.5 1.5t-14 3.5t-10 7t-4 10.5q0 5 1.5 9t4 7.5t4 7t1.5 7.5t-2 4.5t-4.5 1t-4 1
t-1.5 2.5q0 3 1 3.5t3 0.5q3 0 4.5 -1t4.5 -1q2 0 3 1t1 4t-1 5.5t-2.5 4.5t-3.5 4t-3 5q-3 8 -4 17t-1.5 18.5t-0.5 18.5v17v6v7v6.5v2.5q0 3 1 10t1.5 15t1.5 15.5t1 9.5zM123 239q0 5 3.5 6t7.5 1t7.5 -1t6.5 -1q2 0 4 1t4 1h2l2.5 -1t3.5 -1h6.5h10.5h10h7q6 0 8 -1
t2 -7h-25l-2 -1l-0.5 -1.5t-0.5 -3.5t-0.5 -4t-0.5 -4v-8v-8q1 0 4 -1.5t7 -2.5t7.5 -2.5t5.5 -2.5q0 -1 0.5 -2.5l1 -3l1 -3t0.5 -2.5v-1v-2q0 -1 -0.5 -3.5t-0.5 -5.5t-0.5 -5.5t-0.5 -3.5q-1 -1 -2 -1h-3q-1 0 -2 0.5t-1 2.5v24q0 1 -2 2t-5 2t-6 1.5t-4 0.5h-40
q-2 0 -4.5 -3t-3.5 -5q0 -1 -0.5 -3.5t-1 -5.5l-1 -6t-0.5 -4q-1 -1 -2.5 -1.5t-3.5 -0.5v2v2t0.5 5l1 8t1 7.5t0.5 4.5q1 0 2.5 1t3.5 2l4 2l2 1q2 1 4 1h5.5t4.5 1t2 3v31h-30zM159 236v-30l3 -0.5t5 -0.5q1 0 2.5 1t2.5 2q-1 6 -0.5 13.5t1.5 13.5l-1 1h-13zM136 211
q-1 0 -2 0.5t-1 1.5v18q4 0 5 -2t1 -6v-3v-4t-1 -3.5t-2 -1.5zM190 212v1q0 1 0.5 3.5t0.5 4.5t0.5 4l0.5 2q0 2 0.5 2.5t2.5 0.5t2.5 -1t0.5 -2.5v-3.5v-2v-4t-0.5 -3.5t-1.5 -2.5t-3 -1h-1q-1 0 -1.5 0.5l-0.5 0.5v1zM141 159q0 8 0.5 13.5t2.5 8.5t7 4t14 1q3 0 7 -0.5
t7.5 -1.5t6.5 -3.5t3 -7.5v-23q0 -1 -1.5 -3t-2.5 -2q-2 0 -3 1t-2.5 2t-3 1.5t-3.5 0.5t-3 -0.5t-2 -1.5l-2 -2t-3 -1q-1 0 -1.5 1.5t-1.5 2.5t-3 2.5t-6 1.5h-1l-1 -1l-2 -2l-2 -2l-1 -1h-0.5h-0.5h-0.5h-0.5l-0.5 0.5l-0.5 0.5v11zM63 128l5 52l3 1t5 2q6 2 10 2h12
q0 -3 -1.5 -4t-3.5 -1.5t-3.5 -1t-1.5 -3.5q-1 -15 -1.5 -30t-0.5 -30l-0.5 -0.5l-0.5 -0.5h-1h-1l-1 1l-2 2q1 14 0.5 29t-1.5 29l-0.5 0.5t-1.5 0.5h-1q-2 0 -3 -2t-1.5 -5t-0.5 -5.5v-2.5v-7v-10v-11v-7q-1 -1 -2 -3t-2 -2q-2 0 -3 3t-1 4zM148 175v-2q1 0 3.5 -0.5
t3.5 -0.5v0q4 0 5.5 1.5t1.5 6.5h-12q-1 0 -1.5 -2t-0.5 -3zM168 173h13q-1 3 -3 5t-6 2q-3 0 -3.5 -1.5t-0.5 -5.5zM147 163v-1v-1q1 -1 5 -2t6 -1v0q2 0 2.5 1.5l1 3t0.5 2.5v2h-14q-1 0 -1 -1.5v-2.5zM168 162q0 -4 2.5 -5t6.5 -1q2 0 2 2v4v2v1q-2 2 -3.5 2h-3.5
q-3 0 -3.5 -1t-0.5 -4zM147 112q0 4 -3.5 5t-8 1.5t-8 1t-3.5 3.5v25q0 3 0.5 4t2.5 1q3 0 3 -3v-21q0 -2 1 -3t2.5 -1h3.5h3h5q3 1 4 4.5t1 6.5l14 2t15 1h10l1 -0.5t2 -1.5v0v-1v0q0 -1 -0.5 -2t-1.5 -2q-8 1 -17 0.5t-17 -1.5l-0.5 -0.5t-0.5 -1.5q-1 0 -0.5 -3t0.5 -4
h34q1 0 2.5 -2t1.5 -3l-6 -2h-32v-1t-0.5 -2.5t0 -2.5t1.5 -2q7 -1 11.5 -1h10.5q8 0 12.5 2t6 5.5t2 9t0.5 13.5q0 1 0.5 3t0.5 5q0 2 -0.5 4t-0.5 3q1 1 2 1.5t2 0.5t2.5 -0.5t1.5 -2.5v-32q-1 -2 -1.5 -5t-1 -5.5t-2.5 -4.5t-6 -2h-10.5t-10.5 -0.5l-10 -1t-10 -0.5
q-1 0 -1.5 -0.5t-0.5 -1.5v-2v-1q0 -7 3 -11t10 -4q2 0 3 2t1.5 4.5t1 4t3.5 1.5h26q1 0 1.5 -1t0.5 -2l-0.5 -1.5t-1.5 -1.5h-23q-2 0 -2.5 -1.5t-0.5 -3.5v0v-1q2 -1 6.5 -1.5t9.5 -1.5t8.5 -2t3.5 -4q0 -1 -0.5 -2.5t-2.5 -1.5q-6 0 -12 2t-12 3q-4 1 -9.5 1.5t-10.5 2
t-8 5t-3 10.5q0 1 1 3.5l1 2.5v1v1q-1 0 -2 0.5l-1 0.5q-2 0 -5 -0.5l-3 -0.5l-3 -18q0 -1 -1 -1h-2h-2t-1 1q0 2 -0.5 4.5t-0.5 3.5q0 8 3.5 11.5t7.5 5t7 2.5t3 5zM58 44v-3q0 -1 0.5 -2.5t1 -2.5t1.5 -1h2q3 6 6 10l6 8t5 8t2 11q-5 0 -7.5 -0.5t-4 -2t-2.5 -4t-3 -6.5
q-3 -5 -5 -8t-2 -7zM125 67q0 2 1.5 2.5t3.5 0.5q3 0 6.5 -1t7.5 -3q5 -1 13.5 -3t17.5 -4t17 -3t14 -1l0.5 -0.5l0.5 -0.5q0 -1 0.5 -3.5t0.5 -3.5q-13 0 -26 3.5t-26 6.5h-2h-2l-25 8q-1 0 -1.5 0.5l-0.5 0.5v1zM133 48q0 3 2 3h3q4 0 6 -1.5t6 -2.5h4h6.5t6 -0.5
t3.5 -0.5q2 0 5.5 -1t7.5 -2l8 -2t5 -1q2 -1 2 -2v-2q0 -2 -1 -2.5t-4 -0.5l-3.5 1t-5.5 1l-3 0.5l-3 0.5q-6 2 -11.5 2.5t-10 1.5t-9.5 2t-11 2q0 1 -1.5 2l-1.5 1v1zM137 29q0 2 1.5 2.5t3.5 0.5q4 0 9.5 -1t11 -2.5t10.5 -3t8 -1.5q3 -1 6 -1h5.5t4.5 -1.5t4 -3.5l-3 -3
q0 -1 -2 -1h-2q-2 0 -6.5 1t-11 2t-13.5 2.5t-12.5 3t-9.5 3t-4 3.5z" />
</svg>
