<?xml version="1.0" standalone="no"?>
<!DOCTYPE svg PUBLIC "-//W3C//DTD SVG 1.1//EN" "http://www.w3.org/Graphics/SVG/1.1/DTD/svg11.dtd" >
<svg xmlns="http://www.w3.org/2000/svg" xmlns:xlink="http://www.w3.org/1999/xlink" version="1.1" viewBox="-10 0 266 256">
   <path fill="currentColor"
d="M175 166q4 0 6.5 6t4 15.5t3 20.5t2.5 21t2.5 16t3.5 6q4 0 5 -3t1 -6q0 -13 -2 -25.5t-5 -23.5q-2 -8 -5.5 -14.5t-3.5 -14.5v-2q6 -6 11 -12t5 -14q0 -13 -5 -19t-11.5 -9t-11.5 -4.5t-5 -4.5q0 -5 1 -9.5t2 -9.5t2 -9.5t1 -9.5q0 -1 1 -1.5t2 -0.5q5 0 8.5 3.5
t6.5 7.5t6 7t7 3q3 0 4.5 -1t1.5 -6q0 -2 -1 -3.5t-2.5 -2.5t-3.5 -1.5t-3 -1.5q-1 0 -4 -2.5t-7 -5.5t-7.5 -5.5t-5.5 -4.5q-1 0 -1.5 -0.5t-0.5 -1.5v-26q0 -3 -1 -3.5t-3 -0.5h-2.5t-2.5 2v32q0 1 -6 3.5t-13.5 6t-13.5 7.5t-6 8t4 4t7.5 -2.5t7 -5.5t6.5 -5.5t8 -2.5
q2 0 3.5 0.5t1.5 3.5q0 1 -0.5 7t-1.5 12.5t-2 12.5t-3 6q-1 0 -3.5 0.5t-5.5 0.5t-6 0.5t-4 0.5q-2 1 -2.5 1.5t-0.5 2.5v2t2 1q1 0 4.5 0.5t7.5 0.5t8 0.5t5 0.5q4 1 9.5 1.5t10 2.5t7.5 5.5t3 9.5q0 3 -1 5.5t-2.5 5t-3.5 4.5t-4 2t-3.5 -1t-3 -2.5t-2.5 -3t-3 -2.5
q-4 -3 -9 -4t-10.5 -1.5t-10.5 -0.5h-9q0 3 4.5 5t11 3.5t12 2.5t8.5 2l0.5 2t0.5 3q0 3 -3 4.5t-7 2t-8.5 0.5t-8.5 1t-6.5 3t-2.5 6q11 0 20.5 -2t20.5 -2zM44 233v6t3 5l5 -5v-5t0.5 -12l1 -14t0.5 -12v-2v-4v-4v-3q0 -3 0.5 -7.5t0.5 -8.5t0.5 -7l0.5 -3l1 -2l2 -0.5
t5 -0.5t5.5 -0.5t4.5 -0.5h1h2t2 0.5t1 3.5v82l0.5 1.5t0.5 2.5h1q3 0 4.5 -4t1.5 -6v-12v-20v-19v-13q0 -1 0.5 -3t0.5 -4t0.5 -4t0.5 -3q1 -3 5 -3.5t7 -0.5q4 0 6.5 1.5t2.5 7.5q0 18 -1 35.5t-1 35.5v9q0 1 0.5 1.5l1.5 1.5v0q2 0 4 -3t2 -5v-132q0 -1 -0.5 -2.5
t-1.5 -3.5t-2 -3t-2 -1h-43q-9 0 -13 3t-6 11v6.5v10.5v10v7l-0.5 1.5t-0.5 3.5t-0.5 4t-0.5 3t-0.5 2t-0.5 2.5t-0.5 3l-0.5 1.5q0 17 -0.5 35.5t-0.5 35.5zM69 144q1 -2 2.5 -4t3.5 -4t4 -3.5t5 -1.5l1 0.5l1 0.5l11 9l-4 3l-1.5 0.5t-3.5 1t-4.5 0.5h-3.5h-3h-3.5
t-4.5 -2zM57 137v-4v-4v-3q0 -3 0.5 -6t1 -5.5t2.5 -2.5q4 0 9 4t6 9q-2 2 -6.5 7t-8.5 7h-1h-1l-1 -0.5t-1 -1.5zM91 123q0 -3 1.5 -5.5t4 -4t5 -2.5t5.5 -1v26l-0.5 0.5t-1.5 0.5h-1q-1 0 -3 -1.5t-4.5 -3.5t-4 -4.5t-1.5 -4.5zM68 104q0 -2 2 -3t5 -1h5h4h4h4t1 1.5v2.5
q0 5 -3 8.5t-8 3.5q-1 0 -3.5 -1.5l-5 -3t-4 -3.5t-1.5 -4zM54 58q0 7 2.5 11t6.5 5.5t9 2t10 0.5q6 0 12 -0.5t11 -2t8 -5.5t3 -12q0 -12 -6 -16t-17 -4h-13t-13 2t-9.5 6t-3.5 13zM64 58q0 -5 3 -7.5t7.5 -3.5t9 -1h7.5h2h3h3.5h2.5q3 0 4 3.5t1 6.5t-2.5 7.5t-6.5 4.5
h-27q-3 0 -5 -3.5t-2 -6.5zM47 20v1q0 1 1.5 2t1.5 2h3h4h4h2h3h5h3h2q3 0 8.5 -0.5t12 -0.5t12.5 -0.5t8 -0.5q3 -1 3.5 -2.5t0.5 -3.5v-2v-1q-1 0 -3 -0.5t-4 -0.5t-4 -0.5t-3 -0.5h-1h-2q-7 0 -13.5 1t-13 1.5l-13 1t-14.5 0.5l-1.5 1.5t-1.5 2.5v0z" />
</svg>
