<?xml version="1.0" standalone="no"?>
<!DOCTYPE svg PUBLIC "-//W3C//DTD SVG 1.1//EN" "http://www.w3.org/Graphics/SVG/1.1/DTD/svg11.dtd" >
<svg xmlns="http://www.w3.org/2000/svg" xmlns:xlink="http://www.w3.org/1999/xlink" version="1.1" viewBox="-10 0 266 256">
   <path fill="currentColor"
d="M51 246q1 2 2.5 2.5t3.5 0.5q5 0 8.5 -5t6 -11t5 -11t6.5 -5t6 4.5t4 10t5 10t8 4.5q3 0 4 -1t1 -5q0 -3 -1.5 -5.5t-4 -5l-5 -5t-4.5 -5.5q-5 -7 -7.5 -17.5t-2.5 -18.5q0 -7 2 -10.5t5.5 -6t7 -3.5t6.5 -3t5 -5.5t2 -9.5v-59q0 -3 -4 -5t-8.5 -3.5t-8.5 -3.5t-4 -6
q0 -6 4 -9.5l8 -7l8 -7t4 -9.5q0 -5 -4.5 -7.5t-9.5 -4.5q-1 0 -4 -0.5t-7 -1.5t-7 -1.5t-5 -0.5q-3 -3 -6.5 -6t-7.5 -3q-2 0 -3 1t-1 3q0 4 1.5 5.5t4 3t4.5 3t2 4.5t-2 5t-4.5 4t-5 3.5t-3.5 3.5q-2 3 -4 7t-3.5 8t-2 8t-0.5 7q0 2 1 3t2 1.5l2 1t1 2.5q0 8 -1.5 16.5
t-1.5 16.5v11q0 4 0.5 8.5t1 9.5t1.5 11q1 3 5.5 5.5t8.5 4t7.5 2.5l3.5 1v26q-2 3 -2 4t0.5 1.5t0.5 1t-1 3.5q0 2 -3.5 8.5t-8 13t-8 12t-3.5 6.5zM132 223q-2 -1 -3 2t-1 4h80q2 0 3 -1.5t1 -3.5q0 -1 -0.5 -1.5l-1.5 -1.5h-4h-4h-5h-3h-7.5t-11 0.5t-13 0.5h-12.5
t-10.5 0.5t-7.5 0.5zM48 219q0 2 0.5 3.5t2.5 1.5q4 0 6.5 -5t3 -11.5t1 -12.5t0.5 -9q0 -1 -0.5 -5.5t-0.5 -5.5t-1.5 -2l-1.5 -1h-1q-2 0 -3.5 3t-2.5 7.5t-1.5 10l-1 11t-0.5 9.5v6zM100 169v3.5v5t0.5 5t0.5 3.5q0 4 0.5 9.5t1.5 10t4 8t8 3.5q0 -10 -3 -19.5t-4 -19.5
v-4t-2 -4q-1 0 -3.5 -0.5zM132 169q0 6 1 13.5t3 14t7 10.5t14 4t17 -0.5t14.5 -3.5t10 -8.5t3.5 -15.5q0 -8 -0.5 -15t-3 -12.5t-7.5 -8.5t-14 -3q-7 0 -15 0.5t-14.5 3t-11 7.5t-4.5 14zM142 186q0 -2 2 -3.5t5 -2t5.5 -0.5h4.5l1.5 0.5t1.5 1.5q1 0 1.5 0.5l0.5 0.5v17
l-0.5 0.5t-1.5 0.5h-5q-6 0 -10.5 -3.5t-4.5 -11.5zM185 178q4 0 5.5 1.5t1.5 5.5q0 7 -3 11t-10 4h-1h-2t-1.5 -0.5t-0.5 -1.5v-16q0 -2 1 -2.5t3 -1t4 -0.5h3zM142 170v-2v-2q0 -5 5 -9t10 -4q3 0 5 1.5t2 5.5q0 1 -0.5 3l-1 4t-2 3.5t-3.5 1.5h-2l-2 -0.5l-4 -1t-4 -0.5
h-3zM172 164v-3.5t0.5 -3.5t1.5 -3t3 -1q5 0 9 2.5t4 8.5q0 2 -1 3.5t-2.5 2t-3.5 0.5h-4h-2.5h-2.5q-2 0 -2 -2.5v-3.5zM63 151q0 -2 2.5 -4.5t6.5 -4.5l7 -3.5t5 -1.5t5 1.5t6 3.5t5.5 4t3.5 4q-1 4 -3.5 6t-6.5 3.5t-8 2t-7 0.5q-2 0 -4.5 -1t-5.5 -2t-4.5 -3.5
t-1.5 -4.5zM58 129v-7q1 -2 4.5 -4.5t7.5 -5.5t8 -4.5t7 -1.5t6.5 1.5t7.5 4.5t6.5 6.5t2.5 6.5v3t-0.5 4.5t-1 4.5l-0.5 2h-5q0 -1 -2 -2t-4.5 -3.5l-3.5 -3.5q-3 -2 -3.5 -4.5t-1.5 -8.5h-1q-1 0 -3 3.5t-4.5 7.5t-6.5 7.5t-9 3.5q-2 0 -3 -1t-1 -3v-3.5v-2.5zM129 130v2
t2 2h3.5h2.5q4 0 7 -0.5t7 -1.5h49q4 0 6.5 -1t2.5 -5t-3.5 -4h-6.5q-6 0 -13 1.5t-14 2.5h-21.5t-21.5 3v1zM58 100q0 -7 5.5 -11.5t13.5 -4.5q3 0 3.5 2t0.5 5t-2 6t-4.5 6t-6 4.5t-6.5 1.5q-4 0 -4 -3v-6zM129 80q0 4 1 8.5t3 9t5 8t8 3.5h34q5 0 9.5 -2t8 -5t5.5 -7
t2 -9q0 -7 -1 -14t-4.5 -12t-9 -7.5t-14.5 -2.5q-8 0 -16.5 1t-15.5 4t-11 9t-4 16zM87 84h14q2 0 3.5 2t2.5 5t1 5.5v4.5q0 3 -0.5 5t-4.5 2h-1h-1l-2.5 -2.5l-3.5 -3.5l-3.5 -3.5t-1.5 -2.5q-2 -2 -2.5 -5.5t-0.5 -6.5zM139 87v-1.5t2 -1.5h2.5t5 -0.5t4.5 -0.5h2h2
q2 0 3 2t1 4q0 4 -0.5 6.5t-1.5 6.5h-4q-7 0 -11.5 -4t-4.5 -11zM169 91q0 -3 1.5 -5t4 -2.5t5 -0.5h5.5h3h4q2 0 2 2v2q0 7 -5.5 11t-11.5 4q-4 0 -6 -4t-2 -7zM88 28q5 0 9 2t4 6q0 6 -3.5 9t-7.5 6.5t-7.5 8t-3.5 13.5q-1 2 -4.5 3.5t-7 2l-7 1t-6.5 0.5q0 -6 3.5 -14.5
t8.5 -17t11 -14.5t11 -6zM141 71q0 -2 1.5 -4.5t3.5 -4t4.5 -2.5t4.5 -1q4 0 5 3t1 6q0 5 -2.5 6.5t-7.5 1.5h-3.5t-3 -0.5t-2.5 -1.5t-1 -3zM169 65q0 -3 1.5 -5t4.5 -2t6 1t5.5 2.5t4 3.5t1.5 5q0 2 -2 3.5t-5 2t-6 0.5h-5t-3 -1t-1.5 -2.5t-0.5 -3.5v-4zM124 32
q0 1 1 2.5t2 1.5q2 0 4.5 0.5t3.5 0.5q18 0 35 -1.5t35 -0.5q3 -1 4 -2.5t1 -3.5t-1 -4t-3 -2q-13 0 -25.5 3t-25.5 3q-4 0 -8.5 -1t-9.5 -1h-3t-4.5 1t-4 2t-1.5 2z" />
</svg>
