<?xml version="1.0" standalone="no"?>
<!DOCTYPE svg PUBLIC "-//W3C//DTD SVG 1.1//EN" "http://www.w3.org/Graphics/SVG/1.1/DTD/svg11.dtd" >
<svg xmlns="http://www.w3.org/2000/svg" xmlns:xlink="http://www.w3.org/1999/xlink" version="1.1" viewBox="-10 0 266 256">
   <path fill="currentColor"
d="M84 175v75q0 1 1 1.5t2 0.5q2 0 3.5 -2t2.5 -4t1.5 -4.5t0.5 -3.5t-0.5 -2.5t-0.5 -3.5t-0.5 -3.5l-0.5 -1.5v-8q0 -15 1 -30.5t1 -30.5q1 -3 3.5 -4.5t6 -1.5h6.5h5q3 -1 6.5 -1.5l3.5 -0.5v-5q-20 0 -39 1.5t-39 0.5q-1 0 -1.5 1.5l-0.5 1.5v1q0 2 2 4t4 2
q6 0 11.5 -1.5t11.5 -1.5h4q4 0 5 1t1.5 3t0.5 4q0 3 -0.5 6t-1.5 7zM52 243q0 2 0.5 4t3.5 2t5.5 -3.5t4.5 -8t3 -9t1 -6.5v-47q0 -2 -2 -5t-5 -3q-2 0 -3.5 2t-1.5 4v1q0 1 1 1v3t0.5 4.5t0.5 5v3.5v0v0q0 10 -1.5 21.5t-2.5 20.5q-1 2 -2.5 4.5t-1.5 5.5zM166 181h2.5
t1.5 3q0 1 1 5l2 8l2 8t1 6q1 2 1 8.5t1 13t3 11.5t5 5t4 -2.5t1 -4.5q0 -1 -0.5 -2.5l-0.5 -1.5l-15 -69q-1 -5 -4 -7.5t-6 -3.5t-7.5 -2t-7.5 -1q-2 -2 -3 -5t-1 -5v-1l1.5 -2.5t2.5 -2.5h22q4 0 7.5 6t6 14.5t5 19t4.5 19t4.5 14t5.5 5.5q2 0 3 -2t1 -4q0 -3 -1.5 -10
t-4 -15.5t-5.5 -17.5t-7 -16.5t-8 -12.5t-7 -6t-6.5 -1.5t-8 -0.5h-8h-5.5q-2 -1 -2 -4v-5v-6l2 -2h1h1q1 0 6 0.5t10 0.5t9.5 0.5t7.5 0.5q2 2 5.5 7.5t6.5 11.5t6 10.5t4 4.5q3 0 3.5 -0.5t0.5 -3.5v-1v-1q-3 -7 -7 -14.5t-8 -13.5l-2.5 -2.5t-2.5 -3t-2 -2.5l-1 -1h-38
l-2 -7v-13q0 -13 1 -25t1 -25q0 -4 -1 -7t-5 -3q-2 0 -3 2.5t-1 5.5t0.5 6l0.5 3q0 1 -0.5 4t-0.5 6t-0.5 6.5l-0.5 3.5v2v4.5v4.5v4q0 19 1 38.5t1 38.5q4 3 8.5 4t8.5 2.5t7.5 4t4.5 6.5l-1 2q-1 0 -2.5 0.5t-3.5 0.5t-3.5 0.5l-1.5 0.5q-1 0 -3.5 0.5t-6 1.5t-6 1.5
t-3.5 0.5q-3 2 -4.5 6t-1.5 7v3.5t2 2.5v34q0 3 1.5 4t3.5 1q3 0 4 -2.5t1 -4.5q0 -9 -1.5 -17.5t-1.5 -17.5q0 -5 1.5 -7.5t5.5 -2.5q3 0 4 4t1.5 9.5t1 12t1 12t1.5 9.5t3 4q3 0 4 -2.5t1 -5.5q0 -10 -2.5 -20t-2.5 -20q0 -4 1 -6.5t6 -2.5zM106 181q0 3 0.5 9t1 12.5
t1 12.5t0.5 8v3v5v5v3q0 2 1.5 3.5t3.5 1.5t4 -2.5t2 -3.5t-1 -3.5t-1 -3.5v-2.5t-0.5 -3.5l-1 -4l-0.5 -2v-10t-0.5 -14.5t-0.5 -14.5v-10q1 -3 -0.5 -4t-2.5 -1q-3 0 -4 2t-1.5 4.5t-0.5 5v4.5zM58 128q0 2 2.5 3.5t4.5 1.5q5 0 11.5 -0.5t13.5 -1t13.5 -1t11.5 -0.5
q0 -1 1.5 -2l1.5 -1q1 0 1 -1v0q0 -4 -3 -4h-5q-7 0 -13 0.5t-11.5 1.5t-12 1.5t-14.5 -0.5l-1.5 1.5t-0.5 1.5zM60 78v22q0 2 1.5 4t4.5 2.5t5.5 1t3.5 0.5q8 0 15 -0.5t16 -1.5q3 0 5 -2.5t3 -5.5t1 -6.5v-6.5v-2v-3q-1 -3 -5 -3q-3 0 -3.5 3t-0.5 7t-1 7.5t-4 4.5
q-1 0 -3.5 -0.5t-3.5 -0.5q0 -1 -0.5 -4t-0.5 -6v-6v-4l0.5 -1t0.5 -2.5t0.5 -2.5t0.5 -2q0 -3 2.5 -4l5 -2t5.5 -1.5t5 -3t4 -7t2 -12.5q0 -2 -0.5 -4l-1 -4t-1.5 -4t-3 -2q-4 0 -5 4.5t-1 9.5t-1 10t-5 6q-1 1 -3 0t-3 -1q0 -9 0.5 -17.5t0.5 -17.5q0 -4 -1.5 -5.5
t-4.5 -1.5q-2 0 -4 1t-2 4v38q0 2 -1.5 2h-2.5q-2 0 -4.5 -2.5t-2.5 -5.5q-1 -1 -1 -4t-0.5 -6l-1 -6t-0.5 -4l-2 -2t-2 -1v0h-1l-5 4v9v5t0.5 6.5t1.5 6.5t3 5q1 1 4.5 1t6.5 0.5t5.5 1.5t2.5 4v29l-1 0.5l-1 0.5l-1.5 0.5l-1.5 0.5q-3 0 -5 -3t-3 -6v-3t-0.5 -4t-0.5 -4
v-3q-2 -2 -3.5 -2.5t-4.5 -0.5h-2t-3 2zM151 83q0 4 2.5 7.5t7.5 3.5h33q1 0 1 -1.5v-1.5v-2t-1 -1h-32q-3 0 -3 -1.5v-3.5q0 -5 5 -6.5t11.5 -2l13 -1t8.5 -4.5q3 -6 3 -13v-13q0 -5 -4 -6.5t-9.5 -2t-11 0t-8.5 0.5h-13q-1 0 -1 1v2v1.5t1 1.5h3.5h4.5h5h3h4t6 0.5t6 1.5
t4 3v7q0 8 -2.5 10.5t-7 3.5t-10 1t-9.5 1t-7 4t-3 10zM153 52q0 2 2.5 3t5.5 1.5t6 0.5h4t4 -0.5t4 -0.5t2 -1l2 -2v-1v0l-1.5 -1.5l-0.5 -0.5h-25q-1 0 -2 0.5t-1 1.5v0z" />
</svg>
