<?xml version="1.0" standalone="no"?>
<!DOCTYPE svg PUBLIC "-//W3C//DTD SVG 1.1//EN" "http://www.w3.org/Graphics/SVG/1.1/DTD/svg11.dtd" >
<svg xmlns="http://www.w3.org/2000/svg" xmlns:xlink="http://www.w3.org/1999/xlink" version="1.1" viewBox="-10 0 266 256">
   <path fill="currentColor"
d="M137 195q2 0 7 1t10.5 2t10.5 2t7 1q1 0 3.5 0.5t4.5 1l4 1t3 2.5q0 1 2 4t3.5 6t2.5 5.5t2 3.5q0 2 0.5 6t1.5 8.5t2.5 8t4.5 3.5q4 0 5.5 -3.5t1.5 -6.5t-1 -6t-3 -6t-3.5 -6t-2.5 -6q-1 -1 -1.5 -3t-1.5 -4.5t-2 -4.5l-1 -2q-2 -3 -7 -5t-11 -3.5t-13 -2t-13 -1.5
t-10.5 -2.5t-5.5 -3.5q0 -3 -0.5 -9.5t-1 -14.5t-1 -15t-0.5 -9v-4v-8v-9v-7v-5v-8.5v-8.5v-5q2 -4 2 -11v-14t1 -13t5 -9q13 -1 23.5 -2t22.5 -1q7 0 13 1t12 1q2 0 3.5 -0.5t1.5 -2.5t-0.5 -3t-1.5 -2h-26h-14h-11.5h-12t-13.5 1q-4 1 -5.5 1.5t-2.5 3.5q-3 9 -4.5 17.5
t-2 18t-0.5 18.5v17q0 11 2 21t2 21l-0.5 1t-0.5 2t-0.5 2l-0.5 1v3v4q0 1 0.5 5.5l1 9t1 8.5t0.5 5q2 3 3.5 5t4.5 4zM67 175q3 0 4 1.5t1.5 3.5t1 4.5t0.5 3.5v4v7v7v5q0 7 2 16t5 16h1q3 0 4 -2.5t1 -5.5v0q0 -3 -0.5 -7l-1 -8t-1 -7t-0.5 -4q-1 -1 -1.5 -3.5l-0.5 -2.5
q0 -3 -1 -8t-1.5 -11.5t-1.5 -12t-1 -7.5q-1 -6 -5 -9.5t-8.5 -6t-8 -5t-3.5 -5.5q0 -1 0.5 -2.5t0.5 -2.5h3t4.5 -0.5t5 -0.5h3.5h1q4 0 7 4.5t5.5 11.5t4 16t2.5 17t1.5 14.5t1.5 8.5q0 2 0.5 5.5t1 7.5t1 7t0.5 4q0 3 0.5 4t2.5 1t3 -1t1.5 -3t0.5 -4v-3q0 -5 -1 -10
t-2.5 -9.5t-2.5 -9.5l-2 -10q0 -2 -1 -7t-1.5 -11t-1.5 -11t-1 -7q0 -1 -1.5 -5t-3 -7.5t-3 -6.5l-1.5 -3h-23l-1.5 -1t-2.5 -2l-0.5 -0.5l-0.5 -0.5v-14q7 0 15 -0.5t16 1.5q3 1 6 6.5t5.5 13t4 16.5t3 16t2.5 12t2 5q4 0 4.5 -3t0.5 -5t-1 -7.5t-2.5 -12.5t-3.5 -15
t-4 -15t-5 -11.5t-6 -6.5q-2 -1 -8 -1.5t-12.5 -1t-11.5 -1t-5 -2.5v-3t-0.5 -4t-0.5 -4v-3v-9t0.5 -7.5t1 -8t0.5 -9.5q1 0 1.5 -1l0.5 -1q0 -1 1.5 -1.5l1.5 -0.5h33v-7h-33l-5 -5v-15l-2 -2l-3 -3v0h-1l-2.5 1.5t-2.5 2.5l0.5 3l0.5 3v64v7q0 2 -0.5 7t-0.5 11v11.5v7.5
v3.5t0.5 5t0.5 5.5v4l6 4l6 4l6 4t5 5q0 4 -3.5 5t-8 1h-8.5t-6 2q-1 2 -2 5t-1 6v6v5v5v8.5t0.5 11.5t0.5 11.5v7.5q1 0 1.5 0.5l0.5 0.5l1 1l0.5 -0.5l0.5 -0.5q1 0 2 -1.5l1 -1.5v-51q0 -4 2.5 -6t5.5 -2h4v9.5t0.5 13.5t0.5 14v9v15l1.5 1.5t1.5 0.5t2 -0.5t2 -1.5v-13
v-13q0 -1 -0.5 -5t-0.5 -9t-0.5 -9.5t-0.5 -5.5t0.5 -4t1.5 -4h1zM183 157q0 9 5.5 13t14.5 4q7 0 10 -2.5t4.5 -7t1.5 -9.5v-11q0 -8 -1 -14.5t0 -15.5q-1 -2 -2 -3.5t-4 -1.5q-2 0 -3 0.5t-1 2.5q0 3 1 6.5t1 6.5q0 1 -0.5 3.5t-0.5 3.5q-1 1 -3 1.5t-4 0.5q-4 0 -6.5 -2
t-3.5 -5t-1 -6v-7l-1 -1.5t-2 -1.5l-1.5 0.5t-1.5 1.5q0 2 -0.5 7.5t-0.5 11.5t-0.5 11.5t-0.5 7.5v6zM144 141v5.5v7.5t0.5 7.5t1.5 5.5q0 1 1 2t2 1h20l5 -4v-2t0.5 -4t0.5 -4.5v-4.5v-2v-3v-4v-4v-13t-1 -14l-2 -2t-2 -1h-1q-1 0 -2 1t-1.5 3t-0.5 4v1q0 1 1 3.5t1 3.5v3
v2v3.5t-0.5 3t-1.5 1.5h-11l-3 -4v-14q0 -2 -0.5 -3.5t-3.5 -1.5h-0.5h-0.5q-2 7 -2 13.5v13.5zM191 142q1 0 3 0.5t5 0.5h4h3t2 0.5t1 1.5l0.5 2t0.5 3v4t-1 5.5t-2 4.5t-4 2q-5 0 -7.5 -2.5t-3.5 -6t-1 -7.5v-8zM151 164v-17q0 -2 2.5 -3l2.5 -1v0q4 0 7.5 1.5t3.5 4.5
v3.5v5t-1 4.5t-2 2h-13zM154 73v6.5t1 8t3.5 6.5t6.5 3h25l1.5 -1.5t1.5 -2.5q1 -1 3 -4t2 -4v-30q0 -3 -2 -5.5t-5 -4.5q-2 1 -2 3.5t-1 5.5t-3 5t-8 2h-3h-4.5t-4.5 -0.5t-2 -1.5v-12q0 -2 -2 -2h-2h-2t-1 2q-1 4 -1.5 7t-0.5 6v6v7zM164 88q-1 -3 -2.5 -7t-1.5 -7
q0 -1 0.5 -3t1.5 -2h21q2 0 4.5 2.5t2.5 4.5t-0.5 4.5t-1.5 4.5t-2.5 3.5t-4.5 1.5h-1q-1 0 -3.5 -0.5t-5 -0.5t-4.5 -0.5t-3 -0.5zM103 31v16q0 2 -2 3.5t-4.5 2t-5 0.5h-2.5q-2 0 -4.5 0.5t-4.5 1l-4 1l-2 0.5q-1 1 -2 1.5t-2 2t-2 2.5l-1 1v14q0 2 5 3.5t11.5 3t12.5 2
t9 0.5v-7l-1.5 -0.5t-3.5 -1t-4.5 -1t-3.5 -0.5t-3 -0.5t-4.5 -0.5t-4.5 -0.5t-3 -0.5q-2 -1 -3 -2.5t-1 -3.5q0 -4 6 -7q10 -1 16.5 -1.5t10 -3t5 -8t1.5 -15.5q0 -6 -3.5 -9.5t-8.5 -4.5t-11 -1h-10h-3h-3h-3h-3t-1 1.5v2.5v2.5t3 1.5h31z" />
</svg>
