<?xml version="1.0" standalone="no"?>
<!DOCTYPE svg PUBLIC "-//W3C//DTD SVG 1.1//EN" "http://www.w3.org/Graphics/SVG/1.1/DTD/svg11.dtd" >
<svg xmlns="http://www.w3.org/2000/svg" xmlns:xlink="http://www.w3.org/1999/xlink" version="1.1" viewBox="-10 0 266 256">
   <path fill="currentColor"
d="M166 186q0 7 -1 12.5t-2.5 11t-3.5 11t-4 11.5q-2 5 -4.5 9.5t-2.5 10.5q1 0 5 -0.5t5 -0.5q2 0 4.5 -5.5t4 -12.5t2.5 -13.5t1 -8.5q1 -2 1.5 -6t1 -9t1 -9.5t0.5 -5.5q0 -3 -0.5 -5.5t1.5 -4.5q4 -2 6.5 -3.5t5.5 -1.5t4 2.5t1.5 6t0.5 6.5v4v1.5v0.5q-1 2 -1.5 5.5
t-1 9t-1 11.5t-1.5 11.5t-1.5 9.5t-0.5 6v2q0 3 3 3t5 -5t3.5 -12.5t2 -16t0.5 -17v-14.5v-10v-13q0 -5 -5 -5q-2 0 -4 1.5l-4 3t-4.5 2.5t-4.5 1h-2.5h-1.5q-2 -5 -3 -10.5t-2 -10.5q-1 -3 -3.5 -7t-2.5 -8v-0.5v-0.5l1.5 -0.5l1.5 -0.5q2 -2 4 -6.5t4 -5.5q1 0 3 -0.5
t4 -1.5t4 -1.5t3 -0.5v-1q0 -2 -1.5 -2.5t-3.5 -0.5q-3 0 -9.5 1t-14 1.5t-13 1.5t-5.5 3q0 1 0.5 2l0.5 1h21q-1 6 -6.5 9.5t-12 6.5t-11.5 6.5t-5 8.5q5 0 9 -2t6.5 -4t4.5 -4t4 -2q3 0 4.5 1.5t2.5 4t1.5 5t0.5 4.5q0 1 -1.5 3t-3.5 3t-4 2.5t-3 2.5l-3.5 3.5t-5.5 5
t-5.5 5l-3.5 3.5v1v1q1 0 2 0.5t2 1.5v0h1q1 -1 2 -1.5l1 -0.5l19 -18h1h2q4 0 4.5 1.5t0.5 5.5q0 3 -3.5 7t-9.5 9t-12 9.5l-12 9t-9.5 8t-3.5 5.5l0.5 0.5l0.5 0.5h12q1 -1 3.5 -4t6 -6t6 -6t4.5 -4q0 -1 1.5 -2t3 -2.5t3 -2.5t1.5 -1.5t1.5 -2l1.5 -1.5h2q3 0 3 4z
M48 213l0.5 3t0.5 6t0.5 6.5t0.5 4.5v4t1 4.5t2 3.5t4 1q2 0 3.5 -1t1.5 -3q0 -9 -1.5 -18.5t-1.5 -18.5v-5t0.5 -8t1.5 -7t4 -3t4.5 4.5t2 11t0.5 12v7.5t0.5 5.5t1.5 7.5t1.5 8t1.5 5q0 1 1.5 1.5t2.5 0.5q2 0 2.5 -2t0.5 -5q0 -7 -1 -14t-2.5 -13.5t-2.5 -13.5t-1 -15
q0 -2 1 -4t4 -2q4 0 6 5l7 36q2 3 2 7q0 5 0.5 9.5t1.5 8t5 3.5q3 0 3.5 -1.5t0.5 -5.5v-2.5v-2.5l-1 -3.5t-1.5 -7t-1.5 -6.5l-1 -3q0 -4 -2 -12t-5 -16.5t-5.5 -16t-4.5 -10.5q-1 0 -3 -2.5t-4 -4.5l-4 -4l-3 -3t-3 -2.5t-4 -2.5t-3 -3t-1 -4t0.5 -4t2.5 -3h3.5h3.5h6t6 2
q1 1 3 4t3.5 6t3 6.5t2.5 5.5q1 3 2.5 9.5t3.5 13.5t4.5 12t5.5 5t3 -2v-5q0 -2 -1.5 -7t-4 -11.5t-5.5 -14t-6 -13.5t-5.5 -10.5t-3.5 -5.5q-3 -2 -7 -2h-8.5t-7.5 -1.5t-3 -6.5q0 -3 2 -4.5t4.5 -3t5.5 -1.5h5h4h5.5t5 1.5t3.5 3.5q1 1 2 5.5t2.5 9t3 8.5t1.5 5q2 4 3 6.5
t4 2.5q5 0 5 -4q0 -7 -3 -12.5t-5 -11.5q-4 -8 -7.5 -13t-8 -7t-11 -2.5t-16.5 0.5l-1 -2v-2v-5v-15.5t1 -16.5q2 -4 7.5 -5t11 -1t10 -1t4.5 -4v0q0 -1 -1 -1.5t-2 -0.5h-4h-7h-7h-4q-2 -1 -4 -1.5t-2 -3.5v-18q0 -1 -2 -1h-2q-2 0 -3.5 0.5t-2.5 2.5q-1 14 -1.5 26.5
t-1.5 25.5q-1 12 -2.5 23.5t-1.5 22.5q0 6 -0.5 13t3.5 12q2 3 6.5 6t8.5 6.5t7.5 6.5t3.5 7v1v0q-3 3 -6.5 3.5t-7.5 1.5t-8.5 3.5t-8.5 8.5q0 2 -0.5 6t-0.5 8t-0.5 8t-0.5 6zM152 75h41l0.5 1l0.5 1q3 4 3 8v8q0 1 0.5 4.5t0.5 7.5v8v5q3 0 4.5 -1.5t2.5 -4.5v-2.5v-3.5
v-4v-3v-5v-7.5v-7t-1 -5.5q-1 -3 -3 -4t-4.5 -2t-4 -2t-1.5 -3q0 -4 1.5 -5t3 -1.5t4 -0.5t4.5 -1.5t3 -5.5t1 -12v-2v-3.5v-3.5v-2t-1 -1.5t-2 -0.5q-3 0 -4 4t-1 8.5t-0.5 8t-3.5 3.5h-2t-1 -1v-34q0 -1 -2 -1.5t-3 -0.5q-2 0 -2.5 1.5t-0.5 3.5v4v3t-0.5 4.5t-0.5 7
t-0.5 7t-0.5 5.5h-1h-1q-2 0 -3 -0.5t-1 -3.5l-0.5 -2.5t-0.5 -5t-0.5 -4.5t-0.5 -3q-2 0 -4 2l-4 4q0 -1 -2 -2.5t-2 -2.5h-0.5h-0.5v5t-1 6.5t-2.5 5.5t-4.5 2h-2t-2 -1v-4.5v-4.5v-5v-4l0.5 -1t0.5 -2t0.5 -2l0.5 -1q0 -2 -1.5 -3.5t-3.5 -1.5q-1 0 -2 0.5t-1 2.5v26
q0 1 -1.5 1h-2.5q-4 0 -4.5 -3t-0.5 -7t-1 -7t-6 -3q0 9 0.5 13.5t2 7t4.5 5l9 7.5v1v1q0 1 -0.5 4t-1.5 3q-4 2 -8.5 4t-6.5 6q-1 9 -2.5 18t-1.5 18q8 0 10 -7v-18q0 -5 1.5 -7t4 -3t6 -2t7.5 -4zM183 88h-6h-7.5h-9h-5.5t-2.5 0.5t-3.5 0.5t-3 0.5l-1 0.5v3h19t19 -2v-3z
M72 69q0 3 0.5 6.5t4.5 4.5q7 2 16 2h17v-7h-5.5t-7 -0.5t-7 -0.5h-4.5q-4 -1 -5.5 -1t-1.5 -3t3 -5t7 -2.5t8.5 -1t8.5 -1t7 -1.5t3 -4l1 -21q1 -3 -2 -6.5t-5 -3.5h-32l-0.5 0.5t-0.5 1.5l-0.5 0.5l-0.5 0.5q0 1 2 2.5t3 1.5h24q2 0 3 1t1.5 2.5t0.5 3.5v3q0 4 -1 7t-4 5
q-7 1 -14.5 2t-13.5 3q-4 2 -4.5 4.5t-0.5 6.5zM148 63q0 -1 0.5 -2t0.5 -2q4 -2 6.5 -4t4.5 -4t3.5 -5t2.5 -7q0 -1 0.5 -1.5l0.5 -0.5q3 4 4 7.5t2.5 6.5t4 4.5t7.5 1.5q0 5 -2.5 7.5t-6 3t-7.5 0.5h-8h-11q-1 -1 -1.5 -2.5t-0.5 -2.5z" />
</svg>
