<?xml version="1.0" standalone="no"?>
<!DOCTYPE svg PUBLIC "-//W3C//DTD SVG 1.1//EN" "http://www.w3.org/Graphics/SVG/1.1/DTD/svg11.dtd" >
<svg xmlns="http://www.w3.org/2000/svg" xmlns:xlink="http://www.w3.org/1999/xlink" version="1.1" viewBox="-10 0 266 256">
   <path fill="currentColor"
d="M148 248q0 2 1.5 2.5t2.5 0.5q4 0 6.5 -4t3.5 -9.5t1.5 -10.5t0.5 -8q0 -1 0.5 -3.5t0.5 -5.5t0.5 -5t0.5 -3v-6v-9v-8v-6l4 -4h15v5v8.5v8.5v6v1.5t0.5 3t0.5 3v1.5v2t-0.5 2.5t-0.5 2.5v1v1v1l1 2t1 3v28l1.5 0.5t2.5 1.5h2q2 0 3 -1.5t1 -3.5v-4v-3q0 -17 -2 -33
t-2 -33q0 -4 1.5 -6.5t4 -4.5t4.5 -4.5t2 -6.5v-49q0 -4 -3 -5t-7 -2l-8 -2t-5 -4v-7q0 -13 0.5 -24.5t0.5 -24.5l0.5 -3t0 -6.5t-1 -6t-3.5 -2.5q-2 0 -3 1t-2 4q-2 17 -2 36v35q0 1 -1 2.5t-2 2.5q-10 1 -15.5 3t-7.5 7t-2.5 11.5t-0.5 16.5q0 8 1.5 15.5t5.5 14.5
q0 1 1.5 1.5t3 0.5t2.5 1t1 2v31q-3 6 -3.5 12t-1.5 12l-2 12t-3 12v0zM109 244q1 3 2 3.5t3 0.5q3 0 3.5 -2t0.5 -5q0 -4 -1.5 -6.5t-3.5 -5.5q-2 -7 -5 -14.5t-5 -15t-3.5 -15t-1.5 -14.5v-0.5v-0.5q3 -2 7.5 -3.5t9 -3.5t7.5 -4.5t3 -7.5v-5q-1 -3 -1 -6t-0.5 -6.5
t-0.5 -6v-2.5l-5 -5q-3 2 -4 5t-2.5 5t-4.5 3.5t-10 1.5q-4 0 -7 -2t-3 -6v-2l8 -8v-17q0 -1 2 -1.5l2 -0.5q4 0 7.5 1.5t6.5 2.5t6.5 2.5t7.5 1.5q0 -6 -3.5 -7.5t-8.5 -3.5l-19 -6l-1.5 -1.5t-0.5 -1.5q0 -2 2 -5t4.5 -5.5t5 -4t4.5 -1.5q4 0 6.5 3t4.5 7t4 7.5t5 3.5
q2 0 2.5 -2t0.5 -3q0 -3 -2 -7t-5.5 -8t-7 -6.5t-6.5 -2.5q-2 0 -3 1t-2 1.5t-2 1.5t-3 1q-1 0 -2 -0.5t-1 -2.5v-24q0 -1 0.5 -2t1.5 -1h1v0q1 0 5.5 2.5t9.5 5l9 4.5t5 2t3 -1.5t2 -2.5v-1l-2 -3q-8 -4 -15 -7t-15 -5q-2 -1 -3 -4.5t-1 -7t-1 -6.5t-4 -3q-2 0 -3 3
t-1.5 6.5t-1 7.5t-1.5 5t-6.5 3t-12.5 4.5t-12 5t-5 5.5t2 3h3q4 0 7.5 -2t6.5 -4.5t6.5 -4.5t8.5 -2q1 0 2 1t1.5 2.5t0.5 2.5v2v3q0 2 -0.5 6t-1 8.5t-1 8.5t-0.5 5q-2 -1 -4 -4t-4.5 -6t-5 -5t-5.5 -2q-2 0 -5.5 3.5t-7 8t-6 9t-2.5 6.5q0 1 0.5 2t1.5 1q5 0 7 -3
t3.5 -6.5t3.5 -6.5t5 -3l2.5 2t6 5t6 5t2.5 3v1q-7 6 -15 9t-15 8q0 1 -1.5 3.5t-1.5 3.5q-1 2 0.5 2.5t2.5 0.5q4 0 7.5 -3t6.5 -6t6.5 -6t7.5 -3h2q1 4 1.5 7.5t0.5 7.5v4t-0.5 4t-2 3t-4.5 1v13l-3 2q-3 0 -7.5 -0.5t-9 0.5t-7.5 3t-3 7q7 0 13.5 -1.5t13.5 -1.5
q4 0 6 1.5t2 5.5v2v3.5t-0.5 2.5t-1.5 1l-28 7q-4 1 -5 3.5t-1 6.5q10 0 19 -3.5t19 -5.5q3 9 5.5 18.5l5 19t5 18.5t6.5 18zM153 153q0 -5 4.5 -7t11 -2.5t12.5 -0.5h9q4 0 5 0.5t1 4.5q0 1 -0.5 3l-1 4t-2 3t-3.5 1h-31q-4 0 -4.5 -2t-0.5 -4zM93 147q0 -2 2 -3.5t4.5 -3
t5.5 -2t5 -0.5q3 0 4 2.5t1 5.5q0 7 -4.5 9.5t-11.5 2.5h-5q0 -4 -0.5 -6t-0.5 -5zM155 124q9 1 18.5 0t19.5 -1q1 0 2 1t1.5 2.5t0.5 3v2.5q0 2 -5.5 3.5t-13.5 1.5h-15.5h-10.5v-2t0.5 -4l1 -4t1.5 -3zM153 112q0 -3 3 -5t7.5 -3.5t9 -2.5t6.5 -1q3 0 5.5 0.5t4.5 1
t3.5 2.5t1.5 5v2v2q-2 2 -6 2.5t-9 1t-9.5 0t-6.5 -0.5h-7l-1.5 -1t-1.5 -2v0v-1zM150 67q0 7 -1 13.5t-1 14.5q2 0 3.5 -2t2.5 -4.5t1.5 -4.5t0.5 -4q0 -1 0.5 -3.5t0.5 -4.5t0.5 -4l0.5 -2q0 -2 -0.5 -6.5l-1 -9t-2.5 -8t-5 -3.5q-2 0 -2 1.5v2.5q0 6 1.5 12t1.5 12z
M204 34v0q-1 1 -2.5 2l-1.5 1v51l0.5 0.5t1.5 0.5t2.5 -1t2.5 -2v-7t0.5 -11.5t0.5 -11.5v-8v-1v0v-2v-4t-0.5 -4t-2.5 -3h-1z" />
</svg>
