<?xml version="1.0" standalone="no"?>
<!DOCTYPE svg PUBLIC "-//W3C//DTD SVG 1.1//EN" "http://www.w3.org/Graphics/SVG/1.1/DTD/svg11.dtd" >
<svg xmlns="http://www.w3.org/2000/svg" xmlns:xlink="http://www.w3.org/1999/xlink" version="1.1" viewBox="-10 0 266 256">
   <path fill="currentColor"
d="M85 225q3 2 4.5 6t3 8.5t4 8t5.5 3.5t4 -2.5t1 -4.5v-4q-10 -11 -14 -22.5t-4 -25.5q0 -8 1.5 -15t3.5 -14.5t3.5 -15t1.5 -14.5q0 -1 -0.5 -4t-1 -6.5t-1.5 -6t-3 -2.5q0 15 -1.5 30t-8.5 29v4.5t-0.5 5.5t-0.5 5.5v4.5v8v7.5t0.5 7.5t2.5 9zM58 223q0 8 3.5 12t11.5 4
q0 -8 -2.5 -15.5t-2.5 -16.5q0 -6 0.5 -11t0.5 -11v-1q0 -1 -0.5 -3t-0.5 -3h-2q-4 0 -6 3q0 11 -1 21t-1 21zM103 180q0 3 1 8t2 11.5t3 13.5t4 13t4.5 9.5t4.5 3.5q3 0 4 -2.5t1 -4.5t-0.5 -3t-1.5 -2l-2 -2t-2 -3q-2 -3 -3.5 -10t-3.5 -14t-4.5 -12.5t-6.5 -5.5zM149 100
q0 4 -0.5 10.5t-0.5 13.5t1 14.5t2.5 13.5t5.5 11t9 7q2 0 5.5 0.5t4.5 0.5q5 0 10.5 -1t10 -3t8 -5.5t4.5 -9.5v-5v-9.5v-8.5v-6v-23q0 -11 -1 -24l-1 -2t-1.5 -3.5t-2 -3t-2.5 -1.5h-36q-3 0 -6 1.5t-5 4.5t-3 6l-2 6v16zM103 166v1l1.5 1.5l0.5 0.5h1q4 0 7 -3t5.5 -7
t3.5 -8t1 -7q0 -6 -2.5 -9.5t-9.5 -3.5q0 4 2 7t2 7q0 3 -2 6l-4 6t-4 5t-2 4zM68 150q0 3 -1 5l-2 4l-2 4t-1 5q4 0 7 -2t4.5 -4.5t2.5 -6t1 -6.5q0 -7 -3 -11t-9 -8v-1q0 -2 1.5 -3.5t3.5 -3t4 -2.5t3 -2l2 -2t3 -2q0 -1 2 -2.5t4 -2.5t3.5 -2.5t2.5 -1.5h3q4 0 8.5 3.5
t8.5 7.5l7.5 7.5t8.5 3.5q4 0 4 -4q0 -3 -4.5 -6.5t-10 -7.5l-11 -8t-6.5 -7l0.5 -2t1 -4.5t1 -4t0.5 -2.5h2l1.5 1t3.5 2l4 2t3 2q1 0 3 2.5l2 2.5h0.5h0.5q3 0 4.5 -2t1.5 -4q0 -4 -5 -6.5l-11 -5.5t-11 -6t-5 -7q0 -3 2.5 -4.5t6 -2l7 -1t4.5 -1.5q3 -3 4.5 -6.5t2 -7.5
t0.5 -8v-7h-5t-5 2v7t-0.5 7.5t-2.5 5.5t-7 2h-4v-4t-0.5 -6t-0.5 -5.5v-3.5q-1 -3 -1 -6t-1 -6t-3.5 -4.5t-6.5 -1.5l-4.5 0.5t-9 2l-9 3t-4.5 3.5q0 3 1.5 3.5t4.5 0.5q5 0 9.5 -0.5t9.5 -0.5q2 0 4 0.5t2 3.5v19q0 4 -2.5 4.5t-4.5 0.5q-6 0 -8 -3t-3.5 -7.5l-2.5 -7.5
t-4 -3t-3.5 2t-0.5 4q0 7 2 12t8 9h6t6 1t5 3.5t2 5.5q0 1 -5.5 4t-12 7.5t-12.5 9t-8 8.5q1 1 1.5 1h1.5q5 0 8.5 -3t7.5 -6t7.5 -6t8.5 -3q1 0 2 2.5t1.5 5.5t0.5 5.5v2.5q0 2 -2 4t-5.5 4l-7 4t-5.5 2q-1 1 -3.5 3t-5.5 4.5t-5.5 4.5t-3.5 3q-2 2 -4.5 3.5t-2.5 5.5
q0 2 3 2.5t6.5 1.5t6.5 3.5t3 9.5zM171 120l28 1q1 0 1.5 1t0.5 2v1.5t-0.5 2.5l-1 2l-0.5 1q-1 9 -1 14.5t-2 9t-6.5 5t-14.5 1.5h-9q-2 0 -4.5 -3.5t-2.5 -5.5v-26q0 -2 1.5 -3t3.5 -1.5l4 -1t3 -0.5zM159 111v-29q0 -3 4 -5t9.5 -2.5t10.5 -1t7 -0.5q4 0 6 4t3 9.5
t1 10.5v7q0 3 -0.5 4.5t-3.5 3.5q-7 1 -14.5 1.5t-15.5 0.5h-2h-2z" />
</svg>
