<?xml version="1.0" standalone="no"?>
<!DOCTYPE svg PUBLIC "-//W3C//DTD SVG 1.1//EN" "http://www.w3.org/Graphics/SVG/1.1/DTD/svg11.dtd" >
<svg xmlns="http://www.w3.org/2000/svg" xmlns:xlink="http://www.w3.org/1999/xlink" version="1.1" viewBox="-10 0 266 256">
   <path fill="currentColor"
d="M41 247q0 2 0.5 3t3.5 1q4 0 8 -5t8 -12t8 -15.5t7.5 -16t6.5 -12.5t5 -5q3 0 5.5 5t5 12t5.5 15t5.5 15.5l4 12t3.5 4.5q3 0 5 -2.5t2 -6.5q0 -3 -1 -6.5t-3 -6.5l-4 -6l-4 -6q0 -1 -1.5 -4t-3 -6.5t-3 -6.5t-1.5 -4v-2q-5 -13 -7 -26.5t-2 -27.5q0 -4 1 -6t1 -5
t-1.5 -5t-4.5 -2h-1h-1q-2 7 -2.5 14t0 14t0 14t-2.5 13q-2 4 -5.5 10t-8 13.5t-9.5 15t-9 14.5t-7 12t-3 7zM45 198q0 2 0.5 3.5t2.5 1.5q6 0 10 -7t7 -15.5t4.5 -16.5t1.5 -10q0 -1 0.5 -3t0 -4.5t-1.5 -4t-3 -1.5q-1 0 -1.5 0.5l-0.5 0.5q-1 14 -5 26.5t-12 23.5
q-1 2 -1.5 2.5l-1 1l-0.5 0.5v2zM108 147q0 4 1 12.5t3.5 17.5t6 15.5t7.5 6.5q2 0 3.5 -0.5t1.5 -3.5q0 -2 -1 -5t-3 -6t-3.5 -6l-2.5 -5q-1 -1 -2 -6.5t-3 -11t-3.5 -10t-2.5 -4.5q-2 0 -2 2.5v3.5zM132 160q0 1 0.5 2t3.5 1h10q17 0 35 -1.5t35 -1.5q2 -1 2 -2v-2v-2
t-2 -1h-13q-17 0 -34 1t-35 0l-1.5 3t-0.5 3zM91 73q-2 0 -2.5 3.5t-0.5 7.5v9q0 4 -2 6q-2 4 -5 7t-7 5.5t-7.5 5t-6.5 5.5q-2 1 -4 3.5t-4 4.5l-3.5 3.5t-1.5 2.5v3q8 0 14 -5t11 -11.5t9 -11.5t8 -5t9 4.5t9.5 9.5t9.5 9.5t9 4.5q2 0 3.5 -1.5t1.5 -3.5q0 -3 -3.5 -6.5
t-7.5 -6l-8 -5t-6 -3.5q-4 -3 -6 -9t-3.5 -11.5t-2.5 -10t-3 -4.5zM179 39q-3 0 -7.5 1t-9 3t-7.5 5t-3 8v55q0 7 2 11.5t6 7t8.5 3.5t9.5 1q12 0 18.5 -3.5t9.5 -10t3.5 -15.5t0.5 -19q0 -11 -0.5 -20t-3 -15t-9 -9t-18.5 -3zM159 106v-2t0.5 -4.5t0.5 -4.5t1 -2
q4 -4 10 -4h12h12q4 3 5 7q0 6 -1 11.5t-2.5 9.5t-5.5 6t-11 2q-3 0 -7 -1.5t-7 -4t-5 -6t-2 -7.5zM65 79q1 10 -2 15t-6.5 8l-7 6t-3.5 10q5 0 10 -2.5t8.5 -6.5t6 -9.5t2.5 -10.5v-3v-5t-1 -4t-2 -2t-3 1t-2 3zM106 78q0 4 1.5 9t4.5 9.5t7.5 7t8.5 2.5q3 0 4 -1t1 -4
q0 -1 -0.5 -2t-1 -1t-2 -0.5t-3.5 -1.5q-3 -2 -5 -5t-4.5 -6t-5 -5t-5.5 -2zM162 80q-3 -1 -3.5 -2.5t-0.5 -3.5q0 -5 0.5 -8.5t1.5 -6.5t3.5 -4.5t6.5 -3.5q3 -1 5.5 -2t5.5 -1q6 0 9.5 3t5.5 7.5t2 9.5v10v2q-1 0 -3 0.5t-5 1t-5 0.5h-3h-4h-7t-9 -2zM51 38q0 4 1 9.5
t3.5 11t6 9.5t8.5 4q4 0 13 -1t18.5 -3t17 -4.5t8.5 -7.5q2 -4 2 -9v-9v-2v-3.5v-3.5v-2q-7 -10 -15.5 -12.5t-20.5 -2.5h-5.5t-9.5 1t-8.5 2t-4.5 2l-1.5 2t-2.5 3q-2 2 -4 3.5t-3.5 2.5t-2 3.5t-0.5 6.5zM76 57v-4q1 -1 1.5 -3l0.5 -2v-5v-7v-7.5v-4.5q1 -2 2 -2h2
q4 0 4 2v5q0 1 0.5 5t0.5 8.5t0.5 8.5t0.5 5v1q0 4 -2 5t-5 1t-4 -1t-1 -5zM96 60q1 -5 0.5 -8.5t-1 -6.5l-1 -6t-0.5 -8v0q0 -1 0.5 -2.5t0.5 -3.5t1 -3.5t3 -1.5q3 0 4 5t2 11t1 11.5v7.5q0 3 -1.5 5t-4.5 2h-2t-2 -2zM61 46v-8q0 -5 4 -7l5 5v15l-5 5l-4 -3v-3v-4z
M111 37v-4v-4q1 -2 1.5 -2h1.5q2 0 3.5 1.5t2.5 3.5t2 4.5t1 4.5v3t-0.5 4t-1.5 3.5t-3 1.5q-3 0 -4.5 -2t-2 -4.5t-0.5 -5.5v-4z" />
</svg>
