<?xml version="1.0" standalone="no"?>
<!DOCTYPE svg PUBLIC "-//W3C//DTD SVG 1.1//EN" "http://www.w3.org/Graphics/SVG/1.1/DTD/svg11.dtd" >
<svg xmlns="http://www.w3.org/2000/svg" xmlns:xlink="http://www.w3.org/1999/xlink" version="1.1" viewBox="-10 0 266 256">
   <path fill="currentColor"
d="M71 246q0 5 4 5q3 0 4.5 -4t3 -9.5t2 -13t1 -14t1 -12t1.5 -7.5l3 -62l3 -0.5t4 -0.5q3 -1 5 -1.5t3.5 -0.5h2.5h3h2.5t3 0.5t2.5 1t1 1.5v11l-0.5 0.5t-1.5 0.5q-3 2 -5.5 3.5t-5 2.5t-4.5 2.5t-4 4.5q0 1 -0.5 4t-0.5 4q0 7 2.5 12.5t2.5 11.5v2v1q0 1 -1 2.5t-2 3.5
l-2 4l-1 2q0 2 -1.5 5.5t-3 8t-2.5 8t-2 5.5v0v1q0 2 0.5 3.5t2.5 1.5q3 0 4.5 -2.5t2.5 -6.5t2 -8.5t2 -8t2.5 -6t3.5 -2.5q1 0 2 1t2.5 2t2.5 2t3 1t2.5 -1t0.5 -3t-1.5 -3.5l-3 -3t-2.5 -3t-1 -3.5q1 -2 3 -3.5t4.5 -3t5 -2t3.5 -0.5q3 0 5 1.5l4 3t4 4t3 3.5v1.5v1.5
q0 3 -1.5 5.5t-3.5 4.5t-4 5t-2 7q0 5 2.5 11t6 11t8 8.5t10.5 3.5h2.5h2.5q1 -2 1 -5t-3.5 -5t-8 -4.5t-8.5 -6.5t-4 -10q0 -7 4.5 -12.5t9.5 -10.5v-2q0 -4 -2.5 -7t-5 -5t-5.5 -4.5t-4 -6.5q2 -2 5.5 -3.5t6.5 -3t5.5 -3.5t2.5 -5q0 -5 -2.5 -8t-2.5 -8q0 -1 1 -2
t2.5 -1.5t2 -1t0.5 -2.5t-1.5 -2h-2.5q-5 0 -10 2t-11 2q-1 0 -4 -0.5l-3 -0.5q-1 0 -1.5 -1t-0.5 -2v-2v-1v-4q2 -1 7 -1.5t11 -1t11 -1t7 -0.5h2q3 0 4.5 2t2 4t0.5 4.5v5.5q0 1 0.5 4.5t1 8t1 10t1.5 10.5t1.5 8.5t0.5 4.5v4q1 9 2.5 16.5t2.5 14.5t1.5 14.5t0.5 15.5
q1 0 2.5 0.5t2.5 0.5v0h1q2 0 3.5 -1.5t1.5 -3.5v-1.5v-0.5q0 -2 -1 -5t-1.5 -7t-1 -7.5t-1.5 -4.5v-3.5t-0.5 -6t-1 -6t-2.5 -4.5q-2 -22 -5.5 -44.5t-3.5 -44.5q0 -8 3.5 -13t7.5 -8.5t7.5 -7t3.5 -7.5q0 -2 -3 -5.5t-7.5 -7.5t-9.5 -6.5t-7 -2.5t-5 3t-6.5 7.5t-6.5 8.5
t-4 5q0 2 2 4l3.5 3.5l3 3t1.5 4.5v1l-1 0.5t-2 0.5h-19l-2 -1v-2.5v-2.5q0 -7 0.5 -13.5t1.5 -14.5l3 -3.5t6.5 -7.5t6 -7.5l2.5 -3.5q0 -2 -3.5 -5.5t-8 -7t-9 -6t-6.5 -2.5t-6 4l-8.5 8.5t-8 9.5t-3.5 6q0 3 4 5t8.5 3.5t8.5 4t4 7.5v26l-2 5h-2.5t-5.5 0.5t-6 0.5h-5h-6
h-6q-1 0 -1.5 -0.5l-0.5 -0.5q0 -1 0.5 -2t1.5 -1q0 -1 1.5 -2.5l3.5 -3.5t3 -3.5t2 -1.5v-3q0 -3 -3.5 -5.5t-5.5 -4.5l-2 -2l-4.5 -4.5t-4 -4.5t-2.5 -2h-5l-1.5 1.5l-3.5 3.5l-3.5 3.5l-1.5 1.5q-2 2 -4 3t-4.5 2t-4 2.5t-2.5 3.5q-1 3 0.5 5.5t4 4t5 2.5t3.5 2l2.5 2.5
l3.5 3.5t4 3.5t2 2.5v20q0 24 -1 48t-3 48q-4 6 -4.5 14t-0.5 15zM107 164q0 -4 2.5 -9t7.5 -5q3 0 5 2t3 4.5t1.5 5.5t0.5 6q0 4 -4.5 7t-8.5 3q-2 0 -3.5 -1.5t-2 -4t-1 -4.5t-0.5 -4zM131 150q0 -6 3.5 -6.5t9.5 -0.5q1 0 2.5 1.5t2.5 3.5t1.5 4t0.5 3q0 3 -1.5 4.5
t-3.5 3t-4 2t-4 1.5q-5 -2 -6 -6.5t-1 -9.5zM91 112q0 -4 2 -6t5 -2.5t7 -0.5h7q9 -1 17.5 -2t18.5 -1h4h6.5h5.5h4q2 0 2 2.5v3.5v4t-2 4q-15 0 -30.5 2t-31.5 2h-14q-1 0 -1 -1t-0.5 -2t0 -2zM71 80v-6q0 -1 1.5 -2t4 -2.5t3.5 -2.5q1 0 2 -0.5l1 -0.5q2 0 4 1.5t4 3.5
t3 4.5t1 3.5q0 5 -3 9t-8 4h-0.5h-0.5zM162 77q0 -2 1.5 -4.5t3.5 -5t4 -4t3 -2.5h1v0q1 0 3 1.5t4.5 3.5t3.5 4t2 2v0.5v1.5q0 2 -1 4t-2.5 4.5t-3.5 4t-4 1.5t-4.5 -1t-5 -2.5t-4 -3.5t-1.5 -4zM120 40q0 -1 1.5 -3.5l3 -5t4 -4t3.5 -1.5q2 0 4 1t4 3l3.5 3.5t1.5 3.5
q0 1 -1 3.5t-3 4.5t-4 3t-4 1t-4 -0.5t-4 -1.5t-3.5 -2.5t-1.5 -4.5z" />
</svg>
