<?xml version="1.0" standalone="no"?>
<!DOCTYPE svg PUBLIC "-//W3C//DTD SVG 1.1//EN" "http://www.w3.org/Graphics/SVG/1.1/DTD/svg11.dtd" >
<svg xmlns="http://www.w3.org/2000/svg" xmlns:xlink="http://www.w3.org/1999/xlink" version="1.1" viewBox="-10 0 266 256">
   <path fill="currentColor"
d="M193 204h3h2l2 2l0.5 4t1.5 10l2 12t1 10v3.5v2.5t1.5 1.5t4.5 0.5t4.5 -2t1.5 -5q0 -5 -1.5 -9t-3 -8.5t-2.5 -8.5t-2 -9l-2 -22t-1 -23q0 -5 1 -10t1 -11q0 -9 -1 -18.5t-1 -18.5v-3v-4.5v-4.5v-3q1 -2 1.5 -3.5t0.5 -4.5t-1 -7t-2.5 -7.5t-4 -6t-6.5 -2.5h-38l-0.5 -1
t-1 -2.5t-0.5 -3.5v-2q0 -6 3 -10t9 -4q3 0 3.5 0.5t1 1.5t1 2.5t2.5 2.5q3 2 6.5 3t7.5 1.5t8 0.5h7h3.5t1.5 -3t-2.5 -4t-5 -1h-6h-6.5t-5 -1t-2 -4v-1v-1q6 -2 13 -2.5t14 -1.5v-1v-1q-1 0 -2 -1.5t-2 -1.5h-2q-2 0 -3.5 -0.5t-3.5 -0.5h-2q-10 0 -20.5 1.5t-17.5 8.5
q-3 2 -4 5.5t-2.5 7.5t-2.5 6.5t-4 2.5q-1 0 -2 -1t-1.5 -2t-1.5 -2t-1 -2l-1 -3v-2t0.5 -3.5t0.5 -3v-2.5v-2q0 -2 -1 -4.5t-4 -2.5t-3 5v3q0 1 0.5 4.5t0.5 7t0.5 6t0.5 3.5q0 4 3 6t7 3t6.5 2.5t2.5 6.5q0 4 -2 6.5t-5 5.5t-5.5 7.5t-2.5 12.5q0 4 0.5 7.5t1.5 8.5v79
q0 6 -1 11t-2.5 9.5t-3 9.5t-1.5 10v4q0 1 1.5 1.5l1.5 0.5h1h1l3 -3l2 -2l3 -28l4 -4q6 0 12 -0.5l12 -1t12.5 -1.5t12.5 -1zM44 218q1 3 2.5 6.5t4 6t5.5 4t6 1.5h43q5 0 7.5 -2t4.5 -5.5t3 -7.5l2 -8v-4v-6.5v-6.5v-5v-5v-7.5v-5.5v-3v-13t-0.5 -15t-0.5 -15.5v-13.5
t-0.5 -10l-0.5 -4l-5 -3q-2 -1 -2 1.5v6t-1 7t-4 3.5q-2 0 -3 -1.5t-2.5 -2.5t-2.5 -2.5t-3 -1.5t-3 2.5l-2 5t-2.5 4.5t-3.5 2h-2q-1 -1 -2.5 -3t-3.5 -4t-4.5 -3.5t-4.5 -1.5t-4 1.5t-3.5 3t-3.5 3t-4 1.5q-3 0 -4 -2.5t-1 -5.5t-1 -5.5t-4 -2.5h-1h-1q0 1 -0.5 3.5
t-0.5 3.5v1v1v2.5t0.5 4.5t0.5 4v3v3q0 6 -0.5 13t-0.5 13v2v8t0.5 11t1 13t0.5 13t0.5 11t0.5 7zM51 210v-3.5t1 -3.5q2 -2 4 -4.5t4 -4.5t4 -3.5l2 -1.5h8l1 1.5t2 4.5t2 4q1 4 1 5t3 1q4 0 5.5 -3t2.5 -6.5t3 -6t6 -2.5h1h1q4 4 8.5 9t4.5 11q0 8 -3.5 12t-9 6t-11.5 2
h-11h-14q-3 0 -6 -1.5t-5 -4t-3 -5.5t-1 -6zM142 136v-8v-13v-13v-8q-1 -4 0.5 -5t3.5 -1l1 0.5l1 0.5q1 8 4.5 12.5t12.5 4.5q6 0 11 -0.5t11 -0.5v-6q-4 0 -9 0.5t-10 0.5t-8.5 -2t-3.5 -9l0.5 -1.5t0.5 -2.5l1 -0.5t2 -1.5q1 0 3 0.5t4 0.5h4t2 -1h4.5t5 -0.5t4 -0.5h1.5
l2 -2l-2 -3h-30l-0.5 -1l-0.5 -1q-1 -1 -1.5 -3.5t-0.5 -3.5l5 -2h30q2 0 3 1.5t2 3.5t1.5 4t0.5 3q0 15 0.5 30t1 30.5t0.5 31.5v29q-4 0 -6 -1.5t-3 -4t-1.5 -5.5t-0.5 -6v-58q-2 -3 -4.5 -5t-5.5 -2h-8.5t-9 1.5t-7.5 5t-3 9.5v66h-6q-1 -7 -1.5 -15.5t-1 -16.5t0 -16.5
t0.5 -14.5zM157 191v-4v-4t1 -3.5t2 -1.5h18q3 0 3.5 3t0.5 5q0 9 -4 11.5t-12 2.5q-1 0 -3 -0.5t-3 -0.5q-2 -1 -2.5 -3.5t-0.5 -4.5zM70 176q-2 0 -3.5 2t-3.5 4t-4 3.5t-5 1.5q-2 0 -2.5 -1.5t-1 -3.5t-0.5 -4v-3t0.5 -3l0.5 -2l1 -2l3.5 -0.5t7.5 -1t8.5 -1t7.5 -1.5
h4.5t7.5 -0.5t8 -0.5h6q1 0 2.5 -0.5l1.5 -0.5q5 0 5.5 4t0.5 8t-0.5 6t-3.5 2q-4 0 -6.5 -2t-5.5 -2h-1.5h-0.5l-11 13q-1 0 -3 -2t-4.5 -5t-4.5 -5.5t-4 -2.5zM156 156q0 -1 0.5 -2.5l0.5 -1.5l3 -2h20v14q0 2 -2 3.5t-4 1.5t-4.5 0.5t-3.5 0.5q-6 0 -8 -4t-2 -10zM49 150
q0 -6 1 -10t3 -7.5t5 -6.5t8 -7l0.5 -0.5l0.5 -0.5q4 0 5.5 2.5t3 6t3 6t4.5 2.5t5 -2.5t3.5 -6t3 -6t4.5 -2.5t6 3.5t5 8t3 9.5t1 9v2.5v2.5l-2 2q-14 0 -26 1t-26 1h-9l-2 -2v-1.5v-3.5zM182 136q0 2 -0.5 4.5t-3.5 2.5h-21v-3t0.5 -6t2 -5.5t3.5 -2.5h15q1 0 2 1t1.5 3
t0.5 4v2zM47 68q2 3 3 6t2.5 5.5t4 4t7.5 1.5h43q4 0 6.5 -1t2.5 -6h-29l-1 -1.5t-1.5 -4t-0.5 -4.5v-2q0 -3 2 -4t5 -1.5t6.5 -2t7 -4.5t5.5 -8.5t2 -15.5v-1q-1 -2 -2.5 -4.5t-3.5 -2.5h-1l-1 2q0 3 -0.5 8t-1.5 9.5t-3.5 7.5t-7.5 3h-4t-3 -4v-35q0 -1 -1.5 -1.5
l-1.5 -0.5h-2q-2 5 -3 13.5t-1 17.5v17.5t1 15.5q-1 1 -2 1.5t-2 0.5h-2h-1h-4.5t-2.5 -2q-1 -1 -2 -3t-2 -3.5t-1.5 -3l-0.5 -1.5v-33q0 -3 -1 -3.5t-3 -0.5h-3t-2 2v39z" />
</svg>
