<?xml version="1.0" standalone="no"?>
<!DOCTYPE svg PUBLIC "-//W3C//DTD SVG 1.1//EN" "http://www.w3.org/Graphics/SVG/1.1/DTD/svg11.dtd" >
<svg xmlns="http://www.w3.org/2000/svg" xmlns:xlink="http://www.w3.org/1999/xlink" version="1.1" viewBox="-10 0 266 256">
   <path fill="currentColor"
d="M61 243q0 3 0.5 5t3.5 2q4 0 6.5 -3.5t4 -8.5t2.5 -10t3 -7q5 -7 12 -11t14 -7t12 -8t5 -15q0 -15 -6.5 -23.5t-19.5 -13.5v-13l0.5 -0.5t1.5 -0.5q5 -3 9 -3.5t6.5 -1t5 -3t5.5 -10.5q0 -1 0.5 -2.5t0.5 -2.5l-2 -2t-2 -3q-2 0 -3 3t-3 6.5t-4.5 7t-8.5 3.5
q-3 0 -4.5 -2.5t-1.5 -5.5q0 -2 1.5 -3.5t3.5 -3t3.5 -3t2.5 -3.5l0.5 -2t1 -4.5t1 -4t0.5 -2.5l0.5 -0.5l0.5 -0.5q1 0 3.5 -0.5t5 -0.5t4.5 -0.5t3 -0.5t3 -1.5t2 -2.5l-0.5 -0.5l-0.5 -0.5l-1 -1.5t-1.5 -1.5h-3.5h-3q-12 0 -24 1.5t-24 1.5h-2.5h-1.5h-2.5t-3 -0.5
t-3.5 -0.5h-2h-3.5t-3.5 1t-3 2t-1 3q0 3 1 4t4 1h1q1 0 2.5 -0.5t3 -0.5t3.5 -0.5l2 -0.5h1q2 0 3.5 2t3 4.5t2 5t1.5 4.5t3 3l4 2t3.5 3t1.5 7q0 2 -1.5 2.5t-4.5 0.5q-6 0 -9.5 -1.5t-5.5 -3.5t-2.5 -4t-1.5 -4t-2 -3.5t-4 -1.5q-6 0 -6 5q0 11 5.5 15t16.5 6h3.5t4 0.5
t3 0.5h1.5v11l-2.5 1.5t-3.5 1.5q-8 4 -13.5 9.5t-8.5 12.5t-4.5 15t-1.5 17q0 2 1 3t3 1q4 0 6 -2.5t3 -6t1 -7.5v-6q0 -1 1.5 -2.5l1.5 -1.5h1q3 0 4.5 3t2.5 7t2.5 6.5t5.5 2.5q2 0 2.5 -1t0.5 -2q0 -5 -2.5 -8.5t-5.5 -6.5t-5.5 -6.5t-2.5 -7.5q0 -3 2.5 -6t5.5 -3
q4 0 7 4.5t6 11t5 13t4 9.5v1q0 2 -6.5 6.5t-14.5 10.5t-14.5 14.5t-6.5 18.5zM136 173q0 8 3 13t7 8.5t9.5 6.5t11.5 5.5t11 6t9 8.5q2 2 3 6t2 7.5t2.5 6t5.5 2.5q6 0 6 -7q0 -3 -1.5 -7.5t-4.5 -8.5l-6 -8t-5 -6q-3 -2 -10.5 -5l-15 -6t-13.5 -7t-6 -8t2 -4h4q6 0 12 1.5
t12 3.5t11.5 4t11.5 4h0.5h0.5q4 0 5 -5q0 -1 -1 -3t-2 -3q-10 0 -20 -2t-20 -5q-2 0 -4.5 -0.5l-5 -1t-4.5 -2t-2 -4.5q0 -2 0.5 -3.5t2.5 -2.5h3.5h3.5q11 0 20.5 2.5t20.5 5.5h3q2 0 2.5 -1t0.5 -4v-1v-2q-1 0 -5.5 -0.5l-9 -1t-8.5 -1t-6 -0.5t-6 -1t-8.5 -2t-8 -3
t-3.5 -5q0 -4 2 -5t5 -1q7 0 13 1l12 2t12.5 2.5t13.5 1.5q0 -5 -4 -7t-9.5 -3t-12.5 -1.5t-12.5 -0.5t-9.5 -1.5t-4 -4.5q0 -5 3 -7q1 0 4.5 -1t7.5 -1.5t7.5 -1t5.5 -1.5q4 0 8.5 -1t8 -2.5t6 -4.5t2.5 -9q0 -5 -2.5 -10t-7.5 -6q-21 1 -43 -2q-3 -2 -3.5 -5t-0.5 -6
q0 -1 0.5 -2.5t0.5 -2.5l1 -1l2.5 -0.5t6 -0.5t7.5 -0.5t6 -0.5h28q2 0 5 -1.5t3 -4.5q0 -2 -1.5 -3.5t-3.5 -1.5q-1 0 -3.5 1l-2.5 1h-2t-3 0.5t-3.5 0.5h-2.5h-1q-4 0 -6.5 -0.5t-2.5 -4.5q0 -3 1 -5.5t5 -3.5q2 0 5.5 0.5t7 0t6 -2.5t2.5 -6h-25q-1 0 -1.5 -2.5
t-0.5 -3.5q0 -4 4 -7q3 1 5.5 1t5.5 -0.5t4.5 -2.5t1.5 -6h-40q-3 0 -4 1t-1 3v1.5v1.5q3 1 6.5 1t5.5 0.5t3.5 2.5t1.5 6v1.5v0.5q-1 1 -3 2t-3 2h-3.5h-4.5h-4.5h-3.5l-0.5 1t-0.5 2v0v1v0q0 1 0.5 2.5l0.5 1.5h17l1 0.5l1 0.5q1 2 2 4.5t1 4.5t-2 3t-4 1h-2q-1 0 -4 -0.5
t-4.5 -1t-2.5 -0.5l-3 -8h-0.5h-0.5q-3 0 -3 2v3v4.5v4.5v3q0 4 -0.5 8.5t0.5 9t3 7.5t8 4h1t2.5 -0.5t2.5 -0.5h1h2h4.5h5.5h4h3h4.5h4.5h3q2 2 2.5 3t0.5 3q0 6 -6 8.5t-15 5t-17.5 5t-12.5 8.5q-2 4 -4 10.5t-2.5 14l-1 15t-0.5 11.5zM93 150q5 0 9 2.5t7 6.5t4.5 9
t1.5 10v3t-0.5 3.5t-1.5 3t-3 1.5h-0.5h-0.5q-1 -4 -4 -9t-5.5 -10t-4.5 -10t-2 -10zM81 92q0 -3 1.5 -4t4.5 -1.5t5 -0.5h5t4 0.5t2 3.5q0 5 -2 8.5t-7 3.5q-4 0 -8.5 -2t-4.5 -8zM92 52v3t-2 2h-28q-3 0 -4 3t-1 5h3h6h5.5h3.5t6.5 -0.5t12 -1t12 -1t6.5 -0.5h3.5h4.5
t4 -1t2 -3q0 -1 -0.5 -2.5t-2.5 -1.5q-6 0 -12 0.5t-12 0.5q0 -7 1.5 -9.5t4.5 -3.5t6 -1h5.5t4.5 -1.5t2 -5.5h-22l-0.5 -1l-0.5 -1v-5v-5q0 -1 0.5 -1.5l0.5 -0.5h12q2 0 3 -2.5t1 -3.5t-1 -2t-3 -1h-41q-3 0 -5.5 1.5t-2.5 3.5q0 3 1 3.5t4 1.5h20l3 3l-0.5 3.5t-1.5 5.5
l-0.5 1l-0.5 1q-3 1 -7 1.5t-8 0.5q-3 0 -7 -0.5t-6 -0.5q-1 2 -1.5 4t-0.5 4h30q1 0 1.5 1t1 2.5t0.5 3v1.5z" />
</svg>
