<?xml version="1.0" standalone="no"?>
<!DOCTYPE svg PUBLIC "-//W3C//DTD SVG 1.1//EN" "http://www.w3.org/Graphics/SVG/1.1/DTD/svg11.dtd" >
<svg xmlns="http://www.w3.org/2000/svg" xmlns:xlink="http://www.w3.org/1999/xlink" version="1.1" viewBox="-10 0 266 256">
   <path fill="currentColor"
d="M147 163q1 0 4.5 5t8 14l9.5 19l10 20t8.5 18t5.5 12h0.5h0.5q4 0 4.5 -2.5t0.5 -5.5v-2.5v-2.5l-1 -1t-1.5 -2.5t-1.5 -2.5l-1 -1q-6 -15 -12.5 -29t-13.5 -28q-2 -4 -4 -6.5t-2 -6.5q0 -2 1.5 -3.5t3.5 -2.5l4 -2t3 -2l10 -10q1 -2 2 -5t1 -6v-6v-6v-4v-4q-1 -1 -2 -3
t-2.5 -4l-3 -4t-2.5 -2q-2 -1 -9 -1.5t-14.5 -1.5t-14 -2.5t-6.5 -2.5q0 -2 -0.5 -7t-0.5 -11t-0.5 -11t-0.5 -7v-1q0 -2 0.5 -3t2.5 -2q8 -1 16.5 -0.5t16.5 0.5q9 0 17 -0.5t16 -2.5q1 0 1.5 -0.5l0.5 -0.5q0 -1 1 -2l1 -1q-2 -5 -4.5 -5h-5.5q-11 0 -22 1.5t-22 1.5h-4.5
t-5 -0.5t-4.5 -0.5t-2 -1l-2 -1v-26q0 -2 -2.5 -3.5t-3.5 -1.5q-2 0 -4 2.5t-2 3.5t1 3.5l1 2.5v2.5t0.5 3t0.5 3v2.5v1v1q0 2 -0.5 5t-0.5 4l-0.5 1t-1.5 1l-66 3q-1 0 -1.5 1t-0.5 2q0 2 2.5 3.5t4.5 1.5q15 0 29.5 -2t29.5 -2h3t2 2v4v5q0 2 -1 3v5v7v6.5v4.5q0 3 -1.5 6
t-4.5 4l-45 3q-2 0 -3.5 2t-1.5 4q0 1 1 2t2.5 1h3.5h2h3h2q1 0 3 -0.5t4.5 -1t4.5 -1l2 -0.5q11 -2 20 -2h20h22q3 1 7 2.5t7.5 3.5t5 5.5t1.5 7.5q0 5 -0.5 9.5t-2.5 8.5t-5.5 7t-9.5 3q-4 0 -6.5 -3.5t-4.5 -7.5t-5 -8t-9 -5q-3 1 -10 1.5t-15 1t-15.5 1.5t-10.5 1
q-1 0 -4 0.5t-6 1.5t-6 1.5t-4 0.5q-3 2 -3 5t1.5 4t3.5 1q7 0 15 -1.5t15.5 -3t15 -3.5t15.5 -2h8q2 1 5 3.5t5 6l4 7t2 5.5v1v1q-22 3 -43.5 7.5t-43.5 6.5q-2 0 -3 1t-1 4t1 4t3 1q10 -2 19.5 -2.5t19.5 -3.5l31 -7q0 -1 2 -1.5t4 -1.5t4 -1.5t4 -0.5z" />
</svg>
