<?xml version="1.0" standalone="no"?>
<!DOCTYPE svg PUBLIC "-//W3C//DTD SVG 1.1//EN" "http://www.w3.org/Graphics/SVG/1.1/DTD/svg11.dtd" >
<svg xmlns="http://www.w3.org/2000/svg" xmlns:xlink="http://www.w3.org/1999/xlink" version="1.1" viewBox="-10 0 266 256">
   <path fill="currentColor"
d="M175 249q0 1 3 1.5t4 0.5h2.5t2.5 -2q0 -7 0.5 -12.5t0.5 -10.5v-10v-12v-13.5t-0.5 -17.5t-1 -18.5t-2 -18t-3.5 -15.5t-5 -10q-3 -5 -9.5 -8.5t-11.5 -6.5l-11 -5.5t-12 -2.5v-18q0 -2 2 -4l3 -3h3.5t5.5 -0.5t5.5 -0.5h3.5q1 -1 2.5 -1.5t2.5 -0.5q3 -2 4.5 -7.5
t2.5 -11.5t1.5 -10.5t3.5 -4.5h24q2 0 3.5 -2t1.5 -4t-2 -2.5t-4 -0.5q-15 0 -30 1.5t-30 1.5h-5h-9h-11h-10h-9h-5q-2 0 -6.5 0.5t-9.5 0.5t-9.5 0.5t-5.5 0.5v2v3t1 2h32q0 1 0.5 4l1 6t0.5 5.5t1 3.5q0 1 0.5 3t1.5 4.5t3 4.5t3 2h25v24q-7 1 -14 2.5t-13.5 5t-11.5 8
t-7 10.5q-1 1 -1.5 2.5t-1.5 3.5t-1.5 3.5t-0.5 2.5q-1 3 -1.5 10t-1 15.5t-1 17.5t-1.5 17.5t-1.5 15t-0.5 10.5q0 8 -1 16.5t-1 17.5q0 2 1 3.5t4 1.5q1 0 2 -2t2 -3q3 -16 3.5 -32.5t1.5 -31.5l1 -2h2.5t5 -0.5t5.5 -0.5h5h6t11.5 -0.5t12.5 -0.5h11h8t12 0.5t12 0.5h8
q1 5 1 9t0.5 7.5t0.5 7v8.5q0 9 -0.5 18t-3.5 17q0 1 -0.5 3zM78 156q0 -8 0.5 -15.5t2.5 -14.5t6.5 -12.5t11.5 -9.5q6 -3 8.5 -5t7.5 -2q3 0 4.5 0.5t2.5 3.5v11v12v12t-0.5 14t-0.5 12v5l-2 2h-38q-1 0 -2 -2t-1 -4v-4v-3zM132 167v-66q0 -1 1 -1.5t2 -0.5q12 0 20 5
t12.5 13t7 17.5t2.5 19.5q0 1 -0.5 5.5t-0.5 5.5l-0.5 1l-0.5 1q-7 2 -15 2h-14h-3h-4h-4h-1zM97 29h61v18q0 1 -1.5 2.5t-3.5 2.5t-4.5 2t-3.5 1h-36q-1 0 -3 -0.5t-4 -1.5t-3.5 -2.5t-1.5 -3.5v-18z" />
</svg>
