<?xml version="1.0" standalone="no"?>
<!DOCTYPE svg PUBLIC "-//W3C//DTD SVG 1.1//EN" "http://www.w3.org/Graphics/SVG/1.1/DTD/svg11.dtd" >
<svg xmlns="http://www.w3.org/2000/svg" xmlns:xlink="http://www.w3.org/1999/xlink" version="1.1" viewBox="-10 0 266 256">
   <path fill="currentColor"
d="M59 248q-1 3 0.5 3.5t3.5 0.5t4 -1t3 -3v-7v-11v-12v-13v-10.5v-7.5q0 -1 0.5 -4.5t0.5 -8.5t0.5 -9t0.5 -7t0.5 -7.5t1.5 -9.5t2.5 -10t3.5 -8h3.5h5.5h5.5h3.5h2t3.5 -0.5t3 -1.5t1.5 -2t-0.5 -2.5t-1.5 -1.5h-18q-2 0 -3 -0.5t-1 -2.5l0.5 -1l0.5 -1q2 -4 4.5 -7.5
t6 -7.5t7 -7t6.5 -5v0v-1v0q0 -1 -0.5 -1.5l-0.5 -0.5h-2q-5 0 -10.5 5t-10 11t-8 11t-4.5 5q-5 -4 -7.5 -9t-2.5 -11q0 -7 3 -11.5t9 -8.5q3 -2 8 -4t9.5 -4.5t7.5 -6t3 -7.5h-5l-28 14q-8 4 -13 13t-5 18q0 8 5 14t11 11q1 0 1 1v1q0 6 -1.5 11t-3.5 10.5t-3.5 11
t-1.5 11.5v41v41zM190 250l1 0.5t2 0.5h1v0l5 -6v-47q-2 -3 -2.5 -6.5t-0.5 -7.5v-7v-7q0 -2 -0.5 -6t-1 -9t-1 -9t-0.5 -5t-0.5 -3t-1.5 -4.5t-1 -4.5v-3q-1 0 -1 -1v-2q0 -3 2 -6t4 -5.5t4 -6t2 -6.5q0 -19 -11.5 -28.5t-28.5 -9.5h-5q-2 0 -2 2q0 1 3 2t7 2.5t9 3.5
t9.5 5.5t7.5 9t3 13.5q0 2 -0.5 4l-1 4t-2 3.5t-3.5 1.5h-1v0q-1 0 -2 -0.5t-1 -1.5q-3 -6 -6.5 -10.5t-7.5 -7.5t-9.5 -5t-12.5 -4h-1q-1 0 -1.5 1t-0.5 2q0 3 4.5 5t10.5 5t11 7.5t5 10.5q0 2 -2 3t-4 1.5t-4 0.5h-4q-4 0 -6 -1t-6 -1q-1 0 -2.5 0.5t-1.5 2.5t2.5 3.5
t5.5 2l6 1t4 0.5q3 0 6 -1t6 -1q2 0 3.5 1.5t3 4t2 5t0.5 3.5t0.5 3.5t1 4.5l1 4t0.5 3q1 1 1 4.5t0.5 8t0.5 8.5v6v33v7.5t0.5 11t0.5 10.5t1 7zM88 146q3 9 2 19t-1 20t3 17.5t14 11.5q0 1 2 1h3h4h2h13t14 -2t12.5 -5.5t7.5 -10.5v-15v-9v-8t-0.5 -8.5t-1.5 -9.5
q0 -1 -1 -3.5t-3 -2.5q-1 0 -3 1t-2 3q0 5 1.5 10.5t1.5 10.5v5v4l-0.5 0.5t-1.5 0.5h-0.5h-0.5q-1 0 -4 -3.5t-7 -8t-7 -8.5t-3 -6q-2 -2 -2 -6v-6v-8v-7.5t0.5 -11t1 -13.5t0.5 -13t0.5 -11t0.5 -7q0 -5 4.5 -8t10.5 -4t13 -1.5t13 -2t10 -4.5t4 -9q0 -7 -2.5 -14
t-10.5 -10q-7 0 -12.5 -0.5t-10.5 -0.5h-11h-12h-13h-12.5t-13 0.5t-13.5 0.5q-3 0 -6 1t-3 4q0 4 4 5t7 1q8 0 15.5 -0.5t16.5 -0.5h21v3.5v5t0.5 5t0.5 3.5t0.5 2t0.5 2.5t0.5 2.5t0.5 2q-1 1 -2 2.5t-2.5 3.5t-3 3.5l-2.5 2.5q0 2 -0.5 5t-1 6.5l-1 7t-0.5 4.5v7t-0.5 11
t-0.5 12q0 7 0.5 13t0.5 11v7q-1 2 -3.5 6.5t-6 9.5t-7 9t-5.5 4h-1q0 -1 -0.5 -1.5l-0.5 -0.5v-24q0 -2 -1.5 -4.5t-3.5 -2.5t-3 1t-2 3zM98 190v-1q0 -1 2 -3.5t5 -5.5t6 -6.5t6 -6.5l5 -5t3 -2q4 0 6.5 2.5t4.5 6.5t4.5 8t5.5 5q1 1 4 1.5t4 2.5l0.5 2.5l0.5 2.5
q0 6 -4.5 10t-10.5 4h-29q-3 0 -5.5 -1.5t-4 -4t-2.5 -5t-1 -4.5zM140 31v-1l0.5 -2t0.5 -3l1 -0.5l1 -0.5h27q4 0 5.5 4t1.5 6q0 5 -3 8t-7.5 4t-9.5 1.5t-9 0.5h-3h-2l-2 -2v-2.5t-0.5 -6t-0.5 -5.5v-1z" />
</svg>
