<?xml version="1.0" standalone="no"?>
<!DOCTYPE svg PUBLIC "-//W3C//DTD SVG 1.1//EN" "http://www.w3.org/Graphics/SVG/1.1/DTD/svg11.dtd" >
<svg xmlns="http://www.w3.org/2000/svg" xmlns:xlink="http://www.w3.org/1999/xlink" version="1.1" viewBox="-10 0 266 256">
   <path fill="currentColor"
d="M139 57q0 4 -0.5 13.5t-0.5 20.5t0.5 21t0.5 14v4t0.5 7t0.5 7.5v4.5q1 1 1.5 7t1.5 13t2 13t1 8v2v5v5v2q0 3 3 10.5t6.5 16t7.5 14.5t6 6q1 0 2 -1.5t2 -1.5v-0.5v-0.5v0v-1q-5 -7 -8 -14.5t-6 -15.5q-1 -4 -1.5 -8.5t-1 -9.5t-1.5 -9t-3 -7q-2 -14 -4 -32t-2 -33
q0 -5 3 -7t8 -3t10.5 -2t10 -3.5t8 -7t3.5 -12.5q0 -7 -4 -13t-10 -10t-13.5 -6t-14.5 0l-1 -2v-28h3h4.5h4.5h3h6.5t10 -0.5t10.5 -0.5h7q1 0 1 -1.5v-2.5q0 -3 -2 -4t-5 -1h-2q-1 0 -2.5 0.5t-4 0.5t-4 0.5t-2.5 0.5l-104 4q-1 0 -3 0.5t-3.5 1t-3 1.5t-1.5 2q0 4 4 4h1
q2 0 7.5 -0.5t12 -0.5t12.5 -0.5t8 -0.5h3q2 0 3 0.5t1 3.5v2v4t-0.5 6t-0.5 5.5v3.5q-1 2 -4.5 3t-8.5 2t-10.5 2.5t-10.5 4.5t-8 8t-3 13q0 7 3 11.5t8 7t10 4t9.5 2.5t7.5 2t3 3q0 11 -2 21.5t-3 20.5q-2 13 -4 23.5t-4.5 20t-6.5 19t-12 20.5q0 1 -0.5 2l-0.5 1
q0 1 1.5 1.5t2.5 0.5h2q11 -11 17.5 -26.5t10 -33t4.5 -35.5t3 -32q0 -4 1 -7.5t1.5 -6t1 -5.5t0.5 -8v-62q0 -2 2 -3t5 -1t5.5 -0.5t3.5 -0.5q2 0 3.5 0.5t1.5 2.5q0 5 -1 9t-1 9v6.5t2 6.5zM77 80q0 -3 1.5 -6t4.5 -4l19 -7h2q3 0 4 1t1.5 3t0.5 5v4q0 6 -0.5 10.5
t-1.5 11.5q-1 2 -2 2.5t-2 0.5q-5 0 -9.5 -1.5t-8.5 -4t-6.5 -6.5t-2.5 -9zM147 98q1 -8 0 -14.5t-1 -13.5q0 -5 2.5 -6t6.5 -1t8 1t7.5 3t5.5 5.5t2 8.5t-2.5 9t-7 6t-9.5 2.5t-9 0.5h-1l-0.5 -0.5t-1.5 -0.5z" />
</svg>
