<?xml version="1.0" standalone="no"?>
<!DOCTYPE svg PUBLIC "-//W3C//DTD SVG 1.1//EN" "http://www.w3.org/Graphics/SVG/1.1/DTD/svg11.dtd" >
<svg xmlns="http://www.w3.org/2000/svg" xmlns:xlink="http://www.w3.org/1999/xlink" version="1.1" viewBox="-10 0 266 256">
   <path fill="currentColor"
d="M179 244q0 2 2 4t4 2q4 0 5.5 -3.5t1.5 -6.5q0 -17 -2 -33.5t-6 -33.5q0 -2 -1 -4l-2 -4l-2 -4t-1 -3q-4 -6 -9 -9t-10 -4.5t-9.5 -2.5t-8 -4.5t-5.5 -10t-2 -19.5v-3v-3.5v-2.5v-2l3 -3h11h10.5t16 -0.5t16 -0.5t10.5 -1q4 -1 4 -5q0 -2 -4 -4h-4h-6.5h-7.5h-4
q-10 0 -19 0.5t-19 0.5h-3.5t-3.5 -1v-3v-3q0 -3 0.5 -6t1.5 -6v-42q0 -1 -0.5 -3l-1 -4t-1.5 -3t-3 -1t-4.5 0.5t-3.5 2.5q-11 7 -23 12t-24 9q-1 1 -2.5 2l-3 2t-2.5 2t-1 3v1l0.5 0.5l0.5 0.5h14q2 -1 6.5 -3t9.5 -4.5t9.5 -5t6.5 -3.5t3 -1h2h2.5h4.5v3v4.5v4.5v2
q0 4 -0.5 10t-0.5 11.5t-0.5 9.5l-0.5 4l-4 6h-30h-5l-28 1q-3 0 -4 2t-1 5q0 1 0.5 3t3.5 1h4.5h4.5q13 0 27.5 -1.5t27.5 -3.5q2 0 3 1.5t1 3v3.5v3q0 3 -0.5 5.5t-0.5 5.5v6.5t0.5 7t1.5 7t2 6.5q4 5 11.5 8t15.5 6.5t14.5 8t7.5 12.5l6 58q0 1 -1 4.5t-1 5.5z" />
</svg>
