<?xml version="1.0" standalone="no"?>
<!DOCTYPE svg PUBLIC "-//W3C//DTD SVG 1.1//EN" "http://www.w3.org/Graphics/SVG/1.1/DTD/svg11.dtd" >
<svg xmlns="http://www.w3.org/2000/svg" xmlns:xlink="http://www.w3.org/1999/xlink" version="1.1" viewBox="-10 0 266 256">
   <path fill="currentColor"
d="M81 248q1 2 2 2h2q3 0 5 -2.5t3 -5.5q2 -9 3 -18l2 -18t2 -17.5t4 -17.5q5 -51 3 -102q2 -4 5.5 -6t8 -3.5t9 -1.5h7.5h3.5t5 0.5t5 1.5t2.5 3v49l-2 2l2 2q-1 17 0.5 33.5t3.5 33t5 33t5 32.5q0 2 2 2h3q4 0 6 -3t2 -7v-1v-1l-0.5 -1.5t-1 -3.5t-1 -3.5t-0.5 -2.5v-1v-3
q0 -1 -0.5 -2.5t-1.5 -1.5q-2 -17 -5 -34t-5 -34t-3 -34t-1 -34v-3v-4v-4v-3q1 -1 2.5 -1.5t3.5 -0.5q3 0 4.5 0.5t2.5 1t2.5 1.5t5.5 2q1 1 3.5 2.5t5.5 3l6 3t4 1.5v0h1q3 0 4.5 -2.5t1.5 -4.5t-4.5 -4.5t-11.5 -5.5t-15.5 -6.5t-16.5 -6t-15 -4t-10 -2.5l-2 -3v-25
q0 -4 -3 -4.5t-5 -0.5q-4 0 -4.5 2t-0.5 5q0 7 1 13.5t1 12.5v2v2q-1 0 -3 0.5t-4.5 1t-4.5 1t-3 0.5q-2 1 -7.5 3.5t-11.5 7t-12.5 9t-12 9t-9 8t-3.5 4.5q0 2 2 2.5t3 0.5q5 0 9.5 -2t8.5 -5t7 -6.5t7 -6.5q1 0 2 -1t2.5 -2t2.5 -1.5l1 -0.5l3 4v1q0 2 0.5 4t0.5 4v3
q0 33 -4 66.5t-9 66.5l-1 2.5t-2 5.5t-2 5t-1 3v6v5z" />
</svg>
