<?xml version="1.0" standalone="no"?>
<!DOCTYPE svg PUBLIC "-//W3C//DTD SVG 1.1//EN" "http://www.w3.org/Graphics/SVG/1.1/DTD/svg11.dtd" >
<svg xmlns="http://www.w3.org/2000/svg" xmlns:xlink="http://www.w3.org/1999/xlink" version="1.1" viewBox="-10 0 266 256">
   <path fill="currentColor"
d="M111 235v2.5t0.5 3t1.5 2.5t2 1q3 0 5 -2t2 -4q0 -16 -3 -32t-4 -33l-1 -3v-20q0 -30 1 -59.5t1 -58.5v-4t-1 -3q-1 -3 -5.5 -4t-6.5 -1h-45q-2 0 -3 1t-1.5 2.5t-1 3.5t-0.5 3h19l1 2v4q0 6 -0.5 11.5t-0.5 11.5q-1 6 -1 16.5t-0.5 24.5t-0.5 29t-0.5 28.5t-1 24.5
t-0.5 16v2v2.5v2.5v2v4.5v4.5q1 3 2 4.5t4 1.5q4 0 5.5 -4.5t1.5 -7.5q0 -1 -0.5 -3.5t-0.5 -3.5v-22v-22v-6v-9.5t0.5 -12t0.5 -12v-9.5v-6v-17v-18t0.5 -18t2.5 -16l1.5 -2.5t2.5 -2.5h16q1 0 1.5 2t1 4.5t0.5 5v3.5q0 17 -1 34t-1 34v9v14v14v9l0.5 1.5t0.5 3.5t0.5 3.5
t0.5 2.5q0 4 1 13t1.5 19.5t1.5 19.5t1 13zM122 120q0 5 3 7h4h3q17 0 34.5 -1.5t34.5 -1.5l1.5 -3t0.5 -3q0 -3 -2 -4.5t-5 -1.5h-1q-2 0 -9 0.5t-15 1.5t-15.5 1.5t-9.5 0.5q-1 0 -5 -0.5t-8.5 0t-7.5 1.5t-3 3zM137 53l-4.5 1.5t-2.5 1.5t-1.5 3t-0.5 4h31.5t31.5 -2
q2 0 2 -2v-3v-3q0 -1 -2 -2h-3h-5h-4h-4h-10q-4 0 -8.5 0.5t-9 0.5t-10.5 1z" />
</svg>
