<?xml version="1.0" standalone="no"?>
<!DOCTYPE svg PUBLIC "-//W3C//DTD SVG 1.1//EN" "http://www.w3.org/Graphics/SVG/1.1/DTD/svg11.dtd" >
<svg xmlns="http://www.w3.org/2000/svg" xmlns:xlink="http://www.w3.org/1999/xlink" version="1.1" viewBox="-10 0 266 256">
   <path fill="currentColor"
d="M158 244q0 2 1 4.5t3 2.5h1q3 -1 7 -4t4 -5q0 -25 -2 -50.5t-2 -50.5v-8v-9v-8v-4l4 -4h31l1.5 -1.5l2.5 -2.5v-2q0 -1 -2 -2.5t-3 -1.5h-34q-2 -18 -2 -37.5v-37.5q0 -3 -1.5 -6.5t-5.5 -3.5h-3.5t-1.5 2v8q0 17 2 34t2 34v0q-1 2 -1.5 5t-0.5 4v99q0 5 0.5 8t0.5 6
t0.5 6t0.5 6q0 5 -1 9.5t-1 9.5zM105 135v4q0 2 0.5 7.5t0.5 12.5t0.5 12.5t0.5 7.5q0 3 0.5 8.5t1.5 11.5t2 12.5t3 12t4 8.5t5 3q7 0 7 -6q0 -3 -1 -7t-2 -7.5t-2.5 -7t-1.5 -6.5q-3 -13 -4.5 -26t-1.5 -26t1.5 -26t2.5 -26.5t2 -26.5t1 -26v-12q-4 -6 -12 -9h-7.5
t-12 -0.5t-12.5 -1t-8 -0.5h-4q-2 0 -5 0.5t-5.5 1.5t-4.5 2.5t-2 4.5q0 1 0.5 2.5t3.5 0.5l1.5 -0.5l3 -1t3.5 -1l2 -0.5h3q3 0 4.5 1t2.5 2.5t1 4v5.5q0 19 -2 40t-5 42t-7 41.5t-7 39.5l-2.5 5t-1.5 5q0 3 1.5 5.5t4.5 2.5t5 -3t3 -7l2 -8t2 -7l12 -92q4 -10 4.5 -21
t0.5 -22v-29q2 -4 6.5 -4.5t8.5 -0.5q6 0 9.5 2t3.5 9q0 12 -1.5 23.5t-3 23.5t-3 23.5t-1.5 23.5z" />
</svg>
