<?xml version="1.0" standalone="no"?>
<!DOCTYPE svg PUBLIC "-//W3C//DTD SVG 1.1//EN" "http://www.w3.org/Graphics/SVG/1.1/DTD/svg11.dtd" >
<svg xmlns="http://www.w3.org/2000/svg" xmlns:xlink="http://www.w3.org/1999/xlink" version="1.1" viewBox="-10 0 266 256">
   <path fill="currentColor"
d="M59 239v1q0 1 2 3t3 2q4 -1 9.5 -5.5t11.5 -10.5t11.5 -13t11 -12.5t10.5 -9t9 -3.5q3 0 8 3.5t11 9t12.5 11.5t12.5 11.5t11 9t7 3.5q4 0 5.5 -2.5t1.5 -5.5q0 -4 -1.5 -6.5t-4 -4t-5.5 -3l-5 -2.5q-13 -8 -24 -17.5t-23 -18.5v-10.5v-15.5v-16v-10v-3t-0.5 -4t-0.5 -4
t-1 -3l-1.5 -3t-3.5 -1q-2 0 -4 3t-2 5v61l-0.5 0.5l-0.5 0.5q-1 1 -3 2t-2 2q-2 1 -6.5 6l-9 10t-9 9.5l-6.5 6.5t-6 4.5t-8 5.5t-7 6.5t-3 7.5zM65 126q0 2 1.5 3t3.5 1h2q1 0 3.5 -1.5l2.5 -1.5l31 -28q2 0 4.5 -2.5t5.5 -5t6 -4t5 -1.5q4 0 9 3t10 7.5t11 10.5t11 10.5
t10 7.5t8 3q2 0 4.5 -0.5l2.5 -0.5v-1.5v-2.5q0 -5 -4.5 -9.5t-11 -8.5t-14.5 -8t-14.5 -9.5t-11 -13.5t-4.5 -19v-1q0 -1 0.5 -4t0.5 -6.5t0.5 -6.5t0.5 -4v0q0 -3 -0.5 -6t-2 -5.5t-3.5 -4t-6 -1.5q0 1 -1.5 2t-1.5 2v52q0 1 -1 2.5t-3.5 3.5t-4.5 4.5t-4 3.5q-1 1 -5 4
t-9 6.5t-10.5 7.5t-10 8t-7.5 7.5t-3 6.5z" />
</svg>
