<?xml version="1.0" standalone="no"?>
<!DOCTYPE svg PUBLIC "-//W3C//DTD SVG 1.1//EN" "http://www.w3.org/Graphics/SVG/1.1/DTD/svg11.dtd" >
<svg xmlns="http://www.w3.org/2000/svg" xmlns:xlink="http://www.w3.org/1999/xlink" version="1.1" viewBox="-10 0 266 256">
   <path fill="currentColor"
d="M197 247l2 2l2 2h1q3 0 4.5 -3t1.5 -5q0 -5 -1 -10.5t-2.5 -10.5t-3 -9.5t-2.5 -9.5q-1 -7 -1.5 -15.5t-1.5 -16.5t-2.5 -15.5t-5 -13.5t-10 -10t-16.5 -5q-3 0 -8 -0.5t-11 -1t-11.5 -1t-7.5 -0.5q-3 -2 -3 -5.5v-7t-0.5 -6.5t-3.5 -3q-2 0 -3.5 1t-1.5 3v20
q0 3 2.5 4.5t5.5 2.5t6.5 1h4.5q2 0 8.5 1t14 2t14 1.5t9.5 0.5q2 4 3 7t2 7q1 2 1.5 7.5t2 13t2.5 16.5t2.5 16.5t2.5 13t1 7.5l0.5 1t0.5 2.5t0.5 2.5l0.5 1q0 1 0.5 2.5t0.5 4v4.5v2zM81 242q0 3 1.5 3.5t2.5 0.5q4 0 6 -2t2 -6q0 -23 -1 -45.5t-1 -45.5q0 -25 3 -49.5
t3 -49.5q0 -5 -0.5 -9t-2 -7t-4.5 -5t-9 -3q-1 0 -4.5 -0.5t-7.5 -1t-7.5 -1t-4.5 -0.5h-0.5h-1.5t-2.5 0.5t-2.5 2.5q0 3 2 4t4.5 2.5t5 3.5t2.5 7q0 17 -3 35t-4 34q-1 12 -1 23t-2 21v73q0 1 1 1.5t2 0.5q3 0 4.5 -2.5t2.5 -4.5q1 -12 1.5 -24.5t0.5 -25.5v-24.5t1 -25.5
q2 -21 3.5 -42t3.5 -42q1 -2 3 -2h3h3.5t2.5 2v19q0 36 -2.5 71t-2.5 70v9v13v14v8zM115 67q0 10 2 14.5t5.5 6t10 2.5t15.5 4l1.5 0.5l1.5 0.5h41q1 0 1.5 -0.5l0.5 -0.5v-1v-1q0 -1 -2 -3t-3 -2h-9h-12.5t-14 -0.5t-13.5 -2t-10.5 -3t-5.5 -4.5q0 -1 -0.5 -3.5t-0.5 -5
t-0.5 -5t-0.5 -3.5q0 -3 -0.5 -3.5t-2.5 -0.5q-1 0 -2 0.5t-2 1.5v9zM115 18q0 4 1.5 9.5t2.5 10.5q0 1 0.5 3t1.5 2q4 4 13.5 7t20 4.5t21 2.5t16.5 1q2 0 3 -1t1 -3v-2q0 -2 -2 -2q-1 0 -4 -1t-6.5 -1.5t-6 -1t-4.5 -0.5q-1 0 -5.5 -0.5t-9.5 -1t-9.5 -1t-5.5 -0.5
q-7 -1 -10.5 -3.5t-5 -6t-1.5 -7.5t-0.5 -7.5t-1 -5.5t-3.5 -2t-4.5 2t-1.5 5z" />
</svg>
