<?xml version="1.0" standalone="no"?>
<!DOCTYPE svg PUBLIC "-//W3C//DTD SVG 1.1//EN" "http://www.w3.org/Graphics/SVG/1.1/DTD/svg11.dtd" >
<svg xmlns="http://www.w3.org/2000/svg" xmlns:xlink="http://www.w3.org/1999/xlink" version="1.1" viewBox="-10 0 266 256">
   <path fill="currentColor"
d="M75 247q0 3 2 3.5t4 0.5h5t5 -1v-1v-1q-1 -3 -1.5 -5.5t-1 -4.5t-1 -4.5t-0.5 -6.5v-83q1 -1 1.5 -4.5t0.5 -4.5q0 -4 0.5 -12t1 -17t1 -16t0.5 -10v-4q0 -3 0.5 -7.5t0.5 -9.5v-8v-5t-0.5 -9t-0.5 -9v-6q1 -3 -4 -5t-11.5 -3t-12.5 -1.5t-8 -0.5h-5h-5t-1.5 1.5
t-0.5 2.5q0 3 2 4t4 1h4.5h3.5l2 3v4v4v9v10t-1 9.5t-3 7.5v46q0 3 -1 11t-1.5 16.5t-1.5 16t-1 11.5v4v8v8v4q0 13 -3 25t-5 25v1q0 3 1 3.5t3 0.5q3 0 5.5 -3.5t4 -9.5t2.5 -13t2 -13.5t1.5 -11.5t0.5 -7v-18q0 -1 0.5 -4.5t1 -8t0.5 -8v-3.5v-18q0 -4 0.5 -12t1 -18
t1 -20.5t1 -20.5t1 -18t0.5 -12q1 -1 1.5 -3t2.5 -2t3.5 1t3 3t2 3.5t1.5 3.5v13q0 22 -1.5 45t-3.5 46q-1 1 -1 4t-0.5 6t-0.5 5.5v3.5v16.5v24.5v24v16q0 1 -1 3.5t-1 3.5v0.5v0.5zM106 175q1 2 1 8.5t0.5 14.5t0.5 17.5t1 17t3 12.5t5 5q4 0 4.5 -3t0.5 -6
q0 -9 -1.5 -17.5t-2.5 -17.5q0 -4 -0.5 -10t-1 -13.5t-0.5 -15.5t-0.5 -15.5t-1 -12.5t-0.5 -7v-29v-28q1 -4 1.5 -10.5t1 -13.5t2.5 -12.5t6 -7.5q1 0 4 1t4 1q0 14 -1 26.5t-1 26.5q0 1 0.5 4.5t0.5 4.5q0 2 0.5 9.5t1 17.5t1.5 21.5t1.5 22t1 18t0.5 9.5q1 12 2 22.5
t4 21.5q0 1 0.5 3t1 3l1 2t2.5 1q3 0 4 -1.5t1 -4.5q0 -4 -1 -9l-2 -10t-2.5 -10.5t-1.5 -10.5q-2 -27 -4.5 -53t-2.5 -53q0 -15 0.5 -27.5t1.5 -28.5q1 -5 3 -8t4.5 -5t3.5 -4t1 -6q-3 0 -11 1.5t-15.5 4t-13.5 6.5t-6 8q-1 2 -1 7t-0.5 11t-1 12.5t-0.5 12.5t-0.5 11
t-0.5 7v3v4v5v4v5v5v5v3q0 2 0.5 9t0.5 14t0.5 13.5t0.5 8.5zM161 144l8 81q0 2 0.5 5t2 5.5l3 5t3.5 2.5h2l1.5 -1l1.5 -1v-2.5v-1.5v-3v-2q0 -1 -1 -5.5t-2.5 -10t-2.5 -10t-1 -6.5q-3 -17 -5 -34t-3 -34q-1 -6 -1 -11.5t-0.5 -11t-1.5 -11t-3 -10.5v-46q0 -2 1 -2.5
t2.5 -1t2.5 -0.5h2q4 0 6 3.5t3 8t0.5 9.5t0.5 7v8t0.5 13t0.5 13v7q2 22 6 43.5t8 42.5q1 5 1.5 10.5t1.5 11.5t2.5 11.5t4.5 9.5q1 1 2.5 1.5t2.5 0.5q3 0 4.5 -2.5t1.5 -5.5q0 -4 -1.5 -8.5t-3.5 -9t-3.5 -9t-2.5 -8.5q0 -1 -1 -7.5t-2.5 -14.5t-2.5 -14t-1 -8
q0 -1 -0.5 -3l-0.5 -2q-5 -25 -8 -52.5t-3 -52.5q0 -4 1.5 -6t4.5 -3t6 -1.5t6 -1.5q1 -1 1 -2v-3q0 -3 -2 -4t-4 -1q-6 0 -12.5 3t-12.5 6q-8 3 -12.5 4.5t-6 4t-1.5 7v14.5v29t2 29q0 3 1 6.5l2 7t1.5 7.5t0.5 7z" />
</svg>
