<?xml version="1.0" standalone="no"?>
<!DOCTYPE svg PUBLIC "-//W3C//DTD SVG 1.1//EN" "http://www.w3.org/Graphics/SVG/1.1/DTD/svg11.dtd" >
<svg xmlns="http://www.w3.org/2000/svg" xmlns:xlink="http://www.w3.org/1999/xlink" version="1.1" viewBox="-10 0 266 256">
   <path fill="currentColor"
d="M98 246q0 2 0.5 3t2.5 1q3 0 5.5 -2t3.5 -5q-1 -42 0.5 -82.5t1.5 -81.5v-6t-0.5 -8t-0.5 -7v-3q0 -8 -5 -11.5t-12 -5t-15 -1.5h-14h-8h-8l-0.5 1.5l-0.5 1.5v1v1l0.5 1l0.5 1h16q3 0 3 2v4q0 9 -1 19t-2 19q0 4 -1 11t-1.5 16t-1 18.5t-1 18.5t-0.5 16t-1 10v33v32
q2 4 6 4q3 0 4.5 -3t1.5 -6q0 -21 -0.5 -44t0 -46.5t2 -47t5.5 -45.5q-1 -5 2.5 -6.5t7.5 -1.5q5 0 9.5 2t5.5 8v4v4.5v5.5v4q0 16 -1.5 33t-1.5 33v9v2.5t0.5 3.5t0.5 3.5v2.5q0 21 -1.5 42t-1.5 42zM183 148q0 22 -1.5 44t-3.5 43v3v4.5v4.5v2q5 0 8.5 -1t4.5 -6v-42
q0 -1 0.5 -2.5t1 -3.5t0.5 -3.5v-1.5v-8v-12.5v-11.5v-9v-10v-13v-11v-5q0 -7 -1 -12t-3.5 -8.5t-6.5 -5t-11 -1.5q-9 0 -14.5 1.5t-9 5t-5.5 9.5t-4 14q0 3 -0.5 10.5t-1 16t-1 16t-0.5 10.5q0 1 -0.5 2.5t-0.5 3.5t-0.5 3.5t-0.5 2.5v66q0 2 1.5 2h2.5q2 0 3.5 -1t2.5 -4
v-32l0.5 -2t0.5 -3.5t0.5 -3.5l0.5 -2v-9v-15v-14v-9t0.5 -9t1.5 -15t1.5 -14.5t1.5 -9.5t3 -5.5t5 -4t6 -2t6 -0.5h4.5h3.5q1 1 2 2.5t2 2.5v10t0.5 14.5t0.5 14.5v9v5zM123 65q0 2 1 3t3 1q6 0 10.5 -3t9 -6.5t9.5 -6.5t11 -3q5 0 10.5 3t10.5 6.5t9.5 6.5t8.5 3h1.5
t2.5 -1t1.5 -2.5t0.5 -2.5q0 -4 -3.5 -6.5t-8.5 -4.5t-11 -3.5t-10.5 -3t-8 -4t-2.5 -6.5l3 -21q1 0 -0.5 -1t-2.5 -1h-1h-1q-1 0 -3.5 1l-2.5 1q-1 0 -2 0.5l-1 0.5v27l-1 1t-3 2l-4 2t-3 2l-6 3t-7.5 4t-6.5 4.5t-3 4.5z" />
</svg>
