<?xml version="1.0" standalone="no"?>
<!DOCTYPE svg PUBLIC "-//W3C//DTD SVG 1.1//EN" "http://www.w3.org/Graphics/SVG/1.1/DTD/svg11.dtd" >
<svg xmlns="http://www.w3.org/2000/svg" xmlns:xlink="http://www.w3.org/1999/xlink" version="1.1" viewBox="-10 0 266 256">
   <path fill="currentColor"
d="M91 239v4t3 3q4 -2 6.5 -6.5t1.5 -9.5q0 -2 -0.5 -8.5t-0.5 -13v-13v-8.5q0 -1 -0.5 -2.5t-0.5 -2.5v-4v-4q0 -33 2.5 -65.5t2.5 -66.5q0 -8 -5.5 -12.5t-13 -6.5t-15.5 -2h-13h-4h-4q-2 0 -2 1v2t0.5 3t1.5 2h11q2 0 3 2t1.5 4t0.5 4v3q0 3 -1.5 7.5t-1.5 7.5q0 5 -1 14
t-1.5 20t-1 24t-1.5 24t-1.5 20.5t-0.5 13.5v4v7.5v8.5v7v5v8.5v8.5v5q1 2 2 2h3t3 -0.5t2 -3.5q0 -23 1 -45.5t2 -45.5q2 -25 2.5 -50.5t4.5 -50.5q1 -2 2 -2h2q7 0 10 2t4.5 5t1.5 8.5v11.5q0 30 -2.5 60.5t-2.5 61.5l0.5 2t0.5 3v6q0 12 -0.5 24t-0.5 24zM161 243
q2 1 3 1h2q2 0 3.5 -1t2 -3l1 -4t0.5 -4v-99q0 -2 2 -2h3q5 0 8.5 4.5t6 11t3.5 15t1 16v13.5v8q0 7 -1 13.5t-1 12.5q0 4 4 4t5.5 -2.5t2 -6.5t0.5 -8v-6v-12q0 -3 -0.5 -9t-1 -13t-1 -13.5t-0.5 -8.5q-1 -2 -2 -4.5l-2 -5t-1.5 -5t-1.5 -2.5q-1 -3 -5 -5.5t-8.5 -4.5
t-7.5 -4t-3 -4v-22l1 -4q11 -3 17.5 -6.5t9.5 -8.5t4 -13t1 -20v-14q-1 -1 -2 -1h-2h-2t-1 1q-1 4 -1 9t-1 10.5t-2 11.5t-3.5 10.5t-5.5 7t-8 2.5l-1 0.5t-2 0t-1.5 -0.5t-0.5 -1v-65h-10l-2 3v2v3.5v3.5v3q0 13 1 25.5t1 24.5q0 2 -1.5 2.5t-3 0.5h-3h-2.5h-7
q-2 -2 -3.5 -4.5t-2.5 -6.5v-5.5t-0.5 -9t-1 -8.5t-0.5 -6q0 -3 -1 -5t-4 -2h-1.5t-1.5 2v2v3v4v2q0 9 0.5 17.5t4.5 16.5q2 5 5 6.5t5.5 2t5.5 0.5t5 1.5t3.5 5t1.5 11.5v6q-4 6 -9.5 9.5t-9.5 8.5q-7 8 -9.5 18t-3.5 21.5t0 22.5t1 20q-2 3 -2 8.5v8.5q1 0 2.5 -0.5
t3.5 -1t3 -2t1 -2.5v-58q0 -4 1.5 -10.5t3.5 -13t6 -11t9 -4.5q1 0 2 0.5t1 1.5q0 18 1.5 35.5t1.5 35.5q0 9 -1.5 18.5t-1.5 18.5v6z" />
</svg>
