<?xml version="1.0" standalone="no"?>
<!DOCTYPE svg PUBLIC "-//W3C//DTD SVG 1.1//EN" "http://www.w3.org/Graphics/SVG/1.1/DTD/svg11.dtd" >
<svg xmlns="http://www.w3.org/2000/svg" xmlns:xlink="http://www.w3.org/1999/xlink" version="1.1" viewBox="-10 0 266 256">
   <path fill="currentColor"
d="M152 132q0 15 -2 29.5t-4.5 29.5t-4.5 29.5t-2 28.5q8 0 10.5 -3t2.5 -10q0 -2 0.5 -8t1.5 -13.5t1 -15t1 -10.5v-2v-2v-2v-1q0 -1 0.5 -4.5t1 -7.5t1 -7t0.5 -4q0 -2 0.5 -6.5t1 -10t0.5 -10.5v-7q3 -1 5 -1h4h3q3 3 4 10t1.5 14.5t1 14.5t0.5 11q0 1 1 1.5l1 0.5
q5 16 6.5 32.5t1.5 32.5l4 4t4 2q3 0 5 -3.5t2 -5.5t-0.5 -3.5t-1.5 -3.5q-1 -3 -2 -10.5t-2.5 -15.5t-2.5 -15t-2 -10q-1 -6 -2.5 -13l-3 -14t-2.5 -14t-1 -13q0 -2 1.5 -4.5t3 -4.5t3.5 -4.5t3 -4.5q3 -7 4 -15.5t1 -15.5v-1l-0.5 -1.5t-0.5 -3t-0.5 -2.5t-0.5 -2v-2
q0 -10 1 -19t1 -19q0 -3 -1.5 -6t-5.5 -3q-3 0 -5 1.5t-2 4.5v37l-0.5 0.5t-1.5 0.5q0 1 -2 1.5t-3 0.5h-33q-2 0 -4.5 -2.5t-2.5 -3.5v-1q0 -2 0.5 -5.5t0.5 -7t0.5 -6l0.5 -2.5q0 -1 0.5 -3t1.5 -2v-1q0 -4 -4 -5.5t-6 -1.5t-4 1t-2 4v1v2t0.5 4l1 4l0.5 2v44q1 3 1.5 6.5
l1 7t1 6.5t1.5 5q1 6 4.5 8.5t6 4t4.5 3.5t2 6zM96 61v164q0 1 0.5 4.5t2 7t3 6t3.5 2.5q3 -1 3.5 -2.5t0.5 -3.5q0 -9 -2 -17.5t-2 -17.5v-6v-14v-16v-13q0 -29 1.5 -58t0.5 -58l1 -2t2 -4.5t1.5 -5t0.5 -3.5t-7.5 -3.5t-17 -5t-18.5 -4.5t-12 -2t-4 1t-1 4q0 2 2 4t4 3
t4.5 2.5t4.5 3.5v3v4v3v3q0 31 -1 62t-3 62q-1 15 -3 29.5t-2 29.5v4.5v4.5q1 2 1.5 2h1.5q3 0 5.5 -1.5t3.5 -3.5q0 -12 0.5 -24t1.5 -24t2 -24.5t2 -24.5q1 -24 1.5 -49.5t-0.5 -50.5q2 -4 5.5 -5.5t8.5 -1.5t6 3.5t1 8.5v1.5v0.5v4.5t-0.5 6t-1 6.5t-0.5 5zM142 79v-4
t2 -2h1h7.5t11.5 0.5t12 0.5t8 1l2.5 1t2.5 2v23q0 3 -2.5 6t-5.5 5t-7 3.5t-6 1.5q-7 0 -11 -1t-6 -3t-3.5 -5.5t-2.5 -10.5l-0.5 -2t-1 -4.5t-1 -4.5t-0.5 -3v-4z" />
</svg>
