<?xml version="1.0" standalone="no"?>
<!DOCTYPE svg PUBLIC "-//W3C//DTD SVG 1.1//EN" "http://www.w3.org/Graphics/SVG/1.1/DTD/svg11.dtd" >
<svg xmlns="http://www.w3.org/2000/svg" xmlns:xlink="http://www.w3.org/1999/xlink" version="1.1" viewBox="-10 0 266 256">
   <path fill="currentColor"
d="M97 248q0 2 2 2h3q3 0 5 -1.5t2 -4.5t-1 -5t-2 -5v-41l-3 -6v-54l-1 -6q0 -3 0.5 -10t1 -15t1 -17t1 -17.5t0.5 -15t1 -9.5v-4q0 -5 -1 -9.5t-3 -8t-5.5 -5.5t-9.5 -2l-4 -0.5t-9 -0.5t-10.5 -0.5t-8.5 -0.5h-2q-3 0 -5 1.5t-2 4.5q0 4 3.5 5t7.5 1t7.5 -0.5t4.5 2.5v6
q0 2 -0.5 9t-1.5 14.5t-2 13.5l-1 6q0 20 -1 40t-3 40t-3.5 40t-1.5 40q0 3 1.5 5t4.5 2q1 0 2.5 -0.5t1.5 -1.5q3 -27 4 -54t1.5 -53.5t2.5 -53.5t7 -53q2 -2 3 -2h2q6 0 7.5 3l3.5 7v19q0 19 -2 36.5t-2 36.5q0 15 1 30.5t1.5 30.5t1 30.5t0.5 30.5zM201 54q0 11 -5 16
t-13 7t-17 2t-17 2.5t-13.5 7.5t-5.5 17v58q0 7 4 11.5t10 7t12 3.5t11 1t12.5 -0.5t14.5 -3t12 -7t5 -12.5v-27q0 -4 -1.5 -7t-4.5 -5t-6.5 -3t-6.5 -1q-11 0 -22 3t-22 3h-8q-1 -1 -1 -2v-3v-2q0 -3 0.5 -7.5t1 -8.5t1 -7l0.5 -3l9 -5q2 0 7 -0.5t10.5 -1t10.5 -1t7 -0.5
q9 -1 14 -3.5t7 -6.5t2.5 -10.5t0.5 -14.5v-15q0 -4 -4 -5.5t-8.5 -2.5t-9 -1h-6.5q-13 0 -26.5 2.5t-26.5 2.5q-3 0 -3.5 1.5t-0.5 3.5q0 4 3 4h6q11 0 21.5 -2t21.5 -2h16q3 0 4.5 2t2.5 4.5t1 5.5v5zM140 139l4 -4l5.5 -0.5t13 -1t15.5 -1t13 -0.5h1.5h2.5h3.5t2.5 3v12
q0 11 -2.5 16.5t-7 8t-12 3t-17.5 0.5h-3q-1 0 -3.5 -0.5t-3.5 -0.5h-3q-3 0 -6 -3t-3 -7v-25z" />
</svg>
