<?xml version="1.0" standalone="no"?>
<!DOCTYPE svg PUBLIC "-//W3C//DTD SVG 1.1//EN" "http://www.w3.org/Graphics/SVG/1.1/DTD/svg11.dtd" >
<svg xmlns="http://www.w3.org/2000/svg" xmlns:xlink="http://www.w3.org/1999/xlink" version="1.1" viewBox="-10 0 266 256">
   <path fill="currentColor"
d="M150 157q0 13 3.5 24t8.5 21.5t12 20.5l14 20q1 2 1.5 2h3.5q2 0 4 -1t2 -5v-1l-0.5 -1.5t-1.5 -1.5q-5 -8 -11.5 -16.5t-13 -17.5t-10.5 -18.5t-4 -19.5t5.5 -16t12 -11.5t12 -11.5t5.5 -16v-83h3t4.5 -0.5t4.5 -1.5t2 -4t-2.5 -3.5t-4.5 -0.5h-2h-2q-3 0 -9 0.5
t-13.5 1.5t-16 1.5t-16 1t-13.5 1.5t-9 1q-2 0 -3.5 1.5t-1.5 3.5q0 4 3 4q15 0 29.5 -3t29.5 -3h3h2l3 4v76l-0.5 2t-1.5 4t-2.5 4.5t-1.5 3.5q-3 5 -8 9t-9.5 8t-7.5 9t-3 12zM93 210l1 18q0 1 1 1.5t2.5 0.5h2.5h1v-6v-9v-9v-6v-15t0.5 -22t1 -26t0.5 -26.5t0.5 -22.5
t0.5 -14q2 -7 2 -16v-15v-4v-6v-6v-3q0 -4 -5.5 -6.5t-12.5 -3.5t-14 -1h-11h-4.5h-4.5t-2.5 1.5l-1.5 1.5v2q0 3 2.5 3.5t4.5 0.5h6q4 0 5 2v10v10v5t-0.5 8.5t-1 10t-0.5 10.5t-0.5 8.5t-0.5 4.5q-2 29 -2.5 57.5t-0.5 57.5v8q0 1 1 1.5t2 0.5q3 0 5 -3t3 -6v-11.5v-17.5
v-18.5v-11.5q0 -5 0.5 -14t1.5 -21t1.5 -25.5t1 -25.5t1 -21.5t1.5 -13.5q1 -3 3.5 -3.5t5.5 -0.5h3.5t3.5 2q1 10 1.5 18.5t0.5 17.5q0 8 -2 16t-2 16v8v14v14v9v14t-0.5 22t-0.5 22v14zM179 129q2 0 2 2q0 1 -2 1q-1 0 -1 -1q0 -2 1 -2zM127 101q0 4 3 5.5t5 1.5h11
q10 0 15 -3.5t7.5 -9.5t3 -13.5t0.5 -16.5q0 -6 -0.5 -10.5t-2.5 -10.5l-1 -1t-2 -1q-4 0 -4.5 3.5t0 7.5t0 7t-4.5 3h-20l-4 -3v-16l-2.5 0.5t-3.5 1.5q-2 2 -2.5 4.5t-0.5 4.5v3q0 3 0.5 9t1 13t1 13t0.5 8zM135 93v-4v-3q0 -6 2 -9t5.5 -4t7.5 -1h10v21q0 2 -2 3t-4.5 2
t-5 1.5t-3.5 0.5q-3 0 -5.5 -2.5z" />
</svg>
