<?xml version="1.0" standalone="no"?>
<!DOCTYPE svg PUBLIC "-//W3C//DTD SVG 1.1//EN" "http://www.w3.org/Graphics/SVG/1.1/DTD/svg11.dtd" >
<svg xmlns="http://www.w3.org/2000/svg" xmlns:xlink="http://www.w3.org/1999/xlink" version="1.1" viewBox="-10 0 266 256">
   <path fill="currentColor"
d="M129 239q0 3 1 6.5t4 3.5t4 -3t1 -5v-7.5v-11.5v-11.5v-7.5q0 -8 2.5 -16t4.5 -16h1q2 0 4.5 5.5t5 14t6 18t7 18t6.5 14t6 5.5t4.5 -2t1.5 -5t-1.5 -6t-3 -5.5t-3.5 -4.5t-4 -5q-1 -2 -3 -7t-4.5 -12t-5 -14.5t-5 -14t-3.5 -11.5t-1 -7v-2q4 -6 7.5 -11t6 -10.5t4 -11
t1.5 -12.5v-6v-5q1 -3 -1 -3.5t-3 -0.5q-3 0 -4 3.5t-1 8.5v9q0 5 -1 8q0 3 -2.5 7.5t-3.5 6.5l-1 0.5t-2 0.5t-2 -0.5t-2 -1.5q1 -10 -0.5 -20t-1.5 -21v-15q2 -3 4 -4t5 -1t6 -0.5t5 -1.5t3.5 -7t2.5 -13.5t1.5 -13.5t0.5 -8v-4.5t-4 -1.5q-2 0 -3 1t-1 2v3v4t-1 6t-1.5 9
t-1 9t-1.5 6q0 3 -3 3h-5h-2.5h-2.5l-1 -0.5l-1 -0.5v-54q-2 0 -3.5 2.5t-2.5 4.5v22l-0.5 3l-0.5 3v4q0 3 -0.5 6.5t-0.5 6.5v4q0 19 2 37.5t2 37.5v18q-1 3 -3.5 6t-3.5 6q-2 12 -5 25.5t-3 25.5v2l1 2t1 3v0q0 3 -1 5.5t-1 5.5zM84 235q0 2 1 3t3 1t3.5 -0.5t1.5 -2.5
q0 -25 0.5 -50.5t1.5 -50.5t2 -50.5t1 -50.5q0 -5 -2 -9t-7 -5q-8 -1 -17.5 -2.5t-18.5 -1.5h-4t-2 3q0 4 2.5 4.5t5.5 0.5t5.5 1t2.5 5q0 2 -0.5 3.5t-1.5 2.5v7t-0.5 10.5t-1 10.5t-0.5 7v10l-9 143q0 1 -1 3.5t-1 3.5v2q0 2 1.5 3.5t3.5 1.5t5 -2t3 -5v-40q1 -1 2 -5
t1 -8.5t0.5 -8.5t0.5 -7v0q-1 -1 -1.5 -3.5t-0.5 -3.5q0 -2 0.5 -7.5t1 -12t1 -12t0.5 -8.5l0.5 -2t0.5 -3.5t0.5 -3.5l0.5 -2q1 -18 1.5 -35t3.5 -35l0.5 -2l0.5 -2q1 -2 2 -2h3q3 0 6.5 1t4.5 4v7q0 24 -1 48.5l-2 49t-2 48.5t-1 49zM116 21q1 31 0.5 62t-3.5 62l-2 12
t-2.5 11.5t-3 11.5t-1.5 12q4 0 7 -4t4.5 -9t2.5 -10t2 -7q1 -18 2 -37.5t1 -37.5v-10l-0.5 -1t-0.5 -2t-0.5 -2l-0.5 -1q0 -10 1.5 -20t1.5 -20v-3v-4t-1 -3.5t-3 -1.5q-1 0 -2 0.5t-2 1.5zM189 152q1 1 2 7t2 13t2 12.5t2 5.5h8q1 0 1.5 -1.5t0.5 -2.5v-1q0 -3 -1 -6.5
t-2.5 -6.5t-2.5 -6.5t-2 -7.5q-1 -6 -1.5 -12t-1.5 -13v-77q0 -2 0.5 -6t1.5 -8.5t1.5 -8.5t0.5 -5q1 -1 1 -2v-1q0 -3 -2 -4.5t-4 -1.5q-1 0 -3 0.5t-1 3.5q-1 3 -1.5 11t-1 16.5t-0.5 16v10.5v22v14v12t0.5 12.5t0.5 14.5z" />
</svg>
