<?xml version="1.0" standalone="no"?>
<!DOCTYPE svg PUBLIC "-//W3C//DTD SVG 1.1//EN" "http://www.w3.org/Graphics/SVG/1.1/DTD/svg11.dtd" >
<svg xmlns="http://www.w3.org/2000/svg" xmlns:xlink="http://www.w3.org/1999/xlink" version="1.1" viewBox="-10 0 266 256">
   <path fill="currentColor"
d="M136 124q-1 9 -0.5 20.5t2.5 23.5t4.5 23t6.5 20q2 4 5 8t6.5 8.5t7.5 8t6 5.5q4 4 10 6.5t11 2.5q2 0 4.5 -1t2.5 -4q0 -1 -4 -4.5t-10 -8t-13 -10t-13 -11.5t-10 -12.5t-4 -12.5q0 -1 0.5 -1h0.5q7 -9 11 -15t6.5 -11.5t4 -12.5t2.5 -19q0 -2 1.5 -3t3.5 -2l2.5 -0.5
t5 -1.5t4.5 -1.5t2 -1.5q4 -1 7 -4.5t4.5 -7.5t2.5 -8.5t1 -8.5q0 -13 -2.5 -20t-8 -11t-14 -5.5t-19.5 -3.5l-1.5 -0.5t-1.5 -1.5q1 -5 -2 -9t-7 -7t-9 -4.5t-9 -3.5q-1 0 -2 -2.5t-2 -4.5t-2.5 -4t-2.5 -2q-3 0 -3.5 2t-0.5 5q0 8 5 12.5t11 6.5t11 3.5t5 4.5t-3.5 5
t-8.5 3.5l-10 3t-7 2.5q-5 4 -8 8t-5 10q-2 4 -3 6.5t-1.5 5t-0.5 4.5v5q0 13 7.5 19t21.5 6zM91 240q0 1 1.5 1.5t2.5 0.5q3 0 3.5 -2.5t0.5 -5.5q0 -7 -1 -13.5t-2.5 -13t-2.5 -13.5t-1 -14v-3q0 -1 0.5 -3t0.5 -4.5t0.5 -4.5t0.5 -3v0v0q0 -12 -1 -23.5t-1 -22.5
q0 -10 1 -20t3 -20t3 -20t1 -19q0 -4 -3 -8t-6 -5q-9 -2 -16 -3.5t-15 -1.5q-3 0 -5.5 0.5t-2.5 4.5v2t1 2h13q2 0 2 2.5v2.5q0 6 -2.5 11.5t-2.5 11.5q-1 7 -2 14.5t-1 14.5l-4 56t-1 55l-2 4v35l2 2l3 3h0.5h0.5q2 0 3.5 -2.5t2.5 -4.5q-2 -41 1 -82.5t7 -81.5v-8.5
t0.5 -11t1.5 -10.5t3 -7h2h2q5 0 7 1t2 6q0 7 -1 14.5t-2.5 14.5t-2.5 14t-1 14v89q0 6 1 13.5t2 14.5l2 14t2 13zM145 169v-13t-0.5 -19.5t-0.5 -19.5v-12v-2v0v-3t0.5 -4.5t0.5 -4.5v-3q0 -5 -3.5 -8.5t-7.5 -5.5t-7.5 -3.5t-3.5 -4.5v0q0 -1 1 -2l2 -2q1 0 5 -1t8.5 -2
t8.5 -2t6 -1h1h4h4h4h2h4h4h2q5 0 9.5 3.5t4.5 8.5q0 1 -0.5 2.5t-1.5 1.5q-5 0 -9.5 1.5t-8.5 4.5t-6 7.5t-2 9.5v1t0.5 2.5t1 2.5t0.5 2v9v3t-0.5 4.5t-1 4.5t-2.5 3v16q0 2 -1.5 6.5t-3.5 9.5t-5 9t-5 4h-1l-1 -1.5zM113 100v-5v-6.5t1.5 -6t4.5 -2.5q7 0 13 3.5t6 12.5
v4q0 2 -0.5 5t-1.5 5t-3 2q-3 0 -6.5 -0.5t-6.5 -2t-5 -4t-2 -5.5zM174 98v-8q4 -5 7.5 -6.5t9.5 -1.5h5q2 2 1.5 5t-0.5 5q0 3 -1.5 6.5t-4 6.5t-5.5 5t-7 2q-2 0 -3 -1.5t-1.5 -4t-0.5 -5v-3.5z" />
</svg>
