<?xml version="1.0" standalone="no"?>
<!DOCTYPE svg PUBLIC "-//W3C//DTD SVG 1.1//EN" "http://www.w3.org/Graphics/SVG/1.1/DTD/svg11.dtd" >
<svg xmlns="http://www.w3.org/2000/svg" xmlns:xlink="http://www.w3.org/1999/xlink" version="1.1" viewBox="-10 0 266 256">
   <path fill="currentColor"
d="M118 246q1 3 2.5 4t4.5 1q2 0 3.5 -1t1.5 -3q0 -5 -1.5 -10.5t-2.5 -11.5l-2 -12t-1 -11q0 -12 1.5 -23t9.5 -20q3 -3 5.5 -6t5 -5t5 -3.5t6.5 -1.5q6 0 11.5 4t5.5 11q0 4 -1.5 9t-3.5 10t-3.5 10.5t-1.5 11.5q0 5 3 13t8 16t11 14t12 6q3 0 5 -1.5t2 -4.5v-1v-2
q-5 -3 -10 -8t-10 -11t-8 -12t-3 -13q0 -5 1 -10t2.5 -9.5l3 -9t1.5 -9.5q0 -6 -2 -9.5t-4.5 -5.5t-6 -3.5t-6.5 -3t-5 -4t-2 -7.5v-2.5t2 -2.5q10 0 16.5 -1t10.5 -4.5t5 -9.5t1 -16q0 -2 -1.5 -3.5t-3.5 -1.5h-2q-4 6 -4 11t-0.5 9t-3.5 6t-14 2h-2h-2l-2 -2v-32
q0 -2 3 -2.5t7 -1.5t9 -2.5t9.5 -5t7.5 -9t3 -14.5v-5.5t-3 -3.5t-4.5 1.5t-2.5 3.5q0 2 0.5 4.5t0.5 4.5q0 3 -0.5 6t-1.5 5q-5 3 -10.5 5.5t-11.5 2.5h-3t-1 -2v-7q0 -10 3.5 -16.5t8 -11.5t8.5 -8t4 -6q0 -1 -1 -2t-2 -1q-4 0 -9 3.5t-9 8t-6.5 9.5t-3.5 9v4.5t-0.5 7
t-0.5 7v5.5h-3h-3t-3.5 -0.5l-5 -1t-4 -1.5t-1.5 -4v-21q0 -2 -2.5 -2.5t-4.5 -0.5q-1 0 -2.5 0.5t-1.5 1.5v1v0q1 2 1 4.5t0.5 6t1 6t0.5 3.5q1 1 1.5 3.5l0.5 2.5q2 4 5.5 5t7.5 2t7 2t4 4q0 1 0.5 5t0.5 8.5t0.5 8.5t0.5 5v2q0 4 -2 5t-5 1q-8 0 -12 -2t-5.5 -5t-1 -7
t0 -7t-1.5 -5t-6 -2q0 7 0.5 13.5t1.5 13.5q3 3 6 5t7 2.5t9 0.5h7q2 1 2 3.5v4.5q0 5 -3 9t-7 7.5t-8 6.5t-6 8q-7 11 -8.5 21.5t-1.5 23.5v11.5t0.5 9.5l1 10t1.5 12zM86 237q0 3 2.5 5.5t4.5 2.5t3 -1t1.5 -3t0 -3.5t-0.5 -2.5v-6t-1 -6v-11t-0.5 -17t-0.5 -17v-11
q0 -29 1 -58.5t1 -58.5q0 -7 -2 -10.5t-5.5 -5t-8.5 -2t-11 -2.5q-4 0 -7 -1.5t-7 -1.5t-4 4q0 2 2 2.5t4.5 1t4.5 1t2 4.5v1.5v1.5q0 2 -0.5 9.5t-1.5 17t-1.5 20.5t-1 20.5t-1 16.5t-0.5 10q-2 20 -2 40.5v40.5v12q1 1 2 1.5t2 0.5q3 0 4.5 -2.5t2.5 -5.5t1.5 -6.5
t0.5 -4.5v-1q0 -1 -0.5 -3.5t-1.5 -2.5v-44q1 0 1.5 -2.5t0.5 -3.5v-2l0.5 -1.5l0.5 -1.5v-1.5t-0.5 -2.5t-0.5 -2.5v-1.5v-10v-9q0 -3 0.5 -9.5t1 -15l1 -17l1 -17t0.5 -14.5t1 -9q0 -2 2 -2h2h5t5 2v27q0 29 -1.5 57t-1.5 56q0 6 1 12t1 12q0 8 -1 15.5t-1 15.5z" />
</svg>
