<?xml version="1.0" standalone="no"?>
<!DOCTYPE svg PUBLIC "-//W3C//DTD SVG 1.1//EN" "http://www.w3.org/Graphics/SVG/1.1/DTD/svg11.dtd" >
<svg xmlns="http://www.w3.org/2000/svg" xmlns:xlink="http://www.w3.org/1999/xlink" version="1.1" viewBox="-10 0 266 256">
   <path fill="currentColor"
d="M164 202q0 4 2.5 12.5t7 16.5t9.5 14t11 6h1q0 -1 1 -2l2 -2v-0.5v-0.5v0v0l-21 -29q-3 -4 -4 -8t-1 -9t2.5 -9.5t5 -8t5 -7.5t2.5 -9q0 -7 -3 -11.5t-6 -8.5t-6 -6.5t-3 -4.5t3.5 -3t7 -3t7 -5.5t3.5 -10.5q0 -4 -1 -7.5t-1 -7.5t2 -5t4.5 -1.5t4.5 -1t2 -3.5v-2.5
t-2 -1.5l-2.5 -0.5t-3.5 -0.5q-5 0 -10.5 1t-10.5 1h-7t-6 -4v-6q0 -4 0.5 -7.5t1.5 -7.5q10 -1 20 -1.5t20 0.5q2 -1 2.5 -2.5t0.5 -3.5q0 -4 -2 -4.5t-5 -0.5q-19 0 -39.5 2t-39.5 4v6h34v27q0 1 -4 2t-9 3t-10 4.5t-6 6.5v10q0 5 1 10t2.5 9.5t2.5 9t1 9.5v2v2
q0 1 -0.5 2t-1.5 2.5t-1.5 3l-0.5 1.5q-2 10 -4 20.5t-2 20.5v4q0 2 0.5 5.5t0.5 7.5t0.5 7.5t0.5 4.5q1 2 2 2h3q3 0 3.5 -1.5t0.5 -4.5q0 -5 -0.5 -10t-0.5 -10q0 -13 1 -24t6 -22q3 0 4.5 2.5t2.5 5t2.5 4.5t4.5 2q2 0 3 -1.5t1 -3.5v-1v-1q-1 -1 -2.5 -3.5l-3 -5
t-3.5 -5.5t-2 -4q-1 -2 -1.5 -2.5t-0.5 -3.5v-2q1 -1 2.5 -2t4 -2t4 -2t2.5 -1h0.5h1.5h0.5h0.5l2.5 2.5t3.5 4t4 4.5l3 3q3 3 5.5 4.5t2.5 6.5q0 4 -1.5 8t-4 8.5t-5 8t-3.5 6.5q-1 1 -1 4.5v4.5zM96 236q0 2 1 4t3 2t3.5 -1t2 -3t0.5 -4v-4v-3v-3t-0.5 -5.5t-1.5 -9.5
t-1 -9v-6q-1 -15 -1.5 -30.5t-0.5 -31.5q0 -23 2.5 -46t2.5 -47v-2v-4v-4v-3q-2 -5 -6.5 -7t-10 -2.5t-11.5 0t-10 0.5h-13q-2 0 -3 1t-1 3q0 3 2 4t4.5 1h5.5t5 2v2.5v1.5q0 27 -2.5 53t-2.5 52q0 22 1 44t1 43q0 2 1 2h2q3 0 4 -1t2 -4q0 -23 -0.5 -46t-0.5 -46.5t1 -47
t3 -46.5v-2.5v-2.5q1 -1 2.5 -1.5l3 -1t3 0l1.5 0.5h4h4l0.5 0.5t0.5 1.5l0.5 1t0.5 3t0.5 3.5t0.5 2.5v1q0 27 -2.5 53.5t-2.5 53.5q0 20 1.5 39t3.5 39v1q0 2 -1 4.5t-1 4.5zM131 113v-8q3 -4 7.5 -6.5t9.5 -2.5h2h2q1 7 3 14t2 15q0 3 -1.5 4.5t-4 2.5t-5 1.5t-5.5 1.5
h-3q-3 0 -4.5 -2.5t-2 -6t-0.5 -7.5v-6zM161 104v-2q0 -2 0.5 -3.5t0.5 -2.5t1 -1h14q1 0 2 2.5t1.5 5.5t1 5.5t0.5 3.5q0 7 -3.5 9t-8.5 2q-4 0 -5.5 -2t-2.5 -4.5t-1 -6.5v-6zM134 27v0.5v0.5l0.5 1t1.5 1h3.5h5.5h5h4h5h6h5h2q3 0 6.5 -0.5t7 -0.5t6.5 -0.5l3 -0.5l3 -4
l-3 -3h-3.5h-5.5q-13 0 -25.5 1t-24.5 2l-1.5 1.5l-0.5 0.5v0.5v0.5z" />
</svg>
