<?xml version="1.0" standalone="no"?>
<!DOCTYPE svg PUBLIC "-//W3C//DTD SVG 1.1//EN" "http://www.w3.org/Graphics/SVG/1.1/DTD/svg11.dtd" >
<svg xmlns="http://www.w3.org/2000/svg" xmlns:xlink="http://www.w3.org/1999/xlink" version="1.1" viewBox="-10 0 266 256">
   <path fill="currentColor"
d="M84 180q0 19 0.5 35.5t2.5 35.5h0.5h0.5q3 0 5 -2.5t4 -4.5v-2.5v-3.5v-4v-3q0 -17 -1 -34.5t-1 -34.5q0 -30 2 -59t2 -59v-7t-0.5 -8t-2.5 -7t-6 -4q-2 0 -6 -1l-8 -2t-7.5 -1.5t-4.5 -0.5h-8h-9q-1 0 -1.5 0.5t-0.5 1.5v3.5v2.5h14l1.5 1.5t1.5 2.5v1q0 8 -1.5 16.5
t-1.5 16.5q0 2 -0.5 6t-0.5 10t-0.5 13t-1 12.5t-0.5 10v6.5q-1 4 -2 9.5t-2 10.5q0 25 -1 47.5t-1 46.5q0 2 1 5t5 3q1 0 3 -2l3 -3v-6v-9v-8.5v-5.5t0.5 -5t1.5 -5v-70l0.5 -3l1 -6l1 -6t1.5 -5q0 -1 0.5 -2.5l0.5 -1.5q2 -18 2 -36.5v-36.5q1 -2 2 -2.5t3 -0.5q4 0 8 2
t6 5v3v5v4v3q0 33 -3 66.5t-3 66.5zM131 198q4 8 11 9t16 1h8t8 -1t7 -3.5t5 -7.5q0 -6 0.5 -11t1 -9.5t0.5 -9.5v-10v-5.5t-0.5 -5t-0.5 -5.5t-1 -7q-2 -2 -5.5 -2h-5.5v21l-34 3q-4 1 -5 -2t-1.5 -7t-1 -7.5t-4.5 -3.5q-1 0 -2 0.5t-1 1.5v10q0 12 2 25t3 26zM140 179v-2
v-3v-3v-2q0 -2 3 -3.5t7.5 -2l9 -1t6.5 -0.5h6q3 2 3.5 4.5t0.5 5.5q0 15 -5.5 21.5t-20.5 6.5q-4 0 -6 -2.5t-3 -6t-1 -7v-5.5zM107 128q0 2 0.5 3t3.5 1q1 0 4.5 -4.5t7.5 -11.5t8 -15t7.5 -15.5t6 -13.5t3.5 -8q0 -1 1.5 -4l3 -6t2.5 -6l1.5 -4.5t2 -1.5h2.5h3t2 1
q1 4 3.5 11.5t6 17t8 20t8.5 19t8 14t7 5.5q2 0 4.5 -1.5t2.5 -4.5q0 -1 -2 -4t-4.5 -8t-6 -10.5t-6 -11t-5 -9.5t-2.5 -5q-5 -14 -9.5 -29.5t-11.5 -28.5q-2 -4 -5 -4t-6 4.5t-5 10t-3.5 11t-2.5 7.5q-1 1 -2.5 4t-3 7t-3 7t-1.5 4q-1 0 -1.5 2t-1 3.5l-1 3l-0.5 1.5
q-2 6 -6 12t-8 12.5t-7 12.5t-3 12zM138 108q0 3 2 4.5t4 1.5h9.5t13 -1t11.5 -3.5t5 -7.5q-2 0 -7 0.5t-11 0.5h-10h-7h-3t-3.5 0.5t-2.5 2t-1 2.5z" />
</svg>
