<?xml version="1.0" standalone="no"?>
<!DOCTYPE svg PUBLIC "-//W3C//DTD SVG 1.1//EN" "http://www.w3.org/Graphics/SVG/1.1/DTD/svg11.dtd" >
<svg xmlns="http://www.w3.org/2000/svg" xmlns:xlink="http://www.w3.org/1999/xlink" version="1.1" viewBox="-10 0 266 256">
   <path fill="currentColor"
d="M146 198q6 1 10 5.5t7.5 10t6.5 12t5 12t4 9t4 4.5q1 0 2 -0.5t1 -1v-2.5v-3q0 -5 -2 -12t-5 -14t-7 -12.5t-8 -9.5q-1 0 -3 -1.5t-4 -2.5t-3.5 -1.5l-1.5 -0.5h-26q-2 0 -2 -3v-4v-9.5t3 -9.5h5.5t7.5 -0.5t7.5 -0.5h4.5q4 -1 6.5 -2t3.5 -4q1 -1 1 -4v-4v-4
q0 -4 -0.5 -7.5t-1.5 -6t-4 -2.5v0q-1 0 -2 0.5l-1 0.5v12t-1.5 8.5t-5.5 5t-11 1.5h-7q-3 -4 -3.5 -8.5t-0.5 -9t-0.5 -9t-1.5 -9.5h-2q-2 0 -2.5 1.5t-1.5 3.5v4v7v6v4v22t1 22h-3q-6 0 -12.5 -0.5t-12.5 -3.5q-3 -1 -4 -7t-1.5 -13t-1.5 -12.5t-4 -5.5q-1 0 -2 0.5
t-1 1.5v6v8t0.5 8l1 8t1.5 10q1 5 4 5h7q3 0 11.5 0.5t17 0.5t16.5 0.5t11 0.5zM76 114v2t1 1h11q6 0 12 -0.5t12 -0.5q3 0 4.5 0.5t3.5 0.5h3h1t2 -0.5t2.5 -0.5h1.5q2 -1 7 -1t10 -0.5l10 -1t7 -0.5q2 -1 3 -2t1 -3v-1.5t-1 -1.5h-6q-10 0 -19.5 1.5t-18.5 1.5
q-3 0 -9.5 0.5t-14 1t-14.5 1t-9 0.5v1v2zM70 92q0 1 0.5 2t1.5 1q4 0 9 -3t9.5 -8t9.5 -11t8.5 -11t6.5 -8l3 -3q3 0 6 4t6.5 9t7 9.5t5.5 6.5q5 4 13 7.5t14 3.5q1 0 2 -0.5t1 -2.5t-2 -3.5l-4 -3t-4 -2.5l-4 -2q-13 -10 -22.5 -21t-15.5 -27v-3t-0.5 -4l-1 -4t-1.5 -2
l-1 -0.5t-2 -0.5q-3 0 -4 3.5t-1 7.5t0.5 8.5t-0.5 7.5l-4 8t-4.5 8t-5 7.5t-4.5 7.5q-1 1 -4 3t-6 4.5t-5.5 4.5t-3.5 3q-2 1 -2.5 1.5t-0.5 2.5zM115 85h-3h-2q-2 0 -5.5 0.5l-3.5 0.5v5h22q1 0 2.5 -1.5t1.5 -3.5q-3 -1 -5.5 -1h-6.5z" />
</svg>
