<?xml version="1.0" standalone="no"?>
<!DOCTYPE svg PUBLIC "-//W3C//DTD SVG 1.1//EN" "http://www.w3.org/Graphics/SVG/1.1/DTD/svg11.dtd" >
<svg xmlns="http://www.w3.org/2000/svg" xmlns:xlink="http://www.w3.org/1999/xlink" version="1.1" viewBox="-10 0 266 256">
   <path fill="currentColor"
d="M150 195q1 8 5 15.5t9.5 15t12.5 14t12 11.5h1.5h2.5q2 0 4 -0.5t2 -3.5v-1q0 -1 -0.5 -2l-0.5 -1l-3.5 -3.5t-5.5 -5t-5.5 -5t-2.5 -3.5q-3 -3 -7 -6.5t-7 -7.5t-5.5 -8t-2.5 -9q0 -8 5 -12t11 -7.5t11 -8t5 -12.5q0 -6 -2.5 -10.5t-6.5 -7.5t-8.5 -4.5t-8.5 -2t-7 -1.5
t-3 -2q0 -10 2 -14.5t5.5 -5.5t9.5 -1h15q1 0 4 -0.5t5.5 -0.5t5.5 -0.5t4 -0.5l1.5 -1.5l1.5 -1.5v-1v-1l-0.5 -0.5t-1.5 -0.5h-48q-3 0 -3.5 -3t-0.5 -4q0 -5 0.5 -8.5t1.5 -7.5q2 -1 5 -2t6.5 -1.5t6 -1t4.5 -1.5q7 -2 10.5 -7t4.5 -12t0.5 -14t-0.5 -13q0 -2 -2 -5
t-5 -3h-1l-2 2q1 5 0.5 10t-1 9.5t-1 9.5t-0.5 10q-3 5 -7 6t-9 1h-7q-1 -1 -1.5 -5t-0.5 -5v-8v-12v-13v-8q0 -1 -2 -2h-2.5h-3.5v59q0 4 -2 6.5t-6 2.5q-6 0 -9 -4.5t-4 -10.5t-1 -13.5t-0.5 -13.5t-2.5 -10.5t-8 -4.5q0 3 0.5 9t0.5 13t1 14t2 13t2 10t3 4h19q1 0 2.5 1
t2 2.5t0.5 3.5v3t-0.5 3.5t-2.5 3.5l-36 3l-8 4l-2 -2v-2v-5v-5v-4q0 -13 1 -25.5t1 -24.5q0 -9 -3 -13.5t-8 -6t-12 -2t-14 -0.5h-3t-4 0.5t-4 0.5h-3l-1 3v1q0 3 2.5 3.5t5 0t5 0t2.5 3.5v3v5t-0.5 6.5l-1 7t-0.5 4.5q-1 2 -2 8.5t-1.5 14.5l-1 16t-0.5 11v3v5v5v3v9
t-0.5 14.5t-0.5 14.5v8v7q0 1 -0.5 4t-0.5 6t-0.5 6t-0.5 4v3v6.5v7.5v6v5v7.5v7.5v5q1 2 2 2.5t3 0.5t3 -0.5t2 -2.5v-10.5t2 -9.5v-8v-13v-12v-8q0 -6 0.5 -16.5t1 -24t1.5 -28.5t1.5 -28.5t1 -24t0.5 -15.5q0 -3 0.5 -6t1.5 -5.5t3.5 -4t5.5 -1.5q5 0 7 3t2.5 7t0.5 8.5
v7.5q0 6 -0.5 11t-1.5 11v10t-0.5 15t-0.5 15v10v12t0.5 16t0.5 14v7v5.5t0.5 10t1 12.5t1 12.5t0.5 10v5.5v4t0.5 4t1.5 3.5t4 1.5h1l1.5 -1.5l1.5 -1.5v-1q0 -9 -2 -17.5t-3 -17.5v-9v-14v-15v-8v-7t-0.5 -10.5l-1 -11t-0.5 -6.5t0.5 -2.5l1 -3t0.5 -3.5v-3l1 -0.5l1 -0.5
l2 0.5t3 0.5h3q4 0 9 -0.5t9.5 -1t9 -1.5t8.5 -1q2 0 3.5 1t1.5 4q0 6 -3 10.5t-7.5 8.5t-9 7.5t-7.5 7.5q-4 5 -6 10t-3 11v21v14q0 5 0.5 11t1 12.5t2.5 14.5q0 1 1 1.5t2 0.5q4 0 5.5 -4t1.5 -6q0 -7 -1.5 -14.5l-3 -15t-2.5 -15.5t0 -15q1 -5 3.5 -11t6.5 -11t8.5 -9.5
t9.5 -7.5h3q3 0 8 1.5t9.5 4.5t7.5 6.5t3 7.5t-3.5 7.5t-8.5 8t-9.5 8t-7.5 5.5q0 1 -0.5 2.5t-0.5 3.5t-0.5 3.5t-0.5 2.5z" />
</svg>
