<?xml version="1.0" standalone="no"?>
<!DOCTYPE svg PUBLIC "-//W3C//DTD SVG 1.1//EN" "http://www.w3.org/Graphics/SVG/1.1/DTD/svg11.dtd" >
<svg xmlns="http://www.w3.org/2000/svg" xmlns:xlink="http://www.w3.org/1999/xlink" version="1.1" viewBox="-10 0 266 256">
   <path fill="currentColor"
d="M122 197q0 2 0.5 7t0.5 10.5t1 11.5t2 11t2.5 8t3.5 3t4.5 -2.5t2.5 -4.5q0 -7 -2 -15t-5 -14v-44l11 -35v-27l-1.5 -2t-4.5 -5t-5 -4l-1 -1t-2 -1h-1q-1 0 -1.5 1.5t-0.5 2.5q0 2 1.5 4t3.5 5t3.5 6t1.5 7q0 9 -3 16.5t-6 16.5q-2 10 -3.5 22t-1.5 23zM91 242q0 3 0.5 4
t3.5 1q1 0 3.5 -0.5t2.5 -3.5v-214q0 -1 -1.5 -3t-3.5 -4t-4 -3t-3 -1h-33q-1 0 -2 1.5t-1.5 2.5t0.5 3l1 2h13q1 0 1.5 2t0.5 3q0 25 -2 50.5t-4.5 50.5t-4.5 50.5t-2 51.5v8q0 1 1 1.5t2 0.5q3 0 4 -2t2 -6q0 -3 0.5 -13t1 -21t1 -21t1.5 -14v-2.5v-3.5t0.5 -4t0.5 -3
l1 -2.5l1 -2.5l2 -28t1.5 -28t0.5 -28t2 -28l0.5 -1.5t0.5 -3t0.5 -2.5t0.5 -2q0 -2 1 -2h3q4 0 6 3.5t3 8.5t1 10v8v27v33v13t-0.5 20t-0.5 23.5v23.5t-0.5 20t-0.5 13q-1 4 -1 6.5v5.5zM182 190v8t1 11.5l2 13t3 12t5 9t7 3.5q2 0 3 -2.5t1 -4.5q0 -3 -1 -5t-2.5 -4.5
t-2.5 -4.5t-2 -5l-4 -16t-2 -16q0 -11 2 -20.5t4 -19.5l4 -20t2 -20q0 -4 -2 -7t-5 -5.5t-6.5 -3.5t-7.5 -1q0 4 1.5 7t3.5 6t3.5 6.5t1.5 7.5v5q0 1 -1 5t-2 8.5l-2 9t-1 5.5q-1 6 -2 10.5t-1 9v8.5v10zM151 169v1q0 1 0.5 5l1 8t0.5 7.5v4.5v6t0.5 9.5t1 11.5t1.5 11
t2 8.5t4 3.5q2 0 3 -1.5t2 -4.5q-3 -13 -5.5 -27.5t-2.5 -28.5q0 -21 7 -42l4 -12t2 -13q0 -4 -1 -9t-3 -9t-5.5 -6.5t-8.5 -2.5q0 4 1.5 7t3.5 6t3.5 6t1.5 7q0 7 -2 13.5t-4.5 13.5t-4.5 13.5t-2 13.5zM127 24v2l0.5 1l1 2t0.5 2.5v1.5v12v12t2 11t8 9h2h3.5h3.5h2
q3 0 10 -0.5t14.5 -2t13 -4.5t5.5 -8q0 -3 -0.5 -9l-1 -12t-1 -12.5t-0.5 -10.5q-1 -2 -2 -3.5t-3 -1.5q-3 0 -4 2.5t-1 4.5l0.5 1.5t0.5 2.5t0.5 2l0.5 1q0 6 -4.5 8.5t-10.5 3t-12.5 0t-9.5 -0.5q-5 0 -6.5 -2.5t-2.5 -6t-2 -6.5t-4 -3t-3 4zM140 54v-2v-3l2 -2l3 -0.5
t8 -1t9.5 -1t7.5 -0.5h2.5h1.5q3 0 5.5 2.5t2.5 6.5q0 6 -4 9.5t-9.5 5t-11 1.5h-8.5q-6 0 -7.5 -4t-1.5 -11z" />
</svg>
