<?xml version="1.0" standalone="no"?>
<!DOCTYPE svg PUBLIC "-//W3C//DTD SVG 1.1//EN" "http://www.w3.org/Graphics/SVG/1.1/DTD/svg11.dtd" >
<svg xmlns="http://www.w3.org/2000/svg" xmlns:xlink="http://www.w3.org/1999/xlink" version="1.1" viewBox="-10 0 266 256">
   <path fill="currentColor"
d="M82 115v109q0 1 0.5 4t1 6.5t1 7.5t1.5 5q0 3 1 3.5t3 0.5q4 0 5.5 -3.5t1.5 -7.5q0 -10 -2.5 -20t-2.5 -21v-4.5v-9.5v-11v-10v-6v-11v-10.5v-6.5q2 -15 1.5 -29.5t1.5 -28.5q2 -7 3 -13.5t1 -13.5q0 -8 -4.5 -11.5t-11 -4.5t-14 -0.5t-13.5 0.5h-4.5t-2.5 3v3t1 2h10v4
t0.5 8t0.5 8l-0.5 1t-1 2.5t-0.5 3v1.5q0 1 -0.5 3t-0.5 4t-0.5 4l-0.5 2q-2 21 -2.5 41.5t-0.5 41.5v5v11v13v9v8v11.5v11.5v7q-1 6 3 6q3 0 4.5 -2.5t2 -5.5t0.5 -6v-5l0.5 -2.5t0.5 -5t0.5 -4.5t0.5 -3v-2v-5.5v-5.5v-5v-4v-5v-6v-3q-2 -3 -2 -5v-5v-8.5t0.5 -15.5t1 -20
l1 -22t1 -21t1.5 -18t2 -13t3 -5h12l1 2v3.5v4.5v8t-0.5 11.5t-0.5 13.5t-1 13.5t-1.5 11.5t-1.5 7zM139 176q1 9 6.5 13t12 5t14 1.5t13.5 3.5q2 1 3 5t1.5 9t1.5 11t2.5 11.5t3.5 8.5t5 3t4 -1t1 -3q0 -4 -2.5 -11.5t-5 -15.5t-4.5 -14.5t-1 -7.5q-5 -2 -12.5 -3.5
t-15.5 -3.5t-13.5 -5.5t-5.5 -10.5v-51q0 -3 -2 -4.5t-4.5 -2.5t-5 -1.5t-4.5 -0.5q-11 0 -16 4.5t-7 11t-2 15t-2 16.5v76q0 2 2 2h3q4 0 5 -2.5t1 -6.5v-1v-4.5v-8.5t-0.5 -10.5t-0.5 -10v-8v-4.5v-2v-2v-4.5t0.5 -8t0.5 -8v-4.5q0 -2 1 -7.5t2 -10.5t2.5 -9t3.5 -4h11
q1 0 1.5 1t0.5 2q1 6 1.5 13t0.5 14v14v12zM152 158l1.5 1.5l1.5 1.5h3h3q11 0 23 -0.5t23 -2.5q3 -2 3 -5q0 -2 -0.5 -2.5t-2.5 -0.5h-25q-1 -9 -1.5 -15.5t-0.5 -13.5v-4v-2l2 -2l23 -3l0.5 -1t1.5 -1l1 -1.5l1 -1.5q0 -1 -1 -2l-1 -1h-27l-1 -5l3 -19q1 -4 4.5 -5t7.5 -2
t7.5 -2t5.5 -6v-5v-5q0 -6 -0.5 -10.5t-3 -7.5t-6.5 -4.5t-11 -1.5q-4 0 -9 0.5t-10.5 1t-10.5 1.5t-9 2q-1 0 -1.5 0.5l-0.5 0.5v1q0 2 2 2.5l4 1t4.5 1t2.5 2.5q-2 4 -5 8t-6.5 8t-6 8t-2.5 9q7 0 12.5 -6t10 -13t8 -13t5.5 -6h20q1 0 1.5 2l1 4t0.5 3v3q0 5 -1 7.5
t-3 3.5t-5 1.5t-6 2.5q-8 5 -10.5 11t-2.5 11.5v10t-2 5.5q-2 2 -4.5 2t-4.5 0.5l-4 1t-4 3.5l4 3h11q1 0 1.5 0.5t0.5 1.5q2 3 2.5 6.5t0.5 6.5v12v11q-1 0 -2.5 0.5t-4 0.5t-4 0.5t-2.5 0.5t-3.5 1.5t-1.5 3.5zM100 87q0 1 0.5 2t2.5 1q7 0 12.5 -4.5t9.5 -11.5t6.5 -14.5
t2.5 -13.5q0 -3 -1 -9t-3.5 -12t-5 -10.5t-6.5 -4.5q-3 0 -3.5 1t-0.5 4q0 5 3 8.5t5 8.5q2 4 2 9v9v10q-1 1 -2 2.5t-2.5 3.5t-2.5 3.5t-2 2.5t-3.5 3t-5 3.5t-4.5 4t-2 4.5z" />
</svg>
