<?xml version="1.0" standalone="no"?>
<!DOCTYPE svg PUBLIC "-//W3C//DTD SVG 1.1//EN" "http://www.w3.org/Graphics/SVG/1.1/DTD/svg11.dtd" >
<svg xmlns="http://www.w3.org/2000/svg" xmlns:xlink="http://www.w3.org/1999/xlink" version="1.1" viewBox="-10 0 266 256">
   <path fill="currentColor"
d="M145 247q0 2 2 2h3q2 0 4 -0.5t3 -3.5q0 -3 -0.5 -10t-0.5 -16v-18v-19t0.5 -15.5t0.5 -10.5v-4.5t0.5 -7t0.5 -7v-5.5q1 -2 3 -3t5 -1q7 0 11 1t5 9q1 22 1.5 43.5t0.5 43.5q0 1 0.5 1.5l0.5 0.5q4 0 6 -3t3 -7.5t1.5 -8.5t0.5 -6v-5t-1 -4v-5.5t-0.5 -10t-0.5 -10.5v-6
q-1 -11 -1.5 -18.5t-3.5 -12.5t-10 -7.5t-19 -3.5l-4 -3v-20q0 -1 -1 -1.5t-2 -0.5v0v0q-4 0 -5.5 3t-1.5 7.5v8.5t-1 6q-2 4 -6.5 5t-9 3t-8 6.5t-3.5 14.5v72q0 1 1.5 2t1.5 2h1q2 0 5 -2.5t3 -4.5v-79l0.5 -0.5l1.5 -1.5q2 -2 4 -4.5t6 -2.5q3 0 5 3q0 6 0.5 10t0.5 8v8
v9q0 17 -1.5 35t-1.5 36v9zM84 158v8v9.5v8.5v4q0 1 0.5 4t1 6.5t0.5 6.5v3q1 10 0.5 19t1.5 18q0 2 2 2h3q2 0 3.5 -0.5t1.5 -3.5q0 -16 -2 -33t-2 -34q0 -36 3 -72t3 -72v-3v-4t-0.5 -4t-0.5 -3q-1 -4 -5 -7q-5 0 -9 -0.5t-8 -0.5h-7.5h-7.5h-4.5h-5.5t-2 2v3q0 4 2.5 4.5
t5.5 0t5 -0.5q3 0 3 3v7q0 20 -2.5 39.5t-4.5 38.5q0 5 0.5 7.5t-2.5 6.5v6.5v10.5t-0.5 13t-0.5 13v10.5v7.5v26v28q0 1 3 1t4.5 -2t2.5 -5q-1 -43 1.5 -85t6.5 -85q0 -1 0.5 -4.5t0.5 -9t0.5 -10.5t0.5 -8v-1.5v-2.5t0.5 -2.5t1.5 -1.5q2 -1 5.5 -1.5t4.5 -0.5l2 2v14
q0 12 -2 23.5t-2 22.5q0 1 0.5 2.5t0.5 3.5t0.5 4l0.5 2v1v1q0 1 -1 3l-1 2q-2 16 -2 29.5v29.5zM154 85q6 0 13 5.5t13.5 12t12.5 11.5t9 5q7 0 7 -7q0 -2 -3.5 -5t-9 -6.5t-11.5 -6.5t-11.5 -6t-8.5 -6t-3 -5t1.5 -4t4 -3.5t5 -2.5t4.5 -2q2 0 4.5 2t5.5 2q2 0 3.5 -1
t3.5 -3v0v-1v0v0q-1 -1 -3 -4l-2 -3q-2 -1 -5.5 -3.5l-7 -5l-7 -5t-4.5 -3.5l-1.5 -1.5l-1.5 -1.5v-0.5v-0.5q0 -4 4 -6.5t9 -4.5t9.5 -4t4.5 -5q0 -4 -2.5 -4.5t-4.5 -0.5q-5 0 -9 2t-7.5 5t-7.5 6t-8 4q-5 -3 -9 -6t-7.5 -5.5t-7.5 -4t-10 -1.5v1v1l4.5 4.5t5.5 4.5t6 3.5
t4 2.5q2 4 2 7q0 2 -4.5 5t-9.5 6.5t-9.5 6.5t-4.5 6v1q0 1 0.5 1.5l0.5 0.5h15q2 2 4.5 3.5t4.5 3t3.5 4t1.5 5.5t-2.5 6t-7 6t-9 5.5t-8.5 5t-7 5t-3 5.5q9 0 15 -4t11 -8.5t11 -9t14 -4.5zM132 58q-1 0 -1 -1v-1q0 -2 3 -4.5t6.5 -5t6.5 -4.5t5 -2q1 0 3.5 2l5 4t4.5 5
t2 4q0 3 -2 5.5t-4.5 4.5t-5.5 3.5t-5 1.5t-4.5 -1.5t-5.5 -3.5t-5 -4z" />
</svg>
