<?xml version="1.0" standalone="no"?>
<!DOCTYPE svg PUBLIC "-//W3C//DTD SVG 1.1//EN" "http://www.w3.org/Graphics/SVG/1.1/DTD/svg11.dtd" >
<svg xmlns="http://www.w3.org/2000/svg" xmlns:xlink="http://www.w3.org/1999/xlink" version="1.1" viewBox="-10 0 266 256">
   <path fill="currentColor"
d="M82 249q1 0 2 0.5t2 1.5v0q4 0 5 -3t1 -6q0 -23 -2.5 -46t-2.5 -46q0 -30 0.5 -60.5t4.5 -59.5v-4q0 -5 -4 -6.5t-9 -1.5t-10.5 0.5t-7.5 0.5h-3h-3h-3.5h-1.5l-3 3q1 2 3 2.5t4.5 0.5t4 0.5t2.5 2.5q-6 44 -8.5 87.5t-2.5 87.5v5v8v8v5q-1 3 0.5 3.5t3.5 0.5q1 0 3 -0.5
t2 -3.5v-44q3 -6 2.5 -12.5t-0.5 -13.5q0 -1 0.5 -7t0.5 -12.5t0.5 -12.5t0.5 -7v-3q2 -22 3 -43.5t3 -43.5q1 -4 3.5 -4.5t6.5 -0.5q3 0 4 1.5t1 6.5v0q0 2 -0.5 5.5t-0.5 7t-0.5 6t-0.5 3.5l-0.5 2l-0.5 2q-2 17 -3 33.5t-1 32.5q0 24 1.5 48.5t2.5 49.5v5t0.5 8t0.5 8v5z
M160 172v71q0 1 2 1.5l2 0.5q3 0 4 -3.5t1 -6.5t-0.5 -6t-0.5 -6v-10v-15v-14v-10q0 -1 -0.5 -6t-0.5 -10.5t-0.5 -10.5t-0.5 -6v-1v0q2 -2 5.5 -2h5.5h4.5t5.5 2q5 42 3 84q1 1 2 1.5t2 0.5q2 0 3.5 -1.5t2 -4t0.5 -5.5v-4v-3v-5t-0.5 -9.5t-1 -11.5t-1 -11.5t-0.5 -9.5v-5
v-6t-0.5 -8t-2 -7t-5.5 -4h-4t-6.5 0.5t-6.5 0.5h-4v-30l3 -2h26h3h4.5t4 -1t1.5 -4l-0.5 -1.5t-1.5 -1.5h-37l-0.5 -2.5t-1.5 -6t-1 -6v-3.5q0 -4 2.5 -5t6 -1t7.5 -0.5t8 -3t6 -8t2 -16.5v-2v-4v-3v-3q-1 -2 -2 -2.5t-2 -0.5h-3t-2 2v26q0 2 -2 3.5t-4.5 2l-5 1t-3.5 0.5
t-3 -0.5l-2 -0.5l-2 -1v-2v-3q0 -7 1 -13.5t1 -12.5v-4.5v-5.5t-1 -5t-3 -2h-1l-3 3l-2 2v64q-2 7 -2.5 17t-0.5 20v20v18v3v3v5.5t2 6.5zM128 136q2 0 4 0.5t2 3.5v101q0 1 1 1.5t2 0.5q2 0 3.5 -2t1.5 -3v-223l-1 -1.5t-2 -1.5l-1.5 0.5t-1.5 1.5q-1 0 -1.5 0.5l-0.5 0.5
v41q0 1 -1 3t-2 2h-3.5h-2.5q-5 0 -8 -2.5t-3.5 -6t-0.5 -7.5v-8t-0.5 -6.5t-3.5 -2.5t-4.5 1.5t-1.5 4.5v1l1 3t1 4v2t0.5 4t0.5 4v3q2 6 4.5 9.5t5.5 4.5t6 1h6h4.5t1.5 3v21l-3 1h-16.5t-16.5 2q-1 1 -1 1.5v1.5q0 4 3 4.5t5 0.5q6 0 12.5 -0.5t12.5 -0.5h2q3 4 3.5 7.5
t0.5 7.5q0 7 -3 9t-7.5 2.5t-9 1.5t-8.5 6q0 3 -1 10.5t-1.5 16.5t-1.5 16.5t-1 10.5v2v3.5v4.5v3v3v4v3v3q1 2 2 3.5t3 1.5h2t1 -2q1 -7 1.5 -13.5t0.5 -13.5v-14v-14q0 -4 0.5 -9.5t1.5 -10t4.5 -7.5t8.5 -3z" />
</svg>
