<?xml version="1.0" standalone="no"?>
<!DOCTYPE svg PUBLIC "-//W3C//DTD SVG 1.1//EN" "http://www.w3.org/Graphics/SVG/1.1/DTD/svg11.dtd" >
<svg xmlns="http://www.w3.org/2000/svg" xmlns:xlink="http://www.w3.org/1999/xlink" version="1.1" viewBox="-10 0 266 256">
   <path fill="currentColor"
d="M127 248q1 0 2.5 1.5t2.5 1.5q2 0 4.5 -1.5t2.5 -3.5v-50q1 -3 2.5 -8.5t3 -11.5t4 -10.5t6.5 -4.5h1l1 1l1 0.5t2.5 1.5t3 1.5l1.5 0.5q10 6 14.5 15t6 20t1 22t-0.5 21q1 3 2 4t4 1t4 -1t2 -4v-3v-5.5v-5.5v-3q0 -14 -1 -28.5t-8 -27.5q-1 -2 -4.5 -4t-7.5 -4.5
t-7.5 -4.5t-3.5 -4t3.5 -4t7.5 -5t7.5 -7t3.5 -10q0 -2 -0.5 -4.5t-1.5 -4.5t-2.5 -3t-4.5 -1h-1.5t-1.5 1v18q0 2 -2 4t-5.5 3l-7 2t-5.5 1q-3 0 -4.5 -3.5t-1.5 -6.5q0 -2 1 -3l2 -2t2.5 -1.5t2.5 -1.5q6 -4 9 -10.5t5.5 -13t4.5 -11.5t6 -4t7 5t4.5 10t2.5 12.5t2 12.5
t2 9.5t3 3.5t4.5 -2t2.5 -4l-0.5 -1.5t-0.5 -3t-0.5 -3l-0.5 -1.5q0 -3 -1.5 -7t-2.5 -9t-2.5 -9.5t-1.5 -5.5q-2 -7 -5.5 -12t-10.5 -5q-10 0 -14 3.5t-5.5 9t-3 12t-5.5 13.5q-2 2 -2 3t-3 1v-2.5v-2.5v-3.5v-2.5v-5t0.5 -8t0.5 -7.5t1 -5.5q0 -3 -2 -4.5t-5.5 -2.5t-7 -1
h-5.5q-6 0 -10.5 3t-7.5 8t-5 11.5t-3.5 13t-1.5 12.5v10v3v4v4v3t1 1h2h2t1 -1q2 -11 4.5 -22t4.5 -21q0 -3 1 -6t2.5 -6t4 -5t5.5 -2h2.5h3t3 1t1.5 2v34q-2 3 -2 5v5q0 6 2.5 10.5t2.5 9.5q0 3 -1.5 6t-4 6t-4.5 5.5t-3 5.5q-1 5 -2.5 10t-3 10.5t-2 10.5t-0.5 10v2v5.5
t0.5 9.5t0.5 9.5v6.5zM80 228l1 16q1 1 3 2.5t3 1.5v0q4 0 5 -4t1 -7q0 -20 -1.5 -40.5t-1.5 -41.5q0 -20 0.5 -40t0.5 -40v-42q-1 -2 -3 -3t-5 -1h-36q-1 0 -3 1t-2 3t2 3t4.5 1.5l5 1t3.5 3.5v9v8q0 2 -0.5 7t-1 11.5t-1.5 13.5t-2 13.5t-1.5 11.5t-0.5 6q-3 43 -3 87v17
t2 17q0 1 1.5 1h2.5h3.5t2.5 -3q-1 -32 0.5 -62.5t3.5 -62.5q0 -1 0.5 -4.5t0.5 -7.5t-0.5 -7.5t-0.5 -4.5l3 -5v-42q0 -6 3 -7t8 -1h1q1 0 2 1.5l1 1.5q0 1 0.5 3.5t0.5 5t0.5 4.5t0.5 3v2v1q0 1 -0.5 4.5t-0.5 8t-0.5 8t-0.5 4.5l0.5 1.5t0.5 2.5t0.5 2.5l0.5 1.5v0.5v0.5
q0 12 -0.5 24t-2.5 23v88zM152 11q-1 0 -2.5 1t-1.5 2v21l-3.5 2t-5.5 3q-3 1 -9.5 3t-13 4.5t-11.5 6t-5 7.5h11q5 -3 11 -5l12 -4t12 -4.5t11 -5.5q0 -1 0.5 -1.5l0.5 -0.5q1 0 3.5 0.5t5 1.5l5 2t3.5 1t3 1l5 2.5l5 2.5t3 2h2v1q0 1 1 2l2 2t2.5 2t2.5 1h1h2
q2 0 3.5 -0.5t1.5 -2.5q0 -5 -3.5 -8t-8 -5.5t-11 -4t-12 -3t-10 -3t-6.5 -4.5l0.5 -2.5t0.5 -4.5t-0.5 -4.5l-0.5 -2.5q0 -3 -2 -4.5t-4 -0.5z" />
</svg>
