<?xml version="1.0" standalone="no"?>
<!DOCTYPE svg PUBLIC "-//W3C//DTD SVG 1.1//EN" "http://www.w3.org/Graphics/SVG/1.1/DTD/svg11.dtd" >
<svg xmlns="http://www.w3.org/2000/svg" xmlns:xlink="http://www.w3.org/1999/xlink" version="1.1" viewBox="-10 0 266 256">
   <path fill="currentColor"
d="M87 212q0 3 0.5 9.5t1.5 13t3 11.5t5 5q2 0 3 -1.5t2 -3.5q-1 -1 -1.5 -3l-1 -4l-1 -4l-0.5 -2v-2v-3v-2v-2v-6t-0.5 -12t-1 -14.5t-1 -14t-0.5 -11.5v-7v-7t-2 -6q1 -15 0 -27t-1 -25q0 -17 2.5 -34.5t2.5 -34.5q0 -5 -2 -7t-5.5 -3t-7.5 -1h-8h-1l-2 0.5t-3 0.5h-3h-6
h-6h-4q-2 0 -4 1.5t-2 3.5v3t1 2h15v1.5t0.5 4t0.5 3.5l-1 2t-1 3t-1 4t-1 4q1 40 -1 80t-2 80v0q0 2 0.5 4.5t0.5 4.5t0.5 4l0.5 2q0 1 0.5 2.5t1 3.5t1.5 3.5t3 1.5q4 -2 4.5 -4t0.5 -5v-4.5t-1 -5.5v-11v-16v-16v-11q0 -29 0.5 -57.5t2.5 -57.5v-3v-5v-5v-3q2 -4 6 -4.5
t7 -0.5l1.5 -0.5t2.5 0t2 0.5t1 1v6q0 7 -2 13t-3 13v3.5t-0.5 8t-0.5 9v7.5v1q0 29 1 58.5t5 57.5v1v1l-0.5 3t-0.5 4v1zM112 229q1 1 2 1.5t3 0.5t3.5 -1t1.5 -3v-106q-2 -7 -2 -11.5v-11.5v-7t0.5 -6t0.5 -6.5t1 -7.5q5 -6 12.5 -8.5t16 -3.5t17.5 -1t16 -2.5t11 -7.5
t4 -15v-4v-5q-1 -3 -3.5 -4.5t-6 -2.5t-7 -0.5t-5.5 0.5h-4h-3.5h-3.5h-2q-2 0 -8 0.5t-13 1t-13 1t-8 0.5q-5 1 -6 3t-1 7q14 0 28.5 -2.5t29.5 -2.5h2h4h4h3q2 2 2.5 4.5t0.5 5.5q0 1 -0.5 3l-1 4t-2 3.5t-2.5 1.5l-53 5q-6 1 -9.5 4t-4.5 7.5t-2 9.5t-2 9v8.5v12.5v13v8
v11v13v12v5v5t0.5 8l1 8t0.5 5l-1 3l-1 3v2v5v5v4v3v5v5v3zM132 149q0 5 0.5 11.5t2.5 12.5t6 10t11 4h34l2 -0.5l4 -1t4 -1.5t3 -2q3 -1 4.5 -4.5t2 -8t0.5 -7.5v-7t0.5 -9t0 -12t-1.5 -11t-5 -5q-3 0 -3.5 1t-0.5 5v3v4.5t0.5 5t0.5 3.5q-3 0 -7.5 0.5t-8.5 0.5t-7 -2
t-3 -7v-1q0 -1 1 -3.5t1 -3.5t-0.5 -3.5l-1 -5t-0.5 -5v-3.5v-5v-5q3 -2 8 -2.5t11 -0.5h11h9q1 -1 1 -2v-2q0 -2 -1 -3t-3 -1.5t-3 -0.5h-4q-5 0 -9.5 1.5t-9.5 1.5q-1 0 -3 -0.5l-2 -0.5l-3 -3q-1 -1 -1 -3t-0.5 -4t-0.5 -3.5v-2.5q-1 -4 -1.5 -5t-2.5 -1q-3 0 -4.5 3.5
t-2.5 8t-1 8.5v5q-1 0 -4 0.5t-6.5 0.5t-7 0.5t-4.5 0.5h-2t-3.5 0.5t-3.5 1t-3 2.5v0v1q1 2 3.5 2.5t4.5 0.5q6 0 11 -1.5t11 -1.5h3.5t2.5 2v38q0 1 -1 2t-1 2q-1 0 -1.5 0.5l-0.5 0.5h-13q-1 0 -1.5 -1t-0.5 -2t-0.5 -3t-0.5 -4.5t-0.5 -4.5t-0.5 -3q0 -2 -1.5 -2h-2.5
h-1h-1q-2 8 -2 14v13zM139 156q0 -4 3 -4.5t7 -0.5q1 0 6 -0.5t11.5 -1t13.5 -1t11 -1.5h1h1q0 1 1.5 1.5l1.5 0.5v20q0 2 -1.5 3.5t-3.5 2.5t-4.5 1.5t-3.5 0.5h-17h-15q-6 -3 -9 -8.5t-3 -12.5z" />
</svg>
