<?xml version="1.0" standalone="no"?>
<!DOCTYPE svg PUBLIC "-//W3C//DTD SVG 1.1//EN" "http://www.w3.org/Graphics/SVG/1.1/DTD/svg11.dtd" >
<svg xmlns="http://www.w3.org/2000/svg" xmlns:xlink="http://www.w3.org/1999/xlink" version="1.1" viewBox="-10 0 266 256">
   <path fill="currentColor"
d="M170 218q0 5 2.5 10.5t6 10.5t8 8.5t9.5 3.5q3 0 4.5 -1.5t1.5 -4.5q0 -2 -3 -4.5t-7 -5.5t-7 -8t-3 -13q0 -3 1 -6.5t2.5 -6.5l3 -6t1.5 -6q0 -8 -3 -12t-7 -6.5t-7 -5t-3 -6.5t4 -5.5t8.5 -2.5t8.5 -3t5 -7v-10q0 -4 -0.5 -7.5t-0.5 -6.5v-1q0 -1 2 -2l4 -2t3.5 -2
t1.5 -2q0 -3 -1 -4t-4 -1q-8 0 -16 2.5t-17 2.5h-1q-2 -1 -2.5 -3t-0.5 -4q0 -5 1 -11.5t2 -12.5h2q3 0 7.5 2.5t8.5 5.5l8 6t6 5h1h1q2 0 3.5 -0.5t1.5 -1.5q0 -6 -6 -11t-13.5 -9t-13.5 -7t-6 -5t6 -5l13 -6.5t12.5 -8.5t5.5 -11q0 -1 -1.5 -2.5t-3.5 -1.5q-3 0 -6 4t-7 8
t-8.5 8t-10.5 4v-36q0 -3 -2.5 -4t-4.5 -1q-1 0 -4.5 0.5t-8 1.5t-7.5 3t-3 4v1l0.5 0.5l0.5 0.5h20v29q-7 0 -12.5 -2.5t-10 -6t-8.5 -6t-9 -2.5q0 7 6.5 11.5t14 8t13.5 6.5t6 7q0 1 -0.5 1.5t-1 0.5t-1.5 0.5t-2 0.5q-1 1 -4 2.5t-6.5 3t-6.5 2.5t-4 2q-2 1 -4.5 3
t-5.5 4t-5 4.5t-2 4.5q7 0 12 -2.5t9.5 -6t9 -6t10.5 -2.5v35q-4 2 -9.5 4t-10.5 5.5t-8.5 7.5t-3.5 10q0 8 2.5 16t2.5 15q0 4 -2.5 9l-4.5 9q-3 7 -4.5 16.5t-1.5 17.5v3v3.5t1 3t3 1.5q4 0 5.5 -4t1.5 -7q0 -2 1 -7t2 -10.5t1.5 -10t0.5 -6.5t1 -3t2 -1q2 0 3.5 2t3 3.5
t2.5 3t4 1.5h2h2t1.5 -1t-0.5 -2l-8 -16v-0.5v-0.5q0 -5 4 -8t9 -3h1h2q1 2 4.5 5.5l7 7l6.5 6.5t3 4q0 3 -2 6t-4 6.5t-4 8t-2 10.5zM92 199v9v12v10v5l2 13h0.5h0.5q5 0 5.5 -2.5t0.5 -7.5l-0.5 -2.5t-0.5 -3.5v-119q2 -18 4 -36.5t2 -36.5q0 -8 -5 -12t-12 -5.5t-15 -1.5
h-13h-3h-3q0 1 -0.5 2t-0.5 2v0q0 2 1.5 3t3.5 1.5t4.5 1t4.5 1.5v6q0 9 -2 17t-3 16q-3 32 -4 64t-1 65v4v7v7v5l1.5 1.5t2.5 1.5q2 0 3.5 -0.5t2 -2t1 -3.5t0.5 -3q1 -1 1 -6v-9t-0.5 -9.5t-0.5 -5.5q1 -2 1 -8t0.5 -12l1 -12t0.5 -8v-5q0 -26 0.5 -54t6.5 -54q1 -2 2 -2
h3q3 0 8 0.5t6 4.5q1 1 1 5v4q0 13 -2.5 25.5t-2.5 25.5q-1 26 -1.5 51t-0.5 51zM132 150v-2q0 -1 0.5 -4.5t0.5 -4.5q1 -1 2.5 -3t3.5 -3.5t3.5 -3.5t2.5 -2q1 -1 3.5 -3l2.5 -2l3 3l0.5 2t0.5 4.5t0.5 5t0.5 4.5v6q0 3 -1.5 5.5t-4 5t-5.5 4t-5 1.5q-3 0 -4.5 -1.5
t-2.5 -3t-1 -4v-4.5zM177 116q6 0 8.5 3.5t2.5 9.5q0 5 -1 7.5t-3 4t-5 2.5t-7 2l-1 0.5l-2 1l-2 1t-2 0.5q0 1 -1 1v0q0 -5 -0.5 -11t0 -11t3.5 -8t10 -3z" />
</svg>
