<?xml version="1.0" standalone="no"?>
<!DOCTYPE svg PUBLIC "-//W3C//DTD SVG 1.1//EN" "http://www.w3.org/Graphics/SVG/1.1/DTD/svg11.dtd" >
<svg xmlns="http://www.w3.org/2000/svg" xmlns:xlink="http://www.w3.org/1999/xlink" version="1.1" viewBox="-10 0 266 256">
   <path fill="currentColor"
d="M141 164q0 1 0.5 2.5t1.5 1.5h39q1 0 1.5 4t1.5 10.5t1.5 14.5t1.5 15t1.5 12.5t0.5 7.5q0 1 0.5 3.5t0.5 5.5t0.5 6t0.5 4h1h1q3 0 4.5 -2t2.5 -5v-5v-5q0 -8 -1.5 -16.5l-3 -17l-3 -17t-1.5 -17.5q0 -1 2.5 -2t5.5 -3.5t5.5 -7t2.5 -11.5q0 -8 -3 -13.5t-10 -8.5
q-6 -1 -11 -1t-9 -0.5t-8 -0.5h-9h-4.5h-4.5l-1.5 1.5t-0.5 2.5q0 1 0.5 1.5l1.5 1.5h14.5t16 1t13 4.5t5.5 12.5q0 2 -1 5t-4 3l-1 -0.5t-2 -0.5q-8 -7 -15 -9.5t-17 -2.5h-3q-1 0 -3 0.5t-4 0.5h-2q-3 2 -3 4q0 3 2.5 3.5t6.5 0.5h9t9 0.5t6.5 2t2.5 4.5t-1.5 4t-3.5 1.5
t-4.5 0t-4.5 -0.5q-1 0 -4.5 0.5t-7 0.5t-6.5 0.5t-4 0.5t-1.5 1t-0.5 2zM92 243q1 1 3 2t3 1q3 0 5 -3t3.5 -6.5t3 -7.5t3.5 -5q1 -6 3 -10.5t4 -8.5t4 -8.5t3 -10.5q2 -7 2.5 -13.5t2.5 -13.5v-37q0 -5 -2.5 -8.5t-5.5 -5.5t-7 -3t-8 -1q-3 0 -5 1.5t-4 4t-3 5t-2 5.5
q0 1 -0.5 5.5l-1 9t-1 8.5t-0.5 5v4v8.5v8.5v7v5v5.5v5.5v2l3 3l5 -5l3 -69l2 -6t5 -3q3 0 6 0.5t5 3.5q1 8 1 12.5v10.5q0 28 -8.5 53t-21.5 49zM74 80v156q0 2 1 2h2q2 0 4 -2t2 -4q0 -46 1.5 -90.5t1.5 -90.5v-8v-4.5t-0.5 -4.5t-0.5 -3.5v-1.5l-2 -2l-1.5 -0.5
t-3.5 -0.5t-4 -0.5t-3 -0.5h-2h-3h-4h-3h-5h-6q0 1 -0.5 2t-0.5 2t1 1.5t2.5 1t3.5 1.5t2 2v6q0 29 -1.5 59t-2.5 58v2q0 1 -0.5 2t-0.5 2t-1 3q0 3 -0.5 9.5t-1 14t-1 14.5t-0.5 9v5v3.5t3 1.5q1 0 2.5 -1.5t2.5 -3.5l2 -4t1 -4q1 -21 2 -41.5t1.5 -41.5t1.5 -42t3 -42
v-2.5t1 -3.5t2 -3.5t3 -1.5q1 0 2 0.5t1 1.5t0.5 4t0.5 6t0.5 6t0.5 4v1v1q0 2 -0.5 5t-0.5 6t-0.5 5t-0.5 3l-0.5 2zM137 196l1 1l2 2h15h14q1 0 2.5 -0.5t2.5 -1t2.5 -1t1.5 -1.5q0 -2 -2.5 -4t-4.5 -2h-25q-1 0 -2.5 0.5t-3 1.5l-3 2t-0.5 3zM132 99q11 2 23 2h22h27
q3 -1 4 -2t1 -4q0 -2 -1 -2.5t-5 -1.5h-5.5h-8.5h-8h-5q-2 -1 -2.5 -3t-0.5 -4q0 -5 2.5 -7t6 -3.5t7.5 -3t6 -4.5t3.5 -7t2 -8t0.5 -8.5v-7.5v-4v-4l-1.5 -1l-1.5 -1h-1q-4 0 -6 3.5t-3 7.5v19q-1 7 -8 7q-2 0 -3.5 -1t-2.5 -4q0 -1 0.5 -2t0.5 -2.5t0.5 -3t0.5 -2.5v-2v-4
v-5v-3v-3v-5v-5v-2q-1 -3 -2 -3.5t-4 -0.5q-2 0 -3.5 1.5t-1.5 3.5v41q0 3 -2 4t-5 1q-4 0 -6 -3t-2.5 -7t0 -9t0 -9.5t-1.5 -7t-5 -2.5q-1 0 -2 1t-1 2.5v3.5v3v4q0 3 0.5 7l1 8t1 7l0.5 3l6 7h16v1.5v1.5v2t-0.5 4t-0.5 4v2q-1 2 -3 3t-3.5 1.5t-3.5 0.5h-3h-3.5h-5.5h-5
h-4l-1 1.5t-1.5 2t0 1.5t1.5 1zM118 49q0 6 -4 9.5t-8.5 6.5t-8.5 6t-4 8q7 0 13 -2.5t10.5 -7.5t7.5 -11t3 -12q0 -5 -1.5 -9t-4 -7.5t-6 -5.5t-8.5 -2q0 4 2 7t3.5 6t3.5 6.5t2 7.5z" />
</svg>
