<?xml version="1.0" standalone="no"?>
<!DOCTYPE svg PUBLIC "-//W3C//DTD SVG 1.1//EN" "http://www.w3.org/Graphics/SVG/1.1/DTD/svg11.dtd" >
<svg xmlns="http://www.w3.org/2000/svg" xmlns:xlink="http://www.w3.org/1999/xlink" version="1.1" viewBox="-10 0 266 256">
   <path fill="currentColor"
d="M81 133v116q0 1 1.5 1.5t2.5 0.5q3 0 4.5 -3.5t2.5 -6.5q0 -4 -0.5 -13.5t-0.5 -21.5v-24v-25t0.5 -21.5t0.5 -13.5q0 -2 0.5 -9t1 -15t1 -15t0.5 -8v-26v-26q-2 -4 -5 -6t-7.5 -3t-8.5 -0.5t-8 0.5q-1 0 -5 -0.5t-8 0t-7 2t-3 5.5t2 4.5t4.5 0t5 0t2.5 4.5v1q-1 9 -2 17
l-2 16l-2 16t-1 17q-2 36 -3.5 72.5t-1.5 73.5q0 2 0.5 4t3.5 2q7 0 10 -8q2 -53 3.5 -106t6.5 -106q1 -2 4 -3t5 -1q1 0 2 0.5l3 1.5v44v43q0 1 -0.5 4t-0.5 6t-0.5 5.5t-0.5 3.5zM189 192q1 2 2 7.5t2.5 11.5t3.5 13t3.5 12.5t3.5 9t5 3.5q2 0 3.5 -0.5t2.5 -3.5v-7
q0 -4 -1.5 -8.5t-3.5 -9t-4 -8.5t-4 -9q-2 -9 -2.5 -18.5t-0.5 -18.5q0 -5 1 -10.5l2 -11l2 -11t1 -10.5q0 -2 -0.5 -4t-1.5 -4t-2.5 -3.5t-3.5 -1.5h-29l-1 -1t-1 -2t-0.5 -4.5t-0.5 -5.5q-1 0 -1 -1t1 -3t3 -3q10 -2 17.5 -5t11.5 -9t6 -14.5t2 -20.5q0 -10 -3.5 -18
t-12.5 -11h-17q-9 0 -18.5 1.5t-17 5.5t-12 12t-3.5 21q0 1 0.5 2.5t1 4t1.5 4.5l1 2q1 8 3 13t5 8t8 4t13 2q2 2 2 4v4q0 11 -6 15t-15 4q-2 0 -3.5 -0.5l-1.5 -0.5l-7 -19l-2 -1.5t-3 -2.5h-1q-5 0 -5 5q0 2 1 4l2 4t2 4.5t1 4.5q0 5 -3 6.5t-7 2.5t-7 2.5t-3 5.5
q0 2 0.5 3.5t2.5 1.5q4 0 7.5 -2t7.5 -2q2 0 2.5 1t1 3t0 3.5t-0.5 2.5v7q0 5 -0.5 12.5l-1 15t-1 14t-0.5 7.5q-1 4 -2 8.5t-2.5 9.5t-3 9.5t-1.5 8.5v6q1 1 2 1.5t2 0.5q3 -1 5.5 -3.5t4 -6.5t2.5 -8t2 -7q0 -2 0.5 -8.5t1.5 -14t2 -13.5t1 -9v-3v-3v-10.5t0.5 -12.5
t1 -10.5l0.5 -4.5l1 -2l2 -0.5t5 -1.5l6 -2t5 -1h1q2 0 2 1.5v2.5q0 7 -2.5 13.5t-5.5 13t-5.5 13t-2.5 13.5q0 4 0.5 7t1.5 5.5t3 5t6 4.5q2 0 5.5 1t6.5 1q4 0 8 -1t7 -3t5.5 -5.5t2.5 -7.5t-1.5 -9.5t-4 -10.5t-6 -8.5t-7.5 -3.5q-2 0 -2 1.5v3.5q0 3 1.5 5.5t3.5 5
t3.5 5.5t1.5 7q0 2 -1 4t-3 4t-4 3t-4 1q-7 0 -10.5 -3t-3.5 -11q0 -7 2.5 -14t5.5 -13.5t6.5 -13t4.5 -13.5q0 -1 1 -3.5l1 -2.5q1 0 3.5 -0.5t5.5 -0.5t6 -0.5t4 -0.5h2q4 0 4.5 2.5t0.5 5.5q0 2 -0.5 7t-1.5 11t-2 11t-1 6v29zM133 67q0 -3 1.5 -5t3.5 -3q2 0 4.5 -0.5
t4.5 -0.5t3.5 -0.5l1.5 -0.5l4 4v3v3v5t-0.5 5t-2 3.5t-4.5 1.5q-6 0 -10.5 -4.5t-5.5 -10.5zM168 76v-3v-4q0 -6 2 -9.5t5 -5t7.5 -1.5h10.5q0 4 -1.5 8.5t-4.5 8.5t-6.5 6.5t-7.5 2.5q-1 0 -3 -0.5t-2 -2.5zM133 43q0 -3 1.5 -6.5t4 -6t5.5 -4t6 -1.5q2 0 3.5 1.5t2 3.5
t0.5 4.5v4.5q0 3 -1.5 5t-4.5 3t-5.5 1h-5.5t-4.5 -0.5t-1.5 -4.5zM166 38q0 -6 3 -11.5t9 -5.5q2 0 4.5 1t4.5 2.5t3.5 3.5t1.5 5t-2 5t-4.5 3t-5.5 1.5t-5 0.5h-4q-2 0 -3 -1q-2 0 -2 -1v-3z" />
</svg>
