<?xml version="1.0" standalone="no"?>
<!DOCTYPE svg PUBLIC "-//W3C//DTD SVG 1.1//EN" "http://www.w3.org/Graphics/SVG/1.1/DTD/svg11.dtd" >
<svg xmlns="http://www.w3.org/2000/svg" xmlns:xlink="http://www.w3.org/1999/xlink" version="1.1" viewBox="-10 0 266 256">
   <path fill="currentColor"
d="M162 247q0 2 0.5 3t3.5 1q1 0 2 -0.5t2.5 -1.5t2 -1.5t0.5 -1.5v-155l4 -4h17l2 -3q-2 -2 -4.5 -2.5t-3.5 -1.5h-3h-4.5h-4.5h-3q-2 0 -6.5 -0.5t-9.5 0t-9 2t-4 5.5h9t9 2q1 0 1.5 1l0.5 1v144q-1 4 -1.5 6.5t-0.5 5.5zM100 243q0 1 2 1h3q4 0 5 -2.5t2 -6.5
q-1 -37 -1 -73t2 -73q0 -5 1 -14t3 -18.5t5.5 -17t9.5 -8.5q7 -2 13 -4t12 -2t6.5 4t0.5 8q0 6 -3 9.5t-7.5 6.5t-9.5 5.5t-9.5 6t-7.5 9t-3 13.5q0 6 1.5 10t4 6.5t5.5 5t5.5 5.5t4 8t1.5 12q0 10 -1.5 23t-3.5 23q-2 7 -5 14t-6.5 13.5t-5.5 13.5t-2 14q5 0 7.5 -1.5
t4 -3.5t2 -5.5t1.5 -6.5q3 -11 6 -21.5t5.5 -20.5t4 -20.5t1.5 -22.5q0 -9 -3.5 -16t-7 -12t-7 -9.5t-3.5 -9.5t3 -11t7.5 -10t10 -7t11.5 -3q7 0 13.5 1t12 4t9 8t3.5 13t-3.5 14.5l-7 13t-6.5 13t-3 14.5v9.5t1 18t2.5 22t3.5 21.5t4.5 16.5t5.5 6.5q2 0 3.5 -2t2 -5l1 -6
t-0.5 -5l-0.5 -1.5l-1 -3t-1 -2.5t-0.5 -2q-1 -1 -1.5 -3l-0.5 -2q-3 -14 -5 -28t-2 -28q0 -9 1 -14t3 -8.5t4.5 -6t4.5 -5t4 -5.5t3 -8q0 -2 0.5 -4.5t0.5 -5.5t0.5 -5.5l0.5 -2.5q-1 -7 -4 -11t-7.5 -7t-10 -5t-9.5 -3.5t-7 -3t-3 -2.5v-16l6 -6h24q4 0 6.5 -3t2.5 -6h-9
h-13h-13.5h-8.5q-4 1 -12.5 2t-17.5 3.5t-16.5 5.5t-10.5 7q0 1 -1 4.5l-2 7t-1.5 7t-0.5 4.5t-0.5 5l-1 8t-0.5 7.5v4.5v7t-0.5 7.5l-1 7t-2.5 5.5v89l-1 6zM44 205q0 8 1 15t1 17q10 0 12 -9v-53q0 -2 0.5 -5.5l1 -7l1 -7t1.5 -5.5q0 -30 2.5 -60.5t4.5 -60.5q1 -3 3 -4.5
t4 -1.5h0.5h0.5q0 1 1 1.5t2 1.5t2 1.5t2 1.5v1v1q0 1 -0.5 6.5t-1 12.5t-1.5 12.5t-1 7.5q-2 31 -4 61.5t-2 62.5v5t0.5 8.5t0.5 8.5v5q1 4 2 5.5t4 1.5t4 -1t1 -4q0 -8 -1 -16.5t-1 -16.5q0 -40 2.5 -77.5t6.5 -76.5v-6v-7q-3 -3 -6.5 -5t-7 -3t-8.5 -1h-8h-14
q-2 1 -2.5 2.5t-0.5 3.5v1q2 0 5 0.5t5.5 1t4 2.5t1.5 6t-1 8.5l-2 9l-2 9t0 8.5l-9 107v23q0 3 -2 4.5t-2 4.5z" />
</svg>
