<?xml version="1.0" standalone="no"?>
<!DOCTYPE svg PUBLIC "-//W3C//DTD SVG 1.1//EN" "http://www.w3.org/Graphics/SVG/1.1/DTD/svg11.dtd" >
<svg xmlns="http://www.w3.org/2000/svg" xmlns:xlink="http://www.w3.org/1999/xlink" version="1.1" viewBox="-10 0 266 256">
   <path fill="currentColor"
d="M173 200q6 5 8.5 13.5t4 16.5t3 14.5t5.5 6.5q1 0 2 -1.5t1.5 -3.5t0.5 -4v-3q0 -5 -2 -10.5l-4 -11t-4 -10.5t-2 -11q0 -4 1.5 -8.5t1.5 -8.5q0 -6 -2.5 -8t-6 -3t-6 -1.5t-3.5 -2.5q2 -4 4.5 -4.5t4 -1t2.5 -2.5t1 -10v-5t-2 -6q-2 0 -5 -0.5t-6.5 -1.5t-6 -2.5
t-2.5 -3.5q0 -4 4 -4.5t9.5 -1t11 -2t8.5 -5.5q4 -6 4.5 -11.5t0.5 -12.5q0 -1 -0.5 -4t-1.5 -6.5t-2.5 -6.5t-3.5 -3h-22q-2 0 -3.5 -3t-1.5 -5q0 -5 5 -7t11.5 -2t12 -0.5t6.5 -4.5q1 -2 1.5 -6t1 -7.5t0 -6.5t-0.5 -6q-5 0 -7.5 2t-3 4.5t-0.5 5.5t-1 5.5t-4 4t-9 1.5h-3
h-2l-3 -3v-28q0 -1 -1.5 -1.5t-2.5 -0.5t-1.5 0.5l-1.5 1.5q-1 3 -1.5 6t-0.5 7v6v5t-2 4.5t-3 2.5h-1q-2 0 -6 -1t-6.5 -1.5l-2.5 -0.5l-3 -2v-14q0 -1 -1 -1.5l-1 -0.5q-1 -1 -2.5 -1.5l-1.5 -0.5q-2 1 -2.5 2t-0.5 3q0 15 6 21t22 5l2 2v2v3v5t-2 5q-5 0 -9 0.5t-7 2
t-5.5 4t-4.5 7.5q0 2 -0.5 5.5t-0.5 4.5q0 5 0.5 9t1.5 9q2 4 6 5.5t8 2.5t7.5 2.5t3.5 5.5t-3 5.5l-6 3t-6 3.5t-3 7t2 7.5t5.5 4t7.5 2t8 0.5l2 2t1 2v2.5t1 1.5q1 2 3.5 3t6 1.5t6 2.5t2.5 5q0 5 -4 5q-10 0 -20.5 -2.5t-21.5 -2.5h-12q-1 0 -1.5 0.5l-0.5 0.5v0.5v0.5
q0 1 2 2.5t3 1.5l37 3q3 1 4 1t1 2t-1.5 3.5t-3.5 1.5l-40 4q-1 0 -1.5 1t-0.5 2l0.5 0.5l1.5 1.5q4 2 7 1.5t8 -0.5q10 0 18 -1.5t17 -6.5zM91 238q0 3 1.5 5t3.5 3l3 -3l3 -15q0 -19 0.5 -38l1 -38l1 -38t-0.5 -38q1 -2 1.5 -5t0.5 -6v-5.5v-4.5v-3v-4.5v-4.5v-3
q-3 -4 -9 -6.5t-12.5 -4t-13 -2t-11.5 -0.5q-2 0 -4 1.5t-2 3.5q0 3 2.5 4t5.5 1t6 1t4 6q0 1 0.5 5.5t0.5 9.5v10v6q0 18 -1 37.5t-2.5 39.5t-4 39.5t-6.5 36.5q-2 2 -2.5 3t-0.5 3t2 3.5t4 1.5v0q1 0 3 -2l2.5 -2.5t1 -2.5t1.5 -3.5t1.5 -3t0.5 -2.5q1 -7 1.5 -15l1 -16
t1.5 -16t3 -15q0 -3 0.5 -10t1 -15.5t0.5 -18.5t0.5 -18.5t1 -15.5t0.5 -10v-31q0 -1 2 -2.5t3 -1.5q3 0 5.5 1.5t2.5 4.5v6v8.5v9.5v6v8v9v9v4q0 2 -0.5 9.5t-0.5 16t-0.5 16t-0.5 8.5v21.5v20.5q0 11 -0.5 21.5t-2.5 20.5v0zM124 225q0 3 2 3h5q9 0 18.5 -1t18.5 -2
l0.5 -1l0.5 -1v0v-1v0v0q0 -1 -0.5 -2l-0.5 -1h-40q-3 0 -3.5 2t-0.5 4zM144 146q0 -2 2.5 -4t4.5 -2h20l1.5 1t1.5 2q1 1 1.5 5t0.5 5h-27l-0.5 -0.5l-1.5 -1.5q0 -1 -1 -2.5t-2 -2.5v0v0zM134 104q0 -2 1.5 -3t3.5 -1.5t4 -0.5h3h3h2l2 2v13q-3 0 -6 -0.5t-6 -1.5t-5 -3
t-2 -5zM161 109v-2.5t0.5 -3.5t1 -3t1.5 -1h24q0 8 -5 11.5t-12 3.5h-3.5t-3 -1t-2.5 -1.5t-1 -2.5zM136 87q0 -2 1.5 -4t3.5 -3t4.5 -1.5t4.5 -0.5h3q1 0 1 1v12q0 2 -2 2h-3t-3.5 -0.5t-4.5 -1t-3.5 -1.5t-1.5 -3zM163 84q0 -3 2.5 -5.5t6.5 -2.5q9 0 12.5 3t3.5 12h-22
q-2 0 -2.5 -2.5t-0.5 -4.5z" />
</svg>
