<?xml version="1.0" standalone="no"?>
<!DOCTYPE svg PUBLIC "-//W3C//DTD SVG 1.1//EN" "http://www.w3.org/Graphics/SVG/1.1/DTD/svg11.dtd" >
<svg xmlns="http://www.w3.org/2000/svg" xmlns:xlink="http://www.w3.org/1999/xlink" version="1.1" viewBox="-10 0 266 256">
   <path fill="currentColor"
d="M85 189q1 2 1.5 7t0.5 12t0.5 14.5t1.5 14t3 10.5t6 4q3 0 3.5 -2.5t0.5 -4.5q0 -1 -0.5 -6t-1.5 -10.5t-1.5 -10t-1.5 -5.5q0 -2 -1 -8.5t-1.5 -13t-1 -12.5t-0.5 -9v-4v-5q0 -18 0.5 -36t1.5 -35q0 -11 1.5 -21.5t1.5 -20.5q0 -12 -6.5 -17t-18.5 -5h-0.5h-0.5l-3 0.5
t-3 1.5h-3.5t-5 0.5t-5 0.5h-3.5v1.5v1.5q0 2 1.5 3.5t3.5 2t4 0.5t4 1v5v6q0 14 -1 27.5t-1 28.5q0 1 -0.5 3l-0.5 2v2q0 3 1 5.5t1 5.5q0 7 -1 11.5t-2 11.5v5q1 10 2 21t1 21q0 4 -1 6.5t-1 5.5q0 4 1.5 7t1.5 6q0 4 -1 8t-1 8t2 7.5t6 3.5q3 0 4.5 -2t1.5 -5
q0 -9 -1 -19t-3 -19v-160q0 -2 1 -2.5t2.5 -0.5t3 -0.5t2.5 -0.5q2 0 4 0.5t5 1.5q1 1 1 2.5t0.5 4t0.5 4.5v2v2q0 3 -0.5 11t-1 16.5t-1.5 16t-2 10.5v82zM113 223q0 3 2.5 3.5t5.5 0.5h5q2 0 7.5 -0.5t13.5 -0.5h16.5t16 -0.5t13 -0.5h7.5t5 -0.5t3 -4.5v-3t-2 -2h-44
q-1 0 -1 -1.5v-2.5v-6t1 -6q3 -2 8 -2.5t10.5 -0.5t9.5 -0.5t4 -2.5q0 -3 -3 -4.5t-6 -1.5q-4 0 -8.5 1t-8.5 1h-1q-1 0 -3.5 -1l-2.5 -1v-19q0 -1 -1 -1.5l-1 -0.5h-1q-1 0 -2.5 2t-1.5 3v3v5v5v3q-3 2 -7.5 2t-9 0.5t-8.5 1.5t-6 4l2 3h27q1 0 1.5 2.5t0.5 4.5v2
q0 7 -4.5 9t-11.5 2.5t-13.5 0.5t-11.5 1v1.5v1.5zM154 138q0 5 -4 9.5t-9.5 8.5t-12 8t-12.5 8t-10 7.5t-4 7.5q5 0 9 -2t7.5 -4.5t7 -5.5t7.5 -6l2 -1.5t4.5 -2.5t4 -2.5t2.5 -1.5l2.5 -2.5l3 -3t3 -2t3.5 -0.5q6 0 13 4t13.5 8.5t12 8.5t9.5 4q3 0 3.5 -1.5t0.5 -3.5
q0 -4 -6.5 -8.5t-14.5 -8.5t-15.5 -6.5t-9.5 -3.5q-1 0 -2 -0.5l-1 -0.5v-12l3 -3q8 -1 13.5 -2t8.5 -3t4.5 -6t1.5 -12q0 -1 -0.5 -4t-0.5 -4q-2 -4 -6 -6t-8.5 -2.5l-9 -1t-6.5 -0.5v-5q0 -5 2 -7t5.5 -4t6.5 -4.5t4 -7.5v-3.5t0.5 -5.5t0.5 -6v-4h28l0.5 -1.5t1.5 -2.5
v-2l-0.5 -1.5t-1.5 -1.5h-24l-5 -3v-15q0 -1 -1.5 -1.5t-2.5 -0.5q-3 0 -4.5 2.5t-1.5 4.5q0 3 1.5 6.5t1.5 5.5l-1.5 1.5l-1.5 1.5h-23l-4 -2q1 -1 1 -3.5v-5.5t-1.5 -5t-4.5 -2q-2 0 -3 1.5t-1 3.5t1 4.5t1 5.5q0 1 -0.5 2.5t-1.5 1.5q-6 1 -14 1.5t-14 2.5v1v0
q0 1 0.5 1.5l0.5 0.5q6 2 13.5 2t13.5 -1v4t0.5 5.5t0.5 5.5v4q1 0 1.5 2l0.5 2q2 4 5 5t6 2.5t5 3.5t2 6q0 5 -2 7t-5.5 2.5t-8 0.5t-8 1.5t-5.5 5.5t-2 13q0 5 3 8.5t7 5t9 2t9 0.5q2 1 2.5 3.5t0.5 4.5zM137 136q-2 0 -6.5 2t-8.5 5.5t-7 6.5t-3 6q3 0 6 -1t5 -2
q1 -1 4 -3t5 -4l3.5 -3.5l1.5 -1.5v-5zM181 138q0 2 3 4.5t6.5 4.5t7.5 3t6 1q1 0 1.5 -1t0.5 -2q0 -3 -3 -5t-7.5 -3t-8.5 -1.5t-6 -0.5zM131 110q0 -6 4.5 -8.5t10.5 -2.5t7 3t1 8v5q0 3 -0.5 4.5t-2.5 2.5t-5 1q-7 0 -11 -2.5t-4 -10.5zM161 99h19q1 0 2 1.5t2 3.5
q0 1 0.5 4.5t0.5 5.5t-2.5 4t-5.5 2.5l-6 1t-4 0.5t-3.5 -1l-2.5 -1v-21zM144 61v-18h26q1 0 1.5 2.5t0.5 4.5q0 10 -3.5 13t-12.5 3h-4.5h-2.5z" />
</svg>
