<?xml version="1.0" standalone="no"?>
<!DOCTYPE svg PUBLIC "-//W3C//DTD SVG 1.1//EN" "http://www.w3.org/Graphics/SVG/1.1/DTD/svg11.dtd" >
<svg xmlns="http://www.w3.org/2000/svg" xmlns:xlink="http://www.w3.org/1999/xlink" version="1.1" viewBox="-10 0 266 256">
   <path fill="currentColor"
d="M195 249q1 2 2 2h2q5 0 6.5 -2.5t1.5 -6.5v-4q0 -1 -0.5 -3.5t-1 -5.5t-0.5 -5.5v-2.5v-1v-1v-8t0.5 -13.5t1 -13.5t0.5 -8v-106q0 -1 0.5 -3.5t0.5 -3.5v-3.5t-0.5 -5t-0.5 -5v-3.5q-3 -4 -7.5 -5.5t-9.5 -1.5q-1 0 -1.5 0.5t-1.5 0.5h-2t-4.5 0.5t-4.5 0.5h-3h-1v0
q-1 0 -1.5 -0.5l-0.5 -0.5v-4.5v-3.5v-4v-3v-1t0.5 -2l1 -2l0.5 -1q0 -7 -6 -7q-1 0 -2.5 0.5t-1.5 3.5v6v8.5v9.5v6v8v9.5v8.5v4v2.5t0.5 3.5t0.5 4t1 3q1 2 5 4t8.5 2.5t9 0.5t7.5 1q2 1 2.5 5.5t0.5 9.5v10v8q0 21 -1.5 42.5t-1.5 43.5v6.5t0.5 10t0.5 10v6.5zM81 241
q0 2 1.5 3.5t3.5 1.5q5 -1 5.5 -5t0.5 -8q0 -20 -2.5 -41t-2.5 -41q0 -24 2.5 -47.5t2.5 -47.5v-12q0 -1 -1.5 -2.5t-3.5 -1.5h-38l-0.5 1t-0.5 2v0q0 2 1.5 3t3.5 1.5l4 1t2 2.5v54q-1 0 -1.5 0.5l-0.5 0.5q0 1 1 2.5t1 2.5v0.5v0.5v1.5v0.5q0 1 -0.5 2.5t-0.5 3.5t-0.5 4
t-0.5 3v79v3t-0.5 4.5t-0.5 4.5v3v2v3t0.5 4t1.5 3.5t2 1.5q2 0 3.5 -2t1.5 -3v-89q0 -1 0.5 -6.5t0.5 -12t0.5 -12t0.5 -7.5v-14.5v-12.5v-12t1 -13l2 -2t1 -2h0.5h0.5h1q1 0 4.5 1t5.5 1q1 2 1 3v3q0 10 -1 19.5t-2 19.5q-1 16 -1.5 32.5t-0.5 33.5q0 21 1 41t1 40z
M152 221v6t0.5 8.5t2 7.5t5.5 3q2 0 3 -0.5t1 -3.5q0 -7 -1 -13t-1 -14v-3v-4v-3.5v-1.5l19 -29q2 -6 4 -12.5t2 -13.5q0 -5 -1 -11.5t-3.5 -12.5t-7 -10.5t-11.5 -4.5q-9 0 -15.5 4t-11 10.5t-7.5 15t-4.5 17.5t-1.5 17.5v15.5q0 2 -0.5 3.5t0 3.5t1.5 3t3 1t3.5 -4
t1.5 -10t0.5 -12t1.5 -9h1h1q4 0 6.5 2t5 4.5l5 5t6.5 2.5q0 -6 -3.5 -10t-8 -7t-8.5 -5.5t-4 -5.5q0 -2 0.5 -5t1.5 -6t2.5 -5t4.5 -2t6.5 3.5t6 8.5t5 8.5t4.5 3.5t3 -1.5t2 -3.5l-10 -14t-11 -13l-0.5 -1l-0.5 -1q0 -2 1.5 -3t3.5 -1.5t4.5 0t3.5 0.5h2.5h2.5q4 2 6 6.5
t3.5 10t2 10.5t0.5 9q0 9 -4.5 16t-9.5 14t-9.5 15.5t-4.5 20.5zM105 240q0 1 1 1h2h2t1 -1v-4v-4.5v-5.5v-3q0 -20 -0.5 -40.5t-0.5 -40.5v-36q0 -1 0.5 -3t2.5 -3l2.5 -0.5t4.5 -0.5t4 -0.5t3 -0.5q2 0 4.5 -1t5 -2.5t4.5 -3.5t2 -4v-68q0 -7 -6 -7q-1 0 -1.5 0.5l-1 1
t-1 2l-0.5 1.5v19q0 2 -2 2t-5 0.5t-7 1.5t-7.5 3.5t-6 7t-2.5 12.5q-1 16 -1 31v30v11v11t0.5 19.5t0.5 19.5v12v12v10t0.5 10t1.5 11zM109 82l0.5 -2.5t0.5 -3.5q0 -2 2 -3t5 -1.5t5 -0.5h4h3h3q2 2 2 4v5l-0.5 2.5t-0.5 3.5t-3 2l-6 2t-6 1.5t-5 0.5q-3 0 -3.5 -3.5
t-0.5 -6.5zM171 79v-2q0 -1 0.5 -2.5l1 -3t2.5 -1.5h16l0.5 -1l0.5 -1v-1q0 -3 -3.5 -3.5t-7.5 0t-7.5 -0.5t-3.5 -6q0 -3 0.5 -4.5t4.5 -3.5h3.5h3.5q5 0 8 1t4.5 3t2 5.5t0.5 8.5v4v3q0 2 -0.5 4.5t-0.5 4.5t-0.5 4l-0.5 2h-17q-4 0 -5.5 -3.5t-1.5 -6.5zM111 59
q0 -6 4.5 -9t11.5 -3h1h1q1 1 2.5 1.5l1.5 0.5v14q-1 0 -3.5 0.5t-5.5 0.5t-6 0.5t-4 0.5h-1q-2 0 -2 -2v-4z" />
</svg>
