<?xml version="1.0" standalone="no"?>
<!DOCTYPE svg PUBLIC "-//W3C//DTD SVG 1.1//EN" "http://www.w3.org/Graphics/SVG/1.1/DTD/svg11.dtd" >
<svg xmlns="http://www.w3.org/2000/svg" xmlns:xlink="http://www.w3.org/1999/xlink" version="1.1" viewBox="-10 0 266 256">
   <path fill="currentColor"
d="M86 226q1 2 1.5 6l1 8t2 7t6.5 3h1l3 -2v-5q0 -7 -1 -13.5l-2 -13t-2.5 -13t-1.5 -12.5l-2 -32t-1 -32q0 -22 2.5 -44.5t2.5 -45.5v-12q-3 -2 -6.5 -4.5t-7.5 -4t-8.5 -2.5t-8.5 -1v0h-3.5t-5 0.5t-4.5 2t-2 3.5q0 1 2 1.5t5 1t5.5 2t2.5 5.5t-1 8.5t-2.5 9.5t-2.5 9.5
t-1 9.5q-1 19 -1.5 38t-0.5 38q0 26 1.5 52t0.5 53q0 1 1 1h2q3 0 4.5 -1t2.5 -2.5t1 -4v-4.5q0 -23 -1.5 -45t-1.5 -45q0 -30 2 -59.5t5 -59.5l1.5 -1.5l1.5 -1.5h1q6 0 8.5 4t2.5 9q0 11 -1 22t-2.5 22t-2.5 22t-1 22q0 25 1 50.5t4 50.5zM165 238q0 2 1.5 3t3.5 1
q4 0 6 -2.5t2 -5.5v-5q0 -2 -0.5 -7.5t-1 -12t-1 -13.5t-1 -13.5t-1 -11.5t-0.5 -8q-3 -4 -8 -6t-9 -2q-7 0 -11 3t-6.5 7t-3 9.5t-0.5 11.5v11.5v9.5v2.5t-0.5 5t-0.5 5v3.5v8v8q0 1 2 1h3h3t2 -3v-6t0.5 -8.5t0.5 -8.5v-6v-1v0v-4.5t-0.5 -7t-0.5 -7v-4.5v-1v-6t1 -8
t3.5 -6.5t7.5 -2.5q3 0 5.5 3.5t3.5 8t1 8.5v6l0.5 2t0.5 5v6v4q0 9 -1 17.5t-1 17.5zM193 197q0 1 1.5 2l1.5 1l0.5 0.5l0.5 0.5q3 0 4 -3t1.5 -6.5t0.5 -7v-4.5v-7q-1 -2 -1.5 -6t-1 -9t-1.5 -9.5t-1 -5.5l-2 -2q-1 0 -3.5 -2t-3.5 -3h-4t-6.5 -0.5t-6.5 -0.5t-4 -1
q-1 0 -3 -0.5l-2 -0.5v-13q3 -1 5 -3q10 1 17.5 1t12 -2t6.5 -7t2 -15v-9v-10.5t-0.5 -9.5t-1.5 -8q-1 -7 -5 -10.5t-9.5 -5t-12 -2t-12.5 -1.5q-3 -1 -3 -4.5v-5.5q0 -4 2 -6t5.5 -2.5t7.5 -0.5h7.5t6 -1t2.5 -4q0 -2 -2.5 -2.5t-4.5 -0.5q-4 0 -6.5 0.5t-6.5 1.5h-43h-2.5
t-3 1l-3 2t-1.5 3h0.5h0.5q0 1 0.5 1.5l0.5 0.5h7h6l2 -0.5t4 -0.5t3.5 -0.5t2.5 -0.5t3.5 2t2.5 3v14l-3 1t-5 1q-14 2 -22 4.5t-11.5 7.5t-4.5 14t0 24q-3 5 -3 10v1l2 2l3 3q5 -4 6 -9.5t0.5 -12t-0.5 -13.5t2 -12.5t8.5 -9t19.5 -3.5h4h3l1 4v48q1 0 1.5 3l0.5 3v1v1
l-0.5 2.5t-1.5 3.5q-20 -1 -41 2q-5 1 -5 6h41q1 0 1.5 1t0.5 2v2v2q0 6 -4.5 8.5t-10 3.5t-11.5 2.5t-8 5.5q-3 5 -4 13.5t-1 13.5v10.5t1 10.5q0 1 0.5 1.5t1.5 0.5h1h1l1 -1.5t2 -1.5v-6.5t0.5 -9.5t0.5 -9.5t1 -6.5q0 -3 1 -8t5 -7q1 0 4 -0.5l6 -1t5.5 -1l2.5 -0.5
q9 -1 17 -2t17 -1h4.5h4.5q3 5 4.5 12.5t1.5 15t-0.5 15t-0.5 13.5zM162 109v-21v-20t1 -20q1 -2 2.5 -2.5t3.5 -0.5h5t8 0.5t7.5 2t5.5 3.5q0 2 0.5 5t1.5 6.5t1.5 6.5t0.5 5v1v8t-0.5 10t-1.5 9t-2 5q-8 2 -15 3t-14 1h-2q-2 0 -2 -2zM141 86q-3 0 -6 -0.5t-6 0t-4.5 2
t-1.5 5.5h15q1 0 1.5 -0.5t0.5 -1.5l0.5 -2.5zM168 89q0 2 2 2h3h4.5t2.5 -3t-4 -3q-2 0 -4 1l-4 2v1zM123 65l0.5 0.5l0.5 0.5l0.5 1.5l0.5 1.5h12q2 0 3 -3t1 -4h-3h-5.5t-5 0.5t-3.5 1.5zM170 65v0v1q1 1 2.5 1.5t3.5 0.5h4h2q0 -6 -6 -6q-1 0 -3.5 0.5t-2.5 2.5z" />
</svg>
