<?xml version="1.0" standalone="no"?>
<!DOCTYPE svg PUBLIC "-//W3C//DTD SVG 1.1//EN" "http://www.w3.org/Graphics/SVG/1.1/DTD/svg11.dtd" >
<svg xmlns="http://www.w3.org/2000/svg" xmlns:xlink="http://www.w3.org/1999/xlink" version="1.1" viewBox="-10 0 266 256">
   <path fill="currentColor"
d="M186 248q1 1 2.5 1.5t2.5 0.5q2 0 3.5 -1.5t1.5 -3.5q-2 -4 -7 -9t-10.5 -10t-9 -10t-3.5 -10q0 -3 3 -4.5t6.5 -2.5t6.5 -2.5t3 -5.5v-18q-1 -1 -1.5 -4l-1 -6t-2 -5t-3.5 -2q-3 0 -3.5 2t0 4.5t0.5 5.5t-2 4q-4 1 -7 1h-8q-2 0 -3.5 -2t-2.5 -4t-2.5 -4t-4.5 -2v0
q-1 0 -1.5 0.5l-0.5 0.5v13l-0.5 0.5t-1.5 0.5q-1 2 -6 2.5t-10 2t-9.5 3t-4.5 3.5t2.5 3t3.5 1q8 0 14.5 -2.5t13.5 -2.5q1 0 2.5 1.5t2.5 3.5l2 4t1 3q0 2 -3.5 3t-8 1.5t-10 1t-10 1t-7.5 2t-3 4.5q0 2 2 3t4 1q4 0 8.5 -1l9 -2t9.5 -2.5t10 -1.5q3 0 5.5 3.5t4.5 7.5
l4 8t4 5q1 1 3 3.5t4.5 5l5 5zM98 239l0.5 0.5l0.5 0.5h1h1l1.5 -1t1.5 -2v-7q0 -11 -1.5 -21.5t-3.5 -20.5q-3 -18 -4 -38.5t-1 -39.5q0 -10 1 -21t2.5 -21.5t2.5 -21t1 -21.5l-0.5 -1t-1.5 -2q-2 -3 -7.5 -4.5t-12 -2t-12.5 0t-8 0.5t-4 1t-2 3q0 4 2 4.5t5 0.5t5 1.5
t2 7.5q0 13 -1 26.5l-2 27l-2 27t-1 26.5q0 11 1 23l2 24q0 2 0.5 8t1 12.5t1 12.5t0.5 8q1 1 2 1.5t2 0.5t3 -1t3 -2v-11q0 -21 -2.5 -41t-2.5 -40q0 -19 1.5 -38.5t1.5 -39.5q0 -1 0.5 -5t0.5 -8.5t0.5 -8t0.5 -4.5t0.5 -3l0.5 -2q1 0 2.5 -0.5l1.5 -0.5q2 0 4.5 0.5
t2.5 3.5q1 1 1 4v5q0 15 -2 30t-2 30v16l0.5 2t0.5 4t0.5 4l0.5 2q0 1 -1 2l-1 1v8q0 13 1.5 25.5l3 25t3.5 25t4 25.5zM158 187v-4q3 -2 6 -2.5t6 -0.5t3.5 1t0.5 3v4t-2 3l-13 3l-0.5 -1t-0.5 -2v-4zM105 111v28q0 2 3.5 5.5t8 6t9.5 4t7 1.5q5 0 7 -3q-1 -3 -4 -4.5
t-6.5 -2.5t-7 -2.5t-6 -4t-4.5 -7t-2 -12.5q0 -3 2 -8.5t5 -11.5t6.5 -10t7.5 -4q2 0 5 1.5t3 3.5q0 4 -3 6.5l-6 5t-6 6t-3 9.5q0 4 2 6t4.5 3t5.5 1.5t6 1.5q4 3 5.5 7t2.5 8t4 6.5t11 2.5q7 0 14.5 -2.5t13.5 -7t10 -11t4 -14.5q0 -7 -2 -14t-6 -13q-1 -2 -4 -3t-6 -2.5
t-5.5 -3t-2.5 -5.5q0 -3 2.5 -6t2.5 -7q1 -1 1.5 -4.5t1 -6.5t0.5 -6v-4l0.5 -3t0.5 -5q0 -1 -0.5 -4t-0.5 -4t-1 -1h-3t-3 1.5t-1.5 3.5t-1.5 4t-3 2t-5 -2t-5.5 -4t-4.5 -4.5t-3 -3.5v-2v-2.5t1 -1.5h35q2 0 3 -1.5t1 -2.5t-0.5 -2t-1.5 -1h-2.5h-2.5h-3h-2h-3h-4h-2h-2
q-2 0 -6.5 0.5t-10 1t-10 1t-6.5 0.5q-6 1 -10.5 2.5t-6.5 4t-3 6.5t-1 11v8t0.5 7.5t0.5 7.5t1 9q2 3 2.5 4.5t0.5 4.5v4q-1 0 -2.5 2t-3.5 4t-3.5 4l-1.5 2q-3 4 -3.5 8.5t-3.5 7.5zM155 143v-1q0 -1 1.5 -2.5l3 -3l3 -3l1.5 -1.5q1 -1 3 -1t4.5 -0.5t4.5 -1.5t2 -2l5 -12
q1 -3 -2 -5.5t-6.5 -6l-7 -7t-3.5 -7.5q0 -3 1.5 -3h3.5t6 1.5t8 4.5t7 6.5t3 6.5v24q0 3 -4 6t-9 5.5t-10.5 4t-8.5 1.5h-4.5t-1.5 -3zM147 110q-1 0 -1.5 -0.5l-0.5 -0.5q-2 0 -2.5 2.5l-1 5t-1.5 5t-5 2.5t-6 -2.5t-2 -6.5q0 -3 1.5 -4.5t3.5 -3t4.5 -2.5t3.5 -3
q1 -1 1.5 -2.5t1.5 -3.5t1.5 -3.5l0.5 -1.5q0 -1 0.5 -2t1.5 -2h2h2q3 0 4.5 1t2 3l1 4t2.5 3q2 3 4.5 5t4.5 3.5t3 4t1 6.5q0 3 -1 5t-7 2v0q0 -1 -0.5 -3l-1 -4t-2 -4t-3.5 -2h-1v0q0 2 -0.5 4.5t-0.5 5.5t-0.5 6t-1.5 5l-1.5 1.5t-1.5 0.5h-1q-1 0 -1 -1q-1 -2 -1.5 -5
t-1 -6.5t-0.5 -7v-4.5zM131 74v-1v-1q4 -1 7.5 -1.5t6.5 -0.5h7h7h8q3 -1 3.5 1t0.5 3v1v1q-4 2 -7 3t-5.5 1.5t-5 0.5h-6.5h-4t-5.5 -0.5t-4.5 -2t-2 -4.5zM127 61q0 -4 4.5 -5.5t9.5 -2t10.5 0t7.5 0.5h15q1 0 1 1.5v2.5v2.5t-1 1.5l-20 2t-20 1q-3 0 -5 -0.5t-2 -3.5z
M126 47q0 -1 4 -3.5t9 -4.5t9.5 -4t5.5 -2q2 0 4 1t4.5 2.5t3.5 3.5t1 4v0q-4 2 -9 2.5t-10 0.5t-10 0.5t-10 1.5q-1 0 -1.5 -0.5t-0.5 -1.5v0zM126 34q0 -7 4.5 -10.5t11.5 -3.5q3 0 4 1t1 3t-2 4.5t-5 4t-6 2.5t-5 1q-1 0 -2 -0.5t-1 -1.5z" />
</svg>
