<?xml version="1.0" standalone="no"?>
<!DOCTYPE svg PUBLIC "-//W3C//DTD SVG 1.1//EN" "http://www.w3.org/Graphics/SVG/1.1/DTD/svg11.dtd" >
<svg xmlns="http://www.w3.org/2000/svg" xmlns:xlink="http://www.w3.org/1999/xlink" version="1.1" viewBox="-10 0 266 256">
   <path fill="currentColor"
d="M124 83q0 6 -3.5 9.5t-8 6t-9.5 5t-9 5.5q-10 9 -14.5 21.5t-4.5 24.5v83q0 1 0.5 3.5t1 4.5t2 3.5t3.5 1.5q3 0 6 -2t3 -5q0 -1 -1 -5.5t-1.5 -10t-1.5 -9.5t-1 -5v-61v-1.5v-3t0.5 -3t0.5 -2.5q3 -10 5 -15.5t5.5 -9t9 -6.5t13.5 -8q3 -1 6.5 -4.5t7.5 -3.5t10.5 0.5
t12.5 2.5t10.5 6t4.5 10q0 5 -3 8t-7 5t-9.5 4t-10 4.5t-8.5 5t-5 6.5v3v4t-0.5 3.5t-0.5 2.5q0 9 1.5 16.5t4.5 15t7.5 14.5t9.5 14q2 3 6 8t8.5 10t9.5 9t9 4q2 0 4.5 -1t2.5 -4q0 -2 -2 -4t-4.5 -4t-5.5 -3t-4 -2q-2 -1 -5.5 -4.5t-7 -7.5t-6.5 -8t-5 -7q-5 -8 -8 -18.5
t-4 -19.5q-3 -3 -3.5 -5.5t-0.5 -5.5q0 -6 3.5 -9.5t9 -6t11.5 -4.5t11 -5t8.5 -6.5t3.5 -9.5q0 -9 -5 -14.5t-12.5 -8t-15.5 -3.5t-15 -2v-3v-3v-5.5t1 -5.5t3.5 -4.5t5.5 -1.5h57q2 0 2 -1.5v-2.5q0 -2 -0.5 -3t-1.5 -2h-4h-30.5t-29.5 0.5t-31 1t-33 -0.5l-19 2
q-1 0 -1.5 1.5t-0.5 2.5t1 2.5t3 2.5h11q12 0 22.5 -1t22.5 -1q7 0 9.5 5t2.5 11zM80 23q-2 -1 -3.5 0t-2 2.5t-1 3.5t-0.5 3q28 0 55.5 -1t55.5 -5v-1q0 -3 -1 -4.5t-3 -2t-4.5 -0.5h-4.5q-5 0 -9 1.5t-9 1.5q-8 1 -17 1.5t-19 0.5h-19.5h-17.5z" />
</svg>
