<?xml version="1.0" standalone="no"?>
<!DOCTYPE svg PUBLIC "-//W3C//DTD SVG 1.1//EN" "http://www.w3.org/Graphics/SVG/1.1/DTD/svg11.dtd" >
<svg xmlns="http://www.w3.org/2000/svg" xmlns:xlink="http://www.w3.org/1999/xlink" version="1.1" viewBox="-10 0 266 256">
   <path fill="currentColor"
d="M121 155q0 15 2.5 29.5t7.5 29.5q1 4 4 7.5t5 7.5q2 3 3.5 6.5t3 6.5t4.5 5t6 2q4 0 4 -4q0 -2 -1.5 -4.5t-3.5 -4.5t-4.5 -4t-3.5 -4q-3 -5 -6 -12.5t-5 -15t-3.5 -15.5t-1.5 -14q0 -13 2 -26t3 -26v-8q0 -8 -4 -12t-9 -6.5t-9.5 -4.5t-5.5 -5v-3v-3v-4v-2t-0.5 -5
t-1 -9t-1 -9t-0.5 -5q-2 -2 -2.5 -7t-2 -10.5t-4 -10t-7.5 -4.5q-2 0 -2.5 1t-0.5 3v1l3 7.5t2 4.5t2 5t3 8q0 1 0.5 3l0.5 2q2 14 2 29v30v4v6.5v6.5v5q-2 13 -5.5 25.5t-8.5 25.5q-4 6 -8.5 12.5t-7.5 13.5v2q-2 2 -5 4.5t-5.5 4.5t-5.5 4.5t-4 3.5v6q4 0 7.5 -2t7 -5.5
t6.5 -7t5 -5.5q10 -11 16 -24t9.5 -27.5t5 -29t2.5 -28.5q1 -3 2 -4t3 -1q6 0 9 4.5t3 9.5q0 12 -2.5 23t-2.5 23zM146 101q0 7 0.5 15l1 16t2.5 16.5t4 14.5q1 1 2 2.5t1 2.5q2 6 4 10.5l4 9t5 8.5t8 8q2 3 6.5 5.5t8.5 2.5h1l0.5 -0.5l0.5 -0.5v-1q0 -2 -2.5 -5t-6 -6.5
t-7 -6.5t-4.5 -7l-1 -1t-1.5 -2.5t-1.5 -2.5l-1 -1q-8 -17 -11 -34.5t-3 -36.5q0 -17 1.5 -32t6.5 -31q1 -4 3.5 -7.5t5 -7.5t4.5 -8t2 -9q-5 0 -7 2t-5 7q-7 10 -11 19t-6 18.5t-3 20t-1 22.5zM176 95q0 5 0.5 11.5t1.5 12.5t3.5 12t5.5 10l1 1l2 2l2 2t2 1q1 3 2.5 6
t3.5 5.5t4.5 4t6.5 1.5v-4q-5 -5 -9.5 -12t-8 -14.5t-5.5 -15t-2 -14.5q0 -19 4 -37q1 -3 2.5 -6l2.5 -5t2 -5t1 -6v-3t-2 -2h-1q-8 12 -13.5 26t-5.5 29zM46 143q0 2 1.5 2.5t2.5 0.5q10 0 16.5 -8t10.5 -19t5.5 -22t1.5 -18q0 -11 -2.5 -18t-11.5 -15q-1 0 -2.5 -1
t-2.5 -1h-1h-1q0 3 1 5.5t3 4.5t3.5 4.5t2.5 4.5q3 7 3 13.5v13.5q0 9 -2.5 16.5t-5.5 15.5q-1 3 -4.5 6.5t-7.5 6.5t-7 5t-3 3z" />
</svg>
