<?xml version="1.0" standalone="no"?>
<!DOCTYPE svg PUBLIC "-//W3C//DTD SVG 1.1//EN" "http://www.w3.org/Graphics/SVG/1.1/DTD/svg11.dtd" >
<svg xmlns="http://www.w3.org/2000/svg" xmlns:xlink="http://www.w3.org/1999/xlink" version="1.1" viewBox="-10 0 266 256">
   <path fill="currentColor"
d="M75 196q2 0 4 4t3.5 9.5t3.5 12.5t4.5 13t5.5 10t6 4q4 0 5 -1t1 -4v-3q0 -1 -1 -1h-0.5t-0.5 -1q-1 -1 -2 -3.5t-2.5 -5t-2.5 -4.5t-1 -3q-3 -6 -6.5 -14t-3.5 -14v-2q5 -2 8.5 -3.5t6 -3.5t4 -5.5t1.5 -8.5q0 -2 -0.5 -6t-1.5 -7.5t-2.5 -6t-3.5 -2.5q-1 0 -2 1.5
t-3 3.5t-5 3.5t-8 1.5q-3 0 -4.5 -2.5l-3 -5t-2.5 -4.5t-4 -2h-2t-1 1q0 2 0.5 6t0.5 5v1v1l-0.5 0.5l-0.5 0.5l-18 3q0 1 -2 2.5t-2 2.5l-0.5 0.5l-0.5 0.5q0 2 2.5 3t4.5 1q5 0 9.5 -2.5t9.5 -2.5q2 0 3.5 1.5t2 4t0.5 5v4.5v2t-2 2l-28 3q-1 0 -1.5 2t-0.5 3q0 2 1 3t3 2
q1 0 4.5 -1t7.5 -1.5t8 -1.5t5 -1h1.5h2.5zM130 176q0 8 1 15t2 15q0 2 0.5 9t1 14.5t2 13.5t4.5 6q1 0 2.5 -0.5t2.5 -1.5v-7q0 -5 -1 -10.5t-3 -11.5q0 -2 -0.5 -9t-1 -14.5t-1 -14t-0.5 -9.5v-3q0 -7 1 -12t3 -9.5t5 -8.5t7 -10l1 -1.5l1 -1.5v-43q0 -2 0.5 -2.5t2 -0.5
h2.5h2q5 0 6 0.5t1 4.5q0 5 -1 9t-1 8q0 10 2 15.5t4.5 8.5t5.5 4l6 2t4.5 2t1.5 4v4t-3 3l-25 13q-3 1 -4 4t-1.5 6t-0.5 6.5v5.5t0.5 5.5l0.5 3.5q0 1 1 5t2 9t2.5 10t2.5 8q0 2 0.5 6t1.5 8.5t2 8t2 4.5t2 1h3t2.5 -1t0.5 -3q0 -9 -3 -16t-5 -15q-3 -11 -5.5 -22.5
t-2.5 -22.5q0 -4 2 -5.5t5 -1.5q4 0 7 6t5 15t4 19.5t4.5 19.5t6 15.5t8.5 6.5q3 0 3.5 -2t0.5 -4v-4t-2 -4q0 -1 -2 -5t-4 -8.5l-4 -9t-2 -5.5l-0.5 -1.5t-0.5 -3.5t-0.5 -3t-0.5 -2t-1.5 -5.5l-3 -9l-3 -9t-1.5 -6.5v-1q0 -3 2.5 -4.5t6 -2.5t6 -4t2.5 -11q0 -9 -4.5 -12
t-9.5 -4t-9.5 -2t-4.5 -6q0 -1 1 -4t2 -4q4 1 9 0.5t8.5 -2.5t5.5 -5.5t2 -9.5q0 -9 -2.5 -13t-7.5 -5.5t-11.5 -1t-14.5 0.5q-1 -1 -1.5 -2t-0.5 -2v0q0 -8 6 -12q6 -1 11 -2t9 -3t6.5 -5.5t2.5 -10.5q0 -3 -0.5 -7t-4.5 -6q-1 0 -3 -1l-4 -2t-3.5 -1h-2.5l-3 1h-38
l-2.5 0.5t-4.5 0.5t-4 0.5t-3 0.5v0.5v0.5q0 3 2 4t5 1.5t5.5 1t3.5 0.5v2q0 5 -2.5 9t-5.5 8l-6 8t-3 9q6 0 10.5 -5.5t7 -12.5t5 -12.5t4.5 -5.5h33l0.5 0.5t0.5 1.5v1.5v2.5v4.5t-1 3.5q-4 1 -8.5 2.5t-8.5 4t-7 5.5t-5 7q-1 4 -1 6t-2 5l-10 2t-9 3.5t-6 6.5t-2 10
q0 4 1 7.5t3 6t5.5 3.5t9.5 1q1 0 2 2l1 2q0 2 -1 5t-3 7.5t-4.5 9l-5 9t-4.5 8.5t-2 6v16zM79 170v-1l0.5 -0.5l0.5 -0.5q1 0 3 -0.5t4.5 -1.5t4.5 -1t3 -1h2q1 0 1.5 1t1 3t0.5 3.5v2.5q0 4 -3.5 7t-8.5 3q-2 0 -3.5 -1.5t-3 -3.5t-2 -4.5t-0.5 -4.5zM41 147l0.5 0.5
l1.5 1.5l1.5 0.5l1.5 0.5q4 0 9 -3t8 -5q5 -2 7.5 -6t3.5 -7.5t1.5 -6.5t1.5 -3h11q1 0 1.5 1.5t0.5 2.5q1 6 2.5 10.5t4.5 7.5t7 4.5t11 1.5q4 0 4 -3t-3.5 -4t-7.5 -1.5t-7 -1.5t-3 -4v-16q4 -1 6.5 -4t4 -7t2 -8t0.5 -7q0 -4 -2.5 -6.5t-5.5 -2.5h-43v-16q0 -1 2.5 -2.5
t5.5 -2l6 -1l3 -0.5q2 0 6.5 -0.5t9.5 -1t9.5 -1t6.5 -0.5q3 -4 4.5 -7.5t1.5 -7.5q0 -5 -3 -10t-9 -5h-32q-4 0 -5.5 -3t-2 -6t-2 -6t-4.5 -3t-3.5 2t-0.5 4q0 3 1 6.5t2.5 7t4 5.5t5.5 2h37q2 0 2.5 2.5t0.5 3.5t-1 2.5t-2.5 3t-3 2.5t-2.5 1h-31l-1 1t-2.5 2t-3 2.5
t-2.5 1.5q-2 2 -3.5 5t-1.5 5v17q0 2 -0.5 6t0 7.5l1 7t2.5 6.5q1 2 3 3l4 2t3 2t1 4q0 7 -4 10.5t-8.5 5t-8.5 3t-4 5.5zM60 90h41q1 0 1.5 1.5l0.5 1.5q0 6 -2.5 9.5t-6 5.5t-8.5 2.5t-9 0.5q-1 0 -4 -0.5t-5.5 -1t-5 -1.5t-2.5 -2v-16zM136 91q0 -4 2.5 -7.5t7.5 -3.5
q1 0 2.5 1t1.5 3v11q-2 0 -2 1.5v3t-0.5 2.5t-3.5 1q-5 0 -6.5 -4t-1.5 -8zM177 89q0 -3 1 -6.5t5 -3.5q3 0 7 0.5t5 4.5q1 6 -3 10t-9 4q-4 0 -5 -3t-1 -6z" />
</svg>
