<?xml version="1.0" standalone="no"?>
<!DOCTYPE svg PUBLIC "-//W3C//DTD SVG 1.1//EN" "http://www.w3.org/Graphics/SVG/1.1/DTD/svg11.dtd" >
<svg xmlns="http://www.w3.org/2000/svg" xmlns:xlink="http://www.w3.org/1999/xlink" version="1.1" viewBox="-10 0 266 256">
   <path fill="currentColor"
d="M56 245q0 2 1.5 3.5t3.5 1.5q3 0 5 -2.5t2 -5.5q0 -12 -2.5 -23t-2.5 -22q0 -2 0.5 -8.5t2 -14.5t3.5 -17t4.5 -16.5t6 -12.5t8.5 -5q2 0 5 1t6 2.5t5 3.5t2 4v1l-1 1.5l-1 1.5q0 1 -0.5 3t-1.5 4.5t-1.5 4.5t-0.5 3q-6 17 -6 34q0 3 0.5 8t1.5 11.5l2 13t3 12t5.5 9
t7.5 3.5l2.5 -0.5t2.5 -1.5v-12q-5 -3 -8 -9t-5 -12.5t-2.5 -13t-0.5 -12.5q0 -7 2 -13t4.5 -12t4.5 -12t2 -13q0 -6 -4 -9t-9 -5t-9 -4t-4 -6q0 -7 3.5 -10.5t8.5 -5t11 -1.5h11q3 0 5 1t5 1q6 0 12 -1t11 -1q4 0 4.5 2t0.5 5q0 4 -1 6t-2 3.5t-2.5 2.5t-2.5 4q-1 1 -2 3
t-2.5 4.5t-2.5 5t-2 4.5q-6 14 -7.5 28.5t-1.5 29.5q0 4 1 14t3.5 20t5 17.5t6.5 7.5q3 0 4 -2t1 -5q0 -4 -1 -8l-2 -8t-2.5 -7.5t-3.5 -6.5v-59q0 -11 5.5 -20.5t13.5 -15.5q2 0 5.5 1.5t6.5 3t5.5 4t2.5 5.5q0 6 -2.5 12t-5 12.5t-4.5 12.5t-2 13q0 8 2 17t6 17.5t9.5 16
t11.5 13.5h1v0q4 0 5 -3t1 -5q0 -1 -1.5 -4t-3.5 -6.5t-3.5 -6.5l-2.5 -5q-6 -10 -9 -18.5t-3 -20.5q0 -7 2 -12.5l4 -11t4 -11.5t2 -12q0 -5 -2 -8t-5 -5t-7 -3t-7 -3t-5 -5t-2 -8q0 -3 2.5 -4.5t3.5 -2.5h17t16 -2q1 0 2 -1.5t1 -2.5t-0.5 -2.5l-0.5 -1.5h-4.5h-4.5
q-6 0 -12 1t-12 1q-4 0 -5 -3t-1 -6q0 -2 4 -3t9 -2.5t9.5 -3.5t4.5 -7q1 -5 1.5 -10.5t0.5 -10.5q0 -4 -1 -6.5t-5 -2.5t-5.5 2t-2 5.5t0.5 8t0.5 8t-3 5.5t-7.5 2q-1 0 -2.5 0.5t-2.5 -1.5v-9v-8l0.5 -2.5t0.5 -5t0.5 -4.5t0.5 -3t-0.5 -2.5t-0.5 -4t-0.5 -4t-0.5 -2.5h-3
q-4 0 -6 1.5t-2 5.5t0.5 5t0.5 3v3q0 1 -0.5 3.5t-0.5 3.5v4.5v6.5v7.5v4.5t-0.5 1.5t-1.5 0.5q-4 0 -6.5 -3.5t-3.5 -8.5t-1 -9.5t-1 -7.5h-1q-3 0 -5 4v4v4q0 9 1.5 13.5t4 6.5t5 3l5 2t4 2.5t1.5 5.5v3t-3 3q-4 0 -8.5 0.5l-9 1t-9.5 1t-9 0.5q-2 0 -3.5 -1t-3.5 -1h-2
h-1q-1 0 -4 0.5t-6.5 0.5t-6.5 0.5t-4 0.5h-1q-2 0 -2 -2v-3q0 -6 2.5 -8t6.5 -3t8 -2.5t6 -5.5t4 -10t2 -11q0 -3 -0.5 -5t-4.5 -4l-1 1t-2 1.5t-2 1.5l-1 1v5.5t-1 7.5t-3 6.5t-5 2.5q-2 0 -4 -0.5t-2 -2.5v-37q0 -1 -2 -1.5t-3 -0.5q-2 0 -4 0.5t-2 3.5v32q-1 1 -1.5 4.5
t-0.5 4.5q-1 1 -2 1h-1q-6 0 -8 -4.5t-3 -10t-2 -10t-5 -4.5v0q-1 0 -2 1.5l-1 1.5q-1 1 -1 4v3q0 13 6.5 20.5t18.5 7.5l2 6t1 5v1l-1.5 1l-1.5 1h-6t-8 0.5t-8 0.5h-6q-1 0 -2 0.5t-2.5 0.5t-3 0.5t-2.5 0.5v1.5v1.5v3.5t2 1.5t5.5 -0.5t7.5 -1l8 -1t5 -0.5h4q6 0 7 3.5
t1 9.5q0 3 -2 6.5t-4.5 7t-5 6.5t-3.5 5q-8 16 -11.5 32.5t-3.5 34.5v4v4v5v2q0 2 0.5 6t1 9t1 9t1.5 6z" />
</svg>
