<?xml version="1.0" standalone="no"?>
<!DOCTYPE svg PUBLIC "-//W3C//DTD SVG 1.1//EN" "http://www.w3.org/Graphics/SVG/1.1/DTD/svg11.dtd" >
<svg xmlns="http://www.w3.org/2000/svg" xmlns:xlink="http://www.w3.org/1999/xlink" version="1.1" viewBox="-10 0 266 256">
   <path fill="currentColor"
d="M83 245q0 1 0.5 3t1.5 3l2 -0.5t2 -1.5q10 -4 18.5 -10t16 -13.5t14.5 -15.5l14 -16q1 -1 2.5 -3t3.5 -5t3.5 -5t2.5 -3q2 -3 3 -8.5t1 -9.5q0 -5 -3 -8t-7.5 -6t-8.5 -5.5t-6 -5.5q0 -1 -0.5 -2l-1 -2l-1 -2t-0.5 -2l-1.5 -2l-1.5 -2q-1 -1 -1.5 -3t-1.5 -4t-1.5 -4.5
t0.5 -3.5q0 -1 2 -2.5t3 -1.5t3 -0.5t3.5 -1t3.5 -0.5h2q3 0 9.5 -0.5t14.5 -0.5h14.5h9.5q2 -1 3 -2t1 -3v-1.5t-1 -1.5h-10q-23 0 -46 2t-47 1q-4 2 -11.5 2h-15t-12.5 1.5t-5 5.5q0 3 1 4t4 1q12 0 24.5 -2.5t25.5 -2.5h13q1 0 2 4.5t3 9.5t3.5 9.5t2.5 6.5t5 5.5
t8.5 7.5t8 7.5t3.5 5.5q0 8 -5.5 17.5t-14 18.5t-18 18t-18 15.5t-14 10.5zM67 80q0 3 1.5 3h3.5q5 0 11.5 -3t12.5 -7t11 -9t5 -9v-32l-3 -10h-8q0 8 1 14.5t1 13.5q0 10 -5.5 16.5t-12.5 10.5t-12.5 6.5t-5.5 5.5zM143 12v1q0 3 0.5 8.5t0.5 11v9v4.5q1 8 5 13t10 8
t13 4.5t14 1.5h4l2 -5v-1q0 -2 -5 -4t-11.5 -3.5t-12.5 -3.5t-8 -6q-2 -9 -1.5 -19t-1.5 -19q-1 -1 -2.5 -2t-2.5 -1v0h-1l-3 3v0z" />
</svg>
