<?xml version="1.0" standalone="no"?>
<!DOCTYPE svg PUBLIC "-//W3C//DTD SVG 1.1//EN" "http://www.w3.org/Graphics/SVG/1.1/DTD/svg11.dtd" >
<svg xmlns="http://www.w3.org/2000/svg" xmlns:xlink="http://www.w3.org/1999/xlink" version="1.1" viewBox="-10 0 266 256">
   <path fill="currentColor"
d="M62 217v27q0 1 1 3.5t2 3.5h1h1h2.5t2.5 -2q-1 -7 -1 -16t0.5 -18t3 -17t7.5 -15h2.5t4.5 -0.5t4.5 -0.5h3.5l2 -0.5l4 -1l4 -1t2 -2.5q0 -1 -0.5 -2.5t-2.5 -1.5h-16q-2 0 -3 -2.5t-1 -3.5t0.5 -1.5l0.5 -0.5l21 -24l0.5 -0.5l0.5 -0.5q0 -1 -0.5 -2t-2.5 -2
q-5 2 -9.5 7t-8 10t-6 9.5t-4.5 4.5q-2 1 -3.5 -0.5t-2.5 -3t-1.5 -3.5t-0.5 -3q0 -9 4 -14.5t9.5 -9l11 -7t7.5 -7.5q1 -2 -0.5 -2.5t-3.5 -0.5q-3 0 -7 2t-6 4q-3 2 -6.5 6t-7.5 7.5t-6.5 6l-2.5 2.5l-2 4v17q0 3 1.5 4.5t4 3.5t4.5 3.5t2 4.5q0 1 -1 3t-2.5 4.5t-2.5 5
t-1 3.5q0 4 -0.5 10t-2.5 10zM116 180v5q0 1 0.5 8t1 14.5t0.5 14v8.5v5.5t0.5 6.5t2 5t4.5 2q7 0 7 -6q0 -18 -3 -36t-3 -37q0 -9 1 -18t2 -19q0 -6 -1 -14t0 -15t4 -12.5t11 -8.5q7 -1 12.5 -2t11.5 -1.5l12 -1t13 -0.5q1 0 3 -2l2 -2l-0.5 -1.5t-1.5 -2.5l-0.5 -0.5
l-0.5 -0.5h-6q-14 0 -28 2.5t-27 5.5q-4 3 -7.5 7t-5.5 9q1 22 -1.5 43.5t-2.5 43.5zM185 241q1 2 2 3.5t3 1.5q3 0 3.5 -1.5t1.5 -5.5v0v-1q0 -3 -1 -9t-2 -11.5t-1.5 -10t-0.5 -5.5q0 -3 -1.5 -7t-3 -7.5t-2.5 -7.5t-1 -7t1 -6t2.5 -6t2.5 -6t1 -6q0 -8 -3.5 -14.5
t-9.5 -11t-13 -7t-14 -2.5q-1 0 -1.5 1t-0.5 2v2q5 2 11 5t10.5 6.5t7.5 8.5t3 12q0 2 -0.5 4t-4.5 4q-2 1 -4 -1t-4 -4.5t-3.5 -4.5t-2.5 -3q-1 0 -3 -1.5t-5 -2.5t-5.5 -2t-3.5 -2h-1q-1 0 -2.5 0.5t-1.5 1.5q0 2 4 4.5t9 5.5t9 7.5t4 9.5q0 2 -1 4t-3 2h-18l-0.5 0.5
l-1.5 1.5v1q0 2 1 2.5t3 1t4 0.5h3q4 0 8 -1t8 -1h3q3 0 4 2q4 15 7 30t4 31zM63 119l2 4t3 2q3 0 4 -4t1.5 -10.5t0.5 -14.5t1 -15t2.5 -13t5.5 -9q4 -2 9.5 -3.5t11 -2.5t11 -1.5t8.5 -0.5h8q4 0 8.5 1t8.5 1q5 0 11.5 -1.5t10.5 -1.5q0 -1 1 -1.5l1 -0.5q1 -1 2 -3.5
t1 -3.5v-19q0 -4 -4 -6.5t-9.5 -3t-11 -0.5h-7.5h-3h-5t-3.5 0.5l-1.5 0.5q-3 0 -11.5 0.5t-17.5 1t-17.5 0.5t-11.5 1q-2 0 -2 1v2v2t2 1h88q2 0 3 2t1.5 4t0.5 4v3v6l-70 4q-12 0 -18.5 6t-9.5 15t-3.5 19t-0.5 19v3v4.5v4.5v3z" />
</svg>
