<?xml version="1.0" standalone="no"?>
<!DOCTYPE svg PUBLIC "-//W3C//DTD SVG 1.1//EN" "http://www.w3.org/Graphics/SVG/1.1/DTD/svg11.dtd" >
<svg xmlns="http://www.w3.org/2000/svg" xmlns:xlink="http://www.w3.org/1999/xlink" version="1.1" viewBox="-10 0 266 256">
   <path fill="currentColor"
d="M184 240q1 3 2 4.5t3 1.5q6 0 7.5 -4t1.5 -8q0 -7 -2 -13.5t-3 -14.5q-1 -16 -2.5 -32t-1.5 -33q-1 -8 -2 -18.5t-1 -19.5v-2v-2.5t0.5 -3.5t0.5 -3.5v-1.5q0 -1 -0.5 -3.5t-0.5 -3.5v-60q0 -2 -1.5 -3.5t-3 -2.5t-3.5 -1h-3v65q0 3 -2.5 4t-4.5 1q-8 1 -14.5 1.5
t-13 0.5h-12.5h-14h-25q-2 0 -3.5 -2t-1.5 -5v-56q0 -2 -1 -3t-2.5 -2t-3.5 -1.5t-3 -0.5h-1q0 1 -0.5 1.5l-0.5 0.5v112q-2 5 -2.5 8t-0.5 5.5v5.5v8q0 3 -0.5 8.5t-1 12t-1 11.5t-0.5 7t-1 6.5t-2 10t-1.5 10.5t-0.5 6v4q0 3 1 5t5 2q3 0 6 -5t4.5 -12t2 -14t0.5 -9v-8.5
v-11.5v-11.5v-7.5q2 -5 2 -15t0.5 -20t1 -18t2.5 -9q23 -3 45 -3.5t44 -0.5v4.5v7.5v7.5v5.5v3.5t0.5 5t0.5 5.5v4l1 3l1 3q0 1 -1 3l-1 2v2.5v3.5q0 8 1.5 17t1.5 18q0 3 1 9.5t1.5 14.5t1.5 15t1 9z" />
</svg>
