<?xml version="1.0" standalone="no"?>
<!DOCTYPE svg PUBLIC "-//W3C//DTD SVG 1.1//EN" "http://www.w3.org/Graphics/SVG/1.1/DTD/svg11.dtd" >
<svg xmlns="http://www.w3.org/2000/svg" xmlns:xlink="http://www.w3.org/1999/xlink" version="1.1" viewBox="-10 0 266 256">
   <path fill="currentColor"
d="M128 213q0 6 3 11.5t7.5 10.5t10.5 8t12 3q0 -5 -3.5 -8.5t-7.5 -7t-7.5 -7.5t-3.5 -9q0 -6 3.5 -8.5t8 -4t8 -4t3.5 -8.5t-3 -8.5t-7 -5.5t-6.5 -5.5t-2.5 -7.5q0 -1 4.5 -1.5t10 -2t10 -5.5t4.5 -14q0 -2 -0.5 -4.5t-1.5 -4.5t-2.5 -3.5t-3.5 -1.5h-33q-1 0 -1 -2.5
v-2.5q0 -2 1.5 -4t3.5 -2h23q3 0 5 -2t3 -4.5t1.5 -5t0.5 -4.5q0 -5 -3.5 -7t-8.5 -2.5t-9.5 -0.5h-7.5q-6 -1 -8 -3t-2.5 -4.5t-1 -4t-3.5 -1.5h-1h-1q-1 1 -3.5 3t-5 4.5t-5 4.5t-3.5 2q-2 2 -5 3.5t-7 3t-6.5 3t-2.5 3.5q0 3 3 5q5 -1 11.5 -4t10.5 -6q2 -1 3 -2l2 -2
t2.5 -1.5t3.5 -0.5q5 0 11.5 2t12.5 3h2.5t3.5 0.5t3.5 0.5h1.5l1.5 1.5t0.5 1.5q0 2 -2 4t-3 2h-22q-4 0 -5.5 3t-2.5 6.5t-1.5 6.5t-1.5 4h-9q-6 0 -11.5 0.5t-11 2.5t-8.5 6v6q0 8 4 12t9 6t9 3t4 3q0 3 -1.5 6t-3.5 5.5l-4 5t-2 3.5q-3 4 -4 9t-1.5 10l-1 10t-0.5 9v3v4
v4v3q1 2 2.5 3.5t3.5 1.5h1l1.5 -1l1.5 -1q-1 -12 -0.5 -24t3.5 -24q6 -8 11 -18t5 -19v-1q0 -1 -0.5 -3t-0.5 -4.5t-0.5 -4.5l-0.5 -2v-2q0 -2 1.5 -3t3.5 -2t4 -1h4t3 1t3 4v4v7v6v5q0 5 1.5 8.5t3.5 7t5 6t8 6.5v1v1q0 4 -3.5 6t-8 4t-8 5t-3.5 9zM54 236q0 2 1.5 4
t4.5 2t4.5 -2.5t2.5 -5.5v-17v-16q0 -1 -0.5 -6.5t-0.5 -12t-0.5 -12t-0.5 -7.5q0 -1 0.5 -5t0.5 -8t0.5 -8t0.5 -5v-26v-23v-23t2 -24q1 -7 4.5 -10t8.5 -4t11 -1.5t12 -0.5h1h3h3h2q1 0 6 -0.5t10 -0.5t9.5 -0.5t6.5 -0.5h1h8q5 0 11 1t10.5 3t5.5 6q1 6 1 11t2 11
q-1 22 0 44.5t2.5 45.5t2 45.5t0.5 45.5q0 3 1 4.5t4 1.5q2 0 3.5 -0.5t2.5 -2.5v-2.5t0.5 -4t0.5 -4v-2.5v-1q0 -9 -1 -18.5t-2 -17.5v-7t-0.5 -11t-0.5 -11v-6q-1 -31 -2 -61.5t-3 -61.5q-3 -8 -8.5 -12t-12.5 -5t-15 -0.5t-14 0.5h-6h-6.5h-5.5h-3q-1 0 -6.5 0.5t-12 1.5
t-13.5 1.5t-11 1.5q-16 2 -20 17q0 7 0.5 14t0 14.5t-1 14.5t-2.5 14v124q0 1 -0.5 3.5t-0.5 5t-0.5 5t-0.5 3.5v2zM89 142q0 -2 1.5 -3.5t3.5 -2t4.5 -1t3.5 -0.5h1l1 0.5t1 1.5v16q-3 0 -5.5 -0.5t-5 -1.5t-4 -3t-1.5 -6zM141 142q0 -6 3.5 -7.5t9.5 -1.5h2.5h3.5
q2 1 2.5 3.5t0.5 3.5q0 7 -3 9t-8 2t-8 -1.5t-3 -7.5zM75 67v2t1 1h10q22 0 43.5 -2t42.5 -4q1 0 1.5 -0.5l0.5 -0.5v-1q0 -2 -1 -2.5t-2.5 -1t-3.5 -0.5h-2h-5h-9t-13 0.5t-15 1t-15.5 1t-13 0.5h-8.5q-2 0 -3.5 0.5t-3.5 1t-3 1.5t-1 3zM81 42q0 3 2.5 4t4.5 1h18
q10 0 20.5 -0.5t20.5 -1t19 -1.5q2 -1 2 -2v-2q0 -3 -2 -3.5t-4 -0.5q-19 0 -40.5 1t-40.5 4v1z" />
</svg>
