<?xml version="1.0" standalone="no"?>
<!DOCTYPE svg PUBLIC "-//W3C//DTD SVG 1.1//EN" "http://www.w3.org/Graphics/SVG/1.1/DTD/svg11.dtd" >
<svg xmlns="http://www.w3.org/2000/svg" xmlns:xlink="http://www.w3.org/1999/xlink" version="1.1" viewBox="-10 0 266 256">
   <path fill="currentColor"
d="M137 173q0 6 0.5 16.5t2.5 21.5t6 20.5t11 14.5q2 2 5 2.5t6.5 1t6.5 0.5h5q13 0 19.5 -6.5t10 -15.5t4 -20t0.5 -21q0 -2 0.5 -7t0 -9.5t-2.5 -8t-6 -3.5q-1 0 -2.5 0.5t-1.5 1.5v3v4v4v3t-0.5 3.5t-0.5 4.5t-0.5 3.5l-0.5 1.5l-3 1l-3 0.5t-6.5 0.5t-7 0.5t-6.5 0.5h-1
h-1h-4t-6 -0.5l-6 -1t-4 -0.5v-3.5v-4.5v-5.5v-3.5q0 -2 -1 -3.5t-2 -3.5t-2.5 -3t-2.5 -1q-2 0 -3.5 1t-2 3l-1 4t-0.5 4zM155 212v-4v-5q2 -1 7 -1.5t11.5 -1t13 -0.5h9.5h3t3 2v3v3q0 13 -6 21t-19 8q-12 0 -17 -7t-5 -18zM39 189q0 2 1.5 4t4.5 2q2 0 3.5 -0.5t2.5 -1.5
l28 -30l1.5 -1l1.5 -1h1q5 0 9.5 4t8.5 8.5t8.5 8.5t8.5 4q1 0 3.5 -1.5t2.5 -2.5v-1v0q-1 -1 -1.5 -2t-1.5 -2t-1.5 -2t-0.5 -2q-2 -1 -5.5 -4.5l-7.5 -7.5t-8 -7.5t-5 -4.5l-2 -4v-21t-2 -21q-1 -2 -2.5 -3t-3.5 -1h-1l-1.5 1.5t-1.5 2.5q0 11 -0.5 23t-1.5 23q0 2 -6 6.5
t-13 10t-13 11.5t-6 12zM132 93q0 5 0.5 14t2.5 18t7 15.5t13 6.5h40q7 0 11 -3t6 -8t3 -11t1 -12v-5t-1 -6t-2.5 -5t-3.5 -3h-7.5t-11 0.5l-11 1t-7.5 0.5t-5 -0.5t-6 0t-5.5 2t-2.5 5.5q0 2 2 3.5t3 1.5q5 -1 9 -1t7 -0.5t6.5 -0.5h8.5h9l3 1.5t3 2.5v6q0 2 -0.5 5.5
t-1.5 6.5t-2.5 5.5t-4.5 2.5h-38q-3 0 -5 -1.5t-3 -4t-2 -5.5t-1 -5v-2.5t-0.5 -6t-0.5 -7v-5.5v-1q0 -13 3 -19t8.5 -8t12 -1.5t13.5 0.5t13 -1.5t10 -8.5v-6v-7t-0.5 -10t-2.5 -8.5t-5 -3.5h-13h-12h-6.5t-10.5 0.5t-10.5 0.5h-6.5q-3 1 -5.5 2t-3.5 4q1 4 3.5 4.5
t5.5 0.5q12 0 23.5 -1t22.5 -1q6 0 7.5 3.5t1.5 8.5v2.5v3.5q-3 4 -7 5t-9 1.5t-10.5 0.5t-10.5 0.5t-9 2t-6 4.5q-4 7 -6.5 12.5t-2.5 13.5zM40 111q0 3 1.5 5.5t4.5 2.5q2 0 4 -1t5 -3q1 -1 4 -4.5t6.5 -7l7 -7l4.5 -4.5q3 -3 4 -3.5t5 -0.5t8.5 3.5t8 7t7.5 6.5t8 3
q2 0 3 -1.5t1 -3.5v-1.5v-0.5q-2 -5 -6.5 -8.5t-9 -6t-9.5 -5t-8 -7.5v-11q0 -10 1 -20t1 -19q0 -1 -1 -3l-2 -4t-2.5 -3.5t-3.5 -1.5q-1 0 -2.5 0.5t-1.5 1.5v62q0 3 -6 7t-13 9t-13 10t-6 9z" />
</svg>
