<?xml version="1.0" standalone="no"?>
<!DOCTYPE svg PUBLIC "-//W3C//DTD SVG 1.1//EN" "http://www.w3.org/Graphics/SVG/1.1/DTD/svg11.dtd" >
<svg xmlns="http://www.w3.org/2000/svg" xmlns:xlink="http://www.w3.org/1999/xlink" version="1.1" viewBox="-10 0 266 256">
   <path fill="currentColor"
d="M92 250q0 1 1.5 1.5t2.5 0.5q4 0 5.5 -3t2.5 -7q0 -4 -0.5 -14.5t-0.5 -21.5q0 -12 0.5 -22.5t0.5 -14.5v-5t0.5 -8.5t0.5 -8.5v-5v-2q0 -6 -0.5 -12t-0.5 -12v-4v-4t1.5 -4t3.5 -2h28q1 0 5 -1.5t4 -3.5t-1 -4t-3 -2h-33l-4 -3v-31q0 -2 2.5 -3l5 -2t5 -1.5t3.5 -2.5
q4 -5 4.5 -11t0.5 -12v-2v-3.5v-3.5v-2l-1.5 -0.5t-1.5 -1.5h-1h-1q0 1 -1.5 1.5l-1.5 0.5q-1 9 -3 14.5t-4 12.5h-30l-1 -1t-1.5 -3t-1.5 -3.5t-1 -3.5v-2.5v-4.5v-4v-3t-1.5 -2t-1.5 -2h-1h-1q-1 1 -2 1.5t-2 0.5v10q0 4 0.5 9.5t1.5 9.5q1 2 5 4.5t9 4t8.5 2.5t3.5 2v32
l-2 3q0 1 -1 1h-3q-4 0 -7.5 -1t-8.5 -1q-6 0 -12.5 1t-13.5 2q-2 1 -2 2v2v2t2 1h41q6 0 6.5 4t0.5 8q0 29 -2 57t-2 56v5q0 4 0.5 7.5t0.5 7.5v5zM171 241q0 2 2 3.5t4 1.5l2 -0.5t3 -1.5q1 0 2 -0.5t1 -1.5l9 -35l2 -4l0.5 -4t1.5 -9.5t2 -13t2.5 -14.5t2 -14t1.5 -11
q1 -7 1.5 -14.5t0.5 -14.5v-7t-4 -6l-20 -22q-7 -2 -11 -7t-4 -12t4.5 -10t10.5 -4.5t12 -2t10 -1.5q2 -1 3 -2.5t1 -3.5q0 -1 -1.5 -3t-2.5 -2h-1h-1l-2.5 0.5l-5 1t-5 1.5l-2.5 1q-7 1 -12 2t-9 3t-6.5 6.5t-2.5 11.5q0 5 1.5 8.5t3 6.5t3 5.5t1.5 5.5q0 8 -5 13
q0 2 -1 5.5t-2 7.5t-1.5 7.5t-0.5 5.5l-0.5 2l-1 4t-0.5 4v2q-1 5 -3 9.5t-4 9.5t-3.5 9.5t-1.5 9.5l-18 47v0q0 3 2 3h3q3 0 7.5 -7.5t8.5 -18.5t8 -24.5t7 -25.5t5 -20.5t3 -9.5q0 -1 1 -3.5t1.5 -5.5t1.5 -5.5t1 -3.5q2 -1 3.5 -1.5t3.5 -0.5q3 0 5.5 1.5t5 4t4 5.5
t1.5 6v32q-2 4 -3 8t-1 7.5t-0.5 7t-1.5 8.5q-3 16 -9 34t-11 34l-0.5 0.5t-0.5 1.5z" />
</svg>
