<?xml version="1.0" standalone="no"?>
<!DOCTYPE svg PUBLIC "-//W3C//DTD SVG 1.1//EN" "http://www.w3.org/Graphics/SVG/1.1/DTD/svg11.dtd" >
<svg xmlns="http://www.w3.org/2000/svg" xmlns:xlink="http://www.w3.org/1999/xlink" version="1.1" viewBox="-10 0 266 256">
   <path fill="currentColor"
d="M45 247q0 3 2 3h3q4 0 5 -2.5t1.5 -6t0 -7t-0.5 -5.5t0.5 -6.5t0.5 -9t0.5 -8.5t0.5 -5l6 -64t7 -64q0 -4 0.5 -9.5t2.5 -8.5q3 -4 8.5 -6.5t11 -4t11.5 -1.5h11q11 0 18 1t11 5t5.5 11.5t2.5 19.5v4.5v5.5v6t1 5v26q0 28 -2 56.5t-2 56.5v0q0 1 1 2.5t2 1.5h1t2 -1.5
t2 -3.5t2 -3.5t1 -2.5q-1 -29 1 -58t2 -58v-1q0 -1 -0.5 -3.5l-1 -5l-1 -5l-0.5 -2.5v-3v-6v-6v-3q0 -2 -0.5 -7l-1 -10t-1 -9.5t-1.5 -5.5q-1 -8 -5 -11.5t-10 -4.5t-12 -1t-11 -1l-3 -4v-14q0 -1 -1 -2l-1 -1h-8v19q0 2 -3 3.5t-7.5 2.5t-10 2t-10 3.5t-7.5 5.5t-3 8
q-1 3 -1.5 10t-1.5 14.5t-1.5 14.5t-0.5 9q-1 3 -1.5 9.5t-1 13.5t-1 12.5t-1.5 7.5l-7 91l-0.5 1.5t-1 3.5t-1 3.5l-0.5 1.5v1zM117 243q1 2 2 2h1q3 0 5 -3t2 -6q0 -1 -0.5 -4.5l-1 -7l-1 -7t-0.5 -4.5v-4t0.5 -6t0.5 -6v-4v-5q0 -3 -0.5 -6.5t-0.5 -7.5q0 -8 1 -13
t3 -8.5t4.5 -6.5t5 -5.5t4.5 -6t4 -8.5q0 -2 0.5 -6.5l1 -9l1 -9t1.5 -6.5v-2q0 -1 -1 -3t-2.5 -4t-2.5 -3.5t-2 -1.5h-15l-0.5 0.5l-1.5 1.5q-2 4 -2.5 9t-0.5 10v16v14q0 1 1 4t1 4l-1 2t-1.5 4.5t-1.5 4.5t-1 3t-0.5 3t-1 5t-1 5t-0.5 3v5.5v7.5v8v6v23q0 11 1 23z
M174 237q0 3 0.5 3.5t3.5 0.5q4 0 7.5 -6.5t7.5 -16.5t7.5 -22t6 -23t4 -19.5t1.5 -11.5q0 -8 -3 -14t-7 -11t-7.5 -10.5t-3.5 -12.5q0 -8 2 -15l4 -14l4 -14t2 -15q0 -3 -2.5 -4t-4.5 -1t-4 4.5t-3.5 11t-2.5 14.5t-1.5 15.5t-1 13.5t-0.5 9v10q2 4 3.5 6.5t1.5 6.5
q0 5 -2.5 11.5t-6 14t-6.5 15t-3 15.5v1l2 2l2 2q1 0 3 -3.5t4 -9t3.5 -12t3.5 -12.5t4.5 -10t4.5 -4t3.5 1.5l2.5 2.5v4.5v5.5q0 10 -3.5 22t-8.5 23.5t-9.5 22.5t-7.5 20v3zM71 188v48q0 1 1 1.5t2 0.5q2 0 3 -1t2 -3q0 -2 0.5 -8t0.5 -12.5v-12.5v-8q1 -6 0.5 -12.5
t0 -12.5t3 -11t6.5 -10l2 -1.5t4 -2.5t3.5 -2l1.5 -1q3 -2 4 -4.5t2.5 -5t2.5 -5.5t3 -5v-10v-10t-1.5 -11.5t-4 -9.5t-7.5 -4q-3 0 -6.5 1t-7.5 2.5t-6.5 3.5t-2.5 5v1q1 0 3 2.5t2 3.5q1 2 2.5 7.5t2.5 12t1.5 12.5t0.5 9t-1.5 5t-3.5 4l-4 4t-3 4q-1 6 -2 10.5t-1.5 8.5
l-1 8t-1.5 9zM129 129v-5v-5v-7.5v-6.5t1 -6.5t2 -8.5q0 -2 1 -2h2q5 0 6 3t1 7v8q0 5 -1 10.5t-3 10t-6 4.5q-1 0 -2 -0.5t-1 -1.5zM98 85q3 0 4.5 3.5t2 8t0.5 8.5v6v5t-1 4l-7 9q-2 -1 -3 -3.5t-1 -3.5v-34l0.5 -0.5l1.5 -1.5l1.5 -0.5z" />
</svg>
