<?xml version="1.0" standalone="no"?>
<!DOCTYPE svg PUBLIC "-//W3C//DTD SVG 1.1//EN" "http://www.w3.org/Graphics/SVG/1.1/DTD/svg11.dtd" >
<svg xmlns="http://www.w3.org/2000/svg" xmlns:xlink="http://www.w3.org/1999/xlink" version="1.1" viewBox="-10 0 266 256">
   <path fill="currentColor"
d="M77 246q0 3 0.5 4t3.5 1t5 -4t3.5 -9.5l3 -11t3.5 -8.5q3 -5 8.5 -8t11 -5.5t10 -6t6.5 -10.5q0 -1 0.5 -4.5t1.5 -7.5t1.5 -7.5t0.5 -5.5v-4.5t-0.5 -7.5t-0.5 -8v-5v-7v-7q1 -2 3.5 -3t5 -1t5 -0.5t2.5 -2.5q0 -1 -0.5 -2t-1.5 -2h-16h-12t-17.5 0.5t-19 0.5t-17 1
t-12.5 2.5t-5 3.5q0 3 2 3h4q14 0 28 -1.5t28 -1.5h5h4l3 3v58q0 4 -5 8.5t-12 9t-13.5 9.5t-10.5 9q-2 3 -3.5 6.5t-2 7.5t-0.5 7.5v6.5zM174 242q0 3 3 3q5 0 8 -4t5 -9t3 -10.5t1 -8.5q0 -1 1 -6.5t1.5 -11.5t1 -11.5t1.5 -7.5v-4t0.5 -7.5t0.5 -8.5v-7v-2v-7v-9t-1 -9.5
t-3 -6.5q-3 -3 -8.5 -4.5t-10 -3t-8 -4.5t-3.5 -8q0 -8 6 -12t13.5 -6.5t13.5 -5t6 -6.5v-3.5t-1 -2.5t-3 -1h-1q-5 0 -13 3.5t-15 8.5t-12 11t-5 12q0 7 3.5 11t8.5 8h1v0q0 6 -1.5 12t-3.5 11.5t-4 11.5t-2 12v4q-2 7 -4.5 14t-5 13.5t-4 14t-1.5 14.5q5 0 7 -2.5
t3.5 -5.5t1.5 -6.5t1 -6.5q4 -16 9.5 -32t9.5 -32v-5t0.5 -4t1 -3t2.5 -2l0.5 -0.5l0.5 -0.5q5 0 7.5 4t3.5 9.5t1 10.5v8v1q0 1 -0.5 2t-0.5 2.5t-0.5 2.5l-0.5 1q0 3 -1 9.5t-2 13.5t-2 13.5t-1 8.5q-3 9 -6 18.5t-3 18.5zM69 167q0 4 1 8t6 6h11h12l2 -0.5t4.5 -1.5t4 -2
t1.5 -3v-34v-5.5t-3 -1.5t-4.5 2.5t-2.5 4.5t-3 4t-6 2q-6 0 -8 -1t-3 -2.5t-1.5 -3.5t-3.5 -4q-4 3 -5 6v4v6v5.5v3.5t-1 3.5l-1 2.5v1zM96 154h4t2 3q0 7 -1.5 11.5t-8.5 4.5h-3t-4 -0.5t-3.5 -1t-1.5 -1.5v-13q0 -1 2 -1.5t5 -1t5.5 -0.5h3.5zM68 96v3t1 2q5 0 9 -3
t7.5 -6.5l7 -7t7.5 -4.5q2 0 4.5 2.5l5 5t5.5 5t7 2.5q2 0 4.5 -1t2.5 -5q0 -3 -3 -5.5t-7.5 -4.5t-8.5 -4.5t-5 -5.5v-9q0 -2 -0.5 -5t0 -6t2 -5.5t4.5 -2.5q4 0 9 3t9 6.5t7 6.5t6 3q2 0 3.5 -1t1.5 -3q0 -4 -5 -8.5t-12 -8t-14 -6t-10 -2.5v-23q-4 0 -6.5 0.5t-2.5 4.5v2
l0.5 2.5t0.5 4.5t0.5 4.5l0.5 2.5v1q0 2 -3.5 3.5t-8 3.5t-10 4t-10.5 4.5t-8 5.5t-3 7q5 0 8.5 -1.5t6 -3t6 -3.5t8.5 -4q1 0 2.5 -0.5l3 -1t2.5 -1l1 -0.5l3 3l0.5 2.5t0.5 3.5q0 12 -5 18.5t-10.5 10.5t-10 7.5t-4.5 7.5z" />
</svg>
