<?xml version="1.0" standalone="no"?>
<!DOCTYPE svg PUBLIC "-//W3C//DTD SVG 1.1//EN" "http://www.w3.org/Graphics/SVG/1.1/DTD/svg11.dtd" >
<svg xmlns="http://www.w3.org/2000/svg" xmlns:xlink="http://www.w3.org/1999/xlink" version="1.1" viewBox="-10 0 266 256">
   <path fill="currentColor"
d="M156 245q0 2 1.5 2.5t3.5 0.5q5 0 8 -8t5 -20.5t3.5 -26.5t2.5 -27t1.5 -22t0.5 -11l0.5 -0.5l0.5 -0.5h16q0 22 -1.5 44t-1.5 44v4t3 3q4 -2 5.5 -7t2 -11t0 -12.5t-0.5 -12.5t0.5 -11.5t2.5 -8.5v-13t0.5 -11.5t1 -11.5t0.5 -12v-5t-0.5 -8t-1.5 -7.5t-3 -3.5
q-1 -1 -3 0l-2 1v4v6v6v4q0 3 -1 6t-4 5h-3h-2h-5q-2 0 -4 -2q1 -12 -1.5 -19t-6 -11.5t-8 -6.5t-8.5 -4.5t-7 -5.5t-3 -10q0 -4 2 -7t5 -4.5t7 -2.5t7 -1h37l3 -2q-1 -3 -3 -5t-5 -3h-10h-15t-15.5 2t-13 7.5t-5.5 14.5q0 8 2.5 12.5t6 8t7.5 6.5t7.5 7t6 9t2.5 14v2t-2 1
h-22v-24q0 -2 -1.5 -2h-2.5q-3 0 -3.5 2t-0.5 4q0 4 0.5 6.5l1.5 7.5q0 2 -0.5 9t-0.5 14.5t-0.5 14.5t-0.5 10v2.5t-0.5 4.5t-0.5 4.5v2.5q-1 3 -2 7t-2 8.5t-2 8.5t-1 8q0 2 0.5 3.5t3.5 1.5q2 0 3 -1t1 -3q5 -17 6 -33.5t2 -32.5q3 -5 2.5 -8t0 -4.5t2.5 -2t10 -0.5h7
q2 0 2 2v3v2v1l-0.5 2t-1.5 3q-1 10 -2 20.5l-2 21t-2.5 21t-4.5 21.5l-0.5 2.5t-1.5 4.5t-1.5 4.5l-0.5 2.5l-0.5 1zM114 240q1 2 2.5 4t3.5 2q3 0 4.5 -1t1.5 -5v-1v-1q0 -3 -1 -11.5t-2.5 -18t-2.5 -18t-2 -11.5q0 -2 -1 -6t-2.5 -8t-3 -7.5t-2.5 -4.5q-3 -2 -6 -3.5
t-5.5 -3t-4.5 -4t-2 -5.5q0 -4 3 -5t6.5 -1t7.5 -0.5t6 -1.5q1 -2 3.5 -4t2.5 -3v-22q0 -5 -4.5 -8t-10 -4t-10 -1.5t-4.5 -1.5v-9q6 -1 12 -1t10.5 -1.5t7 -5.5t2.5 -12q0 -6 -5 -6q-4 0 -4.5 2.5t-1.5 5.5t-3.5 5.5t-9.5 2.5q-4 0 -5 -1t-1 -6q0 -6 4.5 -8.5t9.5 -5
t9 -5.5t4 -9q0 -8 -4 -11t-10 -4t-12.5 -0.5t-11.5 0.5q-3 0 -6 -1t-5.5 -2t-5.5 -2t-5 -1q0 6 1.5 8t4 3t5.5 1.5t7 3.5v4q0 5 -4 8t-8.5 5t-8 5.5t-3.5 8.5v1v3.5t1 5.5t2.5 5.5t3.5 2.5h23l0.5 2t1.5 3v2q0 3 -2.5 4t-6 1.5t-7.5 2t-7.5 4t-5.5 7.5t-2 13v5t1 6t2.5 5.5
t4.5 2.5h20q0 3 1 6t-2 4q-11 7 -18 14.5t-10 21.5q-2 5 -2.5 9t-4.5 8q0 10 -1.5 20t-1.5 20v7q1 2 2.5 2h2.5q3 0 4.5 -3t2 -6.5t0 -7t-0.5 -4.5q0 -3 1 -9t2.5 -14t3.5 -16.5t5 -15.5t6 -11.5t7 -4.5h2.5t1.5 1v17h-2h-4t-4 0.5t-3 2.5v0v1q0 2 1.5 2t4 0.5t4 2t1.5 6.5
v3q0 2 -0.5 5l-0.5 3h-16q-2 0 -2 2v2v1v1q1 0 2.5 0.5t3.5 0.5t4 0.5t3 0.5h1h1q1 0 5 -0.5l8 -1t8 -0.5h5l1.5 -1.5t0.5 -1.5q0 -3 -2.5 -3.5t-4.5 -0.5q-3 0 -5.5 -1.5t-2.5 -6.5q0 -4 1 -6t3 -3.5t4 -2.5t4 -4q-1 -1 -2.5 -1.5t-3 -0.5t-3 -0.5t-1.5 -2.5v-10
q1 0 2.5 -0.5t2.5 -0.5q3 2 5.5 6t4.5 10t3 12.5t1.5 13t1 11.5t0.5 8v4.5v7.5v6.5v4.5zM63 119l5 -4h16v10h-15zM91 123v-1q1 -2 1.5 -4.5l0.5 -2.5h17q0 5 -4.5 8t-10.5 3q-1 0 -2.5 -0.5t-1.5 -2.5zM66 103q0 -3 2 -5t4.5 -3t5.5 -1.5t6 -0.5v15h-16q-1 0 -1.5 -1
t-0.5 -1.5v-1.5v-1zM99 93q8 0 10 4t2 11h-3h-5h-4h-3l-1.5 -0.5t-1.5 -1.5v-11q0 -1 1 -1t2 -0.5t2 -0.5h1zM63 63q0 -5 2 -8t5.5 -5.5t6.5 -4.5t5 -5l1 -2.5t1.5 -4.5t1.5 -4.5t1 -3t0.5 -1l0.5 -0.5h4h4h4q3 0 4.5 0.5t3 2t1.5 4.5q0 4 -4 6.5t-8.5 6t-8.5 9t-4 14.5h-19
q-2 0 -2 -1.5v-2.5z" />
</svg>
