<?xml version="1.0" standalone="no"?>
<!DOCTYPE svg PUBLIC "-//W3C//DTD SVG 1.1//EN" "http://www.w3.org/Graphics/SVG/1.1/DTD/svg11.dtd" >
<svg xmlns="http://www.w3.org/2000/svg" xmlns:xlink="http://www.w3.org/1999/xlink" version="1.1" viewBox="-10 0 266 256">
   <path fill="currentColor"
d="M152 246q0 2 1 3.5t3 1.5t5 -3.5t5.5 -9t5 -12.5t4 -13t2.5 -11t2 -7q0 -2 1 -6.5t1.5 -8.5t1.5 -7.5l1 -3.5q0 -2 0.5 -7l1 -10l1 -10t0.5 -7t1.5 -3.5t3 -3.5t3 -3t1.5 -2h1q2 0 3 1.5t1 3.5v4v2v4v2q0 1 -0.5 3.5l-1 5l-1 5t-0.5 3.5l-2 26t-3 26q-1 6 -3 12t-2 13
v4.5t4 2.5t6 -4t3 -9.5t1 -11t1 -7.5q0 -3 1 -10l2 -14t2 -13t1 -8v-2v-2q0 -2 0.5 -3.5t1.5 -1.5q-1 -5 -0.5 -9.5t1 -8.5t1 -7.5t0.5 -8.5v-5t-0.5 -6t-2 -5t-3.5 -2t-3.5 2t-3 4.5t-3.5 5t-5 2.5t-3.5 -3t-0.5 -5q0 -3 1 -6.5t1 -6.5q0 -7 -5 -11t-10.5 -7t-10.5 -6.5
t-5 -10.5t4.5 -11.5t10.5 -6.5t12.5 -3t11.5 -2q2 -1 2 -2v-2v-3t-2 -2h-7q-6 0 -12.5 1.5t-12.5 4.5t-10.5 8t-5.5 12v1t0.5 2l1 2l0.5 1q0 9 2.5 14t6 7.5t7 4t6 4t4.5 6.5t2 13q0 1 -0.5 4t-0.5 4q-2 0 -5 -1t-5.5 -2.5l-5 -3t-3.5 -3.5q-1 0 -1.5 -1.5t-0.5 -2.5
t-0.5 -2t-2.5 -1v0.5v0.5q-1 0 -2 1.5l-1 1.5q1 18 -2 37.5t-7 37.5q-1 6 -2.5 11l-3 10t-2.5 10t-1 12q6 0 9.5 -8t6 -19.5t3.5 -25t2 -25.5t2.5 -19.5t4.5 -7.5t5.5 1.5t5 4t3.5 5.5t1 6q0 18 -3 37.5t-10 36.5q-1 3 -3.5 8.5t-4.5 10.5t-3.5 10t-1.5 8zM54 214q0 2 2 3.5
t4 1.5q16 0 32.5 -2.5t32.5 -2.5q2 -1 2 -2v-2v-3t-2 -2q-5 1 -9.5 1.5t-8.5 -0.5t-6.5 -3.5t-2.5 -8.5v-3t1 -3.5t1.5 -3t2.5 -1.5h14l1.5 -1.5t1.5 -2.5v-1v-1q0 -1 -0.5 -2l-0.5 -1h-16q-2 0 -2.5 -1t-1 -3t-1 -3.5t-0.5 -2.5v-4q0 -2 0.5 -4.5t0.5 -4.5v-2h4l27 26
l1 0.5t2 0.5q2 0 3.5 -0.5t1.5 -3.5q0 -4 -3 -7.5t-7 -6.5t-9.5 -6.5t-9.5 -7t-7 -8.5t-3 -11v-3.5v-3.5l2 -2h22q3 0 4 -3t1 -5q0 -1 0.5 -3.5t1 -5.5t0.5 -5.5v-3.5q-1 -4 -4 -6.5t-7 -4t-8 -2t-7 0.5q-3 -1 -3 -2.5v-3.5q0 -5 1.5 -7t3.5 -3t4 -2.5t4 -4.5q0 -1 0.5 -3
t1 -4.5t1 -4.5t0.5 -3q1 -1 2 -1.5l1 -0.5q1 0 3 -0.5t4.5 -0.5t4.5 -0.5t3 -0.5t1 -1v-2v-2.5t-1 -1.5h-17v-15q0 -1 -2.5 -1h-3.5q-4 0 -5 3t-1 6t-1.5 6t-6.5 3q-2 0 -6.5 -0.5t-6.5 -2.5v-4.5t-0.5 -5t-2 -4t-4.5 -1.5h-0.5h-0.5l-0.5 0.5l-0.5 0.5v14l-4 3
q-4 0 -7.5 -0.5t-6.5 0.5t-4.5 3t-1.5 7h22q1 0 2 2t1 4.5t0.5 5t1.5 3.5q2 3 4 4t3.5 2t2.5 2.5t1 5.5t-0.5 6t-6.5 2h-19q-2 0 -3.5 4t-2.5 9t-1.5 9t-0.5 5q0 7 4 9t9 2.5t10.5 0t8.5 1.5q0 1 0.5 3.5t0.5 3.5q0 6 -3.5 11t-8.5 8.5t-10.5 7t-8.5 7.5q-1 0 -2 1.5t-3 3
t-3.5 3t-1.5 2.5q-2 1 -3.5 2t-2.5 1.5t-1.5 2t-0.5 4.5v3.5t3 2.5l23 -21q2 -1 4 -3t3.5 -4t3.5 -3.5t5 -1.5q2 0 3.5 1.5t2 4t0.5 4.5v4v3v3q-1 3 -5 3h-8.5t-7.5 1t-3 5q0 3 2.5 3h3.5q4 0 7 -0.5t8 -1.5l3 3v19l-1 0.5t-2 0.5q-3 1 -6.5 1.5t-7.5 1t-7.5 1t-5.5 0.5
q-4 2 -4 5zM51 141q0 2 2 2.5t3 0.5q3 0 6.5 -1t6.5 -3t5 -5t2 -7h-5q-1 0 -3 1t-4.5 2.5l-5 3t-3.5 2.5q-1 0 -2 1.5t-2 1.5v0.5v0.5zM111 129q0 3 1.5 5.5t4 4.5t5.5 3.5t5 1.5q3 0 4.5 -1t1.5 -4v-1v-1q-4 -4 -9 -7t-11 -3h-1l-0.5 0.5l-0.5 0.5v1zM69 100q0 -8 3 -11
t11 -3q4 0 5.5 2t1.5 6t-0.5 7t-1.5 7h-6h-4.5t-4.5 -1t-3 -2.5t-1 -4.5zM98 98q0 -4 1.5 -8t5.5 -4q6 0 10 2t4 9q0 3 -1.5 5t-3.5 3t-5 1.5t-5 0.5h-5q-1 -2 -1 -4v-5zM85 48q0 -3 1.5 -5t4.5 -3.5t6 -1.5h5h1l1 1.5t2 1.5v1q0 2 -1 5t-2 4l-1.5 1.5l-0.5 0.5h-13
q-2 0 -2.5 -1.5t-0.5 -3.5z" />
</svg>
