<?xml version="1.0" standalone="no"?>
<!DOCTYPE svg PUBLIC "-//W3C//DTD SVG 1.1//EN" "http://www.w3.org/Graphics/SVG/1.1/DTD/svg11.dtd" >
<svg xmlns="http://www.w3.org/2000/svg" xmlns:xlink="http://www.w3.org/1999/xlink" version="1.1" viewBox="-10 0 266 256">
   <path fill="currentColor"
d="M160 246q0 2 0.5 3.5t2.5 1.5q3 0 5 -3.5t4 -9t2.5 -12.5t1.5 -13.5t1 -11.5v-7q1 -3 1.5 -9t1 -13t0.5 -12.5t1 -7.5v-1.5t0.5 -2.5t0.5 -2.5v-1.5v-1v-1v-1.5t-0.5 -3t-0.5 -3v-1.5q0 -5 1 -7.5t6 -2.5q3 0 5.5 1t3.5 4v12q0 20 -1 39t-1 38v10l3 1q3 -3 4.5 -7.5
t2.5 -9.5q-1 -31 1 -62t2 -62q0 -5 -2.5 -7t-7.5 -2q0 9 0.5 18t1.5 18q-2 2 -4 2.5t-4 0.5q-6 0 -8 -3.5t-2 -8.5v-5q0 -1 0.5 -2.5t0.5 -3.5t0.5 -3.5t0.5 -2.5l-0.5 -3t-1.5 -5q0 -1 -1 -3t-1.5 -4.5t-1 -4t-1.5 -2.5q-1 -3 -4.5 -4l-7 -2t-6 -2.5t-2.5 -4.5q0 -7 7 -9
q1 -1 4.5 -2t6.5 -2t5.5 -1.5t3.5 -0.5q1 -1 3.5 -1t5 -0.5t5 -0.5h3.5q2 0 2 -1v-2q0 -4 -3.5 -4.5t-5.5 -0.5q-5 0 -10 1t-9.5 2.5l-9 3t-8.5 3.5q-3 1 -4 5t-1 7q0 9 3 13t7 6t7.5 3t3.5 4l3 33l-0.5 2t-1.5 3l-0.5 1l-0.5 1h-15q0 -4 0.5 -9.5t0.5 -11t-2 -9.5t-8 -4
q0 10 1.5 19.5t1.5 20.5v5q-1 7 -1 16.5t-0.5 19l-1 19t-1.5 16.5q-1 2 -2 5t-2 5.5l-2 5t-1 4.5t0.5 4t2.5 2t3.5 -1t3.5 -2q2 -18 3 -36.5t3 -35.5q0 -1 0.5 -4.5t0.5 -7t0.5 -6.5t0.5 -4q0 -3 2.5 -3.5t4.5 -0.5h1h2.5t2.5 0.5t1 1.5v3.5v5.5v5v3q0 20 -2 39.5t-4 39.5
q-1 6 -4 12t-3 13zM84 245q0 2 1 3t3 1t3.5 -1t2.5 -2q0 -7 1 -12.5t1.5 -11l1 -11t0.5 -11.5q0 -2 0.5 -6.5t1 -10t0.5 -10.5v-7q1 0 2.5 -2t3 -3.5t3.5 -3t2.5 -2t1.5 -1l1 -0.5q1 0 1.5 0.5l0.5 0.5v3v4.5v5.5v2v11v8.5t-0.5 9t-1.5 11.5q0 2 1 2.5t3 0.5q3 0 5 -3.5
t2 -7.5v0v-2t-0.5 -2.5t-0.5 -2.5v-1v-1v-1v-3t0.5 -4.5t0.5 -4.5v-2v-5v-7t-0.5 -7.5t-0.5 -4.5t-0.5 -2.5t-1.5 -3.5t-2 -3t-2 -1t-2 0.5l-2 1l-2 1l-1 0.5q-1 1 -4 2t-4 1l-0.5 -1t-0.5 -2l-0.5 -2t-0.5 -4t-0.5 -4t-0.5 -3v-5t-0.5 -8l-1 -8t-0.5 -5q-2 -3 -2.5 -5.5
t-0.5 -5.5v-4h6h8t8 -0.5t5 -0.5q4 -1 7 -5t4 -8v-1q0 -2 -1 -5t-3 -6t-4 -5.5t-4 -2.5h-21q-1 0 -1.5 -2t-0.5 -3q0 -5 3.5 -7t8 -3.5t8 -3t3.5 -6.5q0 -4 -3 -8.5t-7 -5.5q-1 0 -5 -0.5t-8.5 -1t-8 -1t-5.5 -0.5q-1 0 -3 -1t-4.5 -2.5t-5 -2t-3.5 -0.5q-2 0 -2.5 0.5
t-0.5 2.5q0 1 1.5 3t3.5 3.5l4 3t3 1.5v5l-2 0.5t-4 1.5l-4 2t-3 2q-2 1 -4 1.5t-3.5 1t-2.5 2t-1 3.5q0 1 0.5 2t1.5 1q7 0 12 -3t10 -7.5t10.5 -7.5t11.5 -3h4.5h4.5q2 1 2 3v3q0 3 -1 4.5t-3 2.5t-4.5 2t-6.5 3q-2 1 -2.5 3.5l-1 5t-1.5 4.5t-2 3q-7 1 -12 1.5t-9 2
t-6 5.5t-2 12v4.5v4.5q3 3 6.5 4t7.5 1h8.5h7.5q-2 6 -9 12l-14 12t-12.5 11t-5.5 9q6 0 10.5 -3t10.5 -5l15 -15q0 -1 1.5 -1h1.5q4 0 4.5 3t0.5 6q0 6 -5.5 11.5t-12.5 11t-12.5 10.5t-5.5 8q0 2 0.5 3.5t2.5 1.5q1 0 2 -0.5l3 -1.5l26 -27h4l0.5 2.5t0.5 5v4.5v3v4v3
q-2 4 -5 5.5t-6 5.5l-30 32q-1 1 -1 2.5v3.5v2.5t2 1.5q4 0 9 -5t10 -11t9.5 -12t6.5 -9l2 2v2v2v8v8.5t-0.5 8t-1.5 6.5q0 7 -3 14t-3 15zM65 80q0 -3 2 -5.5t5.5 -4t6.5 -2t5 -0.5h3t2 1v16q0 1 -0.5 1.5l-0.5 0.5q-1 0 -4 0.5t-4 0.5h-1q-5 0 -8 -1.5t-6 -6.5v0v0zM97 69
l3 -3h16q2 0 3 1t1.5 2.5t0.5 3.5v2q0 4 -1.5 6.5t-4 3.5t-6 1.5t-7.5 0.5q-1 0 -3 -0.5t-2 -2.5v-15z" />
</svg>
