<?xml version="1.0" standalone="no"?>
<!DOCTYPE svg PUBLIC "-//W3C//DTD SVG 1.1//EN" "http://www.w3.org/Graphics/SVG/1.1/DTD/svg11.dtd" >
<svg xmlns="http://www.w3.org/2000/svg" xmlns:xlink="http://www.w3.org/1999/xlink" version="1.1" viewBox="-10 0 266 256">
   <path fill="currentColor"
d="M152 248q0 2 1 2.5t3 0.5q3 0 6.5 -7.5t5.5 -17.5t3.5 -20t1.5 -13q0 -2 0.5 -7t1 -10.5t1 -10.5t0.5 -6t0.5 -4t1.5 -4h4h4t2 3q0 18 -1.5 36t-1.5 36q-3 4 -3.5 9.5t-0.5 9.5q6 0 9 -4.5t4.5 -11t1.5 -13.5v-11v-3v-4v-4v-3l8 -75v-4q0 -4 -2 -5.5t-6 -1.5h-1h-2
q-1 9 -1.5 18t-0.5 17q-1 2 -2.5 2h-3.5h-3t-3 -2v-5v-5q0 -1 0.5 -4t0.5 -7t0.5 -7t0.5 -4q0 -4 -2 -7.5t-5 -6.5t-6.5 -5.5t-6.5 -4.5l-1 -0.5t-1 -1.5v-3v-3q0 -6 3 -9.5t7.5 -6t10 -3t10.5 -1.5q1 0 1.5 -1t0.5 -2q0 -2 -0.5 -3t-1.5 -1q-1 -1 -3 -1h-3h-3.5t-2.5 1
q-2 0 -4.5 1t-5.5 2t-6 2.5t-4 1.5q-4 5 -6 9t-2 11q0 6 3 10t6.5 7t6 5t2.5 6v38q0 1 -1 1.5l-1 0.5h-3t-4 -0.5t-3 -1t-1 -2.5v-29q0 -2 -2 -4.5t-5 -2.5q-1 0 -2 0.5t0 2.5q0 12 0.5 25.5t-0.5 27t-3 26.5t-7 25q0 1 -1 3.5t-2 5.5l-2 6t-1 6q0 4 4 4t7 -6.5t4.5 -16
t2.5 -21t2.5 -21t2.5 -15.5t3 -6h11l0.5 1.5t0.5 2.5q1 0 1 1v1v1h-1l-9 66l-1 4t-2.5 8t-2.5 8t-1 5zM68 200v35q0 4 1 6t4 2h2.5t2.5 -1v-32q0 -1 2 -1.5t3 -0.5h2h4h4h2q2 0 6 -0.5t9 -0.5t9.5 -0.5t6.5 -0.5l1 -3v0v-1q0 -1 -0.5 -2l-0.5 -1q-1 0 -2.5 -0.5t-2.5 -0.5
q-3 0 -6 1t-6 1q-4 0 -5.5 -3t-1.5 -5q0 -4 3 -5.5t6.5 -2.5t7.5 -1h5v-5h-20l-0.5 -1l-0.5 -1v-5q0 -4 2 -6t5 -2.5t7 -0.5h7v-1v-1q0 -3 -1 -3.5t-3 -0.5h-2h-2t-4 0.5t-4 0.5h-2h-1h-1l-0.5 -0.5l-0.5 -0.5v-11q0 -1 1 -1.5t2 -0.5h1q1 1 3 2t5 2t5 1.5t3 1.5h0.5h0.5
q2 0 4.5 -0.5t2.5 -2.5q0 -4 -4 -5.5t-9 -3t-8.5 -3t-3.5 -3.5v-1l1 -2t2 -2q0 -1 0.5 -1.5l0.5 -0.5q1 0 3 -1.5t5 -2.5t5 -2t3 -1v-2v-1q0 -3 -4 -5t-8.5 -4t-9 -5t-4.5 -6v-15v-10q0 -6 1 -12t4 -10.5t8 -4.5q2 0 6 -0.5t8.5 -0.5t8.5 -0.5t5 -0.5t1.5 -1t0.5 -2
q0 -3 -1.5 -3t-5.5 -2v0q-5 0 -9 1t-8 1q0 -3 0.5 -5t2 -3.5t2 -2.5t0.5 -3q0 -3 -2 -4.5t-5 -1.5t-5.5 4.5t-5 10.5t-5.5 12t-6 8q-1 -2 -3 -8t-4 -12.5t-5 -11.5t-8 -5q-2 0 -3.5 0.5t-1.5 2.5q0 3 1 5t2.5 3.5t2.5 3.5t1 5v1.5t-2 1.5h-18q-2 0 -3.5 2t-1.5 4t3 3t5 1
t3.5 -0.5t2.5 -1.5h17l1.5 2.5t1.5 3.5v1v1l-1 1l-2 2l-2 2l-1 1l-0.5 1.5t-0.5 3t-0.5 3l-0.5 1.5q0 2 -2.5 2h-3.5q-4 0 -5 -2t-2 -4.5t-2.5 -4.5t-4.5 -2h-1l-0.5 0.5l-1.5 1.5v10v6.5t0.5 9.5t2.5 8.5t6 3.5q11 0 15.5 -2.5t6.5 -7t2.5 -11t2.5 -14.5v4v4t0.5 4t1.5 3
v22l-0.5 0.5l-0.5 0.5q-2 2 -6.5 4.5t-8.5 5.5t-7.5 6t-3.5 5t3.5 3.5t7.5 2.5t7.5 2.5t3.5 4.5q0 2 -1.5 4t-3.5 4t-3.5 4t-2.5 3q-4 8 -5.5 17t-2.5 18q0 4 0.5 9t-1.5 8zM93 186q2 0 2 3v4v2v2t-1 2t-2 1h-14q0 -8 3 -11t12 -3zM78 176q0 -1 0.5 -3t1.5 -3q0 -1 0.5 -2.5
l0.5 -1.5h14v11l-2 0.5t-4.5 1t-4.5 0.5h-1q-2 0 -3 -0.5t-2 -2.5zM93 142v0q1 0 1.5 0.5l0.5 0.5v14h-11q0 -1 0.5 -3.5t2 -5t3 -4.5t3.5 -2zM83 118v0q4 -5 7 -8t9 -3q1 0 3 0.5l4 1t3.5 2t1.5 3.5t-2 3t-4 1t-2.5 -0.5t-0.5 -1.5t-0.5 -2t-1.5 -1q-2 -1 -4 0l-2 1v12h-1
t-1.5 -0.5t-2 -1t-3 -1.5t-2.5 -2t-1 -3zM107 81q0 7 4.5 9t10.5 2q1 0 3.5 -0.5t3.5 -0.5q2 -1 3.5 -4t2 -6.5t0.5 -7.5v-6v-9q0 -1 -1.5 -2l-1.5 -1q-2 -1 -3 0.5t-2 4t-1 4.5v3h-3h-2q-5 0 -6 -1.5t-1 -4t-0.5 -4t-3.5 -1.5v0h-1q-1 7 -1.5 12.5t-0.5 12.5zM63 78
q1 -1 2.5 -1.5t3.5 -1t4 -0.5h3q2 0 3 2t1 3q0 4 -3 5.5t-5 1.5q-5 0 -7.5 -1.5t-1.5 -7.5zM113 79q0 -6 7 -6q2 0 4 0.5t2 3.5q0 4 -1.5 6t-6.5 2q-2 0 -3.5 -2t-1.5 -4z" />
</svg>
