<?xml version="1.0" standalone="no"?>
<!DOCTYPE svg PUBLIC "-//W3C//DTD SVG 1.1//EN" "http://www.w3.org/Graphics/SVG/1.1/DTD/svg11.dtd" >
<svg xmlns="http://www.w3.org/2000/svg" xmlns:xlink="http://www.w3.org/1999/xlink" version="1.1" viewBox="-10 0 266 256">
   <path fill="currentColor"
d="M118 239v4t0.5 3.5t1.5 3t3 1.5q5 0 6.5 -3t1.5 -8v-4.5t-1 -5.5v-31q0 -4 3 -7t8.5 -5.5t12 -4.5t13 -4.5t11.5 -5.5t8 -7q4 -6 6.5 -13.5t4 -15t2 -15.5t0.5 -15v-1l-0.5 -3.5t-0.5 -7t-0.5 -6.5l-0.5 -3q0 -11 -1 -19.5t-4.5 -15t-10.5 -10t-19 -4.5q-2 0 -6.5 -0.5
t-9.5 -0.5h-10h-6l-3 -2v-9l-1 -2.5l-1 -2.5q0 -1 0.5 -2.5l1 -3l1 -3t0.5 -2.5q1 -3 -1 -3h-3q-2 0 -5 0.5t-3 3.5t1 7t1 7q0 5 -3.5 7.5t-8.5 4t-11.5 2t-12 1.5t-10.5 3.5t-7 7.5q-3 8 -4.5 16.5t-2 17t-0.5 17.5v17q0 4 -0.5 12.5t0.5 16.5t2.5 15t5.5 10q3 2 7 3t7 3
q6 4 13 6t15 2q3 0 5 -1.5t2 -4.5v-2v-1q-6 -1 -13.5 -2.5t-14.5 -4t-12 -7t-6 -11.5q-1 -22 -1 -43v-13.5t1 -17.5t3 -17t5 -11q1 -1 7.5 -3t13.5 -3.5t13.5 -2.5t7.5 -1t2.5 0.5t2.5 1.5l51 5q4 1 6 4.5t3 8t1.5 9.5t1.5 8v4.5v6.5v7v5v22t-3 22q-2 3 -3.5 5.5t-2.5 5.5
t-3 5.5t-4 4.5q-4 2 -11.5 5t-15.5 6t-14 6t-8 6q-2 5 -1.5 10t0.5 10l-2 16t-1 16zM96 155q1 0 4.5 1t7 1.5l7 1t4.5 1.5h7q7 0 13 -0.5t14 -1.5q4 0 7 -5t4.5 -11t2.5 -12t1 -9v-2.5t0.5 -6t0.5 -7v-6.5v0v-1v-3t-0.5 -5t-0.5 -5.5v-2.5v-3.5v-4.5t-1.5 -4t-3.5 -2h-1
l-3 2q0 2 -0.5 7t-0.5 10.5t-0.5 10.5t-0.5 7q0 4 0.5 8.5t0.5 9.5q0 4 -1 9t-2 8q-3 0 -5 -2t-3 -5q0 -1 -1.5 -4t-2.5 -7t-2.5 -7t-2.5 -4l-1 -1.5t-2 -3.5t-1.5 -3.5l-0.5 -1.5l-0.5 -1.5t-0.5 -2.5q0 -4 2.5 -6.5t3.5 -5.5t2.5 -7t3 -7.5t2.5 -7.5t1 -7q0 -2 -1 -2h-2
h-1h-2q0 1 -1 3l-2 4t-1.5 4.5t-1.5 2.5q0 1 -0.5 4t-0.5 4t-1 3l-2 4t-2 3.5l-1 1.5h-4l-2 -3t-3 -5t-2.5 -7t-3.5 -9.5t-4.5 -8t-6.5 -3.5h-1.5t-1.5 2l0.5 1.5t0.5 2.5l3.5 7l5.5 11t5.5 10.5t3.5 7.5q1 2 1 3.5v3.5v3l-6 8t-5.5 8.5t-5 8.5t-5.5 9h-1q-2 0 -3.5 -3
t-2 -6t-0.5 -6.5v-4.5v-44l-1 -1l-2 -2h-1q-3 0 -4 2.5t-1 4.5v4q0 3 0.5 9.5t0.5 13t0.5 11.5l0.5 5q0 4 0.5 9t2 10.5t3.5 9.5t7 5zM100 147v-1.5v-0.5l1 -1l2 -2l2 -2l1 -1q0 -1 1.5 -2.5t3 -3.5t2.5 -4t2 -3q0 -1 1.5 -3.5t3 -5.5t3 -5.5t3.5 -2.5q1 0 4 5.5t6.5 12
l7 13t6.5 8.5l-4 4h-3h-5h-3h-4h-4h-2h-2t-4.5 -0.5t-4.5 -0.5h-2q-1 0 -3 -0.5l-4 -1t-3.5 -1t-1.5 -1.5z" />
</svg>
