<?xml version="1.0" standalone="no"?>
<!DOCTYPE svg PUBLIC "-//W3C//DTD SVG 1.1//EN" "http://www.w3.org/Graphics/SVG/1.1/DTD/svg11.dtd" >
<svg xmlns="http://www.w3.org/2000/svg" xmlns:xlink="http://www.w3.org/1999/xlink" version="1.1" viewBox="-10 0 266 256">
   <path fill="currentColor"
d="M116 246q-1 4 0.5 4.5t3.5 0.5q6 0 8.5 -4.5t2.5 -9.5q0 -1 0.5 -4.5t0.5 -7t0.5 -7t0.5 -5.5q1 -5 6.5 -6.5t12 -2.5t14 -3t14 -8t11.5 -17t6 -30v-5.5v-8.5t0.5 -11t0.5 -11v-9v-5l0.5 -1.5t0.5 -3.5t0.5 -3.5l0.5 -1.5v-2.5v-2.5q0 -8 -1.5 -16t-3.5 -15q-3 -5 -8 -7
t-10.5 -4t-11.5 -2.5t-11 -0.5q-3 0 -8 -0.5t-8 -0.5h-4l-3 -3v-17l-2 -3h-1.5h-1.5h-3h-3l-0.5 0.5t-0.5 1.5v19l-3 2q-8 0 -17 0.5t-17.5 2.5t-14.5 7t-8 15q-1 9 -1 18t-2 18v54q2 6 3 11t2 10.5t3 10.5t6 10q1 1 3.5 2.5t5.5 3t5.5 3t3.5 2.5q2 1 4 2.5t3 1.5h4.5
t4 -0.5t3 -2t1.5 -3.5t-3 -3l-4.5 -1.5t-4.5 -2t-5.5 -2.5t-4.5 -2t-3 -1q-7 -5 -11 -12.5t-5.5 -16.5t-1.5 -18v-16v-13q0 -3 1 -10t1.5 -15t1 -15t1.5 -10q1 -9 7.5 -13t15.5 -5l4 -0.5t9.5 -1t10.5 -1.5t8 -1h1v0q1 0 3 0.5l2 0.5q1 1 4 1.5t4 0.5h9t11 0.5t11 1t8 2.5
t4.5 4t2.5 4.5l2 5t2 4.5v18v33q0 16 -2 32q0 6 -2.5 13t-4.5 14l-0.5 3.5t-1.5 3.5q-2 4 -6.5 6t-10 4t-11.5 3t-11 2.5t-8.5 2.5t-4.5 3zM116 183v2.5t3 2.5q2 0 3.5 -2.5t2.5 -6.5t1.5 -9t1 -9.5t0.5 -8.5v-5q0 -2 0.5 -7t0.5 -10v-10v-7q1 -2 2.5 -2h2.5q6 0 12 1t12 1
h3h3.5h3.5h3q2 -1 4 -2.5t2 -3.5t-3 -2h-2q-4 0 -6.5 1t-6.5 1h-1q-1 0 -4.5 -0.5t-7.5 -0.5t-7.5 -0.5t-4.5 -0.5q-4 -1 -5 -4t-1 -7q0 -11 1 -21.5t1 -21.5q-6 0 -8.5 3.5t-3 8.5t0 10.5t0.5 9.5t0.5 8t0.5 7q0 2 -0.5 4.5t-2.5 2.5h-38q-2 0 -4 1t-2 4q0 1 0.5 2t1.5 1
q8 0 16 -1t16 -1h9q3 1 3.5 2t0.5 4q0 16 -2 32.5t-2 33.5zM104 122q-3 0 -5.5 3.5t-5 9t-5 12.5t-4.5 13t-3 11.5t-1 7.5h4t3 -2q2 -3 4.5 -10.5l5.5 -16.5t5 -17t2 -11zM142 128q0 3 1.5 11.5t4 17t5 15.5t4.5 7t4 -1.5t2 -3.5q0 -1 -1 -5.5t-3 -10t-4 -12t-4 -12
t-3.5 -9.5l-1.5 -4q-3 0 -3.5 2.5t-0.5 4.5zM91 63q0 4 1 9t2.5 10.5t4.5 10t6 6.5q3 -2 4 -3t1 -3q0 -1 -2 -7t-4.5 -12.5t-5 -11.5t-4.5 -5q-3 0 -3 2v4zM140 93v2t2 1q1 0 5 -4.5t8 -9.5t7 -10t3 -7t-1.5 -3.5t-3.5 -1.5t-5 4.5t-6.5 10t-6 10.5t-2.5 8z" />
</svg>
