<?xml version="1.0" standalone="no"?>
<!DOCTYPE svg PUBLIC "-//W3C//DTD SVG 1.1//EN" "http://www.w3.org/Graphics/SVG/1.1/DTD/svg11.dtd" >
<svg xmlns="http://www.w3.org/2000/svg" xmlns:xlink="http://www.w3.org/1999/xlink" version="1.1" viewBox="-10 0 266 256">
   <path fill="currentColor"
d="M125 248q1 2 2 2h3q5 0 7 -5t2.5 -11t0.5 -12.5v-10.5q2 -2 4.5 -3.5t5.5 -2.5q14 -5 23.5 -7.5t15 -6.5t8 -12.5t2.5 -26.5v-6v-11.5v-13.5v-11v-8v-13v-13v-8q-2 -6 -3 -10t-3 -6.5t-5.5 -3.5t-9.5 -2h-11h-12.5t-12 -0.5t-9.5 -2.5v-4.5v-4.5q0 -4 1 -8t1 -8
q0 -3 -1.5 -4.5t-3.5 -1.5h-3t-3.5 1t-2.5 2t-1 2q0 3 1 6t1 7q0 1 0.5 3.5t0 4.5l-1 4t-2.5 2q-4 1 -12 1.5t-16.5 2.5t-15.5 5t-9 9q-4 16 -6 31.5t-2 32.5q0 15 1.5 30t5.5 30q2 4 7.5 7t13 5.5t14.5 3.5t11 1q3 0 5.5 -1.5t2.5 -4.5v-2v-1q-7 0 -15 -1t-14.5 -4
t-11 -7.5t-5.5 -12.5q0 -2 -0.5 -7.5t-1 -11.5t-1 -11t-0.5 -7v-10q0 -12 1 -25.5t2 -25.5q0 -4 2 -6t5 -3.5t6 -2.5l6 -2q8 -3 17 -4.5t17 -1.5q14 0 28.5 0.5t28.5 2.5q1 1 2 5.5t2 10.5t1.5 13t1 13t1 11t0.5 8q0 4 -1 7.5t-3 7.5q1 4 1 10v12.5t-1 12.5t-3 10
q-3 8 -8.5 11.5t-12 5t-13.5 2.5t-12.5 5.5t-9 13.5t-3.5 26v9zM105 174q1 2 4 2.5t6.5 0.5h6h3.5t3.5 0.5t5 0.5h5h3.5q7 0 10 -4.5t4 -10.5q0 -2 0.5 -6.5t0.5 -10t0.5 -10t0.5 -6.5v-1v0q-1 -5 -6 -5q-4 0 -4.5 2.5t-0.5 6.5v6t-2 3q-4 1 -6.5 1.5t-5 0.5h-5.5h-6h-8
q-1 -2 -1.5 -5t-1 -5.5t-1.5 -4.5t-5 -2q-2 0 -2.5 2t-0.5 4q0 5 1 10t1.5 10t1 10.5t-0.5 10.5zM113 158q0 -2 0.5 -3.5t3.5 -2.5q6 -1 11 -1.5t10 -0.5q2 0 4.5 0.5t2.5 2.5v16h-26q-2 0 -3 -1.5t-1.5 -3t-1 -3.5t-0.5 -3zM79 126q0 2 0.5 3t2.5 1q3 0 6.5 -4t7 -9
t6.5 -10.5t5 -7.5q1 0 2.5 -2t3.5 -4l3.5 -3.5t2.5 -1.5l1 -2.5t2.5 -5t3.5 -4.5t4 -2t5.5 3t7.5 8.5t8.5 11l9 11t8.5 8.5t6 3t3 -1.5t1 -2.5q0 -3 -4 -8t-9.5 -10.5t-10.5 -10t-7 -6.5q-1 -1 -2.5 -3l-3 -4t-3 -3.5l-1.5 -1.5v-2l-1 -0.5t-2.5 -1.5l-3 -2t-2.5 -2h-1
q-2 0 -5 3.5t-6.5 8.5t-8 11t-8 11.5t-6.5 10.5t-5 6q0 1 -1.5 3l-3 4t-3 3.5t-1.5 2.5q-1 0 -1 1v1zM114 107q-2 1 -3 2.5t-1 4.5h9t11 -0.5t11.5 -1t10.5 -1.5l1 -1v-1v-1l-0.5 -0.5l-0.5 -0.5l-10.5 -1.5t-8.5 -0.5q-6 0 -9.5 0.5t-9.5 1.5z" />
</svg>
