<?xml version="1.0" standalone="no"?>
<!DOCTYPE svg PUBLIC "-//W3C//DTD SVG 1.1//EN" "http://www.w3.org/Graphics/SVG/1.1/DTD/svg11.dtd" >
<svg xmlns="http://www.w3.org/2000/svg" xmlns:xlink="http://www.w3.org/1999/xlink" version="1.1" viewBox="-10 0 266 256">
   <path fill="currentColor"
d="M126 242q0 4 0.5 6.5t4.5 2.5q5 0 7.5 -3t3 -7.5t0.5 -10.5q0 -5 1 -10.5t3.5 -9.5t8.5 -6h1h3h3h2q14 -3 22.5 -10t13 -16.5t6 -21.5t1.5 -25q0 -5 -1 -10t-1 -10q0 -2 0.5 -4.5t0.5 -4.5v-3v-8t-0.5 -12t-0.5 -12v-8q-1 -9 -6.5 -14t-13.5 -8t-17 -3.5t-16.5 -1
t-12.5 -1t-5 -3.5v-1l1 -1t2 -2.5t1.5 -2.5l0.5 -1q1 -4 -2 -6t-6 -2h-4t-3 3v14q0 1 -1 1.5l-1 0.5q-1 0 -4 0.5t-4 0.5l-27 3q-1 2 -3.5 2.5l-5 1t-4.5 1t-4 2.5q-7 5 -10 14.5t-4.5 20.5t-1 22t0.5 19v7q0 3 1 7v6.5v10.5v9.5v6.5l1 3t1.5 7t2 8t1.5 7q1 3 3.5 5t5.5 3.5
t6 2t6 1.5q6 3 12 5t14 2q1 0 4 -0.5t4 -0.5q2 0 2 -1v-2q0 -2 -1.5 -3t-3.5 -1.5t-4 0t-4 0.5q-2 -1 -5.5 -2l-7 -2t-7 -2.5t-5.5 -3.5q-4 -2 -6.5 -7t-4 -12.5t-2.5 -15t-1.5 -15.5t-1 -14t-0.5 -10q0 -16 1.5 -31t5.5 -30q0 -4 1.5 -5.5t3.5 -2.5t4.5 -2t5.5 -1
q6 -2 11.5 -3t10 -2t9.5 -2t12 -1h1q4 0 7 1.5t6 1.5q7 1 15 1q9 0 16.5 1.5t13 6.5t5.5 14q0 1 -0.5 2t-0.5 2.5v2.5v1l-0.5 2l-0.5 2q0 5 2 9t2 8q0 7 -1 14t-1 15q0 4 1 7.5t1 8.5q0 7 -1 15.5t-4 16t-8 14t-13 8.5q-1 1 -3.5 1.5t-6 2t-6.5 2t-4 1.5q-1 0 -3.5 1l-5 2
t-4.5 2t-3 2q-4 8 -6 18.5t-2 18.5zM130 159l-0.5 3t-0.5 6t-0.5 5.5t-0.5 3.5v2.5v3.5v3v3q5 0 8 -4.5t3 -9.5v-2q0 -1 -0.5 -4.5l-1 -7t-1 -6.5t-0.5 -4v-1q0 -2 2 -3.5t5 -2t6 -0.5h5h3t2 2q0 1 0.5 4t0.5 6.5t0.5 6t0.5 3.5q1 5 2.5 7.5t5.5 2.5q3 0 4 -0.5t1 -3.5
q0 -6 -1.5 -14t-5.5 -14v-5.5t-0.5 -9.5t-0.5 -9.5v-6.5v-4v-8v-8v-5q-1 -3 -1 -4.5t-3 -1.5t-3.5 1.5t-0.5 3.5t-0.5 4t-2.5 2h-19l-2 -16l0.5 -0.5t1.5 -0.5l1.5 -0.5t3 -0.5t3 -0.5l1.5 -0.5q1 0 4 -0.5t6 -1.5t5.5 -1.5t3.5 -0.5q3 -3 3 -7q0 -3 -1 -6t-3 -4
q-1 -1 -3 -1h-2v11q0 1 -1 1.5t-2 0.5h-7q-6 0 -9 -2t-4 -4.5t-1.5 -4.5t-2.5 -2q-4 0 -4.5 2.5t-0.5 5.5t-1 5.5t-5 2.5q-9 0 -13.5 -2.5t-6.5 -5.5t-3.5 -5.5t-5.5 -2.5q-2 0 -2 1.5v2.5q0 5 1.5 10t6.5 7q6 -1 14.5 -0.5t15.5 1.5q-1 10 0 18t1 17v4q-3 2 -7.5 2h-7.5
h-3.5h-3.5l-1 -2v-22l-1.5 -1.5t-2.5 -1.5l-2 0.5t-2 1.5v5v4v4.5t0.5 7t1 6.5t0.5 4q0 15 -3.5 28.5t-6.5 27.5v1q0 2 1.5 2.5t2.5 0.5h1h1q5 -3 6.5 -7t1.5 -7.5v-7.5t1 -6.5t5 -4.5t12 -2h3h3q1 2 2 6.5t1 6.5zM106 121h21q2 0 2.5 3.5t0.5 4.5v1q0 1 -0.5 4.5t-1.5 3.5
q-4 1 -7 1.5t-8 0.5h-1h-3t-2 -1t-1 -2v-16zM137 131v-3t0.5 -4t1 -3.5t2.5 -1.5h17v16q0 2 -1.5 2.5t-3.5 1t-4 0.5h-2q-1 0 -3.5 -0.5l-2.5 -0.5q-3 -1 -3.5 -3t-0.5 -4zM136 112q0 -1 -0.5 -3.5t-1.5 -2.5v-2q0 -2 3 -3.5t6.5 -2l7 -1t4.5 0.5q2 0 2.5 1.5t0.5 2.5
q0 4 -0.5 8t-4.5 4q-1 0 -2 -0.5l-1 -0.5h-3t-4 -0.5t-4 -0.5h-3z" />
</svg>
