<?xml version="1.0" standalone="no"?>
<!DOCTYPE svg PUBLIC "-//W3C//DTD SVG 1.1//EN" "http://www.w3.org/Graphics/SVG/1.1/DTD/svg11.dtd" >
<svg xmlns="http://www.w3.org/2000/svg" xmlns:xlink="http://www.w3.org/1999/xlink" version="1.1" viewBox="-10 0 266 256">
   <path fill="currentColor"
d="M100 244q1 2 2.5 2.5t3.5 0.5q3 0 4.5 -1.5t2 -4.5t0.5 -6v-5q0 -5 -0.5 -10t-0.5 -10q0 -15 1 -29.5t1 -30.5v-9l1 -84v-6t-0.5 -6.5t-2 -6.5t-4.5 -5q-8 -3 -15 -3h-15h-4h-4h-4h-3q-4 1 -6.5 3t-2.5 5t2 4.5t4 1.5q3 0 6 -2t6 -2q1 0 3 0.5t1 3.5v4.5v5.5q0 4 0.5 10
t0.5 12q0 5 -1 10.5t-3 9.5l-6 52v6l-1 39q-4 10 -4.5 21t-0.5 22v3.5t2 2.5q4 0 6.5 -4t4 -10.5t2.5 -14t1 -14.5t0.5 -12.5t0.5 -8.5v-4v-7v-6v-4q2 -3 2.5 -10t0.5 -16q0 -8 0.5 -16t1.5 -13l0.5 -2t0.5 -3q2 -12 2.5 -25t-0.5 -25q1 -2 2.5 -4.5t4.5 -2.5q7 0 9.5 3.5
t2.5 10.5l-0.5 3t-0.5 6.5t-0.5 6.5t-0.5 4v11q0 14 1 27t1 27v1q0 6 -0.5 15.5t-1.5 19t-1 16.5v7q0 1 -0.5 2.5l-1 3t-0.5 3v1.5q0 1 1 4l1 3v4q0 5 -1 9t-1 9v3.5v3.5zM149 240q-1 3 1 3.5t3 0.5h2.5t1.5 -2q1 -7 1.5 -12t0.5 -11t-1 -12.5l-2 -13l-2 -13t-1 -12.5
l0.5 -3t0.5 -4v-2q0 -22 -1.5 -44t-1.5 -45v-4v-5.5v-6.5v-4q2 -6 5.5 -9t11.5 -3q1 0 2.5 1.5t2.5 3t1 3.5v4q0 4 -0.5 7.5t-0.5 7.5q0 2 0.5 10t2 20t3 27t3 30.5t3.5 29.5t3.5 25.5t2.5 18t2 6.5l10 -2l0.5 -1.5t0.5 -2.5q0 -5 -1.5 -10.5l-3 -11l-3 -11t-1.5 -10.5
q-2 -14 -2.5 -27t-4.5 -27l-0.5 -3t-1.5 -3q1 -9 0.5 -18t-1.5 -18t-1.5 -17.5t-0.5 -17.5v-5t1 -6t2.5 -5t4.5 -3q1 0 2.5 1l1.5 1h0.5h1.5l1.5 -0.5t2.5 -1.5t2 -2.5t0 -1.5q-1 -5 -3 -5.5t-5 -0.5q-5 0 -13 1.5t-16.5 4.5t-14.5 7.5t-7 10.5q-1 13 -1.5 23t-0.5 22
q0 19 1.5 37.5l3 37t2.5 37t0 36.5z" />
</svg>
