<?xml version="1.0" standalone="no"?>
<!DOCTYPE svg PUBLIC "-//W3C//DTD SVG 1.1//EN" "http://www.w3.org/Graphics/SVG/1.1/DTD/svg11.dtd" >
<svg xmlns="http://www.w3.org/2000/svg" xmlns:xlink="http://www.w3.org/1999/xlink" version="1.1" viewBox="-10 0 266 256">
   <path fill="currentColor"
d="M57 193q3 9 4 17t4 13.5t9 9t18 3.5q3 0 5.5 -1t5.5 -1q5 0 9.5 1t8.5 1q19 0 38 -0.5t38 -3.5q1 0 2 -1.5l1 -1.5l0.5 -0.5l0.5 -0.5q0 -3 -2.5 -3.5t-4.5 -0.5q-18 0 -37 1.5t-38 1.5h-11q-7 0 -13.5 -1t-12 -3t-9.5 -6q-3 -9 -4.5 -19.5t-1.5 -19.5v-108l1 -17
q1 -2 5 -4t9 -3t9.5 -2t6.5 -1q24 -2 48.5 -2t48.5 -2l0.5 -1.5l0.5 -1.5q0 -4 -1 -4.5t-5 -0.5q-22 0 -45 1l-46 2q-13 1 -21.5 2.5t-13.5 6t-7 13t-2 22.5v9q0 1 0.5 3t0.5 4.5t0.5 5l0.5 2.5q0 2 -0.5 5t-0.5 7.5t-0.5 8t-0.5 4.5v3v5q0 3 0.5 11.5t0.5 17.5t0.5 17.5
t0.5 11.5zM91 215q0 1 1.5 2t1.5 2h1q3 0 3.5 -2.5t0.5 -4.5q0 -10 -1 -21.5t-4 -21.5v-49q0 -3 2.5 -6.5t4.5 -4.5q2 0 6 -1t9 -1.5t9.5 -1.5t6.5 -1q6 -1 14.5 -0.5t16.5 -1t14 -5.5t6 -14q0 -9 -1.5 -14t-4.5 -7.5t-8.5 -3t-13.5 -0.5q-17 0 -35 1.5t-32 2.5q-1 0 -3 1
t-2 3t2 3t4 1q16 0 32 -2t32 -2h13q3 3 4 6t1 6q0 9 -4.5 13t-11 5t-14 1h-12.5q-4 1 -11 1t-13.5 1t-11.5 3.5t-7 8.5v6v8.5v8.5v6q0 19 0.5 38t4.5 37zM127 145q0 2 0.5 8t1.5 13.5t2 16t3 15.5t4.5 11.5t4.5 4.5t3 -1t1 -3q0 -8 -1.5 -14.5t-3 -13.5l-3 -14t-1.5 -14v-12
q3 -4 7 -5q1 -1 5.5 -1t9 -1t9 -1.5t5.5 -0.5h4t5.5 -0.5t5 -1.5t2.5 -4h-0.5h-0.5q0 -1 -0.5 -1.5l-0.5 -0.5h-5h-6h-11.5t-15 1t-14 3.5t-10.5 7.5v4v4z" />
</svg>
