<?xml version="1.0" standalone="no"?>
<!DOCTYPE svg PUBLIC "-//W3C//DTD SVG 1.1//EN" "http://www.w3.org/Graphics/SVG/1.1/DTD/svg11.dtd" >
<svg xmlns="http://www.w3.org/2000/svg" xmlns:xlink="http://www.w3.org/1999/xlink" version="1.1" viewBox="-10 0 266 256">
   <path fill="currentColor"
d="M69 235q4 0 14 0.5t21 0.5t21 0.5t14 0.5h31h31q2 -1 2 -2v-3q0 -1 -0.5 -2.5t-3.5 -1.5q-2 0 -9.5 0.5t-16 0.5t-16 0.5t-10.5 0.5h-4h-4q-5 0 -12 -0.5t-15 -0.5t-14 -0.5t-7 -0.5q-3 0 -7.5 -0.5t-9 -1.5t-7 -4t-2.5 -8q0 -2 -0.5 -9.5t-0.5 -17t-0.5 -21t-0.5 -21
v-17v-9.5v-8v-6q0 -2 0.5 -7.5t1 -12t1 -12t0.5 -7.5q0 -4 0.5 -9.5t1.5 -10.5t4 -8.5t9 -2.5h7t11 -0.5t12.5 -0.5t12.5 -0.5t11 -0.5h7h3h2v2.5v4.5v3v2q0 1 0.5 2.5t0.5 3.5t0.5 3.5l0.5 1.5q0 39 -2 77.5t-2 77.5v7q1 0 1.5 0.5t0.5 1.5h1h1l2 -2t1 -2q1 -8 1 -15v-16
t0.5 -16t2.5 -16q1 -1 3 -1.5l4 -1t3.5 -0.5h2.5q4 0 6.5 2.5t3.5 6.5l2 24t0 24q0 1 1.5 2t1.5 2h1q2 0 3 -2.5t2 -5.5t1 -5.5v-2.5v-4.5t-0.5 -8t-0.5 -8.5t-1 -7v-3.5t-0.5 -5.5t-1.5 -6t-3 -4q-4 -2 -8 -3t-7.5 -1h-6.5t-4.5 -1.5t-2.5 -5t-1 -10.5v-4v-3l2 -1h40
q2 0 2 -2v-3v-1v-1q-11 -3 -21.5 -2.5t-20.5 0.5v-19q0 -3 4.5 -3.5t10.5 -1t10.5 -2t4.5 -7.5v-38q-6 0 -8.5 4t-3 9.5t0.5 11.5t1 9l-5 5h-14l-0.5 -2.5t-0.5 -3.5l-0.5 -1.5t-0.5 -2.5v-3v-3t0.5 -5.5l1 -9t1 -8.5t1.5 -4h39q1 0 3.5 -1.5t1.5 -3.5q0 -1 -1.5 -2.5
t-2.5 -1.5h-9h-13.5h-14.5h-9h-12h-15h-13h-7h-13.5t-16.5 1.5t-14 5.5t-8 12v7t-0.5 10l-1 10t-0.5 6v9v18.5v20.5v17v13v19v20v12q0 10 3.5 17.5t13.5 10.5zM108 208v3.5t0.5 3t1 2.5t2.5 1q3 0 5 -4l0.5 -2t0.5 -4.5t0.5 -4.5t0.5 -3v-48q0 -27 1.5 -54t1.5 -54
q0 -2 -1.5 -4t-3.5 -2q-3 0 -4.5 5t-2 12t-0.5 13v9q-2 2 -4.5 2.5t-4.5 0.5q-5 0 -7 -2.5t-2.5 -6.5t0 -8.5t0.5 -8.5t-1 -6.5t-4 -2.5t-4.5 2.5t-1.5 5.5q0 7 1 14.5t3 14.5q2 5 6.5 5.5t8.5 1t7 2.5t3 9v2v4.5t-0.5 4t-1.5 1.5h-35q-2 0 -2 2v3t0.5 2t2.5 1h36v18
q0 1 -3.5 2.5t-8.5 3.5t-9.5 3.5t-5.5 4.5q-1 6 -2 11t-1.5 10t-0.5 9v11v4q0 2 0.5 5t0.5 5v4t1 1.5t2 0.5q2 0 2.5 -0.5t0.5 -3.5q4 -9 4 -20v-1l-0.5 -1t-0.5 -2t-0.5 -2t-0.5 -2q0 -3 0.5 -8.5t1.5 -10.5t4 -8.5t7 -3.5h4t3 2q0 1 0.5 5.5t0.5 9t0.5 9t0.5 5.5v4
q0 6 -1 12t-1 11z" />
</svg>
