<?xml version="1.0" standalone="no"?>
<!DOCTYPE svg PUBLIC "-//W3C//DTD SVG 1.1//EN" "http://www.w3.org/Graphics/SVG/1.1/DTD/svg11.dtd" >
<svg xmlns="http://www.w3.org/2000/svg" xmlns:xlink="http://www.w3.org/1999/xlink" version="1.1" viewBox="-10 0 266 256">
   <path fill="currentColor"
d="M68 239q5 0 15 0.5t22.5 0.5t26.5 0.5t26.5 1t22.5 0.5h14h2h4.5t2.5 -3t-3 -4t-6 -1h-25.5h-27.5q-13 0 -27 -0.5t-27 -1.5q-6 0 -13 -2t-10 -8q-2 -15 -3 -30.5t-1 -30.5v-6q0 -3 0.5 -6t0.5 -6v-3v-1.5t0.5 -3t0.5 -2.5v-1q1 -11 1 -22t-0.5 -22.5t0.5 -22.5t3 -22
q1 -2 4 -3l6 -2q1 0 4 -0.5t6.5 -1t6.5 -1t4 -0.5t4.5 -0.5t8 -0.5t8.5 -0.5t5 -0.5h5h8h9h5h4.5t8 -0.5t8.5 -0.5h5h4t6 0.5t6 0.5h4h1q4 0 5 -3t1 -6q-31 0 -62 1.5t-62 4.5q-5 0 -10 1t-10 4q-3 6 -4 13t-1.5 14t-0.5 14v13q0 2 -0.5 7t-1 11t-0.5 11.5v6.5v47v46
q0 9 4.5 13.5t11.5 7.5zM89 50q-2 0 -3 0.5t-1 3.5v124q0 12 2.5 19t8 10.5t13.5 4.5t18 1h8h13t15 -1t14.5 -2.5t11.5 -4t6 -5.5t1.5 -5t0.5 -4v-4v-6q1 -13 2 -27t1 -27q0 -16 -1 -33.5t-2 -32.5q-1 -7 -5.5 -9.5t-10 -3t-11.5 -0.5h-9h-13q-7 0 -15.5 1.5t-15.5 4t-9 8.5
v9v9v7.5t0.5 7.5t1.5 10q0 2 1.5 3.5l2.5 2.5q1 0 4 0.5t5.5 0.5t5.5 0.5t4 0.5h1q6 0 13.5 0.5t14 -1t11 -5t4.5 -11.5v-4.5t-0.5 -5t-1.5 -4.5t-5 -3q-7 -1 -11.5 -1.5t-11.5 -0.5h-6t-7.5 0.5t-6 2t-2.5 5.5h34q3 0 4 1t2 2.5t1 3.5v4v1v2.5t-0.5 2.5t-1.5 1
q-8 1 -14 1.5t-14 0.5h-4.5h-5.5t-5.5 -1.5t-2.5 -3.5q-2 -8 -2 -14v-13v-9q2 -2 4 -3.5t4 -1.5q3 -1 8.5 -1.5t12 -1t12 -1t7.5 -0.5q1 0 3 0.5t4.5 0.5t5 0.5t3.5 0.5q3 0 4.5 1.5t2.5 3.5t1 4.5t1 3.5v67q-13 2 -28 2h-28h-7h-10.5h-10.5h-7q-3 0 -4 -1t-2 -2.5t-1 -3.5
v-3v-1.5v-0.5q0 -1 1 -4l1 -3l-2 -70h-1h-1zM94 189q0 -2 0.5 -4t2.5 -4l2.5 -0.5t5 -0.5t5 -0.5t3.5 -0.5h5h10h12h9h7h11.5h10.5h8q1 1 1 2v2q0 10 -4.5 14.5t-11.5 6.5t-15.5 2h-15.5q-5 0 -12.5 0.5t-15 -1t-13 -5t-5.5 -11.5zM93 157v-4v-2l5 -4h4.5t11 -0.5t13 -0.5
t10.5 -1h5h9h9h7h6h6h6h2l3 2q1 0 1 3v4v3v4t-0.5 3t-0.5 2t-0.5 3l-0.5 2l-10 1h-81q-3 0 -4 -2t-1 -4.5v-5v-3.5z" />
</svg>
