<?xml version="1.0" standalone="no"?>
<!DOCTYPE svg PUBLIC "-//W3C//DTD SVG 1.1//EN" "http://www.w3.org/Graphics/SVG/1.1/DTD/svg11.dtd" >
<svg xmlns="http://www.w3.org/2000/svg" xmlns:xlink="http://www.w3.org/1999/xlink" version="1.1" viewBox="-10 0 266 256">
   <path fill="currentColor"
d="M71 219l3.5 3.5l5 5t5 4.5t3.5 3q3 3 7.5 4.5t9 2t9.5 0.5h9q36 0 52.5 -19t16.5 -52q0 -15 -4.5 -25t-11.5 -16t-15 -9t-15 -5t-11.5 -3.5t-4.5 -4.5v-28l1 -2l5 -0.5t11.5 -1l13 -1t11.5 -0.5q2 -1 6 -1t8 -0.5t7 -2.5t3 -5h-61l-1.5 -1t-2.5 -1l-0.5 -1l-0.5 -1v-28
q0 -2 -1 -4.5t-2.5 -4.5t-3.5 -3.5t-4 -1.5t-4 1.5t-2 3.5v88l-2 2q-17 1 -27 8.5t-17 21.5q-1 3 -2 4l-1.5 1.5t-1 2t-0.5 5.5v3v5v6v3q0 6 -0.5 13t2.5 13q1 4 2 6t2 3.5t2 3.5t1 5zM93 222q0 -1 2.5 -4t6.5 -7l8.5 -8.5t8.5 -8t7 -6t4 -3.5q2 3 7 7.5t9.5 10t7.5 10.5
t3 9q0 3 -4.5 5t-10.5 3.5t-11.5 2t-7.5 0.5h-7t-10 -1.5t-9 -4t-4 -5.5zM77 174v-6q0 -1 1 -4t2 -6.5t2 -6.5t2 -4l1 -1l1 -1h1h1l1.5 1l1.5 1l24 28v1v1q0 2 -0.5 4.5t-1.5 3.5q0 1 -2.5 2.5l-2.5 1.5l-1.5 1.5l-0.5 0.5q-1 0 -2 1.5t-2 3.5t-2 3.5l-1 1.5l-2.5 2.5l-3 3
l-3 3l-1.5 1.5h-3q-1 0 -2 -2l-2 -4t-2 -4.5t-1.5 -4.5t-1 -4.5t-0.5 -5.5v-6v-6zM139 178q0 -3 3.5 -8t8 -11t9 -10t5.5 -4q3 0 5.5 3t4 7.5t2.5 10t1.5 10t0.5 7.5v3q0 1 -1 5t-2.5 8.5t-3.5 8t-4 3.5t-7 -5t-10 -11t-8.5 -11t-3.5 -6zM95 135q0 -4 3 -6.5t8 -4t9.5 -2
t7.5 -0.5t9 0.5t11.5 2t9.5 4.5t4 8q0 2 -4 6.5t-9 9.5t-10 8.5t-8 3.5q-1 0 -2 -0.5t-2 -0.5l-4 -4t-6.5 -6t-7 -6.5l-4.5 -4.5l-2.5 -3t-2.5 -4v-1z" />
</svg>
