<?xml version="1.0" standalone="no"?>
<!DOCTYPE svg PUBLIC "-//W3C//DTD SVG 1.1//EN" "http://www.w3.org/Graphics/SVG/1.1/DTD/svg11.dtd" >
<svg xmlns="http://www.w3.org/2000/svg" xmlns:xlink="http://www.w3.org/1999/xlink" version="1.1" viewBox="-10 0 266 256">
   <path fill="currentColor"
d="M193 244q0 3 1.5 5t5.5 2q3 0 6 -2.5t3 -5.5v-10v-14t-1 -17t-2 -17t-2.5 -14.5t-3.5 -9.5q-3 -5 -10 -7.5l-14 -5t-12.5 -6t-5.5 -8.5t2 -11t6 -9q7 -2 15 -3t14.5 -3t11 -7t4.5 -14q0 -8 -1 -13t-4 -8.5t-8 -5.5t-13 -4q-1 0 -5 -1t-8.5 -2t-9 -1.5t-6.5 -1.5h-1h-2
q-1 0 -2.5 0.5t-3.5 0.5t-4 0.5l-2 0.5q-3 2 -3 4.5v4.5h20q3 0 3 2v4t-0.5 4t-0.5 5v1v2t0.5 2.5t0.5 2.5v1v1v1v2.5t-0.5 5t-0.5 4.5v2v4q-2 3 -4 5.5t-4 5.5t-3.5 6t-1.5 7q0 10 2 15.5t7 9t12 5t16 3.5q5 3 7 9t2 13.5v14.5t2 12q0 6 -1 15.5t-1 17.5zM44 214q0 3 2 3.5
t5 0.5q21 0 42 -1.5t43 -1.5q1 0 3 -1t2 -2v-1q-1 -1 -1.5 -2.5l-0.5 -1.5h-29l-2 -4v-5t-0.5 -11.5l-1 -13t-0.5 -11.5v-1q0 -20 1 -39.5t3 -39.5q6 -3 9.5 -9t5 -12.5t1.5 -14v-14.5v-2.5v-5.5v-4.5v-3.5q-1 -2 -2 -2.5t-3 -0.5q-3 0 -5 3q0 2 -0.5 5t-1 6.5l-1 7
t-0.5 4.5v1v0v1v1l0.5 1.5t0.5 3v3v2.5h1q0 11 -6 16t-16 5q-7 0 -10.5 -2t-5 -5t-2 -8t-1.5 -11v-5.5v-7.5v-7.5v-5.5q0 -3 -2 -4t-5 -1q-2 0 -4 1t-2 3q0 6 0.5 12t1.5 13t2 13t1 11q1 4 3 5.5t4.5 3t4 3.5t1.5 5q0 16 -1 31t0 31q-2 4 -2 9v9v7.5t-0.5 11.5t-1 11.5
t-0.5 7.5q0 1 -0.5 1.5l-0.5 0.5q-6 1 -13 1.5t-13 -0.5q-3 1 -3 3v4zM86 201v-2.5v-3.5v-4v-3v-10q0 -6 1 -11q0 -20 0.5 -40t1.5 -40q-1 -3 0.5 -4t2.5 -1h3t2 2v6v9v10v6q0 14 -1 28t-1 28v11q1 0 1.5 1t0.5 2v4.5t-1 7.5t-2 6.5t-2 2.5q-3 0 -4 -1.5t-2 -3.5zM54 94
q0 13 -0.5 25.5t-1.5 25.5l-2 26t-1 26h5.5t4 -0.5t2.5 -1.5t2 -4q1 -9 1.5 -17t0.5 -15v-15v-17v-5.5v-8.5v-9v-6q-1 -3 -2 -5t-5 -2h-2q-2 0 -2 3zM121 194q0 2 1.5 2h2.5q3 0 5 -1.5t2 -4.5v-22.5t-0.5 -22.5t-0.5 -22.5v-24.5q-1 -3 -3 -4t-5 -1q-2 0 -3 1t-1 4v35v7v8
t0.5 12l1 12t0.5 8v3v4v5v2zM171 89v0q0 -3 0.5 -8.5t0.5 -9v-3.5l5 -2l17 3l0.5 0.5t0.5 1.5q1 1 2 3l1 2v18q0 1 -3.5 2t-7.5 2t-8 1.5t-5 0.5h-0.5h-1.5q0 -1 -0.5 -5t-0.5 -5v-1zM81 45q6 1 9.5 1.5t9.5 0.5q2 0 5 -1t3 -4t-2.5 -4t-5.5 -1h-6h-4h-4h-5q-2 0 -3 1t-1 2
q0 4 4 5z" />
</svg>
