<?xml version="1.0" standalone="no"?>
<!DOCTYPE svg PUBLIC "-//W3C//DTD SVG 1.1//EN" "http://www.w3.org/Graphics/SVG/1.1/DTD/svg11.dtd" >
<svg xmlns="http://www.w3.org/2000/svg" xmlns:xlink="http://www.w3.org/1999/xlink" version="1.1" viewBox="-10 0 266 256">
   <path fill="currentColor"
d="M154 143q2 11 5.5 25t6.5 25q0 2 1.5 7.5t3.5 12t4.5 13.5t5.5 12.5t6 9t6 3.5t3.5 -1t0.5 -4t-1 -6t-3 -6t-3.5 -6t-2.5 -6q-3 -8 -7 -19t-7.5 -22.5t-6 -22t-2.5 -18.5q0 -4 2.5 -6t5.5 -4t5.5 -5t4.5 -7q1 -7 2 -12t1 -10v-10v-12q0 -5 0.5 -11t0.5 -12.5t-1 -13
t-3.5 -11.5t-7 -8t-12.5 -3h-82q-2 0 -3.5 1.5t-1.5 3.5t1 3t3 2h8h7q4 0 7 -1h56q7 0 10 3t6 9q0 2 0.5 6.5t1 10t1 10.5t0.5 7v12q0 3 -0.5 10t-2 13.5t-4.5 11.5t-7 5h-2h-1q-1 -9 -2.5 -16t-5 -12t-9 -7.5t-15.5 -2.5h-13h-12t-12.5 0.5t-14.5 1.5q-2 0 -2 2v3v3t2 2h8
q12 0 23.5 -2t23.5 -2q1 0 4 0.5t4 0.5q2 1 4 4t3.5 7t2 7.5t0.5 6.5q0 6 -4 8t-10 3q-16 1 -33 1.5t-34 -0.5q-7 0 -7 8q0 3 3.5 4t6.5 1q20 0 37.5 -2t37.5 -4h2q3 0 4 1t3 5zM87 51q0 2 0.5 4t3.5 1q15 -1 30.5 -1.5t30.5 0.5q2 -1 3.5 -2.5t1.5 -4.5q0 -2 -1.5 -3.5
t-3.5 -1.5h-15q-4 0 -12 -0.5t-16.5 0t-15 2t-6.5 6.5z" />
</svg>
