<?xml version="1.0" standalone="no"?>
<!DOCTYPE svg PUBLIC "-//W3C//DTD SVG 1.1//EN" "http://www.w3.org/Graphics/SVG/1.1/DTD/svg11.dtd" >
<svg xmlns="http://www.w3.org/2000/svg" xmlns:xlink="http://www.w3.org/1999/xlink" version="1.1" viewBox="-10 0 266 256">
   <path fill="currentColor"
d="M119 19h-14q-4 0 -8.5 0.5t-8.5 0.5q-18 0 -28 9q-7 12 -7 27q0 7 0.5 14.5t0.5 13.5v128l-3 37q-1 5 -1.5 10t1.5 9q7 1 8 -3q0 -2 0.5 -4.5t0.5 -5.5l4 -38v-125q-1 -5 -1 -12v-16q-1 -17 3 -26q5 -7 17 -8q6 0 11.5 -0.5t9.5 -0.5h72q3 0 7.5 0.5t9.5 0.5q4 0 8 -1
t7 -3q1 -7 -7 -7q-4 0 -7.5 -0.5t-5.5 0.5h-69zM101 57l-8 4q-1 6 7 7h8h6h35q20 1 31 10q7 12 6 28q0 17 -9 26q-2 -5 -5.5 -11t-8.5 -11l-17 -8q-7 -1 -15 -2t-17 -2q-16 -2 -31 2q-3 8 5 8q2 1 7 1h6q10 1 18 1.5t14 0.5q14 -1 29 14l5 14l-16 4l-43 4h-8q-2 0 -7 2
q-1 7 4 8h11l48 -4l15 -4l25 111l5 2q4 -2 2 -14q-2 -11 -3 -17l-20 -87l9 -8q3 -6 5 -12.5t2 -13.5v-9q0 -7 -1 -15.5t-6 -14.5t-12 -7.5t-14 -2.5q-16 -3 -31 -3q-7 0 -15 -0.5t-16 -0.5z" />
</svg>
