<?xml version="1.0" standalone="no"?>
<!DOCTYPE svg PUBLIC "-//W3C//DTD SVG 1.1//EN" "http://www.w3.org/Graphics/SVG/1.1/DTD/svg11.dtd" >
<svg xmlns="http://www.w3.org/2000/svg" xmlns:xlink="http://www.w3.org/1999/xlink" version="1.1" viewBox="-10 0 266 256">
   <path fill="currentColor"
d="M86 247q0 2 0.5 3t2.5 1t5 -1.5t3 -3.5v-80l1.5 -1.5t1.5 -0.5l1 -1t2 -1h19l1 -1.5t2 -2.5v-0.5v-0.5v-1q-1 -1 -2.5 -2t-2.5 -1h-20q-1 0 -1.5 -1t-1 -2.5t-0.5 -3v-2.5v-3.5t1 -3.5q9 -3 13.5 -5t6.5 -6t2.5 -10t1.5 -17v-3v-3t-0.5 -4t-1.5 -3t-2 -1t-2.5 0.5
t-1.5 1.5v30q0 3 -2 5t-4.5 3.5t-5 2t-5.5 0.5v-54l-1.5 -0.5l-1.5 -0.5h-1q-2 0 -3 2.5t-1 3.5v47q0 1 -1 1.5t-2 0.5q-3 0 -5 -2.5t-4 -4.5q-2 -8 -3.5 -17.5t-2.5 -18.5l-1 -1t-1 -2h-1q-3 0 -3.5 3t-0.5 5v8.5t1 11.5t2 11t3 7q4 4 7.5 5t6 2t4 3.5t1.5 10.5v3v2l-1 3
h-36q-2 0 -2.5 2.5t-0.5 3.5q0 3 2 3.5t5 0.5q8 0 16 -0.5t17 -0.5v11v16.5v16.5v11q0 6 -1.5 12.5t-1.5 13.5zM126 245q0 2 1 4t4 2q2 0 3 -1.5l2 -3t1.5 -3.5t0.5 -3q0 -3 1 -7t1.5 -8t0.5 -7.5v-4.5l6 -129q2 -4 2 -8t0.5 -7.5t1.5 -7t5 -6.5q6 -2 12.5 -3.5t13.5 -2.5
t14 -1t13 -1l0.5 -1l0.5 -1q0 -4 -3 -5t-6 -1q-11 0 -23.5 2.5l-22.5 4.5q-5 0 -7.5 5.5t-4.5 12.5t-2.5 13.5t-0.5 9.5q0 2 -0.5 8.5t-1 15t-0.5 18.5t-0.5 19t-0.5 15.5v8.5q-1 3 -2 11.5t-2 17.5t-2 17.5t-2 11.5q-1 4 -2 7.5t-1 7.5zM189 196l4 53h2.5h2.5q3 0 4.5 -0.5
t1.5 -3.5v-4l-13 -75v-15q5 -3 8 -9.5t4.5 -14t1.5 -15v-12.5v-7q0 -4 -0.5 -7t-2.5 -6t-6 -6h-8h-8t-12.5 1t-11 2t-4.5 3v0q0 1 1 2.5t2 1.5h35q3 0 4 3t1.5 7t0.5 8v5v8.5t-1 9t-3 8t-5 6.5q-3 -1 -3.5 -3.5l-1 -5t-0.5 -5.5t-1 -5t-4 -3.5t-10 -1.5h-5t-5.5 0.5t-4 2.5
t-1.5 5h17l3 2l1 1.5t2 3.5t1.5 4t1.5 3q1 5 1 11v1v1q-6 2 -12.5 4t-12.5 4q-1 0 -1 1v2v1.5t1 1.5h3h2q6 0 10.5 -2.5t9.5 -2.5q2 0 3 1.5t2 3.5q0 1 0.5 5t1.5 8.5t1.5 8t0.5 5.5l0.5 2t1.5 3zM84 12l-2 0.5t-2 1.5v33q0 5 -3.5 11t-6.5 8t-6 3.5l-6 3t-5 3.5t-2 7
q5 0 8.5 -2t7.5 -4q8 -5 12.5 -10.5t7 -12t3.5 -14t1 -17.5q0 -3 -1.5 -7t-5.5 -4zM104 30q0 8 0.5 16t3.5 14.5t8.5 10.5t14.5 4q0 -4 -3 -6.5l-6 -5t-6 -5.5t-3 -9v-33l-4 -5q-2 1 -3 3l-2 4v2v4v3v3z" />
</svg>
