<?xml version="1.0" standalone="no"?>
<!DOCTYPE svg PUBLIC "-//W3C//DTD SVG 1.1//EN" "http://www.w3.org/Graphics/SVG/1.1/DTD/svg11.dtd" >
<svg xmlns="http://www.w3.org/2000/svg" xmlns:xlink="http://www.w3.org/1999/xlink" version="1.1" viewBox="-10 0 266 256">
   <path fill="currentColor"
d="M136 212v4v8t0.5 9t1 9t2 6.5t4.5 2.5l1.5 -0.5t1.5 -1.5v-32q0 -1 -0.5 -3.5t-1.5 -2.5v-1q0 -10 4.5 -16t10.5 -10.5t13.5 -8t14 -8t10.5 -10.5t4 -16v-13t-1.5 -13.5t-5.5 -10.5t-12 -4q-10 0 -20 2t-19 3v1q0 2 1.5 3t3.5 1.5t4 0.5h4q7 0 13 -1t12 -1q4 0 6 2.5t4 6
t3 7t1 6.5q0 10 -4.5 17.5t-11.5 13t-16 9.5t-17 8q-4 7 -7.5 15.5t-3.5 17.5zM134 140q8 1 13.5 1.5t13.5 0.5q1 0 5 -0.5t5 -0.5q2 0 4.5 -1.5t2.5 -3.5v-1q-1 0 -1.5 -1l-0.5 -1h-32q-5 0 -7.5 -4.5t-3.5 -10t-1 -11.5v-7q0 -9 5 -13t13 -5t16.5 -1.5t16 -2.5t12.5 -7
t5 -16v-5t-1 -6t-3 -5t-5 -2h-34q-8 0 -11.5 -3.5t-4.5 -8l-2 -9t-5 -5.5q-2 0 -2.5 1l-1 2t-1 2.5t-0.5 2.5q0 12 5.5 18t13.5 8t18 1.5t20 -1.5l3 3v15q0 2 -5 3.5t-11 3t-11.5 2.5t-6.5 1q-10 2 -16 4.5t-9.5 6.5t-4.5 11t-1 18v12q1 5 3.5 8.5t6.5 6.5zM55 116
q6 5 12.5 7t15.5 2q3 0 7 -0.5t7 -1.5t5 -3.5t3 -6.5q1 -6 1 -11t0.5 -9.5t0.5 -8.5v-11v-21q-1 -4 -2.5 -4.5t-3.5 -0.5h-3t-1 3v27l-1.5 0.5t-4 0.5t-5 0.5t-3.5 0.5h-4.5h-5.5t-6 -0.5t-4 -0.5v-20q0 -2 -2 -4.5t-4 -2.5q-1 0 -2 0.5t-2 1.5v23v20t2 20zM63 92
q0 -1 4 -2.5t9 -2.5t10 -1.5t7 -0.5l2 0.5l2 0.5l0.5 2t1.5 2v2v4.5t-0.5 7t-2 6.5t-4.5 3h-21q-3 0 -4.5 -2.5t-2.5 -6t-1 -7v-5.5z" />
</svg>
