<?xml version="1.0" standalone="no"?>
<!DOCTYPE svg PUBLIC "-//W3C//DTD SVG 1.1//EN" "http://www.w3.org/Graphics/SVG/1.1/DTD/svg11.dtd" >
<svg xmlns="http://www.w3.org/2000/svg" xmlns:xlink="http://www.w3.org/1999/xlink" version="1.1" viewBox="-10 0 266 256">
   <path fill="currentColor"
d="M168 189q2 3 3.5 5t3.5 4.5t3 5t2 5.5l4 40q0 1 1 1.5t2 0.5q4 0 5 -3t1 -7q0 -15 -2 -26t-7 -19.5t-14 -14.5t-23 -12q0 -1 -0.5 -3l-0.5 -2q0 -6 4.5 -9t10 -4t11.5 -1h9q4 -2 5 -6t1 -9v-3.5v-2.5q-4 -6 -13 -9.5t-19 -6t-20 -4t-15 -3.5q0 -1 -0.5 -3.5t-1 -4.5
t-1.5 -3.5t-3 -1.5t-2.5 0.5t-0.5 2.5q0 8 1.5 11.5t5 5t8.5 2t12 2.5q2 1 6 2t9 2t9.5 2t5.5 1q1 1 3 2t4 2.5t2.5 3.5t0.5 4q0 1 -1 2t-2 2.5t-2 2.5t-2 1h-7t-9.5 1t-8.5 2.5t-5 5.5q0 1 -0.5 3t-1 4.5t-1 5.5t-0.5 4v1q0 2 1 3.5t2.5 2t3.5 1t3 1.5t4 2t6.5 2.5t6 3.5
t3.5 2zM61 114q0 5 3.5 7t7.5 2h7t8 -0.5t7.5 -1.5t4.5 -4q3 -11 4 -21t1 -21v-17q-1 0 -2 -1t-1 -2h-1h-1q0 1 -1.5 2l-1.5 1v20l-4 3l-1.5 0.5t-4 0.5t-5 0.5t-3.5 0.5h-4q-1 0 -3 -0.5t-2 -2.5v-19q0 -1 -2 -3.5t-4 -2.5t-3 2t-1 4v2q0 3 0.5 10t0.5 15.5t0.5 15.5
t0.5 10zM68 104q0 -6 1.5 -9t4.5 -4.5t7.5 -2t8.5 -0.5h3t2 2v17q0 3 -2.5 4.5t-6 2.5t-7.5 1h-5q-4 0 -5 -4t-1 -7zM118 80q1 0 3 1t4 1.5t4.5 1l2.5 0.5q1 0 2 0.5t2.5 0.5t3 0.5l1.5 0.5q13 3 24.5 8.5t24.5 9.5v0h1q1 0 2 -1t1 -2v0v-1q-1 -4 -6.5 -7t-13.5 -5.5
t-17 -4.5t-16.5 -3.5t-12.5 -3t-5 -2.5v-14q0 -1 -1.5 -2l-1.5 -1q-2 0 -3 1t-1.5 2.5t-0.5 3.5v3v3v4t0.5 3.5t2.5 2.5zM121 13v2q0 1 0.5 3.5l0.5 2.5q0 1 0.5 4t0.5 6.5t0.5 7t0.5 4.5q0 3 1.5 4t4 1.5l5 1t5.5 0.5q8 1 18 4.5t17 8.5q3 1 4.5 2.5t3.5 2.5t3.5 2.5
t4.5 1.5q2 0 4 -1t2 -4t-5 -6t-12.5 -5.5t-16 -5t-15.5 -4.5t-12 -4.5t-5 -4.5v-27q0 -1 -1 -1.5t-2 -0.5q-3 0 -5 1t-2 4z" />
</svg>
