<?xml version="1.0" standalone="no"?>
<!DOCTYPE svg PUBLIC "-//W3C//DTD SVG 1.1//EN" "http://www.w3.org/Graphics/SVG/1.1/DTD/svg11.dtd" >
<svg xmlns="http://www.w3.org/2000/svg" xmlns:xlink="http://www.w3.org/1999/xlink" version="1.1" viewBox="-10 0 266 256">
   <path fill="currentColor"
d="M181 247q0 2 2 4t4 2t3.5 -1.5t2.5 -3t2 -3.5t1 -3q2 -19 2.5 -39t0.5 -39v-6v-8.5v-6.5v-3q0 -4 -0.5 -10.5t-2 -13t-3.5 -12.5t-4 -9q-3 -4 -8 -5t-11.5 -1h-13t-12 -1t-9 -4.5t-3.5 -9.5q0 -2 0.5 -3.5t1.5 -3.5q4 -3 13 -4t17.5 -3.5t15 -6t6.5 -9.5v-6q0 -1 -0.5 -6
t-0.5 -10.5t-0.5 -10.5t-0.5 -7q-1 -1 -3 -1h-3h-3t-2 1v12l-2 2l-3 0.5t-7 1.5t-8.5 2t-6.5 2q-19 4 -38 7.5t-38 5.5q-1 0 -4.5 0.5t-4.5 0.5q0 1 -0.5 2t-0.5 2h-0.5h-0.5q0 1 0.5 1h0.5q1 4 3 5t6 1q8 0 17 -2t17 -4q3 -1 5.5 -3t6.5 -2q3 0 4.5 2t2 4.5t0.5 5v4.5
q0 4 -5 7t-12 5t-15.5 3t-16 2t-12 2.5t-4.5 4.5v2.5t1 2.5h3.5h3.5q8 0 18.5 -2.5t17.5 -4.5q5 -2 9.5 -4t9.5 -2q1 0 1.5 4t1.5 8.5t3 9t6 5.5h4h6t6 0.5t4 0.5q3 0 7.5 0.5l9 1t8 2.5t6.5 5q5 16 5.5 32.5t0.5 32.5q0 19 -2.5 37t-4.5 36q-1 0 -1 1v1zM86 120v2
q0 3 0.5 9t0.5 11.5t0.5 10t0.5 5.5q0 5 1 9t3.5 7t6 4.5t9.5 1.5q3 0 10.5 -0.5t15 -2t13 -4.5t5.5 -10v-44q0 -4 -2.5 -5t-5.5 -1h-2t-2 1v17q-12 0 -22 1t-21 1v-17q0 -1 -2 -1.5t-3 -0.5q-2 0 -4 2t-2 4zM101 166q0 -1 -0.5 -3t-1.5 -5t-1.5 -5t-0.5 -3v-0.5v-0.5v0
q0 -1 1 -2t2 -1q1 -1 4.5 -1.5t7.5 -1.5t7.5 -1.5t5.5 -0.5h3h4h4h4t1 2v2q0 8 -2 14t-10 9h-4t-6 0.5t-6 0.5h-4h-2q-4 0 -6 -3zM131 53v-1.5v-3.5t0.5 -4.5t0.5 -3.5q1 -1 1.5 -2.5t1.5 -1.5l16 -4t16 -2q4 0 5.5 1.5t1.5 6.5q0 4 -3 6.5t-6.5 4.5t-8 3t-7.5 1
q-3 1 -7 1.5t-6.5 1t-3.5 0.5z" />
</svg>
