<?xml version="1.0" standalone="no"?>
<!DOCTYPE svg PUBLIC "-//W3C//DTD SVG 1.1//EN" "http://www.w3.org/Graphics/SVG/1.1/DTD/svg11.dtd" >
<svg xmlns="http://www.w3.org/2000/svg" xmlns:xlink="http://www.w3.org/1999/xlink" version="1.1" viewBox="-10 0 266 256">
   <path fill="currentColor"
d="M94 170v1l0.5 2t0.5 4t0.5 3.5t0.5 2.5v17.5t2 18t6.5 14.5t15.5 6h4h3q2 -1 5.5 -1.5t7.5 -1.5t8 -1.5t5 -0.5q4 -4 7.5 -10t3.5 -11v-50l-0.5 -2.5l-1 -5t-1 -4.5t-0.5 -3v-5t-1 -5.5l-2 -5t-4 -2.5h-1q-1 1 -2 2.5l-1 1.5v26q0 2 -1.5 3t-3 1.5t-2.5 0.5h-3h-2h-3.5
h-4.5h-4h-3h-3.5h-4.5h-3q-4 1 -5 -3t-1.5 -9.5t-1 -10.5t-5.5 -6l-1.5 0.5l-1.5 0.5v28q0 1 -0.5 2t-1.5 2v1zM109 221q0 -2 -0.5 -6t-1 -9.5t-1 -10t-0.5 -5.5v-2v-2q0 -3 2.5 -5t6 -3t7 -1.5t5.5 -0.5q3 0 7 -0.5t8 0t7 1.5t3 4v2q-2 10 -2 18t-1.5 13t-6.5 8t-17 3
q-4 0 -7 -1zM44 151q0 2 1.5 3.5t3.5 2.5q7 -2 12 -6.5t8.5 -11t7 -13.5l6.5 -13q5 -8 11.5 -15.5t11.5 -15.5q5 -10 10.5 -19.5t10.5 -19.5q5 2 9.5 8t8.5 13.5t7 15t6 10.5q5 7 10 13.5l10 13t9 13.5t7 14q0 1 0.5 2.5t1.5 1.5h1h1h2.5t3.5 -0.5t3.5 -1t1.5 -2.5v-14
q-6 -3 -9.5 -8t-7.5 -11q-13 -18 -25.5 -35.5t-23.5 -37.5q-1 -2 -2 -5t-2.5 -5.5t-3.5 -4t-5 -1.5t-7 5t-9 13t-10 17.5t-10 18.5t-8.5 15.5t-5.5 9.5q-1 1 -4 5t-7 9.5t-8.5 12t-8 11.5t-6 8.5zM94 106q0 3 3 4t5 1h2q3 0 10 -0.5t14.5 -1t14.5 -1t10 -0.5q2 -1 2 -2v-3
v-2.5t-2 -1.5h-4.5h-4.5h-5h-4q-2 0 -8 1t-12.5 1.5t-12 1.5t-8.5 1v1.5v0.5z" />
</svg>
