<?xml version="1.0" standalone="no"?>
<!DOCTYPE svg PUBLIC "-//W3C//DTD SVG 1.1//EN" "http://www.w3.org/Graphics/SVG/1.1/DTD/svg11.dtd" >
<svg xmlns="http://www.w3.org/2000/svg" xmlns:xlink="http://www.w3.org/1999/xlink" version="1.1" viewBox="-10 0 266 256">
   <path fill="currentColor"
d="M50 243q0 1 1 4t4 2q5 -1 8 -6.5t3 -9.5q1 -2 1.5 -5.5t1.5 -7t1.5 -6t0.5 -3.5q1 -3 2 -11t2.5 -16.5t2.5 -16.5t1 -11v-11q0 -1 0.5 -3t1 -4.5t0.5 -4.5v-3l2 -40t3 -42q2 -5 5 -8t7 -4.5t9 -2t10 -0.5q2 0 4.5 -0.5t5 -0.5t4.5 -0.5t3 -0.5h30h31q0 1 2 1.5l2 0.5
q2 0 3 -3t1 -5t-1.5 -3t-3.5 -2q-9 0 -19 0.5t-20 0.5t-20.5 0.5t-19.5 -0.5l-3 1.5t-3 0.5h-2h-3q-9 1 -14.5 1.5t-8.5 2.5t-5 6t-6 11q0 1 -0.5 2.5l-0.5 1.5v50q-2 6 -3 11.5t-1 11v11.5t-1 11l-1.5 6t-1.5 4t-1.5 4.5t-0.5 4.5v5q0 1 1 3l1 2q0 9 -2 17.5l-4 17t-5 17
t-4 15.5v1.5v2.5zM125 97l-1.5 0.5t-3 0.5t-3 1t-1.5 2v73q0 6 3.5 9t9 4t11.5 1h10q1 0 3 0.5t4 0.5q11 0 17.5 -2t9.5 -6.5t4 -11.5t2 -18q0 -1 0.5 -4t0.5 -4v-45q0 -2 -2.5 -2.5t-3.5 -0.5q-2 0 -3.5 0.5t-1.5 2.5v29l-1 0.5t-1 1.5l-1.5 0.5l-1.5 0.5h-50v-33zM125 155
q0 -3 0.5 -6t3.5 -6q9 0 18.5 -1.5t18.5 -1.5h5h4l2 3v21q-1 1 -1.5 3l-1 4t-1.5 3t-3 1h-35q-3 0 -5.5 -2t-3.5 -5.5t-1 -6.5v-6zM94 72q9 0 17 1t17 1h1q1 0 3.5 -0.5l2.5 -0.5h53q1 0 3.5 -0.5t5.5 -0.5t5.5 -0.5t3.5 -0.5q2 -2 2 -3v-3v-3t-2 -2h-4h-4q-25 0 -51 1.5
t-51 3.5q-1 0 -1.5 1t-0.5 2.5v2.5v1z" />
</svg>
