<?xml version="1.0" standalone="no"?>
<!DOCTYPE svg PUBLIC "-//W3C//DTD SVG 1.1//EN" "http://www.w3.org/Graphics/SVG/1.1/DTD/svg11.dtd" >
<svg xmlns="http://www.w3.org/2000/svg" xmlns:xlink="http://www.w3.org/1999/xlink" version="1.1" viewBox="-10 0 266 256">
   <path fill="currentColor"
d="M193 248q1 1 2 1h3t3 -2t1 -4v-17q0 -18 -2.5 -35.5t-6 -34.5l-7 -34t-5.5 -35q-3 -3 -4 -4.5t-1 -5.5q0 -3 1.5 -7t3.5 -8t3.5 -8t1.5 -9q0 -10 -6 -16t-14.5 -10t-18.5 -5t-17 -1h-5t-9 -0.5t-10 -0.5h-8h-6q-5 0 -10 0.5t-10 0.5h-6l-1.5 1t-1.5 2v0v1v0.5v0.5l1.5 1
t1.5 2h3.5t5.5 0.5t5.5 0.5t3.5 1q3 0 4.5 2t2 4.5t0.5 5v4.5v3l-3 2h-34v3.5t1 3.5l0.5 0.5l0.5 0.5h7.5h9t9 0.5t8.5 1.5q1 3 1 6.5v6.5v7q0 1 -0.5 3t-1 3.5l-1 3l-0.5 1.5h-28l-4 4l2 2h26v8l-8 20t-7 19.5t-5 20t-3 21.5v13.5t-0.5 20t-0.5 20v13.5h1.5t3 -0.5t3 -0.5
h2.5l0.5 -0.5t0.5 -1.5v-2v-3q0 -10 -1 -20t-1 -20q0 -13 2 -27t5.5 -27.5t8.5 -26.5t11 -24q0 -1 2 -2q17 -1 33 -3t32 -7v0v0q3 0 4.5 1.5t1.5 3.5q5 13 8 27t5.5 28.5t4 28.5t2.5 27v12.5t1 13.5t1.5 13t1.5 11zM101 131v17t2.5 13.5t8 8.5t15.5 3h9t10 -1t9 -3t6 -6
q1 -4 1 -7t0.5 -6t0.5 -6v-7v-5v-8t-1.5 -7t-4.5 -3h-1l-1 0.5l-1 0.5v15h-43l-0.5 -0.5t-1.5 -0.5q0 -2 -0.5 -4.5t-1 -4.5t-1.5 -3.5t-3 -1.5v0q-1 0 -1.5 1l-0.5 1v14zM109 146v-7q5 -1 9 -1.5t7.5 -0.5h7h8.5h2h4h3h3t1.5 1t0.5 2t-0.5 2l-0.5 1v10.5t-4 8.5
q-2 0 -4 0.5t-5 1t-5 1t-3 0.5h-2q-11 0 -16.5 -4t-5.5 -15zM98 78v-1v-1q0 -2 0.5 -5.5t0.5 -6t0.5 -5l0.5 -2.5l1 -2h6h12q9 0 18 1.5t15.5 5t6.5 9.5q0 4 -3 6q-12 3 -24 5t-25 2h-6q-2 -1 -2.5 -2.5t-0.5 -3.5zM103 46l-5 -5v-15q0 -2 3.5 -3t7.5 -1.5t8 -0.5h6
q7 0 15.5 0.5t16.5 3t13.5 8t5.5 14.5q0 5 -0.5 10t-5.5 7q-1 0 -3 -1.5t-4.5 -3.5l-5 -4t-4.5 -3q-1 0 -4 -0.5t-4 -0.5q-2 0 -8 -1t-12.5 -2t-12 -1.5t-7.5 -0.5z" />
</svg>
