<?xml version="1.0" standalone="no"?>
<!DOCTYPE svg PUBLIC "-//W3C//DTD SVG 1.1//EN" "http://www.w3.org/Graphics/SVG/1.1/DTD/svg11.dtd" >
<svg xmlns="http://www.w3.org/2000/svg" xmlns:xlink="http://www.w3.org/1999/xlink" version="1.1" viewBox="-10 0 266 256">
   <path fill="currentColor"
d="M102 242v2t0.5 2.5t1.5 1.5q2 0 4 -1.5t3 -4l2 -5t1 -4.5q1 -4 2.5 -11.5t3 -14.5t2.5 -13t1 -8q0 -1 1 -8t1.5 -16t1.5 -18t2 -14q0 -7 -0.5 -17t0.5 -19.5t4.5 -17.5t12.5 -11q2 -1 6.5 -1.5t10 -1t10 -1t6.5 -0.5q5 0 9.5 -2t8.5 -4.5t6.5 -6.5t2.5 -9q0 -11 -4.5 -18
t-15.5 -10h-4h-5h-5h-4h-11h-9.5t-9.5 0.5t-11 1.5q-2 0 -2 1v2q0 3 2 3h4q13 0 24.5 -0.5t23.5 -0.5q3 0 6 1t5.5 2.5t4.5 4.5t2 6q0 9 -4 13.5t-10 6.5t-13.5 2.5t-15 0.5t-13.5 1.5t-9 6.5q-5 7 -6.5 15.5t-2.5 17.5q0 4 -0.5 11t-1 14.5t-1 16t-1 15t-1 11t-0.5 6.5
q-1 8 -2.5 16.5t-4 17.5t-5 17.5t-4.5 16.5v2v2zM200 246q1 2 2.5 2h2.5q2 0 4 -0.5t3 -4.5q1 0 0 -2t-1 -3q-8 -16 -14 -32t-13 -33q0 -1 -1 -3.5t-2 -3.5l-11 -58v-3q0 -6 5.5 -9t12 -4t11.5 -2.5t5 -5.5q0 -2 -2.5 -2.5t-3.5 -0.5h-3l-12 4t-10.5 5t-7 7t-2.5 11
q0 17 4 35t10 36t12 35t11 32zM54 19q-2 0 -5 1t-3 4v61q0 5 3.5 8t8.5 5t10 2.5t9 0.5q7 0 14 -3t11 -8q0 -3 0.5 -8.5t1 -12t1 -12t1.5 -8.5v0v-1q0 -2 -0.5 -6t-1 -8.5t-0.5 -8.5v-6l-0.5 -0.5t-1.5 -0.5q-2 0 -3.5 1.5t-1.5 3.5v20h-43v-24zM54 56l3 -3l3.5 -0.5t8 -0.5
t9.5 -0.5t9 -0.5h5q5 0 6 0.5t1 5.5q0 7 -1 13.5t-3 14.5q0 3 -3 4t-6 1.5t-6.5 0.5h-6.5t-6.5 -0.5t-6 -2t-4.5 -4t-2 -6.5v-22z" />
</svg>
