<?xml version="1.0" standalone="no"?>
<!DOCTYPE svg PUBLIC "-//W3C//DTD SVG 1.1//EN" "http://www.w3.org/Graphics/SVG/1.1/DTD/svg11.dtd" >
<svg xmlns="http://www.w3.org/2000/svg" xmlns:xlink="http://www.w3.org/1999/xlink" version="1.1" viewBox="-10 0 266 256">
   <path fill="currentColor"
d="M56 242q0 3 0.5 4.5t3.5 1.5t4 -0.5t3 -2.5q1 -5 1.5 -10t1.5 -10l6 -85l3 -3q9 -1 17 -2.5t18 -1.5q2 0 5.5 0.5t4.5 0.5l1 1q0 1 0.5 4t0.5 4v4q0 1 -0.5 3t-0.5 4v2v4.5t-0.5 5t-0.5 4.5v2l-3 3h-13l-2 -2v-3t-0.5 -5t-1.5 -5t-3 -2h-2.5t-2.5 1v21v17t2 17q0 2 4.5 3
t10 1.5t10.5 0.5h6q4 0 9.5 -0.5t11 -2t9 -4.5t3.5 -9q0 -2 0.5 -9t1 -14.5t0.5 -14v-9.5v-8q-1 0 -2.5 0.5t-3.5 0.5t-3.5 1t-1.5 3v6.5t-0.5 6t-3 4.5t-6.5 2q-5 0 -6.5 -2t-1.5 -7v-4q0 -3 0.5 -7t0.5 -8v-7v-3l2 -2q9 -1 19 -2t19 -1h3q3 0 3 2q2 20 3 41.5t2 41.5
q0 5 -0.5 8.5t-0.5 7t0.5 6.5t1.5 7q1 3 1.5 3h3.5t5 -1t2 -4v-3q-1 0 -1.5 -2.5t-1 -5.5t-1 -5t-0.5 -3v-8t-0.5 -14.5t-0.5 -14.5v-9q0 -1 -0.5 -3t-0.5 -5t-0.5 -5.5t-0.5 -3.5v-8.5v-13.5v-13v-9v-40t3 -39q2 -2 2 -4v-5q0 -5 -2.5 -8t-8.5 -3l-2 0.5t-2 1.5v24l-5 3
l-2.5 0.5t-6 0.5t-7.5 0.5t-6 0.5h-8h-8q-2 -1 -3 -3t-1 -3v-27q0 -2 -2.5 -3t-3.5 -1q-4 0 -6 1.5t-2 4.5t0.5 4l1.5 3v62l-0.5 1t-1.5 2l-1 1h-39l-1.5 -0.5t-2 -0.5t-1 -0.5t-0.5 -1.5v-62q0 -1 -1.5 -2t-3 -1.5t-3 -0.5h-2.5q-2 0 -4 0.5t-2 3.5q0 17 1.5 33.5t1.5 33.5
q0 34 -0.5 68t-4.5 68q0 4 -1.5 7.5t-1.5 7.5zM104 190v-4.5t2 -2.5q4 -1 9.5 -1.5t11 -1.5t11 -1.5t10.5 -0.5h3q1 4 1.5 6.5t0.5 7.5q0 4 -1 8l-2 8h-3t-4 0.5t-4.5 1t-3.5 1.5h-26q-1 0 -2 -3t-1.5 -6.5l-1 -7t-0.5 -4.5zM76 124v-20q0 -2 1 -3.5t2 -1.5q9 -1 16 -1.5
t16 -0.5h2h4h2.5h1.5l3 4v2.5t0.5 6t0.5 5.5v2v1q0 1 -0.5 2.5t-0.5 2.5q-1 0 -1.5 1.5l-0.5 1.5h-26l-2 0.5t-2 1.5h-1h-1q-2 -1 -4 -1t-4 -0.5t-3.5 -0.5h-1.5zM174 93q3 0 5.5 1t2.5 5v3q0 3 -0.5 7t-1 7l-0.5 3l-2 2l-16 2t-16 1h-6q-1 0 -2.5 -0.5l-1.5 -0.5v-24
q0 -2 3 -3t7 -1.5t9 -1t9 -0.5h7h3zM136 83v-20q0 -2 1.5 -3.5t2.5 -1.5q9 -2 19 -2.5t19 -0.5h2t2 1v5v5q0 8 -2.5 12.5t-7 6.5t-10.5 2h-14q-2 0 -5 -0.5l-3 -0.5z" />
</svg>
