<?xml version="1.0" standalone="no"?>
<!DOCTYPE svg PUBLIC "-//W3C//DTD SVG 1.1//EN" "http://www.w3.org/Graphics/SVG/1.1/DTD/svg11.dtd" >
<svg xmlns="http://www.w3.org/2000/svg" xmlns:xlink="http://www.w3.org/1999/xlink" version="1.1" viewBox="-10 0 266 256">
   <path fill="currentColor"
d="M107 185q0 8 -0.5 19t1.5 21t7.5 17.5t16.5 7.5h69q1 0 3 -0.5l4 -1t3.5 -2t1.5 -3.5v-1q-1 0 -1.5 -1.5l-0.5 -1.5h-5q-7 0 -12.5 1t-12.5 1q-8 0 -14 -0.5t-13 -1.5q-2 -2 -2 -4v-5v-6v-8t0.5 -10t1 -8l0.5 -3l1 -2l33 -8q3 -1 5 -6.5t3 -13t1.5 -15t0.5 -10.5v-10
t0.5 -14.5t1 -14.5t0.5 -10l1 -2h21q0 -1 -0.5 -3.5t-0.5 -3.5l-0.5 -1l-0.5 -1h-19v-46q0 -1 -2.5 -2l-2.5 -1h-1q-3 0 -4.5 2t-1.5 5q0 12 2 23t2 21h-31q-3 0 -4 -3.5t-1 -5.5v-2q0 -2 0.5 -9.5t1 -16t1 -16t0.5 -9.5v-2v-2q0 -2 -1 -4t-4 -2q-2 0 -3 1t-2 3v6.5v10.5v10
v6v8.5t-0.5 14t-1 14t-0.5 7.5q0 10 0.5 19t-1.5 18q0 1 -1 1.5l-1 0.5q-1 0 -4 0.5t-6 0.5t-6 0.5t-4 0.5l-1.5 0.5t-1.5 1.5l2 5h22v4t0.5 7t0.5 7v5l-0.5 4t-2.5 5h-5t-7 0.5t-7 0.5t-5 1h-1q-1 0 -2 -0.5t-2 -1.5v-24q0 -26 3 -51.5t3 -50.5q0 -1 -0.5 -3.5t-0.5 -3.5
q-1 -2 -2.5 -3t-3.5 -1q-3 0 -5 2v46q0 7 -0.5 16t-1 18.5t-1 19.5t-0.5 17.5t-0.5 12t-0.5 5.5l-1 2h-13q-1 0 -1.5 1t-0.5 2v2.5v2.5h3.5h5.5t5.5 1t3.5 3zM115 189v-5q7 -2 11 -3t9 -1q3 0 5.5 0.5t4.5 3.5v3v4v11t-0.5 10.5t-0.5 11.5v13q-1 1 -3 2.5t-3 1.5
q-9 0 -13.5 -5.5t-6.5 -13.5t-2.5 -17t-0.5 -16zM154 178v-4v-9.5t0.5 -11t0.5 -9.5v-4l2 -2h2h4h4h3l1.5 -0.5l3 -1t2.5 -1t1 -2.5v-1q0 -1 -0.5 -3t-1.5 -2h-21q0 -7 0.5 -16t1.5 -16q0 -1 2 -2.5t3 -1.5h26l2 3v8q0 17 -1.5 34t-3.5 35q-1 4 -4 6.5t-6.5 3.5t-7 1h-6.5
h-6q-1 -1 -1 -2v-2zM36 80q0 1 0.5 3.5t0.5 5t0.5 5t0.5 3.5v4v8v8v4q0 4 0.5 11t1.5 14t3.5 13t5.5 8h10h8q4 0 8 -0.5t7.5 -1.5t6.5 -3q3 -19 2.5 -37.5t0.5 -36.5v-2v-5t-0.5 -5.5t-1.5 -4.5t-3 -2q-1 0 -3 0.5t-2 1.5v27h-5t-6.5 0.5t-6.5 0.5h-5t-6 -1l-4 -1v-20
q0 -1 -1 -1.5t-2 -0.5q0 -1 -2.5 -1.5l-2.5 -0.5q-2 0 -3.5 2.5t-1.5 4.5zM48 135v-1v-4.5t0.5 -7.5t0.5 -7.5v-4.5q3 -3 6.5 -3.5l7 -1t7.5 0t8 0.5q2 0 3.5 2.5t1.5 5.5v6.5v5.5v8.5t-1 10.5t-3 9t-7 4q-10 0 -17 -5.5t-7 -17.5z" />
</svg>
