<?xml version="1.0" standalone="no"?>
<!DOCTYPE svg PUBLIC "-//W3C//DTD SVG 1.1//EN" "http://www.w3.org/Graphics/SVG/1.1/DTD/svg11.dtd" >
<svg xmlns="http://www.w3.org/2000/svg" xmlns:xlink="http://www.w3.org/1999/xlink" version="1.1" viewBox="-10 0 266 256">
   <path fill="currentColor"
d="M133 247q0 3 1 3.5t4 0.5h1.5h1.5q5 -4 10.5 -11.5t10.5 -17.5t10 -21.5t8.5 -23t5.5 -21.5t2 -17q0 -3 -1 -5.5t-3 -4.5t-4.5 -4t-3.5 -4q-3 -2 -7.5 -3t-9 -2.5t-7.5 -4t-3 -7.5q0 -2 0.5 -5t2.5 -3l50 -5l1.5 -1t1.5 -2v0v-1q0 -1 -0.5 -1.5l-0.5 -0.5h-10
q-5 0 -13 0.5t-17.5 1t-19.5 1t-18.5 1.5t-13.5 2.5t-5 2.5v1l0.5 0.5t1.5 0.5h29l2 2q0 9 2 14t4.5 7.5t6 4t7.5 2.5t8 3t8 8v3.5v3.5q0 11 -3 22.5t-8 23t-11 22.5t-11 20q-1 2 -3 3.5t-3.5 3.5t-2.5 4t-1 4zM51 33v5q0 6 0.5 14.5t1 16.5t1 13.5l0.5 5.5l6 7h33
q1 0 2.5 -2t2 -4l1 -4t0.5 -3t0.5 -4t0.5 -6.5t0.5 -6t0.5 -3.5v-3v-5v-6v-5v-3v-6v-6v-4q-1 -1 -1.5 -1h-1.5q-3 0 -4 1.5t-1 4.5t0.5 7t0.5 7t-2 5.5t-5 2.5h-27v-24q0 -2 -1.5 -2.5t-3.5 -0.5q-3 0 -4 3v6zM60 65q0 -4 3 -6t7 -2.5t8 0t6 0.5t5.5 1t3.5 4v17q0 3 -1.5 4
t-3.5 1.5t-5 0.5h-3q-11 0 -15.5 -4.5t-4.5 -15.5zM110 74q0 2 1.5 2h2.5q4 0 9.5 -1.5t11 -4t9.5 -6t4 -7.5v-28q0 -1 2 -2l4 -2t3.5 -1.5t2.5 -0.5h2t1 1q-1 9 0 18t3 17q3 2 4 5t4 5q1 1 4.5 1.5t6.5 1.5t6.5 1.5t4.5 0.5h2q2 0 3 -0.5t1 -3.5q0 -2 -3.5 -3t-8.5 -2.5
t-10 -4t-7 -8.5q-1 -7 -1.5 -12t-0.5 -11q0 -5 3 -7t7 -2.5t7 -1t3 -3.5q0 -4 -2.5 -4.5t-4.5 -0.5q-5 0 -9.5 1t-9 2.5t-8.5 3t-8 3.5q-2 0 -8 1t-12.5 2.5t-12 3t-5.5 4.5t4 3h1l2 -0.5t4 -1.5t3.5 -1h1.5h3h3h3.5h2.5v4.5t0.5 6t0.5 6.5v4q0 5 -3.5 8.5t-8.5 5.5t-10 3.5
t-8 3.5v0v1z" />
</svg>
