<?xml version="1.0" standalone="no"?>
<!DOCTYPE svg PUBLIC "-//W3C//DTD SVG 1.1//EN" "http://www.w3.org/Graphics/SVG/1.1/DTD/svg11.dtd" >
<svg xmlns="http://www.w3.org/2000/svg" xmlns:xlink="http://www.w3.org/1999/xlink" version="1.1" viewBox="-10 0 266 256">
   <path fill="currentColor"
d="M178 247q0 3 2 3.5t4 0.5q4 0 9 -5t9.5 -11.5t7.5 -13t3 -10.5q0 -3 -1.5 -6.5t-4.5 -6t-6.5 -4t-6.5 -1.5q-8 0 -15 2.5t-14 7t-13.5 9.5t-13 9t-13.5 7t-15 3q-5 0 -8.5 -3.5t-5.5 -9t-2.5 -12.5t-0.5 -14t0.5 -12.5t0.5 -8.5q-5 0 -7 4l-1 20v1v12q0 6 1 12.5t3 12
t8 9.5h5h5q13 0 24 -6.5t21.5 -14t20 -13.5t19.5 -6q5 0 6.5 3.5t1.5 8.5q0 7 -3.5 12t-8 8.5t-8 6.5t-3.5 6zM120 50q-2 0 -4.5 1.5t-2.5 4.5v110q0 2 1 6.5t2.5 9t3.5 8t3 3.5h23q4 0 5.5 -4t2.5 -9t1.5 -9t3.5 -5q5 -2 8.5 -2.5t6.5 -1t6 -2t7 -5.5q1 -22 3.5 -41.5
t3.5 -41.5q2 -3 2 -6.5v-7.5v-4q0 -2 -0.5 -4t-1.5 -4t-4 -2q-1 0 -3 1t-2 3v56q-4 4 -5 9t-1 11v12t-1.5 10.5t-5 7.5t-10.5 3h-4t-2 -3q0 -24 0.5 -47.5t1.5 -47.5q0 -10 1.5 -20.5t1.5 -20.5q0 -8 -8 -8h-2v10.5t-0.5 15t-0.5 17.5v17.5t-0.5 15t-0.5 9.5v13v21v21v12
t-0.5 6t-1.5 8t-3 7t-6 3t-7 -3t-5 -6.5t-3 -8t-1 -8.5v-74q1 -3 1.5 -6.5t1 -8t0.5 -8.5v-7q0 -2 -1.5 -4t-3.5 -2zM49 82v17t1.5 19.5t6.5 16t15 6.5q2 0 5.5 -0.5t6 -1t5 -2t3.5 -4.5q1 -2 1.5 -7.5t1 -12t1 -12t0.5 -7.5v-3v-5v-6v-5v-3v-5.5v-5.5v-4l-1 -0.5l-1 -0.5
h-1h-1l-1.5 1.5l-1.5 1.5v27h-28l-0.5 -1.5t-0.5 -3v-3.5v-2q0 -3 0.5 -6.5t0.5 -6.5t-1.5 -4.5t-4.5 -1.5t-4 1.5t-2 4.5v19zM59 106q0 -2 0.5 -4.5l0.5 -2.5l1 -2h26v23q0 3 -1 4.5t-3 3t-4 2t-4 0.5q-5 0 -8.5 -2t-5 -5t-2 -7.5t-0.5 -9.5z" />
</svg>
