<?xml version="1.0" standalone="no"?>
<!DOCTYPE svg PUBLIC "-//W3C//DTD SVG 1.1//EN" "http://www.w3.org/Graphics/SVG/1.1/DTD/svg11.dtd" >
<svg xmlns="http://www.w3.org/2000/svg" xmlns:xlink="http://www.w3.org/1999/xlink" version="1.1" viewBox="-10 0 266 256">
   <path fill="currentColor"
d="M141 207v11v14.5t1.5 13t5.5 5.5q2 0 3 -0.5t2 -2.5v-10q0 -9 -1 -17t-1 -16v-3t0.5 -4.5t0.5 -4.5v-3q1 -5 3 -7t5 -3l6 -2t6 -3q10 -6 15 -14.5t7 -18t2 -20v-21.5v-4v-8v-7v-5q-2 -5 -2 -11t-1 -11q0 -5 -4.5 -7.5t-10 -4t-11 -2t-8.5 -0.5q-2 -2 -2.5 -3.5t-0.5 -3.5
q0 -4 1.5 -8t1.5 -8q0 -3 -1 -5.5t-5 -2.5q-1 0 -3 1.5t-2 2.5v29q-6 0 -12 1t-11 3.5t-9 6.5t-5 11q0 2 -0.5 8l-1 12t-0.5 12v8l-0.5 1.5t-0.5 3.5v5v3q0 8 1 14t3 11t5 9.5t8 10.5l1.5 3t1.5 2t2 1h3h2.5t2.5 -0.5t2 -1.5t1 -2t-2.5 -3.5t-6 -5.5t-6.5 -6t-4 -5
q-3 -4 -4 -8.5t-1.5 -9.5t-0.5 -10v-10q0 -10 1 -19.5t0 -19.5q3 -7 7.5 -10.5t10.5 -5t12.5 -2t12.5 -0.5h11q6 3 10 8t5.5 11.5t2 13.5t0.5 13q0 16 -2 30.5t-7 28.5q-1 1 -1.5 2t-0.5 2q-5 5 -10 8t-9 4.5t-7.5 3.5t-5.5 5.5t-3.5 10t-1.5 16.5zM129 133q0 3 1.5 6t4 5.5
t6 4t6.5 1.5q8 0 13.5 -4.5t10.5 -10.5q-1 -5 -0.5 -9t1 -7t1 -6.5t0.5 -7.5q-5 0 -6.5 2.5t-2 6.5t-1 8.5t-2 9t-4.5 7t-10 2.5q-3 0 -6 -3t-3 -6t1.5 -5t3.5 -4t4 -5t2 -8q0 -3 -2 -6l-4 -6l-4 -6t-2 -7q0 -3 1.5 -6t4 -5t5.5 -3.5t6 -1.5q5 0 9 2.5t4 8.5q0 5 -3 6
t-6.5 1.5t-6.5 2t-3 5.5q5 0 10 -0.5t9 -2t7 -4.5t3 -9q0 -3 -1.5 -6t-4.5 -5.5t-6 -4t-6 -1.5q-13 0 -20.5 5t-7.5 19q0 4 0.5 7.5t1.5 6t3 5.5t5 7q-1 3 -3 5.5l-4 5t-3.5 5t-1.5 5.5zM61 111q0 1 1 3t2 3.5t2 2.5t2 1h24l8 -7v-2.5t0.5 -6t0.5 -7.5v-6v-10
q0 -11 -1 -21.5t0 -22.5q-1 0 -2 -1.5l-1 -1.5h-1h-1q-1 1 -2 2.5t-1 2.5v26l-1 2h-4t-7.5 0.5t-6.5 0.5h-2h-1q-1 -2 -1.5 -5.5t-0.5 -7v-7v-5.5q0 -1 -1 -2.5t-2 -1.5h-1q-1 0 -2.5 1t-2.5 2v15q0 14 1 27t1 26zM70 85v-3v-2l3 -2h18l3 3v8v7t-1 7.5t-3 6t-7 2.5
q-6 0 -9 -2.5t-4 -6.5t-0.5 -9t0.5 -9z" />
</svg>
