<?xml version="1.0" standalone="no"?>
<!DOCTYPE svg PUBLIC "-//W3C//DTD SVG 1.1//EN" "http://www.w3.org/Graphics/SVG/1.1/DTD/svg11.dtd" >
<svg xmlns="http://www.w3.org/2000/svg" xmlns:xlink="http://www.w3.org/1999/xlink" version="1.1" viewBox="-10 0 266 256">
   <path fill="currentColor"
d="M124 250l1 0.5l1 0.5q3 0 6 -2t4 -4q0 -1 0.5 -4.5t0.5 -6.5t0.5 -6t0.5 -4v-1v-1v-15.5t-0.5 -19.5t-1.5 -21.5t-2.5 -21.5t-4 -18t-5.5 -12q-3 -5 -8 -7t-10 -4.5t-8.5 -5.5t-3.5 -9q0 -5 5 -7t11 -3t12.5 -2.5t8.5 -5.5v-3.5v-4.5v-6v-4v-4v-6v-5v-3v-4.5t-0.5 -7.5
t-2 -7t-5.5 -3q-2 0 -3 1t-1 4t1 6.5t1 6.5t-4.5 5t-10.5 3t-11.5 1.5t-8.5 1.5q-2 0 -7.5 0.5t-11.5 0.5t-11 0.5t-7 0.5q-5 0 -6.5 0.5t-1.5 4.5q0 2 0.5 3.5t2.5 3.5h5q7 0 13.5 -1.5t13.5 -1.5h8v2.5t0.5 5t1 4.5t0.5 3v1q0 4 -3.5 6.5t-8.5 3.5t-11 1.5t-11 1t-8.5 2
t-3.5 5.5q0 2 1.5 2.5t4.5 0.5q10 0 19 -2.5t18 -2.5q3 0 4 2t1.5 4.5l1 5t1.5 3.5q1 4 4 5.5t5.5 2.5t5.5 2.5t5 3.5q5 7 8.5 17.5t5 21.5t2.5 22t1 19q0 12 -2 24t-2 24v7zM158 243q1 0 3.5 0.5t3.5 1.5h1h1l3 -2v-5q0 -16 -2 -32t-2 -33q0 -21 1.5 -41t3.5 -41
q2 -9 1 -19t1 -19q1 -1 3 -2l2 -1h1q5 0 11.5 1.5t11.5 5.5v7q0 12 -1.5 25t-3 25.5t-3 25.5t-1.5 26q0 15 2 31t5 30q0 1 1 3.5t3 4.5l3.5 3.5t2.5 1.5q5 0 5 -5q0 -6 -2.5 -13t-3.5 -14q-2 -10 -3 -21.5t-1 -21.5q0 -13 1 -26t2.5 -25.5t2.5 -25.5t1 -25q0 -8 -2.5 -14
t-11.5 -8q-11 -2 -21 -4.5t-21 -2.5q-3 0 -6.5 1t-3.5 5q0 2 0.5 3t3.5 2h2.5t4.5 0.5t4.5 0.5h3.5v2.5v2.5q0 14 -1.5 28t-3.5 28l-4 28t-2 28v20q0 10 0.5 20.5t1 20.5t2.5 19zM52 130v2v2v1.5t0.5 2.5l1 2l0.5 1v16t1.5 17.5t6.5 14.5t15 6q11 0 19 -3t13 -13v-4v-6v-6.5
v-3.5t0.5 -2t0.5 -2t0.5 -2l0.5 -1v-1v-1q0 -2 -0.5 -5.5t-0.5 -7.5t-0.5 -7.5t-0.5 -5.5q0 -1 -1.5 -2t-1.5 -2h-1q-2 0 -3 2.5t-1 3.5v3v4v5v3l-4 2h-30q-2 0 -2.5 -3.5t-0.5 -7t-1 -7t-5 -3.5t-5 2t-1 6zM65 161q0 -1 0.5 -2.5l0.5 -1.5q2 -2 4.5 -3t6 -1h6.5h6h2h3h3h2
q2 1 2 2v2t-0.5 5l-1 8t-2 7.5t-3.5 3.5h-22q-1 0 -2.5 -3t-2.5 -6t-1.5 -6.5t-0.5 -4.5zM94 59q0 -8 5 -10.5t12 -2.5h3h2l2 2v3v3q0 9 -4 12.5t-13 3.5q-2 0 -3 -1t-2 -2.5t-1.5 -3.5t-0.5 -4z" />
</svg>
