<?xml version="1.0" standalone="no"?>
<!DOCTYPE svg PUBLIC "-//W3C//DTD SVG 1.1//EN" "http://www.w3.org/Graphics/SVG/1.1/DTD/svg11.dtd" >
<svg xmlns="http://www.w3.org/2000/svg" xmlns:xlink="http://www.w3.org/1999/xlink" version="1.1" viewBox="-10 0 266 256">
   <path fill="currentColor"
d="M144 142v9v14t0.5 18t1 16.5t0.5 9.5q0 12 5.5 15.5t16.5 3.5h4q2 0 5 -0.5t7 -0.5t7.5 -0.5t5.5 -0.5q4 -2 6 -7t2 -10q0 -2 0.5 -6t0.5 -8.5t0.5 -8.5t0.5 -6v-26v-25q0 -1 -0.5 -1.5t-1.5 -0.5t-3.5 -0.5t-3.5 -0.5v32l-4 3h-40q-2 0 -2 -5t0.5 -11t0 -11t-3.5 -5
t-5 3v10zM54 152v26t2.5 24t10 17.5t23.5 6.5q11 0 17.5 -4t10 -11.5t5 -16.5t1.5 -18.5v-18.5v-16v-2.5v-2.5q0 -3 -1 -5t-4 -2t-4.5 2.5t-2.5 5.5v4.5t-0.5 6t-0.5 6.5v4l-2 2h-3t-8 0.5t-9.5 0.5h-7.5h-2.5h-4.5h-3.5h-2.5q-1 -2 -1 -8t-0.5 -12.5t-2 -10.5t-5.5 -3
q-1 0 -2.5 2t-2.5 3v20zM152 181q0 -2 1 -5t2 -3h39l3 2v3v4v16.5t-2.5 10.5t-8 5.5t-15.5 1.5h-4.5h-4.5q-3 0 -5 -5t-3 -11.5t-1.5 -12t-0.5 -6.5zM69 189v-12q1 -2 5.5 -3t10.5 -2t11.5 -1.5t7.5 -0.5q4 0 5.5 1.5t2 4t0.5 5.5v5q0 15 -5 21t-19 6h-11q-4 -1 -5.5 -4
t-2 -6.5t-0.5 -7v-6.5zM97 95q1 2 2.5 4t3.5 3.5t4.5 2.5t4.5 1h37q2 0 4.5 -2t4 -4.5t3 -5.5t1.5 -5t0.5 -7.5l1 -11l1 -11t1.5 -7.5v-10v-9q-1 -3 -3 -4t-4 -1t-3 0.5t-2 2.5q0 6 0.5 11t-2.5 10l-0.5 1t-1.5 1h-36q-5 0 -7 -3t-2.5 -6.5t0 -7.5t1.5 -7q-1 -2 -1.5 -2
h-2.5t-4 1t-2.5 3.5l-1 5t-0.5 4.5v3q0 3 0.5 10t1 15t1 15t0.5 10zM105 71q0 -2 0.5 -3t3.5 -2q2 -1 6.5 -1.5t9.5 -1t9.5 -1t6.5 -0.5h4q2 0 4 0.5t3 3.5v9v8t-2 7.5t-4.5 5.5t-8.5 2q-8 0 -14 -0.5t-10 -3.5t-6 -8t-2 -15z" />
</svg>
