<?xml version="1.0" standalone="no"?>
<!DOCTYPE svg PUBLIC "-//W3C//DTD SVG 1.1//EN" "http://www.w3.org/Graphics/SVG/1.1/DTD/svg11.dtd" >
<svg xmlns="http://www.w3.org/2000/svg" xmlns:xlink="http://www.w3.org/1999/xlink" version="1.1" viewBox="-10 0 266 256">
   <path fill="currentColor"
d="M126 240v5v3l3 3l7 -6v-37l4 -3q15 0 20.5 -8t5.5 -22v-7l-1 -1t-2 -1h-1q-1 0 -2 4.5t-2.5 10t-5 10t-9.5 4.5q-2 0 -3.5 -1.5t-1.5 -3.5v0q1 -2 1 -5t0.5 -6t0.5 -5.5v-2.5q0 -1 0.5 -2.5t1.5 -2.5q2 -3 5.5 -4.5t7 -4t6 -5.5t2.5 -10q0 -6 -4 -10t-8 -7h-8
q-5 0 -11 0.5t-11.5 2.5t-9 6t-3.5 10q0 7 3.5 10.5t8 5.5t8 4t3.5 7q0 6 -1 12t-1 12q0 2 -1 2h-2t-3.5 -0.5t-5.5 -1.5t-5 -3t-2 -4v-20l-1 -0.5t-1 -1.5q-1 0 -3 -0.5l-2 -0.5q-2 0 -2.5 3t-0.5 4v4q0 1 0.5 3.5t0.5 5.5t0.5 5.5t0.5 3.5q3 7 10 9.5t14 1.5q1 1 1.5 2.5
t0.5 3.5q0 7 -1 14t-1 15zM144 113h2h6.5t8 0.5t6.5 0.5h4q6 1 9 5t4 9t0.5 11t-0.5 11q0 1 0.5 6.5t0.5 12.5v15t0.5 15t0.5 12.5v6.5q0 3 0.5 7.5l1 9t2.5 8t5 3.5q6 0 6 -7q0 -4 -2 -9.5t-2 -9.5q0 -1 -0.5 -6t-1 -11l-1 -12t-0.5 -9v-5q0 -5 0.5 -10t0.5 -10v-6
t-0.5 -10t-1.5 -12.5t-2.5 -11.5t-4 -8.5t-6.5 -3.5h-26q-1 0 -1.5 -0.5l-0.5 -0.5v-5v-5q1 -1 3 -1.5t4.5 -0.5t4 -0.5t2.5 -0.5q6 -1 9.5 -3t5.5 -5t3 -7t1 -9q0 -3 -2 -4.5t-4 -1.5q-4 0 -4.5 3t-1 7t-3.5 7.5t-12 3.5h-4l-2 -2v-21q0 -2 2.5 -2t6 -0.5t7.5 -1t7 -3
t5.5 -8t2.5 -14.5q0 -3 -1 -5.5t-5 -2.5q-2 0 -2 4t-1 9t-4 9t-12 4l-2.5 0.5t-3.5 -1.5v-4v-7v-6v-5q0 -3 -1 -6.5t-6 -3.5h-5.5t-10 0.5t-11.5 1.5t-11 2t-8.5 3t-3.5 4t2 3t4 1q9 0 18.5 -2.5t18.5 -2.5h4t2 3v20h-18q-3 0 -4.5 -2t-1.5 -5t-1 -5.5t-4 -2.5
q-2 0 -2.5 2.5t-0.5 4.5q0 7 3 10.5t8 5t10.5 1.5t10.5 1v21l-2 3h-7h-8.5t-7.5 -3q-1 -1 -2 -5.5t-2 -5.5q0 -1 -1 -3t-3 -2q-1 0 -1.5 1.5t-0.5 3.5v3.5v1.5q0 7 3.5 11t8.5 5.5t11 2.5t11 1q2 0 2 2v3q0 2 -1 5t-4 3h-32q-1 0 -3 2t-2 3t1.5 2l1.5 1q1 1 3 1h3q8 0 16 -1
t16 -1zM119 144q0 -4 2.5 -6t6 -3.5t7.5 -1.5h7q6 0 8 3t2 9q0 3 -1 5t-3.5 3t-5 1h-4.5h-6t-6 -1t-5 -3t-2 -6zM56 111q3 9 9 11t15 2q1 0 3.5 -0.5t4.5 -1.5l4 -2t2 -3l3 -13v-17v-18t-2 -18q0 -1 -1 -2.5t-3 -1.5q-3 0 -4 2t-1 4q0 4 1 8t1 8t-1.5 6t-4 2.5t-5.5 1
t-6 0.5q-2 0 -5 -0.5t-3 -3.5v-21q0 -2 -2 -2.5t-3 -0.5t-2 0.5t-2 1.5v10v10q0 2 0.5 7.5t0.5 11.5t0.5 11.5t0.5 7.5zM63 96q0 -2 1 -5t4 -3h18q2 0 2 1v2v2q0 1 -0.5 2.5t-0.5 4t-0.5 4.5t-0.5 3q-2 3 -4.5 3.5t-5.5 0.5q-8 0 -10.5 -4t-2.5 -11z" />
</svg>
