<?xml version="1.0" standalone="no"?>
<!DOCTYPE svg PUBLIC "-//W3C//DTD SVG 1.1//EN" "http://www.w3.org/Graphics/SVG/1.1/DTD/svg11.dtd" >
<svg xmlns="http://www.w3.org/2000/svg" xmlns:xlink="http://www.w3.org/1999/xlink" version="1.1" viewBox="-10 0 266 256">
   <path fill="currentColor"
d="M159 199q0 7 1.5 12.5t4 10t6 8.5t8.5 8q4 4 8.5 8t10.5 4q3 0 5.5 -1.5t2.5 -4.5v-1v-1q-5 -2 -11.5 -6.5t-12.5 -10t-10.5 -12t-4.5 -12.5q0 -8 5 -12.5t10.5 -9t10 -10t4.5 -15.5q0 -5 -2.5 -8.5t-6.5 -5t-9 -2.5t-9 -2t-6.5 -3.5t-2.5 -6.5t2 -5.5t6 -2t9 -1t9 -1.5
t8 -3t6 -6q3 -6 3 -14v-15q0 -3 0.5 -8.5t0 -12t-1 -14t-2 -13.5t-4.5 -10t-8 -4h-18q-7 0 -15.5 -0.5t-16 1t-13 6t-7.5 13.5v4v5v5v4v12v11t0.5 11t0.5 14q2 6 7 9.5t11 5.5t10 4t4 7t-3 7.5t-8 4.5t-9.5 3.5t-7.5 3.5q-6 3 -9.5 9t-6 13t-4 14.5l-2.5 12.5v49q0 3 1 3h3
q3 0 4.5 -1t3.5 -4q-2 -7 -2 -14v-14q0 -13 2 -26t7 -23t15 -16.5t26 -6.5q4 0 8.5 0.5t8 2t6 4.5t2.5 9v3q-3 4 -8 8t-9.5 8t-7.5 9t-3 12zM50 102q1 4 2 6.5t5 3.5h2h4h3h3h9t9 -1.5t7.5 -4t5.5 -8.5q0 -3 0.5 -10.5t1 -16t0.5 -16v-10.5v-3v-3t-0.5 -4t-1.5 -3t-2 -1
q-4 0 -5 3.5t-1 7.5v9q0 5 -2 6q-1 0 -4.5 0.5t-7.5 0.5t-7.5 0.5t-4.5 0.5h-4h-3t-2 -2v-19q0 -2 -1 -3t-2 -1q-2 0 -3 1.5t-1.5 3.5t-0.5 4v3v8v9t0.5 14.5t0.5 14.5v10zM129 94v-1v-2t0.5 -2t1.5 -1t3.5 -0.5t6 -0.5t6 -0.5t4.5 -0.5h8.5h13.5h13h9q0 8 -4 13.5t-9.5 8
t-12.5 3.5t-14 1q-4 0 -8.5 -1t-8.5 -3t-6.5 -5.5t-2.5 -8.5zM57 84q0 -5 0.5 -8t4.5 -7q6 0 11.5 -2t11.5 -2q2 0 3.5 0.5t1.5 3.5q0 1 0.5 3t1 4.5t0.5 5v2.5v3q0 8 -5.5 11.5t-12.5 3.5q-9 0 -13 -4t-4 -14zM127 76v-19q16 -2 28.5 -3t27.5 -1q1 0 5 0.5t5 0.5l1 1
q0 1 0.5 3.5t1 6.5t0.5 6v1v1q-1 0 -2 1.5l-1 1.5q-8 1 -14 1t-12 0.5t-12.5 0.5h-13.5h-3h-4h-3h-2zM127 43q0 -9 5 -13.5t12 -6t15 -1.5h14h10q4 2 7 7t3 11v3t-2 2q-3 0 -11 0.5t-17.5 1t-17.5 1t-11 0.5h-2q-2 0 -3.5 -1.5t-1.5 -3.5z" />
</svg>
