<?xml version="1.0" standalone="no"?>
<!DOCTYPE svg PUBLIC "-//W3C//DTD SVG 1.1//EN" "http://www.w3.org/Graphics/SVG/1.1/DTD/svg11.dtd" >
<svg xmlns="http://www.w3.org/2000/svg" xmlns:xlink="http://www.w3.org/1999/xlink" version="1.1" viewBox="-10 0 266 256">
   <path fill="currentColor"
d="M150 243v1v2.5t0.5 3l0.5 1.5h9q0 -16 -1 -31t-1 -30q0 -3 2.5 -4t6.5 -1.5t7.5 0t5.5 0.5h4h4q3 2 4 4t1 3.5v4v5.5t1 9t1.5 13.5t1.5 14t1 8.5t1.5 2h2.5q6 0 6 -6q0 -9 -2 -17.5t-3 -16.5q-2 -29 -3.5 -56.5t-1.5 -56.5q-1 -2 -2 -2.5t-3 -0.5q-3 0 -4.5 2.5t-2 6.5
t-0.5 7.5v5.5l-3 1h-25v-28l1 -2q9 -2 16 -5t12.5 -7.5t8 -11.5t2.5 -16v-9q-4 -6 -11 -9.5t-14.5 -4.5t-14.5 -1h-15q-2 0 -5.5 0.5t-3.5 3.5t1.5 5t5.5 2h35q4 0 6 1.5t3 4t1 5v5.5q0 4 -1.5 9t-4.5 9t-7 6.5t-9 2.5h-3t-2 -2v-19q0 -3 -5.5 -4t-11.5 -2t-11.5 -2.5
t-6.5 -5.5l-3 -26q0 -2 -2 -2.5t-4 -0.5t-4 1t-2 3v1q1 2 2.5 6.5t3 9.5t3 9.5t2.5 6.5q1 3 3 5q5 1 10 1.5t9 2.5t6 5.5t2 10.5q0 3 -3 4t-6 1q-8 0 -15.5 -1t-14.5 -1q-3 0 -5 0.5t-2 3.5v2q6 0 11 1t9.5 1.5t9.5 0.5h12l2 2v1.5v4.5v5v4v21.5t-2 22.5h-8h-4t-6 -0.5
t-5.5 -1t-2.5 -2.5v-28q0 -2 -0.5 -3.5l-1 -3t-1.5 -3t-3 -1.5l-0.5 0.5l-0.5 0.5q0 11 -0.5 21.5t-0.5 20t-1 19t-3 19.5q-1 1 -2 6.5t-2 12t-2 12t-1 6.5q0 2 -1.5 5t-2.5 6t-2 6.5t-1 5.5t0.5 3t3.5 1q4 0 7 -4.5t4.5 -11t2 -14t1 -14.5t1.5 -11.5t4 -4.5q1 0 2.5 -0.5
t3.5 -1t4 -0.5h3h3h9t8 3v14q0 10 -0.5 19.5t-0.5 19.5zM118 169q0 -5 1 -8t4 -4.5t7 -1.5h9h7q2 0 3 2t1 4v4.5v3.5t-0.5 2.5t-0.5 3t-1 2.5t-2 1h-26q-1 0 -1.5 -1t-0.5 -2v-2v-4zM156 162q0 -4 2.5 -6.5t5.5 -3t7 -1t8 -0.5h1q1 1 4 2t4 2l1 0.5t1 1.5v20q-7 1 -12 1.5
t-11 0.5q-8 0 -9.5 -5t-1.5 -12zM156 143v-6q0 -3 0.5 -7t2.5 -5h4h4h9.5t9.5 1q2 2 3 3.5t1 3.5v1q-1 2 -1.5 5t-0.5 4q-1 0 -4.5 0.5t-7 0.5t-7 0.5t-5.5 0.5h-3h-3q-1 0 -2 -2zM47 61v5v6.5v5.5v3q0 2 0.5 6t2 8t3.5 7t6 3h25q3 0 6 -3t3 -6q0 -2 0.5 -9t1 -14.5t1 -14
t0.5 -9.5v-2v-2q0 -3 -2 -6.5t-6 -3.5q-1 0 -1.5 1l-0.5 1v26l-2 0.5t-3 0.5h-7h-3h-5t-5 -0.5l-2 -0.5v-22q0 -3 -1.5 -3.5t-3.5 -0.5t-4 0.5t-3 3.5v4v5.5v6.5v4zM59 79v-3v-2l0.5 -0.5t1.5 -0.5h22q3 0 3 2.5v3.5q0 9 -3 13t-11 4h-6q-4 -3 -5.5 -7.5t-1.5 -9.5z" />
</svg>
