<?xml version="1.0" standalone="no"?>
<!DOCTYPE svg PUBLIC "-//W3C//DTD SVG 1.1//EN" "http://www.w3.org/Graphics/SVG/1.1/DTD/svg11.dtd" >
<svg xmlns="http://www.w3.org/2000/svg" xmlns:xlink="http://www.w3.org/1999/xlink" version="1.1" viewBox="-10 0 266 256">
   <path fill="currentColor"
d="M92 246l3 3h103q2 0 3 -1.5t1 -3.5q0 -4 -3 -5t-6 -1q-2 0 -3.5 0.5t-2.5 1.5h-36l-2 -1v-16v-25q0 -5 0.5 -12.5t0.5 -15t0.5 -13t0.5 -6.5l2 -2h34l0.5 -2t0.5 -3t-0.5 -2l-0.5 -1h-36v-26l1.5 -0.5t1.5 -1.5q3 -1 7 -1.5t8.5 -0.5t7.5 -1t3 -4t-2 -5q-1 0 -2.5 -0.5
t-2.5 -0.5q-3 0 -8 0.5t-10 1.5t-8.5 3.5t-4.5 7.5v24l-1 4h-31v8h31l0.5 2.5t0.5 3.5v2v36t-1 36q0 1 -0.5 3.5t-1.5 4.5t-2 3.5t-3 1.5h-39zM105 224q2 4 5 4t4.5 -3t3 -7.5t2 -9.5l1 -10t0.5 -9v-6v-15q-2 -2 -3 -2h-3h-2t-1 2l-2 28t-5 28zM171 218q1 1 2 2.5t2 1.5v0h1
q1 0 3 -2.5l2 -2.5q-3 -15 -4 -28.5t-1 -28.5q-3 0 -6.5 1t-3.5 5q0 6 0.5 13t1.5 14.5t2 14t1 10.5zM42 52v89q0 3 2.5 4.5t6 2t6.5 0.5h4q6 0 10 -1t6.5 -3.5t3 -7t0.5 -10.5q0 -1 0.5 -6t0.5 -11v-13t0.5 -13t0.5 -10.5v-6.5v-7v-7q0 -1 -2 -3l-3 -3h-1v0v0q-1 0 -2 1
l-1 1v33q0 1 -2 2t-4.5 1h-5.5h-4h-1h-2t-2 -0.5t-1 -1.5v-30h-10zM69 91h4q2 3 2 6.5v5.5v9t-0.5 12t-3 10.5t-6.5 4.5q-2 0 -4.5 -0.5t-4.5 -1t-3.5 -2t-1.5 -4.5v-38h1.5t3.5 -0.5t4.5 -1t4.5 -0.5h4zM92 104q0 2 0.5 3t1.5 1h1l1.5 -1l1.5 -1q13 -17 24 -34.5t22 -34.5
l2 -2l2 -2v0h1q6 5 13 15.5t15 21t15.5 18t13.5 7.5h4t4 -4q-1 0 -2 -1.5t-2.5 -2.5t-2.5 -2.5t-2 -2.5l-0.5 -1.5l-0.5 -1.5q-3 -3 -6 -5l-6 -4q-4 -3 -6 -5.5t-3.5 -5.5t-3.5 -6t-4 -7q-2 -2 -6 -7.5t-8.5 -11.5t-8 -11t-4.5 -5v1q-1 0 -1.5 0.5l-0.5 0.5q-11 24 -25 46
t-29 43v2zM125 77l2 2h44q1 0 1.5 -1l0.5 -1v-1v-1l-0.5 -1t-1.5 -1h-42z" />
</svg>
