<?xml version="1.0" standalone="no"?>
<!DOCTYPE svg PUBLIC "-//W3C//DTD SVG 1.1//EN" "http://www.w3.org/Graphics/SVG/1.1/DTD/svg11.dtd" >
<svg xmlns="http://www.w3.org/2000/svg" xmlns:xlink="http://www.w3.org/1999/xlink" version="1.1" viewBox="-10 0 266 256">
   <path fill="currentColor"
d="M167 221q1 1 3 4t5 6.5t5 7t3 4.5q3 3 6 5.5t7 2.5h2h2q1 -2 1 -3.5v-3.5t-4 -5.5t-9.5 -9t-10 -12.5t-4.5 -15q0 -5 1 -9t2.5 -7.5t2.5 -8t1 -8.5q0 -5 -3 -9.5t-7 -7.5t-7.5 -5.5t-3.5 -3.5v-1q0 -1 1 -2.5t1.5 -3.5l1 -4t1.5 -2q0 -2 2 -2.5t4.5 -1t4.5 0t3 0.5h7
l0.5 0.5l0.5 0.5q4 7 5.5 16.5t3.5 16.5q1 1 2 1.5t2 0.5q2 0 3.5 -1t0.5 -4q-3 -7 -5 -14.5l-4 -15t-3 -15t0 -15.5q-1 -1 -2 -1h-2h-2t-2 1v18l-3 1q-3 2 -7.5 2.5t-8.5 0.5v0q-1 -5 -3.5 -10.5t-2.5 -11.5q0 -5 3 -7t7.5 -3l9 -2t7.5 -3q1 -2 2 -6t1 -8v-7.5v-5.5v-14
q-1 -2 -2 -3.5t-3 -1.5t-2.5 1t-1.5 2.5t-1.5 2.5t-1.5 2q-3 1 -5.5 1.5t-5.5 0.5h-5t-5 1q-9 1 -16 3.5t-16 2.5q0 -9 1.5 -13t4.5 -6.5t7.5 -3.5t10.5 -4q1 0 2.5 -0.5t2.5 -0.5l34 -3q0 -1 0.5 -2.5l0.5 -1.5q0 -2 -0.5 -4t-3.5 -2h-1q-3 1 -8.5 2t-11.5 2t-11 1.5
t-7 1.5q-5 1 -9.5 2t-8.5 3t-7 6t-4 9q0 3 -1 7t-1.5 8t-1 7l-0.5 3q0 2 -0.5 7.5t-1 12t-1 12.5t-0.5 9v16q-1 18 -4 36t-5 36v3.5t-0.5 6t-0.5 6v3.5q-1 4 -3 8.5t-4 8.5t-3.5 8.5t-1.5 8.5q6 0 10 -6.5t7 -17t5 -23t3.5 -24.5t2.5 -22t1 -15l1 -1.5l1 -1.5q2 0 5.5 -1
t8 -1.5t8.5 -1.5t5 -1l2 -0.5t3 -0.5h1q3 0 3 1.5v3.5v2.5v1.5q-3 8 -8 15t-10 15t-8.5 16t-3.5 16v3q0 3 0.5 8.5t0.5 11v9.5v5q0 2 0.5 4t0.5 3.5t1.5 2.5t3.5 1h2t1 -1t0.5 -2.5t0.5 -3.5v-3v-2q0 -5 -1 -10t-1 -11q0 -7 1 -13t2.5 -11t4 -10.5t5.5 -10.5q2 -2 3 -5
t2.5 -5.5t3 -4t4.5 -1.5q1 0 3 0.5t4 2t3.5 3.5t1.5 3v18q-6 10 -6 23q0 4 0.5 7t2.5 9zM144 92q3 0 4.5 1.5t2 4t0.5 5.5t1 5q0 2 1.5 4.5t1.5 5.5t-4.5 5t-10.5 3t-12 1.5t-8 0.5t-2.5 -0.5t-0.5 -4.5v-23q0 -3 3.5 -4.5t8.5 -2.5t9.5 -1h5.5zM57 51v3q0 8 -0.5 17t1 16
t6.5 11.5t15 4.5q3 0 6.5 -0.5t6 -2t4.5 -4.5t2 -7v-47q0 -2 -2 -2h-3q-3 0 -3.5 2.5t0 5.5t0.5 6t-3 5h-3t-4.5 0.5l-5 1l-2.5 0.5h-3q-2 0 -2.5 -0.5t-0.5 -3.5l-0.5 -2t-0.5 -4.5t-0.5 -4.5t-0.5 -3q-1 -2 -4 -3q-3 5 -3 11zM66 79q0 -3 1 -7t5 -4h18v4v5v5.5v3.5
q0 4 -5 7t-9 2q-6 -1 -8 -6t-2 -10zM119 81v-5v-6t1.5 -5t3.5 -3q5 -1 11 -2.5t12 -2.5t11.5 -2t10.5 -1h4h4q3 1 3 2.5v3.5v8t-3 7q-5 3 -12 5.5t-14.5 4t-14.5 2t-13 0.5q-4 0 -4 -1v-5z" />
</svg>
