<?xml version="1.0" standalone="no"?>
<!DOCTYPE svg PUBLIC "-//W3C//DTD SVG 1.1//EN" "http://www.w3.org/Graphics/SVG/1.1/DTD/svg11.dtd" >
<svg xmlns="http://www.w3.org/2000/svg" xmlns:xlink="http://www.w3.org/1999/xlink" version="1.1" viewBox="-10 0 266 256">
   <path fill="currentColor"
d="M122 189q2 1 3.5 4t2.5 6l2 6t1 5q2 5 6 12t8.5 13.5t10.5 11t12 4.5q3 0 3.5 -1.5t0.5 -3.5q0 -3 -4.5 -6.5t-10.5 -8t-10.5 -10.5t-4.5 -14q0 -3 1.5 -6.5t4.5 -5.5q7 -1 14.5 -3.5t13.5 -7t9.5 -10.5t3.5 -14q0 -7 -2.5 -11t-5 -7t-5 -5t-2.5 -4v-27q0 -1 -1.5 -1
h-2.5t-1.5 0.5t-0.5 2.5v25q0 2 1 4t3 3.5t3.5 3t2.5 3.5q1 3 1 7v8v9q-2 2 -4.5 5t-6 5.5t-7 4t-6.5 1.5q-2 0 -2.5 -2t-0.5 -3q0 -8 2.5 -15.5t2.5 -15.5v-1.5v-3t-0.5 -3t-1.5 -1.5h-1q-1 1 -2.5 2l-1.5 1v9t-0.5 7.5t-1.5 7t-2 8.5q0 2 -0.5 5t-1.5 6t-2.5 5t-4.5 2
q-1 0 -2 -1.5t-2 -3.5l-2 -4t-1 -3v-39q-1 0 -4 1t-2 3q0 2 -0.5 5.5t-0.5 8t-0.5 8.5t-0.5 5t-0.5 3.5t-0.5 3t-0.5 1t-1.5 0.5q-4 0 -7.5 -1.5t-6 -4.5t-4 -6.5t-1.5 -7.5q0 -7 2 -11t5.5 -6.5t7.5 -5t7 -7.5q2 -3 3.5 -7.5t2.5 -9t1.5 -9t0.5 -7.5q0 -2 -1.5 -3t-3 -1.5
t-3.5 -0.5h-3v32q0 1 -4 4t-9.5 6.5t-9.5 7t-4 6.5v20l0.5 1t1 2.5t1.5 3t2 2.5q2 3 5 4.5t6 2.5t7 1.5t7 0.5zM146 127q3 2 5 2h1.5h0.5l2 -28q1 -1 2.5 -3t2.5 -2h25q0 -2 -1 -4t-3 -3h-6q-9 0 -14.5 1t-9 4t-4.5 8t-1 14v11zM59 106q0 3 2.5 5.5t5.5 2.5h2q2 0 5.5 -1
t7 -1.5t7 -0.5t4.5 -1q2 -1 3 -2.5t2 -2.5q0 -3 0.5 -8.5t0.5 -11t0.5 -11t0.5 -7.5v-2v-3v-4v-3v-2v-4v-4v-2q-1 -2 -2 -2.5t-3 -0.5h-2t-1 1v24l-3 3h-22v-2.5v-4v-3.5v-3v-1.5t0.5 -3t0.5 -3v-1.5q0 -3 -2 -4t-4 -1q-3 0 -4 2.5t-1 4.5v4q0 3 0.5 10.5t0.5 16t0.5 16.5
t0.5 11zM81 76h5h5q1 0 1 2.5v3.5v10q0 4 -1 7t-4.5 4.5t-9.5 1.5q-1 0 -3 -0.5t-3.5 -1t-2.5 -2t-1 -3.5v-19l0.5 -0.5t0.5 -1.5q4 -1 6 -1h7zM114 67q-3 3 -4.5 5.5t-1.5 7.5q3 0 7.5 -4t9 -10t9 -12.5t9 -12.5l7.5 -10t4 -4q2 0 5.5 3.5t7.5 9t8.5 11.5t8.5 11.5t7.5 9
t5.5 3.5t3 -0.5t1 -2.5q0 -5 -3.5 -9t-6.5 -7l-2.5 -2.5l-5.5 -5.5l-5 -5l-3 -3q-2 -3 -4.5 -7.5t-5.5 -9t-6.5 -8t-7.5 -3.5l-0.5 0.5t-0.5 1.5q-3 3 -4 6t-3 6q-4 5 -7.5 9.5t-6.5 9.5t-6.5 10t-8.5 12zM133 67q0 1 1 2t2 1h3h2h8q6 0 11.5 -0.5t10 -1.5t4.5 -4v0
q0 -1 -0.5 -1.5l-0.5 -0.5h-4.5h-4.5h-8t-10.5 0.5t-9.5 1.5t-4 3z" />
</svg>
