<?xml version="1.0" standalone="no"?>
<!DOCTYPE svg PUBLIC "-//W3C//DTD SVG 1.1//EN" "http://www.w3.org/Graphics/SVG/1.1/DTD/svg11.dtd" >
<svg xmlns="http://www.w3.org/2000/svg" xmlns:xlink="http://www.w3.org/1999/xlink" version="1.1" viewBox="-10 0 266 256">
   <path fill="currentColor"
d="M118 198q3 6 2.5 12t-0.5 13q1 10 5.5 15.5t11 8t14.5 2.5h16q7 0 13 -1.5t11 -5.5t8.5 -10t3.5 -14v-3q0 -2 -0.5 -9t-0.5 -15t-0.5 -14.5t-0.5 -8.5q0 -4 0.5 -8.5t0 -9t-2.5 -8t-7 -3.5q-3 0 -4.5 0.5t-1.5 4.5t1 7.5t1 7.5v1l-0.5 1.5t-1.5 3t-2 1.5q-2 0 -5.5 -2.5
t-7 -5.5t-6 -6t-3 -4.5t-1 -4.5t-0.5 -5t-1.5 -4t-3.5 -2h-2v7.5t-0.5 8.5t-2 8t-4.5 6q-1 1 -3.5 2.5t-4.5 3t-3.5 2.5l-1.5 1h-5q0 -1 -0.5 -4.5t-1 -8t-1 -8.5t-1.5 -7l-0.5 -1l-0.5 -1q-2 0 -5 2.5t-3 4.5v1q0 2 0.5 9t1 15t0.5 15v10zM137 234q-4 -4 -5.5 -8.5
t-1.5 -9.5t5 -7.5t12 -3t13.5 -0.5h10.5h3h5t5.5 0.5t3.5 0.5q1 1 1 4v4q0 8 -2.5 12.5t-6.5 7t-9.5 3.5t-11.5 1q-3 0 -5.5 -0.5t-5 -0.5t-5 -1t-6.5 -2zM129 190l2 -2.5t5.5 -5t7.5 -5.5t7.5 -5.5t6.5 -4l3 -1.5q3 0 7.5 2.5t9.5 5.5t8.5 7t3.5 6q0 5 -2 7t-7 2h-51
q-1 0 -1 -2.5v-3.5zM115 45q0 20 2.5 40.5t6.5 40.5q0 1 0.5 2.5l0.5 1.5q1 0 4 0.5l3 0.5q0 -10 -1 -20.5t-2.5 -21.5t-2.5 -21.5t-1 -20.5v-8q1 -2 3.5 -4t4.5 -2v0.5t1 0.5q3 16 5.5 32.5t4.5 33.5v3v4v5v3q1 5 1.5 6.5t4.5 1.5q1 0 2 -0.5t2 -2.5v-8q0 -10 -1.5 -19.5
l-3 -19l-3 -19t-1.5 -19.5q0 -6 3.5 -7.5t7 -2t6.5 -2t3 -7.5q-8 0 -16.5 0.5t-16 3t-12.5 8.5t-5 17zM179 47q0 2 1.5 8t3 12.5t2.5 12.5t2 8q0 3 2 10t4 13.5t5 11.5t6 5q8 0 8 -8q0 -2 -1 -5t-2.5 -5.5l-3 -5t-1.5 -4.5q-3 -8 -6 -17t-5 -17q0 -2 -0.5 -5.5t-1 -8t-1 -8
t-0.5 -5.5t2 -3t4.5 -2.5t5 -3.5t2.5 -6q0 -3 -3.5 -3.5t-4.5 -0.5h-2.5h-1.5q0 1 -2 1.5t-3.5 2t-3.5 2.5t-3 2q-5 3 -8.5 5.5t-6.5 5.5t-4 7.5t-1 10.5q0 2 0.5 8t1.5 13.5t2 16t3 15.5t4 11.5t4 4.5q3 0 4 -2t1 -5q0 -7 -1.5 -14.5t-3.5 -15t-3.5 -15.5t-1.5 -17v-3
q0 -2 0.5 -4t1.5 -3t3 -1l1.5 0.5zM49 100q1 3 1.5 6l1 6t2 5.5t3.5 4.5h2.5h2.5q2 0 3.5 0.5t2.5 0.5q4 0 8 -0.5t7.5 -1.5t7 -3.5t6.5 -6.5v-23q0 -5 0.5 -14.5t0 -18.5t-4 -15.5t-11.5 -6.5q0 5 1.5 10t1.5 10l-0.5 0.5l-0.5 0.5q0 2 -2 4l-2 2h-21l-2 -2v-5
q0 -3 -0.5 -6.5t-2 -6.5t-4.5 -3q-2 0 -4 1t-2 4v1l0.5 1.5t0.5 3t0.5 3t0.5 2.5q0 2 0.5 9t1 14.5t1 14t0.5 9.5zM57 78v-1q1 0 1.5 -1.5t0.5 -2.5q1 0 4.5 -0.5t7.5 -1t7 -1t5 -1.5h1v0q1 0 1.5 1t0.5 2v2t0.5 3.5t0.5 3.5v3v7q0 5 -1 9t-3.5 6.5t-6.5 2.5
q-7 0 -10.5 -2.5t-5.5 -7t-2.5 -10t-0.5 -11.5z" />
</svg>
