<?xml version="1.0" standalone="no"?>
<!DOCTYPE svg PUBLIC "-//W3C//DTD SVG 1.1//EN" "http://www.w3.org/Graphics/SVG/1.1/DTD/svg11.dtd" >
<svg xmlns="http://www.w3.org/2000/svg" xmlns:xlink="http://www.w3.org/1999/xlink" version="1.1" viewBox="-10 0 266 256">
   <path fill="currentColor"
d="M95 245q0 1 1 2t3 1h10h11q1 0 7.5 -0.5t14.5 -0.5t17 -0.5t17 -1t14 -1t8 -0.5q1 0 2.5 0.5t3 0l3 -1t1.5 -3.5q1 -2 -2 -3.5t-5 -1.5h-46v-44h36q2 0 3.5 -2.5t1.5 -3.5t-0.5 -1.5l-0.5 -0.5q-1 -1 -2.5 -1.5l-1.5 -0.5h-36v-29l3 -1t4 -1q2 0 6.5 -0.5t10 -0.5
t10 -0.5t6.5 -0.5q2 1 2.5 -0.5t0.5 -2.5v-2.5t-2 -1.5h-9q-20 0 -40.5 1.5t-40.5 2.5q-2 0 -2 1v2q0 2 0.5 3t3.5 1h39v27l-2 4h-4.5t-7 0.5t-6.5 0.5t-4 1h-4h-4.5t-4 1t-1.5 4q0 1 0.5 2.5t1.5 1.5h34v41l-48 5q-1 1 -1.5 2.5t-0.5 2.5zM51 65q-1 0 -2 0.5t-1 1.5v85
q0 3 2.5 6.5t5.5 4.5h2.5h3.5h3h2q5 0 9 -0.5t7.5 -2t5 -5t1.5 -8.5q0 -1 0.5 -6.5t0.5 -12t0.5 -12.5t0.5 -9v-7v-8v-7.5t-0.5 -7.5t-1.5 -10h-2h-3t-2 2v34h-28v-34q0 -1 -1.5 -2.5t-2.5 -1.5zM54 131v-3t0.5 -4t0.5 -4v-2q0 -2 3 -3l6 -2t6 -1h5h3.5h3.5v6t0.5 8.5t0.5 9
v5.5v2q0 1 -0.5 3t-1.5 3.5l-2 3t-2 1.5h-19l-1 -1l-1 -1q-2 -5 -2 -10v-11zM114 114q1 5 5 6.5t9.5 2.5t10.5 0.5t7 -0.5h10.5t15 -1t14 -3.5t7.5 -8.5l0.5 -2.5t0.5 -5t0.5 -5t0.5 -3.5v-4v-9v-10v-9v-6v-9v-10v-6l-2.5 -5t-3.5 -3q-1 0 -1 1q-1 0 -2 0.5l-1 0.5v24l-1 1
l-1 1h-1l-4 -2.5t-8.5 -5.5t-8.5 -5.5t-4 -3.5q0 -3 0.5 -7t0 -7.5t-3 -5.5t-6.5 -2v24q0 1 -2.5 3t-3.5 3q-1 0 -3 1l-4 2t-4 2.5t-3 1.5h-2q-3 0 -5 -2v-16q0 -2 -1.5 -4t-3.5 -2q-1 0 -2 0.5t-1 1.5v27v16v14v14t1 16zM121 106q0 -3 1.5 -4.5t3.5 -2.5q7 -1 12 -1.5
l10 -1t9 -0.5h11h15q1 0 1 2v2q0 5 -2 7.5t-5.5 4t-7.5 2.5t-7 2h-32q-5 0 -7 -3t-2 -7zM121 84v-2v-2q4 -4 12 -5t16 -1.5t16 0t12 0.5q3 0 5 0.5t2 4.5v4t-1 4q-3 0 -10 0.5t-14.5 1t-14.5 1t-9 0.5h-4q-4 0 -7 -0.5t-3 -5.5zM121 64q0 -3 4 -6t9.5 -6t11.5 -5t9 -2
q2 0 7 2t10 4.5t9 6t4 5.5t-1 3.5t-5 0.5q-11 0 -23 1t-24 1h-3t-4 -0.5t-3 -1t-1 -3.5z" />
</svg>
