<?xml version="1.0" standalone="no"?>
<!DOCTYPE svg PUBLIC "-//W3C//DTD SVG 1.1//EN" "http://www.w3.org/Graphics/SVG/1.1/DTD/svg11.dtd" >
<svg xmlns="http://www.w3.org/2000/svg" xmlns:xlink="http://www.w3.org/1999/xlink" version="1.1" viewBox="-10 0 266 256">
   <path fill="currentColor"
d="M122 244q0 2 1 4.5t4 2.5q2 0 3.5 -1.5l3 -3t2.5 -3.5t1 -4q-3 -21 -3 -42v-42v-22l0.5 -1l0.5 -1h1q5 0 7 6t3 14t1 15v10v9t0.5 12.5t0.5 13v8.5h1h1q4 0 5.5 -3.5t1.5 -6.5q0 -1 -0.5 -2l-0.5 -1q0 -2 -0.5 -7t-1 -10.5t-0.5 -11t-1 -6.5v-5v-8q0 -4 -0.5 -9.5t-1 -10
t-1.5 -7.5t-3 -3l-16 -3v-10l-1.5 -1t-2.5 -1v0q-3 0 -4 1t-1 2.5v2.5q0 2 -1 4q-2 4 -5 4.5t-6.5 1t-6.5 3.5t-3 11q-1 16 -1.5 32.5t-0.5 32.5v3v4v4v2l2 3q2 0 5 -3t3 -5v-66v-6t1 -5.5t3 -4t6 -1.5h1h2q1 4 1.5 6.5t0 5t-0.5 5.5v8q2 14 2.5 27.5t2.5 27.5v2
q0 4 -0.5 7.5t-1.5 7.5t-2 7.5t-1 6.5zM190 196v9t0.5 6l1 6l1.5 9q0 2 0.5 5.5t2 7t3.5 6t6 2.5q3 0 4 -2t1 -5t-1.5 -5t-2.5 -6q-3 -7 -4.5 -13t-1.5 -14q0 -17 3 -33t7 -33v0v0q0 -5 -3 -7t-6.5 -3.5t-7 -3.5t-3.5 -7q0 -6 2 -10t4 -6.5t5 -4.5t5.5 -4.5t4 -6.5t1.5 -10
q0 -11 -4 -17.5t-10.5 -10t-14.5 -5t-17 -1.5q0 5 2.5 6.5t6.5 3t9 2t9 2.5t6.5 6t2.5 12q0 2 -0.5 5t-1.5 6t-2.5 5.5t-4.5 2.5v0v0q-3 -4 -5 -8t-4 -7t-5 -5t-8 -2q0 3 1.5 6l3 6t2.5 5.5t1 6.5v6q-2 1 -5 1.5t-6 1.5t-6 1.5t-4 0.5q0 1 -1.5 2l-1.5 1v1q0 2 1.5 2.5
t3.5 0.5q5 0 10 -2t10 -2q2 0 2.5 2t0.5 4q0 4 -1.5 7t-0.5 7q-3 6 -6 10.5t-6 8.5t-6 8.5t-7 9.5v1v0l1.5 1.5l0.5 0.5h0.5h0.5h0.5h0.5q1 0 2.5 -0.5t2.5 -1.5q1 0 2.5 -2l3 -4t3.5 -4t2 -3q1 -1 2.5 -4l3 -6t3.5 -5.5t5 -2.5q4 0 7 1.5t3 6.5q0 9 -3 20t-6 20v3t-0.5 4.5
t-0.5 4.5v3zM46 82v7q0 4 0.5 8.5t1.5 8.5t4 4q9 0 16 -1t11.5 -4t6.5 -9.5t2 -16.5q0 -4 -0.5 -8t-0.5 -9v-2q4 -1 8 -2.5t8 -3.5t7.5 -5t5.5 -6h3h3q4 0 7.5 2t7 4.5t6.5 5t6 2.5q4 0 4 -5v-2q-3 -4 -5.5 -6t-5 -3t-6 -1.5t-7.5 -3.5q-3 -1 -3.5 -5t0 -8.5t-0.5 -8
t-6 -3.5l-1.5 0.5t-1.5 1.5v20q0 1 -3.5 4t-8 6.5t-8 6t-4.5 2.5q-4 0 -4 -3t-0.5 -7t-3 -6.5t-9.5 -2.5q0 5 1 9t1 10v6q-1 2 -3 3t-4 1.5t-5 0.5h-4h-2.5t-2.5 -2v-5t-1 -8t-2.5 -7t-4.5 -3q-2 0 -3 1.5t-1 4v4.5v2q0 6 2 11.5t2 10.5q0 3 -1 5t-1 5zM106 101q3 1 5.5 2
t4.5 1.5t4 0.5h5q4 0 8.5 -0.5t8 -2t6 -4t2.5 -8.5q0 -10 -4 -16t-15 -6q-6 0 -11.5 0.5t-9.5 3t-6.5 6.5t-2.5 11q0 4 1.5 7t3.5 5zM56 82v-7q2 -4 7.5 -5t9.5 -1t7 4q-2 5 -3 11t-1 12q-2 3 -5.5 3.5t-6.5 0.5t-5 -2t-2.5 -4.5t-0.5 -5.5v-6zM110 86q0 -3 2 -5t5 -3
t6.5 -1.5t5.5 -0.5h3.5h2.5l4 4v13q0 1 -2 2t-4.5 2t-4.5 1h-3q-3 0 -5.5 -0.5t-5 -2t-3.5 -4t-1 -5.5z" />
</svg>
