<?xml version="1.0" standalone="no"?>
<!DOCTYPE svg PUBLIC "-//W3C//DTD SVG 1.1//EN" "http://www.w3.org/Graphics/SVG/1.1/DTD/svg11.dtd" >
<svg xmlns="http://www.w3.org/2000/svg" xmlns:xlink="http://www.w3.org/1999/xlink" version="1.1" viewBox="-10 0 266 256">
   <path fill="currentColor"
d="M149 217q0 3 -0.5 8.5t0.5 11t2.5 10t5.5 4.5q2 0 3 -2.5t1 -4.5v-2v0q0 -1 -0.5 -2l-1 -2t-1 -1.5t-0.5 -1.5q-1 -4 -1.5 -9t-0.5 -9q0 -9 3 -15.5t8 -11.5t10.5 -10t9.5 -11q4 -5 6.5 -10.5t4 -11.5t2 -12.5t0.5 -11.5q0 -6 -0.5 -12.5t-2.5 -12.5q-3 -5 -7.5 -8
t-9 -5.5t-8 -5.5t-3.5 -9v-3v-3q2 -3 5.5 -4t8 -1t9 -1.5t8.5 -5.5q0 -1 1.5 -2.5t1.5 -2.5v-18q0 -4 -4 -7t-7 -4h-5.5t-8 -0.5t-8.5 -1t-6 -0.5h-3h-5q-2 0 -8 0.5t-12.5 1t-12.5 0.5h-8q-4 1 -6.5 3.5t-3.5 6t-1 7.5v8q0 3 1 6t3 5.5t5 4.5t7 2h42v19q0 1 2.5 3t6.5 3.5
t7.5 3.5t4.5 4q5 6 7 14.5t2 17.5t-2.5 16.5t-5.5 15.5q-6 8 -12.5 14.5t-11.5 13t-8 14t-3 17.5zM107 176q0 3 2 5t4.5 3t5.5 1.5t5 0.5q6 0 10 -2t7.5 -5.5t6 -8t5.5 -9.5q1 0 3 -2l2 -2v-1v-2v-2.5t-2 -1.5q-3 0 -6 4.5t-6 10t-8 10t-12 4.5q-2 0 -5 -2t-3 -5
q0 -4 2 -7.5t4.5 -7t4.5 -6.5t2 -7q0 -6 -4 -7.5t-8.5 -2.5t-8.5 -3.5t-4 -10.5q0 -6 3 -10t8 -6.5t10.5 -4t10.5 -1.5t10 1.5t9 4.5t6.5 7.5t2.5 8.5q0 5 -2 8t-6 3q-5 0 -7 -2.5t-3 -5.5t-3 -5.5t-6 -2.5q0 4 1.5 8.5t3.5 7.5t5.5 5t8.5 2q8 0 12 -5.5t4 -13.5q0 -5 -2 -9
t-5 -7t-7.5 -5t-8.5 -4q-2 -1 -5 -2t-4 -3v-3.5v-5t-1 -5t-3 -2.5t-4 0.5t-2 3.5v13q0 1 -3.5 2.5t-8.5 3.5t-9.5 4.5t-5.5 3.5t-2 2.5l-2 3t-1.5 2.5t-0.5 2v18q0 3 2.5 5t6.5 3t7.5 1h4.5q1 1 1.5 2t0.5 2q0 4 -2 8t-4.5 7.5t-4.5 7.5t-2 8zM52 98q1 6 5 8t10 2
q3 0 6.5 -0.5t7 -1.5t6 -3t3.5 -5q0 -5 0.5 -11.5t1.5 -13.5t1 -13.5v-12.5q0 -2 -1.5 -4t-4.5 -2h-1.5t-1.5 2v18q0 3 -2.5 4t-5.5 1h-6h-4h-3.5h-3.5l-2 -2v-20q0 -1 -1.5 -1h-2.5q-2 0 -2.5 0.5t-0.5 2.5v3q0 3 0.5 10t0.5 14.5t0.5 14.5t0.5 10zM79 72h3q2 0 2 2v18
q0 2 -2 3.5t-4 2.5t-4.5 1.5t-4.5 0.5q-1 0 -3 -0.5t-4 -1.5t-3 -2.5t-1 -3.5v-17l3 -0.5t6.5 -1l7 -1t4.5 -0.5zM110 41q0 -6 2.5 -11t9.5 -5q3 0 4 0.5t3 3.5l11 21v1v1l-1 0.5l-1 0.5q-1 1 -4 1h-3q-4 0 -7.5 -0.5t-6.5 -1.5t-5 -3.5t-2 -7.5zM138 28v-2.5t2 -1.5h15
l2 3.5t4 8t3.5 9t1.5 6.5q0 1 -0.5 1.5t-1.5 0.5q0 1 -2.5 1h-3.5q-4 0 -8 -2.5t-6.5 -6.5t-4 -8.5t-1.5 -8.5zM166 28v-2t1 -2h19q2 0 3.5 1.5t2.5 3.5t1.5 4.5t0.5 3.5q0 14 -13 14q-2 0 -4 -0.5t-3 -3.5l-8 -17v-2z" />
</svg>
