<?xml version="1.0" standalone="no"?>
<!DOCTYPE svg PUBLIC "-//W3C//DTD SVG 1.1//EN" "http://www.w3.org/Graphics/SVG/1.1/DTD/svg11.dtd" >
<svg xmlns="http://www.w3.org/2000/svg" xmlns:xlink="http://www.w3.org/1999/xlink" version="1.1" viewBox="-10 0 266 256">
   <path fill="currentColor"
d="M115 193v22t4 22l1 2t2.5 3.5t3.5 3t3 1.5h46q5 0 8 -3t4.5 -7.5t2 -9.5t0.5 -9v-27v-27q-1 -2 -2 -3.5t-4 -1.5h-2t-2 2v21q0 1 -1.5 1.5t-3.5 1t-4 0.5h-3q-5 0 -7.5 -3t-3.5 -7.5t-1 -8.5v-9h-5v6v9.5t0.5 9t1.5 7.5q0 1 1.5 2.5l1.5 1.5h22q1 0 1.5 1.5t0.5 3v2.5
q0 2 -1 4.5t-4 2.5h-44q-2 0 -3.5 -1.5t-1.5 -3.5v-39q-3 0 -6 1t-4 4q0 1 -0.5 4.5t-0.5 7.5v7.5v5.5zM127 223q0 -2 1.5 -3t3 -1.5t3 -0.5h2.5q2 0 6.5 -0.5t10 -1l11 -1t8.5 -1.5h2q3 0 3 1.5v3.5q0 4 -0.5 7t-2 6t-4 4.5t-6.5 1.5h-28q-3 0 -5 -1.5t-3 -3.5t-1.5 -5
t-0.5 -5zM103 122q0 13 6.5 19t15.5 7.5t20 1t20 -0.5h22q6 -1 9.5 -4t5.5 -7.5t2.5 -9.5t0.5 -10q0 -4 -0.5 -7.5t-2 -5.5t-4 -4t-6.5 -4q-8 -1 -14.5 -1t-12 -0.5t-11.5 -0.5h-14h-4h-6.5h-6.5h-4q-4 0 -7 3t-5 7.5t-3 9t-1 7.5zM133 140q2 -9 2.5 -19t0.5 -19l2.5 -1
l2.5 -1h2h1q1 0 3 1t3 1q0 2 0.5 6.5t1 9.5t1 9t0.5 6v1.5v1.5q0 3 -2 4.5t-5 1.5t-6 -0.5t-7 -1.5zM160 102h10l1 4.5t2.5 10t2.5 11.5t1 9t-1 4t-4 1h-1q-2 -1 -5.5 -1.5t-4.5 -0.5l-0.5 -0.5l-0.5 -0.5v-37zM114 122v-5t1 -6t3 -5t5 -2h1q1 0 2 1.5l1 1.5v26q0 4 -0.5 5
t-3.5 1q-2 0 -4 -2t-3 -4.5t-1.5 -5.5t-0.5 -5zM180 111v-4.5t4 -2.5q3 0 5.5 2t3.5 5t1.5 6.5t0.5 5.5t-0.5 5t-1.5 5t-3 4t-4 2q-1 0 -2 -3.5t-2 -8.5t-1.5 -9t-0.5 -7zM51 48q-1 0 -3 2t-2 4v60q0 4 2 6t5.5 3.5t6.5 1.5h6t7 -0.5t8.5 -1.5t7.5 -2.5t5 -4.5v-3t0.5 -4
t0.5 -4v-3q1 -4 2.5 -6t3 -3.5t3.5 -2.5t5 -4l4 -4l6 -6l6 -6l4 -4q4 -11 12.5 -21t16.5 -17q2 0 5.5 5t8 12t9.5 15.5t10 16t9 12t7 4.5q4 0 4 -4t-1.5 -7t-3.5 -5.5t-4.5 -5.5t-4.5 -5q-1 -2 -4 -7t-7 -11.5t-8.5 -13.5t-8 -13t-6 -10t-3.5 -4h-1.5h-0.5l-2.5 5t-3.5 6
t-4 6.5t-4 5.5l-2 2l-4.5 4.5l-4.5 4.5l-2 2q-1 1 -2.5 4t-3.5 6.5t-4 6.5t-2 4q-1 2 -3.5 5.5t-5 6.5t-5.5 5t-5 2h-1q-1 0 -1.5 -0.5l-0.5 -0.5v-32q0 -3 -2 -3h-4h-3t-3 1v20l-2 3l-1.5 0.5t-3.5 0.5t-4.5 0.5t-3.5 0.5h-2.5h-4.5h-3.5h-2.5q0 -1 -0.5 -4t-0.5 -6.5
t-0.5 -6.5t-0.5 -4l-1.5 -3t-2.5 -1zM57 85l1 -3q2 -1 5 -1.5t6.5 -1t6.5 -1t5 -0.5t3.5 1.5t2 4t0.5 4.5v3v5t-0.5 7t-1.5 7t-3 3h-22l-1 -1l-1 -1q0 -1 -0.5 -2.5l-0.5 -1.5v-22zM132 71q0 1 0.5 2t1.5 1h3q3 0 5.5 0.5t4.5 0.5h3q8 0 15 -0.5t15 -1.5q0 -1 1 -2t1 -2
l-1 -0.5l-1 -0.5q-3 0 -8.5 -0.5t-11.5 -0.5t-11.5 -0.5t-7.5 -0.5h-3q-2 0 -4 1t-2 4z" />
</svg>
