<?xml version="1.0" standalone="no"?>
<!DOCTYPE svg PUBLIC "-//W3C//DTD SVG 1.1//EN" "http://www.w3.org/Graphics/SVG/1.1/DTD/svg11.dtd" >
<svg xmlns="http://www.w3.org/2000/svg" xmlns:xlink="http://www.w3.org/1999/xlink" version="1.1" viewBox="-10 0 266 256">
   <path fill="currentColor"
d="M123 247q0 3 0.5 3.5t3.5 0.5q4 0 5.5 -3t2 -8t0.5 -11t0.5 -11t1 -8.5t1.5 -3.5h26v44q0 1 2 1h3h1.5h0.5q1 0 2 -2.5t1 -3.5v-39l3 -1.5l7 -3.5t7 -5t3 -8v-55q0 -1 -0.5 -2l-0.5 -1l-2.5 -2.5l-3 -3l-3 -3l-2.5 -2.5v-1q0 -8 1 -11.5t3 -5.5t4.5 -2.5t5 -2.5t4.5 -6.5
t4 -12.5v-0.5v-1.5q0 -2 -1 -4t-3 -2q-4 0 -4.5 3.5t-0.5 7.5q0 5 -1 9t-5 5l-2.5 -0.5t-3.5 -0.5v-3v-3q0 -2 0.5 -4t0.5 -3t-0.5 -3t-0.5 -4.5t-0.5 -4.5t-0.5 -3l-1 -0.5l-1 -0.5h-1v0q-1 0 -1.5 1t-0.5 2t0.5 4t0.5 6t-0.5 6.5t-0.5 4.5v1.5t-0.5 3t-1 2.5t-1.5 1
q-3 0 -4.5 -3.5t-1.5 -4.5v-3v-4v-4v-3l-3 -2q-2 1 -2.5 2.5t-0.5 3.5q0 4 1 7t2 7t4 5.5t5 3.5q0 1 0.5 3.5t0.5 5t0.5 5t0.5 3.5v3h-20v-57q0 -2 2 -3.5t5.5 -2.5t7 -2.5t6.5 -5t5.5 -9t2.5 -14.5q0 -4 -4 -4q-3 0 -3.5 2t-0.5 5t-0.5 6.5t-2 6.5t-5.5 5t-11 2
q0 -10 0.5 -19.5t0.5 -19.5q0 -3 -3 -3q-2 0 -3 1.5t-2 3.5q-1 7 -1.5 17.5t0.5 18.5l-2 2t-2 1v0q-5 0 -8 -3.5t-4 -8.5t-1 -9.5v-7.5q-1 0 -1.5 -0.5l-0.5 -0.5h-1h-1l-1 0.5t-2 0.5v3.5v3.5q0 7 2 14t6 12q1 0 3.5 0.5t4.5 0.5t4 1t4 3v6q0 13 -1 23.5t-1 24.5l-0.5 3.5
t-2.5 3.5q-11 0 -18 2.5t-11.5 7.5t-6 12t-1.5 17v3v6t0.5 8.5t0.5 8.5v6q1 3 4 5t6.5 3.5t6 3.5t2.5 6q0 8 -2.5 17.5t-2.5 18.5zM117 185q0 -5 3.5 -5t8.5 -1h4.5t5.5 -0.5t5.5 -0.5h3.5h16h11t12 1v1q0 7 -4.5 13t-12.5 6h-42q-2 0 -4 -1.5t-3.5 -3.5t-2.5 -4.5t-1 -4.5z
M115 163q0 -3 2.5 -5t5.5 -3q3 0 11.5 -0.5t17.5 -1t17 -1t11 -0.5h3q3 0 3.5 3t0.5 6v2q-1 2 -2 5.5l-1 3.5h-67l-0.5 -3t-1.5 -5v-1zM117 144q0 -7 6 -10.5t14 -4.5t16 -1h12h17q1 1 1.5 2.5t0.5 3.5v3.5v1.5v3v3l-2 1l-2.5 0.5t-6 0.5t-7 0.5t-5.5 0.5h-21h-20l-3 -3v-1z
M55 120l5 2h26q4 0 5.5 -4t2.5 -6q0 -14 0.5 -26t0.5 -24v-3.5v-3.5q0 -2 -1 -2h-3q-1 0 -2.5 0.5t-1.5 2.5v24h-24v-22q0 -1 -1.5 -1.5l-1.5 -0.5q-2 0 -3.5 1.5t-1.5 3.5v59zM117 101q0 1 0.5 3t0.5 4t0.5 4t0.5 3l0.5 1t0.5 2h0.5h0.5h1l0.5 -0.5t0.5 -1.5l3 -15
q1 -3 3.5 -3t5 -1.5t4.5 -6.5t2 -17h-4q0 1 -0.5 2.5t-1 4t-1 4t-0.5 2.5q-1 2 -2.5 4t-3.5 2q-3 0 -3 -2v-2v-4t0.5 -6.5t0.5 -6.5v-4v-1q0 -3 -1.5 -4t-3.5 -1q0 8 -0.5 16.5t-1.5 16.5h-3q-2 0 -4 -2t-3 -4v-3.5t-0.5 -5.5t-0.5 -5.5v-3.5h-4v3.5v5.5t0.5 5.5t0.5 3.5
q0 4 3.5 7t6.5 5zM63 100v-8q1 -2 4 -3t6.5 -1.5t7 0t5.5 0.5v22l-0.5 1.5t-1 2l-1 1l-0.5 0.5h-17q-1 0 -2 -2.5t-1 -5v-5.5v-2z" />
</svg>
