<?xml version="1.0" standalone="no"?>
<!DOCTYPE svg PUBLIC "-//W3C//DTD SVG 1.1//EN" "http://www.w3.org/Graphics/SVG/1.1/DTD/svg11.dtd" >
<svg xmlns="http://www.w3.org/2000/svg" xmlns:xlink="http://www.w3.org/1999/xlink" version="1.1" viewBox="-10 0 266 256">
   <path fill="currentColor"
d="M127 203q2 1 4 5t4.5 9.5t5 11.5t5 10.5t5.5 8t7 3.5q3 0 5.5 -0.5t2.5 -4.5q0 -3 -3.5 -6l-7 -6t-6.5 -6t-3 -8q0 -1 1 -3.5t2.5 -5t3 -4.5t3.5 -2l25 -5q2 0 4 -2t3.5 -4t2.5 -4.5t1 -4.5v-3t-1 -3q-6 -7 -11 -10t-9.5 -5t-7.5 -6.5t-3 -14.5q0 -2 1.5 -3t3.5 -1h4h4
q5 0 8.5 2.5t6.5 6.5t6.5 7t8.5 3q3 0 5 -0.5t2 -3.5v-0.5v-0.5q-2 -2 -7 -5.5l-10 -7t-9.5 -6t-4.5 -3.5q0 -2 1.5 -3.5t2.5 -3.5t2 -4.5t1 -5.5v-3v-3q-2 -3 -6.5 -4t-7.5 -2h-5h-8h-8h-5h-22.5t-21.5 2q-2 0 -2.5 1.5t-0.5 2.5h73q1 0 2 1t1.5 3t1 3.5t0.5 2.5q0 3 -1 6
t-6 3q-3 0 -5.5 -1.5t-5.5 -3.5q-4 -1 -7.5 -1h-6h-5.5h-6h-22.5t-24.5 1q-1 0 -2 0.5t-1.5 1.5t-0.5 2.5v1.5h73l4 5l-4 4q-1 1 -3.5 1t-6.5 1t-8 1t-6 1h-7h-10h-10h-7t-2 3v3h25l0.5 1t0.5 2v1.5v2.5q0 5 -4.5 7t-10.5 4t-11 6t-5 13q0 8 3.5 12t8.5 6t11 2q7 0 13 -1z
M126 177q-2 0 -3 0.5t-1 2.5q0 3 1 5.5t1 5.5q0 2 -1 3.5t-4 1.5t-6.5 -0.5t-6.5 -2t-4.5 -4t-1.5 -6.5q0 -5 2 -7.5t5.5 -3.5t8 -2t8 -3t6.5 -6t3 -13l2 -1l2.5 -0.5t5.5 -1t5 -0.5h3h4v17q0 2 4.5 4.5t10 5t9.5 6.5t2 10q0 2 -2.5 3.5t-5 2.5t-5.5 1.5t-5 0.5l-2.5 -0.5
t-2.5 -1.5v-15q0 -1 -2.5 -1.5t-3.5 -0.5q-3 0 -3 5v11t-1.5 11.5t-6.5 5.5q-3 0 -4.5 -5.5t-2.5 -11.5t-2.5 -11t-5.5 -5zM47 98q2 4 6.5 6t9.5 2q10 0 16.5 -3.5t7.5 -14.5q0 -1 0.5 -5.5t0.5 -10t0.5 -11t0.5 -8.5v-5q0 -3 -1 -6.5t-6 -3.5h-1.5t-1.5 1v22q-1 0 -3 0.5
t-4.5 0.5h-5h-3.5h-3h-3q-1 0 -2 -1q0 -1 0.5 -3t0.5 -5q0 -2 -0.5 -4.5t-0.5 -3.5t-2 -3.5t-4 -2.5q-3 0 -3 1.5v2.5v4v10t0.5 15t0.5 15.5v10.5zM54 78q0 -5 3 -6q11 -4 23 -4v10t-1 9t-3.5 6.5t-9.5 2.5h-3h-3q-2 -1 -3.5 -3.5t-2 -5t-0.5 -5.5v-4zM100 68q0 3 2 3.5
t5 0.5h5t2 1v11q0 1 -2.5 1t-5.5 0.5t-5.5 1.5t-2.5 4h4h7t11 -0.5t11 -0.5h7l1 -0.5t1 -1.5v0v-1l-1 -1l-1 -1q-7 1 -11.5 0.5t-4.5 -7.5v-3.5t2 -2.5h4.5h4.5t4 -1.5t3 -3.5v-1.5v-0.5h-15l-1 -1t-1 -2.5t-0.5 -3l-0.5 -1.5q0 -3 1.5 -4t3.5 -2t4.5 -2t5 -3.5t4 -6
t1.5 -10.5q0 -2 -0.5 -4.5t-3.5 -2.5q-1 0 -2 0.5t-1 1.5q-1 5 -1 8q0 4 -0.5 6t-2.5 3t-7 1q0 -7 0.5 -13t0.5 -12q0 -4 -2 -5t-7 -1v31q0 2 -1.5 2h-1.5h-2.5t-1.5 -2v-3.5v-5.5t-0.5 -5.5t-0.5 -3.5q0 -2 -2 -3.5t-4 -1.5v0l-4 4v0v1q1 1 1.5 3.5t1 5.5t1.5 5.5t1 3.5
l1.5 4.5t2.5 2.5l4 2t5 2v4q0 4 -1.5 5.5t-3.5 2.5t-5 1.5t-6 0.5v0.5v0.5zM149 87l4 3h46l1 -1.5t2 -1.5v-1v-1q-1 -1 -3 -1.5t-5 -0.5q-2 0 -4 0.5l-2 0.5q-2 0 -4 -0.5t-4 -0.5t-3.5 -0.5l-1.5 -0.5v-14q2 0 6 0.5t8 0t6.5 -2t2.5 -5.5h-22q-1 0 -1 -2v-2q0 -3 3 -4.5
t7 -2.5t7.5 -2.5t3.5 -3.5v-20l-1 -1t-1 -2t-1 -1.5l-1 -0.5q-3 0 -4.5 2t-1.5 5v6v6t-1 4.5t-5 1.5q-1 0 -3 -0.5t-2 -2.5v-28q0 -1 -2 -1h-2h-3q-1 0 -1 1v31l-0.5 0.5t-1.5 0.5v0q-5 0 -5.5 -3.5t-0.5 -7.5t-0.5 -8t-5.5 -4q-2 0 -2 1.5v2.5v3l0.5 2.5l1 5t1 4.5t0.5 3
q1 2 3 3.5t4.5 3t4 2.5t1.5 4q0 1 -0.5 2.5t-1.5 2.5q-2 0 -4.5 0.5t-4.5 1t-3 1.5t-1 3h12q1 0 1.5 1.5l1 3t0.5 2.5v2v1v2.5t-0.5 2.5t-1.5 1h-14z" />
</svg>
