<?xml version="1.0" standalone="no"?>
<!DOCTYPE svg PUBLIC "-//W3C//DTD SVG 1.1//EN" "http://www.w3.org/Graphics/SVG/1.1/DTD/svg11.dtd" >
<svg xmlns="http://www.w3.org/2000/svg" xmlns:xlink="http://www.w3.org/1999/xlink" version="1.1" viewBox="-10 0 266 256">
   <path fill="currentColor"
d="M53 204q1 1 1.5 4l0.5 3q0 1 0.5 3t0.5 4.5t0.5 4.5l0.5 2q2 8 7 13t11.5 7.5t14.5 3.5t16 1h15h12q8 0 13.5 -0.5t11.5 -1.5t11.5 -2.5t12.5 -4.5q8 -7 14 -16t8 -21v-19.5t0.5 -18t1 -18t0.5 -18.5v-4.5v-2.5l-0.5 -2t-0.5 -3.5t-0.5 -3t-0.5 -2.5v-15t0.5 -18t-1 -18
t-4.5 -16.5t-8.5 -12.5t-15.5 -6q-3 -1 -9 -1.5l-12 -1t-11.5 -1t-7.5 -0.5l-5 0.5t-11 1t-12.5 1t-9.5 1.5q-4 0 -6 0.5t-3.5 1t-3.5 1.5t-6 2q-13 3 -19 12.5t-8.5 21.5t-2 25t-0.5 24v18v15q1 4 1.5 12t1 17t1.5 17t1 11zM62 126v-38v-2t0.5 -3t0.5 -3.5v-1.5
q1 -8 1.5 -16.5t5.5 -15.5q4 -5 12 -8t17.5 -4.5t18 -1t13.5 0.5q7 0 16 -0.5t18 1.5t16 6.5t9 13.5l0.5 1.5t1 4t0.5 4v2.5l1 3l1 3v38v37q0 3 -0.5 11t-0.5 17t-0.5 17t-0.5 11q-3 14 -10 21.5t-16.5 10.5t-21.5 3h-24h-5h-6t-6 -0.5t-4 -0.5t-4.5 -0.5t-4.5 -0.5
q-4 -1 -7 -1.5t-5 -1.5t-4.5 -2.5t-4.5 -5.5q-2 -2 -3 -5.5t-1.5 -8t-0.5 -8.5t-1 -7q0 -10 -0.5 -18.5t-0.5 -17v-16.5v-18zM149 150v1q0 3 0.5 8l1 10t1 9l0.5 4q1 4 2 11t3.5 13.5t5.5 12t6 5.5q4 0 5.5 -3.5t1.5 -6.5t-1.5 -7t-3 -7.5t-3.5 -7t-3 -7.5q-3 -12 -3 -25.5
v-26.5q0 -12 2 -24.5t2 -24.5q0 -1 -0.5 -4t-0.5 -4q-2 -5 -9.5 -6.5t-16 -2t-17 -0.5t-13.5 -3q-7 -4 -11 -9.5t-8 -11.5v0h-1t-1.5 1.5t-0.5 2.5q0 9 3.5 13t8 7t8 7t3.5 11q0 9 -1.5 19t-3.5 20t-4.5 19.5t-3.5 19.5q0 1 -1 3.5t-1 3.5q-1 1 -3.5 7t-5.5 12t-5.5 11.5
t-2.5 6.5q0 2 1.5 2.5t2.5 0.5q5 0 8.5 -5t6.5 -13t5.5 -17.5t4.5 -18t4 -14.5t4 -9q0 -3 0.5 -7t1 -8.5l1 -9t1.5 -8.5q0 -1 0.5 -4l1 -6t1.5 -5.5t2 -3.5t3 -1t4 -0.5t4 -0.5h3h6t6 0.5t5 2t2 4.5q0 7 -2 12.5t-3 12.5l-0.5 5t-1 11t-1 12.5t-0.5 9.5v1z" />
</svg>
