<?xml version="1.0" standalone="no"?>
<!DOCTYPE svg PUBLIC "-//W3C//DTD SVG 1.1//EN" "http://www.w3.org/Graphics/SVG/1.1/DTD/svg11.dtd" >
<svg xmlns="http://www.w3.org/2000/svg" xmlns:xlink="http://www.w3.org/1999/xlink" version="1.1" viewBox="-10 0 266 256">
   <path fill="currentColor"
d="M50 136v34t2 28.5t6 22.5t12 16.5t21 10t32 3.5q4 0 8 -0.5l8 -1t8.5 -1t9.5 -1.5q9 -2 17 -4t14 -6t10.5 -11t6.5 -18q0 -2 1 -7.5l2 -11t1.5 -10t0.5 -5.5v-3v-6.5v-7.5v-7v-7v-8.5v-7.5v-4q0 -3 -0.5 -11t-1 -16.5t-1 -16t-0.5 -10.5q-2 -16 -9.5 -25.5t-22.5 -10.5
q-11 -1 -26.5 -1.5t-28.5 -0.5q-4 0 -12.5 0.5t-17 2t-16 4t-10.5 4.5q-5 5 -6.5 11t-3.5 12q-1 3 -1.5 9.5t-1 14t-1 14t-0.5 8.5v4v6v8v7zM60 156v-3l0.5 -2t1 -4.5t0.5 -4.5v-2v-1q0 -6 -1 -11.5t-1 -12.5q0 -14 1.5 -28.5t4.5 -28.5q2 -4 5.5 -6t7.5 -3.5t7.5 -2.5
t7.5 -4h33v35q0 4 -3.5 7t-8.5 6t-12 5.5t-13 6t-11.5 7t-7.5 8.5q0 1 0.5 2.5t0.5 2.5q8 0 14 -4t12 -9t12 -9t14 -4h2t2 0.5t1.5 1.5t-0.5 3v5v6.5v6.5v4v14t-1 15.5t-3.5 14.5t-6.5 13q-3 4 -6 8.5t-6.5 9.5l-7 10t-4.5 10q-1 1 0 4t1 4q4 0 7 -3.5t6 -8.5t5.5 -10.5
t5.5 -10.5t6 -8t6 -3q4 0 6.5 3t4.5 8t4 10.5t4.5 10.5t6 8t9.5 3q0 -3 -2 -7.5t-4.5 -8.5l-5 -8t-4.5 -8q-3 -8 -6 -16.5t-6 -17.5v-60q0 -1 2 -1h3q7 0 13.5 3.5t12 8t10 8t7.5 3.5h1l2.5 -1.5t2.5 -2.5q0 -3 -3 -6.5t-8 -7t-11 -6.5t-11.5 -5t-9.5 -3.5t-6 -2.5
q-1 0 -3 -1l-2 -1v-42h37q2 0 5 1.5t5.5 4t4.5 5t2 5.5q3 10 4 19t1.5 18t0.5 19v19v8v11v11v7q-2 8 -2 16.5t-2 16.5q-3 12 -10.5 19.5t-17 11t-20.5 4.5t-22 1q-21 0 -32.5 -3.5t-17.5 -12t-8 -23t-4 -35.5q0 -1 -1 -3.5l-1 -2.5v-3z" />
</svg>
