<?xml version="1.0" standalone="no"?>
<!DOCTYPE svg PUBLIC "-//W3C//DTD SVG 1.1//EN" "http://www.w3.org/Graphics/SVG/1.1/DTD/svg11.dtd" >
<svg xmlns="http://www.w3.org/2000/svg" xmlns:xlink="http://www.w3.org/1999/xlink" version="1.1" viewBox="-10 0 266 256">
   <path fill="currentColor"
d="M89 246q9 2 17 2h18q10 0 21.5 -1t22.5 -4.5t19.5 -10.5t11.5 -19q3 -10 3.5 -20.5t1.5 -21.5q1 -1 1 -4t0.5 -5.5t0.5 -5v-3.5v-89q0 -14 -6 -21.5t-15 -10t-20.5 -2.5h-22.5q-5 0 -16 0.5t-22.5 1.5t-22 2.5t-15.5 3.5q-4 3 -5.5 5.5t-2.5 6.5q-1 5 -1 9v9
q0 5 -0.5 9.5t-2.5 7.5v8q0 5 -0.5 11t-0.5 11v7v28t1.5 28.5t5.5 28t11 24.5q2 3 4.5 4.5l5 3t5 3.5t3.5 4zM65 124v-5v-6v-5.5v-2.5q0 -1 0.5 -5.5t1 -9.5t1 -9.5t0.5 -5.5v-7.5v-8.5t2 -6.5t6 -4.5q3 0 7.5 -1l9 -2t9.5 -2t8 -1h64q12 0 17 7t5 20v84q-3 7 -3.5 14.5
l-1 15l-1 15t-3.5 15.5q-3 2 -5.5 6.5t-4.5 6.5q-3 4 -9.5 6t-14 3t-14 1h-10.5q-19 0 -29.5 -2t-17 -9t-9.5 -18.5t-5 -30.5q-2 -13 -2.5 -26t-0.5 -26zM97 200q2 5 5.5 7.5t9 3.5t10.5 1h9q14 0 20.5 -1t10 -4t5 -9.5t5.5 -17.5v-1v-1q0 -3 -0.5 -11t-0.5 -17t-0.5 -17
t-0.5 -11q0 -1 -2 -3t-3 -2v-0.5v-0.5q-3 0 -4 5t-1 11v11t-3 5h-18l-0.5 -2t-0.5 -3v-1q0 -6 0.5 -11t0.5 -10t0.5 -10t-0.5 -13l4 -3q4 0 10 0.5t12 0t12 -0.5t11 -1v-2v-1q0 -3 -2.5 -5t-5.5 -2h-39q-2 0 -2.5 -3t-0.5 -7v-8.5t-0.5 -8.5t-1.5 -6.5t-5 -2.5
q-2 0 -3.5 0.5t-1.5 3.5v26q0 5 -3.5 7t-9 2h-12h-12.5t-9.5 1t-3.5 4v3t2 2h2h4h4h3q8 0 15 -1t15 -1h5l2 2v6q0 11 -0.5 23t-1.5 22q-3 3 -7.5 3.5t-8.5 0.5q-2 0 -5 -1t-3 -4v-24q0 -2 -1.5 -3.5t-3.5 -1.5q-1 0 -2 0.5t-1 1.5v10q0 17 0.5 34.5t2.5 35.5zM103 171
l0.5 -3.5t0.5 -4.5q5 -2 10 -2.5t9 -2.5h34l2 2v3v5q0 11 -0.5 17.5t-3 10.5t-9 5t-17.5 1h-14q-5 -2 -7.5 -5.5t-3.5 -7.5t-1 -9v-9z" />
</svg>
