<?xml version="1.0" standalone="no"?>
<!DOCTYPE svg PUBLIC "-//W3C//DTD SVG 1.1//EN" "http://www.w3.org/Graphics/SVG/1.1/DTD/svg11.dtd" >
<svg xmlns="http://www.w3.org/2000/svg" xmlns:xlink="http://www.w3.org/1999/xlink" version="1.1" viewBox="-10 0 266 256">
   <path fill="currentColor"
d="M59 216q4 13 11.5 21t18.5 12h5h7.5h7.5h5h7h8h6h4t4 -0.5t7 -1t7.5 -1.5t5.5 -1q3 -1 7 -1.5t7.5 -2t7 -3.5t5.5 -4q5 -4 7 -8.5t5 -9.5q2 -18 3 -36t1 -36t0.5 -36.5t1.5 -36.5v-1v-1l-0.5 -1.5l-0.5 -1.5q-1 -1 -1 -4t-0.5 -6l-1 -6t-0.5 -4q-2 -8 -3.5 -13t-4.5 -7.5
t-8 -3.5t-14 -1q-7 0 -15.5 -1t-16.5 -1q-14 0 -29.5 1t-29.5 3q-3 0 -6.5 0.5t-7.5 1.5t-7.5 3.5t-4.5 5.5q-3 10 -4.5 20t-3.5 21v7v10.5v11.5v6q0 28 2 54t8 52zM59 116q0 -5 0.5 -11t0.5 -11q0 -2 0.5 -9t1 -14.5t1 -14.5t0.5 -10q2 -3 3.5 -5t3 -3l3 -2t5.5 -2
q2 -1 7 -1.5t10.5 -1t10.5 -1t7 -0.5h18h19h5.5t8 0.5t8.5 1t6 0.5q1 0 4.5 0.5t4.5 1.5q3 0 4.5 2.5t2.5 5.5t1 6v5t0.5 6l1 8t0.5 7v4v50v49q0 10 -2 21t-5 20q-4 6 -10.5 10t-14 6t-14.5 3t-14 1h-5h-4q-2 -1 -2 -2v-2v-1q4 -11 7 -22.5t4 -22.5q0 -1 0.5 -4.5t0.5 -7.5
t0.5 -7.5t0.5 -4.5q1 -5 3 -8.5t5 -6t7 -4.5l8 -4l2 -1.5t2 -2.5h2q3 0 3 3.5v5.5q0 7 -1 15t-2 15.5l-2 15t-1 14.5q-2 3 -2.5 5.5t-0.5 5.5v3t1 2q3 0 5 -2.5t3 -5.5t2 -6.5t1 -5.5q0 -3 0.5 -10.5t1 -15.5t1 -15.5t1.5 -10.5l0.5 -2.5l1 -5t1 -4.5l0.5 -2v-2
q0 -4 -2.5 -6.5t-5.5 -2.5h-1.5h-1.5q-1 1 -4 2.5t-6 3.5l-6 4t-4 2l-2.5 2.5t-2.5 0.5q-1 0 -1.5 -0.5t-1.5 -2.5q-1 -6 -2 -13.5t-1.5 -15l-1 -15t-0.5 -13.5v-4l1 -1t2 -3l1.5 -3t0.5 -2q2 -3 2.5 -5.5t1.5 -4.5t3 -2.5l6 -1.5h4h6h5.5h3.5t2 -0.5t2.5 -1t3 -2t1.5 -2.5
q0 -2 -3 -3t-5 -1q-10 0 -19.5 2t-19.5 3q-4 0 -12.5 0.5t-17.5 1.5t-17.5 1t-12.5 1v1v2q0 3 0.5 4.5t3.5 1.5q14 0 28.5 -2.5t28.5 -2.5v5l-1.5 2t-3.5 4.5t-5 5t-4 3.5q-1 2 -5 4.5t-9.5 6t-11.5 7.5t-11 7t-8 5t-3 3q-1 0 -0.5 1.5t0.5 2.5q1 0 3.5 1t2.5 0q3 -1 7 -3.5
t8.5 -6l9 -7t8.5 -7t7.5 -5t5.5 -1.5h1q2 3 3.5 7.5t1.5 8.5t-4.5 9t-11 10.5t-14 11t-14 10.5t-11 8.5t-4.5 5.5q0 3 1.5 3.5t3.5 0.5h2q2 -1 6.5 -4.5l9 -7l9 -7t6.5 -4.5q1 -2 3.5 -4.5t4.5 -5.5t5 -5t6 -2h2v4t0.5 5.5t0.5 5.5v3v1.5v1.5v0.5v0.5q0 2 -0.5 5.5l-0.5 3.5
q-2 3 -6.5 5t-6.5 4q-4 3 -11.5 8.5t-15 12t-13 12.5t-5.5 9q1 0 3.5 0.5l2.5 0.5q3 0 5.5 -2t5 -4.5l5 -5l4.5 -4.5q0 -1 3 -3.5t6.5 -5.5t7 -5.5t3.5 -3.5l3 -1.5t2 -0.5q3 0 4 2.5t1 4.5v2q0 1 -0.5 2.5l-1 3l-1 3t-0.5 2.5q-1 2 -1.5 6.5t-1.5 9.5t-1.5 9.5t-0.5 6.5
q-1 2 -1.5 5l-1 6t-1 5.5t-2.5 3.5h-5h-3q-18 0 -27.5 -7.5t-13 -19.5t-4.5 -27l-2 -30q-1 -10 -2 -19.5t-1 -18.5z" />
</svg>
