<?xml version="1.0" standalone="no"?>
<!DOCTYPE svg PUBLIC "-//W3C//DTD SVG 1.1//EN" "http://www.w3.org/Graphics/SVG/1.1/DTD/svg11.dtd" >
<svg xmlns="http://www.w3.org/2000/svg" xmlns:xlink="http://www.w3.org/1999/xlink" version="1.1" viewBox="-10 0 266 256">
   <path fill="currentColor"
d="M49 140q0 22 1 44.5t3 45.5q0 1 0.5 4t1.5 4q1 4 6 6.5t11 3.5t13 2t13.5 1h12h8.5h11q2 0 8 -0.5t12.5 -1t12.5 -1t8 -1.5q9 -2 14.5 -7.5t9.5 -14t6.5 -18t3.5 -18.5t1.5 -18t0.5 -16q0 -22 -0.5 -44.5t-1.5 -45.5q0 -3 -0.5 -8.5t-1.5 -11t-3 -10.5t-6 -7t-9 -3
t-10 -1.5t-10.5 -1t-9.5 -0.5l-3.5 -0.5t-7.5 -0.5t-8 -0.5t-6 -0.5h-2h-2q-2 0 -7 0.5t-10 0.5t-8.5 0.5t-4.5 0.5q-6 0 -13.5 1t-14 4t-11 8t-4.5 12v6v8v9v5q-1 16 -2.5 32t-1.5 33zM67 236q-2 -1 -2.5 -4t-2.5 -5v-27q-2 -5 -2.5 -12l-1 -14t0 -14t0.5 -12v-2v-3t0.5 -6
t1 -12t0.5 -14.5t0.5 -14t0.5 -12v-6.5q1 -8 1 -15q0 -8 1.5 -14t6.5 -10.5t14 -5.5q2 0 6.5 -0.5l9 -1l9 -1t5.5 -0.5h5q3 0 4.5 1t1.5 4v6t-1 5.5t-2.5 4t-5.5 1.5q-9 0 -12.5 -2t-5 -4t-2 -4t-3.5 -2q0 11 1.5 15t5 5t9.5 1.5t13 3.5v2v2.5t-1 2.5q-4 -1 -10 -1.5
t-11.5 0.5t-10 3.5t-5.5 8.5l-0.5 3.5t-1 7.5l-1 8t-0.5 6v2v1q2 7 6 10.5t8.5 5t8.5 2t7.5 1t5.5 1.5t2 4v0.5v0.5q-1 1 -5.5 2t-9.5 1.5l-10 1t-7 1.5q-2 2 -2.5 4.5t-0.5 4.5q0 6 2.5 9t6.5 4.5t9 2t9 1.5q3 2 5 5t4.5 6t5.5 5t7 3q-2 4 -4.5 5t-6.5 1h-4h-5.5t-4.5 -0.5
t-3 -0.5q-3 -2 -4.5 -5t-3.5 -6.5t-4 -6t-4 -2.5q-1 0 -2 0.5t-1 1.5t1 3.5l2 5t1.5 5.5t1.5 4q1 4 4 6t6 3t7 0.5t9 -0.5h9.5t9.5 -1q5 2 7 6.5t3.5 8.5t3 7t4.5 3t3.5 -1t0.5 -4t-1 -5.5t-3 -4.5t-3 -4.5t-1 -5.5q0 -2 1.5 -4t3.5 -3.5t4 -3.5t2 -4q1 -1 1.5 -2.5
t0.5 -2.5v-2v-5v-4v-3l0.5 -1l1 -2l1 -2l0.5 -1v-5q0 -7 -4 -10.5t-10 -5t-12.5 -2t-11.5 -0.5q0 -1 0.5 -3.5t2.5 -2.5q1 0 5 -0.5t8.5 -1t8 -1t5.5 -0.5q6 -1 9 -4.5t4 -8t1.5 -9.5t0.5 -9v-3.5v-5t-0.5 -5t-1.5 -4.5q-3 -4 -9 -5t-12 -1.5t-11 -1t-5 -4.5q0 -3 1 -5t5 -2
q2 0 3.5 1t4.5 1q12 0 17.5 -6t3.5 -18q1 -1 2 -1.5t2 -0.5v0q9 0 13.5 4.5t5.5 11.5q1 11 1 20.5v19v18.5v21v38v2.5t-0.5 3t-0.5 3.5v2q-1 5 -1.5 8.5l-1 7t-1.5 7t-3 8.5q-1 3 -1 5t-0.5 4t-1.5 4.5t-3 5.5q-3 4 -9.5 6t-15 3.5t-16 1.5h-11.5h-4h-4h-4h-2
q-3 0 -9.5 -0.5t-14 -1.5t-14.5 -1.5t-10 -1.5zM91 215q0 3 2 4t4.5 2t5 1h3.5h2h4h6h4h3h5h4.5h3.5q5 1 5 -3q0 -3 -4 -5q-5 -1 -9.5 -1t-8 -0.5t-7.5 -0.5h-9h-12l-1.5 1.5t-0.5 1.5zM128 172v-1q0 -1 0.5 -2t1.5 -1h25v15q0 1 -1.5 2t-2.5 2q-1 0 -2.5 0.5l-1.5 0.5
q-2 0 -4.5 -2t-5.5 -4.5t-5.5 -5t-3.5 -4.5zM94 156q-1 0 -1 -1.5v-2.5q0 -3 3.5 -5t8.5 -2.5l10 -1t7 -0.5h1q3 1 7 1.5l8 1t7 1t4 0.5q2 0 3.5 0.5t3.5 1.5t3 2t1 4q0 1 -0.5 3t-2.5 2h-45q-3 -2 -9 -2.5t-9 -1.5zM91 108q0 -2 0.5 -2.5t2.5 -1.5h3q1 0 3 -0.5t3 -0.5h3h5
t6 0.5t4.5 2t1.5 5.5t-1.5 7t-6.5 3q-3 0 -7 -0.5t-8 -2t-6.5 -4t-2.5 -6.5zM131 115q0 -3 0.5 -5t2.5 -5q7 -1 11.5 -1.5t9.5 -0.5q1 0 3.5 0.5t3.5 0.5q3 1 3 4t-1.5 6t-3.5 4q-7 2 -11 2.5t-10 0.5h-6q-2 0 -2 -3v-3zM93 90q0 -4 2 -6.5t5.5 -3.5t6.5 -1h7h5t4 2v4v2v4
t-0.5 3.5l-0.5 1.5h-24q-3 0 -4 -2t-1 -4zM133 84q0 -3 2 -4t5 -1h8q5 0 8.5 1.5t6 4t2.5 7.5v2.5t-2 1.5h-27q-1 0 -2 -1.5t-1 -3.5v-4v-3zM136 52v-21l2 -0.5t3 -0.5t5 0.5l8 1t7.5 1.5t3.5 2q0 2 -0.5 4t-1 4.5t-1 4.5t-0.5 3l-4 1h-22z" />
</svg>
