<?xml version="1.0" standalone="no"?>
<!DOCTYPE svg PUBLIC "-//W3C//DTD SVG 1.1//EN" "http://www.w3.org/Graphics/SVG/1.1/DTD/svg11.dtd" >
<svg xmlns="http://www.w3.org/2000/svg" xmlns:xlink="http://www.w3.org/1999/xlink" version="1.1" viewBox="-10 0 266 256">
   <path fill="currentColor"
d="M155 246q0 1 1.5 1.5t2.5 0.5q4 0 6 -4t3 -8.5t1 -9.5v-7v-3q0 -1 -0.5 -6.5t-0.5 -11.5t-0.5 -12t-0.5 -7t0.5 -5t0.5 -9t0.5 -9t0.5 -5v-11v-7.5t0.5 -8.5t0.5 -7v-3l2 -3h33l0.5 -1l0.5 -1q1 -1 1.5 -3l0.5 -2q-1 -3 -2 -3.5t-3 -0.5q-7 0 -13.5 1t-13.5 1h-3h-3
l-1 -2v-5q0 -16 0.5 -32t0.5 -32v-11q0 -2 -2 -2.5t-4 -0.5q-3 0 -4.5 0.5t-1.5 3.5q0 13 1 25t1 26q0 41 -2.5 82t-2.5 82v10zM48 175q0 2 1.5 2.5l3 1t3.5 0.5h2h7t15 -0.5t19 -1.5t18.5 -2.5t14.5 -3t6 -3.5v-2q-1 -1 -4 -1.5t-4 -0.5h-1q-4 0 -8 1t-8 1h-2q-1 0 -3 -0.5
t-3 -0.5t-1 -1v-73h25l1 -1.5t2 -2.5v0v-1v0v0q-1 -1 -2 -1.5l-1 -0.5h-25v-59q0 -2 -2 -2.5t-3 -0.5q-2 0 -4 0.5t-2 2.5v56q0 1 -1 2.5t-2 2.5h-4.5t-7 0.5t-7 0.5h-4.5q-3 1 -6.5 1.5t-3.5 3.5q0 2 0.5 2.5l1.5 1.5h6q6 0 12.5 -1t13.5 -1v8.5v12.5q0 6 0.5 12t0.5 8
t-0.5 6.5t-0.5 9.5t-0.5 10t-0.5 7q-10 0 -20 1.5t-20 2.5q-1 0 -1.5 1l-0.5 1v1z" />
</svg>
