<?xml version="1.0" standalone="no"?>
<!DOCTYPE svg PUBLIC "-//W3C//DTD SVG 1.1//EN" "http://www.w3.org/Graphics/SVG/1.1/DTD/svg11.dtd" >
<svg xmlns="http://www.w3.org/2000/svg" xmlns:xlink="http://www.w3.org/1999/xlink" version="1.1" viewBox="-10 0 266 256">
   <path fill="currentColor"
d="M115 211q0 8 3.5 15t9.5 11.5t12.5 7t13.5 2.5q12 0 19 -7.5t10.5 -18.5t4.5 -24t3 -24q0 -5 1.5 -9l3 -8t3 -8.5t1.5 -8.5q-3 0 -6 2.5t-5 6l-4 7t-2 6.5q-1 7 -2 15l-2 16t-3 15.5t-5.5 13.5t-8.5 10t-12 4q-4 0 -8.5 -2.5t-8 -6.5t-6.5 -8.5t-3 -10.5q0 -8 4.5 -14.5
t8.5 -12.5q1 -1 4 -4.5t6.5 -7.5t6 -7.5t4.5 -5.5q1 -3 2.5 -6.5l3 -7t2.5 -7t1 -8.5q0 -8 -2.5 -13.5t-6 -10.5t-8 -9.5t-8 -9t-6 -10.5t-2.5 -14q0 -3 1 -8.5t3 -11t4.5 -10t5.5 -4.5h32q2 0 5 1t5.5 3t4 4.5t1.5 5.5q0 14 -3.5 20t-8 8t-8 2.5t-3.5 4.5q0 3 1.5 3.5
t3.5 0.5q14 0 20.5 -9.5t6.5 -26.5q0 -9 -3.5 -14.5t-9.5 -8t-13 -3t-13 -0.5h-16q-7 0 -11.5 5t-8 12.5t-5 16t-1.5 14.5v8l3 3t1.5 2t1 2.5l1.5 4.5q3 5 7.5 9.5t8 9.5t6 10.5t2.5 12.5q0 10 -3 17t-7.5 13t-9.5 12t-9.5 12.5t-7.5 13.5t-3 17zM50 172q0 1 0.5 2.5
t1.5 2.5h10q2 0 7 -0.5t11.5 -1.5l13 -2t12 -2t9 -3t3.5 -3t-0.5 -3t-0.5 -3q-1 0 -1.5 -1l-0.5 -1h-24v-54q0 -3 4 -3.5t9 -1t9 -1.5t4 -6q0 -3 -3 -4.5t-5 -1.5q-4 0 -7.5 1t-7.5 1h-1.5t-1.5 -2v-71q0 -2 -2 -2h-3q-6 0 -6 9q0 3 0.5 6.5l1 7t1 7.5t1.5 7l-4 42h-25
q-3 0 -4 2t-1 4q0 4 4 6h6q4 0 7.5 -1t7.5 -1q2 0 3.5 0.5t1.5 3.5v2v1.5t-0.5 3t-0.5 3v2.5v8.5v13.5v13.5v8.5q-2 1 -7 0.5t-9.5 0t-8.5 3t-4 7.5z" />
</svg>
