<?xml version="1.0" standalone="no"?>
<!DOCTYPE svg PUBLIC "-//W3C//DTD SVG 1.1//EN" "http://www.w3.org/Graphics/SVG/1.1/DTD/svg11.dtd" >
<svg xmlns="http://www.w3.org/2000/svg" xmlns:xlink="http://www.w3.org/1999/xlink" version="1.1" viewBox="-10 0 266 256">
   <path fill="currentColor"
d="M171 200v8t2 8q0 2 3 7.5t7 12t8 11t7 4.5t5 -1t2 -4v-2q-5 -3 -9.5 -8t-8 -10.5t-6.5 -11.5t-3 -12q0 -8 4.5 -12.5t10 -8.5t9.5 -8.5t4 -11.5q0 -8 -2 -11.5t-5 -5t-7 -2.5t-9 -4q0 -1 -0.5 -3l-1 -4t-1 -3.5t-0.5 -2.5v-1q0 -4 3 -5t6 -2.5t5.5 -4t2.5 -8.5v-4.5
t-0.5 -4.5t-1.5 -3.5t-4 -1.5q-2 0 -3 2.5t-1 5.5v6.5t-1 4.5q-1 2 -6 4t-12.5 4.5t-15.5 5.5t-15 6t-11.5 5.5t-4.5 4.5t1.5 2h1.5q3 0 5.5 -1l5 -2t5.5 -2.5t6 -1.5q1 0 1.5 1.5t0.5 2.5v2v2q0 10 -3.5 18.5t-9 16t-12.5 14t-13 12.5v5h5t4 -2q6 -5 10 -10l8 -10t7 -10
t7 -11t4.5 -12t1 -11.5t3 -10t9.5 -8.5h1h1q2 1 2.5 3t0.5 4v4v2q2 4 5.5 6t7.5 4t7 4.5t3 6.5q0 7 -3 11t-7 7.5t-8.5 7.5t-7.5 9v4v4zM52 164q0 2 2 3t3 1h2q1 0 2.5 -0.5t3.5 -1t3.5 -1l1.5 -0.5q6 -2 10 -2.5t8.5 -1l9 -1t11.5 -0.5q0 -1 2.5 -3t3.5 -3v-1q0 -2 -1.5 -2
h-2.5q-4 0 -8 0.5t-9 0.5h-4q-1 0 -3 -1q1 -10 0 -18t-1 -17v-2v-7t0.5 -7.5t0.5 -6.5v-3l17 -3l1.5 -1.5l1.5 -1.5q0 -1 -0.5 -2t-1.5 -1h-18v-66q0 -3 -1.5 -3h-2.5q-3 0 -4.5 1t-1.5 3v5v5q0 10 0.5 20.5t0.5 21.5v11l-1 4h-22l-1.5 1.5t-1.5 2.5v1v0q0 1 0.5 1.5
t1.5 0.5h21l3 3q-1 5 -0.5 15.5t0.5 21t-2 18.5t-6 9q-1 0 -3 0.5t-4.5 0.5t-4.5 0.5t-3 0.5q-3 2 -3 5zM119 100q1 1 3 1h2q3 0 8.5 -2t12 -5.5t12 -6t8.5 -3.5q2 -1 6.5 -2t9 -2.5t8.5 -2.5t5 -3q1 -1 1.5 -2.5t0.5 -2.5q0 -2 -0.5 -4.5t-1 -4.5t-1.5 -3.5t-4 -1.5
q-2 0 -2.5 1.5t-1 3.5t-0.5 4.5v3.5t-4.5 3t-10.5 4t-14 5t-15 6t-13 6.5t-9 7.5zM118 65q0 3 3 3h0.5h0.5q8 -3 15.5 -8t15.5 -8q2 -1 8.5 -3t14 -3.5t13.5 -3.5t7 -3q2 -4 2 -10v-11v-4.5t-3 -2.5h-1l-1.5 0.5l-1.5 0.5q0 1 -0.5 4t-1 6.5t-1 6.5t-0.5 4q-1 2 -3 3.5t-5 2
t-6 0.5h-5q-14 4 -26.5 9.5t-24.5 14.5v2z" />
</svg>
