<?xml version="1.0" standalone="no"?>
<!DOCTYPE svg PUBLIC "-//W3C//DTD SVG 1.1//EN" "http://www.w3.org/Graphics/SVG/1.1/DTD/svg11.dtd" >
<svg xmlns="http://www.w3.org/2000/svg" xmlns:xlink="http://www.w3.org/1999/xlink" version="1.1" viewBox="-10 0 266 256">
   <path fill="currentColor"
d="M82 229q0 4 3 6t5 2q3 0 7.5 -1t7.5 -3q25 -3 51.5 -5t51.5 0q2 -1 4 -3t2 -5t-2.5 -5t-4.5 -2q-5 0 -9 1t-8 1q-1 0 -2.5 -0.5l-1.5 -0.5q-2 -3 -2 -8v-9q0 -5 1 -9t1 -9v-1q0 -2 -0.5 -6.5t-0.5 -8.5t-0.5 -7.5l-0.5 -3.5q0 -1 -0.5 -3t-0.5 -3v-16v-16v-4t0.5 -6.5
t0.5 -6.5v-4q0 -12 -0.5 -23t-3.5 -19t-9 -13t-18 -5q-4 0 -10 0.5t-12 2.5t-9.5 6.5t-3.5 12.5v74v10l1 84h-34l-0.5 1t-1.5 2l-0.5 1.5zM129 216v-49l1 -2l4 -0.5t10 -1l12 -1t10 -1.5h3h2.5t1.5 2v50l-3 3l-2 0.5t-5 1t-6 0.5h-5h-12h-8zM42 145q0 5 3 6t7 1
q6 0 12.5 -1.5t13.5 -2.5q1 0 4.5 -0.5t7.5 -1t7.5 -1t4.5 -1.5l0.5 -0.5l1.5 -1.5l0.5 -1.5l0.5 -1.5q0 -2 -2 -4l-2 -2h-21v-7t-0.5 -10.5t-0.5 -10v-6.5v-13v-12l0.5 -0.5t0.5 -1.5q2 -1 5 -1.5l6 -1t5.5 -0.5h4.5q1 -2 1 -3v-3t-1.5 -4t-3.5 -2h-17q-1 0 -1 -1.5v-2.5
q0 -6 1.5 -12t1.5 -11v-6t-1 -6t-2.5 -5t-4.5 -2l-2 0.5t-2 2.5v43l-3 4l-2 0.5t-4.5 0.5t-5 0.5t-4.5 0.5h-3.5t-2 0.5t-1 2l-1.5 4.5q1 1 1.5 2t1.5 2.5t2 2.5l1 1h1q5 0 8 -2t8 -2h1.5h2.5q1 2 1 4v3v5q0 5 -0.5 13t-0.5 15.5v13v5.5l-5 6h-22q-1 0 -1 2.5v3.5zM127 150
v-36l37 -4q1 0 2.5 -0.5t2.5 -1.5h1h2q1 9 1 15.5v14.5v6.5t-3 5.5q-7 2 -15 2h-15h-3h-4h-3h-1zM129 99q-2 -8 -2 -14.5v-14.5v-15q1 -4 4 -6.5t7 -3t8 0t6 0.5h14q3 2 4.5 7.5t1.5 12v13v10.5v6l-3 4h-2.5t-5.5 0.5l-6 1t-5 0.5h-9h-6.5t-5.5 -2z" />
</svg>
