<?xml version="1.0" standalone="no"?>
<!DOCTYPE svg PUBLIC "-//W3C//DTD SVG 1.1//EN" "http://www.w3.org/Graphics/SVG/1.1/DTD/svg11.dtd" >
<svg xmlns="http://www.w3.org/2000/svg" xmlns:xlink="http://www.w3.org/1999/xlink" version="1.1" viewBox="-10 0 266 256">
   <path fill="currentColor"
d="M177 226q2 2 2 6t0.5 8t2 7t4.5 2q1 0 3.5 -2.5l3.5 -3.5v-1v-2l-1 -1.5t-1.5 -3l-1 -3t-0.5 -2.5q-3 -15 -5 -30.5t-2 -30.5v-5v-4.5t0.5 -5t0.5 -5.5h2q2 0 4 1.5t4 3.5t4 3.5t4 1.5q4 -1 5 -2t1 -4q0 -4 -3 -7t-7 -5.5t-8 -4t-7 -3.5l-1.5 -1.5t-3 -2.5t-3 -2.5
l-1.5 -1.5l-3 -1.5l-3 -1.5q-1 0 -1 -0.5t-1 -1.5q-1 -5 -1 -10.5v-11.5v-3v-3.5v-3.5v-3l8 -2t8 -1h5q2 2 2.5 7.5t1 11.5t2 10.5t4.5 4.5t4.5 -1.5t1.5 -4.5q0 -4 -1 -8t-2 -8.5l-2 -9t-1 -8.5q0 -9 1 -18.5t1 -19.5q0 -2 -1 -4t-5 -2q-3 0 -3.5 3.5t-1.5 6.5v24q0 2 -1 4
t-3 2h-18l-1 -5q0 -5 0.5 -9.5t0.5 -8v-7.5v-10v-12q0 -1 -0.5 -2.5t-1.5 -2.5l-2 -2t-2 -1q-2 0 -3 1.5t-2 4t-1 4.5v4q0 9 1 18.5t1 18.5v5.5v3.5l-2 2l-18 2l-3 -4v-1.5t-0.5 -3.5t-0.5 -4v-4l-0.5 -2.5t-0.5 -4.5q0 -3 0.5 -5.5l0.5 -2.5l-4 -4t-4 -2t-3 1.5t-1 3.5v1
l0.5 1.5l1 3l1 3l0.5 1.5v4t0.5 6.5t0.5 6.5v4q0 6 -1 11.5l-2 11t-2 11.5t-1 12l1.5 -0.5t3 -0.5t3 -1t1.5 -2l5 -29q0 -1 2.5 -2t6 -1h6.5h5h2t2 1q1 7 1 12.5v12.5v12q-2 2 -4.5 5t-5.5 6t-6 5.5t-5 4.5q-1 1 -4.5 2.5t-6.5 3t-6 3.5t-3 5q0 2 1.5 2.5t3.5 0.5
q3 0 5.5 -1.5t5 -4t5 -4t5.5 -1.5q2 0 3 2.5t1.5 5.5t0.5 6v5q0 9 -0.5 20t-1.5 20q0 3 -2 9l-4 12t-3 10.5t-1 5.5q0 2 1.5 2.5t2.5 0.5q3 0 5 -2.5t2 -5.5q1 -2 2 -6.5t1.5 -9t1.5 -9t2 -5.5v-2v-7.5v-12.5t0.5 -12.5t0.5 -7.5q0 -1 -0.5 -4.5t-0.5 -7.5v-7.5v-4.5v-3
q0 -5 4 -7.5t8 -2.5q6 0 9.5 3.5t3.5 9.5q0 9 -1 18t-1 19v14q0 2 0.5 6.5l1 9l1 9t0.5 6.5zM50 177q0 3 1.5 3.5t4.5 0.5q2 0 6.5 -0.5t10 -1.5t12 -2t11.5 -2.5t8.5 -3t4.5 -3.5q0 -2 -2 -3.5t-3 -1.5q-4 0 -8 1t-8 1h-2.5t-2.5 -2v-28v-2.5t-0.5 -3.5t-0.5 -3.5v-2.5v-5
v-8t0.5 -8t0.5 -6h17q3 0 3.5 -2t0.5 -4v-3.5t-3 -1.5h-16q-1 0 -1.5 -1t-0.5 -2v-3v-4q0 -10 1.5 -20t1.5 -19q0 -3 -2.5 -6t-5.5 -3l-2.5 0.5t-2.5 1.5v58l-1 0.5t-2 0.5t-3.5 0.5t-5.5 0.5t-5.5 0.5t-3.5 0.5t-2 1.5l-1 1.5q0 1 0.5 2.5t0.5 2.5l0.5 0.5t1.5 0.5h21l1 2
v3v6.5v6.5v5v9v10v10v4v3t-0.5 4t-0.5 3.5v2.5q-1 1 -2 1.5l-1 0.5h-3.5t-5 0.5t-5 0.5h-2.5q-3 1 -3.5 2.5t-0.5 3.5z" />
</svg>
