<?xml version="1.0" standalone="no"?>
<!DOCTYPE svg PUBLIC "-//W3C//DTD SVG 1.1//EN" "http://www.w3.org/Graphics/SVG/1.1/DTD/svg11.dtd" >
<svg xmlns="http://www.w3.org/2000/svg" xmlns:xlink="http://www.w3.org/1999/xlink" version="1.1" viewBox="-10 0 266 256">
   <path fill="currentColor"
d="M128 107q2 0 5 1t3 4v61q0 4 3 6.5t7 4t7.5 2t5.5 0.5q15 3 22.5 8t10.5 12t4 17.5t3 23.5q1 1 1.5 2t0.5 2h2h2q2 0 4 -0.5t3 -3.5v-4v-3q0 -10 -2 -19.5t-6 -17.5t-11 -14.5t-16 -8.5q-8 -2 -14 -2.5t-10 -2t-6 -6t-2 -15.5l-0.5 -3.5t-0.5 -7.5t-0.5 -8l-0.5 -4
q0 -1 0.5 -2.5t0.5 -3.5t0.5 -4l0.5 -2v-5q0 -7 -3.5 -11t-9.5 -4q-8 0 -12.5 3.5t-8.5 9.5q0 4 -1 12.5t-1.5 18t-1.5 18.5t-1 12v2v3v4t2 4v43q0 2 1.5 5t3.5 3q4 0 6 -3.5t2 -6.5q0 -6 -1.5 -12.5t-2.5 -12.5q0 -3 0.5 -7t0.5 -9t-0.5 -9.5t-1.5 -8.5l3 -49q1 -4 3 -8
t6 -4zM40 178q0 3 2.5 4t4.5 1q11 0 22 -2t23 -3q2 1 2.5 -1.5t0.5 -3.5q0 -7 -7 -7q-4 0 -7 1t-7 1v-6v-9v-8v-6v-11t0.5 -13.5t1 -11l0.5 -4.5l3 -4h3t4 -0.5t4.5 -0.5h2.5q3 -1 6 -2.5t3 -4.5t-2.5 -5t-5.5 -2t-5 1t-5 1h-5l-1.5 -3t-0.5 -2q0 -12 1.5 -24.5t1.5 -25.5
q0 -6 -6 -6q-3 0 -4 1t-2 4q-1 6 -1.5 13t-0.5 14v13.5v11.5l-1 7h-20l-2 2l-3 3l0.5 1.5t1.5 2.5q2 2 4.5 2.5t6 0.5t6 -0.5t4.5 -0.5v75q-1 0 -3.5 0.5t-5.5 0.5t-5.5 0.5t-3.5 0.5q-2 0 -3.5 1.5t-1.5 3.5zM150 98q0 5 -0.5 14.5t1 19t4.5 17t11 9.5q1 0 4.5 0.5l7 1
t6.5 1t4 0.5h3h5h4h4q2 -1 3 -2t1 -3q0 -3 -2 -4t-5.5 -1h-7h-6.5t-5 -1t-2 -5v-1q0 -2 0.5 -6t1 -7.5t0.5 -6v-2.5l1 -1q3 0 7 -0.5t7.5 -2t6 -4.5t2.5 -7v-42q0 -3 -1.5 -6.5t-5.5 -3.5q-2 0 -4 1t-2 4q0 7 1.5 15t1.5 15v2v3t-0.5 4t-0.5 4v3q-2 2 -4.5 3t-5.5 1h-2
t-1 -1q0 -15 -1 -29.5t-1 -29.5q0 -6 3.5 -9t7.5 -5t7 -5t3 -8v-3.5t-2 -1.5q-3 0 -5.5 1t-4.5 3l-4.5 4.5t-4.5 3.5q-3 1 -9 3.5l-12 5t-10 5.5t-4 7q0 2 1 2h3t4 -1t4 -2.5t4.5 -2.5t4.5 -1q1 0 2.5 2t1.5 4v3v5v5v3q0 1 0.5 4.5t1 7.5t0.5 7.5v4.5v25q0 1 1 3.5t1 3.5v4
t-0.5 7t-1 7t-0.5 4t-1.5 2l-1.5 1q-1 1 -2.5 0t-2.5 -2.5l-2 -3t-1 -2.5t-0.5 -2.5t-0.5 -3.5t-0.5 -3.5t-0.5 -2.5v-5t-0.5 -7.5t-0.5 -6.5v-4q0 -2 -0.5 -6t-0.5 -8t0.5 -8t0.5 -6q-1 0 -2 -0.5l-1 -0.5h-1h-1q-1 0 -2 0.5l-1 0.5v20zM126 47q0 6 -2.5 9.5t-6.5 6.5
t-7.5 6t-4.5 8h2h2q7 0 12 -3.5t8.5 -8t5.5 -11t2 -12.5v-4q-4 -14 -11 -19.5t-20 -5.5v5q4 3 7.5 5.5t6.5 6.5t4.5 8t1.5 9z" />
</svg>
