<?xml version="1.0" standalone="no"?>
<!DOCTYPE svg PUBLIC "-//W3C//DTD SVG 1.1//EN" "http://www.w3.org/Graphics/SVG/1.1/DTD/svg11.dtd" >
<svg xmlns="http://www.w3.org/2000/svg" xmlns:xlink="http://www.w3.org/1999/xlink" version="1.1" viewBox="-10 0 266 256">
   <path fill="currentColor"
d="M199 243q0 4 1 6t5 2q3 0 4.5 -0.5t1.5 -4.5q0 -8 -1 -17t-2 -17q0 -3 -1 -10.5t-2 -15.5t-2 -15.5t-1 -10.5q-2 -4 -2 -7q0 -2 1 -3l2 -2l2 -2t2 -3q1 -5 1 -9v-9q0 -7 -3 -11.5t-7.5 -6.5t-9.5 -3.5t-9.5 -2t-7.5 -1.5t-3 -3q0 -3 3.5 -5.5t6.5 -3.5q1 0 3.5 -1t5.5 -2
t5.5 -2t3.5 -1v-2q0 -2 -1.5 -2.5t-3.5 -0.5q-11 0 -18.5 5.5t-13.5 13.5q-1 1 -2 2.5l-1 1.5h-29l-1 1t-1 2v1v0q1 1 2 2.5t2 1.5h29q0 1 0.5 5t0 8t-1.5 7t-5 3h-25q-1 0 -1.5 1t-0.5 2t0.5 3t3.5 2h25q2 0 2.5 2.5t0.5 3.5q0 7 -2.5 11t-6.5 5.5t-9 1.5h-9t-7 1t-3 4
q0 2 1.5 2.5t3.5 0.5q6 0 12 -1.5t13 -1.5h1.5t0.5 1t0.5 3.5t0.5 3.5q0 13 -3.5 28t-8.5 27q0 2 -2 4t-3.5 4t-2.5 4t-1 4t1.5 2h2.5q5 0 9 -4.5t6.5 -12t4 -17t2.5 -18t2 -16.5t2 -12l0.5 -1.5t1.5 -1.5l2.5 -0.5t3.5 -1.5q2 0 5 -1t5.5 -1.5t4.5 -1.5t3 -1q3 0 3.5 1
t1.5 4q0 4 1 10.5t2 12.5t2 11l1 5v8.5v11.5v11.5v8.5zM48 161q0 2 0.5 3.5t3.5 1.5q11 0 24.5 -2.5t24.5 -3.5q4 -1 7 -1.5t3 -4.5v-1l-2 -2l-1 -1h-18l-2 -2v-9v-13q1 -5 1 -11.5t0.5 -13t0.5 -11.5v-5l2 -4h21l0.5 -1t0.5 -2t0.5 -4t0.5 -4h-20q-3 0 -4 -2.5t-1 -4.5v-2
v-2q0 -1 0.5 -5.5t0.5 -9.5t0.5 -9t0.5 -5t-0.5 -3t-0.5 -4t-0.5 -4t-0.5 -3q-1 -2 -3 -3t-5 -1q-1 0 -2 0.5t-1 2.5v9v9l0.5 3l0.5 3q0 1 -0.5 1.5l-0.5 0.5q0 6 1 12.5t1 13.5q0 3 -2.5 4.5t-5.5 2t-7 0t-7 -0.5t-5.5 1t-2.5 4t1 5t4 2q6 0 11 -1.5t11 -1.5q2 0 2.5 1.5
t0.5 3.5q0 1 -0.5 2.5l-0.5 1.5q0 4 -0.5 11.5t-1 16.5t-0.5 17t-1 11q1 4 -1 5t-5 1h-7h-7.5t-6 2t-2.5 6zM171 142h4.5t5 1t4 3t1.5 4q0 3 -3 4.5l-5 2.5h-3h-4.5t-4.5 0.5l-2 0.5v-13q0 -3 2.5 -3h4.5zM167 132v-21q0 -1 1.5 -1.5t3 -0.5h3.5h1q11 0 17 4.5t6 15.5v4
q0 2 -0.5 4.5t-2 4t-3.5 1.5v0q-1 0 -1.5 -0.5l-0.5 -0.5q-4 -2 -6 -3.5t-5 -2.5l-6 -2t-7 -2zM129 38v9.5t1 12.5t3 10.5t5 4.5t5 -1t2 -4q0 -4 -1 -7.5t-2.5 -7t-2.5 -7.5t-1 -8v-7q2 -3 7 -5t8 -2q2 0 3.5 3.5t2.5 8.5t2 10.5t2 10.5t3 8t5 3q2 0 3 -1.5t1 -3.5
q0 -4 -1.5 -8t-3.5 -8t-3.5 -8t-1.5 -9t3 -6t8 -1h4t3 3q0 4 2 11.5t5 15.5t7 14t9 6q3 0 4 -0.5t1 -3.5q0 -5 -2.5 -9.5t-6.5 -9.5t-7 -10.5t-3 -11.5v-3t1 -2q3 -2 8 -2.5t9 -1.5l1 -1.5t0 -3.5l-1.5 -1.5l-2.5 -2.5h-1h-1q-1 0 -5 0.5t-9 1.5t-9.5 1.5t-5.5 0.5q0 1 -4 1
h-9t-10.5 0.5t-10.5 1.5t-8 2t-4 2q-1 4 -1 7.5v7.5z" />
</svg>
