<?xml version="1.0" standalone="no"?>
<!DOCTYPE svg PUBLIC "-//W3C//DTD SVG 1.1//EN" "http://www.w3.org/Graphics/SVG/1.1/DTD/svg11.dtd" >
<svg xmlns="http://www.w3.org/2000/svg" xmlns:xlink="http://www.w3.org/1999/xlink" version="1.1" viewBox="-10 0 266 256">
   <path fill="currentColor"
d="M155 244q0 1 0.5 2.5t1.5 2.5h2h2q2 0 4 -0.5t3 -2.5v-11q0 -17 -1 -34t-1 -34v-8.5v-8.5q0 -5 0.5 -9.5t1.5 -8.5l1.5 -0.5l1.5 -0.5q5 0 7 5.5t2.5 13t0.5 14.5v10q0 6 -1 11.5t-1 11.5v6l1.5 1.5l1.5 1.5h1v0q2 0 3.5 -2t2 -5.5t1 -6t0.5 -4.5q0 -12 -1.5 -26
t-3.5 -26q-2 -7 -5.5 -9.5t-11.5 -4.5l-2 -17l3 -4h3h3q8 0 13.5 4t6.5 13q1 11 1.5 24t0.5 25q0 1 1 2t2 1v0q2 0 3.5 -2t2 -4t0.5 -4v-3v-8t-0.5 -12l-1 -14t-2.5 -12.5t-4.5 -9.5t-5.5 -5l-24 -3q-1 0 -1.5 -1.5t-0.5 -2.5q0 -7 2.5 -10.5t5.5 -6t7 -5t8 -7.5h0.5h1.5
q3 0 5 1.5t3.5 3.5t3.5 3.5t5 1.5t6 -5q1 -2 -2 -4.5t-7.5 -5t-8 -4.5t-4.5 -4q-2 -3 -2 -6t-1 -6l-2 -6t-3 -5t-6.5 -2.5l-9 -1t-9.5 -1t-8 -0.5h-14h-15q-1 1 -1 1.5v1.5q0 4 4.5 5t11 0.5t14 -0.5t14 1t11 5t4.5 12q-6 0 -13 -0.5t-13 -2.5h-48v8q0 1 1.5 1.5t2.5 0.5h2
h1q8 0 15.5 -1.5t15.5 -1.5h3.5t5.5 0.5t6 0.5h4q2 0 4.5 0.5t4.5 1t4 2t2 4.5t-3.5 4.5t-7.5 3t-8 2t-5 0.5q-2 0 -6.5 0.5t-10 0.5t-10.5 0.5t-6 0.5q-2 0 -2.5 1t-0.5 2q0 2 0.5 3t2.5 2q8 -1 13 -1.5t13 -0.5h10q2 1 1.5 2.5t-0.5 2.5q0 2 0.5 4t0 4t-1 3.5t-2.5 1.5
q-1 1 -4 1t-6.5 1t-6.5 1t-5 1q-5 1 -7.5 5.5t-4.5 9.5q-1 2 -1.5 7t-1 10.5t-1.5 11t-1 7.5q-1 4 -1.5 8t-0.5 8v7l2 1h1q3 0 4.5 -3.5t2.5 -5.5l5 -46q0 -5 2.5 -8t6.5 -5t8 -3t7 -1h2t2 2v3t0.5 4t0.5 4.5v3.5v0q0 3 -2.5 5t-5.5 4t-6 6t-4 11l-5 42q-2 4 -2.5 6.5
t-0.5 6.5q0 2 0.5 4t2.5 2q4 0 6 -1.5t2 -5.5q0 -15 1.5 -30.5t4.5 -30.5q1 -2 2.5 -4.5t3.5 -2.5q3 0 3 2v29q0 21 -1.5 41.5t-1.5 41.5zM41 156q0 1 0.5 2.5t1.5 1.5h6h5q3 0 10 -1t15.5 -2t15.5 -2t10 -2q2 0 2 -2.5v-3.5h-27q-1 0 -1.5 -2.5t-0.5 -4.5v0q0 -7 0.5 -13
t0.5 -12t0.5 -12t0.5 -14q1 -3 4.5 -4t7 -1.5t6 -1t2.5 -4.5q0 -2 -1 -3.5t-3 -1.5h-1l-1.5 0.5t-3 0.5t-3 0.5l-1.5 0.5h-2q-1 0 -2 -0.5t-1 -2.5v-6v-5q0 -11 1 -21.5t1 -21.5v-3t-2 -3h-4q-3 0 -5.5 1.5t-2.5 5.5v56l-4 3q-2 0 -5.5 -0.5t-7 0t-6.5 2t-3 5.5h24l0.5 2
t0.5 4.5v5v4.5l0.5 3t0.5 6v6v6v4v6t-0.5 6t-0.5 4q1 6 -3 7.5t-9 1.5t-10 0.5t-5 4.5z" />
</svg>
