<?xml version="1.0" standalone="no"?>
<!DOCTYPE svg PUBLIC "-//W3C//DTD SVG 1.1//EN" "http://www.w3.org/Graphics/SVG/1.1/DTD/svg11.dtd" >
<svg xmlns="http://www.w3.org/2000/svg" xmlns:xlink="http://www.w3.org/1999/xlink" version="1.1" viewBox="-10 0 266 256">
   <path fill="currentColor"
d="M199 136v9q0 1 -0.5 2t-0.5 2t-0.5 2.5l-0.5 1.5q0 5 0.5 10t0 10t-2.5 9t-7 7q-1 1 -4 2.5t-6.5 3l-7 3t-3.5 2.5q-7 4 -10 10t-4.5 13t-1.5 14v14q4 0 8 -2t5 -7q0 -1 -0.5 -4.5t-0.5 -7.5t0.5 -7.5t0.5 -4.5q0 -5 2.5 -8t6.5 -5t8.5 -3.5t8 -3t6 -2.5t4.5 -4
q4 -5 5.5 -10.5t2 -11t0.5 -11.5v-11v-10v-10.5t-1 -11t-3 -9.5q-2 -2 -5.5 -3.5t-8 -2t-9 -0.5t-8 -1t-6 -2.5t-2.5 -4.5q0 -2 2.5 -3t3.5 -1h2.5t3 -0.5t3.5 -0.5h2q6 -2 9.5 -8.5t4.5 -15t1 -16.5v-14v-8q-1 -4 -2.5 -4.5t-5.5 -0.5v2v4t-0.5 4.5t-1.5 3.5h-1h-3.5
t-5.5 -0.5t-5.5 -1.5t-3.5 -3q0 -2 0.5 -6t-0.5 -7.5t-3 -6t-6 -2.5q-2 0 -2.5 1t-0.5 2v1q0 1 1 3.5l1 2.5v3.5v5.5v5.5v3.5l1 2q1 0 3 1.5l2 1.5h20q2 0 3 1.5t1 3.5v3q0 1 -0.5 3t-1 3t-1.5 1h-41l-0.5 -0.5l-1.5 -1.5l-0.5 -1t-0.5 -2v-25q0 -1 -2 -2.5t-3 -2.5v0v0h-1
v0l-1.5 1.5l-0.5 0.5v47q0 7 4 10t8.5 5t8.5 3.5t4 6.5v1.5v1.5q-3 2 -4.5 2h-3.5h-3.5t-5.5 1q-6 2 -10 9t-6 15t-2.5 16.5t-0.5 12.5q0 11 2 19t6 13t11.5 7.5t18.5 2.5q0 -4 -2 -5.5t-5 -3t-7 -2t-7 -2t-5 -4t-2 -6.5v-4v-6v-5v-4v-18.5t3 -18.5q5 -7 11.5 -9t15.5 -2
q10 0 17 1t11.5 4t6.5 9t2 16zM142 168q4 5 9.5 7t12 2.5t12.5 0.5h11q0 -2 -0.5 -4.5t-1 -5.5t-1 -5.5t-0.5 -3.5q-1 -2 -2.5 -3.5l-3 -3t-3 -3.5t-1.5 -4v-28q0 -2 -0.5 -2.5t-2.5 -0.5q-4 0 -4.5 4t-1 9.5l-1 11t-3.5 8.5l-1 1l-2 2l-2 2l-1 1h-0.5h-1.5h-1.5t-1.5 -2
v-24q0 -2 -2 -3.5t-4 -1.5h-1l-1 1v2t-0.5 4.5t-0.5 4.5v2v3q0 8 1 14.5t0 14.5zM153 170q0 -1 -1.5 -2t-1.5 -2v0v0v-0.5v-0.5l15 -12h1h1q3 0 4.5 1.5t2.5 3.5t1.5 4.5t0.5 4.5q0 3 -1.5 3.5t-4.5 0.5h-8.5t-8.5 -1zM78 110v16v4t-0.5 7t-0.5 7.5v3.5v3t-0.5 4.5t-1.5 4
t-3 1.5h-23q-1 0 -1.5 1t-1 2.5t-0.5 3v2.5h5q3 -1 10.5 -1.5t15.5 -1.5t15.5 -1.5t10.5 -0.5q3 -2 3 -4q0 -1 -0.5 -2.5t-1.5 -1.5h-15q-3 0 -3 -2v-3q0 -15 1 -30l2 -30q2 -2 6.5 -2t8.5 -0.5t7.5 -2t3.5 -5.5h-21l-3 -2v-1t-0.5 -2.5t-0.5 -3.5v-2q0 -10 1 -20t1 -19
q0 -5 -0.5 -8.5t-5.5 -3.5q-3 0 -5.5 1.5t-2.5 4.5q0 2 0.5 3.5t1.5 3.5v49l-3 3l-28 3q-1 0 -1 1v2q0 3 2.5 4t4.5 1q5 0 10 -2t10 -2q1 0 2 0.5t1 1.5v16zM141 70v-3v-2l0.5 -0.5l0.5 -0.5h43q1 0 1.5 1.5l0.5 1.5q0 1 -1 3.5t-2 4.5t-2.5 3.5t-2.5 1.5h-29q-4 0 -6.5 -3
t-2.5 -7z" />
</svg>
