<?xml version="1.0" standalone="no"?>
<!DOCTYPE svg PUBLIC "-//W3C//DTD SVG 1.1//EN" "http://www.w3.org/Graphics/SVG/1.1/DTD/svg11.dtd" >
<svg xmlns="http://www.w3.org/2000/svg" xmlns:xlink="http://www.w3.org/1999/xlink" version="1.1" viewBox="-10 0 266 256">
   <path fill="currentColor"
d="M111 244q0 3 1 5t4 2t4.5 -2.5t1.5 -4.5q0 -10 0.5 -19.5t2 -19.5t3.5 -19.5t4 -19.5l16 -17q3 -2 6 -1.5t6 0.5v22l-1 1.5t-2.5 3l-3 3t-3.5 1.5q0 -1 -1 -3l-2 -4t-2 -3t-3 -1t-2.5 1t-0.5 3q0 6 0.5 11.5t1 10.5t0.5 11v12q1 4 3 6t4.5 3t5.5 1.5t6 0.5q7 0 14 -0.5
t12 -7.5q1 -6 2 -10.5t1 -8.5v-8v-9v-2v-4v-3v-2q0 -2 -1.5 -3.5t-3.5 -1.5h-1q-1 1 -1.5 3l-1 4t-0.5 3.5v2.5h-0.5h-1.5t-3 -1t-3.5 -2t-3 -2.5t-1.5 -2.5v-22q0 -3 2.5 -3.5t4.5 -0.5q4 0 7.5 2t6.5 5t5 6l4 6q3 19 4.5 39t0.5 39q0 3 1 5t4 2q1 0 2.5 -0.5t1.5 -1.5v-17
q0 -18 -1.5 -37t-6.5 -37q-1 -4 -5.5 -7t-10 -5.5t-9.5 -4t-4 -2.5q0 -2 3 -4t7 -3l8 -2t5 -2q4 -2 6 -9.5t3 -16t1 -17v-12.5v-2v-4v-3v-3q-1 -2 -2 -3.5t-3 -1.5q-1 0 -2.5 0.5t-1.5 1.5v46q0 4 -2 8t-4.5 7t-6 5.5t-7.5 3.5q-1 1 -3.5 0t-4.5 -1v-77q2 -7 2 -11v-10v-5
t-0.5 -6t-2.5 -4.5t-5 -1.5q-2 0 -2.5 1.5t-0.5 3.5q0 18 1 36t1 36v4v5v6v3q-1 4 -3 5h-6q-8 0 -14 -1t-9 -4.5t-4.5 -9t-1.5 -14.5q0 -5 1 -9.5t1 -8.5q0 -3 -1.5 -6.5t-5.5 -3.5q-1 0 -2 0.5t0 2.5v4t-0.5 6t-0.5 6v3q0 15 1.5 23.5t6 13t13 5t23.5 0.5q2 1 2 4v4v3
t-0.5 2.5t-1.5 2l-1 1.5q-1 1 -3.5 2t-6 2.5t-6 3t-3.5 2.5q-9 5 -13.5 12.5t-6.5 17.5q-4 16 -7 33.5t-3 34.5zM148 211q0 -1 1 -3l1 -2h28q2 0 2 1.5v1.5q0 5 -2.5 7.5t-6.5 3.5t-8 1.5t-7 0.5t-5.5 -4t-2.5 -7zM148 195q0 -2 2 -4.5t4 -4.5t4.5 -3t5.5 -1q1 0 4 1.5
t6 3.5t5.5 4.5t2.5 4.5v0l-1.5 1.5l-0.5 0.5q-7 1 -13 1.5t-13 0.5q-3 0 -4.5 -1t-1.5 -4zM39 162v1q0 1 1.5 2l1.5 1h3h3q13 0 25 -1l24 -2q4 0 7.5 -1.5t3.5 -6.5h-22l-1.5 -0.5t-1.5 -1.5q-1 0 -1.5 -0.5l-0.5 -0.5v-62q0 -3 4 -3t8 -0.5t7.5 -1.5t3.5 -6h-18
q-2 0 -3.5 -1.5t-1.5 -3.5q0 -10 2 -20t2 -20v-4t-1 -4q-1 -2 -3 -3.5t-4 -1.5q-3 0 -5 1.5t-2 4.5q0 7 1 14.5t1 15.5v4v6v6v4q-1 2 -5 3t-8.5 1.5t-8.5 0.5h-6q-2 1 -2 1.5v1.5q0 3 2.5 4t4.5 1q4 0 7.5 -1t8.5 -1q1 0 3.5 0.5t2.5 2.5v58q0 5 -3 7t-7.5 2.5t-9 0.5
t-7.5 -1q-1 1 -3 2t-2 2zM178 100q1 0 1.5 0.5l0.5 0.5h1h1l1 -1.5t2 -1.5v-3.5t0.5 -5.5t0.5 -5v-4v-7t0.5 -10.5t1.5 -10t3 -5.5t6 -1.5t7.5 -1t7 -2.5t5.5 -5q0 -1 -1.5 -2t-3.5 -1h-1q-1 1 -4.5 1.5t-7 1.5l-7 2t-4.5 2q-3 1 -5 2.5t-3 4.5q-1 14 -1.5 23.5t-0.5 20.5v8
zM106 39h11t11.5 1t9.5 4t4 9v40q0 3 1.5 3.5t2.5 0.5q3 0 3.5 -1t0.5 -5v-46q0 -5 -5 -7.5t-11.5 -4t-13.5 -1.5h-9l-3 0.5l-3 0.5q-1 0 -1.5 0.5l-0.5 0.5q0 1 1 2.5t2 2.5z" />
</svg>
