<?xml version="1.0" standalone="no"?>
<!DOCTYPE svg PUBLIC "-//W3C//DTD SVG 1.1//EN" "http://www.w3.org/Graphics/SVG/1.1/DTD/svg11.dtd" >
<svg xmlns="http://www.w3.org/2000/svg" xmlns:xlink="http://www.w3.org/1999/xlink" version="1.1" viewBox="-10 0 266 256">
   <path fill="currentColor"
d="M113 243q0 2 1.5 5t4.5 3q2 0 3 -1.5t2 -3.5q0 -1 -0.5 -4t-0.5 -6t0.5 -5.5t0.5 -3.5q0 -4 0.5 -10t1 -11.5t0.5 -9.5t1 -4l1 -1h18q3 0 3 -1v-3v-3t-1 -2h-13l-0.5 -2t-0.5 -3q1 -3 3.5 -3.5t5.5 -1.5t5 -3t2 -7q-8 0 -15 4.5t-13 9.5l-1 -2v-12q0 -1 1.5 -2.5t4 -3
t4.5 -2.5t3 -1t3 -0.5l4 -1l4 -1t3 -0.5t1 -1v-2q0 -3 -2 -3h-4q-14 0 -23.5 7t-9.5 21q0 3 1 5t2.5 4t3 3.5t1.5 4.5q0 14 -2.5 27t-2.5 27zM184 244q0 3 1 3.5t3 0.5t3.5 -0.5t2.5 -2.5v-11q0 -12 -0.5 -23t-0.5 -22q0 -3 1.5 -5t3 -4.5t3 -4.5t1.5 -5q0 -8 -2.5 -13
t-7 -7.5t-10.5 -3t-13 -0.5h-5q-1 0 -1 1v2v1.5t1 1.5q4 0 8.5 0.5t9 2t7 4.5t2.5 9q0 1 -0.5 2.5t-2.5 2.5l-2.5 -1.5t-6 -2.5t-7 -2.5t-5.5 -1.5h-6l-1 1.5t0 1.5q1 3 4 3.5t6.5 1t6 1.5t2.5 5v1.5t-1 1.5q-1 0 -3.5 0.5t-5.5 1t-5.5 0.5t-3.5 1q-1 0 -2 0.5l-1 0.5
q0 3 3 4t5 1q3 0 7 -1t7 -1q2 0 3 0.5t2 2.5q1 8 1 12.5v10.5q0 8 -0.5 15t-0.5 14zM54 135q0 2 0.5 3.5t3.5 1.5q13 0 25 -2t26 -1q1 -1 2.5 -2t1.5 -2v-1q0 -1 -1 -2t-2 -1h-12q-1 0 -3.5 -0.5l-2.5 -0.5v-32l0.5 -0.5t1.5 -0.5q0 -1 2.5 -2t3.5 -2q1 0 5 -0.5t5 -0.5v-1
v-1q0 -3 -2 -4t-4.5 -1h-5.5h-3l-2 -2t-1 -2v0q0 -7 1 -14.5t1 -14.5v-17q-1 -2 -3 -4t-4 -2t-3.5 1t-1.5 3q-1 2 -1 5v5q0 8 1 15.5t1 15.5v9l-3 4h-21l-1 0.5t-2 1.5l-1 1v1q0 3 3 6h6q4 0 8 -1t7 -1q2 0 3 1.5t1 2.5v6t-0.5 10.5t-1 10t-1.5 5.5q-1 0 -3 0.5t-4.5 0.5
t-4.5 0.5t-3 0.5q-2 0 -3.5 -0.5t-3 0l-3 1t-1.5 3.5zM118 128q0 1 1 3.5t3 3.5q1 0 2 -0.5t1 -1.5l3 -37q0 -2 3.5 -2.5t7.5 -1t7 -0.5h5v37l0.5 1.5l0.5 1.5h1h1l2 -2l1 -1v-38h28l2 2v3t0.5 7t0.5 8.5v7.5v3.5v4.5t1 3.5t4 1.5h2t2 -1v-33q0 -13 1 -24.5t-1.5 -19.5
t-10 -13t-23.5 -5q-1 -1 -2 -4t-1 -4v0q0 -3 0.5 -4.5t0.5 -4.5q0 -5 -2 -7t-7 -2v27l-22 6q-5 2 -7.5 9.5t-3 17t-0.5 18.5v14v5.5t-0.5 7.5t-0.5 7.5v5.5zM136 128l0.5 0.5l0.5 0.5h1q2 0 3.5 -2t1.5 -5v-5v-4v-4v-4q0 -2 -1.5 -3.5t-3.5 -1.5h-1q-2 4 -2 9v8q0 1 0.5 5
t0.5 6zM169 99v27q0 1 1 1.5t2 0.5q3 0 3.5 -3t0.5 -5v-0.5v-0.5v-3.5t-0.5 -5t-0.5 -5v-3.5q-1 -2 -3 -2.5t-3 -0.5zM128 80q0 -9 1 -15.5t4 -11t9 -6.5t17 -2h7q5 0 9 0.5t7 3t3 6.5q0 1 0.5 3.5t0.5 5.5t0.5 6.5t0.5 5.5v1v0q0 7 -6 7h-2h-1.5t-2 -0.5l-0.5 -0.5v-20
q0 -1 -1.5 -1.5t-1.5 0.5q-1 0 -2.5 1l-1.5 1v20l-1.5 0.5t-2.5 0.5q0 1 -1 1q-2 0 -3 -1.5t-1.5 -3t-0.5 -3.5v-3q0 -9 4.5 -13.5t13.5 -4.5v-1v-1t-0.5 -2t-2.5 -1q-1 0 -4.5 1t-7.5 2t-6.5 3t-2.5 4v24h-1.5t-1.5 -1q-1 0 -2.5 -0.5l-1.5 -0.5v-18l-1 -1.5t-2 -1.5h-1h-1
l-1.5 1.5l-1.5 1.5v18q0 1 -1.5 1.5t-2.5 0.5q-5 0 -5 -6z" />
</svg>
