<?xml version="1.0" standalone="no"?>
<!DOCTYPE svg PUBLIC "-//W3C//DTD SVG 1.1//EN" "http://www.w3.org/Graphics/SVG/1.1/DTD/svg11.dtd" >
<svg xmlns="http://www.w3.org/2000/svg" xmlns:xlink="http://www.w3.org/1999/xlink" version="1.1" viewBox="-10 0 266 256">
   <path fill="currentColor"
d="M63 237q0 2 1 3.5t5 1.5h135q0 -6 -0.5 -8t-4.5 -4q-10 2 -19 2h-18h-21q-2 -3 -2 -7v-7v-9q2 -3 5.5 -4.5t6.5 -1.5h3h7h6h4h4t4 -0.5t3.5 -0.5h1.5v-7h-42l-0.5 -1.5l-0.5 -1.5q-3 -7 -3 -12.5t1 -12.5l-4 -4t-4 -2h-1q0 1 -0.5 2t-0.5 2v25q0 2 -2 4t-4 2h-35
q-1 0 -4 1t-3 3v2l0.5 1.5l0.5 1.5h45l2 4v2.5t-0.5 5.5t-1 6.5t-0.5 4.5t-1 2.5l-1 1.5h-58q-2 0 -3 1.5t-1 3.5zM161 148v32q0 1 0.5 2.5t1.5 1.5v0q5 0 7 -4t2.5 -9.5t0 -11t0.5 -7.5q3 -3 9 -3.5t12 -0.5t10.5 -0.5t4.5 -4.5v-1q0 -1 -0.5 -1.5t-1.5 -0.5h-30
q-2 0 -3 -1t-1 -3v-3v-2q0 -6 2 -8.5t5.5 -3.5t7 -1.5t7 -3t5.5 -7t2 -12.5q0 -4 -1 -7t-5 -3q-3 0 -4 4t-2 8.5t-3 8.5t-8 4q-3 0 -5.5 -1.5t-2.5 -5.5q0 -8 2 -13t4.5 -7.5t4.5 -3.5t2 -2v-19q0 -3 5 -3h9.5t9.5 -1.5t4 -7.5q0 -2 -1 -2.5t-3 -0.5q-6 0 -11.5 1.5
t-11.5 1.5q-3 0 -11 1t-17 1.5t-17 1t-11 0.5q-1 0 -2.5 1l-1.5 1v1v1q0 1 1 2l1 1h20l2 3q0 4 0.5 8.5t2 8.5t4 7t7.5 4v3.5t0.5 4.5t0.5 4.5v3.5l0.5 0.5t0.5 1.5q0 4 -2.5 4.5t-5.5 0.5q-7 0 -10.5 -2t-5 -5t-2.5 -6.5t-1.5 -6.5t-2 -5t-5.5 -2q0 14 2.5 21t6.5 10.5
t8.5 3.5t8 0.5t6.5 1.5t3 7q0 1 -0.5 3t-1 4.5t-1.5 4t-3 1.5h-34l-1 1l-1.5 1.5t-1 1.5t-1.5 1l2 2h39zM47 123v14.5t2 14t6 11t12 4.5h46q3 0 3.5 -1t0.5 -3q0 -1 -0.5 -3t-1.5 -2h-46q-1 0 -2.5 -1t-3 -2.5l-3 -3l-1.5 -1.5q-1 -5 -2 -8.5t-1 -6t-0.5 -5.5t-0.5 -7
l0.5 -4t0.5 -9t0.5 -11.5t1.5 -11.5t2 -9t2 -5q4 -3 9 -4t9.5 -1.5t9.5 -1t10 -1.5h3t4.5 -0.5t4.5 -0.5h3q1 -3 2.5 -8t2 -10.5t1 -10.5t-0.5 -8q0 -4 -2.5 -6t-6 -3.5t-7 -1.5h-6.5h-3t-5.5 0.5t-5.5 1l-3 0.5h-31q-3 -2 -4 0t-1 5q0 2 1 3t4 1h22l2 2v27q0 2 -2 3.5
t-5 2.5t-6 1.5t-4 1.5q-6 5 -8 12.5t-2.5 15t0 16t0.5 14.5zM74 106q0 4 -0.5 10t0 11.5t2.5 10t8 4.5q11 0 16.5 -2t7.5 -7t2 -13v-18v-17q0 -2 -1.5 -2h-2.5h-3q-1 4 -1 8t-1 7t-4 4.5t-8 1.5h-1q-1 -1 -3.5 -1.5l-2.5 -0.5v-14l-1 -1.5t-2 -1.5h-1h-1l-1.5 0.5l-1.5 0.5
v20zM81 120q0 -6 3 -7.5t8 -1.5h3h3q3 1 3 3v5q0 6 -3 10t-8 4q-6 0 -7.5 -3t-1.5 -10zM156 65q0 -5 2.5 -7t5.5 -2.5t7 -0.5h6v8t-1 7t-3.5 5t-6.5 2q-5 0 -7.5 -3.5t-2.5 -8.5zM84 29q2 -3 6 -3.5t7 -0.5q8 0 10.5 3t2.5 12q0 7 -2 11t-6 5.5t-9 1.5h-11q0 -7 0.5 -14
t1.5 -15zM138 23q0 3 2.5 3.5t5.5 1t5.5 0l2.5 -0.5h11h10t10 -0.5t12 -1.5l0.5 -0.5l1.5 -1.5v0q0 -4 -2.5 -4.5t-4.5 -0.5h-24t-24 2q-2 0 -4 0.5t-2 2.5z" />
</svg>
