<?xml version="1.0" standalone="no"?>
<!DOCTYPE svg PUBLIC "-//W3C//DTD SVG 1.1//EN" "http://www.w3.org/Graphics/SVG/1.1/DTD/svg11.dtd" >
<svg xmlns="http://www.w3.org/2000/svg" xmlns:xlink="http://www.w3.org/1999/xlink" version="1.1" viewBox="-10 0 266 256">
   <path fill="currentColor"
d="M113 233q0 4 2.5 4.5t5.5 0.5h5h4.5t7.5 -0.5t7.5 -1t4.5 -0.5t5.5 0.5t9.5 1t9.5 0.5h5.5h9h9q1 0 2.5 -1t1.5 -3q0 -1 -1.5 -4t-2.5 -3h-81l-2 1.5t-2 3.5v1zM132 175q0 11 1 17.5t4 10.5t9 5.5t17 1.5q5 0 8.5 -1t9.5 -3q6 -4 7 -12t1 -14q0 -3 -0.5 -7.5t-1.5 -8
t-3.5 -6.5t-6.5 -3h-33l-1 1t-2 1q-1 1 -4.5 3t-4.5 3v3v3v4v2zM144 192v-1.5v-1.5l30 -2q2 0 2.5 1t0.5 2q0 4 -2 6t-5.5 3t-6.5 1h-7h-8q-3 -2 -3.5 -3.5t-0.5 -4.5zM45 179v0q3 4 3.5 4.5t2.5 0.5q15 0 29 -2t28 -3q3 -1 4 -2t1 -4q0 -2 -0.5 -2.5t-2.5 -0.5h-3h-5h-5h-2
q-2 0 -5.5 -0.5t-3.5 -1.5l-2 -3v-4v-5v-12v-17.5t1 -17.5t2 -10q2 -2 5.5 -2t7 -0.5t6 -1.5t2.5 -5v-2.5t-2 -1.5h-19q-1 0 -1 -2v-2q0 -13 1.5 -25.5t1.5 -24.5q0 -4 -2.5 -8t-5.5 -4q-2 0 -4 1.5t-3 3.5v14q0 7 0.5 14t0.5 14v8.5t-1 9.5l-4 2t-4 1h-1h-1.5t-3 -0.5
t-3 -0.5h-1.5q-3 0 -4 2.5t-1 4.5q0 3 2 3.5t4 0.5t4 -1t5 -1v0q1 0 4 1t4 1v5v8v7v5v7v8v8v3q0 2 -0.5 5.5t-0.5 7t-0.5 6l-0.5 2.5l-3 2h-21l-1 2l-2 4v1zM143 175v-1q0 -1 0.5 -4t0.5 -4l0.5 -1.5t1.5 -1.5h23q2 0 3.5 1.5l3 3t2.5 3.5t1 4q0 1 -0.5 2t-2.5 2h-2.5h-4.5
q-1 0 -3 0.5l-2 0.5q-2 0 -4 -0.5t-4 -0.5h-2.5h-1.5h-2q-2 0 -3.5 -0.5t-2.5 -1t-1 -2.5zM120 112q0 9 5 14.5t11.5 9t14.5 4.5t14 1t12 -0.5t11.5 -2.5t9 -6.5t3.5 -12.5v-32q0 -5 -5.5 -8t-12.5 -4.5t-13.5 -1.5h-8.5h-14t-15 1q-8 8 -10 17.5t-2 20.5zM130 110
q0 -3 0.5 -7.5t1 -8.5t2.5 -7t6 -5q7 -1 12.5 -1.5t13.5 -0.5h4.5t4.5 0.5t4 1.5t6 2q2 1 3 4t2 5t1 6v5q0 11 -2 16.5t-6 8t-10.5 2.5h-15.5q-6 0 -11 -0.5t-8.5 -3t-5.5 -6.5t-2 -11zM143 114q0 1 2 3t3 2h26q1 0 2 -2t1.5 -4l1 -4t0.5 -3q0 -9 -5.5 -12t-12.5 -3
q-9 0 -14 2.5t-5 13.5l0.5 3t0.5 4zM153 106q0 -4 2 -5.5t6 -1.5q3 0 5 2t2 7v1.5t-2 1.5h-11q-2 0 -2 -2.5v-2.5zM108 53q0 5 6 5q9 0 17.5 -2.5t16.5 -2.5h60q3 0 3 -1v-2q0 -3 -1.5 -5.5t-3.5 -2.5h-38l-1.5 -0.5l-1.5 -0.5v-1v-1q0 -1 0.5 -3.5t1 -5.5t1 -5t0.5 -3
q0 -4 -3 -8t-6 -4h-0.5h-1.5l-3 3l-2 2v27q0 2 -3 2.5t-8 1t-11 0.5t-11 0.5t-8 2t-3 4.5z" />
</svg>
