<?xml version="1.0" standalone="no"?>
<!DOCTYPE svg PUBLIC "-//W3C//DTD SVG 1.1//EN" "http://www.w3.org/Graphics/SVG/1.1/DTD/svg11.dtd" >
<svg xmlns="http://www.w3.org/2000/svg" xmlns:xlink="http://www.w3.org/1999/xlink" version="1.1" viewBox="-10 0 266 256">
   <path fill="currentColor"
d="M66 244l1 0.5l1 0.5q1 1 2 1.5l1 0.5q7 0 12 -4.5t8.5 -10.5t6.5 -12l5 -10l2.5 -3t4.5 -7t4 -7t2 -4q1 -3 2.5 -8.5l3 -11t4 -10.5t4.5 -6q4 2 6.5 6.5t4 10t3 10.5t3.5 9q3 5 7 10.5t8 10.5l8 10t6 11q0 1 0.5 3l0.5 2q2 2 6 4t7 2q6 0 6 -6q0 -2 -2.5 -6.5t-6.5 -10
t-9 -12t-9.5 -12t-8 -10t-4.5 -6.5q-6 -12 -10.5 -25t-7.5 -26v-1v-4.5t1 -4.5t2 -3.5t4 -1.5h2q11 5 23.5 10.5t22.5 12.5l2.5 2.5l1 1l1 1t1.5 0.5q3 0 6 -2t3 -5v-1q0 -1 -2.5 -3t-3.5 -3q-7 -6 -14.5 -10t-15 -7t-15.5 -5.5t-16 -4.5q-3 -1 -3.5 -4.5t-0.5 -8t-1.5 -9
t-6.5 -7.5q-4 -2 -7.5 -2.5l-7 -1t-7 -1.5t-7.5 -4v-6q0 -10 2 -19.5t2 -17.5q0 -4 -2.5 -5.5t-5.5 -1.5q-2 0 -3.5 0.5t-0.5 3.5q0 3 -0.5 8.5t-1 12t-1 12.5t-0.5 8v4v4q0 3 0.5 5.5t2 4.5t3.5 2l25 5l3 1l0.5 2l1 4t1.5 4.5t1 4.5v1v1l-0.5 2.5t-0.5 3.5q-15 2 -27 9.5
t-25 15.5q-2 2 -6 4.5t-7.5 6t-7 6.5t-3.5 6q-1 1 0 2.5t1 2.5h4q3 0 5.5 -1t4 -3t3 -3.5l3.5 -3.5q5 -3 11 -8t13 -9.5t13.5 -8t11.5 -3.5q3 0 3.5 2t0.5 5v1v1q0 1 -0.5 2t-1.5 2.5t-1.5 3t-0.5 2.5q-1 1 -1.5 5t-1.5 8.5t-2 8.5t-2 5q0 4 -3.5 11.5t-7.5 16t-8 16
t-6 10.5t-5.5 6t-7 7t-6.5 7t-3 5z" />
</svg>
