<?xml version="1.0" standalone="no"?>
<!DOCTYPE svg PUBLIC "-//W3C//DTD SVG 1.1//EN" "http://www.w3.org/Graphics/SVG/1.1/DTD/svg11.dtd" >
<svg xmlns="http://www.w3.org/2000/svg" xmlns:xlink="http://www.w3.org/1999/xlink" version="1.1" viewBox="-10 0 266 256">
   <path fill="currentColor"
d="M122 162q0 20 2.5 35t9 25.5t19.5 17t34 9.5l2.5 0.5t3.5 0.5t3.5 -0.5t3.5 -0.5t2 -1.5t1 -3.5q0 -4 -5 -6t-12.5 -3.5t-16 -3.5t-16.5 -6.5t-13 -11.5t-6 -19v-6.5t-0.5 -10t-1 -10t-0.5 -5.5q0 -2 0.5 -6.5t1 -10.5t0.5 -12.5t0.5 -12.5t1 -10.5t0.5 -5.5v-4
q0 -3 -1 -5t-5 -2t-5.5 4t-1.5 7v0.5v1.5l0.5 1t0.5 2l-0.5 2t-0.5 3v1.5v2.5v3v2l0.5 3t0.5 4l-0.5 2.5t-0.5 3.5v4.5t-0.5 8t-0.5 8.5v5zM72 174q1 6 4 9.5t7.5 6t9.5 3.5t10 1h9q2 -1 3.5 -2.5t1.5 -3.5q0 -3 -4.5 -3.5t-10 -1.5t-11 -3t-7.5 -9q0 -2 -0.5 -5.5
l-0.5 -3.5l3 -4h24q2 0 3 -2t1 -3q0 -3 -3 -4.5t-6 -1.5h-6.5h-4.5h-3t-3.5 -0.5t-3 -0.5h-1.5v-15l0.5 -0.5l0.5 -0.5q1 0 2.5 -0.5t3.5 -0.5t3.5 -0.5t2.5 -0.5t3 -0.5l4 -1l4 -1t3 -0.5t2 -1.5t1 -2.5v0q0 -2 -1 -3t-3 -1h-4h-2q-12 0 -18 2.5t-9 7t-3.5 12t-0.5 17.5v4
v5v6v3zM144 188q0 1 1 3.5t2 2.5q23 0 32 -10.5t9 -32.5v-9q0 -6 -1 -11.5t-4 -9.5t-9 -4h-29l-1.5 1t-1.5 2v1q0 2 2.5 3t6.5 1t8.5 0.5t8.5 2t6.5 5t2.5 9.5v2q0 1 -0.5 2.5l-0.5 1.5h-31l-0.5 1.5t-0.5 2.5v0v1v0q0 1 1 3t2 2h26q2 0 3 2.5t1 4.5q0 1 -0.5 3t-2 4t-3 3.5
l-2.5 2.5l-22 6q-1 0 -2 1t-1 2v1zM48 110q0 3 2 3.5t4 0.5q6 0 10.5 -3t8.5 -5q6 -4 13 -7.5t14.5 -6.5t15 -5t15.5 -2q10 0 19 1.5t19 4.5q4 2 8 3.5t8 3.5t8.5 3t8.5 1h5q2 -1 2 -2v-3q0 -1 -0.5 -2t-2.5 -2q-1 0 -4 -1.5t-6 -2.5t-5.5 -1.5t-3.5 -1.5q-1 0 -3 -0.5
t-4.5 -1t-4.5 -1l-2 -0.5q-10 -3 -19 -6.5t-18 -4.5q-2 -2 -2 -5v-5v-4.5t1 -4.5t2.5 -3.5t4.5 -1.5q12 0 24 4t22 9l1 0.5t2.5 1.5t2 2t1.5 1h1.5h1.5q4 0 5 -1t1 -4q0 -5 -3.5 -8t-9.5 -5t-13.5 -3.5t-15 -2.5t-13.5 -2.5l-10 -2.5q-3 -2 -3 -6t0.5 -8.5t-0.5 -8t-4 -3.5
q-1 0 -3 0.5t-3.5 1t-2.5 1.5t-1 2v22q0 2 -5 3.5t-12.5 4t-17 5.5t-17 6.5t-12.5 7t-5 7.5t1 4.5t4 0.5h4q3 -1 10 -4.5t14.5 -7.5t14 -7.5t9.5 -4.5q1 -1 4 -2t4 -1h0.5h0.5h0.5h0.5l0.5 1t0.5 2v22l-1 3q-2 1 -8.5 2.5t-14.5 3.5t-17 5.5t-16.5 6.5t-12 7t-3.5 7z" />
</svg>
