<?xml version="1.0" standalone="no"?>
<!DOCTYPE svg PUBLIC "-//W3C//DTD SVG 1.1//EN" "http://www.w3.org/Graphics/SVG/1.1/DTD/svg11.dtd" >
<svg xmlns="http://www.w3.org/2000/svg" xmlns:xlink="http://www.w3.org/1999/xlink" version="1.1" viewBox="-10 0 266 256">
   <path fill="currentColor"
d="M88 190v6v7v7v3l0.5 2t1 5t1 5.5t0.5 4.5q1 2 1 5.5t0.5 7t2 6t4.5 2.5q2 0 3 -2t1 -4v-2l-0.5 -2t-0.5 -3q-1 -2 -2 -6l-2 -8t-1.5 -7l-0.5 -3v-49q0 -4 2.5 -9l5.5 -11t5.5 -12.5t2.5 -13.5q0 -3 -2 -7t-4.5 -8l-5 -8t-3.5 -7q5 -2 8.5 -4.5t6 -6t4 -7.5t1.5 -10
q0 -5 -1.5 -9.5t-1.5 -9.5q0 -4 2 -5t4.5 -2t4 -2.5t1.5 -5.5q-4 0 -8.5 1.5t-9 2.5l-9 2t-9.5 1v-19q0 -1 -1 -1.5t-2 -0.5t-2 0.5t-1 1.5t-0.5 4t-0.5 6.5t-0.5 6.5t-0.5 4t-0.5 3l-0.5 2q-13 3 -19 11.5t-6 23.5q0 6 1.5 10.5t3.5 8t3.5 7.5t1.5 8q0 3 -1 5l-2 4t-2.5 4
t-2.5 4q-2 9 -4 19.5t-2 19.5q0 2 0.5 4t3.5 2q2 0 3 -1t2 -4q1 -2 1 -6t0.5 -8.5t1 -8.5t0.5 -6q0 -1 0.5 -3t1.5 -3.5l2 -3t2 -1.5q2 0 4 1.5t5 1.5q2 0 2.5 -1.5t0.5 -4.5q0 -2 -0.5 -4t-2 -3.5t-2.5 -3.5l-2 -4q1 -2 3 -4t3.5 -4t4 -3.5t5.5 -1.5h2t1 2q4 8 6.5 15
t2.5 15q0 5 -1.5 10t-4.5 9.5t-5.5 9.5t-3.5 10v5v6.5v6.5v5zM126 172q0 2 1 2.5t3 1t3.5 0t2.5 -0.5q13 0 26.5 -0.5t26.5 -0.5q2 -1 5.5 -1.5l3.5 -0.5v-6h-27l-2 -2v-3v-7t-0.5 -8.5t-0.5 -7.5v-2v-3v-3.5t0.5 -6t0.5 -6v-3.5q4 -2 8 -3t8 -1h8.5h7.5q2 0 2.5 -1t0.5 -3
q0 -3 -2 -3.5t-4 -0.5q-5 0 -10 1t-10 1h-3h-2l-2 -2l-0.5 -2t-0.5 -4t-0.5 -5t-0.5 -5v-1v-4.5v-4.5v-3v-6v-4t0.5 -4t1.5 -5q0 -1 0.5 -2t1.5 -1l19 -4q1 0 1.5 -1t0.5 -2q-1 -2 -2.5 -2.5t-3.5 -0.5q-12 0 -22.5 1t-23.5 1q-2 -1 -3 0t-1 3v2t2 2h19l3 4v48l-3 4h-5.5
t-7.5 0.5t-7.5 0.5t-5 0.5t-4 0.5t-3.5 1v1v1q0 5 4 5q7 0 15 -1t16 -1v42q0 2 -1 5.5t-3 5.5h-23q-3 0 -5.5 1t-2.5 4zM64 69q0 -3 1.5 -6l3 -6t4.5 -4.5t5 -1.5h3t1 1q2 7 3.5 15.5t2.5 15.5l0.5 0.5t0.5 1.5t-2 3.5t-4.5 4.5t-5 3.5t-3.5 1.5q-3 0 -5 -4t-3 -9t-1.5 -10
t-0.5 -6zM90 55q0 -7 2.5 -9.5t8.5 -2.5q3 0 5 1.5t3 4t1 5.5v6t-0.5 6.5t-2 6.5t-4 5t-6.5 2q-2 0 -3 -3.5t-2 -8t-1.5 -8.5t-0.5 -5z" />
</svg>
