<?xml version="1.0" standalone="no"?>
<!DOCTYPE svg PUBLIC "-//W3C//DTD SVG 1.1//EN" "http://www.w3.org/Graphics/SVG/1.1/DTD/svg11.dtd" >
<svg xmlns="http://www.w3.org/2000/svg" xmlns:xlink="http://www.w3.org/1999/xlink" version="1.1" viewBox="-10 0 266 256">
   <path fill="currentColor"
d="M149 244q1 3 1.5 5t3.5 2q4 0 6 -2.5t2 -6.5v-1q-1 -1 -1.5 -6.5t-1 -11.5t-1 -11t-0.5 -6v-8.5t-0.5 -18.5t-0.5 -22v-19v-1v-1l0.5 -2t0.5 -3q7 -2 16 -3t16 -1q3 -2 3 -5q0 -2 -1.5 -3t-3.5 -1.5t-4 -0.5h-3q-6 0 -14 1t-13 4q-3 5 -5.5 9.5t-2.5 10.5q0 26 2 51t1 51
zM75 184q0 14 2.5 26t7.5 25q0 1 1 3.5l2 5t2.5 4t3.5 1.5q6 0 6 -6q0 -5 -2.5 -10t-3.5 -10q-3 -10 -6.5 -20.5t-2.5 -22.5q0 -6 2.5 -12.5t6 -13t7 -12.5t5.5 -11q1 0 1 -3v-3q0 -5 -1.5 -9.5t-3.5 -9t-3.5 -8t-1.5 -6.5q0 -2 3.5 -3.5t8 -4t8 -6.5t2.5 -11l-0.5 -1l-1 -2
l-1 -2l-0.5 -1v-3.5v-4.5v-4v-4l2 -2q1 0 4.5 -1.5t4.5 -1.5v-2q0 -3 -4 -3q-7 0 -14 2.5t-14 2.5h-4q-1 -3 -1.5 -4t-0.5 -3q0 -4 1 -8t1 -8q0 -3 -1 -4t-4 -1q-1 0 -3.5 0.5t-2.5 3.5v30q0 1 -2.5 3t-4.5 2.5t-3 1.5l-2 2l-4 4l-4 4t-2 3t-0.5 5.5t-1.5 5.5v1q0 5 1.5 8
l3 6l3 6t1.5 6q0 1 -0.5 2t-0.5 2q-5 6 -8 12.5t-4.5 14t-2 15.5t0.5 15q-1 1 -1.5 2.5l-1 3t-0.5 2.5v2t1.5 2.5t3.5 2.5v0q5 0 7 -3.5t2 -7.5v-5v-9v-9v-5t0.5 -3.5t1.5 -5t1.5 -5t1.5 -3.5q0 -1 1 -2l2 -2h1v0v0q1 1 1.5 2t1.5 2.5t2 2.5t2 1q0 1 0.5 1.5l0.5 0.5h1
q2 0 3 -1.5t1 -3.5q0 -3 -1 -5l-2 -4l-2 -4t-1 -4q0 -1 1.5 -2t3.5 -2.5t4.5 -2l2.5 -0.5q3 0 4.5 3t2.5 7t1 7.5v4.5q0 10 -3.5 17t-7.5 13.5t-7.5 13.5t-3.5 17zM159 38q-3 0 -5 2t-4 5t-3 6.5t-3 5.5q0 1 -2 4.5t-4.5 7t-4.5 7t-3 4.5q-3 5 -7 9t-7 9q-1 1 -1.5 4.5
t-0.5 5.5q3 0 5.5 -0.5t4.5 -3.5l17 -27q2 -1 4 -5t4.5 -8.5t5 -7.5t5.5 -3q1 0 4.5 3.5t6.5 8t5.5 9t2.5 6.5t-2 3.5t-3 1.5h-12q-1 0 -4 0.5t-6 0.5t-5.5 0.5t-3.5 0.5q-2 0 -2 1.5v2.5q0 4 4 4q10 0 20.5 -1.5t19.5 -5.5h1q3 0 4.5 2.5t3 5.5t2 6.5t1.5 5.5h5q4 0 5.5 -1
t1.5 -5v-3.5t-2 -3.5q-2 -3 -6 -8t-8.5 -11t-9 -12.5t-8.5 -12t-7.5 -9l-4.5 -4.5h-1h-3zM67 80q0 -3 0.5 -6t1.5 -5.5t3 -5t5 -2.5q2 0 3.5 3t3 8t2 9.5t0.5 5.5q0 2 -1 4t-3 3t-4 1.5t-4 0.5t-3 -2t-2 -5t-1.5 -6zM90 60q0 -1 0.5 -3.5t0.5 -3.5q1 -2 4 -2.5t5 -0.5t4 2.5
t3 6t1 6.5v5q0 4 -3 8.5t-7 4.5q-2 0 -3.5 -2.5t-2.5 -6.5t-1.5 -8t-0.5 -6z" />
</svg>
