<?xml version="1.0" standalone="no"?>
<!DOCTYPE svg PUBLIC "-//W3C//DTD SVG 1.1//EN" "http://www.w3.org/Graphics/SVG/1.1/DTD/svg11.dtd" >
<svg xmlns="http://www.w3.org/2000/svg" xmlns:xlink="http://www.w3.org/1999/xlink" version="1.1" viewBox="-10 0 266 256">
   <path fill="currentColor"
d="M152 188q2 3 3 7.5t2 10l2 11t2 9.5q1 2 2 6.5t2.5 8.5t4 7t5.5 3q4 0 4 -4v-2q-3 -6 -6 -13t-6 -15t-4.5 -15.5t-1.5 -14.5v-4.5v-4.5q2 -6 7.5 -9.5t11.5 -6.5t10.5 -6.5t4.5 -9.5q-4 0 -7.5 2t-6.5 4.5t-5.5 4.5t-4.5 2q-1 0 -1.5 -1t-0.5 -2q0 -6 2.5 -12t5 -11.5
l5 -11t2.5 -12.5q0 -4 -3.5 -7.5t-7.5 -6.5t-7 -5.5t-3 -4.5q0 -7 2 -11t6 -6t9.5 -2.5t10.5 -0.5h3t3 2v24l1 1.5l1 1.5h1q3 0 4 -2t1 -5q0 -5 -0.5 -10t-0.5 -11q0 -8 1.5 -16.5t1.5 -16.5q0 -3 -1 -5t-5 -2h-1.5t-1.5 1v26l-2 4q0 1 -3.5 1.5t-5.5 0.5h-8h-7
q-1 0 -2 -0.5t-1 -1.5v-31q0 -2 -0.5 -4t-1.5 -4.5t-2.5 -3.5t-3.5 -1t-4 1t-2 4l0.5 2t1.5 2q0 1 1 4.5t1 4.5v28q0 3 -4 3t-8.5 0.5t-8.5 2t-4 6.5q6 0 10 -1t10 -1q2 0 2.5 1.5t0.5 3.5q0 7 -2.5 13t-5.5 12t-6.5 12t-5.5 12v0q0 3 3 3q4 0 7 -5t5 -10.5t4 -10t5 -4.5
t5.5 1t5 3.5t4 5t1.5 5.5l-1.5 4t-3.5 10t-4.5 12.5t-4.5 12.5t-4 10.5t-2.5 6.5t-2 5.5t-2.5 3.5q0 1 -2.5 3.5l-5 5l-5 5t-2.5 3.5q-2 2 -6 7.5t-7.5 11.5t-6.5 11.5t-3 8.5v0l1 2.5t2 2.5q2 0 4.5 -3.5t5.5 -9t6 -11.5t6.5 -11.5t6.5 -9.5t6 -4zM84 186q0 1 0.5 5
t1.5 10.5t2 13.5t2.5 13t3 10t2.5 4t2 -0.5t1 -1.5v-10q0 -6 -1 -12l-2 -12l-2 -12t-1 -13q0 -8 1 -15t3.5 -12.5t5.5 -11.5t7 -13q1 -3 1 -6v-6q0 -6 -1.5 -10.5t-3.5 -8t-3.5 -6.5t-1.5 -5q0 -3 3 -5t7 -5t7.5 -7t3.5 -10q0 -4 -1 -6.5t-1 -6.5t2.5 -6t5 -3.5t4.5 -3.5
t2 -6q-4 0 -8.5 1l-9 2l-9 2t-9.5 1q-2 0 -2 -2v-3q0 -3 1 -4.5t1 -4.5q0 -2 -1 -5.5t-4 -3.5q-5 0 -6 7v4v6v6v4q0 2 -4 3t-9 3t-9 5.5t-4 11.5q0 5 2 10l4 10t3.5 10t1.5 9q0 3 -0.5 4.5t-2 3t-2.5 3l-3 4.5q-3 5 -5.5 10.5t-4 12t-2.5 13t-1 11.5v7l0.5 0.5l0.5 0.5
q3 0 5 -4t3.5 -10t3 -13.5t3 -13.5t3.5 -10t5 -4h11q1 0 1 -1.5v-2.5q0 -2 -1 -4t-1 -4q0 -4 2.5 -6.5t5.5 -2.5q2 0 4.5 2t3.5 5l2 6t1 5q0 8 -2.5 14t-6 12t-6.5 12.5t-3 13.5q-1 2 -1 5t-0.5 7t-0.5 6.5v3.5zM73 67v-8t1 -5t3.5 -3.5t6.5 -4.5h1q1 0 2 5.5t2.5 11.5
t2.5 12t1 7q0 4 -3.5 6.5t-6.5 2.5q-4 0 -6 -3t-3 -6.5t-1 -8v-6.5zM96 49v-4l2 -2h12q1 0 2 2t1.5 4t0.5 4.5v3.5q0 4 -0.5 6t-1.5 4t-3.5 3.5t-4.5 4.5q-1 0 -2 1l-1 1q-2 0 -3 -4t-1.5 -9t-0.5 -9.5v-5.5z" />
</svg>
