<?xml version="1.0" standalone="no"?>
<!DOCTYPE svg PUBLIC "-//W3C//DTD SVG 1.1//EN" "http://www.w3.org/Graphics/SVG/1.1/DTD/svg11.dtd" >
<svg xmlns="http://www.w3.org/2000/svg" xmlns:xlink="http://www.w3.org/1999/xlink" version="1.1" viewBox="-10 0 266 256">
   <path fill="currentColor"
d="M135 201q0 5 2 13t5.5 16t7.5 14t8 6t4.5 -1t0.5 -4q0 -6 -3 -11t-7 -11t-7 -12t-3 -15q0 -4 2 -8t5 -9t5 -10t2 -10q0 -4 -2 -5.5t-5 -3t-5.5 -3t-2.5 -4.5q0 -4 3 -5.5t7 -3t7 -4t3 -9.5q0 -3 -2 -5.5t-2 -5.5q0 -2 1.5 -3.5t3 -2t3.5 -0.5h3v-3v-2t-1 -2h-3.5h-3.5
q-7 0 -11.5 0.5t-11.5 2.5q-5 0 -5.5 -3t-0.5 -7v-7q0 -4 -3 -4q-2 0 -3.5 1t-1.5 3v19l-2 3q-6 2 -11.5 2.5t-9.5 2.5t-6.5 6t-2.5 11q0 8 2.5 15t2.5 13v3l-1 1.5l-2 3l-2 3l-1 1.5q-3 7 -6 14.5t-5 15t-3.5 15.5t-1.5 15v5l2 2h1q1 0 2.5 -2t3 -5t2 -5.5t0.5 -3.5t0.5 -3
t0.5 -5t0.5 -5t0.5 -3q0 -3 1.5 -7t2.5 -8t3 -7.5t2 -6.5q1 -1 2 -2.5t2 -1.5h1l1.5 0.5l1.5 0.5l6 13q3 -1 4 -2t1 -3q0 -3 -1 -5l-2 -4l-2 -4t-1 -4q0 -8 5 -12t12 -7h3h1.5t1.5 1q1 2 3.5 4.5t4.5 5.5t4 5t2 3q1 0 1.5 1.5l0.5 1.5q0 5 -2.5 9t-5 8.5t-4.5 9.5t-2 10z
M120 111q2 0 3.5 3t2 6t0.5 6v5l-0.5 2.5t-0.5 3.5q0 2 -2.5 3.5t-5.5 2.5t-6 1.5t-5 0.5t-4 -0.5t-2 -2.5v-19q0 -2 3 -4t6.5 -3.5l7 -3zM132 117v-2v-3.5t1 -2.5t3 -1h15l1 3.5t2 4.5v1q0 6 -4.5 10.5t-10.5 4.5q-3 0 -4.5 -1t-2 -3.5t-0.5 -5.5v-5zM147 66q0 6 2.5 9.5
t7 6t9 4t8.5 3.5q6 3 10 10t7 14t5 12.5t4 5.5t4 -1.5t2 -3.5l-0.5 -1.5t-0.5 -2.5t-0.5 -2.5l-0.5 -1.5q-1 -2 -2 -5t-2.5 -6.5t-2.5 -6t-1 -3.5q-3 -5 -10 -9t-14.5 -7t-13.5 -7t-6 -9t6.5 -6t15 -1.5t16 -1.5t9.5 -6q2 -4 2 -10.5v-9.5v-11q-1 -1 -4 -3.5t-4 -2.5h-36
l-10 5l2 4h13l0.5 1.5t0.5 2.5v3v4q0 10 -2.5 13.5t-5.5 5.5t-5.5 4.5t-2.5 9.5zM92 72q-2 3 -4.5 5l-5 4t-5.5 4.5t-5 5.5q-1 2 -3.5 5l-5 6t-4 5.5l-1.5 2.5v11q3 0 5.5 -2.5t4 -5.5l3 -6t3.5 -5l4 -4t6 -6.5t6 -6t4 -4.5q3 -1 5.5 -3.5t5.5 -4.5q5 -3 10 -5.5t8.5 -5.5
t6 -7t2.5 -11q0 -6 -2 -11.5t-5.5 -9.5t-8 -6.5t-10.5 -2.5q-3 0 -7.5 2t-10.5 5.5t-11.5 7t-10.5 7.5t-8 7.5t-3 6.5v2t1 2q1 0 2 -0.5l1 -0.5q1 -1 4 -3t6 -4.5t5.5 -4.5t3.5 -3h2q2 0 4.5 4t4.5 9t3 10t1 7l-0.5 1.5t-0.5 2.5zM89 34q0 -2 1.5 -4t4 -3.5t4.5 -3t4 -1.5
q5 0 8.5 2t5.5 5.5t3 7.5t1 9t-1.5 8t-4 5.5t-6 3.5t-7.5 2q-1 0 -2 -2.5t-1.5 -6l-1 -7t-1.5 -4.5l-2 -2t-2 -3t-1.5 -3.5t-1.5 -1.5v-0.5v-0.5zM181 21q4 0 6.5 0.5t5.5 4.5v2.5v2.5q0 3 -0.5 6t-1.5 6t-3.5 5t-5.5 2q-1 0 -2.5 -0.5t-3.5 -1t-3.5 -1.5t-1.5 -2v-21
q0 -1 1.5 -2t3 -1h3.5h2z" />
</svg>
