<?xml version="1.0" standalone="no"?>
<!DOCTYPE svg PUBLIC "-//W3C//DTD SVG 1.1//EN" "http://www.w3.org/Graphics/SVG/1.1/DTD/svg11.dtd" >
<svg xmlns="http://www.w3.org/2000/svg" xmlns:xlink="http://www.w3.org/1999/xlink" version="1.1" viewBox="-10 0 266 256">
   <path fill="currentColor"
d="M59 244q0 2 1 4.5t3 2.5q3 0 5.5 -3.5t4.5 -9t4 -11.5t4 -11.5t5 -9t8 -3.5v0q1 0 2 2t2.5 4t3.5 3.5t4 1.5q3 0 3 -4q0 -2 -1 -4t-2.5 -4t-3 -3.5t-0.5 -3.5l1 -1.5t2 -1.5t2.5 -0.5t3.5 -1t4.5 -0.5h2.5l0.5 -0.5l0.5 -0.5q2 0 5 3l6.5 6.5t6 7t2.5 4.5q-1 3 -3 5.5
t-3.5 4.5l-3 4t-1.5 5q0 1 0.5 4.5t1.5 3.5q5 3 11 5.5t12 4.5t12.5 3t11.5 1q3 0 4 -1.5t1 -3.5q0 -3 -3 -4.5t-8 -2l-10 -1t-10 -1.5t-8 -3t-3 -6q0 -3 1 -5t2 -4.5l2 -5t1 -5.5v-2v-2l-12 -12v-0.5v-0.5q0 -2 2 -3t5.5 -1.5t7 -1.5t6 -3.5t3.5 -7.5t0 -13l1 -1q4 -1 8 -1
t7 -2l1.5 -1.5l0.5 -0.5q0 -1 -1 -3t-3 -2q-7 0 -14.5 1t-14.5 1h-6.5t-6 -0.5t-4.5 -2t-2 -5.5t3.5 -6.5t8 -3.5t8.5 -1.5t7 -1.5l1.5 -0.5t3.5 -1.5t3.5 -1.5l1.5 -0.5q6 -1 10.5 3.5t8.5 10.5t7 11t7 5t4 -4q0 -3 -0.5 -4.5t-2.5 -4.5l-4 -4t-6 -6.5t-5.5 -7t-3.5 -4.5
q-2 -1 -2.5 -1.5t-0.5 -1v-1.5v-2q0 -3 0.5 -6.5t0.5 -7.5q0 -5 -1.5 -10.5t-5.5 -8.5q-9 -3 -18 -3.5t-17 0.5l-2 -1v-2.5v-2.5v-5t3 -5q6 0 12.5 -0.5t12 -2.5t9 -6t3.5 -12v-2l-0.5 -2t-0.5 -4t-0.5 -4t-0.5 -3q0 -2 -1 -2h-2q-4 0 -5 3.5t-1 8t-1 9t-4 6.5q-5 2 -9 2.5
t-8 0.5h-3.5t-1.5 -3v-7q0 -7 -0.5 -14t2.5 -13l-5 -6q-1 0 -2 0.5l-1 0.5q-3 3 -4 5t-1 6v4.5v6.5v7v4q0 2 -1 4l-2 4h-1.5h-2.5q-5 0 -8 -2t-4.5 -5.5t-1.5 -7.5t-0.5 -7.5t-1.5 -5.5t-4 -2q-2 0 -3 2.5t-1 4.5q0 10 2 16t5.5 8.5t7.5 3.5t7 2t5.5 2t2.5 5q0 5 -1.5 8.5
t-7.5 4.5h-6h-8h-9h-5t-2.5 2t-2.5 2v1v1l2 1h5q7 0 14 -0.5t14 -0.5q3 0 4 1.5t1 3.5v5.5t-2 4.5q-1 2 -5.5 2.5t-11 1t-13.5 0.5t-13 0.5t-10 2.5t-4 5t1 3.5t4 0.5h1q1 0 3 -1.5t3 -1.5q4 -1 9.5 -2.5t11 -2t10.5 -1t10 -0.5h2t2 2v15l-2 3h-2t-4.5 0.5t-4.5 0.5h-4h-13
q-2 0 -4 1t-2 4q0 2 1 2.5t4 0.5q6 0 12.5 -1t13.5 -1q3 0 3.5 3.5t0.5 6.5v3.5t-1 2.5q-15 3 -28 8q-3 1 -4.5 4.5t-1.5 6.5t1 5.5t3 5.5t3.5 5.5t1.5 5.5v0.5v0.5q-1 1 -2.5 3t-2.5 2q-3 4 -7.5 9.5t-8 11.5t-6.5 12t-3 11zM89 174q0 -4 2.5 -6.5t6.5 -4t8 -2t7 -0.5h1.5
h1.5q2 5 2 8.5v7.5q0 3 -2 5.5t-5 3.5t-6 1.5t-6 0.5t-5 -1.5t-3 -3.5t-1.5 -4.5t-0.5 -4.5zM126 179q0 -1 -0.5 -3t-0.5 -4t-0.5 -4l-0.5 -2v-2q0 -2 1.5 -3t3.5 -1h17l1 1t2 1v1q0 10 -5.5 14.5t-14.5 4.5v0q-1 -1 -2 -1.5t-1 -1.5zM124 124q0 -3 0.5 -5.5t1.5 -4.5t3 -3
t4 -1h7t8 0.5t7 2.5t3 5t-3.5 5t-8.5 3t-9.5 1.5t-6.5 0.5t-4 -0.5t-2 -3.5zM130 103q-3 -1 -3 -3v-4q0 -4 0.5 -5.5t4.5 -2.5h8h8q5 0 9 0.5t7 3.5t3 8v3t-1 3.5t-2 2.5t-2 1q-3 0 -6.5 -1t-7.5 -2.5t-8.5 -2.5t-9.5 -1z" />
</svg>
