<?xml version="1.0" standalone="no"?>
<!DOCTYPE svg PUBLIC "-//W3C//DTD SVG 1.1//EN" "http://www.w3.org/Graphics/SVG/1.1/DTD/svg11.dtd" >
<svg xmlns="http://www.w3.org/2000/svg" xmlns:xlink="http://www.w3.org/1999/xlink" version="1.1" viewBox="-10 0 266 256">
   <path fill="currentColor"
d="M147 213q0 7 3 12.5t8 9.5t11.5 7.5t12.5 5.5q1 1 3 1.5l2 0.5q7 0 7 -6q0 -3 -6 -5t-13 -5t-12.5 -7.5t-5.5 -11.5q0 -5 3 -8l6 -6t6 -5.5t3 -7.5t-5 -8t-10.5 -5.5t-10 -5.5t-2.5 -6q2 -5 7 -6t10.5 -1.5t10 -2t4.5 -8.5q0 -4 -1 -8.5t-1 -8.5q0 -3 1 -4t3 -1.5t4 -0.5
h5v-3v-3q0 -1 -1 -2h-7q-5 0 -10 0.5t-10.5 1.5t-10.5 1.5t-9 1.5q-5 -1 -5 -6q0 -3 1 -7t4 -6q7 -1 15 -1.5t14.5 -2.5t11 -6t4.5 -13v-3t-1 -4t-2 -3.5t-4 -1.5t-4 3t-1 6.5t-0.5 7.5t-4.5 5q-4 2 -8 2.5t-7.5 1t-7.5 0.5h-8l-0.5 -1.5t-0.5 -2.5t0.5 -3l1 -4t0.5 -4v-3
q1 0 3 -1t5 -2t5.5 -2.5t3.5 -2.5v-8t1 -7.5t3.5 -5.5t7.5 -3h6t10.5 -0.5t10 -0.5h6.5q0 -1 1.5 -2t1.5 -2v0q0 -3 -1.5 -4.5t-3.5 -1.5q-3 0 -5 0.5t-5 1.5l-78 8h-12h-8t-13 0.5t-13.5 0.5h-8.5q-4 -1 -5 1t-1 4q0 3 1.5 4t4.5 1q8 0 17 -2t18 -2h10q2 4 2.5 9.5t0.5 8.5
q3 4 6.5 4.5t7.5 1.5t7 2.5t3 6.5v4t-0.5 4.5t-1.5 4t-3 1.5q-3 0 -7 -0.5t-8.5 -0.5t-8 -1t-6.5 -3t-3.5 -6t-0.5 -7.5t-0.5 -6.5t-5.5 -3q-4 0 -5 3t-1 6q0 4 0.5 8t1.5 9q5 3 11 5t11.5 2.5t11.5 0.5h13l2 1l1 15q1 1 -1 2.5t-4 1.5q-6 1 -13 2t-13.5 3t-11 5.5
t-4.5 11.5q0 5 2 8.5t3.5 7.5t3.5 8t2 8q0 3 -1.5 6t-3.5 5.5l-4 5t-3 5.5q-4 10 -7 20t-3 21q0 2 0.5 3.5t3.5 1.5t5 -4t3.5 -10.5t2.5 -14t3 -13.5t4.5 -10.5t6.5 -4.5h1l18 16h1h1q2 0 2.5 -1.5t0.5 -3.5v-2v-1l-13 -14v-1v-1q0 -3 2.5 -5.5t6.5 -4.5t7.5 -3t5.5 -1h2h1
q1 2 5.5 6t9 8.5t8.5 8t4 4.5q0 4 -3 6.5t-6 4.5t-5.5 5t-2.5 7zM100 163q-4 -5 -5.5 -8.5t-1.5 -7.5q0 -6 4 -10t9 -6t11 -3t10 -1h2t1 1v26l-3 1.5t-7 3t-6 2.5q-1 0 -2 1t-2.5 1.5l-3 1t-2.5 0.5v0q-1 -1 -2 -1.5t-2 -0.5zM138 139q0 -5 1 -8t3 -4.5t6 -2.5t9 -1
q4 0 6 1.5t3 3.5t1 5v6t-2 5.5t-5.5 4t-7.5 1.5h-8q-2 0 -3 -1t-2 -2.5t-1 -3.5v-4zM113 54q0 -4 1 -5.5t5 -2.5q1 0 4.5 -0.5t8 -1t8.5 -1t5 -0.5h1h1l1.5 0.5l1.5 0.5q0 1 0.5 3t0.5 3q0 8 -5 11t-14 3q-2 0 -5.5 -0.5t-6.5 -1.5t-5 -3t-2 -5zM102 20q0 4 3 4q16 0 32 -1
t32 -4q1 0 3 -1.5t2 -2.5v-1q-1 0 -2 -1l-2 -2h-4.5h-4.5q-10 0 -20.5 1.5t-21.5 1.5h-5l-1 -0.5l-1 -0.5q-3 0 -6.5 2t-3.5 5z" />
</svg>
