<?xml version="1.0" standalone="no"?>
<!DOCTYPE svg PUBLIC "-//W3C//DTD SVG 1.1//EN" "http://www.w3.org/Graphics/SVG/1.1/DTD/svg11.dtd" >
<svg xmlns="http://www.w3.org/2000/svg" xmlns:xlink="http://www.w3.org/1999/xlink" version="1.1" viewBox="-10 0 266 256">
   <path fill="currentColor"
d="M90 176q0 3 0.5 9t1.5 14.5t3 17.5t4 16.5t4 12.5t5 5q6 0 6 -6v-2v-1q-5 -8 -8 -17t-5 -18.5t-3 -18.5t-1 -18l0.5 -2.5t1 -5.5l1 -6t1.5 -5v-1.5t0.5 -3.5t1 -3.5l0.5 -1.5q2 -3 3.5 -5t1.5 -6q0 -10 -4 -18t-8 -17v-1q0 -4 3.5 -6t7.5 -4.5t7.5 -6t3.5 -9.5
q0 -5 -2 -9t-2 -9q0 -3 0.5 -4t2 -1.5t2.5 -1.5t1 -2q0 -3 -2 -3h-4q-6 0 -12 2.5t-13 2.5v-26q0 -1 -2 -2.5t-3 -2.5h-0.5h-0.5q-2 0 -2.5 0.5t-0.5 2.5v31q0 1 -4 3t-8.5 5t-8 8t-3.5 12q0 5 2 9.5t4.5 9t4.5 8.5t2 8q0 5 -2 9l-4 8q0 1 -1 5t-1.5 8.5l-1 9t-0.5 5.5
t-0.5 4t-0.5 5q0 1 0.5 4t0.5 4q0 2 1 2h2q3 0 4 -1.5t2 -3.5v-4.5t0.5 -7.5t0.5 -7.5v-4.5t1 -3l1 -2q0 -1 0.5 -3t1 -4.5t0.5 -4.5t1 -3h1h2l2.5 1.5t3.5 1.5v0v0q2 0 2.5 -1.5t0.5 -2.5q0 -2 -1 -3.5t-2.5 -3t-2.5 -3t-1 -3.5q0 -4 2.5 -6.5t6.5 -2.5h2t1 1q1 2 2.5 4.5
l3 5t2.5 5.5t2 4v5q0 6 -2 12t-4 12.5t-3.5 12.5t-1.5 13zM153 136h3h2q1 0 2 0.5t1 1.5v105q0 3 1.5 3h2.5q2 0 3 -0.5t1 -3.5v-104q0 -2 1.5 -3t3.5 -1.5t4 -0.5h3h5.5t4.5 3q0 2 0.5 7t0.5 10t0.5 10t0.5 7v2q0 13 -2.5 26t-2.5 26q0 2 1 3.5t3 1.5h0.5h0.5l3 -6
l0.5 -3.5t1 -7.5l1 -8t0.5 -7v-4v-9v-10v-8v-6v-10v-9v-7q-1 -5 -2.5 -10.5t-3 -10.5t-3 -10.5t-1.5 -10.5q0 -4 1 -7t1 -6t-0.5 -4.5t-3.5 -1.5q-2 0 -3 2.5t-1.5 6.5t-0.5 8v6q0 7 2.5 13.5t2.5 12.5v2v2q-4 1 -7 1h-7h-3h-1l-2 -3v-54q0 -1 2.5 -1.5t6 -1t8 -2t8 -4.5
t6 -9t2.5 -15q0 -2 -1 -4.5t-4 -2.5q-1 0 -2.5 5t-3.5 11t-6 10.5t-11 4.5q-3 0 -4 -2t-1 -5v-2q0 -1 0.5 -5t0.5 -8t0.5 -8t0.5 -5v-1q0 -3 -1.5 -5t-3.5 -2t-4 1.5t-2 3.5q0 8 1 15.5t1 15.5v5q-1 2 -2 2h-2q-5 0 -7.5 -2.5t-3.5 -6t-1 -8v-7.5q-2 -3 -5 -3.5t-5 -0.5
q0 7 2 15t5 13q2 3 5.5 4t6.5 2t5.5 3.5t2.5 7.5v1q0 1 -0.5 3.5t-0.5 3.5v41l-2.5 0.5t-3.5 0.5h-8h-9l-1 -0.5l-1 -0.5v-1q0 -4 1 -8t3 -7.5t3.5 -7.5t1.5 -8q0 -2 -0.5 -5.5l-1 -7t-2.5 -5.5t-4 -2q-3 0 -3 3q0 4 1 8.5t1 9.5q0 6 -1.5 12.5l-3 13t-3.5 13.5t-2 14
q0 19 2.5 37t5.5 37q1 4 1 5q0 2 3 2t3.5 -2.5t0.5 -5.5v-2v-2l-0.5 -2t-1.5 -4.5t-1.5 -4.5l-0.5 -2q-2 -14 -3 -27.5t-1 -27.5v-2.5v-3.5v-4v-2q7 -2 10.5 -2h9.5zM65 77q0 -4 0.5 -7t2 -4.5l4 -4t5.5 -4.5q0 -1 1 -1.5t2 -0.5q3 7 4.5 16t1.5 17v5q-2 2 -5 3.5t-6 1.5h-1
l-2.5 -5l-3 -6t-2.5 -5.5t-1 -4.5zM89 59q-2 -5 1.5 -7.5t7.5 -2.5t6 2t3.5 5t1.5 6.5v6.5q0 2 -1 4.5t-3 5t-4 4t-4 1.5h-1q-1 0 -2 -1.5l-1 -1.5z" />
</svg>
