<?xml version="1.0" standalone="no"?>
<!DOCTYPE svg PUBLIC "-//W3C//DTD SVG 1.1//EN" "http://www.w3.org/Graphics/SVG/1.1/DTD/svg11.dtd" >
<svg xmlns="http://www.w3.org/2000/svg" xmlns:xlink="http://www.w3.org/1999/xlink" version="1.1" viewBox="-10 0 266 256">
   <path fill="currentColor"
d="M91 200v5t0.5 7t0.5 7.5t1 5.5q0 1 1 2.5l2 3t1.5 3l0.5 1.5v3t0.5 4.5t1.5 5t4 2.5t4.5 -2t1.5 -5q0 -6 -3 -13.5t-6 -12.5q0 -8 -0.5 -14t-0.5 -13v-10t1 -10t4 -9t6 -7.5t5.5 -8t2.5 -9.5t-1.5 -9.5t-3 -8.5t-2.5 -7.5t-1 -6.5v0q1 -1 3 -3.5t5 -5t5 -5t3 -3.5
q2 -2 2 -5v-5q0 -5 -1 -9.5t-1 -9.5q0 -2 1 -3.5t2.5 -2.5t2.5 -2.5t1 -3.5v-1q-1 0 -2 -1.5t-2 -1.5l-3 0.5l-3 0.5q-1 1 -3.5 1.5t-5.5 1t-6 0.5t-5 1v0q-5 0 -5.5 -3.5t-0.5 -6.5q0 -4 1 -9t1 -9q0 -2 -1.5 -3.5t-3.5 -1.5q-3 0 -4 1.5t-1.5 3.5l-1 4t-0.5 4
q0 6 0.5 10.5t1.5 10.5q-2 4 -6.5 6t-9 4.5t-7.5 6.5t-3 13q0 6 2.5 12l5 12t5 11.5t2.5 10.5v1q-10 12 -17.5 26t-7.5 31h5l1 -1.5t2 -4t2 -4.5t2 -3q1 -3 2.5 -8l3 -10t4 -8.5t5.5 -3.5q2 0 3.5 1t3.5 1q3 0 3.5 -1.5t0.5 -3.5q0 -3 -1 -5.5t-1 -5.5q0 -2 1 -4.5t2.5 -4.5
t3.5 -3.5t4 -1.5q3 0 5 3t3 6t1.5 7t0.5 6q0 5 -1.5 8t-3.5 6.5t-4 6.5t-4 7q-4 9 -5.5 18.5t-1.5 20.5zM145 150q-1 0 -2 0.5t-1 1.5v48q0 2 0.5 4.5t2 5t3.5 4.5t5 2h31q1 0 4 -1.5t6 -4t5 -5t2 -4.5v-47q0 -2 -2 -2h-3h-2q-2 0 -3 2v11q0 1 -0.5 3l-0.5 2h-39l-1 -1v-4
v-6.5t-1.5 -6t-3.5 -2.5zM148 185q0 -2 1.5 -3l3 -2t3.5 -1.5t3 -0.5h15h14q0 1 1 1.5l1 0.5q0 1 0.5 2t0.5 2.5v3v2.5q0 6 -1.5 10t-4.5 6t-8 2.5t-11 0.5t-9.5 -1.5t-5.5 -5t-2.5 -8t-0.5 -9.5zM145 113v6t1.5 8t3 7.5t4.5 3.5h33q5 0 8.5 -2.5t5.5 -6t2.5 -8t0.5 -9.5v0
q0 -2 -0.5 -6l-0.5 -4q0 -1 -1 -1.5l-1 -0.5h-4.5t-7.5 -0.5t-7.5 -0.5h-4.5h-3h-5t-5 0.5t-3.5 2t-1.5 4.5h31l2.5 3t3.5 4v2q0 5 -1.5 8.5t-6.5 6.5h-3.5t-5 0.5t-5 0.5h-4.5h-2q-2 0 -4.5 -0.5l-5 -1t-4 -2.5t-1.5 -4v-26q0 -1 0.5 -2.5t1.5 -3l2 -3t2 -1.5l31 -3
q5 0 7.5 -2.5t3.5 -5.5t1.5 -6.5t0.5 -7.5v-2v-3v-3.5v-1.5q0 -3 -3 -5t-5 -2h-28l-2 -1t-4.5 -2.5t-2.5 -2.5v-23q0 -3 -1.5 -3.5t-2.5 -0.5q-2 0 -3 1.5t-1.5 3t0 3.5t0.5 3q0 3 -0.5 7.5t0 9.5t2 8.5t6.5 3.5h32l5 6v1.5t-0.5 4t-0.5 4.5t-1 3q-1 4 -5.5 5.5t-10.5 2
l-12 1t-9 1.5t-5.5 3.5l-4.5 4.5q0 7 -0.5 12.5t-0.5 11.5zM75 78q0 -7 2 -10.5t8 -7.5l1 -0.5l1 -0.5q2 0 3.5 6t3 13.5t2.5 14t1 8.5q0 5 -3.5 7t-6.5 2h-2h-1q-5 -7 -7 -15.5t-2 -16.5zM100 67v-4.5v-4.5q1 -3 5.5 -4t6.5 -1q4 0 5.5 3t2.5 7t1 7v6v4v4q-2 2 -3.5 4
t-3.5 3.5l-4 3t-4 1.5q-3 0 -4.5 -4t-2 -8.5t0 -9.5t0.5 -7z" />
</svg>
