<?xml version="1.0" standalone="no"?>
<!DOCTYPE svg PUBLIC "-//W3C//DTD SVG 1.1//EN" "http://www.w3.org/Graphics/SVG/1.1/DTD/svg11.dtd" >
<svg xmlns="http://www.w3.org/2000/svg" xmlns:xlink="http://www.w3.org/1999/xlink" version="1.1" viewBox="-10 0 266 256">
   <path fill="currentColor"
d="M81 182q0 6 1 11.5t3 10.5l4 10l4 10q1 3 2 7.5t2.5 9t4 7.5t6.5 3q2 0 3.5 -2t1.5 -5t-2.5 -9.5t-6 -14.5t-7 -15.5t-4.5 -11.5v-3v-4v-4v-2q0 -9 2.5 -16.5t5.5 -14t5.5 -13t2.5 -14.5q0 -3 -1.5 -6t-2.5 -6l-2 -6t-1 -6q0 -2 3 -4t6.5 -5.5t6.5 -8.5t3 -12
q0 -4 -1.5 -7t-3.5 -6t-3.5 -6.5t-1.5 -6.5q0 -1 0.5 -2t1.5 -1l15 -5l0.5 -1l0.5 -1q0 -2 -1.5 -4t-3.5 -2q-4 0 -8 1.5t-8.5 4t-9 4t-8.5 1.5h-3t-3 -2v-21q0 -2 -1.5 -3t-3.5 -1t-5 4v7q0 5 1 9.5t1 9.5q0 4 -2.5 6.5t-5.5 5t-6 5.5t-4 7q-1 5 -1.5 8.5t-0.5 9.5
q0 5 1.5 10t2.5 9.5t2.5 8.5t1.5 8q0 5 -3 9t-5 8q0 1 -1 5t-2.5 8t-2.5 8t-1 5v3v2.5t1 1.5t3.5 -1.5t2.5 -2.5q1 0 1.5 -0.5l0.5 -0.5l6 -21q1 -5 3.5 -6t5.5 -1t5 -1t2 -4t-2 -6t-2 -6q0 -2 0.5 -2.5l2.5 -2.5l2.5 -2.5t3.5 -3t4 -3.5l2 -2h1q2 0 3.5 2.5t3 6t2 7
t0.5 4.5q0 3 -0.5 4.5t-1.5 3.5t-3 6.5t-4.5 9.5t-4.5 9.5t-3 5.5q-2 5 -2.5 10t-0.5 11zM136 118v62q0 7 3 12t9 8h3h5.5h4.5h3q10 0 17 -0.5t16 -3.5q2 -1 3 -3t1 -4.5t0.5 -5t0.5 -3.5v-62q0 -1 -1.5 -3t-2.5 -2h-1q0 1 -1 1.5t-2 0.5v2.5t-0.5 3.5t-0.5 3.5v2.5v0v1v3.5
t0.5 5t0.5 5v3.5v1v0v0l-1 2.5t-2 2.5h-20v-57h31q2 0 4 -1.5t2 -4.5t-3 -3q-7 0 -14.5 1t-15.5 1q-3 0 -4 -2.5t-1 -6.5q0 -11 0.5 -21.5t0.5 -21.5v-2v-4.5v-4.5v-3q0 -2 -2 -2h-2h-3t-2 2q1 16 -1 32t-1 32l-1 2l-34 3q-1 0 -1.5 2.5t-0.5 3.5q9 0 17.5 -1.5t17.5 -1.5
q1 0 1 1l0.5 0.5l0.5 0.5q1 6 1.5 11t0.5 9.5v9.5v11v10l-2 5h-3h-3h-5t-4.5 -1t-1.5 -2v-28l-1 -1l-1 -1h-3h-2zM143 170v-7q3 -2 7 -3t9 -1t9.5 0.5t7.5 0.5h2h5h5h3q1 1 1.5 3t0.5 4v6q0 3 -0.5 7t-1.5 7t-3 4q-1 0 -4 0.5t-6 0.5t-6 0.5t-4 0.5h-2q-11 0 -17 -5.5
t-6 -17.5zM65 79q0 -2 1 -6t2.5 -7.5t3.5 -6t6 -2.5h1q1 4 2.5 8t3.5 9t3 9.5t1 7.5t-1.5 5.5t-4 4.5t-5.5 3t-5 1q-3 0 -4.5 -3t-2 -7.5t-1 -8.5t-0.5 -7zM88 51q0 -4 4 -6.5t8 -2.5q2 0 4.5 4t4 9.5t2.5 10.5t1 7t-1 4.5t-3 5t-4.5 3.5t-4.5 1q-3 -1 -5 -5.5t-3.5 -10.5
t-2 -11.5t-0.5 -8.5z" />
</svg>
