<?xml version="1.0" standalone="no"?>
<!DOCTYPE svg PUBLIC "-//W3C//DTD SVG 1.1//EN" "http://www.w3.org/Graphics/SVG/1.1/DTD/svg11.dtd" >
<svg xmlns="http://www.w3.org/2000/svg" xmlns:xlink="http://www.w3.org/1999/xlink" version="1.1" viewBox="-10 0 266 256">
   <path fill="currentColor"
d="M79 245q0 2 0.5 4.5t3.5 2.5q4 0 5.5 -3.5t1.5 -5.5q0 -3 -1 -5t-1 -5q0 -1 0.5 -6t1 -12t1.5 -14t2.5 -13t3 -10t3.5 -4t3.5 1.5l3 3t3.5 3t4 1.5t3 -1t1 -3q0 -3 -2 -5t-4 -3t-4 -3t-2 -5q0 -1 2.5 -3t6 -4.5t7 -4.5t4.5 -2q3 0 8 2t9.5 5.5t7.5 7.5t3 7q0 5 -2 8.5
t-4 8.5t-2.5 10t-0.5 11q0 8 1 13.5t3.5 9t6 7t9.5 8.5l1.5 3t0.5 1.5t0.5 0.5h2.5t3.5 -0.5t3.5 -1.5l-1 -1t-1 -2q-4 -4 -8.5 -8t-8 -9t-5.5 -10t-2 -12v-2.5v-2.5q3 -7 7 -15t4 -16q0 -6 -3.5 -10t-8 -7.5t-8 -6t-3.5 -4.5q0 -3 4.5 -4t10 -2t10 -3.5t4.5 -7.5t-2.5 -9
t-2.5 -9t3.5 -6t8.5 -2v-1v0v-2t-1 -1h-8q-7 0 -13.5 1.5t-14.5 1.5h-4h-4l-3 -2q2 -5 0 -9t-8 -4q0 1 0.5 5t0.5 5t0.5 2.5t0.5 2.5t-3 2.5t-8 2.5t-10.5 3t-10.5 5t-8 7t-3 11q0 4 1.5 8.5t4.5 8.5t6 7.5t5 6.5q-3 7 -6.5 13.5t-5.5 13.5q0 6 -0.5 13t-1.5 14.5t-1.5 14.5
t-0.5 14zM88 127v-3.5v-3.5q6 -3 13.5 -6t14.5 -3q3 0 5 3.5t2.5 8t0.5 8.5v7q0 1 -3 4t-7 6t-7.5 5t-4.5 2q-3 0 -6 -3.5t-4.5 -8.5t-2.5 -9.5t-1 -6.5zM128 113v-2q0 -2 1 -2q3 -4 9 -3.5t11 0.5q3 0 4.5 1t3 3.5t2 5t0.5 4.5q0 3 -2 6t-4.5 5t-6.5 3.5t-7 1.5q-4 0 -6 -3
t-3 -6.5t-1.5 -7.5t-0.5 -6zM61 38v7t0.5 10.5t1.5 11.5t2.5 11t4 8t6.5 3h33q2 0 3 -1.5t1 -2.5t-0.5 -1.5l-0.5 -0.5h-17l-0.5 -1.5t-0.5 -2.5v-3v-5v-3.5v-3.5l1.5 -0.5l1.5 -0.5q1 0 2.5 -0.5t4 -1t4.5 -0.5h3l1 -1l2 -2t1.5 -2.5l0.5 -1.5v-29q0 -1 -1.5 -3t-2.5 -1
q-1 0 -2 1t-1 2v26q0 3 -2.5 4t-4.5 1h-3t-4 -1q0 -2 -0.5 -7t-1 -10.5t-0.5 -10.5t-1 -7q0 -1 -0.5 -4l-0.5 -3h-2q-2 0 -3 2t-1 4q0 8 1.5 16t1.5 16v2v3.5t-0.5 6t-0.5 6t-1 3.5q0 2 0.5 3.5t0 3.5t-1.5 3t-3 1q-3 0 -4.5 -2t-3 -4.5t-2 -5.5t-1.5 -5l-2 -35
q-1 -1 -2 -1.5l-1 -0.5q-2 0 -3 0.5t-2 1.5v8zM139 47q0 3 1.5 10t3.5 13.5t4 12t3 5.5q3 0 3 -2.5v-4.5v-4l-1.5 -1.5t-1.5 -2.5q0 -3 -1 -6t-1.5 -6.5t-0.5 -6.5v-6v-3t1 -3.5l2 -3t3 -1.5q3 0 6 3.5t5.5 8.5t5.5 10.5t5.5 10.5t5.5 8.5t7 3.5q2 0 4 -0.5t2 -2.5
q0 -3 -4.5 -8.5t-10 -11.5t-10 -12t-4.5 -11q0 -4 4.5 -4.5t10 -0.5h10t4.5 -4q0 -3 -3 -4t-5 -1q-5 0 -13.5 1t-16 4t-13 8t-5.5 12z" />
</svg>
