<?xml version="1.0" standalone="no"?>
<!DOCTYPE svg PUBLIC "-//W3C//DTD SVG 1.1//EN" "http://www.w3.org/Graphics/SVG/1.1/DTD/svg11.dtd" >
<svg xmlns="http://www.w3.org/2000/svg" xmlns:xlink="http://www.w3.org/1999/xlink" version="1.1" viewBox="-10 0 266 256">
   <path fill="currentColor"
d="M83 186v3l0.5 1.5l1 3l1 3l0.5 1.5q1 4 2.5 12.5t3.5 18t5 16.5t8 7q3 0 4.5 -2t1.5 -4q0 -1 -0.5 -1.5l-0.5 -0.5l-1 -3l-1 -3q-1 -2 -3 -6.5l-4 -9t-3.5 -9t-2.5 -6.5q0 -7 -1.5 -15t-1.5 -15q0 -6 2 -11.5t1 -10.5q6 -8 9.5 -17.5t3.5 -19.5q0 -4 -2 -7t-4.5 -6
t-4.5 -5.5t-2 -6.5q0 -5 3.5 -6.5t8 -3.5t8 -5.5t3.5 -10.5q0 -5 -1.5 -9t-1.5 -8q0 -3 1.5 -4l3 -2l3 -2t1.5 -4q0 -2 -2.5 -2.5t-3.5 -0.5q-7 0 -14 2.5t-13 2.5q-3 0 -3 -2v-4q0 -4 0.5 -7t0.5 -7t-1 -6.5t-5 -2.5l-1 0.5t-2 0.5q-1 6 -1.5 13t0.5 15q-3 3 -6.5 4.5
t-7.5 2.5t-7 3.5t-5 7.5q-1 1 -1 4v5q0 5 0.5 8.5t1.5 8.5l2.5 5t3 5.5t2.5 5.5t1 5v0v0q0 1 -0.5 2.5t-1.5 3t-1.5 3l-0.5 1.5l-1 1.5t-1.5 3.5t-1.5 3.5t-1 2.5q-4 9 -4.5 19t-0.5 20v4q0 2 0.5 5t0.5 5v4q1 1 2.5 1h3.5q1 0 2 -4.5t1.5 -12t1 -16t1 -15.5t2 -12t4.5 -5
q1 0 2.5 1.5l1.5 1.5l1 0.5t2 0.5q4 0 4 -4q0 -3 -2 -5.5t-2 -5.5v-2l1 -1l7 -7l1 -0.5l1 -0.5q4 0 6.5 3.5t4.5 7.5t3 8.5t1 7.5q0 2 -1 4.5t-2.5 5.5l-2.5 5t-2 3q-5 11 -7 22t-2 22zM113 194v2t2 2h8q18 0 37 -1t37 -2q2 -1 5.5 -1.5t3.5 -3.5v-3t-1 -2h-38v-41l29 -3
l0.5 -2t0.5 -3q0 -2 -3 -4t-5 -2l-2.5 1.5l-2.5 1.5h-3.5h-5.5t-5 -0.5t-3 -0.5v-28l3 -4h29q2 0 2.5 -1t0.5 -3t-2 -3t-4 -1q-5 0 -10 0.5t-10 0.5h-3h-4t-3 -1.5t-1 -3.5l0.5 -1t0.5 -2.5t0.5 -3t0.5 -2.5v-3.5v-5.5v-5.5v-3.5q6 -3 13.5 -4t13.5 -1q2 0 2 -1.5v-2.5
q0 -2 -1.5 -3t-3.5 -1q-6 0 -12 1t-12 1v-32q-4 0 -7 1.5t-4 5.5v19v2t-0.5 2.5t-1.5 2.5t-2 1t-3.5 -0.5t-5.5 -0.5q-2 0 -4.5 0.5t-3.5 0.5q-2 0 -5 1.5t-3 3.5q0 3 2.5 3.5t4.5 0.5q4 0 8 -1t9 -1q1 0 3 0.5t2 3.5v30l-36 3q-1 0 -2 0.5t-1 1.5h-1q0 1 1 1q0 1 0.5 1.5
l0.5 0.5h38v32l-1 3q-2 0 -5 0.5t-6.5 0.5t-7 0.5t-4.5 0.5q-2 0 -4.5 1t-3.5 3l3 4h3h5q5 0 9.5 -1t9.5 -1h1q1 1 1.5 3t0.5 4v3v2v2q0 2 0.5 4.5t0.5 4.5v4v3t-0.5 4.5t-0.5 4.5v2q0 1 -0.5 1.5l-0.5 0.5q-1 0 -3.5 1t-3.5 1h-13h-3.5t-6 0.5t-6 0.5h-3.5q-3 0 -3.5 1.5
t-0.5 2.5zM63 69v-6.5t2 -6.5l1.5 -1t3.5 -2t3.5 -2t2.5 -1h0.5h0.5q2 0 3 4.5t2 11t2 12t1 7.5q0 3 -1.5 4.5t-3.5 3t-4.5 2.5t-4.5 1q-6 -5 -7 -12t-1 -15zM89 59v-7q2 -4 3.5 -4.5t4.5 -0.5t5.5 1.5t4 4t2 6t0.5 6.5q0 6 -4.5 11t-10.5 5h-2h-1q-1 -7 -1.5 -11.5
t-0.5 -10.5z" />
</svg>
