<?xml version="1.0" standalone="no"?>
<!DOCTYPE svg PUBLIC "-//W3C//DTD SVG 1.1//EN" "http://www.w3.org/Graphics/SVG/1.1/DTD/svg11.dtd" >
<svg xmlns="http://www.w3.org/2000/svg" xmlns:xlink="http://www.w3.org/1999/xlink" version="1.1" viewBox="-10 0 266 256">
   <path fill="currentColor"
d="M191 249q1 1 2 1.5t2 0.5q2 0 3.5 -2t1.5 -4q0 -17 -4.5 -34.5t-10.5 -32.5q-1 -4 -3.5 -8.5t-5 -9.5t-4 -9.5t-1.5 -9.5q0 -3 2 -3.5t4 -0.5q3 0 6 1.5t5.5 3t5 4l4.5 4.5h1h1q3 0 4 -2t1 -4q0 -1 -0.5 -2l-0.5 -1q-1 -1 -4 -2.5t-6.5 -3.5t-7 -3.5t-4.5 -2.5
q-1 0 -3 -0.5t-3.5 -1t-3 -1.5t-1.5 -4v-19q0 -2 1.5 -2.5t2.5 -0.5q3 0 6 1.5t5 3.5t4 4.5t3 5.5h2q3 0 3 -2v-5q0 -6 -4 -8.5t-9 -4.5t-8.5 -5.5t-3.5 -12.5v-6q1 -4 3.5 -5t5.5 -1t6 -0.5t5 -2t3.5 -5t1.5 -11.5q0 -6 -1 -10t-4 -5.5t-7.5 -1.5h-10.5h-10h-8t-8 0.5
t-10 0.5l-1.5 1.5t-0.5 1.5q0 2 0.5 3t1.5 2h5q8 0 16.5 -1.5t16.5 -1.5h8q1 0 3 2.5l2 2.5v1v3.5t-0.5 5t-2 4.5t-3.5 2l-39 5q-2 1 -4.5 3.5t-3.5 4.5q0 1 -1 3.5t-2 4.5t-2 3.5l-1 1.5v3v4v5v3l-0.5 2t-1 4.5l-1 5l-0.5 2.5v3t0.5 4l1 4l0.5 2v3q0 15 -1.5 30.5l-3 31
l-3 31t-1.5 30.5q6 0 8.5 -5.5t3.5 -13t1 -15.5v-12q0 -3 0.5 -11t0.5 -16.5t0.5 -16t0.5 -10.5q0 -1 3 -3.5t7 -4.5t8 -3.5t5 -1.5q2 0 3 1.5t1.5 3t0.5 3.5t1 4q4 13 9 24.5t8.5 24t6 25t2.5 26.5zM85 185v4v5v4v3q0 2 1 9t3 14.5t4 13t5 5.5q2 0 2.5 -2t0.5 -4
q0 -7 -2.5 -14.5l-4.5 -13.5q0 -5 -0.5 -8t-0.5 -6v-7v-8q0 -9 0.5 -17t4.5 -16q1 -4 3.5 -7.5t4.5 -7t3.5 -7t1.5 -8.5t-1.5 -8t-3.5 -6.5t-3.5 -7t-1.5 -7.5q0 -5 3 -7.5t6.5 -4.5t6.5 -4t3 -5l-5 -33q0 -1 -1 -1.5t-2 -0.5h-1h-1l-2.5 0.5t-4.5 1l-4 1t-3 0.5h-1.5h-1.5
q-2 0 -3.5 -0.5t-1.5 -2.5q0 -4 1 -7.5t1 -7.5v-4.5t-3 -1.5q-2 0 -4.5 1t-2.5 3v25q-6 2 -10.5 4.5t-7.5 5.5t-4.5 8t-1.5 12q0 5 2 9t4 7.5l4 7t2 7.5q0 3 -1.5 6.5t-3.5 7l-4 7t-3 6.5q-2 4 -3 9.5t-1 11t-0.5 11t-0.5 10.5q0 2 1 3.5t3 1.5q3 0 4 -2t2 -5v-3.5t0.5 -5.5
t0.5 -5.5v-3.5q1 -2 1.5 -6.5t1.5 -9.5t1.5 -10t0.5 -6q1 -1 2 -3.5t2 -2.5t1 0.5v0.5l10 9v1q3 0 4 -2t1 -4t-1.5 -4l-3 -4t-3 -3.5t-1.5 -4.5q0 -1 1.5 -3t4 -4t4.5 -3.5t3 -1.5q1 3 3.5 6.5t4.5 7t3.5 6.5t1.5 7v1v1q0 1 -0.5 3.5t-1.5 2.5l-15 33q-1 0 -1 1.5t-0.5 3.5
t-0.5 4.5v3.5v2v4v5v4zM137 113l21 -12h0.5h1.5q3 0 4 4t1 6q0 1 -0.5 3t-0.5 4.5t-0.5 4.5t-0.5 3t-3.5 2.5t-8 3t-8 3l-3.5 1.5h-0.5h-0.5l-1.5 -1.5l-0.5 -0.5v-21zM158 67q2 0 4 1t3 3v8v7t-4 6l-2 1l-4 2l-4 2t-3 1l-1.5 1l-3 2t-3 2.5l-1.5 1.5h-2q0 -5 0.5 -12
t3 -12.5t6.5 -9.5t11 -4zM66 67v-5t1.5 -6t3 -5t5.5 -2q3 0 5.5 4.5t4 9.5t2 10t0.5 7t-2 4t-4.5 3.5t-5.5 2.5t-4 2q-3 -6 -4.5 -12t-1.5 -13zM89 49q0 -5 3 -6t9 -1q3 0 5 2t3 5t1.5 6.5t0.5 6.5v3q0 2 -1 2q-2 3 -5.5 6t-7.5 3q-3 0 -4.5 -3.5t-2.5 -8t-1 -8.5v-7z" />
</svg>
