<?xml version="1.0" standalone="no"?>
<!DOCTYPE svg PUBLIC "-//W3C//DTD SVG 1.1//EN" "http://www.w3.org/Graphics/SVG/1.1/DTD/svg11.dtd" >
<svg xmlns="http://www.w3.org/2000/svg" xmlns:xlink="http://www.w3.org/1999/xlink" version="1.1" viewBox="-10 0 266 256">
   <path fill="currentColor"
d="M80 175q0 8 1.5 15t4 13.5t5.5 13t7 13.5q2 2 3 6t2.5 7t4 5.5t6.5 2.5q2 0 4.5 -1t2.5 -4l-0.5 -2t-1.5 -2q0 -1 -2 -3t-4 -4.5t-3.5 -5t-2.5 -2.5q-3 -4 -5.5 -10t-5 -12.5t-4 -12.5t-1.5 -11q0 -9 2 -16.5t5.5 -14.5t8 -13.5t9.5 -13.5q1 -1 1.5 -4t0.5 -4v-0.5v-0.5
q0 -4 -2 -7t-4.5 -6t-4.5 -6t-2 -6q0 -1 0.5 -1.5t0.5 -1.5q3 -3 5.5 -5t4.5 -4.5t3.5 -5t1.5 -6.5t-1.5 -7t-4 -6t-4 -5.5t-1.5 -4.5t1.5 -3.5t3.5 -3t4 -2t3 -1.5l0.5 -1l0.5 -1q0 -2 -0.5 -3t-3.5 -1q-4 0 -7 1.5t-6 4t-6 4t-7 1.5q-2 0 -4.5 -0.5t-2.5 -2.5v-20
q0 -3 -2 -3h-4h-2t-2 1t-0.5 4l-0.5 3q0 5 1 9t1 9t-1.5 7.5t-4 5t-5 4t-5 4.5t-4 8t-1.5 12q0 6 2 10t5 7.5t5 7t2 5.5v1.5v0.5q-4 7 -7 13.5t-5.5 14t-4.5 15t-2 14.5q0 2 1.5 3t3.5 2q2 -1 4 -5.5t4 -10.5t3.5 -12.5t3 -12t3 -9t4.5 -3.5q2 0 4.5 1t4.5 1t3.5 -1t1.5 -3
v-1l-7 -7q-1 0 -1 -1q0 -2 1.5 -4l3 -4t3.5 -3.5t4 -1.5q3 0 5 3t3.5 6.5t2.5 7.5t2 6q-3 8 -8 14.5t-9.5 13t-8 13.5t-3.5 16zM162 245q0 2 1.5 2.5t3.5 0.5q3 0 4 -2.5t1 -6.5q0 -6 -1.5 -11.5t-1.5 -11.5q0 -9 3 -15t7.5 -10.5l9.5 -9.5l10 -10q2 -3 3.5 -6.5t1.5 -7.5
v-7.5v-6.5v-3v-4v-4.5v-1.5q0 -2 -1.5 -6.5t-2.5 -10t-2 -10t-2 -6.5q-2 -7 -6 -11t-12 -4q-17 0 -26 6t-13 16t-4.5 23t-0.5 27q0 8 1 16t1 16q0 1 1 1h2q2 0 3 -1t1 -3v-2q0 -2 0.5 -4t0.5 -3v-3v-2q0 -2 -0.5 -4t-0.5 -3v-2l-0.5 -2.5t-0.5 -3.5q0 -2 1 -4t3 -2
q7 0 10.5 3.5t7 7.5t6.5 7.5t9 3.5q0 -8 -4 -12.5t-10 -8t-12 -6.5t-10 -9v-7v-4t0.5 -5t1.5 -4t4 -2q4 0 8.5 2.5t8 6t7 7.5t5.5 6q0 1 1 2.5t2.5 3l2.5 2.5l2 2q3 0 3.5 -0.5t0.5 -2.5q0 -6 -3 -10.5t-7 -8t-9 -6.5t-9.5 -5.5t-7.5 -5t-3 -5.5q0 -4 2.5 -6t6 -3t7 -1.5
t6.5 -0.5h5t5 2q3 3 5.5 11t4.5 17t2.5 17t0.5 12q0 8 -3 14t-7 10.5t-9 8.5t-9 8.5t-7 10t-3 13.5t1 15t3 17zM67 71q0 -5 3 -10t9 -5q1 0 3 3.5t3.5 8.5t2.5 10t1 8q0 1 -1.5 3.5t-4 5l-4.5 4.5t-3 2q-3 0 -4.5 -4.5t-2.5 -9.5t-1.5 -9.5t-0.5 -6.5zM89 52q0 -5 3 -6.5
t7 -1.5q2 0 4.5 2t4.5 5.5t3 6.5t1 6q0 2 -1 4.5t-3 5t-4.5 4t-4.5 1.5q-3 0 -5 -3.5t-3 -8t-1.5 -9t-0.5 -6.5zM137 47q0 4 2 7t5 5t7 2.5t8 0.5q5 0 12 0.5t13 -1.5t10.5 -5.5t4.5 -11.5q0 -5 -1 -10.5t-6 -7.5h-13q-10 0 -18.5 1t-18.5 4q-2 4 -3.5 7.5t-1.5 8.5zM145 46
q0 -6 4 -9t10 -4t12 -1h9q10 0 10 10q0 6 -2.5 8.5t-6.5 3.5t-9 1h-9h-6t-6 -0.5t-4.5 -2.5t-1.5 -6z" />
</svg>
