<?xml version="1.0" standalone="no"?>
<!DOCTYPE svg PUBLIC "-//W3C//DTD SVG 1.1//EN" "http://www.w3.org/Graphics/SVG/1.1/DTD/svg11.dtd" >
<svg xmlns="http://www.w3.org/2000/svg" xmlns:xlink="http://www.w3.org/1999/xlink" version="1.1" viewBox="-10 0 266 256">
   <path fill="currentColor"
d="M161 204q0 13 6.5 26t18.5 20h0.5h0.5q3 0 3.5 -2t0.5 -4t-1.5 -3.5l-3 -3t-3.5 -2.5t-3 -2q-6 -8 -8.5 -15t-2.5 -16q0 -7 2.5 -12t6 -9.5t6 -9t2.5 -10.5t-4 -8.5t-8.5 -4.5t-8.5 -4t-4 -7q0 -4 2.5 -6t6 -3.5t6.5 -3.5t5 -4t3 -6.5l2 -9t1 -9v-7.5v-1l-1 -1t-1 -2h-1
q-2 0 -2.5 1.5t-1 3.5t-1.5 3.5t-2 2.5q-7 1 -13 1.5t-13 0.5q-4 0 -5.5 -2t-2.5 -4.5t-1.5 -4.5t-2.5 -2h-1q0 1 -0.5 1.5l-0.5 0.5q0 1 -0.5 4t-0.5 4q0 6 1 14.5t4 14.5q2 2 4 3.5t4.5 2.5t4 2.5t1.5 5.5t-1.5 6t-3.5 3.5t-4.5 3t-4.5 4.5q-4 8 -7 17t-4.5 18.5t-2 19
t-0.5 18.5v2v3v3v3q2 3 5 3t4 -3t1 -5t-0.5 -3l-1.5 -3v-23q1 -3 1.5 -4t0 -2t-0.5 -2.5t1 -4.5q1 -6 2.5 -13t4 -13t7 -10t11.5 -4q6 0 10.5 2.5t4.5 8.5t-2.5 10.5t-5.5 9.5t-5.5 10t-2.5 12zM86 189q0 15 1 29t5 29h1h1q3 0 4.5 -1.5t1.5 -3.5v-1.5v-0.5l-1 -1.5t-1 -2.5
t-0.5 -3.5t-1 -4.5t-1 -3.5t-0.5 -2.5q-1 -10 -1.5 -19.5t-0.5 -19.5v-9t0.5 -7.5l1 -7t2.5 -8.5q1 -4 3.5 -8l5 -8t4.5 -8t2 -8q0 -5 -2 -8.5t-5 -7t-5 -7t-2 -7.5q0 -2 2.5 -4t6 -4.5t6 -7t2.5 -11.5v-1q-1 -3 -1.5 -5t-1 -3.5t-0.5 -3.5v-4v-1.5v-1.5l1 -1l2.5 -2.5
l2.5 -2.5t2 -1v-5q-4 0 -7.5 1t-7 2.5l-7 3t-6.5 1.5h-2q0 -1 -0.5 -3.5l-0.5 -2.5v-1v-1l0.5 -2.5t1 -4.5l1 -4t0.5 -3v-1q0 -2 -1 -3t-3 -1h-3t-2 2v25q0 1 -1 3t-2 3.5t-2.5 3t-3.5 0.5l-13 13q0 1 -0.5 2.5t-0.5 4v4.5v3q0 5 1.5 9t4 7.5t4.5 6.5t2 7v1.5v0.5l-3.5 3.5
t-2.5 3.5q-3 5 -5.5 12t-3.5 14.5t-1.5 15t-0.5 13.5v10l2 1v0q3 0 4.5 -3t2.5 -8t1.5 -11t0.5 -11.5t0.5 -10t0.5 -5.5q1 -1 1.5 -2t1 -2.5t1.5 -3t1 -2.5t1 -4.5t4 -3.5q1 0 2 1t2 2.5t2 2.5t3 1t2.5 -1t0.5 -3q0 -3 -1.5 -4.5t-1.5 -4.5q0 -2 1 -5.5t4 -3.5t5.5 2.5t4 6
t2 7t0.5 5.5q0 4 -1 7.5t-3 7l-4 7t-3 7.5q-4 10 -5 20t-1 21zM144 106l2 -2h1.5t4 -0.5t4.5 -0.5h4h3h4h4h4q0 1 1 2.5l1 1.5v1q0 5 -2.5 8.5t-7.5 6.5h-2.5h-3.5h-4.5t-5.5 -1t-5 -2t-2 -3v-11zM67 74q0 -3 0.5 -6t2 -5.5t3.5 -4.5t6 -2h2q2 9 3.5 15.5t4.5 14.5v1
q0 4 -3.5 7t-7.5 3h-1h-2q-3 -7 -5.5 -11.5t-2.5 -11.5zM87 51q0 -1 1.5 -2.5t3 -2.5t3.5 -1.5t3 -0.5q3 0 4.5 2t2.5 5t2 5.5t1 5.5q0 7 -3.5 11.5t-9.5 9.5h-1q-1 0 -1.5 -1.5t-1 -2.5t-1 -2.5l-0.5 -1.5q0 -1 -0.5 -4t-1 -6.5t-0.5 -6.5t-1 -5v-2zM126 74v1l1 1h1h1l3 -1
q9 -8 14.5 -18.5t5.5 -23.5v-5v-6q1 -2 -0.5 -2.5t-3.5 -0.5h-1h-1q0 4 -0.5 9.5l-1 11t-2 11t-4.5 8.5q-3 4 -7 7t-5 7v1zM174 23q0 9 0.5 19t5.5 17l2.5 5t3.5 6t5 5t6 2q2 0 4 -1t2 -3t-1.5 -3l-3 -2t-3 -1.5l-1.5 -0.5q-1 -2 -3 -5t-3.5 -6.5l-3 -7t-1.5 -6.5
q0 -1 -0.5 -4.5t-0.5 -7t-0.5 -6.5t-0.5 -4t-1.5 -1h-2.5q-2 0 -2.5 1.5t-0.5 3.5z" />
</svg>
