<?xml version="1.0" standalone="no"?>
<!DOCTYPE svg PUBLIC "-//W3C//DTD SVG 1.1//EN" "http://www.w3.org/Graphics/SVG/1.1/DTD/svg11.dtd" >
<svg xmlns="http://www.w3.org/2000/svg" xmlns:xlink="http://www.w3.org/1999/xlink" version="1.1" viewBox="-10 0 266 256">
   <path fill="currentColor"
d="M123 248q0 3 2 3h3q4 0 6 -3.5t3.5 -9t2 -12t1 -12.5t2 -10.5t3.5 -6.5q6 -1 13.5 -1.5t13.5 -0.5h4l1 5q0 5 0.5 11t1.5 13t2 13.5t2 11.5q0 1 1.5 1.5t2.5 0.5t2 -0.5l3 -1.5v-3v-4l-0.5 -2t-1 -4.5t-1 -4.5l-0.5 -2q-3 -24 -5 -47.5t-2 -47.5v-8l1 -0.5t1 -1.5h15
q2 -1 2.5 -2t0.5 -3v-2t-2 -1h-5q-6 0 -10.5 0.5t-9.5 0.5h-2h-3t-3 -0.5l-1 -0.5v-12l1 -2h1.5h4t5 -0.5t4.5 -0.5h2h3.5t3 -1t1.5 -2v-1q-1 -1 -1.5 -2l-0.5 -1h-22l-2 -3v-12l1 -1q8 -2 12.5 -3.5t7 -4.5t3 -8t0.5 -13v-2v-4v-3v-3t-1 -1h-2q-4 0 -5 2.5t-1 6v8t-1 8
t-3.5 6t-7.5 2.5q-1 0 -2 -1.5t-1 -2.5t-0.5 -3t-0.5 -4v-5v-3q0 -8 1 -15.5t1 -15.5v-1l-1.5 -3t-2.5 -1t-3 1.5l-2 3t-1 3.5v3v2v2t0.5 4t0.5 3.5v2.5v2.5t-0.5 5.5t-0.5 6v4q0 2 -0.5 4t-0.5 4t-1.5 3t-3.5 1q-5 0 -7.5 -3t-3 -7.5t-0.5 -9.5t-1 -9l-1 -0.5t-2 -0.5v-0.5
v-0.5q-2 0 -3 2t-1 4v2q1 6 1.5 10t1.5 10t4.5 8t7.5 2.5t7 0.5t3 2v14l-2 1q-4 3 -10 3.5t-11 0.5l-2 2v0v1l2 2l1 1h19q1 0 1.5 1.5l1 3t0.5 3.5v3q0 2 -3 3t-7 1.5t-7 0.5h-5h-3h-5h-5h-3t-2.5 1t-1.5 3t1.5 2.5t3.5 0.5q3 0 6.5 -0.5t7.5 -0.5q2 0 3 1.5t1 3.5
q0 13 -0.5 28t-2 31t-4.5 31t-9 27v0zM82 189q0 12 2 21.5t4 19.5v5t0.5 6t2 5t4.5 2h2t1 -2v-5q0 -7 -1.5 -13.5l-3 -13l-3 -13t-1.5 -14.5v-2t0.5 -4t0.5 -3v-3t1 -3t2 -4.5l2 -5t2 -3.5l4 -6l4 -6t3.5 -6.5t1.5 -7.5t-1.5 -7.5l-3 -7l-3 -7t-1.5 -6.5q0 -4 2.5 -5.5
t5.5 -3.5t5.5 -5t2.5 -9q0 -5 -2 -10t-2 -11v-1v-1h2.5t3 -0.5t2.5 -1.5t1 -2t-0.5 -2t-1.5 -1h-4h-4q-5 0 -9 1.5t-9 1.5q-1 0 -2 -0.5t-1 -1.5v-23q1 -2 1.5 -4t0.5 -5v-3q0 -3 -3 -3q-1 0 -3.5 1t-2.5 2q0 10 -0.5 20t-1.5 19q-2 2 -4.5 3t-5 1.5t-5 1.5t-5.5 3q0 1 -1 2
t-2 3l-2 4t-1 3v2q0 5 1.5 9t3.5 8.5t3.5 8.5t1.5 9q0 2 -1.5 4.5t-3 5.5t-3 5.5t-2.5 5.5q-1 6 -1.5 10.5t-0.5 8.5t-0.5 8.5t-0.5 9.5v4.5v6.5t1.5 5t3.5 2q4 0 4.5 -3t0.5 -6v-1l-0.5 -2l-0.5 -2v-15v-14q0 -2 0.5 -5t1.5 -6.5t2 -5.5t3 -2t3 1.5t2 3.5t2.5 3.5t3.5 1.5
q4 0 4 -5q0 -4 -3.5 -9t-5.5 -8q2 -4 6 -5.5t9 -1.5q3 0 5.5 2.5t3.5 6t1.5 7.5t0.5 7q0 4 -1.5 8.5t-4 8.5t-5 7.5t-5.5 7.5q-1 7 -2 12.5t-1 11.5zM145 188v-35l1 -1q1 0 5 -0.5t9.5 -0.5h8.5l1 -0.5l1 -0.5q1 0 1.5 0.5l1.5 1.5q0 9 1.5 16.5t1.5 15.5q0 2 -0.5 3t-2.5 1
h-29zM152 169q0 3 1.5 4t3.5 1q4 0 6 -1.5t2 -5.5q0 -3 -1 -3.5t-4 -0.5t-5.5 1.5t-2.5 4.5zM168 124q5 0 6 4t1 9v2t-0.5 2.5t-1 2.5t-1.5 1h-26v-16q0 -2 3 -2.5t6.5 -1l7 -1t5.5 -0.5zM66 83q0 -3 1.5 -6t3.5 -5.5t4.5 -4t5.5 -1.5q1 0 2.5 4.5t3 10t2.5 10.5t1 6
q0 2 -0.5 3.5t-2.5 1.5l-15 5q-1 0 -1.5 -1.5t-1 -3.5l-1 -4t-0.5 -3l-0.5 -1.5t-0.5 -3t-0.5 -3t-0.5 -2.5v-2zM92 71v-4t0.5 -3.5t2 -2.5t3.5 -1q3 0 5 2.5t3.5 6t2 7t0.5 5.5q0 5 -2.5 8.5t-8.5 3.5q-2 0 -3.5 -3t-2 -6.5t-0.5 -7.5v-5z" />
</svg>
