<?xml version="1.0" standalone="no"?>
<!DOCTYPE svg PUBLIC "-//W3C//DTD SVG 1.1//EN" "http://www.w3.org/Graphics/SVG/1.1/DTD/svg11.dtd" >
<svg xmlns="http://www.w3.org/2000/svg" xmlns:xlink="http://www.w3.org/1999/xlink" version="1.1" viewBox="-10 0 266 256">
   <path fill="currentColor"
d="M140 218q0 7 4 13t10.5 10.5t14 7t13.5 2.5q3 0 4.5 -1.5t1.5 -4.5q0 -2 -2.5 -4t-7 -3.5t-10 -3t-10 -3.5t-7.5 -5t-3 -8t4 -7.5t9 -4.5t8.5 -5t3.5 -9q0 -3 -1.5 -5t-4.5 -4q-1 0 -3.5 -1t-5.5 -2t-5.5 -1.5t-4.5 -1.5t-4 -2.5t-2 -3.5q0 -4 5 -5t10.5 -2t10 -3.5
t4.5 -9.5v-0.5v-0.5q0 -1 -0.5 -2.5l-1 -3l-1 -3t-1.5 -2.5q2 -2 4.5 -3t5.5 -1q4 0 6.5 0.5t3.5 0.5q2 -1 2.5 -2t0.5 -3v-1.5t-1 -1.5h-10q-8 0 -15.5 1t-16.5 1h-3h-4h-3.5h-1.5l-1 -2v-20q0 -1 -2.5 -1h-3.5q-3 0 -3.5 3t-0.5 7v8t-3 6q-1 2 -4 2.5t-6.5 1t-7.5 1.5
t-7 2q-4 1 -8.5 2t-8 3.5t-6 5.5t-2.5 8t1 9t3 7t5 6.5t6 6.5q1 1 1 2v1q0 2 -0.5 2h-0.5l-0.5 0.5l-2.5 2.5q0 1 -1 3t-2.5 4.5t-2.5 4.5t-1 4q-3 6 -4 13.5t-1 14.5v3v4q1 1 3 2t3 1t2.5 -1t2.5 -2v-5.5t0.5 -7.5t0.5 -7v-5q1 -2 1.5 -6t1.5 -8t3 -7.5t6 -3.5q2 0 4 1.5
l4 3l4 3t5 1.5q2 0 4.5 -1.5t2.5 -4.5t-2 -4t-4.5 -2.5t-4.5 -3t-2 -4.5q0 -2 3 -4.5t6.5 -4.5t7 -3t6.5 -1h1q1 0 1 1v0.5t1 1.5q2 3 6.5 5.5l9 5t7.5 5t3 4.5q0 4 -3 6t-6.5 4.5t-6.5 5.5t-3 8zM83 157q0 -5 4.5 -8t10.5 -5t12 -2.5t10 -0.5q3 0 4.5 1t2 3.5t0.5 5v5.5
l1 1.5l1 1.5v2q0 2 -2.5 3.5t-6 3t-6.5 2.5t-4 1q0 1 -2 2l-4 2t-3.5 2t-2.5 2h-1q-3 0 -5.5 -2.5t-4.5 -6.5t-3 -7.5t-1 -5.5zM135 146q0 -4 1.5 -5.5t4.5 -2.5t6 -1h6q5 0 7 2t2 9q0 2 -1.5 5.5t-4.5 4.5l-18 4q-1 0 -1.5 -2t-1 -5t-0.5 -5.5v-3.5zM86 116q1 3 2 4t3 1
t3 -0.5t1 -2.5v-35q0 -1 0.5 -1.5t1.5 -0.5q1 -1 3 -1.5t3 -0.5q2 0 3.5 3t2 6.5t0 8t0 8t1 6t3.5 2.5q2 0 3.5 -2t1.5 -5v-6t-0.5 -7.5l-1 -7t-1.5 -6.5q-2 -4 -5.5 -4.5l-7 -1t-6.5 -1.5t-3 -6q0 -4 2 -5.5t4.5 -2.5t5.5 -1.5t5.5 -3t4 -7t1.5 -13.5v-6q-1 -2 -2 -2.5
t-3 -0.5t-3 0.5t-1 2.5v19q0 2 -3 4t-5 2q-4 0 -4.5 -2l-1.5 -6v-4.5v-7.5v-7.5v-4.5q-1 -4 -4 -6l-5 4v26l-0.5 2t-0.5 3l-1 1.5l-1 1.5h-1v0q-1 0 -2.5 -0.5l-3 -1t-3 -1.5t-1.5 -2v-20l-1.5 -0.5t-2.5 -0.5h-1q-1 0 -2.5 1t-2.5 2v4v4q0 13 5 17.5t18 3.5l1 1v13
q0 2 -3.5 2.5t-7.5 1.5t-8 3t-4 7v27q0 2 2 2.5t3 0.5t3 -0.5t2 -2.5v-26q0 -3 3.5 -3.5t5.5 -0.5h2.5t1.5 1q2 8 2 16v16zM143 110l0.5 0.5t0.5 1.5h1v0q1 -1 2.5 -2t1.5 -2v-24q0 -1 1.5 -1.5l3 -1t3 -0.5h2.5h2t1 2q1 0 1 2t0.5 4t0.5 4.5v2.5q0 1 -1 3.5l-1 2.5v4
q0 2 0.5 4t3.5 2t4.5 -3t1.5 -6.5v-7v-5.5t-1 -3.5t-1 -3.5q0 -3 3.5 -4t5.5 -1q5 0 7 3.5t2 8.5v10.5v7.5q1 1 1.5 1h1.5q3 0 4 -3.5t1 -5.5v-2v-2v-1t-0.5 -2.5t-1 -2.5l-0.5 -1q0 -7 -0.5 -10.5t-2 -5t-6 -2t-12.5 -1.5q-3 0 -3 -2.5v-4.5q0 -5 2.5 -6.5t6 -1.5t7 -0.5
t5.5 -4.5l0.5 -2.5l1 -5t0.5 -4.5v-3v-1.5v-1.5q0 -3 -1 -6t-4 -3h-1.5t-1.5 1q-1 2 -1.5 5.5t-0.5 6.5t-0.5 5.5t-0.5 4.5q-1 2 -3.5 2.5t-4.5 0.5h-2.5t-1.5 -2v-30q0 -2 -1.5 -3.5t-3.5 -1.5q-4 0 -5 3t-1 6q0 6 1 12t1 12v4l-3 1.5t-3 0.5t-4.5 -1.5t-3.5 -3.5v-3
t-0.5 -4.5t-0.5 -5t-1 -2.5q0 -2 -0.5 -3t-1.5 -1q-2 0 -3.5 1.5t-1.5 4v4.5v3q0 11 6.5 15t16.5 3q1 3 1 4.5v4.5q0 4 -3 5t-7 2t-7.5 3.5t-3.5 10.5v2q0 1 0.5 4t0.5 6t0.5 6t0.5 4z" />
</svg>
