<?xml version="1.0" standalone="no"?>
<!DOCTYPE svg PUBLIC "-//W3C//DTD SVG 1.1//EN" "http://www.w3.org/Graphics/SVG/1.1/DTD/svg11.dtd" >
<svg xmlns="http://www.w3.org/2000/svg" xmlns:xlink="http://www.w3.org/1999/xlink" version="1.1" viewBox="-10 0 266 256">
   <path fill="currentColor"
d="M83 197q0 3 1 12t2.5 18t4 16.5t6.5 7.5q2 0 3.5 -1t1.5 -3v-1q-3 -8 -5.5 -13.5t-4.5 -14.5v-4.5t-0.5 -7t-0.5 -7v-5.5q0 -7 2.5 -15t6 -16t6 -15.5t2.5 -14.5q0 -3 -1.5 -7t-3.5 -7t-3.5 -6.5t-1.5 -5.5q0 -3 3 -5t6.5 -4l7 -4t4.5 -5v-4v-3q0 -8 -2 -14.5t-2 -13.5
q0 -2 1 -4t2 -3.5l2 -3t1 -3.5q-3 0 -6 1t-6 1.5t-5.5 1.5t-5.5 1t-4 -0.5t-2 -2.5v-3.5v-3.5q0 -5 1 -9.5t1 -8.5q0 -2 -0.5 -4t-3.5 -2q-1 0 -3.5 1.5t-2.5 2.5v35q0 1 -4 3t-9.5 5t-9.5 8t-4 11q0 5 1.5 10.5t4 11l5 11t4.5 9.5q-1 3 -3 6.5t-4.5 7.5t-5 7.5t-4.5 6.5
q-1 5 -2 11t-2 12.5l-2 13t-1 11.5q8 0 10 -7q0 -6 0.5 -11t1.5 -9.5t2 -9.5t3 -11q0 -1 1 -4t3 -5.5t3.5 -4.5t3.5 -2t4.5 1t4.5 1q0 -3 -1 -5.5t-1 -6.5v0q2 -3 3.5 -5t4.5 -2t5 3t3 7l2 8t1 6q0 3 -1 6t-2.5 6t-3.5 6t-3 5l-6 18t-3 18zM122 170v21t2.5 14.5t8.5 8
t19 2.5q19 0 29 -1.5t14.5 -7.5t5.5 -17t1 -29v-4v-6v-6v-4q0 -6 -3.5 -9t-8 -4.5t-10 -2t-9.5 -0.5t-8 0.5t-8 0.5t-8.5 0.5t-9.5 0.5q-8 3 -11 8t-4 14v21zM128 178q0 -3 1 -5t4 -2h24l0.5 1.5t0.5 2.5q1 0 1 1v1h-1q0 3 0.5 8.5t0 11t-2 9.5t-6.5 4q-6 0 -10.5 -3
t-7 -7.5t-3.5 -10.5t-1 -11zM165 203v-3v-3v-6.5t0.5 -8.5t0.5 -7v-3l3 -1h22l3 1v1.5v2.5q0 8 -0.5 14t-3 10.5t-7.5 6t-13 1.5q-4 0 -4.5 -1t-0.5 -4zM129 161v-7q0 -11 6 -17t17 -6q3 0 4.5 3t2 6.5t0.5 7v4.5v5q0 2 -1 3l-2 3h-3.5t-7 0.5t-7.5 0.5v0h-1h-1h-1l-2.5 -1
t-3.5 -2zM166 161v-23l0.5 -1.5t1.5 -2.5l0.5 -0.5l0.5 -0.5h19q2 0 3.5 3t2 6.5t0.5 7v4.5v3.5v2.5l-5 4h-20zM182 116l1 3l3 -2q1 0 2 -0.5l1 -0.5v-19l2 -2l3 -3q6 -4 9 -8t4.5 -9t1.5 -11v-13v-1q0 -1 -1 -2l-1 -1h-1v0h-0.5h-0.5l-0.5 0.5t-1.5 0.5q0 9 -1.5 17.5
t-4.5 16.5l-0.5 0.5l-0.5 0.5h-0.5h-0.5h-0.5h-0.5q0 -1 -0.5 -2.5t-1 -3.5l-1 -4t-0.5 -3v-1q0 -8 1 -16.5t1 -16.5v-3.5v-2.5q-1 -2 -2 -2h-2t-2 0.5t-2 2.5v6.5v10.5v9.5v6.5v5t-0.5 6t-0.5 5.5t-1 2.5l-1 1q-3 -1 -4 -3.5t-1 -5.5v-22q0 -1 -2 -1v0h-1l-1.5 1t-1.5 2v9
t1 12t3 11.5t7 7.5v21zM126 54q0 3 0.5 7.5t1 9.5t2 9.5t3.5 7.5q1 1 2.5 2l3 2l3 2t1.5 3q0 1 0.5 3.5t0.5 5.5t0.5 6t0.5 4v0v0h1v0q1 0 2 -1l1 -1v-19l2 -1.5t4.5 -3.5t5 -4.5t2.5 -3.5q0 -2 0.5 -5.5t0.5 -7.5t0.5 -7.5t0.5 -5.5v-2q0 -1 -1 -3.5t-3 -2.5h-1
q-1 1 -1.5 2t-0.5 2v26q0 4 -1.5 5.5t-3.5 1.5q-3 0 -4 -4.5t-1 -9.5v-10v-7q0 -5 1 -9t1 -9q0 -3 -2.5 -5.5t-5.5 -2.5q0 13 0.5 24.5t0.5 24.5v2.5v3.5l-1 1.5t-2 1.5q-2 1 -3 -1t-2 -3q0 -4 -0.5 -8l-1 -8t-0.5 -8v-6q-1 -2 -2 -2h-2q-2 0 -2.5 1t-0.5 3zM66 76
q0 -3 1.5 -6t4 -5.5t5 -4t5.5 -1.5q1 0 2 5.5t2.5 13t2.5 14.5t1 9q0 4 -3.5 6.5t-6.5 2.5t-5.5 -4.5t-4.5 -10.5t-3 -11.5t-1 -7.5zM92 66v-4v-4q1 -3 4.5 -6t6.5 -2q1 0 3 2t2 3q1 4 1.5 7t1 5.5t0.5 5.5v6q0 6 -2.5 11t-9.5 5h-2q-4 -6 -4.5 -13.5t-0.5 -15.5z" />
</svg>
