<?xml version="1.0" standalone="no"?>
<!DOCTYPE svg PUBLIC "-//W3C//DTD SVG 1.1//EN" "http://www.w3.org/Graphics/SVG/1.1/DTD/svg11.dtd" >
<svg xmlns="http://www.w3.org/2000/svg" xmlns:xlink="http://www.w3.org/1999/xlink" version="1.1" viewBox="-10 0 266 256">
   <path fill="currentColor"
d="M181 248q1 2 2 2.5t3 0.5t3.5 -1.5t2 -4t0 -5t-0.5 -4.5q0 -8 -1 -16.5t-2.5 -17t-2.5 -16.5t-1 -17v0q1 -1 3 -4l4 -6t3.5 -6t1.5 -5q0 -1 -0.5 -2.5t-0.5 -3t-0.5 -3t-1.5 -2.5q-1 0 -3.5 -1.5t-3.5 -1.5h-25q-1 0 -1.5 0.5t-0.5 1.5v1v0q0 1 1 2t2 1t3.5 0.5t6 0.5
t6 0.5t3.5 0.5q3 0 4.5 1t1.5 4q0 1 -0.5 3t-1.5 3.5t-2.5 3t-2.5 1.5t-2 -0.5l-2 -1l-2 -1t-2 -0.5q-5 -1 -9 -1.5t-9 -0.5q-1 0 -5 0.5t-5 0.5l-0.5 0.5l-0.5 0.5v1v1l1 1l2 2h4t6.5 0.5t6.5 0.5h5q3 1 4 1t1 3t-2 4.5t-4 2.5t-5 1h-4t-3.5 0.5t-5.5 0.5h-5.5h-3.5l-2 2
t-1 2v0q0 2 1 2.5t2.5 1t3.5 0.5h2q7 0 14 -2t14 -2h3l1 2t0 2q0 3 0.5 9t1 13.5t1 13.5t0.5 9v4v6v7v4zM120 245q2 3 5 3q2 0 4 -1.5t2 -3.5v-74q0 -7 3 -13.5t7.5 -12t9.5 -10.5t10 -9q1 -1 1.5 -3l1 -4t1.5 -3.5t3 -1.5l1.5 -0.5t3 -0.5t3 -0.5t2.5 -0.5h4.5t7 -0.5
t6.5 -0.5h4l2 -2l1 -1q1 0 1 -1q0 -3 -3 -3.5t-4 -0.5q-8 0 -15 1t-14 1v-11l3 -3q1 0 4 0.5t6 0.5t6 -0.5t4 -0.5q3 0 5.5 -0.5t2.5 -4.5q0 -1 -2 -2t-4 -1.5t-4.5 -0.5h-3.5q-11 0 -22 2.5t-22 2.5h-3h-5.5t-5 1.5t-2.5 3.5v0.5v0.5l0.5 0.5l0.5 0.5h32q2 0 2.5 2.5
t0.5 3.5q0 3 -2 5t-4 3h-27q-1 0 -4 0.5t-4 0.5v2q0 2 3 3t5 1h5h8.5h8.5h6q0 4 -1.5 6.5t-4 5t-5.5 4.5t-5 5q-1 1 -2.5 3t-3.5 4.5t-3.5 4.5t-2.5 3q-3 12 -4 24t-1.5 24t-0.5 24t-2 24zM82 172v9t1 14t2 16.5t2.5 15.5t3 12t3.5 5t4 -2t2 -4v-0.5v-0.5l-9 -55v-3v-14.5
t1 -15.5q1 -6 4 -11t5.5 -10.5l5 -11t2.5 -10.5q0 -4 -1.5 -7t-2.5 -5.5l-2 -5t-1 -4.5q0 -4 2.5 -5.5t5.5 -3.5t5.5 -4.5t2.5 -6.5q0 -3 -1.5 -6t-3 -5.5t-2.5 -5.5t-1 -5q0 -1 0.5 -2t1.5 -1q0 -1 1 -2.5t2.5 -2.5t3 -2.5l1.5 -1.5v-1v-1l-1 -1.5l-1 -1.5h-1q-3 0 -6 1
t-6 3t-5.5 3t-5.5 1q-1 0 -2 -0.5t-1 -1.5v-3v-4v-5v-3q-1 -2 -1.5 -2.5t-2.5 -0.5h-1h-1q0 1 -0.5 2.5t-0.5 3.5t-0.5 3.5t-0.5 2.5v2.5v3.5v3v2q-1 4 -5 6t-7.5 4t-6.5 4.5t-3 7.5q0 6 0.5 10.5t1.5 9t3 8.5t5 9q0 1 0.5 1.5l0.5 0.5l-0.5 0.5l-0.5 0.5q0 1 -1 2t-2 2.5
t-1.5 2.5l-0.5 1q-3 4 -5 11t-4 14.5t-3.5 14.5t-1.5 12q0 2 1 3.5t4 1.5q2 0 3.5 -4t2.5 -9.5t2 -12t2.5 -12.5t3 -11t3.5 -7q3 3 4.5 4t4.5 1q1 0 3.5 -0.5t1.5 -2.5q-1 -1 -1.5 -2t-1.5 -2.5l-2 -3l-1 -1.5v-1q0 -2 1.5 -3.5l3.5 -3.5t3.5 -3t3.5 -1t4 1.5t3 4t1.5 5
t0.5 4.5q0 5 -2 10t-4.5 10t-5 9.5t-4.5 9.5q-4 7 -4.5 15t-0.5 15zM70 61q0 -3 0.5 -4.5t1.5 -2.5t3.5 -2t4.5 -3h0.5h0.5h0.5h0.5l0.5 0.5t0.5 1.5q1 4 2 7l2 6t1.5 5.5t2.5 6.5v1q0 5 -4 8t-8 3q-3 0 -5 -3t-3 -7.5t-1 -9.5v-7zM194 24h-14.5t-14.5 1.5t-13.5 4.5
t-11.5 7q-2 1 -4 3.5l-2 2.5v23q0 1 1 4t3 5l5 -6v-20q0 -4 2 -7.5t7 -3.5l1 0.5t2 1.5l3 27q0 1 1 1.5t2 0.5q3 0 3 -5v-25q0 -1 1 -2t2 -1t2.5 -0.5l1.5 -0.5q3 0 5 4.5t4 10t4.5 10t6.5 4.5h3.5t1.5 -2v-1q-1 -1 -2.5 -3.5l-3 -5l-3 -5l-1.5 -2.5q-1 -1 -1.5 -2.5
t-0.5 -2.5t0.5 -4l0.5 -3h11q1 0 1.5 -2t0.5 -3q0 -3 -1 -3.5t-3 -0.5zM90 51l0.5 -3l0.5 -3q1 -3 3.5 -3.5t4.5 -0.5q3 0 5 2.5t3.5 5.5t2 6.5t0.5 6.5q0 5 -3.5 7.5t-7.5 2.5q-3 0 -4.5 -2.5t-2.5 -6t-1.5 -7t-0.5 -5.5z" />
</svg>
