<?xml version="1.0" standalone="no"?>
<!DOCTYPE svg PUBLIC "-//W3C//DTD SVG 1.1//EN" "http://www.w3.org/Graphics/SVG/1.1/DTD/svg11.dtd" >
<svg xmlns="http://www.w3.org/2000/svg" xmlns:xlink="http://www.w3.org/1999/xlink" version="1.1" viewBox="-10 0 266 256">
   <path fill="currentColor"
d="M109 120q0 5 -2 9.5l-4 9t-4 8.5t-2 9v45l0.5 2t1.5 5t1.5 5.5t1.5 4.5l0.5 2t1.5 4.5t1.5 4t0.5 2.5q1 2 2 5t2.5 6t3.5 5t5 2h1l1 -0.5t2 -0.5v-2.5v-1.5q0 -4 -1.5 -8t-4 -8t-5 -7.5t-3.5 -7.5q-3 -9 -3.5 -18t-0.5 -18q0 -4 -0.5 -7t-0.5 -5t0.5 -4t1.5 -5q1 -4 3 -8
t3.5 -9t3 -9.5t1.5 -8.5q0 -5 -2 -9l-4 -8l-3.5 -7t-1.5 -7t2.5 -7l5 -6t5 -6.5t2.5 -10.5q0 -3 -0.5 -6.5t-0.5 -6.5v-1l4.5 -3l3 -2t1.5 -3v-5q-9 0 -17.5 2.5t-18.5 2.5q0 -5 0.5 -8.5t0.5 -7.5q0 -1 -0.5 -3.5t-1.5 -4.5t-2 -3t-3 -1t-3 1.5t-1.5 4t-0.5 4.5v3
q0 4 0.5 7.5t0.5 6.5t-1.5 4.5t-4.5 3t-6.5 3t-6.5 4t-4.5 6t-1.5 9.5q0 8 2.5 14t6 10.5t6.5 8.5t3 7q0 2 -1.5 5t-3 5.5t-3.5 5t-2 4.5q-3 7 -5 14.5t-3.5 15.5t-2 15.5t-0.5 14.5v3v2.5t1 2t3 0.5q3 0 5.5 -3t2.5 -6v-5.5t-1 -5.5q0 -2 1 -7.5t2 -12t2 -12.5t2 -8
q0 -2 1 -4.5t2.5 -5t3 -4t3.5 -1.5h2q1 0 3.5 1t2.5 2h0.5h0.5q4 0 4 -4q0 -2 -1 -3.5t-2.5 -3t-2.5 -3t-1 -3.5q0 -3 2.5 -4.5t5.5 -1.5t5.5 2.5t4 5.5t2 6.5t0.5 5.5zM135 150q0 16 1 25t5.5 13.5t13.5 5.5t24 1h3q1 0 3 -0.5t5 -0.5t5 -0.5t3 -0.5t2 -1l1 -1v-0.5v-0.5
v-0.5v-0.5q0 -1 -1 -2.5t-2 -1.5h-27q-1 0 -1.5 -2t-0.5 -4v-2q0 -5 1.5 -7.5t3.5 -4t5.5 -1.5t8.5 -1l2 -2.5t2.5 -3t1 -2l0.5 -1.5v-24q0 -2 -1.5 -2.5t-3.5 -0.5q-3 0 -4 4.5t-0.5 9.5t0 9t-2.5 4h-11q-1 0 -1 -1t-0.5 -2.5t-0.5 -3.5v-2q0 -6 1 -12t1 -12q1 -3 3 -4
q1 0 4.5 -0.5t7 -0.5t7 -0.5t4.5 -0.5q2 0 3 -1t1 -3q0 -3 -2 -3.5t-3 -0.5q-7 0 -16 0.5t-18.5 0.5t-18 1t-14.5 3v1v1q0 2 1 3t2.5 1.5t3 0t2.5 -0.5q5 0 9.5 -0.5t8.5 -0.5h2h1l2 3v2v6v6v5v10v11t-0.5 12t-1.5 11h-2h-1h-3t-3.5 -0.5t-3 -1.5t-1.5 -3l-3 -40
q0 -2 -1.5 -3t-2.5 -1t-2 0.5t-1 1.5v3v4.5v4.5v2zM140 73q0 6 1 11t3.5 8.5t7 5t11.5 1.5h6q3 0 6 -0.5l6 -1t7 -1.5q3 -3 6.5 -8t3.5 -11v-26q0 -4 -2 -7t-5 -5t-7 -3t-7 -1h-11q-5 0 -10 1t-9 4t-6 9q0 1 -0.5 4.5t-0.5 7v6.5v5v1zM68 66q0 -1 0.5 -2.5l1 -3t1.5 -3
t2 -1.5h10l2 2q1 4 2 7.5t2.5 8t2.5 8.5t1 7t-3.5 5t-6.5 2q-2 0 -4.5 -4t-5 -9t-4 -10t-1.5 -7zM147 77v-1l1 -3q8 -1 13.5 -1.5t13.5 -0.5h2h3q2 0 4 0.5l2 0.5q2 -1 2.5 0t0.5 2q0 6 -2 9.5t-6 5t-8.5 2t-8.5 0.5q-8 0 -12.5 -3t-4.5 -11zM94 53q0 -4 1.5 -5.5t6.5 -1.5
h1l2.5 2t3.5 3q1 0 1.5 0.5l0.5 0.5v18q-1 1 -2.5 3t-2.5 3.5t-2.5 3t-3.5 1.5h-1q-1 -8 -3 -14.5t-2 -13.5zM148 57q0 -4 2 -6.5t4.5 -3.5t6 -1h6.5h8t7 1t5 3.5t2 7.5v1.5v1.5q0 1 -2 1h-4h-30q-2 0 -3.5 -1.5t-1.5 -3.5z" />
</svg>
