<?xml version="1.0" standalone="no"?>
<!DOCTYPE svg PUBLIC "-//W3C//DTD SVG 1.1//EN" "http://www.w3.org/Graphics/SVG/1.1/DTD/svg11.dtd" >
<svg xmlns="http://www.w3.org/2000/svg" xmlns:xlink="http://www.w3.org/1999/xlink" version="1.1" viewBox="-10 0 266 256">
   <path fill="currentColor"
d="M73 184q0 1 0.5 6.5t1 13t1.5 16t2 15.5t3 11.5t5 4.5q5 0 5 -5q0 -9 -1 -17t-3 -16t-3 -16t-1 -17t3 -17t6.5 -14.5t6.5 -12.5t3 -11t-0.5 -9t-1 -7t-2 -6.5t-2.5 -8.5v-1q0 -1 2 -3t5 -4.5t5 -5.5t2 -7t-1 -7t-2.5 -6t-3 -5.5t-1.5 -6.5v-1l1 -1l2 -2t2.5 -2l1.5 -1v-2
q0 -3 -2 -3.5t-5 -0.5q-2 0 -4.5 1t-4 2t-3.5 2t-4 1h-3h-2q0 -1 -0.5 -3t-0.5 -3v-3.5t0.5 -6t0.5 -6.5v-4q-1 -2 -2 -2.5t-3 -0.5t-3 0.5t-1 2.5v36q0 2 -3 3t-7 3t-7 6t-3 13q0 5 1 8.5t2.5 7t4 6.5t5.5 7l0.5 1l0.5 1q0 3 -2 6.5t-4 6t-4 5.5l-4 6q-3 8 -4.5 18t-1.5 19
q0 2 0.5 4t2.5 2q5 0 6.5 -4t2 -9.5t0.5 -10t1 -7.5l1 -2l2.5 -5t2.5 -5.5t2 -4.5l1.5 -2t1.5 -3q2 -2 4 -2.5t4 -0.5h3.5t1.5 -2v-11q0 -1 1.5 -2.5l1.5 -1.5q3 -1 4.5 2t2 6.5t0.5 7v4.5q0 5 -1.5 9t-3 7.5t-4 6.5t-4.5 7q-4 7 -5.5 16t-1.5 17zM107 246v1q1 1 2 2.5
l1 1.5q1 0 3.5 -1t2.5 -3q1 -8 3 -15t2 -15q3 -31 3.5 -62.5t3.5 -61.5q0 -1 0.5 -2t1.5 -2q4 1 7.5 0.5l7 -1l7 -1t7.5 -0.5q2 0 3.5 0.5t2.5 3.5v7q0 5 -1 9t-1 9v0q0 1 0.5 2.5t0.5 3.5t0.5 4l0.5 2q0 2 -0.5 5t-1.5 3h-7v-27l-1 -1t-1 -2h-1h-1q-1 0 -1.5 1l-0.5 1v28
q-2 0 -3.5 0.5t-2.5 -1.5q0 -2 0.5 -5.5t0 -8t-2 -7.5t-4.5 -3q-1 0 -2.5 0.5t-1.5 3.5q2 12 2 24v24q0 18 -1.5 35t-3.5 34v1q0 2 2 2.5t3 0.5h2.5t2.5 -2l3 -44h1h1q1 0 3 0.5t1 3.5v3q0 2 0.5 4.5t0.5 4.5v4v4q0 2 -0.5 4.5t-0.5 4.5v3v1t-0.5 2t-0.5 2v1q0 2 1.5 3.5
t3.5 1.5h1q3 -3 3 -5v-5v-5v-4.5t-0.5 -8t-0.5 -8v-4.5q0 -4 0.5 -5.5t3.5 -1.5q2 0 3 0.5t2 3.5v27t2 28h0.5h1.5q2 0 3 -1.5t1 -3.5q0 -1 0.5 -4.5t0.5 -4.5q0 -9 -1 -18t-1 -18v-4.5t1 -5.5h3h2.5t2.5 1v46q0 1 1.5 1h2.5q3 0 3.5 -2t0.5 -5q0 -8 -0.5 -16t-0.5 -16v-8
q1 -2 2 -2.5t3 -0.5h1.5t1.5 2v2v4v4v3q0 2 0.5 7.5t1.5 11.5t1.5 11.5t0.5 7.5q1 2 2 2.5t2 0.5q3 0 4 -3t1 -6q0 -7 -1 -14.5t-1.5 -15t-1.5 -14.5t-1 -13v-13.5v-20.5v-20.5v-13.5q-1 -1 -2 -2.5t-3 -1.5q-1 0 -3 0.5t-2 2.5v27h-8v-26q0 -1 -1.5 -2t-3.5 -1q-1 0 -2 0.5
t-1 2.5v24l-2 1t-3 1q0 -1 -0.5 -3l-0.5 -2v-41q0 -1 2.5 -2t6.5 -2.5t7.5 -3t4.5 -3.5q2 -5 2 -8t0.5 -5t2 -4t7.5 -5q0 -1 0.5 -1.5t0.5 -1.5q0 -2 -1.5 -4t-3.5 -2q-9 0 -17.5 1.5l-17 3l-17 3t-17.5 1.5q-1 0 -1.5 -1t-0.5 -3q0 -7 3.5 -10t9.5 -5q2 0 8.5 -0.5t14 -1
t13.5 -1t9 -0.5h4h6t5 -1t2 -5v-1l-0.5 -1.5l-0.5 -1.5h-3h-4h-3h-3h-16t-21 1.5t-20 4.5t-12 9q1 6 0.5 13.5t-3.5 13.5v5v8v8.5v5.5q0 3 -0.5 10t-1 16.5t-1 19.5t-1 19t-1 16.5t-0.5 10.5q-2 4 -2.5 10t-1 12.5t-0.5 12.5t-1 10q0 1 -0.5 3t-1 4.5l-1 5t-0.5 3.5z
M144 179v-3t0.5 -4t0.5 -4.5v-2.5v-1q0 -3 -0.5 -5t-0.5 -5q0 -2 0.5 -4t2.5 -2t3 2t1.5 5t0.5 6v4v2q0 1 -0.5 3t-0.5 4t-0.5 4.5t-0.5 3.5h-1h-1q-2 0 -3 -0.5t-1 -2.5zM161 144q2 0 3.5 2.5t1.5 5v5.5v5q0 1 0.5 4t0 6t-1.5 5.5t-3 2.5t-3 -0.5t-1 -2.5v-29l0.5 -1.5
t1.5 -1.5l0.5 -0.5zM176 145l5 5l-2 27q0 1 -1 1.5t-2 0.5t-2 -0.5t-1 -1.5v-27q0 -1 1 -2.5t2 -2.5zM191 143h1l1 0.5t1 1.5q1 7 1 13v12q0 5 -1 7.5t-7 2.5v-32q0 -1 1.5 -3t2.5 -2zM64 76q0 -4 1.5 -8t6.5 -4q2 0 2.5 1.5t2.5 5.5q0 1 0.5 4t1.5 6t1.5 6t0.5 4
q0 3 -1.5 4.5t-3.5 1.5q-4 0 -6 -2.5t-3.5 -5.5t-2 -6.5t-0.5 -6.5zM83 57q1 -2 2.5 -3.5t3.5 -1.5h1.5h0.5q3 4 6.5 9t3.5 11q0 4 -3.5 7t-6.5 5q-4 -5 -6 -13t-2 -14zM129 73q0 -1 0.5 -3t0.5 -3q4 -2 10.5 -3.5t13.5 -2.5t14 -1.5t12 -0.5h0.5h0.5l2.5 1t2.5 3
q0 7 -6.5 11t-15.5 5.5t-17.5 1.5h-13.5q-3 0 -3.5 -3t-0.5 -5z" />
</svg>
