<?xml version="1.0" standalone="no"?>
<!DOCTYPE svg PUBLIC "-//W3C//DTD SVG 1.1//EN" "http://www.w3.org/Graphics/SVG/1.1/DTD/svg11.dtd" >
<svg xmlns="http://www.w3.org/2000/svg" xmlns:xlink="http://www.w3.org/1999/xlink" version="1.1" viewBox="-10 0 266 256">
   <path fill="currentColor"
d="M155 198v51q0 1 1.5 1.5l1.5 0.5q2 0 3.5 -0.5t1.5 -2.5v-48q0 -2 4.5 -4.5t10.5 -5.5t11 -6.5t7 -6.5q4 -6 5 -13.5t1 -14.5v0v-1q-3 -13 -5.5 -18t-7 -7.5t-11 -3t-16.5 -3.5l-2 -0.5l-2 -0.5q-1 0 -2 0.5t-2.5 1.5t-3 1.5l-1.5 0.5q-5 2 -9.5 3.5t-7.5 3.5t-5.5 5
t-4.5 8v3t-0.5 4t-0.5 4v2q0 11 2 17.5t5.5 11t9.5 8t15 7.5zM93 239q0 1 1 1.5t2 -0.5q3 -1 3.5 -2.5t0.5 -3.5v-2v-2l-0.5 -1l-1 -2l-1 -2t-0.5 -2q-2 -10 -4 -21.5t-2 -21.5q0 -13 3.5 -23.5t8.5 -21.5q2 -5 5.5 -10.5t3.5 -11.5q0 -7 -1.5 -12.5t-6.5 -11.5q2 -4 5 -5.5
t5.5 -3t4 -4t1.5 -8.5v-2.5t-0.5 -5.5t-0.5 -5.5v-3.5v-3v-3l8 -4v-3q-6 0 -12.5 1.5t-13.5 1.5h-1.5h-2.5q-1 -1 -1 -2.5v-2.5q0 -5 0.5 -9.5t0.5 -9.5q0 -4 -3 -4q-1 0 -3 0.5t-2 1.5v29l-2.5 2.5l-3.5 3.5q-4 2 -7.5 3t-6 2.5t-4 4t-1.5 8.5q0 8 3 16t4 16l0.5 2l0.5 2
q0 1 -0.5 2l-0.5 1q0 1 -1 2.5t-2 3.5t-2.5 4l-1.5 2q-2 5 -3 11t-3 11q0 2 -0.5 6.5t-1 9.5t-0.5 9.5v6.5l-0.5 2t-0.5 3q4 0 6 -1t3 -4v-19q0 -2 1.5 -8.5t3 -13.5t3.5 -12t4 -5t3 1.5t2 4t2 4t5 1.5q2 0 2 -1v-2v-2v-1l-9 -17l2 -1.5l4 -3t4.5 -3t3.5 -1.5h1q0 1 1.5 2
t2.5 2l2 2t1 2v2v3q0 2 -0.5 4.5t-0.5 5.5t-0.5 5.5l-0.5 2.5q0 3 -1.5 6t-3.5 6l-4 6t-3 7q-4 9 -4.5 18t-0.5 18q0 6 0.5 13t2 14.5t3 14t3.5 11.5zM129 147q0 -5 0.5 -8t2.5 -5.5t5 -4t8 -3.5l2.5 -0.5t4.5 -1.5t4 -1.5t3 -0.5h1h1q2 0 4 0.5t4.5 1l5 1t3.5 0.5
q5 1 8.5 3.5t5 6.5t2 8.5t0.5 9.5v3q0 1 -0.5 3t-0.5 4v2q0 5 -3.5 9.5t-8 7.5t-9.5 5t-9 2q-9 0 -15.5 -3.5t-11 -9.5t-6 -13.5t-1.5 -15.5zM142 142v6.5t0.5 7t2 6.5t4.5 5q1 1 2 1t2 0.5t1.5 1.5l1.5 3q1 1 0.5 2.5t-0.5 3t0.5 2t2.5 0.5t2.5 -1t0.5 -2.5t0.5 -3
l0.5 -1.5q4 -4 6.5 -5t4.5 -2t4 -2.5t4 -8.5q1 -3 2 -7t1 -7q-5 0 -6 3t-2 7t-4 7.5t-10 3.5v-31q-4 0 -6 3.5t-2 8.5t0.5 9.5t0.5 7.5l-1 0.5t-2 0.5l-1 -0.5t-2 -0.5q0 -1 -1 -1.5l-1 -0.5v-14q0 -1 -1 -1.5l-1 -0.5h-2.5h-1.5zM130 83q0 3 1.5 7.5t4 8.5t6 6.5t8.5 2.5
q1 0 2 -0.5t1 -2.5v-2q-7 -4 -10 -5.5t-4.5 -3.5t-1.5 -6v-14v-13q2 -4 4.5 -7.5t6 -7t7.5 -5t9 -1.5q9 0 15 1t10 4.5t5.5 9.5t1.5 14v3q0 1 -0.5 3.5t-1 5.5t-0.5 5.5t-1 3.5q0 4 -3 5.5l-6 3t-6.5 2t-5.5 1.5l-1 0.5l-1 0.5q1 3 2.5 3h3.5q11 0 16 -3.5t7.5 -10
t2.5 -14.5v-16v-2v-4v-2.5v-2.5q-3 -6 -6.5 -9.5t-7.5 -5.5t-9 -2.5t-12 -1.5l-1 -1v-17q0 -3 -1 -3.5t-2 -0.5q-2 0 -3.5 0.5t-0.5 3.5v2.5v5.5v4.5v3.5q0 3 -1.5 4t-3.5 2t-4 1.5t-4 2.5q-6 4 -9 8.5t-4.5 10t-2 11.5t-0.5 13zM147 57q0 6 0.5 13t4.5 13q0 1 2 2t3.5 2
t3 1.5t1.5 1.5v13q3 0 4.5 -2t2.5 -5t2.5 -6t4.5 -4q1 0 2 -0.5t1 -1.5q3 -1 4 -4.5l2 -7t1 -7v-5.5t-1 -3t-3 -1t-2.5 3.5t-1 8t-2 8.5t-4.5 4q-2 0 -2.5 -3.5t-1 -8.5t-0.5 -9.5t-1 -5.5v-1v0q-1 0 -1 1l-1 0.5t-2 0.5q-1 4 -1 6.5v6.5v5l0.5 2.5l0.5 2.5q0 1 -2 1.5
l-2 0.5q-4 0 -5 -3.5t-1.5 -7.5t-0.5 -7q0 -4 -2 -4h-3zM73 70q0 -6 2 -10t9 -4q2 0 3.5 4t3 9.5t2.5 10t1 5.5t-1.5 2.5t-4 3t-5 2t-3.5 0.5q-2 0 -3.5 -3t-2.5 -7t-1 -8v-5zM96 59q0 -5 1.5 -8t6.5 -3q7 0 9 5t2 10q0 3 -0.5 6.5t-2 5.5t-4 3.5t-6.5 1.5q-3 0 -4.5 -2.5
t-2 -6t0 -6.5t0.5 -6z" />
</svg>
