<?xml version="1.0" standalone="no"?>
<!DOCTYPE svg PUBLIC "-//W3C//DTD SVG 1.1//EN" "http://www.w3.org/Graphics/SVG/1.1/DTD/svg11.dtd" >
<svg xmlns="http://www.w3.org/2000/svg" xmlns:xlink="http://www.w3.org/1999/xlink" version="1.1" viewBox="-10 0 266 256">
   <path fill="currentColor"
d="M169 162q0 12 1.5 22.5t3.5 22.5v10.5t0.5 14.5t2 12.5t5.5 5.5q3 0 3.5 -1t0.5 -4v-3v-2q0 -1 -1 -3t-1 -3q0 -2 -1 -8.5t-2.5 -14t-2.5 -13.5t-1 -9q0 -6 -1 -12t-1 -12v-6v-5.5t0.5 -5.5t1.5 -7q0 -2 1.5 -2.5t4.5 -0.5t5 6t3 14.5t1.5 18.5t1 19t2 14.5t4.5 5.5
q2 0 3 -1t1 -3v-3q-1 -4 -2 -12t-2 -17.5t-2 -18t-2 -11.5v-1t-0.5 -2.5t-0.5 -2.5v-2v-1v-1q0 -4 1.5 -5.5t3.5 -1.5t4 -0.5t2 -3.5q0 -2 -2.5 -3t-4.5 -1q-10 0 -18 5.5t-12 13.5v18zM77 191q0 1 0.5 6t1 11.5t1 14t1.5 14t3 10t5 2.5q2 -1 3 -2.5t1 -3.5v-1
q0 -1 -0.5 -2.5t-0.5 -2.5q-2 -7 -3 -11.5t-1.5 -9.5t-0.5 -10v-12q-1 -3 -1.5 -6t-0.5 -6q0 -6 1.5 -12.5t3.5 -12.5t5 -12t6 -11t5.5 -8.5t2.5 -8.5q0 -3 -1.5 -5.5t-2.5 -5l-2 -5t-1 -5.5q0 -2 3 -4l6 -4t5.5 -5t2.5 -7q0 -6 -1.5 -11.5t-1.5 -11.5q0 -2 2 -3t4.5 -1.5
t5 -1.5t2.5 -5q-9 0 -17 1t-17 1q-3 0 -3 -3q0 -6 2.5 -11.5t2.5 -11.5q0 -1 -1 -3.5t-3 -2.5q-4 0 -5.5 4.5t-2.5 10.5t-1 11.5t-1 8.5q-8 1 -13.5 3t-8 5t-3.5 8.5t-1 14.5v6q0 1 1 3t1.5 4.5t1 4.5t1.5 3q1 3 3 5t2 5q0 2 -1 4t-2.5 4l-3 4t-1.5 4q-3 9 -5.5 17.5
t-2.5 18.5h3t3 -2l9 -33q1 -1 3 -2.5t3 -1.5q2 0 3 0.5l2 1l2 1t3 0.5q0 -4 -2.5 -7t-2.5 -7v-1l6 -6t7 -3q3 0 5.5 2.5t2.5 4.5q1 1 1 4.5v3.5q0 5 -2 9.5t-4.5 8.5l-5 8t-4.5 8q-4 11 -5.5 20t-1.5 21zM119 154q0 12 1 24.5t2 22.5q0 4 0.5 10t1.5 12t2 11.5t2 8.5
q1 2 4 2h4q0 -4 -1.5 -9t-0.5 -9q0 -3 -1.5 -11t-2.5 -16.5t-2 -16t-2 -10.5v-2v-4.5v-4.5v-3v-3v-4.5v-4.5v-3q1 -1 2 -2.5t2.5 -3t3 -2.5t2.5 -1h1v0l0.5 0.5t0.5 1.5q2 19 5 37.5t5 37.5q1 2 2 2.5t2 0.5q3 0 3.5 -1.5t0.5 -3.5q0 -4 -1.5 -7.5t-2.5 -7.5
q-2 -11 -4 -23.5t-2 -24.5v-10q1 -2 3 -3t3.5 -1.5t3 -1.5t1.5 -3t-1.5 -2.5t-3.5 -0.5q-7 0 -13 2t-10.5 5.5t-7 9.5t-2.5 12zM133 87q0 9 3.5 15.5t12.5 9.5q1 0 3.5 0.5t4.5 0.5h6h3q13 0 20.5 -1.5t11.5 -6t5 -12.5t1 -21v-15q-2 -4 -7.5 -6t-11 -3t-10.5 -1.5t-5 -1.5
v-16q0 -2 -1 -3.5t-3 -1.5t-4 1t-2 4l0.5 1.5t0.5 3t0.5 2.5t0.5 2v4q0 3 -2.5 5t-6 2.5l-7 1t-6.5 0.5q-3 2 -4.5 6.5t-2 10t-0.5 11v8.5zM148 102l3.5 -3.5t6 -5t6.5 -4.5t4 -2t4.5 2t7 4.5t5.5 5.5t2 5v1.5t-1 1.5q-7 1 -11.5 1h-10.5q-5 0 -9.5 -0.5t-6.5 -5.5zM66 74
q0 -3 1 -6.5t3 -6.5t4.5 -5t5.5 -2q2 0 3.5 0.5t2.5 2.5q1 6 2.5 14.5t1.5 15.5q0 6 -4.5 9t-10.5 3q-3 0 -5 -3t-3 -7.5t-1 -8.5v-6zM138 76q0 -4 1 -6.5t4 -4.5h1q2 0 5 2t6 5l5.5 5.5t2.5 4.5v1v1q-1 1 -2 1.5t-2.5 1.5l-3 2l-1.5 1q-1 1 -3.5 2t-4 2t-3 1.5l-1.5 0.5
l-2 -1v-4t-0.5 -7.5t-1.5 -6.5v-1zM177 80l15 -15h1q1 0 2 1.5t1 3.5v4v3v8.5t-1 9.5l-0.5 0.5t-1.5 0.5v0h-1v0q-1 0 -2 -0.5l-1 -0.5q-2 -1 -4 -3l-4 -4t-3 -3.5l-1 -1.5v-3zM95 66v-2.5v-4t0.5 -4t0.5 -2.5q1 -1 3 -2t3 -1q3 0 5 3t3 6.5t1.5 7.5t0.5 5q0 2 -1 4.5t-3 5
t-4 4t-4 1.5t-3 -3t-1.5 -6.5t-0.5 -7v-4.5zM151 60l-0.5 -1l-0.5 -1q0 -2 1 -2.5t4 -1.5h2.5t5 -0.5t5 -0.5h4.5h0.5h0.5h0.5h0.5h2t4.5 0.5t4 0.5h2.5q0 1 1 1.5l1 0.5v0v0v1q-2 1 -4 4.5t-5 6.5t-6 5t-6 2v0q-5 -3 -9 -6.5t-8 -8.5z" />
</svg>
