<?xml version="1.0" standalone="no"?>
<!DOCTYPE svg PUBLIC "-//W3C//DTD SVG 1.1//EN" "http://www.w3.org/Graphics/SVG/1.1/DTD/svg11.dtd" >
<svg xmlns="http://www.w3.org/2000/svg" xmlns:xlink="http://www.w3.org/1999/xlink" version="1.1" viewBox="-10 0 266 256">
   <path fill="currentColor"
d="M130 212q0 6 1.5 9.5t3.5 5.5t4.5 4t5.5 5q2 3 3.5 7t4.5 6q1 1 2.5 1.5t2.5 0.5q2 0 3.5 -1t1.5 -3q0 -5 -4 -8.5t-9.5 -8t-9.5 -10.5t-4 -14q0 -3 2.5 -6t6 -5.5t6 -6t2.5 -7.5q0 -5 -2.5 -7.5t-5.5 -4t-5.5 -3t-2.5 -3.5q0 -1 3.5 -1.5l7 -1t6.5 -1.5t3 -5v-16
q2 1 6 0t6 -4q-1 -2 -2 -2.5t-3 -0.5q-8 0 -15.5 1t-15.5 1h-3.5h-2.5l-1 -2v-4v-7q0 -1 0.5 -2.5l0.5 -1.5q0 -1 -1.5 -1.5l-1.5 -0.5q-2 0 -3.5 1t-1.5 4v15l-1 2q-4 0 -8.5 0.5t-8.5 2t-7.5 4t-3.5 7.5q0 4 1.5 8t3.5 7.5t4 6.5t2 6h-1q0 1 -2.5 4l-2.5 3q-1 2 -2.5 6
t-3 8.5t-3 8.5t-1.5 6q-1 2 -2 6t-2 7.5t-1.5 7t-0.5 6.5q0 2 0.5 3t2.5 1q4 0 6 -3t2.5 -7.5t0.5 -9.5q0 -4 1 -7q2 -7 5 -14.5t6 -13.5h1h1l0.5 1t2 2t2.5 1.5t2 0.5q2 0 4 -1t2 -3v-0.5v-0.5l-8 -9v-2q0 -2 2 -4t5 -3.5t6 -2.5t4 -1q2 0 5.5 1t7 2.5t6 4t2.5 4.5
l-0.5 0.5l-0.5 0.5q-4 4 -7 7.5t-5.5 6.5t-3.5 7.5t-1 9.5zM189 238q1 3 4 3h1.5t1.5 -2v-4v-5q0 -15 -2 -29.5t-4 -28.5t-4 -28.5t-2 -29.5q0 -3 1.5 -5t3 -4.5t3 -4.5t1.5 -5q0 -6 -5 -9t-11.5 -4t-13.5 -0.5t-11 0.5h-12q-2 0 -2.5 0.5t-0.5 1.5v1.5v0.5q2 0 5.5 0.5
t4.5 0.5t3.5 0.5t5.5 0.5t5.5 0.5l2.5 0.5h5.5t6.5 0.5t6 2t3 2.5q0 4 -2.5 6.5t-6.5 2.5q-3 0 -5.5 -2t-6.5 -2q-1 -1 -4 -1.5t-6.5 -0.5t-6 -0.5l-2.5 -0.5q-1 0 -5 0.5t-5 0.5t-2 0.5t-1 1.5v0v0.5v0.5l0.5 1t0.5 2q7 -1 15 -0.5t15 1.5q2 1 3 2t1 3q0 1 -3 2t-6.5 1.5
t-7.5 0.5h-4h-3.5t-4.5 0.5t-3.5 0.5h-1.5l-1 2q0 1 2 2t4.5 1h5h3.5q7 0 13 -1.5t13 -1.5h1.5t1.5 3q2 20 5 40.5t5 41.5q0 2 0.5 7.5l1 11t0.5 11t1 7.5zM99 153q0 -6 4 -8.5t10 -2.5l2 0.5t3 0.5q3 3 4 7t1 8v2.5v2.5l-1 0.5t-2 0.5l-2 0.5t-4 1.5t-4 1.5l-2 0.5
q-5 -3 -7 -6t-2 -9zM127 143v0q1 -1 1.5 -2l0.5 -1q1 0 3.5 -0.5t5 -0.5t5 -0.5t3.5 -0.5h1q1 0 2 0.5t1 1.5v13q0 1 -1.5 1.5t-4 1t-4.5 0.5h-2q-1 0 -3.5 -0.5l-2.5 -0.5q-1 0 -1 -0.5t-1 -0.5v-1.5t-0.5 -3l-1 -3t-1.5 -2.5v-1zM100 121q0 3 3 3q2 0 4 -3t4 -7t4 -7.5
t3 -5.5l1 -3t2 -6.5t2 -6.5t2 -3q0 -1 0.5 -2l0.5 -1q2 -6 2.5 -12t0.5 -12v-8q-4 -4 -11.5 -5.5t-15 -1.5t-13.5 -1t-6 -5q0 -2 2 -5t4 -5.5t4 -4t3 -3.5v-1q0 -3 -3 -3q-4 0 -7.5 3t-6.5 7.5t-4.5 9t-1.5 6.5v3v2l6 3q5 0 11 -0.5t11.5 0t10.5 1.5t10 5v4v3v7.5t-3 6.5h-7
h-6t-8.5 -0.5t-8 -1.5t-3.5 -4q1 -5 5.5 -6.5t9.5 -1.5h9.5t4.5 -2v-1q-1 0 -1 -0.5t-1 -0.5q-7 -1 -13.5 -2t-12.5 -1q-3 0 -4 2t-2 5t-1.5 6t-0.5 4q-1 4 -3.5 7.5t-3.5 7.5t-3 7t-4 5.5t-3.5 6t-1.5 7.5q4 0 6.5 -2.5t4.5 -5.5t4.5 -5.5t5.5 -2.5q4 0 6.5 1t5.5 1.5
t6.5 1t6.5 0.5q0 -2 -0.5 -3t-2.5 -2q-1 0 -3.5 -1t-6 -2t-6.5 -1.5t-4 -1.5q-2 0 -2.5 -0.5t-0.5 -2.5q0 -3 2 -4t4 -1h5h5t8 0.5t8 0.5h6v1v1q0 5 -3 10.5l-6 11t-6 10t-3 7.5zM150 58q0 6 2.5 8.5t6.5 3t8.5 0.5h8.5h13q1 0 3 -0.5t2 -2.5v-1q0 -1 -1 -2t-2 -1h-34
l-1 -1.5t-2 -2.5v-1v-1q1 0 1.5 -1t0.5 -1.5t0.5 -1.5l0.5 -1h27q2 0 3.5 -1.5t2.5 -3.5t1 -4.5v-3.5v-2.5t-0.5 -3t-1.5 -2.5t-2 -1h-31l-3 -3v-2.5t-0.5 -3t-1 -2.5t-2.5 -1h-2t-1 1q0 5 -0.5 9t-1.5 7t-2.5 6.5t-4.5 7.5v1q0 1 1.5 1.5t2.5 0.5q3 0 4.5 -2.5t3 -5.5
t4 -5.5t8.5 -2.5t10.5 0.5t11.5 0.5q2 1 2 4q0 2 -1.5 3t-3.5 2h-8t-10 1t-8.5 3.5t-3.5 7.5z" />
</svg>
