<?xml version="1.0" standalone="no"?>
<!DOCTYPE svg PUBLIC "-//W3C//DTD SVG 1.1//EN" "http://www.w3.org/Graphics/SVG/1.1/DTD/svg11.dtd" >
<svg xmlns="http://www.w3.org/2000/svg" xmlns:xlink="http://www.w3.org/1999/xlink" version="1.1" viewBox="-10 0 266 256">
   <path fill="currentColor"
d="M95 247q1 3 2.5 3.5t2.5 0.5q6 0 6 -5q0 -4 -1 -7.5t-2.5 -6.5l-3 -6t-2.5 -6q-3 -8 -4 -17t-1 -17q0 -10 2.5 -20t6.5 -19q3 -6 5.5 -11.5t2.5 -11.5q0 -4 -1.5 -7.5t-3.5 -6.5t-3 -6.5t-1 -6.5v-2l3.5 -3.5l5 -5t4.5 -5t3 -4.5v-11q0 -7 -2 -13t-2 -13q0 -2 1.5 -3
t3.5 -2t4 -2.5t2 -4.5q-4 0 -8 1t-8 2.5t-8 2.5t-8 1q-3 0 -3.5 -4t0 -8t0.5 -8t-4 -4q-1 0 -1.5 0.5l-1.5 1.5q-2 6 -2 14q0 7 1 13q-4 5 -8.5 6.5t-8.5 4t-6.5 7t-2.5 15.5v4v5q2 3 2.5 7.5t3.5 7.5q0 1 1.5 2.5t3 3.5l3 4l1.5 2v1.5v1.5q0 3 -1 6.5t-3 7l-4 7t-3 6.5
q0 2 -1 6.5t-1.5 8.5t-1 7.5l-0.5 3.5v3v5v6v4v4v5v5v4l1 1t2 1h1q2 0 3.5 -2t1.5 -5q-3 -33 6 -65q1 -3 3 -4.5t4.5 -3.5t4.5 -3l2 -1v-5t0.5 -6t2.5 -5t5 -2h1h2q3 5 5 10t2 11q0 9 -3 17t-6.5 15.5t-6 15.5t-2.5 17l0.5 2.5t1 4.5l1 4t0.5 3q2 12 4.5 23.5t4.5 22.5z
M164 245q0 3 0.5 4.5t3.5 1.5q2 0 3 -1t2 -4q0 -36 1.5 -72.5t0.5 -73.5q0 -1 1.5 -2t2.5 -1h17v4l-7 14t-4.5 12.5t-3 13.5t-1.5 15q0 10 3 20t5 20q1 1 1.5 4t1 6.5t1.5 6t1 3.5t1.5 2t1.5 2h1q2 0 3 -2t1 -4v-3v-1h-1l-1 -3q-1 -1 -1.5 -4.5t-1.5 -7t-2 -6.5t-1 -4
q-2 -9 -3.5 -19.5t-1.5 -19.5v-3v-4v-4v-2q1 -6 4.5 -11t6.5 -10t5.5 -10t2.5 -11q0 -7 -3 -11.5t-7 -7.5t-9.5 -4.5t-11.5 -3.5q-2 0 -2 -2.5v-4.5q0 -3 -0.5 -5t-3.5 -2q-1 0 -2.5 0.5t-1.5 1.5v12q0 2 -3.5 3t-8 3.5t-8.5 7t-4 14.5q0 6 1.5 12t3.5 12t3.5 12t1.5 12
q0 10 -2 19t-4 17.5t-3.5 17.5t-1.5 19v2t2 1q2 -1 3.5 -6t3 -11t2.5 -11.5t1 -8.5l1 -6.5t2 -14t2 -16t1 -13.5v0q0 -5 -1.5 -8.5t-3.5 -7l-4 -7t-2 -7.5q0 -3 2 -3.5t5 -0.5t6.5 0.5t5.5 4.5v4t0.5 6.5t0.5 6v3.5v2q0 19 -0.5 38t-0.5 38q0 11 -1.5 23.5t-1.5 23.5z
M121 227q0 1 0.5 2.5t1.5 1.5q4 0 5.5 -3.5t1.5 -6.5q2 -37 2.5 -74.5t3.5 -74.5q1 -5 0.5 -10t1.5 -10q2 -4 6 -6t9 -2.5l10 -1t8 -0.5q6 0 11.5 1t11.5 1q3 0 6 -1.5t5 -4.5l-1 -2h-2h-4.5h-4.5h-4q-9 0 -19.5 -0.5t-19 1.5t-15 7.5t-8.5 18.5q0 14 -0.5 27t-0.5 27
q-1 4 -1 12t-0.5 17.5t-0.5 20.5t-0.5 20.5t-0.5 17.5v11l-1.5 6t-0.5 5zM63 69q0 -2 1 -4.5t3 -5.5t4 -5.5t4 -2.5q1 -1 2.5 0t2 2.5l1 3l0.5 1.5q2 8 4.5 17t2.5 17q0 3 -4 6t-7 3q-4 0 -7 -3.5t-4.5 -9t-2 -11t-0.5 -8.5zM148 85q0 -4 3 -6.5t6.5 -4t7.5 -2t7 -0.5
q5 0 9.5 0.5t8.5 4.5q2 1 4.5 4l2.5 3v5h-47q-1 0 -1.5 -1.5t-0.5 -2.5zM87 55q0 -14 14 -14q3 0 5 3t3 7t1 8.5v7.5q0 2 -0.5 5t-1.5 5.5t-3.5 4t-5.5 1.5h-2h-2q-2 -3 -3 -6.5l-2 -7t-2 -7.5t-1 -7z" />
</svg>
