<?xml version="1.0" standalone="no"?>
<!DOCTYPE svg PUBLIC "-//W3C//DTD SVG 1.1//EN" "http://www.w3.org/Graphics/SVG/1.1/DTD/svg11.dtd" >
<svg xmlns="http://www.w3.org/2000/svg" xmlns:xlink="http://www.w3.org/1999/xlink" version="1.1" viewBox="-10 0 266 256">
   <path fill="currentColor"
d="M100 217q0 2 1 7t2.5 11t4 10.5t5.5 4.5t5 -0.5t2 -3.5v-1v-1q-5 -7 -9 -13t-4 -14q0 -4 2 -8t4 -7.5t3.5 -6.5t1.5 -8q0 -4 -2 -6.5t-4 -4.5t-4.5 -4t-2.5 -6q-1 -2 0.5 -3.5t3.5 -2t4.5 -1t3.5 -1.5q4 -4 4.5 -11t-0.5 -13q1 -1 3 -1.5t4.5 -1t3.5 -2t1 -2.5v-2.5
t-1 -1.5h-6q-7 0 -13.5 2.5t-12.5 2.5q-2 0 -3 -1.5t-1 -4t-1 -4t-3 -1.5q-3 0 -4 1.5t-1 4.5v5.5t-2 4.5t-6 3t-7.5 2.5t-6.5 3.5t-3 7q0 8 2.5 14t6.5 13v1q0 2 -1 4t-2.5 4.5t-3 4.5t-2.5 5q-3 9 -3.5 19t-0.5 20v11q0 1 0.5 1.5t1.5 0.5q3 0 5 -2t3 -5v-5v-9v-8v-6
t0.5 -5.5t1.5 -6.5t2.5 -5t4.5 -2h1h1l1 1.5t2 1.5t4.5 0.5t4.5 0.5v-6l-8 -11v-1q0 -2 1.5 -3.5t3 -2.5t3.5 -1.5t4 -0.5t4.5 2t4.5 5t3 6.5t1 5.5q0 3 -1.5 6.5l-3 7t-2.5 6.5t-1 7zM168 209q0 6 2.5 13t6.5 13t9.5 10.5t11.5 4.5q2 0 3 -2t1 -4q0 -3 -2 -5t-5 -3.5
t-6 -3.5t-4 -4l-0.5 -1.5l-1 -3l-1 -3t-0.5 -2.5l-1 -1t-1.5 -2.5t-1.5 -2.5t-1 -2v-2q0 -9 4.5 -15.5t9 -12t8.5 -11t4 -12.5q0 -6 -3 -9t-6.5 -5.5t-6 -5.5t-2.5 -7t2 -6t4.5 -3.5l5 -3t3.5 -5.5q0 -1 0.5 -3.5t1 -4.5l1 -4l0.5 -2v-49q0 -5 -2 -8.5t-5 -5t-7.5 -2
t-8.5 -0.5h-8t-9.5 1t-8.5 3t-6 7v8t-0.5 7t-0.5 6.5v7.5v9.5v11.5t1.5 11.5t3.5 9.5l2 4t2 3.5l2 3t1 4.5q0 8 -4 14t-9 10t-9 7t-4 5t1 2.5t3 0.5q4 0 6.5 -1t4.5 -4q2 -1 4 -3t4.5 -5t5 -5.5l3.5 -3.5q1 -3 1 -6q0 -4 0.5 -8t2 -7t5.5 -3q2 0 3 2t1.5 5t0.5 6t1 5l5 5
l3.5 3.5t2 3.5t0.5 6q0 5 -3.5 10t-8 10.5t-8 13t-3.5 16.5zM74 153q0 -5 3.5 -8.5t9.5 -3.5q1 0 2 2t1.5 5t0.5 5.5v3.5q0 4 -3 7.5t-8 3.5q-2 0 -3 -2l-2 -4t-1 -5v-4zM99 153l-0.5 -2l-1 -4t-0.5 -4v-2v-1q0 -4 2.5 -4.5t5.5 -1.5v0q3 0 4.5 1.5t2.5 3.5t1.5 4t0.5 4
q0 4 -4.5 6t-7.5 2h-2t-1 -2zM156 101v-1v-2q2 0 6 -0.5t8.5 -0.5t8.5 -0.5t6 -0.5h3q3 0 4 1t1 4q0 6 -2.5 9.5t-5.5 5t-7.5 1.5h-8.5q-6 0 -9.5 -5t-3.5 -11zM79 71l0.5 0.5t0.5 1.5v41q0 1 1.5 1h1.5q3 0 4 -2.5t1.5 -5.5t0.5 -6v-3q0 -2 0.5 -6t0.5 -9t-0.5 -9.5
t-0.5 -5.5q2 -4 4 -7t6 -3q3 0 5.5 3.5t3.5 6.5q-1 12 0 23t1 24q2 0 3.5 -1.5l2.5 -2.5v-3t0.5 -4t1 -3.5t0.5 -2.5v-2q0 -4 -1 -8t-1 -8v-6t4 -3q2 0 3.5 1l3 2l3 2t4.5 1q2 0 3.5 -0.5t1.5 -2.5q0 -5 -6 -8.5t-12.5 -6.5t-12.5 -5.5t-6 -6.5q0 -2 1 -4t3 -4h5t8 -0.5
t7.5 -2t3.5 -4.5v-2t-2 -2h-25v-14l-1.5 -0.5t-1.5 -1.5h-2q-2 0 -3.5 1t-1.5 3v16h-24q-2 0 -2.5 2t-0.5 4v1.5t2 1.5h25q0 9 -2.5 12.5t-6.5 5t-9 3t-10 6.5q-1 0 -2.5 2t-3 3.5l-3 3l-2.5 2.5v1v1q0 2 0.5 3t2.5 1q3 0 6 -2t5.5 -5t5.5 -5t6 -2zM153 80q0 -4 5.5 -6.5
t13 -3.5t14.5 -1h10v2q-1 2 -1 6t-0.5 6.5t-0.5 3.5l-1 1l-3 0.5t-6 0.5t-6.5 0.5t-6.5 0.5h-3h-5h-4h-4q-1 -1 -1.5 -4t-0.5 -4v-2zM153 58q0 -5 2.5 -8.5t6 -5.5t8.5 -2.5t9 -0.5q8 0 11.5 3t3.5 12q0 3 -5 4.5t-11 2t-11.5 0.5h-6.5q-3 0 -5 -1t-2 -4z" />
</svg>
