<?xml version="1.0" standalone="no"?>
<!DOCTYPE svg PUBLIC "-//W3C//DTD SVG 1.1//EN" "http://www.w3.org/Graphics/SVG/1.1/DTD/svg11.dtd" >
<svg xmlns="http://www.w3.org/2000/svg" xmlns:xlink="http://www.w3.org/1999/xlink" version="1.1" viewBox="-10 0 266 256">
   <path fill="currentColor"
d="M178 244q0 2 1 4t4 2q2 0 3 -1t1.5 -2.5t1 -3.5t0.5 -4q0 -14 -2 -28t-2 -28q0 -5 3.5 -7.5t7.5 -5t7 -5t3 -7.5q0 -2 -1.5 -5t-3.5 -6t-4.5 -4.5t-5.5 -1.5l0.5 3l0.5 3q0 1 0.5 2t1 2.5l1 3t0.5 2.5q1 4 -3 6t-7 2q-4 0 -6 -2.5t-4.5 -5t-6 -5t-8.5 -2.5h-1l-3 2
q1 2 3.5 3.5t5.5 2.5t5 3t2 5l-0.5 1.5t-1.5 1.5h-20q-3 0 -5.5 -3.5t-5.5 -7.5t-6 -7.5t-7 -3.5q-2 0 -2.5 1.5t-0.5 3.5q0 3 4 7t9 8.5t10.5 7.5t7.5 4h19q3 1 5 2v5.5t0.5 7t0.5 7v4.5v1q0 10 -0.5 19.5t-0.5 18.5zM78 184q0 9 1.5 16t4 13.5t6 12.5t7.5 13q2 4 2.5 7
t5.5 3q1 0 3.5 -0.5t2.5 -2.5v-1l-1 -1t-1 -2l-1.5 -2l-3 -4l-3 -4l-1.5 -2q0 -1 -1 -2.5t-2 -4l-2 -5t-1 -4.5q-1 -2 -2.5 -5.5t-2.5 -7.5t-2 -7t-1 -6q0 -10 1 -18.5t5 -17.5q2 -4 5 -8t5.5 -8t4.5 -8t2 -9v-1q0 -3 -1.5 -6.5l-3 -7t-2.5 -6.5t-1 -6q0 -4 2.5 -5.5t6 -4
t6.5 -6t3 -10.5t-2.5 -13.5t-2.5 -12.5q0 -2 1.5 -3t3.5 -1.5t4 -1.5t2 -3q0 -1 -0.5 -2.5t-2.5 -1.5q-4 0 -7.5 1.5l-7 3t-6.5 2.5t-7 1t-4 -2v-2q0 -1 0.5 -2.5t0.5 -3.5t0.5 -3.5l0.5 -1.5q0 -1 -0.5 -2t-1 -1.5t-2.5 -0.5h-1h-3q-3 0 -3 2v20q0 1 -3.5 2.5t-8 4t-8 7
t-3.5 10.5q0 8 2.5 16t6.5 15q1 1 2 3.5l1 2.5l-0.5 1t-0.5 2q-6 9 -9 14.5t-4.5 10.5t-2.5 11.5t-2 18.5l-0.5 2.5t-0.5 3.5l0.5 2t0.5 4.5t0.5 5t1.5 4.5t1 2.5t2 0.5t4 -1.5t2 -4.5q0 -5 -0.5 -10t-0.5 -11v-3l8 -34l3 -3q2 2 4 3.5t4 1.5q4 0 4 -5v0v0q0 -1 -0.5 -2
l-1 -2t-1 -2.5l-0.5 -1.5v-2q0 -4 3.5 -6.5t7.5 -2.5q2 0 4 3t2.5 7l1 8t0.5 6q0 4 -1.5 7.5t-3.5 6.5t-4 5.5t-4 6.5q-5 9 -7 18.5t-2 19.5zM126 200q1 3 4 4t6 1l1.5 -0.5t3.5 -0.5t3.5 -0.5t2.5 -0.5h1h2l1.5 0.5t3.5 0.5t3.5 0.5t2.5 0.5t2.5 -0.5t3 -0.5t2.5 -1t1 -3
v-1.5t-2 -1.5h-38zM137 81q0 8 1 15.5t6 13.5q0 1 1.5 2.5t1.5 2.5q2 6 1.5 11t0.5 8.5t4 5t12 1.5q5 0 8.5 -0.5t9.5 -2.5q2 -2 3 -4t1 -4v-4.5v-6.5q0 -3 3 -5.5t5.5 -5l5 -5t2.5 -6.5q0 -6 -0.5 -10.5t-2 -8.5t-4.5 -7.5t-9 -5.5l-2 -0.5t-4.5 -1t-4 -1l-1.5 -0.5v-9
q5 -1 10.5 -2t9 -3.5t6 -7t2.5 -11.5q0 -3 -1 -4.5t-4 -1.5t-4 3.5t-2 7.5t-3.5 7.5t-8.5 3.5q-1 0 -3 -0.5t-2 -1.5v-25q0 -6 -6 -6h-2.5t-1.5 2v26q0 2 -1.5 2.5t-3.5 1l-4 1l-2 0.5q-4 -2 -4.5 -5.5t-1 -6.5t-1.5 -5.5t-7 -2.5q0 14 6.5 20t20.5 8v4v4t-2 4q-4 0 -9 0.5
t-9 2t-7 4.5t-3 9zM156 126q0 -7 2.5 -8.5t9.5 -1.5h4.5t5.5 2v2v2q0 7 -3 9t-9 2q-5 0 -7.5 -1t-2.5 -6zM145 100v-1l2.5 -2.5t2.5 -1.5h12q2 0 2 2v3v4q0 1 -2 3q-1 0 -4.5 0.5t-4.5 0.5l-1 1q-1 0 -2 -1t-2 -2.5l-2 -3l-1 -1.5v-1zM171 101q0 -2 0.5 -4t3.5 -2l3 -0.5
t4 -0.5h5t5 2v4q0 1 -0.5 4t-2.5 3h-16q-1 0 -1.5 -1.5t-0.5 -2.5v-2zM75 91q-1 -1 -2 -4t-2 -6.5t-1.5 -6.5t-0.5 -4t-0.5 -2.5t-0.5 -3.5t0.5 -4t1.5 -4t2.5 -3.5t4.5 -1.5q2 0 4.5 4.5t4.5 10.5t3.5 12t1.5 8q0 1 -1.5 2.5t-3.5 2.5t-4 1.5t-3 0.5h-2t-2 -2zM173 87
q0 -1 -0.5 -2l-0.5 -1v-3v-5t1 -3.5t3 -1.5q3 0 6 1t5.5 2.5t4 3.5t1.5 6q0 1 -1 2.5t-3 1.5h-2h-3t-4 -0.5t-4 -0.5h-3zM158 73q6 0 6 5v2.5t-0.5 2.5t-0.5 2.5t-1 1.5h-17q0 -14 13 -14zM90 51q0 -5 2.5 -6.5t7.5 -1.5q4 0 6.5 2.5t3.5 6.5t1 8v7q0 1 -1 3.5t-3 5
t-3.5 4.5t-3.5 2q-3 0 -4.5 -4.5t-3 -10t-2 -10.5t-0.5 -6z" />
</svg>
