<?xml version="1.0" standalone="no"?>
<!DOCTYPE svg PUBLIC "-//W3C//DTD SVG 1.1//EN" "http://www.w3.org/Graphics/SVG/1.1/DTD/svg11.dtd" >
<svg xmlns="http://www.w3.org/2000/svg" xmlns:xlink="http://www.w3.org/1999/xlink" version="1.1" viewBox="-10 0 266 256">
   <path fill="currentColor"
d="M130 247q0 3 3 3t5.5 -3t4 -7.5t2 -9t1.5 -7.5q0 -2 1 -6t1.5 -8.5t1 -7.5t0.5 -4v-3v-5v-5v-2q0 -2 1.5 -3.5t3.5 -1.5t4 3t3 5v8q0 15 -2.5 28t-9.5 26q0 2 1 2.5t2 0.5q4 0 6.5 -2t3.5 -5t2 -6.5t3 -6.5l3 -47h2q5 0 9 3.5t7 7.5t6 7.5t6 3.5q2 0 3.5 -1.5t1.5 -3.5
q0 -4 -4 -8.5t-9.5 -8t-11.5 -6.5t-9 -4q-2 -1 -4 -1.5t-3.5 -0.5h-3.5h-5q-2 0 -2.5 -1t-0.5 -3q0 -5 2 -8t4.5 -5t6 -4t6 -4t4.5 -5t2 -8q0 -4 -2.5 -9t-7.5 -5h-25l-0.5 -0.5t-1.5 -0.5q0 -1 -0.5 -2.5l-1 -3t-1 -2.5l-0.5 -1q1 -4 4.5 -6.5t7.5 -4t8.5 -2t7.5 -0.5
q6 0 9.5 5t5.5 12t2.5 14.5t0.5 11.5v4.5v7.5v7.5v4.5q1 4 3 5q4 -3 5 -7t1 -9q0 -9 -1.5 -17t-2.5 -17q0 -1 -0.5 -3t-0.5 -5t-0.5 -5t-0.5 -3q-1 -3 -3.5 -5t-2.5 -5q0 -2 2.5 -4t5.5 -3.5t6 -3.5t4 -4q3 -5 4 -11t1 -11v-4t-1 -4t-2 -3t-4 -1h-1h-1v9t-1 10t-3 9.5
t-7 6.5q-1 1 -6 3t-10.5 4t-10 4t-5.5 3q-3 1 -7 2.5t-7 3.5q-11 7 -18 17t-12 23q-4 8 -7 15.5t-3 16.5q2 0 3.5 -0.5t3 -2t3 -2t3.5 -0.5q1 0 2 1t2 2.5l2 3t2 2.5q3 2 7 3l8 2t6.5 3t2.5 7q0 8 -1 18.5t-4 19.5q0 1 -1.5 4.5t-3 6.5t-2.5 6zM177 242q0 2 0.5 3t2.5 1
q1 0 3 -1t3 -2l4 -37q0 -2 -1.5 -3.5t-3.5 -1.5h-2q0 1 -0.5 4t-1.5 4q0 2 -0.5 5.5t-1 8t-1 8.5t-0.5 5q-1 2 -1 3v3zM51 184v2q0 4 0.5 10.5t0.5 12.5t0.5 11t0.5 6v4t0.5 5.5t2 5t4.5 2.5t4.5 -4t1.5 -7l-0.5 -2t-0.5 -3q-1 -4 -1.5 -8t-0.5 -8v-8v-9q0 -16 1 -33t5 -33
q1 0 1 -2.5t1 -3.5v0q2 0 2.5 1.5l1 3t0.5 3v1.5l0.5 0.5t1.5 0.5q2 0 2.5 -2t0.5 -4q0 -4 -1.5 -8t-1.5 -8q0 -3 1 -4t4 -1t5 2t3.5 4.5t2 5.5t0.5 5q0 8 -2.5 14.5t-5.5 13t-5 14t-2 15.5q0 15 3.5 30t6.5 29q1 2 2 3.5t4 1.5t3 -3v-5q0 -6 -2.5 -12t-3.5 -12v-6
q0 -1 -0.5 -2t-1 -3t-1 -3t-0.5 -2v-4t-0.5 -6t-0.5 -6.5v-4.5q0 -7 2 -13l4 -12l4 -12t2 -13v-9t-2 -8q-1 -3 -2.5 -6t-1.5 -7q0 -3 1 -5.5t3 -4.5t3.5 -4t2.5 -5q0 -1 0.5 -3t1 -5t1 -5.5t0.5 -4.5v-1v-1l-0.5 -1t-1 -2.5t-1 -2.5l-0.5 -1v-1q0 -3 1.5 -4.5t3.5 -2.5
t3.5 -2.5t1.5 -3.5q0 -5 -4 -5t-7 1.5t-5.5 3t-5.5 2.5t-6 1h-1v0l-1 -0.5l-1 -0.5v-3.5v-5.5v-4.5v-3.5q0 -3 -0.5 -5.5t-3.5 -2.5l-1.5 0.5t-1.5 1.5v29q0 1 -3 3t-7 5t-7.5 7.5t-3.5 9.5t1.5 10t3.5 10.5t3 10t1 9.5q0 7 -2 11.5t-4 9.5q-3 14 -4.5 27.5t-1.5 28.5z
M126 189q-2 0 -3.5 5t-3 11t-2.5 12t-2 7q-2 3 -3 4t-1.5 2l-1 2t-0.5 5q6 0 9.5 -5t6 -11.5t4 -13t1.5 -9.5q0 -2 -0.5 -5.5t-3.5 -3.5zM109 154v-1l13 -28l8 -7l0.5 -0.5l0.5 -0.5q2 0 3.5 1.5t2.5 3.5l-2.5 2.5t-5 5.5t-5 6.5t-2.5 6.5t0.5 6t2 5.5t3.5 4t5 1.5
q7 0 8.5 -5t2 -11.5t1 -11.5t4.5 -5q2 0 3 1t1.5 3l1 4t0.5 4q0 4 -1 10.5t-3.5 12t-6 9t-9.5 3.5q-4 0 -6.5 -2t-4 -5t-3.5 -5.5t-5 -3.5q0 -1 -1.5 -1t-2.5 -0.5l-2 -1t-1 -1.5zM128 146q0 -12 11 -12v3t-0.5 6t-2 5.5t-3.5 2.5t-3.5 -1.5t-1.5 -3.5zM161 126q5 0 6.5 1
t1.5 6q0 3 -0.5 5.5t-4.5 2.5l-1.5 -0.5t-1.5 -1.5v-13zM65 67q0 -3 1.5 -7.5t4.5 -4.5q2 0 3.5 4.5t3 10t2.5 10.5t1 7q0 3 -2 6.5t-6 3.5q-3 0 -4.5 -4t-2.5 -9t-1 -10v-7zM123 48l0.5 0.5l0.5 0.5l3 6q0 1 0.5 4.5l1 7l1 7t0.5 4.5v2.5t0.5 3t1.5 2.5t3 1v0q1 0 2 -1
t1 -2l0.5 -2.5l0.5 -2.5q0 -7 -2.5 -13.5t-2.5 -13.5v-3.5t1 -4l2 -3t4 -1.5v0l2 2l1 1q0 1 1 4t2 6.5t2 6.5t1 4q1 2 1.5 3.5t1 3.5t2 3t2.5 1q2 0 3.5 -1t1.5 -3v-1q-4 -6 -7 -13.5t-3 -15.5q0 -4 2 -5t5 -1h3t2 2l11 26l8 7q0 1 1 1q3 0 3 -4q0 -5 -2.5 -8.5t-5.5 -7
t-5.5 -7t-2.5 -8.5t4 -5.5t8 -0.5q5 0 9 -1t4 -6q0 -2 -1 -2.5t-4 -0.5h-2q-3 1 -8 2t-11.5 2t-12 2t-7.5 2q-3 1 -7.5 2t-9 3.5t-7.5 6t-3 8.5zM86 74q-1 -1 -1.5 -4t-1 -5.5t-1 -5.5t-0.5 -4v-2q0 -3 2.5 -4t5.5 -1q5 0 6 4t1 9t-2 9.5t-7 4.5h-1l-0.5 -0.5z" />
</svg>
