<?xml version="1.0" standalone="no"?>
<!DOCTYPE svg PUBLIC "-//W3C//DTD SVG 1.1//EN" "http://www.w3.org/Graphics/SVG/1.1/DTD/svg11.dtd" >
<svg xmlns="http://www.w3.org/2000/svg" xmlns:xlink="http://www.w3.org/1999/xlink" version="1.1" viewBox="-10 0 266 256">
   <path fill="currentColor"
d="M131 206q0 6 0.5 8.5t2.5 7.5q2 3 6.5 7.5t10 9.5t10.5 8.5t9 3.5q3 0 4 -2t1 -4q0 -3 -5.5 -6.5t-12.5 -8.5t-12.5 -11.5t-5.5 -15.5q0 -3 2 -6.5t5 -6.5t6 -5.5t5 -5.5v-3q0 -6 -2.5 -9t-6 -5.5t-6 -5t-2.5 -6.5v-0.5v-0.5l23 -5v-20q0 -2 3.5 -2.5t8 -1t8.5 -2t4 -4.5
q0 -2 -2.5 -2h-3.5q-9 0 -18 1t-18 1h-3h-3h-3h-2l-2 -2v-18l3 -0.5t5 -1.5h3q2 0 4 0.5t5 1.5v2q0 1 0.5 3l1 4t1.5 3h1q2 0 3 -1.5t1.5 -3.5l1 -4t1.5 -3q3 -1 7.5 -0.5t9.5 0t9.5 -2t6.5 -5.5q-2 -3 -7 -3t-10 1t-11 1q-1 0 -3 -0.5l-2 -0.5q-1 0 -1.5 -0.5t-0.5 -1.5
q0 -2 0.5 -3t1.5 -2q6 -1 11.5 -1.5t9.5 -3t6.5 -6.5t2.5 -12q0 -1 -1 -4.5t-3 -3.5q-3 0 -4 2t-1 4v5t-2 5.5t-5.5 4t-10.5 1.5q-3 0 -4 -3t-1 -6v0q4 -4 5.5 -6t2.5 -3.5l2 -3t4 -6.5h3.5h5t5 -0.5t4.5 -0.5q1 0 3.5 -1t1.5 -4q0 -2 -1.5 -2.5t-2.5 -0.5q-19 0 -37.5 2
t-36.5 1q-1 1 -3 2t-2 2v1q1 0 4.5 0.5t4.5 0.5h2h5h4h2q3 1 4 2t2 3t1.5 4t0.5 4q1 2 2.5 2.5l3 1t2.5 1.5t1 4v4.5t-3 2.5q-10 0 -14.5 -2.5t-5.5 -6t-1.5 -6.5t-3.5 -3q-2 0 -2.5 1t-0.5 3q0 5 1.5 10t5.5 9h6t8 0.5t7 2t3 5.5v2t-2 2h-26q-1 0 -2.5 -1t-2.5 -1t-3.5 1
t-2.5 3t2.5 3t3.5 1q1 1 2 1.5l1 0.5v20q0 1 -2.5 2t-7 1t-9.5 0.5t-9.5 2.5t-7 5.5t-2.5 9.5q0 4 1 7t2.5 6t2.5 6t1 6v1.5v2.5q-5 9 -8 18.5t-4.5 19t-2 19.5t-0.5 21q2 0 4 -1t4 -3v-7.5t0.5 -12t1 -12t1.5 -7.5q0 -1 0.5 -3.5t1 -6l1 -7t1.5 -4.5q0 -3 0.5 -3.5
t2.5 -0.5h1.5h0.5l10 9q0 1 1 1h1q4 0 4 -4q0 -2 -1.5 -4.5t-3 -4t-3 -4t-1.5 -5.5q0 -2 2.5 -4t5.5 -4t6.5 -3t4.5 -1t5.5 3t9 7t8 8t3.5 6v0q-1 1 -1.5 3l-0.5 2q-4 4 -7 6.5t-5.5 5.5t-3.5 7t-1 8zM93 133v-1q7 -4 12 -6t12 -2h2h2l2 2l0.5 1.5t0.5 3.5t0.5 4.5t1.5 3.5
v2q0 1 -2 2l-4 2t-4 1.5l-2 0.5q-1 0 -3 1t-4 1.5l-4 1t-3 1.5v0q-2 0 -3.5 -2.5t-2 -5.5t-1 -6.5t-0.5 -4.5zM132 131v-5q2 -4 5 -4.5t7 -0.5h7q3 2 3.5 5t0.5 6q0 4 -2 6t-5.5 3t-7 1.5t-5.5 0.5t-2.5 -1.5t-1 -3.5t0 -4t0.5 -3zM77 39q0 2 -1.5 3t-3.5 1.5t-4 1.5t-3 1
q-2 2 -5 4t-3 3v33l2 4t3 5.5t4 2.5t6.5 1t7 -0.5t4.5 -0.5t4.5 0.5t7.5 0.5t7.5 -1t4.5 -3v0v-1q0 -1 -1 -1.5l-1 -0.5h-31q-3 0 -5 -2t-3 -5t-1.5 -6t-0.5 -5q0 -5 1 -11t2 -10q2 -2 8.5 -3l13 -2t11.5 -3.5t5 -7.5v-17l-0.5 -1t-0.5 -1.5t-0.5 -1t-1.5 -0.5h-40l-0.5 1
t-0.5 2v1q0 2 2 2t5 1t5.5 4.5t2.5 11.5zM75 62v6t0.5 8t2 7t3.5 3h15q3 0 4.5 -2.5t1.5 -5.5v-6v-4v-6v-5l-0.5 -1.5t-1.5 -1.5v0v0q-1 0 -2 1l-2.5 2.5t-2.5 3t-4 1.5t-4.5 -1.5t-2.5 -3t-1.5 -2.5t-2.5 -1h-1.5t-1.5 1v7zM82 74q0 -3 3 -4t6 -1t3.5 1.5t0.5 4.5t-1 4
t-5 1q-3 0 -5 -1.5t-2 -4.5zM148 44v-2.5t2 -1.5h15q0 6 -2 8t-7 2q-3 0 -5.5 -1.5t-2.5 -4.5zM91 23h1.5h2t2.5 0.5t1 1.5v6v1q0 2 -0.5 3.5l-1 3t-2.5 1.5h-10v-15l1 -0.5t2 -0.5l2 -0.5zM129 20l3 2h52q2 0 2.5 -2t0.5 -4h-54q-2 0 -3 1.5t-1 2.5z" />
</svg>
