<?xml version="1.0" standalone="no"?>
<!DOCTYPE svg PUBLIC "-//W3C//DTD SVG 1.1//EN" "http://www.w3.org/Graphics/SVG/1.1/DTD/svg11.dtd" >
<svg xmlns="http://www.w3.org/2000/svg" xmlns:xlink="http://www.w3.org/1999/xlink" version="1.1" viewBox="-10 0 266 256">
   <path fill="currentColor"
d="M199 248q0 2 1 2.5t3 0.5t3.5 -0.5t1.5 -4.5v-4t0.5 -6t0.5 -7v-3v-6q0 -3 -0.5 -6.5t-0.5 -5.5v-3v-5.5t-0.5 -10t-0.5 -10v-5.5q0 -4 0.5 -12t-0.5 -16.5t-3.5 -15t-9.5 -7.5h-1t-2.5 0.5t-2.5 1l-1 0.5q-7 0 -15.5 -0.5t-17 0t-16 2.5t-12.5 9q1 28 -0.5 56.5
t-1.5 56.5h1.5t3.5 -0.5t3 -1t1 -2.5q-1 -27 -0.5 -52.5t1.5 -51.5q3 -4 6.5 -6.5t7.5 -3t9 -0.5h8h8h6t6 0.5t8 0.5q2 2 3 4t1 4v4v5l1 3.5t1.5 7.5t1 7t0.5 4v26q0 13 -1 25.5t-1 25.5zM81 201q0 1 0.5 5t1 9t2 11t2.5 11t3 8t4 3t4 -0.5t2 -3.5q0 -5 -1.5 -10.5t-4 -10.5
t-4 -10.5t-1.5 -10.5q0 -10 3 -18t6.5 -15.5t6.5 -15t3 -15.5q0 -4 -2 -7.5l-4 -7t-3.5 -6.5t-1.5 -5q0 -3 3 -5.5t7.5 -5.5t8 -7t3.5 -9q0 -6 -2 -10.5t-3.5 -9l-3 -9t-1.5 -8.5q0 -3 2 -3.5t4 -1.5l4 -2t1 -3q-1 -3 -3 -3h-4q-4 0 -7 1.5t-5.5 3.5t-6 3.5t-7.5 1.5
q-1 0 -1.5 -0.5l-1.5 -1.5q1 -7 0.5 -14t-1.5 -14h-2q-3 0 -3.5 3l-1 6t0 5.5t0.5 3.5t-0.5 4.5t-0.5 7t-0.5 6.5t-0.5 5q-5 2 -10 5.5t-8.5 7.5t-5.5 9.5t-2 11.5q0 7 1.5 13t4 11.5t5.5 10.5t6 11v1v0q-6 8 -9.5 15t-5.5 15t-3 16t-1 17q0 3 0.5 6.5t4.5 3.5q3 0 4.5 -1.5
t1.5 -3.5v-5.5v-8.5v-8v-5q0 -3 1 -7.5t2.5 -9.5t4 -9t5.5 -4l1 0.5l1 0.5q1 0 3 0.5l2 0.5q3 0 3 -1v-2q0 -2 -0.5 -3.5t-1.5 -3t-1.5 -2.5t-0.5 -3v-0.5v-0.5l12 -13h2l0.5 1t2 2.5l3 3t2.5 1.5q1 2 1 4.5v4.5v6q0 1 -1 3.5l-2 5t-2 5.5t-2 3q-3 2 -5 7t-3.5 11t-2.5 12
t-1 10zM142 237l2.5 0.5t3.5 0.5h2t4 -0.5t4 -0.5h2h3q2 0 6 -0.5t8.5 -1t8.5 -1t5 -1.5q1 0 1.5 -0.5l0.5 -0.5v-0.5v-0.5q0 -3 -3.5 -2.5t-8 0.5t-8 -1t-3.5 -6q0 -4 2 -5t5 -1t6.5 -0.5t4.5 -2.5t3 -5l2 -3v-59q-2 0 -3.5 1t-1.5 3v8.5t-0.5 12t-0.5 12v8.5v12l-5 5h-10
q0 -1 -1.5 -4.5t-0.5 -5.5q0 -2 1.5 -2.5l3 -1t2.5 -2t1 -3.5q0 -4 -1 -6.5t-2.5 -5.5t-2.5 -6t-1 -6q0 -5 2 -8.5l4 -7t3.5 -6t1.5 -5.5v-1l-0.5 -0.5t-1.5 -0.5v0q-3 0 -4.5 2t-2.5 5t-2 5.5t-3 2.5q-3 0 -4.5 -2t-3 -4.5t-3 -4.5t-4.5 -2v4l9 18v1v2q0 4 -1.5 7.5t-3.5 7
t-3.5 7t-1.5 7.5q0 2 2 3.5l4 3t3.5 3t1.5 3.5q0 3 -0.5 4t-3.5 1q-2 0 -4 -0.5t-4 -1.5t-3.5 -2.5t-1.5 -3.5v-49l-1 -0.5t-2 -0.5v0h-1v0v0q0 1 -0.5 4t-0.5 6.5t-0.5 6.5t-0.5 4v0v10q0 6 0.5 11t2 10t3.5 9q2 2 5 2.5t5 1t4 1.5t2 5q0 5 -3.5 6.5t-7 1.5t-6.5 0.5
t-3 3.5v2zM165 177q3 0 4.5 3.5t1.5 5.5q0 3 -2 4t-4 1.5t-4 0.5h-3v-4.5t1 -4.5l2 -4t4 -2zM59 89v-4v-4l13 -13h1v0q1 1 2.5 2t1.5 2v1.5t0.5 3.5t0.5 4v2q1 2 2.5 6t3 8.5t3 8.5t1.5 7l-2 2q-1 1 -2.5 2t-3.5 2.5l-4 3t-3 2.5h-1q-4 0 -6.5 -4.5t-4 -10.5t-2 -12t-0.5 -9
zM137 102q0 5 2 8t4.5 4t6.5 1h8t12 0.5t13.5 -1t11 -5t4.5 -11.5q0 -4 -3 -6.5t-7 -3.5t-8.5 -1.5t-7.5 -0.5q-1 -1 -2 -2.5t-1 -3.5v0q0 -1 0.5 -1.5l0.5 -0.5q2 0 6 -0.5t9 -1t9 -1t6 -0.5q4 0 5 -0.5t1 -3.5q0 -2 -1 -4t-4 -2l-1.5 1l-1.5 1h-2.5t-3 0.5t-3 0.5h-2.5
q-1 1 -3.5 0.5t-5.5 -0.5h-5h-4q0 -1 -0.5 -4.5t0.5 -4.5q0 -2 4.5 -2.5t9.5 -2t9.5 -6.5t4.5 -16q0 -1 -0.5 -4t-0.5 -4t-1 -2t-2 -1l-1 0.5t-2 0.5l-0.5 0.5t-0.5 1.5q0 5 -0.5 9.5t-2 7.5t-4.5 5t-9 2h-1.5h-1.5l-1 -5v-26q0 -3 -1.5 -4.5t-4.5 -1.5t-3.5 3.5t-0.5 5.5
q0 6 1 12.5t1 13.5q0 1 -1 3t-3 2q-5 0 -8 -2t-5 -5.5t-2.5 -8t-0.5 -8.5q-1 -2 -2 -2h-3q-2 0 -3 0.5t-1 3.5q0 4 1 8t2.5 7.5t4 6.5t5.5 5q3 1 5 1q3 0 5.5 0.5t4 2t1.5 4.5v1q0 1 -0.5 3t-1.5 2q-16 -1 -31 3l-0.5 1l-0.5 1q-1 0 -1 1v0h1q0 1 0.5 1.5l0.5 0.5h30
q1 0 2 3t1 4q0 2 -4 2.5t-8.5 2t-8.5 4t-4 8.5zM145 101q0 -4 3.5 -5.5t7.5 -2t8 -0.5h7h4.5t7 0.5t6 2t2.5 4.5q0 4 -4 5.5t-9.5 2t-11.5 0.5h-7h-9q-2 1 -3 0t-1.5 -2.5t-0.5 -3v-1.5zM84 64q0 -2 1.5 -4.5t4 -4.5t5 -3t4.5 -1q3 0 4.5 3.5t3 8.5t2.5 10t1 7q0 3 -1 6.5
t-3 6.5t-4.5 5.5t-6.5 2.5q-3 0 -5 -5t-3.5 -11.5t-2 -12.5t-0.5 -8z" />
</svg>
