<?xml version="1.0" standalone="no"?>
<!DOCTYPE svg PUBLIC "-//W3C//DTD SVG 1.1//EN" "http://www.w3.org/Graphics/SVG/1.1/DTD/svg11.dtd" >
<svg xmlns="http://www.w3.org/2000/svg" xmlns:xlink="http://www.w3.org/1999/xlink" version="1.1" viewBox="-10 0 266 256">
   <path fill="currentColor"
d="M87 249q1 1 2 1.5t2 0.5q3 0 3.5 -2t0.5 -5v-2.5v-2.5l-0.5 -1t-1 -2.5t-1 -2.5l-0.5 -1q-2 -10 -4 -22.5t-2 -22.5t1.5 -19.5t4.5 -19.5q2 -1 3.5 -4t2.5 -6t1.5 -6t0.5 -6q0 -4 -1.5 -8l-3 -8t-2.5 -8t-1 -9v-4l6 -4t5 -4.5t3 -6t1 -8.5t-1.5 -9t-1.5 -8q0 -2 1 -3
t2.5 -1.5t3 -1.5t1.5 -2q0 -3 -1.5 -3h-3.5q-3 0 -6 1t-6.5 2t-6.5 2t-7 1h-2q-1 0 -1 -1v-27q0 -1 -2.5 -2.5l-2.5 -1.5h-1v0q-1 1 -2 1.5l-1 0.5v36l-3.5 1.5t-7.5 4t-7.5 7.5t-3.5 13q0 9 2 15t9 13v3q0 4 -1.5 8.5t-4 9t-4 8.5t-1.5 9v37l1 0.5t2 1.5h1q2 0 3 -4.5
t1.5 -11.5t0.5 -15t1 -14.5t2.5 -11t5.5 -4.5h1l2 0.5l2 0.5h1q2 0 2 -1v-3t-1 -4.5t-1 -4.5q0 -3 3 -6t6 -3t5.5 3t4 7t2.5 8t1 7q0 4 -1 7t-2.5 6t-3 6.5t-2.5 6.5q-3 11 -4.5 21t-1.5 22q0 14 2.5 28t6.5 28zM173 249q0 2 2 2h2.5h3.5q0 -12 -1 -24t-1 -24v-16
q1 -2 2.5 -4.5t3.5 -2.5q3 0 5.5 1.5t5 3.5t5.5 3.5t6 1.5q2 0 3.5 -0.5t1.5 -3.5q0 -2 -3.5 -4t-9 -4.5t-11.5 -4.5t-11.5 -4.5t-9 -4.5t-3.5 -4v-12l1 -0.5t2 -0.5q3 -1 7.5 -1.5l9 -1t8 -1t3.5 -2.5v0v-1l-0.5 -1t-1.5 -2h-4q-8 0 -16 2t-17 2q-10 0 -17 -1t-11 -4
t-5.5 -9.5t-1.5 -17.5v-2v-3v-3v-2q3 -9 8.5 -13t13.5 -5.5t16.5 -1.5t16 -2t14 -6t9.5 -14q1 -9 1.5 -17t0.5 -16q0 -5 -1.5 -7.5t-6.5 -2.5q0 7 1 13.5t1 13.5q0 13 -4.5 19.5t-15.5 9.5q-10 3 -21 4t-20 3.5t-15 9.5t-6 21v0q0 2 0.5 5.5t1 7.5t1 7.5t0.5 5.5
q2 6 6.5 8.5t10 3.5t11.5 1h9q3 2 3 4.5v5.5v3v3q-3 3 -11.5 6t-16.5 6t-14.5 6.5t-6.5 9.5q5 0 9 -2.5t8.5 -5t9 -4.5t8.5 -2q2 0 3 0.5t1 3.5q-1 8 -1.5 16t-1 16.5t-1.5 16.5t-3 16q0 2 1 2.5t2 0.5q3 0 5 -2.5t2.5 -6t0.5 -7v-5.5q0 -3 0.5 -11t1 -17t1 -17t0.5 -11
q2 -2 4.5 -3t4.5 -1q5 0 7 2.5t2.5 6t0.5 7.5v8v5v10v9v6v1.5t0.5 2.5t0.5 2.5v1.5v3.5v5.5v6.5v3.5zM142 123q7 1 12 1.5t11 0.5t11.5 -1.5t9.5 -4t6.5 -6.5t2.5 -11t-4 -10t-11 -3h-13q-8 0 -14.5 2t-10.5 6t-4 13q0 4 0.5 7t3.5 6zM159 105v-4v-4l3 -1.5t3 -0.5
q1 0 3 0.5t2 3.5v17q0 1 -2.5 2.5t-3.5 1.5q-2 0 -3 -2t-1.5 -5t-0.5 -5v-3zM144 115v-3v-3q0 -5 1.5 -8.5t7.5 -3.5v22q-2 0 -5 -1t-4 -3zM176 103v-3v-3q1 0 2 -0.5l1 -0.5h1q2 0 4 0.5t3 2.5v2.5v3.5v2.5t-0.5 3.5t-1.5 3t-2 1q-3 0 -4 -1.5t-2 -3.5t-1 -4v-3zM55 81
q0 -3 0.5 -7t2 -7.5t4.5 -6.5t7 -3h1.5t1.5 2q1 6 3.5 13t2.5 14q0 5 -2.5 9t-9.5 4q-2 0 -4 -2.5t-3.5 -5.5t-2.5 -6t-1 -4zM79 61q0 -6 4.5 -10t9.5 -4q2 0 3.5 3t2 7t1 7.5t0.5 4.5q0 6 -4 10t-10 4q-2 0 -3.5 -3t-2 -7t-1 -7.5t-0.5 -4.5zM122 38q0 6 1 9.5t3.5 6t6 4.5
t8.5 4h1h2q1 0 2.5 -0.5l1.5 -0.5q7 -1 13 -1.5t10 -2.5t7 -6t3 -12q0 -3 -0.5 -6t-2 -6t-3.5 -4.5t-6 -1.5h-12t-15.5 1t-13.5 5t-6 11zM130 43q0 -3 1 -6.5t5 -3.5q1 0 2 0.5t1 1.5t0.5 2.5t0.5 3.5t0.5 4t0.5 3v2q0 4 -4 4t-5.5 -3.5t-1.5 -7.5zM150 28q2 0 4 1t2 4v18
l-0.5 0.5l-0.5 0.5q-1 1 -2.5 1.5t-2.5 0.5l-1.5 -0.5t-1.5 -1.5l-0.5 -0.5l-0.5 -0.5v-19q0 -3 1 -3.5t3 -0.5zM166 28q2 0 4 1.5t3 3.5t1.5 5t0.5 4q0 2 -2 4.5t-3 4.5h-8v-21q0 -1 2 -1.5z" />
</svg>
