<?xml version="1.0" standalone="no"?>
<!DOCTYPE svg PUBLIC "-//W3C//DTD SVG 1.1//EN" "http://www.w3.org/Graphics/SVG/1.1/DTD/svg11.dtd" >
<svg xmlns="http://www.w3.org/2000/svg" xmlns:xlink="http://www.w3.org/1999/xlink" version="1.1" viewBox="-10 0 266 256">
   <path fill="currentColor"
d="M87 249q0 2 1.5 2h2.5t2.5 -0.5t2.5 -2.5v-4v-3q0 -11 -2.5 -20.5t-2.5 -19.5q0 -21 3 -39t12 -37q1 0 1 -3v-3q0 -4 -1.5 -7.5t-3 -6.5t-2.5 -6t-1 -5q0 -4 2 -6t5 -3.5t6 -3.5t4 -5v-4v-4q0 -4 -1 -6.5t-1.5 -5t-1.5 -4.5t-1 -5q0 -1 1 -2t1.5 -2t1.5 -2.5t1 -2.5
q0 -3 -3 -3q-6 0 -11.5 1.5t-11.5 1.5h-3.5t-1.5 -3v-1v-1q0 -1 0.5 -3.5t0.5 -5.5t0.5 -5.5t0.5 -3.5q-1 -2 -2 -3.5t-3 -1.5t-3 1.5t-1.5 3t-1 3.5t-0.5 3v4v7v6v5q0 1 -4.5 2t-9 3t-8.5 6.5t-4 13.5q0 8 2.5 14t5 10.5t5 8.5t2.5 9q0 7 -3 12t-6 11q-4 9 -6 22t-2 23
q0 3 1 5.5t4 2.5q4 0 6 -3t2 -6v-4q0 -1 -0.5 -2t-0.5 -3t-0.5 -3t-0.5 -2q0 -2 1.5 -9t3.5 -13.5t4 -12t4 -5.5t3 2t2 3.5t2.5 3t3.5 1.5t3 -1t1 -4q0 -2 -1.5 -4t-3.5 -3.5t-3 -3t-1 -2.5q0 -2 1 -4.5t3 -5t4 -4.5t4 -2h0.5h0.5q3 5 5 9t2 9q0 11 -4 20.5t-7 19.5
q-4 10 -5.5 21.5t-1.5 21.5q0 13 1.5 25t5.5 24zM111 216q0 5 5 7h2h4.5h4.5h3h3h4.5h3.5h2h4t6 -0.5t5.5 -0.5h3.5h10.5h11.5t11.5 -0.5t10.5 -3.5l0.5 -1t1.5 -2v0q0 -3 -2.5 -4.5t-5.5 -1.5q-5 0 -9.5 1t-9.5 1h-4h-3t-1.5 -1.5t-0.5 -2.5v-2q0 -1 0.5 -4.5t0.5 -7
t0.5 -7t0.5 -4.5t-0.5 -3.5t-1.5 -2.5v-3q0 -3 2 -3.5t5 -0.5h5.5t3.5 -3q5 -9 8 -18t3 -20q0 -1 -0.5 -3t-0.5 -3t-1 -1.5t-2 -0.5q-4 0 -6 4q0 8 -1.5 16t-4.5 16q-2 3 -6 4.5t-9 2.5t-10 1h-7h-3h-4.5t-4.5 -0.5t-3 -1.5l-2 -2l-2 -2t-1.5 -2.5l-0.5 -1.5l-4 -30
q0 -2 -2 -2h-2q-4 0 -4.5 2t-0.5 5q0 6 2 13.5t3 13.5q0 2 0.5 4.5l0.5 2.5q2 2 5.5 3t7.5 2t6.5 2t2.5 4v36l-0.5 0.5t-1.5 0.5l-1 0.5t-2 0.5h-26q-2 0 -2.5 1.5t-0.5 2.5zM153 207v-2v-6.5t0.5 -9.5t0.5 -10v-6q0 -2 2 -2h3h2.5h1.5q0 1 0.5 4t0.5 5.5t0.5 5.5t0.5 4
t-0.5 4t-0.5 6.5t-0.5 6.5t-0.5 4q-1 1 -2 1.5t-2 0.5q-3 0 -4.5 -1.5t-1.5 -4.5zM186 177q0 1 -1.5 2l-1.5 1v20q0 1 1.5 2l1.5 1q2 1 3 -1t2 -3v-3t0.5 -4t0.5 -3.5v-2.5l-0.5 -1.5t-1 -3.5t-2 -3t-2.5 -1zM123 198q0 3 2 3.5t4 0.5t3 -1.5t1.5 -3t0.5 -3.5v-4v-3t-0.5 -4
t-2 -3t-3.5 -1h-2t-1 1t-0.5 3t-0.5 5t-0.5 5t-0.5 3v2zM140 137v5t0.5 6t1.5 5.5t3 2.5q3 0 5 -3q0 -1 -0.5 -3t-0.5 -4q0 -3 0.5 -4.5t0.5 -2.5q0 -2 2 -4t4 -2h1q1 1 1.5 4t2 6.5t3 5.5t4.5 2q2 0 2.5 -1t0.5 -3q0 -4 -1 -6.5t-4 -6.5q3 -3 4.5 -5.5t2.5 -5.5l2 -6t3 -6
q2 -2 4 -2.5t4 -1.5t3.5 -3t1.5 -5v-21l-2 -3l-1 -0.5t-2.5 -0.5t-3 -0.5t-2.5 -0.5h-14h-10.5t-10.5 0.5t-9.5 2.5t-7.5 6v4.5v4.5v6.5t1.5 7.5t4 6.5t6.5 2.5h27q0 6 -4 8.5t-9 3.5t-9.5 3t-4.5 8zM137 102q0 -2 2 -3t4 -1t6 -0.5t8.5 -0.5t9 -0.5t5.5 -0.5h4q2 0 3 0.5
t1 2.5q0 4 -4 6t-9 2.5t-10 0.5h-7h-4t-4 -0.5t-3.5 -1.5t-1.5 -4zM59 65q1 -5 6 -8.5t9 -4.5q3 2 3.5 5.5l1 7t0.5 7t2 6.5l0.5 1.5t1.5 3t1.5 3l0.5 1.5v1v2q-2 3 -5.5 6t-6.5 5q-2 -2 -4.5 -7t-5 -10.5t-3.5 -10.5t-1 -8zM135 88q0 -3 4.5 -4.5t10.5 -2t11.5 -0.5h7.5h9
l2.5 1t2.5 2t-2 3l-3 3q-10 -1 -20 0t-20 1q-3 0 -3 -3zM85 62v-6t1 -5t2.5 -3t5.5 -1t6.5 1.5t4 4t2 6t0.5 7.5q0 2 -1 5t-2.5 5.5t-3.5 4.5t-6 2q-2 0 -3.5 -3t-3 -6.5t-2 -6.5t-0.5 -5zM135 49v16q0 2 1.5 2h2.5q3 0 3.5 -3t0 -7t0 -7t3.5 -3q4 0 6.5 1.5t6.5 1.5t7 -1
t7 -1l1 0.5t1 1.5v15q0 1 1 1.5l1 0.5q3 0 4.5 -2.5t2 -5.5t1.5 -5t3 -2t3.5 1t2.5 2h1q2 0 3.5 -1.5t1.5 -4.5t-2.5 -5t-5.5 -4t-5 -3.5t-2 -4.5v-3q0 -1 0.5 -3.5l0.5 -2.5q0 -3 -1.5 -4t-3.5 -1t-3 0.5t-1 2.5q0 1 -0.5 3t-0.5 4t-0.5 4t-0.5 3l-3 3t-4 3.5t-4.5 3
t-4.5 1.5l-2.5 -1.5l-5 -3t-4.5 -3t-2 -2.5l-3 -13l-0.5 -0.5l-0.5 -0.5q-3 0 -4.5 2.5t-2 5.5t-0.5 5.5v4.5q-1 1 -3 2l-4 2t-3.5 2.5t-1.5 3.5q0 3 3 3t5 -2t5 -2z" />
</svg>
