<?xml version="1.0" standalone="no"?>
<!DOCTYPE svg PUBLIC "-//W3C//DTD SVG 1.1//EN" "http://www.w3.org/Graphics/SVG/1.1/DTD/svg11.dtd" >
<svg xmlns="http://www.w3.org/2000/svg" xmlns:xlink="http://www.w3.org/1999/xlink" version="1.1" viewBox="-10 0 266 256">
   <path fill="currentColor"
d="M148 171q0 11 1.5 22t5 20.5t10.5 18t17 13.5q3 1 5 2t3.5 2t3 1.5t3.5 0.5q5 0 5 -5v-1q-3 -2 -10 -6.5t-14 -10t-12.5 -10t-5.5 -7.5l0.5 -0.5l1.5 -1.5l1.5 -1l3 -2t3 -2.5l1.5 -1.5q2 -4 2 -8.5t0.5 -9t2.5 -8t6 -3.5q2 0 3.5 1t2.5 4l3 25q0 1 1 2.5t2.5 3.5t3 3
l1.5 1q2 0 3.5 -1.5t1.5 -3.5q0 -4 -2 -7.5t-3 -6.5t-1.5 -8.5t-1.5 -10t-3.5 -8.5t-7.5 -4q-6 0 -9.5 2.5t-5 6.5t-2.5 8.5t-1.5 8t-1.5 6.5t-3 3h-3.5h-2.5v-32q0 -1 -1.5 -2l-3 -2t-3.5 -1.5t-3 -0.5q-8 0 -13.5 5.5t-9 13.5t-5.5 16.5t-2 14.5q0 1 0.5 2.5l0.5 1.5
q0 1 2 1.5l2 0.5q2 0 3 -1.5t2 -3.5l5 -30q0 -2 1 -4.5t3 -4.5t4.5 -4t3.5 -2q3 0 4 1.5t2 3.5zM76 191v1q1 11 2.5 22t3.5 21q0 3 2 5.5t5 2.5q2 0 3.5 -1.5t1.5 -4.5v-1l-1 -2.5t-1.5 -5t-1.5 -5l-1 -2.5q-1 -9 -2 -20t-1 -21q0 -13 3.5 -22t7.5 -17t7.5 -16t3.5 -17
q0 -4 -0.5 -6.5t-2 -5l-3 -5t-3.5 -5.5v-2q10 -4 15 -11.5t5 -18.5q0 -3 -1 -6t-1 -7v-4v-4q2 0 4 -1t2 -3q0 -3 -1 -3.5t-2 -0.5q-7 0 -12.5 2.5t-11.5 2.5h-4v-3v-6t-1 -5t-4 -2h-2t-2 2q1 8 0 12.5t-3.5 6.5t-5.5 2.5t-6 1.5t-5.5 3t-3.5 7q0 1 -0.5 4.5t-0.5 5.5
q0 6 1 10.5t2.5 8.5t3.5 7.5t4 9.5v2v1q-6 6 -9.5 13t-6 15t-4 16.5t-4.5 16.5q0 1 1 1h2h3.5t2.5 -1q0 -1 0.5 -3t1 -4.5t1 -4.5t0.5 -3q1 -2 2 -8t3 -12t4.5 -10.5t5.5 -4.5h1q0 1 2 3l2 2h1h1l2 -0.5t2 -1.5l0.5 -1.5t0.5 -2.5q0 -3 -2 -5t-2 -6v-0.5v-1.5q1 0 2 -0.5
t2.5 -1.5t3 -1.5t1.5 -1.5h1q3 0 5 2.5t3 6l2 7t1 5.5l-0.5 2t-0.5 3q-5 9 -9 18t-7.5 18t-5.5 19t-2 20zM181 138q3 0 5.5 2t4.5 4t4.5 4t5.5 2q0 -3 -1 -5.5t-2.5 -4.5t-3.5 -4t-5 -4v-1v0q0 -2 2 -4l4.5 -4.5t4.5 -5t2 -6.5v-0.5v-1.5l-8 -9v-1v-1q0 -2 1.5 -3t3 -1.5
t3.5 -2t2 -3.5v-1q-1 -1 -2.5 -2l-1.5 -1l-12 10h-0.5h-1.5t-2 -1t-2.5 -2l-3 -2t-3.5 -1q0 1 1 3t2 3.5l2 3t0 2.5q-2 5 -6 5q-2 0 -3.5 -2t-3 -4.5t-2 -5t-0.5 -3.5l-3 -1h-33q0 2 1 3t3 1.5t4 0.5h3q4 0 7 -1t6 -1q5 0 7 3t2 7q0 13 -2.5 19t-6.5 8t-8 2h-8t-6.5 1
t-2.5 6q0 4 1 7t5 3h1.5h1.5q1 0 4.5 -0.5t7 -0.5t7 -0.5t4.5 -0.5l1 -2l-0.5 -1.5t-1.5 -1.5h-19l-1 -1q1 -2 3 -2.5t3 -1.5q1 0 3 -0.5t4.5 -1t4.5 -1t3 -0.5q3 -2 5 -5t3 -6h2q2 0 5.5 2.5t3.5 4.5t-1.5 4t-3 3.5l-3 3t-2 1.5t-0.5 1v1q0 4 5 3q1 0 2 -1.5t2 -2.5
t1.5 -2.5l0.5 -1.5h1zM129 118q0 1 1.5 1.5l3 1t2.5 0.5h2q3 0 6 -0.5t5.5 -1.5t4.5 -3.5t2 -6.5q0 -2 -1.5 -4t-3.5 -4h-3t-4 -0.5t-4 -0.5h-3h-2q-1 0 -3.5 0.5t-2.5 2.5q0 1 0.5 2t1.5 1t3 0.5t4 0.5t4 0.5t3 0.5q3 0 3 3v1l-17 4l-0.5 0.5l-0.5 0.5l-0.5 0.5zM185 106
q3 0 5.5 2.5t3.5 5.5q-2 4 -4 5.5t-5 1.5h-1.5h-1.5q-2 -1 -5.5 -3l-3.5 -2v-2l2 -2t4 -3q3 -2 3.5 -2.5t2.5 -0.5zM73 84q-4 -7 -5.5 -12t-1.5 -13v-7q2 -2 5 -4t6 -2q2 0 4 4.5t3 11t2 12t1 6.5q0 4 -3 5t-5 1t-3.5 -0.5t-2.5 -1.5zM135 70q3 4 6 6t8 2q6 0 9.5 -5
t3.5 -11v-4v-4t-1 -4t-2 -3q-2 2 -3 3.5t-1.5 2.5t-2 2t-3.5 1q-3 0 -4.5 -1t-2.5 -2.5t-2 -2.5t-3 -1q-3 0 -3 3v1v1v3t0.5 4.5t0.5 5v3.5zM171 59v7.5t1.5 6t4 4t6.5 1.5q2 0 5 -0.5t5.5 -1.5t4.5 -3t2 -5v-23q-3 0 -4.5 1.5t-3 3.5t-3.5 3.5t-5 1.5q-2 0 -3.5 -1
t-2.5 -2.5l-2 -3t-3 -1.5v0l-2 2v10zM89 45q0 -5 4 -6t8 -1h5q4 2 4.5 7t0.5 9t-0.5 8t-2.5 7t-5 5t-8 2h-3q-1 -7 -2 -15t-1 -16zM177 65l0.5 -0.5l1.5 -1.5h2t3.5 -0.5t3 -0.5h1.5q1 0 2 0.5t2 0.5v1q0 3 -1.5 5.5t-4.5 2.5q-2 0 -6 -2t-4 -5zM142 63h11l0.5 0.5t0.5 1.5
q0 3 -2 4t-4 1q-6 0 -6 -7zM128 38q0 2 1 2.5t2 0.5q19 0 38.5 -0.5t38.5 -2.5q2 0 2.5 -1t0.5 -2v-2t-2 -1h-38v-19q0 -2 -1.5 -2h-2.5q-2 0 -3.5 0.5t-1.5 3.5t1 6t1 6q0 4 -3 5.5t-6.5 1.5t-8.5 -0.5t-9 -0.5t-6.5 1t-2.5 4z" />
</svg>
