<?xml version="1.0" standalone="no"?>
<!DOCTYPE svg PUBLIC "-//W3C//DTD SVG 1.1//EN" "http://www.w3.org/Graphics/SVG/1.1/DTD/svg11.dtd" >
<svg xmlns="http://www.w3.org/2000/svg" xmlns:xlink="http://www.w3.org/1999/xlink" version="1.1" viewBox="-10 0 266 256">
   <path fill="currentColor"
d="M168 206q1 0 2 0.5t1 1.5v35q0 3 2 5.5t5 2.5t4.5 -2t1.5 -4l-0.5 -1l-0.5 -1l-0.5 -2.5t-0.5 -3.5v-48l3 -14v0h1q2 0 3.5 3.5t4 7.5t6 7t11.5 3q0 -3 -1 -6t-2.5 -5t-3.5 -4.5t-4 -5.5q-1 -1 -2.5 -3.5t-3.5 -5.5t-4 -5.5t-2 -4.5v-2q0 -2 1.5 -5t4 -6t4.5 -6.5t2 -6.5
q0 -5 -5 -5h-1t-2 1l-0.5 1.5t-1.5 2.5t-1.5 2.5l-0.5 1.5q0 1 -0.5 1.5t-1.5 0.5t-1 -2q0 -1 -0.5 -4t-1.5 -4v-2v-4v-4v-3v-5v-3l3 -4h17l0.5 -1.5t1.5 -2.5v0v-1q-1 0 -1.5 -0.5l-0.5 -0.5q-4 -1 -9 -1t-9 -3l-1 -0.5l-1 -0.5v-12q7 0 11 -1t6.5 -3.5t3.5 -7t1 -11.5
q0 -3 -4 -3t-5 2.5t-1 5.5t-1 5.5t-5 2.5q-2 0 -3 -1t-1 -3q0 -5 1 -10t2.5 -9.5l3 -9t1.5 -9.5q0 -1 -0.5 -3l-0.5 -2q0 -2 -1.5 -2h-2.5q-3 0 -5.5 5.5t-3.5 14t-2 18t-1.5 18t-1 14.5t-1.5 6t-4.5 -0.5t-4.5 -0.5q0 -8 1.5 -16.5t1.5 -16.5v-8q0 -3 -2 -4t-5 -1.5
t-6 -0.5h-4h-3h-3q-1 1 -1.5 2t-0.5 2q0 4 1 7.5t1 8.5v7v6t-0.5 6.5t-0.5 8.5q-1 1 -2 1h-3q-2 0 -3.5 -0.5t-1.5 -2.5q0 -3 1.5 -4.5t1.5 -4.5v-31q0 -2 -1 -3t-2.5 -1.5t-3.5 -1t-3 -0.5h-3t-4 -0.5t-4 -0.5h-3q-1 -3 -2.5 -4t-4.5 -1q-5 0 -9 2.5t-9 2.5h-3t-2 -2v-3v-3
q0 -6 1 -11t1 -10v-4q-2 -1 -3 -1h-3t-3.5 1t-1.5 3v37q0 1 -3 2.5t-6.5 4.5t-6 8t-2.5 13v4.5v4.5l4 8t2 8q0 3 -1.5 6.5t-3 6t-3.5 5.5t-3 6q-4 10 -4 21.5v21.5v3v4v3v3q-1 2 0.5 2.5t2.5 0.5q5 0 5.5 -3.5t0.5 -6.5v-5v-8v-8v-5q0 -2 1 -7t2.5 -10.5t3 -10.5t2.5 -7h1h1
q2 0 3 0.5t1.5 1.5t1.5 1.5t2 0.5q3 0 3.5 -1.5t0.5 -3.5q0 -3 -2.5 -5.5t-2.5 -5.5q0 -1 2 -3.5t4 -2.5t4 2.5t3 5t1.5 5.5t0.5 4q0 4 -1.5 9t-4 10t-5 9.5t-4.5 7.5q-3 9 -4 17.5t-1 16.5v3v4t0.5 4t0.5 3q2 3 2 10.5t0.5 14.5t2 12.5t7.5 5.5q3 0 3.5 -2.5t0.5 -5.5v-3
q0 -1 -0.5 -3.5t-1.5 -5.5t-1.5 -5.5t-0.5 -3.5q-2 -8 -3 -16t-1 -17q0 -10 2 -19t6 -19q2 -4 4 -7t3.5 -6t2.5 -6.5t1 -8.5q0 -3 -1.5 -6l-3 -6t-2.5 -6t-1 -7v-1q6 -5 10.5 -10t4.5 -13q0 -3 -0.5 -6.5t-0.5 -6.5t0.5 -4.5t3.5 -1.5t4.5 2.5t2 5t0 5.5t-0.5 5v14.5
t-1 15.5h-3t-4 0.5t-3.5 1.5t-1.5 2q1 2 1.5 2.5t2.5 0.5t4 -0.5t4 -0.5q3 0 5 2t2 5v3q0 3 -0.5 5.5t-1.5 4.5t-3 2q-4 0 -5.5 -4t-1.5 -8h-1v0q-3 0 -3 2v4q0 3 0.5 6t2.5 6q5 0 8.5 1t3.5 7v2q0 1 -0.5 2.5t-0.5 3.5t-0.5 3.5t-0.5 2.5t-1.5 1.5l-1.5 0.5q-4 0 -4.5 -2
l-1 -4l-1 -4t-3.5 -2h-2t-1 1v5v3v4t0.5 3.5t2.5 1.5h12q1 0 1 2v2v3v3t-0.5 5t-0.5 5v3h-8q0 -1 -0.5 -3t-1.5 -4t-2.5 -3.5t-2.5 -1.5q-3 0 -3.5 1.5t-0.5 3.5q0 5 1.5 7.5t3.5 4t4.5 2.5t4.5 1.5t3.5 2t1.5 4.5v1v2h-3.5t-5.5 0.5t-5.5 0.5h-4.5t-2 1v2v2t2 1h54l2.5 1
t3.5 1l2 -1t4 -1t3.5 -0.5t2.5 -0.5v-1h1zM124 195v-11v-11q0 -3 0.5 -11.5t0.5 -19t0.5 -19t0.5 -11.5q0 -2 0.5 -6t4.5 -4q2 -1 3 0t2 2.5t1.5 3t0.5 3.5v22v22q0 2 -0.5 8.5t-0.5 13t-0.5 12.5t-0.5 9q0 2 -2 1.5t-3 -0.5q-3 0 -4 -0.5t-3 -3.5zM145 194l0.5 -1.5
t0.5 -2.5q1 0 3.5 -0.5t5 -1.5t4.5 -2t2 -3v-17q-1 0 -2.5 -0.5t-2 -0.5t-1.5 0.5t-1 1.5v12l-1.5 0.5t-2.5 0.5t-2.5 -1t-1.5 -2t-0.5 -4l-0.5 -3v-5.5t2 -5.5q9 1 13 -3.5t4 -12.5q0 -2 -1 -3.5t-3 -1.5q-3 0 -3.5 2t-1 4.5t-1.5 4.5t-4 2t-3 -1.5v-3.5q0 -9 2.5 -12
t5 -4.5t5 -2.5t2.5 -5v-1.5v-3.5v-3.5v-2.5q-6 0 -7 2t-1.5 4.5t-1.5 5t-5 2.5q0 -2 -0.5 -5.5t0 -7t1.5 -6.5t4 -4q4 -1 8 -1.5t8 -0.5q2 0 3.5 0.5t1.5 2.5t0.5 6.5t1 10t1 10t0.5 6.5v1.5v3.5v4v4v11t-0.5 16t-1 14.5t-1.5 7.5q-1 0 -3.5 0.5t-5 0.5h-5.5h-3h-9
q-2 0 -2 -2v-3zM118 93v-3q1 -2 1 -7t0.5 -10l1 -10t0.5 -7q1 -1 1.5 -1h1.5q2 0 3 1t2 2.5t1.5 3t0.5 2.5q0 8 -2 16t-2 16h-6t-3 -3zM66 91q0 -1 -0.5 -4t-0.5 -4v-4t0.5 -5.5t1.5 -5t3 -2.5t3 0.5t1 2.5l3 9t1 8q0 3 -2.5 6t-6.5 3q-1 0 -2.5 -0.5t-0.5 -3.5zM150 92v-2
q0 -2 0.5 -6.5t0.5 -9.5t0.5 -10t0.5 -7q0 -1 3 -1q1 0 2 1.5t1 4v4.5v2v7t-0.5 6t-0.5 6t-1 8h-2q-2 0 -3 -0.5t-1 -2.5zM82 66v-1q0 -1 0.5 -5t1.5 -5h3q5 0 7 3.5t2 8.5q0 4 -3 8.5t-8 5.5l-0.5 -1t-0.5 -2l-0.5 -1.5t-0.5 -3.5t-0.5 -3.5t-0.5 -3.5v0v0z" />
</svg>
