<?xml version="1.0" standalone="no"?>
<!DOCTYPE svg PUBLIC "-//W3C//DTD SVG 1.1//EN" "http://www.w3.org/Graphics/SVG/1.1/DTD/svg11.dtd" >
<svg xmlns="http://www.w3.org/2000/svg" xmlns:xlink="http://www.w3.org/1999/xlink" version="1.1" viewBox="-10 0 266 256">
   <path fill="currentColor"
d="M130 215v6.5t2 5.5q1 2 5 6.5t8.5 8t9 6.5t8.5 3q1 0 2.5 -0.5t1.5 -2.5q0 -5 -4.5 -8t-10.5 -6t-10.5 -7t-4.5 -12q0 -6 2.5 -10t5.5 -7.5t5.5 -7t2.5 -7.5v-2q-4 -2 -8 -6t-4 -9q0 -3 1.5 -4.5t3.5 -3t4 -3.5t2 -6q0 -3 -1 -5.5l-2 -5t-1.5 -5t-0.5 -6.5l-0.5 -0.5
l-0.5 -0.5q-4 0 -8 2t-8 2q-2 0 -2.5 -1t-0.5 -3q0 -5 3 -6t6.5 -2.5t6.5 -4.5t3 -11v-4.5t-2 -4.5l-3 1.5t-1.5 1t-1.5 0.5h-5v-7l1 -0.5t2 -1.5q4 -1 6.5 -2.5t4 -4t2.5 -5.5t1 -8q0 -1 -1 -2.5t-3 -1.5v0q-2 1 -2 2v10q0 1 -1.5 2t-3.5 1h-4h-3v-9q0 -3 1 -5t3.5 -3.5
t8.5 -3.5v-14l1.5 -1t1.5 -2q1 0 3.5 -1t2.5 -2v0v-1v0l-0.5 -0.5l-0.5 -0.5h-6h-7t-13.5 0.5t-13.5 1.5t-6 3t0.5 2t1.5 1l3 3t1.5 2.5t1 2.5t1.5 4q2 3 3.5 3.5t2.5 1.5t2 3t2 10v0.5v1.5t-0.5 1.5t-1.5 2.5h-1.5h-2.5q-5 0 -6 -2.5t-1.5 -5t-0.5 -5t-2 -2.5q-1 0 -1 0.5
v0.5l-0.5 0.5t-1.5 0.5v7q0 9 4 12t13 4v2v3.5t-1 2.5h-10q0 -2 -1 -4t-3 -2q-3 0 -3 5q0 10 2.5 14t5.5 6.5t5.5 4.5t2.5 8q0 4 -4 6t-8 3.5t-7.5 4.5t-3.5 9t1.5 12t1.5 12q0 3 -1.5 5.5t-3.5 5t-4 4.5t-3 4q-1 3 -3 7t-3.5 8t-2.5 8t-1 7q0 2 0.5 5t3.5 3t4.5 -3.5
t3 -8.5t3 -11t3 -11t3.5 -8.5t5 -3.5q2 0 3 1.5t2 3.5t2.5 3.5t3.5 1.5t2.5 -1t0.5 -3t-0.5 -3t-2 -2.5t-2.5 -3t-1 -3.5q0 -5 4.5 -8t9.5 -3h1q2 1 4 2.5t4 3.5t3.5 4t2.5 2v1.5v1.5q0 3 -2 6.5t-4.5 7t-4.5 7.5t-2 9zM103 156q0 -6 4.5 -10.5t11.5 -4.5q2 0 3.5 3t2 6
t1 6.5t0.5 4.5t-2 3t-5 3t-5.5 2t-3.5 1h-3q0 -1 -0.5 -3t-1.5 -4t-1.5 -3.5t-0.5 -2.5v-0.5v-0.5zM129 140q0 -2 1.5 -3t4.5 -1q5 0 6.5 3.5t1.5 8.5v1.5v1.5q0 1 -1 2t-2.5 2t-2.5 2l-1 1h-1h-1q-2 -1 -3 -3t-1.5 -4.5t-0.5 -5v-4.5v-1zM172 114v23l1 1t1 2h1h1
q0 -1 1.5 -2l1.5 -1v-25q4 0 6 2.5t3 5.5t1 7t-1 7l2 2l1 1h1h1l1 -1l1.5 -1.5t0.5 -2.5v-3q0 -9 -3.5 -15.5t-11.5 -10.5q3 -3 5 -4.5t3 -3.5t1.5 -4.5t0.5 -6.5q0 -6 -2.5 -9t-8.5 -6v-3q0 -3 2 -4.5l4 -3t4.5 -4.5t2.5 -9q0 -5 -2.5 -7t-5 -3.5t-4.5 -5.5t-1 -13
l-0.5 -0.5t-1.5 -0.5v0h-1l-0.5 0.5l-0.5 0.5q0 1 -0.5 3t-0.5 4t-0.5 3.5t-0.5 2.5t-0.5 2.5l-0.5 1.5q-3 3 -5 4l-4 2t-3 3.5t-1 7.5q0 3 1.5 4.5t4 2.5t4 3t1.5 4q0 4 -2 6.5t-4 4.5l-4.5 4.5t-2.5 6.5q0 5 2.5 7.5t5 3.5l5 2t2.5 4t-2.5 4t-5.5 3t-5.5 6.5t-2.5 13.5
v2.5t0.5 3t1.5 2.5t2 0q1 0 2 -1l1 -1v-6q0 -4 0.5 -7.5t2 -6t5.5 -2.5zM78 107q0 8 0.5 15.5t0.5 15.5q3 0 5 -1.5t2 -5.5v-24q0 -1 1 -1h2q3 0 4 4t1 8.5t0.5 8.5t2.5 4t2.5 -1t0.5 -3v-12.5t-4 -11.5q-1 -2 -3 -2.5t-3.5 -1t-2.5 -1t-1 -2.5t1.5 -3.5t3.5 -3t4.5 -3
t3.5 -2.5v-7q0 -5 -2 -8t-4 -4.5t-4 -2t-2 -3.5q0 -2 2 -2.5t4 -2t4 -4t2 -7.5q0 -4 -0.5 -6.5t-2 -4t-3.5 -3t-5 -3.5v-13q0 -1 -1.5 -1h-2.5t-1.5 0.5t-0.5 2.5v11q-3 1 -5.5 3t-5 4.5t-4 5t-1.5 5.5q0 4 2 6.5t5 3.5t5 2.5t2 2.5q0 4 -2 5.5t-5 3t-5 3.5t-2 5q0 5 2 8
t4 4.5l4 3t2 3.5t-1.5 3l-3 2t-3.5 1.5t-4 1.5q-2 2 -3.5 5t-2 6.5t-0.5 7.5v6v6l0.5 1t1.5 1q4 0 4.5 -4.5t0.5 -10t1.5 -10t6.5 -4.5h1.5h1.5zM117 107q0 -2 1 -2.5t3 -0.5h2q1 0 3 0.5t4.5 0.5t5 0.5l2.5 0.5h1q0 2 -1.5 4.5t-3.5 2.5h-14l-0.5 -0.5t-0.5 -1.5
q-1 0 -1.5 -1.5t-0.5 -2.5zM165 87q0 -5 3.5 -7.5t7.5 -2.5h2t2.5 0.5t2.5 1t1 1.5v10q0 3 -3.5 4t-5.5 1q-3 0 -6.5 -2.5t-3.5 -5.5zM73 78q0 -4 4.5 -6t7.5 -2h4q3 0 4 2v1.5v2.5q0 4 -2.5 7t-7.5 3q-3 0 -6.5 -2t-3.5 -6zM122 46l0.5 -1t0.5 -2l0.5 -0.5l0.5 -0.5l12 -2
q1 0 1.5 1t1 2.5t0.5 2.5v1v3q0 1 -1 2l-4 2t-5 1q-7 0 -7 -9zM167 49q0 -6 2.5 -8t8.5 -2q4 0 6 1.5t2 5.5t-2 6.5t-6 2.5t-7.5 -0.5t-3.5 -5.5zM74 43q0 -5 3 -6.5t7 -1.5t6.5 1.5t2.5 6.5q0 3 -2.5 6t-5.5 3q-4 0 -7.5 -2.5t-3.5 -6.5zM110 23v0l1.5 1.5t1.5 0.5h4h4h6
t9.5 -0.5t8.5 -1.5t4 -3t-2 -2h-4h-6.5t-11.5 0.5t-10.5 1.5t-4.5 3z" />
</svg>
