<?xml version="1.0" standalone="no"?>
<!DOCTYPE svg PUBLIC "-//W3C//DTD SVG 1.1//EN" "http://www.w3.org/Graphics/SVG/1.1/DTD/svg11.dtd" >
<svg xmlns="http://www.w3.org/2000/svg" xmlns:xlink="http://www.w3.org/1999/xlink" version="1.1" viewBox="-10 0 266 256">
   <path fill="currentColor"
d="M63 246q0 2 1.5 3t3.5 1q4 0 6 -2t3.5 -5.5t2 -7t1.5 -6.5q3 -10 6 -19.5t5 -19t3 -20t0 -21.5l4 -3h21q1 0 3 -2l3 -3q7 -25 7 -50q0 -3 -1 -5.5t-5 -2.5q-2 0 -3.5 2.5t-2.5 4.5v4v6v6v4v8.5t-1 9t-3.5 7.5t-7.5 3h-3.5t-4.5 -1t-3 -2.5t-1 -3.5q0 -4 1 -8t1 -9
q0 -11 -2 -18t-5.5 -12t-9 -9.5t-13.5 -10.5q-1 -3 -1 -5v-5q0 -4 1 -8.5t4 -8t6.5 -5.5t8.5 -2q4 0 8 1t7.5 3t5.5 5.5t2 8.5t-2 8t-4.5 6t-4.5 5.5t-2 6.5q0 1 0.5 2t2.5 1q4 0 8.5 -3t7.5 -7t5.5 -9t2.5 -8q0 -7 -3 -12.5t-8 -9.5t-11 -6t-13 -2t-13 2.5t-11 7t-8 10
t-3 13.5q0 7 2.5 12t6.5 8.5t8.5 6.5t8.5 6.5t6.5 7.5t2.5 11v12.5t-1 13.5l-1 2.5t-2 2.5h-13q-2 0 -3.5 -3t-1.5 -4q0 -7 1.5 -14.5t1.5 -15.5q0 -2 -1 -5t-5 -3v0h-1l-1 1.5t-2 2.5q0 5 -0.5 9t-1 7.5t-0.5 7.5v9v3q0 1 0.5 3.5t0.5 3.5v3q-1 2 0.5 2.5t3 1.5t3 1h2.5h2
l1.5 -0.5t3.5 -0.5t4 -0.5l2 -0.5q1 0 2 0.5t2 1.5v4v4q0 23 -6 47t-17 44v1v0zM178 236q1 3 4 6.5t4 4.5h1h1q8 0 8 -7q0 -2 -1.5 -5.5t-3.5 -6.5l-4 -6t-3 -6q-4 -11 -7.5 -20.5t-6 -19t-4 -19.5t-1.5 -23q0 -10 5.5 -18t11.5 -15.5t11.5 -15.5t5.5 -18q0 -6 -1.5 -10
t-4.5 -7t-7 -4.5t-9.5 -2.5t-10 -6t-7.5 -10.5t-5.5 -10t-3.5 -4.5q-4 0 -4.5 3.5t-0.5 5.5q0 9 3.5 14t8 7.5t10 4.5t10.5 4.5t8 6t3 10.5q0 5 -2.5 9.5t-6 8.5l-7 8t-5.5 8q-12 20 -12 43q0 12 2 23.5t5.5 22.5t7.5 22t8 23z" />
</svg>
