<?xml version="1.0" standalone="no"?>
<!DOCTYPE svg PUBLIC "-//W3C//DTD SVG 1.1//EN" "http://www.w3.org/Graphics/SVG/1.1/DTD/svg11.dtd" >
<svg xmlns="http://www.w3.org/2000/svg" xmlns:xlink="http://www.w3.org/1999/xlink" version="1.1" viewBox="-10 0 266 256">
   <path fill="currentColor"
d="M118 239q0 2 1.5 5.5t4.5 3.5q2 0 4.5 -2t2.5 -4v-66l3 -6q3 0 8 -0.5t10 -3t8.5 -5.5t3.5 -8v-34q0 -2 -1.5 -3.5t-3.5 -1.5t-3 0.5t-1 2.5v33q0 3 -2 5t-4.5 4t-5.5 2.5t-5 0.5t-4 -1.5t-3 -2.5q1 -14 -0.5 -27t-1.5 -27q-2 -4 -6 -5l-8 -2t-7 -2.5t-3 -6.5
q0 -6 2.5 -10t6.5 -5.5t8.5 -2t10.5 -0.5q17 0 17 18q0 4 -2.5 6t-5 3.5t-5.5 3t-5 3.5q1 2 3 2h3q4 0 7.5 -2t6.5 -5t5 -6.5t2 -7.5q0 -8 -5.5 -14t-11.5 -10h-5.5h-4.5q-7 0 -13.5 1t-11.5 4t-8 8t-3 13q0 4 2 7t4.5 5.5t6.5 4t7 2.5l2 3l0.5 5.5t1.5 12.5t1.5 15t1.5 12
v2q0 4 -2 5.5t-5 1.5q-4 0 -7.5 -1.5t-6.5 -5.5q0 -1 -0.5 -3l-1 -4l-1 -4t-0.5 -3v-5q0 -5 -0.5 -9.5t-1.5 -7.5t-3 -3t-3 1t-1 3v4v3v7.5t0.5 7t1 7.5t1.5 9t4 7.5t6.5 3.5t8 1.5t8.5 0.5l1 1v2q0 1 0.5 2.5t0.5 3.5v3q0 14 -2 27.5t-2 27.5zM61 241q1 2 2.5 3.5l2.5 2.5
l5 -5v-7v-11v-11v-7v-3.5t0.5 -5t1 -5.5t1.5 -5q0 -1 -0.5 -6t-0.5 -10.5t-0.5 -10.5t-0.5 -7v-2v-3v-5v-3v-14.5t0.5 -13t1 -14t0.5 -15.5q1 -11 3 -18t7 -10.5t12.5 -5.5t18.5 -3h3h7.5h8.5h6h5h7.5h7.5h5q3 0 6 1t5.5 3.5t4 5t2.5 5.5l4 54v126q0 2 1 4t4 2q2 0 3 -1.5
t2 -3.5v-4t0.5 -6.5t0.5 -6.5v-5v-1v-2q-1 -32 -2 -63t-2 -65q-1 -4 -0.5 -9.5t0 -11t-1.5 -10.5t-3 -8l-2 -2l-2 -2l-2 -2l-2 -2q-3 -2 -7 -3t-8.5 -1.5t-8.5 -0.5h-6h-4h-4t-4.5 -0.5t-3.5 -2.5v-3v-5v-4.5v-2.5q0 -3 -1.5 -4t-3.5 -1q-5 0 -5.5 3t-0.5 7v8t-3 7
q-18 0 -29.5 1t-18 6t-9 15t-3.5 28v13v20v23v24v19.5v13.5v2t-0.5 4t-0.5 3.5v2.5v1v0v5.5t0.5 7.5t0.5 7.5v5.5z" />
</svg>
