<?xml version="1.0" standalone="no"?>
<!DOCTYPE svg PUBLIC "-//W3C//DTD SVG 1.1//EN" "http://www.w3.org/Graphics/SVG/1.1/DTD/svg11.dtd" >
<svg xmlns="http://www.w3.org/2000/svg" xmlns:xlink="http://www.w3.org/1999/xlink" version="1.1" viewBox="-10 0 266 256">
   <path fill="currentColor"
d="M75 246v2l0.5 1t1 1h2.5q2 -1 3.5 -3.5t2.5 -5t1.5 -5.5t0.5 -4v-6.5v-9.5v-9v-6v-29t-2 -29l2 -3q3 0 6.5 -1t6.5 -3t4.5 -5t1.5 -8v-55q0 -1 -1.5 -1h-1.5q-3 0 -4 3t-1 5v9v13v12.5v8.5v3t-0.5 4.5t-1.5 4.5t-3 3q-1 0 -4 -0.5t-4 -0.5v-7.5v-11.5v-11.5v-7.5v-5
t-0.5 -8.5t-0.5 -8.5t-1 -5q0 -1 -0.5 -3.5t-0.5 -3.5q-2 -4 -4.5 -6.5t-5 -4.5t-4.5 -5t-2 -8q0 -7 4 -11t11 -4q3 0 6.5 0.5t6.5 1.5t4.5 4t1.5 7t-2 6.5t-4 4l-4 3t-2 3.5t4 2q2 0 5.5 -1t6 -3.5t4 -5.5t1.5 -7q0 -12 -7.5 -18t-17.5 -6q-6 0 -11.5 1.5t-10 4.5t-7 8
t-2.5 12v2q1 0 2 2t2.5 4.5t3 4.5t2 2.5t2.5 2t3.5 2.5t3 2.5l2.5 2.5q3 7 3.5 14.5t0.5 15.5v15t1 15v1v1q0 8 -7 8q-5 0 -7 -3.5t-2 -8.5q0 -1 -0.5 -4.5l-1 -7t-0.5 -7v-5.5v-25l-2 -4h-8v6v7v8v5q1 7 0.5 16t1.5 16t7 11.5t16 2.5q1 1 1.5 6.5t0.5 12t0.5 12.5t0.5 8
q0 17 -2 33.5t-2 33.5zM197 243l3 3l2 2l1 1q2 0 3 -3t1 -5q0 -10 -3 -19t-5 -19q-3 -18 -5.5 -37.5t-2.5 -37.5q0 -11 2.5 -21.5t2.5 -20.5q0 -4 -0.5 -9.5t-2.5 -10t-5 -7.5t-9 -3q-4 0 -7 1t-6 1h-2.5t-3 -1t-2.5 -1.5t-1 -1.5q0 -2 0.5 -5.5t1 -7.5t2 -6.5t3.5 -3.5
l35 -5q1 0 1.5 -1t0.5 -2q0 -4 -2.5 -4.5t-4.5 -0.5q-10 0 -19.5 2t-19 4.5t-15.5 4t-9.5 4.5t-6 8.5t-4.5 16.5v6v6q0 1 0.5 2.5t1 3.5t0.5 4v2q0 1 -0.5 3.5t-1.5 3.5q0 4 -0.5 12.5t-1 18t-1 18.5t-0.5 12v2.5v4.5v4v2q-2 21 -3.5 41.5t-1.5 41.5q5 0 7 -4q0 -6 1 -13
t2 -13q2 -27 3.5 -54t2.5 -54q1 -8 1 -15v-15.5t0.5 -15t2.5 -14.5q1 -5 4.5 -9.5t8.5 -4.5q3 0 4 3t1.5 6.5t0.5 7v4.5q0 2 -0.5 6.5t-1.5 9.5l-2 10t-1 6q-1 2 -2 7t-2 11t-1.5 11.5t-0.5 6.5v11.5t1.5 7t5 4t9.5 1.5q9 0 14 -4t5 -14q0 -4 -1.5 -9.5t-1.5 -10.5
q-1 -3 -0.5 -8t-0.5 -9.5t-3.5 -7.5t-7.5 -3q0 12 2.5 22.5t2.5 21.5q0 7 -2.5 10t-8.5 3h-5q-2 0 -3 -3q0 -13 2.5 -26.5t4.5 -24.5q2 -2 2 -5v-5q0 -3 1 -5.5t5 -3.5h4.5h4.5h3.5h5t4.5 1t3 2v3v3v3v2q0 15 -1 29.5t-1 29.5q0 18 1.5 35.5t3.5 35.5q1 5 2 9t2.5 8t2.5 8
t1 9z" />
</svg>
