<?xml version="1.0" standalone="no"?>
<!DOCTYPE svg PUBLIC "-//W3C//DTD SVG 1.1//EN" "http://www.w3.org/Graphics/SVG/1.1/DTD/svg11.dtd" >
<svg xmlns="http://www.w3.org/2000/svg" xmlns:xlink="http://www.w3.org/1999/xlink" version="1.1" viewBox="-10 0 266 256">
   <path fill="currentColor"
d="M67 138q-2 5 -2.5 12.5t-0.5 15.5v15.5v12.5q-1 8 -2.5 15l-3 14l-3 14t-1.5 14q7 0 11 -4t5.5 -10t2 -14t1 -15l1 -14t2.5 -10q2 -28 2.5 -56.5t-0.5 -56.5q1 -1 2 -4.5t2 -4.5q0 -1 1 -3t2 -2l2 -0.5l4 -1l4 -1t3 -0.5q5 -2 10 -3.5t11 -1.5h2h2q3 0 9.5 0.5t12.5 0.5
h11h6t3.5 0.5t4.5 1t3.5 0.5h1.5l3 3v1.5t0.5 3.5t0.5 4v4q2 41 3.5 81t6.5 81v2.5t0.5 3t0.5 3v1.5q1 2 3.5 3.5t4.5 1.5t3 -0.5t0 -2.5q0 -2 0.5 -5.5t0.5 -4.5q0 -12 -0.5 -24t-1.5 -24q-1 -10 -3 -17.5t-2 -17.5v-7v-12v-11v-8l-0.5 -3t-0.5 -4v-46q0 -6 -3 -9.5
t-7.5 -5t-9 -2t-9.5 -0.5q-1 0 -4.5 -0.5l-7 -1l-7 -1t-4.5 -0.5t-1.5 -0.5t-0.5 -1.5q-2 -4 -2 -9.5v-10.5l-0.5 -1l-0.5 -1q-1 0 -4 -0.5t-4 -0.5h-1q-2 0 -3.5 1t-1.5 4v20l-2 0.5t-3 1.5q-11 1 -19.5 2t-14 2t-9 3.5t-5.5 7t-3 12.5t-1 21v50z" />
</svg>
