<?xml version="1.0" standalone="no"?>
<!DOCTYPE svg PUBLIC "-//W3C//DTD SVG 1.1//EN" "http://www.w3.org/Graphics/SVG/1.1/DTD/svg11.dtd" >
<svg xmlns="http://www.w3.org/2000/svg" xmlns:xlink="http://www.w3.org/1999/xlink" version="1.1" viewBox="-10 0 266 256">
   <path fill="currentColor"
d="M129 247q0 3 2.5 3.5t4.5 0.5q6 0 9 -6.5t4.5 -14.5t2 -15.5t2.5 -9.5q1 -9 1.5 -17t1.5 -15t1.5 -14.5t1.5 -16.5v0q0 -6 -4.5 -8.5t-9.5 -4t-9.5 -4t-4.5 -7.5v-3q0 -2 2 -3q1 0 3 -1l4 -2l3 -1.5l1 -0.5h31q1 0 4 -1.5t4 -2.5l2 -2v-1q0 -2 -2 -3t-4 -1
q-18 0 -37.5 1.5t-37.5 2.5q-1 0 -2.5 0.5t-2.5 0.5h-19q-1 1 -2 2.5t-1 3.5v0q0 1 0.5 2.5l0.5 1.5h37l4 3l3 16q0 4 4 5.5t9 2.5t9 2.5t5 5.5q1 1 1 4v5q0 16 -3.5 33t-6.5 32q-1 3 -3 6.5t-4 7.5t-3.5 7.5t-1.5 5.5zM194 231v4.5t0.5 4.5t2 3.5t3.5 1.5q1 0 3.5 -0.5
t1.5 -3.5v-6v-10.5v-9.5v-7q0 -21 -0.5 -41t-0.5 -41q0 -8 0.5 -15.5t0.5 -14.5v-5q0 -2 -0.5 -7.5l-1 -11l-1 -11t-0.5 -6.5q-1 -6 -4.5 -8.5t-8.5 -4.5q-2 0 -6 -0.5t-9 -1t-9.5 -1t-6.5 -0.5h-3h-5h-5h-3l-2 -0.5t-3 -1.5l-1 -0.5l-1 -0.5v-23l-1.5 -0.5t-2.5 -0.5h-1
q-2 0 -4 1.5t-3 4t-1.5 4.5t-0.5 4v1v1l0.5 1.5t0.5 2.5t0.5 2.5l0.5 1.5v0v1t-3 2t-8 1.5t-10.5 1t-11.5 1t-10.5 1.5t-6.5 3q-3 2 -5 3t-4 2.5t-3 3.5t-1 6v49q-3 3 -4.5 7.5t1.5 8.5v2q0 14 -1 27t-2.5 26.5t-2.5 27t-1 26.5q0 2 2 4t4 2q1 0 1.5 -0.5l0.5 -0.5l5 -9
l0.5 -8t1 -19t1 -22.5t0.5 -19.5v-1q1 -12 1.5 -24t3.5 -24v0v-1v-0.5v-0.5v-1.5t-0.5 -3t-0.5 -3v-1.5l-1 -1v-2q0 -3 0.5 -8.5l1 -11t1.5 -10.5t2 -7q3 -4 8 -7t10.5 -4.5t11 -2t9.5 -0.5q1 0 5 -0.5t9 -0.5h11h8h6h7t6.5 0.5l2.5 0.5l18 4q2 1 3.5 3.5t2.5 6t1.5 6.5
t0.5 5v3v4.5v5.5v5v4v5.5v5.5v4l-0.5 1.5t-1.5 1.5v1v1q1 0 1.5 2.5t0.5 3.5q-1 22 0.5 43t1.5 43q1 1 1 2v3q0 4 -1.5 8.5t-1.5 9.5zM94 78q0 3 2 3.5t5 0.5q17 0 34.5 -1.5t34.5 -4.5l1.5 -1.5l1.5 -1.5q1 -2 -1 -3.5t-4 -1.5q-9 0 -20.5 0.5t-21.5 2.5l-0.5 0.5l-1.5 1.5
q-1 0 -3 -0.5t-6 -0.5q-2 0 -4.5 0.5t-3.5 0.5h-5t-4 0.5t-3 1.5t-1 3z" />
</svg>
