<?xml version="1.0" standalone="no"?>
<!DOCTYPE svg PUBLIC "-//W3C//DTD SVG 1.1//EN" "http://www.w3.org/Graphics/SVG/1.1/DTD/svg11.dtd" >
<svg xmlns="http://www.w3.org/2000/svg" xmlns:xlink="http://www.w3.org/1999/xlink" version="1.1" viewBox="-10 0 266 256">
   <path fill="currentColor"
d="M49 246q0 2 1.5 3t3.5 1q4 0 5.5 -2.5t2 -6.5t0.5 -7q0 -4 1 -6v-10v-15v-15v-9q0 -5 0.5 -13t1 -19t1 -23t1 -22.5t1 -19t0.5 -12.5q1 -8 2.5 -11.5t4 -5t6.5 -2t11 -3.5q2 -1 7.5 -1t12 -0.5t12 -1t8.5 -0.5h3h10.5t11.5 1l1.5 1.5t0.5 1.5q0 5 -1 9.5t-2 8.5
q-18 1 -35.5 4t-34.5 4q-2 0 -3.5 1t-1.5 3v1l1 1.5t2 1.5h1h1q1 0 5 -0.5t8 -1.5l8 -2t6 -1l3 2v1.5t0.5 4t0.5 5v3.5v2q0 2 -1 3.5t-3 2.5h-5.5t-7 0.5t-7 0.5t-4.5 1h-3t-3.5 0.5t-2.5 1.5t-1 2t0.5 1.5t1.5 0.5h3h4q6 0 11.5 -1t11.5 -1q4 0 5.5 2.5t2.5 5.5t2 6.5
t4 4.5q5 3 10 4l10 2t9 2.5t6 4.5t3 7t1.5 8l1 8t1.5 7v74q0 1 1 1h2q3 0 4.5 -2t2 -4.5t1 -5.5t0.5 -5q0 -12 -1.5 -24.5t-1.5 -24.5q0 -4 -0.5 -9t-0.5 -9.5t-0.5 -7.5l-0.5 -3l-1 -2l-4 -14q0 -2 -3.5 -3.5t-8 -2.5t-9.5 -2t-9.5 -3.5t-7.5 -5.5t-3 -8v-1l2 -1
q10 -2 19.5 -4t18.5 -7q1 -8 1 -12.5v-10.5q0 -5 -0.5 -10t-0.5 -10q0 -3 2 -4t5 -1q6 0 9.5 4.5t5 10.5t1.5 12.5v10.5q0 1 0.5 5.5t0.5 10.5t0.5 11t0.5 8v21q0 1 0.5 5.5t0.5 9.5t0.5 9.5t0.5 5.5v16q0 15 2 30t1 30q0 2 1 2h2q3 0 4.5 -1.5t2 -3.5t0.5 -5v-4
q0 -14 -2.5 -28t-2.5 -28q-2 -32 -3 -63t-5 -63q-1 -6 -5.5 -9t-11.5 -4.5t-14 -1.5h-13t-10.5 -1t-4.5 -3v-25q0 -1 -1 -1.5t-2 -0.5h-2h-1h-3t-2 2v25q0 2 -4 3t-9.5 1.5t-12.5 0.5t-13.5 1t-12.5 2.5t-9 4.5q-1 1 -2 3.5t-1.5 5.5t-0.5 6v4q-1 2 -0.5 3.5t0.5 3.5
q0 1 -0.5 2.5t-1.5 3.5q1 15 -1 29t-2 30q-1 13 -0.5 26.5t0.5 26.5t-1 26.5t-4 26.5v1zM89 161v12q0 1 0.5 4.5l1 7t1 6.5t0.5 5q0 3 3.5 4.5t8 2.5t8 1h6.5h2q2 0 5 -1t6 -1.5t5 -1.5l2 -1l3 -3v-51l-1 -0.5t-2 -1.5h-1q-3 0 -4 2t-1 5v5t-2 4q-1 0 -4.5 0.5t-7.5 0.5
t-7 0.5t-5 0.5h-2h-2q-4 0 -5 -3t-0.5 -6t0 -6t-4.5 -3q-1 0 -2 2.5l-1 2.5v13zM96 181q0 -3 0.5 -6.5t3.5 -5.5q6 -1 11 -1.5t12 -0.5h2h3h3h2q0 1 1 2l1 1v0.5v0.5v1q0 1 -0.5 3.5t-0.5 5t-0.5 5t-1.5 4.5q-1 0 -2 1.5l-1 1.5h-29q-2 0 -2.5 -2l-1 -4t-0.5 -4v-2zM152 75
h2.5t2.5 1v15q0 2 -3.5 3.5t-8 2.5t-8.5 1.5t-5 0.5v0q-1 0 -3 -1t-2.5 -1t-1 -0.5l-0.5 -0.5v-13q0 -3 4 -4.5t8.5 -2.5t9 -1h5.5z" />
</svg>
