<?xml version="1.0" standalone="no"?>
<!DOCTYPE svg PUBLIC "-//W3C//DTD SVG 1.1//EN" "http://www.w3.org/Graphics/SVG/1.1/DTD/svg11.dtd" >
<svg xmlns="http://www.w3.org/2000/svg" xmlns:xlink="http://www.w3.org/1999/xlink" version="1.1" viewBox="-10 0 266 256">
   <path fill="currentColor"
d="M194 248q0 2 1 2.5t3 0.5t4.5 -2t2.5 -4v-187q0 -2 -1 -5t-2.5 -5.5t-3.5 -4.5t-4 -3q-3 0 -8.5 -1t-11.5 -1.5t-11.5 -1t-7.5 -0.5q-1 0 -1.5 -0.5t-1.5 -1t-2.5 -0.5h-1.5h-1v0q-1 0 -3 1l-2 1q-1 0 -3 -1l-2 -1v-20q0 -2 -1.5 -3t-3.5 -1t-5 0.5t-3 2.5v19
q0 1 -0.5 1.5l-0.5 0.5q-1 0 -4.5 0.5t-4.5 1.5h-3h-3h-4h-1h-4.5h-5.5t-5.5 0.5t-3.5 0.5q-10 1 -15 8t-7 16t-2.5 18.5t-0.5 16.5q0 1 -0.5 6t-1.5 10.5t-1 10v5.5l-0.5 1.5t-0.5 3.5v5v3v2v4t0.5 4t0.5 3q1 3 1 6.5v5.5q0 18 -1.5 36t-1.5 36v5.5t4 2.5q3 0 5 -1.5
t2.5 -4.5l1 -6t0.5 -5q0 -9 -1 -17.5t-1 -17.5q0 -21 0.5 -43t2.5 -43q0 -2 0.5 -7t1 -11.5t1 -13.5t2 -12.5t3.5 -9.5t4 -5l21 -6h58q3 1 7.5 1.5t8.5 1l8 1t6 0.5q3 2 4.5 5.5t2.5 7t1 7.5v7v3v2q0 1 -0.5 3.5t-0.5 5.5v5.5v2.5v3.5v5.5t0.5 6l0.5 3v2v4v5v3q0 4 0.5 10
t-1.5 10v83q0 1 -0.5 3t-1 4.5t-0.5 4.5v3v2zM94 234q0 2 1.5 5t4.5 3q2 0 4 -6.5t4 -15t4.5 -16t4.5 -10.5q5 -6 11 -11.5t11.5 -11t9 -12.5t3.5 -16q0 -14 -9 -21.5t-24 -7.5h-4t-4 2q-17 14 -24.5 32t-7.5 39q5 0 7.5 -2t3.5 -6t0.5 -8t-0.5 -7.5t1.5 -6t4.5 -2.5
q4 0 5.5 2.5l3 5l3 5t5.5 2.5q2 0 2 -1.5v-3.5t-2 -5t-4.5 -5.5l-5 -5l-3.5 -3.5q-1 0 -1 -1v-2q0 -3 2 -7t7 -4q4 0 7 4t5.5 8t5.5 7.5t6 3.5q2 0 3 -1t1 -4q0 -1 -0.5 -2.5t-1 -2.5t-2 -2t-3.5 -3q0 -1 -2.5 -3t-5 -4.5l-4.5 -4.5l-3 -3l3 -3l1.5 -0.5t2.5 -0.5q5 0 9 2
t7.5 4.5t5.5 6.5t2 9q0 8 -4.5 15t-11 12.5t-13 11.5t-10.5 12q-2 4 -4 9t-3.5 10.5l-3 11t-1.5 9.5zM165 236q0 3 1 4.5t3 1.5q3 0 4 -0.5t2 -3.5q1 -9 1.5 -16t0.5 -16q0 -25 -1.5 -52t-6.5 -52q-1 -4 -4 -7.5t-3 -6.5q0 -2 2 -3t4.5 -2t4.5 -3t2 -7t-1 -9.5t-3.5 -8
t-7 -5.5t-9.5 -2q0 4 2 6t4.5 5t4.5 5.5t2 6.5t-3.5 5.5t-6.5 1.5h-2l-12 -10t-12 -8.5t-12.5 -5.5t-15.5 -2q0 4 6.5 7.5t14 6.5t14 6.5t6.5 8.5q0 3 -4 5q-6 1 -9.5 1h-9.5q-9 0 -13.5 -1.5t-6.5 -4t-2.5 -5.5t-1.5 -5.5t-3 -4t-8 -1.5q0 4 2 9t4.5 9.5t7 8t9.5 3.5h28
q3 -2 5.5 -2h4.5h3h3q6 7 8.5 16t3.5 19t0.5 19.5t-0.5 18.5q1 1 1 6.5t0.5 11.5t0.5 11.5v6.5v12q0 6 -1 11.5t-1 10.5z" />
</svg>
