<?xml version="1.0" standalone="no"?>
<!DOCTYPE svg PUBLIC "-//W3C//DTD SVG 1.1//EN" "http://www.w3.org/Graphics/SVG/1.1/DTD/svg11.dtd" >
<svg xmlns="http://www.w3.org/2000/svg" xmlns:xlink="http://www.w3.org/1999/xlink" version="1.1" viewBox="-10 0 266 256">
   <path fill="currentColor"
d="M189 246v0q1 3 1 4t3 1q4 0 6 -3t2 -7v-3l-0.5 -2.5t-0.5 -5t-0.5 -5l-0.5 -2.5v-1v-1l0.5 -1.5t1.5 -1.5q-2 -10 -2 -19v-19q0 -28 1.5 -55.5t1.5 -55.5v-4v-5.5v-5.5v-4q2 -4 -2.5 -7t-10.5 -4.5t-12.5 -2t-7.5 -0.5q-3 -1 -8 -1.5t-9.5 -1.5t-8 -1.5l-3.5 -0.5l-2 -1
v-15l-3 -1t-4 -2h-1h-1l-2 2l-1 1v15l-0.5 0.5t-1.5 0.5l-2 0.5l-2 0.5h-34q-5 3 -9.5 3t-9.5 2t-7 7.5t-3 12t-1 13.5v11q0 2 -0.5 6.5t-1 9.5t-1 9.5t-1.5 6.5q1 0 1.5 2l0.5 2v2q0 14 -1.5 28.5t-1.5 28.5q0 10 0.5 20.5t0.5 20.5q0 4 -0.5 8t-0.5 9q0 2 2 4t4 2t4 -1.5
t2 -3.5v-86v-6l1 -37q2 -5 3 -12t1.5 -14t1 -14.5t0.5 -12.5q1 -3 3.5 -6t6.5 -4q1 0 5 -0.5t9 -1t9 -0.5t6 -1h1h4h4h3h3h4h4h2q1 1 6.5 1t12 0.5t12.5 1t9 0.5q12 2 15.5 8t3.5 17q0 2 -0.5 6t-0.5 9t-0.5 9t-0.5 5v30q0 1 -0.5 4.5t-1.5 4.5v28q0 14 1 26.5t1 25.5v0v5.5
t-0.5 9t-0.5 9t-1 5.5v1zM118 244q0 4 5 4q2 0 3.5 -1.5t2.5 -3.5t1.5 -4.5t0.5 -3.5v-6l-0.5 -1.5t-0.5 -2.5t-0.5 -2.5l-0.5 -1.5v-7.5t0.5 -11.5t0.5 -11v-8v-6l1 -41q0 -1 1 -2.5t2 -2.5h10q5 0 9.5 -0.5t9 -2.5t7.5 -6q3 -5 5 -11t2 -13q0 -2 -1 -4t-4 -2q-2 0 -3 1.5
t-2 3.5q0 1 -0.5 3.5t-1.5 5.5t-1.5 6t-0.5 4q-5 5 -11.5 5.5t-12.5 0.5h-3h-2l-2 -2v-20q0 -1 4.5 -1t10 -2t10 -6t4.5 -12v-2v-2q-2 -7 -4 -11t-5.5 -5.5t-8.5 -2t-11 -0.5h-10.5t-10 1.5t-8 4.5t-3.5 10q0 4 0.5 8t1.5 9q1 2 4 3.5t6.5 3t6 2.5t2.5 2v20q0 1 -1 1.5
t-2 0.5h-2h-1q-4 0 -7.5 -0.5t-8.5 -1.5q-3 -1 -4 -3.5t-1 -5.5q0 -1 -0.5 -3.5t-0.5 -5.5t-0.5 -6t-0.5 -4q0 -2 -2 -2h-2h-3t-2 2v3v3q0 10 1.5 16.5t5.5 10t11 5t17 0.5l2 1v26q0 22 -1 44t-1 43zM158 232q0 1 1 2t2 1h0.5h0.5q3 0 5 -3t2 -5v-3l-0.5 -1l-1 -2l-1 -2
l-0.5 -1q-2 -7 -3.5 -15t-2.5 -17t-1 -17v-15q-1 -2 -2 -3t-2 -1h-1.5h-0.5q-2 5 -2 10v10q0 6 2 11.5t2 11.5l-0.5 2t-1 4.5t-0.5 4.5v3q0 3 0.5 6t1.5 6.5t1.5 6.5t1.5 6zM91 149q-2 12 -2 23.5t-1 23.5q-1 10 -3.5 19.5t-2.5 19.5q6 0 8.5 -3.5t3.5 -7.5t1 -9t1 -8
q0 -2 0.5 -9t1.5 -15.5t1.5 -15.5t0.5 -9v-3v-3t-0.5 -4t-1 -3.5t-2.5 -0.5q-1 0 -3 2t-2 3zM108 77q0 -4 2 -7t5.5 -4t7 -1.5t7.5 -0.5h6.5t7 1t5.5 3.5t2 6.5q0 5 -1 8.5t-4 5t-6.5 2t-9.5 0.5q-4 0 -7.5 -0.5t-7 -2t-5.5 -4t-2 -7.5z" />
</svg>
