<?xml version="1.0" standalone="no"?>
<!DOCTYPE svg PUBLIC "-//W3C//DTD SVG 1.1//EN" "http://www.w3.org/Graphics/SVG/1.1/DTD/svg11.dtd" >
<svg xmlns="http://www.w3.org/2000/svg" xmlns:xlink="http://www.w3.org/1999/xlink" version="1.1" viewBox="-10 0 266 256">
   <path fill="currentColor"
d="M195 237v3q0 3 0.5 5t1.5 4t4 2q2 0 3.5 -3.5t1.5 -4.5v-70v-62t-1 -61q-2 -6 -6 -8.5t-9.5 -3.5t-11 -1h-9.5q-3 -1 -7.5 -1t-9 -0.5t-7.5 -0.5h-4l-1 -2v-11t-2 -11q-1 -1 -2.5 -1.5t-3.5 -0.5t-3.5 0.5t-3.5 1.5q1 5 0.5 12t-1.5 12q-8 1 -15 1.5t-13 1.5t-12.5 2.5
t-13.5 4.5q-1 0 -2.5 0.5t-3.5 1t-3.5 1t-1.5 2.5q-2 6 -2.5 13t-0.5 14.5v14.5v14v5v9v8v5q-1 29 -3.5 57.5t-2.5 58.5q8 0 11.5 -6.5t4 -15t0 -17t-0.5 -12.5q0 -1 0.5 -5t0.5 -8.5t0.5 -8t0.5 -4.5v-7.5v-11.5v-13v-13v-11v-7q1 -3 1 -8.5v-12.5v-12t1 -11.5t2.5 -9.5
t5.5 -5q2 -1 7.5 -2t11.5 -2t11.5 -2t8.5 -1h3h4h3h3l1 2v11q0 1 -2.5 2l-2.5 1q-1 0 -4 0.5t-6.5 0.5t-6.5 0.5t-4 0.5t-4.5 0.5l-7 1t-6.5 2t-3 3.5t2.5 3t4.5 1q4 0 8.5 -1t8.5 -2t8.5 -2t9.5 -1q4 0 5.5 3.5t1.5 7.5q0 3 -3.5 4.5t-8.5 2.5t-11 1.5t-11 1t-8.5 1.5
t-3.5 2v1q1 1 1.5 2t0.5 2h5q8 0 15.5 -3t16.5 -3q4 0 4.5 1t0.5 5q0 5 -4 7t-9.5 3t-10.5 1h-8q-5 1 -10 3t-10 3v7q6 0 11.5 -1.5t11 -3.5t11 -3.5t11.5 -1.5h1l1.5 0.5t1.5 1.5v47h-23q-2 0 -1.5 -4t0.5 -8t-0.5 -8t-3.5 -4t-4.5 1.5t-2 3.5t-1 4.5t-0.5 4.5l0.5 2
t0.5 4.5t0.5 5l0.5 2.5v11q0 8 1 15.5t3.5 14t8.5 8.5q1 0 4 0.5l6 1t5 1t3 0.5l1.5 -0.5t3 -0.5t3 -0.5l1.5 -0.5q6 0 13 -0.5t13.5 -2.5t11 -5.5t5.5 -12.5v-5v-8v-8v-5l0.5 -2.5t0.5 -3.5v-3v-4v-6.5t-0.5 -7t-2.5 -6t-5 -2.5h-2t-1 2q0 1 -0.5 3.5t-0.5 5.5t-0.5 6
t-0.5 4q0 2 -1.5 3t-3.5 1.5t-4 0.5h-4h-8q0 -1 -1.5 -1.5l-1.5 -0.5v-42q0 -1 1 -2.5t2 -1.5q2 -1 5.5 -1.5t8 -1.5t8.5 -1.5t6 -1.5h2t4 -0.5t3.5 -1t1.5 -1.5v-1q0 -1 -0.5 -2t-1.5 -1h-4q-8 0 -14 1.5t-13 1.5h-3h-3q-2 -1 -2 -3v-3q0 -2 0.5 -4t3.5 -3q7 -2 14.5 -3.5
t14.5 -1.5l1.5 -1.5t0.5 -1.5q0 -2 -1 -2.5t-3 -0.5q-7 0 -14 2t-14 2q-3 0 -3 -2v-4q0 -5 2.5 -7.5t6.5 -3t9 -0.5q4 0 8 -1t6.5 -2.5t2.5 -6.5q-7 0 -14.5 1.5t-15.5 1.5q-3 0 -4 -1t-1 -5q0 -1 1 -2.5t3 -2.5h7q10 0 18.5 2t17.5 1l5 5l0.5 3t0.5 7t0.5 8.5t0.5 7.5v9v14
v14.5v9.5l1 2l1 2v1v1l-0.5 1.5t-1 3.5t-0.5 3v2v6.5v9.5t0.5 9.5t0.5 6.5v6v6.5t0.5 10t0.5 9.5v7l-0.5 2.5t-0.5 5.5t-0.5 5.5t-0.5 3.5v9zM104 170l3 -3q1 0 4.5 -0.5t8.5 -1t10.5 -1t9.5 -0.5h1q2 0 3.5 -0.5t3.5 -0.5h3h2q2 0 4 0.5t3 0.5h3q1 3 1 4.5v4.5v8t-1 9
t-3.5 7.5t-8.5 3.5h-40l-2 -2q-1 -2 -3 -5l-2 -3v-21z" />
</svg>
