<?xml version="1.0" standalone="no"?>
<!DOCTYPE svg PUBLIC "-//W3C//DTD SVG 1.1//EN" "http://www.w3.org/Graphics/SVG/1.1/DTD/svg11.dtd" >
<svg xmlns="http://www.w3.org/2000/svg" xmlns:xlink="http://www.w3.org/1999/xlink" version="1.1" viewBox="-10 0 266 256">
   <path fill="currentColor"
d="M188 247q0 2 2 2.5t4 0.5q1 0 2.5 -1t3 -2.5t3 -3.5t1.5 -3l-1 -2l-1 -2q-2 -65 -3 -130q0 -6 0.5 -14t0 -16.5t-1.5 -16t-5 -13.5q-2 -3 -4.5 -4t-5 -1.5t-5.5 -1t-5 -1.5h-36q-1 0 -1.5 -1l-1 -2t-0.5 -3v-1v-3.5t-0.5 -4.5t-0.5 -4.5v-2.5q-2 -3 -4.5 -3.5t-5.5 -0.5
q-2 0 -4 0.5t-2 2.5q0 5 1 9.5t1 9.5q0 2 -4 3.5t-9.5 2.5t-12.5 2t-13.5 2.5t-12.5 4t-9 6.5v10v13q0 6 -0.5 12t-2.5 10q1 17 0 34l-2 34l-2 34t-1 34q0 3 1 6t5 3q3 0 4.5 -2.5t2.5 -5.5q-1 -29 0.5 -57.5t0.5 -58.5q2 -2 3 -6.5t1 -9.5t-0.5 -10t-0.5 -7q0 -1 0.5 -4.5
t0.5 -7.5t0.5 -7.5t0.5 -4.5v-2.5v-2.5q2 -2 5.5 -3t7 -1t7 -0.5t5.5 -2.5q10 -1 21.5 -3t22.5 -2q10 0 21 2t21 3l7 6v2t0.5 5t0.5 6v5q1 33 2 66.5t1 67.5q0 9 -1.5 18.5t-1.5 18.5zM120 242q0 1 2 1h2q4 0 6 -2t4 -5q1 -10 2 -20.5t1.5 -21l1 -21t0.5 -20.5q2 -7 7 -12
t10 -9v-0.5v-0.5q1 0 1 0.5v0.5q1 0 1.5 1t0.5 2v9q0 4 -1 8t-1 9v1l1 2l1 2q0 15 -1.5 29.5t-1.5 28.5q0 3 0.5 4.5t3.5 1.5q4 0 5 -2t2 -7q-1 -22 0 -43t1 -42v-18q0 -2 -1 -2.5t-2 -0.5q-4 0 -7 2.5t-5.5 6t-5 6t-6.5 2.5q-2 0 -3 -0.5t-1 -2.5q0 -1 -0.5 -3.5t-0.5 -5
v-5t-1 -3.5q0 -3 -2 -6l-4 -6t-3.5 -6.5t-1.5 -6.5q0 -2 2.5 -4.5t5 -4t6 -2.5t5.5 -1h26q3 0 4 -2.5t1 -4.5v-2q0 -2 -1 -2h-6h-5.5t-9 0.5t-8 1t-4.5 1.5h-3.5h-5.5h-5.5h-3.5t-2.5 0.5t-2.5 1.5h-39q-1 0 -1 1.5v2.5q0 2 1 3t2.5 1h3.5h4h1h3.5t5.5 -0.5t5 -0.5h3h1
q2 0 5.5 1t3.5 3t-3 4.5t-7 5.5t-9 6.5t-9.5 6.5t-8.5 6t-5 5q-1 0 -1 1v0q0 2 1.5 2.5t3.5 0.5q5 0 9.5 -2.5t9 -6.5t9 -7.5t8.5 -6.5v0q2 0 3 1.5t1.5 3l1 3t0.5 2.5q0 4 -1 5.5t-2.5 3t-4 2t-4.5 2.5q-1 0 -3 1.5t-4.5 3.5l-5 4t-3.5 3t-2 2.5t-2 2.5t-2.5 1h-4.5l-9 11
l3 3h1.5t3 -0.5t3.5 -1t3 -1.5q3 -1 8 -5.5t10.5 -9.5t10.5 -9t8 -4v1l0.5 1t1.5 2q2 4 3 9.5t1 9.5q-9 10 -18.5 18t-18.5 19l-1.5 1.5t-3 3.5t-3.5 4l-3 3q-3 3 -6.5 5.5t-7.5 6.5q2 0 2 1v2t0.5 2t1.5 1h1q1 -1 3.5 -2l2.5 -1l4 -4t6.5 -6t6 -6t4.5 -4q2 -2 4.5 -6
t6 -7.5t7 -6.5t7.5 -3q1 0 2 1.5t1.5 3t0.5 3.5v2v3v3q-1 2 -1.5 8t-1 12.5t-1.5 12.5t-1 9q-2 4 -2.5 7t-0.5 8v3v3z" />
</svg>
