<?xml version="1.0" standalone="no"?>
<!DOCTYPE svg PUBLIC "-//W3C//DTD SVG 1.1//EN" "http://www.w3.org/Graphics/SVG/1.1/DTD/svg11.dtd" >
<svg xmlns="http://www.w3.org/2000/svg" xmlns:xlink="http://www.w3.org/1999/xlink" version="1.1" viewBox="-10 0 266 256">
   <path fill="currentColor"
d="M50 247q0 3 1.5 3.5t3.5 0.5q4 0 5.5 -3.5t2.5 -7.5t1.5 -8t0.5 -6q0 -5 -1 -10t-1 -11v-5v-8.5v-13t0.5 -15.5t1 -15t0.5 -12.5v-8.5v-5v-17t0.5 -19t1.5 -19.5t4 -17.5q1 -2 5 -4t10.5 -3t13.5 -2t14 -1.5t12 -0.5h7h4h4h5t8.5 0.5t9 0.5h5.5q6 1 11.5 1.5t9.5 2.5t6 6
t2 11v9v14v14v9q1 3 1.5 5.5t0.5 4.5q0 25 -2 49t-2 49v34q1 1 2 1h3q5 0 6 -3.5t1 -8.5q0 -13 -1 -25.5t-1 -27.5q0 -1 -0.5 -2.5t-0.5 -2.5v-1v-2l0.5 -2t0.5 -3q1 -4 0.5 -8t-0.5 -7.5v-7t2 -7.5v-83q0 -12 -7.5 -18t-18 -8.5t-22 -2.5t-19.5 -1q-3 -1 -3 -4t-0.5 -6
t-2 -5t-5.5 -2v0q-1 0 -3 0.5l-2 0.5v18h-33q-3 2 -7.5 2.5t-8.5 1t-7.5 2.5t-5.5 5q-5 10 -7 21t-2 22.5t0.5 22.5t0.5 21q-1 27 -2 53.5t-2 53.5q-1 6 -1 12zM99 245q0 3 0.5 3.5t3.5 0.5h2.5t2.5 -1v-27q1 -1 1.5 -4t0.5 -4v-81q2 -3 2 -7v-7v-8q0 -3 -2 -7
q0 -9 1.5 -19.5t1.5 -19.5q0 -3 -0.5 -6.5t-4.5 -3.5h-2h-1q0 1 -0.5 5t-0.5 8.5t-0.5 8t-0.5 5.5q0 1 0.5 3t0.5 4t-1 4t-3 2q-8 0 -9.5 -3t-1.5 -6v-6t-4 -3h-1q-1 0 -2 1.5l-1 1.5v5v8v7.5v5.5l-0.5 1.5l-1 3t-1.5 3l-1 1.5v2v1q1 1 1.5 5t0.5 5h2q6 0 6.5 -4t0 -9
t0.5 -9t8 -4q2 0 4.5 0.5t2.5 3.5v9t-0.5 14.5t-0.5 14.5v9v2.5v5t-1 4.5t-2 2h-12l-0.5 -1t-0.5 -2v-1t0.5 -2t0.5 -2v-1v-4q0 -3 -0.5 -4.5t-3.5 -1.5t-4 4.5t-1 10v11t-1 8.5l-0.5 2t-1.5 4t-1.5 4t-1.5 3v0q0 2 2 2.5t4 0.5q3 0 4.5 -3.5t2.5 -7.5t1.5 -8t2.5 -4h11
q0 18 -0.5 35.5t-0.5 35.5zM170 232l1.5 1.5t2.5 1.5t2.5 -1.5t3 -3.5t2.5 -3.5t1 -2.5q1 -6 1 -13t0.5 -14.5t0.5 -15v-14.5q0 -15 -1 -28t-1 -28q0 -1 -0.5 -2t-1.5 -2t-1.5 -2t-1.5 -1h-19q-1 0 -1.5 -1.5t-0.5 -2.5v-2q0 -4 2.5 -5.5t5.5 -2t7 -0.5h7t5.5 -1t2.5 -3
q0 -1 -1 -1.5l-1 -0.5h-6h-6h-11t-12.5 0.5t-11.5 1t-8.5 1.5t-3.5 2v1q3 1 6 1.5t6 0.5q4 0 7 0.5t6 0.5v5q0 4 -2 5.5t-4.5 2t-5.5 0.5t-5.5 1.5t-4.5 5t-3 9.5v3v5v5v3q-1 21 -2 41.5t-1 40.5q0 3 0.5 5.5t2.5 4.5q1 0 3.5 -2.5l3.5 -3.5v-2v-3q0 -6 -1 -11.5t-1 -11.5
v-1l0.5 -2t0.5 -3.5t0.5 -3.5l0.5 -2v-11.5t1.5 -8t5 -6t11.5 -6.5h1q3 0 7.5 2.5t8 6t6.5 7.5t3 7v14t-1 14.5t-2 14.5t-4 14zM157 133v-8t0.5 -7t2.5 -5t7 -2t7.5 2t2.5 7q0 2 -1 4t-1 4q0 3 1 6t1 5v5v5.5t-1.5 4.5t-3.5 2q-1 0 -1.5 -0.5l-0.5 -0.5l-13 -12v-10z
M133 149v-6v-9q0 -5 0.5 -10t3 -8.5t6.5 -3.5q5 0 6.5 2.5t1.5 6.5q0 6 -0.5 11.5t-1.5 11.5q-2 3 -5 5t-6 2h-3t-2 -2zM136 61q0 2 1 2.5t3 1t3 0.5h3h3q1 0 4.5 -0.5t7 -0.5t7 -0.5t4.5 -0.5q3 0 6.5 -1t3.5 -5q0 -2 -1 -2.5t-3 -0.5q-9 0 -20 0.5t-20 2.5q-1 0 -1.5 1.5
l-0.5 1.5v1z" />
</svg>
