<?xml version="1.0" standalone="no"?>
<!DOCTYPE svg PUBLIC "-//W3C//DTD SVG 1.1//EN" "http://www.w3.org/Graphics/SVG/1.1/DTD/svg11.dtd" >
<svg xmlns="http://www.w3.org/2000/svg" xmlns:xlink="http://www.w3.org/1999/xlink" version="1.1" viewBox="-10 0 266 256">
   <path fill="currentColor"
d="M188 247v1l1 1l2 2v0q4 0 6 -2t3 -5t1 -6v-5q0 -6 -1.5 -11t-1.5 -10q0 -3 1 -5.5t1 -5.5t-0.5 -5t-1.5 -4q0 -14 0.5 -27.5t0.5 -25.5q0 -13 -0.5 -26t-1.5 -26q-1 -4 -0.5 -9.5t0 -11t-1.5 -10.5t-4 -8q-6 -6 -15 -8q-2 0 -5.5 -0.5l-7 -1t-6.5 -1t-4 -0.5h-2h-5h-4h-2
l-4 -1q1 -2 1 -6t-0.5 -7.5t-2 -6.5t-5.5 -3q-3 0 -4.5 1.5t-1.5 4.5v2v2.5t0.5 5t0.5 4.5v3v1q0 1 -3 2t-8.5 2t-12 2t-12.5 2.5t-11 3.5t-7 5q-1 2 -1.5 5t-0.5 5v5.5t-2 3.5q-4 39 -4 78.5t1 78.5q-1 3 -1.5 6t-0.5 6q0 2 0.5 3t3.5 1q1 0 2.5 -0.5t2.5 -1.5l2 -2t1 -2
v-42q-1 -2 -1 -4.5v-5.5v-5.5v-3.5v-15v-6.5t0.5 -10t0.5 -10v-5.5q0 -3 0.5 -9.5t0.5 -14t0.5 -15.5t1.5 -15t2 -12.5t3 -7.5q3 -2 7 -4t8 -2q3 0 4.5 1.5t2 3.5t1.5 4t2 3q2 2 4 2t3 0.5t2 1.5t1 5q0 5 -4.5 7t-10 3t-10 2t-4.5 4q0 2 1.5 2h2.5q3 0 7.5 -0.5t8.5 -2l8 -3
t5 -4.5q2 -3 3 -5t1.5 -3.5t2 -2.5l4.5 -3h4.5h4.5h4.5t5.5 0.5t4.5 1.5t1.5 5q0 2 -2.5 3.5t-5.5 1.5q0 1 -2 1.5t-4 1.5t-4.5 1.5l-2.5 0.5q-3 1 -4 3.5t-1 5.5t-0.5 5t-2.5 2q-1 0 -5 0.5t-8 0.5t-8 0.5t-6 0.5q-1 0 -3 0.5t-4 1.5t-3.5 2.5t-1.5 3.5v8t1.5 8t4 6.5
t7.5 2.5q6 0 9 -1t4.5 -2t2.5 -3t5 -4q-1 -2 -1 -6t1 -5v-1.5t0.5 -2.5t1.5 -2t2 -1h15l2 1q0 6 0.5 10.5t2 7.5t5.5 4.5t10 1.5h4.5h3.5q6 -2 8.5 -7t2.5 -10q0 -6 -4 -11t-11 -5h-25q-1 0 -2 -1l-2 -2v-1v0l2 -5q2 -1 6.5 -1.5t9 -2t8 -4t3.5 -6.5q0 -2 -0.5 -4.5t-1.5 -5
t-2.5 -4.5t-4.5 -2h-37q-4 0 -7.5 -2t-3.5 -6v-1v-1q9 -3 18 -3.5t18 -0.5t17 0.5t14 3t9.5 8t3.5 16.5v1l-0.5 1.5t-0.5 3.5t-0.5 3.5l-0.5 1.5v2t0.5 3t0.5 3.5t1 2.5l0.5 2.5t0.5 3.5q1 24 1.5 47t0.5 47v12q0 6 -0.5 11.5t-0.5 11t-1 12.5q0 1 -0.5 2l-0.5 1v1zM94 233
q1 1 2 1h2q2 0 3 -2t1 -4v-33l0.5 -1t0.5 -2q1 0 1.5 -0.5l0.5 -0.5l21 -4q1 0 1 -1v-1v-2.5t-1 -1.5h-16q0 -1 -1 -3.5t-1 -3.5q2 -3 5 -4t7 -2t6.5 -2t2.5 -3t-2 -2.5t-3 -0.5q-6 0 -9.5 2t-6 4.5l-4.5 4.5t-5 2t-4 -2.5t-1 -4.5q0 -6 5 -9.5t10.5 -5.5t10.5 -3.5t5 -4.5
q0 -1 -1 -1.5t-2 -0.5q-6 0 -12 1.5t-11.5 5t-8.5 8.5t-3 11q0 4 1.5 6.5l3 5t3 4.5t1.5 4q0 8 -1 16t-1 15v15zM165 186q1 11 2 23t1 23q4 0 6 -2t3 -4.5t1.5 -5.5t0.5 -5q0 -10 -2 -17t-4 -16v-2q0 -1 1 -2l3 -3t3.5 -5t1.5 -8v-4v-4q-3 -3 -6.5 -5t-8 -3t-8.5 -1.5
t-8 -0.5h-7l-0.5 0.5t-0.5 1.5q0 2 2 3t5.5 2t7.5 1t7 0.5t5.5 1.5t2.5 4v10l-1.5 1.5t-2.5 1.5v0q-3 0 -5.5 -1.5t-5.5 -3.5t-5.5 -4t-6.5 -2q-2 0 -3.5 1t-1.5 3q0 4 2.5 5t5.5 1.5t6 1.5t3 4q0 4 -3 4.5t-7 0.5t-7 0.5t-3 2.5q0 3 2 3.5t4 0.5q4 0 8 -1.5t9 -1.5l2 0.5z
M96 120q0 -7 4 -9.5t10 -2.5h2t2 1v3v3q0 6 -2.5 9.5t-9.5 3.5q-4 0 -5 -3t-1 -5zM148 113q0 -2 1.5 -3.5t3.5 -2l4 -1t4 -0.5h3t3 1l0.5 0.5l0.5 0.5q1 1 2 3.5l1 2.5q1 4 -2 7.5t-6 3.5q-7 0 -11 -2.5t-4 -9.5z" />
</svg>
