<?xml version="1.0" standalone="no"?>
<!DOCTYPE svg PUBLIC "-//W3C//DTD SVG 1.1//EN" "http://www.w3.org/Graphics/SVG/1.1/DTD/svg11.dtd" >
<svg xmlns="http://www.w3.org/2000/svg" xmlns:xlink="http://www.w3.org/1999/xlink" version="1.1" viewBox="-10 0 266 256">
   <path fill="currentColor"
d="M196 245v4t3 2t5.5 -2t2.5 -4v-25q0 -35 -0.5 -68.5t-1.5 -67.5q0 -11 -0.5 -20.5t-5.5 -18.5q-1 -1 -6.5 -2t-12.5 -2t-15 -2t-14.5 -1.5t-11 -1.5t-4.5 -2v-20q0 -1 -1.5 -3t-2.5 -2q-2 0 -4 1t-3 2v6t-0.5 8t-1.5 7t-3 4h-8q-6 0 -12.5 0.5t-13.5 1.5t-13 3t-10 5
t-5 7q-3 14 -4.5 28.5t-2 29t0 28.5t-0.5 29q0 19 -1.5 38.5t-1.5 38.5q0 3 3 3q2 0 5.5 -1t3.5 -3v-52q1 -32 1.5 -64t4.5 -64q0 -1 0.5 -3.5t1 -4.5t2 -3.5t3.5 -2.5q3 0 9 -1.5t13 -2.5t13.5 -2t8.5 -2h3h5q1 0 6.5 0.5t13 1t15.5 1t15.5 1.5t12.5 2t6 2q2 2 1.5 4.5
t0.5 5.5v4.5v8t0.5 8.5t0.5 5v5t-0.5 9t-0.5 10.5v10.5v9v5t-0.5 2t-0.5 3v3v2v4t1 3v4t0.5 5.5t1 5.5t0.5 4v60q-1 4 -1 6.5v6.5zM144 244q0 1 0.5 2.5t2.5 1.5q1 0 3 -1.5t2 -3.5v-79q0 -2 1.5 -2.5t3.5 -0.5t4 1.5t3.5 4t2.5 5t1 4.5q0 3 0.5 7.5t1 9.5t1 9.5t0.5 6.5
v3.5v5.5v5.5v3.5q1 2 1.5 2h1.5q2 0 3.5 -1t2.5 -4l0.5 -3t0.5 -4q0 -5 -1 -9.5t-1.5 -9l-1 -9t-0.5 -9.5l-1 -4l-0.5 -2t-0.5 -4t-0.5 -3.5t-0.5 -2.5q-4 -5 -10 -7.5t-12 -3.5v-5q0 -7 4 -10t8.5 -5t8.5 -5t4 -12q0 -2 -1.5 -3.5t-2.5 -1.5q-4 0 -5 3t-2.5 6t-4 6.5
t-7.5 3.5q-1 -6 -1.5 -11t-0.5 -10q0 -3 2 -4t4.5 -2l5 -2t5 -3t4 -5.5t1.5 -9.5q0 -3 -0.5 -4t-4.5 -3q-3 2 -3.5 5t-1.5 6.5t-2.5 6t-5.5 2.5h-1l-1 -1q-3 -5 -3 -10v-10q-1 -2 -2.5 -2.5t-2.5 -0.5v24l-2 0.5t-3 1.5h-1q-4 0 -5 -3t-1.5 -6.5t-1.5 -6.5t-5 -3
q-3 0 -3 1.5v2.5q0 5 1 8.5t2 7.5q4 3 9.5 4t9.5 2v3v2.5v3.5v2v8t-2 7v1q-4 0 -6 -2.5t-3.5 -5.5t-2.5 -5.5t-5 -2.5q-1 0 -1 1t-0.5 2t0 1.5l0.5 0.5q0 8 3 11t6 4t6 0.5t3 1.5v15l-1 0.5t-2 1.5q-9 4 -12 7t-3.5 6t-0.5 7t-3 9q-1 13 -2 25.5t-1 25.5q2 0 6 -2.5t4 -5.5
v-29q1 -1 1 -4.5t0.5 -7.5l1 -8t1.5 -7.5t2.5 -6t4.5 -2.5q1 0 2.5 0.5t1.5 1.5q0 3 0.5 11.5t0.5 18t0.5 17.5t0.5 12v2q0 5 -1 9.5t-1 9.5zM99 193q0 11 -2 22t-2 23q8 0 10 -7q2 -38 3.5 -76.5t1.5 -76.5v-16q-1 -2 -2.5 -3t-3.5 -1q-1 0 -2.5 0.5t-0.5 3.5v13q0 5 -2 12
l-0.5 1.5t-1.5 1.5h-10v-20q0 -3 -1.5 -3.5t-2.5 -0.5t-1.5 0.5t-1.5 0.5q0 15 -3 31t-3 32q4 0 6 -2.5t3 -6t1 -8t1 -8t2.5 -6t5.5 -2.5q2 0 4 1t4 3q-1 3 -1 9.5v14.5t-0.5 16t-0.5 14.5t-1 10.5t-2 4h-11q-1 0 -2 -1.5t-1 -3.5v-1t0.5 -2.5t0.5 -2.5v-1v-5v-6
q0 -1 -1 -1.5t-2 -0.5q-2 0 -2 1t-1 3v2t-0.5 5t-0.5 5v3v16q-1 6 -3 13.5t-2 13.5v3.5t2 1.5q4 0 5.5 -3t1.5 -6q0 -1 0.5 -4.5t0.5 -6.5t0.5 -6.5t0.5 -4.5q0 -3 2.5 -4t4.5 -1h1q0 1 3.5 1.5t3.5 2.5q1 0 1 2t0.5 4.5t0.5 4.5v2zM121 62l2 2t3 1h2.5t5 -0.5t5 -0.5h2.5
q1 0 2 -0.5t2 -0.5t2.5 -0.5l1.5 -0.5h1h1l2.5 0.5t5 0.5t5 0.5l2.5 0.5h1q1 0 3 -0.5l4 -1t3.5 -1.5t1.5 -2v-1.5v-0.5q-1 0 -3.5 -0.5l-2.5 -0.5h-1h-1q-3 0 -9 0.5t-13.5 1t-14 0.5t-8.5 1q-2 0 -3 1z" />
</svg>
