<?xml version="1.0" standalone="no"?>
<!DOCTYPE svg PUBLIC "-//W3C//DTD SVG 1.1//EN" "http://www.w3.org/Graphics/SVG/1.1/DTD/svg11.dtd" >
<svg xmlns="http://www.w3.org/2000/svg" xmlns:xlink="http://www.w3.org/1999/xlink" version="1.1" viewBox="-10 0 266 256">
   <path fill="currentColor"
d="M52 246q0 2 1 3t3 1h1q1 0 3.5 -1.5t2.5 -3.5t-0.5 -3.5t-0.5 -3.5q0 -5 0.5 -9.5t0.5 -9.5q0 -3 0.5 -12t1 -21t0.5 -25t0.5 -25t1 -21t0.5 -12v-13v-11v-10.5t1 -12.5q1 -3 3.5 -4t4.5 -2q1 -1 3 -1.5t5 -1t5 -0.5t3 -1q12 -1 21.5 -2t20.5 -1t22 1.5t22 1.5q3 2 4.5 5
t2 5.5t0 6t0.5 5.5q0 2 0.5 6.5t1.5 9.5t1.5 10t0.5 6v9t0.5 17.5t0.5 19v15.5v6l1 80q0 1 1.5 1.5l1.5 0.5h1h1q1 -1 3 -3.5t3 -2.5v-3v-2.5v-2.5v-2v-8t-2 -8q1 -14 0.5 -29.5t-3.5 -29.5v-60v-4.5t-0.5 -7.5t-0.5 -7.5v-5.5q-1 -3 -1 -7t-1 -9t-3 -9t-5 -6q-12 -5 -26 -6
t-26 -1q-3 1 -3.5 -1t-0.5 -3q0 -3 1 -5.5t1 -4.5q0 -3 -3 -5t-6 -2q-1 0 -2.5 0.5t-2.5 2.5v16q-1 5 -5 5.5t-8 0.5q-3 0 -5.5 -1t-5.5 -1t-9 0.5t-11.5 2t-10 4.5t-5.5 7q-1 15 -1 30v30l-0.5 2.5t-0.5 3.5v5v10v9v6l-1 3l-1 3v2v2.5v3.5v3v2v3.5v3.5v2q1 1 1.5 2t0.5 3
q0 3 -1 5.5t-1 6.5v5v3v1t0.5 2l1 2l0.5 1q0 10 -2 20t-2 20zM90 156v2l0.5 1t1 2.5t0.5 2.5v2v6v11v11v6q0 9 5.5 13t13.5 5t16 0.5t15 0.5h5h7q2 0 5 -0.5t6 -0.5t7 -1q1 0 2.5 -2t1.5 -3h-6t-9 -0.5t-9 -0.5h-6h-3q-3 0 -5.5 -0.5t-4 -2t-1.5 -3.5v-1v-1q0 -1 0.5 -3
t0.5 -4t0.5 -3.5l0.5 -1.5l1 -2q10 -1 16.5 -2.5t10 -5t4.5 -10t1 -17.5q0 -3 -2 -3.5t-4 -0.5q-4 0 -4.5 2t-0.5 5.5t0.5 8t-0.5 8t-5.5 5.5t-13.5 2h-1l-1 -1v-19t-1 -19l3.5 -0.5t8 -1t10 -1.5t10 -2t8 -2t3.5 -2q0 -2 -2 -3t-4 -1q-11 0 -22.5 1l-23 2l-23 2t-23.5 0
q-1 1 -1 2v2v3t3 1h43l1 2v2q0 1 0.5 3t0.5 4v3q0 13 -1.5 26t-0.5 26q-2 2 -4 2h-5q-8 0 -12 -7t-5.5 -16t-1 -18.5t0.5 -15.5l-0.5 -1t-1.5 -1q-2 0 -3.5 1.5t-1.5 3.5zM103 116q1 0 3.5 0.5t5.5 1t5.5 0.5t3.5 1v0h1q2 -1 6.5 -1t9.5 -0.5t9.5 -1t6.5 -0.5q3 -5 6.5 -9.5
t3.5 -10.5q0 -5 -1.5 -9.5t-1.5 -8.5l-3 -12t-4 -5.5t-8 -1.5h-13h-7t-6 0.5l-6 1t-8 1.5q-3 3 -5.5 6t-3.5 7v13v6v8.5t1.5 8t4.5 5.5zM102 97v-2t1 -1q3 -1 9 -1t13 -1t13 -1.5t8 -0.5h4q4 0 5 2.5t1 5.5q0 6 -2.5 8.5t-6.5 3.5t-9 1h-8h-9t-9 -1.5t-7 -4t-3 -8.5zM105 83
v-11q0 -2 4.5 -3t10 -2t10.5 -1.5t7 -0.5q3 0 6 0.5t5.5 1.5t4 3t1.5 5v3.5t-1 2.5q-10 3 -18 3.5t-17 0.5h-3t-3.5 -0.5t-3 -0.5h-2.5z" />
</svg>
