<?xml version="1.0" standalone="no"?>
<!DOCTYPE svg PUBLIC "-//W3C//DTD SVG 1.1//EN" "http://www.w3.org/Graphics/SVG/1.1/DTD/svg11.dtd" >
<svg xmlns="http://www.w3.org/2000/svg" xmlns:xlink="http://www.w3.org/1999/xlink" version="1.1" viewBox="-10 0 266 256">
   <path fill="currentColor"
d="M195 240q1 4 4 7.5t7 3.5q0 -5 -1 -10l-2 -10t-2 -10.5t-1 -10.5v-81v-8v-9t0.5 -9t2.5 -7q0 -2 0.5 -7.5t1.5 -12t1.5 -12t0.5 -7.5q0 -1 0.5 -2t0.5 -2t0.5 -2.5l0.5 -1.5v-1v-1q0 -6 -2 -9t-4.5 -5.5t-6 -4.5t-6.5 -5h-46q0 -3 0.5 -5.5t0.5 -5.5v-1q-4 -4 -11 -4
q-2 0 -2.5 1.5t-0.5 3.5v4.5t-2 2.5q-7 4 -15 5t-15.5 1.5t-14 1.5t-11.5 4.5t-8.5 10t-3.5 18.5v4.5t2 4.5v27l1.5 3t0.5 3q0 7 -1.5 15.5t-2.5 15.5v21t-0.5 22t-2 21.5t-4.5 20.5q-1 3 -2.5 6l-3 6t-2.5 6t-1 6q5 0 9 -6t7 -14.5t5 -16t2 -11.5q0 -2 0.5 -7t1 -11
t1 -11.5t0.5 -7.5l1 -4v-25t0.5 -26l1 -26t0.5 -25q1 -8 8.5 -12.5t16.5 -6.5t18.5 -2.5t15.5 -0.5q11 0 21.5 1.5t21.5 2.5q7 2 11.5 3t7.5 3t4 6.5t1 11.5v7q0 3 -0.5 6.5t-1.5 7t-3 6.5q-3 15 -4 31t-1 32q0 3 1 5t1 5v4q0 1 -0.5 5t-0.5 8t-0.5 8l-0.5 4q0 4 0.5 11.5
t1.5 16t1.5 16t1.5 10.5zM93 189q0 17 7.5 26t24.5 9h7h7t6.5 -0.5t8.5 -0.5q4 -2 7 -5.5t4.5 -7.5t2 -8.5t0.5 -8.5v-5l-1 -2q-5 4 -7.5 9t-5 9t-6 7.5t-11.5 3.5q-6 0 -6 -8v-3v-10t0.5 -11.5t0.5 -9.5v-4l2 -1q1 0 4 -0.5t6 -0.5t6 -0.5t4 -0.5h3t4.5 -0.5t4 -1.5t2.5 -3
l-3 -3h-5.5h-8t-8 -0.5t-5.5 -0.5l-2 -0.5t-2 -1.5q-1 -1 -1 -4v-6t-1 -5.5t-3 -2.5h-2q-2 4 -2 10t1 10l-0.5 0.5t-1.5 0.5h-8q-1 1 -4 1t-6.5 0.5t-6.5 1t-5 0.5q0 1 -0.5 1.5l-0.5 0.5v1q0 1 2 2.5t3 1.5h25q1 0 1 2v3v10.5t-0.5 11.5t-1 11.5t-2.5 8.5h-2q-5 0 -8 -4
t-6 -9t-5.5 -9t-5.5 -4zM125 111q-3 0 -6.5 3.5t-7.5 8.5t-7 9t-5 6t-5 4t-6.5 4t-5.5 4.5t-2 5.5q2 0 6.5 -2t9 -4.5t8.5 -5t6 -4.5q1 -1 2 -2.5t2.5 -4t3 -4l2.5 -2.5q2 -3 2.5 -4t3.5 -1q2 0 4 0.5t4 1.5q1 1 4 3.5t6 5.5t6 5t4 3t4.5 3t6.5 4t6.5 3t5.5 1h2.5t1.5 -2
t-1 -3t-2.5 -2t-3 -1t-2.5 -1l-8 -6t-7.5 -6t-7.5 -6.5t-8 -5.5l-2.5 -1t-5 -2.5t-4.5 -2.5t-3 -1l-0.5 -0.5zM91 101l0.5 0.5l0.5 0.5q0 1 1 2l1 1h68q3 0 7.5 -1t4.5 -6h-39l-3 -2v-12l2 -2h4t6.5 -0.5t6.5 -1t5 -0.5h3t6 -0.5t5.5 -2t2.5 -2.5v-0.5v-0.5l-0.5 -0.5
l-0.5 -0.5h-27q-5 -1 -8 -2.5t-3 -6.5v-1v-3t0.5 -3l0.5 -1h24q1 0 3 -2t2 -3v-2q-1 -1 -4 -1.5t-4 -0.5h-5h-9h-8h-5h-3.5t-5 -0.5t-5.5 -0.5h-3q-4 0 -9 1t-9 4q1 1 2.5 2t2.5 1l27 3v16l-30 3q-2 0 -3 1.5t-1 3.5h29q1 0 1.5 1t0.5 2v4q0 6 -3 8.5t-7.5 3t-9.5 0
t-10 -0.5l-0.5 0.5l-0.5 0.5q0 1 -0.5 1h-0.5z" />
</svg>
