<?xml version="1.0" standalone="no"?>
<!DOCTYPE svg PUBLIC "-//W3C//DTD SVG 1.1//EN" "http://www.w3.org/Graphics/SVG/1.1/DTD/svg11.dtd" >
<svg xmlns="http://www.w3.org/2000/svg" xmlns:xlink="http://www.w3.org/1999/xlink" version="1.1" viewBox="-10 0 266 256">
   <path fill="currentColor"
d="M135 247v1l2.5 2.5t2.5 1.5q1 1 2.5 -1t3 -5.5t2.5 -7.5t1.5 -8t1 -6.5l0.5 -2.5q0 -5 -3 -7.5t-6.5 -4t-6 -3t-2.5 -2.5v-13q10 -1 21 -1.5t22 -0.5q1 0 2 -1.5t1 -2.5q0 -3 -2.5 -3.5t-4.5 -0.5q-19 0 -40 0.5t-40 0.5h-4q-2 0 -4.5 0.5t-4 1.5t-1.5 3q0 4 1 4.5t4 0.5
q9 0 17.5 -0.5t17.5 -0.5l2.5 -0.5t2.5 1.5v17q0 3 3 4t6 2.5t6 3.5t3 5t-0.5 6t-2 5.5t-2.5 5.5t-1 6zM57 169q0 2 0.5 3t2.5 2h6q10 0 21 -1t21 -4h89q1 0 1 -2v-2q0 -4 -2.5 -5t-5.5 -1t-5.5 0.5t-5.5 1.5h-29l-2 -2v-2v-4v-4t0.5 -4t1.5 -3t4 -1h3.5t2.5 1v13
q0 1 1.5 1.5l1.5 0.5q4 0 4.5 -3.5t0.5 -5.5q0 -4 -1 -6t-1 -5q0 -5 1.5 -8.5t1.5 -8.5v-2v-3l-0.5 -0.5l-0.5 -0.5h-1q-3 0 -4.5 2t-2 5t-1.5 6t-3 4q-4 2 -8.5 3t-9 1h-9.5h-9h-8.5t-9.5 -2q-2 -1 -2.5 -3.5t-1 -5.5t-1 -5.5t-3.5 -2.5v0q-2 1 -2.5 3t-0.5 4v0v3.5t0.5 5
t0.5 5v2.5v3q0 2 -0.5 4t-0.5 4v5t3 2q1 0 3.5 -1t2.5 -2v-12q0 -1 2.5 -1h2.5h2.5t2.5 0.5t2 1.5t1 2l-3 16l-1 0.5l-1 0.5q-1 0 -2.5 0.5t-3 0.5h-3h-1.5q-2 0 -7.5 0.5t-11.5 0.5t-11.5 -0.5t-7.5 -0.5q-1 1 -2 3t-1 3zM122 161q-1 -1 -1 -2.5t-0.5 -3.5t-0.5 -3.5v-2.5
l0.5 -2.5t1.5 -3.5q0 -1 1 -1h15q1 0 2 2t1 3v0q0 2 -0.5 4.5t-1.5 5t-2.5 4t-4.5 1.5h-1q-1 0 -4.5 -0.5t-4.5 -0.5zM60 120q0 1 0.5 3.5l1 5t2 4t4.5 1.5q2 0 3.5 -5t3 -13t2 -17.5t1.5 -19t2.5 -17.5t3.5 -13q1 0 3.5 -1t5.5 -2t5.5 -1.5t3.5 -0.5q1 -1 4 -0.5t4 0.5v10
q0 4 -2 8q-2 3 -5.5 5t-6.5 4t-5.5 4.5t-2.5 6.5v22l1 2t2 3q0 1 0.5 1h0.5h26l1 3.5t2.5 7l3 7t4.5 3.5q2 0 2.5 -0.5t0.5 -1.5v-2.5t1 -3.5l0.5 -1t1.5 -2l2 -2t1 -2q1 -1 1.5 -3t2.5 -3q5 -1 10.5 -1.5t9.5 -2t7 -5t3 -11.5q0 -7 -3 -11.5t-6 -8t-5.5 -7.5t-2.5 -10
q0 -9 10 -9h1h2.5h3.5t3.5 0.5l1.5 0.5q3 2 5 6t2.5 8t0 8.5t-0.5 8.5q0 9 -1.5 18t-1.5 18v5t1 5q0 2 1 3.5t3 1.5q3 0 5.5 -3t2.5 -6v-19v-23q0 -13 -1 -24q-2 -10 -8 -14.5t-14 -6t-16.5 -1t-14.5 0.5l-2 -2v-17q0 -3 -2.5 -3.5t-4.5 -0.5h-2.5t-1.5 1q-1 3 -0.5 6t0 6
t-1.5 6t-3 5q-7 1 -15 1.5t-16 2t-14 6t-9 11.5q0 10 -0.5 20.5t-1.5 20.5q-1 2 -2 5t-2 7t-1.5 7.5t-0.5 6.5zM114 78q-1 0 -2.5 1.5t-1.5 3.5v1l0.5 2l1 4l1 4l0.5 2v1v1q0 3 -3 4.5t-5 1.5q-8 0 -9.5 -4.5t-1.5 -11.5v-2q2 -2 5 -4.5l6 -5l6 -5t5 -5.5q3 -4 3 -9v-8.5
t2 -7t9 -2.5l2 1l2 1h3h4.5h4.5h4q0 4 -1 8.5t-1 8.5q0 7 2.5 12t5.5 8.5t5.5 6.5t2.5 5q0 3 -1.5 5t-4 3.5t-5 2.5t-4.5 1h-3t-1 -3l0.5 -2.5l0.5 -2.5q1 -1 1 -2v-2q0 -2 -1.5 -5t-3.5 -3q-3 0 -4.5 5t-2.5 11.5t-2.5 11.5t-4.5 5q-2 0 -3.5 -3t-2 -7t-1 -9t-1.5 -9
t-2.5 -6.5t-3.5 -2.5z" />
</svg>
