<?xml version="1.0" standalone="no"?>
<!DOCTYPE svg PUBLIC "-//W3C//DTD SVG 1.1//EN" "http://www.w3.org/Graphics/SVG/1.1/DTD/svg11.dtd" >
<svg xmlns="http://www.w3.org/2000/svg" xmlns:xlink="http://www.w3.org/1999/xlink" version="1.1" viewBox="-10 0 266 256">
   <path fill="currentColor"
d="M188 249q0 1 1 1.5t2 0.5q3 0 4.5 -1.5t2.5 -3.5t1 -4.5v-4.5q0 -34 -1 -67.5t-1 -68.5q-1 -4 -1 -6v-5t0.5 -4.5t0.5 -3.5v-3q0 -1 -0.5 -3.5l-0.5 -2.5v-5.5v-7.5v-8.5v-5.5q-1 -1 -1.5 -3t-1.5 -4t-2.5 -4t-2.5 -3q-9 -2 -16.5 -3t-16.5 -2q-6 0 -10.5 0.5t-9.5 -1.5
q-1 0 -1.5 -0.5t-0.5 -1.5v-14q0 -1 -1.5 -1.5t-2.5 0t-2 0.5q-3 0 -5.5 1.5t-2.5 4.5t1 5t1 4t-3.5 3t-9 2t-12.5 1.5t-13 1.5t-11.5 3t-8.5 5q-2 2 -2.5 4.5t-0.5 5.5v5v5q0 5 0.5 9.5t0.5 8.5q0 12 -2 24t-2 23q0 4 1 7l2 6v4v4.5v4.5v4q0 7 -1 13.5t-1 12.5q0 2 1 3.5
t1 3.5q0 4 -1 6.5t-1 6.5q0 3 1 6t1 6v2l-0.5 3t-0.5 5.5t-0.5 5t-0.5 3.5v1v1v1q0 2 0.5 4.5t1 4t1.5 2.5h1q3 0 5 -2t2 -4v-37v-37v-3t-0.5 -6.5t-0.5 -6.5v-4q0 -21 1.5 -42t1.5 -43q0 -3 -1 -5.5t-1 -4.5q0 -4 4 -7t10 -4.5t13.5 -2.5t15 -1.5t12.5 -0.5h9h3h5h5h3
q5 3 9.5 3t8.5 -0.5t7 -0.5t5.5 1.5t4 5.5t1.5 12v6.5t0.5 12.5t0.5 12.5v7.5v10v17v22v21v18v10t0.5 11t0.5 17t0.5 17t0.5 11zM108 213q0 1 1.5 6.5l3 11t4 10.5t4.5 5t5.5 -1.5t3.5 -4.5t-2 -5.5t-4 -5.5t-4 -6.5t-2 -8.5q0 -3 0.5 -6t2 -5.5t4 -4.5t5.5 -2t6.5 4.5
t7 10.5t6.5 11.5t5 7.5q0 1 1 2.5l2 3t2 2.5l2 2h1h2q3 0 5.5 -1t2.5 -4l-0.5 -0.5l-0.5 -0.5q0 -1 -1.5 -2.5l-3 -3l-2.5 -2.5l-2 -2t-5 -5.5t-7.5 -10t-6.5 -10t-3 -6.5q0 -1 2 -2.5t4 -3.5t3.5 -5t1.5 -6q0 -4 -1.5 -6.5t-3.5 -4.5t-4 -5.5t-2 -10.5q0 -4 3.5 -5.5t8 -4
t8.5 -8t4 -17.5q0 -3 -0.5 -8t-1 -10.5t-1.5 -10t-2 -5.5q-2 -2 -4.5 -3l-5 -2t-4.5 -2.5t-2 -4.5q0 -2 0.5 -3.5t2.5 -3.5h4.5t7 -0.5t6.5 -0.5h4h3q0 -2 -1.5 -4.5t-2.5 -2.5h-21v-1.5t-0.5 -3.5t-1.5 -3l-1 -1h-1v0l-2 2l-1 1l-4 25h-20l-1 -1v-6v-8t-1.5 -7.5t-5.5 -3.5
q0 -1 -2 -1h-2v10l-1.5 0.5t-1.5 1.5h-3.5t-5.5 0.5t-5.5 0.5h-3.5l-1.5 1.5l-1.5 1.5q0 2 1 3t3 1.5t4 0.5h2h1q1 0 4 -1.5t5 -1.5q4 0 5.5 2t1.5 6q0 3 -2 5.5t-4.5 4.5t-4.5 5t-2 6v33q0 6 2.5 9t5.5 5t5.5 3.5t2.5 5.5v2.5t-2 1.5q-1 1 -3.5 2.5t-5.5 3.5t-5 3t-3 2
q-1 0 -3 0.5t-3.5 1.5l-3 2t-1.5 3t0.5 3t2.5 1q3 0 8 -2t10.5 -5t9.5 -5.5t5 -5.5q1 -2 1.5 -4l1 -4t2 -3t5.5 -1t5.5 3t2 6.5t1 7.5t1.5 6q1 1 1.5 2t2 2t2.5 1.5t1 1.5v1v2q0 4 -2.5 5.5t-6.5 3t-8.5 3.5t-8.5 4.5t-6.5 7.5t-2.5 13zM102 126q0 -3 2 -4t4 -1h3.5
t6.5 -0.5t8 -0.5h6h1v0h4t6 0.5t5.5 0.5h3.5v2q0 5 -2 7.5t-5.5 3.5t-7.5 1h-7t-7.5 0.5t-9 0t-8 -3t-3.5 -6.5zM100 107q0 -1 0.5 -2.5t1.5 -2.5q6 0 10.5 -0.5t8.5 -0.5h8.5h9.5h5h5q3 1 4 2.5t1 3.5v2v1q-1 1 -3.5 2t-3.5 1h-40q-1 0 -3.5 -1.5t-2.5 -2.5l-0.5 -1z
M100 89q0 -2 3.5 -5t6.5 -4q7 0 13.5 -0.5t13.5 -0.5h5t5 1.5t3.5 3t1.5 4.5v2v1q-7 2 -15 2h-15h-4h-5.5h-5.5h-3t-2 -1.5l-1 -1.5l-0.5 -0.5z" />
</svg>
