<?xml version="1.0" standalone="no"?>
<!DOCTYPE svg PUBLIC "-//W3C//DTD SVG 1.1//EN" "http://www.w3.org/Graphics/SVG/1.1/DTD/svg11.dtd" >
<svg xmlns="http://www.w3.org/2000/svg" xmlns:xlink="http://www.w3.org/1999/xlink" version="1.1" viewBox="-10 0 266 256">
   <path fill="currentColor"
d="M155 152q2 0 5.5 6.5t6 16t5.5 20.5t5 22t4 19l3 12q1 1 2.5 1.5t3.5 0.5l1.5 -0.5l1.5 -0.5q1 0 2 -2.5t1 -3.5q0 -3 -1.5 -9t-3 -12.5t-3 -12.5t-2.5 -9q-1 -5 -3.5 -11t-5 -11.5t-4 -11t-1.5 -11.5q0 -1 0.5 -3t0.5 -3q13 -6 19 -15t6 -23v-1q-4 -10 -7.5 -16t-8.5 -8
t-12 -2.5t-18 -0.5q-21 0 -41 2t-41 5l-2 2t-2 3q-1 2 1 3.5t3 1.5q7 0 14 -2t14 -3q13 -2 26 -2h26h23q7 4 10 9.5t3 14.5q0 8 -4 14t-13 6q-4 0 -5.5 -2.5t-3.5 -6t-3.5 -7.5t-4.5 -6h-3h-4.5h-4.5h-3q-10 0 -19 1l-18 2l-18 2t-18 0q-3 1 -4.5 2t-1.5 4q0 2 0.5 3.5
t3.5 2.5h3h3q9 0 17 -1t17 -2.5t17.5 -2.5t16.5 -1q4 0 7 0.5t5.5 2t4 3.5t1.5 6q0 5 -6.5 7t-17 3t-22.5 1.5t-22 1t-17 2t-7 5.5v1l4 3h10q10 0 19.5 -1.5t19.5 -3l20 -3t20 -1.5zM60 191v2.5t2 1.5h2.5h2.5h3h2h9t15.5 -0.5t18 -1.5t17.5 -2t14 -2t8 -3v-1.5v-2.5
q0 -3 -0.5 -4.5t-3.5 -1.5q-7 0 -12.5 2.5t-12.5 3.5q-2 0 -8.5 0.5t-14 1t-14 1t-9.5 0.5q-1 0 -4.5 -0.5t-6.5 0t-5.5 1.5t-2.5 5zM66 36q0 2 0.5 8.5t1.5 13.5t3 12.5t6 5.5q3 0 4.5 -2t1.5 -6q0 -7 -2 -14t-2 -14q0 -5 2.5 -7t6.5 -2.5t8 -0.5h8q6 0 9.5 4t5 10
t1.5 12.5t1 10.5q1 1 3 2.5l2 1.5q4 0 5.5 -3.5t1.5 -5.5q0 -4 -1 -7t-2 -6.5t-2.5 -7t-1.5 -6.5q0 -2 0.5 -5t3.5 -3q1 0 3 -0.5t4 -0.5t4 -0.5t3 -0.5h2q5 0 8 3q1 2 3 6.5t4.5 9.5l4.5 9l3 6t2 3.5t2.5 3t3 2.5t3.5 1h3.5t2.5 -2l0.5 -1.5t0.5 -2.5q0 -5 -3.5 -9l-7 -8
t-6.5 -8t-3 -10q0 -3 2.5 -4t5.5 -2t6.5 -2t4.5 -4q-1 0 -1 -0.5t-0.5 -1.5t-0.5 -1.5t-1 -1.5h-7h-6t-6 2l-80 9q-4 1 -7.5 1.5t-5.5 1.5t-3.5 3.5t-1.5 7.5z" />
</svg>
