<?xml version="1.0" standalone="no"?>
<!DOCTYPE svg PUBLIC "-//W3C//DTD SVG 1.1//EN" "http://www.w3.org/Graphics/SVG/1.1/DTD/svg11.dtd" >
<svg xmlns="http://www.w3.org/2000/svg" xmlns:xlink="http://www.w3.org/1999/xlink" version="1.1" viewBox="-10 0 266 256">
   <path fill="currentColor"
d="M148 248q0 2 1.5 2.5t2.5 0.5q3 0 4 -1.5t1 -3.5q1 0 1 -2v-4v-3v-2v-3v-4v-3.5t-1 -1.5q0 -2 -0.5 -6.5t-1.5 -9.5t-2 -9t-1 -6q-1 0 -1.5 -1.5l-0.5 -1.5v-0.5v-0.5q0 -3 3 -5t7.5 -4t8 -5t3.5 -9q0 -3 -2 -6.5t-4.5 -6.5t-5 -5.5l-4.5 -4.5h-2q-1 0 -3.5 1t-2.5 3v0.5
v0.5q3 2 5 3.5t4 4t3 4.5t1 5q0 5 -4 9.5t-9 4.5q-1 0 -3.5 -2.5t-5 -5.5t-4.5 -5.5t-3 -3.5q-2 -2 -6.5 -4.5l-9 -5t-9 -3.5t-7.5 -1q-2 0 -3 1t-1 2q0 3 3 4.5t8 3t10 3.5t9.5 4.5t7.5 6t3 8.5q0 2 -2 3.5t-5 2t-6 0.5h-4q-9 0 -14.5 -3.5t-8.5 -7.5t-5.5 -7.5t-6.5 -3.5
q-2 0 -3 0.5t-1 3.5q0 4 2.5 5.5t5.5 4.5q3 4 6 6.5t6 4.5t7 2.5t11 0.5q5 0 10 -1t10 -1q2 0 3.5 0.5t2.5 2.5q2 14 3 27.5t0 27.5zM76 214q0 3 0.5 4.5t3.5 1.5q14 0 26.5 -2t25.5 -2q2 0 3.5 -1.5t3.5 -2.5q-2 -2 -5 -3h-4h-5q-11 0 -22.5 1t-23.5 1l-1.5 1t-1.5 2v0v0z
M70 136q-2 5 -3 10.5t-1 10.5q4 0 5.5 -2t2.5 -5t2 -5.5t3 -3.5q9 -5 19 -5h20q2 0 2.5 1l1 2l1 2t1.5 1q2 0 3 -0.5t2 -2t1.5 -3t1.5 -2.5q1 0 3.5 -0.5l5 -1t4.5 -1t3 -0.5h2h4h3h2q4 0 7.5 -1.5t7.5 -1.5q3 0 4 2.5t1.5 5.5t1.5 5.5t4 2.5h1q0 -1 1.5 -2l1.5 -1v-3v-3
q0 -4 -1 -8t-3 -7.5t-3.5 -7.5t-2.5 -8q-1 -10 -1 -22v-22q0 -1 -1.5 -1.5t-2.5 -0.5q-4 0 -5 2.5t-1.5 5l-1 5t-2.5 3.5q-6 3 -14.5 4t-14.5 1h-1q0 -1 -0.5 -1.5t-1.5 -0.5v-5q0 -5 2.5 -8t6 -5t7 -3.5t7 -3.5t6 -5t2.5 -7q0 -3 -1.5 -7t-3.5 -7.5t-5 -6.5t-6 -2
q-1 0 -2 1t-1 2l-0.5 0.5l-0.5 0.5q0 2 1.5 4l3 4t3 4.5t1.5 5.5t-2 5t-4.5 3.5t-5.5 2.5t-5 1h-2.5h-1.5q0 -1 -1 -3t-1.5 -4l-1 -4t-1.5 -3q0 -1 -0.5 -2l-0.5 -1l-3 -3l-4 -4l-3.5 -3.5l-2.5 -2.5q-4 -3 -9 -6t-11 -3q-2 0 -4.5 1t-2.5 4q0 1 2.5 3t6.5 4t8.5 4.5
t8.5 5.5t6.5 7t2.5 9q0 3 -0.5 4.5t-4.5 2.5q-1 0 -3 0.5t-4.5 0.5t-4.5 0.5t-3 0.5h-1q-5 0 -8.5 -2t-7 -4.5t-7 -5.5t-6.5 -5h-1v0q-2 0 -2.5 2t-0.5 3q0 3 2.5 6t6 5.5t7 4.5t5.5 2h36v1v2q0 2 -0.5 6.5t-0.5 8.5v7.5v3.5q-1 5 -4.5 7.5t-8.5 3t-10 0.5h-9
q-1 0 -3.5 -0.5l-2.5 -0.5q-1 -2 -1 -7.5t-1 -10.5t-2.5 -9.5t-4.5 -4.5q-4 0 -4 3.5v6.5q0 4 0.5 7t1.5 7zM81 128l1 -12q0 -1 2 -2t4.5 -1.5t4.5 -1l2 -0.5h3t6 -0.5t6 -0.5h5h2h2t1 1v16l-5 3h-2.5t-7 0.5t-8.5 0.5h-7h-2h-2t-2.5 -0.5t-2 -1t-0.5 -1.5zM129 116
q2 -5 5 -7t6.5 -2.5t7.5 -0.5h9h3t4.5 0.5t4.5 0.5h3q0 1 1.5 4.5t1.5 5.5t-2.5 3t-3.5 2q-7 1 -16 3t-17 2q-4 0 -5 -1.5t-0.5 -3.5l1 -4t-2.5 -2zM129 94q0 -2 2.5 -5t4.5 -4q1 0 4.5 -0.5t7.5 -1t7.5 -1t5.5 -0.5h2h4t2 3v11l-2 1q-8 1 -15.5 2.5t-14.5 1.5
q-1 0 -2.5 -0.5t-2.5 -0.5l-1.5 -2.5t-1.5 -3.5z" />
</svg>
