<?xml version="1.0" standalone="no"?>
<!DOCTYPE svg PUBLIC "-//W3C//DTD SVG 1.1//EN" "http://www.w3.org/Graphics/SVG/1.1/DTD/svg11.dtd" >
<svg xmlns="http://www.w3.org/2000/svg" xmlns:xlink="http://www.w3.org/1999/xlink" version="1.1" viewBox="-10 0 266 256">
   <path fill="currentColor"
d="M173 250q1 1 2 1h2q6 0 6 -5q0 -7 -1 -13t-3 -11.5t-4.5 -11t-6.5 -11.5q-3 -2 -6 -4.5t-6.5 -5t-7 -4.5t-7.5 -2l-42 -3q-3 -1 -5 -2.5t-2 -5.5t1.5 -8.5t5.5 -7.5q7 -4 14.5 -6.5t14.5 -5.5t13.5 -6t13.5 -8q2 -1 5 -3.5t5.5 -4.5l2.5 -2v-7q-5 0 -9 3t-8.5 6.5
t-8.5 6.5t-9 3h-0.5h-0.5l-1 -0.5t-2 -1.5v-2.5v-2.5v-6.5t2 -6.5v-12t0.5 -19.5t0.5 -19.5v-13v-14v-14q-2 -7 -10 -7v95q0 1 -0.5 3.5t-0.5 5.5t-0.5 6t-0.5 5v1.5t-0.5 3t-0.5 2.5v1q-1 2 -6 4t-11 4.5t-11 6.5t-5 11v22q0 1 3.5 2.5t9 2.5t12.5 1.5t13 1t11.5 1t7.5 0.5
q7 1 12.5 8t9 16t6 18t2.5 15zM56 139q0 3 3 3t6.5 -2t5.5 -5q0 -2 2 -6t4.5 -8.5t4 -8.5t2.5 -5q3 -6 3.5 -12t2.5 -11v-52q0 -1 -0.5 -1t-0.5 -1h-4h-4v49q0 8 -2 15.5t-5.5 14.5t-7.5 13.5t-9 12.5q-1 1 -1 2v2zM171 35q0 18 1.5 36.5t6.5 36.5q0 2 2 8t4 11.5t4.5 10
t5.5 4.5q2 0 4.5 -1t2.5 -3q1 0 0.5 -1.5t-1.5 -1.5q-2 -4 -4 -6.5t-3.5 -5t-3 -5.5t-2.5 -7q-2 -3 -2 -5.5v-3.5v-3.5t-1 -3.5l-5 -69q0 -1 -1.5 -1.5t-2.5 -0.5q-2 0 -3 1t-1.5 3t-0.5 3v4z" />
</svg>
