<?xml version="1.0" standalone="no"?>
<!DOCTYPE svg PUBLIC "-//W3C//DTD SVG 1.1//EN" "http://www.w3.org/Graphics/SVG/1.1/DTD/svg11.dtd" >
<svg xmlns="http://www.w3.org/2000/svg" xmlns:xlink="http://www.w3.org/1999/xlink" version="1.1" viewBox="-10 0 266 256">
   <path fill="currentColor"
d="M123 248q1 1 2 1.5t2 0.5q3 0 4 -2.5t1.5 -6t0.5 -6.5v-4v-9t-2 -9v-52q4 0 6 2t2.5 5t0.5 7v7q1 13 2.5 25t0.5 25q1 2 1.5 2h1.5h2t1 -2v-3q0 -2 0.5 -4.5t0.5 -4.5v-3q0 -14 -1.5 -29t-3.5 -29q-1 -4 -4 -5.5t-5.5 -2.5t-4.5 -2.5t-2 -6.5v-2q0 -3 2 -3q5 -1 9 -1
t7.5 -0.5t6.5 -0.5h8h7l3.5 3.5t1.5 4.5v1q-7 6 -11 12.5t-5.5 13t-2 14.5t-0.5 16q0 9 1 17t1 17l1 1h1h1q1 0 2 -1t1 -2v-40q0 -1 0.5 -5t0.5 -8.5t0.5 -8.5t0.5 -5q0 -3 1.5 -5.5t5.5 -2.5h2v2.5t0.5 3t0.5 3v2.5v1v1v1.5t-0.5 3t-0.5 3v1.5v1v1v7v11.5t0.5 14t0.5 14
v11.5v7q1 0 2 0.5l1 0.5q4 0 4.5 -2t0.5 -5v-1.5v-1.5q0 -3 -0.5 -11.5t-1 -17.5t-1 -17.5t-0.5 -11.5v-3t0.5 -4t1 -4.5l0.5 -2.5q0 -3 0.5 -4t2.5 -1h1.5h1.5q0 1 1 3t2 5.5t1 4.5t0.5 5t1 9t1 9t0.5 5t0.5 2.5t1.5 2.5v26q0 2 1.5 2h2.5h2t2 -2v-2v-3.5v-3.5v-2
q0 -16 -2 -31.5t-6 -30.5q-2 -5 -4.5 -7t-5.5 -3.5t-5 -4t-2 -7.5q0 -2 2.5 -4.5l5.5 -5.5t6 -5.5t4 -3.5h1.5h0.5q3 0 5 1.5t6 1.5h3t3 -3q0 -3 -1.5 -4.5t-4.5 -2.5t-6 -1.5t-4 -1.5t-1.5 -3t-0.5 -4v-4q0 -3 -1 -4q-2 -4 -5 -5.5t-5.5 -2.5t-4.5 -3t-2 -7q0 -3 2 -4.5
t5 -2.5t6 -2.5t4 -3.5q1 -1 1 -3v-4.5t0.5 -4.5t0.5 -3l-0.5 -2t-0.5 -4v-3.5t-1 -2.5l-1 -0.5t-2 -1.5v0h-1q-1 1 -1.5 2l-0.5 1q0 1 -0.5 3.5t-1 5.5t-1 5.5t-0.5 3.5l-3 3q-3 -3 -3.5 -8l-1 -10t-1.5 -8.5t-5 -3.5h-23q-2 0 -2.5 1t-0.5 3q0 3 2.5 4.5t6 2t6.5 0.5h5
q3 3 3 6.5v6.5v4v3q0 2 -1.5 2h-2.5q-4 0 -4.5 -2.5t-1 -5.5t-1 -5.5t-4.5 -2.5v9.5t1 9.5q1 3 3.5 4l5 2t5 1.5t2.5 2.5v13q-1 0 -3 -0.5t-4 -0.5h-3h-2q-1 0 -3 0.5t-2 1.5h-1h-1q-1 0 -4 -0.5t-6.5 -0.5t-6.5 -0.5t-4 -0.5q-3 0 -4 -2t-1 -5t2.5 -4.5t5.5 -2t6 -2t3 -4.5
v-3.5v-5.5v-5.5v-3.5q1 0 1.5 -1t0.5 -2q-1 0 -2 -1t-1 -2h-1v0h-0.5h-0.5q-1 1 -2.5 1.5l-1.5 0.5v18q-1 0 -2.5 0.5t-3 0t-3 -1.5t-1.5 -3v-17q0 -2 -1 -4t-2.5 -3.5t-3 -2.5t-3.5 -1h-7t-8 1t-6.5 3.5t-2.5 6.5q0 1 1.5 2t3 2.5t2.5 3t1 3.5v1q0 1 -0.5 3.5l-0.5 2.5
q-2 -2 -6 -4.5l-8 -5t-7 -4l-3 -1.5v-24l-1 -1.5t-2 -2.5t-2 -1.5t-2 -0.5q-6 0 -6 7q0 4 1 8t1 8v5q0 3 -1 3q-1 2 -3.5 2t-4.5 0.5t-4.5 0.5t-4.5 2l-2.5 2.5l-3.5 3.5t-3.5 4t-1.5 4t1.5 4t3.5 2h2q3 -4 7.5 -8t10.5 -4h3.5t1.5 3q0 5 -3 11.5t-6.5 14t-7.5 14t-6 10.5
q-1 2 -2.5 2.5t-2.5 1.5l-2 2t-1 3t1.5 4t3.5 2t4 -2.5t4 -6t3.5 -6.5l2.5 -5l2 -2t3.5 -4t3.5 -3.5t3 -2.5q3 1 7 4t4 8q0 3 -1.5 5t-3.5 5q-5 8 -8.5 18.5t-5.5 20.5v4v6.5v6.5v3v6v6v6v3l1 4.5t2.5 10t2.5 11t2 8.5q0 1 1 4.5t2 6.5t3 5.5t5 2.5q1 0 2 -1t1.5 -2.5
t0.5 -2.5v-2t-1.5 -3.5l-1.5 -2.5q-3 -12 -6 -23.5t-3 -23.5q0 -2 -0.5 -7t-0.5 -11t-0.5 -11.5t-0.5 -6.5v-1v-1v-0.5v-0.5q4 -10 9 -21t10 -20v-2.5v-2.5q0 -4 -2 -6.5t-5 -5t-5 -5t-2 -8.5q0 -5 1.5 -9t1.5 -10h2h1q4 0 7 2t7 3t6 1h2q1 0 2 1l4 4q0 1 0.5 1.5l0.5 0.5
q3 1 5 1.5l4 1t3 2.5t1 5v4v2l-1 1l-1 1h-18q-2 0 -2 1.5v2.5q0 3 3 3h8t7.5 1.5t3.5 7.5q0 4 -4.5 4.5t-9.5 0.5t-9 0.5t-4 5.5q0 1 0.5 2t2.5 1h1l2 -0.5t4.5 -1t4.5 -1l2 -0.5h2q4 0 6 2.5t2 6.5q0 2 -1 4.5t-4 2.5t-6.5 -1t-6.5 -1h-5q-2 1 -2 2v2v2.5t2 1.5h18
q4 0 4.5 2.5t0.5 4.5q0 4 -2.5 5.5t-5.5 2.5t-6 3t-5 6q-2 6 -3 14t-1.5 17t0 17t0.5 14v10q0 1 1 2.5t2 1.5q2 0 2.5 -1t1 -3t0.5 -3.5v-1.5q0 -16 0.5 -31.5t4.5 -31.5q1 -4 2 -6.5t6 -2.5l0.5 0.5t0.5 1.5l0.5 2.5t1.5 3.5v1.5t0.5 3t0.5 3v1.5v1q0 5 -0.5 9t-0.5 9
q0 14 0.5 27.5t0.5 27.5zM129 127v-12q9 -1 15.5 -1.5t14.5 -0.5q2 0 5 0.5t5.5 1t4 2.5t1.5 5v3t-1 2q-21 0 -42 2zM185 115q3 0 3 3t-2.5 3.5t-4.5 0.5q0 -3 0.5 -5t3.5 -2zM180 99q0 -2 1 -2.5t3 -0.5t5 1.5t3 4.5q0 2 -1 3.5t-3 2t-3.5 0.5h-2.5t-1.5 -3t-0.5 -4v-2z
M132 105q-1 -2 -1 -3.5v-3.5t0.5 -3t3.5 -1h6h9t9 -0.5t6 -0.5h1q1 0 3.5 1t2.5 2v11h-19.5t-20.5 -2zM109 46q0 -3 1 -4t4 -1q2 0 3.5 0.5t2.5 2.5q0 1 0.5 3t0.5 4.5t0.5 4.5l0.5 2v2q0 2 -0.5 3.5t-2.5 1.5q-4 0 -5.5 -2t-2.5 -5t-1.5 -6t-0.5 -6z" />
</svg>
