<?xml version="1.0" standalone="no"?>
<!DOCTYPE svg PUBLIC "-//W3C//DTD SVG 1.1//EN" "http://www.w3.org/Graphics/SVG/1.1/DTD/svg11.dtd" >
<svg xmlns="http://www.w3.org/2000/svg" xmlns:xlink="http://www.w3.org/1999/xlink" version="1.1" viewBox="-10 0 266 256">
   <path fill="currentColor"
d="M186 244q0 3 1.5 5t4.5 2q2 0 4 -2t4 -3v-4v-4q0 -7 -2 -13.5t-2 -12.5q0 -1 1 -4l1 -3v-1v-2v-1v-1q0 -1 -0.5 -5.5l-1 -9t-1.5 -9t-1 -5.5v-4t-0.5 -5.5t-2 -4.5t-3.5 -2h-35l-0.5 -1.5t-1 -3.5t-0.5 -4v-3q0 -7 4.5 -9t11.5 -2q6 0 11.5 0.5t11.5 0.5h10q2 0 4.5 -2
t2.5 -4q0 -3 -3 -4.5t-6 -1.5q-23 0 -45.5 2t-46.5 2h-4.5t-4.5 -2v-4v-3v-7v-6t0.5 -6t1.5 -8q1 -4 8.5 -6t15.5 -3t15.5 -1h9.5h8.5t12 -0.5t12.5 -0.5t8 -1q4 0 5.5 -1.5t1.5 -4.5t-0.5 -4t-3.5 -1h-10t-18.5 1t-23 2.5t-22.5 3t-17.5 3.5t-8.5 5q-4 7 -5.5 14.5
t-1.5 15.5q0 3 -0.5 10.5t-0.5 15.5t-0.5 15.5t-0.5 9.5v62l-0.5 2.5t-1.5 3.5v1q0 1 0.5 3.5t1 5.5t2 5t2.5 2h1q1 0 3.5 -1.5t3.5 -1.5v-6q0 -9 -1.5 -18.5t-1.5 -18.5q0 -17 1 -33t0 -33l1 -1l1 -1h1h1l1.5 0.5t3.5 1t3.5 0.5h1.5h34q2 1 3 3.5t1 3.5t-0.5 2.5t-1 3.5
t-1.5 3.5t-1 2.5l1 3t1 4v5t-0.5 8.5t-0.5 8t-1 5.5l-1 2.5t-2 2.5h-12l-1 -1t-1 -2v-3t-0.5 -4t-0.5 -4v-3q0 -2 -0.5 -5.5t-1 -7.5t-0.5 -7.5v-5.5q-1 -1 -2.5 -4t-3.5 -3h-1q0 1 -1 2.5l-1 1.5v19q0 4 -0.5 9t0 10.5t2 10.5t5.5 7q5 1 9 1t8 0.5t8 0.5h8h6t8 -0.5t7 -2
t3 -4.5q0 -2 -1 -3.5t-3 -1.5h-17q-2 0 -2.5 -2t-0.5 -4.5v-5v-3.5v-3t0.5 -3.5t1 -2.5t1.5 -1h24l0.5 0.5t1.5 0.5q2 3 2 5v4t-0.5 5t0.5 7l0.5 2.5l1 5t1 4.5t0.5 3v7.5v11.5v12.5v7.5zM56 244l1.5 1.5l1.5 1.5l0.5 0.5l0.5 0.5l0.5 -0.5l0.5 -0.5l5 -5v-8q0 -27 -1 -52.5
t-1 -51.5q0 -13 2 -24.5t3 -23.5q2 -12 5 -17.5t8.5 -8t13.5 -3t20 -3.5l1.5 -0.5l1.5 -0.5h19q7 -1 16 -1t17.5 -1.5t14 -6.5t5.5 -15q0 -4 -2.5 -7.5t-5.5 -4.5h-5h-6.5h-6.5h-5q-22 0 -44.5 -0.5t-44.5 3.5q-2 1 -4.5 2.5t-2.5 3.5t2 3t3 1t5 0.5t5 0.5q19 0 38 -3t39 -3
h16q3 2 3.5 4.5t0.5 5.5v2q-2 1 -7.5 1.5t-11 1.5t-10.5 1.5t-7 0.5q-10 2 -20 2t-19 1t-17 3t-14.5 6.5t-10 13t-3.5 20.5q0 3 -0.5 9.5t-0.5 14.5t0.5 14.5t0.5 9.5q-3 9 -3.5 18t-0.5 18q0 19 2.5 38t1.5 38zM110 102q0 2 0.5 3.5t3.5 0.5h13h7h11.5t13 -0.5t12.5 -1.5
t9.5 -2.5t3.5 -3.5q0 -3 -2.5 -4t-5.5 -1h-4q-4 0 -12 0.5l-16 1t-15 1t-8 0.5q-5 1 -8 1.5t-3 4.5z" />
</svg>
