<?xml version="1.0" standalone="no"?>
<!DOCTYPE svg PUBLIC "-//W3C//DTD SVG 1.1//EN" "http://www.w3.org/Graphics/SVG/1.1/DTD/svg11.dtd" >
<svg xmlns="http://www.w3.org/2000/svg" xmlns:xlink="http://www.w3.org/1999/xlink" version="1.1" viewBox="-10 0 266 256">
   <path fill="currentColor"
d="M60 246l1.5 2t3.5 3h1q1 0 2 -1.5l2 -3t1.5 -3.5t0.5 -3v-161q2 -4 2 -7.5t1 -7.5q1 -3 3 -4t4.5 -2t5 -1.5t4.5 -2.5q5 0 9 -0.5t7 -0.5h6h8h7l1 2t0 2q0 1 -2 3l-2 2l-42 5q-1 0 -1 1.5v1.5v3t1 1h11q1 0 2.5 1t2.5 1l1 -0.5t2.5 -1t2.5 -1l1 -0.5q1 0 3 -0.5t4.5 -1
t5.5 -1t4 -0.5l0.5 -0.5l0.5 -0.5l0.5 0.5l0.5 0.5q3 2 3.5 5t0.5 8q0 2 -0.5 3.5t-0.5 3.5v5.5t1 5.5l-4 4h-19q-2 0 -1.5 -3l0.5 -3v-3q0 -1 2.5 -1.5t4.5 -1t4 -1.5t3 -1l0.5 -0.5t0.5 -1.5l-0.5 -1t-0.5 -2q-3 1 -6 1t-6 -1t-5 -2.5t-3 -4.5q-1 0 -1.5 0.5l-0.5 0.5
q-1 5 -4.5 6.5t-7 2t-6 1t-2.5 2.5q0 1 0.5 2.5t1.5 1.5h17l1 1q1 12 0.5 20.5t2 13.5t8.5 6.5t20 0.5v3t0.5 4t0.5 4v3v1v0q0 3 -3 4t-5 1h-1.5h-0.5q-2 0 -6 -0.5t-5 -1.5t-1.5 -3.5l-1 -5t-1.5 -4.5t-3 -2t-3 2.5t-1 4.5q0 7 2.5 10.5t6 5t7.5 1.5h7.5t6 1.5t2.5 4.5
t-3 5t-7.5 3.5t-9 4t-7.5 6.5q-1 1 -2.5 6t-2.5 11.5t-2 11.5t-1 7v2v3t1 2t2 1q2 0 3 -1.5t2 -3.5l2 -14t3 -13t6.5 -10.5t11.5 -7.5q3 1 3 5v6v5t-2 5v35l0.5 0.5l1.5 1.5l1 0.5t2 0.5q2 0 3.5 -2t2.5 -4v-9t0.5 -13.5t0.5 -14v-9.5q1 -2 1 -4t3 -2q4 0 7.5 1t5.5 3t4 4.5
t5 5.5v9v12t1 10t4 4q5 0 6 -4t1 -7v-1q0 -2 -0.5 -5.5t-1.5 -8t-1.5 -8.5t-0.5 -6l-2 -1l-0.5 -2t-1.5 -3.5t-1.5 -3t-0.5 -2.5q-2 -2 -7.5 -3t-10.5 -2t-8.5 -3t-2.5 -5q0 -3 5 -4t10.5 -2t10 -2.5t4.5 -5.5v-12q0 -2 -1 -2h-2q-2 0 -3.5 1.5t-2.5 4t-1.5 4.5t-1.5 2
q-4 4 -8 3.5t-9 -0.5v-13q0 -3 2.5 -3.5t6.5 -1t8.5 -0.5t8.5 -0.5t6.5 -2.5t2.5 -5v-1l-0.5 -1.5l-0.5 -1.5h-3h-2q-6 0 -12 1t-12 1q-2 0 -4 -3t-2 -5q0 -5 3 -7t7 -2.5l8 -1t6 -3.5q1 -1 1.5 -4t1.5 -6t2.5 -5t3.5 -2h20q1 0 2.5 -3t2.5 -4v-1v-1q-1 0 -1.5 -0.5
l-0.5 -0.5h-23q-1 -1 -4.5 -2.5t-4.5 -2.5h-1q-2 0 -3.5 1.5t-3.5 2.5t-4.5 2.5t-6.5 1.5q-3 0 -4.5 -1t-1.5 -4q0 -4 5.5 -6t12 -3t13.5 -1h9q1 0 3 -0.5t3.5 -0.5t3.5 -0.5l2 -0.5q2 0 2 -1v-2q0 -3 -2.5 -4t-4.5 -1q-12 0 -23 2.5t-22 2.5v-9l3 -2h13.5t13.5 -2
t10.5 -6.5t4.5 -12.5q0 -4 -0.5 -7.5t-4.5 -6.5q-7 -1 -12.5 -1h-12.5q-19 0 -39.5 2.5t-39.5 4.5q-1 1 -1 1.5v1.5v3t1 2h4h4q9 0 17.5 -1l17 -2t17.5 -2t17 -1h16q2 1 3.5 5t1.5 6q-1 3 -8 5t-18 2.5t-23.5 1t-24 1.5t-20 4t-11.5 8q-2 5 -3 8.5t-1.5 7t-1 7.5t-1.5 8v71
v10zM106 122q0 -4 2 -6t5 -3t7 -1h6t3 1.5t1 3.5v4v3q0 3 -2.5 4t-6 1h-6.5h-4q-3 0 -4 -2.5t-1 -4.5zM157 89q0 4 -1.5 6.5t-4 4t-6 2t-6.5 0.5q0 -5 1 -8t3 -4t5.5 -1h8.5z" />
</svg>
