<?xml version="1.0" standalone="no"?>
<!DOCTYPE svg PUBLIC "-//W3C//DTD SVG 1.1//EN" "http://www.w3.org/Graphics/SVG/1.1/DTD/svg11.dtd" >
<svg xmlns="http://www.w3.org/2000/svg" xmlns:xlink="http://www.w3.org/1999/xlink" version="1.1" viewBox="-10 0 266 256">
   <path fill="currentColor"
d="M170 234q1 1 2.5 3.5t3.5 5t4 4.5l3 3l0.5 0.5t1.5 0.5h11q2 0 2.5 -2t0.5 -3q0 -2 -3 -4t-7 -4.5t-7.5 -6t-3.5 -7.5q0 -7 2 -12.5t2 -11.5q0 -4 -1.5 -6.5t-3 -4t-3 -3.5t-1.5 -4q0 -3 1.5 -4t3 -1t4 -0.5t4 -3t2 -7t0.5 -12.5h4q3 0 5 -1t3.5 -2t1.5 -4q0 -4 -4 -4
q-3 0 -6.5 1l-7 2t-7 1.5t-7.5 0.5h-2h-3h-2h-1l-3 -3l21 -5q3 -1 4.5 -3.5t2.5 -5t1 -5.5v-6v-5t-0.5 -6t-2 -5t-5.5 -2q-3 0 -3.5 2t-1.5 4t-3.5 3.5t-7.5 1.5t-6 -1t-1 -5q0 -5 2 -7.5t5 -3.5t6.5 -1.5t6.5 -2t5 -5t3 -9.5h14l0.5 -1t1 -1.5t1 -1.5t0.5 -2l-0.5 -1.5
l-0.5 -1.5h-13q0 -3 2.5 -5t2.5 -5v-1v0q-1 0 -2 -0.5t-2 -0.5v-1q-5 0 -10 1t-10 1h-12l-0.5 -2l-0.5 -2q0 -1 0.5 -3l0.5 -2q0 -1 1 -1.5l1 -0.5l21 -3q2 0 3 -2t2 -4.5t1 -5v-3.5q0 -8 -5.5 -12t-12.5 -4h-1q-2 0 -7 0.5t-11.5 1t-12 1t-6.5 0.5h-3h-5h-6h-2q-1 0 -2 0.5
t-2 0.5l-38 5q-2 0 -3.5 1.5t-1.5 3.5t1 3t3 1.5t4 0.5h3q4 0 8 -1t8 -2.5t8 -2.5t8 -1q10 -1 20 -1.5t20 -0.5h3t4.5 0.5t4.5 0.5h3l6 2t3 5q0 2 -1 3.5t-5 3.5q-2 0 -9.5 0.5t-15.5 1t-15 1t-9 0.5q-5 0 -11 0.5t-12 1.5t-11.5 2t-9.5 2t-7.5 5t-5.5 7q-2 5 -3 9t-1.5 8.5
l-1 9t-2.5 8.5v9t-0.5 12.5t-1 12.5t-0.5 9v28q0 17 1 33.5t1 33.5v1l-1 2.5t-1 3.5v2q0 2 1.5 4t3.5 2q4 0 7 -3v-12q0 -16 -1.5 -31.5t-1.5 -31.5v-2v-6t0.5 -10t0.5 -12.5t0.5 -12.5t1 -10.5t0.5 -5.5v-5.5t0.5 -9.5t1.5 -11t2 -11.5t2.5 -9.5t2.5 -5q3 -2 8.5 -3.5
t12.5 -3t15 -2.5t15 -2t13 -1h9h1q2 2 2 4.5v4.5q0 3 -1.5 3.5t-3.5 1l-4 1t-4 0.5q-3 2 -6 5t-5 6q-1 1 -2 3.5t-1 3.5q-1 0 -3 0.5l-4 1t-3.5 1.5t-1.5 2v1q3 2 6.5 1.5t6.5 -0.5v5v5l-0.5 0.5l-0.5 0.5q-1 1 -2.5 1t-3 0.5t-2.5 0.5h-2v4h10v3.5v5.5l-0.5 2t-0.5 4.5
t-0.5 4.5t-0.5 3t0.5 2.5t0.5 3.5t0.5 4l0.5 2q2 3 5.5 4.5t7 1.5h7.5t7 1q1 0 2.5 2t2.5 2v1q0 3 -4.5 4.5t-10 3t-10 4t-4.5 7.5q0 3 1.5 6t3.5 6t4 5.5t4 3.5q-1 3 -3.5 5.5l-4.5 4.5q-3 2 -5 7t-4 10.5t-3 10.5t-1 9v3v4q1 1 2 1h2q3 0 5 -3.5t3.5 -8.5t2.5 -11t2.5 -11
t3 -8t4.5 -3t4.5 2t4.5 2h3.5t1.5 -2q0 -1 -1 -2.5l-2 -3l-2 -3t-2 -1.5q2 -3 5.5 -5t6.5 -2h1l13 13q1 1 0 4t-2.5 6l-3 6t-1.5 5v3l0.5 2t0.5 4t0.5 4zM75 242l2.5 2.5l2.5 2.5q3 1 5 -1t3 -5.5t2 -6.5t1 -5l1 -3l2 -6t2.5 -6t1.5 -3.5t0.5 -3t1 -4.5t1 -4.5t0.5 -3.5
q0 -2 0.5 -6.5t1 -9.5t1 -9t0.5 -5v-2v-4.5v-4.5v-4v-3v-4.5v-4.5v-3q-1 -4 -3.5 -7.5t-6.5 -3.5q-9 0 -13.5 2t-6.5 5.5t-2 9v11.5q0 3 -0.5 7t0 8.5t2 8t4.5 5.5q2 -1 2.5 -2t0.5 -3q0 -5 -0.5 -9.5t-0.5 -9.5v-6t1 -8t3 -7t6 -3q2 0 3.5 3l2.5 5v15q0 23 -4.5 44.5
t-16.5 41.5zM134 172q0 -2 2 -4t5 -4t5.5 -3t4.5 -1h1q2 4 3 8t1 8q0 1 -1.5 3t-4 3t-4.5 1.5t-3 0.5q-3 -1 -6 -5t-3 -7zM170 155q6 0 6 7q0 5 -1.5 8t-7.5 3q-1 0 -3 -0.5t-2 -1.5v-14l1 -0.5t2.5 -1t2.5 -0.5h2zM130 130q0 -2 0.5 -5t3.5 -3h15q1 0 1.5 2t0.5 4v2
q0 2 -0.5 4t-3.5 3h-6q-4 0 -7.5 -1t-3.5 -6zM157 132q0 -6 3.5 -8.5t9.5 -2.5q4 0 4.5 1.5t0.5 4.5q0 6 -3 7t-8 1h-5t-2 -3zM128 110q0 -3 1.5 -5t4 -3t5.5 -1.5t6 -0.5q4 0 5 2.5t1 5.5v3t-2 4q-5 1 -8.5 1h-7.5t-4.5 -1t-0.5 -5zM73 108q0 2 1.5 2h2.5q3 0 7.5 -1.5
t8.5 -4t6.5 -5.5t2.5 -6v-18q0 -2 -1.5 -4t-4 -4t-5.5 -3t-5 -1t-3.5 1.5t-1.5 3.5l2.5 1.5t6 4t6 6.5t2.5 8v1q-1 2 -5.5 4.5t-8.5 5t-7.5 5.5t-3.5 4zM147 83q2 0 2 2v3v3t-2 2h-15q0 -7 4.5 -8.5t10.5 -1.5zM157 87q0 -2 1.5 -3.5t3.5 -2t4 -0.5h4q0 5 -2 7.5t-8 2.5
q-2 0 -2.5 -1t-0.5 -3zM147 64q3 1 3 3v3q0 2 -0.5 4.5t-3.5 2.5h-12q0 -5 4.5 -8t8.5 -5zM157 71q0 -4 3 -5.5t6 -1.5q2 0 5 0.5t3 3.5q0 2 -1.5 3.5t-3 2t-4 0.5h-3.5h-3.5t-1.5 -3z" />
</svg>
