<?xml version="1.0" standalone="no"?>
<!DOCTYPE svg PUBLIC "-//W3C//DTD SVG 1.1//EN" "http://www.w3.org/Graphics/SVG/1.1/DTD/svg11.dtd" >
<svg xmlns="http://www.w3.org/2000/svg" xmlns:xlink="http://www.w3.org/1999/xlink" version="1.1" viewBox="-10 0 266 256">
   <path fill="currentColor"
d="M41 219q3 5 7.5 7.5t10 4t11.5 2t9 0.5q19 0 30.5 -11.5t11.5 -34.5q0 -8 -1 -15.5t-1 -16.5v-19v-14t0.5 -16t0.5 -14v-6l4 -4v-21q0 -3 -2 -3.5t-3 -0.5q-3 0 -5 1.5t-3 4.5q-4 27 -4.5 56.5t0.5 56.5q-1 3 -2 5t-3 3q-7 -6 -10.5 -13.5t-6.5 -16.5v-4v-6v-6v-4
q0 -28 1 -56t1 -56q-6 0 -7.5 1t-2 3.5t0 5.5t-2.5 6v50q-2 9 -2 19.5t0.5 21t-0.5 20t-6 16.5q-1 1 -2 3t-2.5 4t-3 3t-3.5 1t-2.5 -1.5t-0.5 -3.5q0 -4 1 -8t1 -9v0v-4.5t-0.5 -7.5t-1 -7.5t-0.5 -4.5v-5q0 -5 2 -9.5t2 -9.5q0 -6 -1 -10.5t-1 -10.5t2 -10.5t2 -9.5
q0 -2 -1.5 -3.5t-3 -2t-3 -0.5h-2.5h-2.5h-1.5q-1 0 -1.5 1t-1 2.5t-1 2.5t-0.5 2v13v20t-0.5 23.5t-0.5 23.5v20v13v11v7v6.5t0.5 6t0.5 8.5zM135 184q0 9 0.5 15t2.5 10.5t6 7t12 4.5q10 3 19.5 4.5t20.5 1.5h13q4 -1 5 -3t1 -6q0 -3 -0.5 -6t-4.5 -3h-1q0 1 -2 1.5
t-3 1.5h-16h-10.5t-14.5 -1t-12.5 -3.5t-5.5 -7.5v-16q0 -20 4 -30t10 -15t13 -6t14 -2.5t12.5 -5.5t7.5 -14l2 -6v-35q0 -7 -5.5 -11t-12.5 -5t-14.5 -1h-10.5h-4h-5h-5.5h-3.5q-3 1 -5 2t-2 6q0 1 0.5 3t1.5 3h8h12h11h8h3t4 0.5t4 0.5t2 1q2 3 2 6v6q0 2 -0.5 7t-1 10.5
t-1.5 10t-2 4.5q-5 2 -10 3t-9.5 1.5t-9.5 1t-10 2.5q-3 0 -5.5 4.5t-4.5 11t-3 13.5l-2 14t-1.5 12.5t-0.5 7.5zM55 205v-1.5v-1.5q3 -3 6 -8l6 -10t5.5 -9.5t4.5 -5.5q1 1 5 6t8.5 11t8 11.5t3.5 7.5q0 3 -1 5t-3 2.5t-4.5 1t-4.5 1.5h-27q-4 0 -5.5 -3.5t-1.5 -6.5z" />
</svg>
