<?xml version="1.0" standalone="no"?>
<!DOCTYPE svg PUBLIC "-//W3C//DTD SVG 1.1//EN" "http://www.w3.org/Graphics/SVG/1.1/DTD/svg11.dtd" >
<svg xmlns="http://www.w3.org/2000/svg" xmlns:xlink="http://www.w3.org/1999/xlink" version="1.1" viewBox="-10 0 266 256">
   <path fill="currentColor"
d="M180 249q0 2 3 2t4.5 -2t2.5 -4t1 -5v-5q0 -8 -1 -16l-2 -16l-2 -16t-1 -16q0 -4 2 -7.5t4.5 -6.5l5 -6t4.5 -7v-4v-4q0 -8 -2 -12.5t-6 -6.5t-9.5 -3t-11.5 -3l-1 -0.5l-1 -0.5v-3v-4v-8t0.5 -7.5t0.5 -7.5t1 -10l0.5 -0.5t1.5 -0.5v-1q4 0 8 2t7.5 4.5t6.5 5.5t5 4v0
q3 0 4 -2t1 -4q0 -5 -5 -8.5t-11 -5.5t-11 -3.5t-5 -4.5v-34q0 -3 -2 -6t-7 -3q-1 0 -2 0.5t-1 2.5v5t-0.5 7t-0.5 7.5v4.5v4.5v5t-1 4.5t-3 3q-1 1 -3.5 3t-5.5 4.5t-5.5 4.5t-4.5 3h-2h-2q-5 0 -6 -4t-1 -8.5t-0.5 -8t-4.5 -3.5q-2 0 -3.5 1.5t-1.5 3.5q0 12 2 23.5
t2 23.5q0 15 -1 30t-3 29q1 2 -0.5 2.5t-2.5 0.5h-2h-1q-2 -1 -5 -4.5t-5.5 -7.5l-5 -8t-2.5 -6q0 -25 2 -50t2 -50v-4v-6.5v-6.5v-4q0 -3 -1.5 -3.5t-2.5 -0.5q-2 0 -4 1t-3 3v87q0 2 -0.5 8t-1 12.5t-0.5 12.5v8q-1 1 -3 4l-4 6t-4 5t-4 2t-3 -1.5t-1 -3.5
q-2 -26 -3 -52.5t-1 -52.5q-2 -5 -6 -5h-2t-1 1v8q0 5 -0.5 11t-0.5 11v8q0 20 1.5 39t4.5 39q0 1 0.5 5.5l1 9t1 8.5t0.5 6q3 4 9 8t12 4h1t2.5 -0.5t2.5 -0.5h1q5 -1 10.5 -1t10.5 -1.5t9 -4.5t6 -9q1 -4 1 -5.5v-3.5t0.5 -3.5t1.5 -3.5q-1 -19 -0.5 -35.5t2.5 -34.5v-2.5
t0.5 -3t0.5 -2.5v-1q2 -3 5.5 -6.5t8 -7t9 -6.5t6.5 -3t2.5 1t0.5 3q0 8 -1 17t-2 17q-2 3 -5 4t-7 2t-6.5 2t-2.5 3q0 1 2 2t3 2h4.5h6.5h7h5q5 0 9.5 0.5t8 2t5.5 4.5t2 9q0 2 -0.5 4.5t-1 4.5t-2.5 3.5t-5 1.5v0q-6 -5 -12 -9t-14 -4h-2q-1 0 -4.5 0.5t-5.5 1l-2 0.5
l-4 3l4 3h8.5t10 1t8 4t3.5 9q0 3 -5.5 5t-13 3.5t-13 3t-5.5 3.5q0 3 1.5 4t3.5 1q3 0 7 -1t7.5 -2.5t7 -2.5t7.5 -1h3q1 0 2 2v3.5t0.5 5t1 4.5t1.5 4q0 2 0.5 7.5t1 12t1 12t0.5 8.5v3v5v5.5v3.5zM71 177q0 -2 2.5 -6t6 -8.5t7 -8t4.5 -3.5q2 0 5.5 4t7 9.5t6.5 11.5t3 8
q0 3 -2.5 5t-6 2.5t-7 0.5h-5.5q-4 0 -8 -0.5t-7 -2.5t-4.5 -5t-1.5 -7z" />
</svg>
