<?xml version="1.0" standalone="no"?>
<!DOCTYPE svg PUBLIC "-//W3C//DTD SVG 1.1//EN" "http://www.w3.org/Graphics/SVG/1.1/DTD/svg11.dtd" >
<svg xmlns="http://www.w3.org/2000/svg" xmlns:xlink="http://www.w3.org/1999/xlink" version="1.1" viewBox="-10 0 266 256">
   <path fill="currentColor"
d="M89 240q0 2 1.5 4.5t3.5 2.5q2 -1 3.5 -3t1.5 -4v-10q0 -15 -0.5 -29t-0.5 -28v-5v-8v-8v-5t0.5 -4t0.5 -4v-6v-11v-10v-6q1 -16 3 -32t2 -32q0 -7 -2.5 -10.5t-8.5 -6.5q-2 0 -6 -0.5t-8.5 -1t-8 -1t-5.5 -0.5h-1.5h-2.5q-2 0 -4 1.5t-2 4.5q0 2 2 3t4 1.5t4.5 0.5
t4.5 1v13v13q0 2 -1 8t-1.5 13t-1.5 13.5t-1 7.5q-2 16 -2.5 31.5t-0.5 31.5q-1 15 -3.5 30t-2.5 30q0 4 1 6t5 6h1q3 0 4 -2t1 -5l0.5 -2.5t0.5 -6t0.5 -6.5t0.5 -4q1 -36 3.5 -71t4.5 -72q0 -1 0.5 -4t1 -6.5t1 -6.5t0.5 -4v-5v-3.5t1 -2.5t5 -1t6 4.5t3 8.5q0 1 -0.5 3.5
t-0.5 5t-0.5 5t-0.5 3.5q0 4 0.5 6.5t-1.5 6.5q-1 3 -1 9t-0.5 13.5t-1 15.5t-0.5 15.5t-0.5 13.5t-0.5 8v7v12v14v11v9v13v13v8zM117 226q10 4 19 6t20 2q2 0 5.5 -0.5t7.5 -1t7 -1.5t5 -1q2 -1 3 -3t2 -3q2 -13 3.5 -28.5t1.5 -29.5q0 -2 -1.5 -2.5t-3.5 -0.5
q-4 0 -5.5 3.5t-2 8t-0.5 9.5v7v1v1l0.5 3t0.5 4l-2 2l-2 2q-1 1 -5 -1.5t-8 -6t-7.5 -7t-3.5 -6.5q0 -10 2 -19t2 -19v-8q-1 -2 -2 -3t-3 -1q-3 0 -4 4t-1.5 10t-0.5 13v13q0 7 -0.5 11.5t-1.5 6.5l-3 3t-4.5 4t-4.5 3.5t-3 2.5h-1h-1h-1.5t-1.5 -2v-39l-0.5 -0.5
l-0.5 -0.5q-1 -1 -2 -1.5t-2 -0.5t-1.5 1t-1 3t-0.5 3.5v2.5v27.5t3 28.5zM127 216l3 -3l7 -7t7.5 -7l3.5 -3q2 0 6.5 3t9.5 7.5t8.5 8.5t3.5 7h-4.5t-3.5 2h-31q-3 0 -6.5 -2t-3.5 -6zM156 101q4 0 4.5 1t2.5 4q0 1 2 3t4.5 5t4.5 5t2 3l3.5 7t5.5 10t5.5 9.5t3.5 4.5
q1 1 3.5 0t3.5 -1v-1.5v-1.5q0 -5 -2.5 -10.5t-6 -11t-7.5 -11t-7.5 -9.5t-6 -7l-2.5 -3v-1v-2q5 -1 9.5 -3t7.5 -4.5t5 -6.5t2 -10q0 -2 -1.5 -4.5t-3.5 -2.5t-4 4.5t-5 9.5t-8 9t-13 4l-0.5 -0.5l-0.5 -0.5q-2 -1 -4.5 -2.5t-4.5 -4t-3.5 -5t-1.5 -5.5v-3q0 -3 0.5 -5.5
t1.5 -4.5t3 -2q8 0 14 -0.5t9.5 -2.5t5 -7t1.5 -14v-6q-1 -3 -3 -3h-4h-2h-1q0 1 -0.5 3t-1 4.5t-1 4.5t-0.5 3q-1 1 -2 3.5t-2 2.5h-11q-3 0 -3 -4.5v-10.5q0 -5 -1 -10t-6 -5q-1 0 -2 1t-1 3q0 12 -1 22.5t-1 22.5v16l0.5 1.5t1.5 1.5q0 1 1.5 2.5l3 3t3 3.5t2.5 2v1
q0 2 -6 6.5t-12.5 10t-12 11.5t-5.5 11v2t1 3h2.5h1.5q4 0 6.5 -2.5t4.5 -6t4 -7.5t4 -6q4 -4 10 -8t10 -8h1z" />
</svg>
