<?xml version="1.0" standalone="no"?>
<!DOCTYPE svg PUBLIC "-//W3C//DTD SVG 1.1//EN" "http://www.w3.org/Graphics/SVG/1.1/DTD/svg11.dtd" >
<svg xmlns="http://www.w3.org/2000/svg" xmlns:xlink="http://www.w3.org/1999/xlink" version="1.1" viewBox="-10 0 266 256">
   <path fill="currentColor"
d="M126 247q2 3 3 3.5t3 0.5q6 0 6 -6v-69q-1 -5 -1.5 -8t-0.5 -7q0 -8 3.5 -11t9 -3.5t12 0t12.5 -0.5v-1.5v-1.5q0 -2 -0.5 -3t-2.5 -2q-21 2 -40 2.5t-40 2.5h-2t-2.5 0.5t-3 1.5l-1.5 1q0 1 0.5 1h0.5q0 1 0.5 2l0.5 1h7q8 0 15 -0.5t14 -0.5h2.5h1.5l2 1v5.5t0.5 13
t0.5 17.5v17.5v14.5q0 2 0.5 6t0.5 9t-0.5 9t-0.5 5zM90 238q0 1 0.5 2t0.5 1.5t1 1l1 0.5q4 0 6.5 -4t4 -10.5t2 -15t1 -16t0.5 -13.5v-10t-0.5 -6.5t-4.5 -3.5q-3 0 -4.5 2t-1.5 5v1v1q0 1 0.5 3t0.5 4t0.5 3.5t0.5 2.5q0 7 -1 15t-3 16q0 5 -2 10.5t-2 10.5zM154 173v9
t0.5 13.5t1.5 15.5t3 14.5t4.5 10.5t5.5 4q4 0 5.5 -0.5t1.5 -4.5q0 -6 -2.5 -11t-3.5 -10q-3 -13 -4.5 -25t-2.5 -25v-1q0 -2 -1 -3.5t-3 -1.5t-3 0.5t-2 2.5v2.5v3.5v3v3zM57 182q0 2 1 4.5t4 2.5q5 0 7 -3.5t3 -7.5v-6v-9v-9.5v-6.5q1 -15 4.5 -24t10.5 -14t17.5 -7
t25.5 -2q13 0 22 0.5t15 1.5t9 3.5t5 7.5t3 13t2 20q0 5 1.5 11.5t1.5 12.5q0 2 -1 4t-1 5t0.5 4t4.5 1q2 0 3.5 -1t2.5 -3t1 -4.5v-4.5v-9.5t-0.5 -14.5t-2 -16.5t-3 -15.5t-4.5 -12t-6 -5q-1 0 -2.5 -0.5t-3.5 -0.5t-3.5 -0.5l-1.5 -0.5q-1 0 -3 -0.5t-4.5 -1l-5 -1
l-2.5 -0.5h-4.5h-6.5h-7h-4q-4 -2 -4.5 -5t-0.5 -6t5 -4t11.5 -2t13 -2.5t8.5 -5.5q5 -7 7.5 -17t2.5 -19v-1l-0.5 -1t-1.5 -2.5l-2 -3t-2 -1.5v0q-2 1 -5 2t-3 2v21l-0.5 1.5t-1.5 3t-2.5 2.5t-2.5 1t-5.5 -3t-9 -6.5t-8 -6.5t-3.5 -4v-23l-1 -1t-2 -1l-1.5 -0.5l-1.5 -0.5
h-1h-1q-1 0 -2.5 0.5l-1.5 0.5v25q0 1 -4 4.5t-9 7.5t-9.5 7t-5.5 3q-3 0 -3.5 -3.5t-0.5 -6.5q0 -1 -0.5 -3.5t-1 -5.5t-0.5 -5.5v-3.5q-2 -3 -3.5 -5t-4.5 -2q-1 0 -2 1.5t-1.5 3l-1 3t-0.5 2.5t0.5 4.5t1.5 7.5t2 7.5t1 4.5q0 3 1.5 6t3.5 6t4.5 5t6.5 2l27 3l1 1.5
l1 1.5v1q0 1 -1 3.5t-2 4.5t-3 3.5t-4 1.5l-29 3l-1 0.5t-2 1.5q-8 4 -11 8t-4.5 8.5t-1.5 10.5q0 5 -1 13q0 9 -1.5 18t-2.5 17q0 1 -0.5 3t-0.5 3zM88 124l3 2h3h5q16 0 33 -2t33 -3q2 0 2.5 -1t0.5 -2q0 -2 -0.5 -2.5t-2.5 -0.5h-9h-18t-19 1q-3 1 -7.5 1t-8.5 0.5t-7 1
l-3 0.5zM101 67v-0.5v-1.5q0 -3 2.5 -6t6 -6t7.5 -4.5t7 -1.5q2 0 6 1.5t8.5 4t7.5 5.5t3 5t-2 3.5t-5 2t-5.5 1t-3.5 0.5z" />
</svg>
