<?xml version="1.0" standalone="no"?>
<!DOCTYPE svg PUBLIC "-//W3C//DTD SVG 1.1//EN" "http://www.w3.org/Graphics/SVG/1.1/DTD/svg11.dtd" >
<svg xmlns="http://www.w3.org/2000/svg" xmlns:xlink="http://www.w3.org/1999/xlink" version="1.1" viewBox="-10 0 266 256">
   <path fill="currentColor"
d="M111 244q2 5 6.5 5.5t9.5 0.5q9 0 14 -1.5t8 -8.5q1 -2 2.5 -5.5t3 -7.5l3 -8t2.5 -5q1 -3 4.5 -4t7.5 -2t7 -2.5t3 -3.5q0 -3 -1.5 -3.5t-3.5 -0.5q-9 0 -14 3.5t-8 8.5t-5.5 10.5t-5 10.5t-6.5 8.5t-11 3.5q-5 0 -7 -2t-2 -6q0 -6 4 -10t8.5 -7.5t8.5 -7.5t4 -10
q0 -4 -1 -6t-4 -4l-2.5 -0.5l-2.5 -0.5q-5 0 -9.5 1.5t-9 3.5t-9 3t-8.5 1t-4.5 -0.5t-0.5 -2.5q0 -5 3 -9t7 -6t9 -3.5t9.5 -3t7.5 -3.5t3 -5t-2 -6q-1 0 -3 -1.5t-4.5 -3t-5 -2.5t-2.5 -2q-3 -1 -5.5 -4.5t-4.5 -6.5t-3.5 -5t-3.5 -2q-4 0 -4 4q0 5 3.5 9t8 6.5t9.5 5.5
t7 7q-2 4 -8.5 6t-13 5t-12 7t-5.5 11q0 8 4 10.5t11 2.5q4 0 8 -1.5t7.5 -3t7 -3.5t7.5 -2q5 -1 6 0.5t1 4.5q0 5 -3.5 9t-8 8.5t-8.5 9t-4 11.5v2.5t1 2.5zM50 204q0 1 1 3.5t3 2.5q4 0 6.5 -5t5 -13t4.5 -17t4 -17t3 -14t2 -7v-38q0 -3 2 -5.5t5.5 -4t6.5 -2t5 -0.5
q2 -1 5 -1.5t6.5 -1t6.5 -1t4 -0.5h6t9 -0.5t9 -0.5h5h6t8 0.5t7 0.5h4l3 2l0.5 3.5t0.5 5.5v1q0 9 -4.5 12.5t-11.5 4t-14.5 0.5t-14.5 1.5t-12 5.5t-5 14q0 3 2 4.5l4 3t5 2t5 0.5h40q3 0 6 4.5t5.5 11.5t5 15.5t4.5 15.5t4 11.5t3 4.5q4 0 5 -2t1 -5q0 -7 -3.5 -14
t-5.5 -14q-2 -6 -4 -12.5t-5 -12t-8 -9.5t-13 -4h-1q-1 0 -5.5 0.5t-10 1.5t-10 1.5t-5.5 0.5h-1q-2 0 -3.5 -0.5t-3.5 -1t-3 -2t-1 -2.5q0 -5 4 -8t9.5 -4t11 -1.5t9.5 -0.5q8 -1 13.5 -1t9 -1.5t5 -5.5t1.5 -13q0 -11 -4 -16t-16 -4l-55 3q-4 1 -8 1.5l-8 1t-8 0.5h-7
q-4 1 -6 4t-2.5 7.5t-0.5 9.5v6v4v7v7v3q0 1 -0.5 2t-1.5 2.5t-1.5 2.5l-0.5 1q-1 8 -1.5 15.5t-2.5 14.5q-2 9 -5.5 18t-7.5 17v1zM140 175q0 3 1 5t3.5 4l5 4t4.5 3q2 2 5 2h6q2 0 5 -0.5t6 -2t5 -3.5t2 -6q0 -7 -3.5 -11.5t-8.5 -7t-11.5 -3t-12.5 -0.5h-10q-1 1 -1.5 2
l-0.5 1q0 1 0.5 1.5t1.5 0.5l31 4q3 1 5 4t2 6v2q-3 4 -4.5 5.5t-4.5 1.5q-4 0 -7.5 -2t-6.5 -4l-6 -4t-6 -2zM97 102v1q0 1 1 1.5t2 0.5h2.5h2.5h4h2h6.5t10 -0.5t12 -1t11.5 -1.5t8.5 -2t3.5 -2q0 -2 -2.5 -3t-3.5 -1t-6 0.5t-11.5 1t-14 1t-14 1.5t-10.5 2t-4 2zM75 56
q2 3 6.5 5t9.5 3t10 1h8h16q9 0 18 -0.5t17.5 -1.5t16.5 -4q2 -3 3.5 -7.5t2.5 -9.5t1.5 -9.5t0.5 -8.5v-2t-2 -2t-5 1.5t-4 2.5q0 3 0.5 7.5t-0.5 9.5t-3 8.5t-7 3.5q-4 0 -8 -2t-7.5 -5l-7 -6t-6.5 -5t-3.5 -6t-0.5 -7.5t-1 -6.5t-3 -3q-4 0 -4.5 3t-0.5 6.5v7.5t-2 6
q-1 0 -3 1.5t-4 3.5t-4.5 3.5t-2.5 2.5q-1 0 -3 2l-4 4t-4 3.5t-3 2.5q-6 -3 -8.5 -9t-3.5 -11.5t-2 -9.5t-4 -4q-5 0 -5 5q0 6 2 14t4 13zM103 55v0v0q1 -1 3 -2.5t4.5 -3.5t4.5 -3t3 -2t4.5 -2.5t4.5 -1.5q0 -1 1 -1h1q2 0 5 1.5t6 4t5.5 5t2.5 4.5q0 1 -2 2.5t-3 1.5h-39
l-0.5 -0.5t-0.5 -1.5v0v-1z" />
</svg>
