<?xml version="1.0" standalone="no"?>
<!DOCTYPE svg PUBLIC "-//W3C//DTD SVG 1.1//EN" "http://www.w3.org/Graphics/SVG/1.1/DTD/svg11.dtd" >
<svg xmlns="http://www.w3.org/2000/svg" xmlns:xlink="http://www.w3.org/1999/xlink" version="1.1" viewBox="-10 0 266 256">
   <path fill="currentColor"
d="M118 226v20q0 2 2 3.5t4 1.5q3 0 4.5 -3t1.5 -6.5t-0.5 -7.5t-0.5 -5q1 -3 1.5 -10t1 -15t1.5 -14.5t1 -9.5q3 -4 7 -5t9 -3q2 -1 4 -2.5t3.5 -3t3.5 -3t4 -1.5h1v0q2 5 5.5 6.5t7 2.5t7.5 2t8 4q0 10 2 20t2 21q0 1 0.5 5.5t0.5 9t0.5 9t0.5 5.5q-1 3 0.5 3.5t3.5 0.5
q4 0 5.5 -3.5t1.5 -7.5q0 -8 -1 -16t-2.5 -16t-3 -15.5t-1.5 -15.5q0 -4 1.5 -7.5t3.5 -6t3.5 -5.5t1.5 -8q0 -2 -1 -6t-3 -8t-5 -6.5t-6 -2.5q-2 0 -3.5 1t-0.5 4q0 2 1.5 4l3 4t3 4.5t1.5 5.5q0 5 -5 9q-3 -2 -5 -6.5t-4 -9.5t-5 -8.5t-9 -3.5h-2t-2 1q2 6 4.5 9t5 5.5
t4.5 6t2 10.5q-6 0 -8.5 -1t-3.5 -3t-2 -3.5t-4 -1.5q-6 0 -9 1t-4.5 2.5t-3 3.5t-5.5 3q-1 0 -3 -0.5t-3 -0.5q0 -4 2 -7.5t4 -6.5l4 -6t2 -6q0 -2 -1 -3t-4 -2q-1 2 -4 6l-6 8t-5.5 7t-3.5 3q-4 0 -5 -3.5t-1 -6.5t1.5 -5t3.5 -4.5l4 -5t2 -5.5q0 -2 -1 -2.5t-3 -0.5
q-4 0 -6.5 2.5t-4.5 7t-3 8.5t-1 7q0 5 1.5 7.5t4 4t4 3.5t1.5 5v4t-2 3q0 2 -0.5 6t-1 9t-1 9t-0.5 6v5v6t-1 5.5t-2 4.5zM42 67v31q0 3 0.5 11t0.5 16t0.5 16t0.5 10q0 1 0.5 4t1 6.5t2 6t4.5 2.5h37q3 0 7 -4t4 -7q1 -10 1.5 -20t0.5 -19.5v-19.5v-21v-43l-1.5 -1.5
t-1.5 -0.5q-2 0 -3.5 1.5t-1.5 3.5v75l-3 22l-2 1q-6 -7 -9.5 -14.5t-3.5 -16.5q0 -22 1.5 -43t1.5 -43q0 -3 -1.5 -6t-5.5 -3q-3 0 -4 2.5t-1 5.5v47q0 1 0.5 2.5t0.5 2.5v1.5t-0.5 3t-0.5 3v1.5q0 1 -0.5 3t-0.5 5t-0.5 5.5t-0.5 4.5v1v0q0 1 0.5 3t0.5 4.5t0.5 4.5t0.5 3
q0 2 -0.5 5.5t-2 7t-3.5 6.5t-6 3q-1 0 -2 -1t-1 -3q-1 -23 -1.5 -46.5t-0.5 -47.5q0 -1 -1 -3t-3 -2v0q-1 0 -2 1.5t-2 1.5v31zM52 156l21 -20h1q1 0 3.5 2t4.5 5.5t4 6.5t3 4v1q0 3 -2 4t-5 1.5t-5 0.5h-5l-3 -0.5t-7 -1t-7 -1l-3 -0.5v-2zM163 80q0 1 -0.5 3t-1.5 2v2.5
t-0.5 3.5t-0.5 3.5v1.5q-1 4 -2.5 6.5l-3 5t-2.5 5.5t-1 7q6 0 10 -6t6 -14t3 -16t1 -12v-9q-2 -2 -5 -4t-6 -4.5t-5 -5t-2 -5.5q0 -6 4 -7t8.5 -1.5t8.5 -1t4 -3.5q0 -2 -1.5 -4t-3.5 -2q-1 0 -2 0.5t-2 0.5t-2 0.5l-1 0.5h-4q-3 0 -4.5 -1t-2 -2.5t-1 -4t-1.5 -5.5
l-1 -0.5t-2 -0.5h-1h-1l-0.5 0.5l-0.5 0.5v38l14 14q1 0 1 1v1q0 1 -0.5 2.5t-1.5 1.5h-13l-0.5 1.5t-1.5 2.5v0v0q0 3 2.5 3t6 -0.5t5.5 -0.5q3 0 4 2zM119 28q-2 0 -3 0.5t-1 2.5v73q0 3 3 5t7 3.5t7.5 2t5.5 0.5h5t2 -4t-3 -5t-7 -1.5t-7.5 -2t-3.5 -5.5t2 -5.5t4.5 -2
t6 -0.5t5.5 -1v-1v-1v-2.5t-2 -1.5h-14l-3 -3v-2.5v-3.5q0 -9 2.5 -12.5t6 -4.5t6.5 -1t3 -3q0 -1 -0.5 -2.5t-1.5 -1.5h-13v-4.5t-0.5 -7t-2 -6t-4.5 -2.5zM172 109q0 3 3 4t6 1q8 0 13 -3.5t8 -8.5t4 -11.5t1 -13t0.5 -13.5t2.5 -12v-1v-1q0 -1 -0.5 -4.5t-1 -7.5
t-0.5 -7.5v-5.5q-1 -2 -2.5 -4t-4.5 -2q-1 0 -2 1t-1.5 2.5t-0.5 3v2.5q0 4 0.5 7t0.5 7v1l-0.5 1.5l-0.5 1.5l-16 3q-1 0 -1.5 1t-0.5 2v1v1q1 1 3 2t4.5 1h5h3.5q3 2 3 5q0 12 -5 15t-16 2q-1 0 -1 1v2t0.5 3t2.5 2h13l0.5 1.5t1.5 2.5v1q0 6 -3.5 8.5t-7.5 3t-7.5 1.5
t-3.5 4z" />
</svg>
