<?xml version="1.0" standalone="no"?>
<!DOCTYPE svg PUBLIC "-//W3C//DTD SVG 1.1//EN" "http://www.w3.org/Graphics/SVG/1.1/DTD/svg11.dtd" >
<svg xmlns="http://www.w3.org/2000/svg" xmlns:xlink="http://www.w3.org/1999/xlink" version="1.1" viewBox="-10 0 266 256">
   <path fill="currentColor"
d="M148 200q0 4 1.5 12.5t4.5 17t8 15t13 6.5q2 0 3.5 -2t1.5 -4q0 -1 -2 -3t-5 -4.5t-5.5 -5t-3.5 -4.5q-3 -6 -5.5 -13.5t-2.5 -13.5q0 -2 0.5 -5.5t1.5 -7.5t2.5 -7t3.5 -3q4 0 5.5 3t3 6.5t3.5 6t6 2.5q2 0 2.5 -0.5t1.5 -2.5q-1 -2 -3 -5.5t-3.5 -7t-3 -7.5t-1.5 -7
t2 -4.5t4 -2.5t4 -3t2 -7q-4 0 -7.5 1t-8.5 1q-4 0 -4.5 -3.5t-0.5 -6.5q0 -2 0.5 -4.5t2.5 -3.5q1 0 4 -0.5t6.5 -0.5h6.5t4 -1q2 0 4 -0.5t2 -3.5l-0.5 -1.5t-1 -1.5h-2.5h-3q-6 0 -12 1t-12 1q-1 0 -2 -1.5t-1 -2.5q0 -6 3 -8.5t7 -3t7 -1t3 -2.5v-10l-1.5 -1.5
l-1.5 -1.5h-1v0q-2 0 -2.5 1t-1 3t-0.5 3v2h-10q-1 0 -1.5 -1.5t-1 -3.5t-1.5 -3t-3 -1q-1 0 -2.5 1.5t-1.5 2.5t0.5 2.5t0.5 2.5v24l-3.5 0.5t-7.5 1t-7 2t-3 3.5v0l1.5 1.5l0.5 0.5q1 1 2 1h1h2t3.5 -0.5t2.5 -1.5t2 -1h2h3q3 0 4.5 2t1.5 4.5v5.5v5t1.5 4.5t1.5 4.5
q0 4 -2 8.5t-5 9.5t-5 10.5t-2 11.5zM68 166q-4 19 -5.5 37.5t-1.5 37.5q8 0 10 -2.5t2 -5.5t-0.5 -5.5t3.5 -2.5l48 -3q1 0 3 -1.5t2 -2.5v-1q-1 -1 -2 -1h-24q-2 0 -2.5 -2t-0.5 -3q0 -7 3.5 -8.5t7.5 -1.5t7.5 -0.5t3.5 -3.5q0 -1 -1.5 -2t-2.5 -2h-3t-4.5 -0.5
t-4.5 -0.5h-3q-2 -1 -2 -3v-2v-2.5t0.5 -2.5t1 -2.5t2.5 -1.5h16q1 0 1 -1v-2q0 -2 -1.5 -2.5l-4.5 -1.5q-1 0 -3 -0.5t-4 -0.5t-3.5 -0.5t-2.5 -0.5l-1.5 -4.5t-0.5 -3.5q0 -3 1.5 -3.5t4.5 -0.5t5.5 1l5 2t4.5 2t5 1t4 -0.5t1 -2.5q0 -5 -4 -6.5t-8.5 -2.5t-9.5 -2t-7 -4
q1 -2 4 -3t6.5 -1.5t6 -2t2.5 -3.5q0 -3 -3 -5t-7 -4.5t-7.5 -5.5t-3.5 -8q0 -4 1 -7.5t1 -7.5q0 -3 -1.5 -6.5t-1.5 -7.5h-0.5h-0.5h-0.5h-0.5q0 1 -2 2.5t-3 2.5v22q0 1 -0.5 3.5t-0.5 3.5q-2 2 -6 4.5t-8 5.5t-7 6t-3 5q0 3 2 3.5t5 1.5t5 2t2 3q0 1 -2 3l-4.5 4.5
t-5 5.5t-2.5 5zM72 211v-1.5t0.5 -3t1 -2.5t2.5 -1h16v14h-16q-3 0 -3.5 -2.5t-0.5 -3.5zM74 187q0 -4 3.5 -5t7.5 -1h7q2 1 2 3v3q0 4 -1.5 6t-5.5 2h-4.5t-4 -1t-3 -2.5t-1.5 -4.5zM79 169q0 -6 3 -9t8 -7q1 0 1 -0.5t1 -0.5t2 0.5t1 1.5v18q0 2 -2.5 2.5t-3.5 0.5
q-5 0 -7.5 -1t-2.5 -5zM82 134l13 -12h0.5h1.5q4 0 6.5 4t2.5 8v0q0 1 -0.5 1.5l-0.5 0.5h-1h-1q-1 0 -2.5 -1.5t-2.5 -1.5v0h-1v0q-2 1 -2.5 2.5l-1 3t-0.5 3.5v2h-1v0q-1 -1 -3 -1.5t-3.5 -1.5t-2.5 -1.5l-1 -0.5v-5zM76 97q-2 0 -4 4t-3.5 9t-2 10t-0.5 7q4 0 7 -3
t4.5 -6.5t2.5 -7.5t1 -8q0 -2 -1 -3.5t-4 -1.5zM121 101v5.5t1 7t2.5 6t4.5 2.5q2 0 3.5 -1.5t1.5 -3.5q0 -1 -1.5 -4.5t-3 -7.5t-3 -7t-2.5 -3t-2 0.5t-1 1.5v4zM80 34v7q1 1 2 3t2 3q2 6 2 10.5t1 7.5t5 4.5t13 1.5q3 0 8 0.5t10 0.5t9 0.5t5 0.5t5 -0.5t8.5 -1t8.5 -1
t5 -0.5q3 -2 7 -3.5t7.5 -4t5.5 -5.5t2 -7v-24q0 -1 -1.5 -3.5t-2.5 -2.5l-1.5 0.5l-1.5 0.5q-1 0 -1.5 1l-0.5 1v7q0 4 -0.5 8.5t-2.5 8.5t-5 5q-1 -1 -2.5 -1.5t-3.5 -1t-3.5 -1.5t-2.5 -1q-1 -1 -4 -2t-6.5 -3t-6 -3.5t-2.5 -2.5v-21q0 -2 -1.5 -2.5t-2.5 -0.5h-2
q-1 0 -2.5 0.5t-1.5 1.5v22q0 2 -3.5 4.5t-8.5 5t-10 4.5t-8 3h-1q-4 0 -4.5 -4.5t-1 -10t-1.5 -10t-6 -4.5v0l-2 2t-2 1v7zM104 62q0 -1 4.5 -4.5t10 -6.5t10 -6l4.5 -3q1 0 4.5 2t8 4.5t7.5 4.5t3 3q0 3 -5.5 5t-13.5 3t-15.5 1h-10.5q-2 0 -4.5 -0.5t-2.5 -2.5z" />
</svg>
