<?xml version="1.0" standalone="no"?>
<!DOCTYPE svg PUBLIC "-//W3C//DTD SVG 1.1//EN" "http://www.w3.org/Graphics/SVG/1.1/DTD/svg11.dtd" >
<svg xmlns="http://www.w3.org/2000/svg" xmlns:xlink="http://www.w3.org/1999/xlink" version="1.1" viewBox="-10 0 266 256">
   <path fill="currentColor"
d="M78 187q0 12 1.5 25t5.5 24q2 5 8.5 7.5t14.5 3.5t16 1h11q13 0 22 -2t14 -7t7.5 -14.5t2.5 -23.5q0 -5 -1 -7.5t-1 -6.5q0 -2 1 -4t1 -5q0 -4 -2.5 -6t-6.5 -2q-3 0 -4.5 1t-1.5 5v2.5t0.5 3t0.5 3v1.5v2q0 1 0.5 3t0.5 3v3v8q0 6 -0.5 11.5t-2.5 9.5t-5 4
q-2 0 -3.5 -2.5t-3.5 -5.5t-3.5 -5.5t-1.5 -3.5q-1 -1 -3 -3.5t-4.5 -4.5t-4.5 -4.5t-2 -4.5v-38l-0.5 -1.5t-0.5 -2.5q0 -2 3 -3.5t6 -2.5t5.5 -3t3.5 -5q0 -2 0.5 -5t1 -7t1 -7t0.5 -5t-1 -5t-4 -3l-1.5 0.5l-1.5 0.5q0 1 -1 2l-2 2l-2 2l-1 1h-2v0q-1 0 -1.5 -0.5
l-0.5 -0.5v-14l2.5 -1.5t5.5 -3.5t6 -5.5t3 -8.5q0 -3 -1 -6t-4 -5l-4 4l-3 15h-1h-1q-3 0 -4 -2t-1 -5v-5.5v-3.5v-9q5 -3 7 -6.5t4 -7.5l3.5 -7t5.5 -6l0.5 -1t1.5 -1q-3 -3 -7 -3h-1q-3 0 -10 1t-14.5 1.5t-14 1.5t-9.5 1q-1 0 -2 1.5l-1 1.5v1q0 2 1.5 2h3.5t5 1t5 5
t6 7.5t5 5.5l1.5 4.5t0.5 4.5q0 5 -0.5 9.5t-1.5 11.5h-8q-2 0 -2 -3t-0.5 -6t-2 -5.5t-4.5 -2.5q-5 0 -5 4q0 9 4 13t8.5 5.5t8 2t3.5 2.5v13q0 3 -3 3.5t-4 0.5q-2 0 -3.5 -1t-2.5 -2t-2.5 -2t-3.5 -1q-1 0 -2 1t-1 2.5v2.5v3t0.5 5t1.5 8.5t2.5 8t2.5 3.5l13 3v47l-2 5
l-3 3l-4.5 4.5l-4.5 4.5l-3 3q0 1 -1 3t-2.5 4t-3 3.5t-2.5 1.5q-2 0 -3 -2t-1.5 -4.5t-0.5 -4.5v-3q-1 -1 -1 -3t-0.5 -4t-0.5 -3.5v-2.5v-4.5v-7.5v-8v-5q-1 -2 -3 -2.5t-4 -0.5q-1 0 -2.5 1t-1.5 2t-0.5 4.5t-0.5 4.5zM113 235l-1.5 -1.5t-0.5 -2.5q0 -1 2 -4.5t5 -7
t5.5 -6.5t4.5 -3q3 0 6 2.5t5.5 6t5 6.5t3.5 5v1v1q0 2 -0.5 3.5t-3.5 0.5h-9h-5h-5.5h-5.5t-6 -1zM46 156q0 2 1 2h2q5 0 6 -4t1 -9t0.5 -9.5t3.5 -4.5h2t2 2q0 1 -0.5 3.5t-0.5 4.5q0 3 0.5 5.5t0.5 3.5q0 3 1 5.5t4 2.5q2 0 4 -1.5t2 -3.5q0 -3 -1 -6.5t-1 -6.5t1 -6.5
t3 -5.5q4 0 5 3.5t1.5 7.5t1.5 7.5t4 3.5q1 0 2 -0.5t2 -2.5v-7q0 -7 -1.5 -11.5t-3 -7t-4 -3t-4.5 -1.5t-3.5 -1.5t-1.5 -3.5q0 -1 2.5 -3t5.5 -5t5 -6.5t2 -7.5q0 -5 -2.5 -7.5t-5.5 -4l-6 -3t-3 -4.5v-2q1 0 3 -1.5t3.5 -3.5l3 -4t2.5 -2q2 -2 2 -4.5v-5.5q0 -7 -3 -11.5
t-10 -6.5v-14l-2 -1.5t-3 -1.5h-1q-3 0 -4 2.5t-1 5.5v6.5t-1 5.5q-3 3 -5 4t-3.5 2t-2.5 3.5t-1 8.5t2 8.5t4.5 3.5t4 2.5t1.5 6.5q0 4 -1.5 5.5t-4 3t-4.5 4.5t-2 9q0 5 2.5 8t5 4.5t4.5 3.5t2 6q0 1 -1 1.5l-1 0.5q-6 3 -9.5 5.5t-5 6t-1.5 8v12.5v6zM177 123q3 0 4 2.5
t1.5 6t0 7.5t-0.5 8q0 3 0.5 5.5t3.5 2.5t4 -4t1 -9.5t0.5 -9.5t3.5 -4v0q2 1 3 3.5t1.5 6t0.5 5.5v4q1 1 1.5 1h2.5q3 0 4.5 -2t1.5 -5q0 -7 -1 -12t-3 -8.5t-6 -6t-10 -5.5q1 -4 3 -6t4 -3.5t3.5 -4t1.5 -9.5v-4v-4q-1 -2 -3.5 -3t-5 -1.5t-4.5 -2t-2 -3.5q0 -3 2 -4.5
t5 -3t5.5 -3t2.5 -4.5v-17q0 -2 -1.5 -3t-3.5 -2t-4 -1.5t-3 -1.5v-5t-0.5 -6t-2 -5.5t-4.5 -2.5h-1q0 1 -1.5 1.5l-1.5 0.5q-1 1 -2 1.5l-1 0.5v18q0 1 -1.5 2t-4 2t-4.5 3t-2 5q0 5 2 8.5t4.5 6.5t4.5 5t2 3q0 3 -1.5 6t-3.5 5.5t-4.5 5t-3.5 5.5q0 1 1 2.5t1.5 3.5
t1.5 3.5t1 2.5q1 2 3 2.5t4 0.5t3.5 1t1.5 4t-3 5.5t-7 5t-7 7.5t-3 13v5.5t3 2.5t4 -3t2 -7t2 -7.5t4 -6.5v0h1zM114 134q0 -2 0.5 -3.5t3.5 -2.5q1 0 3 -0.5t4.5 -0.5t4.5 -0.5t3 -0.5l2 -0.5t3 -0.5v0h2l1 0.5t2 0.5v3v2q0 5 -1.5 7.5t-4 3.5t-5.5 1h-7h-3.5h-3.5
q-2 -1 -3 -4t-1 -5zM59 96q-1 -2 0.5 -4.5t4 -4t5 -2.5t4.5 -1v0l3 3l3 3q0 2 -1 4.5t-3 4t-4 2t-4 0.5q-3 0 -5 -0.5t-3 -4.5zM174 91q0 -5 3 -7.5t8 -2.5q3 0 5 1.5t2 5.5q0 2 -1 4t-3 3t-4.5 1h-4.5q-3 0 -4 -0.5t-1 -4.5zM59 52q0 -5 4 -8t9 -3q2 0 3.5 2t1.5 5
q0 4 -4.5 8t-8.5 4q-2 0 -3.5 -2.5t-1.5 -4.5v-1zM174 49q0 -5 3 -8t8 -3q4 0 6 1.5t2 5.5q0 6 -4 8t-9 2q-6 0 -6 -6zM120 48l1 -2q4 -2 6 -2h8q0 3 -0.5 5t-2 2.5t-4 1t-5.5 0.5q-1 -1 -2 -2.5t-1 -2.5zM103 24v2t2 2h7q3 0 8.5 -0.5t11.5 -1.5t11 -3t5 -5q0 -1 -0.5 -2.5
t-3.5 -1.5l-34 5q-4 1 -5.5 2t-1.5 3z" />
</svg>
