<?xml version="1.0" standalone="no"?>
<!DOCTYPE svg PUBLIC "-//W3C//DTD SVG 1.1//EN" "http://www.w3.org/Graphics/SVG/1.1/DTD/svg11.dtd" >
<svg xmlns="http://www.w3.org/2000/svg" xmlns:xlink="http://www.w3.org/1999/xlink" version="1.1" viewBox="-10 0 266 256">
   <path fill="currentColor"
d="M62 246q0 3 0.5 4t3.5 1q2 0 4.5 -2.5t3.5 -5.5v-18v-4.5t0.5 -7.5l1 -8t0.5 -5q0 -17 0.5 -33.5t3.5 -34.5v-2.5v-3.5q1 -2 4.5 -3.5t8.5 -2.5t10.5 -1.5l11 -1t9 -0.5h5.5h8q3 1 4 1.5t1 2.5q0 5 -1 10t-2 9.5l-2 9t-1 9.5q0 2 0.5 3t2.5 1q3 0 4.5 -4t3 -9t2.5 -9.5
t1 -7.5l3 -1h17q2 0 2.5 1.5t0.5 3.5q0 5 -3.5 5.5t-7.5 1t-7.5 3t-3.5 10.5q0 3 1 5.5t4 4.5q4 1 7.5 1t6.5 0.5t5.5 0.5h6.5h3.5h2.5q1 -1 1.5 -2t0.5 -2v-0.5v-0.5l-2.5 -2.5t-2.5 -1.5h-23q-1 0 -1.5 -3l-0.5 -3q0 -3 4 -4t8 -1.5t8 -3t4 -9.5q0 -8 -4 -10.5t-12 -2.5
h-6l-3 1l-3 1q-4 0 -5.5 -1t-1.5 -5l0.5 -1.5t0.5 -2.5q9 -1 19.5 -1h20.5q1 -1 1 -1.5v-1.5q0 -2 -1.5 -5t-3.5 -3q-6 0 -11.5 2t-10.5 3q-20 2 -40 2t-39 2q-7 1 -11 4.5t-6 8.5t-2.5 11.5t-0.5 12.5v5v10v12v12v10v6q0 10 -1.5 21t-1.5 21zM170 214q4 0 6 5.5t3.5 11.5
t4 11.5t7.5 5.5q4 0 4.5 -1t0.5 -5q0 -5 -2.5 -10t-5.5 -10t-5.5 -9.5t-2.5 -8.5t1 -6.5t1 -6.5v-4.5t-1 -3t-3 -2t-5 -2.5q-12 -4 -26 -4v0q-2 0 -4.5 1.5t-2.5 3.5v1q1 0 1.5 0.5l0.5 0.5q1 1 4 1.5t6.5 1t6.5 1.5t5 1q1 0 4.5 1t3.5 3t-1 4t-3 2h-1t-2 -1t-2 -1.5
l-1 -0.5q-4 -1 -7 -1h-7h-2.5h-3t-2.5 1t-1 3v1v1h3.5t5 0.5t5 0.5h3.5l4 2t2 3v1.5t-2 1.5h-6.5t-6.5 1t-6 3t-4 5q2 2 4.5 2h4.5q7 0 13.5 -2.5t10.5 -2.5zM86 242q2 1 3 1h2h1.5t1.5 -1q-1 -5 -0.5 -11t2.5 -10q0 -1 0.5 -1.5l0.5 -0.5q1 0 3.5 -0.5t5.5 -1.5t6 -1h4
q4 0 5 3t1 6t-1 6t-1 7v4q2 1 3 1h2q2 0 3.5 -0.5t2.5 -2.5v-12v-12v-2t-0.5 -2.5t-0.5 -3v-1.5q-1 -7 -0.5 -12.5t-1 -9.5t-5 -6.5t-12.5 -2.5q-4 0 -8.5 1t-8 3t-5.5 5t-3 8q0 1 0.5 2.5t0.5 3.5t0.5 4l0.5 2v1q0 6 -1 12.5t-1 12.5v11zM96 204q0 -2 3 -3.5t7 -2t8 -0.5h6
q0 5 -1.5 7t-3.5 2.5t-5 0.5h-7q-2 0 -4.5 -0.5t-2.5 -3.5zM110 184h3h3l1.5 1t1.5 2l-0.5 1t-1.5 2l-0.5 0.5l-0.5 0.5h-19q0 -2 1.5 -3.5t3.5 -2.5t4 -1h4zM86 165v1q1 0 1.5 0.5l0.5 0.5h5h4q7 0 13 -0.5t11 -2.5t7.5 -6.5t2.5 -12.5v-7.5t-1 -6t-4 -4t-8 -1.5h-5.5
t-8.5 0.5t-9 1.5t-5 4q1 3 4 3h5q4 0 8 -1t8 -1q3 0 3.5 2t0.5 4v2.5t-2 1.5h-25q-2 0 -4 1.5t-2 3.5q0 1 1.5 1.5t2.5 1t2.5 0l1.5 -0.5q6 0 11.5 -0.5t10.5 -0.5h3t2 2q0 4 -3 5.5t-6.5 1.5h-8t-8.5 0.5t-6.5 2t-2.5 4.5zM79 79l3 20l1.5 0.5t2.5 0.5q2 0 4 1l2 1h4.5h5.5
q7 0 11 -2.5t6 -6.5t2 -9.5t-1 -12.5l2 -1q1 -1 2.5 -1.5t3.5 -1t3.5 -0.5h1.5l1 1v19l4 6t4 5t5 3t8 1q12 0 16 -6t4 -16v-5q0 -4 -0.5 -5.5t-2 -1.5h-2.5q-2 0 -3.5 1.5t-2 3.5t-1.5 3t-3 1h-16q-2 0 -3 -3t-1 -4q0 -2 2.5 -2.5t6.5 -1.5t8.5 -2.5t8 -5.5t6 -11t2.5 -18
v-2.5t-0.5 -3t-2 -2.5t-2.5 -1q-5 0 -6.5 5t-2 11t-1.5 11t-3 5t-6 -3t-8.5 -6.5t-7.5 -7t-3 -5.5v-17l-1 -2l-1.5 -0.5t-2.5 -0.5l-2 0.5l-2 0.5q-1 0 -1.5 0.5l-0.5 0.5v23q0 1 -2.5 3.5t-6 4l-7 3t-5.5 1.5h-2t-1 -2v-4q0 -4 -1 -7.5t-2.5 -6.5t-5.5 -3q-2 0 -3.5 1.5
t-1.5 4.5q0 2 1 7.5t3 11t4.5 10.5t5.5 6q0 1 3 1h6t5.5 1.5t2.5 3.5q0 1 -0.5 2.5t-0.5 3t-0.5 2.5t-1.5 1h-16q-2 0 -3 -1.5t-1.5 -3t-2 -3t-4.5 -1.5l-1 1t-2 2.5t-1 2.5v2zM92 94v-1q0 -4 4 -5.5t7 -1.5q1 0 3 1t2 3q0 3 -2 4.5t-4 1.5q-1 0 -4.5 -0.5t-5.5 -1.5z
M157 85q3 0 3.5 1.5t0.5 3.5v2q0 2 -0.5 2.5t-1.5 1t-2 0.5v0h-1q-1 0 -3 -0.5t-4 -0.5t-3 -0.5l-1 -0.5v-6l2 -0.5t4.5 -1.5t4.5 -1h0.5h0.5zM108 56q0 -1 2.5 -3.5t5.5 -4.5l6 -4t4 -2t4 2t6.5 4.5t6.5 4.5t4 3l-5 3h-32q-2 0 -2 -1v-2z" />
</svg>
