<?xml version="1.0" standalone="no"?>
<!DOCTYPE svg PUBLIC "-//W3C//DTD SVG 1.1//EN" "http://www.w3.org/Graphics/SVG/1.1/DTD/svg11.dtd" >
<svg xmlns="http://www.w3.org/2000/svg" xmlns:xlink="http://www.w3.org/1999/xlink" version="1.1" viewBox="-10 0 266 256">
   <path fill="currentColor"
d="M60 237q0 2 1 3t2.5 1.5t3 0t2.5 -0.5q14 0 27.5 0.5t26.5 -3.5h5h7h7h5q11 0 20.5 1t20.5 1q3 0 5 -1t2 -5q0 -1 -1 -3t-2 -3h-12q-8 0 -16.5 1t-17.5 1h-9q-2 0 -3 -2t-1 -4v-4v-7v-7v-4l-0.5 -1l-1 -2t-0.5 -2v-1q0 -1 1 -3.5t2 -2.5q10 -2 20 -2.5t20 0.5q0 -1 2 -3
l2 -2v-1v-0.5v-0.5l-2 -2t-2 -3h-6q-8 0 -15.5 1.5t-15.5 2.5q-14 2 -28.5 2t-29.5 -1q-3 2 -3 6v1l1.5 1.5l1.5 1.5h4.5h4.5q6 0 12 -1t13 -1h3q3 0 3 1l1 6v36h-56q-3 0 -3.5 1.5t-0.5 3.5zM73 123q0 5 1 11t3 12t5 11.5t6 9.5h1q2 0 4.5 -2.5t2.5 -4.5q0 -1 -1.5 -4.5
t-1.5 -5.5l-0.5 -0.5t-1.5 -0.5q-3 -8 -4.5 -13t-1.5 -12t1.5 -13t4 -12t4 -12.5t1.5 -12.5q0 -9 -2 -15.5t-9 -12.5h-1h-1q-2 0 -3 0.5t-1 3.5q0 2 1 5t2 6.5t2 7.5t1 8q0 6 -1.5 12t-4 11t-4.5 10.5t-2 12.5zM114 127q0 2 1.5 7.5t3.5 11.5t4 11t4 5h1q1 -1 2.5 -1.5
t2.5 -0.5v-3v-3q0 -3 -1.5 -6l-3 -6t-2.5 -6.5t-1 -7.5q0 -8 1 -14.5t2.5 -13.5t3 -13.5t1.5 -14.5q0 -5 -0.5 -8t-1.5 -5t-3 -4t-6 -5l-2.5 -2.5t-0.5 -1t-1 -0.5h-3q-1 0 -3 0.5t-2 2.5l1.5 2.5t4 6.5t4.5 9.5t2 10.5q0 9 -2 18.5t-3 18.5q0 3 -1.5 5.5t-1.5 6.5zM155 117
q0 3 0.5 10.5t2 15t4.5 13.5t8 6h4q1 -2 1 -3v-3q0 -3 -1 -6l-2 -6t-2.5 -6t-1.5 -5q-2 -7 -2 -11.5v-10.5q0 -10 2 -19t2 -19q0 -6 -0.5 -11t-2.5 -8.5t-6 -6t-11 -2.5q0 3 1.5 6.5t3.5 7t3.5 8t1.5 10.5q0 11 -2.5 20.5t-2.5 19.5zM60 34q0 2 0.5 3.5t3.5 0.5h2.5h3.5h4h3
q26 0 53 -2.5t53 -3.5q2 0 2.5 -1.5t0.5 -2.5q0 -2 -1 -3t-2 -1.5t-3 0t-3 0.5q-14 0 -28.5 1t-28.5 2q-3 0 -11 0.5t-17 1t-17 1t-11 0.5t-3.5 1.5t-0.5 2.5z" />
</svg>
