<?xml version="1.0" standalone="no"?>
<!DOCTYPE svg PUBLIC "-//W3C//DTD SVG 1.1//EN" "http://www.w3.org/Graphics/SVG/1.1/DTD/svg11.dtd" >
<svg xmlns="http://www.w3.org/2000/svg" xmlns:xlink="http://www.w3.org/1999/xlink" version="1.1" viewBox="-10 0 266 256">
   <path fill="currentColor"
d="M123 244q0 3 1.5 4.5t3.5 1.5q4 0 9.5 -5t11.5 -13t12 -17.5t11.5 -19t9 -17t5.5 -11.5q0 -1 1 -3t2 -4.5l2 -5t2 -3.5q3 -10 6 -21.5t3 -22.5q0 -7 -4 -11.5t-9 -8l-10 -7t-7 -8.5v-14v-13t3 -14q1 -1 3 -2t4 -1q1 0 4.5 -0.5t8 -1t8.5 -0.5h5l3 -1v-1.5v-2.5
q0 -3 -1 -5.5t-5 -2.5h-1q-1 0 -3.5 1t-3.5 1l-61 5q-5 0 -7.5 1t-2.5 6q0 1 0.5 2.5t1.5 1.5h6q7 0 14 -0.5t14 -0.5q0 12 -1 23.5t-1 23.5q0 5 2 7.5t5.5 4l7 3t7 4t5.5 6.5t2 11q0 9 -2 17.5t-5.5 17.5t-7.5 17t-8 15v2q-10 16 -20 31.5t-24 28.5v1v1zM46 132v1.5t2 1.5
h2.5h3.5q6 0 11.5 -1.5t11.5 -1.5q2 -1 8 -1.5t13.5 -1.5t13.5 -1.5t8 -0.5q4 -1 7 -1.5t3 -4.5q0 -1 -0.5 -2t-2.5 -2h-2.5h-3.5q-5 0 -10 1t-11 1h-5l-2 -2v-8v-13q0 -6 0.5 -15t0.5 -17.5t0.5 -14.5l0.5 -6l1 -4h6t8.5 -0.5t7.5 -2t3 -5.5q0 -2 -1 -3t-2.5 -1.5
t-3.5 -0.5h-3q-14 0 -28.5 1t-28.5 4q-3 3 -3 6t1 6h7q5 0 9 -2t10 -2q1 0 2 1.5t1.5 3.5t0.5 4v3v1v15t-0.5 18t-0.5 17v13v5l-4 2h-25q-3 0 -4.5 3.5t-1.5 6.5z" />
</svg>
