<?xml version="1.0" standalone="no"?>
<!DOCTYPE svg PUBLIC "-//W3C//DTD SVG 1.1//EN" "http://www.w3.org/Graphics/SVG/1.1/DTD/svg11.dtd" >
<svg xmlns="http://www.w3.org/2000/svg" xmlns:xlink="http://www.w3.org/1999/xlink" version="1.1" viewBox="-10 0 266 256">
   <path fill="currentColor"
d="M46 223q0 3 0.5 5t4.5 2h28q32 0 63.5 -1t63.5 -1q3 -1 4.5 -2t1.5 -4t-2.5 -4.5t-5.5 -1.5l-1.5 0.5l-1.5 0.5h-1.5t-2.5 0.5t-2.5 0.5h-1.5h-5t-11 0.5t-12.5 1t-10.5 0.5h-2q-2 0 -4 -2l-3 -3q-1 -9 -1.5 -16t-0.5 -17q0 -36 1 -71.5t1 -72.5q1 0 3 -0.5t4 -0.5
t4 -0.5l2 -0.5h10h14h15h9q2 -1 2 -2v-2q0 -5 -2.5 -6t-6.5 -1q-16 0 -32.5 0.5t-33 1.5t-33 1.5t-32.5 -0.5q-3 -1 -3 1.5v3.5q0 5 3 5h6q9 0 17.5 -1t16.5 -1q2 0 6 0.5t7.5 0.5t6.5 1t3 2v76v5q0 20 1 40.5t1 41.5v3.5t-0.5 5t-2 4.5t-4.5 2h-77q-3 0 -3 1.5v3.5zM71 154
q0 6 1 14t3 16.5t5 16t9 11.5v0q2 0 4 -2t2 -4q0 -3 -1 -6.5t-3 -7t-3.5 -7t-2.5 -7.5q-1 -7 -1.5 -12.5t-0.5 -12.5q0 -1 0.5 -3.5l1 -5t2 -4t4.5 -1.5t5.5 3.5t4.5 9t3.5 11.5t3.5 11t3.5 8.5t4.5 3.5h1h1q0 -1 2 -4t3 -4v-2v-2l-1.5 -2t-2.5 -2q-2 -5 -5 -10t-5.5 -10.5
t-4.5 -10.5t-2 -10t1.5 -8.5t3.5 -7l4 -7t2 -8.5v-1q-1 -1 -2 -5t-2 -8.5t-2 -8.5t-1 -5q-1 -2 -1.5 -6.5t-2 -8.5t-3.5 -7t-6 -3q-3 0 -4.5 1.5t-1.5 4.5v1l0.5 1.5t1.5 3.5t2 3.5t1 2.5t1 2t1 2q1 9 4 18t3 18q0 3 -4 8.5t-8.5 11.5t-9.5 11.5t-7 9.5q-1 2 -1 5v5z
M171 206q0 2 1 4t3 2q3 0 7 -3.5t8 -9t7 -12.5t5.5 -13.5t4 -12t1.5 -8.5q0 -10 -4.5 -18t-10.5 -14.5t-11 -12.5t-5 -12q0 -5 3 -11t6 -11l6 -10t3 -9q0 -3 -0.5 -5t-4.5 -2q-2 0 -3.5 0.5t-2.5 3.5l-5 10t-5.5 12t-4.5 12.5t-2 12.5q0 4 2 7t4.5 6.5t4 6.5t1.5 7
q0 6 -5 13.5t-11 15.5t-11 16.5t-5 15.5q6 0 10 -4t7 -9q1 -2 4 -7t6 -11t6 -11.5t4 -7.5q1 0 2 -1.5t2 -1.5q2 -1 4.5 2t4 6.5t2.5 7t1 4.5q0 7 -3 13.5t-7.5 13t-9 12.5t-8.5 12l-0.5 0.5z" />
</svg>
