<?xml version="1.0" standalone="no"?>
<!DOCTYPE svg PUBLIC "-//W3C//DTD SVG 1.1//EN" "http://www.w3.org/Graphics/SVG/1.1/DTD/svg11.dtd" >
<svg xmlns="http://www.w3.org/2000/svg" xmlns:xlink="http://www.w3.org/1999/xlink" version="1.1" viewBox="-10 0 266 256">
   <path fill="currentColor"
d="M187 240q-1 3 0 7t5 4q2 0 3 -0.5l3 -1.5v-1.5v-2.5q0 -10 -4.5 -19.5t-8 -18.5t-7.5 -18.5t-9.5 -17.5t-13.5 -14t-19 -7q-2 0 -7.5 -0.5t-11.5 -1t-11.5 -1t-7.5 -0.5q-4 0 -9.5 -1.5t-10 -3.5t-8 -5.5t-3.5 -9.5q0 -2 1 -7t2.5 -10.5t3.5 -10t3 -5.5q8 -5 18.5 -5.5
t21.5 0t21.5 0.5t19 -2.5t13.5 -10t5 -22.5q0 -11 -3 -18t-8.5 -11t-12.5 -5t-15 -1.5t-17 0.5t-18 1h-7h-11h-11h-7q-4 0 -5 1.5t-1 4.5q0 4 2 5t6 1q11 0 23 -1.5t23 -1.5h20q5 2 11 2q5 0 9.5 1t7.5 4.5t3 12.5q0 12 -3.5 19.5t-15.5 11.5h-14h-16t-16.5 0.5t-15.5 1.5
l-2 1.5t-2.5 1.5t-1.5 0.5t-3 1t-3 1t-2 0.5q-3 3 -5.5 7t-4 8.5t-2 9t-0.5 8.5t0.5 10.5t1.5 9.5q2 6 8.5 9t15 4.5t18.5 2.5l20 2t18.5 3t13.5 7q4 3 7 7.5t5.5 9.5t4.5 10t3 10q1 2 3 6.5t4 10t3.5 10.5t2.5 7z" />
</svg>
