<?xml version="1.0" standalone="no"?>
<!DOCTYPE svg PUBLIC "-//W3C//DTD SVG 1.1//EN" "http://www.w3.org/Graphics/SVG/1.1/DTD/svg11.dtd" >
<svg xmlns="http://www.w3.org/2000/svg" xmlns:xlink="http://www.w3.org/1999/xlink" version="1.1" viewBox="-10 0 266 256">
   <path fill="currentColor"
d="M63 209q0 9 3 16.5t8.5 12.5t13 8t16.5 3q14 0 23 -4.5t15 -12.5t8.5 -19t3.5 -24v-3v-7v-6v-4q2 -8 8.5 -15t14 -12.5t13 -10.5t5.5 -9q0 -2 -1.5 -3.5t-3.5 -1.5q-5 0 -9 3t-7 6l-4.5 4.5l-7 7t-6 6.5t-3.5 3q-6 6 -8 15.5t-2.5 19.5t-1 19.5t-3.5 17.5
q-6 10 -14.5 13.5t-19.5 3.5h-2h-2.5h-3.5h-2q-4 -3 -7.5 -6t-6.5 -6t-5 -7.5t-2 -10.5q0 -7 4 -13t9.5 -11.5t12.5 -11t13 -11.5t9.5 -13t3.5 -15t-3 -15.5t-7.5 -14.5t-9.5 -13t-9 -12q-3 -5 -3.5 -7.5t-0.5 -6.5q0 -6 2.5 -12t7.5 -9l5 -2.5t5.5 -3t5 -2.5l2.5 -1h28
q4 0 7 2t5 5t3 6.5t1 6.5q0 8 -4.5 13.5t-9.5 10.5q-2 0 -5 0.5l-6 1l-6 1t-4 0.5q-3 1 -6 2.5t-3 4.5q0 2 1.5 3t3.5 1.5t4 0.5h3q8 0 16 -3t14.5 -8t10.5 -12.5t4 -16.5q0 -7 -2.5 -13.5t-7.5 -10.5t-12 -6t-14 -2h-13.5t-13.5 2q-1 0 -3 1.5l-2 1.5l-1.5 0.5t-3.5 1
t-3.5 1l-1.5 0.5q-10 7 -14 15t-4 19q0 10 5 18.5t11 16.5t10.5 16t4.5 19q0 8 -3.5 14t-9 11.5t-12 11t-12 11.5t-9 13.5t-3.5 16.5z" />
</svg>
