<?xml version="1.0" standalone="no"?>
<!DOCTYPE svg PUBLIC "-//W3C//DTD SVG 1.1//EN" "http://www.w3.org/Graphics/SVG/1.1/DTD/svg11.dtd" >
<svg xmlns="http://www.w3.org/2000/svg" xmlns:xlink="http://www.w3.org/1999/xlink" version="1.1" viewBox="-10 0 266 256">
   <path fill="currentColor"
d="M157 237v5.5t3 5.5h1q2 0 3.5 -2.5t3 -5.5t2 -6t0.5 -4q-1 -76 2 -153q2 -6 9 -6q3 0 4.5 2t2.5 4q2 11 1.5 23.5t0.5 23.5v5t0.5 8.5t0.5 9v5.5v38q0 1 1.5 2l1.5 1q2 0 3.5 -1t2.5 -3t1.5 -4t0.5 -3v-7q0 -4 0.5 -9.5t0.5 -9.5v-7v-18q0 -9 -0.5 -17t-1 -16.5
t-2.5 -18.5q0 -1 -0.5 -2t-1 -2.5l-1 -3t-0.5 -2.5t-0.5 -2t-1.5 -1q-1 -2 -5 -2.5t-8 -0.5t-6.5 -1t-2.5 -5q0 -8 2.5 -15.5t2.5 -15.5q0 -4 -2 -8t-7 -4q-1 0 -3.5 0.5t-2.5 3.5v36q0 5 -3 7t-7 2t-7.5 0.5t-5.5 3.5q-5 9 -7.5 23t-4 29.5t-1.5 30v24.5q0 2 1 5t4 3
q2 0 4 -1t2 -4q0 -12 -0.5 -24.5t0 -25t2 -25t5.5 -23.5q3 -9 12 -9q1 0 2 0.5t2 0.5q0 1 0.5 2.5t0.5 3.5t0.5 4t0.5 3q0 38 -2.5 76.5t-2.5 76.5zM56 215q0 3 1 5t4 2t4 -1.5t2 -4.5v-10q0 -6 -0.5 -12.5t-0.5 -12.5v-1q0 -1 0.5 -4t0.5 -4q6 -1 12.5 -2t12.5 -3.5
t10.5 -7t5.5 -10.5q0 -1 0.5 -3.5t0.5 -5v-5v-3.5q1 -2 2 -3l2 -2l2 -2t1 -3q0 -3 -1.5 -3h-4.5q-11 0 -21.5 1t-21.5 1v-17l2 -3q8 -1 15.5 -2.5t15.5 -2.5q3 -3 5 -6t3 -7t1.5 -7.5t1.5 -8.5q1 -2 2.5 -2.5t3.5 -1t3 -1t1 -2.5q0 -1 -0.5 -3t-2.5 -1h-8t-11 0.5t-11.5 0.5
h-7.5h-3q-3 0 -5 -0.5t-2 -2.5q0 -5 3.5 -9.5t8.5 -5.5l34 -3q1 0 3 -1.5t2 -2.5v-1l-1.5 -1.5t-1.5 -2.5h-11q-5 0 -12 0.5t-14 2.5t-13 5t-8 9q-2 16 -3 33.5t-1.5 35.5t0 35.5t0.5 32.5q0 6 0.5 11.5t0.5 11.5v1v1.5t-0.5 2.5t-0.5 2.5v1.5v2zM65 151v-4v-5.5t1 -5
t3 -2.5q1 -1 4 -1.5t6.5 -1.5t6.5 -1.5t4 -0.5h2q4 0 5 3t1 7q0 12 -7 16.5t-19 4.5h-2h-3q-2 -1 -2 -4v-5zM69 78q0 -6 2.5 -8.5t7 -3.5t10 -1h10.5q0 8 -0.5 13t-2.5 8t-6.5 4t-12.5 1h-7q-1 -3 -1 -6v-7z" />
</svg>
