<?xml version="1.0" standalone="no"?>
<!DOCTYPE svg PUBLIC "-//W3C//DTD SVG 1.1//EN" "http://www.w3.org/Graphics/SVG/1.1/DTD/svg11.dtd" >
<svg xmlns="http://www.w3.org/2000/svg" xmlns:xlink="http://www.w3.org/1999/xlink" version="1.1" viewBox="-10 0 266 256">
   <path fill="currentColor"
d="M121 246q2 2 3 3.5t3 1.5q3 0 4.5 -1.5t2 -4t1 -4.5t1.5 -3v-8v-10.5v-10.5v-7q0 -16 -1 -31t-1 -30v-6q1 -2 3.5 -3t4.5 -1t3 1.5l2 3t2 3.5t1 4v50q0 1 0.5 2.5t0.5 3.5t0.5 4t0.5 3l0.5 1t1.5 1v0q3 0 4.5 -2t1.5 -5v-3v-4.5v-4.5v-3v-12t-0.5 -14.5t-1 -14.5
t-1.5 -12q-1 -1 -1.5 -3t-1.5 -4t-2 -3.5t-2 -1.5h-16l-0.5 -2l-0.5 -2q0 -4 1.5 -9.5t4.5 -7.5h10q10 0 15 1.5t7.5 5t3.5 10t3 16.5v3.5t0.5 5.5t0.5 5.5v3.5q1 2 2.5 2h2.5q2 0 3 -0.5t2 -2.5v-8v-11.5t-1.5 -13.5t-4 -12.5t-7.5 -9.5q-9 -3 -19.5 -4t-19.5 -1l-3 -2v-14
l1 -1t2 -1q2 -1 3.5 -1.5t2.5 -1t2 -1.5t2 -3v-7t1.5 -7t3.5 -5t6 -2t6.5 6t6.5 13t9 13t14 6q2 0 4.5 -0.5t2.5 -3.5q0 -4 -5 -6.5t-10.5 -5.5t-10 -7.5t-4.5 -11.5q0 -2 1.5 -3.5t3.5 -1.5h28q2 0 3.5 -1.5t1.5 -3.5t-1.5 -3t-3.5 -1.5t-5 -0.5h-3q-5 0 -9.5 1t-9.5 1
q-3 0 -5 -1.5t-2.5 -4.5t-0.5 -6t1 -7q-2 -3 -5 -3t-4 1.5t-1 4.5v3l0.5 1t0.5 2.5t0.5 3l0.5 1.5q0 1 -0.5 3t-1.5 2h-10q-1 0 -1.5 -3t-1 -6.5t-1.5 -6.5t-3 -3q-1 0 -2 0.5t-2 1.5q1 5 0.5 10.5t-2.5 9.5h-2h-2q-3 0 -7.5 -0.5t-7.5 -1l-3 -0.5l-3 -1v-13q0 -3 -2.5 -3.5
t-3.5 -0.5h-2.5t-1.5 2v15q0 1 -1.5 1.5l-3 1t-3 0.5h-2.5q-4 0 -5 -2.5t-1.5 -6t-1 -6.5t-4.5 -3h-3q-1 0 -1 2v18h-26q-2 0 -2.5 2.5t-0.5 3.5v2.5t1 1.5h23q1 0 1 2v2v2q-2 8 -6 16t-11 13v1q0 4 3 4q6 0 11 -4t8 -9.5t5 -12t2 -11.5q2 -4 5.5 -4.5t7.5 -0.5h4t3 2v18
q0 2 3 3.5t7 2t7 1.5t3 3v15q-2 0 -6.5 0.5t-9.5 1t-9.5 1t-6.5 0.5q-9 1 -14 7t-7.5 14t-3.5 16.5t-2 15.5q-1 1 -1.5 3l-0.5 2q0 2 2 3.5t3 1.5q4 0 6 -3t3.5 -8t2 -11t1.5 -11.5t3 -10.5t5 -7l13.5 -4.5t14.5 -2.5h1h3t2 0.5t1 1.5v19q0 1 -1 2.5t-2 1.5h-2t-4 0.5
t-3.5 1l-1.5 0.5q-2 0 -3.5 1.5t-3 3.5t-2.5 4t-1 4q0 3 -0.5 11.5t-1 18t-1 18t-0.5 11.5v2q0 2 1 2.5t3 0.5q4 0 5.5 -5t1.5 -13t-0.5 -17t0.5 -17t4 -13.5t9 -5.5q2 0 2.5 0.5t0.5 3.5t0.5 10.5t0.5 16t0.5 16.5t0.5 11v1v1q0 1 -0.5 5.5t-0.5 9.5t-0.5 9.5t-0.5 5.5v6v6
q0 2 -0.5 4.5t-2.5 6.5zM111 55q0 -3 1.5 -5t4 -3t5.5 -1.5t6 -0.5q9 0 9 10q0 6 -2.5 7.5t-7.5 1.5q-2 0 -4.5 -0.5l-5 -1t-4.5 -2.5t-2 -5z" />
</svg>
