<?xml version="1.0" standalone="no"?>
<!DOCTYPE svg PUBLIC "-//W3C//DTD SVG 1.1//EN" "http://www.w3.org/Graphics/SVG/1.1/DTD/svg11.dtd" >
<svg xmlns="http://www.w3.org/2000/svg" xmlns:xlink="http://www.w3.org/1999/xlink" version="1.1" viewBox="-10 0 266 256">
   <path fill="currentColor"
d="M76 242q0 5 1 5.5t6 0.5q3 0 5 -5.5t2.5 -12.5t0.5 -15v-10v-4v-3l-2 -4q1 -18 0 -35t-1 -35q0 -14 0.5 -28t2.5 -27q1 -2 2 -2h2q4 0 5 2.5t2 5.5q0 2 0.5 5t0.5 7t0.5 7t0.5 5v0v1v0v0q-1 6 -1.5 13.5t-1.5 15t-1.5 14.5t-0.5 14q0 2 0.5 3t2.5 1q3 0 5 -2.5t3 -6
t1.5 -7t0.5 -4.5v-72q0 -6 -3.5 -8t-7.5 -3l-8 -2t-4 -5q0 -6 1 -11t1 -12v-12q0 -2 -0.5 -2.5t-2.5 -0.5q-1 0 -4.5 0.5t-3.5 2.5v38l-1 0.5l-1 0.5l-10.5 3.5t-7.5 4t-5 7t-3 12.5v5t-0.5 9t-0.5 9v6q-1 12 -1.5 24t-0.5 24q0 2 2 3.5t4 1.5h1l2 -2t2 -3q0 -3 0.5 -11
t0.5 -17t0.5 -17.5t0.5 -11.5v-9t1 -12t4 -10t8 -4h3.5t2.5 2v3.5t-0.5 5.5t-0.5 5.5v3.5v8v14v18v17v14v8q0 19 -2 38t-2 38zM125 186q2 8 5 13.5t7.5 9t11 4.5t14.5 1q16 0 24.5 -3t12.5 -10t5 -18.5t1 -26.5q0 -1 -0.5 -2.5l-0.5 -1.5l-0.5 -2l-0.5 -2q-1 -12 -2 -18.5
t-4 -9t-9.5 -3t-18.5 -0.5h-8q-4 0 -8.5 0.5t-8.5 1t-8 2.5q-6 3 -8.5 8t-3.5 11t-0.5 12t0.5 12v5v6.5v6.5v4zM135 172v-4t2 -2q5 -1 9 -1.5t8 -0.5q3 0 4 2.5t1.5 5.5t1 6.5t0.5 4.5v1q-1 1 -1.5 3.5l-1 5l-1 5t-0.5 3.5q-1 0 -4 1t-4 1q-5 -1 -8 -4.5t-4.5 -8.5t-1.5 -10
v-8zM168 179v-2v-4.5v-3.5v-3q1 -2 3 -3t4.5 -1h5h3.5h3.5h3.5q3 1 3 3.5v4.5v11t-2 10.5t-5.5 8t-9.5 3.5q-5 0 -7 -3t-2.5 -6.5t0 -7.5t0.5 -7zM135 149q0 -11 3.5 -16.5t14.5 -5.5q3 0 4 1.5t1.5 4t0.5 4.5v4q0 5 -1 7.5t-2.5 3.5t-4 1.5t-7.5 0.5h-8q0 -1 -0.5 -2.5
t-0.5 -2.5zM168 152v-4q0 -6 0.5 -10t1.5 -11h3.5h3.5q10 0 13.5 5.5t3.5 15.5q0 3 -2 4t-4.5 1.5t-5.5 0.5h-4h-1q-2 0 -5 -0.5t-4 -1.5zM126 79q0 5 2.5 8t5.5 6t6.5 4.5t6.5 2.5h16h17.5t12 -2.5t6.5 -8t2 -17.5q0 -5 -2.5 -8.5t-7.5 -4.5h-3t-4 -0.5t-4 -0.5h-3h-8
t-10.5 0.5t-11.5 2t-10.5 3.5t-7.5 6t-3 9zM136 81q0 -5 4.5 -8t11 -4.5t12.5 -1.5h9h5h5q4 0 5 4.5t1 7.5q0 4 -1.5 6t-4 3.5t-5.5 1.5h-6h-8t-12 -0.5t-11 -2.5t-5 -6zM118 37q0 1 0.5 1h0.5l6 2h5h11.5t14 -0.5t11.5 -1.5h9t13.5 -0.5t12 -1t5.5 -1.5v-7q-22 0 -43.5 2
t-43.5 3q-1 1 -1.5 2t-0.5 2z" />
</svg>
