<?xml version="1.0" standalone="no"?>
<!DOCTYPE svg PUBLIC "-//W3C//DTD SVG 1.1//EN" "http://www.w3.org/Graphics/SVG/1.1/DTD/svg11.dtd" >
<svg xmlns="http://www.w3.org/2000/svg" xmlns:xlink="http://www.w3.org/1999/xlink" version="1.1" viewBox="-10 0 266 256">
   <path fill="currentColor"
d="M55 219v0q0 3 0.5 7t0.5 7.5t0.5 6.5l0.5 3q0 2 0.5 5t3.5 3q1 0 3.5 -1t2.5 -2v-34q3 -8 3.5 -16t2.5 -15.5t5.5 -15t6 -14.5t4.5 -15t2 -16q0 -6 -1 -11.5t-3 -10t-6.5 -7.5t-11.5 -3q-3 0 -6 2t-5 4.5t-3 6t-1 6.5v45q0 6 5 6t5 -5v-1.5v-0.5q0 -1 -0.5 -5l-1 -8
l-1 -8t-0.5 -5v0q0 -2 0.5 -6.5t1.5 -9t3.5 -8t5.5 -3.5q5 0 6 3l2 6q0 1 0.5 3t0.5 4v3v3q0 13 -4 25t-9 23t-9 23t-4 26zM185 213q0 9 -1 17t-1 17q4 0 7 -1.5t4 -6.5v-17q0 -17 -2 -34.5t-2 -34.5q0 -3 2 -6t4 -5.5t3.5 -5t1.5 -6.5v-22l-0.5 -1t-1.5 -2q-2 -3 -6 -4.5
t-7 -2.5t-5.5 -1.5t-2.5 -2.5q0 -9 1 -18.5t1 -19.5l3 -3h3.5h5.5h5.5h3.5q3 0 4 -0.5t1 -2.5q0 -4 -2.5 -5t-6.5 -1q-3 0 -5.5 1t-5.5 1q-6 0 -6 -6q0 -5 1 -9t1 -9v-4.5v-4.5q-1 -2 -3 -2h-2h-2q-2 0 -2 2q0 20 -1.5 38.5t-0.5 38.5q-1 3 -3 3.5l-4 1t-3.5 1.5t-1.5 3v1.5
t2 1.5q14 4 28 4q1 1 2 3t1.5 5t1 5.5t0.5 3.5q0 3 -0.5 5.5t-3.5 2.5q-2 0 -4 -1t-4 -2.5t-4 -2.5t-5 -1h-3.5t-4.5 0.5l-4 1t-2 2.5v1l1 1.5l1 1.5h16l0.5 0.5t1.5 0.5q0 1 1 3.5t2 2.5v1q0 6 -4 10t-8 7t-7.5 5t-3.5 4t2 3q3 0 5 -2t4.5 -3.5t4.5 -2.5t4 -1h1.5h1.5
q2 13 2.5 26.5t0.5 26.5zM122 239l1 1.5t2 1.5t1.5 -0.5t2 -1.5t2 -1.5t0.5 -1.5q-1 -26 0.5 -53t2.5 -54v-1.5t0.5 -3.5t0.5 -4v-3q1 -3 1.5 -3.5t2.5 -0.5q4 0 7 4v5v6.5v6.5v5q0 14 -1.5 28.5t-1.5 29.5q0 2 0.5 4t3.5 2q2 0 3 -4.5t1.5 -10.5t0.5 -11v-7v-5.5t0.5 -9.5
t0.5 -9.5v-5.5v-9v-9t-1 -9q-1 -3 -3.5 -4.5t-5.5 -3t-5.5 -2l-2.5 -0.5v-14l3 -0.5t5 -0.5h2.5t3.5 -0.5t3.5 -0.5h2.5q0 -1 1 -2t2 -1v-0.5v-0.5v-1l-0.5 -0.5t-1.5 -0.5q-4 -3 -9 -3h-10l-2 -2l-1 -1v-1q0 -3 4.5 -6t9.5 -6t9.5 -6t4.5 -6q0 -2 -2 -2h-3q-3 0 -6.5 2.5
t-7 5.5t-7.5 5.5t-9 2.5q-3 0 -4 -2.5t-1 -6.5q0 -2 0.5 -4t2.5 -3q1 0 4 -2t6.5 -3.5t6.5 -3t4 -1.5q2 -2 4.5 -4t2.5 -5v0q0 -1 -1 -2t-2 -1v-1q-1 0 -4 3t-7.5 6t-10 5.5t-10.5 2.5q-1 0 -1.5 -1t-0.5 -2q0 -4 2 -7.5t5.5 -5.5t7.5 -3.5t7.5 -3t5.5 -3.5t2 -5
q0 -2 -1 -2.5t-3 -0.5q-5 0 -6 1.5t-5 4.5q-3 2 -7 4t-7 5t-5 6.5t-2 8.5q0 8 2 13t5 9l6 8t5 11v1v1q-3 1 -8.5 1t-11.5 0.5t-10 1.5t-4 3v1l0.5 1.5l0.5 1.5h3.5h2.5q6 0 12 -1.5t12 -1.5q2 0 2.5 1.5t0.5 2.5q0 8 -3 11t-7 4.5t-7.5 3t-4.5 5.5q-2 9 -3.5 16t-1.5 15
q0 4 1 8t1 8v1l-1 0.5t-1 1.5l-0.5 1.5t-0.5 2.5v28q0 2 1.5 2h2.5t2 -0.5t1 -2.5q4 -20 4 -39.5t2 -39.5q2 -3 5.5 -3.5t6.5 -0.5v9v15v15v9q0 16 -1.5 31t-1.5 30v2v4.5v4.5v3zM50 68q0 2 2 3h3.5h2.5q5 0 11.5 -1.5t11.5 -4t8 -7t3 -11.5q0 -4 -2.5 -11t-7 -14t-9 -12
t-8.5 -5q-2 0 -4.5 2t-2.5 4t1.5 3.5t3.5 2.5t3.5 2t2.5 1q0 1 2 3.5l4 5t3.5 4.5t1.5 3q1 3 1.5 5t0.5 4q0 7 -5 10.5t-11 5t-11 3t-5 4.5z" />
</svg>
