<?xml version="1.0" standalone="no"?>
<!DOCTYPE svg PUBLIC "-//W3C//DTD SVG 1.1//EN" "http://www.w3.org/Graphics/SVG/1.1/DTD/svg11.dtd" >
<svg xmlns="http://www.w3.org/2000/svg" xmlns:xlink="http://www.w3.org/1999/xlink" version="1.1" viewBox="-10 0 266 256">
   <path fill="currentColor"
d="M172 168q1 0 2 0.5t1 1.5v81q3 0 6.5 -1t3.5 -4v-71q0 -2 1 -2.5t2 -0.5q3 0 5 4.5t2.5 12t0 16t0 16t1 12.5t3.5 6q4 -3 5 -5.5t1 -7.5q0 -14 -0.5 -30t-5.5 -31q-1 -3 -3.5 -3.5t-4.5 -1t-3.5 -2.5t-1.5 -7t1 -6.5t3 -2.5t4 -1.5t5 -4.5q4 -6 4.5 -13.5t0.5 -14.5v-10
q-1 -2 -2 -2h-2q-3 0 -4 2.5t-1 6v8v8.5t-1 6.5t-4 2.5h-1v0l-1 -0.5t-1 -1.5v-13v-14q0 -7 1.5 -9t3 -2.5t3.5 -1.5t4 -5v-2t0.5 -3.5t0.5 -3.5v-2q1 -3 3.5 -3h4.5q3 0 5 -0.5t2 -3.5t-2 -4t-5 -1t-5.5 -0.5t-2.5 -3.5q0 -1 1.5 -2l3 -2t2.5 -1.5t1 -2.5q0 -4 -3 -6.5
t-8 -4t-11.5 -2t-11.5 -1t-8.5 -1t-4.5 -1.5v-17q0 -2 -1 -2.5t-3 -0.5q-3 0 -5 1.5t-2 5.5q0 3 1 5t1 5v3t-2 3q-2 0 -5.5 0.5t-7.5 1l-8 1t-5 0.5q-3 0 -6.5 1t-7 2.5t-6.5 3.5t-5 4q1 2 2.5 2t3.5 0.5t3 1t1 1.5v11q0 2 -2 2.5l-4 1t-3.5 1l-1.5 0.5v1q0 2 1.5 3t3 1.5
t3.5 1t3 0.5q0 5 2 8t4 5.5l4 5t2 6.5q0 1 -1 7t-2 12.5t-2 11.5t-2 5t-2.5 -1t-2.5 -2v-4v-3v-4.5v-3.5l1 -3l1 -3q0 -4 -1 -5t-3 -1q-1 0 -2 0.5l-1 0.5q-2 5 -2 9v10v10q1 2 3.5 3.5t4.5 2.5t3.5 1.5l1.5 0.5v11q0 1 -0.5 1.5l-0.5 0.5q-8 5 -12 11t-5.5 13t-1.5 15t1 17
q-2 2 -3 5t-1 6.5v7v6.5v2t2 2q4 0 5.5 -5.5t2.5 -14t1.5 -18.5t1 -18t2 -14t4.5 -6q1 0 1 0.5v0.5q1 0 1.5 0.5l0.5 0.5v74q0 1 1.5 2l1.5 1q0 1 1.5 0l1.5 -1l1.5 -1.5l0.5 -0.5v-75q0 -1 0.5 -2t1.5 -2h1q3 0 5 4.5t3 11.5t1.5 15.5t0 16.5t-0.5 14q0 7 1 9q0 1 0.5 1.5
t1.5 0.5v0h1l4 -3v-21q0 -14 -0.5 -27t-6.5 -25l2.5 -5t4 -5t5.5 -4t5 -2l1 0.5t2 1.5l2 1.5t3.5 3.5t3 3.5l2.5 2.5v1v1q0 2 -1 3.5t-2 3.5t-2.5 3.5t-2.5 3.5q-2 6 -3 14t-1.5 16t-0.5 15.5v13.5q0 4 3 4q2 0 3 -0.5t2 -2.5q0 -1 0.5 -4t0.5 -5.5t0.5 -5t0.5 -3.5
q0 -3 0.5 -11t1 -16.5t2 -15t4.5 -6.5zM60 225q-1 1 -1.5 4t-1 5.5t-0.5 5.5v3q5 0 8.5 -1t5.5 -6v-69v-7.5t0.5 -12.5t0.5 -13v-7q1 -8 0.5 -16t0 -16t1 -16.5t2.5 -14.5l1.5 -0.5l1.5 -0.5q3 0 4.5 3.5t2.5 9t1.5 12t0.5 12.5t-0.5 11t-0.5 8q0 14 -1 28.5t-1 28.5
q3 0 5.5 -2.5t3.5 -4.5q1 -13 1 -26v-25v-6v-9v-9v-6q-1 -3 -1 -7t-0.5 -8t-1 -7.5t-2.5 -6.5q-1 -2 -3 -2.5t-4.5 -1t-4.5 -0.5t-2 -2v-3.5v-3.5q0 -6 1.5 -12.5t1.5 -12.5q0 -3 -1.5 -4.5t-4.5 -1.5q-2 0 -4.5 1t-2.5 4v29q0 3 -1.5 4t-4 2.5t-4.5 2.5t-3 3q-2 3 -4 7.5
t-3 8.5q0 3 -0.5 10t-1 15.5t-1.5 18t-1.5 18t-1 15t-0.5 10.5v6v7l0.5 0.5t1.5 0.5v0q2 0 3 -2l2 -4t1 -4v-3q0 -2 1 -10t1.5 -17t1 -17t1.5 -10q0 -3 1 -9t2 -12.5t2 -12.5t2 -8q0 -2 3 -2t3 3v5q0 26 -0.5 52t-2.5 51q0 1 -1 2.5t-1 2.5t-0.5 3.5l-0.5 2.5v36zM157 128
q0 -14 1 -27t1 -26q1 -3 2.5 -3h3.5q5 0 6.5 2.5t2 6t1.5 6.5t5 4v3.5t0.5 5.5t1 5.5t0.5 3.5v1v1l-0.5 1t-0.5 2t-0.5 2l-0.5 1v14q-1 1 -2.5 1.5t-2.5 0.5q-1 -1 -3 -2.5t-2 -2.5v-27h-2h-1l-1.5 1.5l-1.5 1.5v8q0 7 0.5 12.5t4.5 11.5q1 2 2.5 3l3 2t3 2.5t1.5 4.5
l-0.5 1.5t-1 4t-1.5 4t-2 1.5v0v0l-17 -21v-4v-6zM124 150q0 -2 1.5 -3t3.5 -1.5l4 -1t3 -1.5q1 -2 2 -6t2 -9t1 -10v-8v-2.5t-3 -1.5v0q-1 0 -1.5 0.5l-0.5 0.5q0 2 -1 5t-1.5 6.5t-1.5 6.5t-1 4.5t-1 4t-3 2.5h-1l-0.5 -0.5l-0.5 -0.5v-1v-1v-2.5t0.5 -3.5t0.5 -4v-3
t0.5 -4.5t0.5 -7t0.5 -6.5t0.5 -4q1 -1 3 -2l4 -2t3.5 -2t1.5 -3v-14l1.5 -1.5t2.5 -1.5t2 -1l1 -1q3 0 4.5 1.5t1.5 3.5q0 15 -1.5 31t-2.5 30q-4 6 -9 10.5t-9 10.5v0.5t-1 0.5q-3 0 -4.5 -3t-1.5 -5zM118 82q0 -2 0.5 -4.5t2.5 -2.5h14q0 4 -2 8.5t-7 4.5q-3 0 -5.5 -1.5
t-2.5 -4.5zM178 77q0 -7 8 -7q2 0 3.5 1.5t1.5 4.5t-2.5 5t-5.5 2t-4 -2t-1 -4zM116 64v-2q1 0 1 -2t0.5 -4t0.5 -4v-3q1 0 3.5 -1.5t3.5 -1.5t4 -1t7 -1.5t7 -1t4 -1.5q4 1 5 2.5t1 4.5v6t-1 5.5t-2.5 4t-5.5 1.5q-2 0 -2 -2v-4.5t-1 -4.5t-3 -2q-3 0 -3.5 2.5t-0.5 5
t-0.5 5t-2.5 2.5h-13q-1 0 -1.5 -1t-0.5 -2zM170 41v0q2 1 5 1.5t7 1t7 1.5t4 1q2 2 2 5q0 6 -2.5 8.5t-7.5 2.5h-3l-5 -9q0 -1 -1 -1t-2 2t-2 4.5t-2.5 4t-4.5 1.5l-2 -0.5t-2 -1.5v-16q0 -1 1 -2t2.5 -1.5l3 -1t2.5 -0.5z" />
</svg>
