<?xml version="1.0" standalone="no"?>
<!DOCTYPE svg PUBLIC "-//W3C//DTD SVG 1.1//EN" "http://www.w3.org/Graphics/SVG/1.1/DTD/svg11.dtd" >
<svg xmlns="http://www.w3.org/2000/svg" xmlns:xlink="http://www.w3.org/1999/xlink" version="1.1" viewBox="-10 0 266 256">
   <path fill="currentColor"
d="M161 198q0 7 1 14t3.5 14.5t6 14t9.5 10.5h1q2 0 4.5 -2t2.5 -5v-0.5v-0.5q-10 -12 -15 -24.5t-5 -27.5v-7q3 -3 6 -3h1l13 12h10v-4l-1 -1.5t-2.5 -3.5t-3.5 -3.5t-3 -2.5q-2 -2 -3.5 -3l-3 -2t-2.5 -3t-2 -5q0 -1 0.5 -2.5t0.5 -2.5q1 -1 2.5 -3t3.5 -4l3.5 -3.5
l2.5 -2.5v-2q0 -3 -1 -3.5t-4 -0.5h-3q-1 0 -2.5 0.5t-3 1.5l-3 2l-1.5 1q-3 0 -4.5 -1t-2.5 -3t-1.5 -4t-0.5 -4q0 -1 1 -2.5t3 -1.5l29 -3q1 0 2 -1.5t2 -2.5v-1q0 -1 -1.5 -2t-3.5 -1h-3h-2h-1q-5 0 -9.5 0.5t-9.5 0.5h-10l-0.5 -0.5l-0.5 -0.5v-1v-1q0 -1 0.5 -3l0.5 -2
l23 -4q3 -1 4 -3t1 -4.5v-5v-3.5t1 -2l2.5 -2.5t2 -2.5t1.5 -1q2 -4 2 -9t1 -9v-1q0 -4 -2 -6.5t-5.5 -3t-7.5 -1t-7 -1t-5.5 -1.5t-2.5 -5l0.5 -2.5t1.5 -2.5h39q2 0 2 -2.5v-2.5v-2.5t-2 -1.5h-6q-6 0 -11.5 0.5t-11.5 0.5q-3 0 -5 -0.5t-2 -2.5q0 -5 2 -8.5t2 -7.5
q0 -2 -2.5 -4t-5.5 -2h-1l-1 0.5t-2 1.5q-1 10 -3 19.5t-3 19.5q-1 2 -4.5 2.5t-3.5 1.5h-1h-1l-1.5 -0.5t-2.5 -1t-2.5 -1t-1.5 -1.5q-1 -11 -2.5 -19t-5.5 -17l-2 -2l-1.5 -0.5l-1.5 -0.5q-3 0 -3.5 2t-0.5 3q0 4 1 7.5t1 7.5v2.5t-2 1.5h-19l-0.5 1t-1.5 2v0v1q1 1 1.5 2
l0.5 1h23l0.5 0.5l1.5 1.5q0 1 1.5 4t1.5 4l-1 0.5t-1 1.5l-16 4q-1 0 -2 2t-1.5 3.5t-1 3.5l-0.5 2q0 3 0.5 6t1.5 7t3.5 6.5t5.5 2.5h23q1 0 2.5 3t2.5 7t1.5 7.5t0.5 4.5q0 5 -3.5 6.5t-8.5 2t-10.5 0t-10.5 -0.5t-8 1t-3 5l0.5 0.5l0.5 0.5h38q4 0 7.5 5t6 11t4 12
t1.5 9v5l-1.5 2.5t-1.5 3.5q-1 5 -1.5 11t-0.5 11zM67 233q-1 3 1 3.5t4 0.5q3 0 4.5 -2.5t1.5 -6.5q2 -17 3 -36t1 -37t-0.5 -36.5t-0.5 -36.5q0 -2 0.5 -6t0.5 -7.5t0.5 -6l0.5 -2.5l3 -3q3 1 5 4.5t2.5 7.5t0.5 8v7v79q0 3 1 4t4 1q5 0 5 -6v-10v-9v-3.5t-0.5 -5.5
t-0.5 -5.5v-3.5q-1 -8 -0.5 -17t0.5 -18q0 -10 -1 -19t-4 -16q-1 -2 -3.5 -4l-5 -4t-5 -3t-2.5 -2v-30q0 -2 -1 -2.5t-3 -0.5h-1q-1 0 -3 0.5t-2 1.5v36q-10 1 -15 5.5t-7 11t-3 15t-1 16.5q-2 18 -3 37t-1 37q3 0 6.5 -1t3.5 -5q2 -12 2 -25.5t1 -26.5t3 -26t6 -25
q0 -1 2 -2l2 -1h1h1q1 0 2 1t1 2v73q-2 5 -1.5 10t0.5 11q0 1 -0.5 6t-1.5 11t-1.5 11t-0.5 7v5v9v9v5v3.5v5t-0.5 4.5t-0.5 3zM112 229q0 4 4 4t7.5 -3.5t6.5 -9.5t6 -13t5 -14t4 -12.5t3 -9.5q2 -4 3.5 -6.5t1.5 -6.5t-4.5 -6.5t-10.5 -4t-11.5 -2.5t-7.5 -1h-3t-4 2
q2 2 4 3t3.5 2t3.5 2t2 4q0 1 -1 2.5t-2 3.5l-2 4t-1 3q-2 3 -6 9.5t-8 13.5t-7 13t-3 9q6 0 11 -4.5t8.5 -11t7 -14t6.5 -14.5t5.5 -11.5t6.5 -4.5q2 0 3.5 2t1.5 4q0 3 -2 8.5t-5 12t-6 12.5t-5 9q-3 6 -7.5 12t-7.5 12v1v1zM158 96v-4q4 -2 7 -2h7h1.5t2.5 0.5l2 1t1 1.5
q0 6 -4 8t-9 2q-4 0 -6 -1.5t-2 -5.5zM119 73q0 -6 2.5 -8t8.5 -2h5q4 5 5 12t1 12q-4 0 -7.5 -0.5t-7 -2t-5.5 -4.5t-2 -7zM145 65v-1.5t2 -1.5h11q1 0 2.5 2t3 4.5t2 5t0.5 3.5q0 5 -3 6.5t-6 1.5q-4 0 -6.5 -2t-3.5 -5t-1.5 -6.5t-0.5 -6.5zM168 63l1 -1h17v17l-1.5 1.5
l-1.5 1.5h-0.5h-0.5h-0.5h-0.5q-1 0 -2 -1.5t-2.5 -2.5t-2.5 -2t-1 -2q-1 -1 -2 -3t-1.5 -3.5l-1 -3z" />
</svg>
