<?xml version="1.0" standalone="no"?>
<!DOCTYPE svg PUBLIC "-//W3C//DTD SVG 1.1//EN" "http://www.w3.org/Graphics/SVG/1.1/DTD/svg11.dtd" >
<svg xmlns="http://www.w3.org/2000/svg" xmlns:xlink="http://www.w3.org/1999/xlink" version="1.1" viewBox="-10 0 266 256">
   <path fill="currentColor"
d="M46 248q0 2 1 2.5t3 0.5q4 0 7.5 -6t6 -15.5t4.5 -20.5t3.5 -21t2 -17t1.5 -9v-2.5t0.5 -3.5t0.5 -3.5v-2.5q0 -3 0.5 -8.5t1 -12.5t1 -14.5t1 -14t0.5 -11.5t1 -7v-18v-1t0.5 -2.5t0.5 -2.5v-1q0 -1 0.5 -2.5t0.5 -3t0.5 -3t0.5 -2.5q0 -2 4 -3.5t8 -2.5t8 -1h5
q2 -1 6.5 -1t9.5 -0.5t9 -0.5h5h13h20h19h13q1 0 1.5 -1t0.5 -2t-1.5 -2.5t-3.5 -1.5h-52q0 -6 0.5 -11.5t0.5 -11.5q0 -2 -1 -3t-3 -1t-3.5 1.5t-3.5 2.5q1 4 1 8t-0.5 7.5t-2.5 6t-7 2.5q-6 0 -14.5 -0.5t-16.5 0.5t-15 4t-11 11q1 18 -0.5 35t-2.5 34v6t-0.5 8t-0.5 7.5
v4.5q-1 10 -4 19t-4 19q-1 5 -1.5 12.5t-1.5 15t-2.5 14.5t-3.5 13q0 1 -1 2.5t-2 3.5l-2 4l-1 2v2zM157 172l3 6t7 14.5t8.5 18.5t9 18.5t8 14t4.5 5.5q2 0 2.5 -2t0.5 -4q0 -4 -1.5 -7.5t-3.5 -7l-4 -7t-4 -6.5q-3 -8 -4.5 -14t-5.5 -12q-2 -3 -3.5 -5t-3 -3.5t-2 -4
t-0.5 -5.5q0 -4 3 -6.5t6.5 -4.5t6.5 -5t3 -7q0 -8 -2 -16t-10 -14q-8 -3 -16.5 -4.5t-17.5 -2t-19 -0.5h-17h-9q-2 0 -2 1.5v2.5v1v1q1 0 4.5 0.5t4.5 0.5h7h11h10h7q1 0 4.5 0.5t7.5 1t7.5 1t4.5 0.5q2 1 5 3.5t5.5 5.5t4 6.5t1.5 6.5q0 2 -1 4t-3 4l-4 4t-4 3l-2 -0.5
l-2 -0.5v-1l-1.5 -1.5t-4 -3.5t-4.5 -4t-4 -3q0 -1 -1 -1.5t-2 -0.5h-48l-2 0.5l-4 1t-3 1.5t-1 2q0 3 3 4q0 1 3 1h4q8 0 16.5 -2t16.5 -2q4 0 8.5 1t7.5 2.5t5 5t2 7.5q0 3 -6 5t-13.5 3.5l-15 3t-10.5 1.5q-2 0 -4.5 0.5t-5.5 0.5t-6 0.5t-4 0.5t-1 1v2t0.5 2t2.5 1h8
q15 0 29.5 -4t28.5 -8v-0.5t1 -0.5zM118 75v5t1 6.5l2 7t3 3.5q1 1 3.5 1.5t4.5 1.5t3.5 1.5t2.5 0.5h6q5 0 9 -0.5t10 -2.5q3 -1 4.5 -4.5t2 -7l1 -7t0.5 -5.5l1 -1l2 -2t1.5 -2t1.5 -1h31q1 0 1.5 -1t0.5 -2v-1v-1l-0.5 -1t-1.5 -1h-35v-14l-1.5 -0.5t-2.5 -1.5v0h-1
q-3 6 -4 9t-2 5.5t-4 3t-11 0.5h-8h-3t-4 -0.5t-3.5 -0.5h-1.5v-15q0 -2 -1 -2h-2h-1.5t-1.5 2l-3 17h-28q-1 0 -2 1.5t-1 2.5v0v1q0 1 0.5 2l0.5 1h27zM127 80v-3v-2l2 -2h3t7 -0.5t8.5 -1t6.5 -1.5h1q3 0 5 3t2 5q0 9 -5 12t-12 3h-8t-5.5 -1.5t-3.5 -4t-1 -7.5z" />
</svg>
