<?xml version="1.0" standalone="no"?>
<!DOCTYPE svg PUBLIC "-//W3C//DTD SVG 1.1//EN" "http://www.w3.org/Graphics/SVG/1.1/DTD/svg11.dtd" >
<svg xmlns="http://www.w3.org/2000/svg" xmlns:xlink="http://www.w3.org/1999/xlink" version="1.1" viewBox="-10 0 266 256">
   <path fill="currentColor"
d="M53 242l1.5 6t4.5 2q3 0 5.5 -3t2.5 -7q1 -26 3 -54t5 -54q1 -1 1.5 -3.5l0.5 -2.5q2 -19 3.5 -38.5t2.5 -36.5q1 -4 4 -6t6 -2q25 -6 53.5 -8.5t54.5 -1.5q2 -1 3 -2.5t1 -3.5q0 -3 -3 -3.5t-6 -0.5q-10 0 -20.5 2t-21.5 2q-1 0 -2 -0.5t-2 -1.5q0 -5 -1.5 -9t-6.5 -4
h-1.5t-3 0.5t-2.5 1t-1 1.5v12l-3 3q-7 0 -14.5 0.5t-15 1.5t-14 3.5t-12.5 7.5q-2 9 -3.5 20t-2.5 21v5v4t-0.5 4t-1.5 4q-1 18 -2.5 35.5t-3 35.5t-3.5 35.5t-5 34.5zM88 232q0 3 2 4t5 1q9 0 18.5 -1.5t19.5 -1.5h9h13q8 0 15.5 -0.5t14 -1t10.5 -2.5t4 -5v-2t-1 -2h-6
q-10 0 -20 1t-20 1q-3 0 -4 -3.5t-1 -6.5v-1q0 -2 1.5 -4.5l1.5 -2.5l37 -3v-2.5v-1.5q0 -3 -0.5 -4.5t-4.5 -1.5q-7 0 -13 1t-13 1h-4h-2l-2 -1v-12q0 -2 -1.5 -2.5t-2.5 -0.5q-2 0 -4 1t-2 2v15l-5.5 0.5t-12.5 1t-12.5 2t-5.5 4.5l0.5 1t1.5 2h5h5q6 0 10.5 -1t10.5 -1
q3 0 3.5 3t0.5 6q0 5 -2.5 7.5t-7.5 2.5q-2 0 -6.5 0.5t-10.5 1t-11 1t-7 0.5q-3 1 -4.5 2t-1.5 3zM86 183q0 4 1.5 4.5t4.5 0.5q5 0 12 -1.5t13 -5t10 -8t4 -11.5v-3.5t-3 -2.5q-1 -1 -2 0l-1 1q0 2 -0.5 3.5t-1 3.5t-1 3.5t-2.5 2.5q-1 1 -4 1.5t-6.5 1.5t-6.5 2t-4 2
q-1 0 -3.5 0.5t-4.5 1t-3.5 1.5t-1.5 3zM158 160v5t1 5.5t2.5 4.5t4.5 2h32q1 0 2 -3t1 -4t-0.5 -2.5t-2.5 -1.5h-29l-0.5 -1t-1.5 -1q0 -1 -0.5 -2.5l-1 -3t-1.5 -3t-2 -1.5q-3 0 -3.5 2t-0.5 4zM85 149q0 3 1 3.5t3 0.5q13 0 26.5 -1.5t26.5 -3.5t27 -2t27 -1q2 -1 3.5 -2
t1.5 -3q0 -1 -0.5 -2t-1.5 -1h-5q-9 0 -18 1.5t-18 1.5q-7 0 -7 -6q0 -2 2 -3.5t5 -2t5.5 -1t3.5 -0.5h3t4.5 -0.5t4.5 -0.5h3q0 -1 0.5 -2t0.5 -2v0v0q0 -3 -3 -3h-0.5h-1.5l-3.5 0.5t-7 0.5t-7 0.5t-4.5 0.5h-2q-2 0 -2.5 -1.5t-0.5 -3.5v-3t2 -2q11 -2 18 -3t11 -3.5
t6 -8t2 -18.5q0 -8 -0.5 -13.5t-2.5 -9t-7 -5t-14 -1.5t-20 0.5t-20 1.5q-7 0 -11.5 3t-7.5 7.5t-4 11t-1 13.5q0 10 3 15.5t8 7.5t10.5 2.5t10 0.5t7.5 1.5t3 6.5q0 3 -2 3t-5 1q-2 0 -6.5 0.5t-9.5 1t-9.5 1t-6.5 0.5q-1 1 -1 1.5v1.5v2t1 1h7q6 0 12 -0.5t12 -0.5h3
t3 0.5t1.5 2t0 3.5t-5 3t-11 1.5t-14 0.5t-14 0.5t-10.5 2t-4 3.5zM112 91q0 -2 3 -3t7 -1.5t7.5 -0.5h5.5h3.5t2.5 1v14q0 1 -1.5 1.5t-2.5 0.5h-4q-3 0 -7 -0.5t-7 -1.5t-5 -3.5t-2 -6.5zM150 87l3 -3h2t5 -0.5l6 -1t5 -0.5h3q2 0 4 1.5t2 3.5q0 5 -2.5 8t-6.5 4.5
t-8.5 2.5t-8.5 1l-2 -1t-2 -2v-13zM133 57q5 0 7 3t2 7q0 5 -3.5 7.5t-8.5 3.5t-10 1h-9q0 -6 1 -9.5t3 -6t6 -4t10 -2.5h2zM150 74v-17h24q1 0 2 1.5t1.5 3.5t1 3.5t0.5 2.5t-0.5 3.5t-3.5 2.5h-25z" />
</svg>
