<?xml version="1.0" standalone="no"?>
<!DOCTYPE svg PUBLIC "-//W3C//DTD SVG 1.1//EN" "http://www.w3.org/Graphics/SVG/1.1/DTD/svg11.dtd" >
<svg xmlns="http://www.w3.org/2000/svg" xmlns:xlink="http://www.w3.org/1999/xlink" version="1.1" viewBox="-10 0 266 256">
   <path fill="currentColor"
d="M94 247q0 2 1 3t3 1q6 0 10.5 -6.5t8.5 -15t5.5 -17t1.5 -12.5q0 -5 -1.5 -7.5t-3.5 -4t-5 -2.5t-5 -2t-3.5 -3.5t-1.5 -6.5v-3v-3l0.5 -0.5t1.5 -0.5q0 -1 1.5 -2l1.5 -1h21q3 0 5 -1.5t2 -3.5q0 -3 -3 -3.5t-5 -1.5q-2 1 -6.5 1.5t-10 1t-10 1t-5.5 0.5h-3h-5h-4h-3
l-2.5 1t-3.5 2l-0.5 0.5l-0.5 0.5q0 1 0.5 2l0.5 1h23v21l2 4q3 0 5.5 0.5t4 1.5t3 2.5t1.5 4.5t-1 8t-2.5 9.5t-3.5 8.5t-4 7q-1 2 -2.5 3.5t-3 3.5l-3 4t-1.5 4zM170 245q0 2 1.5 3t3.5 1q4 0 6.5 -2.5t4 -6.5t2 -8.5t1.5 -6.5q0 -1 0.5 -3.5t1 -5.5l1 -6t0.5 -4
q2 -6 3.5 -11.5t2.5 -12.5q1 -2 1.5 -8t1 -13t1.5 -13.5t1 -9.5v-2q0 -4 -1.5 -8t-1.5 -9q-1 -3 -1.5 -6.5t-2 -6.5t-4.5 -4.5t-8 -2.5h-4.5t-7 -0.5t-6.5 -0.5h-5v-2v-2q0 -2 1 -4.5t4 -2.5h26q3 0 3.5 -1t0.5 -3t-1.5 -3.5t-5.5 -1.5h-11q-5 0 -9.5 0.5t-8 2.5t-5.5 5.5
t-2 9.5q0 4 1 7t7 4l25 3l5 3v1.5t0.5 3.5t0.5 4v3v9q0 1 0.5 4t0 6t-1.5 5.5t-3 1.5q-2 0 -4.5 0.5t-6 0.5t-6.5 0.5t-4 0.5h-2h-2t-2 -2v-2v-3v-4q0 -3 2 -4q1 0 3 -0.5t4.5 -0.5t4.5 -0.5t3 -0.5t3 -0.5t3.5 -1t2.5 -1.5t1 -3q0 -1 -0.5 -1h-1.5h-20l-3 -2v-3t-0.5 -4
t-2 -3.5t-3.5 -1.5v0v0q-1 0 -2 0.5t-2 0.5l-1 2v30q0 15 -3 29t-8 28q-1 3 -2 5t-1.5 4t-1 4.5t-0.5 5.5q5 0 8 -2.5t4.5 -6t2 -8t1.5 -8t2.5 -6t5.5 -2.5q2 0 4 0.5t4 1.5l4 2t4 1q1 0 3.5 -1.5t1.5 -3.5q-1 -3 -4.5 -4.5t-8 -2.5t-8 -2t-3.5 -4q0 -4 1 -8.5t5 -7.5h5h5h5
h5.5t4 1.5t1.5 5.5q0 9 -2 16.5t-3 16.5l-13 41q-1 0 -1 1v1zM51 236q0 3 1 3.5t3 0.5q4 0 6 -4q3 -17 4 -32t2 -33v-2v-5v-5v-3v-6t0.5 -11t0.5 -10.5v-6.5q0 -3 0.5 -13t0.5 -20q0 -11 -0.5 -20.5t-0.5 -13.5q0 -5 2.5 -9t6.5 -6t8.5 -3t9.5 -2q24 -3 47 -5t47 -1
q1 0 3 -0.5t3.5 -1t3 -1.5t1.5 -3q0 -3 -3.5 -4t-6.5 -1q-8 0 -16.5 1t-17.5 1h-13q-2 0 -3.5 -1.5l-3 -3t-3 -2.5t-3.5 -1q-3 0 -4 1t-1.5 2.5t-0.5 3t-1 2.5q-2 2 -6.5 3t-10.5 1.5t-12.5 1t-12.5 1.5t-10 2t-5 2l-10 14v2v4.5v4.5q0 12 1.5 25t1.5 25v1t-0.5 2.5t-0.5 3
v1.5q0 2 -0.5 7.5t-1 11.5t-0.5 12v8v8v14v14v7q0 4 -1 9t-1.5 10t-1.5 10.5t-1 9.5zM81 114v1q0 2 0.5 6t0.5 7.5v6v3.5q1 3 3.5 5.5t6 3.5t7.5 1h7t6.5 -0.5t7.5 -1.5t7 -3.5t3 -6.5q0 -1 0.5 -4t1 -7l1 -8t0.5 -6v-2v-2t-0.5 -2l-1 -2t-1.5 -4l-1 -3l-16 -3q-1 0 -2 -3
l-1 -3v-1q0 -3 2 -5t5.5 -3t6.5 -2.5t5 -3.5q2 -4 3 -10t3 -10v-2q0 -2 -2.5 -3t-4.5 -1h-2t-2 1v3t-0.5 4.5t-0.5 4.5v2q-1 4 -2 5t-2 1.5t-3 0.5h-5v-24l-4 -1h-1v0q-1 0 -1.5 0.5l-0.5 0.5v4v6v5v4q0 3 -1 5t-4 2q-4 0 -6.5 -2.5t-3.5 -6t-1.5 -7.5t-0.5 -7h-2
q-2 0 -3 0.5l-3 1.5q1 2 1.5 5.5t1.5 7.5t2.5 7.5t3.5 5.5q3 1 6 1.5t5 1.5t3.5 2.5t1.5 4.5q0 6 -3.5 8.5t-8 4.5t-8 5.5t-3.5 10.5zM88 131v-1l2.5 -2.5l2.5 -2.5q4 0 7 -0.5t5.5 -0.5h4.5h6h3.5h3.5l0.5 0.5l0.5 0.5v1q0 2 -0.5 4.5t-2 5t-3.5 4t-5 1.5h-20
q-1 0 -1.5 -1.5t-1.5 -3t-1 -3t-1 -1.5v-1zM90 112q0 -3 2.5 -5.5t6 -4t7 -1.5h6.5q5 0 8 1.5t3 6.5v3t-2 3q-8 1 -13 2t-11 1h-5q-2 -2 -2 -3v-3zM135 76v0v1l1.5 1l1.5 1q5 1 8.5 -1.5t7.5 -6.5t7.5 -7t8.5 -3q4 0 7.5 2t7 4.5t7.5 5t8 2.5q6 0 6 -6q0 -4 -5 -6.5
t-11.5 -4.5t-11.5 -3.5t-5 -2.5v-12l-1 -0.5t-1 -1.5q-1 0 -2 -0.5t-2 -0.5v0h-1q-1 0 -1 0.5t-1 0.5v8t-3 8q-1 2 -5.5 5l-9 6t-8 6t-3.5 5z" />
</svg>
