<?xml version="1.0" standalone="no"?>
<!DOCTYPE svg PUBLIC "-//W3C//DTD SVG 1.1//EN" "http://www.w3.org/Graphics/SVG/1.1/DTD/svg11.dtd" >
<svg xmlns="http://www.w3.org/2000/svg" xmlns:xlink="http://www.w3.org/1999/xlink" version="1.1" viewBox="-10 0 266 256">
   <path fill="currentColor"
d="M58 249q0 1 1.5 1.5l1.5 0.5q2 0 3 -1.5t1.5 -3l1 -3t0.5 -3.5v-142q0 -2 0.5 -7t1 -10.5t1 -10.5t0.5 -6q1 -9 3 -13.5t6 -7t9.5 -3.5t13.5 -2q7 -1 15 -2.5t16 -2.5q3 0 10.5 -0.5t16.5 -1t17 -0.5t11 -1l0.5 -1t0.5 -2l-1 -1.5t-2 -1.5h-43q-2 0 -3 -1.5t-1 -4
t-0.5 -4.5t-2.5 -2t-5 2t-3 5l1 1.5t1 2.5v2q0 1 -2 2t-4.5 1t-4 -0.5t-2.5 -0.5q-2 1 -7 1.5t-11 1t-11.5 1.5t-7.5 1q-3 1 -7 2.5t-6 3.5q-6 12 -7.5 23.5t-1.5 24.5q-1 7 -0.5 11.5t-1.5 10.5v38q1 3 1.5 5t0.5 5q0 2 -1 3t-1 3q0 8 1 15.5t1 15.5q0 10 -1 20t-1 21
q0 4 0.5 7t1.5 8zM91 245q0 2 1 2.5t3 0.5h1h2q3 -2 7.5 -7t9.5 -11.5t9.5 -12.5t7 -10l2.5 -4l1.5 0.5l1.5 0.5q0 1 1.5 3l3 4l3 4t1.5 3l1.5 1.5l3 3t3 2.5t2.5 2q1 2 3.5 5.5t5.5 7t6 6t5 2.5h2h2l1.5 -3t0.5 -3v-1t-1 -1q-6 -5 -10.5 -9.5t-8.5 -9.5l-8 -10t-9 -11
q-2 -3 -3.5 -5.5t-1.5 -5.5v-1.5t2 -1.5l24 -4q5 -1 8 -5.5t4 -9.5t1.5 -10.5t0.5 -8.5v-12.5t-5 -10.5q-1 -2 -3.5 -4l-2.5 -2l-27 -3l-2 -2v-2t-0.5 -5t-1.5 -5v-1q0 -3 3 -4t6 -2.5t6 -4.5t4 -10v-3t0.5 -4.5t1 -4.5t0.5 -3q0 -2 2.5 -2.5t6 -0.5h6.5h4h3t4 -0.5t4 -0.5
h3q1 -1 2.5 -3t2.5 -2v-1q0 -3 -2.5 -3.5t-4.5 -0.5q-7 0 -14.5 1t-14.5 1q-2 0 -2.5 -2l-1 -4t-1.5 -4t-4 -2q-2 0 -3 0.5t-1 2.5t0.5 4t0.5 4q0 1 -1.5 2.5t-2.5 1.5h-28q-2 0 -2.5 -1.5t-0.5 -3.5q0 -3 -0.5 -4.5t-2.5 -1.5t-2.5 1.5t-1 4t-1 4.5t-3.5 2l-2 0.5t-4 0.5
t-3.5 0.5t-2.5 0.5t-4 0.5t-5 1l-4 1l-2 0.5l-3 3l3 3h29q2 0 3 1.5t1 3.5t0.5 4t0.5 3q0 2 0.5 6l0.5 4q2 5 4 6t4.5 0.5t5 -0.5t4 1.5t3 5.5t1.5 12v1q-1 0 -1.5 0.5l-0.5 0.5q-1 0 -4 0.5l-6 1l-6 1t-4 0.5q-6 2 -9 6t-4.5 10t-2 11.5t-1.5 10.5v1q0 6 3 11t7.5 8t10.5 5
t11 3q2 0 2 2v3q0 6 -4 13t-9.5 13.5t-11.5 12.5l-10 10q-2 2 -2 5zM103 160q0 -2 1.5 -3.5t3.5 -1.5h20q1 0 1.5 2t1 4.5t0.5 4.5v2v3v3q-1 3 -4 3q-4 0 -8.5 -1t-7.5 -3t-5.5 -5.5t-2.5 -7.5zM138 160q0 -4 3 -6t6.5 -2.5t7 0t6.5 0.5h3.5h3.5l1 1v2v3q0 6 -1 9.5t-4 5.5
t-7.5 2.5t-9.5 0.5h-3.5h-3.5v-3t-0.5 -4l-1 -4t-0.5 -3v-2zM103 146q-1 -2 -1 -2.5v-2.5q0 -4 3 -6.5t7 -4.5t8.5 -3t6.5 -1q4 0 5 2t1 5v4q0 2 -0.5 4.5t-1.5 4t-4 1.5h-1h-4t-7 -0.5t-7 -0.5h-5zM138 138v-4q1 -2 1.5 -5.5l0.5 -3.5h22q2 0 4 1.5t3 3.5t1.5 4.5t0.5 4.5
q0 1 -1 3t-2 2h-25q-3 0 -4 -2t-1 -4zM72 112q0 2 1.5 3t4.5 1q3 -1 7.5 -3.5t8 -6t6 -8t2.5 -8.5q-3 0 -7 2.5t-7.5 5.5t-7.5 6.5t-7 5.5l-0.5 1zM163 93q0 2 4.5 5t10.5 6.5t11.5 6t7.5 2.5h2.5t1.5 -2t-4 -6t-10.5 -7.5t-12 -6t-7.5 -2.5t-3 1.5t-1 2.5zM115 74
q0 -4 3 -6.5t7.5 -3l9 -1t8.5 -0.5h1t1 1l1 0.5t2.5 1.5t2 2l0.5 1q1 4 0 8t-4 7t-7 4.5t-7 1.5q-10 0 -14 -4t-4 -12z" />
</svg>
