<?xml version="1.0" standalone="no"?>
<!DOCTYPE svg PUBLIC "-//W3C//DTD SVG 1.1//EN" "http://www.w3.org/Graphics/SVG/1.1/DTD/svg11.dtd" >
<svg xmlns="http://www.w3.org/2000/svg" xmlns:xlink="http://www.w3.org/1999/xlink" version="1.1" viewBox="-10 0 266 256">
   <path fill="currentColor"
d="M51 249q0 2 3 2q2 0 3.5 -3l2.5 -5v-62v-8t0.5 -14t0.5 -17v-17t0.5 -14t0.5 -8v-12.5t0.5 -15.5t1.5 -15t4 -12q0 -1 2 -1.5t4 -1.5q1 0 3 -0.5t3.5 -1t3.5 -1l2 -0.5q1 0 5 -0.5t9 -1t9.5 -1.5t6.5 -1q9 -1 19.5 -1.5t20.5 -0.5h20t18 1l2 -2t1 -2v0q0 -2 -1.5 -3
t-4 -1.5t-4.5 -1l-2 -0.5h-55q-2 0 -2.5 -2t-0.5 -5q0 -2 -0.5 -4.5t-3.5 -2.5h-1l-1 0.5t-2 0.5q0 1 -1 1.5l-1 0.5v13l-4 2q-6 0 -11.5 0.5l-11 1t-11 1.5t-11.5 3q-3 0 -7 2.5t-4 5.5l-5 52l-0.5 2l-0.5 2q0 1 0.5 2l0.5 1v2q0 23 -0.5 45.5t-0.5 45.5v52zM71 236
q0 3 3 4h10q29 0 57.5 -1t58.5 0q1 -1 3.5 -2t2.5 -3t-1 -4t-3 -2h-26v-25q0 -1 1 -2.5l2 -3l2 -3t1 -3.5q0 -1 -0.5 -4.5t-3.5 -3.5q-2 0 -2.5 1.5t-1 4t-1.5 4.5t-4 2h-53l-1 0.5t-2 0.5v0v0q-8 0 -10.5 -2.5t-3 -5.5t-1 -5.5t-4.5 -2.5h-2.5t-1.5 2q0 7 2.5 10.5t5 6
t4.5 3.5t2 3v5v5q0 4 0.5 7.5t-1.5 7.5q-1 0 -1.5 1l-0.5 1h-23q-1 0 -4 1t-3 3zM112 228v-8q0 -3 -0.5 -6t0 -6t2 -4.5t5.5 -1.5q3 0 5.5 0.5t4.5 2.5q-3 11 -2 23q-1 3 -3 3.5t-4 0.5t-4.5 -0.5t-3.5 -3.5zM135 228v-6v-7v-3.5t0.5 -4.5t0.5 -3.5v-1.5h11v26q0 1 -1 1.5
t-2.5 0.5h-2.5h-2h-2q-2 0 -2 -2zM161 202h2h2q2 2 2.5 5l1 6t0 6.5t-0.5 6.5v2t-2 2h-5h-5q-1 0 -2 -0.5t-1 -1.5v-23q0 -1 1 -2t2 -1h3h2zM69 184q0 2 1 3.5t3 1.5h1q0 -1 2.5 -2t3.5 -1q0 -3 0.5 -7.5t2.5 -7.5v-6.5t0.5 -9.5t0.5 -9v-6q1 -4 1.5 -9t2.5 -10t5 -8.5
t8 -3.5q2 0 2.5 1t1 2.5t0.5 3t1 2.5q0 2 4 3t8.5 2t9 1.5t7.5 0.5l2 -0.5l2 -0.5h30q2 0 2 -1.5v-1.5v-2t-2 -1q-13 -1 -27 -1t-27 -2q-2 0 -3.5 -1.5t-1.5 -3.5l0.5 -2t1.5 -2l62 -3q1 0 1.5 -1t0.5 -2t-0.5 -2.5t-2.5 -1.5h-63l-1 -2t-2 -3v-1v0v0q0 -1 1 -2l1 -1h19h11
h9.5h9.5t11 1q2 0 4.5 0.5t5 1.5t4.5 2t2 2q2 9 3.5 16.5t2.5 17.5v3v5v4v3q0 4 1 9t2 9.5t1.5 9t-0.5 9.5q1 1 2 1h2q3 0 4.5 -3t1.5 -6q0 -7 -1.5 -13.5t-1.5 -12.5q-1 -3 -1 -9t-0.5 -13t-2 -14.5t-3.5 -14t-6 -10.5t-10 -4h-15q-1 0 -3.5 -0.5t-5.5 -0.5t-5.5 -0.5
l-2.5 -0.5h-35q-1 0 -3 -1t-2 -2q0 -7 1 -11t3 -6t6.5 -2.5t11.5 -0.5h4q2 3 3.5 7t4.5 7q2 0 7.5 0.5t11.5 1t11.5 0.5h7.5h1q2 0 4 -1t2 -3v0q0 -1 -1 -2.5t-2 -1.5h-39q-1 0 -1.5 -2t-0.5 -3q0 -2 1 -3.5t4 -2.5q1 0 4 -0.5t6.5 -0.5t6.5 -0.5t4 -0.5q2 0 5 0.5t6 0.5
t5.5 -1.5t2.5 -5.5h-42q-2 1 -3.5 1.5t-2.5 0.5h-2.5h-3.5q-10 1 -16.5 2t-10 4t-4.5 8.5t-2 16.5q-3 1 -5 1t-4 -2t-2 -4q0 -1 -0.5 -4l-1 -6l-1 -6t-0.5 -4q0 -2 -2 -2h-2h-2t-2 2v6q0 7 1.5 12.5t1.5 12.5q4 1 9 1.5t8 1.5q2 1 2.5 3t0.5 4q0 3 -3 5.5t-6.5 4.5t-7 5
t-4.5 7q-4 16 -7 31.5t-2 32.5q-2 2 -2 4zM104 153v15.5t2.5 8.5t7.5 4.5t16 1.5h13.5t14.5 -1.5t11.5 -6t4.5 -13.5v-2v-5t-0.5 -8.5t-0.5 -8.5v-6l-0.5 -0.5t-1.5 -0.5h-1q-1 0 -1.5 1.5t-2 3t-3.5 3t-7 1.5q-8 0 -10.5 -1.5t-3.5 -3.5t-1.5 -3.5t-2.5 -1.5h-2q0 7 -2 9
t-9 2q-3 0 -6 -0.5t-5.5 -1.5t-4.5 -1.5t-3 -0.5v0q-1 0 -1.5 0.5t-0.5 1.5v14zM112 170q0 -2 2.5 -3t6 -1.5t6.5 -0.5h5q2 0 2.5 2.5t0.5 3.5q0 2 -0.5 2.5t-2.5 1.5h-3.5h-3.5h-4h-4.5t-3.5 -1t-1 -4zM142 171v-2.5t2 -2.5h17q1 0 1 2v2q0 2 -0.5 3.5t-2.5 1.5h-15
q-2 0 -2 -1.5v-2.5zM110 159q0 -6 2 -8t6 -2.5t8.5 -0.5h8.5v11q0 1 -2 1l-2 -0.5l-2 -0.5h-4.5h-5.5h-6h-3zM142 152v-1.5v-1.5q1 -1 2 -1t1 -1h2h4t4.5 -0.5t3.5 -0.5h1h1l2 0.5l2 0.5v5v4q0 1 -0.5 1.5l-0.5 0.5h-20q-1 0 -1.5 -1t-0.5 -2v-2v-1z" />
</svg>
