<?xml version="1.0" standalone="no"?>
<!DOCTYPE svg PUBLIC "-//W3C//DTD SVG 1.1//EN" "http://www.w3.org/Graphics/SVG/1.1/DTD/svg11.dtd" >
<svg xmlns="http://www.w3.org/2000/svg" xmlns:xlink="http://www.w3.org/1999/xlink" version="1.1" viewBox="-10 0 266 256">
   <path fill="currentColor"
d="M143 199h5h6t6 0.5t5 1.5q4 1 7.5 5.5t6.5 10t6 11.5l5.5 11t4.5 8.5t4 3.5q1 0 2.5 -0.5t1.5 -1.5v-3v-2q0 -4 -2 -11t-5.5 -13.5t-7.5 -12.5t-8 -8q-1 -1 -4.5 -2t-7.5 -2.5t-7.5 -3t-3.5 -3.5v-1q0 -2 0.5 -8t0.5 -12.5t0.5 -12t0.5 -8.5t2.5 -4t4.5 -1q5 0 8 4.5
t4 10t1 10.5v9h1h2q3 0 4 -1.5t1.5 -3.5t0.5 -5v-5q0 -6 -1.5 -13.5l-3 -15t-4 -14.5t-3.5 -12q-3 -3 -6.5 -3.5l-7 -1t-6 -2t-2.5 -6.5q0 -2 3 -4t7 -4t8.5 -3.5t6.5 -1.5q3 0 5 2.5l4 5t4 4.5t5 2t4 -2.5t1 -4.5v-2q-4 -5 -9 -8.5t-11 -5.5q-1 0 -1.5 -1t-0.5 -2t0.5 -2
t1.5 -1.5t1.5 -1.5t0.5 -3q0 -6 -3 -9.5t-7 -4.5t-8.5 -1.5t-9.5 -0.5l-2 -1v-28q0 -1 -3 -2.5t-4 -1.5q-2 0 -3.5 1t-1.5 3q0 7 1.5 13t1.5 13q0 2 -2 3.5t-5.5 2t-7 0.5h-5.5l-2 0.5t-4.5 0.5h-4h-2.5v1v1q0 1 1 2t2 1h4.5h4.5q6 0 11 -0.5t10 -0.5v13l-39 3v2q0 3 3 5h6
q6 0 11.5 -1t11.5 -1q4 0 6.5 1t2.5 5q0 2 -0.5 4t-2.5 2l-21 3l-2 3l3 2h21q2 0 2 2v3q0 2 -2 4t-5 3.5l-6 3t-4 2.5q-4 8 -5.5 16t-2 16.5t-0.5 17v16.5q4 0 6 -2.5t2.5 -7t0.5 -8.5t1 -6q0 -2 0.5 -5l0.5 -3h17v41l-2 4h-1.5t-3.5 0.5t-4.5 0.5h-3.5h-2h-4h-4h-2h-3h-4
h-3h-3q-2 0 -3.5 -1.5t-2 -3.5t-0.5 -4v-3q0 -8 2 -16t2 -15q0 -3 -1.5 -5t-2.5 -4t-2 -4.5t-1 -4.5v-4q7 -4 9 -9t2 -12q0 -4 -2.5 -8.5t-5.5 -8t-5 -7t-2 -6.5v-2q0 -1 0.5 -3t1 -4.5l1 -5l0.5 -2.5v-1v-1l-9 -18q-2 -2 -5.5 -3.5t-6.5 -1.5q-2 0 -3 1t-1 3q0 4 2.5 6.5
l5 5t4.5 5.5t2 6v11t-3 9q-2 3 -7.5 6t-11.5 5.5t-10.5 5t-4.5 4.5q0 3 1.5 3.5t4.5 0.5q7 0 12 -3t9.5 -6.5t8 -6t6.5 -2.5q2 0 3.5 2t2.5 5.5t2 6.5t1 5t-0.5 4.5t-2.5 4.5l-23 23q-1 1 -3 5t-4.5 8t-4.5 8.5t-2 5.5t-0.5 3l-1 4l-1 4t-0.5 3v4t-0.5 7t-0.5 7.5v5.5
q0 1 -0.5 2.5t-0.5 2.5q0 5 0.5 8.5t1.5 9.5q3 5 7 5q2 0 3 -0.5t1 -3.5v-50q0 -4 1.5 -9.5t4.5 -10.5t6 -9.5t6 -8.5l0.5 -0.5t1.5 -0.5v0v0q2 0 4 1.5t3 3t1.5 4t0.5 4.5q0 8 -2.5 15.5t-2.5 15.5v2v2t0.5 4t1 3.5t0.5 2.5q4 1 7.5 3.5t9.5 2.5q7 0 14.5 -1t14.5 -1z
M144 110h1h2q1 5 1 7.5v6.5v3v4t-0.5 3.5l-0.5 1.5h-16q0 -3 1 -7t2 -8.5t3.5 -7.5t6.5 -3zM154 112q0 -2 0.5 -3.5t3.5 -1.5q4 0 7 2.5t4.5 6.5t2.5 8.5t1 7.5h-17v-3.5t-0.5 -5t-1 -5.5t-0.5 -4v-2zM158 73q2 0 3.5 0.5t2.5 2.5q-2 3 -5 3.5t-5 0.5q0 -3 0.5 -5t3.5 -2z
M165 51q2 0 5.5 3t3.5 6q0 2 -2 4t-4 2h-3.5t-4.5 -0.5l-4 -1t-2 -1.5v-11l3 -0.5t5 -0.5h1h2z" />
</svg>
