<?xml version="1.0" standalone="no"?>
<!DOCTYPE svg PUBLIC "-//W3C//DTD SVG 1.1//EN" "http://www.w3.org/Graphics/SVG/1.1/DTD/svg11.dtd" >
<svg xmlns="http://www.w3.org/2000/svg" xmlns:xlink="http://www.w3.org/1999/xlink" version="1.1" viewBox="-10 0 266 256">
   <path fill="currentColor"
d="M187 249q2 1 4.5 1.5t5.5 0.5q2 0 4 -1.5t2 -4.5q0 -1 -3.5 -4t-9 -7.5t-12 -10t-12 -11.5t-9 -12t-3.5 -12q0 -3 1.5 -5.5t4 -5t4.5 -5.5t3 -6q0 -1 0.5 -3t1 -5t1 -5t0.5 -3l2 -2q11 -1 17 -6.5t9 -13t3.5 -17t1.5 -18.5q-1 -3 -1.5 -6.5t-0.5 -7t-0.5 -7t-2.5 -4.5
q-6 -4 -12 -5t-13 -1q-2 -1 -2.5 -4t-0.5 -5q0 -7 3 -12t7 -8t8.5 -5t8 -4t6 -3.5t1.5 -4.5q0 -2 -1.5 -2.5t-2.5 -0.5h-2q-1 0 -2 0.5t-2.5 1t-2.5 1l-1 0.5q-2 1 -4.5 3t-6 4.5t-6.5 4.5t-5 3q0 1 -1 2.5l-2 3l-2 3t-1 2.5v5.5v6.5t-1.5 5.5t-4.5 2.5q-2 0 -4.5 -1.5
t-2.5 -3.5v-23l-1 -1l-2.5 -2.5t-3 -3.5t-2.5 -3l-5 -2.5l-6 -3t-6 -2.5t-4 -1q-3 0 -5.5 0.5t-2.5 3.5l0.5 1l0.5 1q4 3 9 5t10 5t8.5 7.5t3.5 10.5l-1 2t-1 3v4v4q-2 2 -5 2.5t-6.5 0.5t-6 0.5t-5.5 2.5q-2 2 -3.5 5t-2.5 5.5t-2 5.5t-3 5v3v4v5v2v4v4v4.5v1.5q1 10 2 16
t4 9t8.5 4.5t14.5 1.5l2 2l3 41q0 1 2 4.5t4 7.5l4 8l3 6q7 10 14.5 18t18.5 14zM88 124q0 7 -2.5 11.5t-5.5 8.5t-7 7t-8 7t-7 10t-4 15q-1 1 -1.5 6l-1 10l-1 10t-0.5 8v5.5v9.5t-0.5 9.5t-0.5 6.5h9q1 0 2 -4t2 -9t1 -9v-5q0 -2 -0.5 -3.5t-0.5 -3.5v-2q0 -2 0.5 -6
t1 -8.5t1 -8l0.5 -3.5q1 -6 2.5 -10t3.5 -7.5t5 -7t7 -6.5q1 -1 2.5 -3t3.5 -4.5t4 -4.5l3 -3q1 -3 1.5 -6t0.5 -6q0 -9 -5.5 -12.5t-11.5 -5.5t-11 -3.5t-5 -5.5v-2v-2.5t0.5 -4.5t1 -4.5l0.5 -2.5q2 -4 6.5 -6t9 -3.5t8.5 -3.5t7 -5l3 -12t1 -10q0 -5 -2 -7t-5 -3t-7 -1
h-7q-1 0 -5.5 -0.5t-8.5 0t-7.5 1.5t-4.5 4q0 1 0.5 2t1.5 1h32l2 2v2.5v3.5q0 7 -2.5 11t-6.5 5.5t-9 3t-9 4t-6.5 6.5t-2.5 13q0 8 2.5 12.5t6 7t8 3t8 1.5t6 2t2.5 5zM147 136v-6q0 -3 0.5 -6.5t0.5 -6.5v-3v-5.5v-8.5t0.5 -9t0.5 -6q1 -4 1 -7t1 -5t3 -3.5t6 -1.5h1
q1 4 1 5v4q0 19 -1 38t0 38q-1 1 -2 4.5l-2 7t-3 6t-4 2.5v0h-1q-1 -10 -1.5 -18.5t-0.5 -18.5zM116 106q0 -8 1 -14t3.5 -10.5t7 -6.5t13.5 -2q0 16 -1.5 32.5t-1.5 32.5q-1 2 -3 2h-3q-6 0 -9 -3.5t-4.5 -9t-2 -11.5t-0.5 -10zM170 72h15l5 5v1.5t0.5 4t0.5 5v3.5v8
q0 3 -0.5 9.5t-2 13t-4.5 12t-9 5.5h-2.5t-2.5 -2v-65z" />
</svg>
