<?xml version="1.0" standalone="no"?>
<!DOCTYPE svg PUBLIC "-//W3C//DTD SVG 1.1//EN" "http://www.w3.org/Graphics/SVG/1.1/DTD/svg11.dtd" >
<svg xmlns="http://www.w3.org/2000/svg" xmlns:xlink="http://www.w3.org/1999/xlink" version="1.1" viewBox="-10 0 266 256">
   <path fill="currentColor"
d="M107 245q0 2 1 4t4 2q2 0 2.5 -0.5t1.5 -2.5q1 -1 2.5 -3.5t3 -5.5l3 -6t2.5 -3q3 -5 9 -8.5t12 -6.5t10.5 -7t4.5 -10t-4.5 -10t-11.5 -4t-15 0.5t-16 0.5h-4.5h-3.5q-1 0 -3.5 -2t-1.5 -4q1 -5 5 -7.5t9 -3t11 -1t11.5 -1.5t10 -3.5t5.5 -8.5q0 -9 0.5 -18.5t1.5 -18.5
q0 -3 -1 -3h-3h-1.5t-1.5 1l-4 18l-1 1l-5 0.5t-12 1t-14.5 1t-12.5 1.5q-1 0 -3.5 -0.5t-4.5 0t-3.5 1.5t-1.5 3q0 3 2.5 4t4.5 1q11 0 22 -2.5t22 -2.5h3h3q1 1 2 3t1 3t-1 3t-2 3.5t-2.5 2.5t-3.5 1l-31 3q-2 1 -3.5 2t-3.5 2.5t-3 3.5t-1 3v16l0.5 0.5l1.5 1.5l1.5 1
t2.5 2h9q7 0 13.5 -1t12.5 -1h8q3 1 5 2.5t2 4.5t-4 6t-9.5 6.5t-10.5 6.5t-7 5q-1 2 -4 4.5t-5 5.5t-4 6.5t-2 6.5zM175 100q4 0 6.5 3t4 7.5t3 9.5t3 9t3 7t3.5 3q3 0 3.5 -2t0.5 -4q0 -3 -1 -7t-2.5 -8t-3.5 -8t-3 -7q-2 -3 -3.5 -4.5t-3 -3.5t-2 -4t-0.5 -5v-7t3 -7v-30
q0 -3 -4.5 -5.5t-10 -4t-10.5 -2t-7 -0.5q-5 0 -8.5 0.5t-9.5 1.5v1v0q0 4 3 5t7 1.5t8 0t6 -0.5t4.5 0.5t5 0.5t4 0.5l1.5 0.5l3 4v4v5v4v4v3.5v2.5l-0.5 2l-1 4t-1 3.5t-2.5 1.5h-1q-15 -12 -34 -12h-4t-4 1l-0.5 0.5l-0.5 0.5v1q0 2 1 2.5t2.5 1t3 0l1.5 -0.5
q10 2 18.5 5.5t14.5 11.5v1q0 3 -3 4.5t-8 2.5t-10.5 1.5t-10.5 1.5t-8 2t-3 4q0 2 1.5 3t3.5 1q3 0 8 -1t10.5 -2t10 -2.5l7.5 -2.5l2 -1.5l2 -1.5h1h2zM55 124v5t0.5 3.5t2 2.5t4.5 1h2t1 -2q1 0 1 -2.5t0.5 -5t0.5 -5v-3.5l-0.5 -2.5t-0.5 -5.5t1 -5t3 -2h3l1 0.5
t2.5 0.5t2.5 0.5l1 0.5q3 0 3.5 -1t0.5 -3t-1.5 -4t-3.5 -3.5t-3.5 -3.5t-1.5 -4t2 -4t4.5 -3.5t5 -2.5t4.5 -1q3 0 6 1.5t5 4.5t3.5 6t1.5 6q0 2 -1 3t-2 1.5t-2.5 1.5t-1.5 3q-1 0 -1.5 2t-1.5 4t-1.5 4t-0.5 3v1v1q0 2 1.5 5t3.5 5t5 3.5t5 1.5q0 -3 -1 -5t-2 -4.5
t-2 -4.5t-1 -5q0 -4 1.5 -6.5t4 -4.5t4.5 -4.5t2 -6.5q0 -2 -1.5 -4.5t-4 -5l-4.5 -4.5l-4 -4v-1q0 -3 2.5 -4.5t5.5 -3t6 -3.5t5 -7v-3v-5v-5v-3l3 -3t1 -3v-2.5t-2 -1.5h-28q-1 0 -1.5 -1.5t-0.5 -2.5q0 -2 1 -4t1 -5q0 -1 -1 -3.5t-3 -2.5q-3 0 -3.5 2.5t-1.5 5.5
q0 1 -0.5 2.5t-0.5 4t-0.5 4.5l-0.5 2q-3 1 -7 3t-7 5t-5.5 7t-2.5 8v25q1 2 1 4v4q0 5 -1 10t-2.5 9.5t-2.5 9t-1 9.5zM70 70v-17q0 -2 1 -3.5t2 -3.5t3 -3t3 -1q3 0 4.5 2t2.5 5t1.5 6t0.5 4v3.5t-2 2.5q-1 1 -3.5 2.5t-4.5 3t-3.5 2l-1.5 0.5zM94 45v-3v-3q3 -1 6.5 -2.5
t7.5 -1.5q1 0 2 1t1.5 2.5t0.5 3.5v3q0 5 -2.5 9.5t-8.5 4.5q-3 0 -4.5 -1.5t-2 -3.5t-0.5 -4.5v-4.5z" />
</svg>
