<?xml version="1.0" standalone="no"?>
<!DOCTYPE svg PUBLIC "-//W3C//DTD SVG 1.1//EN" "http://www.w3.org/Graphics/SVG/1.1/DTD/svg11.dtd" >
<svg xmlns="http://www.w3.org/2000/svg" xmlns:xlink="http://www.w3.org/1999/xlink" version="1.1" viewBox="-10 0 266 256">
   <path fill="currentColor"
d="M66 247q1 1 2 1h2q4 0 5 -2.5t1 -5.5q0 -5 -1 -10t-1 -10q0 -13 1.5 -26t6.5 -25q2 -5 5.5 -10t6.5 -10t5.5 -10.5t2.5 -11.5q0 -7 -3 -10t-7 -4.5t-9 -1.5t-9 -1t-6.5 -3.5t-2.5 -9.5q0 -8 2.5 -11.5t6.5 -5.5t9 -2.5t10 -2t8.5 -4.5t4.5 -9q0 -6 0.5 -12t1 -11.5
t1.5 -11t1 -11.5q0 -2 -1 -3t-4 0q-1 0 -3 2.5t-2 3.5v13l-5 4l-2.5 0.5t-5.5 0.5t-6 0.5t-5 0.5h-4h-6t-5.5 1t-2.5 3v1l1.5 1.5l1.5 1.5h7q8 0 14.5 -0.5t13.5 -0.5v3t0.5 4.5t0.5 4.5v3q0 4 -3.5 5.5t-8.5 3t-10.5 3t-10.5 4t-8 7.5t-3 12q0 2 0.5 5t1.5 6l2 6t3 4
t5.5 1.5t6.5 0.5h8t7 1t5 3t2 6q0 6 -3 12t-7 11t-8 10.5t-5 10.5q-4 15 -5 29t-1 29v1v3t0.5 4.5t0.5 5v3.5zM124 200q0 8 5 12.5t13 4.5q6 0 10.5 -2.5t8.5 -6t7 -8t7 -7.5q1 -1 4.5 -2t6.5 -3t6 -3.5t3 -2.5q-1 -3 -3 -3h-4q-7 0 -12.5 3.5t-10 8t-9.5 10t-10 8.5h-2
q-5 0 -8 -3.5t-3 -8.5t4 -9t8.5 -7.5t8.5 -7.5t4 -10t-2.5 -9t-6.5 -5t-8.5 -2.5t-8 -1.5t-6 -3t-2.5 -6t3 -8.5t7 -8.5t9.5 -6t9.5 -2q3 0 7 1t7 2q6 1 10.5 2.5t8 3.5t5.5 6.5t2 11.5q0 4 -1.5 8t-7.5 4q-5 0 -8.5 -2t-5.5 -4.5t-3.5 -5t-3.5 -2.5t-3 1.5t-1 3.5
q0 4 2.5 7.5t5.5 6t7 4t8 1.5q6 0 10 -2.5t6.5 -6t3.5 -8t1 -9.5q0 -9 -4.5 -14.5t-11.5 -9t-14.5 -5t-14.5 -2.5q-1 -1 -1.5 -4l-1 -6t-1 -5.5t-0.5 -3.5v-2v-1q4 -6 8.5 -9.5t10 -5.5t11.5 -3t12 -1l1.5 -1.5t0.5 -2.5q0 -1 -0.5 -2t-2.5 -2h-4h-3q-7 0 -12.5 2.5t-10.5 6
t-9.5 6t-10.5 2.5q-5 0 -6 -1t-1 -5t1.5 -6.5t3 -4t4 -3t4.5 -4.5q1 0 2.5 -1.5l2.5 -2.5l2 -2l1 -1v-19q0 -4 -3 -7t-6 -3t-3.5 2t-0.5 4t1 3.5t2.5 3t2.5 3.5t1 4q0 4 -2.5 5.5t-5.5 4.5l-3 3l-4.5 4.5l-4.5 4.5t-3 2v4v3q0 6 1.5 9.5t3.5 5t4.5 3t4 3t3 4.5t1.5 9
q0 4 -2 7t-5.5 5t-7.5 3.5t-7.5 3.5t-5.5 4.5t-2 7.5v17q0 3 3.5 5t8.5 3.5t10 2t6 0.5q2 1 3 3.5t1 4.5q0 6 -4 10t-9 7.5t-9 8t-4 11.5z" />
</svg>
