<?xml version="1.0" standalone="no"?>
<!DOCTYPE svg PUBLIC "-//W3C//DTD SVG 1.1//EN" "http://www.w3.org/Graphics/SVG/1.1/DTD/svg11.dtd" >
<svg xmlns="http://www.w3.org/2000/svg" xmlns:xlink="http://www.w3.org/1999/xlink" version="1.1" viewBox="-10 0 266 256">
   <path fill="currentColor"
d="M125 247q0 2 1 3t4 1q5 0 8 -4t5 -9t2.5 -10.5t0.5 -9.5v-6.5t0.5 -12t0.5 -12.5v-10v-9q7 -4 13 -8t11 -9h1h1q3 0 4.5 1.5t2 4.5t0.5 6v5v2.5v2.5v3t-0.5 6.5t-0.5 6.5v4v1.5t0.5 3t0.5 3v1.5v3q0 8 -1.5 16.5t-1.5 17.5q0 3 1.5 3.5t4.5 0.5q4 0 6 -3t3 -7t1 -8v-7
q0 -1 -1 -3.5l-1 -2.5v-2v-2t2 -3v-12v-7v-11t-1 -12.5t-2 -12t-3 -9t-6 -3.5h-1q-3 1 -7.5 3.5t-9 5.5t-8 5t-5.5 2h-1l-2 -2q0 -5 -0.5 -9t-1.5 -7.5t-2 -7.5l-2 -8v-2.5v-1.5v-2.5v-1.5q1 -1 3 -2t4.5 -2.5t4.5 -3t2 -2.5q2 -1 4 -3l4 -4t4.5 -3.5t5.5 -1.5h29q3 0 4 -2
t1 -3q0 -4 -3.5 -5.5t-7.5 -2t-8 -0.5h-6q-9 0 -18.5 1t-19.5 1q-4 0 -5 -1t-1 -5v-10t1 -14t2.5 -13t4.5 -6h39q1 0 3 -2t2 -4q0 -3 -2 -4t-4.5 -1.5t-5.5 -0.5h-5q-11 0 -22.5 1t-22.5 2t-22.5 2t-22.5 1h-3v-2t-0.5 -5t-1.5 -5t-3 -2t-4 2l-3 3v3v3v3v3v7v6t1 6.5t2 7.5
q5 4 11.5 5.5t13.5 1.5h14t13 -1q2 1 2.5 4.5t0.5 5.5q0 3 -0.5 5.5t-2.5 3.5q-18 1 -36 1.5t-35 -0.5q-2 2 -2.5 3.5t-0.5 3.5q0 6 6 6h2q1 0 5 -0.5t9 -1t9 -1t5 -0.5q13 -1 26 -1.5t26 -0.5h4h4.5h5.5h3q-2 3 -5.5 5t-5.5 3t-6 2.5t-8.5 4t-8.5 4t-5 2.5q-2 2 -8.5 4.5
t-15 4.5t-16.5 3.5t-10 2.5v3v2.5t1 2.5h8q7 0 13 -1.5t12 -3.5t12.5 -4.5t12.5 -4.5h0.5h1.5h0.5h0.5q0 1 1 2t1.5 2.5t1.5 3l1 1.5v1.5v0.5q0 4 -5 7.5t-12 6.5t-14 5.5t-11 3.5q-2 1 -5.5 2.5t-7.5 3t-7.5 2.5t-4.5 2v1v2q0 3 1.5 4t4.5 1q5 0 11.5 -2t12.5 -4.5t12 -5.5
t11 -6q3 -2 6.5 -4t7.5 -2q2 0 2.5 1.5t0.5 3.5v3.5v2.5q0 5 -1 7.5t-3.5 4t-5.5 2.5t-7 3q-14 9 -26.5 20.5t-25.5 21.5q-1 1 -1 3v3v3t1 2q1 0 2.5 0.5l1.5 0.5q2 0 7.5 -4t12.5 -10t14 -13t13.5 -13t11 -9.5t4.5 -2.5l2 1v2t0.5 4.5t0.5 5v4.5q1 0 1 1v1q0 13 -3.5 25.5
t-7.5 24.5l-0.5 0.5t-0.5 1.5zM79 39q0 -3 5.5 -4.5t12.5 -2t14 -0.5h9h1.5t3 0.5t1.5 1.5v14l-3 1q-1 0 -2.5 0.5t-3.5 0.5h-4h-2q-4 0 -9.5 0.5t-10.5 0t-8.5 -3t-3.5 -8.5z" />
</svg>
