<?xml version="1.0" standalone="no"?>
<!DOCTYPE svg PUBLIC "-//W3C//DTD SVG 1.1//EN" "http://www.w3.org/Graphics/SVG/1.1/DTD/svg11.dtd" >
<svg xmlns="http://www.w3.org/2000/svg" xmlns:xlink="http://www.w3.org/1999/xlink" version="1.1" viewBox="-10 0 266 256">
   <path fill="currentColor"
d="M57 246q0 3 2.5 4t5.5 1q5 0 7 -1.5t6 -5.5q7 -9 14.5 -18.5t13.5 -19.5q3 -4 7.5 -8t9 -7.5t10 -7t8.5 -5.5q5 -4 8.5 -8t7.5 -7q6 -5 13.5 -7.5t13.5 -6.5q1 0 2.5 -1.5l3.5 -3.5l3.5 -3.5l1.5 -1.5q1 0 2 -0.5t2 -0.5q0 -1 0.5 -1.5l0.5 -0.5v-12q-5 0 -8.5 2t-7 4.5
t-7 6t-7.5 5.5q-12 9 -25.5 16t-24.5 18q-7 7 -14 14.5t-16 14.5l-1 1l-2 2q-2 2 -3.5 5.5t-2.5 5.5q-2 3 -5 6l-6.5 6.5l-7 7l-5.5 5.5v2zM69 168q0 4 2.5 5t6.5 1q3 0 5.5 -1.5t4.5 -4.5t3.5 -6t3.5 -5q13 -17 29.5 -31.5t35.5 -24.5l6 -3t8.5 -4.5t8.5 -4.5t6 -2l3 -3
t2 -4q0 -3 -3.5 -4.5t-6.5 -1.5q-4 0 -8 2.5t-8.5 6.5l-9 8t-7.5 5q-4 2 -10.5 5.5t-13.5 7.5t-12.5 8t-8.5 8q-7 11 -16.5 21.5t-20.5 19.5v2zM58 107q0 2 1.5 2.5t4.5 0.5q6 0 14 -5.5t16 -13.5l16 -16t14 -12q10 -8 23.5 -14.5t24.5 -12.5q1 -1 3 -2t4.5 -2.5t5 -2.5
t3.5 -2l1 -2.5t2 -3.5q0 -1 -1 -2t-2.5 -2t-3 -1h-1.5q-5 0 -9.5 2t-9 5t-8.5 6.5t-7 6.5l-36 19q-1 0 -1.5 0.5l-0.5 0.5q0 1 -1.5 2t-2.5 3t-2.5 3.5l-1.5 1.5q-2 2 -6 5t-9 7t-10.5 8t-9.5 8t-7 7.5t-3 5.5z" />
</svg>
