<?xml version="1.0" standalone="no"?>
<!DOCTYPE svg PUBLIC "-//W3C//DTD SVG 1.1//EN" "http://www.w3.org/Graphics/SVG/1.1/DTD/svg11.dtd" >
<svg xmlns="http://www.w3.org/2000/svg" xmlns:xlink="http://www.w3.org/1999/xlink" version="1.1" viewBox="-10 0 266 256">
   <path fill="currentColor"
d="M60 249q0 1 1 1.5t2 0.5q4 0 6 -4.5t3 -10.5t1 -11v-8v-3v-6v-6v-4q0 -2 0.5 -6t1 -9t1 -11.5t1 -12t1 -9.5t0.5 -5v-2v-1v-4.5t0.5 -5t0.5 -4.5v-3t0.5 -3l1 -4t1.5 -4t2 -3l2 -1t4.5 -2t4.5 -1.5l2 -0.5q10 -1 21 -2.5t22.5 -2l23 -1t21.5 0.5q3 0 3 -1v-3q0 -4 -4 -5
q-1 0 -4 -0.5t-6 -0.5t-5.5 -0.5t-3.5 -0.5q-2 0 -7 -4t-10 -9.5t-9 -10.5t-4 -7v0q2 -3 5 -5.5t6 -5.5t6.5 -4.5t6.5 -1.5q5 0 10 2t9.5 4.5l9 5t9.5 2.5q2 0 2.5 -1t0.5 -3q0 -3 -5.5 -6.5t-13 -7t-15 -5.5t-10.5 -3q-1 0 -4 -1t-6.5 -1.5t-6.5 -1.5t-4 -1q-2 -1 -2.5 -3
t-1 -4.5t-1 -4t-3.5 -1.5q-2 0 -3 1.5t-1.5 4.5t-1.5 5.5t-2 3.5q-5 3 -14.5 7t-18.5 8.5t-16.5 8.5t-7.5 8q0 2 0.5 3t2.5 1q5 0 10 -2t9.5 -4.5t8.5 -5.5t9 -5q1 1 4 3t5.5 3.5t5 4t2.5 4.5t-1.5 3.5l-3 3t-3.5 2.5t-3 2q-1 2 -3 4l-4 4t-3.5 4l-1.5 2q-2 2 -2 6t-2.5 6
t-5.5 2.5t-5.5 1t-5.5 1.5t-5 4q-3 4 -4 10.5t-1.5 13.5t-0.5 13v11q0 2 -0.5 5.5t-0.5 8t-0.5 8t-0.5 4.5v27q-3 7 -3 15v15v2v4q0 1 0.5 2.5t0.5 2.5zM88 225q0 2 1.5 2.5t3.5 0.5q6 0 13 -2.5t13.5 -6.5l13 -8t11.5 -7q2 -1 8 -4.5t12.5 -7.5t12.5 -7.5t8 -4.5
q2 -2 4 -4.5t2 -4.5t-1.5 -3.5t-3.5 -1.5q-3 0 -6 1.5t-5.5 3t-4.5 3.5t-5 4q0 1 -2.5 2.5l-5 3t-4.5 3.5t-3 2q-1 1 -6 3t-10.5 5t-10.5 5.5t-6 2.5q-1 1 -2.5 2t-2.5 1l-21 11q-1 2 -2 3t-1 3zM93 185q0 2 2 2h4q3 0 9.5 -2.5t14.5 -7t17 -9.5t16.5 -10t12 -9t4.5 -6
t-1.5 -4t-3.5 -2h-1q-15 11 -30.5 21t-31.5 17q-2 1 -4 1.5t-4 1.5t-3 3t-1 4zM93 150v1l0.5 1t0.5 2h2.5h1.5q3 0 9 -2t13 -6t14.5 -8t14 -8.5t10.5 -8t4 -5.5t-1.5 -2.5t-3.5 -0.5q-4 0 -6 1t-4.5 2.5t-4.5 3.5t-5 4l-2.5 1t-5.5 2.5t-5.5 2.5l-2.5 1q-1 1 -3.5 3t-3.5 2
q-1 1 -4 2l-6 2l-6 2t-5 3l-0.5 1.5t-0.5 2.5v1zM106 93l1 -2l1 -2q2 -2 4 -4.5t4.5 -5t5.5 -5t5 -3.5h1q3 0 6.5 2t7 5.5t5.5 7t2 5.5v1v1q-8 2 -14 2h-14h-3h-4h-3h-3l-1 -0.5t-1 -1.5zM114 42v-1q4 -3 7.5 -5.5t7.5 -2.5h4.5t5 0.5t4.5 1.5t3 2q-2 2 -4 4.5t-4.5 5
t-5 4.5t-5.5 2q-2 0 -4 -1t-4 -3l-3.5 -3.5t-1.5 -3.5z" />
</svg>
