<?xml version="1.0" standalone="no"?>
<!DOCTYPE svg PUBLIC "-//W3C//DTD SVG 1.1//EN" "http://www.w3.org/Graphics/SVG/1.1/DTD/svg11.dtd" >
<svg xmlns="http://www.w3.org/2000/svg" xmlns:xlink="http://www.w3.org/1999/xlink" version="1.1" viewBox="-10 0 266 256">
   <path fill="currentColor"
d="M137 189q0 3 0.5 9t2 12.5t3.5 14t5 13t6.5 9.5t7.5 4q2 0 3.5 -1.5t1.5 -3.5t-0.5 -3.5t-2 -3l-2.5 -2.5t-2 -3q-2 -5 -4.5 -11t-4.5 -12t-3.5 -12.5t-1.5 -11.5q0 -11 5 -18t11.5 -13t12 -13.5t5.5 -18.5q0 -4 -2.5 -8t-5 -7.5t-4.5 -6t-2 -3.5v-1v-1q4 -2 6.5 -5t4 -7
t2 -8.5t0.5 -8.5q0 -5 -0.5 -8t-5.5 -3q-4 0 -5 0.5t-1 4.5q0 3 1 6.5t1 6.5q0 6 -6 10.5t-14 8.5t-16 7t-11 7q-14 12 -23.5 27.5t-14.5 33.5q0 2 1.5 2.5t3.5 0.5q3 0 4.5 -2t3 -5t2.5 -6t1 -4l1 -0.5t1 -1.5v-4q2 -9 7.5 -16.5t12.5 -13.5t14.5 -10.5t15.5 -8.5h0.5h0.5
q2 0 5 3t5 7.5t4 8.5t2 6q0 7 -2.5 11.5t-6 9t-7.5 8.5t-7.5 9t-6 11t-2.5 15zM76 107v1q1 1 2 3.5t3 2.5q5 0 8.5 -4.5t7 -10t6 -11t5.5 -8.5q7 -6 15 -13t17 -11q4 -2 10 -3t12 -2.5t11 -4t6 -7.5v-2q0 -1 0.5 -3t0.5 -3v-2v-6q0 -4 -1 -7t-3 -5t-6 -2q-2 0 -3 0.5t-1 3.5
q0 4 0.5 7.5t0.5 6.5q0 5 -1.5 8t-4 4t-6 2t-8.5 1q-1 1 -5.5 3t-9 4.5t-8.5 4.5t-5 3l-3 3l-4.5 4.5l-4.5 4.5l-2 2q-6 5 -9 10t-8 12l-2 2l-4 4t-4 4.5t-2 3.5z" />
</svg>
