<?xml version="1.0" standalone="no"?>
<!DOCTYPE svg PUBLIC "-//W3C//DTD SVG 1.1//EN" "http://www.w3.org/Graphics/SVG/1.1/DTD/svg11.dtd" >
<svg xmlns="http://www.w3.org/2000/svg" xmlns:xlink="http://www.w3.org/1999/xlink" version="1.1" viewBox="-10 0 266 256">
   <path fill="currentColor"
d="M76 202q0 3 0.5 11t1.5 16t3 14t7 6q3 0 3.5 -2t0.5 -5q0 -5 -1.5 -10t-2.5 -10t-2.5 -9.5t-1.5 -9.5q0 -9 2 -17t4.5 -16l5 -16t2.5 -17q0 -5 -1.5 -8.5t-3.5 -7.5t-3 -7.5t-1 -7.5v-1q3 -4 6.5 -8.5t3.5 -10.5v-3t-0.5 -4t-1.5 -3.5t-3 -1.5q-1 0 -2.5 0.5t-1.5 3.5
l1.5 2.5t1.5 3.5v3v2q-16 15 -27 33.5t-11 41.5v10q1 1 1 1.5t1 0.5h1v0l2.5 -2.5l2.5 -2.5q-1 -13 3 -24.5t9 -23.5q1 -2 1.5 -4.5t3.5 -2.5q2 -1 4 1.5t3.5 6.5t2 8t0.5 5q0 9 -2 17t-4.5 16l-5 16t-2.5 16zM147 244q0 1 0.5 3t3.5 2q2 0 4 -2t2 -4v-31l-2 -3v-30l0.5 -2
t1.5 -3l0.5 -0.5l0.5 -0.5h21l3 62l3 3q3 -2 4.5 -4t1.5 -6q0 -9 -2 -18.5t-2 -19.5v-16q0 -9 -1 -17t-2.5 -16t-5.5 -15q-3 -5 -7.5 -7t-8.5 -3.5t-7 -4.5t-3 -10q0 -2 1 -3.5t2.5 -1.5t3.5 -0.5t4 -1.5q1 0 3 -2l4 -4l3.5 -3.5t3.5 -1.5q5 0 6.5 3.5l3 7t3.5 7t6 3.5
q3 0 4.5 -1t1.5 -4q0 -4 -2.5 -7t-4.5 -5l-2.5 -2.5t-3 -3.5t-3 -3t-2.5 -2v-2q0 -3 1 -6t1 -6q0 -4 -1 -7.5t-3 -5.5q-1 -2 -3 -4.5t-3 -2.5h-24l-2 -4v-25q-4 0 -6.5 1t-5.5 4q1 1 1.5 3.5l1 5t0.5 5v3.5q1 1 0.5 3t-0.5 3h-29q0 1 0.5 2.5t0.5 2.5l0.5 1l0.5 1h27v16
l-2 0.5t-4 0.5q-1 1 -5 1t-8.5 0.5t-8 0.5h-5.5l-0.5 1t-0.5 2h-0.5t-0.5 1q0 2 2 3t4 1q6 0 12 -1t12 -1h3h2l2 2v15h-30q-1 0 -1.5 1.5t-0.5 2.5t0.5 2.5t1.5 1.5h27l5 2v11q0 1 -3 2.5t-6.5 2.5t-6.5 2.5t-4 4.5q-5 10 -8 21.5t-3.5 23.5t-0.5 24v23v17q-1 3 1 3h3
q2 0 4 -1t2 -4v-18l-1 -3v-29q0 -2 2 -3.5t5 -2t6 -0.5h5t3.5 0.5t2.5 3.5q0 10 1.5 22t1.5 23q0 5 -1 10t-1 11zM123 160q0 -3 0.5 -9.5t3 -13t5.5 -11.5t9 -5v0v0q1 1 2.5 3l1.5 2v21q1 1 1 3t0.5 3.5t0 3.5l-0.5 2v3.5v2.5l-1 2h-20l-2 -2v-2v-3zM154 161v-28l-1 -2.5
l-1 -2.5v-2q0 -2 1 -2.5t3 -0.5q6 0 10 3.5t6.5 9t3.5 11.5t1 11q0 1 -0.5 2.5l-0.5 1.5l-1 2h-18zM60 84v2t1 2l1.5 -0.5l1.5 -0.5q6 -3 11.5 -7.5t9.5 -9t7 -10.5t3 -13q0 -9 -3 -18t-8 -17q-1 -1 -2.5 -1h-3.5h-3.5t-1.5 3t2.5 7t5 8.5t4.5 9t2 10.5q0 7 -4 12t-9.5 8.5
t-9.5 6.5t-4 8zM150 74h2h3.5t3.5 0.5l2 0.5q2 0 5 1t3 3t-1.5 3.5t-4 2.5t-5 1.5t-3.5 0.5q-2 0 -3 -1.5t-1.5 -3.5t-0.5 -4v-4zM156 49q7 0 11 0.5t6.5 3t3 7t0.5 10.5q-1 0 -5.5 -1l-9 -2t-8 -2l-3.5 -1v-12q0 -3 2 -3h3z" />
</svg>
