<?xml version="1.0" standalone="no"?>
<!DOCTYPE svg PUBLIC "-//W3C//DTD SVG 1.1//EN" "http://www.w3.org/Graphics/SVG/1.1/DTD/svg11.dtd" >
<svg xmlns="http://www.w3.org/2000/svg" xmlns:xlink="http://www.w3.org/1999/xlink" version="1.1" viewBox="-10 0 266 256">
   <path fill="currentColor"
d="M166 199v46q0 1 1 3.5t3 2.5h1q1 -1 3 -1.5l2 -0.5v-52l28 -3h1v-2q0 -3 -1.5 -3.5t-5.5 -0.5t-8 1t-8 1h-4h-3q-1 -1 -1 -2v-2q0 -4 2 -5.5t5 -2.5l6 -2t5 -2t4 -3t2 -3v-31l-1 0.5t-2.5 0.5t-2.5 0.5l-1 0.5v23q0 2 -1.5 3.5t-3.5 2.5t-4 1.5t-3 0.5h-4v-8v-10.5
t-1.5 -9.5t-4.5 -4q-2 0 -3 1.5t-1 3.5q0 5 0.5 10t0.5 10q0 2 -0.5 5t-3.5 3q-4 0 -6.5 -3.5t-3.5 -8t-1 -9.5v-8q0 -1 -1.5 -1.5t-2.5 -0.5q-3 0 -4 2.5t-1 5.5v0q0 1 1 3.5t1.5 5t1 4.5t0.5 3q1 1 1.5 2.5t1.5 3.5l1.5 3l0.5 1l14 5v1.5v2.5v2.5v2.5t-0.5 1.5t-1.5 0.5
l-27 3q-2 0 -2.5 0.5t-0.5 2.5q0 1 0.5 2t2.5 1h30zM72 197v2q0 3 0.5 8t1 11t1 10.5t0.5 5.5v1.5v3.5t1 3.5t2 2.5h1q2 0 3 -1.5t1.5 -3.5t0.5 -4v-3q0 -8 -1 -16t-1 -16v-16q2 -6 5 -12.5l6 -13t5.5 -13t2.5 -12.5v-1q0 -2 -1.5 -5t-3 -6.5t-2.5 -6t-1 -3.5v0q0 -1 1 -2
l2 -2t2 -2.5l1 -1.5q3 -5 3 -8.5v-8.5v-6q0 -1 -1 -1.5t-2 -0.5t-2.5 3.5t-3 8l-3 9t-3.5 6.5l-23 21q-4 4 -6 10t-4 11v21q3 0 4 -1.5t1 -3.5v-4t1 -4q0 -3 3.5 -9t7 -12.5t7.5 -11t7 -4.5q2 0 3.5 1.5t1.5 3.5v23q-7 11 -11.5 23.5t-6.5 25.5v1zM105 236q0 2 1 3t4 1
t4 -2.5t1.5 -5.5t0.5 -6v-4t0.5 -3.5l1 -5t1 -4.5t0.5 -3v-3v-5v-5v-3q0 -1 0.5 -4t1 -5.5t1 -5.5t0.5 -4v-67q1 -5 1.5 -9.5t1.5 -9t2.5 -9t3.5 -9.5q1 0 3.5 -0.5t5.5 -1t5.5 -0.5t4.5 -1l2 -0.5l2 -0.5h2q3 0 4 2.5t1.5 6t0.5 6.5v5v10q-2 5 -7 9.5l-10 9t-9.5 8.5
t-4.5 9q4 0 8 -2t7.5 -5.5t6.5 -7t6 -6.5q2 2 2.5 5.5t1 7.5t1.5 6.5t3 2.5q1 0 2.5 -2t1.5 -3v-48q-1 -2 -1.5 -4.5t-0.5 -3.5v-2q0 -1 0.5 -1.5l1.5 -1.5q9 0 14 -1t8 -4.5t4 -9t1 -13.5v-5t-4 -4h-5h-5.5h-6.5h-4q-13 0 -25 1.5t-24 2.5q-4 1 -4 4t4 5h4.5h4.5
q7 0 12.5 -1t11 -1.5t11.5 -1.5t14 -1q2 0 4 1t2 4q0 7 -2.5 10t-6.5 3.5t-9.5 0t-12.5 0.5h-1.5t-4 0.5t-4.5 1t-3 0.5t-3 1l-2 1q-7 1 -11 2t-6.5 3t-3.5 6t-2 10q0 1 -0.5 3.5t-0.5 5v4.5v3v75q0 8 -1.5 16t-3.5 16.5t-3.5 16.5t-1.5 17zM177 104q0 3 2.5 4.5l5 3l5 3
t2.5 4.5h11v-4q0 -1 -1 -2l-2 -2t-2.5 -2t-2.5 -2t-3 -2t-4.5 -2t-4.5 -1.5t-4 -0.5q-1 0 -1.5 1t-0.5 2zM127 101v2q3 0 8 -2t9.5 -4.5t8 -6.5t3.5 -8v-1l-3 -3q-1 1 -4 3.5t-5.5 5.5t-5.5 5.5t-4 3.5t-4 2.5t-3 2.5zM177 78q0 3 1.5 6t4.5 5.5t6.5 4t6.5 1.5h4t3 -2
q0 -4 -3.5 -6.5t-7.5 -4.5t-8.5 -3t-6.5 -1zM90 51q0 7 -2 11.5t-5 8t-7 6t-7 5t-5 5.5t-2 7q3 0 6 -1.5t7 -2.5q5 -4 9.5 -8.5t7.5 -9t5 -10t2 -12.5q0 -5 -0.5 -11.5t-3 -12.5t-7 -10t-10.5 -4q0 6 1.5 10t4 8.5t4.5 9.5t2 11z" />
</svg>
