<?xml version="1.0" standalone="no"?>
<!DOCTYPE svg PUBLIC "-//W3C//DTD SVG 1.1//EN" "http://www.w3.org/Graphics/SVG/1.1/DTD/svg11.dtd" >
<svg xmlns="http://www.w3.org/2000/svg" xmlns:xlink="http://www.w3.org/1999/xlink" version="1.1" viewBox="-10 0 266 256">
   <path fill="currentColor"
d="M58 173q0 4 1.5 9t4.5 9.5t6.5 8t8.5 4.5l26 3q1 0 3.5 3t5.5 8t6.5 11t7.5 10.5t9 8t10 3.5q2 0 2 -2v-4q0 -5 -3.5 -7.5t-8.5 -5t-9 -5t-4 -8.5q0 -4 2.5 -8t5.5 -6q8 0 16.5 -1.5t16 -5.5t12 -10.5t4.5 -15.5q0 -10 -4 -16t-9.5 -10t-9.5 -9t-4 -12q0 -3 1 -5.5t3 -5
t3.5 -4.5t1.5 -5t-1.5 -3.5t-3.5 -0.5q-3 0 -5 3.5t-3.5 8t-2.5 9t-1 6.5q0 8 4 12.5t9 8t9 8t4 12.5t-2 12.5t-6 7t-9 4t-12 3.5h-1q-2 0 -3 -1t-1 -3q0 -9 2.5 -17.5t2.5 -16.5v-5.5t-4 -2.5q-1 0 -2 0.5t-2 1.5q0 8 -0.5 14.5t-1.5 13t-3.5 13t-6.5 12.5h-1h-1
q-2 0 -3 -1t-2 -2.5t-2 -3.5t-1 -4v-39q0 -2 -2 -2.5t-4 -0.5h-1h-1q-2 5 -2 9v10q0 7 1 14t1 14q-6 0 -12 -1.5t-11.5 -5t-9.5 -8.5t-4 -12v0q1 -1 2 -3.5t1 -3.5q4 -6 10 -10.5t11 -9t9 -10t4 -14.5q0 -2 -0.5 -5.5t-2 -7t-3.5 -6t-5 -2.5t-3.5 1t-0.5 3v1v1q0 1 1.5 2
t2.5 3t2 3.5t1 2.5v2v4t-0.5 4.5t-0.5 3.5q-1 4 -4 6.5t-7 4t-8 3.5t-7 4q-4 6 -8 11.5t-4 12.5zM122 128q0 2 1 4t3 2q3 0 4.5 -5.5t1.5 -13v-15v-10.5q4 -3 9 -4t10 -1h10t9 -1v-1.5v-0.5v-2t-1 -1h-3h-4.5h-5.5h-2h-4h-5.5h-3.5h-3h-3.5t-5 0.5t-4.5 2t-2 3.5v11
t-0.5 10.5t-0.5 10.5v11zM55 87v4q5 0 9 -1.5t6.5 -4t5.5 -6t6 -8.5q1 0 3 -2.5l4 -5t4 -4.5l2.5 -2.5t2 -2.5l1.5 -2q4 -5 9 -8t9 -8q1 -1 2.5 -3t3.5 -4t4 -3.5t5 -1.5h2q7 7 12 13.5t12 12.5v0.5v1.5q0 2 -4.5 3t-10.5 1.5t-12 0t-8 -0.5q-1 0 -4 0.5t-6 0.5t-6 0.5
t-4 0.5q-2 -1 -3 2t-1 4h26.5t26.5 -2q4 0 7 -1.5t6 -1.5q4 0 8 4.5t8 9.5t7.5 9.5t6.5 4.5t4.5 -1t1.5 -4q0 -4 -4.5 -9t-10.5 -10.5t-12 -10t-8 -7.5q-2 -1 -4.5 -3.5l-5 -5t-4.5 -5t-3 -3t-2 -3l-1 -2.5l-2.5 -2.5l-3.5 -3.5t-3.5 -4t-2.5 -2t-2 -0.5l-1 -0.5
q-3 0 -4.5 1.5t-3 3.5l-3 4t-3.5 4l-7 7t-11 11.5t-13 13.5l-13 13l-11 11t-7 8z" />
</svg>
