<?xml version="1.0" standalone="no"?>
<!DOCTYPE svg PUBLIC "-//W3C//DTD SVG 1.1//EN" "http://www.w3.org/Graphics/SVG/1.1/DTD/svg11.dtd" >
<svg xmlns="http://www.w3.org/2000/svg" xmlns:xlink="http://www.w3.org/1999/xlink" version="1.1" viewBox="-10 0 266 256">
   <path fill="currentColor"
d="M72 187v0q0 2 1 4.5t3 5t3.5 4.5t3.5 2h33l1 0.5t1 1.5q4 10 8 16.5t12 13.5q2 2 4.5 5t5.5 5.5t6 4t7 1.5q6 0 6 -7q0 -1 -5 -4.5t-11 -7.5t-11 -7t-4 -6l6 -11q1 -2 6 -2.5t11 -2t12 -3.5t10 -7q1 0 2 -2l1 -2v-17l-1 -1l-2 -2l-2.5 -2.5l-1.5 -1.5q-4 -3 -8.5 -4
t-8.5 -2t-6.5 -3.5t-2.5 -8.5q1 -1 2.5 -2t4.5 -2t5 -2.5t4 -3.5q0 -8 0.5 -15.5t0.5 -15.5v-5t-3 -3q-4 0 -5.5 2.5t-2.5 5.5t-3 5.5t-7 2.5h-45q-2 0 -2.5 -1.5t-1 -4t-1.5 -4t-4 -1.5q-2 0 -3 1.5t-1 3.5q0 1 0.5 6.5t1 11.5t1.5 11t3 6l1 0.5t2.5 1t2.5 1l1 0.5l1 0.5
t2 0.5q0 1 0.5 4.5t0.5 4.5v1q0 3 -2.5 4.5t-6 2.5t-8 2.5t-8.5 4t-6.5 6.5t-2.5 10zM112 167v-4t0.5 -6t1 -5.5t1.5 -2.5q6 -1 13 -2t14 -1q2 0 2.5 2.5t1 5.5t2 6t4.5 5h2t2.5 0.5l3 1t1.5 1.5q1 0 2.5 1t3.5 2t3.5 2t2.5 2q1 -1 1.5 0t0.5 2v1l-0.5 2l-1 4t-0.5 4v2
q-2 3 -5 4t-6.5 2t-6.5 1.5t-5 0.5q-1 0 -2 -0.5t-1 -1.5v-24q0 -2 -1 -2.5t-2 -0.5h-2.5t-1.5 1v28q0 1 -0.5 3t-2 4t-3 3t-2.5 1h-2h-1q-3 -6 -6 -13t-5 -14v-1.5t-0.5 -3l-1 -3l-0.5 -1.5l-2 -2l-2 -2v-2zM83 190v-1.5v-1.5q0 -4 1.5 -7t4.5 -5q1 -1 3 -1.5t5 -1t5 -1
t3 -1.5h2h2q0 2 0.5 5t0.5 6t0.5 6.5t0.5 4.5v1v0q0 1 -0.5 1.5t-1.5 0.5h-3h-3q-5 0 -10.5 -1t-9.5 -4zM99 126q0 -1 0.5 -2t1.5 -1q12 -1 23.5 -2t23.5 -1h4h3l3 3v10q0 1 -2.5 2.5t-3.5 1.5q-1 1 -3.5 1.5t-5.5 0.5t-5 0.5t-3 0.5h-2h-3.5h-4.5h-4h-2h-4.5h-4.5h-2
q-6 -1 -7.5 -5t-1.5 -9zM82 70q0 12 5.5 18t14 8.5t18.5 3t19 0.5q14 0 19 -6.5t5 -19.5q0 -5 -4 -6.5t-8.5 -2t-10 -0.5h-7.5q-8 0 -14 1t-13 1v4t2 3q1 0 2.5 0.5t3.5 0.5t4 0.5t3 0.5h1q3 0 6.5 -1t6.5 -1h5.5t5 1t4 2.5t1.5 4.5v3q0 1 -0.5 2.5t-1.5 2.5t-2 1h-39
q-3 0 -5.5 -1t-5 -3t-4 -5t-1.5 -5v-2.5t0.5 -3.5t0.5 -4v-3q1 -4 5 -5t7 -2q1 0 4 -1t6 -1.5l6 -1t4 -0.5q4 -2 7 -5.5t3 -8.5q0 -9 -2.5 -13.5t-7 -6t-11 -1.5h-14.5h-2h-4h-2.5h-2.5q-1 1 -2.5 1.5t-1.5 2.5q0 1 1 2t2.5 1.5l3 1l1.5 0.5h25q3 0 5 3t2 6q0 2 -1 5t-3 4
l-16 4t-16 5q-4 3 -5.5 7t-1.5 9z" />
</svg>
