<?xml version="1.0" standalone="no"?>
<!DOCTYPE svg PUBLIC "-//W3C//DTD SVG 1.1//EN" "http://www.w3.org/Graphics/SVG/1.1/DTD/svg11.dtd" >
<svg xmlns="http://www.w3.org/2000/svg" xmlns:xlink="http://www.w3.org/1999/xlink" version="1.1" viewBox="-10 0 266 256">
   <path fill="currentColor"
d="M69 158v87l0.5 0.5l0.5 0.5q1 1 2 1.5l1 0.5q3 0 5 -1t2 -4v-41q0 -3 1 -5t2.5 -3.5t3.5 -3t4 -4.5q5 -5 6 -10t1.5 -9t0 -7t1.5 -5q1 -1 3.5 -2t5 -2.5t4.5 -2t3 -1.5q5 -3 6.5 -11t2 -17t0 -18t-0.5 -14v-11t-2 -11q-1 -3 -3 -5.5t-4 -4.5t-3.5 -5t-1.5 -6
q0 -7 1 -13.5t1 -13.5q0 -1 -1.5 -3.5t-3.5 -2.5q-3 1 -4 5.5t-1.5 9.5t-1 10.5t-0.5 7.5q0 3 1.5 6.5t3.5 6.5t4 5.5t4 5.5q3 4 3 10v10v8v12t-1 13.5t-2.5 12.5t-4.5 9.5t-7 3.5q0 -15 1.5 -30t1.5 -30q0 -2 -0.5 -4t-3.5 -4l-5 5q2 13 1 28t-2 29q0 3 -0.5 8t-1 9.5t-1 8
t-0.5 4.5l-8 12h-3v-39q0 -19 1 -38q1 -7 2.5 -13t1.5 -13q0 -2 -1.5 -2.5t-3.5 -0.5h-3q-1 0 -2 2v15.5t-0.5 17.5t-1 17.5t-1.5 16.5q-1 1 -2 1h-2q-3 0 -5 -2t-3 -5t-1 -6.5v-5.5v-8q0 -5 0.5 -12t1 -14.5t1.5 -14t3 -12t5 -7.5q1 0 2 -1t2.5 -1.5t2.5 -1t1 -1.5
q6 -4 7 -10t1 -13q0 -2 0.5 -5.5t0 -6.5t-2.5 -5t-5 -2q-2 0 -3 0.5t-3 2.5q0 1 0.5 3.5t1 6t0.5 6v3.5v3q0 5 -1 6.5t-3 3t-4 2.5t-4 4q-6 7 -8.5 14.5t-3.5 16.5v6.5t-0.5 10t-0.5 11.5v9v4q0 6 1 11t3 9t5.5 7t9.5 5zM142 156v0q-1 1 -2.5 2t-1.5 2v42q0 9 6 15.5t15 6.5
h5q2 0 6.5 -0.5t8.5 -1t7 -1l3 -0.5l9 -9q1 -13 3 -26t2 -26q0 -3 -1.5 -5t-4.5 -2q-2 0 -3.5 1.5t-1.5 3.5q0 1 -0.5 3t-0.5 4t-0.5 4t-0.5 3t-2 3t-4 2h-32q-3 0 -3.5 -3t-0.5 -7t-1 -7.5t-5 -3.5zM149 186l2 -1l3.5 -0.5t8.5 -0.5t10.5 -0.5t9.5 -0.5h2h2t2 2v6
q0 7 -1 11.5t-3.5 7.5t-7 4t-11.5 1h-5h-5q-1 -1 -4 -2.5t-3 -2.5v-24zM135 109v2q0 2 0.5 5t0.5 6.5t0.5 6l0.5 2.5q1 6 4.5 8.5t9 3.5t11 1h9.5q5 0 11 -0.5t11.5 -2t9 -5t3.5 -9.5v-7q0 -3 -0.5 -6t-2.5 -5.5t-5 -4.5h-7t-11 -0.5t-11 -0.5h-7h-3q-2 0 -4.5 1t-2.5 3v0
l1.5 1.5l0.5 0.5l25 2h5.5t5 0.5t4 2.5t1.5 4q0 7 -2.5 12.5t-9.5 5.5h-32q-1 0 -2.5 -1.5t-2.5 -3t-2 -3.5t-1 -3v-1v-1q0 -2 0.5 -6t0.5 -8v-7v-4q1 -1 1 -4t0.5 -6t2.5 -5t4 -3l48 -3q2 0 3.5 -1.5t3 -4t2 -5t0.5 -4.5v-2v-2.5t-0.5 -3.5t-0.5 -4v-3q-2 -2 -5 -3t-6 -1.5
t-6.5 -1t-4.5 -0.5q-9 0 -16 0.5t-12 -0.5t-8 -5t-3 -14q-4 0 -6.5 1t-2.5 6q0 1 0.5 3.5t1 5.5t2 5t2.5 3q1 0 3 0.5t4 0.5h3.5h2.5q2 1 7 1t10.5 0.5t10.5 0.5h7l4.5 3t1.5 5q0 8 -5 11t-12.5 4t-15.5 1h-13q-6 2 -9.5 5.5t-5 8t-2 10t-0.5 12.5z" />
</svg>
