<?xml version="1.0" standalone="no"?>
<!DOCTYPE svg PUBLIC "-//W3C//DTD SVG 1.1//EN" "http://www.w3.org/Graphics/SVG/1.1/DTD/svg11.dtd" >
<svg xmlns="http://www.w3.org/2000/svg" xmlns:xlink="http://www.w3.org/1999/xlink" version="1.1" viewBox="-10 0 266 256">
   <path fill="currentColor"
d="M71 246q0 2 1 3.5t4 1.5q2 0 3.5 -1.5t1.5 -3.5v-4v-4q0 -7 -0.5 -14.5t-0.5 -14.5v-2v-3.5v-2.5v-3q10 -8 13 -16.5t4 -20.5q3 -5 7.5 -7.5t7.5 -6.5q4 -6 5.5 -12t2 -12t0.5 -12.5v-12.5v-4v-6.5v-6.5v-4q-2 -6 -4.5 -9.5l-5 -7t-4.5 -8t-2 -9.5q0 -7 2.5 -13.5
t2.5 -13.5q0 -2 -1.5 -2.5t-3.5 -0.5q-3 0 -4.5 3.5t-2 8.5t-0.5 9v7v10q2 6 5 11t6 9.5t4.5 10.5t1.5 14v4.5t-0.5 7.5t-1 7.5t-0.5 5.5q0 4 -0.5 8t-2 7.5t-4.5 5.5t-7 2q0 -12 1 -23.5t1 -23.5v-12q0 -1 -1.5 -2l-1.5 -1h-1h-1q-1 3 -1.5 11.5t-0.5 20t-0.5 24t-1.5 23
t-3 17t-6 6.5h-1l-0.5 -1t-0.5 -2v-22q0 -1 -0.5 -3.5t-0.5 -5t-0.5 -5.5l-0.5 -3q0 -13 1.5 -25.5t1.5 -25.5q0 -2 -0.5 -5t-3.5 -3h-2t-2 2q1 11 1 25.5t-2 26.5l-0.5 0.5l-0.5 0.5h-1q-4 0 -6 -3.5t-3 -8t-1.5 -9t-0.5 -7.5q0 -9 1.5 -18.5t5.5 -17.5q1 -3 4.5 -7t7.5 -8
t7 -8t3 -7v-29q0 -2 -3 -2.5t-4 -0.5t-2.5 1t-1.5 3q0 4 1.5 8.5t1.5 8.5q0 6 -2.5 10t-5.5 8q-5 7 -9 13.5t-6.5 13t-4.5 13.5t-2 16q0 8 2 16.5t5 16.5q1 4 3.5 6t5 3.5t4.5 5t2 11.5q0 13 -1 26t-1 27v5q0 4 0.5 8.5t0.5 7.5v6zM129 241q1 4 2 4.5t3 0.5h2.5t1.5 -2v-101
q0 -2 0.5 -6.5t1 -10t0.5 -10v-6.5q2 -5 2.5 -9l1 -8t1.5 -7.5t6 -7.5q3 -2 8.5 -3t11 -1.5t11.5 -1t11 -2.5t8 -5.5t3 -11.5q0 -7 -3 -13t-10 -8h-12h-13q-1 0 -5.5 0.5t-9 0.5t-9 0.5t-5.5 0.5t-2 1t-1 2v1v1l0.5 1.5l0.5 1.5h53q2 0 3.5 1t2 3t0.5 4v3v5q-5 1 -9 4t-9 4
q-10 1 -17 2t-12.5 4t-8.5 9t-4 16q-1 5 -0.5 10.5t0.5 11.5t-0.5 11.5t-2.5 9.5q0 21 -1 41.5t-1 41.5v18zM191 241q1 3 2.5 3.5t3.5 0.5q3 0 4 -1.5t1 -4.5q0 -2 -0.5 -6t-1.5 -8t-2 -7.5t-2 -4.5q-1 -2 -1.5 -7t-1 -10.5t-1.5 -10.5t-1 -7v-4v-6v-7v-4q-1 -12 -3 -24
t-2 -25q0 -2 0.5 -3l1.5 -3q1 0 3.5 -0.5t5.5 -1t5.5 -1.5t2.5 -3q0 -3 -3 -4t-5 -1q-3 0 -9 1.5t-12.5 3.5t-12 5t-6.5 7q0 2 -0.5 7.5t-0.5 11t-0.5 11t-0.5 7.5v2v4.5v5.5v4v19t0.5 20.5t1.5 20.5t3 18q1 1 2 1.5l1 0.5h1q2 0 3 -3t1 -4q0 -7 -1.5 -14t-1.5 -14
q-2 -15 -2 -31v-31v-25q1 -6 3.5 -10t9.5 -4h1l1.5 1l1.5 1v2.5v3.5v4v2q0 1 0.5 3.5t0.5 5.5t0.5 5.5t0.5 3.5q1 27 3.5 52t5.5 52z" />
</svg>
