<?xml version="1.0" standalone="no"?>
<!DOCTYPE svg PUBLIC "-//W3C//DTD SVG 1.1//EN" "http://www.w3.org/Graphics/SVG/1.1/DTD/svg11.dtd" >
<svg xmlns="http://www.w3.org/2000/svg" xmlns:xlink="http://www.w3.org/1999/xlink" version="1.1" viewBox="-10 0 266 256">
   <path fill="currentColor"
d="M111 204q4 7 11 15t15 15.5t17 12t18 4.5q2 0 4 -0.5t2 -2.5q0 -3 -4 -5.5t-8.5 -4.5t-9 -3.5t-6.5 -2.5l-1.5 -1.5l-2.5 -2.5t-2.5 -2t-1.5 -2q-1 -1 -3 -1.5t-3 -1.5l-2 -2t-1 -4q0 -1 1.5 -3t4 -4.5t5 -4.5t3.5 -2h31q5 0 8.5 -2.5t6 -6.5t3 -8.5t0.5 -8.5
q0 -7 -2.5 -11.5t-6.5 -7.5t-9 -5t-9 -3.5t-7 -3t-3 -3.5v-14q0 -2 -3 -2.5t-4 -0.5q-2 0 -3 1t-1 2.5v3.5v3q0 8 3 12t7 6t8.5 3.5t8.5 3.5t6.5 5.5t2.5 11.5q0 5 -2 8.5t-5.5 6t-8 3.5t-8.5 1q-3 0 -6.5 -0.5t-3.5 -4.5q0 -3 1.5 -6t1.5 -7q0 -2 -0.5 -4t-1.5 -4.5
t-2.5 -4t-4.5 -1.5v0q-1 0 -2 1t-1 2v24q0 2 -1.5 5t-3.5 5.5t-4.5 4.5t-4.5 2t-3.5 -1.5t-3 -3.5t-2 -4t-0.5 -3v-25q0 -3 -3 -5t-6 -2h-1l-2 1v8q0 5 1 10t1 10q0 3 -1 4.5t-4 1.5q-5 0 -11 -0.5t-11 -3t-8.5 -7t-3.5 -11.5q0 -6 2.5 -10t6 -6t8 -3.5t8 -3.5t6 -6t2.5 -11
q0 -1 -0.5 -3t-1.5 -4t-2 -3.5t-3 -1.5h-1l-0.5 0.5l-0.5 0.5q0 10 -2 15.5t-5.5 8.5t-8.5 4.5t-9 4t-6.5 7.5t-2.5 14q0 4 1.5 8.5t4 8.5t6.5 6t9 2h31zM105 108q0 4 1.5 9.5t4 11t6 9t8.5 3.5q3 0 4 -0.5t1 -3.5t-2.5 -5.5l-5.5 -5.5t-5.5 -6t-2.5 -8q0 -4 2 -7t4 -6.5
t3.5 -6.5t1.5 -7q0 -3 -1.5 -5t-4 -4t-5 -3.5t-4.5 -2.5q0 -1 -0.5 -1.5l-0.5 -0.5q0 -4 3 -5.5t6.5 -3t6.5 -3.5t3 -7q0 -4 -2.5 -7.5t-2.5 -8.5q0 -2 2 -3t4 -1.5t4 -1.5t2 -3q0 -1 -1.5 -1.5t-3 -0.5h-3.5h-2q-6 0 -11.5 1.5t-11.5 1.5h-1q-1 -2 -1 -4.5t-1 -5t-2.5 -3.5
t-4.5 -1q-4 0 -4 3.5v5.5q0 3 1 5t1 4q0 4 -4.5 6t-9.5 4.5t-9 5.5t-4 9q0 4 2 8l4 8t3.5 8t1.5 8v1v1q0 1 -2 3.5l-2 2.5q-5 8 -8 16.5t-3 17.5q0 2 1.5 3.5t4.5 1.5t4.5 -2.5t2.5 -6t1.5 -8t1 -8.5t2 -6.5t3.5 -2.5q3 0 5 1.5t5 1.5q1 0 2 -0.5t1 -2.5t-1 -3.5t-2.5 -3
t-2 -3t-0.5 -3.5v-1l1.5 -2t2.5 -2q1 -1 4 -3.5t4 -3.5q2 1 4.5 2t5 2.5t4 3.5t1.5 5t-1.5 5.5t-3 4.5t-3 5t-1.5 6zM144 37q0 7 0.5 15l1 16t1.5 15.5t1 14.5q1 3 3.5 5t6 2.5t7.5 0.5h7h6t7.5 -1l7 -2t5.5 -4v-9v-15v-14v-10v-3t0.5 -6t0.5 -5.5v-3.5v-1q0 -2 -1.5 -3
t-3.5 -1t-4.5 1t-2.5 4v20l-0.5 0.5l-0.5 0.5h-8q-1 0 -3.5 0.5t-5.5 0.5t-5.5 0.5l-2.5 0.5q-1 0 -3.5 -0.5t-2.5 -1.5q-1 0 -1.5 -0.5l-0.5 -0.5v-19q0 -1 -2.5 -2l-2.5 -1h-1v0v0q-2 2 -2.5 3t-0.5 3zM153 69v-2q0 -1 2 -2q1 0 5 -0.5t8.5 -1t8.5 -1t6 -0.5v0h1
q1 0 2.5 0.5t1.5 1.5q1 0 1 2v3q0 7 -0.5 12.5t-2 9.5t-5.5 6t-12 2q-5 0 -8.5 -3t-5 -7.5t-2 -10t-0.5 -9.5zM76 55q0 -4 2.5 -8t8.5 -4q2 0 3.5 3t2.5 6.5t1 7v4.5q0 3 -3.5 7t-7.5 4q-2 0 -3.5 -3t-2 -6l-1 -6t-0.5 -5zM99 42q0 -4 2.5 -6.5t6.5 -2.5h1.5h0.5l1 1l2 2
t2 1.5t1 1.5v14q0 1 -1.5 1.5t-3 1.5t-3.5 1h-2q-3 0 -4.5 -1.5t-2 -3.5t-0.5 -5v-5z" />
</svg>
