<?xml version="1.0" standalone="no"?>
<!DOCTYPE svg PUBLIC "-//W3C//DTD SVG 1.1//EN" "http://www.w3.org/Graphics/SVG/1.1/DTD/svg11.dtd" >
<svg xmlns="http://www.w3.org/2000/svg" xmlns:xlink="http://www.w3.org/1999/xlink" version="1.1" viewBox="-10 0 266 256">
   <path fill="currentColor"
d="M62 161q0 1 1 5t3 8.5t4 8t4 3.5h35l2.5 4.5t6 12t8 16t11 15.5t14 12t15.5 5q3 0 4.5 -0.5t1.5 -3.5q0 -1 -0.5 -2t-2.5 -2q-5 -3 -8 -5.5t-6 -4.5t-6 -5l-7 -7l-2.5 -2.5l-3 -3t-2 -3l-0.5 -1.5v-5q1 -1 3.5 -4l5 -6t5 -5.5t4.5 -3.5q9 -1 15 -1.5t11 -2.5t8.5 -6
t7.5 -13v-0.5v-1.5q0 -8 -2 -13t-5.5 -8t-7.5 -5t-9 -4t-10 -5t-9 -8h-1v0h-1v0q-1 1 -1.5 2l-0.5 1q0 6 2.5 9t6.5 5t8.5 3.5t8.5 3.5t6.5 6t2.5 10q0 5 -2 9t-6 7t-8.5 4.5t-9.5 1.5q-2 0 -2 -2.5v-3.5q0 -6 0.5 -12t0.5 -12q0 -2 -0.5 -3.5t-3.5 -1.5q-1 0 -3 0.5t-2 3.5
v30q-3 2 -5 5l-4 6t-4.5 5.5l-5.5 5.5q-3 -3 -4 -6t-1.5 -6t-1.5 -6t-3 -6l-3 -30l-1.5 -1.5t-2.5 -1.5v-0.5v-0.5q-3 0 -4 2t-1 4q0 5 1 10.5t1 11.5v3v3q-1 2 -2.5 2h-2.5q-9 0 -14 -1.5t-8 -4.5t-5 -8.5t-3 -12.5q1 -4 4.5 -6.5t7.5 -3.5t8.5 -2t7.5 -3q4 -1 6.5 -4.5
t4.5 -7.5l3.5 -7t2.5 -3l38 -3q4 -2 9 -1.5t10 -1.5q8 -3 11 -10t4 -15.5t0.5 -17t-0.5 -14.5t-0.5 -12t-2 -11t-5.5 -8.5t-12 -4.5q-9 -2 -19 -2h-19h-19t-14.5 2t-11 7.5t-7.5 15.5q0 1 -0.5 1.5l-0.5 0.5q0 1 0.5 2t1.5 1v33q0 7 1 13.5t4 12.5q2 1 5.5 2.5t6.5 3.5
t5 4.5t2 5.5q0 6 -3 9t-8 4.5t-10.5 3t-10 4t-7.5 7t-3 13.5zM103 103q0 -1 2 -3t4.5 -4t4.5 -4l3 -3q2 -1 3.5 -4.5t3.5 -6.5t4 -5.5t4 -2.5q1 0 4.5 4t7 9t7 9.5t4.5 6.5v3v3q0 1 -1 2h-10t-8 0.5l-8 1t-8 0.5q-2 0 -4.5 -0.5l-5 -1t-5 -1.5t-2.5 -3zM89 67q0 -1 0.5 -3
t2.5 -3q15 -8 32 -8q0 15 -8 26t-19 20q-3 -2 -5 -6.5t-2.5 -9t-0.5 -8.5v-8zM141 54h2.5h3t3 0.5t2.5 0.5l2.5 0.5l2.5 0.5q1 0 3 0.5t4.5 1l5 1l2.5 0.5q3 1 4 3.5t1.5 5.5t0 5.5t-0.5 4.5v5.5v7t-1.5 6t-5.5 2.5q-5 0 -10 -5t-9.5 -12.5t-7 -15t-2.5 -12.5zM137 33v-2.5
v-2.5q1 -3 2.5 -3.5t3.5 -0.5q11 0 18 0.5t10.5 3.5t4.5 8.5t1 15.5q-5 0 -12 -0.5t-13.5 -2.5t-10.5 -5.5t-4 -10.5zM90 48v-4q0 -6 3 -10t7.5 -6.5t9.5 -3.5t10 -1q3 0 5 1t2.5 3.5t1 4.5t0.5 4v5t-2 4q-1 0 -4 0.5t-6.5 1t-6.5 1t-5 0.5l-3 1l-3 1h-1h-1h-1h-1l-2 -0.5
t-3 -1.5z" />
</svg>
