<?xml version="1.0" standalone="no"?>
<!DOCTYPE svg PUBLIC "-//W3C//DTD SVG 1.1//EN" "http://www.w3.org/Graphics/SVG/1.1/DTD/svg11.dtd" >
<svg xmlns="http://www.w3.org/2000/svg" xmlns:xlink="http://www.w3.org/1999/xlink" version="1.1" viewBox="-10 0 266 256">
   <path fill="currentColor"
d="M164 248q0 1 1 1.5t2 0.5v0q2 0 3.5 -2.5t2.5 -3.5v-13q0 -16 -1 -32t-1 -32v-12l2 -4h33q1 0 1.5 -2l0.5 -2v-2.5t-2 -1.5q-1 0 -4 -0.5t-4 -0.5q-2 0 -5 0.5t-4 0.5h-1.5t-3 0.5t-3 0.5h-1.5l-1.5 -0.5t-3.5 -1t-3.5 -1t-1.5 -1.5v-16l26 -5q1 0 2.5 -2t2 -5t1 -5
t0.5 -4q0 -3 -1 -5.5t-5 -2.5v0q-1 1 -2 3.5t-2.5 5t-2.5 4.5t-1 3t-0.5 1t-1.5 1l-2.5 0.5t-5.5 1t-5 1t-3 0.5h-2h-1h-5t-6 -0.5t-6.5 -1t-4.5 -0.5q-1 -1 -2.5 -4t-2.5 -6t-2 -5t-2 -2h-1.5t-1.5 2v7q0 6 2 9.5t5 5t7.5 2t9.5 1.5q3 2 3.5 4t0.5 5v3t-0.5 3.5l-1 3
t-2.5 1.5h-33q-3 0 -3 3t2 4t4 1h30l4 5v3.5t0.5 8t0.5 9v7.5v8v13v13v7t0.5 4.5t0.5 7v6.5t1 4zM66 244q2 1 3 1h3q3 0 4 -2t1 -6v-55q5 -3 7.5 -7t4 -8t2.5 -7t2 -5q4 -3 8 -4.5t7 -4t5.5 -5.5t2.5 -9q1 -3 1.5 -8.5t1 -12t1 -12t0.5 -7.5v-10q0 -9 -3 -14.5t-6 -9.5
t-5.5 -7.5t-2.5 -8.5v-24l-1.5 -1.5l-1.5 -1.5q-3 -1 -4.5 2t-2 7t-0.5 7.5v4.5q0 4 0.5 8t3.5 7q0 1 1.5 2l3 2t2.5 2.5t2 1.5q2 3 3.5 6.5t2 7t0.5 7.5v7v8t-0.5 11.5t-1 13.5t-2.5 12.5t-4 8.5t-6 3q-3 0 -3 -2v-4q0 -14 1 -27t1 -27v-12q-1 -2 -2 -4.5t-3 -2.5
q-1 0 -2 0.5t-1 2.5v16.5t-0.5 14.5t-0.5 14.5v16.5q-1 2 -0.5 8t-0.5 12.5t-3 11t-6 4.5l-1 -3v-2v-3v-4v-4q0 -18 0.5 -35.5t0.5 -35.5v-7q0 -2 -1 -2h-3q-1 0 -2.5 0.5t-0.5 2.5q0 3 -0.5 9.5t-0.5 14t-0.5 14t-0.5 8.5t0.5 5.5t0.5 7.5t-1 7.5t-3 4.5v0h-1q-2 0 -3 -1
t-2 -3t-1 -4v-3v-55q0 -8 3 -12.5t7 -8.5t7.5 -9t3.5 -13q0 -6 -0.5 -10.5t-2.5 -11.5q-1 -1 -3 -1h-3v30q0 2 -3.5 6.5t-8 9.5t-8 11.5t-3.5 13.5v13t0.5 19t2 18t3.5 11t4.5 4t4.5 2.5l4 3t2 5.5v3v5.5v5.5v4q0 17 -0.5 33.5t-2.5 33.5zM134 54v17t2 13.5t7.5 8.5t17.5 3
q6 0 12.5 -1.5t12.5 -2.5q5 0 8 -1t4.5 -3t2.5 -5.5t2 -9.5v-3q0 -3 0.5 -5.5t0.5 -5.5v-3v-4q0 -3 -0.5 -6t-0.5 -5v-3l-0.5 -2.5l-1 -5t-1.5 -4.5t-3 -3q-1 0 -3 -1t-4.5 -1.5t-4.5 -1.5t-3 -1h-5l-2 -1l-2 -1q-1 0 -3 1l-2 1q-5 1 -10.5 1.5t-10 2t-8 5t-4.5 10.5v3
q0 3 -0.5 5.5t-0.5 4.5v4zM142 66q0 -1 0.5 -3t1.5 -2q7 -2 14 -2h14h16q4 1 4.5 4.5t0.5 6.5t-1 5.5l-2 5t-3 4t-5 1.5h-29q-3 0 -5.5 -2.5t-3.5 -5.5t-1.5 -6.5t-0.5 -5.5zM142 44q0 -7 3 -10.5t8 -5t11 -1.5h11h3h4h3h1l5 5v3v4v5v4t-0.5 2t-1.5 1h-45q-1 0 -1.5 -1
t-0.5 -2.5v-2.5v-1z" />
</svg>
