<?xml version="1.0" standalone="no"?>
<!DOCTYPE svg PUBLIC "-//W3C//DTD SVG 1.1//EN" "http://www.w3.org/Graphics/SVG/1.1/DTD/svg11.dtd" >
<svg xmlns="http://www.w3.org/2000/svg" xmlns:xlink="http://www.w3.org/1999/xlink" version="1.1" viewBox="-10 0 266 256">
   <path fill="currentColor"
d="M108 209q3 1 4.5 4t3 6.5t3 6.5t5.5 4q3 2 5 2.5t5 2.5t6 5t6 5.5t6.5 4t7.5 1.5q2 0 4 -0.5t2 -3.5t-5 -6t-11.5 -6t-11.5 -5.5t-5 -6.5l0.5 -1t0.5 -2q1 -1 2.5 -3t1.5 -3q4 -4 9 -6t10.5 -3t10.5 -2t9.5 -3t7 -6.5t2.5 -12.5q0 -9 -5.5 -14.5t-12 -8.5t-12 -5t-5.5 -4
v-13l-3 -3l-3 3v17q0 4 5 6t11 5t11 7.5t5 13.5q0 4 -3 7t-6.5 4.5t-8 2.5t-7.5 1h-6l-0.5 -1.5l-0.5 -1.5v-1q0 -3 0.5 -7t0.5 -7v-4v-4t-1 -3.5t-3 -2.5q-1 0 -2 0.5l-1 0.5v14t-1 13t-3.5 11.5t-8.5 9.5q-6 -4 -7.5 -11t-1.5 -14q0 -5 1.5 -9t1.5 -9q0 -2 -1.5 -3.5
t-3.5 -1.5q-3 0 -4 2t-1.5 5.5t-0.5 7v7t-0.5 6.5t-3.5 4l-2.5 0.5l-2.5 0.5q-10 0 -16.5 -5.5t-6.5 -16.5q0 -3 1 -5.5t3 -5.5q4 -2 9.5 -4t10 -4.5t8 -6.5t3.5 -10v-1.5t-0.5 -2l-1.5 -1.5l-2 -2l-2.5 -2.5l-1.5 -1.5l-0.5 -2l-1 -4l-1 -4t-0.5 -3t-1 -4.5t-2 -4.5v-17
q0 -13 2.5 -25t2.5 -24q0 -4 -1 -10t-3 -11.5t-6 -9t-10 -3.5q-2 0 -3.5 1.5t-1.5 3.5q0 1 3 3t6.5 6t6.5 9t3 12q0 6 -1 12t-2.5 12.5t-2.5 12.5t-1 12q0 10 2 19t5 18q1 2 3.5 4t2.5 5q0 6 -3 9t-7 5t-8.5 3.5t-8.5 4t-7 7.5t-3 13q0 9 4 14t10 8t13 4t14 0zM69 105v10
q0 4 0.5 8.5t2 8.5t4.5 8h2q2 0 2.5 -1.5t0.5 -3.5q0 -6 -1 -11t-1.5 -10.5l-1 -11t0.5 -11.5q-1 -1 -2 -2.5t-2 -1.5q-2 0 -3.5 1t-1.5 3v14zM111 94q0 3 0.5 10t2.5 14t5 12.5t8 5.5q3 0 3 -1.5v-2.5q0 -4 -2 -8l-4 -8t-4 -9.5t-2 -11.5q0 -2 1 -4.5t1 -5.5q0 -1 -1 -2.5
t-4 -0.5q0 1 -2 2.5t-2 2.5v7zM138 78v11t0.5 14t3 12.5t8.5 5.5q1 0 2.5 0.5t3.5 0.5h3h3h7t7.5 -0.5t7 -2t5.5 -5.5q2 -7 2 -15v-16v-4v-5v-6v-3q0 -2 -1 -2.5t-3 -0.5q-3 0 -4 3t-1.5 6.5t-1 6.5t-4.5 3h-1.5t-3 -0.5t-2.5 -1t-1 -1.5v-27q0 -1 0.5 -1.5l0.5 -0.5
q1 -1 3 -2t3 -1h3h5h5h3l3 -1.5t1 -2.5t-1 -3.5t-3 -1.5h-22v-23q0 -2 -1.5 -3t-3.5 -1h-2.5t-1.5 3t0.5 10.5t0.5 15.5t-0.5 15.5t-0.5 10.5v3t-0.5 4.5t-0.5 4.5v2q-1 3 -2.5 3.5t-3.5 0l-4 -1l-2 -0.5v-3v-5t-1 -5t-3 -2q-1 0 -2 0.5l-3 1.5v10zM146 100v-3v-3
q1 -3 4.5 -4t7 -1.5t7 -0.5h5.5h8q3 2 3.5 3t0.5 3v2v1q0 1 -0.5 3t-1 4.5t-1 4.5l-0.5 2q-1 2 -3 3t-4.5 1.5t-5 0.5h-3.5q-10 0 -13.5 -3t-3.5 -13zM70 72q0 1 0.5 2t2.5 1q3 0 5 -1.5t3 -4t1 -5v-5.5t-0.5 -8.5t-2.5 -10.5t-5 -9t-8 -4q-2 0 -3.5 1.5t-1.5 2.5q0 3 2 5.5
t4.5 5t4 5.5t1.5 7q0 5 -1.5 9t-1.5 9zM118 49q0 5 -1.5 9t-1.5 9q3 0 5.5 -2t4 -5.5t2 -7t0.5 -5.5q0 -1 -1 -5.5t-2 -9.5t-3.5 -9t-5.5 -3q-2 0 -2.5 1.5t-0.5 2.5q0 3 1 6t2 6.5t2 6.5t1 6z" />
</svg>
