<?xml version="1.0" standalone="no"?>
<!DOCTYPE svg PUBLIC "-//W3C//DTD SVG 1.1//EN" "http://www.w3.org/Graphics/SVG/1.1/DTD/svg11.dtd" >
<svg xmlns="http://www.w3.org/2000/svg" xmlns:xlink="http://www.w3.org/1999/xlink" version="1.1" viewBox="-10 0 266 256">
   <path fill="currentColor"
d="M121 215v10q0 2 1 3l2 2t2 1.5t3 2.5t4.5 5t6 6t7 5.5t7.5 2.5q5 0 5 -5t-4 -8t-9 -5.5t-9 -6t-4 -9.5q0 -3 2 -5l4 -4h15.5t16.5 -1.5t13 -6t5 -14.5q0 -7 -1.5 -13t-4.5 -10.5t-8.5 -7.5t-12.5 -3v8q4 2 7 4t5 4.5t3.5 5.5t1.5 8q0 6 -2 9t-5.5 5t-8.5 2h-10h-4h-3
l-1 -3q1 -4 2 -7.5t1 -7.5q0 -2 -1 -5.5t-4 -3.5q-1 0 -1.5 0.5t-1.5 2.5q0 2 -0.5 4.5t-1 6t-1 6.5t-0.5 4q-1 1 -2 3t-2.5 4.5t-3 4t-3.5 1.5q-1 0 -2 -1l-2.5 -2.5t-2.5 -3t-1 -2.5l-4 -25l-2 -1.5t-3 -1.5q-2 0 -2.5 2t-0.5 3q0 6 2 11t2 11q0 2 -1.5 2.5t-4.5 0.5h-5
t-8.5 -1t-8 -3t-3.5 -6t0.5 -8t2 -7.5t2 -7.5t0.5 -8v-5q-1 -1 -2 -1h-2q-3 0 -5.5 5t-4.5 11.5t-2.5 13t-0.5 7.5q0 6 2 9.5t5.5 5.5t8.5 3t9 1q5 0 8.5 -1t7.5 -1t6.5 0.5t6.5 4.5zM95 162q10 2 19 4t19 2h5h5q4 -3 6.5 -5t4 -4.5t2 -5.5t0.5 -8t-4.5 -7t-10.5 -3t-11 -2
t-5 -4q0 -1 0.5 -3t1.5 -3l35 -2q1 -1 2 -1.5l1 -0.5q4 -3 6 -5.5t2.5 -5.5t0.5 -6v-8v-10q0 -3 -3.5 -5t-7.5 -3t-8 -1.5t-6 -0.5q-1 0 -3.5 -0.5t-5.5 -0.5t-5.5 -0.5t-3.5 -0.5q-1 -1 -1.5 -3t-0.5 -4v-2t1 -1h3t4 -0.5t3.5 -0.5t2.5 -1l1.5 -0.5t2.5 -1l2 -1t2 -0.5
q4 -1 7 -3t4 -5t1.5 -6.5t0.5 -9.5v-11q-1 -2 -2.5 -2.5t-3.5 -0.5h-1h-1l-2 28q-1 1 -3.5 2t-5.5 1h-5h-4h-2.5h-2.5l-1 -2v-36q0 -2 -1.5 -3.5t-3.5 -1.5q-3 0 -4 2t-1 5q0 6 0.5 11.5t0.5 11.5v3v3v3v2q-1 2 -3 3.5t-4 1.5q-1 0 -4.5 -1t-7 -2.5t-6.5 -3.5t-3 -5v-19
q0 -1 -1.5 -1h-1.5q-3 0 -6 1.5t-3 3.5v2q0 1 0.5 2.5t1 3.5t1 3.5t0.5 2.5q2 7 5 11.5t7 6.5t10 2.5t14 1.5q1 0 1 2v3q0 4 -3.5 6t-8 2t-8.5 -0.5t-6 -0.5t-5 2l-6 4t-5 4.5t-2 5.5v20q0 5 5.5 7.5t12.5 4t14.5 2t10.5 1.5l-5 6l-17 7q-3 1 -4 3.5t-1.5 6t-0.5 6.5v4v0.5
v0.5l1 1zM101 150q0 -2 1.5 -3.5t3.5 -2.5l4 -2t2 -2q1 0 5 -0.5t5 -0.5h7t7.5 0.5t6 2.5t2.5 6t-1.5 6.5t-4 4t-6 1.5h-7.5h-7q-4 0 -8 -0.5t-7 -3t-3 -6.5zM89 105v-2q1 0 4.5 -0.5t7.5 -0.5t7.5 -0.5t5.5 -0.5h2q2 0 3 2t1 4.5v4.5v3h-24q-3 0 -5 -3.5t-2 -6.5zM127 105
v-2q7 -1 12 -1.5t12 -0.5h10q2 1 2.5 2t0.5 3q0 4 -3 6t-7 2.5t-8 0.5h-7q-6 0 -9 -1.5t-3 -8.5zM115 81q3 0 4 2t1 4t-1 4.5t-4 2.5h-24q0 -5 2.5 -7.5t6 -3.5t8 -1.5t7.5 -0.5zM129 85q0 -2 0.5 -3t2.5 -1h1h1q2 0 5.5 0.5t7.5 1t7.5 1t4.5 0.5q3 1 3 2v3v2.5t-1 2.5h-28
q-2 0 -3 -3.5t-1 -5.5z" />
</svg>
