<?xml version="1.0" standalone="no"?>
<!DOCTYPE svg PUBLIC "-//W3C//DTD SVG 1.1//EN" "http://www.w3.org/Graphics/SVG/1.1/DTD/svg11.dtd" >
<svg xmlns="http://www.w3.org/2000/svg" xmlns:xlink="http://www.w3.org/1999/xlink" version="1.1" viewBox="-10 0 266 256">
   <path fill="currentColor"
d="M117 202q2 0 3 1.5t2.5 3t2 3.5l0.5 2q1 1 2.5 3l3 4t2.5 3t1 2q3 3 8.5 7.5t11.5 9t12.5 7.5t10.5 3q2 0 4.5 -0.5t2.5 -3.5q0 -2 -2.5 -4t-5 -3.5t-5.5 -2.5t-5 -2q-1 -1 -3.5 -2l-5 -2t-4 -2l-1.5 -1q-1 -1 -3.5 -3t-4.5 -4t-3.5 -4.5t-1.5 -5.5q0 -4 4 -6.5t9.5 -4
t12.5 -3t12.5 -4.5t9.5 -8t4 -14q0 -7 -2.5 -11.5t-6 -7.5t-9 -5t-10.5 -4q-6 -2 -8 -6t-2 -7t-0.5 -5.5t-3.5 -2.5q-2 0 -3 1.5t-1.5 3t-0.5 3.5v4q0 5 2.5 8t6.5 5t9 3.5t9 4.5t7 7t3 12q0 6 -3 9.5t-8 5.5t-10 3t-9 1q0 -7 1 -14t1 -14q0 -2 -0.5 -5t-3.5 -3q-2 0 -3 3.5
t-1.5 8.5t-1 11t-1.5 11.5t-3.5 9t-6.5 3.5q-3 0 -2.5 -1t-1.5 -4q0 -1 -1 -3l-2 -4t-2 -4.5t-2 -2.5q0 -2 -0.5 -6.5l-1 -9t-2.5 -7.5t-5 -3q-1 0 -1.5 1t-1 2.5t-0.5 3.5v1q1 7 3 13.5t2 13.5h-12.5t-9.5 -2t-6 -6.5t-2 -13.5q0 -7 2 -11t5 -6t7 -2.5t7.5 -1.5t7 -2.5
t6.5 -5.5v-3v-3v-3v-3l-0.5 -1t-1.5 -1h-7l-0.5 2l-1 4t-1.5 4t-2 3q-7 1 -13 3t-10 5t-6.5 9t-2.5 15q0 13 8 21t21 8q4 0 7.5 -0.5t7.5 -0.5zM89 80v0q1 0 1.5 0.5l0.5 0.5v46q0 1 1 1.5t2 0.5q2 0 3.5 -3t1.5 -5v-5v-9v-9v-5v-2.5t0.5 -3.5t0.5 -3.5t1 -2.5h0.5h1.5
q5 0 7 6t3 13t2.5 13t3.5 6t3.5 -1t1.5 -4t-1 -8t-2.5 -10.5t-3.5 -10.5t-4 -7q-1 -1 -3.5 -2t-5 -2.5t-4 -3.5t-1.5 -4q0 -4 2 -6t4.5 -3t5.5 -2t6 -4t4.5 -7.5t1.5 -12.5v-4.5v-4.5l-0.5 -1t-1.5 -2q-1 0 -3.5 1.5t-3.5 3.5v2v3q0 3 1 5t1 5q0 2 -1.5 4.5t-3.5 4.5t-4.5 3
t-4.5 1v0l-0.5 -0.5l-0.5 -0.5v-39q0 -2 -1.5 -2.5t-2.5 -0.5q-2 0 -4 2t-2 4v37q-6 0 -8.5 -2t-4 -5t-1.5 -7t-0.5 -7t-1.5 -5t-4 -2h-4.5t-1.5 4q0 2 0.5 7t2 10t3 8.5t3.5 3.5h15l2 2v3v2q0 7 -2.5 9t-6.5 3.5t-7.5 3t-4.5 7.5q0 1 -0.5 5t-1.5 8t-1.5 7.5t-0.5 5.5
l-0.5 2l-0.5 2v2q0 7 5 7q3 0 4 -2.5t1.5 -5t0 -5.5t0.5 -5q0 -1 0.5 -4l1 -6t1.5 -6t1 -4q1 -1 3.5 -4.5t5.5 -3.5zM141 66v10v7t0.5 8t2.5 9q0 1 0.5 2.5t2 3.5t2.5 3t3 1h25q3 0 5.5 -2t4 -4.5t2 -6t0.5 -6.5v-3.5v-3.5v-13.5t-0.5 -16.5t-0.5 -13.5v-5.5l-6 -5
l-2.5 -0.5t-3.5 -0.5h-9q-4 0 -9 1t-9.5 2.5t-6.5 5.5q-1 7 -1 14v14zM151 91q0 -2 2 -3t5.5 -1.5t6.5 0l3 0.5h10q1 1 1.5 3t0.5 4q0 3 -2 6t-5 3h-17q-2 0 -3 -1.5t-1.5 -3.5t-0.5 -4v-3zM148 75q0 -1 -0.5 -3t0 -4t1 -3.5t2.5 -1.5q5 -1 11 -2.5t12 -1.5q5 0 6 2t1 9
q0 1 -1 4.5t-2 5.5h-4.5t-6.5 0.5t-6.5 0.5h-4.5h-3q-3 0 -4 -1.5t-1 -4.5zM148 48q0 -4 2 -6t4.5 -3.5t6 -2t5.5 -0.5q1 0 4 0.5t4 0.5q3 1 4.5 5t1.5 7t-2.5 4t-6 1h-7h-5.5h-10q-1 -1 -1 -3v-3z" />
</svg>
