<?xml version="1.0" standalone="no"?>
<!DOCTYPE svg PUBLIC "-//W3C//DTD SVG 1.1//EN" "http://www.w3.org/Graphics/SVG/1.1/DTD/svg11.dtd" >
<svg xmlns="http://www.w3.org/2000/svg" xmlns:xlink="http://www.w3.org/1999/xlink" version="1.1" viewBox="-10 0 266 256">
   <path fill="currentColor"
d="M48 155q0 1 1 3.5t2 3.5q1 2 3.5 2.5l5 1t5 1.5t2.5 3v84q2 0 3.5 -1.5t2.5 -3.5t1 -4.5v-5.5v-43q2 -2 4 -3t4.5 -2.5t4.5 -3t3 -4.5l0.5 -1t1 -2.5l1 -3l0.5 -1.5q3 -3 7.5 -5.5t7.5 -4.5q2 -1 3.5 -5t2.5 -8.5l2 -9t1 -6.5q0 -4 0.5 -13t0.5 -19.5t0.5 -19.5t0.5 -13
v-1q0 -6 -1.5 -10.5t-4 -8.5t-6 -7t-7.5 -7v-22l-0.5 -0.5l-1.5 -1.5v0h-1q-1 1 -2.5 2t-1.5 2v23q0 2 2 4t4 4.5t4 4.5l3 3q3 4 3 10v10q0 1 0.5 5.5t0.5 9.5t0.5 9.5t0.5 5.5v1v0q0 4 -0.5 9t-0.5 10t-0.5 9l-0.5 4q0 2 -0.5 4t-1.5 4t-2.5 3.5t-3.5 1.5t-3 -0.5t-1 -2.5
v-2.5t0.5 -3.5t0.5 -3.5v-2.5v-9q0 -14 -0.5 -29t-2.5 -30q0 -1 -1 -1h-2h-2q-1 4 -1 7v8q0 13 0.5 26t0.5 27v24q0 1 -0.5 3.5t-0.5 3.5q-1 1 -1.5 3.5t-1.5 5t-1.5 4.5l-0.5 2h-5l-1 -1.5t-1.5 -3t-1.5 -3t-1 -2.5v-4v-4q0 -18 2 -35.5t2 -34.5v-23q-1 -1 -2 -3t-2 -2
q-2 0 -3.5 1.5t-1.5 3.5q0 1 0.5 1.5l0.5 0.5v1t0.5 2t0.5 2v1v1v1q0 1 -0.5 6.5l-1 11l-1 11t-0.5 6.5v21v4t-0.5 6t-0.5 6v4h-2q-4 0 -6.5 -3.5t-3.5 -9.5t-1.5 -13t-1 -13.5t-0.5 -12.5v-7v-2v-7t0.5 -9t1.5 -9.5t3 -7.5q2 -2 5 -4.5l6 -5t5.5 -5.5t2.5 -6q0 -1 0.5 -3.5
t0.5 -5.5t0.5 -6.5t0.5 -4.5v-3q0 -2 -1 -4.5t-4 -2.5q-1 0 -2.5 1t-2.5 2v3.5v5.5v5.5v3.5q0 6 -3 9.5t-6 6.5t-6.5 6t-4.5 8q-4 10 -4 20.5v21.5v13t0.5 12l1 12t2.5 13zM117 247q1 1 2 1.5l1 0.5h1q2 0 3.5 -2.5t2.5 -4.5q0 -3 1 -10t1.5 -15t1 -15.5t1.5 -10.5v-2v-5v-5
v-2v-7.5t0.5 -8.5t0.5 -7.5v-3.5l3 -3h3.5h5.5h5.5h3.5q2 0 9 -1t14.5 -2t13.5 -2t7 -2q2 -2 2.5 -6.5t0.5 -7.5v-10.5t-0.5 -8.5t-3 -7.5t-7.5 -5.5h-13q-11 0 -18 0.5t-12 2.5t-8 7.5t-6 16.5q-4 15 -5.5 30t-3.5 31q-1 3 -2 11t-2 17t-1.5 17t-1.5 10v5v5zM147 185
q0 8 3.5 12.5t8.5 6t11.5 1.5h13.5q6 0 10.5 -0.5t9.5 -4.5q1 -1 1.5 -2t0.5 -2v-2t0.5 -4t0.5 -4.5v-3.5v-1q0 -7 -1.5 -11t-4.5 -6.5t-7 -3t-10 -0.5h-4.5h-3.5q-1 0 -4 0.5l-6 1l-6 1t-5 0.5q-3 1 -4.5 3.5t-2.5 5.5t-1 7v6zM155 179v-3v-3l2 -1q4 0 7 -0.5l6 -1
t5.5 -1.5t6.5 -1q7 0 10.5 3.5t3.5 11.5q0 3 -1 6t-3 4q-1 0 -3 0.5t-4 0.5t-3.5 0.5t-2.5 0.5h-2q-6 0 -10 -0.5t-7 -2t-4 -4.5t-1 -9zM138 133q0 -5 3 -7q6 -1 10.5 -1.5t9 -0.5h8.5h9h12q1 0 1.5 1.5t0.5 2.5q0 4 -2 6t-4.5 3t-5.5 1.5t-6 0.5h-3.5t-8 0.5t-8.5 0.5h-7
l-0.5 0.5t-1.5 0.5q-2 0 -4.5 -2.5t-2.5 -5.5zM144 112q0 -4 4.5 -6.5t10.5 -3.5t12 -1h8h3h3q2 1 4.5 4t2.5 6t-3 5q-8 1 -14.5 1h-13.5h-14q-2 1 -2.5 -1.5t-0.5 -3.5zM168 36q4 0 7.5 4t7 10t7 13l6.5 13t6.5 9.5t6.5 3.5q2 0 3.5 -2t1.5 -4q0 -5 -2 -7l-5 -5
q-1 -2 -4.5 -7t-7.5 -11.5t-8.5 -13.5t-8 -12.5t-6.5 -9.5t-4 -4q-2 0 -4.5 3.5t-4.5 7.5l-4 8t-4 6l-1.5 1.5l-0.5 0.5q-1 0 -1.5 2t-1.5 4.5t-2 4.5l-1 2q-1 2 -3.5 5.5t-5 7.5t-4.5 8t-3 5q0 1 -0.5 1.5l-0.5 0.5q0 2 1.5 3t3.5 1q1 0 2.5 -1.5t2.5 -3.5l2 -4t2 -3
q0 -1 1 -3t2.5 -4t2.5 -4t1 -3q1 0 3 -2.5t4.5 -6l5 -7t3.5 -5t2 -2t3 -0.5zM147 73q0 2 1.5 4.5t5.5 1.5h11q3 0 6.5 0.5t7 0t6.5 -1t5 -2.5l-3 -3h-40z" />
</svg>
