<?xml version="1.0" standalone="no"?>
<!DOCTYPE svg PUBLIC "-//W3C//DTD SVG 1.1//EN" "http://www.w3.org/Graphics/SVG/1.1/DTD/svg11.dtd" >
<svg xmlns="http://www.w3.org/2000/svg" xmlns:xlink="http://www.w3.org/1999/xlink" version="1.1" viewBox="-10 0 266 256">
   <path fill="currentColor"
d="M66 213v9t0.5 12t1.5 11t5 5t5 -3.5t1 -7.5q0 -10 -1 -20t-1 -20v-9q1 -3 2.5 -4.5l3.5 -3.5q5 -6 7 -12.5t3 -13.5q9 -8 13 -15t5.5 -14t1 -15.5t-0.5 -20.5v-18q0 -5 -2.5 -9.5l-5 -9t-4.5 -9t-2 -9.5v-7l0.5 -3l0.5 -3v-3q0 -2 -0.5 -4t-1.5 -3.5t-3 -1.5q-1 0 -2 0.5
t-2 2.5q0 1 -0.5 3t-0.5 4t-0.5 4l-0.5 2v3v2q0 2 0.5 5.5l1 7l1 7l0.5 3.5q1 4 4.5 7t5.5 6q3 6 4 15t1 16v1q-1 0 -1.5 2t-0.5 3q0 2 0.5 8t0 11.5t-2 10t-6.5 4.5q-1 0 -3 -0.5t-2 -2.5v-59q0 -2 -1.5 -3.5t-3.5 -1.5h-1.5t-1.5 1v3v4v5v3q0 13 1 26t1 26v1q0 1 -0.5 5
l-1 8l-1 8t-0.5 5l-2 2t-1 2h-1q-1 0 -1.5 -1.5t-1.5 -3t-1 -2.5v-2q0 -22 -1.5 -43t-0.5 -44q0 -2 -1.5 -2h-2.5h-1.5h-0.5l-2 9v61q-2 0 -2.5 0.5t-1.5 0.5l-0.5 -0.5t-1.5 -2.5t-1.5 -6t-1.5 -9t-1.5 -9t-0.5 -6v-1v-3v-3v-3q0 -10 1.5 -18.5t4.5 -18.5q3 -3 6 -6.5
t5 -6.5q0 -2 0.5 -5t0.5 -7t0.5 -7t0.5 -5l0.5 -1t0.5 -2t0.5 -2l0.5 -1v-1q0 -2 -2 -4.5t-4 -2.5q-7 0 -7 6q0 3 1 6t1 6q0 5 -1 8.5t-2.5 7t-3.5 7t-5 7.5q-2 4 -3.5 9.5t-2.5 11t-1.5 11t-0.5 10.5q0 10 2 21.5t5 21.5q0 3 3 4.5t5.5 3l5 3t2.5 4.5v52zM111 216
q-2 1 -2.5 3.5t-0.5 3.5h100q3 0 3.5 -1t0.5 -4v-2q0 -3 -2 -3h-29l-2 -3q1 -10 0.5 -20t-1.5 -19q1 -6 4.5 -7.5t7.5 -2.5t7 -3.5t3 -10.5q0 -10 -3.5 -14.5t-12.5 -6.5h-17h-13t-12.5 1.5t-9.5 5.5t-4 13q0 8 3 11.5t6 4.5l6 2t3 5v43l-2 1.5t-3 1.5h-3h-3h-4h-3h-3.5
t-5.5 0.5t-5 0.5h-3zM155 212q0 -5 -0.5 -9t-0.5 -7.5v-6.5v-9v-13q1 0 4 -1t4 -1l2.5 1t3.5 1l1.5 1.5l0.5 0.5v43l-1.5 0.5t-2 0.5t-2.5 1l-2 1h-1q-2 0 -3.5 -1t-2.5 -2zM139 143q0 -3 1.5 -5t4 -3.5t5.5 -1.5h5t5 -0.5t6 -0.5t6 0.5t4 0.5l3 -2l1.5 1.5l3.5 3.5l3.5 3.5
t1.5 3.5v3q0 2 -1 4t-3 3.5t-4.5 2.5t-4.5 1h-27q-3 0 -5 -1.5t-3 -3.5t-1.5 -4t-0.5 -5zM125 106q0 3 1.5 3.5t3.5 0.5q18 0 37 -2t36 -3q3 0 3.5 -1.5t0.5 -2.5q0 -4 -1.5 -4.5t-5.5 -0.5q-5 0 -10 1t-10 1h-4t-4.5 -0.5t-4 -2t-1.5 -4.5v-2l1 -1q2 -3 8 -7t11.5 -7.5
t9.5 -7t4 -5.5q0 -4 -4 -4q-5 0 -8.5 3t-7.5 6.5t-8.5 7t-8.5 3.5t-6 -3t-2 -6q0 -4 6 -9t13.5 -9.5t14.5 -9t8 -8.5l-0.5 -1.5l-0.5 -1.5h-2h-3q-2 0 -5 1.5t-6 4t-5.5 5l-4.5 4.5q-1 1 -3.5 3t-5.5 4.5t-5.5 4.5t-3.5 3h-1q-3 0 -4 -1.5t-1 -3.5v-4v-3q0 -6 3.5 -9t8 -6
t8.5 -6t4 -8q0 -4 -4 -4q-5 0 -8.5 4t-6.5 8l-7.5 6t-4.5 4.5t-3 6t-1 9.5q0 3 3.5 8t8 11.5t8.5 12.5t4 12l-0.5 2t-1.5 2h-29q-2 0 -2.5 2.5t-0.5 3.5z" />
</svg>
