<?xml version="1.0" standalone="no"?>
<!DOCTYPE svg PUBLIC "-//W3C//DTD SVG 1.1//EN" "http://www.w3.org/Graphics/SVG/1.1/DTD/svg11.dtd" >
<svg xmlns="http://www.w3.org/2000/svg" xmlns:xlink="http://www.w3.org/1999/xlink" version="1.1" viewBox="-10 0 266 256">
   <path fill="currentColor"
d="M148 245q0 3 1.5 4t3.5 1q3 0 6 -3t3 -6v-1q0 -1 -0.5 -6.5t-0.5 -11.5t-0.5 -11.5t-0.5 -6.5v-7v-7q5 -3 7 -4t6 -1q5 0 7 5t2.5 12t0.5 15.5v15.5t1 12t4 5q2 0 3 -0.5t2 -1.5v-9q0 -11 -1.5 -21.5t-1.5 -21.5v-2t0.5 -4t2 -3.5t2.5 -1.5h12q1 0 1.5 -2t0.5 -3
l-0.5 -1.5t-1.5 -1.5h-57q-5 0 -8.5 -3.5t-3.5 -8.5v-86q0 -1 -1.5 -1h-1.5h-3q-2 8 -2 17v18v18t-1 18v1v2v7t1 8.5t2 8.5t3 6t4.5 2h4.5t4.5 0.5t2.5 2.5v4v5v6v3q0 10 -1.5 20.5t-1.5 19.5zM65 240v2q1 0 3 2.5t3 3.5h1q2 0 3 -1t2 -3t1.5 -4t0.5 -3q0 -4 -0.5 -8.5
t-0.5 -8.5v-2v-1t0.5 -2.5t0.5 -2.5v-2l-0.5 -3.5t-0.5 -4.5v-4q0 -3 1 -4.5t3 -2.5t4.5 -2t3.5 -4q2 -2 3 -6.5l2 -9t2 -8t3 -4.5l1 -1t2.5 -1.5t2.5 -1t2 -1.5q4 -3 6 -9t3 -13t0.5 -13.5t-0.5 -11.5v-16t-1 -15.5t-3.5 -14.5t-8.5 -13v-28q0 -4 -1 -4.5t-3 -0.5
q-1 0 -3.5 0.5t-1.5 2.5v14v4v7t0.5 7t1.5 5l1 1.5t2.5 3t2.5 3t1 2.5q1 1 2 4.5t2 5.5v7t0.5 11t0.5 11v7v3v6q0 5 -1 11t-2.5 11.5t-4.5 5.5q-2 0 -2.5 -1.5l-1 -3t-0.5 -3v-2.5q0 -4 0.5 -7t0.5 -6v-4v-10t-0.5 -15t-0.5 -15v-10q0 -2 -1 -2.5t-3 -0.5l-1.5 0.5t-1.5 1.5
v89v5.5t-1 7t-3 5.5t-5 2q-2 0 -3 -1t0 -4v-21q0 -17 1.5 -33t1.5 -33v-17l-1.5 -1.5t-1.5 -0.5q-2 0 -3.5 1.5t-2 4t-1 4.5t-0.5 3v7v10v11v6v5.5v9.5t-0.5 9.5t-0.5 6.5q0 1 -1 1.5t-2 0.5q-2 0 -3.5 -2t-2.5 -4.5t-1.5 -5t-0.5 -3.5v-4v-5v-5v-4v-18q0 -8 1.5 -13.5
t5 -11.5t10.5 -14q3 -3 4.5 -8t2.5 -10t1 -10v-9t-2 -5t-5 -1h-3t-3 2q0 2 0.5 6t0.5 9q0 4 -0.5 8.5t-1.5 7.5q-8 9 -12.5 17.5t-6.5 17t-2.5 18t-0.5 21.5v9q0 3 0.5 6.5t1.5 7t3 8.5q3 4 7 5.5t8 3.5v15q0 17 -1.5 33t-1.5 32zM154 162q7 1 11.5 1.5t10.5 0.5
q4 0 8.5 -0.5t7.5 -2.5t5.5 -5t3.5 -9v-20v-19t-2 -19q-4 -5 -10 -7.5t-12 -2.5q-11 0 -17 3t-9 8.5t-3 14v19.5v7.5v6.5t0.5 7t1.5 9q0 1 1 4t3 4zM157 147q0 -3 3 -5t7 -2.5t7 -0.5h5h3t3.5 1l3 2t1.5 2q0 5 -1.5 7t-4.5 3.5t-6 2t-6 0.5h-4.5t-5 -1.5t-4 -3t-1.5 -5.5z
M156 119v-2q0 -1 2 -2.5l2 -1.5h30l3 3v13l-3 3h-31q-2 0 -2.5 -1.5t-0.5 -3.5v-5v-3zM157 99q0 -4 2 -6t4.5 -3t5.5 -1h6h5h5q3 2 4 4.5t1 6.5q0 2 -0.5 3t-4.5 1h-26q-2 0 -2 -2v-3zM135 29v3v3l1 2t1 3q1 10 2 15.5t3.5 8t8 2.5h15.5q3 0 8.5 0.5t12 -0.5t11 -2t4.5 -5
q0 -2 -1.5 -2.5t-3.5 -0.5q-8 0 -16 1t-16 1h-3h-4h-4h-3q-4 -2 -4.5 -3.5t-0.5 -4.5v-1.5v-2.5t0.5 -2t1.5 -1q4 0 12 -0.5t16 -1.5t14 -3t6 -4q0 -3 -1 -3.5t-4 -0.5q-10 0 -20 1.5t-20 1.5h-5q-1 -2 -1 -4t-0.5 -3.5t-1.5 -3t-3 -1.5t-3 0.5t-2 1.5v3v3z" />
</svg>
