<?xml version="1.0" standalone="no"?>
<!DOCTYPE svg PUBLIC "-//W3C//DTD SVG 1.1//EN" "http://www.w3.org/Graphics/SVG/1.1/DTD/svg11.dtd" >
<svg xmlns="http://www.w3.org/2000/svg" xmlns:xlink="http://www.w3.org/1999/xlink" version="1.1" viewBox="-10 0 266 256">
   <path fill="currentColor"
d="M161 233q0 2 0.5 5t1.5 6t2.5 5t4.5 2v0q2 0 3 -1.5l1 -1.5v-31q0 -2 2.5 -6t3.5 -5q0 -1 2.5 -3l5 -4t4.5 -4t2 -3q5 -7 8 -15t3 -17q0 -10 -1.5 -16.5t-4.5 -10t-7 -5.5t-8.5 -4.5t-9 -5.5t-8.5 -10l-1 -1t-1.5 -2t-1.5 -2l-1 -1v-5.5t-0.5 -6.5t-2 -5.5t-4.5 -2.5h-18
q-2 0 -3.5 1.5t-2.5 3.5t-1.5 4t-0.5 4q0 7 5 11t12 4q3 0 6 -1t6 -1q2 0 2.5 1.5t0.5 3.5q0 1 -2.5 2.5t-6 3t-7.5 3.5t-8 6t-6 10t-2 15q-1 1 -2.5 2t-3.5 1.5t-3.5 1.5t-1.5 2q0 2 1.5 3t3.5 1h2q11 -6 22.5 -10.5t23.5 -8.5q2 0 2.5 -1t0.5 -2v-2v-2q-5 0 -9.5 1.5
t-8.5 3.5l-8 4t-7 2q-2 0 -2.5 -1.5t-0.5 -2.5q0 -6 2.5 -10.5t6 -7t8.5 -3.5t10 -1q8 0 14 3.5t10 8.5t6 11.5t2 12.5v5.5v4.5q-1 0 -1.5 1t-0.5 2l-0.5 1.5l-1 3l-1 3l-0.5 1.5q-4 7 -9 13t-10 11.5t-8 12t-3 15.5zM75 242q0 1 2 2.5t3 2.5q1 0 2 -1.5t1.5 -3.5t0.5 -4v-3
q0 -8 -0.5 -16t-0.5 -17v-2l1 -1.5t2.5 -2.5t2.5 -2.5t2 -1.5q2 -2 3 -5t1.5 -6t1.5 -6t3 -5q4 -4 7.5 -7t6 -6t4 -7.5t1.5 -10.5v-73q0 -3 -2.5 -5t-5 -4.5l-5 -5t-2.5 -5.5v-31q0 -1 -1 -2l-2 -2v0h-1q0 1 -0.5 1.5t-1.5 0.5q-1 7 -1 12v11q0 10 2.5 16t6 10.5t6 10.5
t2.5 15v2.5v1.5q0 1 -0.5 2t-0.5 2v1.5v1.5q-1 2 -0.5 7t0.5 12q0 6 -0.5 13t-1.5 13t-3 10t-5 4h-1.5t-1.5 -2v-76q-2 -1 -2 -2.5v-3.5t-0.5 -4t-3.5 -2v97q0 2 -0.5 5t-1.5 6.5t-3 6.5t-4 3h-1q0 -1 -1.5 -2.5t-1.5 -2.5v-34q0 -17 1 -33.5t1 -33.5v-3t-0.5 -3.5t-1.5 -3
t-2 -1.5q-2 0 -3 2t-1 3q1 20 -0.5 40t-1.5 41q0 1 -1 3.5t-3 2.5t-4.5 -3t-3.5 -6.5t-1.5 -7t-0.5 -5.5v-50q0 -7 3.5 -13.5t7.5 -12t7.5 -10t3.5 -7.5v-25q0 -2 -2.5 -4.5t-4.5 -2.5l-0.5 0.5l-0.5 0.5l-0.5 0.5l-0.5 0.5v28q0 4 -2.5 7t-5.5 5.5l-6 5t-3 6.5l-5 20v2
q0 3 -0.5 6t-0.5 6v5v7q0 4 0.5 8.5t0.5 7.5v4q0 4 0.5 8.5t1.5 8.5t2.5 8t4.5 6q1 2 3.5 2.5l5 1t4 1t1.5 2.5v46q1 1 1.5 3l0.5 2v19zM178 179q-5 0 -12.5 3t-15 7.5t-15 10.5t-13.5 12.5t-9.5 13t-3.5 11.5q4 0 7 -2t5.5 -5.5l5 -7t4.5 -5.5l3.5 -3.5t5.5 -5t5.5 -5
l3.5 -3.5q7 -7 15 -9t16 -5l1.5 -1.5t0.5 -1.5q0 -2 -1 -3t-3 -1zM115 184q0 1 0.5 2t1.5 1q6 0 11.5 -2t11 -5.5t11 -6.5t10.5 -4q1 0 3 -0.5t4 -1.5t4.5 -1t2.5 -1q3 -1 3.5 -3t0.5 -5q-5 0 -12 2.5t-12 4.5q-2 1 -7.5 3.5t-11.5 5t-11.5 5t-7.5 3.5l-1.5 1.5t-0.5 1.5z
M186 77q-1 0 -3 0.5t-4.5 1t-4.5 2t-2 2.5v17l1 1l2.5 2.5l2.5 2.5l2 2q2 1 4 1.5t4 0.5q3 0 6.5 -1t6.5 -3t4.5 -4.5t1.5 -6.5q0 -9 -6.5 -13.5t-14.5 -4.5zM134 94q0 -5 4 -6.5t8 -1.5q5 0 7 3.5t2 7.5t-3 6t-7 2t-7.5 -3.5t-3.5 -7.5zM177 91q0 -2 3 -5t5 -3q5 -1 8.5 3
t3.5 9t-2.5 6t-6.5 1q-11 0 -11 -11zM137 50q0 11 7 16t18 5q4 0 9 -1t9 -3.5t7 -6t3 -9.5q0 -7 -3 -11t-7 -5.5t-9.5 -2t-10.5 -0.5h-11q-5 4 -8.5 7.5t-3.5 10.5zM145 51q0 -4 2 -6.5t4.5 -4t6 -2t6.5 -0.5q6 0 11 3.5t5 9.5q0 4 -2 6.5t-4.5 3.5t-6 1.5t-6.5 0.5
q-6 0 -11 -2t-5 -10z" />
</svg>
