<?xml version="1.0" standalone="no"?>
<!DOCTYPE svg PUBLIC "-//W3C//DTD SVG 1.1//EN" "http://www.w3.org/Graphics/SVG/1.1/DTD/svg11.dtd" >
<svg xmlns="http://www.w3.org/2000/svg" xmlns:xlink="http://www.w3.org/1999/xlink" version="1.1" viewBox="-10 0 266 256">
   <path fill="currentColor"
d="M181 246q2 2 4 2.5t4 0.5h2l-1 -28v-5q0 -2 -0.5 -9.5t-1.5 -16t-2 -16t-1 -10.5q-1 -5 -5 -8t-7.5 -5.5t-6.5 -5.5t-3 -9q0 -1 1.5 -6t4 -10t5 -9.5t3.5 -4.5h1q2 2 2.5 3.5t1 3.5t0 3.5t-0.5 4.5q1 7 3 12t5.5 8.5t8.5 6.5t11 6h0.5h0.5q2 0 3 -2.5t1 -4.5t-4 -4
t-8.5 -5t-8.5 -8t-4 -14q0 -4 2.5 -5t4.5 -1t4.5 -1t2.5 -5q0 -3 -4 -5q-3 0 -7.5 -0.5t-8.5 -1t-7.5 -2.5t-5.5 -5q-1 -2 -1.5 -2.5t-0.5 -1t-0.5 -1.5t-2.5 -2t-4 -1t-3 -2q0 -1 -0.5 -2.5t-1 -2.5l-1 -2l-0.5 -1v-2.5t0.5 -3.5t1 -3.5t0.5 -2.5v-3v-3q0 -5 -3 -9.5
t-8 -6.5v-17q-6 0 -8 3t-2 6.5t-0.5 7.5t-3.5 5q-1 1 -3 1.5l-2 0.5q-1 1 -2 1.5t-2 2t-1.5 2.5t-1.5 1q-1 4 -2 9.5t-1 11.5v11.5v9.5q0 10 3 15.5t14 6.5q1 2 1 4v5q0 6 -3 9t-6.5 4.5l-7 3t-4.5 4.5q-3 7 -4 16t-1 16q0 8 1 16t2 15.5t2.5 15t2.5 14.5q1 3 2.5 3.5
t3.5 0.5q3 0 5 -2.5t2 -5.5v0q0 -1 -1.5 -4l-1.5 -3q0 -1 -0.5 -2.5t-1 -3.5l-1 -4t-0.5 -3q-5 -23 -5 -45v-6t0.5 -8t2 -7.5t4.5 -3.5q1 0 1 1l0.5 0.5t1.5 0.5q0 2 1 5t1.5 6.5l1 7t1.5 4.5v3.5t0.5 5.5t0.5 6v3q2 14 6 27.5t7 27.5q1 1 2 1.5t2 0.5q2 0 3.5 -2.5
t1.5 -4.5q0 -5 -1.5 -9.5l-3 -9l-3 -9t-2.5 -8.5q-4 -14 -6.5 -28.5t-2.5 -28.5q0 -3 0.5 -3.5t1.5 -4.5q1 -2 1.5 -5t0.5 -6t1 -5.5t2 -4.5l1 -1.5t2.5 -3t2 -2.5t1.5 -1q0 -2 1 -4.5t1 -5t0.5 -4.5t0.5 -3h2q3 0 4.5 1.5t2.5 3.5t1 4.5v4.5q0 5 -2 9l-4 8l-4 8t-2 9
q0 1 0.5 2.5t1.5 2.5l18 18q2 2 3 6t1.5 8.5t0.5 8.5v7v2.5t0.5 5.5t0.5 5v3v4v7v7v3q0 1 0.5 3.5l1 5t0.5 5v3.5zM56 246l3 1.5t2 0.5h2q1 -1 2.5 -1.5l1.5 -0.5v-49q0 -4 1.5 -6.5t4 -5l5 -5t3.5 -5.5q0 -1 1 -3.5t2 -5.5t2 -5.5t1 -3.5q1 -2 4 -4t5.5 -4.5t4.5 -5.5t3 -6
q2 -15 2 -31v-31v-20q-3 -4 -4.5 -6.5l-3 -5t-2 -5t-0.5 -6.5t1 -7.5t1 -7.5q0 -2 -1 -3.5t-4 -1.5h-1l-3 3l-2 2v23q0 2 1.5 4.5l3 5t3.5 5t2 3.5v18v18v5.5t-0.5 9t-0.5 8.5v5v5.5v7t-1 5.5t-4 2h-2v-2t-0.5 -4t-1 -3.5l-0.5 -1.5v-1v-1q1 -4 1 -11t0.5 -13.5t0.5 -11.5
v-5l0.5 -2t0.5 -4t0.5 -3.5t0.5 -2.5v0v-1q-1 -1 -1.5 -4t-2.5 -3h-1q0 1 -1.5 2t-1.5 2v13q-1 4 -1 14t-1 21.5t-1 22t-1 14.5q0 1 -0.5 3.5t-2 5.5t-3 5.5t-3.5 2.5t-2 -2.5v-3.5q0 -24 2.5 -46.5t2.5 -45.5v-6q-1 -2 -2 -2h-2q-2 0 -2.5 0.5t-1.5 3.5t-1.5 11.5t-1 17.5
t-1 17.5t-0.5 12.5v3t-0.5 4.5t-1 4t-2.5 1.5t-3 -3t-1.5 -6.5l-1 -7t-0.5 -5.5v-1v-3v-4v-3v-9t0.5 -10.5t1.5 -11t2 -8.5q2 -8 5 -13t6 -9.5t5 -10t2 -14.5v-2v-3v-4v-2q0 -3 -1.5 -3h-2.5q-2 0 -4.5 1t-2.5 3v25q0 1 -1 2t-2 1q-4 5 -7.5 10t-5.5 12q-3 10 -3 19.5v20.5
v7v8v7v4l0.5 2t0.5 4t0.5 3.5l0.5 1.5q1 4 3.5 7l5 6t4.5 6t2 7q0 13 -2 26t-2 27v5v8v7v5zM124 92v-4t1 -3q1 0 3.5 -0.5l5 -1t5 -0.5h3.5l2 0.5t3 1.5v4v4v5t-1 5.5t-2.5 4.5t-5.5 2q-8 0 -11 -5t-3 -13zM166 56q0 6 3 10.5t7.5 7.5t9.5 4.5t11 1.5q2 0 2 -2v-3
q0 -3 -2 -4.5t-5 -2t-6 -0.5h-5q-2 -1 -3 -3.5t-2 -5.5t-2.5 -5t-4.5 -2t-3 4zM127 70v-6.5t1.5 -7t3.5 -6t6 -2.5q3 0 6.5 1t3.5 4v23h-18l-3 -1v-2v-3zM166 27q0 5 3 9t7.5 7t9.5 5t9 2q3 0 5.5 -1t2.5 -4q0 -2 -2 -3.5t-4.5 -2.5t-5.5 -1.5t-5 -0.5q-5 -2 -7.5 -4.5
t-3.5 -6t-1.5 -5.5t-1.5 -2q-4 0 -5 3t-1 5z" />
</svg>
