<?xml version="1.0" standalone="no"?>
<!DOCTYPE svg PUBLIC "-//W3C//DTD SVG 1.1//EN" "http://www.w3.org/Graphics/SVG/1.1/DTD/svg11.dtd" >
<svg xmlns="http://www.w3.org/2000/svg" xmlns:xlink="http://www.w3.org/1999/xlink" version="1.1" viewBox="-10 0 266 256">
   <path fill="currentColor"
d="M65 247q1 1 1 1.5t1 0.5l1.5 0.5l1.5 0.5l8 -5v-45q4 -4 7.5 -9l7 -10t6.5 -10.5t7 -9.5q5 -12 6 -23.5t1 -23.5v-14q0 -2 -0.5 -6.5t-1 -10t-1 -10t-0.5 -6.5q0 -4 -2 -6l-4.5 -4.5t-4 -6t-1.5 -10.5v-2.5v-5t0.5 -5l0.5 -2.5v-3q0 -1 -0.5 -3t-2.5 -2t-3.5 0.5
t-1.5 2.5v35q0 3 2 5.5t4 4.5t4 4.5t2 5.5q2 12 2 25v24v21q0 1 -1 3.5t-2 4.5t-2.5 4t-2.5 2h-1l-2 -1v-10q0 -5 1 -9.5t1 -9.5v-5q0 -2 -0.5 -8.5l-1 -13t-1 -12.5t-0.5 -8q-2 -4 -5 -4t-3 4v1q1 1 1 4.5t1 4.5v5.5v8.5v8v5v17v16.5t-1.5 16.5t-4.5 16q-1 0 -1.5 0.5
l-0.5 0.5h-1v0v0q-1 0 -1.5 -1t-0.5 -2t-0.5 -4.5t-0.5 -7.5t-0.5 -7.5t-0.5 -4.5v-15v-24v-23v-15q0 -2 -1 -4t-2 -2q-2 0 -3 2t-1 4v72q0 2 -2 2h-2q-2 0 -3.5 -2.5t-2.5 -6t-1.5 -6.5t-0.5 -5v-41l0.5 -3l1 -6l1 -6t1.5 -5q1 -3 3 -5.5l4 -5l4 -5t3 -5.5v-6t0.5 -8.5
t0.5 -9v-5.5v-1q0 -3 -2 -4t-5 -1q-2 0 -4 2t-2 4q0 4 1.5 7.5t1.5 7.5q0 5 -1.5 8.5t-3 6.5t-3.5 6.5t-5 7.5q-5 11 -5.5 23t-0.5 24v4v5.5v6.5v4q1 1 1 2.5t0.5 3.5l1 4l0.5 2q0 1 0.5 2.5t0.5 4t0.5 4t0.5 2.5q2 5 5 7t5.5 3.5t4.5 4t2 9.5q0 10 -1 20.5t-1 21.5v4v6v6v4
zM151 238q-1 3 0.5 3.5t2.5 0.5q2 0 3.5 -0.5t2.5 -1.5v-10v-7t-2 -8q0 -2 -0.5 -9t-1 -15t-0.5 -14.5v-9.5v-3q0 -6 -0.5 -12.5t2.5 -12.5q2 0 5 -0.5t6.5 -1t6.5 -1t4 -0.5h2q2 0 3 1.5t1 3.5q0 4 -0.5 8t-0.5 8q0 2 0.5 8.5t2 15t3 18t3.5 18t4 13.5t4 5h1l1.5 -0.5
l1.5 -0.5v-6q0 -11 -3.5 -21.5t-7.5 -20.5q-2 -7 -2.5 -14.5t-0.5 -14.5v-5q0 -1 1.5 -2.5l1.5 -1.5q3 0 4.5 2l3 4t3 3.5t4.5 1.5t4 -0.5t1 -3.5q0 -5 -3 -7.5t-7 -4.5t-7 -4t-3 -7q0 -4 2 -8.5t5 -9t5 -9t2 -8.5q0 -2 -1.5 -3.5t-3.5 -1.5q-3 0 -5 4t-3 9.5t-2.5 9.5
t-2.5 4h-2q-2 0 -4 -5.5t-4 -12.5t-3 -14t-1 -8v-5q0 -2 5 -2h11q5 0 10 -1t5 -5q0 -3 -1 -4t-5 -1q-5 0 -10 1t-10 1h-3h-4q-1 -1 -2 -3t-1 -4q0 -4 2.5 -5t5.5 -1h7t7 -2t5 -6.5t2 -14.5q0 -2 -1 -4.5t-4 -2.5h-1q0 1 -1 2t-2 1v6t-1 6t-2.5 5t-5.5 2q-3 0 -6 -1.5
t-3 -5.5t0.5 -8t0.5 -8q0 -3 -1 -4.5t-4 -1.5q-4 0 -4.5 3t-0.5 6q0 10 0.5 20.5t0.5 21.5v2t-1 1q-7 2 -12 2h-12h-7l-1 -2v-13q0 -3 -2.5 -4t-4.5 -1q-3 0 -3.5 1.5t-0.5 3.5q0 11 1.5 21t1.5 21q0 15 -1 30.5t-4 31.5q-1 6 -3.5 12.5t-2.5 13.5t2.5 8.5t5.5 2t5.5 1
t2.5 5.5t-1.5 10t-2.5 10t-2 9.5t-1 9.5q6 0 7.5 -1.5t3.5 -6.5q1 -8 2.5 -17t2.5 -18.5l2 -19t1 -17.5q0 -4 -2.5 -4.5t-4.5 -0.5q0 1 -0.5 4t-0.5 6.5v6.5v4q0 6 -1 8t-6 2h-4t-1 -3q0 -4 0.5 -9.5t1.5 -10.5l2 -10t2 -9l1 -2h2t4 -0.5t4.5 -0.5h3.5h2h1.5t1.5 1v4.5
t0.5 7t0.5 7v4.5v1v1l-0.5 2.5t-0.5 3.5l0.5 2l0.5 2q1 14 1.5 30.5t0.5 30.5zM166 165q0 2 0.5 8t1.5 13.5t2.5 16.5t3 16t2.5 11.5t2 4.5t3 -1t2 -2v-5q0 -5 -2 -9.5t-3 -9.5q-2 -14 -3.5 -26t-0.5 -26q-1 -2 -2 -3.5t-3 -1.5q-1 0 -1.5 0.5l-1.5 1.5v2v4v4v2zM129 130
q0 -13 2 -25.5t2 -24.5q1 -2 3.5 -3t4.5 -1t4.5 0.5t2.5 3.5v52l-3 3h-14q-1 0 -1.5 -2.5zM168 104q2 0 4.5 2.5t4.5 6t3.5 7t1.5 5.5q0 3 -3 4.5t-7 2t-8.5 0.5h-6.5v-25q0 -1 1.5 -1.5t3.5 -1t3 -0.5h3zM157 97q0 -1 -0.5 -3t-0.5 -4.5v-4v-2.5v-1q0 -3 1.5 -4.5t3.5 -1.5
t3.5 1.5t2 3t1 3.5t0.5 4v5q-2 2 -4 3.5t-4 1.5h-2t-1 -1z" />
</svg>
