<?xml version="1.0" standalone="no"?>
<!DOCTYPE svg PUBLIC "-//W3C//DTD SVG 1.1//EN" "http://www.w3.org/Graphics/SVG/1.1/DTD/svg11.dtd" >
<svg xmlns="http://www.w3.org/2000/svg" xmlns:xlink="http://www.w3.org/1999/xlink" version="1.1" viewBox="-10 0 266 256">
   <path fill="currentColor"
d="M141 248q-1 2 0.5 2.5t3.5 0.5t3.5 -1t2.5 -4q1 -6 1.5 -13.5t0.5 -15v-14.5v-13q0 -2 2 -2.5t4 -0.5h3h3h4h3q3 2 4 7.5t1 11.5v14t0.5 13t2.5 10t6 4q3 0 3.5 -2t0.5 -5q0 -6 -1 -12t-2 -12.5t-2 -12.5t-1 -13q0 -1 2.5 -3.5l5.5 -5.5t5 -7.5t2 -10.5l-2 -47
q0 -2 -2 -5t-4 -4v-12q0 -1 2.5 -2.5t5 -3.5t4.5 -6t2 -11v-4v-4l-3 -1.5t-2 -0.5t-2.5 0.5t-1.5 1.5v10q0 1 -0.5 3.5t-1.5 2.5h-3v-3.5v-3.5v-3t-0.5 -4t-0.5 -4v-3q-1 -1 -1.5 -1h-1.5q-2 0 -2.5 1t-0.5 3v3.5v2.5q0 3 1 5t1 5q0 1 -1 1l-1 1t-1 2h-0.5h-0.5
q-2 0 -2.5 -1.5t-0.5 -2.5q0 -2 0.5 -3.5l0.5 -1.5q-1 -2 -2 -5.5l-1 -3.5h-4q0 5 0.5 11t3.5 11q1 2 2 3t2.5 1.5t2 2t0.5 3.5v5q0 1 -0.5 2l-0.5 1h-17v-46q0 -1 0.5 -1.5l0.5 -0.5q8 -1 13 -3t8 -4.5t4.5 -7.5t1.5 -14v0q0 -2 -1.5 -4t-3.5 -2q-1 0 -3.5 1t-2.5 3v19
q0 1 -3 2.5l-5 2.5v0h-1q-2 -1 -4.5 -1t-2.5 -1v-28q0 -1 -1.5 -2t-3 -1.5l-3 -1t-2.5 -0.5v34q-9 0 -11.5 -4t-3 -9t-0.5 -9t-4 -4q-3 0 -4 3t-1 5q0 11 4 16t9 7t9 3t4 3v39v6q0 1 -1.5 1.5t-3.5 1t-4 0.5h-3h-3.5t-2.5 -2v-7q0 -6 1.5 -9t4 -4.5t4.5 -2.5t2 -3v-15
q0 -1 -1.5 -1.5l-1.5 -0.5h-2v3t-0.5 4t-0.5 4v3q-1 2 -1.5 2.5t-1 0t-1.5 -0.5h-3v-17l-1 -1l-1 -1h-1h-1l-1 1l-1 1v19q-3 0 -5 -2t-3 -5.5t-1.5 -7t-1.5 -6.5l-1 -1q-1 0 -2 2l-1 2v2.5t0.5 3t0.5 3.5v2v2.5v3.5q1 2 3.5 3.5t5 2.5t4.5 2t2 3v20q-1 0 -2 2l-1 2
q0 1 -0.5 2l-0.5 1v31q0 1 0.5 3.5l0.5 2.5v0.5v0.5v0.5v0.5l-0.5 2.5t-0.5 3.5v1q0 6 1 9t3 5t5 4.5t5 5.5v7q0 8 -1.5 15.5t-1.5 15.5v3.5t2 4.5zM72 245q0 1 2.5 2t4.5 1q1 0 2.5 -2t2 -4t0.5 -4.5v-3.5q0 -12 -1.5 -24.5t-1.5 -24.5v-2q7 -6 10 -11.5t6 -12.5v-2v-2
t0.5 -2t0.5 -2q2 -3 4.5 -5.5t4.5 -5t3 -5.5t1 -8v-1v-7v-11.5t-0.5 -14t-0.5 -13.5v-11v-8q-1 -1 -2.5 -3.5t-2.5 -5.5t-2.5 -5.5t-1.5 -3.5v-2v-3q0 -4 1 -8.5t1 -8.5q0 -2 -1 -4t-3 -2q-3 0 -4 2.5t-1.5 5.5t-0.5 6v4q0 6 1 9.5t2.5 6.5t2.5 5.5t2 6.5q2 9 2.5 18t0.5 19
v18v5q0 4 -0.5 8t-1.5 7.5t-3 4.5l-1 -2l-3 -74q0 -1 -1 -1h-2h-2t-1 1v79v3t-0.5 4.5t-0.5 5t-1 3.5q0 1 -1 3t-2 2h-1q-1 -1 -1.5 -2l-0.5 -1q-1 -26 -1 -51v-50q-6 0 -7 2.5t-1 6.5v4q0 1 0.5 2.5t0.5 3.5t0.5 4l0.5 2q0 1 -0.5 4t-1.5 3v39q0 3 -0.5 4t-2.5 1
q-3 0 -4.5 -3t-2 -7t-1 -7.5t-0.5 -5.5v-3t-0.5 -4.5t-0.5 -5.5v-3v-10q0 -5 0.5 -9.5t1.5 -9t3 -10.5q4 -3 7 -6.5t5 -7t2.5 -7.5t0.5 -9v-8q-1 -2 -2.5 -4.5t-3.5 -3.5q-1 0 -2 0.5t-1 1.5v4q0 3 1 6.5t1 6.5q0 5 -2.5 8.5l-5 7t-5.5 7t-4 7.5q-2 9 -2.5 19t-0.5 19
q0 11 1 21.5t5 20.5q1 2 2.5 3t4 2t4 2t2.5 2v8q0 7 -0.5 13.5t-0.5 13.5t1 13.5t1 15.5v4zM142 167v-2v-2q3 0 8.5 -0.5t11.5 -1t11.5 -1t7.5 -0.5h2q2 0 4 1.5t2 3.5q0 5 -3 7.5t-7 3.5t-8 1h-8t-6.5 -0.5l-7 -1t-5.5 -2.5t-2 -6zM139 151l-0.5 -2.5l-0.5 -2.5q0 -2 1 -4
t2 -3h5.5t8.5 -0.5t8 -0.5h6h4h5h5h4q2 1 2.5 3t0.5 5t-3 5q-7 1 -16.5 2t-16.5 1h-1q-1 0 -3 -0.5l-4 -1t-4 -0.5t-3 -1zM138 126q0 -5 4 -8t9 -4t11 -1h9h5.5t6.5 1t5 3t2 6t-6.5 5.5t-14.5 2t-16 0.5q-9 0 -12 1q-1 0 -2 -2.5t-1 -3.5z" />
</svg>
