<?xml version="1.0" standalone="no"?>
<!DOCTYPE svg PUBLIC "-//W3C//DTD SVG 1.1//EN" "http://www.w3.org/Graphics/SVG/1.1/DTD/svg11.dtd" >
<svg xmlns="http://www.w3.org/2000/svg" xmlns:xlink="http://www.w3.org/1999/xlink" version="1.1" viewBox="-10 0 266 256">
   <path fill="currentColor"
d="M124 216v8t0.5 11.5t2.5 10t6 4.5q3 0 4.5 -2t1.5 -4q0 -4 -1 -7.5t-2.5 -7t-2.5 -8t-1 -8.5q0 -9 3 -14t6.5 -9.5t7 -8.5t3.5 -11q0 -4 -2 -8t-4.5 -7.5t-4 -7t-1.5 -7.5v-3v-3q7 -2 10 -6t4.5 -9t1.5 -11v-12v-3v-3v-3.5v-2.5q-1 -3 -5 -3q-2 0 -2.5 2.5t-0.5 4.5
q0 3 -0.5 5.5t-2.5 2.5h-16l-1.5 -1.5l-1.5 -1.5q-1 -1 -1 -2.5t-0.5 -3.5t-0.5 -3.5v-2.5q-2 -2 -6 -2q0 9 -1 17.5t-1 17.5q0 6 2.5 9.5t5.5 5.5t5.5 4t2.5 5q0 4 -3.5 9.5t-8 10.5t-10 9.5t-8.5 6.5v6q6 0 11.5 -4.5t9.5 -9.5t6.5 -9t3.5 -4q2 0 4 2t3.5 4t2 4.5t0.5 4.5
q0 5 -2.5 9t-5.5 8t-6.5 8t-4.5 9v3v4v4v3zM180 210q0 2 0.5 8.5t2 13t4 11.5t7.5 5q3 0 4 -2t1 -5q0 -4 -1.5 -8t-3.5 -7.5t-3.5 -8t-1.5 -9.5q0 -8 2.5 -14t5 -11l5 -10t2.5 -11t-1 -8.5t-3 -4t-4 -2l-4 -1t-3 -2.5t-1 -6v-1v-1q1 -1 3.5 -2.5l5 -3t4 -3.5t1.5 -4v-44
q0 -2 -1.5 -2.5t-2.5 -0.5h-2q-1 0 -2.5 1l-1.5 1v13q0 1 -1 2t-2.5 1h-2.5h-2q-4 0 -5.5 -2.5t-2 -5t-2 -5t-4.5 -2.5q-2 0 -3 3.5t-1 4.5v39l2 2.5t4 3.5q1 1 3 1.5t3 1.5t2.5 2t1.5 3q0 4 -3 7.5t-7 6.5t-7 6.5t-3 6.5q0 1 0.5 2.5t1.5 1.5l1.5 -0.5l1.5 -0.5l3.5 -3.5
l5 -5t4.5 -5t3 -3.5h1h2q3 0 5 3t2 6q0 7 -2 12t-4.5 10.5t-4.5 11t-2 14.5zM57 239v1.5v1.5l3 2q1 0 3 -3t4 -4q1 -2 1 -3v-5q0 -9 -0.5 -18t-0.5 -18q0 -2 0.5 -4t2.5 -4q8 -4 11 -8t4 -8.5t2 -9.5t7 -10q0 -1 2 -2t3 -1q3 -5 4.5 -12t1.5 -15.5t-0.5 -16t0.5 -13.5v-3
q0 -7 -1.5 -14t-4.5 -12q-1 -1 -3 -4t-2 -4v-5v-4q0 -6 0.5 -11.5t0.5 -10.5q0 -3 -0.5 -6t-3.5 -3q-2 0 -3 4t-1.5 9.5t-0.5 10v5.5v4.5v5.5q2 7 8 11q0 1 0.5 5.5l1 9t1 8.5t0.5 6v1v2v4t-0.5 7t-1 7.5t-0.5 4.5v6t-0.5 10t-2 9t-4.5 4v0l-1.5 -1.5l-0.5 -0.5v-74
q0 -2 -1 -3t-3 -1q-1 0 -2 1t-1 3v74q0 2 -0.5 6.5t-1 10t-2.5 9.5t-4 4h-1q-1 0 -1.5 -1t-0.5 -2v-5v-9v-8v-6q0 -16 1 -32t1 -32v-9q-1 -2 -1.5 -2h-1.5q-2 0 -2.5 0.5t-1.5 3.5v2t-0.5 4t-0.5 4v2q0 4 -0.5 12t-0.5 17.5t-0.5 17.5t-0.5 11h-4l-0.5 -1t-1 -2.5t-1.5 -3.5
t-1 -3v-2t-0.5 -4t-0.5 -4v-2v-2q0 -2 -0.5 -4.5t-0.5 -4.5v-4v-11t0.5 -12t2 -11.5t4.5 -10.5q1 -2 3 -3.5t4 -3.5t3 -4t1 -5q0 -1 0.5 -5t0.5 -8t0.5 -7.5t0.5 -4.5q-1 -3 -2 -4.5t-4 -1.5q-2 0 -3.5 1t-1.5 5v27q-4 2 -6 5t-4 6.5t-3 7t-1 7.5q-1 2 -1 9t-0.5 15t-0.5 15
v10v3v7t1 8.5t3 8.5t5 5q2 1 4 1.5t3 2.5v5v8v8v5q0 14 -1 28t-1 28zM172 117q0 -1 0.5 -3t1 -4.5t1.5 -4t2 -1.5l12 -4q2 0 3 1t1 2v3v1q0 3 -0.5 6.5t-1.5 6.5t-3 5.5t-5 2.5q-4 0 -7.5 -3t-3.5 -8zM124 111v-4t2 -3q4 -2 7 -2h7h2h2t1.5 0.5t0.5 1.5l0.5 2.5t0.5 3.5
q0 6 -2.5 10.5t-9.5 4.5t-9 -3.5t-2 -10.5zM134 65q1 0 3.5 0.5t5 0.5t5 0.5t3.5 0.5t3.5 -1t3.5 -1h4.5h6.5h7.5h5.5q2 -1 4 -1.5t2 -3.5v-0.5v-1.5q-7 -1 -10.5 -1h-8.5h-5h-6t-9 0.5t-9.5 0.5h-5.5q-2 1 -2 2v2v1.5t2 1.5zM110 61q0 2 1 2.5t2 0.5q3 0 6.5 -2.5t7 -6
l7 -7t6.5 -5.5q1 -1 3.5 -3t5 -4.5l4.5 -4.5l3 -3h3l2.5 1.5l5 3t5.5 3.5t5 3q3 3 6.5 7l7 8t7 7t9.5 3q1 0 3 -1t2 -4l-3.5 -3.5l-8.5 -8.5t-11.5 -10.5t-12 -10.5t-10 -8t-6.5 -3h-1.5h-0.5q-12 12 -25 22t-23 23v1z" />
</svg>
