<?xml version="1.0" standalone="no"?>
<!DOCTYPE svg PUBLIC "-//W3C//DTD SVG 1.1//EN" "http://www.w3.org/Graphics/SVG/1.1/DTD/svg11.dtd" >
<svg xmlns="http://www.w3.org/2000/svg" xmlns:xlink="http://www.w3.org/1999/xlink" version="1.1" viewBox="-10 0 266 256">
   <path fill="currentColor"
d="M135 186q2 0 4 2t3.5 4.5t2 5t0.5 4.5q1 0 1.5 2t2 4t2 3.5t1.5 2.5q3 7 9 13t13 10.5t14.5 7t15.5 2.5q3 0 4 -1.5t1 -3.5q0 -3 -6.5 -5.5t-14 -5.5t-14 -6t-6.5 -7q0 -3 1 -8t3.5 -9.5t5.5 -8t7 -3.5t6.5 2.5t4 6.5t2.5 8.5t2.5 8t3.5 6.5t5 3q2 0 3.5 -2.5t1.5 -4.5
q0 -5 -3 -10t-5 -10q-2 -4 -3.5 -7.5t-3.5 -6t-5.5 -4t-8.5 -1.5q-6 0 -9.5 4t-6 8.5t-4.5 8.5t-5 4q-4 0 -6 -4t-4 -8.5t-5.5 -8.5t-9.5 -4q-7 0 -11.5 4t-7.5 10q-2 13 -5 24.5t-3 23.5q2 0 5.5 -0.5t4.5 -3.5q0 -1 0.5 -3.5t0.5 -5.5t0.5 -6t0.5 -4q0 -2 1 -7.5t3 -10.5
t4.5 -9t6.5 -4zM63 10q-2 0 -2.5 3t-1 7t-0.5 8t-1 6q-1 4 -3.5 7.5t-5.5 7t-5 7t-2 8.5v68q0 8 3.5 13t7.5 8t7 4t3 2v82l1.5 1l1.5 1h1q2 0 4 -2.5t2 -4.5v-57l1.5 -2.5t3.5 -3.5l0.5 -0.5t0.5 -1.5q5 -7 10 -12t9 -10t6 -11t3 -16v-6.5t0.5 -12t0.5 -12v-6.5v-2v-14
t-3 -14q-1 -3 -3 -5t-4 -3.5t-3.5 -4t-1.5 -5.5q0 -6 0.5 -10.5t1.5 -11.5q1 -3 -0.5 -3h-2.5q-3 0 -4 1t-2 3v9v12t3 11q2 4 4 5t3.5 2.5t2.5 4.5t1 9v23v12v9t-0.5 10t-0.5 11q-1 1 -1.5 3t-2 3.5t-2.5 3t-3 1.5t-2.5 -1t-0.5 -2q0 -10 1.5 -18.5t1.5 -17.5
q0 -11 -0.5 -23.5t-2.5 -23.5h-1h-1q-2 0 -3 0.5t-1 2.5v89q0 1 -0.5 3.5t-1.5 4.5t-2.5 4t-3.5 2v0v0q-1 -3 -1 -10t-0.5 -15t-0.5 -15.5v-9.5v-5t0.5 -8l1 -8t0.5 -5l-0.5 -1t-0.5 -2.5t-0.5 -2.5t-0.5 -2v-1v-2v-3t0.5 -4l1 -4t0.5 -3q-1 0 -1.5 -1t-1.5 -2t-2 -1.5
t-2 -0.5l-1.5 1.5l-1.5 1.5v83l-0.5 0.5t-1.5 0.5q-4 0 -6 -2.5t-3 -6.5t-1 -8t-1 -7v-52q0 -6 3 -10.5t6 -8l6 -7t3 -7.5v-24q0 -1 -2 -2t-3 -1zM126 150q0 6 3 10t10 5h3h5h4h3q6 0 13 0.5t13 -0.5t10 -4t4 -10q0 -9 -3.5 -13t-9 -6t-12.5 -2h-14q-5 0 -10 1t-9.5 3.5
t-7 6t-2.5 9.5zM136 149v-2v-3.5t1 -2.5t2 -1h36q4 0 7.5 2.5t3.5 7.5q0 2 -1.5 3t-4 2t-4.5 1.5t-3 0.5h-15h-14q-8 0 -8 -8zM157 114q5 0 10 1t10.5 2t10.5 3t9 4q2 1 3.5 2t3 2.5t3 2.5t3.5 1t3.5 -0.5t1.5 -3.5q0 -5 -3.5 -8t-9.5 -5t-12.5 -3t-12.5 -2.5t-10 -3.5
t-4 -6q0 -1 0.5 -1.5l1.5 -1.5h3t5 -0.5t5 -0.5h3t3 -0.5t4.5 -1t5 -2t2.5 -3.5v-14l-5 -5q-4 2 -4.5 5l-1 6t-3 5t-10.5 2q-2 0 -4.5 -0.5t-2.5 -2.5v-16l2 -2q5 0 11 -1t11 -3t8.5 -6t3.5 -11t-1 -10.5t-2.5 -5.5t-5.5 -3.5t-9 -3.5h-42q-4 2 -8.5 3t-8.5 2.5t-6.5 4
t-2.5 9.5q0 2 0.5 6.5t2.5 8t4.5 6.5t6.5 3h22q3 0 4.5 3t1.5 6v4.5t-1 4.5t-2.5 3.5t-4.5 1.5q-6 0 -8.5 -2t-4 -5t-3 -5t-4.5 -2h-1.5t-1.5 2q1 6 3.5 9.5t5.5 6t6.5 3.5l7 2t5 2t1.5 4q0 2 -3.5 3.5t-8.5 3.5t-10 3t-7 2l-5 2.5l-5 2.5t-3 1v6q6 0 11.5 -2.5l11 -5
t11 -4.5t10.5 -2zM123 45q0 -2 1 -3.5t2 -3.5t2.5 -3t3.5 -1t4 2t3.5 5t2.5 6.5t1 5.5q0 3 -1.5 4t-4.5 1q-6 0 -10 -3t-4 -10zM145 38v-1v-2t0.5 -2t1.5 -1h11q2 0 3.5 3t2.5 6.5l2 7t1 4.5v2t-2 2h-11q-2 0 -3.5 -2.5t-2.5 -5.5t-2 -6.5t-1 -4.5zM170 38v-1v0
q0 -1 0.5 -2.5t0.5 -2.5h2.5h2.5q7 0 11 3t4 10q0 10 -10 10q-2 0 -4 -2t-3.5 -5t-2.5 -5.5t-1 -4.5z" />
</svg>
