<?xml version="1.0" standalone="no"?>
<!DOCTYPE svg PUBLIC "-//W3C//DTD SVG 1.1//EN" "http://www.w3.org/Graphics/SVG/1.1/DTD/svg11.dtd" >
<svg xmlns="http://www.w3.org/2000/svg" xmlns:xlink="http://www.w3.org/1999/xlink" version="1.1" viewBox="-10 0 266 256">
   <path fill="currentColor"
d="M63 245q0 2 1.5 3.5t3.5 1.5t4 -1t2 -4v-45l0.5 -1t1.5 -2l4 -6t4 -5.5t3.5 -6t3.5 -8.5l0.5 -1t0.5 -2.5t0.5 -2.5t0.5 -2l1.5 -1.5t3.5 -3t3 -3t2 -1.5q2 -2 3.5 -5.5t3.5 -4.5q1 0 2.5 -0.5t3.5 -0.5h3.5h2.5q0 -1 2 -1.5t4 -2t4 -2.5t3 -1h1q2 0 5.5 3.5t6.5 8t5 9
t2 6.5l-36 4q-1 0 -2.5 2l-1.5 2v1q0 2 1.5 2.5t3.5 0.5h3.5h1.5q8 0 15.5 -2t15.5 -2q3 0 3.5 2t0.5 6l-0.5 2.5t-0.5 5t-1 4.5l-1 2h-40q-2 0 -3 2.5t-1 4.5q0 1 0.5 2t1.5 1q1 1 4 1h4q8 0 15 -2t15 -2h3t2 2q2 11 2 21.5t2 21.5q0 2 1.5 2.5t3.5 0.5q6 0 6 -6
q0 -7 -2 -15t-2 -16v-9l2 -2h37q0 -3 -0.5 -5.5t-3.5 -3.5h-5q-6 0 -12 0.5t-12 0.5q-5 0 -6 -2.5t-1 -7.5q0 -6 4 -8.5t10 -3t11.5 0t9.5 0.5q1 0 2 -1t1 -2v0q0 -2 -2.5 -4t-4.5 -2h-20q-2 0 -2 -1.5v-2.5q0 -7 5 -12.5t10 -9.5h1v0q1 0 2.5 1t3.5 2.5t3.5 2t1.5 1.5h2h2
q2 0 4 -1t2 -4t-3 -5.5t-8 -4.5t-11 -4.5t-11 -4.5t-9.5 -4t-5.5 -5v-5v-4.5t2 -4.5h4q5 0 9.5 2t9 4.5t8 4.5t5.5 2q3 0 3.5 -1.5t0.5 -3.5q0 -1 -0.5 -3.5t-1.5 -2.5l-38 -15q-3 -1 -3 -2v-3q0 -5 3 -7t7.5 -3t10 -1.5t10 -2t7.5 -5t3 -10.5q0 -10 -3.5 -15t-9.5 -7.5
t-13 -2.5h-15h-14.5t-15.5 2t-11.5 7t-4.5 14q0 8 2.5 12.5t7 7t9.5 3t9 1t7 0.5t3 1v13q0 1 -3 2t-7 2.5t-9 3.5t-9 4t-7 5.5t-3 6.5q5 0 9 -2t8 -4.5t7.5 -4.5t8.5 -2h3t2 2v16q0 1 -2 1q-9 4 -18.5 10t-17.5 9q-1 1 -4 0.5l-3 -0.5v-11.5v-16.5v-17v-11v-2t-0.5 -4
t-0.5 -4t-1 -2q-1 -5 -3 -8.5t-4.5 -7t-4.5 -7t-2 -9.5q0 -4 1 -8.5t1 -8.5q0 -2 -2 -2.5t-3 -0.5q-3 0 -4.5 2.5t-2 5.5t0 6t0.5 5v10q0 2 1 3l1.5 1.5t1.5 1t2 2.5q0 1 1 3l2 4t2 4.5t2 3.5q3 10 3.5 21.5t0.5 22.5v18q0 2 -0.5 5t-1.5 5.5l-2 5t-3 2.5h-1l-0.5 -1
l-0.5 -1q0 -1 -0.5 -4t-0.5 -6.5t-0.5 -6t-0.5 -4.5v0v-1q0 -2 0.5 -8.5t0.5 -13.5t0.5 -13.5t0.5 -8.5v-1q0 -4 -1 -7.5t-5 -3.5q-3 0 -4.5 3t-1.5 5q0 4 1 6.5t1 6.5t-1 8.5t-1 8.5q0 7 1 14.5t1 15.5q0 11 -1 20.5t-4 19.5q0 1 -1 1.5t-1.5 0.5t-2 -1t-1.5 -2v-101
q0 -1 -1.5 -1.5l-1.5 -0.5q-2 0 -3 1.5t-1.5 3.5t-0.5 4v3v64q-1 1 -1 2.5t-0.5 2.5t-1.5 2t-2 1h-0.5h-0.5q-4 -5 -5.5 -11t-2.5 -12.5t-0.5 -13t0.5 -12.5v-4q0 -2 0.5 -7t1.5 -10t1.5 -10t0.5 -7q4 -5 7.5 -9.5t6 -9t3.5 -10t1 -12.5v-10q-1 -5 -6 -5q-2 0 -4.5 2.5
t-2.5 5.5q0 1 0.5 2t0.5 2.5t0.5 3.5l0.5 2v2v3q0 4 -1 6t-2.5 4t-3.5 4t-4 5q-2 2 -3.5 5.5t-2.5 7t-1.5 7t-0.5 5.5v68l0.5 1.5t1.5 3.5l2 4l2 4q2 3 4 4l4 2t3.5 2t3.5 3v10q0 13 -1 25.5t-1 26.5v13zM145 131q2 -4 6.5 -6.5t9.5 -2.5h5.5t6.5 1.5t5.5 3.5t2.5 5
t-1.5 6.5t-4 7t-5 6t-5.5 2.5h-1h-1q-5 -5 -10 -10.5t-8 -12.5zM130 55v-7v-3q0 -2 0.5 -4t1.5 -3t3 -1q3 0 5 2t3.5 5t2 6.5t0.5 5.5t-0.5 4.5t-3.5 2.5t-6.5 -3t-5.5 -5zM148 36q0 -1 1.5 -1.5l3 -1t2.5 -0.5h2q3 0 6 2.5t5.5 6.5t4 8t1.5 7t-2 4.5t-5 1.5q-5 0 -8.5 -3
t-5.5 -6.5t-3.5 -8t-1.5 -9.5zM175 38q0 -2 0.5 -3.5t3.5 -1.5q6 0 11 3.5t5 9.5v4t-1 3.5l-2 3t-3 1.5q-3 0 -6 -2t-4.5 -5t-2.5 -6.5t-1 -6.5z" />
</svg>
