<?xml version="1.0" standalone="no"?>
<!DOCTYPE svg PUBLIC "-//W3C//DTD SVG 1.1//EN" "http://www.w3.org/Graphics/SVG/1.1/DTD/svg11.dtd" >
<svg xmlns="http://www.w3.org/2000/svg" xmlns:xlink="http://www.w3.org/1999/xlink" version="1.1" viewBox="-10 0 266 256">
   <path fill="currentColor"
d="M183 246q0 2 0.5 3.5t2.5 1.5q3 0 5.5 -2.5t2.5 -5.5v-1q0 -1 -0.5 -7t-0.5 -13v-12.5v-7.5v-38q0 -1 -1 -5t-1 -6l-1 -0.5t-1.5 -1.5t-1.5 -1.5l-1 -0.5h-18q0 -3 -0.5 -5t1.5 -3q1 -1 2 -1.5t2.5 -1t2.5 -1l1 -0.5q1 0 4 -0.5t6 -0.5t6 -0.5t4 -0.5l0.5 -1t0.5 -2v0v-1
l-2 -1.5t-2 -2.5h-1v0v0q-1 0 -2 0.5t-2.5 1l-3 1l-1.5 0.5q-2 0 -5 0.5l-6 1t-5.5 1.5t-4.5 4q-2 5 -3.5 10.5t-1.5 11v11.5v11q0 7 2 10.5t4.5 5.5t6 2h6.5t5 0.5t2 3.5q0 11 -0.5 21.5t-0.5 21.5zM137 245q0 2 1.5 3t3.5 1q3 0 4.5 -2.5t1.5 -5.5q-1 -13 0.5 -24.5
t1.5 -24.5v-3q0 -3 -1 -4v-9t-0.5 -11t-0.5 -9v-4l-3 -5h-18v-10q0 -3 4 -4t9 -1t9.5 -1t4.5 -3v-1l-2 -1q-1 0 -4 -0.5t-4 -0.5q-6 0 -11 1.5t-10 4.5q-4 11 -5 23.5t-1 24.5q0 1 0.5 4t1 6.5t2 6t3.5 2.5h16l1 3zM74 240q1 1 3 1t3.5 -1t2.5 -3q1 -9 1 -21v-20
q7 -5 10.5 -12.5t2.5 -16.5l9 -9t6 -11q0 -3 1 -8t1.5 -10t1 -8.5t0.5 -4.5v-3v-6v-7v-5v-4v-6.5v-6.5v-4q-1 -1 -2.5 -4.5t-1.5 -5.5q-1 -1 -4 -3t-3 -4v-29l-1 -0.5t-2 -0.5q-2 0 -3.5 2.5t-2 5.5t0 6.5t0.5 4.5v9q2 5 4.5 8t4.5 8q4 9 3.5 19.5t-0.5 19.5v6v9t-0.5 10
t-2 9.5t-3 7.5t-3.5 3h-0.5h-0.5l-0.5 -0.5t-0.5 -1.5v-2v-3v-4v-2v-10t1 -9v-45q0 -1 -2 -2t-3 -1v42.5t-2 42.5q-1 3 -1.5 6.5t-1 6.5t-1.5 6t-4 5q0 -1 -0.5 -2.5t-0.5 -3.5v-4v-3v0v-1v-7.5v-13.5v-17t0.5 -17t0.5 -14v-7v-9v-8l-1.5 -1.5t-1.5 -0.5q-4 0 -4 6v74
q0 1 -1 1h-2q-3 0 -4.5 -2.5t-3 -6t-1.5 -7v-5.5v-1v-11.5t0.5 -13.5t0.5 -11.5v-5.5q0 -4 1 -7.5t2 -6t3 -5.5t5 -6q6 -6 6.5 -13.5t0.5 -15.5q0 -3 -1 -7t-5 -4q-5 0 -5 5q0 4 1.5 7.5t1.5 7.5q0 7 -3 11.5t-6.5 9t-6 9t-2.5 10.5v54q0 6 1 9.5t3 6.5t5 4.5t7 4.5
q0 1 0.5 3.5t1 5.5t0.5 5.5v3.5t-0.5 4t-0.5 6t-0.5 6l-0.5 3v19v18zM166 183v-3v-1q0 -1 0.5 -1.5l0.5 -0.5h16l0.5 1.5t0.5 3v2.5v2q0 3 -1 4.5t-5 1.5q-5 0 -8.5 -1.5t-3.5 -7.5zM125 181q0 -4 2.5 -5.5t6.5 -1.5t5.5 2t1.5 7v1v2.5t-0.5 3l-0.5 1.5h-10q-2 0 -2.5 -1.5
l-1 -3t-1 -3.5zM163 164l0.5 -1.5t1.5 -3.5t2 -3t2 -1h11q1 0 2 1.5t2 3.5t1.5 3.5t0.5 2.5l-0.5 1.5t-1.5 1.5h-15q-1 0 -3.5 -2t-2.5 -3zM125 160v-1t0.5 -2.5t1 -2.5t2.5 -1h11l0.5 1t0.5 2v4q0 5 -2.5 6.5t-6.5 1.5t-5.5 -2t-1.5 -6zM172 113q1 1 1 3v4q0 3 1 4.5t3 1.5
q2 -1 3 -4t1 -5q1 -1 1 -3.5t0.5 -5t0.5 -5v-3.5v-13v-13q-1 -3 -3.5 -4.5t-6 -2t-6.5 -0.5h-6q-4 0 -8.5 1t-8.5 1q-2 0 -2.5 -0.5l-1.5 -1.5l-0.5 -1.5t-0.5 -2.5q0 -3 2 -6.5t6 -3.5h43l1 -1.5t2 -2.5l-1 -1t-1 -2l-0.5 -0.5l-0.5 -0.5h-6h-5.5h-9.5t-11 0.5t-11 1.5
t-8.5 3.5t-4.5 5.5q-1 8 -1 13.5v12.5v12t1 14l0.5 0.5l0.5 0.5q10 4 18 4.5t19 -0.5zM140 100v-2.5t1 -2.5h4t6 -0.5t5.5 -0.5h4.5v0h4t4.5 1t3.5 2.5t1 3.5q0 5 -4 5h-4.5h-4.5h-5q-3 0 -7 -0.5t-6.5 -2t-2.5 -3.5zM163 74h4h3l3 2v9q0 1 -2 2l-2 1h-12h-12q-1 0 -3 -0.5
l-2 -0.5v-10q0 -1 1.5 -1.5t4 -0.5t4.5 -0.5l2 -0.5h2h2.5h3.5h3z" />
</svg>
