<?xml version="1.0" standalone="no"?>
<!DOCTYPE svg PUBLIC "-//W3C//DTD SVG 1.1//EN" "http://www.w3.org/Graphics/SVG/1.1/DTD/svg11.dtd" >
<svg xmlns="http://www.w3.org/2000/svg" xmlns:xlink="http://www.w3.org/1999/xlink" version="1.1" viewBox="-10 0 266 256">
   <path fill="currentColor"
d="M129 221q0 3 0.5 8l1 10t1.5 8.5t4 3.5q4 0 5.5 -2.5t1.5 -6.5q0 -5 -1.5 -10.5t-1.5 -10.5q-4 -26 -4 -52q0 -2 1 -8t2.5 -12.5t3.5 -12t4 -5.5t5 5t6.5 12l7.5 15t8 15t8 12t8 5q2 0 3 -0.5t1 -2.5v-2.5t-1 -2.5q-4 -5 -10 -14t-12 -18.5t-10 -18.5t-4 -16q0 -4 3 -5.5
t6 -3.5q1 -1 3 -2t4.5 -2l5 -2t3.5 -2q1 -2 1 -3v-3t-1.5 -2.5t-3.5 -0.5q-3 0 -6 2t-5 4t-5 4t-6 2q-2 0 -3.5 -3t-3 -7.5t-2 -8.5t-0.5 -6v-3t2 -3q5 -1 11.5 -1t12.5 -0.5t12 0t11 0.5q1 -1 2.5 -2t1.5 -3t-1.5 -3.5t-3.5 -1.5h-1q0 1 -2 1.5t-3 0.5h-40q-2 0 -2.5 -2
t-0.5 -4v-4v-2v-3v-2l3 -3q9 0 16 -0.5t11 -4t6.5 -10t2.5 -16.5q0 -1 -1.5 -1.5t-2.5 -0.5q-3 0 -4.5 2t-2 4.5t-1.5 6t-3 6t-5.5 4.5t-10.5 2h-4t-3 -2v-25q-5 0 -6.5 1.5t-4.5 5.5v8q0 8 1 14.5t1 14.5v6v3l-2 2h-43q-5 0 -7.5 -2t-4 -4.5t-3 -4.5t-5.5 -2q-2 0 -3 1.5
t-1.5 3t-0.5 3.5v3q0 6 1.5 12.5t1.5 12.5v31q0 15 -0.5 29t-2 28t-4.5 28t-8 27v1q0 2 1.5 3t3.5 1q3 0 5.5 -2.5t3.5 -5.5q4 -15 6.5 -30.5t2.5 -31.5q1 -2 2 -6t1 -8.5v-9v-7.5v-3v-5v-6v-5v-5v-7v-5v-3v-2.5t-0.5 -5t-0.5 -5v-2.5q0 -1 0.5 -2.5t0.5 -2.5l2 -3h56
q0 10 2 20.5t2 20.5q0 4 -1.5 7t-3.5 6.5l-4 7t-3 6.5q-1 1 -2 4.5t-1 4.5v70z" />
</svg>
