<?xml version="1.0" standalone="no"?>
<!DOCTYPE svg PUBLIC "-//W3C//DTD SVG 1.1//EN" "http://www.w3.org/Graphics/SVG/1.1/DTD/svg11.dtd" >
<svg xmlns="http://www.w3.org/2000/svg" xmlns:xlink="http://www.w3.org/1999/xlink" version="1.1" viewBox="-10 0 266 256">
   <path fill="currentColor"
d="M150 168q0 2 1 9t2.5 16t3.5 18.5t5 18t6.5 13.5t8.5 5q3 0 4 -0.5t1 -4.5q0 -6 -3.5 -12.5t-8 -13.5t-8.5 -14.5t-4 -15.5v-34q0 -1 0.5 -2.5t1.5 -3t2 -2.5t2 -1q3 0 6 3t6 8t6 10.5t7 10.5t8 8t9 3q0 -8 -5.5 -15.5t-12 -15t-12.5 -15t-6 -16.5q0 -5 3.5 -8l7 -6
t6.5 -6t3 -8h-8l-6.5 6.5t-7.5 5.5h-1q-2 0 -3.5 -2.5t-3.5 -6.5t-2.5 -8t-0.5 -6l0.5 -1.5l0.5 -1.5q0 -1 0.5 -2t1.5 -1h33q3 0 4 -3t1 -5q-1 0 -2 -0.5t-2 -1.5h-2.5h-3.5q-6 0 -11.5 1t-11.5 1h-7q-1 -1 -1.5 -2.5t-0.5 -3.5v-3v-2t0.5 -4t0.5 -4q1 -3 4 -3.5t6.5 0t8 0
t8 -3t5.5 -8.5t2 -17v-3.5v-2.5q-1 -1 -2.5 -1.5t-2.5 -0.5q-4 0 -5 4.5t-2 10t-4 10t-11 4.5q-1 0 -3.5 -1t-2.5 -3v-25q0 -2 -1 -2.5t-3 -0.5q-3 0 -4.5 3t-2 7t-0.5 8v6q0 8 1 15.5t1 15.5q0 3 -1 5.5t-6 2.5h-58l-1 -1q0 -1 -0.5 -3t-0.5 -4.5t-0.5 -4.5t-0.5 -3
q0 -2 -1 -5.5t-5 -3.5t-4.5 3t-0.5 5q0 9 1.5 17.5t1.5 16.5v7t-0.5 9t-1 8.5t-1.5 4.5q-1 13 -2.5 25.5t-3.5 24t-4.5 23t-6.5 24.5v2q0 2 0.5 3.5t3.5 1.5q2 0 4 -2t3 -5t1.5 -6t1.5 -5t2 -8t2.5 -13t3 -13.5t1.5 -8.5q0 -8 1.5 -17.5t2.5 -17.5v-12t0.5 -13.5t0.5 -11
v-4.5l3 -2l5 -0.5t12 -1l14 -1t12 -0.5h11h11q0 1 0.5 2l0.5 1q1 1 1 3.5t0.5 5.5t1 5.5l0.5 2.5q1 3 2.5 5.5t3.5 5t3 5t1 4.5q0 4 -2 6.5t-3 5.5q-4 9 -6 17t-2 18zM90 124q0 2 1.5 3t3.5 1h3q1 0 3 0.5t3 0.5h2q5 0 9 -0.5t8 -0.5t8 -0.5t10 -2.5q1 0 1.5 -1.5t0.5 -2.5
q0 -2 -1.5 -3t-3.5 -1h-4.5h-3.5q-4 0 -8 0.5t-8 0.5t-8.5 0.5t-10.5 0.5q-2 0 -3.5 1t-1.5 4z" />
</svg>
