<?xml version="1.0" standalone="no"?>
<!DOCTYPE svg PUBLIC "-//W3C//DTD SVG 1.1//EN" "http://www.w3.org/Graphics/SVG/1.1/DTD/svg11.dtd" >
<svg xmlns="http://www.w3.org/2000/svg" xmlns:xlink="http://www.w3.org/1999/xlink" version="1.1" viewBox="-10 0 266 256">
   <path fill="currentColor"
d="M69 224q0 1 -0.5 5.5t0 9.5t1.5 8.5t5 3.5q3 0 4.5 -2t1.5 -5q0 -6 -1.5 -10.5t-1.5 -9.5v-7.5t1.5 -9t3.5 -7.5t6 -3t8.5 0.5t9.5 0.5h6t6 -3v-1v0q0 -1 -1 -2t-2 -1h-17h-2t-4.5 -0.5t-4 -2t-1.5 -2.5q0 -4 3 -6.5t7 -5.5t7.5 -6t3.5 -7q-5 0 -9.5 3t-8 7t-6.5 7t-4 3
q-5 -2 -6 -6t-1 -8q0 -6 2.5 -9.5t6 -6t8 -4t9.5 -3.5q2 -1 5 -2l3 -1v-5q-9 0 -17 2.5t-14 7t-10 11t-4 15.5q0 4 2.5 6l5 4t5 4.5t2.5 5.5v2v1l-1 1l-2 2t-1.5 2l-0.5 1q-3 6 -3 11v12zM171 192q4 2 5.5 6t1.5 7v38q0 2 1.5 2h2.5q2 0 3 -1.5t2 -3.5t1.5 -4t0.5 -3
q0 -7 -0.5 -12.5t-1.5 -10.5t-2.5 -10t-2.5 -11v-2q0 -3 1 -5.5l2 -5l2 -5t1 -6.5q0 -7 -5 -12.5t-12 -9.5t-15 -6t-14 -2q-2 0 -3.5 0.5t-1.5 2.5q0 1 0.5 1.5l1.5 1.5q5 1 11.5 2.5t12.5 4t10 7t4 10.5v2v3.5t-0.5 3t-1.5 1.5q-3 0 -7 -2.5t-8.5 -5t-9.5 -4.5t-10 -2
q0 4 4.5 6.5t10 4.5t10 5t4.5 7q0 3 -4 4t-8.5 2l-9 2t-4.5 4q0 2 2.5 3t4.5 1q5 0 10.5 -2.5t10.5 -5.5zM132 100q2 0 5 2t5.5 5t4.5 6t4 5q1 0 3 1.5t4.5 3.5l5 4t4.5 2q5 3 11.5 7t12.5 4q3 0 5.5 -1t2.5 -4q0 -2 -4 -4t-10.5 -4.5t-13.5 -5.5t-13 -7t-10 -8t-4 -9v-1
q3 -1 10 -1.5t14 -2t12 -3t5 -4.5t-1.5 -3.5t-3.5 -0.5q-5 0 -10 1t-10 2.5l-10 3t-10 1.5q-3 0 -5 -2.5t-3 -5t-2 -5.5t-1 -4v-1v-1v-2.5t3 -1.5q13 -1 27.5 -1h27.5q1 0 3 -1.5t3 -2.5q0 -2 -2 -3.5t-3 -1.5h-11q-9 0 -18.5 1.5t-18.5 1.5h-3h-2.5h-3.5h-2q-3 -2 -3.5 -4
t-0.5 -5v-2.5t2 -3.5q8 0 14 -0.5t11 -2t7.5 -5.5t2.5 -12v-8q0 -1 -2 -1.5t-3 -0.5h-1q-1 0 -2.5 2.5t-1.5 3.5q-1 0 0 2.5l1 2.5v2v2q0 3 -1.5 4.5t-4 2t-5.5 0.5h-5h-2q-2 0 -3.5 -0.5l-3 -1t-1.5 -1.5v-19q0 -2 -1.5 -3.5t-2.5 -1.5q-3 0 -4 2.5t-2 3.5v15q0 7 0.5 14
t0.5 14q0 2 -5.5 3t-12.5 1.5t-13.5 1l-6.5 0.5q-3 0 -5.5 -1.5t-5.5 -1.5q-2 0 -5 1.5t-3 3.5t1.5 3l3 2t3.5 1.5t3 0.5q11 0 21.5 -2.5t20.5 -2.5q3 0 5 2.5t3.5 6t2.5 7t1 6.5v4q-3 2 -6.5 3t-7.5 2t-7 2t-5 5q-5 2 -11 4.5t-12 5.5t-11 6.5t-9 8.5v2v2t2 2
q3 -1 5.5 -2.5t5 -2.5t4.5 -3t5 -4q2 -2 9.5 -6t16 -8.5t16 -7.5t10.5 -3z" />
</svg>
