<?xml version="1.0" standalone="no"?>
<!DOCTYPE svg PUBLIC "-//W3C//DTD SVG 1.1//EN" "http://www.w3.org/Graphics/SVG/1.1/DTD/svg11.dtd" >
<svg xmlns="http://www.w3.org/2000/svg" xmlns:xlink="http://www.w3.org/1999/xlink" version="1.1" viewBox="-10 0 266 256">
   <path fill="currentColor"
d="M144 249q1 1 2 1.5t2 0.5q3 0 5 -2t2 -5q0 -2 -0.5 -4t-1.5 -4v-24v-11.5v-9t0.5 -8.5t1.5 -10q0 -2 1 -5.5t4 -3.5q2 0 4.5 4.5t4.5 10t3.5 11.5t2.5 8q2 4 5 8.5t5.5 9t4.5 9.5t3 10h9l0.5 -1t0.5 -2.5v-2.5v-2q0 -2 -1.5 -5.5t-3 -6.5t-3.5 -6t-4 -5q-3 -5 -7 -13
t-7.5 -17t-7 -17t-4.5 -14q2 -2 6.5 -8t10 -12t9 -11t3.5 -6q0 -2 -1.5 -3.5t-3.5 -1.5q-3 0 -7 3t-7 7.5l-6 9t-6 6.5q-1 -1 -3 -4.5t-3 -8.5t-1.5 -10.5t-1 -10.5t-1 -9t-0.5 -5v-6q3 0 9 -0.5l12 -1t10.5 -2t4.5 -4.5t-1.5 -3.5t-3.5 -0.5q-6 0 -12 1t-12 1h-8
q-1 -1 -1.5 -3.5l-0.5 -2.5v-0.5v-1.5q0 -3 4 -4t9 -1.5t10 -1.5t6 -4q1 -1 2 -3.5l2 -5t2 -5.5t1 -5q0 -1 -0.5 -2.5l-1 -3t-2 -2.5t-3.5 -1l-1 0.5l-1 0.5l-1.5 1.5l-0.5 0.5l-3 19q0 2 -2 3l-4 2t-4.5 1h-4.5h-2.5h-1.5l-1 -2v-4v-7v-7v-4q-1 -4 -1 -7t-5 -3q-2 0 -3 2.5
t-2 4.5v12q0 8 1 15.5t1 14.5v2v2t-0.5 2t-1.5 1l-85 6q-2 0 -2.5 1t-0.5 3t1 4.5t4 2.5h1q1 0 3.5 -0.5t5 -1.5t4.5 -1.5t3 -0.5l55 -5q2 -1 4 -1h4h3.5t2.5 1q0 9 1.5 17.5t3.5 17l4 17t2 17.5q0 5 -2.5 9t-3.5 9q-4 14 -5 27.5t-1 27.5v8.5v7t0.5 8t0.5 9.5zM55 165
q0 3 0.5 4t3.5 1q5 0 10.5 -1t10.5 -2q7 -1 14 -1t14.5 -0.5t15.5 -1.5t14 -3q2 0 2.5 -3l0.5 -3q-11 0 -22 1t-21.5 2l-21 2t-21.5 1v2v2zM74 117q0 8 1 12t4 6.5t8 3t13 0.5q7 0 13.5 -0.5t11 -3.5t7 -8t2.5 -13v-5q0 -2 -0.5 -5t-1.5 -5t-4 -2q-1 0 -3 -0.5t-4 -0.5h-5
h-3h-14t-12.5 1.5t-9 6t-3.5 13.5zM87 130q-1 -1 -2 -2.5t-1 -3.5v-4v-3q0 -6 2 -9t5.5 -4.5t8.5 -1.5h10h9q4 3 5 6.5t1 7.5q0 5 -1.5 8t-5 5t-7.5 2.5t-8 0.5q-1 0 -3 -0.5t-5 -0.5t-5 -0.5t-3 -0.5z" />
</svg>
