<?xml version="1.0" standalone="no"?>
<!DOCTYPE svg PUBLIC "-//W3C//DTD SVG 1.1//EN" "http://www.w3.org/Graphics/SVG/1.1/DTD/svg11.dtd" >
<svg xmlns="http://www.w3.org/2000/svg" xmlns:xlink="http://www.w3.org/1999/xlink" version="1.1" viewBox="-10 0 266 256">
   <path fill="currentColor"
d="M132 246q0 2 2.5 3.5t4.5 1.5t3 -0.5t2 -3.5q2 -40 1 -81l2 -1l-2 -2v-42q0 -2 1.5 -2h1.5h2q1 0 2.5 1t2.5 1q6 0 12 -1t11.5 -3.5t9.5 -7.5t5 -12q0 -1 0.5 -6t0.5 -10.5t0.5 -10t0.5 -6.5v-3q0 -5 -1 -9t-6 -4q-2 0 -3 2t-1.5 4t-1 3.5t-2.5 2.5q-1 0 -3 0.5t-4.5 0.5
t-5 0.5t-3.5 0.5l-2.5 -0.5t-4.5 -0.5t-4 -0.5t-3 -0.5t-1.5 -1t-0.5 -2q0 -9 4 -13t11 -8q1 0 5.5 -1l9 -2t8.5 -2t6 -1q3 -1 6 -2.5t3 -5.5q0 -3 -1.5 -4.5t-4.5 -1.5h-2l-2.5 1t-4.5 2t-4.5 1.5t-2.5 1.5q-11 3 -18.5 5.5t-12 7t-6.5 11.5t-3 19v4v8v8v4l-2 30t-1 31v6
v11v13v13v11v6q0 8 -2 17.5t-2 18.5zM94 242q0 7 8 7q3 0 4.5 -1.5t2 -3.5t0.5 -4v-4q2 -41 2.5 -80.5t0.5 -80.5q0 -4 0.5 -7t0.5 -6.5t0.5 -6.5t0.5 -7v-2q0 -1 -0.5 -2.5t-0.5 -2.5v-3q-3 -8 -8.5 -13t-12.5 -7t-15 -2.5t-16 -0.5h-4.5t-2.5 4t3 5.5t7.5 2t10.5 1t11 1
t9 2.5t6 5v2.5t0.5 3t0.5 3v2.5q1 0 1.5 3l0.5 3q0 1 -1 3.5t-2 3.5q0 1 -1 1.5l-1 0.5v0v0h-1v0q-2 0 -5.5 -0.5t-7 -0.5t-7 -0.5t-5.5 -0.5q2 -10 0 -14.5t-12 -4.5v43q1 5 1.5 10.5t2.5 10.5t4.5 9t8.5 5q2 0 5 0.5t6.5 1t6.5 0.5h5q3 1 3 3.5v4.5q0 13 -2 29.5t-3 30.5
q-1 13 -3 26t-2 27zM80 107q-3 -2 -5 -6t-2.5 -8.5t-0.5 -8.5v-8v-0.5v-0.5l0.5 -0.5l0.5 -0.5h18q1 0 3.5 -1t3.5 -1h1v0q1 0 2 1l1 1v35q-6 0 -10.5 -1t-11.5 -1zM145 84v-3.5v-3.5q1 -1 5 -2t9 -1.5t9.5 -1t5.5 -0.5h3.5h2.5q2 1 3 3.5t1 4.5v0q-1 3 -1.5 8t-1.5 8.5
l-1 3.5l-6 7h-27q0 -6 -1 -11.5t-1 -11.5z" />
</svg>
