<?xml version="1.0" standalone="no"?>
<!DOCTYPE svg PUBLIC "-//W3C//DTD SVG 1.1//EN" "http://www.w3.org/Graphics/SVG/1.1/DTD/svg11.dtd" >
<svg xmlns="http://www.w3.org/2000/svg" xmlns:xlink="http://www.w3.org/1999/xlink" version="1.1" viewBox="-10 0 266 256">
   <path fill="currentColor"
d="M114 133q3 0 4.5 2.5t2 6t0.5 6.5v4v93q0 6 6 6t9 -6v-32q0 -18 -1 -35t-1 -35v-5.5v-3.5l2 -4h2t3.5 -0.5t3 -0.5h2.5l3.5 -1t4.5 -1q3 0 8 0.5t10 0t9 -1.5t4 -5q0 -2 -1 -4t-5 -2l-30 3q-2 2 -4 2h-5h-3q-2 0 -2 -1q-2 0 -3 -2t-1 -4v-42q0 -1 1 -2t2.5 -1.5l3 -1
t2.5 -0.5q2 0 7.5 0.5t10.5 0.5q7 0 12.5 -0.5t7.5 -0.5h5t6 -0.5t5 -2.5t2 -5t-1.5 -4.5t-4 -2t-5 -0.5h-4.5q-10 0 -20.5 2.5t-21.5 2.5q-1 0 -4 -0.5t-3 -1.5v-36l-0.5 -1t-2 -2t-2.5 -2t-2 -1l-1 -0.5l-1 -0.5q-3 0 -4.5 2.5t-2 6t0 6.5t0.5 5q0 5 1 10t1 11q0 2 -2.5 3
l-5 2t-5.5 1h-3q-3 0 -8.5 0.5t-11.5 0.5q-7 0 -12.5 -0.5t-8.5 -0.5q-2 0 -3 3t-1 5v0q0 1 0.5 3.5t0.5 3.5h3.5h3.5q11 0 21 -2t21 -2h4h3l4 4v6q0 7 -1 14t-1 14v3q0 1 1 3.5l1 2.5q0 1 -1.5 3.5t-2.5 2.5q-5 1 -10.5 2t-11.5 2t-11.5 1.5t-10.5 -0.5q-3 1 -3.5 2.5
t-0.5 3.5q0 3 2.5 5t6.5 2t9 -1t9.5 -2t9.5 -2.5t9 -1.5z" />
</svg>
