<?xml version="1.0" standalone="no"?>
<!DOCTYPE svg PUBLIC "-//W3C//DTD SVG 1.1//EN" "http://www.w3.org/Graphics/SVG/1.1/DTD/svg11.dtd" >
<svg xmlns="http://www.w3.org/2000/svg" xmlns:xlink="http://www.w3.org/1999/xlink" version="1.1" viewBox="-10 0 266 256">
   <path fill="currentColor"
d="M140 212v35q0 3 2 3.5t3 0.5q5 0 6.5 -4t2.5 -10t0.5 -11.5t-0.5 -8.5v-8q0 -17 -0.5 -34t-0.5 -35v-13v-2.5t0.5 -3.5t0.5 -4v-2v-10.5t1 -5.5t3.5 -2.5t9.5 -0.5h2.5h3.5q3 3 4.5 7.5t1.5 8.5v1q0 1 -1 3.5t-1 3.5v1v0q0 2 1.5 7.5l3 11t3 10.5t2.5 7q1 3 2 7t3 7.5
t5 6.5t7 3q2 0 3.5 -1t1.5 -4q0 -4 -2 -8.5t-4.5 -8.5t-5.5 -8t-4 -7q-3 -13 -4.5 -25t-1.5 -26v-7v-7t0.5 -7t0.5 -8q1 -8 3 -14t2 -14q0 -5 -3 -8t-8 -3.5t-10 -0.5h-8h-9.5t-12.5 0.5t-11 2t-5 4.5t1 3t4 1h2.5h2.5h4h2l2 3v4.5t0.5 7.5t0.5 7.5v4.5l0.5 1.5t0.5 3
t0.5 2.5l0.5 1q0 1 -0.5 3.5l-1 5t-1 4.5t-0.5 3q-2 2 -4.5 3t-5.5 1.5t-6 0.5h-3q-2 0 -2 1v2v2.5t2 1.5h16q1 0 1 1t0.5 3.5t1.5 3.5v1q0 21 -1 42l-2 42q-1 6 -0.5 10.5t-1.5 10.5zM68 240q0 2 1.5 4t4.5 2q2 0 5.5 -2.5t4.5 -4.5q0 -1 0.5 -3.5t0.5 -5t0.5 -5t0.5 -3.5
v-15.5v-22.5v-23.5v-15.5q2 -3 5 -4t6.5 -2t6 -2.5t4.5 -6.5t3.5 -11.5t1.5 -12.5q0 -2 -1 -4.5t-4 -2.5t-4.5 5t-3 11t-4 11.5t-6.5 5.5q-1 0 -2.5 -0.5t-1.5 -1.5v-44q8 0 12.5 -1.5t7.5 -5.5t4.5 -10t2.5 -14v-6v-6q-1 -2 -3 -2.5t-4 -0.5h-2h-1l-6 30q-1 3 -3.5 3.5
t-4.5 0.5q-3 0 -3 -3q0 -9 1 -19t4 -19q0 -4 3.5 -5.5t7.5 -3t7 -4.5t3 -9q-14 0 -21.5 5t-10.5 13.5t-3 19.5t1 23q-1 2 -2.5 2h-2.5q-5 0 -7 -4t-3 -9.5t-0.5 -11t0.5 -8.5q0 -1 -2.5 -2t-3.5 -1q-2 0 -4.5 2.5t-2.5 4.5v2q1 1 1 4.5t1 7.5t1.5 7t0.5 4q1 7 4.5 10t7.5 4
t7 1.5t3 1.5v40q0 3 -1.5 4.5t-3.5 1.5q-6 0 -8.5 -2.5t-3.5 -6t-0.5 -8t0.5 -8t-1.5 -6.5t-5.5 -3q-2 0 -2.5 1t-2.5 3v2.5t-0.5 4t-0.5 4.5v2v1v4.5t1 7.5t2.5 7.5t4.5 3.5h19l1 2l0.5 2t0.5 5v4v4q0 14 -0.5 27.5t-1.5 27.5q-1 6 -3 13.5t-2 14.5zM183 43q0 2 -0.5 9
t-1.5 14.5t-2 13.5t-2 6h-22v-8.5t0.5 -13t0.5 -12.5v-9q0 -2 0.5 -6l0.5 -4h23q1 0 1.5 1.5l1 3t0.5 3.5v2z" />
</svg>
