<?xml version="1.0" standalone="no"?>
<!DOCTYPE svg PUBLIC "-//W3C//DTD SVG 1.1//EN" "http://www.w3.org/Graphics/SVG/1.1/DTD/svg11.dtd" >
<svg xmlns="http://www.w3.org/2000/svg" xmlns:xlink="http://www.w3.org/1999/xlink" version="1.1" viewBox="-10 0 266 256">
   <path fill="currentColor"
d="M80 237q0 2 -0.5 4.5t0 4.5t1.5 3.5t4 1.5q1 0 2.5 -0.5t1.5 -1.5l2 -13v-62q1 -3 1.5 -7.5t0.5 -8.5t0.5 -8t0.5 -6t2 -3t4 -1.5t3 -0.5h3q6 -8 9 -18.5t3 -20.5q0 -3 -1 -4t-4 -3q-2 1 -3 4t-1 7v9t-1 9t-3.5 6.5t-6.5 2.5q-2 0 -4 -0.5t-2 -2.5v-46l1.5 -1l1.5 -1
q10 -2 15 -4.5t7 -6.5t2 -10.5v-16.5q0 -2 -2 -3.5t-4 -1.5h-2t-1 2v2v3v3.5v2.5q-1 6 -1 10t-1 6t-4 3t-8 1q0 -1 -0.5 -3t-0.5 -4v-4v-3t0.5 -4t0.5 -6t0.5 -6t0.5 -5q2 -2 6 -4.5t8 -5.5t7 -6t3 -4q0 -3 -1.5 -3h-3.5h-3q-1 0 -2.5 1.5t-4 3t-4 3t-2.5 1.5q0 1 -1 1.5
t-2.5 1t-2.5 1.5t-2 1q-3 4 -3.5 11.5t-0.5 15t-1.5 13.5t-6.5 6q-2 0 -4 -1.5t-3.5 -3.5t-2 -4.5t-0.5 -4.5v-4v-6v-5.5v-3.5q0 -2 -1.5 -2h-2.5q-5 0 -5 6v7.5t1 9.5t2.5 9t4.5 6q4 4 7 4.5t5.5 2t3.5 4t1 8.5q0 1 -1 3.5t-1 3.5v5.5v8.5v9v6l-1 3l-2.5 -0.5t-4.5 -1.5
q-4 -1 -6 -4.5t-2.5 -8t-1 -9.5t-0.5 -9t-1 -6.5t-4 -2.5h-2t-2 2v8v11t1.5 10t4 9.5t7.5 7.5q1 1 2.5 1.5t3 0.5t3 0.5t2.5 2.5v3v4v4v3q0 6 -0.5 13t-0.5 13q0 9 0.5 18t0.5 18q0 4 -0.5 8.5t-0.5 8.5zM140 232q0 2 1.5 3t3.5 1q5 0 7 -4t2.5 -9t0 -10.5t-0.5 -7.5
q0 -4 0.5 -10.5t1 -15t1.5 -18t1.5 -18t1 -15t0.5 -9.5q2 -3 4.5 -3.5t4.5 -0.5q3 0 4.5 0.5t2.5 3.5q0 1 0.5 5t0.5 8.5t0.5 9t0.5 5.5v21q0 11 2.5 22t2.5 22q0 5 -1 10t-1 10q0 3 2 3.5t5 0.5q2 0 3 -1t1.5 -3t0 -4t-0.5 -3q0 -14 -1 -27.5t-2.5 -26.5t-3 -27t-1.5 -27
q0 -3 1.5 -5t3.5 -4t4.5 -4t3.5 -5q1 -4 2 -10.5t1 -13.5v-14v-11v-5t0.5 -8t0.5 -8v-5v-2q0 -3 -1 -3.5t-3 -0.5h-3.5t-3.5 2q0 1 0.5 3.5t0.5 5.5t-0.5 6t-0.5 4v5.5t-0.5 7t-0.5 5.5v2l-2 2l-3 0.5t-7.5 1l-9 1t-7.5 0.5h-3h-3h-3h-2l-1 -1q0 -1 -0.5 -4t-0.5 -4
q0 -6 1 -12t1 -12q0 -2 -0.5 -4.5t-3.5 -2.5q-4 0 -4.5 3.5t-0.5 6.5v6v10t0.5 15t0.5 15v10q2 3 2.5 6t1.5 6l2 6t4 6v9v10l-0.5 3t-1 5.5t-1 5.5l-0.5 3q-2 10 -2 20t-1 20l-2 20t-3 20v2zM149 79q0 -4 3.5 -6t8.5 -2.5t10.5 -0.5h7.5h8q2 2 3 4.5t1 4.5q0 6 -1.5 11
t-4.5 9t-7.5 6t-11.5 2q-6 0 -9.5 -2.5t-5 -6.5t-2 -9t-0.5 -10z" />
</svg>
