<?xml version="1.0" standalone="no"?>
<!DOCTYPE svg PUBLIC "-//W3C//DTD SVG 1.1//EN" "http://www.w3.org/Graphics/SVG/1.1/DTD/svg11.dtd" >
<svg xmlns="http://www.w3.org/2000/svg" xmlns:xlink="http://www.w3.org/1999/xlink" version="1.1" viewBox="-10 0 266 256">
   <path fill="currentColor"
d="M172 197v8t0.5 10.5t1 12t2 11.5t4 8t5.5 3t4 -1.5t1 -4.5q0 -5 -1.5 -10.5l-3 -11t-2.5 -11t-1 -11.5v-8q0 -1 0.5 -7t1.5 -12.5t2 -12t1 -7.5v0q0 -5 -2.5 -9t-5.5 -8t-5 -7.5t-2 -8.5q0 -4 2 -7.5t6 -3.5h1t1 1l2 2l3 3t3 2.5t4.5 4l4.5 4.5l3 3h2q2 0 3.5 -2t1.5 -5
q0 -4 -3 -6t-6 -3.5t-5.5 -3.5t-2.5 -7q0 -2 1 -4t2 -3.5t2 -3.5t1 -5q0 -6 -0.5 -12.5t-0.5 -13.5v-5q3 0 6.5 -2t3.5 -6v-1q-1 -1 -3 -2.5t-2 -2.5h-1q-8 0 -16.5 2.5t-17.5 2.5q0 -7 0.5 -13.5t0.5 -12.5v-4.5t-3 -2.5q-4 0 -6 4t-2 9.5v10.5v7q-1 3 -4.5 4.5t-8 3.5
t-10 3.5t-9.5 4t-7 6t-3 8.5q0 4 1 8.5t2.5 8.5t2.5 8.5t1 8.5v2l-0.5 2.5t-1.5 2.5q-1 1 -2.5 3t-3 3.5t-3 2.5l-1.5 1h-1l-4 -15q0 -1 -1 -1q-2 0 -3 0.5t-2 1.5q-1 3 -1 8t-1.5 11t-3.5 10t-6 4q-1 0 -2 -1q-2 -7 -2 -15v-15v-4t0.5 -6.5t0.5 -6.5v-4q1 -3 4 -3.5t6 -0.5
q4 -3 6.5 -5.5t3.5 -6t1 -7v-8.5v-4v-4q-1 -2 -2 -2.5t-3 -0.5h-1.5t-1.5 2l-0.5 2t-0.5 4.5t-0.5 4.5l-0.5 2q0 2 -0.5 4.5t-1 4.5t-1.5 4t-3 2q-3 0 -4 -2t-1 -4t-0.5 -6.5t0 -9.5t1.5 -10t4 -7q1 -1 5 -3l8 -4t7 -4t3 -4q0 -3 -2 -4t-4 -1q-1 0 -1.5 0.5t-1.5 0.5l-23 12
q-2 1 -3 5t-1.5 9t-0.5 10t-0.5 9.5t-1.5 7.5t-4 3q-2 0 -3.5 -1.5t-2.5 -3.5t-1 -4v-4q0 -1 -0.5 -3.5t-0.5 -5.5t-0.5 -6t-0.5 -4h-10l-0.5 1t-0.5 3v3v1v5t0.5 4t1 4.5t1.5 6.5t4.5 7t7.5 4.5t6.5 3l2.5 1.5v48q0 2 -1 4.5t-3 2.5h-1q-1 0 -1 -1q-1 0 -1.5 -0.5t-2 -1.5
t-2 -1.5t-0.5 -1.5v-29q0 -2 -2 -3t-4 -1q-4 0 -5 5v12q0 10 1.5 15.5t3.5 8t4.5 3l5 1t4.5 1t3 3.5v6v7.5v7.5v6q0 13 -1 25.5t-1 25.5v10l3 4h1h1l3 -3l2 -2q0 -2 0.5 -4.5t0.5 -5.5t0.5 -6t0.5 -4v-12v-19v-18.5v-12.5q1 -3 4 -5t6.5 -4t7 -4.5t5.5 -7.5l0.5 -2.5t1 -2.5
t2 -0.5t2.5 -0.5t2.5 -0.5l1.5 -0.5q2 0 3 -1.5l2 -3l2 -3t3 -1.5q3 0 4.5 1.5t2.5 4t1.5 5t0.5 4.5q0 3 -1.5 7t-4 8.5t-4 8t-2.5 6.5q-4 12 -5.5 23t-1.5 24q0 3 -0.5 8t0 10t2 9.5t5.5 5.5q0 1 1.5 0l1.5 -1q1 -1 1.5 -4t0.5 -4q-1 -10 -1.5 -21t0.5 -22.5t3 -22t8 -20.5
v0h1q2 0 3.5 2.5l3 5l3 5t4.5 2.5q2 0 3 -2l2 -4q-3 -3 -4.5 -5l-3 -4t-2 -4.5t-0.5 -6.5v-4l11 -13h1q3 0 6 4t5.5 9t4.5 10.5t2 9.5q0 10 -2.5 19.5t-2.5 19.5zM133 115q0 -4 2 -6.5t4.5 -5.5t4 -6t1.5 -7q0 -2 -1 -3.5t-3 -1.5h-1q-3 2 -5 6.5t-3 7.5h-4l-0.5 -1t-1 -3
l-1 -4t-0.5 -3v-2.5v-3.5q0 -10 7 -16t17 -6h3q3 0 3 2t0.5 8t1 13t1 13t0.5 8v4q0 3 -1.5 6.5t-4 6t-5.5 4.5t-5 2t-4 -1t-3 -3t-1.5 -4.5t-0.5 -3.5zM165 102v-7v-9t0.5 -8t0.5 -8.5t1 -11.5q1 -2 4 -2h5h4q3 0 5 2q0 2 0.5 5t1 7t1 7t0.5 4v1v3t-0.5 3.5t-1.5 2.5t-2 1
q-2 0 -3 -0.5t-2 -1.5t-2 -1.5t-4 -0.5q0 1 0.5 3.5t0 5.5t-1.5 5.5t-4 2.5q-1 0 -2 -0.5t-1 -2.5z" />
</svg>
