<?xml version="1.0" standalone="no"?>
<!DOCTYPE svg PUBLIC "-//W3C//DTD SVG 1.1//EN" "http://www.w3.org/Graphics/SVG/1.1/DTD/svg11.dtd" >
<svg xmlns="http://www.w3.org/2000/svg" xmlns:xlink="http://www.w3.org/1999/xlink" version="1.1" viewBox="-10 0 266 256">
   <path fill="currentColor"
d="M67 245q0 5 1 5.5t4 0.5q4 0 5.5 -1.5t1.5 -6.5q0 -4 0.5 -15t0.5 -23.5t0.5 -23.5t0.5 -15v-13l1.5 -1l1.5 -1q1 0 3 -0.5t4.5 -1.5l5 -2l2.5 -1q5 -8 7 -16.5t2 -17.5v-8l-2 -2h-1h-1q0 1 -1.5 2.5l-1.5 1.5q0 4 -0.5 10t-2 11.5t-5 10t-9.5 4.5q-1 0 -2 -0.5t-1 -1.5
v-49q0 -1 2 -2.5t5 -3t5 -2t3 -0.5q4 -2 6.5 -7t4 -10.5t2 -11.5t0.5 -9t-1 -3.5t-3 -0.5t-4 1.5t-2 3.5v24q0 1 -2 2t-3.5 1.5t-3.5 1l-2 0.5h-1h-1l-1 -0.5l-1 -0.5v-31l1 -1.5t1 -2.5l2 -2l2.5 -2.5l2.5 -2.5t1 -2q1 0 3.5 -1.5l5 -3t5 -2.5t3.5 -2v-2q0 -3 -1 -4t-4 -1
q-2 0 -7 2.5t-10.5 6.5t-9.5 8t-4 6v35q0 3 -2.5 3.5t-3.5 0.5q-3 0 -5 -3t-2.5 -7t-0.5 -9v-9.5t-1 -7.5t-2 -3q-3 0 -5 3.5t-2 5.5q0 9 1 17.5t6 15.5q1 3 4 4t5 2t4 2.5t3 5.5v4v6v5v4q0 2 1 7t0.5 10.5t-2.5 9.5t-6 4t-6 -4.5t-2.5 -10.5t-0.5 -12v-8q-1 0 -2 -1t-2 -1
t-2.5 1.5l-2.5 2.5v7q0 10 1.5 16.5t4 10t5 5t5 2.5t4.5 1.5t2 2.5q1 7 1 13v13v26.5t-3 27.5q0 2 -1 6zM96 168q0 7 4.5 16t11.5 16.5t15 12.5t16 5q15 0 23 -3t12 -9.5t5.5 -16.5t4.5 -23q0 -1 0.5 -2.5l0.5 -1.5q2 -2 5.5 -5t7.5 -5.5t6.5 -5t2.5 -4.5t-1.5 -3t-3.5 -1
l-0.5 0.5t-1.5 0.5l-2 1l-4 2t-4 2.5t-3 1.5q-6 4 -9 10t-4 13l-2 14t-3.5 12.5t-8.5 8.5t-16 3t-16.5 -3.5t-12 -9.5t-9.5 -13.5t-8 -16.5l-3 -4q-2 1 -2.5 3t-0.5 5zM124 159q3 5 7.5 8.5t11.5 3.5q5 0 8.5 -3t5 -7.5t2.5 -10.5t1.5 -12t1.5 -11t2 -8q3 -5 7.5 -5t9 -1
t8 -5.5t4.5 -17.5v-5t0.5 -6.5t1 -6.5t0.5 -4q0 -4 1.5 -9l3 -10t2.5 -10t1 -9q0 -2 -0.5 -3.5t-3.5 -1.5q-4 0 -6.5 4.5t-3.5 12t-1.5 16.5t-1.5 17t-2 14.5t-3 9.5q-1 1 -2 2.5t-2.5 3l-2.5 2.5l-1 1q-1 1 -3.5 -0.5t-3.5 -1.5v-22q0 -10 2 -21q1 -10 3 -20.5t2 -21.5
q0 -3 -1 -6t-5 -3h-1q-1 0 -2 1l-1 1q1 24 -1.5 48.5t-5.5 49.5q-1 5 -1 10.5t-0.5 11.5t-1.5 11t-4 10q-2 3 -3.5 3.5t-4.5 0.5q-2 0 -5 -0.5t-3 -3.5q0 -1 -0.5 -3.5t-0.5 -5.5v-5v-4q0 -21 2.5 -41t4.5 -40q1 -6 4 -13t3 -13q0 -3 -1.5 -5t-4.5 -2q-2 0 -3.5 3.5
t-2.5 8.5t-2 11t-1.5 11t-1 9t-0.5 6t-0.5 8.5t-1 14t-1 14t-0.5 8.5q0 1 -1 4l-1 3v3v4v6v4v3.5v5.5v5.5v3.5z" />
</svg>
