<?xml version="1.0" standalone="no"?>
<!DOCTYPE svg PUBLIC "-//W3C//DTD SVG 1.1//EN" "http://www.w3.org/Graphics/SVG/1.1/DTD/svg11.dtd" >
<svg xmlns="http://www.w3.org/2000/svg" xmlns:xlink="http://www.w3.org/1999/xlink" version="1.1" viewBox="-10 0 266 256">
   <path fill="currentColor"
d="M68 242v0q0 1 0.5 2.5l1 3t1.5 2.5t2 1q2 0 5 -2t3 -3v-92q0 -1 2 -2.5t4.5 -2.5t5 -1.5t2.5 -1.5q5 -2 7 -8t3 -13t1 -14v-12q-5 0 -7.5 2.5t-3 6.5t-0.5 8.5t-0.5 9t-2.5 8t-6 5.5l-1.5 -0.5t-2.5 -0.5q0 -1 -0.5 -1.5l-0.5 -0.5v-4v-4q0 -7 0.5 -17t0.5 -16q1 -6 4 -8
t7 -3.5t7.5 -4t4.5 -8.5q0 -1 0.5 -3.5t1.5 -5.5t1 -6t1 -4v-2q0 -3 -1.5 -5t-4.5 -2h-1h-2q0 3 -0.5 8.5t-1.5 11t-4 9.5t-7 4h-1q-1 -1 -2 -3t-2 -2v-10q0 -9 0.5 -17.5t4.5 -15.5q2 -2 4 -3.5t5 -3t4.5 -3.5t1.5 -4q0 -3 -2 -3.5t-5 -0.5q-7 0 -11.5 3.5t-7 9.5
t-3.5 12.5t-1.5 14t0 13.5t0.5 11q0 2 -1 2h-2q-2 0 -3.5 -2t-2.5 -4.5t-1.5 -5t-0.5 -3.5q0 -2 -0.5 -4t-0.5 -5t-0.5 -5.5t-0.5 -3.5q-1 -2 -2 -2.5t-2 -0.5q-3 0 -5 2t-2 5v7t0.5 8t1.5 8t3 6q2 3 5.5 4.5t6.5 2.5t5 3t2 6v11v16.5t-1.5 15t-3.5 6.5t-4 -2t-3 -5t-1.5 -6
t-0.5 -4t-0.5 -4t-0.5 -6t-0.5 -5.5t-0.5 -3.5q-1 -3 -2.5 -3.5t-3.5 -0.5t-3 1.5t-1 4.5v1q0 2 0.5 5t0.5 5.5t0.5 5.5l0.5 3q1 10 5 14.5t8 6t7 2t3 3.5v51q-2 9 -2.5 19t-0.5 19zM138 101q-3 0 -4.5 1.5t-1.5 5.5v55q0 12 5.5 16.5t15.5 4.5h9.5t11 -1t10 -4t5.5 -9
q0 -7 0.5 -12.5t0.5 -11v-11v-11.5v-6v-5v-5.5t-1 -6.5q-1 -1 -2.5 -2t-3.5 -1h-1l-1 0.5t-2 1.5q0 2 0.5 6t0 8.5t-1 8.5t-2.5 6q-4 1 -7 1.5l-6 1t-5.5 0.5h-6.5h-6q-1 0 -1.5 -0.5l-0.5 -0.5q0 -1 -0.5 -2t-0.5 -2.5t-0.5 -3l-0.5 -1.5l0.5 -2l1 -4t0.5 -3.5v-2.5v-2
q0 -3 -0.5 -5t-4.5 -2zM143 166v-22l4 -1.5t9.5 -2.5t10.5 -1.5t7 -0.5t3.5 1t1.5 3v2q0 2 -0.5 5t-0.5 6.5t-0.5 6.5t-0.5 4q0 4 -3 6t-5 2h-19zM112 87v2.5t2 1.5q3 0 7 -4.5t8.5 -11t9.5 -14.5t9.5 -14.5t8 -11t6.5 -4.5q2 0 5.5 4.5t7 10.5t8 13.5t8.5 14t7.5 10.5
t6.5 4q2 0 5 -2t3 -5q0 -1 -4 -6.5t-9.5 -13.5t-12 -16.5t-12.5 -16l-10 -12.5t-5 -5q-3 0 -4 1t-2 4q-2 4 -6 10t-8.5 13.5t-9.5 15t-9.5 14t-7 11.5t-2.5 7zM138 82v1v0l1.5 1.5l1.5 1.5h8h7.5t11.5 -0.5t11 -2t5 -3.5v0v-1q-1 -2 -3 -2.5t-4 -0.5h-1q-2 0 -7 0.5t-11 1
t-11 1t-7 0.5l-1 0.5t-1 1.5v1z" />
</svg>
