<?xml version="1.0" standalone="no"?>
<!DOCTYPE svg PUBLIC "-//W3C//DTD SVG 1.1//EN" "http://www.w3.org/Graphics/SVG/1.1/DTD/svg11.dtd" >
<svg xmlns="http://www.w3.org/2000/svg" xmlns:xlink="http://www.w3.org/1999/xlink" version="1.1" viewBox="-10 0 266 256">
   <path fill="currentColor"
d="M65 249q0 3 4 3t6 -6t2.5 -14t1 -15.5t0.5 -10.5v-7.5t0.5 -12t0.5 -12.5v-8q0 -1 0.5 -4.5t0.5 -8.5q0 -4 -0.5 -7.5t-0.5 -4.5q4 -2 8 -3l8 -2q4 -2 7.5 -6t5.5 -9.5t3 -11t1 -9.5q0 -3 -1.5 -3.5t-5.5 -0.5q-3 0 -4 2.5t-1.5 6t-1 8t-1.5 8t-3.5 6t-6.5 2.5h-1l-5 -2
v-43q14 -4 23.5 -13.5t9.5 -24.5q0 -5 -5 -5q-1 0 -2 0.5t-2 1.5q-1 2 -1.5 6.5t-2.5 9.5t-5 8.5t-7 3.5q-1 0 -2.5 -0.5t-1.5 -1.5v-4v-3q0 -10 0.5 -16t3 -11t7.5 -8.5t14 -7.5v-1v-2q0 -3 -2 -3.5t-5 -0.5q-8 0 -14.5 5.5t-10.5 12.5q0 1 -0.5 5t-0.5 8t-0.5 8t-0.5 6
v4.5t-0.5 4.5t-2 3.5t-4.5 1.5h-2t-1 -1q-2 -1 -5 -3.5l-3 -2.5v-24l-2 -4h-9q-1 0 -1.5 2t-0.5 3q0 3 0.5 7t1.5 8.5t2 8t1 5.5q1 3 4.5 5.5t7.5 4.5t7.5 3l3.5 1v39q0 5 -1 5.5t-4 0.5q-4 0 -7 -2t-5 -5q0 -1 -0.5 -3.5t-1 -5.5t-0.5 -5v-3q0 -2 -0.5 -3.5t-1.5 -3l-2 -3
t-3 -1.5t-3.5 2t-1.5 4v1q0 2 0.5 5.5t0.5 6.5t0.5 5l0.5 2q1 7 3 10.5t5.5 5t8 2t10.5 1.5v5v15t-0.5 16t-1 15.5t-0.5 13.5q0 11 -2.5 22t-2.5 23zM137 209q3 4 7 7t8 5h5h5h8t12.5 -1.5t11.5 -3.5t6 -5l4 -15v-59q0 -3 -2.5 -4t-4.5 -1h-2h-2v2.5t-0.5 3.5t-0.5 3.5v2.5
q-1 0 -1.5 1l-0.5 1h-45l-0.5 -1.5t-0.5 -2.5q-1 -1 -2 -4t-2 -4v0q-2 0 -4 1t-3 2v21v13t0.5 12l1 12t2.5 14zM145 202q-2 -8 -2.5 -15t-0.5 -15v-6v-5l2 -1q0 -1 2.5 -1.5t6 -1t7.5 -1t6 -0.5h11h11q1 0 3 1l2 1v34q0 6 -2.5 9.5t-6.5 5.5t-8.5 3t-8.5 1q-7 0 -12 -1.5
t-10 -7.5zM152 183q0 2 1 4t3 2h6t8.5 -1t8 -2.5t3.5 -4.5t-1.5 -4t-4.5 -1q-1 0 -5 0.5t-8.5 1t-7.5 2t-3 3.5zM135 63v11q0 1 1 4t1.5 6.5t1.5 6.5t1 4q1 1 1.5 4.5t1 8t2 7.5t3.5 3q4 0 5 -2.5t1 -5.5q0 -6 -5 -10q-1 -9 -3 -18.5t-2 -18.5q0 -23 22 -23h3.5t1.5 3
q3 11 6 20t6 17.5t7.5 17t9.5 19.5l1.5 1.5t2.5 0.5q3 0 5 -2t2 -5q0 -2 -0.5 -3t-1 -1.5t-1.5 -2l-3 -4.5q0 -2 -2.5 -6t-5 -9t-4.5 -9.5t-3 -6.5q-3 -5 -6.5 -12.5t-3.5 -14.5q0 -6 3.5 -7t8 -1.5t8.5 -1.5t4 -8h-18q-9 0 -18.5 1.5t-17.5 5.5t-13 11q-1 2 -1.5 5t-0.5 6
v5.5v3.5z" />
</svg>
