<?xml version="1.0" standalone="no"?>
<!DOCTYPE svg PUBLIC "-//W3C//DTD SVG 1.1//EN" "http://www.w3.org/Graphics/SVG/1.1/DTD/svg11.dtd" >
<svg xmlns="http://www.w3.org/2000/svg" xmlns:xlink="http://www.w3.org/1999/xlink" version="1.1" viewBox="-10 0 266 256">
   <path fill="currentColor"
d="M122 248q1 0 2.5 1.5t2.5 1.5q1 -1 4 -2t3 -4v-58l3 -2q16 -1 28.5 -7.5t23.5 -18.5q1 -1 1 -2.5v-2.5q0 -2 -1 -4.5t-3 -2.5q-3 0 -7 4.5t-9 9.5t-12 9.5t-17 4.5h-3t-2 -1l-0.5 -2.5t-0.5 -5t-0.5 -4.5t-0.5 -3v-3q0 -3 3 -5t7 -3.5t8.5 -3t8.5 -4t7 -5.5t3 -8
q0 -2 -2 -3t-4 -1t-4 1.5t-3.5 3.5t-2.5 4t-3 4t-6 3.5t-7 1.5t-3.5 -2t-0.5 -4q0 -5 3 -8.5t6.5 -6t8.5 -4t9 -3.5v-1.5v-1.5q0 -2 -2.5 -2.5t-4.5 -0.5q-3 0 -7 1.5t-8.5 4t-7.5 5.5l-5 5v6t-1 6t-2.5 5t-5.5 2q-7 0 -11 -4t-6 -8l-4 -8t-6 -4q-7 0 -7 7t4.5 11t10.5 6.5
t12.5 4.5t10.5 4q0 1 0.5 4t0.5 5.5t0.5 5t0.5 3.5v2q0 4 -5 4q-10 0 -16.5 -4.5t-11 -10t-8.5 -10t-11 -4.5q-2 0 -4.5 0.5t-2.5 3.5q0 5 5.5 10t12.5 9.5t14.5 8t12.5 4.5h2t3.5 0.5t3 0.5h2.5q2 1 2.5 2.5t0.5 3.5q0 9 -1 18.5t-1 19.5v21zM87 169q2 0 2 1q0 2 -2 2
q-1 0 -1 -2q0 -1 1 -1zM174 114q0 1 0.5 2t2.5 1q3 0 6 -3t5.5 -8t4.5 -10.5t3.5 -10.5t2 -9t0.5 -6v-2.5v-3.5q-4 -4 -11.5 -5.5t-14.5 -3t-12.5 -3.5t-5.5 -7q0 -4 3 -6.5t7 -4.5t9 -3.5t9.5 -3.5t7 -3.5t2.5 -3.5v-0.5v-0.5l-0.5 -0.5t-1.5 -0.5h-5q-5 0 -12 2t-13 6
t-10.5 9.5t-4.5 11.5q0 3 1.5 5t3.5 3.5t3 3.5t1 4q0 8 -4 17.5t-9 15.5v2q0 1 0.5 2t2.5 1q3 0 5.5 -2.5t5 -6t4 -7t2.5 -6.5l0.5 -2t1.5 -4.5t1.5 -4.5t0.5 -3q1 -2 3.5 -2.5t4.5 -0.5q3 0 7 1.5t6 4.5v6q0 7 -2 12.5t-4 11.5q-1 4 -4 7.5t-3 8.5zM98 105q0 2 1 3t3 1
t4 -0.5t2 -2.5v-21l4 -1q1 -1 4.5 -1.5t6 -1.5t5 -2.5t2.5 -3.5v-1l-0.5 -1.5t-1.5 -1.5h-1.5h-2.5q-4 0 -7.5 2t-7.5 2q-1 0 -1.5 -1t-1 -2.5t0 -2.5t0.5 -2v-2v-3q1 -2 3.5 -2.5t5.5 -0.5t4.5 -1t1.5 -3v-2.5t-1 -1.5h-14q-1 0 -1.5 -0.5l-0.5 -0.5v-2.5v-2.5v-2v-2
q1 0 3 -1t4 -1.5l4 -1t3 -1.5h1.5t2.5 -0.5t2 -0.5h2l0.5 -0.5l0.5 -0.5l-0.5 -1.5l-0.5 -1.5q-1 -1 -2 -1h-16q-3 0 -4 -2.5t-1.5 -5t0 -5l0.5 -2.5q-1 -1 -3 -2.5t-3 -1.5t-2 0.5l-1 0.5v19q0 3 -6 3.5t-12.5 0.5t-12.5 1.5t-6 6.5q0 1 0.5 2t1.5 2h6q6 0 12 -2.5t13 -2.5
q4 0 5.5 2.5t1.5 6.5q0 3 -2.5 4t-7 2t-9 1t-8.5 1t-6.5 2.5t-2.5 3.5t2 3.5t4 1.5q4 -2 7 -2.5t5.5 -1l5 -1t6.5 -0.5q6 0 6.5 2.5t0.5 8.5v1l-0.5 1l-0.5 1q-1 1 -3 1t-4 1t-4 1t-3 1q-2 0 -6.5 1t-9.5 2t-8.5 3t-3.5 5v2.5t1 1.5h12l24 -10h5l0.5 4t0.5 6q0 1 -0.5 3.5
l-0.5 2.5v1z" />
</svg>
