<?xml version="1.0" standalone="no"?>
<!DOCTYPE svg PUBLIC "-//W3C//DTD SVG 1.1//EN" "http://www.w3.org/Graphics/SVG/1.1/DTD/svg11.dtd" >
<svg xmlns="http://www.w3.org/2000/svg" xmlns:xlink="http://www.w3.org/1999/xlink" version="1.1" viewBox="-10 0 266 256">
   <path fill="currentColor"
d="M72 242q0 2 0.5 4t3.5 2q2 0 3.5 -1.5t2.5 -3t1.5 -4t0.5 -3.5q-1 -22 -0.5 -43t2.5 -43q0 -2 3 -2.5t6 -1.5t6 -3t4 -7q2 -7 3.5 -13t1.5 -13q0 -3 -1 -4t-4 -1t-4 2.5t-1.5 6.5t-0.5 8.5t-1 8t-3.5 6.5t-7.5 3l-0.5 -0.5t-0.5 -1.5v-50l0.5 -1l0.5 -1l10.5 -1.5t5 -1
t2 -3.5t2.5 -11q1 -5 2 -10.5t1 -11.5v-3t-2 -2q-4 0 -6 3q0 3 -0.5 8t-1 10.5t-3 10t-7.5 4.5q-2 0 -2.5 -0.5t-1.5 -3.5l-0.5 -2.5t-0.5 -3.5q0 -3 0.5 -7t1 -8.5t1.5 -8t2 -6.5q2 -3 6.5 -5t8.5 -4t7 -4t3 -4t-2 -3.5t-4 -1.5q-4 0 -9.5 2.5t-9.5 6.5t-7.5 9t-3.5 9
q0 2 -0.5 7t-0.5 10t-0.5 9.5t-0.5 6.5q-1 2 -2 3t-3 1q-4 0 -7 -4t-3 -9v-4v-7v-6.5v-4.5l-2 -1t-3 -1h-1v0q-1 0 -1.5 1l-0.5 1v11q0 12 1.5 18t4 8.5t6 2.5t6 1.5t4 5.5t1.5 13v8t-0.5 12t-2.5 10.5t-5 4.5q-4 0 -5.5 -2.5t-2 -6.5t-0.5 -8.5v-8.5t-1 -6.5t-4 -2.5
q-2 0 -3.5 1.5t-2 3.5t-0.5 4v4q0 8 1 14t4 9.5t8 5t13 1.5v3q0 23 -2 45.5t-2 45.5zM156 117q1 15 -0.5 27.5t-5 23.5t-9 22t-12.5 24q-3 3 -6 6.5t-6.5 7.5t-5.5 8.5t-2 8.5h8l1.5 -1.5t3.5 -4t4.5 -4.5t3.5 -4q4 -5 7.5 -11t6.5 -12t5.5 -12.5t5.5 -12.5v0h1t3.5 4.5
t5.5 11.5t7 15l7.5 15t7 11.5t6.5 4.5t4 -2t1 -5q0 -4 -2.5 -9t-6 -9.5t-7.5 -9t-6 -8.5q-3 -6 -5 -11.5t-5 -11.5q-1 -14 -1.5 -29t0.5 -29q0 -1 -0.5 -2t-1 -2.5t-1.5 -2t-3 -0.5l-1 1.5t-2 1.5zM184 143l0.5 4t1 9.5t1 12t2 12t3 9t3.5 3.5q3 0 3.5 -3.5t0.5 -5.5
q0 -3 -0.5 -10.5t-2 -16t-4 -15t-4.5 -6.5q-3 0 -3.5 2t-0.5 5zM122 188q0 2 0.5 3t1.5 1q2 0 4 -1.5t2 -4.5q0 -1 0.5 -3.5t1.5 -5.5t1 -5v-3t0.5 -5t0.5 -8.5v-8.5v-6h-8q0 11 -2 24t-2 23zM123 122q0 2 1.5 2.5t2.5 0.5q4 0 8 -4t9 -8t10.5 -7.5t11.5 -3.5h3t4 2
q2 0 5 1.5l3 1.5l17 17l0.5 0.5t1.5 0.5q3 0 4 -2t1 -5t-2 -5.5t-4.5 -4.5t-5.5 -3.5l-5 -2.5q-1 -1 -4 -2.5l-6 -3l-6 -3t-4 -2.5l-2 -3v-1v-2v-3v-2v-6v-8.5t1 -8t4 -3.5q3 -1 6 1.5t6 6t6 6.5t7 3q2 0 3.5 -0.5t1.5 -3.5t-5 -6.5t-10.5 -6.5t-10.5 -6t-6 -5
q-1 -3 -1.5 -7t-0.5 -8t0.5 -7.5t0.5 -6.5l-2 -2l-1 -1h-1q-3 0 -4.5 1.5t-1.5 4.5v26q0 6 -5 9.5t-11 6t-11 5.5t-5 10q0 2 2 2h3q3 0 6 -2.5t5.5 -6t6 -6t6.5 -2.5h1.5t1.5 2v29l-1.5 1.5l-1.5 1.5q-8 6 -16.5 13t-15.5 15v1z" />
</svg>
