<?xml version="1.0" standalone="no"?>
<!DOCTYPE svg PUBLIC "-//W3C//DTD SVG 1.1//EN" "http://www.w3.org/Graphics/SVG/1.1/DTD/svg11.dtd" >
<svg xmlns="http://www.w3.org/2000/svg" xmlns:xlink="http://www.w3.org/1999/xlink" version="1.1" viewBox="-10 0 266 256">
   <path fill="currentColor"
d="M109 245q0 6 7 6q4 0 3 -5v-7.5v-11.5v-11v-8q0 -2 0.5 -5.5t1.5 -7.5t2.5 -7.5t3.5 -4.5q4 0 9 -1t10 -3t8.5 -5.5t3.5 -9.5q-4 0 -6.5 1.5t-5.5 2.5t-6 2.5t-7 1.5l-2 -0.5l-2 -0.5q1 -5 4.5 -8.5t7 -6.5t7.5 -5.5t8 -6.5q0 -1 -1 -1.5t-2.5 -0.5h-2h-1.5q-6 0 -10.5 4
t-8 8.5t-6 8t-6.5 3.5q-3 0 -3.5 -3t-0.5 -5q0 -6 3.5 -9.5t8 -6.5t8 -6t3.5 -7q-6 0 -11.5 3t-10 8.5t-7 11.5t-2.5 12q0 5 4 8l8 6q-4 7 -6 15.5t-2.5 17.5t-0.5 18v16zM192 178q2 1 3.5 6.5t2 13.5t1 17.5t1 17t1.5 13t3 5.5q4 0 5 -2.5t1 -6.5q0 -9 -1 -17t-3 -16
t-3 -15.5t-1 -15.5q0 -3 1 -5t2.5 -4.5t2.5 -5t1 -8.5q0 -5 -2 -10t-6 -9t-9 -6t-10 -2h-1l-1 1l-2 2v1q0 1 3.5 4t8 6.5t7.5 7.5t3 9q0 1 -0.5 2t-1.5 1t-3.5 -3t-6 -6.5t-9 -7t-13.5 -3.5h-1l-0.5 1l-0.5 1v1q0 2 4 3.5t8.5 3.5t8.5 5.5t4 11.5h-2.5t-3 0.5t-3 0.5h-2.5
l-1.5 -1l-3 -2t-3 -1.5t-2.5 -0.5l-1.5 -0.5l-1.5 -0.5q0 5 3 8t7 4.5t9 1.5h8zM68 246q0 1 1.5 1.5t2.5 0.5q3 0 5 -3.5t2 -6.5v-92q0 -3 2.5 -4.5t5.5 -2.5t6.5 -3t4.5 -5v-2v-3v-2.5v-2.5l1 -3l1 -3v-3v-4v-4v-4q-1 0 -3 -0.5l-2 -0.5q-2 0 -2.5 5t-1.5 11t-3 11t-6 5
q-2 0 -3.5 -1.5t-1.5 -3.5q0 -11 0.5 -22.5t3.5 -22.5q1 -3 3.5 -4t5.5 -1.5t5.5 -3t4.5 -7.5q0 -2 0.5 -4.5t1 -4.5t1 -5t0.5 -4q0 -2 -0.5 -3.5t-2.5 -1.5q-4 0 -5 4.5t-2 9.5t-3 9t-7 4h-1l-1.5 -0.5l-1.5 -0.5v-1v-1q0 -2 0.5 -6.5t0.5 -9.5t0.5 -9.5t0.5 -6.5
q0 -5 3.5 -7t8 -3.5t8.5 -3.5t5 -6q1 -1 0 -2t-2.5 -1.5t-3 -0.5h-1.5q-3 0 -8 2t-9.5 6t-8 8t-3.5 8v34l-1 0.5l-1 0.5q-5 0 -7 -3.5t-3 -7.5l0.5 -1.5t0.5 -2.5t0.5 -2.5l0.5 -1.5v-1q0 -2 -1.5 -3t-3.5 -1.5t-4 -0.5h-3q0 10 2 15.5t4.5 9t5 5.5t5.5 3.5t4.5 4.5t1.5 8v9
t-0.5 8t-0.5 8.5t-1 10.5q0 2 -1 3.5t-3 1.5q-3 0 -4.5 -1.5t-1.5 -4.5v-25q0 -2 -2.5 -2.5t-4.5 -0.5h-0.5h-1.5v2.5t-0.5 3.5t-0.5 3.5v1.5v2l0.5 4t1 9t2 9t2.5 4l14 3v4q0 4 0.5 9.5t0.5 9.5q0 17 -1 34.5t-1 34.5v3v4.5v4.5v3zM136 226q0 2 1 4l2 4t2.5 3.5t2.5 1.5h28
q3 0 5 1.5t4.5 3.5t5 3.5t7.5 1.5q0 -3 -2.5 -6t-5.5 -5.5t-6.5 -4.5t-6.5 -2h-23q-4 0 -5 -2.5t-1 -4.5q0 -4 3 -5.5t7.5 -2t10 -0.5t10 -1t7.5 -4.5t3 -9.5t-1.5 -9t-7.5 -3h-8.5t-13 0.5t-11.5 1.5t-5 4q0 2 2 2h5q3 0 5.5 1.5t2.5 7.5q0 4 -2.5 5.5t-5.5 2.5t-6 3.5
t-3 8.5zM160 202q0 -5 4 -5.5t9 -0.5q2 0 3.5 0.5t1.5 3.5q0 4 -4 5.5t-7 1.5h-2.5h-2.5q-1 -1 -1.5 -2t-0.5 -3zM153 120l3 3l6 -6v-31l0.5 -1.5t1.5 -1.5q0 -1 0.5 -2l0.5 -1h39q2 0 3.5 -2.5t1.5 -3.5q0 -3 -1.5 -4t-3.5 -1q-3 0 -5 0.5t-5 3.5h-32q-1 0 -1.5 -2l-0.5 -2
q0 -8 1 -18t4 -17q1 -3 4.5 -4t6.5 -1.5t6 -2t3 -5.5q0 -3 -1 -4t-3 -1q-3 0 -7 1.5t-8 4t-7 6t-3 6.5q-1 4 -1 9t-0.5 10t-0.5 10v10h-5.5t-9.5 0.5t-9.5 0.5h-5.5h-3t-4.5 0.5t-4 1.5t-1.5 3v2t1 2h9q7 0 13.5 -1t12.5 -1h2h2l2 3v36zM125 114q0 2 1 2.5t3 0.5q3 0 5.5 -3
t4.5 -7t3 -8t1 -6v-1l-1.5 -1.5l-1.5 -1.5h-1q-1 0 -3.5 3t-4.5 7.5t-4 8.5t-2 6zM170 92q0 3 2 6.5t4.5 7t5.5 5.5t5 2t3 -0.5t1 -2.5q0 -3 -2 -6.5t-4.5 -7t-5.5 -5.5t-6 -2q-2 0 -2.5 1t-0.5 2zM129 43q0 2 1 4.5t2.5 5.5t2.5 6t2 4l1 2.5t2 2.5q2 0 3 -2t1 -4v-1
q0 -1 -0.5 -4t-1.5 -6t-1.5 -5.5t-0.5 -3.5q-1 -2 -2 -3.5t-4 -1.5q-2 0 -4 1.5t-2 3.5l0.5 0.5zM188 38q-3 0 -6.5 3t-6.5 7t-5 8.5t-2 7.5q2 0 6 -2.5t8 -6t7.5 -7t3.5 -5.5q0 -3 -1.5 -4t-3.5 -1z" />
</svg>
