<?xml version="1.0" standalone="no"?>
<!DOCTYPE svg PUBLIC "-//W3C//DTD SVG 1.1//EN" "http://www.w3.org/Graphics/SVG/1.1/DTD/svg11.dtd" >
<svg xmlns="http://www.w3.org/2000/svg" xmlns:xlink="http://www.w3.org/1999/xlink" version="1.1" viewBox="-10 0 266 256">
   <path fill="currentColor"
d="M74 243q0 2 1 5t4 3h1v0l3 -3t2 -3v-9q0 -21 -1 -41.5t-1 -41.5v-3v-4q0 -3 0.5 -5t0.5 -3q1 -2 4 -3t5 -2q5 -2 8 -6t4.5 -8.5t2 -9.5t0.5 -10v-2t-0.5 -3.5l-1 -3t-1.5 -1.5q-4 0 -5.5 2.5t-2 6.5t0 8.5t0 8.5t-2 7t-5.5 3q-3 0 -6.5 -2t-3.5 -6v-38q0 -2 2 -3t4 -1.5
l4 -1l2 -0.5q5 -1 8 -4.5t4 -7.5t1.5 -9t0.5 -10v-3q0 -3 -0.5 -3.5t-3.5 -0.5h-2t-2 1v7t-0.5 9.5t-3 8.5t-6.5 4h-3t-3 -2v-3v-4v-4v-3q0 -10 2 -18.5t2 -18.5q-2 0 -4 0.5t-3.5 1.5t-3 3t-1.5 4v38q0 7 -6 7q-4 0 -6 -3t-3 -7.5t-1.5 -9t-0.5 -6.5q-2 -2 -5 -2t-4 2.5
t-1 4.5q0 11 2 16.5t5 8.5t6.5 3t6.5 0.5t5 1t2 4.5v42q0 4 -1 4.5t-3 0.5q-5 0 -7.5 -2.5t-3 -6t-0.5 -8.5t-0.5 -9t-2 -7t-5.5 -4q-2 0 -3.5 2t-1.5 4v3.5t0.5 7.5t1 9.5t1.5 9.5t2 7t3 3h16l4 3q-1 18 0 35t1 35q0 8 -0.5 17t-0.5 18zM144 186q13 -1 24.5 0.5t24.5 1.5h3
t4.5 -0.5t4.5 -0.5h3t1.5 -1t0.5 -2q0 -2 -1.5 -3t-3.5 -2h-5.5h-7.5h-7.5h-4.5q-2 0 -5 -1.5l-5 -2.5q-1 -5 -1.5 -9t-0.5 -9q0 -4 5 -4.5t11 -1.5t11 -5t5 -15v-5t-0.5 -8t-2 -7t-4.5 -3q-2 0 -2.5 0.5t-0.5 3.5t0.5 8.5t0 10t-3 8t-7.5 3.5h-3t-3.5 -0.5t-2.5 -1.5t-1 -3
v-30q0 -4 5 -4.5t11.5 -1t11.5 -1.5t5 -7q0 -2 -1.5 -2h-3.5h-3q-1 0 -3.5 0.5t-5.5 1l-6 1l-3 0.5q-3 1 -10.5 1.5t-15.5 1t-15 1t-10 0.5q-1 0 -1.5 1t-0.5 2v2q1 1 4.5 1.5t4.5 0.5h1q4 0 8 -1t9 -1q2 0 3.5 0.5l4.5 1.5q0 1 0.5 2.5t1 3.5l1 4l0.5 2v2v2q0 3 -0.5 10.5
t-1 15.5t-1 15.5t-0.5 10.5q-2 2 -3.5 3t-4.5 1q-4 0 -7 -2t-3 -7l-3 -46l-1.5 -0.5t-2.5 -0.5h-1v0q-1 0 -1.5 0.5l-0.5 0.5v4v5v6v3q0 4 -0.5 11.5t0.5 15t3.5 13t9.5 6.5zM132 42q0 4 0.5 7t1 6.5t1 7.5t1.5 9q1 3 4 5t7 2.5t8 0.5h7h7.5t11.5 -1.5t11 -3.5t5 -5v-39
q0 -7 -5 -10t-10 -4h-3h-3.5h-3.5h-3q-7 0 -13.5 0.5t-12 3t-8.5 7.5t-3 14zM144 61v-5q7 -4 13 -4h13h3h4h4h2q4 3 4 7q0 7 -4 10t-9.5 4t-11 0.5t-9.5 -0.5q-6 0 -7.5 -3.5t-1.5 -8.5zM142 42q0 -6 2.5 -9t6.5 -5t9 -2h9h6t5 1t3.5 3t1.5 6l0.5 1t0 2.5t-1 2.5t-1.5 1
q-9 0 -18 1t-18 1h-3.5t-1.5 -3z" />
</svg>
