<?xml version="1.0" standalone="no"?>
<!DOCTYPE svg PUBLIC "-//W3C//DTD SVG 1.1//EN" "http://www.w3.org/Graphics/SVG/1.1/DTD/svg11.dtd" >
<svg xmlns="http://www.w3.org/2000/svg" xmlns:xlink="http://www.w3.org/1999/xlink" version="1.1" viewBox="-10 0 266 256">
   <path fill="currentColor"
d="M184 179q1 4 1.5 7t1 5l1 4l1.5 6v4t0.5 7t0.5 7.5v4.5t0.5 3.5t1.5 5.5t1 6t1 4q0 2 1 4.5t3 3.5q2 0 3 -1t1.5 -2.5t0.5 -3.5v-3q0 -7 -2 -14.5t-3 -14.5q-1 -16 -2.5 -30.5t-1.5 -30.5v-39q-2 -3 -7 -4.5t-11.5 -1.5t-14 0.5t-14 0t-10.5 -1.5t-4 -5t4 -7.5t8 -4.5
l45 -3q3 0 3.5 -1.5t0.5 -2.5q0 -3 -2 -3.5t-4 -0.5l-1 0.5l-1 0.5q-2 0 -7.5 0.5t-12 1t-12 0.5t-7.5 1q-9 2 -14 6t-7.5 10t-3 13.5t-0.5 16.5v2q0 2 0.5 6.5t1 9.5t1 9.5t0.5 5.5q4 9 10 12.5t13.5 5t16 1t16.5 -0.5zM73 235q0 2 0.5 3.5t3.5 1.5q1 0 2.5 -1t2.5 -2.5
t1.5 -3t0.5 -3.5q2 -26 2.5 -52.5t-0.5 -53.5q7 -2 11 -3t6.5 -2.5t4 -5.5t3.5 -14v-1v-1q0 -4 -3 -7q-4 2 -5 6l-2 8t-3 7t-6 3h-2t-2.5 -0.5t-1.5 -1.5v-30q0 -1 2 -2t4.5 -2t6 -2.5t6 -4.5t4.5 -8.5t2 -12.5q0 -5 -5 -5h-2q-2 0 -2 1q-1 1 -1 3.5t-0.5 5t-1 4.5t-0.5 3
q-1 2 -3 4t-4 2t-2.5 -1.5t-0.5 -3.5q0 -7 0.5 -13t1.5 -13q0 -3 3.5 -5.5t6.5 -4.5l6 -4t3 -4t-2 -3.5t-4 -1.5t-6 2.5t-8 5.5t-7 6.5t-3 5.5v34q0 2 -2 2h-3q-5 0 -7 -2t-2.5 -5t-0.5 -6.5t-0.5 -6.5t-2 -5t-5.5 -2q-2 0 -3 2t-1 3v3q2 9 3 14.5t3 8t7 4t14 1.5v4v4
q0 1 -0.5 4.5t-0.5 8t-0.5 7.5t-0.5 5t-2 2h-4q-5 0 -7 -4t-3 -8.5t-2 -8t-4 -3.5h-1.5t-1.5 2v3.5v3.5q0 5 0.5 8.5t2.5 9.5q1 2 4.5 3t7 1.5t6.5 1t3 1.5l-1 35v4l-1 58q-1 4 -1.5 7t-0.5 7zM133 149q0 -3 0.5 -3.5t3.5 -0.5h4h8t12.5 0.5t12.5 0.5h9q2 3 1.5 7t-0.5 7v8
q-4 1 -7 1t-6 0.5t-6 0.5h-6q-5 0 -10 -1t-8.5 -3.5t-5.5 -6.5t-2 -10zM134 137q-1 0 -2 -1t-1.5 -3t-0.5 -3.5v-2.5q0 -4 0.5 -6t2.5 -6l2.5 -0.5t3.5 -0.5h1h1h7.5t11.5 0.5t11.5 0.5h8.5q2 1 3 3t1.5 4t0 4.5t-0.5 4.5t-0.5 4t-2.5 3h-2q-2 0 -3.5 0.5t-3.5 0.5h-3h-9
t-7.5 -0.5t-8 -1t-10.5 -0.5zM136 29v10t0.5 10t3 9t7.5 6l1.5 0.5l1.5 0.5h11q11 0 18 -1t10.5 -4.5t4.5 -10.5t1 -19v-3v-4v-5v-3q0 -2 -2 -2h-3h-3q-3 0 -3 2v17q-1 0 -5.5 0.5t-9.5 0.5t-9.5 0.5t-6.5 0.5h-7v-17q0 -3 -2.5 -3.5t-3.5 -0.5t-2.5 0.5t-1.5 1.5v3v4v4v3z
M145 48q0 -4 4.5 -5.5t10.5 -2t12 -0.5h8q3 0 3.5 1.5t0.5 4.5q0 4 -2 6.5t-5.5 3.5t-7.5 1h-7h-6t-5.5 -0.5t-4 -2.5t-1.5 -6z" />
</svg>
