<?xml version="1.0" standalone="no"?>
<!DOCTYPE svg PUBLIC "-//W3C//DTD SVG 1.1//EN" "http://www.w3.org/Graphics/SVG/1.1/DTD/svg11.dtd" >
<svg xmlns="http://www.w3.org/2000/svg" xmlns:xlink="http://www.w3.org/1999/xlink" version="1.1" viewBox="-10 0 266 256">
   <path fill="currentColor"
d="M188 248q2 3 5 3q2 0 4 -3v-3v-5v-5v-3q0 -11 -1.5 -22.5t-1.5 -23.5v-7l1 -2.5t1.5 -5t1.5 -4.5l1 -2q1 -9 -2 -14.5t-7.5 -8.5t-11 -4t-13.5 -1l-3 0.5t-4 0.5t-1.5 0.5l-0.5 0.5v1q0 2 2.5 3t6.5 1t8 0.5t8 2.5t6.5 5t2.5 10q0 2 -1 3t-3 1t-3.5 -1t-2.5 -2l-2.5 -2.5
t-3.5 -2.5l-2 -0.5l-4 -1l-4 -1t-3 -0.5h-1h-1q-1 0 -3.5 1t-2.5 3v1l3 3h6.5t8.5 1.5t7.5 4t3.5 6.5q0 3 -3 4t-5 2q-1 0 -3.5 0.5l-5 1t-5.5 1t-4 0.5v1q0 2 1 3t3 1.5t4 0.5h3q3 0 7 -0.5t7 -0.5h4q0 15 2 29t1 30zM106 240q0 3 1.5 5.5t5.5 2.5l1 -0.5t1 -1.5t0.5 -4.5
t0.5 -7.5t0.5 -7.5t0.5 -4.5l-0.5 -2.5t-0.5 -5t-0.5 -4.5l-0.5 -2q0 -1 1 -3l1 -2q0 -1 0.5 -3t0.5 -4t0.5 -3.5t0.5 -2.5q0 -3 5 -3t10 -0.5t9 -1.5t4 -4v-2t-1 -1h-20l-1 -2q-1 -1 0.5 -3t1.5 -3q2 -3 5 -4l6 -2t5.5 -2.5t2.5 -3.5v-1q-1 -1 -2 -1.5l-1 -0.5
q-8 0 -14.5 4.5t-11.5 10.5h-2q-2 0 -2.5 -2.5t-0.5 -4.5q0 -6 3 -10t6.5 -6.5t9 -4t10.5 -1.5q2 -1 2 -2v-2q0 -3 -1.5 -3.5t-3.5 -0.5q-4 0 -9.5 1.5t-11 5t-9 7.5t-3.5 9v2.5v1.5v3.5t0.5 4.5t0.5 4v2q0 1 2.5 3.5t2.5 3.5v2q0 14 -2.5 28t-2.5 29zM76 243q1 1 1.5 1h1.5
q2 0 3 -3t1.5 -7.5t0 -8t0.5 -4.5v-77q0 -1 2.5 -3.5t5.5 -4.5t6 -4.5t4 -3.5q1 -8 1.5 -15t0.5 -14q0 -2 -0.5 -4l-0.5 -2l-3 -3l-3 3v29q0 2 -2.5 5t-5.5 3q-2 0 -3.5 -1.5t-1.5 -3v-3.5v-3q0 -3 -0.5 -8.5t0 -11.5t1.5 -11t3 -6q4 -3 7 -3.5t5.5 -2t4 -4.5t1.5 -9v-5.5
t0.5 -8t0.5 -7.5v-5h-3.5t-3.5 2q1 4 1.5 9.5t-0.5 11t-3.5 9t-8.5 3.5h-1l-0.5 -0.5l-0.5 -0.5v-11v-6v-6t0.5 -6t2.5 -5q1 -1 3 -2.5l4 -3t3.5 -3.5t1.5 -4t-1.5 -3t-3.5 -1h-0.5h-0.5l-3 3l-4 4l-4 4l-3 3t-2 4t-1 4v29l-1 1l-2 2h-1q-3 0 -4 -2.5t-1.5 -6.5t-0.5 -9
q0 -4 -0.5 -8t-1.5 -6.5t-5 -2.5q-2 0 -2.5 2t-0.5 4q0 7 0.5 13t2 11.5t5.5 9.5t11 6v5v5q0 1 -0.5 6t-0.5 10.5t-0.5 10t-0.5 6.5l-1.5 1.5l-1.5 1.5h-1v0q-1 0 -2 -1l-2 -2t-1.5 -2l-0.5 -1l-4 -30q0 -1 -1 -1.5t-2 -0.5v0h-1l-0.5 0.5l-1.5 1.5v3v4.5v4.5v3v9q0 5 1 8.5
t3 6.5t7 5l2 0.5t4.5 2t2.5 2.5v3v3v4v3q0 13 -1 25.5t-1 25.5q0 10 0.5 17.5t1.5 17.5zM130 114q0 4 0.5 6t3.5 2t8 -2t7 -5q4 -14 3 -28q1 -2 2.5 -2h3.5q4 0 4 1t1 5v19q3 5 5 7t8 2q1 0 3.5 -1t2.5 -3t-1.5 -3t-3.5 -1.5t-3.5 -1.5t-1.5 -3q0 -1 -0.5 -2.5t-1 -4
t-0.5 -4.5v-4v-2q0 -3 2 -4.5t5 -1.5q6 0 8.5 1.5t4 4.5t1.5 7.5v9.5q7 0 8 -3.5t1 -8.5t-1 -9.5t-5 -7.5q-5 -1 -10 -1t-10 0.5t-10 0t-9 -2.5v-2q0 -3 2 -5t6 -3.5t8 -2.5t7.5 -3t5.5 -5t2 -9q0 -8 -3.5 -11.5t-9 -5t-12 -1.5h-11.5l-1 -0.5t-2 -0.5q-2 -1 -4 -3
l-4.5 -4.5t-4.5 -4t-3 -1.5t-2.5 1.5l-2.5 2.5v1q0 4 2.5 6l5 4t5 4.5t2.5 5.5t-1 6t-3 6l-4 6t-4 5q-2 1 -3.5 2t-3 1.5t-2.5 2t-1 4.5q7 0 11 -3t7 -6.5t5.5 -8.5t4.5 -8.5t5 -6.5t7 -3h6t6 1t5 2.5t2 5.5q0 6 -3.5 9t-8 4.5t-9 3.5t-7.5 6q0 1 -0.5 2.5t-1 4t-1.5 4
t-3 2.5q-5 1 -10 2.5t-9.5 3t-7 5.5t-2.5 11q0 2 1 5t3 3t3 -3.5t2.5 -7.5t5 -7.5t10.5 -3.5h2q2 0 2 1v8q0 9 -2 13.5t-12 4.5z" />
</svg>
