<?xml version="1.0" standalone="no"?>
<!DOCTYPE svg PUBLIC "-//W3C//DTD SVG 1.1//EN" "http://www.w3.org/Graphics/SVG/1.1/DTD/svg11.dtd" >
<svg xmlns="http://www.w3.org/2000/svg" xmlns:xlink="http://www.w3.org/1999/xlink" version="1.1" viewBox="-10 0 266 256">
   <path fill="currentColor"
d="M142 248q0 1 0.5 2l0.5 1h1q3 0 5.5 -3t2.5 -6v-3t-1 -3v-8v-13t1.5 -8.5t5 -6.5t9.5 -7q1 -1 2 -1.5l1 -0.5h2t3.5 -0.5t3 -0.5h2.5q6 -3 10.5 -7t7 -9.5t3.5 -11.5t1 -12q0 -4 -1.5 -9.5t-4.5 -10.5t-6.5 -9t-8.5 -4h-28q-3 0 -5.5 2t-3.5 3q-15 11 -23.5 27.5
t-8.5 35.5q0 3 3 3q2 0 4 -1t2 -3l5 -27q0 -1 0.5 -2t0.5 -1.5t1 -1l1 -0.5q4 0 6.5 3.5t5 8t4.5 8t5 3.5t3 -4v-1q-2 -4 -3.5 -7.5t-3.5 -7t-4.5 -6.5t-5.5 -7v-4l3 -3t5 -4l2.5 -2.5t3.5 -0.5t6 2.5t5 6.5t4 8.5t3.5 8.5t3.5 6.5t4 2.5t3 -0.5t1 -2.5q0 -6 -2.5 -10.5
t-5.5 -8.5t-5 -7.5t-2 -7.5q0 -2 1.5 -2.5t3.5 -0.5q6 0 10.5 3t7.5 7.5t5 10t2 10.5q0 8 -2.5 13t-6.5 8.5t-9 5.5l-10 4t-10 4.5t-9 6.5q-3 3 -4.5 8t-2 10t-0.5 11v9v14zM76 222q0 2 1 3.5t4 1.5q2 0 3.5 -1t1.5 -3q2 -23 1.5 -46.5t1.5 -47.5q2 -1 3.5 -1.5t4 -1t4 -1
t3.5 -2.5q9 -6 10.5 -15.5t1.5 -19.5h-3t-4 1q-1 0 -2 0.5l-1 0.5v20q0 4 -2 5t-4.5 1.5t-5.5 0t-4 -0.5q0 -6 -0.5 -11t-0.5 -9q0 -5 0.5 -9.5t1.5 -9.5q1 -3 3 -4t5 -2t5.5 -1.5t4.5 -0.5q3 -2 5 -6t3.5 -8.5t2.5 -9.5t1 -8q0 -2 -0.5 -3.5t-3.5 -1.5q-5 0 -6 5t-2 11
t-3.5 11.5t-8.5 5.5q-1 0 -2 -0.5t-2 -1.5v-13v-14q0 -1 1 -3t1 -3q2 -3 6.5 -5t9 -3.5t8 -3t3.5 -3.5t-1 -3.5t-3 -1.5q-1 0 -2.5 0.5t-2.5 1.5l-1 0.5t-2 0.5q-6 3 -11 5t-8.5 5t-5.5 8t-2 13q0 3 1 6.5t1 7.5q0 7 -6 7q-2 0 -4.5 -0.5t-4.5 -2t-3.5 -3t-1.5 -4.5t1 -6.5
t1 -6.5t-1 -5.5t-5 -2.5q-1 0 -2 0.5t-1 1.5v8v7q0 9 4 13.5t8 6.5t8 2.5t4 1.5v41q0 2 -2 2.5t-3 0.5q-7 0 -10 -2.5t-4 -6.5t-0.5 -9t1.5 -11q0 -2 -1.5 -2.5t-2.5 -0.5q-4 0 -4 4v2q0 2 0.5 5t0.5 7t0.5 7.5t0.5 4.5q1 4 3.5 6t6 3l7 2t5.5 3v3v4v4v3q0 19 -2 38t-2 39z
M146 98q13 -1 25 0t24 1h5q1 0 2 -1t1 -2v0v-1q0 -1 -1 -2t-2 -1h-22l-5 -2v-1v-2v-2.5t2 -3.5q6 0 12.5 -1.5t12.5 -2.5q4 -3 4.5 -5.5t0.5 -6.5v-5q-1 -2 -2.5 -2h-2.5q-3 0 -3.5 2t-1 4.5t-1 4t-3.5 1.5h-15l-0.5 -1t-0.5 -2v-2v-2v-3.5t1 -3.5q11 -1 18.5 -5t7.5 -15
q0 -9 -3.5 -12t-11.5 -6h-3h-3h-3h-3q-5 0 -11 0.5t-11 2.5t-8 6t-3 11q0 6 1.5 9t4.5 4.5t6.5 2.5t6.5 2t4.5 3.5t1.5 7.5t-1 10.5t-2 11.5q-2 1 -4 1h-4q-4 0 -7.5 -1.5t-3.5 -6.5q0 -3 0.5 -5t0.5 -5q0 -2 -1 -4t-3 -2q-3 0 -4 2t-1 5v5.5v3.5v3.5v3.5zM149 39
q0 -6 3.5 -9t9 -4t11 -1h10.5q4 0 8.5 3t4.5 9q0 4 -3 6.5t-7.5 4.5t-9 2.5t-7.5 0.5q-2 0 -5 -0.5t-6.5 -2t-6 -4t-2.5 -5.5z" />
</svg>
