<?xml version="1.0" standalone="no"?>
<!DOCTYPE svg PUBLIC "-//W3C//DTD SVG 1.1//EN" "http://www.w3.org/Graphics/SVG/1.1/DTD/svg11.dtd" >
<svg xmlns="http://www.w3.org/2000/svg" xmlns:xlink="http://www.w3.org/1999/xlink" version="1.1" viewBox="-10 0 266 256">
   <path fill="currentColor"
d="M62 243q0 4 1 6.5t5 2.5q3 0 4.5 -4t2.5 -7v-22t0.5 -23.5t0.5 -23t1 -20.5l0.5 -0.5l1 -1t2 -1l3 -1l3 -1l1.5 -0.5q4 -3 6 -7t3 -9t1 -10v-9q0 -2 -1.5 -2.5t-3.5 -0.5t-3 2.5t-1.5 6t-1 8t-1 8t-2.5 6t-5 2.5q-2 0 -3 -2.5t-1 -4.5v-1v-1q0 -2 0.5 -8t0.5 -12t0.5 -12
t0.5 -8q2 -2 5 -2.5l6 -1t5.5 -2t3.5 -4.5q0 -2 0.5 -5.5l1 -7l1 -7t0.5 -6.5q0 -2 -1 -5.5t-4 -3.5t-4 2.5t-1 6.5v8.5t-0.5 8.5t-3 6.5t-6.5 2.5q-1 0 -2.5 -0.5t-0.5 -3.5v-2t-0.5 -4.5t-0.5 -3.5v-3q0 -10 1.5 -16t4 -9t5 -4t5.5 -1.5t5.5 -2.5t4.5 -6q0 -1 -0.5 -2
t-2 -2t-2.5 -1h-2q-3 0 -7.5 2.5t-8.5 6t-7.5 7.5t-3.5 6v33q0 2 -2 5t-4 3t-3.5 -1.5t-1.5 -4.5q0 -1 -0.5 -4t-0.5 -7t-0.5 -7t-0.5 -5q0 -3 -1.5 -6t-5.5 -4l-1 0.5t-2 1.5l-0.5 0.5l-1.5 1.5v8q0 6 0.5 11t1.5 9.5t4 7.5t9 5q3 2 5 2.5t4 3.5q-2 6 -2 11v11v3v4v2.5v1.5
l0.5 1t0.5 2t0.5 2t0.5 2q0 4 -1 4.5t-4 0.5q-5 0 -8 -4t-4 -9t-1.5 -11t-0.5 -9q0 -2 -2 -2h-3q-3 0 -4.5 1.5t-1.5 5.5q0 2 0.5 7.5t2 12t3.5 11.5t4 5h15l1 2l0.5 2.5t0.5 5.5t0.5 6t0.5 5v6q0 13 -1 26.5t-2 26.5l1 2q0 1 -0.5 4.5t-0.5 4.5v2zM175 156v5t0.5 8l1 8
t0.5 5q0 2 2 8t5 13t7 15t7.5 14.5t6.5 11t5 4.5q1 0 3.5 -0.5t3.5 -1.5v-1v-2q0 -4 -2 -8.5t-5 -8t-6.5 -7.5t-5.5 -8q-2 -5 -5 -11t-5 -12.5t-3.5 -13.5t-1.5 -13v-7.5t0.5 -6.5t1.5 -6.5t2 -9.5q0 -1 1 -1h2q3 0 5 3t4.5 7t5.5 7.5t7 3.5t5 -0.5t1 -4.5t-3.5 -7t-8 -6.5
t-8 -7.5t-3.5 -10t4 -9.5t8 -7.5v-1v-2q0 -2 -0.5 -4t-2.5 -2q-3 0 -4.5 2t-2.5 4t-2.5 3.5t-3.5 1.5h-1.5h-1.5l-4.5 -9t-3.5 -10v-1q0 -2 3 -3t4 -1t4.5 -0.5t7 -1.5t7 -1t4.5 -1l1.5 -1.5t2.5 -1.5q0 -1 -1 -2t-1 -2h-5q-6 0 -12 1t-12 1h-3h-2l-1 -2v-12l3 -1t7 -2
t8.5 -2.5t5.5 -3.5q1 0 2 -0.5l1 -0.5v-21q-5 0 -7 3t-3 6t-2 5.5t-4 2.5h-12q0 -1 0.5 -5.5t0.5 -9t-1.5 -8t-4.5 -3.5q-4 0 -5 3.5t-1 7.5q0 9 2 18t2 18q0 2 -0.5 3.5l-0.5 1.5l-3 4l-3.5 0.5t-8.5 1l-10 1t-8 0.5l-2.5 0.5t-3.5 0.5l-2.5 -0.5t-3.5 -0.5q-2 -1 -2.5 -4
t-0.5 -4v-1q0 -3 1 -5t1 -5t-1 -4t-3 -1q-4 0 -5 1.5t-1.5 4t0 5.5t0.5 5q-1 3 -1 9t-0.5 14t-0.5 16.5t-0.5 16.5t-1 14.5t-0.5 9.5q0 1 -1 5.5t-1.5 9t-1.5 9t-1 5.5v4q0 2 -1 7t-2.5 11t-3 11t-1.5 7q-1 5 -3 9l-4 8t-3 8.5t-1 9.5q5 0 8 -2.5t5 -6.5t3 -8.5t2 -8.5
q0 -1 1 -5.5t2.5 -9.5t3 -9t1.5 -6q0 -1 1 -5t1.5 -8.5t1.5 -8.5t1 -5l2 -2q-1 -10 0 -19.5t1.5 -19l1 -19t0.5 -19.5l5 -5l5 -0.5t12 -1.5t14.5 -2t11.5 -1h1q2 0 3 2.5t2 6t1.5 6.5t1.5 4l1 2t3 5t3 5.5l1 2.5q0 4 -1.5 9.5t-3.5 12t-3.5 13t-1.5 11.5zM111 235l0.5 0.5
l0.5 0.5l0.5 1.5l0.5 1.5h1q4 0 7.5 -3.5t7 -9.5t6 -13t5 -12.5t4.5 -9.5t3 -4h1v0l1 1.5t1 2.5l0.5 1.5t1 2.5t1 2.5l0.5 1.5l3.5 7t5 10.5t5 10.5l3.5 7q2 4 6 4q2 0 3 -2t1 -3q0 -4 -2 -7t-4 -6.5t-5 -6t-4 -5.5l-0.5 -1.5t-0.5 -3t-0.5 -2.5t-0.5 -2l-0.5 -1t-1.5 -2
l-2 -2t-1 -2q-4 -9 -6 -20.5t-2 -22.5v-5q0 -3 0.5 -8t0.5 -10t0.5 -9t0.5 -5q0 -4 1.5 -6.5t4 -3.5t5.5 -1.5t7 -0.5v-6q-1 0 -4 0.5t-6.5 0.5h-6.5h-5h-1.5t-3.5 0.5t-3.5 0.5t-2.5 1h-2.5t-3 0.5t-3.5 1t-2 2.5q0 3 3 3t6 -0.5t5.5 0t2.5 3.5v49q-2 12 -4 22.5t-7 20.5
q-3 6 -5 10.5t-3.5 9t-4.5 8t-7 7.5l-0.5 0.5zM125 175l1.5 1l1.5 1q1 0 1.5 -1l0.5 -1q2 -3 2.5 -6.5t0.5 -7.5v-2t0.5 -4.5t0.5 -5.5v-4v-3t-0.5 -4.5t-0.5 -4.5v-3q0 -2 -1 -2h-2h-2t-1 2q0 10 -1 19.5t-1 19.5v6zM158 170q0 1 1.5 3t3.5 2v0q1 -1 2.5 -2t1.5 -2v-41
q0 -1 -1.5 -1.5t-2.5 -0.5v0h-1v0q-1 0 -1.5 0.5t-0.5 1.5v6v10v10v7l-1 3t-1 4z" />
</svg>
