<?xml version="1.0" standalone="no"?>
<!DOCTYPE svg PUBLIC "-//W3C//DTD SVG 1.1//EN" "http://www.w3.org/Graphics/SVG/1.1/DTD/svg11.dtd" >
<svg xmlns="http://www.w3.org/2000/svg" xmlns:xlink="http://www.w3.org/1999/xlink" version="1.1" viewBox="-10 0 266 256">
   <path fill="currentColor"
d="M69 244v1v1q1 1 3.5 2t3.5 2l1.5 -1l1.5 -1q1 0 1.5 -0.5t0.5 -1.5v-39q2 -3 2 -6v-6q0 -8 -1 -16t-1 -17v-15q1 0 3.5 -1.5l5 -3t5 -2.5t3.5 -2q1 0 2 -2t1 -3.5v-3.5v-3q1 -3 2.5 -6t1.5 -8q0 -2 -1 -3.5t-4 -1.5q-1 0 -3.5 0.5t-2.5 3.5v19l-1 1l-2 2t-2.5 2t-2.5 2
h-1q-1 0 -3 -1.5t-3 -2.5v-19v-20l0.5 -1.5t0.5 -3.5t0.5 -3.5t2.5 -1.5q1 -1 3 -1.5l4 -1t3.5 -1.5t2.5 -3t1.5 -6t2 -9t2 -9t1.5 -6v0q0 -2 -2 -3.5t-3 -1.5t-2 1t-2 1v6.5t-1 9.5t-3.5 8.5t-6.5 3.5q-3 0 -3.5 -3t-0.5 -6q0 -9 1 -17.5t6 -16.5q1 -3 4 -4l6 -2t5 -2.5
t2 -4.5t-2 -3.5t-5 -0.5q-2 0 -6 1.5t-8 4.5t-7 6t-3 5v43l-1 1.5t-2 1.5q-3 1 -5.5 -1t-4 -5t-2.5 -6.5t-1 -5.5v-1v-1t0.5 -2l1 -2t0.5 -2v-2q0 -3 -4 -4.5t-7 -1.5h-1.5t-1.5 1v6q0 8 1 15t6 14q1 2 4.5 3l7 2t6 1.5t2.5 1.5v48q0 2 -2 3t-3 1q-2 0 -4.5 -1.5t-2.5 -3.5
v-20q0 -2 -2 -3.5t-4 -1.5q-5 0 -6 3.5t-1 7.5v5q0 2 1 6t2 7t2 5.5l1 2.5h17l2 3v25q0 19 -1 36.5t-1 35.5zM119 160v19t1.5 17t5.5 15.5t12 14.5l1.5 0.5l1.5 0.5h39l3 -1t5 -2q1 0 2 -1t2 -1q8 -3 12 -11t5.5 -17.5t1 -19t-0.5 -17.5v-3v-6v-6v-4q-1 -5 -3.5 -10t-6.5 -9
q-6 0 -13 -1.5t-13 -1.5q-2 0 -5 0.5t-3 2.5q0 4 3 4.5t6 1.5h3t5 0.5t5.5 0.5h3.5q3 2 4.5 5.5t2 7.5l1 8t0.5 7q0 1 -1.5 1h-2.5q-3 0 -5.5 -1t-5 -2.5l-5 -3t-5.5 -1.5h-4t-3 2q0 3 5 5.5t11 5t11 6.5t5 10v5q0 2 -0.5 4t-1.5 3.5t-4 1.5t-6 -2t-6 -3.5t-6.5 -3.5
t-6.5 -2q-2 0 -3.5 0.5t-2.5 3.5q3 3 8 5.5t10.5 4.5t9.5 4.5t4 6.5q0 6 -4 9t-9.5 4.5t-11.5 1.5h-9h-8.5t-8.5 -1.5t-7 -4t-3 -8.5v-3q7 -3 14 -7t12 -10v-2q0 -4 -4 -4q-3 0 -5.5 2.5l-5 5t-5.5 4.5t-6 2h-1l-1.5 -0.5l-1.5 -0.5q0 -1 -0.5 -3.5t-0.5 -5t-0.5 -4.5
t-0.5 -3v-1v-1q0 -2 4 -5.5t9 -7l10 -7t7 -5.5v-1q0 -2 -1.5 -2.5t-2.5 -0.5q-4 0 -6.5 2.5t-5.5 5t-5.5 4.5t-6.5 2q-2 0 -3 -1.5t-1 -3.5v-2q0 -1 0.5 -3t0.5 -4.5t0.5 -4.5t0.5 -3q2 -4 7 -6t9.5 -3.5t8 -3.5t3.5 -5q0 -2 -1.5 -3t-3.5 -2q-5 2 -10.5 3.5t-9.5 4.5
t-7 6.5t-4 9.5v5t-0.5 6.5t-0.5 6.5v4zM120 101q-1 2 0 2.5t3 0.5q3 0 5 -4.5t2.5 -11.5t1 -15.5t2.5 -15.5t6 -11.5t11 -4.5h3t1 3v53q0 2 1 2h2q2 0 3.5 -1.5t1.5 -3.5v-50q0 -3 3.5 -5t5.5 -2q5 0 7 5t3 11.5t1.5 13t1.5 10.5q1 2 2 6t2.5 8t4 7.5t6.5 3.5q0 -7 -1.5 -14
t-4 -13.5t-4.5 -13.5t-2 -14q0 -5 3 -6.5t6.5 -2t6.5 -1t3 -4.5q0 -2 -1.5 -3t-3.5 -1h-4h-3q-6 0 -16 -0.5t-21 0.5t-19.5 4.5t-10.5 12.5q-4 14 -6.5 27t-1.5 28z" />
</svg>
