<?xml version="1.0" standalone="no"?>
<!DOCTYPE svg PUBLIC "-//W3C//DTD SVG 1.1//EN" "http://www.w3.org/Graphics/SVG/1.1/DTD/svg11.dtd" >
<svg xmlns="http://www.w3.org/2000/svg" xmlns:xlink="http://www.w3.org/1999/xlink" version="1.1" viewBox="-10 0 266 256">
   <path fill="currentColor"
d="M63 246q-1 4 1.5 5t4.5 1q6 0 8 -8v-11v-17v-17v-11l0.5 -2.5t1 -5.5t0.5 -5.5v-2.5v-3.5t-0.5 -5l-1 -5t-0.5 -3.5v-2v-3q0 -4 2 -6t5.5 -3t6.5 -2t5 -4q1 -8 2.5 -18t1.5 -18q0 -2 -0.5 -3t-3.5 -2t-4 1.5t-1 7v9.5q0 6 -1 10.5t-2.5 7.5t-5.5 3q-2 0 -3.5 -2
t-1.5 -5.5v-6.5v-5q0 -7 0.5 -13t1.5 -14q1 -3 4 -4t6.5 -2.5t6 -3t2.5 -5.5v-35q0 -1 -0.5 -1.5t-1.5 -0.5t-2 0.5t-1 1.5q-1 5 -0.5 11t-0.5 11t-3.5 8.5t-8.5 3.5q0 -10 -0.5 -17t0.5 -13t5 -10.5t13 -8.5q0 -1 0.5 -2t0.5 -2v-1q0 -3 -1 -4t-4 -1q-8 0 -15 7t-9 16
q0 1 0.5 5t0.5 9q0 4 -0.5 8t-0.5 5q0 3 -0.5 6.5t-3.5 3.5h-3t-1 -2q-2 -4 -2 -10t-0.5 -11.5t-2.5 -9t-7 -3.5v4v5v6v4v6t0.5 8t2 7.5t4.5 4.5t6.5 2t5.5 4v12v7t-0.5 10.5t-1.5 10t-4 4.5q-1 0 -2.5 -1.5t-2 -3t-1 -3.5t-0.5 -3t-0.5 -3.5t-0.5 -5.5t-0.5 -6t-0.5 -4
q-1 -3 -2.5 -3.5t-3.5 -0.5l-2 0.5t-2 1.5v27q0 5 2.5 8t6 5t7 3.5t6.5 3.5v9v8.5t-1 8.5q0 18 -0.5 36.5t-2.5 37.5zM92 227q0 1 0.5 2.5t1.5 1.5l70 -1h5l37 -1q2 0 3 -2t1 -3t-0.5 -2.5t-1.5 -1.5h-39v-78q0 -5 2.5 -7.5t6.5 -3l8 -1t7 -3.5q2 -2 4 -6t3 -8.5l2 -9
t1 -7.5t-2 -4.5t-4 -1.5h-3q-2 12 -5 19t-7.5 10.5t-11.5 5t-17 1.5h-3h-4h-4h-2q-4 -2 -8.5 -4.5t-7.5 -6t-4.5 -8t0.5 -9.5q0 -1 -1 -1.5l-1 -0.5h-1h-1l-1.5 0.5t-1.5 1.5v7q0 8 3.5 13t8 8.5t8 6.5t3.5 7v78l-3 4l-2.5 0.5t-6.5 1t-6 0.5h-2q-4 0 -7.5 -1t-7.5 -1
q-3 0 -6 1t-3 4zM153 134q3 0 4.5 3.5t2.5 9t1 11.5v13q0 5 -0.5 10t-0.5 8v5v7.5t-0.5 8.5t-0.5 7v3l-2 2h-12v-84l0.5 -0.5t1.5 -0.5q0 -1 2 -1.5t3 -0.5l0.5 -0.5zM113 207l1.5 0.5t1.5 1.5h1q2 0 3 -2t1 -4q1 -7 1.5 -12.5t0.5 -10v-9.5v-10v-11q0 -1 -2 -3.5t-3 -2.5
h-1h-1l-0.5 1t-1.5 1q-2 8 -1.5 18t0.5 18v25zM190 141l-2.5 0.5t-3.5 0.5l-0.5 1l-0.5 1v57q0 3 1.5 3.5t2.5 0.5q3 0 4.5 -3t1.5 -6q0 -14 -1.5 -27.5t-1.5 -27.5zM120 83q1 4 5.5 6t9 3t9.5 0.5t9 -0.5h12q2 0 5 -0.5l6 -1t5.5 -1t2.5 -1.5l9 -9v-2.5t0.5 -5.5t0.5 -6.5
v-5.5v-3q0 -4 -0.5 -9t-2 -9t-4.5 -6.5t-8 -2.5h-53q-3 0 -6 4t-4 7v2.5v3.5v4v2v8q0 4 0.5 7.5t1.5 7t2 8.5zM152 61h10v22q0 2 -2.5 2h-2.5h-3t-2 -2v-22zM125 61q0 -8 1 -13t4 -8t7.5 -4t11.5 -1q9 0 15.5 0.5t11 3t6.5 8t2 15.5v5t-1 6.5t-2.5 5.5t-4.5 2h-1.5h-0.5
q0 -1 -0.5 -4.5t-0.5 -7t-0.5 -6.5t-0.5 -4q0 -4 -2 -7t-6 -2l-26 2l-1.5 1t-1.5 2v1v1q3 0 5 1.5t2.5 4t0.5 5v5.5v5t-1 5h-2.5h-2.5q-3 0 -5.5 -2t-4 -5.5t-2 -7.5t-0.5 -7z" />
</svg>
