<?xml version="1.0" standalone="no"?>
<!DOCTYPE svg PUBLIC "-//W3C//DTD SVG 1.1//EN" "http://www.w3.org/Graphics/SVG/1.1/DTD/svg11.dtd" >
<svg xmlns="http://www.w3.org/2000/svg" xmlns:xlink="http://www.w3.org/1999/xlink" version="1.1" viewBox="-10 0 266 256">
   <path fill="currentColor"
d="M149 246q0 3 1.5 3.5t3.5 0.5t4.5 -1t2.5 -4v-82q2 -6 2 -12v-12q0 -2 2 -2h3q5 0 7.5 3t3.5 7t1.5 9t0.5 9q0 1 0.5 5.5t0.5 9.5q0 4 -0.5 8.5t-0.5 5.5q1 1 1.5 3t0.5 3t0.5 4.5t0.5 7.5t0.5 7.5t0.5 4.5t1 1.5t2 0.5q5 0 6 -3t1 -8l-1 -3t-1 -4q-3 -14 -3 -28t-2 -29
q-1 -7 -2.5 -11t-4 -6.5t-7 -3.5t-10.5 -2q-1 -4 -1 -7v-6v-2.5t0.5 -3t1 -2.5t1.5 -1h27q4 0 6 5t3 11.5t1 12.5v7q0 2 0.5 7t1 10.5t1 10.5t1.5 7q0 1 1 1.5t2 0.5q2 0 3.5 -1.5t2 -3.5l1 -4t0.5 -3q0 -7 -1.5 -15.5t-2.5 -15.5q0 -2 -0.5 -6t-1 -8.5t-1 -8.5t-0.5 -5
q-1 -2 -2 -3.5l-2 -3t-2.5 -2.5t-2.5 -1h-37l-0.5 -1l-0.5 -1q0 -1 -0.5 -3t-0.5 -3q0 -3 1 -4.5t2.5 -3t3.5 -2.5t4 -3v-9t0.5 -9t2.5 -7.5t7 -3.5q4 0 5.5 3t2 7.5t1 10t1.5 10t3.5 7.5t7.5 3q2 0 3 -2t1 -4q-3 -3 -5.5 -6t-3.5 -6t-2 -6.5t-1 -8.5q0 -1 0.5 -3.5
t1.5 -2.5h17q1 0 1.5 -2.5t0.5 -3.5q0 -3 -1.5 -3.5t-4.5 -0.5q-2 0 -5 1t-6 1h-2.5t-1.5 -2v-28q0 -1 -1 -1.5t-2 -0.5q-2 0 -2.5 1t-1 2.5t-0.5 3v2.5v4t-0.5 6t-0.5 5.5v3.5q0 2 -2.5 2h-3.5q-3 0 -5 -1t-2 -4v-19l-1.5 -1t-2.5 -1h-1h-1l-1 1.5t-1 2.5v24h-14v-21
l-1 -1.5l-1 -1.5q0 -1 -1 -1.5l-1 -0.5q-2 0 -3.5 1.5t-1.5 3.5v21h-13q0 -4 1 -7.5t1 -7.5q0 -3 -1.5 -5.5t-4.5 -3.5l-5 5v19h-3.5t-4.5 1t-3.5 2t-1.5 3v1.5v1.5q2 0 4 0.5l4 1t3.5 2t1.5 3.5q0 4 -1 8t-3 8t-3.5 7.5t-1.5 8.5q6 0 9.5 -4.5t5 -10.5t2 -12t1.5 -9
q1 -2 3.5 -3t4.5 -1h3t2 2v5.5v7.5t0.5 7.5t1.5 5.5l1 1t2 2.5t2 2.5t1.5 1t0.5 2v3v1v2.5t-0.5 2.5t-1.5 1q-11 1 -19 2.5t-13.5 5.5t-8.5 10.5t-5 18.5q0 1 -0.5 5.5t-1 10l-1 11t-0.5 8.5v1.5v1.5v2v2t1 1.5t2 -0.5q3 -1 4.5 -3t2 -4.5t0.5 -5v-4.5v-23q2 -3 2.5 -8
t0.5 -8q1 -4 4.5 -7.5t7.5 -5t9 -2t9 -0.5h6q3 1 3 4.5v5.5q0 5 -2 8t-5 5l-6 4t-5 6q-3 5 -4.5 11t-4.5 11q-1 9 -2 16t-1.5 13.5l-1 13t-0.5 13.5v4v5q1 1 2 1h2q3 0 4.5 -2t2.5 -5t1 -6v-5q0 -4 -1 -8.5t-1 -8.5q0 -13 2.5 -27.5t9.5 -25.5q1 -1 2.5 -1.5t2.5 -0.5
q1 1 3 2t2 2v9q0 24 -2.5 48t-2.5 48zM41 241q0 3 2 4.5t4 1.5q7 0 11 -5.5t7 -13t4.5 -15l2.5 -12.5q0 -2 0.5 -6.5t1 -9.5t1 -8.5t0.5 -4.5v-4v-6v-7v-4l2 -2l1.5 -0.5l3 -1t3.5 -1l2 -0.5q3 -2 4.5 -6t2.5 -8.5t1 -8.5v-7v-3v-3v-3.5v-2.5q0 -2 -1 -3t-2 -1q-2 0 -3 3.5
t-1 7.5v10q0 6 -1 10.5t-3 7.5t-7 3v0q-1 0 -1.5 -2t-0.5 -3q0 -2 -0.5 -7t-0.5 -11t-0.5 -11t-0.5 -7v-6v-6q3 -4 5.5 -4.5t4.5 -0.5t5 -2.5t7 -12.5q3 -5 3.5 -8t0.5 -7v-4t-1 -3.5t-2 -2.5t-3 -1h-1l-2 2v10q0 5 -1 10t-4.5 8.5t-8.5 3.5q-1 0 -2 -1.5t-1.5 -3.5
t-0.5 -3.5v-2.5v-5t0.5 -9t1.5 -9.5t3 -6.5q1 0 3 -1.5t5 -2.5t5.5 -2t3.5 -2q1 -2 1 -3.5v-3.5v-3t-1 -2t-2 0.5t-2 1.5l-2 1.5t-3 1.5q-6 3 -10 5.5t-6.5 6t-4 8t-1.5 12.5q0 5 1 10t1 10q0 2 -1 3.5t-3 1.5q-3 0 -7 -2.5t-4 -6.5l-3 -24q-1 -1 -2 -1.5t-2 -0.5
q-2 0 -3 1.5t-1.5 4t-0.5 4.5v3q0 9 1.5 14.5t3.5 8t5 3.5t5.5 1.5t5 1.5t4.5 4q2 1 2.5 6.5t1 12t0.5 12.5v9v10q-1 2 -3.5 2h-3.5q-6 0 -9 -5.5t-4 -12t-1.5 -12t-4.5 -5.5q-2 0 -3.5 1.5t-1.5 3.5q0 6 1 12t3.5 11t6.5 9t10 6q0 1 1 1t2.5 0.5l3 1t1.5 1.5v7
q0 15 -2.5 30t-7.5 29q-1 2 -3.5 5t-4.5 6l-4 6t-2 5zM151 51h15v18q0 4 -3 6t-6 2q-1 0 -3.5 -0.5t-2.5 -3.5v-22z" />
</svg>
