<?xml version="1.0" standalone="no"?>
<!DOCTYPE svg PUBLIC "-//W3C//DTD SVG 1.1//EN" "http://www.w3.org/Graphics/SVG/1.1/DTD/svg11.dtd" >
<svg xmlns="http://www.w3.org/2000/svg" xmlns:xlink="http://www.w3.org/1999/xlink" version="1.1" viewBox="-10 0 266 256">
   <path fill="currentColor"
d="M106 248q0 2 1.5 2.5t3.5 0.5h0.5h1.5l6 -8q1 -9 3 -17l4 -16t3.5 -16.5t1.5 -17.5v-3v-3v-4v-3q-1 -3 -3 -5.5t-3.5 -5t-3 -5.5t-1.5 -6q0 -5 2 -7t5.5 -3t7.5 -1h8q0 -1 1 -2l1 -1q0 -2 -1.5 -2h-2.5h-1h-2q-2 0 -8 0.5t-12.5 0.5t-12.5 0.5t-8 0.5q-1 0 -1.5 1.5
t-0.5 2.5q2 0 4 -0.5t4.5 0l5 1t4.5 2.5q-1 7 -0.5 11.5t2 8.5t4.5 7.5t7 8.5v1q0 10 -2 19.5t-4.5 19t-6 18.5t-7.5 18v2zM146 242q0 2 0.5 3t2.5 1h3t2 -2l1 -11v-32t0.5 -34t0.5 -34t1 -32v-6t1 -7.5t2.5 -7t3.5 -4.5h1q3 0 4 2.5t1.5 6t0.5 6.5v4q0 13 -2.5 25.5
t-2.5 26.5q0 9 3.5 12t11.5 3q4 0 7.5 -1t5.5 -6v-10v-6t-0.5 -7.5t-2.5 -6.5t-5 -3q-1 0 -2 0.5t-1 1.5q0 5 2.5 9.5t2.5 9.5q0 4 -1.5 8t-6.5 4q-2 0 -3.5 -1.5t-2.5 -4t-1.5 -5t-0.5 -3.5q0 -5 0.5 -10t1.5 -10.5l2 -11t1 -9.5q0 -6 3 -6.5t8 -0.5q4 0 6.5 2t3.5 4.5
t1.5 6.5t0.5 8q0 9 -1 18.5t-1 19.5v16q0 3 0.5 10t0.5 15t0.5 15.5t0.5 10.5q0 2 0.5 6.5t1.5 9t2.5 8t5.5 3.5q2 0 3.5 -1t1.5 -4q0 -4 -2 -8.5t-3 -8.5q-1 -7 -1.5 -13l-1 -12t-1 -12.5t-0.5 -13.5v-75q0 -5 -2 -7t-5.5 -2.5t-8 -0.5t-8 -1.5t-6 -5.5t-2.5 -12
q0 -7 4 -12.5t8.5 -11t9 -12t4.5 -14.5v-3t-2 -2q-3 0 -4 2t-1.5 5t-0.5 6t-1 4l-2 2t-2 2.5t-2.5 3t-1.5 2.5q-1 1 -4 4.5t-6.5 8.5t-7.5 10.5t-7.5 10t-6 7.5l-2.5 3q-1 0 -4 -3t-6.5 -7t-6 -8t-3.5 -5v-4v-5v-5v-4t1 -1t1 -1h1v0q3 1 5.5 3t5 4.5t5 4t4.5 1.5t3 -1t1 -2
q0 -6 -3.5 -8t-7.5 -3.5t-8.5 -3t-5.5 -4.5v-4t-0.5 -6t-1.5 -6t-3 -5l-3 3q1 11 -0.5 16t-5 8t-8.5 5.5t-12 8.5v1q0 2 1.5 2.5t2.5 0.5q2 0 4.5 -1.5t4 -3.5t3.5 -3.5t5 -1.5t4 3t1 6q0 7 -3.5 11.5t-8.5 8t-8.5 6.5t-3.5 6v2t1 1q3 0 6 -2.5t6 -4.5t5.5 -4.5t4.5 -3.5h1
h2q4 0 7 1t5 3.5t4.5 5.5t4.5 7h4l0.5 3.5t0.5 9.5v8q-1 32 -1.5 63t-3.5 62v2v1zM63 201q-3 10 -4.5 20.5t-1.5 20.5q4 0 6.5 -2.5t3.5 -6.5t1.5 -8.5t0.5 -7.5l5 -84q0 -1 2 -2t4.5 -2l5 -2t2.5 -2q2 -2 2.5 -5.5t0.5 -7v-7v-6.5v-6l-0.5 -0.5l-1.5 -1.5v0h-1
q-1 1 -2.5 1.5l-1.5 0.5v21q0 1 -1 2.5t-2.5 2.5t-2.5 2t-2 1t-2 -0.5t-2 -1.5q0 -5 -0.5 -8.5t-0.5 -7v-6.5v-7v-9l0.5 -0.5l1 -1t2 -1t3 -1.5t2.5 -1.5t2 -0.5q7 -4 9 -12t2 -16v-3t-1 -3q0 -1 -1 -1h-2h-1.5t-1.5 1v21q0 1 -1.5 2.5t-3.5 3t-4 2t-3 0.5t-1.5 -0.5
l-1.5 -1.5v-5.5v-5.5v-5.5v-6.5t0.5 -6.5t2.5 -5.5t5 -4l6 -4t5.5 -5t2.5 -6q0 -2 -1.5 -2.5t-2.5 -0.5h-1h-2q0 1 -2.5 2.5t-4.5 3.5l-4 4l-3 3t-2 3t-2.5 4t-2.5 3.5l-1 1.5v32h-4.5t-2.5 -0.5t-1.5 -2l-1.5 -4.5v-4t-0.5 -6t-0.5 -6t-1 -4l-1 -1t-1 -2h-1h-1l-0.5 0.5
t-0.5 1.5v5v12.5t1 13.5q1 2 3 3.5t3 1.5q1 1 3 1h3.5t3 0.5t1.5 1.5v40q0 2 -1.5 2h-2.5q-4 0 -6 -3.5t-2.5 -8.5t-0.5 -9.5v-7.5q-1 -2 -2.5 -3t-3.5 -1q0 7 -0.5 14.5t1 14t5.5 10.5t13 3q0 1 0.5 2l0.5 1v1v1v13t-0.5 19.5t-1 20t-1.5 12.5zM99 106q0 3 1.5 3h3.5
q9 0 19 -0.5t19 -2.5v-2q0 -1 -0.5 -2t-1.5 -1h-5q-9 0 -17 0.5t-18 1.5q-1 0 -1 1v2z" />
</svg>
