<?xml version="1.0" standalone="no"?>
<!DOCTYPE svg PUBLIC "-//W3C//DTD SVG 1.1//EN" "http://www.w3.org/Graphics/SVG/1.1/DTD/svg11.dtd" >
<svg xmlns="http://www.w3.org/2000/svg" xmlns:xlink="http://www.w3.org/1999/xlink" version="1.1" viewBox="-10 0 266 256">
   <path fill="currentColor"
d="M67 241q0 3 1 5.5t4 2.5q4 0 6 -2.5t3 -6.5t1 -7.5v-6.5v-6v-11v-12v-6v-9.5t0.5 -14t0.5 -14v-8.5q1 -4 3.5 -5t5 -1.5t4.5 -1t4 -3.5q0 -1 1 -5t2 -8.5l2 -9t1 -5.5v-3q0 -3 -1 -5.5t-4 -2.5t-4 5t-1.5 10.5t-2 11t-5.5 7.5q0 1 -2 0t-3 -1v-39q0 -3 2 -4t4 -1.5l4 -1
t4 -0.5q4 -2 6.5 -6.5t4 -10t2 -11t0.5 -9.5q0 -3 -0.5 -4.5t-4.5 -1.5q-5 0 -5.5 5.5t-1 12t-2.5 11.5t-9 5q-2 0 -3 -2.5t-1 -4.5q0 -8 2 -17.5t3 -17.5q1 -4 4 -6t6.5 -3.5t6.5 -3t3 -4.5v0q0 -1 -1 -2.5l-1 -1.5h-6q-10 0 -15.5 6.5t-7.5 16.5t-2 20v17q1 5 -3 5h-1h-1
q0 -1 -1.5 -2t-2.5 -2l-2 -2l-1 -1v-27q0 -3 -1.5 -3.5t-3.5 -0.5q-4 0 -6.5 2t-2.5 7v1q0 2 1 6.5t2.5 9t2 8.5t1.5 6q1 3 3.5 4t6 1.5t5.5 0.5t2 2v44q0 2 -1 2h-2q-3 0 -5 -2.5t-2.5 -6.5l-1 -8l-1 -8t-1.5 -6.5t-4 -2.5q-4 0 -5 2t-1 5q0 2 0.5 7t2 11t3 10.5t2.5 4.5
h13q3 0 3 2.5v4.5q0 18 -1 36l-2 36q0 2 -0.5 5.5l-1 7l-1 7t-0.5 5.5zM103 240q2 4 6 4h1q2 -1 3.5 -4t3.5 -3t4 1t4 1q6 0 9.5 -5t6 -11t4 -12.5t3.5 -9.5q1 0 2 -1.5t2 -2.5l1.5 -2.5t2.5 -5.5t2.5 -5.5l1.5 -2.5q1 -2 1.5 -2h1.5q2 0 4 4.5t4 11t4.5 14.5t5 15t6 11.5
t6.5 4.5q5 0 6.5 -2t1.5 -6q0 -3 -2 -7.5t-4.5 -9t-5 -8.5t-3.5 -6q-9 -16 -13.5 -33.5t-4.5 -36.5q0 -5 0.5 -8.5l1.5 -10.5l4 -2l4 -2t4 -3t2 -5q1 -1 1.5 -3t1 -5t1 -5.5t0.5 -3.5q1 -2 3.5 -3.5t5.5 -1.5v0q1 0 3 1l2 1h1q3 0 3.5 -2t0.5 -4v-2.5t-1 -2.5h-13
q-2 0 -2 -3v-6q0 -4 -1 -6.5t-6 -2.5q-4 0 -5 1.5t-1 3.5v5t-0.5 5t-3.5 4t-9 2q-1 0 -4.5 -0.5l-3.5 -0.5q-3 0 -3 -2.5v-5t-0.5 -4.5t-3.5 -3t-4 1.5t-1 6.5v6t-3 3h-13q-1 0 -1.5 -1t-0.5 -2v-2v-1q0 -11 3.5 -16.5t9.5 -7.5t14 -2.5t16 -3.5v0v0q6 0 11 1t10 1h9
q1 -1 2.5 -2t1.5 -2v0v-1q0 -1 -1.5 -2t-2.5 -1l-2.5 -0.5l-5 -1t-5 -0.5h-3.5l-3 0.5t-6 0.5q-2 0 -4.5 -1t-2.5 -4v-2v-1q0 -1 1 -3.5t1 -3.5l-0.5 -2t-1.5 -3h-5h-5l-1 0.5t-1 1.5v17l-1 0.5t-1.5 1t-2 1l-1.5 0.5l-26 5q-1 0 -2 2.5l-1 2.5q0 2 -1 4.5t-1.5 6t-1.5 6.5
t-1 4q-1 3 -1 11t-0.5 16.5t-1 16.5t-0.5 11v2v5v5v3q-1 10 -2.5 21t-2.5 22l-2 22t0 22q-1 4 -2 6.5t-1 7.5v6zM116 226v-9q0 -33 3 -67t5 -67q1 -1 2 -1h2h3h2.5t3.5 0.5t4 0.5h3q2 2 2.5 4.5t0.5 5.5t2 6.5t8 7.5q0 1 0.5 1.5l0.5 0.5v44q0 1 -0.5 3.5t-1.5 6.5t-2.5 8
t-1.5 6q-1 2 -3 6.5t-5.5 10t-7 12t-7 11.5t-6.5 8t-5 3v0q-1 0 -1.5 -0.5t-0.5 -1.5zM139 128q-1 0 -2.5 1t-1.5 2v43q5 0 6.5 -4t2 -8.5t0.5 -9.5v-8v-13q-1 -1 -2.5 -2t-2.5 -1zM183 130v9t0.5 14t2 12.5t4.5 5.5t3.5 -1t0.5 -5v-36q0 -2 -1.5 -6t-4.5 -4q-2 0 -3 1
t-1.5 3t-0.5 3.5v3.5zM155 88q0 -1 1.5 -4.5t3.5 -3.5h13q3 0 3 2.5v4.5v2.5t-1 3.5l-1.5 3t-2.5 1h-13q-2 0 -2.5 -3.5t-0.5 -5.5z" />
</svg>
