<?xml version="1.0" standalone="no"?>
<!DOCTYPE svg PUBLIC "-//W3C//DTD SVG 1.1//EN" "http://www.w3.org/Graphics/SVG/1.1/DTD/svg11.dtd" >
<svg xmlns="http://www.w3.org/2000/svg" xmlns:xlink="http://www.w3.org/1999/xlink" version="1.1" viewBox="-10 0 266 256">
   <path fill="currentColor"
d="M63 247q0 2 1 3t3 1q3 0 5 -2.5t2 -4.5v-1q0 -1 -0.5 -3.5t-0.5 -5.5t-0.5 -6l-0.5 -3v-1v-1v-1v0q0 -1 0.5 -3t1.5 -2v-7.5v-10.5v-11v-7v-1.5t0.5 -3t1 -2.5l0.5 -1v-2v-3q0 -1 -0.5 -5.5t-1 -9.5t-0.5 -10v-6v-1v-2q3 -1 6.5 -3l7 -4t6 -5.5t2.5 -6.5v-26q-4 0 -5.5 3
t-1.5 6q0 4 0.5 8t-1.5 7q0 1 -1 2l-2.5 2.5t-3.5 2.5t-3 1t-2 -1t-1.5 -2.5t-0.5 -3v-2.5q0 -4 1 -7t1 -7v-1q0 -1 -0.5 -2l-1 -2t-0.5 -2v-1v-1q0 -8 1.5 -10.5t3.5 -3.5t5.5 -2t7.5 -6q1 -2 2 -5.5l2 -7t1.5 -6.5t0.5 -5v-2q0 -2 -1 -3.5t-3 -1.5h-1.5h-0.5q-1 3 -1 7
t-1 8t-3 8t-5 5q-1 0 -2.5 -0.5l-1.5 -0.5v-4t-0.5 -6.5t-0.5 -6.5v-4t0.5 -4t1.5 -3q2 -3 5 -5t6 -3.5t5 -3.5t2 -7q-11 0 -17 4t-8 9.5t-2.5 12t-0.5 12t-0.5 9t-3.5 3.5t-4.5 -1t-2 -3l-1 -4t-0.5 -4l-0.5 -2.5t-0.5 -5.5q0 -2 0.5 -4.5t0.5 -3.5q-1 -2 -2.5 -2.5
t-3.5 -0.5t-3 0.5t-1 3.5v8.5t1 10.5t3.5 9.5t6.5 6.5q3 1 5 1q3 0 5 4v3v4.5v4.5v3v14q0 6 -2 13l-1.5 0.5l-1.5 0.5q-6 0 -7.5 -4t-1.5 -10t-0.5 -10.5t-3.5 -5.5q-1 -1 -2 0t-1 2v25q0 5 2.5 7.5t6 4t6.5 2.5t4 3v6v9.5v9.5v6q0 20 -1.5 40t-1.5 40zM136 235q0 4 -3 5
t-7.5 1t-10 -0.5t-10.5 -0.5t-8 2.5t-3 7.5q12 0 23.5 -2t22.5 -2t21.5 0.5t21.5 0.5h24q2 0 4 -1t2 -3q0 -1 -0.5 -2.5t-1.5 -1.5h-33q-2 0 -2 -1v-2q0 -3 5 -6.5t11 -8t11 -10t5 -12.5v-33q-1 -3 -1.5 -8t-3.5 -8q-2 -2 -7 -5t-10 -5.5t-9 -5t-4 -5.5q0 -2 5 -2.5
t10.5 -2.5t10.5 -5t5 -9q0 -2 -0.5 -4t-1.5 -4.5t-2 -4t-3 -2.5l-19 -5l-2 -2v-1.5v-2.5q0 -5 0.5 -8t2.5 -7h3q3 0 6 0.5t5.5 2t5.5 2t6 0.5h5l0.5 -1.5t0.5 -2.5v0q0 -4 -4 -5.5t-10.5 -2.5t-14 -2t-14 -2t-10.5 -2.5t-4 -4.5q0 -7 3 -8.5t8 -1.5q9 0 17 1t17 1v-3t-2 -4
q-4 -1 -11 -1t-14 -0.5t-12 -1.5t-5 -4t1 -5t1 -4q0 -3 -1 -5.5t-5 -2.5h-1h-1q0 1 -0.5 3.5t-0.5 5t-0.5 5t-0.5 3.5t-0.5 3t-2.5 3q-8 1 -16 4t-17 4v1v1q0 3 4 3q7 0 14.5 -2.5t14.5 -2.5h2t1 2v13l-3 3q-1 0 -4 1t-6 1.5t-6 1.5t-4 1q-3 1 -7 2t-7.5 3t-6.5 4.5t-3 5.5
q5 0 9.5 -1.5t8.5 -3.5t8.5 -4t8.5 -2q1 0 3 0.5t2 2.5v15q0 2 -4 3t-8.5 2t-8.5 2.5t-4 4.5v15l1 1t2.5 2t3 2.5t2.5 1.5q0 1 1.5 1.5t3.5 1.5t3.5 1.5t2.5 1.5l1.5 1t1.5 2t-3.5 4.5t-8.5 7l-10 7t-7 5.5q-3 4 -4 9.5t-1 10.5t0.5 10t1.5 10.5t2.5 10.5t3.5 9q2 2 6 4
t8 4.5t7 5t3 6.5zM114 177v-4v-4q0 -3 0.5 -5.5t0.5 -3.5q2 -3 4.5 -5t5 -3.5l5 -3t5.5 -3.5q4 -3 6 -6t4 -5.5t5 -4.5t9 -2l2.5 0.5t3.5 0.5t2 1.5t1.5 3.5t2 4t2.5 4q7 5 12 8t8.5 6.5t5 8.5t1.5 15q0 4 -0.5 9t-1.5 9.5t-3 8.5t-6 7q-1 1 -3 2.5t-4.5 3.5t-4.5 3.5
t-2 2.5q-1 0 -1.5 1.5t-1.5 3t-1.5 3t-0.5 2.5q-1 1 -3 2.5l-2 1.5h-14q-1 0 -1.5 -0.5l-0.5 -0.5q0 -1 -0.5 -2t-1 -2.5t-1 -2.5l-0.5 -1l-1.5 -3t-1.5 -2t-2 -1.5l-3 -1.5q-9 -6 -13.5 -10t-7 -8t-3 -10.5t-0.5 -16.5zM138 196q0 5 2 8t5 4.5t7 1.5h8h11q6 -3 9 -8t3 -11
q0 -1 -0.5 -1.5t-0.5 -2t-0.5 -2.5l-0.5 -1v-2q0 -3 1.5 -3.5t3 -1.5t2.5 -2t1 -3h-27q-2 0 -2 -3v-3q0 -3 2 -4t4.5 -1.5t6 -0.5h6.5t5 -0.5t2 -2.5v-1v-1q-1 0 -3 -0.5t-4 -0.5t-3.5 -0.5t-2.5 -0.5t-3 0.5t-4 0.5h-4h-3q0 -1 0.5 -2.5t0.5 -3v-2.5v-2q0 -1 -0.5 -1.5
l-0.5 -0.5q-2 0 -4 -0.5l-2 -0.5v11l-1.5 0.5t-2.5 0.5q-1 1 -3.5 1t-5.5 0.5t-5.5 0.5h-3.5l-1 2v1q0 1 2 2t3 2h2.5h4.5h4h3q2 1 2.5 1.5t0.5 2.5t-0.5 4t-2.5 2h-24l-1 3l3 4h12l0.5 2t0.5 3l-0.5 1.5l-1 3t-0.5 2.5v1v4zM147 199q0 -3 2 -4t4 -1h4.5h3.5h3h4t3.5 1
t1.5 4q0 2 -1.5 3t-3.5 1.5t-4.5 0.5h-3.5h-3t-4 -0.5t-4 -1.5t-2 -3zM159 178h7.5t8.5 1v2q0 1 -1 3.5t-3 2.5h-25v-8l1.5 -0.5t4 -0.5h4.5h3zM122 107q0 -2 1.5 -4t4 -3t5 -1.5t4.5 -0.5h2.5t1.5 2v7v3v4.5t-1.5 4t-3.5 0.5q-5 0 -9.5 -3t-4.5 -9zM147 116v-15q0 -1 2 -2
t4 -1.5t3.5 -1t2.5 -0.5h2q1 0 2 0.5t2 0.5t1 1v21h-15zM173 110v-4t0.5 -4t2 -3t3.5 -1q4 0 7 0.5t6 2.5v6q0 5 -2 7t-8 2h-3h-3q-3 -1 -3 -2.5v-3.5zM147 90v-21l4 -3h1.5h2.5h7.5t5.5 3v4v4v7q0 1 -2 4q0 1 -0.5 1.5l-0.5 0.5h-18z" />
</svg>
