<?xml version="1.0" standalone="no"?>
<!DOCTYPE svg PUBLIC "-//W3C//DTD SVG 1.1//EN" "http://www.w3.org/Graphics/SVG/1.1/DTD/svg11.dtd" >
<svg xmlns="http://www.w3.org/2000/svg" xmlns:xlink="http://www.w3.org/1999/xlink" version="1.1" viewBox="-10 0 266 256">
   <path fill="currentColor"
d="M152 249l1.5 1.5t1.5 0.5q3 0 5 -2t2.5 -5.5t1 -6.5t0.5 -5q0 -7 -1 -13.5t-1 -13.5v-2v-8t0.5 -10t0.5 -9t1 -5v-4.5t0.5 -5t2 -4.5t4.5 -2h38q0 -4 -0.5 -7t-3.5 -3q-11 0 -21.5 1t-21.5 1v-12l2 -2q9 0 15.5 -2t10.5 -6t5.5 -11t1.5 -18v-2v-4v-3.5v-1.5
q-1 -4 -4.5 -6t-8.5 -3t-9.5 -1.5t-5.5 -0.5h-1l-1.5 0.5t-3 0.5t-3 0.5l-1.5 0.5q-1 0 -2.5 -0.5t-3 -0.5t-3 -0.5l-1.5 -0.5h-3q-6 0 -10.5 2.5t-7.5 6t-4.5 9t-1.5 10.5q0 16 7.5 24t22.5 11q2 0 2 3v3v3q0 3 -2 3h-8t-12.5 0.5t-12.5 0.5t-8 1h-2.5t-3 0.5t-3 0.5h-1.5
v1.5v1.5q0 3 2 3.5t5 0.5q8 0 16.5 -1t17.5 -1h10q2 2 2 3v3q0 14 -1 28t-1 28v30zM69 139v100l0.5 1.5l0.5 1.5l0.5 0.5l0.5 0.5q3 0 5 -3t2.5 -6.5t0.5 -7v-5.5q0 -6 -1 -11t-1 -10v-2v-2t0.5 -4t0.5 -3.5v-2.5q0 -2 0.5 -8.5t0.5 -13.5t-0.5 -13t-0.5 -9q2 -4 5 -5.5
t6.5 -3t6.5 -3.5t3 -8q0 -1 0.5 -3.5t0.5 -6t0.5 -7t0.5 -5.5v-2q0 -3 -3 -3h-2t-2 1v3.5v6t-0.5 6t-0.5 3.5q-1 4 -3 8t-6 4t-5 -3t-1 -7q0 -1 0.5 -4t0.5 -6.5t0.5 -6.5t0.5 -4v-15q1 -3 4 -4t5.5 -2t5 -2.5t3.5 -5.5l0.5 -3t1 -7t1 -7.5t0.5 -5.5v-1q0 -2 -1 -2.5
t-2 -0.5q-4 0 -5 4.5t-1.5 9.5t-1.5 9.5t-6 4.5q-1 0 -2 -2t-1 -4v-4v-3q0 -9 2.5 -15t5.5 -9.5t6.5 -5.5t6.5 -3t5 -2t2 -4q0 -2 -1.5 -3t-3.5 -3h-1h-1l-2.5 1.5t-3.5 1.5q-2 1 -4.5 2.5t-6 3t-6 3l-2.5 1.5q-3 4 -3 12v15.5t-2 14.5t-7 6q-6 0 -6 -7v-22q0 -2 -2 -3
t-3 -1q-2 0 -3.5 0.5t-1.5 3.5v4.5v4.5t0.5 5.5t1.5 9t2 8.5t3 4h16v47q0 1 -1 1.5t-1.5 0.5h-1.5h-1q-5 0 -7 -2.5t-2.5 -6t-0.5 -7.5v-8t-1 -6t-3 -2q-4 0 -4.5 3.5t-0.5 6.5v4t0.5 6.5t0.5 7v4.5q1 3 3 4.5t4.5 2t5.5 1t5 0.5zM131 113q0 -2 2 -3t4.5 -1.5t4.5 -0.5h4
q6 0 7 3t1 9v3.5v3.5q-1 2 -2 2h-3q-6 0 -12 -4.5t-6 -11.5zM162 112v-4q4 -1 7.5 -1h7.5h6q2 1 2.5 2t0.5 3q0 4 -2 6.5t-5 4.5t-6.5 3t-5.5 1h-2h-1q-2 -5 -2 -8v-7zM128 95q0 -3 2.5 -5.5t5.5 -4t6 -2t5 -0.5h4.5t2.5 3v12l-0.5 0.5l-1.5 1.5h-0.5h-0.5h-3t-4 0.5t-4 0.5
h-2q-3 0 -6.5 -1.5t-3.5 -4.5zM162 94q0 -7 2.5 -10t8.5 -3q2 0 4.5 1t5.5 2.5t4.5 3.5t1.5 4q0 3 -1.5 4.5t-4 2.5t-5 1h-4.5h-3t-4 -1t-3.5 -2t-1.5 -3zM170 22l-2.5 1t-2.5 2v29q0 2 1.5 3.5t4 2.5t5 1h3.5q8 0 12.5 -2t6.5 -5.5t2 -9v-13.5v-2v-4v-2.5v-2.5t-0.5 -1.5
l-0.5 -0.5q-3 0 -4 2.5t-1.5 4.5t-1.5 4.5t-3 2.5h-14q-2 0 -2.5 -1.5l-1 -3t-1 -3.5zM120 32q0 8 1.5 15t8.5 12h7q4 0 8.5 -0.5t6.5 -4.5q1 -4 1 -7t0.5 -5.5t0.5 -5v-6.5v-7l-2 -1h-1v0q-1 0 -2 2l-2.5 5t-2.5 3h-17v-9h-2h-3t-2 2v7zM171 38h18q1 0 1.5 1.5t0.5 2.5
q0 12 -11 12q-3 0 -5 -1.5t-3 -3.5t-1 -5v-6zM128 44q0 -2 0.5 -4t2.5 -2h13q1 0 2 3l1 3v0v0q0 5 -3.5 7t-6.5 2q-4 0 -6.5 -2.5t-2.5 -6.5z" />
</svg>
