<?xml version="1.0" standalone="no"?>
<!DOCTYPE svg PUBLIC "-//W3C//DTD SVG 1.1//EN" "http://www.w3.org/Graphics/SVG/1.1/DTD/svg11.dtd" >
<svg xmlns="http://www.w3.org/2000/svg" xmlns:xlink="http://www.w3.org/1999/xlink" version="1.1" viewBox="-10 0 266 256">
   <path fill="currentColor"
d="M182 216q4 0 6 2.5t3 6.5t1.5 8.5t1.5 8.5t3 6.5t5 2.5q5 0 5 -6q0 -1 -1.5 -6t-3.5 -10.5t-4.5 -10.5t-2.5 -6q1 -4 2 -6t1.5 -4.5t0.5 -4.5v-5v-3v-3q-3 -4 -8 -5t-10 -1h-3h-2q-1 0 -1.5 0.5t-0.5 1.5v0q0 2 2.5 2.5t5.5 1t5.5 2t2.5 4.5t-2 6t-5 3h-1q0 -1 -2 -2.5
t-3 -1.5q-3 -1 -7.5 -1h-7.5h-7q-2 1 -2.5 2t-0.5 3q0 3 1.5 3.5t4.5 0.5h5h5q3 0 4.5 0.5t1.5 2.5q0 3 -2.5 4t-6.5 1t-9 0.5t-9 1.5t-7 3.5t-3 6.5h4.5h7t7 -0.5t4.5 -0.5q4 0 6.5 -1t4.5 -2t4 -2.5t5 -2.5h1h1zM66 245q0 3 1 3.5t3 0.5t4.5 -0.5t3.5 -2.5q0 -2 0.5 -6.5
t0.5 -10t0.5 -10t0.5 -6.5v-64q0 -4 1.5 -5.5t4 -2.5t5 -1.5t4.5 -1.5l1.5 -5.5t3 -12.5t2.5 -13t1 -7q0 -2 -2 -4t-3 -2h-1l-1 1t-1 2t-0.5 4.5t-1.5 7.5t-1.5 7.5t-0.5 5.5q-1 3 -2.5 5.5t-4.5 3.5q-1 1 -2.5 -1t-1.5 -3v-3v-4v-3v-3v-17.5t3 -17.5l0.5 -0.5l0.5 -0.5h11
q1 0 3 -3t2 -5q2 -6 3.5 -13.5t1.5 -13.5q0 -5 -2 -6t-7 -1v23q0 1 -1.5 3t-3 3.5t-3.5 2.5t-4 0q-1 0 -1 -2v-3v-13t3 -13q1 -2 3.5 -4l5 -4t4 -4t1.5 -4t-1 -2.5t-4 -0.5q-7 0 -11.5 3.5t-6.5 9t-2.5 11.5t-1 11t-1.5 8.5t-3 3.5q-3 0 -4 -3.5t-1 -8.5t-0.5 -9.5
t-1.5 -6.5h-3h-3t-3 1v9q0 10 1 15t2 7.5t3 3l4 1t4.5 1.5t4.5 4v7q0 10 -0.5 19.5t-1.5 21.5q1 2 0 2.5t-3 0.5q-1 0 -2.5 -1.5t-2.5 -3t-2 -3.5t-1 -3v-4.5v-6.5v-7v-4q0 -2 -1 -3.5t-3 -1.5t-4 1t-3 2v6v5q0 3 0.5 7t0.5 8.5t0.5 7l0.5 2.5l3 3l14 4q1 0 2 2l1 2v4
t-0.5 6t-0.5 5.5v3.5v11v18v16.5v11.5l-2 6t-1 7v8v6zM114 248q1 1 2 1h2q3 0 4.5 -2.5t2 -5.5t0.5 -6v-5v-23q1 -4 4 -7l5.5 -5.5t5 -5.5t2.5 -7q0 -1 -0.5 -3.5t-0.5 -3.5q-3 -3 -7 -4.5t-7.5 -2.5t-6.5 -2.5t-3 -5.5q0 -5 2.5 -7t6 -2.5t7.5 -1t7 -2.5q2 -2 3.5 -6
t2 -8.5t0.5 -9v-7.5v-13l-1 -0.5t-1 -1.5l-1.5 -0.5l-1.5 -0.5q-3 1 -4 3t-1 4v4q0 3 -1 5h-3.5t-6 0.5t-6 0.5h-3.5l-6 1.5t-2 4.5q0 1 0.5 1.5t1.5 0.5q6 1 12.5 1.5t12.5 0.5l3 3v0q0 4 -2 6t-5.5 3.5t-7.5 2.5t-7.5 3.5t-5.5 6t-2 8.5q0 7 3.5 9.5t7.5 4.5t7.5 3.5
t3.5 5.5t-1.5 6.5t-4 5t-5 5.5t-3.5 7q-1 3 -1.5 6t-0.5 6.5v7.5v6v2v5.5v4.5v3zM166 157q0 4 2 6.5t5.5 4t7.5 1.5h7q1 0 4 0.5t5.5 0t4.5 -1.5t2 -3v-1v-2t-0.5 -2t-1.5 -1h-23q-1 0 -2 -1l-1 -1v-1q0 -4 2 -6t5.5 -3t7.5 -2t7 -3t5.5 -5t2.5 -8q0 -6 -3 -8.5t-7 -3
t-9 -0.5q-4 0 -8 -1q-3 -1 -3.5 -3t-0.5 -4t-0.5 -3.5t-3.5 -1.5t-4.5 2t-2 5t-0.5 6t-1 5q-1 5 -4 10t-3 10h9l0.5 -1.5t1.5 -3.5t1.5 -3.5t0.5 -2.5q1 -1 2.5 -3.5t2.5 -2.5h19q1 0 1.5 2t0.5 3q-1 3 -3.5 5t-5.5 3t-6.5 2t-6.5 3t-5 5t-2 9zM165 86q1 1 6 4.5t10.5 6.5
t11 5.5t7.5 2.5t3 -1t1 -4q0 -1 -2.5 -3t-5.5 -3t-6.5 -2t-4.5 -2v0q0 -2 1.5 -4.5l3 -5l1.5 -2.5q5 1 7.5 -0.5t4.5 -4.5t3 -7.5t1 -8.5v-8v-6v-14q0 -1 -2 -2t-3 -1t-2.5 1.5t-1.5 3.5v31q0 2 -2 5t-5 3l-1.5 -1t-1.5 -2v-12q0 -9 1.5 -18.5t1.5 -18.5q0 -5 -4 -5
q-2 0 -4 0.5t-3 3.5q1 17 0.5 33.5t-3.5 33.5h-1v0q-3 0 -3.5 -2t-1.5 -4q0 -4 0.5 -9.5l1 -11t1 -10.5t0.5 -10q0 -2 -1 -4t-4 -2h-1.5t-1.5 1q-2 8 -1.5 16.5t0.5 16.5v21zM110 100q0 3 3 3h0.5h0.5l7 -3q7 -3 13 -5t10 -5.5t6.5 -8.5t3.5 -14v-7v-11v-11v-7h-7v7
t-0.5 10.5t-0.5 10.5v6q0 2 -0.5 6t-1.5 5q0 1 -1 3t-3 2v0v0q-1 0 -1.5 -0.5t-0.5 -1.5t-0.5 -3.5t-0.5 -5.5t-0.5 -5.5t-0.5 -3.5v-2q0 -9 2 -18t2 -18q0 -3 -2 -4t-4 -1t-3.5 1t-1.5 4v38q0 2 -1.5 4t-3.5 2q-3 0 -4 -2t-1 -4v-27q0 -2 -1.5 -2h-2.5q-3 0 -4 2t-1.5 4.5
t0 5t0.5 4.5v13t4 12q2 2 4.5 2.5t4.5 1t4 2t2 5.5q0 5 -3 7t-7 3t-6.5 2t-2.5 4z" />
</svg>
