<?xml version="1.0" standalone="no"?>
<!DOCTYPE svg PUBLIC "-//W3C//DTD SVG 1.1//EN" "http://www.w3.org/Graphics/SVG/1.1/DTD/svg11.dtd" >
<svg xmlns="http://www.w3.org/2000/svg" xmlns:xlink="http://www.w3.org/1999/xlink" version="1.1" viewBox="-10 0 266 256">
   <path fill="currentColor"
d="M68 242q0 5 2 7t6 2t5.5 -3.5t1.5 -6.5v-4v-4.5v-5.5v-3q0 -18 -1.5 -36t-1.5 -36q0 -2 3 -3.5t6.5 -3t7 -3.5t4.5 -8t1 -10.5v-11.5v-9l-1 -1.5t-2 -1.5v0v0q-4 0 -5 3t-1.5 7.5t-0.5 10t-1 9.5t-2.5 6.5t-5.5 1.5q-1 0 -2 -1.5t-1 -2.5v-43q0 -1 1.5 -2t4 -1.5t4 -1
l1.5 -0.5q6 -1 8.5 -5.5t4 -10t2 -11.5t0.5 -11v-6q-1 0 -2 -1t-2 -1v0v0h-1q-1 0 -2 0.5t-1 1.5q-1 0 -2 1l-1 1v24q0 2 -1.5 3.5t-3.5 2.5l-4 2l-2 1h-1q0 -1 -1 -1.5l-1 -0.5v-4.5v-4.5q0 -15 6.5 -24.5t21.5 -14.5v-1.5v-1.5q0 -2 -1 -3t-4 -1q-11 0 -20.5 6.5
t-13.5 17.5q0 2 0.5 6t0.5 8q0 5 -0.5 9.5t-2.5 7.5l-0.5 1l-0.5 1q-1 0 -3 -1.5t-2 -2.5q-1 -6 -1.5 -13t-0.5 -13q-1 -3 -2.5 -3.5t-3.5 -0.5t-4 0.5t-1 3.5v10v10q0 5 3.5 9.5t6.5 7t6 4.5l3 2v47q0 1 -1 1h-2q-4 0 -5 -2.5t-1.5 -6t0 -8t0 -8.5t-2 -6t-5.5 -2h-1h-1
l-1.5 6t-0.5 5v4l1 3t1 4v10t1.5 6.5t5.5 3.5t12 1l2 6v82l-1 3zM102 224q0 3 2 4t5 2t5.5 1h4.5h0.5h0.5q1 0 4.5 -0.5t7 -1.5t7 -1.5t4.5 -0.5h12t19.5 -0.5t19 -0.5h12.5q2 -1 2.5 -2t0.5 -3q0 -3 -2.5 -4t-5.5 -1q-24 0 -48.5 1.5t-48.5 3.5l-1.5 1.5t-0.5 1.5zM125 178
q0 8 2.5 13.5t7.5 8.5t11.5 4.5t13.5 1.5q14 0 22.5 -8t8.5 -23v-5v-5t-1 -5l-2 -4l-2 -2t-2.5 -2t-3 -1.5t-2.5 -0.5h-28q-6 0 -10.5 2.5t-7.5 6.5t-5 9t-2 10zM141 187q0 -3 2.5 -4.5t6.5 -2t7.5 0t4.5 0.5h13q2 1 2 2v3q0 1 -1 2.5t-2.5 3t-3.5 2t-3 0.5h-19q-3 0 -5 -2
t-2 -5zM141 163q6 -2 10 -3.5t10 -1.5h5t6 1t5 3t2 5q0 4 -3 5t-7 1h-6h-8h-8h-6v-10zM117 99q0 13 3 20.5t8.5 12t14.5 5.5t21 1q8 0 16 -3.5t13.5 -9t8.5 -13.5t2 -17q0 -15 -8.5 -22t-22.5 -7q-9 0 -19 0.5t-18.5 3.5t-13.5 10t-5 19zM128 113v-25q0 -2 4 -4.5t9 -4.5
t10.5 -3t7.5 -1h6h5.5t5.5 0.5t7 1.5t5.5 3.5t2 5t0.5 5.5v6q0 9 -1.5 15t-5 9.5t-9.5 5t-14 1.5h-4h-6t-6 -0.5t-4 -0.5zM141 99q0 5 2 8t5 4.5t7 2.5t7 1h4q2 0 4 -2q1 -1 2.5 -2t3 -2.5t2 -2.5l0.5 -1v-15q0 -2 -1 -3t-3 -1.5t-3.5 -0.5h-2.5h-9t-9 1.5t-6.5 4.5t-2.5 8z
M151 99q0 -4 3.5 -6t7.5 -2q3 0 5 2.5t2 5.5t-2.5 5t-5.5 2q-4 0 -7 -1.5t-3 -5.5zM115 53q0 2 1 3t4 1q6 0 11.5 -1.5t11 -3.5t11 -3.5t12.5 -1.5q10 0 19 2t19 3q2 0 4.5 -1t2.5 -4q0 -2 -3.5 -4t-8 -3.5t-8.5 -2t-6 -0.5q-1 0 -3.5 -0.5t-5.5 -0.5t-5.5 -0.5t-3.5 -0.5
v-20q0 -1 -2.5 -2l-2.5 -1v0q-1 0 -2.5 0.5t-2.5 1t-2 1.5t-1 2v18l-1 3q-5 0 -10 1t-10 3t-9.5 4t-8.5 4v1.5v1.5z" />
</svg>
