<?xml version="1.0" standalone="no"?>
<!DOCTYPE svg PUBLIC "-//W3C//DTD SVG 1.1//EN" "http://www.w3.org/Graphics/SVG/1.1/DTD/svg11.dtd" >
<svg xmlns="http://www.w3.org/2000/svg" xmlns:xlink="http://www.w3.org/1999/xlink" version="1.1" viewBox="-10 0 266 256">
   <path fill="currentColor"
d="M165 221v28q0 2 1.5 2h2.5t3.5 -1.5t2.5 -3.5v-22q0 -3 2 -3h4q5 0 7.5 3.5t3.5 8.5t2 9t4 4q2 0 2.5 -1.5t0.5 -3.5v-3.5v-2.5q0 -8 -2 -12t-5 -6t-6.5 -2.5t-6.5 -0.5t-5 -1t-2 -5q0 -3 2 -4.5t5 -2.5l6 -2t6 -2.5t5 -5.5t2 -10q0 -3 -0.5 -4.5t-3.5 -1.5q-4 0 -5.5 3
t-2 7t-2.5 6.5t-8 2.5h-1.5h-2.5q-1 -2 -1.5 -4.5t-1.5 -5t-2.5 -4t-5.5 -1.5h-20q-1 0 -1.5 1t-0.5 2t1 1l20 3q1 1 1.5 3.5t0.5 3.5q0 2 -1.5 3.5t-4 2t-4.5 0.5h-5h-6q-1 -1 -2.5 -3l-3 -4t-3 -3t-4.5 -1h-1.5t-1.5 2q0 1 1 3.5l2 5t2.5 4.5t4.5 2h25l2 2l3 3v1
q0 3 -4 4.5t-9 4t-9 7.5t-4 14q0 2 0.5 5t2.5 3q4 0 5.5 -4.5t2.5 -9.5t4 -9.5t9 -4.5zM65 240l1 4q0 1 1 1h2q2 0 4.5 -0.5t3.5 -1.5q0 -11 0.5 -23t1.5 -23v-9t0.5 -14.5t0.5 -14v-9.5q2 -2 5 -3l6 -2t5.5 -2t4.5 -5q2 -9 3 -15.5t1 -14.5v-5t-3 -3h-0.5h-0.5
q-3 3 -3.5 9.5t-1.5 13t-3.5 11.5t-7.5 5q-1 0 -2 -0.5l-1 -0.5v-44l1 -1.5t2 -2.5q3 -2 7.5 -2t6.5 -1q2 -3 3.5 -7t2 -8.5t0.5 -9v-8.5q0 -2 -0.5 -4.5t-3.5 -2.5t-3.5 5t-1 11t-2 11.5t-5.5 5.5q-1 0 -2 -0.5t-2 -1.5v-2v-4v-3v-3q0 -3 -0.5 -6.5t0 -6.5t1 -6.5t2.5 -6.5
t4.5 -4l5 -2t4 -2.5t1.5 -5.5q-5 0 -11 1t-10 6q-1 1 -2 3t-2.5 4t-2 4t-0.5 3v32q-1 0 -2 0.5l-2 1l-2 1t-1 -0.5q-2 -1 -4 -4t-2 -4v-23q0 -3 -1.5 -3.5t-2.5 -0.5q-5 0 -5.5 4t-0.5 8v1q0 2 0.5 4.5t1 5.5t1 5.5t0.5 3.5q1 4 4 6.5t6.5 4.5t6 3t2.5 3v9v8q0 6 -0.5 12
t-1.5 10.5t-3 4.5q-3 0 -5 -2t-3 -6v-5t-0.5 -8t-0.5 -8v-5q-1 -1 -2 -3t-2 -2q-2 0 -3 1.5t-1 3.5v3v5t0.5 9t1 8.5t0.5 5.5q0 4 2.5 6t5.5 3.5t5.5 2.5t3.5 2v7q0 19 -1 41t-5 42zM105 243q1 1 2.5 1.5t2.5 0.5q2 0 2.5 -1t0.5 -6l7 -99v-2.5t0.5 -5.5l1 -6t1.5 -5
q0 -2 1 -5.5t3 -6l4 -5t5 -2.5t5 0.5t2 4.5q0 2 -1.5 4t-3.5 4t-3.5 4t-1.5 5q0 4 1.5 6t3.5 4t3.5 4t1.5 5v1v1q-11 8 -11 21v3v3l0.5 0.5t1.5 0.5v0v0q3 0 4.5 -2.5t2 -6t1.5 -6.5t3 -4q2 2 3 4.5l2 5t3 4t5 1.5q0 -6 -2 -11t-2 -11q0 -2 1.5 -4t3.5 -3t3.5 -2t1.5 -3
q0 -1 -1 -1l-0.5 -0.5t-0.5 -1.5h-9.5t-7.5 -3l-2 -1v-11q0 -1 4 -1.5t9 -1.5t10 -1.5t7 -0.5q6 0 9.5 4.5t3.5 10.5q0 3 -2.5 6t-5 5.5t-5 5.5t-2.5 7t1.5 9.5t5.5 8.5l3 -4v-13q4 0 6.5 1.5t4 3.5t3 3.5t4.5 1.5q2 0 3.5 -0.5t1.5 -3.5q0 -4 -2.5 -5.5t-6 -3t-6 -3
t-2.5 -4.5v-2q1 -1 3 -2.5t4 -3.5t3.5 -4t1.5 -4q1 0 1 -1q0 -4 -4 -7.5t-8.5 -6.5t-8 -5.5t-3.5 -3.5q0 -2 0.5 -3.5t2.5 -2.5q3 0 6.5 -0.5t7 -1.5t6 -3.5t2.5 -6.5v-21q0 -2 -1.5 -2.5t-3.5 -0.5h-0.5h-0.5q-2 6 -4 8.5t-9 2.5h-4q-1 0 -1.5 -2t-0.5 -3v0q0 -4 3 -6.5
t7 -6.5t7.5 -9.5t3.5 -13.5q0 -2 -1.5 -5t-4.5 -3t-4 5t-2.5 10.5t-4.5 10.5t-10 5q-2 0 -5 -1t-3 -5v-3v-3.5t0.5 -7.5t0.5 -7.5v-4.5v-1q0 -3 -0.5 -4.5t-3.5 -1.5t-5.5 1.5t-2.5 5.5t1 8t1 8v4q0 2 -0.5 5t-1.5 5.5t-2 2.5q-4 0 -6.5 -2t-4 -5t-2.5 -6.5t-1 -6.5
q-2 -2 -5 -2.5t-5 -0.5q0 7 1.5 13t5.5 11q1 1 2.5 2l3 2l3 2t1.5 2v14h-21q-1 0 -1.5 1.5t-0.5 2.5t0.5 2t3.5 1h17q1 0 2 2.5t1 3.5q0 2 -1 3.5t-3 2t-4 0.5h-3q-9 4 -13.5 11.5t-6 16.5t-1.5 19t-1 18q0 1 -0.5 5t-1 9t-1 11t-1 11t-1 9t-0.5 5v2v5v5v4v4v5v4.5v3.5z
M152 101q0 -3 3 -3.5t6 -0.5t4.5 0.5t1.5 3.5t-3 4t-6 1q-2 0 -4 -1t-2 -4zM149 86q0 -1 1 -2.5t1 -2.5q3 -1 6 -1.5t6 -0.5q2 0 3.5 1.5t1.5 3.5q0 1 -1 3.5t-2 2.5h-13l-1 -1q0 -1 -1 -2zM176 85q0 -2 1.5 -4t3.5 -2.5t4.5 -1t4.5 -0.5q0 5 -1.5 8t-5.5 3q-2 0 -4.5 -0.5
t-2.5 -2.5zM162 58q5 0 5.5 3t0.5 6v5l-0.5 0.5l-0.5 0.5h-16v-11q0 -1 1.5 -2t3.5 -1.5t4 -0.5h2z" />
</svg>
