<?xml version="1.0" standalone="no"?>
<!DOCTYPE svg PUBLIC "-//W3C//DTD SVG 1.1//EN" "http://www.w3.org/Graphics/SVG/1.1/DTD/svg11.dtd" >
<svg xmlns="http://www.w3.org/2000/svg" xmlns:xlink="http://www.w3.org/1999/xlink" version="1.1" viewBox="-10 0 266 256">
   <path fill="currentColor"
d="M197 192q2 7 2 14t-0.5 14.5t-0.5 15.5q0 7 2 14h0.5h0.5q4 0 5 -3v-37q0 -33 -1 -65t0 -65l-4 -16l-1 -0.5t-2 -1.5q-6 -2 -13 -2.5t-12 -0.5h-21q-2 0 -3.5 -0.5t-1.5 -2v-2.5v-2v-8t1 -7.5t3.5 -6t6.5 -2.5t5 3t2 7t2.5 7t6.5 3h23q2 0 2.5 -2t0.5 -3q0 -2 -2 -3.5
t-4 -1.5h-1.5h-0.5l-1.5 0.5t-2.5 0.5t-2.5 0.5l-1.5 0.5q-4 0 -7.5 -2t-3.5 -7q0 -1 0.5 -1.5t2.5 -1.5l27 -3q1 0 1.5 -1t0.5 -2q0 -3 -3 -5t-5 -2h-2q-3 1 -8 1t-10.5 1t-10 1.5t-5.5 0.5q-2 0 -5 0.5t-6.5 2t-6 3.5t-2.5 5l-4 26q0 1 -1 1.5t-2 0.5t-4.5 -1.5t-3.5 -3.5
v-26q0 -2 -1.5 -3t-3.5 -1l-1.5 0.5t-1.5 1.5v29q0 4 3 6.5t7 4t6.5 2.5t2.5 2v9q0 1 -3 1.5t-7 2.5t-7.5 4t-4.5 5q0 5 -0.5 15t-1 22t-1 25.5t-1 26t-1 22t-0.5 14.5q0 6 -0.5 13t-0.5 13v3t3 2q2 -2 4 -5.5t2 -6.5v-60q2 -7 2.5 -16t0.5 -17v-17.5v-16.5q0 -3 0.5 -6.5
t1 -6.5t2.5 -5t6 -2t5.5 2t3 4.5t3.5 4.5t5 2h36q1 0 1 -1t0.5 -2t0.5 -2v-1h-36l-5 -5q3 -4 10 -5t14 -1h12.5t5.5 -3v-1v0q-1 -1 -2 -1.5l-1 -0.5h-37q-2 0 -2 -1.5v-1.5q0 -6 3 -8h3h4h4h3h9q6 0 11 1t9 3.5t4 8.5q1 28 1.5 56t0.5 56zM72 163q0 21 -1 41.5t-1 41.5
q8 0 10 -7q1 -27 1.5 -53t-0.5 -53q2 -2 4 -2t4 -1q6 -2 9 -7t3.5 -11t0 -12.5t-0.5 -11.5q-5 0 -6.5 4.5t-1 10.5t0 11.5t-4.5 5.5q0 1 -3.5 0.5t-4.5 -0.5v-4.5v-4.5q0 -2 0.5 -6t0.5 -8.5t0.5 -9t0.5 -5.5q1 0 3 -1t4.5 -1.5t5 -1.5t3.5 -3q2 -8 3.5 -16.5t1.5 -17.5v-3
v-3q-1 -2 -1.5 -2h-2.5t-2.5 3t-1 7t-0.5 9.5t-1 9.5t-2.5 7t-5.5 3h-0.5h-0.5l-0.5 -0.5t-0.5 -1.5v-2t-0.5 -3.5t-0.5 -3.5v-2v-6.5v-7.5t1 -7.5t3 -6t5.5 -4t6.5 -3t6 -3.5t3 -6q0 -3 -5 -3h-2t-2 0.5l-2 1t-4 1.5q-9 4 -13 9.5t-5.5 13t-1 16t0.5 16.5q0 1 -0.5 1.5
t-1.5 0.5l-1 -0.5t-2 -1.5t-2 -1.5t-1 -1.5v-29q0 -4 -2 -5t-4 -1q-4 0 -5.5 2t-1.5 5.5v6.5v6q0 6 1 11t6 11q1 1 3 2l4 2t3.5 2t1.5 2v37q0 2 -2 2h-3q-2 0 -3.5 -0.5t-2.5 -3.5v-2.5t-0.5 -4.5t-0.5 -4v-3v-3v-4.5t-1 -4.5t-4 -2v0.5v0.5q-4 3 -4.5 7t-0.5 8q0 1 0.5 5.5
t1.5 8.5t2 7.5t3 3.5h10l2 2l0.5 1.5t0.5 3.5t0.5 4t0.5 4v18zM125 237l1 2h5h7h11.5t11 -0.5t11 -0.5t12.5 -1l1.5 -0.5t1.5 -1.5v0v0v-1v0q-5 -1 -7.5 -2t-4 -3.5t-1.5 -6v-8.5v-11q2 -2 4.5 -3.5t5 -2t4.5 -2t2 -5.5v-2t-2 -1q-1 0 -3.5 1.5t-6 3t-6.5 2.5t-4 1h-4h-5
q-5 0 -9 -1t-8.5 -3t-8 -3.5t-8.5 -1.5q0 6 4 8t8 3.5t7.5 3.5t3.5 7q0 6 -0.5 12t-0.5 12q-1 0 -3.5 0.5t-5.5 0.5t-5 0.5t-3 0.5q-2 0 -3.5 1t-1.5 2zM155 216v-4t0.5 -4t1.5 -3.5t4 -1.5h2.5t2.5 2v24q0 2 -1.5 2.5t-2.5 0.5q-4 0 -5 -1.5t-1.5 -4t-0.5 -5.5v-5zM136 209
q-1 0 -2 0.5t-1 1.5v12q0 1 1 1h2h1.5t1.5 -1v-12q0 -1 -1.5 -1.5zM186 206h-1l-0.5 1l-0.5 1v15l0.5 0.5l0.5 0.5h1q1 0 2 -1.5t1 -3v-3v-2.5v-3t-1 -3q0 -1 -0.5 -1.5l-0.5 -0.5h-1zM129 118q0 1 1 1v1.5t0.5 2.5t0.5 2.5v1.5v6v11v11v6q0 7 1.5 10.5t4.5 5.5t7.5 2h10.5
h9.5t9.5 -1.5t7.5 -4.5t3.5 -9q1 -5 1.5 -9t0.5 -7.5v-7.5v-9q0 -1 0.5 -4t0 -6.5t-1.5 -6t-4 -2.5t-3 2.5v5.5q0 2 -0.5 4.5t-2.5 2.5h-14v-15l-1 -0.5l-1 -0.5h-0.5h-0.5h-0.5h-0.5q-1 0 -2 0.5l-1 0.5v14l-3 3h-14q0 -2 0.5 -5t0.5 -5q0 -3 -1 -5t-4 -2t-4 1.5t-1 4.5z
M139 153h13q1 0 1.5 1t1 3t0.5 4v2q0 5 -1.5 7t-6.5 2q-2 0 -5 -0.5t-3 -4.5v-14zM163 154l2 -1h1.5t3.5 -0.5t4 -0.5t3 -1h1q2 0 2.5 1t0.5 2q0 9 -5 13t-13 4v-17zM139 135h14q2 0 2 2v3q0 3 -1.5 4.5t-4 2t-5.5 0.5h-5v-12zM177 133h2q0 1 1 3.5t1 3.5t-1 3l-1 2h-17
q0 -4 1 -6.5t2.5 -3.5t4.5 -1.5t7 -0.5z" />
</svg>
