<?xml version="1.0" standalone="no"?>
<!DOCTYPE svg PUBLIC "-//W3C//DTD SVG 1.1//EN" "http://www.w3.org/Graphics/SVG/1.1/DTD/svg11.dtd" >
<svg xmlns="http://www.w3.org/2000/svg" xmlns:xlink="http://www.w3.org/1999/xlink" version="1.1" viewBox="-10 0 266 256">
   <path fill="currentColor"
d="M54 105q-2 0 -3 1.5l-1 1.5v28q0 4 3.5 5.5t7.5 3t7.5 2.5t3.5 4v96q0 2 1 2.5t3 0.5q3 0 4 -1.5t2 -3.5q-1 -24 0.5 -48t0.5 -48q1 -4 3.5 -5.5t4.5 -2t4.5 -1.5t4 -4t3 -8.5t1.5 -15.5v-7q0 -1 -0.5 -1.5t-1.5 -0.5t-2.5 1t-2.5 3v2.5v5.5t-0.5 5.5t-0.5 3.5
q-1 2 -1.5 4t-2 4t-3 3.5t-3.5 1.5q-4 0 -5 -2.5t-1 -5.5v-2q0 -1 0.5 -3.5t1.5 -2.5v-32q0 -2 3.5 -1.5t7.5 -1t7.5 -6.5t3.5 -18q-1 0 -1.5 -1.5l-0.5 -1.5l0.5 -1t1.5 -1v-10q0 -2 -1.5 -2h-1.5q-2 0 -3 0.5t-1 2.5v5v7t-0.5 7t-0.5 5q-1 8 -9 8q-2 0 -3.5 -1.5t-2 -3
t-1 -4t-0.5 -3.5q0 -3 0.5 -8l1 -10t1.5 -9.5t4 -6.5q1 -2 4.5 -4.5t7.5 -4.5t7 -4t3 -5q0 -1 -0.5 -2t-1.5 -2q-2 0 -6 2l-9 4.5t-9 5t-4 4.5l-5 15v35q0 3 -1.5 3.5t-3.5 0.5q-5 0 -7 -4t-2.5 -9t-0.5 -10t1 -8q-1 -1 -2.5 -3.5t-3.5 -2.5q-1 0 -2.5 0.5t-1.5 1.5v2v4v4v3
v3.5v5.5t0.5 6t1.5 5t4.5 3.5t7.5 3t7 3.5t3 5l-2 43h-1h-2q-3 0 -5 -1.5t-3 -4.5l-3 -24l-0.5 -0.5l-0.5 -0.5q-1 -1 -2 -1.5zM113 246v1l1.5 1t1.5 2h1h1l3 -3l2 -2v-38q0 -1 1.5 -2.5t3.5 -2.5t3.5 -1.5t2.5 -1.5q2 1 2.5 5.5t0.5 10t1.5 10.5t4.5 8h13q11 0 17 -2.5
t8.5 -6.5t2.5 -8t-0.5 -8t-0.5 -6.5t3 -2.5h1q1 1 2 1.5l1 0.5l5 44l1 0.5t2 1.5h1q2 0 3 -3t1 -5q0 -8 -1.5 -16t-1.5 -16q-1 -5 0 -12.5t0 -14.5t-4 -12t-12 -5t-19 1.5t-20 1.5h-1h-2t-4.5 -0.5t-4.5 -1l-2 -0.5q-1 0 -1.5 -2.5l-0.5 -2.5q0 -2 1 -4.5t4 -2.5
q15 -3 30.5 -4.5t31.5 -1.5q1 0 2 -0.5t2 -1.5v0v-1v-1l-1 -1t-1 -2h-5q-6 0 -11 1t-10 1q-3 0 -5 -0.5t-2 -4.5t3.5 -5t8.5 -1t8.5 -0.5t3.5 -5.5h-25q-1 0 -1.5 -0.5t-0.5 -1t-0.5 -2.5t-1.5 -3v0v-1q0 -1 1 -2t1 -2q6 -1 12 -1.5t12 -1.5q3 -1 3 -6q-6 0 -12.5 1t-12.5 1
q-3 0 -3.5 -3t-0.5 -5q0 -3 1.5 -5t4.5 -2t5.5 1.5t4.5 2.5t4.5 2t5.5 1q2 0 3 -1.5t1 -3.5q0 -3 -3 -4t-6.5 -1.5t-6.5 -1.5t-3 -5q0 -3 3 -4.5l6 -3l6 -3t3 -4.5q0 -1 -0.5 -2t-2.5 -2l-24 -8l-1 -0.5t-1 -1.5v0q0 -3 4.5 -3.5t10.5 -2.5t10.5 -6t4.5 -13v-4.5t-4 -1.5
q-3 0 -4.5 3l-3.5 7t-5 7.5t-10 3.5l-2 -0.5t-2 -2.5v-26q0 -1 -1.5 -1.5l-1.5 -0.5q-2 0 -4.5 1t-2.5 2v27q0 1 -3 1.5t-5 0.5q-5 0 -7 -3t-3 -6.5t-1.5 -6.5t-3.5 -3h-3t-2 2v4q0 1 0.5 4.5t1.5 6.5t2.5 5t5.5 2h21q2 0 2 2.5v2.5v3q-2 2 -7 5.5t-10.5 7t-9.5 7t-4 4.5v1
l0.5 0.5l0.5 0.5h20q2 0 3.5 1.5t1.5 2.5v1q-5 4 -9.5 9t-8.5 10.5t-6 11.5t-2 13q0 2 -0.5 7.5t-0.5 11.5t0.5 11.5t0.5 7.5q-1 3 -3.5 4.5t-3.5 4.5q-1 16 -2 34.5t-1 34.5zM146 215q0 -2 2.5 -3.5t5.5 -2t6.5 -1t5.5 -0.5h2q3 0 3 1q2 1 2 2.5v3.5q0 3 -1 5.5t-3 3
t-4.5 1t-5.5 0.5h-4h-4q-3 -2 -4 -4.5t-1 -5.5zM143 194q0 -2 1 -4t2.5 -4.5t3.5 -4t4 -2.5q2 1 6 2.5t7.5 3.5t6 5t2.5 6t-2.5 4.5t-6 2t-7 0.5h-5.5h-9q-2 -2 -2.5 -4t-0.5 -5zM123 187q0 -7 5 -10t10 -3h3.5t1.5 2q0 3 -1.5 6t-4 5.5t-5.5 4t-6 1.5q-2 0 -2.5 -2.5
t-0.5 -3.5zM163 173h0.5h0.5q0 -1 0.5 -1.5l0.5 -0.5h19q2 0 3.5 2t2.5 5t1.5 5.5t0.5 4.5t-1.5 3t-3.5 1q-1 0 -5 -2.5t-8.5 -5.5t-7.5 -6t-3 -5zM130 139q0 -2 2 -3.5t4 -2t5 -0.5h5h3t3 1t1 2.5v2.5q0 3 -2.5 4t-5.5 2t-7 1h-4q-3 -1 -3.5 -3t-0.5 -4zM133 122
q0 -6 3.5 -7t8.5 -1h7q1 1 1.5 3.5t0.5 3.5v0q0 3 -1 4t-3 1.5t-4 0.5h-4h-7q-2 -1 -2 -2v-3zM141 102v0q2 -3 3 -4t4 -1t4 2.5t0 5.5q0 2 -1.5 2.5t-3.5 0.5t-4 -1.5t-2 -4.5zM143 72q0 -2 1 -3t3 -1q3 0 3.5 1.5t0.5 3.5v2v2l-8 -4v-0.5v-0.5zM157 65q0 -2 1.5 -3t3.5 -1
t5 1.5t3 4.5q0 2 -2 5t-5 3q-1 0 -2 -1t-2 -2.5t-1.5 -3.5t-0.5 -3z" />
</svg>
