<?xml version="1.0" standalone="no"?>
<!DOCTYPE svg PUBLIC "-//W3C//DTD SVG 1.1//EN" "http://www.w3.org/Graphics/SVG/1.1/DTD/svg11.dtd" >
<svg xmlns="http://www.w3.org/2000/svg" xmlns:xlink="http://www.w3.org/1999/xlink" version="1.1" viewBox="-10 0 266 256">
   <path fill="currentColor"
d="M176 175q3 2 5 8.5t3.5 14.5t3 17.5t3 17t3.5 13t5 5.5q2 0 2 -2v-4q0 -6 -1 -13.5t-2.5 -14.5t-3.5 -14t-4 -12q1 -2 0 -4.5l-2 -5t-1.5 -5t-0.5 -5.5t3 -7t7 -8.5t7 -9.5t3 -12q0 -11 -2.5 -18t-6 -10.5t-7.5 -5t-7.5 -2.5t-5.5 -2t-2 -5v-5v-6.5t1 -6t3 -3.5h4t6 -0.5
t5.5 -0.5h3.5q1 -1 2 -1.5l1 -0.5v-8h-20q-1 0 -2 -2t-1 -3v0v-1q1 -8 2 -17t1 -17q0 -3 -1.5 -6t-4.5 -3t-4.5 2.5t-2 6.5t0 7.5t0.5 4.5q0 2 -0.5 8t-0.5 13q0 6 0.5 11.5t0.5 8.5q-1 2 -2 5.5t-1.5 7t-1 6.5t-0.5 4q-1 2 -3.5 3t-6 1t-6 -0.5t-3.5 -0.5q-2 1 -2 2v3
q0 3 1 5t4 2q5 0 10.5 -2t10.5 -2q3 0 8 0.5t9.5 2t7.5 4.5t3 7q0 2 -0.5 7.5t-2 11.5t-4 10.5t-6.5 4.5l-0.5 -0.5l-0.5 -0.5l-5 -17q-1 -2 -3.5 -2.5t-5.5 -0.5h-6t-8 0.5t-7 2.5t-3 5q0 2 1 2.5t3 0.5q4 0 8 -1t8 -1q3 0 5.5 2t4 5t2.5 6.5t1 5.5q0 3 -3 5.5t-7.5 4
t-9.5 2.5t-9 2.5t-7 3t-3 4.5v0v0q0 1 0.5 1.5t1.5 0.5h5q8 0 15.5 -3t14.5 -7zM122 248q0 1 1 1h2q2 0 3 -0.5t3 -2.5q0 -24 0.5 -48t2 -48t2.5 -48t1 -48v-4v-38q0 -1 -1 -1h-2q-2 0 -3.5 0.5t-2.5 2.5v5.5v10.5v8.5v6.5q0 1 -0.5 4.5t-1.5 4.5q1 46 0 91.5t-4 91.5v5v6z
M91 246l1 0.5t1 1.5h1h1q0 -1 2 -3t3 -2q-1 -50 1 -99.5t5 -99.5v-2q0 -1 -1 -3.5t-2.5 -4.5t-3.5 -3l-4 -2l-34 -3l-3 -1.5t-3 -0.5q-3 0 -3.5 1.5t-0.5 4.5q0 1 0.5 3.5t3.5 2.5h14l1 3v2.5v3.5q0 25 -1 50l-2 50t-2 49.5t-1 50.5q2 0 4 -1.5t3 -4t1.5 -4.5t0.5 -5
q-1 -30 1 -60t3 -61q0 -7 -0.5 -15.5t-0.5 -17.5t0.5 -18.5t1.5 -17.5q1 -1 2 -1h2q9 0 12 2.5t3 10.5q0 46 -2 91t-4 91q-1 0 -1 2v4v3q0 2 1 3z" />
</svg>
