<?xml version="1.0" standalone="no"?>
<!DOCTYPE svg PUBLIC "-//W3C//DTD SVG 1.1//EN" "http://www.w3.org/Graphics/SVG/1.1/DTD/svg11.dtd" >
<svg xmlns="http://www.w3.org/2000/svg" xmlns:xlink="http://www.w3.org/1999/xlink" version="1.1" viewBox="-10 0 266 256">
   <path fill="currentColor"
d="M88 246q0 1 1 3t3 2v0q2 -1 4 -3l2 -2v-103q0 -4 2.5 -6.5t6 -4t7.5 -2t7 -0.5h2t2 1v63q3 0 5 -2t3 -4.5t1.5 -5t0.5 -4.5v-18q0 -18 -1.5 -34t-10.5 -31q-2 -2 -5 -3l-6 -2t-5.5 -3t-2.5 -6q0 -6 5.5 -10t12.5 -8.5t12.5 -9.5t5.5 -12q0 -11 -6.5 -16.5t-16 -8
t-19.5 -2.5h-18h-5h-5t-1.5 1t-0.5 2q0 4 4.5 4.5t11 0.5t14.5 -0.5t15 1.5t11.5 7t4.5 15v1q-1 1 -3 2.5t-3 2.5l-1 1t-2 1q-7 5 -15 12.5t-14 14.5l-1 1t-2 0q-2 0 -4.5 -2t-4.5 -4.5t-3 -5t-1 -4.5v-25q0 -4 -1 -5t-4 -1q-2 0 -4.5 1.5t-2.5 4.5v27q0 8 4.5 11.5t9 6l9 5
t4.5 6.5v37l-1 0.5l-1 0.5q-15 10 -23 19t-12 20t-4 24v30v11q1 1 2 1.5t3 0.5q3 0 4.5 -3t1.5 -5v-44q0 -3 2 -10.5t5.5 -15t8 -13t10.5 -5.5q1 0 2 1.5t1 3.5t0.5 3.5l0.5 1.5q-1 9 -1.5 16.5t-0.5 15v15.5v16v6v8v9v6zM176 175q3 8 5 16t3 16.5l2 17t3 16.5q0 1 0.5 3.5
t0.5 3.5q2 2 3 2.5t3 0.5q3 0 4.5 -2t1.5 -6q0 -9 -2.5 -18t-5.5 -18t-5 -18t-2 -18q0 -3 0.5 -4.5t1.5 -3t2.5 -2.5t3.5 -4q6 -7 9.5 -17.5t3.5 -19.5t-2.5 -14t-6 -7.5t-8 -3t-8.5 -1t-7 -2t-4 -4.5v-11v-12l0.5 -1.5t1.5 -3t1.5 -2.5t1.5 -1h30q2 0 2.5 -1.5t0.5 -2.5
t-0.5 -3t-1.5 -2h-32q-1 0 -1.5 -1t-0.5 -2v-1.5v-1.5q0 -6 1 -12.5t1 -12.5v-2.5v-2.5q-2 -1 -3 -1h-2q-2 0 -3.5 1.5t-1.5 2.5l-3 76q0 2 -4 2h-8t-7.5 0.5t-3.5 4.5v1.5t2 1.5h5.5h9.5h9.5h5.5h5t6.5 0.5t7 1.5t4.5 3q2 1 2.5 3.5t1 5.5t0 5.5t-0.5 4.5q0 8 -3 16t-10 13
q-3 -2 -4.5 -4.5t-2.5 -5.5l-2 -6t-4 -5t-8.5 -3.5t-14.5 -1.5q-1 0 -4.5 0.5t-3.5 2.5q0 1 0.5 2t1.5 1l12 2t10.5 3.5t7.5 7.5t3 12q0 5 -5.5 7t-12.5 3.5t-12.5 2.5t-5.5 5q0 2 1.5 2.5t3.5 0.5q7 0 13.5 -2.5t13.5 -2.5h1.5h2.5zM99 123v-3.5t-0.5 -5.5t-0.5 -6v-4v-1
q0 -2 0.5 -5.5t3.5 -3.5q4 0 7.5 2.5t7 5.5t5.5 7t2 7t-2.5 4.5t-6 3t-7 1.5h-5.5h-2t-2 -2z" />
</svg>
