<?xml version="1.0" standalone="no"?>
<!DOCTYPE svg PUBLIC "-//W3C//DTD SVG 1.1//EN" "http://www.w3.org/Graphics/SVG/1.1/DTD/svg11.dtd" >
<svg xmlns="http://www.w3.org/2000/svg" xmlns:xlink="http://www.w3.org/1999/xlink" version="1.1" viewBox="-10 0 266 256">
   <path fill="currentColor"
d="M182 193q1 3 3 9.5t4.5 14t4.5 14t3 9.5q1 1 1 3t1 3.5l2 3t3 1.5q3 0 4 -2t1 -4q0 -8 -2 -15.5t-5.5 -15.5t-7 -15.5t-5.5 -14.5v-1.5v-1.5q0 -4 2.5 -6.5t4.5 -6.5q3 -9 5 -17.5t2 -18.5q0 -8 -2 -13t-5.5 -7.5t-9 -4t-12.5 -3.5q-1 -1 -1 -2.5v-3.5v-3v-5.5t0.5 -7
t0.5 -5.5v-2l3 -3h28q2 0 2.5 -2.5t0.5 -3.5t-0.5 -3.5t-2.5 -2.5h-31v-41q0 -3 -3 -4t-5 -1q-3 0 -3 1t-1 5v1v1v2.5t0.5 5.5t0.5 5.5v3.5v2v2v6v9t-0.5 11t-0.5 11.5v9.5v5v2v2q-1 5 -4.5 5.5t-6.5 0.5q-4 0 -7 0.5t-3 5.5q0 3 1.5 3.5t4 1t5 0t3.5 -0.5q2 0 6.5 0.5
t9 0.5t8.5 0.5t6 0.5q8 6 8 17q0 2 -0.5 7t-1.5 10t-2.5 9.5t-3.5 4.5q-3 0 -5 -3t-4 -7t-4 -7t-6 -3h-24q-1 0 -3 1.5t-2 2.5l0.5 1.5l0.5 1.5l2 3h23l1.5 1.5t3 3.5t3.5 4t3 4t1.5 3.5t0.5 3.5q0 4 -4.5 7t-10.5 5t-12 3.5t-8 1.5h-3t-3 -1v-4.5t-0.5 -7.5t-0.5 -7.5v-4.5
v-2q0 -3 -0.5 -9.5t-1.5 -15t-1.5 -17.5t-1 -17.5t-1 -15t-0.5 -9.5q-3 -4 -6.5 -6t-7 -3t-7.5 -1.5t-9 -0.5q-1 -2 -1 -4v-5v-2v-4.5t0.5 -4l0.5 -1.5h30q1 0 1.5 -2t0.5 -3l-0.5 -2t-1.5 -2h-28l-0.5 -0.5t-1.5 -0.5q0 -1 -0.5 -3l-0.5 -2q0 -1 0.5 -3t0.5 -4.5v-5v-2.5
q0 -1 0.5 -2.5l0.5 -1.5q0 -3 -1.5 -3.5t-4.5 -0.5h-2h-2.5t-1.5 1v55l-1 0.5t-2 0.5q-2 2 -5 2.5l-6 1l-6 1t-6 2.5q-6 4 -9 12t-3.5 17t0 17.5t0.5 15.5q0 24 -1.5 49t-1.5 50v7l1.5 0.5t1.5 1.5h1q2 0 3.5 -1.5t1.5 -3.5q2 -24 3 -48.5t2 -48.5q0 -3 -0.5 -9t0 -13
t1 -14.5t3 -13t6 -9t10.5 -3.5h31q2 0 3.5 2t2.5 4t1.5 5t0.5 4l8 103v7l1 31q0 2 1.5 2.5t2.5 0.5q2 0 3.5 -0.5t1.5 -2.5v-30q0 -1 5.5 -3.5t12.5 -5.5t13.5 -5.5t8.5 -2.5t3 0.5t2 2.5zM86 241q0 3 1.5 3.5t3.5 0.5q1 0 2.5 -0.5t1.5 -3.5v-82l2 -3q1 0 3 -0.5t4 -0.5
t4 -0.5t3 -0.5q2 -1 2.5 -1t0.5 -2q0 -3 -2.5 -4t-2.5 -5v0q1 -2 1 -4.5t0.5 -5.5t1 -5.5t0.5 -3.5t1 -3.5l1 -2.5v-1.5v-0.5q0 -2 -2 -3.5t-4 -1.5q-3 0 -4 3t-1.5 7l-1 8t-0.5 6l1 3l1 3v2.5v2.5h-6l-0.5 -1.5t-0.5 -3t-0.5 -3.5t-0.5 -3v-4v-7v-7v-4q-2 -3 -4 -3t-3.5 1
t-1.5 4v31l-0.5 0.5t-1.5 0.5q-3 2 -9 2.5t-9 0.5v3v2t1 2h19l0.5 1.5t1.5 2.5v2v3v3v2v2.5t0.5 5t0.5 5v2.5v8t-0.5 13.5t-0.5 14v9.5q0 1 -0.5 2.5t-0.5 3.5t-0.5 3.5zM100 172q0 1 0.5 5t1.5 10t2 13t2.5 12.5t3 9.5t2.5 4q3 0 4 -2.5t1 -4.5q0 -7 -2 -11.5t-3 -11.5
q0 -1 -0.5 -5l-1 -8l-1 -8t-0.5 -5q-2 -4 -4 -4q-3 0 -4 2t-1 4zM71 173q-1 13 -2.5 26t-1.5 26h3q3 0 3 -2q1 -11 3 -21.5t2 -22.5v-9q0 -2 -1 -2h-2q-2 0 -3 1.5t-1 3.5zM66 117v1q0 3 0.5 7t1 7.5t1 6.5l0.5 3l3 3q2 -2 3.5 -4t1.5 -4t-0.5 -6.5t-1 -9.5t-2 -8.5
t-4.5 -3.5h-0.5h-1.5l-0.5 3l-0.5 3v2zM67 98v3q0 2 2 2h39q2 0 4 -1.5t3 -3.5q-2 -4 -3 -4.5t-3 -0.5h-3q-2 0 -7.5 0.5t-11.5 0.5t-11.5 0.5t-8.5 0.5v3z" />
</svg>
