<?xml version="1.0" standalone="no"?>
<!DOCTYPE svg PUBLIC "-//W3C//DTD SVG 1.1//EN" "http://www.w3.org/Graphics/SVG/1.1/DTD/svg11.dtd" >
<svg xmlns="http://www.w3.org/2000/svg" xmlns:xlink="http://www.w3.org/1999/xlink" version="1.1" viewBox="-10 0 266 256">
   <path fill="currentColor"
d="M193 249q0 1 1 1.5t2 0.5q3 0 5.5 -2.5t2.5 -5.5l-0.5 -2l-1 -4t-1 -3.5l-0.5 -1.5q-3 -11 -3.5 -21.5t-3.5 -21.5q-1 -8 -3.5 -16t-2.5 -16q0 -3 2.5 -4t3.5 -2q5 -5 8 -10.5t4.5 -12t2 -12.5t1.5 -13q-1 -5 -4.5 -8.5t-7.5 -5t-9 -2t-8.5 -0.5t-6 -0.5t-2.5 -2.5v-20
h30q3 0 3.5 -2.5t0.5 -3.5q0 -2 -1.5 -4t-3.5 -2h-29v-38q0 -2 -2 -2.5t-3 -0.5q-4 0 -5 3t-1 7v61q0 3 -2 4t-5 1.5t-5 1t-2 4.5v1v1q2 0 5.5 0.5t7.5 0.5t7.5 0.5t4.5 0.5q3 0 6 0.5t6.5 1t6 1l2.5 0.5l5 5v22q0 4 -3.5 8.5t-7.5 4.5q-2 0 -4 -3t-5.5 -6t-9 -6t-14.5 -3
q-2 0 -5.5 1.5t-3.5 4.5l0.5 1.5t1.5 2.5l20 3q2 0 3.5 1.5t2.5 3.5l2 4t1 3q0 4 -3 6.5t-6.5 4t-8 3t-8.5 2.5t-6.5 2.5t-2.5 4.5q0 2 2 3.5t4 1.5q4 0 7.5 -1.5t7 -3.5t7 -3.5t6.5 -1.5q2 0 4 5.5t4 14.5t3.5 19t3 19.5t2.5 16.5t1 9zM120 201q0 2 1 9.5t3 16t5 15t7 6.5
q2 0 3.5 -2t1.5 -4v-2.5t-0.5 -1l-1.5 -1.5t-1 -4q-4 -8 -6 -17.5t-2 -18.5q0 -4 1 -7.5t2 -6.5t2 -6.5t1 -6.5q0 -5 -2.5 -8t-5.5 -5.5t-5.5 -5t-2.5 -7.5q0 -3 1.5 -5t3.5 -3.5t4.5 -2.5t3.5 -4q2 -5 2.5 -10t1 -10.5t0.5 -10.5t1 -9q2 -1 3.5 -2.5t1.5 -3.5q0 -1 -3.5 -7
t-8 -14t-10.5 -17t-10.5 -17t-8 -13t-4.5 -6q0 1 -4.5 7t-10 15t-12 19.5t-11.5 19.5t-8.5 15l-3.5 6q0 5 3 5q4 0 8 -1l3 35q0 1 1.5 2t3.5 2t3.5 3t1.5 5q0 5 -2 9t-5 8.5t-6.5 7.5t-7.5 6v2v1q0 2 0.5 4t2.5 2q2 1 5 -2.5t6.5 -7.5t6 -8t4.5 -4t3.5 1.5t2.5 3.5t1.5 4
t0.5 4q0 5 -1 9.5t-2.5 9.5t-3 9.5t-1.5 9.5v9q0 5 0.5 10.5t2.5 9.5t6 4q3 0 4 -2t1 -4q0 -10 -2 -19t-2 -20q0 -8 4.5 -15.5t10.5 -12.5q1 0 3 -1.5t4.5 -3t4.5 -3t3 -1.5h1h1q3 0 6 3.5t3 6.5q0 4 -1 7.5t-2.5 7t-2.5 7t-1 7.5zM81 142q0 -3 1.5 -4.5t3.5 -2.5t4 -2.5
t2 -3.5q1 -5 2 -13t1 -13v-3t-0.5 -4.5t-0.5 -4t-1 -1.5l-6 -3l-0.5 0.5t-0.5 1.5l-0.5 2t-1 3.5t-0.5 3v2.5h-13l-1.5 -2t-3 -4.5t-2.5 -5l-1 -2.5q0 -1 2 -4.5t4 -6.5t5 -6t5 -3v0l1.5 1.5l0.5 0.5q1 1 2 1.5l1 0.5h28q1 0 2.5 -0.5t2.5 -1.5q1 0 2 -1l1 -1q1 0 1.5 1
l0.5 1q0 1 1.5 3.5t3 5.5t3 5.5t1.5 3.5v0v1q0 1 -2 2.5t-3 2.5q-1 3 -1 5t-0.5 3.5t-2 2t-5.5 0.5q-5 0 -6 -2t-1 -5t-1 -5t-5 -2q-3 0 -3.5 1t-0.5 4q0 7 1 16t2 15q1 3 2 5t2.5 4t2.5 4t1 5t-1 6t-3.5 6t-5.5 5t-6 2t-5.5 -2t-4.5 -5.5t-3 -7t-1 -5.5zM109 119v-1t0.5 -2
t0.5 -2t1 -1h13q1 0 1 2v3q0 5 -1.5 8t-6.5 3q-4 0 -6 -3t-2 -7zM70 117q0 -2 0.5 -4t2.5 -2h11q1 0 1.5 1t0.5 2v2v1q0 4 -1.5 6.5t-6.5 2.5q-4 0 -6 -3t-2 -6zM81 60v-1q0 -1 2 -5l4.5 -9t5.5 -8.5t5 -3.5t5 3.5t6 7.5t5 8.5t2 6.5v1q-3 2 -4.5 2h-4.5h-2q-2 0 -5 -0.5
t-7 -0.5t-7.5 -0.5t-4.5 -0.5z" />
</svg>
