<?xml version="1.0" standalone="no"?>
<!DOCTYPE svg PUBLIC "-//W3C//DTD SVG 1.1//EN" "http://www.w3.org/Graphics/SVG/1.1/DTD/svg11.dtd" >
<svg xmlns="http://www.w3.org/2000/svg" xmlns:xlink="http://www.w3.org/1999/xlink" version="1.1" viewBox="-10 0 266 256">
   <path fill="currentColor"
d="M173 209q0 4 1 11t3 14t6 12t9 5q3 0 5 -2t2 -5q0 -4 -3 -6t-5 -5q-4 -6 -5 -12.5t-1 -13.5v-12t2 -13q0 -3 1 -6.5t1 -6.5q0 -4 -4 -6t-9.5 -2.5t-11 -0.5h-7.5q-5 0 -10 -1.5t-10 -1.5q-2 0 -3 1.5t-1 3.5q0 3 2.5 3.5t5.5 1t6 1.5t3 4q0 13 -3 27t-8 26q-1 4 -3.5 8
t-2.5 7t0.5 4t3.5 1q4 0 6.5 -4t4 -9t2.5 -10t2 -8l6 -41q1 -4 5 -4q3 0 6.5 0.5t6.5 2.5v4.5v5.5q0 7 -1.5 13t-1.5 14zM63 240q0 2 0.5 3.5t2.5 1.5q3 0 6 -3t3 -6q0 -5 -1.5 -9.5t-1.5 -9.5q0 -3 4.5 -4.5t10.5 -2.5t12 -1h8q4 0 5.5 3t1.5 6v3q0 1 -0.5 3t-0.5 4.5
t-0.5 4.5t-0.5 3v1v0q1 2 2 5t3 3q3 0 5 -2.5t2 -4.5v-1v-3.5t-0.5 -7t-0.5 -6.5v-4q-1 -9 -1 -16.5t-2 -13t-7.5 -8.5t-16.5 -3q-2 -1 -2 -3v-3v-3t2 -3h5q3 0 7 -0.5t7 -2t3 -5.5l-0.5 -1l-0.5 -1q-1 0 -3.5 -0.5l-2.5 -0.5q-2 0 -4 0.5l-2 0.5q-1 0 -3.5 0.5l-2.5 0.5
q-3 0 -5 -2.5t-5 -2.5q-2 0 -3.5 0.5t-1.5 2.5q0 3 1 6.5t1 7.5v7q-2 4 -5 5l-6 2l-6 2t-4 5q0 3 -0.5 10t-1 15t-0.5 15.5v9.5v3zM73 199q2 -9 8.5 -12t15.5 -3h5t3 1t2.5 3t3.5 5l0.5 0.5l0.5 0.5q0 1 -0.5 3.5l-0.5 2.5q-2 0 -5.5 0.5t-8 0.5t-8 0.5t-5.5 0.5h-1h-1
q-1 -1 -4.5 -2t-4.5 -1zM176 124q3 0 5.5 4t5 9t5 9t6.5 4q2 0 4.5 -1t2.5 -4q0 -4 -3 -7l-6 -6t-5.5 -6t-2.5 -6q0 -2 2.5 -4t5.5 -5.5t5.5 -8t2.5 -9.5q0 -7 -2 -11.5t-6 -7.5t-8.5 -5.5t-9.5 -5.5q-1 0 -1.5 -0.5t-0.5 -1.5h-13q-2 0 -2.5 -2t-0.5 -4v-3.5t0.5 -4.5t2 -3
t4.5 -1h30q1 0 2 -2.5t1 -4t-2 -3t-3 -1.5h-29q-1 0 -2.5 -1t-2.5 -2q1 -2 1 -5t-0.5 -6t-2 -5t-4.5 -2q-4 0 -5 4t-1 7q0 7 2 14t2 15q0 1 -0.5 3.5l-0.5 2.5l-3 4q-1 -1 -3 -1h-3h-5q-1 0 -2 1q-5 0 -5 4q0 3 3 4q2 0 5.5 0.5t7.5 0.5t7.5 0.5t5.5 0.5q5 0 11 1t11 3
t8.5 6t3.5 10q0 3 -0.5 6t-1.5 6t-3.5 5t-5.5 2q-1 0 -2.5 -1.5l-3 -3t-2.5 -3.5t-2 -3q-3 -2 -6 -3t-6.5 -1.5t-7 0t-6.5 0.5q-2 0 -5 0.5t-3 3.5q0 2 1 2t3 1q2 0 5 0.5t6.5 1t6.5 1t5 0.5q2 1 4.5 3t2.5 4q0 3 -3 5t-7.5 3t-9.5 1t-9.5 1t-7.5 2.5t-3 4.5q0 2 0.5 3
t3.5 1q7 0 16 -1.5t16 -4.5q1 0 4 -1.5zM117 141q0 1 3 1q2 0 4 -2.5t3 -4.5v-10v-11.5t-0.5 -15t-2 -14t-6.5 -9.5q-2 -1 -4.5 -1h-5.5h-5.5h-3.5t-2 -0.5t-1 -1.5q-1 -9 -1.5 -18t-0.5 -18q0 -5 1.5 -10t1.5 -10q0 -1 -2 -4t-4 -2q-1 0 -3 2.5t-2 4.5q0 1 -0.5 2.5
t-0.5 3.5v3v3q0 5 1 10.5t1 10.5q0 3 -1 5t-1 5q0 2 1 4.5t1 4.5v3q0 1 -1 2q-7 1 -13 1.5t-10 2.5t-6 6t-3 12v6.5t-0.5 10t-0.5 10v6.5l-1.5 3t-0.5 3q0 3 1.5 4.5t4.5 1.5t4.5 -2t1.5 -5q0 -7 -1 -14t-1 -14q0 -6 1 -10.5t3 -7t5.5 -4t9.5 -1.5q3 0 4.5 1.5t1.5 3.5
q0 3 -0.5 5t-1.5 5v35q0 2 1 5t3 3t3.5 -0.5t1.5 -2.5v-48l1 -9h1.5h1.5q10 0 14.5 2.5t6 6.5t1 10.5t-0.5 15.5v12t-1 13zM74 91q-3 0 -4 2.5t-1 4.5v33h2h2.5t2.5 -1t1 -3q0 -1 -0.5 -4.5t-0.5 -7.5t0.5 -7.5t0.5 -5.5q0 -1 0.5 -3t0.5 -3q-1 -5 -4 -5zM104 91q-2 0 -3 1
t-1 4v30q0 3 3 3t5 -3v-3.5v-4.5v-5.5v-3.5l0.5 -2.5l0.5 -2.5v-4t-0.5 -4t-1.5 -3.5t-3 -1.5zM57 67q0 2 0.5 3t2.5 1q4 0 6.5 -4t3 -9l1 -10t0.5 -7q0 -1 -0.5 -3t-1.5 -4t-2.5 -3.5t-3.5 -1.5q-1 0 -2 0.5t-1 1.5q0 8 -1.5 17.5t-1.5 18.5zM108 62q1 1 2 1.5t3 0.5
q5 0 5 -6v-7t-1 -10.5t-2.5 -9.5t-3.5 -4t-3 1.5t-1.5 3t-0.5 2.5v3q0 7 0.5 12t1.5 13z" />
</svg>
