<?xml version="1.0" standalone="no"?>
<!DOCTYPE svg PUBLIC "-//W3C//DTD SVG 1.1//EN" "http://www.w3.org/Graphics/SVG/1.1/DTD/svg11.dtd" >
<svg xmlns="http://www.w3.org/2000/svg" xmlns:xlink="http://www.w3.org/1999/xlink" version="1.1" viewBox="-10 0 266 256">
   <path fill="currentColor"
d="M160 183q0 2 0.5 7t1.5 13t3 16t3.5 15.5t3.5 12t4 4.5q3 0 5 -2.5t2 -4.5q0 -4 -1 -7.5t-2.5 -6.5l-3 -6t-2.5 -7q-4 -15 -4 -31q0 -9 2 -15t5.5 -10t7 -7t7 -5.5t6 -6t2.5 -8.5q1 -7 -0.5 -11t-4 -6.5t-6 -3.5t-6 -2t-4.5 -2.5t-2 -5.5q0 -1 3 -2t6.5 -2.5t6.5 -2.5
t4 -3q1 0 1 -3v-2q0 -1 -0.5 -3.5t-0.5 -4.5t-1.5 -3.5t-2.5 -1.5h-1q-1 0 -2 1l-1 1q0 7 -3 11.5t-11 4.5h-1l-1.5 -1.5l-1.5 -1.5v-16q0 -2 4 -3t8.5 -3t8.5 -6t4 -12v-3.5v-3.5t-1 -1h-2q-4 0 -4.5 3t-1 6.5t-2.5 6.5t-8 3q-7 0 -7 -7v-2v-2.5t0.5 -3.5t0.5 -3.5v-1.5
q2 -4 5.5 -5t7.5 -2t6.5 -4t2.5 -11v-6q0 -1 -1 -2t-2 -1h-1q-1 0 -1.5 1.5l-1 3t-1 3.5t-0.5 3q-4 6 -10.5 8.5t-12.5 4.5t-11.5 3.5t-6.5 4.5q1 2 2 2.5t3 0.5t4 -1t5 -1q2 0 3 2.5t1.5 6t0.5 6.5v5t-1 3t-2.5 1.5t-3.5 1t-3 0.5q-2 1 -5.5 3l-3.5 2v2h8t6 1.5t3.5 4
t1.5 6.5q0 7 -2.5 9t-5.5 3.5t-5.5 3t-2.5 4.5v1l1 1h1q3 0 5.5 -1.5t5.5 -1.5q1 0 5 2.5t9 5.5t9 6t4 4v15q-5 1 -10.5 6t-9 11.5t-5.5 13.5t-2 12zM54 144q0 17 1 28t5.5 17.5t14 9t26.5 2.5h4h5.5h4.5h3h1.5t4 -0.5t4.5 -0.5h3l2 -0.5l4 -1t3.5 -1t1.5 -2.5q1 0 0.5 -1
t-1.5 -2l-0.5 -0.5l-0.5 -0.5h-8q-8 0 -17 0.5t-17 0.5h-9t-9.5 -1.5t-8 -5t-3.5 -9.5q0 -2 2.5 -4.5t6 -4t6.5 -3t4 -2.5q5 -4 7 -11.5t3 -14.5t2 -12t4 -5q5 0 6 5t2 11.5t2 13.5t6 10l16 10h1h2q2 0 4 -0.5t2 -3.5q0 -1 -3.5 -4.5l-7.5 -7.5t-8.5 -7.5t-5.5 -5.5t-1 -5
v-6v-7v-4h19q1 0 2.5 -1.5t1.5 -3.5t-1.5 -3t-3 -1.5l-3 -1t-2.5 -0.5q-3 1 -9.5 2t-14 1.5t-14 1.5t-9.5 2q-5 0 -10.5 2.5t-10 6.5t-7 9.5t-2.5 11.5zM86 121h2t2 1v6q0 6 -1.5 12t-4.5 11t-7.5 8t-11.5 3q0 -5 0.5 -12t2.5 -13.5t6 -11t12 -4.5zM67 75q1 7 2 11t2.5 6
t5 2.5t10.5 0.5h14.5t14.5 -1.5t12.5 -4.5t8.5 -11l1 -3v-52q0 -1 0.5 -4t1.5 -4v-1v-1q-1 -1 -1.5 -2.5t-0.5 -2.5h-1.5h-2.5q-4 0 -5 2.5t-1 5.5v6t-3 4q-10 0 -20 0.5t-21 0.5h-5l-3 -3v-13q0 -2 -1.5 -2.5t-2.5 -0.5q-4 0 -6 2.5t-2 5.5v3q1 3 1 11t0.5 17t1 17t0.5 11z
M76 55v-4.5t0.5 -5t0.5 -4.5v-2l2 -2h2.5t6.5 -0.5t7 -0.5q6 -1 11.5 -1.5t11.5 -0.5t8 2.5t2.5 6.5t0 8.5t-0.5 8.5v4v4.5v5.5v3t-1 3t-2 3q-5 1 -8.5 1.5t-7 1.5t-6.5 1h-7q-8 0 -12 -2.5t-6 -7t-2 -10v-12.5zM84 58v2.5t2 1.5h29q2 0 3 -2t1 -4v-1.5t-1 -1.5h-7h-6.5
t-9 0.5t-8 1.5t-3.5 3z" />
</svg>
