<?xml version="1.0" standalone="no"?>
<!DOCTYPE svg PUBLIC "-//W3C//DTD SVG 1.1//EN" "http://www.w3.org/Graphics/SVG/1.1/DTD/svg11.dtd" >
<svg xmlns="http://www.w3.org/2000/svg" xmlns:xlink="http://www.w3.org/1999/xlink" version="1.1" viewBox="-10 0 266 256">
   <path fill="currentColor"
d="M155 210q0 2 0.5 9t2 14t4 12.5t5.5 5.5t4.5 -2t1.5 -4v-2l-1.5 -2.5t-1.5 -3.5q-3 -7 -4.5 -14.5t-1.5 -15.5q0 -7 4.5 -11t9.5 -7.5t9.5 -7.5t4.5 -12q0 -7 -4 -9.5t-9.5 -3.5t-10.5 -3t-7 -7q-1 -3 1.5 -5t6.5 -4t7 -3t4 -1q1 -1 3.5 -2t5.5 -2.5t5.5 -3t3.5 -1.5v-7
q-5 0 -10 2.5t-10 6t-9 6t-7 2.5q-2 0 -3 -1t-1 -2.5v-2.5v-3q0 -6 4 -9.5t9 -5t9.5 -3t4.5 -5.5q0 -2 -1.5 -3t-3.5 -1t-4 1l-4 2t-4.5 2t-4.5 1q-3 0 -3.5 -1t-0.5 -4q0 -6 3 -9t7 -4t7 -2t3 -5q0 -2 -0.5 -3.5t-2.5 -1.5h-2q-5 2 -11 4.5t-12 5.5t-11.5 5.5t-10.5 4.5
q-3 2 -3 6q6 0 11.5 -1.5t11.5 -4.5l1 1q0 1 0.5 3t1 5t0.5 4v1q0 5 -4 6.5t-9 2.5t-9 2.5t-4 5.5q0 2 1 2.5t3 0.5q5 0 9 -2.5t9 -2.5q3 0 3.5 2t0.5 5q0 7 -4 10t-9 5t-9 4t-4 6q7 0 12 -2t12 -5q1 0 2.5 1.5l3 3t3 3.5t2.5 2q2 2 5.5 3l7 2t6 3t2.5 6q0 5 -4 8t-9.5 6.5
t-9.5 9t-4 14.5zM80 241q0 2 1 4t3 1q5 -1 8.5 -8t6.5 -15.5t5 -17t2 -12.5t-3 -7t-7 -5t-7 -4.5t-3 -7.5q0 -4 3 -5.5t8 -2.5q1 0 3 -0.5t5 -0.5h5.5h3.5l2.5 -2.5t1.5 -2.5t-2.5 -2t-3.5 -1h-1.5h-0.5q-1 0 -4 0.5l-6 1l-6 1l-3 0.5h-7.5h-11.5h-11.5h-7.5q-3 2 -3 5v1
l2 2l1 1h23l0.5 2.5t1.5 5t2 5.5t2 5t3.5 3.5t5 2.5t4.5 3t2 5q0 7 -2.5 14t-5.5 14q0 1 -1.5 3t-3.5 4.5t-3 5t-1 4.5zM55 111q0 9 0.5 15.5t3.5 10.5t8.5 6t15.5 2t15.5 -2.5t9 -6.5t4.5 -11t1 -16v-2q0 -1 -0.5 -3t-0.5 -5t-0.5 -5t-0.5 -3q-1 -3 -4.5 -5t-7.5 -3
t-6.5 -2t-3.5 -2v-3v-2v-5.5t2 -4.5q12 -6 17 -16t5 -24q0 -2 -1.5 -3.5t-3.5 -1.5q-4 0 -5 5t-1.5 11t-1.5 11t-5 6q-1 0 -3 -0.5t-3 -0.5q0 -7 1 -14.5t1 -15.5q0 -3 -1.5 -5t-5.5 -2v0q-1 0 -1 1q-1 0 -2.5 0.5l-1.5 0.5v37q-2 0 -5 -0.5t-5.5 -1.5t-4.5 -3.5t-2 -5.5
v-20q0 -2 -1 -2.5t-2 -0.5q-2 0 -3 1.5l-2 3t-1 4v3.5v5.5t0.5 4.5t1 5t1.5 6q5 5 9 8t12 1l2 1v18q0 1 -0.5 1.5t-1.5 0.5q-7 2 -11.5 4t-7 4.5t-3 7t-0.5 13.5zM63 123q0 -3 4 -5q6 -1 11.5 -1.5t11.5 -0.5q4 0 6 0.5l6 1.5q1 0 1 2v3q0 2 -0.5 4l-1 4t-1.5 3.5t-3 1.5
h-26q-4 0 -6 -4.5t-2 -8.5zM63 106q0 -3 1 -6t3 -5.5t4.5 -4t5.5 -1.5h21q1 0 2 1.5t2 4t1.5 4t0.5 2.5t-0.5 4.5t-2.5 3.5h-36q-1 0 -1.5 -1.5zM117 70q0 2 1 3t3 1q5 0 9 -3t8.5 -7t9.5 -7.5t12 -3.5t13 2.5t11 6t9 6t6 2.5t4.5 -1t2.5 -4q0 -5 -5.5 -8t-12.5 -5
t-13.5 -4.5t-9.5 -5.5q0 -1 0.5 -4t0.5 -5.5t0.5 -5t0.5 -3.5v-2v-2q0 -6 -6 -6q-2 0 -3 1.5t-1.5 3.5t-1 3.5t-0.5 2.5v3v5v4v3q0 3 -3 6t-7 5.5t-9 4.5t-9 4.5t-7 4.5t-3 5z" />
</svg>
