<?xml version="1.0" standalone="no"?>
<!DOCTYPE svg PUBLIC "-//W3C//DTD SVG 1.1//EN" "http://www.w3.org/Graphics/SVG/1.1/DTD/svg11.dtd" >
<svg xmlns="http://www.w3.org/2000/svg" xmlns:xlink="http://www.w3.org/1999/xlink" version="1.1" viewBox="-10 0 266 256">
   <path fill="currentColor"
d="M94 160q3 0 4 2t1 5v76q0 1 2 3t3 2q2 1 4.5 -1t2.5 -4v-65l-2 -4v-121q2 -8 2 -14v-14v-12q-1 -1 -2.5 -1h-2.5q-4 0 -5 1.5t-2 5.5q0 2 0.5 6t0.5 9t-0.5 9t-0.5 6q0 8 -4 9t-11 1h-4.5h-3.5q-1 0 -3.5 -0.5t-2.5 -1.5v-30q0 -1 -2 -3t-4 -2q-1 0 -2.5 1.5t-1.5 3.5v20
l1 2q-1 3 -1.5 7t-0.5 8v7.5v6.5v4t0.5 6t0.5 6v4t2 1.5l2 0.5q2 -1 3.5 -3.5t1.5 -3.5q1 -1 1 -4t0.5 -6.5t0.5 -6v-3.5q0 -3 2.5 -4t5.5 -1.5t6 -0.5h5q1 0 4 0.5t4 0.5l1 3v3q0 2 0.5 4.5t0.5 5.5v4v7t-0.5 8.5t-0.5 7.5v4v9.5t-0.5 11t-0.5 9.5v4l-4 3h-25v-29
q0 -2 -2 -2.5t-4 -0.5h-3t-2 2v64q2 7 2 16v16q0 1 1 1.5t2 0.5q2 0 4 -2.5t2 -4.5v-46q0 -3 3.5 -4t7.5 -2t8 -1h6zM141 230l3 13h1h1q6 0 6 -6v-2l-8 -76v-4v-2t-0.5 -4l-1 -4t-0.5 -3l2 -2q-1 -5 -1 -8.5t-0.5 -7t-0.5 -7v-8.5v-7q0 -4 0.5 -7t0.5 -6t1 -8q3 -5 8 -7
t10 -3t10.5 -2t10 -3.5t7.5 -7t4 -12.5q0 -2 -0.5 -6t-1.5 -7.5t-2.5 -6.5t-4.5 -4h-2t-5 -0.5t-6 -0.5h-5h-1q-9 0 -17 1t-17 0q0 1 -1.5 2l-1.5 1v1q0 1 1 3.5t3 2.5h1q1 0 6 -0.5t10.5 -1t10.5 -1t6 -0.5h3q3 0 6.5 1.5t3.5 4.5v19q0 4 -6 6t-13 3.5t-13.5 3t-8.5 4.5
q-3 6 -4.5 14t-2 15.5t-0.5 15v13.5v1q0 1 0.5 2.5t0.5 3.5t0.5 3.5t0.5 2.5q0 3 0.5 10t1.5 15.5t1.5 18t1 18.5t1 15.5t1.5 10.5zM164 118q0 15 2 29.5t5 29t6.5 28.5t6.5 28q0 3 1 3.5t3 0.5h2t2 -2v-12l-13 -64q-4 -8 -4.5 -18.5t-0.5 -19.5q0 -7 2 -12t5 -8t6 -4.5
t6 -2.5t5 -2.5t2 -3.5t-1.5 -3.5t-3.5 -1.5t-7 2.5t-10 6.5t-9 8t-5 7v2v3.5v3.5v2z" />
</svg>
