<?xml version="1.0" standalone="no"?>
<!DOCTYPE svg PUBLIC "-//W3C//DTD SVG 1.1//EN" "http://www.w3.org/Graphics/SVG/1.1/DTD/svg11.dtd" >
<svg xmlns="http://www.w3.org/2000/svg" xmlns:xlink="http://www.w3.org/1999/xlink" version="1.1" viewBox="-10 0 266 256">
   <path fill="currentColor"
d="M71 245q0 2 0.5 4t3.5 2q2 0 4 -2t2.5 -5l1 -6t0.5 -5v-4v-7.5v-8.5v-7v-5v-5.5v-4.5v-3l-2 -2v-40l0.5 -1t1.5 -1q4 -2 8 -2h9h4.5h3.5l1 6v33v9t0.5 13.5t1 15.5t1 14t1.5 10t3 4t3.5 -0.5t2.5 -2.5v-11q0 -20 -1.5 -40t-1.5 -40v-11l2 -1l2 -0.5t4 -0.5t4 -0.5t3 -0.5
q2 0 2.5 -1t0.5 -2q0 -3 -1.5 -3.5t-3.5 -0.5h-2l-2 0.5t-3.5 0.5t-3.5 0.5l-2 0.5h-7h-10h-10.5h-6.5q-1 0 -3.5 1t-3.5 1h-5.5h-9.5h-8.5h-5.5q-2 1 -3 2t-1 3q0 1 0.5 2.5t1.5 1.5h24l0.5 1.5t1 3.5t0.5 4.5v3.5v2v2v8t-0.5 14t-0.5 17.5v18t-0.5 14.5t-0.5 8v3zM153 249
q1 0 2 1t2 1q2 0 4 -3.5t2 -5.5q0 -11 -1.5 -22t-1.5 -22q-1 -17 -1.5 -34.5t-0.5 -35.5v-13v-12t0.5 -12t1.5 -13q2 -6 5.5 -9.5t8.5 -6t10 -3.5l10 -2q6 -4 7 -8.5t1 -11.5t-2 -10.5t-5.5 -5t-8.5 -1.5h-11h-2h-4h-3h-3q-1 1 -3 2t-2 3v0q1 1 2 2.5t2 1.5h24q2 0 3 1
t2.5 3t2.5 3.5t1 3.5q0 4 -3 6.5t-8 4.5t-10 3.5t-10 4t-8.5 6.5t-3.5 10l-0.5 4t-1 9t-1.5 10t-1 8v1q0 13 0.5 26t1 25t0.5 24.5v26.5q2 4 2.5 9t0.5 10v11v10zM179 116q0 31 4.5 61t9.5 60l0.5 2t0.5 3q2 3 5 2.5t5 -0.5q0 -8 -1.5 -16.5t-3 -16.5t-3 -16.5t-2.5 -16.5
v-13q-1 -11 -3 -21.5t-2 -22.5q0 -7 0.5 -12.5t1.5 -14.5q1 -3 4 -4t6.5 -2t6.5 -2t3 -4q0 -2 -2 -3t-3 -1q-10 0 -15 3t-8 8t-3.5 12t-0.5 15zM67 40v48q0 14 6.5 19.5t18.5 5.5q17 0 25 -4t11 -12.5t3 -19.5q0 -12 1 -27v-12q0 -3 3 -3q2 0 5.5 0.5t5.5 0t2 -3.5t-2 -4
t-5 -0.5t-5 0.5t-2 -3v-12q0 -2 -2 -2.5t-4 -0.5q-1 0 -4 0.5t-3 2.5v14q-8 1 -16 2.5t-16 1.5q-5 0 -7 -1.5t-3.5 -3.5t-1.5 -4t-0.5 -4t-2 -3.5t-4.5 -1.5t-3.5 3t-0.5 6.5t-1 6.5t-3 3h-15l-1.5 1.5t-1.5 2.5v1v1l0.5 1t1.5 1h21zM81 99v-2v-1l13 -14l0.5 -0.5t1.5 -0.5
q2 0 4.5 2t5.5 5t4.5 6t1.5 5t-1.5 3.5t-2.5 1.5h-10q-2 0 -4.5 0.5t-5.5 0t-5 -1.5t-2 -4zM105 73q0 -2 1.5 -4.5t3.5 -5t4 -4.5t4 -2h1q0 1 0.5 2.5t0.5 3t0.5 3l0.5 1.5v2v2q0 1 -0.5 3t-0.5 4t-0.5 4t-0.5 3l-0.5 1l-0.5 1h-2v0l-10 -11l-0.5 -1t-0.5 -2zM76 65v-2
q0 -2 0.5 -3l1 -2t1.5 -1t3 2l4.5 4.5t3.5 5.5t1 5q0 4 -3.5 6t-6.5 2h-1h-2q-1 -6 -1.5 -9.5t-0.5 -7.5zM81 43l0.5 -1.5t1.5 -1.5q7 -1 14 -2.5t14 -1.5q2 0 4.5 0.5t2.5 4.5q0 2 -3 5.5t-4 5.5l-2.5 2.5l-3.5 3.5l-3 3l-1 1h-5l-1 -1l-2.5 -2.5t-2.5 -3t-2 -1.5
q0 -1 -1 -2t-2.5 -3t-2.5 -3.5t-1 -2.5z" />
</svg>
