<?xml version="1.0" standalone="no"?>
<!DOCTYPE svg PUBLIC "-//W3C//DTD SVG 1.1//EN" "http://www.w3.org/Graphics/SVG/1.1/DTD/svg11.dtd" >
<svg xmlns="http://www.w3.org/2000/svg" xmlns:xlink="http://www.w3.org/1999/xlink" version="1.1" viewBox="-10 0 266 256">
   <path fill="currentColor"
d="M51 186v1l0.5 1.5t1.5 3t1.5 3l0.5 1.5q2 9 4.5 16.5t6 13.5t9 12t13.5 12h1q1 0 2 -0.5t1 -1.5q0 -4 -2 -7t-5 -6.5t-6 -6.5t-4 -6q-1 -2 -2 -6t-2.5 -8l-3 -8t-1.5 -6v-2.5v-3.5v-4q0 -4 0.5 -7t1.5 -5.5t3 -2.5q1 0 3.5 4t6 9.5t7 12t7.5 12.5t7.5 9.5t7.5 3.5
q1 0 2 -0.5t1 -2.5v0q-2 -5 -5 -9t-5.5 -8.5t-5.5 -9t-5 -8.5q0 -1 -1 -4.5t-2.5 -7.5l-3 -8t-1.5 -7t2 -6.5t5 -3.5h3q4 8 6.5 13.5l5 11t6 11t8.5 12.5q2 2 4 5t4 5t4.5 4t5.5 2t3 -4q0 -2 -2 -4.5l-4 -5t-4.5 -4.5t-3.5 -4q-3 -4 -7 -11.5t-7.5 -15.5t-6.5 -15.5
t-3 -11.5v-2q4 -6 8 -15t5 -17q0 -6 -4.5 -10.5t-10 -8.5t-10.5 -7.5t-5 -8.5v-1q1 -5 3 -10t2 -11q0 -3 -3.5 -8.5t-8 -10.5t-9 -8.5t-8.5 -3.5q0 5 2.5 9l5 8l5 8t2.5 9q0 8 -3 14.5t-7 12.5t-7 12t-4 14q0 5 3.5 9.5t9 8t11.5 5.5t10 2h1l0.5 -0.5l0.5 -0.5v-1
q0 -2 -1 -3.5t-3 -2.5l-4 -2t-3 -3q-1 0 -2.5 -1.5l-3 -3t-3 -3.5t-2.5 -3v-1.5v-1.5q0 -3 1 -6.5t3 -7t4 -6t5 -2.5q4 0 7 3.5t5.5 8.5t4.5 10t2 8q0 6 -1 9.5t-3 5.5t-3.5 4t-2.5 5l-30 30q-1 2 -3 5.5t-3.5 7.5l-3 8t-1.5 7zM127 169q2 3 5.5 4.5t6.5 1.5q3 1 8 1t11 0.5
t11 0.5h6q7 0 15 -2t14 -4v-2v-2.5t-2 -2.5h-4h-7.5h-7.5h-4h-6h-8h-7h-3q-2 0 -6 0.5l-8 1t-7 1.5t-4 1zM136 126l1.5 1t3.5 1.5l4 1l2 0.5h11q7 0 12 -0.5t12 -1.5l1.5 -1t1.5 -2v-1v-1l-1.5 -1.5l-1.5 -1.5q-7 -1 -12 -1.5t-11 -0.5q-3 0 -5 0.5t-4.5 0.5t-5 1t-6.5 2
q-1 0 -1.5 1.5l-0.5 1.5v0.5v0.5zM120 96v4q6 0 11.5 -4.5t11 -10l10 -10t8.5 -4.5q1 0 5.5 3.5t10.5 7.5t12 7.5t11 3.5q2 0 4 -1.5t1 -3.5t-2 -3t-2.5 -1.5t-3 -0.5t-3.5 -1l-2.5 -1.5t-4.5 -3l-4 -3t-3 -1.5q-9 -8 -14 -18t-8 -20q0 -2 -1 -4.5t-3 -2.5v0v0q-1 0 -1.5 1
l-0.5 1q-2 20 -9 36.5t-23 29.5z" />
</svg>
