<?xml version="1.0" standalone="no"?>
<!DOCTYPE svg PUBLIC "-//W3C//DTD SVG 1.1//EN" "http://www.w3.org/Graphics/SVG/1.1/DTD/svg11.dtd" >
<svg xmlns="http://www.w3.org/2000/svg" xmlns:xlink="http://www.w3.org/1999/xlink" version="1.1" viewBox="-10 0 266 256">
   <path fill="currentColor"
d="M60 248q0 2 2.5 2.5t3.5 0.5q5 0 9.5 -7.5t9.5 -19.5t9 -26t7 -27.5t5 -24t2 -15.5q0 -6 -3 -11t-7 -10t-7 -10t-3 -12q0 -3 2 -4.5t5 -2.5t5.5 -2t4.5 -4q4 -7 5 -15t1 -16q0 -1 -1 -3t-3 -2h-1q-1 0 -2.5 1l-1.5 1v24l-9 9h-1h-1q-2 0 -3.5 -0.5t-2.5 -3.5v-5
q0 -10 1 -19t1 -18v-9q0 -2 -1.5 -2.5t-2.5 -0.5h-3t-2 2v4.5t-0.5 7t-0.5 7v4.5v20v3t-0.5 3.5t-1.5 3t-3 1.5q-4 0 -6.5 -5t-3.5 -11t-2.5 -12t-2.5 -8h-1q-4 0 -5 3t-1 6q0 2 1 8t3 12t4 11t4 5h13q0 5 1 9t2.5 7t2.5 6.5t1 7.5q0 7 -3.5 11.5t-6.5 10.5q-1 1 -3.5 6
t-5.5 12t-6.5 14.5t-6 14t-4.5 11l-2 4.5q0 3 3 3q2 0 4.5 -1.5t3.5 -3.5q9 -16 16.5 -34t15.5 -34q0 -2 1 -3.5t2 -1.5q0 -1 1.5 -0.5t1.5 1.5l0.5 0.5l1.5 1.5q3 4 4 8t1 11q0 5 -1.5 11.5t-4 13.5t-5 13t-4.5 10q0 1 -1 2l-1 1q-3 11 -6.5 21t-8.5 20q0 2 -1.5 3.5l-3 3
t-2.5 3.5t-1 4zM161 234q7 1 13 3t11.5 4.5t11 4.5t11.5 2q2 0 3 -1t1 -3q0 -3 -5.5 -6t-12.5 -5.5t-14 -4.5t-10 -4l-0.5 -1t-0.5 -2v0v-1v-6t0.5 -9t0.5 -9v-6q10 1 15.5 -0.5t8 -5t3 -9.5t0.5 -15v-14q0 -2 -1.5 -2h-2.5h-2.5t-1.5 2v29q0 2 -2.5 3.5t-5.5 2t-5.5 1
l-2.5 0.5h-1l-1 -1l-1 -1v-43q0 -5 -4 -7.5t-8.5 -4t-8 -3.5t-3.5 -8t3.5 -9t8.5 -4.5t10.5 -2t9.5 -0.5h11q3 2 4 4.5t1 6.5q0 5 -3 7.5t-6.5 4t-6.5 3t-3 3.5t2 2.5t3 0.5q2 0 5.5 -1t7 -3t6.5 -4t3 -4v-18q0 -4 -3 -6t-7.5 -3t-8.5 -1h-6q-7 0 -14 1t-13 3.5t-10 7.5
t-4 13q0 7 4 10t9 5t9 5t4 9v66l-3 11h-1h-1h-1q-1 0 -3.5 -1.5t-3.5 -1.5q-6 -3 -9 -8t-4 -11.5t-0.5 -13.5t0.5 -13v-5v-1.5t0.5 -3l1 -3t0.5 -2.5q0 -2 -2 -5t-4 -3q-3 0 -4.5 2t-1.5 5v3q0 1 0.5 5t0.5 9t0.5 11t1 11.5t1 9t0.5 5.5q0 8 6 12.5t13 6.5q1 1 2.5 1t3 1
t3 1.5l1.5 0.5l1 0.5zM121 82q0 5 4 5h1h2q3 -4 5.5 -6.5t5 -4t5.5 -4t7 -5.5q2 -1 3 -3t2.5 -4t3.5 -3.5t5 -1.5q1 0 4 1.5l6 3t6 3.5t4 2q3 2 5.5 4t4.5 4.5t4.5 4t5.5 1.5t4 -1t1 -4t-2.5 -6t-7 -6t-10 -5t-10 -4t-7.5 -4t-3 -3v-28q0 -4 -0.5 -4.5t-2.5 -0.5h-3t-2 1v32
l-1.5 1t-2 2t-2 2.5t-4 3.5t-4.5 3.5t-2 2.5q-2 1 -6 4t-8.5 6.5t-7.5 6.5t-3 4z" />
</svg>
