<?xml version="1.0" standalone="no"?>
<!DOCTYPE svg PUBLIC "-//W3C//DTD SVG 1.1//EN" "http://www.w3.org/Graphics/SVG/1.1/DTD/svg11.dtd" >
<svg xmlns="http://www.w3.org/2000/svg" xmlns:xlink="http://www.w3.org/1999/xlink" version="1.1" viewBox="-10 0 266 256">
   <path fill="currentColor"
d="M127 138q0 12 3.5 23t5.5 22q2 14 5 27.5t5 27.5q0 1 0.5 3.5t1.5 2.5q0 2 1.5 2.5t2.5 0.5h2.5t1.5 -2v-2v-3q0 -5 -2 -9t-3 -9q-5 -21 -10 -42.5t-5 -43.5q0 -3 1 -7t3 -7t5 -5t7 -2q2 0 3.5 0.5t1.5 3.5q2 3 4 12.5t4.5 22t5.5 26t6.5 25t6.5 19t5 7.5q1 0 2 -0.5
t2 -0.5v-3v-2q0 -10 -4 -21t-6 -21q-1 -1 -2 -4.5l-2 -7t-2 -7.5t-1 -6q-3 -11 -6.5 -21t-3.5 -22v-2v-2q1 -1 4 -2l6 -2t5 -2.5t2 -3.5t-2.5 -2.5t-4.5 -0.5q-5 0 -12 2.5t-14 6.5t-12.5 8.5t-8.5 7.5q0 1 -0.5 3t-1 4.5t-0.5 4.5v3zM62 192l9 50q0 2 2 2h3q2 0 4.5 -1
t2.5 -4q0 -2 -1.5 -4t-2.5 -5q-4 -17 -8 -36t-4 -36v-3q0 -2 0.5 -6l1 -8t0.5 -8v-5q1 -1 2.5 -3t4 -3.5t4.5 -2.5t4 0q2 0 3.5 2t1.5 4q1 11 2 23t5 24l0.5 2l0.5 2l3 12t4 17.5t4 17.5l3 12h1.5h1.5q2 0 4.5 -0.5t0.5 -4.5q-3 -13 -6.5 -26.5t-7.5 -27.5t-7 -28t-3 -26v-4
t1 -4q1 -2 4 -3t6.5 -1.5t6.5 -1.5t3 -4t-2.5 -3.5t-4.5 -0.5t-3.5 0.5t-3.5 2.5l-30 9q-5 2 -8 6t-3 8v5q0 4 -0.5 8t-0.5 8v5v7t0.5 8t0.5 8v3v2.5t0.5 3.5t0.5 4v3v1zM72 49q0 11 2.5 18.5t8 11.5t14 5.5t20.5 1.5q6 0 11.5 -0.5t10.5 -2t9 -5t8 -8.5q0 -2 0.5 -6t1 -8.5
t1 -8.5t0.5 -5q0 -10 -3.5 -16t-9.5 -9.5t-14 -4t-17 -0.5h-16q-1 0 -4 1t-6 1.5t-6 1.5t-4 2q-1 2 -2.5 6t-2.5 9t-1.5 9.5t-0.5 6.5zM84 62v-1v-2.5t0.5 -2t1.5 -0.5q13 -1 28 -2t29 -1q1 0 3.5 0.5t2.5 2.5q0 8 -2.5 12.5t-6.5 7t-10 3t-12 0.5t-11.5 -0.5t-10.5 -2
t-8.5 -5t-3.5 -9.5zM113 20h12t11 2t8.5 5.5t3.5 10.5v5l-1.5 1.5l-0.5 0.5q-1 0 -5 0.5t-5 0.5t-6 0.5t-12 0.5t-14 0.5t-12 0.5h-1v0q-2 -1 -4.5 -1.5l-2.5 -0.5v-17q0 -2 4 -4t9 -3t10 -1.5t6 -0.5z" />
</svg>
