<?xml version="1.0" standalone="no"?>
<!DOCTYPE svg PUBLIC "-//W3C//DTD SVG 1.1//EN" "http://www.w3.org/Graphics/SVG/1.1/DTD/svg11.dtd" >
<svg xmlns="http://www.w3.org/2000/svg" xmlns:xlink="http://www.w3.org/1999/xlink" version="1.1" viewBox="-10 0 266 256">
   <path fill="currentColor"
d="M117 171q3 0 4 3.5t2 7.5t4 7.5t10 5.5l3.5 0.5t8 1.5t7.5 1.5t4 0.5q6 2 10 8t6.5 14t4 16.5t1.5 13.5h1.5h0.5q5 0 6 -3.5t1 -7.5t-2 -12t-6 -15.5t-8.5 -14t-9.5 -7.5q-5 -2 -11.5 -2.5t-11.5 -2t-9 -4.5t-4 -11q0 -2 4 -4t9.5 -2.5t12 -1.5t12.5 -2t10.5 -2.5
t4.5 -4.5q2 -6 3.5 -13.5t1.5 -13.5q0 -11 -1.5 -21.5t-1.5 -20.5q-1 -2 -2 -2h-3q-3 0 -3.5 1t-0.5 4q0 4 0.5 8.5t0.5 8.5v11v9t-0.5 10t-0.5 12q-3 3 -9 5.5t-12.5 3.5t-13 1.5t-10.5 0.5q0 -1 -0.5 -4.5t-0.5 -4.5q1 -3 6.5 -4.5t12 -3t12 -3.5t5.5 -6q0 -3 -3 -3h-2
l-26 9h-0.5h-1.5q-3 0 -3.5 -3.5t-0.5 -5.5q0 -4 2.5 -6t6.5 -3.5t9 -2t9 -1.5t7 -3t3 -5l-0.5 -0.5t-1.5 -0.5h-1.5h-2.5q-4 0 -7.5 1t-7 2.5t-7 2.5t-7.5 1q-3 0 -3.5 -1t-0.5 -5q0 -3 2 -5t4.5 -3t5.5 -2t5 -1q0 -1 2.5 -1t5 -0.5l5 -1t3.5 -0.5q1 -2 1 -5q0 -2 -1 -3
t-3 -1h-1h-1l-20 7h-3h-2q-3 0 -3 -1v-14l3 -2q4 -1 7.5 -1.5t6.5 -2t5 -4t3 -6.5q1 0 1 -2.5t0.5 -5t1 -5.5t0.5 -4v-2v-1q0 -1 -0.5 -4t-1.5 -6.5t-2 -6.5t-2 -4q-2 -2 -5 -4.5t-6 -2.5h-3h-4h-4h-3q-8 0 -15 0.5t-11.5 3.5t-7 8.5t-2.5 15.5q0 12 2.5 18.5t6 10t7.5 5
t7.5 2t6 2t2.5 4.5q0 7 -3 10.5t-8 5t-10.5 2t-10 1t-8 2.5t-3.5 6q0 1 1 2t2.5 1.5t3.5 0.5h3h1l1 -0.5t2 -0.5q1 -1 4.5 -2l7 -2l7 -2t4.5 -2h1q3 0 4 2t1 5t-3 5t-8 3.5t-11 3t-10.5 2.5t-8 2.5t-3.5 3.5v1l2 3h5q4 0 8 -1t8 -2.5t8 -2.5t8 -1q2 0 3.5 1t2.5 3t1 4v4
q-1 1 -4.5 2t-8 2t-9.5 1.5t-9.5 1.5t-7.5 2.5t-3 4.5q0 1 0.5 2t1.5 1h5q4 0 8 -1t7.5 -2.5t7 -2.5t7.5 -1q2 0 4 2t2 5q0 2 -5.5 4.5t-13 5.5t-15 7t-10.5 8q-3 5 -5.5 11t-4 12.5t-2.5 13t-1 12.5q0 2 1.5 3t3.5 1t3 -0.5t2 -2.5q0 -7 1 -13t2 -11.5t3 -10.5t6 -12
q3 -2 6.5 -4.5l7 -5t7.5 -4t9 -1.5zM95 53q0 -1 0.5 -2t1.5 -1q3 0 9 -0.5t13 -1t13 -0.5h9h1q2 0 2 1.5v3.5q0 5 -2.5 8t-6.5 4t-9 1h-8h-8t-7 -1.5t-5.5 -4t-2.5 -7.5zM94 35q0 -4 3 -8t7 -4h31q3 0 6 2t3 5q0 2 -0.5 4.5t-2.5 3.5q-9 -1 -17 0.5t-18 1.5h-2q-1 0 -3 -0.5
t-3 -0.5h-3l-0.5 -2z" />
</svg>
