<?xml version="1.0" standalone="no"?>
<!DOCTYPE svg PUBLIC "-//W3C//DTD SVG 1.1//EN" "http://www.w3.org/Graphics/SVG/1.1/DTD/svg11.dtd" >
<svg xmlns="http://www.w3.org/2000/svg" xmlns:xlink="http://www.w3.org/1999/xlink" version="1.1" viewBox="-10 0 266 256">
   <path fill="currentColor"
d="M153 176h3t2 3q5 12 7.5 23t8.5 22q2 3 4.5 7.5t5.5 9t6.5 8t7.5 3.5q3 0 3.5 -1t0.5 -4q0 -4 -2 -7l-4 -6q-1 -1 -3.5 -5.5t-5.5 -9.5t-6 -9t-3 -5q-1 -1 -2 -3.5t-2.5 -6t-3 -6.5l-2.5 -5q-1 -3 -1.5 -4t-0.5 -4q0 -2 3.5 -4t7.5 -4l8 -4t6 -4v-3.5v-3.5q0 -2 -0.5 -6
t-1.5 -7.5t-3.5 -6.5t-5.5 -3q-1 0 -2.5 1.5l-3.5 3.5t-5 3.5t-8 1.5q-4 0 -5.5 -2t-2 -4.5t-1 -4.5t-3.5 -2h-1q0 1 -1 1.5l-1 0.5v13l-1 0.5t-1 1.5q-8 2 -17 3.5t-16 2.5l-2 2v1q0 2 2 2h4q8 0 15 -2.5t15 -2.5h3t2 2l2 14q0 2 -1.5 2.5t-3.5 1t-3.5 1l-1.5 0.5
q-2 0 -8 1l-12 2t-11.5 2t-8.5 2t-4 2.5t-1 5.5q8 0 18.5 -2t18.5 -3q4 -1 8.5 -3t10.5 -2zM158 154v-3v-2q4 -2 9 -3.5t9 -1.5t4.5 3t0.5 6q0 2 -2 4.5t-4.5 4t-5.5 2.5t-6 1q-2 0 -3 -1.5t-1.5 -3t-0.5 -3.5v-3zM55 155l4 4t4 2h4.5h4.5q12 0 18 -4t8 -11t1.5 -16
t-0.5 -19v-4v-4v-2t-0.5 -4t-0.5 -4v-3l0.5 -2l0.5 -2v-3.5t-0.5 -5t-0.5 -5v-2.5q-1 -5 -0.5 -9.5t-1 -8t-4 -6.5t-7.5 -4q-6 1 -11 1.5t-9.5 2t-7.5 4.5t-5 8v7t-0.5 10.5t-0.5 10.5v7q0 16 0.5 31t3.5 31zM63 146v-5.5t-0.5 -7.5t-0.5 -7.5t-1 -4.5v-1.5v-3t-0.5 -3
t-0.5 -2.5v-1q0 -4 3.5 -6t8 -3t8.5 -1h8q1 0 2.5 0.5t2.5 2.5v7v13.5t-1 14.5t-5 11t-13 4q-8 0 -11 -7zM136 105q0 3 -1.5 5.5t-3.5 3.5t-5 2l-6 2q-1 0 -3.5 1t-4 1.5l-1.5 0.5v6l2 -0.5t3 -0.5l2.5 -0.5t5.5 -1.5t5.5 -2t4.5 -1q4 -1 6 -4.5t2.5 -7t1.5 -6.5t3 -3h18
l4 3v13q0 1 2 2t4 1.5l4 1l2 0.5q1 0 2.5 0.5t3 0.5t3 0.5l1.5 0.5h3.5h4.5h5.5h3.5q0 -6 -3.5 -7.5t-9 -1.5h-10.5q-6 0 -9 -3v-2v-3q0 -5 3 -6.5l7 -3.5t7 -5t3 -11v-6q-3 -4 -7.5 -5.5t-9.5 -2t-10 -0.5h-10h-2h-5h-4h-3l-2.5 2.5t-1.5 4.5h22.5t22.5 1q2 1 2 3v3
q0 6 -3.5 8.5t-8.5 4t-10 1.5h-10h-8.5t-10.5 -1.5t-8.5 -4.5t-3.5 -8q0 -14 5 -20t12.5 -8.5t16.5 -2t16.5 -0.5t12.5 -4t5 -12q0 -3 -2 -7t-5 -6q-13 0 -26 -0.5t-26 -1.5q-2 0 -3 -1.5t-2 -2.5l-2 -2t-2 -1q-2 0 -3.5 2.5t-1.5 3.5q0 6 4 8t9 2h4h6h11t11 -0.5t6 -0.5h1
h1q1 0 5 0.5t5 0.5q0 1 0.5 3l0.5 2v1q0 3 -1 4.5t-3.5 2.5t-4.5 1.5t-4 0.5q-1 0 -3.5 0.5t-5.5 0.5t-5.5 0.5t-3.5 0.5t-4 0.5t-6.5 1t-6.5 1t-4 0.5l-4 2t-3.5 2t-2.5 3l-2 4v3v4.5t-0.5 5t-0.5 3.5v1.5v1.5q0 5 0.5 8.5t2 6t4.5 4t8 1.5q1 2 1.5 3.5t0.5 4.5zM60 89v-2
q0 -1 0.5 -5.5l1 -9t1 -8.5t0.5 -6q2 -2 4 -3.5t4.5 -2t5.5 -0.5h5q4 0 6.5 2t2.5 6v30q0 1 -4 2t-8.5 1t-8.5 0.5l-4 0.5q-3 0 -4.5 -1.5t-1.5 -3.5zM54 57q1 0 1 1q0 2 -1 2q-2 0 -2 -2q0 -1 2 -1z" />
</svg>
