<?xml version="1.0" standalone="no"?>
<!DOCTYPE svg PUBLIC "-//W3C//DTD SVG 1.1//EN" "http://www.w3.org/Graphics/SVG/1.1/DTD/svg11.dtd" >
<svg xmlns="http://www.w3.org/2000/svg" xmlns:xlink="http://www.w3.org/1999/xlink" version="1.1" viewBox="-10 0 266 256">
   <path fill="currentColor"
d="M156 197q0 3 0.5 7.5t2.5 10.5t4 12.5t4.5 11.5t5.5 8.5t5 3.5q3 0 5.5 -2t2.5 -4t-1 -4.5t-3 -4t-3.5 -3.5t-3.5 -3q-2 -4 -4.5 -8t-3.5 -9t-1.5 -9.5t-0.5 -8.5q0 -5 2 -9t5.5 -7.5t7 -6.5t6.5 -6q1 -2 1.5 -4.5t0.5 -5.5q0 -6 -4 -8.5t-8 -4.5t-7.5 -5t-3.5 -9v-1v-3
t1 -2t2 -1h19q3 0 5.5 -3t3.5 -6.5t1.5 -7.5t0.5 -6q0 -5 -1.5 -9.5t-7.5 -5.5h-5.5t-8 -0.5t-8.5 -0.5t-5 -1h-3h-3.5t-3 -1t-1.5 -3q0 -4 2.5 -6t6.5 -3.5t8.5 -2.5t8.5 -3.5t6.5 -6t2.5 -10.5v-2.5v-3.5q-4 -4 -8.5 -5.5t-9.5 -1.5t-10 -0.5t-10 -2.5q-2 -1 -3 -4
t-2 -5.5t-3 -5t-5 -2.5q-2 0 -2.5 1t-0.5 3q0 3 1 5t2 4.5t2 4.5t1 4q0 3 -4 6t-8.5 6t-8 7t-3.5 11v1l0.5 0.5l0.5 0.5q1 0 2 -0.5l1 -0.5q5 -4 9 -8.5t9 -8.5t10 -6.5t12 -2.5q3 0 6 0.5t5.5 1t4.5 2.5t2 5q0 5 -3.5 7.5t-7.5 3.5t-9 2t-8 4q-1 1 -1.5 3.5t-0.5 5t-0.5 5
t-3.5 2.5q-6 3 -11 3.5t-8.5 1.5t-5.5 4.5t-2 12.5q0 2 0.5 4.5t1.5 4.5t2.5 3.5t3.5 1.5l16 3l0.5 1.5t0.5 2.5q0 3 -1 5t-2.5 4t-3.5 3.5t-4 3.5q-5 5 -7.5 11.5t-4.5 12.5q-1 2 -1 7t-0.5 11t-1 11t-0.5 7v1v1v7.5t0.5 11.5t0.5 11.5v8.5l3 3h1q3 0 5 -3.5t2 -5.5
q-2 -6 -2.5 -9.5t-0.5 -7v-6.5v-8q0 -10 0.5 -18.5t2.5 -16t5.5 -15t9.5 -14.5q2 -3 3.5 -8t2.5 -11t1.5 -11.5t1 -10t2 -7.5t3.5 -3h2.5t1.5 1v46q0 3 2.5 5t6 4.5t6.5 5.5t3 7q0 3 -2 4q-4 5 -7.5 8.5t-6 7.5t-4 8t-1.5 10zM58 84v3v4v3v2q0 1 0.5 4t1 7t1 7.5l0.5 3.5v6
q0 3 0.5 6.5t2.5 6t5 2.5l1.5 0.5t3.5 0.5h4h2q6 0 11.5 -1t9.5 -4t6 -7.5t2 -11.5v-4v-4.5t-0.5 -8.5t-0.5 -9v-5v-10t-0.5 -9.5t-3 -8t-7.5 -6.5h-7q-10 0 -16 1.5t-9.5 5t-5 10t-1.5 16.5zM69 105v-5q5 -2 13 -3t15 -1h3q2 2 2 5v5q0 1 -0.5 5.5t-1.5 9t-2.5 8t-3.5 3.5
h-18q-2 0 -3 -3.5t-2 -8.5t-1.5 -9.5t-0.5 -5.5zM166 108q0 -9 3 -13.5t12 -4.5h1l1.5 0.5t2.5 0.5v4v4v5.5t-1.5 5t-3.5 4t-6 1.5t-6.5 -1.5t-2.5 -5.5zM123 106q0 -6 2 -10.5t9 -4.5h3h2q2 4 2 6v6q0 6 -2.5 8.5t-8.5 2.5q-4 0 -5.5 -2t-1.5 -6zM67 88q0 -8 0.5 -13
t3 -8.5t7 -5t11.5 -1.5h5.5t4.5 3q1 6 1 9.5v9.5v2v3t-2.5 2t-3.5 1h-25q-1 0 -1.5 -0.5t-0.5 -1.5v0z" />
</svg>
