<?xml version="1.0" standalone="no"?>
<!DOCTYPE svg PUBLIC "-//W3C//DTD SVG 1.1//EN" "http://www.w3.org/Graphics/SVG/1.1/DTD/svg11.dtd" >
<svg xmlns="http://www.w3.org/2000/svg" xmlns:xlink="http://www.w3.org/1999/xlink" version="1.1" viewBox="-10 0 266 256">
   <path fill="currentColor"
d="M122 151q0 1 -0.5 3t-0.5 4.5t-0.5 4.5t-0.5 3q-1 7 -3 15t-4.5 16.5l-5 17t-5.5 15.5q-1 3 -2.5 5t-2.5 4.5t-1.5 4.5t-0.5 5q4 0 7 -1.5t5 -5.5q5 -8 9 -21.5t7 -28t5 -28.5t2 -23q0 -2 -0.5 -6.5t-2 -9.5t-4 -9t-6.5 -4q-7 0 -11.5 4t-8 9.5t-5 12.5t-1.5 13l-0.5 5.5
t-1 13l-1 15t-1.5 12.5v1v1q1 1 1.5 2t0.5 2h1q3 0 4.5 -6t2 -15t0.5 -19.5t1.5 -19t4.5 -14.5t10 -6q4 0 5.5 2.5t1.5 6.5q0 1 0.5 4t0.5 6t0.5 5.5t0.5 3.5zM138 196q0 2 1.5 2.5t3.5 0.5q6 0 12 -0.5t11 -2.5h47l1 -1.5t2 -2.5v0v-1v-1q-1 0 -2 -1.5l-1 -1.5h-33v-3v-2
v-8t0.5 -9t1 -7.5l0.5 -3.5l26 -3v-7h-12q-8 0 -13 -2l-0.5 -0.5t-0.5 -1.5v-8q0 -10 2 -14.5t5 -6t6.5 -1t6.5 0.5q4 0 6 -1.5t2 -7.5h-27v-24q0 -1 2.5 -2l2.5 -1l1.5 -0.5t3.5 -0.5t3 -0.5t2 -0.5q2 -1 3.5 -6t2.5 -11.5t1.5 -12.5t0.5 -7q0 -5 -2.5 -7t-6.5 -2v9
t-0.5 12.5t-2 11.5t-4.5 6q-1 1 -4.5 0l-3.5 -1v-45q0 -2 -1.5 -5t-3.5 -3t-4.5 2.5t-2.5 5.5v1.5t1 3.5t1.5 4t0.5 3v2v4.5v4.5v2q0 3 0.5 7t0 7.5t-2.5 6t-6 2.5q-6 0 -8.5 -4t-3 -10t-0.5 -11.5v-9.5l-0.5 -0.5l-0.5 -0.5l-0.5 -0.5l-0.5 -0.5q-2 0 -3 2t-1.5 4.5t0 5
t0.5 3.5q0 10 0.5 16t3.5 9t8 4t14 1v30h-25q-2 0 -3.5 1.5t-1.5 3.5v1q3 2 6.5 2.5t7.5 0.5h7h6l3 3v3v5q0 1 0.5 4t0 6.5t-1.5 6.5t-4 3h-23q-2 0 -2.5 1.5t-0.5 3.5v0.5v0.5q4 2 6.5 2h5.5t6 -1t6 -1q1 0 3.5 0.5t2.5 3.5v29q0 1 -1.5 2t-2.5 2l-4 0.5t-6 0.5
q-1 1 -3.5 1t-5.5 0.5t-5.5 0.5h-3.5l-1.5 1.5t-0.5 2.5zM43 154l8 9h20q5 0 8 -3.5t4.5 -8.5t2 -11t0.5 -12v-11v-8v-4v-4v-3.5v-1.5l-2 -4v-10.5v-11.5t-0.5 -12t-1.5 -11q-2 -3 -5.5 -5t-7.5 -2q-7 0 -11.5 0.5t-7.5 2.5t-5 6t-4 10v6t-0.5 9t-1 9t-0.5 6v1
q0 17 2.5 32.5t1.5 31.5zM67 102h7q3 4 3.5 8.5t0.5 8.5v4q0 2 -0.5 5.5t-1 8t-0.5 8.5v6t-1.5 3t-3 1.5t-3.5 0.5h-3q-6 0 -10 -4.5t-4 -11.5v-32q0 -3 2 -4t5 -1.5t5 -0.5h4zM47 80q0 -7 0.5 -12.5t2.5 -9.5t6 -6t11 -2q1 0 3.5 0.5t3.5 0.5q1 7 1.5 13.5t0.5 12.5v4
t-0.5 4.5t-0.5 4.5t-1 2l-3 2h-22l-0.5 -2t-0.5 -4.5t-0.5 -4.5t-0.5 -3zM91 87l0.5 0.5t0.5 1.5h1q6 0 11 -2.5t8.5 -6l7 -7l7.5 -7.5v-12q0 -11 -3.5 -22t-13.5 -18q-1 1 -3 2.5t-3 3.5l6 8t5.5 8t3.5 8.5t1 10.5q0 8 -4.5 12.5t-10 8t-10 6t-4.5 5.5z" />
</svg>
