<?xml version="1.0" standalone="no"?>
<!DOCTYPE svg PUBLIC "-//W3C//DTD SVG 1.1//EN" "http://www.w3.org/Graphics/SVG/1.1/DTD/svg11.dtd" >
<svg xmlns="http://www.w3.org/2000/svg" xmlns:xlink="http://www.w3.org/1999/xlink" version="1.1" viewBox="-10 0 266 256">
   <path fill="currentColor"
d="M199 162q0 8 -6.5 18t-15.5 19.5t-18 18t-15 13.5q-2 2 -4.5 3t-4 2.5t-2.5 4t-1 6.5q6 0 11 -1.5t9 -5t7.5 -7.5t7.5 -9q10 -12 20 -22.5t19 -22.5q2 -3 2.5 -7.5t0.5 -8.5q0 -7 -3.5 -12.5t-8.5 -10t-10.5 -8t-10.5 -7t-8.5 -6t-3.5 -4.5v-1q1 -2 2 -2q5 -1 11 -1.5
t12.5 -1t12.5 0t10 0.5q2 -2 2 -3v-3q0 -4 -1.5 -4.5t-4.5 -0.5q-16 0 -32.5 2.5t-32.5 3.5h-5.5t-7.5 0.5t-7.5 0.5h-4.5l-2 2l-2 2v1v0.5v0.5q1 0 1.5 1l0.5 1h28q1 0 1.5 0.5l0.5 0.5v0.5v0.5q0 3 -3 7t-7.5 7.5t-10 7.5t-10.5 7.5t-8 6t-3 3.5q0 3 2 3h4q5 0 11 -4
t11.5 -9.5t10.5 -11t7.5 -9t2.5 -4.5q2 0 3.5 1t3.5 2.5t3 3t1 3.5v0v1q-3 4 -8 9.5t-10 10.5l-10 10t-10 9q-1 1 -4 3.5t-7 6t-7.5 7t-3.5 4.5h0.5h0.5q0 1 1 2.5t2 1.5h1q3 0 7 -2.5t8 -5.5t7.5 -7t6.5 -6q2 -2 6 -7t9 -10t9.5 -10t6.5 -7q1 0 3 -1.5l2 -1.5l1 -1q1 0 3 1
t4 2.5t3 3t1 3.5v1l-20 22q-4 1 -10 6.5t-12.5 12t-13 13.5t-10.5 10q-1 1 -3 2t-3 2t-1 2.5t-0.5 3.5t-0.5 4v2q7 0 12 -3q17 -18 34 -35t33 -35l1.5 -1t1.5 0q3 0 4 3.5t1 5.5zM45 132q0 6 2.5 10.5t6.5 7t9 3.5t9 1h2q2 0 5 -0.5t7 -1.5t7.5 -2t4.5 -1q2 -1 3 -4t1.5 -7
t1 -7.5t1.5 -6.5v-60q-1 -3 -1.5 -7.5t-1.5 -8.5t-2.5 -7.5t-4.5 -4.5q-1 0 -3.5 -0.5t-4.5 -0.5h-4.5h-2.5h-9.5t-10.5 1t-9 3.5t-5 8.5q1 12 0.5 22t-0.5 20t-0.5 20t-0.5 22zM56 104q0 -4 3.5 -6t8 -3t9.5 -1h7h9l0.5 0.5l1.5 1.5q0 1 0.5 4.5t0.5 4.5v5t-0.5 8.5
t-0.5 8.5v6q-1 4 -3 6.5t-5 3t-6.5 1t-6.5 0.5q-7 0 -10.5 -4t-5 -10.5t-2 -13t-0.5 -12.5zM129 59q0 11 4 19t14 12h3t4 0.5t4 0.5h3q5 0 10.5 -0.5t10 -2t8 -5t4.5 -10.5q2 -8 2.5 -18t0.5 -18q0 -7 -3 -11.5t-8.5 -6.5t-11.5 -2.5t-11 -0.5q-12 0 -18.5 2.5t-10 8
t-4.5 13.5t-1 19zM56 68q0 -14 6.5 -19.5t20.5 -5.5q5 0 7 3t3 7.5t1.5 9.5t0.5 8q0 5 -1 8.5t-6 3.5h-27q-2 0 -3 -2t-1 -5t-0.5 -5t-0.5 -3zM141 63v-5t3 -3q2 0 6 -0.5t8.5 -0.5t8.5 -0.5t5 -0.5h3q6 0 7.5 2.5t1.5 8.5v7t-3 5q-6 2 -11 4t-11 2q-8 0 -13 -5.5t-5 -13.5z
M142 40q0 -5 4.5 -7.5t10 -4t11 -2t7.5 -0.5q6 0 8.5 3.5t2.5 9.5v2v2l-3 1h-36q-3 0 -4 -0.5t-1 -3.5z" />
</svg>
