<?xml version="1.0" standalone="no"?>
<!DOCTYPE svg PUBLIC "-//W3C//DTD SVG 1.1//EN" "http://www.w3.org/Graphics/SVG/1.1/DTD/svg11.dtd" >
<svg xmlns="http://www.w3.org/2000/svg" xmlns:xlink="http://www.w3.org/1999/xlink" version="1.1" viewBox="-10 0 266 256">
   <path fill="currentColor"
d="M48 245q0 2 1.5 4t4.5 2q1 0 2.5 -1.5t3 -4t2.5 -4.5l2 -4l0.5 -2.5t0.5 -5t0.5 -4.5t0.5 -3l0.5 -3t1.5 -6.5t1.5 -6.5t0.5 -4t1 -5.5t1.5 -9.5t0.5 -9.5v-6.5v-21v-24v-10t-0.5 -15t-0.5 -17.5t-0.5 -18t-1 -15.5t-0.5 -10q1 -5 6 -8t11 -4t12 -1h10q2 -1 8 -1t12 -0.5
t11.5 -0.5h6.5h50q3 0 3 -1.5v-2.5q0 -6 -3 -7t-8 -1h-4.5h-3.5q-2 0 -8.5 0.5t-15.5 1t-19 1t-19 1t-15.5 1t-9.5 0.5q-5 1 -9.5 1t-8.5 1t-8 3.5t-7 6.5v10v12t1 13v99q0 16 -3 31.5t-6 30.5q-1 5 -3 9.5t-2 9.5zM106 208q0 1 2 5.5t4 10t5 9.5t6 4h42q7 0 11 -5t6.5 -12
t4 -14.5t1.5 -12.5v-7q-1 -9 -2 -13t-3 -7t-6 -4.5t-10 -5.5h-3.5h-5.5h-4h-3h-11t-11.5 1t-10 3.5t-7.5 7.5q-1 1 -2 2.5t-1.5 3t-1 2.5t-0.5 2v30zM115 206q0 -2 2.5 -3.5t4.5 -1.5h54l1 0.5l1 0.5v1q0 3 -1.5 6.5t-3.5 7t-4.5 6t-5.5 3.5h-5t-9 0.5t-9 1t-5 0.5h-3
q-3 0 -6.5 -2.5t-5.5 -6t-3.5 -7t-1.5 -6.5zM115 188q0 -7 3 -12t8 -7.5t11 -3.5t12 -1q5 0 9.5 0.5t8.5 2.5t6.5 5.5t2.5 9.5v0.5v0.5q0 1 -0.5 3.5t-0.5 3.5l-1 0.5l-1 0.5h-56q-1 0 -1.5 -1t-0.5 -2zM83 140q0 2 0.5 4t2.5 2q4 0 5.5 -3t2 -7.5t0.5 -10t0.5 -10t2.5 -7.5
t6 -3h2.5t1.5 1v38q0 2 1.5 2h2.5q2 0 4 -3v-28v-2.5t0.5 -3t1.5 -3t2 -1.5q6 0 8.5 4t4 9.5t2 11.5t1.5 9l0.5 0.5l0.5 0.5q2 0 3 -0.5t2 -1.5v-3.5v-3.5q0 -7 -1 -13.5t-4 -11.5t-8 -8t-13 -3q0 -1 -0.5 -2.5t-0.5 -2.5q0 -3 2 -4t4 -1t5 -0.5t5.5 -3t4 -7t1.5 -12.5v-10
q-1 -3 -2 -3.5t-3 -0.5h-3t-2 2v23l-2.5 0.5t-3.5 1.5h-0.5h-1.5h-1.5t-1.5 -2v-14q0 -5 -1.5 -9.5t-5.5 -6.5t-13 -2q-1 0 -3 0.5l-4 1t-3.5 1.5t-1.5 3v1q0 1 0.5 2t1.5 1h19l0.5 2t1.5 3v9v8q-1 3 -2.5 3.5t-3.5 0.5q-5 0 -6 -3t-1.5 -6.5t-1 -6.5t-3.5 -3q-2 0 -2.5 1.5
t-0.5 3.5q0 7 1.5 11.5t4.5 7t6 3.5t5.5 1.5t4.5 1.5t2 3t-2.5 4t-6 4.5l-7 5t-5.5 5.5q-1 2 -2 6t-1.5 8.5l-1 9t-0.5 6.5zM174 105v40q4 0 7 -2.5t3 -8.5v-24q0 -1 1 -2t1 -2h1h1q4 4 6 10.5t3.5 13t2.5 11t4 4.5t4 -2.5t1 -5.5q0 -7 -1.5 -14.5t-4.5 -14t-8.5 -10.5
t-13.5 -5v-1v-2q0 -4 2 -5.5t4.5 -2t5.5 -1t6 -2.5t4.5 -6.5t1.5 -12.5v-3t-0.5 -4.5t-0.5 -4.5v-3q-1 -1 -2 -1.5t-2 -0.5t-3 0.5t-2 1.5v23q0 3 -3 3.5t-4 0.5q-4 0 -5 -3t-1.5 -7.5t0 -8.5t-0.5 -6t-3 -3.5t-3 -2.5h-10h-2.5h-5t-5 1t-2.5 3t2 2.5t4.5 0.5h6.5q3 0 6 1.5
t4.5 4.5t1.5 10v3v3l-3 3h-5q-7 0 -9.5 -3t-3 -6l-1 -6t-4.5 -3q-2 0 -2.5 1.5t-0.5 4.5q0 7 2 11t5 6t7 3t7 2t5.5 2t2.5 4t-2.5 4.5t-5.5 2.5l-6 2t-4 3q-4 7 -5 14.5t-1 14.5v5v4q0 2 3 2q2 0 3 -2.5t1.5 -6.5t1 -9t1.5 -9t3.5 -6.5t6.5 -2.5h2h1z" />
</svg>
