<?xml version="1.0" standalone="no"?>
<!DOCTYPE svg PUBLIC "-//W3C//DTD SVG 1.1//EN" "http://www.w3.org/Graphics/SVG/1.1/DTD/svg11.dtd" >
<svg xmlns="http://www.w3.org/2000/svg" xmlns:xlink="http://www.w3.org/1999/xlink" version="1.1" viewBox="-10 0 266 256">
   <path fill="currentColor"
d="M141 174v-2q0 -1 0.5 -3.5l0.5 -2.5h28q2 0 3.5 6.5t3 16t3 20t3.5 20t5 16t7 6.5q3 0 3.5 -1t0.5 -3q0 -4 -1 -8t-3 -8t-3.5 -7.5t-2.5 -7.5l-0.5 -2.5t-1 -6l-1 -7t-0.5 -5.5t-1 -8l-2 -12t-2.5 -11t-3.5 -5h-33q-3 0 -3 -3v-4v-4.5t3 -2.5q11 -1 22 -1.5t21 -0.5
q3 1 3 -0.5v-2.5q0 -3 -1 -3.5t-3 -0.5h-2h-1q-3 0 -12.5 0.5t-21 1t-21 1t-12.5 0.5h-5h-5h-4t-5 1v1.5v0.5q0 1 0.5 2.5t1.5 1.5h4h4q5 0 9 -1t9 -1h3q2 0 3 1q1 0 1.5 1.5t1.5 2.5v8v8q0 2 -0.5 5t-0.5 6t-0.5 5.5l-0.5 2.5l-1 1h-5h-7t-5 -0.5t-3.5 -2.5t-1.5 -7
q0 -1 -0.5 -3.5t-0.5 -5v-5v-3.5q-1 -1 -2 -1.5t-2 -0.5h-1q0 1 -0.5 4.5t-0.5 4.5v3.5v6t0.5 6.5t0.5 4q1 6 6 8q10 -1 20 0t20 1h9q2 0 3.5 -1t1.5 -3t-0.5 -3.5t-2.5 -1.5h-18l-0.5 -3.5t-0.5 -6.5v-1zM57 236q0 4 0.5 5t3.5 1h3.5t2.5 -2.5t3 -8.5t4.5 -13t4.5 -13t2 -8
q1 -1 1.5 -4.5t1.5 -8t2 -8t1 -4.5l0.5 -2t1.5 -2v-5.5v-7.5t0.5 -8t0.5 -5q0 -5 1 -9.5t3 -8.5t5 -6.5t9 -3.5q12 -1 23 -1.5t23 -1.5h1q5 0 10 1t11 1h6l1 -3v-1q0 -2 -1.5 -3.5t-3.5 -1.5h-3t-2 1q-36 -1 -71 3q-9 2 -12.5 6.5t-5 10.5t-2 13.5t-1.5 13.5q0 1 -0.5 5.5
t-1.5 10t-1.5 10.5t-0.5 6q-2 10 -6.5 21t-8.5 21q-1 3 -3 5.5t-2 4.5zM104 127v0l2 2t2 1h5h6t11.5 -0.5t14 -1t13.5 -1.5t10.5 -1.5t4.5 -1.5l0.5 -2t0.5 -3q-1 0 -3 0.5t-4 0.5h-4h-3q-3 0 -10.5 0.5t-16.5 1.5t-16.5 1.5t-10.5 0.5l-2 2v1zM83 95q6 2 10 2h10t11 -0.5
t8 -2t4.5 -5.5t1.5 -11t-1 -10.5t-3.5 -5.5t-7 -2.5t-10.5 -2.5h-1q-5 0 -10.5 0.5t-9.5 2.5t-6 6t-2 11q0 5 0.5 10t5.5 8zM142 79q0 3 0.5 5.5t2 5t3.5 4.5t5 3h2h4h3h3q7 0 12.5 -0.5t9 -3t5 -7t1.5 -12.5v-8q-1 -3 -4.5 -6t-6.5 -3h-25l-1.5 0.5t-2.5 1.5t-2.5 1.5
t-2.5 1.5q-5 3 -5.5 7.5t-0.5 9.5zM87 82q4 0 7 -0.5t6 -0.5h5h7h7l0.5 1t1.5 2v0v1l-1 2t-2 2h-35q0 -2 1 -4t3 -3zM149 79h4h6h5.5h3.5q2 0 4 0.5t4 0.5t4 0.5l2 0.5l4 4l-4 4h-31l-0.5 -0.5l-0.5 -0.5q0 -1 -0.5 -4.5t-0.5 -4.5zM86 72v0v-1q0 -1 2 -3t3 -2h27l1 1l2 2v1
v0q-1 1 -1.5 2l-0.5 1q-1 1 -5 1h-5q-7 0 -12 -0.5t-11 -1.5zM151 72q-1 0 -1 -1v-2q0 -2 1.5 -3.5t3.5 -2t4 -0.5h4q6 0 10 0.5t10 2.5q2 2 2 4t-0.5 2.5t-1.5 0.5l-2.5 0.5l-2.5 0.5q-4 0 -7 -0.5t-6 -0.5h-6.5t-7.5 -1zM109 39q0 4 3.5 7.5t6.5 3.5h14h9.5t10.5 -1.5
t8 -5t3 -10.5q0 -10 -4 -16t-15 -6h-5q-9 1 -15 2t-9.5 4t-5 8t-1.5 14zM119 41q0 -4 3 -5.5t7.5 -1.5h9h6.5h9l1 3v1q0 3 -2.5 4.5t-6 2t-7.5 0t-5 -0.5h-12q-2 1 -2.5 -0.5t-0.5 -2.5zM119 25q0 -3 2 -4.5t5 -2t6 -0.5h5h5t6 0.5t5 2t2 4.5v2q-4 0 -7.5 0.5t-6.5 1t-6 0.5
h-7h-4t-3 -1q-2 0 -2 -1v-2z" />
</svg>
