<?xml version="1.0" standalone="no"?>
<!DOCTYPE svg PUBLIC "-//W3C//DTD SVG 1.1//EN" "http://www.w3.org/Graphics/SVG/1.1/DTD/svg11.dtd" >
<svg xmlns="http://www.w3.org/2000/svg" xmlns:xlink="http://www.w3.org/1999/xlink" version="1.1" viewBox="-10 0 266 256">
   <path fill="currentColor"
d="M72 226q3 0 9.5 1t14 2t14.5 1.5t10 0.5h6h7t11 -0.5t12.5 -1t12.5 -1.5t10.5 -2t6.5 -3q4 -4 6.5 -9.5t4.5 -9.5v-6t0.5 -8.5t0.5 -8.5v-6l1 -3l1 -3q0 -1 -1 -4t-1 -4v-1v-1q0 -7 2 -13.5t2 -13.5q0 -1 -0.5 -3.5t-0.5 -6t-0.5 -6t-0.5 -3.5v-4v-5v-7t0.5 -11.5
t0.5 -13v-12.5t0.5 -11t0.5 -8q-2 -4 -4.5 -5t-6.5 -1t-6 2t-2 7v2v3t0.5 4.5t0.5 4.5v3v1t-0.5 2.5t-0.5 3v1.5v3q0 10 1 20.5t1 21.5v4t-0.5 4.5t-0.5 4.5v2l-3 3h-3.5t-8 0.5t-10 0.5t-8.5 1h-1h-1q-1 0 -3 -0.5t-4.5 -1t-5 -0.5h-3.5q-3 -18 -4 -36.5t-1 -36.5
q0 -5 1 -10t1 -10v-4v-4q-2 -3 -5 -5.5t-6 -2.5q-2 0 -3 0.5t-2 1.5v6.5t-0.5 9t-0.5 9t-1 5.5v4q0 5 0.5 11.5t0.5 12.5t0.5 12t0.5 11q0 4 0.5 10t2.5 11.5t5 10.5t8 6q14 1 27 1.5t27 0.5q2 0 2 2v3q0 9 -5 11.5t-13 2.5h-7h-13h-12h-8h-7t-13 0.5t-12.5 1t-7.5 0.5h-9
h-7l-1 -2q-1 0 -1 -3t-0.5 -6.5t-0.5 -8v-6.5v-11q0 -20 1 -40.5t1 -40.5v-13q-3 -1 -5.5 -2.5t-5.5 -1.5q-1 0 -2 0.5t-1 1.5t-0.5 4.5t-0.5 7t-0.5 7t-0.5 4.5t-1 3.5t-1 3.5v6v9v9v7q0 14 0.5 28t1.5 28t1.5 28t0.5 28q-1 3 0.5 6t4 5.5t5.5 4.5t5 3zM92 216
q-5 0 -9 -2.5t-6.5 -7t-4 -9.5t-1.5 -9v-3t1 -3q1 -1 9 -2t19 -2t23.5 -2t24 -1.5t20 -0.5h11.5h5q2 1 2 2v3q0 7 -1 13t-3.5 10.5t-7 7.5t-11.5 4q-2 0 -6.5 0.5t-9.5 1t-9 1t-5 0.5h-8h-12.5t-12.5 -0.5t-8 -0.5z" />
</svg>
