<?xml version="1.0" standalone="no"?>
<!DOCTYPE svg PUBLIC "-//W3C//DTD SVG 1.1//EN" "http://www.w3.org/Graphics/SVG/1.1/DTD/svg11.dtd" >
<svg xmlns="http://www.w3.org/2000/svg" xmlns:xlink="http://www.w3.org/1999/xlink" version="1.1" viewBox="-10 0 266 256">
   <path fill="currentColor"
d="M172 197q0 5 1.5 14t5 18t8 15.5t10.5 6.5q3 0 5.5 -1t2.5 -5q0 -6 -3 -10.5t-7 -9t-7 -10t-3 -11.5v-6q2 -2 5 -3t5 -3q3 -2 6 -5t6 -6.5t5 -7.5t2 -8v-2v-3q-2 -1 -3 -1h-3q-3 0 -5 3t-3.5 6.5t-3.5 6.5t-6 3q-3 0 -3 -3q0 -6 3.5 -11t7.5 -9t7.5 -8t3.5 -7t-2.5 -4
t-4.5 -1q-4 0 -7 3.5t-6 9t-5.5 11.5t-4.5 11t-3.5 9t-3.5 4q-3 0 -5 -4l-0.5 -2.5t-0.5 -3.5q0 -5 2.5 -9.5t5 -8.5t5 -6.5t2.5 -5.5q0 -2 -1.5 -2.5t-3.5 -0.5q-3 0 -7 4.5t-7 10.5t-4.5 11.5t-1.5 8.5q0 8 1.5 11t4 4.5t5 2.5t5.5 4zM137 246q1 2 2.5 2.5t3.5 0.5
q5 0 6.5 -3.5t1.5 -8.5q0 -4 -0.5 -8.5t-0.5 -9.5q0 -2 0.5 -4t0.5 -5v0q0 -1 -0.5 -2t-0.5 -2v-2q0 -3 -0.5 -5.5t-0.5 -4.5v-3v-10q0 -6 1 -11.5t2.5 -11t4.5 -8.5q1 -2 3.5 -4t5 -3.5t4.5 -3.5t3 -4q1 -1 2 -4t2.5 -6l3 -6t3.5 -4q4 0 9.5 -0.5t10.5 -3t8 -6t3 -9.5v-34
q0 -6 -5.5 -8.5t-12 -4t-12 -2t-5.5 -2.5v-30q0 -1 -1 -1.5t-2.5 -1t-2.5 -0.5h-2h-2.5t-2.5 1v35q0 2 -2.5 2.5t-5.5 1l-6 1l-3 0.5q-5 2 -7.5 6.5t-4 10.5t-1.5 12v10q0 3 0.5 6.5t2.5 6.5t5 5t7 2h4q2 0 4.5 -0.5t4.5 -1.5t2 -3q0 -1 -0.5 -2.5t-1.5 -1.5h-14l-0.5 -1
l-0.5 -1q-2 -2 -2 -2.5v-2.5q0 -5 3 -7.5t7 -2.5q7 0 10.5 3t3.5 10v1.5v1.5l-1 1.5l-1 1.5q0 1 1.5 3l1.5 2v1q0 6 -4 12t-9 11t-9.5 10.5t-7.5 11.5q-2 7 -4 15.5t-2.5 17.5l-1 18t-0.5 17q0 1 0.5 4t0.5 6.5t0.5 7t0.5 4.5zM59 193v5t1 10t2 12.5t2.5 12t3 9.5t3.5 4h42
q6 0 8.5 -4.5t2.5 -9.5v-40v-5t-0.5 -6t-2 -5.5t-4.5 -2.5t-4 2t-1.5 4.5t0 5t0.5 4.5q-1 3 -2.5 3h-3.5q-5 0 -6.5 -3t-2 -7t-2 -7t-6.5 -3q-2 0 -3 0.5t-1 2.5v1q1 2 1.5 7t0.5 6t0.5 3.5t1.5 5.5t3 3h17q1 0 1 2v3v2t-1 2q-8 0 -14 0.5t-13 0.5h-4l-4 -3q-2 -2 -1.5 -6.5
t0.5 -8.5t-1.5 -7.5t-7.5 -3.5q-2 0 -3 0.5t-2 3.5v7zM77 226q0 -2 3 -4t7.5 -3t8.5 -1.5t6 -0.5h4h4q2 2 2.5 4t0.5 4t-1 5.5t-3 4.5l-17 3q-3 0 -5.5 -1t-4.5 -2.5t-3.5 -4t-1.5 -4.5zM52 138q0 7 4.5 14.5t11.5 9.5h17h15.5t16.5 -2t13 -7.5t5 -15.5v-3v-9t-0.5 -9.5
t-0.5 -8v-3.5l-7 -5l-2 -0.5t-5 -0.5t-6 -0.5t-5 -0.5h-3q-10 0 -20.5 1t-20.5 3q-5 4 -7.5 7.5t-4 8t-1.5 9.5v12zM76 150q0 -5 1.5 -9t2.5 -8t2 -9.5t0 -12.5q1 -1 1.5 -1h1.5q2 0 2.5 1l1.5 3t1 3.5v2.5v31q0 1 -1 2t-2 1.5t-3 0.5h-2l-2 -0.5l-2 -0.5q-1 0 -1.5 -1.5
l-0.5 -1.5v-1zM99 116l3 -1q1 1 3 5.5t3.5 9.5t3 9.5t1.5 6.5q1 2 -0.5 3t-3 2.5t-3 2t-2.5 0.5t-3 -2.5t-2 -3.5v-32zM65 140v-8v-4v-5.5t1 -4.5t4 -2h1l1.5 6t0.5 5q0 2 -0.5 4t-1 4.5t-1.5 4t-3 1.5v0q-1 0 -1.5 -0.5zM115 118v-8l1.5 -1.5t1.5 -0.5q2 0 3 0.5t2 1.5
q0 1 0.5 3t1 4.5l1 5t0.5 3.5v1v4t-1 4t-2 3.5t-2 1.5q-3 0 -4.5 -3t-1.5 -6.5v-7v-5.5zM41 99q0 2 1 3.5t3 1.5q6 0 9.5 -4t5.5 -8.5t4.5 -8t5.5 -3.5t5.5 1t5.5 1q8 0 15 -2.5t15 -2.5q2 0 3.5 1t3 3t3 3.5t2.5 3.5h1v0q1 -1 4 -2t4 -3q0 -1 -0.5 -2.5t-1.5 -3t-1.5 -3
t-1.5 -2.5q0 -1 -2 -5t-5 -8.5t-5.5 -8.5t-4.5 -6q-1 -3 -3.5 -8t-5.5 -10t-6 -9t-6 -4q-1 0 -2.5 0.5t-2.5 1.5q-2 7 -5 13.5t-6 12.5t-6.5 12t-6.5 13l-1 3l-2.5 2.5t-1 0.5t-0.5 0.5t-1 2.5q0 1 -0.5 2t-1 3t-1 3.5l-0.5 1.5l-2.5 2.5t-3 3.5l-3 4t-1.5 4zM184 98
q0 -11 5 -14t16 -3q0 4 -0.5 8t-2 7.5t-4.5 5.5t-8 2q-2 0 -4 -1.5t-2 -4.5zM149 74q0 -6 4.5 -9t10.5 -4.5t12.5 -1.5h9.5h2.5h3.5h3.5h2.5q5 4 5 10q0 2 -1.5 3t-3.5 2t-4 1h-4q-1 0 -5.5 0.5t-10.5 1t-11.5 1t-8.5 0.5h-2q-2 0 -2.5 -1t-0.5 -3zM74 70q0 -2 1.5 -4
t3 -3.5l3 -3t2.5 -3.5q1 -1 1 -4.5t0.5 -6.5t2 -5.5t4.5 -2.5q1 0 4 4t6 9.5t5 10.5t2 7q0 1 -4.5 2t-10 2t-11 1.5t-6.5 0.5q-2 0 -2.5 -1t-0.5 -3z" />
</svg>
