<?xml version="1.0" standalone="no"?>
<!DOCTYPE svg PUBLIC "-//W3C//DTD SVG 1.1//EN" "http://www.w3.org/Graphics/SVG/1.1/DTD/svg11.dtd" >
<svg xmlns="http://www.w3.org/2000/svg" xmlns:xlink="http://www.w3.org/1999/xlink" version="1.1" viewBox="-10 0 266 256">
   <path fill="currentColor"
d="M71 211v9.5t0.5 13.5t2 12t3.5 5q3 0 5.5 -2.5t2.5 -5.5q0 -8 -2.5 -16t-2.5 -16q0 -7 2 -13t5 -12t6.5 -11.5t6.5 -12.5q6 -14 8.5 -30t2.5 -32q0 -8 -1.5 -16t-1.5 -17q-1 -7 -2 -13.5t-3.5 -11.5t-7.5 -8.5t-14 -4.5l-2.5 0.5t-3.5 1l-3 1.5t-3.5 2t-3.5 2l-2 1
q-4 3 -6.5 12t-4.5 19.5t-2.5 20t-0.5 13.5q0 17 0.5 34t7.5 33h1h1q1 0 2.5 -0.5t1.5 -3.5v-3.5v-4.5q0 -7 -2 -13t-3 -12v-3q0 -3 0.5 -5.5t0.5 -5v-3.5q4 0 8 3.5t7 8t5.5 8t4.5 3.5q3 0 3.5 -1t0.5 -4q0 -7 -5 -11.5t-10 -8t-10 -8t-5 -10.5q0 -2 0.5 -5.5l1 -7t1.5 -6
t4 -2.5q4 0 7.5 3.5t6.5 7.5l6 8t7 5q1 -1 1.5 -2t0.5 -3q0 -6 -4.5 -10.5t-9.5 -8.5t-9.5 -8t-4.5 -8q0 -5 2.5 -9.5t6.5 -8.5h3.5h2.5h6t5 2q4 5 6 12.5t3 16t1.5 17.5t0.5 15q0 14 -2.5 27t-6.5 26q-3 8 -6.5 13.5t-7.5 11.5t-6.5 13t-2.5 17zM195 230v4t3 2q1 1 2.5 0
l3 -2t2.5 -2.5l1 -1.5v-4v-4.5v-5.5v-3q0 -32 -2 -63.5t-6 -62.5q0 -2 -0.5 -7l-1 -10t-0.5 -10v-7q-1 -1 -2 -3l-2 -4t-2.5 -3.5t-3.5 -1.5h-20q-2 0 -2 -5v-10t-1 -11t-6 -5h-3q-1 3 -1 5v5q0 4 0.5 7.5t0.5 6.5q0 4 -2 6t-5.5 3t-7 1.5t-7 2t-6 4.5t-3.5 9q-1 13 -1 26
t-2 26l-4 110q-1 0 -1.5 2t-0.5 3v0v1q1 3 2 4t3 1q3 0 5 -6t3 -16t1.5 -21.5t0.5 -22v-18.5t1 -11q0 -3 2 -6.5t4.5 -7t5.5 -6.5t4 -6q1 -1 2.5 -3t3.5 -4.5t3.5 -4.5t3.5 -2h3q3 7 8 13t10 11q0 1 0.5 2t1 1.5t1.5 1t2 0.5q3 2 5 4t2 4.5v5v7.5q1 1 1.5 3.5l0.5 2.5v42
q0 1 0.5 2.5t1.5 2.5v1v1l-0.5 3.5l-1 7t-0.5 7v4.5v5zM131 116q0 -1 -0.5 -3t-0.5 -4v-3v-3v-3v-4t0.5 -4l0.5 -2v-5t0.5 -8.5l1 -9t1.5 -6.5q0 -3 2 -5.5t5 -4.5t6 -3t6 -1h1l0.5 0.5l0.5 0.5v39q-3 4 -5.5 8l-5 8t-5 7.5t-5.5 6.5h-1h-1l-0.5 -0.5zM166 67v-12l1 -2.5
t2 -2.5h14q1 0 2 3.5t2 9t2 11.5t1.5 11.5t1 9.5l0.5 4v2q0 3 -0.5 6t-1 5.5t-0.5 3.5h-1l-1 -1l-2.5 -2.5l-2.5 -2.5l-2 -2t-2.5 -3.5t-3.5 -5t-3.5 -4.5t-2.5 -4q-2 -2 -2.5 -5t-1 -6.5t0 -7t0.5 -5.5z" />
</svg>
