<?xml version="1.0" standalone="no"?>
<!DOCTYPE svg PUBLIC "-//W3C//DTD SVG 1.1//EN" "http://www.w3.org/Graphics/SVG/1.1/DTD/svg11.dtd" >
<svg xmlns="http://www.w3.org/2000/svg" xmlns:xlink="http://www.w3.org/1999/xlink" version="1.1" viewBox="-10 0 266 256">
   <path fill="currentColor"
d="M171 138q2 14 3.5 27t2.5 27q1 2 2 8t2.5 12.5t3 14t3.5 13t4.5 8.5t4.5 2q3 -2 3 -5v-5q0 -6 -2 -12.5t-4.5 -13t-4.5 -13t-3 -13.5q-5 -25 -7 -49.5t-2 -50.5q0 -18 3 -35t3 -34q0 -3 -1 -5t-4 -2q-2 0 -4.5 2t-2.5 5v119zM108 243q0 1 1 3.5t3 2.5q3 0 5 -4t4 -10
t3.5 -13.5t3 -14.5t2 -13t0.5 -9q0 -1 0.5 -4.5t1 -7.5t1 -7.5t0.5 -4.5q1 -3 1.5 -11t1 -17t0.5 -16.5v-10.5q1 -3 2.5 -5.5t4.5 -2.5q2 0 3 2l2 4t1 4.5v3.5v6v8v9v5v6.5t0.5 10.5t0.5 13t0.5 13.5t0.5 11v5.5v19q0 2 1 3.5t3 1.5t3 -1t1.5 -3l1 -4t0.5 -3v-5t-3 -4
q-1 -26 -1.5 -51t-1.5 -51q0 -7 -3 -9.5t-6.5 -3t-6.5 -0.5t-3 -2v-57v-4.5t-1 -5t-2.5 -4.5t-3.5 -2t-2.5 0.5l-1.5 1.5v7q0 15 2 30t2 30q0 31 -2.5 61.5t-7.5 60.5q0 4 -2 9t-4 10.5t-3.5 10.5t-1.5 8zM60 184q0 2 1 8t2.5 13t3.5 14t4 13t5 9.5t5 3.5q3 0 4 -1.5t1 -4.5
v-1.5v-1.5q-6 -11 -11 -23t-5 -25q0 -7 2.5 -13t5.5 -11t6.5 -10.5t6.5 -11.5q2 -8 3 -15.5t1.5 -16t0 -16.5t-0.5 -15v-5v-8.5v-8.5v-5q0 -3 -1 -7.5t-2.5 -8.5t-4.5 -7t-7 -3q-14 0 -20 5.5t-8.5 14t-2.5 19.5t-1 23v3v2v10t0.5 15t1 15.5t0.5 9.5t2 3t3 1v0h1l2 -2t1 -2
t-0.5 -5t-1 -8.5t-1 -8.5t-0.5 -7q0 -2 0.5 -4.5t3.5 -2.5v0q3 3 6 7t7 5h1q2 0 2.5 -1t0.5 -2q0 -5 -3.5 -8t-7 -6.5t-6.5 -8t-3 -10.5v-3.5v-3.5q1 -1 1.5 -1h1.5q4 0 6 1.5t4 3.5t4 3.5t6 1.5q0 -6 -3.5 -10.5t-7.5 -7t-7 -5.5t-3 -6q0 -4 1 -7.5t3.5 -6.5t5.5 -5t7 -2v0
q1 0 3.5 1.5t3.5 1.5q-1 2 -0.5 3.5t1 3.5t1.5 4t1 3q2 9 2.5 19t0.5 20q0 9 -0.5 18t-0.5 19q-3 8 -7.5 14.5t-9 12.5t-8 13t-3.5 16zM190 66q0 20 2.5 38.5t4.5 38.5q0 3 0.5 9t1.5 12.5t3 12t6 6.5q2 -1 3 -4.5t1 -5.5q0 -4 -1 -9.5t-2.5 -11t-3 -11.5l-2.5 -10
q-2 -10 -3 -20.5t-1 -21.5v-21.5t1 -20.5q-1 -2 -2 -3t-3 -1q-1 0 -1.5 0.5l-1.5 1.5q0 1 -0.5 4t-0.5 6t-0.5 5.5t-0.5 3.5v2zM97 172q0 1 0.5 2.5t2.5 1.5t3.5 -3t3 -8t2.5 -11t2 -11t1.5 -9.5t1.5 -5.5q0 -3 0.5 -6.5t0.5 -8t1 -9t2 -7.5v-48q0 -1 -1 -1.5t-1.5 -0.5
t-1.5 -1l-1 -1q-3 0 -4 2.5t-1 4.5q0 7 1 13.5t1 13.5q0 29 -5 57q-2 9 -5 18t-3 18zM193 44q2 0 2 1q0 2 -2 2q-1 0 -1 -2q0 -1 1 -1z" />
</svg>
