<?xml version="1.0" standalone="no"?>
<!DOCTYPE svg PUBLIC "-//W3C//DTD SVG 1.1//EN" "http://www.w3.org/Graphics/SVG/1.1/DTD/svg11.dtd" >
<svg xmlns="http://www.w3.org/2000/svg" xmlns:xlink="http://www.w3.org/1999/xlink" version="1.1" viewBox="-10 0 266 256">
   <path fill="currentColor"
d="M77 249q0 2 1.5 2h2.5q4 0 4.5 -1t0.5 -5q0 -5 -2 -10.5l-4 -11t-4 -10.5t-2 -11l0.5 -2.5l0.5 -2.5q5 -6 10 -11.5t9 -11.5t6.5 -13t2.5 -15v-5v-10.5t-0.5 -13t-0.5 -12v-5.5q-1 -10 -3.5 -19t-3.5 -18v-5t0.5 -3.5t0 -2.5l-1.5 -3q-3 -5 -8 -6.5t-10 -1.5
q-6 0 -10.5 4.5t-6.5 11t-3 13.5t-2 12q0 1 -0.5 5t-1 8.5t-1 10.5t-1 10.5t-1 8.5t-0.5 5v2v6v6v4v4v5v6v3q1 1 1 3t0.5 4t1.5 4t2 2l5 -5v-49l2 -2q2 2 4.5 7t5.5 10.5t5 9.5t4 4t2.5 -1.5t0.5 -3.5q0 -6 -2 -12t-5.5 -11.5t-8 -10t-8.5 -7.5v-2q0 -5 1.5 -10.5t1.5 -10.5
q1 -2 3 -2q3 0 6 3.5t6 7.5t5.5 8.5t3.5 6.5h1q2 0 2 -2.5v-4.5q0 -5 -3 -9.5t-7.5 -8.5t-7.5 -8t-3 -10q0 -2 0.5 -5t2 -6t3 -5t4.5 -3t5.5 3t4.5 10t3 14t2 14.5t1.5 11.5t0.5 6v48l-0.5 1.5t-0.5 3.5q-1 1 -2 4l-1 3l-23 23q-2 2 -2.5 7t-0.5 8q0 5 1.5 11l3 12t3.5 11.5
t4 10.5zM129 82q-3 1 -5.5 2.5t-5 3.5t-4 4.5t-1.5 5.5v151l0.5 0.5t0.5 1.5h1q3 0 4 -2.5t1.5 -5.5t0.5 -6v-4q0 -11 -1 -22t-1 -22q0 -8 1 -16.5t1 -16.5v-4v-4v-5v-2q0 -1 -0.5 -3.5t-0.5 -6t-0.5 -6.5l-0.5 -3q0 -3 0.5 -7.5t1 -8.5t1.5 -8t2 -7q2 0 7 -0.5t10.5 -1.5
t10.5 -1.5t7 -0.5v0q3 0 5.5 0.5t4.5 0.5q4 0 7 -0.5t6 -0.5t6 4t4 7q2 29 3.5 58.5t2.5 59.5v32l0.5 0.5t1.5 0.5v0v0q3 0 5 -1.5t3 -4t1 -5v-4.5q0 -8 -1 -15t0 -16l-10 -115q0 -4 -3 -5.5t-6 -2.5t-5.5 -1.5t-2.5 -4.5t1.5 -6.5t3.5 -4t5 -3t5 -4.5t3.5 -8t1.5 -14
q0 -2 -1 -5t-3 -3q-3 0 -4 2t-1 5v6.5t-1 6.5t-3 5t-6 2v-6v-9v-9v-6v-3t-0.5 -4t-1.5 -3t-2 -1h-2.5t-1.5 2v41q0 1 -1 1.5t-2 0.5q-3 0 -4 -4t-2 -9t-2.5 -9t-3.5 -4t-2 2v4q0 8 2.5 13t6 9t6.5 7t3 8q0 2 -0.5 4t-3.5 1h-4.5t-7.5 0.5t-8 0.5h-5h-3h-4q-1 0 -3 -1v-4
q0 -5 2.5 -7.5t4.5 -4t4 -3.5t2 -5v-21l-0.5 -1t-1.5 -2v0v0q-3 0 -3 3.5v7.5t-0.5 7t-3.5 3q-2 0 -3.5 -1.5t-1.5 -3.5v-28l-0.5 -1t-1 -1t-1.5 -0.5t-2 -1.5q-3 5 -3 8.5v8.5t1 9t1 9q0 1 -0.5 2.5t-2.5 1.5q-4 0 -5.5 -4t-2 -8.5t-1 -8.5t-3.5 -4q-2 0 -3 2v6q0 5 1 9.5
t3 8t5.5 6.5t8.5 4v17zM147 240v1q1 1 1.5 2l0.5 1l0.5 0.5l0.5 0.5q4 0 6.5 -4.5t3.5 -10.5t1.5 -12t0.5 -9v-5t0.5 -8.5t0.5 -9v-5.5l2 -4t2.5 -4t3.5 -3.5t4 -1.5t2 2q0 1 1 3v2.5v5t0.5 5t0.5 3.5v3v5v6v3v4t0.5 6t1 5.5t0.5 3.5h1h1q3 0 4 -1t2 -3q-1 -3 -1.5 -9.5
t-1 -13.5t-1 -13t-0.5 -9v-19q0 -2 -2 -2h-3q-2 0 -3.5 1.5l-3 3t-3.5 2.5t-4 1q-1 0 -2 -4.5t-2.5 -10t-2.5 -10.5t-1 -7q0 -4 3.5 -6.5t7.5 -4t8.5 -2t6.5 -1.5q2 0 2.5 -0.5t0.5 -2.5q0 -3 -1.5 -3h-4.5q-6 0 -12 0.5t-12.5 1.5t-12.5 1.5t-11 0.5q-1 0 -2 1t-1.5 2
t-0.5 2v2h22q2 0 2.5 0.5t0.5 2.5q0 4 -4 6.5t-9 5.5t-9 6t-4 8q7 0 12 -3.5t9 -8.5h1q1 0 2.5 2t1.5 3q0 2 -1 3.5t-2.5 3.5t-3.5 3.5t-3 2.5q-1 2 -4.5 5.5t-5.5 6l-2 2.5v7q4 -2 6.5 -4.5t4.5 -5.5t4 -5.5t5 -2.5t4 2.5t1 5.5v1q0 1 -0.5 3.5t-1.5 3.5q0 1 -2.5 3t-5 4.5
t-4.5 5t-3 3.5q-2 2 -5 4t-5.5 4t-4 4.5t-1.5 6.5v0.5v1.5l2.5 0.5t3.5 0.5q2 0 3 -2.5t2 -3.5t3 -4t4.5 -6t5 -5.5l3.5 -3.5v0h1q2 0 3 0.5t0 2.5q0 1 -0.5 5t-1 7.5t-0.5 7.5t-1 5q0 1 -0.5 4.5t-1.5 7t-1.5 7t-1.5 3.5v1zM138 100v1l0.5 1t1.5 1h2h3h8t10.5 -1t10 -2
t5.5 -4q-1 -2 -3.5 -2.5t-5.5 -0.5q-1 0 -2 0.5t-2 1.5h-4t-6.5 0.5t-7 0.5h-4.5q-1 1 -3.5 1.5t-2.5 2.5zM65 41q-1 0 -1 1q0 2 1 2q2 0 2 -2q0 -1 -2 -1z" />
</svg>
