<?xml version="1.0" standalone="no"?>
<!DOCTYPE svg PUBLIC "-//W3C//DTD SVG 1.1//EN" "http://www.w3.org/Graphics/SVG/1.1/DTD/svg11.dtd" >
<svg xmlns="http://www.w3.org/2000/svg" xmlns:xlink="http://www.w3.org/1999/xlink" version="1.1" viewBox="-10 0 266 256">
   <path fill="currentColor"
d="M118 248l1 1l2 2v0q4 0 6 -3.5t3 -8.5t1 -10v-7v-7t0.5 -8.5t0.5 -7.5v-3l2 -3q7 1 15 0.5t15 -1.5l1 -2q1 0 2 -0.5l1 -0.5q5 -4 7 -10t2 -11q0 -1 -0.5 -2t-0.5 -2t-0.5 -2t-0.5 -2q0 -2 0.5 -4t0 -3.5t-1.5 -2t-3 -0.5h-3t-1 3v26l-5 4h-26q-2 0 -3 -4.5t-1 -10
t-0.5 -11.5t-2.5 -8q-2 -3 -5.5 -4.5t-6.5 -3t-5.5 -4t-2.5 -7.5q0 -4 2 -7t5.5 -4.5t7.5 -2t7 -0.5q10 0 15 3.5t5 13.5q0 4 -2 6t-4.5 3t-4.5 2t-2 2q0 3 1 3.5t3 0.5q5 0 8 -1.5t5.5 -4.5t3.5 -7t1 -8l-0.5 -2.5t-0.5 -3.5q-2 -2 -2.5 -4.5t-1.5 -4.5q-3 -4 -9 -5t-11 -2
l-1 -3v-25q7 0 13.5 1.5t13 4.5t12.5 6.5t12 6.5q3 2 6.5 5t6.5 3t3 -5q0 -4 -5 -8t-12.5 -7t-16.5 -6.5t-16.5 -6t-12.5 -4.5t-5 -3q0 -2 0.5 -3t2.5 -2q11 0 18.5 -1.5t12.5 -5t7.5 -10.5t2.5 -18q0 -2 -1 -3.5t-3 -1.5q-4 0 -5 2t-1.5 6t-0.5 8t-2 7.5t-6.5 6t-13.5 2.5
h-8q-2 -2 -3 -5t-1 -5q0 -6 1 -12t1 -12v-8l-0.5 -0.5t-1.5 -0.5q-1 -1 -3 -1.5t-3 -0.5l-1 3v40l-1 2h-4h-5h-10q-4 0 -9 -2q-3 -1 -4 -6t-1.5 -10t-1.5 -9t-5 -4q-2 0 -3 1.5t-2 3.5q1 7 3 13.5t6 13.5q2 4 8 5t12.5 1.5t11.5 1t5 4.5q0 1 -3 2.5l-7 3.5t-9.5 4.5
t-10.5 4.5t-8.5 4t-4.5 2q-1 1 -4.5 2.5t-7 3.5t-7 3.5t-4.5 1.5q-1 1 -1.5 2t-0.5 2q0 2 1 3t3 1h2.5t1 -0.5t1.5 -1l3 -1.5q1 -1 3.5 -2l5 -2t5.5 -2l3 -1q4 -2 8.5 -5t9 -5.5t9 -4t9.5 -1.5q2 0 2.5 2t0.5 4q0 5 -1 10.5t-2 10.5l-1.5 0.5t-3.5 1l-4 1l-2 0.5
q-1 1 -3 2.5t-3.5 3t-2.5 3l-1 1.5v19q0 2 3.5 4.5t7.5 4.5t8 4.5t4 4.5v22l-0.5 0.5t-1.5 0.5q-3 2 -6 2h-7h-10q-3 -2 -4.5 -5t-2 -7t-1 -8.5t-0.5 -8t-1 -5.5t-4 -2q-4 0 -5 2t-1 5q0 14 2 21.5t7 11.5t13 5.5t20 1.5q1 1 1.5 2l0.5 1q0 1 -1 3t-1 3q0 2 -0.5 6.5t-1 9.5
t-1 9.5t-0.5 6.5q-1 2 -1 4v5v5z" />
</svg>
