<?xml version="1.0" standalone="no"?>
<!DOCTYPE svg PUBLIC "-//W3C//DTD SVG 1.1//EN" "http://www.w3.org/Graphics/SVG/1.1/DTD/svg11.dtd" >
<svg xmlns="http://www.w3.org/2000/svg" xmlns:xlink="http://www.w3.org/1999/xlink" version="1.1" viewBox="-10 0 266 256">
   <path fill="currentColor"
d="M155 247q0 3 1.5 3.5t3.5 0.5h1.5h0.5l5 -12v-3.5t0.5 -8.5t0.5 -12t0.5 -14t1 -13t0.5 -11v-7t-0.5 -10.5t0 -12t1 -12t1.5 -9t3 -4.5q1 0 4 -0.5l6 -1l6 -1t5 -1.5q3 0 5.5 -2t2.5 -5q0 -2 -1 -3.5t-4 -0.5l-24 3q-2 0 -2.5 -0.5t-1 -1.5t-0.5 -2v-2q0 -8 1.5 -16
t2.5 -16q0 -1 1.5 -1.5l1.5 -0.5q1 0 4.5 -0.5t7 -1.5t6.5 -1t4 -1q1 0 3 -2t2 -2.5t-0.5 -2l-0.5 -1.5h-3h-2q-5 0 -9 1t-8 1h-3h-3q-2 -1 -2.5 -3.5t-0.5 -4.5v0q0 -1 0.5 -2.5t1.5 -1.5v-6t0.5 -8.5t0.5 -8.5v-5v-4q0 -2 -1 -3.5t-3 -1.5q-4 0 -6 1.5t-2 5.5
q0 10 0.5 20.5t0.5 21.5v2t-1 1q-8 1 -16.5 1.5t-15.5 3.5v2v2t1 1h4h4h5h3h1.5t3 -0.5t2.5 -0.5h1q3 0 4.5 1.5t2 3.5t0.5 4.5v4.5v6t-0.5 8t-1 7.5t-2.5 4.5q-4 2 -9 2.5t-9.5 1.5t-7.5 3t-3 9q6 0 11.5 -2.5t12.5 -2.5q2 0 3 0.5t2 3.5q0 1 0.5 2.5t0.5 3.5v4v2
q0 25 -3 49t-3 48v11zM79 239q0 3 0.5 4t2.5 1t3.5 -1t2.5 -4q3 -30 4.5 -61t0.5 -61q-1 -3 1.5 -3.5t3.5 -0.5q4 0 5.5 2.5t2 6t1 7.5t2.5 6v32q1 2 1.5 2.5t0.5 2.5q0 10 -1.5 20t-1.5 20q0 2 0.5 3.5t2.5 1.5h1v0q1 0 2.5 -1.5t2.5 -1.5q-1 -14 0.5 -28t1.5 -28
q0 -13 -1.5 -25t-5.5 -25q-1 -2 -4.5 -3t-6.5 -1.5t-5.5 -1.5t-2.5 -4q0 -7 1.5 -10t4.5 -4.5l6 -3t5.5 -3.5t4.5 -6.5t2 -12.5v-6.5t0.5 -9.5t0.5 -9.5v-6.5q-3 0 -6.5 0.5t-3.5 4.5v5v7v7v5t-0.5 5t-1.5 6t-2.5 5t-4.5 2l-2 0.5t-2 -1.5v-14q0 -10 0.5 -19t0.5 -19
q0 -3 -0.5 -5t-3.5 -2h-3t-2 1t-0.5 3t-0.5 4t-0.5 4t-0.5 3v1v2q0 7 1 15t1 16v2v3v3.5v1.5l-2 3h-1.5h-1.5q-3 0 -5.5 -0.5t-4.5 -4.5v-5t-0.5 -7.5t-0.5 -8v-4.5q0 -2 -0.5 -4.5l-1 -5t-1.5 -4.5t-3 -2q-3 0 -5 1.5t-2 4.5v0.5v0.5q0 1 0.5 2t1 2.5l1 3l0.5 1.5v3v4v5v3
q1 9 4.5 14t8 7.5t8 3t3.5 2.5v15l-1 0.5t-2.5 1.5t-3 1.5t-2.5 1.5q-1 0 -3 0.5l-2 0.5l-2 2l-2.5 2.5l-2.5 2.5t-1 2q-2 2 -3.5 9t-3 15t-2 15t-1.5 9v5.5v2.5t-0.5 3t-1.5 4v34q0 1 1.5 1.5t2.5 0.5q4 0 6 -7.5t2.5 -19t1 -25t2 -25t4.5 -19t10 -7.5q3 0 3.5 2t0.5 5v2
q0 3 -0.5 11.5t-1 17.5t-1.5 17.5t-1 11.5v5q0 3 -0.5 10t-0.5 15t-0.5 15.5t-0.5 10.5v1.5v1.5z" />
</svg>
