<?xml version="1.0" standalone="no"?>
<!DOCTYPE svg PUBLIC "-//W3C//DTD SVG 1.1//EN" "http://www.w3.org/Graphics/SVG/1.1/DTD/svg11.dtd" >
<svg xmlns="http://www.w3.org/2000/svg" xmlns:xlink="http://www.w3.org/1999/xlink" version="1.1" viewBox="-10 0 266 256">
   <path fill="currentColor"
d="M123 253q-1 2 1.5 2.5t3.5 0.5q4 0 5.5 -3.5t2.5 -5.5v-4v-6v-5v-4q0 -10 -1 -20t-1 -21v-3t0.5 -4.5t1.5 -4.5t3 -3q4 0 7.5 4.5t6 11.5t5.5 15.5t5.5 15.5t5 12t4.5 5h1q4 -1 4 -6q0 -2 -0.5 -4.5t-1.5 -5l-2 -5t-2 -3.5q-2 -6 -3.5 -12t-4 -11.5t-6.5 -10.5t-9 -8
q0 -1 -2.5 -1.5t-5.5 -1.5t-5.5 -2.5t-2.5 -2.5v-10q0 -1 3.5 -2t8.5 -1.5t9.5 -1.5t6.5 -4q2 -2 3 -5.5l2 -7t1 -7.5v-6v-3q0 -3 -0.5 -5t-1.5 -3.5t-3 -1.5q-3 0 -3.5 2.5t-1 7t-0.5 9t-2 8.5t-5.5 7t-10.5 3h-2l-2.5 -2.5t-1.5 -2.5v-38h45q1 0 2 -1.5t1 -2.5l-0.5 -1
t-1 -1.5l-1 -1l-0.5 -0.5h-78q-5 0 -6.5 -2t-2.5 -5q1 -1 3 -3.5t4.5 -5l5 -5l3.5 -3.5l2 -1t4.5 -2.5t4.5 -3l2 -1.5q3 -2 5 -4t6 -2q5 0 12 3.5t13 7.5t11 7.5t8 3.5t4.5 -3t1.5 -5t-3 -4.5t-7.5 -4.5t-10 -3.5t-10.5 -3.5t-9 -4t-5 -4q0 -4 0.5 -8t0 -9t-1 -9t-2.5 -8h-3
h-3.5t-2.5 2v35l-0.5 0.5l-0.5 0.5l-1.5 1t-3 1.5l-3 1t-1.5 1.5q-2 1 -5.5 3.5t-7 5.5t-7 5.5t-4.5 2.5h-2t-1 -2l-3 -37q-1 -3 -1.5 -3h-2.5h-2.5t-2.5 1v11v11q0 5 -0.5 12.5t0.5 15t4 13t11 6.5q1 0 5.5 0.5t10 1t10 0.5h6.5q1 6 1 12v12v3v4v4v3q0 1 -1 3t-2 3
q-7 0 -13 -1.5t-10 -7.5q0 -1 -0.5 -6t-1.5 -10t-3 -9t-5 -4t-4 2t-1 4q0 10 2 18.5t6.5 14t12 7.5t19.5 1l2.5 2.5t1.5 3.5q0 4 -3 6t-7.5 3.5t-9 3.5t-6.5 5q-5 7 -7.5 14.5t-4.5 15.5t-2.5 16t-0.5 15v3.5v2.5l2 2l1 1h0.5h0.5q3 0 4.5 -3.5t2.5 -9.5t2 -13t2.5 -14.5
t3 -13.5t5.5 -10q2 -3 5 -6t8 -3h2t2 2v65z" />
</svg>
