<?xml version="1.0" standalone="no"?>
<!DOCTYPE svg PUBLIC "-//W3C//DTD SVG 1.1//EN" "http://www.w3.org/Graphics/SVG/1.1/DTD/svg11.dtd" >
<svg xmlns="http://www.w3.org/2000/svg" xmlns:xlink="http://www.w3.org/1999/xlink" version="1.1" viewBox="-10 0 266 256">
   <path fill="currentColor"
d="M81 246q0 2 1 3.5t3 1.5q3 0 5.5 -2t3.5 -5v-8q0 -19 -1 -37.5t-1 -37.5v-8v-10t0.5 -10t2.5 -8q1 0 1.5 -0.5l0.5 -0.5q4 0 5.5 4.5t2.5 10t1 11t1 7.5q0 1 0.5 5t1 9t1 9t0.5 5v7v11v11v7q-2 3 0.5 4t3.5 1q4 0 5.5 -3.5t1.5 -6.5v-2l-8 -76q0 -2 -1 -5l-2 -6
t-2.5 -5.5t-4.5 -2.5h-1.5h-3.5t-4 -1t-2 -3v-16l0.5 -0.5t1.5 -0.5q6 -3 10 -6.5t6 -8t2.5 -9.5t0.5 -12v-10q-1 -2 -2 -3.5t-3 -1.5q-3 0 -3 4v1.5v1.5l0.5 1.5t0.5 3t0.5 3l0.5 1.5v1q0 1 -0.5 5t-2 8t-3 7t-4.5 3t-4.5 -1t-1.5 -4q0 -16 0.5 -31.5t0.5 -30.5v-6
q-1 -1 -2 -1.5t-3 -0.5t-3 1t-3 4v3v4.5v4.5v3v4.5v5.5t0.5 6t1.5 6v31q0 1 -1.5 2t-1.5 2h-1q-6 0 -8.5 -3t-3.5 -8t-1 -10.5v-10t-1.5 -7.5t-5.5 -3h-1.5t-1.5 2v4v4q0 3 0.5 9t1.5 12.5t3 12t6 6.5h3t5 0.5t5 0.5h3l0.5 0.5l0.5 0.5v1q0 8 -1 11.5t-2.5 5.5t-4 2.5
t-4.5 1t-4.5 2.5t-5.5 7q-4 9 -6 20t-2 22.5t0.5 23t0.5 20.5v12q0 2 2 2h2h3q1 0 2 -2v-7t0.5 -11t0.5 -12.5v-13t0.5 -11t0.5 -7.5t0.5 -9.5t2 -13.5t4.5 -12t7 -5q1 0 2.5 0.5t1.5 1.5v3q0 3 0.5 5.5t0.5 4.5v3q0 26 -2 51.5t-2 50.5zM160 246q0 2 1 3.5t3 1.5
q3 0 4.5 -2t3.5 -5v-9t0.5 -15t0.5 -15v-10q0 -1 -0.5 -7t-0.5 -12.5v-12.5v-8v-2q0 -2 2 -3t4 -1q1 0 5 -0.5t8 -0.5h8h6q2 -2 2.5 -3t0.5 -2q0 -2 -0.5 -3.5t-1.5 -1.5q-7 0 -13 1.5t-13 1.5h-4h-3l-1 -3v-70q0 -1 -1.5 -2t-2.5 -1v-0.5t-1 -0.5t-2 1.5t-1.5 3l-1 3
t-0.5 2.5v64q0 1 -1 2.5t-2 1.5q-8 0 -16.5 1t-17.5 3q-1 0 -1 2v0q0 2 1 3t3 1h4h2q6 0 11.5 -1.5t10.5 -1.5h3.5t2.5 1q0 15 1 29.5t1 29.5q0 10 -2 19t-2 18zM125 124q1 1 2 1h2h2.5t1.5 -1l8 -47q1 -6 4 -10t7 -6.5t9 -3t11 -0.5t10 3.5t6.5 9t3.5 12.5t1 14t-0.5 13
t-0.5 10l2 1v0h1l6 -6v-9v-12.5t-1.5 -15.5t-3.5 -14t-6 -9q-6 -2 -9.5 -2.5t-7.5 -2.5l-1.5 -1.5l-0.5 -0.5v-32l-1.5 -0.5t-2.5 -0.5q-3 0 -4.5 1.5t-2 4t-0.5 4.5v4v4t-0.5 6.5t-0.5 6.5v4q-1 2 -3 3t-4.5 1.5l-5 1t-3.5 2.5q-6 7 -9 15t-4.5 16.5t-2 17.5t-2.5 18z" />
</svg>
