<?xml version="1.0" standalone="no"?>
<!DOCTYPE svg PUBLIC "-//W3C//DTD SVG 1.1//EN" "http://www.w3.org/Graphics/SVG/1.1/DTD/svg11.dtd" >
<svg xmlns="http://www.w3.org/2000/svg" xmlns:xlink="http://www.w3.org/1999/xlink" version="1.1" viewBox="-10 0 266 256">
   <path fill="currentColor"
d="M185 249q0 1 1.5 1.5t2.5 0.5t2.5 -0.5t1.5 -1.5q1 -4 2 -7t1 -5.5v-5.5v-7q0 -29 -1.5 -59t-1.5 -59q0 -5 3 -6.5t7 -2t7 -1t3 -5.5l-0.5 -2.5t-1.5 -2.5h-18v-25q0 -4 2.5 -5t5.5 -2t5.5 -2.5t2.5 -5.5q0 -2 -1 -2.5t-2.5 -0.5h-3.5h-3q-8 0 -15 0.5t-17 1.5
q-2 0 -2 1.5v2.5q0 4 2 5t4.5 1t5 0.5t3.5 3.5q1 6 1.5 10t0.5 9t-1.5 7t-4 3t-6 1.5t-6.5 0.5v2q0 2 0.5 4.5t2.5 2.5h11l4 4q-1 6 -0.5 10.5t1 8.5t0.5 8v10q0 3 -0.5 6.5t-0.5 7.5v1v4t0.5 6.5t0.5 6v3.5v56q0 1 0.5 3.5t0.5 5.5t0.5 5.5t0.5 3.5zM75 242l1 1.5t2 1.5h1
q3 0 5 -2t2.5 -5.5l1 -7t0.5 -5.5q0 -19 -1 -38.5t-1 -38.5v-28q1 -1 1.5 -3t2.5 -2h1q0 1 1.5 2t1.5 2q4 24 4 49.5t-1 50.5q1 0 2 1.5t2 1.5v0.5v0.5q2 0 3.5 -1.5l2.5 -2.5v-3.5v-4.5v-5v-4v-4v-5v-5v-2q0 -4 -0.5 -13.5t-1 -20.5t-1 -20.5t-0.5 -12.5q-3 -4 -5.5 -6.5
l-5 -5t-4.5 -5.5t-2 -8q0 -4 0.5 -5.5t1.5 -2t2.5 -1t3.5 -2.5q4 -2 5.5 -5.5t2 -7.5t1.5 -7.5t5 -5.5h7h5.5t4.5 2q0 1 0.5 5t0.5 8t0.5 8t0.5 5v2v2q-1 1 -2 2.5l-1 1.5h-18q-2 0 -3 2.5t-1 3.5q0 2 1 3t3 1h18l1 2q1 0 1 3v5q0 7 -1 14.5t-1 14.5q0 5 1 9t1 9t-1 8.5
t-1 8.5t1 10t1 11q0 10 -2 19.5t-2 19.5q0 2 1 5t4 3t6 -2.5t4 -5.5v-11.5v-17t0.5 -20t0.5 -20t0.5 -17.5t0.5 -11v-34q1 -2 2 -3.5t2.5 -2.5t4.5 -1h5q1 -1 1.5 -2.5t0.5 -2.5t-1 -3t-3 -2h-12v-30q0 -3 2 -3t5 0.5t5 0.5t2 -2v-11q-5 0 -11 0.5t-12.5 1.5t-12.5 2.5
t-9 3.5q-1 0 -1.5 -0.5l-0.5 -0.5v-20l-0.5 -1t-1.5 -1q0 -1 -1.5 -1.5l-1.5 -0.5l-3 3l-2 2v36q0 2 -1.5 3t-3 1.5t-3 0l-1.5 -0.5v-59l-1.5 -0.5t-2.5 -1.5h-1q-7 0 -7 8q0 13 1 26t1 26q0 3 -1 4.5t-4 1.5t-5.5 -2t-2.5 -6l-3 -31q-1 -3 -2.5 -4.5t-3.5 -1.5q-3 0 -4.5 2
t-1.5 5q0 4 0.5 9.5t1 11.5t2.5 11t4 9q2 3 5 4l6 2t5 2.5t2 6.5q0 7 -2.5 10t-6.5 4.5t-7.5 4.5t-5.5 10q-3 10 -4 20t-1.5 20.5t0 21t0.5 20.5v13q0 2 1 2h2q4 0 6 -4t4 -7q0 -3 -0.5 -10t-0.5 -15q0 -9 0.5 -16t0.5 -10v-3.5t0.5 -6t0.5 -6v-3.5v-6t1 -7.5t2.5 -5.5
t5.5 -2h1l0.5 0.5t1.5 0.5q1 5 1 10.5t0.5 11t0 11t-0.5 9.5q0 16 -1 31t-1 30v4v6q0 2 0.5 5t0.5 4z" />
</svg>
