<?xml version="1.0" standalone="no"?>
<!DOCTYPE svg PUBLIC "-//W3C//DTD SVG 1.1//EN" "http://www.w3.org/Graphics/SVG/1.1/DTD/svg11.dtd" >
<svg xmlns="http://www.w3.org/2000/svg" xmlns:xlink="http://www.w3.org/1999/xlink" version="1.1" viewBox="-10 0 266 256">
   <path fill="currentColor"
d="M73 246q0 3 1.5 4t3.5 1t5 -0.5t3 -2.5v-120v-2t0.5 -2.5t1 -2.5t1.5 -1q4 0 6 6t3.5 13.5t2 15t0.5 9.5v71q0 1 2 1.5l2 0.5q1 0 2.5 -0.5t1.5 -1.5t0.5 -3.5l1 -5t1 -5.5t0.5 -4v-3q0 -21 -1 -42.5t-3 -42.5q-1 -2 -1.5 -4t-1.5 -4t-2 -3.5t-3 -2.5q-1 0 -3 -0.5
t-4.5 -1t-4.5 -1l-2 -0.5q0 -1 -0.5 -3t-0.5 -3q0 -6 2.5 -8t6 -3t7.5 -2.5t7 -6.5q2 -3 2.5 -7t0.5 -8.5v-9v-7.5v-4.5t-0.5 -5t-2 -4t-4.5 -1.5q-2 0 -3 2t-1 4v2v2t0.5 3.5t0.5 3.5v2v7.5t-1 9.5t-3.5 8.5t-7.5 3.5v-1q-1 0 -1.5 -0.5l-0.5 -0.5v-10v-11q0 -2 0.5 -8.5
t0.5 -13.5t0.5 -13t0.5 -9q-1 -10 -11 -10v73q0 1 -2.5 2l-2.5 1q0 1 -1 1v0q-3 0 -5 -1.5t-3.5 -4t-1.5 -5v-5.5v-24q-2 -4 -4.5 -5.5t-7.5 -1.5v15.5t0.5 14t3.5 13t9 11.5q9 -1 12 2.5t3 11.5q0 5 -4 7.5t-8.5 4.5t-8.5 6t-5 13q0 3 -0.5 10.5t-1 16t-1 16t-0.5 10.5v3
v6.5v6.5v6v4v6.5v6.5v4q1 0 2 0.5l1 0.5q0 1 1 1v0q4 0 6 -8.5t2.5 -21t0 -27t0.5 -27t3.5 -20.5t7.5 -8l0.5 0.5l0.5 0.5v5.5v7.5v8.5v5.5l1 3l1 3l-1 33v6l-1 42q-1 3 -1 6zM150 225q-2 4 -3.5 6.5t-3 4.5t-2.5 5t-1 7h6t6 -2q3 -3 7.5 -11t10 -18t10.5 -22t9.5 -22.5
t7 -18.5t2.5 -12q0 -5 -2.5 -9.5t-6 -8t-8 -6t-8 -4.5t-6 -4t-2.5 -3v-13q0 -1 2 -1h3q7 0 14.5 1t14.5 1q2 0 4.5 -0.5t2.5 -3.5q0 -2 -2 -5t-5 -3h-1q-1 0 -4.5 0.5t-8 0.5t-8 0.5t-4.5 0.5h-1q-2 0 -4 -1.5t-2 -3.5q0 -7 3.5 -14t8 -13.5t8 -13t3.5 -13.5q0 -2 -1 -4.5
t-4 -2.5q-2 0 -4.5 3t-5 7.5t-5 10t-4.5 10.5t-3 9t-2 5q0 1 -0.5 3.5l-1 5t-1 4.5t-0.5 3q-1 3 -5 3.5t-7 0.5q-4 0 -7 -1.5t-3 -6.5q0 -9 2 -18t2 -18q-6 0 -8.5 2.5t-3.5 7t-0.5 9t0.5 8.5v15q1 5 4.5 6.5t8 1.5t8.5 1.5t6 6.5l1 2t1.5 4.5t1.5 4.5t1 3v1.5v2.5
q0 5 -2.5 10.5t-6 11t-6.5 11t-4 10.5q0 1 -0.5 3.5t-1.5 2.5q-1 2 -2.5 6t-4 9l-4.5 9l-3 6q-1 3 -3.5 6t-2.5 6q0 4 3 4q4 0 9 -6.5t9.5 -16t9 -20.5t8.5 -21t8 -16.5t7 -6.5q7 0 11 5t4 11v2q-3 11 -7.5 21.5t-9.5 21t-10.5 21t-10.5 19.5z" />
</svg>
