<?xml version="1.0" standalone="no"?>
<!DOCTYPE svg PUBLIC "-//W3C//DTD SVG 1.1//EN" "http://www.w3.org/Graphics/SVG/1.1/DTD/svg11.dtd" >
<svg xmlns="http://www.w3.org/2000/svg" xmlns:xlink="http://www.w3.org/1999/xlink" version="1.1" viewBox="-10 0 266 256">
   <path fill="currentColor"
d="M182 169q-1 3 -2.5 9.5t-4 13.5t-5.5 13l-5 10q-2 3 -5.5 7.5t-6.5 9.5t-5.5 10t-2.5 10q6 0 11 -4t8 -10q4 -8 8.5 -16.5t8.5 -18t6.5 -19t2.5 -19.5t-3 -16t-8 -8.5t-10 -3.5t-9.5 -1.5t-8 -2.5t-3.5 -7t2 -8t5 -5t6.5 -3.5t6.5 -3t5 -3.5t2 -4q0 -1 -0.5 -2.5
t-1.5 -1.5q-5 0 -11 2.5t-10.5 6.5t-8 9.5t-3.5 10.5q0 7 3 11.5t9 9.5v2v2q0 3 -2.5 9t-5.5 13t-6.5 13.5t-5.5 9.5q0 1 -1.5 4t-3.5 6.5t-3 6.5t-2 4q-1 3 -4.5 6t-3.5 7q0 2 0.5 3.5t2.5 0.5q5 -1 6.5 -3t3.5 -6l3.5 -7l5.5 -11t5.5 -11.5t3.5 -7.5q1 -3 4 -9.5t6 -14
t6 -13t5 -5.5q3 0 6 3t5.5 6.5t3.5 7.5t1 8zM74 199q0 12 -0.5 23.5t-0.5 24.5q8 0 10 -9v-18q0 -26 -1.5 -51t-1.5 -51l2 -0.5t2 0.5q3 1 5 5.5t3.5 10t2.5 12t2 12.5t1.5 10t1.5 4v36l1.5 1.5t2.5 1.5q2 1 3 0t1.5 -3t0.5 -3.5v-2.5v-4q0 -3 -1 -11t-2 -17l-2 -18t-1 -12
q-1 -6 -2 -11t-3.5 -9.5t-6 -7.5t-8.5 -5v-17l0.5 -1l0.5 -1q1 0 2.5 -0.5l3 -1l3 -1l1.5 -0.5q5 -2 7 -7.5t3.5 -12t1.5 -12.5v-11v-2.5v-3.5t-1 -3t-2 -1h-2t-2 2l-3 35q0 4 -3 7.5t-6 3.5q-2 0 -4 -1t-2 -3q0 -14 1.5 -27.5t1.5 -26.5v-7q-1 -3 -2 -3.5t-3 -0.5
q-4 0 -5 2.5t-1 6.5t0.5 8.5t0.5 8.5v2l-0.5 3t-0.5 4v0q0 6 0.5 11.5t0.5 10.5v6t-1 6h-2.5h-1.5q-4 0 -6 -3t-3 -7t-1.5 -8.5t-0.5 -7.5v-4v-6v-6v-4q-1 -3 -2.5 -4.5t-3.5 -1.5t-2.5 0.5l-1.5 1.5v5.5v5.5v9t1 14.5t3 14t5 6.5l16 3v19l-1.5 1.5t-1.5 2.5q-10 7 -14 15
t-6 21q0 2 -0.5 6t-1.5 8t-1 7.5v3.5v3t-0.5 6.5t-0.5 7.5v6v5q0 3 0.5 6.5t0.5 7.5v4t1 2l2 2q3 1 4.5 -6t2 -18t1 -24t1.5 -24.5t4 -19t9 -7.5q0 19 1 38t1 38zM172 68q1 4 4 12t7.5 16t9 14t8.5 6q3 0 6 -1t3 -5q0 -2 -1.5 -3.5t-3 -2.5l-3 -2t-3.5 -2l-5.5 -5.5t-4 -5.5
t-3 -7t-3.5 -9t-1.5 -11t0.5 -11q0 -7 0.5 -13.5t0.5 -13.5q0 -6 -6 -6h-1h-1q-3 9 -3 16.5v16.5v17zM115 103q0 3 3 3h4q5 0 8.5 -4.5t6 -11t4.5 -15t3 -16.5t1 -15v-10v-2v-3v-3.5v-2.5l-1 -1l-2 -2h-1v0q-1 1 -2.5 2l-1.5 1v21t-2 22t-6.5 20.5t-13.5 15.5v1z" />
</svg>
