<?xml version="1.0" standalone="no"?>
<!DOCTYPE svg PUBLIC "-//W3C//DTD SVG 1.1//EN" "http://www.w3.org/Graphics/SVG/1.1/DTD/svg11.dtd" >
<svg xmlns="http://www.w3.org/2000/svg" xmlns:xlink="http://www.w3.org/1999/xlink" version="1.1" viewBox="-10 0 266 256">
   <path fill="currentColor"
d="M134 244q0 3 1 5t5 2t5.5 -3.5t1.5 -7.5q0 -6 -2 -11.5t-2 -12.5v-80q3 -10 3.5 -21.5t3.5 -22.5q1 -4 5.5 -5.5t10.5 -2.5t12.5 -2t12 -3.5t9 -7t3.5 -13.5q0 -14 -5 -19t-19 -5h-10q-7 0 -15 0.5t-14 2t-6 5.5v2t1 1h6q10 0 19.5 -1t19.5 -1q3 0 6.5 0.5t5.5 2.5v6
q0 11 -4.5 15t-10.5 5.5t-13.5 2t-13.5 4.5t-8.5 10t-4.5 11q-2 15 -2.5 26.5l-1 23t-0.5 23.5v25v10q0 6 0.5 13.5t0.5 13.5v9zM81 239q0 4 4 4q2 0 3.5 -1.5t2 -3.5t1 -4.5t0.5 -4.5v-106q0 -1 2 -3.5t3 -2.5t2.5 0.5t2.5 0.5q2 7 3 14.5t1.5 15t0 15t-0.5 14.5t-0.5 13.5
t-0.5 12.5v9q0 1 1 1h2q4 0 6 -3.5t2 -8.5v-10v-8v-9v-13t-0.5 -15t-1.5 -15t-3.5 -12.5t-5.5 -8.5q-2 -1 -3.5 -1.5t-3.5 -1t-3.5 -1t-2.5 -2.5v-3.5t0.5 -5.5t0.5 -5.5t1 -3.5q0 -2 2.5 -3t6 -3t7 -3.5t4.5 -3.5q2 -9 3.5 -19.5t1.5 -19.5q0 -4 -1 -7t-5 -3h-3.5t-1.5 3
v28q-1 3 -1.5 6t-1.5 5t-2.5 3.5t-5.5 1.5h-2h-1l-2 -3q0 -3 0.5 -9.5t1 -14t1 -13.5t0.5 -9v-2q0 -2 -0.5 -4l-1 -4t-2 -3.5t-3.5 -1.5h-1q-1 1 -2 1.5l-1 0.5v61q-2 0 -4 0.5t-4 0.5t-3.5 -0.5t-3.5 -2.5q-2 -9 -4 -19.5t-2 -19.5h-3h-3.5t-1.5 3v1v1q0 2 0.5 7t1 10.5
t1 10.5t0.5 7q1 5 3.5 7.5t6 3.5t7.5 1.5t7 1.5l2 1v21q0 1 -2 2t-3 2q-5 2 -9.5 3.5t-8 7.5t-5 16.5t-2.5 21.5t-1 22v17v21q1 1 2 1.5t2 0.5q2 0 3 -1.5t3 -3.5q0 -4 0.5 -12.5t1 -18.5t1 -19t0.5 -13v-7t0.5 -10.5t2.5 -10.5t5 -6q1 0 4 0.5t4 0.5v110q0 1 -0.5 4.5
t-0.5 4.5v1zM176 238l1 1l2 2h1q2 0 3 -1.5t1.5 -3.5t0.5 -4v-3q0 -9 -2.5 -17.5t-3.5 -16.5q0 -1 -0.5 -4.5t-1 -7.5t-1 -7.5t-0.5 -4.5t-1 -3.5t-1 -3.5v-34q0 -5 4.5 -7.5t9.5 -3.5t9 -3t4 -6q0 -3 -1.5 -4.5t-3.5 -1.5q-4 0 -9.5 2t-11 5t-9 7.5t-3.5 9.5l1 28v5
q0 1 0.5 7.5t1.5 15.5t2.5 18t2.5 14q0 1 1 3l1 2q0 1 0.5 3.5l1 5l1 5t0.5 3.5z" />
</svg>
