<?xml version="1.0" standalone="no"?>
<!DOCTYPE svg PUBLIC "-//W3C//DTD SVG 1.1//EN" "http://www.w3.org/Graphics/SVG/1.1/DTD/svg11.dtd" >
<svg xmlns="http://www.w3.org/2000/svg" xmlns:xlink="http://www.w3.org/1999/xlink" version="1.1" viewBox="-10 0 266 256">
   <path fill="currentColor"
d="M117 248q0 2 1.5 2.5t4.5 0.5t7 -3.5t8 -9.5t7.5 -13t6 -13.5t5 -12.5t2.5 -9q1 -1 1.5 -3.5l1 -5t1.5 -5t3 -3.5q1 0 3 6t4.5 15t5.5 19t6 18.5t7 14t7 5.5t5.5 -1.5t2.5 -4.5t-1.5 -6.5t-3.5 -7t-4.5 -6.5t-3.5 -6q-5 -13 -9.5 -26t-7.5 -27q-1 -4 -1 -8.5t-2 -8.5
q0 -2 -0.5 -8.5t-1 -13.5t-1 -13.5t-0.5 -8.5q-1 -1 -1 -2v-1q0 -2 1 -3.5t3 -1.5q9 0 16.5 5.5t13.5 13.5h1h1h2t2 -2l0.5 -2.5t0.5 -3.5q0 -6 -5.5 -9.5t-13 -6.5t-14 -5.5t-9.5 -7.5v-13v-5.5v-6.5t0.5 -6t2.5 -6q1 0 3 -1t5 -2t5 -2t3 -1q1 -1 3 -1.5l4 -1t3 -2t1 -4.5
t-2 -3.5t-4 -0.5t-7.5 2l-11 4t-10.5 4.5t-6 4.5q-1 1 -1.5 2t-0.5 2v2v3q0 6 1 11.5t1 11.5v6v5q-2 2 -5.5 5t-7.5 5.5t-8 4.5t-6 4l-2 1.5t-4.5 3t-4.5 3.5l-3 3q-1 0 -1.5 0.5l-0.5 0.5q0 3 1.5 3.5t3.5 0.5q4 0 8.5 -2.5t9 -6t8.5 -7t7 -5.5h1.5h0.5q3 0 4.5 2.5t2 6.5
t0 7.5t-0.5 5.5q0 22 -3.5 44.5t-12.5 42.5q-1 4 -6 11t-10 13.5t-8.5 12t-3.5 7.5zM76 230v8t1 8h1.5h0.5q2 0 3.5 -2t2.5 -5t1.5 -5.5t0.5 -3.5v-105l0.5 -1t1.5 -1q2 0 4.5 2t3.5 5q2 17 4 33t3 34v9q0 4 -1 8.5t-1 8.5q0 2 1.5 3t4.5 1q2 0 3.5 -1.5t2 -4l1 -5t0.5 -3.5
q0 -9 -0.5 -18.5t-2 -19t-2.5 -18.5t-2 -17q-1 -2 -1.5 -5l-0.5 -3q-2 -7 -5.5 -10.5t-7 -6t-6 -5t-2.5 -5.5q0 -5 1.5 -7t3.5 -3t5 -2t6 -3q5 -3 8 -9t4 -13t1.5 -14t0.5 -12v-6q0 -1 -1.5 -1.5t-2.5 -0.5q-2 0 -3.5 2t-3.5 5q0 1 -0.5 4.5t-1 7.5t-1 7t-0.5 5t-0.5 5.5
t-1.5 6.5t-3 5t-5 2h-2.5h-1.5q-1 -2 -1.5 -3.5t-0.5 -3.5q0 -13 1 -26t1 -26v-5v-5q-1 -2 -3 -2.5t-4 -0.5q-1 0 -2.5 0.5t-1.5 2.5v66q0 2 -2.5 2.5t-3.5 0.5q-3 0 -5 -3.5t-3 -8t-1.5 -9t-0.5 -6.5t-0.5 -5t-0.5 -7t-0.5 -7.5t-0.5 -4.5q1 -3 -1 -3h-3h-4t-1 3v9v10.5
v11.5t1 11.5t4 9.5q2 4 4.5 5.5t5 2t5 0.5t4.5 1.5t3.5 5t1.5 9.5q0 4 -2.5 6t-5.5 3.5t-6.5 3.5t-5.5 5q-3 5 -5 11.5t-2.5 13t0 13.5t-0.5 13q0 8 -1.5 16.5t-1.5 17.5v10l2 2l1 1h1q4 0 5.5 -6t2 -15.5t1 -21t1.5 -22.5t3.5 -20t7.5 -13q2 0 3 3.5t1.5 9.5t1 12.5
t0.5 11.5v11v7q0 12 -1 24t-1 24z" />
</svg>
