<?xml version="1.0" standalone="no"?>
<!DOCTYPE svg PUBLIC "-//W3C//DTD SVG 1.1//EN" "http://www.w3.org/Graphics/SVG/1.1/DTD/svg11.dtd" >
<svg xmlns="http://www.w3.org/2000/svg" xmlns:xlink="http://www.w3.org/1999/xlink" version="1.1" viewBox="-10 0 266 256">
   <path fill="currentColor"
d="M161 244q0 2 0.5 3.5t2.5 1.5t4 -2.5t2 -4.5v-5v-5q0 -12 -0.5 -23t-0.5 -23q9 0 14 5.5t8.5 13t5.5 15.5t3 14h1h1h2.5t1.5 -2l0.5 -2.5t0.5 -3.5q0 -13 -6 -24.5t-18 -18.5q0 -1 -3 -1.5t-5.5 -1.5t-5 -2.5t-2.5 -2.5v-15l0.5 -0.5t1.5 -0.5q7 -2 11.5 -4.5t7.5 -5.5
t5 -8t3 -13h4h4.5t4 -1t1.5 -4t-5 -5t-11 -5t-11 -7.5t-5 -11.5v-3q9 -7 15.5 -15t6.5 -19q0 -7 -5.5 -10t-11.5 -3q-1 0 -4.5 -0.5t-8.5 -0.5q-4 0 -7.5 0.5t-5.5 0.5q-1 -1 -1 -3v-3v-1v-1l16 -16v-1v-2q0 -2 -0.5 -3t-3.5 -1h-1h-1q-5 4 -8 7t-5 7q-2 3 -3 6l-2 6
t-2.5 5.5t-4.5 3.5q-1 1 -3.5 1.5l-5 1t-4.5 2t-2 3.5t1.5 3t3.5 1t3.5 -1t3.5 -1.5t4 -1.5t5 -1q0 10 -1.5 20.5t-5.5 19.5q-2 3 -4.5 6t-4.5 6t-3.5 6t-1.5 7q5 0 9.5 -4.5t8 -10t6 -12t3.5 -9.5v-8v-9q0 -5 1 -8.5t3 -5.5q6 -3 11 -3h12q4 0 7 2t3 6q0 7 -3 11.5t-7 8
t-7 7.5t-3 10q0 9 3.5 13.5t7.5 7.5t7.5 4.5t3.5 4.5t-2.5 7t-5 7.5t-6 6.5t-4.5 5h-1.5h-1.5h-2t-2 -2v-21q0 -1 -0.5 -3.5t-1.5 -5t-2.5 -4t-3.5 -1.5l-1 0.5t-1 1.5v4v5q0 6 0.5 10.5t1.5 12.5q0 1 -1 2.5t-3 1.5q-5 0 -8 -4t-5.5 -8.5t-5 -8.5t-5.5 -4t-3 3q0 7 2.5 12
t7 8t10 5.5t11.5 4.5v3v3q0 5 -1.5 8t-4 5.5l-5.5 5.5t-5 6q-3 4 -6 10t-5 13t-3 13.5t-1 12.5q3 0 5.5 -2.5t4.5 -5.5q2 -7 2.5 -12.5t2 -11t4 -10.5t7.5 -10q1 -1 1.5 -1h1.5q3 0 4 4.5t1.5 11t0 13t-0.5 9.5v6v2t-0.5 4t-0.5 4v3zM76 176v0q0 2 0.5 4.5t0.5 5t0.5 4.5
l0.5 2q0 1 0.5 4.5t1.5 8.5t2.5 11t3 10.5t3 7.5t3.5 3q3 0 3.5 -1.5t0.5 -3.5q0 -4 -1.5 -10.5t-3 -13.5t-3.5 -14t-4 -10v-32q2 -2 2.5 -7.5t0.5 -11v-11.5v-8q2 -14 3.5 -26.5t1.5 -26.5q0 -6 -1 -14.5t-3.5 -17t-8 -14t-13.5 -5.5h-3.5t-1.5 2q0 4 2.5 7t5 5.5t6 5.5
t4.5 6q2 3 3.5 7t2.5 8.5t1 8.5v8v1q-3 27 -6.5 53.5t-3.5 53.5zM57 196q0 2 0.5 8t2 12t4 10.5t6.5 4.5q2 0 2.5 -1.5t0.5 -4.5q0 -4 -1 -9t-2 -9.5t-2 -9.5t-2 -9v-5.5t-0.5 -10.5t-0.5 -12v-9v-4q0 -6 1.5 -12.5t1.5 -13.5v-4q-1 0 -2 -0.5l-1 -0.5q-4 0 -5 3.5t-2 5.5
q0 1 -0.5 3t-0.5 4v3.5v2.5v4q0 3 -0.5 7.5t-0.5 9.5v8v6q0 4 0.5 8.5t0.5 8.5v6zM99 178q0 2 1 7t2.5 10t2.5 10t2 7l0.5 1.5t1.5 3.5l2 4t2 2t2 -0.5t2 -1.5v-1.5v-2.5q0 -7 -2.5 -13.5t-4.5 -12.5q-2 -10 -3 -18.5t-1 -17.5v-18t1 -20l-1.5 -1.5t-1.5 -0.5t-2 0.5t-2 1.5
q-2 8 -1.5 18.5t0.5 17.5v25zM58 97q0 4 3 4t5 -4.5t3 -10.5t1.5 -11.5t0.5 -7.5q0 -4 -1 -9.5t-3 -11t-5.5 -9t-9.5 -3.5h-4t-3 2v1q8 7 12.5 16.5t4.5 19.5q0 7 -2 12.5t-2 11.5zM109 68q0 5 -1 8.5t-2 7.5t-2 7.5t-1 7.5q6 0 8.5 -4.5t4 -10t1.5 -11.5v-10q0 -5 -0.5 -11
t-2 -11t-5.5 -8.5t-11 -3.5q0 5 3 8.5t4 7.5q3 6 3.5 12t0.5 11z" />
</svg>
