<?xml version="1.0" standalone="no"?>
<!DOCTYPE svg PUBLIC "-//W3C//DTD SVG 1.1//EN" "http://www.w3.org/Graphics/SVG/1.1/DTD/svg11.dtd" >
<svg xmlns="http://www.w3.org/2000/svg" xmlns:xlink="http://www.w3.org/1999/xlink" version="1.1" viewBox="-10 0 266 256">
   <path fill="currentColor"
d="M158 241v2q0 1 0.5 3t1.5 3.5t2 1.5q2 0 5 -2.5t4 -4.5q2 -28 2 -56v-56q0 -6 3.5 -8t8.5 -3.5t10.5 -3t8.5 -5.5q2 -11 3.5 -22.5t1.5 -22.5v-3v-3v-3v-1l-5 -10l-2 -0.5l-4 -1t-4.5 -1t-4.5 -0.5h-2h-3h-4h-2l-2 -2v-24q0 -3 -2 -4t-4 -1q-7 0 -7 7v3.5v6.5v5.5v3.5
q-2 5 -6 6t-9 1t-10.5 2t-9.5 9q0 1 -0.5 2l-0.5 1v38q2 8 5 12t6.5 6t6.5 2t6 0.5t5.5 1.5t4.5 4v14q0 26 -1.5 51.5t-1.5 51.5zM74 243q0 1 1 1h2q2 0 3.5 -1.5t3 -4t2.5 -5t1 -3.5v-95q0 -1 0.5 -3t1 -3.5t1.5 -3.5t3 -2t3.5 3t2.5 4q2 24 3 48t0 48l2.5 2.5t3.5 1.5
t3 -2l2 -4t1 -4v-4q0 -20 -1.5 -40.5t-2.5 -40.5q0 -3 -2 -8t-3 -8t-3.5 -4t-5.5 -2.5t-5 -3t-2 -6.5q0 -2 1.5 -4t3.5 -3.5t4.5 -3t3.5 -3.5q4 -3 5 -7.5t3 -8.5l4 -26q0 -2 -1 -5t-4 -3q-2 0 -3 3.5t-1.5 9t-1.5 11.5t-2 11t-3 8.5t-6 3.5h-2t-1 -1v-9q0 -13 1.5 -26
t1.5 -25q0 -3 -1.5 -6t-4.5 -3t-4 1.5t-2 3.5q0 7 -0.5 15t-0.5 16.5v16.5v16q-1 1 -3 2t-3 1q-3 0 -4.5 -3t-2 -8t-1.5 -11t-2 -11t-3 -8t-5 -3t-3.5 1t-0.5 5q0 3 0.5 8.5t1.5 11.5t2 10.5t3 5.5q2 3 6 5t7 4t5.5 4t2.5 7q0 4 -1.5 6t-4 3t-5.5 1.5t-6 2.5t-6 11.5t-5 21
t-2.5 21.5t-0.5 15v1v6.5t0.5 9.5t0.5 10v7q1 1 2.5 2t2.5 1t3 -1t2 -2q1 -12 1 -24.5v-24.5t2 -24t7 -22h0.5h0.5q3 0 4.5 3t1.5 6.5v7v4.5q0 19 -1 37.5t-1 37.5v4v6v6v4zM173 106v-3.5v-3.5q0 -7 3 -9.5t7 -3.5t7 -2t3 -4q0 -2 -1.5 -2.5t-3.5 -1t-3.5 -0.5h-2.5
q-9 0 -19 1.5t-20 2.5q-1 0 -1.5 1t-0.5 2l0.5 1l0.5 1h5t7.5 0.5t6 2.5t2.5 6q0 3 -1.5 7.5t-3.5 7.5h-2h-3q-7 0 -10 -2.5t-4.5 -7t-2 -9.5t-0.5 -10q0 -4 0.5 -9t1.5 -8.5t4 -6t10 -2.5h39q1 0 2.5 0.5t2.5 2t2 2.5l1 1v9v12t-2 13.5t-6 11.5t-12 5q-1 0 -3.5 -2t-2.5 -3
z" />
</svg>
