<?xml version="1.0" standalone="no"?>
<!DOCTYPE svg PUBLIC "-//W3C//DTD SVG 1.1//EN" "http://www.w3.org/Graphics/SVG/1.1/DTD/svg11.dtd" >
<svg xmlns="http://www.w3.org/2000/svg" xmlns:xlink="http://www.w3.org/1999/xlink" version="1.1" viewBox="-10 0 266 256">
   <path fill="currentColor"
d="M121 236q0 1 0.5 4.5t1.5 7t2 6.5t2 3q3 0 4.5 -4t1.5 -7v-25q0 -17 -1 -33t-1 -33q0 -2 1 -3t3 -1q7 0 12 4t8 9.5t5 12.5t2.5 14.5t1 14t0.5 11.5l-1 2.5t-1 3.5v1v3v3v3v5v5q0 3 1.5 3.5t2.5 0.5q2 0 3 -1.5t2 -3.5t1 -4t1 -3q0 -3 -0.5 -9.5t-0.5 -13.5t-0.5 -13.5
t-0.5 -8.5q0 -5 -1 -10l-2 -10t-3.5 -9.5t-6 -7.5t-6.5 -3.5t-7 -2.5l-1.5 -1.5t-2.5 -1.5h-2h-2h-3h-1q-1 0 -1.5 -0.5l-0.5 -0.5v-10l3 -3l1.5 -0.5t3.5 -1l4 -1t4 -0.5q3 0 5.5 -0.5t5.5 -0.5t6 -0.5t5 -2.5q9 -6 11.5 -13t2.5 -17q0 -9 -5 -13.5t-12 -6.5t-15 -1.5
t-14 0.5q-3 -2 -3.5 -3t-0.5 -4q0 -6 3.5 -7.5t9 -2.5t11.5 -1.5t10 -5.5q4 -4 5 -10.5t2 -12.5l0.5 -2l0.5 -2q0 -3 -1.5 -4t-4.5 -1h-2l-3.5 14t-4 10t-7.5 6t-14 2h-4l-1 -3q1 -7 1.5 -15t0.5 -15q0 -3 -1.5 -6t-5.5 -3q-2 0 -4 2t-2 4v35q0 2 -1 2.5t-2 0.5h-12t-12 -3
q-3 -2 -4 -7t-1.5 -10.5t-1.5 -9.5t-5 -4q-2 0 -3.5 2.5t-1.5 5.5q0 5 1 10l2 10q4 5 8.5 7.5t9 3.5t10 1.5t11.5 0.5l2 3v12h-3.5h-5.5h-5h-4q-5 0 -8.5 1.5t-8.5 1.5q-3 2 -5.5 4.5t-4 5t-2.5 5.5t-1 7q0 17 8.5 23.5t22.5 7.5q1 0 3 0.5t5 0.5q2 0 4 -0.5t3 -0.5l2 3v13
q0 1 -1 2l-1 1q-1 0 -2.5 0.5t-3 0.5t-3 0.5l-1.5 0.5q-12 2 -17.5 11t-8 20t-3 23t-0.5 21v19l2 2l1 1h1v0h1l2.5 -2.5l1.5 -1.5l3 -57l1 -1l5 -16q0 -2 2.5 -4.5t6 -4.5t6.5 -3.5t4 -1.5q3 0 4 4v1.5v3t-0.5 3t-0.5 2.5l0.5 1.5t0.5 2.5v41q1 0 1.5 2.5l0.5 2.5
q0 5 -1.5 9.5t-1.5 8.5zM105 120q0 -1 -1 -2l-1 -1v-1v-1l0.5 -1t0.5 -2l1.5 -2t2.5 -3.5t2 -3.5l1 -2v-2v-4v-4v-2q0 -1 0.5 -3.5t1.5 -3.5q0 -1 0.5 -2l0.5 -1h8v35q0 1 -1 4t-2 3h-2h-2.5t-3.5 -0.5t-3.5 -0.5h-2.5zM131 120v-7v-8t0.5 -7.5t0.5 -7.5t1 -10
q0 -2 2.5 -1.5l2.5 0.5q1 0 3.5 -0.5t2.5 1.5v5.5t0.5 7.5t0.5 7.5v4.5t0.5 2.5t1 3.5t1 3.5t0.5 2.5v1q0 1 -1 1.5t-2.5 1t-3.5 0.5h-3h-3.5t-3.5 -1zM84 99q0 -6 4 -12.5t12 -6.5q1 0 2 0.5t2 2.5q0 1 0.5 4t0.5 4q0 3 -1 7t-3 8t-4.5 6.5t-5.5 2.5q-2 0 -3.5 -2
t-2.5 -4.5t-1 -5.5v-4zM151 90q0 -4 1 -7t5 -3q8 0 12 3.5t4 12.5q0 3 -0.5 6.5t-2 6t-3.5 4.5t-6 2q-3 0 -5 -3t-3 -7.5t-1.5 -8.5t-0.5 -6z" />
</svg>
