<?xml version="1.0" standalone="no"?>
<!DOCTYPE svg PUBLIC "-//W3C//DTD SVG 1.1//EN" "http://www.w3.org/Graphics/SVG/1.1/DTD/svg11.dtd" >
<svg xmlns="http://www.w3.org/2000/svg" xmlns:xlink="http://www.w3.org/1999/xlink" version="1.1" viewBox="-10 0 266 256">
   <path fill="currentColor"
d="M122 248l1 2h1q4 0 7 -3.5t3 -8.5v-43q0 -1 -0.5 -3l-1 -4l-1 -4t-0.5 -3q0 -6 2.5 -7t6.5 -1h4t3 1q4 7 6.5 13.5t4 14t2.5 14.5t3 14q1 5 5 5q3 0 4.5 -1t2 -3l1 -4t0.5 -4q0 -6 -1.5 -12.5t-4 -13l-5 -13t-6.5 -11.5q-2 -4 -6.5 -6t-9 -3.5t-7.5 -3t-3 -6.5t2.5 -7.5
t6.5 -3.5t8.5 -2t8.5 -4.5t6.5 -10.5t2.5 -20v-2q0 -3 -1 -3q0 -2 -2.5 -3t-3.5 -1q-3 1 -4 4t-1 7t-0.5 8.5t-2 8t-5 6t-9.5 2.5h-5l-0.5 -1l-0.5 -1v-29q0 -3 -2.5 -4t-4.5 -1q-1 0 -3.5 0.5t-2.5 1.5v32q0 3 -2 3h-3q-8 0 -12.5 -2.5t-7 -7.5t-4 -11t-3.5 -12l-1 -0.5
t-2 -0.5q-6 0 -6 7q0 5 1 10.5t3.5 10.5t6.5 9t10 5l2.5 0.5t5.5 0.5t5.5 0.5t3.5 0.5q4 0 4.5 3.5t0.5 6.5v6q-2 2 -4 3t-4.5 1h-5t-4.5 1q-8 1 -13 9.5t-8 19t-4.5 20.5t-1.5 16v7q1 1 1.5 1h2.5h1q1 0 3.5 -2.5t2.5 -3.5q0 -2 1 -5.5t1.5 -8t1.5 -8.5t1 -5
q1 -5 2.5 -10.5t3.5 -10.5t6 -8.5t9 -3.5q1 0 2.5 0.5t2.5 0.5l0.5 2t0.5 3q2 17 2 35v35zM98 89q-1 4 0 5.5t4 1.5q6 0 6 -7v-65q0 -4 -3.5 -6t-7.5 -2.5t-8 0t-6 0.5h-14.5t-14.5 1q-1 1 -2.5 3l-1.5 2q0 2 1 3t3 1.5t4.5 0.5t4.5 1t3.5 3t1.5 5v53q0 1 0.5 1.5l0.5 0.5h2
h3q4 0 5.5 -2.5t1.5 -5.5q0 -10 -1 -19.5t-1 -19.5v-7q0 -4 1 -6t3.5 -4t6.5 -2t6 4l0.5 2t0.5 4t0.5 4l0.5 2v48zM120 85q0 1 0.5 2t2.5 1h12q16 0 31.5 -1.5t31.5 -1.5q2 -2 3 -4t1 -5q0 -2 -2 -2h-4q-4 0 -8.5 0.5t-9.5 0.5h-3.5t-3.5 -0.5t-3 -1.5t-1 -4q0 -2 0.5 -4.5
l1 -5t2.5 -3.5t5 -2h5t8.5 -0.5t8 -0.5h4.5q2 -1 3 -3t1 -3q0 -3 -2 -4.5t-4 -1.5q-8 0 -16 1.5t-16 1.5v-4t0.5 -6.5t2 -6.5t3.5 -3h24l1 -2q1 0 1.5 -1.5l0.5 -1.5v-1v-1q-1 0 -2 -1.5l-1 -1.5h-2.5h-4.5h-3.5h-2.5l-2 -0.5t-3 -0.5v0h-1q-1 0 -3 0.5l-2 0.5h-3
q-12 1 -24 1t-24 2l-2.5 2.5t-0.5 2.5q0 3 2 5h4q5 0 11 -1t11 -1h5q2 2 2 6v5v5v3q0 1 -0.5 1.5t-1.5 0.5h-1h-3h-3h-2q-2 0 -5.5 0.5t-8 1t-8 1t-5.5 0.5q-2 1 -2 2v2q0 3 3 4.5t6 1.5h1q1 0 4 -0.5t7 -1t7 -1t4 -0.5h2h2h2h2q2 1 2 4v5v3t-0.5 4t-1 3.5t-2.5 2.5
q-1 0 -4.5 0.5t-8 0.5t-8 0.5t-4.5 0.5q-3 0 -5.5 1t-2.5 4z" />
</svg>
