<?xml version="1.0" standalone="no"?>
<!DOCTYPE svg PUBLIC "-//W3C//DTD SVG 1.1//EN" "http://www.w3.org/Graphics/SVG/1.1/DTD/svg11.dtd" >
<svg xmlns="http://www.w3.org/2000/svg" xmlns:xlink="http://www.w3.org/1999/xlink" version="1.1" viewBox="-10 0 266 256">
   <path fill="currentColor"
d="M75 246q0 2 0.5 3.5t2.5 1.5q4 0 6 -4t2 -9.5v-11v-7.5q0 -10 -1 -19.5t-1 -19.5v-1q0 -1 0.5 -4t1.5 -4v-63q0 -1 1 -2.5t2 -1.5q2 0 5 2.5t4 4.5q3 26 3.5 52t-0.5 52l1.5 1.5t1.5 0.5t2 -0.5t1 -1.5q1 -5 1.5 -10t0.5 -10.5v-10.5v-9q0 -9 0.5 -17.5t0 -17.5t-2 -18
t-4.5 -16q-3 -5 -5.5 -7t-5 -3.5t-4 -4t-1.5 -8.5v-4v-4q1 -1 2.5 -2t2.5 -1q6 -2 9.5 -4t5.5 -5.5t2.5 -8.5t1.5 -13q-1 -1 -2 -3t-2 -2q-3 0 -4.5 2t-1.5 4.5t-0.5 6t-1 6.5t-2 5t-4.5 2q-6 0 -6 -7q0 -9 1 -18t1 -18q0 -4 -1.5 -4.5t-4.5 -0.5h-2t-2 2q0 10 -1 21.5
t0 22.5q-1 2 -2 3t-3 1q-4 0 -6 -2.5t-2.5 -5.5t0 -7t0 -7t-2 -5.5t-4.5 -2.5q-1 0 -2 0.5t-1 1.5v26q0 1 1 4.5t3 3.5l17 3q1 1 1.5 2t0.5 2.5v3v1.5q0 8 -3 12t-6.5 7t-7.5 6.5t-6 11.5q-3 9 -4 18t-2 18.5t-1 18.5v18v5v7v8v5q1 0 1.5 0.5l0.5 0.5h1q3 0 4.5 -2t2.5 -4
v-10t0.5 -14.5t0.5 -14v-9.5v-3v-5v-5v-2q1 -3 1.5 -10t2.5 -14t4.5 -12.5t5.5 -5.5q1 0 2 0.5t1 1.5v123v2.5t-0.5 3.5t-0.5 3.5v2.5v2zM107 247q0 3 1 3.5t3 0.5q3 0 8 -7.5t10.5 -17.5t10 -19.5t6.5 -13.5q2 -5 3 -9.5t3 -9.5l1.5 -1.5t1.5 -0.5h2q2 4 5 10.5t6.5 14.5
t6.5 16.5t6 16t5.5 13t4.5 6.5h1h1h1.5t1.5 -2v-12q-8 -17 -16 -34.5t-15 -34.5q-3 -6 -3 -13v-13q0 -3 2 -6t4 -3t5 0.5t6.5 1t6 1.5t3.5 3v6q0 6 -1.5 10t-1.5 8q0 2 0.5 3.5t2.5 1.5q4 0 6 -3t3 -6.5t1 -7.5v-7q0 -2 -0.5 -4.5l-1 -5t-2 -4t-4.5 -2.5l-28 -3l-1 -2
q-1 0 -1 -2v-3q0 -6 2.5 -9t6.5 -4t9 -1h9q5 -1 6.5 -5t1.5 -9q0 -2 -0.5 -5.5t-1 -6t-2.5 -4.5t-5 -2h-22q-1 0 -1.5 -1.5l-0.5 -1.5v-3v-3v-8t2 -8v0q6 0 11 2t9 5t8 7t9 6h1h1l1 -0.5t2 -1.5v-2v-2q0 -3 -0.5 -5.5t-4.5 -3.5q-1 -1 -4 -2t-6 -2.5t-6 -2.5t-4 -2
q-1 0 -3.5 -0.5t-5 -1.5l-5 -2t-3.5 -3v-4.5v-7t-1 -6t-5 -2.5q-2 0 -3.5 2t-1.5 5v1v0q0 1 0.5 4l0.5 3v1q0 5 -6 8.5t-13.5 6.5t-14 7t-6.5 11q0 2 1.5 2h2.5q5 0 9 -3t8 -7t8 -7.5t8 -3.5v0.5v0.5q2 2 2 7v7v9q-1 4 -4.5 4.5t-6.5 0.5q-1 1 -4 1t-6.5 0.5t-7 0.5h-4.5
q-2 1 -2.5 2t-0.5 3q0 4 3 4q6 0 12 -1t12 -1h2.5h3.5q0 1 1 2l2 2t2 2.5l1 1.5q0 2 -2 4.5t-3 2.5q-5 1 -11 1t-11 2t-8.5 6t-3.5 11t2 10t5 4t7 0.5t7.5 -1t7 0t5.5 2.5v6q0 7 -1.5 13.5t-3.5 12.5t-4.5 12t-4.5 12q-1 3 -5 10.5t-9 16t-9.5 16t-5.5 10.5l-1.5 3t-0.5 2z
M193 166q-2 0 -2 2q0 1 2 1q1 0 1 -1q0 -2 -1 -2zM126 117q0 -5 3 -7t7 -3t8.5 -1.5t7.5 -0.5v18h-23q-1 0 -2 -2.5l-1 -2.5v-1zM179 78q3 0 5.5 2.5t2.5 5.5t-1 5.5t-4 2.5h-17v-14h2t5 -0.5t5 -1.5h2z" />
</svg>
