<?xml version="1.0" standalone="no"?>
<!DOCTYPE svg PUBLIC "-//W3C//DTD SVG 1.1//EN" "http://www.w3.org/Graphics/SVG/1.1/DTD/svg11.dtd" >
<svg xmlns="http://www.w3.org/2000/svg" xmlns:xlink="http://www.w3.org/1999/xlink" version="1.1" viewBox="-10 0 266 256">
   <path fill="currentColor"
d="M73 247q0 2 1 3t3 1t3.5 -1t3.5 -4v-23q0 -25 -1 -49t-1 -49q-1 -3 -1.5 -4t-0.5 -3q0 -3 1.5 -5t4.5 -2q4 0 6 4.5t4 10.5t2.5 14t1 15.5t1 14t0.5 10.5v10v16v15v10q0 1 0.5 1.5l0.5 0.5h1q3 0 4.5 -3t2 -6.5t0.5 -7.5v-6q0 -23 -2 -47.5t-6 -47.5q-2 -6 -7.5 -8
t-10.5 -3q0 -2 -0.5 -4t-0.5 -5t-0.5 -5.5t-0.5 -3.5v-3q0 -3 3.5 -4t7.5 -1.5t8 -2t6 -6.5q1 -3 2 -7t1 -8.5v-8.5v-8v-2v-3v-3.5v-2.5t-0.5 -2l-0.5 -1q-2 0 -4 1t-3 2q0 8 0.5 16t-1 14t-5.5 9.5t-12 3.5v-54q0 -2 -3 -2h-2h-3t-2 3v10q0 8 1 15t1 15v3.5t-1 4.5l-2 4
t-2 2q-4 0 -6 -3.5t-2.5 -9t-0.5 -11.5q0 -7 -1 -12.5t-2.5 -9t-4.5 -3.5t-3.5 2t-0.5 4v11t0.5 12t2 11t3.5 8t4.5 4.5l5 3t4.5 2.5t3 4v4v4q0 7 -1 10t-3 5t-4.5 3t-5 2.5t-4.5 4.5t-4 9q-5 21 -5.5 43.5t-0.5 44.5v5v7v8v5q1 1 2 1.5t2 0.5q5 0 5 -6q1 -12 1.5 -25
t1 -25.5t1.5 -25.5t3 -25q0 -2 0.5 -5t1 -5.5t2.5 -4.5t4 -2t3 0.5t1 3.5q-1 23 0 46t1 47v25q-1 3 -1 4.5v4.5zM118 236q1 0 3.5 0.5t6 0.5t6 0.5t4.5 0.5h3q16 0 33 -1t33 -4q3 -2 3 -5t-2 -3h-4q-21 0 -44.5 1.5t-43.5 1.5l-0.5 0.5l-1.5 1.5v0q0 2 1 3.5t3 2.5zM119 153
v18t1.5 18.5t6 15t14.5 8.5q1 0 4 0.5t6 0.5h6h5h5h7q3 0 5.5 -0.5t3.5 -0.5t4 0.5t6 -0.5t5.5 -2.5t2.5 -4.5t-1 -3.5t-3 -0.5q-12 0 -24 1.5t-24 1.5h-10q-4 -3 -7.5 -8.5t-3.5 -12.5v-51q1 -1 1.5 -5t0.5 -5q1 -8 1 -16t1.5 -14t5.5 -10t14 -4h35q1 0 2 2.5l1 2.5
q0 3 0.5 10.5t0.5 15.5t0.5 15.5t0.5 10.5q0 1 -0.5 4t-0.5 7t-0.5 7.5t-0.5 5.5q-1 7 -2.5 11t-4.5 6t-7 2.5t-11 0.5h-4h-3l-5 -5v-4t-0.5 -9t-0.5 -10.5v-9.5v-5.5t0.5 -9.5t0.5 -9v-6q4 -5 9 -5q4 0 6 1t2 6v51q0 1 1.5 1.5t2.5 0.5q2 0 3.5 -1.5t1.5 -3.5v-50
q0 -2 -0.5 -4t-1.5 -4t-2.5 -3.5t-2.5 -1.5h-19q-1 2 -2.5 3t-3 2.5t-2 3l-1.5 4.5v28q0 5 -1 13t-0.5 16t4 13.5t11.5 5.5h4q2 0 5 -0.5t7 -1t7 -0.5h5q5 -2 10 -7t5 -12v-75l-1 -14q-1 -2 -2 -3t-3 -2t-3.5 -1.5t-2.5 -0.5h-5h-5.5h-6.5h-4h-6h-6.5h-5.5h-3q-5 1 -10 1.5
t-9 5.5q-3 8 -5 17.5t-2.5 19.5t-1 19.5t-0.5 18.5zM120 46l0.5 0.5l0.5 0.5l1 0.5t2 1.5h14q17 0 34 -1.5t34 -0.5q2 -1 2.5 -2t0.5 -3q0 -3 -3 -3h-2q-3 0 -9 0.5t-14 1t-17 1t-17 1t-14 1t-9 0.5q-1 0 -2 0.5l-1 0.5l-0.5 0.5z" />
</svg>
