<?xml version="1.0" standalone="no"?>
<!DOCTYPE svg PUBLIC "-//W3C//DTD SVG 1.1//EN" "http://www.w3.org/Graphics/SVG/1.1/DTD/svg11.dtd" >
<svg xmlns="http://www.w3.org/2000/svg" xmlns:xlink="http://www.w3.org/1999/xlink" version="1.1" viewBox="-10 0 266 256">
   <path fill="currentColor"
d="M74 245v1q1 2 2.5 3.5t3.5 1.5q1 0 3 -1t3 -3v-11q0 -24 -2 -47.5t-2 -46.5v-20q1 -3 2.5 -3.5t3.5 -0.5q3 0 4.5 3t2.5 7t1 8t1 6q0 3 0.5 12.5t1.5 20.5t1.5 21.5t0.5 15.5v3v2v1t-0.5 2.5t-0.5 2.5v1q0 3 0.5 4t2.5 1q3 0 5 -3t2.5 -6.5t0.5 -7.5v-7v-8
q-1 -2 -1.5 -8.5t-1.5 -14.5t-1.5 -15t-0.5 -9q-1 -3 -1 -7.5t-0.5 -10t-2 -10l-2.5 -7.5q-2 -2 -5 -3.5t-6 -2.5t-5 -2t-2 -3q0 -10 3 -13.5t7 -4.5l8 -2t6 -6q3 -9 3 -19v-20q0 -2 -0.5 -4t-3.5 -2h-1l-1 0.5t-2 1.5v10t-0.5 14t-3 12.5t-7.5 5.5h-2h-2q-1 -1 -1.5 -3
l-0.5 -2v-2q0 -11 1 -21.5t1 -21.5v-11q-1 -2 -2.5 -3.5t-3.5 -1.5h-1q0 1 -1 1.5t-2 0.5q1 16 0.5 31.5t-2.5 30.5q1 2 0 2.5t-3 0.5q-3 0 -5 -3t-2.5 -8.5t-0.5 -11.5t-0.5 -11.5t-2 -9t-4.5 -3.5q-4 0 -4.5 2.5t-0.5 4.5v11t1 12t2.5 11.5t4.5 9.5q1 2 4 3.5t5 2l4 1
t2 1.5v19q-10 1 -15 8.5t-7.5 16.5t-3 19.5t-0.5 18.5q-1 13 -2 26.5t-1 27.5q0 4 0.5 5.5t4.5 1.5t5.5 -4.5t1.5 -7.5v-46q0 -3 0.5 -11.5t2 -17t4 -16t6.5 -8.5q0 -1 1.5 0l1.5 1q2 26 2.5 51.5t0.5 51.5q0 5 -1 9.5t-1 9.5zM118 211q0 2 1 3.5t3 1.5h1q2 -1 8 -1
t12.5 -0.5t12.5 -1t8 -0.5h5q9 0 19.5 -0.5t19.5 -1.5q2 -1 2 -2.5v-2.5v-2t-2 -2h-34q-1 0 -2 -1t-2 -2.5t-1 -3v-1.5v-11v-11q1 -6 7 -7t12 -1t11 -0.5t5 -4.5q0 -1 -0.5 -2t-1.5 -2h-9q-7 0 -16 0.5t-18.5 2t-18 3t-15.5 3.5q-1 0 -1.5 0.5l-0.5 0.5v1q0 3 2 4t3 1
q6 0 11.5 -1t10.5 -1h3h2l1.5 0.5l1.5 0.5v29l-2 5h-9t-9.5 0.5t-9.5 0.5h-8q-2 1 -2 3v3zM125 130q0 2 0.5 5t1.5 6t3 5.5t4 2.5q3 0 4 -3t1 -6l-0.5 -2t-1 -4.5t-1 -4t-0.5 -2.5v-2v-2q0 -7 1.5 -13t3.5 -12.5t4 -12.5t2 -13v-5t-0.5 -6t-1.5 -5t-3 -3l-1.5 0.5t-1.5 1.5
q0 6 0.5 11t-0.5 9.5l-2 9t-3 10.5q-2 5 -3.5 9t-3 7.5t-2 8t-0.5 10.5zM156 140l4 6t6 3q2 0 2.5 -2t0.5 -4q0 -6 -2.5 -12t-2.5 -13q0 -4 1.5 -9.5t3 -10.5t2.5 -11t1 -12v-2v-5v-4v-2q-1 -3 -4 -6.5t-5 -3.5t-2 1v2q0 5 1.5 10t1.5 10q0 8 -2.5 15t-3.5 15
q-1 7 -1.5 13.5t-0.5 13.5v8zM186 112v8q0 6 1 12t4 10.5t9 4.5q1 0 3 -1.5t2 -3.5q0 -3 -1.5 -5.5t-3 -6t-3 -7.5t-1.5 -9q0 -9 2 -18t2 -18v-7.5t-1 -8.5t-3.5 -7t-6.5 -3q0 9 1 18t1 19q0 6 -2.5 11.5t-2.5 11.5zM120 38v2t2 2h8q10 0 19.5 -1l19 -2t19 -1h19.5
q1 0 2.5 -1t1.5 -3q0 -3 -2.5 -3.5t-4.5 -0.5q-20 0 -40.5 2t-40.5 1q-2 1 -2.5 2t-0.5 3z" />
</svg>
