<?xml version="1.0" standalone="no"?>
<!DOCTYPE svg PUBLIC "-//W3C//DTD SVG 1.1//EN" "http://www.w3.org/Graphics/SVG/1.1/DTD/svg11.dtd" >
<svg xmlns="http://www.w3.org/2000/svg" xmlns:xlink="http://www.w3.org/1999/xlink" version="1.1" viewBox="-10 0 266 256">
   <path fill="currentColor"
d="M157 247v3.5t3 1.5t5 -2.5t3 -5.5v-7.5t0.5 -11.5t0.5 -11.5v-7.5v-11.5v-17.5v-17v-11q1 0 4 -0.5t4 -0.5q4 1 6.5 6.5t4 12t2 12.5t1.5 9q0 1 0.5 3t1 5t1 5.5t0.5 3.5t0.5 4.5t0.5 7.5t-0.5 7.5t-0.5 4.5l1.5 1.5t1.5 0.5q4 0 6 -3.5t2 -6.5q0 -7 -1 -17.5t-3.5 -21.5
t-5.5 -21t-7 -16q-1 -2 -4 -3t-6 -1.5l-6 -1l-3 -0.5v-12l3 -4q14 0 22 -5.5t8 -19.5q0 -7 -3.5 -10.5t-8 -4.5t-10 -2t-9.5 -3v-3v-2l-0.5 -3t1.5 -3q8 -1 13.5 -3t9 -5t5 -8.5t1.5 -14.5q0 -1 -1 -2l-2 -2t-2 -1.5t-2 -0.5q-4 2 -4.5 6l-1 8t-3 7.5t-9.5 3.5
q-1 0 -2.5 -0.5t-2.5 -1.5q1 -3 1.5 -7t1 -8.5t0.5 -9v-7.5q0 -4 -1.5 -6.5t-5.5 -2.5q-2 0 -4 1t-2 3v37q0 1 -1 1t-2 0.5t-3 0.5h-1q-5 0 -7 -2.5t-2.5 -6t-0.5 -7.5v-7q0 -2 -1.5 -2h-2.5q-2 0 -4.5 1.5t-2.5 4.5t1 6.5t2 6.5l2 6l2 6q2 2 5.5 3.5t7 2t6.5 1t3 2.5
q0 3 -1.5 6t-3.5 5q-4 1 -9 2t-9.5 3t-8 5.5t-3.5 8.5q0 9 2 13.5t6 6t9.5 2t12.5 1.5q2 2 2 5v4q0 1 -0.5 3l-0.5 2q0 1 -0.5 1.5l-0.5 0.5q-1 0 -2.5 0.5t-2 1t-2 1.5t-3.5 3l-3.5 3.5l-2.5 2.5q-3 4 -6 14.5t-5 22.5t-3 22.5t-1 15.5q0 2 0.5 3.5t3.5 1.5t5 -2t3 -4v-33
q0 -3 1.5 -10t3.5 -14t5.5 -12.5t8.5 -5.5l0.5 0.5l0.5 0.5v7t0.5 10t0.5 10v7q0 16 -1 31.5t-1 30.5zM81 141q0 25 -2.5 50t-2.5 50h9l2 -3v-6t0.5 -14t0.5 -17v-15v-11q0 -2 0.5 -8.5t0.5 -14t0.5 -14t0.5 -8.5t1 -2h2q2 0 3.5 1.5t2 4t1 4.5t1.5 2q1 14 2 28.5t1 28.5v9
l-0.5 1.5t-0.5 2.5t-0.5 2t-0.5 2q0 2 1.5 3t3.5 1t4 -1t2 -3v-14v-9t-0.5 -13.5t-1 -16t-1 -15.5t-2 -13t-3.5 -10t-4.5 -5t-5 -1.5t-4 -3t-1.5 -9.5q0 -8 1.5 -11t4 -5t5.5 -3.5t6 -5.5q2 -3 3.5 -7.5t2 -9.5t0.5 -10v-9v-8q1 -3 -0.5 -3h-2.5h-2.5t-2.5 1q-1 6 -1.5 10.5
t-1 9.5t-1 9.5t-2.5 10.5q0 1 -0.5 2l-0.5 1q-1 1 -3.5 0t-3.5 -1v-59q0 -1 -1.5 -1h-1.5q-4 0 -4.5 2l-1.5 6q1 11 0.5 25t-2.5 27q0 1 -1 1h-2q-4 0 -5.5 -3t-2 -6.5t-1 -7.5t-0.5 -6v-18q-2 -3 -6 -3q-3 0 -4 2t-1 4q0 10 1 21t5 20q2 3 5 4.5l6 3t5.5 3t2.5 2.5v1v4
t-0.5 6.5t-1 6.5t-0.5 4q0 3 -2.5 3.5l-5 1l-5 1t-4.5 2.5q-4 3 -5.5 12t-2.5 19t-1 19v12v5q0 1 0.5 2.5t0.5 3.5t0.5 4t0.5 3l-1 2.5l-1 2.5v6v3q0 1 0.5 2.5t1 2.5t2.5 1q3 0 4.5 -2t2.5 -5v-12v-19v-19v-13q0 -2 0.5 -6t1.5 -8.5t3 -8t6 -3.5q2 0 2.5 1l1.5 3l0.5 1.5
t0.5 4.5v3v2zM138 103q0 -3 2 -5.5t4.5 -5t5.5 -4t6 -1.5h1q1 0 2 0.5l1 0.5v23q0 2 -3 3t-4 1q-8 0 -11.5 -2t-3.5 -10zM169 104q0 -4 0.5 -7.5t2.5 -6.5h4h3q6 0 10 1t4 8q0 16 -17 16q-5 0 -6 -3.5t-1 -7.5z" />
</svg>
