<?xml version="1.0" standalone="no"?>
<!DOCTYPE svg PUBLIC "-//W3C//DTD SVG 1.1//EN" "http://www.w3.org/Graphics/SVG/1.1/DTD/svg11.dtd" >
<svg xmlns="http://www.w3.org/2000/svg" xmlns:xlink="http://www.w3.org/1999/xlink" version="1.1" viewBox="-10 0 266 256">
   <path fill="currentColor"
d="M194 248q0 2 2 2h3h3t2 -2v-10q0 -18 -2 -34.5t-3 -33.5v-2v-4.5v-4.5v-2q0 -1 -1 -2.5t-2.5 -2.5l-3 -2l-1.5 -1q-2 0 -4.5 -0.5t-6 -0.5t-6 -0.5t-3.5 -0.5h-3h-3t-4 -1t-2 -2v-14q0 -2 5.5 -2.5t13.5 -1.5t15.5 -3.5t10.5 -7.5q0 -1 0.5 -3.5t0.5 -5.5t0.5 -5.5
t0.5 -3.5v-1q0 -4 -3 -7t-6 -5h-8h-6h-9t-10.5 0.5t-10.5 1t-7.5 2t-2.5 4.5v2t1 1h23v20l-0.5 1l-0.5 1q-6 2 -9 3.5t-5 4t-2.5 6t-0.5 9.5v9q2 1 4.5 4t5.5 4h10.5t10 1t7.5 4t4 10q0 1 0.5 7.5t1 14t1 14t0.5 7.5v7v10v10v6zM73 238q0 3 1 3.5t4 0.5q4 0 6 -3t2 -7v-122
q1 0 3 -1l2 -1q2 1 3 6.5t2 13t2 16.5t1.5 17.5t1 14.5t0.5 7v29l1.5 1.5t1.5 0.5q4 0 5.5 -3t1.5 -5q0 -12 -1 -23.5t-2 -22.5q-2 -11 -2.5 -20t-2 -17.5t-6 -16t-13.5 -14.5v-5q0 -4 2.5 -6t5 -3t5.5 -2.5t4 -5.5q1 -5 2 -9.5t1.5 -9t1 -8.5t0.5 -9v-5l-2 -2
q0 -1 -1.5 -1.5l-1.5 -0.5q-5 2 -5.5 7.5t0.5 9.5q-1 0 -1.5 3t-0.5 7t-1 7t-5 3h-2t-2 -2v-7t-0.5 -11t-0.5 -11.5v-7.5q0 -1 -0.5 -3t-1 -4.5t-2 -4t-3.5 -1.5q-1 0 -2 0.5t-1 1.5t-0.5 5t-0.5 8.5t-0.5 8t-0.5 4.5v2v0q0 1 0.5 3.5t0.5 6t0.5 6t0.5 3.5v2q0 2 -1 2.5
t-3 0.5q-5 0 -7 -3.5t-2 -8t0.5 -10t0 -10t-2.5 -7.5t-7 -3v20t2 20q0 1 0.5 3.5t1.5 3.5q2 3 5.5 4.5t7 2.5t6.5 2.5t3 6.5q0 4 -1.5 6.5t-4 3.5t-5 2.5t-5.5 4.5l-1 1.5t-2.5 3t-2.5 3t-2 2.5q-4 14 -5.5 28t-1.5 29v1q0 1 1 3l1 2v1v1q0 1 -0.5 4t-0.5 7t-0.5 7.5
t-0.5 4.5t0.5 3.5t1 4.5t2 4t3.5 2q4 0 5.5 -4t1.5 -6v-2q0 -1 -0.5 -7t-1 -12.5t-0.5 -12v-7.5t0.5 -8t1 -13t1 -13t0.5 -9l2 -4l2 -4t2.5 -3t3.5 -1h2h1q1 1 1 4t0.5 6t0.5 5.5v3.5v3t-0.5 4.5t-1 4.5t-0.5 3l0.5 2.5l1 5t0.5 4.5v3v1v1q0 18 -1.5 39t-1.5 40zM126 122
v115q0 1 2 1.5l2 0.5q4 0 5.5 -4.5t1.5 -7.5q0 -8 -0.5 -15.5t-0.5 -15.5q0 -6 0.5 -11.5t0.5 -11.5q0 -17 -1.5 -33.5t-1.5 -32.5v-7t0.5 -13t1 -12.5t1.5 -5.5q8 -3 17 -4t17.5 -1.5l17 -1t17.5 -0.5q1 0 1 -2v-3q0 -4 -1 -4.5t-4 -0.5q-14 0 -28 2.5t-28 2.5h-7
q0 -1 -1.5 -4t-1.5 -4q0 -3 1 -5t3 -3.5t4 -2.5t3 -1l59 -7q2 0 3.5 -2t1.5 -4q0 -1 -1.5 -2t-3 -1.5t-3.5 -1t-3 -0.5q-7 0 -14.5 0.5t-15 2.5t-15.5 4t-14 4q-1 1 -4 2t-4 3q-2 2 -2.5 4.5l-1 5t-1.5 5t-2 4.5v50q-1 1 -1.5 4.5t-0.5 5.5q0 1 0.5 4t1.5 4zM175 102
q0 -6 3.5 -7.5t8.5 -1.5l2.5 0.5t3.5 0.5q1 1 2.5 3t1.5 5t-1 5.5t-3 4.5h-3.5h-2.5q-12 0 -12 -10z" />
</svg>
