<?xml version="1.0" standalone="no"?>
<!DOCTYPE svg PUBLIC "-//W3C//DTD SVG 1.1//EN" "http://www.w3.org/Graphics/SVG/1.1/DTD/svg11.dtd" >
<svg xmlns="http://www.w3.org/2000/svg" xmlns:xlink="http://www.w3.org/1999/xlink" version="1.1" viewBox="-10 0 266 256">
   <path fill="currentColor"
d="M161 220v8.5t1.5 10t4 8t7.5 3.5q4 0 5 -1t1 -4q0 -4 -2 -7.5t-3.5 -7.5t-3.5 -8t-2 -8q0 -6 3.5 -11.5t8.5 -10l10 -9t8 -9.5q5 -6 6 -15t1 -17q0 -11 -1.5 -19t-5 -14t-10 -10.5t-16.5 -8.5l-2 -1v-12q0 -15 2 -29.5t2 -29.5q0 -3 -2 -5t-5 -2q-2 0 -3 0.5t0 3.5
q-1 3 -1.5 11t-1 17t-1 17t-0.5 12v7.5v6.5t-1.5 6t-4.5 5q-6 5 -12 11.5t-8 13.5q-2 5 -2.5 9.5l-1 9l-1 9t-2.5 8.5v2v4v4v2v8q0 3 0.5 6t1 6.5t1.5 7.5h4q5 0 6 -1t1 -5q0 -7 -2 -12t-2 -12v-3v-3v-4v-2q-1 -3 1 -3.5t4 -0.5q5 0 8 3.5t5.5 8t5 7.5t5.5 3q2 0 3 -1.5
t1 -3.5q0 -6 -4.5 -10.5t-10.5 -8t-10.5 -7t-4.5 -8.5v-4t0.5 -4.5t2 -4t3.5 -1.5q4 0 9 3t10 7.5t9 9t6 7.5h1h1q2 0 2.5 -2t0.5 -4q0 -4 -5 -8.5t-11.5 -9t-11.5 -8t-5 -6.5t2 -5t5.5 -3t6.5 -1.5t5 -0.5q8 0 13 5t8 13t4 16t1 14q0 7 -4 15t-9 15t-11 13t-11 10
q-2 4 -2 10v9zM80 235q0 1 1.5 1.5t2.5 0.5q4 0 5.5 -3t1.5 -7v-1l-0.5 -2.5t-0.5 -3.5v-8v-11v-12v-7q0 -7 -0.5 -14.5t0 -15.5t0.5 -15.5t1 -14.5q1 -2 2.5 -3t4.5 -1l1 0.5l1 0.5l4 10v86q3 0 6 -1t3 -4v-86q0 -4 -1.5 -6t-4 -3t-5.5 -1.5t-5.5 -1.5t-4 -3t-1.5 -7v-2
q0 -2 0.5 -3.5l1 -3t2.5 -1.5l15 -3q1 -1 2.5 -6t2.5 -11.5t1 -13v-9.5v-4q0 -3 -0.5 -5.5t-2 -4.5t-3.5 -2q-1 0 -2 0.5t-2 1.5q-1 10 -1.5 20.5t-0.5 21.5q0 2 -1.5 4.5t-4.5 2.5q-1 0 -3 -1t-2 -3v-57l-1 -1.5t-2 -1.5h-0.5h-0.5h-0.5h-0.5q-1 0 -3 1.5l-2 1.5v59
q0 2 -1.5 2.5t-3.5 0.5q-1 0 -3 -1t-3.5 -2.5t-3 -3.5t-1.5 -3v-32q0 -2 -3 -3.5t-4 -1.5q-3 0 -4 1.5t-1 4.5v2q0 1 0.5 4t1.5 3q0 1 0.5 5l1 8l1 8t0.5 5q1 4 2.5 6.5t4.5 4t6.5 2.5t7.5 2v16q0 3 -3 3.5t-6.5 1.5t-7 3.5t-4.5 7.5q0 1 -0.5 4.5l-1 7l-1 7t-0.5 4.5
t-0.5 5l-1 8t-0.5 7.5v4.5q-1 6 -2.5 11.5t-1.5 11.5v3t0.5 4t1.5 3t3 1t3 -0.5t2 -3.5q1 -15 2.5 -31.5t3.5 -31.5q0 -3 0.5 -6.5t1.5 -6.5t3 -5.5t6 -2.5q1 0 2 0.5t1 1.5v19q0 17 -0.5 34.5t-0.5 35.5v4v7.5v7.5v5zM130 88q0 1 1 1.5t2 0.5q3 0 5.5 -2.5t4 -7t2.5 -10.5
t1 -11v-9v-7v-10q-1 -2 -2 -2.5t-3 -0.5h-2t-1 2q1 9 -0.5 19.5t-2.5 20.5q-1 3 -3 7.5t-2 8.5zM189 55q0 2 1 7.5t2.5 11.5t3.5 10.5t5 4.5t3.5 -2t0.5 -4q0 -6 -2.5 -12t-3.5 -13v-5v-8v-8v-5q0 -2 -1.5 -2h-2.5q-2 0 -3 3t-1.5 7.5t-1 8.5t-0.5 6z" />
</svg>
