<?xml version="1.0" standalone="no"?>
<!DOCTYPE svg PUBLIC "-//W3C//DTD SVG 1.1//EN" "http://www.w3.org/Graphics/SVG/1.1/DTD/svg11.dtd" >
<svg xmlns="http://www.w3.org/2000/svg" xmlns:xlink="http://www.w3.org/1999/xlink" version="1.1" viewBox="-10 0 266 256">
   <path fill="currentColor"
d="M144 246v0q0 1 1 2t2 1v0q5 0 9.5 -4.5t9 -12t9 -17t8 -18t5.5 -16t2 -11.5q0 -6 -3 -9.5t-7.5 -6.5t-9.5 -4.5t-9.5 -3.5t-7.5 -4.5t-3 -5.5q0 -4 1.5 -7t2.5 -6q1 -1 4 -2t6 -2.5t5.5 -3t3.5 -1.5q2 -2 2.5 -3t0.5 -2q0 -4 -3 -4q-7 0 -12.5 3t-9 8t-5.5 11t-2 12
q0 4 3.5 7.5l5.5 5.5v2q0 3 -3 10t-7 14.5t-7.5 14.5t-5.5 10q-1 2 -4 4.5t-5.5 5.5t-4.5 5.5t-2 5.5q0 1 2 1h2h3t3 -1q0 -1 2 -3.5t4 -4.5t3.5 -4.5t2.5 -3.5q1 -2 3.5 -6.5t5.5 -10.5t6 -12.5t6 -11.5t5 -8.5l2 -3.5q2 0 5 1t5 3t3.5 4t1.5 5l-2 19l-18 38q-4 4 -8 10
t-7 10v1zM73 229v1.5t0.5 3t1 2.5t1.5 1q2 0 3.5 -2.5t2.5 -5.5t1.5 -5.5l0.5 -2.5q-1 -23 -0.5 -46t1.5 -46q0 -2 1 -5.5t4 -3.5q2 0 4 2t3 5t1.5 6t0.5 4q0 2 0.5 7.5t0.5 11.5t0.5 11.5t0.5 8.5v6.5v10.5v9.5v6.5q0 3 0.5 3.5t2.5 0.5t3.5 -2t2 -5t0.5 -5v-5v-18
t-1 -22.5t-2.5 -21.5t-4.5 -16q-1 -2 -3.5 -3.5t-5 -2t-4.5 -2t-4 -3.5v-3.5v-2.5q0 -3 0.5 -6.5t2.5 -5.5q1 0 3 -1t4.5 -2t4.5 -2l2 -1l2 -2q0 -2 0.5 -7.5t1.5 -11.5t1.5 -11.5t0.5 -7.5v-4v-4q0 -1 -1 -1.5t-2 -0.5v0h-1v0q-1 0 -2 0.5t-1 1.5q-1 5 -0.5 12t-0.5 14
t-3.5 12t-9.5 5q0 -14 0.5 -28t0.5 -27q0 -4 -1 -7.5t-6 -3.5v0q0 1 -1 1.5l-1 0.5q0 1 -1.5 3.5t-1.5 3.5l0.5 1t0.5 2t0.5 2l0.5 1v5t0.5 9t0.5 10v8v5v4.5t-0.5 5t-1.5 4.5t-2 2q-4 0 -6.5 -2.5t-4 -5.5t-2 -6.5t-0.5 -6.5v-4.5v-6.5v-7v-5q0 -1 -1.5 -1h-2.5q-3 0 -5 1
t-2 4v1q1 2 1.5 7.5t1.5 11.5t1.5 11t0.5 7q1 3 4 5t7 3.5t7.5 2.5t3.5 3q0 3 -1 8t-2 9q-10 2 -15 10.5t-7.5 19t-2.5 21.5v19q0 1 -0.5 5.5t-0.5 9t-0.5 9t-0.5 5.5v3q0 3 4 3h2.5t1.5 -1q0 -2 0.5 -6.5t1 -9.5l1 -10t0.5 -6t0.5 -5.5t1 -10.5t1 -14t2 -14t3 -10.5
t3.5 -5.5q1 0 3.5 0.5l2.5 0.5v92q-1 4 -2 7.5t-1 7.5zM180 77q0 4 2.5 13t6 18.5t7.5 17t8 7.5q1 0 2.5 -1.5t1.5 -3.5q0 -3 -1 -6t-3 -5.5t-3.5 -5t-3.5 -4.5q0 -1 -2 -6t-4 -9.5t-3.5 -8.5t-2.5 -5l-2 -0.5t-3 -0.5zM116 129v0q0 1 0.5 1.5t1.5 0.5q6 -2 10.5 -7.5t8 -12
t5.5 -14t2 -13.5l-0.5 -1.5t-0.5 -2.5t-0.5 -2t-1.5 -1t-2 0.5t-2 0.5v3t-0.5 4.5t-1 4.5t-0.5 3q-1 3 -4.5 8.5t-6.5 11t-5.5 10t-2.5 6.5zM156 95v4.5t3 2.5q2 0 3.5 -1t2 -3t0.5 -4v-3t0.5 -3t0.5 -5t0.5 -5t0.5 -3q3 -2 7 -2q3 0 7 -1q5 -2 9 -5t6 -8t2.5 -10.5
t0.5 -11.5v-5q0 -2 -1.5 -2h-2.5q-3 0 -4 5t-1.5 11t-2 11t-5.5 5h-12l-2 -1v-3.5v-3.5q0 -7 1 -13.5t1 -13.5v-6l-2.5 -2.5t-2.5 -1.5t-2.5 1.5t-1.5 2.5v2v4v4v2q0 3 -0.5 7.5t-1 8.5t-0.5 7v3l-1 3h-2.5h-2.5q-6 0 -8.5 -2t-4 -5.5t-2 -8t-1.5 -10.5l-1 -1t-1 -2h-1v0
h-0.5h-0.5q-1 1 -2 1.5l-1 0.5v1q0 3 0.5 8t2 10t3.5 9.5t6 6.5q1 1 3.5 1t5 0.5t4.5 1t3 2.5v5q0 5 -1 8t-1 7z" />
</svg>
