<?xml version="1.0" standalone="no"?>
<!DOCTYPE svg PUBLIC "-//W3C//DTD SVG 1.1//EN" "http://www.w3.org/Graphics/SVG/1.1/DTD/svg11.dtd" >
<svg xmlns="http://www.w3.org/2000/svg" xmlns:xlink="http://www.w3.org/1999/xlink" version="1.1" viewBox="-10 0 266 256">
   <path fill="currentColor"
d="M185 247q0 2 0.5 3t2.5 1q3 0 5 -4t3 -7q3 -26 7.5 -52t4.5 -53v-2q0 -2 -0.5 -4t-0.5 -3v-1q0 -2 -0.5 -6t-1 -8.5t-0.5 -8.5t-1 -6q-2 -5 -5 -8t-9 -3h-48q-5 0 -9.5 -3t-4.5 -8t4 -7t7 -3q2 0 4.5 -0.5l5 -1l5 -1t3.5 -0.5q2 0 7 -0.5t11.5 -1t12 -1t7.5 -0.5
q3 -2 4.5 -6.5t1.5 -8.5q0 -9 -5 -12t-12 -4h-6.5t-10 -0.5t-10 -0.5h-5.5l-2 -0.5t-4 -0.5h-4h-3h-2h-4t-4 0.5t-3 0.5t-2.5 1t-1.5 3t1.5 3t2.5 1h9h13h13h8h7t7.5 0.5t6 2.5t2.5 6q0 2 -0.5 4t-3.5 2l-41 3q-2 1 -6 2t-8 2.5t-7 3.5t-3 6v17q0 1 1.5 2t3.5 2.5t3.5 3.5
t1.5 5q0 8 -2 12t-8 8l-3 3t-4.5 3.5t-3.5 3l-1 1.5v4h3l11 -10h0.5h0.5q3 0 3.5 3t0.5 5q0 8 -1.5 16.5t-2.5 16.5q0 1 -2.5 3t-5.5 4t-5.5 3t-4.5 1t-3.5 -2.5t-1.5 -3.5q0 -2 -0.5 -7.5t-1 -11.5t-0.5 -11v-7v-4q0 -2 -1 -5q-3 -3 -6 -4.5t-5.5 -3t-4.5 -3.5t-2 -6
q0 -6 2 -7.5t4.5 -2t5.5 -1t4 -4.5q2 -4 3 -10t1 -12t-0.5 -12t-0.5 -12v-3v-4t-1 -3t-3 -1q-3 0 -4 6.5t-1.5 15t-0.5 17.5t-1 14q-1 1 -2.5 1h-3.5h-2t-2 -1v-66q0 -2 -1 -3t-2.5 -2t-3 -1h-2.5q0 18 0.5 35.5t0.5 35.5l-1.5 0.5l-3 1t-3 0.5h-1.5q-3 -1 -4 -4.5t-1 -8v-8
v-6.5v-4t-0.5 -6t-0.5 -6v-4q-1 0 -2 -0.5t-2 -1.5v0h-1q-1 1 -2 1.5l-1 0.5v13q0 8 0.5 16t2.5 17q1 5 4.5 6.5t7.5 2.5t7 1.5t3 2.5v15l-0.5 0.5l-1.5 1.5q-9 5 -13.5 11t-6 14t-1.5 17t-1 20v4v8v9v8v6v9v9v6q1 1 1.5 1h2.5t3 -1.5t2 -3.5t1 -4.5v-3.5v-77q0 -2 0.5 -5.5
t2 -7.5t3.5 -6.5t4 -2.5h1l2.5 1t2.5 2v66l0.5 3l0.5 3v0.5v0.5q0 8 -0.5 15.5t-0.5 15.5v2v4v4v2q-1 3 0.5 3.5t2.5 0.5q4 0 6 -4t2 -7v-1q0 -2 -0.5 -8.5t-1 -15t-1 -18t-1 -18t-1 -15t-0.5 -8.5v-6v-7t0.5 -5.5t0.5 -5.5t1 -8q3 2 5.5 3.5t3.5 5.5q0 3 0.5 10t1.5 15.5
t1.5 18.5t1.5 19t1 16t1 10q0 4 -0.5 6t-0.5 4v4t2 4q0 1 1 1.5l1 0.5q2 0 3.5 -2t1.5 -4q0 -10 -2 -21t-2 -22q0 -3 1.5 -5.5t4 -5.5t5.5 -4.5t6 -1.5h1q1 5 1 7.5v6.5q0 7 -1 12.5t-2 11.5t-2 11.5t-1 11.5q0 2 1 2.5t2 0.5q4 0 5 -2.5t1 -7t0.5 -10t2 -10t5 -7.5t11.5 -3
q0 9 -1.5 16.5t-2.5 15.5v1v2q0 2 1 4.5t3 2.5q1 0 2 -0.5t2 -1.5v-3t0.5 -5t0.5 -5.5v-2.5q1 -2 1 -5.5t0.5 -7.5t2 -7t3.5 -3q1 0 3 1.5l4 3t3.5 3t1.5 2.5q0 6 -1.5 12t-1.5 12v5l3 3q3 -1 4.5 -5t2 -9t1 -9.5t0.5 -7.5q0 -2 0.5 -5.5t0.5 -7.5t0.5 -7.5t0.5 -4.5
q0 -2 1.5 -2h2.5h4t4 1t3.5 2.5t1.5 3.5v3q-1 7 -2 13.5t-3 13.5q-1 7 -3.5 14t-2.5 14zM156 185v-1.5t1 -1.5q3 -2 5.5 -3t5.5 -1q2 0 3.5 1t1.5 3q0 4 -0.5 9.5t-3.5 8.5q-2 -1 -4 -2.5t-4 -3.5t-3.5 -4t-1.5 -5zM130 194q0 -1 -0.5 -4.5t-0.5 -4.5v-3t0.5 -4t1 -3.5
t2.5 -1.5t4.5 1t4.5 2.5t3.5 3.5t1.5 3q0 2 -0.5 3.5t-1.5 3.5q0 1 -2 1.5t-4 1.5t-3.5 1.5t-2.5 0.5h-1h-1l-0.5 -0.5zM182 160q0 -7 0.5 -12t1.5 -13q0 -2 1 -2h2q3 0 6.5 3t5.5 6v8v7v6.5t-0.5 7t-0.5 8.5h-2q-3 0 -6 -2t-4.5 -4.5t-2.5 -6t-1 -6.5zM134 159q0 -3 2 -5
t4.5 -3t6 -1.5t5.5 -0.5q0 7 -1 12t-1 12q0 1 -0.5 1.5l-0.5 0.5h-1q-1 0 -3.5 -2t-4.5 -4.5l-4 -5t-2 -4.5zM162 153q2 0 4 0.5t4 2t3 3t1 3.5q0 3 -1.5 5t-4 3.5t-5.5 2.5t-5 2v-20q0 -2 1.5 -2h2.5zM158 136q0 -1 2.5 -2.5t5 -2.5l5 -2t3.5 -1q3 0 3 1.5v4.5v4t-0.5 6
t-1 5.5t-2.5 2.5t-4.5 -1.5t-5 -3.5t-4 -5t-1.5 -6zM140 125q1 0 2 1t1.5 2l1 2l0.5 1q2 0 2 -2v-2q0 -3 -1 -5t-2.5 -4l-3 -4t-1.5 -4v-2q0 -1 0.5 -3t0.5 -4.5t0.5 -4.5t0.5 -3q1 -2 2.5 -2h3.5q3 0 5 0.5t3 2.5v7v10.5v13.5t-1 12.5t-4 5.5l-14 4v-7v-3.5v-5t1 -4.5t3 -2
zM185 111v-4t0.5 -6.5t2 -6t3.5 -1.5q4 2 5.5 6t2.5 9t1 10v8q0 1 -0.5 3.5t-0.5 3.5q-3 -3 -6 -5t-4.5 -4t-2.5 -5t-1 -8zM160 123v-6.5t0.5 -9.5t1.5 -9t3 -5h2h3h5q2 0 4 1v6q0 6 -0.5 9.5t-2 6t-4 4.5t-6.5 5q-1 0 -2 0.5t-1 1.5h-1q-1 0 -1.5 -1t-0.5 -3z" />
</svg>
