<?xml version="1.0" standalone="no"?>
<!DOCTYPE svg PUBLIC "-//W3C//DTD SVG 1.1//EN" "http://www.w3.org/Graphics/SVG/1.1/DTD/svg11.dtd" >
<svg xmlns="http://www.w3.org/2000/svg" xmlns:xlink="http://www.w3.org/1999/xlink" version="1.1" viewBox="-10 0 266 256">
   <path fill="currentColor"
d="M74 248q0 2 2 2h3h4t3 -3q2 -31 2.5 -62t0.5 -62l1 -1l2 -2v0q2 0 4 5t3.5 12t2.5 16t2 17.5t1.5 15.5t0.5 10q0 7 -1 13t-1 12q0 3 1 3.5t4 0.5q4 0 5 -2t1 -6q0 -23 -2 -46t-7 -46q-1 -1 -1.5 -2.5t-0.5 -2.5l-3.5 -3.5t-3 -2t-3.5 -1.5l-4 -2v-5q0 -5 0.5 -7.5
t1.5 -8.5l1 -0.5t2 -0.5l1.5 -0.5l3 -1l3 -1t1.5 -1.5q3 -1 5.5 -6t4 -11.5t2.5 -13t1 -8.5q0 -3 -1 -4t-3 -1t-3.5 0.5t-1.5 2.5q-1 4 -1.5 10t-2 11.5t-4 9t-8.5 3.5q0 -15 0.5 -29.5t0.5 -28.5q0 -3 -0.5 -6t-3.5 -3t-5 4t-2 6v1q0 1 0.5 4.5t0.5 7t0.5 7l0.5 3.5v2v1
q0 7 -1 15.5t-2 15.5q-1 1 -1.5 1h-1.5q-3 0 -4.5 -3t-2 -8t-0.5 -10.5t-0.5 -10t-1.5 -8t-3 -3.5q-4 0 -5 1.5t-1 5.5q0 7 1 14.5t3 13.5q0 2 1 5t2 5.5t2 4.5l1 2h11v20q0 2 -1 2.5t-2.5 1l-3 1t-2.5 1.5q-8 7 -11.5 14.5t-4.5 16t-1.5 17.5t-3.5 19v0v1q0 1 0.5 3.5
t0.5 6t0.5 6t0.5 3.5v2v1q-1 1 -1.5 2.5t-0.5 2.5v25q0 2 1.5 2h2.5q2 0 3 -1t2 -4q1 -13 1.5 -25.5t1.5 -25t2.5 -25.5t4.5 -25q0 -3 2 -5t4 -3l3 3v63q-2 7 -1.5 13t0.5 13q-1 7 -2.5 16.5t-1.5 17.5zM157 225v23q0 2 2.5 2h3.5q2 0 4.5 -0.5t2.5 -3.5v-72l0.5 -0.5
l0.5 -0.5q1 -1 2 -1.5l1 -0.5q4 0 6.5 4.5t4.5 11t3.5 14.5t2 15.5t1 13.5t-0.5 9l3 1.5t2 0.5q4 0 6 -4t2 -7q0 -2 -0.5 -7.5t-2 -12t-3 -14.5t-3.5 -14.5t-4 -10.5t-4 -5l-16 -3q-2 -1 -2.5 -2.5t-0.5 -2.5v-3t0.5 -4t1 -3.5t1.5 -1.5q5 -3 10.5 -4.5t10 -4t7.5 -6.5
t3 -13q0 -1 -0.5 -6t-2 -10t-3.5 -8.5t-5 -3.5h-21v-12q0 -2 2.5 -3.5t5.5 -2t5.5 -1t3.5 -0.5q4 -1 6 -4.5t3.5 -7.5t2.5 -8.5t2 -7.5v-1q0 -3 -1 -4.5t-3 -1.5q-3 0 -4.5 2t-2 5t-1 6.5t-1.5 6t-3.5 4.5t-6.5 2q-3 0 -4 -1t-2 -2.5t-1 -3.5v-5q0 -7 1 -13.5t1 -13.5
q0 -3 -1.5 -5t-4.5 -2q-1 0 -3 0.5t-2 1.5v7v11v12v7v2.5t-0.5 3.5t-0.5 3.5v1.5q-1 1 -2 1h-1q-5 0 -7.5 -2.5t-4 -6t-2 -7.5t-1 -7t-1 -5.5t-2.5 -2.5t-2.5 1.5t-0.5 3.5v1v1q0 1 0.5 4t0.5 6v5v2q2 7 5.5 9t7.5 3.5t7.5 3.5t3.5 9q0 3 -2 4.5t-5.5 2t-7.5 1.5t-7.5 3.5
t-5.5 8t-2 15.5q0 2 0.5 5.5t1.5 7t2.5 6t3.5 3.5q1 0 3 0.5t5 0.5t5 0.5t3 0.5q4 1 4.5 4.5t0.5 6.5v7q-2 2 -4 3l-4 2t-3.5 2.5l-3.5 3.5q-2 3 -4.5 11t-4 16.5t-2.5 16.5t-1 12v8q0 1 1 2l2 2h1q2 0 3 -5.5t2 -13t2 -16t2.5 -16t3.5 -13t5 -5.5q1 0 1 0.5v0.5q1 0 2 1
l2 2v14v8.5v9t-1 9t-3 8.5zM142 128q0 -5 3.5 -6.5t7.5 -1.5h3h3q1 1 2 2.5t1 2.5q0 5 -1.5 9t-6.5 4t-8.5 -2t-3.5 -8zM182 119q2 0 5 0.5t3 3.5t-1.5 5t-4 4t-5 3t-4.5 1h-2t-2 -2v-11q0 -1 1.5 -2t3 -1.5t3.5 -0.5h3zM155 98q7 0 7 7q0 3 -2.5 4.5t-6 2t-7 0t-5.5 -0.5
q0 -6 4 -9.5t10 -3.5zM170 106q0 -1 1 -4t2 -4h6h3t4 0.5t3.5 2t0.5 4.5q-2 4 -6.5 5t-8.5 1q-2 0 -3.5 -1.5t-1.5 -3.5z" />
</svg>
