<?xml version="1.0" standalone="no"?>
<!DOCTYPE svg PUBLIC "-//W3C//DTD SVG 1.1//EN" "http://www.w3.org/Graphics/SVG/1.1/DTD/svg11.dtd" >
<svg xmlns="http://www.w3.org/2000/svg" xmlns:xlink="http://www.w3.org/1999/xlink" version="1.1" viewBox="-10 0 266 256">
   <path fill="currentColor"
d="M158 224v7t1.5 9t4 7.5t6.5 3.5q3 0 4 -0.5t1 -3.5t-1.5 -5.5t-3.5 -5t-3 -6t-1 -6.5q0 -5 2 -8.5t5 -6.5t5.5 -6.5t2.5 -7.5t-2 -7t-4 -5t-3.5 -4.5t-1.5 -4.5q0 -3 1.5 -4t3.5 -1.5t4 -1.5t2 -4v-21l2.5 -1.5t3.5 -1.5h1q1 0 1.5 1l1 2t0.5 2.5v1.5v29q0 16 -0.5 32.5
t-0.5 32.5q0 3 4 3q3 0 4 -1.5t1.5 -4t0.5 -5.5v-5v-8v-6.5t-0.5 -11.5t-0.5 -11.5v-6.5q-1 -15 -0.5 -31t-1.5 -31q0 -1 -0.5 -3.5t-1.5 -5t-1.5 -5t-0.5 -3.5v-4v-6v-6v-4l-2 -4q-2 -4 -6.5 -5t-8.5 -1t-8 -0.5t-7 -4.5v-3v-3v-5.5t2 -4.5q1 0 3.5 -0.5t5.5 -0.5t5.5 -0.5
t3.5 -0.5q4 0 6 -3.5t3 -7t1 -7.5v-8l0.5 -1t1 -2.5t0.5 -2.5v-1q0 -4 -1 -4.5t-3 -0.5h-3t-2 2l-5 27q0 2 -3 2.5t-4 0.5h-2l-7 -1v-9v-4v-7t0.5 -6t2.5 -3q-1 -3 -2.5 -3h-3.5h-3q-1 0 -2 1q1 8 0.5 17t-1.5 17q-1 0 -1.5 1.5l-0.5 1.5h-12l-1.5 -1.5l-2.5 -2.5t-1.5 -2.5
l-0.5 -1.5v-1v0v-2.5t0.5 -3t0.5 -3v-2.5v-3.5t-1 -4l-2 -3t-3 -1.5h-1q-1 0 -1.5 1t-0.5 2v5v5q0 7 0.5 12.5t3 9t7.5 4.5t14 0q3 1 3.5 3t0.5 4v2.5t-0.5 3t-1 2.5t-1.5 1h-31q0 2 0.5 4.5t3.5 2.5h27l2 12l-2 2l-3 1q-7 -1 -12 -1.5t-12 -0.5q-3 0 -5.5 1t-5.5 4l0.5 0.5
t1.5 0.5q1 1 4.5 1.5t4.5 0.5h5h8h7.5h5.5q1 0 2 2t1 3q0 3 -2 6t-6 3h-27q-1 0 -2 0.5l-1 0.5v1v1l1 1q1 1 2 1.5l1 0.5h29q1 0 1.5 2l1 4t0.5 4v2v3q-1 0 -3 0.5t-4.5 1.5t-4.5 1.5t-3 0.5q-1 1 -2.5 1.5t-2.5 1.5v6q0 9 2.5 15t7.5 14v5q-5 3 -7.5 6.5t-4 7l-3 7
t-2.5 9.5q-1 4 -3 9.5t-2 10.5q0 4 4 4q2 0 3.5 -2.5t3 -7t2.5 -10t2.5 -10.5t3.5 -9.5t6 -7.5v0h0.5h0.5q0 1 2 2t3 1v0h1q1 0 1.5 -1t0.5 -2l-0.5 -1t-0.5 -2.5t-0.5 -2.5l-0.5 -1q0 -3 3.5 -5t5.5 -2t4 2.5t3.5 5.5t2.5 6t1 5t-2 4.5t-4 4.5l-4.5 4.5t-3.5 4.5v2v3v3v3z
M78 239q0 3 1 4.5t3 1.5t4.5 -1t2.5 -2v-96v-3v-4t1 -3.5t3 -1.5q3 0 5 3.5t3 8t1 8.5v6q0 1 0.5 3t0.5 5t0.5 5.5t0.5 3.5v8v12v12.5v7.5l4 5l2 -1v-3v-3.5v-4.5v-4v-17t-0.5 -16l-1 -16t-1.5 -18l-2 -5q-1 -2 -3.5 -4.5t-5 -4.5t-4.5 -3l-2 -1v-12q0 -1 2.5 -2t3.5 -1
q7 -4 10.5 -10.5t4.5 -14t0.5 -16t-0.5 -14.5v-5t-3 -3t-4 4.5t-1 10.5v13t-0.5 13t-2.5 10t-7 4q-1 0 -2.5 -0.5t-1.5 -1.5v-1v-6.5v-12t0.5 -14t0.5 -14v-11.5v-7v-3q0 -3 -1 -4.5t-4 -1.5t-4 1t-1 3q0 1 -0.5 2.5t-0.5 3.5v3v3q0 14 1 27t1 27v2q0 1 -0.5 2.5t-1 2.5
t-1.5 1q-2 0 -4 -2t-3.5 -5t-2 -6t-1.5 -5v-3.5t-0.5 -5.5t-0.5 -5.5v-3.5v-19q-1 -4 -5 -4q-1 0 -2 1t-1 3v5v5v11.5v12.5t1.5 11.5t4.5 9.5q3 3 5.5 4.5t5.5 2.5t4.5 3t1.5 7q0 3 -2.5 6t-6 5.5l-7 5t-5.5 4.5q-1 2 -2 7t-1.5 12t-0.5 15.5t-0.5 16t-0.5 13.5v10v8
l1.5 1.5t1.5 0.5h2l3 -3l2 -2v-62q0 -5 3 -10.5t5 -9.5h3h2t2 2v35q0 17 -1 34t-1 34zM140 154q0 -5 1.5 -7t6.5 -2q4 0 5.5 2.5t2.5 5.5t1 7v6q0 3 -2 5.5t-5 2.5h-1q-4 -4 -6.5 -9.5t-2.5 -10.5zM159 148q0 -3 3.5 -5t6.5 -1t3.5 3t0.5 5v4t-0.5 5t-2 4t-4.5 2
q-2 0 -3 -2.5t-2 -5.5t-1.5 -5.5t-0.5 -3.5zM158 128v-4.5t3 -2.5q1 -1 3.5 -1.5t4.5 -0.5q1 0 3.5 -1.5t5 -2.5t4.5 -2.5t3 -1.5t2 2.5t1.5 5t0.5 5v2.5q0 1 -0.5 3l-0.5 2l-1 2h-1.5t-4 0.5t-4.5 0.5h-4h-6h-6q-3 -1 -3 -2.5v-3.5zM161 108v-2v-2q2 -2 3 -2h4q4 0 6.5 0.5
t6.5 1.5q-3 4 -7.5 6.5t-8.5 2.5q-3 0 -3.5 -1t-0.5 -4zM161 94v-3v-2v-2.5t0.5 -3t1.5 -2.5t3 -1h5.5t6.5 1t5.5 3t2.5 5q0 2 -0.5 3.5t-3.5 2.5h-6h-8t-7 -1z" />
</svg>
