<?xml version="1.0" standalone="no"?>
<!DOCTYPE svg PUBLIC "-//W3C//DTD SVG 1.1//EN" "http://www.w3.org/Graphics/SVG/1.1/DTD/svg11.dtd" >
<svg xmlns="http://www.w3.org/2000/svg" xmlns:xlink="http://www.w3.org/1999/xlink" version="1.1" viewBox="-10 0 266 256">
   <path fill="currentColor"
d="M77 246q0 2 0.5 2.5t2.5 0.5h3.5t2.5 -1q-1 -29 0.5 -57t1.5 -56q0 -2 1 -2h3t4 2t3 5t1.5 6t1.5 4v7.5t0.5 11.5t0.5 11v7v6.5t-0.5 10t-0.5 10v6.5v5h1.5t2.5 -0.5l2 -1t1 -2.5v-58q-2 -8 -3 -15t-1 -15q-2 -2 -4 -3.5t-3.5 -3t-3.5 -2.5t-5 -3l-0.5 -1l-0.5 -1v-19
q0 -1 2.5 -2t3.5 -2l1.5 -0.5l3 -1l3 -1l1.5 -0.5q4 -2 6 -7.5t3 -12t1.5 -12.5t0.5 -10v-12q-1 -2 -2 -2.5t-2 -0.5h-2.5t-1.5 1v34q0 7 -2.5 10.5t-8.5 3.5q-3 0 -4.5 -2.5t-1.5 -5.5v-43q0 -1 0.5 -4t1.5 -4v-1q0 -4 -4 -5t-6 -1v10v15v15v9q0 1 0.5 3t0.5 4t0.5 4.5
l0.5 2.5v1q0 3 -0.5 4.5t-3.5 1.5l-1 -0.5l-1 -0.5q-1 0 -2 -1l-2.5 -2.5l-2.5 -2.5t-1 -2q-1 0 -1.5 -1t-0.5 -2v-30q0 -3 -0.5 -5.5t-3.5 -2.5q-2 0 -3 0.5t-2 2.5v10q0 8 1 17t2 16q0 3 3 5.5t6.5 4t6.5 3t3 2.5v22q0 1 -2 2.5t-4.5 2.5t-4.5 2t-3 3q-2 2 -4 9t-3 15.5
t-2.5 19t-2 19.5t-1 16.5t-0.5 11.5q0 1 0.5 3t1.5 3h1q4 0 6 -3t2.5 -7t0 -8t-0.5 -5q0 -2 0.5 -7t0.5 -11t0.5 -11t0.5 -7q2 -3 2 -9t0.5 -12t2.5 -10.5t8 -4.5q0 3 0.5 9.5t0.5 14.5v14v9q-1 15 -2 32t-1 33zM167 223v15q0 3 0.5 5.5t2.5 4.5l1.5 0.5l1.5 0.5q1 0 2.5 -2
t2.5 -2l-2 -12t-1 -12q0 -5 0.5 -13l1 -16t2.5 -15.5t5 -12.5q3 2 4.5 6t2.5 8t2.5 6.5t3.5 2.5q3 0 3.5 -1t0.5 -4v-2v-2q-1 -1 -2.5 -4t-3 -6.5t-3 -6.5t-2.5 -4q0 -1 -0.5 -3l-0.5 -2v-1v-1l1 -1.5t2.5 -3t2.5 -3t2 -1.5l1 -1l2 -2l2 -2l1 -1v-1v-1q-2 -2 -3 -3.5
t-3 -1.5q-3 0 -4.5 1t-3.5 3l-2 -2v-3t-0.5 -6.5t-0.5 -8v-7.5v-8v-9q0 -2 0.5 -2.5t2.5 -0.5v0h1q1 0 2 0.5l2 1t1.5 1t1.5 0.5v0q2 0 3 -1.5t1 -2.5q0 -3 -1.5 -5t-3.5 -3t-4.5 -2t-4.5 -1v-4.5v-4.5q0 -9 2.5 -16t2.5 -15q0 -1 -0.5 -3t-2.5 -2t-3 3t-2 7l-2 8t-1 5
t-0.5 2.5t-0.5 3.5t-0.5 4t-0.5 3t-1 1h-2q-8 0 -12 -6v-9q0 -7 0.5 -13.5t0.5 -13.5v-9q1 -2 -0.5 -2.5t-2.5 -0.5q-6 0 -6 6v45q0 2 -3.5 2.5t-5.5 0.5q-5 0 -5 -6v-25q0 -2 -0.5 -2.5t-2.5 -0.5h-2t-1 2v3v4q0 7 1.5 14t1.5 13q0 5 -3 7t-7 3.5t-7 3t-3 4.5q0 2 1.5 2
h2.5q4 0 5.5 -1.5t4.5 -1.5h2.5t1.5 1v40q0 3 -0.5 3.5t-2.5 0.5q-4 0 -7.5 -1t-8.5 -1q0 4 3 6t6 3t6 3t3 7q0 3 -2.5 9t-6 12.5t-6 12t-2.5 8.5v2.5t2 1.5t3.5 -1.5t3 -3.5t2.5 -4t1 -3t1 -3.5l2 -5t2 -4.5t1 -3h1h1l1 0.5t1 1.5v2t0.5 4.5t0.5 4.5v3v0v1q0 1 -0.5 5.5
t-1 9.5t-1 9.5t-0.5 5.5v1q0 1 -0.5 3t-0.5 4.5t-0.5 4.5l-0.5 2q0 4 -1.5 7.5t-1.5 7.5q0 2 0.5 3t2.5 1q3 0 4 -2t2 -4.5t1.5 -5.5t0.5 -4q0 -2 0.5 -7.5l1 -11t1 -10t0.5 -5.5v-14q0 -12 -2 -21t-4 -21v0q0 -9 1.5 -16.5t1.5 -15.5q0 -6 -0.5 -11t-0.5 -11v-6q5 -8 15 -8
q3 0 6.5 0.5t6.5 2t5 3.5t2 6t-0.5 8.5t-0.5 9.5q0 11 1.5 22t1.5 23v3l-1 2t-2 4.5t-2 4.5t-1 3q-4 13 -6 29.5t-2 30.5z" />
</svg>
