<?xml version="1.0" standalone="no"?>
<!DOCTYPE svg PUBLIC "-//W3C//DTD SVG 1.1//EN" "http://www.w3.org/Graphics/SVG/1.1/DTD/svg11.dtd" >
<svg xmlns="http://www.w3.org/2000/svg" xmlns:xlink="http://www.w3.org/1999/xlink" version="1.1" viewBox="-10 0 266 256">
   <path fill="currentColor"
d="M74 227v17l2 7h0.5h0.5q2 0 4 -1.5t3 -3.5v-9v-14v-16v-16v-14v-8v-6t0.5 -10.5t1 -10t0.5 -5.5v-4v-3.5t1 -2.5t3 -1q3 0 3.5 1.5l1.5 4.5q2 10 2.5 21t1 22.5t0.5 22.5v21q4 0 5 -3l2 -6v-4v-5v-5v-4v-33t-5 -33q-1 -5 -3.5 -7t-5 -4.5t-4 -5.5t-1.5 -9v-3v-3l0.5 -0.5
t1.5 -0.5l1.5 -1t3 -1.5l3 -1l1.5 -0.5q3 -1 5.5 -7t4 -13.5t2 -14t1.5 -9.5v-1v-1v-2.5t-0.5 -3t-1.5 -2.5t-2 -1h-1l-2 2l-1 1l-6 41q-1 3 -3 4t-4 1h-1.5t-1.5 -1v-65q0 -2 -1.5 -2h-2.5q-3 0 -5 1.5t-2 4.5v0v1l0.5 2.5t1.5 3.5v21v16t-2 17l-1.5 0.5l-1.5 0.5h-1
q-2 0 -3.5 -1.5t-2 -3.5l-1 -4t-0.5 -4q0 -1 -0.5 -5.5t-0.5 -9.5t-0.5 -9.5t-0.5 -6.5q0 -1 -0.5 -1.5l-0.5 -0.5h-4h-4q0 1 0.5 5.5t0.5 10v10v6.5l0.5 1.5t1 3.5l1 4t1.5 4l1 3.5t2 3.5q2 2 4.5 2.5l5 1t4.5 2t2 4.5q0 7 -1.5 10.5t-3.5 5.5t-4.5 2.5t-4.5 1.5t-4 2.5
t-3 5.5q-2 10 -3 20t-1.5 21t-0.5 21v19q0 3 0.5 4t3.5 1h2.5t1.5 -2q1 -9 1.5 -19t1 -19.5t1.5 -19.5t3 -19q0 -3 1.5 -5.5t4.5 -2.5t3 1.5v3.5q0 24 -1 48t-1 48zM193 232q0 1 1 3.5t3 2.5t3 -1.5t2 -4t1.5 -4.5t0.5 -3v-38q0 -14 -1 -27.5t-1 -28.5v0q0 -1 0.5 -4l1 -6
t0.5 -6v-3v-2v-2q0 -3 -0.5 -9t-0.5 -12.5t-0.5 -11t-0.5 -5.5q0 -7 -0.5 -11t-2.5 -6.5t-6 -3.5t-11 -2q-2 -1 -5 -1.5l-3 -0.5q-2 -1 -2.5 -4t-1 -6.5t0 -7t0.5 -4.5q-1 -2 -2.5 -4.5t-0.5 -4.5q-1 0 -2 0.5t-2 0.5l-2 0.5t-2 1.5q-2 2 -2.5 5.5t0 7.5t0 8t-2.5 7
q-2 2 -7 2q-4 0 -9.5 0.5t-10 3t-5.5 8.5q-1 34 -2.5 67t-1.5 67v42q0 1 1 1.5t2 0.5q2 0 2.5 -1l1.5 -3q-1 -31 1 -62t3 -63q0 -9 -0.5 -20t1.5 -21q1 -4 3.5 -8t7.5 -4h45q1 0 2.5 1t2 2.5l1 3t0.5 2.5q0 3 0.5 8t0.5 12t0.5 14.5t1 14t0.5 12v7.5v11v17t-0.5 16.5
t-0.5 10.5v7zM141 229q0 4 0.5 5t3.5 1q2 0 4.5 -0.5t0.5 -4.5v-4.5v-7.5v-6.5v-5.5q1 -4 1 -6t4 -3q1 0 3.5 -1t5.5 -1.5l6 -1t4 -1.5q2 -1 3 -5q1 -5 1 -9.5t0.5 -8t0.5 -7.5v-9v-8l-2.5 -2.5l-2.5 -2.5h-1h-0.5h-0.5q-4 2 -4 5t-0.5 5.5t-2.5 5t-9 2.5h-1l-2 -2t-1 -2
v-19q0 -2 4 -3t9 -1.5t9.5 -2.5t4.5 -7v-35l-1.5 -0.5l-1.5 -0.5q-3 0 -3.5 2t-1.5 4.5t-3 4.5t-8 2q-1 0 -3.5 -0.5t-3.5 -0.5q-1 -2 -1 -3v-3q0 -9 4 -12t9 -4t9.5 -1.5t4.5 -3.5v-1l-2 -2l-1 -1h-1q-16 0 -23.5 5t-7.5 22v5v11v12v12v11v6q-1 19 -2 39t-1 40zM150 175
v-2.5t0.5 -3l1 -3t1.5 -1.5h15l0.5 1t0.5 2.5v2.5v2q0 7 -2.5 10t-9.5 3h-5l-1.5 -6t-0.5 -5zM152 116q0 -7 3.5 -9.5t10.5 -2.5q4 0 4.5 3t0.5 6t-2.5 7.5t-7.5 3.5q-5 0 -7 -2t-2 -6z" />
</svg>
