<?xml version="1.0" standalone="no"?>
<!DOCTYPE svg PUBLIC "-//W3C//DTD SVG 1.1//EN" "http://www.w3.org/Graphics/SVG/1.1/DTD/svg11.dtd" >
<svg xmlns="http://www.w3.org/2000/svg" xmlns:xlink="http://www.w3.org/1999/xlink" version="1.1" viewBox="-10 0 266 256">
   <path fill="currentColor"
d="M157 208q0 2 0.5 9t1.5 14.5t3.5 13.5t5.5 6t5 -2v-2v-2q0 -4 -1 -8t-2.5 -7.5t-2.5 -7.5t-1 -8v-6t2 -6l19 -20q4 -5 5 -12.5t0 -16t-1.5 -17t2.5 -14.5q1 0 3 -0.5t4.5 -1t4.5 -2t2 -3.5q0 -3 -1.5 -3.5t-3.5 -0.5q-10 0 -19.5 1.5t-19.5 2.5q-2 0 -8.5 0.5t-13.5 1
t-13.5 0.5t-8.5 1q-2 0 -5 0.5t-3 3.5q0 1 1.5 1.5t2.5 0.5h2h5q3 -1 11 -1t16.5 -0.5t16.5 -1t11 -0.5l5 5l0.5 4t0.5 9.5v8.5v3v2q0 2 -0.5 6.5t-1.5 8.5t-1.5 6.5t-0.5 3.5l-22 22v3v5zM74 229q1 2 2 2h2h0.5h0.5q1 -1 3.5 -3t2.5 -3v-10v-15v-18v-18v-15v-10
q0 -1 0.5 -4.5t0.5 -7t0.5 -7t0.5 -4.5l0.5 -0.5l0.5 -0.5q1 0 2.5 1t2.5 2q4 22 5 44t-1 44q1 1 1.5 2t0.5 2h1q4 0 5.5 -4.5t1.5 -7.5q0 -18 -1.5 -37t-3.5 -37q0 -2 -0.5 -5t-0.5 -4q-1 -3 -3.5 -5t-5 -3t-4 -3t-1.5 -5q0 -5 2 -7.5t5 -3.5l6 -2t4 -3q3 -9 4.5 -18.5
t1.5 -18.5v-6l-2 -2l-1.5 -0.5l-1.5 -0.5q-4 1 -4.5 6.5t0 12.5t-1 14t-6.5 9q-1 1 -2.5 0l-1.5 -1q0 -14 0.5 -27.5t0.5 -26.5q0 -3 -0.5 -5t-4.5 -4l-1 0.5t-2 1.5q-2 1 -2.5 4t-0.5 5v53q0 2 -2 2h-3q-4 0 -6 -3t-2.5 -7.5t-0.5 -10.5t-0.5 -10.5t-1.5 -8.5t-4 -4
q-1 -1 -2 0t-2 2.5t-1.5 2.5t-0.5 2q0 7 1 15t2 15q1 5 2 8t3.5 4.5t6.5 2t10 1.5l1 2v12q0 3 -2 4t-4.5 1.5l-5 1t-3.5 2.5q-5 8 -7.5 21t-3.5 27.5t-1.5 28.5t-0.5 24q3 0 5.5 -1.5t4.5 -4.5q0 -21 1.5 -42.5t4.5 -41.5q0 -3 2 -5.5t5 -2.5q1 0 1.5 0.5t0.5 1.5v85
q-1 6 -1.5 10t-0.5 10v6zM129 134q-1 0 -1 1l-1 0.5l-1 0.5v31q0 4 2.5 6t6 3t7 1.5t5.5 0.5q9 0 13 -1.5t6 -4.5t2 -8v-13v-3v-5v-4v-3q-1 -2 -2 -3.5t-3 -1.5h-1q-1 5 -2.5 7t-3.5 3t-5 1h-7h-8l-2 -2t-1.5 -2.5t-1 -2.5t-2.5 -1zM134 157q0 -3 2.5 -4.5t6 -2t7.5 -0.5h5
h4v1.5t0.5 3.5t0.5 3.5v2.5l-0.5 3t-0.5 4t-0.5 1.5t-1.5 0.5h-18q-1 0 -2 -2.5l-1 -2.5q0 -1 -0.5 -3.5t-1.5 -3.5v-1v0zM150 56q3 0 3 3v17q0 3 -5 6t-11 6.5t-11 8t-5 9.5q4 0 6.5 -1t5.5 -3q1 -1 4 -3t6.5 -4t6.5 -4.5t4 -3.5h1.5h1.5q4 0 8 2t8 5t7.5 5t5.5 2t3 -2.5
t1 -3.5q0 -4 -4.5 -6t-9.5 -3.5t-9.5 -3.5t-4.5 -4v-20q1 0 5 -1t6 -1q2 1 4.5 2.5l5 3l5 3t5.5 1.5q2 0 4 -1.5t2 -3.5q0 -3 -4.5 -5.5t-10.5 -5t-11.5 -4t-7.5 -2.5l-2 -6v-20q-1 -2 -2.5 -3.5t-3.5 -1.5q-1 0 -2.5 1t-1.5 3v26q0 1 -5.5 4t-12 6.5t-12 7t-5.5 6.5t1 3h2
q3 0 4 -0.5l5 -2.5q1 0 3.5 -1.5t5.5 -3.5t5.5 -3.5t3.5 -2.5h0.5h1.5z" />
</svg>
