<?xml version="1.0" standalone="no"?>
<!DOCTYPE svg PUBLIC "-//W3C//DTD SVG 1.1//EN" "http://www.w3.org/Graphics/SVG/1.1/DTD/svg11.dtd" >
<svg xmlns="http://www.w3.org/2000/svg" xmlns:xlink="http://www.w3.org/1999/xlink" version="1.1" viewBox="-10 0 266 256">
   <path fill="currentColor"
d="M152 195q6 0 10 4t5.5 9.5t3 11.5t4.5 10q0 1 0.5 2t1.5 2.5t1.5 2.5l0.5 1q1 2 1 4t0.5 4t1.5 3t4 1q6 0 6 -7q0 -5 -3 -11t-7 -12t-7 -12.5t-3 -11.5q0 -4 3 -5.5t7.5 -1.5t8.5 -1t6 -4q0 -1 0.5 -5t1 -8.5t1 -8t0.5 -4.5v-1v-1q0 -1 -0.5 -3.5t-0.5 -5.5t-0.5 -5.5
t-0.5 -3.5q-1 -1 -2 -1h-2q-3 0 -3.5 1t-1 3t-0.5 4.5t-2 4.5t-5.5 3t-11.5 1h-3h-2l-3 -3q0 -4 -1.5 -9.5t-1.5 -9.5q0 -1 0.5 -2t2.5 -1h12t11 -1.5t8.5 -5.5t3.5 -11q0 -3 -0.5 -6.5t-1.5 -6.5t-3.5 -5t-5.5 -2h-41q-4 0 -6 3t-3.5 6.5t-1.5 7.5v6q0 4 1.5 6.5t4 4.5
t5.5 3l6 2q1 5 2 11t1 10q0 2 -1 3.5t-3 2l-4 1t-3 0.5h-20q-2 1 -2.5 1.5t-0.5 2.5v2t1 1h11q5 0 9.5 -0.5t9.5 -0.5q3 0 4.5 1.5t3 3.5t2 5t0.5 5q0 4 -4.5 6.5t-10 3.5t-11 1t-8.5 1q-1 0 -1 1.5v2.5q0 3 2.5 3.5t5.5 0.5q4 0 8.5 -2t9.5 -2zM77 236q0 1 1 3.5t3 2.5
q3 0 5 -3.5t2 -6.5v-14q0 -15 -1 -29t-1 -28v-2q0 -2 0.5 -7t1 -10.5t0.5 -10.5v-7h2.5h1.5h4t3 3q0 2 1 8t1.5 12.5t1.5 12.5t1 9v2v5v6v4q0 9 -1 17t-1 16q0 3 1 5.5t4 2.5q2 0 3 -1t2 -3v-5v-8v-7v-5q0 -9 0.5 -19t0 -20t-2 -19.5t-5.5 -18.5q-1 -2 -3.5 -3t-5.5 -2
t-5.5 -2t-2.5 -4v-19q0 -1 3 -2.5t6.5 -4t6.5 -6.5t3 -10q0 -2 0.5 -6t0.5 -8t0.5 -7t0.5 -4v-2t0.5 -4t0.5 -3.5v-1.5v-1v-1q0 -2 -2 -2.5t-4 -0.5q-1 0 -3 0.5t-2 2.5v38q0 4 -0.5 6t-2 2.5t-3.5 0.5h-5v-61q0 -3 -1.5 -3h-3.5t-4 0.5t-2 3.5q0 11 1.5 22.5t1.5 23.5v3
v4.5v4.5v3q0 2 -2 2h-2q-6 0 -8.5 -4t-3.5 -9q0 -2 -0.5 -7.5l-1 -11l-1 -11t-0.5 -7.5l-0.5 -0.5l-0.5 -0.5q-1 0 -4.5 -0.5t-4.5 -0.5q0 13 1.5 25.5t5.5 24.5q1 3 4.5 5.5t7 4t6 2t2.5 1.5v24q0 1 -1.5 1.5t-3.5 1l-4 1t-3 0.5q-7 5 -10.5 14.5t-3.5 17.5v2v1t0.5 2.5
t1 2.5t0.5 2q0 10 -2 22t-2 23v21q1 2 2 2h2q2 0 3.5 -0.5t2.5 -2.5v-7.5t0.5 -11.5t0.5 -11.5v-7.5v-10v-13t1 -14.5t3 -13t5.5 -9t9.5 -3.5q0 7 0.5 12.5t-2.5 12.5v79q0 1 -0.5 3.5l-0.5 2.5v0.5v0.5zM170 180q-1 -1 -1.5 -3t-1.5 -4t-2 -3.5t-1 -2.5v-1q0 -2 3 -2.5
t7.5 -1t8.5 -0.5h6v16q0 1 -1 2t-3 1h-3.5h-2.5h-4t-5 -1zM143 111q0 -1 0.5 -3.5t1 -4.5t1.5 -3t4 -1h31l3 3v14l-1 2h-2t-4 0.5t-4.5 0.5h-4.5h-4h-5q-3 0 -5.5 0.5t-5 -0.5t-4 -2.5t-1.5 -5.5zM137 60q0 6 1.5 9.5t5 5.5t8 2.5t9.5 0.5h1q2 0 4.5 -0.5t5.5 -0.5t5 -0.5
l2 -0.5q1 0 3.5 -0.5t5 -1.5t4.5 -2.5t2 -3.5v-20q0 -1 -1 -2t-2.5 -2t-2.5 -2t-2 -1h-2h-5t-6 -0.5t-5 -0.5v0q-6 0 -11.5 0.5t-10 3t-7 6t-2.5 10.5zM144 60q0 -5 3.5 -7.5t8 -3.5t9.5 -1h9h5q4 2 4.5 7t0.5 8t-3 4t-7 1.5t-7.5 0t-5.5 -0.5q-3 0 -6 0.5t-5.5 -0.5
t-4 -2.5t-1.5 -5.5zM121 27q0 2 0.5 3t2.5 0l18 -3h58q2 0 4.5 -2t2.5 -4q0 -3 -4 -5h-11q-15 0 -30.5 1t-30.5 2q-3 1 -6.5 3t-3.5 5z" />
</svg>
