<?xml version="1.0" standalone="no"?>
<!DOCTYPE svg PUBLIC "-//W3C//DTD SVG 1.1//EN" "http://www.w3.org/Graphics/SVG/1.1/DTD/svg11.dtd" >
<svg xmlns="http://www.w3.org/2000/svg" xmlns:xlink="http://www.w3.org/1999/xlink" version="1.1" viewBox="-10 0 266 256">
   <path fill="currentColor"
d="M198 248q2 2 3 2.5t3 0.5q1 0 2 -0.5t2 -1.5v-3v-3q0 -10 -1 -21t-2.5 -21.5t-3 -21.5t-1.5 -21q0 -3 -3 -5.5t-4 -2.5h-31v-18h44q2 0 2 -2v-3v-3t-2 -2h-5h-6.5t-6.5 2h-53q-1 -1 -4 -1.5t-4 -0.5h-1q-4 0 -7 1t-3 5l0.5 2t1.5 2h29q3 0 4 2t1 4v66l-1 5h-2h-2
q-6 0 -8 -3t-2 -10v-45q-1 0 -2 0.5t-2.5 0.5t-2.5 1t-1 3v12q0 5 -0.5 11.5t0 13t1.5 12.5t4 10q1 1 6 1.5l10 1t9.5 1.5t6.5 1h2h3q1 0 3 -0.5t5 -0.5h5.5t3.5 -1l0.5 -0.5l0.5 -0.5v-0.5v-0.5q0 -3 -2 -3.5t-4 -0.5t-4 -1.5t-2 -5.5q0 -12 0.5 -24t4.5 -23l1 -0.5t2 -0.5
q3 0 5 3t3 6.5t1 7.5v6q0 4 0.5 13.5t1.5 20.5t1.5 20.5t0.5 13.5zM73 246q0 3 4 3t5.5 -2.5t2.5 -6.5t1 -8v-6q0 -21 -2 -41.5t-2 -41.5v-4v-6q0 -4 0.5 -7t0.5 -4l1 -1.5t2 -1.5h1q3 0 5 3.5t4 8.5t3 11.5t1.5 12t0.5 9v3.5q0 3 0.5 8.5t1 12t1 12t0.5 7.5q1 2 1.5 2h1.5
q4 0 4.5 -3.5t0.5 -5.5v-3v-3q0 -3 -1 -11t-1.5 -16.5t-1 -16t-1.5 -9.5q0 -4 -0.5 -7.5t-1.5 -6.5t-2.5 -5.5t-4.5 -5.5q-1 -2 -3 -3t-4 -1.5t-4 -1.5t-3 -2v-10q0 -6 1 -9.5t2 -4.5t2.5 -1.5t3.5 -1t4.5 -2t5.5 -5.5q1 -3 2 -7t1.5 -8.5t1 -8.5t0.5 -8q0 -3 -2 -4.5
t-5 -1.5l-1 0.5t-2 0.5v3.5t-0.5 4.5t-0.5 4.5v3.5v5q0 3 -0.5 6.5t-2 6t-4.5 1.5q-4 -1 -5 -5.5t-1 -8.5v-3q0 -2 0.5 -7t0.5 -11t0.5 -11t0.5 -7v-1q0 -3 -1.5 -5t-4.5 -2l-2.5 0.5t-2.5 1.5v50l-0.5 2.5t-1.5 3.5l-0.5 0.5l-0.5 0.5q-5 0 -7 -2.5t-3 -7t-1 -10v-10
t-1 -7.5t-4 -3q-1 0 -2.5 1.5t-1.5 3.5l1 32q1 6 4 8.5t7 4t7.5 4t3.5 8.5q0 9 -3 13t-6.5 7.5l-7 7t-5.5 10.5q0 3 -0.5 6t-2.5 5q0 3 -0.5 9t-1 13t-1 13t-0.5 9v11v11q2 4 5 4q2 0 3 -1.5t2 -3.5t1.5 -4.5t0.5 -3.5v-50q0 -4 1 -8.5t2.5 -8t4.5 -6.5t7 -3q0 23 1.5 45.5
t1.5 44.5q0 9 -2 17t-2 17zM160 209q-2 -8 -2 -13.5v-13.5v-3v-4v-3v-2t0.5 -3.5t0.5 -4.5t0.5 -3l0.5 -1h11q1 0 1 2.5v2.5q0 12 -0.5 24t-2.5 24h-1.5h-2.5h-3q-2 0 -2 -2zM126 72q0 7 1.5 14t5.5 12.5t9.5 8t14.5 2.5q10 0 18.5 -0.5t14 -4t9 -10.5t3.5 -20
q0 -18 -6.5 -27t-23.5 -12l-0.5 -0.5l-0.5 -0.5q-1 -1 -1.5 -5t-0.5 -5q-1 -1 -2 -1.5t-3 -0.5t-3 1.5t-1.5 4t-0.5 4.5t1 3q-17 0 -25.5 10t-8.5 27zM137 83q0 -3 1.5 -4.5t4 -1.5h5h4.5h3h2l1 2l0.5 3t1 7.5t0.5 6.5v1.5v0.5q0 3 -1.5 3h-3.5q-8 0 -13 -5t-5 -13zM169 80
l2 -3h1.5t3.5 -0.5l4 -1t3 -0.5h4q3 0 4.5 2t1.5 6q0 5 -2.5 8.5t-5.5 5.5t-7.5 2.5t-8.5 0.5v-20zM137 63q0 -7 4 -12.5t11 -5.5h5q2 3 2.5 7.5t0.5 8.5q0 3 -1.5 4.5t-3.5 2.5t-5 1h-6t-5 -1.5t-2 -4.5zM171 66q0 -1 -0.5 -3t-0.5 -4t-0.5 -3.5t-0.5 -2.5v-2q0 -4 2 -5
t5 -1q4 0 6.5 1.5t4.5 4t3 5t3 5.5q-1 1 -2 2.5t-2 2.5h-2.5t-3.5 0.5t-3.5 0.5h-2.5h-1h-1l-2 -0.5z" />
</svg>
