<?xml version="1.0" standalone="no"?>
<!DOCTYPE svg PUBLIC "-//W3C//DTD SVG 1.1//EN" "http://www.w3.org/Graphics/SVG/1.1/DTD/svg11.dtd" >
<svg xmlns="http://www.w3.org/2000/svg" xmlns:xlink="http://www.w3.org/1999/xlink" version="1.1" viewBox="-10 0 266 256">
   <path fill="currentColor"
d="M71 247q1 1 2.5 2t2.5 1t3.5 -2t2.5 -3v-84q1 -1 1.5 -4.5l0.5 -3.5v-6v-8v-8v-5q1 -3 2.5 -3.5t3.5 -0.5h3t2 2q6 27 7.5 55.5t1.5 56.5q3 0 4 -1.5t2 -3.5v-9q0 -23 -0.5 -46.5t-4.5 -46.5q-1 -7 -4.5 -10t-7 -4.5t-6.5 -2.5t-3 -2v-11q0 -1 2.5 -2t5.5 -2t6 -2.5
t4 -3.5q2 -11 3.5 -22t1.5 -22v-7l-1.5 -1.5t-2.5 -0.5q-1 0 -2 0.5t0 3.5q-1 1 -1.5 5l-1 8l-1 8t-0.5 6v5v6.5t-1.5 5.5t-5.5 2q-3 0 -4.5 -3t-1.5 -6v-1q3 -15 4 -30.5t1 -30.5q0 -2 -2 -3t-4 -1q-4 0 -6.5 4t-2.5 8q0 11 1 21.5t1 22.5v14q-1 2 -2 3.5t-3 1.5t-3.5 -1
t-4.5 -2q0 -1 -0.5 -4t-0.5 -6t-0.5 -5.5t-0.5 -3.5v-18q0 -2 -1 -4t-3 -2q-4 0 -4.5 2.5t-1.5 4.5q1 5 1 10t0.5 10.5t1 11.5t1.5 10q5 3 9 5t10 3v17q0 1 -1.5 1.5t-2.5 0.5q-10 3 -14 8.5t-5 15.5q0 3 -0.5 11l-1 16t-1 15t-0.5 9v3v5.5v6.5v6v4v6v6v5q0 2 1.5 2.5
t2.5 0.5q2 0 3.5 -0.5t1.5 -2.5q-2 -26 0 -51.5t6 -51.5q0 -2 2 -3t5 -1q1 0 2.5 0.5t1.5 2.5v76q-3 7 -3 15v15v12zM196 242q0 2 1 5t4 3q2 0 3.5 -1.5t2 -4t1 -4.5t0.5 -4q0 -29 -1.5 -57.5t-0.5 -57.5l-2 -11q-4 -1 -6.5 -3.5t-6.5 -3.5h-2.5t-4.5 -0.5t-4.5 -0.5h-3.5
q-2 -1 -3 -4t-2 -7t-1 -7.5v-4.5t-0.5 -4.5t-0.5 -4.5q2 -4 6 -5.5t9 -1.5q1 0 3.5 0.5t2.5 1.5v29q0 1 2 1h3t2 -0.5t2 -2.5q2 -10 2 -18.5v-18.5v-4v-6v-6v-4q-2 -5 -3.5 -7t-6.5 -4h-3t-4.5 -0.5t-4.5 -0.5h-3q-3 0 -9.5 0.5t-13.5 1.5t-12.5 3t-7.5 5q-2 6 -3 9.5
t-1 8.5q0 1 0.5 2.5l0.5 1.5q0 1 0.5 3l0.5 2q0 1 -0.5 3.5t-0.5 3.5l-0.5 5t-0.5 7v3t0.5 4t0.5 4v2t1 2t2 1h1l1 -0.5t2 -2t1.5 -2.5l0.5 -1q1 -11 1.5 -22.5t0.5 -22.5q1 -4 5.5 -6.5t10.5 -3.5t11 -1h8h5h4q2 2 4 7t2 8v1q0 1 -2 3.5t-3 2.5h-21l-0.5 1t-1.5 1
q0 2 -1.5 4t-1.5 3v35q0 3 -2 5t-5 3t-7 1t-7.5 0.5t-6.5 1.5t-4 4t-1.5 6t-0.5 6v6v5q0 11 1 22.5t1 22.5q0 15 -2 29.5t-2 28.5q0 2 1.5 4.5t4.5 2.5q1 0 2.5 -0.5t1.5 -2.5v-122l1 -0.5l1 -0.5q7 -5 15.5 -8t16.5 -3h2h4t6.5 0.5t6.5 0.5h4q2 2 3 5t1 6t-0.5 6t-0.5 5
t0.5 8t0.5 13t0.5 13t0.5 8v13v20v20v14zM147 142q0 9 1 19t1 17q0 3 0.5 7l1 8t2 7t4.5 5q1 1 4 1h4q6 0 11 -1.5t9 -7.5v-11t0.5 -16.5t0.5 -16.5v-11v-5q0 -3 -0.5 -6.5t-4.5 -3.5q-3 0 -3 3v5v6t-0.5 6.5t-1 6l-0.5 2.5l-1 1q0 1 -2 1h-3q-5 0 -8.5 -0.5t-5.5 -4.5v-15
l-2 -4t-3 -2h-2l-1.5 6t-0.5 4zM155 175q0 -7 3.5 -9t10.5 -2q4 0 6 2t2.5 4.5t0.5 5.5v6q0 7 -2.5 12t-9.5 5q-4 0 -6.5 -2.5t-3 -6t-1 -7.5t-0.5 -8z" />
</svg>
