<?xml version="1.0" standalone="no"?>
<!DOCTYPE svg PUBLIC "-//W3C//DTD SVG 1.1//EN" "http://www.w3.org/Graphics/SVG/1.1/DTD/svg11.dtd" >
<svg xmlns="http://www.w3.org/2000/svg" xmlns:xlink="http://www.w3.org/1999/xlink" version="1.1" viewBox="-10 0 266 256">
   <path fill="currentColor"
d="M129 243v0l2 2l2 2v0q3 0 5 -3t2.5 -6.5t0.5 -7.5v-4v-13v-20v-19.5v-12.5v-2.5t0.5 -3.5t1.5 -3.5t2 -1.5q2 0 3 2.5t1.5 5.5t1 5t0.5 3v10v15v15v10l1.5 1.5l1.5 1.5q2 0 3 -2t2 -3v-3v-6v-6v-4v-12q0 -5 -0.5 -10t-0.5 -10.5t-1 -12.5q-1 -2 -4 -3.5t-5.5 -3
t-4.5 -3.5t-2 -4q0 -5 3.5 -6.5t8.5 -2.5t8.5 -3t3.5 -6v-21q0 -3 -3.5 -4t-7.5 -1.5t-8 -2t-4 -4.5q0 -4 2.5 -6t6 -3t7.5 -2.5t6 -5.5v-5.5t0.5 -7t0.5 -7v-4.5v-2q0 -2 -2 -4.5t-4 -2.5l-2 2l-1 1.5l-1 1.5v24q0 2 -2.5 3.5t-4.5 1.5h-1l-0.5 -0.5l-0.5 -0.5v-3v-4v-4v-2
q0 -7 0.5 -12.5t0.5 -11.5q0 -4 -2 -7t-6 -3q-2 0 -2.5 1t-0.5 4v35q0 3 -1 6.5t-4 3.5q-2 0 -4.5 -1.5t-2.5 -3.5v-22q0 -2 -2 -3t-4 -1t-2.5 1.5t-0.5 3.5v6v8t1 7t2 5q2 3 4.5 4t5.5 2t4.5 3t1.5 6t-4 4t-9 1t-9 4.5t-4 14.5v9t5 6q1 0 3.5 0.5t5.5 1.5t5.5 1.5t3.5 1.5
q2 0 2 2.5v3.5q0 4 -2 5t-5 2t-6 3t-5 8q-1 3 -2 11.5t-2 18t-1.5 18.5t-1.5 12v2q0 3 3 3t4.5 -3t2.5 -6q-1 -13 0.5 -28.5t2.5 -27.5q2 -3 3.5 -5t4.5 -2q2 0 3 1.5t1.5 3.5t0.5 4v3q0 21 -2.5 42t-2.5 42zM71 150q0 24 -2 48t-2 48q5 0 6.5 -3.5t1.5 -7.5
q2 -14 2.5 -28.5t1 -28.5l1 -28t0.5 -27h1v0q3 0 5 2.5t3 5.5l4 85h2q1 0 2 -0.5t1 -1.5t0.5 -5t1 -8.5t0.5 -8.5v-6v-1q0 -15 -1 -32.5t-6 -31.5q0 -3 -2.5 -4t-4.5 -3l-4 -4t-2 -5q0 -8 2.5 -11t5.5 -4l6 -2t4 -7q1 -5 2 -9t1 -7.5t0.5 -7t0.5 -7.5v-3.5v-2.5l-2 -2l-2 -2
v0h-1q-1 0 -2 1l-1 1v33q0 1 -0.5 2t-1.5 2.5t-2.5 2.5t-2.5 1t-3 -1t-2 -2v-16q0 -10 0.5 -19.5t0.5 -20.5q0 -3 -2 -5.5t-5 -2.5t-4 2.5t-1 5.5v2q0 2 0.5 7.5t1 12t1 12t0.5 6.5v4q0 3 -0.5 6.5t-1.5 6.5t-3 4q-3 -1 -6 -3t-4 -6l-5 -34q0 -1 -2 -1.5t-3 -0.5t-3 1t-2 3
v1q1 2 1.5 7t1.5 10.5t1.5 10.5t0.5 7q1 6 5 8t8 2.5t7 2t3 7.5t-1.5 9t-4.5 5t-5.5 4.5t-4.5 6.5q-2 3 -3.5 7t-3.5 8q0 2 -0.5 7.5t-1 12.5t-1.5 14.5t-1.5 14t-1 12t-0.5 8.5v7v7q0 1 1 1h2q2 0 3.5 -0.5t2.5 -2.5q2 -18 3 -35t3 -36q0 -1 0.5 -5t1.5 -8.5t2.5 -7.5
t4.5 -3v0v0l2 2l2 2v4v6v6v4zM180 235q0 2 1.5 2.5t3.5 0.5q3 0 5.5 -3t3.5 -7t1.5 -8t0.5 -6q1 -1 1.5 -5l1 -8l1 -8t0.5 -5q1 -8 3 -15.5l4 -15t3 -15.5t1 -16v-4v-4q-1 -2 -3.5 -5.5t-6 -8t-6 -8t-3.5 -4.5q-2 -3 -3.5 -3.5t-2 -1t-0.5 -1.5v-4q0 -1 0.5 -3t0.5 -3
l0.5 -1t1 -3t1 -3l0.5 -1q0 -2 1.5 -6t2.5 -8t2.5 -8t1.5 -6v-2v-1q0 -3 -1 -5t-4 -2h-1q-2 1 -3.5 5t-3 9.5t-3 11.5t-2.5 11.5t-1.5 9.5t-0.5 5q0 4 1.5 7l3 6t3 6.5t1.5 6.5v6.5t-0.5 5l-1 5t-1.5 6.5q-1 3 -3.5 11.5t-5 17.5t-5 17t-3.5 11v1v1q0 3 3 3q2 0 4.5 -2
t2.5 -3l16 -62l5 -5q2 2 2 3.5v3.5q0 22 -5 44.5t-10 43.5q-1 4 -3 9t-2 10zM116 112q0 -6 2.5 -10.5t9.5 -4.5h2h3q2 2 1.5 5.5t-0.5 5.5v4v4t-1.5 3.5t-3.5 1.5t-4 -0.5t-4 -2t-3.5 -3t-1.5 -3.5zM142 115v-2t1 -1v-2.5t0.5 -3.5t0.5 -4.5v-2.5q0 -1 1 -1.5l1 -0.5h1
q6 0 8 2.5t2 8.5q0 4 -1.5 8t-6.5 4q-2 0 -4.5 -1.5t-2.5 -3.5z" />
</svg>
