<?xml version="1.0" standalone="no"?>
<!DOCTYPE svg PUBLIC "-//W3C//DTD SVG 1.1//EN" "http://www.w3.org/Graphics/SVG/1.1/DTD/svg11.dtd" >
<svg xmlns="http://www.w3.org/2000/svg" xmlns:xlink="http://www.w3.org/1999/xlink" version="1.1" viewBox="-10 0 266 256">
   <path fill="currentColor"
d="M169 162q1 16 2.5 32.5t2.5 32.5q0 2 0.5 6l1 8t1 6.5l0.5 2.5h9l0.5 -1.5l0.5 -1.5v-9q0 -7 -0.5 -14t-1 -13.5t-2 -14t-2.5 -15.5q-2 -1 -2 -3t-0.5 -4.5t0 -4t0.5 -2.5v-3.5v-2.5l28 -3l0.5 -1.5t0.5 -2.5v-1v0q0 -1 -1 -2l-2 -2h-2h-3.5h-2.5h-2q-7 0 -13 1t-13 1h-5
l-0.5 -0.5t-0.5 -1.5v-23l1 -1.5t2 -1.5h1q3 0 6.5 1.5t7.5 3.5t7.5 4t7.5 2q2 1 2.5 -0.5t0.5 -2.5q0 -4 -4.5 -7t-10.5 -5t-11.5 -4t-8.5 -4l-0.5 -0.5l-0.5 -0.5v-15q0 -2 -2 -2h-3h-2h-1q0 7 -2 11.5t-6 8t-9 6t-9 6.5q-2 0 -4 1.5t-4.5 3l-5 3t-3.5 1.5v6
q6 0 11.5 -3.5t10 -7.5t9 -7.5t8.5 -3.5v0q1 0 2 0.5t2 1.5v9v6t-0.5 7.5t-1.5 6.5t-3 4q-9 0 -18.5 0.5t-17.5 2.5q-2 0 -2 1v2q0 2 0.5 3t2.5 0h3.5t5 -0.5t5 -0.5h3.5h3q3 0 4 1t1 3q0 12 -1 24t-4 23l-2.5 7.5t-2.5 9t-2 8.5t-1 7q0 2 1.5 3.5t3.5 1.5t3 -1.5t1.5 -3
t1 -3.5t2.5 -3q2 -19 4 -37.5t4 -38.5l2 -1l3 -1t5 -1h1v0q2 0 5 1t4 1l0.5 0.5zM68 245q0 1 1 1.5t2 0.5q3 0 5 -2t3 -5q0 -27 1.5 -53.5t0.5 -53.5q0 -1 1.5 -3l1.5 -2h1q2 0 3.5 3.5t2.5 9t1.5 12.5t1 13.5t0.5 11.5v7v7.5v11.5v11v7l2 2l2.5 -1t3.5 -3q1 0 1.5 -3
t0.5 -5v-2v-3q0 -3 -0.5 -9t-1.5 -13.5t-1.5 -16t-1 -16.5t-1 -14t-1.5 -9t-3.5 -5.5t-5.5 -4t-5 -3t-2 -4.5v-1q0 -1 0.5 -4t0.5 -5.5t0.5 -4.5l0.5 -2q0 -1 0.5 -2l0.5 -1q2 -1 4 -1.5t4 -1.5t3.5 -2t1.5 -4q1 -2 1.5 -6.5t1.5 -10.5t1.5 -10.5t0.5 -7.5l0.5 -3t0.5 -4v-4
t-0.5 -5.5t-2 -4.5t-3.5 -2h-1l-1.5 1.5l-0.5 0.5q-2 13 -2 26q0 12 -1 25q0 1 -0.5 1.5t-1.5 0.5v0h-1v0q-1 -1 -2.5 -2l-1.5 -1v-61q0 -4 -0.5 -4.5t-2.5 -0.5h-3t-2 1v61q0 3 -3 5t-5 2q-3 0 -4.5 -2.5t-2.5 -6t-1 -7v-4.5v-4.5v-6.5v-7.5v-4.5q-1 -2 -2.5 -3.5
t-3.5 -1.5q-3 0 -3.5 3t-0.5 5v2v7.5t0.5 9.5t1 8.5t0.5 4.5q0 6 2 9.5t4 5.5t5 3t5 1.5t3.5 1t1.5 2.5v21q0 1 -0.5 1.5t-1.5 0.5q-10 5 -14 8.5t-5.5 8.5t-1.5 11t-2 16v3.5t-0.5 3.5t-0.5 3.5v1.5q0 3 -0.5 10.5t-0.5 15.5v16v10q4 0 7.5 -2t3.5 -7v-45q1 -3 1 -10t1 -14
t3 -13t7 -6q1 0 2 0.5t2 1.5v6q0 25 -2.5 50t-2.5 50v8zM169 77q0 2 4.5 6.5l9.5 9.5t10.5 8.5t8.5 3.5q5 0 5 -5q0 -4 -3 -5.5t-6.5 -2t-7 -1.5t-3.5 -5q0 -5 1.5 -7.5t4 -4t5.5 -2t5 -2t3.5 -3t1.5 -5.5v-35q0 -1 -1 -1t-2 -0.5t-2.5 -0.5h-1.5v34l-1 1t-1 2q-1 0 -1.5 1
l-0.5 1h-1v0q-1 -1 -2.5 -2t-1.5 -2v-39q0 -3 -1.5 -4.5t-3.5 -1.5q-1 0 -1.5 0.5l-1.5 1.5q1 15 0.5 31t-2.5 30q0 1 -0.5 1.5l-0.5 0.5h-0.5h-0.5h-0.5h-0.5q-1 0 -2 -1.5l-1 -1.5q-1 -14 -1.5 -28t-0.5 -28q-5 0 -6 2.5t-1 6.5q0 1 0.5 2.5l0.5 1.5v8t0.5 13t0.5 13v9z
M107 95l4 3q4 -2 9 -3.5t9.5 -3t9.5 -3.5t9 -6q1 -1 3 -2.5t3.5 -3.5t2.5 -3l1 -1v-47q0 -2 -2 -2.5t-3 -0.5t-2 0.5t-1 1.5v41q0 3 -1.5 5t-3.5 2t-2.5 -1t-0.5 -4v-46l-1 -1l-1 -1q0 -1 -1.5 -1.5l-1.5 -0.5q-1 1 -2.5 2t-1.5 2v34q0 2 -2 2h-3t-3 -0.5t-2 -2.5v-25l-1 -1
t-2 -1h-2.5h-2.5q0 3 -0.5 8t0 10.5t1 10.5t3.5 8q1 2 3.5 2.5t5.5 0.5q2 0 3.5 0.5t1.5 5.5q0 6 -3 8.5t-7.5 4t-8.5 3t-7 6.5z" />
</svg>
