<?xml version="1.0" standalone="no"?>
<!DOCTYPE svg PUBLIC "-//W3C//DTD SVG 1.1//EN" "http://www.w3.org/Graphics/SVG/1.1/DTD/svg11.dtd" >
<svg xmlns="http://www.w3.org/2000/svg" xmlns:xlink="http://www.w3.org/1999/xlink" version="1.1" viewBox="-10 0 266 256">
   <path fill="currentColor"
d="M115 247q0 2 0.5 3t3.5 1q6 0 10.5 -4.5t8 -11t6 -14t4.5 -14.5t3.5 -11t2.5 -4q2 0 4 1q1 5 2 9t2.5 7t3.5 6.5t4 7.5q1 3 2 7.5t2.5 8.5t4 7t7.5 3h2.5t2.5 -1v-6q0 -4 -1 -6.5t-3 -5l-4 -5t-4 -6.5q-3 -5 -6.5 -12t-6 -15t-4.5 -16t-2 -15q0 -2 1 -2.5t4 -0.5
q4 0 8.5 3t8 6.5l6.5 6.5t6 3q6 0 6 -5q0 -7 -5.5 -10.5t-13 -6t-14 -4.5t-7.5 -5v-3t-0.5 -4.5l-1 -5t-0.5 -3.5t-1.5 -3.5t-2.5 -3.5q-1 0 -2 0.5t-2 1.5q1 1 1 3v5v5t-1 3q0 4 -1.5 5.5t-3.5 2.5t-4.5 1t-4.5 1t-6 2.5t-8 4t-8 4t-5 2.5l-0.5 0.5l-0.5 0.5q0 4 4 4
q9 0 16.5 -4t15.5 -9h1h1l1 1.5t2 1.5v3v3q0 10 -3 21t-7.5 21.5t-10.5 20.5t-13 16v3zM68 130q1 0 1.5 0.5l0.5 0.5v119q6 0 8.5 -4t2.5 -9v-5t-2 -4q1 -16 0 -30t-1 -30v-8t0.5 -13t2 -12t3.5 -5t3.5 1.5t1.5 3.5q1 1 1.5 3l1 4t1.5 4.5l1 2.5q0 3 0.5 10t0.5 15t0.5 15
t0.5 9v18q0 5 0.5 6t2.5 1t4 -1t2 -4v-34q-2 -6 -3 -12t-1 -12.5t-0.5 -12.5t-1.5 -12q-1 -5 -4 -7.5t-6 -4.5t-5.5 -3.5t-2.5 -4.5q0 -10 2.5 -14t5.5 -5.5t6.5 -3.5t4.5 -8q1 -3 1.5 -6.5t0.5 -7.5v-7v-7v-16q0 -1 -2 -2t-3 -1l-1.5 2.5l-1.5 2.5v26q0 1 -0.5 4l-1 6
t-2 5.5t-3.5 2.5h-2.5t-1.5 -2v-4v-6v-6v-4q0 -11 0.5 -22t0.5 -22q0 -3 -2 -5.5t-5 -2.5q-4 0 -5 2.5t-1 5.5q0 10 1 19t1 19v23q1 3 -0.5 3h-3.5h-1h-1q-4 -5 -5.5 -11t-1.5 -12.5v-13t-1 -12.5q-2 -1 -3.5 -1.5t-3.5 -0.5t-3.5 0.5t-1.5 3.5l1 1.5l1 1.5v2q0 3 0.5 7.5
t0.5 9v7.5v3q1 2 1.5 4.5l1 5t1 4.5t0.5 3q2 5 5.5 6.5t6.5 2.5t5 3.5t2 11.5q0 7 -2.5 9t-5.5 2.5t-6 2t-5 6.5q-3 9 -4 21t-2 24.5t-1 24.5v21v8q1 1 2 1.5l1 0.5q4 0 5.5 -3.5t1.5 -6.5q0 -5 0.5 -14t0.5 -18t0.5 -15l0.5 -6q0 -10 2 -18.5t2 -18.5q1 0 3 -0.5zM197 96
q0 2 -1.5 6.5t-3 10t-3 10.5t-1.5 7q-2 7 -2 13h8l0.5 -1.5t1.5 -1.5q1 -6 3.5 -12.5t4.5 -13t3.5 -13.5t1.5 -13q0 -10 -5.5 -15.5t-11.5 -8.5t-11 -5t-5 -6t3.5 -6t8 -4.5t8 -5.5t3.5 -9q-5 0 -9.5 1.5t-8 4t-6.5 6.5t-7 8v5q0 6 3 10t5 10q0 1 -0.5 3l-1 4t-1 4.5
l-0.5 2.5q-1 5 -2.5 11t-2.5 12l-2 12t-1 9q0 2 0.5 3.5t2.5 1.5l1.5 -0.5l1.5 -0.5q5 -15 9 -29.5t6 -29.5q0 -1 1 -1.5t2 -0.5h2l3.5 3.5t2.5 3.5v15zM129 133q1 1 2 1.5t2 0.5q2 0 3 -3.5t2 -8.5t1.5 -9.5t1.5 -6.5t4 -3t6.5 -2t6.5 -2t4 -4q0 -3 -1.5 -3.5t-2.5 -0.5
q-4 0 -6.5 2t-6.5 2q-2 0 -3 -1t-1 -3v-3.5v-3.5v-7q1 -3 3.5 -3.5t5.5 -1t5 -1.5t2 -4q0 -1 -0.5 -2.5t-1.5 -1.5h-1q-1 0 -2 0.5t-2.5 1t-2.5 0.5h-1h-2h-2t-1 -2v-11q0 -3 3 -4t6.5 -1.5t6.5 -1t3 -3.5t-1 -4t-4 -1q-2 0 -5 1t-5 1h-2.5t-1.5 -2v-21q0 -1 -1.5 -2
l-1.5 -1q-1 -1 -2 0l-2 2t-2 2.5l-1 1.5v25q-1 0 -3.5 0.5t-5.5 1t-5.5 1t-3.5 0.5q-2 1 -3.5 2t-1.5 3t1 2.5t3 0.5q4 0 7.5 -0.5t7.5 -0.5h4q1 1 1.5 2t0.5 2q0 5 -2 8t-5.5 4.5t-7.5 2.5l-8 2l-0.5 1.5l-0.5 1.5q0 3 1 3.5t3 0.5q5 0 8 -2.5t7 -2.5l0.5 0.5l0.5 0.5
q0 1 0.5 4t0.5 4q0 10 -4 12.5t-8.5 3.5t-8.5 2t-4 7q0 2 2 2h3q4 0 7.5 -2t7.5 -2q2 0 3.5 3t1.5 7v8t-1 5z" />
</svg>
