<?xml version="1.0" standalone="no"?>
<!DOCTYPE svg PUBLIC "-//W3C//DTD SVG 1.1//EN" "http://www.w3.org/Graphics/SVG/1.1/DTD/svg11.dtd" >
<svg xmlns="http://www.w3.org/2000/svg" xmlns:xlink="http://www.w3.org/1999/xlink" version="1.1" viewBox="-10 0 266 256">
   <path fill="currentColor"
d="M74 247q0 2 1.5 3t3.5 1q3 0 5.5 -2.5t2.5 -6.5v-57l-1 -1q1 -7 1 -13.5v-13.5t0.5 -13.5t1.5 -13.5h0.5h1.5q2 0 3.5 5t3 11t2 12t0.5 7v4v5v5.5v2.5q0 1 0.5 4t0.5 6t0.5 5.5t0.5 3.5v16q0 1 1.5 1.5l1.5 0.5q3 -1 4.5 -3t2 -4t0.5 -5v-5q0 -4 -0.5 -11t-1 -15
t-1.5 -16.5t-2.5 -16.5t-4 -14t-5.5 -9q-1 0 -2.5 -0.5l-3 -1l-3 -1t-1.5 -2.5v-18q0 -1 2.5 -1.5t6 -1.5t6.5 -2t3 -2q2 -1 3 -7t1.5 -13.5t0.5 -15v-9.5v-3t-0.5 -4t-2 -3t-3.5 -1t-3.5 1.5t-1.5 4.5v1.5v0.5v5t0.5 8.5t0.5 8.5v5v1q0 2 -0.5 4.5t-1.5 5.5t-3 4.5t-4 0.5
q-3 0 -3.5 -1.5t-0.5 -2.5q0 -12 1 -24t1 -23v-5v-6.5v-6.5v-4q0 -2 -3 -2h-3h-1h-2t-2 0.5t-1 1.5v62v3t-1 4.5t-2 4t-2 1.5q-5 0 -7 -6.5t-2.5 -15.5t-1 -17t-2.5 -11h-2h-1h-4t-4 1v3v3q0 3 0.5 10.5t1.5 15.5t4 15t7 9q1 0 3 0.5t4 0.5t4 0.5t4 1.5q1 4 1 7v7
q0 3 -1.5 4.5t-3 2t-4 1t-4.5 1.5q-6 5 -8.5 12.5t-4 16t-1.5 17t-1 15.5v3.5t-1 7t-1.5 7l-0.5 3.5v4.5v4.5v5v5q2 3 5 3q4 0 6 -2.5t2.5 -6.5t0 -8t-0.5 -6q0 -3 0.5 -9t1 -12.5t1 -12.5t1.5 -8t1.5 -7.5t1.5 -11.5t3 -10.5t5 -4.5q2 0 2.5 1t0.5 4v71q-2 5 -2.5 10
t-0.5 10.5t0.5 11.5t-0.5 11v1v2zM120 237v5t3 2q5 0 7.5 -6.5t3.5 -15.5t1.5 -17t1.5 -11v-72q0 -4 1.5 -9t5.5 -7q2 -1 6.5 -2l9 -2t8.5 -2t6 -1q2 -1 6.5 -1.5t9.5 -1.5t8.5 -3t4.5 -6q1 -1 1.5 -4l1 -6t1 -5.5l0.5 -2.5v-2v-3v-3v-3v-9t-0.5 -12.5t-2.5 -11.5t-6 -5
l-1 0.5t-2 1.5l-0.5 0.5l-1.5 1.5v0q0 10 1 20t1 20v15q0 5 -4 7.5t-10 4t-13 2l-14 1t-12.5 2.5t-8.5 6q-1 2 -2 4.5t-2 5.5t-1.5 5.5t-1.5 4.5v2v2q1 1 1 3.5t1 5.5t1.5 5.5t0.5 3.5q-3 8 -3.5 14.5t-0.5 16.5v3v4v3v2l2 2l-2 2l-0.5 5t-1.5 11.5t-2 13.5t-2 11v5z
M146 146q0 1 0.5 5.5t0.5 9t0.5 9t0.5 6.5v8q0 5 0.5 9.5t1.5 8.5t4 7q1 1 2.5 1.5l3 1t3 0.5t2 0.5t3 1.5t2.5 2h6q4 0 8.5 -1t8.5 -3t6.5 -5.5t2.5 -9.5v-48q0 -2 -1 -5.5l-2 -7t-3 -6.5t-4 -4q-1 0 -3.5 -0.5t-3.5 -0.5q-5 0 -8.5 1.5t-7.5 2.5q-5 1 -9 1.5t-6.5 2
t-4.5 4.5t-3 9zM161 193v-5t3 -3h26l0.5 1.5t1.5 2.5v1q0 6 -2 9t-5 4.5t-8 2t-10 0.5q-3 0 -4 -1.5t-1.5 -3.5t-0.5 -4v-4zM157 164l4 -4l2.5 -0.5t6.5 -1t7.5 -0.5t6.5 -1h1.5h1.5q7 0 7 7q0 4 -1.5 7t-4.5 5h-6t-8.5 0.5t-8.5 1t-8 1.5v-15zM157 146q0 -4 3 -6.5t7 -4
t8 -1.5h7q4 0 6 1.5t2 4.5q0 6 -3.5 8t-8.5 2.5t-10 0.5h-8q-2 0 -2.5 -1.5t-0.5 -3.5zM120 87q0 1 0.5 2t1.5 1q6 0 9.5 -3.5t6.5 -8t6.5 -8t8.5 -3.5q2 0 3 0.5t3 2.5q1 1 3 2.5t4 3.5l4 4l2 2q1 0 2 0.5l1 0.5q3 0 4.5 -1.5t0.5 -4.5q0 -3 -3.5 -6.5t-8.5 -7t-10 -6
t-7 -2.5q-3 0 -5 1.5t-3.5 4t-3.5 4.5t-3 4q-1 1 -3 3.5t-5 5t-5 5t-3 2.5v2zM122 55v0q0 1 0.5 1.5l0.5 0.5h1v0q5 0 8.5 -3t6.5 -7t6 -7t7 -3t7.5 2t6.5 4.5t6 5.5l5 5h1q3 0 4.5 -2t1.5 -5q0 -2 -0.5 -2.5t-3.5 -2.5q-1 -1 -4.5 -3.5t-8 -5.5t-8 -5.5t-5.5 -3.5
l-0.5 -0.5l-0.5 -0.5q-2 0 -7 4t-10.5 9.5t-9.5 10.5t-4 8z" />
</svg>
