<?xml version="1.0" standalone="no"?>
<!DOCTYPE svg PUBLIC "-//W3C//DTD SVG 1.1//EN" "http://www.w3.org/Graphics/SVG/1.1/DTD/svg11.dtd" >
<svg xmlns="http://www.w3.org/2000/svg" xmlns:xlink="http://www.w3.org/1999/xlink" version="1.1" viewBox="-10 0 266 256">
   <path fill="currentColor"
d="M75 245q0 3 0.5 4t3.5 1t5 -2.5t2 -5.5v-116q0 -4 0.5 -4.5t3.5 -0.5q2 0 3.5 3.5t3 8.5t2 11l1 12t1 11t0.5 7v40q0 3 1.5 5t3.5 2t2.5 -1.5l1 -3t1 -3.5l0.5 -2q0 -24 -3 -48t-8 -46l-1 -2q-1 0 -2.5 -1l-3 -2l-3 -2l-1.5 -1l-1 -2v-17q8 -1 12.5 -6.5t6.5 -12.5
t2.5 -15.5t0.5 -14.5v-5q0 -3 -1 -5q-1 -1 -2 -1h-3q-1 0 -2 0.5t-1 2.5q1 5 1 10q0 4 -0.5 8l-1 8t-1.5 10q-1 3 -2.5 6.5t-5.5 3.5h-2t-1 -1q0 -16 -1.5 -32t-0.5 -32l-1.5 -0.5l-1.5 -0.5h-1h-0.5h-0.5q-2 1 -3.5 3.5t-1.5 4.5q0 5 1.5 10.5t2.5 10.5v8q0 5 -0.5 10.5
t-0.5 11v7.5q-6 0 -9 -0.5t-5 -3t-2.5 -6l-1.5 -10.5q-1 -1 -1 -4t-0.5 -6.5t-1 -6.5t-0.5 -4q-2 -2 -4.5 -2.5t-4.5 -0.5v3q0 3 0.5 5t0.5 4v3q0 2 0.5 6.5l1 9t2 8.5t2.5 5q3 3 6.5 5t7.5 3.5t7 3t3 3.5v2q0 1 -0.5 3t-0.5 4t-0.5 3.5t-0.5 2.5q-4 2 -10 4t-9 7
q-2 3 -3.5 10t-2.5 15.5t-2 19t-1.5 19.5t-1 17t-0.5 12v8q1 1 2 1h2q3 0 4 -1t1.5 -3t0.5 -4v-4q0 -4 0.5 -12t1 -17.5t1 -18t0.5 -11.5q1 -3 1.5 -8.5t1.5 -10.5t3.5 -9t8.5 -4l1 0.5l1 0.5l2 7q-2 28 -3.5 58.5t-1.5 59.5zM124 245q1 4 4 4q4 0 4.5 -2.5t0.5 -4.5v-6
q0 -1 -0.5 -3t-0.5 -5t-0.5 -5l-0.5 -2q0 -3 0.5 -8t0.5 -10.5t0.5 -10.5t0.5 -7q1 -1 1.5 -5.5t1 -9.5t0.5 -10t1 -8q2 -3 5 -5.5t6.5 -5t6.5 -4t6 -3.5q2 -1 2.5 -3.5l1 -5t0.5 -5t1 -3.5q0 -2 4 -3t8 -1q5 0 10.5 0.5t9.5 0t7 -2t3 -5.5q0 -1 -0.5 -2.5t-2.5 -1.5
q-1 1 -5.5 1.5l-9 1t-8.5 1t-5 0.5h-2h-4t-3.5 -0.5l-1.5 -0.5v-11q0 -1 0.5 -1.5l0.5 -0.5q3 -2 6.5 -2.5t7.5 -0.5t7.5 0.5t5.5 0.5t4 -1.5t2 -4.5q0 -2 -1 -2.5t-3 -0.5h-5t-5 2h-16.5t-15 0.5t-14.5 2t-15 3.5q-1 0 -2 0.5l-1 0.5v0.5v0.5q0 2 2.5 2.5t3.5 0.5
q5 0 9.5 -1.5t9.5 -1.5q1 0 4 0.5t4 0.5q1 1 2 2.5l1 1.5q0 1 -0.5 2.5t-0.5 3.5t-0.5 3.5l-0.5 1.5l-1 2h-4t-6.5 0.5t-6.5 0.5h-4q-2 0 -4.5 0.5l-5 1t-4.5 2.5t-2 5q10 0 19 -1t19 -1q0 6 -2.5 9.5t-6.5 7t-8 6.5t-8 8q-4 6 -6 17t-2 23v23.5v18.5v3t0.5 4.5t0.5 4.5v3z
M144 173q0 2 1.5 3t3.5 1h24q4 0 5 5t1.5 13t0.5 17t0.5 17t2 13t5.5 5h2t2 -2v-9q0 -8 -1 -15.5l-2 -15l-2 -15t-1 -15.5q0 -2 1.5 -4t3.5 -4t3.5 -4t1.5 -5v-18l-11 -11h-13q0 3 2.5 5t5.5 4t5.5 5t2.5 8q0 3 -0.5 5.5t-4.5 2.5q-3 0 -4.5 -2.5t-3.5 -5.5t-5 -5.5t-8 -2.5
h-1l-0.5 1.5t-1.5 1.5v1v1l16 15v6q-7 1 -14.5 1.5t-15.5 0.5l-0.5 0.5l-0.5 0.5v1zM125 51q0 3 0.5 7.5t2 9t3.5 8t5 5.5q2 -1 2.5 -2t0.5 -3q0 -4 -1 -7l-2 -6l-2 -6t-1 -7t3.5 -6.5t7.5 -2.5q2 0 5 1q0 3 1 8.5t2.5 11.5t3.5 10.5t5 5.5q1 0 2 -0.5t1.5 -1.5t1 -2.5
l0.5 -1.5q0 -4 -1.5 -7.5t-3.5 -7t-3.5 -7.5t-1.5 -8q0 -1 0.5 -2.5t2.5 -1.5h13q2 0 3 2.5t1.5 6t1.5 8t2.5 8.5t3.5 6.5t6 2.5q2 0 3 -1t1 -4l-0.5 -1.5t-1.5 -1.5q-3 -6 -5.5 -11.5t-5.5 -11.5q0 -4 3.5 -4.5t5.5 -0.5t4 1t4 1q1 0 3 -1.5t2 -2.5q0 -3 -1.5 -4t-4 -1.5
t-5 -0.5h-4.5h-10.5t-13.5 0.5t-14 1.5t-12.5 3.5t-9 7t-3.5 10.5z" />
</svg>
