<?xml version="1.0" standalone="no"?>
<!DOCTYPE svg PUBLIC "-//W3C//DTD SVG 1.1//EN" "http://www.w3.org/Graphics/SVG/1.1/DTD/svg11.dtd" >
<svg xmlns="http://www.w3.org/2000/svg" xmlns:xlink="http://www.w3.org/1999/xlink" version="1.1" viewBox="-10 0 266 256">
   <path fill="currentColor"
d="M132 175q0 19 -2 38.5t-2 38.5q1 0 3.5 -0.5t3.5 -0.5l0.5 -0.5l0.5 -0.5q1 -10 1.5 -20t0.5 -20.5v-20.5v-19q1 -1 2 -1h2q4 0 7.5 2t6 6t4.5 8t3 7l5 39v0h1q3 0 4 -2.5t1 -5.5v-3q0 -2 -0.5 -6t-1 -9t-1 -9t-0.5 -6q-2 -2 -3 -4.5t-2 -4.5t-2.5 -4.5t-3.5 -4.5
t-5.5 -4t-6.5 -4t-5 -4.5t-2 -5.5t1 -4t4 -2h4.5h5.5q8 0 16 1t16 1q2 0 3.5 -1.5t1.5 -3.5t-1.5 -3t-3.5 -1h-46q-1 0 -1.5 -1t-1 -2.5t-0.5 -3.5v-2q0 -2 0.5 -4t2.5 -3q10 1 17.5 0.5t12.5 -3.5t7.5 -9t2.5 -16v-8q0 -3 -1.5 -3h-2.5h-2.5t-1.5 1q1 15 -4.5 21t-19.5 6
h-4h-4q-1 -1 -2 -3t-1 -3v-2q1 -1 1.5 -3.5l0.5 -2.5l12 -13q1 0 1.5 -3.5t0.5 -5.5v-3v-4v-4v-3q1 -1 4 -2t4 -1h38q1 0 1 -1.5v-2.5q0 -2 -1.5 -2.5t-3.5 -1.5h-4h-7h-6h-4q-2 0 -4.5 -0.5t-2.5 -1.5v-1v-1q0 -4 1 -8t1 -8q0 -2 -0.5 -4.5t-3.5 -2.5q-4 0 -4 4.5v10.5
q0 5 -1.5 9.5t-7.5 4.5q-1 0 -2.5 -0.5t-3.5 -0.5t-3.5 -1t-1.5 -2v-39l-1 -0.5l-1 -0.5h-0.5h-0.5h-0.5h-0.5l-1 1l-2 2v6t-0.5 9t-0.5 9v6v9q-2 1 -3.5 1.5t-3.5 0.5q-1 0 -4 -0.5t-3 -3.5v-37q0 -1 -0.5 -1.5t-1.5 -0.5l-1.5 0.5t-1.5 1.5q-1 0 -2 0.5l-1 0.5v36
q0 3 -1.5 4t-4 2t-5 1h-4.5h-2t-2 -1l-3 -3v-17q0 -1 -2 -3.5t-3 -2.5t-2 0.5t-1 1.5v25h-24q-2 0 -4 3t-2 5q0 3 1 3.5t4 0.5q10 0 19.5 -1.5t18.5 -1.5q2 0 4 0.5t3 2.5q1 9 3 14t5 8t6.5 3.5t6 0.5t4.5 1t2 3v14l-2 1l-2.5 0.5t-3.5 0.5h-7h-8t-7.5 -1t-5.5 -3t-2.5 -5
t-1.5 -6.5t-2.5 -6t-4.5 -2.5t-4 2.5t-1 5.5q0 8 4 12.5t9.5 7t12.5 4t12.5 1.5t9.5 0.5l4 0.5v16h-55l-2.5 0.5t-3.5 1.5q-1 0 -3 0.5l-2 0.5v1v1l2 3h10q11 0 22 -1t22 -1q3 0 5.5 1t2.5 5q0 2 -2 3l-4 2l-1.5 1t-3.5 1.5t-4 1.5l-2 1q-8 4 -12.5 10.5t-6.5 14.5t-2.5 17
t-0.5 17q0 2 1 5t4 3q1 0 2 -0.5t3 -2.5q0 -1 -0.5 -2.5t-0.5 -3.5q0 -1 0.5 -3l0.5 -2v-6v-8.5t0.5 -8.5t0.5 -5q2 -4 4 -7.5t5.5 -7t7.5 -5.5t8 -2t5.5 2t1.5 6zM138 61h2.5t3 0.5t2.5 1t1 1.5v19q0 3 -1 4.5t-3 2t-4 0.5h-4h-5.5t-7 -1t-6.5 -2.5t-3 -3.5v-17q0 -2 3 -3
t7.5 -1.5t8.5 -0.5h6z" />
</svg>
