<?xml version="1.0" standalone="no"?>
<!DOCTYPE svg PUBLIC "-//W3C//DTD SVG 1.1//EN" "http://www.w3.org/Graphics/SVG/1.1/DTD/svg11.dtd" >
<svg xmlns="http://www.w3.org/2000/svg" xmlns:xlink="http://www.w3.org/1999/xlink" version="1.1" viewBox="-10 0 266 256">
   <path fill="currentColor"
d="M175 232v0q0 1 0.5 4l1 6t1 5.5t0.5 3.5h1q3 0 4 -2t1 -5v-26t0.5 -28t0.5 -27t1 -26h1q5 0 8 1.5t4 7.5v6v9v9v6q0 13 -1 26t-1 26q0 5 4 5q2 0 3.5 -2t2.5 -4t1 -4.5v-4.5l0.5 -5.5t0.5 -12.5t0.5 -14.5t0.5 -11.5v-3v-10t-0.5 -10t-2.5 -10t-5 -9q-1 0 -3 -1t-4 -1.5
t-4 -0.5h-2q0 -2 -0.5 -5.5t-1.5 -5.5v-1v-2q0 -1 0.5 -4l1 -6t0.5 -5.5v-3.5q3 0 6 -0.5t6 -2t5.5 -3.5t3.5 -6v-5.5t0.5 -7.5t0.5 -8v-5v-2q0 -2 -1 -3.5t-3 -1.5t-4 0.5t-2 2.5v24q0 2 -1.5 4.5t-2.5 2.5q-1 1 -3.5 -0.5l-2.5 -1.5v-39q0 -3 -3 -5t-5 -2l-25 2q-3 0 -3 3
q0 2 1 3.5t2 1.5h2t2.5 -0.5t2.5 -0.5h2h1h3.5t4.5 1t3.5 2.5t1.5 3.5v27q0 2 -1 4t-2 3q-8 -1 -10 -5t-2.5 -8.5t-0.5 -8.5t-3 -4q-2 0 -3 1.5t-1 3.5v2q0 1 0.5 4l1 6t0.5 5.5v3.5q2 2 4.5 3.5t5.5 2.5t5 2t3 2v6.5t0.5 9t0.5 8.5v6v2q0 1 -3 2.5t-7.5 4t-8.5 7t-5 11.5
l-3 33q0 2 -1.5 2h-2.5q-3 0 -6.5 -6.5t-6 -14.5t-4 -15.5t-1.5 -9.5q0 -18 2 -36t3 -35q0 -2 -0.5 -6t-0.5 -9v-9q0 -5 1 -6v-2t1 -4t1.5 -3.5t0.5 -2.5v-1q0 -3 -2 -4.5t-5 -1.5q-4 0 -4 2v7q0 1 -0.5 7.5t-1 13.5t-0.5 13v7v11q-1 20 -2.5 40t-2.5 41q0 1 -1 3.5t-2 6
t-2 6t-1 3.5q-1 2 -3 4.5t-4.5 5.5t-4 5.5t-1.5 4.5q0 3 1 3.5t3 0.5q5 0 8 -5t5.5 -10.5t4 -10.5t4.5 -5q2 0 4 2t3.5 4.5t2.5 5.5t3 5q0 1 2 2l4 2l4 2l2 1v25h3t3 -2q0 -3 0.5 -10.5t1.5 -16t1.5 -15.5t0.5 -10q0 -2 0.5 -5t1 -7t1 -7.5t0.5 -4.5q1 -1 3 -4t3 -3l1 -0.5
l1 -0.5q1 0 2 0.5t1 1.5v33q0 15 -0.5 28.5t-0.5 28.5zM67 243q0 1 1.5 3t2.5 2q2 0 4 -1.5t2 -3.5q1 -15 1 -30.5v-30.5t1 -30t3 -30h1q3 0 4.5 3.5t2.5 8.5t1 9.5v6.5q0 17 -2 33.5t-2 33.5q0 3 0.5 5t2.5 2h1.5h1.5q4 -17 3.5 -34t-0.5 -33v-6v-7v-6v-2q0 -1 -0.5 -3
t-1 -5t-1 -5.5t-0.5 -4.5q-1 -3 -3 -5.5t-4 -4.5t-3 -4.5t-1 -6.5t1.5 -6t4 -3l5 -2t5.5 -4q6 -9 7 -19.5t1 -21.5v-2.5v-3.5l-1 -0.5l-1 -0.5l-0.5 -0.5l-0.5 -0.5q-2 0 -3 3.5t-2 9t-1.5 11.5t-1.5 11.5t-3 8.5t-5 3h-2t-2 -2v-3v-5v-5v-4v-12t0.5 -10.5l1 -11t2.5 -12.5
q-2 -2 -3.5 -2h-3.5h-3q-1 0 -2 2q0 3 -0.5 11.5t-1 17.5t-1 17.5t-0.5 11.5q0 1 0.5 2.5t0 3t-1 2.5t-2.5 1q-5 -1 -7.5 -5t-3.5 -9.5t-1 -11.5v-12t-1 -8.5t-5 -3.5q-2 0 -3.5 2t-1.5 5q0 11 2 22t3 23q1 1 4.5 2t7 2.5t6.5 3t3 2.5v12q0 2 -1.5 3t-4.5 2t-5 2t-3 2
q-5 4 -7.5 10t-4 13.5t-1.5 15v12.5v30v29q0 1 2 2.5t3 1.5l1.5 -2.5l1.5 -2.5q1 -11 1 -23t0.5 -25t1.5 -25.5t3 -23.5q1 -3 3 -5t5 -2q2 0 3.5 0.5t1.5 2.5q0 30 -2.5 60t-2.5 60zM142 137l2 2l5 -5v-43q0 -2 -1.5 -2h-2.5v0h-1l-2 7v41zM104 134q0 1 1 1.5t2 0.5
q2 0 3 -0.5t2 -1.5q1 -5 1 -9t0.5 -7.5t0.5 -7.5v-8v-13q-1 -2 -2 -2h-2h-1.5h-1.5q0 11 -1.5 20t-1.5 19v8z" />
</svg>
