<?xml version="1.0" standalone="no"?>
<!DOCTYPE svg PUBLIC "-//W3C//DTD SVG 1.1//EN" "http://www.w3.org/Graphics/SVG/1.1/DTD/svg11.dtd" >
<svg xmlns="http://www.w3.org/2000/svg" xmlns:xlink="http://www.w3.org/1999/xlink" version="1.1" viewBox="-10 0 266 256">
   <path fill="currentColor"
d="M186 249q0 1 1.5 1.5t2.5 0.5q4 0 5.5 -3.5t1.5 -6.5v-5q0 -2 -0.5 -7.5l-1 -11t-1 -10.5t-0.5 -6q-1 -5 -3 -11t-2 -11q0 -3 1 -5t3 -4.5t3 -4.5t1 -5q0 -5 -3 -8.5t-7 -3.5v18l-6 3q-7 -5 -15 -10t-18 -5q0 5 3.5 7t7 3.5t6.5 3.5t3 7q0 1 -2 2.5t-5 2l-6 1t-5 0.5
q-3 0 -4.5 -2.5t-3 -4.5l-3 -4t-4.5 -2h-1h-1q1 10 5.5 15.5t15.5 5.5q1 0 2 -0.5l1 -0.5q1 0 3.5 -0.5t5.5 -1.5t5.5 -1.5t3.5 -0.5v0h1q1 0 2 0.5l1 0.5q4 7 5.5 15t2 16.5t0 17t-0.5 15.5zM74 246q1 1 2 1.5t2 0.5q3 0 4 -2t2 -5t1 -5.5v-3.5v-106q0 -3 1.5 -3.5
t2.5 -0.5q3 0 5 4.5t3.5 11t2.5 14t1.5 15t1 13.5t0.5 8q0 9 -1 18t-1 18q0 4 0.5 5t4.5 1h2.5t2.5 -2q1 -3 1 -5.5t0.5 -5t0.5 -5.5v-6v-19t-1 -22.5t-3 -22.5t-6 -19q-1 -2 -4 -4l-6 -4t-5.5 -3.5t-2.5 -3.5l2 -15q0 -2 1.5 -2.5l3 -1l3 -1t2.5 -0.5q1 -1 2.5 -3t3 -3.5
t2.5 -3l1 -1.5q1 -2 1.5 -5.5t0.5 -7v-7.5v-5v-2v-4v-4v-2q-2 -2 -2.5 -3t-2.5 -1q-1 0 -2 0.5t-1 1.5q0 2 -0.5 6.5t-0.5 9.5t-0.5 9.5t-0.5 6.5t-0.5 3.5t-1.5 3.5t-2.5 3t-3.5 1h-1.5t-1.5 -1v-3v-3q0 -9 1 -18.5t1 -19.5v-3v-5t-0.5 -5.5t-0.5 -3.5q0 -2 -1.5 -2.5
t-3.5 -0.5h-3t-1 3q0 16 -0.5 32t-1.5 32h-2q-4 0 -6 -3.5t-3 -8.5t-1 -10.5t-1 -10.5t-2.5 -8.5t-4.5 -3.5q-1 0 -2 0.5t-1 1.5v5q0 7 0.5 14.5t2.5 15t6.5 12.5t12.5 6l1 3l-1 19q-10 0 -14 3.5t-5.5 8.5t-2 10.5t-2.5 11.5q0 9 -0.5 18.5l-1 19t-1.5 19.5t-1 19h10
l0.5 -3t1.5 -5q0 -1 0.5 -3.5t0.5 -5.5v-5.5v-2.5v-19q0 -2 0.5 -6t0.5 -8.5t0.5 -9t0.5 -5.5v-3t0.5 -4.5t1 -4.5t0.5 -3v-3t0.5 -4t1.5 -3t3 -1q3 0 4.5 1.5t2 3.5t1 4.5t0.5 4.5q0 3 -0.5 5t-1.5 5v75q-2 5 -2 8v7v3v3zM136 209q0 1 0.5 2t1.5 1t3.5 0.5t3.5 0.5
q3 0 8 -0.5l10 -1t9.5 -2.5t5.5 -5l-2 -1h-2h-4q-8 0 -15.5 0.5t-16.5 2.5q-1 0 -1.5 1t-0.5 2zM198 136v17q0 1 1.5 1.5t2.5 0.5q2 0 5.5 -1.5t3.5 -4.5q0 -1 -0.5 -3l-0.5 -2q0 -1 -0.5 -2.5t-0.5 -3.5t-0.5 -3.5t-0.5 -2.5q-1 -8 -1 -15t-0.5 -14t-0.5 -14t1 -16
q-1 -1 -2 -1h-1q-3 0 -4 2t-1 5v5t-2 2h-18q-1 0 -1.5 -1.5t-1 -3.5t-0.5 -3v-2v-6q3 -2 6 -5t5.5 -6.5t4.5 -7t2 -7.5q0 -6 -4 -9.5t-7 -5.5q-1 0 -1.5 -0.5t-1.5 -0.5q-2 0 -3 0.5t-1 3.5q0 2 1 3.5l2 3t1.5 3.5t0.5 4q0 3 -1 5.5t-5 2.5v0v0l-3 -3q-4 -4 -8 -6t-7 -7
q-1 -2 -1 -6q0 -5 -0.5 -9.5t-1.5 -8t-4 -3.5t-3.5 2t-0.5 4v4q0 1 0.5 4.5l1 7l1 7t0.5 5.5q1 1 4 3l6 4t5.5 4t2.5 5q0 2 -2 3t-5 1h-6h-4h-3h-3q-2 -1 -3 -3.5t-2.5 -5t-3 -4t-4.5 -1.5q-1 0 -2.5 0.5t-1.5 1.5q0 4 2 8t5 6.5t7 4t7 1.5h3h1.5t3.5 -0.5t3.5 -0.5h2.5
q2 0 3.5 1.5t2 3.5t0.5 4v3v5v5.5v6.5v4h-17q-4 0 -5 -3t-1 -7t-0.5 -7.5t-3.5 -3.5q-1 0 -2.5 0.5t-2.5 1.5v2.5t-0.5 4t-0.5 4v2.5v7v11v11.5v7.5q-2 3 -2.5 5.5t-0.5 6.5q0 2 0.5 3t2.5 1t3.5 -2t2.5 -4t1.5 -4.5t0.5 -4.5h3.5t5 -0.5t5 -0.5h3.5q5 0 6.5 1.5t1.5 3.5v4
t4 2q2 0 2.5 -2l1 -4t1 -3.5t1.5 -1.5h20zM144 122q0 -2 1.5 -3.5t3.5 -2.5t4.5 -1h4.5h5q1 0 2.5 0.5l1.5 0.5v12h-21q-2 0 -2 -2.5v-3.5zM176 122q0 -6 4.5 -8.5t9.5 -2.5q1 0 4 1t3 3v11l-1 1t-2 1h-2.5h-4.5h-3t-4 -0.5t-3 -2t-1 -3.5zM176 97q0 -3 3 -3h4h4q3 0 5 0.5
t3.5 1.5t1.5 3t-0.5 2.5l-2.5 2.5h-3h-3h-4t-4 -1t-3 -2t-1 -4z" />
</svg>
