<?xml version="1.0" standalone="no"?>
<!DOCTYPE svg PUBLIC "-//W3C//DTD SVG 1.1//EN" "http://www.w3.org/Graphics/SVG/1.1/DTD/svg11.dtd" >
<svg xmlns="http://www.w3.org/2000/svg" xmlns:xlink="http://www.w3.org/1999/xlink" version="1.1" viewBox="-10 0 266 256">
   <path fill="currentColor"
d="M153 245q0 2 1.5 4t3.5 2h1q2 -1 5 -3t3 -4v-1q0 -1 -0.5 -3t-0.5 -5t-0.5 -5t-0.5 -3v-1v-1q0 -7 0.5 -12t1 -10.5t0.5 -11.5v-12q0 -1 0.5 -1.5l0.5 -0.5h1h1l3 0.5t6.5 0.5t6.5 0.5t4 0.5h3q4 0 7.5 -2.5t3.5 -7.5h-34l-3 -1q0 -1 -0.5 -2.5t-0.5 -2.5q0 -4 2 -6
t5 -3.5t7 -2.5t6.5 -3.5t5 -7t2.5 -12.5q0 -1 -0.5 -4t-0.5 -4q-2 -3 -5 -3q-1 0 -3 0.5t-2 2.5v19q0 1 -1.5 2t-3.5 2l-4 2t-3 1t-2.5 -0.5t-1.5 -1.5v-17q0 -3 2.5 -5t6 -5.5t6 -9t2.5 -14.5q1 0 2.5 -0.5l3 -1t2.5 -1.5t1 -3q0 -1 -1 -2t-2.5 -1h-3h-2.5h-5t-9.5 0.5
t-11.5 1t-11 1t-8.5 1.5t-3.5 2t0.5 1.5l0.5 0.5h1t2.5 0.5t2.5 1t1.5 1.5t0.5 3.5t1 5.5t1 6t1 4q0 2 2 3t3.5 2l3 2t1.5 2v19l-1 3q0 1 -2 1h-3q-7 0 -9.5 -2t-3.5 -5t-1.5 -7.5t-2.5 -9.5q0 -1 -1 -1.5t-2 -0.5l-1 0.5t-2 1.5v2v3q0 12 5 17.5t11 7.5t10.5 2.5t4.5 3.5v3
t-0.5 3.5l-1 3t-1.5 1.5l-30 3q-1 0 -2.5 1.5t-1.5 3.5q0 1 1 1.5l2 1t2.5 0.5h2.5q4 0 8.5 -1t9.5 -1q2 0 3.5 0.5l1.5 0.5l3 2v29q-2 3 -2.5 7t-0.5 8.5t0.5 9t-0.5 8.5v0.5v1.5zM83 118q0 7 -1.5 13t-1.5 14v6v9v10v5q0 7 -1 15t-1.5 16.5t-1.5 16.5t-1 16q5 0 8 -2.5
t4 -6t0.5 -8t-0.5 -9.5v-9.5t1 -7.5q1 -21 1 -41.5t2 -40.5q0 -1 1.5 -1.5t2.5 -0.5q2 0 3 0.5t2 3.5q2 10 3 23.5t1.5 27.5t0.5 27v24q0 2 0.5 2.5t2.5 0.5q3 0 4.5 -4t1.5 -7q0 -22 -1.5 -44.5t-2.5 -43.5q0 -1 -1 -4.5t-1 -5.5q-1 -3 -3.5 -4.5l-5 -3t-4.5 -2t-2 -1.5
v-14l1 -0.5l1 -0.5q3 -1 5 -2l4 -2t3.5 -2.5t2.5 -4.5q0 -2 0.5 -6t1 -8.5t0.5 -8.5t1 -6v-4q0 -2 -0.5 -3.5t-3.5 -1.5h-2.5t-1.5 1q0 8 -0.5 17t-1.5 17q-1 3 -2 3.5t-5 0.5h-3.5t-1.5 -3q0 -13 1.5 -26.5t1.5 -26.5q0 -3 -0.5 -5t-3.5 -2h-3.5t-2.5 2v63h-5t-5.5 -0.5
t-4.5 -2t-3 -5.5l-3 -27q0 -2 -1.5 -2.5t-3.5 -0.5t-3 2t-1 4q0 3 0.5 9t2 12.5t3.5 11.5t6 7h3t4.5 0.5t4.5 0.5h2q1 0 2 0.5t1 1t0.5 3l0.5 2.5q0 5 -2 7.5t-4.5 3.5t-6 2t-6.5 2.5t-5 4.5t-3 8q0 2 -1 8t-1.5 13t-1.5 13t-1 8q0 4 0.5 8t-1.5 8q0 2 -0.5 6.5t-0.5 10
t-0.5 10t-0.5 6.5v1v1l0.5 1t1.5 2l2 1t3 0l2 -6l0.5 -6.5t1 -15.5t1 -18.5t0.5 -16.5q1 -5 2 -8t2 -7q0 -3 0.5 -8.5t1.5 -10t3.5 -8t7.5 -3.5h3t2 1v3v3zM151 112v-17l2 -2h3t8 -0.5t7 -0.5h2h2h2t2 1q0 2 -1 5t-2 6.5t-2.5 5.5t-2.5 2h-20zM190 48q4 2 5.5 6.5t2 11
t0.5 13.5v13t1.5 10.5t4.5 5.5q2 0 3 -1.5t1 -3.5v-4v-3v-10t-1 -11q-1 -3 -1.5 -8t-1 -9.5t-1.5 -8l-1 -3.5l-6 -6h-25q-2 0 -2.5 -1t-0.5 -3v-2q0 -1 0.5 -3t0.5 -4.5t0.5 -4.5l0.5 -2v-1q0 -7 -6 -7q-4 0 -4.5 3.5t-0.5 5.5q0 3 1 5.5t1 5.5q0 5 -4 7t-9.5 3t-11.5 3
t-10 8q0 2 -0.5 7.5t-1.5 11.5t-1.5 11t-0.5 7q0 1 -0.5 3.5t-1.5 3.5v2q0 2 1 4t3 2h1h1q4 -11 4.5 -19.5t1 -15t1.5 -10.5t5 -7t12 -4t21 -1h19zM143 64q0 2 2 3t5 1q2 0 8 -0.5t13 -1t12 -1.5t5 -3t-1.5 -3.5t-4.5 -1.5q-2 0 -8 0.5t-13 1.5t-12.5 2t-5.5 3z" />
</svg>
