<?xml version="1.0" standalone="no"?>
<!DOCTYPE svg PUBLIC "-//W3C//DTD SVG 1.1//EN" "http://www.w3.org/Graphics/SVG/1.1/DTD/svg11.dtd" >
<svg xmlns="http://www.w3.org/2000/svg" xmlns:xlink="http://www.w3.org/1999/xlink" version="1.1" viewBox="-10 0 266 256">
   <path fill="currentColor"
d="M76 245q0 1 1.5 2t2.5 1q2 0 3.5 -1.5t2.5 -3.5t1 -4v-3v-5.5t-1 -5.5q0 -8 -0.5 -15t-1.5 -13.5t-1.5 -13t-0.5 -14.5v-11v-18.5v-17.5v-12q6 0 9 4t4.5 9.5t2 11.5t1.5 11q0 2 0.5 8t1 13t1 15.5t1 15.5t1 12.5t0.5 8.5h1q3 0 6 -2t3 -5q0 -6 -1 -13l-2 -14
q-2 -9 -3 -18t-1.5 -18.5t-1.5 -19t-4 -18.5q-1 -2 -3.5 -3.5t-5.5 -3t-5.5 -2.5t-4.5 -1v-1v-1v-3.5t0.5 -5.5t1 -5.5t0.5 -3.5q3 0 6.5 -0.5t7 -2t6 -4t3.5 -6.5q1 -9 1.5 -16t0.5 -15v-3t-0.5 -3.5t-1.5 -3t-3 -1.5t-3 3t-1 6t0.5 6t0.5 4t-0.5 4t-1.5 6.5t-1.5 6.5
t-0.5 4q-4 6 -10 6h-1h-2t-1.5 -0.5t-0.5 -1.5v-54q0 -2 -2 -3t-3 -1q-4 0 -4 6v48q0 3 -2.5 4.5t-4.5 1.5q-4 0 -6 -3.5t-2.5 -8t-0.5 -10.5v-10.5t-1 -8t-4 -3.5t-5 3.5t-2 5.5l4 29q0 7 4 9.5t8.5 3.5t8.5 2t4 4v3q0 1 -0.5 3.5t-1 4.5t-0.5 3.5v1.5l-17 17q0 6 -3 11
t-3 11q-2 17 -3 35.5t-1 36.5v5.5v3.5l2 4h8l2 -4v-13v-19v-20v-12t0.5 -10t2 -14t4 -12.5t5.5 -5.5h1.5t1.5 2q3 32 3.5 64t0.5 64zM137 167v6v9.5v9v6.5q1 5 2 7.5t2.5 5t4 4.5t5.5 4q8 0 18 1t18.5 -1t13.5 -7.5t5 -17.5v-1.5v-1.5q0 -2 -0.5 -6l-1 -8l-1 -8t-0.5 -6
q-1 -1 -1.5 -1h-2.5q-1 0 -2.5 0.5t-1.5 2.5v38q0 1 -1 2.5t-3 2.5l-4 2t-3 1q-2 0 -5 -0.5t-5 -3.5q-1 -7 -1 -12v-12v-9v-8t0.5 -8.5t0.5 -10.5q0 -2 2 -3.5t4.5 -1.5h5.5h3q4 0 7.5 1t7.5 1q2 0 4 -1.5t2 -4.5l-0.5 -1.5t-1.5 -1.5h-30q-3 0 -4 -2t-1.5 -4.5t0 -5.5
t0.5 -5v-6t3 -6h1q3 0 6 2t5.5 5t5.5 5.5t5 2.5q3 0 3.5 -2t0.5 -4q0 -6 -4.5 -8.5t-10.5 -4.5t-10.5 -4t-4.5 -5v-14q0 -1 2.5 -2t6.5 -2t8.5 -3t8.5 -5.5t6.5 -9t2.5 -14.5v-5v-6q-2 -6 -5 -9t-9 -5q-1 0 -5.5 -0.5l-9 -1t-9 -0.5h-6.5h-1v0q-2 0 -6 1t-7.5 1.5t-6.5 1
t-4 0.5q-2 0 -5 0.5t-6 2t-4.5 3.5t-1.5 5q4 0 8.5 -1t9.5 -1h2v5q1 1 1 3t0.5 4.5t0.5 4.5v2v3.5v4.5v5.5v2.5l3 4q2 -1 3.5 -3t2.5 -4q0 -2 -0.5 -6t-0.5 -8q0 -5 0.5 -9t0.5 -6q0 -1 0.5 -3.5t0.5 -3.5h2.5h2.5q6 0 8.5 4.5t4 11.5t1.5 14v11v2q-5 2 -13 3t-17 2.5
t-16.5 3.5t-11.5 6v1q0 3 2 3.5t4 0.5q5 0 10.5 -0.5t9.5 -4.5q1 0 3.5 -0.5t5.5 -1t5.5 -0.5h3.5h2h2v16q0 1 -5.5 3.5t-12.5 6t-12.5 8t-6.5 9.5l2 0.5t3 0.5q4 0 7 -3l6 -6t6 -5.5t7 -2.5v0q1 0 2.5 1.5l1.5 1.5l2 20q0 1 -1.5 3t-2.5 3q-2 0 -8.5 -0.5t-13 0t-11.5 2.5
t-5 7q9 0 17.5 -0.5t17.5 -1.5q1 -1 2.5 0t2.5 2.5t1.5 3t0.5 3.5v20v18q0 8 -2 17q-1 2 -1.5 2.5t-1.5 0.5q-7 0 -9.5 -5t-3.5 -12t-1.5 -14t-1.5 -11q-2 -2 -5 -2zM184 25q5 0 10 4.5t5 9.5q1 11 -4 18.5t-16 7.5v-36q0 -3 2 -3.5t3 -0.5z" />
</svg>
