<?xml version="1.0" standalone="no"?>
<!DOCTYPE svg PUBLIC "-//W3C//DTD SVG 1.1//EN" "http://www.w3.org/Graphics/SVG/1.1/DTD/svg11.dtd" >
<svg xmlns="http://www.w3.org/2000/svg" xmlns:xlink="http://www.w3.org/1999/xlink" version="1.1" viewBox="-10 0 266 256">
   <path fill="currentColor"
d="M189 246q0 2 1 3.5t3 1.5q4 0 5.5 -3.5t1.5 -5.5q0 -3 -0.5 -9.5t-1 -14.5t-1.5 -17t-2.5 -16t-4 -12t-4.5 -6l-16 -3q-3 -1 -3.5 -4.5t-0.5 -5.5q0 -3 2 -5t5.5 -2.5t7.5 -1.5t7.5 -1.5t6.5 -2t5 -4.5q4 -9 5 -20t1 -21v-1q0 -1 -1 -3.5t-1 -3.5t1 -3.5l1 -2.5v-2v-1
q0 -1 -1 -3l-1 -2v-22q-1 -3 -2 -4.5t-2 -2.5t-2.5 -2t-4.5 -2q-1 0 -4.5 -0.5t-7 -0.5t-7 -0.5t-4.5 -0.5h-1h-1q-1 0 -2.5 0.5t-3 0.5t-3 0.5t-2.5 0.5l-0.5 1t-1.5 2v1v1h13q1 0 1 1t0.5 2.5t0.5 3.5v1q0 5 -0.5 10t-1.5 11q0 1 -1 1h-1l-1.5 -0.5t-1.5 -1.5v-14
q0 -1 -1 -1.5t-2 -0.5h-1v0q-1 0 -1.5 0.5t-0.5 1.5v8q0 2 0.5 5t1.5 6t3.5 4.5t5.5 1.5v22l-2 3q-2 -1 -2.5 -3.5t-0.5 -5t-0.5 -4.5t-2.5 -2l-1.5 0.5l-1.5 0.5v6q0 3 0.5 5.5t2 5t3.5 4t5 1.5v22q-4 2 -6.5 7t-2.5 10v1q0 1 0.5 3l1 4t2 3.5t2.5 1.5l14 3q2 1 3.5 5
t2.5 9t1.5 10t0.5 6q0 2 0.5 5.5t0.5 7t0.5 7t0.5 4.5v19zM69 233q0 1 1.5 2l1.5 1l0.5 0.5l0.5 0.5l0.5 -0.5l0.5 -0.5q1 0 3 -1t2 -2v-115q0 -3 3 -3q1 0 2 0.5t2 2.5q3 23 3 46t1 46h6q0 -23 -1 -44.5t-1 -44.5q1 -6 -1.5 -8.5t-5.5 -3.5t-6 -1.5t-3 -4.5q0 -3 0.5 -5.5
t1.5 -6.5q2 -1 4 -1.5t4 -1.5t3.5 -2.5t2.5 -3.5q1 -5 1 -9t0.5 -7.5t0.5 -7.5v-8v-3v-3.5v-3.5v-2q0 -3 -0.5 -4t-2.5 -1h-2.5t-1.5 1v40q0 2 -2.5 3.5t-4.5 1.5v0l-1.5 -1.5l-0.5 -0.5v-62q0 -1 -1.5 -2.5t-3.5 -1.5l-1 0.5t-2 0.5q0 1 -0.5 1.5l-0.5 0.5v41l0.5 3l0.5 3
v4t-0.5 6t-0.5 5.5v3.5h-1q-3 0 -4 -1.5t-1 -3.5q-4 -8 -4.5 -17t-0.5 -17q-1 -2 -2 -3.5t-3 -1.5t-3.5 2t-1.5 4q0 9 2 21t6 21q1 1 2.5 1.5t3.5 1t3 1t2 2.5v1.5t0.5 3t1 3.5t0.5 3v1v1q0 1 -2 3.5t-4.5 5.5t-5 7t-3.5 9q-2 18 -4 38t-2 38q0 2 0.5 5t3.5 3q2 0 3 -2
t2 -3.5t1.5 -3.5t0.5 -4v-1v-1t-0.5 -2.5t-0.5 -2.5v-1q0 -17 1.5 -35t4.5 -35l1 -1.5t2 -1.5l0.5 0.5l0.5 0.5q0 27 -0.5 53t-0.5 53v8zM102 184v0q0 1 1.5 1.5l1.5 0.5h41q2 0 5 -2t3 -4q0 -3 -1 -3.5t-3 -0.5q-4 0 -7.5 1t-7.5 1t-4.5 -2.5t-0.5 -4.5v-3t0.5 -4t0.5 -3.5
t1 -1.5h13l0.5 -1t0.5 -2q1 -1 1.5 -2l0.5 -1l-2 -2l-1 -1h-15v-11q0 -2 -1.5 -3t-2.5 -1q-2 0 -2.5 1t-0.5 3l-0.5 2t-0.5 4t0.5 3.5t0.5 2.5q-1 0 -3 0.5t-4 0.5t-3.5 0.5t-2.5 0.5t-4 1t-3 3v0q0 1 1 1l0.5 0.5l0.5 0.5h13q1 0 2 1.5t1.5 3l1 3t0.5 2.5q0 2 -0.5 5
t-3.5 4q-5 0 -9 0.5t-8 4.5v0v1zM113 117q0 3 -1 6t-3 5.5t-3 5t-1 5.5q6 0 8.5 -2.5t4 -7t1.5 -9.5t1 -9.5t2.5 -7t5.5 -2.5q5 0 6.5 2.5t1.5 6v8.5q0 4 1.5 7.5t4.5 6t10 2.5q0 -3 -1.5 -5.5t-3.5 -5l-4 -5t-2 -6.5q0 -5 3 -6.5t9 0.5q0 -1 0.5 -2t0.5 -2q-2 -4 -5.5 -5
t-7.5 -2t-6.5 -3t-2.5 -6q0 -5 1.5 -6.5t3.5 -2t4 -0.5t4 -3q2 -8 3 -17t1 -17q0 -1 -1 -2.5t-3 -1.5v0v0q-1 0 -1.5 0.5t-0.5 1.5v8t-0.5 10t-2.5 9t-6 4v-49h-3.5h-3.5l-0.5 0.5t-0.5 1.5v47q0 1 -1.5 1.5l-1.5 0.5q-4 0 -5.5 -1.5t-2 -4t-0.5 -4.5v-5q0 -1 -0.5 -3
t-0.5 -5t-0.5 -5.5t-0.5 -3.5t-2 -1.5t-3 -0.5v4.5v7.5v7.5v4.5t1 4t1 4q1 4 3.5 5.5t5.5 2.5t5 2.5t2 5.5q0 6 -4.5 8.5t-9.5 4.5t-9 5t-4 8v1l0.5 0.5t1.5 0.5v0.5v0.5q3 0 5 -2.5t4 -2.5l0.5 -0.5l0.5 -0.5l0.5 0.5l0.5 0.5q1 0 1 1v7zM174 126q0 -4 2.5 -5.5t5 -2.5
l5 -2t2.5 -4v-17h-6v14q0 1 -1 1.5t-2.5 1l-3 1t-2.5 0.5q0 -1 0.5 -2l0.5 -1l0.5 -2l0.5 -2v-21q5 -1 8 -3t4 -4.5t2 -6.5t2 -10v-1v0l-2 -2t-1 -2l-3 4l-4 14q0 2 -3 2h-3q0 -5 -0.5 -10t0 -9t3 -6.5t8.5 -2.5h3t2 1l3 3q0 1 -0.5 3.5t-0.5 5.5t0.5 6t2.5 5v20v13t-1 15
t-5 12t-13 5h-1h-1l-1.5 -6t-0.5 -5z" />
</svg>
