<?xml version="1.0" standalone="no"?>
<!DOCTYPE svg PUBLIC "-//W3C//DTD SVG 1.1//EN" "http://www.w3.org/Graphics/SVG/1.1/DTD/svg11.dtd" >
<svg xmlns="http://www.w3.org/2000/svg" xmlns:xlink="http://www.w3.org/1999/xlink" version="1.1" viewBox="-10 0 266 256">
   <path fill="currentColor"
d="M150 191l2.5 -0.5t2.5 1.5v60q4 0 6.5 -3t3.5 -7t1 -8v-7q0 -7 -1 -13t-1 -13v-5v-4l1 -2h28l1.5 -1t1.5 -2q2 -1 2.5 -2t0.5 -3v-1l-1 -1.5t-2 -1.5h-33v-21q0 -2 -2.5 -2h-3.5q-3 0 -3.5 2t-0.5 4q0 3 1 5t1 5q0 4 -3.5 7t-8.5 4t-9.5 1.5t-8.5 0.5q-1 1 -1 2v2
q0 3 1 3.5t3 0.5q6 0 11 -0.5t11 -0.5zM81 191q0 1 0.5 5t0.5 5v8.5t0.5 11.5t0.5 12v8q2 0 5 -1t4 -3v-16q0 -19 -1.5 -37t-0.5 -36l-1.5 -3t-0.5 -3q0 -6 1 -13t1 -13q2 0 3.5 -0.5t4.5 1.5l0.5 2l1 4t1 3.5t0.5 2.5q1 10 1 21v21v22t2 21q0 1 1 1h2h3t2 -1v-79
q-3 -2 -4 -5t-1 -6t-0.5 -6.5t-2.5 -5.5t-4.5 -4t-4.5 -4t-3.5 -4t-1.5 -5v-1.5v-1.5l12 -8q1 1 2 0.5t1 -1.5q1 -10 3 -19t2 -19v-9l-0.5 -0.5l-0.5 -0.5q-1 0 -4.5 -0.5t-4.5 -0.5v40l-1 0.5l-1 0.5q-2 1 -2.5 1.5t-2.5 0.5t-2.5 -0.5l-2.5 -2.5v-3.5t-0.5 -5t-0.5 -4.5
v-3v-38q0 -1 -0.5 -3t-1 -3.5t-1.5 -2.5t-3 -1t-3.5 2.5t-1.5 4.5q0 14 1.5 28t1.5 28q0 3 -2 3.5t-4 0.5q-3 0 -4.5 -3t-2.5 -8t-1 -10t-1 -10t-2 -8t-4 -3t-4 2.5t-1 4.5q0 7 1 15.5t3.5 16t8 12t15.5 4.5q0 1 0.5 2t0.5 2t-0.5 5t-0.5 5q-4 3 -8 3.5t-8 2.5q-2 2 -3 4
t-1.5 5t-1 5.5t-1.5 4.5q-1 3 -1 12t-0.5 19t-1 18.5t-0.5 12.5v0v1v4.5t0.5 7t0.5 7v4.5l1 0.5l1 0.5q3 0 5 -2t4 -5v-55v-8.5t0.5 -10t2 -10.5t3.5 -8q1 -2 3.5 -1.5t4.5 0.5v75zM153 140q-4 3 -10 6t-11.5 6t-9 7.5t-3.5 10.5q6 0 11 -3.5t10 -8.5t10 -8.5t11 -3.5
q5 0 9.5 2.5t9.5 6t9.5 6t8.5 2.5q3 0 4 -1t1 -4t-3 -5.5t-7.5 -4.5t-9.5 -4t-9 -3t-7 -2.5t-3 -3.5v-15q0 -2 1.5 -2h2.5q4 0 8 2t8 5t8 5t6 2q3 0 4 -1.5t1 -3.5q0 -1 -0.5 -2.5l-0.5 -1.5q-4 -3 -11 -5t-13.5 -4t-11 -5t-4.5 -9v-3q10 -2 16 -4t10 -5t5.5 -9t1.5 -16
l-1 -5t-2.5 -10t-4 -9t-4.5 -4h-18l-3 -3q1 -3 1 -6.5v-6.5t-2 -5t-6 -2h-1.5t-1.5 1l-4 22l-2 1.5t-5 3.5t-5.5 4t-3.5 3q-2 2 -2.5 4.5t-0.5 6v6.5v5q0 10 4 15t9 8t9 4.5t4 3.5q0 7 -6 11t-13.5 7t-13.5 6.5t-6 8.5q0 1 1 1.5t2 0.5q5 0 9 -2t7.5 -4.5t7.5 -5t8 -2.5t4 4
v1v1q0 1 -0.5 3t-0.5 4t-0.5 3.5t-0.5 2.5zM141 75q0 -5 2 -5.5t7 -0.5q1 0 4.5 -0.5t8 -1l9 -1t6.5 -0.5v0h1q3 0 3.5 2t0.5 4q0 5 -2.5 8t-5.5 4.5t-7.5 1.5h-9.5q-3 0 -6 -0.5t-5.5 -1.5t-4 -3.5t-1.5 -5.5zM142 53q0 -4 3 -5.5t7.5 -2t9 0t6.5 0.5q1 0 3 -0.5t4.5 0
t4 1.5t1.5 3v0l-2 6h-27q-2 2 -5 2q-2 0 -3.5 -1.5t-1.5 -3.5z" />
</svg>
