<?xml version="1.0" standalone="no"?>
<!DOCTYPE svg PUBLIC "-//W3C//DTD SVG 1.1//EN" "http://www.w3.org/Graphics/SVG/1.1/DTD/svg11.dtd" >
<svg xmlns="http://www.w3.org/2000/svg" xmlns:xlink="http://www.w3.org/1999/xlink" version="1.1" viewBox="-10 0 266 256">
   <path fill="currentColor"
d="M198 247l2 2t1 2h1q3 0 4 -2t1.5 -4.5t0.5 -4.5v-3q0 -13 -2 -26.5t-8 -25.5q-1 -3 -4 -4.5l-6 -3t-5.5 -4t-2.5 -6.5q0 -6 2 -8t5 -3.5t6.5 -2.5t6 -4t4.5 -8t2 -15v-4v-3.5v-3.5v-1q0 -4 0.5 -8.5t-0.5 -8t-3 -6t-7 -2.5v21l-1 4q-1 0 -4.5 0.5t-7.5 1t-7.5 1t-4.5 0.5
q-2 0 -5 1.5t-3 4.5v0v0q0 1 1 2l2 2h1q6 0 11.5 -3t11.5 -3q4 0 6 0.5t2 4.5q0 7 -1 11t-2.5 5.5t-4 2.5t-5.5 2t-6 2.5t-5 5.5q0 1 -0.5 3t-1 4.5l-1 5l-0.5 2.5v3q0 4 2.5 6.5t5.5 4t6.5 3.5t4.5 5q3 6 5 13t2.5 14.5t0.5 14.5v13zM74 131q0 23 -1 46.5t-4 46.5v4v4
q4 0 7 -2t5 -6q-1 -25 -0.5 -49.5t1.5 -49.5v-4t0.5 -6t0.5 -6t1 -4h3h2q2 0 3 2l1 13v74q0 3 -0.5 6t-0.5 7v2.5t3 0.5q2 0 3.5 -3t1.5 -5v-16t0.5 -13.5t0.5 -13.5v-16v-1v-6.5t-0.5 -9.5t-0.5 -9.5v-6.5q-2 -4 -2.5 -7t-2 -4.5t-4 -2.5t-5.5 -3q-1 0 -1 -3v-4
q0 -5 1.5 -8.5t4 -6.5t5.5 -5.5t5 -6.5t3.5 -9t1.5 -13v-6l-1 -0.5t-2 -0.5h-1h-1q-1 0 -2 2.5t-1 4.5v4v2q0 1 -0.5 3.5l-1 5l-1 5t-0.5 3.5q-1 1 -2 1.5t-2 0.5q-2 0 -3 -0.5t-1 -3.5v-42l-0.5 -0.5t-0.5 -1.5h-5h-4v48q0 1 -1 1h-2q-4 0 -5.5 -3t-2.5 -7q0 -1 -0.5 -5
t-1 -8.5t-1 -8t-0.5 -5.5l-1 -0.5t-1 -1.5h-1q-4 0 -4.5 3.5t-0.5 6.5v7t0.5 8t1.5 8t3 6q3 5 6.5 6t6 2.5t3.5 4.5t1 12q0 3 -2 5.5t-4.5 4t-5.5 3.5t-4 4q-4 5 -6 11l-4 12q0 4 -0.5 12.5t-1.5 18t-1.5 18t-0.5 12.5v1q0 2 -0.5 3.5t-0.5 3.5v3v2q0 1 0.5 3t0.5 3v2
q0 1 1 1.5t2 0.5v0h1v0v0q1 0 2 -0.5t2 -1.5q2 -24 4 -47.5t5 -47.5q2 -3 4.5 -6t5.5 -4v5v8v8v5zM115 150v0h-1l-0.5 1l-0.5 1v43q0 4 3 7t8 5t11 3.5t11.5 2.5t9.5 1.5t5 0.5l1 0.5l1 0.5q1 0 3 -2t2 -4q-1 -3 -3.5 -4t-6 -1.5t-7 -0.5t-6.5 -1t-5 -3.5t-2 -8.5t2.5 -9
t5 -5t5 -3.5t2.5 -4.5v-30h-5v4.5t-0.5 7t-0.5 7t-1 4.5q0 2 -1 5t-4 3h-1l-1 -0.5l-1 -0.5q0 -8 -0.5 -12.5t-0.5 -10.5v-10t1 -11q5 -4 7 -8.5t3 -9t0.5 -10t-0.5 -10.5v-3v-5v-5v-3t-2.5 -1.5t-3.5 -0.5q0 10 -2 14t-6 6t-10 3t-13 4q0 1 -0.5 1.5l-0.5 0.5l-0.5 0.5
l-0.5 0.5q0 2 2.5 2.5t3.5 0.5q3 0 6 -1t6 -2.5t5.5 -2.5t5.5 -1t3.5 2t0.5 4q0 7 -2.5 10.5t-6 6t-7.5 3.5t-7.5 2t-5.5 2.5t-2 4.5h16q1 0 1.5 5t1 10.5l1 11t0.5 7.5v9q0 3 -0.5 7t-0.5 8t-1 9l-2 2h-1v0l-3 -3l-2 -2q-1 -2 -1 -6v-9v-10t-0.5 -9.5t-2 -7t-2.5 -2.5z
M196 68q-2 4 -8.5 6.5t-13 4.5t-12 4.5t-5.5 6.5q9 0 17.5 -1.5t15.5 -5.5t11.5 -10.5t4.5 -16.5v-9v-12t-1 -12t-4 -9q-3 0 -4.5 2t-1.5 5v1v1l0.5 1t0.5 2v2v2q1 0 1 1h-1q0 1 -1 2t-1 2l-35 6q-2 1 -3.5 2.5t-1.5 3.5q6 0 10.5 -0.5l9 -1t8.5 -2t10 -2.5h2q2 0 3 1.5
t1 4.5v1v2v3.5t-0.5 5.5t-0.5 5.5t-1 3.5zM141 16h-2.5t-2.5 2v33q0 3 -4 4t-9 2t-9.5 3t-4.5 8q10 0 17 -2t11.5 -5.5t7 -10t2.5 -16.5v-5t-0.5 -6t-1.5 -5t-4 -2z" />
</svg>
