<?xml version="1.0" standalone="no"?>
<!DOCTYPE svg PUBLIC "-//W3C//DTD SVG 1.1//EN" "http://www.w3.org/Graphics/SVG/1.1/DTD/svg11.dtd" >
<svg xmlns="http://www.w3.org/2000/svg" xmlns:xlink="http://www.w3.org/1999/xlink" version="1.1" viewBox="-10 0 266 256">
   <path fill="currentColor"
d="M197 249q0 1 1 1.5t2 0.5q3 0 4 -1.5t2 -3.5v-4.5v-7.5v-8v-4q0 -26 -1 -51t-2 -51q0 -3 -0.5 -8.5t-0.5 -11.5t-1 -11.5t-3 -8.5q-3 -4 -7 -6t-9 -3q-4 0 -9.5 -0.5t-10.5 -1t-9.5 -1.5t-6.5 -3v-3v-3v-8q0 -6 1 -10.5t3.5 -8t7.5 -3.5t6 3t1 7v8t3 6q1 0 4 0.5t6.5 0.5
h6.5h4l2 0.5l2 0.5q2 0 5 -1t3 -4l-0.5 -1.5l-0.5 -1.5h-10t-9.5 -1t-7 -3.5t-2.5 -8.5q0 -2 0.5 -3.5t3.5 -3.5q1 0 4 0.5t6 0.5t6 -0.5t4 -0.5q2 0 5 -0.5t3 -3.5q0 -2 -1.5 -3t-3.5 -1h-2q-2 0 -3.5 -0.5t-3.5 -0.5h-2h-11t-14 1t-13 3.5t-7 8.5q-2 6 -2.5 12.5
t-0.5 14.5q-1 2 -2 3t-4 1h-2.5t-3.5 -0.5t-3 -1.5t-1 -2v-27q0 -3 -1.5 -3.5t-3.5 -0.5q-1 0 -2.5 0.5t-1.5 3.5v2v4v4v2q0 8 1 13.5t3.5 9t7.5 5.5t13 3v11l-3 3q-4 -1 -7.5 -0.5t-6.5 3t-5.5 5.5t-2.5 6v128l-0.5 2.5t-0.5 3.5t0.5 4l0.5 3h1h1h1.5t3 -0.5t2.5 -1t1 -2.5
q0 -8 -1 -15.5t-1 -15.5v-14q0 -1 0.5 -5.5t0.5 -9.5t0.5 -9.5t0.5 -5.5q0 -7 -0.5 -14.5t-0.5 -15.5t0.5 -16t1.5 -16q0 -2 1.5 -3t3.5 -1h3h4q4 0 5 1.5t1.5 4.5t0.5 5.5t2 3.5t5 1.5t5.5 0.5h5.5h3h13q2 -1 3 -2.5t1 -2.5q0 -3 -2.5 -4t-6 -1t-7.5 0.5t-7.5 0.5t-5.5 -2
t-2 -6v-2v-1l3 -2h26l0.5 -1t1.5 -2v0v-1l-1.5 -1.5l-0.5 -0.5h-32q-1 0 -1 -1t-0.5 -2.5t-0.5 -2.5v-2q0 -2 0.5 -3t4.5 0l38 6l0.5 1t0.5 2q1 1 2 4t2 4q-1 20 0 39.5t1.5 39l1 39t0.5 38.5zM52 209v3v3.5t0.5 4.5t1 3.5l0.5 1.5l1 2q3 -2 3.5 -4.5t1.5 -4.5v-3.5t0.5 -5
t0.5 -5v-3.5v-4v-8v-8v-5q1 -10 2 -19t1 -19q0 -1 0.5 -4t0.5 -7t0.5 -7t0.5 -4l4 -5h1h1l3 6v2v3.5v4.5v3q0 23 -1.5 45.5t-1.5 46.5v2q0 1 1 1l1.5 -0.5t2 -1t2 -1.5t2.5 -1q-1 -25 -0.5 -50.5t1.5 -50.5q0 -1 0.5 -4.5t1.5 -4.5l1.5 -0.5l1.5 -0.5q3 0 4 2.5t2 6t1 7
t1 5.5v84v4.5t3 1.5q4 0 5.5 -3t1.5 -6q0 -26 -1.5 -51.5t-4.5 -52.5q-1 -3 -4 -4t-5.5 -1.5t-5 -2.5t-2.5 -7q0 -3 1.5 -4t3 -1.5t3.5 -0.5t5 -2q4 -5 6 -10t3 -11t1 -12v-11v-2.5v-3.5q-1 -1 -2.5 -2t-3.5 -1h-1q-2 4 -1.5 12t0 15.5t-3 13t-9.5 5.5v-64q0 -3 -1.5 -3
h-2.5h-3t-2 1v64q0 2 -1 2.5t-2 0.5q-3 0 -5 -3q-2 -11 -1.5 -21t-1.5 -20q-1 -2 -2 -2.5t-2 -0.5h-2.5t-0.5 2q0 1 -0.5 4t-0.5 5q0 1 0.5 4.5t0.5 4.5t0.5 4.5t1 8t0.5 8.5t1 5q0 4 2.5 5.5t4.5 3l4 3t2 3.5q0 5 -1.5 6t-4 1.5t-4.5 1t-3 3.5q-1 1 -1.5 3l-1 4t-1.5 4
t-1 3q-1 22 -2 44.5t-1 45.5zM128 213v0q1 2 3.5 3t5.5 1.5t5.5 0.5h3.5q10 0 21 -2t22 -1q3 -2 3 -5q0 -2 -2 -2.5l-4 -1t-4 -0.5t-2 -2v-58q-1 -1 -1 -3v-4t-0.5 -4t-1.5 -3t-4 -2.5t-4 -1.5h-21q-2 0 -3.5 2t-2.5 5l-2 6t-1 5v30.5t-2 30.5q0 2 -1.5 2.5t-3 0.5t-3 0.5
t-1.5 2.5zM163 184l3.5 0.5t4.5 0.5q1 1 1 2v2q0 6 -1 10t-3.5 6t-6.5 3t-10 1h-3t-2 -2v-18q0 -2 2.5 -3t5.5 -1.5t5 -0.5h4zM163 161q2 0 5 0.5t3 2.5v12h-25q0 -10 3.5 -12.5t13.5 -2.5zM148 146q0 -6 3.5 -8.5t9.5 -2.5q5 0 6.5 2.5t1.5 7.5v5q-1 3 -4 3h-5q-4 0 -8 -1
t-4 -6z" />
</svg>
