<?xml version="1.0" standalone="no"?>
<!DOCTYPE svg PUBLIC "-//W3C//DTD SVG 1.1//EN" "http://www.w3.org/Graphics/SVG/1.1/DTD/svg11.dtd" >
<svg xmlns="http://www.w3.org/2000/svg" xmlns:xlink="http://www.w3.org/1999/xlink" version="1.1" viewBox="-10 0 266 256">
   <path fill="currentColor"
d="M170 62l1 2t1 3q1 12 1.5 24l1 24t1 24.5t2.5 24.5q3 16 6.5 31.5t6.5 31.5q1 2 1.5 6t2 8t3.5 7t6 3q1 0 2.5 -2.5t1.5 -3.5v-1q-3 -9 -6 -18.5t-5 -20t-4 -20t-3 -18.5q-1 -5 -1 -8.5t-0.5 -6.5t-0.5 -6.5t-1 -7.5q-1 -2 -1 -7.5t-0.5 -12.5t-1 -14.5t-1 -14.5
t-1 -12.5t-0.5 -8.5v-3q0 -6 2.5 -7.5t8.5 -1.5v0q1 0 2.5 0.5l3 1t3 0.5h1.5h1v0q3 0 4 -1t1 -4t-1.5 -4t-4.5 -1q-5 0 -9 1t-8 1q-2 0 -4 -1.5t-2 -4.5v-1q0 -1 1.5 -3l1.5 -2h15q1 0 1.5 -1.5t1 -4t0.5 -4.5v-2q0 -2 -1 -4.5t-3 -2.5q-3 0 -4 2t-1.5 4l-1 4t-3.5 2
q-4 0 -5.5 -3t-2 -6t-2 -6t-6.5 -3v39l-3 1h-12t-14 0.5t-13.5 1.5t-12.5 1q0 1 -0.5 2t-0.5 2l0.5 0.5t0.5 1.5q2 0 5 0.5t4 0.5h2.5t5.5 -0.5t5.5 -0.5h3.5h1.5h3.5q3 0 5 -0.5t4 -0.5l2.5 0.5t4.5 0.5h4h3zM152 200q0 2 -0.5 6.5t-0.5 10.5q0 5 0.5 10t0.5 7v3.5t0.5 5
t2 4.5t3.5 2h2t2 -2v-7q0 -9 -1 -17.5t-1 -16.5t1.5 -13.5t3 -10.5t2.5 -11t1 -15v-16q-1 -5 -3.5 -8t-5.5 -4t-7.5 -1.5t-9.5 -0.5h-10q-4 2 -7.5 4.5t-6.5 6.5v15v13t2 13q1 4 3 7t3.5 5.5t2.5 6t1 8.5q0 9 -2 18.5t-2 18.5q0 2 1 3.5t4 1.5q2 0 3.5 -1.5t1.5 -3.5
q2 -11 2.5 -22t-0.5 -22l2 -4h1.5h1.5q4 0 5.5 1t3.5 5zM70 121q2 0 3 1t1.5 3t0.5 3.5v2.5v109q0 3 1 3.5t2 0.5q2 0 3.5 -1.5t1.5 -3.5v-117q2 0 4 -0.5t3 0t2 1.5t1 3t1 4.5t1.5 5.5t1 5.5t0.5 3.5v2v4v4v2v4.5t0.5 8t0.5 8.5v5v7v10v10v7q1 0 2 1l2 2v0h1l4 -4t2 -5
q0 -7 -1 -15t-1.5 -16.5t-1.5 -17t-2 -15.5q0 -2 -0.5 -5.5l-1 -7l-1 -7t-0.5 -4.5q-1 -6 -4 -7.5l-6 -3t-5 -4t-2 -10.5v-4q0 -3 2 -5q5 0 9.5 -1.5t7.5 -5.5q0 -2 0.5 -7t1 -10.5t1 -10t0.5 -6.5v-2v-3v-3v-2h-1.5t-3 0.5t-3 1.5t-0.5 3q0 1 -0.5 5l-1 8t-0.5 7.5v4.5
t-0.5 3.5t-1 4.5t-1.5 3t-3 1h-2t-2 -2l-0.5 -2.5t-0.5 -5.5t-0.5 -5t-0.5 -3v-1v-1q0 -1 0.5 -4.5t0.5 -7.5t0.5 -7.5t0.5 -4.5v-5q0 -6 -2.5 -9t-8.5 -3v4t0.5 6t0.5 6v4t1 3t1 3v0v1q0 2 -0.5 7t-0.5 10.5t-0.5 10t-0.5 6.5q-1 0 -2.5 0.5l-1.5 0.5q-5 0 -7 -3t-3 -7.5
t-1 -9.5t-0.5 -9.5t-2.5 -7.5t-6 -3q-3 0 -3 3t0.5 8t1.5 10t2.5 10t2.5 8q2 4 5 5.5t6.5 2.5t6 1.5t2.5 2.5v19q0 1 -2 2q-5 2 -8.5 4.5t-6.5 6t-4.5 8t-1.5 10.5q-1 2 -1.5 11.5t-1.5 20.5t-1.5 21.5t-0.5 16.5v3q0 3 0.5 4t3.5 1q1 0 3 -1t3 -2q1 -17 2 -33.5t3 -33.5v-6
t0.5 -10t2.5 -9t5 -4zM130 176q0 -3 2 -4t5.5 -1.5t6.5 -0.5h4t4.5 0.5l3.5 0.5q2 0 3 1.5t1 3.5q0 6 -3.5 9t-9.5 3q-3 0 -6 -0.5t-5.5 -2t-4 -4t-1.5 -5.5zM126 157v-5l1.5 -1.5t1.5 -0.5h29q3 0 3.5 2.5t0.5 4.5t-0.5 4t-3.5 3h-3.5t-6 0.5t-6 0.5h-4.5h-2
q-5 0 -7.5 -1.5t-2.5 -6.5zM128 139q0 -3 2.5 -4t6 -1.5t6 -0.5h3.5h2h3.5h2.5h2q2 1 4 3.5t2 5.5l-0.5 0.5t-1.5 0.5h-28q-1 0 -2 -1t-1 -2h-1v-1zM115 103v1q0 1 0.5 1.5l0.5 0.5h3h4h4h2h8h8t7.5 -0.5t9.5 -1.5q1 0 1.5 -1t0.5 -2t-0.5 -2t-1.5 -2h-9q-5 0 -9 0.5t-8 0.5
t-8.5 1t-11.5 2l-0.5 0.5l-0.5 0.5v1zM116 82q0 1 0.5 2t1.5 1t3.5 0.5t3.5 0.5q5 0 9 -0.5l8 -1t9 -1t11 -1.5v-2q0 -2 -0.5 -3.5t-3.5 -1.5h-9.5t-11 1l-11 2t-10.5 2v2z" />
</svg>
