<?xml version="1.0" standalone="no"?>
<!DOCTYPE svg PUBLIC "-//W3C//DTD SVG 1.1//EN" "http://www.w3.org/Graphics/SVG/1.1/DTD/svg11.dtd" >
<svg xmlns="http://www.w3.org/2000/svg" xmlns:xlink="http://www.w3.org/1999/xlink" version="1.1" viewBox="-10 0 266 256">
   <path fill="currentColor"
d="M72 249q0 1 0.5 1.5t3.5 0.5q2 0 3.5 -1.5t2.5 -4.5t1 -5.5v-3.5v-8v-14v-13v-8t0.5 -6t1.5 -10t1.5 -9.5t0.5 -5.5v-5v-9v-9v-5t0.5 -3.5l0.5 -2.5q3 0 4.5 1t1.5 3q4 23 5.5 46t1.5 46q0 1 1 1h3q4 0 4.5 -3t0.5 -6q0 -11 -0.5 -22.5t-1.5 -23.5t-3 -24t-6 -21
q-1 -4 -3.5 -6t-5 -4.5t-4 -5t-1.5 -5.5q0 -2 2.5 -4.5t6 -5.5t6.5 -5.5t4 -5.5q4 -9 6 -18.5t2 -18.5q0 -3 -0.5 -4.5t-3.5 -1.5t-5 3.5t-2.5 8.5t-1.5 11.5t-2 11.5t-3 9t-5 4l-1 -1l-0.5 -1l-0.5 -1v-56q0 -3 -2 -3.5t-4 -0.5q-1 0 -2 0.5t-2 1.5v45v3t-0.5 4t-0.5 4v3
l-1 0.5l-1 0.5q0 1 -1 1t-2.5 -1.5l-3 -3t-2 -3.5t-0.5 -3q0 -2 -0.5 -6t-0.5 -8.5t-0.5 -8t-0.5 -5.5v-4.5t-0.5 -4.5t-2 -3.5t-4.5 -1.5h-1h-1q-1 1 -1.5 4.5t-0.5 4.5v1v1v2v1q2 9 2.5 18t2.5 19q0 4 3.5 6t7 3t6.5 2t3 3v15q-8 1 -11.5 4.5t-5.5 8.5t-3 11.5t-3 11.5
q-1 2 -1.5 7.5t-1 12t-1 13.5t-1.5 14t-1 12t-1 7v5q0 2 0.5 4t3.5 2q4 0 6 -4.5t3 -12t1.5 -17t1 -18.5t1 -16.5t1.5 -11.5q0 -1 0.5 -2.5t1 -4t1 -4t0.5 -2.5q1 -4 0.5 -6t2.5 -4q1 -1 3 -2.5t2 -0.5l1 1v8q0 14 -0.5 28t-1.5 28t-1.5 27.5t0.5 27.5q-1 2 -1.5 3.5
t-0.5 3.5zM160 203q0 5 2 13t6 15t9.5 12.5t11.5 5.5q2 0 3.5 -2t1.5 -4q0 -3 -1.5 -4.5l-3 -3t-3.5 -2.5t-3 -3q-7 -7 -10 -16t-3 -18q0 -3 1.5 -6.5t3.5 -6.5l4 -6t4 -5v-2v-3q0 -5 -3.5 -7.5t-7.5 -4.5t-7 -4t-3 -7q0 -2 0.5 -4t2.5 -2h41q2 0 2 -2.5v-3.5v-2.5t-2 -1.5
q-1 0 -5.5 -0.5t-5.5 -0.5q-10 0 -19.5 0.5t-19 1.5t-19.5 2.5t-21 2.5q-2 0 -2.5 1t-0.5 2t0.5 2l1.5 3h4q7 0 14.5 -2t14.5 -2q3 0 4 2t1 4q0 5 -3 9t-7 7.5l-8 7t-6 8.5t-3.5 12t-1.5 13v1q0 3 0.5 7.5t0.5 9t0.5 8l0.5 3.5v2.5t0.5 2.5t0.5 2.5t1 1.5l0.5 1t1.5 2t2 1.5
t2 0.5q3 -1 3.5 -3t0.5 -5q0 -5 -1 -10l-2 -10v-3t-0.5 -4.5t-0.5 -5v-3.5q0 -5 1.5 -11.5t4.5 -13t8 -11t11 -4.5q2 0 4 0.5l4 1t3.5 2t1.5 3.5q0 5 -2 8.5t-4 7.5t-4 9t-2 11zM107 113q0 2 2.5 3t3.5 1h9q7 0 13.5 -0.5t12 -2t5.5 -4.5v-2q-1 0 -3.5 -0.5t-4.5 -1t-4 -2
t-3 -3.5q0 -3 2 -5t4.5 -3t4.5 -2t2 -3v-1l-0.5 -0.5l-0.5 -0.5q-2 0 -5.5 -1.5t-4.5 -1.5q0 -4 -1.5 -6.5t-4.5 -4.5q-2 1 -2.5 3t-0.5 4.5t-0.5 4t-2.5 1.5h-15l-0.5 1.5t-0.5 2.5v1v0q0 1 0.5 2l0.5 1h15q1 0 1.5 1l1 2t0.5 3v1q0 3 -0.5 5t-2.5 3h-3t-4.5 0.5t-4.5 0.5
h-3t-3.5 1t-2.5 3zM178 96v1l-0.5 1.5t-1.5 3.5t-1.5 3.5t-1.5 1.5h-15v2t1 3q0 1 1.5 1.5l1.5 0.5h39q3 0 4 -2t1 -4t-2.5 -3t-5.5 -1t-6 0.5l-3 0.5q-3 -1 -3.5 -3t-0.5 -4t0.5 -5t3.5 -3h12v-7h-12q-2 0 -3 -2.5t-1.5 -5t-1.5 -4.5t-4 -2h-1q-1 7 -2 10t-2.5 4t-3.5 1
h-3.5t-3 1t-2.5 4l1 1h13q1 0 2 2.5l1 2.5v1zM116 61q0 1 0.5 2t1.5 1h2h2.5h3.5h2q17 0 34 -1t35 0q1 -1 1 -1.5v-1.5q0 -2 -1.5 -3.5t-2.5 -1.5h-30q-1 0 -2 -1t-1 -2.5t-0.5 -3t-0.5 -2.5q0 -2 0.5 -3t3.5 -2q6 1 12.5 0.5t12.5 -1.5q1 -1 3 -2t2 -2q0 -2 -2.5 -3
t-3.5 -1q-4 0 -8.5 1t-8.5 1q-1 0 -3 -0.5t-3 -0.5l-2 -1v-16l-1 -0.5l-1 -0.5q-2 -1 -2.5 -1.5t-2.5 -0.5q-4 0 -4.5 3t-0.5 7v7t-1 3l-22 3q-2 1 -2.5 3.5l-0.5 2.5h7t8.5 0.5t7.5 2t3 5.5q0 2 -1 4t-2 2t-3.5 0.5t-5.5 1t-5 0.5h-3h-3h-4.5t-5 0.5t-2.5 2.5z" />
</svg>
