<?xml version="1.0" standalone="no"?>
<!DOCTYPE svg PUBLIC "-//W3C//DTD SVG 1.1//EN" "http://www.w3.org/Graphics/SVG/1.1/DTD/svg11.dtd" >
<svg xmlns="http://www.w3.org/2000/svg" xmlns:xlink="http://www.w3.org/1999/xlink" version="1.1" viewBox="-10 0 266 256">
   <path fill="currentColor"
d="M75 247q0 2 1 3t3 1q4 0 5 -2.5t2 -5.5q0 -1 0.5 -4.5l1 -7t0.5 -6.5v-4v-9v-13v-16v-15v-14v-8q1 -2 2 -4.5t4 -2.5q5 0 6.5 3.5t2 8.5t0.5 10t2 8v63q0 2 0.5 2.5t2.5 0.5q3 0 3.5 -3.5t1.5 -5.5v-23v-12t0.5 -14.5t-0.5 -16t-3 -15t-6.5 -11.5t-11.5 -6v-19
q0 -2 2.5 -3t5.5 -2t5.5 -1.5t3.5 -2.5q4 -5 4.5 -10.5t0.5 -11.5q0 -1 0.5 -6l1 -10t1 -9.5t0.5 -6.5v-3v-3.5t-0.5 -4t-2 -3t-3.5 -1.5t-3 1.5t-2 2.5v9.5t-0.5 13t-0.5 13v8.5q0 3 -0.5 5.5l-1 5t-2 4t-4.5 1.5h-3t-2 -3v-23q0 -11 1 -22t1 -23v-3t-1 -4t-2 -3.5t-3 -1.5
t-3 1t-2 3t-1.5 4t-0.5 3v74l-0.5 0.5l-0.5 0.5h-1t-3 -1.5t-3 -4.5t-1.5 -5t-0.5 -3q-2 -10 -3 -23t-1 -24q0 -2 -2 -2h-3h-2h-2q-1 2 -1 2.5v2.5q0 4 0.5 12.5t1.5 17.5t2 17t2 11t3.5 3.5t6 1t6 1t2.5 2.5q0 1 0.5 4.5t0.5 4.5q0 8 -0.5 11t-2.5 3.5t-5 0.5t-8 4
q-5 5 -7.5 10t-4.5 11q-1 10 -1.5 18.5t-0.5 16.5v16.5v16.5v11q0 1 1 1h2q4 0 5 -7t1 -18v-23.5t1 -23.5t5 -18t12 -7q0 3 0.5 10t0.5 15.5v15.5v10q0 15 -2.5 29t-2.5 29zM187 172q2 1 2.5 3l1 4l1 4t0.5 3v60q0 1 1.5 1.5t2.5 0.5q2 0 3.5 -1.5t1.5 -3.5l2 -47
q-2 -6 -2.5 -12t-0.5 -12q-2 -2 -5.5 -4t-5.5 -2h-33q-4 2 -8 2.5t-7.5 1t-7 2t-7.5 5.5q1 8 0.5 16t-1.5 16t-2 16.5t-1 16.5v2.5t2 1.5q3 0 5 -2.5t2 -5.5l3 -50q1 -7 5 -10.5t9.5 -4.5t12 -1h11.5h3h4.5h4.5h3zM145 206q0 11 5.5 14.5t16.5 3.5q6 0 10 -4t4 -10v-3
q0 -1 -0.5 -3.5t-0.5 -5t-0.5 -4.5t-0.5 -3t-1.5 -2t-2.5 -1h-19q-3 0 -5 2t-3 5l-2 6t-1 5zM166 192q2 0 3.5 2t2 4.5t0.5 5.5v4q0 10 -10 10q-2 0 -5.5 -1.5t-3.5 -3.5v-14q0 -2 1.5 -3t3.5 -2t4 -1.5t4 -0.5zM151 119q-1 0 -3.5 1t-4.5 2t-4 2.5t-2 3.5v19q0 2 1 3
t2.5 1.5t2.5 1t2 0.5h3h4h4h2h11t11 -1.5t8.5 -5t3.5 -9.5q0 -7 -2 -11t-6 -5.5t-9 -1.5h-11h-13zM145 137v-2v-2q0 -1 1 -2l2 -2t2 -1.5l1 -0.5h31v5t-0.5 5.5t-2 4.5t-4.5 4h-4t-6 0.5t-6 0.5h-4q-10 0 -10 -10zM117 116q0 1 0.5 2.5t2.5 1.5q5 0 10.5 -3t11 -7.5t11 -8
t10.5 -3.5t11 3.5t12 8t11 7.5t9 3q2 0 3.5 -1t1.5 -3q0 -4 -3.5 -6.5t-8.5 -5t-11 -4.5t-11 -4t-8.5 -4.5t-3.5 -4.5t0.5 -5.5t1 -6.5l1 -6t0.5 -4q1 -1 2.5 -1h2.5q4 0 7.5 2t6 5.5t5.5 5.5t6 2q2 0 3.5 -2t1.5 -4v-1q-5 -7 -9.5 -9.5t-9 -3.5l-9 -2t-8.5 -4v-3v-2
q0 -6 2.5 -9t6 -4.5t8 -2t8 -0.5t6 -1.5t2.5 -4.5t-3 -4t-6 -1q-5 0 -11.5 2t-11.5 3q-6 2 -8 4.5t-2 6v7.5t-2 9q-1 2 -4.5 4t-7.5 4.5t-8 4.5t-6 4l-2.5 2.5l-2.5 2.5l-2 2l-1 1v3h4q5 0 9.5 -3t8 -6.5l6.5 -6.5t5 -3q1 0 1.5 1.5l1 3t0.5 3.5v2q0 5 -0.5 10.5t-2.5 9.5
q-2 2 -8 5.5t-12.5 7t-12 6.5t-5.5 5z" />
</svg>
