<?xml version="1.0" standalone="no"?>
<!DOCTYPE svg PUBLIC "-//W3C//DTD SVG 1.1//EN" "http://www.w3.org/Graphics/SVG/1.1/DTD/svg11.dtd" >
<svg xmlns="http://www.w3.org/2000/svg" xmlns:xlink="http://www.w3.org/1999/xlink" version="1.1" viewBox="-10 0 266 256">
   <path fill="currentColor"
d="M121 249q0 3 1.5 3.5t3.5 0.5q7 0 12.5 -6.5t10.5 -13.5t9 -13t8 -6q3 0 7 4.5t8.5 10.5t8.5 12t6 8h1q2 0 4.5 -2.5t2.5 -4.5q0 -1 -0.5 -1h-0.5q0 -1 -0.5 -2.5l-0.5 -1.5q-3 -3 -8 -8.5t-10 -11.5t-9 -12.5t-4 -11.5t3.5 -7t8 -3t8.5 -3.5t5 -7.5v-14v-11
q0 -4 -1.5 -7.5t-4.5 -6t-9 -3.5h-15h-11.5t-11.5 2t-8.5 6.5t-3.5 12.5q0 11 1 17t3.5 10t8.5 6t16 5q1 1 1.5 2t0.5 3q0 7 -6.5 15.5t-14 16.5t-14 14t-6.5 9zM77 241q1 1 2.5 2t2.5 1q3 0 4.5 -3t1.5 -5v-115l1 -1.5t2 -1.5q3 -1 5 3t3.5 9.5t2 11t0.5 6.5v14
q0 1 0.5 5.5t0.5 9.5t0.5 9.5t0.5 5.5v40q0 1 0.5 1.5l0.5 0.5h1q4 0 6 -4v-5.5v-8.5v-10v-6q0 -21 -1 -41.5t-6 -42.5q-1 -4 -4 -5.5t-6 -2.5t-5 -3.5t-2 -8.5t2 -8.5t4.5 -3l5 -1t4.5 -4.5q2 -5 3.5 -11t1.5 -12v-12v-12h-8l-2 4v32q0 2 -2.5 4t-4.5 2t-3 -2.5t-1 -5.5v-6
v-5q0 -7 1 -14.5t1 -14.5v-4.5t-0.5 -4t-2 -2.5t-4.5 -1t-5.5 1t-2.5 6q0 6 1.5 13.5t1.5 14.5q0 3 0.5 8t0 9.5t-2.5 8t-6 3.5q-3 0 -5 -2t-3 -5l-3 -35q0 -1 -1.5 -2.5t-3.5 -2.5v0q-3 0 -4.5 0.5t-1.5 3.5v10.5t1 16t3.5 16t6.5 8.5q5 2 8.5 2t6 0.5t3.5 3t1 7.5v7
q-2 3 -5 3.5t-6 1.5q-10 5 -13.5 13t-3.5 19q0 2 -0.5 8t-0.5 13.5v16.5t-0.5 16.5t-0.5 13.5v8v5q0 2 0.5 4.5t3.5 2.5q5 0 6 -4t1 -8q0 -10 -1 -19.5t-1 -19.5v-1q1 -3 1.5 -9t1 -11.5t1 -10.5t0.5 -7t0.5 -5.5t2 -7t3.5 -6t6 -2.5q1 0 2 1.5t2 3.5v4v5v6v3q0 8 -1 15
t-1 15v0v0q0 1 0.5 2.5t0.5 3.5t0.5 4l0.5 2v11.5v16.5v17v11zM141 195q-1 0 -4 3t-5.5 7.5t-5 8.5t-2.5 7q4 0 7.5 -2t6.5 -5t4.5 -7t1.5 -7q0 -5 -3 -5zM184 194q0 2 2 5.5t5 7.5t5.5 7t4.5 3t4 -0.5t2 -2.5v-1v-1q-1 -1 -3 -3.5l-4 -5t-3.5 -5t-2.5 -3.5l-2.5 -2.5
t-2.5 -0.5q-1 0 -3 0.5t-2 1.5zM142 168v-5q9 -2 19.5 -3.5t19.5 -1.5q3 0 5 1.5t1 5.5q-1 6 -3 8.5t-5.5 4t-7.5 1.5h-8h-7q-4 0 -7 -1t-5 -3t-2 -7zM139 149q0 -6 3.5 -8.5t8 -3t9.5 -0.5h8h11q2 0 5 2.5t3 3.5q1 1 0 3l-1 2q-10 2 -21.5 3.5t-21.5 1.5q-2 0 -3 -1.5
t-1 -2.5zM122 133q0 1 0.5 1.5l0.5 0.5q1 0 2 -0.5t3 -1t3 -1t1.5 -1t2 -1l1.5 -0.5q2 -2 6 -6.5l8 -9t8 -8t8 -3.5h1h1q1 1 3 2t4 3t3.5 3t2.5 2q3 2 5.5 5t5.5 5.5t6 4.5t6 2t3.5 -1t0.5 -3v-3q-3 -4 -7.5 -8.5t-9.5 -8.5t-10.5 -7t-10.5 -4v-19l5 -1t11.5 -2.5t12 -3.5
t5.5 -4l-1 -1l-0.5 -1t-1.5 -2t-1.5 -2l-0.5 -1v-21q0 -1 -1.5 -3.5l-1.5 -2.5q-1 0 -1.5 -0.5t-1.5 -0.5t-2 0.5t-2 1.5q0 2 -0.5 5t-0.5 6.5t-0.5 6.5t-0.5 4v2.5t-1 3.5t-2 3l-1 1h-13v-50q0 -2 -1.5 -2h-2.5q-2 0 -3.5 1t-3.5 2q0 14 -0.5 27t-1.5 26h-2h-1
q-5 0 -7 -2.5t-3 -6t-1.5 -8t-1 -8t-1.5 -6t-4 -2.5q-2 0 -3.5 0.5t-1.5 3.5q0 8 1.5 15t4.5 11.5t8.5 7t13.5 1.5v19q0 1 -3 4l-7 7t-9 8.5t-9 9t-6.5 7.5t-2.5 4zM139 81q-2 0 -6 3t-7.5 7.5t-6.5 9.5t-3 7q4 0 8.5 -2.5t8.5 -6t7 -8t3 -7.5t-4 -3zM184 86q0 3 2.5 6
t6.5 5t7.5 3t5.5 1t3 -0.5t1 -3.5q0 -2 -0.5 -3t-2.5 -3q-1 -1 -3.5 -2t-5.5 -2.5t-5.5 -2.5t-3.5 -1h-0.5h-1.5q-3 0 -3 3z" />
</svg>
