<?xml version="1.0" standalone="no"?>
<!DOCTYPE svg PUBLIC "-//W3C//DTD SVG 1.1//EN" "http://www.w3.org/Graphics/SVG/1.1/DTD/svg11.dtd" >
<svg xmlns="http://www.w3.org/2000/svg" xmlns:xlink="http://www.w3.org/1999/xlink" version="1.1" viewBox="-10 0 266 256">
   <path fill="currentColor"
d="M68 247q0 4 4 4q2 0 3.5 -2t3 -4.5t2 -5.5t0.5 -5v-4v-6v-7v-4v-3.5t0.5 -5.5t0.5 -6v-3v-22q1 -11 1.5 -24t2.5 -25h1h1q3 0 6 2.5t3 5.5v105h2t2 -0.5t2 -1.5t0 -2q2 -15 2 -29v-29v-6v-10v-10.5v-6.5q0 -1 -0.5 -3.5t-1 -5.5t-1 -5.5t-0.5 -3.5t-1 -2.5t-1 -2.5
q-2 -3 -4 -3.5l-4 -1t-3.5 -1.5t-1.5 -5q0 -8 1.5 -11.5t3 -5t4.5 -1.5q2 0 4.5 -0.5t4.5 -2t3 -6.5q0 -1 0.5 -4t0.5 -7t0.5 -7t0.5 -5v-1v-3.5t0.5 -5l1 -5t0.5 -3.5q0 -5 -3.5 -6t-7.5 -1v40q0 5 -3 7.5t-7 2.5q-1 0 -1.5 -1.5t-1 -4t0 -4t0.5 -2.5q0 -11 0.5 -22.5
t0.5 -23.5v-10q-1 -2 -1.5 -2.5t-2.5 -0.5t-3 0.5t-2 1.5q-2 8 -2.5 17t-0.5 18v18q0 8 -1 16q-1 2 -2 2.5t-2 0.5q-2 0 -3.5 -1t-2.5 -3t-1.5 -4t-0.5 -3q0 -2 -0.5 -6.5t-1 -10t-0.5 -10v-6.5q-1 -4 -1.5 -6.5t-4.5 -2.5q-1 0 -2.5 0.5t-1.5 3.5v4v5v6v3v5v5.5v5.5v2v4
t1 6t2 5.5t4 2.5l16 4v2v3q0 8 -1 11t-3.5 4t-5.5 1.5t-6 4.5q-3 2 -5 6.5t-3.5 9t-2.5 9t-1 8.5q-1 17 -2 36t-1 37v7q0 1 0.5 1.5t1.5 0.5q3 0 5 -8.5t3 -21t2 -27t2.5 -26.5t4.5 -20.5t9 -8.5q2 0 2.5 2t0.5 4q0 11 -0.5 23t-1.5 24t-1.5 24t-1.5 23q0 6 -1.5 11.5
t-1.5 11.5zM116 212q0 2 0.5 3t3.5 1h86q1 0 2 -2.5t1 -3.5q0 -3 -1 -3.5t-3 -0.5q-23 0 -43.5 1t-43.5 1q-2 0 -2 1.5v2.5zM124 171q0 5 2.5 9t5.5 7t7.5 5t9.5 3h2.5h3.5h4h3q17 0 27 -7t10 -26v-1.5v-0.5q0 -1 -0.5 -4t-0.5 -6t-0.5 -5.5t-0.5 -4.5q-3 -2 -7.5 -3.5
t-10 -1.5h-11h-9.5q-11 0 -17.5 1.5t-10.5 5.5t-5.5 11t-1.5 18zM136 172q0 -3 1 -4t3.5 -1.5t4.5 -0.5h4q1 0 3 0.5l2 0.5l1 1q0 1 0.5 3t0.5 3v4q0 2 -0.5 4.5t-1.5 4.5t-4 1q-14 -2 -14 -16zM165 178q0 -4 1 -6.5t4 -4.5h6h7t3 5q0 7 -4 11.5t-12 4.5q-4 0 -4.5 -3.5
t-0.5 -6.5zM137 153q0 -3 2 -5t4 -3.5t5 -2t6 -0.5q1 0 1.5 1l1 2t0.5 2v3v2q0 1 -0.5 2.5l-1 3t-1.5 1.5h-15q-1 0 -1.5 -2t-0.5 -3v-1zM167 150q0 -3 1 -5.5t4 -2.5h0.5h0.5q1 0 3 0.5t4 0.5t3.5 0.5t2.5 0.5q1 2 1.5 3.5t0.5 3.5q0 5 -4 6.5t-8 1.5q-5 0 -7 -2t-2 -7z
M112 119l1 3h94q2 0 3.5 -1.5t1.5 -2.5q0 -2 -1.5 -4t-3.5 -2q-10 0 -21 0.5t-21.5 1.5t-21.5 1.5t-20 0.5q-2 0 -5.5 1t-5.5 2zM126 80q0 9 3 14t8.5 6.5t12.5 2t14 0.5q10 0 17.5 -1t12 -4t6.5 -9.5t2 -17.5q0 -3 -0.5 -6.5t-1.5 -6.5t-3 -5.5t-6 -2.5h-42q-7 0 -11.5 3
t-7 7t-3.5 9.5t-1 10.5zM136 86v-1v0l1 -2.5t2 -2.5h15q1 0 2 2.5l1 2.5v0q0 5 -1 7.5t-5 2.5q-3 0 -5.5 -0.5l-5 -1t-3.5 -2.5t-1 -5zM168 89v-2q0 -2 0.5 -3.5t1 -2.5t2.5 -1h16q0 6 -2.5 10.5t-9.5 4.5h-3.5h-2.5q-2 -1 -2 -3v-3zM137 67v0v0q4 -4 7 -7.5t8 -3.5
q1 0 3 0.5t2 3.5v12h-16q-1 0 -2 -1.5t-2 -2.5v-1zM168 65q0 -2 0.5 -4t3.5 -3h2.5h2.5q5 0 8.5 1t3.5 6v4.5t-3 2.5h-16q-1 0 -1.5 -1.5t-0.5 -2.5v-2v-1zM124 34q0 1 0.5 1.5l1.5 1.5h4h4q11 0 21.5 -1t21.5 -1q6 0 13 1t13 1q3 0 3.5 -2t0.5 -4v-2.5t-1 -1.5h-9
q-18 0 -35.5 0.5t-35.5 3.5q-1 0 -1.5 1t-0.5 2z" />
</svg>
