<?xml version="1.0" standalone="no"?>
<!DOCTYPE svg PUBLIC "-//W3C//DTD SVG 1.1//EN" "http://www.w3.org/Graphics/SVG/1.1/DTD/svg11.dtd" >
<svg xmlns="http://www.w3.org/2000/svg" xmlns:xlink="http://www.w3.org/1999/xlink" version="1.1" viewBox="-10 0 266 256">
   <path fill="currentColor"
d="M108 247q0 4 2 4q5 0 10 -4.5t10 -11.5t9.5 -15t7.5 -16.5t5 -16t2 -12.5t-2.5 -9t-5.5 -8t-5.5 -8t-2.5 -9v-3q3 0 6 -0.5t6.5 -1.5t5.5 -3t2 -6h-18q0 -10 0.5 -13.5t1.5 -4.5t4 -2t9 -5q2 -2 3.5 -6t2 -9l1 -10t0.5 -7v-2v-4t-0.5 -3.5t-0.5 -2.5t-3 -3t-6 -4.5
t-5.5 -4.5t-2.5 -4v-23h-3h-3.5t-3 1.5t-1.5 3.5l0.5 1t0.5 2.5t0.5 2.5t0.5 2v6v8q-1 2 -3 3t-5 1.5t-5 1t-3 0.5q-3 2 -5 6t-2.5 8.5t-0.5 9v7.5v2v4v4v3q1 4 3 6t5 2.5t6 1.5t5 4v3v3q0 4 -0.5 8t-4.5 6q-1 0 -4 0.5t-6.5 0.5t-6.5 0.5t-4 0.5h-4h-3q0 -1 -0.5 -3
t-1 -4.5t-1 -4.5l-0.5 -2q-1 -2 -3 -4t-4 -3.5t-4 -2.5t-2 -3v-17q0 -2 2.5 -3t5.5 -2.5l6 -3t4 -4.5q0 -2 0.5 -7t1 -11t1 -11.5t0.5 -7.5v-3q0 -2 -1 -3t-3 -1l-1 0.5l-1 0.5l-4 39l-1 1l-2 2q-1 0 -4 1.5t-4 1.5v-12q0 -12 2 -23t2 -23v-6q-1 -2 -3 -2h-2h-3q-3 15 -4 31
t-1 32q0 1 -1 2t-2 1q-2 0 -5 -2t-3 -4v-29v-2t-0.5 -4t-1.5 -3.5t-3 -1.5l-0.5 0.5l-0.5 0.5q-1 0 -2 0.5l-1 0.5v42q0 1 0.5 2.5t1.5 3t2.5 3t2.5 1.5h1l2 -1l2 -1q4 0 6 3t2 7l-0.5 2l-0.5 2q0 1 -0.5 2.5t-0.5 3.5t-0.5 3.5l-0.5 1.5q-1 2 -3.5 2.5t-5.5 1.5t-6 4t-4 11
l-8 89l2 10h0.5h1.5h2.5t1.5 -2t0.5 -7.5t0.5 -11t0.5 -11t0.5 -8.5q0 -2 0.5 -8.5t1 -14t2 -15.5t3 -14.5t3 -10.5t4.5 -4h0.5h0.5q2 7 2 12v13v9t-2 9q1 9 0.5 18t-1.5 17.5t-1.5 17t-0.5 17.5v9q1 2 1.5 2h1.5q3 0 4.5 -1.5t2.5 -3t1 -3.5v-5v-44v-15q0 -9 0.5 -18
t1.5 -17.5t3 -16.5h2q3 0 4.5 1.5t1.5 4.5v105q0 2 1 2h2q2 0 3 -3t2 -7t1 -8v-6q0 -3 -1 -5.5t-1 -6.5q0 -5 1 -10t1 -10q0 -8 -1 -14.5t-1 -13.5v-4q0 -3 1 -3l3 -3h20q1 0 3.5 -0.5l2.5 -0.5q3 0 4 2.5t1.5 5.5t0 6t-0.5 5q0 7 -4.5 14t-10 14t-10.5 14t-5 13q4 0 8 -3.5
t7.5 -9l7 -11t6 -11t5 -9t4.5 -3.5q5 0 5.5 4t0.5 7q0 8 -3.5 17.5t-8.5 18.5t-10.5 17.5t-10.5 14.5l-1 1.5t-2 1.5v0.5v0.5zM188 175q0 2 0.5 6.5t0.5 9t0.5 9t0.5 5.5t0.5 5t1 8.5t1 8.5t0.5 5v4v6t1 5t4 2h3t3 -2v-3v-4q0 -8 -1.5 -17l-3 -18t-2.5 -18t-1 -18v-5
q7 -7 11.5 -16.5t4.5 -20.5v-4v-2q-3 -9 -7 -13t-8 -6.5t-7.5 -4t-3.5 -4.5q0 -1 1 -2t1 -2v-17l3 -3h21q1 0 1.5 -2t0.5 -3t-1 -1.5l-3 -1.5h-3.5t-5 -0.5t-5 -0.5h-3.5q-3 -2 -3 -3v-2q0 -5 0.5 -9.5t0.5 -9.5v-6q-1 -3 -3 -3.5t-4 -0.5l-1.5 0.5t-2.5 0.5q0 9 -0.5 17.5
l-1 17t-1.5 17t-3 17.5q-1 2 -3 2.5l-4 1t-3 2t-1 5.5h30q3 0 5 2.5t2.5 6.5t0.5 8v5q0 6 -1.5 12t-6.5 9q0 -1 -1 -3.5l-2 -5t-2.5 -4.5t-3.5 -2h-2.5t-3.5 0.5t-3.5 1l-1.5 0.5q-1 0 -2.5 -0.5t-3 0t-2 1t-0.5 1.5q0 2 1 3.5t3 1.5h2.5t3 -0.5t2.5 -0.5h2h1q1 0 2.5 1t2 3
t0.5 4v3q0 5 -3 8.5t-7 6t-8.5 4t-8.5 2.5v1.5v0.5q0 3 1.5 3h3.5q3 0 5.5 -1.5l5 -3t4.5 -3t5 -1.5q2 0 3.5 1t1.5 3zM118 89q0 -4 3.5 -6.5t9 -3t11 0t9.5 0.5v14q0 2 -3 3.5t-6 2l-6 1t-4 0.5q-6 0 -10 -2t-4 -10zM119 67q0 -5 2.5 -7.5t6 -3.5t7.5 -1.5t8 -1.5
q2 0 4 1.5l4 3t2.5 4t0.5 4.5q-1 3 -4 4.5t-6.5 2t-6.5 0t-5 -0.5h-11q-2 0 -2 -2v-3z" />
</svg>
