<?xml version="1.0" standalone="no"?>
<!DOCTYPE svg PUBLIC "-//W3C//DTD SVG 1.1//EN" "http://www.w3.org/Graphics/SVG/1.1/DTD/svg11.dtd" >
<svg xmlns="http://www.w3.org/2000/svg" xmlns:xlink="http://www.w3.org/1999/xlink" version="1.1" viewBox="-10 0 266 256">
   <path fill="currentColor"
d="M71 246q0 2 0.5 3.5t2.5 1.5q4 0 5.5 -2t2.5 -4.5t1 -5.5v-5q0 -24 -1 -48.5t-1 -48.5v-4.5v-4.5q1 -2 2 -2h3t3.5 4.5t2.5 10.5t1.5 11.5t1.5 8.5v63q0 2 1 4.5t3 2.5q3 0 4 -2.5t1.5 -6t0.5 -7v-3.5q0 -20 -1.5 -40t-3.5 -40l-1 -2.5t-1 -3.5q-2 -5 -4.5 -7.5
l-5.5 -5.5t-5 -6t-2 -8q0 -4 1.5 -6t3.5 -3.5t4.5 -2.5t5 -3.5t4 -6.5t1.5 -12q0 -1 0.5 -5t0.5 -8v-8.5v-5.5h-2h-2t-2 1t-1 2l-2 17q0 1 -0.5 4t-1 6.5t-1.5 6.5t-2 3h-3.5h-2.5q0 -14 0.5 -27.5t0.5 -27.5v-12l-1.5 -1.5t-2.5 -0.5q-3 0 -4.5 5.5t-2 13t0 17t0 17t-1 13
t-3.5 5.5q-4 0 -6 -3t-2 -8v-10.5v-10.5t-1 -8t-5 -3q-2 0 -3 0.5t-2 3.5v11q0 8 0.5 14t1.5 14l1.5 1.5t2.5 3t2.5 2.5l1.5 1q1 0 2.5 0.5t3 0.5t3 0.5l1.5 0.5q1 0 1.5 0.5l0.5 0.5l-2 20l-0.5 0.5t-0.5 1.5q-3 2 -5.5 4t-4 4t-3 5t-2.5 6q-4 9 -5.5 19.5t-1.5 21v21v19.5
v3v5t1 5t3 2t3 -2t1 -3q2 -6 2.5 -12t0 -12t-0.5 -12v-12q1 -12 2.5 -24t6.5 -23q0 -2 1 -2h2h2h1v90q0 1 1 3.5t1 3.5v1q0 6 -1 11t-1 11zM116 220q0 1 0.5 2.5t1.5 1.5h82h3t4 -0.5t3.5 -1.5t1.5 -3q0 -4 -2.5 -5t-6.5 -1t-8.5 0.5t-8.5 0t-6.5 -2t-2.5 -5.5v-22.5
t5 -21.5q1 -3 3 -3.5t4 0t4 0t4.5 -2.5t4.5 -6.5t3 -13.5v-3v-2v-1t-0.5 -2.5t-0.5 -2v-1.5l0.5 -2t0.5 -3q1 -1 2 -4t2 -4v-64q0 -2 -2 -4t-3 -2h-12q-5 0 -10 -0.5t-10 1.5v1v1q0 1 0.5 2.5t2.5 2.5v62q0 1 0.5 3t1.5 2v0h1v0v0q1 0 3 -2l3 -3v-8t0.5 -12.5t0.5 -12.5v-8
v-5t1 -6.5t2.5 -6t5.5 -2.5q2 0 3 1.5t1 3.5q1 2 1 5t0.5 6.5t0.5 7v4.5q0 18 -2 33t-4 31q-1 2 -2 5t-4 4q-1 0 -3.5 0.5t-5.5 1l-6 1t-5 0.5q-7 0 -14 -1l-14 -2q-3 -2 -4 -5q0 -2 -0.5 -4t-1 -5t-1 -5.5t-0.5 -3.5q-1 -2 -2.5 -2h-3.5h-2.5t-1.5 2q0 13 4 19t9 8.5
t9.5 3.5t4.5 2v7q0 11 -1 21t-1 21l-5 5h-4t-6 0.5t-6 0.5h-4q-4 1 -5.5 1t-1.5 3zM157 186q0 -3 -0.5 -7t0 -7.5t1.5 -6.5t5 -3q2 0 3 0.5t2 2.5q1 1 1 4v4v6q0 3 -1 3v7t-0.5 10.5t-2.5 9.5t-6 4h-1v-4.5t-0.5 -7t-0.5 -7v-4.5v-4zM132 167q-1 0 -1.5 0.5t-0.5 1.5l-1 3
t-1 5q0 1 -0.5 3t-0.5 4t-0.5 4l-0.5 2v3v4.5v4.5v2q5 0 7 -2t3 -5t1 -6v-8t-0.5 -8.5t-4.5 -7.5zM193 167q-1 0 -2 0.5t-1 2.5v30q0 3 1.5 3h2.5q3 0 5.5 -2t2.5 -5l-4 -27q0 -1 -1.5 -1.5t-3.5 -0.5zM148 134q0 1 0.5 2t1.5 1h32l5 -5q-1 -2 -4.5 -2.5t-6.5 -0.5h-7
t-9.5 0.5t-8 1.5t-3.5 3zM118 64v22t2.5 17t10.5 11t23 4q3 0 6 -1t3 -4t-1.5 -3.5t-4 -1t-4.5 -1t-3 -2.5q0 -1 -0.5 -3.5l-0.5 -2.5q0 -5 2.5 -8l5 -6t4.5 -7t2 -12q0 -4 -1.5 -6.5t-4 -4t-4 -3t-1.5 -5.5v-4.5t1.5 -2l3 -1t5.5 -0.5v-5q-5 0 -11.5 -0.5t-13 0.5t-12 4
t-7.5 9v17zM128 93q1 -3 3 -4t4 -1q5 0 6 4t1 7t-0.5 5t-5.5 4q-2 1 -3.5 -1t-2.5 -5t-1.5 -6zM126 75q0 -8 4 -10.5t13 -2.5h4t4 1t3 2.5t1 4.5t-1.5 6.5t-5.5 3.5h-20q-2 0 -2 -2v-3zM128 51q0 -3 2.5 -6t5.5 -3t4.5 2t1.5 4t-2 4t-4 3v0q-2 0 -4.5 -0.5t-3.5 -2.5v-1z
" />
</svg>
