<?xml version="1.0" standalone="no"?>
<!DOCTYPE svg PUBLIC "-//W3C//DTD SVG 1.1//EN" "http://www.w3.org/Graphics/SVG/1.1/DTD/svg11.dtd" >
<svg xmlns="http://www.w3.org/2000/svg" xmlns:xlink="http://www.w3.org/1999/xlink" version="1.1" viewBox="-10 0 266 256">
   <path fill="currentColor"
d="M71 249q0 1 1.5 1h2.5q2 0 3.5 -2t2 -4.5l1 -5l0.5 -2.5v-86q0 -1 0.5 -4t0.5 -6.5t0.5 -6.5t0.5 -4v0q3 0 4 1.5t2 4t1.5 5t0.5 3.5t0.5 3t0.5 3.5t0.5 3t0.5 2.5v74q0 1 1.5 1.5t2.5 0.5t2.5 -0.5t1.5 -2.5v-26v-16v-13t-0.5 -14t-1.5 -16q-1 -2 -1.5 -4.5t-0.5 -5
t-0.5 -4.5t-2.5 -5q-2 -4 -4 -5t-3.5 -2.5t-2.5 -3.5t-1 -8v-5q2 -3 5.5 -4t5.5 -5q4 -3 5 -8.5t1.5 -11.5t0.5 -12v-10v-13q-1 -1 -2 -1h-2h-2.5t-1.5 1v30q0 1 -0.5 3.5t-1 6t-2 6t-3.5 2.5l-1.5 -0.5t-1.5 -1.5v-68l-1.5 -0.5t-1.5 -1.5h-1h-1q-1 1 -3.5 1.5l-2.5 0.5v62
l-2 8h-1h-0.5h-0.5q-1 -1 -3.5 -3l-2.5 -2v-39q0 -3 -3 -5t-6 -2q-2 0 -2.5 2.5t-0.5 4.5q0 1 0.5 5.5t1 10.5t1.5 12t2 11.5t1.5 9.5t1.5 4q3 2 5.5 2.5t5 1.5t4.5 3t2 5q0 5 -1 7t-2.5 3.5t-4 2.5t-5.5 3q-4 2 -6 5.5t-3.5 7.5t-1.5 8t-1 8v19.5v19.5t-0.5 19.5t-2.5 19.5
q1 1 1.5 3t2.5 2q3 0 4.5 -2t1.5 -5q0 -11 0.5 -21t1 -19t1.5 -18t2 -20v-6q0 -4 0.5 -6t2.5 -3.5t6 -1.5v82q-1 8 -1 13v12v11zM115 246q0 2 1.5 2.5t3.5 0.5q4 0 5.5 -2.5t1.5 -6t-0.5 -7t-0.5 -5.5l5 -5q11 0 21.5 -1t21.5 -1h4h5h6h4q0 1 2.5 1.5t3.5 0.5q2 0 3.5 -2
t1.5 -4q0 -3 -3 -4.5t-8 -1.5q-4 0 -10 0.5t-10.5 0.5t-7.5 -1t-3 -5q0 -2 0.5 -4t2.5 -4h6.5t7 -0.5t7.5 -1t7 -1.5v-2v-2.5t-2 -1.5h-29l-1 -2t-1 -3t0.5 -2.5l1 -3t1.5 -2.5t2 -1h26q2 0 3 -2t1 -4t-2 -2.5t-4 -0.5q-5 0 -10 1t-11 1h-6q-1 -2 -1.5 -3.5t-0.5 -3.5
q0 -3 1 -4t4 -1t5 1t3.5 2.5t3 2.5t3.5 1t4 -1.5t2 -3.5q0 -3 -2.5 -5t-6 -3.5t-7 -2.5t-5.5 -2v-2q0 -3 3 -4t8 -2t10 -2.5t9 -3.5t4 -5v0q0 -1 -1.5 -2.5l-3 -3l-3 -3l-1.5 -1.5q-2 -2 -4 -3.5l-4 -3t-3 -3.5t-1 -5t3 -3.5t5 -1.5q8 -2 12 -6.5t5.5 -11t2 -13.5t0.5 -14
v-15l-1 -1.5l-2 -3t-2 -2t-2 -0.5h-37l-0.5 1t-1.5 2v1v0l2 2l1 1h14l2 1t3 1v0v0q2 0 3.5 -1t4.5 -1q2 0 3.5 2t2 4t0.5 5v4q0 4 -5.5 6t-12 3.5t-11.5 3.5t-5 7q4 0 8 -1.5t7.5 -3t7.5 -3t8 -1.5q1 0 2.5 1t0.5 3q-1 3 -6.5 5.5t-12 5t-12.5 5t-8 5.5q0 2 2.5 1.5
t3.5 -0.5q4 0 8 -1t7.5 -3t7 -3.5t6.5 -1.5q0 5 -3.5 7t-7.5 4t-7.5 4.5t-3.5 7.5q0 4 1.5 6l3 4l3 4t1.5 6q-5 0 -9.5 -4.5t-7.5 -9.5t-5.5 -9t-5.5 -4q-2 0 -3 1.5t-1 4v4.5v3l-2 2t-4 4.5t-4 4t-3 2.5t-3 1.5t-3.5 1.5t-2.5 2t-1 4q0 2 2.5 4t5.5 3.5t6 2.5t4 2
q-1 2 -4 3.5t-6.5 2.5t-6 2.5t-2.5 4.5q0 1 -0.5 4.5l-1 7t-1 6.5t-0.5 4v6v10v9.5v5.5q-1 9 -3 19t-2 19zM127 205q0 -1 0.5 -3l0.5 -2l0.5 -1l0.5 -1h22q1 0 1 3v2q0 4 -1 6t-3.5 3t-5.5 1h-6h-7q-1 -1 -1.5 -3.5t-0.5 -4.5zM129 185q0 -6 3.5 -7t9.5 -1h7q3 1 3.5 3.5
t0.5 4.5q0 1 -0.5 2.5l-0.5 1.5l-3 1h-18q-1 0 -1.5 -0.5t-0.5 -2v-1.5v-1zM131 165q0 -2 1.5 -5t3.5 -6t5 -4.5t5 -1.5t3.5 1.5t2.5 3.5t1.5 4.5t0.5 3.5q0 3 -1 5t-4 3q-1 0 -4 0.5l-3 0.5h-4t-3.5 -0.5t-2.5 -1t-1 -3.5zM137 130q0 -4 3 -5.5t6 -2.5v0h1q2 1 2.5 2.5
t1 3.5t0.5 4v2v0v2l-1 0.5l-1 0.5q-1 0 -2.5 -0.5t-3 -1.5t-2.5 -2t-2 -1l-0.5 -0.5l-1.5 -1.5v0zM160 126q0 -2 1.5 -2h3.5q1 0 2.5 0.5t2.5 2.5q-1 2 -3 3.5t-4 1.5h-1l-0.5 -2t-1.5 -3v-1zM111 122q0 4 4 4q3 0 4.5 -1.5t2 -3.5t1.5 -4t1 -5q2 -3 6 -7t6 -5q0 -1 2.5 -2
t2.5 -2q5 -4 7 -9.5t3 -12t0.5 -13t-0.5 -12.5v-7t-1 -7.5t-3 -6.5t-6 -4h-10q-1 0 -4 -0.5t-6.5 0t-6.5 1.5t-3 4q0 2 1.5 2t3.5 1h4h5h5.5h3.5q2 0 2 1v2q0 4 -4 6t-8.5 3.5t-8.5 3.5t-4 5q0 1 0.5 2t2.5 1q3 0 6 -1t5.5 -2.5t5.5 -3t6 -1.5q0 4 -3 7t-6.5 6t-8 4.5
t-7.5 3.5l-0.5 0.5t-0.5 1.5q0 3 5 3v0q1 0 3 -1t4 -2.5t4 -2.5l2 -1q1 0 3 0.5t3 0.5q0 1 0.5 2.5l0.5 1.5q-2 3 -5.5 5t-7.5 4l-8 4t-7 5q1 2 2.5 2h2.5t2 -0.5l1 -0.5q1 0 3.5 -1t5 -2.5t5 -2.5t3.5 -1q1 -1 4 0t4 1v2l-1.5 1t-3 3t-3 3.5t-2.5 1.5q-2 2 -4 3t-3.5 2
t-2.5 2.5l-3 4.5q0 1 -1.5 3t-2.5 4t-1.5 3.5t-0.5 2.5l-0.5 0.5zM158 53q0 3 2 3h4t7 -1t9 -2.5t7 -4.5t3 -7q-1 0 -6.5 1t-11 3t-10 4t-4.5 4z" />
</svg>
