<?xml version="1.0" standalone="no"?>
<!DOCTYPE svg PUBLIC "-//W3C//DTD SVG 1.1//EN" "http://www.w3.org/Graphics/SVG/1.1/DTD/svg11.dtd" >
<svg xmlns="http://www.w3.org/2000/svg" xmlns:xlink="http://www.w3.org/1999/xlink" version="1.1" viewBox="-10 0 266 256">
   <path fill="currentColor"
d="M68 126q1 0 2 0.5t1 1.5v118q0 2 1 2.5t2 0.5q2 0 5 -1.5t3 -3.5v-81q-1 -3 -1 -6v-6v-7v-5t0.5 -6t0.5 -7h1h1q3 2 4 4.5t1.5 5.5t0.5 7v6q1 1 1 6t0.5 10.5t0.5 10v6.5v0v1v7t-0.5 11t-0.5 11.5t-1 7.5v1v0l2 2l2 2h1q2 0 3.5 -3t2 -6t0.5 -6.5v-4.5q0 -20 -1 -41.5
t-6 -40.5q-1 -4 -3 -5.5t-4.5 -3t-4 -2.5t-1.5 -3v-21l2.5 -1.5t5 -3.5t5.5 -5t3 -7q0 -1 0.5 -3.5t0.5 -6t0.5 -6t0.5 -3.5t0.5 -3t1 -4.5l1 -5t0.5 -3.5v-1q0 -3 -1.5 -5.5t-4.5 -2.5t-4 3l-2 6q0 1 0.5 3.5t0.5 5.5v5q0 3 -1 3v4.5v5.5t-0.5 6t-0.5 4l-1.5 0.5l-1.5 0.5
l-1 1l-0.5 -0.5l-0.5 -0.5l-1.5 -0.5l-1.5 -0.5v-18q0 -9 0.5 -17.5t0.5 -17.5q0 -8 -6 -8h-1h-2t-2 0.5t-1 1.5v60q0 2 -1.5 2h-2.5h-1q-2 0 -3.5 -1.5l-1.5 -1.5l-5 -38q-1 -6 -6 -6q-2 0 -4 1.5t-2 4.5l3 36q1 6 3 9t5 4t6 1t5.5 1.5t4 5t1.5 10.5v4v4q-1 3 -4.5 3.5
t-5.5 2.5q-6 4 -9.5 11t-5.5 14.5t-2 15.5t-1 16v4v7.5v8.5v8v5v8.5v8.5v5q1 1 2 1.5l1 0.5q3 0 4.5 -3t2.5 -6q-1 -14 0 -27.5t2 -27.5q0 -3 0.5 -9.5t2 -13.5t3.5 -12t7 -5zM109 143v6v6t0.5 11t0.5 11v6v8t1 9t3.5 7.5t7.5 3.5l2 -0.5t4 -0.5t4 -0.5t3 -0.5l0.5 -2
t0.5 -3q1 -7 1 -13t0.5 -11.5t0.5 -10.5v-12v-19q-1 -3 -3.5 -4t-4.5 -1v26q0 1 -0.5 1.5t-1.5 0.5h-5h-5l-1 -0.5t-1 -1.5v-23q-5 0 -6 1t-1 6zM144 145v2q0 1 1 2q0 5 0.5 14.5t1 18t1 14.5l0.5 6l3 5l4.5 1t6.5 1h3h2q1 0 3.5 -3t3.5 -4q0 -3 0.5 -11t1 -16.5t1 -16.5
t0.5 -11v-4v-4t-3 -3q-1 0 -3 1l-2 1q0 3 -0.5 9t-2.5 11h-4q-3 0 -4.5 -0.5t-3.5 -2.5v-2t-0.5 -4.5t-0.5 -4.5v-2q-1 -3 -1.5 -3.5t-1.5 -0.5q-3 0 -4.5 2t-1.5 5zM183 144q0 2 0.5 4l0.5 2v3t0.5 5t0.5 5v3v11t0.5 14t3.5 12.5t10 5.5q5 0 9 -1.5t7 -5.5v-5v-6.5v-7.5v-4
v-12v-11.5t-0.5 -11t-1.5 -11.5l-1.5 -1.5t-1.5 -0.5q-4 0 -5.5 2t-1.5 6v2.5v1.5q0 1 1 4l1 3q0 1 -0.5 3t-1.5 2h-4q-5 0 -6 -2.5t-1 -6.5t-0.5 -7t-3.5 -3h-1q-1 1 -2 1.5l-1 0.5q0 1 -0.5 3.5zM118 197q-1 -5 -1 -8.5v-7.5v-7q1 -2 2.5 -2.5t3.5 -0.5q7 0 7 8v5
q0 3 -0.5 6.5t-2 6t-4.5 2.5q-2 0 -5 -2zM156 195q0 -1 -0.5 -4.5t-0.5 -6.5t-0.5 -6.5t-0.5 -4.5v-0.5v-0.5v-1l0.5 -1.5t1 -1.5h2.5h3l3 -0.5t3 1.5v7q0 3 0.5 7t0 7.5t-2.5 6t-5 2.5q-2 0 -3.5 -0.5t-0.5 -3.5zM193 181v-5q0 -4 1 -5q0 -2 1.5 -4.5t4.5 -2.5q2 0 3 2
t1.5 4.5t0.5 5.5v4v4t-0.5 6t-2 5t-3.5 2q-3 0 -4 -1.5t-1.5 -4.5t-0.5 -5.5v-4.5zM154 76q0 2 0.5 7t0.5 11t0.5 11t0.5 7v3v4t0.5 4t2.5 2q4 0 5.5 -4.5t1.5 -9.5t0.5 -9.5t2.5 -4.5l2 1t3 1h5q1 0 4 -0.5l6 -1t5.5 -2t2.5 -4.5l-1 -1.5l-1 -1.5h-26l-2 -3v-3t-0.5 -6.5
t-0.5 -7v-6.5v-4v-1v-2v-2t1 -1h23q3 0 5 2.5t2 4.5q0 4 -4 4.5t-8 0.5q-5 0 -8.5 1t-3.5 7q7 0 11.5 -1.5t10.5 -1.5q1 0 3 0.5t2 3.5v46q0 2 1.5 2h1.5q1 0 2.5 -1t2.5 -2.5l2 -3t1 -2.5v-46q0 -11 -3.5 -16.5t-10 -7.5t-14 -2h-14.5q-2 -1 -2.5 -3t-0.5 -3q0 -2 3 -5
t5 -3l32 -4l0.5 -1t0.5 -2q0 -2 -0.5 -4t-3.5 -3h-6q-19 0 -38.5 3t-38.5 4q-2 1 -2.5 2.5t-0.5 3.5v2t1 2h36v13l-1 1q-13 1 -21.5 2.5t-13.5 5.5t-7 11.5t-2 21.5q0 9 0.5 17.5t0.5 17.5q1 0 1.5 0.5t1.5 0.5q3 0 4.5 -4t1.5 -10.5v-13.5v-14t1 -12t3 -7q3 -2 6 -3t6 -1.5
t6 -0.5t5 -1l2 -0.5t3 -0.5t2.5 0.5t2.5 0.5v3v3v4.5t-2 3.5h-2h-4h-4h-3t-3.5 0.5t-5 1.5t-4.5 2t-2 3t1.5 3t3.5 1q4 0 8.5 -1t10.5 -1h4zM126 99q0 2 2 3.5t4 1.5t5 -0.5t5.5 -1t5 -2t2.5 -3.5t-1 -2.5t-2.5 -1t-3.5 -0.5h-2h-4q-2 0 -4.5 0.5t-4.5 1.5t-2 4z" />
</svg>
