<?xml version="1.0" standalone="no"?>
<!DOCTYPE svg PUBLIC "-//W3C//DTD SVG 1.1//EN" "http://www.w3.org/Graphics/SVG/1.1/DTD/svg11.dtd" >
<svg xmlns="http://www.w3.org/2000/svg" xmlns:xlink="http://www.w3.org/1999/xlink" version="1.1" viewBox="-10 0 266 256">
   <path fill="currentColor"
d="M185 194v25.5t3 24.5q0 1 0.5 2t1 3t1.5 2h4h4q0 -8 -1 -17t-2.5 -18t-3 -17.5t-1.5 -17.5v-4.5t0.5 -3l1 -3l1.5 -4.5h1.5h0.5q3 0 3.5 2t1.5 5t2 5t4 2t3.5 -1.5t0.5 -4.5q0 -4 -1.5 -8t-4 -8t-4.5 -8t-2 -8q0 -5 1.5 -8t3.5 -6t3.5 -7t1.5 -9q-4 0 -5.5 1.5t-2 3
t-1.5 3t-3 1.5q-1 0 -1.5 -0.5t-1.5 -0.5v-2.5t-0.5 -4t-0.5 -4.5v-3v-2q0 -4 2.5 -5t5.5 -1.5l6 -1t3 -3.5v-2t-2 -2h-12l-1.5 -1.5l-1.5 -1.5v-1q0 -5 1.5 -7t4 -3.5t5.5 -3.5t4 -6q0 -1 0.5 -4t0.5 -6.5t0.5 -7t0.5 -4.5v-1q0 -2 -1.5 -3.5t-3.5 -1.5l-1.5 0.5l-1.5 0.5
q0 2 -0.5 5.5t-0.5 4.5v2v2v3v1q-1 2 -1.5 5l-0.5 3h-4q0 -9 0.5 -18.5t0.5 -18.5v-7q0 -1 -0.5 -1.5t-1.5 -0.5h-3.5h-4.5q0 4 1 6.5t1 6.5q0 8 -0.5 15t-0.5 15q0 3 -0.5 7.5t-0.5 8.5t-0.5 7l-0.5 3l-3 3q-17 0 -36 0.5t-36 1.5q-1 0 -3 1t-3 2l3 4h28v24q0 3 -3 3.5
t-5 0.5t-4 -0.5t-2 -3.5v-0.5v-0.5q0 -1 0.5 -4t0.5 -4q0 -2 -1.5 -5t-4.5 -3t-3 1.5v2.5q0 5 0.5 10t1.5 10q1 4 4.5 5t6.5 1t5 0.5t2 3.5v2v3.5t-0.5 5t-1 4.5t-0.5 3q-1 3 -5 3q-3 0 -4.5 -1.5t-2.5 -4t-1 -5v-4.5q-1 0 -1.5 -0.5t-1.5 -0.5t-2 0.5t-1 1.5q-1 1 -1 3v4v3
q0 3 0.5 5.5t1.5 4.5t3 2h13l1 2v3v5q0 1 0.5 3.5t0 6t-1.5 6t-4 2.5q-4 0 -6 -2t-3 -5t-0.5 -6.5t0.5 -6.5q0 -2 -1 -2h-2q-2 0 -2.5 2t-0.5 4v0q0 2 0.5 5t0.5 5.5t0.5 5l0.5 2.5q0 1 0.5 2.5l0.5 1.5h12q1 0 2 1t1.5 2.5l1 3t0.5 2.5q0 2 -3.5 3.5t-8 2.5t-8.5 1h-6
q-1 0 -2 -0.5l-1 -0.5v-9v-13v-15v-16v-12.5v-8.5v-3.5t-0.5 -5.5t-0.5 -6t-1 -4q0 -5 -3.5 -6.5l-7 -3t-6.5 -3t-3 -6.5q0 -7 2.5 -9.5t6 -3.5t7 -2.5t4.5 -6.5q3 -11 4.5 -23t1.5 -23q0 -2 -1 -4t-3 -2q-1 0 -2 0.5t-1 1.5t-0.5 4.5t-0.5 8t-0.5 7.5t-0.5 5v5v6.5t-0.5 6
t-2.5 4.5q-3 3 -8 3q-3 0 -3.5 -1.5t-0.5 -4.5q0 -13 1.5 -26.5t1.5 -26.5v-3t-0.5 -4t-1.5 -3.5t-3 -1.5l-2 0.5t-3 1.5q-1 8 -1 16.5v17t0.5 16.5t0.5 15q-1 0 -3.5 0.5t-3.5 0.5q-2 -1 -3.5 -4.5t-1.5 -9.5v-12v-11.5t-1.5 -9t-4.5 -3.5q-2 0 -3 1.5t-1 3.5
q0 12 1.5 24.5t4.5 23.5q1 4 3 6t4 3.5t3.5 4t1.5 8.5v4v4q-2 2 -4.5 2.5t-4.5 1t-4 2.5t-4 7l-0.5 1t-0.5 2l-8 88v5v4t3 2q4 0 5.5 -8t2.5 -19.5t1 -25.5t1 -25.5t3.5 -19.5t6.5 -8q1 0 2 0.5t1 1.5v116q0 2 1.5 2h1.5q1 0 2.5 -1t2 -2.5l1 -3t0.5 -2.5v-111q0 -1 2 -1h3
q4 0 6.5 4t2.5 8v100q2 -1 3 -2.5t2.5 -3l2.5 -2.5t3 -1h64q2 0 4.5 -2.5t2.5 -4.5q-2 0 -6 0.5t-7 0t-5.5 -2t-2.5 -5.5v-1q0 -2 0.5 -3t0.5 -2t1 -1l16 -4v-22l-1 -0.5l-1 -0.5h-1q-3 0 -3 3t-0.5 6.5t-1.5 6.5t-6 3h-2t-2 -2v-20q0 -3 3 -4t6.5 -1.5t6.5 -1.5t3 -4v-17
q-5 0 -5.5 2.5t-0.5 5.5t-1 5t-5 2q-2 0 -3 -0.5t-2 -2.5v-8q0 -6 1.5 -9t3.5 -4t4.5 -2t5 -3t4 -7t1.5 -14q0 -4 -4 -4l-1 0.5l-1 0.5q-1 2 -1 5.5t-0.5 7t-2.5 6t-5 1.5q-1 0 -2 -1t-1 -2v-24l0.5 -1t0.5 -2l1 -0.5l1 -0.5h21l3 3q0 2 0.5 6.5t0.5 10t0.5 10t0.5 6.5
l0.5 2.5t1 4.5t1 4.5l0.5 2.5v1v1l-0.5 1t-1 2.5t-1 2.5t-0.5 2v0.5v0.5q0 1 -1 4.5t-1 4.5v6v7.5v8.5v5zM136 211q0 -28 2 -55.5t4 -54.5q1 -1 2.5 -2t2.5 -1t2.5 1t1.5 2v7q0 26 -1.5 52.5t-2.5 52.5q-2 2 -3 3.5t-3 1.5q-4 0 -4.5 -2.5t-0.5 -4.5zM121 82v2.5t1 2.5
q4 -1 6 -6.5t2.5 -12t0.5 -13.5v-10q1 -2 2 -2h2q6 0 6.5 4t0.5 8q0 8 -0.5 15t-0.5 15q3 0 5 -3t2.5 -7.5t0.5 -10t0.5 -9.5t1.5 -7t3 -3q1 0 1.5 1.5l1 3l1 3l0.5 1.5v1v1l-0.5 2.5l-1 5t-0.5 5v3.5v3v3v3t0.5 3.5t1.5 1.5h3l4 -41q0 -1 1.5 -1.5l1.5 -0.5q1 0 2 0.5
t2 1.5v3t0.5 4.5t0.5 5v3.5v5t-0.5 6.5t-1.5 7t-1 6.5v0h2q2 0 3.5 -2t2.5 -5q0 -10 0.5 -17t0.5 -16v-6q-1 -3 -5 -4t-7 -1q-4 0 -8 1t-8 1h-4t-3 -2h-29q-1 0 -1.5 1l-0.5 1v1q0 2 1.5 2.5t3.5 1t3.5 1.5t2.5 2v6q0 7 -1 13t-1 14q-1 0 -1 1v3z" />
</svg>
