<?xml version="1.0" standalone="no"?>
<!DOCTYPE svg PUBLIC "-//W3C//DTD SVG 1.1//EN" "http://www.w3.org/Graphics/SVG/1.1/DTD/svg11.dtd" >
<svg xmlns="http://www.w3.org/2000/svg" xmlns:xlink="http://www.w3.org/1999/xlink" version="1.1" viewBox="-10 0 266 256">
   <path fill="currentColor"
d="M148 243v3t2 2h1q1 0 3.5 -1t2.5 -2q1 0 1.5 -0.5l0.5 -0.5v-25q0 -2 2 -3.5t4 -1.5q7 0 9.5 4.5t4 10.5t3.5 10.5t6 4.5q2 0 4 -1t2 -4t-1.5 -7.5t-4 -8l-5 -7t-5.5 -5.5q-2 -2 -5.5 -2.5t-6 -1t-4.5 -2t-2 -6.5l0.5 -1.5t0.5 -2.5q11 -1 18 -5.5t7 -16.5q0 -2 -0.5 -4
t-2.5 -2q-4 0 -5.5 3t-2.5 6.5t-2 6.5t-5 5l-3 -1t-4 -1v-19l-1.5 -1t-2.5 -2v0v0h-1l-3 3l-2 2v15q0 2 -2 2h-2q-5 0 -7.5 -1.5t-3.5 -4t-1 -6v-7.5l-1 -1.5l-1 -1.5q-1 0 -2 0.5t-2 1.5l-0.5 0.5l-0.5 0.5v17q0 4 3.5 5.5t7.5 2t7.5 2t3.5 4.5q0 5 -3 7q-5 1 -9 2
t-7.5 2.5t-6 3.5t-6.5 6q0 1 -2 3t-4 4.5l-4 5l-2 2.5v2v3t2 2h7q0 -1 2 -3t4 -5t4 -5l4 -4l6 -6t6.5 -5t5.5 -2l2 2t2 3v0q0 7 -1.5 13.5t-1.5 13.5zM51 237q0 3 1 3.5t4 0.5q2 0 5 -1.5t3 -4.5l-0.5 -0.5l-0.5 -0.5l-0.5 -2.5t-0.5 -3.5v-0.5v-0.5q0 -2 1 -5.5t4 -4.5
l23 -6l6 -6l0.5 -2t1 -4.5t0.5 -5v-4.5q1 -6 1.5 -12.5t0.5 -12.5q0 -2 -1.5 -4t-3.5 -2h-1h-1v2.5t-0.5 3.5t-0.5 4v3l-2 3q-5 1 -8 1h-8h-4h-3q-2 -3 -2 -6v-6v-8q1 -2 6.5 -3t12 -2.5t12.5 -5t7 -9.5v-4t0.5 -7t0.5 -8v-6v-3v-4.5t-3 -2.5t-4 2.5t-1 5t-0.5 4.5t-2.5 2
h-23l-3 -3l-0.5 -2.5t-0.5 -3.5v-1.5v-4t0.5 -4.5t1.5 -2q3 -2 7 -3t8 -1.5t8.5 -1t8 -2.5t6 -6t2.5 -10v-26l-1 -1l-1 -1h-1q-3 0 -4 1.5t-1.5 4t-1 4.5t-2.5 3h-2.5t-3.5 0.5t-3.5 0.5h-2.5h-2.5h-2.5h-3.5h-1.5q0 -1 -0.5 -2.5t-0.5 -3v-3v-2.5q1 -5 7 -9t13 -7t12.5 -5
t5.5 -4t-1.5 -2.5t-3.5 -0.5h-2h-1q-2 1 -5.5 2l-7 2t-7 2.5t-4.5 1.5q-3 1 -5.5 4t-5.5 6q-1 0 -1.5 2t-1 3.5t-1.5 3t-2 1.5q0 2 -0.5 6.5t-1 9.5t-1 9.5t-0.5 5.5q-1 5 -2 9t-1 8q0 9 0.5 18t0.5 18q0 27 -1 53.5t-5 52.5v3zM63 194q0 -5 1.5 -7.5t4 -3.5t6 -1.5
t7.5 -0.5h4t4 1l0.5 1t1.5 1v1q0 4 -1.5 8t-4.5 7.5t-6.5 5.5t-8.5 2q-3 0 -4.5 -1.5t-2 -3.5t-1 -4.5t-0.5 -4.5zM184 150q4 0 6.5 2t4.5 4t4.5 3.5t7.5 1.5q0 -3 -2.5 -6.5t-5 -6l-4.5 -4.5t-1 -3q0 -1 1.5 -2.5t1.5 -2.5v-0.5v-0.5q0 -5 -1 -9t-6 -7q-1 -1 -3 -2l-4 -2
t-3.5 -1.5l-1.5 -0.5h-50l-2 3l3 2h4h9t11 0.5t9 0.5t7 0.5t7.5 1.5t6.5 3t3 6q0 6 -7 8q-6 -2 -11.5 -4t-11.5 -2.5l-12 -1t-12 -0.5h-17l-0.5 0.5t-0.5 1.5v0q0 3 4.5 3.5t11 1t13.5 0.5q8 0 14.5 0.5t11 2t4.5 5.5v1l-0.5 0.5l-0.5 0.5q-12 2 -25 2h-24q0 3 2 4.5
t5.5 1.5h7h5.5h7q1 0 5 -0.5t8.5 -1t8.5 -1t6 -0.5q1 -2 2.5 -2h3.5zM67 141v-16q0 -1 1 -1q1 -1 2 -1.5l1 -0.5h22q2 0 2 2v3q0 11 -5 13.5t-15 2.5h-3.5h-3.5zM116 98q0 2 2 2h3q20 0 39.5 -0.5t39.5 -0.5q0 -4 -2.5 -5t-5.5 -1q-1 0 -4.5 -0.5t-7.5 -0.5t-7 0.5t-5 0.5
q-1 0 -2 -1t-1.5 -2.5t-0.5 -2.5v-2t1 -2.5t2 -2.5q1 0 3.5 -0.5t5 -0.5h5h3.5h2h4.5t4.5 -1t2 -3t-2 -3t-4 -1q-16 0 -32.5 0.5t-32.5 2.5v5h29v8t-1 4.5t-4 2t-8 0.5h-22l-2 2l-1 1q-1 0 -1 1zM93 61l2 0.5t3 0.5q1 1 1.5 2t0.5 2q0 5 -2 8.5t-5.5 5.5t-7.5 3t-9 1
l-1.5 -0.5t-3 -0.5t-2.5 -1t-1 -2v-12q0 -2 3.5 -3t7.5 -2t8 -1.5t6 -0.5zM133 62q0 1 0.5 1h1.5q2 0 3.5 -0.5t1.5 -3.5q0 -4 -1 -8.5t-1 -9.5t3 -8.5t8 -3.5q4 0 5 4t2 9l2 10t4 6q2 -1 3.5 -3t1.5 -4q0 -6 -2.5 -11t-2.5 -11v-2.5v-2.5q2 -2 4 -2h4h3t3 2q1 1 1.5 4
t1.5 6l2 6t2 4q1 3 3 5.5t5 2.5q2 0 4 -0.5t2 -2.5t-2 -5t-4 -6.5t-3.5 -7.5t-1.5 -7v-2.5v-2.5h3t3.5 -1l3 -2t1.5 -3q0 -3 -4 -3h-1l-33 7l-1 1t-2 1l-0.5 0.5t-1.5 0.5q-5 2 -9.5 3t-8 3t-5.5 5.5t-2 10.5q0 6 0.5 10t3.5 11z" />
</svg>
