<?xml version="1.0" standalone="no"?>
<!DOCTYPE svg PUBLIC "-//W3C//DTD SVG 1.1//EN" "http://www.w3.org/Graphics/SVG/1.1/DTD/svg11.dtd" >
<svg xmlns="http://www.w3.org/2000/svg" xmlns:xlink="http://www.w3.org/1999/xlink" version="1.1" viewBox="-10 0 266 256">
   <path fill="currentColor"
d="M152 244v4q0 3 3 3q2 0 5 -2t3 -5v-8.5v-9.5t0.5 -10t1.5 -10q1 -1 2 -1h3q4 0 6.5 2.5t4 6.5t2 8.5l1 9t2 7t4.5 2.5t4.5 -3t1.5 -6q0 -5 -1.5 -10.5t-4.5 -10.5q0 -1 -0.5 -2.5t-1.5 -3t-1.5 -2.5l-0.5 -1l-19 -5q-2 -1 -2 -3v-2q0 -3 3.5 -5.5t7.5 -5t8.5 -4.5t5.5 -4
l0.5 -1.5l0.5 -1.5q0 -9 -4 -12t-9 -4.5t-9 -2t-4 -3.5q0 -2 1.5 -3t3.5 -1.5t4 -0.5t2 -1q1 0 2 -1.5t3 -3t3 -3t2 -2.5v-4q0 -6 -2 -8t-4.5 -3t-6 -2t-6.5 -4q-2 -2 -3 -4t-3 -2t-3 0.5t-2 2t-1.5 3t-2.5 2.5l-5 2.5t-5 3t-4 4t-2 6.5q0 7 2.5 10t5.5 4t6 1.5t4 4.5
l-0.5 1.5t-1.5 1.5q0 1 -0.5 1.5l-0.5 0.5l-14 3q-2 1 -2.5 2.5t-0.5 4t-0.5 4.5t-0.5 3q0 6 3.5 8.5t7.5 3.5t7 2.5t3 6.5q0 2 -1.5 4t-4 3.5t-5.5 2.5t-5 1q-2 3 -4 7t-4 8.5t-3.5 9t-1.5 8.5q0 3 1 4t4 1q4 0 5.5 -5.5t3 -12.5t3.5 -12.5t8 -5.5h2.5t1.5 1v10
q0 8 -1 14.5t-1 13.5zM73 216v30q3 0 5.5 -2t2.5 -5l5 -121l3 -7h0.5h0.5q2 0 3.5 3.5t2 7.5l1 8t0.5 6q0 1 0.5 3t0.5 4.5t0.5 4.5t0.5 3v72q0 2 0.5 2.5t2.5 0.5h0.5h0.5q4 -4 4.5 -5.5t0.5 -5.5q0 -24 -1 -49.5t-4 -49.5q0 -5 -2.5 -7.5t-5.5 -3.5t-5 -2.5t-2 -2.5v-23
q0 -2 1.5 -2.5t4 -2l5 -3t3.5 -4.5q0 -1 0.5 -5t1.5 -8t1.5 -8t0.5 -5v-2q0 -2 -0.5 -5t-3.5 -3q-1 0 -2 5t-1.5 11t-2 11t-5.5 5q-2 0 -3.5 -3.5t-1.5 -5.5v-34q0 -4 -1 -5t-4 -1t-4 1t-1 4q0 8 1 15.5t1 15.5v4.5t-0.5 4.5t-1.5 3.5t-3 1.5q-5 0 -6.5 -5.5t-1.5 -12.5
t-1 -13t-5 -6t-4.5 1.5t-0.5 5.5q0 9 1.5 18.5t4.5 17.5q1 1 3 1.5t4 2t3.5 2.5t2.5 1q2 1 2.5 3.5l1 5t0.5 5.5v4v6t-2 6q-8 2 -12 6.5t-6 10.5t-2 12.5t-1 14.5q0 2 -0.5 7.5t-1 13t-1 16t-1 16.5t-1 13.5t-0.5 7.5v2q0 1 1 2.5t3 1.5t3.5 -2.5t2.5 -3.5q-1 -25 1 -50.5
t5 -50.5q1 -2 3.5 -5t5.5 -3l0.5 0.5l0.5 0.5l0.5 0.5t1.5 0.5q0 2 -0.5 5.5t-0.5 7.5t0.5 8t0.5 5t0.5 4.5t0.5 4.5v0q0 6 -0.5 14t-2.5 13v35zM141 168v-2.5v-1.5q3 -2 6.5 -3t7.5 -1.5t7.5 -0.5h6.5q4 0 7 2t3 6t-1.5 6.5t-4.5 4.5q-1 1 -3 1t-4 0.5t-4.5 0.5h-2.5
q-3 0 -6.5 -0.5t-6 -2t-4 -3.5t-1.5 -6zM144 132q0 -8 6 -11.5t13 -3.5q1 0 3.5 0.5t3.5 0.5q5 3 5 10q0 3 -1.5 5t-3.5 3t-4.5 1h-6.5q-1 0 -3.5 0.5t-5 0t-4.5 -2t-2 -3.5zM162 92q0 7 3.5 10t8.5 4t10.5 0.5t9.5 -0.5q3 0 5.5 -2t4 -5.5t2.5 -7t1 -6.5q0 -6 -1 -9.5
t-3.5 -5.5t-6.5 -3t-9 -1q-8 0 -13 1.5t-7.5 4t-3.5 7.5t-1 13zM108 90q0 5 3 8t7.5 4.5t9 2t8.5 0.5h5h5q6 -2 7 -7t1 -11q0 -9 -3 -14t-11 -5q-6 0 -12 0.5t-10.5 2.5t-7 6.5t-2.5 12.5zM137 90h4q3 0 4 0.5t1 3.5t-3.5 4.5t-5.5 1.5v-10zM119 94q0 -2 1.5 -2.5t3.5 -1
t3.5 0l1.5 0.5q0 3 -0.5 5t-4.5 2q-1 0 -3 -1t-2 -3zM170 93q1 -3 4.5 -3.5t5.5 -0.5v2.5t-0.5 3t-1.5 2.5t-3 1v0v0q-1 -1 -3 -2.5t-2 -2.5zM189 90h9q0 5 -2 6.5t-7 1.5v-8zM126 75q3 0 4 3t1 5h-16q0 -6 3 -7t8 -1zM136 79q0 -3 1.5 -3.5t4.5 -0.5q2 0 3.5 0.5t2.5 2.5
q0 2 -2 3.5t-3 1.5q-2 0 -4.5 -0.5t-2.5 -3.5zM170 78q0 -3 2.5 -4t5.5 -1t4 3t1 5t-4 2q-2 0 -5.5 -0.5t-3.5 -4.5zM189 77q0 -2 0.5 -3t2.5 -1t3.5 0.5t1.5 2.5q0 3 -1.5 4.5t-3.5 1.5t-2.5 -1.5t-0.5 -3.5zM165 16h-7t-12 1.5t-11 4t-5 5.5v25l0.5 0.5l1.5 1.5
q1 0 2.5 1.5t2.5 1.5l1.5 0.5l3 1l3 1l1.5 0.5h2t3.5 0.5t3.5 0.5h4h2t4 -0.5t4 -0.5h3q9 -3 12.5 -11t2.5 -18q0 -6 -2 -9t-5 -4.5t-7 -1.5h-8zM136 50q0 -4 2 -5.5t4.5 -2t5.5 -0.5h5q0 2 0.5 4t0 4t-1.5 3t-4 1h-2t-4 -0.5t-4 -1.5t-2 -2zM162 52v-2v-2q0 -4 1 -5t5 -1
q3 0 5.5 0.5t2.5 3.5q0 4 -3 6t-6 2q-1 0 -2.5 -1t-2.5 -1zM138 32q0 -4 3 -6t6 -2q4 0 5 1t1 5l-0.5 1.5t-0.5 2.5q-1 2 -3.5 2h-4.5t-4 -0.5t-2 -3.5zM161 30v-1l1 -2.5l1 -2.5h12q1 0 2 3t1 4q0 3 -3.5 4t-6.5 1t-5 -1t-2 -5z" />
</svg>
