<?xml version="1.0" standalone="no"?>
<!DOCTYPE svg PUBLIC "-//W3C//DTD SVG 1.1//EN" "http://www.w3.org/Graphics/SVG/1.1/DTD/svg11.dtd" >
<svg xmlns="http://www.w3.org/2000/svg" xmlns:xlink="http://www.w3.org/1999/xlink" version="1.1" viewBox="-10 0 266 256">
   <path fill="currentColor"
d="M178 184q0 3 0.5 9t1.5 13t2.5 14.5t3.5 13.5t5 10.5t6 6.5q1 0 2 -1t2 -2.5t1.5 -3t0.5 -2.5q0 -6 -2 -12t-5 -12.5t-5.5 -14t-2.5 -15.5q0 -9 2.5 -17.5t7.5 -15.5q3 -4 5.5 -6.5t4 -5t2.5 -6t1 -7.5q0 -7 -4 -10.5t-9 -6t-9 -5t-4 -8.5t3.5 -9t8 -4.5t8.5 -3t4 -6.5
t-3 -10t-3 -8t2 -4.5t2 -4.5t-1 -4.5t-2 -3.5l-2 -4t-1 -4q0 -3 1 -5.5t1 -4.5q0 -9 -3.5 -11t-11.5 -2v13q0 2 -6 4t-13 4t-13 5t-6 6q0 1 1 1.5l2 1t2 0.5h2h3l30 -10h1h1l0.5 0.5l0.5 0.5q0 1 0.5 3.5l0.5 2.5q0 6 -3.5 9t-8 5t-10 3.5t-10 2.5t-7.5 3t-3 6q0 2 1 2.5
t4 0.5q4 0 8.5 -2t8.5 -4t8.5 -4t9.5 -2q2 0 3 1.5t1.5 3.5t0.5 4v3q0 3 -3.5 4.5t-8.5 3t-10.5 3t-10.5 3t-8 4t-3 5.5t4 3q2 0 4 -1t3.5 -2.5t3.5 -2.5t4 -1q3 0 4 3t1 5q0 4 -0.5 8t-1.5 8t-3 7.5t-4 6.5l-4 4t-4 3.5t-3 4t-1 5.5q7 0 12.5 -5t9 -11t6 -11t4.5 -5v0
q1 0 2 0.5t2 1.5l2.5 2.5l3 3l3 3l1.5 1.5v5q-1 1 -4 4.5t-6 7.5t-5.5 7.5t-3.5 4.5q-4 5 -4.5 12.5t-0.5 13.5zM49 239q0 4 3 4q5 0 10.5 -9t11 -23t10.5 -30.5t9 -32t6.5 -27.5t2.5 -18q0 -8 -2.5 -14.5t-7 -11.5t-11 -8.5t-14.5 -6.5v-3v-2t2 -2q2 0 6 -1t8 -1.5t8 -1.5
t7 -1q2 0 3 3.5t2 7.5t1 8t1 6l2 1.5t3.5 3l3 3t1.5 2.5v2v3v3.5v2.5l-0.5 1l-1 2l-1 2l-0.5 1q-4 14 -6.5 28t-2.5 28q3 0 5.5 -4.5t4.5 -11t3 -14.5t2.5 -15t3 -12.5t3.5 -6.5q5 4 6 9.5t1 10.5q0 20 -5 39.5t-12 38.5q-2 5 -5 11t-5.5 12t-4.5 12t-2 11h4l1.5 -1t3 -2.5
t3 -3.5t2.5 -3l0.5 -1.5t1 -3.5t1 -3.5l0.5 -1.5q2 -4 4.5 -10t5.5 -12.5t5.5 -12.5t2.5 -10q3 -15 6 -30.5t3 -30.5q0 -11 -5 -18t-11.5 -12.5t-11.5 -10.5t-5 -12q0 -5 4 -7.5t9.5 -3.5t10 -2t4.5 -3q0 -3 -3 -3.5t-5 -0.5q-3 0 -10 0.5t-16.5 1.5t-20 2t-19 2.5t-14 3
t-5.5 3.5q0 3 2 3.5t4 0.5q3 0 5 0.5t2 3.5t-1.5 6t-1.5 6q-2 6 -2 11v11q0 9 0.5 14.5t2 9t3.5 5.5t5.5 4t8.5 4t11 6q1 0 1 3v2q0 10 -4.5 23t-10 26t-11.5 25t-9 22v1zM75 118q0 -2 0.5 -7t1.5 -11t3 -11t5 -6t4.5 1.5t2.5 6t1.5 6.5t0.5 4q0 2 -0.5 6.5l-1 9t-2 7.5
t-4.5 3q-4 0 -7.5 -2t-3.5 -7zM60 97q0 -2 0.5 -6.5t1 -8.5t2 -7t3.5 -3q3 0 6 2t3 5l-1.5 4t-3 9t-3.5 10t-3 5v1h-1q-2 0 -3 -1.5t-1 -3.5v-3.5v-2.5zM55 19v1q1 0 1.5 1.5l0.5 1.5h2.5h1.5h2.5h1.5q4 0 13.5 -1t19.5 -2t19 -2t13 -2l1 -0.5l1 -0.5v-1v-1l-2 -2h-23
q-13 0 -23 0.5t-22 1.5q-2 1 -4.5 2.5t-2.5 3.5z" />
</svg>
