<?xml version="1.0" standalone="no"?>
<!DOCTYPE svg PUBLIC "-//W3C//DTD SVG 1.1//EN" "http://www.w3.org/Graphics/SVG/1.1/DTD/svg11.dtd" >
<svg xmlns="http://www.w3.org/2000/svg" xmlns:xlink="http://www.w3.org/1999/xlink" version="1.1" viewBox="-10 0 266 256">
   <path fill="currentColor"
d="M167 200q0 7 1 14t3.5 13.5t7 12.5t10.5 10h2h2q4 0 5 -1t1 -5q0 -3 -3.5 -6.5l-8 -8t-8 -10.5t-3.5 -14t4 -13t9 -9t9 -9t4 -12q0 -6 -1.5 -9.5t-3.5 -6t-4.5 -5t-4.5 -6.5q-1 -1 -1.5 -3.5t-0.5 -5v-4.5v-4v-5v-4q2 -3 5 -4t4 -4l0.5 -2.5l0.5 -2.5q0 -4 -0.5 -6.5
t-1.5 -6.5l-1.5 -0.5l-1.5 -0.5q-2 0 -3.5 0.5t-1.5 2.5t1 4.5t1 4.5v2q-1 1 -3.5 2t-5 2.5t-4.5 2.5t-3 1q-1 1 -3 1.5l-2 0.5q-4 1 -9.5 4t-11 5.5t-9 4l-3.5 1.5v5q4 0 8.5 -1t9.5 -1q3 0 3.5 2.5l1 5t0 5t-0.5 3.5q0 6 -1 10.5t-3.5 8.5t-5.5 8.5t-6 9.5
q-7 13 -10.5 27.5t-3.5 28.5v2v3v3.5v2.5q1 1 2.5 2t3.5 1t3 -2t1.5 -4.5t0.5 -5v-3.5v-5t0.5 -6t0.5 -5.5v-2.5q0 -1 1 -4t2 -6.5l2 -7t2 -5.5q2 -7 5.5 -12.5l7 -11t6 -11t2.5 -12.5q0 -5 -1 -9.5t-1 -10.5q0 -3 1.5 -6t5.5 -3q3 0 4.5 3t2 7l1 8t1.5 6q1 3 3 5.5l4 5l4 5
t2 5.5q0 7 -4 11.5t-9 9t-9 9t-4 11.5zM88 175q0 17 -1 34t-1 35q4 0 7 -2.5t5 -5.5q0 -3 -0.5 -11t-0.5 -17t0.5 -17t0.5 -11v-4v-6t0.5 -6t0.5 -4q3 1 3.5 0t2.5 -1q6 -2 9 -6t4.5 -8.5t1.5 -9.5v-12v-8l-1.5 -2.5t-2.5 -2.5q-2 0 -3.5 2.5t-2.5 4.5v4v6v6v4l-0.5 2
t-1.5 4.5t-2.5 4t-3.5 1.5h-1.5t-1.5 -1v-3t-0.5 -4t-0.5 -3.5v-2.5h-0.5t-0.5 -1h0.5h0.5v-2t0.5 -3t0.5 -3v-2t0.5 -4.5t0.5 -7.5t0.5 -7.5t0.5 -4.5l3 -4h4q4 0 7.5 -0.5t6 -1.5t2.5 -4q0 -2 -0.5 -3t-2.5 -1t-4.5 0.5t-5.5 0.5h-3h-3.5t-2.5 -0.5t-1 -2.5v-17q0 -2 2 -3
t4.5 -2.5t5 -2.5t3.5 -3q5 -5 5.5 -13t0.5 -14v-4t-0.5 -3.5t-2 -3t-3.5 -1.5q-3 0 -4 1.5t-2 3.5q1 9 0.5 15t-2.5 9.5t-7 5t-14 1.5h-5l-3 -1v-31q0 -1 -2 -2.5t-3 -2.5h-1q-5 0 -5 5l-0.5 2t-0.5 4v4v3q0 7 0.5 12t2.5 9t6.5 6.5t13.5 3.5v24h-1.5t-3.5 0.5t-4.5 0.5
h-3.5h-4h-6h-6.5h-4.5q-1 1 -1 2.5v2.5q0 2 1.5 3.5t3.5 1.5q6 0 12.5 -2t12.5 -2q2 0 3 1.5t1.5 3.5t0.5 4v3q0 5 -0.5 10.5l-1 11t-1 10.5t-0.5 9q-1 2 -2.5 2h-2.5h-1h-1l-3.5 -3.5l-2.5 -2.5v-31q0 -2 -1.5 -2h-2.5q-2 0 -3.5 2t-2.5 4v2v3.5v2.5v2q0 10 1.5 15.5
t3.5 8.5t5 4t5.5 1.5t4.5 0.5t3 2q2 4 1.5 7t-0.5 8zM140 87q0 2 0.5 2.5t2.5 0.5t6.5 -1.5t10 -3.5t11 -5t10 -5.5t7.5 -5.5t3 -5v-0.5v-1.5l-0.5 -2t-0.5 -4.5t-0.5 -4.5t-0.5 -3t-1.5 -1h-2.5h-2.5t-1.5 3q-1 6 -2.5 9.5t-3.5 6t-5.5 4.5t-8.5 5q-1 0 -4 1.5l-6 3t-5.5 3
t-3.5 1.5l-1.5 1.5t-0.5 1.5zM132 49q0 3 2 3.5t4 0.5q5 0 11.5 -2.5t11.5 -5.5l6 -3l8 -4t6.5 -3.5t3.5 -1.5l3 -3v-19q0 -1 -3 -1h-2h-3q-2 9 -6.5 15t-10.5 10t-14 7t-17 5v1v1z" />
</svg>
