<?xml version="1.0" standalone="no"?>
<!DOCTYPE svg PUBLIC "-//W3C//DTD SVG 1.1//EN" "http://www.w3.org/Graphics/SVG/1.1/DTD/svg11.dtd" >
<svg xmlns="http://www.w3.org/2000/svg" xmlns:xlink="http://www.w3.org/1999/xlink" version="1.1" viewBox="-10 0 266 256">
   <path fill="currentColor"
d="M191 231q3 2 4.5 5.5t2.5 6.5t2.5 5.5t6.5 2.5q4 0 5.5 -1t1.5 -5q0 -2 -1.5 -5t-3.5 -6t-4 -5.5t-3 -5.5q-2 -5 -3 -8.5t-1.5 -7t-0.5 -7v-8.5t1 -9.5t2.5 -9t2.5 -9.5t1 -10q0 -6 -2 -9.5t-5 -5t-6.5 -2t-6 -1t-4.5 -0.5t-2 -2v-13q0 -1 2.5 -2.5t3.5 -1.5q1 -1 4 -2
t6.5 -2l7 -2t4.5 -1q3 -1 4.5 -3.5t2.5 -5.5t1 -7v-6t-1.5 -3.5t-3.5 -0.5q-3 0 -4 1.5t-1.5 3t-0.5 4t-1 4.5q-1 4 -7 6.5t-13 4.5l-14 4t-12 5l-1 0.5t-2 0.5l-2.5 1t-5 1.5t-4.5 1.5t-3 1q-2 1 -2 3.5v3.5q8 0 15 -2.5t13 -2.5q3 0 4.5 3t1.5 5q0 4 -1.5 7t-3 6.5t-2.5 7
t0 6.5q0 1 -1.5 4t-2.5 6.5t-2.5 6.5t-1.5 4q-1 3 -4.5 7.5t-7 8.5t-6 7t-2.5 4q0 3 1.5 3.5t3.5 0.5q6 0 10.5 -5t8.5 -13t7 -17t5.5 -17t5 -13t4.5 -5q3 1 7 3t6 4v5q0 7 -1.5 12.5t-3 11.5t-2.5 12t-1 12v7.5t0.5 7t1.5 7t3 7.5zM47 178q2 6 2 11.5t0.5 9.5t3 8t10.5 6
q1 1 3 1.5l2 0.5h36q7 0 11.5 -6t7 -14t3.5 -16t1 -13q0 -4 -1 -9.5t-1 -9.5v-5t-0.5 -6.5t-0.5 -5.5v-2l-5 -5h-18l-0.5 0.5l-1.5 1.5v0q0 2 3 2.5t6.5 1.5t6.5 3t3 9q0 2 -0.5 4t-3.5 2t-6 -1.5t-6 -1.5q-1 0 -2 0.5t-1 1.5v1q1 1 3.5 2t5 2.5l5 3t2.5 2.5q1 0 1.5 0.5
l0.5 0.5v15q0 1 -1 1.5t-2 0.5q-2 0 -3 -1l-2 -2t-2.5 -1.5t-3.5 -0.5q-1 0 -1.5 1t-0.5 2q0 3 1.5 4.5t4 3t4.5 3t2 4.5q0 18 -18 18q-1 0 -2.5 -0.5l-1.5 -0.5l-0.5 -2.5t-0.5 -3.5v-91l4 -5q2 1 6 1h8t7.5 -1.5t3.5 -3.5v-2.5t-2 -1.5h-24q-1 0 -1.5 -0.5l-0.5 -0.5v-1.5
t-0.5 -3.5t-0.5 -3.5v-2.5v-1q0 -2 1.5 -3.5t4 -2t4.5 -0.5h2q4 -1 6 -5.5t3.5 -10t2 -11.5t0.5 -9v-4v-4t-2 -1h-3h-3t-3 1v31l-5 5h-2t-4.5 0.5t-5 0.5h-3.5h-4h-4h-5.5t-4.5 -0.5l-2 -0.5l-3 -6v-30q0 -2 -1.5 -2.5t-3.5 -0.5h-2t-3 2v7v7t0.5 6.5t0.5 7t1 7.5q3 8 8 9.5
t10 1.5q4 0 7.5 1t3.5 7v5.5t-1 4.5q-8 2 -17.5 2h-17.5l-2 2l-3 3v0v1l2 2l2 2h5q7 0 13 -1t12 -1h4.5t2.5 3v38q0 7 0.5 15t0 15.5t-1 15.5t-2.5 15h-1q-7 0 -13 -4.5t-6 -11.5q0 -3 2.5 -5t5 -3.5t5.5 -3t4 -4.5q-2 -2 -3 -2h-3q-3 0 -5.5 1.5t-5.5 1.5q-1 0 -2 -2
t-1.5 -4.5t-0.5 -5v-2.5q1 -3 4.5 -4.5t7 -3.5t6 -4.5t2.5 -6.5q-4 0 -7.5 1.5t-7.5 1.5q-2 0 -3 -1t-1 -4q0 -4 3 -6t7 -3t7 -2t3 -3t-2.5 -3t-4.5 -1q-9 0 -13.5 3t-6 8t-1.5 12v13v19zM135 90q0 2 2.5 2.5t3.5 0.5q7 0 14.5 -2t14.5 -4.5t14 -6l13 -6.5q3 -1 6.5 -2.5
t3.5 -2.5v-21l-3 -3q-4 2 -5 5t-1 6t-1 6t-4 4q-28 12 -56 21l-1.5 1.5l-0.5 0.5v0v1zM132 55q0 3 2.5 3h3.5q5 0 10 -1.5t10 -3.5t9.5 -4t8.5 -4q1 0 4.5 -1.5t7.5 -3t7.5 -3t5.5 -2.5l0.5 -2t1.5 -4.5t1.5 -4.5t1.5 -3v-2q0 -8 -8 -8q-2 0 -3.5 0.5t-1.5 3.5q0 7 -2 11
t-6 6.5t-9.5 3.5t-10.5 3q-1 0 -6.5 2.5t-11.5 5.5t-10.5 5.5z" />
</svg>
