<?xml version="1.0" standalone="no"?>
<!DOCTYPE svg PUBLIC "-//W3C//DTD SVG 1.1//EN" "http://www.w3.org/Graphics/SVG/1.1/DTD/svg11.dtd" >
<svg xmlns="http://www.w3.org/2000/svg" xmlns:xlink="http://www.w3.org/1999/xlink" version="1.1" viewBox="-10 0 266 256">
   <path fill="currentColor"
d="M79 228q0 2 1.5 3.5t2.5 1.5h11h12h11t16.5 -0.5t20 -0.5t20 -0.5t17 -1t10.5 -0.5q3 -1 4.5 -2t1.5 -3t-1.5 -3.5t-4.5 -1.5l-23 1h-5l-29 1v-50h32l1.5 -1t3.5 -2t4 -2.5t4 -2.5l1 -2q1 -1 2.5 -3l1.5 -2v-45q0 -1 -1 -2t-2.5 -2l-3 -2l-1.5 -1h-37l-0.5 -0.5
l-1.5 -1.5q-2 -4 -2.5 -9t-0.5 -9v-15v-9l5 -3q7 -1 13.5 -1.5t12 -1t12 -1t13.5 -0.5q1 0 1.5 -1.5t0.5 -2.5q0 -3 -1.5 -4t-4 -1.5t-5 -0.5h-3.5h-6.5t-5 0.5l-5 1t-6.5 2.5l-65 3l-0.5 1.5l-0.5 1.5v3t2 2h32q1 0 1 2q1 1 1.5 3l0.5 2q0 2 0.5 6t0.5 9v9.5v6.5q1 0 1 4v6
q0 21 -0.5 41.5t-1.5 41.5v8t-0.5 10t-0.5 8.5t-1 3.5l-1 2h-46l-2.5 2t-4.5 3l-0.5 0.5zM53 172q4 13 11 18.5t19 5.5h2q2 0 7 -0.5l10 -1l10 -1t7 -0.5q2 -1 2 -4v-4h-28q-2 0 -3 -1.5t-1.5 -3.5t-0.5 -4v-4q0 -3 1.5 -7.5t4.5 -5.5l18 -5q1 0 2 -2.5l1 -2.5q1 -2 1 -8.5
t1 -13.5t1.5 -13.5t0.5 -8.5v-11v-11q0 -4 -1.5 -5.5t-4.5 -1.5q-2 0 -4 1t-2 4q0 1 1 3l1 2v4v5v8.5t-0.5 13.5t-1 13t-0.5 9q-1 5 -4 6.5t-8 1.5q-1 0 -3 0.5t-2 -1.5t-0.5 -5t-0.5 -6.5t-0.5 -6.5t-0.5 -5v-94q0 -2 -1 -3.5t-4 -1.5q-2 0 -3 2.5t-1.5 6t0 6.5t0.5 4
q0 27 1.5 54t1.5 54v9q0 3 -0.5 7t-0.5 8t-1 9q0 2 -1 2h-2q-2 0 -4 -1.5t-4 -3.5t-3.5 -4t-2.5 -3t-1 -4t-0.5 -6.5t-0.5 -7v-4.5v-7.5v-12.5v-13v-14v-12.5v-7.5l-2 -12l-1.5 -0.5t-2.5 -1.5h-1h-1q-1 1 -2.5 3t-2.5 2v1q0 7 1.5 15.5t1.5 15.5q1 17 2 32.5t0 31.5z
M174 115h4.5t3.5 2q1 1 1 3t1 5t1 5.5t1 2.5v3v3q-1 1 -1 3t-1 5t-1 5.5t-1 3.5q-5 3 -11.5 4.5t-12.5 1.5h-4.5t-4.5 -1.5t-3.5 -3.5t-1.5 -5v-29q0 -3 4 -5t9 -2.5t10 -0.5h7z" />
</svg>
