<?xml version="1.0" standalone="no"?>
<!DOCTYPE svg PUBLIC "-//W3C//DTD SVG 1.1//EN" "http://www.w3.org/Graphics/SVG/1.1/DTD/svg11.dtd" >
<svg xmlns="http://www.w3.org/2000/svg" xmlns:xlink="http://www.w3.org/1999/xlink" version="1.1" viewBox="-10 0 266 256">
   <path fill="currentColor"
d="M155 123q4 2 5.5 5t2 7t1 8.5t0.5 7.5q1 1 1.5 3.5l1 5t0.5 4.5v3q1 0 1 2.5v5.5t0.5 5.5t0.5 3.5l1.5 2.5t2.5 5t2.5 5l1.5 2.5q4 10 7.5 20t6.5 19q2 5 3.5 8t6.5 3q6 0 6 -7v0v-1q-7 -12 -13 -25.5t-11 -28t-8 -29t-3 -28.5v-4.5v-2.5l2 -1l30 -4q2 0 2 -1.5v-2.5
q0 -4 -3.5 -5t-6.5 -1q-6 0 -12 0.5t-11 0.5h-3t-3 -1q0 -5 -0.5 -9t-0.5 -8v-7v-9v-14q2 -4 6 -4.5t8.5 -1.5t8 -3.5t4.5 -10.5q0 -4 -0.5 -8t-2.5 -7t-5 -5t-8 -2q-20 0 -33 1t-21 6t-11 16.5t-3 32.5q0 14 1 28.5t0 28.5q2 3 3 7t2.5 8t4 7.5t6.5 3.5h24q2 0 2 -2v-3
q0 -2 -1 -3.5t-4 -3.5q-1 0 -3.5 0.5t-5.5 0.5t-5.5 -0.5t-3.5 -0.5q-3 0 -4.5 -1t-2.5 -2t-1 -3v-5v-3q0 -3 1 -4q3 -2 7.5 -3t9 -1.5t8.5 -0.5h8zM112 215v3q1 9 2.5 14.5t4.5 8.5t9 4t16 1q12 0 16.5 -6.5t4.5 -16.5v-16t-1.5 -17t-6.5 -13.5t-15 -5.5q-9 0 -17 3t-11 11
q0 2 -0.5 5.5t-1 8t-0.5 8v5.5v3zM50 142v95q0 3 1 5.5t5 2.5q2 0 2.5 -1t1.5 -4v-3.5v-7.5t0.5 -8.5t0.5 -7.5v0q0 -17 -0.5 -33.5t-0.5 -33.5v-20q4 -2 7.5 -2.5t7.5 -0.5h7q1 1 1.5 2.5t1.5 2.5v42q0 17 -1 34t-1 35q0 2 1 3t3 1t4.5 -2t2.5 -4v-136v-5.5t-1 -7l-2 -7
t-3 -5.5q-1 0 -3 -0.5t-3.5 -0.5t-3 -1t-1.5 -4q0 -2 0.5 -5l1 -6l1 -6t2.5 -5h2h4t4 -0.5l2 -0.5q1 -1 3 -2t2 -2v-1q0 -1 -0.5 -2.5l-0.5 -1.5h-18v-22q0 -3 -2.5 -5t-4.5 -2t-3 0.5t-1 3.5v53q0 3 -2 5t-5 3.5l-6 3t-5 3.5q0 1 -0.5 3l-1 4t-0.5 4t-1 3v3.5t-0.5 4.5
t-0.5 4v2q0 4 0.5 8t1 8.5l1 9t0.5 7.5zM121 218q0 -2 0.5 -5t3.5 -3h1l1.5 1l1.5 1h0.5h0.5q5 0 10 -1.5t10 -1.5q2 0 3 1t1.5 3t0.5 4v3q0 5 -2 7.5t-5 4t-6.5 2t-7.5 0.5q-6 0 -9.5 -5t-3.5 -11zM123 199v-12q0 -2 2.5 -2.5t6 -1t6.5 -1t4 -0.5h6q2 0 3.5 1l1.5 1v12
l-0.5 1l-0.5 1q-1 0 -2 0.5t-2 0.5h-25zM117 108q0 -4 3 -5t7 -1.5t8.5 -1.5t6.5 -5q1 0 1.5 -2t0.5 -3v-4.5t0.5 -7.5t0.5 -7.5v-4.5q2 -3 3 -4t4 -1t4 3q0 11 1.5 20.5t1.5 20.5q0 3 -2 5t-5 2q-1 0 -4.5 0.5t-8.5 1l-10 1t-7 1.5h-1q-3 0 -3.5 -3t-0.5 -5zM58 105v-2
q1 -5 1 -8.5t1.5 -6t4.5 -3.5t9 -1h8q2 2 2.5 3.5t0.5 3.5v3q0 2 -0.5 4.5t-0.5 5.5t-0.5 5l-0.5 2l-1 1h-21q-2 0 -2.5 -2.5t-0.5 -4.5zM118 94v-10v-13t1 -14.5t3.5 -13.5t6.5 -8q1 -1 3.5 -1.5t5.5 -1.5t5.5 -1.5t3.5 -0.5h2q3 0 5 1t3 3t1 4.5v5.5v2v2q-9 3 -13.5 5.5
t-6.5 7.5t-2.5 11.5t0.5 14.5q-3 3 -6.5 5.5t-8.5 2.5h-1.5t-1.5 -1zM173 31q5 0 6 3t1 7q0 3 -1.5 4.5t-4 2t-5 0.5h-4.5v-5.5t0.5 -5.5t2 -4.5t5.5 -1.5z" />
</svg>
