<?xml version="1.0" standalone="no"?>
<!DOCTYPE svg PUBLIC "-//W3C//DTD SVG 1.1//EN" "http://www.w3.org/Graphics/SVG/1.1/DTD/svg11.dtd" >
<svg xmlns="http://www.w3.org/2000/svg" xmlns:xlink="http://www.w3.org/1999/xlink" version="1.1" viewBox="-10 0 266 256">
   <path fill="currentColor"
d="M186 157v8t0.5 12t0.5 12v8v4v6v6v3q0 1 1 3t1 3l1 1t1 2v5q0 5 0.5 9.5t2 8t4.5 3.5q1 0 2 -0.5t2 -1.5v-7q0 -11 -1 -22.5t-2.5 -22.5t-2.5 -22t-1 -23q0 -2 1.5 -5.5t3 -6.5t3.5 -6.5t3 -5.5v-25q0 -4 -3 -7.5t-8 -6.5t-10 -5t-9 -2q-3 0 -3 4q0 2 4 3.5t8.5 4.5
t9 7.5t4.5 12.5q0 6 -1 10.5t-6 7.5l-1 -1.5t-2 -3.5t-2 -3.5t-1 -2.5l-0.5 -0.5l-1.5 -1.5l-2 -1t-3.5 -2.5t-3 -2.5t-2.5 -2l-0.5 -0.5l-0.5 -0.5q0 -2 -1 -6t-1.5 -8.5t-1.5 -8t-1 -5.5q-1 -4 -3 -9t-2 -9v-3l1.5 -2t1.5 -3q1 -1 1 -4t0.5 -5.5t2 -5t4.5 -2.5h24
q1 0 1.5 -1.5t0.5 -2.5t-0.5 -1.5l-1.5 -1.5h-4h-6.5h-6.5h-4h-5h-6.5h-6.5h-2h-7t-10.5 0.5t-10.5 0.5t-7 1q-1 0 -2 1t-1 2h-0.5t-0.5 1t1.5 2t3 1.5t3.5 0.5h2q7 0 14 -1t13 -1q2 0 3 0.5t2 2.5q0 1 -0.5 3t-1.5 4t-2 3.5l-1 1.5l-3 3t-4 4.5t-4.5 4t-2.5 2.5l-8 2
t-7.5 2.5t-5.5 4t-2 7.5q6 0 11 -2.5t9.5 -5t8 -5t5.5 -2.5q3 0 2.5 1.5t0.5 4.5q5 10 6.5 20t1.5 22q0 9 -2 17t-5 16t-6.5 15.5t-5.5 16.5q-2 6 -2.5 11t-4.5 10l-0.5 0.5l-0.5 0.5h-7.5t-9 0.5t-8 3t-3.5 6.5h3h4.5h4.5h3q3 0 10.5 -0.5t16 -1t16 -1t10.5 -0.5
q1 -1 2.5 -2t1.5 -2q0 -2 -1.5 -3t-2.5 -1h-25q-1 0 -1.5 -2t-0.5 -3v-2v-2q2 -8 3.5 -15.5t5.5 -13t9.5 -8.5t15.5 -3h2t2 2zM49 241q0 2 1.5 5t4.5 3q2 0 4 -2t3 -5.5t1 -6.5v-5q0 -7 -1 -14.5t-2 -14.5v-78q0 -1 4 -2.5t8.5 -2.5t9 -1.5t6.5 -0.5h2.5t1.5 2v11v17v17v11
q0 2 0.5 9t0.5 14.5v14v8.5v3v4.5t-0.5 4.5l-0.5 2v2q0 3 0.5 6t3.5 3q4 0 5.5 -3.5t1.5 -6.5q0 -23 -2.5 -45.5t-2.5 -44.5q0 -7 1 -13.5t1 -14.5q0 -12 -1 -24t-1 -24q-2 -3 -5 -4t-5.5 -2.5t-4.5 -3.5t-2 -6q0 -2 0.5 -4.5t2.5 -3.5h6q4 0 6.5 -0.5t4.5 -2.5t2 -6h-19
l-1 -2q0 -1 -0.5 -3t-0.5 -4.5t-0.5 -4.5t-0.5 -3q-1 -4 -2 -5.5t-3 -1.5t-3.5 0.5t-1.5 3.5v47l-1 0.5t-2 0.5q-7 3 -10 4.5t-4 4.5t-1 7q0 5 -1 12v1t-0.5 2t-0.5 2v1v2.5v4.5v5v4q0 6 0.5 11.5t0.5 11.5v0q0 1 -0.5 4t-0.5 4v88q-1 1 -1.5 4t-0.5 4zM113 116v16.5t1 16.5
q1 2 3 3t4.5 1.5t5 0t3.5 -0.5h10q2 0 4.5 -2.5t3.5 -5.5v-7t0.5 -11t0.5 -11.5t1 -7.5v-2q0 -1 -1.5 -3.5t-3.5 -2.5t-2.5 2t-0.5 5q0 2 -0.5 4t-1.5 2h-16q-2 0 -2.5 -2l-1 -4l-1 -4t-3.5 -2q-1 0 -2 0.5t-1 1.5v13zM173 122q2 0 2 1l11 11v0v1q0 3 -2 6t-4.5 5.5t-6 4
t-6.5 1.5v-6t0.5 -10t2 -9.5t3.5 -4.5zM121 133v-2.5v-3.5t1 -3t2 -1h16l0.5 1t0.5 2v6v3q0 2 -0.5 4.5t-1.5 4t-3 1.5h-11q-1 0 -2 -1.5t-1.5 -3.5t-0.5 -4v-3zM62 103q0 -6 0.5 -12.5t0.5 -13.5q5 -2 9 -2.5t9 -0.5h4h4q1 1 2 3t1 3.5t0.5 4t0.5 5v4.5v3v3.5t-1 4.5
q0 1 -0.5 2t-1.5 1h-27q-1 0 -1 -2v-3z" />
</svg>
