<?xml version="1.0" standalone="no"?>
<!DOCTYPE svg PUBLIC "-//W3C//DTD SVG 1.1//EN" "http://www.w3.org/Graphics/SVG/1.1/DTD/svg11.dtd" >
<svg xmlns="http://www.w3.org/2000/svg" xmlns:xlink="http://www.w3.org/1999/xlink" version="1.1" viewBox="-10 0 266 256">
   <path fill="currentColor"
d="M182 189q0 6 -5 13.5t-12 14.5t-14 12.5t-13 9.5q-2 2 -3.5 2t-2.5 0.5t-2 2t-1 5.5q10 0 21 -6t20 -15t15 -19.5t6 -19.5v-2v-3.5v-2.5v-2q-2 -7 -7.5 -13t-9.5 -11l-3 -3l-4 -4t-3.5 -4t-2.5 -3v0v-1q0 -2 0.5 -2.5t2.5 -0.5h17.5t17.5 -2l0.5 -1.5l0.5 -1.5v-1v0
q0 -1 -0.5 -2t-0.5 -2h-5q-14 0 -28 2t-28 2q-6 0 -11.5 -1t-11.5 -1v0h-3t-4.5 0.5t-4.5 1l-2 0.5h-2q-2 0 -3.5 -1.5t-1.5 -3.5v-3v-3v-4v-3l-0.5 -2t-0.5 -4.5t-0.5 -4.5t-0.5 -3l0.5 -3.5t0.5 -7t0.5 -7l0.5 -3.5v-1q0 -3 -2 -4.5t-5 -2t-5.5 -1t-3.5 -2.5
q0 -1 0.5 -2.5t0.5 -4t0.5 -4t0.5 -2.5l0.5 -1.5l0.5 -1.5h13q1 0 1.5 -2.5l0.5 -2.5q0 -3 -2.5 -3.5t-5 -0.5h-5.5t-3 -3v-1t0.5 -2t0.5 -2v-1v-4q0 -4 -1 -7t-6 -3h-2t-2 1q0 5 0.5 11t0.5 13t-1 13t-3 11q-1 2 -3 3.5t-3.5 2.5l-3 2t-1.5 3v111q-2 7 -2 14v15v15
q1 2 2.5 2h2.5q3 0 4 -1t2 -4v-25q1 -6 1 -15v-18.5t0.5 -19t0.5 -17v-12.5v-5l2 -1h17v81q1 1 1.5 3.5t0.5 3.5t-0.5 3t-1.5 2v27q0 1 2 1h3q2 0 3.5 -2t2 -4.5t0.5 -5v-3.5q0 -16 -1 -31t-1 -30v-6v-6.5v-6.5v-3l2 -1l2 -0.5t4 -0.5t4.5 -0.5t4.5 -0.5h4.5h6.5
q4 0 7.5 0.5t4.5 0.5v2q0 1 -1.5 2l-3 2t-3 2.5l-1.5 1.5l-3 3q-3 1 -6.5 2.5t-7 3.5t-5.5 4t-2 6q6 0 12 -2.5t11 -6t9.5 -8l8.5 -8.5h1h1q3 0 6.5 1.5t3.5 5.5q0 1 -1.5 3t-3.5 3.5l-4 3t-3 1.5q0 1 -1 2.5t-2.5 3t-2.5 3t-2 1.5q-2 2 -7 5t-10.5 6t-9.5 6.5t-4 5.5v2
l2.5 0.5t3.5 0.5t3 -1t4.5 -2.5t4.5 -2.5l2 -1q1 -1 3.5 -3t4.5 -3.5l4 -3l2 -1.5q2 -1 4.5 -4t5.5 -6t6 -5.5t4 -3.5l1.5 -0.5t1.5 -1.5h1q1 0 3 1t3.5 2.5t2.5 3t1 3.5t-4.5 6.5t-11.5 10t-15.5 12t-15 12t-11 10t-4.5 5.5q1 2 2.5 2.5t3.5 0.5q4 0 9.5 -4.5t11.5 -9.5
t11.5 -10.5t9.5 -8.5q1 -1 3.5 -3t5 -4.5t5 -4.5t3.5 -3t1.5 -1h1.5t2 1t1.5 3t0.5 3.5v3.5zM157 60q-4 0 -10.5 0.5t-13 2t-11 5t-4.5 10.5v31q0 3 2.5 4.5t5.5 3t6 2t5 0.5q1 0 3 0.5t4 0.5h4h3q5 0 10.5 -0.5t10 -2t8 -5t3.5 -10.5v-31q-1 -2 -2 -3.5t-2.5 -3t-3 -2.5
t-5.5 -1h-2q-2 0 -4 -0.5t-5 -0.5h-2zM129 100v-3v-2q0 -1 0.5 -1.5t1.5 -0.5h38l0.5 1.5l0.5 1.5q0 1 1 2.5t1 2.5v1v0q0 1 -2 3.5t-3 3.5l-1 1q-1 0 -3 0.5t-4.5 0.5t-4.5 0.5t-3 0.5h-1q-4 0 -7.5 -0.5t-6.5 -1.5t-5 -3.5t-2 -6.5zM77 79q4 0 5.5 2t2 5t0.5 6v6
q0 1 -0.5 4t-0.5 4l-1 1h-16v-24q0 -1 3 -2t5 -2h2zM131 84q-1 0 -1.5 -1.5l-0.5 -1.5q0 -5 3 -8t8 -3h26q2 0 3.5 1.5t2.5 3.5t1.5 4t0.5 4l-0.5 1t-1.5 1h-12h-8h-6.5h-7t-7.5 -1zM102 55q0 4 4 4v0h1l10 -5t12.5 -6t13 -4.5t11.5 -1.5t10 1.5t9.5 4.5t9 5.5t8.5 5.5h1h1
q2 0 3.5 -1.5t1.5 -3.5q0 -1 -0.5 -1.5t-0.5 -1.5q-1 -3 -7.5 -6l-13 -6t-11.5 -5t-5 -3v-21q0 -1 -1 -1.5t-2.5 -0.5h-2.5h-2q-2 0 -3 0.5t-1 3.5v4.5v5.5v5.5v3.5q-2 3 -6 5t-9.5 3.5l-11 3t-9.5 3t-7 4t-3 5.5z" />
</svg>
