<?xml version="1.0" standalone="no"?>
<!DOCTYPE svg PUBLIC "-//W3C//DTD SVG 1.1//EN" "http://www.w3.org/Graphics/SVG/1.1/DTD/svg11.dtd" >
<svg xmlns="http://www.w3.org/2000/svg" xmlns:xlink="http://www.w3.org/1999/xlink" version="1.1" viewBox="-10 0 266 256">
   <path fill="currentColor"
d="M186 177q3 8 5.5 17t4.5 18v9.5t1 13t3 11.5t7 5q4 0 4.5 -1.5t0.5 -5.5q0 -8 -1.5 -17t-4 -18t-5.5 -18t-5 -17q1 -4 4 -6l6 -4q4 -5 5 -12t1 -13v-8t-1 -5.5t-2.5 -5t-4.5 -5.5q-1 -1 -3 -2l-2 -1h-51q-1 0 -1.5 2t-0.5 3t0.5 2t1.5 1h43q3 0 5 2.5t3 5.5t1.5 6.5
t0.5 5.5t-0.5 5t-1.5 6t-2.5 5.5t-3.5 2.5q-3 0 -3.5 -2.5t-2 -5.5t-3.5 -6t-6 -5h-2h-3.5h-2.5h-2q-2 0 -6 -0.5t-7 0t-6 2t-3 4.5q0 2 0.5 3t3.5 1q5 0 10 -1.5t11 -1.5q5 0 7 4t2 8q0 1 -0.5 3.5l-0.5 2.5q-1 0 -4 1t-7 2t-7 1.5t-5 0.5q-2 1 -4 1t-4 1t-3 2.5t-1 4.5
q10 0 20 -2t19 -2h1l1 0.5t1 1.5zM46 173q0 4 2.5 5t5.5 1q8 0 18 -0.5t17 -1.5q2 -3 5.5 -4.5t8.5 -1.5h10.5t10 -0.5t7.5 -1.5t3 -5q0 -3 -2.5 -4t-5.5 -1h-1h-2.5t-5 0.5t-4.5 0.5h-2h-2h-2h-3.5t-2.5 -3v-7v-6t3 -5h16q3 -1 6 -2.5t3 -4.5q0 -2 -1.5 -3.5t-3.5 -1.5h-23
v-19q0 -1 5.5 -2t12 -3.5t12.5 -7t6 -13.5v-5q0 -1 -0.5 -3t-0.5 -5t-0.5 -5l-0.5 -2q0 -1 1 -3t1 -3v-4q0 -9 -1.5 -15.5t-5 -10.5t-10 -6t-15.5 -2h-7l-4 3v1v1l1.5 1.5t2.5 1.5q4 1 9 1t9 1.5t6.5 4.5t2.5 9q0 2 -1 4t-4 2q-4 0 -8.5 -2t-9.5 -2h-3q-2 0 -3 1
q-1 0 -1.5 0.5l-0.5 0.5v1q0 3 2 4.5t4.5 2t5.5 0.5t5 1l2.5 0.5t5 1.5t5 1.5t3.5 1.5v5q0 3 -1 7t-4 6q-5 -3 -11.5 -6t-12.5 -3q-3 0 -4.5 0.5t-1.5 3.5q0 2 2 3.5t4.5 2t5 0.5t3.5 1q1 0 3 1t4 1.5t4 1.5l2 1v2q0 4 -4 6t-9.5 3t-10.5 1h-5h-2q-1 -1 -4 -1t-6 -0.5
t-5 -0.5h-3l-1.5 -0.5l-3 -1t-2.5 -1.5l-1 -1q0 -4 3 -5.5l7 -3.5l7 -3.5t3 -5.5q0 -2 -1.5 -2.5t-2.5 -0.5q-2 0 -5 0.5t-5 2t-4.5 3t-3.5 2.5l-3 -3v-12l1.5 -1.5l1.5 -1.5q1 -1 2.5 -1t3 -1t3 -1t1.5 -1q1 0 3 -1l4 -2t3.5 -2t2.5 -1q1 -1 1.5 -2t0.5 -2q-1 -1 -3.5 -3
t-3.5 -2h-1l-18 9h-1q-2 0 -2.5 -2t-0.5 -4q0 -5 4.5 -7t9 -3.5t9 -3.5t4.5 -6q0 -3 -2.5 -4t-5.5 -1h-2q-2 0 -2 1l-1.5 0.5t-3 1.5t-3 1.5t-2.5 0.5q-4 2 -7.5 4t-5 4.5t-2.5 6t-1 9.5v5.5v4.5t0.5 4.5t1 8t1 8t0.5 4.5q1 8 4.5 13t9 7t12 3t14.5 1q1 1 2 2.5t1 3v3.5v3v6
t-3 5h-5t-7 0.5t-7 1t-4 0.5q-3 0 -6 1t-3 5q0 2 3 3t5 1t5.5 -1t6.5 -1.5l6 -1t6 0.5q1 0 2.5 2.5t1.5 3.5v4.5t-1 5.5t-2 5.5t-3 3.5h-9.5t-13 0.5t-12 2t-5.5 6.5zM156 72q0 1 0.5 3t0.5 5t0.5 5t0.5 3q0 3 3 4.5t6 2t6.5 0.5h5.5q7 0 12.5 -0.5t14.5 -1.5q2 1 2.5 -1.5
t0.5 -3.5q0 -2 -0.5 -3.5t-2.5 -1.5h-35q-3 0 -3.5 -2t-0.5 -3q0 -6 3 -8.5t7.5 -3.5t9 -1.5t9 -2t7.5 -5.5t3 -12t-4.5 -13.5t-12.5 -5.5h-1q-1 0 -2.5 0.5t-3 1.5t-3 1.5l-1.5 0.5q-2 0 -5 -0.5t-5 -0.5h-3v-15l-2 -0.5t-3 -0.5q-5 0 -6.5 3t-1.5 7v8v7q-2 5 -5.5 11
t-3.5 11q0 3 3 3q5 0 7 -3.5t3.5 -7.5t3.5 -8t6 -6h5h5q2 0 5 -0.5t5.5 0t4.5 1.5t2 4q0 2 -0.5 4.5t-1.5 4.5q-5 2 -10 3t-10 3t-9 5t-6 9z" />
</svg>
