<?xml version="1.0" standalone="no"?>
<!DOCTYPE svg PUBLIC "-//W3C//DTD SVG 1.1//EN" "http://www.w3.org/Graphics/SVG/1.1/DTD/svg11.dtd" >
<svg xmlns="http://www.w3.org/2000/svg" xmlns:xlink="http://www.w3.org/1999/xlink" version="1.1" viewBox="-10 0 266 256">
   <path fill="currentColor"
d="M100 231q0 1 -0.5 2.5t-0.5 3t-0.5 3t-0.5 2.5v1.5v3v3.5v2q2 0 4.5 -1t4.5 -3t3 -4.5t1 -4.5q0 -8 -0.5 -15.5t-0.5 -16.5t0.5 -18t0.5 -18q0 -20 -1 -40l-2 -40v-5q0 -3 -0.5 -6.5t-2.5 -6.5t-5 -3h-32q-1 0 -2 -2.5l-1 -2.5v-11q0 -6 0.5 -11t2.5 -8t6 -4.5t10 -2.5
q2 0 6 -1t8.5 -1.5t8.5 -1t6 -0.5l0.5 -0.5l0.5 -0.5q0 -2 -1 -3.5t-3 -2.5t-4 -1.5t-3 -0.5q-7 0 -15.5 1.5t-16 4.5t-12.5 9t-6 15v5v7v7v4q0 1 -0.5 3t-1.5 3v27v28l0.5 2.5t0.5 5t0.5 5l0.5 2.5q1 9 2 15t3.5 10t8 5.5t14.5 1.5h2h1.5t3.5 -0.5t3.5 -1l1.5 -0.5h1v0l3 3
l3 3v3v4v4v3v4v4v4v2l-1 3.5l-1 3.5q0 1 0.5 3.5t0.5 5t0.5 4.5t0.5 3zM162 176v37q0 6 4 10.5t9.5 7.5t11.5 5t10 2t6.5 -1.5t2.5 -6.5v-2.5t-1 -1.5q-12 -2 -18.5 -5t-10 -7.5t-4.5 -12t-1 -20.5v-3.5t2 -3.5q7 -3 12 -6t8 -7t4.5 -10t1.5 -15v-5t-0.5 -6.5t-2 -6
t-3.5 -2.5q-3 0 -4 3.5t-1.5 8t-0.5 10.5t-1 11t-3.5 8t-6.5 3q-5 0 -6.5 -2t-1.5 -8q0 -1 0.5 -2t0.5 -2v-2t-0.5 -3.5t-0.5 -3v-1.5v-5v-4q0 -1 0.5 -1.5l0.5 -0.5v-1.5t-0.5 -2.5t-0.5 -2v-1v-5q0 -5 2.5 -7.5t6 -3.5t7.5 -2t7.5 -4t5.5 -9t2 -17v-12.5t-3 -13.5
q-2 -4 -5 -4q-4 0 -5 5q0 1 0.5 2t0.5 2.5t0.5 3l0.5 1.5v13v14q-2 4 -5.5 8t-8.5 4q-2 0 -3 -1.5t-1.5 -3t-0.5 -3.5v-4q0 -12 2 -24.5t2 -24.5q0 -3 -0.5 -6.5t-1.5 -6.5t-3 -5t-6 -2h-6.5t-9.5 0.5t-8.5 2t-3.5 3.5q0 1 1 1q0 1 0.5 3l0.5 2h3.5t5 -0.5t5 -0.5h3.5
q0 -1 1 -1h1q2 0 3 0.5l3 1.5q0 1 0.5 4t0.5 6t0.5 6t0.5 4v0v1q0 2 -0.5 5.5t-0.5 7.5t-0.5 7.5t-0.5 4.5q-2 2 -2.5 5.5t0 7.5t0 8t-2.5 7q-2 -1 -4.5 -2.5t-5 -4t-4 -5t-1.5 -5.5v-28q0 -3 -2.5 -4.5t-4.5 -1.5q-1 0 -2 1.5t-1 3.5v4v3v11q0 5 1 11t3 11t6 8t7 3.5t5 1
t3 3t2 10.5v5v9v8.5v5.5q1 3 1 5v4q0 4 -2.5 6.5t-6.5 2.5q-5 0 -7 -3.5t-3.5 -8.5t-2 -10.5t-1 -10.5t-2 -8t-4.5 -3h-2t-2 1v8v7l1 1.5l1 1.5q2 9 3 15.5t3.5 10.5t7.5 6t16 2zM65 157q-1 -5 -1.5 -8t-0.5 -6v-6v-7v-2v-3q8 -2 16 -3t15 -1q3 0 4.5 2t2 4t1 4.5t0.5 4.5
q0 7 -1.5 14.5t-4.5 13.5q-3 1 -5 1.5t-5 0.5q-4 0 -7 -0.5t-5.5 -1t-4.5 -2.5t-4 -5zM81 80q2 0 5.5 0.5t4.5 0.5q5 2 7 7.5t2 9.5q0 7 -2 10t-5.5 4t-8 1h-9.5h-2t-4 -0.5l-4 -1t-2 -2.5v-25l0.5 -0.5t1.5 -0.5q4 -3 8 -3h8z" />
</svg>
