<?xml version="1.0" standalone="no"?>
<!DOCTYPE svg PUBLIC "-//W3C//DTD SVG 1.1//EN" "http://www.w3.org/Graphics/SVG/1.1/DTD/svg11.dtd" >
<svg xmlns="http://www.w3.org/2000/svg" xmlns:xlink="http://www.w3.org/1999/xlink" version="1.1" viewBox="-10 0 266 256">
   <path fill="currentColor"
d="M149 185q3 0 6 5t7 12t7.5 15t8 15t8.5 11.5t9 4.5q2 0 5 -0.5t3 -4.5q0 -3 -3 -8t-7 -10t-7.5 -10t-6.5 -8l-1.5 -2t-3.5 -5t-3.5 -5t-2.5 -3q-6 -10 -10.5 -21t-11.5 -21q0 -1 -0.5 -2l-0.5 -1q0 -1 2 -2.5t3 -1.5l26 -5q4 -1 5.5 -4.5t1.5 -6.5q-6 0 -10.5 1t-8.5 2
t-7.5 2t-8.5 1q-2 0 -4 -3.5t-4 -9.5t-3 -13t-2 -13.5t-1.5 -11t-0.5 -6.5q0 -3 3.5 -5t8 -3t9.5 -2t10 -3.5t8 -7t3 -13.5q0 -6 -2.5 -10.5t-6 -7t-8.5 -4t-10 -1.5q-16 0 -32.5 1.5t-32.5 4.5q-1 0 -4 0.5t-5.5 1l-5 1l-2.5 0.5q-5 2 -7.5 6.5t-3.5 8.5q-1 7 -1 11.5
t-0.5 9t-0.5 8.5v10v18q0 13 0.5 28t2 31.5t4.5 29.5t8 21.5t13 8.5v0q1 0 3.5 -1.5t3.5 -1.5t3.5 -1l5 -2l5 -2t3.5 -2l6 -3t8.5 -5t9 -5.5t9 -4.5t7.5 -4t4 -2zM67 163q0 -1 4.5 -3t11 -3.5t14.5 -3.5t15.5 -3.5t13 -2t8.5 -0.5q1 0 2.5 2.5t3 6t2.5 7t1 5.5v1l-0.5 2.5
t-0.5 3.5q-7 5 -13.5 10t-13.5 8.5t-14.5 6.5t-16.5 3q-4 0 -7 -5t-5 -11.5t-3.5 -13.5t-1.5 -10zM67 145v-15q5 -1 8.5 -2l7 -2t6.5 -2.5t7 -4.5q3 -2 5 -6t3 -9.5l2 -11t3 -10t5.5 -7.5t9.5 -3l1 4t2 11t2 15t1.5 15t1 12l0.5 5v2.5v1.5l-3 0.5t-5 1.5q-12 2 -24 4.5
t-25 2.5h-3.5h-2.5zM67 40q6 -3 12.5 -5t13.5 -2.5t13.5 -1.5t11.5 -1h1h1h2t2 1q0 2 0.5 4.5t0.5 6t0.5 6.5t0.5 4v3q0 5 -3 7t-7.5 3t-8.5 2t-6 5q-5 8 -5.5 15t-1.5 13t-4.5 10.5t-14.5 7.5h-1h-1q-3 0 -4.5 -2t-2.5 -4.5t-1.5 -5.5t-0.5 -5v-53q0 -1 1.5 -4t1.5 -4z
M137 31q2 -2 4.5 -1.5t4.5 0.5h7t5 1.5t3 4.5t1 7q0 6 -2.5 9t-6.5 4.5t-9 2t-9 0.5q0 -7 0.5 -14t1.5 -14z" />
</svg>
