<?xml version="1.0" standalone="no"?>
<!DOCTYPE svg PUBLIC "-//W3C//DTD SVG 1.1//EN" "http://www.w3.org/Graphics/SVG/1.1/DTD/svg11.dtd" >
<svg xmlns="http://www.w3.org/2000/svg" xmlns:xlink="http://www.w3.org/1999/xlink" version="1.1" viewBox="-10 0 266 256">
   <path fill="currentColor"
d="M75 192q1 2 1.5 7t1.5 11.5t2.5 13.5t3 13t3.5 9.5t4 3.5q1 0 1.5 -0.5t0.5 -1.5v-2v-2q0 -9 -1.5 -18t-3.5 -17.5t-3.5 -17.5t-1.5 -18q0 -8 0.5 -18t1.5 -20.5t3 -20.5t5 -17v-50l-8 -23q-1 -1 -2.5 -3t-4.5 -4.5t-5.5 -4t-4.5 -1.5h-1l-1.5 1.5l-1.5 1.5v0.5v0.5v0.5
v0.5l8 8t5.5 7t4 8.5t3.5 11.5v4v5v6v3q0 13 -1.5 25.5t-3.5 24.5t-3.5 24.5t-1.5 25.5v4v7.5v7v4.5zM169 204v39q0 3 1 5t4 2q2 0 4 -3t2 -5q0 -15 -1 -30.5t-2 -30.5l-2 -30t0 -30q0 -1 -1 -3.5t-1 -3.5t1 -2.5t2.5 -2.5t3 -1.5t2.5 -0.5h27l0.5 -2t0.5 -3v-2v-2t-3 -1
h-30q-1 0 -1.5 -1t-0.5 -2.5v-2.5v-2v-5q0 -1 0.5 -6.5t0.5 -12t0.5 -11.5t0.5 -7v0v-1q0 -1 -0.5 -3.5t-0.5 -5t-0.5 -4.5t-0.5 -3q-1 -4 -5 -4q-1 0 -2.5 0.5t-1.5 3.5v63l-2 8q-8 0 -18.5 1t-18.5 2q-1 0 -1.5 1l-0.5 1v1v0q0 1 0.5 2.5t1.5 1.5h22q3 -2 6.5 -3t6.5 -1v0
q1 1 2.5 1.5l1.5 0.5v71v6v6t0.5 6t2.5 6zM48 193q0 1 0.5 5.5t1.5 10.5t2 13t2.5 12.5t3 9t2.5 3.5q3 0 5 -2t2 -5v-2q-5 -18 -7.5 -35.5t-2.5 -36.5q0 -10 2 -18.5t2 -18.5v-4v-4l-1.5 -1.5l-0.5 -0.5h-1v0q-5 4 -6.5 8.5t-2.5 11.5v9.5t-0.5 16.5t-0.5 17v10v1zM98 169
q0 2 0.5 7.5t1 13t2 16t3.5 15t5 11.5t6 5t3 -2v-4q0 -5 -2 -9t-3 -9q-4 -12 -6 -24t-2 -25v-7q0 -2 1 -6.5t2 -10t2 -10t1 -6.5q0 -1 -1 -3t-3 -2t-4 3t-3 8t-1.5 11t-1 11.5t-0.5 10v6.5zM58 77q0 6 -2 12t-2 11h3t4 -1t3.5 -2t1.5 -3v-40q0 -1 -1.5 -4.5l-3 -7t-3.5 -6
t-4 -2.5q-1 1 -3 2.5t-2 2.5t0.5 2l1 2t1.5 2l1 1q3 7 4 15t1 16zM107 93q0 2 1 3t3 1q3 0 5.5 -5t3 -11.5t0.5 -12.5v-6v-3v-3.5t-0.5 -5.5t-0.5 -5.5v-3.5q-3 -5 -6.5 -7.5t-8.5 -2.5q0 5 2 8t3 7t1 6.5t0.5 5t0.5 5.5v6q0 6 -2 12t-2 12z" />
</svg>
