<?xml version="1.0" standalone="no"?>
<!DOCTYPE svg PUBLIC "-//W3C//DTD SVG 1.1//EN" "http://www.w3.org/Graphics/SVG/1.1/DTD/svg11.dtd" >
<svg xmlns="http://www.w3.org/2000/svg" xmlns:xlink="http://www.w3.org/1999/xlink" version="1.1" viewBox="-10 0 266 256">
   <path fill="currentColor"
d="M152 246v3.5t3 1.5t6 -3t5.5 -7t5 -8.5t4.5 -7.5q0 -1 1.5 -5.5l3 -9l3 -9t1.5 -6.5q3 -8 5 -15.5t5 -15.5v-35l-0.5 -1t-2 -2.5t-2.5 -3t-1 -2.5q-3 -4 -7.5 -5.5l-9 -3t-8 -3.5t-3.5 -8q0 -5 3 -7.5t7 -3.5t8.5 -1h7.5h2t4 0.5t3.5 0.5h1.5h3q3 0 6 -0.5t3 -3.5
q0 -2 -2 -3.5t-4.5 -1.5h-5h-4.5q-16 0 -32.5 0.5t-32.5 2.5q-1 1 -1.5 2t-0.5 2q0 2 1.5 2h4.5q1 0 3.5 0.5t5.5 0.5t6 -0.5t4 -0.5q2 1 2 3v3q0 3 -1 6t-1 7t3 6.5t7.5 4.5t9 2.5t7.5 1.5t4 4.5t1 7v7v5.5q0 21 -6.5 39.5t-14.5 37.5q-1 3 -3 5.5l-4 5t-3 5.5t-1 6z
M78 158q0 2 1 9.5t2.5 17t3.5 19.5t5 18.5t6.5 14t7.5 5.5q2 0 3.5 -2t1.5 -4q0 -1 -0.5 -1h-0.5q0 -1 -1 -3t-2 -3.5t-2 -3.5t-1 -3q-1 -2 -2.5 -8t-3 -13t-3 -13t-2.5 -8q0 -1 -1 -3l-1 -2v-3v-4q0 -4 0.5 -10t1 -13.5t1.5 -15.5t2 -15t2.5 -12t2.5 -8v-53q0 -1 -1.5 -3
t-3 -4.5t-3.5 -5.5t-3 -5l-3 -3t-4 -3.5l-4 -3t-4 -1.5t-3.5 1.5t-1.5 3.5v0.5v1.5q13 10 18 23.5t5 29.5v5q0 1 -1 4t-1.5 6.5t-1.5 6.5l-1 3q-3 15 -5.5 30t-2.5 31zM54 165v7.5t0.5 12.5t2 14.5t3 13.5t4 10t5.5 4h2.5h1.5q1 -1 1.5 -2.5t0.5 -3.5v-4q-1 0 -1.5 -2
t-1 -4.5t-1.5 -4.5t-1 -3l-4.5 -18t-2.5 -19q0 -12 2.5 -24t2.5 -25v-5t-4 -2q-2 0 -3.5 3.5t-3 9t-2 12.5t-1 13t-0.5 10.5v6.5zM100 144q0 7 0.5 18t2.5 22t5.5 20.5t9.5 14.5q1 0 2 1l1 1l7 -7l-0.5 -1.5t-1.5 -2.5q-8 -15 -11 -29.5t-3 -31.5q0 -7 0.5 -13.5t0.5 -13.5
q0 -2 -1 -4.5t-4 -2.5t-4 3q-1 7 -2 13l-2 12v1zM107 94q0 1 0.5 2t2.5 1q5 0 7.5 -4.5t4 -10.5t1.5 -12v-8v-10t-2 -9.5t-5 -7.5t-10 -3q0 4 1.5 8.5t2.5 9t2 8.5t1 9q0 4 -1 7.5l-2 7t-2 6.5t-1 6zM58 92q0 2 0.5 3t3.5 1t5 -2.5t3.5 -6t2 -7t0.5 -5.5v-10.5t-1.5 -13
t-5 -11t-10.5 -4.5q-2 0 -3 0.5t-2 2.5l3 3q1 1 1.5 3t1.5 5l2 6t1 5l0.5 4t0.5 6q0 6 -1.5 11t-1.5 10zM137 53v0q1 1 1.5 2l0.5 1v0h1h1h2t4 -0.5t4 -0.5h3h47q1 0 1.5 -0.5t0.5 -1.5q1 -1 1 -4v-4q-16 0 -31.5 1t-31.5 1q-2 1 -3 2.5t-1 3.5z" />
</svg>
