<?xml version="1.0" standalone="no"?>
<!DOCTYPE svg PUBLIC "-//W3C//DTD SVG 1.1//EN" "http://www.w3.org/Graphics/SVG/1.1/DTD/svg11.dtd" >
<svg xmlns="http://www.w3.org/2000/svg" xmlns:xlink="http://www.w3.org/1999/xlink" version="1.1" viewBox="-10 0 266 256">
   <path fill="currentColor"
d="M180 246q2 3 3 4t3 1t3 -1.5t2 -3.5v-15q0 -25 -1.5 -50t-1.5 -50v-4v-3l3 -3h5t6 -0.5t5.5 -2t2.5 -4.5t-1.5 -3.5t-4.5 -0.5t-5.5 1t-5.5 1t-4 -2t-1 -5q0 -5 0.5 -10.5t0.5 -10.5q1 -7 3.5 -9t5.5 -2h5t2 -3t-1.5 -4t-3.5 -1h-2h-1q-1 0 -5 0.5t-8.5 1l-9 1t-5.5 0.5
q-2 0 -2.5 1.5t-0.5 2.5v1.5v0.5q1 0 2.5 0.5t3 0.5t3 0.5t2.5 0.5l0.5 0.5t0.5 1.5v31l-1 3h-2.5t-3 0.5t-3 0.5t-2.5 1q-1 0 -3 1t-2 2v1l1.5 1.5l0.5 0.5h14q1 0 1 3v3v3v3t-0.5 4t-0.5 4v3q0 13 0.5 26t1.5 25.5t1 25.5v26zM125 232v4q0 3 0.5 5.5t1.5 4.5t3 2t4 -1.5
t2 -3.5v-28.5v-29.5t1.5 -30t3.5 -29q1 -2 3 -2.5t4.5 -0.5t4.5 -0.5t2 -3.5q0 -2 -2 -3t-4.5 -1t-4.5 0.5t-3 0.5q0 -8 0.5 -17t2.5 -17q1 -2 2 -2.5l3 -1.5t3.5 -1.5t2.5 -2.5l-3 -3h-3.5h-5.5h-3h-4h-4h-2l-3.5 1t-4.5 2q2 3 3.5 3.5t3.5 1.5t3 2.5t1 4.5v8v8t-1 8t-3 7
q-1 0 -4 -0.5t-5.5 -0.5t-4.5 1t-2 3v1.5v1.5q1 0 4.5 0.5t4.5 0.5q1 1 4 0.5t4 -0.5q0 27 -2.5 54t-2.5 54zM68 144v12.5t1 20t2 23.5t3 22.5t4.5 17t6.5 6.5q2 0 3.5 -1t1.5 -3t-1 -5l-2 -6t-2 -5.5t-2 -4.5q-3 -11 -4 -20.5t-2 -21.5v-4v-6.5v-7.5v-6v-3v-5.5v-4.5v-2
l2 -2q-2 -11 0.5 -22.5t5.5 -23l6 -23t3 -22.5q0 -12 -3 -19.5t-12 -15.5h-1v0q-2 0 -2.5 1.5t-0.5 2.5q0 2 1 4.5t2.5 5.5t3 5t1.5 4q1 5 1.5 10.5t0.5 9.5q0 12 -2.5 23t-6 21.5t-6 22t-2.5 22.5zM46 176q0 15 1.5 29t6.5 29q0 2 2 5t5 3t3.5 -2.5t0.5 -5.5q0 -2 -1.5 -7
l-3 -10t-3 -9.5t-2.5 -6.5v-52q2 -5 2 -8.5v-8.5v-8q-1 -1 -1.5 -1h-1.5q-2 0 -3.5 3.5t-2.5 9.5t-1 12.5t-0.5 12.5t-0.5 10v5zM91 160v18.5t1.5 19t4.5 18.5t8 16h3q2 0 2.5 -1t0.5 -3q0 -1 -1.5 -7.5t-4 -14.5t-4.5 -14t-2 -7v-39q0 -6 2 -11.5t2 -12.5q-6 0 -8.5 5
t-3.5 11t-0.5 12.5t0.5 9.5zM99 98v2.5t2 1.5h1q6 -4 8.5 -9.5t4 -11.5t1.5 -12v-13v-8t-1.5 -8t-4 -6t-7.5 -2q0 7 2.5 14.5t2.5 14.5t-2 15.5t-4 14.5q0 1 -1.5 2t-1.5 2v3zM50 96q0 1 1 3t3 2q4 0 6 -3.5t4 -8.5t2.5 -9.5t1.5 -6.5v-4t0.5 -6t0.5 -5.5v-3.5q0 -2 -0.5 -5
t-2 -6t-4 -5.5t-4.5 -2.5h-1l-2 2l-1 1v1v1q0 1 0.5 2.5t1.5 3t1.5 3.5l0.5 2v25q0 3 -1 5.5t-2.5 4.5t-3 4.5t-1.5 5.5z" />
</svg>
