<?xml version="1.0" standalone="no"?>
<!DOCTYPE svg PUBLIC "-//W3C//DTD SVG 1.1//EN" "http://www.w3.org/Graphics/SVG/1.1/DTD/svg11.dtd" >
<svg xmlns="http://www.w3.org/2000/svg" xmlns:xlink="http://www.w3.org/1999/xlink" version="1.1" viewBox="-10 0 266 256">
   <path fill="currentColor"
d="M202 247q0 2 1 2.5t3 0.5q3 0 5 -3v-6q0 -9 -2.5 -18t-5.5 -17.5t-5 -17t-2 -16.5q0 -3 1.5 -6t4 -6.5t4.5 -7.5t2 -9q0 -4 -1 -10t-3.5 -11t-6 -8.5t-10.5 -3.5h-35q-2 0 -4.5 1t-2.5 4l0.5 0.5t0.5 1.5q1 0 2.5 0.5l1.5 0.5h34q5 0 7.5 2.5t4.5 6.5t2.5 8t0.5 7
q0 2 -0.5 5t-1.5 6t-3 5.5t-5 2.5q-2 0 -4 -2t-4 -5t-4 -5.5t-4 -4.5q-2 -1 -4.5 -1.5t-4.5 -0.5h-5h-3h-11q0 1 -1 1.5l-1 0.5v1v1q1 2 4 2.5t6 0.5h6h4q5 1 10 6.5t8 9.5v1q0 3 -2.5 4.5t-6.5 3t-7.5 2t-4.5 1.5q-1 0 -3.5 0.5t-5.5 1t-5.5 1t-3.5 0.5t-1.5 0.5t-0.5 1.5
v1q0 2 2.5 3t4.5 1q5 0 9.5 -1t8 -2.5t7 -3.5t7.5 -3l1 -0.5l1 -0.5q3 0 5 3t3.5 7t3 7.5t1.5 4.5t1 4t1.5 7t1.5 7t1 4.5t0.5 5.5l1 8t1 7.5t0.5 5.5zM87 244q1 2 2.5 2.5t3.5 0.5t3 -0.5t1 -2.5q0 -3 -2 -10t-4.5 -15.5t-5 -16.5t-3.5 -10v-40q2 -6 2 -12.5t2 -11.5l4 -26
t2 -26v-9t-1 -13t-2.5 -14.5t-4 -13.5t-6.5 -10t-9 -4q-3 0 -3 2t1 4.5t3 5.5t3.5 5.5t2.5 3.5q4 11 6 23t2 25q0 11 -1.5 22.5t-3.5 23t-3.5 23t-1.5 23.5v4.5v4.5q0 2 0.5 7.5t1.5 11l2 11t1 7.5l0.5 1.5t1.5 1.5q0 2 1 5l2 6t2 6.5t1 4.5zM125 242q-1 3 1.5 3.5t3.5 0.5
q4 0 4.5 -2t0.5 -5v-2l-0.5 -2.5t-0.5 -5t-0.5 -4.5t-0.5 -3q0 -26 2 -52.5t3 -52.5v-3t0.5 -4l1 -4t0.5 -3q3 -15 8 -30.5t7 -31.5q1 -2 1.5 -2.5t2.5 -0.5h1h1q1 0 1.5 0.5t2 0.5t2.5 0.5l1 0.5q1 0 4 0.5t6.5 1t6.5 1t4 0.5q3 1 5 2.5t2 4.5q0 6 -4.5 10.5t-10 9
t-10.5 11t-5 16.5q0 3 0.5 4.5t3.5 1.5t4.5 -3t2.5 -7l2 -8t4 -6q3 -3 6.5 -6t7 -5.5t5.5 -6t2 -8.5q0 -6 -2.5 -12.5t-10.5 -7.5q-11 -1 -22.5 -2.5t-22.5 -2.5h-3.5h-5.5h-4h-5q-1 1 -1 2v2t0.5 3t2.5 2h16l1 1.5t1 2.5v1q0 5 -2.5 10.5t-3.5 9.5q-4 12 -7.5 24t-4.5 24
q-4 28 -4.5 56t-0.5 56v20zM49 169q0 2 0.5 7.5t1.5 13.5t2.5 16.5t3.5 15.5t5 12t6 5t3.5 -1t0.5 -4q0 -4 -1 -8.5t-2.5 -9t-3.5 -8.5t-3 -8q-1 -5 -1 -9.5t-0.5 -8.5t0 -9t0.5 -11v-4v-6v-5v-3l3 -15q1 -1 -1 -3t-4 -2q-3 0 -4.5 3t-2.5 7.5t-1 8.5v6l-0.5 2.5t-0.5 5.5
t-0.5 6.5t-0.5 5.5v0zM95 158v15q0 2 1 7t2 11.5t2.5 14t3.5 14t4.5 10.5t4.5 4v0q3 -1 4 -3t1 -5v0q0 -1 -1 -3l-2 -4l-2 -4l-1 -2q-4 -11 -7 -24t-3 -24t2 -21.5t2 -21.5q-6 0 -7.5 2.5t-1 5.5t0.5 6.5t-3 5.5v16zM100 106q0 1 1 1.5t2 0.5q6 0 8.5 -4.5t3.5 -11t1.5 -13
t0.5 -9.5v-8.5t-0.5 -7t-1.5 -7.5t-3 -9q-1 -2 -3 -2.5t-4 -0.5q-3 0 -3 3q0 8 2.5 17t2.5 18v6v4t-0.5 4.5t-1.5 6.5q0 2 -2.5 5.5t-2.5 6.5zM59 87q0 2 -1 4.5t-1.5 5t-1.5 5t-1 5.5q5 0 8 -2t4.5 -5.5t2 -7.5t0.5 -8v-12.5t-1.5 -15t-5.5 -13t-10 -5.5q-4 0 -4 3v2
l0.5 1.5t1.5 3.5l1.5 3t0.5 2q4 8 5.5 16.5t1.5 17.5z" />
</svg>
