<?xml version="1.0" standalone="no"?>
<!DOCTYPE svg PUBLIC "-//W3C//DTD SVG 1.1//EN" "http://www.w3.org/Graphics/SVG/1.1/DTD/svg11.dtd" >
<svg xmlns="http://www.w3.org/2000/svg" xmlns:xlink="http://www.w3.org/1999/xlink" version="1.1" viewBox="-10 0 266 256">
   <path fill="currentColor"
d="M174 190q2 2 2.5 6l1 8t0.5 8t1 6q0 1 0.5 2t1.5 2.5t2 2.5l1 1q0 2 2 5.5t4 7.5l3.5 7l2.5 5h3q2 0 3.5 -0.5t2.5 -1.5v-2v-2q0 -4 -1 -6.5t-2.5 -4l-3.5 -3.5t-4 -5q-3 -5 -5 -12t-3 -14.5t-1.5 -15t-0.5 -13.5v-7v-7v-6t1 -8q1 -3 2 -5.5t1 -6.5q0 -2 -0.5 -4.5
t-3.5 -2.5h-40q-1 -1 -4.5 -1.5t-4.5 -0.5q-3 -1 -3 -4v-7q0 -3 -1 -6t-4 -3q-2 0 -3.5 1t-1.5 3q0 3 0.5 7.5t2 9t4.5 7.5t7 3h38l2 1v4v4q0 9 -1 17.5t-1 17.5v13zM86 202q1 2 2 5.5t2.5 7.5t3 7t4.5 3q2 0 4 -1.5t3 -3.5q-2 -8 -5.5 -14t-6.5 -13q-5 -15 -7 -29t-2 -30
q0 -13 2 -24.5t5 -23.5t5 -23.5t2 -24.5q0 -5 -1 -11t-3 -10.5t-6 -7.5t-10 -3v1v1q0 2 0.5 3.5t1.5 2.5t2 2.5t2 3.5q3 5 4.5 11.5t1.5 12.5q0 13 -3.5 25.5t-6.5 25.5q-3 9 -4 21t-1 22v3v3v4v2q1 2 1.5 4.5t0.5 5v5.5q0 2 1 5q0 1 1.5 6t2.5 10t2 9.5t2 6.5zM50 134v6
q0 2 0.5 7.5t1 12t1.5 12t1 7.5t1 7.5t3 11.5t4.5 10.5t5.5 4.5t4 -2.5t1 -5.5v-2l-1 -2l-2 -4t-1.5 -3.5t-1.5 -2.5q-1 -5 -2.5 -11t-2.5 -12t-1.5 -12t-0.5 -11q0 -10 1.5 -19.5t1.5 -19.5q0 -3 -1 -5t-4 -2q-2 0 -3.5 1t-2.5 4q0 8 -1 15.5t-1 14.5zM99 168q2 1 3.5 6.5
t3.5 12t4.5 11.5t6.5 5q3 0 4.5 -1.5t1.5 -4.5q0 -4 -2 -8t-4.5 -8t-4.5 -8t-3 -8q-3 -7 -3.5 -15.5t-0.5 -16.5q0 -7 2 -13.5t2 -13.5q0 -2 -1.5 -4t-3.5 -2t-3.5 5.5t-2.5 12t-1.5 12.5t-0.5 7v3q1 2 1 6t0.5 8.5t1 8t0.5 5.5zM125 77q0 4 4 7t9.5 4t12 1.5t12.5 0.5h11h7
h3h4t3.5 -1t1.5 -3v-0.5v-0.5l-1.5 -1t-1.5 -2h-2.5t-3.5 -0.5t-4 -0.5h-3q-2 0 -7.5 -0.5t-11.5 -0.5t-11.5 0.5t-7.5 0.5t-3 -2t-1.5 -4t-1.5 -4.5t-4 -2.5q-2 0 -3 3.5t-1 5.5zM63 55q0 7 -2 12.5t-2 12.5q5 0 8 -2.5t4.5 -6t1.5 -8v-8.5q0 -3 -0.5 -8.5t-2 -11.5t-5 -10
t-8.5 -4q-1 0 -2 0.5t-1 2.5q0 3 1.5 5t2.5 4q3 6 4 11t1 11zM112 45q0 9 -3 18t-3 17q6 0 9.5 -3.5t4.5 -8.5t1 -10v-10v-9t-1 -10t-4.5 -8.5t-8.5 -3.5q0 7 2.5 14t2.5 14zM147 11q-2 0 -5 0.5t-3 3.5v28q0 4 5.5 6.5t12.5 4t14 1.5h9h13l0.5 -0.5t0.5 -1.5v0
q0 -4 -2 -5.5t-5 -2t-6.5 0t-4.5 0.5q-2 0 -5 -0.5t-6 -0.5t-5.5 -0.5t-3.5 -0.5q-2 0 -5.5 -1t-3.5 -2v-30z" />
</svg>
