<?xml version="1.0" standalone="no"?>
<!DOCTYPE svg PUBLIC "-//W3C//DTD SVG 1.1//EN" "http://www.w3.org/Graphics/SVG/1.1/DTD/svg11.dtd" >
<svg xmlns="http://www.w3.org/2000/svg" xmlns:xlink="http://www.w3.org/1999/xlink" version="1.1" viewBox="-10 0 266 256">
   <path fill="currentColor"
d="M75 173q0 2 0.5 8.5t1 15.5t2 18.5t3.5 17t4.5 13t5.5 5.5t3.5 -1.5t0.5 -3.5q0 -9 -3 -18t-5 -18q-3 -9 -4 -19.5t-1 -19.5q0 -14 2.5 -27t6 -26t6.5 -26t3 -26q0 -5 -0.5 -11.5t-2 -13t-3.5 -12.5t-6 -9l-2.5 -2.5l-3 -3l-2.5 -2.5l-1 -1l-5 2l-0.5 1.5t-0.5 2.5t0.5 3
t0.5 3l1.5 1t2.5 2.5t2.5 3l1.5 1.5q0 1 1 3.5t2 5.5t2 5.5l1 2.5q1 1 2 3.5t1 3.5v29q0 2 -2 6t-2 6l-1 3l-2 6t-1.5 6t-0.5 4l-1 2t-1 3q-3 13 -4.5 26t-1.5 27zM184 160q4 0 6.5 6.5t4 16.5t2.5 21t2 21t2.5 16.5t3.5 6.5q4 0 5 -3.5t1 -6.5v-3q-1 -3 -1 -7.5t-1 -9
t-1 -8.5t-1 -4q0 -4 -1.5 -9.5t-2.5 -11.5t-2 -10t-2 -5l-1 -3q0 -1 -0.5 -3t-0.5 -5.5t-0.5 -7t-0.5 -5.5v-5v-3v-4t1 -4t2 -2q2 -13 3.5 -26t1.5 -26q0 -12 -4 -18t-11 -8.5t-16 -2.5h-19h-7h-3t-3.5 0.5t-2.5 0.5h-1v8h21l2 2v3v3t-1 7.5t-2 13.5t-2.5 13t-2.5 6h-28
q-1 0 -1.5 1t-0.5 2q0 3 5 3.5l10 1t10 1.5t5 4q0 5 -1 11.5t-2 13.5t-1.5 13.5t-0.5 11.5l-3 1h-21q-2 0 -2 1.5v2.5q0 2 2 3t5 1h5h4q9 0 18.5 -1.5t18.5 -6.5q1 0 2.5 -1.5l3 -3t3 -2.5zM48 201q0 2 1 8t2 12.5t3 11.5t4 5q6 0 6 -6q0 -8 -1.5 -16l-3 -16t-2.5 -16
t-1 -16q0 -6 1 -11.5t2 -11.5t2 -11.5t1 -11.5q0 -3 -1.5 -5t-3.5 -2q-3 0 -4.5 1.5t-1.5 4.5q-1 3 -1.5 7.5t-1 9.5t-0.5 9v5v3t-0.5 7t-0.5 8v6v5q0 4 0.5 7.5t0.5 7.5v5zM108 222q1 2 2.5 4t4.5 2t4.5 -2t1.5 -4q0 -4 -2 -10.5t-4.5 -13l-5 -13t-2.5 -12.5q-1 -7 0 -13.5
l2 -13l2 -13t1 -12.5q-5 0 -8 5t-4 12t-1 14v9q0 17 2 31t7 30zM155 159v-3.5t0.5 -8.5t1.5 -10.5t2.5 -10.5t2.5 -8t3 -3q4 0 8 2.5t6.5 6t4 8t1.5 8.5q0 5 -2 9.5t-5.5 8t-8 5.5t-8.5 2q-6 0 -6 -6zM163 99v-1.5v-0.5l8 -39h16l6 7v1.5v3.5v4v4v4v7v5.5v2.5v1.5t-0.5 3.5
t-0.5 4t-1 2v2.5t-0.5 3t-1.5 3t-2 1.5v0q-1 0 -1.5 -1t-1.5 -2t-2.5 -2l-1.5 -1q-2 -2 -5 -2.5t-6 -1.5t-4.5 -3t-1.5 -6zM108 96q0 1 1.5 1h2.5q3 0 5.5 -4t4 -9t2.5 -10.5t1 -7.5t-0.5 -5t-0.5 -4l-0.5 -1l-0.5 -1q0 -1 0.5 -2.5t0.5 -2.5v-1q0 -3 -2 -7.5t-7 -4.5
q-2 0 -2.5 1.5t-0.5 3.5v3q0 1 0.5 3.5t1.5 5t1.5 5t0.5 3.5v0q0 6 -2 14.5t-4 14.5q-1 0 -1.5 2t-0.5 3zM60 92q0 3 1 3.5t4 0.5t5 -3.5t3.5 -7.5t2.5 -8t1 -6q0 -3 -0.5 -8t-2 -10t-4 -9t-7.5 -4q-2 0 -3.5 0.5t-2.5 3.5q2 3 3.5 5.5t3 5.5t2 5.5t0.5 6.5q0 7 -3 13t-3 12
z" />
</svg>
