<?xml version="1.0" standalone="no"?>
<!DOCTYPE svg PUBLIC "-//W3C//DTD SVG 1.1//EN" "http://www.w3.org/Graphics/SVG/1.1/DTD/svg11.dtd" >
<svg xmlns="http://www.w3.org/2000/svg" xmlns:xlink="http://www.w3.org/1999/xlink" version="1.1" viewBox="-10 0 266 256">
   <path fill="currentColor"
d="M45 161v16q0 1 0.5 3.5t0.5 6t0.5 6t0.5 3.5q0 2 0.5 6.5t1.5 10.5t2.5 12.5t3.5 11.5t4 8.5t5 3.5q4 0 4.5 -2.5t0.5 -5.5t-1 -6.5t-2.5 -7.5l-3 -8t-3.5 -6q0 -12 -2 -23t-2 -23q0 -8 0.5 -16.5t0.5 -17.5v-8q0 -2 -1 -2.5t-2 -0.5q-3 0 -4 1.5t-2 4.5q-2 9 -2 16.5
v16.5zM72 152v7v7v7v4l0.5 2.5t1 5.5l1 6t1.5 5q0 1 0.5 5.5t2 9.5t3 11t3 11t3.5 8.5t3 3.5q2 1 3 0t1.5 -2.5t0.5 -3v-2.5q0 -4 -1.5 -7.5t-3.5 -7.5q-1 -5 -3 -11.5t-3.5 -13.5t-3 -13.5t-1.5 -10.5q0 -17 1 -34.5t4 -33.5q3 -15 6.5 -28.5t3.5 -28.5v-3v-4v-4v-2
q-2 -3 -3 -6.5t-2.5 -7t-3.5 -6t-6 -2.5q-1 0 -3.5 0.5t-2.5 2.5q0 1 1 3t2.5 3.5t2.5 3t2 2.5q2 7 2.5 13t0.5 13q0 8 -1 16.5t-3 17l-4 17t-3 16.5q0 1 -0.5 3.5t-1.5 3.5v4.5v7.5v7v5zM98 185q1 1 2.5 5.5t3.5 10t4 12t4 11.5t4.5 8.5t4.5 3.5q3 0 4.5 -2t1.5 -5v-2v-1
q-11 -16 -17.5 -33t-7.5 -36v-8v-12v-11.5v-8.5q-1 0 -3 0.5t-3 1.5q-1 7 -1.5 12t-0.5 12q0 1 0.5 5l0.5 4q0 2 0.5 6.5t1 10t1 10t0.5 6.5zM134 183h-5t-6 1t-5.5 2.5t-2.5 5.5q23 0 46.5 -0.5t46.5 -1.5l2 -2t1 -2v0v-1l-1 -2.5t-2 -2.5h-17l-4 -3v-95l-3 -34q0 -2 -2 -3
t-4 -1.5t-4 -0.5h-2h-4.5h-2.5q-1 0 -2.5 0.5t-2.5 0.5q-9 2 -14.5 3t-8 4t-3 8.5t-1.5 17.5v1q0 23 1.5 45.5t1.5 45.5v3v3v3.5v1.5zM144 180q1 -10 0 -19t-1 -19v-2.5t3 -1.5q4 -1 6.5 -1.5t5 -0.5h5h5.5h7q1 1 2 4t1 4v34l-3 4h-29zM143 126v-26q0 -3 3.5 -5t8.5 -2.5
t10 -0.5h7h4q1 7 1.5 11t0.5 10v3t-0.5 4.5t-1 4t-1.5 1.5h-32zM47 102q0 2 1.5 2.5t2.5 0.5q5 0 8 -6t4.5 -14t2 -16t0.5 -11v-8t-0.5 -10t-3 -8.5t-7.5 -3.5q-2 0 -3 1.5t-2 3.5q6 8 7 18.5t1 20.5q0 4 -2 8.5t-4 8.5t-3.5 7.5t-1.5 5.5zM112 75q-1 7 -4.5 13t-3.5 12
q6 0 9.5 -4t5.5 -10.5t2.5 -13t0.5 -10.5v-10.5t-1 -12.5t-4 -10t-9 -4q-4 0 -4 3q0 2 1 5t3 6t3 6t1 4v2v4v4v3v3v4v4v2zM141 69q0 -6 2.5 -9.5t7 -5.5t9.5 -2.5t9 -0.5q3 0 4.5 2.5t2.5 6t1.5 7t0.5 5.5t-0.5 4l-1 4t-1.5 3.5t-3 1.5h-29l-0.5 -1.5t-0.5 -3.5t-0.5 -4
t-0.5 -4v-1.5v-1.5z" />
</svg>
