<?xml version="1.0" standalone="no"?>
<!DOCTYPE svg PUBLIC "-//W3C//DTD SVG 1.1//EN" "http://www.w3.org/Graphics/SVG/1.1/DTD/svg11.dtd" >
<svg xmlns="http://www.w3.org/2000/svg" xmlns:xlink="http://www.w3.org/1999/xlink" version="1.1" viewBox="-10 0 266 256">
   <path fill="currentColor"
d="M152 248q0 2 1 2.5t3 0.5q5 0 8.5 -4t6 -10t4.5 -13t3 -14t2.5 -13t2.5 -9q0 -3 1 -11.5t1.5 -17.5t1 -17.5t1.5 -11.5v-4v-6v-6v-4v-4.5t0.5 -5t1.5 -4.5t4 -2q1 0 2.5 1.5t1.5 3.5v80q-1 6 -2 14t-1 14q0 2 1.5 4t3.5 2t3 -1.5t2 -3.5q3 -22 3.5 -43.5t0.5 -42.5v-4
v-7.5v-9.5v-6v-5v-6v-5v-3l-1 -3h-1.5h-1.5h-3h-2q-1 0 -1.5 0.5t-0.5 1.5v10q0 2 -2 2h-3q-3 0 -3.5 -2t-1 -5t-0.5 -5v-5q-2 -3 -3 -5l-2 -4t-1.5 -3.5t-0.5 -4.5q0 -5 3.5 -7l7 -4t7 -4.5t3.5 -6.5t-4 -4t-8.5 3t-8 7t-6.5 9t-3 8t1.5 5.5t3 4.5t2.5 5t1 6v2t-0.5 4
t-0.5 3.5t-1 2.5h-2h-2q-6 0 -7.5 -3.5t-1.5 -8.5h-3h-3t-2 1v3.5v3.5q0 5 1 9t1 8v5q0 2 -0.5 7t-1 11.5t-1 12t-0.5 6.5q-1 4 -0.5 7.5t0 7.5t-1.5 7.5t-3 6.5v4.5t-0.5 6.5t-0.5 6v5v3v2t1 2q2 0 3.5 -3.5t3 -9.5t3 -13.5t2.5 -14t1.5 -11.5t0.5 -6q0 -3 0.5 -9t1 -13
t1 -13.5t0.5 -8.5q1 -3 2 -3.5t3 -0.5q3 0 4.5 1.5t2 3.5t0.5 4v5v3.5v3.5t-0.5 5.5t-0.5 9.5t-0.5 9.5t-0.5 5.5q0 6 -0.5 14.5t-2 18.5t-3.5 20t-4.5 19.5t-6.5 17t-8 11.5l-0.5 0.5t-0.5 1.5zM102 243v4.5t4 1.5t5.5 -2.5t2 -6t0.5 -7v-5.5q0 -1 0.5 -4l1 -6l1 -6t0.5 -4
q2 -4 5.5 -4.5t7.5 -0.5t7.5 -2.5t4.5 -9.5v-3.5t0.5 -5t0.5 -5v-3.5l5 -4q-1 -3 -3 -3.5t-4 -0.5q-3 0 -6.5 1t-7.5 1h-4q-1 0 -3 -2v-4q0 -6 3.5 -8.5t7.5 -4t7.5 -3.5t4.5 -7q0 -1 0.5 -4.5t1 -7.5t1 -7t0.5 -4l0.5 -1l1 -2t1.5 -2l1 -1v-2v-1q-6 0 -12 0.5t-13 0.5
q-2 0 -2.5 -1.5t-0.5 -3.5t1 -5t2 -5q9 -2 13 -4t5.5 -5.5t2 -8.5t2.5 -13q0 -1 1.5 -2.5t3 -2t2.5 -1.5t1 -3t-2 -2.5t-3 -0.5q-7 0 -13.5 1.5t-13.5 1.5v-3t-0.5 -4.5t-0.5 -4.5v-3q1 -4 5.5 -5.5t10.5 -2.5t10.5 -2t4.5 -5v0q0 -1 -0.5 -2l-0.5 -1q-1 0 -3 -0.5l-2 -0.5
q-7 0 -14.5 2t-13.5 6q-2 2 -3 4t-3 4q0 2 -0.5 6.5t-0.5 9.5v9.5v6.5v7v11t0.5 11.5t0.5 7.5q-2 4 -1.5 8t0.5 9q-1 17 -1.5 34.5t-1.5 35.5q-1 6 -2 13t-2.5 13.5t-2.5 13t-1 12.5zM64 147q0 22 3.5 46t13.5 45l0.5 0.5t1.5 0.5t2.5 -0.5t2.5 -1.5v-2v-2q0 -7 -2 -11.5
t-4 -10.5q-4 -14 -6 -28.5t-2 -29.5v0q0 -2 1 -7.5t1.5 -11t0.5 -11t1 -7.5q0 -1 1 -5.5t2.5 -10t2.5 -11t1 -7.5l0.5 -2t0.5 -3.5t0.5 -3l0.5 -1.5v-17v-9v-10t-1 -9.5t-4 -8.5q-1 -1 -2 -3t-2.5 -3.5t-3.5 -3t-4 -1.5q-1 0 -3 1.5t-2 2.5t2 4.5t4 8l4 9t3 8.5v10
q0 18 -3.5 36t-6.5 35q-1 6 -2.5 12t-1.5 13zM53 220q0 1 1.5 1.5l1.5 0.5q1 0 2.5 -1.5l2.5 -2.5v-6q0 -8 -1 -16t-2.5 -16t-2 -16.5t-0.5 -16.5q0 -9 2 -18.5t2 -18.5q0 -3 -1.5 -3h-2.5q-4 0 -5.5 4t-2 9t-0.5 10v7v3v5.5v6.5v5q0 17 2 32t4 31zM84 173q0 2 2 9t3.5 14
t3.5 12.5t4 5.5q3 0 3.5 -2t0.5 -5q0 -1 -0.5 -2.5l-0.5 -1.5q0 -1 -1 -6t-1.5 -10.5t-1.5 -10t-2 -6.5v-62l-0.5 -0.5l-0.5 -0.5h-1q-2 0 -3.5 4.5t-2.5 10.5t-1.5 11.5t-0.5 6.5t-0.5 3t-0.5 4v5v5v3v5q0 2 0.5 4.5t0.5 3.5zM127 175q4 0 5.5 2t1.5 6q0 2 -0.5 5t-2 5.5
t-3.5 4t-5 1.5q-1 0 -2.5 -1l-1.5 -1v-20l1 -0.5t2 -0.5l2 -0.5t3 -0.5zM122 129v-8q0 -2 1.5 -4.5t3.5 -2.5l1 1q1 0 4 0.5t4 0.5v9v7q0 4 -1 6.5t-3 4t-7 1.5l-0.5 -0.5t-1.5 -0.5q-1 -3 -1 -7v-7zM101 50q0 6 -1 12t-2.5 11.5t-2.5 11.5t-1 12q4 0 6.5 -5t4 -12t2 -13
t0.5 -9v-8t-0.5 -10.5t-2.5 -10t-5 -5.5l-1.5 0.5t-1.5 1.5l-2 1v1q0 3 1 5.5t2.5 5.5t2.5 5.5t1 5.5zM53 87q0 2 0.5 3t2.5 1q3 0 5.5 -3.5t4 -8.5t2 -10t0.5 -7v-10t-1 -10t-4 -8t-9 -3q0 7 1 14t1 15q0 7 -1.5 13.5t-1.5 13.5zM123 59h14l2 3q0 1 -0.5 3t-1 4.5l-1 5
t-0.5 4.5q-1 3 -3.5 5t-5.5 2q-2 0 -3 -0.5t-1 -3.5v-23z" />
</svg>
