<?xml version="1.0" standalone="no"?>
<!DOCTYPE svg PUBLIC "-//W3C//DTD SVG 1.1//EN" "http://www.w3.org/Graphics/SVG/1.1/DTD/svg11.dtd" >
<svg xmlns="http://www.w3.org/2000/svg" xmlns:xlink="http://www.w3.org/1999/xlink" version="1.1" viewBox="-10 0 266 256">
   <path fill="currentColor"
d="M136 166v80q0 2 2 2.5t4 0.5h3t3 -1v-104v-5t0.5 -6.5t1 -7.5t1.5 -6t1.5 -7t1 -11t1 -12.5t1.5 -13t1.5 -11t0.5 -6.5v-2q0 -4 -4 -10t-10 -12t-11.5 -10.5t-7.5 -4.5q-4 0 -4 4q0 3 1.5 5t3.5 4t3.5 4t1.5 5v2.5v2.5l-0.5 3.5t-2 7t-2 7l-0.5 3.5l-6 26l-6 26t-5 26
t-2 26q0 2 1 3.5t3 1.5q3 0 5.5 -7t4 -15.5t2.5 -16.5t1 -11q3 -19 7 -37t8 -37h1.5h0.5q2 0 3.5 1.5t2 3.5l1 4t0.5 4q0 12 -3 23.5t-4 23.5q0 6 -0.5 13t-1 14.5t-1 14.5t-2.5 12zM199 246q1 2 2 2.5t3 0.5t3 -0.5t2 -2.5v-4.5v-4.5q0 -13 -2 -24.5t-3 -23.5
q-2 -13 -2 -26v-26v-21q6 -7 11 -13.5t5 -15.5v-3q0 -1 -0.5 -3.5t-0.5 -5.5t-0.5 -5.5t-0.5 -3.5q-2 -5 -6.5 -8t-10 -5t-11 -3t-10.5 -3v0v0q-1 0 -2.5 0.5t-3.5 1t-3 1.5t-1 2q0 3 3 4.5t7.5 2.5t9.5 2t9.5 3.5t7.5 7t3 11.5q0 4 -2 10t-6 9v0.5v0.5q-3 0 -4 -3t-1.5 -6
t-1 -5.5t-3.5 -2.5h-22q-1 0 -1.5 1.5t-0.5 2.5l0.5 1l0.5 1q3 0 7.5 1t8 3t5.5 5.5t2 7.5t-2.5 6t-6 3t-8 2t-8.5 2t-6.5 3t-2.5 6q5 0 8.5 -0.5t6.5 -1t6 -1.5t7 -2h1h2q2 0 3.5 1t1.5 5v39l2 3l0.5 5.5t1 12.5t1 14.5t0.5 12.5v10q0 1 0.5 3.5t0.5 5t0.5 5t0.5 3.5z
M61 152q0 4 1 12.5t3 18.5t4.5 21t5.5 20t7 14.5t8 5.5q3 0 3.5 -1.5t0.5 -4.5v-4q-1 -1 -2 -3.5l-2 -5l-2 -5t-1 -3.5q-6 -15 -10 -30.5t-4 -32.5v-3v-3q0 -3 0.5 -7t0.5 -8t0.5 -7t0.5 -4l13 -44q2 -2 3 -5.5t1 -5.5v-36q-2 -4 -3.5 -7.5t-4 -7t-5.5 -5.5t-8 -2
q-2 0 -2.5 1t-0.5 3t0.5 3.5t2 3t2.5 3t2 3.5q3 8 5 15t2 16v5v5q-4 10 -7.5 20.5t-6.5 21t-5 21.5t-2 22zM37 153v1q1 6 1.5 16t1 19t1 15.5l0.5 6.5l5 21q0 1 0.5 1.5t1.5 0.5q0 1 3 2l3 1h1q3 0 4.5 -1.5t1.5 -4.5q-7 -17 -9.5 -35t-2.5 -37q0 -13 2 -25.5t2 -24.5
q0 -3 -1 -4t-4 -1q-4 0 -5.5 4t-1.5 8q0 1 -0.5 6.5t-1.5 11.5t-1.5 11.5t-0.5 6.5v1zM88 146v20q0 4 1.5 12.5t4.5 17t7 15t10 6.5q3 0 4 -1.5t1 -4.5t-1.5 -6t-3.5 -6t-4.5 -5.5t-2.5 -6.5q-4 -14 -5.5 -26.5t-1.5 -27.5q0 -6 1.5 -12t1.5 -12q0 -2 -1 -2.5t-3 -0.5
q-3 0 -4.5 2.5t-2.5 6t-1 6.5v5v20zM153 169v2t2 1h25q2 0 3.5 -1t1.5 -3v0q0 -1 -0.5 -2.5l-0.5 -1.5h-12q-1 0 -4 -0.5t-6.5 0t-6 1.5t-2.5 4zM95 83q0 4 4 4q5 0 8.5 -4.5t5.5 -10.5t2.5 -12t0.5 -9t-0.5 -6.5t-1.5 -7.5t-3.5 -7t-6.5 -3q-2 0 -3 1.5t-1 3.5q0 5 2 9t2 9
q0 6 -0.5 12.5t-3.5 11.5l-0.5 1t-1.5 2l-2 2t-1 2v1v1zM48 83q0 2 1.5 2.5t3.5 0.5q6 0 9 -3.5t4.5 -8.5t1.5 -10.5v-8.5q0 -4 -0.5 -8.5t-2.5 -8.5t-5 -6.5t-8 -2.5q-2 0 -3.5 0.5t-2.5 2.5q0 1 0.5 2t1.5 2l4 6t3.5 6t2 6.5t0.5 8.5q0 2 -2 5t-4 5.5t-3.5 4.5t-0.5 5z
" />
</svg>
