<?xml version="1.0" standalone="no"?>
<!DOCTYPE svg PUBLIC "-//W3C//DTD SVG 1.1//EN" "http://www.w3.org/Graphics/SVG/1.1/DTD/svg11.dtd" >
<svg xmlns="http://www.w3.org/2000/svg" xmlns:xlink="http://www.w3.org/1999/xlink" version="1.1" viewBox="-10 0 266 256">
   <path fill="currentColor"
d="M156 244q0 2 0.5 4.5t4.5 2.5q6 0 6 -6v-4v-6v-6v-3q0 -12 -0.5 -24.5t-0.5 -25.5v-6t1 -6t1.5 -6t0.5 -7l2 -2h25l2 2v3v7t0.5 7.5t0.5 5.5q0 18 -2 35.5t-2 34.5q0 2 1 4t3 2q3 0 5 -1t2 -4q2 -14 2 -28v-28v-32q-2 -7 -2.5 -15t-2.5 -15q-2 -6 -4.5 -11t-2.5 -11
q0 -7 2.5 -12t2.5 -11q0 -2 -1 -2.5t-3 -0.5q-3 0 -5 2t-2 5q0 1 -1 4t-1.5 6.5t-1.5 7t-1 4.5q2 9 5 16.5t3 16.5h-26v-65l0.5 -1t1.5 -1h2t4 -0.5t3.5 -0.5h1.5q1 0 3 -0.5t4.5 -1t4.5 -1t3 -0.5q2 -2 3.5 -5.5t2 -8t0.5 -8.5v-6v-8q0 -1 -1.5 -1h-2.5q-4 0 -5.5 3.5
t-2.5 8t-1.5 9t-0.5 6.5q-4 3 -9 4t-9 1v-4v-4q0 -7 1 -13t1 -13v-8q-1 -1 -2 -1h-2q-8 0 -8 7v2q0 1 1 3.5t1 3.5q0 2 -0.5 6.5l-1 9t-2 8t-4.5 3.5q-6 0 -8.5 -2.5t-4 -6t-2 -7.5t-0.5 -7.5t-1 -6t-4 -2.5h-1.5t-1.5 1v11v9t2 9q1 3 5 5t8.5 3t8 2.5t3.5 2.5v66l-3 0.5
t-4 0.5t-3 -0.5t-4 -0.5t-4 -0.5l-2 -0.5v-3q0 -4 1 -7.5t2.5 -7l3 -7t1.5 -7.5q0 -3 -0.5 -8t-2 -10t-4.5 -8.5t-8 -3.5q-3 0 -3 3v0l10 16v1v1q0 9 -3.5 17.5t-6.5 15.5q-1 3 -1.5 8t-1.5 11.5t-1.5 11.5t-0.5 8v3v7v8v7v24t2 24q0 1 1 1h2q3 0 5.5 -3t2.5 -6
q0 -1 -0.5 -2.5t-1 -3.5t-1 -3.5l-0.5 -1.5v-72q0 -2 1.5 -3.5t3.5 -1.5h19l0.5 1.5t0.5 3v3.5v3v4.5t-0.5 7t-0.5 7v4.5v7q0 3 1 6.5t1 6.5q0 1 -0.5 1.5l-0.5 0.5v3.5t-0.5 5.5t-0.5 5.5v3.5v0v1q0 1 0.5 3.5l0.5 2.5v2t-0.5 2.5t-0.5 2.5v1v6zM80 89l-1 1q-1 1 -1 2
t-1 2.5t-1 3t-1 2.5q0 1 -0.5 3.5t-1 4.5l-1 4l-0.5 2v58l0.5 2.5t1 6t1 6.5t1 5t1.5 7t3 11t4.5 13t5 12.5t5 9t4.5 3.5t3.5 -1t1.5 -4q0 -2 -2.5 -9.5t-5.5 -15.5t-6.5 -15l-4.5 -9q-1 -8 -2 -14.5t-1.5 -13t-1 -12.5t-0.5 -13q0 -10 1.5 -21.5t5.5 -21.5q3 -10 6.5 -19.5
t3.5 -20.5q0 -7 -1.5 -15t-5 -14.5t-9 -11t-14.5 -4.5v7q10 9 15 19.5t5 23.5q0 3 -0.5 6t-1.5 6l-2 6t-3 8zM46 155q0 2 0.5 8t1.5 13.5t2 16.5t3.5 16t5 12t6.5 5q2 0 4 -1t2 -4q0 -6 -2 -11.5t-4.5 -10.5t-4.5 -10t-2 -11v-62l-1.5 -0.5t-2.5 -1.5v0q-3 0 -4 6t-2 13
t-1.5 14t-0.5 8zM97 148l3 44q0 1 0.5 2.5t2 4.5t3 5t2.5 4q1 3 2 3.5t3 0.5t3 -1t1 -4t-1.5 -6.5t-3.5 -7t-3.5 -7t-2.5 -6.5q-1 -7 -1.5 -15t-0.5 -17v-16v-15q0 -1 -1.5 -1h-2.5q-2 0 -3.5 2t-2 5.5t-0.5 6.5v5q0 4 0.5 6.5t2.5 6.5zM51 91v1l2 2l1 1h1q3 0 5.5 -2.5
l3.5 -3.5q2 -7 3 -11.5t1 -10.5q0 -4 -0.5 -9t-2 -9.5t-5 -7.5t-9.5 -3q-2 0 -2.5 1t-0.5 3t1 5t3 6.5t3 8t1 8.5v1q0 1 -0.5 3.5t-1.5 6t-2 6t-1 3.5v1zM99 91q0 2 0.5 3t3.5 1q1 0 4 -1.5t4 -3.5l10 -30v-2v-2q0 -5 -0.5 -10t-2.5 -8.5t-5.5 -6t-8.5 -2.5q0 5 0.5 9t3.5 8
v2v4v3v3v7q0 2 -0.5 5l-1 6t-2.5 6q-1 3 -3 4.5t-2 4.5z" />
</svg>
