<?xml version="1.0" standalone="no"?>
<!DOCTYPE svg PUBLIC "-//W3C//DTD SVG 1.1//EN" "http://www.w3.org/Graphics/SVG/1.1/DTD/svg11.dtd" >
<svg xmlns="http://www.w3.org/2000/svg" xmlns:xlink="http://www.w3.org/1999/xlink" version="1.1" viewBox="-10 0 266 256">
   <path fill="currentColor"
d="M68 146q0 22 4 41t11 39q1 4 1.5 8t2 7.5t4 5.5t7.5 2h3.5t0.5 -3q-12 -22 -19 -46t-7 -49v-3v-6v-5.5v-3.5q4 -12 6 -24.5t7 -24.5v-4v-6v-5v-4q0 -6 -0.5 -15t-2.5 -16.5t-7 -13t-14 -5.5v6q7 9 11.5 18.5t4.5 21.5q0 11 -2 21.5t-4.5 21t-4.5 21t-2 21.5zM169 189
q0 3 2 8.5t5 12t6.5 12.5t8 11t8.5 8.5t8 3.5q1 0 3 -1t2 -4v-1q-3 -5 -8.5 -10.5t-10.5 -12t-8.5 -13t-3.5 -13.5q0 -8 2.5 -14t6 -11t6 -9.5t2.5 -9.5q0 -4 -2.5 -9t-6.5 -7q-1 0 -3 -0.5t-4.5 -1t-4.5 -1t-3 -1.5l-2 -0.5l-2 -0.5q-1 0 -1.5 -1l-0.5 -1v-11l3 -4h3
t7.5 -0.5t9 -0.5h6.5h4.5h4.5t3.5 -1t2.5 -4q-3 -4 -6 -4.5t-8 -0.5t-10.5 0.5t-10.5 0.5h-2h-2h-2t-1 -1v-22l0.5 -0.5l0.5 -0.5q4 -3 9.5 -4t8.5 -2q6 -1 9 -5t4.5 -8.5t1.5 -10v-10.5q0 -1 0.5 -3t0 -4t-2 -3t-3.5 -1q-3 0 -4.5 5t-2.5 11t-1.5 12.5t-2.5 8.5
q-1 0 -3 0.5t-4 0.5t-4 0.5t-3 0.5h-1h-1q-3 0 -3.5 -1.5t-0.5 -4.5q0 -6 1 -13t1 -13v-13q-1 -2 -2 -4.5t-3 -2.5q-4 0 -5.5 3t-1.5 6q0 12 1 22.5t1 22.5v14q-1 2 -2.5 2h-2.5q-2 0 -5 -1t-6 -2.5t-5.5 -3.5t-2.5 -5v-31q0 -1 -1 -2t-2 -2.5t-2 -2.5t-2 -1t-2.5 1.5
l-1.5 1.5v6q0 10 0.5 20.5t4.5 18.5q2 4 7.5 5.5t10.5 2t9.5 2.5t4.5 9q0 1 -0.5 2.5t-1.5 1.5h-5.5t-8 0.5t-8 0.5t-5.5 1h-2t-3.5 0.5t-3.5 1l-2 0.5q-2 0 -2.5 0.5t-0.5 2.5v1.5t1 1.5h9q7 0 13 -1t12 -1h2.5t1.5 2v16q-4 4 -8 9t-7 10.5t-4.5 11t-1.5 11.5v69q0 2 1.5 3
t3.5 1q1 0 3 -1.5t2 -3.5v-60q0 -5 0.5 -12t3 -13.5t7 -11t11.5 -4.5h5.5t6.5 1t5 3t2 6v2v1q-3 5 -6.5 9.5t-6 9.5t-4.5 10.5t-2 11.5zM43 195q2 3 3.5 11t3.5 15.5t5 13.5t8 6h4t2 -4q0 -3 -1 -7t-3 -8l-4 -8t-3 -8q-4 -13 -5.5 -25t-1.5 -25q0 -10 2.5 -19t2.5 -19v-1.5
t-0.5 -3t-2 -2t-2.5 0.5q-1 0 -2.5 2t-2.5 3q-2 16 -2.5 32t-0.5 32v14zM91 155q0 4 0.5 11t2 15.5t4 17.5t5 16t5.5 11.5t6 4.5t4 -2t1 -4t-0.5 -3t-1 -2.5t-1.5 -3t-2 -3.5q-1 -1 -2 -4l-2 -6t-2.5 -6t-2.5 -4q-4 -10 -5 -21.5t-1 -22.5q0 -8 1.5 -15.5t1.5 -14.5v-3
t-2 -1h-1v0q-1 0 -2 1.5t-2 1.5q0 4 -1 8.5t-1.5 9.5l-1 10t-0.5 9zM50 91q0 4 4 4q2 0 3.5 -1.5t2.5 -3.5l2 -4t1 -4v-34l-10 -10h-2q-2 0 -3.5 0.5t-1.5 2.5q0 3 1 6t2.5 6t2.5 6.5t1 6.5q0 7 -1.5 13t-1.5 12zM106 65q0 4 -1.5 8l-3 8t-2.5 7.5t-1 7.5q4 0 6.5 -2t4.5 -5
t3.5 -7t1.5 -7v-31q0 -3 -1.5 -5t-4 -3t-4.5 -1h-4q0 7 3 14.5t3 15.5z" />
</svg>
