<?xml version="1.0" standalone="no"?>
<!DOCTYPE svg PUBLIC "-//W3C//DTD SVG 1.1//EN" "http://www.w3.org/Graphics/SVG/1.1/DTD/svg11.dtd" >
<svg xmlns="http://www.w3.org/2000/svg" xmlns:xlink="http://www.w3.org/1999/xlink" version="1.1" viewBox="-10 0 266 256">
   <path fill="currentColor"
d="M191 243q0 2 1 4.5t4 2.5q2 0 3.5 -1.5t2.5 -3t1.5 -4t0.5 -3.5q0 -17 -1 -34.5t-4 -34.5q-1 -5 -2 -10.5t-1 -10.5v-1.5v-1.5q7 -5 9 -9.5t2 -12.5q0 -5 -1.5 -10t-5 -8.5t-8 -6t-9.5 -2.5h-4t-2 2q0 3 3 5t6.5 4.5t6.5 6t3 8.5v2v3.5t-0.5 3t-1.5 1.5q-3 0 -5 -3
t-5 -6.5t-7 -6t-9 -2.5q-2 0 -3 0.5t-1 2.5t2.5 4t6 5t6.5 6.5t4 7.5q0 1 -2.5 2t-3.5 1q-2 0 -3.5 -1l-3 -2l-3 -2t-4.5 -1q0 6 1.5 8.5t4 3.5t5.5 1.5t5.5 1t5 1.5t3.5 5q0 2 0.5 8l1 12l1 12t0.5 8q0 1 0.5 2.5t0.5 3t0.5 3l0.5 1.5q0 1 -0.5 6t-0.5 10.5t-0.5 10
t-0.5 5.5v3zM119 232v0q0 1 0.5 3.5l1 5t1.5 4.5t4 2q1 0 2.5 -1t2.5 -2v-59v-8.5t0.5 -10.5t0.5 -9v-4l3 -3h4t6 -0.5t5.5 -2t2.5 -4.5q0 -5 -5 -5h-2q0 1 -2.5 1.5t-3.5 0.5h-1h-1l-1 -2v-1q0 -3 2.5 -6t5.5 -6l5.5 -5.5t2.5 -3.5q-1 -3 -2.5 -3.5t-3.5 -0.5q-4 0 -7 4
t-5.5 8.5t-4.5 8.5t-5 4q-2 0 -3 -1.5t-1.5 -3t-1 -3.5t-0.5 -3q0 -5 2 -8.5t5 -6t6.5 -5t7.5 -5.5q1 0 1.5 -1.5l0.5 -1.5q0 -1 -1.5 -2t-2.5 -1v-1q-5 0 -10 3t-8.5 7.5t-6 10t-2.5 10.5q0 8 3.5 13.5t9.5 11.5v1v2l-0.5 2t-0.5 3q-2 18 -3 37t-1 37zM68 132v3q0 4 0.5 10
t0.5 12t0.5 10.5l0.5 4.5q0 3 1 9.5t3 14.5t4 16.5t4 15.5t4.5 11.5t4.5 4.5t3.5 -2.5t1.5 -4.5l-0.5 -0.5l-0.5 -0.5l-14 -47q-1 -12 -2 -22t-1 -21q0 -10 0.5 -17.5t2 -14.5t3 -14.5t4 -16.5t3.5 -20t1 -21q0 -2 -1 -7t-3 -10.5t-4.5 -9t-6.5 -3.5q-1 0 -2.5 2t-1.5 4
q0 3 2.5 7t3.5 8q2 5 2 9v9v2v3.5v3.5v2q0 3 -1.5 9.5t-3 14.5t-3 15t-1.5 10q-2 5 -3 10.5t-1 10.5zM47 151v5t0.5 5.5t0.5 4.5v3q0 1 0.5 5t1 8.5t1 8.5t0.5 5.5t1 6.5l2 10t3 9t5 4q2 0 4 -1t2 -4q-3 -12 -5.5 -24t-5.5 -25v-22q0 -10 1 -19t1 -18q0 -3 -1.5 -4.5
t-4.5 -1.5h-1h-1q-1 7 -2 12.5t-1.5 10.5t-0.5 10v11zM88 140q0 2 0.5 8.5t1.5 15t2.5 18t3.5 17.5t5 13.5t7 5.5q1 0 2.5 -2.5t1.5 -3.5q0 -3 -1.5 -6.5t-3.5 -7.5t-4 -7.5t-3 -6.5q-2 -10 -3.5 -20.5t-1.5 -21.5q0 -7 2 -15t2 -15q0 -2 -1 -2.5t-4 -0.5q-2 0 -3.5 4
t-2 9.5t-0.5 10.5v7zM51 86q0 2 1 3.5t3 1.5q1 0 2.5 -1t2.5 -2t2 -4t2 -6.5t2 -6.5t1 -4v-1v-3.5v-3.5v-2v-8t-1 -9.5t-3.5 -8t-7.5 -3.5q-3 0 -3.5 1t-0.5 4q0 7 2.5 13.5t2.5 13.5q0 8 -2.5 14t-2.5 12zM95 88q1 1 2 1.5t2 0.5q3 0 5 -2.5t3.5 -6t2 -8t2 -8t4.5 -6
t8 -2.5h4t3 3v3.5v5t0.5 5t0.5 3.5l1 2l2 4t2.5 3.5t2.5 1.5h27q7 0 10 -3.5t5 -8.5t2 -10.5t1 -9.5l1 -2q1 0 3.5 -0.5t5 -0.5t4.5 -0.5t3 -0.5q2 0 3.5 -1.5t1.5 -3.5q0 -3 -2.5 -4t-5.5 -1t-5.5 1t-5.5 1h-2.5t-1.5 -2v-24l-2 -2t-4 -3h-0.5h-0.5q-1 0 -3 1t-2 3v29
q-7 0 -14 1t-14 1q-1 0 -2.5 -0.5l-1.5 -0.5l-2 -3v-26q0 -4 -0.5 -4.5t-3.5 -0.5q-2 0 -4.5 1t-2.5 4q0 8 1 15.5t1 15.5h-15q-1 0 -1 -3.5t-1 -8t-4 -8.5t-8 -4q0 7 1.5 12.5t1.5 12.5q0 10 -2 19.5t-6 18.5zM140 75v-16l2 -2h2t5 -0.5t6.5 -0.5h5.5l2 -0.5t3 -0.5
t3.5 0.5l2.5 0.5q2 0 2 2v2q0 7 -2 10.5t-5 5.5t-8 2h-11h-3h-2z" />
</svg>
