<?xml version="1.0" standalone="no"?>
<!DOCTYPE svg PUBLIC "-//W3C//DTD SVG 1.1//EN" "http://www.w3.org/Graphics/SVG/1.1/DTD/svg11.dtd" >
<svg xmlns="http://www.w3.org/2000/svg" xmlns:xlink="http://www.w3.org/1999/xlink" version="1.1" viewBox="-10 0 266 256">
   <path fill="currentColor"
d="M79 229q3 1 4 4.5t2.5 7.5t3 7t5.5 3q3 0 3.5 -1t0.5 -2v-2q-1 -2 -2 -5.5t-2 -6.5t-2 -5.5l-1 -2.5l-2 -2q-3 -17 -6.5 -33.5t-3.5 -34.5t5 -35.5t10 -34.5q0 -1 1 -3t1.5 -4t1 -3.5t0.5 -2.5v-41q0 -6 -3.5 -11.5t-8.5 -8.5h-2h-1q-2 0 -4 1t-2 4q0 4 3 5.5t4 4.5
q4 7 4.5 14.5t0.5 14.5q0 5 -1 9.5t-1 9.5q-1 7 -3.5 13.5t-4 13l-3 13t-2.5 13.5q-1 10 -2 19.5t-1 18.5q0 16 2.5 32t5.5 31zM45 221q0 2 1 5.5t2.5 7t3.5 5.5t5 2q2 0 3 -1.5t1 -3.5q0 -7 -2.5 -13t-3.5 -12q-2 -9 -2 -18.5v-19.5q0 -13 1.5 -24.5t3.5 -23.5v-2
q0 -2 -1 -2.5t-3 -0.5q-4 0 -6 3.5t-3 9t-1.5 12t-0.5 12.5v10.5v5.5q0 12 0.5 23.5t1.5 24.5zM94 148l4 50l0.5 2.5t1 5.5t1.5 6t1 4l2 2.5t3 4.5q1 0 1.5 0.5l0.5 0.5h1h1l1 -0.5t2 -0.5v-5q0 -5 -1.5 -10t-4 -10.5t-4 -11t-2.5 -12.5v-1.5v-3.5v-5v-4q0 -8 2 -15.5
t2 -15.5q0 -2 -1 -4t-4 -2q-1 0 -2 3.5t-2 8t-2 8.5t-1 5zM124 206q0 2 1 3t2.5 1.5t3 0.5h2.5q10 0 19.5 -0.5t18 -1.5t18 -1.5t19.5 -0.5q3 1 3 -0.5v-2.5v-3t-2 -2q-1 0 -5.5 0.5t-8.5 0.5q-5 0 -9 -0.5t-6 -0.5t-4.5 -0.5l-2.5 -0.5v-38q0 -1 2.5 -1.5t4.5 -0.5
q1 0 4 -0.5t6.5 -0.5t6.5 -0.5t4 -0.5t3 -1.5l2 -1.5v-1v-1l-0.5 -0.5l-0.5 -0.5h-32v-37q0 -2 3.5 -3.5t8 -1.5h10.5q5 0 10 -0.5t8 -1.5t3 -3q0 -3 -2.5 -4t-5.5 -1q-1 0 -4 0.5t-6.5 0.5t-7 0.5l-3.5 0.5h-6h-6q-2 -1 -2 -2v-2v-5.5t0.5 -9t2 -8.5t4.5 -4h28v-2
t-0.5 -2.5l-1 -3t-1.5 -1.5h-27q-3 0 -3 -2v-3v-3v-6.5t0.5 -10t0.5 -10v-6.5q0 -3 -1 -5t-3 -2q-5 0 -7 3t-2 6q0 8 1 15.5t1 14.5v5.5v3.5l-3 4h-22l-0.5 1t-0.5 2h-1v0q0 1 1 1q0 1 0.5 2l0.5 1h23v29l-3 3h-25h-1.5t-3 0.5t-3.5 1.5t-2 2v1l2 2q2 0 5.5 -0.5t7.5 -0.5
q5 0 8.5 0.5t5.5 0.5l3.5 0.5t4.5 0.5l0.5 1l0.5 1q0 4 0.5 7t0.5 5.5t0.5 5t0.5 6.5q0 7 -3.5 10.5t-9 4.5t-11.5 1h-11l-1.5 1t-1.5 2v1q0 1 1.5 2t3 1h3h2.5q5 0 9.5 -1t9.5 -1q7 0 7 7q0 5 -0.5 9.5t-0.5 9.5q0 2 0.5 5t0.5 5q0 1 -0.5 2.5t-1.5 3l-2 3t-2 1.5h-30z
M99 103l0.5 1t1.5 1v0h1v0v0q1 0 2 -1l1 -1q12 -10 16.5 -21t4.5 -26q0 -2 -0.5 -6.5t-2 -8.5t-4 -6.5t-6.5 -2.5q-2 0 -2 1.5v2.5q0 3 1 6t2 6.5t2 6.5t1 6q0 8 -3.5 17t-8.5 15q-1 2 -2 3t-2 1.5t-1.5 2t-0.5 3.5zM49 97q0 2 1.5 2.5t3.5 0.5q4 0 7 -4.5t5 -10.5
t2.5 -11.5t0.5 -8.5q0 -2 -0.5 -7t-1.5 -9.5t-3.5 -8t-7.5 -3.5h-3t-2 2q0 4 1.5 7t3 6.5t2.5 7t1 7.5t-1.5 7.5t-3.5 7.5t-3.5 7.5t-1.5 7.5z" />
</svg>
