<?xml version="1.0" standalone="no"?>
<!DOCTYPE svg PUBLIC "-//W3C//DTD SVG 1.1//EN" "http://www.w3.org/Graphics/SVG/1.1/DTD/svg11.dtd" >
<svg xmlns="http://www.w3.org/2000/svg" xmlns:xlink="http://www.w3.org/1999/xlink" version="1.1" viewBox="-10 0 266 256">
   <path fill="currentColor"
d="M142 247l1 1t2 1v0q2 0 3.5 -1t1.5 -3q0 -6 -0.5 -11.5t-0.5 -10.5v-11.5t1 -8t3.5 -7.5t7.5 -8q0 -1 2 -2l2 -1q5 -1 9 -1.5t7.5 -2t6.5 -3.5t5 -6q2 -10 2 -17.5v-17.5v-18q-1 0 -1.5 -1t-1.5 -2h-0.5h-0.5h-0.5h-0.5l-2.5 2.5t-1.5 2.5v42q0 3 -1.5 5.5t-4 4.5t-5.5 3
t-6 1q-1 0 -1.5 -0.5l-0.5 -0.5l-2 -10v-52q0 -4 -0.5 -5t-2.5 -1q-6 0 -6 6q0 7 1 13t1 13v2v4.5v3.5v3q-1 0 -2 0.5l-1 0.5q-6 0 -9 -2.5t-4 -6.5t-1.5 -9t-0.5 -9t-0.5 -6.5t-3.5 -2.5v0q-1 0 -2 0.5l-1 0.5v6q0 2 -0.5 7t0.5 11t3 10.5t6 5.5l16 3v19q-4 3 -8.5 7.5
t-6.5 9.5v4.5t-0.5 5.5t-0.5 5.5v3.5q-1 1 -1.5 4t-0.5 4v0v1q0 1 0.5 4t0.5 6t0.5 6t0.5 5zM103 232q1 2 2 2.5t3 0.5q4 0 4 -1.5v-4.5q0 -4 -1 -7.5t-3 -7t-4.5 -7.5t-3.5 -7q-6 -15 -7.5 -31t-1.5 -31v-5v-6v-5v-3t1.5 -5.5t2.5 -10t2.5 -10.5t1.5 -6v-4.5t0.5 -5.5
t1 -5.5t1.5 -4.5v-34q0 -3 -1 -7t-3 -7.5t-5 -5.5t-7 -2q-2 0 -3 0.5t-1 2.5t1 3.5t2 2t2.5 1.5t2.5 2q2 2 3 6l2 8t1 7.5v6.5q0 14 -4 28t-6 27q0 7 -2 13.5t-2 12.5q0 11 2.5 21.5t1.5 21.5q1 8 3 15t4.5 14t5 13.5t4.5 14.5zM59 143v15t1 13.5t3 12.5t5 13q1 1 2 5.5t3 9
t4.5 8t4.5 3.5t3 -1.5t1 -3.5q0 -4 -2 -10t-4.5 -12.5l-5 -13t-3.5 -10.5q0 -1 -1 -2.5l-1 -1.5v-27q-1 0 -1 -0.5v-2.5q0 -7 2 -15t2 -16q0 -2 -0.5 -4t-3.5 -2q-4 0 -6 6t-2.5 13.5t-0.5 13.5v9zM103 136v6v7v5.5v2.5q0 4 1.5 12.5t4.5 17.5t7 16.5t10 7.5q0 -5 -1.5 -8.5
l-3 -7t-3.5 -7t-3 -7.5q-1 -6 -1.5 -13.5t-3.5 -13.5v-30q2 -3 2 -5v-5v-5l-3 -1h-1q-3 0 -4 2t-1 5v4v7v6v4zM139 87q1 4 3 6.5t4.5 4t6 2t8.5 0.5q7 1 14 3t14 2l2 -0.5t3.5 -0.5t3 -1t1.5 -2q0 -2 -2 -3l-4 -2h-20q-7 0 -7 -7h0.5h0.5v-2.5t0.5 -3.5t0.5 -3.5v-2.5
q3 -1 7.5 -1.5t9 -1.5t7.5 -3.5t3 -8.5v-28q0 -2 -2 -4.5t-4 -3.5q-1 -1 -2 0t-1.5 2t-0.5 2v2v29q0 2 -1.5 3.5t-4 2.5t-4.5 1.5t-3 0.5h-1q-1 0 -2 -0.5l-1 -0.5v-36q1 -3 1.5 -5.5t0.5 -5.5t-1 -5t-4 -2q-6 0 -6 6v70l-1 1.5t-2 1.5v0q-2 0 -4 -1.5t-3.5 -3.5t-2.5 -4
t-1 -4v-43q0 -2 -1.5 -3.5t-3.5 -1.5q-3 0 -3.5 2.5t-0.5 4.5v2q0 2 0.5 8.5t1 14t0.5 14.5t1 9zM118 57q0 4 -1.5 9t-4 9.5t-4 8.5t-1.5 6q6 0 9.5 -3.5t5.5 -9.5t2.5 -12t0.5 -11q0 -1 -0.5 -6t-1.5 -10t-3 -8.5t-4 -3.5q-3 0 -3 2v4q0 6 2.5 12.5t2.5 12.5zM62 82
q0 2 1.5 2.5t3.5 0.5q5 0 7.5 -4t4 -9.5t1.5 -11v-8.5q0 -4 -1 -9t-3.5 -8.5t-6 -5.5t-9.5 -2q0 4 1.5 7t4 5.5t4 6t1.5 9.5q0 8 -2.5 14t-6.5 12v1z" />
</svg>
