<?xml version="1.0" standalone="no"?>
<!DOCTYPE svg PUBLIC "-//W3C//DTD SVG 1.1//EN" "http://www.w3.org/Graphics/SVG/1.1/DTD/svg11.dtd" >
<svg xmlns="http://www.w3.org/2000/svg" xmlns:xlink="http://www.w3.org/1999/xlink" version="1.1" viewBox="-10 0 266 256">
   <path fill="currentColor"
d="M161 179q2 0 4 5t4 13t4 17t4.5 16.5t6 13t7.5 5.5q3 0 4 -2t1 -5q0 -2 -1.5 -5.5t-3.5 -7l-4 -7t-3 -4.5q-2 -6 -4.5 -12.5t-5 -13.5t-4 -14t-1.5 -13q0 -1 0.5 -2.5t0.5 -2.5l13 -13v-1v0v-1l-2 -2t-2 -1l-1 0.5l-2 1l-2 1l-1 0.5h-0.5h-0.5q-3 0 -4 -2.5t-1 -4.5v-1
q1 -2 3 -3t4 -1h1q2 0 6 0.5t6.5 1t3.5 0.5l3 3q0 1 0.5 3t1.5 5.5t1.5 7t1.5 5.5v3v4t0.5 4t2.5 2q4 0 5 -3t1 -6q0 -16 -3.5 -23t-8.5 -9.5t-10.5 -2t-10.5 -0.5t-8.5 -5.5t-3.5 -15.5v-3q0 -3 1 -3l1 -2l27 -3q2 0 3.5 -2t2 -4t1 -4.5t0.5 -4.5t-0.5 -4.5t-1.5 -5
t-2.5 -4t-3.5 -1.5h-26l-0.5 -2l-1 -4t-0.5 -4v-2v-3t1 -3l1 -0.5t2 -0.5t4 -0.5t6.5 -1t6.5 -1t3 -1.5q4 0 6 -3t3 -6.5t1 -7v-6.5q0 -4 -1 -6.5t-5 -2.5h-2t-2 2v11t-1.5 8.5t-5 5.5t-9.5 2h-2h-2q-2 -2 -2 -5t-0.5 -5.5t-1.5 -5t-4 -2.5h-3t-4.5 -0.5t-5.5 -0.5h-2h-5h-6
t-6 0.5t-5 1.5v2v2.5t2 1.5h29q1 0 1 1t1 3l1 2v29l-2 2h-3.5t-5.5 0.5t-6 0.5h-4q-3 1 -5.5 1.5t-4.5 3.5q2 2 4 2h3q5 0 9.5 -1t8.5 -1q3 0 4 1.5t1.5 4t0.5 4.5v4v3.5v3.5q-1 2 -4 3t-6.5 1.5t-7.5 1.5t-7 3.5t-5 7t-2 11.5v5q0 2 0.5 3.5t2.5 2.5t5 1h4.5h7.5h8h5
q2 6 3 13t1 13v1q-1 1 -3 3.5t-2 3.5q-1 2 -3.5 6.5t-5 9.5t-4.5 10t-3 7q1 3 -0.5 7.5t-3.5 9.5t-4 9.5t-2 8.5q0 2 1 2.5t3 0.5q3 0 5 -4.5t4 -11t3.5 -14t3.5 -14t4.5 -11t6.5 -4.5zM74 176q1 2 2.5 8l3.5 14t4.5 16.5t5 15.5t5.5 12t5 5q3 0 4 -1t1 -4q0 -5 -2.5 -11.5
t-5.5 -13l-6 -13t-4 -11.5q0 -3 -0.5 -6t-0.5 -6t-1 -6.5t-3 -5.5v-5v-5q0 -19 2 -37t5 -36q2 -2 2.5 -7t0.5 -10v-10v-8v-3v-6v-4.5v-3.5q-2 -3 -3.5 -7.5t-4 -8t-6 -6t-7.5 -2.5h-2t-1 2t2.5 6t6 8t6.5 8.5t3 8.5v26q-4 7 -6 18.5t-3.5 23.5t-2 23.5t-0.5 19.5v4v6.5v6.5
v5zM50 155v10q0 7 0.5 15t2 16.5t3.5 15t5.5 11t8.5 4.5q0 -10 -3 -18.5t-5 -17.5q-2 -8 -2 -17v-17q0 -13 1.5 -26t1.5 -26q0 -3 -0.5 -4.5t-3.5 -1.5q-2 0 -3.5 2t-2 4.5l-1 5t-0.5 4.5q0 1 -0.5 4t-0.5 6.5t-0.5 6t-0.5 3.5v20zM98 136v1q0 3 1 8.5t1.5 11.5t0.5 10v5
t1 4.5t2 8t3 9.5t3.5 9t3 7t3.5 3t3.5 -1.5t1.5 -3.5t-1 -5.5t-2.5 -6.5t-2.5 -5.5t-2 -4.5q-2 -7 -3.5 -11.5t-2.5 -9t-1.5 -9t-0.5 -11.5v-46l-0.5 -0.5t-1.5 -0.5t-2.5 1.5t-1.5 3.5t-0.5 6.5t-0.5 9.5t-0.5 9.5t-0.5 6.5v1zM132 121q0 -4 1.5 -7t4.5 -5.5t6 -4t6 -1.5
q1 0 2.5 2t2.5 5t1.5 6t0.5 4t-0.5 3.5l-0.5 2.5h-21q-2 0 -2.5 -2t-0.5 -3zM164 91q-1 -1 -1 -3v-3v-3q0 -3 0.5 -5t1.5 -3.5t3 -1.5h19q1 0 1.5 1.5t0.5 2.5v2v3q0 5 -1.5 7.5t-4.5 3.5t-7 1h-8q-1 0 -2 -0.5t-2 -1.5zM60 61q0 6 -2 11.5t-2 12.5q5 0 8 -3t4.5 -8t2 -10
t0.5 -9q0 -3 -1 -6.5t-2.5 -6.5t-4 -5t-5.5 -2h-2.5t-1.5 2q2 3 3 6t2 5.5t1 5.5v7zM110 53q0 4 -1.5 7t-2.5 6.5t-2.5 6.5t-1.5 7q5 0 8 -3t4.5 -7.5t2.5 -9.5t1 -9t-1 -7t-2.5 -6t-4 -5t-6.5 -2q0 3 1 6t2 5.5l2 5t1 5.5z" />
</svg>
