<?xml version="1.0" standalone="no"?>
<!DOCTYPE svg PUBLIC "-//W3C//DTD SVG 1.1//EN" "http://www.w3.org/Graphics/SVG/1.1/DTD/svg11.dtd" >
<svg xmlns="http://www.w3.org/2000/svg" xmlns:xlink="http://www.w3.org/1999/xlink" version="1.1" viewBox="-10 0 266 256">
   <path fill="currentColor"
d="M162 210q0 7 3.5 14.5t9 13t12.5 9.5t13 4q3 0 4.5 -0.5t1.5 -3.5t-2.5 -5.5t-5.5 -4t-6.5 -3t-5.5 -3.5l-3.5 -3.5t-5 -5.5t-5 -5.5l-3.5 -3.5q-1 0 -1 -1q0 -7 3.5 -11.5t7.5 -9t7.5 -10t3.5 -12.5v-4v-3q-3 -3 -7.5 -5t-9.5 -4t-9 -3.5t-4 -2.5q0 -7 3 -9t7 -3.5
t8 -2.5t7 -6q2 -4 2.5 -8.5t0.5 -9t0.5 -9.5t1.5 -9q0 -1 0.5 -2.5t0.5 -2.5v-3t-0.5 -4t-1.5 -3.5t-2 -1.5q-4 0 -5 3t-1 6.5t-1 6t-4 2.5h-3h-6t-10.5 -0.5t-10.5 -0.5h-6q-2 -3 -2.5 -7.5t-0.5 -7.5q-4 0 -6 3t-2.5 7t-0.5 8.5v7.5v0q0 1 0.5 3t0.5 4t0.5 4t0.5 3
q1 10 4.5 13.5t7.5 4t7.5 0.5t3.5 3v11q0 1 -1.5 2t-2.5 2l-2 1l-4 2l-4 2t-3 1q-4 3 -6.5 8.5t-4.5 11t-3 11.5t-1 10v6t0.5 8.5t2.5 7.5t6 3q5 0 5 -5q0 -6 -2 -12t-2 -12q0 -4 2 -10t5 -12t7.5 -9.5t10.5 -3.5h4.5t7 0.5t6.5 2t4 3.5q0 1 0.5 3.5l0.5 2.5q0 6 -2.5 10.5
t-6 9t-6 9t-2.5 10.5zM67 161q0 2 1 9t3 16.5t5 20.5t6 20t6 15t5 6t4 -1t2 -4v0v0q-6 -10 -10 -21t-7 -22.5t-4.5 -23.5t-1.5 -23q0 -13 2 -25.5l4 -25t4 -25.5t2 -26v-4v-6v-6v-4q-2 -3 -4 -6.5t-4.5 -6.5t-6 -5t-7.5 -2q-3 0 -3 3v1.5v0.5q10 9 13.5 18t3.5 21
q0 8 -1 15.5t-2.5 15.5t-3 15.5t-1.5 14.5q-1 2 -1.5 8.5t-1.5 14t-1.5 14t-0.5 7.5v1zM42 157q0 2 0.5 7.5t1 12.5t1.5 15t3 14.5t5 10.5t6 4t3.5 -1t0.5 -3q0 -4 -1 -7.5t-2.5 -7t-2.5 -7t-2 -6.5q-1 -12 -1 -20.5v-18.5v-14q3 -6 3 -13.5v-14.5q0 -1 -0.5 -3t-1.5 -2
q-4 0 -6 3.5t-3.5 8.5t-2 11.5t-1 12.5t-0.5 11v7zM89 132v8t0.5 14.5t1.5 18t2.5 17.5t4 13t6.5 5q3 0 3 -3v-1.5v-0.5l-1 -2.5t-1.5 -5t-1.5 -4.5l-1 -2q-1 -4 -1.5 -9.5t-1.5 -11t-1.5 -10.5t-0.5 -9q0 -12 2 -22t2 -21q0 -2 -1.5 -2.5t-2.5 -0.5q-4 0 -5.5 3.5t-2 8.5
t-0.5 10v7zM138 110v-3.5v-3.5t2 -2t3 -1h36q0 5 -1.5 10.5t-0.5 10.5q-5 4 -8 4.5t-8 0.5q-4 0 -8.5 -0.5t-7.5 -2.5t-5 -5t-2 -8zM52 86v1v2t0.5 1.5t1.5 0.5q4 0 6.5 -4t3.5 -9t1 -10.5v-7.5v-10t-1.5 -9t-4.5 -7t-9 -3q0 5 1 9l2 8t1.5 8.5t0.5 8.5q0 6 -1.5 11t-1.5 10
zM97 83q0 2 1 3t3 1q4 0 6.5 -5.5t3.5 -12.5t1.5 -13t0.5 -8q0 -1 -0.5 -4t-1.5 -6.5t-2.5 -6t-3.5 -2.5q-3 0 -3 2v3q0 6 1 10.5t1 9.5q0 4 -1 7.5t-2.5 7t-2.5 7t-1 7.5zM120 62q0 2 1 2.5t3 0.5q3 0 8 -1.5t10 -4t8.5 -6t3.5 -8.5v-24l-1 -1.5t-2 -1.5h-0.5h-0.5h-0.5
h-0.5q-1 0 -2 0.5t-1 1.5l-5 29q0 3 -3.5 4.5t-7.5 2.5t-7 2t-3 4zM170 39q0 8 3 12.5t8 7.5t11 4t12 1h4h4q2 -1 2 -4q0 -2 -0.5 -3t-2.5 -2q-8 0 -15 -1t-14 -3v-10q0 -6 0.5 -10.5t0.5 -9.5q0 -3 -1 -5.5t-4 -2.5t-4.5 2.5t-1.5 5.5v3v5v4v3q-1 0 -1.5 1t-0.5 2z" />
</svg>
