<?xml version="1.0" standalone="no"?>
<!DOCTYPE svg PUBLIC "-//W3C//DTD SVG 1.1//EN" "http://www.w3.org/Graphics/SVG/1.1/DTD/svg11.dtd" >
<svg xmlns="http://www.w3.org/2000/svg" xmlns:xlink="http://www.w3.org/1999/xlink" version="1.1" viewBox="-10 0 266 256">
   <path fill="currentColor"
d="M175 163q1 3 1.5 10.5t1 17.5t1 20.5t2 19t3 14t3.5 5.5t3.5 -1.5t2.5 -3t1.5 -4t0.5 -3.5q0 -2 -0.5 -5l-1 -6t-1.5 -6t-1 -4q-1 -22 -3 -45t-2 -45q0 -1 0.5 -3t0.5 -3.5t1 -3t2 -1.5h19q1 0 2 -2t2 -3v-1v0l-2 -2l-2 -2h-5q-19 0 -37.5 1.5t-36.5 2.5h-3.5t-4.5 0.5
t-4.5 0.5h-2.5q-2 1 -2 2v2t0.5 2t2.5 1h28v51q-1 4 -2 10t-1.5 13t-0.5 14t-1 11q0 5 -2.5 11.5t-2.5 11.5q0 4 2 5.5t5 1.5t4.5 -1t1.5 -4q0 -17 2 -32.5t3 -32.5q1 -3 1 -11t0.5 -17t1 -17t0.5 -11q0 -2 2 -3t4.5 -2t5 -1h3.5l1.5 0.5t2.5 0.5q0 1 0.5 1.5l0.5 0.5v45z
M67 177q1 3 2.5 8.5t3.5 13t4.5 16t5.5 15t6 11t5 4.5q3 0 4 -2.5t1 -4.5t-1.5 -5l-3 -6l-3 -6t-2.5 -6q-7 -14 -11 -31t-4 -33q0 -10 2.5 -20t5.5 -20.5t5.5 -20.5t2.5 -21q0 -3 -0.5 -7.5t-1.5 -8.5t-1.5 -7.5t-1.5 -6.5q-2 -3 -4 -8t-5 -9t-6.5 -7t-7.5 -3q-2 0 -3 0.5
t-1 3.5t1.5 5.5t3.5 4.5t4 4.5t4 4.5q5 11 7.5 22t2.5 22q0 8 -2.5 16.5t-4.5 15.5q-1 2 -2 4.5l-2 5l-2 5t-1 4.5v47zM45 191q0 1 1 5.5t2 10t2.5 12t3.5 11.5t4 8.5t5 3.5q2 0 3 -1.5t3 -3.5v-0.5v-0.5q0 -3 -1.5 -6.5t-3.5 -7.5l-3.5 -7t-2.5 -6q-3 -10 -4 -20.5
t-1 -20.5q0 -11 1.5 -21t1.5 -20q0 -2 -0.5 -5.5t-4.5 -3.5q-2 0 -3 1.5t-2 3.5t-1 4v3v61zM90 150q0 3 0.5 10t2 15.5t3.5 17.5t5 16.5t6.5 12.5t6.5 5q4 0 4 -2v-5v-5q-1 -1 -2.5 -4l-3 -6t-3.5 -5.5t-2 -4.5q-3 -5 -4 -10.5t-3 -10.5v-3.5v-5.5v-5v-3q0 -9 1 -18t1 -18
q-5 0 -6.5 2t-2 5t-0.5 6t-3 6v5v5zM95 102v4t3 2v0h1l2 -2t2 -3q5 -11 7 -20.5t2 -20.5q0 -3 -0.5 -9t-2 -11.5t-4.5 -10t-7 -4.5q-2 0 -2.5 1.5t-0.5 2.5q0 5 1 9t2 8.5t1.5 8.5t0.5 9v15t-3 16q-2 0 -2 2v3zM46 100q0 4 4 4t6.5 -4t5 -9t3.5 -10t1 -9q0 -3 -0.5 -9.5
t-2.5 -13t-5.5 -11t-8.5 -4.5q-2 0 -2.5 2t-0.5 4q0 3 1.5 6.5l3 7t2.5 7t1 6.5v3v4t-0.5 4.5t-0.5 4.5v2q-1 2 -2 3.5t-2 3.5l-2 4t-1 4zM159 31q0 2 -2.5 3t-6.5 2t-8.5 1.5t-8 2t-6 3.5t-2.5 6v33q0 4 2 6.5t4.5 4t6 2.5t6.5 2h4h5h5h4q14 0 22.5 -0.5t13.5 -4t7 -11.5
t3 -24v-3q0 -9 -3 -12t-7.5 -4t-9.5 -0.5t-9.5 -1t-7 -6t-1.5 -14.5q-1 -3 -3 -3.5t-4 -0.5q-4 0 -5 1.5t-1 6.5v1l0.5 1.5t0.5 3t0.5 3t0.5 2.5zM134 80v-2q1 -1 2 -3.5l1 -2.5h20l0.5 1t0.5 3t0.5 4t0.5 3v1q0 4 -2.5 5t-5.5 1t-5.5 -0.5t-5 -1.5t-4.5 -2.5t-2 -5.5z
M170 86v-1q0 -1 0.5 -3t0.5 -4t0.5 -3.5t0.5 -2.5q5 -1 8.5 -1.5t8.5 -0.5q3 0 3.5 1.5t0.5 4.5q0 8 -4.5 10.5t-10.5 2.5q-1 0 -3 -0.5t-3 -0.5l-1 -0.5l-1 -0.5v-1zM134 57q0 -3 2 -5.5t5 -4t6.5 -2.5t5.5 -1q4 0 5 3.5t1 7.5v1t-0.5 2.5t-0.5 2.5t-1 1h-21q-2 0 -2 -2.5
v-2.5zM170 55q0 -8 2.5 -9.5t10.5 -1.5h3h4q3 1 4 4.5t1 6.5q0 4 -3.5 5.5t-6.5 1.5h-5q-3 0 -5 -0.5t-3.5 -2t-1.5 -4.5z" />
</svg>
