<?xml version="1.0" standalone="no"?>
<!DOCTYPE svg PUBLIC "-//W3C//DTD SVG 1.1//EN" "http://www.w3.org/Graphics/SVG/1.1/DTD/svg11.dtd" >
<svg xmlns="http://www.w3.org/2000/svg" xmlns:xlink="http://www.w3.org/1999/xlink" version="1.1" viewBox="-10 0 266 256">
   <path fill="currentColor"
d="M77 247q1 3 2.5 3.5t3.5 0.5q3 0 3.5 -1t0.5 -4q0 -6 -2 -11t-4.5 -10.5t-5 -10t-3.5 -10.5t-2 -10.5t-1 -8.5v-9v-10q0 -14 2 -27.5t5 -27t5.5 -27t2.5 -27.5q0 -10 -2 -20t-3 -20q-3 -4 -8 -4q-3 0 -3.5 2.5t-0.5 4.5q0 5 1.5 9.5t3 9.5l3 10t1.5 11q0 15 -4 29.5
t-6 28.5q-3 15 -4.5 31.5t-1.5 32.5q0 7 1.5 15.5t4 17.5t5.5 17.5t6 14.5zM100 248q0 2 1.5 2.5t2.5 0.5q5 0 7.5 -4.5t4 -10.5t2 -12t1.5 -8q0 -1 0.5 -7t1.5 -13.5t1.5 -14.5t1 -11.5t3 -5.5t7.5 -1q2 0 4.5 0.5t3.5 4.5v3v5v5v3q0 16 -2.5 31t-2.5 31q0 2 1 3.5t3 1.5
q4 0 6 -4q1 -5 1 -11.5v-12.5t1 -12t3 -12v-36q0 -2 -1.5 -3t-3.5 -2t-4 -1.5t-3 -0.5h-15l-0.5 -0.5l-1.5 -1.5v0v-1q1 -3 1.5 -8t1 -9.5t1 -7.5l0.5 -3l3 -2q14 0 27.5 -2t27.5 -2q1 0 3 0.5l2 0.5l1 3v28l-3 5q-6 -1 -10 0.5t-6.5 4.5t-3.5 7t-1 9q0 17 1.5 33.5
t4.5 33.5q0 3 1 3.5t2 0.5q2 0 3 -0.5l3 -1.5v-4v-4q0 -5 -1 -11t-5 -11v-45q0 -2 1.5 -3.5t3.5 -2l4 -1t3 -0.5q3 0 4.5 5.5t2.5 14.5t2 19t2.5 19t3.5 15t5 7q1 0 2.5 0.5t3 0.5h3h2.5q0 -4 -1.5 -8t-3.5 -8t-3.5 -8t-2.5 -8q-5 -27 -7.5 -54t-2.5 -53q0 -13 0.5 -25
t1.5 -24q0 -8 1.5 -15.5t1.5 -14.5q0 -4 -1 -7t-6 -3h-1.5t-1.5 2v1.5v3.5v3.5v2.5q0 2 -0.5 8.5t-1 13.5t-1 13t-0.5 8l-2 2l-2 2v0q-4 0 -7 -2.5t-4.5 -5.5t-2.5 -7t-1 -7q0 -9 1 -18.5t1 -18.5v-3.5t-3 -2.5q-3 1 -4 3.5t-1.5 6l-1 7t-0.5 5.5t0.5 7.5t0.5 12.5t1 13t2 8
q1 3 5 5t8 3.5t7 3.5t3 6v2q0 1 -0.5 3t-0.5 4.5t-0.5 4.5t-0.5 3q-4 1 -11.5 2.5t-15.5 2.5t-15.5 1.5t-11.5 0.5q-5 0 -7 -4.5t-2 -9.5t2 -7.5t4.5 -4.5t5.5 -4t6 -5t5 -8t2 -12v-3v-6.5v-7.5v-6v-4v-7v-7v-4q-2 -4 -5 -4t-3 2.5v4.5q0 7 1 14t1 14q0 3 -1 9t-2.5 12.5
t-4 11t-6.5 4.5l-1.5 -0.5t-1.5 -1.5q-1 -1 -1.5 -5t-0.5 -5v-9v-14v-14v-9q-1 -4 -4 -5t-6 -1q0 11 2 21.5t2 22.5v14.5t-0.5 22t-0.5 22v14.5v5q0 26 -4 53t-13 51l-0.5 0.5zM44 234q1 2 3 2h3h4q2 -2 2 -4v-4q0 -5 -2 -9.5t-3 -9.5q-3 -12 -3.5 -25t-0.5 -25t2.5 -22
t6.5 -21v-0.5v-1.5q0 -5 -5 -5q-3 0 -5 3t-3 6.5t-1.5 7.5t-0.5 7q0 1 -0.5 3.5l-1 5t-0.5 5v3.5v23v25q3 9 4 18t1 18zM90 224q1 2 2 2h3t4 -1t2 -4v-2q-1 0 -1.5 -1.5t-1.5 -3t-1.5 -3t-1.5 -2.5q0 -1 -1 -5.5t-1.5 -9t-1.5 -9t-1 -6.5v-1v-4.5v-4.5v-4q0 -14 2 -25t7 -24
v0q0 -3 -2 -4.5t-4 -1.5q-3 0 -4.5 5t-2.5 11t-1.5 12t-0.5 8v2.5v3.5v5v4q0 17 2 32t4 31zM46 89v3t3 1q2 0 4.5 -2t4 -5t2.5 -6t1 -5v-16v-9t-1 -9t-3.5 -7t-7.5 -3q0 8 1 16t1 16t-2.5 14.5t-2.5 11.5zM90 82q0 2 1 2.5t3 0.5q4 0 6.5 -3.5t4 -9t2 -10.5t0.5 -8
q0 -2 0.5 -6t-0.5 -8t-2.5 -7t-4.5 -3t-4 1t-1 3q0 7 3 13t3 12q0 7 -3.5 12t-7.5 11v0z" />
</svg>
