<?xml version="1.0" standalone="no"?>
<!DOCTYPE svg PUBLIC "-//W3C//DTD SVG 1.1//EN" "http://www.w3.org/Graphics/SVG/1.1/DTD/svg11.dtd" >
<svg xmlns="http://www.w3.org/2000/svg" xmlns:xlink="http://www.w3.org/1999/xlink" version="1.1" viewBox="-10 0 266 256">
   <path fill="currentColor"
d="M170 178q1 2 1.5 7t1.5 11t2 12.5t2 12.5t1.5 10.5t1.5 7.5v2t1 4t2 3t2 1h1l2 -1v-6q0 -10 -2.5 -19t-4.5 -19q-1 -11 -2 -22.5t-4 -22.5v-33q0 -1 2.5 -2t3.5 -1q2 0 3 1.5l2 3t1.5 3.5t0.5 3q0 4 0.5 10l1 12t0.5 10.5v5.5q1 1 2 6.5t2 13.5t3 16t3.5 15t3.5 12t4 5
q1 0 2.5 -0.5l1.5 -0.5q0 -1 0.5 -3l0.5 -2q0 -1 -0.5 -3l-0.5 -2q0 -1 -1 -4l-2 -6t-1.5 -6t-1.5 -4q-5 -18 -8 -37t-3 -39v-11q8 -4 8 -12q-6 0 -12 2t-11.5 5t-9 8t-3.5 11q0 5 0.5 10.5t1.5 10.5t1.5 10.5t-0.5 10.5zM120 137q0 12 1.5 25t3.5 26.5t4.5 26.5t4.5 25
q1 1 1.5 4t2.5 3q4 0 4 -3v-5v-3v-2q0 -1 -0.5 -2.5t-1 -4t-1 -4l-0.5 -1.5q-4 -22 -7.5 -44.5t-3.5 -44.5q0 -5 3.5 -8.5t8.5 -3.5q1 0 2.5 0.5t1.5 3.5q2 27 4.5 54.5t7.5 54.5q1 2 1.5 4t3.5 2q2 0 2.5 -1t0.5 -3q0 -9 -2.5 -18.5t-3.5 -17.5q-3 -16 -3.5 -31t-2.5 -30
q-1 -1 -1 -3t-0.5 -4t-0.5 -3.5v-2.5q0 -4 1.5 -6t2.5 -3t2.5 -1.5t1.5 -3.5q0 -2 -1.5 -2.5t-4.5 -0.5q-7 0 -12 2t-12 6q-1 1 -4 3.5t-4 5.5v5v6zM68 150q0 4 1 12.5t2 18t3.5 20t5.5 19t7 15.5t10 10v0h1t1.5 -1.5t0.5 -2.5v-2q-5 -9 -8 -17t-8 -16q-2 -13 -4 -25t-4 -25
v-3q0 -11 3 -22l6 -22l6 -22t3 -23q0 -2 -0.5 -7t-1.5 -11t-2 -12.5t-3.5 -11t-5.5 -8t-8 -3.5q-2 0 -3.5 1t-1.5 3l2.5 5t5.5 11.5t6 12t4 6.5v12q0 12 -3 22.5t-6 21.5t-6 21.5t-3 22.5zM47 189q1 2 1.5 10t1.5 16.5t3.5 15t7.5 6.5q2 0 3.5 -0.5t1.5 -3.5t-1.5 -6.5
t-2.5 -7t-2.5 -7t-1.5 -6.5q-2 -12 -2 -24v-23v-31q0 -1 0.5 -2.5t1 -3.5l1 -4l0.5 -2v-1v-1q0 -2 -1 -3.5t-3 -1.5h-2t-2 2q-2 8 -3 14.5t-1.5 13t-0.5 13.5v14v5q0 3 0.5 6.5t0.5 6.5v5zM95 149q0 20 3.5 39.5t13.5 37.5l1.5 1.5t1.5 0.5q3 0 4 -1.5t1 -3.5
q-8 -15 -13.5 -32.5t-5.5 -34.5q0 -9 2 -18.5t2 -18.5v-2q0 -1 -0.5 -3t-1 -3t-2.5 -1t-3.5 5.5t-2 12t-0.5 12.5v9zM105 91q0 2 1.5 2.5t2.5 0.5q3 0 5 -3.5t3 -8t1.5 -9t0.5 -6.5q0 -8 -1 -14t-3 -15q-1 -4 -3 -7t-7 -3q-1 0 -2.5 0.5t-1.5 2.5v0v0q5 8 7.5 15t2.5 16
q0 4 -0.5 7.5t-1.5 8.5q0 2 -2.5 6t-1.5 7zM133 52q0 6 -0.5 12.5t1 12.5t4.5 10.5t10 6.5h4h4.5h5.5h3q10 0 17 -0.5t11.5 -3t6.5 -8.5t2 -17q0 -7 -0.5 -14t-2.5 -12.5t-6.5 -9t-13.5 -3.5h-1q-1 0 -5 0.5l-8 1t-8 0.5h-5q-4 2 -6.5 3.5t-5 2.5t-4.5 3.5t-3 6.5v8zM53 89
q0 2 1.5 2.5t3.5 0.5q3 0 5 -2.5t3.5 -6.5t2 -8.5t0.5 -6.5q0 -4 -0.5 -10t-2 -11.5t-4.5 -9.5t-10 -4q0 9 3 16.5t3 16.5q0 6 -2.5 11.5t-2.5 11.5zM141 68q0 -1 5.5 -2t12.5 -2t14 -1.5t9 -0.5q5 0 8.5 2t3.5 7q0 6 -4 9t-10 5t-12 2h-10q-5 0 -8 -0.5t-4.5 -3t-2.5 -6
t-2 -8.5v-1zM141 51q0 -6 3.5 -9.5t8.5 -5t11 -2t10 -0.5h2h3.5h2.5h3q2 1 3 2t1.5 3l1 4t0.5 4v3t-1 3q-6 1 -10.5 1.5t-8.5 1t-8 0.5h-9h-10q-2 -1 -2.5 -2t-0.5 -3z" />
</svg>
