<?xml version="1.0" standalone="no"?>
<!DOCTYPE svg PUBLIC "-//W3C//DTD SVG 1.1//EN" "http://www.w3.org/Graphics/SVG/1.1/DTD/svg11.dtd" >
<svg xmlns="http://www.w3.org/2000/svg" xmlns:xlink="http://www.w3.org/1999/xlink" version="1.1" viewBox="-10 0 266 256">
   <path fill="currentColor"
d="M157 192q1 9 4.5 15.5t8 12t10.5 10.5l12 10q3 2 4 3.5t2 2.5t2.5 1.5t4.5 0.5q0 -6 -3 -10t-8 -8.5t-10.5 -8.5t-10 -9.5t-7.5 -12.5t-3 -17q0 -15 1.5 -30t1.5 -31v-16.5t-2 -16.5l-1 -1t-2 -1v-1q-2 0 -2.5 1.5t-0.5 3v3v1.5v4v3l1 2.5l1 2.5q0 1 -1 2.5t-1 2.5v39
q-1 3 -1.5 6.5t-0.5 6.5v6.5v5.5v3v6q0 2 0.5 4.5t0.5 3.5zM70 168q0 2 0.5 8t1.5 13.5t3 16t4 15t5 11t7 4.5q2 0 2 -2v-3v-3t-2 -3q-2 -3 -3 -6.5l-2 -7t-1.5 -6.5t-2.5 -7q0 -3 -0.5 -9.5t-1.5 -13.5t-1.5 -14t-0.5 -10v-1.5v-1.5q0 -11 2.5 -21t5.5 -20l6 -20t3 -20
q0 -3 -0.5 -8t-1 -11t-2 -12t-3.5 -11t-5 -8.5t-7 -3.5q-1 0 -2 0.5t-1 2.5v0q2 4 4.5 9.5l5 11t4 11t1.5 9.5v1v4v6t-0.5 6t-0.5 4q-8 23 -12.5 44.5t-4.5 45.5zM51 164q0 16 1.5 29t6.5 28q1 2 1.5 3.5t1.5 3t2.5 2t4.5 0.5q0 -6 -1.5 -12l-3 -12t-3.5 -12t-2 -12v-20
q0 -13 2 -26t2 -26q-5 0 -7.5 4.5t-3.5 10t-1 11v8.5v20zM107 224l3 3t3 1t3 -1t1 -2t-0.5 -1.5t-0.5 -1.5q-4 -8 -7 -16t-4.5 -15.5t-2.5 -15.5t-1 -17v-19q3 -5 3 -11.5v-12.5q-3 0 -4 3.5t-2 8t-1.5 9.5t-1.5 8v36q4 10 6.5 22t5.5 22zM116 147q0 13 5.5 19.5t20.5 6.5
q1 0 3 -0.5l2 -0.5q1 0 1.5 -1l0.5 -1q0 -3 -4 -3.5t-9 -2t-9.5 -4.5t-4.5 -11q0 -2 4 -3.5t8 -2t8.5 -0.5t6.5 -1l0.5 -1t0.5 -2l-0.5 -0.5l-0.5 -0.5h-25v-13l0.5 -1t1.5 -1q0 -1 2 -2l2 -1q1 0 3.5 -0.5l5 -1l5 -1t3.5 -0.5t2 -1t1 -2h0.5h0.5q0 -3 -2 -3h-3q-10 0 -16 2
t-9 6.5t-4 11.5t-1 16zM170 169q0 1 2 2t3 1t4.5 0.5t4.5 0.5q7 0 12 -2.5t7.5 -7t3.5 -11t1 -13.5v-5v-5q-1 0 -1.5 -3t-3 -6t-7 -6t-13.5 -3q-2 0 -5 0.5t-4 2.5l3 3q4 1 8 1.5t7 1.5t5 4t2 7q0 1 -0.5 3t-0.5 3l-0.5 0.5l-0.5 0.5q-1 0 -4 0.5t-4 0.5v0h-2h-1t-2.5 -0.5
t-2.5 -0.5h-1h-1q-2 0 -3 1.5t-1 2.5t0.5 2t1.5 2h3t4 0.5t4 0.5h3q2 1 3 0.5t3 1.5v1.5v1.5q0 7 -4 10t-9 4t-9.5 1.5t-4.5 1.5zM164 73q6 0 12 4.5t12 9.5t11.5 9.5t11.5 4.5v-10l-31 -19q-5 -1 -8 -2.5t-4 -4t-1.5 -5.5t-0.5 -8v-4t1 -3h5q7 0 12 2t9 4.5t6 4.5t5 2
q2 0 3 -2.5t1 -3.5v-3q-6 -1 -10 -4t-9 -4q-5 -3 -11 -3q-5 0 -11 -2v-4v-6v-5.5v-4.5t-1 -4t-3 -2l-0.5 0.5t-1.5 0.5q-1 3 -1 6v6t-0.5 6.5t-1.5 6.5t-6.5 5.5t-11.5 4.5t-11 5t-5 8q5 0 8.5 -2t7 -4.5t7 -4.5t7.5 -2t5 3.5t1 6.5q0 7 -3 11t-7.5 7t-10 5t-10 4.5t-7.5 5
t-3 6.5q7 0 12.5 -3.5t10.5 -7.5t10.5 -7.5t11.5 -3.5zM61 64q0 4 -1 8.5t-2.5 8.5t-2.5 8t-1 8q5 0 8.5 -3.5t5 -8.5t2 -10t0.5 -9q0 -2 -0.5 -8t-2.5 -12t-5 -10.5t-7 -4.5t-4 4t1.5 7.5t3.5 7t3.5 7t1.5 7.5zM112 58q0 6 -1.5 10.5t-3.5 9t-3.5 9t-1.5 9.5h3.5t3.5 -2
q5 -6 7 -15t2 -17v-6.5t-1.5 -12t-4 -11.5t-7.5 -5q-3 0 -3 3t2 6t3 6q1 2 1.5 4.5t1.5 5.5l1.5 4.5z" />
</svg>
