<?xml version="1.0" standalone="no"?>
<!DOCTYPE svg PUBLIC "-//W3C//DTD SVG 1.1//EN" "http://www.w3.org/Graphics/SVG/1.1/DTD/svg11.dtd" >
<svg xmlns="http://www.w3.org/2000/svg" xmlns:xlink="http://www.w3.org/1999/xlink" version="1.1" viewBox="-10 0 266 256">
   <path fill="currentColor"
d="M159 247q0 3 1.5 3.5t4.5 0.5t4.5 -1t3.5 -4v-3.5v-5.5v-5v-4q0 -15 -1 -30.5t-1 -30.5v-4v-5v-5v-2l6 -6l2.5 -0.5t5 -0.5t5.5 -0.5t5 -0.5q1 0 3.5 0.5t5.5 0.5t4.5 -1t1.5 -3q0 -3 -1.5 -4.5t-4.5 -1.5h-2q-10 0 -20 0.5t-20.5 1t-21 1.5t-19.5 3q-2 1 -2 1.5v1.5
q0 2 0.5 3t1.5 2h4q7 0 14.5 -0.5t14.5 -0.5h4l2 3v34l1 4q0 2 -0.5 5t-0.5 6.5v7v4.5v3v2t2 3v10q0 5 -1.5 9t-1.5 9zM99 243q2 2 3.5 2.5t3.5 0.5q4 0 4.5 -1.5t0.5 -5.5q0 -3 -2 -7.5t-5 -9.5t-6 -9.5t-4 -8.5q-5 -15 -9 -31.5t-4 -32.5q0 -10 2.5 -20t5 -19.5t4.5 -19.5
t2 -20q0 -5 -1 -12t-4 -14t-7.5 -11.5t-12.5 -4.5q-2 0 -2.5 1t-0.5 3v1v1q9 6 13.5 15.5t4.5 19.5v5.5v4.5q0 2 -1 6.5t-2.5 10t-2.5 10.5t-2 7q-1 1 -2 3.5t-1 3.5v50v2v2.5t0.5 3t0.5 2.5l1 1.5l1 1.5l6 24t8 24q1 1 2 4t2.5 6.5t2.5 6.5t1 4zM192 223q1 2 2 4.5t2.5 5
t3.5 4.5t4 2q5 0 6.5 -1.5t1.5 -5.5v-1v-1l-13 -26q1 -2 -1 -5t-3 -4v-44q0 -1 -2.5 -1h-2.5q-4 0 -5 3t-1 7v15v13q0 2 1 7t2.5 11t2.5 11t2 6zM143 153q-2 0 -3 3.5t-1.5 9.5t-1 13t-0.5 14t-0.5 12.5t-1.5 8.5q0 3 -2 5.5t-3.5 4.5t-2.5 4.5t-1 5.5q5 0 9 -3t6.5 -8.5
t4 -11.5t2 -12.5t0.5 -12v-8.5q0 -7 -0.5 -11.5t-2.5 -11.5q0 -1 -0.5 -1.5t-1.5 -0.5zM48 131v7.5t0.5 12t0.5 12v8.5q0 2 0.5 7t1.5 12t2.5 14.5t4 13.5t6 10t8.5 4q2 0 3.5 -2t1.5 -3q0 -3 -1.5 -6l-3 -6t-3 -5.5t-2.5 -5.5q-2 -5 -2.5 -8.5t-1.5 -7t-1 -6.5t-1 -8v-53
q1 -4 1 -7v-7v-2.5v-3t-0.5 -2.5t-1.5 -1t-1 0.5v0.5q-1 0 -2.5 2t-2.5 3q0 1 -1 3.5t-1.5 5.5t-1.5 6t-1 4v3q0 1 -0.5 2.5t-0.5 2.5zM114 212q1 2 2.5 2h3.5q3 0 3.5 -1t0.5 -4q0 -2 -1 -4.5t-3 -5t-3.5 -5t-2.5 -4.5q-4 -11 -6 -22t-2 -22q0 -9 0.5 -17t2.5 -16
q1 -2 1.5 -5.5l0.5 -3.5q0 -4 -0.5 -5t-2.5 -1t-3.5 1.5t-1.5 4.5q-1 0 -1.5 2t-1.5 4.5t-1.5 4.5t-0.5 3v21q0 10 0.5 19.5t2.5 18.5t5 17.5t8 17.5zM122 114v1l2 1h1q2 0 4.5 -1.5t4 -4t2.5 -5.5t2 -5q1 -1 2.5 -3.5t3.5 -5t3.5 -5t2.5 -3.5h2h2.5t1.5 1v20q0 2 -2.5 2.5
t-5.5 1t-5.5 1.5t-2.5 3q0 3 2 3h3q10 0 20.5 -1t20.5 -3q1 0 1 -1v-2v-1.5t-1 -1.5h-17v-24q0 -1 1.5 -1.5t2.5 -0.5q3 0 8 5t9.5 11t8 12t5.5 9h2q6 0 6 -6q0 -4 -2 -7t-5 -6q0 -1 -2 -3t-3.5 -4.5t-3.5 -5t-2 -3.5q-4 -2 -8 -3.5t-8 -3.5t-6.5 -5t-2.5 -7t2.5 -5.5
t6.5 -2t8 -0.5t7.5 -2t6 -7t2.5 -14q0 -3 -0.5 -6t-4.5 -3h-2t-3 2q0 3 -1 7t-2.5 7.5t-4.5 6.5t-7 3q-8 0 -8 -7v-24l-0.5 -0.5t-0.5 -1.5q-1 0 -3 -1t-2 -2h-1v0q-1 1 -2.5 2l-1.5 1q1 9 0.5 17.5t-2.5 16.5h-1h-1q-5 0 -7.5 -3.5t-4 -7.5l-3 -8t-5.5 -4q-2 0 -3 2.5
t-1 4.5q0 8 4 12.5t9 7.5t9 4.5t4 2.5v12q-4 1 -9.5 6t-11 11.5t-9.5 13t-4 11.5zM48 87q-1 3 1 3.5t3 0.5q5 0 7.5 -3t4 -7.5t2 -9.5t0.5 -8v-5.5t-0.5 -5t-2.5 -4.5t-4 -5q-3 -1 -6 -3t-5 -4q-2 1 -2 3v3q0 4 1.5 7t4.5 6q0 1 0.5 4.5t0.5 4.5q0 4 -0.5 6.5t-1 5.5
t-1.5 5.5t-2 5.5zM104 86v2.5t2 2.5l1.5 -0.5t1.5 -1.5q7 -6 9.5 -11.5t2.5 -14.5q0 -3 -0.5 -8t-2 -10t-4 -8.5t-7.5 -3.5q-2 0 -3.5 0.5t-2.5 2.5l6.5 13t3.5 14q0 3 -1 6t-2.5 5.5t-2.5 5.5t-1 6z" />
</svg>
