<?xml version="1.0" standalone="no"?>
<!DOCTYPE svg PUBLIC "-//W3C//DTD SVG 1.1//EN" "http://www.w3.org/Graphics/SVG/1.1/DTD/svg11.dtd" >
<svg xmlns="http://www.w3.org/2000/svg" xmlns:xlink="http://www.w3.org/1999/xlink" version="1.1" viewBox="-10 0 266 256">
   <path fill="currentColor"
d="M60 161v2q0 1 0.5 6t1.5 10.5l2 11t1 7.5q0 1 1 5.5t2.5 10.5t3.5 12.5t4 12t4.5 9t4.5 3.5t4 -1.5t2 -3.5q0 -4 -1.5 -8t-3.5 -8l-4 -8t-2 -8q-4 -13 -6.5 -27.5t-2.5 -27.5q0 -20 5 -39.5t10 -38.5v-43q0 -4 -1 -8.5t-3 -9t-5.5 -7t-7.5 -2.5q-2 0 -4 0.5t-2 3.5
q0 2 1.5 5.5t3.5 7t4 6.5t3 6q2 7 2.5 15t0.5 15q0 9 -3 16.5t-5 16.5q-4 14 -7 29t-3 29zM142 244q1 0 6 0.5t10 0.5t9.5 0.5t6.5 0.5h5q6 0 10 -3.5t6.5 -9t3.5 -12t1 -13v-12.5v-10v-4q0 -6 -0.5 -11t-1.5 -12l-1 -0.5t-2 -0.5h-1v0q-1 0 -2 0.5t-2 0.5q0 1 -1 1.5
l-1 0.5v17h-20q-1 0 -1.5 -2t-0.5 -3v-1v-1v-1v-1l3 -23q1 0 4 -1t4 -1h3t4 -0.5t4 -0.5t2 -1q7 -1 10.5 -6.5t5 -12t2 -13.5t0.5 -12h-11q-1 0 -1.5 3t-0.5 7t-1 9t-3.5 9t-6.5 7t-10 3h-3t-2 -2v-2.5v-2.5v-4v-3q0 -7 0.5 -11t1.5 -5.5t3 -2t3.5 -1t4 -2t5.5 -5.5
q4 -6 4 -12t1 -12q1 -3 3 -4t5 -1h5.5h6.5t4.5 -1t1.5 -5q0 -3 -2 -3.5t-4 -0.5q-19 0 -39.5 2t-39.5 3h-3.5h-5.5t-5 1.5t-2 3.5q0 4 3 4.5t6.5 0.5t6.5 -0.5t3 2.5q0 1 0.5 2.5t1 4t0.5 4v2.5q0 2 1 5t1 4q1 2 4 3.5t6 2.5t5.5 2.5t2.5 5.5v2q0 2 -0.5 6t-0.5 8.5
t-0.5 8.5t-0.5 5q-8 -1 -13.5 -4.5t-9 -8.5t-5.5 -12t-5 -15l-0.5 -0.5l-0.5 -0.5q-1 0 -4 -0.5l-3 -0.5q0 4 0.5 11t2 13.5t4.5 11.5t8 8q2 1 6 2t8.5 2.5t8.5 3t5 4.5l-0.5 1t-0.5 2t-0.5 2l-0.5 1q0 2 -0.5 4.5t-0.5 5.5v6v4l-2 2h-17v-3t-0.5 -4.5t-0.5 -4.5v-3
q-1 -3 -1.5 -3.5t-2.5 -0.5t-3.5 0.5t-2.5 1.5q0 1 -0.5 4t-0.5 5.5t-0.5 5.5t-0.5 4q0 2 0.5 8.5t1 14t1 14t1.5 9.5q2 3 3 5t2.5 4t3.5 3.5t6 2.5zM38 164v7q0 4 0.5 8t0.5 7v3v2.5v3.5t0.5 4t0.5 4t2 8.5t3.5 13.5t3 12l1.5 5h8q2 0 2 -3v-3v-3v-0.5t-0.5 -1.5t-1.5 -4
q0 -2 -1 -5.5t-2 -7.5t-2 -7.5l-1 -3.5q-3 -11 -3.5 -21t-0.5 -21t3 -21.5t3 -21.5q0 -4 -4 -4t-6 3t-3.5 7t-1.5 8.5v6.5v4t-0.5 6.5t-0.5 8.5v6zM136 221v-3v-2q0 -1 1 -1.5l1 -0.5h44q4 0 4.5 3t0.5 5q0 6 -3 8.5t-7.5 3.5t-9.5 0.5t-8 -0.5h-3h-4.5h-4.5h-2q-5 -1 -7 -5
t-2 -8zM84 157q0 18 3.5 36t11.5 34q2 4 3 5t4 1t4 -1.5t1 -4.5t-2 -7t-4 -8.5t-4 -8t-4 -7.5q-2 -7 -3.5 -15.5t-1.5 -15.5q0 -6 1 -11.5t2.5 -10.5t2.5 -10t1 -10q0 -2 -1.5 -3.5t-4.5 -1.5t-5 5t-3 12t-1 13.5v8.5zM136 204q-1 0 -1 -2v-4v-4t1 -3q10 -1 19 -2.5t19 -1.5
h5h5l3 2v12q0 1 -3 2t-7 1.5t-7.5 1t-4.5 0.5h-2h-2q-2 0 -5 -0.5t-7 -0.5t-7.5 -0.5t-5.5 -0.5zM44 95v1l1 1t2 1h1q2 0 5 -1.5t4.5 -4.5t3 -5.5t1.5 -5.5v-37l-1 -1l-2 -2l-2 -2t-2 -1h-2q-3 0 -4 0.5t-1 3.5v1v1q0 1 1 3.5t1.5 5t1 4.5l0.5 2q0 11 -3 19t-5 17v0zM92 95
q0 1 0.5 1.5l1.5 1.5q5 -1 8 -3t5 -6t2.5 -8.5t0.5 -9.5q0 -2 0.5 -5.5t1 -8t0.5 -9v-5.5q-1 -5 -3.5 -7t-6.5 -2q-2 0 -3.5 0.5t-1.5 3.5q0 6 2 12t2 12q0 5 -1.5 9.5l-3 9t-3 8t-1.5 6.5zM144 77q0 -1 0.5 -3t0.5 -3q8 -3 18 -3.5t19 -0.5q0 6 -0.5 11t-2.5 9t-6 6.5
t-10 2.5q-19 0 -19 -19zM130 37q0 2 1.5 3t4 1h4.5h4h5.5t5.5 -1q1 -1 6 -1t10 -0.5t9.5 -0.5h6.5h3.5t5 -0.5t4.5 -1.5t2 -3q0 -3 -2.5 -4t-4.5 -1q-16 0 -32 1t-31 4q-1 0 -1.5 1t-0.5 2v1z" />
</svg>
