<?xml version="1.0" standalone="no"?>
<!DOCTYPE svg PUBLIC "-//W3C//DTD SVG 1.1//EN" "http://www.w3.org/Graphics/SVG/1.1/DTD/svg11.dtd" >
<svg xmlns="http://www.w3.org/2000/svg" xmlns:xlink="http://www.w3.org/1999/xlink" version="1.1" viewBox="-10 0 266 256">
   <path fill="currentColor"
d="M158 233q0 2 0.5 5l1 6t2 5t4.5 2q2 0 2.5 -2t0.5 -4v-3.5t-1 -2.5v-23q0 -1 1 -2t2 -1q0 -1 0.5 -2t1.5 -1q3 -4 7 -7t7 -6.5t5 -7.5t2 -10q0 -5 -0.5 -11.5t-2 -13.5t-3.5 -13.5t-6 -12t-9.5 -8.5t-11.5 -3q-7 0 -11.5 4.5t-7.5 10.5t-4.5 13t-2.5 11q-1 10 -2 17
t-1 16v5q1 2 1.5 2h1.5q2 0 4 -0.5t2 -2.5v-20l2 -1t3 0q3 1 5.5 3.5t4.5 5.5t4.5 5t5.5 2v-9l-1 -1.5t-3 -3l-4 -3t-3 -2.5q-3 -3 -6.5 -4.5t-5.5 -5.5v-2v-3v-3t0.5 -4t1.5 -3.5t3 -1.5q1 0 2 0.5l1 0.5q1 0 3 2t4.5 4t4.5 3.5t3 2.5l2 2t1.5 2.5t2 2.5t2.5 1
q2 0 2.5 -1.5t0.5 -3.5q0 -5 -4 -8t-9.5 -6t-10 -5.5t-4.5 -6.5q0 -2 1.5 -4t3.5 -4h3h3q7 0 12 5t8 12t5 14.5t2 12.5q0 6 -1 10.5t-2.5 8.5t-4.5 7.5t-8 7.5q-1 0 -2 1t-2.5 2l-3 2l-1.5 1q-2 2 -3 5.5t-1 7v7v5.5zM75 179q1 2 2 7t2 10.5t2 11.5t2 11.5t3 8.5t5 3
q1 0 1.5 -1l1 -2t0.5 -3v-2v-4q-1 -1 -1.5 -4t-2 -6t-2 -6t-1.5 -4q-3 -12 -3.5 -24.5t-0.5 -24.5q0 -15 2.5 -29t6.5 -28q1 -5 1 -10t2 -9v-36q0 -1 -0.5 -3.5t-1 -3t-1.5 -2.5t-2 -4.5t-2.5 -5t-1.5 -3.5q-2 -2 -5.5 -2.5t-5.5 -0.5v5q4 6 6.5 11t4 10t2.5 10.5t1 12.5
q0 10 -2 19.5t-4.5 18.5t-4.5 19t-3 19v3t-0.5 5.5t-0.5 6.5v6v4q0 2 0.5 5.5t0.5 6.5v4zM50 175q0 3 1 10.5t2 16.5t3 16t4 7q3 0 5 -2.5t2 -5.5t-1 -7l-2 -8t-2 -7.5t-1 -7.5v-28v-22q0 -2 0.5 -6.5t1.5 -9t1.5 -9t1.5 -6.5q-1 -1 -2.5 -2t-3.5 -1h-1q0 1 -1 2l-1 1
q-3 8 -4.5 17t-2 18t-0.5 18v15v1zM97 147v16.5t1 17t3 16.5t5 16q1 3 4 3.5t6 0.5q0 -5 -1.5 -9.5t-3 -9.5t-3.5 -9.5t-2 -9.5q-1 -9 -1.5 -16.5t-0.5 -15.5t1 -16t1 -16q0 -1 -0.5 -3t-2.5 -2t-3.5 5.5t-2 12t-0.5 12.5v7zM191 102q3 1 4 5t1.5 9.5t0.5 11v10t1 7.5t4 2
q1 0 2 -1.5l2 -3t1.5 -3t0.5 -2.5q0 -13 -0.5 -21t-4 -12.5t-10 -6.5t-19.5 -3q-3 0 -5 0.5t-4 -1.5v-5v-5v-13t1 -13q1 -1 3 -1.5l4 -1t4 -1.5t2 -2v-1q-1 0 -3.5 -1l-2.5 -1q-9 0 -12.5 5t-4.5 12t-0.5 14.5t-0.5 13.5q-1 0 -5 1t-8 1.5t-7.5 1.5t-5.5 2q-4 1 -6 5.5
t-2.5 10t-0.5 10.5v8v5v3l3 3l3 -3l3 -30q1 -3 3.5 -5t5.5 -3.5t6.5 -2t4.5 -0.5h4t6.5 0.5t6 0.5h3.5v1q1 -1 4.5 -1.5t5.5 -0.5h2t4 0.5t3.5 0.5t2.5 1zM104 89v2t2 2q7 -6 11 -15.5t4 -18.5q0 -3 -0.5 -7.5t-2.5 -9t-4.5 -7.5t-6.5 -3q0 8 2.5 15t2.5 14q0 5 -1 9
t-2.5 7.5t-3 6.5t-1.5 5zM66 64q0 2 -1 5.5t-2 6.5t-1.5 6.5t-0.5 6.5q4 0 7 -2.5t4 -6t1 -8v-7.5q0 -9 -2.5 -17t-11.5 -13q-2 -1 -2.5 0.5t-0.5 2.5q0 4 1.5 7l3 6l3 6t2.5 7zM132 67q0 1 0.5 3t0.5 4t0.5 3t0.5 2l1 1q5 -2 5 -7q1 -11 1 -18.5t2.5 -12t8.5 -6t20 -1.5
q5 0 8.5 3t5.5 8t2.5 10t0.5 9q0 1 -0.5 2.5l-0.5 1.5v4q0 2 0.5 4t2.5 3q4 -3 5 -7t1 -8q0 -7 -1 -14.5t-3 -14.5q-2 -2 -4.5 -4t-5.5 -3t-6 -1.5t-6 -0.5q-12 0 -18.5 1.5t-10 5t-5.5 10.5t-3 17l-1 2.5t-1 3.5z" />
</svg>
