<?xml version="1.0" standalone="no"?>
<!DOCTYPE svg PUBLIC "-//W3C//DTD SVG 1.1//EN" "http://www.w3.org/Graphics/SVG/1.1/DTD/svg11.dtd" >
<svg xmlns="http://www.w3.org/2000/svg" xmlns:xlink="http://www.w3.org/1999/xlink" version="1.1" viewBox="-10 0 266 256">
   <path fill="currentColor"
d="M165 191v58l1 0.5t2 1.5h1h1q0 -1 2 -2t3 -2v-9q0 -6 -1 -11t-1 -11q0 -7 -0.5 -15t3.5 -15q8 1 17.5 0.5t17.5 -1.5l3 -1.5t1 -2.5q0 -3 -2.5 -4t-4.5 -1h-2h-2l-2 0.5t-3.5 1t-3.5 1l-2 0.5h-4h-5t-5.5 -0.5t-3.5 -0.5v-1.5v-3.5v-3v-2q0 -1 0.5 -2t0.5 -2l1 -1l1 -1
h15q3 0 5 -4.5t3 -10t1 -10v-5.5v-3t-0.5 -3.5l-1 -3t-2.5 -1.5t-3 5t-2.5 11.5t-3 11.5t-3.5 5h-12v-5.5v-7.5t0.5 -7.5t0.5 -5.5l-0.5 -1.5t-0.5 -3t-0.5 -2.5l-0.5 -1q0 -3 1.5 -4.5t3.5 -2t4.5 -1t3.5 -1.5q1 0 2.5 -4.5t4 -10.5t4 -10.5t1.5 -5.5q0 -3 -2 -3.5t-4 -0.5
h-1.5h-1.5l-2 0.5t-4.5 1t-4.5 1l-2 0.5h-1q-2 0 -7 0.5t-10 1.5t-10 1.5t-7 0.5q-2 -1 -2.5 0.5t-0.5 2.5v0.5v1.5q3 0 6.5 1t5.5 4v2.5v4t0.5 4.5t0.5 3q1 2 3.5 3l5 2t4.5 2t2 4v11v12.5t-1 12.5q-2 1 -3 1h-2q-5 0 -9 -1t-6 -5q0 -1 -0.5 -4t-0.5 -6.5t-0.5 -6.5
t-0.5 -4v-3q0 -1 -0.5 -2.5t-1.5 -2t-3 -0.5t-3 1.5t-1 4v5v2.5q0 12 2.5 17.5t6 8t8 2.5t8 1t5.5 3t2 8q0 1 0.5 3.5t-1.5 2.5t-5 0.5l-6 1t-6.5 0.5h-4.5h-4h-6h-7h-3t-3 0.5t-2 1.5v1v1l1.5 1.5l1.5 1.5h42zM80 240q1 3 2.5 4.5t3.5 1.5q4 0 4 -4v-2v-1q-12 -22 -16 -44
t-4 -48q0 -11 2.5 -22t6 -22t6 -22t1.5 -22q0 -5 -1.5 -13t-4 -15t-7 -12.5t-11.5 -5.5q0 4 0.5 6t1.5 3.5t2.5 3t3.5 4.5q4 8 6 17t2 19q0 6 -1 11.5t-3 11t-4 10.5t-3 11q-2 6 -3 11t-1 9v9v12q0 14 1.5 25t3.5 21t5 20t7 23zM38 144q0 12 0.5 24t2 24t4.5 23.5t8 21.5
h1.5h1.5q2 0 3.5 -1.5t1.5 -4.5v-1q-3 -7 -5 -14t-5 -14q-3 -11 -3.5 -24t-0.5 -24q0 -7 0.5 -13.5t0.5 -13.5v-9l-3 -3h-1q-2 0 -3 1t-1.5 3t-1 3.5t-0.5 2.5v4v6v6v3zM88 159q0 17 2.5 32t10.5 29q0 1 1 2t1.5 2t2 2t2.5 1q2 -1 2.5 -2.5t0.5 -3.5q0 -3 -1.5 -5.5t-3.5 -6
t-4 -6t-2 -5.5q-3 -8 -5 -18t-2 -19q0 -11 1 -19t2 -19v-1v-1l-0.5 -2.5t-1.5 -3.5h-1q-2 0 -2.5 0.5t-0.5 2.5q-1 7 -1.5 12t-0.5 9.5v9.5v10zM156 94q0 -3 2 -4.5t4.5 -2.5t5.5 -1h5h4h4q2 1 2.5 4.5t0.5 4.5q0 7 -4.5 9.5t-9.5 2.5h-7q-7 -5 -7 -13zM118 99l0.5 1.5
t1 2.5t1.5 1.5t2 0.5q1 -1 2.5 -3t2.5 -3v-4t0.5 -6.5t0.5 -6.5t1 -4v-3v-3l-1 -0.5t-1 -1.5q0 -10 2.5 -16t8 -8.5t13 -3t16.5 -0.5h17t16 3q2 1 3 6t2 11.5t1.5 13.5t1 13t2 10t3.5 4t3 -1t1.5 -3t0.5 -4v-3q0 -10 -1.5 -22.5t-3.5 -22.5q-3 -7 -10.5 -9.5t-14.5 -3.5
t-13 -1.5t-6 -2.5v-15q0 -1 -1 -1.5t-1.5 -0.5t-2 -1t-2.5 -1h-1v0h-1q0 1 -1.5 2t-1.5 2v0v1v2.5t0.5 3t0.5 3t1 1.5v1q0 3 -2 5l-3 3q-4 0 -8.5 1t-9.5 2t-9 3t-7 6q1 13 -1 26t-2 26zM48 93q0 3 0.5 4t2.5 1t3 -0.5l3 -1.5q3 -7 3.5 -12t0.5 -12v-12.5t-2 -12.5t-6 -10
t-11 -4q0 5 2 7.5t4 6.5q3 6 3 12.5v12.5t-1.5 11t-1.5 10zM94 93q0 1 0.5 2t1.5 1q5 -2 7 -7t3.5 -10.5t1.5 -11.5v-11q0 -2 -0.5 -6t-1.5 -8t-3 -7t-5 -3q-1 0 -2.5 0.5t-1.5 1.5q0 6 3 12.5t3 12.5q0 9 -3 17.5t-3 16.5zM144 63l0.5 0.5l0.5 0.5l0.5 0.5t0.5 1.5h11h8
q4 0 7.5 -0.5t7.5 -0.5t9 -1q2 -1 2 -1.5v-1.5q0 -3 -1 -3.5t-3 -0.5h-1q-3 0 -7.5 0.5t-9 0.5t-8 0.5l-3.5 0.5h-2h-4t-4.5 1t-2.5 2l-0.5 0.5z" />
</svg>
