<?xml version="1.0" standalone="no"?>
<!DOCTYPE svg PUBLIC "-//W3C//DTD SVG 1.1//EN" "http://www.w3.org/Graphics/SVG/1.1/DTD/svg11.dtd" >
<svg xmlns="http://www.w3.org/2000/svg" xmlns:xlink="http://www.w3.org/1999/xlink" version="1.1" viewBox="-10 0 266 256">
   <path fill="currentColor"
d="M160 227v5t0.5 8t2 7.5t4.5 3.5t3.5 -3t0.5 -5q0 -6 -1.5 -11.5t-1.5 -12.5v-4.5t0.5 -7t0.5 -5.5v-3l3 -5q8 -4 15 -9.5t12 -11.5t8 -13.5t3 -18.5q0 -5 -1 -11.5t-3.5 -12t-6.5 -10t-10 -6.5q-1 0 -3.5 -0.5t-5.5 -1t-5.5 -1.5t-3.5 -3v-3v-3v-10v-11t0.5 -12t2.5 -10
q1 -3 4 -3.5t5.5 -1.5t4.5 -3.5t2 -10.5q0 -9 -5.5 -12t-12.5 -3q-12 0 -19 5.5t-7 17.5q0 5 2.5 6.5t5.5 2.5t6.5 2t4.5 5v16v15q-1 8 -2.5 11.5t-5 4.5t-8 2.5t-9.5 5.5q-1 0 -1.5 0.5l-0.5 0.5q-2 3 -3.5 6t-2.5 5.5t-1 5.5t1 6q-2 3 -5.5 4.5t-7 2.5t-6 2.5t-2.5 5.5
q7 0 15 -3t16.5 -7t16.5 -9t13 -8l-1 -3h-1.5h-1.5q-3 0 -6 1t-5.5 2.5t-4.5 3.5t-5 3l-2.5 -1l-2.5 -1q0 -5 1.5 -9t4.5 -5.5t7 -2.5t9 -1h5t6.5 0.5t6.5 1t5 0.5q8 5 10.5 12t2.5 16q1 14 -2 21.5t-8 13t-12 11t-15 13.5q-3 8 -3 16.5v16.5zM129 235q0 2 0.5 4.5t3.5 2.5
t4.5 -2t2 -4.5t0 -5t0.5 -4.5q0 -1 0.5 -5t1.5 -8.5t2 -8.5t2 -6q1 -4 2 -6.5t2 -4.5t2.5 -4.5t4.5 -4.5q2 -3 6.5 -6t9.5 -6t8.5 -6t3.5 -6q0 -2 -1.5 -2.5t-3.5 -0.5t-4.5 1t-5.5 3t-5 4l-3 3q-1 0 -3 1.5t-3.5 4t-3.5 4t-3 2.5q-4 4 -7.5 12t-6.5 17t-4.5 18t-1.5 14z
M74 130v25q0 2 0.5 5t1 7.5t1 8.5t1 6t1.5 9.5t3.5 16t5 15t4.5 6.5q3 0 4.5 -2.5t1.5 -4.5q0 -7 -3 -14.5t-5 -14.5q-4 -14 -6 -29t-2 -30q0 -12 2 -25.5t4 -26.5q2 -2 3 -7t1.5 -10.5t0.5 -10.5v-9v-9.5t-1.5 -11.5t-4.5 -10.5t-8 -4.5q-1 0 -3 1.5t-2 2.5v1q2 4 5.5 9.5
t5.5 8.5v12q0 7 -1 13t-2.5 12l-3 12t-2.5 12q-1 3 -0.5 4.5t0.5 2.5t-0.5 2.5t-1.5 3.5v24zM49 151q0 18 2 34.5t9 32.5h2h1q4 0 4.5 -1t0.5 -5q0 -6 -2 -12.5t-4 -12.5q-2 -8 -2.5 -16.5t-0.5 -16.5q0 -12 1 -24t3 -23q0 -2 -1 -4t-3 -2t-3 2t-1.5 4t-1.5 4l-1 2
q0 2 -0.5 4.5t-1 5.5t-1 5l-0.5 2v3v6.5v6.5v5zM101 187q1 2 2 5.5l2 7t3 6.5t5 3q5 0 5 -5q0 -6 -3.5 -12.5t-5.5 -11.5q-3 -9 -4 -19t-1.5 -20.5t-1 -20.5t-0.5 -20l-1 1t-2 1q-1 8 -1 15v15v4v5v5v2q0 2 0.5 7.5t1 12t1 12t0.5 7.5zM115 172v1l1 1h1q2 0 7.5 -2.5
t12.5 -6.5t14.5 -9t13.5 -9.5l10 -7.5t4 -4q0 -3 -4 -3q-3 0 -7.5 3t-9 6.5t-8.5 7t-7 5.5q-1 0 -2.5 1t-3.5 2l-4 2t-2.5 1.5t-2.5 1.5t-4 2.5l-4 3t-4 2.5l-0.5 0.5l-0.5 0.5v1zM177 78q0 3 1.5 5.5t4 4l5 3t5.5 1.5t6 -1.5t5.5 -4t4 -6t1.5 -6.5q0 -17 -16 -17
q-10 0 -13.5 6t-3.5 15zM126 78q0 3 1.5 5.5t4 4t5.5 2t5 0.5q9 0 13 -5t4 -14q0 -5 -3.5 -8.5t-8.5 -3.5q-10 0 -15.5 4.5t-5.5 14.5zM62 78v4t3 2t4.5 -3.5t2.5 -8.5t1 -9.5v-6.5t-0.5 -7t-2 -10t-4 -8.5t-6.5 -3.5q-1 0 -2.5 1.5t-1.5 2.5q0 4 2.5 8.5t3.5 6.5q1 4 1 8v8
t-0.5 8t-0.5 8zM102 82q0 1 1 1.5t2 0.5q3 0 4.5 -2t2.5 -4.5t1.5 -5t1.5 -4.5v-34q0 -3 -2.5 -6.5t-5.5 -3.5q-2 0 -3.5 1t-1.5 3q0 6 2.5 12t2.5 13q0 8 -2.5 15t-2.5 14zM134 72q0 -2 1 -3.5t3 -2l4 -1t3 -0.5q4 0 5 2t1 5v3q0 1 -0.5 3t-0.5 4t-1 2h-11q-1 0 -2 -2
t-1.5 -4t-0.5 -3.5v-2.5zM182 75q0 -6 4.5 -9t8.5 -3t4.5 3t0.5 6q0 5 -1.5 8t-6.5 3q-4 0 -7 -2t-3 -6zM154 32q0 -3 1.5 -5.5t4 -4t6 -2t6.5 -0.5q5 0 6.5 3t1.5 7q0 3 -1 5t-3.5 2.5l-5 1t-5.5 0.5h-4t-3.5 -1t-2.5 -2t-1 -4z" />
</svg>
