<?xml version="1.0" standalone="no"?>
<!DOCTYPE svg PUBLIC "-//W3C//DTD SVG 1.1//EN" "http://www.w3.org/Graphics/SVG/1.1/DTD/svg11.dtd" >
<svg xmlns="http://www.w3.org/2000/svg" xmlns:xlink="http://www.w3.org/1999/xlink" version="1.1" viewBox="-10 0 266 256">
   <path fill="currentColor"
d="M117 207q0 2 0.5 6t1 9t1.5 10.5t2.5 10t3.5 7.5t4 3q4 0 4.5 -2t0.5 -5t-1 -4.5t-2 -3.5q-2 -8 -4 -16.5t-2 -16.5t2 -15l4 -14t3.5 -14t1.5 -15q0 -3 -0.5 -8t-2 -9.5t-4.5 -8t-7 -3.5q0 7 2.5 13.5t2.5 13.5q0 8 -2 16t-4 15.5t-3.5 15t-1.5 15.5zM80 235q1 1 1.5 3
t1.5 4t3 3.5t4 1.5t2.5 -2.5t0.5 -4.5q0 -8 -2 -16.5t-2 -16.5v-4q0 -1 0.5 -5t1.5 -8t1 -7.5v-4.5v-4v-6v-6v-4l1 -2t2.5 -4t2.5 -4l1 -2v-1.5t0.5 -3.5t0.5 -4v-4v0v-3.5t-1 -4.5t-2 -3.5t-3 -1.5t-2.5 1t-0.5 2q0 3 1 5.5t1 5.5q0 5 -2 9t-4.5 7.5t-4.5 6t-2 4.5v1v1
q1 -1 3.5 -0.5t3.5 1.5v3q0 5 -2 9.5t-3 9.5q-2 7 -2 15.5v16.5v3v5v5.5v3.5zM152 191q0 5 1.5 14t4 18t6.5 15.5t10 6.5q1 0 1.5 -1t1 -2.5t0.5 -3v-1.5q0 -3 -1.5 -5t-3.5 -4t-3.5 -4t-2.5 -5t-2 -7t-1.5 -7.5t-1 -7.5t-0.5 -7v-5q0 -4 1 -5q2 -1 2.5 -2.5t0.5 -3.5
t-1.5 -3.5t-3.5 -1.5t-4 2l-2 2q-1 3 -1 5.5t-0.5 4.5t-0.5 4v4zM102 80h-13h-18.5t-14 2.5t-8.5 8.5t-3 18v61q0 2 1 2h2q2 0 3.5 -4t2.5 -10t1 -13v-14v-11.5t1 -7.5q0 -1 3 -2t6.5 -2.5l7 -3t4.5 -3.5q1 -1 1.5 -3.5t0.5 -5t1 -4.5t3 -2q5 0 5.5 3t1.5 7t4 7t12 3
q7 0 10 -4t3 -11q0 -3 -0.5 -6t-3.5 -5h-13zM154 156q0 2 2 2h3q4 0 6.5 -2t4 -5.5t2 -7t0.5 -6.5v-4.5t-1 -5t-2.5 -4.5t-3.5 -2v0v0l-2 2t-1 2v21l-1 1t-1 2l-6 6v0v1zM188 106q5 0 7 2t3.5 5t3 5t4.5 2t4 -2t1 -4q0 -4 -2 -6t-4.5 -3.5t-4.5 -3t-2 -4.5v-3v-5v-5v-2
q0 -4 -5 -6t-11.5 -3t-12.5 -1h-8q-8 0 -13 0.5t-13 1.5v1v0l2 3h7h11h10h7t5 0.5l6 1t5.5 2.5t2.5 5t-0.5 5t-3.5 2q-9 0 -18.5 -2.5t-19.5 -2.5h-9t-9 2q-1 0 -1.5 1t-0.5 2l0.5 0.5t1.5 0.5h20.5t20.5 2q1 0 3.5 1t2.5 3v0v0q-3 1 -4 1.5t-2 0.5h-3h-3t-7 0.5t-10.5 0.5
t-10.5 0.5t-7 0.5v5q2 0 7 -0.5t10 -0.5h11h7q6 0 11.5 -1.5t10.5 -1.5zM56 97q0 -4 3 -6t6 -2q2 0 4 0.5t2 3.5q0 4 -2.5 6.5t-6.5 2.5t-5 -1t-1 -4zM95 94q0 -4 2.5 -6.5t5.5 -2.5q4 0 6 2.5t2 6.5q0 3 -2.5 5t-5.5 2t-5.5 -2t-2.5 -5zM47 71q2 1 3 1h3q7 0 14 -1.5
t13 -2.5q9 -2 16.5 -1.5t15.5 -0.5q4 0 4.5 -0.5t0.5 -2.5v-3t-2 -2h-21l-1 -1t-1 -2q0 -2 2 -3t5 -2l6 -2t6 -3.5t4.5 -7t1.5 -12.5q0 -2 -1.5 -4t-3.5 -2h-1q-1 0 -2 0.5l-1 0.5q2 11 -1.5 16t-13.5 5v-25q0 -1 -3.5 -1.5t-7.5 -1t-8 -0.5h-4h-3t-4.5 0.5t-4 1.5t-1.5 2
q0 2 2 3.5t4 1.5h2q1 0 3 -0.5t4 -0.5t4 -0.5t3 -0.5h1q2 0 3.5 2.5t2 5t1 5.5t0.5 4t-0.5 3t-3.5 2h-15q-3 0 -4 -2.5t-2 -5.5t-2.5 -5.5t-4.5 -2.5q-4 0 -4 5q0 7 2.5 11t6.5 5.5t8 1.5t8 0.5t6.5 1.5t2.5 4q0 4 -2.5 5.5t-6.5 2t-8 0.5q-5 0 -9 0.5t-7.5 2t-4.5 5.5z
M146 48q0 6 3.5 8.5t8.5 3.5t10.5 0.5t9.5 -0.5h4h4.5h4.5h4l1.5 -1.5t0.5 -1.5t-0.5 -2t-1.5 -1h-6.5h-10.5h-10h-6h-2q-2 0 -3.5 -0.5l-3 -1t-1.5 -2.5t3 -4t5 -3l30 -3q1 0 2.5 -3.5t2.5 -5.5v-1q0 -3 -1 -7t-4 -6h-2h-3.5h-3.5h-3q-8 0 -15.5 1t-14.5 1h-5
q-1 -1 -1.5 -3.5t-1 -4.5t-2 -3.5t-3.5 -1.5q-1 0 -2.5 1t-1.5 3l0.5 2.5t0.5 3.5v5q0 8 -2 14t-5 13q0 1 1 1.5t2 0.5q2 0 4.5 -1.5t2.5 -3.5l7 -19l1 -1l2.5 -0.5t6 -0.5t7 -0.5t6.5 -0.5h2.5h3.5h4q3 0 5 0.5t3.5 2t1.5 4.5t-3 4.5t-7.5 2t-9 0.5t-9 0.5t-7.5 3t-3 7.5z
" />
</svg>
