<?xml version="1.0" standalone="no"?>
<!DOCTYPE svg PUBLIC "-//W3C//DTD SVG 1.1//EN" "http://www.w3.org/Graphics/SVG/1.1/DTD/svg11.dtd" >
<svg xmlns="http://www.w3.org/2000/svg" xmlns:xlink="http://www.w3.org/1999/xlink" version="1.1" viewBox="-10 0 266 256">
   <path fill="currentColor"
d="M131 129v14t1 14q1 4 6 8t10.5 7t10 4.5t4.5 2.5v29q0 5 -4.5 9.5t-9.5 10t-9.5 11t-4.5 11.5q5 0 10 -5.5t9.5 -12t8 -12t6.5 -5.5h2t1 2q1 0 3 3.5t4.5 6.5t4 6l2 4l1.5 3t2.5 3.5l3 3t3.5 1.5t4 -1.5t2 -4.5t-2 -5.5t-4.5 -5t-5.5 -4.5t-4 -4q-6 -7 -10.5 -16.5
t-4.5 -19.5v-4t1 -6q8 -3 14.5 -5.5t12 -6.5t8 -10.5t2.5 -16.5q0 -9 -1 -19t-2 -19q-2 -3 -4.5 -8t-5.5 -7q-2 -1 -6 -1h-8t-7 -1t-3 -5q0 -7 4.5 -11t10 -8t10 -8.5t4.5 -14.5q0 -4 -2 -7t-5.5 -4.5t-7.5 -2t-8.5 -0.5t-8.5 -0.5t-6 -0.5q-3 -1 -5 -2.5t-3.5 -3t-3.5 -2.5
t-4 -1h-3.5t-1.5 2q0 5 2.5 7t5 3.5l5 3t2.5 4.5q0 1 -1 3.5t-2.5 5.5l-2.5 5t-2 3q-2 3 -5 5t-5.5 4.5l-4.5 4.5t-2 6q7 0 12 -3t8 -7t5.5 -9t5 -9.5t6.5 -7t10 -2.5q5 0 8.5 2t3.5 7q0 4 -2 6t-5 4t-6 3t-6 3q-5 5 -7 12.5t-2 13.5q-1 0 -1.5 1l-0.5 1q-11 4 -17.5 6.5
t-9 6.5t-3 11.5t-0.5 20.5zM77 133v6v7v6t1 3v3v4t0.5 4.5t0.5 3.5q0 4 1.5 11t4 15.5t5.5 18t6.5 17t7.5 12t8 4.5q0 -6 -1 -9.5t-3 -7t-4.5 -7t-4.5 -9.5q-8 -19 -11 -39.5t-3 -40.5q0 -12 2 -24.5t3.5 -24.5t3.5 -24t2 -25q0 -10 -3.5 -17t-14.5 -7q0 1 0.5 3t0.5 3l1 1
t1.5 2t1.5 2l1 1q3 7 3 11.5v11.5q0 11 -1.5 21.5t-3.5 21t-3.5 21t-1.5 21.5zM51 143q0 16 2 31t6 31q1 3 2 8t2.5 10t4 9t7.5 4q1 0 2.5 -0.5t1.5 -3.5q-8 -24 -13.5 -46.5t-5.5 -48.5q0 -5 1 -9.5t1 -9.5q0 -3 -0.5 -5t-4.5 -2q-3 0 -4.5 4t-2 9t0 10.5t0.5 8.5zM106 189
q2 3 3.5 8t3.5 9.5t4.5 8t5.5 3.5t3.5 -0.5t0.5 -3.5q0 -6 -3 -13t-7 -14.5t-7.5 -15.5t-3.5 -16v-34q1 -2 1.5 -4t0.5 -4t-0.5 -4t-3.5 -2q-2 0 -3 1t-2 3q-1 5 -1 8t-0.5 6.5t-0.5 7.5v7q0 13 2.5 24.5t6.5 24.5zM141 205v6v4l3 3q3 -1 4 -4.5t1.5 -8t0 -8.5t-0.5 -6
t-1 -4.5t-4 -2.5l-0.5 0.5l-1.5 1.5q-2 5 -1.5 9.5t0.5 9.5zM187 188q0 2 0.5 6.5t1.5 9t2 8t3 3.5q1 0 2 -0.5t2 -1.5v-7v-6t-0.5 -8.5t-2 -7.5t-4.5 -3t-3.5 2.5t-0.5 4.5zM146 161q0 -2 2.5 -4.5t6 -4.5t7 -3t5.5 0q3 0 6 1t5.5 2t4 3.5t1.5 5.5q0 4 -2 5.5t-5 2t-7 0.5
h-5t-5 -0.5t-6 -1.5t-5.5 -2.5t-2.5 -3.5zM164 128l-1 3.5t-3.5 7.5t-6.5 7.5t-10 3.5q-2 0 -2.5 -1t-1 -3t-0.5 -4v-3v-6q4 -1 7.5 -3.5t6.5 -5.5t7 -4.5t8 -1.5t9.5 2t10.5 5.5t8 8t3 9.5q0 3 -2 6t-6 3v0v0l-20 -11q-2 0 -2 -2.5v-4.5q0 -3 -1 -4.5t-4 -1.5zM172 90
q12 0 19.5 6t7.5 19q0 3 -0.5 4.5t-3.5 1.5t-6 -1t-6.5 -3t-6 -4t-4.5 -4q-1 -2 -1.5 -3.5t-1 -3.5t-1.5 -2.5t-3 -0.5q-3 0 -3.5 1.5t-0.5 3.5t0.5 4.5t-2.5 3.5q-2 2 -5 3.5l-6 3t-5 3l-2 1.5h-3q0 -17 8.5 -25t25.5 -8zM55 86q0 4 5 4q4 0 6.5 -3.5t3.5 -8.5t1 -10.5
v-8.5v-7.5t-1.5 -9t-4 -7.5t-7.5 -3h-1l-2.5 1.5t-2.5 2.5q0 3 1.5 5t3 5t3 6.5t1.5 9.5q0 3 -1 6l-2 6l-2 6t-1 6zM114 54q0 4 -1.5 8t-4 8t-4 8t-1.5 8q6 0 9.5 -4.5t6.5 -10.5t4 -12.5t1 -10.5q0 -3 -0.5 -6t-2.5 -5.5t-4.5 -4t-5.5 -1.5t-3 2q0 3 1 5.5l2 5l2 5t1 5.5z
" />
</svg>
