<?xml version="1.0" standalone="no"?>
<!DOCTYPE svg PUBLIC "-//W3C//DTD SVG 1.1//EN" "http://www.w3.org/Graphics/SVG/1.1/DTD/svg11.dtd" >
<svg xmlns="http://www.w3.org/2000/svg" xmlns:xlink="http://www.w3.org/1999/xlink" version="1.1" viewBox="-10 0 266 256">
   <path fill="currentColor"
d="M182 196q0 4 2.5 12.5t6 17t8 15.5t8.5 9q1 0 2 -1t2 -2.5t1 -3.5v-2q0 -1 -0.5 -2.5t-0.5 -2.5l-2 -2t-2 -3q-3 -4 -5.5 -8.5t-4.5 -9t-3.5 -9.5t-1.5 -10t2 -9.5t5 -9t5.5 -9t2.5 -9.5q0 -7 -3.5 -12t-7.5 -9t-7.5 -9t-3.5 -12q0 -6 2.5 -8.5t6 -3t6 -1.5t2.5 -4v-1
q-1 -1 -1 -3t-0.5 -4t-0.5 -4v-3l-1.5 -1.5l-1.5 -1.5h-1h-1q0 1 -1.5 5t-1.5 5q-2 5 -7.5 8t-11 5t-9.5 3l-4 1v1q1 1 1.5 2l0.5 1h13l0.5 3t1.5 5v0q0 5 -1.5 11t-3.5 12l-4 12t-4 10q0 1 1 1.5t2 0.5q3 0 5.5 -4t4 -9.5t3.5 -9.5t4 -4t4.5 1.5t5 4t4 5.5t1.5 5q0 5 -3 10
l-6 10t-5.5 10t-2.5 11zM66 142v2q0 3 1 9.5t1.5 13t1.5 11.5t1 6q0 2 1 7t2.5 11.5l3 13t3.5 12t4.5 9t5.5 3.5h2t2 -2q0 -1 -1 -5.5t-2.5 -10.5t-4 -12.5t-4.5 -12t-3.5 -10t-1.5 -6.5q-1 -3 -1.5 -10t-1.5 -15t-1.5 -15.5t-1.5 -10.5v-1q0 -9 2 -18.5t4.5 -18.5t4 -18.5
t1.5 -19.5q0 -5 -1 -11t-4 -10.5t-7 -7.5t-11 -3q0 3 2 5.5l4 5l4 5t3 5.5q2 6 2 10v10q0 10 -1.5 20t-3.5 19.5t-3.5 19.5t-1.5 20zM129 236q0 2 1.5 2h2.5q2 0 3.5 -0.5t2.5 -2.5v-11q0 -13 -2 -26.5t-2 -27.5v-4v-6v-6v-4q1 0 2 -1l2 -2h1q2 0 3.5 2t2.5 5t2 5.5t1 4.5
v47q0 1 1 1.5t2 0.5q3 0 3.5 -2.5t1.5 -4.5v-13v-12t-0.5 -12t-1.5 -11.5t-5 -10.5q-3 -4 -6 -5t-5 -2t-3.5 -3.5t-1.5 -9.5q0 -1 3 -3t6.5 -4t7 -5.5t3.5 -9.5q0 -8 -2 -12t-4 -6t-5 -2t-5.5 -1t-4 -3t-1.5 -6t2 -5.5t5 -2.5t5.5 -2t4.5 -4q1 -3 1.5 -6t1 -5.5t0.5 -4.5v-6
v-6q-1 -1 -2.5 -2t-2.5 -1q-2 3 -2 8v10t-1.5 8.5t-7.5 3.5q-2 0 -3 -1t-1 -4t1 -6t1 -7q0 -6 -0.5 -11t-1.5 -12q0 -1 -1.5 -1.5t-2.5 -0.5q-2 0 -3 0.5t-1 3.5v35l-0.5 0.5l-1.5 1.5v0h-1q-3 0 -5 -4t-3 -8.5t-2 -8.5t-3 -4q-3 0 -3 2v4q0 3 1 7t2.5 8t4 7.5t4.5 4.5
t4 1.5t3 2.5v2.5v3.5q0 7 -2 8.5t-5 2.5t-6 4t-6 14v1v1q2 6 3 9.5t2.5 5t5 2.5t9.5 1q1 1 1.5 2t0.5 2q0 5 -1.5 8t-4 4t-4.5 2t-3 4q-4 10 -4.5 20t-0.5 20v16t2 15l1 1t2 0q3 0 3 -2v-4v-4q0 -2 -0.5 -7t-0.5 -10.5t-0.5 -10.5t-0.5 -7q1 -2 1 -7t1 -9.5t3 -7.5t5 -3h1.5
h0.5q0 1 0.5 3.5t1 5.5t0.5 6v4v14v21v21v14zM47 139v13t0.5 11t0.5 10.5t1 12.5q1 2 2.5 8t3.5 12.5t4.5 11.5t4.5 5q3 0 3.5 -2t0.5 -4q0 -4 -1.5 -9.5t-3.5 -12t-4 -12t-4 -9.5v-67l-1 -1l-1 -1h-0.5h-0.5q-2 0 -3 2t-1 3v6t-0.5 8.5t-0.5 8.5v6zM82 130q0 2 1 8t2 14.5
t2.5 17.5t3.5 16t4 12t4 5t2.5 -2t0.5 -4t-0.5 -4.5t-2 -4.5t-2.5 -4.5t-2 -4.5q-1 -6 -1.5 -12t-2.5 -12v-13q0 -8 0.5 -15.5t0.5 -14.5q0 -2 -0.5 -3.5t-2.5 -1.5q-3 0 -4 2.5t-2 6.5t-1 9v5zM114 104v-3t0.5 -3.5t1.5 -3t3 -1.5t3.5 2t2 5t0.5 6v4q0 4 -1.5 5.5t-4.5 1.5
t-4 -1.5t-1 -3.5v-4v-4zM139 91q2 0 3.5 0.5t2.5 3.5v7v4t-0.5 4t-2 3.5t-4.5 1.5h-2.5t-1.5 -1v-21q0 -2 2 -2h3zM53 76q0 5 -1.5 9t-1.5 9q5 0 7.5 -2t3 -4.5t0.5 -6v-7.5q0 -2 -0.5 -8.5t-2 -12.5t-4 -11t-6.5 -5q-1 0 -2.5 1t-1.5 3q0 4 1.5 8.5l3 9l3 9t1.5 8.5zM92 88
q0 1 0.5 2t1.5 1q3 -2 4.5 -5t2.5 -7t1 -7.5v-7.5v-6t-0.5 -10.5t-2 -9.5t-4.5 -4q-2 0 -2.5 1t-0.5 2v2q0 1 0.5 2.5l1 3l1 3t0.5 2.5v28q0 1 -1 4t-2 5v1zM187 70q-2 0 -6.5 1t-8.5 2.5t-7 4t-3 6.5q3 0 9.5 -1t13 -3.5t11 -6t4.5 -8.5v-3.5t-0.5 -5t-2 -4t-4.5 -1.5h-1v4
q0 3 -0.5 5.5t-2 5t-2.5 4.5zM159 53q0 2 0.5 2.5t2.5 0.5h0.5h1.5l2 -1.5t3 -1.5q4 -2 9.5 -3t10.5 -3t9 -5.5t4 -8.5v-6t-0.5 -7.5t-2 -6t-4.5 -2.5h-2t-1 2v11t-4 12q-1 2 -6 3.5t-10 3.5t-9 4t-4 6z" />
</svg>
