<?xml version="1.0" standalone="no"?>
<!DOCTYPE svg PUBLIC "-//W3C//DTD SVG 1.1//EN" "http://www.w3.org/Graphics/SVG/1.1/DTD/svg11.dtd" >
<svg xmlns="http://www.w3.org/2000/svg" xmlns:xlink="http://www.w3.org/1999/xlink" version="1.1" viewBox="-10 0 266 256">
   <path fill="currentColor"
d="M186 172q0 3 0.5 10t1.5 15.5t2 18t2.5 17t3 12.5t3.5 6q2 0 3.5 -1.5t2 -4l1 -5t0.5 -3.5q0 -9 -2 -18.5t-4.5 -18.5t-4 -18.5t-1.5 -18.5q0 -3 0.5 -4t1.5 -1.5t2.5 -1.5t3.5 -3q4 -5 6 -9.5t3.5 -9t2 -9.5t0.5 -11v-3q0 -2 -0.5 -4t-0.5 -5v-2q-2 -4 -6.5 -6t-8.5 -4
t-7.5 -4t-3.5 -5q0 -1 0.5 -4.5l1 -7t1 -6.5t1.5 -3h19q1 0 2 -2.5l1 -2.5v-1q0 -2 -2.5 -3t-4.5 -1h-2h-2t-2 0.5t-2 0.5h-1q-1 0 -3 -0.5l-2 -0.5v-23l-1 -3l-1.5 -0.5t-2.5 -0.5h-3q-2 0 -3 2q1 17 -0.5 31t-2.5 30q-1 1 -2.5 1.5t-2.5 1l-2 1t-1 2.5q0 3 2.5 3.5t6 1
t8 0.5t8.5 2.5t6.5 7t2.5 13.5q0 2 -0.5 5.5t-1.5 6.5t-3 5t-5 2q-1 0 -2.5 -2t-3.5 -4.5t-5 -5t-7 -2.5q-3 0 -6.5 1t-3.5 4v1q0 1 1 1q4 -1 7.5 0.5t5.5 4.5t3 7t1 8q0 5 -2 8t-5.5 5.5t-7.5 4.5t-7 3q-2 -1 -3.5 -3.5t-1.5 -4.5v-29q0 -2 -1.5 -4t-2.5 -2h-1q-1 1 -1.5 3
l-1 4t-0.5 3v2q0 2 -0.5 6.5l-1 9t-0.5 8v4.5v10q0 6 0.5 12t2.5 11t5 5q2 0 3.5 -0.5t1.5 -3.5q0 -4 -1 -7.5t-1 -7.5t3 -6.5t6.5 -5t7.5 -4t6 -3.5h0.5h1.5h1.5t1.5 2zM73 185q1 2 2 7.5t1.5 12t1.5 13.5t2.5 12.5t4 9.5t4.5 4q3 0 4 -3t1 -6q0 -4 -1.5 -9l-3 -10
t-3.5 -10.5t-3 -9.5q-3 -11 -5 -23.5t-2 -23.5q0 -18 2.5 -36t5.5 -36l1 -2t1 -3v-13q0 -5 -1 -13.5t-3.5 -16t-7.5 -12.5t-13 -5q-1 0 -2.5 1t-1.5 3q0 3 2 5t5 4.5t5.5 4.5t3.5 4q4 5 4.5 12t0.5 13q0 11 -2 21t-3.5 20.5t-3 20.5t-1.5 21q0 3 1 9t1.5 13t1.5 13t1 8z
M128 238q0 3 0.5 4.5t3.5 1.5q7 0 7 -8q0 -12 -1 -23.5t-1 -23.5q0 -17 1 -34.5t3 -34.5q1 -2 3.5 -3t5.5 -3t5 -6t2 -14v-7l-1.5 -1.5t-2.5 -0.5t-2.5 4l-1 8t-1 7.5t-3.5 3.5q-2 0 -3 -3t-1 -4v-3v-3.5t0.5 -5.5t0.5 -5.5v-3.5q0 -7 -4 -7q-3 0 -4 2v4t-0.5 6t-0.5 5.5
v3.5v3v5q0 2 -0.5 4t-2.5 2q-5 0 -6.5 -3.5t-2 -7.5l-1 -8t-4.5 -4q-1 0 -1.5 1t-1 2.5t-0.5 3v2.5q0 8 2 12t5 6.5t6 4t5 5.5v17q0 25 -1.5 49.5t-1.5 49.5zM46 163v4t0.5 6t0.5 5.5v3.5q1 4 1.5 11.5t2 15.5t4.5 14t7 6q3 0 4 -1.5t1 -3.5q0 -5 -1.5 -9.5l-3 -9l-3 -9
t-2.5 -9.5q-1 -9 -1.5 -16.5t-0.5 -16.5q0 -8 1 -16t1 -16v-7l-0.5 -1t-1.5 -1v0q-3 0 -4 2.5l-2 5t-1.5 5.5t-0.5 4v7.5t-0.5 10t-0.5 10v5.5zM87 140v6v7.5v6.5v3q1 1 1.5 5t1 9.5t1.5 11t1 8.5t1 6.5l2 7t3 6.5t4 3q1 0 2 -1t1 -2.5v-2.5v-3q0 -5 -1.5 -11.5t-3.5 -13
l-4 -13t-2 -12.5v-46l-0.5 -1.5t-1.5 -1.5v-1v0q-2 0 -3 2l-2 4v4v7.5v6.5v5zM110 197q0 3 1 3.5t2 0.5q3 0 2.5 -1.5t0.5 -3.5q4 -10 4.5 -21.5t0.5 -21.5v-3v-5v-6t-1.5 -5t-3.5 -2h-1l-0.5 0.5l-1.5 1.5v10t-0.5 15.5t-0.5 16v9.5q0 1 -0.5 3t-0.5 3.5t-0.5 3.5zM50 91
q0 3 4 3t6.5 -3.5t3.5 -8t1 -9.5v-8q0 -4 -0.5 -9.5t-2 -10.5t-4.5 -8t-9 -3q-2 0 -3.5 0.5t-1.5 2.5q0 4 2 7t4 6.5t3.5 8t1.5 10.5v1q0 2 -0.5 5t-1.5 5.5t-2 5.5t-1 5zM92 90v1l1 0.5t1 1.5h1q3 0 4.5 -4t3 -9.5t2 -10.5t0.5 -6v-8t-1 -10.5t-3 -9.5t-6 -4q-2 0 -2.5 1
t-0.5 2q0 8 2.5 15.5t2.5 15.5v1.5v0.5q0 1 -1 4.5t-1.5 7t-1.5 7t-1 4.5zM150 65q3 0 4.5 2t2.5 5t2.5 5t4.5 2t3.5 -1t0.5 -3t-1.5 -6t-4 -10t-5.5 -12t-6 -11.5t-6 -9.5t-4 -5q-3 0 -4.5 0.5t-2 1.5t-0.5 2.5t-1 3.5q-2 3 -5.5 9t-7 12.5t-6 12.5t-2.5 9v3t1 2
q3 -2 4.5 -5.5t3.5 -4.5q2 0 5.5 -0.5t7.5 -0.5t8 -0.5t5 -0.5h3zM141 36q2 0 4 2.5t2.5 5.5l1 6t0.5 5q0 1 -0.5 2t-1.5 1h-17v-3l1 -2l2.5 -5l3 -6l2.5 -5q1 0 1.5 -0.5z" />
</svg>
