<?xml version="1.0" standalone="no"?>
<!DOCTYPE svg PUBLIC "-//W3C//DTD SVG 1.1//EN" "http://www.w3.org/Graphics/SVG/1.1/DTD/svg11.dtd" >
<svg xmlns="http://www.w3.org/2000/svg" xmlns:xlink="http://www.w3.org/1999/xlink" version="1.1" viewBox="-10 0 266 256">
   <path fill="currentColor"
d="M65 164q0 10 1 19t3 19q1 0 2 4t2.5 9t3.5 11t4 11t4 8.5t3 3.5t3.5 0.5t3.5 0.5q0 -1 -0.5 -3t-0.5 -4t-0.5 -4t-0.5 -3l-1 -2t-2 -4.5t-2 -4t-2 -2.5q-6 -15 -9 -29t-3 -30q0 -15 2 -29.5t4 -29.5t4 -29.5t2 -29.5q0 -4 -0.5 -8.5t-2 -9t-2.5 -9t-1 -7.5q-2 -3 -3 -3.5
t-3 -0.5q-4 0 -4.5 1.5t-0.5 4.5q0 4 1.5 8.5t3 9.5l3 10t1.5 10q0 14 -2 28t-4.5 28t-4.5 28t-2 28zM130 247q0 2 2 2h3q3 0 4 -1t1 -4q0 -4 -1.5 -8.5t-3.5 -7.5q-2 -12 -5.5 -26t-3.5 -27q0 -4 2 -7.5t7 -3.5t8 8t6 18.5t4.5 21.5t3.5 16q0 1 0.5 3.5t1.5 6t2 6t1 3.5
q0 2 1.5 2h2.5q3 0 3.5 -0.5t0.5 -3.5v-2q0 -1 -0.5 -2.5l-1 -3l-1 -3l-0.5 -1.5q-5 -16 -9 -32l-8 -32l-1 -2.5l-1 -2.5q1 -2 4.5 -4.5t6.5 -2.5q1 0 1.5 0.5l1.5 1.5q0 1 1 4.5l2 7l2 7t1 4.5q1 3 3.5 9t5.5 13.5t6.5 15.5t6.5 14.5t6 10.5t4 4q4 0 5 -2t1 -5q0 -5 -3 -11
t-6.5 -12.5t-7 -12.5t-5.5 -11q-7 -14 -11 -28.5t-8 -28.5q-1 -6 -4.5 -8.5t-7 -3.5t-7.5 -1t-7.5 -1t-5.5 -2.5t-2 -6.5q0 -1 0.5 -2.5t3.5 -2.5q1 0 3.5 -0.5t5 -0.5t5 -0.5t3.5 -0.5h1q8 0 12.5 2.5t7.5 6.5t4.5 10t4.5 12q4 9 8.5 18t8.5 18q0 2 0.5 4.5t1.5 5t3 4
t4 1.5q3 0 3.5 -1.5t0.5 -4.5q0 -5 -3.5 -10.5t-6.5 -11.5q-6 -13 -11.5 -26.5t-10.5 -27.5q-4 -5 -10 -7t-12.5 -2.5t-13.5 -0.5t-12 -1q0 -1 -0.5 -2l-0.5 -1q0 -7 3 -10t8 -4t10 -1.5t10 -0.5t11.5 0.5t11.5 3.5q3 2 6 7.5t5.5 12t5 14t4 13.5t3.5 10t3 4q3 0 3 -1.5
v-4.5q0 -8 -2 -18t-5.5 -20t-10 -18t-15.5 -11q-6 -1 -10 -1q-3 0 -5 -1t-3 -3.5t-1 -9.5v-1t0.5 -2t0.5 -2.5t1 -1.5h34q1 0 2 -1t2 -2.5l2 -3t1 -2.5t-2 -1h-3q-8 0 -16.5 0.5t-16.5 0.5h-2t-1 -1v-12l1 -1t2 -1.5t2.5 -1.5l1.5 -1h30q3 0 6 -1.5t3 -4.5q0 -2 -1 -3t-3 -2
h-2h-3h-4h-2h-6h-5t-8 0.5t-14.5 1t-14 1t-8.5 0.5h-5.5h-7t-5.5 1.5t-2 5.5v2t1 3h2h3.5h3.5h2q5 0 8.5 -1t8.5 -1q2 0 3 1t3 4v16q0 6 0.5 12.5t-1.5 12.5q-1 0 -1.5 0.5l-0.5 0.5q-11 0 -17.5 2.5t-9.5 7.5t-3.5 12t-0.5 16v15q1 3 4.5 6t4.5 4h4t6 0.5t6 0.5h4q9 2 9 9
q0 4 -3 6t-7.5 2.5t-10 1.5t-10 3.5t-7.5 7t-3 13.5q0 15 2 28t6 28q1 1 1.5 3t1 4.5t1 4.5zM41 187q1 2 3 10t5 16.5t6 15.5t5 7h1q1 0 2 -0.5t2 -1.5v-4q0 -5 -1.5 -9t-3.5 -8l-4 -8t-3 -8q-2 -5 -2 -11v-11q0 -18 2.5 -33t5.5 -32l0.5 -2l0.5 -2q0 -3 -1 -5.5t-4 -2.5
t-5 1.5t-2 3.5q-1 3 -2 9.5t-2 14.5t-2 14.5t-1 9.5v2v5v6v5v3v6v5v4zM88 148v19q0 4 1 13t3.5 18t5 16t6.5 7h1l0.5 -0.5l0.5 -0.5v-3v-3q0 -4 -1 -8t-2 -7.5t-2.5 -7.5t-2.5 -7q-1 -6 -1.5 -9.5t-0.5 -7.5v-7v-10q0 -14 2 -27t2 -26q-4 0 -6.5 4t-3.5 9.5t-1.5 11
t-0.5 8.5v18zM48 85v0v0q0 1 1 2t2 1v0.5t1 0.5q5 0 7.5 -4t3.5 -9.5t1.5 -11t0.5 -8.5q0 -2 -0.5 -8t-2 -12t-4 -10.5t-6.5 -4.5q-6 0 -6 6v2v1l10 18q-2 5 -2 12q0 6 -1 12q-1 3 -3 6.5t-2 6.5zM100 46q0 5 -1 9.5l-2 9l-2 9t-1 9.5q6 0 9 -4.5t4 -10.5t1 -12v-10t0.5 -9
t-1 -9t-4 -6.5t-7.5 -2.5q0 7 2 13.5t2 13.5z" />
</svg>
