<?xml version="1.0" standalone="no"?>
<!DOCTYPE svg PUBLIC "-//W3C//DTD SVG 1.1//EN" "http://www.w3.org/Graphics/SVG/1.1/DTD/svg11.dtd" >
<svg xmlns="http://www.w3.org/2000/svg" xmlns:xlink="http://www.w3.org/1999/xlink" version="1.1" viewBox="-10 0 266 256">
   <path fill="currentColor"
d="M128 214q0 2 0.5 8.5t1.5 12.5t3 11t7 5l1 -0.5t2 -1.5v-1.5v-2.5q0 -4 -1 -7.5t-2.5 -7.5t-2.5 -7.5t-1 -7.5q0 -7 1.5 -13t3.5 -12t4 -11.5t4 -12.5v-0.5v-1.5q0 -5 -3.5 -7.5t-7.5 -2.5q-8 0 -13 5t-7.5 12.5t-3 15t-0.5 13.5q2 0 4.5 -3.5t4 -8.5t2.5 -10t2 -7
q1 -3 4 -6l5 -5h1h1l2 2v6q0 2 -0.5 5.5t-1.5 6.5t-2.5 6t-3.5 4q-2 4 -2.5 7t-0.5 5.5t-0.5 5t-0.5 6.5zM150 209q0 3 1 10t2.5 14t4.5 12.5t6 5.5t4 -2t1 -4v-2q-7 -8 -8.5 -15t-1.5 -17q0 -7 2 -14l4 -14t4 -13.5t2 -13.5q0 -6 -2 -10t-4.5 -7.5t-4.5 -6.5t-2 -6
q0 -5 2.5 -8.5t2.5 -8.5v-9.5t-2 -9.5l5 -5h2t4.5 -0.5t5.5 -0.5h5h4h6h6.5h4.5t2.5 -1t0.5 -2q0 -4 -4 -4.5t-6 -0.5q-9 0 -18 0.5t-18 0.5v-15l2 -2q1 0 5 0.5t8 0.5t8 -0.5t5 -0.5h3t3.5 -0.5t3 -1.5t1.5 -2q0 -2 -0.5 -2.5t-2.5 -0.5h-26q-2 0 -2 -1.5v-1.5q0 -3 1 -5.5
t2 -4.5q8 1 16.5 0.5t16.5 -2.5q1 0 1.5 -1.5t0.5 -2.5q0 -3 -3 -3h-6q-4 0 -7.5 0.5t-6.5 0.5t-4.5 -0.5t-1.5 -3.5q0 -4 2.5 -7t2.5 -7q0 -5 -5 -5q-4 0 -6.5 6t-4.5 14t-4.5 14.5t-6.5 6.5q-3 0 -6 -6t-6 -13.5t-6.5 -13t-8.5 -5.5q-4 0 -4 3q0 2 1.5 4l3 4t2.5 4t1 4
t-3 3t-6 1.5t-6 0t-4 -0.5l-3 3l3 4h3h3q5 0 9 -1t8 -1q5 0 7.5 4.5t2.5 8.5v1v0l-6 4h-24q0 3 1.5 4.5t3 2t4.5 0.5h5q5 0 10.5 -0.5t10.5 -0.5v15l-33 3q-3 0 -3 3t3 3h5h6h3.5t5.5 -0.5t5.5 -0.5h2.5q5 0 6.5 3.5t1.5 7.5q0 12 -6 20t-13 13t-12.5 8t-5.5 5t1.5 2h2.5h2
h1q1 0 4 -1.5l6 -3t5.5 -3t3.5 -1.5l1 -1l2 -2l2 -2t1 -2h1q2 0 4 4t3.5 8.5t2.5 9.5t1 7q0 7 -2 13t-4 12.5t-4 12.5t-2 12zM178 207q1 3 2.5 9.5t3.5 13.5t5.5 12.5t7.5 5.5q3 0 3 -1.5v-3.5q0 -5 -1.5 -9.5t-3.5 -8.5t-4 -8.5t-2 -9.5q0 -7 2 -12.5t4.5 -11.5t4.5 -12
t2 -13q0 -5 -2.5 -10t-5.5 -10t-5.5 -10.5t-2.5 -11.5q0 -3 1 -4.5t1.5 -3.5t1.5 -4t1 -4t-1 -4.5t-4 -2.5q-2 0 -4 3.5t-2.5 8l-1 9t-0.5 6.5q0 6 2.5 11l5 10t5 10.5t2.5 11.5q0 5 -2 10.5t-4.5 11.5t-4.5 11.5t-4 10.5zM71 173q0 11 1.5 23.5t6.5 22.5q0 1 1 3.5t2 3.5
q0 2 0.5 5t1 6.5t2.5 6t6 2.5q2 0 2 -2v-4v-3q-3 -8 -5 -14.5t-3.5 -12.5t-2.5 -12t-3 -13v-39q4 -16 6 -33.5t2 -34.5q0 -16 -3.5 -29t-13.5 -26q-1 -1 -2.5 -2t-2.5 -1q-3 0 -4 2t-1 4q0 3 2 6t4.5 6t4.5 6t4 5q3 8 3.5 17t0.5 18q0 11 -1.5 22l-3 22l-3 22t-1.5 23z
M50 169q0 18 2.5 34t8.5 34q1 1 2.5 3.5t2.5 2.5q3 1 4 -2t1 -4q0 -6 -1.5 -11t-4 -10.5t-4 -11t-1.5 -11.5v-45q0 -1 0.5 -3.5t1 -4.5t1 -4.5t0.5 -3.5v-1.5t-0.5 -3t-1.5 -2.5t-3 -1q-2 1 -3 3.5t-1 4.5q-1 1 -1.5 3l-1 4t-0.5 4t-1 3v5v6.5v6.5v5zM91 167q0 3 0.5 8.5
t1.5 13t2.5 15.5t3.5 14.5t4.5 11t5.5 4.5q2 0 3 -2.5t1 -3.5q0 -2 -1.5 -5l-3 -6l-3 -6t-2.5 -6q-2 -10 -4 -21t-2 -22q0 -9 1.5 -17.5t1.5 -17.5l-1 -1l-2 -2v0h-1q-1 1 -2 2.5t-1 2.5q-1 6 -1.5 10.5t-0.5 9v8.5v10zM111 122q0 2 2.5 2.5t3.5 0.5q9 0 15 -6t6 -16
q0 -3 -0.5 -5.5t-4.5 -4.5q-2 1 -2.5 3l-1 4t-0.5 4v3q-1 3 -4 5t-6 3t-5.5 2.5t-2.5 4.5zM52 108v1.5t1 3t1.5 2t2.5 0.5q4 -2 5.5 -6t2 -9.5t0.5 -10.5v-8v-15q-2 -2 -2.5 -5.5t-1.5 -6.5t-2.5 -5.5t-4.5 -2.5t-4 0.5t-1 3.5q0 4 1 8l2 8l2 8t1 8q0 7 -1.5 13t-1.5 13z
M96 105v3t2 2q3 0 4.5 -4t2.5 -9t1.5 -9.5t0.5 -7.5v-9.5t-0.5 -13t-3 -11.5t-8.5 -5q0 9 2 17.5t2 16.5t-1.5 15t-1.5 15z" />
</svg>
