<?xml version="1.0" standalone="no"?>
<!DOCTYPE svg PUBLIC "-//W3C//DTD SVG 1.1//EN" "http://www.w3.org/Graphics/SVG/1.1/DTD/svg11.dtd" >
<svg xmlns="http://www.w3.org/2000/svg" xmlns:xlink="http://www.w3.org/1999/xlink" version="1.1" viewBox="-10 0 266 256">
   <path fill="currentColor"
d="M145 211q2 7 5.5 13t10.5 11q2 2 6 5t8 5t8.5 4t8.5 2q3 0 6 -1.5t3 -4.5q0 -4 -5.5 -6.5t-12 -4t-11.5 -4t-5 -6.5q0 -5 3 -7.5t7.5 -3.5t9.5 -1.5t9.5 -2.5t7.5 -6.5t3 -12.5q0 -5 -4.5 -9t-9.5 -6.5t-9.5 -4.5t-4.5 -4t2.5 -3t5.5 -3t5.5 -4.5t2.5 -8.5q0 -7 -2 -10
t-5 -4t-7.5 -1.5t-9.5 -1.5q-1 -1 -2 -2.5t-1 -2.5q0 -3 3 -4t7 -1.5t8.5 -1.5t9 -2.5t7 -5t2.5 -9.5v-23q0 -2 -1 -4t-2.5 -4t-3.5 -3.5t-3 -1.5h-24l-0.5 -1.5t-0.5 -3v-3.5v-2v-3q7 -1 13.5 -1t12 -2.5t9 -7t3.5 -14.5q0 -2 -1.5 -5t-5.5 -3t-4.5 3.5t-1 8t-4 8.5
t-14.5 4l-2.5 -0.5t-2.5 -1.5v-26q0 -2 -2.5 -3.5t-3.5 -1.5q-2 0 -3.5 1t-1.5 4v23q0 2 -2.5 4t-4.5 2q-6 0 -9 -1.5t-4 -4.5t-1.5 -6t-1 -5.5t-1.5 -4t-5 -1.5q-3 0 -3.5 2.5t-0.5 4.5q0 8 2.5 12.5t6 6.5t7.5 3t8 1.5t6.5 2t2.5 4.5q0 4 -2 5.5t-5 2t-7 1t-7 1t-6 2.5
t-4 6q-2 7 -3.5 11t-1.5 9q0 7 2.5 11.5t7 7t10 3.5t11.5 2l1.5 1t1.5 2v0v1q-1 1 -2 4t-3 4q-4 0 -8 0.5t-7.5 2.5t-5.5 5t-2 8q0 3 1.5 5.5t3 4.5t3.5 4.5t2 4.5q0 4 -4 5.5t-9 3.5t-8.5 5.5t-3.5 9.5t2.5 9.5t7 6t9.5 3t10 1.5zM72 158v25q0 1 0.5 3.5t1 5.5l1 6t1.5 5
q0 3 1 8.5t3 10.5t4.5 9t6.5 4q3 0 4 -1t1 -4t-1.5 -6.5l-3 -7t-3 -7.5t-1.5 -6q-3 -11 -5 -23.5t-2 -22.5q0 -14 2 -26.5t5 -25t5 -25t2 -25.5v-10q-2 -3 -3.5 -8.5t-4 -10.5t-5.5 -9t-9 -4t-6 6q0 3 3 6t7 4q5 9 7 17.5t2 19.5q0 7 -1.5 13.5t-3 13.5t-3.5 13.5t-3 13.5
q-1 5 -1.5 9.5t-0.5 8.5v9.5v10.5zM48 169q0 2 0.5 7t1 12t1.5 14t2.5 13t3.5 10t5 4t4.5 -1.5t1.5 -4.5q0 -6 -2.5 -11.5t-3.5 -11.5q-2 -8 -2.5 -17.5t-0.5 -18.5q0 -10 0.5 -19.5t2.5 -20.5q1 -2 1 -3.5v-3.5q0 -3 -1 -3.5t-3 -0.5q-5 0 -7.5 7.5t-3 17t-0.5 18.5v13z
M94 158q0 2 0.5 8t1.5 12.5t2 14t3 13t5 9t6 3.5h2h2q1 -1 1.5 -2t0.5 -2t-0.5 -1.5l-0.5 -0.5q-3 -7 -5.5 -13.5t-4.5 -13t-3 -13t-1 -14.5t1 -16t1 -16v-6q0 -1 -1.5 -2l-1.5 -1q-2 -1 -3 0.5t-2 3.5t-1 4v2q0 1 -0.5 3.5t-0.5 6t-0.5 6t-0.5 3.5v2v3v4v3zM148 184h-0.5
h-0.5q-1 2 -1 5t-0.5 5.5t-2 4t-4.5 1.5q-2 0 -4.5 -0.5t-4.5 -1.5t-3.5 -2.5t-1.5 -4.5t2.5 -5.5t6.5 -4.5t7.5 -3.5t5.5 -2.5q1 0 1.5 -2l1 -4t1.5 -3.5t2 -1.5h15q1 0 2 1.5l2 3l2 3t2 2.5q3 2 6.5 3.5t6 3t4.5 4t2 6.5v3v3q-2 2 -5.5 4t-6.5 2q-4 0 -4 -3t-0.5 -6.5
t-2.5 -6.5t-9 -3q0 3 0.5 5.5t0.5 6.5v6q0 2 -0.5 5t-2 5t-4.5 2q-4 0 -5.5 -2t-2 -5.5t-0.5 -7.5v-7t-1 -5.5t-4 -2.5zM140 147q0 -3 1.5 -5t4 -2.5l5 -1t5.5 -0.5h7h9.5t8 1.5t3.5 5.5q0 5 -3.5 7t-8 2.5t-9 0.5h-6.5h-3h-4.5h-4.5h-3q-1 -2 -1.5 -4t-0.5 -4zM136 102
l-0.5 -1.5t0 -3t1.5 -1.5h20q1 0 2 2.5t2 3.5q0 3 -2 5.5t-5 2.5h-6q-3 0 -5.5 -0.5t-4.5 -2t-2 -5.5zM170 103v-2t0.5 -2.5t1 -2.5t1.5 -1h18q2 0 2 1.5v2.5q0 3 -1.5 5t-3.5 3t-4.5 1.5t-5.5 0.5h-3h-4q-1 -2 -1 -3v-3zM97 98q0 3 3 3q5 0 8.5 -4t5.5 -10t3 -12t1 -8
t-1 -8t-2.5 -12t-4 -10.5t-7.5 -3.5q-1 0 -1 2v3q0 3 1 6t2 6.5t2 6.5t1 7q0 5 -1 9t-2.5 8t-3.5 7.5t-4 7.5v0.5v1.5zM54 92q0 2 1.5 2.5t3.5 0.5q5 0 7.5 -3.5t3.5 -9t1 -10.5v-9q0 -7 -3 -13t-9 -11h-2q-2 0 -4 1.5t-2 4.5t1.5 6t2.5 6t2.5 6t1.5 7q0 6 -2.5 11t-2.5 11z
M154 73q1 0 3 0.5t2 1.5v14h-22q0 -8 5 -12t12 -4zM170 80v-1l1 -4h17q2 0 4.5 2.5t2.5 4.5v1l-1.5 2t-2.5 2h-20l-0.5 -2.5t-0.5 -3.5v-1z" />
</svg>
