<?xml version="1.0" standalone="no"?>
<!DOCTYPE svg PUBLIC "-//W3C//DTD SVG 1.1//EN" "http://www.w3.org/Graphics/SVG/1.1/DTD/svg11.dtd" >
<svg xmlns="http://www.w3.org/2000/svg" xmlns:xlink="http://www.w3.org/1999/xlink" version="1.1" viewBox="-10 0 266 256">
   <path fill="currentColor"
d="M167 251q1 2 3 2t3.5 -1.5t2 -3t1 -3.5t0.5 -4v-4.5v-8.5v-7.5v-4.5q0 -5 4 -8.5t8.5 -7t8 -7t4.5 -10.5v-2v-5v-5v-5v-5v-6v-5v-2q0 -3 -1 -7l-2 -8t-4 -7t-7 -3q-1 0 -5.5 -0.5t-9.5 0t-8.5 2.5t-3.5 5h23q3 0 4 0.5t1 2.5t-2 3.5t-4 2.5t-4.5 1t-2.5 1q-1 0 -3 0.5
t-4.5 1.5t-4.5 1.5l-2 0.5q-2 2 -2 5q5 0 8.5 -1t7 -3t7 -3t6.5 -1q2 0 2.5 2t0.5 4q0 3 -5 5.5t-11 4.5t-10.5 4t-4.5 6h6.5t5 -0.5t5 -1.5t5.5 -3q2 -1 3 -2l1.5 -1.5t1.5 -1t2 -0.5q2 0 2.5 1t1 2.5t0.5 3.5v3v3t-2 2q-9 3 -16.5 6t-16.5 6v1q0 3 1 3.5t3 0.5q1 0 2 -0.5
l1 -0.5l23 -7q1 0 1.5 1t0.5 2q0 6 -4 8.5t-9 6t-9 8.5t-4 15v6.5v7t0.5 7t0.5 7.5zM117 248l1 1t2 1h1q3 0 4.5 -4.5t2 -10t1 -11.5t1.5 -8q2 -6 5 -9.5t9 -8.5q3 -3 7.5 -6t4.5 -8v-1.5v-0.5l-0.5 -1t-0.5 -2.5t-0.5 -2.5l-0.5 -1v-5v-9v-8v-5q0 -8 -1 -13t-4 -7
t-8.5 -2.5t-13.5 -0.5q-2 0 -6 0.5t-6 0.5l-1 2v0v1l1 1.5t2 1.5h27v9q0 1 -4.5 1.5t-10 1t-11 2.5t-7.5 5v1q0 2 1.5 2h2.5q4 0 7.5 -1t7.5 -2.5t7.5 -2.5t7.5 -1q2 0 2 2v3q0 8 -9 6l-24 11l-2 1v1q0 2 1.5 2h3.5q3 0 6.5 -1.5t7 -3.5t7 -3.5t6.5 -1.5q1 0 1.5 0.5
l0.5 0.5v11q0 1 -5.5 2.5t-11.5 3.5t-11.5 4t-5.5 5v1l2 1h1q4 0 7.5 -1.5t7.5 -3.5t7.5 -3.5t7.5 -1.5q0 6 -2.5 9.5t-6 6.5t-7.5 6t-7 8q-2 2 -3 6t-1.5 8.5t-0.5 9v7.5v5zM72 153q0 19 2.5 36t7.5 36q1 3 2.5 6t5.5 3q2 0 3.5 -1.5t1.5 -4.5q0 -2 -1 -5t-2.5 -6.5l-3 -7
t-1.5 -5.5q-4 -12 -5 -24.5t-1 -25.5q0 -26 6 -52q0 -3 1.5 -4.5t2.5 -5.5q1 -6 2 -12.5t4 -12.5v-3v-5.5v-4.5v-4v-4v-6v-5v-2q-1 -6 -1 -10q0 -5 -1 -8.5t-4 -5.5t-9 -2q0 5 1 10t2.5 10l3 10t1.5 10q0 11 -2 22t-6 21q0 1 -1 3t-2 4.5t-1.5 5t-1.5 2.5v6v8t-1 8t-3 6v5
v5.5v5.5v4zM54 178q1 3 1.5 9.5t1 14t2.5 13.5t7 6q3 0 3 -2.5v-4.5q0 -4 -0.5 -8.5t-1.5 -9.5t-2.5 -10t-2.5 -8v-19q0 -13 2 -25.5t2 -25.5q0 -3 -2 -3.5t-4 -0.5h-3q0 1 -1 4q-1 4 -1.5 7t-0.5 5.5v6v8.5v21v22zM94 145v6t0.5 12t1 15t1.5 15t3 11t4 4t2.5 -1.5t0.5 -3.5
v-5l-0.5 -2l-1 -4t-1 -4.5l-0.5 -2.5q-1 -9 -1.5 -17.5t-0.5 -18.5t1.5 -20t1.5 -19q0 -3 -1 -5.5t-4 -2.5q-2 0 -3 6t-2 13t-1 14v10zM134 82v6.5t0.5 9t2 8t4.5 4.5q6 1 13 2t13 1h4q3 0 5.5 -0.5t4.5 -1.5t3 -3q1 -3 2 -5.5t1 -4.5v-4.5v-5.5v-3v-3.5t-1.5 -3t-3.5 -1.5
q-3 0 -3.5 2t0.5 6h-6.5t-9 0.5t-9 0.5h-6.5h-3q-2 0 -3 -1t-1.5 -2.5t-1 -2.5t-2.5 -1q-3 0 -3 3zM143 99q0 -4 2.5 -5.5t6 -2t7 0t5.5 0.5h10q2 1 2.5 2.5t0.5 3.5q0 3 -1.5 5t-3.5 2q-2 1 -5 1h-4h-6.5t-6.5 -0.5t-5 -2t-2 -4.5zM100 88v3q6 0 10 -5.5t5.5 -12.5t2 -15
t0.5 -12q0 -2 0.5 -5.5t0 -7t-2.5 -6.5t-5 -3q-2 0 -3.5 1t-1.5 3q0 5 2 11t2 12q0 11 -2.5 19t-7.5 18zM115 88q0 3 3 3t6 -4t6.5 -9t6 -9.5t3.5 -5.5q1 -2 3.5 -6.5t5.5 -9t5.5 -8.5t3.5 -6t2.5 -2.5t2.5 -0.5q2 0 4.5 3.5t4.5 8t3.5 8.5t1.5 5v3t-3 1l-27 4q-1 0 -1 1v2
v1q1 0 3.5 0.5t5.5 0.5h5.5h3.5h1h1q1 0 3 -0.5l4 -1t3.5 -0.5h2.5l1 -1t2 -1v0q2 0 4 4.5t4 9.5t4 9t5 4q2 0 4 -2t2 -4q0 -3 -1.5 -6t-3.5 -6.5t-4 -6.5t-3 -5l-1.5 -2.5l-3 -5t-2.5 -4.5t-2 -3q0 -1 -2.5 -5.5t-4.5 -9t-4 -8.5l-3 -6q-1 -3 -2.5 -4t-3.5 -1q-5 0 -7 5
q-11 17 -20.5 33t-19.5 33q-1 2 -1.5 2.5t-0.5 2.5zM59 86q0 3 4 3q3 0 5.5 -3.5t4 -8t2 -9.5t0.5 -7v-4t-0.5 -7t-0.5 -7.5v-5.5q-1 -3 -2.5 -6.5t-5.5 -3.5q-2 0 -3.5 1.5t-1.5 3.5q0 6 2 12.5t2 14.5q0 4 -1 7.5l-2 7t-2 6.5t-1 6z" />
</svg>
