<?xml version="1.0" standalone="no"?>
<!DOCTYPE svg PUBLIC "-//W3C//DTD SVG 1.1//EN" "http://www.w3.org/Graphics/SVG/1.1/DTD/svg11.dtd" >
<svg xmlns="http://www.w3.org/2000/svg" xmlns:xlink="http://www.w3.org/1999/xlink" version="1.1" viewBox="-10 0 266 256">
   <path fill="currentColor"
d="M206 200q0 14 -2.5 26.5t-2.5 25.5q3 0 6.5 -1.5t4.5 -4.5q0 -2 0.5 -6.5l1 -9t0.5 -9v-5.5v-12v-26.5t-2 -27.5q0 -2 -0.5 -7.5t-1.5 -11t-2 -10.5t-2 -6q-2 -3 -5.5 -5.5t-6.5 -5.5t-5.5 -6.5t-2.5 -6.5q0 -4 3 -5.5t7 -3t8.5 -3.5t6.5 -7q0 -8 0.5 -18t0.5 -20
q0 -3 -1 -6t-6 -3q-2 0 -3 0.5t-1 3.5q0 1 -0.5 3t-0.5 5t-0.5 5.5t-0.5 3.5q-3 2 -8 2.5t-9 0.5h-10h-9l-1.5 1l-1.5 1l-0.5 -0.5l-1.5 -1.5q-2 -4 -4 -7t-4.5 -5t-6.5 -3t-9 -1q-8 0 -12 2.5t-6 6.5t-3 9.5t-1 11.5t2.5 10.5t5.5 8.5t5 7t2 7v105q0 2 -1.5 3t-3.5 1
q-3 0 -5.5 -2t-3 -4.5t-0.5 -6v-6.5q0 -20 1.5 -39.5t1.5 -39.5q0 -2 -0.5 -4.5t-3.5 -2.5q-2 0 -3 2t-1 3v10.5v15.5v15v10q0 2 -0.5 7t-1.5 10.5t-1.5 10.5t-0.5 6v1q0 8 3 12.5t7.5 7t10.5 3t13 0.5h7t8 -2q1 0 1.5 -1t0.5 -2v-1v0v-1q-1 0 -2 -1.5l-1 -1.5h-17v-35
q6 0 10.5 -1.5t6.5 -6.5q1 -11 1.5 -20.5t0.5 -20.5v-4v-7t-0.5 -6t-0.5 -4t-1 -2t-2 -1v-0.5t-1 -0.5v0.5t-1 0.5v7t-0.5 11t-0.5 11v7v8t-0.5 10t-2 9t-3.5 4q-3 0 -4.5 -2t-1.5 -5v-65q0 -4 -2 -6.5t-5 -5t-5 -6.5t-2 -11v-10t2 -6.5t5.5 -3.5t9.5 -1q4 0 6 1.5t3 3.5
t1.5 5.5t0.5 6.5q0 4 -0.5 7.5t-1.5 7.5l-2 2t-2.5 1.5t-3 1.5t-1.5 2q0 2 2 3.5t4 1.5q4 0 6.5 -2.5t4 -5.5t2.5 -7t2.5 -7t4 -5.5t7.5 -2.5h3t2 2q0 1 0.5 3l1 4t0.5 3.5v2.5v2q0 4 -2 5.5t-5 2.5t-5.5 1.5t-2.5 2.5t2 2h4.5h4.5t2 1q1 3 1.5 5t0.5 4t0.5 3.5t2.5 4.5
q3 2 5.5 4.5t5 5.5t4.5 5.5t3 6.5q2 7 3.5 17t2 20l1 20t0.5 17zM70 212q0 2 0.5 6t1.5 7t3 5.5t4 2.5q4 0 4 -3v-6q0 -6 -2 -11.5t-3 -11.5q-1 -12 -1.5 -21.5t-0.5 -21.5q0 -2 0.5 -5.5t0.5 -4.5q0 -3 1 -11t2.5 -17t2.5 -16.5t2 -10.5q-1 -2 -0.5 -4l1 -4t1.5 -3.5
l1 -1.5v-37q-3 -4 -4.5 -9t-3.5 -10t-5.5 -8.5t-9.5 -3.5q-2 0 -3.5 0.5t-1.5 3.5l1.5 1.5t1.5 2.5q4 5 7 9t5 8.5t3.5 9t1.5 10.5q0 12 -3 23t-4 22q0 3 -0.5 9.5t-1 13.5t-1 13t-0.5 9v4v10v10v9v6v10v10v6zM44 175q0 11 1.5 22.5t3.5 22.5q0 1 0.5 3t1 3.5t1.5 3.5t2 2
q8 0 8 -7v-2v-1q0 -1 -1 -3t-1.5 -4.5t-1.5 -4.5t-1 -3q-2 -6 -2.5 -10t-0.5 -7.5v-7.5v-10v-21t3 -20q2 -6 3.5 -12t1.5 -13q-1 0 -4 0.5t-4 1.5q-2 2 -3.5 8.5t-3 13.5t-2.5 13.5t-1 9.5v3v6.5v6.5v6zM91 219q1 1 2 1.5t3 0.5t3 -1.5t1 -3.5q0 -3 -1 -6.5t-2 -7.5t-2 -7
t-1 -5v-6v-10v-10v-6v-3.5t-0.5 -6t-0.5 -6.5v-3q0 -7 2.5 -13.5t2.5 -13.5q0 -1 -0.5 -2.5t-2.5 -1.5t-3.5 4t-2.5 9t-1.5 10t-1.5 8v4v6.5v6.5v4v6v6.5v6.5v3q1 2 1.5 7t1 11t1.5 11.5t1 7.5zM167 127q-1 0 -2.5 0.5t-1.5 1.5v61q0 2 2 3l4 2t4.5 1h3.5q5 0 9 -1t7 -5
q2 -9 2 -17v-18v-19q0 -1 -0.5 -2t-1 -2.5t-1 -2.5t-1.5 -1l-4 3v19h-17v-21q0 -1 -1.5 -1.5zM180 156q3 0 5.5 1t2.5 4v7t-1 10t-3 8.5t-6 3.5q-2 0 -5 -3t-3 -5v-19q0 -2 1 -3.5t2.5 -2t3.5 -1t3 -0.5zM52 62q0 4 -1 8l-2 8t-1.5 8t-0.5 8q6 0 9.5 -3.5t5 -9t2 -11.5
t0.5 -11q0 -3 -0.5 -8t-2.5 -9.5t-4.5 -8t-7.5 -3.5q-3 0 -3.5 1t-0.5 3q0 3 1 6.5t2.5 7t2.5 7t1 7.5zM100 59q0 6 -2 12.5t-2 12.5v5l7 -3l0.5 -2.5t1.5 -6t1.5 -7.5t1.5 -6v-3q0 -7 -2 -14t-3 -14q-1 -2 -3 -3t-4 -1q0 8 2 15t2 15zM195 54q4 0 5 3t1 7q0 1 -0.5 3.5
t-1.5 4.5t-3 3t-4 1h-1l-2.5 -1t-2.5 -2v-18l1 -0.5t2.5 -0.5h3.5h2z" />
</svg>
