<?xml version="1.0" standalone="no"?>
<!DOCTYPE svg PUBLIC "-//W3C//DTD SVG 1.1//EN" "http://www.w3.org/Graphics/SVG/1.1/DTD/svg11.dtd" >
<svg xmlns="http://www.w3.org/2000/svg" xmlns:xlink="http://www.w3.org/1999/xlink" version="1.1" viewBox="-10 0 266 256">
   <path fill="currentColor"
d="M117 198q0 5 1.5 13.5t4 17.5t6.5 15.5t9 6.5q3 0 3.5 -1.5t0.5 -3.5q0 -3 -1.5 -6.5t-3.5 -6t-3.5 -5.5t-3.5 -6q-3 -8 -3 -16v-16q0 -6 1.5 -11t3 -10.5t2.5 -11t1 -11.5q0 -3 -0.5 -7t-1.5 -8t-3.5 -7t-6.5 -3h-2.5t-1.5 2q0 1 0.5 3t2 4.5t2.5 4.5t1 4v10q0 6 -1 12
t-2.5 12t-3 12.5t-1.5 12.5zM52 247q0 2 2 2h3q4 0 5.5 -3.5t1.5 -8t-0.5 -9t-0.5 -6.5t0.5 -8.5t1.5 -14.5t1.5 -17.5t1.5 -17.5t1.5 -14.5t0.5 -8.5v-2v-4v-5t1 -3q1 0 2.5 -1t3.5 -2.5t3.5 -2.5t2.5 -2q2 0 7 -1t11.5 -1.5t11.5 -1t8 -1.5h13h12q6 0 11.5 0.5t11 0.5
t12.5 1q3 2 5 6.5t3 10t2 12.5t1.5 13.5t0.5 11.5v9v12.5t0.5 17t0.5 15v8.5l0.5 2t0.5 4t0.5 3.5t0.5 2.5q1 2 2 2h2q3 0 4.5 -1.5t1.5 -3.5q0 -4 -0.5 -15t-1.5 -24.5t-2 -29t-2.5 -28.5t-3.5 -22t-5 -11q-5 -3 -10.5 -4t-12 -1h-12.5h-12h-12t-17.5 0.5t-19 2t-17.5 4.5
t-13.5 7.5t-6.5 11.5q0 2 -0.5 8t-1 13.5t-1 16.5t-1 16.5t-0.5 13.5v7q-1 7 -2 13.5t-1 14.5v2t0.5 4t0.5 4v2zM88 200q0 2 1 9.5t2.5 15.5t4 14.5t5.5 6.5q2 0 4.5 -1.5t2.5 -3.5v-2q-6 -7 -8.5 -14.5t-3.5 -14.5t-1 -15v-17q-1 0 -3 0.5t-3 1.5q-1 7 -1 11v9zM150 215
l2.5 7.5t3.5 9t5 7.5t7 2l1.5 -1.5l1.5 -1.5v-1q0 -1 -1 -3.5t-2.5 -4.5t-2.5 -4t-2 -3q-3 -6 -4.5 -14t-1.5 -15q0 -3 0.5 -6t0.5 -6v-2.5t-2 -1.5h-1l-2.5 1t-2.5 2v35zM88 169l1 2h1q4 0 6.5 -3.5t3.5 -7.5t1 -8.5v-6.5v-4v-4q-2 -4 -4 -6.5t-6 -2.5q0 6 1.5 11.5
t1.5 12.5q0 1 -1 3.5l-2 5l-2 5t-1 3.5zM158 141q0 5 -1.5 8.5t-3 6t-2.5 5t-1 5.5q4 0 7.5 -2t6 -5t3.5 -7t1 -9q0 -3 -0.5 -6t-2 -5.5t-4.5 -4.5t-6 -2q0 4 1.5 8t1.5 8zM107 94q0 2 1 2.5t3 0.5q5 0 8 -2.5t4.5 -5.5t3.5 -5.5t6 -2.5q3 0 4.5 2t3 4.5t3.5 4.5t5 2
q2 0 3.5 -1t1.5 -3q0 -3 -2.5 -5l-5 -4t-4.5 -3.5t-2 -5.5v-1v-2q2 -1 4 -3t3.5 -4.5t3 -5.5t1.5 -5v-1.5v-0.5l-17 -16q0 -1 2 -3.5t4.5 -5.5t4.5 -5.5t2 -4.5t-0.5 -3t-2.5 -1t-4 2.5t-3.5 5.5t-3.5 5.5t-5 2.5l-2 -1t-3 -2t-2.5 -2t-4 -2.5t-4 -3l-2.5 -2.5h-2
q-1 0 -2 0.5t-1 2.5q0 3 2.5 5t5.5 4t5.5 4t2.5 5q0 4 -3 6.5l-6 5l-6 5t-3 6.5q0 3 2.5 5t6 4t6.5 4t3 6l-1 2.5t-2 3.5l-2.5 2.5t-3 3.5t-3.5 3.5t-2 2.5h-0.5h-0.5zM55 31q0 3 0.5 9t0.5 13.5t0.5 13.5t0.5 9q0 7 4.5 11.5t12.5 4.5h1q1 0 3.5 -0.5t5.5 -0.5t5.5 -0.5
t3.5 -0.5l1 -1l2 -2v0v-1v0q-1 -1 -2 -2.5l-1 -1.5h-23q-2 0 -2.5 -2.5t-0.5 -3.5q0 -3 1.5 -4.5t4.5 -2l6 -1l6 -1t5 -2t2 -5.5h-19q-3 0 -5 -3t-2 -5q0 -5 3.5 -6t7.5 -1t7.5 -1t3.5 -6h-3.5h-4.5q-3 0 -5.5 -0.5t-3.5 -0.5t-3.5 -0.5l-2.5 -0.5q-2 -1 -2 -3.5t-0.5 -5
t-1.5 -4.5t-4 -2t-3 3v3.5t1 3.5zM168 82q-2 1 -3 3t-1 4h22q4 0 7 -2t4.5 -5t2.5 -6t1 -7v-2.5v-6.5v-8v-6v-4v-7v-7.5v-4.5v-3t-1 -1.5t-2 -0.5h-2q-2 0 -3.5 0.5t-1.5 3.5v1l1 2t1 3v1q0 2 -2 3.5t-4.5 2l-5 1t-3.5 0.5h-3h-4.5h-5.5h-2v1.5t0.5 3t1.5 1.5h26q0 1 0.5 2
t1 2.5t0.5 3v2.5q-2 5 -6.5 5.5t-9.5 0.5t-9.5 0.5t-4.5 4.5q0 1 0.5 2.5t1.5 1.5h23q1 0 1.5 2.5l0.5 2.5q0 4 -2.5 6t-6.5 3t-7.5 1h-5.5zM115 57q0 -2 1.5 -4.5t3.5 -5t4.5 -4t4.5 -1.5t4 0.5t4 2t3.5 4t1.5 4.5q0 1 -1 3.5t-3 5t-4 4.5t-4 2q-1 0 -3.5 -1.5l-5 -3
t-4.5 -3.5t-2 -3z" />
</svg>
