<?xml version="1.0" standalone="no"?>
<!DOCTYPE svg PUBLIC "-//W3C//DTD SVG 1.1//EN" "http://www.w3.org/Graphics/SVG/1.1/DTD/svg11.dtd" >
<svg xmlns="http://www.w3.org/2000/svg" xmlns:xlink="http://www.w3.org/1999/xlink" version="1.1" viewBox="-10 0 266 256">
   <path fill="currentColor"
d="M67 160q2 11 3 21.5t2.5 21t3.5 21t6 20.5q1 2 2.5 4.5t4.5 2.5q2 0 3.5 -2t1.5 -4q0 -3 -1.5 -6l-3 -6t-3.5 -5.5t-2 -5.5q-4 -18 -6 -34.5t-2 -34.5q0 -11 1.5 -21t3.5 -20.5t4 -20.5t2 -21q0 -6 -0.5 -14.5t-2.5 -17t-7 -14t-15 -5.5q0 2 1 4t2 3.5t2.5 3t1.5 3.5
q3 8 6.5 16t3.5 16t-1 15.5t-2.5 14.5t-3.5 14.5t-3 14.5q0 2 -0.5 7t-1 11t-0.5 11v7zM115 232q1 1 2.5 2t2.5 1t3 -0.5l2 -0.5v-42q0 -1 2 -4.5t5 -6.5t6 -5.5t4 -2.5q3 0 5.5 2.5t4.5 5.5t3.5 6.5t1.5 5.5q0 10 -1 19.5t-1 19.5q0 2 1 3t3 1q4 0 6.5 -3.5t2.5 -6.5
l-0.5 -2t-1.5 -2v-36l3.5 -3.5t5 -5.5t4.5 -5.5t3 -2.5h1.5t1.5 1q2 2 4 4.5t3.5 4.5t2 2t0.5 1.5t0.5 3.5t0.5 3.5v2.5v8v12v12v8q1 1 2.5 2t2.5 1q2 0 3.5 -1t2 -3t0.5 -4v-3q0 -30 -1.5 -60t-2.5 -60q-1 -2 -1 -5t-1 -6t-2.5 -5t-3.5 -2h-30v-33q0 -2 1 -4t4 -2t4 1.5
t1.5 4t1 5.5t3 5t6.5 4t13 2q2 0 4.5 -0.5t2.5 -3.5t-2.5 -4t-5.5 -1.5t-6 -0.5h-4q-2 -1 -3.5 -3t-1.5 -4q0 -5 4.5 -6t9.5 -0.5t9 0.5q5 0 5 -4q0 -1 -1 -2t-3 -2h-6q-7 0 -14.5 0.5t-14.5 0.5q-4 0 -4.5 -2t-1 -5t0 -6.5t0 -7t-2 -5.5t-5.5 -2l-0.5 0.5l-0.5 0.5l-1.5 1
l-1.5 1v20q0 2 -2.5 3.5t-6.5 2.5t-9 1.5t-9 1t-7.5 0.5t-5.5 1v0.5v0.5q0 1 0.5 2.5t1.5 1.5h15v2.5t0.5 3.5t0.5 3.5v2.5q-1 3 -3.5 4t-6 2t-6 2t-2.5 5q9 0 14.5 -2t8.5 -5t3.5 -6.5t1 -6.5t1 -5t2.5 -2q4 0 6 2t2.5 5.5t0.5 7v6.5v0q0 1 -0.5 3t-0.5 4.5t-0.5 4.5
l-0.5 2q-1 3 -4 4t-7 1t-7.5 0.5t-6.5 1.5q-2 0 -3.5 7t-3 15t-2 15t-0.5 9v7v12v11v7q-1 12 -2.5 24t-1.5 24v2v4v3v3zM44 170v16q0 3 1.5 10.5t4 15.5t5.5 14t6 6t4.5 -1.5t1.5 -4.5q0 -5 -3.5 -10t-5.5 -10q-2 -10 -3 -20t-1 -20q0 -12 2 -24t2 -24q0 -2 -1 -2.5t-2 -0.5
q-3 0 -4.5 2.5t-2.5 6.5t-1.5 7.5t-0.5 5.5q0 1 -0.5 3.5t-0.5 5t-0.5 5l-0.5 2.5v17zM87 154v8v7.5t0.5 7.5t1.5 9q0 3 1.5 9.5t3.5 13.5t4.5 12t4.5 5q3 0 4 -2.5t1 -5.5q0 -4 -1.5 -6t-3.5 -6q-4 -13 -6 -23.5t-2 -22.5q0 -10 1.5 -20t1.5 -20v-2.5t-3 -2.5q-1 0 -2 0.5
t-2 1.5t-1.5 2t-0.5 2q-1 5 -1.5 9t-0.5 8v8v8zM131 155q3 0 4 3.5t1 5.5q0 4 -3 7t-7 3v-3v-4.5v-5v-3.5q1 -2 2 -2.5t3 -0.5zM147 163v0v0q0 -1 2 -3l3 -3q0 -1 0.5 -1.5l0.5 -0.5h1v0h1q1 0 2 1.5l1 1.5v2.5t-1 4t-2 4t-2 1.5h-1l-2.5 -2.5t-2.5 -3.5v0v-1zM164 159
q0 -3 0.5 -4.5t3.5 -1.5q8 0 9 8q0 1 -1 3t-2.5 3.5t-3 2.5t-2.5 1t-1.5 -0.5l-0.5 -0.5q-1 -3 -1.5 -5.5t-0.5 -5.5zM188 160q0 -4 1.5 -6t5.5 -2v2v4t-0.5 4.5t-1.5 3.5v0h-1q-2 0 -3 -2.5t-1 -3.5zM126 140q0 -2 2 -4.5t4 -4.5t4.5 -3.5t4.5 -1.5q5 0 8 4t3 8q0 2 -0.5 5
t-1.5 5t-3 4t-5 2q-1 0 -1.5 -0.5t-1.5 -0.5q-1 -1 -3 -2.5l-4 -3t-4 -4t-2 -3.5zM163 137q0 -2 2 -4l3 -3l1.5 -1t3 -2.5t3 -2.5l1.5 -1l0.5 -0.5t1.5 -0.5t3.5 2.5t4 5t2.5 5.5t1 4q0 3 -2.5 7t-5.5 6l-5 -2.5t-6.5 -3.5t-5.5 -4.5t-2 -4.5zM132 107q2 0 3 2.5t1 4.5
q0 1 -0.5 2.5t-2 3t-3 2.5t-3.5 1v-3q0 -2 0.5 -5t1.5 -5.5t3 -2.5zM146 116q0 -6 5 -6q3 0 4.5 2t1.5 5q0 2 -1 4t-3 2q-3 0 -5 -2.5t-2 -4.5zM165 104h1q4 0 5.5 3.5t1.5 6.5q0 4 -2.5 6.5t-5.5 2.5v-19zM183 112q0 -2 1.5 -3t3.5 -1q3 0 3.5 2t0.5 5q0 2 -0.5 4t-1.5 4
q-3 -2 -5 -4.5t-2 -6.5zM136 96v-1v-2q1 0 5.5 -0.5t5.5 -0.5l1 -0.5t2 -0.5q2 0 3 0.5t2 1.5q-1 5 -5 9t-8 4t-5 -3t-1 -7zM48 99q0 1 0.5 2l0.5 1h1q5 0 8.5 -2.5t5.5 -7t3 -9.5t1 -8q0 -4 -0.5 -9t-2.5 -9.5t-5 -7.5t-8 -3q0 5 0.5 8.5t2.5 8.5v23l-1.5 3.5t-2.5 5.5
q-1 0 -2 2zM169 91h2.5h4.5t4.5 0.5t3.5 0.5q2 0 2.5 0.5t0.5 2.5q0 3 -2.5 5.5t-5.5 2.5q-5 0 -7.5 -4t-2.5 -8zM100 63q0 6 -0.5 10.5t-2.5 10.5q-2 4 -4.5 8t-2.5 8q5 0 8.5 -4.5t6 -10t3.5 -12t1 -9.5v-5t-0.5 -8.5t-2.5 -8t-5 -3.5q-2 0 -3.5 1.5t-1.5 3.5t1 4t3 4v11z
" />
</svg>
