<?xml version="1.0" standalone="no"?>
<!DOCTYPE svg PUBLIC "-//W3C//DTD SVG 1.1//EN" "http://www.w3.org/Graphics/SVG/1.1/DTD/svg11.dtd" >
<svg xmlns="http://www.w3.org/2000/svg" xmlns:xlink="http://www.w3.org/1999/xlink" version="1.1" viewBox="-10 0 266 256">
   <path fill="currentColor"
d="M183 241q1 2 2 3.5t2.5 3l2.5 2.5t4 1t5 -1.5t2 -4.5q0 -5 -5 -11t-11 -12.5t-11 -13t-5 -13.5v0q4 -1 7.5 -1.5t6.5 -1.5t5 -3t5 -6q-1 -1 -1 -4v-7v-6.5t1 -4.5v-1.5t0.5 -3t0.5 -2.5v-1v-1v-6t-0.5 -8t-2 -6.5t-3.5 -2.5q-4 0 -5 1.5t-2 4t-3 4t-9 1.5q-1 0 -2 -1.5
t-1 -4v-4.5v-3v-8q2 -2 5.5 -2.5l7 -1t6.5 -1.5t3 -4q0 -4 -4 -4q-11 0 -23 1.5t-24 3.5q-2 1 -2.5 1.5t-0.5 1.5q0 3 1.5 3.5t3.5 0.5q3 0 6 -1t6 -1h1l1 0.5t2 1.5q2 8 2 16v17v17t-2 17h-5q-6 0 -7 -2.5t-1 -8.5q0 -2 1 -3.5t2.5 -2t3 -1.5t1.5 -3t-1.5 -2.5t-3.5 -1
t-3.5 -1.5t-1.5 -4q0 -4 1.5 -5.5t3.5 -2t3.5 -1t1.5 -3.5v-1v0q-5 0 -7.5 -2t-3.5 -4l-2 -4t-3 -2v0.5v0.5q-1 0 -2 1l-2 2v0v1q0 1 0.5 5t0.5 8t0.5 8t0.5 5v2v4v3v2q0 8 2 11.5t4.5 6t5 3t5 0.5t3.5 0.5t1 1.5t-1.5 5t-4 8t-4.5 7.5t-3 4.5q0 1 -2 3.5l-4 5t-4 5.5t-3 4
q-1 2 -2 3.5t-1 3.5q0 4 4 4h3.5t3.5 -2q1 -1 3 -4l4 -6t3.5 -6t2.5 -4.5t2.5 -5t3 -7.5t3 -7t2.5 -3h2.5t1.5 2q11 17 20 35zM78 212l8 24q2 5 7 5q2 0 2.5 -1.5t0.5 -3.5q0 -6 -2.5 -12.5t-3.5 -12.5q-5 -19 -7.5 -38t-2.5 -39q0 -7 0.5 -13t2 -12.5l3 -13t2.5 -13.5
q1 -2 0.5 -3.5t-0.5 -2v-1.5t2 -4v-3v-4.5v-4.5v-3q0 -3 -0.5 -10t-2 -14.5t-4.5 -13t-9 -5.5q-2 0 -4 1.5t-2 3.5q1 5 3 9.5t4 8.5t3.5 9t1.5 12q0 10 -1.5 20t-3.5 20t-3.5 20t-1.5 20q0 18 2.5 35.5t5.5 34.5v3v2zM54 215q1 2 1.5 5.5t1.5 6.5t2.5 5.5t5.5 2.5
q3 0 4 -2.5t1 -5.5q0 -5 -2 -9t-3 -9q-7 -29 -7 -59q0 -7 2 -14t2 -14l-0.5 -2t-0.5 -4t-0.5 -4l-0.5 -2q0 -1 -1.5 -1.5l-1.5 -0.5q-1 0 -2.5 1t-2.5 2q0 3 -1 8.5t-1.5 12t-1.5 12t-1 7.5v3q0 16 1.5 31t5.5 30zM108 222l1 1t2 1q2 0 3 -2t2 -3q-11 -26 -14 -51.5
t-1 -52.5l-1 -2.5t-2 -2.5q-2 0 -3.5 1.5t-1.5 3.5v4v7v6v5v20t2 24t4.5 23t8.5 18zM166 170h17q0 10 -3.5 12.5t-13.5 2.5v-15zM199 124q-1 13 -0.5 28t2.5 28q0 4 0.5 4.5t2.5 0.5h2.5t2.5 -2l1 -13q0 -2 -0.5 -8.5t-1 -13.5t-1 -13.5t-0.5 -8.5v-1.5v-2.5t-1 -4l-2 -6
l-2 -6t-1 -5q-7 -7 -16.5 -11t-19.5 -4l-2 -2v-15q0 -2 3 -3t7 -1.5t9 -1t9 -3t7 -7t3 -12.5q0 -3 -0.5 -6t-1.5 -6t-3 -5t-5 -2h-4q-2 0 -5 -0.5t-5 -0.5h-3q-12 0 -24.5 0.5t-24.5 3.5l-0.5 1t-0.5 2q0 3 3 4.5t6 1.5t5 -1t6 -1q2 0 4.5 0.5t3.5 3.5q-1 3 -0.5 5.5t1 4
t0.5 3.5v5t-3.5 4t-8.5 2t-10 1t-7 1v1v1v2t1 2q5 -1 11.5 -1t11.5 2l1.5 1.5l0.5 0.5v16q0 1 -3.5 2t-7.5 2t-7.5 1.5t-4.5 1.5q-6 3 -9.5 12t-5 19t-1.5 19.5v14.5v3v4v5v3q-1 2 0.5 2.5t3.5 0.5t3 -4.5t1.5 -12t1 -16t1.5 -17t3 -15.5t7 -11q2 -1 6 -2t8 -1.5t8 -0.5h7
h13t8.5 1.5t5 3.5t3 5l3.5 7zM173 146q2 0 4 0.5l4 1t3.5 2t1.5 4.5q0 2 -1.5 4t-3.5 3t-4.5 1.5t-4.5 0.5h-1h-2t-2 -0.5t-1 -1.5v-13l0.5 -0.5t1.5 -0.5l2 -0.5t3 -0.5zM96 89q0 3 3 3t5 -2.5t4 -6t3 -7t1 -5.5v-29q0 -1 -0.5 -3.5t-2 -5l-3 -5t-3.5 -2.5t-4 1.5t-1 3.5
q0 4 1 7t2.5 6.5t2 7t0.5 7.5q0 5 -1 8.5t-2.5 7l-3 7t-1.5 7.5zM50 85q0 4 4 4q3 0 5 -3t3.5 -7t2 -8t0.5 -6v-7t-1 -10.5t-3.5 -9.5t-6.5 -4q-3 0 -4.5 1.5t-1.5 4.5q0 2 1 4t2 4.5t2 4.5t1 5q0 7 -2 13.5t-2 13.5zM163 52v-4v-4v-4.5t0.5 -4t1.5 -3t4 -1.5h3.5t5 0.5
t5 0.5t3.5 1q1 2 1.5 4.5t0.5 5.5q0 5 -5 8.5t-10 3.5q-2 0 -5.5 -0.5t-4.5 -2.5z" />
</svg>
