<?xml version="1.0" standalone="no"?>
<!DOCTYPE svg PUBLIC "-//W3C//DTD SVG 1.1//EN" "http://www.w3.org/Graphics/SVG/1.1/DTD/svg11.dtd" >
<svg xmlns="http://www.w3.org/2000/svg" xmlns:xlink="http://www.w3.org/1999/xlink" version="1.1" viewBox="-10 0 266 256">
   <path fill="currentColor"
d="M127 250q2 1 3 1h3h2t2 -1q0 -16 0.5 -32t1.5 -31q1 -3 1.5 -8.5t1 -10.5t1 -9l0.5 -4l1 -1l62 -4l6 -1v-0.5v-0.5v-2.5t-2 -1.5h-28q-2 0 -3.5 -1.5t-1.5 -3.5q0 -3 2 -4t5 -1.5t6.5 -0.5h6.5t5 -1t2 -4v-2t-2 -2h-22q-2 0 -2.5 -2.5t-0.5 -4.5t1 -4t4 -2h24q1 0 1 -2
v-2q0 -3 -1 -4.5t-4 -1.5q-4 0 -9 1.5t-10 1.5q-3 0 -4 -1t-1 -3t0.5 -4t0.5 -4q4 0 6.5 0.5t5 1.5t4.5 1.5t5 0.5q2 0 4 -0.5t2 -3.5q0 -5 -4 -6.5t-9 -2t-9 -1.5t-4 -4q0 -4 3.5 -5t8 -2t7.5 -2.5t3 -6.5t-3 -6t-7.5 -1.5t-8 -3t-3.5 -9.5q0 -1 0.5 -2.5t1.5 -1.5h28
q2 0 2 -1.5v-2.5q0 -2 -1 -3.5t-4 -1.5l-3 0.5t-4 0.5v0h-1l-1.5 -0.5l-1.5 -0.5q-1 -1 -2 -1.5l-1 -0.5v-14h-3t-4 1q-4 0 -6 5t-4 11t-5 10.5t-7 4.5q-2 0 -4 -0.5t-3 -2.5q0 -2 -1 -6t-2.5 -8.5t-4 -7.5t-5.5 -3q-5 0 -5 5q0 2 1 4t1 4v3t-2 2q-1 0 -3 0.5t-4.5 1t-4 2
t-1.5 3.5v1.5t1 1.5q1 -1 3.5 -1t4.5 -0.5t4.5 -1t3.5 -0.5v0h1q3 1 5 3t2 6q0 3 -1.5 5t-3 3.5t-3 3.5t-1.5 4q0 1 0.5 1.5t0.5 1.5l2 1t4 2.5t3.5 3t1.5 2.5q0 4 -2.5 6t-4.5 4q0 2 -1 4l-2 4t-2 3.5t-1 2.5q-3 8 -4 16t-1.5 16.5l-1 17t-1.5 16.5q-3 15 -4.5 30t-1.5 31
v20zM200 250q3 1 4.5 1h3.5q3 0 4.5 -2t1.5 -4q0 -5 -2.5 -8.5t-5 -6.5t-5 -6.5t-2.5 -7.5q0 -2 1.5 -4.5t3.5 -5.5t3.5 -6.5t1.5 -9.5q0 -10 -5.5 -17.5t-17.5 -7.5h-37l-0.5 0.5l-1.5 1.5v0.5v0.5q0 1 1.5 2l3 2t3 1.5l1.5 0.5v0h1q1 0 3.5 -0.5t5.5 -0.5t6 -0.5t4 -0.5h1
q4 0 8 0.5t7 2.5t5 5t2 8q0 1 -0.5 3.5t-1.5 5.5t-2.5 4.5t-3.5 1.5t-3.5 -2t-3.5 -4.5t-4.5 -4.5t-7.5 -2q-6 0 -10 0.5t-9 1.5q-1 0 -2 1.5t-2 1.5v0.5v0.5v0.5v0.5q4 4 8.5 3.5t9 -1.5t8.5 1t7 10q-1 3 -7.5 5t-13 3.5t-12 3.5t-5.5 5v0.5v0.5l1 1l1 1h4h3q6 0 10.5 -1.5
t8.5 -3t7.5 -2.5t6.5 -1q4 0 6.5 3t4.5 8t2.5 9.5t0.5 7.5zM76 215q3 2 4 7t2 10.5t3.5 10t8.5 4.5q3 0 3.5 -1.5t0.5 -3.5q0 -3 -1.5 -6.5l-3 -7l-3 -7t-2.5 -6.5q-5 -15 -6 -29.5t-1 -30.5q0 -12 1.5 -23.5t3.5 -22.5t4 -22.5t3 -23.5q0 -4 -1.5 -10.5t-4 -12.5
t-6.5 -10.5t-10 -4.5q-2 0 -3.5 0.5t-1.5 2.5q0 3 2.5 6.5t6 8t6 10.5t2.5 14q0 14 -4 28l-8 28v5.5v9.5v9v6v16q0 8 0.5 15t1.5 14.5t3 16.5zM49 236q2 3 3.5 6t4.5 3t5 -2t3 -5q-2 -4 -4 -9.5t-3 -11l-2 -11t-1 -9.5v-55q0 -2 1 -5.5t1.5 -7.5t1 -7.5t0.5 -6.5t-1 -3.5
t-3 -0.5q-5 0 -7 4.5t-2.5 11t-0.5 13t-2 9.5v15q0 18 2 36.5t4 35.5zM94 156v23q0 3 1.5 10.5t3.5 14.5t5 12.5t7 5.5q2 0 4.5 -1.5t2.5 -4.5q0 -2 -1.5 -5l-3 -6l-3 -6l-2.5 -5q-3 -7 -4 -16t-1 -17q0 -6 0.5 -12.5t1.5 -12.5l2 -12t1 -12q-4 0 -6.5 2t-3.5 5.5t-2 7.5
t-2 7v22zM144 144v-1.5v-1.5q0 -2 1.5 -3t3.5 -1.5t4 -0.5h4h3h2.5t2.5 0.5t1 2.5t-2.5 4.5t-5.5 2.5h-1l-2 -0.5l-4 -1t-4 -0.5h-3zM146 124v-11h17q2 0 2.5 2.5t0.5 3.5q0 3 -1 4.5t-3 2t-5 0.5h-4h-3h-3zM151 101q0 -2 1 -4.5t2.5 -5t3.5 -4t4 -1.5q1 0 2.5 0.5t1.5 1.5
v15l-1 0.5l-1 0.5h-5q-1 0 -2.5 0.5t-2.5 0t-2 -1.5t-1 -2zM49 71q1 7 -1 13.5t-2 13.5q4 0 7 -1.5t5 -4.5t2.5 -7t0.5 -8q0 -3 -0.5 -8.5t-2 -10.5t-4.5 -8.5t-9 -3.5q-2 0 -2.5 2.5t-0.5 3.5q0 3 1.5 5t2.5 4.5t2 4.5t1 5zM111 63q0 4 -2 8t-4 7t-4 6.5t-2 7.5
q5 0 9.5 -2.5t7 -7t4 -9.5t1.5 -10q0 -2 -0.5 -6t-1.5 -7.5t-3.5 -6.5t-5.5 -3q-2 0 -2 1.5v3.5q0 5 1.5 9t1.5 9zM154 63q0 -1 1.5 -3t4 -4t4.5 -3.5t3 -1.5q2 0 5 1t5.5 2t4.5 3t2 5q0 4 -2.5 5t-5.5 3q-1 -2 -2.5 -4.5t-3.5 -2.5t-2.5 1.5l-1 3l-1 3t-2.5 1.5
q-4 0 -6.5 -2.5t-2.5 -6.5z" />
</svg>
