<?xml version="1.0" standalone="no"?>
<!DOCTYPE svg PUBLIC "-//W3C//DTD SVG 1.1//EN" "http://www.w3.org/Graphics/SVG/1.1/DTD/svg11.dtd" >
<svg xmlns="http://www.w3.org/2000/svg" xmlns:xlink="http://www.w3.org/1999/xlink" version="1.1" viewBox="-10 0 266 256">
   <path fill="currentColor"
d="M162 208q1 2 2.5 5.5t3.5 7.5l4 8t3 5q0 1 2 2.5t4 4t4.5 4.5t3.5 4q2 1 4 1h4h5.5t1.5 -4v-1v-1q-1 -1 -3.5 -3l-5 -4t-5 -3.5t-2.5 -2.5q-2 -2 -5 -4.5t-5 -5.5t-3.5 -6t-1.5 -6t3.5 -4.5t8 -3t8 -5t3.5 -10.5q0 -4 -0.5 -6.5l-1 -5t-0.5 -5.5v-8l-2 -2.5t-3 -3.5v-1
q0 -1 3.5 -3t8 -6t8.5 -9.5t5 -14.5l-1 -2t-1 -3t-1 -3l-2 -4t-2 -4.5t-2 -2.5q0 -1 -3 -2t-6 -2.5t-5.5 -3.5t-2.5 -3q0 -2 2 -5t3 -6q0 -8 0.5 -17.5t0.5 -19.5v-2.5v-3.5q-1 -2 -2.5 -2h-3.5t-2.5 1.5l-1 3t-1.5 3t-3 1.5t-5 -1.5t-6 -3.5t-5 -4t-2 -4q0 -5 3 -6.5
t8 -2.5t10 -0.5t10 0t8 -1.5t3 -4t-2.5 -3.5t-4.5 -0.5q-1 0 -2.5 0.5l-1.5 0.5q-4 0 -11 1t-15.5 2t-15.5 2t-10 1q-5 2 -8 7t-4 11t-1 12v10q0 5 0.5 10t1.5 11q0 3 1.5 5t1.5 5q0 2 -4 4.5t-8.5 6t-8 9.5t-3.5 16q0 8 2.5 13t7.5 8t10.5 5.5t11.5 5.5q1 4 2 8.5t1 7.5
v2.5t-1 1.5h-24q-1 0 -2 1.5t0 2.5q0 1 1.5 2.5l1.5 1.5h27q3 0 5 2t2 4t-1 4t-4 2l-27 4q-1 0 -3 1t-2 2q1 2 4 3.5t5 1.5q7 -2 15 -3t16 -1h2.5t2.5 2zM69 181q0 2 1 7t2.5 10.5t3.5 10.5t2 7q2 7 5 13t8 10h1q4 0 4 -4q0 -3 -1.5 -6.5l-3 -7t-3.5 -7t-3 -6.5
q-6 -16 -9 -32.5t-3 -33.5q0 -12 2 -23t4.5 -22t4.5 -22t2 -23q0 -4 -0.5 -11t-3 -13.5t-6.5 -11.5t-11 -5q-1 0 -2 0.5t-1 2.5q0 1 1 2.5t2.5 3l2.5 2.5l2 2q2 3 4 6.5t2.5 7.5l1 8t0.5 8q0 10 -2 20.5t-4.5 21t-4.5 21t-2 21.5q0 9 1 18t3 18v7zM44 150v21t2 20q0 2 1 8.5
t3 13t5 11.5t7 5q2 0 3.5 -2t1.5 -4v0q-3 -7 -5 -13t-3.5 -12t-2.5 -12t-4 -13v-3v-5.5v-4.5v-3q0 -14 2.5 -27t2.5 -26v-6q0 -1 -1 -1h-2q-3 0 -4.5 3.5t-2.5 8.5t-1.5 9.5t-1.5 7.5v5v7v7v5zM86 144q0 2 0.5 8t1.5 14t2.5 16.5t4 15.5t5.5 12t6 5t4.5 -1.5t1.5 -3.5
q0 -3 -1.5 -6t-4 -6.5t-5 -6.5t-4.5 -5q-1 -3 -2 -7.5t-1 -9.5v-9v-8q0 -12 2 -23.5t2 -23.5q0 -2 -0.5 -3.5t-3.5 -1.5h-2t-1 2q-1 10 -3 20.5t-2 21.5zM157 186q1 -2 4.5 -3.5t5.5 -1.5h3.5t5.5 -0.5t5.5 -0.5h3.5q0 10 -4 13.5t-14 3.5q-5 0 -7 -3.5t-3 -7.5zM147 159
q7 0 15 4q1 0 2 -1.5l1 -1.5v-1v-1l-1.5 -2t-1.5 -3v0v-1v-2l8 -13q3 1 7 0t7.5 -3t6 -4.5t2.5 -6.5t-2 -7t-5 -5t-6.5 -2.5t-7.5 -0.5h-1.5h-2.5q1 2 3.5 4t5 3.5t5 2.5l2.5 1l0.5 1l0.5 1q0 4 -2.5 5.5t-6.5 1.5q-2 0 -3.5 -1.5t-2.5 -3l-2 -3t-3 -1.5l-1.5 0.5t-1.5 1.5
l0.5 1.5t1.5 1.5v2q0 5 -1 9.5t-6 6.5q-3 -4 -4 -9.5t-2 -10.5h-1q-2 0 -2.5 1.5l-1 3t-1.5 3t-2 1.5q-2 0 -5 -1.5t-3 -3.5l0.5 -1.5t0.5 -2.5l1.5 -1.5t2.5 -3.5t2.5 -3.5t1.5 -2.5v-1q-2 0 -5 1t-5.5 3t-4 4.5t-1.5 4.5q0 8 4 10.5t8.5 4t8 3t3.5 7.5q0 3 -2.5 3.5
t-4.5 0.5q-5 0 -10 -2.5t-9.5 -6.5t-7.5 -9t-3 -10q0 -10 5.5 -16t13.5 -8.5t17 -2.5h17h2h3.5h3.5h2q5 2 9.5 4t8 5t5.5 7t2 9q0 8 -2 12t-4.5 6.5t-6.5 4t-8 2t-7.5 2t-7.5 4.5q0 1 1 2t1 2h11q1 0 2 1t1.5 3t1 3.5l0.5 1.5q0 2 -2 4l-3 3q-5 0 -12 1.5t-12 1.5
q-3 0 -5 -2t-3 -4.5t-1.5 -5.5t-0.5 -5zM141 89q-1 -1 -1.5 -2t-0.5 -2t0.5 -1.5t0.5 -1.5q7 -1 13 -1.5t15 -0.5h13q1 0 1.5 1l0.5 1q0 2 -2 4l-3 3h-3.5t-5.5 0.5t-5 0.5h-3h-1h-1h-3.5t-5.5 -0.5t-5.5 -0.5h-3.5zM51 76q0 2 1.5 3.5t3.5 1.5q3 0 4.5 -3t2 -6.5t1 -7.5
t0.5 -6t-0.5 -7.5t-2 -10.5t-4 -9t-7.5 -4h-1q0 1 -1.5 2t-1.5 2v0v1q0 1 1 2.5t1.5 3.5t1.5 3.5l1 1.5q1 5 1 9v8q0 5 -0.5 8.5t-0.5 7.5zM101 52q0 4 -1.5 7.5l-3 7t-3 7.5t-1.5 8q6 0 9.5 -4.5t5.5 -11t2 -13v-9.5q0 -2 -0.5 -5.5t-2 -6t-3.5 -5t-5 -2.5l-0.5 0.5
l-0.5 0.5l-0.5 0.5l-0.5 0.5q1 6 3 12.5t2 12.5zM136 73q0 -4 5.5 -5.5t12.5 -2.5t14 -1h9h7q1 1 1.5 3l0.5 2q0 1 -2 3t-3 2q-11 0 -20.5 1t-19.5 1q-2 0 -3.5 -0.5t-1.5 -2.5zM160 43q2 0 5 1t5.5 2.5t4.5 3.5t2 5q0 2 -6 3t-13 2t-14 1h-8q0 -3 2.5 -6t6 -6t8 -4.5
t7.5 -1.5zM137 37q0 -3 1.5 -5t4 -4t5 -3t4.5 -1t3 2.5t1 3.5v2q-1 1 -1.5 3l-0.5 2l-13 6q-1 1 -2 0t-1.5 -2t-0.5 -3v-1z" />
</svg>
