<?xml version="1.0" standalone="no"?>
<!DOCTYPE svg PUBLIC "-//W3C//DTD SVG 1.1//EN" "http://www.w3.org/Graphics/SVG/1.1/DTD/svg11.dtd" >
<svg xmlns="http://www.w3.org/2000/svg" xmlns:xlink="http://www.w3.org/1999/xlink" version="1.1" viewBox="-10 0 266 256">
   <path fill="currentColor"
d="M67 149v6v6v6v3q0 2 1 9t2 16t3 18.5t4.5 18t5 13.5t5.5 5t3.5 -1t0.5 -4q0 -5 -1.5 -10.5t-3.5 -10.5l-4 -10t-3 -10q-2 -6 -2 -12.5v-12.5q0 -7 -0.5 -13t-2.5 -13l5 -48q4 -12 6.5 -26t2.5 -27q0 -4 -0.5 -11t-2.5 -14t-5.5 -12t-10.5 -5q-3 0 -3 3v1v1q1 2 2.5 6
t3 8.5t3 8t2.5 4.5v33q0 4 -1.5 7.5t-3 7.5t-3 7.5t-2.5 7.5q-1 10 -1 22v22zM142 221v3t-0.5 4.5t-1.5 4t-3 1.5h-24q-1 0 -2 1.5t-1 3t-0.5 3l-0.5 1.5h90q2 0 5.5 -1.5t3.5 -3.5q0 -1 -0.5 -1h-0.5q0 -1 -1 -2t-2 -1q-1 -1 -3 -1t-4.5 -0.5t-5 -0.5h-3.5l-1 0.5t-2 0.5
t-2 0.5l-1 0.5q-6 0 -8 -2t-2 -7q0 -6 2 -8t5 -3t6 -1.5t6 -2t5 -5t2 -11.5q0 -2 -1.5 -4t-4.5 -2q-4 0 -4.5 2.5t-1 5.5t-1.5 5.5t-6 2.5q-3 0 -4.5 -1.5t-2.5 -4.5t-1.5 -6t-0.5 -6q0 -4 3 -5.5t6.5 -2t6.5 -0.5h5q3 -2 4 -3.5t2 -3.5t1 -4v-5v-4q0 -2 -0.5 -4t-1.5 -3.5
t-3 -1.5q-4 0 -4.5 3.5t-1 7.5t-2.5 8t-8 4q-2 0 -3.5 -1t-1.5 -3v-21q0 -1 3.5 -2t7.5 -3t8.5 -4t6.5 -4v-4v-3v-4.5t-1 -4.5t-2.5 -3.5t-4.5 -1.5v0q-1 1 -2.5 2l-1.5 1v13q0 1 -1 2t-2.5 2l-3 2t-2.5 1q-4 0 -4.5 -4.5t-1 -10t-1.5 -9.5t-5 -4q-2 0 -4 1t-2 4l0.5 1.5
t1 2.5t0.5 2.5v1.5q2 19 2.5 38t0.5 38v17q0 8 -1 18q-1 2 -2 2h-3q-4 0 -6.5 -2t-1.5 -7q0 -28 -1 -55.5t-1 -54.5q0 -2 -1 -2h-2h-1h-1q-4 5 -5 11.5t0 12.5q0 2 -1 2h-0.5h-0.5q-1 0 -2.5 -0.5l-3 -1t-3 -1.5t-1.5 -2l-3 -15q-1 -1 -3 -2l-2 -1h-1t-2 2.5t-1.5 5
l-0.5 2.5q0 1 0.5 4t2 7t3 6.5t2.5 2.5h16l0.5 1t0.5 2q1 1 1.5 3.5l0.5 2.5q0 1 0.5 4.5t0.5 5.5q0 1 -0.5 3.5t-0.5 3.5l-2 1h-1.5h-2.5h-5t-5 -1v-5.5t-1 -6t-2.5 -5t-4.5 -2.5q-2 0 -2.5 1.5t-0.5 3.5q0 1 0.5 4.5t1.5 7.5t2 7.5t2 3.5h19q2 0 3 1.5t1 4v4.5v2
q0 6 -1 9.5t-8 3.5q-6 0 -8 -2t-3 -4.5t-2 -4.5t-4 -2q-2 0 -2.5 1t-0.5 3v4.5t1 5t2 4.5t3 2h21l2 3v1.5v3.5zM44 157q0 13 0.5 24t1.5 25q0 2 0.5 7.5t2 11.5t3.5 10.5t5 4.5q4 0 5 -3t1 -5v-5t-1 -3q-2 -10 -3.5 -18.5t-2.5 -17t-1.5 -17.5t-0.5 -19t1 -19.5t1 -18.5v-3
q0 -2 -0.5 -3.5t-1 -2t-2.5 -0.5q-3 0 -4.5 1.5t-1.5 4.5q0 2 -0.5 7t-0.5 11t-0.5 11t-0.5 7v10zM86 154q0 15 2.5 29t5.5 28q0 2 0.5 5t1.5 6.5t3 5.5t4 2t4.5 -1t2.5 -4q0 -5 -3.5 -11t-4.5 -11q-3 -12 -5 -23.5t-2 -24.5q0 -8 1 -16.5t1 -16.5v-5v-6t-1 -1.5t-2 -0.5
q-3 0 -4.5 4t-2.5 6v6.5t-0.5 10t-0.5 10v6.5v1v1zM187 87q4 0 6.5 3t3.5 6t2.5 6t4.5 3q7 0 7 -7q0 -6 -4 -11t-8 -9v-0.5v-0.5q0 -3 1.5 -5.5t3.5 -5.5t3.5 -6.5t1.5 -7.5q0 -3 -1 -6t-2.5 -6t-4 -5t-5.5 -2h-26l-6 3l1 1.5l1 1.5q0 1 0.5 2l0.5 1h27q2 0 2.5 1t1 2.5
t0.5 2.5v3q0 2 -0.5 4.5t-2 5.5t-3.5 4.5t-4 1.5q-1 0 -3.5 -1t-5.5 -3t-7 -3t-8 -1l-3 -0.5t-3 2.5q1 2 5.5 3.5t8.5 2.5t7 3t3 5q0 4 -3.5 6.5t-8 4t-8 3.5t-3.5 6q4 0 7.5 -1t7 -3t7 -3t6.5 -1zM114 98q1 1 2 3t3 2v0q1 0 2 -0.5t2 -1.5q-1 -1 -1 -3.5v-5.5t1 -5t3 -4
l2.5 -0.5t4.5 -1t4.5 -1l2.5 -0.5h2q1 0 3 0.5t2 2.5v18q2 0 5 -2t3 -4v-33q0 -5 -3 -7.5t-6.5 -3.5t-6 -2t-2.5 -3v-2.5t1 -1.5h17l0.5 -1.5t0.5 -3.5t-2 -2.5t-4 -0.5t-4 0.5t-3 0.5q-3 -2 -3.5 -5t-0.5 -6t-1 -5.5t-4 -2.5q-2 0 -4.5 1t-2.5 4v20q2 2 2 3v3t-1.5 3.5
t-3 2.5t-3.5 2.5t-3 3.5q-3 6 -3.5 14t-0.5 15v10zM92 89v1l2 1q0 1 1.5 1.5l1.5 0.5q2 0 4.5 -3.5t4 -7.5l3 -8t1.5 -5v-3.5t0.5 -6.5t0.5 -7.5v-5.5v-2q0 -5 -4 -9.5t-9 -4.5q0 7 1 14t1 14q0 4 -1 8t-2.5 8t-3 7.5t-1.5 7.5zM48 86q0 3 1 3.5t3 0.5q5 0 7 -3t3 -7.5
t1 -9.5v-8q0 -2 -0.5 -7.5t-1.5 -10.5t-3.5 -9t-6.5 -4q-3 0 -3.5 1.5t-0.5 4.5q0 7 2.5 13.5t2.5 14.5q0 5 -2 10t-2 11zM124 69q0 -3 1.5 -5t3.5 -3.5t4.5 -2.5t4.5 -1q4 0 5.5 3.5t1.5 6.5v4t-2 3h-16q-2 0 -2.5 -2t-0.5 -3z" />
</svg>
