<?xml version="1.0" standalone="no"?>
<!DOCTYPE svg PUBLIC "-//W3C//DTD SVG 1.1//EN" "http://www.w3.org/Graphics/SVG/1.1/DTD/svg11.dtd" >
<svg xmlns="http://www.w3.org/2000/svg" xmlns:xlink="http://www.w3.org/1999/xlink" version="1.1" viewBox="-10 0 266 256">
   <path fill="currentColor"
d="M66 166v6v6.5v6.5v3q0 3 0.5 9t2 13t3 14.5t3.5 13.5t4.5 9.5t4.5 3.5q3 0 4 -2t1 -4q0 -4 -1.5 -8t-3.5 -8.5l-4 -9t-2 -8.5q-3 -11 -3.5 -23t-0.5 -23q0 -13 1.5 -26t3.5 -25.5t3.5 -25.5t1.5 -26q0 -4 -0.5 -12t-2 -16t-4.5 -14.5t-9 -6.5q-2 0 -3 0.5t-1 3.5
q0 4 3 7.5t4 6.5q2 6 3 10.5t1.5 8t0.5 7.5v11v4v5v6v3q-6 20 -8 40t-2 40zM202 177q0 4 0.5 14.5t0.5 22t0.5 22t0.5 14.5h2q2 0 3 -1.5t1 -3t0.5 -3.5t0.5 -3v-10v-14.5v-14.5v-9v-17v-18t-0.5 -18t-1.5 -18q-1 -4 -4.5 -7t-7.5 -5.5t-7.5 -3.5t-3.5 -3q0 -3 4.5 -4.5
t10 -3.5t10.5 -6t5 -14v-3v-7v-8v-7v-4v-7.5v-7.5v-5q0 -3 -1.5 -5t-4.5 -2q-2 0 -2.5 1t-1 2.5t-0.5 3.5v3q0 3 0.5 6t0.5 7v4v6.5t-0.5 9.5t-0.5 9v6q-2 3 -3.5 6t-3 5t-4 3t-6.5 1q-1 0 -1.5 -0.5l-1.5 -1.5v-15q0 -10 1 -20.5t1 -21.5v-2v-5v-4v-3q-1 -1 -2 -1.5
t-2 -0.5v0h-1v0q-1 0 -1.5 0.5t-0.5 1.5q1 14 0 29t-3 29l-2 2l-2 2v0q-2 0 -3.5 -1.5t-2 -3t-0.5 -4.5v-3q0 -10 1 -18.5t1 -18.5v-6q-1 -1 -2 -1.5t-2 -0.5q-2 0 -3 2t-2 4.5t-1 4.5v4l0.5 3.5t1.5 3.5v3l-0.5 4.5t-1 10t-1 10.5t-1.5 5q-1 -1 -2 -3t-1.5 -4.5l-1 -5
t-0.5 -3.5t0.5 -4t0.5 -6.5t0.5 -6.5t0.5 -4v-2q0 -2 -1.5 -2.5t-2.5 -0.5q-3 0 -3.5 1t-1 3t-0.5 4v3v9t1 13t2.5 12.5t5.5 5.5l23 4l1 1t0 2q0 6 -2 8t-4.5 3t-4.5 1.5t-3 4.5q-2 5 -4 12t-3 13q0 23 -1.5 45.5t-1.5 44.5v3v4v4v3q-1 3 0.5 4.5t3.5 1.5q1 0 3 -1t1 -4
q0 -23 0.5 -49t1.5 -49q0 -3 0.5 -7.5t1.5 -9.5t3.5 -8.5t5.5 -5.5q0 1 0.5 4t0.5 6.5t0.5 6t0.5 3.5v5v6q0 4 -0.5 7t-0.5 4h-6v44q0 4 3.5 5.5t6.5 1.5q4 0 6.5 -0.5t6.5 -0.5q1 -1 1.5 -2.5l0.5 -1.5v-3t0.5 -4t0.5 -4.5t1 -3.5v-4.5t0.5 -7.5t0.5 -8.5v-6.5v-2
q0 -3 -1.5 -4t-2.5 -1q-2 0 -3 1t-3 1l-1.5 -0.5t-1.5 -1.5l-2 -31q0 -3 2 -4.5t4 -1.5q5 0 8 5.5t4 12.5t1.5 13.5t0.5 8.5v2v4t-0.5 7t-1 7t-0.5 4zM115 240q0 4 1 5.5t3 1.5q3 0 4.5 -3.5t2.5 -9t2 -11.5t1.5 -12.5t0.5 -11.5v-7.5t0.5 -9t1 -14t1 -13.5t0.5 -9v-16
q1 -1 2 -2.5t2 -1.5v0h1q2 3 3.5 7t1.5 7v25q0 17 -1.5 33t-1.5 32v2v2t0.5 2t1.5 1q2 0 3 -1.5t1.5 -3.5t1 -3.5t0.5 -2.5q1 -19 1.5 -36t0.5 -36v-8v-7.5t-0.5 -8t-1.5 -10.5q-1 -3 -3.5 -4t-4.5 -1h-4.5t-2.5 -2q0 -2 -0.5 -7t-1 -11t-1 -11t-0.5 -7q0 -6 -2.5 -11
t-2.5 -10q0 -4 2.5 -7t5.5 -6l6 -6t3 -7q0 -2 -3 -2.5t-5 -0.5q-5 0 -10.5 1t-11.5 2l-0.5 0.5t-1.5 0.5v4.5v2.5h13v4l-14 17h-4q0 -3 -0.5 -8t-2 -10t-4 -9t-6.5 -4q0 1 0.5 5t1 8.5t1.5 8t2 3.5v3v3q0 8 -2 15t-2 15q4 0 5.5 -1.5t2.5 -4.5l2 -6t2 -5.5t3.5 -4t6.5 -1.5
q3 0 4.5 2t2.5 5t1.5 5.5t-0.5 3.5l-1 4l-18 20q-1 0 -1.5 2.5l-0.5 2.5q0 1 0.5 2.5t1.5 1.5v0v0h1l2.5 -2.5l3 -3l3 -3t1.5 -2.5q2 -2 2.5 -3t0.5 -1.5t0.5 -1t2.5 -0.5h1t1 1q2 6 2 10v10v3v3t-0.5 3.5t-1.5 2.5l-23 26l-0.5 1.5t-0.5 2.5v0q0 2 1 2.5t2 0.5q3 0 5 -2.5
t4 -6t4 -6.5t5 -3t4 1.5t1 4.5q0 21 -2.5 42t-5.5 41q0 1 -1 3zM46 174v9t0.5 13.5t1.5 15t2 14.5t3.5 12t5.5 6q2 1 3 0t1.5 -2.5t0.5 -3.5v-2q0 -5 -1.5 -9.5t-3 -9.5l-3 -10t-2.5 -10v-2v-5v-5v-5q0 -17 2.5 -33t2.5 -33q0 -5 -3 -5t-4.5 4t-2.5 10.5t-1.5 14l-1 15
t-0.5 13v8.5zM94 226q0 2 1.5 4t3.5 2t2.5 -3t0.5 -5q0 -4 -2 -7.5t-3 -6.5q-2 -11 -3.5 -23t-1.5 -23q0 -13 2.5 -25.5t2.5 -25.5q0 -4 -3 -4q-2 0 -2 1l-2 3q0 3 -1 6t-1.5 6.5t-1 6.5t-0.5 5v3t-0.5 7t-0.5 8v6v6q0 3 0.5 6.5t0.5 6v2.5q0 3 1 9t2.5 13t2.5 13.5t2 8.5z
M178 186q0 -5 0.5 -6t5.5 -1h2q3 0 3 2v12q0 3 -2 3.5t-3 0.5q-5 0 -5.5 -3.5t-0.5 -7.5zM178 164q0 -1 1 -2t2.5 -2t2.5 -1h2q3 0 3 2.5v4.5q0 3 -0.5 4t-4.5 1q-6 0 -6 -7zM54 88q0 2 0.5 3.5t1.5 3.5q4 -2 6 -5t3 -7t1 -7v-9v-9t-1.5 -11.5t-4 -9.5t-6.5 -4q-5 0 -5 5
q0 3 1 7t2.5 8t2.5 8.5t1 8.5q0 5 -1 9.5t-1 8.5zM194 68q0 1 0.5 2.5t2.5 1.5l1 -1.5t1.5 -3l1 -3t0.5 -2.5v-35l-1.5 -1t-1.5 -2h-1h-1l-0.5 0.5l-1.5 1.5v10v10l0.5 2t0.5 3.5t0.5 3t0.5 2.5l-0.5 1.5t-0.5 3t-0.5 3l-0.5 1.5v2z" />
</svg>
