<?xml version="1.0" standalone="no"?>
<!DOCTYPE svg PUBLIC "-//W3C//DTD SVG 1.1//EN" "http://www.w3.org/Graphics/SVG/1.1/DTD/svg11.dtd" >
<svg xmlns="http://www.w3.org/2000/svg" xmlns:xlink="http://www.w3.org/1999/xlink" version="1.1" viewBox="-10 0 266 256">
   <path fill="currentColor"
d="M183 189v1v9t0.5 11.5t0.5 9.5v4q0 2 1 6.5t2.5 9t3 8t3.5 3.5t3 -2t1 -4q0 -6 -1.5 -13t-4.5 -13q-1 -4 -1 -8v-7.5t-0.5 -6.5t-0.5 -7t0.5 -7.5t0.5 -6.5v-6.5t1 -8.5h1q3 0 4.5 4t2.5 9t3.5 8.5t6.5 3.5q2 0 2 -1v-3q0 -3 -2 -7.5t-5 -9.5t-5 -10t-2 -9q1 -4 2.5 -6
l3 -4l3 -4t1.5 -4t-1 -4t-3 -2h-1l-1 1.5t-2 2.5t-2 1.5t-1 1.5h-0.5h-0.5q-2 0 -3.5 -2t-2 -4.5t-0.5 -4.5v-4q0 -4 2.5 -5t5.5 -1.5t5.5 -1t2.5 -4.5l-0.5 -1.5l-0.5 -1.5l-1.5 -1.5l-0.5 -0.5h-14v-12l2 -1t4.5 -2.5t5.5 -3.5t4 -4q0 -8 1.5 -17t1.5 -17q0 -3 -0.5 -4.5
t-3.5 -1.5q-2 0 -3.5 0.5t-0.5 2.5q-1 4 -0.5 10t0 12t-3 10t-7.5 4v-57h-6q0 14 -1 28t-1 28v13q1 2 1.5 3.5t0.5 3.5q0 3 -0.5 4.5t-3.5 3.5q-2 1 -9 1t-14.5 0.5t-14 1t-8.5 1.5h-4h-6h-6h-3l-2 0.5t-3 0.5q-2 1 -5 2l-3 1v2q0 1 4 1h5q4 0 7 -0.5t7 -0.5h3t1 3v21h-6.5
t-4.5 -1.5t-3 -3.5t-2 -7h-2q-4 0 -4 2v5v5t3 4q5 1 9 1t6.5 1.5t4 4t1.5 8.5v4t-0.5 4t-2 3.5t-3.5 1.5q-5 0 -6.5 -1.5t-2 -3.5t-0.5 -4t-3 -2t-3.5 1t-0.5 4q0 6 3 8.5t7 3t7 1t3 2.5v22q0 2 -1 2h-2q-5 0 -7 -2t-2.5 -5t-1 -5t-2.5 -2t-2.5 2t-0.5 4q0 3 0.5 5l1.5 6
q1 0 4 0.5l6 1t5 1.5t2 4q0 6 -3 7.5t-6.5 2.5t-6.5 1.5t-3 3.5t2 3h4q14 0 30 -2t30 -4l0.5 -1.5l0.5 -1.5q0 -1 -0.5 -2l-0.5 -1h-17q-1 0 -2 -1t-1 -3t-0.5 -3.5l-0.5 -1.5q0 -5 2.5 -6.5t5.5 -2t5.5 -0.5t2.5 -1v-13l-1 -1l-2 -2h-1q-1 0 -2 2t-1.5 4t-2 4t-4.5 2
t-3 -3.5v-5.5q0 -5 1.5 -7.5t3.5 -4t4.5 -2t4.5 -2t3.5 -4t1.5 -6.5v-3v-3q-1 -2 -1.5 -2h-1.5h-1.5h-0.5v2.5t-0.5 4t-1 4.5t-1.5 3h-2h-2q-6 0 -6.5 -4t-0.5 -9q0 -7 3 -9t6.5 -3t6.5 -3t3 -8q0 -2 -0.5 -4t-3.5 -2l-1 1.5t-2.5 4t-2.5 4.5t-3 2q-1 1 -2 0t-2 -2.5
t-1.5 -3t-0.5 -2.5v-3v-5t0.5 -5.5t0.5 -3.5h25l5 5q1 7 2 13.5t1 13.5q0 1 0.5 4t-1.5 5q-1 4 -1.5 9t-0.5 10.5t-0.5 10.5t-0.5 10zM80 237q0 1 1 1h2q3 0 4.5 -1t1.5 -3v0q-11 -19 -15 -37t-6 -39q1 -2 1.5 -9t1.5 -15t2 -15t2 -9q0 -1 0.5 -3.5t1.5 -5.5t1.5 -5.5
t1.5 -4.5q0 -1 0.5 -2l0.5 -1q0 -2 0.5 -5.5t1 -8t1 -8t0.5 -5.5v-11q0 -4 -0.5 -10.5t-2.5 -13.5t-5.5 -12t-9.5 -5l-1.5 0.5t-2.5 0.5l-0.5 1t-0.5 2v0v1q8 10 11.5 21t3.5 23v8t-1 9.5l-2 9t-3 6.5q-1 3 -2 9.5t-3 14t-3 14.5t-1 9v2q0 1 -0.5 3.5t-0.5 4.5v4
q0 22 4 43.5t16 41.5zM42 161q0 17 2 30.5t4 29.5q1 2 1 4.5t1 4.5t3 3.5t4 1.5t3 -0.5t1 -2.5q0 -7 -2.5 -11.5t-3.5 -10.5q-3 -14 -4 -27t-1 -27q0 -12 1.5 -23.5t1.5 -23.5q0 -2 -0.5 -3t-2.5 -1t-3 1.5t-2 3.5q-1 8 -2 14t-1 12v12v13zM86 152v21q0 1 0.5 4.5t1 7.5
t1 7.5t0.5 4.5t1 5t2.5 7.5t3 6.5t3.5 3t2 -1.5v-2.5q0 -5 -2 -10t-2 -9q-2 -9 -3.5 -20t-1.5 -21v-5t0.5 -9t1 -9t0.5 -5v-4v-6v-5v-4q-4 0 -5.5 3t-2 6.5t-0.5 7.5v5v22zM141 110q1 0 2 0.5t2 2.5q0 1 0.5 3t0.5 4t0.5 4t0.5 3v21t0.5 22.5t0.5 22.5v20q0 3 -1.5 3h-3.5
t-4.5 -0.5t-2.5 -3.5v-96q0 -2 1 -4t4 -2zM115 56q0 10 -0.5 19.5t-0.5 19.5h1t2 -0.5l2 -1l1 -0.5q2 -12 2 -25.5v-25.5q1 -2 2 -3.5t3 -1.5q4 0 4.5 3t1.5 7v4.5t0.5 7t0.5 7v4.5v18l2 3q4 -1 4 -5v-2t0.5 -4t0.5 -4v-2q0 -6 -0.5 -10t-0.5 -8t-0.5 -8.5t-0.5 -10.5
q-1 -3 -4 -5t-7 -3.5t-8.5 -1.5h-7.5h-2t-2 1q0 1 0.5 2t0.5 2q1 0 3 1.5t2 2.5q1 2 1 4.5v5.5v6v4zM48 86v2v2t0.5 2t2.5 1v0q3 -3 4.5 -5.5t2.5 -5.5t2 -5.5t2 -6.5v-2q0 -1 0.5 -3t0.5 -4v-2q0 -4 -0.5 -9.5t-2.5 -10t-5.5 -7.5t-8.5 -3q0 4 1 8t2.5 7.5t2.5 7t1 7.5v9.5
t-2 8.5l-1.5 2t-1.5 3v1v3zM150 42q0 12 -1 23.5t-1 24.5q3 0 4.5 -4.5t2 -10.5t0 -12t-0.5 -8q0 -1 0.5 -4t0.5 -6.5t0.5 -6t0.5 -3.5t0.5 -1.5t1.5 -0.5v0v0h1v0q3 3 4 7t1 8v8v8q0 5 -1 10t-1 11q0 2 0.5 3t2.5 1t3.5 -1t1.5 -3v-49q0 -3 -2.5 -6t-6.5 -4.5t-7.5 -2.5
t-6.5 -1l-1 0.5l-2 1t-1.5 1.5t-0.5 2q1 2 2.5 3t2.5 2t2 3t1 7zM98 53q0 6 -1 10.5t-2.5 8.5t-2.5 8t-1 9q6 0 8.5 -5t3.5 -11.5t1.5 -13t0.5 -8.5t-0.5 -5.5t-1 -6.5t-2 -5.5t-3.5 -2.5q-1 0 -1 0.5v0.5q-1 0 -2 1t-1 2v0q0 5 2 9t2 9z" />
</svg>
