<?xml version="1.0" standalone="no"?>
<!DOCTYPE svg PUBLIC "-//W3C//DTD SVG 1.1//EN" "http://www.w3.org/Graphics/SVG/1.1/DTD/svg11.dtd" >
<svg xmlns="http://www.w3.org/2000/svg" xmlns:xlink="http://www.w3.org/1999/xlink" version="1.1" viewBox="-10 0 266 256">
   <path fill="currentColor"
d="M200 248q1 3 4 3q4 0 5 -3.5t1 -5.5q0 -7 -1 -13.5t-2.5 -13l-3 -13t-1.5 -12.5q0 -4 1.5 -7.5l3 -7t2.5 -7t1 -8.5q0 -4 -1.5 -8t-4 -7t-6.5 -4.5t-8 -1.5q-2 0 -4 0.5t-2 2.5v1h1q6 2 11 6.5t5 11.5v5t-1 5h-2q-2 0 -3 -2t-2 -4.5t-3 -4t-7 -1.5q0 3 1.5 5.5t2.5 4.5
t2.5 4.5t1.5 5.5t-2 4.5t-5 2t-6 0.5h-6l-0.5 0.5l-0.5 0.5v1v1l1.5 1.5l1.5 1.5h16q4 0 4.5 2.5t0.5 4.5v2t-1 1q-1 1 -3 1t-4 0.5l-4 1t-3 0.5q-1 1 -3 1h-2.5t-2.5 1t-1 3t1.5 2.5t2.5 0.5q5 0 9.5 -1.5t9.5 -1.5h1.5t1.5 1q0 2 0.5 5t1 6.5t1 6t0.5 4.5v15zM110 246l2 2
l1 1h0.5h0.5q3 0 4.5 -3.5t1.5 -6.5q0 -9 -1.5 -20t-2.5 -20v-5v-4v-4t-1 -5v-4v-6v-6v-4q0 -7 -0.5 -14t0.5 -13.5t3.5 -12.5t8.5 -11h1h1q1 1 2.5 3.5t4 4.5t5.5 4t6 2l2 -1l2 -1h3t4 -0.5t4 -0.5h3q3 -1 4.5 -3t2.5 -4.5t2.5 -5t5.5 -2.5q1 -1 3 -1t4 -0.5t4 -1.5t3 -1
l1 -1v-18q0 -1 -1 -2t-3 -1.5t-3.5 -1l-1.5 -0.5h-5t-8.5 -0.5t-8.5 -0.5h-5q-3 -1 -3 -2.5v-3.5v-3v-5.5t0.5 -7t0.5 -7v-5.5q1 -1 2 -1h3q2 0 4 0.5t3 2.5q1 6 2 10.5t3.5 8t6.5 5.5t10 2q3 0 5 -0.5t2 -3.5q0 -2 -0.5 -3t-2.5 -2q-1 0 -2.5 -0.5t-3.5 -0.5t-3.5 -0.5
t-2.5 -0.5q-2 0 -3 -1t-1 -2.5v-3v-2.5q1 0 4 -1t4 0q2 0 3.5 1t2.5 1.5t2.5 1t3.5 0.5h4l0.5 -1t0.5 -2v-1q0 -2 -3 -4t-7.5 -4t-10 -4t-10.5 -3.5t-9 -2.5t-5 -2v-4.5v-7.5t-1.5 -6.5t-5.5 -2.5h-1l-1.5 0.5l-1.5 0.5v20q0 1 -1 2.5t-2 1.5q-1 1 -4.5 2l-7 2t-6.5 2.5
t-5 1.5q-1 0 -2.5 1t-3.5 2t-3 2.5t-1 2.5q0 2 1.5 2.5t2.5 0.5q4 0 6.5 -2t5.5 -2t3.5 2t0.5 4q0 4 -2.5 6t-5 3t-5 3t-2.5 6q7 0 11 -2t6.5 -5.5t3.5 -8.5t1 -11q1 -1 1.5 -2t1.5 -0.5t2 0.5h3v33q0 1 -5 2t-11 1t-11 1t-5 3q0 1 0.5 2.5l0.5 1.5h13l1 4q1 1 1.5 2.5
l0.5 1.5q0 4 -2 5.5t-5 2.5t-5.5 2t-4.5 3q-3 2 -4.5 5.5t-3.5 7.5v39q0 21 0.5 42.5t2.5 42.5zM65 155v5v3q0 1 1 6.5t2 12t1.5 13t1.5 9.5q0 2 2 9.5t4.5 14.5t6 12.5t6.5 5.5q2 0 3 -2.5t1 -4.5t-1.5 -5.5t-3 -7.5t-3.5 -8t-3 -7q-5 -12 -7 -26.5t-2 -27.5
q0 -9 0.5 -16.5t2.5 -16.5q1 -7 3.5 -13t4.5 -12t3 -12.5t1 -13.5q0 -4 -0.5 -13t-2.5 -18t-6 -16t-11 -7q-2 0 -3 1.5t-1 3.5t1 4t2.5 3.5t3 3.5t2.5 4q3 8 4.5 16t1.5 17t-2.5 17t-5.5 17q-3 12 -5 24.5t-2 24.5zM124 215q0 2 0.5 6t2 9t3.5 8.5t5 3.5q2 0 4 -1.5t2 -3.5
l-2 -6t-2.5 -5.5t-2.5 -5.5t-1 -6q0 -4 1.5 -6.5t5.5 -2.5t6 5.5t4 12t4.5 12t7.5 5.5h2.5t1.5 -2v-1q0 -1 -1.5 -3.5t-2.5 -5.5t-2.5 -5.5t-2.5 -3.5q-1 -3 -3.5 -6t-2.5 -7q0 -3 1 -4t2.5 -1.5t2.5 -1.5t2 -3v-1v-3v-3v-2q0 -3 4 -4.5t6 -2.5q3 -2 4.5 -6t2 -8.5t0.5 -8.5
v-6v-3t-0.5 -4t-0.5 -4v-3l-2 -2l-2 -2h-1q-2 0 -3 1.5t-1 2.5v2q0 1 0.5 3.5t0.5 5.5t0.5 5.5t0.5 3.5v2t-0.5 3t-1 3.5t-1.5 2.5h-1q-1 0 -3 -2t-3.5 -4t-2.5 -4.5t-1 -4.5t1 -4.5t2.5 -4.5t2.5 -4t1 -4h-4l-7 7h-5l-8 -7v0h-1q-2 0 -3 1q1 3 3 5t3 4q-2 1 -3.5 2t-1.5 4
q0 1 0.5 2t2.5 1q4 0 4 -2.5v-4.5q3 2 3 4v1.5v0.5q-1 1 -2 2.5t-2.5 3.5t-3 3.5t-1.5 2.5l-1.5 1.5t-1 0.5t-1.5 -0.5t-3 -0.5v-30l-4 -3q-3 1 -3 2.5v3.5v9t0.5 13t2.5 12.5t6 6.5q1 0 4 1t6 1.5t5.5 1t4.5 1.5q1 0 1 1.5v2.5q0 4 -4 5.5t-9.5 3.5t-9.5 5t-4 11zM57 225
l2 2l1 1h1h1q3 -2 4 -3t1 -3v-1q-1 -1 -1.5 -2t-0.5 -2q-1 -2 -2 -5.5t-2.5 -7.5t-2 -7t-1.5 -4q-1 -5 -1.5 -9t-1 -7.5t-0.5 -7.5v-9v-15q3 -6 3 -12.5v-12.5q0 -2 -0.5 -3t-2.5 -1t-3 3.5t-2 8.5t-1.5 11.5t-1 11.5t-1 8.5t-0.5 4.5q0 15 3 31t9 30zM84 158v8t0.5 6t1 6.5
t0.5 8.5q1 3 2 7.5t2.5 9t4 7.5t5.5 3q0 -7 -1 -14t-2.5 -14l-3 -14t-1.5 -15t1.5 -16.5t1.5 -16.5v-5l-3 -1h-1q-1 0 -2 1.5t-1 2.5q-2 6 -2.5 10.5t-1 8t-0.5 7.5v10zM137 175q0 -2 1.5 -4.5l3 -5t3.5 -4t4 -1.5h2q2 2 5 7t3 8q0 1 -0.5 2t-1.5 1h-4h-3t-3 0.5t-4 0l-4 -1
t-2 -2.5zM145 171q0 2 1.5 2.5t2.5 0.5t2.5 -0.5t1.5 -2.5q0 -1 -1.5 -1.5t-2.5 -0.5t-2.5 0.5t-1.5 1.5zM157 153v1l3 3h1q2 0 2 -1.5v-3.5v-2.5t-1 -3.5q-1 2 -3 3.5t-2 3.5zM148 128q-2 0 -3 1.5t-1 3.5q6 -2 6 -3.5t-2 -1.5v0zM141 112v-1l0.5 -1l0.5 -1q1 0 2.5 -0.5
t3 -0.5t3 -0.5t2.5 -0.5h1v0q1 0 4 0.5t4 1.5v0q0 2 -1 3.5t-2 2.5h-2.5t-3.5 0.5t-4 0.5h-2q-1 0 -3.5 -1t-2.5 -3zM141 101v-12l1 -2h1.5t4 -0.5t4.5 -1t4 -1.5h1q4 0 5 2.5t1 5.5v2.5t-0.5 3t-1.5 2.5t-2 1h-18zM94 96q0 2 0.5 2.5t1.5 0.5q4 0 6 -4.5t3 -11t1.5 -12.5
t0.5 -8v-7t-1 -7.5t-3 -6t-6 -2.5q0 7 0.5 14t0.5 15v7t-0.5 6t-1.5 6t-2 7v1zM172 91q0 -3 1.5 -5t5.5 -2q3 0 5 1t2 4q0 4 -2 6.5t-6 2.5t-5 -1t-1 -6zM53 93q0 4 4 4q3 0 4.5 -5t3 -11t2 -11.5t0.5 -6.5q0 -2 -0.5 -5t-1.5 -6t-3 -5t-4 -2t-3.5 0.5t-1.5 2.5
q0 6 1.5 12.5t1.5 13.5q0 5 -1.5 9.5t-1.5 9.5z" />
</svg>
