<?xml version="1.0" standalone="no"?>
<!DOCTYPE svg PUBLIC "-//W3C//DTD SVG 1.1//EN" "http://www.w3.org/Graphics/SVG/1.1/DTD/svg11.dtd" >
<svg xmlns="http://www.w3.org/2000/svg" xmlns:xlink="http://www.w3.org/1999/xlink" version="1.1" viewBox="-10 0 266 256">
   <path fill="currentColor"
d="M111 208q0 6 1.5 13.5t5 14.5t8.5 11t13 4q0 -6 -3 -10t-6.5 -8.5t-6 -9.5t-2.5 -13q0 -7 2.5 -12.5t5.5 -11t5.5 -11t2.5 -11.5v-3v-3q-2 -1 -3 -3.5t-2.5 -4.5t-3.5 -4t-5 -2t-3 3t1 5.5t2 5.5t2 6.5t1 6.5q0 5 -2.5 9.5t-5 8.5t-5 9t-2.5 10zM71 213q0 3 0.5 8.5
t1.5 10.5t3.5 9t7.5 4q2 0 3 -0.5t2 -1.5v-5q0 -3 -1 -5.5l-2 -5l-2 -5t-1 -5.5q0 -4 1 -8l2 -8l2 -8t1 -9q-4 0 -7.5 3.5t-6 7.5t-3.5 9t-1 9zM153 191v28q0 6 4.5 11t10.5 8.5t12 5t11 1.5q0 -3 -1 -5t-3 -3t-4.5 -2t-5.5 -3q-5 -3 -8 -7t-4.5 -9t-2 -9.5t-1.5 -8
t-2.5 -5.5t-5.5 -2zM54 185q0 2 1 2.5t3 0.5q5 0 12 -3t12.5 -7.5t9.5 -10.5t4 -12q0 -4 -3.5 -6.5t-7.5 -2.5q0 11 -3 15.5t-7.5 8t-10 6.5t-10.5 9zM161 180q0 3 4 3q3 0 5.5 -1.5t4.5 -4t3 -5t1 -5.5q0 -7 -1.5 -9.5t-3.5 -3.5t-5 -2t-4 -5q-2 1 -3 2t-1 3q0 3 2.5 6
t2.5 8t-2.5 8.5t-2.5 5.5zM188 120q7 0 8.5 4t1.5 9v9t3 4t4 -2.5t1 -4.5v-5t-0.5 -6.5t-0.5 -6.5t-1 -5q0 -3 -2.5 -3.5l-5 -1t-4.5 -1.5t-2 -4t2 -4.5t4 -2.5t4.5 -2t3.5 -3q0 -1 0.5 -4t0.5 -4q0 -7 -2.5 -9.5t-5 -3.5t-4.5 -1.5t-2 -4.5l0.5 -1t0.5 -2q3 -1 5.5 -2.5
t5 -3.5t4 -4.5t1.5 -6.5q0 -5 -1 -7t-2.5 -3t-3 -1.5t-3.5 -2.5q-1 -2 -1.5 -4l-1 -4t-2 -3.5t-4.5 -1.5h-2q-1 8 -3 12t-4 6.5t-4 4.5t-2 6q0 3 1.5 5t3 3.5t2.5 4t1 5.5t-2 5t-4.5 3.5t-4.5 3t-2 4.5q0 6 2 9.5t4 5.5l3.5 3.5t1.5 4.5t-1.5 4.5t-3.5 2.5t-5 1.5t-4 2.5
q-2 3 -3 7t-1 7.5v7.5v6q4 0 5.5 -2t1.5 -5q0 -1 0.5 -3.5t1.5 -5.5t1 -5.5v-2.5q1 -1 2 -1h1q2 0 3 1.5t2 3.5v3t-0.5 4t-0.5 4v3v2q0 2 1 2.5t3 0.5q3 0 4 -3t1.5 -7.5t0 -8.5t-0.5 -5zM68 109v0l1.5 1.5l0.5 0.5v31q3 0 6 -2t3 -7v-22q0 -2 1.5 -2.5t2.5 -0.5q3 0 4.5 3
t1.5 5v3v5v4.5v2.5q1 2 2 2h2h2.5t1.5 -2v-2v-3v-3v-2q0 -7 -1.5 -10.5t-3.5 -5t-3.5 -2.5t-3.5 -1.5t-3 -1.5t-1 -5q0 -3 2.5 -5t5 -3.5t5 -4t2.5 -7.5q0 -3 -2 -5.5t-4.5 -5l-4 -4t-1.5 -2.5q2 -4 4 -5l4 -2t3.5 -3t1.5 -7q0 -7 -1.5 -10t-4 -5t-4 -5t-1.5 -10q-5 0 -7 1
t-3 2.5t-1 4.5v6q-1 1 -3 2.5t-4.5 3t-4.5 4t-2 7.5q0 1 0.5 3.5l0.5 2.5q1 3 3.5 3.5t4.5 1t3.5 1.5t1.5 4t-2.5 4.5t-5.5 3t-5.5 5t-2.5 9.5q0 4 1.5 5.5t3.5 3t4 3.5t2 6q0 3 -2 4t-5 1.5t-5.5 1.5t-3.5 3q-3 6 -3.5 13t-0.5 13q7 0 9 -3.5t2.5 -8.5t1 -9t5.5 -4z
M112 136q0 1 2 1.5t4.5 0.5t4.5 0.5t3 0.5h4h6.5t6.5 -0.5t4 -0.5q3 -1 4.5 -4t2 -6.5t0 -7t-0.5 -6.5v-4.5v-4.5t-1 -1.5t-2 -0.5q-2 0 -2.5 1t-1.5 2.5t-1.5 2.5t-2.5 1q-3 0 -4 -2t-1 -4v-4.5t2 -4.5h4t6.5 -1t6 -2.5t2.5 -4.5v-14q0 -1 -1 -1h-2q-3 0 -3.5 2l-1 4
t-2 4.5t-4.5 2.5l-2 -0.5t-2 -1.5v-19l1 -1.5l1 -1.5q6 -3 8.5 -4t4 -2.5t2 -4.5l1.5 -9q0 -2 2 -2.5l4 -1t3.5 -1t1.5 -2.5t-1 -2.5t-3 -0.5q-11 0 -22 0.5t-22 2.5q-2 1 -5 0.5t-5.5 0t-4.5 1.5t-2 3t1 2.5t2 0.5h3.5h2.5q2 1 4 3.5t4 5.5t4 6.5t4 5.5v10q0 2 0.5 5
t-0.5 5.5t-2.5 4t-5.5 1.5q-1 0 -3.5 -0.5t-2.5 -2.5v-14l-2 0.5t-3 1t-1.5 3.5t-0.5 4q0 4 1 7t3 6q2 0 7 0.5t9 2.5l0.5 0.5t0.5 1.5l-1 9h-2.5h-2.5q-4 0 -6.5 -1.5t-5.5 -1.5q-4 0 -5 2.5t-1 5.5q0 6 1.5 12t5.5 11zM114 123q0 -1 0.5 -2t0.5 -2q4 -3 9.5 -3h10.5
q6 0 9 3.5t3 10.5h-29q-3 0 -3.5 -3t-0.5 -4zM177 89q0 -4 3 -7.5t8 -3.5q4 0 6.5 1.5t2.5 6.5t-3 6.5t-8 1.5h-3h-3q-1 -1 -2 -2.5t-1 -2.5zM70 78q0 -3 2.5 -5.5t6.5 -2.5q3 0 5 3t2 6q0 4 -3 5t-7 1q-2 0 -4 -2t-2 -5zM184 48q0 -3 2 -5t6 -2q3 0 4.5 1.5t1.5 5.5v4
q-2 2 -5.5 2.5t-6.5 0.5q-2 0 -2 -2.5v-4.5zM126 46q0 -2 0.5 -3t2.5 -2q1 0 3.5 -0.5l5 -1t4.5 -0.5h3h1q2 0 2 1.5v3.5q0 5 -3 7t-8 2t-8 -1t-3 -6zM71 41q0 -4 4 -6t7 -2q7 0 7 7q0 3 -3.5 5.5t-6.5 2.5q-2 0 -3.5 -1.5t-3.5 -4.5h-0.5t-0.5 -1zM118 21q0 1 2 2t3 2h5.5
h5.5h12t12 -2l1.5 -1t1.5 -2v0v-1q0 -1 -0.5 -2t-0.5 -2h-2.5h-3.5h-3h-2h-6t-10.5 0.5t-10 2t-4.5 3.5z" />
</svg>
