<?xml version="1.0" standalone="no"?>
<!DOCTYPE svg PUBLIC "-//W3C//DTD SVG 1.1//EN" "http://www.w3.org/Graphics/SVG/1.1/DTD/svg11.dtd" >
<svg xmlns="http://www.w3.org/2000/svg" xmlns:xlink="http://www.w3.org/1999/xlink" version="1.1" viewBox="-10 0 266 256">
   <path fill="currentColor"
d="M54 249q0 2 1.5 2.5t2.5 0.5q9 0 17.5 -5.5t16 -13.5t13.5 -16t10 -14q2 -2 3 -5.5t2 -6.5t2.5 -6t4.5 -5q4 2 7 9t7 15t8.5 16t10.5 12q1 0 3.5 1.5t5.5 3t5.5 2.5t3.5 2q3 2 4.5 3.5l2.5 2.5t3 1.5t7 0.5q0 -3 -0.5 -4.5t-2.5 -3.5q-33 -20 -46 -47.5t-11 -64.5
q-1 -2 -3 -2h-3h-3t-1 1t-0.5 2t-0.5 4q-2 8 -3 15.5t-2.5 15t-3.5 14.5t-6 15q-2 6 -6 10.5l-8 9l-8 9t-6 9.5l-5 2.5l-7 3.5t-7 4t-5 2q0 1 -1.5 2t-1.5 2v1zM86 143q0 3 -1.5 8.5t-2.5 11t-2.5 10.5t-2.5 7q-1 4 -3 6.5t-3 4t-2 4t-1 5.5q5 0 10.5 -5t9 -12t5.5 -14.5
t2 -11.5v-4.5v-5t-1.5 -4.5t-3.5 -2t-2.5 0.5zM165 141q2 9 4.5 17t8.5 15q1 2 3.5 4.5l5 5t6 5t5.5 2.5t3.5 -1t1.5 -3v-1v-1q-1 -1 -4.5 -4t-7 -6.5l-6.5 -6.5l-4 -4q0 -1 -1.5 -4l-3.5 -7l-3.5 -7t-2.5 -4l-0.5 -0.5l-0.5 -0.5h-1h-1l-1 0.5zM70 82q0 12 4 22t10 19
q3 -1 3.5 -2.5t0.5 -3.5q0 -4 -1.5 -8.5l-3 -9l-3 -9t-1.5 -9.5t1 -9t6 -7h7t5.5 -0.5t5.5 -1t7 -0.5q6 0 8 3.5t2.5 9t0 11.5t0.5 10l2 6t3 6t3.5 6l2.5 5l0.5 1t1.5 1l2.5 -2.5t0.5 -2.5q0 -5 -1 -9t-2.5 -8t-2.5 -8.5t-1 -8.5v-4t0.5 -6t1 -5.5t2.5 -2.5h32q1 0 3 1t3 2
v12t0.5 10t1.5 9.5t3 9.5q0 1 0.5 2t1.5 2t2.5 3t3.5 3.5t3 2.5l1 1h3q0 -3 -1 -5.5t-2.5 -5t-2.5 -5t-2 -5.5q-1 -5 -1.5 -11t-0.5 -12q0 -5 1 -10.5t2.5 -11l3 -11t1.5 -10.5q0 -6 -1.5 -11t-4.5 -10q-1 1 -2 2.5t-2 2.5v5t-0.5 7t-0.5 7v5q-1 0 -1.5 2t-1.5 4.5t-2 4
t-2 1.5h-35l-2 -2v-2v-3q0 -4 1 -8l2 -8l2 -8t1 -8q0 -3 -1.5 -3.5t-4.5 -0.5h-3q-1 0 -2 2q0 2 -0.5 5.5t-1 8t-1 8t-1 5t-1 5t-0.5 4.5l-1 1t-1.5 2.5t-1.5 1.5h-27q-3 0 -3.5 -1.5t-0.5 -3.5q0 -4 1 -7t2 -6.5l2 -7t1 -7.5v-3v-3t-1.5 -2t-2.5 -2h-1v0q-4 7 -5.5 13.5
t-3.5 13.5q-3 6 -6 11.5t-5 11.5q-2 5 -2 10v9z" />
</svg>
