<?xml version="1.0" standalone="no"?>
<!DOCTYPE svg PUBLIC "-//W3C//DTD SVG 1.1//EN" "http://www.w3.org/Graphics/SVG/1.1/DTD/svg11.dtd" >
<svg xmlns="http://www.w3.org/2000/svg" xmlns:xlink="http://www.w3.org/1999/xlink" version="1.1" viewBox="-10 0 266 256">
   <path fill="currentColor"
d="M157 197q1 1 3 5t4.5 10t5.5 13t6 13t6 10t7 4q3 0 4 -2t1 -4v-2v-1q-5 -5 -9.5 -11t-8.5 -13t-6 -14t-2 -14q0 -5 3 -8.5t7 -6t9 -4.5t9 -4.5t7 -5.5t3 -9q-6 0 -10.5 2.5t-8.5 5.5t-9 6.5t-10 4.5v-3q0 -6 3 -11.5t6.5 -10.5t6.5 -9.5t3 -8.5q0 -6 -5 -10t-11 -7.5
t-11 -7t-5 -7.5t1.5 -8t1.5 -8q6 -2 12.5 -2.5t12.5 -0.5t8.5 5.5t4 12t3.5 11.5t8 4q2 -1 2.5 -2.5t0.5 -3.5v-1v-1q-1 -1 -2 -3t-2.5 -4.5t-2.5 -5t-1 -3.5q-1 -1 -1.5 -2.5l-0.5 -1.5q0 -2 -0.5 -6.5t-1 -9.5t-1 -9.5t-0.5 -6.5q0 -1 0.5 -2.5t1 -3.5l1 -4t0.5 -3
q0 -2 -1 -4t-4 -2q-2 0 -4 2q-2 9 -2.5 18t0.5 18q-4 0 -6.5 0.5l-5 1t-4.5 0.5h-6h-7l-2 -2v-1q0 -5 1 -10t1 -11v-3v-3.5v-3.5v-1q0 -1 -1 -4.5t-1.5 -7t-1.5 -6.5t-1 -4t-1 -1.5t-2 -0.5q-2 0 -3.5 1t-1.5 3q0 8 2.5 17t2.5 18q0 1 -0.5 5t-0.5 8t-0.5 7.5t-1.5 3.5
t-3.5 0.5t-5 0.5t-5 0.5l-2.5 0.5h-4h-3.5t-3 1t-1.5 4q0 1 2.5 1h2.5q5 0 9.5 -0.5t9.5 -0.5h2t2 1v6q0 10 -3 19t-8 17.5t-11.5 16t-13.5 13.5v1q0 2 1.5 2.5t2.5 0.5q3 0 5.5 -2t5 -4.5t4.5 -5.5t4 -4q0 -1 2 -3.5t3.5 -5.5t3 -5t2.5 -3q1 -2 1.5 -5t1 -5.5t2 -4
t5.5 -1.5t7 2t5.5 5t4 7t1.5 7q0 5 -2.5 9.5l-5 9t-4.5 9.5t-3 10q-1 3 0 7.5t-2 6.5q0 1 -1 2l-2.5 2.5t-3 2.5l-1.5 1q-4 5 -7.5 12.5t-6.5 12.5l-3.5 7t-2.5 6.5t-3 6t-4 6.5q0 2 0.5 2.5t2.5 0.5q6 0 9.5 -6.5t6.5 -15t6.5 -16t8.5 -11.5zM81 137q-4 6 -6 13.5t-3 15
t-2.5 15t-4.5 13.5l-1.5 2t-1.5 3l-4 12t-4 13l-3 4.5t-2 3.5t-1.5 4t-0.5 6q5 0 10 -6.5t8.5 -14.5t5.5 -16.5t3 -12.5q1 -1 2 -5t2 -8.5t2 -8.5t1 -6q0 -3 -0.5 -5.5t3.5 -3.5q1 0 3 6.5t3.5 16t4 21t4.5 20.5t4.5 15.5t5.5 6.5q1 0 3.5 -2t2.5 -4v-2q-3 -10 -7.5 -19.5
t-7.5 -19.5q0 -1 -0.5 -3.5l-0.5 -2.5q-5 -26 -8.5 -51.5t-3.5 -51.5v-1q1 -1 1.5 -3.5l0.5 -2.5v-36l1.5 -4.5t0.5 -3.5q0 -3 -1 -5.5t-5 -2.5q-5 0 -6 5v9q0 17 1 33.5t1 33.5v30zM52 133l1.5 1.5l1.5 1.5q1 0 2.5 -1t2.5 -2.5l2 -3l1 -1.5q2 -6 2.5 -11l1 -10t0.5 -10
v-11v-19q0 -3 -1.5 -3h-2.5h-3.5t-2.5 1v47q-1 1 -2 4t-2 6.5t-1 6.5v4zM105 131q0 2 1 2.5t2 0.5h2t2 -1v-5v-5v-5.5v-3.5q0 -2 -0.5 -6.5t-1.5 -10t-1 -10.5v-6q-1 -2 -0.5 -5.5t0 -7t-1.5 -6.5t-3 -3h-2t-2 2v4v4q0 16 2 31t3 31z" />
</svg>
