<?xml version="1.0" standalone="no"?>
<!DOCTYPE svg PUBLIC "-//W3C//DTD SVG 1.1//EN" "http://www.w3.org/Graphics/SVG/1.1/DTD/svg11.dtd" >
<svg xmlns="http://www.w3.org/2000/svg" xmlns:xlink="http://www.w3.org/1999/xlink" version="1.1" viewBox="-10 0 266 256">
   <path fill="currentColor"
d="M132 170q0 6 -2.5 14.5t-6.5 17t-8.5 16.5t-8.5 13q-2 4 -4 6t-3.5 4t-2 4.5t-0.5 5.5q4 0 8.5 -4t8 -10.5t7.5 -14t7 -14t5.5 -11t5.5 -4.5h2q1 2 3.5 6.5l5 9t4.5 9t3 6t3.5 5.5t5 7t5.5 6t6 3q1 0 2 -0.5l3 -1.5v-2v-2q0 -4 -2 -6t-4 -3.5t-5 -3t-5 -4.5q-1 0 -2 -2
t-3 -5l-4 -6t-3 -5q-6 -10 -8.5 -21t-3 -22t-0.5 -22.5t-1 -23.5v-2.5t-1 -3.5t-2 -3t-2 -1h-1l-2 1q-1 4 -1 7t-0.5 5.5t-0.5 5.5v6q0 10 1 20t1 20zM75 244q0 2 1 3t3 1t3 -1.5t1 -3.5q1 -16 1.5 -33t1.5 -34.5t2 -34.5t3 -33q3 -4 8 -6.5t11 -4.5t12 -2.5t9 -0.5h3
q1 0 4.5 0.5t6.5 0.5h5.5h2.5q1 0 2 0.5l3 1.5t3.5 1h1.5q1 0 3 -0.5t5 -1t5 -2t2 -3.5q0 -1 -0.5 -2t-1.5 -1h-5h-6.5h-7.5h-4h-14h-11.5t-11.5 1t-13 2q-6 2 -9.5 5t-5.5 6.5t-4.5 7.5t-4.5 8q0 32 -2 63t-2 63zM104 163v23q3 0 5 -3t3 -8t1.5 -11t1 -11.5t0 -10
t-0.5 -5.5v-3v-3v-3v-2q0 -2 -1 -2h-2h-2t-1 2q0 1 -0.5 3.5t-1 6t-0.5 6v3.5v4v5v5t-2 4zM166 169q1 2 1 5t0.5 5.5t1.5 4.5t4 2t4 -2t1 -5q0 -1 -1 -6t-2 -12t-2.5 -14.5t-2.5 -14t-2 -11t-2 -4.5q0 -1 -1.5 -1.5l-1.5 -0.5h-0.5h-0.5q-2 0 -2.5 1.5t-0.5 2.5t0.5 2t0.5 2
q0 2 1 9l2 14l2 14t1 9zM82 33v13t2.5 13t7 10t12.5 5q2 1 6 1t8 0.5t7.5 0.5h4.5q2 0 7 -0.5t10 -1.5t9.5 -1.5t6.5 -1.5q5 -1 9 -6t7 -9q1 -7 1.5 -11.5t0.5 -10.5v-3t-0.5 -4.5t-1.5 -3.5t-3 -1l-1.5 0.5l-1.5 0.5q-1 0 -1.5 0.5t-0.5 1.5v21q0 3 -2.5 5t-5.5 2h-3
q-2 -1 -5 -3.5t-6.5 -5t-7 -4.5t-4.5 -3q-3 -3 -4 -7t-1 -8t-0.5 -7t-3.5 -3h-1l-2 2l-1 1v20q0 2 -2 3.5t-4.5 3l-5 3t-3.5 2.5q0 1 -2 2t-3.5 2.5l-3 3t-2.5 1.5h-1v0h-1l-1.5 -1t-1.5 -2l-3 -24l-1.5 -1l-1.5 -1q-2 0 -3.5 2t-1.5 4zM103 65q1 -3 4 -7t7 -7t8.5 -5
t8.5 -2q2 0 6 2t8 4.5t7 5.5t3 6v1v1q-9 3 -17.5 3h-17.5h-3h-4.5h-4.5h-2z" />
</svg>
