<?xml version="1.0" standalone="no"?>
<!DOCTYPE svg PUBLIC "-//W3C//DTD SVG 1.1//EN" "http://www.w3.org/Graphics/SVG/1.1/DTD/svg11.dtd" >
<svg xmlns="http://www.w3.org/2000/svg" xmlns:xlink="http://www.w3.org/1999/xlink" version="1.1" viewBox="-10 0 266 256">
   <path fill="currentColor"
d="M132 244q0 2 1 3.5t3 1.5h1l1 -1t2.5 -2t2 -2t1.5 -1q0 -2 -0.5 -6.5t-0.5 -9.5t0.5 -9.5t0.5 -5.5v-13t1 -17t3.5 -16t6.5 -10q6 4 10 13.5t7 20t4 20.5t1 17q0 4 -0.5 7.5t-0.5 6.5q0 2 1 3.5t3 1.5v0v0q1 0 2 -0.5t2 -1.5v-2t0.5 -3.5t0.5 -3v-2.5v-3q0 -20 -5 -41
t-16 -38q0 -1 -0.5 -2l-0.5 -1q1 -4 5.5 -6.5t9.5 -6t8.5 -8.5t3.5 -12q0 -8 -3.5 -12.5t-8 -8.5t-8.5 -6.5t-4 -5.5v-25q0 -1 1.5 -1h2.5q5 0 9 2t7.5 5t7 5.5t7.5 2.5q3 0 4 -1.5t1 -3.5v-1.5v-0.5l-2.5 -5t-2.5 -3h-1q-2 -1 -6 -2.5t-8 -3.5t-8 -3.5t-5 -2.5q-3 -1 -4 -1
h-1.5t-0.5 -1v-2q0 -4 1 -6.5t1 -6.5q0 -1 -0.5 -3t-1.5 -4t-2.5 -4t-3.5 -1q-2 0 -3.5 3.5t-1.5 4.5l1 2t1 3v3t-0.5 4.5t-0.5 5t-1 3.5q0 1 -0.5 2l-0.5 1q-3 1 -8.5 3l-11 4t-9.5 5.5t-4 8.5q4 0 8 -1.5l8 -3t8 -4t7 -3.5h5v28q-3 1 -7 4t-7.5 6.5t-5.5 8t-2 8.5
q0 7 1.5 11t4 7.5t5.5 7t5 9.5q-3 6 -6.5 11.5t-5.5 11.5q-3 17 -4 32.5t-2 33.5q-1 2 -1.5 4t-0.5 5zM86 13v30q-1 21 -2 43t-3 44t-7 43.5t-14 41.5q-1 3 -2.5 6t-3 5.5t-2.5 5.5t-1 6q7 0 12 -7t8 -16.5t5 -19t3 -15.5q1 -1 1 -3.5t0.5 -5t1 -5.5t0.5 -4q1 0 2 -0.5
t2 -0.5t2.5 3.5t3 8.5t2.5 9.5t1 6.5l0.5 2l1 4t0.5 4v3l1 2.5t1.5 5t1.5 4.5l1 2q0 1 0.5 3.5l1 5l1 5t0.5 3.5l0.5 0.5t0.5 1.5h2q2 0 4.5 -3t2.5 -6l-0.5 -1.5t-1 -3.5l-1 -4l-0.5 -2l-1.5 -1.5l-0.5 -0.5q-2 -5 -3.5 -10t-2.5 -10.5t-2.5 -10.5t-4.5 -10
q0 -18 -2.5 -34.5t-2.5 -33.5q0 -21 2.5 -42t2.5 -41q0 -5 -1 -7.5t-5 -2.5h-3t-2 2zM145 114q0 -4 1.5 -7.5t3.5 -6.5t5 -5t7 -2t7 2.5t5 5.5t3.5 7t1.5 7q0 4 -2 8t-5 7.5t-6.5 6t-7.5 2.5q-3 0 -5.5 -3t-4 -7t-2.5 -8.5t-1 -6.5zM58 120v2q0 2 0.5 3.5t1 2.5t2.5 1
q1 0 3.5 -1.5t2.5 -2.5v-61q0 -1 -1 -1.5t-2 -0.5q-3 0 -4 3.5t-1 5.5v5l0.5 1t0.5 2.5t0.5 3l0.5 1.5q0 9 -2 18t-2 18zM103 65q0 12 1.5 25.5t1.5 26.5l0.5 1.5t1 3.5t0.5 3.5v2.5h2h2q2 0 3 -1t1 -4q0 -14 -1 -29.5t-3 -29.5l-2 -2t-2 -1l-1 0.5t-2 0.5q0 1 -1 1.5
l-1 0.5v1z" />
</svg>
