<?xml version="1.0" standalone="no"?>
<!DOCTYPE svg PUBLIC "-//W3C//DTD SVG 1.1//EN" "http://www.w3.org/Graphics/SVG/1.1/DTD/svg11.dtd" >
<svg xmlns="http://www.w3.org/2000/svg" xmlns:xlink="http://www.w3.org/1999/xlink" version="1.1" viewBox="-10 0 266 256">
   <path fill="currentColor"
d="M204 242v2v2.5t1 3t2 1.5q3 0 5 -2.5t2.5 -5.5t0.5 -6v-5q0 -26 -0.5 -53t-3.5 -53q0 -2 -0.5 -4.5t-1 -6t-1 -6.5t-2.5 -6t-7.5 -6l-11 -6t-10 -6.5t-4.5 -7.5t2 -5.5t5 -2t6 0t6 -0.5q5 0 9.5 -2.5t9.5 -3.5l4 -11v-35q0 -3 -1.5 -3.5t-3.5 -0.5q-3 0 -4 1.5t-1 3v4
t-1 3.5q0 2 -3 3.5t-8 2l-10 1l-10 1t-8.5 1t-5.5 0.5q-1 0 -5.5 0.5t-9.5 1t-9 1t-6 0.5q-2 1 -2 2v2v1q4 2 6.5 2h5.5q7 0 13 -0.5t13 -0.5v1q0 2 -0.5 5t-0.5 6t-0.5 5t-0.5 3t-0.5 3l-0.5 2l-31 3q-2 0 -2 1.5v3.5v2l6 1.5t6 0.5q5 0 10 -2t11 -2q2 0 3.5 1.5t2 3.5
t1 4.5t1.5 4.5q2 3 5.5 5t7 3.5t7 3.5t6.5 5q1 2 2.5 6t2 8.5t1 8.5t1.5 7q1 16 2 31.5t1 32.5q0 10 -1 20.5t-1 20.5zM83 20v65q0 1 -0.5 7t-1 12.5t-0.5 12v6.5v16q-1 4 -3.5 12t-5.5 16.5t-6.5 17t-5.5 13.5q-2 6 -5 12l-6 12t-5 12t-2 13q5 0 8 -2t4.5 -5t3 -7t2.5 -8
q1 -2 3 -7t4 -9.5t3.5 -8.5t1.5 -5q1 -2 2.5 -7t3 -11t3 -11t2.5 -7l0.5 -1.5l0.5 -1.5q3 1 5.5 8t4.5 17t4.5 21t5 20.5t5 15.5t5.5 6h0.5h0.5q3 -2 4 -3t1 -4v-2q-1 -2 -3 -7t-4.5 -11t-4.5 -13t-4 -12.5t-3 -8.5l-1 -3q-4 -16 -7.5 -32.5t-3.5 -32.5q0 -15 0.5 -29.5
t1.5 -29.5q1 -6 2 -14t1 -14q0 -3 -1.5 -6.5t-4.5 -3.5q-2 0 -3 0.5t-2 1.5zM139 183q4 5 9.5 6t10.5 1q8 0 14 -2t7 -10q0 -2 1 -5.5t1.5 -7.5t1 -7t0.5 -4v-5v-8v-9v-5v-1.5t0.5 -3.5t0.5 -3.5v-1.5q0 -3 -1 -3h-4q-2 0 -4 1t-2 4l0.5 2l0.5 2v3.5v4.5v2.5v2.5l-3 3h-26
v-25l-0.5 -1t-1.5 -1q0 -1 -1.5 -1.5l-1.5 -0.5q-1 0 -2 0.5t-2 1.5v20v14q0 5 0.5 11t0.5 12t1 14zM146 161v-4.5v-4.5q1 -2 3.5 -3t5 -1.5t5.5 -0.5h5h4q2 0 3 1l2 1v2v4q0 4 -0.5 8.5t-1.5 8t-4.5 6t-8.5 2.5t-7.5 -1.5t-4 -4t-1.5 -6v-7.5zM51 143q0 3 1.5 4.5t4.5 1.5
q2 0 3 -1.5t2 -3.5q0 -2 0.5 -7t1 -11t1 -11t0.5 -7v-4v-6t0.5 -6.5t1.5 -5.5v-37q0 -1 -1 -1.5t-2 -0.5q-2 0 -4.5 1.5t-2.5 3.5v48q-3 10 -4.5 21.5t-1.5 21.5zM105 77v24v6.5t0.5 9.5t0.5 9.5v5.5v3t0.5 4.5t1.5 4.5t3 2h1l1.5 -1l1.5 -1v-10q0 -19 -1 -38.5t-1 -39.5
q0 -1 -2 -3t-3 -2l-1.5 0.5l-1.5 0.5v25zM175 50v-4v-4q1 -1 2.5 -2t2.5 -1q2 0 5 -0.5l6 -1t5.5 -0.5h2.5l4 2v15q0 2 -3 3.5t-7 3t-7.5 2t-5.5 0.5t-3 -2t-1.5 -4t-0.5 -4v-3z" />
</svg>
