<?xml version="1.0" standalone="no"?>
<!DOCTYPE svg PUBLIC "-//W3C//DTD SVG 1.1//EN" "http://www.w3.org/Graphics/SVG/1.1/DTD/svg11.dtd" >
<svg xmlns="http://www.w3.org/2000/svg" xmlns:xlink="http://www.w3.org/1999/xlink" version="1.1" viewBox="-10 0 266 256">
   <path fill="currentColor"
d="M72 244q8 2 16.5 2.5t16.5 0.5h4t6 -0.5t5 -0.5h3q3 0 11 -0.5t16.5 -1t16.5 -1t11 -0.5q4 -1 5.5 -3t1.5 -6h-7.5h-11.5h-12.5h-7.5q-1 -1 -3.5 -1t-5.5 -0.5t-5.5 -0.5h-3.5v-5q0 -4 1 -8t3 -8q8 -1 17.5 -2t17.5 -2q4 0 4 -3t-1.5 -3.5t-4.5 -0.5h-35l-2 -2v-3.5
t-0.5 -5.5t-0.5 -5.5t-1 -3.5q0 -2 -2 -5t-4 -3v0v0q-1 1 -2 1.5l-1 0.5v24l-5 4h-3.5h-5.5h-4.5h-3.5q-3 0 -7 1t-6 4q1 1 2.5 1.5l1.5 0.5h2q1 1 5 1t8 0.5t8 0.5h5l1 1l1 1v1v1q0 2 -0.5 4.5t-0.5 5.5t-0.5 5l-0.5 2l-3 3l-3 0.5t-7 0.5t-8 0.5t-7 0.5h-4t-4.5 0.5
t-4 1.5t-1.5 4v1v0zM118 98q0 2 -0.5 5.5l-1 7t-0.5 7v4.5v2v3v3v1q-1 8 -5.5 15.5t-10.5 14t-12 12.5t-11 10q-2 3 -5.5 5t-7 4.5t-6 6t-2.5 7.5q4 0 7.5 -1.5t7 -4l7 -5t6.5 -4.5l30 -33q1 -3 3 -5.5t4 -2.5h2l2 2l1 1t3 2.5t3 2.5t2 1q0 1 2.5 3.5t5 5.5t5 5t3.5 3
q2 3 8.5 6t13.5 6t14 5t10 2q4 0 4 -5q0 -2 -3 -4t-8 -4t-9 -3.5t-6 -2.5q-12 -7 -23.5 -15.5t-18.5 -21.5q-2 -4 -4 -9t-3 -10.5t-1.5 -11t-0.5 -10.5l-0.5 -1t-1.5 -1l-1.5 1zM97 121q-2 1 -3 2.5l-2 3l-2 3t-2 3.5q-2 3 -5.5 5.5t-6.5 5t-5.5 5.5t-2.5 7q6 0 11 -2.5
t9.5 -6.5t7.5 -9.5t3 -11.5v-3t-2 -2zM142 121q0 7 3.5 13t9 10t12.5 6t13 2h5l0.5 -1l0.5 -1l-0.5 -1.5l-0.5 -1.5l-1.5 -1.5l-0.5 -0.5q-1 -1 -3 -1.5t-5 -1.5t-5 -2t-3 -1q-6 -3 -12.5 -8t-10.5 -10h-2zM124 10q-2 0 -3.5 4t-2 11t-1 15.5t-1.5 16.5t-2.5 14.5t-4.5 10.5
l-5 5t-6.5 7t-6 6.5l-3.5 3.5q-3 2 -7.5 4t-8.5 4.5t-7 5.5t-3 8q10 0 19 -6.5t17 -14t14.5 -14t11.5 -6.5h1q9 11 19.5 20t24.5 14q2 0 5 1t6.5 2t5.5 1.5l2 0.5l4 -3q-3 -4 -7 -6.5t-8.5 -4.5l-9 -4t-7.5 -4q-5 -4 -9 -8l-9 -9q-1 -1 -3.5 -3t-4 -3.5t-3 -4t-1.5 -5.5v-56
l-1.5 -1t-2.5 -1.5l-1 -0.5h-1zM61 84q1 0 2 1.5t2 1.5q5 2 10.5 -3t10 -12t7 -14.5t2.5 -12.5v-2.5v-3.5t-1 -1.5l-1 -0.5q-1 0 -2 0.5t-1 1.5q-4 8 -6.5 13.5t-5.5 10.5t-7 9.5t-10 11.5zM149 31q0 9 2.5 18t7 16.5t11.5 12.5t17 5q0 -4 -0.5 -6t-2.5 -3.5t-4.5 -3
t-5.5 -3.5q-2 -4 -4 -10t-5 -12t-6.5 -10t-9.5 -4z" />
</svg>
