<?xml version="1.0" standalone="no"?>
<!DOCTYPE svg PUBLIC "-//W3C//DTD SVG 1.1//EN" "http://www.w3.org/Graphics/SVG/1.1/DTD/svg11.dtd" >
<svg xmlns="http://www.w3.org/2000/svg" xmlns:xlink="http://www.w3.org/1999/xlink" version="1.1" viewBox="-10 0 266 256">
   <path fill="currentColor"
d="M189 239q0 4 2 8t6 4t4.5 -2.5t0.5 -4.5v-4q0 -3 -0.5 -11.5t-0.5 -20.5v-25t-0.5 -25t-0.5 -21v-11v-3q0 -4 1 -8.5t1 -8.5v-3q-1 -3 -1 -8v-12t-0.5 -14t-0.5 -14v-12v-8q-2 -5 -7 -7.5t-11.5 -3t-12.5 -0.5t-10 -1q-3 0 -5 -2t-3 -4t-2.5 -3.5t-4.5 -1.5
q-5 0 -5.5 2.5t-0.5 6.5q0 17 1.5 33t0.5 33q1 6 4.5 9t8.5 5t11.5 3t12 2.5t9.5 3t5 5.5v10v15v15v11q0 18 -1 36t-1 37zM52 246q1 0 2.5 0.5l1.5 0.5h0.5h0.5h1l3.5 -3.5l3.5 -3.5v-38q0 -19 -1 -37t-1 -37v-2v-4.5v-3.5v-3l3 -3t2 -1.5l2 -1t4 -1.5q9 -4 16 -6.5t11 -6
t6.5 -9.5t2.5 -18v-2v-5v-4v-3t0.5 -5.5t1 -10t0.5 -10v-5.5v-3q0 -3 -2 -5.5t-5 -2.5l-0.5 0.5t-1.5 0.5q0 5 -1 7t-3 3.5t-5 1.5t-8 1q-2 1 -5.5 1.5t-7 1.5t-7.5 2t-5 1l-1 1l-2 2l-2 2l-2 2l-1 1.5l-1 1.5v115q2 12 2 21v20t-1 21.5t-1 21.5v5zM75 226q0 3 1.5 3.5
t3.5 0.5q5 0 9.5 -3.5t9 -8.5t8.5 -11t8 -11t6.5 -8.5t4.5 -3.5q3 0 5.5 3.5t5.5 8.5t6.5 10.5t7 10.5t7.5 8t9 3q3 0 3 -4q0 -7 -5 -13t-11.5 -13t-12.5 -14.5t-8 -16.5v-10v-14v-15q0 -8 -0.5 -14.5t-2 -10.5t-4.5 -4q-1 0 -2 0.5t-1 1.5t-0.5 4l-1 6t-0.5 5.5v3.5v51
q0 2 -3.5 7t-8.5 11t-11 12.5t-11 12t-8.5 9zM94 126h-1q-1 0 -2.5 1.5l-1.5 1.5v49l1.5 0.5t2.5 0.5t1 -1q2 -10 2 -17v-16v-16l-0.5 -1.5t-1.5 -1.5v0zM158 175q0 2 1.5 2.5t2.5 0.5q4 0 5 -2t1 -5v-7.5v-11.5v-11.5v-8.5l0.5 -1t0.5 -2.5t0.5 -3l0.5 -1.5v-1
q0 -2 -2.5 -3t-3.5 -1h-1q-2 1 -3.5 3.5t-1.5 5.5v1v3t0.5 4t0.5 4v3v1v1v5t-0.5 9t-0.5 9.5v5.5v1zM61 82v-7q3 -2 7 -3.5t8.5 -2l9 -1t7.5 -0.5h3h2l2 2v16q0 2 -4 4t-9.5 4t-10.5 3t-7 1q-3 0 -4.5 -1.5t-2.5 -4.5t-1 -5.5v-4.5zM147 76v-2t0.5 -2.5t1.5 -2.5t2 -1h35
l3 4v21q0 1 -1 2t-2 1h-2.5h-2.5q-5 0 -11 -0.5t-11 -3t-8.5 -6.5t-3.5 -10zM61 57q0 -6 3 -10.5t7 -7t9.5 -3.5t10.5 -1q7 0 9 4t2 9v3q0 3 -1 3q-1 3 -6 4.5t-10.5 2.5t-10.5 1.5t-6 0.5q-3 0 -3.5 -1t-3.5 -4v-1zM165 33h6t7.5 1t6.5 2.5t4 4.5v6q0 2 0.5 5.5t-1.5 5.5
h-16h-12t-11 -2q-1 0 -1.5 -0.5t-0.5 -1.5v-17q0 -2 2.5 -2.5t5.5 -1t6 -0.5h4z" />
</svg>
