<?xml version="1.0" standalone="no"?>
<!DOCTYPE svg PUBLIC "-//W3C//DTD SVG 1.1//EN" "http://www.w3.org/Graphics/SVG/1.1/DTD/svg11.dtd" >
<svg xmlns="http://www.w3.org/2000/svg" xmlns:xlink="http://www.w3.org/1999/xlink" version="1.1" viewBox="-10 0 266 256">
   <path fill="currentColor"
d="M166 246q1 2 2 2h3q3 0 4 -1t2 -4v-21q0 -10 -1 -20t-1 -21v-0.5v-0.5q0 -1 0.5 -4t0.5 -6t0.5 -5.5t0.5 -3.5q2 -1 6 -1t8 -0.5t7 -1.5t4 -4l-2 -2h-53q0 3 2.5 4.5t5.5 2t6 0.5t5 2q2 10 2 18v18q0 11 -1 21.5t-1 21.5v3.5v2.5zM38 232q0 2 0.5 3t2.5 1q6 0 10.5 -5.5
t8 -13t6.5 -17t5.5 -17.5t5.5 -13.5t6 -5.5t4.5 1.5t2.5 4.5l3 28l3 9t4.5 12.5t5 11.5t5.5 5t5 -1q0 -1 0.5 -2.5t0.5 -2.5t-0.5 -2.5l-0.5 -1.5q0 -1 -1.5 -4t-3 -6.5t-2.5 -6.5t-1 -4q-5 -12 -8 -23.5t-5 -23.5q0 -1 -0.5 -4l-1 -6t-1 -5.5t-1.5 -3.5v-125q0 -2 -1.5 -2
h-2.5h-3t-2 2v104q0 1 -0.5 3t-1 4.5l-1 5l-0.5 2.5v11l-2.5 7.5t-4 8.5t-4.5 8l-3 6l-10 22t-10 21q-2 4 -4.5 7t-2.5 8zM184 176q0 4 2 4h5q8 0 13 -1.5t8.5 -4.5t4.5 -8t1 -12q0 -8 -3.5 -12t-8 -6.5t-10 -3t-10.5 -1t-8 -1.5t-3 -4t2.5 -4.5t6 -3.5t8 -4t8.5 -5t6.5 -7
t2.5 -10q0 -3 -1.5 -6.5t-4 -6.5t-5 -5.5t-5.5 -3.5h-3h-4h-4h-3q-10 0 -19 0.5t-17 6.5l-1 1l-1 1v24q0 4 2 6.5t5 4t6 2.5l6 2t4.5 3t1.5 5t-1.5 4.5t-5 2t-7.5 1t-7.5 2t-7.5 5t-6 10.5v1v2v3t0.5 4t0.5 4v3q5 6 12.5 8.5t15.5 2.5q0 -5 -3.5 -7l-7 -4l-7 -4t-3.5 -7
q0 -8 4.5 -11.5t10.5 -5t13 -1.5h14q5 0 10.5 0.5t9.5 2t6 5.5t2 10t-4 8.5t-8.5 4t-8.5 3t-4 3.5zM50 134q0 3 1 4t4 1q2 0 3.5 -1t2.5 -3q2 -20 3 -40t1 -40v-3t-0.5 -4.5t-1.5 -3.5t-4 -1h-2t-1 2q0 10 -0.5 21l-1 22t-1.5 22.5t-3 21.5v2zM108 137l0.5 1l0.5 1h1
q2 0 4 -1.5t2 -4.5v-24q0 -15 -1 -30.5t0 -30.5q-2 -4 -6 -4q-2 0 -2.5 1t-0.5 3v62q2 6 2 13.5v13.5zM150 100v-1q1 0 1.5 -0.5t0.5 -1.5q5 0 8.5 -0.5t7 -0.5h6.5h8h11q1 0 1.5 1t0.5 2q0 3 -2 5.5t-4.5 4t-6 2t-5.5 0.5h-6.5t-9 -1.5t-8 -3.5t-3.5 -6zM148 86
q0 -4 4 -5.5t9.5 -2.5t11 -1h7.5h8q6 3 6 8q0 3 -2 3.5t-6 0.5h-3.5t-8 0.5t-9.5 1t-8 0.5h-1q-2 0 -5 -1.5t-3 -3.5zM132 49q0 2 1 3t3 1q4 0 5.5 -4.5t3 -9.5t4 -9.5t7.5 -4.5t7.5 2t4 4.5t4 6t6.5 6t9.5 4.5t15.5 2q4 0 6.5 -1t4.5 -4l-3 -4q-3 1 -9.5 0.5t-12.5 -2
t-11 -4.5t-5 -9q0 -1 1 -1.5l1 -0.5h2.5t3.5 -0.5l4 -1t3 -0.5h4.5t7 -0.5t6.5 -0.5h5l3 -3t2 -3q1 -1 -1.5 -3t-3.5 -2q-8 0 -16 1t-16.5 2.5t-16.5 2.5t-15 1q-8 6 -11.5 14.5t-3.5 17.5z" />
</svg>
