<?xml version="1.0" standalone="no"?>
<!DOCTYPE svg PUBLIC "-//W3C//DTD SVG 1.1//EN" "http://www.w3.org/Graphics/SVG/1.1/DTD/svg11.dtd" >
<svg xmlns="http://www.w3.org/2000/svg" xmlns:xlink="http://www.w3.org/1999/xlink" version="1.1" viewBox="-10 0 266 256">
   <path fill="currentColor"
d="M125 182q0 6 -3.5 13t-9 14t-11.5 12.5t-9 8.5q-1 2 -4.5 3.5t-6.5 3.5t-5.5 3.5t-2.5 2.5t-0.5 3.5t-0.5 3.5q9 0 17 -4.5t14 -11.5t11.5 -15t10.5 -14q1 -2 2.5 -3t3.5 -1t5.5 5.5t7.5 12l8 13t5 8.5l10 10h0.5h0.5q3 0 5 -1.5t2 -4.5q0 -2 -3 -6.5t-7 -9.5t-9 -11
t-9.5 -12t-7.5 -11.5t-3 -9.5v-2t1 -1l6 -2t6.5 -2.5t6.5 -4t5 -4.5q2 -6 3.5 -14t2 -16t0.5 -15v-13h-11v11l-5 2q0 -1 -1.5 -2t-3.5 -2.5t-3 -2.5l-0.5 -0.5t-1.5 -0.5q0 -1 -1 -2t-2.5 -2t-2.5 -1.5t-2 -1.5l-0.5 -0.5l-0.5 -0.5v-20l2.5 -1t3.5 -2q3 -1 6 -1.5t5 -0.5h6
t7 -1q5 -2 8.5 -4.5t5.5 -7t3 -9t1 -9.5q0 -4 -1 -7.5t-1 -7.5v0l1.5 -0.5t1.5 -1.5h1q4 0 8 1t8 1t5 -1t1 -4q0 -2 -0.5 -4t-3.5 -1q-6 0 -11 -0.5t-9.5 -0.5h-8.5h-10h-15q-1 0 -1.5 1t-1 2.5t-0.5 2.5v2v2v3v5v3v3v4v4v3q0 2 1 2.5t2 0.5q2 0 3 -2t1 -6v-7t1 -7.5
t3.5 -5.5t8.5 -2h2t2.5 0.5t2 1.5t0.5 2l-3 28q-1 3 -4.5 5t-7.5 3t-8.5 1.5t-6.5 0.5t-3.5 -0.5l-1.5 -0.5l-3 -3v-51q0 -3 -2 -6.5t-5 -3.5h-1l-2 2l-1 1v49h-11v-34l-7 -7h-45q-2 0 -3 2.5t-1 4.5t1.5 3t2.5 2h3t4.5 -0.5t5 -0.5h2.5v9.5t1 13t3.5 11.5t8.5 5h35
q0 1 0.5 3l0.5 2q-1 2 -7 5t-13.5 6.5t-14.5 8t-11 9.5q-5 7 -8.5 16t-5.5 18.5t-3 19.5t-1 18q0 3 1 5t4 2q2 0 4 -0.5t3 -2.5q1 -16 3 -30.5t6 -29.5q2 -5 6 -10.5t8.5 -10t10.5 -7.5t12 -3q2 0 3.5 0.5t2.5 1.5v3v3q0 4 -1 7t-3.5 5.5t-5.5 4l-7 3.5q-2 -1 -2.5 -3
t-0.5 -4t-1 -3.5t-2 -1.5t-2 0.5t-2 1.5v4v4q0 13 0.5 27t4.5 26q1 3 5 4.5t8.5 2t8 2t3.5 4.5zM94 182q-1 1 -2 3.5t-2.5 5.5t-3 5t-2.5 4q-3 3 -6 5.5t-5.5 5t-4.5 5t-2 7.5q6 0 12 -3.5t10.5 -8.5t7.5 -11.5t4 -12.5q0 -3 -1 -4t-3 -1h-1.5h-0.5zM162 181q1 5 3.5 10.5
t7 11t9 10.5t7.5 8q3 -1 5.5 -2t2.5 -5v-1v-2q-3 -4 -6.5 -7l-7 -6l-7 -6t-6.5 -7q0 -2 -1 -5t-4 -3q-1 0 -2 0.5t-1 3.5zM186 190q0 2 1.5 2h2.5q3 0 4 -3t2 -5v-3v-5.5v-4.5v-3v-16q0 -9 -1 -19t-4 -18.5t-8 -12.5q-8 -6 -15.5 -10.5t-17.5 -4.5h-1q0 1 -1.5 2l-1.5 1
q1 3 2.5 4t3 1.5t3.5 0.5t4 1q8 3 13 8t8 12.5t4.5 15.5t1.5 16v8v12v13v8zM106 156q0 -4 3 -5.5t7 -1.5l4 -0.5t9.5 -1t11 -0.5h8.5h1h1q1 0 2 0.5t1 1v2.5v1q0 6 -2 9t-5.5 4.5t-8 2t-8.5 0.5h-7t-8 -1t-6.5 -3.5t-2.5 -7.5zM105 139q-1 -1 -1 -2v-3q0 -2 3 -5t6.5 -5.5
t7 -4t5.5 -1.5h3l22 13q3 2 3 6v2t-1 1h-8h-9.5h-9.5t-10 -0.5t-11 -0.5zM81 34v-2t1 -1h16q1 4 1.5 7t0.5 5.5v5v5.5v4v4q-1 1 -1.5 1h-1.5q-5 0 -7.5 -2t-4 -6t-2 -8t-1.5 -8l-0.5 -1.5l-0.5 -1.5v-1v-1z" />
</svg>
