<?xml version="1.0" standalone="no"?>
<!DOCTYPE svg PUBLIC "-//W3C//DTD SVG 1.1//EN" "http://www.w3.org/Graphics/SVG/1.1/DTD/svg11.dtd" >
<svg xmlns="http://www.w3.org/2000/svg" xmlns:xlink="http://www.w3.org/1999/xlink" version="1.1" viewBox="-10 0 266 256">
   <path fill="currentColor"
d="M151 174q0 5 1.5 12.5t3.5 16.5t5.5 17t7.5 15t9 11.5t11 4.5q3 0 5 -0.5t2 -3.5t-1 -4l-4 -4q-8 -5 -13 -11.5t-11 -14.5v-1.5v-1.5q0 -3 2 -4t4 -3q1 0 2 -1.5t3 -3.5l3 -3l2 -2h1.5t3.5 -0.5t3.5 -0.5h2.5q8 -3 13.5 -9t5.5 -15q0 -10 -4 -14.5t-8.5 -7t-8 -5
t-3.5 -9.5v-2q1 0 2.5 -1t3.5 -2l4 -2t3 -1q0 -1 0.5 -1.5l0.5 -0.5q1 -1 1.5 -2.5l1 -3t0.5 -3v-2.5q1 -4 1 -12.5t0.5 -18.5t0.5 -18.5v-12.5v-5q0 -3 -0.5 -6.5t-3.5 -3.5q-5 0 -5 4q0 7 0.5 13t0.5 14h-1v0q-1 0 -2.5 -1.5t-2.5 -1.5q-1 -1 -4 -3t-6 -4.5t-5.5 -4.5
t-3.5 -3q-1 0 -1.5 -0.5l-0.5 -0.5v-27q0 -2 -1.5 -3.5t-3.5 -1.5t-4 2.5t-2 4.5q0 4 1 8t1 7q0 4 -3 9t-6.5 9t-8 7t-7.5 3l-0.5 -0.5l-0.5 -0.5l-0.5 -2t-0.5 -3v0v0q0 -5 1.5 -10t1.5 -10q0 -2 -1 -5t-3 -3t-2.5 1.5t-1.5 3.5q0 1 -0.5 2.5t-1 3.5t-1 3t-0.5 2v4v6v7v3
v7.5t-0.5 12.5t-1 13t-0.5 7v1q0 11 3.5 15.5t8 6t8 3t3.5 5.5q0 5 -5 7.5t-11.5 5.5t-11 8t-4.5 16q0 7 2 11.5t6 7t9.5 3t11.5 0.5q0 -4 -3.5 -5.5t-7.5 -3.5t-7.5 -4.5t-3.5 -9.5q0 -6 2.5 -9.5t6.5 -6t8.5 -4t8.5 -4.5q4 -2 5 -4t1 -4.5v-4.5t2 -3t6.5 -2t12.5 -1
q2 0 3.5 2t2 4.5l1 5t1.5 4.5q2 4 5 5t6 2.5t5 4.5t2 9q0 3 -0.5 6t-2 5.5t-3.5 4t-6 1.5q-1 0 -4 -0.5t-3 -2.5v-18q0 -1 -2.5 -2t-3.5 -1q0 1 -0.5 4t-0.5 6v6.5v4.5q0 2 -1 5.5t-3 6.5t-4.5 5t-5.5 2q-1 0 -2 -2t-2 -4.5t-1 -5v-3.5t-0.5 -4t-0.5 -7t-0.5 -7.5t-0.5 -4.5
h-4l-0.5 1t-0.5 3t-0.5 4t-0.5 3v1zM45 242q0 2 3 2q4 0 7.5 -5.5t7 -14t7 -18.5t6.5 -18.5t5 -14t3 -5.5h1.5h0.5q1 15 5.5 28.5t8.5 27.5q1 2 1 5t1 6t2 5.5t4 2.5q4 0 5.5 -2.5t1.5 -5.5v-2v-1q0 -1 -1 -3t-2.5 -4t-2 -4t-1.5 -2q-3 -8 -6 -17.5t-6 -19.5t-4.5 -20
t-1.5 -19v-118q0 -2 -2 -3.5t-4 -1.5h-1l-5 10q2 10 2.5 18.5l1 17t0.5 17.5v18v8v11q0 7 -0.5 12t-0.5 8q-1 6 -1.5 13t-2.5 13q-4 12 -9 24t-10 23q-2 2 -4 6l-4 8t-3.5 8t-1.5 7zM56 68q1 11 0 22t-2 21.5t-2 21.5t-1 22q4 0 5.5 -0.5t1.5 -1t0.5 -2t2.5 -2.5
q0 -3 0.5 -10.5t1 -15.5t1 -15.5t0.5 -10.5v-15v-14q0 -2 -1 -2.5t-2 -0.5q-3 0 -5 3zM109 65v0h-1t-2.5 0.5l-1.5 0.5v77q0 2 0.5 5t3.5 3q2 0 2.5 -2l1 -4t0.5 -4v-2q0 -19 -1.5 -37.5t-1.5 -36.5zM137 112q0 -3 2.5 -4t5.5 -1t6.5 0.5t4.5 0.5t7 -0.5t12.5 -1t12.5 -1
t7 -0.5h1q2 0 2.5 1t0.5 2q0 6 -3 8.5t-7 5.5q-7 0 -14.5 1.5t-14.5 1.5h-8t-7.5 -1.5t-5.5 -4t-2 -7.5zM135 95v-1v-2.5t0.5 -2t1.5 -0.5q3 -1 11 -1.5t16.5 -1t16.5 -1.5t11 -1h2h2q3 0 3.5 1t0.5 4v5t-1 4q-8 1 -15 1.5t-13.5 1t-12.5 0.5h-13h-4h-4q-2 0 -2 -3v-3z
M137 77v-1v-2q3 -2 6.5 -5.5t7.5 -7t8 -5.5t9 -2q2 0 6.5 2.5t9.5 6.5t8.5 8t4.5 6q-11 3 -25.5 3.5t-25.5 0.5h-8q-1 -1 -1 -2v-2z" />
</svg>
