<?xml version="1.0" standalone="no"?>
<!DOCTYPE svg PUBLIC "-//W3C//DTD SVG 1.1//EN" "http://www.w3.org/Graphics/SVG/1.1/DTD/svg11.dtd" >
<svg xmlns="http://www.w3.org/2000/svg" xmlns:xlink="http://www.w3.org/1999/xlink" version="1.1" viewBox="-10 0 266 256">
   <path fill="currentColor"
d="M42 243q0 2 1 4.5t4 2.5q5 0 9.5 -5.5t8.5 -14t7 -18t6 -18t5 -14t4 -5.5h1q0 1 0.5 3t1.5 4.5t1.5 5l0.5 2.5q1 1 1 3t1 4.5t1.5 5l0.5 2.5q0 1 2.5 6l5 10l5 10t2.5 6q2 3 3 5.5t6 2.5q3 0 4 -1t1 -4q0 -4 -2 -7.5t-4.5 -7.5l-5 -8t-4.5 -7q-4 -8 -7 -18t-5 -20t-3 -20
l-2 -20v-38q0 -17 1 -33.5t1 -33.5v-5v-5q-1 -3 -2 -4t-4 -1h-3t-3 2v8v7t0.5 5.5t0.5 5.5t1 7v92q-2 5 -3.5 10t-2.5 10t-2.5 9.5l-3.5 10.5q-4 8 -6.5 18t-6.5 18q-1 1 -3 4.5t-4.5 7.5t-5 7.5t-2.5 4.5q-1 0 -1.5 1.5l-0.5 1.5v1zM124 217q21 2 43.5 3.5t43.5 1.5
q1 0 3 -1.5t2 -3.5l-1 -1.5t-1.5 -2t-1 -1.5l-0.5 -1h-27l-1.5 -1.5t-1.5 -2.5t0.5 -2t1.5 -1q1 -13 1 -25.5v-25.5q0 -3 -1 -5.5t-1 -5.5q0 -4 3.5 -5t7.5 -1t7.5 -1t3.5 -5v-17q-4 0 -5.5 2.5t-2.5 5.5t-3.5 5.5t-8.5 2.5h-34q-4 0 -6 -2.5t-3 -5t-2.5 -5.5t-4.5 -4
q-2 2 -2 4v4q0 4 2 6.5t5 4t6 3.5t5 5v7q0 16 -1 31.5t0 31.5l-4 2h-22l-0.5 1t-0.5 2v0v1zM158 205v-13v-13q0 -3 0.5 -8t0.5 -11.5t0.5 -12t0.5 -7.5q1 -2 4 -2.5t4 -0.5h1q3 0 4.5 2t1.5 5v2.5t0.5 5.5t1 6.5t0.5 5.5v1v0q-1 1 -1.5 2t-0.5 2v23v6t-1 5t-3 3t-6 1h-1h-2
t-2.5 -0.5t-1.5 -1.5zM199 195q0 1 1 1.5t2 0.5l1.5 -0.5t1.5 -1.5q1 -4 1.5 -8t0.5 -8v-8v-8v-14q0 -3 -1 -3.5t-2 -0.5t-2 0.5t-2 1.5q0 6 -0.5 10.5t-0.5 8.5v8v10v11zM126 191v3q0 1 2 1q1 0 2.5 -1t2.5 -2q3 -10 4 -20.5t1 -21.5q0 -3 -0.5 -5t-3.5 -2t-4 1.5t-2 4.5
q0 2 -0.5 7.5t-0.5 12t-0.5 12t-0.5 8.5v2zM106 139q0 2 1 2.5t2 0.5h2t2 -2v-7.5t0.5 -11.5t0.5 -11.5v-7.5l0.5 -1.5t0.5 -3.5v-4v-3v-3v-3q0 -2 -0.5 -3.5l-0.5 -1.5v-6t-0.5 -8.5t-0.5 -8.5v-5q-1 -1 -2 -2.5t-2 -1.5v0v0q-3 0 -4 2t-1 4q0 22 1 43t1 43zM55 134
q0 3 1 4.5t4 1.5t4 -1t2 -3t1 -4v-3v-6v-8v-9v-6q1 -11 2.5 -21.5t1.5 -21.5q0 -3 -2 -4.5t-4 -2t-5 -0.5h-5q0 14 1 27.5t1 27.5v20l-1.5 4.5t-0.5 4.5zM129 68q0 10 0.5 18t3.5 14t9 9t18 3h11t15 -0.5t14 -2.5t7 -7l0.5 -2t0.5 -4.5t0.5 -4.5l0.5 -2q1 -9 2 -16.5
t1 -16.5v-2v-3v-3.5v-1.5q-2 -6 -6 -9.5t-9.5 -5.5t-11.5 -2h-11h-12.5t-14.5 2t-12 6t-5 12v4q0 2 -0.5 5t-0.5 6v4zM140 70v-2.5v-1.5l1 -2q1 0 3 -0.5l2 -0.5q6 0 9 2t3 7q0 7 -0.5 15t-0.5 13q-1 2 -2 3.5t-2 1.5q-5 -1 -8 -5t-4 -9t-1 -11v-10zM175 64q2 0 5.5 0.5
t3.5 4.5v28q0 3 -2 4.5t-5 2t-5.5 0.5h-4.5v-37q0 -1 1 -1.5t2.5 -1t2.5 -0.5h2zM185 57h-5h-8h-8.5h-5.5h-2.5t-3.5 -0.5t-4 -0.5h-3q-1 -1 -2 -1.5t-2 -0.5v-3v-2q0 -5 4 -7.5t9 -3.5t11 -1h9h5.5t5 0.5t5.5 1.5t7 2q2 1 3.5 3t1.5 5v38q0 4 -2 8t-7 4v-37q0 -1 -1.5 -2
t-2.5 -1.5l-2 -1t-2 -0.5z" />
</svg>
