<?xml version="1.0" standalone="no"?>
<!DOCTYPE svg PUBLIC "-//W3C//DTD SVG 1.1//EN" "http://www.w3.org/Graphics/SVG/1.1/DTD/svg11.dtd" >
<svg xmlns="http://www.w3.org/2000/svg" xmlns:xlink="http://www.w3.org/1999/xlink" version="1.1" viewBox="-10 0 266 256">
   <path fill="currentColor"
d="M78 37v105q0 9 -1.5 19t-4 20t-6 19.5t-6.5 18.5q-2 4 -3.5 8t-3.5 8t-2.5 8t-0.5 9q4 0 8 -6t7 -14t6 -18t5 -18t4 -14t4 -6h1q0 1 0.5 1.5l0.5 0.5q0 7 1.5 13.5t3.5 13.5t4 13.5t4 13.5q0 4 0.5 8t2.5 7q1 2 2 2h2q4 0 4.5 -1.5t0.5 -4.5q0 -5 -2 -10t-4 -9l-8 -33
q-2 -2 -2.5 -5.5t-0.5 -5.5q-1 -5 -2 -12.5t-2 -14.5t-1.5 -12l-0.5 -5v-90q0 -2 0.5 -5.5t1 -7.5t1 -7.5t0.5 -5.5v-1q0 -3 -0.5 -5t-4.5 -2q-3 0 -5 3.5t-2.5 7.5t0 8.5t-0.5 5.5zM158 246q0 1 2 2t3 1t2 -1t2.5 -2t2 -2t0.5 -2v-1q-3 -13 -3.5 -25.5t-0.5 -26.5
q0 -3 2.5 -4.5t4.5 -1.5h25q3 0 3.5 -1t0.5 -3q0 -4 -2.5 -5t-5.5 -1q-6 0 -12.5 1t-13.5 1q-2 0 -3.5 -3t-1.5 -5l0.5 -1.5l0.5 -1.5q0 -1 1.5 -2.5t1.5 -2.5h2.5t3 -0.5t3 -0.5h2.5q5 -1 7.5 -4.5t4 -7.5t2.5 -7t2 -3h11q1 0 2 -3t1 -4q0 -3 -2.5 -3t-5.5 -0.5t-5.5 -3
t-2.5 -9.5v-2.5v-1.5l2 -3h14q1 0 1 -1.5v-2.5t-0.5 -2.5t-2.5 -1.5h-11q-2 0 -3 -2.5t-1 -5t-0.5 -5t-3.5 -2.5l-1.5 0.5t-1.5 1.5v11l-3 3h-15q-2 0 -2.5 -1.5t-1 -3.5t-0.5 -4v-2q0 -1 0.5 -2.5l0.5 -1.5l1 -2q6 -1 13 -2t13 -4t9.5 -7.5t3.5 -13.5q0 -12 -2.5 -19.5
t-8 -12t-13.5 -6.5t-18 -2q-9 0 -16.5 1.5t-13 5t-9 9.5t-3.5 15q0 6 1 12t4 10.5t7.5 8t10.5 3.5q1 0 2.5 0.5t4 0.5t4 0.5t2.5 0.5v2.5t0.5 3.5t0.5 4v3t-0.5 2.5l-0.5 1.5h-18v-11h-7l-3 11l-1.5 0.5t-1.5 1.5q-2 0 -5 1.5t-3 3.5v1l1.5 0.5t3 0.5t2.5 0.5t2 0.5t2 1t1 2
v14q0 2 -2 3t-4.5 1.5t-5.5 0.5h-4h-1q0 -8 -0.5 -14.5t-1.5 -12.5t-1 -12.5v-14.5l-1.5 -1.5l-1.5 -1.5h-0.5h-0.5q-2 0 -3 2.5t-1 4.5q0 12 1 22.5t1 22.5q1 3 1.5 7t0.5 8v8t1 7h1q3 0 4 -2.5t1 -5.5v-6v-3h19q1 9 4.5 12.5t8 5.5t8.5 4.5t4 8.5q0 3 -1.5 4.5t-4.5 2
t-6 0t-6 -0.5q-1 0 -4 0.5t-6.5 1t-6.5 0.5h-4q-1 1 -1.5 2.5t-0.5 2.5t2.5 2t3.5 1q7 0 13.5 -1t13.5 -1h5h3l1 5q-1 28 2 57zM55 159l0.5 1t1.5 1v0v0q3 0 5 -4t2 -6t0.5 -9.5t0.5 -15t0.5 -14.5t0.5 -10v-13v-12q-2 -3 -5 -3t-4 1.5t-1 3.5t0.5 4t0.5 4q0 1 -0.5 5.5
t-0.5 10t-0.5 10t-0.5 5.5v21v20zM139 142q0 -2 0.5 -3.5t2.5 -1.5h13q1 0 1 2v3q0 5 -1 7t-5 2q-5 0 -8 -2t-3 -7zM164 142q0 -5 3 -6t7 -1h3t2 1q3 1 3.5 2.5t0.5 3.5q0 3 -1.5 4.5t-4 2.5t-5.5 1.5t-5 0.5q-2 -1 -2.5 -3.5t-0.5 -5.5zM136 118q0 -5 1 -8t7 -3h2t4 0.5
t3.5 1t1.5 1.5v14l-3 4h-15l-0.5 -1.5t-0.5 -2.5v-2.5v-3.5zM177 107h2.5h1.5l3 3l0.5 2t0.5 3q0 6 -2.5 9.5t-9.5 3.5q-2 0 -5.5 -0.5t-3.5 -3.5v-14q0 -1 1.5 -2t4 -1h4.5h3zM130 58v-2.5t1 -2.5h21l0.5 1l0.5 1l1 2t1 3v1v0q0 2 -1 5.5t-1 4.5q-1 1 -3.5 1.5t-4.5 0.5
q-6 0 -10.5 -4.5t-4.5 -10.5zM163 69l-0.5 -2l-0.5 -2q0 -6 2 -8t6 -5h4h4h4t4 0.5t3.5 1.5t1.5 4q0 4 -2.5 6.5t-5.5 3.5t-7 2t-7 1h-3q-2 0 -3 -2zM128 41q0 -3 2.5 -6t6.5 -5t8 -3.5t7 -1.5h0.5h0.5q0 1 0.5 2t0.5 2.5t0.5 3l0.5 1.5v2q0 2 -1 5t-4 3h-20q-1 0 -1.5 -1
t-0.5 -2zM163 42v-1v-3t0.5 -4.5t0.5 -4.5v-2q0 -2 2 -2h3q2 0 6 0.5t7.5 2.5t6 4.5t2.5 5.5v1l-1.5 2.5t-2.5 2.5h-23l-0.5 -0.5t-0.5 -1.5v0z" />
</svg>
