<?xml version="1.0" standalone="no"?>
<!DOCTYPE svg PUBLIC "-//W3C//DTD SVG 1.1//EN" "http://www.w3.org/Graphics/SVG/1.1/DTD/svg11.dtd" >
<svg xmlns="http://www.w3.org/2000/svg" xmlns:xlink="http://www.w3.org/1999/xlink" version="1.1" viewBox="-10 0 266 256">
   <path fill="currentColor"
d="M171 176q1 0 3 3.5t4 9t4.5 12t4.5 11.5t3.5 9t1.5 5q1 1 2.5 5t3.5 8t3.5 7.5t2.5 5.5h2q3 0 4.5 -0.5t1.5 -3.5v-2v-1l-20 -44v-2q-5 -8 -8.5 -17.5t-5 -19.5t-1.5 -20v-20q0 -3 1 -5t1 -5q0 -2 -0.5 -5t-3.5 -3q-4 0 -6 1.5t-2 5.5q0 11 1.5 21.5t1.5 21.5
q0 6 -3 12.5t-7 13.5t-8 13t-7 12q-3 5 -5.5 9.5t-4.5 9t-5 9t-7 9.5v1q0 3 2 4.5t4 1.5q4 0 8 -5.5t8 -13.5t8 -17.5t7.5 -17.5t6 -13.5t4.5 -5.5zM43 201q0 1 1.5 3t2.5 2q16 0 32 -2t32 -3h3t4.5 -0.5t5 -0.5t2.5 -1q1 0 2 -1.5t2 -1.5v-1v-1q-1 -2 -2 -2h-27
q-2 0 -5 -1.5t-3 -5.5v-1v-3.5t0.5 -5t1 -4.5t0.5 -3q0 -2 4.5 -2t10 -0.5t10.5 -2t5 -3.5v-1q-1 -1 -2 -2.5t-2 -1.5h-25q-3 0 -3 -2v-4q0 -5 1 -8.5t1 -7.5q0 -2 -1.5 -4t-3.5 -2t-4 1.5t-2 3.5v21q0 5 -5.5 5.5t-12 0t-12 0.5t-5.5 5q0 2 1.5 3t3.5 1h4h3h9l1.5 -0.5
l3 -1t3 -0.5h2.5t3 1.5t2 2.5v1q0 1 -0.5 4l-1 6t-0.5 6v4l-1 0.5l-1 0.5q-1 1 -2.5 2t-2.5 1h-31q-1 0 -1.5 2.5t-0.5 3.5zM143 168v3.5v3.5l2 1l5 -5v-3t0.5 -6.5t1 -7.5t0.5 -7v-6v-7l-2 -2h-1h-1q0 1 -1.5 2.5l-1.5 1.5q1 8 -0.5 15.5t-1.5 16.5zM193 135v3q1 2 1.5 6
t1 8.5t1 8.5t0.5 5q1 5 2.5 7.5t6.5 2.5v-5v-7t-0.5 -7.5t-0.5 -4.5v-6t-0.5 -7.5t-2 -6.5t-4.5 -3q-2 0 -3.5 2t-1.5 4zM43 131q0 3 2 3.5t4 0.5t3.5 -0.5t2.5 -1l3 -1.5t5 -3q6 -4 9 -8t4.5 -8.5t2 -9t1.5 -7.5t4 -5t10 -2h1l3 0.5l3 0.5q0 8 1 15.5t4.5 13t9 9t14.5 3.5
h5l1 -1.5t1 -2.5q-2 -5 -6 -6t-9 -2.5t-8.5 -5.5t-3.5 -15q0 -4 2 -6t5.5 -2.5t7 -1.5t5.5 -4q-1 -3 -2.5 -3.5t-3.5 -0.5q-4 0 -8 1t-9 1h-7q-4 -2 -5 -3.5t-1 -4.5t2.5 -3.5t6 -1t7.5 -2t7 -5.5t5.5 -11t2.5 -20v-4q-1 -1 -3.5 -1.5t-3.5 0.5q-3 3 -2.5 8.5t0 11.5
t-3 10.5t-9.5 4.5q-3 0 -4 -2.5t-1.5 -6t-1 -6.5t-0.5 -4q0 -6 1 -11.5t1 -10.5q0 -4 -2.5 -6.5t-5.5 -2.5t-4 1t-1 5q0 9 1.5 19t1.5 20q0 2 -0.5 3.5t-3.5 1.5q-7 0 -10.5 -3t-5 -7.5t-2 -10.5t-0.5 -11q-1 -2 -3 -2h-4h-2.5t-1.5 2q0 1 -0.5 3.5l-0.5 2.5q0 3 0.5 8t2 10
t3.5 8.5t6 4.5l20 3v15q0 1 -3 1h-7.5h-9.5h-9.5t-8 1.5t-3.5 3.5q-1 1 0 2.5l1 1.5h20q2 0 2.5 1l1 2t0.5 3v1q0 8 -4.5 12t-9.5 7t-9 5.5t-4 5.5zM141 110q0 1 1 2.5t3 0.5q4 -2 7.5 -6t7 -7.5t8 -6.5t9.5 -3t9 3.5t7 7t6 6.5t7 3h1l2 -2t1 -2v0q0 -6 -5 -9t-11 -7
t-11 -9.5t-5 -14.5v-53h-8q-1 0 -1.5 2t-0.5 4l0.5 3t0.5 7t0.5 7t0.5 4v6v9t-0.5 8t-0.5 8.5t-1 10.5l-3.5 3.5t-5.5 6t-5.5 6l-3.5 3.5t-2.5 2l-3 2t-2.5 2t-1 3zM140 86v1l0.5 1t1.5 1q6 0 9 -6t5 -13.5t2 -15v-10.5v-4.5t-3 -1.5h-2t-1 2v8t-0.5 9.5t-2 9t-2.5 8.5
q-1 0 -2 1.5l-2 3t-2 3.5t-1 3zM193 68l2.5 5t4 5t5.5 4t5 2q4 0 4 -4v-1v-1q-6 -4 -9 -8.5t-4.5 -9.5t-2 -11t-0.5 -13q-1 -1 -2 -1.5t-3 -0.5t-2.5 1.5t-0.5 3.5v1q0 1 0.5 5t1 8.5t1 8.5t0.5 6z" />
</svg>
