<?xml version="1.0" standalone="no"?>
<!DOCTYPE svg PUBLIC "-//W3C//DTD SVG 1.1//EN" "http://www.w3.org/Graphics/SVG/1.1/DTD/svg11.dtd" >
<svg xmlns="http://www.w3.org/2000/svg" xmlns:xlink="http://www.w3.org/1999/xlink" version="1.1" viewBox="-10 0 266 256">
   <path fill="currentColor"
d="M207 246v3t3 2q2 0 4 -1t2.5 -3t1 -4.5t0.5 -4.5q0 -23 -1 -46.5t-1.5 -47l-1 -47t-0.5 -46.5q0 -1 -0.5 -4t-1.5 -4v-3q-1 -6 -4 -9t-7 -4.5t-8.5 -3t-8.5 -3.5q-1 -1 -1.5 -2.5t-1.5 -2.5t-1.5 -2t-2.5 -1q-3 0 -3.5 2t-0.5 4v6q1 1 1 5.5t0.5 10t0.5 10.5v6q1 3 0.5 7
t-0.5 8.5t1.5 8t4.5 5.5q1 1 4 2t7 3t7 4t5 4q2 30 3.5 60.5t1.5 61.5q0 6 -1 12.5t-1 13.5zM39 244q0 4 0.5 5t2.5 1q7 0 11.5 -6.5t7.5 -15.5t5 -20t3.5 -20t3.5 -15.5t5 -6.5q1 0 3 5.5t4.5 14t5.5 18.5t5.5 19t5.5 14.5t5 5.5q3 0 4 -1.5t1 -4.5q0 -5 -2 -10.5t-4 -10.5
t-4.5 -10.5t-3.5 -10.5q-3 -8 -4 -16t-2 -16.5t-2.5 -16.5t-4.5 -16v-67q2 -3 2.5 -6t0.5 -6.5t0.5 -7t2.5 -7.5v-2q0 -3 -0.5 -6.5t-1 -6.5t-2.5 -5t-6 -2h-2h-1l-2 10q1 17 1.5 35t0 36.5t-3 36t-7.5 34.5q0 1 -1 3t-2 4.5t-2 4.5t-2 3q-2 7 -3 16t-4 17q-1 2 -3 6.5
t-4.5 9t-4.5 9t-2 5.5zM117 228q0 1 0.5 3t0.5 4.5t0.5 5t0.5 3.5q0 3 1 3.5t2 0.5q3 0 5 -3t2 -5v-1q0 -1 -0.5 -3t-1.5 -2q1 -21 0 -40.5t-1 -39.5v-16v-9t0.5 -12.5t0.5 -12.5v-8q3 -3 7 -4.5t9 -3t9 -4.5t5 -8q0 -14 0.5 -28t1.5 -28q0 -3 -1 -5.5t-4 -2.5h-2
q0 7 -3.5 10.5t-8.5 6t-10.5 5t-8.5 8.5q-2 46 -3 92.5t-1 93.5zM168 203q0 1 0.5 8t2 15t3 14t4.5 6q4 0 5 -3t1 -7t-1 -8.5t-2.5 -9t-2.5 -9t-1 -8.5q0 -11 3 -19.5t6 -15.5l6 -14t3 -16q0 -4 -2 -9.5t-5 -10t-7.5 -7t-9.5 -2.5q-9 0 -14.5 2.5t-8.5 7.5t-4.5 12t-1.5 16
q0 2 -0.5 7.5t-0.5 12v12v7.5h6l2 -12t1 -12q3 0 5.5 0.5t4.5 1l4 1t5 0.5q0 -4 -3 -6.5t-6.5 -4.5t-6.5 -4.5t-3 -7.5q0 -1 0.5 -4.5t3.5 -3.5t5.5 2.5l5 5t4.5 5t6 2.5v0l2.5 -2.5l1.5 -1.5q0 -4 -3.5 -7t-8 -5t-8 -4t-3.5 -6q0 -1 0.5 -3t2.5 -2h16q3 0 5.5 3t4 7.5
t2.5 8.5t1 6q0 4 -1.5 7.5t-3.5 6.5t-4 6.5t-4 6.5q-3 8 -5 17t-2 18zM46 127q0 2 0.5 3t3.5 2q2 1 4 -2.5t3 -9.5t1.5 -13.5t0.5 -14v-12v-8.5v-3v-4v-4v-3q-2 -4 -7 -4h-1q0 1 -1.5 2t-1.5 2v10v15v15v10q0 1 -0.5 3.5t-0.5 5t-0.5 5t-0.5 3.5v2zM101 129q1 1 1.5 1h2.5
h1.5t1.5 -1v-74q-3 0 -6 0.5t-3 4.5q0 9 0.5 17.5l1 17t0.5 16.5v18zM182 69q0 -4 0.5 -5.5t4.5 -1.5q1 0 4 -0.5t5.5 -0.5t4.5 1t3 3v7v6t-2 7h-1h-1q-3 0 -6 -1.5t-5.5 -3.5t-4.5 -5t-2 -6zM146 61q2 0 3.5 1t1.5 4t-2 6.5t-4.5 6t-5.5 4t-6 1.5q-1 0 -3.5 -0.5t-2.5 -2.5
v-14q0 -2 2.5 -3t6 -1.5t6.5 -1t4 -0.5zM127 52q0 -7 5.5 -12.5t11.5 -5.5q3 0 4.5 1.5t2 3.5t0.5 5v4q0 3 -2.5 4.5t-5.5 2.5t-6 1h-5q-5 0 -5 -4zM180 43v-1h1q0 -1 0.5 -4t1.5 -4h3h4h5h3q1 0 2.5 1l1.5 1v17q0 1 -2 1h-3q-3 0 -5.5 -0.5t-5 -1.5t-4.5 -3.5t-2 -5.5z" />
</svg>
