<?xml version="1.0" standalone="no"?>
<!DOCTYPE svg PUBLIC "-//W3C//DTD SVG 1.1//EN" "http://www.w3.org/Graphics/SVG/1.1/DTD/svg11.dtd" >
<svg xmlns="http://www.w3.org/2000/svg" xmlns:xlink="http://www.w3.org/1999/xlink" version="1.1" viewBox="-10 0 266 256">
   <path fill="currentColor"
d="M156 247q0 4 4 4q2 0 4.5 -2t2.5 -5v-79q0 -3 1 -6.5t2 -5.5l1.5 -1.5l0.5 -0.5l10 5l1 2t2.5 4.5t2.5 5t2 4.5l0.5 3.5t0.5 4.5q1 3 1.5 10t1.5 15t1.5 15t0.5 10q1 2 2 2.5t3 0.5q3 0 4.5 -2.5t2.5 -4.5q-1 0 -1.5 -1.5t-1 -3.5t-1 -3.5t-0.5 -2.5t-0.5 -6.5t-1 -12
t-1 -12.5t-0.5 -7t-0.5 -3t-1.5 -5t-1.5 -5.5t-1.5 -4.5q0 -1 -0.5 -2t-1 -2.5l-1 -3t-0.5 -2.5q-3 -1 -7 -1.5t-8 -1.5t-6.5 -3t-2.5 -6q0 -3 4.5 -5t9.5 -3.5t9.5 -3.5t4.5 -5v-16l1 -0.5t1 -1.5q6 -2 8.5 -3t3.5 -2t2 -3.5t2 -8.5q1 0 2.5 -3t1.5 -4v-4q0 -4 -1 -8t-6 -4
q-3 0 -4.5 1.5t-2 3.5t-1 4.5t-1.5 3.5h-4q-5 0 -8 -1.5t-4.5 -3.5t-2 -3.5t-1.5 -1.5q-3 0 -3.5 2.5t-1 6t-0.5 6v3.5v5q0 3 1 5q0 1 2 3l4 4t3.5 4t1.5 4q0 8 -5 11t-11 3h-3t-1.5 -0.5t-0.5 -2v-3.5q0 -1 -0.5 -3.5t-0.5 -6t-0.5 -7.5t-0.5 -6v-1v-1q0 -1 0.5 -5.5
t0.5 -9.5t0.5 -9t0.5 -6q1 -3 4 -4.5t5.5 -2.5t5 -2.5t2.5 -5.5l4 -29l-2 -5h-1h-2q-5 0 -6.5 2t-1.5 4v4t-2 2h-24q-1 -3 -3 -6.5t-6 -3.5q-2 0 -3 3.5t-1 5.5q0 7 1.5 15t5.5 13q2 3 4.5 3.5t4.5 1t3.5 2t1.5 6.5v52q0 2 -1 4t-4 2q-2 0 -4.5 -1.5t-4.5 -3t-4 -4t-3 -4.5
q0 -1 1.5 -3t3.5 -4.5t4 -4.5t3 -2v-5t0.5 -6.5t0.5 -7v-4.5v-4q0 -2 -0.5 -3t-2.5 -1q-3 0 -3.5 2t-0.5 4q0 3 -0.5 5t-1.5 2h-17l-0.5 -0.5t-0.5 -1.5q-1 -1 -1.5 -4.5t-0.5 -5.5h-3h-3q-1 0 -2 2v4.5v4.5q0 11 2.5 16.5t5.5 8t5.5 3t2.5 2.5l4 14q0 4 4.5 5l9 2t8 3
t3.5 8v3.5t-2 2.5q-13 1 -19 6.5t-8 14.5t-2 19.5t-1 21.5l-0.5 2t-0.5 3.5t-0.5 3t-0.5 2.5l0.5 2t0.5 4t0.5 4t0.5 3l0.5 0.5l1.5 1.5v0q2 0 3 -1.5l2 -3t1.5 -3t1.5 -2.5q0 -3 -0.5 -8.5t-0.5 -11.5t0.5 -11.5t0.5 -7.5q0 -6 2 -13.5t6 -12.5q1 -2 3 -2.5t3.5 -0.5
t3.5 0.5t4 0.5v4v6v6v4v7.5t-0.5 12.5t-1 15.5t-1 15.5t-0.5 12.5v7.5v1zM40 240v1q0 1 0.5 3.5t1.5 3.5q4 -2 8 -7t7.5 -12t6 -15t5 -15t4 -11.5t4.5 -4.5v0q2 1 2.5 3t0.5 4v4v2q1 0 1.5 2.5t2 5t2.5 4.5t1 3q1 3 2.5 9t3 11.5t5 10t8.5 4.5v-14q-6 -12 -10 -21t-6 -21
q-1 -5 -1 -8.5t-0.5 -6.5l-1 -6t-2.5 -7l-0.5 -1.5l-0.5 -1.5q-1 -1 -1 -3.5t-0.5 -5t-0.5 -4.5v-3v-90q0 -7 1.5 -13t1.5 -12q0 -8 -7 -8h-3t-3 2v18q0 17 1 33.5t1 33.5q0 14 -1 27t-2.5 25t-5 24t-9.5 24q-2 6 -3.5 10t-3 7.5t-3.5 7t-6 7.5v1zM93 87v5v7v5.5v2.5v10
q0 6 0.5 13t2 12.5t3.5 5.5q1 0 2 -2t2 -3v-9q0 -17 -1 -34t-1 -35q0 -1 -1.5 -1h-2.5h-2t-2 1v5v6v7v4zM50 62q0 22 -1 43t-1 43q4 0 7.5 -3t3.5 -7v-73l-1.5 -2t-2.5 -2h-0.5h-1.5q-3 0 -3 1zM125 90q0 -2 1.5 -4t4 -3t5 -1h4.5q3 0 4 2.5t1 5.5q0 4 -3 6t-7 2
q-5 0 -7.5 -1.5t-2.5 -6.5zM186 87l0.5 -2t1.5 -2h15l0.5 1l0.5 1q1 1 1.5 2l0.5 1q0 2 -1.5 3.5t-3 2.5t-3.5 1.5t-3 0.5q-4 0 -6.5 -2.5t-2.5 -6.5zM150 39q0 -3 1 -4.5t3.5 -2t4.5 -0.5h6q5 0 9.5 1.5t4.5 8.5q0 2 -2 3.5t-5 2t-5 0.5h-5q-5 0 -8.5 -2t-3.5 -7z" />
</svg>
