<?xml version="1.0" standalone="no"?>
<!DOCTYPE svg PUBLIC "-//W3C//DTD SVG 1.1//EN" "http://www.w3.org/Graphics/SVG/1.1/DTD/svg11.dtd" >
<svg xmlns="http://www.w3.org/2000/svg" xmlns:xlink="http://www.w3.org/1999/xlink" version="1.1" viewBox="-10 0 266 256">
   <path fill="currentColor"
d="M127 245q0 2 1.5 3.5t3.5 1.5v0q1 0 2 -0.5t1.5 -1t1.5 -1l1 -0.5v-19l6.5 -0.5t15.5 -1t18.5 -1.5t15.5 -1q1 0 4 0.5t6 0.5t5.5 -1t2.5 -4q0 -1 -0.5 -2.5t-1.5 -1.5t-3.5 -0.5l-2.5 -0.5q-7 0 -13 1t-13 1q-4 0 -6 -1t-2 -5v-2.5t0.5 -3t1.5 -3t2 -1.5h25
q0 -4 -2.5 -5t-5.5 -1q-4 0 -7.5 1t-7.5 1h-1q-1 0 -2 -1l-1 -1v-14h22q1 0 1.5 -1t0.5 -2v-1v-1l-0.5 -1t-1.5 -1h-22v-1t-0.5 -2.5t-1 -3.5t-0.5 -3v-3v-3q4 0 7.5 1t6.5 2.5l6 3t6 1.5q2 0 3.5 -0.5t1.5 -3.5q0 -2 -2 -4t-5 -2q-1 -1 -3.5 -1.5t-5.5 -1.5t-6 -1.5
t-4 -1.5l-3 -3q1 -2 5.5 -3.5t9 -2.5t8 -2.5t3.5 -4.5t-2 -4.5t-4.5 -1.5t-5 0.5t-4.5 -0.5q-2 0 -4 -2.5l-4 -5t-4 -4t-5 -1.5q-1 0 -2.5 0.5t-2.5 0.5l-3 3t-4 4.5t-4 4t-3 2.5t-3 1.5t-3.5 1.5t-2.5 2.5t-1 3.5t1.5 3t4 2l5 2t3.5 3q-7 6 -11 12t-5.5 13t-2 14t-0.5 16
q-1 3 -1.5 8.5l-1 11l-1 11t-0.5 10.5zM41 240q0 2 1 2.5t4 0.5q1 0 2 -0.5t2 -1.5q5 -6 8 -13t5 -14.5t3.5 -15t3.5 -15.5q1 -2 2 -5.5l2 -7t2 -6l1 -2.5l4 -1q1 2 3 8.5t4 15t4.5 18t5.5 17.5t6 13t6 5t4 -2t1 -5q0 -4 -2 -9t-5 -11l-5.5 -11t-4.5 -8q-3 -6 -4.5 -13.5
t-2.5 -14.5q-1 -1 -1.5 -5t-1.5 -8.5t-1.5 -8.5t-0.5 -5v-40q0 -20 1 -39.5t1 -39.5q0 -6 -8 -6q-2 0 -3.5 2t-1.5 4q0 17 1 34.5t1 34.5v34q-1 7 -3 13t-4 13q-4 17 -8.5 34t-10.5 33q-1 3 -2.5 6t-3.5 6.5t-3 6.5t-1 7zM137 211v0q1 -2 1.5 -4.5l0.5 -2.5h23q1 0 1 2v3
v2.5t-0.5 3.5t-2 3t-2.5 1h-19l-0.5 -2.5t-1.5 -4.5v-1zM157 183q5 0 6 1t1 6q0 1 -0.5 3l-0.5 2l-0.5 1l-0.5 1h-24q0 -8 5.5 -11t13.5 -3zM144 173q0 -3 1 -6.5t3 -6.5t4.5 -5.5t5.5 -2.5q1 0 3 0.5t2 1.5v19l-3 3h-14q-1 0 -1.5 -1t-0.5 -2zM148 139q-1 -2 1 -4.5t5 -4.5
t6.5 -3.5t5.5 -1.5q4 0 8.5 2t4.5 7q0 3 -1.5 4t-4.5 1h-1q0 -1 -1.5 -2t-2.5 -2v0h-1t-1.5 1t-1.5 2.5t-2.5 3t-5.5 2.5h-1q-1 0 -4 -2t-3 -3zM49 130l0.5 1l0.5 1l3 1t3.5 0.5t1.5 -2.5l2 -4t1.5 -4.5l0.5 -2.5v-59q0 -2 -2.5 -3.5t-4.5 -1.5q-1 0 -3.5 0.5t-1.5 1.5l3 10
v45l-2.5 7.5t-1.5 9.5zM120 127q0 2 1 2.5t3 0.5q6 0 12 -4.5t11 -11.5t8 -14t3 -13v-48q0 -4 -2.5 -7.5t-5.5 -4.5h-10h-7h-5t-6 0.5t-7 1.5l-0.5 0.5l-1.5 1.5v1q0 1 1.5 2t3.5 1t3.5 0.5t2.5 0.5l3.5 -0.5t6.5 -0.5t6.5 -0.5l3.5 -0.5q6 0 6.5 3t0.5 7v21q0 12 -0.5 21
t-3.5 16t-9 12.5t-18 12.5v0v0zM100 127l0.5 0.5l0.5 0.5h1h1l1 -0.5l1 -0.5v-68q0 -1 -1.5 -2.5t-2.5 -1.5l-3 3v2v5v5v4v26t2 27zM184 113v3h3l18 -8q2 -1 3.5 -5.5t2.5 -10t1.5 -10t0.5 -6.5v-1v-2t-0.5 -4t-0.5 -3.5v-2.5v-3.5t0.5 -6.5t0.5 -6.5v-3.5v-2q0 -3 -1 -5.5
t-2.5 -4.5t-4 -4t-5.5 -2h-2q-2 0 -5.5 0.5t-7.5 1t-7.5 1.5t-5.5 1t-2.5 3t-0.5 4q7 0 13.5 -1t12.5 -1q5 0 7.5 4t3 10t0 11.5t-0.5 7.5v4v5.5v5.5v3q0 4 -2.5 8t-6 8t-7 7t-5.5 5zM115 100q0 2 1 2.5t3 0.5q1 0 5 -2t8.5 -4.5t8.5 -5t4 -4.5q0 -1 -1 -2t-2 -1t-5.5 2
t-9 5t-8.5 5.5t-4 3.5zM194 84q-4 0 -7 2.5t-6 3.5q-1 1 -3 1.5t-4.5 1t-4.5 1.5t-2 2v2q2 0 7 -0.5t10.5 -2t9.5 -4t4 -5.5q0 -1 -1 -1.5t-3 -0.5zM115 77l0.5 0.5t1.5 0.5h1q2 0 6 -1t7.5 -2.5t6.5 -3.5t5 -3v-0.5v-0.5q0 -4 -4 -4q-2 0 -5.5 1.5t-7 3.5t-7 4.5t-4.5 4.5z
M194 61q-1 0 -5.5 2t-8.5 4.5t-7.5 5.5t-3.5 5q2 0 7 -1.5t9.5 -3.5t8.5 -4.5t4 -4.5t-1 -2.5t-3 -0.5zM139 39q-1 0 -5 2.5t-8.5 6t-8 6.5t-3.5 4q3 0 8 -1t10 -3t8.5 -4.5t3.5 -5.5v-1q0 -1 -0.5 -1.5l-0.5 -0.5q-1 -1 -2.5 -1.5zM168 54v1q1 0 1.5 0.5l0.5 0.5h1h1
l24 -12v-2q-2 0 -6.5 1t-9 2.5t-8.5 3.5t-4 5z" />
</svg>
