<?xml version="1.0" standalone="no"?>
<!DOCTYPE svg PUBLIC "-//W3C//DTD SVG 1.1//EN" "http://www.w3.org/Graphics/SVG/1.1/DTD/svg11.dtd" >
<svg xmlns="http://www.w3.org/2000/svg" xmlns:xlink="http://www.w3.org/1999/xlink" version="1.1" viewBox="-10 0 266 256">
   <path fill="currentColor"
d="M113 243q0 3 2 4.5t4 1.5t4 -0.5t2 -3.5l-1 -49v-8v-8v-13t-0.5 -13t-0.5 -8l0.5 -2t0.5 -4t0.5 -3.5t0.5 -2.5v-1q0 -2 -1 -4.5t-1 -5.5q0 -7 0.5 -13t1.5 -14q2 -4 5.5 -4.5t6.5 -0.5q9 -3 13.5 -9t5.5 -14t1 -16v-15v-22q-1 -2 -2 -2h-3q-4 0 -4 5q0 2 1 4.5t1 5.5
q0 1 -4.5 2t-10 3t-11 4.5t-8.5 6.5q1 24 0.5 49.5t-1.5 50.5t-1.5 50t-0.5 49zM209 139q0 28 -1 55t-1 54h11l1 -1t1 -2v-1v-2q0 -2 -0.5 -6.5t-0.5 -9t-0.5 -9t-0.5 -6.5v-166q0 -7 -1.5 -10t-5 -4t-7 -0.5l-7 1t-7 -0.5t-5.5 -4q0 -2 0.5 -5t0 -5.5t-1.5 -4t-5 -1.5
t-5 4.5t-1 7.5q0 5 0.5 9.5t0.5 8.5v2.5v1.5v2t-0.5 3t-0.5 3.5v1.5q0 15 8 22t23 5q1 1 2 2.5t1.5 3.5t1 4.5t0.5 3.5v43zM73 106q0 13 -2 25t-4.5 23.5t-6.5 23t-9 23.5q-1 5 -3.5 10t-4.5 10t-3.5 10.5t-1.5 10.5q5 0 8.5 -1.5t4.5 -5.5q1 -2 3.5 -9t5 -14.5t5 -14
t2.5 -9.5q1 -1 1 -4t1 -6t3 -6t5 -3l0.5 0.5l0.5 0.5l10 48q2 2 2.5 5.5t1.5 7.5t2.5 6.5t5.5 2.5q3 0 3.5 -2.5t0.5 -4.5v-1v-2q-4 -13 -7.5 -25t-6.5 -24t-5 -24t-4 -26v-42q0 -16 1 -31.5t1 -31.5q0 -3 -2 -6.5t-7 -2.5q-2 0 -4.5 3.5t-2.5 6.5v1q0 1 1 5t1.5 8l1 8
t0.5 5q1 13 1.5 25.5t0.5 26.5zM137 161q0 6 0.5 14t2.5 15t6.5 11.5t12.5 4.5q16 0 24 -3.5t12 -11t5 -17.5t1 -22q0 -4 -1 -8t-2.5 -7t-5 -5t-8.5 -2q0 3 1 4.5t2.5 2.5t3 2.5t1.5 3.5t-1 5t-3 3l-2 -1t-3 -1h-0.5h-1.5t-2 0.5t-1 1.5q1 2 3 3t4 2.5t4 2.5t3 4l-0.5 2
l-1 4t-1 3.5l-0.5 1.5h-11q5 4 6 6.5t1 6.5q0 6 -1 7t-6 1h-3h-2q-1 -4 -1.5 -6.5t-0.5 -5v-5.5v-6q0 -12 0.5 -25t6.5 -25q1 -3 4.5 -5t6.5 -4t5.5 -4t2.5 -6t-5.5 -6.5t-12.5 -4.5t-14 -3t-10 -2h-1h-1q0 2 0.5 3t1.5 2t1.5 2.5t0.5 2.5q0 4 -3 5.5t-7 3t-7 3t-3 4.5
q0 2 2.5 2.5t4.5 0.5q4 0 7.5 -3l7 -6t7 -5.5t7.5 -2.5h1v0q1 0 2.5 0.5l3 1t2.5 1l1 0.5v5l-3 3l-4 4l-4 4l-3 3q-2 3 -3 6t-1 6v6v7v9.5t-0.5 14.5t-0.5 15v10q-1 2 -2.5 2.5t-3.5 0.5q-5 0 -6.5 -3t-1.5 -8q0 -2 1 -3.5t2.5 -2.5t3 -2.5t1.5 -3.5q-7 0 -9.5 -2t-2.5 -8
q0 -3 2 -4.5l4 -3t3.5 -3t1.5 -5.5h-9q0 -3 0.5 -4.5t2 -3t3.5 -3t4 -4.5v-2q0 -1 -0.5 -2t-1.5 -1q-6 0 -9.5 3.5t-5.5 9t-3 11t-1 8.5zM43 133q0 2 1.5 3.5t3.5 1.5q1 0 2 -0.5t1 -1.5q1 -5 2 -11t2 -11v-46v-2t-1 -4t-2 -3.5t-3 -1.5h-1l-1.5 1.5t-1.5 2.5v48q0 1 -0.5 4
t-0.5 6.5t-0.5 7t-0.5 4.5v2zM97 55q-1 0 -2.5 0.5t-1.5 1.5v77q0 2 1.5 2h2.5h2.5t1.5 -2v-77q0 -1 -1.5 -1.5t-2.5 -0.5zM145 60q2 0 2.5 1.5t0.5 3.5q0 4 -2 7.5t-5 6t-6.5 4t-7.5 1.5h-2.5t-1.5 -2v-14q0 -2 3 -3.5t6.5 -2.5t7 -1.5t5.5 -0.5zM181 61q0 -4 2 -4h5t7 0.5
t7 1.5t5 3t2 6q0 3 -0.5 5.5t-3.5 2.5q-4 0 -8 -1t-7.5 -2.5t-6 -4.5t-2.5 -7zM129 47q0 -3 1.5 -4.5t4 -2t5.5 -0.5h5q3 0 4 1t1 4q0 5 -4.5 7t-8.5 2t-6 -1.5t-2 -5.5zM183 44q0 -2 0.5 -3t3.5 -3h7q3 0 5.5 0.5l5 1t3.5 2.5t1 5l-0.5 1.5l-0.5 1.5h-7q-3 0 -5.5 0.5
t-5.5 0t-5 -2t-2 -4.5z" />
</svg>
