<?xml version="1.0" standalone="no"?>
<!DOCTYPE svg PUBLIC "-//W3C//DTD SVG 1.1//EN" "http://www.w3.org/Graphics/SVG/1.1/DTD/svg11.dtd" >
<svg xmlns="http://www.w3.org/2000/svg" xmlns:xlink="http://www.w3.org/1999/xlink" version="1.1" viewBox="-10 0 266 256">
   <path fill="currentColor"
d="M162 249q0 1 1.5 1.5t2.5 0.5q3 0 4.5 -2t2.5 -5v-14q0 -23 -2.5 -45.5t-2.5 -45.5v-2q0 -1 0.5 -3t1 -3.5t2.5 -1.5l1.5 0.5t3 1.5t2.5 1.5t2 1.5q0 1 1.5 2.5t3 3.5t2.5 4t2 3q0 2 1 6t2 8.5l2 9t1 5.5q1 1 1.5 3l0.5 2v49h8l0.5 -1.5t1.5 -3.5t1.5 -4t0.5 -3v-1.5
v-2.5q0 -6 -1 -12t-2 -11q0 -8 -1 -16t-2.5 -16t-4 -15t-7.5 -13q-2 -3 -5.5 -4.5t-6.5 -3.5t-6 -3.5t-5 -3.5v-4.5t-0.5 -7t-0.5 -6.5v-5v-1v-1q0 -2 4 -3.5t9 -2.5t10.5 -3.5t7.5 -5.5q1 -2 2 -5.5t2 -7.5t1.5 -8t1.5 -5v-6v-5q0 -3 -0.5 -4.5t-2 -3t-4.5 -1.5
q-1 0 -3 0.5t-1 3.5v10t-1 14t-4.5 12t-8.5 6h-3q-1 0 -3 -0.5t-3.5 -0.5h-2.5v-53q0 -3 -1.5 -7t-5.5 -4q-2 0 -3 1t-1.5 3t-0.5 4v4q0 13 2 26.5t2 26.5q0 1 -1 2t-2 1q-7 0 -11 -3.5t-6 -9t-3 -11.5t-2 -11.5t-3 -8.5t-6 -3q-2 0 -3 0.5t-1 3.5v1l0.5 1.5l1 3l1 3
l0.5 1.5q0 4 0.5 9t1.5 10.5t3 10t6 6.5q2 1 5.5 2t6.5 1.5t5.5 2t4.5 4.5v3t0.5 4.5l1 5t0.5 3.5v3q0 4 -3 6.5t-6.5 4.5t-6.5 4t-5 5q-7 11 -10.5 24t-5 26t-1.5 26.5v26.5v1l1.5 1.5l1.5 1.5q2 0 3.5 -1t3 -2.5t2 -3.5t0.5 -3q0 -29 2 -58q0 -3 1.5 -9.5t4 -13t5.5 -11.5
t8 -5q2 0 5 1q1 29 1 58.5v58.5zM87 243q0 1 2 1h3q3 0 4.5 -2t1.5 -6v-9.5t0.5 -15.5t0.5 -15.5v-9.5q1 -8 0.5 -14t1.5 -14q-1 -16 -1.5 -29t-0.5 -28t1 -30t1 -30v-25q1 -4 -0.5 -4.5t-2.5 -0.5q-4 0 -5 1.5t-1 5.5v13q0 7 0.5 13.5t0.5 12.5q0 2 -1 3.5t-3 2.5t-4 1h-3
h-6q-1 -1 -2 -4.5t-1 -8v-7.5v-6q-1 -1 -2 -1h-3t-3.5 1.5t-1.5 3.5v3q0 1 0.5 4t1 6.5t0.5 6.5v4v1q0 12 -4 22.5t-9 21.5q2 3 3 3.5t3 0.5q4 0 6 -3t3.5 -7.5t2 -10t2 -10t4 -7.5t6.5 -3q10 0 10 10v63l-2 10h-1h-2h-4.5t-5 -1t-4.5 -2.5t-2 -4.5q0 -4 1 -7.5t1 -7.5
q0 -3 -0.5 -5.5t-4.5 -2.5l-2 0.5t-3 1.5q0 9 -0.5 17.5t-1.5 16t-2.5 15.5t-4.5 17q-1 5 -4.5 10t-3.5 10q0 3 1 3.5t3 0.5q4 0 7 -3t5 -8t3 -10t2 -8v-4t0.5 -6t0.5 -5.5v-3.5q4 -4 9 -4h11q1 0 2.5 0.5t1.5 3.5v2v4.5v4.5v2q0 14 -2.5 27.5t-2.5 26.5v3v3z" />
</svg>
