<?xml version="1.0" standalone="no"?>
<!DOCTYPE svg PUBLIC "-//W3C//DTD SVG 1.1//EN" "http://www.w3.org/Graphics/SVG/1.1/DTD/svg11.dtd" >
<svg xmlns="http://www.w3.org/2000/svg" xmlns:xlink="http://www.w3.org/1999/xlink" version="1.1" viewBox="-10 0 266 256">
   <path fill="currentColor"
d="M125 245q0 3 1 4t4 1t5.5 -0.5t2.5 -3.5q1 -6 1 -9.5t0.5 -7t0.5 -6.5v-8q0 -16 -1 -31.5t-1 -31.5v-4q0 -1 2 -2q14 -2 27.5 -2.5t27.5 0.5q2 -1 5.5 -2.5t3.5 -4.5q0 -2 -1 -3.5t-2.5 -2t-3.5 -0.5h-3q-14 0 -27.5 0.5t-26.5 0.5v-23l1 -3q16 -1 25 -6t13.5 -12.5
t6 -18.5t1.5 -25v-11q-1 -1 -2.5 -4t-4.5 -3q0 1 -1.5 2t-1.5 2q0 8 -0.5 19.5t-3 22.5t-9 18t-19.5 7h-1.5h-2.5l-2 -3v-79q0 -1 -1.5 -1h-2.5t-3.5 1t-2.5 2v75q0 1 -2 2.5t-3 2.5h-1q-10 0 -18 -6.5t-9 -17.5l-3 -45q0 -2 -2 -2h-3h-3q-1 0 -2 2v3v4v5v2v4v4.5v3.5v2
q0 1 0.5 4.5t1.5 8t1.5 9t1.5 6.5q1 7 5.5 11t10 6t12 3t11.5 1v28l-2 3h-3h-5h-5.5h-3.5q-3 0 -10.5 0.5t-16 0.5t-16 0.5t-10.5 0.5v8l3 1h2h4h5h3q14 0 26 -1t25 -1q2 0 3 0.5t1 3.5v81v2t-0.5 4l-1 4t-0.5 3v2z" />
</svg>
