<?xml version="1.0" standalone="no"?>
<!DOCTYPE svg PUBLIC "-//W3C//DTD SVG 1.1//EN" "http://www.w3.org/Graphics/SVG/1.1/DTD/svg11.dtd" >
<svg xmlns="http://www.w3.org/2000/svg" xmlns:xlink="http://www.w3.org/1999/xlink" version="1.1" viewBox="-10 0 266 256">
   <path fill="currentColor"
d="M129 249q0 2 1 2h3q2 0 4.5 -1t2.5 -4v-1v-5.5t-0.5 -10.5t-1 -13t-1 -13t-0.5 -10.5v-5.5v-4v-5v-3v-3l1 -1q3 0 8.5 -0.5t12 -0.5t12.5 -0.5t8 -0.5h3h4t3.5 -0.5t2.5 -0.5l2.5 -2.5l2.5 -2.5v-0.5v-0.5h-60l-0.5 -1t-0.5 -2l-0.5 -2.5t-0.5 -3.5t0.5 -3.5t0.5 -3.5
q16 0 25.5 -8t9.5 -25q0 -2 -1 -5.5t-4 -3.5t-4 2t-1 5.5t-1 7.5t-3 7.5t-6.5 5.5t-12.5 2h-2t-2 -1v-31l2 -1l12 -4t11 -6t7.5 -9t2.5 -13q0 -5 -2.5 -10t-7 -9t-9.5 -6t-10 -2q0 5 3 8.5t6.5 6t6.5 6.5t3 11q0 4 -3.5 7.5t-8 5.5t-9.5 3t-8 1t-7.5 -1l-9 -2t-8 -3t-3.5 -4
v-18q0 -3 5.5 -5.5t11.5 -5.5t11.5 -6.5t5.5 -9.5q0 -4 -1.5 -8.5t-3.5 -8.5t-5 -7t-7 -3q-3 0 -4 1.5t-1 3.5v1.5v1.5q2 2 6 5.5t5 7.5v1q0 4 -2 7t-6 5.5t-8.5 4.5t-8 4.5t-6 6t-2.5 9.5q0 3 0.5 7t2 8t3.5 7t6 4l20 6q2 0 1.5 2t-0.5 3q0 7 -0.5 14t-0.5 14q0 2 -1.5 3
t-3.5 1t-4.5 -0.5t-5.5 -2t-5 -3t-3 -2.5v-6t-1 -8t-2.5 -7t-5.5 -3q-2 0 -2.5 1.5t-0.5 3.5q0 18 8.5 27t26.5 8l3 3v15l-58 3l-1.5 0.5t-3.5 1t-3.5 1.5t-1.5 2q0 3 2 3.5t4 0.5q14 0 28.5 -1.5t28.5 -1.5h3q1 0 2 2q1 19 1.5 37.5t0.5 37.5z" />
</svg>
