<?xml version="1.0" standalone="no"?>
<!DOCTYPE svg PUBLIC "-//W3C//DTD SVG 1.1//EN" "http://www.w3.org/Graphics/SVG/1.1/DTD/svg11.dtd" >
<svg xmlns="http://www.w3.org/2000/svg" xmlns:xlink="http://www.w3.org/1999/xlink" version="1.1" viewBox="-10 0 266 256">
   <path fill="currentColor"
d="M153 245v1t0.5 2.5t1.5 1.5q4 0 6 -1.5t3.5 -3.5t2.5 -5t2 -5q8 -14 15 -31.5t12.5 -36t8.5 -37t3 -34.5q0 -4 -3 -7t-8 -6t-11 -5.5t-11.5 -5t-10.5 -5t-7 -5.5l-0.5 -3.5t-1.5 -3.5v-1q0 -3 3 -6.5t7 -5.5t8 -3.5t7 -1.5h20l1 -0.5l1 -0.5v-1q0 -2 -1 -3.5t-3 -2.5
t-3.5 -1.5t-3.5 -0.5q-7 0 -14.5 1.5t-14 5t-10 9.5t-3.5 15q0 1 1 3.5t2 5.5t2.5 5.5t2.5 2.5l15 8l0.5 1t0.5 2t-1 5t-2 9.5t-2.5 11t-3.5 10.5t-4 8.5t-3 3.5q-2 0 -4 -1t-3.5 -2l-3 -2t-4.5 -1q0 5 2 7t4 3.5l4 3t2 5.5q0 8 -4.5 19t-11 22.5t-13.5 22t-12 16.5v0v1l2 2
l1 1q1 1 2 0l1.5 -1.5l2.5 -2.5l2 -2q12 -14 20.5 -30t14.5 -32.5t11 -34t10 -34.5q1 -1 2.5 -3.5t3.5 -2.5q4 0 6.5 2t4 5t2 6.5t0.5 7.5q0 11 -3.5 22.5t-6.5 22.5q-5 20 -11.5 39t-16.5 37q-2 4 -5 7t-3 8zM84 231q0 1 0.5 2t1.5 2.5t2 2t2 0.5q0 -1 1.5 -2l1.5 -1l2 -13
v-85h30q1 0 1.5 -1.5t0.5 -2.5v0v0q0 -2 -1.5 -3t-3.5 -1h-23q-1 0 -1.5 -1.5t-1 -3.5t-0.5 -3v-3q0 -6 1 -8t2.5 -2.5t4 -1t6.5 -2.5q1 -1 2.5 -3t3 -3.5t2.5 -3t1 -2.5q1 -2 1.5 -8.5t1 -13.5t1.5 -13t1 -9v-2q0 -3 -1.5 -3.5t-3.5 -0.5q-1 0 -2 0.5t-2 2.5q1 12 0.5 20.5
t-3.5 19.5q-1 1 -1.5 3t-2 4t-3 3.5t-3.5 1.5q-1 0 -2 -0.5t-2 -2.5v-10v-10v-11.5t0.5 -16.5t0.5 -17v-11q0 -6 -6 -6h-2t-1 1v7.5v11.5v12v13v11v7v3t-0.5 4.5t-0.5 5t-1 3.5v1.5t-0.5 3t-1 2.5t-1.5 1q-3 0 -5.5 -1.5t-4.5 -4t-3 -5t-1 -5.5v-38q0 -1 -2 -2l-2 -1h-1
q-2 0 -3 1.5t-1 3.5v3v7t0.5 10.5t0.5 10.5v7q3 9 8.5 13.5t14.5 8.5l0.5 0.5l0.5 0.5v22h-38q0 5 0.5 6.5t5.5 1.5h4h3t6 -0.5t6 -0.5h4v0h1h1.5t2.5 0.5t2.5 1t1.5 1.5v6q0 21 0.5 42.5t-3.5 42.5z" />
</svg>
