<?xml version="1.0" standalone="no"?>
<!DOCTYPE svg PUBLIC "-//W3C//DTD SVG 1.1//EN" "http://www.w3.org/Graphics/SVG/1.1/DTD/svg11.dtd" >
<svg xmlns="http://www.w3.org/2000/svg" xmlns:xlink="http://www.w3.org/1999/xlink" version="1.1" viewBox="-10 0 266 256">
   <path fill="currentColor"
d="M173 166q2 0 3.5 3.5t3 8t2 9.5t0.5 6q1 1 1.5 4t1.5 6.5t1.5 6.5t0.5 4t0.5 4.5t0.5 7t0.5 7t0.5 4.5q0 2 0.5 4.5t1.5 4.5t2.5 3.5t4.5 1.5t4 -2t1 -5q0 -6 -1 -12t-3 -12.5t-4 -12.5t-3 -12q-1 -3 -2 -8.5t-2 -10.5t-1.5 -9l-0.5 -4l1 -5l3 -3t4.5 -4t4.5 -4.5t3 -3.5
q2 -2 3 -5.5t1.5 -7.5t0.5 -8v-7q0 -10 -3 -15.5t-7.5 -8.5t-9.5 -4t-9 -1t-7 -0.5t-3 -3.5v-5t1 -8t2.5 -7.5t4.5 -3.5h26q2 0 3.5 -1.5t1.5 -3.5q0 -3 -1.5 -4t-3.5 -1.5t-4 -0.5h-4h-7h-1.5t-3 0.5l-3 1t-2.5 0.5l-1 -1t-2 -1q-1 -1 -1 -2v-30q0 -3 -2.5 -3.5t-3.5 -0.5
q-2 0 -3.5 0.5t-2.5 3.5q1 8 0.5 17l-1 18l-1 18t-1.5 16q-1 3 -4.5 3.5t-7 0.5t-7.5 0.5t-5 3.5l3 3h13.5t15 0.5t14 1t12.5 0.5q4 3 4.5 8.5t0.5 9.5q0 3 -0.5 8t-2 10t-4 8.5t-7.5 3.5q-3 0 -4 -3t-3 -7t-7.5 -7.5t-16.5 -3.5h-4t-6 1t-5 2t-2 4q0 2 2.5 3t5.5 1v0
q1 0 3 -0.5l4 -1l4 -1l2 -0.5h1.5h1.5q4 0 6.5 2t4.5 5t2.5 6.5t0.5 6.5t-4.5 6.5t-11 6t-14.5 5t-15 4.5t-11.5 3t-4.5 2q0 3 4 5h4h4q13 0 24.5 -5.5t22.5 -12.5h0.5h1.5zM79 243q0 3 2 4t4 1q3 0 5.5 -1.5t2.5 -4.5l3 -99l1 -1t1 -2l1 -0.5l1 -0.5l25 -4q2 0 2 -1.5v-2.5
v-1v-1q-4 -1 -9.5 -0.5t-10 0t-8 -3t-3.5 -9.5q0 -1 0.5 -4t0.5 -6.5t0.5 -6.5t0.5 -4q3 -4 6.5 -4.5t8.5 -1.5q6 -2 9 -7.5t4.5 -12.5t1 -14t-0.5 -12v-3v-4.5v-4.5v-3q0 -2 -1 -3.5t-3 -1.5h-1l-1 0.5t-2 1.5v6t-0.5 10.5t-0.5 10v6.5q-1 3 -1.5 7.5t-1.5 8t-3.5 6.5
t-7.5 3h-3q-3 0 -3 -2v-10q0 -15 1 -29.5t1 -29.5q-1 0 -3 0.5t-4 1.5t-3 3t0 4q0 3 -0.5 10.5t-1 15.5t-1 15.5t-0.5 10.5v3.5t-0.5 3t-1.5 2.5t-3 1q-4 0 -7.5 -2.5t-4.5 -6.5v-4t-0.5 -7t-0.5 -7v-4v-2t0.5 -4.5t0.5 -4v-2.5q1 0 1 -2v-3q0 -3 -0.5 -5t-4.5 -2q-2 0 -3 1
t-2 3q0 10 -1 18t-1 18v1q0 1 0.5 3l1 4t1 4.5l0.5 2.5q2 3 6 4t7.5 2t7 2.5t4.5 3.5v2v2.5v3.5v2v4.5t-0.5 8t-1.5 8t-2 3.5h-35v11q9 0 18.5 -1t18.5 -1v51t-5 50q0 1 -0.5 3z" />
</svg>
