<?xml version="1.0" standalone="no"?>
<!DOCTYPE svg PUBLIC "-//W3C//DTD SVG 1.1//EN" "http://www.w3.org/Graphics/SVG/1.1/DTD/svg11.dtd" >
<svg xmlns="http://www.w3.org/2000/svg" xmlns:xlink="http://www.w3.org/1999/xlink" version="1.1" viewBox="-10 0 266 256">
   <path fill="currentColor"
d="M77 245q0 3 0.5 4.5t3.5 1.5q2 0 3 -0.5t1 -3.5q0 -1 0.5 -3.5t1 -5.5t0.5 -5.5v-4.5v-9t0.5 -14t0.5 -17v-17v-14.5v-9.5l2 -2h21q1 0 3 -1.5t2 -2.5v-1l-1 -1l-1 -1h-22l-4 -5v-25q9 -4 12.5 -6.5t4.5 -5.5t2 -7.5t4 -12.5v-29q0 -2 -1.5 -3t-3.5 -1q-1 0 -2 1t-1 3v4
v7v6.5v4.5q0 2 -0.5 6.5t-1.5 9t-3 8t-6 3.5h-4q-1 -20 -1 -40.5v-40.5q0 -2 -1 -2h-2q-2 0 -3.5 0.5t-1.5 2.5v79q0 1 -2.5 1h-2.5q-5 0 -7 -2.5t-3.5 -6t-2 -7.5t-0.5 -8v-5v-8v-8.5v-5.5q-1 -2 -2 -2.5t-3 -0.5h-3.5t-2.5 2v4q0 5 1.5 10.5t1.5 10.5q1 5 1 10t1 9.5
t3 8.5t6 8q2 1 4.5 1h5t4.5 0.5t2 3.5l0.5 3.5t0.5 4.5q0 2 -0.5 5t-0.5 4v3v3.5t-0.5 3l-0.5 1.5h-35q-2 0 -2 1.5v2.5t0.5 3t2.5 2h34q2 0 2 2v3q0 23 -2 46.5t-2 46.5zM164 147q4 1 5.5 5t2 9t0.5 10v8q2 8 4.5 17.5t5.5 18.5q2 4 3 10.5t3.5 12t6.5 9.5t10 4
q0 -6 -2 -12.5t-4.5 -13.5t-5.5 -13.5t-5 -11.5q-7 -23 -11.5 -47.5t-4.5 -48.5v-8q1 -1 1.5 -2.5l0.5 -1.5h40q1 0 1.5 -1t0.5 -2v-1v-1l-0.5 -1.5t-1.5 -1.5h-43v-37q0 -2 1.5 -3.5t3.5 -1.5h24q1 0 1.5 -1.5t0.5 -2.5t-1 -2t-3 -1h-13h-18t-18.5 1.5t-15 7.5t-7.5 17
q-2 12 -2 23.5t-2 23.5v1q0 12 2.5 19.5t8 12t13.5 6t18 0.5zM113 178v1q0 1 1 2l2 2h17q9 0 16.5 -0.5t16.5 -1.5q2 -1 2.5 -1.5t0.5 -1.5v-1.5v-0.5q-3 -1 -7.5 -1.5t-8.5 -0.5h-8h-7h-4h-6h-6h-4q-2 1 -3.5 2t-1.5 2zM132 103v-5v-3l3 -2h28q1 0 1.5 4.5t1 11t0.5 13v9.5
v3.5v2.5l-2 2h-2.5h-3.5q-8 0 -13 -2.5t-8 -7.5t-4 -11.5t-1 -14.5zM134 84v-27q0 -3 3 -5.5t7 -4.5t8 -3.5t6 -1.5q1 0 3 1.5t2 3.5v37h-29z" />
</svg>
