<?xml version="1.0" standalone="no"?>
<!DOCTYPE svg PUBLIC "-//W3C//DTD SVG 1.1//EN" "http://www.w3.org/Graphics/SVG/1.1/DTD/svg11.dtd" >
<svg xmlns="http://www.w3.org/2000/svg" xmlns:xlink="http://www.w3.org/1999/xlink" version="1.1" viewBox="-10 0 266 256">
   <path fill="currentColor"
d="M126 195v54l1.5 0.5t1.5 1.5h1q3 0 4 -2t1 -4v-52h24q1 0 2 -1l2 -2l1.5 -1.5t0.5 -1.5l-3 -2h-27l-0.5 -1t-0.5 -2.5v-2.5v-2q0 -4 3.5 -5t8 -2t8 -3t3.5 -7v-18q0 -2 -2 -2h-3h-1q0 7 -0.5 11.5t-2 7t-5 3t-9.5 0.5v-25q0 -2 3.5 -3t7 -2.5t7 -5t3.5 -10.5
q0 -8 -3.5 -11t-8 -4.5t-8 -3t-3.5 -4.5q0 -2 0.5 -3.5t2.5 -2.5q7 -1 11.5 -1.5t9.5 -0.5q6 0 10 3t8 8v7v11t0.5 12.5t0.5 12.5v11v7q0 1 0.5 5.5t1.5 10t1.5 11t1.5 8.5q0 2 0.5 7.5t2 10.5t3.5 9.5t4 4.5q3 0 4.5 -1.5t0.5 -4.5v-2t-0.5 -2l-1 -2l-0.5 -1
q-1 -4 -1.5 -7.5t-0.5 -7.5t-1 -7.5t-3 -6.5q-3 -23 -4 -45t0 -44q-3 -4 -5 -6.5t-4 -3.5t-5 -2t-7 -1q-1 0 -5 -0.5t-9 -0.5t-9 -0.5t-5 -0.5t-2 -1l-1 -1v-1q0 -1 1.5 -3.5t2.5 -3.5l15 -3q2 0 3 -2t2 -4.5t1.5 -5t0.5 -3.5v-6q-4 -4 -7 -5.5t-6 -2.5t-6.5 -2t-6.5 -3
v-1.5v-2.5q0 -3 0.5 -4t3.5 -1q6 0 11.5 1.5t11 3.5t11.5 4t11 2h3t3.5 -0.5t3 -1.5t1.5 -2v-1q0 -1 -1 -2t-2 -1q-11 -2 -23.5 -4t-23.5 -5q-6 -1 -8 -2.5t-2.5 -3.5t-1.5 -3.5t-3 -1.5q-3 0 -3.5 1.5l-1 3l-1 3t-2.5 2.5t-6.5 2.5t-11 3t-13.5 3.5t-13 4t-10 3.5t-4 2.5
q0 3 1.5 3.5t4.5 0.5q5 0 11.5 -2.5t13.5 -5.5t14 -5.5t12 -2.5q3 0 4 2.5t1 5.5t-3.5 4.5t-8 3t-8 4.5t-3.5 10q0 5 2 8t4.5 4.5t5.5 2t6 1.5t5 3t2 7q0 1 -0.5 2.5t-2.5 0.5q-2 1 -6.5 1.5t-10 1.5t-10 2t-6.5 1q-10 2 -12.5 7.5t-2.5 15.5q0 13 1 26.5t1 26.5
q0 15 -0.5 30t-5.5 29q-1 2 -2.5 3t-1.5 4t3 3t7 -3t4 -7l3 -30v-83q0 -7 3.5 -11t8.5 -6t11 -3t11 -1h3.5h2.5q1 1 1.5 2t0.5 2q0 6 -3.5 7.5t-7 2.5l-7 2t-3.5 5v17l0.5 1t1.5 2l0.5 0.5l0.5 0.5l19 6v2.5t0.5 6t0.5 7.5v7v2v3t-1 2h-2.5h-1.5q-6 0 -8.5 -1.5t-3.5 -4
t-1 -5.5t-0.5 -5.5t-2 -4t-5.5 -1.5q0 7 1 12.5t3.5 9.5t7.5 5.5t13 1.5l1 2v11l-1 1q-1 0 -4.5 0.5t-7 0.5t-7 0.5t-4.5 0.5h-1.5t-2.5 0.5t-2 1.5t-1 2v0v0q0 1 0.5 1.5l0.5 0.5h30zM109 119q0 -5 2.5 -8t6.5 -4.5t9 -2t8 -0.5q1 0 3 0.5l4 1t3.5 2t1.5 2.5v13q0 2 -2 2.5
t-5 1t-5.5 0.5h-2.5q-3 0 -7 0.5t-7.5 -0.5t-6 -3t-2.5 -5zM106 51q0 -3 3 -5t6.5 -3t7.5 -1.5t7 -0.5q4 0 7.5 0.5t7.5 0.5q5 3 5 8q0 3 -2 7t-6 4h-27q-3 0 -6 -3.5t-3 -6.5z" />
</svg>
