<?xml version="1.0" standalone="no"?>
<!DOCTYPE svg PUBLIC "-//W3C//DTD SVG 1.1//EN" "http://www.w3.org/Graphics/SVG/1.1/DTD/svg11.dtd" >
<svg xmlns="http://www.w3.org/2000/svg" xmlns:xlink="http://www.w3.org/1999/xlink" version="1.1" viewBox="-10 0 266 256">
   <path fill="currentColor"
d="M79 249q0 1 1.5 1.5t2.5 0.5q3 0 5 -1t2 -4v-8.5t0.5 -12t0.5 -14v-14t0.5 -12t0.5 -7.5q0 -4 -0.5 -6.5t-0.5 -5t0.5 -4.5t1.5 -5q1 -1 2 -2.5t2 -1.5h17v-7h-19q-3 0 -3.5 -2.5t-0.5 -4.5q0 -5 1 -10.5t1 -10.5l0.5 -0.5t1.5 -0.5l1.5 -0.5t3 -1.5t3 -1.5l1.5 -0.5
q5 -2 7 -10.5t3 -18.5t1 -19v-13v-14q0 -2 -0.5 -2.5t-2.5 -0.5q-1 0 -2 0.5t-1 1.5l-5 61q0 2 -3 5t-6 3v0q-1 0 -1.5 -0.5l-0.5 -0.5v-10q0 -19 2 -38t2 -38v-6q-1 0 -1.5 -1l-0.5 -1h-1q-4 0 -5.5 2.5t-2 6t0 7.5t0.5 6q0 3 -0.5 8.5t-0.5 12.5t-0.5 15t-1 15t-0.5 12.5
v8.5h-2h-1q-3 0 -5 -2.5t-3.5 -6t-2 -7.5t-0.5 -6v-41q0 -3 -1.5 -3.5t-2.5 -0.5q-2 0 -3.5 0.5t-2.5 1.5v11v11v17t2 17t6.5 14t13.5 7q1 2 1.5 4t0.5 5v2v2q0 1 -0.5 3.5t-0.5 4.5t-0.5 4l-0.5 2l-3 1h-24q-1 0 -1.5 1.5t-1 2.5t-1 2.5t-0.5 2.5h28l3 1v3v4q0 3 0.5 5.5
t0.5 4.5q0 18 -2 35.5t-2 34.5v7zM118 244l2 2l3 3h0.5h0.5h0.5h0.5l1 -1.5t2 -1.5l2 -29v-5q0 -13 -1 -25t-1 -25v-5v-8t0.5 -12.5t1 -12t0.5 -7.5q0 -1 0.5 -1.5l0.5 -0.5q2 -2 4.5 -5.5t5.5 -7t5.5 -6t3.5 -2.5q3 0 4 3t1.5 6t1.5 6t4 3q4 0 6.5 -2.5t4.5 -5.5t3.5 -5.5
t3.5 -2.5t3.5 2.5t3.5 6t5 7t9 5.5v3v3v12v18t-0.5 20.5t-0.5 20.5v18v11q-1 6 -1.5 10.5t-0.5 10.5q0 2 0.5 3.5t3.5 1.5q2 0 4.5 -1t2.5 -4v-192q0 -6 -4 -8.5t-9.5 -3.5t-11 -0.5t-8.5 0.5q-7 0 -14 -0.5t-13.5 0.5t-11.5 4.5t-8 10.5q-1 2 -1.5 4.5t-1.5 5t-1.5 4
t-0.5 2.5zM148 220q2 0 4.5 0.5t5.5 0.5t5.5 0.5t3.5 0.5h2q6 0 9.5 -2t5.5 -5.5t2.5 -8t1.5 -10.5v-7t0.5 -15.5t0.5 -17.5v-14v-3q0 -2 -1 -4.5t-3 -2.5v0q-1 0 -2 1t-1 2v21.5t-2 22.5q0 1 -0.5 2t-1.5 2v0v0q-2 0 -3.5 -1.5t-3 -3.5t-2 -4.5t-0.5 -4.5v-46q0 -1 -1.5 -1
h-1.5q-2 0 -3 2t-1.5 4.5t-0.5 4.5v2q0 3 -0.5 9t-0.5 13t-0.5 13.5t-0.5 8.5l-9 11h-1h-1q0 -1 -0.5 -1.5l-0.5 -0.5v-55q0 -1 -2 -1.5l-2 -0.5q-2 0 -3 1.5t-1.5 3t0 3.5t0.5 4v13.5t0.5 14.5t0.5 13.5t1 11.5v6.5t1 7t2.5 6t3.5 4.5zM148 203q1 0 1.5 -0.5l0.5 -0.5
q0 -1 1.5 -3t1.5 -3q1 -1 2.5 -3l3 -4t3 -3.5l1.5 -1.5h3l1 1t2 2.5t2.5 3l2.5 2.5q2 3 3 5.5t1 6.5q0 3 -1.5 4.5t-4 2t-5 0.5h-5.5q-6 0 -8.5 -2t-5.5 -7zM185 86q0 -5 4 -10.5t7 -8.5v0h1q1 1 1.5 2t0.5 2v36q-2 0 -3.5 -1t-2.5 -3q-1 -1 -2 -3.5t-2.5 -5t-2.5 -5
t-1 -3.5zM131 90v-3v-5v-4v-2l0.5 -2t0.5 -4t0.5 -3.5t1.5 -2.5h1q2 0 4 2t4 5t3 6.5t1 5.5v1q-3 5 -6.5 10t-7.5 9l-2 -4v-3v-6zM154 84q0 -2 1 -5.5t2.5 -6.5t3.5 -5.5t4 -2.5t4.5 2.5t4 6t2.5 7.5t1 5q0 5 -4 9l-7 7h-2q-2 0 -4 -2t-3 -5t-2 -5.5t-1 -4.5zM167 52l-1.5 1
l-3 2l-3 2t-1.5 2q-2 1 -2.5 3.5t-1 4.5t-1.5 4t-3 2q-1 0 -2.5 -2.5t-2.5 -5t-2 -6t-1 -4.5q0 -4 4 -5.5t8.5 -2.5t9.5 -0.5t6 0.5h4h4h3.5h1.5q1 0 3 0.5t4.5 1.5t4.5 2l2 1v5q-1 2 -3.5 4.5t-4.5 5.5t-4.5 5.5t-4.5 3.5l-8 -21q0 -1 -2 -2t-3 -1z" />
</svg>
