<?xml version="1.0" standalone="no"?>
<!DOCTYPE svg PUBLIC "-//W3C//DTD SVG 1.1//EN" "http://www.w3.org/Graphics/SVG/1.1/DTD/svg11.dtd" >
<svg xmlns="http://www.w3.org/2000/svg" xmlns:xlink="http://www.w3.org/1999/xlink" version="1.1" viewBox="-10 0 266 256">
   <path fill="currentColor"
d="M174 192q0 3 0.5 8t1.5 11.5t2.5 13t4 12t5 9t6.5 3.5q2 0 2 -1.5v-2.5q0 -6 -4 -11t-6 -10q-3 -6 -4 -13.5t-1 -15.5v-2t0.5 -5t2.5 -3v0q2 2 3 4t2.5 4t3.5 3t4 1t2 -1v-3v-0.5v-0.5l-13 -18v-2v-3q0 -3 1 -6t2 -5.5t2.5 -5t1.5 -6.5q-4 0 -5.5 1t-2 2.5t-1.5 2.5t-2 1
q-2 0 -3 -1.5t-2 -3.5t-1.5 -4.5t-0.5 -3.5q0 -4 2.5 -5.5t6 -2t7.5 -0.5h5l3 -3l-3 -3h-22q-1 0 -1.5 -1.5t-0.5 -2.5t0.5 -2.5t1.5 -2.5q8 0 13.5 -3.5t5.5 -11.5v-4t-3 -3h-1q-1 6 -4 10.5t-10 4.5q-2 0 -2.5 -2.5t-0.5 -5.5t-1 -5.5t-4 -2.5v29l-1 1.5t-1 2t-0.5 1
l-0.5 0.5h-24l-1 -0.5t-1 -1.5v-5q0 -3 1 -4.5t2.5 -2t3.5 -0.5t5 -1q5 -2 6 -5t1 -6v-8t4 -7q8 1 17 0.5t18 -1.5q1 0 1.5 -1t0.5 -2q-1 -2 -2 -2.5t-2 -0.5q-7 0 -14 1t-14 1h-1h-2t-1.5 -0.5t-0.5 -1.5v-11h32q2 0 2 -1.5v-2.5t-1 -2.5t-3 -1.5q-4 0 -8 0.5t-8 0.5h-7
q-1 0 -2 -1t-1 -2v0v-1l1 -2l2 -4t2.5 -3.5t2.5 -1.5h23q1 0 1.5 -1.5t0.5 -2.5v-2t-2 -1h-18q0 -1 -0.5 -3t-0.5 -3l1 -2l2 -4t2 -3.5t1 -2.5v-1v-1q0 -3 -1 -3.5t-4 -0.5q-2 0 -4 3.5t-4 8.5t-4 11t-4 11t-4 8.5t-4 3.5h-1q0 -11 -2.5 -23t-4.5 -23h-1.5h-0.5q-3 0 -3.5 1
t-0.5 4q0 4 1.5 7.5t1.5 6.5v3.5t-2 2.5h-18l-1 2l3 4h19q1 0 1 1.5t0.5 3t0.5 3.5v1v3v2l-0.5 1t-1.5 1h-18l-0.5 1l-0.5 1v1v1l0.5 1l0.5 1h26v13h-31q-1 0 -1.5 1.5t-0.5 2.5q1 3 2.5 3h3.5q6 0 11.5 -1t10.5 -1q2 0 3.5 0.5t1.5 2.5v12q0 2 -1.5 2.5l-3 1l-3 1l-1.5 0.5
h-4t-6 0.5t-6 0.5h-4l-1 0.5t-1.5 1l-0.5 0.5v0q0 2 2 2.5l4 1t3.5 2.5t1.5 5v2v2.5t-1 2t-2 0.5h-19q-1 0 -1.5 1t-0.5 2v0v1l0.5 1t1.5 1h19v14h-19q-1 0 -1.5 0.5t-0.5 1.5v1v0q0 1 0.5 2t1.5 1h19v38l0.5 1l0.5 1q1 1 1 2.5t0.5 3t1 3.5l0.5 2q1 2 3 2.5t3.5 1.5l3 2
t1.5 4q0 6 -3 9.5t-6.5 5.5t-8.5 3t-9 1.5t-6.5 1t-2.5 1.5v2t2 1l3 0.5t4 0.5q6 0 12.5 -1.5t11.5 -5t8.5 -8.5t3.5 -12q0 -3 -2 -4t-4.5 -2t-4.5 -2.5t-3 -3.5q-1 -8 -1 -14.5v-15.5v-16l2.5 -0.5t5 -0.5t4.5 -0.5t3 -0.5h1t2.5 -0.5t2.5 -1.5l1 -1v-1l-2 -2l-1 -1h-18
q-2 0 -1.5 -2.5l0.5 -2.5v-2v-3.5t1 -1.5h29q1 0 2.5 4.5t3 10t2.5 11t1 7.5q0 6 -1 12t-1 12zM80 235q0 3 0.5 4.5t3.5 1.5t4 -1.5t1 -3.5q1 -27 1.5 -53.5t1.5 -53.5l2 -4t3 -3h3h4h4.5h3.5q1 -1 3.5 -2.5t2.5 -3.5v0q-1 0 -2 -0.5t-2 -1.5v0h-1l-2.5 0.5t-5 0.5t-4.5 0.5
t-3 0.5h-1h-2.5t-0.5 -2v-7q0 -7 1.5 -9t3.5 -3t4.5 -2.5t5.5 -6.5q2 -5 3 -10t1 -10.5v-10.5v-11v-10q0 -1 -0.5 -2t-2 -1.5t-2.5 -0.5h-2v50q0 2 -2.5 4t-4.5 2h-2t-2 -1v-69l-0.5 -0.5l-0.5 -0.5q-1 -1 -2 -1.5l-1 -0.5q-1 0 -1.5 0.5t-0.5 1.5v65l-3 6h-0.5h-0.5
q-4 0 -6 -3t-3 -7t-1.5 -8t-0.5 -6v-5v-9v-8.5v-5.5q-1 -3 -4 -6l-3 3v1.5v3.5v5v3q0 9 -0.5 16.5t1 13.5t5.5 11.5t12 9.5v19h-25q-1 0 -2 1.5l-1 1.5v1v1q0 1 0.5 2l0.5 1h25l2 3v3.5v4.5q0 12 -0.5 24t-1.5 23.5t-1.5 23t0.5 23.5q-1 2 -1.5 4t-0.5 4zM113 163
q0 3 -1.5 6.5t-3.5 8t-3 8t-1 6.5q2 0 4 -0.5t4 -1.5q2 -6 3 -10t1 -10v-3v-2q0 -1 -0.5 -1.5t-1.5 -0.5v0h-1zM146 168q0 6 2 11.5t2 12.5h2q2 0 3 -0.5t1 -2.5q0 -4 -1 -7.5t-2.5 -7t-2.5 -7t-1 -7.5h-1v0h-0.5h-0.5l-0.5 0.5t-0.5 1.5v6z" />
</svg>
