<?xml version="1.0" standalone="no"?>
<!DOCTYPE svg PUBLIC "-//W3C//DTD SVG 1.1//EN" "http://www.w3.org/Graphics/SVG/1.1/DTD/svg11.dtd" >
<svg xmlns="http://www.w3.org/2000/svg" xmlns:xlink="http://www.w3.org/1999/xlink" version="1.1" viewBox="-10 0 266 256">
   <path fill="currentColor"
d="M138 178q0 11 4 21.5t10.5 19.5t14.5 17t17 14h3q3 0 5 -1t2 -4q0 -2 -5 -6.5t-11.5 -9t-11 -8.5t-2.5 -6l-14 -26q-1 -1 -1.5 -3t-0.5 -4v-4v-4q0 -6 2 -11.5t4.5 -11t4.5 -11.5t2 -12q0 -7 -5.5 -12t-12 -9t-12 -7t-5.5 -6v-5q0 -3 0.5 -7t2 -6.5t3.5 -3.5q1 0 4 -0.5
t6.5 -1t6.5 -1t4 -0.5l10 -2t11 -1h1.5t1.5 2q-1 1 -0.5 6t1 10.5t2 12t3 11.5t4 8.5t4.5 3.5h1q5 -3 5 -9q0 -3 -1.5 -5.5t-3.5 -5.5q-2 -7 -5 -15.5t-3 -16.5q0 -4 0.5 -9.5t1.5 -11t1.5 -10.5t1.5 -9q-1 -2 -2.5 -4t-4.5 -2h-1l-2 1t-2 2q0 4 0.5 9.5t0 10.5t-2.5 8.5
t-8 4.5q-10 3 -17.5 4t-15.5 1h-5l-1 -1t-1 -2v-1v-1q0 -1 0.5 -6t1 -11t1 -11t1.5 -7v-2q0 -2 -2 -5.5t-6 -3.5q-2 0 -3.5 1.5t-1.5 4.5q0 8 1 17t1 17q0 2 -0.5 5.5t-0.5 4.5q0 2 -4.5 4t-11 2.5t-13.5 1t-13.5 1.5t-10.5 2.5t-4 3.5q0 3 2.5 4t5.5 1q5 0 10.5 -1
t10.5 -2.5t10 -2.5t11 -1q3 0 4.5 2t1.5 5q0 8 -3 13.5t-7 10.5t-8.5 10t-8.5 12q-6 8 -9.5 17.5t-5.5 20t-2.5 20.5t-0.5 20t1.5 19.5t0.5 18.5q-1 3 0.5 3h3.5q3 0 5 -2t2 -5q0 -8 -1.5 -17t-1.5 -18q0 -13 1.5 -27t4.5 -27q1 -3 5 -10.5t9.5 -14.5t11 -12.5t9.5 -5.5
q5 0 9.5 2t7.5 6t5 8.5t2 9.5q0 6 -1.5 11.5t-3.5 10.5t-3.5 10.5t-1.5 11.5z" />
</svg>
