<?xml version="1.0" standalone="no"?>
<!DOCTYPE svg PUBLIC "-//W3C//DTD SVG 1.1//EN" "http://www.w3.org/Graphics/SVG/1.1/DTD/svg11.dtd" >
<svg xmlns="http://www.w3.org/2000/svg" xmlns:xlink="http://www.w3.org/1999/xlink" version="1.1" viewBox="-10 0 266 256">
   <path fill="currentColor"
d="M84 244q2 3 4 5t5 2t3.5 -2t0.5 -4v-3q-1 0 -1.5 -1.5t-1.5 -3.5t-1.5 -3.5l-0.5 -1.5q-4 -11 -7 -22t-3 -23q0 -8 0.5 -16t4.5 -15q3 -7 6.5 -12t3.5 -12q0 -10 -3 -15t-6.5 -7.5t-6 -4.5t-2.5 -5q0 -4 0.5 -9t2 -9.5t4.5 -7.5t8 -3q6 0 7.5 5.5t1.5 12.5q0 6 0.5 12
t3.5 6q2 0 3.5 -2t1.5 -4v-1l-1 -2t-1 -3v-3.5t-0.5 -5t-0.5 -5v-2.5v-9v-13v-13v-9q-1 -1 -1.5 -1h-2.5q-3 0 -3.5 4.5t-0.5 10v10t-3 4.5h-14l-2 -1q0 -3 -0.5 -8.5t-1 -11.5t-0.5 -11.5t-1 -7.5v-4t-0.5 -3.5t-1.5 -2.5t-4 -1q-4 0 -5 2t-1 6q0 5 1 9.5t2 9.5l2 10t1 10
v1q0 1 -0.5 2.5t-0.5 2.5q-6 1 -12.5 1.5t-12.5 -0.5q-1 1 -1.5 2.5t-0.5 2.5v1q0 3 2.5 3.5t4.5 0.5q3 0 6 -1t7 -1h5v2.5t0.5 3l1 3t0.5 2.5v1q0 8 -5 17.5t-10 16.5q-1 2 -3 4l-4 4t-3.5 4.5t-1.5 4.5t0.5 4t2.5 2q3 1 7 -3.5t7.5 -10.5t6.5 -11.5t5 -5.5q3 0 5 2.5
t3.5 5t2.5 6t1 5.5q0 5 -2 9l-4 8t-4 8.5t-3 8.5q-1 6 -1.5 11.5t-0.5 11.5q0 8 1 15t2.5 13.5t3.5 13t6 14.5zM204 245q1 2 2 3t2 1q2 0 3 -1.5t1.5 -3t0.5 -3.5v-3q0 -34 -1.5 -68.5t-3.5 -69.5v-10q0 -5 -0.5 -10.5t-1.5 -10.5t-4 -9q-1 -2 -3 -3t-3.5 -1.5t-3 -1.5
t-2.5 -3q-2 0 -4.5 0.5t-5.5 0t-5.5 -1.5t-3.5 -4v-5v-9v-8v-6q0 -1 -0.5 -2.5t-0.5 -3t-0.5 -2.5l-0.5 -1h-9v37q0 4 -5 6t-11 4t-11.5 5t-6.5 8q-1 8 -1.5 14.5t-0.5 14.5v7.5t2 8.5v43q0 1 -0.5 2.5t-1.5 2.5v1q0 2 1 3.5t1 3.5t-1 5t-1 6v1q0 1 0.5 4.5t1 7.5l1 8t0.5 5
q0 2 0.5 7.5t0.5 11.5t-0.5 11.5t-0.5 7.5q0 1 1 1.5l1 0.5h1q1 0 2 -1l2 -2t2 -2.5t1 -2.5v-32q-2 -7 -3 -14.5t-1 -14.5q0 -8 0.5 -15t0.5 -13q0 -2 -0.5 -6t-0.5 -10v-12.5t-0.5 -12t-0.5 -10v-5.5v-8.5t1 -8t3.5 -7t6.5 -5.5l1 -0.5t2.5 -0.5t3 -0.5l1.5 -0.5q3 -1 5 -3
t6 -2h10q5 0 10.5 1.5t9.5 4t4 7.5v5t0.5 9t0.5 9.5v5.5v20q1 18 2.5 35t2.5 35q0 1 0.5 5t0.5 8.5t0.5 8.5t0.5 5v6v9v8v5zM176 239l0.5 0.5l0.5 0.5l1 1q3 0 5 -2.5t2 -5.5v-1q0 -2 -0.5 -8t-1 -13.5t-1 -16t-1 -16.5t-1 -13.5t-0.5 -7.5q0 -4 -0.5 -9t-0.5 -8
q0 -6 1.5 -10t3.5 -8.5t3.5 -9t1.5 -9.5q0 -1 -0.5 -3.5l-0.5 -2.5l-12 -12q-2 -2 -5 -2.5t-6.5 -1t-7.5 0t-6 0.5h-4t-2 3q0 2 3.5 3t8 2l9 2t8.5 2t7 3t3 5t-2 6t-5 3q-2 0 -3 -1t-2.5 -2l-3 -2t-3.5 -1h-4h-6t-6 -0.5t-4 -0.5q0 1 0.5 3l0.5 2q0 1 0.5 1.5t1.5 0.5h14
q1 0 2.5 1.5t2.5 3t1.5 3t0.5 3.5q0 3 -4 4t-9 1.5t-9 1t-4 4.5q0 2 1.5 2.5t3.5 0.5q5 0 9.5 -2t9.5 -2q1 0 2.5 0.5t1.5 3.5v16h-22l-1 1.5t-2 2.5v1v0l2 2l1 1h19l3 3q1 19 3.5 38t1.5 38z" />
</svg>
