<?xml version="1.0" standalone="no"?>
<!DOCTYPE svg PUBLIC "-//W3C//DTD SVG 1.1//EN" "http://www.w3.org/Graphics/SVG/1.1/DTD/svg11.dtd" >
<svg xmlns="http://www.w3.org/2000/svg" xmlns:xlink="http://www.w3.org/1999/xlink" version="1.1" viewBox="-10 0 266 256">
   <path fill="currentColor"
d="M89 181q4 0 6 5t2.5 13t0.5 17t0.5 16.5t2.5 13t5 5.5q2 0 3.5 -0.5t2.5 -1.5v-3q0 -7 -1 -13l-2 -12t-2.5 -12t-2.5 -12v-2v-3v-3v-2q0 -2 -1 -4.5t-2.5 -5t-2.5 -5t-1 -4.5q0 -7 3.5 -10t9.5 -3q1 0 2.5 0.5t2.5 0.5q0 2 0.5 4.5t2 5.5t3 4.5t4.5 1.5q2 0 4 -1t2 -3
l-0.5 -1.5l-0.5 -1.5q-1 -1 -2 -2.5t-1 -2.5q-2 -2 -2 -6v-7v-7v-5q-1 -2 -2.5 -3.5t-3.5 -1.5q-1 0 -2.5 1t-1.5 2l-3 14q-1 1 -3 2t-3 1q-5 0 -6.5 -2t-2 -5t-1 -5t-3.5 -2q-2 0 -3 1.5t-1 3.5t-0.5 4t-0.5 3q0 2 -4 2.5t-8.5 1.5t-8.5 3t-4 6q5 0 9.5 -1t9.5 -1
q3 0 4.5 1.5t1.5 4.5q0 4 -1.5 6.5t-3.5 5.5t-4 5t-4 5q-3 4 -4 8t-4 8q0 1 -0.5 4.5t-1 7.5t-0.5 7.5t-1 4.5q0 2 -1 4l-2 4t-2 3.5t-1 4.5q0 2 0.5 3t2.5 2q1 -1 4.5 -2t4.5 -1t1.5 -0.5t0.5 -1.5q1 -2 1.5 -7.5t1.5 -12.5t2 -14.5t2.5 -13.5t3.5 -10t6 -4zM168 217
q0 5 1 10.5t3 9.5t6.5 6.5t10.5 2.5h3.5t2.5 -3q0 -1 -3 -3t-6 -5.5t-6 -7.5t-3 -11v-3.5v-3.5l0.5 -1.5t0.5 -3.5t0.5 -3.5l0.5 -1.5q0 -1 -0.5 -2.5t-0.5 -3.5t-0.5 -4l-0.5 -2q-1 -1 -4 -2t-5 -1.5t-4 -2t-2 -3.5v-3q0 -1 0.5 -3t0.5 -4t0.5 -4l0.5 -2q5 -2 9.5 -2.5
t9.5 -0.5h3.5t2.5 1v12q0 1 0.5 3.5t1 4.5t1.5 3.5t3 1.5h2t1 -1v-45q0 -2 -1 -2.5t-3 -0.5q-3 0 -4 1t-1.5 2.5t-1 3.5t-2 3.5t-5.5 2.5t-11 1h-5l-2 -3v-21q2 -3 2.5 -4.5t0.5 -3.5q0 -3 -2.5 -4.5t-5.5 -2.5t-5.5 -2.5t-2.5 -4.5q0 -4 1 -7t2.5 -6t2.5 -6.5t1 -6.5
q0 -5 -3.5 -8t-8 -5t-8 -5t-3.5 -8q0 -1 1 -2.5t2 -2.5q6 0 11 -0.5t11 -0.5h2h3t2.5 1t1.5 2v22q0 2 1.5 4.5t3.5 2.5q3 0 5 -2t2 -4q0 -6 -1 -11t-1.5 -10t-1 -10.5t0.5 -10.5q-1 -3 -2.5 -5.5t-4.5 -2.5t-3.5 2t-1 5t-1 5.5t-2.5 2.5h-25q-1 0 -1.5 -0.5t-0.5 -1.5
q-1 -1 -1.5 -4l-1 -6t-0.5 -5v-4q0 -1 -2 -1.5l-2 -0.5q-1 0 -3 0.5t-2 1.5v19l-1 2h-7.5t-9 1t-8.5 3t-6 5h-1q0 2 1.5 3t3.5 1q8 0 14.5 -0.5t15.5 -0.5v2.5v2.5v3.5v1.5q0 1 0.5 3.5l0.5 2.5l-1 2q-5 4 -9 6.5t-7 5.5t-5.5 6.5t-5.5 9.5l-5 7.5t-3 8.5q0 3 1.5 4.5
t4.5 1.5q2 0 4 -3.5t4.5 -8.5t5 -10.5t6 -10.5t8 -8.5t11.5 -3.5q3 0 7.5 2t4.5 7q0 3 -1.5 6t-3.5 6l-4 6t-2 6q0 4 3.5 6.5t7 4t6.5 4t3 6.5q0 3 -0.5 5.5t-0.5 5t-0.5 5.5t-0.5 6q0 1 -1 1.5l-1 0.5h-13l-1 1.5t-1 2.5q0 2 2.5 2.5t5.5 1t6 1.5t3 3l0.5 2t0.5 3
q0 5 -0.5 8l-1.5 9q-8 10 -11.5 20t-3.5 22v4t1 3.5t2.5 3t3.5 1.5q3 0 3.5 -4t1 -9.5t0.5 -12t1 -11.5t4 -9t8 -4q3 0 5.5 2t2.5 5q0 6 -1 11t-1 11z" />
</svg>
