<?xml version="1.0" standalone="no"?>
<!DOCTYPE svg PUBLIC "-//W3C//DTD SVG 1.1//EN" "http://www.w3.org/Graphics/SVG/1.1/DTD/svg11.dtd" >
<svg xmlns="http://www.w3.org/2000/svg" xmlns:xlink="http://www.w3.org/1999/xlink" version="1.1" viewBox="-10 0 266 256">
   <path fill="currentColor"
d="M81 184v5v5v4v3l0.5 2t1 5t1 5.5t0.5 3.5q1 3 1.5 8t1.5 10.5t3 9.5t5 4q4 0 5 -2t1 -5q0 -7 -1.5 -14.5t-3 -14.5t-3 -14.5t-1.5 -14.5v-1v-2.5t0.5 -3.5t0.5 -3.5v-1.5q1 -2 2 -6t2 -9t2.5 -9.5t1.5 -5.5q3 -6 3 -12q0 -8 -2.5 -13t-5.5 -8.5t-6 -6t-3 -5.5v-1
l0.5 -1.5l1 -3t1 -2.5t0.5 -2q1 -3 1 -6t0.5 -5.5t2 -4t5.5 -1.5h3q1 3 2 7.5l2 9t2.5 8t3.5 3.5t3 -1.5t1 -3.5v-4v-3q0 -11 -2 -21.5t-2 -21.5v-1t0.5 -2.5t0.5 -2.5v-1v-4v-5q-4 0 -7.5 1t-3.5 6q0 4 1 8.5t1 8.5v3v3q-3 5 -9 5q-2 0 -2.5 -3.5t-1 -8t-0.5 -10t-1 -10.5
t-3 -8t-6 -3q-3 0 -4.5 2t-1.5 5v1v1q0 1 0.5 1.5t1 1.5l1 2l0.5 1q1 5 2 12t1 12v4l-3 2h-23q-3 0 -3.5 2t-0.5 4v3.5t1 3.5h2h3q5 0 9.5 -2t9.5 -2q2 0 4 1t2 4t-2 9t-5.5 12t-6.5 12t-5 8q-2 3 -5 6l-6 6t-4.5 6.5t-1.5 7.5q6 0 11 -3.5t9 -8.5t8 -10.5t8 -9.5h1.5h0.5
q2 0 4 1.5t4 4t3.5 5.5t1.5 5t-2.5 7.5l-5 11l-5 11t-3.5 9.5v2.5v5.5v5v3zM125 246q0 2 2.5 2h3.5q5 0 7 -6.5t3.5 -15t2.5 -16.5t4 -12q2 -1 5.5 -1t8 -0.5t8.5 -1t5 -0.5h2q2 0 2.5 0.5l2.5 2.5q-1 5 -0.5 10.5t1.5 11.5t2 11.5t1 10.5q1 1 1.5 2.5t2.5 1.5q4 0 5.5 -3.5
t1.5 -6.5q0 -2 -1 -7.5t-1.5 -12t-2 -11.5t-1.5 -7l-5 -49q1 -3 1.5 -5t0.5 -4q0 -6 -1 -10.5t-1 -9.5v-2v-2l2 -2h19q2 0 2 -2.5v-3.5v-2.5t-2 -1.5h-30q-5 0 -6.5 -2t-1.5 -6q0 -2 0.5 -4.5t3.5 -2.5h6t9.5 -0.5t8 -2t3.5 -4.5t-3.5 -4t-5.5 -1q-1 0 -2 0.5l-1 0.5h-17
q-1 0 -1.5 -1t-0.5 -2v-1.5v-0.5q0 -3 0.5 -4.5t3.5 -2.5q7 -1 12.5 -2t9 -3.5t5 -7t1.5 -12.5v-1v-2.5t-0.5 -5t-0.5 -4.5v-3q-1 -1 -2.5 -1h-2.5q-4 0 -5 2.5t-1 5.5t0.5 7.5t-0.5 8t-4 6t-10 2.5q-1 0 -3 -0.5t-1 -3.5q1 -10 -0.5 -19t-1.5 -20l-1 -0.5t-2 -1.5v0
q-3 0 -4.5 2t-2.5 5t-1 5v5q0 6 1.5 11t1.5 11q0 3 -2 4.5t-4 1.5q-1 0 -3 -0.5t-4 -1.5t-3 -2.5t-1 -3.5v-2t0.5 -3.5t0.5 -3v-2.5q0 -4 -1 -6.5t-5 -2.5q-2 0 -4 1t-2 3v7t1 8t2.5 7.5t4.5 5.5q2 2 6 2.5t7 1.5t5.5 2.5t2.5 6.5v2.5t-1 2.5q-2 0 -4.5 0.5t-5.5 0.5
t-5.5 0.5t-3.5 0.5h-2.5t-3 1t-2.5 1.5t-1 2.5v0.5v0.5l1.5 1.5l1.5 1.5h21q4 0 4.5 2t0.5 4q0 6 -3.5 8.5t-8.5 3t-11 0t-11 -1t-8.5 0.5t-3.5 5v2t2 2h19q1 0 2 4.5t1 10.5t0.5 12t0.5 8q0 7 -1.5 13.5t-2.5 12.5q0 11 -1 19t-2.5 16t-3.5 16t-5 18v1zM151 142
q1 0 3.5 -0.5t5.5 -0.5t5.5 -0.5t3.5 -0.5h2h1q2 0 3 0.5t2 2.5q0 6 0.5 11t1 9.5t1 9.5t0.5 10v1q0 1 -0.5 2l-0.5 1h-31v-38l0.5 -3.5t2.5 -3.5zM154 161q0 5 1 6t5 1t7.5 -1.5t3.5 -5.5t-3 -6.5t-6 -2.5q-5 0 -6.5 3t-1.5 6zM148 130v-6q0 -11 13 -11h2t4.5 0.5t4.5 0.5
t3 1q1 0 2.5 0.5l1.5 0.5v12l-4 3l-3 0.5t-7.5 0.5t-7.5 1h-2q-2 0 -4 -1t-3 -2z" />
</svg>
