<?xml version="1.0" standalone="no"?>
<!DOCTYPE svg PUBLIC "-//W3C//DTD SVG 1.1//EN" "http://www.w3.org/Graphics/SVG/1.1/DTD/svg11.dtd" >
<svg xmlns="http://www.w3.org/2000/svg" xmlns:xlink="http://www.w3.org/1999/xlink" version="1.1" viewBox="-10 0 266 256">
   <path fill="currentColor"
d="M68 211q2 3 3.5 9.5t3 13.5t3.5 12t5 5t4 -2t1 -5q0 -12 -2.5 -25t-7.5 -24v-1v-1q0 -1 0.5 -4.5t0.5 -7t0.5 -7t0.5 -4.5q2 -3 3 -7.5t2.5 -10t2.5 -11.5t4 -10v-11q0 -5 -0.5 -10.5t-1.5 -10.5t-4.5 -9t-8.5 -5q-1 -1 -1.5 -3l-1 -4l-1 -4t-0.5 -3v-2q0 -3 2 -6t4.5 -5
t6 -3t6.5 -1q2 1 3.5 3t2 5t1 5.5t0.5 3.5v4t0.5 6t0.5 5.5v3.5q1 0 2 1t2 1l1 -1l1 -1v-8q0 -9 -1 -18.5t-1 -18.5v-4.5v-3.5l1 -2t1 -3q0 -3 -2.5 -4t-5.5 -1h-2.5t-1.5 4l0.5 3l0.5 3v2q0 2 -1.5 3.5t-3.5 2l-4 1t-4 0.5h-2t-2 -2v-6t-1 -10t-3 -9t-5 -4t-3 2.5v3.5
q0 5 1 10t1 11v9q-2 2 -6 3t-8 1.5t-7 2t-3 4.5v1q0 1 1 2l1 1h16q1 0 1.5 0.5l1.5 1.5v0q0 7 -2 13t-4.5 11.5t-4.5 11.5t-2 12q0 2 0.5 3.5t3.5 1.5t5 -3t3.5 -7t3 -7t4.5 -3t5 2t3 5t1.5 6t0.5 5q0 7 -2.5 13.5t-5.5 13t-5.5 13t-2.5 13.5v3q0 2 0.5 7t0.5 10.5t0.5 10.5
t0.5 8zM121 245q0 3 3 3q4 0 6.5 -2.5t2.5 -5.5q0 -6 -1 -12t-1 -13v-1.5v-2.5q0 -2 0.5 -3.5t0.5 -2.5q0 -3 3 -6.5t6 -3.5h1q3 2 4.5 6t2.5 8t1.5 7.5t1.5 5.5q0 1 0.5 4l1 6t1 5.5t1.5 3.5t2 1.5t3 0.5q4 0 6 -3t2 -7t-1.5 -5.5l-5.5 -5.5q-2 -7 -3.5 -13t-1.5 -13
q0 -2 1 -4.5t4 -2.5q6 0 10 4t7 10t5.5 13.5l4.5 13.5t4 10.5t5 4.5t3.5 -1.5t0.5 -3.5q0 -5 -1.5 -11.5t-3.5 -14t-4.5 -14t-4.5 -10.5q-1 -3 -3.5 -6t-5 -5.5t-4.5 -5t-4 -5.5l-1.5 -1.5l-1.5 -1.5q-3 -2 -8.5 -3t-10.5 -2t-9 -3t-4 -7l0.5 -1.5t0.5 -2.5t1 -2t2 -1h29
q6 0 9.5 5t6.5 11t6.5 11t7.5 5t4.5 -1.5t0.5 -4.5q0 -6 -2 -8.5t-5 -7.5q-7 -9 -12.5 -13.5t-12 -6t-14 -1.5h-18.5l-1 -1.5l-1 -1.5q0 -9 6 -13t14 -4q9 0 14.5 2.5t9.5 5.5t7 7t5.5 7.5t5 6t6.5 2.5q1 0 2.5 -0.5t1.5 -2.5q0 -1 -1.5 -4t-4.5 -6.5t-5.5 -6t-3.5 -2.5v-4
l-1 -1.5t-3 -3t-3.5 -3l-2.5 -2.5q-5 -4 -10.5 -4.5t-11.5 -0.5q-12 0 -19 5t-11 13t-5.5 18t-1.5 19q0 5 5.5 7.5t12.5 4t12.5 3t5.5 4.5q0 4 -3.5 6t-8.5 3.5t-10 2t-7 1.5l-12 15v3.5v5.5v3v4v4v2l0.5 1.5t0.5 3.5t0.5 3.5l0.5 1.5l-0.5 1t-0.5 2t-0.5 2t-0.5 2v2z
M126 56v2q0 2 1 5.5t1 4.5q3 8 6.5 12t8 6.5t10 3t13.5 0.5q6 0 10 -0.5t8 -2t7 -4t7 -7.5v-5v-8v-8.5v-5.5l0.5 -2l1 -4t0.5 -3.5v-2.5q0 -11 -6.5 -18t-18.5 -7h-2.5t-3 0.5t-2.5 1.5t-1 2q0 3 3.5 4t8 2.5t8.5 4t4 5.5q0 1 -0.5 2t-1.5 2q-1 0 -4 -0.5t-6 -0.5t-6 1t-4 3
q1 3 5 4t7.5 1.5t6.5 2t3 6.5q0 1 -0.5 2l-1.5 3h-3.5t-5.5 0.5t-5 1.5t-2 4l0.5 1l0.5 1q1 1 4 1t5.5 0.5t4 2t1.5 4.5t-3 5t-8 3t-10 1h-7h-3q-1 0 -3 -0.5t-4.5 -1t-4.5 -1t-3 -0.5q-4 -3 -4 -7q0 -3 2 -3.5t4.5 -1t4.5 -1t2 -2.5q0 -1 -0.5 -3t-2.5 -2h-13l-0.5 -1.5
t-1 -4t-0.5 -3.5v-2v-2h4.5t7.5 -1t7.5 -2t3.5 -4v-1q-1 -1 -1.5 -2l-0.5 -1h-14l-0.5 -0.5l-1.5 -1.5q0 -1 -1 -2l-1 -1q0 -4 3.5 -6t7.5 -3t7 -2t3 -5q0 -3 -2.5 -3h-4.5q-8 0 -12.5 4.5t-7 11.5t-3.5 15t-1 13z" />
</svg>
