<?xml version="1.0" standalone="no"?>
<!DOCTYPE svg PUBLIC "-//W3C//DTD SVG 1.1//EN" "http://www.w3.org/Graphics/SVG/1.1/DTD/svg11.dtd" >
<svg xmlns="http://www.w3.org/2000/svg" xmlns:xlink="http://www.w3.org/1999/xlink" version="1.1" viewBox="-10 0 266 256">
   <path fill="currentColor"
d="M162 212q0 3 1.5 9.5t4.5 13t6.5 11.5t6.5 5q6 0 6 -6q0 -3 -1 -5t-2.5 -3.5t-3.5 -3t-3 -4.5q-2 -4 -3 -7t-1.5 -5.5t-1 -5.5t-0.5 -7v-5v-3q1 -1 2 -2.5t2.5 -3.5l3 -4l1.5 -2q6 -8 11 -16t8 -16q2 -5 1.5 -11.5t-0.5 -9.5v-12q0 -5 -1 -11t-4 -9.5t-6 -7.5t-5 -9
t-2 -12v-4q4 -1 8 -2.5t7 -4t5 -5.5t2 -8q0 -10 -3.5 -15.5t-13.5 -6.5q-5 -1 -9 -1t-7.5 -0.5t-6.5 -0.5h-7q-5 0 -10.5 0.5t-10 2t-8 4.5t-3.5 9q0 10 4.5 15t11.5 8t15 4t15 1l2 2q0 9 3.5 17t7.5 15t7.5 14t3.5 15q0 10 -2.5 17.5t-6.5 14t-9.5 13t-11.5 13.5q-1 2 -2 5
t-1 6.5v7v6.5zM77 186q0 6 1 13.5t2.5 15.5t4.5 15t6 12h1h1q3 0 5 -1t2 -4q0 -5 -1.5 -9t-3.5 -9q-3 -2 -5 -8t-3 -13.5t-1 -14.5v-10v-4.5v-3.5l15 -53v-1.5v-2.5q0 -7 -3 -10t-6 -5l-6 -4t-3 -6v-3v-1q0 -6 0.5 -10.5t1.5 -7t4.5 -3.5t9.5 -1h2t2 2v3.5v5t0.5 5t0.5 3.5
q1 4 6 4q2 0 2.5 -1t0.5 -4q0 -4 -1 -7l-2 -6q-1 -10 -1.5 -22.5t0.5 -21.5q-1 -2 -1.5 -2h-1.5q-3 0 -4 2t-1 4v23q0 2 -1.5 3t-3.5 1.5t-4 0.5h-3q-2 0 -3.5 -0.5t-1.5 -2.5v-31q0 -1 -2 -3.5t-3 -2.5t-3 1t-2 2t-0.5 3.5t-0.5 3.5q0 5 1 10t1 11v5.5t-3 4.5h-4t-5.5 0.5
t-5 2t-2.5 4.5v1q1 2 4 2.5t6 0.5h5.5h3.5l0.5 1t0.5 2q0 10 -1 16.5t-3 12.5t-5.5 12t-7.5 14v1v1q0 2 0.5 3t2.5 1q4 0 6.5 -4t5 -9l4.5 -9t5 -4q5 0 7.5 3.5t2.5 8.5q0 6 -1.5 11t-3.5 9.5t-4 9.5t-3 10q-2 8 -2.5 16.5t-0.5 17.5zM122 158q0 8 3 12.5t11 4.5q4 0 7.5 -1
t6 -3t4 -4.5t4.5 -5.5q1 -2 4.5 -5l7 -6t6.5 -6t3 -4q0 -2 -2 -2h-4q-7 0 -11 4.5t-7 9.5t-7 9t-10 4t-6 -5v-3.5t1 -3.5q1 -1 3.5 -4t5 -6.5t5 -6.5t3.5 -4q1 -2 1.5 -4.5t0.5 -5.5q0 -8 -3.5 -13t-12.5 -5v1.5v0.5q1 0 3 3t2 3.5t-0.5 2.5t-0.5 3h-6t-5 -0.5t-3.5 -2.5
t-1.5 -6q0 -3 1.5 -6t4.5 -4.5t6.5 -2.5t6.5 -1t7 0.5t8.5 2t7 4t2.5 6.5t-1.5 5.5t-4 2t-4.5 1t-2 2.5t2 4.5t4 2.5t5 -1t5.5 -2.5t4 -3.5t1.5 -4q0 -9 -1.5 -13.5t-4.5 -6.5t-8 -3t-12 -3q-4 0 -5.5 -3t-3 -6.5t-2.5 -6t-4 -2.5q-2 0 -2 3q0 2 0.5 4.5t0.5 4.5q0 6 -3 8.5
t-7.5 4.5t-7.5 4.5t-3 8.5q0 7 2 10t5 5t8 2.5t11 0.5l0.5 1l0.5 1v1q0 1 -3 4.5t-6.5 8t-7 8.5t-3.5 7zM154 37q0 -2 1.5 -4t3.5 -2q3 0 6 1t5 4q0 1 1 3.5t1.5 5l1 5t0.5 3.5v2q0 3 -1.5 3.5t-4.5 0.5t-5.5 -2.5t-4.5 -6.5t-3 -7.5t-1 -5.5zM135 41q0 -4 2.5 -7t6.5 -3
q1 0 2.5 3.5t3 7.5t2 8t0.5 5q-7 0 -12 -3t-5 -11zM177 37q0 -3 3 -3h3q3 0 6.5 0.5t4.5 2.5q0 1 0.5 3t0.5 3q0 3 -1 7t-6 4q-2 0 -2.5 -0.5t-1.5 -2.5q-1 0 -1.5 -2t-1.5 -4t-2 -4.5t-2 -3.5v0z" />
</svg>
