<?xml version="1.0" standalone="no"?>
<!DOCTYPE svg PUBLIC "-//W3C//DTD SVG 1.1//EN" "http://www.w3.org/Graphics/SVG/1.1/DTD/svg11.dtd" >
<svg xmlns="http://www.w3.org/2000/svg" xmlns:xlink="http://www.w3.org/1999/xlink" version="1.1" viewBox="-10 0 266 256">
   <path fill="currentColor"
d="M86 249l1 1t2 1q5 0 6 -1t1 -4v-3q0 -1 -1 -2v-1.5t-1 -2.5t-1.5 -2.5l-0.5 -1.5q-4 -14 -8 -29.5t-4 -30.5q0 -7 2 -13t5 -11.5t5 -11.5t2 -12q0 -7 -3.5 -13t-7.5 -10t-7.5 -7t-3.5 -5q0 -6 2.5 -13t2.5 -13q2 -2 4.5 -3.5t5.5 -1.5h2t2 2v8t0.5 11.5t1.5 10t4 4.5
t4.5 -1.5t1.5 -3.5q0 -8 -2 -16.5t-2 -16.5v-3v-3v-4v-2q3 -5 3.5 -11t0.5 -11q-2 0 -5.5 0.5t-3.5 3.5l-3 21l-1.5 0.5t-2.5 1.5l-3 0.5t-4 0.5h-1v0v0q-1 0 -2 -1.5l-1 -1.5v-31q0 -1 -2.5 -2.5t-3.5 -2.5h-0.5h-0.5q-3 0 -4.5 2.5t-1.5 4.5q0 8 2 15t2 14q0 6 -4 7.5
t-8.5 2.5t-8.5 2.5t-4 7.5q6 0 11.5 -1t11.5 -1q0 10 -2 19t-5.5 17t-8 16.5t-9.5 17.5v5q5 0 9 -2.5t6.5 -7t4 -9t3 -8.5t3 -6.5t4.5 -2.5q2 0 5 2.5t4.5 6.5l3 8t1.5 5q0 4 -1.5 8t-3.5 7.5l-4 7t-3 7.5q-2 5 -2 12v13q0 9 1.5 17.5t4 16.5l5 16t5.5 17zM135 165v8v16.5
t1.5 18.5t6.5 15.5t17 6.5q10 0 20 -2t17 -10q2 -10 2 -20v-19v-5v-7v-7v-5q0 -2 -2 -4.5t-4 -2.5v0.5t-1 0.5q-2 1 -2.5 3.5t-1 5.5t0 5.5t0.5 4.5q-2 3 -3 4t-4 1q-7 0 -9 -3.5t-2.5 -7.5t-1 -7.5t-4.5 -4.5l-2 0.5t-3 1.5v5q0 9 1 13.5t3.5 6.5t7.5 2.5t14 1.5q3 2 3 7
q0 2 -1 4t-4 2h-36l-2 -2v-1.5t-0.5 -4t-0.5 -5v-3.5v-5v-7v-6.5v-4.5q-1 -2 -2 -2h-2q-3 0 -4 1t-1.5 3t-0.5 4v4zM148 210q0 -3 0.5 -4t3.5 -2q4 -1 7.5 -1t6 -0.5t5.5 -0.5h7h6q3 1 3.5 3t0.5 4q0 3 -1 6t-5 3h-25q-3 0 -6 -3t-3 -5zM119 112q0 15 8 21.5t24 6.5h2h8.5
t10.5 -0.5t9 -0.5h5l3 -0.5t6 -1.5t5.5 -2t3.5 -3q1 -3 2 -5t1 -4t0.5 -4t0.5 -4q0 -10 -2 -15t-6 -7.5t-10.5 -3t-15.5 -1.5h-13h-11q-1 1 -4.5 1.5l-7 1t-6.5 1.5t-4 2q-5 2 -7 7.5t-2 10.5zM146 132v-11v-6v-8.5t1.5 -7.5t5.5 -3q1 0 3.5 0.5t2.5 3.5l-2 32q0 2 -2.5 2
h-2.5h-3t-3 -2zM165 117v-3l2 -16q0 -1 1 -1h2q2 0 3.5 0.5t1.5 2.5q1 0 1 2q0 1 -0.5 2.5t-0.5 3.5v2q1 5 4 10.5t3 10.5q0 1 -0.5 2t-1.5 1q-9 0 -12 -4.5t-3 -12.5zM128 116v-4.5t1 -5t2 -4.5t4 -2h2t1 1v25q0 1 -1.5 1.5l-1.5 0.5q-3 0 -4 -1.5t-2 -3.5t-1 -4v-3z
M184 101v-2t2 -1q3 0 5.5 1.5t4 4t2 5t0.5 5.5v4t-0.5 4.5t-2 3.5t-4.5 1q-2 0 -3.5 -3.5t-2.5 -8.5t-1 -9v-5zM109 90v5q5 0 10 -4.5t9.5 -11.5t9 -15.5t8.5 -15.5t7 -12t5 -5t6.5 4.5t9.5 11.5t10.5 14.5t10.5 14.5t9.5 11.5t6.5 4.5t4.5 -1t2.5 -3t-2.5 -5.5t-6 -8
t-8.5 -10t-9 -10t-8 -8.5t-5 -6q-1 -1 -2.5 -3t-3 -5t-3.5 -6t-3 -4l-1 -1.5l-1 -1.5q0 -1 -2.5 -2t-3.5 -2h-1q-3 0 -5 3t-4 7t-3.5 7.5t-2.5 5.5q-8 14 -16 27t-18 25zM146 63v1l1.5 1.5l0.5 0.5h4h4h4.5t6.5 -0.5t5.5 -1.5t2.5 -3q0 -3 -1.5 -3.5t-4.5 -0.5q-5 0 -9 0.5
t-10 1.5q0 1 -1.5 2t-2.5 2v0z" />
</svg>
