<?xml version="1.0" standalone="no"?>
<!DOCTYPE svg PUBLIC "-//W3C//DTD SVG 1.1//EN" "http://www.w3.org/Graphics/SVG/1.1/DTD/svg11.dtd" >
<svg xmlns="http://www.w3.org/2000/svg" xmlns:xlink="http://www.w3.org/1999/xlink" version="1.1" viewBox="-10 0 266 256">
   <path fill="currentColor"
d="M176 223l26 26q2 2 5 2t5 -3t2 -5q0 -3 -5 -6.5t-10.5 -7.5t-10 -7.5t-4.5 -6.5t1 -5.5t2.5 -5t3 -5.5t1.5 -6q0 -5 -5 -7.5t-12 -3t-13.5 0t-9.5 0.5h-5q-2 0 -4 0.5t-3.5 2.5t-1.5 5h38l2 2l3 3v0v0q0 4 -2.5 5.5t-5.5 1.5q-6 0 -11.5 -0.5t-11.5 -0.5h-11q-1 0 -1.5 1
t-0.5 2l1.5 1.5t2.5 1.5h3.5t6 0.5t6 0.5h4.5l1.5 0.5t2.5 1l2 1t1 1.5v1q-1 3 -7 4t-12.5 2t-12 2.5t-5.5 4.5v1q1 1 3 2t4 1h1q2 -1 6 -1.5t7.5 -1t6.5 -0.5h3q1 -1 3 -2l4 -2t4 -1.5t3 0.5zM113 246q0 1 1 2t2 1v0q3 0 5.5 -2t3.5 -2q1 -5 1.5 -8t0.5 -7q0 -3 -1 -5
t-1 -5v-2t2 -3v-10q0 -6 -2 -11t-2 -10q0 -4 1.5 -7t5.5 -4q5 0 10 -0.5t9.5 -0.5t9.5 -0.5t10 -0.5h1l2.5 0.5t5 0.5t5 0.5t3.5 0.5v0h1q1 -1 2.5 -1t3 -0.5t2.5 -1.5t1 -2q0 -4 -1.5 -5t-4.5 -1q-5 0 -9.5 0.5t-9.5 0.5q-2 0 -4.5 -0.5t-2.5 -2.5t1 -3.5t3 -2.5h3.5
t5.5 -0.5t5.5 -0.5h3.5q0 -1 1 -2l1 -1l0.5 -0.5l0.5 -0.5q0 -2 -3.5 -2.5t-7.5 0t-7.5 0.5t-3.5 -3t3 -5q2 0 7 -0.5t9.5 -2t8 -4t3.5 -7.5q0 -1 -1 -3t-2 -3q-1 0 -3 -0.5t-3.5 -0.5h-3.5h-3q-1 -1 -3 -1h-4t-3.5 -1t-1.5 -3q0 -3 4 -5t8.5 -3t8.5 -3t4 -5v-1v-1
q-5 -1 -9 -2.5l-8 -3l-8 -3t-8 -1.5q-3 0 -7 2t-8.5 5t-9 5.5t-6.5 3.5v4q1 1 3 1.5t3.5 1.5l3 2t1.5 3q0 1 -2.5 3t-5.5 4t-6.5 4.5t-4.5 3.5q-3 4 -4.5 9t-2 10t-0.5 10.5v10.5q0 7 0.5 14.5t0.5 14.5q0 11 -1 21.5t-2 21.5l-0.5 3zM66 179v4v7v7.5v4.5t0.5 4t1 6.5t1 6.5
t0.5 4q1 2 0.5 5t0 5.5t1.5 4.5t5 2q2 0 4 -0.5t3 -2.5v-3v-2v-6v-7.5t-0.5 -6.5t-2.5 -6v-4v-7v-6v-5v-10.5v-11t0.5 -11t2.5 -10.5q2 -4 4 -8.5t4 -9.5t3.5 -9.5t1.5 -8.5q0 -8 -5 -14t-11 -12v0v-1v0q0 -1 0.5 -3t1 -4.5l1 -5t0.5 -3.5l0.5 -0.5t1.5 -0.5q1 -1 3.5 -2
l2.5 -1h1t2.5 0.5t2.5 1t2 1.5q-1 5 -0.5 9t1.5 9l1 2.5t2 2.5t2 -0.5t1 -1.5q0 -9 1 -18t1 -18v-5.5v-5.5q0 -4 -2.5 -6t-5.5 -2t-4 1.5t-1 4.5q0 2 1 4.5t1 5.5q0 2 -1.5 5.5t-5.5 3.5h-1q-3 -3 -4 -7t-2 -9v-2t-0.5 -4.5t-0.5 -4.5v-2q-2 -2 -3 -3.5t-1.5 -3t-1.5 -2.5
t-4 -1q-4 0 -7 2t-3 6t1.5 7t3.5 6t3.5 6t1.5 6q0 4 -1.5 6t-4.5 2.5t-6 0.5h-6q-2 0 -2 2v2v3t2 2h17q0 8 -2.5 17.5t-6.5 16.5l-6 6l-5.5 5.5t-4.5 6t-2 7.5v4q0 3 3 3t7 -5.5t7.5 -12t7 -12t7.5 -5.5q3 0 5 2t2 6v1.5v0.5q0 1 -0.5 3.5t-1 5.5t-0.5 5t-1 3q-3 3 -6 9.5
t-4.5 13.5t-2.5 14t-2 12v1v1v3t1 3zM149 154q4 0 5.5 0.5t1.5 4.5q0 3 -0.5 4.5t-1.5 1.5h-3.5h-5.5h-2t-4.5 0.5t-4.5 0.5h-3q0 1 -2 1h-2v-8l3 -1t6.5 -2t7.5 -1.5t5 -0.5zM128 147q0 -2 3 -3.5t7 -2l8 -1t6 -0.5q3 0 4.5 0.5t1.5 3.5v2.5t-2 1.5q-1 0 -4.5 0.5t-6.5 0.5
t-6.5 0.5t-4.5 0.5v0q-2 0 -4 -0.5t-2 -2.5zM154 116q2 0 3.5 3t1.5 6q0 2 -0.5 3.5t-2.5 4.5q-7 -1 -12 0t-11 1q0 -2 2.5 -5t6 -6t7 -5t5.5 -2zM170 128q0 -2 2 -3t4 -1t4.5 2t2.5 3q0 2 -3 2h-5h-3t-2 -3zM155 95h1q1 0 3 0.5l2 0.5v1q0 6 -3.5 8.5t-9.5 2.5
q0 -1 0.5 -3.5t1 -4.5t2 -3.5t3.5 -1.5zM172 101h1l-1 1v-1zM122 58v10t1.5 8.5t5 6.5t10.5 3q3 0 6 -1t6 -2.5t5.5 -3.5t2.5 -6v-17q0 -5 0.5 -11.5t-1.5 -12.5l-1 -0.5t-1 -1.5q-3 -1 -6 -1.5t-5 -1t-4.5 -0.5h-5.5h-3.5h-3.5q-1 1 -2 2.5t-1 2.5v17q-1 1 -2 4t-1 5z
M170 44q0 8 -0.5 14.5t1 11.5t6 8t13.5 3h4h4q4 -3 6.5 -8.5t2.5 -10.5v-1l-0.5 -2t-0.5 -3v-27q0 -1 -3 -1.5t-7 -1t-7 -0.5h-4q-5 0 -8 1t-4.5 3.5t-2 6t-0.5 7.5zM131 70q0 -5 4 -5.5t9 -0.5q2 0 4 1t2 4q-1 2 -3 5.5t-5 3.5q-4 0 -7.5 -1.5t-3.5 -6.5zM178 70q2 -3 4 -4
t6 -1q2 0 4.5 0.5t2.5 3.5t-1 4.5t-4 1.5q-2 0 -6.5 -1t-5.5 -4zM133 49h4h2h4t3.5 0.5l1.5 0.5v6l-1 0.5t-3 0.5t-3.5 0.5t-3.5 0.5h-2h-2v-9zM179 54v-1l2 -3h14q1 0 1 1.5v1.5q0 2 -0.5 3.5t-2.5 1.5h-11l-1 -1.5t-2 -1.5v-1zM136 43v-2v-1q0 -4 1 -4.5t5 -0.5t5.5 2.5
t1.5 6.5q-6 0 -13 -1zM176 41q3 -4 5.5 -4.5t6.5 -0.5h2.5h2.5q1 0 2 1.5t1 2.5q1 2 -0.5 2.5t-4 1t-5.5 0.5h-3h-4.5t-2.5 -3z" />
</svg>
