<?xml version="1.0" standalone="no"?>
<!DOCTYPE svg PUBLIC "-//W3C//DTD SVG 1.1//EN" "http://www.w3.org/Graphics/SVG/1.1/DTD/svg11.dtd" >
<svg xmlns="http://www.w3.org/2000/svg" xmlns:xlink="http://www.w3.org/1999/xlink" version="1.1" viewBox="-10 0 266 256">
   <path fill="currentColor"
d="M158 238v3t1 4t2.5 4t3.5 2l1 -0.5t2 -1.5v-13q0 -22 -1 -44t-1 -44v-9v-14.5v-13.5v-10q1 -6 4 -11t7 -8.5t9 -6t9 -6.5t7 -8.5t3 -11.5q0 -8 -3 -12.5t-8 -7t-11.5 -3.5t-13.5 -3q-1 -1 -3 -2.5l-4 -3t-3.5 -3t-2.5 -1.5h-0.5h-0.5q-2 0 -2.5 1t-0.5 4l0.5 1.5l0.5 1.5
l2 2l2.5 2.5l3 3l2.5 2.5v0v1l-1.5 2t-3.5 4.5t-4 4t-2 2.5q-3 1 -6.5 3l-7 4t-6 4.5t-2.5 6.5h9l3 -2.5t6.5 -5.5t7.5 -6t7 -6q4 -3 7 -7t8 -4q3 0 6.5 2t6.5 4.5t4.5 5.5t1.5 6q0 6 -3.5 10t-8.5 6.5t-10.5 5t-8.5 7.5t-5 10.5t-2.5 12t-0.5 13.5v11q0 15 1 29t1 29v9v11
v10v5l-0.5 3t-1 6.5t-0.5 6v3.5zM187 149q1 2 1.5 8.5t1 15.5t1 18.5t2 17t3.5 13t5 5.5v-1q1 0 2.5 -1t1.5 -2v0v-1q-5 -16 -7 -32.5t-3 -33.5v-13t-0.5 -19.5t-0.5 -19.5v-13q-2 0 -4.5 1.5t-2.5 4.5v52zM137 98h-2t-1 2l-5 71q0 6 -2 12t-3.5 12.5t-3 12.5t-1.5 13
q5 0 7 -2.5t3 -7.5q0 -1 1 -6t1.5 -10.5t1 -10t1.5 -6.5q1 -5 1.5 -10.5t1.5 -11.5q0 -3 0.5 -9t1 -12.5t1 -12t0.5 -6.5v-8v-8q0 -2 -1 -2h-2zM53 169q0 1 1 2.5t2 2.5h6q12 0 24.5 -1t23.5 -2l4 -2l4 -2q-4 -5 -9 -5h-11q-2 -1 -2.5 -3.5t-0.5 -5.5v-5q0 -2 0.5 -7.5
t1 -12t1 -12t0.5 -7.5q1 -2 4 -2.5t6 -0.5t5.5 -0.5t2.5 -3.5t-2.5 -3.5t-6.5 -0.5q-3 0 -6 -0.5t-3 -3.5v-21t3 -21q1 0 4 -0.5l6 -1t5.5 -2t2.5 -3.5t-1.5 -3.5t-3.5 -1.5h-1q-3 1 -10 1.5t-15 1t-15 1.5t-10 1q-2 0 -2 1v2q0 3 2 3.5t4 0.5q5 0 9 -1t8 -1h3.5t2.5 2
q1 6 1 10.5t0.5 8.5t0.5 8v9v9l-2 1q0 1 -1.5 1.5l-1.5 0.5h-23q-1 0 -3 2.5t-2 3.5q0 3 2 3h4q5 0 10 -0.5t10 -0.5h2q2 0 2 1v56h-34q-1 0 -1.5 1.5t-0.5 2.5z" />
</svg>
