<?xml version="1.0" standalone="no"?>
<!DOCTYPE svg PUBLIC "-//W3C//DTD SVG 1.1//EN" "http://www.w3.org/Graphics/SVG/1.1/DTD/svg11.dtd" >
<svg xmlns="http://www.w3.org/2000/svg" xmlns:xlink="http://www.w3.org/1999/xlink" version="1.1" viewBox="-10 0 266 256">
   <path fill="currentColor"
d="M178 153q0 18 -1.5 33.5t-7.5 32.5q-1 4 -2.5 7.5t-3.5 7t-3 7.5t-1 7q5 0 9 -6.5t7 -17t5 -22.5t3.5 -22.5t2 -17.5t1.5 -7h19q2 0 2 2v3v3q-1 2 -1 6.5t-1 9t-1 9t-1 6.5q-1 3 -3.5 7t-4.5 7.5t-3.5 7.5t-1.5 8q6 0 9.5 -5.5t6.5 -13t5 -17t3 -18.5t1 -16v-10v-6
l-0.5 -1l-0.5 -1h-0.5h-0.5q-2 0 -3 1.5t-1.5 3.5l-1 4t-2.5 3h-5q-2 0 -4.5 -0.5t-4.5 -2t-2 -4.5q0 -2 0.5 -5.5t1.5 -4.5l19 -19v-4q-6 0 -10 3t-7 7t-5 9t-3.5 9t-3.5 7t-4 3h-5t-5.5 -0.5l-2.5 -0.5v-14l-1 -0.5t-2 -1.5v0v0h-1l-1.5 1.5l-0.5 0.5v13l-2 2
q1 17 -1.5 31.5t-8.5 29.5q0 1 0.5 1.5l0.5 0.5h2q3 0 5 -4t3.5 -10t2 -13.5t1 -14t1 -10.5t1.5 -4h14zM110 151v25t-5 24q-1 4 -4.5 10t-7 11.5t-6 11t-2.5 9.5q5 0 9.5 -4t7.5 -10.5t5.5 -15t4.5 -16.5t2.5 -15t1.5 -11q0 -4 -0.5 -6.5t-0.5 -4.5t0.5 -4.5t1.5 -4.5
l1.5 -1.5l0.5 -0.5h12q1 0 1.5 0.5t0.5 1t0.5 3t1.5 3.5v1q0 5 -0.5 11t-2 12.5t-3.5 12t-5 9.5l1.5 1.5l0.5 0.5h1h1l4 -4l3 -3l8 -54q0 -1 0.5 -1.5t0.5 -1.5q0 -2 -2 -5.5t-5 -3.5q-1 0 -1.5 1t-0.5 3v3.5v2.5h-3.5h-5.5t-5 -1t-2 -3q0 -4 1.5 -7t3.5 -6l4 -6t2 -7
q-7 0 -10 4.5t-4.5 10.5t-3 10.5t-4.5 4.5t-4 -1.5t-1.5 -4t-1.5 -4.5t-3 -3q-3 1 -3 5q0 3 1 5t1 4v2q0 1 -1 3t-1.5 4.5l-1 5t-0.5 3.5t-1 3t-2 4.5t-2 4t-2 1.5l-16 -1v-3.5t-0.5 -8.5t-0.5 -10.5v-8.5v-2v-1v-3.5t0.5 -4.5t0.5 -3.5v-2.5q1 -1 1.5 -2.5l0.5 -1.5h15v-2
q0 -1 -1 -3l-0.5 -1t-1.5 -1h-15v-3v-5.5v-6.5v-5t0.5 -8.5t0.5 -8v-5.5q2 -2 5 -3.5t6 -1.5h6.5h5.5q1 0 2 -1l2 -2q0 -1 -1 -2.5l-1 -1.5h-49l-1.5 1.5t-1.5 2.5q-1 1 0 3.5t2 2.5h17v43q0 2 -2.5 2h-6.5q-3 0 -6 0.5t-4 2.5q-1 1 -1 2v1h16q1 0 1.5 1.5t0.5 2.5t0.5 3
t0.5 4t0.5 4t0.5 3v2v4.5v5.5v4v3v4.5v5.5v3q-1 0 -2 1t-2 1h-2.5t-5 0.5t-4.5 0.5h-3q-2 1 -2 1.5v2.5v2t2 1h41q0 4 -1.5 7.5t-3 6.5l-2.5 5t-1 3t1 2l2 2h1q3 0 5.5 -4.5t4.5 -11t3.5 -14t3.5 -14t4 -10.5t5 -4q2 0 3 0.5t1 2.5zM138 114v2t2 1q5 0 9 -6.5t7 -15t4.5 -17
t1.5 -12.5v-1v-2v-2v-2q1 -1 2.5 -1h2.5q3 0 6 0.5t6.5 2t5.5 3.5t2 4q0 6 -2.5 11t-5.5 10.5t-5.5 11t-2.5 11.5q4 0 7.5 -5.5t6 -12t4 -13.5t3.5 -10l1.5 -2t3 -4.5t2.5 -4.5t2 -2q1 -2 1 -3v-2t-0.5 -2.5t-1.5 -1.5h-0.5h-0.5q-2 1 -3.5 2.5t-3.5 3t-3.5 2.5t-3.5 1
l-1.5 -0.5t-3 -1.5t-2.5 -1.5t-2 -0.5t-5 -1.5t-5 -1.5v-3q0 -6 6 -11t13.5 -9t13.5 -6.5t6 -5.5q0 -2 -1 -3t-3 -1h-2q-9 4 -16.5 8.5t-15.5 9.5l-2.5 5t-2.5 6.5t-2 6.5t-3 3l-15 2q0 -1 -0.5 -4.5t-1.5 -4.5l-2 -0.5t-3 -0.5l-1.5 0.5t-2.5 0.5q0 9 -3.5 19.5t-8.5 18.5
l-2.5 2.5t-3 3.5t-2.5 4t-1 3q0 2 1 2.5t3 0.5q5 0 8 -4.5t5.5 -11t4.5 -12.5t4 -9q4 -3 9 -3h10q0 9 -0.5 17.5t-4.5 16.5q-1 2 -3 5l-4 6t-3.5 5.5t-1.5 5.5z" />
</svg>
