<?xml version="1.0" standalone="no"?>
<!DOCTYPE svg PUBLIC "-//W3C//DTD SVG 1.1//EN" "http://www.w3.org/Graphics/SVG/1.1/DTD/svg11.dtd" >
<svg xmlns="http://www.w3.org/2000/svg" xmlns:xlink="http://www.w3.org/1999/xlink" version="1.1" viewBox="-10 0 266 256">
   <path fill="currentColor"
d="M176 90q0 31 3 61.5t9 60.5q1 6 1 14t2 13q1 3 3.5 7t5.5 5q2 0 1.5 -2.5l-0.5 -2.5q0 -4 -0.5 -8.5t-1.5 -9t-2 -8.5l-2 -8q-5 -30 -8.5 -60.5t-3.5 -61.5q0 -12 0.5 -24.5t2.5 -23.5q1 -6 3 -11t2 -11v-6q0 -1 -1.5 -1.5l-1.5 -0.5q-1 1 -3 2t-2 2q-3 11 -3 22t-1 23
l-0.5 2.5t-1 5.5t-1 5.5t-0.5 3.5v1.5v3.5v4v3zM107 241q0 4 4 4q3 0 5.5 -3.5t4 -9.5t2.5 -13t1.5 -13.5t0.5 -12.5t1 -9q0 -1 1 -5.5t2.5 -9.5t2.5 -9.5t1 -6.5q3 -16 5 -34.5t3 -35.5v-7q1 -1 3 -2t3 -1v0q4 0 6 1t3 2.5t1 4.5v5q0 8 -1.5 15.5t-2.5 15.5v34v10.5v13
t0.5 13t1.5 12.5q0 1 1 3.5t1.5 6t1.5 6t1 3.5q1 2 0.5 6t0 8t2 7t4.5 3t3.5 -1.5t0.5 -3.5q0 -3 -1.5 -9t-3 -12.5t-2.5 -12t-2 -6.5q0 -3 -0.5 -10t-1.5 -15.5t-1 -15.5t-1 -10v-14q0 -9 0.5 -20t1.5 -20q1 -3 1.5 -5t1.5 -4.5l2 -5t1 -4.5q0 -4 -2.5 -6t-6 -2.5t-7.5 -1
t-5 -0.5v-52l-0.5 -0.5t-1.5 -0.5h-1q-3 0 -4.5 1.5t-1.5 4.5q0 10 1 20.5t1 20.5q0 20 -3 39l-6 38q-2 2 -2.5 6l-1 8t-0.5 8t-1 7q-2 16 -5 32t-7 32q-1 3 -3 6.5t-2 6.5zM43 168q0 3 1.5 4t4.5 1q2 0 4 -0.5t4 -2.5h48q0 -5 -2 -6.5t-5 -2t-6 0t-6 0.5t-5 -0.5t-2 -3.5
q0 -12 1.5 -23.5t0.5 -24.5q2 -3 5 -4.5t6 -2t5.5 -1t2.5 -2.5q-1 -2 -3.5 -3t-5 -1.5t-5 -0.5h-3.5v-10v-10.5v-8.5t0.5 -9t1.5 -12q1 -3 4.5 -3.5t7.5 -1t7 -1.5t3 -4h-57l-0.5 0.5l-0.5 0.5q-1 1 -1 3.5v3.5h28v48q0 2 -1 3.5t-2 2.5q-1 0 -2 1t-2 1h-22l-1.5 1t-1.5 2v0
q0 2 2 3.5t3 1.5h1q1 0 3.5 -0.5t5.5 -0.5t5.5 -0.5t3.5 -0.5h2q4 0 4.5 1.5t0.5 4.5q0 1 -0.5 3.5l-0.5 2.5v9t-0.5 13.5t-0.5 13.5v9h-6.5t-7.5 0.5t-8 1.5t-7 1q0 1 -0.5 2zM197 99v1v4t0.5 5.5t0.5 4v2.5q1 2 1.5 9t1.5 14.5t2.5 13.5t3.5 7q0 1 2.5 1.5t3.5 0.5
q0 -5 -1 -8t-2 -5.5t-2 -5.5t-1 -7q-2 -8 -3 -17t-1 -17q0 -14 2 -27t2 -27v-4t-3 -2q-2 0 -3.5 7t-2 16.5t-1 19.5t-0.5 14zM111 126q-2 6 -4 11.5t-2 11.5q4 0 6.5 -4.5t4 -11.5t2.5 -16t1.5 -17t1 -14.5t0.5 -9.5q0 -1 0.5 -4.5l1 -7t1 -6.5t0.5 -4q1 -3 0 -4.5t-3 -1.5
h-1.5h-0.5q-2 3 -3 6t-1 6q0 4 0.5 7t0.5 6q-1 3 -1.5 10.5t-1.5 16t-1.5 16t-0.5 10.5z" />
</svg>
