<?xml version="1.0" standalone="no"?>
<!DOCTYPE svg PUBLIC "-//W3C//DTD SVG 1.1//EN" "http://www.w3.org/Graphics/SVG/1.1/DTD/svg11.dtd" >
<svg xmlns="http://www.w3.org/2000/svg" xmlns:xlink="http://www.w3.org/1999/xlink" version="1.1" viewBox="-10 0 266 256">
   <path fill="currentColor"
d="M133 238q3 0 11 0.5t16.5 1.5t16 2t10.5 1q6 1 10.5 2.5t10.5 1.5h3.5h3.5q1 -1 1.5 -2t0.5 -2v-1v-1l-2 -2l-1 -1l-46 -5v-31l2 -2h4t6.5 -0.5t6 -1t4.5 -0.5q3 0 5 -1.5t4 -3.5q0 -7 0.5 -12t0.5 -9v-9v-10v-9l-0.5 -1l-0.5 -1h-1h-1q-1 0 -2.5 1l-1.5 1v39q0 3 -2.5 5
t-5.5 2.5t-6 0.5h-4h-3.5h-2.5l-2 -6v-47q0 -1 5 -2.5t11.5 -5.5t11.5 -10t5 -16q0 -2 -1.5 -5t-3.5 -6t-4.5 -5t-4.5 -2h-40q-2 0 -4.5 2.5t-4.5 6t-3.5 7t-1.5 6.5q0 8 4 12.5t9 7.5t9 5.5t4 6.5v81v1.5t-0.5 3.5l-1 4t-2.5 2q-8 0 -12.5 -3t-7 -8t-3 -11.5t-0.5 -14.5
t1 -15.5t1 -15.5v-4q0 -2 -0.5 -4.5t-0.5 -4.5v-3q0 -2 -1.5 -2h-2.5h-2t-2 2v58q1 2 1.5 6t1 7.5t0.5 6.5v6zM34 193q0 2 1 3t3 2h10h7h11t12.5 -0.5t12 -1t9 -2t3.5 -3.5t-2 -3t-4 -1t-4.5 1t-4.5 1h-4h-4t-3.5 -1t-2.5 -3v-4.5v-4.5v-5.5v-4.5q0 -4 0.5 -10l1 -12
t0.5 -10.5v-4.5l3 -4h18q2 0 2 -2v-3v-2.5t-2 -1.5h-18q-3 0 -3 -3v-5v-5q0 -2 0.5 -8t0.5 -12.5t0.5 -12.5t0.5 -8q1 -4 3.5 -5.5t5 -2.5t6 -1t6.5 -1v-1v-1q0 -3 -2 -5t-5 -2q-1 0 -3 0.5t-4.5 1.5t-4.5 1.5l-2 0.5q-2 0 -7 0.5t-10.5 0.5t-10.5 0.5t-7 0.5l-1.5 1.5
t-0.5 1.5t0.5 3t1.5 2h25v55l-4 4l-24 4l-1 0.5t-1 1.5v0v2l1 1.5l1 1.5h4h9.5t10.5 -1l2 1q-1 8 0.5 14.5t1.5 13.5q0 3 -0.5 8.5l-1 11t-1.5 10t-3 4.5h-26q-1 0 -1.5 1.5t-0.5 2.5zM142 108q0 -6 3 -9t8 -4.5t10 -2t10 -0.5q7 0 12.5 3.5t5.5 12.5q0 3 -2.5 7t-6 7.5
t-7 6t-6.5 2.5q-4 0 -9 -1.5t-9 -5t-6.5 -7.5t-2.5 -9zM165 11q-4 0 -4.5 3.5t-0.5 8.5v9t-2 8q-3 4 -8.5 7t-11 5.5t-11.5 5t-11 5t-8 6t-3 8.5q3 0 5 -0.5t4 -1.5q13 -7 24.5 -13.5t24.5 -12.5q0 -1 2 -1.5t3 -0.5h1q5 0 11.5 3t12.5 7t12 7.5t10 4.5q2 1 4.5 -1t2.5 -4
q0 -3 -3 -5.5t-8 -5t-11 -5t-11.5 -4.5t-10 -3.5t-6.5 -3.5q-1 0 -1.5 -1.5l-0.5 -1.5q0 -1 -0.5 -4t-0.5 -6.5t-0.5 -6.5t-0.5 -4t-1 -1.5t-2 -0.5z" />
</svg>
