<?xml version="1.0" standalone="no"?>
<!DOCTYPE svg PUBLIC "-//W3C//DTD SVG 1.1//EN" "http://www.w3.org/Graphics/SVG/1.1/DTD/svg11.dtd" >
<svg xmlns="http://www.w3.org/2000/svg" xmlns:xlink="http://www.w3.org/1999/xlink" version="1.1" viewBox="-10 0 266 256">
   <path fill="currentColor"
d="M105 239v4v4l1 1l1 1h120q2 0 2 -1.5v-3.5v-3t-2 -2h-45l-5 -4v-55l43 -5l0.5 -0.5l1.5 -1.5v-1v-1q-1 -1 -1.5 -3l-0.5 -2h-43v-37q0 -2 3 -2.5t8 -1t11 -2.5t11 -6.5t8.5 -13.5t3.5 -25v-16.5t-1 -16.5t-4.5 -13.5t-11.5 -7.5q-13 -1 -25.5 -2t-25.5 -1q-10 0 -15.5 5
t-8.5 12.5t-3.5 17t-0.5 18.5v3.5v6.5v5v4q1 3 2 7t2.5 8t3.5 7.5t5 4.5q2 2 7 2.5t9.5 1.5t8 3.5t3.5 6.5v2.5v2.5q0 3 -0.5 8t-0.5 9.5t-0.5 7.5l-0.5 3h-44q-1 0 -1.5 1.5t-0.5 2.5v1q0 2 2 4t3 2h40q1 0 2 2.5t1 6v5.5v3v3v4v4v1v9.5t-0.5 10.5t-0.5 8.5t-1 3.5h-60z
M28 203q0 11 8 11h4h11.5t17.5 -0.5t17.5 -1t11.5 -0.5t3.5 -1t0.5 -3q0 -1 -0.5 -3.5t-1.5 -2.5h-29l-0.5 -1.5t-0.5 -3v-2.5v-2v-3.5v-2.5v-16t0.5 -19t0.5 -15v-6h23q1 0 1.5 -2.5t0.5 -3.5q0 -3 -0.5 -3.5t-3.5 -1.5q-1 0 -4 -0.5l-6 -1t-6.5 -0.5h-4.5q-1 -2 -1 -3v-4
v-23t1 -23q1 -1 1.5 -2l0.5 -1h27q0 -5 -3.5 -8t-7.5 -3h-2q-3 1 -11 1t-16.5 0.5t-16.5 0.5h-11q-2 1 -2 3v3q0 4 1.5 5t4.5 1q5 0 9.5 -1t9.5 -1q3 0 5 4t2 7v45h-28l-1.5 2t-2.5 4v1v0.5v0.5q1 1 2.5 3l1.5 2h26v71h-32zM136 81h5q2 0 5.5 0.5t7.5 1t8 0.5h5v33l-2 1
t-3 1t-3 -1t-3 -1q-6 -4 -10 -6.5t-6.5 -6t-3 -9t-0.5 -13.5zM177 111v-28q0 -1 3 -2t7 -1.5t8 -0.5h6q4 0 6.5 3t2.5 8q1 6 -1.5 10.5t-7 7.5t-9 4.5t-7.5 1.5h-3.5h-3.5zM137 57q0 -12 5 -18t15 -6q3 0 5 0.5t5 3.5q0 2 0.5 5.5t0.5 7.5t0.5 7.5t0.5 5.5v1v1q0 2 -1 4.5
l-1 2.5h-28l-1 -2t-1 -3v-1v-3v-3v-3zM183 31q7 0 12 1t8 4t5 8.5t4 13.5v1v1q0 5 -2 7t-5 2.5t-6.5 0.5h-5.5h-5.5h-5.5l-1.5 -1t-2.5 -2t-1 -2v-25q0 -2 0.5 -3.5t1.5 -2.5l2 -2t2 -1z" />
</svg>
