<?xml version="1.0" standalone="no"?>
<!DOCTYPE svg PUBLIC "-//W3C//DTD SVG 1.1//EN" "http://www.w3.org/Graphics/SVG/1.1/DTD/svg11.dtd" >
<svg xmlns="http://www.w3.org/2000/svg" xmlns:xlink="http://www.w3.org/1999/xlink" version="1.1" viewBox="-10 0 266 256">
   <path fill="currentColor"
d="M178 179l3 70q0 1 2 1.5t3 0.5t3 -2l3 -3q-3 -8 -4.5 -17.5t-2 -19t0 -19.5t0.5 -18v-6v-5l1 -2h26q2 0 2 -2v-2q0 -3 -3 -5h-7h-9.5h-9.5h-7h-18h-16t-16.5 0.5t-18.5 1.5v5h30q0 22 -2 42.5t-7 41.5v3q0 2 0.5 3t3.5 1q4 0 5 -2t2 -7q2 -13 3.5 -26.5t2.5 -26.5v-7
q0 -2 0.5 -5l1 -6t0.5 -5v-2l4 -3h21l0.5 3t1 7t1 7.5zM38 168q0 2 2 3.5t5 1.5h1q3 -1 11 -1t16.5 -0.5t16 -1t10.5 -0.5q1 0 2 -1t1.5 -2.5t0.5 -3v-2.5h-28v-3.5v-5.5v-5v-4v-10.5t0.5 -12.5t0.5 -10.5v-4.5l21 -4q1 0 1.5 -0.5l0.5 -0.5v-1v-1q-5 -2 -11 -1.5t-12 0.5
v-43q0 -2 3 -2.5t6.5 -1t6.5 -1.5t4 -3q-1 -3 -3 -3h-4h-5h-7.5t-12 0.5t-12.5 0.5h-8l-2 2l-2 2v0v1q1 2 2 2h8t7 1t5.5 3t2.5 7v3.5v5.5v6v5v3v4v3.5v2.5l-2 2h-22q0 2 1 5t3 3h20q0 14 -0.5 29t-0.5 30h-25q-1 0 -1.5 1.5t-0.5 2.5zM102 143v6q3 0 6 -4t4.5 -9.5t2.5 -11
t1 -8.5l2 -2h13q2 0 2.5 2.5t0.5 3.5q0 5 -1.5 9t-1.5 9v1l0.5 0.5l0.5 0.5h1v0q4 0 5.5 -3t2 -7t1 -7.5t2.5 -3.5h13v21q0 2 2 2h2q2 0 2.5 -0.5t1.5 -4.5v-3.5v-4.5v-5v-3q1 -3 5 -3.5t7 -0.5q1 0 2 1t1.5 2t0.5 3v3l0.5 2.5t0.5 4.5t0.5 4t0.5 3t1 1.5t2 0.5t3 -1.5
t1 -3.5l-3 -19q0 -2 1.5 -3t3.5 -1.5t3.5 -1t2.5 -0.5h1t2.5 0.5t2.5 1l1 0.5l3 26q1 3 3 3.5t4 0.5t3.5 -0.5t1.5 -3.5q0 -5 -1.5 -9.5t-3 -9.5t-2.5 -10.5t-1 -12.5q0 -4 -0.5 -13.5t-0.5 -19.5q0 -11 0.5 -20.5t0.5 -12.5q-2 -3 -2.5 -3.5t-2.5 -0.5t-3 0.5t-2 3.5v14
t-2 15h-2h-2h-3h-3l-1.5 -1l-1.5 -1v-26q0 -1 -1 -3t-3 -2q-3 0 -3.5 4.5t-0.5 10.5q0 5 -1.5 9.5t-7.5 4.5q-4 0 -5.5 -2t-2 -5.5t0 -7.5t0.5 -7q0 -5 1 -9.5t1 -8.5q0 -2 -1 -4.5t-3 -2.5h-1l-2 2t-1 2v12q0 7 0.5 13.5t0.5 13.5v2t-1 2h-13l-2 -1q1 -5 0.5 -11.5
t-1.5 -11.5h-2h-1h-2.5t-1.5 2v24q0 1 -1 1.5l-2 1t-2.5 1t-2.5 0.5h-1t-1 -1l-3 -26l-2 -3h-1h-2h-3h-2l-0.5 0.5t-0.5 1.5q0 7 2.5 14.5t2.5 15.5q0 4 -1 9t-1.5 10l-1 10t-0.5 9zM150 65q2 0 3.5 0.5t3.5 1.5q0 2 -0.5 6.5t-0.5 9.5q0 4 0.5 8.5t0.5 6.5v1.5t0.5 3
t0.5 2.5v1v0.5v1.5q0 3 -2 3h-4h-5q-1 0 -2 -0.5t-1 -1.5v-39q0 -3 2 -4t4 -1zM170 65h2t4 0.5t2 1.5v41q0 1 -1 2t-2.5 1h-2.5h-2h-4t-3 -3v-39q0 -3 3 -3.5t4 -0.5zM131 70h3t2 2v31q0 3 -2.5 3h-4.5h-1.5t-3 -0.5t-2.5 -1t-1 -1.5v-24q0 -4 4 -6.5t6 -2.5zM186 83v-2v-4
v-4v-3q0 -2 2 -1.5t3 0.5h2.5h3t2.5 1t1 2v28q0 1 -1 2t-2.5 1.5t-3.5 1t-3 0.5h-3q-1 -5 -1 -11v-11z" />
</svg>
