<?xml version="1.0" standalone="no"?>
<!DOCTYPE svg PUBLIC "-//W3C//DTD SVG 1.1//EN" "http://www.w3.org/Graphics/SVG/1.1/DTD/svg11.dtd" >
<svg xmlns="http://www.w3.org/2000/svg" xmlns:xlink="http://www.w3.org/1999/xlink" version="1.1" viewBox="-10 0 266 256">
   <path fill="currentColor"
d="M145 243q0 3 1 5.5t4 2.5q1 0 4 -1.5t3 -3.5v-43l4 -3l21 -4l1 -0.5t2 -2l2 -3t1 -2.5v-42q0 -2 -1.5 -2h-2.5q-3 0 -4 1.5t-1 3.5t-0.5 5t-2 5t-5 3.5t-9.5 1.5h-3h-2l-1 -3v-8q0 -10 1.5 -14.5t4 -6t6 -1t7.5 0.5q3 0 6.5 -2t6.5 -8q1 -2 2 -6.5t1 -9.5v-10v-7
q0 -3 -1.5 -5.5t-4.5 -2.5q-2 0 -2.5 2.5t-1 4.5t-1.5 4.5t-3 2.5h-18q-1 0 -1.5 -2l-0.5 -2q0 -7 2.5 -11t5.5 -6t7 -3t7.5 -2t5.5 -3t2 -7q-8 0 -14.5 1t-11.5 3.5t-8 8t-3 15.5q0 2 -0.5 9.5t-1 16.5t-0.5 17.5v11.5q0 26 -1.5 51t-1.5 50zM174 45q10 0 15 0.5t8 2.5
t4.5 6.5t3.5 13.5q0 2 0.5 6l0.5 4v115q0 3 2 6t4 3t3 -1t1 -3v-29v-30q0 -3 -0.5 -9.5t-0.5 -14v-15.5v-15t-0.5 -12.5t-0.5 -7.5v-2t-0.5 -4l-1 -4t-0.5 -3t-0.5 -3.5t-1.5 -4.5t-2.5 -3.5t-2.5 -1.5l-26 -3l-4 -4v-23q0 -1 -1.5 -1h-2.5q-4 0 -6 3t-2 7.5t0.5 9t0.5 6.5
q-3 4 -8 5t-10.5 0.5t-10.5 0.5t-6 6q-3 7 -4.5 12.5t-2.5 13.5q1 26 0 52t-1 52v9l0.5 0.5t0.5 1.5h1q2 0 4.5 -2.5t3.5 -4.5q1 -9 1 -19v-20.5v-20v-17.5q0 -2 0.5 -8.5l1 -13t1 -12.5t0.5 -9q0 -5 3 -7.5t7 -3.5t8.5 -1.5t7.5 -1.5q1 -1 2.5 -1h3.5h5h2zM170 170h3h4
q0 1 0.5 2t1.5 1v1q0 8 -4 13t-12 5q-2 0 -4 -1l-2 -1v-17q0 -1 2 -2t4.5 -1h4.5h2zM37 169v3.5t2 2.5h3q16 0 31.5 -2t30.5 -1q2 0 3.5 -2t1.5 -4v-1l-1.5 -1.5l-1.5 -1.5h-23v-50h21q1 0 1.5 -1.5t0.5 -2.5v-2v-3t-2 -2h-21v-44l2 -5l2 -0.5l4 -1t4.5 -1t4.5 -1.5
q1 0 2.5 0.5t3.5 0t3 -1t1 -2.5q0 -5 -3.5 -5.5t-8.5 -0.5l-55 2q-1 0 -1.5 1.5t-0.5 2.5q0 3 2.5 5t4.5 2q4 0 7.5 -0.5t7.5 -0.5h6q1 0 2 1.5t1 2.5v48l-3 2h-24q-2 0 -3 2.5t-1 3.5q0 2 1.5 3t3 1h3h2.5q4 0 8 -1.5t8 -1.5v0v1q1 0 2 0.5t2 0.5q2 10 2.5 21t0.5 20
q0 1 -0.5 2.5l-1 3t-1.5 2.5t-2 1h-29q-3 0 -3 2v3zM157 105l20 -4l3 3v14q0 1 -2.5 2t-6 2t-6.5 1.5t-4 0.5h-2.5t-1.5 -2v-17z" />
</svg>
