<?xml version="1.0" standalone="no"?>
<!DOCTYPE svg PUBLIC "-//W3C//DTD SVG 1.1//EN" "http://www.w3.org/Graphics/SVG/1.1/DTD/svg11.dtd" >
<svg xmlns="http://www.w3.org/2000/svg" xmlns:xlink="http://www.w3.org/1999/xlink" version="1.1" viewBox="-10 0 266 256">
   <path fill="currentColor"
d="M110 244q0 3 0.5 5t3.5 2h3.5t1.5 -2q1 -11 1.5 -22.5t0.5 -23v-22.5v-22l32 -3l0.5 -1t1.5 -1v-1v-1q-1 0 -1.5 -1l-0.5 -1h-30l-2 -1v-2q0 -2 -0.5 -4t-0.5 -3v-3q0 -8 0.5 -16t2.5 -15q0 -1 2 -1.5t3 -0.5q2 -1 5.5 -1.5t8 -1t8 -1t5.5 -0.5v-2q0 -1 -0.5 -2t-1.5 -1
h-29l-0.5 -1l-0.5 -1l-0.5 -2t-0.5 -3q0 -10 3.5 -14.5t8 -6.5t9.5 -2.5t10 -3t8 -7.5t3 -16v-2v-2.5v-2.5v-3q-1 -3 -4 -5.5t-7 -2.5h-29l-2 0.5t-3 0.5v0.5v0.5v1q0 1 1 2l1 1h28q1 0 2 0.5t2 2t2 2.5t2 1v7q0 7 -2.5 10.5t-7 6t-10 4t-11.5 3.5q-3 2 -4.5 4t-2.5 4.5
l-2 5t-2 5.5q-2 39 -2.5 78t-2.5 78v6zM198 166q0 2 0.5 6t1 8.5l1 9t0.5 5.5v8v11.5v13t0.5 11.5t2.5 8.5t4 3.5q3 0 3.5 -2t0.5 -4v-3v-2q-1 -3 -1 -8.5t-0.5 -12t-1.5 -13.5t-1.5 -13.5t-0.5 -11.5t-1 -7q0 -5 -1.5 -10t-1.5 -9q0 -3 3 -5.5t6 -6l6 -7t3 -7.5v-32
q0 -2 -1.5 -3.5t-3 -2.5t-3.5 -2t-3 -2h-4t-6.5 -0.5t-6.5 -0.5h-4h-2h-2q-2 0 -5.5 0.5l-3.5 0.5v4q2 0 5.5 0.5t8 0.5t8 0.5t5.5 0.5q4 0 6.5 3t3.5 6.5t1 7.5v7t-1 7.5t-2.5 8.5t-3.5 7t-6 3l-1 -0.5t-1 -1.5q-2 -6 -3.5 -9.5t-4 -5t-6.5 -1.5h-11h-12q0 1 -1 1.5l-1 0.5
v1v1q3 3 9 2.5t11.5 -0.5t9.5 3.5t4 13.5q0 4 -3 6t-7 3t-9 2t-9 2.5t-7 4t-3 6.5q5 0 9.5 -1.5t9 -4t9 -4t9.5 -1.5h1v0q1 1 2 3t2 2zM37 160v1l5 5h1h1q3 0 11 -0.5t16.5 -1t16.5 -1t11 -0.5q2 -1 3.5 -2.5t1.5 -3.5h-24v-60l2 -2h5q3 0 6 -0.5t5.5 -2.5t2.5 -5h-21v-59
l3 -4h15q1 0 1.5 -2t0.5 -3q0 -3 -3.5 -3h-5.5q-4 0 -8 1t-9 1t-9.5 -1t-8.5 -1h-3t-3.5 0.5t-2.5 1.5t-1 3v0q0 1 1.5 1.5l1.5 0.5q1 0 4 0.5t6 0.5t6 0.5t4 0.5t2 2t1 3v57h-26l-1 1.5t-1 2.5v0.5v0.5v0.5v0.5l0.5 1t1.5 1h25q1 0 1.5 0.5t0.5 1.5v2v1q0 1 -0.5 5.5
t-0.5 11t-0.5 13.5t-1 13t-1.5 10.5t-2 4.5h-28q-1 0 -1.5 0.5l-0.5 0.5v1zM214 37q0 7 -2.5 10.5t-6.5 5.5t-8 2.5l-8 1t-6.5 1.5t-2.5 5q11 0 19 -0.5t13 -3t7.5 -8.5t2.5 -18q0 -9 -3 -11t-10 -2q-3 0 -8.5 -0.5t-10.5 0t-9 2.5t-4 7q7 0 13.5 -1.5t12.5 -2.5h1q4 0 7 4
t3 8z" />
</svg>
