<?xml version="1.0" standalone="no"?>
<!DOCTYPE svg PUBLIC "-//W3C//DTD SVG 1.1//EN" "http://www.w3.org/Graphics/SVG/1.1/DTD/svg11.dtd" >
<svg xmlns="http://www.w3.org/2000/svg" xmlns:xlink="http://www.w3.org/1999/xlink" version="1.1" viewBox="-10 0 266 256">
   <path fill="currentColor"
d="M112 247q0 2 1 3t3 1q4 0 8.5 -4.5t8 -11.5t7 -15t6.5 -15t5 -11.5t4 -4.5h1l0.5 0.5l0.5 0.5l18 36q3 2 4.5 5.5t3.5 6.5t4 5.5t6 2.5q3 0 3.5 -1.5t0.5 -3.5q0 -1 -0.5 -2l-0.5 -1q-4 -6 -10 -14t-12 -17t-10 -18t-4 -16q0 -1 0.5 -2.5l0.5 -1.5q9 -1 16 -3t11.5 -6
t6 -11t1.5 -18q0 -10 -2 -15.5t-5.5 -8.5t-8 -3.5t-8.5 -1t-7 -1.5t-4 -4q0 -1 -0.5 -4l-0.5 -3v-4t0.5 -4t1 -3.5t2.5 -2.5q6 -4 8.5 -7t3.5 -5t0.5 -4l-1 -4t0 -4t2.5 -4h6t8.5 -0.5t8.5 -1.5t4 -4v-1t-1 -1l-3.5 -1t-4.5 -1v0h-1q-1 0 -3 0.5t-4 0.5t-4 0.5l-2 0.5
q-1 0 -2.5 -1l-1.5 -1v-20q0 -2 -1.5 -2.5t-3.5 -0.5q-3 0 -3.5 3.5t0 7.5t0.5 8t-3 6h-3t-5 0.5t-5 0.5h-3h-4l-2 0.5t-2 -1.5v-17q0 -2 -2 -2.5t-3 -0.5t-2.5 0.5t-1.5 1.5v19l-1 2h-12.5t-11.5 2q-1 0 -1.5 0.5l-0.5 0.5q0 1 0.5 2.5t1.5 1.5h27l1 2t1 3v2.5t0.5 5l1 5
t0.5 3.5l12 6v25q-11 0 -17.5 2t-10 6t-4 11t-0.5 17v10q0 5 2 10q1 4 6 5t10 1.5t9 2t4 5.5v2v2l-1.5 2t-2.5 2q-3 10 -7.5 20t-8.5 19l-19 27v0.5v0.5zM44 171l3 3h4q13 0 24 -1t24 -1q1 0 1.5 -1.5t0.5 -2.5q0 -3 -2 -4.5t-5 -1.5l-1 0.5t-2 0.5t-2 0.5l-1 0.5h-3
q-2 0 -4 -0.5t-3 -2.5q-1 -6 -1 -10t-0.5 -8t-0.5 -8v-8v-7q2 -2 5 -2.5l6 -1t5 -1t2 -3.5q0 -4 -3 -4.5t-6 -0.5t-6 -0.5t-3 -2.5v-44h18l0.5 -1l0.5 -1q1 -1 1 -3v-3h-8h-13q-6 0 -12 0.5t-8 0.5h-2.5t-3.5 0.5t-3.5 0.5t-1.5 1l-0.5 0.5t-0.5 1.5q0 2 0.5 3t3.5 1h18l3 3
v45h-21q-2 0 -2 2.5v3.5q0 2 1.5 2.5t3.5 0.5q5 0 9.5 -0.5t9.5 -0.5q0 1 0.5 4t0.5 4q0 2 -0.5 7.5t-0.5 12t-0.5 12t-0.5 7.5q-3 2 -7 2h-6t-6 0.5t-5 4.5zM126 146q0 -5 3 -6.5t7 -2t8.5 -0.5h7.5v24h-18q-2 0 -3.5 -1.5t-2.5 -4t-1.5 -5t-0.5 -4.5zM178 136h10l1.5 1.5
t0.5 1.5q0 11 -7 16.5t-16 5.5q-2 0 -4 -0.5t-2 -2.5v-17q0 -2 2.5 -3t5.5 -1.5t6 -0.5h3zM126 128v-1q0 -1 0.5 -3t0.5 -3.5t0.5 -3t0.5 -2.5q4 -4 9.5 -5.5t10.5 -1.5h2.5t1.5 2v21h-24q-1 0 -1.5 -1t-0.5 -2zM160 121v-5.5t2 -5.5h4h4q8 0 12.5 2.5t4.5 10.5v3t-1 2
q-4 1 -8 1.5t-9 0.5h-3h-2l-3 -3q0 -1 -0.5 -3t-0.5 -3zM126 80q-3 0 -7 2.5t-8 6t-7 7.5t-3 6q3 0 7.5 -1.5t9 -4.5t8 -6t4 -6t-1 -3.5t-2.5 -0.5zM186 85q3 3 5 6t4.5 5.5t5.5 4t7 1.5q2 0 4 -0.5t0 -4.5q0 -1 -3 -3.5t-7 -5t-7.5 -4.5t-4.5 -2t-2 0.5t-2 1.5v1v0zM142 55
v-2t1 -2l3 -1h22q2 0 2 1v2q0 9 -4.5 12.5t-12.5 3.5h-3h-3q-3 -2 -4 -6t-1 -8z" />
</svg>
