<?xml version="1.0" standalone="no"?>
<!DOCTYPE svg PUBLIC "-//W3C//DTD SVG 1.1//EN" "http://www.w3.org/Graphics/SVG/1.1/DTD/svg11.dtd" >
<svg xmlns="http://www.w3.org/2000/svg" xmlns:xlink="http://www.w3.org/1999/xlink" version="1.1" viewBox="-10 0 266 256">
   <path fill="currentColor"
d="M182 170h3t3 1l6 75q0 3 3 4t5 1q0 -20 -2.5 -39t-2.5 -39v-3.5v-2.5q0 -1 1.5 -2.5t3 -3.5l3 -4t2.5 -2q3 -7 5 -17t2 -17q0 -11 -1.5 -17t-4 -8.5t-5.5 -4t-6 -2.5t-4.5 -2.5t-1.5 -6.5v-1v-4t0.5 -6.5l1 -7t0.5 -4.5q0 -2 2 -3.5t5 -2t6 -0.5h5l3 -3l-1 -2h-17
q-1 0 -2 -1.5t-1 -2.5v-1q0 -6 0.5 -12.5t0.5 -12.5v-6q-1 -3 -2.5 -3.5t-3.5 -0.5q-1 0 -2.5 0.5t-0.5 3.5v39t-3 39q-2 2 -5 2h-5h-2.5h-3.5q0 -6 -4.5 -9t-9.5 -4.5t-9.5 -2.5t-4.5 -4l1.5 -3.5t3.5 -7.5t3.5 -7.5t2.5 -3.5l22 -3v-0.5v-0.5v-2.5t-2 -1.5h-15
q0 -4 1.5 -7.5t3.5 -6.5t3 -6.5t1 -6.5q0 -2 -1 -2.5t-3 -0.5h-2t-2 1q0 1 -1 4t-1.5 5.5t-1.5 5.5t-2 4q-1 3 -2 7t-3 7.5t-4.5 6t-5.5 2.5t-4.5 -1t-1.5 -4l-5 -30q-1 -3 -2.5 -5.5t-4.5 -2.5q-2 0 -3 2.5t-1 3.5q0 5 2.5 10t2.5 10q0 2 -2 2.5t-4.5 1t-4.5 1t-2 3.5
l0.5 1.5t1.5 1.5h12q2 0 3.5 3t2 6t1 6.5t0.5 4.5q0 3 -2 5t-4.5 3.5t-4.5 3.5t-3 5q-4 9 -4.5 19t-0.5 20q0 5 -0.5 13t0.5 15.5t4.5 13t11.5 5.5q0 -3 -1 -6t-2.5 -6t-2.5 -5.5t-2 -5.5q-1 -4 -1.5 -6.5t-0.5 -5v-5.5v-8q0 -4 0.5 -12t2 -15t5.5 -12.5t12 -5.5q10 0 16 4
t9 10t4 13.5t1 15.5q0 12 -2.5 21t-5.5 20q-3 2 -6.5 5.5l-7.5 7.5t-7 8t-4 8v2.5v4.5t-1 5l-2 4q1 8 -0.5 16t-1.5 17q0 3 1.5 5t4.5 2h0.5h0.5q1 -1 2.5 -2l1.5 -1v-47l2 -3t3 -4q5 -7 10.5 -12t9.5 -12q1 -1 2.5 -6t3 -10.5t3 -10t2.5 -4.5h11q2 0 3 2t1.5 4.5t1 5.5
t0.5 4q0 7 -3.5 10t-7.5 4t-7.5 1.5t-3.5 2.5q0 4 3 4q4 0 6.5 -1t6.5 -1zM41 176l1.5 1l1.5 1h2h1q3 0 10.5 -0.5t15.5 -0.5t15 -0.5t10 -0.5q2 0 2.5 -1t0.5 -2q0 -4 -3.5 -5t-6.5 -1h-2t-2 0.5l-2 1t-3 0.5q-3 0 -4 -1t-1 -4v-5v-11t0.5 -13.5t0.5 -11v-4.5l2 -4h14
q1 0 1 -1.5v-2.5v-1l-15 -3v-54q0 -3 2.5 -4t6 -1.5t6 -1t2.5 -2.5v-2.5t-2 -1.5h-45q-1 0 -1 2v3q0 3 2.5 3.5t6 0t7.5 -0.5t6 2v17v17q0 2 -0.5 6.5t-0.5 8.5t-0.5 7l-0.5 3h-20l-0.5 1t-1.5 1v1q0 2 2 3t3 1h14l1 2l0.5 2t0.5 5v4v4v7.5v9t-0.5 9t-1.5 8.5l-0.5 0.5
t-0.5 1.5h-4t-5 0.5t-5.5 0.5h-3.5q-2 1 -4.5 2t-1.5 4zM171 128l-2 -3v-3v-4q0 -8 0.5 -12.5t2.5 -6.5t6 -2.5t11 -0.5q6 0 9 2t4.5 5t2 7.5t0.5 8.5q0 2 -0.5 8t-1.5 12t-2.5 11t-4.5 5v0q0 -2 -0.5 -4.5t-1 -6t-1 -6.5t-0.5 -5q-1 -1 -2 -3t-2 -2h-18zM124 139q3 3 5.5 5
t5.5 2q5 0 9.5 -1.5t6.5 -6.5q0 -5 0.5 -9t0.5 -7v-7v-7v-9q0 -1 -1 -3t-3 -1q-1 0 -2 1l-1 1q-1 1 0 3.5t1 3.5v2q0 4 -3.5 5.5t-7.5 1.5q-1 0 -2.5 -0.5t-1.5 -2.5v-11q0 -2 -2 -2.5t-3 -0.5h-2t-1 1v14v14.5t1 13.5zM139 117h3t3 2v8v4q0 3 -1 4.5t-2 2.5t-5 1
q-1 0 -3.5 -0.5t-2.5 -2.5v-15q0 -1 1 -2t2.5 -1t3 -0.5z" />
</svg>
