<?xml version="1.0" standalone="no"?>
<!DOCTYPE svg PUBLIC "-//W3C//DTD SVG 1.1//EN" "http://www.w3.org/Graphics/SVG/1.1/DTD/svg11.dtd" >
<svg xmlns="http://www.w3.org/2000/svg" xmlns:xlink="http://www.w3.org/1999/xlink" version="1.1" viewBox="-10 0 266 256">
   <path fill="currentColor"
d="M39 245q0 1 1 3t2 3h7q11 0 21 -1t21 -1q4 0 13.5 -0.5t21 -1t24.5 -0.5t24.5 -0.5t21 -1t13.5 -0.5q1 0 1.5 -1t0.5 -2q0 -2 -0.5 -3t-1.5 -1h-75v-34l1 -1l2 -0.5t4.5 -1t4.5 -0.5h4t7 -0.5t10.5 -1t11 -0.5h7.5q0 -1 1.5 -2t1.5 -2v-1v-1l-1.5 -1.5l-1.5 -1.5
q-3 0 -9.5 0.5t-13.5 1t-13 1t-9 0.5h-1h-1h-2.5t-1.5 -2v-3t-0.5 -5t-0.5 -5v-3v-3v-3.5t3 -3.5q14 1 25 0.5t24 -1.5q2 -1 5.5 -1.5t3.5 -4.5q0 -3 -3.5 -4t-5.5 -1h-2t-2 0.5t-2 0.5h-1h-6q-4 1 -12.5 1t-19.5 0.5t-23 1t-23 0.5t-20 0.5t-13 0.5l-1.5 1t-2.5 1.5t-2 1.5
t-1 2v1q0 1 0.5 2.5t1.5 1.5h10q13 0 25 -2t24 -2h4.5h2.5l2 2v24q0 1 -1 1.5l-1 0.5l-2 2t-2 1h-56v2v2.5t1 2.5t2 1h7q10 0 20.5 -0.5t21.5 -0.5h8q1 2 1.5 3.5t0.5 4.5v6t-0.5 8.5t-1.5 9t-4 5.5q-20 -1 -39 0.5t-40 1.5l-0.5 1.5zM159 127h2h4t3 1t1 2v15l1 1t2 1v0h1
q2 0 2 -3.5t0.5 -7.5t2 -7.5t8.5 -3.5h28q6 1 6 -4q0 -2 -0.5 -3t-3.5 -1h-37q-1 0 -1.5 -1l-1 -2t0 -2l0.5 -1v-2.5v-2.5q7 -4 13.5 -4.5t11.5 -2t8 -6t3 -16.5q0 -3 -2 -5.5t-5 -2.5v0q-1 0 -1.5 1.5t-0.5 2.5t-0.5 3t-1 5t-0.5 5.5v2.5q-2 5 -8 6.5t-10 1.5q-5 0 -6 -4
t-1 -8q0 -6 2.5 -8t5 -3.5t5 -2.5t2.5 -4v-22h4.5t7 -0.5t6.5 -1t4.5 -0.5t3.5 -1.5t2 -2.5v-1v-1l-1.5 -0.5t-2.5 -0.5h-1h-1l-89 9v1v0.5v0.5q0 1 1.5 2.5t2.5 1.5h21l3 18q1 3 3 3.5t5 1t5 1.5t2 3v19h-22q-3 0 -4.5 -3t-2 -6.5t-1 -7.5t-3.5 -5q-2 1 -2.5 2t-0.5 3
q0 1 0.5 5t1.5 8t2.5 7.5t4.5 3.5h25l1 1l1 1v2v3q0 2 -0.5 5t-3.5 3l-34 4q-1 0 -1 2q-1 0 -1 1t1 1l0.5 0.5l0.5 0.5q1 0 4 0.5t4 0.5q6 0 11 -1t10 -1zM49 139q8 2 14 2.5t13 0.5h9t8 -0.5l8 -1t10 -1.5l0.5 -0.5l0.5 -0.5v-1v-1l-0.5 -1l-0.5 -1h-49q-3 0 -4.5 -1.5
t-3 -3.5t-2 -4.5t-1.5 -5.5v-9t-0.5 -15t-1 -14.5t-0.5 -9.5v-2q0 -2 0.5 -2t1.5 -1q6 -4 12.5 -6.5t13.5 -3.5t14 -1t12 -1q4 -1 6.5 -4.5t3.5 -7.5t1 -8v-8q0 -2 -0.5 -3t-2.5 -2q-13 -1 -26.5 -1.5t-26.5 -0.5h-3q-2 0 -4 0.5t-3.5 1.5t-1.5 3v0v1l1 1l1 1h25l1 3
q0 1 0.5 3.5t0.5 3.5q0 2 -0.5 5.5t-0.5 4.5t-0.5 2.5l-0.5 1.5l-24 3q-1 0 -2 1.5t-2 3.5t-2 3.5t-1 3.5v3v6v5v4v12v10.5t0.5 11t1.5 12.5q1 3 2.5 5t2.5 4zM69 82q0 6 0.5 12t2.5 11t5.5 8t10.5 3q8 0 12 -3.5t6 -8.5t2.5 -11t0.5 -12q0 -3 -1.5 -6.5t-4.5 -3.5
q-2 0 -2.5 1.5l-1 3l-1 3t-2.5 1.5h-16q-2 -3 -3 -4t-4 -1q-4 0 -4 2v5zM76 101l2 -12l3 -1t7 -2t7.5 -1.5t4.5 -0.5v17q0 1 -1.5 2.5t-3.5 2t-4 0.5h-3h-3t-4 -0.5t-3.5 -2t-1.5 -2.5zM157 52v-2t2 -1q1 -1 3.5 -1t5.5 -0.5t5.5 -0.5h3.5h3h2t2 2v18h-21q-2 0 -3.5 -1.5
t-2 -4.5t-0.5 -5v-4zM83 37v-8q3 -3 5.5 -3h4.5q12 0 12 11q0 4 -1.5 6.5t-3.5 3.5t-5 1.5t-7 0.5q-2 0 -3 -1.5t-1.5 -3t-0.5 -3.5v-4zM145 19q-3 1 -3 5q3 0 8.5 -0.5t12.5 -0.5h13h8q1 0 4 -0.5t6 -0.5t5.5 -0.5t4.5 -0.5v-0.5v-1.5q0 -3 -2 -3.5t-4 -0.5h-3h-2
q-3 0 -10 0.5t-14.5 1.5t-14.5 1.5t-9 0.5z" />
</svg>
