<?xml version="1.0" standalone="no"?>
<!DOCTYPE svg PUBLIC "-//W3C//DTD SVG 1.1//EN" "http://www.w3.org/Graphics/SVG/1.1/DTD/svg11.dtd" >
<svg xmlns="http://www.w3.org/2000/svg" xmlns:xlink="http://www.w3.org/1999/xlink" version="1.1" viewBox="-10 0 266 256">
   <path fill="currentColor"
d="M174 143v104q0 3 1.5 3.5t2.5 0.5q5 0 5.5 -3.5t0.5 -7.5q0 -19 -1.5 -38.5t-1.5 -39.5v-5v-6v-5v-3l2 -2h31l0.5 -1.5l0.5 -1.5q0 -3 -2 -4t-4 -1h-2t-2.5 0.5t-2.5 1t-2 0.5h-3q-3 0 -6.5 -0.5t-6 -0.5h-4.5q0 -2 0.5 -6t0.5 -8.5v-9.5v-6v-3t-0.5 -4t-1.5 -3.5
t-3 -1.5l-0.5 0.5t-1.5 0.5q-1 4 -1 10t-0.5 12t0 11.5t0.5 9.5q-3 0 -6.5 0.5l-7 1t-7.5 1t-7 1.5v1v0q0 1 0.5 1.5t1.5 0.5h27zM100 244l1 2l5 -5v-3v-5v-6v-5q0 -22 -1 -43t-1 -42v-1q0 -2 0.5 -5t1 -5.5l0.5 -2.5l2 -2h19l1 0.5t1 1.5l1 1.5l1 1.5q0 1 -1 4t-1 5v23
q0 14 1 27t1 26q0 7 -1 14t-1 14v4.5t3 2.5l5 -5v-19q0 -34 -0.5 -68t-1.5 -68q0 -5 -0.5 -9.5t-1.5 -8t-3.5 -6.5t-7.5 -5l-1 -17l1.5 -2t3.5 -3l1.5 1l1.5 1h1h4t4.5 -0.5t4 -1.5t1.5 -3v-1q-5 0 -8.5 0.5t-6.5 0.5t-4.5 -0.5t-2.5 -2.5q0 -1 0.5 -4t0.5 -6t-1 -5t-4 -2
t-3.5 1t-0.5 3q0 8 1 15t1 14v6v4q-2 3 -3.5 4t-3.5 2t-3.5 2t-2.5 4q-1 1 -1.5 3l-1 4t-0.5 3.5v1.5v165zM147 230v0q0 1 0.5 1.5l0.5 0.5h1q2 0 3.5 -5.5t3 -14t3 -18.5t2.5 -19t1.5 -15.5t0.5 -7.5q-3 0 -5 6.5t-3.5 15t-2 16.5t-0.5 10q0 1 -1 5.5l-2 9t-1.5 9t-0.5 5.5
v1zM209 227q0 4 3 5.5t6 1.5q0 -1 -1 -7.5t-3 -14t-3.5 -13.5t-3.5 -7q-2 -11 -5 -22t-5 -22h-0.5h-0.5q-3 0 -3 3q0 4 0.5 9t2 10.5l3 11t1.5 10.5q1 2 2 7t2.5 10.5t2.5 10.5t2 7zM41 194v1.5t1 1.5h6h10t14.5 -0.5t13.5 -2.5t6 -5h-17q-1 0 -1.5 -1.5l-1 -3t-0.5 -3.5v-2
q0 -14 1 -26.5t0 -26.5q2 -1 5 -1.5t5.5 -1.5t5 -1.5t2.5 -1.5q0 -3 -2 -4.5t-4.5 -1.5h-5t-4.5 1l-2 -4v-2v-5v-5v-5v-19t2 -20q1 -2 3.5 -2.5t5.5 -0.5h6.5t2.5 -3t-2 -4h-4.5h-5.5h-8t-8 0.5t-8 0.5t-10 1q0 1 -1.5 2t-1.5 2v1v0q0 1 1.5 1.5l1.5 0.5h3.5h4.5h5.5h2.5
q3 2 3.5 4.5t0.5 5.5t-1 7t-1 7v1q0 1 0.5 5t0.5 8.5t0.5 8.5t0.5 5v3q0 1 -0.5 2.5l-1 3t-1.5 3t-2 1.5h-20v1.5t0.5 3.5t1.5 2h21v10v14.5v14.5v10v2.5t-0.5 3t-0.5 3t-1 1.5q0 1 -1 2.5t-2 1.5h-18q-1 0 -1 2v3zM200 99q-1 3 -3 7t-4 8.5t-3 9t-1 7.5h4l1 -2t2.5 -5.5
l3 -7t2.5 -5.5q1 -1 2 -4t2 -5v0q0 -3 -4 -3h-0.5h-1.5zM150 106q1 1 2 4l2 6t2.5 6t1.5 4t0.5 2t1.5 2l3 -4l-0.5 -2t-1 -4.5t-1.5 -5.5t-2 -5l-0.5 -2t-1.5 -4.5t-3 -3.5v0v0q-2 0 -2.5 1.5t-0.5 3.5v1v1zM103 109v-5q0 -1 0.5 -5.5l1 -9l1 -9t0.5 -6.5l1.5 -1.5t2.5 -3
t2.5 -2.5l1.5 -1q0 -1 2 -1h3q3 0 5 1t3 4q0 3 0.5 8t0.5 10.5t0.5 10.5t0.5 7v1.5v1.5q0 3 -2 4t-5 1.5t-6 0.5h-5h-7q-2 -1 -1.5 -3t0.5 -3zM193 76q4 0 6 3t3.5 7t3.5 7t5 3q2 0 2.5 -1.5t0.5 -3.5v-1v-1l-17 -20v-1q0 -6 2 -12t2 -12t-2 -8.5t-5.5 -4t-7.5 -1.5h-9h-3
t-3 1h-3.5t-4.5 0.5t-3.5 0.5h-1.5v3h9t12.5 0.5t11.5 2.5t5 6v4t-0.5 6l-1 6t-2.5 3q-1 0 -1 -0.5v-0.5q-3 -1 -5 -2.5t-3.5 -3t-4 -2t-6.5 -0.5h-1h-3.5t-6 0.5t-6 0.5h-3.5q0 1 -1 1.5l-1 0.5v1v1v0l1 1l1 1h24q4 0 7 2t3 6t-2.5 5.5t-7.5 2.5q-1 1 -4.5 1.5l-7 1t-6.5 1
t-5 0.5q-2 1 -2 3h25q1 -1 3.5 -2.5t4.5 -2.5t4.5 -2t4.5 -1z" />
</svg>
