<?xml version="1.0" standalone="no"?>
<!DOCTYPE svg PUBLIC "-//W3C//DTD SVG 1.1//EN" "http://www.w3.org/Graphics/SVG/1.1/DTD/svg11.dtd" >
<svg xmlns="http://www.w3.org/2000/svg" xmlns:xlink="http://www.w3.org/1999/xlink" version="1.1" viewBox="-10 0 266 256">
   <path fill="currentColor"
d="M194 164v87h2h3l0.5 -1l0.5 -1v-90q-1 -7 -1.5 -13t-1.5 -10.5t-2 -8t-4.5 -5.5t-9.5 -3t-16 -1h-2.5h-3.5l-0.5 0.5l-0.5 0.5v1v1l0.5 1l0.5 1l25 3q1 0 2 1.5l2 3t2 3.5l1 2zM107 245q0 3 1 3.5t4 0.5h2q2 0 3 -2v-7q0 -11 -1 -21.5t-1 -21.5q0 -8 -0.5 -17t0 -18.5
t2.5 -18.5t6 -15q7 -2 13.5 -3.5t13.5 -1.5v-1.5v-0.5q0 -2 -2 -3.5t-4 -1.5q-13 0 -22 5t-12 18q0 4 -0.5 12t-0.5 18.5t-0.5 21.5t-0.5 21.5t-0.5 18.5t-0.5 12v2zM132 179v6q0 5 0.5 10.5t2 10t5.5 4.5h24q1 0 2 -1t2 -2.5t2.5 -3t2.5 -1.5l2 -6t1 -6.5v-7v-5.5v-2
q0 -2 -0.5 -6t-1 -9t-1 -9.5t-0.5 -6.5q-3 -5 -8 -6.5t-10 -1.5q-6 0 -12.5 2t-7.5 9q0 2 -0.5 6t-1 9t-1 9t-0.5 6v2zM136 189v-1l2 -1q1 0 4 -0.5t6.5 -0.5t6.5 -0.5t4 -0.5h2h2q3 0 4 0.5t1 3.5q0 9 -5 11.5t-12 2.5h-4h-4q-1 -1 -2 -3t-2.5 -4t-2 -4t-0.5 -3zM45 188
q0 3 1.5 4t2.5 1q12 -1 23.5 -1.5t22.5 -1.5q2 0 2.5 -2.5t0.5 -3.5h-19q-1 0 -1.5 -2l-0.5 -2v-3q0 -2 0.5 -7.5l1 -11t0.5 -10.5v-7l-1.5 -4.5t-0.5 -2.5t0.5 -2.5t0.5 -4.5h17q2 0 2 -2v-2v-1.5v-0.5q-1 0 -3.5 -0.5t-2.5 -1.5h-3.5h-3.5t-3.5 -1t-1.5 -2v-4v-4v-5v-3
q0 -3 0.5 -8t0.5 -9.5t0.5 -7.5l0.5 -3l3 -4h3t4 -0.5t3.5 -0.5h2.5t2 -0.5t1 -1.5v0v-1q0 -1 -0.5 -1.5l-0.5 -0.5h-48q-2 0 -2.5 1t-0.5 2v2.5t1 1.5h22v46q0 4 -4 5t-8.5 0.5t-8.5 0t-4 4.5q0 2 1 2t4 1h4t6 -0.5t5.5 -0.5h3.5q0 1 0.5 5t0.5 8v7.5v4.5q0 3 -0.5 8
t-0.5 10t-0.5 8.5l-0.5 3.5l-1 2h-22q-1 0 -1 2v2zM159 163q1 0 4 0.5l3 0.5l2 1v14h-30v-12l0.5 -1t1.5 -1q5 -1 9.5 -1.5t9.5 -0.5zM140 152v-3t1 -3q5 -3 8 -3.5t8 -0.5h3h3q2 2 3.5 5t1.5 5q0 1 -0.5 2t-1.5 1q-7 2 -11 2h-10h-4q-1 -1 -1 -2v-3zM156 80q5 0 6 2t1 4
q0 3 0.5 5.5t2.5 4.5q9 9 21 13.5t24 4.5q0 -4 -2.5 -6t-7 -3.5t-9.5 -3t-9.5 -3t-7.5 -4t-3 -7.5q0 -2 0.5 -4.5t1.5 -4.5h2h4.5t4.5 -0.5t2 -2.5v-1q0 -2 -3.5 -4t-5.5 -2q-3 0 -5 1t-5 4h-43l-0.5 1t-1.5 1v0.5v0.5q0 3 3 3.5t6.5 0.5t6.5 1t3 4q0 5 -3 8.5t-6.5 5.5
t-8 3t-8 2.5t-6 3t-2.5 4.5q4 0 9 -1.5t9.5 -3t9 -4t9.5 -3.5q3 -2 3 -5.5v-6.5t1.5 -5.5t6.5 -2.5zM196 93q0 1 1.5 2t2.5 1t1.5 -0.5l0.5 -0.5v-9v-9t-1 -12.5t-3 -11.5t-7 -5h-32v-16h5.5t8 -0.5t8 -0.5h5.5h1.5t3.5 -0.5t3.5 -1t2.5 -2.5v0v0q0 -2 -1 -2.5t-2.5 -1
t-3 -0.5h-1.5h-3t-4.5 0.5t-4.5 0.5h-3h-2h-3q-5 0 -6 -2t-1.5 -4.5t-1.5 -4.5t-5 -2v0l-2 2l-1 1v33q-1 0 -5 0.5l-8 1t-7.5 1t-4.5 1.5q-7 1 -10.5 6t-5 12t-1.5 14v13q1 0 4.5 -1t3.5 -4v-26l1 -1t1 -2q3 -3 6.5 -4.5t7.5 -2t8 -0.5h8h3h7.5h7.5h7h4h5.5h3.5h3l3 4v2.5
t0.5 5.5t1 7t0.5 6v13z" />
</svg>
