<?xml version="1.0" standalone="no"?>
<!DOCTYPE svg PUBLIC "-//W3C//DTD SVG 1.1//EN" "http://www.w3.org/Graphics/SVG/1.1/DTD/svg11.dtd" >
<svg xmlns="http://www.w3.org/2000/svg" xmlns:xlink="http://www.w3.org/1999/xlink" version="1.1" viewBox="-10 0 266 256">
   <path fill="currentColor"
d="M170 191q2 0 6 2l9 4.5t9.5 5t8.5 2.5l1.5 1.5l0.5 0.5v45q5 0 6.5 -2t1.5 -5q0 -1 -0.5 -2t-0.5 -2q0 -4 -0.5 -13t-1.5 -19.5t-1.5 -19.5t-0.5 -13q-3 -3 -7 -5t-8 -2.5t-8.5 -0.5h-8.5l-2 -1v-13q0 -1 0.5 -1.5t1.5 -0.5l2 -1l2 -1h34l1 -1t1 -2v0v-1l-0.5 -1t-1.5 -1
h-29q-1 0 -4.5 -0.5t-4.5 -1.5q-1 0 -1.5 -0.5l-0.5 -0.5v-6v-1.5v-3t0.5 -3t1.5 -1.5h1q1 0 4.5 0.5t7.5 0.5t7.5 0.5t4.5 0.5q4 0 4 -3q0 -2 -1 -2.5l-3 -1.5q-6 -2 -14 -2t-15 -1q0 -1 1 -3.5t1 -3t0.5 -1t1.5 -0.5h27l1 -0.5t1 -1.5v-2v-3h-31l-0.5 -1.5t-1.5 -2.5v-2
q0 -2 2 -5t5 -3q5 0 9 2l8 4t8.5 3.5t10.5 1.5q0 -4 -2.5 -6t-6 -3t-7.5 -1.5t-7.5 -1t-6 -2t-2.5 -3.5q0 -1 0.5 -1.5l0.5 -0.5q4 -4 9.5 -6t11.5 -2l0.5 -1.5l0.5 -1.5v-0.5v-0.5v-1q-4 -2 -8.5 -4.5t-9.5 -5.5t-9.5 -6t-7.5 -6h12t12.5 -1.5t9.5 -5.5t4 -12v-1
q0 -1 -1 -4t-3 -3q-3 0 -3.5 2.5l-1 5t-1 5.5t-3.5 4h-2t-4 0.5t-4 0.5h-2h-3h-3h-3.5h-2.5v-21l-1.5 -2t-3.5 -3v0h-1q-1 1 -2.5 1.5l-1.5 0.5v26h-19q-1 0 -1 -3t-1 -6l-2 -6t-3 -3q-3 0 -4.5 2t-1.5 4v5t1 6t2 5.5t4 2.5h17q2 0 2 2v3q0 3 -3.5 6t-7.5 6t-7.5 5t-3.5 4v1
l0.5 1l0.5 1l16 4q1 0 1.5 0.5t0.5 1.5t0.5 2l0.5 1l-3.5 2.5t-7.5 5.5t-8 5.5t-5 2.5q-1 1 -2 5t-2 10t-1.5 12.5t-1 12.5t-1 10.5t-0.5 5.5q0 3 0.5 4.5t3.5 1.5t4 -1t1.5 -2.5t1 -3.5t2.5 -3q7 -1 11.5 -1.5t9.5 -0.5h2q2 0 3.5 0.5l3 1t1.5 2.5v12h-20q0 2 -1.5 3
t-3 1.5t-3.5 1t-3 1.5q-5 7 -8 15t-4.5 17t-1.5 18v17v4.5t4 1.5h2t2 -2v-31q0 -2 5.5 -6t12.5 -7.5t13.5 -6t9.5 -2.5zM187 219v-4.5t-0.5 -5.5t-1.5 -5t-3 -2h-24q-1 0 -3 1.5t-4 1.5q0 1 -0.5 1.5l-0.5 0.5v21q0 1 2 4l2 3h28q2 0 3 -2.5t1.5 -5t0.5 -4.5v-4zM154 225
q0 -4 2 -6.5t5.5 -3.5t7 -1.5t6.5 -0.5q5 0 5 3v7q0 3 -1.5 4.5t-3.5 2t-4.5 0.5h-4.5h-8q-2 -2 -3 -2.5t-1 -2.5zM174 183v-2v-1q0 -3 1 -4t2.5 -1.5t3.5 0t4 0.5t5 -0.5t6 0t5 2t2 4.5v18q0 1 -1.5 1.5t-2.5 0.5q-3 0 -6.5 -2t-7 -5l-7 -6t-4.5 -5zM161 172q3 1 4 3t1 5
q0 4 -4 7.5t-9.5 6t-11 3.5t-8.5 1q0 -7 1.5 -11t5 -6.5t8 -4l10.5 -3.5l1.5 -1t1.5 0zM42 168q0 2 1 3t2.5 1.5t3 0.5h3.5h3q3 0 10 -0.5t15.5 -1t15.5 -1t10 -0.5q2 0 2 -1v-2v-2.5t-2 -1.5h-19q-3 0 -4.5 -1.5t-2 -4.5t-0.5 -5v-4v-9t0.5 -8t0.5 -8.5t1 -9.5l1.5 -0.5
l1.5 -0.5q1 -1 3.5 -1t5 -0.5t5 -0.5h2.5q2 -1 2 -1.5v-1.5q0 -3 -2.5 -4t-4.5 -1q-3 0 -5 1t-5 1q-2 0 -3 -0.5t-1 -3.5v-46h23q1 0 1 -1.5v-2.5v-1.5t-1 -1.5h-3h-4h-4h-2h-4h-4h-3h-2q-2 0 -6.5 0.5t-10 0.5t-10 0.5t-5.5 0.5t-1 1v1q0 2 0.5 3t3.5 1h22v50h-26v2t1 3
l0.5 1l0.5 1h26v50l-3 3h-28q-1 0 -1 1.5v1.5zM132 141v-2.5v-1.5q0 -5 3 -8t8 -3h2q1 0 4 0.5t6 0.5t6 0.5t5 0.5q1 1 1.5 3.5t0.5 5v4.5v2h-17.5t-18.5 -2zM137 112q7 -2 11 -2h10h6l1 0.5t1 1.5v3v4h-26q-1 1 -2.5 2t-2.5 1v-5t2 -5zM146 100v-1l13 -10l1.5 -0.5
l1.5 -0.5q4 0 5 2t1 6q0 1 -1 3.5t-3 2.5h-16l-0.5 -0.5l-1.5 -1.5v0zM148 70l16 -16l1 -0.5t2 -0.5q3 0 6.5 2t7 4.5t6 5t4.5 5.5h0.5h0.5q0 1 -2 2t-4.5 2t-4.5 1.5l-2 0.5q-3 0 -3.5 -0.5t-1 -1.5t-0.5 -3t-2 -3q0 -1 -2 0.5t-3 1.5v9q0 2 -1 2h-3t-4 -1.5t-5.5 -3
t-4.5 -3.5t-1 -3z" />
</svg>
