<?xml version="1.0" standalone="no"?>
<!DOCTYPE svg PUBLIC "-//W3C//DTD SVG 1.1//EN" "http://www.w3.org/Graphics/SVG/1.1/DTD/svg11.dtd" >
<svg xmlns="http://www.w3.org/2000/svg" xmlns:xlink="http://www.w3.org/1999/xlink" version="1.1" viewBox="-10 0 266 256">
   <path fill="currentColor"
d="M66 249q0 1 1 1.5t2 0.5q3 0 4 -3.5t1.5 -8t0.5 -9.5t2 -7v-38l0.5 -1t1.5 -1q1 -2 4 -4t6 -2q1 0 1.5 1l1 2t0.5 2.5v1.5v4.5v7.5v8v5q0 2 0.5 7.5t0.5 12t0.5 12t0.5 7.5q0 1 0.5 1h2.5h1.5t1.5 -1v-2.5v-4t0.5 -4.5l0.5 -2v-1v-1v-7.5t-0.5 -14t-0.5 -14v-7.5v-3v-4
t0.5 -3.5t0.5 -2.5q1 -2 2 -2h2q7 0 9.5 3.5t3.5 8.5t1 10t3 7l3 41q0 2 1.5 2.5t2.5 0.5q3 0 3 -3v-33q-1 -4 -2 -8.5t-1.5 -8.5t-1.5 -8t-4 -7q-2 -4 -6 -6.5t-8 -4t-7 -3t-4 -3.5v-5v-4q0 -2 2 -3l14 -2t12 -4.5t8 -9t3 -14.5q0 -2 -1.5 -3.5t-2.5 -1.5q-3 0 -4.5 2t-2 5
t-1.5 6.5t-3 6.5t-6 5t-11 2q-5 0 -6 -2.5t-1 -7.5v-5.5v-7t1 -6.5t4 -4q3 0 6.5 -1t7.5 -2.5t7 -3.5t5 -5q0 -18 1 -35t1 -35v-1q-1 -1 -2.5 -2t-3.5 -1v0v0q-1 1 -3 2l-2 1v18l-0.5 1l-0.5 1q0 1 -1 1v0q-1 0 -1 -1q-1 0 -3 -1l-4 -2t-4.5 -2t-2.5 -2q-1 0 -2.5 -0.5
t-2.5 -0.5v-6q0 -5 -0.5 -9.5t-1.5 -8.5t-4 -4q-1 0 -2 0.5t-1 1.5v23l-1 1t-2.5 2t-3 2.5t-2.5 1.5q0 1 -2.5 2t-3.5 1h-1q-3 0 -4.5 -2t-2 -5t-0.5 -6v-4q-1 -1 -2.5 -2t-2.5 -1q-2 0 -4 2t-2 3v2q0 1 1 5t1.5 8.5t1.5 8t1 4.5q1 12 0.5 21t1 15.5t7.5 10t20 4.5l2 3v30
h-14q-2 0 -4 -3t-3 -7t-2 -7.5t-1 -5.5h-1h-2h-2.5t-1.5 1v8q0 1 0.5 5t1.5 7t3 6t5 3h21v18q-11 3 -16.5 11t-7.5 17.5t-1.5 20.5t0.5 19v13zM148 121v25q0 5 4 8.5t8.5 6t8.5 4t4 3.5q1 3 1.5 10t1.5 16t2.5 19t4 18t5.5 13t8 5q1 0 2.5 -1t1.5 -2v-1q-4 -6 -7 -15
t-4.5 -18.5t-2.5 -19t-1 -16.5v-13q3 -3 4 -8t1 -10t0.5 -10t2.5 -9q1 -4 2.5 -8l3 -8l3 -8t1.5 -8q0 -7 -3.5 -10.5t-8.5 -6.5t-8.5 -5.5t-3.5 -6.5t1.5 -6.5t3.5 -4.5l4 -4t2 -6q0 -2 -1 -3t-4 -1q-8 0 -15.5 1t-16.5 1q-3 1 -6 2.5t-3 5.5v1.5t1 1.5h24q2 0 2 3v2
q0 6 -2 10.5t-4.5 9.5t-5 9.5t-3.5 9.5q-1 2 -1.5 5t-1.5 6.5l-2 7t-3 5.5zM156 143q0 -1 -0.5 -4l-0.5 -3v-6q0 -3 0.5 -7t2 -6.5t4.5 -2.5l4 1.5l8 3t7.5 3.5t3.5 3t-1 6t-3 11l-3.5 10.5t-2.5 5.5q-7 -1 -12 -5t-7 -10zM163 101q0 -2 1.5 -4.5t3 -5.5t3.5 -6t2 -4h2
q19 0 19 17q0 4 -2 8l-4 8h-2q-2 0 -6 -1t-7.5 -3t-6.5 -4t-3 -5zM71 95q0 -1 0.5 -1.5l0.5 -0.5q0 -1 2.5 -1.5l2.5 -0.5h43q1 0 1 0.5t1 1.5v0q0 4 -3.5 6t-7.5 3t-8 1.5t-6 0.5h-7t-8 -1t-7.5 -2.5t-3.5 -5.5zM68 78q0 -2 0.5 -3t3.5 -1l36 -3q1 -1 2.5 -1.5t2.5 -0.5v0
q3 0 6 1.5t3 4.5q0 2 -1.5 4t-3.5 4q-11 -1 -20.5 0t-19.5 1h-7q-1 -1 -1.5 -3t-0.5 -3zM70 63q1 -2 4 -5t6.5 -5.5t7.5 -4.5t6 -2h1.5h1.5l22 12l1 1v1v1l-1 1q-10 -1 -19 1t-18 2h-6t-6 -2z" />
</svg>
