<?xml version="1.0" standalone="no"?>
<!DOCTYPE svg PUBLIC "-//W3C//DTD SVG 1.1//EN" "http://www.w3.org/Graphics/SVG/1.1/DTD/svg11.dtd" >
<svg xmlns="http://www.w3.org/2000/svg" xmlns:xlink="http://www.w3.org/1999/xlink" version="1.1" viewBox="-10 0 266 256">
   <path fill="currentColor"
d="M179 168q1 4 2 11t1.5 16t1.5 19t3 18t5 13.5t7 5.5t5 -1.5t1 -4.5v-2q0 -2 -1 -2q0 -1 -1 -4t-2.5 -6.5t-2.5 -6.5t-1 -4q-1 -2 -2 -6t-2 -8.5t-2 -8t-1 -4.5v-2v-4.5v-4.5v-4q0 -11 2 -21.5t5 -20.5t7 -20l8 -20q1 -1 1.5 -3.5t0.5 -3.5q0 -6 -4 -10.5t-9 -8t-9 -5.5
t-4 -4q0 -3 1 -4.5t2.5 -3t2.5 -3.5t1 -4q0 -6 -3.5 -8.5t-8.5 -3t-10 -0.5h-8q-1 0 -3 0.5t-3.5 1l-3 1t-1.5 2.5v2.5t2 1.5h22l3 3v2v3q0 3 -2.5 9t-6 12.5t-6.5 12.5t-4 11l-0.5 3t-1.5 3q-1 4 -3 7.5t-3.5 7l-3 7t-1.5 8.5q0 7 2.5 12.5t7 9.5t10 7.5t10.5 6.5zM56 149
l0.5 1l0.5 1v5.5t0.5 7t0.5 6.5v3q0 2 0.5 8t2 12.5t4 12t6.5 5.5h39q1 0 3 -1t4.5 -1.5t4.5 -1.5t4 -1q4 -2 5 -6t1 -7q0 -7 0.5 -12t0.5 -9.5t0.5 -9t0.5 -10.5v-11q-1 -3 -2 -4t-4 -1t-3.5 2t-0.5 5v5.5t-3 3.5q-1 0 -2.5 0.5t-3.5 0.5t-4 0.5l-2 0.5h-2q-5 0 -7 -2.5
t-3 -6t-1.5 -7.5t-1.5 -7h-1v0q-1 0 -2 0.5t-2 1.5v7v6q0 2 1 5t2 5.5t4 3.5q3 0 8 -0.5t9.5 -0.5t7.5 2t3 7v5q-10 2 -19.5 2h-19.5h-14l-3 -2v-31q0 -1 -2 -1h-3q-7 0 -7 8zM72 199l-2 -4t-1 -4t6 -4t13.5 -2.5l15 -1t9.5 -0.5h8q2 1 2.5 2.5t0.5 3.5q0 6 -4 8.5t-9.5 3
t-11 0.5h-8.5q-6 0 -9.5 -0.5t-9.5 -1.5zM157 130q0 -5 3 -11l5 -10h1h1l1 0.5t2 0.5q3 3 6.5 5t6 4t4.5 5t2 8q0 1 -1 5t-2.5 8t-3 7t-2.5 3q-3 0 -7 -2.5t-7.5 -6t-6 -8t-2.5 -8.5zM45 92q0 8 2.5 13.5t7.5 8.5t11.5 4.5t13.5 1.5h15t18 -2t16 -6.5t9 -12.5v-10
q0 -5 -0.5 -9t-2 -7t-4.5 -5.5t-9 -4.5h-4.5t-7.5 -0.5t-7.5 -0.5h-5.5v0q-8 0 -17 1t-17 4t-13 9t-5 16zM172 96q-1 -2 0.5 -5.5t4 -7.5t4.5 -7t4 -3q3 0 6 2t5.5 5t3.5 6t1 7q0 2 -0.5 5.5t-2 7t-3 6t-2.5 2.5q-3 0 -6 -2t-6.5 -5t-6 -6t-2.5 -5zM71 106v0q1 -5 2 -8.5
l2 -7t1 -6.5q0 -4 -1 -9q2 -2 3.5 -3t3.5 -1t4 1.5t2 3.5v33l-0.5 0.5l-0.5 0.5q-1 0 -3.5 0.5t-3.5 1.5h-1q-5 0 -8 -5v-1zM97 107q0 -4 -0.5 -7t-0.5 -5.5v-5.5v-6v-8q2 -3 5 -4t6 -1h2q2 0 3 2v4v6.5t0.5 7t0.5 4.5t0.5 2t1 2.5t1 3.5l0.5 2v1v1l-0.5 1t-0.5 2
q-2 0 -5.5 0.5t-4.5 0.5h-2q-3 0 -6 -3zM55 93q0 -4 2 -9t6 -5q3 0 4 2t1 4t-0.5 5l-1 6t-2 5.5t-3.5 2.5q-3 0 -4 -1t-1.5 -3t-0.5 -4v-3zM119 85v-3t0.5 -4t1.5 -3.5t2 -1.5q3 0 4.5 2.5t2.5 5.5t1.5 6t0.5 5q0 3 -2 6t-4 4h-1q-2 0 -3 -2t-1.5 -5l-1 -6t-0.5 -4zM73 16
q-3 0 -4 2.5t-0.5 6t0.5 7t-2 5.5q-1 2 -4.5 5t-7.5 6.5t-7 6.5t-3 6q6 0 12.5 -2.5t11.5 -7t8 -11t3 -13.5q0 -4 -1.5 -7.5t-5.5 -3.5zM102 25q0 15 6 21t22 6h2h3q2 -1 2.5 -2t0.5 -3q0 -3 -3.5 -3.5t-8.5 -1t-9 -3t-5 -9.5q-1 -1 -1 -3.5t-0.5 -5t-0.5 -5v-3.5t-1.5 -1
h-2.5h-2.5t-1.5 1v12z" />
</svg>
