<?xml version="1.0" standalone="no"?>
<!DOCTYPE svg PUBLIC "-//W3C//DTD SVG 1.1//EN" "http://www.w3.org/Graphics/SVG/1.1/DTD/svg11.dtd" >
<svg xmlns="http://www.w3.org/2000/svg" xmlns:xlink="http://www.w3.org/1999/xlink" version="1.1" viewBox="-10 0 266 256">
   <path fill="currentColor"
d="M140 244q0 1 1 2t2 1h1v0q3 -2 4 -2.5t1 -3.5q0 -17 -2 -34t-3 -34q-1 -25 -1.5 -50.5t-0.5 -51.5q-1 -1 -1 -3.5t-0.5 -4.5t-0.5 -4v-2l-5 -5h-40l-3 -2v-3v-4q0 -4 0.5 -7.5t1.5 -6.5t4 -5t7 -2t4.5 3.5t1 7.5t1 7.5t4.5 3.5h21q1 0 1 -1.5v-2.5q0 -3 -2.5 -3.5
t-4.5 -0.5t-4 0.5t-4 0.5q-4 0 -5 -2.5t-1 -5.5q0 -2 0.5 -4t2.5 -3h3.5t4.5 -0.5t4.5 -0.5h2.5q3 -1 3.5 -1.5t0.5 -2.5t-0.5 -3.5t-3.5 -0.5h-9q-8 0 -17 0.5t-17 3.5q-6 3 -7.5 8.5t-1.5 11.5t-0.5 10.5t-4.5 4.5q-1 0 -3 -1t-3.5 -2t-3 -2.5t-1.5 -2.5v-20q0 -1 -0.5 -2
t-1 -1.5t-2 -1.5t-1.5 -2v0h-1q-1 1 -2 1.5l-1 0.5v26l0.5 1.5l0.5 1.5q3 5 5.5 7t5 2.5t6.5 0.5h8q0 10 -1 13t-3.5 3h-6.5t-9 4q-2 0 -4.5 3t-3.5 6v9t-0.5 14t-0.5 13.5v9.5v2v1q0 1 0.5 4t0.5 4v21v22v9t-0.5 13t-0.5 13.5v9.5q-1 3 -1.5 5t-0.5 5q0 2 1 3t3 1t3.5 -0.5
t1.5 -2.5l3 -25v-10.5v-16.5v-18v-19v-17v-10q0 -2 0.5 -7t0.5 -10t0.5 -10t0.5 -7q0 -3 1.5 -5t3.5 -3.5t4.5 -3t4.5 -1.5t3 3.5l2 7t3 7t5 3.5h28q2 0 3 -2t1 -4v0q0 -1 -1 -1.5t-2 -0.5h-25q-3 0 -4.5 -3t-1.5 -6v-1v-1q1 0 3 -1.5t3 -1.5h4h6h5.5h4.5q1 0 3 -1t2 -3v-1
l-0.5 -1.5l-0.5 -1.5h-28q-2 0 -2 -3v-4t0.5 -3t2.5 -2h37q1 0 1.5 2.5t0.5 3.5v9v6t0.5 8.5t0.5 8.5v5v34q0 1 0.5 2.5t0.5 3.5t0.5 4t0.5 3v4v9v8v5t0.5 3.5t1 6t1 6.5t0.5 4l-1 2.5t-1 3.5l0.5 2.5t0.5 5t0.5 5l0.5 2.5v6v8v9v5zM176 151q-1 10 0 18.5t2.5 16.5t3.5 16.5
t4 16.5q1 3 1 7.5t1 8.5t3.5 7.5t5.5 3.5t4.5 -2t1.5 -5v-1q-1 -4 -2.5 -8.5t-3.5 -9t-3.5 -9l-2.5 -7.5q-4 -10 -5 -20.5t-1 -21.5q0 -13 1.5 -27t4.5 -27q1 -5 2.5 -9.5t3 -9.5t2.5 -10t1 -10v-8q-2 -3 -6 -4.5t-8 -2.5t-7 -2t-3 -3t1 -4t2.5 -4.5t2.5 -4.5t1 -5v-2
q0 -2 -1 -2t-4.5 -0.5t-4.5 -0.5q-3 0 -5.5 0.5t-5.5 0.5t-5.5 0.5t-6.5 0.5q0 1 -0.5 2l-0.5 1q0 1 1 2t2 1h16q2 0 2 2v3q0 4 -1 8.5t-2.5 9t-3 8t-2.5 6.5q-4 13 -6 27.5t-2 27.5v2v3v3.5v1.5q1 3 3.5 5.5t6 4.5t7 3.5t6.5 1.5zM76 241q0 1 1 2t2 1v0v0h1v0q1 0 2.5 -1.5
l1.5 -1.5v-17q0 -2 3.5 -2.5t5.5 -0.5h2t2 1v21l1 0.5l1 0.5h1v0h1v0l0.5 -0.5l0.5 -0.5q1 -4 1 -7.5t1 -7t3 -5.5t6 -2h2.5h2.5q1 2 1 5v8t0.5 7t3.5 3t4 -2.5t1 -5.5v-3q0 -1 -0.5 -5t-0.5 -8.5t-0.5 -8.5t-0.5 -6q-2 -3 -2 -6.5t0.5 -7.5t0.5 -7.5t-2 -7.5
q0 -1 -2.5 -3.5l-2.5 -2.5h-33l-3 2l-1 1.5t-1.5 3.5t-1 4.5t-1.5 3.5v2v7.5t-0.5 12.5t-0.5 12.5v7.5v7v7zM88 212l10 -11h0.5h0.5q3 0 7 3t4 6v2q-2 1 -5.5 1.5t-6.5 0.5h-6h-4v-2zM107 193q0 -1 0.5 -2.5t1.5 -3t2 -2.5t3 -1q1 0 2 1.5t1.5 3.5t0.5 4v3q0 2 -1 4.5
t-3 2.5t-3 -1t-2 -3t-1.5 -3.5t-0.5 -2.5zM88 189q2 0 3 1.5t1 3.5q0 3 -2 4.5t-4 1.5v-5v-5l0.5 -0.5t1.5 -0.5zM93 176h11q1 0 1 2v2q0 3 -1.5 6t-4.5 3q-2 0 -3 -1.5t-2 -4t-1 -4.5v-3zM81 144q0 7 3.5 10.5t10.5 3.5q6 0 11 -0.5t9 -2.5t6 -6t2 -11q0 -2 -1 -3.5
t-3 -2.5t-4.5 -1.5t-3.5 -0.5h-7t-8.5 0.5t-8 2t-5.5 5.5l-0.5 2.5t-0.5 3.5zM92 145v-3t2 -3h2t3.5 -0.5t3.5 -0.5h2h1q7 0 7 6v3.5t-3 2.5q-1 0 -2.5 0.5t-3.5 0.5h-3.5h-2.5h-2q-3 0 -3.5 -2t-0.5 -4zM161 119v-4v-6t1 -5t2 -2q4 0 9 2t9 3v3q0 1 -0.5 6t-1 10.5t-2 10
t-4.5 4.5q-4 0 -6.5 -2t-4 -5t-2 -7t-0.5 -8zM80 118v1.5t2 1.5h6h7h7t9.5 -0.5t8.5 -2.5t4 -7h-3.5h-2.5q-3 0 -8 0.5t-10.5 1t-10.5 1t-7 0.5q-2 1 -2 2v2zM165 93v-5q0 -3 0.5 -7.5t2 -9t4 -7.5t5.5 -3q2 0 4.5 0.5t4.5 2t3.5 3t1.5 3.5q0 3 -0.5 7t-1.5 8.5t-2.5 7.5
t-4.5 3h-3t-4 -0.5t-4 -0.5h-3q0 -1 -1 -1.5t-2 -0.5z" />
</svg>
