<?xml version="1.0" standalone="no"?>
<!DOCTYPE svg PUBLIC "-//W3C//DTD SVG 1.1//EN" "http://www.w3.org/Graphics/SVG/1.1/DTD/svg11.dtd" >
<svg xmlns="http://www.w3.org/2000/svg" xmlns:xlink="http://www.w3.org/1999/xlink" version="1.1" viewBox="-10 0 266 256">
   <path fill="currentColor"
d="M100 247q0 2 1 3t3 1q7 0 13.5 -4.5t12.5 -12t11 -16t9 -17.5t6 -17t2 -13q0 -8 -2.5 -12.5t-7 -6.5t-9 -2.5l-9 -1t-7 -2.5t-2.5 -7q0 -3 0.5 -5.5t3.5 -4.5q2 0 4.5 -0.5l5 -1t5.5 -1t4 -1.5q13 1 27.5 0.5t27.5 -1.5q2 -1 3.5 -2t1.5 -3q0 -4 -2.5 -5t-5.5 -1
q-4 0 -8 1.5t-9 1.5q-1 0 -3.5 -0.5l-2.5 -0.5h-2.5t-3 0.5t-3 0.5h-1.5q-2 0 -6 0.5t-8.5 0.5t-8.5 0.5t-5 0.5q-9 0 -19 0.5l-20 1t-20.5 0.5t-18.5 -1q-4 2 -4 6q0 1 1 2.5t3 2.5h2h3q11 0 22 -2.5t22 -2.5q3 0 3.5 1t0.5 4t-1 6.5t-1 7.5t3 7t7.5 4.5t9.5 2.5t9.5 1.5
t7 2t2.5 4.5q0 9 -3 18t-8 17.5t-11 16.5t-12 14q-1 2 -3.5 3.5t-4.5 3t-3.5 3.5t-1.5 5zM72 63q0 6 2 13t5.5 13.5t9 10.5t13.5 4h44q4 -2 9 -2.5t10.5 -2t10 -3t6.5 -4.5q4 -5 5.5 -9.5t2.5 -8.5t1 -8.5v-10.5v-14q0 -2 -2 -5t-4.5 -5.5t-5.5 -4.5t-6 -2h-32q-2 0 -2.5 -2
t-0.5 -5t-1.5 -5.5t-4.5 -2.5t-4 2.5t-1.5 5.5t-1 5t-3.5 2l-33 4q-6 0 -9 4t-5 9.5t-2.5 11t-0.5 10.5zM97 93q-5 -4 -8.5 -10t-3.5 -13v-3h4.5t7.5 -0.5t7.5 -0.5h5.5h2h5h5t3.5 1t1.5 4q0 6 -1 12.5t-4 12.5h-1v0q-1 0 -4.5 -0.5t-7.5 -1t-7 -0.5t-5 -1zM173 64
q2 0 4 1.5t3 3.5v0q0 8 -4 12.5t-10 7.5t-13 4.5t-13 1.5v0q-1 0 -2 -0.5t-1 -1.5v-19q0 -4 3 -5l6 -2q1 0 5 -0.5t8.5 -1t8.5 -1t5 -0.5v0zM83 51q0 -6 4 -9.5t9 -5t11 -2.5t11 -1q1 0 3.5 0.5l2.5 0.5l3 3v16q0 1 -1 1.5t-2 0.5q-1 1 -2.5 1.5t-2.5 0.5h-34q-2 0 -2 -2.5
v-3.5zM138 54v-7q0 -3 0.5 -6t2.5 -5.5t6 -2.5q3 0 9 1t11.5 3t10 5.5t2.5 9.5q0 1 -1 3t-2 2h-36q-2 0 -2.5 -1t-0.5 -2z" />
</svg>
