<?xml version="1.0" standalone="no"?>
<!DOCTYPE svg PUBLIC "-//W3C//DTD SVG 1.1//EN" "http://www.w3.org/Graphics/SVG/1.1/DTD/svg11.dtd" >
<svg xmlns="http://www.w3.org/2000/svg" xmlns:xlink="http://www.w3.org/1999/xlink" version="1.1" viewBox="-10 0 266 256">
   <path fill="currentColor"
d="M198 249q1 1 2 1h3q3 0 5 -2t3 -6l-0.5 -1.5t-1 -3.5t-1 -3.5t-1.5 -2.5l-5 -12.5t-6 -15.5t-5 -16t-2 -13v-2q4 -3 6.5 -6t4 -6.5t2.5 -7.5t1 -10t-2.5 -9.5t-6 -5.5t-8 -3t-8.5 -1h-43l-0.5 0.5t-0.5 1.5q-1 0 -1 1.5v2.5h10.5t11.5 0.5t11.5 0.5t9.5 1q7 0 11.5 2.5
t4.5 10.5v4.5t-1 5t-2.5 4t-3.5 1.5q-1 0 -2.5 -2t-3.5 -4l-4.5 -4.5t-4.5 -3.5h-16h-11t-12 2v0v1q0 1 1 2t2 1l2.5 0.5l2.5 0.5q4 0 8.5 -1t8.5 -1q3 0 6 0.5t5.5 1.5t4 3t1.5 6q0 3 -0.5 5.5t-4.5 2.5l-50 6l-0.5 0.5l-1.5 1.5v1v1q1 0 2 1l2 2h7q10 0 21.5 -1.5
t21.5 -3.5l2.5 -1.5t3.5 -1.5q2 0 4.5 5t4.5 13t4.5 17t4 17.5t3 14.5t1.5 8zM115 209q0 6 6 6q7 0 13.5 -2t13.5 -3q2 0 6.5 0.5t9.5 0t8.5 -2t3.5 -4.5v-2q0 -2 -2 -3h-5h-5q-12 0 -23 2.5t-23 2.5q-1 1 -2 2.5t-1 2.5zM47 142q2 8 4.5 12.5t7 6.5t10.5 2.5t13 0.5h3h4.5
h4.5h4q9 -3 14 -9.5t7 -15t2.5 -17.5t1.5 -18v-3v-4v-5v-4v-3v-5.5v-4.5v-3q-1 -1 -1.5 -2t-0.5 -1.5t-0.5 -2.5l-0.5 -2q-4 -6 -10 -8.5t-12.5 -3.5t-13.5 -1h-13q-7 0 -11.5 4t-7 10t-3.5 13.5t-1.5 15t-0.5 14.5v12v4v6.5v7.5v4zM56 119q0 -1 0.5 -4l0.5 -3l1 -2h3h4h4.5
h5t4.5 1t3 4v7q0 3 0.5 8.5t0 11t-2.5 9.5t-6 4q-6 0 -10 -3.5t-5.5 -9t-2 -11.5t-0.5 -12zM90 148v-3v-9t0.5 -10.5t0.5 -9v-3.5l2 -1h17q1 0 2 1t1 2.5t0.5 3t0.5 2.5q0 4 -1 10t-3 11t-6 8.5t-10 3.5q-2 0 -3 -2t-1 -4zM196 108l2 2l3.5 -1t5.5 -2t2 -2v-2v-2.5t-2 -1.5
h-31l-1.5 -0.5t-1.5 -1.5l-1 -0.5l-1 -0.5v-13q10 -4 16 -8t9 -9.5t4 -13.5t1 -19q0 -3 -2 -5.5t-5 -2.5h-1t-1 1l-3 31q-1 6 -6 11t-10 5v-55q0 -3 -2 -4t-4 -1q-3 0 -4 1t-2 4v3q0 2 -0.5 4t-0.5 4v3q0 9 1 18t1 19v3t-0.5 3.5t-1.5 3t-3 1.5q-4 0 -6.5 -3t-4 -7.5
t-2 -9.5t-1 -9.5t-2 -7.5t-4.5 -3t-4 1t-1 4t0.5 8t2 10l3 10t4.5 8q1 2 4.5 3.5t6.5 3t5.5 3.5t2.5 5q0 4 -5.5 4.5t-11.5 0t-11.5 0t-5.5 4.5v0l2 2t2 1h65zM58 100v-3v-4v-10.5t1.5 -10t5 -7.5t10.5 -3q3 0 6 2t3 5v1q-1 3 -1 8q0 6 -0.5 11t-2 9t-4.5 4q-5 0 -9 -0.5
t-9 -1.5zM91 93q0 -7 1 -13.5t1 -14.5l1 -1h15l1 3t2 7.5t1.5 8.5t0.5 6v3t-0.5 4.5t-1 4t-2.5 1.5h-16l-3 -3v-6z" />
</svg>
