<?xml version="1.0" standalone="no"?>
<!DOCTYPE svg PUBLIC "-//W3C//DTD SVG 1.1//EN" "http://www.w3.org/Graphics/SVG/1.1/DTD/svg11.dtd" >
<svg xmlns="http://www.w3.org/2000/svg" xmlns:xlink="http://www.w3.org/1999/xlink" version="1.1" viewBox="-10 0 266 256">
   <path fill="currentColor"
d="M180 206v1q3 9 6 19t7 19q1 2 2.5 2.5t3.5 0.5h3.5t1.5 -3q0 -5 -2.5 -8.5t-4.5 -7.5q-2 -6 -4 -13.5t-2 -14.5t1 -13.5t2.5 -13.5t2.5 -14t1 -14q0 -16 -13 -24q-2 1 -2 2v3q0 3 1 6t2.5 6t2.5 6t1 6q0 7 -1.5 14t-3.5 13.5t-3.5 13.5t-1.5 14zM135 239q0 3 1 4.5t3 1.5
t2.5 -0.5l1.5 -1.5v-6q0 -10 -2 -20t-2 -20q0 -6 1 -12.5t2.5 -13.5t2.5 -13.5t1 -13.5v-4.5t-0.5 -7.5t-1.5 -7t-4 -3q-2 0 -2 1.5v2.5q0 5 0.5 10t0.5 11t-1 12.5t-2.5 13l-3 13t-1.5 14.5v6v4q0 2 0.5 6t1 8.5l1 9t1.5 5.5zM162 241q1 2 2.5 3t3.5 1q3 0 3.5 -2.5
t0.5 -4.5q0 -5 -2 -9t-3 -8q-1 -5 -1.5 -8.5t-0.5 -6.5v-6v-8v-6v-5t0.5 -4.5t1.5 -5.5q1 -6 3.5 -10.5t2.5 -10.5q0 -4 -1 -8l-2 -8t-2 -7.5t-1 -5.5q0 -4 4 -5.5t9.5 -3.5t9.5 -5.5t4 -10.5q0 -4 -2 -6.5t-5.5 -3.5t-7 -1.5t-6.5 -0.5v2l7.5 4.5t2.5 7.5q0 3 -1.5 5
t-4 3.5t-6 2t-5.5 0.5t-5.5 -1t-6.5 -2.5t-5 -4t-2 -5.5q0 -5 3 -7.5t7 -5l8 -5t5 -6.5l0.5 -2.5t0.5 -5t0.5 -5l0.5 -2.5q0 -2 1 -3.5t3 -1.5q4 0 8 2t7.5 5l7 6t5.5 5l1 0.5t2 0.5q2 0 3 -1.5t1 -4.5q0 -6 -6 -9.5t-13 -6.5t-13 -6t-6 -8q0 -3 1 -5.5t1 -4.5t-0.5 -4
t-1 -4.5t-2 -4.5t-3.5 -2t-4 2t-2 5v2q0 1 0.5 4t0.5 6.5t0.5 6.5t0.5 4v0v1l-1.5 1.5l-0.5 0.5q-6 2 -11 4t-10 4.5t-9.5 5t-9.5 7.5q-1 0 -1.5 0.5l-0.5 0.5q0 3 1 3.5t3 0.5q5 0 9 -2.5t8.5 -6t9 -6t9.5 -2.5h2.5t1.5 1v6q0 8 -4 12.5t-8.5 8t-8.5 7t-4 9.5q0 7 3 10t7 5
t7.5 4t3.5 6v6q1 5 3 8.5t2 8.5q0 7 -1.5 13.5t-3.5 12.5t-3.5 13t-1.5 13q0 11 2.5 23t4.5 22zM47 196q2 4 1.5 7.5t0.5 8.5q0 10 4 15t9.5 7t12 2.5t14.5 2.5h1h4.5t7 -0.5t7 -2t3.5 -3.5l-0.5 -1t-1.5 -1q0 -1 -1.5 -1.5l-1.5 -0.5h-21l-5 -5v-26q0 -3 4 -6t9 -6.5
t9.5 -7t5.5 -7.5q1 -6 1 -11v-9v-10v-12l0.5 -2t0.5 -4.5t0.5 -4.5t0.5 -3v-9v-4t-0.5 -5.5t-1.5 -5t-3 -2.5q-1 0 -2.5 1.5l-2.5 2.5q1 17 0.5 35t-1.5 36q0 2 -2 5t-4 5.5t-4.5 4.5t-4.5 2q-1 0 -2 -0.5t-1 -1.5q-1 0 -1 -3v-3q0 -19 3 -38.5t3 -38.5q0 -7 -4.5 -12
t-9.5 -10t-9 -10t-4 -11t2.5 -9t6 -4.5t8 -2t8.5 -0.5q3 0 6.5 1t6.5 2.5t5.5 4t2.5 7.5q0 4 -2.5 7t-5 5.5t-5 5.5t-2.5 7q6 0 10 -2.5t7 -7t4.5 -9.5t1.5 -10q0 -7 -3.5 -11t-8.5 -5.5t-10.5 -2t-10.5 -0.5q-2 0 -6 0.5l-8 1t-7.5 2.5t-5.5 5q0 1 -0.5 3.5t-1.5 5t-1.5 5
t-1.5 3.5v0.5v1.5q0 6 2 9.5t5 6t7 5t7 6t5 8.5t2 13q0 27 -1.5 55t-3.5 55q0 2 -0.5 5.5t-1 3.5t-2 0.5t-2.5 0.5l-1.5 -0.5t-2.5 -0.5q-3 -7 -4 -15t-1 -16v-16v-15q-1 -1 -1 -1.5v-1.5q0 -4 0.5 -10t1 -11.5l1 -11t0.5 -9.5q0 -1 -0.5 -3t-2 -3.5t-2.5 -3t-3 -1.5t-3.5 2
t-1.5 4v84z" />
</svg>
