<?xml version="1.0" standalone="no"?>
<!DOCTYPE svg PUBLIC "-//W3C//DTD SVG 1.1//EN" "http://www.w3.org/Graphics/SVG/1.1/DTD/svg11.dtd" >
<svg xmlns="http://www.w3.org/2000/svg" xmlns:xlink="http://www.w3.org/1999/xlink" version="1.1" viewBox="-10 0 266 256">
   <path fill="currentColor"
d="M86 246q0 3 2.5 4t5.5 1h2h2l1 -4v-1v-3v-4v-3q0 -7 -1 -13t-1 -13q0 -23 1.5 -46.5l3 -47t2.5 -46.5t1 -47q0 -1 -0.5 -4.5t-0.5 -4.5q-1 -1 -2 -1.5l-1 -0.5h-1q-1 0 -4 2t-3 3v27q0 2 -1.5 5.5t-2.5 4.5l-3 0.5t-5 0.5v0h-1q-1 0 -3.5 -0.5l-2.5 -0.5v-24
q0 -1 -1.5 -1.5t-2.5 -0.5h-0.5h-0.5l-3.5 3.5l-3.5 3.5q1 14 1 26q0 13 -2 26q-1 1 -1.5 3.5t-0.5 3.5q0 2 1.5 3.5t3.5 1.5h0.5h1.5q0 -1 2.5 -3.5l3.5 -3.5v-10t1 -8.5t3.5 -5.5t9.5 -2q4 0 5 2t2 7q-1 1 -1 5.5t-0.5 9t-0.5 8.5v6v4v7v7v4q0 3 -2 5t-5 2.5t-6 0t-5 -0.5
q0 -1 0.5 -5t0 -8.5t-1.5 -8t-5 -3.5q-2 0 -4 1t-2 4q1 27 -1 55t-11 54q1 2 2 2.5t3 0.5q6 0 9 -6t4 -15t1 -20q0 -10 1.5 -19.5t5 -15.5t11.5 -6h3q1 1 1.5 4t0.5 4v2.5t-0.5 3.5t-1 3.5t-0.5 2.5v46q-3 8 -3 18v19zM115 243q0 2 1 5t5 3q6 0 9 -7v-12q0 -9 -1 -18.5
t-1 -19.5q0 -19 0.5 -38t1.5 -37v-12t0.5 -14t3.5 -13t8 -10q6 -4 11.5 -6t11.5 -2q0 29 2.5 57t5.5 56q0 1 0.5 3.5t0.5 3.5t0.5 5t1 9t1 9.5t0.5 5.5q1 2 2 6t2.5 9t2.5 9t1 6q2 3 3 4t4 1t4.5 -3t1.5 -6v-1v-1q0 -1 -0.5 -2t-1 -2.5t-1 -2.5l-0.5 -1q-2 -12 -5 -26
t-5 -26q0 -2 -0.5 -8.5t-1.5 -14.5t-1.5 -15.5t-0.5 -10.5v-1v-3v-3v-1q-1 -10 -2.5 -19t-1.5 -19q0 -9 2.5 -13.5t5.5 -6.5t7 -2h7t5 -2t2 -7l-0.5 -0.5t-0.5 -1.5q-1 0 -3 -1.5l-2 -1.5h-1h-1l-2 1t-4.5 1.5t-5 1.5l-2.5 1q-7 2 -13.5 2t-13.5 3q-13 4 -20 7t-11 7.5
t-5 12t-3 21.5q1 33 0.5 68t-3.5 68v5zM118 26q0 3 2 3.5t4 0.5h2h2l73 -8q1 0 3 -2t2 -3v-2v-1.5t-1 -1.5h-7q-9 0 -18.5 1l-19 2t-19 2.5t-16.5 2.5q-3 1 -5 2t-2 4z" />
</svg>
