<?xml version="1.0" standalone="no"?>
<!DOCTYPE svg PUBLIC "-//W3C//DTD SVG 1.1//EN" "http://www.w3.org/Graphics/SVG/1.1/DTD/svg11.dtd" >
<svg xmlns="http://www.w3.org/2000/svg" xmlns:xlink="http://www.w3.org/1999/xlink" version="1.1" viewBox="-10 0 266 256">
   <path fill="currentColor"
d="M149 228q0 1 -0.5 5t0 8t2 7t5.5 3q2 0 3.5 -1.5t1.5 -3.5v-11.5v-11.5q0 -5 0.5 -10t1.5 -11q0 -1 0.5 -2.5t1.5 -2.5q5 -6 9.5 -10t9 -6.5t7.5 -5t5 -6.5t3.5 -10t1.5 -16v-16q0 -9 -2.5 -16t-7.5 -11.5t-16 -4.5h-43q-2 0 -2 2v2q0 3 3.5 4.5t9.5 1.5t13.5 -0.5
t14 -0.5t11 1t6.5 4q2 5 3 8t1.5 5.5t0.5 5.5v7q0 10 -1.5 16.5t-4 10t-6 6.5t-7.5 5.5t-8.5 6t-8.5 10.5q-3 3 -4.5 8t-2.5 10t-1 10v10zM87 232q0 3 2 4.5t5 1.5t4.5 -2.5t1.5 -5.5v-21q0 -49 -1 -97.5t0 -97.5q-2 -2 -5 -2q-2 0 -3 0.5t-2 2.5v27v5.5t-0.5 7t-0.5 5.5v3
l-2 1h-11q-3 0 -3 -3.5t-0.5 -7.5t-1 -7.5t-4.5 -3.5h-3t-2 2v36q-2 5 -2.5 12.5t-0.5 13.5q0 3 1 3.5t4 0.5q2 0 3.5 -1t2.5 -4l3 -24q0 -4 3.5 -5t6.5 -1h3t3 2q1 9 1 18v18v20v2.5t-0.5 3t-0.5 2.5v1h-18l-1 -1v-5.5t-0.5 -7t-2 -6.5t-5.5 -3q-2 0 -2.5 3.5t-0.5 4.5
q0 5 0.5 9t0.5 8q0 10 -0.5 20.5t-3.5 20.5l-3.5 7t-1.5 8q0 1 1 3t3 2q3 0 5.5 -1.5t3.5 -4.5t1.5 -6t1.5 -5q0 -2 0.5 -7t1 -10.5t1 -10.5t0.5 -7q1 0 4.5 -0.5t4.5 -0.5h2q2 0 4.5 0.5t3.5 2.5q0 8 0.5 14t0.5 11.5v11v11.5q0 8 -1 15t-1 14zM117 145q0 9 2 14t6 7
t10 2.5t15 0.5q3 0 7 -0.5t7 -2t6 -4t4 -5.5v-5.5v-4.5q0 -5 -1 -10t-1 -10v-2q1 0 2 -2t1 -3q1 0 1.5 -1t0.5 -2q-1 -2 -3 -2.5t-4 -0.5q-5 0 -9.5 0.5t-10.5 1.5l-3 -2h-22q-1 0 -2 -3t-1.5 -6l-1 -6t-0.5 -4q0 -4 2.5 -6t6 -3t7 -1t6.5 -1h8.5t11.5 -0.5t11.5 -0.5h8.5
l8 -4t4 -8t-2 -10.5t-9 -4.5h-41q0 1 -2.5 1.5t-3.5 0.5h-0.5h-0.5q-7 0 -8.5 -4t-2.5 -10q-1 -1 -2 -1.5t-2 -0.5v0q-3 0 -3 3v3q0 6 1.5 9.5t4.5 5.5t7 2.5t10 0.5t12 -1t13 -1h3l2 0.5t4.5 0.5t4.5 0.5t3 0.5v1v2q0 5 -5 6.5t-13 1.5t-17 -0.5t-16.5 1t-12.5 7t-5 17.5
q0 10 4.5 14.5t11.5 6t15.5 1.5h15.5q1 0 3.5 1t2.5 3q0 5 -3 8t-7.5 4t-9.5 1h-10h-3.5h-3.5h-2l-3 -8h-0.5h-1.5q-3 0 -5 3v9zM128 155l0.5 -1.5t1.5 -1.5l0.5 -0.5l1.5 -1.5q1 0 5 -0.5l8 -1l8 -1t5 -0.5h3q3 0 3.5 1.5t0.5 3.5q0 3 -1 4.5t-4 3.5h-5h-5h-5h-6.5t-6.5 -1
t-4 -4zM105 33v1q0 1 2 2t3.5 1h3.5h2h86q3 0 3 -1v-3v-4t-3 -1h-4.5h-6.5h-7h-5q-18 0 -36 1t-37 1l-1 3v0z" />
</svg>
