<?xml version="1.0" standalone="no"?>
<!DOCTYPE svg PUBLIC "-//W3C//DTD SVG 1.1//EN" "http://www.w3.org/Graphics/SVG/1.1/DTD/svg11.dtd" >
<svg xmlns="http://www.w3.org/2000/svg" xmlns:xlink="http://www.w3.org/1999/xlink" version="1.1" viewBox="-10 0 266 256">
   <path fill="currentColor"
d="M74 247q0 2 1.5 2.5t3.5 0.5q3 0 4 -1.5t2 -3.5t1 -5v-5v-7v-13v-13v-7q2 -80 5 -161q0 -3 0.5 -6.5t0.5 -6.5q0 -2 -1 -5.5t-3 -3.5q-3 -1 -4 2t-1 4v6.5v9.5v8.5v6.5q0 1 -1 3.5t-1 3.5h-7h-6t-6 -2q-1 -3 -1 -7t-1 -7.5t-3 -5.5t-6 -2v9v15t-0.5 15.5t-0.5 10.5v1.5
t-0.5 3.5t-0.5 3.5v2.5v1v0q0 1 1.5 2t1.5 2h1q3 0 4 -3t1.5 -7t0 -8.5t1 -8.5t4.5 -6.5t9 -2.5h3.5h3.5l0.5 0.5t0.5 1.5l0.5 2t0.5 3.5t0.5 3t0.5 2.5t-1 4t-1 4l-3 55l-4 3h-14l-0.5 -0.5l-0.5 -0.5q-1 -1 -1.5 -3l-0.5 -2v-24q0 -2 -1.5 -3.5t-3.5 -1.5t-3 1.5t-2 3.5
q0 3 0.5 8.5t0.5 13.5v16v16q0 7 -0.5 13t-0.5 9q0 1 -0.5 5t-1 9t-1 9.5t-0.5 5.5v4v1v2t0.5 2t1.5 1t2.5 -1t2.5 -2.5l2 -3t1 -2.5l5 -64q0 -1 0.5 -1.5l0.5 -0.5q2 -1 4 -1.5t4 -0.5t4 0.5t6 0.5v35q0 1 0.5 2t1.5 2v0v1q-1 0 -1.5 1.5l-0.5 1.5q0 1 -0.5 2.5t-0.5 4
t-0.5 4t-0.5 2.5q0 10 -1 20.5t-1 20.5zM158 162v82l0.5 0.5t1.5 0.5h1q4 0 5 -3.5t2 -6.5v-13v-14q0 -1 -1 -3.5t-1 -3.5l0.5 -2t0.5 -3.5t0.5 -3.5l0.5 -2v-34q0 -2 2 -2.5l4 -1t4.5 0t4.5 0.5q4 0 5 5t1 11.5v13t1 9.5v42q0 1 2 1h1q2 0 3.5 -2.5t2.5 -3.5v-21
q0 -9 -0.5 -19t-1.5 -20q0 -3 -1 -6.5t-1.5 -7t-1 -6.5t-1.5 -3l-2 -1h-19l-3 -4v-18l0.5 -0.5t1.5 -0.5q4 -1 8.5 -1.5t9.5 -0.5h9h8q1 0 1.5 -1.5t0.5 -2.5q0 -3 -3 -5t-5 -2q-6 0 -11.5 1.5t-11.5 1.5h-3h-2l-3 -3v-15q0 -2 2 -3.5t4.5 -1.5t5 0.5t3.5 0.5q5 -1 8 -3.5
t4 -6t1 -8.5v-9v-5.5t-0.5 -7t-1 -6.5t-2.5 -5h-0.5h-0.5q-3 0 -4 2.5t-1.5 6t0 6.5t0.5 5q0 1 -0.5 4t-0.5 6.5t-0.5 6.5t-0.5 4q-2 1 -4 1.5t-4 0.5h-1t-2 -0.5t-2 -0.5t-1 -1v-41q0 -1 -1.5 -3t-2.5 -2q-2 0 -2.5 1.5t-1 2.5t-0.5 2.5v1.5q0 24 -1.5 46t-0.5 45
q-1 4 -2 9t-1 8v1q0 1 0.5 5.5t0.5 5.5zM131 218q0 7 -1 13t-1 13q5 0 6.5 -1.5t3.5 -5.5q1 -47 3 -96.5t2 -97.5q0 -1 -1 -3t-3 -2t-3 1.5t-1 2.5v8.5v10t-0.5 10.5t-1.5 9l-0.5 1l-0.5 1h-12q-2 0 -3 -3t-1.5 -7t0 -9t0 -9t-1 -7t-2.5 -3t-3 1.5t-1 3v3.5v3q0 8 0.5 15
t0.5 15q2 2 5 3.5t6 1.5h6h6q1 1 1.5 2.5t0.5 3.5t-0.5 4l-0.5 2v4.5v2.5l-1 2q-10 0 -18.5 2t-17.5 2v1q0 3 2 4.5t4 1.5q7 0 13.5 -1t13.5 -1q3 0 3.5 1t0.5 5q0 7 -1 10.5t-3.5 5t-5 2t-6 1t-7 2t-6.5 6.5q-4 17 -4 34t-2 34v4v3q0 3 2 3t4.5 -3t3.5 -6q-1 -7 -0.5 -12.5
l1 -11l1 -11t1.5 -12.5v-7.5t1.5 -8t4 -6t7.5 -2.5t6.5 3t1.5 7q0 6 -1 11.5t-1 11.5q0 2 1 4.5t1 4.5q0 4 -2 6.5t-2 6.5q0 1 0.5 2.5t0.5 3.5t0.5 3.5l0.5 1.5v1zM99 22v1q2 3 5 4t7 1h1q15 -4 32 -4.5t33 -0.5q7 0 15 1.5t16 1.5q5 0 5 -5v-2.5t-2 -1.5l-2 -0.5t-4 -0.5
h-4h-2q-23 0 -45.5 1t-46.5 1q-1 0 -2 0.5t-2.5 1t-2.5 1t-1 1.5z" />
</svg>
