<?xml version="1.0" standalone="no"?>
<!DOCTYPE svg PUBLIC "-//W3C//DTD SVG 1.1//EN" "http://www.w3.org/Graphics/SVG/1.1/DTD/svg11.dtd" >
<svg xmlns="http://www.w3.org/2000/svg" xmlns:xlink="http://www.w3.org/1999/xlink" version="1.1" viewBox="-10 0 266 256">
   <path fill="currentColor"
d="M131 247q0 3 2 3.5t4 0.5h2q3 -4 5 -9.5l4 -11t3 -11t2 -9.5l1 -2h22q6 0 9.5 -3t6 -7.5t3.5 -10t2 -9.5t3 -8t2 -8q0 -1 -0.5 -3t-3.5 -3t-5 2t-3 7t-1.5 8.5t-0.5 5.5t-1 3t-1.5 4l-1 4t-1.5 3q-3 2 -6.5 4t-8.5 2h-3.5h-5t-4 -1t-1.5 -3v-6t1 -8t2.5 -7t4.5 -4h2
t3.5 -0.5t3 -0.5h2.5q2 -1 4 -4t3.5 -6t2 -6t0.5 -6q0 -5 -2.5 -9t-7 -6t-9.5 -2.5t-10 -0.5h-9q-3 1 -7 3.5t-6 5.5q0 1 -0.5 3t-0.5 3q0 5 1 9t3 6.5t5 5.5l7 7v2v3v5q0 2 -0.5 5t-2 5t-3.5 2q-4 0 -7.5 -0.5t-7 -2t-6 -4t-2.5 -6.5q-1 -6 -1.5 -13.5t-0.5 -14.5
q-1 -1 -2.5 -2t-2.5 -1q-2 0 -2.5 1.5t-1 3.5t-0.5 4v2q0 7 1 16t4 16q1 3 6.5 4.5t11 2.5t10 2t4.5 4q0 7 -2.5 15t-5.5 15q-2 4 -3.5 5.5t-1.5 5.5zM69 237q0 2 1.5 3.5t3.5 1.5t3.5 -2t2.5 -4q0 -1 0.5 -3l1 -4t1 -3.5t0.5 -2.5q2 -20 3 -41.5t1.5 -42.5t1 -42.5
t1.5 -42.5q1 -1 1 -5t0.5 -9t0.5 -9v-6l1 -1q4 6 11 6h3.5t5.5 -0.5t6 -0.5h5l3 -1l3 -1h23q3 0 10.5 -0.5t16 -1t16 -1t10.5 -0.5v-8l-1 -0.5t-2 -0.5h-7q-23 0 -47 2t-48 2h-8q0 -4 -2.5 -5.5t-6.5 -1.5h-1.5t-1.5 1q1 5 1.5 12t0 13t-3.5 10.5t-11 4.5q-2 0 -2.5 -3
l-1 -6t-1.5 -5.5t-4 -2.5h-1.5t-1.5 2v30q-1 1 -1.5 3.5l-0.5 2.5v3t0.5 4t0.5 4t1 3h1q2 0 3.5 -1t4.5 -2v-8.5t1 -8t3 -5.5t8 -2h1q2 4 2 10v11q0 11 -0.5 23t-1.5 24q0 1 -0.5 3t-0.5 3h-2.5h-2.5h-2.5h-1.5q-1 0 -1.5 -0.5t-0.5 -1.5v-32q0 -2 -2.5 -2.5t-3.5 -0.5
q-2 0 -4 1t-2 4l0.5 1.5t0.5 2.5t0.5 2t0.5 2v11q0 8 -1 15.5t-3 15.5q-1 11 -2 24t-5 24q1 1 2.5 2t2.5 1q3 0 4.5 -3l2.5 -5q0 -2 0.5 -7t1.5 -10.5t1.5 -10.5t0.5 -7q1 -3 1 -6t0.5 -5.5t2.5 -4t5 -1.5t5 1t2 4q0 14 -1.5 28.5t-1.5 29.5q-1 7 -3 14.5t-2 15.5zM139 148
q0 -7 5 -9t10 -2q3 0 6.5 0.5t6.5 2t5 4t2 5.5q0 4 -1.5 6.5t-4 4.5t-6 3t-6.5 1t-6 -1.5t-5.5 -3.5t-4 -5t-1.5 -6zM167 97q10 4 19.5 11t16.5 15h2q2 0 4 -0.5t2 -3.5q0 -2 -3 -5t-8.5 -7t-11.5 -8t-11.5 -7t-10 -5t-5.5 -2v-9q0 -1 3.5 -1.5t8 -1t9 -1.5t6.5 -4
q3 -6 4.5 -11.5t1.5 -12.5q0 -2 -0.5 -5t-4.5 -3q-2 0 -3 2t-1 5.5t-0.5 7t-2 7t-4.5 5.5t-9 2h-5q-3 -3 -3 -7t0.5 -7.5t0 -7t-4.5 -5.5q-1 -1 -5 -1h-5h-5t-4 1q-4 0 -9 0.5l-10 1t-8.5 1l-3.5 0.5l-1 1q4 4 4.5 8t1.5 9q1 7 4.5 10.5t8.5 4.5t9.5 0.5t9 -0.5t7 0.5
t2.5 3.5q0 1 -0.5 3.5t-2.5 3.5q-4 1 -13 5t-18.5 9t-16.5 10.5t-7 9.5q0 2 2 2h3q5 0 10.5 -4.5t12 -9.5t13.5 -9.5t14 -4.5q0 4 -1 8t-1 8q0 2 1 5.5t4 5.5q3 -2 4 -6t1.5 -8t1.5 -6.5t4 -2.5h1h2zM121 54q0 -4 2.5 -6t6.5 -2.5t8.5 -0.5h7.5t4.5 1.5t2 3.5t0.5 4v4
q0 1 -0.5 3t-1 3.5t-1 2.5t-2.5 1l-21 -1q-2 -1 -3.5 -2t-2 -3t-0.5 -4v-4z" />
</svg>
