<?xml version="1.0" standalone="no"?>
<!DOCTYPE svg PUBLIC "-//W3C//DTD SVG 1.1//EN" "http://www.w3.org/Graphics/SVG/1.1/DTD/svg11.dtd" >
<svg xmlns="http://www.w3.org/2000/svg" xmlns:xlink="http://www.w3.org/1999/xlink" version="1.1" viewBox="-10 0 266 256">
   <path fill="currentColor"
d="M116 248q0 2 1 2.5t3 0.5q5 0 8 -4.5t4 -10t1.5 -11.5t2.5 -9l6 -73h15l1 1l0.5 2t0.5 4t0.5 4.5t0.5 4.5v1v3v2v1q0 4 1 11t2 15.5t2 16t1 10.5q2 3 2.5 8t1.5 10t2.5 8.5t6.5 3.5q2 0 4 -1t2 -4v-1l-1 -1.5t-1.5 -2.5t-1 -1.5t-0.5 -1.5t-1 -4t-1.5 -6t-1.5 -6t-1 -4
q0 -4 -1.5 -13t-2.5 -19t-2.5 -19t-1.5 -13v-3q0 -2 0.5 -3.5t3.5 -2.5h21q1 0 4 -0.5t5.5 -1t4.5 -2t2 -3.5t-0.5 -3t-2 -1.5t-2.5 -0.5h-3h-1q-1 0 -1 1h-1.5t-3 0.5t-3 0.5h-2.5t-7.5 0.5t-14 0.5t-14 0.5t-8.5 0.5l-1 0.5t-2.5 0.5t-3 0.5l-1.5 0.5q-1 0 -4.5 -0.5
t-8 -1.5t-8.5 -1.5t-5 -0.5v0h-1v0h-2t-4 0.5l-4 1t-3 2.5v0v1v0q0 1 1.5 2l1.5 1h8.5t11 0.5t10 3t4.5 6.5q0 10 -1 19.5t-3 19l-4 19t-3 18.5q-1 5 -4 10t-3 11zM74 234q0 2 1 2.5t4 3.5h1q2 0 3.5 -1.5t1.5 -3.5q1 -2 1 -6t0.5 -8.5t0.5 -8.5v-6v-7v-12v-12v-7
q1 -37 3 -74.5t2 -75.5q0 -2 -1 -4t-4 -2t-5.5 2t-2.5 5q0 7 1 14t1 14v4t-0.5 4.5t-1.5 1.5h-2h-3t-4 -0.5t-3.5 -1t-1.5 -1.5v-21q0 -3 -3.5 -4.5t-5.5 -1.5q-6 0 -6 7t1.5 14t1.5 14q0 9 -1.5 17t-1.5 16q0 2 2 2.5t4 0.5q4 0 5.5 -5t1.5 -10.5v-10.5t3 -5h13q1 0 2 2
l1 2v6v5v11q0 7 -0.5 15t-1 14.5t-1.5 7.5q-2 1 -4.5 1.5t-4.5 0.5t-3 -0.5t-1 -3.5v-2.5v-5.5v-4.5v-3.5q-1 0 -3.5 -2.5l-3.5 -3.5h-1q-1 0 -2 1t-1.5 3t-1 3.5t-0.5 2.5q1 12 0 23.5t-2.5 22.5t-3 22.5t-1.5 23.5q0 1 0.5 2.5t1 2.5l1 2t2.5 1q1 0 2 -1.5t2 -1.5
q0 -1 1 -3t1.5 -4t1 -3.5t0.5 -2.5l0.5 -2.5t0.5 -5t0.5 -5.5t0.5 -5v-10t0.5 -14t3 -13t7.5 -6q2 0 4.5 1t3.5 3l0.5 2.5l0.5 2.5q0 11 -1 21.5t-2.5 21.5t-2.5 21.5t-1 21.5zM111 87v4.5v5.5t0.5 6t1.5 5q3 6 9.5 8.5t13.5 4t14.5 1.5h12.5q10 0 16 -1.5t10.5 -5.5
t7 -10.5t4.5 -15.5v-4q0 -19 -10.5 -27.5t-29.5 -8.5q-7 0 -14.5 1.5t-14.5 3.5q-8 2 -12 4.5t-6 6.5t-2.5 9.5t-0.5 12.5zM120 94q0 -1 3 -2l7.5 -2.5t9 -2t5.5 -0.5q3 0 4.5 1t2 2.5t0.5 3.5v4v4v5.5t-1 4.5t-4 2q-4 0 -9 -1t-9 -3.5t-6.5 -6t-2.5 -9.5zM158 111v-6
q0 -6 1.5 -10t4.5 -5.5t7 -2t10 -0.5h4h4q1 1 1.5 2.5t0.5 2.5v2q0 6 -2 10t-6 6t-8.5 3t-9.5 1h-4t-3 -3zM121 78q0 -4 2 -7.5t5.5 -6t8 -4.5t8.5 -2q2 0 3.5 2t2.5 4t1 4.5v4.5v2.5v2.5q-5 3 -11.5 4t-12.5 1q-3 0 -5 -1t-2 -4zM160 71q0 -2 0.5 -5.5t2.5 -5.5h4h4
q8 0 13 3t5 12v3t-1 1h-11h-6t-5.5 -0.5t-4 -2t-1.5 -5.5zM100 32q0 3 0.5 3.5t4.5 0.5h99q3 0 4 -2.5t1 -4.5q-25 0 -49.5 -1t-48.5 -1h-9q-2 0 -2 2v3z" />
</svg>
