<?xml version="1.0" standalone="no"?>
<!DOCTYPE svg PUBLIC "-//W3C//DTD SVG 1.1//EN" "http://www.w3.org/Graphics/SVG/1.1/DTD/svg11.dtd" >
<svg xmlns="http://www.w3.org/2000/svg" xmlns:xlink="http://www.w3.org/1999/xlink" version="1.1" viewBox="-10 0 266 256">
   <path fill="currentColor"
d="M120 246q0 2 1.5 3.5t3.5 1.5t4 -3.5t2 -5.5l0.5 -3t0.5 -6.5t0.5 -7t0.5 -5.5v-7.5v-11.5v-12.5v-7.5q0 -4 1.5 -5.5t4 -2.5l5 -2t3.5 -3q2 -4 3.5 -8t2.5 -8t1 -8.5v-8.5v-5t-3 -2t-4 3t-1.5 7t-1 8.5t-1 8.5t-2.5 6.5t-5 2.5q-2 0 -2.5 -0.5t-0.5 -2.5v-5v-5v-5v-4
l0.5 -2t0.5 -3q1 -7 0.5 -11.5t0.5 -7.5t5 -3.5t12 0.5q4 -2 4 -5l-0.5 -1l-0.5 -1h-2t-4 -0.5l-4 -1l-2 -0.5q-2 0 -4.5 -0.5l-2.5 -0.5v-14q0 -1 1.5 -2t3.5 -1.5l4 -1t2 -2.5q2 -11 3 -22t1 -22q-4 0 -6 3t-3 7.5t-1 10t-0.5 10t-2 7.5t-4.5 3h-14l-0.5 -0.5l-1.5 -1.5
q0 -1 -0.5 -2.5t-0.5 -2.5v-27q0 -2 -1.5 -3.5t-3.5 -1.5q-3 0 -4 2t-1.5 5t0 6t0.5 4v13q0 5 1.5 9.5t5.5 6.5t12 1v1v1q0 1 -0.5 3t-1 4.5t-1 4t-0.5 2t-0.5 1.5l-0.5 1h-21q-2 0 -3 1.5t-1 2.5q0 2 1 3.5t3 1.5h24q0 12 -1 23.5t-1 24.5q0 2 -1.5 2h-2.5q-6 0 -7.5 -6
t-1 -13t0 -13t-4.5 -6h-1q0 1 -1.5 2t-1.5 2v3v4v4v3v13t2 8t6.5 4.5t12.5 2.5v5v8v8v5v6v9v7v3v2.5t-0.5 4t-0.5 4.5v3l-0.5 1l-1 2t-0.5 2v2zM151 226q0 2 -0.5 6t0 8t2 7.5t4.5 3.5q2 0 3 -1.5t2 -3.5v-9.5v-12.5v-13.5v-8.5q0 -11 3.5 -21.5t7.5 -21t6.5 -20t0.5 -17.5
q0 -7 5 -7q3 0 4 2.5t1 6.5t0.5 7.5t2.5 5.5l1 1.5t2.5 3l2.5 2.5t1 2q1 0 1 2v3v3.5t-1 2.5q-1 2 -2.5 3.5t-2.5 4t-2.5 4.5t-3.5 4q0 1 -0.5 4.5t-1.5 7t-1.5 7t-0.5 4.5v3v6.5t0.5 10t1.5 11.5t2.5 11t3.5 8t5 3t4.5 -3.5t1.5 -6.5q0 -1 -1 -2.5t-1.5 -3.5t-1.5 -4l-1 -2
q0 -1 -0.5 -3l-0.5 -2l0.5 -0.5t0.5 -1.5v-1q0 -4 -1.5 -8t-1.5 -9q0 -8 1.5 -15.5t4.5 -13.5q1 -2 3 -4.5t3.5 -4.5t2.5 -4t1 -5q0 -5 -2 -8.5t-4.5 -7.5t-4.5 -7.5t-2 -8.5q0 -7 2.5 -13t2.5 -14v-3v-4l-1.5 -1.5t-2.5 -1.5v0q-2 0 -3 2t-1.5 4.5t-0.5 4.5t-1 3
q-1 3 -6.5 5t-12 4t-12 4t-5.5 5q0 1 2 1.5t3.5 1l3 1l1.5 0.5q1 0 1 2t1 4t1.5 3.5l0.5 1.5v1q0 6 -3 12.5t-6 13.5t-6.5 14t-4.5 12t-1 10v10v11v9zM78 238q0 3 0.5 4.5t3.5 1.5t4.5 -1t2.5 -4q2 -37 3 -74t0 -74l2 -3v-3t0.5 -7t1 -8.5t0.5 -7.5v-3v-6v-6v-3v-3.5t0.5 -5
t0.5 -5v-3.5q1 1 3 2t5 1.5t5 1t3 0.5q13 0 26 -1t26 -1h6h9h8.5h5.5q2 1 2 1.5v1.5q0 8 -3 12.5t-7.5 7t-10 3.5t-10 2t-7.5 2.5t-3 4.5q0 2 2.5 3t3.5 1q5 0 8 -1.5l7 -3.5t9 -3t8.5 -3t6 -5.5t2.5 -8.5v-3v-3l-1 -2l-1 -2q1 -3 2.5 -4t3 -1.5t2.5 -2t1 -4.5h-110
q0 -2 -0.5 -4t-2 -4t-2.5 -3t-3 -1t-4.5 1t-2.5 4v39q0 1 -1 1t-3 0.5t-3 0.5h-2h-5q-2 -2 -2 -3.5v-3.5q0 -3 1 -6t1 -6q0 -9 -8 -9q-1 0 -3 0.5t-2 3.5v57q0 2 2 2h2q4 0 6 -3t2.5 -7.5t0.5 -9.5t1 -7h3h2h5t3 3v12v12v4.5t-0.5 7.5t-0.5 7.5v4.5v5t-0.5 8t-1 7.5
t-1.5 3.5l-15 -2l-1 -2t-1 -3v-4v-7v-6v-4h-4h-3q-1 0 -1.5 1l-0.5 1l-4 75q-1 2 -1 4v4q0 4 0.5 6.5t4.5 2.5h2.5t2.5 -2q0 -1 1 -3.5t1.5 -5t1 -4.5l0.5 -2v-34l2 -4h1.5t3.5 -0.5t4.5 -1t3.5 -1.5h1h1q3 0 3 3q0 22 -2.5 44t-2.5 44zM155 88q0 2 1 2.5t3 0.5h3q1 0 4 -1
t6.5 -2t7.5 -2t6 -2q1 0 3.5 -0.5l5 -1t4 -1.5t1.5 -2v-13q0 -1 -1 -2.5l-1 -1.5q-3 0 -3.5 1.5t-1 4t-1.5 5t-2.5 3.5t-7 2t-11.5 3t-11 3.5t-5 3.5z" />
</svg>
