<?xml version="1.0" standalone="no"?>
<!DOCTYPE svg PUBLIC "-//W3C//DTD SVG 1.1//EN" "http://www.w3.org/Graphics/SVG/1.1/DTD/svg11.dtd" >
<svg xmlns="http://www.w3.org/2000/svg" xmlns:xlink="http://www.w3.org/1999/xlink" version="1.1" viewBox="-10 0 266 256">
   <path fill="currentColor"
d="M127 199v2q0 1 1.5 4.5t2.5 7t1.5 6t1.5 3.5q1 3 3.5 8t5.5 9.5t7 7.5t7 3t4.5 -1.5t1.5 -4.5q-5 -5 -9 -10t-7.5 -10.5t-6 -11.5t-2.5 -13q0 -10 5.5 -16.5t11.5 -12t11 -11.5t5 -14q0 -2 -1 -3.5t-3 -3.5t-3.5 -4t-2.5 -3l-2 -2t-3.5 -4t-3 -3.5l-2.5 -2.5v0
q0 -4 3.5 -5.5t6.5 -2.5h3h5h6h3q1 0 5 -2t5 -3q4 -2 5.5 -4t2.5 -4.5l2 -5t3 -6.5v-24q0 -7 -4.5 -10t-11 -4t-13 -1h-10.5q-1 -1 -1.5 -2.5l-1 -3t-1.5 -3t-3 -1.5t-3 1.5t-1 3.5t-1 4t-2 2q-8 3 -15 4t-12.5 3t-8.5 7.5t-3 16.5q0 10 1 16t4.5 9.5t9.5 5t16 1.5q3 2 3 5
q0 9 -6.5 16t-14.5 13t-14.5 10.5t-6.5 8.5q9 0 17 -6t14.5 -12.5t11 -12t6.5 -5.5q1 0 2.5 2.5t3.5 5.5t3.5 6t1.5 4q0 7 -5 13t-11.5 11.5t-11.5 12.5t-5 16zM79 240q0 1 1 2l2 2l1 -1t2 -1q2 -2 3 -5t1.5 -6.5t0.5 -6v-3.5q0 -19 -1.5 -38t-1.5 -37q0 -16 1 -31.5l2 -31
l2 -31t1 -31.5q0 -3 -1 -6t-4 -3h-1q-1 0 -2 1t-2 1q-1 4 -0.5 11.5t0.5 14.5t-1.5 12t-6.5 5q-6 0 -8 -2t-3 -5t-1.5 -6.5t-1.5 -7t-3 -5.5t-8 -2q0 3 0.5 8.5t2.5 9.5v46l0.5 1l0.5 1h1q5 0 6 -4.5t2 -10.5t1.5 -10.5t2.5 -4.5h13v65q0 2 -1 3.5t-2.5 2t-3.5 0.5h-4h-5
l-1 -0.5t-1 -1.5v-21q0 -2 -1.5 -3.5t-2.5 -1.5t-3 0.5t-2 1.5v58q-2 8 -3.5 17t-1.5 17q0 3 1.5 3.5t2.5 0.5q4 0 5.5 -2t2.5 -5t1 -6v-6v-6v-11v-10.5v-6.5q-1 -3 0 -5t3.5 -3.5t5 -2t4.5 -0.5h3q1 0 2 2v10t0.5 14.5t0.5 14.5v9v1q0 8 -0.5 15t-0.5 14v18zM163 201
q0 6 3 9.5t7.5 5t9.5 1.5h9h4h4q6 -3 8 -7t2 -11q0 -8 -3 -13t-12 -5q0 3 1 5t2.5 4t2.5 4t1 5q0 4 -2 6t-5 3t-6 1h-6q-12 0 -12 -13q0 -5 2 -8t5.5 -5l7 -4t7 -5.5t5.5 -8.5t2 -13t-1.5 -10.5t-8.5 -2.5v29q0 2 -4.5 4t-9.5 5t-9 8.5t-4 15.5zM118 93v-2.5t1 -2.5
q2 0 5 -0.5t6.5 -1l7 -1t4.5 -0.5h1h1q3 0 3.5 1t0.5 3q0 4 -0.5 8t-3.5 6h-9h-6q-4 0 -6 -1t-3.5 -3t-1.5 -6zM153 98q0 -7 4 -10.5t9.5 -4.5t11.5 -0.5t11 0.5q0 11 -6.5 15.5t-16.5 4.5q-2 0 -4 0.5t-4 0t-3.5 -2t-1.5 -3.5zM118 74q0 -6 2 -9.5t6.5 -5.5t9 -3t9.5 -1
q1 0 2 0.5t1 1.5t0.5 4t0.5 4q0 6 -1.5 9t-4 4.5t-7 1.5h-9.5h-8q-1 -1 -1 -2.5v-3.5zM156 70q0 -4 0.5 -7t1.5 -4.5t3.5 -2.5t7.5 -1h7.5t7 1.5t5 4t1.5 7.5q0 1 -0.5 3.5t-2.5 3.5q-6 1 -11 1.5t-11 0.5h-4.5h-2.5l-1 -2l-0.5 -2t-0.5 -3zM103 27q0 1 1.5 3.5t3.5 3.5
q2 0 4.5 -0.5t5.5 -1t6 -1.5t5 -1t9.5 -0.5t16 -1t15.5 -1t9 -0.5h7.5h5.5q2 0 5 -0.5t7 -1.5v-1.5v-1.5q0 -3 -0.5 -4t-3.5 -1q-18 0 -37 1.5t-37 3.5q-3 0 -6 0.5l-6 1l-6 1t-5 2.5z" />
</svg>
