<?xml version="1.0" standalone="no"?>
<!DOCTYPE svg PUBLIC "-//W3C//DTD SVG 1.1//EN" "http://www.w3.org/Graphics/SVG/1.1/DTD/svg11.dtd" >
<svg xmlns="http://www.w3.org/2000/svg" xmlns:xlink="http://www.w3.org/1999/xlink" version="1.1" viewBox="-10 0 266 256">
   <path fill="currentColor"
d="M168 246q0 3 1.5 3.5t3.5 0.5q4 0 5.5 -2.5t2.5 -5.5v-14q0 -8 -1 -15.5t-1 -15.5v-1l2 -2t2 -1t4.5 0.5t7 0t6.5 -1.5t3 -5q0 -2 -1 -3t-4 -1h-60q-8 0 -13 -3t-7.5 -8t-3 -11.5t-0.5 -13.5v-9.5t-0.5 -14t-0.5 -14.5v-10q0 -2 -1.5 -2.5t-3.5 -0.5q-3 0 -3.5 2.5
t-0.5 5.5v5q0 5 0.5 12.5l1 15t0.5 14v7.5q0 3 0.5 7.5t2 9t3.5 8t5 5.5q3 1 5.5 1.5l5 1t4.5 1.5t3 4q0 1 -0.5 3t-1 4.5t-1 4.5t-0.5 3v3v5v6v3q-1 4 -2 9t-1 10q0 1 1.5 1.5t2.5 0.5q3 0 4.5 -1.5t2.5 -4t1 -5t0.5 -4.5t0.5 -7.5t0.5 -11.5t1 -11.5t0.5 -7.5q3 -4 8 -4.5
t9 -0.5q2 0 5.5 0.5t3.5 4.5v40q0 1 -1.5 4.5t-1.5 4.5v0.5v0.5zM81 239l2.5 2.5t2.5 0.5q5 0 6.5 -4t1.5 -9q0 -23 -2.5 -45t-2.5 -45v-4t0.5 -6.5t0.5 -6.5v-4l0.5 -2.5t0.5 -3.5v-0.5v-1.5q0 -5 -1 -10t-1 -11t1 -12.5t1 -12.5t-1 -11t-1 -11v-2v-4t0.5 -3.5t0.5 -2.5
q1 -3 1 -5v-5t-1 -5.5t-4 -2.5t-4 0.5t-2 2.5v9.5v11t-0.5 11t-1.5 9.5q-1 2 -3 2h-4h-3t-3.5 -1l-3 -2t-1.5 -3q0 -1 1 -3.5t1 -3.5v-1v-2t-0.5 -2.5t-1 -3.5t-2 -3t-2.5 0q-1 0 -3 2t-2 3v6q0 6 1 11.5t1 11.5q0 5 -1 10t-1 10v3v3v4v2q1 2 2.5 3t3.5 1t3.5 -1.5t2 -3.5
t1 -4.5t0.5 -3.5v-21q2 -1 4 -1h5h4t3 3v57v2q0 3 -0.5 5.5t-1.5 4.5t-4 2q-1 0 -4.5 -1t-3.5 -3l-4 -21q0 -1 -2.5 -3t-3.5 -2t-2 2.5l-1 2.5q0 3 -0.5 11.5t-1 18.5t-0.5 18.5v11.5v12v12q0 1 1 1h2q5 0 7 -3.5t2.5 -9.5t0 -13t0 -12.5t3 -9.5t7.5 -4h2h2.5t1 1.5l0.5 1.5
q0 1 0.5 3.5t0.5 5v5v2.5q0 3 0.5 8.5t0.5 12.5v14v14q0 7 -0.5 12.5t-0.5 8.5zM131 134q0 2 0.5 8t2 12t4.5 10.5t7 4.5h31q4 0 6.5 -3t4.5 -7.5t3 -10.5t1.5 -11t0.5 -9v-6q0 -5 -0.5 -9.5t-2 -8t-4.5 -6t-9 -3.5h-3q-1 0 -3.5 -0.5t-4.5 -0.5h-2q-12 0 -18.5 2.5
t-9.5 7.5t-3.5 12.5t-0.5 17.5zM144 152q0 -2 2 -3t5.5 -1.5t5.5 -0.5h5h4h6t5 1.5t2 3.5q0 4 -2.5 6t-6 2.5t-7.5 0.5h-6q-5 0 -9 -1.5t-4 -7.5zM141 139v-14h38q2 0 2.5 1l1 2t0.5 2v2v3v3l-1 0.5l-1 0.5h-40zM142 115q-1 0 -1 -1v-2q0 -4 2.5 -6t6.5 -3.5t8 -1.5h7h4.5
h5.5q6 2 6 9q0 2 -0.5 4t-2.5 3h-6h-5h-12t-13 -2zM121 56v9q1 7 2.5 9.5t4 3.5t5.5 1t8 1h53q2 0 4 -1t2 -3q0 -3 -1.5 -4t-3.5 -1q-3 0 -4.5 0.5l-4.5 1.5h-42q-4 0 -7.5 -2t-3.5 -7q0 -2 1 -3t3 -2t4.5 -1h3.5h9t12.5 -0.5t12.5 -0.5t8 -1q2 1 3 0t1 -2t0.5 -2.5
l0.5 -1.5h-56q-1 -2 -3 -4t-4 -2h-1q-1 0 -3.5 1.5t-3.5 1.5v9zM99 26q-1 0 -2 1t-1.5 2.5t-0.5 3v1.5h109q2 0 2.5 -1.5t0.5 -2.5t-0.5 -2t-1.5 -2q-3 0 -5.5 -0.5t-4 -0.5h-4.5h-4q-22 0 -44 1t-44 0z" />
</svg>
