<?xml version="1.0" standalone="no"?>
<!DOCTYPE svg PUBLIC "-//W3C//DTD SVG 1.1//EN" "http://www.w3.org/Graphics/SVG/1.1/DTD/svg11.dtd" >
<svg xmlns="http://www.w3.org/2000/svg" xmlns:xlink="http://www.w3.org/1999/xlink" version="1.1" viewBox="-10 0 266 256">
   <path fill="currentColor"
d="M78 247q0 2 1 3t3 1t3.5 -3t2.5 -6q2 -15 1.5 -29.5t-0.5 -29.5q1 -40 1.5 -80t3.5 -80v-2q0 -3 -2 -6t-5 -3t-3.5 1t-0.5 4v4t1 4l-1 37h-16q-2 0 -1.5 -4t0.5 -9t-1 -9.5t-5 -4.5h-1l-1.5 1l-1.5 1q1 19 -1.5 37t-2.5 37q0 2 1 3.5t3 1.5q4 0 5.5 -6t2.5 -13t1 -13
q0 -7 1 -10q1 -2 4.5 -2.5t6.5 -0.5q2 0 3.5 0.5t2.5 2.5v3v4v4v3q0 16 -1.5 31.5t-1.5 31.5q-2 4 -6 5t-8 1h-3t-2 -2v-6v-9t-1 -8.5t-4 -3.5q-2 0 -3 0.5t-2 2.5q0 11 -0.5 21t-1.5 20l-2 20t-1 20v4.5v4.5q1 0 1.5 1l0.5 1h0.5h0.5q2 0 3.5 -2.5t2.5 -5.5t1.5 -6t1.5 -4
v-6.5t0.5 -9.5t0.5 -10v-6q0 -5 2.5 -6.5t6.5 -1.5h3t3.5 0.5t3 1.5t2.5 2v16q0 16 -1 31.5t-1 30.5zM115 223q4 3 8.5 5t10 3t10.5 1h10q15 0 24.5 -1t14 -5t6 -13t1.5 -26q0 -4 0.5 -10t0 -11.5t-3 -10t-7.5 -6.5h-3.5t-5.5 -0.5t-5 -0.5h-3q-2 -1 -2 -2v-4v-2t0.5 -2.5
t1 -2.5t1.5 -1h21l1.5 -1.5t1.5 -2.5v-2.5t0.5 -3.5t0.5 -4v-3l0.5 -3.5t1 -7.5t0.5 -8.5v-6.5v-1v-1v-4t-0.5 -6l-1 -6t-0.5 -4t-1 -1.5l-1 -0.5q-3 0 -4 2.5t-1.5 5l-1 5t-1.5 2.5h-13l-2 -2v-2t-0.5 -4.5t-0.5 -5v-4.5q-1 0 -1 -2v-2t0.5 -2.5t0.5 -2.5t1 -2.5t2 -1.5h30
q2 0 2 -1.5v-2.5v-3t-2 -2h-15q-22 0 -43.5 1.5t-43.5 0.5q-2 1 -2 2v2t0.5 2.5t2.5 0.5h5h8h7h5l1.5 0.5l3 1t3 1.5t1.5 3v23q0 2 -2 2.5t-4.5 1t-4.5 0.5h-3h-3q-3 0 -4 -1q0 -1 -0.5 -2.5t-1.5 -3.5l-1.5 -3t-2.5 -1t-2.5 1.5t-0.5 4v4.5v4v4v6t0.5 9.5t0.5 10v6.5
q2 6 6 7.5t8 1.5h9t6 3v6q0 4 -2.5 6t-5.5 3.5t-7 2.5t-7.5 3.5t-5.5 6t-2 10.5q0 5 0.5 11.5t1.5 13.5t2 13zM118 202q0 -3 3 -4.5t7.5 -2t9 0t6.5 0.5q3 0 5.5 2.5t2.5 7.5v5t-1 5t-3 3.5t-4 1.5q-5 0 -9.5 -0.5t-8 -2.5t-6 -6t-2.5 -10zM160 211v-1v-2.5t0.5 -4.5t0.5 -4
v-3q5 -2 9.5 -2h9.5h10q1 2 1 3v3q0 6 -1.5 10t-5 6.5t-8 3.5t-9.5 1q-3 0 -5 -3t-2 -7zM118 185v-6q0 -12 7 -16.5t16 -4.5q5 0 8.5 2.5t3.5 8.5q0 4 -0.5 9t-4.5 7l-2 0.5t-4 0.5t-4 0.5l-2 0.5h-2h-1q-1 0 -3 -0.5t-4.5 -0.5t-4.5 -0.5t-3 -0.5zM174 157q5 0 9 1.5t7 5.5
v3t0.5 4t0.5 4v3v1v1l-1 1.5l-1 1.5l-14 2t-14 1v-22q0 -3 2 -4l4 -2t4 -1h3zM145 136q0 -9 0.5 -17.5l1 -17t0.5 -17v-19.5q0 -3 0.5 -6t2 -5t3.5 -3.5t6 -1.5q2 0 3.5 3t2 6.5t0.5 7.5v5q0 18 -1.5 35t-0.5 36q-2 4 -5.5 5t-6.5 1q-4 0 -5 -4t-1 -8zM173 121
q0 -1 -0.5 -2.5t-0.5 -2.5v-4v-2v-7q0 -3 1 -6t3 -5t6 -2q3 0 6 1t3 6q0 4 0.5 9t-0.5 9t-3.5 7t-7.5 3q-2 0 -4 -1t-3 -3zM116 98q0 -4 2 -5.5t4 -2t4.5 -0.5h4.5h4q2 0 2 1l2 1v24q0 2 -1.5 3.5t-3.5 2l-4 1t-3 0.5q-4 0 -6 -3t-3 -7t-1.5 -8t-0.5 -7zM115 26q4 2 5.5 2
h4.5q9 0 17 -1.5t16 -1.5q7 0 13.5 0.5t13.5 0.5h2t2.5 -1t2 -2t-0.5 -2q-1 -4 -2.5 -5t-3.5 -1t-3.5 0.5t-2.5 2.5q-2 0 -7.5 -0.5t-12.5 -0.5q-6 0 -11 0.5t-8 0.5h-5t-8.5 0.5t-8 2t-3.5 4.5v1v0z" />
</svg>
