<?xml version="1.0" standalone="no"?>
<!DOCTYPE svg PUBLIC "-//W3C//DTD SVG 1.1//EN" "http://www.w3.org/Graphics/SVG/1.1/DTD/svg11.dtd" >
<svg xmlns="http://www.w3.org/2000/svg" xmlns:xlink="http://www.w3.org/1999/xlink" version="1.1" viewBox="-10 0 266 256">
   <path fill="currentColor"
d="M129 245q0 4 3 4t4.5 -1.5t2.5 -3.5t2 -4.5t1 -3.5q0 -8 -2.5 -15t-2.5 -14v-7t-1 -5.5t-2.5 -4t-6.5 -2.5q-1 0 -4 -1t-6.5 -1.5t-6.5 -1t-4 -1.5q-2 -1 -2.5 -1.5t-0.5 -2.5q0 -4 1.5 -8t4.5 -6h12.5t12 -1t9 -4.5t3.5 -10.5v-4v-3q0 -1 -1 -2l-2 -2t-2.5 -2t-2.5 -1
h-34q-2 0 -4 1.5t-2 3.5q0 3 3 3h7t7 0.5t3 5.5q0 3 -1.5 5t-4 3t-5.5 2t-5 3t-4 6t-2 11q0 6 2 9t5.5 4t7 1.5t7.5 0.5t6.5 0.5t2.5 2.5q2 5 2.5 8l1 6t0.5 6.5v6.5q0 5 -1 10.5t-1 10.5zM148 245q0 2 1.5 2h2.5q2 0 3.5 -0.5t3.5 -3.5v-9q0 -10 -1 -20t-1 -20v-4.5v-4.5
t1.5 -3.5t3.5 -1.5q11 0 21.5 2t21.5 2q2 0 3.5 -0.5t1.5 -3.5q0 -4 -4 -4.5t-8.5 -1t-9 -3t-4.5 -9.5q3 -5 7 -5h9q2 0 2 -1.5v-2.5v-1v-1q-5 0 -10.5 -2t-5.5 -8v-1q0 -2 0.5 -3.5t0.5 -2.5t1 -1h12q1 0 1.5 -1l0.5 -1v-1q0 -2 -2 -3l-4 -2l-4 -2t-2 -3v-11q3 0 6 0.5
t6 0.5q2 0 3.5 -1t1.5 -2q0 -4 -2.5 -5t-5.5 -2t-5.5 -2.5t-2.5 -5.5q0 -3 2 -5.5t4.5 -4.5t4.5 -4t2 -6q0 -2 -3 -6t-7 -8t-7.5 -7t-6.5 -3q-2 1 -5 4.5t-6 8t-5 9.5t-2 8t1 5l2 4l2 4t1 4t-1.5 4.5t-3 5.5t-3 5.5t-1.5 4.5q-4 14 -4.5 27.5t-1.5 28.5q-2 15 -3.5 30
t-1.5 31v13zM69 232q1 3 4 3q1 0 3.5 -1t2.5 -2v-42q0 -1 -0.5 -3l-0.5 -2v-1q0 -30 0.5 -59.5t0.5 -58.5q0 -5 0.5 -12t0.5 -14t-0.5 -14.5t-1.5 -13.5q-1 -2 -2.5 -2.5t-3.5 -0.5q-1 0 -2 0.5t-1 1.5v10q0 7 0.5 13.5t0.5 13.5v5v6t-1 5.5t-3 2.5q-3 0 -5 -1.5t-3 -3.5
l-0.5 -2.5t-0.5 -5t-0.5 -5l-0.5 -2.5q0 -3 -1 -6t-4 -3q0 17 -1.5 33.5t-1.5 33.5q0 2 0.5 3.5t2.5 1.5q3 0 4 -2t1 -4q0 -1 0.5 -5t0.5 -8t0.5 -8t0.5 -5q0 -2 2 -2h3h2h2q3 7 3 14.5v14.5v5v5.5v4.5v3v6t-0.5 8.5t-2 8t-5.5 3.5q-1 0 -2.5 -0.5t-1.5 -2.5v-17
q0 -2 -2 -3.5t-4 -1.5q-3 0 -3.5 2.5t-0.5 5.5q0 9 1 18t1 18v1q0 2 -0.5 6.5t-1 10t-1 10.5t-0.5 6v1q0 1 0.5 2.5t2.5 1.5h1.5t1.5 -2q3 -4 4 -10t1.5 -11.5t0 -11.5t-0.5 -10q0 -3 2.5 -3.5t4.5 -0.5h4q1 8 1 15.5v15.5q0 9 -0.5 17t-0.5 17v9zM165 152q1 0 4.5 0.5
t4.5 1.5q1 0 2 1.5l1 1.5v11q0 1 -1 2t-2 1h-2h-2h-2h-3t-3.5 -0.5t-1.5 -1.5v-14l0.5 -0.5t1.5 -0.5q0 -1 1.5 -1.5zM124 149q0 -1 1 -3t3 -3t4 -1.5t3 0.5q3 0 3 2v4q0 5 -1.5 6t-6.5 1q-6 0 -6 -6zM162 139q0 -5 2 -7.5t7 -2.5h2h2.5t2.5 1t1 2v12q0 2 -2 2h-2h-5
q-3 0 -4.5 -0.5t-2.5 -2t-1 -4.5zM100 112q0 3 1.5 5.5t4.5 4t6 2.5t6 1t7 -0.5t8 -1.5t7.5 -2.5t5.5 -5.5v-3.5v-3.5q0 -10 -4.5 -12.5t-14.5 -2.5q-5 0 -10 0.5t-9 2.5t-6 6t-2 10zM166 115q0 -2 0.5 -4.5t1.5 -5t3 -4.5t4 -2q3 0 4 2l2 4t1 4.5v4.5q0 1 -1 2l-2 2l-2 2
t-2 1q-4 0 -6.5 -1t-2.5 -5zM107 110q0 -3 3 -6t5 -3h20q2 0 3.5 1.5t1.5 3.5q0 4 -2.5 6t-6 3t-7 1.5t-6.5 0.5q-5 0 -7 -1.5t-4 -5.5v0zM169 80q0 -2 1 -5.5t2.5 -6.5t4 -5t5.5 -2q2 0 4 1.5t4 2.5q0 1 1.5 2t2 2t1.5 2l1 1l-3 6h-1q-1 0 -2 -1.5t-2 -3.5t-1.5 -3.5
t-1.5 -2.5q-3 5 -4 10.5t-1 11.5q0 1 -2 1h-3q-4 0 -5 -3t-1 -7zM96 69v3.5t0.5 6t1.5 6t3 2.5q3 0 3 -4v-1v-2.5t-0.5 -5.5t-0.5 -5.5v-3.5q0 -4 1 -9t3 -9.5t5 -8t8 -4.5q20 1 40 -0.5t40 -0.5q1 -1 1.5 -2l0.5 -1q0 -1 -0.5 -4t-2.5 -4h-3h-5.5h-4.5h-3h-5h-5h-5h-2
l-3 0.5t-4 0.5t-3 1l-2 1l-0.5 -0.5t-0.5 -1.5q-15 3 -31 3.5t-30 1.5q-1 1 -1.5 2.5t-0.5 2.5t2.5 1.5l5 1l5 1t3.5 2.5q-4 7 -7 14.5t-3 15.5zM117 69q0 2 -0.5 5t0.5 5.5t2.5 4.5t4.5 2q1 0 1.5 -1.5t0.5 -2.5q0 -3 -1 -6t-1 -7q0 -5 2 -10t2 -11q0 -1 -0.5 -2.5
l-0.5 -1.5l-3 -3q-1 1 -2.5 5t-2.5 8.5t-1.5 8.5t-0.5 6zM138 68q0 2 0.5 5t1.5 6t3 5t5 2v-46q-3 0 -5 3.5t-3 8t-1.5 9.5t-0.5 7z" />
</svg>
