<?xml version="1.0" standalone="no"?>
<!DOCTYPE svg PUBLIC "-//W3C//DTD SVG 1.1//EN" "http://www.w3.org/Graphics/SVG/1.1/DTD/svg11.dtd" >
<svg xmlns="http://www.w3.org/2000/svg" xmlns:xlink="http://www.w3.org/1999/xlink" version="1.1" viewBox="-10 0 266 256">
   <path fill="currentColor"
d="M55 128v23t1 24t3 24t7 22q2 4 7 6.5t11.5 4.5t14 3t14.5 2t13 1h9q8 0 13 -0.5t9.5 -1.5t9.5 -2.5t11 -3.5q8 -2 12.5 -3.5t6.5 -4.5t2.5 -8t1.5 -14q0 -1 0.5 -5t1 -9t1 -9t0.5 -5l0.5 -2t0.5 -3t-0.5 -2.5l-0.5 -1.5v-2t-0.5 -2.5l-1 -3t-0.5 -2.5l0.5 -2t1 -4.5
t0.5 -4v-2.5l0.5 -1.5t0.5 -3.5v-4v-4v-10.5t-0.5 -11t-1.5 -11t-4 -8.5q-3 -5 -9 -7.5t-13.5 -4.5t-15.5 -3t-14 -1.5t-10.5 -1.5t-4.5 -3v-36q0 -3 -3 -5t-6 -2h-3q-1 0 -1 2q-1 3 -1 10v14t-1 13.5t-4 9.5h-4.5t-7.5 0.5t-7.5 0.5h-4.5q-1 1 -2 1h-3q-1 0 -2.5 -0.5
l-1.5 -0.5q-9 3 -14 9t-7.5 14t-3 17t-0.5 16zM67 165q0 -4 1.5 -7t6.5 -3h115q2 0 2.5 1.5t1 3.5t0.5 3.5v2.5q0 7 -1 13t-3 14q0 1 -0.5 3.5l-1 5l-1 5t-0.5 3.5q-1 4 -5 6t-9.5 4t-11.5 2.5t-12 0.5h-10.5h-6.5h-7q-1 0 -5 -0.5t-9 -1t-10 -1.5t-7 -1q-8 -1 -13.5 -7
t-8.5 -13.5t-4 -16.5t-1 -17zM68 137q0 -1 -0.5 -3t-0.5 -5v-4v-3q0 -6 0.5 -12.5t3.5 -12.5t11.5 -9t18.5 -4.5t19 -1.5h14q6 0 16 -0.5t19.5 1.5t16 7t6.5 16v34q0 1 -1 2t-2 1.5t-2 1.5t-2 1h-16h-15q-4 0 -12 -0.5t-17.5 -1t-17.5 -0.5h-12l-2 0.5t-3.5 0.5t-3.5 0.5
t-3 0.5q-2 0 -4.5 -0.5t-5 -1.5t-4 -2.5t-1.5 -4.5z" />
</svg>
