<?xml version="1.0" standalone="no"?>
<!DOCTYPE svg PUBLIC "-//W3C//DTD SVG 1.1//EN" "http://www.w3.org/Graphics/SVG/1.1/DTD/svg11.dtd" >
<svg xmlns="http://www.w3.org/2000/svg" xmlns:xlink="http://www.w3.org/1999/xlink" version="1.1" viewBox="-10 0 266 256">
   <path fill="currentColor"
d="M81 215q4 7 10.5 10.5t13.5 5.5t14.5 2h14.5t13.5 -0.5t13 -2.5t12.5 -5t10 -10q0 -2 1 -8t1.5 -12.5l1 -13t0.5 -8.5v-5v-9v-9v-6q0 -13 1.5 -25.5t1.5 -26.5v-11q-1 -3 -3.5 -6.5t-5.5 -3.5q-2 0 -3.5 0.5t-2.5 1.5v5v10.5t1 11.5q-1 3 -2.5 6.5t-5.5 3.5t-7.5 -3.5
t-7 -7.5l-7 -8t-8.5 -4v-11.5t-0.5 -8.5l-1 -8t-0.5 -10q0 -2 1 -4t3 -3h4h6.5h6.5h5q9 0 18.5 1t19.5 1h3t4 -1t3 -2t1 -3q0 -3 -1 -6t-4 -3h-2q-1 0 -5 1t-5 1h-52l-11 1l-69 1q-3 -2 -4.5 -2h-4.5t-5.5 1t-2.5 5t1 6t3 2.5t4.5 0.5h4.5h6t5 -2q7 0 12 -0.5l10 -1
t9.5 -0.5h10.5h3h4h4h2q2 2 3 4t1 4q0 12 -0.5 19.5t-2.5 12.5t-7 9.5t-13 10.5q-3 3 -6.5 5t-7.5 2v-30q0 -1 -0.5 -3t-1.5 -4.5t-3 -4.5t-3 -2q-5 0 -7 4t-2 8q0 27 1 51t1 51q1 4 1.5 9t1.5 10.5t1.5 10t0.5 6.5zM88 180v-5l2 -2h3.5t8 -0.5t9.5 -0.5t8 -1h2q13 0 26.5 1
t27.5 1q0 11 -1 22t-5 20q-5 5 -12 6t-13 1q-12 0 -22.5 -1t-17.5 -5t-11.5 -12.5t-4.5 -23.5zM86 140v-5.5t2 -5.5t4.5 -3t5.5 -2t5.5 -2t5.5 -3l2 -2t4.5 -4t4.5 -3.5l2 -1.5q1 -1 3 -2t3.5 -2.5t3 -2.5l1.5 -1h1v0q4 0 11.5 4.5t14 10.5t11.5 13t5 12q0 6 -0.5 10t-2 6.5
t-5 4t-8.5 1.5h-6q-1 0 -6.5 -0.5l-11 -1t-11 -0.5h-6.5h-4h-7h-7h-4q-5 -1 -7.5 -2.5t-3 -4t-0.5 -6v-7.5z" />
</svg>
