<?xml version="1.0" standalone="no"?>
<!DOCTYPE svg PUBLIC "-//W3C//DTD SVG 1.1//EN" "http://www.w3.org/Graphics/SVG/1.1/DTD/svg11.dtd" >
<svg xmlns="http://www.w3.org/2000/svg" xmlns:xlink="http://www.w3.org/1999/xlink" version="1.1" viewBox="-10 0 266 256">
   <path fill="currentColor"
d="M61 134q0 22 2 44t5 44q2 11 5.5 16.5t9 7.5t13 2.5t16.5 1.5h1h1h1.5t2.5 -0.5t2.5 -0.5h1.5q2 0 7 -0.5t11 -0.5t11 0.5t7 0.5q7 -1 11.5 -5.5t7 -10t3.5 -12.5l2 -14v-36v-36q0 -1 -0.5 -3t-1 -4.5t-1.5 -5t-3 -2.5q-2 -1 -3 0t-1.5 3t-0.5 4v2v5.5t-0.5 7.5t-0.5 7v5
q-1 0 -2 1.5t-2 2.5h-0.5h-0.5v0v0q-9 -6 -15.5 -10.5t-15.5 -8.5q-2 -1 -3 -5t-1 -8.5v-9.5t-0.5 -9.5t-2 -7t-4.5 -2.5q-2 0 -5 2t-3 5v29l-3 6q-5 0 -9.5 2t-8.5 4t-8 3.5t-7 1.5h-2.5t-2.5 -2v-23l-1.5 -0.5t-2.5 -1.5h-2q-2 0 -3.5 0.5t-3.5 1.5v9zM78 209q0 -4 3 -5
t6 -1q9 -1 19.5 -1.5t21.5 -0.5h22h19q0 5 -0.5 9t-1 7t-2 6t-2.5 9q-2 4 -6.5 6t-10.5 2t-11.5 -0.5t-8.5 -0.5h-17.5t-15 -2.5t-11 -9t-4.5 -18.5zM76 172q0 -2 3 -5t7 -6t9.5 -5.5t10.5 -4.5t9.5 -3.5t6.5 -1.5t6.5 2t10 5t10.5 7t9.5 8.5t7 8.5t2.5 7q0 2 -3 3.5t-4 2.5
q-18 1 -34.5 1.5t-34.5 0.5h-10l-4 -2l-0.5 -2.5t-0.5 -5t-0.5 -5.5t-0.5 -5zM52 47q0 3 0.5 8t1 11.5l1 13t2 12.5t3 9.5t3.5 3.5q5 0 6 -3t1 -7q0 -13 -2.5 -25.5t-2.5 -25.5q0 -4 2.5 -7.5t6.5 -5.5t8.5 -3t7.5 -1h3l4 58l3 10h1h1q3 0 6 -0.5t3 -3.5q0 -4 -1.5 -7.5
t-2.5 -7.5q-2 -11 -3.5 -23t-1.5 -22v-6q0 -1 1.5 -1.5l1.5 -0.5q1 0 3.5 -0.5t5 -0.5t5 -0.5t3.5 -0.5q4 -2 4 -6t-4 -4t-10.5 1t-13.5 2t-14.5 3t-14 4.5t-11 6.5t-5.5 8v2q0 2 -0.5 4t-0.5 3v2zM137 45q0 4 0.5 13.5t2 19.5t3 17.5t3.5 7.5q1 0 2.5 -1.5t2.5 -3.5t1.5 -4
t0.5 -4v-3q-1 -2 -1.5 -7t-2 -11t-2.5 -11.5t-1 -7.5q-2 -1 -2 -3v-3q0 -4 2 -7.5t5 -5.5t7 -3t7 -1q4 0 6 5t3.5 12.5t2.5 16.5t3 16.5t4 12.5t6 5q3 0 3.5 -2.5t0.5 -5.5q0 -6 -2.5 -13.5t-5 -16t-5.5 -16.5t-5 -15h26q2 0 2.5 -2.5t0.5 -4.5q0 -3 -3 -5q-1 0 -3.5 -0.5
t-3.5 -0.5q-7 0 -15.5 0.5t-16.5 2.5t-15 6t-11 12v5.5v5.5z" />
</svg>
