<?xml version="1.0" standalone="no"?>
<!DOCTYPE svg PUBLIC "-//W3C//DTD SVG 1.1//EN" "http://www.w3.org/Graphics/SVG/1.1/DTD/svg11.dtd" >
<svg xmlns="http://www.w3.org/2000/svg" xmlns:xlink="http://www.w3.org/1999/xlink" version="1.1" viewBox="-10 0 266 256">
   <path fill="currentColor"
d="M92 200q2 0 3.5 3.5t2.5 9t2 12.5t2.5 12.5t4 9t6.5 3.5q3 0 4 -2t1 -5q0 -6 -2.5 -11.5t-5 -10.5t-4.5 -10.5t-2 -11.5q0 -5 3 -6.5t6.5 -3t6.5 -3.5t3 -7v-37q0 -2 1 -2.5t2.5 -0.5t3 -0.5t1.5 -2.5t-4 -3t-8.5 -2.5t-8 -3.5t-3.5 -7q0 -1 2 -2t5 -3t5 -5.5t2 -9.5
v-5.5t-2 -4.5q-1 -2 -3.5 -4.5l-2.5 -2.5h-33q-1 0 -1.5 1.5t-0.5 2.5t1 2.5t3 1.5h25q3 0 4 3t1 5q0 7 -7 10h-5h-5h-8t-7.5 -1.5t-6 -4t-2.5 -7.5q0 -2 -0.5 -5t0 -6t1 -5.5t2.5 -4.5q4 -3 9.5 -4t11 -1.5t11 -0.5t9.5 -2t6.5 -6t2.5 -12v-3.5v-2.5q-2 -5 -6.5 -6.5
t-9.5 -2t-10 0t-9 0.5q-6 -1 -9.5 -2.5t-5 -4t-2 -5.5t-1.5 -5t-2.5 -3.5t-5.5 -1.5h-2t-1 1t-0.5 3t-0.5 3q0 5 2 9.5t5 8t7 5t9 1.5q6 0 11.5 -0.5t10.5 -0.5q11 0 11 10q0 4 -3.5 5.5t-9.5 2t-13 1t-13 1.5t-10 3.5t-5 7.5v4.5t-0.5 7t-0.5 6.5v4v0.5v0.5q0 4 1.5 7.5
t4 6t5.5 4.5t6 5v0q0 6 -3 9t-7.5 5t-9.5 3t-8 1l-2 2v1q0 2 2.5 3t4.5 1q6 0 13.5 -2.5t12.5 -7.5q2 -2 3.5 -4.5t2.5 -5t2.5 -4.5t4.5 -2t4 0.5t2 1.5t1.5 2.5l1.5 4.5q1 1 3.5 3l5 4t4 3.5t1.5 2.5v4t-1 6t-2 5.5l-1 2.5h-13l-3 -4v-3v-6t-1 -5.5t-4 -2.5q-2 0 -3 2t-1 3
v17q0 1 -1 2t-1 1.5t-1 1l-1 0.5l-25 5q-4 1 -4 5q0 3 3 3.5t4 0.5q4 0 6.5 -1t6 -2t6.5 -2t6 -1q2 0 3.5 1.5t2.5 3.5t1 5v4q-3 3 -9.5 5.5t-14 5t-13.5 5t-6 4.5v1l1 1t1 2h2.5h3.5q5 0 9 -2l8 -4t8.5 -3.5t8.5 -1.5zM136 233v2q0 2 0.5 4t2 3.5t3.5 1.5q1 -1 2.5 -3
t1.5 -4q1 -23 1.5 -46.5t0.5 -47.5l3 -3l2 -0.5t4 -0.5t5 -0.5t5 -0.5h2q3 0 5 2.5t3 5.5t1.5 6t0.5 5q0 3 -3 4.5t-7 2.5t-8 1h-5t-1.5 1.5l-0.5 1.5q0 1 1.5 3t2.5 2q4 0 7.5 -1t7.5 -1h3.5h2.5q1 0 1.5 0.5t0.5 1.5v5v4q1 3 2.5 8.5t3.5 12.5t4 12.5t2 7.5q1 2 1.5 5.5
t1.5 6.5t2.5 6t4.5 3q2 0 3.5 -0.5t2.5 -3.5v-2v-3q0 -7 -3 -15.5t-6.5 -17.5t-6.5 -18t-3 -17q0 -2 2 -4.5t4.5 -6t4.5 -7t2 -6.5v-41l-1 -1l-2.5 -2.5l-2.5 -2.5t-2 -1l-5 -2.5t-6.5 -2t-7 -0.5h-5.5q-6 0 -11.5 0.5t-8.5 5.5l1 2q1 0 4 0.5t4 0.5t4.5 0.5t7.5 0.5
t7.5 0.5t4.5 0.5q4 0 6.5 3t3.5 7t1 8.5v7.5v5.5t-1 9.5t-2.5 8.5t-3.5 3.5h-1l-0.5 -0.5t-1.5 -0.5q0 -3 -0.5 -7t-2.5 -7.5t-4.5 -6t-6.5 -3.5q-2 0 -4.5 0.5t-5.5 1.5l-6 2t-5 1h-1q-2 -4 -2.5 -8.5t0 -9.5t0.5 -9.5t-1 -8.5v-1q0 -11 4 -16.5t9 -9t9 -7t4 -10.5
q0 -8 -4.5 -12t-10 -5.5t-11 -3.5t-8.5 -6q-2 -3 -3 -7.5t-1 -6.5l-3 -1.5t-2 -0.5q-3 0 -4 1.5t-1 3.5q0 9 3 13t6.5 6.5t8.5 3.5t9 2.5t6.5 4.5t2.5 8v6q-2 4 -5.5 5.5l-7 3t-6.5 5t-3 12.5q0 18 1 34.5t1 33.5q0 20 -2 39.5t-2 39.5zM97 176q0 -8 8 -8q3 0 5.5 2t2.5 6
q0 9 -9 9q-4 0 -5.5 -3t-1.5 -6zM197 57q0 5 -4 6.5t-9 2.5t-8.5 2t-3.5 6q6 0 12 -0.5t11 -3t8 -7t3 -12.5q0 -4 -1.5 -7t-4 -5.5t-6 -5t-5.5 -4.5t-2.5 -4.5t-0.5 -5.5t-1 -4.5t-4 -1.5q-6 0 -7 3t-1 8t3.5 8.5t8 7t8.5 7.5t4 10z" />
</svg>
