<?xml version="1.0" standalone="no"?>
<!DOCTYPE svg PUBLIC "-//W3C//DTD SVG 1.1//EN" "http://www.w3.org/Graphics/SVG/1.1/DTD/svg11.dtd" >
<svg xmlns="http://www.w3.org/2000/svg" xmlns:xlink="http://www.w3.org/1999/xlink" version="1.1" viewBox="-10 0 266 256">
   <path fill="currentColor"
d="M50 248v1q0 1 0.5 1.5t1.5 0.5h150q3 0 3 -1v-3t-1 -4t-4 -2h-46q-1 0 -1.5 -0.5t-0.5 -1.5v-2v-1v-2.5v-1.5q0 -1 1 -3.5t1 -3.5l-0.5 -0.5t-1.5 -0.5v-3.5v-3.5v-8t0.5 -7.5t1 -7.5t1.5 -10q0 -3 2.5 -4t6 -2t7.5 -1.5t7.5 -1t7 -2.5t5.5 -5l0.5 -1t1.5 -2.5t1.5 -2.5
t1.5 -2q1 -3 2 -4t1 -4t-2 -5t-2 -5q0 -1 1 -2.5t2.5 -3.5t2.5 -4t1 -3q3 -17 4 -33t1 -33v-6v-8v-8v-6q-1 -1 -3 -2t-4 -1t-2.5 0.5t-1.5 2.5v3.5v5.5t-0.5 5.5t-1.5 4.5h-11.5t-11.5 2l-0.5 1t-0.5 2q0 3 4 3t9.5 0.5t9.5 2.5t4 7v2v1v3.5t-0.5 5.5t-0.5 6v4
q-1 0 -1.5 0.5l-0.5 0.5l-2 2l-1 1h-23q-1 0 -1.5 1.5l-0.5 1.5q0 1 0.5 2.5t1.5 1.5h24l2 2v4q0 9 -1.5 14t-4 7t-6 2.5t-6 1t-4 1.5t-1.5 3v2.5t2 1.5h16l0.5 1t1.5 1v1v1l-8 16q-1 2 -5.5 3t-10.5 2t-13.5 1.5t-14 1t-11.5 0.5h-6q-4 0 -9.5 -0.5t-11.5 -1t-11 -2
t-8 -3.5q-2 -2 -4 -5t-4 -5.5t-4.5 -4.5t-5.5 -2t-3.5 1t-0.5 4q0 8 4.5 13t11.5 8t15 4t14 0l3 3v2q0 1 0.5 2.5t0.5 4.5v2q0 12 -2 23t-2 23l-1 2.5t-2 2.5h-47q-2 0 -3.5 2t-1.5 3zM116 237l4 -51q0 -2 0.5 -4t2.5 -2q1 0 4 -0.5t4 -0.5h4q2 0 4.5 0.5t4.5 2t2 3.5
q0 7 -0.5 12.5t-1 11.5t-0.5 12v12q-1 5 -5 8q-1 0 -3 0.5t-3 0.5h-4t-5.5 -0.5t-5 -1.5t-2.5 -3zM73 229v4t2 2q4 0 6.5 -5.5t4.5 -12t2.5 -13t0.5 -8.5q0 -3 -1 -3.5t-3 -0.5q-3 0 -5 5t-4 11t-2.5 12.5t-0.5 8.5zM170 193q0 2 1 8.5t3.5 13.5t5 12t5.5 5t4.5 -2.5
t1.5 -5.5v-2q-1 0 -2 -2l-2 -4t-1.5 -4t-1.5 -2q0 -2 -0.5 -5.5t-2 -7t-3 -6t-4.5 -2.5q-4 0 -4 4zM121 115q0 3 0.5 10t2.5 14t5 12t8 5q3 0 3.5 -1.5t0.5 -2.5q0 -3 -1 -6t-2.5 -5.5l-3 -5t-1.5 -5.5q-1 0 -1 -3t-0.5 -6t-1.5 -6.5t-1 -5.5v-2q0 -8 2.5 -15.5t6 -15.5
t6 -15.5t2.5 -16.5v-9t-1.5 -11.5t-4.5 -9t-10 -3.5q0 3 1 6t2 5.5t2 6t1 6.5q0 4 -0.5 6.5t-1.5 8.5q0 2 -1.5 7.5t-3 12t-3 12.5t-2.5 9q1 6 -1 11.5t-2 12.5zM100 110v8.5t1 14t3.5 13t7.5 5.5h1l2 -2l1 -1v-1q0 -4 -1 -8.5t-2.5 -9l-3 -9t-1.5 -9.5q0 -6 2 -11t2 -11
q0 -3 -4 -3q-2 0 -3.5 3t-2.5 7t-1.5 8t-0.5 6zM141 109q0 5 1 10t3 10.5t5 10.5t7 8q0 -1 2 -3t3 -2v-1q0 -3 -2 -7.5t-4 -9.5t-4 -10.5t-2 -10.5t1 -9t1 -8q0 -1 -0.5 -2.5t-1.5 -1.5q-2 0 -4.5 0.5t-3.5 2.5v14v1.5t-0.5 3t-0.5 3v1.5zM62 127q5 7 10.5 10.5t14.5 3.5h2
h3q1 0 1.5 -1t0.5 -2t-3.5 -3t-8 -5t-8 -7t-3.5 -10q0 -4 3 -4.5t7 -0.5t7 -0.5t3 -5.5l-1 -1l-0.5 -0.5l-0.5 -0.5h-3.5t-5.5 -0.5t-5.5 -0.5h-3.5q-1 -1 -2 -1.5l-1 -0.5q0 -4 -0.5 -7t-1 -5.5t-0.5 -5.5v-6v-6l1.5 -1.5l0.5 -0.5q1 0 3.5 -1.5l2.5 -1.5q1 0 3.5 -0.5
t5.5 -0.5t5.5 -0.5t3.5 -0.5v-1v-2v-3.5t-3 -1.5h-23v-20q0 -2 -2 -3.5t-3 -1.5q-2 0 -3 2.5t-1 4.5q0 13 -1 26.5t-1 27.5v3q1 8 3 18t4 18zM157 43q0 3 -1 6.5t-2.5 6.5t-2.5 6t-1 7q4 0 7.5 -3t6 -7t3.5 -8.5t1 -7.5v-6q0 -3 -0.5 -7t-2.5 -6.5t-5 -2.5q-2 0 -3.5 1
t-1.5 2q0 5 1 9.5t1 9.5zM112 45q0 3 -1 5.5t-1.5 5t-1.5 5.5t-1 6q4 0 7 -2t4.5 -5.5t2 -7t0.5 -7.5q0 -3 -0.5 -7t-2.5 -7.5t-4.5 -5.5t-7.5 -2v-2q-1 0 -1 1.5v2.5q0 2 1 4.5t2.5 5t2.5 5t1 5.5z" />
</svg>
