<?xml version="1.0" standalone="no"?>
<!DOCTYPE svg PUBLIC "-//W3C//DTD SVG 1.1//EN" "http://www.w3.org/Graphics/SVG/1.1/DTD/svg11.dtd" >
<svg xmlns="http://www.w3.org/2000/svg" xmlns:xlink="http://www.w3.org/1999/xlink" version="1.1" viewBox="-10 0 266 256">
   <path fill="currentColor"
d="M77 171q0 1 0.5 2.5t1 4t1 4t0.5 2.5t0.5 3.5l1 5t0.5 5v3.5q2 8 7 12.5t11 6t13.5 2t13.5 0.5h4q2 0 5 -0.5t6 -0.5h3q21 -4 31 -17t10 -36v-16t-0.5 -25.5t-1.5 -29.5t-3.5 -28t-5.5 -22t-8 -9l-34 -4q-6 2 -14.5 2t-17 0.5t-15.5 3t-9 9.5q0 1 -1 3.5t-2 6t-1.5 6.5
t-1.5 4v2v2q1 4 1 11.5t0.5 17t1 20.5t1.5 20.5t1.5 17.5t0.5 11zM91 174q0 -4 2 -6.5t5.5 -4t7.5 -1.5h7q5 0 9 1t9 1q10 0 19.5 -3t19.5 -3q2 0 2.5 0.5l1.5 1.5q-2 11 -3.5 20t-4.5 15.5t-10 10.5t-20 4q-12 0 -19.5 -0.5t-12.5 -4t-7.5 -10t-5.5 -18.5v-3zM89 153v-6.5
t-0.5 -9t-0.5 -8.5v-6v-5v-5t3 -3l2 -0.5t4 -0.5t4 -0.5t3 -0.5q15 -1 31 -3t31 -2q3 0 4.5 2.5t2 7t0 8.5t-0.5 7v5t-0.5 6t-1.5 6t-3 4q-18 3 -36.5 4t-35.5 1h-3t-3 -1zM88 94v-28q0 -7 5.5 -10.5t13 -5.5t15 -2.5t10.5 -0.5q7 0 15.5 1t15.5 3q4 7 5 15.5t1 16.5
q0 5 -2.5 6.5t-6.5 2.5t-8 1t-7 1q-7 0 -12.5 0.5t-10 0.5t-10 0.5t-11.5 0.5h-3q-2 0 -4 -0.5t-3 -0.5h-2z" />
</svg>
