<?xml version="1.0" standalone="no"?>
<!DOCTYPE svg PUBLIC "-//W3C//DTD SVG 1.1//EN" "http://www.w3.org/Graphics/SVG/1.1/DTD/svg11.dtd" >
<svg xmlns="http://www.w3.org/2000/svg" xmlns:xlink="http://www.w3.org/1999/xlink" version="1.1" viewBox="-10 0 266 256">
   <path fill="currentColor"
d="M99 246q3 1 7 2.5t7 2.5h3h5.5h4.5h4h13t12.5 -1.5t10 -5.5t7.5 -11q2 -12 3.5 -25t1.5 -25q0 -13 -1 -20.5t-5 -11t-12 -4.5t-21 -1h-2q-1 0 -5 0.5l-8 1t-7.5 1t-4.5 0.5q-9 1 -13.5 5.5t-6 11t-2 13.5t-0.5 14q0 14 1.5 27t7.5 26zM103 222q0 -3 3 -4.5t6.5 -1.5
t7 0.5t5.5 0.5q1 0 4.5 -0.5t8 -0.5t8.5 -0.5t5 -0.5h4h3t2 2v14q0 3 -2.5 4.5t-6 3t-7 2t-4.5 0.5q-5 0 -11 -0.5t-12 -2.5t-10 -5.5t-4 -10.5zM102 204v-13l3 -2h2.5t6 -0.5t7 -0.5t5.5 -1q6 0 12 -0.5t13 -0.5h9q2 1 3 2.5t1 3.5h-1v2.5t-0.5 3.5t-0.5 3.5v2.5
q-12 2 -24.5 2.5t-25.5 0.5h-4h-3zM103 172q0 -5 1.5 -8.5t7 -4.5t9 -2.5t7 -2t6.5 -1t7 -0.5q5 0 9 0.5t6.5 2t4 4t1.5 7.5v4v4q-2 2 -8 2.5t-13 1t-13.5 0t-10.5 -0.5h-2h-4h-3.5h-2.5q-2 0 -2 -2.5v-3.5zM84 123q15 2 30.5 2h29.5h37q3 0 3.5 -1.5t0.5 -2.5q0 -4 -1.5 -6
t-5.5 -2q-12 0 -24 2t-25 2h-5q-4 0 -8 -0.5t-7 -0.5h-6l-1 -0.5t-1.5 -0.5t-2 -0.5l-3 -1l-3 -1t-2 -1t-2 -4t-2.5 -5.5v-1v-1l0.5 -0.5l0.5 -0.5q2 -2 7 -5t10.5 -6.5t10 -7t6.5 -4.5l5 -2.5t5 -0.5q7 0 12.5 3t10 7t9 7.5t9.5 3.5q3 0 5.5 -1.5t2.5 -5.5q0 -3 -3 -6
t-8 -5t-10.5 -4t-10 -4t-8 -3.5t-3.5 -4.5q0 -8 1 -16.5t1 -17.5v-8q0 -1 -0.5 -2t-1.5 -2l-2 -2l-1 -1h-1q-1 0 -2 0.5t-2.5 1.5t-2.5 1.5t-1 1.5v42q0 4 -2.5 7t-6.5 5t-8 3.5t-6 2.5t-4 2.5t-4.5 3t-4.5 3t-4 1.5h-1q0 -1 -1 -2t-1 -2v-42q0 -2 -1.5 -3.5t-2.5 -1.5
t-3.5 0.5t-3.5 1.5v6v5q0 4 0.5 12t0.5 17t0.5 17t0.5 11t1 5.5t2.5 5t3 4.5t4.5 3z" />
</svg>
