<?xml version="1.0" standalone="no"?>
<!DOCTYPE svg PUBLIC "-//W3C//DTD SVG 1.1//EN" "http://www.w3.org/Graphics/SVG/1.1/DTD/svg11.dtd" >
<svg xmlns="http://www.w3.org/2000/svg" xmlns:xlink="http://www.w3.org/1999/xlink" version="1.1" viewBox="-10 0 266 256">
   <path fill="currentColor"
d="M133 170q0 15 6 28t14 26q1 1 3 5.5t5 8.5t6 7.5t5 3.5q3 0 5.5 -2.5t2.5 -5.5t-1.5 -6t-4 -5.5t-5 -4.5t-4.5 -4q-9 -13 -15 -27t-6 -29q0 -5 4 -8.5t8 -4.5l34 -7q4 -1 6.5 -5t4.5 -10.5t3.5 -14t2.5 -14.5t1.5 -12.5t0.5 -9.5q0 -3 -0.5 -7t-1.5 -8t-3.5 -6.5
t-6.5 -3.5q-2 0 -5.5 -0.5t-8 -0.5t-8 -0.5t-5.5 -0.5q-1 0 -2 -0.5l-1 -0.5v-1v-1v-6t0.5 -8t0.5 -6.5v-3.5q1 -1 1.5 -3l0.5 -2h35q2 0 3 -2.5t1 -3.5q0 -3 -2 -4t-4 -1h-7.5t-8.5 0.5l-8 1t-6 1.5l-50 3l-1 1l-1 1v1v1q1 0 2 1t2 1h31v11.5v17.5v17v11v9t-1.5 7t-4.5 4.5
t-9 1.5q-3 0 -5.5 -2.5t-2.5 -7.5v0q0 -1 0.5 -3.5t1.5 -3.5v-46l-1.5 -1.5t-2.5 -1.5v0q-2 0 -5 1.5t-3 3.5v39q1 4 1 9t1 9.5t3 8t8 3.5h54l1 0.5t1 1.5l0.5 4t1.5 6v1v0q-4 10 -10 14.5t-12.5 6t-13.5 2t-12.5 2.5t-9 7.5t-3.5 16.5zM49 147q2 3 3.5 5t3 2.5t3.5 1.5t5 3
h2.5h3.5h3h3h7.5t8 -1t6.5 -3.5t5 -6.5q3 -20 3 -38.5v-39.5v-8v-13v-13v-9q0 -1 -0.5 -3t-1.5 -4l-2 -4t-3 -2h-2.5h-4.5q-3 0 -5 -0.5t-3 -0.5h-13q-6 0 -10 2t-7.5 5.5t-6.5 11.5v8v12.5v12.5v9v36.5t2 36.5zM61 119v-4v-4t1.5 -1.5l3 -1t2.5 -0.5h1q2 0 6 -0.5t7.5 -0.5
t6 -0.5l2.5 -0.5l3 4v25l-0.5 1.5t-1.5 3.5l-2 4t-2 3t-1.5 1h-2.5q-8 0 -12.5 -1.5t-7 -5t-3 -9t-0.5 -13.5zM57 93l2 -22q0 -3 4.5 -4t9.5 -2t10 -1h7q1 0 2 0.5t2 1.5l0.5 1.5t1 3.5t0.5 3v2v2q0 1 0.5 4.5t-0.5 7.5t-2.5 7t-4.5 3h-23q-1 0 -2.5 -0.5t-3 -1.5t-2.5 -2.5
t-1 -2.5zM164 86q0 -6 0.5 -12t3.5 -11q3 -2 7 -2h6h8q5 4 6.5 9t1.5 11v5t-0.5 6t-2 5.5t-4.5 2.5h-20l-5 -5q0 -1 -0.5 -4.5t-0.5 -4.5zM57 53v-2v-2q2 -10 3 -14.5t3.5 -7t8 -2.5t16.5 -1h1q1 0 2.5 1t2.5 2q0 1 0.5 4t1 6.5t0.5 6v3.5v3q0 3 -3 4.5t-7.5 2l-9 1
t-6.5 0.5h-5q-3 0 -4 -1q-3 1 -3.5 -1t-0.5 -3z" />
</svg>
