<?xml version="1.0" standalone="no"?>
<!DOCTYPE svg PUBLIC "-//W3C//DTD SVG 1.1//EN" "http://www.w3.org/Graphics/SVG/1.1/DTD/svg11.dtd" >
<svg xmlns="http://www.w3.org/2000/svg" xmlns:xlink="http://www.w3.org/1999/xlink" version="1.1" viewBox="-10 0 266 256">
   <path fill="currentColor"
d="M154 248q0 2 1.5 2.5t3.5 0.5q3 0 5.5 -3t2.5 -6v-96q0 -3 1.5 -3h3.5q6 0 10 3.5t6 9.5t3 13.5t1.5 14.5t0 13t0.5 10v5t0.5 8.5t0.5 8v5.5q1 0 1.5 1l0.5 1h1q2 0 4.5 -1.5t4 -4t2 -5t0.5 -4.5v-2.5v-1.5l-0.5 -1.5t-0.5 -3t-0.5 -2.5t-0.5 -2q0 -3 -1 -9l-2 -12
t-1.5 -11t-0.5 -6q-1 -10 -2 -16.5t-4 -10.5t-9 -6.5t-17 -3.5l-4 -27l-1 -0.5l-1 -0.5q-2 0 -4.5 1t-2.5 3v22q0 1 -2.5 2.5t-6 3t-6 2t-3.5 0.5q-5 4 -8 12.5t-4.5 18.5t-1.5 19.5t-1 14.5q0 7 -2.5 14.5t-2.5 14.5q0 3 2 3.5t4 0.5q3 0 5 -2t3 -5q0 -3 0.5 -10.5t1 -16.5
t1 -17t0.5 -11t1 -8.5t3 -11t5 -9t8 -3.5q3 0 4 1t3 4q-1 1 -1 3t-0.5 4t-0.5 4v3v40q0 10 -1.5 22.5t-1.5 23.5zM62 165h4t5.5 0.5t5.5 0.5h4q4 0 8 -0.5t7 -2.5t5 -5t2 -8v-85q0 -11 -4.5 -16.5t-15.5 -5.5t-17.5 2t-9.5 7t-4.5 12t-1.5 17v18v14.5t0.5 19.5t3.5 19t8 13z
M62 134q0 -3 3.5 -4.5t8 -2.5t8.5 -1h6q3 0 4 1.5t1.5 3t0.5 4.5v4v6t-0.5 5.5t-2.5 4t-6 1.5q-7 0 -11 -1t-6 -3.5t-3 -6.5t-3 -11v0zM67 116q-4 -3 -4.5 -7.5t-0.5 -8.5v-3.5v-2.5l4 -3l23 -4q1 0 3 1.5t2 2.5v7v9.5t-1 8.5q-1 0 -3.5 0.5t-3.5 1.5h-2h-1q-1 0 -3 -0.5
t-5 -0.5t-5 -0.5t-3 -0.5zM194 116q1 2 3 2h2q7 0 7 -7q0 -3 -4 -6t-9.5 -5.5l-11 -5t-7.5 -3.5v-1.5v-1.5q0 -3 2 -4t4.5 -2t5 -2.5t2.5 -4.5v-1l-2 -2t-2 -1q-3 -1 -6 1l-6 4t-5.5 4.5t-6.5 2.5t-6.5 -2t-5 -4.5t-5 -4.5t-6.5 -2h-1t-2 0.5t-1 1.5v2q1 2 3.5 3.5t4.5 3
t4 3.5t2 4q0 4 -5 6.5t-11 4.5t-11 4.5t-5 6.5q0 2 0.5 3.5t2.5 1.5q5 0 10.5 -3.5t10 -7.5t9.5 -7t9 -3q3 0 5 1.5t3 3.5zM62 66q0 -4 2 -6.5t4.5 -4t5.5 -2t7 -0.5q1 0 4 0.5t4 0.5q3 1 4 3t1.5 5t0 5.5t-0.5 5.5q0 2 -0.5 5t-4.5 3h-19q-2 0 -3.5 -2t-2.5 -4t-1.5 -4.5
t-0.5 -4.5zM161 47q6 0 10 3.5t8 8t8 8.5t10 4q3 0 3.5 -1.5t0.5 -5.5q0 -5 -4 -7.5t-9 -4.5t-10 -4.5t-6 -7.5q0 -3 4 -5.5t9.5 -5t10.5 -5t5 -6.5v-5q-1 -1 -2.5 -1h-3.5q-5 0 -8.5 3t-7 6.5t-7.5 7t-9 3.5t-8.5 -3.5t-6.5 -7t-6.5 -6.5t-8.5 -3h-3.5t-1.5 3v2
q2 2 5.5 4.5t7.5 5.5t7 6t3 5q0 5 -2.5 7.5t-5.5 4.5t-7 3.5t-7.5 3.5t-5.5 4.5t-2 6.5q7 0 12.5 -3.5t10.5 -7.5t9 -7t8 -3z" />
</svg>
