<?xml version="1.0" standalone="no"?>
<!DOCTYPE svg PUBLIC "-//W3C//DTD SVG 1.1//EN" "http://www.w3.org/Graphics/SVG/1.1/DTD/svg11.dtd" >
<svg xmlns="http://www.w3.org/2000/svg" xmlns:xlink="http://www.w3.org/1999/xlink" version="1.1" viewBox="-10 0 266 256">
   <path fill="currentColor"
d="M135 247q0 2 3 2h3q8 0 13.5 -5t9.5 -11q7 -10 13 -20.5t10.5 -21t7 -22t2.5 -24.5t-5 -24t-11 -21q-4 -1 -7 -4.5t-3 -7.5v-1v-2q9 0 14 -2.5t8 -6.5t4 -10t3 -14v-2q0 -2 -0.5 -6.5t-1.5 -9t-2.5 -8.5t-3.5 -4l-26 -5q-5 -1 -10 0t-8.5 4t-6.5 7t-4 8v15q0 2 -0.5 5.5
t0 7l1 7t2.5 5.5q1 1 3 2.5t4.5 3t4 3.5t1.5 3q0 3 -5 7t-11 8.5t-11 8t-5 6.5v0.5v0.5l0.5 0.5l0.5 0.5h1q6 0 11 -3.5t9 -8t8 -8.5t9 -4q3 0 6 3.5t3 7.5q0 2 -3.5 7t-9 10.5t-11 10.5t-8.5 8l-4 2l-4 2t-3 2.5t-2 4.5q1 1 3 1h4q3 0 7.5 -2.5t9.5 -7t9 -9.5t7.5 -9
t6.5 -7t4 -3q2 0 3.5 3l3 6t2 6t0.5 4q0 4 -3.5 8t-7.5 5q-3 2 -7.5 7t-10.5 10.5t-11 10.5l-7 7q-2 1 -6 4t-8 5.5t-7.5 6t-3.5 5.5q0 5 4 5t9.5 -3.5t12 -9t12.5 -12t12 -12.5l11 -11l8 -8h1q2 0 2 1.5v2.5q0 11 -3.5 21t-8.5 20t-11.5 19t-12.5 17q-1 1 -3 2.5t-4.5 3
t-4 3.5t-1.5 3zM56 152l5 5t6 3h31q1 0 3.5 -1t2.5 -2l7 -18v-4.5t0.5 -12t1 -17t0.5 -19t0.5 -19t0.5 -15.5v-3q0 -4 -2.5 -6t-5.5 -4h-3.5t-6 -0.5t-6 -0.5h-3.5h-4q-9 0 -13.5 3.5t-6.5 9t-2.5 12.5t-1.5 14q-2 14 -2.5 27.5t-0.5 26.5v21zM67 148v-24l3 -4h30q1 0 1 2v3
v6.5t-1 9t-3 8t-6 3.5h-21zM69 109v-24l1 -1q1 0 3.5 -0.5t6.5 -1t7 -0.5h1h2q1 0 3.5 0.5t4.5 0.5t3.5 0.5l1.5 0.5l1 1q0 1 0.5 3.5t0.5 4.5q0 3 -0.5 7.5t-1.5 8.5q-1 1 -5 1.5t-5 0.5h-2h-3q-1 0 -3.5 -0.5t-5.5 -0.5t-6 -0.5t-4 -0.5zM145 59v-4.5t3 -2.5h35
q3 0 3.5 1.5t0.5 2.5v1.5v0.5q0 1 -0.5 3t-1 4.5t-1 4.5t-0.5 3q-2 2 -4.5 3t-6 1.5t-6.5 0.5h-6h-4t-4 -1q-4 -2 -6 -8t-2 -10zM72 67q0 -2 0.5 -5.5t2 -7t3.5 -6t5 -2.5h18l0.5 0.5l1 1t1 1.5t0.5 2v23h-25q-2 0 -4 -1t-3 -2v-1v-3zM146 38q0 -4 3 -6t6.5 -2.5t7.5 -1
t6 -0.5h5h5q1 1 2.5 1.5t2.5 1.5q0 1 1 2.5t1.5 3t0.5 3v1.5l-3 3h-32q-3 0 -4.5 -2t-1.5 -4z" />
</svg>
