<?xml version="1.0" standalone="no"?>
<!DOCTYPE svg PUBLIC "-//W3C//DTD SVG 1.1//EN" "http://www.w3.org/Graphics/SVG/1.1/DTD/svg11.dtd" >
<svg xmlns="http://www.w3.org/2000/svg" xmlns:xlink="http://www.w3.org/1999/xlink" version="1.1" viewBox="-10 0 266 256">
   <path fill="currentColor"
d="M101 246q1 2 3 2.5l4 1l4 1t4 0.5v0q2 0 6 -0.5t8.5 -0.5t9 -0.5t5.5 -0.5q5 -1 8 -5t4.5 -9.5t2.5 -11t1 -9.5v-9q-1 -13 -1 -23t-3 -16.5t-10 -10.5t-21 -4h-11q-1 1 -2.5 1.5t-3.5 1.5t-3.5 2.5l-2.5 2.5t-2 4t-1.5 6.5t-1.5 6.5t-1 4v2v4v4.5v3.5q0 13 0.5 26.5
t3.5 25.5zM182 186q0 1 0.5 2.5t0.5 2.5t0.5 3t0.5 5t0.5 5.5t0.5 3.5q0 4 1.5 9.5t4 11t4.5 10.5t5 9h1q1 0 2 -0.5t1 -1.5q-7 -18 -11.5 -37.5t-4.5 -38.5q0 -12 0.5 -23t2 -22t2.5 -22.5t1 -22.5q0 -8 -3 -13t-8 -8t-11.5 -4.5t-12.5 -1.5h-6.5t-7 -0.5t-6.5 -0.5h-3
l-3 -2v-1v-2v-2v-4t1 -3.5t2 -1.5l43 -4v-6h-43q-1 0 -1 -2.5t-0.5 -6t-2 -6t-5.5 -2.5h-2t-1 1v40l-4 3h-3.5h-4.5h-4.5h-3.5l-2 0.5l-4 1t-3.5 1t-2.5 0.5q-2 1 -4.5 1t-5.5 1t-5.5 2.5t-3.5 3.5q-2 4 -4 11.5t-2 12.5q0 1 0.5 3l0.5 2q0 3 0.5 9t0.5 13t0.5 13.5t0.5 8.5
v21v21q-1 1 -1.5 3.5t-0.5 3.5t-0.5 5.5t-1 10t-1 10t-0.5 5.5q0 3 -1.5 6t-3 5.5t-3 5.5t-1.5 6t3 3t5 -1.5t3.5 -4.5t2.5 -6t1 -5q0 -1 1 -4.5t1.5 -7t1.5 -7t1 -4.5l1 -1v-114q0 -11 7 -16.5t17 -8t21 -2.5h19h11t12 1t11.5 3.5t9.5 7.5v11q0 19 -1.5 38t-1.5 39v25z
M104 228v-2v-3q12 -1 23 -1.5t23 -0.5q0 7 -1.5 11.5t-5 7t-8.5 3t-11 0.5h-8.5t-6 -2t-4 -4.5t-1.5 -8.5zM103 200v-3.5v-2.5l1 -1h7h10h10h7l1 -0.5t2.5 -0.5t2.5 -0.5l1 -0.5h3q3 0 3.5 3t0.5 6v3t-0.5 4.5t-1 4t-2.5 2.5q-11 -1 -20.5 0t-20.5 1q-2 0 -3 -2t-1.5 -4.5
t0 -5t0.5 -3.5zM103 177q0 -7 4.5 -10.5t10.5 -5t12 -2t11 -0.5q3 0 5 2.5t3.5 6t2 7t0.5 6.5v2t-2 2h-44l-0.5 -1.5t-1.5 -1.5q0 -1 -0.5 -3zM85 149v1l1 0.5t2 0.5h1q3 0 8 -3.5t10.5 -8t9 -9.5t3.5 -9q-3 0 -6 2t-5.5 4t-4.5 4.5t-4 4.5q-2 1 -4.5 2.5l-5 3t-4 3.5
t-1.5 4zM140 123q0 3 3.5 8t7.5 9.5t8.5 7.5t7.5 3h1l0.5 -0.5l0.5 -0.5q0 -2 -3 -6.5t-8 -9t-10 -8t-8 -3.5zM115 100q-2 0 -5.5 0.5t-5.5 1.5q-1 1 -3.5 2.5t-5 3.5t-4.5 4.5t-2 5.5q1 0 5 -0.5t6 -1.5q1 -1 3 -3.5t5 -5t5 -5zM144 101q1 4 4 7t7 5.5t8.5 3.5t8.5 1
q0 -2 -3 -5t-7 -6t-8 -5t-7 -2l-1.5 0.5zM89 88q2 0 5.5 0.5t7.5 0.5t8 0.5t5 0.5h1h2q1 0 6 -0.5t10.5 -0.5t10.5 -0.5t6 -0.5t4.5 0.5t7 0t6.5 -1t4 -2.5l-4 -3h-2t-5 -0.5t-5 -0.5v0h-1h-8t-12.5 0.5t-12.5 0.5h-8h-2h-3h-4h-2l-2 0.5t-4.5 1t-4 1t-2.5 0.5l-0.5 1
t-1.5 1v1v0z" />
</svg>
