<?xml version="1.0" standalone="no"?>
<!DOCTYPE svg PUBLIC "-//W3C//DTD SVG 1.1//EN" "http://www.w3.org/Graphics/SVG/1.1/DTD/svg11.dtd" >
<svg xmlns="http://www.w3.org/2000/svg" xmlns:xlink="http://www.w3.org/1999/xlink" version="1.1" viewBox="-10 0 266 256">
   <path fill="currentColor"
d="M66 245q0 2 0.5 4t3.5 2q6 0 7 -3.5t1.5 -8t0.5 -8.5t3 -5q12 -1 24.5 -2l25 -2l25 -2t24.5 -3q2 0 3.5 -1.5t1.5 -3.5q0 -3 -1.5 -4.5t-3.5 -1.5q-9 0 -17 1.5t-16 1.5h-8l-3 -3v-14q0 -2 3 -2.5t7 -0.5h8.5t8.5 -1t6.5 -2.5t2.5 -4.5l-0.5 -2t-0.5 -3h-5h-5
q-5 0 -9.5 1t-9.5 1h-2h-2.5t-2 -1t-0.5 -2v-11q0 -1 4.5 -2t10.5 -1.5l12 -1t9 -1.5q0 -1 0.5 -3l0.5 -2q0 -1 -0.5 -2l-0.5 -1h-4h-4h-4h-3h-3.5t-5 0.5t-5 0.5h-3.5q-3 0 -5.5 -2.5t-2.5 -6.5v0q1 -1 1.5 -2l0.5 -1h6q4 0 8.5 1t9 2.5l9 3t8.5 1.5h1q2 -1 5.5 -2t3.5 -4
v-1q-3 -3 -6.5 -4.5t-8 -2.5t-8.5 -1.5t-7 -0.5q-1 0 -4.5 -0.5t-7 -0.5t-7 -0.5t-4.5 -0.5q3 -2 5 -2q3 0 7 -1l2 -1t5 -2t5 -2l2 -1q1 0 3 -0.5t4.5 -1t4.5 -1t3 -0.5v-8l-2 -0.5t-3 -1.5l-2.5 -0.5l-5 -1t-4.5 -1t-3 -0.5l-1.5 -0.5t-3 -1.5t-3.5 -1.5t-3 -1.5l-2 -0.5
t-4 -1.5t-3.5 -2t-1.5 -2q-1 -1 -1 -3t-0.5 -4t-1.5 -4t-4 -2q-1 0 -2 0.5t-1 1.5t0.5 3.5t1.5 3.5v2v2q-12 8 -24.5 13.5t-26.5 7.5q-1 0 -2 1.5t-1.5 2.5t-1 2.5t-0.5 2.5q1 3 3 4t4 1q3 0 4.5 -1t4.5 -1q1 0 3 0.5t4.5 1.5t4.5 2t3 2q-1 4 -3 5.5t-5 3t-5.5 3.5t-4.5 4
q-5 8 -7.5 15t-3 14.5t-0.5 15.5v18q0 1 -0.5 5.5t-1 9.5t-1 9t-0.5 5v5zM80 214v-3.5v-3.5v-3t0.5 -4l1 -4t1.5 -2q9 -1 18 -2.5t18 -1.5q5 0 6 3.5t1 7.5t-1 6.5t-4 4.5q-2 1 -7 1t-10.5 0.5t-10 1t-6.5 0.5h-3h-2t-2 -1zM83 176q0 -4 1 -7t4 -5q2 0 5.5 -0.5t7.5 -0.5
t8 -0.5t5 -0.5h5q2 0 3.5 2t2 4.5t1 5.5t0.5 5q0 1 -4.5 2t-10.5 1t-12 0.5t-9 0.5q-1 0 -3 -0.5l-2 -0.5l-2 -1v-1.5v-3.5zM93 150q0 -3 3.5 -6t8.5 -5t10 -3.5t8 -1.5v19q-6 0 -12 0.5t-11 0.5h-3h-2q-1 0 -1.5 -1t-0.5 -2v-1zM96 117q0 -2 3 -4t7.5 -4t8.5 -3.5t6 -1.5
t6 0.5t8.5 1.5t7.5 2.5t3 4.5t-3.5 4t-6.5 1q-2 0 -4 -0.5t-3.5 -2t-3.5 -2.5t-5 -1q0 4 0.5 7t-2.5 6h-7q-2 0 -4.5 -0.5t-4.5 -1t-4 -2t-2 -4.5zM137 82q4 6 8.5 8.5t11.5 2.5h1h4.5t7 -0.5t7 -0.5h4.5q6 -3 9 -7t4 -9t0.5 -11t-0.5 -11q0 -4 0.5 -9t0 -10t-2 -9.5
t-4.5 -7.5h-6t-9 -0.5t-9 -1t-6 -0.5h-1q-8 0 -13 4.5t-8 10.5q0 1 -0.5 3t-0.5 5v5v4q0 9 0.5 17t1.5 17zM59 59q3 4 3 9t0.5 9t2.5 8t7 7h2h4h3h2q11 0 17.5 -1t10 -4t4.5 -9t1 -16v-11t-0.5 -14.5t-2.5 -13.5t-7 -8q-5 -1 -10 -1.5t-10 -0.5q-3 0 -7.5 1t-9 3.5t-7.5 5.5
t-3 8v28zM145 76v-2q1 -1 1.5 -3.5l0.5 -2.5h32q1 0 2 2t2 3v1q0 4 -2.5 6t-6 3t-7.5 1h-7h-5.5t-4.5 -1t-3.5 -2.5t-1.5 -4.5zM75 77q0 -3 3 -5.5t5 -3.5q1 0 4 -0.5t5.5 -0.5t5.5 -0.5l3 -0.5q7 0 7 7q0 4 -2 6t-5 3t-7 1h-6h-4t-4 -0.5t-3.5 -2t-1.5 -3.5zM70 53
q0 -4 3.5 -6t8 -3t9.5 -1h8h6q2 1 2.5 3t0.5 4q0 6 -7 9q-4 0 -7 0.5t-5.5 0.5h-5.5h-5h-6q-1 -1 -1.5 -3t-0.5 -4zM145 51q0 -3 0.5 -4.5t3.5 -1.5h8t6.5 0.5t7 0.5h8.5q4 1 5 2.5t1 5.5v1.5v1.5l-4 2h-34l-0.5 -1.5t-1.5 -1.5v-5zM70 34q0 -4 2.5 -6.5t6 -3.5t7.5 -1h6
q5 0 8 1t3 6q0 3 -2.5 4.5t-6 2t-7 0.5h-5.5h-10l-1.5 -1.5t-0.5 -1.5zM147 33q0 -4 2.5 -6t5.5 -2.5t7 -0.5h6q7 0 10.5 3t3.5 10h-34q-1 0 -1 -2v-2z" />
</svg>
