<?xml version="1.0" standalone="no"?>
<!DOCTYPE svg PUBLIC "-//W3C//DTD SVG 1.1//EN" "http://www.w3.org/Graphics/SVG/1.1/DTD/svg11.dtd" >
<svg xmlns="http://www.w3.org/2000/svg" xmlns:xlink="http://www.w3.org/1999/xlink" version="1.1" viewBox="-10 0 266 256">
   <path fill="currentColor"
d="M141 244q0 2 1 3.5t3 1.5t3 -1t2 -3t1.5 -3.5t0.5 -3.5v-6v-10v-9.5v-6.5q0 -3 1 -7t6 -4q3 2 4 5t2 7t1 7v5v6.5v9.5v9v6q3 0 5 -1.5t2.5 -3.5t1 -5t0.5 -5v-3v-2q0 -1 -0.5 -5t-0.5 -9t-0.5 -9t-0.5 -5q0 -4 -2 -7.5t-5 -5.5h-4h-3q-9 0 -12.5 5.5t-4.5 13.5t-0.5 17
t0.5 15l-0.5 1.5t-0.5 2.5zM187 245q0 1 1 2.5t3 1.5t3 -1.5t2 -4t1.5 -5t0.5 -4.5q0 -3 -0.5 -5t-1.5 -5l-3 -44q0 -7 -4 -9.5t-8.5 -3.5t-9.5 -1h-9h-16t-12 2t-8.5 7t-5.5 16q0 2 0.5 5.5t-1.5 5.5q0 2 -0.5 8t-1.5 12.5t-1 12.5t-1 8v1v1q1 0 1.5 0.5l0.5 0.5q1 1 2 1.5
l1 0.5q2 -1 4.5 -2.5t2.5 -2.5v-51q0 -8 4.5 -11.5t11.5 -5t14 -1t12 0.5h9q2 1 3 3t2 5q0 1 0.5 4.5l1 7t0.5 6.5v4q1 2 1 7.5t0.5 12t0.5 12.5v8zM195 155v5t1 6.5t2.5 6t3.5 2.5q3 0 4 -1.5t1 -4.5q0 -9 -1 -18.5t-2.5 -18.5t-2 -18t-0.5 -19q-1 0 -2 -1t-1 -2h-1h-1
l-2 2v22l-4 2h-4.5h-10.5t-12.5 0.5t-10.5 0.5h-14h-15q-3 0 -4 -3.5t-1 -7t-0.5 -7t-3.5 -3.5t-5 4q0 2 0.5 6.5t0.5 9.5q0 6 -0.5 10.5t-0.5 6.5q0 7 -2 13t-2 13v3q0 3 2 3q3 0 4.5 -2.5t2 -6l1 -7t0.5 -5.5q0 -1 0.5 -3l1 -4t0.5 -4.5v-2.5q1 -1 2.5 -2t2.5 -1h18
q0 7 -3.5 11t-7 6.5t-6.5 4t-3 3.5l0.5 2t1.5 3l0.5 0.5l0.5 0.5q2 0 5 -1.5t6.5 -4t6.5 -5t4 -3.5l2 -6l2 -6t2.5 -5t6.5 -2h3q1 0 2 2q-2 12 4.5 18.5t17.5 6.5q2 0 3 -1t3 -1v0zM56 144q4 5 8.5 6t9.5 1h6t8 -0.5t7 -2.5t3 -5v-31v-31q0 -1 -0.5 -3.5t-1 -5.5t-0.5 -5.5
v-3.5v-1v-3v-2v-1q-1 -2 -3 -4.5t-3 -2.5h-26q-1 2 -3.5 3t-4.5 4t-3 8.5t-1.5 11.5t0 11.5t0.5 8.5q0 13 0.5 24.5t3.5 23.5zM183 127h2q2 0 3.5 0.5l3 1t1.5 1.5v18q-1 0 -4.5 -1t-8 -2.5t-7.5 -3l-3 -1.5v-11q0 -1 2 -1.5t4 -0.5h4h3zM62 128q0 -3 2.5 -5t5.5 -3t6 -1h5
h6q2 2 2.5 3t0.5 4v4t-0.5 4.5t-1.5 4.5t-3 2q-1 0 -3 0.5t-4.5 0.5t-4.5 0.5t-3 0.5v0h-1q-1 0 -2.5 -2t-2.5 -4.5t-1.5 -5t-0.5 -3.5zM61 103q0 -4 2 -6.5t5.5 -3.5t7 -1h7.5t5.5 2t1.5 7q0 4 -2 5.5t-5 2.5t-6 1h-6q-1 0 -4.5 -0.5t-4.5 -0.5t-1 -0.5t-0.5 -2t0 -2.5z
M119 76q1 3 1 4v3q0 1 0.5 2.5l1.5 4.5q1 5 4 8.5t6.5 5t8 2.5t8.5 1q2 0 5.5 -0.5l3.5 -0.5h3.5t5.5 -0.5l6 -1t5 -1.5q4 -1 6 -4.5t3.5 -8t2.5 -8.5t1 -7q1 -2 1.5 -7l1 -10l1 -10t0.5 -7v-11v-4v-6t-1 -5.5t-4 -2.5q-5 0 -6 4.5t-1 10.5t0.5 12t-0.5 8l-3 5l-21 -22v-20
q0 -1 -1 -1.5t-2 -0.5t-3 1t-2 4v19q0 1 -3 3l-6 4t-6.5 3t-4.5 1h-2q-2 -6 -2 -13t1 -12q-1 -2 -2 -2h-2q-4 0 -5.5 3t-1.5 6q0 7 0.5 13l1 12t0.5 12v14zM138 97q-1 -1 -1 -1.5v-1.5v-2q5 -1 9 -1.5t7.5 -1t7 -0.5h8.5h6q1 0 1 1v2q0 3 -2 4.5t-5 2t-6 0t-5 -0.5h-9.5
t-10.5 -1zM61 79l-0.5 -2.5t-0.5 -3.5t0.5 -3.5l0.5 -2.5q0 -2 2.5 -4.5t3.5 -2.5h18q2 0 3 2t1.5 4.5t0.5 5v4.5q0 3 -3 4.5t-6.5 2t-7.5 0.5h-6t-3.5 -0.5t-2.5 -3.5zM129 78v-1v-1q11 -2 21 -2.5t21 -0.5h10l1.5 1.5t0.5 1.5q0 3 -4 5q-9 1 -16.5 1.5t-16.5 0.5h-15
q-2 -1 -2 -2v-3zM126 62q0 -1 0.5 -3.5t2.5 -2.5l22 -10q0 -1 1 -1.5t2 -0.5t4.5 2t7 4.5t6.5 5.5t3 5q0 1 -2 2.5t-3 1.5h-42q-2 0 -2 -1v-2z" />
</svg>
