<?xml version="1.0" standalone="no"?>
<!DOCTYPE svg PUBLIC "-//W3C//DTD SVG 1.1//EN" "http://www.w3.org/Graphics/SVG/1.1/DTD/svg11.dtd" >
<svg xmlns="http://www.w3.org/2000/svg" xmlns:xlink="http://www.w3.org/1999/xlink" version="1.1" viewBox="-10 0 266 256">
   <path fill="currentColor"
d="M152 246l2 4h1.5h1.5q4 0 6.5 -1t2.5 -6v-1q0 -1 -0.5 -3t-1.5 -2q1 -9 0.5 -15l-1 -12t-0.5 -12.5v-14.5v-1v-8.5t0.5 -11t0.5 -9.5v-4q0 -2 0.5 -5.5l1 -7t1.5 -6.5t3 -5h4t6 -0.5t5.5 -0.5h3.5l2 -0.5t3.5 -1t2.5 -1.5t1 -3v0v-1l-1.5 -1t-1.5 -2h-2h-3.5h-3.5h-2
q-8 0 -14.5 1t-10 4t-5.5 9t-2 16v102zM77 232q0 3 1.5 5t3.5 2t3.5 -1.5t2 -3.5l1 -4t1.5 -4v-31q0 -18 -1 -36t-1 -36v-3v-5.5v-4.5v-3q1 -2 3 -3.5t4.5 -2.5l5 -2t3.5 -1q4 0 4.5 1t0.5 4q0 7 -1.5 13.5t-1.5 13.5v4t3 2q2 0 4 -2t2 -4t0.5 -6t0.5 -9t0.5 -9t0.5 -6v-2
q0 -14 -7 -21t-19 -10v-16q0 -2 4.5 -4t9.5 -4.5t9.5 -6.5t4.5 -11q0 -4 -2.5 -8.5t-7.5 -4.5h-52q-1 0 -1 1v2q0 2 1.5 3.5t3.5 2.5t4 1.5t4 0.5q8 0 16 -1.5t16 -1.5h7q1 0 1 1.5v2.5q0 6 -3.5 9t-8.5 5.5t-9 4t-5 4.5l-3 15q0 2 -1 2h-3q-5 0 -9 -3.5t-4 -9.5v-1
q0 -1 0.5 -2t0.5 -2.5t0.5 -2.5l0.5 -1q0 -4 -2.5 -7.5t-5.5 -3.5t-4 1t-1 4v0q0 1 1 1q0 1 0.5 3.5l0.5 2.5l1.5 15t2.5 7.5t6.5 4t14.5 3.5l0.5 0.5t0.5 1.5v9v12t-2 6.5t-5 5t-8 6.5l-2 2q-1 1 -2 3.5l-2 5t-2 4.5t-1 3q-5 14 -6.5 30.5t-1.5 31.5v18q1 2 2 2.5t2 0.5
h2.5t1.5 -1q3 -4 3 -10v-9v-5v-8v-8v-5t0.5 -3.5t1 -6t1 -6.5t0.5 -4q1 -8 4.5 -15.5t7.5 -14.5h2h1.5t1.5 1q-1 21 0 41.5t1 40.5v5q0 1 -0.5 4.5t-1 7.5t-1 7.5t-0.5 4.5v1zM123 102q0 1 0.5 2t1.5 1q4 0 7.5 -5t7 -12.5t7 -16.5t6.5 -16.5t5.5 -12.5t5.5 -5q2 0 5 4.5
t6 11t7 14.5t7.5 14.5t7 11t6.5 4.5h4t2 -3q0 -1 -2 -5t-5 -9.5t-6.5 -12t-7 -12.5t-6 -10.5t-3.5 -6.5l-1 -1.5t-2.5 -4t-2.5 -4t-1 -2.5l-0.5 -1.5l-1 -3l-1 -3l-0.5 -1.5q-1 -3 -2 -3.5t-3 -0.5q-3 0 -5 2t-3.5 4.5t-2 5.5t-1.5 6l-1 2.5l-2 5l-2 5t-1 3t-1 3.5l-2 6
l-2 6l-1 3q0 1 -3 6.5t-6 12t-5.5 12t-2.5 6.5zM89 85q0 -3 0.5 -6t4.5 -3q1 0 3.5 1t4.5 2.5t3 3.5t1 4q0 4 -3.5 4.5t-7.5 0.5h-4q-2 -1 -2 -3v-4zM146 89q0 1 0.5 2l0.5 1h34q2 0 4 -1t2 -3v-2t-1 -2h-3h-4.5h-4.5h-3h-12q-6 0 -12 2l-0.5 1t-0.5 2z" />
</svg>
