<?xml version="1.0" standalone="no"?>
<!DOCTYPE svg PUBLIC "-//W3C//DTD SVG 1.1//EN" "http://www.w3.org/Graphics/SVG/1.1/DTD/svg11.dtd" >
<svg xmlns="http://www.w3.org/2000/svg" xmlns:xlink="http://www.w3.org/1999/xlink" version="1.1" viewBox="-10 0 266 256">
   <path fill="currentColor"
d="M93 246q0 2 2 3.5t3 1.5q3 0 4.5 -2t2.5 -5t1.5 -6t1 -4.5t1 -4.5t1 -6.5t1 -6t0.5 -3.5v-5.5t0.5 -8.5t0.5 -8.5v-5.5q2 -4 2.5 -7t0.5 -5.5v-4.5t1.5 -3t5.5 -1.5t12 -0.5h4h3l2 3q0 1 0.5 7t1 14.5t1 17.5t0.5 14v26q-1 2 0.5 3.5t3.5 1.5t3 -1.5t1.5 -3t0.5 -3.5v-3
q0 -11 -1.5 -21.5t-1.5 -21.5v-3q0 -1 1 -2.5t1 -2.5t-1 -3.5l-1 -2.5v-3.5v-5.5v-4v-4q2 -2 6 -2h9t7 -1t3 -4q0 -2 -0.5 -3t-2.5 -1h-34q-2 0 -3.5 -2t-1.5 -3v-17q0 -1 0.5 -1.5t1.5 -0.5h4q6 0 12.5 1.5t13 4l13 5t11.5 5.5l1.5 1l3 2t2.5 2t2 1q4 0 4.5 -3t0.5 -5
q0 -4 -5 -7t-13 -5.5t-17 -4t-17 -3.5t-13 -4t-5 -5t3 -4t7.5 -1.5t10 -1t10 -3t7.5 -6.5t3 -12q0 -2 -0.5 -4l-1 -4t-1.5 -3.5t-4 -1.5h-3.5h-6.5h-6h-4q-12 0 -23.5 1t-23.5 1l0.5 2l0.5 2q0 1 0.5 1.5l0.5 0.5h56q3 0 4 3t1 5t-1.5 3.5t-3.5 2.5l-4 2t-4 1h-2.5t-5.5 0.5
t-6.5 0.5h-5.5v0h-1h-6t-9 -0.5t-9 -0.5h-6q-2 -1 -4.5 -3t-3.5 -5v-9v-8q0 -5 1 -8.5t3.5 -6.5t6.5 -4h3.5t6 -0.5t6.5 -0.5h4h10.5h10.5q6 0 11 -1t9 -3t6.5 -6t2.5 -11v-8q-1 -5 -6.5 -7t-12.5 -3t-13 -0.5t-10 -0.5h-7.5t-13.5 -0.5t-13 -0.5h-8h-1q-3 0 -5 2t-2 4
q0 4 2.5 4.5t5.5 0.5h5q1 0 5 -0.5t8.5 -0.5t8 -0.5t4.5 -0.5t2 0.5t2.5 0.5t2.5 0.5l1 0.5h22q1 0 3.5 0.5t4.5 1t4 2t2 4.5q0 7 -5 10t-13 3.5t-17 0t-18 -0.5t-15.5 1.5t-9.5 7.5t-3 14v15v13q2 6 6 8.5t9 3.5t10.5 1t10.5 -1q2 1 3 2t1 3q0 5 -5.5 9.5t-13.5 8
t-17.5 6.5t-18 6t-14.5 5.5t-6 5.5q-1 1 -1 4v4h7q1 -1 4.5 -3t7.5 -4t7.5 -3.5t5.5 -2.5q3 -1 9 -4.5t12.5 -6.5t12 -5.5t7.5 -2.5t2.5 0.5t0.5 3.5v3v3.5v5.5t-0.5 5.5t-0.5 3.5l-3 1.5t-2 0.5h-3h-3h-5t-8 0.5t-8 0.5h-5q0 1 -1 2t-1 2v0v1l1 1.5l1 1.5q2 0 5.5 -0.5t6 0
t4.5 2.5t2 5q0 8 -0.5 16.5t-3.5 15.5l-3 33q-1 1 -2 4t-2 4z" />
</svg>
