<?xml version="1.0" standalone="no"?>
<!DOCTYPE svg PUBLIC "-//W3C//DTD SVG 1.1//EN" "http://www.w3.org/Graphics/SVG/1.1/DTD/svg11.dtd" >
<svg xmlns="http://www.w3.org/2000/svg" xmlns:xlink="http://www.w3.org/1999/xlink" version="1.1" viewBox="-10 0 266 256">
   <path fill="currentColor"
d="M81 152q0 18 -2.5 35t-5.5 35q-1 3 -2.5 7t-3 7.5l-3 7t-1.5 7.5h5q1 0 2.5 -1.5l3.5 -3.5t3.5 -4t1.5 -4q2 -12 4.5 -24t4.5 -24t3 -24t0 -24q1 -4 5 -4.5t7 -0.5t3.5 0.5t1.5 4.5q5 24 8.5 47.5t10.5 47.5q0 1 0.5 2.5l1 3t1.5 2.5t3 1t4 -1t2 -4q0 -5 -1.5 -9t-3.5 -9
q-2 -9 -4.5 -18.5t-4.5 -18.5q-3 -11 -4.5 -22.5t-3.5 -21.5v-1v-1q1 0 1.5 -1.5l0.5 -1.5l22 -3l1 -0.5t1 -1.5v-2.5v-3.5q-23 0 -46.5 2t-45.5 4q-2 1 -2 2.5v3.5t0.5 3t3.5 1h1q1 0 4 -0.5t6.5 -1t6.5 -1t4 -0.5h1v0q1 0 2.5 0.5t2.5 0.5v12zM155 59h-3t-2 2v75
q0 5 2.5 11t9.5 7h4.5h4.5q5 0 11 -0.5t11.5 -2.5t9 -6t3.5 -11v-78l-7 -6q0 -1 -1 -0.5t-2 1.5t-1 2v2v2v6.5t0.5 10t0.5 10v6.5v1q0 3 -1.5 3.5t-3.5 1.5q-7 1 -13.5 1h-13.5h-4l-2 -1v-32q0 -4 -0.5 -4.5t-2.5 -0.5zM160 142v-32q0 -2 4.5 -3.5t10 -2t10.5 -0.5h7h3t1 1
v9v16t-2.5 9.5t-8 4.5t-16.5 1h-3.5h-2.5zM97 105v3v3t0.5 3.5t2.5 1.5t3.5 -2.5t2 -5.5t0.5 -6v-3v-4.5t-0.5 -7.5t-0.5 -7v-4v-1v-1v-3t0.5 -4.5t0.5 -4.5v-3l1.5 -1.5t2.5 -0.5q1 0 1.5 0.5l1.5 1.5q0 1 1.5 2.5l3 3t2 2.5l0.5 1q2 3 3 9t3 12.5t4 11t5 4.5q1 0 2 -2
t1 -4.5v-4.5v-3q0 -7 -2.5 -14t-6.5 -13t-9.5 -11t-11.5 -9l-1.5 -1.5l-0.5 -0.5v-27q0 -2 -1.5 -2h-2.5h-2t-2 2v21l-1.5 2t-2.5 3q-1 0 -2 1l-2.5 2.5l-2.5 2.5l-1 1q-5 7 -9 14.5t-7 16.5t-5 17.5t-2 16.5q5 0 8 -4.5t5.5 -11t4.5 -14.5t4 -14.5t4 -11t5 -4.5h0.5h0.5
l1 0.5l1 0.5q0 2 0.5 6.5t0.5 9.5v9v6v2q0 5 -0.5 9.5t-0.5 8.5z" />
</svg>
