<?xml version="1.0" standalone="no"?>
<!DOCTYPE svg PUBLIC "-//W3C//DTD SVG 1.1//EN" "http://www.w3.org/Graphics/SVG/1.1/DTD/svg11.dtd" >
<svg xmlns="http://www.w3.org/2000/svg" xmlns:xlink="http://www.w3.org/1999/xlink" version="1.1" viewBox="-10 0 266 256">
   <path fill="currentColor"
d="M63 245q0 3 0.5 3.5t3.5 0.5t4.5 -2t2.5 -4.5t1.5 -5.5t0.5 -4q1 -5 1.5 -12t1.5 -14.5t1.5 -13.5t0.5 -8v-10v-16v-17v-11q1 -3 5 -4.5t7 -1.5q2 0 3 1t3 4q0 1 -0.5 5t-0.5 8t0.5 7.5t0.5 5.5q0 1 0.5 5t1 8.5t0.5 9t1 5.5q1 14 0.5 28t0.5 29q0 2 1 2.5t2 0.5
q4 0 6 -4t2 -7q0 -1 -0.5 -2t-0.5 -2l-0.5 -1.5t-1 -3.5t-0.5 -4v-2q-1 -1 -1 -4q0 -4 0.5 -8t0.5 -8v-5q-1 -1 -1 -6t-0.5 -11t-1 -11.5t-0.5 -6.5v-14v-14q0 -4 3 -4.5t6.5 -0.5t6 -1t1.5 -4q0 -2 -1.5 -2.5t-3 -1.5t-3 -1h-2.5h-4h-6h-7h-4l-2 -1v-6.5v-15.5t-0.5 -18.5
t-0.5 -15.5v-2q0 -5 4 -5q3 0 6.5 5t7 11.5t5.5 13t2 8.5h1.5h1.5q2 0 3 -1.5t2 -3.5t1 -4.5v-3.5q0 -5 -5 -11.5t-11 -13t-11.5 -12.5t-5.5 -10q0 -3 1 -5.5t1 -5.5t-1.5 -4.5t-3.5 -1.5q-3 0 -4 2t-1 5t0.5 6t-1.5 5q0 1 -1 2t-2.5 3t-3 3.5t-2.5 1.5q0 1 -1 2.5t-2.5 4
t-3 4.5l-1.5 2l-0.5 1t-1.5 1q-2 4 -4.5 10t-5 12.5t-4 13t-1.5 12.5q6 0 9 -4t5 -10t3 -12.5t4 -11.5q1 -1 2 -3l2 -4l2 -4t2 -2q0 -1 1 -1.5t2 -0.5v0h1q0 1 0.5 5t0.5 8.5v8.5v5t-0.5 4.5t-0.5 4.5v0v1q0 1 0.5 4t0.5 6.5v7v4.5v2q0 3 -0.5 4t-3.5 3q-1 0 -4.5 0.5
t-7 0.5t-6.5 0.5t-4 0.5t-3 0.5t-3.5 1.5t-3 2.5t-1.5 2.5q0 2 2 3t3 1q4 0 8 -0.5t8 -0.5q1 0 2.5 -0.5t2.5 1.5v3v4v4v2q0 20 -1 40.5t-4 40.5q0 4 -2 9.5t-2 10.5zM120 219q0 1 1 2.5l1 1.5h7h5q1 0 2.5 -0.5t3 -0.5t3 -0.5t2.5 -0.5h15.5h14.5h14.5t15.5 -2q2 0 3 -1.5
t1 -3.5q0 -3 -3 -3.5t-5 -0.5q-3 0 -6 1t-6 1q-6 0 -8.5 -4t-3.5 -9.5t0 -11.5t1 -11v-22v-1.5v-3t0.5 -3t0.5 -2.5q1 -2 2.5 -4t2.5 -4t1.5 -4t1.5 -5v-4t0.5 -7t0.5 -8v-6v-4q0 -7 -2.5 -11t-9.5 -6h-4.5t-8 0.5t-8 1t-4.5 0.5q-5 0 -7.5 3t-3.5 7t-1 9v8v10t0.5 9.5
t2.5 8.5t6 8v56q0 6 -3 9t-7 4t-8 1h-9l-1 1.5t0 1.5zM164 142q1 0 2 0.5l1 0.5l2 3v62l-2 5h-1h-2h-2.5h-1.5q-1 0 -2 -0.5l-1 -0.5v-66q0 -2 0.5 -2.5t2 -1t2.5 -0.5h2zM178 109v12t-1.5 8t-5 4.5t-10.5 1.5h-7q-2 -2 -5 -5.5t-3 -6.5v-24q0 -1 1 -2t2 -2.5t2.5 -3
t2.5 -1.5h19q2 0 3 3t1.5 6t0.5 6v4zM134 50q0 3 2.5 4t4.5 1h2q1 0 3 -0.5t4.5 -1l5 -1l2.5 -0.5q2 -1 6 -1h9t10.5 -0.5t10 -1.5t7.5 -2.5t3 -4.5t-1 -4t-5 -1q-2 0 -8 0.5t-13 1t-14.5 2t-14 3t-10.5 3t-4 3.5z" />
</svg>
