<?xml version="1.0" standalone="no"?>
<!DOCTYPE svg PUBLIC "-//W3C//DTD SVG 1.1//EN" "http://www.w3.org/Graphics/SVG/1.1/DTD/svg11.dtd" >
<svg xmlns="http://www.w3.org/2000/svg" xmlns:xlink="http://www.w3.org/1999/xlink" version="1.1" viewBox="-10 0 266 256">
   <path fill="currentColor"
d="M159 203l1 0.5t1 1.5q5 13 13.5 25t21.5 20h2q8 0 8 -8q0 -3 -3 -6t-7 -6.5t-9 -8t-9 -9t-7 -9.5t-3 -10q0 -9 5 -16.5t10.5 -14.5t10.5 -12.5t5 -9.5t-2.5 -7.5t-6.5 -6.5t-8.5 -4.5t-7.5 -0.5q-2 -2 -2 -3.5v-3.5v-3.5t2 -2.5h4.5t5.5 -0.5t5 -2t4 -4.5l1 -2.5l2 -5
t2 -5.5t1 -4v-53q0 -5 -2 -10t-8 -7h-3h-4.5h-4.5h-3q-5 0 -11 0.5t-11 2t-9.5 4.5t-6.5 10v2v3v4v2l-0.5 2t-1 4.5t-1 4t-0.5 2.5v0v1q0 1 0.5 2t0.5 3t0.5 3.5l0.5 1.5q0 7 1 14.5t3 13t6.5 9.5t13.5 5v3.5v3.5q0 7 -4 10.5t-10.5 6t-12 6t-8.5 10.5q-5 12 -6 22.5
t-1 23.5v3v6v4.5v3.5q1 2 1.5 7.5t1.5 11.5t2.5 10.5t4.5 4.5q2 0 3 -0.5t2 -2.5v-6q0 -12 -2 -23.5t-2 -23.5q0 -13 1 -22t5 -16t11.5 -11.5t19.5 -9.5h4q3 0 6 0.5t5.5 1.5t4 3.5t1.5 5.5t-4.5 7.5t-10 10.5t-10 12.5t-4.5 11.5v1q0 1 0.5 3.5t0.5 5.5t0.5 6t0.5 4z
M51 242l1.5 1.5t1.5 0.5q3 0 5 -2.5t2.5 -6t0.5 -6.5v-5q2 -26 3 -52t2 -53v-10q0 -15 -0.5 -30.5t-0.5 -31.5q0 -6 3.5 -9.5t9 -5.5t12 -2.5t12 -2t9 -3.5t3.5 -6h-22q-1 0 -5.5 1t-10 2.5t-11.5 2.5t-8 3q-2 4 -2.5 7t-1 5.5t-0.5 5.5v6q0 10 1 20.5t1 20.5v5v3
q0 1 -0.5 5t-1 8.5t-1 8.5t-0.5 5q2 4 2 9v9q0 23 -2 45t-2 45v7zM77 66q0 4 -0.5 12t0 16.5t2.5 16t6 10.5h7q6 0 11.5 -0.5t8.5 -3t5 -6.5t2 -11v-10v-15t-0.5 -15t-3.5 -10q-1 -3 -4 -3h-6q-6 0 -11 0.5t-9 2.5t-6 6t-2 10zM90 110q-1 -10 -2 -19.5t-1 -18.5q0 -3 0.5 -6
t2 -5.5t4 -4t5.5 -1.5h3.5t3.5 1q0 6 0.5 11t1 9t0.5 8.5v9.5v6.5t-1 6t-3 4.5t-6 2h-5t-3 -3zM149 98q0 -1 -1.5 -4.5t-1.5 -4.5v-0.5v-0.5v-0.5v-0.5q0 -1 0.5 -3.5t1.5 -2.5q3 -1 7 -2t8.5 -1.5l9 -1t8.5 -0.5q2 0 4 3t2 5q0 5 -2.5 8t-6.5 5t-8.5 2.5t-8.5 0.5h-6t-6 -2
zM173 50h13q2 0 2 1v2q0 3 -0.5 8t-4.5 7q-9 1 -18.5 1.5t-18.5 0.5q0 -8 1.5 -12t5 -5.5t8.5 -2t12 -0.5zM147 38q0 -4 3 -6t7 -3.5t7.5 -2t6.5 -0.5t6 0.5t5.5 2t4 3.5t1.5 6v0q0 2 -0.5 3t-1.5 1h-37l-0.5 -1t-0.5 -3h-0.5h-0.5z" />
</svg>
