<?xml version="1.0" standalone="no"?>
<!DOCTYPE svg PUBLIC "-//W3C//DTD SVG 1.1//EN" "http://www.w3.org/Graphics/SVG/1.1/DTD/svg11.dtd" >
<svg xmlns="http://www.w3.org/2000/svg" xmlns:xlink="http://www.w3.org/1999/xlink" version="1.1" viewBox="-10 0 266 256">
   <path fill="currentColor"
d="M174 247q1 2 3 3t3 1q5 0 6 -2.5t1 -6.5v-11t-0.5 -12.5t-1.5 -12t-3 -9.5v-43l-1 -3.5t-1 -4.5v-2q0 -3 4 -3q3 0 6 2t5.5 4t5.5 4t6 2t4.5 -1.5t1.5 -4.5t-6 -6.5t-13 -7.5t-14 -7.5t-10 -4.5q-1 -1 -1.5 -3.5t-1.5 -5.5t-2.5 -5t-3.5 -1q-1 0 -2 1t-1 2q-2 4 -3 6.5
t-2 4.5t-3 4l-5 5q-3 2 -9 4.5t-12.5 5.5t-11.5 5.5t-5 5.5q0 2 0.5 3t2.5 1q4 0 7.5 -1.5t6.5 -3.5t6.5 -3.5t9.5 -1.5q0 24 -1.5 46t-6.5 46q-4 2 -5 6t-1 8q6 0 9.5 -3t5.5 -8t3 -10.5t2 -11.5q1 -9 1.5 -19t1.5 -21t1 -21t-1 -20q2 -5 5.5 -6t7.5 -1h2.5h2.5q6 4 6 11
q0 6 -1.5 11t-1.5 11q0 11 1 21.5t2 21.5t1 21.5v20.5zM44 237q0 2 1 4t4 2q1 0 2 -1l3 -3q1 -38 1.5 -76t1.5 -76v-7v-10.5t0.5 -11.5t2 -11.5t3.5 -9t5 -4.5q6 -2 11 -3t10.5 -2t11 -1.5t11.5 -0.5v-1v-1q0 -3 -1.5 -4.5t-4.5 -1.5q-12 0 -25 2.5t-24 5.5q-2 5 -3 8l-2 6
t-1.5 6t-0.5 9q0 1 -0.5 6t-1 10.5t-1 10.5t-0.5 7v3v5v5v4q-1 33 -2 65.5t-1 65.5zM71 90v2q0 2 0.5 5.5t0.5 7t0.5 6.5l0.5 3q1 6 5 7.5t9 1.5q3 0 7 -1t7 -2.5t5 -4.5t1 -8v-20q0 -7 0.5 -16t-1.5 -16q-3 -3 -5 -3h-6q-9 0 -14 2.5t-7 7.5t-2.5 12.5t-0.5 15.5zM79 94v-2
q1 -3 1 -8t0.5 -9.5t0.5 -8v-3.5l2 -1h13l2 1v2t0.5 4t0.5 4v4v1.5v4.5v4v3q0 4 0.5 8t-0.5 7.5t-3 6t-6 2.5q-3 0 -5.5 -2t-3.5 -4.5t-1.5 -6.5t-0.5 -7zM122 85v25q0 1 1 1.5t2 0.5q4 0 5 -3t1.5 -8t0.5 -11t1 -12t2.5 -11t5.5 -7q8 -5 18.5 -6t19.5 -1h3h3h4h3q3 0 4.5 3
t2 7t1 7.5t0.5 4.5v6v8v9v6t2 2h3h2q2 0 3 -2v-4v-4q0 -6 -0.5 -10t-0.5 -8t-1 -9t-1 -11q-3 -8 -9 -10.5t-12 -3t-11 -0.5t-5 -3q0 -1 0.5 -3.5l1 -5t1.5 -4.5t3 -2l32 -5l1 -0.5t1 -1.5v-3v-3h-10l-75 8q-1 0 -1.5 1.5l-0.5 1.5q0 2 0.5 2.5l1.5 1.5h3.5h3.5q5 0 11.5 -1
t11.5 -1h2.5t1.5 2v17q0 1 -4.5 2t-11 3t-12 6.5t-6.5 10.5q0 4 -0.5 9t-2.5 9zM168 74q4 0 5.5 2t2 5.5t0 7.5t-0.5 7t1 5.5t4 2.5q2 0 3 -2t1.5 -4.5t0.5 -5.5v-4v-10t-1.5 -6.5t-4.5 -4t-9 -1.5q-13 0 -18.5 5t-5.5 19v3v2.5v3v1.5q1 2 1.5 2h1.5h2.5t1.5 -2
q-1 -5 -1 -10q0 -4 1.5 -8t5 -6t9.5 -2z" />
</svg>
