<?xml version="1.0" standalone="no"?>
<!DOCTYPE svg PUBLIC "-//W3C//DTD SVG 1.1//EN" "http://www.w3.org/Graphics/SVG/1.1/DTD/svg11.dtd" >
<svg xmlns="http://www.w3.org/2000/svg" xmlns:xlink="http://www.w3.org/1999/xlink" version="1.1" viewBox="-10 0 266 256">
   <path fill="currentColor"
d="M163 249q0 1 2 2h1q3 0 5 -3v-10q0 -4 -1 -8.5t-1 -8.5v-5t0.5 -8.5l1 -9t2.5 -5.5q4 -3 9.5 -5t11 -4.5t9 -6.5t3.5 -12v-46l-0.5 -1.5t-1 -3.5t-1.5 -3.5t-1 -2.5q-1 -1 -3.5 -3l-2.5 -2h-23l-4 -3v-10q0 -1 0.5 -1.5t1.5 -0.5q3 -1 6.5 -1.5t7 -2t6 -3.5t3.5 -5
q3 -12 5.5 -26t2.5 -27q0 -5 -3.5 -7.5t-8.5 -2.5v22l-4 4h-13l-4 -4l0.5 -2t0.5 -4q0 -3 -0.5 -5t-0.5 -3v-3t-0.5 -4t-0.5 -3.5v-1.5h-8q0 7 0.5 15t1.5 15q1 3 3.5 5t5.5 2.5t6.5 0.5t6.5 -1q2 2 3 3.5t1 3.5q0 4 -2 4h-6q-1 0 -5.5 0.5t-10 0.5h-10.5h-6l-0.5 0.5
l-0.5 0.5q-2 0 -3 -5t-1.5 -12t-1 -13t-1.5 -9h-1h-2q-3 0 -3.5 1t-0.5 5q0 10 1.5 22t2.5 21q3 6 6.5 9.5t7.5 6t6.5 4t2.5 3.5q0 3 -0.5 7.5t-3.5 5.5q-14 1 -21 2.5t-10 6t-3 12.5v22v19q0 5 3 8.5t7 5.5t9 3.5t9 1.5h3q3 0 3 -3v0l-2 -2l-1 -1q-9 -2 -13.5 -3.5t-7 -4.5
t-3 -8.5t-0.5 -13.5v-8q0 -4 0.5 -7.5l1 -7t0.5 -8.5l2.5 -2.5t3.5 -1.5q6 -2 10.5 -3t9 -1.5t8.5 -0.5h10h3h3.5h3.5h3q5 1 7 5t3 9t1 10v8q0 11 -1.5 18.5t-5 12t-10 7.5t-16.5 6q-2 2 -3 6t-1.5 8.5t0 9t0.5 7.5v3v5.5v4.5v4q2 3 2 8q0 4 -1 7zM49 229q0 1 0.5 2t2.5 1
q5 0 7.5 -4t3.5 -9.5t1.5 -11t0.5 -7.5v-3v-6v-5v-3v-4t0.5 -6t0.5 -5.5v-3.5v-19q0 -4 0.5 -12.5t1 -19t0.5 -22.5t0.5 -22.5t0.5 -19v-12.5q2 -2 5 -4t6 -2q2 0 6.5 -0.5t9.5 -1t9 -1t6 -0.5q3 0 3 -1.5v-2.5v-2.5t-2 -1.5h-4h-6q-8 0 -15 0.5t-12.5 3t-10 7.5t-5.5 14v8
v13v14v15v12.5v8.5q0 2 -0.5 8.5t-1 15.5t-1 19t-1 18.5t-1 15t-0.5 8.5v1.5v1.5q-1 6 -3 12.5t-2 12.5zM143 142q0 9 1 14.5t4 9t9 4t16 0.5q2 0 5.5 0.5t5.5 -1.5v-1q0 -2 -2 -3t-3 -1h-3.5h-6.5h-5h-4q-2 0 -5 -1t-3 -4q0 -1 2 -3.5t4.5 -4.5t5 -3t4.5 -1t3.5 1.5l3 3
l3.5 3.5t5 2q2 0 3 -1t1 -3t-2.5 -4t-5.5 -4t-5 -3.5t-2 -3.5v-22q-5 0 -6 5v3.5t-0.5 5.5t-0.5 5.5v3.5l-4.5 4.5t-5.5 2.5q-1 0 -3 -1t-2 -3v-12l-1 -0.5t-1 -1.5h-1h-1q0 1 -1 2l-2 2v4.5v5.5zM80 99q2 3 5 4.5t6 1.5h6t6 -1t5 -2.5t3 -4.5q0 -1 0.5 -4.5l1 -7t1 -6.5
l0.5 -3q0 -4 -0.5 -8t-2 -7.5t-4 -5.5t-6.5 -2h-4q-7 1 -10.5 3.5t-5 6.5t-1.5 9v12v3v4.5v4.5v3zM88 93v-6v-5v-7q0 -3 0.5 -6t3 -5t6.5 -2h3t2 1q0 2 0.5 4.5t0.5 6t0.5 6t0.5 4.5v0q0 5 -2.5 9.5t-8.5 4.5q-2 0 -3 -1t-3 -4zM146 68q0 -2 3 -3t6.5 -1.5t7.5 -0.5h5
q5 0 7.5 0.5t8.5 1.5q1 1 1 2.5v2.5q0 4 -2 6t-5.5 3t-7 1.5t-6.5 0.5q-2 0 -5.5 -0.5t-6 -2t-4.5 -4t-2 -6.5z" />
</svg>
