<?xml version="1.0" standalone="no"?>
<!DOCTYPE svg PUBLIC "-//W3C//DTD SVG 1.1//EN" "http://www.w3.org/Graphics/SVG/1.1/DTD/svg11.dtd" >
<svg xmlns="http://www.w3.org/2000/svg" xmlns:xlink="http://www.w3.org/1999/xlink" version="1.1" viewBox="-10 0 266 256">
   <path fill="currentColor"
d="M164 211q0 5 2 12t6 13t9.5 10.5t11.5 4.5q3 0 5 -1.5t2 -4.5t-4 -6.5t-8.5 -7.5t-8.5 -10t-4 -15t5 -16t12 -12v-19q0 -3 -3.5 -4.5t-8 -2.5t-8 -3.5t-3.5 -7.5q0 -4 4.5 -6t10.5 -2.5t12 0t9 0.5q0 -1 2 -2.5t2 -2.5v-1v0q0 -1 -0.5 -1.5l-0.5 -0.5h-3h-3h-4h-2h-10.5
t-17.5 0.5t-21 1t-19.5 1.5t-14.5 2t-6 3q0 1 2 2.5t5.5 1.5t6.5 0.5t5 0.5q6 0 11.5 -2t12.5 -2h5q3 1 3 2.5v3.5v4t-3 3q-9 6 -15.5 14t-12.5 18q-1 5 -1.5 11t-1.5 12.5t-1.5 13t-0.5 12.5q0 2 0.5 4l1 4t1.5 4t4 2q2 0 3 -2.5t1 -4.5v-1v-3t-0.5 -4.5t-0.5 -4.5v-2
q0 -20 5.5 -37t20.5 -30h3q3 0 7 1t7 3t5.5 5t2.5 7q0 2 -0.5 3.5t-1.5 2.5l-2 2l-2 2q-5 8 -9 15.5t-4 16.5zM45 232q0 1 1 3t3 2q1 0 2.5 -1.5t2.5 -3t1.5 -3.5t0.5 -3t-0.5 -4.5t-0.5 -7.5t-0.5 -7.5l-0.5 -3.5v-3q0 -12 1 -23.5t1 -23.5v-5v-8v-8v-5q-2 -3 -2 -5v-5
q0 -18 1 -34.5t1 -35.5q0 -6 4 -9t9.5 -4.5t12 -1t11.5 0.5t8.5 -1t3.5 -4q0 -4 -2.5 -5t-5.5 -1q-11 0 -22.5 2t-22.5 5l-0.5 0.5l-0.5 0.5q0 1 -1 2t-1.5 2.5l-1 3t-1.5 2.5v7.5t-0.5 12t-0.5 12.5v8v5v12v14.5v16.5v16v12v9v14v15v16v13v9zM68 88q0 6 -1 13.5t0 14.5
t4 12t11 5q4 0 10 -1t9 -5q0 -7 0.5 -12.5t0.5 -10.5v-10v-11q0 -5 0.5 -10.5t0 -10.5t-3.5 -8.5t-9 -3.5q-8 0 -13.5 2.5t-8.5 10.5v5v8v7v5zM88 58q3 0 4.5 5.5t2 12.5t0 13.5t-0.5 9.5q0 4 0.5 8.5t-0.5 8.5t-3.5 6.5t-7.5 2.5q-3 0 -5 -2.5t-2 -5.5v-53q0 -1 1.5 -2
t3.5 -2t4 -1.5t3 -0.5zM108 111q0 2 1 2.5t2.5 0.5h2.5h3h12t12 -0.5t12.5 -1t13.5 -0.5q3 -1 5.5 -2t4.5 -1t5 0.5t6 -0.5h4.5t7 -0.5t7 -0.5h4.5v-2v-2.5t-2 -1.5h-17q-1 0 -2 -1t-1 -2.5v-2.5v-2v-2.5v-2.5q1 -1 3.5 -1.5l5 -1t4 -1.5t1.5 -4q0 -2 -2.5 -2.5t-5.5 -1
t-5.5 -3t-2.5 -9.5l0.5 -1l0.5 -1l15 -3q1 0 2 -1.5l1 -1.5v-1v-1l-0.5 -0.5l-0.5 -0.5h-38l-0.5 -1.5l-0.5 -1.5v-5q0 -6 2 -9t5 -3.5t7 -0.5h7t5 -1t2 -4v-2.5t-2 -1.5h-26v-12q0 -2 -3.5 -2.5t-4.5 -0.5h-2.5t-1.5 1q-1 1 0 2.5t1 2.5v6v5l-1 1h-27q-1 0 -1.5 2l-0.5 2
q0 2 0.5 3t3.5 1h23l3 3v16l-1 0.5t-2 0.5q-8 3 -16.5 2.5t-17.5 -0.5q-1 0 -3 1t-2 2v3v2h16v15l-1 0.5t-1 1.5q-3 2 -7.5 2t-7.5 1q-1 0 -1.5 1t-0.5 2v0v1v0q0 1 0.5 1.5t1.5 0.5h17l0.5 1t0.5 2.5v3.5v1q0 6 -3.5 6.5t-7.5 0.5t-7.5 0.5t-3.5 4.5zM141 103
q-2 -1 -2.5 -4l-0.5 -3q0 -4 2.5 -5t5.5 -1.5t5.5 -1t2.5 -3.5q0 -1 -0.5 -2t-1.5 -1h-11q-1 0 -2.5 -2t-2 -4.5l-1 -5t-0.5 -3.5v-1q9 -2 18.5 -3.5t18.5 -1.5q3 0 5 0.5t3 2.5v6q0 6 -2.5 8t-5.5 2.5t-5.5 1t-2.5 2.5q0 3 3 3h5t5.5 2t2.5 10q0 2 -3 3.5t-6.5 2t-7 0.5
h-5.5h-3q-1 0 -3 -0.5t-4 -0.5t-4 -0.5t-3 -0.5z" />
</svg>
