<?xml version="1.0" standalone="no"?>
<!DOCTYPE svg PUBLIC "-//W3C//DTD SVG 1.1//EN" "http://www.w3.org/Graphics/SVG/1.1/DTD/svg11.dtd" >
<svg xmlns="http://www.w3.org/2000/svg" xmlns:xlink="http://www.w3.org/1999/xlink" version="1.1" viewBox="-10 0 266 256">
   <path fill="currentColor"
d="M130 245q0 7 5 7q4 0 6 -3t2.5 -6.5l1 -7t0.5 -5.5q0 -21 -2 -43t-2 -44v-23q0 -1 1 -1h2q8 0 13.5 4.5t9 11.5t6 16t3.5 18t1 16.5v12.5q0 9 -0.5 19t-0.5 20v1.5t0.5 3t1.5 2.5t2 0q2 -1 3.5 -2.5t2.5 -3.5l2 -4t1 -4v-15v-18t-1.5 -22.5t-4 -23t-7.5 -21t-13 -15
t-20 -5.5q-3 -2 -3.5 -2.5t-0.5 -2.5v-1q0 -1 0.5 -3t0.5 -4t0.5 -4t0.5 -3q3 -3 7 -4t8 -1t8.5 -0.5t7.5 -1.5q5 -2 8 -8.5t5 -14t3 -15t1 -11.5v-7q-2 -2 -4 -3t-5 -1q-2 0 -4 1t-2 4q0 1 0.5 2t0.5 2t0.5 2t0.5 2v2q0 5 -1 11t-3 11t-6 9t-10 6q-2 0 -4 0.5t-4 0.5h-4h-1
l-2 -1v-5v-6l1 -1t1 -2l-0.5 -1.5t-0.5 -3t-0.5 -2.5t-0.5 -2q0 -3 0.5 -9.5t-0.5 -13.5t-3.5 -12.5t-9.5 -5.5h-25l-2 -1h-24q-3 0 -5.5 2t-2.5 5v1l0.5 1t0.5 2h2.5t3.5 0.5t3.5 0.5h2.5h8h13h13h9l5 5v48l-0.5 0.5t-1.5 0.5q-1 1 -3 1.5l-2 0.5h-3.5t-5.5 -0.5t-5.5 -1
t-3.5 -0.5q-5 -1 -6 -5.5t-1.5 -10t-0.5 -10.5v-8q-1 -1 -1.5 -4.5t-0.5 -4.5q-1 0 -2 -0.5l-1 -0.5q-3 0 -5 1t-2 4q0 6 0.5 12.5t1.5 13t3 13t7 11.5q1 0 3.5 0.5t5.5 1t5.5 1t3.5 0.5h1q2 0 2.5 -1t3.5 -1h1h3q1 0 2.5 0.5t1.5 1.5l1 15q0 1 -3.5 2t-8 2.5t-9 2.5t-5.5 2
q-8 5 -11 11.5t-4.5 14t-2.5 15.5t-4 15q0 3 -0.5 10.5t-1.5 16t-1.5 16t-0.5 10.5q-1 0 -1 3v3v3q0 1 1 1l1 2q-1 0 -1.5 1t-0.5 2q0 2 1.5 4t4.5 2t4.5 -2t3.5 -4q0 -2 -0.5 -6t-0.5 -8t0.5 -8t0.5 -5t0.5 -4.5l1 -7l1 -7t0.5 -4.5v-10.5t1 -14l2 -15t4 -14t7.5 -10.5
t11.5 -4q6 0 7.5 3t1.5 7t-0.5 8.5t1.5 7.5q0 18 1 35t1 36q0 7 -1.5 14t-1.5 14z" />
</svg>
