<?xml version="1.0" standalone="no"?>
<!DOCTYPE svg PUBLIC "-//W3C//DTD SVG 1.1//EN" "http://www.w3.org/Graphics/SVG/1.1/DTD/svg11.dtd" >
<svg xmlns="http://www.w3.org/2000/svg" xmlns:xlink="http://www.w3.org/1999/xlink" version="1.1" viewBox="-10 0 266 256">
   <path fill="currentColor"
d="M79 247q0 4 4 4q5 0 6.5 -4t1.5 -8v-111q0 -1 2.5 -1.5t3.5 -0.5q3 0 5.5 5t4.5 11t2.5 12t1.5 9v4.5t0.5 7.5t0.5 7.5v4.5v6v9v9v5q1 1 1.5 2l0.5 1l1 1q3 0 4.5 -1.5t2 -4l1 -5t0.5 -4.5q0 -16 -1 -32t-6 -32q-1 -1 -1.5 -3t-0.5 -4q-1 -5 -4.5 -8.5t-7.5 -6t-7.5 -3.5
t-3.5 -3v-19q0 -1 2.5 -3t6 -3.5t6.5 -4t5 -4.5q5 -7 6 -17.5t1 -18.5q0 -3 -1.5 -5t-5.5 -2h-1t-1 1t-0.5 4.5t-0.5 7.5t-0.5 7.5t-0.5 4.5q0 2 -0.5 5.5t-2 6.5t-3.5 5.5t-5 2.5h-1l-2 -2t-2 -1q0 -3 0.5 -9t0.5 -14q0 -7 -0.5 -13t-0.5 -9v-2t-0.5 -3.5t-0.5 -3v-2.5
q-4 -3 -8 -3h-8q-2 0 -6 -0.5t-7.5 0t-6.5 1.5t-3 4t1.5 4t4.5 2h3t4.5 -0.5t4.5 -1t3 -0.5h3q3 0 5.5 1.5t2.5 5.5v44q0 2 -2 3t-3 1q-7 0 -9.5 -3.5t-3.5 -8t-1 -10t-1 -10t-3.5 -7.5t-8.5 -3q0 10 1.5 20t2.5 20q2 3 4.5 5t5 3t6 1h8.5l4 4v23q0 1 -2.5 2l-2.5 1
q-1 0 -3.5 0.5t-5 1.5l-5 2l-2.5 1q-2 1 -3.5 3t-2.5 5t-1.5 5.5t-1.5 4.5q0 8 -0.5 17.5t-1.5 20t-1 20.5v18q0 7 7 7q3 0 4 -1t2 -4v-42q0 -1 0.5 -4.5l1 -7t0.5 -7v-4.5q0 -2 0.5 -6t1.5 -9t2.5 -8.5t4.5 -4.5q1 0 4.5 0.5t4.5 0.5q0 4 -0.5 7.5t1.5 7.5q-1 26 -1 51
t-4 51v1zM196 236q-2 4 -3 7t-1 7q5 0 9 -2.5t5 -6.5v-17v-15t-1 -20.5t-3 -20t-4 -14.5q-4 -6 -8.5 -8t-8.5 -3.5t-6.5 -5t-2.5 -12.5q0 -7 2.5 -11t6.5 -5.5t9 -2.5t9 -2t6.5 -3.5t2.5 -8.5q0 -5 -2 -9.5t-8 -4.5q0 8 -0.5 12t-2.5 5.5t-6.5 2.5t-11.5 2q-2 0 -3.5 -1.5
t-1.5 -3.5v-17q0 -1 0.5 -1.5l0.5 -0.5q2 -1 7 -3t10.5 -4t10 -3.5l4.5 -1.5v-16q0 -1 -1.5 -1.5t-2.5 -0.5q-4 0 -5.5 3t-3 6.5t-4.5 6.5t-11 3q-2 0 -2.5 -0.5l-1.5 -1.5v-3v-3v-3t0.5 -4.5t1 -4t2.5 -2.5l26 -11v-18q0 -2 -2 -2h-3q-3 0 -4 2t-1.5 5t-1 5.5t-2.5 3.5
q-1 1 -4.5 2t-7 2.5t-7 2.5t-4.5 2q-1 0 -5 1t-9 2.5t-9 2.5t-5 2l-2 0.5t-4 1.5t-4.5 2t-3.5 2q0 1 -0.5 2.5l-0.5 1.5l2 2t3 2q4 -1 8 -3.5t8 -4.5t8 -3.5t9 -1.5q1 0 2.5 1.5t1.5 3.5v1t-1 1v3t-0.5 5t-0.5 5v3q-2 3 -8.5 5l-13 4t-12 4t-5.5 4t1 2.5t2.5 0.5h2.5h2
q4 0 7.5 -1.5t6.5 -3t6.5 -3t6.5 -1.5q2 0 3 2.5t1 5.5v5.5v2.5v11l-1 0.5l-1 0.5q-9 4 -18.5 8t-19.5 7l-5 5q1 3 2.5 3.5t3.5 0.5q1 0 2 -0.5t2 -0.5t4 -1.5t6.5 -3t6 -3t4.5 -1.5q0 -1 1.5 -1.5t3 -1.5t2.5 -1.5t2 -0.5l0.5 -0.5l0.5 -0.5q2 0 2.5 0.5l1.5 1.5v4.5v6.5v6
v5q0 6 4 8.5t9 4.5t9 5t6 11q2 13 3.5 25.5t1.5 26.5v15z" />
</svg>
