<?xml version="1.0" standalone="no"?>
<!DOCTYPE svg PUBLIC "-//W3C//DTD SVG 1.1//EN" "http://www.w3.org/Graphics/SVG/1.1/DTD/svg11.dtd" >
<svg xmlns="http://www.w3.org/2000/svg" xmlns:xlink="http://www.w3.org/1999/xlink" version="1.1" viewBox="-10 0 266 256">
   <path fill="currentColor"
d="M68 243q0 3 0.5 4.5t3.5 1.5t4.5 -5t2.5 -14t1 -21v-24v-24t0.5 -22.5t1 -17.5t2.5 -10l2 -0.5t3 -1.5h1q4 0 6 3.5t2.5 8.5t0.5 9v7q0 22 -1 44.5t-1 44.5q3 0 5 -2t3 -5.5l2 -7t1 -5.5v-22q0 -10 0.5 -19.5t0 -19t-2.5 -19t-5 -19.5q-1 -3 -4 -4l-6 -2t-5 -3t-2 -7
q0 -4 1 -6t3.5 -2.5t5 -0.5t5.5 -2q5 -2 8 -7.5t4 -12t1.5 -13t0.5 -11.5v-5l-1.5 -1l-1.5 -1h-1h-1q0 1 -1.5 2t-2.5 2v4t-0.5 6.5t-0.5 7v4.5q-1 1 -1.5 5t-2 7t-3.5 5.5t-5 2.5q-2 -1 -3.5 -4t-1.5 -5q0 -9 1 -16.5t1 -15.5v-4t-0.5 -6.5t-0.5 -6.5v-4t-2 -2.5t-3 -1.5
h-34q0 3 0.5 6t4.5 3h22q1 4 2.5 5t1.5 4v4q0 1 -0.5 5.5t-0.5 10t-0.5 10t-0.5 5.5v3t-0.5 4t-1.5 3t-3 1q-4 0 -5.5 -3t-2.5 -8t-1 -11t-0.5 -11t-2 -8t-4.5 -3q-2 0 -3.5 1t-1.5 4q0 4 0.5 9.5t1.5 11l2 11t3 9.5q1 3 4 4.5t6 2.5t5.5 3t2.5 7t-1.5 7t-4 2.5t-5.5 1
t-6 2.5q-1 1 -2 3t-2.5 4.5t-2.5 4.5t-1 3q-1 3 -1.5 10.5t-1.5 15.5t-1.5 15t-0.5 10v4v8v7v5q-1 8 -2.5 16.5t-1.5 16.5q6 0 9 -3.5t3.5 -9t0 -11.5t0.5 -11q0 -3 0.5 -11t1 -17.5t0.5 -17t1 -10.5t1.5 -7t1 -8.5t2.5 -7.5t6 -3q2 0 3 2t2 3v26q0 20 -1.5 39t-0.5 39
q-3 5 -3.5 11t-0.5 12zM173 182q1 3 3 10t4.5 15t4.5 15.5t2 10.5q1 1 1.5 3.5t1.5 4.5t3 3.5t4 1.5q1 0 2 -1t1 -2.5v-3v-1.5q0 -4 -1 -8t-2.5 -8.5t-3.5 -8.5t-4 -7q-3 -16 -6.5 -31t-6.5 -30t-4.5 -30t-1.5 -31v-4t1 -5t2.5 -4t4.5 -2h1l1.5 1l1.5 1q0 3 1 11t2.5 16.5
t2.5 16t1 10.5q1 2 1.5 8t2 13.5t3.5 15.5t3.5 15t4 11.5t3.5 4.5q3 0 4 -2.5t1 -4.5q0 -10 -3.5 -19t-5.5 -18q-4 -20 -7 -39.5t-3 -39.5v-15q3 -1 7.5 -4.5t4.5 -7.5t-3 -4.5t-6 -0.5q-1 0 -3 1.5t-4.5 3.5t-4.5 4.5t-4 3.5q0 1 -2.5 4l-5 6t-4.5 6t-3 4q-2 5 -3 9.5
t-1 9.5q0 16 2.5 32.5t4.5 32.5q1 2 2 5.5l2 7t1.5 7.5t-0.5 7zM120 82q0 40 5 80t14 80h2q3 0 4 -2.5t1 -4.5v-2v0l-15 -78q0 -16 -1 -30.5t-1 -29.5q0 -2 -0.5 -6.5t-0.5 -9t1.5 -8.5t4.5 -4q1 0 2 0.5t1 1.5l11 91q0 1 0.5 3.5t1.5 4.5q0 1 0.5 4t1 7t1 7.5t0.5 4.5
t1.5 1.5l1.5 0.5l3.5 -3.5t2.5 -3.5q-1 -4 -2 -9l-2 -10t-2.5 -9.5t-2.5 -8.5q-2 -19 -4.5 -37t-2.5 -37v-17q1 -3 4 -5.5t6 -4.5l6 -4t3 -6l-0.5 -1.5t-1.5 -1.5l-2 -0.5l-2 -0.5q-3 0 -8.5 4t-11 9.5t-10 10.5t-6.5 7q-2 4 -2.5 8t-0.5 9z" />
</svg>
