<?xml version="1.0" standalone="no"?>
<!DOCTYPE svg PUBLIC "-//W3C//DTD SVG 1.1//EN" "http://www.w3.org/Graphics/SVG/1.1/DTD/svg11.dtd" >
<svg xmlns="http://www.w3.org/2000/svg" xmlns:xlink="http://www.w3.org/1999/xlink" version="1.1" viewBox="-10 0 266 256">
   <path fill="currentColor"
d="M74 244q1 2 2.5 2.5t2.5 0.5q4 0 5.5 -2.5t2.5 -6.5v-6t0.5 -9t0.5 -9v-6q0 -17 -1 -34t-1 -34v-17l0.5 -0.5l0.5 -0.5h1q3 0 5.5 3t4 7.5t2 10l1 11t0.5 9.5t0.5 5.5t0.5 5t0.5 7t0.5 6.5v4v14q0 6 -0.5 11t-0.5 10q0 2 1 2.5t2 0.5q3 0 4.5 -1.5t2.5 -4l2 -5t4 -3.5
q10 -1 21 -2t22.5 -2t23 -1h21.5q2 0 2 -2v-3v-3t-2 -2h-19q-2 0 -2 -2v-1v-14v-14t1 -14l2 -14v-69q0 -7 -2 -10.5t-6 -5t-9 -2t-9 -0.5q-9 0 -15 3.5t-9 9t-4.5 13.5t-1.5 16q0 2 0.5 8.5t0.5 14.5t0.5 15t0.5 9v13v13q0 1 -0.5 4.5t-0.5 8t-0.5 8t-0.5 4.5q0 4 -0.5 6.5
t-1.5 4t-3.5 2t-6.5 0.5h-7q-1 -20 -2.5 -40t-5.5 -40q0 -1 -0.5 -3t-1.5 -2l-16 -17v-16q0 -1 3 -2t6.5 -2t6.5 -3t3 -5q1 -2 2 -5.5t1.5 -7t1 -6.5l0.5 -3v-2q0 -1 0.5 -2.5t0.5 -3.5v-2t-0.5 -4.5t-0.5 -4.5t-1.5 -3t-3.5 -2l-1 0.5t-2 0.5q0 1 -0.5 1.5l-0.5 0.5
q0 3 0.5 10.5t-0.5 14.5t-3.5 12.5t-7.5 5.5h-3t-2 -1v-59l-4 -4h-3h-4h-5.5h-7.5t-7 1t-3 5q0 3 2 4t4 1q3 0 5.5 -1t5.5 -1q4 0 5.5 3.5t1.5 6.5v45q0 2 -2 2h-3q-3 0 -5.5 -2t-2.5 -5l-3 -36h-10l-0.5 2.5t-0.5 4.5v1q0 4 0.5 10.5t1.5 13t4 12t8 6.5h2.5h3.5h3.5t1.5 1
q1 2 1.5 4t0.5 4v5v3q0 7 -3 10t-7.5 5.5t-8.5 5.5t-5 10q-4 21 -3.5 42t0.5 42v3.5v4.5t1 3.5t4 1.5q2 0 3 -1.5t2 -3.5t1 -4v-4v-11.5v-17.5v-18.5v-12.5v-4t0.5 -6t0.5 -6v-4q1 -2 1.5 -4.5t2 -5t3.5 -4t4 -1.5h2q0 2 0.5 4.5t1 6t1 6t1.5 4.5v22q0 18 -2 36t-2 36v3v3z
M142 198v-1.5t0.5 -3.5t1 -3.5t0.5 -2.5v-25q0 -1 3.5 -1.5t8.5 -1t9 -1t5 -0.5h3h3l1 2q-1 9 -1.5 19t0.5 19l-3 4h-3t-6.5 0.5t-7.5 0.5h-6h-3q-2 0 -3.5 -1t-1.5 -4zM143 129v-5t1 -4l3 -3l1.5 -0.5t3.5 -0.5t4 -0.5t3 -0.5h8h3t4 0.5t3.5 1.5t1.5 3q0 6 -0.5 13t-1.5 13
q0 1 -0.5 1.5l-0.5 0.5h-14.5t-14.5 1q-2 -1 -3 -4t-1 -6v-6v-4zM142 100v-2q0 -2 0.5 -6t1 -7.5l1 -7l0.5 -3.5q1 -4 4 -5.5t7 -2.5t8 -1h6t4.5 1t2.5 4q0 2 0.5 5t0.5 7t0.5 7.5t0.5 4.5v4v2t-0.5 2t-0.5 2t-1 1h-32q-2 0 -2.5 -2t-0.5 -3z" />
</svg>
