<?xml version="1.0" standalone="no"?>
<!DOCTYPE svg PUBLIC "-//W3C//DTD SVG 1.1//EN" "http://www.w3.org/Graphics/SVG/1.1/DTD/svg11.dtd" >
<svg xmlns="http://www.w3.org/2000/svg" xmlns:xlink="http://www.w3.org/1999/xlink" version="1.1" viewBox="-10 0 266 256">
   <path fill="currentColor"
d="M78 250q0 1 1 1.5t2 0.5q2 0 3 -1t2 -3q0 -1 0.5 -5.5t0.5 -9.5v-9v-6q0 -25 -1 -49.5t-1 -49.5q0 -2 1 -2.5t3 -0.5q4 0 6.5 4t3.5 8q1 16 2.5 30t2.5 30v3.5v5.5t0.5 5.5t0.5 3.5q1 2 2 2h2q2 0 3 -0.5t2 -2.5v-13v-9q0 -5 -0.5 -9t-0.5 -9t-1 -11q-1 -7 -1.5 -15
t-3 -15.5t-8 -12t-14.5 -5.5v-8q0 -6 1 -9t3 -4.5t4 -1.5t4 -0.5t4 -1.5t3 -3q2 -8 2.5 -16.5t0.5 -15.5v-12l-1.5 -1l-1.5 -1q-1 1 -2.5 2t-1.5 2l-3 30q-1 5 -4.5 7t-7.5 3q0 -2 -0.5 -6t-1 -8.5t-0.5 -8.5v-6v-3v-7v-7v-4q0 -4 -2 -7t-6 -3h-6t-8 0.5t-7.5 2t-3.5 3.5
q0 3 2.5 3.5t4.5 0.5q3 0 6 -1t6 -1t3 0.5t1 4.5v3t0.5 4t0.5 4v2v3q0 1 0.5 3.5t0.5 5.5v4v3q0 2 -0.5 4t-0.5 5v3t-2 1.5t-3 0.5q-5 0 -7 -2.5t-2.5 -6t-0.5 -8.5q0 -4 -0.5 -8.5t-2 -7.5t-5.5 -5q-1 1 -1.5 2t-0.5 2v1q0 3 -0.5 9t0.5 12.5t3.5 12t8.5 7.5q2 0 4.5 0.5
t4 0.5t3 1t3.5 3l0.5 3l0.5 3q0 6 -2 9t-4 4.5t-5 2.5t-6 3t-5 5t-3 8q0 1 -0.5 3.5t-0.5 5.5v5v3v4t-0.5 9t-0.5 10v8v7q0 4 0.5 9t0.5 10v6q-1 3 1 3.5t3 0.5q3 0 5 -3t2 -5q0 -9 -1.5 -17.5t-1.5 -16.5q0 -13 1 -24t4 -23q1 -2 2 -3.5t4 -1.5q1 0 2 0.5t2 2.5v14
q1 0 1.5 1.5l0.5 1.5q0 13 1 25.5t1 24.5q0 4 -1 6.5t-1 5.5v3q0 3 0.5 10t0.5 14.5t0.5 14.5t0.5 10zM178 198q0 3 1 7.5t2.5 10t4 10.5t5 9t6 7t6.5 3h5q1 -2 1 -3.5v-3.5t-1 -4.5t-3 -4.5t-3.5 -4t-2.5 -5v-2q-3 -4 -5 -7.5t-3 -7.5t-1.5 -8t-0.5 -10q0 -4 1 -9t2.5 -9.5
t2.5 -9t1 -9.5v-3t-0.5 -4l-1 -4t-2.5 -3l-26 -8q-1 0 -1 -3v-5q0 -3 2 -3.5t5.5 -1t7.5 -1t7.5 -2.5t6 -6.5t2.5 -12.5q0 -3 -0.5 -6t-4.5 -3t-5 3.5t-2 8t-3.5 8t-9.5 3.5q-1 0 -3 -0.5t-2 -2.5v-28l2 -1q15 -2 21.5 -7t6.5 -19q0 -2 -1 -6t-4 -4q-2 0 -3 0.5t-1 1.5
l-5 20q-1 4 -4 4h-4q-4 0 -6 -0.5t-2 -4.5q0 -2 0.5 -6.5t1 -9.5t1.5 -9.5t3 -5.5l14 -6v-2q0 -2 -0.5 -3.5t-1.5 -3.5q-1 1 -3.5 1.5t-3.5 0.5q-2 0 -4.5 1l-5 2t-4 1.5l-1.5 0.5l-4 8v34q0 1 -2 2.5t-3 2.5q-1 0 -3 -0.5t-3.5 -2t-3 -2.5t-1.5 -2v-17l-1.5 -1t-2.5 -2h-1
h-1l-2 2v4v4q0 13 5 18t17 6v28q0 3 -2 4t-4 1q-6 0 -7.5 -3.5t-2 -8t-1.5 -8t-6 -3.5v21q0 1 0.5 2t1.5 2l2 2t2 1t2.5 0.5t3.5 0.5h4t2.5 0.5l1 1l0.5 0.5v4v4.5v5.5v3q0 11 -1.5 25.5t-5 29.5t-8 28.5t-9.5 23.5v1v1l1.5 1.5t2.5 1.5v0q4 0 6.5 -2.5t3.5 -6.5t2 -7.5
t1 -4.5q0 -2 2 -6.5t3.5 -10t3 -10t1.5 -5.5q1 -3 2 -10t2 -14.5t2 -14.5t1 -10q1 -3 2.5 -3h3.5q4 0 9 0.5t8 4.5v4v3q0 7 -1 12.5t-2.5 11.5l-3 12t-1.5 12z" />
</svg>
