<?xml version="1.0" standalone="no"?>
<!DOCTYPE svg PUBLIC "-//W3C//DTD SVG 1.1//EN" "http://www.w3.org/Graphics/SVG/1.1/DTD/svg11.dtd" >
<svg xmlns="http://www.w3.org/2000/svg" xmlns:xlink="http://www.w3.org/1999/xlink" version="1.1" viewBox="-10 0 266 256">
   <path fill="currentColor"
d="M78 247q0 3 1.5 3.5t3.5 0.5t3 -2t1.5 -5t0.5 -5.5t1 -3.5v-91v-4.5t0.5 -7t0.5 -7v-5.5l1 -2.5t3 -2.5t4 2.5t2 4.5q0 1 0.5 4.5t0.5 7.5t0.5 7.5t0.5 4.5v6q0 4 0.5 7.5l1 7t1.5 5.5v51l4 4q4 -3 5.5 -7t1.5 -9q0 -20 -2 -42.5t-5 -42.5q-1 -6 -4 -10t-5.5 -6.5
t-5 -4.5t-2.5 -5q0 -7 0.5 -10.5t2.5 -4.5t3.5 -0.5t4 0.5t5 -0.5t4.5 -3.5q3 -3 4.5 -9t1.5 -12.5t-0.5 -13t-0.5 -10.5v-8q0 -2 -2 -2h-3q-3 0 -4 0.5t-1 4.5q0 1 0.5 2t0.5 2.5t0.5 3l0.5 1.5v2v8t-0.5 10t-2.5 9t-6 4q-1 0 -3.5 -0.5t-2.5 -3.5v-50q0 -3 -3 -4.5
t-6.5 -2.5t-7 -1h-4.5h-4t-6 -0.5t-6 -0.5h-4v9q0 2 4.5 2.5t10 0.5t11 1t6.5 3v7q0 5 -1 9t-1 9q0 4 1 7.5t1 7.5v2.5t-0.5 3t-1.5 3t-2 1.5q-6 0 -8.5 -3.5t-3.5 -8.5t-0.5 -10.5t-0.5 -10.5t-3.5 -8.5t-8.5 -3.5q0 4 0.5 11.5t2 15t4 14t5.5 9.5q2 1 4 1.5t4.5 1t4.5 1.5
t2 3v6q0 7 -3 9.5t-7 4t-9 4.5t-8 10q-2 7 -3 16t-1.5 18t0 17.5t-0.5 15.5q0 9 -1.5 18t-1.5 17q0 3 1 3.5t4 0.5t4.5 -2t2.5 -5t1 -6v-5v-52l0.5 -4t1 -9.5t2 -11t3 -10t4 -7t6.5 -1.5l3 3l2 2v4t-0.5 6t-0.5 5.5v3.5v2l-1 2.5l-1 2.5v1v1l0.5 1.5t0.5 3t0.5 2.5t0.5 2
t-1 4t-1 4v12v17v18v11q0 1 -0.5 4.5t-0.5 7t-0.5 7t-0.5 4.5v1zM162 241q0 3 0.5 4t3.5 1t4.5 -2t2 -4t0.5 -5v-5q0 -6 -1.5 -13t-1.5 -13v-1v-8.5t0.5 -12t1 -12.5t0.5 -8q-2 -5 -2 -8v-7v-6q1 -3 3.5 -3.5t4.5 -0.5t4.5 0.5t4.5 1.5q2 3 3.5 11t2.5 17t1 17v11q0 5 -1 7
t-1 6q0 1 1 3.5t2.5 5l3 5t2.5 2.5t2.5 -1t2 -3t1 -3.5t0.5 -2.5q0 -8 -1 -17.5t-2.5 -19t-2.5 -19t-2 -17.5q-1 -1 -1.5 -2.5t-2 -3t-2.5 -3l-1 -1.5q-2 -2 -5.5 -3t-7 -1.5t-6.5 -1t-3 -1.5l-2 -23q0 -3 1 -4t3 -1q4 0 9 2.5t9.5 6.5t8.5 7.5t7 6.5v0q3 0 4 -3.5t1 -5.5
q0 -4 -4.5 -6.5t-10 -4.5t-10 -4.5t-6.5 -6.5q-1 -2 2.5 -6t8 -8t8 -8t3.5 -8t-3 -6t-7 -4t-7 -4t-3 -6v-2.5t1 -2.5l17 -10q2 -1 2 -3.5v-3.5q0 -4 -1 -4.5t-5 -0.5q-5 0 -8 3t-5.5 6.5t-5.5 6.5t-9 3t-10 -3t-8.5 -7t-9 -7t-11.5 -3v8q1 0 3.5 2t6 4t6.5 4q1 1 3 1.5
t4.5 2t4 3.5t1.5 4q0 5 -3.5 8t-7.5 5t-7.5 4.5t-3.5 8.5q0 5 2.5 8.5t6 6t6 5t2.5 5.5q0 4 -4.5 7t-9.5 6t-9.5 7t-4.5 9q4 0 8 -2t7.5 -4.5t7 -5.5t7.5 -6q0 1 2 1.5t3 0.5q0 1 1 1.5l1 0.5v19q0 1 -3 2.5t-6 3.5l-6 4t-4 4q-4 5 -6.5 15t-4.5 22t-2.5 23t-0.5 18
q6 0 9 -6t4 -14.5t0.5 -19t1 -19t4.5 -14.5t10 -6q3 0 3 1.5t1 4.5v12v13.5t0.5 20.5t0.5 20.5v13.5q-1 5 -1 9v9zM145 67h-0.5t-0.5 -1t3.5 -4t7.5 -6.5t8 -6.5t6 -3l1 0.5t2 0.5q1 1 4 2.5t6 3.5t6 5t4 6v0.5v0.5q0 1 -2 2.5t-5 2.5t-5.5 2.5t-3 2l-2 2l-3 3l-3 3
l-2.5 2.5h-0.5h-0.5q-1 0 -2.5 -1t-3 -2.5t-3 -2.5t-2 -1.5l-2 -2l-3 -3l-3 -3t-1.5 -2.5z" />
</svg>
