<?xml version="1.0" standalone="no"?>
<!DOCTYPE svg PUBLIC "-//W3C//DTD SVG 1.1//EN" "http://www.w3.org/Graphics/SVG/1.1/DTD/svg11.dtd" >
<svg xmlns="http://www.w3.org/2000/svg" xmlns:xlink="http://www.w3.org/1999/xlink" version="1.1" viewBox="-10 0 266 256">
   <path fill="currentColor"
d="M65 244q0 3 0.5 5t4.5 2q5 0 7 -4.5t2.5 -11t0 -12.5t-0.5 -9q0 -19 -1.5 -37.5t-0.5 -37.5l-1.5 -4.5t-0.5 -4.5v-4t0.5 -5.5t1 -4t3.5 -1.5q2 0 3.5 2.5t2.5 3.5q4 22 5 44.5t1 44.5q3 0 4.5 -3.5t2 -7.5t0.5 -8.5v-5.5v-16q0 -9 -0.5 -17.5t-2 -16.5t-4.5 -15
q-1 -3 -3.5 -6.5t-5 -6.5t-4.5 -6t-2 -7q0 -2 1.5 -3.5t4 -2.5t4.5 -2l4 -2q2 -2 3.5 -7t2.5 -11t1.5 -11.5t0.5 -8.5v-2v-3v-3v-3l-0.5 -0.5t-1.5 -0.5v0q-3 0 -4.5 3.5t-2 8.5t-0.5 10.5t-1 10.5t-2.5 8.5t-5.5 3.5h-2q-1 -6 -1 -15.5v-20t-1 -19t-5 -11.5q-1 0 -4 -0.5
t-6.5 -0.5h-6.5h-4q-2 0 -6 1.5t-4 4.5q0 1 0.5 2.5t1.5 1.5h19q3 0 4.5 5t2.5 11.5t1 12.5v9v4.5v7t-1.5 6.5t-5.5 3t-6.5 -3t-3.5 -8t-1.5 -10.5t-1 -10t-2 -7.5t-4.5 -3t-3.5 1.5t-0.5 3.5v4q0 2 0.5 6t1 9t1 9.5t0.5 6.5q4 7 9.5 11t14.5 3q2 0 2 2v3q0 3 -2 5t-4.5 4
l-5 4t-4.5 4q-5 6 -7 15t-3 18q0 1 -0.5 8.5t-1 16.5t-1 17.5t-0.5 13.5q0 1 -0.5 3.5t-0.5 3.5h3t4 -0.5t3.5 -1.5t1.5 -3q0 -18 0.5 -36.5t3.5 -35.5q0 -2 1 -5l2 -6t2 -5.5t3 -2.5h2.5t1.5 1q1 7 1.5 15.5t0.5 17v16.5v14v9v12q0 7 -0.5 13t-0.5 9q0 5 -1.5 11t-1.5 11z
M116 190q4 7 9.5 10.5t11.5 5.5t13 3t14 1h15q9 -2 14 -8.5t7 -16t2.5 -21t0.5 -22.5t0.5 -20.5t2.5 -15.5v-44q0 -9 -4 -14t-10 -7.5t-13.5 -3t-14.5 -0.5h-14t-15.5 2t-13 6.5t-7.5 12.5v3v3v4v2q-2 20 -3.5 40t-1.5 40v1l0.5 2.5t1.5 5t1.5 5l0.5 2.5q0 2 0.5 5.5l1 7
l1 7t0.5 4.5zM119 140v-15q0 -2 0.5 -7.5t1 -12t0.5 -13.5t0.5 -13.5t1 -11.5t0.5 -7q0 -5 5.5 -8t12.5 -4.5t14 -1.5h10q6 0 11.5 1.5t10.5 2.5q4 2 5.5 7t2.5 11t1 11v10v9q0 4 -2 8v9v14v13v9q0 1 -0.5 5t-1 9l-1 10t-1.5 7q0 6 -3 9.5t-7 5t-9 2t-10 0.5
q-17 0 -25.5 -3.5t-12 -10.5t-4 -18.5t-0.5 -26.5zM153 136v49q0 1 0.5 2t1.5 2h1q2 0 3.5 -2.5t2.5 -4.5q-1 -11 -0.5 -22.5t1.5 -22.5q1 -1 2 -1.5t2 -0.5q4 0 5.5 3t2.5 7.5t0.5 8.5t-0.5 6q0 1 0.5 4t0.5 6.5t0.5 7t0.5 4.5h1h1q3 0 3.5 -1t1 -3t0.5 -3.5v-3.5v-9v-10.5
t-0.5 -10t-3.5 -7.5q-3 -4 -6 -5.5t-5.5 -3t-4 -4t-1.5 -7.5q0 -7 2.5 -9t6 -3t6.5 -2t4 -6q2 -7 2.5 -11t0.5 -10v-5t-3 -2q-1 0 -2 0.5t-1 1.5q0 2 -0.5 6.5t-1.5 9t-3 7.5t-6 3q-2 0 -3.5 -2t-1.5 -4q0 -5 1 -10t1 -10q0 -6 -3.5 -8t-8.5 -2q-1 0 -4 -0.5t-5 0t-4 1.5
t-2 3v1q0 1 0.5 2t1.5 1h15l0.5 3t0.5 5v3.5v6t-0.5 6.5t-0.5 4l-2 2l-2 2v0q-5 0 -7.5 -4t-4 -8.5t-2.5 -8.5t-3 -4t-2.5 2t-0.5 4v1q0 2 1 5l2 6l2 6t2 4q0 2 3 2.5t6.5 0.5t6.5 1.5t3 4.5q0 1 -0.5 1h-0.5v2.5t-0.5 3t-0.5 3v1.5q-9 4 -13 10t-6 13.5t-2.5 15.5t-0.5 16
v1l0.5 1.5l0.5 1.5h0.5h0.5q2 0 2.5 -1t1 -2.5l1 -3l0.5 -1.5q0 -2 0.5 -6t1 -9t1 -9t0.5 -6q1 -5 3.5 -5.5t6.5 -0.5z" />
</svg>
