<?xml version="1.0" standalone="no"?>
<!DOCTYPE svg PUBLIC "-//W3C//DTD SVG 1.1//EN" "http://www.w3.org/Graphics/SVG/1.1/DTD/svg11.dtd" >
<svg xmlns="http://www.w3.org/2000/svg" xmlns:xlink="http://www.w3.org/1999/xlink" version="1.1" viewBox="-10 0 266 256">
   <path fill="currentColor"
d="M74 249q1 1 2 1.5t2 0.5q3 0 4.5 -2.5t2.5 -5.5t1 -6v-5v-122q0 -1 0.5 -2.5t1 -2.5t1 -2.5t1.5 -1.5q3 0 5 2t3 4.5t1.5 5.5t0.5 5q0 1 0.5 8t1 15.5t1 17.5t0.5 14v1q0 11 -1 21t-1 21v3t3 2h1l2 -1.5t3 -2.5q1 -6 1.5 -13t0.5 -13v-5v-5.5t-0.5 -5.5t-1.5 -5v-57
q0 -5 -2 -9t-5 -6t-7.5 -3.5t-9.5 -3.5v-1.5v-2.5q0 -6 2 -8.5t5 -3.5t6 -1.5t6 -3.5q4 -6 5.5 -13t2.5 -14v-6q0 -3 -0.5 -6t-4.5 -3q-3 0 -4 3t-1.5 7t-0.5 9t-1 9.5t-3 7.5t-6 3h-1q0 -1 -0.5 -2t-0.5 -2q1 -5 1 -8.5t0.5 -7t0.5 -6.5v-8q0 -1 -0.5 -3t-0.5 -4v-3.5v-2.5
q0 -3 -5 -5t-11 -2.5t-12 -0.5h-7q-3 0 -4.5 1t-1.5 3t0.5 4t2.5 2h25l0.5 0.5t1.5 0.5q0 1 0.5 3l0.5 2v14q0 3 0.5 7.5t0 8t-2 6.5t-5.5 3q-2 0 -4.5 -0.5t-3.5 -3.5q0 -1 -0.5 -4t-1 -6.5t-1 -6.5t-0.5 -5l-0.5 -2t-1 -3.5t-1.5 -3t-3 -1.5q-3 0 -4.5 2.5t-1.5 5.5
q0 8 3 16.5t4 16.5q1 0 4.5 1l7 2t6 1.5t2.5 1.5v13q0 2 -2.5 3t-6 2l-7 2t-4.5 2q-3 2 -5 7.5t-3.5 11.5t-2 11.5t-1.5 8.5v10t-0.5 17t-0.5 17v10l-0.5 3t-0.5 6t-0.5 5.5t-0.5 3.5v1v0q0 1 1 3t2 2q3 0 5 -1.5t3 -3.5t1.5 -5t0.5 -4v-7v-12v-11v-7t0.5 -6.5t1 -10l1 -11
t1.5 -7.5q0 -2 0.5 -6.5t2.5 -9.5t4.5 -8.5t6.5 -3.5q2 0 3 2t1 4.5v5.5v4q0 28 -2 56t-2 57v17zM133 204l3.5 3.5t5 4.5t6 3.5t5.5 1.5h32q4 0 7.5 -3.5t6.5 -8t4.5 -9.5t1.5 -9v-54q0 -4 -2 -8t-5 -6q-1 0 -3.5 -1t-5.5 -2t-5.5 -2t-3.5 -1h-2q-3 0 -3 3t2.5 5t6 4.5
t7.5 4t5 3.5l0.5 3l0.5 3v2.5t-0.5 3.5t-1 3.5t-1.5 1.5h-1l-13 -11h-2q-2 0 -3.5 1t-1.5 3v0.5v0.5q6 5 12.5 11t10.5 11v4q0 3 -0.5 7.5t-4.5 6.5q-2 -1 -4.5 -3.5l-4.5 -4.5t-4.5 -3.5t-6.5 -1.5h-3q-1 0 -2 2l6 6l8 8t7 7.5t3 6.5t-3 4.5t-7 2t-8 0.5h-5q-4 0 -8.5 -0.5
t-8.5 -2t-6.5 -4.5t-2.5 -8q0 -4 3 -6t6.5 -4.5t6.5 -4.5t3 -6q0 -2 -1 -3t-3 -1h-1v0l-13 11h-4v-18l1 -1l2.5 -2.5t2.5 -3t2 -1.5q1 -1 3.5 -2l5 -2t5 -3t2.5 -4t-2 -2.5t-4 -0.5t-3.5 1l-3 2t-3.5 2t-4 1q-1 0 -2.5 -0.5t-1.5 -2.5q0 -7 3.5 -10.5t8 -6t8.5 -4t4 -4.5
q0 -2 -2 -3t-4 -1h-2h-1q-10 4 -15 10t-7 14t-1.5 17t0.5 19q0 8 0.5 16t2.5 15zM131 69v4v4v4v2q0 2 0.5 4t1 4.5t2 4.5t3.5 2q3 0 5 -2v-4v-4q0 -6 -1 -12t-1 -12t4 -9t10 -3l2 0.5l2 0.5q1 3 1.5 10t1.5 14.5t2.5 13t5.5 5.5q3 0 3 -1.5v-4.5q0 -8 -1 -16t-1 -17v-2
q0 -1 0.5 -2l1 -2t2.5 -1h11q2 0 3 3.5t1.5 9t1.5 11.5t2.5 11.5t3.5 9t6 3.5q3 0 4.5 -0.5t1.5 -3.5q0 -4 -1.5 -8t-3.5 -8.5l-4 -9t-2 -9.5t2.5 -7.5t5 -4t4.5 -2t2 -2.5l-0.5 -1.5t-1.5 -1.5h-3.5h-3.5h-4.5h-3.5q-2 0 -5 0.5t-6.5 0.5h-6h-2.5l-1 2q-5 0 -11.5 -0.5
t-13 0t-12 3.5t-7.5 9v3v4v4v3z" />
</svg>
