<?xml version="1.0" standalone="no"?>
<!DOCTYPE svg PUBLIC "-//W3C//DTD SVG 1.1//EN" "http://www.w3.org/Graphics/SVG/1.1/DTD/svg11.dtd" >
<svg xmlns="http://www.w3.org/2000/svg" xmlns:xlink="http://www.w3.org/1999/xlink" version="1.1" viewBox="-10 0 266 256">
   <path fill="currentColor"
d="M175 224q0 2 -0.5 6.5t0 9t2 7.5t5.5 3t4.5 -2.5t0.5 -5.5q0 -6 -1.5 -12t-1.5 -12q0 -8 2.5 -15t5.5 -13l6 -12t5 -14q1 -5 1.5 -10.5t0.5 -11.5t-2 -11.5t-5 -11t-7 -10t-8 -8.5q5 -8 9 -13.5t7 -12t4.5 -13.5t1.5 -17q0 -2 -0.5 -6.5t-1.5 -9.5t-2.5 -8.5t-3.5 -3.5
h-24q-3 0 -3 1v3t0.5 3.5t2.5 1.5q4 0 8 -0.5t8 -0.5q5 0 6.5 4.5t1.5 8.5q0 5 -4.5 7t-9.5 3.5t-9.5 3.5t-4.5 9q4 0 6 -2t4 -3t4.5 -2t4.5 -1.5l4 -1l2 -0.5l1 1q0 1 0.5 2.5t0.5 2.5q0 6 -2.5 11.5t-5.5 10.5t-5.5 10.5t-2.5 10.5q-9 0 -12.5 -1.5t-4.5 -4t-1 -4.5t-3 -2
q-2 0 -2.5 2t-1 5t-2 6.5t-5.5 6.5l-2 1t-3 2l-1.5 1.5t-3.5 3t-3.5 3t-2.5 1.5q-1 1 -3 3.5t-3 3.5l-1 1v6q6 0 10.5 -4t8.5 -8.5t9 -8.5t11 -4q7 0 13 3t10.5 8t7 12t2.5 14q-1 9 -4 19t-7 19q-1 1 -2.5 3.5l-3 5t-2.5 5t-2 3.5q-1 5 -1 11.5v11.5zM77 243l2 2l2 2v0v0
q3 0 4 -2t1.5 -4.5t0.5 -4.5v-4q0 -22 -2 -44t-2 -44v-7q0 -6 0.5 -11.5t0.5 -10.5v-7q0 -1 0.5 -1.5l0.5 -0.5h1q4 0 6 4t2.5 9.5t0.5 11v7.5v5.5t0.5 10t0.5 10v5.5q0 2 0.5 7t0.5 11t-0.5 11t-0.5 7q1 1 2 1h1q4 0 5 -3v-3.5v-5.5v-6v-4v-4v-6v-5.5v-2.5q0 -3 -0.5 -11
t-1.5 -17t-1.5 -16.5t-1.5 -10.5q0 -5 -3 -8.5t-5.5 -6t-5 -5.5t-2.5 -8q0 -1 0.5 -3.5l0.5 -2.5q4 -1 6.5 -1.5t4.5 -1.5t4 -3t5 -6q1 -7 2.5 -12t1.5 -11q0 -1 -0.5 -3.5t-1 -4.5t-1.5 -3.5t-2 -1.5t-1.5 0.5l-0.5 0.5q-1 3 -1 9q0 5 -0.5 11t-2.5 10t-7 4h-1.5h-1.5
q0 -4 -1.5 -9t-1.5 -9v-2v-1.5t0.5 -3t0.5 -3v-1.5v-6q0 -4 -0.5 -7t-2.5 -5t-5 -4h-10h-5t-5.5 0.5t-4.5 2t-2 4.5t2 4t5 1t7 -1t7 -1h3t2 2v34q0 2 -1.5 4t-3.5 2t-3.5 -1.5t-2 -3.5t-1.5 -4t-1 -4v-3t-0.5 -4.5t-0.5 -5v-3.5h-3q-4 0 -4.5 1t-0.5 5q0 7 0.5 12t2.5 13
q4 5 8 7t9 2v17q-8 2 -12.5 8.5t-6 14.5t-2 16.5t-1.5 15.5v3.5v3.5v2.5t-1 3.5v54q3 0 5 -4.5t3 -12t1.5 -17.5l1 -20t1 -19.5t1.5 -17.5t2.5 -12.5t4.5 -4.5q1 0 2 0.5t1 1.5q3 23 3 46.5v47.5v3v2.5v3.5t-0.5 3.5t-0.5 2.5l0.5 1.5t0.5 3v3v1.5q0 1 0.5 3.5t0.5 4.5
q0 3 -0.5 5.5zM138 217q0 4 4 4q2 0 5 -5t6 -12l6 -14t5 -10l5.5 -5.5l4.5 -4.5l4.5 -4.5t5.5 -4.5q1 0 1.5 -0.5t0.5 -1.5v0v0q0 -2 -2 -3.5t-3 -1.5t-2 0.5t-1 1.5q-6 5 -13 12t-13 14.5t-10 16.5t-4 18zM131 168v2.5t2 1.5q1 0 5 -2t9 -5t11 -7t11.5 -7t8.5 -5.5l3 -2.5
q0 -1 -0.5 -2t-1.5 -1q-3 0 -10 3t-14.5 7.5t-14 9t-9.5 6.5v1v1zM127 148q0 2 1.5 2.5t3.5 0.5t6 -1.5t9.5 -4.5t11 -6.5t10 -6.5l7.5 -5t3 -3q0 -4 -3 -4l-4 2t-9.5 5t-11.5 6.5t-11.5 6.5t-9 5t-3.5 3zM120 111q0 2 1 2.5t2 0.5h0.5h1.5l10.5 -10.5t10 -11t8 -12
t5.5 -13.5v-3v-4v-4v-3v-3v-5v-3v-2q0 -2 -0.5 -5.5l-1 -7t-2 -6.5t-4.5 -3h-10h-4t-6 0.5t-5.5 1.5t-2.5 4v1l1 1.5t2 1.5q6 0 11 -0.5t8 1t4.5 5t1.5 10.5q0 3 -4 5t-9 3.5t-9.5 4t-5.5 5.5l0.5 1.5t1.5 1.5v0h1q2 0 5 -1.5l7 -3.5t7 -3t6 -1q0 4 0.5 9.5t-1.5 9.5
q-2 3 -7 8l-10 10t-9 10t-4 8zM114 85q0 2 2 2h3q3 0 7.5 -2t9 -4.5t7 -6.5t2.5 -7l-5 2.5t-10.5 5.5t-10.5 6t-5 4zM188 59q-3 0 -6 1t-6 3t-5 4.5t-2 6.5q6 0 11.5 -4t9.5 -8v-1v-1l-0.5 -0.5l-0.5 -0.5h-1zM121 44q0 1 0.5 2t2.5 1t5.5 -1t7 -2.5t6 -4t2.5 -5.5v-1
l-0.5 -1t-1.5 -1v0v0q-2 0 -5.5 1.5t-7 4t-6.5 4.5t-3 3zM190 31q-2 0 -5.5 0.5t-7.5 1.5t-7 3t-3 6q4 0 7.5 -0.5t6.5 -1.5q1 -1 2.5 -2t3 -1.5t2.5 -1l1 -0.5v-4z" />
</svg>
