<?xml version="1.0" standalone="no"?>
<!DOCTYPE svg PUBLIC "-//W3C//DTD SVG 1.1//EN" "http://www.w3.org/Graphics/SVG/1.1/DTD/svg11.dtd" >
<svg xmlns="http://www.w3.org/2000/svg" xmlns:xlink="http://www.w3.org/1999/xlink" version="1.1" viewBox="-10 0 266 256">
   <path fill="currentColor"
d="M173 202v49q5 0 7.5 -1.5t2.5 -6.5q0 -6 -0.5 -10t-0.5 -10v-3v-4v-3.5v-1.5v-3t1 -5.5t2 -4.5t2 -2q3 0 5 1t4 3t4.5 3t5.5 1q2 0 3 -0.5t1 -3.5q0 -4 -3.5 -6t-7.5 -3.5t-7.5 -3t-3.5 -4.5q0 -2 1.5 -4l3 -4l3 -4t1.5 -5t-1 -4t-4 -1q-2 0 -3.5 2t-2.5 4t-2.5 3.5
t-3.5 1.5t-4 -2t-4.5 -5t-4 -6t-1.5 -5v-1q1 0 1.5 -0.5l0.5 -0.5q1 -1 2.5 -2l1.5 -1h26q1 0 1.5 -1.5t0.5 -2.5q0 -3 -1.5 -3.5t-3.5 -0.5q-9 0 -18 1t-18 1q0 -1 -0.5 -2.5t-0.5 -3t0.5 -2.5t3.5 -1h15l1 -2t2 -2q3 -4 5.5 -6t5.5 -3t5.5 -2t4.5 -5q2 -2 2 -5v-6
q0 -8 -4 -11.5t-12 -4.5q-2 -2 -2 -3v-2q0 -5 2.5 -6.5t6 -4t6.5 -5.5t3 -10q0 -8 -3 -12.5t-9 -7.5v-22q0 -2 -2.5 -2h-2.5q-4 0 -4 4t0.5 7t0.5 7v7q-7 3 -12.5 8.5t-5.5 13.5q0 5 2 7.5t4.5 5l5 5t2.5 6.5q0 1 -0.5 2.5l-0.5 1.5l-12 12v5q0 3 1 5.5t2.5 5t2.5 4t1 3.5
v3.5t-1 2.5h-16l-1 -1t-2 -3t-1 -3v-2v-2t0.5 -4t0.5 -3.5v-2.5l0.5 -1.5t0.5 -2.5q0 -4 -1 -6.5t-3 -4t-4.5 -3t-5.5 -2.5v-3q0 -5 2.5 -6.5t6 -3t6 -4t2.5 -7.5q0 -4 -0.5 -7.5t-1.5 -7t-4 -6t-7 -3.5v-20q0 -1 -1.5 -1.5t-2.5 -0.5l-2 2t-1 2q0 9 -2 13t-5 7t-5.5 6.5
t-2.5 10.5t2 11t4.5 6.5l4.5 4.5t2 6v1q-4 2 -6.5 4t-4.5 4t-3 5t-1 7q0 5 2 8.5t5 4.5t7.5 1h8.5q4 3 6.5 9t2.5 11q0 2 -2 3t-4.5 1.5t-4.5 1t-3 0.5h-4t-6 0.5t-6 0.5h-4l-3 4q1 2 1.5 2.5t1.5 0.5t1.5 -0.5t2.5 0.5l1.5 3t3.5 6.5t3.5 6.5t1.5 4q0 6 -1 12t-3 12.5
t-4 12.5t-4 11q-1 3 -3 7t-2 7q0 2 0.5 3.5t2.5 1.5q3 0 6 -6.5t5.5 -14t4.5 -15.5t3 -10q0 -1 0.5 -3.5l1 -5l1 -5t0.5 -3.5q1 0 2 -1l1 -1h1h1q2 1 4.5 2.5t2.5 3.5q0 14 -3.5 26.5t-6.5 25.5q-1 2 -1.5 2.5l-0.5 0.5v0v3q0 1 0.5 2.5t1.5 1.5q3 0 5.5 -3.5t4 -9.5
t3 -12.5t2 -13t1 -11.5t0.5 -7q0 -5 -2 -9t-5 -7t-6.5 -4.5l-7 -3t-5.5 -3.5t-2 -4q0 -1 3 -2t6.5 -1.5l7 -1t5.5 -0.5t6.5 4.5t9 11t7.5 11.5t3 6q0 9 -5 17zM77 141q0 25 -2 49t-2 49q4 0 6 -2.5t3 -6t1 -7.5v-7v-73q0 -1 0.5 -5t0.5 -8t0.5 -7.5t0.5 -5.5q1 -1 1.5 -1
h2.5t5 3.5t3 6.5v4.5t0.5 8t1 8.5t0.5 5v8v12v15v14v13v8l0.5 -0.5l0.5 -0.5l3 -3q2 -9 2 -19.5v-18.5v-15v-14t-0.5 -13.5t-1.5 -15.5q-2 -6 -5.5 -8.5t-6 -4.5t-4.5 -4.5t-2 -6.5q0 -5 2 -7t5 -3l6 -2t5 -4q5 -7 5.5 -16t0.5 -17q0 -2 -0.5 -4.5t-3.5 -3.5q-4 3 -4.5 9.5
l-1 13t-1.5 11.5t-5 5q-2 0 -3.5 -2.5t-1.5 -6v-6.5v-6q0 -5 1 -11t1 -12v-9q-1 -2 -4 -4t-6 -2h-4t-6.5 0.5t-6.5 1.5t-3 3v3.5t2 2.5h16q1 0 1.5 1l0.5 1q1 3 1.5 5.5t0.5 4.5v4.5v5.5v13t-2 13h-3q-5 0 -7 -3t-3 -7t-0.5 -9.5t0.5 -9.5t-1 -7t-4 -3t-4 1.5t-1 3.5v17.5
t3 16.5q2 4 5 5.5t6 2t5.5 2.5t2.5 7t-3.5 7.5t-7.5 5t-8 5.5t-5 10q-3 15 -3.5 31.5t-1.5 30.5q-1 3 -1.5 7t-1 8.5t-0.5 8.5v8q0 2 1 4.5t3 2.5q4 0 5.5 -8t2 -20t1 -26t1.5 -26.5t4 -20.5t8 -8q1 0 2 0.5t2 1.5v5v6.5v6.5v4zM125 104q0 -3 2 -4.5t4.5 -2.5t4.5 -1.5
t4 -0.5q4 0 6 3t2 7v2.5t-0.5 3t-1.5 2.5t-3 1h-15q-1 0 -1.5 -1.5l-1 -3t-0.5 -3v-2.5zM173 106q0 -3 1.5 -5t3.5 -3.5t4 -2.5t5 -1t6.5 3.5t3.5 6.5t-2 5t-4 3t-4.5 1.5t-4.5 0.5q-4 0 -6.5 -2.5t-2.5 -5.5zM128 61q0 -7 4 -10t9 -3t7.5 3t2.5 8t-3.5 9.5t-9.5 4.5
q-5 0 -7.5 -4t-2.5 -8zM172 61q0 -9 4 -12t13 -3q4 0 5 3.5t1 6.5q0 7 -3 9.5t-10 2.5q-4 0 -7 -2t-3 -5z" />
</svg>
