<?xml version="1.0" standalone="no"?>
<!DOCTYPE svg PUBLIC "-//W3C//DTD SVG 1.1//EN" "http://www.w3.org/Graphics/SVG/1.1/DTD/svg11.dtd" >
<svg xmlns="http://www.w3.org/2000/svg" xmlns:xlink="http://www.w3.org/1999/xlink" version="1.1" viewBox="-10 0 266 256">
   <path fill="currentColor"
d="M118 246q0 3 1 4t3 1t3.5 -0.5t2.5 -3.5q2 -13 3 -28.5t1 -31v-30t-1 -28.5l2 -15q3 0 7 -2t8 -4.5t6.5 -6t2.5 -6.5q-4 0 -5.5 0.5t-3 2t-3.5 3t-5 3.5h-2t-2 -0.5l-2 -1l-1 -0.5v-32q0 -1 2 -2t4.5 -2t5 -1.5l2.5 -0.5q2 0 3 1.5t1.5 3.5l1 4t0.5 4q1 2 3.5 4t5.5 3.5
t5.5 3t2.5 3.5q0 1 -1 1l-0.5 1.5l-0.5 1.5v3v4v4v3q-2 2 -5 3q-8 3 -11.5 6t-5 7.5t-1.5 10.5v14q0 7 1.5 12t6.5 10q1 2 3.5 2.5t4.5 1t3.5 1.5t1.5 3q0 5 -3 12.5t-7 14.5l-8 14t-7 13q1 0 2 1.5t2 1.5q2 1 4.5 -2t5 -7.5t5 -10t4.5 -10.5t4 -8t4 -3h1l1.5 0.5t1.5 1.5
q1 1 2 4.5t3 8t3.5 8t2 5t1 5t2 7t3.5 6t5 2.5t4 -2t1 -5q0 -6 -4 -14l-8 -16t-8 -15.5t-4 -14.5q0 -1 1.5 -2t4 -1.5t5 -1.5t4.5 -4t3.5 -8t1.5 -13v-2v-3t-0.5 -5t-0.5 -5v-3q-1 -7 -5 -10.5t-7.5 -5.5t-6.5 -3t-3 -3v-19q0 -3 1.5 -3.5t4 -1t4.5 -1t3 -2.5q2 -5 2 -10
t2 -9q0 -2 3 -2h5t5 -0.5t2 -3.5t-2 -3.5t-4.5 -1l-5 -1t-3.5 -2.5l-1.5 -2t-2.5 -3l-0.5 -0.5l-0.5 -0.5q-1 -1 -2.5 -1h-1.5v13l-2.5 0.5t-3.5 0.5h-7h-6.5h-6.5h-3v-9h-1.5t-2.5 1q-2 0 -1.5 2t0 4.5t-2.5 4t-7 1.5q-3 0 -5 -1.5t-2 -3.5q0 -6 3.5 -10.5t8.5 -5.5
q13 -1 26.5 -1t26.5 -2l1 -2v-1v0q0 -1 -1.5 -2.5l-1.5 -1.5h-21q-4 0 -4.5 -2t-0.5 -5t-1 -5t-5 -2t-5 2t-1.5 4.5l-1 5t-3.5 4.5q-7 2 -12 3.5t-9 4t-6.5 6.5t-2.5 12v1l0.5 1.5t0.5 3t0.5 2.5l0.5 1v2v2q0 1 -0.5 5t-0.5 9t-0.5 9.5t-0.5 5.5v8v14v18v18v14v8
q0 8 -1 16.5t-1.5 17.5t-1.5 18t-1 17zM79 244l0.5 0.5t0.5 1.5q1 0 2 0.5l1 0.5q2 0 3 -1.5t1.5 -3.5t0.5 -4v-3q0 -28 -1.5 -55.5t-1.5 -55.5v-12l0.5 -1.5t1.5 -1.5v0q4 0 6 3.5t3.5 9.5t2.5 13t1.5 13.5t1 12t1.5 8.5v56q0 1 0.5 1.5t1.5 0.5q4 0 5 -4t2 -7v-22
q0 -22 -2 -42.5t-8 -41.5q-2 -3 -4.5 -5t-5.5 -3.5t-5 -3t-2 -4.5q0 -5 1 -8t3 -4.5t5 -3t8 -3.5l0.5 -1l0.5 -1q3 -6 3.5 -13.5t0.5 -13.5v-5t-0.5 -6t-1.5 -5.5t-3 -2.5h-3t-2 2v6q0 6 0.5 10.5t0.5 9.5v6t-1 5t-3 4t-6 2q-3 0 -4 -4t-1.5 -10.5t0 -13.5t0.5 -13.5
t-1 -10.5t-3 -5q-1 0 -3 -0.5t-4 -0.5t-4 -0.5t-3 -0.5h-1h-3t-6.5 0.5t-6.5 2t-3 4.5t2.5 4t4.5 1h1.5t3 -0.5t2.5 -0.5h1q1 -1 2 -1h4h3t3 2t1 8.5t1.5 13t1.5 13t1 8.5v2q0 5 -5 5t-7.5 -3t-4 -8t-1.5 -10t-0.5 -9.5t-1.5 -7.5t-3 -3q-3 0 -4.5 1.5t-1.5 3.5q0 5 0.5 11
t1.5 12t4 11.5t8 8.5q3 2 6 2h5.5t4 2t1.5 7q0 4 -3 6.5t-6.5 4t-7.5 3.5t-7 5q0 1 -1.5 5t-3 9.5t-2.5 10t-1 6.5q0 1 0.5 3.5t0.5 5.5v6v4q1 0 1 1v2q0 17 -1 34t-1 34l2 -0.5t4.5 -1t4 -2t1.5 -2.5v-75q1 -3 1 -9.5t1 -13.5t3 -12t7 -5q3 0 4.5 1.5t1.5 5.5v10v15v18v18
v14.5v10.5v7.5t0.5 11.5t0.5 12t1 8zM151 155q0 -5 2 -7t6 -2t6 2t3 4.5t1.5 6t0.5 6.5q0 2 -2 3t-4 1t-4 -1.5t-4 -4t-3.5 -4.5t-1.5 -4zM176 155q0 -5 1 -7.5t7 -2.5q3 0 5 1.5t2 5.5q0 2 -0.5 4.5t-1.5 5t-3 4t-4 1.5t-3.5 -1.5t-2 -3.5t-0.5 -3.5v-3.5zM153 132
q0 -4 2.5 -7.5t6.5 -3.5h1q1 1 4 2t2 1l-1 12q-1 3 -4 3.5t-5 0.5q-3 0 -4.5 -2t-1.5 -6zM176 129q0 -3 1 -5.5t5 -2.5q5 0 7 4.5t2 8.5v1l-1 0.5l-1 0.5h-11q-1 0 -1.5 -1t-0.5 -2v-2v-2zM184 95v0l15 15q0 1 1 1h2q2 0 4.5 -0.5t2.5 -3.5q0 -2 -2.5 -5t-6.5 -5t-7.5 -3.5
t-4.5 -1.5q-2 0 -3 0.5t-1 2.5zM158 69q0 -1 -0.5 -3.5t1.5 -2.5q1 0 3 -0.5t4 -0.5t4 -0.5t3 -0.5h2q4 0 7 1t3 6q0 2 -1 5.5t-5 3.5h-18q-1 0 -2 -1t-1 -2.5v-2.5v-2z" />
</svg>
