<?xml version="1.0" standalone="no"?>
<!DOCTYPE svg PUBLIC "-//W3C//DTD SVG 1.1//EN" "http://www.w3.org/Graphics/SVG/1.1/DTD/svg11.dtd" >
<svg xmlns="http://www.w3.org/2000/svg" xmlns:xlink="http://www.w3.org/1999/xlink" version="1.1" viewBox="-10 0 266 256">
   <path fill="currentColor"
d="M52 244q0 2 2 4.5t4 2.5t4.5 -2.5t2.5 -4.5v-89q1 -10 1 -20t2 -20q0 -1 1.5 -2l1.5 -1q1 -1 4 -2t6 -3t6 -3.5t4 -1.5q6 -3 9.5 -8t6 -11t3.5 -12.5t1 -11.5q1 -3 3 -4t5 -1h5.5h5.5h4h4q3 9 3.5 16.5t2.5 13t6.5 9t15.5 4.5h4t6.5 0.5t6.5 1.5t4 3q0 2 0.5 5t0.5 7
t0.5 7.5t0.5 4.5v13v20v23v23v20v13q-1 1 0 3.5l1 2.5h3q4 0 6 -3.5t3 -7.5v-4v-6v-6v-5q0 -23 -1.5 -46.5t-1.5 -47.5v-10v-1.5t0.5 -3t0.5 -3v-1.5q0 -11 -2 -22.5t-2 -22.5q-3 -2 -8 -3l-10 -2t-9.5 -1h-7.5h-31l-3 -3q0 -1 -0.5 -3t-0.5 -4q0 -4 1.5 -8t1.5 -9
q0 -3 -1 -6t-5 -3q-2 0 -3 1.5l-2 3t-2 3.5t-1 3q0 3 1 7t1 7q0 7 -2 9.5t-8 4.5h-14t-15 1.5t-12 5.5t-6 12q-2 16 -3 32t0 32l-2 2v5.5t-0.5 12.5t-0.5 15v13q-1 13 -1.5 25t-0.5 25v12zM124 172l-40 3q-3 1 -4 3.5t-1 5.5q18 0 37.5 -1.5t38.5 -3.5q2 -1 6 -1t7.5 -1
t6 -1.5l2.5 -0.5v-7h-3.5t-5.5 0.5t-6 0.5h-4t-2 0.5t-3 1t-3.5 1l-1.5 0.5h-1q-2 0 -5.5 -0.5t-3.5 -3.5v-31q0 -4 2.5 -5t6.5 -1q1 0 4 -0.5t7 -0.5t7 -0.5t4 -0.5q2 0 2 -1.5v-2.5q0 -3 -1 -3.5t-4 -0.5h-10.5t-16.5 0.5t-18.5 1.5t-17.5 3t-12.5 4.5t-4.5 5.5
q8 0 15.5 -1t14.5 -1q5 0 7 3t2.5 7t0 8t-0.5 7v10zM70 99q0 -1 -0.5 -4.5t-0.5 -4.5q0 -7 1 -12.5t4 -10t7.5 -6.5t12.5 -2h3q2 0 2 2v7q0 6 -2 11.5t-5.5 10.5t-8.5 8.5t-11 3.5h-1l-0.5 -1.5zM151 66v-7q1 -1 1.5 -2l0.5 -1h24q4 0 6 3.5t3 8.5t1 9v4q0 3 -1.5 5.5
t-4.5 2.5h-2q-1 0 -4 -0.5t-6.5 -1t-6 -1t-3.5 -0.5q-3 -1 -4.5 -3t-2.5 -5t-1 -6v-6z" />
</svg>
