<?xml version="1.0" standalone="no"?>
<!DOCTYPE svg PUBLIC "-//W3C//DTD SVG 1.1//EN" "http://www.w3.org/Graphics/SVG/1.1/DTD/svg11.dtd" >
<svg xmlns="http://www.w3.org/2000/svg" xmlns:xlink="http://www.w3.org/1999/xlink" version="1.1" viewBox="-10 0 266 256">
   <path fill="currentColor"
d="M196 205v12q0 1 0.5 3.5t0.5 5.5t0.5 6l0.5 3q0 2 -0.5 4.5t0 5t1.5 4.5t3 2q4 0 5.5 -3.5t1.5 -5.5q0 -11 -2.5 -21.5t-2.5 -21.5q0 -10 0.5 -19t1.5 -20v-1.5t0.5 -3.5t0.5 -3.5v-1.5q0 -6 -2.5 -9.5t-6 -5.5t-7.5 -3t-7.5 -3t-5.5 -5.5t-2 -9.5q0 -4 2.5 -6t5.5 -3.5
t6 -3.5t3 -6q-7 0 -13 2.5t-12 6.5h-1q-1 0 -2.5 1t-2.5 2q-4 2 -7 4t-5.5 4.5t-4 5.5l-3.5 7q-1 27 -2 53.5t-1 53.5q0 2 0.5 3t2.5 1q4 0 5 -3.5t1 -6.5v-13q0 -1 0.5 -4.5t0.5 -7.5t0.5 -7.5l0.5 -3.5v-5v-8v-7v-5v-6.5t0.5 -10t0.5 -10.5v-7q1 -2 2 -5t1.5 -6t2.5 -5
t6 -2q3 0 4.5 2.5t2.5 6t1.5 7.5t0.5 5q0 6 -1.5 12.5t-3.5 12.5t-3.5 12t-1.5 12t3.5 9t9.5 3q4 0 7.5 -1.5t5.5 -4t3 -6t1 -6.5q0 -1 -0.5 -3.5t-1 -4.5t-2 -4t-3.5 -2h-1l-2 2q1 1 2 3t2 3q0 1 1 2t2 1v1q0 5 -4.5 8.5t-9.5 3.5t-5 -6q0 -5 1.5 -10.5l3 -11l3 -11
t1.5 -11.5l1.5 -1l1.5 -1l0.5 -0.5l0.5 -0.5q8 0 11.5 6t3.5 13q0 12 -1 24.5t-1 24.5zM119 246q1 2 2 2h3q6 0 6 -7q0 -8 -2.5 -17t-2.5 -18v-10.5v-15.5v-16.5v-10.5q-1 -8 -3 -11t-5 -4.5t-6 -2.5t-6 -3t-4.5 -6t-1.5 -13q0 -5 2.5 -7.5t6 -4t7.5 -2t7.5 -1.5t6 -3
t2.5 -6h-3t-4.5 0.5t-4.5 0.5h-3l-3.5 1.5t-9 4t-11.5 5t-11.5 5t-9 4l-3.5 1.5q-2 5 -3.5 9t-4.5 8v61q0 1 -0.5 3.5t-0.5 5.5t-0.5 6t-1.5 5q0 1 -0.5 3t-1 4.5t-1 4.5l-0.5 2q-1 4 -3.5 9t-2.5 9q0 1 1.5 1.5t2.5 0.5q2 0 3.5 -1t3 -3t2 -3.5t1.5 -2.5q4 -13 6 -26.5
t3 -27t1.5 -27.5t1.5 -27q0 -4 3 -9t9 -5q3 0 4 3t2 7t1 7v5q0 8 -2.5 16t-7.5 14q-2 3 -4.5 6.5t-2.5 7.5t0.5 8t2 7t4.5 4.5t8 1.5q3 0 7 -1t7 -3t4.5 -5.5t1.5 -6.5q0 -8 -3.5 -13.5t-10.5 -5.5q0 3 1 5t2.5 4t3 5t1.5 7q0 2 -1.5 3.5t-3.5 2t-4.5 1t-3.5 0.5q-3 0 -6 -2
t-3 -6q0 -2 2.5 -9.5t6 -14.5l6.5 -13t4 -6q5 0 9.5 3t4.5 8q-1 23 -0.5 47.5t3.5 47.5zM66 96q2 3 5 3h2q1 -1 2.5 -3.5t2 -5.5t1 -5.5t0.5 -3.5t0.5 -1.5l0.5 -0.5q10 -3 19 -6t17 -10q2 -3 2.5 -7t0.5 -8t1 -7.5t5 -4.5q10 -1 19 -1q6 0 7.5 3t2.5 7.5t1.5 9t2.5 8.5
q1 1 4.5 2.5t8 3t10 2.5t9.5 2t6.5 2t2.5 3v19q7 0 9 -3t2 -9v-1.5v-0.5q0 -3 -0.5 -8t-1 -11t-1 -11t-0.5 -7q0 -1 -0.5 -2.5t-0.5 -2.5l-3 -3l-3.5 -3.5t-3 -2.5t-1.5 -2h-2.5t-3.5 -0.5t-4 -0.5h-3h-6.5h-9.5h-9.5h-6.5q-6 -1 -7.5 -4t-1.5 -6.5t-1 -6t-5 -2.5h-2t-2 0.5
t-2 0.5t-1 1v15l-1.5 1t-2.5 1q-2 0 -7.5 1t-11.5 2.5t-11 2.5t-7 1q-11 4 -17 12q-1 7 -1.5 12t-1 9.5l-1 9t-0.5 9.5v8zM80 68v-3v-4q0 -4 0.5 -8t4.5 -6q1 -1 3.5 -2t5.5 -2.5t6.5 -2.5t5.5 -1v0q1 1 2 1.5t2 0.5v3.5v3.5q0 4 -2.5 7.5t-6 7t-8 5.5t-8.5 2h-3q-1 0 -2 -2
zM162 44v-6q1 -2 2 -2h3q7 0 13 0.5t10.5 3t7 7.5t2.5 14q0 2 -1 4t-4 2q-6 0 -12 -1t-10.5 -4t-7.5 -7.5t-3 -10.5z" />
</svg>
