<?xml version="1.0" standalone="no"?>
<!DOCTYPE svg PUBLIC "-//W3C//DTD SVG 1.1//EN" "http://www.w3.org/Graphics/SVG/1.1/DTD/svg11.dtd" >
<svg xmlns="http://www.w3.org/2000/svg" xmlns:xlink="http://www.w3.org/1999/xlink" version="1.1" viewBox="-10 0 266 256">
   <path fill="currentColor"
d="M142 214q0 5 5 10.5t11.5 10.5t13.5 9t11 7v0q4 0 6 -1t2 -5q0 -2 -3 -4.5t-7.5 -4.5t-10 -4.5t-10 -5t-7.5 -6t-3 -7.5q0 -6 4 -8.5t9 -4.5t9 -4.5t4 -8.5q0 -5 -2 -8t-5.5 -5t-7.5 -3t-7 -3t-5.5 -4.5t-2.5 -7.5l0.5 -2t0.5 -3l1 -1q11 0 16.5 -1.5t8 -5t3 -9.5
t0.5 -15v-16q0 -1 -0.5 -2.5t-1 -3.5t-1.5 -3.5t-3 -1.5t-3 2l-2 4t-2 3.5t-5 1.5h-1h-3.5t-5 -0.5t-5 -0.5h-2.5q-4 -2 -5 -4t-1 -4q0 -3 1 -4t5 -1q1 0 4 -0.5t6.5 -0.5t7 -0.5t4.5 -0.5q1 1 3 1.5l2 0.5h1q1 0 3.5 -1t4.5 -3l4 -4t2 -3v-20q0 -1 -1.5 -1h-2.5
q-2 0 -2.5 1.5t-1 4.5t-2 6t-4 5.5t-7.5 4.5t-14 2h-9q-3 -1 -3.5 -3t-0.5 -4q0 -4 1.5 -5.5t4 -2.5t5.5 -1.5t6 -1.5t4 -4.5t1.5 -7t1.5 -6.5t4 -3h37q1 0 2 -1l2 -2v-1v0q-1 -1 -1.5 -2t-0.5 -2h-13h-13q-2 0 -9 0.5t-15 0.5t-15.5 0.5t-9.5 0.5q-16 0 -35.5 -0.5
t-36.5 2.5l-2 1v1q0 4 2.5 4h4.5q9 0 18 -1t17 -1q4 0 5 2t1.5 4.5t1 5.5t0.5 4q2 5 6 6t8 1.5t6.5 2.5t2.5 8q0 4 -2.5 5.5t-6.5 1.5q-7 0 -14 -1t-13 -4q-3 -2 -3.5 -6t-0.5 -8t-0.5 -7t-4.5 -3v0q-1 0 -2 1l-2 2v6q0 8 1 11.5t3.5 6t6 4t9.5 5.5h26l0.5 2t0.5 3v2v3t-1 2
h-23q-1 0 -2 -1.5t-1.5 -3t-1.5 -2.5t-2 -1h-1l-0.5 0.5t-1.5 0.5l-1 40q0 5 3 7t7 3.5t7.5 2.5t3.5 4q0 6 -2 10t-4.5 7t-5.5 6.5t-6 7.5q-13 22 -13 49v7q1 3 2.5 3.5t3.5 0.5q1 0 2.5 -0.5t1.5 -3.5v-25q0 -7 2.5 -13t6 -11t7.5 -10t8 -9q3 -5 3 -8.5v-6.5t2 -4.5
t11 -1.5h3h4q2 1 2.5 2.5t0.5 4.5v5q0 2 2 4q2 3 6 5t8 3.5t7 4t3 6.5t-3.5 6.5t-8 5t-8 6.5t-3.5 11zM97 134v-2t2 -2q11 -1 21 -1h21h22q1 0 1.5 1t0.5 2q0 5 -3 7t-7 3t-8 1h-7h-9t-14.5 -0.5t-13.5 -2.5t-6 -6zM97 120q0 -3 0.5 -5t2.5 -4q5 -1 8.5 -1.5t6.5 -0.5
t6 -0.5t7 -0.5h4q2 0 6 0.5t9 0.5t9 0.5t6 0.5t2.5 2.5t0.5 4.5v2.5t-2 2.5q-8 1 -14 1.5t-12 0.5h-12h-13q-1 0 -4 0.5t-5 0.5t-4 -1.5t-2 -3.5zM108 47q0 -3 3.5 -4t7.5 -1h8.5h5.5h12q3 1 4.5 3t1.5 4t-2.5 5.5t-4.5 3.5h-26q-5 0 -7.5 -3.5t-2.5 -7.5zM90 15q0 2 1 3
t3 1h74l2 -2q0 -1 0.5 -2l0.5 -1q0 -1 -2.5 -2l-2.5 -1h-4t-6.5 -0.5t-6.5 -0.5h-5h-13t-11.5 0.5t-12 0.5t-13.5 1q-2 0 -3 1t-1 2z" />
</svg>
