<?xml version="1.0" standalone="no"?>
<!DOCTYPE svg PUBLIC "-//W3C//DTD SVG 1.1//EN" "http://www.w3.org/Graphics/SVG/1.1/DTD/svg11.dtd" >
<svg xmlns="http://www.w3.org/2000/svg" xmlns:xlink="http://www.w3.org/1999/xlink" version="1.1" viewBox="-10 0 266 256">
   <path fill="currentColor"
d="M175 176q0 3 1 8.5t1.5 11.5t1.5 11.5t1 7.5t0.5 8t2 12t3 11t4.5 5q2 0 4.5 -1t2.5 -4q0 -1 -1.5 -7t-3 -12.5t-3 -12l-1.5 -5.5l-2 -14t-1 -14q0 -5 2.5 -7t6.5 -3t8 -0.5t8 -0.5q1 0 1 -1v-2q0 -2 -0.5 -3t-2.5 -2h-3h-3q-5 0 -10.5 1t-10.5 1h-4h-3q-1 -1 -1.5 -3.5
t-0.5 -3.5v-2.5t0.5 -4.5t0.5 -4.5t1 -2.5q0 -2 1 -2h2q5 0 9.5 1.5t9 4t8.5 4t9 1.5q0 -6 -3 -9t-7.5 -5t-10 -2.5t-10 -2t-7.5 -3.5t-3 -7v-4.5t3 -3.5q5 0 10 -0.5t9 -2.5t6.5 -5.5t2.5 -9.5q0 -4 -1.5 -8.5t-5.5 -6.5q-5 -1 -9 -1.5t-8 -0.5h-7.5h-7.5h-9q-2 1 -2.5 2
t-0.5 3v1.5t2 1.5h2t4 0.5t4 0.5h3h1q3 0 5.5 -0.5t5.5 -0.5q2 0 4.5 0.5t4.5 1t3.5 2.5t1.5 4q0 4 -2.5 6t-5.5 3t-7 1.5t-6 0.5q-12 0 -20 -6t-8 -18q0 -9 4 -13.5t10.5 -6t13.5 -1.5t13 -1t10.5 -4.5t4.5 -11.5q0 -7 -1.5 -11t-7.5 -7q-2 0 -6.5 -0.5t-10 -1t-10.5 -0.5
h-7q-1 0 -4 -0.5t-4 -1.5q-2 0 -3 -2t-1.5 -4t-2 -3.5t-3.5 -1.5h-2t-1 2l-0.5 2.5t-0.5 3.5q0 4 2.5 8.5t7.5 6.5q2 0 6 -0.5t8 -0.5q5 0 9 0.5t6 0.5h5t5 1t3 2.5t1 5.5q0 2 -1 5t-4 4l-39 4q-3 0 -5 3t-3 6.5t-1.5 7t-0.5 4.5q0 5 0.5 10t2 10t4.5 9t8 7h3.5t4.5 0.5
t4.5 2t2.5 3.5t-1 6.5t-3 6.5q-1 0 -5 1.5t-8 2.5t-8 2.5t-5 1.5t-3 0.5l-4 1t-3.5 1.5t-1.5 3t3 3t5 1h2.5t1.5 -2q6 -2 11.5 -4.5t11.5 -2.5q1 0 4 0.5t3 3.5v18l-1.5 0.5t-2.5 0.5h-2h-4h-5h-2q-1 0 -3 0.5t-5 0.5t-5 0.5t-3 0.5t-2 1.5t-2 1.5v1q0 1 3 1.5t7 1t7 1.5
t5 1v15q0 13 -2.5 26.5t-2.5 26.5q0 3 0.5 4t3.5 1q4 0 5.5 -5.5t2 -14t0.5 -18.5t1 -19t3 -14.5t6 -5.5h2.5t3 0.5t2.5 1.5t1 2zM44 189q0 2 1.5 4t3.5 3h9q18 0 33.5 -1.5t34.5 -3.5v-1v-2v-3t-2 -2h-11l-4 -3l-0.5 -7t-1 -16.5t-1 -19.5t-0.5 -17q0 -6 -1 -14t-1 -14v-4
t0.5 -4.5t1.5 -4t3 -1.5q4 0 6 2t6 2h3h2l0.5 -1l0.5 -1q0 -6 -4.5 -8.5t-11 -4.5t-12 -4t-6.5 -7q-1 -7 -1.5 -14.5t-0.5 -14.5q0 -1 -2 -3l-2 -2q-1 -1 -3 0l-2 1q-1 1 -1 4v4q0 7 1 13t1 13q0 2 -3 4t-7.5 4t-9.5 4t-9 4t-7 5t-3 7q0 2 1.5 2.5t3.5 0.5t3.5 -1l3 -2l3 -2
t3.5 -1q3 0 3 2v4q0 1 0.5 5t1 9t0.5 11t0.5 11t0.5 9v5v10v14v15v10h-3.5t-5.5 -0.5t-5 -0.5h-4t-3 1t-3 2zM75 86v-11q3 -2 7.5 -3.5t8.5 -1.5h2t2 2q2 15 2 30t1 29q0 2 0.5 9t1 15t1 14.5t0.5 8.5v2q0 1 -0.5 3t-2.5 2h-15q-1 0 -2 -2.5l-1 -2.5q-1 -5 -1.5 -9.5
t-0.5 -8.5t0.5 -8.5t-0.5 -10.5v-5t-0.5 -8.5t-1 -10t-0.5 -10.5t-0.5 -8.5t-0.5 -4.5v-10z" />
</svg>
