<?xml version="1.0" standalone="no"?>
<!DOCTYPE svg PUBLIC "-//W3C//DTD SVG 1.1//EN" "http://www.w3.org/Graphics/SVG/1.1/DTD/svg11.dtd" >
<svg xmlns="http://www.w3.org/2000/svg" xmlns:xlink="http://www.w3.org/1999/xlink" version="1.1" viewBox="-10 0 266 256">
   <path fill="currentColor"
d="M60 246q0 3 1 4t4 1t4 -1t2 -4q0 -10 1.5 -22t6.5 -22.5t13.5 -17.5t21.5 -7h2h2t2 0.5l1 0.5v14l-3 2h-24l-0.5 1t-0.5 2v0v0v1q0 1 1 2t2 1q2 0 6 -0.5t7.5 0t6.5 2t3 5.5v3t-0.5 4t-1.5 3.5t-3 1.5h-27q-3 0 -3.5 1.5t-0.5 2.5q0 2 0.5 2.5l1.5 1.5q1 0 3.5 -0.5
t5.5 -0.5t5.5 0.5t4.5 1.5h46h2t4.5 -0.5t4 -1.5t1.5 -3v-1l-0.5 -1l-0.5 -1h-31l-2 -3v-1.5v-2.5v-6t2 -5q1 0 2.5 -0.5t4 -0.5t4.5 -0.5t3 -0.5h2.5t3 -0.5t2.5 -1.5t1 -2t-0.5 -2t-1.5 -1h-21q-2 0 -2 -2v-3t0.5 -3l1 -4t1.5 -3.5t3 -1.5q14 0 22 6.5t11 16.5t4 22t2 23
q0 1 2 1h3q2 0 3 -0.5t1 -3.5v-25q0 -1 -0.5 -2l-0.5 -1q-1 -1 -1.5 -4l-1 -6t-1.5 -5.5t-1 -3.5q-2 -7 -7 -11.5t-11 -7.5t-13 -4.5t-14 -2.5q-2 0 -1.5 -3l0.5 -3v-2.5v-2.5q2 -2 4 -1.5t5 0.5q16 -2 24.5 -8.5t8.5 -22.5v-9q-3 -6 -7 -9t-9 -4.5t-10.5 -1.5t-11.5 -1
q-1 -2 -1 -3.5v-4.5v-2t1 -2h28l2 -1t3.5 -1.5t3.5 -1.5l4 -2q2 -2 3.5 -5t2.5 -6t1 -6v-7v-6l-0.5 -1.5l-0.5 -1.5h-8q0 8 -0.5 14t-3 9.5t-7.5 5.5t-14 2h-5t-4 -0.5t-3.5 -2t-1.5 -4.5t1.5 -5t4 -2.5l5 -1t5.5 -1.5q2 0 3.5 -4t2.5 -8t2 -7.5t3 -3.5h38l0.5 -0.5
t1.5 -0.5q0 -1 0.5 -2t0.5 -2l-2 -2l-2 -2h-8h-8q-5 0 -14.5 0.5t-22 1t-26.5 1t-26.5 0.5t-22.5 0.5t-14 0.5q-2 1 -2 2.5v2.5q0 4 1.5 4.5t4.5 0.5t5.5 -0.5t5.5 -1.5h31l0.5 1.5t0.5 4t1 3.5q0 5 2.5 7t5.5 3t6.5 1.5t6.5 2.5v3v2q0 5 -1.5 8t-6.5 3q-7 0 -12.5 -1.5
t-13.5 -3.5q-4 -1 -5.5 -5.5t-2 -10t-1 -9.5t-2.5 -4q-3 0 -4 1t-1.5 3t-0.5 4v4q0 10 4.5 16t12 9t16 3.5t17.5 0.5v4q0 1 -0.5 2.5t-1.5 3.5q-1 0 -5 0.5t-8.5 1t-8.5 0.5t-6 1q-4 1 -7.5 4t-5 7.5t-2 9t-0.5 8.5q0 7 3.5 11.5t9 7t12 3.5t12.5 1q4 2 4.5 4t0.5 4v3
q0 3 -2 3q-1 0 -4 0.5t-6.5 1t-6.5 1t-4 0.5t-3 0.5t-2 1.5q-10 5 -16.5 13t-10 18t-5 20.5t-1.5 20.5zM131 133l3 -3h27q0 11 -7 15t-17 4h-3t-3 -1v-15zM91 138q0 -3 3 -4.5t7 -1.5h8h6h6q0 1 0.5 4t0.5 4v1q0 4 -2 5.5t-5 1.5h-7t-8 -1t-6.5 -3t-2.5 -6zM91 120
q0 -4 3 -6.5t7 -4t8.5 -2t7.5 -0.5h5q1 2 1.5 3.5t0.5 3.5l-0.5 2t-1 3.5l-1 3l-0.5 1.5h-28q-2 0 -2 -2v-2zM134 123q0 -1 -1 -2t-2 -1v-1q0 -10 9 -10h5.5t7 1t6 3t2.5 5q0 2 -2 3.5t-4.5 2t-4.5 0.5h-3h-2.5t-4 -0.5t-4 -0.5h-2.5zM110 50q0 -5 2.5 -6.5t6.5 -2t8.5 -0.5
h6.5h13q3 1 3 3.5v4.5q0 4 -1.5 6t-4 3t-6 1.5t-6.5 0.5h-7q-3 0 -7 -1t-6 -3t-2 -6zM85 21q3 1 4.5 1t3 0.5t3.5 0.5h4h4q3 -1 11.5 -1t18 -0.5t18 -1t12.5 -0.5q1 -1 1 -2v-2v-2.5t-1 -1.5h-10q-17 0 -33 1t-33 0q-2 1 -2.5 2.5t-0.5 3.5v2z" />
</svg>
