<?xml version="1.0" standalone="no"?>
<!DOCTYPE svg PUBLIC "-//W3C//DTD SVG 1.1//EN" "http://www.w3.org/Graphics/SVG/1.1/DTD/svg11.dtd" >
<svg xmlns="http://www.w3.org/2000/svg" xmlns:xlink="http://www.w3.org/1999/xlink" version="1.1" viewBox="-10 0 266 256">
   <path fill="currentColor"
d="M193 246q0 2 1 3.5t3 1.5q3 0 5 -3t3 -5q-1 -1 -1 -3.5t-0.5 -5.5t-0.5 -5.5v-3.5v-9v-16v-20v-19v-16v-9q0 -3 -0.5 -9.5t-1 -13.5t-1 -13.5t-0.5 -9.5q-1 -4 -3 -6t-5.5 -3.5t-7 -2.5l-7 -2t-5.5 -3.5t-2 -6.5t4 -5t9 -2t9.5 -2.5t6 -5t1.5 -9v-9.5v-2v-4.5t-1 -4
t-3 -1.5h-1l-0.5 0.5t-0.5 1.5l-0.5 1t-2 2.5t-2 2.5t-1.5 1h-47q-3 0 -3.5 2t-0.5 3v2l1 1q1 0 4 0.5t4 1.5h1h1q0 -1 2 -1.5t3 -0.5v0q4 0 7 3t3 7q0 6 -5 7t-11.5 1h-11.5t-5 3q0 2 1 2.5t2.5 1.5t3 1h2.5q4 0 7 -1t7 -1h5q3 3 4 4.5t1 3v3.5t1 5q2 4 6.5 5.5t9 2.5t9 4
t5.5 11v13v20v19.5v12.5q0 1 0.5 4t0.5 7v7v4v2q0 13 -1 27.5t-1 28.5zM84 238q0 2 0.5 3.5t2.5 1.5q4 0 5.5 -2.5t2.5 -5.5t1 -6.5v-5.5v-9v-1.5t-0.5 -2.5t-0.5 -2v-2l0.5 -2l0.5 -2q0 -1 -0.5 -3.5l-0.5 -2.5v-6q0 -3 2.5 -5t5.5 -2.5t7 -0.5h5l2 -3v-1q0 -2 -1.5 -4
t-3.5 -2l-1 0.5l-2 1t-2.5 0.5h-1.5h-4h-4q0 -2 -0.5 -5t-0.5 -4q1 -3 3 -4.5t4.5 -2.5t5.5 -2.5t5.5 -5t4 -10t1.5 -16.5v-5v-5l-1.5 -3t-3.5 -1q-2 0 -3 2l-2 4h-12v-12q0 -3 1.5 -3.5t4.5 -1l6 -1t6 -2.5t5 -6t2 -12q0 -2 -1.5 -3.5t-3.5 -1.5q-3 0 -3 3t-1 6.5t-3 6.5
t-8 3q-2 0 -3 -1.5t-1 -3v-3.5v-3q0 -4 1 -6t2.5 -3t3.5 -2.5t4 -4.5q1 -2 1 -4.5t0.5 -4.5t0.5 -4t2 -5q1 -1 2.5 -2t3.5 -1.5t3 -1t1 -2.5q0 -3 -2 -4t-4 -1l-2 0.5l-2 0.5q-2 1 -5.5 1.5l-3.5 0.5h-46l-0.5 0.5t-0.5 1.5q-1 0 -1 3v4h17l0.5 1t1.5 2q0 1 0.5 3l1 4t0.5 4
t1 3q0 2 2 3l4 2t3.5 2.5t1.5 3.5v15q0 1 -2 2t-4 1q-7 0 -10 -4t-4 -8.5t-2 -8.5t-5 -4q-2 0 -3 2t-1 4q0 12 2 17t5.5 6.5t7.5 1.5h7t5.5 3t2.5 10q0 4 -3.5 5t-6.5 1t-5 -1t-3.5 -2.5t-3 -2.5t-2.5 -1h-2.5t-1.5 2v32q0 7 4 9.5t9 3.5t9.5 3t4.5 8v2t-1 1l-3 2h-28
q-2 0 -3.5 2t-1.5 4q0 3 4 5h5q5 0 10 -1t10 -1h3t3 2v8q0 12 -1 23t-1 22zM160 208q2 1 4 6t3.5 11t3.5 10.5t6 4.5q2 0 3.5 -1.5t1.5 -3.5q0 -3 -1.5 -6l-3 -6l-3 -6l-2.5 -5q-1 -1 -2 -4.5t-2.5 -8t-3 -8.5t-1.5 -5l-0.5 -1t-1.5 -2v0q0 -4 3.5 -5t7.5 -2t7 -3t3 -8v-31
q0 -2 -1 -2.5t-2 -0.5h-0.5h-0.5q-1 2 -1.5 6.5t-3.5 5.5q-1 0 -3 0.5t-4.5 0.5t-5 0.5t-3.5 0.5h-2q-2 0 -3 -2t-1.5 -4.5t-1.5 -5t-4 -2.5h-2t-1 2v16h-15q-1 0 -2 2t-1 3q0 3 2.5 3.5t3.5 0.5q3 0 6 -1.5t6 -1.5q1 0 2.5 0.5t1.5 1.5v14q0 2 -3 2q-4 0 -8 0.5t-8 2.5
t-4 8q7 0 13 -2t11 -2q2 0 3.5 2t3 4.5t2.5 4.5t1 3t0.5 3l1 4l1 4t0.5 3zM156 170l-2 -11v-2q0 -2 1.5 -3t4 -1.5t5 0t3.5 0.5h4q1 2 1 3.5v3.5q0 5 -5 8t-10 3l-1 -0.5zM69 133v-6q9 -2 18 -2.5t18 -0.5h5l0.5 2.5t0.5 3.5v1q0 7 -2 11t-5 6t-7.5 2.5t-9.5 0.5
q-10 0 -14 -4t-4 -14zM77 134q-3 0 -3.5 2.5t-0.5 4.5h26q2 0 2.5 -1t0.5 -2v-1v-1q-4 -2 -8 -2h-7h-5.5h-4.5zM134 89q0 6 0.5 10t1.5 11q0 3 1.5 4.5t3.5 2t4 0.5h5q3 1 4.5 3.5t2 5t1 4t1.5 1.5q3 0 4 -1.5t1.5 -3.5t1 -3.5t3.5 -2.5h2t4.5 -0.5t4 -0.5h2.5t1.5 -1
t0.5 -2t-0.5 -1.5l-1.5 -1.5l-2 -0.5t-4 -0.5t-3.5 -0.5t-2.5 -0.5t-2.5 -1t-1.5 -3v-2.5t1 -2.5q1 0 1.5 -1l0.5 -1h13v-5h-15q-1 0 -1.5 -2t-0.5 -5v-4t-2 -2q-3 0 -4 2t-1 5t-0.5 5t-3.5 2q-6 0 -8 -2t-3 -5t-2 -5t-3 -2q-1 0 -2 0.5t-1 1.5l-0.5 2.5zM142 108
q0 -4 2.5 -5t5.5 -1h1.5t3 0.5t2.5 1t1 1.5q0 3 -2.5 4.5t-5.5 1.5q-2 0 -5 -0.5t-3 -2.5zM84 53q0 -3 1.5 -4.5t3.5 -2t4.5 -1t3.5 -0.5q4 0 5.5 1.5t1.5 5.5q0 6 -3 8t-9 2h-5q-1 -2 -2 -4.5t-1 -4.5zM182 36q3 0 5.5 1t2.5 5q0 7 -3.5 9t-9.5 2h-3q-2 0 -2 -1v-12
q0 -2 1 -2.5t3 -1t3 -0.5h3zM114 12h-3q-1 0 -5 0.5t-9 1t-9 1t-5 0.5h-4.5t-3 1t-2 3t-0.5 5h5t9 -0.5t10.5 -1t10 -1.5t7.5 -2t3 -3t-0.5 -3t-3.5 -1z" />
</svg>
