<?xml version="1.0" standalone="no"?>
<!DOCTYPE svg PUBLIC "-//W3C//DTD SVG 1.1//EN" "http://www.w3.org/Graphics/SVG/1.1/DTD/svg11.dtd" >
<svg xmlns="http://www.w3.org/2000/svg" xmlns:xlink="http://www.w3.org/1999/xlink" version="1.1" viewBox="-10 0 266 256">
   <path fill="currentColor"
d="M87 249q0 2 1 2h3t4 -3.5t3.5 -9t2.5 -12.5t2 -13.5t1.5 -11.5t0.5 -6q0 -3 0.5 -9.5t1.5 -13.5t1 -13t1 -9h9t7.5 -0.5t7 -0.5h7.5h7t5 3q-1 24 0.5 48t3.5 48q1 3 3 3.5t4 0.5q3 0 3.5 -1.5t0.5 -4.5v-1q0 -1 -0.5 -3.5t-1 -6t-1 -6t-0.5 -3.5q-1 -17 -1.5 -33
t-1.5 -33q0 -9 -1.5 -18.5t-1.5 -18.5v-9q0 -2 1.5 -2h2.5q4 0 9 2.5t9 3.5q1 1 3.5 2.5t5.5 3t5.5 2.5t3.5 2h1h1q3 0 4 -0.5t1 -3.5q0 -4 -6 -7t-13.5 -5.5t-14.5 -4.5t-10 -3q-2 -1 -5.5 -2.5l-7 -3t-6 -2.5l-2.5 -1l-5 -5v-17q0 -2 -1.5 -3t-2.5 -1t-2.5 -0.5t-2.5 -0.5
v25q0 3 -3 4.5t-6.5 2l-7 1t-4.5 0.5l-52 19l-1 0.5t-1 1.5l-0.5 1.5l-0.5 1.5q0 3 2.5 3h4.5q6 0 10.5 -2.5t9.5 -5t9.5 -4.5t10.5 -2h2q2 6 2 12v13q0 16 -1.5 33t-3.5 33q0 2 -0.5 5t-1 7t-1 7t-0.5 4q-1 3 -2 5.5t-2 4.5t-1.5 5t-0.5 6zM109 139q-1 -4 -1 -7t-0.5 -5
t-0.5 -5v-6v-6q1 -1 4 -3t7 -3.5t7.5 -2t5.5 -0.5h4.5t6.5 1t5.5 2.5t2.5 4.5v11q0 1 0.5 4t0 6.5t-1 6.5t-2.5 4q-8 1 -13.5 1h-13.5h-6t-5 -3zM93 54q0 9 -1.5 17.5t-1.5 17.5q3 0 5.5 -1.5t3.5 -3.5t1.5 -5t0.5 -6v-5v-6v-7v-4l1 -2q1 -1 2.5 -1h2.5q3 0 5.5 1.5t5 2.5
l5 2t5.5 1q2 0 2 -1.5v-2.5q0 -3 -4 -4.5t-9.5 -3.5t-10 -3.5t-4.5 -3.5v-20q0 -3 -1.5 -4t-3.5 -1h-1h-1q-1 1 -2 4.5t-2 4.5v2v1q0 1 0.5 2.5t0.5 3.5t0.5 3.5t0.5 2.5v0q0 5 -5.5 7.5t-12.5 6t-12.5 8t-5.5 11.5q5 0 9 -2.5t7.5 -6t7 -6.5t8.5 -3q2 0 3 1t1 3zM169 47v32
q5 0 7 -3.5t2.5 -8t0 -9.5t-0.5 -7q1 -2 1.5 -2.5t1.5 -0.5q4 0 6.5 2t5.5 4t5.5 4t5.5 2q2 0 3.5 -0.5t1.5 -2.5t-0.5 -3t-2.5 -2l-28 -17v-19q0 -1 -1 -2l-2 -2h-1v0q-1 1 -2.5 2t-1.5 2v19q0 2 -4.5 4.5t-10 6t-10 6.5t-4.5 5t1.5 2.5t2.5 0.5h2q1 -1 2.5 -2t3.5 -2.5
l4 -3l2 -1.5q2 -1 3 -2l1.5 -1.5t1 -0.5h1.5h3z" />
</svg>
