<?xml version="1.0" standalone="no"?>
<!DOCTYPE svg PUBLIC "-//W3C//DTD SVG 1.1//EN" "http://www.w3.org/Graphics/SVG/1.1/DTD/svg11.dtd" >
<svg xmlns="http://www.w3.org/2000/svg" xmlns:xlink="http://www.w3.org/1999/xlink" version="1.1" viewBox="-10 0 266 256">
   <path fill="currentColor"
d="M123 247q0 1 1 2.5t3 1.5q3 0 4.5 -2t3 -4.5t2 -5t0.5 -3.5v-55l2.5 -0.5t3.5 -1.5h3t4.5 -0.5t4.5 -0.5h3h3q1 0 2 1t1.5 3t1 3.5t0.5 2.5t0.5 3t0.5 4t0.5 4t0.5 3v3v5v5v3l2 1v20l1.5 0.5t2.5 0.5t3 -1.5t3 -2.5v-11q0 -8 -1.5 -19t-3.5 -22.5t-5.5 -22t-7.5 -16.5
q-1 0 -2 -0.5t-2 -1.5t-4.5 -3t-7.5 -4.5t-7 -4.5l-3 -2v-12l30 -5q3 0 5 -3t3 -6.5t1 -7.5v-6v-6q-1 -4 -4 -4q-4 0 -5 4.5t-2 9.5t-2 9t-4 4h-21v-1t-0.5 -3t-0.5 -4v-4v-16q-1 -2 -2.5 -4t-3.5 -2h-2.5t-1.5 2v33q-4 0 -7 0.5t-5 0.5t-5 -0.5t-7 -1.5q0 -1 -1 -4.5l-2 -7
t-3 -6.5t-4 -3q-3 0 -3.5 1.5t-0.5 3.5q0 12 2.5 16.5t7 6.5t11 2t16.5 2q1 2 1 4v5q0 4 -1.5 5.5t-4 2.5t-5.5 2t-5 3q-4 3 -8 7t-6 8q-5 9 -7.5 18.5t-4 19.5t-2 20t-0.5 19v15q1 2 2 2h2q3 0 4.5 -2.5t2.5 -5.5v-8.5v-13.5v-13.5v-8.5q0 -6 1.5 -9t4.5 -4t7 -1h9h10v7
t0.5 10.5t0.5 10.5v7v0v1q0 6 -1.5 14t-1.5 15zM99 170q0 -4 2 -8.5t5 -9t7 -7.5t9 -3h1.5t1.5 1q1 7 1 11v10v8q0 1 -1.5 2t-3.5 1h-1q-1 0 -4.5 -0.5t-6 -0.5t-5 -0.5l-2.5 -0.5q-2 0 -2.5 -0.5t-0.5 -2.5zM136 152v-10l1 -0.5t2 -0.5q2 0 5.5 2.5t7 6t6 7.5t2.5 6v2.5
t-1 3t-1.5 2.5t-1.5 1h-16q-2 0 -3 -3t-1.5 -6.5t0 -6.5t0.5 -4zM87 50h2t2 1v24l0.5 0.5t1.5 0.5v0.5t1 0.5v-0.5v-0.5q1 0 3 -2l2 -2v-19l0.5 -0.5l1.5 -1.5v0q4 0 7 2t5.5 4.5t5.5 4.5t7 2q0 -6 -4 -9.5t-8.5 -6.5t-8.5 -5.5t-4 -6.5v-17q0 -1 -1 -1.5t-2 -1.5t-2 -1.5
t-2 -0.5l-1 1l-2 2q0 5 -0.5 11.5t-3.5 10.5q-2 3 -6.5 7t-10 8.5t-10 9t-4.5 6.5t3 2h3q5 0 8 -3.5t5.5 -7.5t5 -7.5t6.5 -3.5zM160 48q2 0 2.5 1t0.5 4v22l0.5 0.5t1.5 0.5q4 0 5 -4.5t1 -9.5q0 -6 0.5 -10.5t3.5 -4.5q4 0 7 2.5t5 5.5t4.5 5.5t5.5 2.5q2 0 2.5 -2t0.5 -4
q0 -5 -3.5 -8t-8 -5t-8.5 -5t-5 -7q0 -1 -0.5 -3.5l-1 -5l-1 -5l-0.5 -2.5q0 -1 -1.5 -2.5t-2.5 -1.5t-2.5 1t-2.5 1q0 2 0.5 4.5t0.5 5.5t-1 6t-3 5l-27 27v3q6 0 9 -2.5t5.5 -6t5 -6t7.5 -2.5z" />
</svg>
