<?xml version="1.0" standalone="no"?>
<!DOCTYPE svg PUBLIC "-//W3C//DTD SVG 1.1//EN" "http://www.w3.org/Graphics/SVG/1.1/DTD/svg11.dtd" >
<svg xmlns="http://www.w3.org/2000/svg" xmlns:xlink="http://www.w3.org/1999/xlink" version="1.1" viewBox="-10 0 266 256">
   <path fill="currentColor"
d="M52 243q0 2 0.5 3.5t3.5 2.5h12q19 0 38.5 -2t39.5 -2h6l46 -1q2 0 2 -2v-3q0 -2 -0.5 -3.5t-3.5 -2.5h-4h-6.5h-6.5h-4q-30 0 -59.5 2t-59.5 2q-3 1 -3.5 2.5t-0.5 3.5zM118 98q-5 3 -9.5 3.5t-8 0.5t-7.5 2t-8 8q-1 2 -2 5t-1 5v70q0 1 0.5 2t0.5 2q6 6 10.5 11t12.5 5
h41l18 -5l2.5 -2.5l3 -3t2 -4t1.5 -3.5q0 -1 0.5 -4l1 -6t1 -5t0.5 -3v-53q0 -2 -1 -5.5t-2.5 -7.5t-4 -7t-5.5 -3zM91 172q0 -7 1 -9.5t3.5 -3.5t6 -0.5t9.5 0.5q2 0 9.5 -0.5t16 -1.5t16 -1.5t9.5 -0.5h4v10.5t-1 13.5t-3 12.5t-5 8.5q-8 2 -16.5 1.5t-16.5 -0.5h-19
q-5 -1 -7.5 -4t-4 -7.5t-2 -9t-0.5 -8.5zM92 138v-2v-5t0.5 -6t0.5 -5v-2l4 -3q0 -1 2.5 -1.5t6 -1l7 -1t5.5 -0.5h2.5h5.5h7h5h4h6h7h4q2 3 3 7t2 8.5t1 9v7.5v1q-6 3 -15.5 4t-19 1.5t-18.5 0.5h-17q-1 0 -1.5 -1.5t-1 -4t-0.5 -4.5v-2zM82 54q3 0 3 3v36q0 2 1.5 2h1.5h3
t2 -2v-32q0 -2 1 -3t2 -1q4 0 8.5 3l9 6t10 5.5t11.5 2.5h2h2l22 -23v-1h1q1 0 2 0.5t1 1.5v3q0 1 0.5 3t0.5 4v2q0 6 -1 10.5t-1 10.5v3t3 1t4.5 -1t2 -2.5t1 -4t0.5 -4.5q0 -1 0.5 -4.5t0.5 -7.5t0.5 -7.5t0.5 -5.5l1 -1t2 0q4 1 8 4.5t7.5 7.5t7.5 7.5t7 3.5q2 0 3.5 -3
t1.5 -4q0 -7 -6 -12t-13 -9t-13 -6.5t-6 -3.5v-1v-2.5t0.5 -4t0.5 -4t1 -2.5v-3q0 -3 -2 -4.5t-5 -1.5q-4 0 -5 3t-1 7.5t-0.5 8.5t-3.5 6q-5 4 -9 7t-7.5 5.5t-7 6t-7.5 8.5h-5q-1 -1 -2.5 -3l-3 -4t-3.5 -3.5t-3 -2.5q-2 -2 -6 -3t-7 -2.5t-5.5 -4t-2.5 -7.5q0 -3 1 -6
t1 -6v-1q-1 -4 -2 -5.5t-6 -1.5v0q-2 1 -2.5 3t-1 4.5t-0.5 4.5v3v14q-3 -1 -6 1t-6.5 4.5t-6.5 5t-5 4.5l-3 3t-5 4.5t-5 4.5l-3 3l-2 3v1q0 2 1.5 2.5t2.5 0.5q3 0 8.5 -3t10.5 -7.5t9.5 -9t6.5 -7.5h1h1z" />
</svg>
