<?xml version="1.0" standalone="no"?>
<!DOCTYPE svg PUBLIC "-//W3C//DTD SVG 1.1//EN" "http://www.w3.org/Graphics/SVG/1.1/DTD/svg11.dtd" >
<svg xmlns="http://www.w3.org/2000/svg" xmlns:xlink="http://www.w3.org/1999/xlink" version="1.1" viewBox="-10 0 266 256">
   <path fill="currentColor"
d="M175 249q0 1 1.5 1.5t2.5 0.5q4 0 5 -2.5t1 -5.5q0 -4 -3 -11t-8 -14.5t-10 -14t-9 -7.5q-11 -2 -21.5 -2.5t-20.5 -1.5q-2 0 -5 -0.5t-6.5 -0.5t-6.5 -0.5t-5 -0.5l-3 -1v-1.5v-2.5q0 -2 0.5 -4t2.5 -3q2 0 5 -1t6.5 -1.5t6.5 -1t5 -0.5h9.5h14.5h15.5h10.5
q7 -1 11 -5.5t4 -12.5q0 -6 -0.5 -9.5t-2 -5.5t-5.5 -3t-11 -1h-75q-1 0 -3 1.5t-2 2.5l0.5 0.5l0.5 0.5l0.5 1t0.5 2h9q7 0 13 -1t12 -1q2 0 4 0.5t3 3.5v2v3q0 8 -3.5 11.5t-8.5 4t-11 0t-11 0.5t-8.5 4.5t-3.5 11.5q0 5 1 7t2.5 3.5t4.5 2.5t6 3q3 0 8.5 0.5t11.5 1
t11.5 0.5t8.5 1h4h6.5t6 0.5t3.5 0.5q3 2 6 5.5t5.5 7.5t4.5 8t4 7q1 1 3 3.5l2 2.5v2.5v3.5v3.5v1.5zM131 165v-17q0 -1 2.5 -2.5t3.5 -2.5h3h3h3h2h5.5t5 0.5t5 1.5t3.5 3v6q0 4 -1 7.5t-7 3.5h-28zM173 122q1 1 5 5.5t8.5 9t9 8t5.5 3.5q3 1 4.5 -1.5t1.5 -4.5
q0 -3 -3 -7t-7.5 -8.5t-10 -9t-11 -8.5t-9.5 -7.5t-7 -6.5t-5.5 -8t-6 -9t-8 -7t-9.5 -3h-1q-1 0 -1 1q-10 11 -22 19.5t-23 19.5q-1 0 -3.5 2.5l-5.5 5.5l-5.5 5.5l-3.5 3.5l-3.5 2.5l-7 5t-6.5 4.5t-3 3v3v3h2h5q2 0 4.5 -0.5t4.5 -2.5l37 -34q2 -5 5.5 -8.5t9.5 -3.5
q0 -1 2.5 -3.5l5 -5l4.5 -4.5l3 -3l1.5 -0.5t1.5 -1.5h1h1l12 16l3 2zM101 114q0 3 4 5h8h9q2 0 6 -0.5t9 -1t9.5 -1t6.5 -1.5v-0.5v-0.5q0 -3 -3 -5h-13h-9h-7.5t-8 0.5t-9.5 1.5q-2 0 -2 3zM89 50q1 8 1.5 17t0.5 17q1 0 2.5 -1t3 -2.5l3 -3t1.5 -2.5v-26q5 0 7.5 2
t4.5 3.5t4.5 3.5t5.5 2q2 0 3.5 -0.5t1.5 -3.5q0 -5 -3.5 -8t-8 -5.5l-9 -5t-6.5 -6.5v-4v-6.5t-1.5 -6t-5.5 -2.5l-1 1l-2 1t-2 2v17l-1.5 1.5t-4 3t-5 3.5t-3.5 3l-6 3t-7.5 4.5t-6 5t-2.5 6.5q0 2 1 4t3 2q5 0 8.5 -3.5t6.5 -7l6 -7t8 -3.5q1 0 1.5 0.5zM167 75l0.5 0.5
t1.5 0.5v1q6 0 7.5 -4t1.5 -9q0 -3 -0.5 -6.5t-0.5 -7.5v-3.5t3 -1.5q4 0 7.5 3t6 6t5.5 6t7 3q2 0 3.5 -2.5t1.5 -5.5v-1v-1q-4 -5 -7 -7.5t-7 -5l-8 -5t-9 -5.5q-3 -2 -3.5 -5t-0.5 -6t-1.5 -5.5t-5.5 -2.5q-2 0 -3.5 2t-2 4.5t-0.5 5.5v4l-26 28v0v2q0 3 1.5 3.5t3.5 0.5
q3 0 6 -2.5t5.5 -6l5 -7t4.5 -4.5q1 0 2 2.5t1.5 5.5t0.5 6v4v16z" />
</svg>
