<?xml version="1.0" standalone="no"?>
<!DOCTYPE svg PUBLIC "-//W3C//DTD SVG 1.1//EN" "http://www.w3.org/Graphics/SVG/1.1/DTD/svg11.dtd" >
<svg xmlns="http://www.w3.org/2000/svg" xmlns:xlink="http://www.w3.org/1999/xlink" version="1.1" viewBox="-10 0 266 256">
   <path fill="currentColor"
d="M115 207q-4 2 -7 8t-5.5 13t-3.5 14.5t-1 11.5q6 0 8.5 -3t3 -7.5t1 -9.5t2 -9.5t6 -8t14.5 -4.5h2h2q2 -1 5.5 -1.5t8 -1.5t8.5 -1.5t6 -0.5q8 -2 12 -8t5.5 -14t1.5 -16v-14q0 -5 0.5 -10t0 -10t-1.5 -10t-5 -9h-16q-14 0 -28.5 0.5t-28.5 2.5q-1 1 -1 1.5v1.5v2t1 1
q2 0 6 0.5t6 0.5q13 0 25.5 -2t25.5 -2q2 0 3.5 0.5t3.5 2.5v15q0 13 -0.5 26.5t-4.5 25.5q-2 3 -6 5t-8 3.5t-8.5 2.5t-8.5 1q-2 0 -4.5 0.5t-6 0.5h-6.5h-4l-1.5 1.5t-1.5 0.5zM75 156v4q1 4 1 8t0.5 8t2.5 7t7 4q4 2 7.5 2.5t6.5 1t6.5 0.5h7.5q9 0 16 -0.5t11.5 -2.5
t7 -7.5t2.5 -15.5v-3q0 -3 -0.5 -5.5t-1.5 -4t-3 -1.5t-3 1.5l-2 3t-2.5 3t-4.5 1.5q-1 0 -3 -0.5t-3 -0.5h-30l-11 -2q-1 0 -1.5 -1.5t-1 -2.5l-1 -2t-3.5 -1v0v0q-1 0 -2.5 0.5t-2.5 0.5v5zM86 172q0 -1 0.5 -2t2.5 -2q11 -1 21.5 -1.5t21.5 -0.5h3.5h3.5l3 2v1v2
q0 4 -0.5 7t-5.5 3q-1 0 -4 0.5t-7 1l-8 1t-5 0.5h-2h-7t-8 -1.5t-6.5 -4t-2.5 -6.5zM93 100q-1 0 -2.5 1t-3 2.5l-2.5 2.5t-1 3v22q0 5 4 8.5t9 3.5h61q1 0 1.5 -1t0.5 -2q0 -2 -2.5 -3t-4.5 -1h-4.5t-3.5 1q-1 0 -4 0.5t-5 0.5h-6h-3h-16q-7 0 -14 -2q-3 -2 -4 -4t-1.5 -5
t0 -6t0.5 -5q0 -4 1.5 -5.5t4.5 -2.5l6 -2l6 -2q2 0 7 -0.5t11 -1t11 -1t7 -0.5h9q4 0 8.5 -1t7.5 -3.5t3 -8.5q0 -4 -1 -8.5t-5 -6.5q-8 -2 -14.5 -2h-14.5q-16 0 -31.5 2t-30.5 1q-3 1 -4 2.5t-1 3.5t1 2.5t4 0.5q10 0 21 -2t23 -2q1 0 4.5 -0.5t8 -0.5t8 -0.5t4.5 -0.5
h3.5t5 0.5t5 0.5t3.5 1v2v3q0 7 -3.5 9t-10.5 2q-1 0 -5.5 0.5t-9.5 0.5t-9.5 0.5t-5.5 0.5t-5 0.5l-8 1t-7.5 0.5t-5.5 1zM90 63l2 3q3 0 4.5 -3t1.5 -6v-15l0.5 -0.5t1.5 -0.5v0q2 0 5 1.5t5.5 4l4.5 4.5l3 3h1h1q2 0 3.5 -0.5t1.5 -2.5v-1.5v-1.5q-3 -4 -6 -6t-5.5 -4
t-6 -3.5t-6.5 -4.5q-1 0 -2.5 -1.5l-1.5 -1.5v-14l-5 -2l-2 1v17l-0.5 0.5l-0.5 0.5q-1 0 -2.5 0.5t-2.5 1.5t-4.5 3t-7.5 5t-7.5 5t-4.5 3q-2 2 -3 4t-1 4q0 3 3 3q4 0 7.5 -3t7 -6.5l6.5 -6.5t7 -4q1 0 2 0.5t1 1.5v22zM158 56q0 1 0.5 3t2.5 2q5 0 6 -4t0.5 -8t0 -7.5
t4.5 -3.5t7 2.5t5 5.5t4.5 5.5t4.5 2.5t4 -1t2 -3q-2 -4 -5 -7t-6 -5.5t-7 -4.5t-7 -4q-2 -2 -4.5 -3.5l-2.5 -1.5v-13q0 -2 -2 -2h-3h-2t-2 2v7t-1 7q-3 2 -6.5 4.5t-7 5.5t-6.5 6.5t-4 6.5v1q0 2 1 2.5t2 0.5t1.5 -0.5t1.5 -0.5l1.5 -1.5l3 -3l2.5 -2.5l2 -2
q2 -1 4.5 -3.5t4.5 -2.5h0.5h0.5q1 1 1.5 4t0.5 4v0.5v0.5q0 3 -1 5.5t-1 5.5z" />
</svg>
