<?xml version="1.0" standalone="no"?>
<!DOCTYPE svg PUBLIC "-//W3C//DTD SVG 1.1//EN" "http://www.w3.org/Graphics/SVG/1.1/DTD/svg11.dtd" >
<svg xmlns="http://www.w3.org/2000/svg" xmlns:xlink="http://www.w3.org/1999/xlink" version="1.1" viewBox="-10 0 266 256">
   <path fill="currentColor"
d="M177 244q0 3 2 4.5t5 1.5q4 0 6.5 -3.5t2.5 -7.5v-69q0 -13 -4 -19t-9.5 -8.5t-12.5 -2t-13 0t-9.5 -3.5t-3.5 -10v-4t1 -4q5 -1 11.5 -1.5t13 -1.5t11 -3t6.5 -6l1.5 -7.5t1 -4.5t0.5 -4.5v-5.5v-4.5v-4.5q-1 -3 -3.5 -5.5t-5.5 -2.5q-2 0 -3.5 1.5t-2 4t-0.5 5t1 3.5
q-2 2 -6.5 2.5t-10 0.5h-10.5t-8 2q-4 0 -12 0.5t-17.5 1t-18 1t-11.5 0.5t-6.5 0.5t-3.5 5.5q0 1 0.5 2t1.5 1h7q10 0 20 -1.5t21 -1.5h4h3q3 1 3.5 3t0.5 4q0 3 -0.5 5t-4.5 2q-3 0 -10 0.5t-14.5 1.5t-14.5 1.5t-10 1.5h-4.5t-4.5 1t-3.5 2t-1.5 3v2.5t1 1.5h4h4
q7 0 13.5 -1l13 -2t13.5 -2t13 -1q2 0 4 1.5t2 3.5v23q-2 1 -3 2t-1 2.5v3v3.5v3t-0.5 3.5t-0.5 3v1.5h-30q-2 0 -2 -3t-0.5 -6t-2 -6t-4.5 -3q-2 0 -2.5 0.5l-1.5 1.5v6v6v3v3v3.5v1.5q0 3 0.5 8t1 11.5t1 12t1.5 7.5q1 5 5 7t10 2v0q2 0 5 -0.5t6.5 -0.5t6.5 -0.5t4 -0.5
q2 -1 4.5 -2l5 -2t4.5 -2.5t2 -3.5q2 -8 2 -14v-14t-0.5 -16.5t-2.5 -17.5q0 -2 2 -2h3h2q2 0 2 1h1.5h3t3 0.5l1.5 0.5h9t7.5 1t5.5 4t2 9v64q0 5 -1.5 8.5t-1.5 7.5zM93 187q1 -1 1.5 -2.5t2.5 -2.5q3 0 6 -0.5t5.5 -0.5h5h6.5h5q4 2 5 6q-1 7 -2 11.5t-3 7.5t-6.5 4.5
t-13.5 1.5q-5 0 -7 -3t-3 -7t-1.5 -8t-0.5 -7zM139 101q0 -4 3.5 -5.5t8 -2t9 -0.5h6.5q3 0 4 1.5t1 3.5t-0.5 3l-1.5 3q-7 1 -12.5 2t-11.5 1h-4q0 -1 -1 -2.5t-1 -2.5v0v-1zM88 47v30q5 0 8 -3t4 -7.5t0.5 -9.5t-0.5 -9l1 -1h1.5t3 0.5t3 1.5t2.5 1l2.5 1.5t5 2.5l5 2
l2.5 1q1 1 2.5 1h2.5h1.5t2.5 -1t4 -3.5l6 -5t6 -4t6 -1.5v30q6 0 11 -5v-3.5v-5.5v-5.5v-3.5t0.5 -3.5l0.5 -2.5h10l1.5 1t4 2.5t4.5 3t4 2.5t2.5 2l0.5 1h1h2t4.5 -1t2.5 -3q0 -3 -2.5 -6t-4.5 -4q-1 -1 -5.5 -3t-9.5 -4t-9.5 -4t-5.5 -2v-15l-2.5 -1.5t-3.5 -2.5
q-3 -1 -4 1t-1.5 5.5t-0.5 6.5t-1 4l-1.5 1.5t-3 3.5t-3.5 3.5t-3 2.5q-2 3 -7 6t-9 3t-8 -1.5t-7.5 -3.5t-7 -4.5t-6.5 -4.5q-2 -2 -2 -5v-6.5t-1.5 -5t-4.5 -2.5h-3t-2 2q1 7 -1 11.5t-6 8t-8.5 6l-9 5t-7.5 5t-3 6.5q0 2 1.5 4t3.5 2q4 0 7.5 -3t6 -6t6 -5.5t7.5 -2.5h4z
" />
</svg>
