<?xml version="1.0" standalone="no"?>
<!DOCTYPE svg PUBLIC "-//W3C//DTD SVG 1.1//EN" "http://www.w3.org/Graphics/SVG/1.1/DTD/svg11.dtd" >
<svg xmlns="http://www.w3.org/2000/svg" xmlns:xlink="http://www.w3.org/1999/xlink" version="1.1" viewBox="-10 0 266 256">
   <path fill="currentColor"
d="M116 244v1l2 4t3 2q4 0 5.5 -3.5t2 -8.5t0.5 -11t0.5 -11t2 -9t5.5 -5l2 -0.5t4.5 -1l5 -1l2.5 -0.5q4 -1 8.5 -2t7.5 -3q7 -5 11.5 -14t7 -19t3 -20t0.5 -18q0 -13 -1.5 -22t-6 -15t-12.5 -8.5t-22 -2.5q-1 0 -3 0.5t-4 0.5t-3.5 1t-1.5 3q0 3 2 2.5t4 0.5q2 0 5.5 0.5
t7.5 1t8 0.5t5 1q6 1 8.5 5.5t3 10t0.5 11.5v10q0 6 -1 15t-3 18.5t-5.5 17.5t-8.5 12q-4 3 -8.5 4.5t-8.5 2l-8 1t-7.5 3t-6 6t-3.5 10.5v4.5t-0.5 8.5t-1.5 9.5t-1 7.5v0zM79 190q3 2 6.5 3t6 1.5t5.5 1t7 0.5h4t4 -1l0.5 -1l0.5 -1q0 -1 -0.5 -1t-0.5 -1q-2 -1 -3.5 -1.5
t-3.5 -0.5h-4t-5 -1q-8 -2 -12 -8.5t-5.5 -15t-1.5 -17.5v-15q0 -15 1.5 -24t6 -15t14 -8.5t25.5 -3.5q1 -1 4 -3t3 -4l-2 -15q0 -2 -2 -2h-2h-3q0 2 -0.5 4.5t-1 5.5t-1.5 5t-3 3q-17 1 -27 4.5t-14.5 11t-5.5 18.5t-1 28v9t0.5 7.5t0.5 7t1 8.5q0 3 1 6l2 6t2.5 5.5
t3.5 3.5zM103 140q0 6 1 11.5t3 9.5t6.5 6.5t11.5 2.5q5 0 8.5 -0.5t8.5 -1.5q5 -4 7.5 -9.5t3 -11.5t0.5 -12v-12q0 -12 -6 -16.5t-18 -4.5q-10 0 -15 3t-7.5 8t-3 11.5t-0.5 15.5zM112 142v-1.5v-1.5l4 -2h25l1 2q1 0 1 2v3q0 8 -2.5 13t-11.5 5t-13 -5.5t-4 -14.5z
M112 129v-3q0 -8 5 -12t12 -4t11 2t4 9q0 4 -2 6.5t-6 2.5h-2h-5t-6.5 -0.5t-6.5 -0.5h-4zM85 36h1l0.5 0.5l0.5 0.5v32q5 0 6.5 -4.5t1.5 -10t1 -10t5 -4.5q2 0 3.5 1.5l3.5 3.5l4 4l3 3v0h1l3 -2v-3q0 -4 -1.5 -6.5t-4.5 -4t-6.5 -3t-6.5 -3.5q-2 -2 -2.5 -5.5t-0.5 -7.5
q0 -3 -1 -6t-5 -3h-2q0 3 -0.5 8.5t-2.5 9.5q-8 4 -14.5 9.5t-11.5 11.5q0 1 -0.5 1.5t-0.5 1.5q0 2 1 2.5t4 0.5q1 0 2.5 -0.5l1.5 -0.5l16 -16h1zM158 36v32q5 0 6.5 -4.5t2 -10t1 -10.5t2.5 -5t4 1t3 3q1 0 3 2l4 4l4 4t2 3h1.5h1.5q3 0 3 -4v-1v-1q-6 -7 -13 -13
t-15 -10v-16l-2 -0.5t-3 -1.5h-1h-1q-1 1 -1.5 2.5t-0.5 3t0.5 3l0.5 1.5q-1 4 -5 8t-9.5 7.5t-9.5 7.5t-4 8q0 2 1 2.5t3 0.5q3 0 5.5 -2.5t4.5 -5.5t4.5 -5.5t6.5 -2.5h1z" />
</svg>
