<?xml version="1.0" standalone="no"?>
<!DOCTYPE svg PUBLIC "-//W3C//DTD SVG 1.1//EN" "http://www.w3.org/Graphics/SVG/1.1/DTD/svg11.dtd" >
<svg xmlns="http://www.w3.org/2000/svg" xmlns:xlink="http://www.w3.org/1999/xlink" version="1.1" viewBox="-10 0 266 256">
   <path fill="currentColor"
d="M121 126v72q0 1 1.5 2t3.5 2l4 2t3 1h45q4 0 5.5 4t2 9.5t0.5 12v12.5t1 10t4 4q4 0 5.5 -2t2.5 -5t1 -6v-5q0 -1 -0.5 -2.5t-0.5 -2.5q-1 -5 -2 -12t-2.5 -12.5t-4.5 -9.5t-10 -4h-7t-11 -0.5t-11 -0.5h-7h-8q-1 0 -2 -0.5t-1 -1.5q-1 -1 -1.5 -4t-0.5 -5.5v-5v-3.5v-2
v-3v-4v-2q0 -1 0.5 -1.5t1.5 -0.5t5 -0.5t5 -0.5h32h4t6 -0.5t5.5 -0.5t3.5 -1q2 0 2 -2v-3v-3.5t-3 -1.5q-12 0 -23.5 1t-23.5 1h-12q-1 -1 -1 -2v-2q0 -3 4 -8t9.5 -10.5t11 -9.5t6.5 -4h1.5h0.5l17 16q0 1 1.5 1.5t2.5 0.5h1v0q2 -2 3.5 -3t1.5 -3v-1q-6 -7 -13 -11.5
t-12 -10.5q0 -4 0.5 -9.5t0 -10.5t-2 -10t-5.5 -7q1 -2 2 -6.5t1.5 -9.5t1.5 -8.5t3 -3.5q1 0 2.5 1t3.5 2.5t4 2.5l2 1q1 1 2.5 2t3 2.5l3 3l1.5 1.5h1.5h0.5q2 0 4 -2t2 -5v0l-2 -2l-2.5 -2.5t-3 -2.5t-1.5 -2q-1 -1 -4.5 -3t-7.5 -4.5t-7.5 -4.5t-4.5 -1v-5.5t-0.5 -5
t-2 -4t-5.5 -1.5h-2.5t-0.5 3q-1 7 -2 10t-3 5.5t-5 5t-8 7.5q-1 0 -2 1.5t-3 3t-3.5 3t-1.5 2.5v1q0 1 1 1.5t2 0.5q3 0 5 -1.5t4.5 -4t4.5 -4t4 -1.5q3 0 4.5 1t2.5 4q-1 6 -0.5 10.5t1.5 8t2 7.5t1 9q0 8 -1.5 14t-4.5 10.5t-7 9.5t-10 10h-1q-2 0 -2.5 -1t-1 -3t-0.5 -3
v-3q0 -9 1 -17.5t1 -17.5q0 -2 -0.5 -5t-3.5 -3q-2 0 -3.5 1.5l-3.5 3.5q0 2 0.5 7t0.5 10q0 6 -0.5 11t-0.5 7v2.5v3.5t-0.5 3.5t-0.5 2.5zM96 137q-3 10 -3.5 20t-0.5 20v20v20q0 1 -0.5 4t-0.5 7v7v4q2 0 5 -0.5t4 -2.5q0 -26 0.5 -52.5t2.5 -53.5l2 -14t1 -14v-6
t-0.5 -5.5t-2.5 -4.5t-5 -3h-3h-4.5h-4.5h-3h-3h-4.5h-4.5h-1q-4 0 -7.5 1t-3.5 5q0 2 0.5 3t3.5 1h2h1.5t2.5 -0.5t2 -0.5h1q2 0 3 1.5t1 2.5q0 5 -1.5 10.5t-2.5 10.5q-1 22 -2.5 44t-2.5 44q0 1 -0.5 3t-0.5 4.5t-0.5 4.5t-0.5 3l-0.5 1t-0.5 2l0.5 1t0.5 2.5t0.5 2.5
t1.5 2q0 1 0.5 1.5l0.5 0.5h1q4 0 5.5 -5.5t2 -12.5t0.5 -13.5v-9.5v-5v-6l1 -1q0 -18 1.5 -35.5t3.5 -35.5v-5t0.5 -5.5t2 -4t5.5 -1.5h1t2.5 0.5t1.5 1.5v42zM86 70q0 3 3 3q1 0 3.5 -2.5t2.5 -3.5v-21q0 -1 1.5 -1h2.5q2 0 4 1.5t4 3.5t4 3.5t4 1.5q3 0 3 -2v-4
q0 -5 -2.5 -7.5t-6.5 -4.5l-7 -3.5t-4 -4.5q-1 -1 -1 -5t-0.5 -7.5t-2 -6.5t-4.5 -2q-2 1 -2 3q0 3 0.5 6.5t0.5 6.5t-2 5q-1 1 -5.5 4t-9 6.5l-9 7t-6 4.5t-1.5 1.5v2.5q0 3 1.5 4t3.5 1q4 0 7 -2.5t5.5 -6t5 -6t6.5 -2.5q2 0 3 2t1 3v1q-2 5 -2.5 10.5t-0.5 10.5z" />
</svg>
