<?xml version="1.0" standalone="no"?>
<!DOCTYPE svg PUBLIC "-//W3C//DTD SVG 1.1//EN" "http://www.w3.org/Graphics/SVG/1.1/DTD/svg11.dtd" >
<svg xmlns="http://www.w3.org/2000/svg" xmlns:xlink="http://www.w3.org/1999/xlink" version="1.1" viewBox="-10 0 266 256">
   <path fill="currentColor"
d="M106 183q0 9 -1 17.5t-2.5 17t-2.5 17.5t-1 17q5 0 8 -1t5 -6q-1 -16 0.5 -32t0.5 -33q2 -4 5.5 -5t8 -1.5t8.5 0t6 0.5h1h1q1 1 2.5 1t1.5 1v45q1 1 1.5 4t0.5 4v2q0 3 -1 6.5t-1 6.5t4 3q5 0 6.5 -3t1.5 -7q0 -12 -1.5 -24t-1.5 -24v-3v-3.5v-2.5v-1l2 -3h9.5h11.5
t11.5 -0.5t10.5 -1.5q2 0 2 -3q0 -2 -2.5 -3.5t-4.5 -2.5h-8q-32 0 -63.5 2t-63.5 1q-2 1 -4.5 2.5t-2.5 3.5t2 3.5t4 1.5q9 0 19 -2t20 -2q1 0 3 0.5t4 1.5v3v3zM95 149q3 2 6 2t6 0.5t5.5 0.5t5.5 2h2.5h4.5h4h3h7t8 -0.5t8 -1.5t7 -3q5 -3 6 -11t1.5 -17t1 -15.5
t3.5 -6.5h24q1 0 3.5 -2t2.5 -3l-0.5 -1t-1.5 -2l-0.5 -0.5l-0.5 -0.5h-27q-2 0 -2 -2t-0.5 -5t-1.5 -6t-3 -4v-10q0 -2 -0.5 -5t0 -6t2 -5t4.5 -2t6 1.5t6 3.5t6 3.5t7 1.5q2 0 3.5 -1t1.5 -3q0 -4 -5.5 -7t-11.5 -6t-11.5 -5t-5.5 -4v-15q0 -1 -1 -1h-3q-3 0 -4.5 1.5
t-1.5 4v5.5v5q-1 2 -5 5.5t-9 7t-10 6.5t-8 3q-1 0 -5.5 -3.5t-10 -7t-10 -6.5t-4.5 -4v-11q0 -1 -1.5 -2l-1.5 -1q-1 0 -2.5 0.5t-2.5 0.5q0 1 -0.5 1.5l-0.5 0.5v16q0 1 -5.5 4t-12.5 7t-12.5 8t-5.5 8v1l0.5 1t1.5 1h3q5 0 8 -2.5t6 -5.5t6 -5.5t7 -2.5q2 0 3 0.5t1 2.5
q0 1 0.5 3.5t0.5 5.5v5v3q1 2 1.5 2h1.5q2 0 3.5 -1.5t1.5 -2.5v-18q0 -2 3 -2h2q2 0 5 1t6.5 2.5t6.5 2.5t5 2l1 1.5t2 1.5h1h2q4 0 6.5 -2t5 -4.5t5.5 -4.5t6 -2h2t2 1v23q4 2 4.5 5t0.5 6q0 1 -0.5 3t-0.5 4t-1.5 4t-2.5 2h-58l-3 -3v-12q-4 0 -6.5 1t-2.5 5q0 2 0.5 3.5
t0.5 2.5v1q0 1 -1 2t-2 1h-28q-3 0 -3.5 1t-0.5 3t1 3t3 2t4 1.5t4 0.5q4 0 8 -1t8 -1h6l3 3q0 11 0.5 22t3.5 21zM113 143q0 -2 1.5 -4.5t4.5 -4.5t5.5 -3.5t5.5 -1.5q1 0 4 2t6 4.5t5.5 5t2.5 3.5l-0.5 0.5l-0.5 0.5q-4 2 -9.5 2h-8.5h-3h-3h-4h-3q-2 0 -2.5 -1.5
t-0.5 -2.5zM138 125q0 -2 0.5 -2t1.5 -1t3 -2.5t4.5 -3.5t4.5 -3.5t3 -2.5h0.5h0.5q2 0 2.5 0.5t0.5 2.5v21l-2 1.5l-2 1.5h-1q-1 0 -4 -1.5t-5.5 -3.5t-4.5 -4t-2 -3zM100 113h4l2 1t4 2.5l4 3t4 2.5l0.5 0.5l0.5 0.5q0 3 -1.5 5t-4 3.5t-5 2.5t-4.5 1q-1 0 -2.5 -1.5
t-1.5 -2.5v-18zM103 103q0 -1 0.5 -2t2.5 -1h44q1 0 2 0.5t1 1.5h0.5h0.5l-1 1l-5 5t-6 5.5t-6.5 4t-6.5 1.5q-2 0 -6 -2t-8.5 -5t-8 -5.5t-3.5 -3.5z" />
</svg>
