<?xml version="1.0" standalone="no"?>
<!DOCTYPE svg PUBLIC "-//W3C//DTD SVG 1.1//EN" "http://www.w3.org/Graphics/SVG/1.1/DTD/svg11.dtd" >
<svg xmlns="http://www.w3.org/2000/svg" xmlns:xlink="http://www.w3.org/1999/xlink" version="1.1" viewBox="-10 0 266 256">
   <path fill="currentColor"
d="M164 178q2 0 4 3.5t4 8.5t3.5 11t2.5 12t2 10t1 5t0.5 4.5l1 7t1 6.5t0.5 5h1h1q3 0 3.5 -2.5t0.5 -4.5q0 -14 -2.5 -27.5t-6.5 -26.5q-2 -5 -3.5 -8t-1.5 -9q0 -4 2 -5.5t3 -4.5t1.5 -7t0.5 -7q0 -9 -4.5 -12.5t-11.5 -6.5q0 -3 0.5 -8t2.5 -9q7 -1 11.5 -2.5t7.5 -3.5
t4.5 -6.5t1.5 -11.5v-6q-1 -1 -2.5 -2t-2.5 -1t-1.5 0.5t-0.5 1.5v13q0 1 -2 2.5t-4.5 2.5l-5 2t-3.5 1l-1.5 -0.5t-1.5 -1.5v-56q0 -1 2 -1h2q3 0 6 1.5t6 4.5t6 5.5t4 3.5h2q2 0 2.5 -1t0.5 -3l-0.5 -1l-0.5 -1q-5 -7 -13 -13t-16 -10v-14l-1 -0.5l-1 -0.5q-1 0 -2 -0.5
l-1 -0.5l-1 -1l-0.5 0.5l-0.5 0.5l-1.5 1l-1.5 1v11q0 1 -2.5 3t-5 4.5t-4.5 5t-3 2.5q0 1 -2 3.5l-2 2.5q-1 0 -2 1t-2.5 1.5t-2.5 1.5l-1 1q-1 1 -1.5 3t-0.5 3q5 0 9 -3t7 -7t5.5 -7t6.5 -3q3 0 3 3v1v1q0 1 -0.5 4.5t-1.5 4.5v47q0 2 -2 2.5t-3 0.5t-2.5 -0.5l-3 -1
t-2.5 -1.5t-1 -2v-18l-1.5 -1.5t-2.5 -1.5h-1v0q-1 0 -1.5 2t-0.5 3q0 6 0.5 11t2.5 9t6 6.5t11 3.5v12q0 2 -2 3t-4 1h-4h-4q-7 0 -14 -0.5t-15 -0.5h-12l-1 3v1q0 3 4.5 4t11 1.5t15 0t16.5 0t14 2t8 4.5q0 1 0.5 3t0.5 3t-0.5 3.5t-1 4.5t-1.5 3.5t-3 1.5t-4.5 -1.5
l-5 -3l-5 -3t-4.5 -2.5q-1 0 -2.5 -0.5t-2.5 -0.5q-3 0 -11 -1t-16.5 -1.5t-16.5 -1t-12 -0.5h-3.5h-3.5l-1.5 -0.5t-2.5 -0.5t-2.5 -0.5l-1.5 -0.5q-2 0 -3 1.5t-1 3.5v2.5t1 1.5h9t13 0.5t13.5 0.5h8.5q4 1 11.5 1t15 1.5t13.5 3.5t6 7q0 1 -1.5 2.5l-1.5 1.5
q-2 0 -4.5 0.5t-6 0.5t-7 0.5t-4.5 0.5q-3 0 -6 0.5t-6 0.5q-9 0 -18 -1.5t-18 -1.5h-3.5h-2.5l-0.5 0.5l-1.5 1.5v0v1q1 1 1.5 2l0.5 1q11 2 22.5 2.5t22.5 0.5q9 0 19 -1.5t19 -1.5zM99 242h3t4.5 0.5t4.5 0.5h3h3h2q1 0 4 -0.5t6.5 -1t6.5 -1t4 -0.5q6 -1 8.5 -4.5
t3.5 -8.5t1 -10.5v-10.5v-3t-0.5 -4t-0.5 -4v-3q-1 -2 -2 -2.5t-2 -0.5h-2q0 1 -1.5 4.5t-1.5 4.5v2v2q0 1 -0.5 1.5l-0.5 0.5h-44v-4.5t-0.5 -5t-2 -4.5t-3.5 -3l-2 2v2v3q0 10 1 19.5t2 19.5q0 3 1.5 5t4.5 4zM99 222v-2.5v-3.5q1 -2 5.5 -3t10 -2t10.5 -1h6h4t4 1t3 2
t1 3q0 3 -0.5 6t-2 5.5t-3.5 4.5t-5 2h-27q-1 0 -3 -2.5t-3 -3.5v-2.5v-3.5zM62 78q0 10 2 15.5t5 8.5t6 4t5.5 1.5t4.5 1.5t2 3v22q5 0 6 -3t1.5 -7.5t0.5 -8.5t3 -6q12 -1 18 -7.5t6 -17.5v-6t-4 -3q-2 0 -3.5 0.5t-1.5 2.5q0 1 -0.5 3t-0.5 4t-0.5 4t-0.5 3q0 2 -1 4.5
t-4 3.5l-1.5 -0.5t-3 -0.5t-3 -0.5l-1.5 -0.5v-28q-1 0 -3.5 0.5t-3.5 0.5l-1 0.5t-1 1.5v27h-13l-2 -2v-3t-0.5 -4.5t-0.5 -4.5v-3l-0.5 -2t-1.5 -3.5t-1.5 -3t-1.5 -1.5q-3 0 -4 1.5t-1 3.5zM86 41h0.5h0.5l0.5 1t0.5 2v19q0 2 1.5 2h2.5q2 0 2.5 -1.5l1.5 -4.5
q1 -1 1 -3.5v-5.5t0.5 -5.5t0.5 -3.5h0.5h0.5q3 0 6 2t5 4.5t4.5 5t5.5 2.5q5 0 5 -5q0 -3 -4 -6t-9 -6t-9.5 -5.5t-4.5 -5.5q-1 -2 -0.5 -4.5t0 -5t-1.5 -4t-5 -1.5q-1 0 -2.5 1.5t-1.5 2.5t-0.5 3t-0.5 4v4v3q-3 3 -8 6t-10 6.5t-8.5 7t-3.5 8.5q4 0 8 -1.5t8 -4t7 -5.5
t7 -6v0v0zM92 15q1 0 1 2q0 1 -1 1q-2 0 -2 -1q0 -2 2 -2z" />
</svg>
