<?xml version="1.0" standalone="no"?>
<!DOCTYPE svg PUBLIC "-//W3C//DTD SVG 1.1//EN" "http://www.w3.org/Graphics/SVG/1.1/DTD/svg11.dtd" >
<svg xmlns="http://www.w3.org/2000/svg" xmlns:xlink="http://www.w3.org/1999/xlink" version="1.1" viewBox="-10 0 266 256">
   <path fill="currentColor"
d="M55 218q0 2 1.5 7.5t4 11t5.5 10t5 4.5q3 0 4 -2t1 -4q0 -4 -2 -7.5l-4 -7l-4 -7t-2 -7.5q0 -3 2.5 -6t5.5 -5.5t6.5 -4.5t6.5 -2q2 0 4.5 3t4.5 8t4 10.5t4.5 10t5.5 7.5t7 3t4 -4q0 -3 -2.5 -7t-5.5 -8l-6 -8t-5 -8l-3 -2v-1.5v-1.5v-2.5v-2.5l0.5 -1l1 -2l1 -2l0.5 -1
l0.5 -2.5t0.5 -5.5t0.5 -5.5t0.5 -3.5q0 -3 3.5 -4t5.5 -2q1 0 2 -0.5t1 -1.5q3 -2 4.5 -6.5t2.5 -8.5t1 -8.5v-8.5q0 -9 -0.5 -15t-3 -9.5t-7.5 -5t-15 -2.5v-13q0 -1 -2.5 -1h-2.5h-3.5t-2.5 1v14l-0.5 0.5l-1.5 1.5q-3 2 -7.5 2.5t-7.5 0.5q-2 3 -3.5 5.5t-2.5 4.5
t-1.5 4.5t-0.5 7.5v2.5v5.5v6v4v3v4v3.5v1.5l1 3q0 1 2 2t4 2.5t4 2.5t3 1q2 1 5.5 0.5t7 0t5.5 2t2 6.5q0 3 -1 6t-4 5q-7 1 -13 3t-10.5 5t-7.5 8.5t-3 12.5zM189 248l0.5 0.5l0.5 0.5h0.5h0.5q3 0 4.5 -2.5t2.5 -7.5t1 -10t0.5 -10t0.5 -9v-5q0 -14 -4 -21.5t-10.5 -11
t-13 -4t-13 -1.5t-10.5 -3t-4 -7q0 -9 5.5 -13t13.5 -5.5t16.5 -1.5t14.5 -2q2 -1 3.5 -4t2.5 -6.5t1.5 -7t0.5 -5.5q0 -7 -2 -10.5t-5.5 -5.5t-8 -2h-10.5q-3 0 -10.5 -0.5t-14.5 0t-12.5 2t-5.5 5.5t4 4h1q1 -1 3 -1.5t4.5 -1l5 -1t3.5 -0.5v0h1l1 0.5t1 1.5v4v3v5
q0 2 -0.5 5t-0.5 5.5t-1 3.5q-1 4 -4.5 5.5t-6.5 3t-5.5 5t-2.5 9.5q0 2 0.5 4.5t1 5.5t2 5.5t3.5 3.5q4 2 10 3t12.5 2.5t12 3t7.5 4.5q0 1 0.5 3.5t1 5.5t1 5.5l0.5 2.5v10v14v13v10zM72 158q-1 -3 -1 -5v-5v-3.5t1 -3.5q5 0 8.5 -0.5t7 -0.5h7h7.5h9q1 0 1.5 1t0.5 2
q0 5 -2.5 10t-7.5 7h-2h-3h-3h-3h-9.5t-10.5 -2zM69 127q0 -6 3.5 -9.5t8 -5.5t9.5 -2.5t10 -0.5t9.5 4t4.5 10l-0.5 3.5t-2.5 3.5q-1 0 -5 0.5t-8.5 1t-8.5 0.5h-6h-3h-4t-3.5 -0.5t-2.5 -1.5t-1 -3zM168 105l2 -2t2.5 -1.5t2.5 -0.5h1h1h1q1 0 2.5 0.5t3.5 0.5t4 0.5
l2 0.5q1 0 2 1l2 2v1v0q-1 2 -1 4.5t-1 5.5t-1.5 5t-0.5 3q-1 3 -3 3.5t-6 0.5h-3h-5h-5h-3q0 -6 1 -13t2 -11zM165 44q0 9 -0.5 17.5t-0.5 17.5q4 0 6 -2.5t3 -6t1 -7.5v-7.5t1.5 -6t4.5 -2.5t6 3l6 6t5.5 6t3.5 2q5 -2 5 -6q0 -5 -3.5 -8t-8.5 -5t-9.5 -4.5t-6.5 -5.5
v-5.5t-0.5 -7.5t-2 -7t-4.5 -3h-1l-0.5 0.5t-1.5 0.5q1 12 -4.5 19.5t-12.5 12t-12.5 8.5t-5.5 10q0 3 2 3q3 0 5 -1.5t3.5 -3.5l3 -4t3.5 -4q1 -1 3 -2.5t3.5 -3t3 -2.5l1.5 -1h4zM78 46h1l0.5 0.5l0.5 0.5v28l0.5 0.5t0.5 1.5h1q2 0 3.5 -1.5t2 -3t1 -3.5t0.5 -3t0.5 -4
t0.5 -5.5t0.5 -5.5t0.5 -4h1h1q4 0 7 3t5.5 6.5t4 6.5t3.5 3q4 0 5 -2.5t1 -5.5t-1 -5t-4 -4q-1 -1 -3.5 -2.5t-5.5 -3t-5.5 -3t-4.5 -2.5t-3 -4t-1.5 -6l-1 -6t-0.5 -6q0 -1 -1.5 -2t-3.5 -1q-3 0 -3.5 2.5t-0.5 5.5v6q0 4 -1 5q-4 5 -9.5 8.5t-10 7t-8 8t-3.5 12.5
q7 0 10.5 -3.5t6 -7.5t5.5 -7.5t8 -3.5z" />
</svg>
