<?xml version="1.0" standalone="no"?>
<!DOCTYPE svg PUBLIC "-//W3C//DTD SVG 1.1//EN" "http://www.w3.org/Graphics/SVG/1.1/DTD/svg11.dtd" >
<svg xmlns="http://www.w3.org/2000/svg" xmlns:xlink="http://www.w3.org/1999/xlink" version="1.1" viewBox="-10 0 266 256">
   <path fill="currentColor"
d="M174 246q0 2 1 3.5t3 1.5q1 0 2.5 -1.5t2.5 -3.5t1.5 -4t1.5 -3v-29v-29q0 -9 -1 -15t-4 -9.5t-8.5 -5.5t-14.5 -2h-4h-8.5h-9.5h-8h-8h-9.5h-8.5h-3q-1 0 -3 0.5t-4 0.5t-4 0.5t-3 0.5q-6 0 -9 3t-4 7t-1 9v11q0 2 -0.5 9t-0.5 15.5t-0.5 15.5t-0.5 9v8v8l2 2l1 1h1
q1 0 2.5 -1.5t3 -3.5t2 -4.5t0.5 -3.5v-5v-9v-8v-5v-8.5t0.5 -11.5t0.5 -11.5v-7.5q3 -7 9.5 -9.5t14 -3.5t15 -1h12.5q18 0 26.5 1.5t12 6t4 13t1.5 24.5v7q0 9 -1.5 19t-1.5 19zM100 188v7t1.5 5.5t3.5 4t7 2.5h2.5h5.5h4h3h15t13 -3q3 -3 3 -8v-10v-4v-5q-2 -3 -6 -4.5
t-8 -2t-9 -0.5h-6h-8t-8 1.5t-7.5 3t-5.5 5.5v8zM107 189q0 -3 2 -7t7 -4h29q1 0 2 1.5t2 3.5t1.5 4l0.5 2q0 1 -0.5 2.5t-1.5 3t-2.5 3t-2.5 1.5h-26q-1 -2 -3 -2q-1 0 -3 -0.5t-3.5 -2t-1.5 -5.5zM93 133q2 3 4.5 4.5t5 2t5.5 0.5h6h1h1h7t11 -0.5t11.5 -0.5h7.5
q6 -3 8.5 -7.5t2.5 -11.5q0 -9 -4 -14t-13 -5h-35q-9 0 -15 6t-6 14v1l0.5 2t0.5 3.5t0.5 3t0.5 2.5zM100 120q0 -3 2 -4.5t4.5 -3t5.5 -2t6 -0.5h2h4h5h4h3h5.5h4.5h4q3 2 4 3.5t1 5.5q0 6 -3 8.5t-7.5 3.5t-10 1h-9.5h-8.5t-8.5 -1t-6 -3.5t-2 -7.5zM127 79q9 0 18 3.5
t16 7.5q2 0 6 2t8.5 4.5t8.5 4t5 2.5l3 1.5t1 1t1 0.5h3q2 0 3.5 -0.5t1.5 -3.5t-5 -7t-12.5 -7t-16.5 -6t-16.5 -5t-12.5 -3.5t-5 -2.5v-15l-1.5 -0.5t-2.5 -0.5h-1h-2t-2 1v9t-1.5 5t-4 3t-6.5 2q-2 1 -6.5 2t-8.5 2t-7.5 2t-3.5 2q-1 0 -2.5 0.5t-3.5 1.5t-3.5 2t-2.5 1
q-2 1 -6 1.5t-8 2t-7 3.5t-3 6q0 2 2 2.5t4 0.5q1 0 3 -0.5t4.5 -1t4.5 -1.5t3 -1q1 -1 4 -2t7 -3l7 -3.5t4 -1.5q7 -3 14.5 -5t14.5 -4q0 -1 1.5 -1.5t2.5 -0.5zM163 67q0 4 2 4q4 0 6 -3.5t2.5 -8t1 -8.5t-0.5 -6l1.5 -1.5t1.5 -0.5q3 0 6 2t5.5 4t5.5 4t5 2q3 0 5 -1
t2 -5t-4.5 -6.5t-10.5 -4.5t-11 -4t-6 -4q0 -1 0.5 -3.5t0.5 -5.5t-1 -5.5t-4 -2.5h-3.5t-2.5 1q-1 9 -5 14t-9.5 9t-9.5 7t-4 6q0 1 0.5 2.5t2.5 1.5q3 0 5.5 -2t5 -4.5t5 -4t6.5 -1.5q2 0 2.5 1t0.5 4q0 5 -0.5 10t-0.5 10zM87 66q0 2 0.5 3t2.5 1q1 0 4.5 -2t3.5 -4v-19
q0 -1 2 -1.5l2 -0.5q2 0 4 1t4 2.5l4 3t5 1.5q2 0 4 -2.5t2 -4.5t-4 -4t-9 -4t-9 -3.5t-4 -3.5v-13l-0.5 -0.5l-1.5 -1.5q-2 -1 -2.5 -1h-2.5q-1 0 -2 0.5t-2 2.5q0 7 -2.5 11.5t-6 7t-7.5 4t-7 3t-5.5 3.5t-2.5 6q0 3 1.5 3.5t4.5 0.5q4 0 6.5 -1t5 -2.5t4.5 -4t5 -5.5v0
q3 0 3.5 3t0.5 5q0 4 -0.5 8t-0.5 8z" />
</svg>
