<?xml version="1.0" standalone="no"?>
<!DOCTYPE svg PUBLIC "-//W3C//DTD SVG 1.1//EN" "http://www.w3.org/Graphics/SVG/1.1/DTD/svg11.dtd" >
<svg xmlns="http://www.w3.org/2000/svg" xmlns:xlink="http://www.w3.org/1999/xlink" version="1.1" viewBox="-10 0 266 256">
   <path fill="currentColor"
d="M125 195v51q0 3 1 3.5t3 0.5q3 0 4.5 -1.5t1.5 -4.5v-52q15 -1 29.5 -1t29.5 -1q1 -1 1 -1.5v-1.5q0 -6 -6 -6q-5 0 -11.5 0.5t-11.5 2.5h-31l-1 -1.5t-2 -1.5v-0.5v-0.5q0 -2 1.5 -3t3.5 -1.5t4 -0.5h3q8 -2 11 -5t4.5 -6t3 -5.5t6.5 -2.5h29q2 0 2.5 -1.5t0.5 -2.5
q0 -3 -2 -5h-5q-8 0 -15.5 0.5t-14.5 0.5q0 -2 -0.5 -3.5t0 -3t1.5 -2.5t4 -2h19q2 0 4.5 -0.5t2.5 -3.5q0 -2 -1.5 -3.5t-2.5 -1.5t-2.5 1t-2.5 1h-1h-3h-4h-2h-5h-5q-2 -2 -2 -4q0 -5 1.5 -8t3 -6.5t3 -6.5t1.5 -8v-7t-1.5 -8t-4 -6.5t-7.5 -2.5h-53q-5 0 -9 2t-7 5
t-4.5 7.5t-1.5 9.5q0 2 0.5 6t1.5 6q0 1 1 2t2.5 3t2.5 3.5t1 2.5l-0.5 2t-0.5 4.5t-0.5 4.5l-0.5 2h-33q-1 0 -1.5 2l-0.5 2q0 1 0.5 2.5t2.5 1.5h34q2 0 2 3v3v1t-0.5 2.5t-1.5 1.5h-38l-0.5 1.5t-0.5 2.5v1v0q0 1 1 2l1 1q2 1 5 1h4q7 0 14 -1t14 -1q3 0 4.5 2t2 4.5
t1.5 5t4 3.5h5t6 0.5t5.5 1.5t2.5 4v2t-2 2q-16 0 -32 0.5t-32 2.5q-1 0 -2 1.5t-1 2.5l0.5 0.5l0.5 0.5q4 2 7 2h7q11 0 22 -1t22 -1h5h3zM107 161v-2q1 0 2.5 -0.5t3.5 -0.5t3.5 -0.5t2.5 -0.5h1q2 0 2.5 0.5t2.5 1.5v2.5v1.5v3.5t-2 2.5h-2h-3q-4 0 -7.5 -1.5t-3.5 -6.5z
M132 163q0 -2 1.5 -3.5t4 -2l5 -1t3.5 -0.5q2 0 4.5 1t2.5 4q0 2 -1.5 3.5t-3.5 2.5t-4 1.5t-4 0.5q-3 0 -5.5 -1.5t-2.5 -4.5zM103 146v-4t3 -2h17q2 0 2 3v2q0 2 -0.5 4t-2.5 2q-1 1 -4 1h-3q-5 0 -8.5 -0.5t-3.5 -5.5zM134 146q0 -3 1.5 -4.5t3.5 -2.5t5 -1h4h5l0.5 1
l0.5 1v10h-18q-1 0 -1.5 -1.5t-0.5 -2.5zM103 127v-3.5t3 -2.5h16q2 0 2.5 2t0.5 4v1v2t-0.5 2t-1.5 1h-19q-1 0 -1 -3v-3zM134 127v-3.5t1 -2.5q4 -1 8.5 -2t7.5 -1t3.5 1t2.5 3v1v1q0 1 -0.5 4t-1.5 3l-0.5 1l-0.5 1h-18q-2 0 -2 -2.5v-3.5zM94 104v-2t2 -1q6 -2 10 -2h9
h8q2 2 2 5v4v3v1l-2 2h-2.5t-6 0.5t-5.5 0.5h-1q-5 0 -9.5 -3t-4.5 -8zM135 106q0 -6 3 -7.5t9 -1.5q5 0 8 0.5l9 1.5q1 0 1 1v1q0 5 -3 7t-7 3.5t-8 2t-7 0.5h-4q-1 -3 -1 -4.5v-3.5zM96 92q-1 -1 -1 -2v-1q0 -4 3.5 -6t7.5 -3t8 -1h6q3 0 4 2t1 5t-1.5 5t-4.5 2h-3h-4
h-6.5t-6 -0.5t-3.5 -0.5zM135 84v-1v-1l3 -2h19q3 0 4.5 2.5t1.5 5.5q0 1 -0.5 2.5t-2.5 1.5h-24l-0.5 -1.5l-0.5 -1.5v-2v-3zM95 45v21l1 0.5l1 0.5h0.5h0.5v0h1l1 -0.5l1 -0.5v-20q3 0 4 -0.5t1.5 -0.5t1.5 0.5t2 2.5q1 0 2.5 3t2.5 3q2 1 4.5 -0.5t2.5 -3.5t-1 -3.5
t-3 -2.5t-3.5 -2l-1.5 -1q-1 -1 -2.5 -2l-3 -2l-3 -2t-2.5 -2v-19l-2 -1q-1 0 -2 -0.5l-1 -0.5q-1 0 -2.5 0.5l-1.5 0.5v17l-1 1.5t-3 3t-4 3.5l-3 3t-4.5 3t-7 4.5t-6 4.5t-2.5 4t1 2.5t3 0.5q4 0 7 -2.5t6 -4.5q2 -1 4 -3t4.5 -3.5t4 -2l1.5 -0.5zM149 45h1l0.5 0.5
t0.5 1.5v16l1.5 0.5l1.5 0.5q3 -1 3.5 -4t1 -7t1.5 -7t3 -3q3 0 6 2t6 5t6 5t6 2q2 0 2 -2v-3q0 -5 -4.5 -7.5t-10 -5t-10 -4.5t-4.5 -5t1 -6t1 -6t-1 -4t-4 -1h-2q-2 0 -2 1q0 11 -4 16.5t-8.5 9.5t-8.5 6.5t-4 6.5q0 1 1 1.5t2 0.5q2 0 4.5 -1.5t4.5 -3.5t4 -3.5t5 -1.5z
" />
</svg>
