<?xml version="1.0" standalone="no"?>
<!DOCTYPE svg PUBLIC "-//W3C//DTD SVG 1.1//EN" "http://www.w3.org/Graphics/SVG/1.1/DTD/svg11.dtd" >
<svg xmlns="http://www.w3.org/2000/svg" xmlns:xlink="http://www.w3.org/1999/xlink" version="1.1" viewBox="-10 0 266 256">
   <path fill="currentColor"
d="M119 247q0 3 1 3.5t3 0.5q4 0 5.5 -4t2.5 -10t1.5 -11.5t3.5 -8.5t9 -5t9 -4q9 -3 15 -7.5t10 -10t5.5 -13t1.5 -17.5q0 -12 -4 -19t-11 -11t-15.5 -6t-18.5 -5l-1.5 -0.5l-1.5 -0.5v-22q0 -3 2.5 -4.5t5.5 -2.5t5.5 -2.5t2.5 -3.5v-18q0 -3 -2.5 -4t-5 -1.5t-5.5 -0.5
h-4q-9 0 -16.5 2.5t-11.5 12.5q0 8 3.5 10.5t7.5 4.5t7 4t3 8q0 8 -1.5 12.5t-4.5 7t-8 4.5t-11 6q-1 0 -2.5 1t-3.5 2t-3.5 1.5t-1.5 1.5q-1 0 -4 1t-6.5 2t-6.5 2t-4 2q-1 0 -2 1.5t-1 3.5v0q0 1 1 2t2 1v0h1q4 -1 8 -3l8 -4q2 -1 8.5 -4.5t14 -7t14 -6t7.5 -2.5
q10 0 19 2.5t16 7t10.5 12t3.5 18.5q0 9 -2.5 15.5t-7.5 10.5t-11 6.5t-11.5 5t-11 6t-9.5 9.5q-1 1 -1.5 3.5t-1 4.5l-1 4t-1.5 2q0 1 -0.5 3t-0.5 4t-0.5 3.5t-0.5 2.5v2zM63 228q2 1 3.5 1.5t3.5 0.5t2.5 -0.5t3.5 -2.5q8 -7 16 -13.5t16 -13.5q4 0 6 -2.5t5 -4.5
q1 0 2.5 -1t3 -1.5t4 -1.5t3.5 -2q2 -1 7.5 -3t11 -5t10 -5t4.5 -3q0 -4 -3 -4t-11.5 3.5t-19 9.5t-22 13t-21.5 13.5t-17 12.5t-8 9zM153 150q-2 0 -9 2.5t-16 6.5t-19 9t-19 10t-16.5 9t-10.5 6q-1 1 -1.5 3t-0.5 3q6 0 12 -2.5t12 -6.5l12 -8t11 -6l3.5 -1.5t7.5 -3.5
t8.5 -3.5t6.5 -2.5t5.5 -2.5t7.5 -3t7 -3.5t3 -3q0 -2 -1 -2.5t-3 -0.5zM60 175v1l6 2h-1q2 -2 4.5 -2.5t4.5 -2.5q1 -1 5 -3t8.5 -5t8.5 -5.5t5 -3.5l2 -1t5 -2t5 -2t3 -2q6 -2 13 -4t13 -4q0 -1 0.5 -2l0.5 -1q0 -1 -1 -2.5t-2 -1.5t-5 1.5l-8 3l-8 3t-5 2.5
q-3 0 -7.5 2.5t-10.5 5.5t-12 6.5t-11.5 6.5t-9 6t-3.5 4zM147 111q2 2 5 4t5 3h4h4q4 0 8 -0.5t7.5 -2t5.5 -4.5t2 -9q0 -3 -2.5 -6t-6.5 -5h-4h-3h-9.5t-8 1.5t-5.5 4.5t-2 8v6zM74 105q0 4 2 6.5t4.5 3.5t6 1.5t6.5 0.5q4 0 7.5 -0.5t6 -2t4 -4t1.5 -7.5q0 -13 -13 -13
h-9t-7.5 2t-6 5t-2.5 8zM154 102q0 -2 1 -3t3 -1.5t4 -0.5h4h4t4 0.5t3 1.5t1 3q0 6 -4 7.5t-9 1.5q-4 0 -7.5 -1.5t-3.5 -7.5zM84 104q0 -6 3.5 -6.5t8.5 -0.5h6q2 1 2.5 3t0.5 3q0 3 -1.5 4t-3 1.5t-3.5 1t-4 0.5q-3 0 -6 -1t-3 -5zM115 75q0 -4 3.5 -7.5t7.5 -3.5
t7.5 0.5t8.5 1.5q1 0 1 2v3q0 5 -2.5 10t-7.5 5q-3 0 -6 -0.5t-5.5 -1.5t-4.5 -3t-2 -6zM87 42h2t1 1v19q0 2 1 2.5t2 0.5q3 0 4 -1.5t1 -4.5q1 -1 1 -3.5v-5.5t0.5 -5.5t0.5 -3.5l1 -2l1.5 0.5t3 1.5t3.5 2t3 2q2 1 3.5 3.5t4.5 2.5q2 0 3 -2t1 -4l-0.5 -0.5t-0.5 -1.5
q-1 -2 -5 -4.5t-8 -4.5t-7 -4.5t-3 -4.5q-1 -2 -0.5 -4.5t0.5 -5t-1 -4.5t-5 -2h-1h-2v3t-0.5 4.5t-0.5 4.5v3l-0.5 1.5t-1.5 2.5q-1 2 -6 6t-10.5 8.5t-9.5 8.5t-4 6q0 1 1 1.5t2 0.5q3 0 6.5 -2t7 -4.5t6.5 -5.5l5 -5h0.5h0.5zM160 58v1l1 0.5t2 0.5t3.5 -1t2.5 -2v-16
q0 -2 1.5 -2h1.5q4 0 7 2.5t5 5t4.5 4.5t5.5 2t4 -0.5t1 -2.5q0 -5 -2.5 -7.5t-6.5 -5l-8 -5t-7 -5t-4.5 -6t0.5 -7.5q-1 -3 -2.5 -3h-3.5t-3 1t-1.5 3.5t-1 4.5t-1.5 4q-2 2 -6.5 5.5t-9 7.5t-8 7.5t-3.5 6.5q5 0 8.5 -2.5t6 -5t5.5 -5t7 -2.5q1 0 2 2t1 4.5v4.5v4
q0 2 -0.5 3.5t-0.5 3.5z" />
</svg>
