<?xml version="1.0" standalone="no"?>
<!DOCTYPE svg PUBLIC "-//W3C//DTD SVG 1.1//EN" "http://www.w3.org/Graphics/SVG/1.1/DTD/svg11.dtd" >
<svg xmlns="http://www.w3.org/2000/svg" xmlns:xlink="http://www.w3.org/1999/xlink" version="1.1" viewBox="-10 0 266 256">
   <path fill="currentColor"
d="M73 195q0 15 -1 29t-1 28q6 0 9.5 -5t3.5 -10v-5t-0.5 -7t-0.5 -7.5v-4.5v-5l-1 -29q0 -3 2.5 -5t5.5 -5t5.5 -7t2.5 -12v-4v-4t-1 -1h-2h-2t-1 1t-0.5 3t-0.5 4.5t-0.5 4.5t-0.5 3t-1.5 4t-3.5 3q-3 0 -3 -1v-3v-4.5t-0.5 -7.5t-0.5 -7.5v-4.5q0 -3 1 -4.5t2.5 -2.5
t4 -1.5t4.5 -0.5q5 -12 5 -24v-2.5v-3t-0.5 -2.5t-2.5 -1t-3.5 1.5t-1.5 2.5v14q-1 3 -2 3.5t-2 0.5q-4 0 -4.5 -3t-0.5 -6v-8.5t1 -7.5q1 -3 4.5 -5t7 -3.5t6.5 -3.5t3 -3q0 -2 -2 -2.5t-3 -0.5q-6 0 -9 2t-10 6q-4 3 -6 7.5t-2 9.5t0.5 10t0.5 9h-5t-4 -5q0 -1 -0.5 -3.5
t-1 -5.5t-1 -5.5t-0.5 -3.5l-1 -1t-2 -1v0h-1v0v0q-1 0 -1.5 1l-0.5 1v9q0 13 2.5 17.5t6 5.5t6.5 1t4 3q0 7 0.5 13t0.5 12q0 4 -0.5 7.5t-5.5 3.5q-2 0 -4.5 -0.5t-2.5 -4.5v-19l-1.5 -0.5t-2.5 -0.5h-1q-4 0 -4.5 2t-0.5 5q0 10 1 21q1 3 3 4.5t5 2.5t6 1h5l2 3v2v4.5
v4.5v4zM125 213q1 4 2.5 8.5t3.5 8t5.5 6t9.5 2.5h2h1.5t3.5 -0.5t3 -0.5h2q10 -1 16.5 -2t10 -3.5t5 -8.5t1.5 -18q0 -8 -0.5 -16.5t-4.5 -16.5q-1 -2 -5 -3.5t-8 -2.5t-7.5 -1.5t-3.5 -2.5q0 -3 2.5 -8t5.5 -7q3 -1 8.5 -1h11.5t10.5 -1t4.5 -4v-2t-2 -1h-23q-2 0 -2 -2
v-2q0 -2 0.5 -3.5t1.5 -3t2 -3.5t1 -4t-2 -2.5t-4 -0.5h-1.5h-2.5q-1 3 -2.5 8.5t-4 11.5t-5.5 10.5t-6 4.5v0q-2 -2 -5 -8l-6 -12t-6 -11t-5 -5t-3 0.5t-1 3.5q0 2 1 4.5t2.5 4.5t2.5 4.5t1 5.5v0l-1.5 1.5l-0.5 0.5h-17q-2 0 -3.5 1.5t-1.5 3.5q0 1 0.5 2t2.5 1h27
q1 0 2.5 1.5t2.5 4l2 5t1 3.5q0 3 -4 4.5t-8.5 3t-8.5 5t-4 9.5v28zM136 207q0 -2 4.5 -3.5t10.5 -2t12 -0.5h10q2 0 4.5 0.5t3.5 2.5v0v6t-1 7.5t-3 6.5t-5 3h-27l-1 -1t-2.5 -2t-2.5 -2.5t-2 -2.5l-0.5 -3.5t-0.5 -5.5v-3zM135 188q0 -6 2.5 -9t6.5 -4t8.5 -1h8.5h2h4h4h2
q5 1 6 4t1 8v5q-8 1 -14.5 1.5t-14.5 0.5h-2h-4h-4h-2q-3 0 -3.5 -2t-0.5 -3zM116 98h24q3 0 4.5 4t3 8.5t3.5 8t6 3.5t6 -4t3.5 -9t3 -9t3.5 -4h27l1.5 -1.5t1.5 -2.5v-1v0q0 -1 -0.5 -1.5l-0.5 -0.5h-27v-17q-3 0 -5 2.5t-4 6.5t-3 8t-2.5 7.5t-3 5.5t-2.5 1q-1 0 -2 -2
t-2 -3l-1.5 -3l-3 -6l-3 -6l-1.5 -3q0 -1 -0.5 -1.5t-1.5 -0.5l-2 -0.5l-2 -0.5v14l-1.5 0.5l-1.5 0.5q-1 0 -3 0.5t-4.5 0.5t-4.5 0.5l-2 0.5q-2 0 -2.5 1.5t-0.5 2.5zM159 66l2 1h1v0q1 0 2 -1.5t2 -1.5q0 -1 -0.5 -4t-0.5 -6t0.5 -6t0.5 -4q0 -7 5 -7q4 0 6.5 4t4.5 9
t3 9t2 4v-0.5v-0.5q1 0 2 -0.5t2 -0.5v-6v-4q0 -2 -0.5 -3t-0.5 -2t-1 -4q-2 -6 -6 -9t-8 -4.5t-7 -2t-3 -1.5v-16l-1.5 -0.5t-2.5 -0.5l-0.5 -0.5l-0.5 -0.5l-0.5 0.5l-0.5 0.5q-1 0 -2.5 1t-1.5 2v17q-6 2 -10.5 5.5t-6.5 8t-3 10.5t-1 12q5 0 6.5 -4t2.5 -9t3 -9.5
t8 -4.5h1q0 1 0.5 3.5t0.5 3.5t0.5 4t1 6.5t1 6.5t0.5 5zM57 55v4v3l3 4q4 -2 5 -6.5t1.5 -9.5t2 -9t7.5 -4q2 0 2.5 1t0.5 4v3.5v6.5v5v4q0 2 1.5 2.5t2.5 0.5q3 0 3.5 -1t0.5 -4v-4v-7v-6.5v-4.5l1.5 -1.5l1.5 -1.5h1q7 0 9.5 4t3 8.5t0.5 9.5t4 6q3 -2 3.5 -5t0.5 -6
q0 -12 -2.5 -16t-6.5 -5.5t-8 -1.5t-6 -3q-2 -2 -1.5 -4.5t0 -5.5t-1 -5t-4.5 -2l-1 0.5t-2 0.5v3v5v4.5v3.5q0 2 -3.5 3.5t-8 4t-7.5 7.5t-3 15z" />
</svg>
