<?xml version="1.0" standalone="no"?>
<!DOCTYPE svg PUBLIC "-//W3C//DTD SVG 1.1//EN" "http://www.w3.org/Graphics/SVG/1.1/DTD/svg11.dtd" >
<svg xmlns="http://www.w3.org/2000/svg" xmlns:xlink="http://www.w3.org/1999/xlink" version="1.1" viewBox="-10 0 266 256">
   <path fill="currentColor"
d="M155 246q1 3 3 5q2 -1 2.5 -3t0.5 -4.5v-4.5v-3q0 -3 0.5 -11.5t1 -19t1 -19t0.5 -11.5v-2.5v-2.5q1 -5 3 -10l4 -10t3.5 -10t1.5 -10q-11 0 -20.5 2.5t-19.5 2.5q-3 0 -5 -1t-5 -1v4l14 13v2q8 22 11 45.5t4 48.5zM189 246l4 3l2 -3q0 -25 2 -49.5t2 -49.5v-9
q0 -1 -0.5 -3.5t-1 -5.5t-1.5 -5.5t-1 -3.5q-2 -2 -6 -4t-7.5 -4t-6.5 -4t-3 -5v-1q3 0 7 -1t7.5 -2.5t7 -2.5t5.5 -2t2.5 -3.5t0.5 -4.5l-1 -4.5t-2.5 -9.5t-3 -9.5t-2.5 -5.5l-0.5 0.5l-0.5 0.5q-2 4 -3.5 6.5t-3 3t-4 1t-7.5 0.5h-8q-1 -1 -1 -4t-1 -6t-2.5 -5.5
t-4.5 -2.5v23h-1.5t-3.5 0.5l-4 1t-4 0.5q-2 1 -4 1q-3 0 -4.5 0.5t-2.5 1.5t-1 4q5 0 11 -1t12 -1h1.5t1.5 2v13q-1 0 -4 1t-8 2t-8 1q-1 1 -4.5 1.5t-4.5 0.5v1q0 1 1.5 1.5t3 0.5h3h1.5q5 0 9 -0.5t8 -0.5h3l14 13q7 2 12 7.5t5 13.5v108zM84 174h1q0 1 1.5 2l1.5 1v65
l0.5 1t0.5 2h1h0.5h0.5q0 -1 1 -2t2 -1q0 -2 0.5 -4.5t1 -6t1 -6.5t0.5 -4v-9.5v-14.5v-13.5v-9.5q4 -1 10 -1.5t10 -1.5l0.5 -0.5l0.5 -0.5v-1v-1l-0.5 -1l-0.5 -1h-20v-16q12 -2 17.5 -11t5.5 -20q0 -8 -2 -11.5t-4.5 -6t-6 -4t-6 -3t-4.5 -4.5t-2 -9v-3t2 -2h18l3 -4
l-0.5 -1l-0.5 -1h-2.5t-3 -0.5t-3.5 -0.5h-2q-6 -1 -8 -3.5t-2.5 -5.5t-1 -5t-3.5 -2q-1 0 -1.5 0.5l-0.5 0.5v12l-4 3h-25v2.5t2 2.5h23l1 2l0.5 1.5t0.5 3.5t0.5 4t0.5 4v2v2t-2 1q-1 0 -3 0.5t-4.5 1t-4.5 0.5h-3q-3 1 -4.5 2.5t-3 3.5l-3 4t-3.5 3v4v4q0 7 1 13.5
t4 10.5t9 6t15 2l2 1v16l-31 4l-0.5 1t-0.5 2l0.5 0.5l0.5 0.5q1 0 3 0.5t4 0.5h4h3q0 1 1 1h1q3 0 5.5 -1t5.5 -1zM144 143q0 -2 2.5 -3t5.5 -1.5t6 -0.5h3q3 0 3 3q0 2 -1 7t-3 10.5t-3.5 10t-2.5 4.5l-1.5 -4t-3 -9.5t-3 -10t-2.5 -5.5v-1zM66 125h19l1 0.5t2 0.5
q0 1 0.5 1t0.5 1v10q0 3 -2.5 3h-3.5q-3 0 -6 -1t-5.5 -3.5t-4 -5.5t-1.5 -6zM97 131v-5q1 -2 3.5 -2.5t4.5 -0.5q3 0 4.5 1t1.5 4q0 1 -1 3t-2.5 4.5t-3.5 4t-3 1.5q-2 0 -2.5 -1t-1 -3t-0.5 -3v-3zM68 114q0 -4 2 -6t5.5 -3.5t7.5 -2t6 -0.5v12l-3 3h-2h-3h-3h-4.5
t-4 -0.5t-1.5 -2.5zM95 109q0 -1 0.5 -2l1.5 -3h4q5 0 6.5 1.5t1.5 5.5t-2 4.5t-5 0.5t-5 -1.5t-2 -5.5zM167 84q0 -3 2.5 -5t5.5 -2.5t6.5 -1t5.5 -0.5t3.5 1.5t1.5 4.5q0 4 -2 6.5t-5 4t-6.5 2.5t-6.5 1q-2 0 -3 -1.5t-1.5 -3t-0.5 -3.5v-3zM94 34q1 0 5 4l9 9t10 8.5
t9 3.5q0 -4 -2 -6.5t-5 -4.5l-6 -4t-5 -5q0 -1 -1.5 -3t-3 -4.5l-3 -5l-1.5 -2.5l-1 -1.5t-2.5 -3.5t-2.5 -3.5t-2 -2.5l-1 -1h-2q-1 0 -3 3t-4 6.5t-3 7t-2 4.5q-1 2 -4.5 5t-7.5 5.5t-6.5 5t-2.5 4.5h1.5h1.5q6 0 10.5 -3t8.5 -6.5t7.5 -6.5t8.5 -3zM168 15q-2 0 -4.5 3
t-5 7.5t-4.5 9t-3 5.5q-2 3 -4.5 4t-4.5 2.5l-4 3t-2 4.5q6 0 10.5 -2.5t8.5 -6.5l8 -8t9 -6q2 3 5 6t6 5.5t6.5 4t8.5 1.5v-2q-1 0 -2.5 -2t-4 -5t-4 -4.5t-3.5 -5t-5 -6.5l-5.5 -5.5t-5.5 -2.5z" />
</svg>
