<?xml version="1.0" standalone="no"?>
<!DOCTYPE svg PUBLIC "-//W3C//DTD SVG 1.1//EN" "http://www.w3.org/Graphics/SVG/1.1/DTD/svg11.dtd" >
<svg xmlns="http://www.w3.org/2000/svg" xmlns:xlink="http://www.w3.org/1999/xlink" version="1.1" viewBox="-10 0 266 256">
   <path fill="currentColor"
d="M104 179v11v17v17v11v3.5t0.5 5.5t0.5 5.5v3.5h4q4 0 5.5 -1.5t1.5 -5.5q0 -12 -2 -24t-2 -25v-3v-6v-5v-4q2 -3 6.5 -3.5t7.5 -1.5v-1q0 -4 -3.5 -4.5t-6.5 -0.5h-66v2t0.5 2.5t1 2.5t2.5 1h24l1 1v2.5v2.5q0 8 -1 17.5t-2 16.5q-1 4 -2.5 8t-2.5 8l-2 8t-1 8
q0 1 0.5 2.5t2.5 1.5q4 0 6.5 -3t3.5 -7.5t1.5 -9t1 -7t1 -9t1.5 -14t1.5 -14.5t0.5 -9q3 -2 6 -2.5t6 -0.5q1 0 2 0.5t2 2.5zM132 247q0 3 1.5 5t4.5 2q2 0 3 -1.5t2 -4.5q-1 -29 0 -58.5t5 -58.5q1 -3 4.5 -6.5t8 -5.5t7.5 -4t3 -3v-22q0 -2 -3 -3.5t-6.5 -2l-7 -1
t-4.5 -0.5q-2 0 -5.5 0.5t-3.5 4.5q0 3 4 3h8.5t8 2t3.5 8q0 5 -3.5 8t-8 6t-8.5 7t-5 10q-4 29 -6 58t-2 57zM184 186q0 1 0.5 3.5l1 5t1 4.5t0.5 3t0.5 3t1.5 4.5t1.5 5t1.5 2.5q0 3 0.5 9t1.5 12t3 10.5t5 4.5t4.5 -2.5t0.5 -4.5q0 -8 -2.5 -16l-5 -16t-4.5 -15.5
t-2 -15.5q0 -1 1.5 -2.5t3.5 -3t4 -2.5t2 -2q3 -4 4 -10t1 -11q0 -8 -3.5 -11.5t-9 -5t-11.5 -1.5h-12h-12q-2 0 -2 1v2v2t2 1h11.5t12 1t9.5 4.5t4 9.5v5q0 2 -0.5 5t-2 4.5t-3.5 1.5q-3 0 -4 -2.5t-2 -6t-3 -6t-8 -2.5h-4.5t-6.5 0.5t-6 2t-3 3.5t1 2.5t3 0.5q5 0 9 -0.5
t8 -0.5q1 0 2 1t2 3l2 4t2 3l-8 4l-20 3q-2 1 -2 2v2q0 2 1.5 3t3.5 1h2l2.5 -0.5t5.5 -1t5.5 -1l2.5 -0.5h2h3t2 1zM73 143q0 6 3.5 8.5t8.5 2.5t10.5 0.5t10 -0.5t8.5 -3t6 -8v-4.5t0.5 -7.5t0.5 -7.5v-4.5v-4q0 -3 -0.5 -5.5t-0.5 -5.5q0 -5 2 -6t4.5 -1.5l5 -1t2.5 -2.5
t-1.5 -2.5t-4 -1t-4.5 -1t-3 -0.5q-2 -1 -2 -3.5v-4.5t-0.5 -3.5t-4.5 -1.5q-3 0 -3.5 2t0 4.5t0.5 4.5t-2 2h-29q-1 0 -1.5 -2t-0.5 -4.5t-1 -4.5t-4 -2t-3.5 2t-0.5 5v4.5t-3 2.5h-2.5t-4.5 0.5t-4 0.5h-3q-1 1 -2.5 2t-1.5 3v0q0 1 0.5 1.5l0.5 0.5q5 2 10.5 2t9.5 -1
q2 1 2 3.5v3.5q0 2 0.5 7.5t0.5 11.5t0.5 11.5t0.5 7.5zM88 144v-1q1 -1 3.5 -3t2.5 -3h1q3 0 5.5 2t2.5 5t-2.5 3.5t-5.5 0.5q-2 0 -4.5 -0.5t-2.5 -3.5zM101 126q0 -1 1 -3.5t2.5 -5t4 -4t4.5 -1.5q0 1 -0.5 4t-0.5 6.5v7v4.5t-1 3t-2 3q-4 -2 -6 -6t-2 -8zM79 118
q0 -4 3 -4q2 0 3.5 1t2.5 3t1.5 4t0.5 4t-2 5t-5 3q-2 0 -2.5 -2.5t-1 -5.5t-0.5 -5v-3zM83 101q0 -1 0.5 -2.5t1.5 -1.5t3.5 -0.5t4.5 -0.5t4.5 -0.5t3.5 -0.5h2q2 0 3.5 0.5t2.5 2.5q0 2 -1.5 5.5t-3.5 6t-4 4.5t-5 2q-1 0 -3 -2t-3.5 -4.5t-3.5 -5t-2 -3.5zM176 112v2
t1 1h29q2 0 3 -2t1 -4.5v-5.5v-3v-8l-1 -1l-2 -2l-2 -2t-3 -1h-21q-2 0 -2 1v2v1.5t2 1.5q1 0 3.5 0.5t5 0.5t5 0.5t3.5 0.5t2.5 1t1.5 3v1.5t-0.5 3.5t-1.5 3.5t-2 1.5h-21q-1 0 -1 2v2zM88 67v0l2 2l1 1q4 2 5.5 -2.5t1.5 -10t1 -10t5 -4.5q3 0 5.5 1.5t5 4t5 4.5t5.5 2
q2 0 3 -1t1 -3q0 -3 -4 -6t-9 -6t-9.5 -5.5t-4.5 -4.5q0 -4 1 -7t1 -7q0 -2 -1.5 -4t-3.5 -2q-4 0 -5 2.5t-1.5 5.5t-1 6.5t-1.5 5.5q-3 3 -8.5 7l-11 8t-9.5 8t-4 7q0 2 0.5 3t2.5 1q4 0 7 -3t6.5 -6t6.5 -5.5t7 -2.5q2 0 2.5 1.5t0.5 3.5q0 4 -1 8t-1 8zM165 38h2t1 2v29
l0.5 0.5t1.5 0.5v0q5 0 6 -4.5t1.5 -10t0.5 -10t3 -4.5t6.5 2t6.5 4.5t6.5 4.5t6.5 2t4 -1.5t1 -3.5q0 -5 -5 -8t-11.5 -5.5t-11.5 -5.5t-5 -7v0v-1l0.5 -1t0.5 -2.5t0.5 -2.5l0.5 -1v-1q0 -3 -2 -4t-5 -1q-2 0 -3.5 2t-2 5t-1 5.5t-0.5 4.5q-2 4 -7 7.5t-10.5 7.5t-9.5 8
t-4 10q9 0 16 -6.5t11 -14.5h1.5h0.5z" />
</svg>
