<?xml version="1.0" standalone="no"?>
<!DOCTYPE svg PUBLIC "-//W3C//DTD SVG 1.1//EN" "http://www.w3.org/Graphics/SVG/1.1/DTD/svg11.dtd" >
<svg xmlns="http://www.w3.org/2000/svg" xmlns:xlink="http://www.w3.org/1999/xlink" version="1.1" viewBox="-10 0 266 256">
   <path fill="currentColor"
d="M92 247q0 1 1 2l2 2v0q3 0 3.5 -2t0.5 -4q0 -5 -0.5 -10t-0.5 -10v-10q1 -2 3 -2h4q4 0 6.5 2.5t3.5 6t1.5 8t1.5 8t2.5 6t5.5 2.5q1 0 3.5 -1t2.5 -3t-1.5 -5t-3.5 -6.5t-3.5 -7.5t-1.5 -9q0 -4 3.5 -8t4.5 -9q1 -2 3.5 -3.5t5 -2.5t4.5 -2t2 -3q0 -3 -1 -3.5t-4 -0.5
q-7 0 -15 1t-16 1l-2 -0.5t-4 -0.5h-3h-2q-3 1 -3.5 0t-0.5 -3q0 -1 1 -3t2.5 -4t3 -3.5t3.5 -1.5t3.5 1l3 2t3.5 2t4 1h26q4 -3 8 -3h8q3 0 7.5 -0.5t8.5 0t7 2.5t3 7q0 4 -1 5.5t-2.5 2t-3.5 1t-4 1.5q-1 0 -3 2l-2 2q-4 3 -8 5.5t-6.5 4.5t-4 6t-1.5 10v7.5t1 10.5t3 9
t6 4q3 0 4 -2t1 -4q0 -4 -1 -7.5t-2 -6.5t-2 -6.5t-1 -6.5q0 -5 2 -8t7 -3h2h2q2 5 4 12t5.5 13.5t7.5 11.5t10 7q1 -1 2 -3.5l1 -2.5q0 -2 -3 -7.5t-6.5 -12t-7 -12.5t-3.5 -10q0 -3 2.5 -5t5 -4.5t4.5 -6t2 -7.5q0 -9 -4 -12.5t-10.5 -5t-13 -1t-12.5 0.5q0 -1 -1 -3t0 -2
q1 -3 4.5 -3.5t7.5 0t8 0.5t7.5 -1.5t5.5 -5.5t2 -11v-4t-1 -4t-2 -3t-4 -1q-5 0 -10 0.5t-10 0.5h-5q-2 0 -2 -1.5v-2.5q0 -2 1.5 -3t3.5 -1.5t4.5 -1t4.5 -2.5t3.5 -6.5t1.5 -12.5l2 -0.5t4 -0.5h3.5t2.5 -1h2q1 0 2 0.5t2 1.5v3v4t1 4t3 2t3.5 -1.5t1.5 -3.5v-4v-4v-6
v-8.5t-1.5 -7.5t-4.5 -3h-37q-4 0 -7.5 2.5t-6 6.5t-3.5 9t-1 9q0 1 0.5 3.5t0.5 4.5h2q2 0 2.5 -2t2 -3.5t4 -3t7.5 -1.5h5q1 0 1.5 0.5t0.5 1.5q0 4 -1.5 7t-4 4.5t-6 2t-7.5 0.5h-9l-2 -1.5t-2 -2.5v-10q0 -1 -2.5 -2.5l-2.5 -1.5h-1q-3 0 -3.5 3t-1 7t-2 6.5t-7.5 2.5
h-8t-7 -1.5t-4.5 -4.5t-1.5 -9h0.5h0.5q0 -1 0.5 -1.5l0.5 -0.5h11q1 0 1.5 1t1 2.5t1.5 3t2 1.5q2 0 3 -3t1.5 -6.5t0.5 -7.5v-4v-5v-4q-2 -2 -4 -3t-4.5 -1.5t-5.5 -0.5h-4q-10 0 -17 1t-12 4t-8 9t-3 17q0 2 1 4.5t5 2.5q2 0 3 -1.5t2 -4t2.5 -4t5.5 -1.5q3 0 4.5 0.5
t2 1.5t0.5 3t1 6q2 7 5 9.5t6.5 3.5t6 2t2.5 5q0 2 -5 3t-12 2t-13.5 3t-9.5 6q-4 12 -6.5 24.5t-3.5 26t-1.5 26t-0.5 24.5v6t3 3t5 -1t3 -3v-11.5t0.5 -17.5t1 -17t0.5 -11q1 -2 1 -6t0.5 -8.5t1.5 -8.5t2 -5q2 -2 5 -2.5l6 -1t6 0t5 0.5h7q1 0 2 1v1q0 2 -3 4t-6.5 4.5
t-6.5 6t-3 9.5v5q1 1 3 2l2 1q1 1 2 1.5l1 0.5h25l1 0.5t2 0.5v1q0 3 -2.5 5t-6 3t-8 2t-8 3t-6 6t-2.5 11v6.5t0.5 5l1 5t2.5 5.5zM114 159v-1q1 0 1.5 -0.5l0.5 -0.5q2 0 5 -0.5t6.5 -1t7 -0.5h4.5h1.5h1.5h3t2 3q0 1 -2 3.5t-4 2.5h-22q-2 0 -3.5 -1.5t-1.5 -3.5zM78 144
q0 -2 0.5 -2.5l2.5 -2.5h3t5 -0.5t5.5 -0.5h3.5h1h2q2 0 4 0.5t2 2.5q0 1 -0.5 3.5t-1.5 2.5h-26q-1 0 -1 -1v-2zM114 141q0 -1 2 -2.5t4.5 -2l5 -1t3.5 -0.5t3.5 -0.5t5.5 -0.5t5.5 -0.5t3.5 -0.5v14h-26q-7 0 -7 -6zM154 141q0 -1 0.5 -3.5t3.5 -2.5h20l0.5 1.5t0.5 2.5v1
v1l-1 1.5t-2 1.5t-3.5 0.5t-5 0.5t-5 0.5t-3.5 0.5v0h-1q-2 0 -3 -1.5t-1 -3.5zM114 125v0q0 -3 2 -4.5t5 -1.5h26l0.5 0.5t0.5 1.5h1q0 1 -1 1q0 1 -0.5 2l-0.5 1q-1 1 -4.5 1.5t-4.5 0.5h-1h-1q-1 0 -4 -0.5t-6.5 -0.5h-6.5t-5 -1zM74 83v0v-1v0v-1q1 0 2.5 -1t2.5 -1.5
l2 -1l1 -0.5h25q1 0 1.5 1t0.5 2q0 2 -1 3l-3 3h-4.5t-7.5 -0.5t-7.5 -0.5h-4.5t-3.5 -1t-3.5 -1zM178 77h11l1.5 1.5t1.5 2.5t-1 1.5t-1.5 0.5t-2 1t-2.5 1h-32q0 -4 3 -6t7.5 -2.5t8.5 0t6 0.5zM56 56q0 2 1 3.5t3 1.5q8 0 15 -0.5t14.5 -1.5t15 -1.5t14.5 0.5q2 -1 2 -2
v-2q0 -3 -1.5 -3.5t-4.5 -0.5h-3q-3 0 -10.5 0.5t-16 0.5t-16 0.5t-10.5 0.5q-2 -1 -2.5 0.5t-0.5 3.5zM128 54q0 1 0.5 2t1.5 2h21h13h12t12 -0.5t14 -1.5q2 0 2 -1.5v-2.5v-2l-2.5 -2t-2.5 -3v-2.5v-3.5q-1 -4 -4 -6t-7 -3t-7.5 -2.5t-5.5 -4.5q-2 -1 -2 -3v-3.5t-1 -3
t-3 -1.5q-3 0 -4 1t-1 2t-0.5 3t-1.5 4q-1 3 -5.5 5t-9.5 4t-8.5 4.5t-3.5 5.5q0 1 1 2.5t3 1.5q3 0 5 -1t4.5 -2.5t4.5 -3t4 -1.5q4 0 4.5 3t0.5 6v2q-3 1 -8 2t-9.5 1t-9 0.5t-6.5 0.5l-0.5 1zM173 47v-4q0 -2 0.5 -4t2.5 -2t3.5 1t3.5 2t3.5 2t2.5 2v0.5v0.5q0 3 -2.5 3
h-4.5h-5t-4 -1zM50 42v0q3 5 9 5v0l20 -11h0.5h0.5q2 0 3 1.5t2 4t2 4t4 1.5h1l4 -10h1h1q3 0 4.5 1.5t3.5 3t4 2.5t4 1q5 0 5 -4t-3.5 -6.5t-7.5 -4t-7.5 -3t-4.5 -4.5v-3.5v-5t-1.5 -4t-4.5 -1.5q-2 0 -3.5 2t-2 4.5t-0.5 4.5v3q-1 3 -6.5 5t-11.5 4t-11 4t-5 6z" />
</svg>
