<?xml version="1.0" standalone="no"?>
<!DOCTYPE svg PUBLIC "-//W3C//DTD SVG 1.1//EN" "http://www.w3.org/Graphics/SVG/1.1/DTD/svg11.dtd" >
<svg xmlns="http://www.w3.org/2000/svg" xmlns:xlink="http://www.w3.org/1999/xlink" version="1.1" viewBox="-10 0 266 256">
   <path fill="currentColor"
d="M73 241v4t3 2t4.5 -4t2 -10t1 -14t0.5 -15v-13t2 -9v-97q0 -2 1.5 -4t2.5 -2h18l0.5 -0.5t0.5 -1.5q1 0 1.5 -1.5l0.5 -1.5l-0.5 -0.5l-1 -1t-2 -1.5l-1.5 -1h-17q-1 0 -1.5 -1.5l-0.5 -1.5v-7q0 -9 1 -18.5t1 -18.5v-9q-1 -2 -2.5 -2.5t-3.5 -0.5q-1 0 -2.5 0.5
t-1.5 2.5v5.5v7.5v7.5v5.5v8.5t-0.5 10t-0.5 8v3.5l-2 2h-27q-1 0 -3 2t-2 3q1 1 2 2.5l1 1.5h31v78l-0.5 2t-0.5 4.5t-0.5 4.5t-0.5 3v7v11v10.5v7.5q-3 7 -3 15.5v16.5zM141 185v40q0 7 3 10.5t7 5t9 2t10 0.5q4 0 8.5 -0.5t8.5 -2.5t7 -6t3 -9v-41q0 -2 -1 -3.5t-2 -2.5
q-2 2 -3 3.5t-1.5 3.5t-1.5 4l-2 4h-6.5t-9 0.5t-9 0.5t-5.5 1h-2q-3 0 -4.5 -1.5t-2.5 -3t-1.5 -3.5t-2.5 -3zM147 213q0 -5 4 -8q4 -1 7.5 -1t6 -0.5t5.5 -0.5h7h9q3 1 3 4v5t-0.5 5.5t-1.5 6t-2.5 4.5t-5.5 2h-25q-3 0 -4 -2t-2 -4.5t-1 -5.5v-5zM51 223q0 2 1 2h2
q3 0 4 -4.5t2 -10t1.5 -11.5t1.5 -8q0 -22 1 -43t1 -42v-7t-4 -4q-1 0 -2 0.5t-2 1.5q1 14 0 28.5t-2.5 28.5l-3 28t-1.5 28v2t0.5 4.5t0.5 4.5v2zM97 203l1 17q1 0 2 1t2 1q3 -2 3.5 -4t0.5 -4v-4.5t-1 -4.5l-3 -108l-1 -0.5l-1 -0.5l-0.5 -0.5l-0.5 -0.5l-0.5 0.5
l-0.5 0.5l-0.5 0.5l-0.5 0.5v106zM119 169q2 4 3 5t3 1q21 0 42 -2.5t42 -1.5l5 -2v-9q-6 0 -12 1t-13 1q-5 0 -5 -6q0 -8 2.5 -12.5t5.5 -8t5.5 -8.5t2.5 -14q0 -3 -1.5 -7.5t-4.5 -4.5q-2 0 -6 -0.5t-8.5 -0.5t-8.5 -0.5t-6 -0.5h-2q-4 0 -8.5 1t-8.5 3.5t-7 6.5t-3 9
q0 9 3 13t5.5 6.5t5.5 5t3 6.5t-1 8t-5 6h-3.5t-5.5 0.5t-5.5 0.5t-3.5 1q-2 0 -5 0.5l-3 0.5l-1.5 1.5zM158 153q0 -1 0.5 -2t0.5 -2.5t1 -3t2 -1.5h16v15q0 1 -2 1.5l-4 1t-4 0.5h-2q-4 0 -6 -2t-2 -7zM146 127q0 -7 2.5 -12t8.5 -5h27q3 0 5 3.5t2 5.5q0 7 -4 10t-9 4.5
t-11 1.5h-10t-7.5 -1.5t-3.5 -6.5zM120 86q0 3 2 3.5t4 0.5h4.5t4.5 -2h54l1 -0.5t2 -0.5q1 -1 3.5 -1t6 -0.5t6 -0.5h3.5v-2q0 -2 -1 -3t-2.5 -1.5t-3.5 -1t-3 -0.5q-5 0 -10.5 1.5t-10.5 1.5q-1 0 -4 -0.5t-5 -0.5q-1 1 -2 0.5t-1 -1.5v-2v-2q0 -4 2.5 -5.5t5.5 -2.5
t7 -2.5t7.5 -5t5.5 -10.5t2 -18q0 -3 -0.5 -5.5t-3.5 -2.5q-1 0 -2 0.5t-2 1.5q1 4 1 8q0 3 -0.5 6t-2 5.5t-2.5 7.5q-1 2 -2.5 3.5t-4 1.5h-4.5h-4v-7v-10.5v-9.5v-7q0 -3 -1 -6t-3 -3t-3.5 0.5t-1.5 2.5v35q0 2 -1.5 3.5t-3.5 1.5q-5 0 -7.5 -3t-3.5 -8t-0.5 -10.5
t0.5 -9.5l-2.5 -2.5t-3 -1.5t-3.5 -0.5t-3 -0.5q0 1 0.5 3l0.5 2q0 2 1 6.5t2 9.5t2 9t1 6q1 4 3.5 6t5.5 3t6 1.5t6 0.5v3q0 5 -1.5 7t-4.5 2.5t-6.5 0t-6.5 -0.5q-1 0 -4 0.5t-6.5 1t-6.5 0.5h-4q-1 1 -1.5 2.5t-0.5 2.5zM57 24v3q0 2 0.5 7t1 10.5t1 10t0.5 7.5h2
q2 0 3.5 -0.5t2.5 -2.5v-5v-8t-0.5 -11.5t-2.5 -10t-6 -4.5q-1 0 -1.5 1.5t-0.5 2.5zM95 56l2 2q1 -1 1.5 -2.5t1.5 -2.5t1 -2.5t1 -1.5q0 -2 1 -5t2.5 -7t2.5 -7t1 -5q1 0 1 -1v-1q0 -3 -2 -5t-4 -2h-1q0 1 -0.5 2.5l-0.5 1.5q-1 2 -1.5 5t-1.5 6.5t-1.5 6.5t-0.5 4
q-1 1 -1 3.5t-0.5 5t-0.5 4v1.5z" />
</svg>
