<?xml version="1.0" standalone="no"?>
<!DOCTYPE svg PUBLIC "-//W3C//DTD SVG 1.1//EN" "http://www.w3.org/Graphics/SVG/1.1/DTD/svg11.dtd" >
<svg xmlns="http://www.w3.org/2000/svg" xmlns:xlink="http://www.w3.org/1999/xlink" version="1.1" viewBox="-10 0 266 256">
   <path fill="currentColor"
d="M77 169q3 0 4 1t1 5v76h3l5 -8v-72q0 -2 2.5 -2.5t3.5 -0.5q4 0 5.5 3.5t2 8.5t0.5 10t1 7v44q0 2 1 3t2 1t2.5 -0.5t1.5 -1.5v-46q-1 -3 -1.5 -7.5l-1 -9t-1 -8.5t-3.5 -7q-1 -2 -3.5 -3t-5.5 -2t-5 -1.5l-2 -0.5v-14l3 -2t6.5 -5t6.5 -7.5t3 -10.5q0 -7 -3 -11t-7.5 -7
l-7.5 -5t-3 -6q0 -3 3 -5t7.5 -4.5t7.5 -6.5t3 -11q0 -10 -5 -18q-1 -1 -3.5 -2l-5 -2t-4 -2t-1.5 -2v-24q0 -1 -2 -2t-3 -1t-2 1t-1 2v24q0 3 -2.5 5t-6 3.5t-6 3t-2.5 4.5v21q0 5 2.5 6.5t6 3t6 3t2.5 6.5q0 2 -3 3.5t-6.5 4.5t-6.5 8t-3 14q0 1 0.5 3.5l0.5 2.5
q0 4 2.5 7t5.5 4.5t5.5 2t2.5 1.5v14q0 1 -2.5 2.5l-5 3t-5 4l-3.5 3.5q-5 16 -7 31.5t-2 32.5v6.5t2 6.5q3 0 4 -1t1.5 -3t0.5 -4t1 -4q0 -3 1 -11.5t2 -18t2 -18t1 -12.5q1 -3 3 -5t5 -2zM126 181q0 1 1 2.5t1 2.5q2 15 3 30t5 30h2q2 0 3.5 -0.5t1.5 -2.5v-2
q0 -1 -0.5 -3t-1.5 -4.5t-1.5 -4.5t-0.5 -3q-2 -14 -4 -29t-2 -30v-16.5t1 -16.5q2 -8 4.5 -16.5t4.5 -16.5t3 -16t1 -17q0 -2 0.5 -7t-0.5 -10t-2.5 -8.5t-6.5 -3.5h-1l-0.5 0.5l-0.5 0.5v1v0.5v0.5l0.5 1l1 2l1 2l0.5 1q1 5 1.5 10t0.5 10q0 12 -2.5 24t-5.5 23.5t-5 23.5
t-2 24v4v5v6v3zM147 155q0 3 1 11t2.5 18t3 21t3.5 20t4.5 15t4.5 6t2.5 -2t0.5 -4l-0.5 -1l-0.5 -1v-2t-1 -3t-1.5 -3.5l-0.5 -1.5q-3 -17 -6.5 -34.5t-3.5 -34.5v-13q3 -4 5.5 -13.5t5 -20.5t4.5 -20.5t2 -13.5v-10t-1.5 -13.5t-4.5 -11.5t-10 -5q0 3 1 5.5t2.5 5t2.5 5
t2 4.5v4t0.5 6t0.5 6v5v4v4q0 3 -2.5 10t-4.5 14.5t-4.5 14.5t-2.5 10q-1 4 -2 6t-1.5 4t-0.5 4v5zM188 225q1 1 1.5 4t1.5 5.5t2.5 4.5t3.5 2h1l0.5 -0.5t0.5 -1.5q-1 -8 -4.5 -18t-6 -20t-4.5 -20t-2 -18q0 -12 2.5 -24.5t6 -24.5t6 -24t2.5 -25q0 -2 0.5 -6.5t0 -9.5
t-2.5 -8.5t-6 -3.5l-1 1.5t-2 1.5v1v1l0.5 1.5t1 2.5t1 2.5l0.5 1.5q2 5 2 9.5v9.5q0 12 -3 23t-6.5 22.5t-6 22.5t-2.5 23q0 8 1.5 16.5t3.5 17t4.5 16.5t3.5 15zM71 123q0 -10 5 -15t14 -5q3 0 5 1.5t2.5 3.5l1 4t0.5 4q0 4 -1 7.5t-2.5 6t-4.5 4.5t-7 2q-6 0 -9.5 -3.5
t-3.5 -9.5zM72 69v-3q0 -1 0.5 -2.5t0.5 -3.5t0.5 -4t0.5 -3q2 -3 8 -4.5t9 -1.5q5 0 6.5 4t1.5 7q0 1 -0.5 3t-0.5 4t-0.5 3.5t-0.5 2.5q-3 4 -6 4.5t-8 0.5h-7q-2 -1 -3 -3t-1 -4z" />
</svg>
