<?xml version="1.0" standalone="no"?>
<!DOCTYPE svg PUBLIC "-//W3C//DTD SVG 1.1//EN" "http://www.w3.org/Graphics/SVG/1.1/DTD/svg11.dtd" >
<svg xmlns="http://www.w3.org/2000/svg" xmlns:xlink="http://www.w3.org/1999/xlink" version="1.1" viewBox="-10 0 266 256">
   <path fill="currentColor"
d="M166 165q0 2 0.5 6t1.5 8.5t1.5 8t0.5 5.5q1 2 1.5 7.5t1.5 12t2.5 13t3 12.5t3.5 9.5t5 3.5q2 0 4.5 -1.5t2.5 -4.5q0 -4 -2 -8l-4 -8t-3.5 -8.5t-0.5 -7.5l-10 -44q0 -1 -0.5 -2l-0.5 -1q0 -5 3.5 -8.5l7 -7t7 -8.5t3.5 -13q0 -10 -5 -15t-11 -7t-10.5 -2.5t-4.5 -2.5
q0 -6 2.5 -11t6 -8.5t8 -6t8 -5.5t6 -6.5t2.5 -9.5q0 -7 -3.5 -10.5t-9 -6t-11.5 -3.5t-11 -2q-2 -1 -4.5 -2.5t-5.5 -3t-5.5 -2.5t-4.5 -1h-2.5t-1.5 2q0 3 1.5 5t3 3.5t3 3.5t1.5 5q0 6 -3 10.5t-5 10.5q-1 3 -2 7t-2 8.5l-2 9t-1 8.5q0 1 1 2t2 1v0h1q2 0 3 -2t1.5 -4.5
t0.5 -4.5v-3q1 -2 1.5 -6t1.5 -8t2 -7.5l1 -3.5l2 -6t3 -6t4 -5t6 -2q2 0 6.5 1t9.5 2.5t8.5 4t3.5 6.5l-0.5 2t-1.5 3q-5 4 -9 6.5t-7 5t-4.5 4.5t-3.5 5t-3.5 7t-2.5 11q-1 4 -6.5 5t-10.5 1q-6 0 -10.5 0.5t-4.5 3.5v0.5v0.5l1 0.5t2 0.5h6.5h10.5h9.5h6.5q4 0 8.5 1t8 3
t6 5t2.5 8q0 2 -1 5.5t-2.5 6.5t-4 5.5t-4.5 2.5t-3.5 -1.5t-2.5 -3.5t-2.5 -4t-2.5 -3q-6 -4 -14 -5.5t-15 -1.5q-5 0 -8 1t-3 6q18 0 35 4q4 2 5.5 5t1.5 7q0 3 -1.5 5t-5.5 2h-30q-2 0 -2.5 1.5t-0.5 2.5v1.5t1 1.5q1 0 3 0.5t3.5 0.5t3.5 0.5l2 0.5h1q6 0 11 -2t11 -2h5
zM87 227v1q0 1 1.5 3.5t3.5 2.5h1q2 -1 3.5 -2t1.5 -3v-1q0 -2 -0.5 -7.5t-0.5 -13.5v-16.5t-0.5 -16t-0.5 -13.5v-8v-4v-3t2 -2q4 0 7.5 3t4.5 6q0 2 0.5 7l1 10l1 10t0.5 7v3q0 2 -1 5t-1.5 6l-1 6t0.5 4q0 1 1 2t2 1v0v0q4 0 6.5 -2t2.5 -5v-2l-0.5 -1.5t-0.5 -3t-0.5 -3
l-0.5 -1.5q0 -3 -0.5 -9.5t-1.5 -13.5t-1.5 -13.5t-0.5 -9.5q-1 -3 -4.5 -6t-7 -5.5t-6 -4t-2.5 -2.5v-0.5v-1.5t0.5 -4.5t1.5 -4.5l5 -2.5t5.5 -3.5t4 -5t1.5 -6q0 -5 -2 -8t-5 -5l-6 -4t-5 -5v-3v-3q0 -5 2.5 -7.5t6 -4.5t6 -5t2.5 -11q0 -4 -2.5 -7t-5.5 -5.5t-5 -4
t-2 -2.5v-17q0 -1 -1.5 -1.5t-2.5 -0.5l-1.5 0.5t-1.5 1.5v18q-4 1 -8 3t-7 5t-4.5 7t-1.5 8q0 7 3 9.5t6.5 4t6.5 3.5t3 8l-0.5 2.5l-0.5 2.5l-1 2q-4 2 -7 4t-5 4t-3 5t-1 8t3 7.5l6 5t5.5 5t2.5 7.5q0 3 -2.5 5t-6 3t-7 2.5t-5.5 4.5q-1 2 -2 7t-2 11.5t-1.5 14t-1 14.5
t-1 12.5t-0.5 8.5q0 1 2 1.5t3 0.5h1.5h0.5q1 -1 2.5 -2l1.5 -1v-31q2 -4 2 -9v-10t1.5 -9.5t5.5 -7.5q1 -1 3.5 -2.5t2.5 -0.5l2 1l0.5 2.5l1 5l1 5t0.5 4.5v3v5.5v7.5v6q0 11 -1.5 22t-1.5 22zM81 104q0 -6 3.5 -9t9.5 -3t8.5 3.5t2.5 9.5q0 5 -4 7.5t-9 2.5t-8 -3t-3 -8z
M79 50q0 -3 1.5 -5t3.5 -3.5t4.5 -3t4.5 -1.5q4 0 7.5 4t3.5 8q0 7 -3.5 10t-10.5 3q-5 0 -8 -4t-3 -8z" />
</svg>
