<?xml version="1.0" standalone="no"?>
<!DOCTYPE svg PUBLIC "-//W3C//DTD SVG 1.1//EN" "http://www.w3.org/Graphics/SVG/1.1/DTD/svg11.dtd" >
<svg xmlns="http://www.w3.org/2000/svg" xmlns:xlink="http://www.w3.org/1999/xlink" version="1.1" viewBox="-10 0 266 256">
   <path fill="currentColor"
d="M77 152v97l1.5 0.5t1.5 1.5h1q3 0 4.5 -3.5t1.5 -6.5q0 -16 -0.5 -31.5t-0.5 -30.5v-26q0 -1 0.5 -2l0.5 -1h1q3 0 5 3.5t3.5 9t2.5 12t1 12.5v10v7q1 0 1 3v3q0 4 -1 6.5t-1 5.5t1 3.5t4 0.5h1t2 -0.5t1.5 -1t0.5 -1.5v-3v-3v-4v-2q0 -15 -1.5 -29.5t-3.5 -28.5
q0 -1 -1 -2l-1 -1q-2 -3 -5 -4.5t-5.5 -3t-4 -3.5t-1.5 -5t3 -5t6.5 -5t6.5 -7t3 -11q0 -6 -2.5 -9t-6 -5.5t-6.5 -5t-3 -7.5q0 -2 3 -4t6.5 -4.5t6 -6.5t2.5 -11t-2 -10.5t-4.5 -5.5t-5 -3.5t-3.5 -4.5v-3.5t-0.5 -5t-0.5 -5v-3.5l-1.5 -1.5t-1.5 -0.5q-2 0 -4 1t-2 3v15
q0 1 -3.5 2.5t-8 4.5t-8 7t-3.5 11q0 8 3.5 11.5t8 6t8 4t3.5 5.5q0 3 -3.5 5.5t-8 5.5t-8 7.5t-3.5 11.5t3 9.5t7 4.5t7 4.5t3 8.5q0 2 -2.5 3.5t-5.5 3l-6 3t-4 2.5t-2 2.5t-1.5 4t-1 4.5t-0.5 4v33q-2 4 -2 8v9v5.5v5.5q1 1 2.5 2t3.5 1h1l1.5 -1.5l1.5 -1.5
q0 -3 0.5 -11.5t0.5 -18.5t0.5 -18t0.5 -12q0 -1 0.5 -3.5t1.5 -5t2 -4t2 -2.5q1 0 3.5 0.5t3.5 0.5zM115 190l0.5 1.5t1.5 1.5h85q1 0 3 -1.5t2 -2.5v-1q0 -1 -0.5 -2t-1.5 -2l-0.5 -1l-0.5 -1h-40q0 -2 -0.5 -7t-0.5 -10.5t-0.5 -11t-0.5 -7.5v-2v-4q0 -5 3.5 -7.5
t8.5 -3.5t11 -1h11.5t9 -1.5t3.5 -5.5q0 -3 -2.5 -4t-4.5 -1q-8 0 -15.5 1t-15.5 1h-4h-3q0 -2 -0.5 -8.5t-0.5 -13.5t-0.5 -13.5t-0.5 -8.5v-1v0v-1v0q1 -1 1.5 -2.5l0.5 -1.5h31q2 0 3 -2.5t1 -3.5q0 -2 -1 -3t-3 -2h-5h-7h-7h-5h-14h-12t-12.5 1t-13.5 2q-5 3 -5 7h35
l3 1v4v5q0 5 -0.5 12t-0.5 13.5t-0.5 11l-0.5 4.5l-1 3h-32q-1 0 -2.5 2t-2.5 4l0.5 1.5t1.5 1.5h7h7t6 -0.5t6.5 -0.5t8.5 -1l3 3v2v4.5v4.5v5v5v7.5v6.5v4v8q0 2 -3 5q-1 0 -2.5 1l-1.5 1h-26q-3 0 -3.5 1.5t-0.5 3.5zM69 108q0 -6 3 -9.5t9 -3.5t10 3.5t4 10.5
q0 5 -3.5 8.5t-8.5 3.5q-7 0 -10.5 -3t-3.5 -10zM68 54q0 -4 1 -7t6 -5h4h4q7 0 9.5 1.5t2.5 8.5q0 6 -4 11t-11 5q-6 0 -9 -4.5t-3 -9.5z" />
</svg>
