<?xml version="1.0" standalone="no"?>
<!DOCTYPE svg PUBLIC "-//W3C//DTD SVG 1.1//EN" "http://www.w3.org/Graphics/SVG/1.1/DTD/svg11.dtd" >
<svg xmlns="http://www.w3.org/2000/svg" xmlns:xlink="http://www.w3.org/1999/xlink" version="1.1" viewBox="-10 0 266 256">
   <path fill="currentColor"
d="M67 164q3 0 4.5 1.5t1.5 5.5v76q0 3 1 3.5t3 0.5q1 0 2 -0.5t1 -1.5v-85h10q2 0 3 4t2 11t1.5 15t1 15.5t0.5 13.5v7t1 2h2h1q2 -5 2 -10v-10v-4v-3.5v-3.5v-1v-3t-0.5 -4.5t-1 -4.5l-0.5 -2q0 -2 -0.5 -6.5t-1.5 -10t-2 -9.5t-2 -4h-16v-16q0 -2 2.5 -2.5t5.5 -1.5
t5.5 -2t2.5 -3v-27q0 -2 -2.5 -2.5t-5.5 -1.5t-5.5 -2.5t-2.5 -5.5q0 -6 3 -8.5l6 -5t6 -6.5t3 -14v-9q-1 -3 -3.5 -4.5t-5.5 -3.5t-5 -4t-2 -5v-20q-5 0 -6.5 3t-1.5 7t0.5 8t-1.5 7q-1 3 -3 4t-3.5 1.5t-3.5 1t-3.5 2.5t-2 6t-0.5 12q0 5 2.5 8.5t5.5 6t5.5 4t2.5 2.5v12
q0 1 -2.5 1.5t-6 2t-6.5 5t-3 9.5q0 8 1 12t3 6.5t4.5 3t4 0.5t3 0.5t1.5 2.5v15l-0.5 1t-1.5 1h-1.5t-3.5 0.5t-3.5 1l-1.5 0.5q-3 1 -5 5.5t-3.5 11t-2 14t-1 14.5t-0.5 13v8q0 3 0.5 4t2.5 1t4.5 -0.5t2.5 -2.5v-50q0 -1 0.5 -3.5t2 -4.5t3 -3.5t3.5 -1.5zM152 152
q0 24 0.5 48.5t2.5 48.5h0.5h1.5q2 0 3 -0.5t2 -2.5v-3v-4.5v-3.5v-3q0 -15 -2 -30.5t-2 -30.5v-7q0 -4 0.5 -9t0.5 -10t0.5 -8.5l0.5 -3.5l3 -4h32q0 -6 -3.5 -7t-7.5 -1h-2h-5t-6.5 0.5t-6 1l-2.5 0.5h-1.5t-3 0.5t-2.5 1t-2 1.5q0 4 -0.5 7.5t-0.5 6v6.5v6zM61 118
q0 -8 4.5 -10.5t11.5 -2.5q3 0 6.5 0.5t5.5 3.5v3v3q0 7 -3 11.5t-10 4.5t-11 -3t-4 -10zM146 44q0 2 -2 6t-4.5 8.5t-4 9t-2.5 5.5q-2 5 -5.5 10.5l-7 11t-6 11.5t-2.5 10q4 0 7.5 -2.5t5.5 -5.5t3.5 -7t2.5 -7h9.5h11.5t11.5 -0.5t10.5 -1.5l0.5 -1l0.5 -1h0.5t0.5 -1
l-0.5 -0.5l-0.5 -0.5l-2 -0.5t-3 -0.5h-32v-7l1.5 -3.5t3.5 -8t4.5 -9.5t4.5 -8l1.5 -2.5l1.5 -2.5l0.5 -1t1.5 -1q4 3 10 12t12.5 19t12.5 19.5t9 14.5l1.5 1l1.5 1h0.5h0.5q2 0 2.5 -1t0.5 -3t-3.5 -8t-8 -12l-9 -12t-7.5 -9q-4 -7 -7.5 -15.5t-9.5 -15.5l-1 -1l-2 -2
l-2 -2l-1 -1q-2 1 -3.5 3t-2 4t-2 4.5t-3.5 3.5zM63 58v-4.5t2 -4.5q5 -2 8 -2.5t8 -0.5q6 0 8 2.5t2 8.5q0 7 -4 12.5t-11 5.5q-4 0 -6.5 -1.5t-3.5 -4.5t-2 -5.5t-1 -5.5z" />
</svg>
