<?xml version="1.0" standalone="no"?>
<!DOCTYPE svg PUBLIC "-//W3C//DTD SVG 1.1//EN" "http://www.w3.org/Graphics/SVG/1.1/DTD/svg11.dtd" >
<svg xmlns="http://www.w3.org/2000/svg" xmlns:xlink="http://www.w3.org/1999/xlink" version="1.1" viewBox="-10 0 266 256">
   <path fill="currentColor"
d="M158 249l3 1.5t2 0.5q4 0 6 -3t2 -6q0 -4 -1 -6.5t-1 -5.5v-1q0 -3 0.5 -6.5t0.5 -7.5t0.5 -6.5t0.5 -3.5q0 -2 1 -4.5t2 -4.5q3 -2 7 -4t8.5 -5t7.5 -6t5 -7t2 -9t1 -10v-61l-0.5 -2l-0.5 -2q0 -2 -0.5 -5.5t-1 -7.5t-0.5 -7.5v-4.5q-2 -7 -7.5 -9.5t-12 -4t-11.5 -3.5
t-5 -7t1 -9t1 -9q0 -2 -1 -5t-4 -3h-1v0q-2 0 -4 2t-2 3v25l-2 1.5t-3 2.5q-4 3 -7.5 6t-7 6.5t-6 7.5t-3.5 8v4v7v7v4q0 13 -1.5 26t-1.5 25q0 6 2.5 12.5t6.5 12.5t9.5 9.5t12.5 3.5h4t3 -2t-4.5 -4.5t-9.5 -6t-9.5 -8.5t-5.5 -12v-28q0 -12 -0.5 -22t1 -19t6.5 -16
t15 -13q4 -2 5.5 -2.5t4.5 -0.5q10 0 16 4t9 10t4.5 14t2 16.5t0 16t-0.5 13.5v20t-1.5 14t-6 11t-13.5 12q-6 5 -9.5 10.5t-5 12t-2 13t-0.5 14.5v14zM84 232q-1 2 0 2.5t3 0.5t3 -1t2 -3t1 -4v-3q0 -18 -1.5 -36t-1.5 -36q5 0 7.5 2t3.5 8q2 14 3 28.5t0 28.5l1 2
q1 1 2.5 1.5l1.5 0.5q0 -1 2 -2.5t2 -2.5v-9q0 -12 -1.5 -23.5t-2.5 -23.5q-1 -8 -4.5 -11.5t-6.5 -6t-5.5 -4.5t-2.5 -5t1 -5t3.5 -3l5 -2t4.5 -3t3.5 -6t1.5 -10q0 -4 -2 -6.5t-4.5 -4.5t-6 -3.5t-6.5 -3.5v-1q0 -8 3 -10.5t6.5 -4.5t6.5 -5.5t3 -12.5v-2.5v-3t-0.5 -3
t-1.5 -2.5l-1.5 -1l-3 -2l-3 -2t-2 -1.5l-1 -1l-0.5 -0.5q-2 -2 -2 -6v-8.5t-1 -6.5t-5 -3q-3 0 -3.5 1t-0.5 4q0 2 -0.5 4.5t-0.5 5.5t0.5 5.5t0.5 3.5q-2 1 -5 2t-6 3t-5.5 4.5t-2.5 4.5v16l1 1l2 2l2.5 2.5l2.5 2.5q2 1 3.5 1.5l3 1t2 2t0.5 4.5q0 5 -3 7t-7 4.5t-7 6
t-3 11.5q0 7 3 9.5t6.5 4.5t6.5 3.5t3 6.5q0 1 -0.5 2.5t-0.5 2.5q-7 2 -11.5 7t-7 12.5t-3 16t-1 16.5t-0.5 16v13v2q0 3 4 3q3 0 4.5 -2t2.5 -5q-1 -14 -0.5 -30t3.5 -31q1 -4 4.5 -6t7.5 -2q0 21 0.5 41t0.5 41zM146 105l1 44q0 3 2.5 4.5l5 3t5.5 2t4 0.5
q10 0 14.5 -4.5t6.5 -11t2 -14.5v-15v-4v-6q0 -4 -0.5 -7t-0.5 -4q-1 -4 -3.5 -6t-6 -3t-7 -1.5t-6.5 -0.5q-5 0 -8 2t-5 5.5t-3 7.5t-1 8zM170 122q3 0 4.5 0.5t2.5 3.5v3.5v4.5q0 5 -1 9.5t-5 7.5h-6h-7l-1.5 -1l-1.5 -1v-23q0 -2 2 -2.5t4.5 -1t5.5 -0.5h3zM71 109
q0 -3 2 -5.5t5 -4t6 -2t6 -1.5q4 1 7 5.5t3 9.5q0 6 -4.5 9t-11.5 3q-6 0 -9.5 -4t-3.5 -10zM154 111l1 -15q1 -2 2.5 -3.5t3.5 -2.5t4.5 -1.5t3.5 -0.5q5 0 6 3q1 5 1.5 8.5t0.5 7.5q0 3 -2 5t-4.5 3t-5.5 1.5t-6 0.5q-2 0 -3.5 -1.5t-1.5 -4.5zM76 55q0 -6 3 -8.5t9 -2.5
t9.5 1.5t3.5 8.5q0 4 -2.5 9t-7.5 5q-8 0 -11.5 -3t-3.5 -10z" />
</svg>
