<?xml version="1.0" standalone="no"?>
<!DOCTYPE svg PUBLIC "-//W3C//DTD SVG 1.1//EN" "http://www.w3.org/Graphics/SVG/1.1/DTD/svg11.dtd" >
<svg xmlns="http://www.w3.org/2000/svg" xmlns:xlink="http://www.w3.org/1999/xlink" version="1.1" viewBox="-10 0 266 256">
   <path fill="currentColor"
d="M119 200q0 13 -1 25.5t-1 25.5q3 0 6 -1.5t3 -4.5v-45l2 -8h3h4h5.5t7 0.5t6.5 2t3 5.5v42q0 2 1 2.5t2 0.5q4 0 5 -3t1 -6v-5q-1 -4 -0.5 -11t0 -13.5t-3 -12t-9.5 -8.5q-6 -2 -11.5 -3t-11.5 0q-2 -1 -2.5 -2t-1 -2.5t-1.5 -2.5t-3 -1l-0.5 0.5t-1.5 0.5q0 5 -2.5 7
t-6 3t-7.5 1.5t-8.5 1.5t-8 4t-4.5 8q-2 6 -2 13v13v3v6v5v4l0.5 0.5t1.5 0.5q0 1 1 1.5t2 0.5q0 -1 2 -2.5t2 -2.5v-5.5v-10.5v-8.5v-6.5q1 -12 6 -16t17 -4h2.5h1.5l2 2v2.5v3.5zM98 154q0 6 2 10t10 4h31q3 0 6.5 -2.5t4.5 -4.5v-3v-4q0 -9 -3.5 -13t-8 -5t-8 -2t-3.5 -5
v-2t2 -2q6 -1 10 -1.5t6.5 -2t3.5 -4.5t1 -9t-1.5 -9t-4 -4.5t-5.5 -2t-5.5 -1.5t-4.5 -3t-2 -7q0 -1 0.5 -1h0.5v-6.5t0.5 -9t1 -8.5t0.5 -6q1 -3 4 -3h6t6 -1t3 -5q0 -2 -2.5 -7.5t-6 -11.5t-7.5 -10t-7 -4t-7.5 4t-8.5 9.5t-7 11t-3 8.5v1v0q2 4 4.5 5t4.5 1t3.5 -0.5
t3.5 0.5t3.5 3.5t3.5 7.5v0v1v0q0 1 -0.5 3.5l-1 5l-1 5t-0.5 3.5v0v1v3t0.5 3.5t0.5 3.5v2q-3 4 -7 5t-8 1.5t-6.5 3.5t-2.5 11v6q2 3 5.5 4t7.5 2t7 2.5t3 5.5v2q0 2 -2 2q-5 1 -9 2t-7 3t-4.5 5.5t-1.5 8.5zM105 153q0 -4 2 -6.5t5.5 -3.5t7 -1.5t7.5 -0.5q3 0 6 0.5
t6 1.5t4.5 3t1.5 6q0 1 -0.5 2l-0.5 1q0 1 -2.5 3.5t-3.5 2.5h-27q-3 0 -4.5 -3t-1.5 -5zM145 107q0 5 -2 7.5t-5.5 3.5t-7.5 1h-9h-3t-3.5 -0.5t-3 -1.5t-1.5 -3v-12l0.5 -0.5l0.5 -0.5q1 -1 3.5 -2l2.5 -1h23q2 0 3 1t1.5 2.5t0.5 3.5v2zM61 82q0 2 2.5 3.5t6 2.5t6.5 1h4
h7t8 -1t6.5 -3.5t2.5 -6.5q0 -3 -1.5 -8t-4 -10t-5.5 -8.5t-6 -3.5h-1q-4 3 -8 7t-7.5 8.5t-6.5 9t-3 9.5zM149 80q0 2 0.5 3.5t2.5 2.5h14h13t14 -2q2 0 2 -3v-3q0 -3 -1.5 -4.5t-3 -3.5t-2.5 -4t-1 -4l-12 -12q-1 0 -2.5 -1t-2.5 -1q-3 0 -6.5 4t-6.5 9.5t-5.5 11
t-2.5 7.5zM73 75q0 -2 1.5 -4.5l3 -5t4 -4t4.5 -1.5t4 1.5t3.5 4t2 5t0.5 4.5v2v1q0 1 -1 1.5t-2 0.5h-2.5t-3.5 0.5t-3.5 1t-2.5 0.5q-2 0 -5 -2t-3 -5zM156 76q0 -2 1.5 -5t3.5 -5.5t4 -4.5t4 -2q3 0 5.5 2t4.5 4.5t3.5 5t2.5 4.5v3l-21 4q-2 0 -5 -2t-3 -4zM112 35
q0 -1 1.5 -4.5t4 -6.5t5 -5.5t3.5 -2.5q3 0 5.5 2.5t4 6l3 7t1.5 5.5v4q-3 2 -6 2h-6h-5t-5 -1t-4 -2.5t-2 -4.5z" />
</svg>
