<?xml version="1.0" standalone="no"?>
<!DOCTYPE svg PUBLIC "-//W3C//DTD SVG 1.1//EN" "http://www.w3.org/Graphics/SVG/1.1/DTD/svg11.dtd" >
<svg xmlns="http://www.w3.org/2000/svg" xmlns:xlink="http://www.w3.org/1999/xlink" version="1.1" viewBox="-10 0 266 256">
   <path fill="currentColor"
d="M77 249q0 1 1.5 1.5t2.5 0.5t2 -0.5t2 -1.5l2 -13v-75h4l0.5 1t1.5 2.5t1.5 3t1.5 2.5q0 1 0.5 3.5t1 3.5t0.5 3t0.5 4t0.5 3.5v2.5v8.5v13.5v13.5v9.5q1 1 2 1h2q3 0 3.5 -3t2.5 -5v-10q0 -13 -1.5 -26t-2.5 -25q-2 -5 -4.5 -8t-5.5 -5.5t-5 -4.5t-2 -5t3.5 -5t8 -4.5
t8.5 -7.5t4 -16q0 -7 -3.5 -11t-7 -6l-7 -4t-3.5 -6t3.5 -6t7.5 -4.5t7.5 -6.5t3.5 -13v-1q0 -2 -1 -5.5t-2 -4.5q0 -1 -3 -2.5l-6 -3t-5.5 -2.5l-2.5 -1v-20q0 -1 -2.5 -1.5l-2.5 -0.5q-7 0 -7 8q0 2 1 4t1 4q0 6 -4 8t-8.5 3.5t-8.5 4.5t-4 10q0 9 1 12.5t4 5.5t7 3.5
t10 4.5v4q0 4 -1.5 5.5t-4 2.5t-5.5 2t-5 2t-4 3.5l-2 2.5v18q0 6 3 8.5t7 5.5t7.5 5.5t3.5 6.5q0 3 -4 5.5t-8.5 5.5t-8.5 7t-5 9t-1 10q0 6 -2 10q0 2 -0.5 6.5t-0.5 10t-0.5 10.5t-0.5 7v5v5q4 0 6 -2t3 -5t1.5 -6.5t0.5 -6.5q1 -2 1 -7.5t0.5 -11l1 -11t0.5 -7.5
q1 -2 2 -5.5t2.5 -7t4 -6t5.5 -2.5h1q0 1 0.5 3t0.5 3v3t-0.5 4.5t-0.5 4.5v3v5v9.5v10.5v9v7v10.5v10.5v7zM161 238q0 4 1 7t5 3q1 0 2.5 -0.5t0.5 -3.5v-85q0 -2 0.5 -7.5t1 -11.5t0.5 -11v-7q0 -1 0.5 -2.5t1.5 -2.5l0.5 -1l0.5 -1h18q1 0 1.5 -1.5t0.5 -2.5
q-1 -1 -2 -2.5t-2 -1.5h-49q-1 0 -1.5 1.5t-0.5 2.5t0.5 2t2.5 1q1 0 4 0.5t5.5 0.5t5 0.5t3.5 0.5l2 1v5v9v11v9q0 22 -1 43.5t-1 43.5zM124 221v5.5v7t1 6.5t4 3q2 0 2.5 -0.5t0.5 -3.5q0 -1 0.5 -4t1 -6.5t0.5 -7v-4.5v-5v-10v-10v-6q1 -28 2.5 -56t0.5 -56
q1 -14 9.5 -20t20.5 -6q13 0 19.5 5.5t9 14.5t2.5 20t1 21v106q0 2 0.5 5.5t0.5 7t0.5 7t0.5 4.5q-1 3 0.5 3.5t3.5 0.5h2t2 -2v-4v-6.5v-6.5v-4v-5v-7v-6v-3q0 -3 -0.5 -12.5t-1 -22.5t-1 -27.5t-1 -27.5t-1 -22.5t-0.5 -12.5q0 -4 -0.5 -8t-1.5 -8t-2.5 -7.5t-4.5 -5.5
q-6 -3 -11.5 -5t-11.5 -3l-2 -2v-19q0 -2 -2.5 -3t-3.5 -1q-3 0 -4.5 2t-1.5 5t0.5 6.5t0.5 6.5q0 5 -2.5 7t-6 2.5t-7.5 1.5t-6 5q-1 2 -2.5 4.5t-3 5.5t-2.5 6.5t-1 5.5q0 1 -0.5 4.5t-0.5 8t-0.5 8t-0.5 4.5v1q0 7 1.5 13.5t1.5 12.5q0 1 -0.5 3.5l-0.5 2.5q0 24 -2 46.5
t-2 46.5zM182 140v1q0 6 0.5 15.5t0.5 18.5v15.5v7.5q0 2 0.5 5t1 6.5t1 6.5t1.5 6h0.5h0.5q4 0 4.5 -2.5t0.5 -5.5q0 -11 -2 -22.5t-2 -22.5q0 -8 1 -14.5t1 -13.5q0 -2 -1 -4t-3 -2t-3.5 1.5t-1.5 3.5zM140 210h0.5h0.5q0 1 0.5 3.5t0.5 3.5h1q2 0 3.5 -3.5t3 -9.5
t2 -13.5t1 -14.5t0.5 -12.5v-8.5q0 -1 0.5 -4t0 -6t-1.5 -5t-3 -2h-1q-1 1 -2.5 2l-1.5 1v58q0 1 -1.5 5t-1.5 5zM67 114q0 -5 2 -8t5 -5.5t7 -3.5t8 -1q7 0 10 5.5t3 11.5q0 3 -1 6.5t-3 6t-4.5 4.5t-6.5 2q-3 0 -7 -1.5t-6.5 -3.5t-4.5 -5.5t-2 -7.5zM145 79q0 2 1 2.5
t4 0.5h28q5 0 7 -3.5t2 -7.5h-5t-8.5 0.5t-8.5 0.5h-6l-2.5 0.5l-5 1t-4.5 1.5t-2 4zM69 56q0 -4 2 -6.5t5 -4t6.5 -2t7.5 -0.5q3 0 7 1.5t7 5.5v2.5v2.5q0 3 -1.5 6.5t-4 5.5t-5.5 3.5t-6 1.5q-8 0 -13 -4t-5 -12z" />
</svg>
