<?xml version="1.0" standalone="no"?>
<!DOCTYPE svg PUBLIC "-//W3C//DTD SVG 1.1//EN" "http://www.w3.org/Graphics/SVG/1.1/DTD/svg11.dtd" >
<svg xmlns="http://www.w3.org/2000/svg" xmlns:xlink="http://www.w3.org/1999/xlink" version="1.1" viewBox="-10 0 266 256">
   <path fill="currentColor"
d="M191 128l1 2l0.5 5.5t1 13.5l1 16t0.5 14v8t0.5 14t1 16.5t1.5 16t2.5 12t4.5 4.5q2 0 4 -3t2 -5q0 -1 -0.5 -3.5l-1 -5t-1 -4.5t-0.5 -3l-0.5 -2t-0.5 -4t-0.5 -3.5t-0.5 -2.5v-11.5t-0.5 -12.5t-2 -12t-3.5 -11q1 -23 -0.5 -44.5t-1.5 -43.5q0 -12 2 -23t2 -22
q0 -3 -2 -4.5t-4 -1.5q-3 0 -4 2t-1 5.5t0.5 7.5t-0.5 7.5t-4.5 6t-10.5 2.5h-3.5h-3.5l-1 -2v-8q0 -7 1 -12.5t1 -11.5q0 -2 -1 -5.5t-4 -3.5q-2 0 -3.5 2t-2 4.5t-1 5.5t-0.5 4l0.5 3.5t0.5 7t0.5 7l0.5 3.5v2v4v5v3v9t-1 6.5t-3.5 3.5t-8.5 1h-3q-1 0 -3.5 -0.5t-4 -1.5
t-1.5 -3v-54q0 -2 -2 -2h-3q-2 0 -3.5 1.5t-1.5 4.5v18q1 1 1.5 5t0.5 9.5t0.5 10.5t0.5 7v25q0 22 -0.5 43t-4.5 42v3.5t-0.5 5.5t-0.5 5.5v2.5q-1 2 -1 5t-0.5 6t-1 5t-1.5 3l-0.5 1.5t-1.5 3.5t-1.5 3.5l-0.5 1.5q-1 1 0.5 4t3.5 3q3 0 5.5 -5.5t4.5 -14.5t3.5 -20t2 -21
t1 -18t0.5 -11v-4t0.5 -6.5t0.5 -7v-4.5q1 -2 3.5 -3t5 -1.5t5.5 -0.5h5h1.5h1.5l2 4v37q0 1 -2 1h-2h-1.5t-3 -0.5t-2.5 -1t-1 -1.5v-18h-1t-2 0.5t-1.5 1t-0.5 1.5v39q0 9 4.5 13t12.5 4q9 0 14.5 -2.5t8 -7t3 -11.5t0.5 -17v-2v-4.5v-3.5v-3q-1 -3 -2.5 -6t-4.5 -3v17
l-0.5 1l-0.5 1q-1 0 -2.5 1t-2.5 1h-1h-1q-1 0 -2 -1l-1 -1l-1 -35l2 -4h22zM72 240q1 0 2 0.5t2 1.5h1q1 0 2 -2t2 -5t1 -5.5v-3.5q0 -15 -1 -28t-1 -28q-1 -2 -1 -4.5v-5.5q0 -2 1 -4.5t4 -2.5q4 0 6.5 5t3.5 12.5t1.5 16t1.5 16t2 12.5t3 5v-0.5t1 -0.5l2.5 -5t1.5 -6
q-2 -12 -3.5 -23.5t-2.5 -22.5q-2 -4 -5 -7.5t-6 -6t-5.5 -5t-2.5 -6.5q0 -2 3 -4t6.5 -4.5t6.5 -6.5t3 -9q0 -7 -3 -12t-6 -8.5t-6 -6t-3 -5.5q0 -4 3 -6t6 -3.5t6 -4.5t3 -9v-7.5t-2 -7.5q0 -2 -3 -4.5t-6 -4.5t-5 -3l-2 -1v-16l-1 -0.5t-2 -0.5q0 -1 -1.5 -1.5l-1.5 -0.5
q-1 0 -3 2.5t-2 4.5q0 1 -0.5 2.5t-0.5 4t-0.5 4.5t-0.5 3q-1 2 -2 2q-2 0 -4 1q-4 3 -7.5 9t-3.5 12q0 5 1.5 7.5t4.5 6.5q2 2 4 3l4 2t3.5 2.5t1.5 4.5q0 4 -3.5 6.5t-7.5 5.5t-7.5 7t-3.5 10q0 8 3 12t7 6t7.5 4.5t3.5 7.5l-0.5 1.5t-0.5 2.5q-4 3 -7.5 4.5t-6 3.5
t-4.5 5t-4 9l-2 24t-1 24v4t0.5 3.5t1.5 2.5t4 1q2 0 3 -0.5t2 -2.5q-1 -16 0 -31t3 -30q2 -2 4 -3.5t5 -1.5q1 0 2 0.5t0 4.5q1 18 2 38.5t0 39.5zM149 185q0 -2 1.5 -5t4.5 -3h19q2 0 2.5 1t1 2.5t0.5 3.5v2q0 4 -1.5 6.5t-4.5 4t-6 2t-6 0.5q-6 0 -8.5 -4t-2.5 -10z
M61 114q0 -4 0.5 -7t2.5 -5.5t4 -4t6 -1.5q3 0 6.5 1t6.5 3t4.5 5t1.5 7t-1.5 6.5t-4 4.5t-5.5 2.5t-7 0.5q-6 0 -10 -2.5t-4 -9.5zM136 116v-3q0 -2 0.5 -4t0.5 -4.5t0.5 -4l0.5 -1.5l2 -1q0 -1 1.5 -1.5t4 -1t4.5 -1t4 -0.5l2 0.5t2 1.5q1 0 1.5 0.5t0.5 1.5v22h-22
q-2 0 -2 -2v-2zM168 104v-3.5v-2.5l1 -2l2 -0.5t4.5 -0.5t5.5 -0.5t5 -0.5h5v26h-20l-0.5 -1t-1.5 -1q-2 -4 -1.5 -6.5t0.5 -7.5zM168 82v-6v-6l0.5 -1.5l0.5 -1.5h20v19l-2 1l-2 0.5l-2 0.5q-4 0 -8.5 -1t-6.5 -5zM64 58q0 -10 5 -14t14 -4q1 0 2.5 1l3 2t2 2t0.5 2v15
q0 2 -1.5 3t-4 1.5t-5.5 0.5h-3q-5 0 -9 -1.5t-4 -7.5z" />
</svg>
