<?xml version="1.0" standalone="no"?>
<!DOCTYPE svg PUBLIC "-//W3C//DTD SVG 1.1//EN" "http://www.w3.org/Graphics/SVG/1.1/DTD/svg11.dtd" >
<svg xmlns="http://www.w3.org/2000/svg" xmlns:xlink="http://www.w3.org/1999/xlink" version="1.1" viewBox="-10 0 266 256">
   <path fill="currentColor"
d="M123 201q1 1 1 5.5t0.5 10t0.5 11.5t0.5 11t1 8.5t1.5 3.5q3 0 4 -3.5t1 -5.5q0 -10 -0.5 -20t-0.5 -20q1 0 4.5 -0.5t4.5 -0.5q4 1 5.5 7.5t2.5 14.5t2 14.5t4 6.5t3 -2v-5q0 -8 -1.5 -15t-4.5 -15q-1 -5 -4.5 -7.5t-7 -4.5t-6 -3t-2.5 -2q0 -3 1.5 -4t3.5 -2t4.5 -1
h3.5q3 -3 3 -5v-5q0 -10 -2 -13t-4.5 -4.5t-4.5 -2t-2 -3.5q0 -2 1.5 -3.5t4 -3.5t4.5 -5.5t2 -11.5q0 -3 -2 -5t-4.5 -3.5t-4 -2.5t-1.5 -2v-11q0 -1 1.5 -1.5t4.5 -1t5 -0.5h3h3t1 0.5v2.5q0 1 1 3q1 11 2.5 22t3.5 22q3 21 8 41t8 40q0 2 0.5 4l1 4t1 3.5l0.5 1.5l3 3
l3 -3v-2v-4q0 -9 -3 -17.5t-5 -18.5q0 -1 -0.5 -4.5l-1 -7t-0.5 -6.5t-1 -4q-1 -10 -3.5 -19.5l-5 -19t-4 -19t-1.5 -19.5l0.5 -1.5l0.5 -1.5h27q1 0 2.5 -1t1.5 -3q0 -3 -2 -4t-4 -1h-4q-2 1 -9 1.5t-15 1.5t-15 1.5t-8 0.5h-8.5t-13 0.5t-15 0.5h-14.5h-13h-8q0 6 6 6h29
q1 0 1.5 1.5l0.5 1.5v2q-1 2 -1.5 8.5t-1 14.5t-1.5 15t-1 9q-1 10 -2 21.5t-2.5 23t-5 22t-9.5 19.5v1.5v0.5q0 3 3 3t5 -3.5t2 -5.5l6 -18q0 -1 1 -4t1.5 -6t1.5 -5.5t1 -3.5t0.5 -7t1.5 -13t1.5 -13t0.5 -8l0.5 -2.5t0.5 -3.5l5 -50h2t4.5 -0.5t3.5 -0.5h2h2h1h2h2t1 1
v14q0 1 -1.5 2t-3.5 2.5t-3.5 4t-1.5 5.5q0 5 1.5 7.5t3.5 4t3.5 3.5t1.5 5q0 4 -2 5t-4.5 2t-4.5 4t-2 12v6q1 1 3 2t3.5 2l3 2t1.5 3q0 3 -1.5 5t-3.5 3t-4.5 2t-4.5 3q-3 3 -6 8t-4.5 11t-2 11.5t-0.5 9.5q0 2 0.5 3t1.5 1q3 0 4 -3.5t2 -8.5t2 -10.5t2.5 -10.5t4 -8
t7.5 -3h0.5h0.5zM120 168v-2v-2l3 -3h16q1 0 1.5 1t0.5 2v2v4v3v3q-2 3 -5.5 3h-5.5h-7q-3 -2 -3 -5v-6zM123 129q0 -6 7 -6q3 0 7 1t4 5q0 6 -2 8t-7 2q-9 0 -9 -10zM100 36v6.5v9.5v10v6q0 6 1.5 9t4 4.5t6 1.5h8.5h9t14.5 -0.5t13.5 -2.5t6 -6v-35l1 -1.5t2 -2.5
q0 -1 0.5 -1.5l0.5 -0.5h22q2 0 3 -3t1 -4h-26v-15q0 -1 -1 -1h-2t-1.5 0.5t-1.5 2.5v2.5t-0.5 4.5t-0.5 4.5v2.5q-13 0 -25.5 1t-25.5 1q-2 0 -3 -1.5t-1 -3.5v-4.5v-3.5q0 -2 -1 -2h-2h-1t-1 2v10l-3 3l-30 3v1v2t2 1h31zM114 75v0v-1q4 -4 9.5 -8.5t11.5 -4.5h2.5h1.5
l12 12v3q-4 0 -7.5 0.5t-6 0.5h-5.5h-7h-8l-1 -0.5t-2 -0.5v-0.5v-0.5zM107 42q2 0 5.5 1t7 3t5.5 4.5t2 4.5q0 1 -2 3t-5 4.5t-5.5 4.5t-3.5 2t-1 -0.5v-0.5q-1 0 -2 -1l-1 -1v-24zM142 54q0 -2 1.5 -4t3.5 -4t4 -3t4 -1q1 0 1.5 0.5t0.5 1.5v17q0 1 -1.5 3t-2.5 2t-3 -1.5
t-4 -3.5t-3 -4t-1 -3zM115 37l0.5 -0.5l0.5 -0.5l0.5 -0.5l0.5 -0.5q8 -1 17 -1.5t17 -0.5q0 2 -2.5 4.5l-5.5 5.5t-6 5t-4 2t-4 -1.5t-6 -3.5t-5.5 -4.5t-2.5 -3.5z" />
</svg>
