<?xml version="1.0" standalone="no"?>
<!DOCTYPE svg PUBLIC "-//W3C//DTD SVG 1.1//EN" "http://www.w3.org/Graphics/SVG/1.1/DTD/svg11.dtd" >
<svg xmlns="http://www.w3.org/2000/svg" xmlns:xlink="http://www.w3.org/1999/xlink" version="1.1" viewBox="-10 0 266 256">
   <path fill="currentColor"
d="M161 246q1 2 2 3.5t3 1.5t4 -2t2 -4v-50l3 -3l20 -3q3 0 4.5 -3.5t2.5 -7.5t1.5 -8t0.5 -6q0 -1 -1 -4t-2.5 -6t-3.5 -5t-4 -2h-18q-2 0 -3.5 -1.5t-1.5 -3.5q0 -4 3.5 -5t8.5 -2t9 -3t5 -8l0.5 -2.5t0.5 -5.5t0.5 -6t0.5 -5v-3q0 -4 -4.5 -6t-9.5 -3t-11 -1h-7h-12
q-2 1 -4 2.5l-4 3t-3 3t-1 2.5v23q0 5 3 6.5t7 2.5t7.5 2.5t3.5 5.5v0q-1 1 -2 2.5l-1 1.5q-6 0 -11.5 0.5t-9.5 2.5t-6 6t-2 11q0 10 1.5 14.5t5 6.5t9 2h13.5q0 1 1 1.5t2 0.5v4q0 10 -1 20t-1 20v2v3v3.5v1.5zM81 233q0 1 1 2.5t3 1.5t3.5 -4t2 -10t1 -13t1 -13.5
t0.5 -11.5v-7l-0.5 -1.5t-0.5 -3t-0.5 -2.5t-0.5 -2v-1q0 -2 0.5 -5t1 -6.5t1.5 -6t4 -2.5q5 0 7.5 2.5t3 6.5t0 8.5t-0.5 8.5q0 13 -0.5 26t-0.5 26q0 1 -0.5 2t0 2.5t1 2.5t1.5 1q4 0 5.5 -4t2 -9t0.5 -10.5v-8.5v0v-1v-5t-0.5 -9t-0.5 -9.5v-5.5q-1 -9 -0.5 -14.5
t-1 -8.5t-6 -4.5t-14.5 -2.5q-1 -2 -1 -3.5v-4.5q0 -5 4 -6.5t9.5 -3t9.5 -5t4 -13.5q0 -4 -3 -6.5t-7 -4t-7.5 -2.5t-3.5 -2v-15q0 -2 3 -2q4 0 8 -1.5t7 -5.5t3 -15q0 -6 -3 -8.5t-6.5 -4t-6.5 -2.5t-3 -5v-18l-0.5 -0.5l-1.5 -1.5h-1q-5 0 -6.5 3.5t-2 7.5t0 8.5t0.5 6.5
q-4 1 -8.5 2t-8 3t-6 5t-2.5 8t2 8.5t5.5 6t7.5 3.5l8 2v13l-2 3q-4 1 -8 1.5t-8 1.5t-6.5 3.5t-2.5 7.5q0 7 4 11t8.5 6.5t8.5 4t4 4.5q0 6 -4 8t-9 3t-9.5 2.5t-5.5 7.5q-3 15 -3.5 29t-0.5 30v9v9q0 1 1 1h2q3 0 4 -1t1 -5q2 -15 2.5 -29.5t1.5 -29.5q0 -1 0.5 -4.5
t1.5 -6t2.5 -5t2.5 -2.5h11q0 22 -1.5 43t-1.5 42zM138 172v-1q0 -1 0.5 -2.5t1 -3.5t0.5 -3.5v-2.5q2 -3 6.5 -4.5t9 -2t9 -0.5h6.5h3t3.5 0.5t3.5 0.5h2l8 3q1 0 1.5 2t0.5 4v3.5v4.5v4.5v3.5q0 3 -2 4t-5 1.5t-5.5 0.5h-4.5h-2t-2 -1v-12h17q1 0 1 -1.5v-1.5
q0 -2 -0.5 -3t-2.5 0q-1 0 -5 -0.5t-5 -0.5q-8 0 -15.5 1t-15.5 1q0 4 3 4.5t6 0.5t5.5 1t2.5 6v3.5t-2 2.5h-3h-3q-2 0 -5.5 -0.5t-6 -2t-4 -4t-1.5 -5.5zM150 121l0.5 -1t0.5 -2h5t8.5 -0.5t9 -0.5h5.5h2q5 0 5 3q0 4 -2.5 6.5t-6 3.5t-7.5 1.5t-7 0.5q-4 0 -8.5 -3
t-4.5 -8zM72 111q0 -4 1 -7t5 -4q1 0 3.5 -0.5t6 -0.5t6 -0.5t3.5 -0.5h2q4 0 7.5 3t3.5 7q0 1 -0.5 3.5t-1 4t-2 3t-3.5 1.5h-24q-2 0 -4.5 -3t-2.5 -6zM151 107q0 -2 2.5 -4.5t4.5 -2.5h25q2 0 3 2t1 4t-1.5 3t-2.5 1h-31q-1 0 -1 -1v-2zM144 57q0 1 0.5 5.5t1 9.5t2 9
t3.5 4t3 -1.5t1 -3.5q0 -6 -2 -11.5t-2 -12.5t5.5 -10t12.5 -3q1 0 2 1.5t1.5 3.5t0.5 3.5v1.5q1 2 1.5 5.5l1 7t0.5 7v4.5q1 1 2 3t2 2q2 0 3.5 -1.5t1.5 -3.5q-2 -6 -2.5 -11t-0.5 -12v-2q0 -2 0.5 -4t0.5 -3v-2q1 -2 4.5 -2t6.5 -0.5t5.5 -1.5t2.5 -5v0q0 -1 -1 -2t-2 -1
v0h-1q-1 0 -4 0.5t-6 1.5t-6 1.5t-4 0.5q-4 1 -9 1t-10 1t-9 3.5t-6 6.5v10zM78 56q0 -3 1.5 -5.5t4.5 -4t6 -2t6 -0.5t6 0.5t5.5 2t4 3.5t1.5 6v2q-4 6 -9.5 8t-12.5 2h-3h-2q-2 -2 -3.5 -3t-2.5 -2t-1.5 -2.5t-0.5 -4.5z" />
</svg>
