<?xml version="1.0" standalone="no"?>
<!DOCTYPE svg PUBLIC "-//W3C//DTD SVG 1.1//EN" "http://www.w3.org/Graphics/SVG/1.1/DTD/svg11.dtd" >
<svg xmlns="http://www.w3.org/2000/svg" xmlns:xlink="http://www.w3.org/1999/xlink" version="1.1" viewBox="-10 0 266 256">
   <path fill="currentColor"
d="M81 247q0 2 0.5 3t3.5 1q2 0 3.5 -1t1.5 -4v-12q0 -18 -0.5 -36.5t-0.5 -37.5v-7q0 -1 1.5 -1.5t2.5 -0.5q5 0 7.5 4t3.5 8.5t1 9.5t1 8q0 1 0.5 3.5t1 5.5l1 6t0.5 4v4.5v8.5v7.5v5.5t1 2.5t2 0.5h2t1 -2q0 -1 0.5 -5.5t0.5 -9t0.5 -8.5t0.5 -6q0 -4 -1 -11t-2.5 -14
t-3 -13t-3.5 -9q-1 -1 -4 -2.5t-6 -2.5t-5.5 -1.5t-2.5 -1.5v-1v-2.5t0.5 -3.5t0.5 -4v-2q3 -1 7 -2.5t6.5 -4t4.5 -5.5t2 -7q0 -6 -3 -10t-7 -6.5t-7 -5t-3 -7.5t3 -7.5t6.5 -5t6.5 -6.5t3 -11t-3 -10.5t-6.5 -6t-6.5 -4t-3 -3.5q0 -3 1 -6t1 -6t-0.5 -4.5t-4.5 -2.5l-3 1
l-2 2v19q0 1 -3 2.5t-6.5 3.5t-6.5 5t-3 8q0 9 4.5 15t13.5 9v14l-0.5 0.5l-1.5 1.5q-3 2 -6.5 3t-6.5 3t-5 5t-2 9q0 7 3.5 9.5t7.5 5t7.5 5t3.5 8.5v6q-1 2 -4 3t-7 2t-7.5 2.5t-4.5 4.5q-4 10 -4.5 23t-0.5 23v1v1t0.5 2.5t0.5 2.5v1v3.5t-0.5 5.5t-0.5 5.5v2.5v3
q0 2 0.5 3t2.5 1q3 0 5 -2.5t2.5 -5.5t0.5 -7v-5q0 -9 -1 -18t-1 -18q0 -4 0.5 -8.5t2.5 -8t5 -6t8 -2.5h3v9v13t0.5 15t0.5 15.5v13.5v8v6q0 3 -0.5 7t-0.5 7zM128 242v4q5 0 8 -1.5t5.5 -3.5t5 -4.5t6.5 -5.5q8 -7 17 -14t17 -15t13.5 -17.5t5.5 -21.5q0 -4 -1.5 -9
l-3 -10t-4 -9.5t-4.5 -7.5q-1 -2 -4 -5.5t-6.5 -7t-6 -7t-2.5 -4.5q0 -3 2.5 -4.5t6 -2t7 -1.5t5.5 -4q1 -2 2 -5.5t1.5 -7.5t0.5 -7.5v-6.5v-10.5t-1.5 -10.5t-4.5 -8.5t-9 -5.5h-2h-3.5h-3.5h-2q-11 0 -18.5 1t-12 4t-6.5 10t-2 18q0 2 0.5 6.5t1 10t2 10t2.5 5.5
q2 2 6 2.5t7.5 1.5t6 2t2.5 5q0 3 -3.5 5.5t-8.5 5.5t-10 5.5t-8 3.5q-1 1 -4 2.5t-4.5 2.5t-2.5 1v4q8 0 14 -3.5t11.5 -7.5t11.5 -8t13 -4q4 0 5.5 3.5t1.5 5.5q0 3 -4 7t-9.5 8t-12.5 8t-12.5 8t-9.5 7.5t-4 5.5t1.5 2h1.5q4 0 5.5 -2.5t3.5 -3.5t5.5 -3.5t8 -6t10 -7.5
t10 -7t7.5 -5.5t4 -2.5q3 0 4.5 2t2.5 4.5t1.5 5t0.5 4.5q0 1 -3 4l-7 7l-9 9t-9.5 9t-8 7.5l-4.5 4.5t-4 3t-5.5 4t-4.5 4.5t-3 5.5l3 1h1q1 0 3 -1t3.5 -2.5t3 -2.5t2.5 -2q2 -1 7 -6.5t10.5 -11l10.5 -10.5l7 -7l3.5 -3.5t4.5 -1.5t3 2q0 1 0.5 4l0.5 3q0 7 -1.5 11
t-3.5 7.5t-5.5 7l-7.5 7.5l-11.5 11.5t-11.5 10.5q-2 1 -6 4t-8.5 6.5t-8.5 6.5t-5 5zM70 111q0 -3 0.5 -5t2 -3.5t3.5 -2t5 -1.5l3 -1.5l3 -1.5h2q6 0 9 4.5t3 9.5q0 14 -14 14q-2 0 -5 -1t-6 -2.5t-4.5 -4t-1.5 -5.5zM143 73q0 -2 2 -3t4 -1.5t4 -0.5h3h19h12l3 3v1.5
t-0.5 4t-0.5 4.5v4q-1 3 -3 4.5t-5 2t-5.5 1t-4.5 0.5q-6 0 -11 -0.5t-9 -2t-6 -5.5t-2 -12zM71 54q0 -4 1.5 -7t4.5 -5t6.5 -3t6.5 -1q7 0 9 5t2 11q0 7 -2.5 10.5t-9.5 3.5q-8 0 -13 -3t-5 -11zM143 58q-2 0 -1.5 -2t0.5 -3q0 -7 3.5 -10t8.5 -4.5t11 -1.5h11
q7 0 11.5 4.5t4.5 11.5q0 2 -0.5 3.5t-2.5 1.5t-4.5 0.5t-5.5 0.5t-5.5 0.5t-3.5 0.5h-3h-2q-1 0 -4 -0.5t-6.5 -0.5t-7 -0.5t-4.5 -0.5z" />
</svg>
