<?xml version="1.0" standalone="no"?>
<!DOCTYPE svg PUBLIC "-//W3C//DTD SVG 1.1//EN" "http://www.w3.org/Graphics/SVG/1.1/DTD/svg11.dtd" >
<svg xmlns="http://www.w3.org/2000/svg" xmlns:xlink="http://www.w3.org/1999/xlink" version="1.1" viewBox="-10 0 266 256">
   <path fill="currentColor"
d="M71 245q0 3 3 3h3t2 -1v-100h6.5t3.5 5q4 22 4 43t1 43q0 1 0.5 1.5t1.5 0.5v0h1t2 -1.5t1.5 -3.5t0.5 -5v-4v-1l-0.5 -1.5t-1 -3.5t-0.5 -3.5v-1.5v-9v-16v-15v-9v-3.5t-0.5 -5.5t-0.5 -5t-1 -3q0 -2 -2.5 -4.5t-5 -4t-5 -2.5t-3.5 -2q-1 -2 -1.5 -5t-0.5 -4
q0 -3 3 -4.5t6.5 -3.5t6.5 -5t3 -9q0 -7 -3 -11t-6.5 -6t-6.5 -3.5t-3 -4.5q0 -5 3.5 -8t7.5 -5.5t7.5 -5.5t3.5 -9q0 -7 -3 -11t-9 -7q-2 0 -5 -1.5l-3 -1.5v-18q0 -2 -1.5 -2h-2.5t-3.5 0.5t-2.5 2.5v17l-3 1.5t-7 4.5t-7 8t-3 11t3.5 9t7.5 4.5t7.5 2.5t3.5 4q0 6 -3.5 9
t-7.5 5t-7.5 5t-3.5 10t3.5 10.5t7.5 6t7.5 6t3.5 10.5l-1 1l-14 3q-1 0 -1.5 1l-0.5 1q-4 6 -5 13t-1.5 14.5t-0.5 14.5v12v21v21l1.5 1.5t1.5 2.5h2v0l4 -7v-68v-5.5t1 -7t2.5 -6.5t5.5 -3q2 0 3 0.5t1 3.5v81l0.5 2.5t0.5 3.5t-0.5 3t-0.5 3v0v1zM144 245v2t2 1t4 -1
t2 -3v-22q0 -11 -1 -21t-1 -21q0 -9 1 -17.5t1 -17.5v-15l-1 -2l-1 -2q0 -1 0.5 -3l1 -4t0.5 -4.5v-2.5v-5.5t-0.5 -9.5t-1 -9.5t-0.5 -5.5v-19q0 -8 1 -16t1 -16q0 -2 -0.5 -5t-4.5 -3q-2 0 -3 1t-1.5 2.5t-0.5 3.5v3v37q0 1 -1.5 1.5l-3 1t-2.5 0.5h-1q-5 0 -7 -3
t-2.5 -7.5t0 -9.5t0.5 -10t-1.5 -7.5t-4.5 -2.5t-3.5 2.5t-0.5 4.5v3q1 3 1 8.5t0.5 10t0.5 8v3.5l5 6h17q2 0 3 2.5t1.5 6t0.5 6.5v5q0 3 -2.5 5t-6 2h-7.5h-8q-3 0 -5.5 0.5t-2.5 3.5t3 3.5t5 0.5q4 0 8.5 -1t9.5 -1h3t1 2q0 1 0.5 3.5t0.5 6t0.5 6.5t0.5 4v3q0 2 -4.5 3
t-10 2t-10 3.5t-4.5 6.5v86q0 2 1.5 2h2.5h2t1 -2v-3v-5v-5v-3q0 -13 -0.5 -26.5t-0.5 -27.5q0 -9 3.5 -14t12.5 -5h5l2 2q-1 12 0 23.5t1 23.5t-0.5 23.5t-0.5 23.5zM170 240q1 2 2 3.5t3 1.5t3 -1.5t1 -3.5v-3.5v-2.5q0 -19 -2 -38t-2 -38v-7q3 -2 7 -3t7 -1q5 0 7 4.5
t3 11t1 12.5v9q0 2 0.5 5.5t0.5 7t0.5 6t0.5 3.5v34q-1 4 0.5 5t3.5 1t3.5 -1t2.5 -3v-3.5v-2.5v-3.5v-2.5q-1 -3 -1.5 -9.5t-1 -15t-1 -17.5t-1.5 -17.5t-1.5 -15t-0.5 -9.5q-2 -4 -7 -5t-10 -1h-9t-4 -3v-26h32l1.5 -1.5t1.5 -2.5v-1q0 -2 -2 -3t-3 -1q-3 0 -5.5 1t-5.5 1
h-5q-2 0 -5 -0.5t-5 -1.5t-2 -2v-22q11 1 16.5 -2t7.5 -8t2 -13t1 -17v-1v-1q-1 0 -1.5 -2t-0.5 -3q-1 0 -1.5 -1.5l-0.5 -1.5q-1 -1 -3.5 0.5t-2.5 2.5v6v8v8v5q-1 5 -3 8.5t-6 3.5q-5 0 -7.5 -2.5t-2.5 -6.5q0 -9 2 -17t2 -16q0 -2 -1.5 -4.5t-3.5 -2.5q-1 0 -3 1.5
l-2 1.5v84q0 15 -0.5 31.5t-0.5 33.5t0.5 34t1.5 33zM60 105q0 -8 5 -10.5t12 -2.5q5 0 9.5 2.5t4.5 8.5q0 3 -1.5 5.5t-4 4.5t-5 3t-5.5 1q-5 0 -10 -3t-5 -9zM60 52q0 -3 2 -5.5t5 -4t6 -2t6 -0.5q5 0 9 2.5t4 8.5q0 7 -4.5 10.5t-11.5 3.5q-6 0 -11 -3t-5 -10z" />
</svg>
