<?xml version="1.0" standalone="no"?>
<!DOCTYPE svg PUBLIC "-//W3C//DTD SVG 1.1//EN" "http://www.w3.org/Graphics/SVG/1.1/DTD/svg11.dtd" >
<svg xmlns="http://www.w3.org/2000/svg" xmlns:xlink="http://www.w3.org/1999/xlink" version="1.1" viewBox="-10 0 266 256">
   <path fill="currentColor"
d="M195 247l1.5 1.5l1.5 1.5h1q2 0 3.5 -2t1.5 -4q0 -31 -2.5 -61.5t-3.5 -60.5q0 -1 -1 -2.5t-2 -2.5h-11q-7 0 -14 1t-14 1h-4t-3.5 -0.5t-3 -2t-1.5 -3.5q0 -8 6 -11.5t14 -5t16 -2t13 -0.5q1 0 1.5 -0.5t0.5 -1.5v-3v-4l-3 0.5t-4 0.5q-2 0 -7 0.5t-11 1.5t-11.5 1.5
t-7.5 0.5q-4 3 -7.5 5.5t-5.5 6.5v20q0 8 -0.5 18t0 20t2.5 19.5t6 16.5q1 0 1.5 0.5l0.5 0.5h42l3 4v6.5v9.5v10v7l0.5 2t0.5 4t0.5 4t0.5 3zM83 240q1 2 2 2h2t2 -0.5t2 -1.5v-10q0 -9 -1 -18.5t-2 -19.5v-8t0.5 -12.5t0.5 -13v-8.5q6 0 10 4t6 11t2.5 15l1 16t0.5 15
t2 11q0 1 1 1.5t2 0.5q4 0 4.5 -3.5t0.5 -6.5q0 -13 -2 -26t-5 -25q-1 -5 -3 -9t-5.5 -7t-7.5 -5.5t-8 -4.5q-1 -3 -1 -5q0 -4 2.5 -6.5l5.5 -5.5t5.5 -6.5t2.5 -9.5q0 -8 -3 -11.5t-6 -5l-6 -3t-3 -6.5q0 -4 3 -7t6 -5.5t6 -6t3 -8.5t-1.5 -8t-4.5 -6t-6 -5t-7 -4v-13
l-2 -1.5t-3 -1.5h-1q-3 0 -4 1.5t-1.5 4.5t-0.5 5v3q-1 5 -4 7t-6.5 4.5t-6 5t-2.5 7.5q0 10 3 14t7 6t7.5 3t4.5 4q1 4 -2 6.5t-6.5 4.5l-7 4t-3.5 4v21l2 3q0 2 3.5 3.5t7.5 2.5t7 2.5t3 3.5v2v1q-4 3 -8 7t-8 9t-6.5 10.5t-2.5 11.5v49h10v-54q1 -2 2 -5l2 -6t2.5 -5
t3.5 -2h1v0q1 0 2 0.5t2 0.5q1 23 1 45t3 44zM154 187q-1 -1 -2.5 -3.5l-3 -5t-2 -5.5t-0.5 -5q0 -1 1.5 -3t2.5 -2q5 -1 9 -1.5l8 -1t7.5 -0.5h8.5h5q3 1 3 4v5v4v3.5t-0.5 4.5t-0.5 3.5v1.5l-2 1l-2 0.5t-5.5 1t-5.5 0.5v0h-1h-4t-6 -0.5l-6 -1t-4 -0.5zM146 132l4 -2
l3 -0.5t7.5 -1l9 -1t7.5 -0.5h5q2 0 4.5 1.5t3.5 4.5q0 2 0.5 4.5t0.5 4.5v4v2l-1 2l-32 3h-2t-2.5 -0.5t-3 -0.5t-2.5 -1q-1 0 -1.5 -0.5l-0.5 -0.5v-18zM66 106q0 -6 4 -11t11 -5q2 0 4.5 1.5t4.5 3.5t3.5 4.5t1.5 4.5q0 6 -4 10.5t-11 4.5q-6 0 -10 -3t-4 -10zM138 66
l1 0.5t1 1.5q1 0 2.5 1t3 1.5t3 1.5l1.5 1h27q3 0 5.5 -1.5t4.5 -3.5t4 -4.5t4 -4.5v-33q0 -2 -2 -2.5t-3 -0.5q-3 0 -4 1.5t-2 3.5l-2 4l-2 4q-5 2 -10.5 2h-11.5h-3h-4h-4h-2q0 -1 -0.5 -3t-1.5 -4t-2.5 -3.5t-2.5 -1.5q-2 0 -3 1.5t-1.5 3t-0.5 3.5v2q0 5 1 8t2 6.5
t1.5 7t0.5 8.5zM62 55q0 -8 5 -12.5t13 -4.5q6 0 9.5 4t3.5 10v2.5v1.5q0 1 -1 2l-2.5 2.5l-2.5 2.5t-2 1t-3.5 0.5t-3.5 0.5q-2 0 -5 -0.5t-5 -1.5t-4 -3t-2 -5zM144 54q0 -2 2 -4q4 0 8 -1t8.5 -1.5t8.5 -1t8 -0.5q1 0 1.5 0.5l1.5 1.5q1 2 2 5l1 3l-10 7h-25
q-3 0 -4.5 -3.5t-1.5 -5.5z" />
</svg>
