<?xml version="1.0" standalone="no"?>
<!DOCTYPE svg PUBLIC "-//W3C//DTD SVG 1.1//EN" "http://www.w3.org/Graphics/SVG/1.1/DTD/svg11.dtd" >
<svg xmlns="http://www.w3.org/2000/svg" xmlns:xlink="http://www.w3.org/1999/xlink" version="1.1" viewBox="-10 0 266 256">
   <path fill="currentColor"
d="M176 186q3 0 5 5t3.5 12t2 15t1.5 15t2.5 12t3.5 5h2t2 -2v-6q0 -5 -0.5 -11t-1.5 -12l-2 -12t-3 -11l-0.5 -1.5t-1 -2.5t-1 -2.5l-0.5 -1.5q0 -1 2 -4t5 -7t5 -8t2 -8q0 -8 -3 -13t-8 -8.5t-11.5 -5t-13.5 -1.5q0 5 2 7t5 3t6.5 1t6.5 1.5t5 4.5t2 9t-1 8.5t-5 5.5
q-3 -1 -4 -2t-1 -2t-1 -2.5t-2 -4.5q-3 -3 -7 -5.5t-8 -3.5t-8.5 -2t-8.5 -1v-1v-1l1 -1l2 -2l2 -2l1 -1q2 -2 4 -6t4 -8.5t3.5 -7.5t3.5 -3h2h5h4h3t4 -0.5l6 -1t6 -0.5h4q4 -1 4.5 -3t0.5 -5q-9 0 -17.5 1t-17.5 1q-4 0 -6 -1.5t-2 -5.5v-1t0.5 -2.5t0.5 -2.5t1 -1h33
l1.5 -1.5t1.5 -2.5v-1v-1l-1 -1l-2 -2q-9 1 -18 1h-18t-18.5 0.5t-17.5 1.5q-2 1 -2 1.5v2.5q0 1 0.5 2t2.5 1h22q4 0 4.5 3.5t0.5 5.5t-1.5 3.5t-3.5 1.5l-33 3l-0.5 0.5l-1.5 1.5v1v1q1 0 1.5 0.5l0.5 0.5h36q2 0 2 1.5v2.5q0 5 -2.5 9t-6 7.5t-7.5 7t-6 7.5
q-3 4 -3.5 8.5t-1.5 9.5v21q0 13 0.5 26t2.5 26h1.5h0.5q3 0 4 -2t1.5 -4t0.5 -5v-4v-0.5v-0.5q0 -2 -1 -7t-1.5 -11.5t-1 -11.5t-1.5 -7v-1v0q1 -3 1.5 -7l1 -8t0.5 -7t1 -4q0 -2 1 -6t5 -4h1v1q1 0 2 1.5t2 1.5q2 1 6.5 2t8.5 2.5t7 4t3 6.5q0 2 -0.5 4t-3.5 3h-3h-3
q-4 0 -8 -1t-9 -1q-2 0 -3.5 0.5t-1.5 3.5t2.5 4t5.5 2t6 0.5t5 -0.5q4 0 7.5 -1t7.5 -1zM78 245q0 1 1 2t2 1q1 1 2.5 -1t1.5 -3v-79q2 0 4.5 -0.5t3.5 -0.5q3 1 4.5 6.5t2 14.5t0.5 19t0.5 18.5t1.5 14t3 5.5h0.5h0.5l1.5 -1.5l1.5 -1.5v-45q-1 -1 -1 -2.5v-2.5v-2.5v-3.5
q-1 -8 -2.5 -12t-4 -7t-6.5 -5.5t-10 -5.5v-5q0 -5 3 -7t7 -4.5t7 -6.5t3 -13q0 -6 -3 -10t-6.5 -7t-6 -4.5t-2.5 -4.5q0 -5 1.5 -8t3.5 -4.5t4.5 -3t4.5 -4.5t3.5 -7.5t1.5 -11.5q0 -4 -2.5 -7.5t-6 -6t-6 -4t-2.5 -2.5v-17q0 -3 -2.5 -3.5t-4.5 -0.5t-3 0.5t-1 3.5v19
q0 2 -3.5 2.5t-7 2.5t-6.5 5t-4 10q-1 8 0.5 12t4.5 6t7 4t9 6v5q0 5 -2 7t-4.5 3.5t-5.5 2t-5 3t-4 7t-2 12.5v9q2 1 6 2.5t7 3t5.5 3.5t2.5 6q0 5 -2 8t-5 4.5t-6 3.5t-6 6q-5 14 -5.5 30.5t-0.5 31.5v10q0 2 0.5 2h2.5t4 -1t2 -4v-12.5v-11t0.5 -11t1.5 -11.5
q0 -2 0.5 -6.5t2 -8.5t3.5 -7.5t5 -3.5q1 0 2 1t1 2.5v2.5v2q0 1 0.5 3t0.5 4.5t0.5 4.5t0.5 3v57zM66 120q0 -8 5 -11.5t12 -3.5q6 0 10 2t4 9q0 6 -3.5 11t-11.5 5q-6 0 -11 -3t-5 -9zM122 46q0 2 0.5 6.5t2 9.5t4 9t4.5 4q3 0 4.5 -0.5t1.5 -4.5q0 -2 -1 -4.5t-2.5 -5
l-3 -5t-1.5 -5.5t1.5 -5.5t4 -4.5t5.5 -2.5t6 -0.5t4 5t1.5 11t2 11t5.5 5q3 0 4 -2t1 -4q0 -4 -2.5 -7.5t-2.5 -8.5v-1q1 -1 1.5 -4.5t0.5 -4.5q2 -1 4.5 -2t5.5 -1h2.5t1.5 3l3.5 10.5t3 8t4.5 7t8 7.5h1h1q2 0 2.5 -1.5t0.5 -3.5q0 -4 -2.5 -6.5t-5 -5.5l-5 -6t-2.5 -7
l0.5 -3t1.5 -3h13l1 -2t2 -3v-2q0 -2 -2 -3t-4 -1v0q-4 0 -9.5 0.5t-10.5 1t-9 1t-5 0.5q-3 0 -8.5 0.5t-10.5 1.5l-10 2t-8 4q-4 2 -4.5 5t-0.5 7zM69 58q0 -8 3.5 -11.5t11.5 -3.5q4 0 6.5 1t5.5 4q1 1 1 3v3q0 7 -3.5 11.5t-10.5 4.5q-6 0 -10 -2.5t-4 -9.5z" />
</svg>
