<?xml version="1.0" standalone="no"?>
<!DOCTYPE svg PUBLIC "-//W3C//DTD SVG 1.1//EN" "http://www.w3.org/Graphics/SVG/1.1/DTD/svg11.dtd" >
<svg xmlns="http://www.w3.org/2000/svg" xmlns:xlink="http://www.w3.org/1999/xlink" version="1.1" viewBox="-10 0 266 256">
   <path fill="currentColor"
d="M75 249q1 1 2 1.5t2 0.5q2 0 3 -1t2 -3q1 -5 1 -9.5t0.5 -8.5t0.5 -8v-10v-10.5t-0.5 -9t-1 -10t-0.5 -11.5q-1 -4 0.5 -5t3.5 -1q3 0 4 1.5l2 3t1.5 4t0.5 4.5t0.5 6t0.5 7.5t0.5 6.5t0.5 4l0.5 2t0.5 3v3t-0.5 4.5t-0.5 5v2.5q-1 3 0.5 3.5t3.5 0.5t3.5 -0.5t2.5 -3.5
v-15v-16t-2 -15l-1 -0.5t-1 -1.5q-2 -5 -3.5 -8.5t-3.5 -6t-5 -4.5t-8 -5v-1v-1q0 -6 3 -9t6.5 -5.5t6.5 -6t3 -10.5q0 -8 -3 -11.5t-6.5 -5t-6.5 -3.5t-3 -7t2.5 -7t5.5 -4.5t5.5 -6t2.5 -9.5t-2.5 -9t-5 -5t-4.5 -3t-2 -3v-26q0 -2 -2.5 -3.5t-4.5 -1.5h-2q-1 0 -2.5 1
l-1.5 1v29q-4 2 -7.5 4t-6 4.5t-3.5 6t-1 8.5t3 8t6.5 5t6.5 5t3 8v2v3q-5 2 -9 3.5t-6.5 4.5t-4 7t-1.5 9t3 8t6.5 5t6.5 3.5t3 2.5v12l-1.5 1.5t-2.5 1.5q-7 5 -11.5 12.5t-6.5 16.5t-3 18.5t-1 18.5v7q1 1 2 1h3q4 0 6 -4.5t3 -11.5t1 -15t1 -15t3.5 -12t8.5 -5
q0 22 1 42t0 42zM118 182l3 21q1 3 3.5 5.5t5.5 3.5t6.5 1.5t5.5 0.5q1 0 6 0.5t10.5 1t10 0.5h5.5h2q4 0 9.5 -0.5t10.5 -2t8.5 -5t3.5 -9.5q1 -7 1.5 -13t0.5 -11.5v-11.5v-13q0 -23 -1 -46t-1 -46q0 -2 -1 -4t-4 -2q-1 0 -2 1t-1 2.5v3.5v2v3v2q0 1 0.5 4l0.5 3v2.5
t-0.5 3t-0.5 3v2.5v3v6q0 16 1 31.5t1 31.5v5v9q0 4 -0.5 8t-0.5 5q0 4 -1 8t-3 7.5t-5 5.5t-7 2h-41q-4 0 -7 -2t-5 -5t-3 -6.5t-1 -7.5v-27v-8t-0.5 -13t-1 -13t-0.5 -8v-28v-10v-10.5t0.5 -11t1.5 -10.5q3 -5 9 -5q8 -1 16.5 -2t17.5 -1q8 0 16.5 0.5t15.5 0.5
q4 0 7.5 -2t3.5 -6q0 -1 -1.5 -1.5l-3 -1t-3.5 -0.5h-2q-18 0 -37 1.5t-37 2.5q-6 2 -8.5 6.5t-4 10.5t-1.5 12v10q0 28 1.5 55t0.5 56zM140 122q0 1 0.5 6t0.5 11.5t0.5 11.5t0.5 7q0 4 0.5 9.5t2 10t5 8t9.5 3.5q3 0 8.5 -0.5t10 -2t8 -4t4.5 -7.5v-9.5t0.5 -14t0.5 -14
v-9.5v-9.5t-0.5 -15.5t-0.5 -15v-10q-1 -1 -2 -1h-2h-2t-1 1v3.5t-0.5 5.5t-1 5.5t-0.5 3.5l-0.5 1.5t-1.5 1.5t-2.5 -0.5t-3 -1.5l-3 -2t-1.5 -3v-20q0 -4 3.5 -4.5t7.5 -0.5t7 -0.5t3 -3.5t-2 -3.5t-5 -0.5q-9 0 -18 1.5t-18 2.5q-3 1 -4 5t-1 7t-0.5 10t-0.5 14.5
t-0.5 13.5t-0.5 9zM150 170q0 -3 1 -5t6 -2h24q0 1 -0.5 3.5l-1 5t-2 5t-3.5 2.5h-20q-2 0 -2.5 -1.5t-1 -2.5t-0.5 -3v-2zM149 151q0 -5 1.5 -8t4.5 -4t7 -1h8q1 0 4.5 0.5t4.5 0.5q4 2 4 6q0 1 -0.5 2.5l-1 3t-1.5 2.5t-2 1h-28q-1 0 -1 -1v-2zM149 125v-5t1 -5l3 -3
t5 -4.5t5 -4.5t3 -2q2 0 5 2.5t5.5 6t4 7t1.5 6.5q0 1 -0.5 3l-0.5 2l-5 2h-26q-2 0 -1.5 -2t0.5 -3zM63 116q1 -2 3 -4.5t4.5 -4t5.5 -2.5t5 -1q5 0 9 3.5t4 9.5t-4.5 9t-9.5 3q-2 0 -5 -1t-5.5 -2.5t-4.5 -4t-2 -5.5zM149 99v-7q0 -2 -0.5 -5.5t0 -7.5t2 -6.5t4.5 -2.5
t4 2t1.5 5t0.5 6v4t-1 3.5l-2 5t-2.5 4t-3.5 1.5q-1 0 -2 -0.5t-1 -1.5zM67 63q0 -6 3.5 -8t9.5 -2q4 0 7.5 1.5t3.5 6.5q0 6 -3.5 9.5t-9.5 3.5h-3.5t-2.5 -1q-3 -2 -4 -4.5t-1 -5.5z" />
</svg>
