<?xml version="1.0" standalone="no"?>
<!DOCTYPE svg PUBLIC "-//W3C//DTD SVG 1.1//EN" "http://www.w3.org/Graphics/SVG/1.1/DTD/svg11.dtd" >
<svg xmlns="http://www.w3.org/2000/svg" xmlns:xlink="http://www.w3.org/1999/xlink" version="1.1" viewBox="-10 0 266 256">
   <path fill="currentColor"
d="M193 53q1 2 1.5 5.5t1 6t1 6l1 7t1 6l0.5 2.5v66q0 5 -1 10l-2 10t-3.5 9.5t-4.5 8.5q-3 4 -7.5 6.5t-8.5 5.5t-7 7t-3 10v27q0 2 1.5 3.5t3.5 1.5l2 -0.5t2 -1.5v-34q0 -4 2 -6.5t5 -4.5t6 -3.5t6 -3.5q4 -2 7 -7t5 -10q0 -1 0.5 -5t1 -8.5t1 -8.5t0.5 -6l0.5 -2t1.5 -3
v-51q-2 -6 -2.5 -12.5t-0.5 -12.5t-1.5 -12t-5.5 -12q-3 -4 -9 -6.5t-12.5 -3.5t-11.5 -2t-6 -4q0 -4 -1 -10t-1 -10q-5 0 -6.5 2.5t-1.5 7v8.5t-2 7q-2 2 -4 2.5l-4 1l-4 1t-4 1.5q-8 6 -12 15t-5 19.5t-0.5 21.5t0.5 20v5v7.5v6.5v2v13t0.5 13.5t2 12.5t5 10.5t9 7.5
t13.5 3h3t3 -2q-2 -2 -3.5 -3t-3 -1.5t-3.5 -1t-4 -1.5q-7 -3 -10 -8.5t-4.5 -12t-1.5 -13.5v-13v-23v-23q2 -4 2.5 -8.5t0.5 -9.5t0.5 -10t1.5 -10q1 -3 3.5 -5.5t5.5 -4t6.5 -2.5t6.5 -3h2h3.5h3.5h2q5 0 9.5 0.5t9 1.5t8.5 3t9 4zM74 226v4.5t3 3.5l1.5 -0.5t1.5 -1.5
l2 -2v-22q0 -15 -1 -29.5t-1 -29.5q0 -2 0.5 -4t3.5 -2h1q6 4 7.5 10.5t1.5 14.5v9v14v14v10q0 1 1 3.5t3 2.5t3 -2.5t1 -3.5v-11q0 -28 -5 -57l-1 -1.5t-2 -3.5t-2 -3.5t-2 -2.5q-3 -1 -4.5 -1t-2.5 -0.5t-1.5 -1.5t-0.5 -4t3 -5.5t6.5 -4.5t6.5 -6t3 -11q0 -4 -3 -6.5
t-6.5 -4.5t-6.5 -4t-3 -6q0 -5 3 -7t5.5 -4t5.5 -5t3 -11q0 -4 -1 -6.5t-2.5 -4l-3.5 -3.5l-4 -4q-3 -2 -4 -5.5t-1.5 -6.5t-1 -5.5t-2.5 -2.5h-1l-2 0.5t-3 0.5v4v4l1 2.5l1 2.5q0 5 -3.5 8t-7 5t-6.5 5.5t-3 9.5t3 8.5t7.5 4.5t8 3.5t3.5 6.5q0 4 -2 6t-4 3.5t-5 2.5
t-5.5 2.5t-4 4.5t-1.5 9q0 5 3 7.5t7 4.5t7 4.5t3 6.5q0 2 -0.5 2.5l-1 1t-2 0.5t-2.5 2q-1 0 -2.5 1.5t-3 3.5t-3 3.5l-2.5 2.5t-2 6t-2 12t-1.5 15t-0.5 15t-0.5 12.5t-0.5 7.5t0.5 4t2.5 2q3 0 4 -1.5t1 -3.5q1 -3 1 -9.5t0.5 -13.5t1 -13.5t0.5 -9.5q0 -1 0.5 -6t1 -9.5
t2.5 -8.5t5 -4q1 0 2 1.5t1.5 3t0.5 3.5v2v14v7.5t0.5 13.5t1 13t0.5 8q0 1 -0.5 2.5l-1 3t-0.5 3.5v2v5zM132 171h2t4 0.5t3.5 0.5h2.5h2h3h3h2q0 1 1.5 2l1.5 1v17q3 0 4.5 -2t2 -4.5t0 -5t-0.5 -5.5q1 -3 3 -2.5t5 -0.5h3.5t5 -0.5t5 -0.5h3.5q0 -1 0.5 -2t1.5 -1v-1v-1
q-1 0 -3 -1l-2 -1h-20q-1 -2 -1.5 -3.5t-0.5 -4.5v-1.5v-0.5q4 -1 8.5 -2t8 -3t6 -5.5t2.5 -8.5v-31q0 -7 -4.5 -9.5t-9.5 -3t-9 -2t-4 -6.5q0 -1 0.5 -3l0.5 -2l0.5 -1l0.5 -1h20q1 0 2.5 -1.5l2.5 -2.5v-1v-1l-0.5 -0.5t-1.5 -0.5q-4 -2 -10.5 -2h-10.5q-2 0 -2.5 -2
t-0.5 -4.5t-0.5 -4t-3.5 -1.5h-1.5t-1.5 1v14h-22q-1 0 -1.5 1.5t-0.5 2.5q0 3 4 3h17q1 0 2 0.5t1 2v2.5v2q0 3 -1.5 4.5t-4 2t-6 1.5t-6 3.5t-4 7.5t-1.5 13q0 7 0.5 12t2.5 11q1 4 4.5 7t7.5 5t7 3l3 1v11h-24l-1 0.5t-2 1.5v1v0zM139 122h13q1 0 2 3t1 5q0 1 0.5 3.5
t0.5 5v5v2.5q-5 0 -8.5 -2t-5 -5t-2.5 -7.5t-1 -9.5zM163 134q0 -5 0.5 -7.5t2.5 -3.5t6 -1h9v7t-1 8t-3.5 6.5t-7.5 2.5h-2.5h-1.5q-2 -3 -2 -6v-6zM63 106q0 -4 1.5 -6t3.5 -3t5 -1.5t6 -0.5q6 0 10 1.5t4 8.5q0 4 -1.5 6.5t-4 4t-5.5 2t-6 0.5q-6 0 -9.5 -3t-3.5 -9z
M151 97q2 0 3 2.5t1.5 5.5t0.5 6v3h-17q0 -3 0.5 -6t1.5 -5.5t3.5 -4t6.5 -1.5zM162 111v-11q0 -2 1.5 -2.5t3.5 -0.5q6 0 9.5 3t3.5 9v3t-2 2h-13zM64 57q0 -7 5 -9.5t12 -2.5l2.5 0.5t3.5 0.5q2 1 4 4t2 6v1q0 1 -1 1q-2 5 -5.5 7t-9.5 2q-5 0 -9 -2.5t-4 -7.5z" />
</svg>
