<?xml version="1.0" standalone="no"?>
<!DOCTYPE svg PUBLIC "-//W3C//DTD SVG 1.1//EN" "http://www.w3.org/Graphics/SVG/1.1/DTD/svg11.dtd" >
<svg xmlns="http://www.w3.org/2000/svg" xmlns:xlink="http://www.w3.org/1999/xlink" version="1.1" viewBox="-10 0 266 256">
   <path fill="currentColor"
d="M73 245q0 2 0.5 3t2.5 1q3 0 4 -1.5t1 -3.5q0 -1 0.5 -4t0.5 -6v-6v-4q0 -16 -1 -32t-1 -32q0 -3 1 -5.5t5 -2.5q3 0 5 1t4 5v4.5t0.5 5.5t1 6.5t1.5 5.5v54q0 1 1.5 2t2.5 2v0h1v0h1l3 -7v-4.5v-5.5q0 -17 -1.5 -33t-3.5 -33q-1 -4 -3 -6t-4.5 -2.5t-5 -0.5t-5 -1.5
t-3.5 -3.5t-1 -7v-3.5v-3.5q1 -2 4.5 -3.5t6.5 -2.5l6 -2t3 -3v-19q0 -3 -3 -5t-6.5 -3t-6.5 -2l-3 -1v-13q1 0 4.5 -1.5l7 -3t6.5 -3.5t3 -4v-18q0 -3 -3 -4.5t-6 -2l-6 -1t-4 -2.5v-3.5t-0.5 -5t-0.5 -5t-1 -3.5q0 -1 -1 -3t-3 -2v0l-1.5 1.5l-0.5 0.5q0 2 0.5 5.5t0 7.5
t-1.5 7.5t-4 4.5q-1 0 -4 0.5t-3 1.5q-4 3 -4.5 5t-0.5 6q0 9 2.5 13t5.5 5.5l6 3t3 6.5q0 7 -3 9.5t-6.5 4t-6.5 2t-3 4.5v18q0 2 2.5 2.5t6 2.5t6 6.5t2.5 13.5q0 4 -2.5 5.5t-5.5 3t-6 4t-4 7.5q-5 18 -7 37t-2 37q0 2 0.5 4t2.5 3q3 0 4.5 -6t2.5 -15.5t1.5 -21
t1.5 -21.5t3.5 -17t6.5 -7q2 0 3 2.5t1 4.5q0 1 0.5 4.5t0.5 7t0.5 7t0.5 4.5v3v7v8v6q0 9 -1 18t-1 18zM125 239q0 2 1.5 4.5t3.5 2.5q1 0 3 -2.5t2 -4.5v-84q0 -6 2.5 -14.5t6.5 -13.5q1 0 5 -1t8.5 -2t8 -1.5t5.5 -0.5h3.5h4.5q9 0 13 1.5t5.5 5t1.5 9t2 12.5v7t0.5 11.5
t0.5 13v13t0.5 11.5t0.5 7v28q-1 2 0.5 2.5t2.5 0.5q2 0 3 -1.5t1.5 -3.5t0.5 -4v-4q0 -25 -1.5 -49.5t-4.5 -49.5q-1 -7 -4 -10.5t-7.5 -5t-10 -2t-12.5 -0.5l-2 -2v-3t-0.5 -7.5t-0.5 -9.5t-1 -8v-1v0q1 -5 1 -8t5 -4l3 -0.5l6 -1t5.5 -1t3.5 -0.5h2q3 0 4.5 3t2.5 7
t1 7.5v5.5h0.5h1.5q2 0 2.5 -1t0.5 -2.5v-3.5v-2v-5v-1t-0.5 -2.5t-0.5 -2.5v-2q-2 -8 -2.5 -14t-2.5 -10t-6.5 -6.5t-14.5 -2.5h-6h-4q-1 0 -3.5 0.5t-5.5 1t-6 1.5t-5 1q-5 1 -7.5 3.5t-4 6.5t-2 8t-1.5 8q-2 5 -3 10t-1 10v6q1 2 2 2h2h1q2 -3 3 -6t1.5 -6.5t0.5 -7
t1 -6.5q1 -10 4 -15t8 -7t12 -2.5t16 -0.5q6 0 10 3t4 9q0 1 -0.5 3.5l-0.5 2.5q-4 1 -9.5 1t-11 1.5t-9 4t-3.5 8.5v38q0 1 -1 2l-1 1q-6 3 -10.5 3.5t-7.5 2t-5.5 4.5t-5.5 12q-2 24 -3.5 50t-1.5 50zM152 196l3 7h2t3 0.5t4 0.5t3 1h2q9 0 13 -2.5t5.5 -6.5t1.5 -9.5
v-13.5v-1v-4v-4v-3q0 -2 0.5 -5t0 -6t-2 -5t-4.5 -2v22h-24v-20q0 -1 -1.5 -3t-2.5 -2h-1q0 1 -1 2l-1 1v53zM175 172q1 0 1.5 -0.5t1.5 0t2 0.5t1 1v18q0 2 -1.5 3t-4 1.5t-4.5 0.5h-3h-5q-2 0 -3 -2t-1 -3v-18h1.5t3.5 -0.5t3.5 -0.5h3.5h4zM63 109q0 -7 5 -11t12 -4
q5 0 9 1.5t4 6.5q0 9 -4 12t-12 3h-5.5t-4.5 -1t-3 -2.5t-1 -4.5zM66 54v-3.5t1 -2.5q2 -5 6.5 -5h8.5h5t4 0.5t3 2t1 5.5q0 8 -4.5 10.5t-12.5 2.5h-7q-4 -1 -4.5 -4t-0.5 -6z" />
</svg>
