<?xml version="1.0" standalone="no"?>
<!DOCTYPE svg PUBLIC "-//W3C//DTD SVG 1.1//EN" "http://www.w3.org/Graphics/SVG/1.1/DTD/svg11.dtd" >
<svg xmlns="http://www.w3.org/2000/svg" xmlns:xlink="http://www.w3.org/1999/xlink" version="1.1" viewBox="-10 0 266 256">
   <path fill="currentColor"
d="M72 156v87l1.5 1.5t2.5 1.5h1q2 0 3 -1.5t1.5 -4.5t0.5 -5v-4q0 -17 -1.5 -33.5t-1.5 -33.5v-13q0 -1 1 -1.5t2 -0.5q2 0 3 1.5t2 3.5q0 2 0.5 4.5t1.5 4.5t1 4v2v53l1 1l2 2l0.5 0.5l0.5 0.5h1q2 0 3 -1t1 -2.5t0.5 -3.5t0.5 -3q0 -17 -2.5 -33.5t-3.5 -33.5
q-1 -2 -3 -3.5t-4.5 -2.5t-4.5 -2.5t-2 -4.5t2 -5t4.5 -4t4.5 -4l3 -3v-8q0 -8 -2.5 -12t-6 -6t-6 -4t-2.5 -5q0 -2 2.5 -4.5l5.5 -5.5t5.5 -6.5t2.5 -8.5q0 -8 -3.5 -14t-11.5 -8v-19q0 -1 -1.5 -2t-2.5 -2h-0.5h-0.5v0h-1q0 1 -1.5 2t-1.5 2v17l-2.5 2t-3.5 4
q-1 0 -2.5 1.5t-3.5 3t-3.5 3t-1.5 3.5v20q0 1 2.5 2t5.5 2.5t5.5 3.5t2.5 5v2v1l-3 3l-4 4t-3.5 4.5t-2.5 3.5q-1 2 -1 6v6v7q1 3 4 4t5.5 2t4.5 2.5t2 5.5q0 3 -1.5 5t-4 3.5t-5 3.5t-4.5 4t-2.5 5.5t-1 7.5t0 7.5t0.5 5.5t-0.5 9t-0.5 15t-0.5 15t-0.5 8v8q5 0 7.5 -3
t2.5 -8q-1 -16 -0.5 -30.5t1.5 -29.5q1 -2 1 -4t0.5 -4.5t2 -4t3.5 -1.5h2zM110 223q0 1 0.5 2t1.5 1h83q3 0 6 -1.5t3 -4.5q0 -4 -3 -4.5t-6 -0.5q-5 0 -10 1t-10 1h-3.5t-2.5 -2v-9.5t-2 -10.5v-3v-6v-5v-4v-16t2 -17q2 -3 4.5 -5t5 -3.5t4.5 -2.5t3.5 -3.5t2 -6.5
t0.5 -12v-3.5t-3 -2.5q-4 4 -5.5 9t-3 9.5t-4 8t-9.5 3.5h-3q-2 0 -4.5 -0.5t-6 -0.5t-6.5 -0.5t-4 -0.5l-0.5 -0.5t-0.5 -1.5q-4 -2 -5.5 -7t-2.5 -9.5t-2 -8t-3 -3.5q-1 0 -2 0.5l-3 1.5v2.5t-0.5 3t-0.5 3v1.5v0.5v0.5q0 8 2 12t5 6t6.5 3.5t6.5 5.5v5q0 3 0.5 7t0.5 7v5
v13t-0.5 11.5t-0.5 12t-1 13.5q-1 0 -2.5 1.5t-2.5 1.5l-1.5 -0.5t-3 -0.5t-3 -0.5t-2.5 -0.5v0q-1 0 -3 0.5t-4.5 1t-4.5 1.5t-2 2zM147 217v-26v-24t1 -24q1 -2 2 -2h2q2 0 3.5 0.5t3.5 1.5q1 5 1 9.5t0.5 8t0.5 7.5v8q0 10 -1 20t-1 21q0 2 -3 1.5l-3 -0.5q-1 0 -3.5 0.5
t-2.5 -1.5zM124 151l-2 0.5t-2 1.5v49q0 2 1 2.5t2 0.5q2 0 3 -2t1 -4v-3q0 -1 0.5 -3t0.5 -4v-3v-9t-0.5 -8t-0.5 -8t-1 -10h-2zM179 158q0 10 1 21t3 21l1 0.5l1 0.5q3 0 4.5 -2.5t1.5 -5.5v-2q0 -4 -0.5 -8.5t-0.5 -9.5t-0.5 -9t-0.5 -5q0 -4 -0.5 -7t-4.5 -3
q-1 0 -2.5 0.5t-1.5 1.5t-0.5 3.5t-0.5 3.5zM63 112q0 -5 3.5 -9.5t8.5 -4.5q4 0 8 4t4 8q0 6 -3 9.5t-8 3.5t-9 -3t-4 -8zM155 91q0 2 1.5 3.5t4 3t5 2t3.5 0.5h25q1 0 2.5 -1t2 -2.5t1 -3.5t0.5 -3h-34q-1 0 -3.5 -1.5t-3.5 -1.5l-1 0.5t-2 1.5l-0.5 0.5l-0.5 0.5v1z
M101 90q0 4 3 4q4 0 7.5 -1t8.5 -1q4 0 7.5 1t7.5 1q1 0 4 -1t3 -3q0 -3 -2.5 -4.5t-5.5 -1.5h-6h-5h-5q-4 0 -8 0.5t-6.5 2t-2.5 3.5zM142 69q2 1 6.5 2t10 2.5t10 2.5t6.5 1h9h7q5 0 8.5 -1t6 -3.5t2.5 -7.5q-7 0 -12 2t-10 2q-8 0 -15 -1.5t-14 -3.5t-14 -3.5t-15 -1.5
q-2 0 -6.5 0.5t-9.5 1.5t-9 2.5t-4 3.5q0 3 2 4q1 -1 4.5 -1t6.5 -1t6.5 -1t4.5 -1h1q5 0 9 1.5t9 0.5zM60 60q0 -3 1.5 -5t3.5 -4.5t5 -3.5t5 -1h1h1q5 4 6 6.5t1 6.5q0 2 -0.5 4.5t-1 4.5t-2 3.5t-3.5 1.5q-3 0 -5.5 -1t-5.5 -3t-4.5 -4t-1.5 -5zM156 46q0 3 3 5t7 3
t8 1.5t5 0.5q4 0 8.5 -0.5t8 -2t6 -4.5t2.5 -8q-4 0 -7 1t-6 2.5t-6 2.5t-7 1q-5 0 -9.5 -2.5t-10.5 -2.5q-1 0 -1.5 1t-0.5 2zM121 45q4 0 8.5 1.5t8.5 1.5q2 0 3 -1.5t1 -3.5v-2t-2 -1q-3 -1 -6 -1.5t-6 -0.5h-5h-6h-10q-3 1 -4 3t-1 5q5 0 9.5 -0.5t9.5 -0.5z" />
</svg>
