<?xml version="1.0" standalone="no"?>
<!DOCTYPE svg PUBLIC "-//W3C//DTD SVG 1.1//EN" "http://www.w3.org/Graphics/SVG/1.1/DTD/svg11.dtd" >
<svg xmlns="http://www.w3.org/2000/svg" xmlns:xlink="http://www.w3.org/1999/xlink" version="1.1" viewBox="-10 0 266 256">
   <path fill="currentColor"
d="M181 192v55q0 3 0.5 4t2.5 1q1 0 2.5 -0.5t1.5 -1.5v-51q0 -3 3 -4.5t6.5 -3t6.5 -4t3 -8.5v-55q-2 0 -3.5 0.5t-1.5 1.5q0 2 -0.5 7.5t-0.5 12t-0.5 12t-0.5 7.5v5.5t-1 6.5t-2.5 5.5t-4.5 2.5h-3t-1 -1q0 -2 -0.5 -5t-0.5 -6v-7v-4v-13t0.5 -11.5t0.5 -11.5t1 -14
q1 -1 5 -1.5t8.5 -1t7.5 -1t3 -3.5v0v0l-2 -2t-1 -2h-1h-1l-2 0.5t-4 1.5t-4 1.5t-3 0.5h-1q-1 0 -3 -0.5t-2 -1.5v-17l1 -1.5t2 -1.5q6 -4 8.5 -8t2.5 -12v-3v-5v-5v-3t0.5 -3.5l1 -5t0.5 -5v-3.5v-2.5t-1 -3t-2 -2.5t-2 -1q-2 0 -3 1.5t-2 2.5q1 11 1 22t-2 22l-0.5 2
t-1.5 2q-1 2 -5 2h-4h-3.5h-3.5q-2 -1 -2.5 -5t-0.5 -10v-12.5v-12.5t-1 -11t-4 -6q-2 1 -3 4t-1 5v1q0 4 0.5 10.5t1 12t1 10t0.5 5.5l0.5 2t1 4.5t1 4.5t0.5 3q1 1 2.5 1.5l3 1l3 1t2.5 2.5q0 1 0.5 2.5t0.5 3.5t0.5 3.5t0.5 2.5v2q0 1 -0.5 2l-1.5 3h-3h-4t-4.5 0.5
l-2.5 0.5q-2 0 -6 0.5t-4 1.5v3l2.5 0.5t4.5 0.5h3h5t5.5 -0.5t3.5 -0.5v76h-6q-1 0 -1.5 -1t-1 -2.5t-1.5 -3.5t-1 -3v-2.5t-0.5 -6l-1 -7t-0.5 -5.5v-8v-4t-0.5 -6t-0.5 -6v-4h-0.5h-1.5q-2 0 -2.5 1t-0.5 3v13.5v13.5t1 13.5t4 12.5q0 2 1.5 4.5l1.5 2.5h11zM70 236
q1 1 2.5 2t2.5 1l2 -3q0 -4 -0.5 -14.5t-0.5 -21.5q0 -12 0.5 -22t0.5 -15v-4.5v-7t0.5 -7t0.5 -4.5l0.5 -0.5t1.5 -0.5v-0.5v-0.5q5 0 7 5.5t3 12.5t1 13.5v9.5q0 12 -1 23t-1 22q0 2 0.5 3t2.5 1h2t2 -1v-7v-11t0.5 -13t0.5 -13v-11v-7v-1q0 -2 -0.5 -5.5t-1 -8t-2 -8
t-2.5 -5.5q-2 -2 -4.5 -3t-5 -2.5t-3.5 -3t-1 -5.5t2 -6t5.5 -3t5.5 -3t2 -6q0 -10 -2 -14t-5 -5.5l-5 -2.5t-2 -5q0 -3 1 -5t3 -3t4 -1.5t4 -2t3 -4.5t1 -8q0 -7 -2 -10.5t-5 -5t-5 -2t-2 -3.5v-19q0 -1 -1.5 -1h-1.5h-2.5t-1.5 1v22q0 1 -2.5 2t-6 2.5t-6 4t-2.5 7.5
q0 7 2.5 10.5t5.5 6t5.5 4.5t2.5 6q0 6 -3 7t-6.5 2t-6.5 3.5t-3 10.5q0 6 2.5 9t6 4.5t6 1.5t2.5 1v13q-3 1 -5.5 2t-4.5 2.5t-3.5 3t-2.5 4.5q-3 18 -4.5 36t-1.5 36v4.5t4 2.5h2q2 -17 2.5 -35t2.5 -36q1 -3 2 -7t6 -4q2 0 2.5 0.5l2.5 2.5v7q0 14 -1 29t-1 30v5v8.5v8.5
v5zM106 193q2 1 5.5 3t8 4t10 3.5t10.5 3t8.5 2.5t4.5 1h2.5t1.5 -2v-1q0 -1 -0.5 -2l-0.5 -1q-1 -1 -4 -1.5l-6 -1t-5.5 -1.5t-3.5 -1l-2.5 -1t-2.5 -2v-17l0.5 -0.5l1.5 -1.5q3 -2 5.5 -3t4.5 -2.5t2.5 -4.5t1.5 -7q0 -5 1 -11t1 -12q0 -1 -0.5 -3t-2.5 -2h-1
q0 1 -0.5 3.5t-0.5 3.5t-0.5 4t-0.5 6.5t-0.5 6.5t-0.5 4q-1 3 -3 5.5t-5 2.5h-2t-1 -2q1 -8 -0.5 -16.5t-1.5 -17.5v-3q0 -1 0.5 -3t0.5 -4v-2t2 -2l4 -2t3.5 -2t1.5 -3v-17q0 -1 -1.5 -3t-2.5 -2q-2 1 -3 4t-1 5.5v5.5t-2 5t-7.5 5t-11.5 5.5t-11 5l-5 2.5q0 1 1 1.5
t2 0.5h1.5h0.5q4 -1 9 -3.5t9 -2.5q2 0 3 2t1 3v59q0 1 -0.5 3.5t-1.5 2.5h-1h-1q-3 0 -5 -0.5t-4 -2.5v-8.5t-0.5 -12t-0.5 -12v-7.5t-0.5 -4t-0.5 -4t-0.5 -3.5l-0.5 -1.5h-4v9q0 5 0.5 12t0.5 12.5v8.5v3t0.5 4t0.5 4v3zM60 100q0 -5 5.5 -7.5t10.5 -2.5q3 0 6.5 2t3.5 5
q0 4 -1 8t-5 6q-4 -1 -8 -1q-3 0 -5.5 -0.5t-4.5 -2.5t-2 -7zM132 58v4t-0.5 5.5t-1 5.5t-1.5 5q-2 3 -6 4.5t-8.5 2.5t-8.5 2.5t-4 4.5q4 0 10.5 -0.5t12 -2.5t9.5 -5.5t4 -9.5v-1v-1v-3t-0.5 -4t-0.5 -4v-3q-1 0 -1.5 -1l-0.5 -1h-1v0zM65 61v-6q0 -8 3 -9.5t10 -1.5
q5 0 7.5 1.5t2.5 7.5q0 4 -3 7.5t-8 3.5h-6.5t-5.5 -3zM103 59q0 1 1 1.5t2 0.5h4t3 -2q1 0 4.5 -1.5t6.5 -3.5t6.5 -3.5t4.5 -1.5q2 -2 3.5 -5.5t1.5 -5.5v-2t-0.5 -2.5l-1 -3t-0.5 -2.5v-2.5t-0.5 -4t-0.5 -4.5v-3l-0.5 -0.5t-1.5 -0.5t-2.5 0.5l-1.5 0.5v25q0 4 -4 6.5
t-9.5 4.5t-10 4t-4.5 5z" />
</svg>
