<?xml version="1.0" standalone="no"?>
<!DOCTYPE svg PUBLIC "-//W3C//DTD SVG 1.1//EN" "http://www.w3.org/Graphics/SVG/1.1/DTD/svg11.dtd" >
<svg xmlns="http://www.w3.org/2000/svg" xmlns:xlink="http://www.w3.org/1999/xlink" version="1.1" viewBox="-10 0 266 256">
   <path fill="currentColor"
d="M106 247q0 4 3 4q2 0 2.5 -0.5l1.5 -1.5q3 -4 4 -8t1.5 -8.5t0 -9.5t-0.5 -9q0 -2 2 -2h3q5 0 6 4l2 8v3.5t0.5 5.5t0.5 5.5v3.5q1 1 2 1.5t2 0.5q4 0 5.5 -2.5t1.5 -5.5q0 -13 -4 -19t-9 -9t-9 -4t-4 -4t2 -4.5t4.5 -1.5t6 -0.5t6 -1t4.5 -3.5t2 -7q0 -1 -0.5 -2.5
t-0.5 -2.5q-1 -2 -5 -4.5l-8 -5t-6.5 -4.5t-2.5 -3q0 -4 3.5 -4.5t8 -1t8.5 -2.5t4 -9q0 -6 -2.5 -8.5t-5.5 -3t-6.5 -1t-5.5 -3.5q-1 -1 -1.5 -4t-1 -6.5t-1.5 -6l-1 -2.5q-3 2 -3.5 4.5t-0.5 4.5q0 3 -0.5 5.5t-1.5 4.5h-5h-4q-1 0 -1.5 -0.5l-0.5 -0.5v-19q0 -1 2.5 -1.5
t6 -1t6.5 -2t4 -3.5l-2 -3h-15q-2 0 -2 -2v-3v-3t2 -2l15 -3q1 0 1 -1.5v-2.5q0 -2 -1.5 -2.5t-3.5 -0.5t-3.5 -0.5t-1.5 -2.5v-3.5t1 -4.5l2 -4t2 -2q2 0 3.5 1.5t3 2.5l3 2t3.5 1t3 -1.5t1 -3.5q0 -4 -2.5 -6t-6 -3t-8 -1.5t-8 -1.5t-6 -3t-2.5 -6q0 -3 2.5 -4.5t6 -2
t6.5 -0.5h5q1 0 1 -1v-2q0 -2 -2 -2.5t-5 -1t-6 -0.5h-3q-3 -1 -3 -3.5t-0.5 -5.5t-1 -5t-3.5 -2q-4 0 -5.5 2t-1.5 5.5v6.5t-3 5h-3.5t-5.5 0.5t-5 0.5h-3q-4 1 -6 0.5t-2 3.5v2t2 1l2.5 0.5t3.5 0.5q3 0 7 -1t7 -1q2 0 5.5 1t3.5 4l-0.5 1.5t-0.5 2.5q-1 0 -1 1t1 2
q-3 1 -9.5 2.5t-14 3.5t-13 5t-5.5 7q0 2 1.5 3t3.5 1q4 0 6 -1t4 -2.5t3.5 -3t3.5 -1.5t4 1.5t3 3.5t1.5 4.5t0.5 4.5v3h-1.5h-3.5t-3.5 0.5l-1.5 0.5l-0.5 0.5t-0.5 1.5q1 2 3.5 3t6 1.5t7 0t5.5 -0.5q1 0 1 2v3q0 5 -4.5 6t-10 1h-10.5q-4 0 -4 3v7q0 1 2 1.5t3 0.5
q5 0 10 -2.5t10 -2.5h2.5t1.5 2q0 7 0.5 12t3.5 11v1q0 3 -0.5 5.5t-0.5 5.5q0 5 2.5 7.5t5.5 4t5.5 2.5t2.5 4q0 2 -2.5 3t-6 1.5t-7 2t-4.5 3.5q0 1 -0.5 3t-0.5 3q0 6 3 9t6.5 5t6 4t2.5 5t-2 3.5t-5 0.5q-2 0 -5 0.5t-4 3.5q-4 8 -4.5 19t-0.5 20q1 0 3 -0.5t3.5 -1
t2.5 -1.5t1 -3v-19q2 -2 3 -3.5t2 -2.5t2 -1.5t4 -0.5q0 9 -0.5 17.5t-0.5 16.5zM156 171q0 42 29 69h2q5 0 9 -5t6.5 -12.5t3.5 -14.5t1 -11q0 -2 -0.5 -3t-3.5 -1q-4 0 -5 5.5t-2 12.5t-2.5 12.5t-5.5 5.5q-6 0 -10 -8t-7 -18t-4 -20t-1 -14t0.5 -10t1.5 -12t2.5 -11.5
t4.5 -8.5q6 -6 11.5 -14t8.5 -17q2 -4 2.5 -9t0.5 -11v-11v-10v-1q0 -3 -1.5 -7.5t-5 -8.5t-7.5 -6.5t-8 -2.5h-29q-3 0 -4 0.5t-1 2.5t1 3.5t4 1.5h28l1 0.5t2.5 1.5t3 1.5t2.5 1.5q2 2 3 4.5t1.5 5.5l1 6t0.5 6v7q0 4 -0.5 7t-0.5 7t-1 8q0 1 -0.5 1.5l-0.5 0.5
q-1 0 -1.5 1.5l-1 3l-1 3t-1.5 1.5q-5 9 -10 16t-8.5 14.5t-5.5 16t-2 20.5zM101 179q0 -3 2.5 -4.5t5.5 -2l6 -1t5 -0.5q4 0 7.5 2t3.5 7q0 2 -1.5 4.5t-4.5 2.5h-18q-1 0 -1.5 -0.5t-1.5 -2l-2 -3t-1 -2.5zM105 141q0 -5 3.5 -6t8.5 -1h4q3 0 5.5 1t4 2.5t1.5 4.5
q0 2 -1 4q-1 0 -3 0.5t-4.5 0.5t-4.5 0.5t-3 0.5h-2q-3 0 -6 -2t-3 -5zM145 121q0 2 1.5 3.5t3.5 1.5h1q1 -3 1.5 -6.5t0.5 -7t0.5 -6t2.5 -4.5t5.5 -3t6.5 -2.5t5 -4t2 -6.5q0 -2 -0.5 -2.5t-2.5 -1.5q-2 1 -3 3t-2.5 4t-3.5 3.5t-4 1.5v0v-1q-1 0 -2 -1t-1 -2v-16
l2.5 -1.5t6 -3.5t6.5 -5t3 -7q0 -2 -0.5 -3.5t-1.5 -2.5q-2 1 -3 2.5t-2 3.5t-2.5 3t-3.5 1h-1l-0.5 -0.5t-0.5 -1.5v-13l-0.5 -0.5t-1.5 -0.5h-1q-2 0 -2.5 2t-1 4.5t-1 4.5t-2.5 2t-3 -1l-2 -2l-2 -2t-2 -1q-2 0 -3 0.5t0 2.5q0 4 2 6.5t4 4.5t3.5 5.5t1.5 10.5v7l-1 1.5
t-2 1.5l-1 -0.5t-1 -1.5q-1 -1 -3 -4t-2 -4h-5q0 8 2 11t4.5 4l5 2t2.5 6t-1 8.5t-1 7.5zM84 63q0 -2 1.5 -4t4 -3t5 -1.5t4.5 -0.5q3 0 4 0.5t1 3.5q0 2 -0.5 5.5t-1.5 7t-3 6t-5 2.5q-2 0 -4 -2t-3 -4.5l-2 -5t-1 -4.5z" />
</svg>
