<?xml version="1.0" standalone="no"?>
<!DOCTYPE svg PUBLIC "-//W3C//DTD SVG 1.1//EN" "http://www.w3.org/Graphics/SVG/1.1/DTD/svg11.dtd" >
<svg xmlns="http://www.w3.org/2000/svg" xmlns:xlink="http://www.w3.org/1999/xlink" version="1.1" viewBox="-10 0 266 256">
   <path fill="currentColor"
d="M115 208q1 0 2.5 0.5t1.5 3.5v37q0 2 2 2h2h2q2 0 2 -2v-41h17q1 0 2.5 3.5t3 8t2.5 8.5t1 5l0.5 2t0.5 4v3.5v2.5q1 0 2 0.5l1 0.5q1 0 2.5 -2l1.5 -2q-1 -10 -2.5 -19t-6.5 -18q-2 -3 -6.5 -4t-9 -1.5t-8 -1.5t-3.5 -3q0 -3 5.5 -4t11.5 -1t11.5 -1.5t5.5 -5.5v-18
q0 -3 -3.5 -4.5t-8.5 -2.5t-10 -1t-7 -1q-2 -3 -2 -5q0 -1 0.5 -1.5l1.5 -1.5q5 0 9.5 -0.5t8 -2t5.5 -4.5t2 -8q0 -8 -2 -11t-9.5 -3.5t-10 -3.5t-3 -6t-0.5 -5.5t-4 -2.5v3t-0.5 4t-0.5 3.5v2.5l-0.5 1.5l-0.5 1.5q-6 1 -10.5 1.5t-7.5 2t-5 4.5t-2 9v7q5 5 10 6.5t12 0.5
v2.5v1.5q0 4 -2 5.5t-5.5 2t-7 0.5t-7 1.5t-5.5 5t-2 10.5q0 6 2 9t5 4t6.5 1.5t6.5 0.5t5 1t2 4q0 2 -2.5 3t-6.5 2.5t-7.5 3.5t-4.5 4q-1 1 -2 3.5t-1.5 5.5t-1.5 5.5t-1 3.5q-1 1 -1.5 3t-1.5 4t-1.5 4t-0.5 4q0 3 4 3q3 0 4.5 -2.5t2.5 -7t1.5 -9.5t2 -9t4.5 -7t9 -3z
M101 176v-4t1 -4q11 -3 21.5 -3h20.5h3.5t2.5 1v13l-5 4h-2.5t-6 0.5t-7 0.5h-5.5l-2.5 0.5t-3.5 0.5h-6t-5.5 -1t-4 -2.5t-1.5 -5.5zM105 134q0 -2 1 -5t4 -3h37l0.5 1.5t0.5 2.5q0 3 -2 7t-5 4h-30q-2 0 -4 -2.5t-2 -4.5zM181 101q4 0 6.5 3t4 6.5t3 6.5t4.5 3
q2 0 2.5 -1.5t0.5 -3.5q0 -3 -1.5 -5t-3.5 -4t-4 -4.5t-2 -5.5v-1v-1q1 -2 2 -3t1.5 -2.5l1 -3t0.5 -3.5q0 -5 -1.5 -8.5t-4.5 -6.5q-6 0 -10.5 -0.5t-8.5 -0.5h-8h-9h-4.5h-4.5q-2 -1 -3 1.5t-1 3.5q9 0 18.5 1t18.5 1q1 0 3 0.5t3.5 1t2.5 1.5t1 3q0 1 -0.5 3t-1.5 3.5
l-2 3t-3 1.5v0v0q-1 0 -2 -1l-2 -2t-2.5 -2l-1.5 -1l-1.5 -0.5t-3.5 -0.5t-4 -0.5t-3 -0.5h-5.5t-7.5 -0.5t-7.5 -0.5h-4.5l-0.5 1t-0.5 2l0.5 1t0.5 2h5t8 0.5t8 0.5h5t2.5 0.5t3.5 1t3.5 1.5t1.5 3q0 1 -1 1.5t-2.5 1t-2.5 0.5h-2t-5 0.5t-8 0.5t-7.5 0.5t-5.5 0.5
l-0.5 0.5l-0.5 0.5l-0.5 0.5l-0.5 0.5q0 1 2 2.5t3 1.5h28q3 0 5.5 -2t5.5 -2zM59 69q0 3 -0.5 8.5t0.5 11.5t3 10.5t7 4.5q3 0 10.5 -0.5t15.5 -1.5t14 -2t6 -3q0 -1 -1 -2t-2.5 -1.5t-3 -1.5t-1.5 -2q-2 -4 -2 -8v-8v-3.5v-3.5q1 -1 3.5 -2l5 -2t4 -2t1.5 -3
q0 -1 -1.5 -2.5t-3.5 -1.5l-2.5 0.5l-2.5 0.5h-4q-3 0 -4.5 -1.5t-1.5 -5.5q0 -2 0.5 -4.5t3.5 -2.5t5.5 1.5t4.5 3.5t4.5 3.5t5.5 1.5q0 -6 -4 -9t-8 -4.5l-8 -3t-4 -5.5t3 -5h16q2 -1 4 -1.5t2 -3.5q0 -2 -1.5 -3t-3 -1.5t-4.5 -0.5h-2h-12t-16 1t-14.5 3.5t-8.5 8.5v3.5
t-0.5 6t-0.5 6v3.5t-0.5 2.5t-1.5 2.5v18zM65 73q0 -3 1.5 -4.5t3.5 -2t5 -0.5h5v4v6t-0.5 6.5t-0.5 4.5q0 2 -1 5t-4 3q-4 0 -5.5 -3t-2.5 -6.5t-1 -6.5v-6zM87 91v-3v-4v-6q0 -3 0.5 -6.5t2 -5.5t5.5 -2h3v4.5t0.5 7t0.5 7v4.5v2q0 5 -5 5q-2 0 -4 -0.5t-3 -2.5zM159 58
q3 1 6.5 1t8 1t8 1h6.5t6.5 -1.5t3.5 -4.5q0 -1 -0.5 -1.5l-1.5 -1.5q-3 0 -8.5 0.5t-11.5 0.5t-10.5 -2t-4.5 -6t2.5 -5.5t6 -2t7.5 -0.5t7.5 -0.5t6 -1.5t2.5 -5v-6t-1 -5.5t-3 -4.5t-5 -3h-15q-12 0 -18 1.5t-9 5t-4 10t-2 17.5v4v4q3 0 4.5 -1.5t1.5 -5.5q1 -1 1 -4.5
t0.5 -7t1 -6.5t0.5 -4l2 -3l1.5 -0.5t4 -0.5t4.5 -0.5t4 -0.5q5 0 10 -1t10 -1q3 0 3.5 2.5t0.5 4.5q0 5 -2.5 6.5t-6 1.5h-7.5t-7.5 1.5t-6 5t-2.5 11.5q0 2 2.5 4.5zM66 54l0.5 -0.5t0.5 -1.5q1 0 5 -1.5t7.5 -3t6.5 -3l3 -1.5h1l1 0.5t1 1.5v10q0 1 -2 1.5t-4.5 1t-5 0.5
h-2.5h-4h-3.5t-3 -1t-1.5 -3zM85 25q4 -1 5.5 2t1.5 6v3l-12 4t-12 2q0 -5 0.5 -8t2.5 -5t5.5 -3t8.5 -1z" />
</svg>
