<?xml version="1.0" standalone="no"?>
<!DOCTYPE svg PUBLIC "-//W3C//DTD SVG 1.1//EN" "http://www.w3.org/Graphics/SVG/1.1/DTD/svg11.dtd" >
<svg xmlns="http://www.w3.org/2000/svg" xmlns:xlink="http://www.w3.org/1999/xlink" version="1.1" viewBox="-10 0 266 256">
   <path fill="currentColor"
d="M66 239q0 3 0.5 5t1.5 5h1h1q3 0 4 -1t2 -4v-12q0 -16 -1 -30.5t-1 -29.5v-12q0 -2 1 -2.5t2 -0.5q3 0 4.5 2t2 4.5t1 5.5t1.5 4q0 3 0.5 10t1 14.5t1 14.5t0.5 10l1 1h1h1q1 0 1 -1t0.5 -3.5t0.5 -5.5t0.5 -5.5t0.5 -3.5v-1v-1q0 -1 -1 -7.5t-1.5 -13.5t-1.5 -13t-1 -8
q0 -5 -3 -7.5t-5.5 -4t-5 -2.5t-2.5 -2v-11q0 -1 3 -2.5t6.5 -5t6 -8.5t2.5 -11q0 -8 -5.5 -12t-12.5 -6q-1 -2 -1.5 -3.5t-0.5 -3.5q0 -5 3 -6.5t6 -3.5t5.5 -5.5t2.5 -12.5q0 -8 -3.5 -12.5t-12.5 -4.5v-21q0 -1 -2 -1.5l-2 -0.5q-1 0 -3.5 0.5t-2.5 1.5v19q0 1 -2.5 2.5
t-5 4t-5 6t-2.5 9.5t2.5 9.5t6 5.5t6 4t2.5 5q0 5 -2.5 7.5t-5.5 4t-6 2.5t-3 3v23q0 4 3 6t6.5 3t6 2.5t2.5 4.5v0.5v1.5t-0.5 3.5l-0.5 2.5l-15 15l-1 3.5t-1 6.5v8.5v14.5v14v9q-1 2 -1 3.5v3.5t1 2.5t3 0.5h2.5t2.5 -2v-56q0 -1 1 -2t1 -2q1 0 2.5 -2t2.5 -2h1h1
l0.5 0.5l0.5 0.5q2 11 2 19v19t-1 20t-1 21zM190 191q0 3 0.5 8.5t1.5 12t2.5 13t3 12t4 9t4.5 3.5t4 -1t2 -4q-8 -14 -11 -30.5t-3 -31.5q0 -8 1.5 -15t1.5 -16v-2v-3v-3v-2q-1 -4 -4 -6t-6 -3.5t-5 -3t-2 -5.5q0 -1 1 -6.5l2 -11t2 -10l1 -4.5h10q1 0 1 4t0.5 9t1.5 9t5 4
q2 0 3 -2.5t1 -4.5q0 -7 -1.5 -15t-1.5 -16q0 -6 1 -13t1 -13q0 -4 -2.5 -4.5t-6.5 -0.5v31l-1 1l-1 1q-2 2 -2.5 2h-2.5h-3t-2 -2q-2 -11 -2 -24v-24q0 -2 -2 -2h-2q-7 0 -7 6q0 8 1.5 15t1.5 15v3v4v4v3q-3 1 -6 1q-4 0 -7.5 0.5t-7 1.5t-4.5 4l3 3h19q3 0 3 3v4
q0 12 -3.5 24t-7.5 24q-3 11 -3 24v24v4v6v6v4l0.5 2l0.5 2v23q1 2 3 2h3q3 0 3.5 -2.5t0.5 -5.5q0 -14 -2.5 -28t-2.5 -28q0 -10 1.5 -18t3.5 -20q1 -2 2 -3.5t4 -1.5t5 1.5t3.5 4t1.5 5.5v5q0 10 -1.5 19.5t-1.5 19.5zM103 230q0 3 3 3q4 0 6.5 -3.5t4.5 -9t4 -12t4 -11.5
t4.5 -9t5.5 -4t5 3.5t3.5 9t3 11.5t3.5 11.5t4 9t5 3.5v0q1 -1 1.5 -2t0.5 -2v-1v0q0 -2 -1 -5l-2 -6t-2 -5.5t-1.5 -3t-1.5 -2.5t-2 -3q-8 -23 -12.5 -46.5t-3.5 -48.5q-1 -2 -3 -4t-2 -4t5 -6.5t11 -10t10.5 -11.5t4.5 -12q0 -3 -1.5 -7t-4 -7t-5.5 -5.5t-7 -2.5
q-7 0 -14 3.5t-13.5 8.5t-11.5 11t-9 11v2q0 1 0.5 2t2.5 1q1 0 2.5 -1t2.5 -2l2.5 -2.5t3.5 -1.5q3 0 5 2t3.5 4.5t3 4t3.5 1.5q3 0 3 -3q0 -4 -1.5 -6t-4 -3.5t-5 -2.5t-3.5 -4q1 -2 4 -4.5t5 -2.5q4 0 6 2.5l4 5t3.5 5t4.5 2.5q2 0 2.5 -1t0.5 -3q0 -3 -1.5 -5l-3 -4
l-3 -4t-1.5 -4q0 -3 2 -3.5t4 -0.5q5 0 8.5 4t3.5 9t-2.5 9.5t-5.5 7.5t-6.5 6t-6.5 7q-1 0 -5 4l-8 8l-7.5 7.5l-4.5 4.5l-2 2t-2 1.5t-1.5 2t-0.5 3.5v2.5t2 1.5h1v0q5 -5 10.5 -10t10.5 -10l3 4v11.5t0.5 10.5t1 10.5t0.5 11.5q0 10 -1.5 17.5t-4 14t-5.5 13.5t-7 16
q-1 4 -4.5 7.5t-3.5 8.5zM106 169v1q1 1 1.5 2l0.5 1q3 1 4.5 -4.5t3 -12.5t2 -13t0.5 -7q0 -3 -4 -3h-2t-2 1v25q-2 2 -3 4.5t-1 5.5zM148 134q0 2 0.5 8t1.5 12.5t2 11t2 4.5h1l1 -1v-3v-3v-3v-2v-7t-0.5 -10.5t-1.5 -10t-3 -4.5h-1q0 1 -1 1.5l-1 0.5v6zM56 108v-3t1 -3
q2 -4 6.5 -5t8.5 -1q6 0 8 3t2 9t-2 10.5t-10 4.5q-7 0 -10.5 -4.5t-3.5 -10.5zM56 54q0 -5 4 -7.5t9 -2.5t8.5 3.5t3.5 9.5q0 4 -3 7t-8 3q-6 0 -10 -3.5t-4 -9.5z" />
</svg>
