<?xml version="1.0" standalone="no"?>
<!DOCTYPE svg PUBLIC "-//W3C//DTD SVG 1.1//EN" "http://www.w3.org/Graphics/SVG/1.1/DTD/svg11.dtd" >
<svg xmlns="http://www.w3.org/2000/svg" xmlns:xlink="http://www.w3.org/1999/xlink" version="1.1" viewBox="-10 0 266 256">
   <path fill="currentColor"
d="M77 159q1 0 1.5 0.5l0.5 0.5v90q7 0 8.5 -5.5t1.5 -11.5q0 -12 -1 -23.5t-1 -23.5v-3t0.5 -5t0.5 -6v-3q0 -3 0.5 -6t4.5 -3q3 0 5 2.5t3 6t1.5 7t0.5 5.5v9.5v13.5v13.5v8.5q0 1 1 2.5t2 1.5l1.5 -0.5t1.5 -1.5l2 -2q1 -7 1.5 -11.5t0.5 -10.5q0 -11 -1.5 -21.5
t-5.5 -20.5q-1 -3 -4 -5.5t-6.5 -4.5t-5.5 -3.5t-2 -2.5q0 -6 3.5 -9t8 -5.5t8 -6.5t3.5 -11q0 -6 -3.5 -9.5t-7.5 -6t-7.5 -4t-3.5 -4.5v-12q5 -3 8.5 -5t5.5 -4.5t3.5 -6.5t1.5 -9t-3 -7.5t-6 -4.5t-5.5 -4t-2.5 -4v-21q0 -2 -2 -2h-2q-2 0 -4 1.5t-2 3.5v20q-4 2 -7.5 4
t-6 4.5t-4 5.5t-1.5 7q0 7 3 10.5t6.5 6t6.5 4t3 4.5q0 6 -3.5 10t-7 7t-7 6.5t-3.5 10.5q0 6 3 10t6.5 6.5t6.5 4t3 2.5v12l-2.5 1t-4.5 2q-7 4 -11 9.5t-5.5 12.5t-1.5 15v16v1v4v4v3v2v4v3v3t1 1.5t2 0.5q4 0 5 -2t1.5 -4.5t0.5 -5v-4.5q0 -3 0.5 -9t1 -13t1 -13t0.5 -9
q1 -1 1.5 -3.5t2 -4.5t3 -3.5t3.5 -1.5zM140 235q2 4 5 6.5t6.5 3.5t7.5 1h7q8 0 14 -1t10.5 -3t7 -6.5t2.5 -12.5q1 -7 1.5 -12.5t0.5 -10v-9.5v-12v-17q0 -2 -1 -3t-2 -1q-3 0 -5 4q0 4 0.5 8.5t-0.5 8t-3.5 5.5t-7.5 2h-3t-4.5 -0.5t-4.5 -1t-2 -1.5v-26q0 -2 -1.5 -2
h-2.5h-2t-1 2v26q0 1 2.5 3.5l3.5 3.5q3 1 7 2t7.5 1.5t6.5 1.5t3 4v2t-2 1q-8 1 -15 1.5t-14 0.5h-4.5h-5t-4.5 -1t-2 -3q0 -8 1 -15.5t1 -14.5v-8q-1 -2 -2 -2h-3t-3.5 1.5t-2.5 3.5v19v13t0.5 11.5t1.5 12t2 14.5zM146 220q0 -2 0.5 -4.5t3.5 -3.5q5 0 9 -0.5t7.5 -0.5h7
h7.5h4h4q2 1 2.5 2.5t0.5 3.5q0 5 -2 9t-6 6.5t-8.5 3.5t-9.5 1q-7 0 -13.5 -4.5t-6.5 -12.5zM133 134q10 6 20.5 6.5t22.5 0.5q2 0 7.5 -1t10.5 -2.5t9 -4.5t4 -7v-36q0 -2 -2 -4t-4.5 -4t-5.5 -3.5t-5 -1.5l-2 -0.5t-5 -0.5t-6 -0.5t-5 -0.5h-1h-1q-3 0 -8 0.5t-9.5 1
t-8 1t-4.5 0.5q-5 1 -7.5 3.5t-4 6t-2 7.5t-0.5 9q0 7 2 15t5 15zM146 127q0 -2 0.5 -3t0.5 -1.5t1 -2t2 -3.5q3 -7 2.5 -13.5t-0.5 -14.5l2 -4h8v47h-14q-2 0 -2 -2v-3zM170 132v-45q0 -1 1 -2t2.5 -1.5t2.5 -1t2 -0.5q4 0 4 3q0 4 -1 7.5t-1 7.5q0 8 2 16t2 16h-14z
M71 115q0 -4 1.5 -6.5t4 -4.5t6 -2.5t6.5 -0.5q5 0 8.5 3.5t3.5 9.5q0 7 -5 11t-11 4t-10 -4.5t-4 -9.5zM189 105v-11q0 -1 1 -3t3 -2q3 0 4.5 1.5t2.5 4t1 5.5v5v5.5t-0.5 6.5t-2 6t-4.5 3t-4 -3t-1.5 -6.5t0 -6.5t0.5 -5zM136 109v-5.5t0.5 -6.5t2 -6t3.5 -3q1 0 1 0.5
v0.5q1 0 1.5 1.5l0.5 1.5v19l-1.5 2t-2.5 4l-0.5 0.5l-0.5 0.5h-1q-1 0 -2 -1t-1 -3v-3.5v-1.5zM72 57q0 -5 4.5 -9.5t10.5 -4.5q7 0 9.5 4.5t2.5 10.5q0 7 -3 9.5t-9 2.5t-10.5 -3t-4.5 -10zM150 15v7.5t-0.5 7.5t-1.5 8t-3 7q-2 4 -5.5 5.5l-7 3t-6 4t-2.5 7.5q4 0 9 -2.5
t10 -6t9 -7.5t5 -7q1 -6 1 -10.5v-9.5q0 -3 -0.5 -5.5t-4.5 -2.5h-1zM177 26q0 5 1 11.5t4 12t7.5 9.5t10.5 4q4 0 6 -0.5t2 -4.5q0 -1 -0.5 -1.5l-0.5 -0.5q-2 -2 -4 -2.5t-4.5 -1.5t-5 -3t-4.5 -7q-3 -7 -3.5 -14t0.5 -14q-2 -4 -6 -4q-1 0 -2 0.5t-1 3.5v2v4v3.5v2.5z
" />
</svg>
