<?xml version="1.0" standalone="no"?>
<!DOCTYPE svg PUBLIC "-//W3C//DTD SVG 1.1//EN" "http://www.w3.org/Graphics/SVG/1.1/DTD/svg11.dtd" >
<svg xmlns="http://www.w3.org/2000/svg" xmlns:xlink="http://www.w3.org/1999/xlink" version="1.1" viewBox="-10 0 266 256">
   <path fill="currentColor"
d="M103 245q0 2 1 4t3 2q1 0 1 -0.5t1 -1.5q2 -3 2.5 -8t0.5 -7q1 -2 4 -4t5 -2h1l0.5 1t0.5 2v18q0 1 1.5 1.5l1.5 0.5q1 0 2.5 -0.5t1.5 -2.5v-17q0 -3 1.5 -3.5t3.5 -0.5h2t2.5 0.5t2.5 1l1 0.5v20q0 1 1.5 1.5t2.5 0.5l0.5 -0.5l1.5 -1.5v-9q0 -6 -0.5 -9.5t-2 -5.5
t-5 -2.5t-9.5 -0.5q-3 -3 -3 -6q0 -2 3 -3l6 -2t6 -3.5t3 -8.5q0 -5 -2.5 -6.5t-5.5 -1.5t-5 -1t-2 -5q0 -3 2 -4t4 -1.5t4 -0.5t2 -1v-18q0 -1 -2 -2t-4 -1t-3.5 -0.5t-1.5 -1.5v-17q0 -1 -1.5 -1h-1.5h-2q-1 3 -1 4.5v3.5v3v6q-1 3 -3 4t-4 2.5t-4 4t-2 7.5q0 3 1.5 5
t4 2.5t4 1.5t1.5 4t-2 4.5t-5 2.5t-5.5 2.5t-2.5 5.5q0 6 2 8t4.5 3.5t4.5 2.5t2 4t-1 4.5t-3 2l-4 1t-4 1.5q-3 2 -4.5 6.5l-2.5 7.5q0 1 -0.5 2.5zM72 241q1 2 1.5 2h1.5q3 0 3 -6q1 -2 1.5 -9.5t1 -16t1 -15.5t0.5 -11l0.5 -2l1 -4t1 -4.5t0.5 -3.5t0.5 -3.5t1 -4
t1.5 -3.5t2 -2q2 0 7 -0.5t9.5 -1.5t8 -3.5t3.5 -6.5q-5 0 -8 2.5t-7 2.5h-4h-4q0 -3 1.5 -5.5t3.5 -5t4.5 -4.5t4.5 -4v0v-1q-1 0 -1 -0.5t-1 -0.5q-2 0 -4.5 1.5t-5.5 4t-5 5t-3 3.5h-2q0 -1 -0.5 -4.5t0.5 -4.5q0 -4 2 -7t2 -7h-4q-1 0 -2.5 3l-2.5 5q-1 3 -1 4v6
q0 3 0.5 5t1.5 3.5t1.5 2.5t0.5 3t-1 5t-2 5.5t-2 5.5t-2 5q-3 14 -4.5 29t-1.5 31v3v4zM176 240q2 3 4 3q3 0 3.5 -2.5t0.5 -4.5q0 -17 -1 -33.5t-5 -32.5q0 -1 -1 -3.5t-2 -5.5t-1.5 -5.5l-0.5 -2.5l-1 -1v-1q0 -2 1 -4t2.5 -3.5t2.5 -3t1 -3.5t-1 -5.5t-3 -7t-4.5 -5.5
t-5.5 -2q0 3 1 5t2 4.5t2 4.5t1 5q0 2 -0.5 4.5t-3.5 2.5h-1q-1 -1 -2.5 -3.5t-3.5 -4.5t-4 -3.5t-4 -1.5h-2q1 2 3 4l4 4t3.5 4t1.5 5v0q-1 2 -3 2.5t-4 0.5t-3.5 -1.5t-2.5 -4t-2 -4t-3 -1.5q-1 0 -1 1v2t0.5 3t2 4.5t3.5 4t4 1.5q3 0 5.5 -1.5t5.5 -1.5q2 0 3.5 2.5
t2.5 5.5t1.5 6.5t1.5 5.5q0 2 0.5 5t0.5 6t0.5 5.5t0.5 3.5t0.5 5t0.5 8.5v8.5v6q0 1 0.5 4t0.5 6t-0.5 6t-0.5 4zM116 202q0 -2 1.5 -4.5t4.5 -2.5h15l3 2q0 1 -0.5 4t-1.5 5q0 1 -1.5 1.5t-4 1t-4 0t-2.5 -0.5h-7q-3 0 -3 -2v-4zM120 169q0 -1 1 -4t3 -3h12q2 0 2.5 3
t0.5 4q0 2 -1.5 4.5t-4.5 2.5q-4 0 -8.5 -1t-4.5 -6zM136 62h-5h-7h-7h-3q-2 0 -5 0.5t-5 1.5t-4 3t-2 5v42q0 2 3.5 4.5t5.5 2.5h13h8t9.5 -0.5t8.5 -1.5t7 -5q0 -1 0.5 -3t1.5 -4.5t1.5 -5t0.5 -3.5v0v-1q0 -4 -0.5 -9.5t-0.5 -10.5t-0.5 -8.5l-0.5 -3.5l-3 -3h-2.5h-4.5
h-5h-4zM106 112q-2 0 -2.5 -2t-0.5 -3q0 -2 0.5 -4t3.5 -2h40l0.5 1t1.5 1v1q0 3 -1.5 5.5t-3.5 4.5q-2 0 -5.5 0.5t-8 0.5h-8h-4.5h-2.5t-3.5 -0.5t-3.5 -1t-2.5 -1.5zM149 83v12h-46q0 -7 2.5 -9t9.5 -3h7h10h10h7zM103 75q0 -4 4 -6t9.5 -2.5t10.5 -0.5h8h9q5 2 5 8v0
l-1 2l-1 2h-43q-1 0 -1 -1v-2zM98 56l0.5 0.5t1.5 0.5l1.5 -0.5l1.5 -0.5v-16q2 0 4.5 1.5t4.5 3t3 3t3 1.5q2 -1 2 -4t-2.5 -4t-3.5 -3q-1 0 -2.5 -1.5t-3 -3.5t-3 -3.5l-2.5 -2.5t-1 -3v-6t-1 -5t-3 -2v18q-3 1 -7 3.5t-8.5 6t-8 6.5t-3.5 6q0 1 0.5 1.5t1.5 0.5
q4 0 6 -2.5t4.5 -5.5t5 -5.5t5.5 -2.5q2 0 2 1t1 3v3t0.5 4.5t0.5 4.5v3zM155 53q1 0 1.5 0.5l0.5 0.5v0h1l1 -0.5t1 -2t0.5 -2.5l0.5 -1v-3v-4t-0.5 -4t-0.5 -3h5l15 16h5q0 -5 -3 -8.5t-6.5 -6.5t-7.5 -6t-6 -7v-1v-3.5t-0.5 -3t-2.5 -2.5v0q-2 0 -2.5 1.5t-0.5 4.5v4
t-2 3l-23 20v0.5v0.5q0 3 2 3q1 0 4.5 -3t6.5 -6.5t5.5 -6t3.5 -1.5l1 1q0 5 0.5 10t0.5 10z" />
</svg>
