<?xml version="1.0" standalone="no"?>
<!DOCTYPE svg PUBLIC "-//W3C//DTD SVG 1.1//EN" "http://www.w3.org/Graphics/SVG/1.1/DTD/svg11.dtd" >
<svg xmlns="http://www.w3.org/2000/svg" xmlns:xlink="http://www.w3.org/1999/xlink" version="1.1" viewBox="-10 0 266 256">
   <path fill="currentColor"
d="M178 186q0 6 0.5 10.5t1 8.5t1.5 8t2 10q0 1 0.5 5.5t1.5 9.5t3 8.5t5 3.5t4 -1t1 -3q0 -6 -2 -9.5t-3 -8.5q-4 -13 -5.5 -27.5t-1.5 -28.5v-15l3 -1.5t2 -0.5h2q4 5 8 9.5t8 9.5h2q3 0 4 -1t1 -4v-2v-2q-12 -11 -22 -23q1 -4 3.5 -7t5.5 -6t5.5 -6t2.5 -7
q0 -2 -1.5 -2.5t-3.5 -0.5q-3 0 -4.5 2t-3 4.5t-3.5 5t-5 2.5q-2 0 -3 -3t-1 -6v-6.5v-4.5v-5.5t2 -5.5q1 0 3.5 0.5t5.5 0.5t5.5 -0.5t3.5 -0.5q2 0 4 -1t2 -4q0 -1 -0.5 -2.5t-2.5 -1.5h-21v-6t-0.5 -6t0 -5.5t1.5 -5.5q2 -2 6 -2.5t8 -1.5t7.5 -4t3.5 -12v-2.5v-3.5
t-1 -3t-2 -1q-4 0 -5 3t-1.5 6.5t-2 6.5t-5.5 3h-3.5t-2.5 -2v-3.5v-3.5q0 -3 1 -6t2 -5.5t1.5 -5t0.5 -5.5t-1.5 -4t-4.5 -1q-2 0 -3.5 1.5t-2 3.5t-1 4.5t-0.5 4.5v4v8v7v4q-1 7 -2 14.5t-1 14.5q0 1 -1 3l-1 2q-1 0 -3.5 -1l-2.5 -1v-45q0 -2 -1.5 -3t-3.5 -1.5t-4 -0.5
h-4h-4t-6 0.5t-5 1.5t-2 3t1 3t3 2v38q2 0 4 -1t2 -4v-32q0 -1 2.5 -1.5t3.5 -0.5h3q2 0 2 2q2 8 2 14.5v15.5v5v4l-2 3h-44q0 -1 -0.5 -5t-0.5 -9v-9v-5v-2.5t0.5 -5.5t2 -5.5t2.5 -2.5q2 0 3 2.5t1 3.5v4v7v6.5v4.5t0.5 3l1 4t1 3.5t2.5 1.5t2.5 -0.5l1.5 -1.5v-7.5
t0.5 -11.5t0.5 -11v-7v-3q0 -3 -2.5 -5t-6 -2.5t-7 0t-5.5 0.5h-11q-2 0 -2 3q0 2 1 3t3 1.5t3 1.5t1 2v41l-2 0.5l-4 1t-3.5 1.5t-1.5 3v1l0.5 0.5t1.5 0.5h16l0.5 0.5t0.5 1.5q1 1 1.5 2l0.5 1l-2 20l-1.5 0.5t-2.5 0.5q-6 0 -8 -3.5t-2 -10.5h-1.5h-0.5q-3 0 -3 2v5
q0 8 3 11t6.5 4t7 2.5t3.5 6.5q0 2 -3 3.5t-6 1.5q-2 0 -3.5 -1l-3 -2l-3 -2t-3.5 -1v3q0 1 0.5 3.5t1 4t2.5 1.5l16 4v17q0 2 -3 2.5t-4 0.5h-5q-1 -2 -1 -3v-2.5t-1 -2.5l-2 -2l-2 1v2.5v2.5q0 6 1 8t3 3t4 1.5l4 1t3 2t1 6.5q0 3 -2.5 4t-6 1t-6 1.5t-2.5 5.5q17 0 32 -1
t32 0q2 -1 2 -2v-2v-2.5t-2 -1.5h-16q-1 0 -1.5 -2.5t-0.5 -3.5q0 -4 3 -5t6.5 -3t6.5 -6t3 -14q-3 0 -4.5 2t-2.5 4t-2.5 3.5t-4.5 1.5t-5 -3v-6q0 -5 1 -7t2.5 -2.5t3.5 -0.5q3 0 6 -1q2 -1 3.5 -2.5t1.5 -2.5v-17q-3 0 -4 1.5t-2 4t-2.5 4.5t-4.5 2q-2 0 -3.5 -1t-1.5 -3
q0 -7 3.5 -8.5l7 -3t6.5 -5t3 -11.5q0 -4 -3 -4t-4 2t-1.5 4.5t-1.5 4t-4 1.5q-1 0 -3 -1t-3 -2v-6q0 -6 2.5 -9t6 -4.5t8 -1t10.5 0.5q1 0 3.5 -0.5t2.5 1.5v7v8t0.5 7.5t1.5 6.5q0 3 2.5 6.5t2.5 7.5q0 2 -1 5.5t-2.5 7t-2.5 8t-1 7.5v19zM66 134v99q0 1 1.5 1.5t2.5 0.5
q3 0 4.5 -3t1.5 -6q0 -16 -2 -33.5t-2 -33.5q0 -2 0.5 -6.5l1 -9t1.5 -8.5t2 -4q2 0 3.5 3t2 6l1 6t0.5 4v4v6v5v4v9.5t0.5 13t0.5 12v7.5q0 1 1 4t1 4h1h2.5t1.5 -1v-43q-2 -3 -2 -8v-9v-9v-7q0 -5 -2.5 -9.5t-5.5 -8t-5.5 -5.5t-2.5 -3q0 -5 2.5 -6t6 -2.5t6.5 -4.5t3 -12
q0 -6 -3 -9t-6.5 -4.5t-6.5 -3.5t-3 -7q0 -4 3 -5t6.5 -3t6.5 -5.5t3 -11.5v-4v-4q-1 -2 -3 -2.5t-3.5 -1.5l-3 -2t-2.5 -3v-4t-0.5 -4.5t-1.5 -3.5t-4 -1q-2 0 -3.5 1.5t-2 3.5t-0.5 4.5t-1 3.5q0 1 -2.5 2.5t-5.5 3t-5.5 3.5t-4.5 3v3.5v2.5q0 8 4.5 13.5t12.5 7.5v12
q-4 1 -7 2t-5.5 3t-4 4.5t-1.5 6.5q0 7 3 11t6.5 6.5t7 4t3.5 4.5q0 2 -2 4t-4.5 3t-4.5 2t-3 1q-5 4 -6.5 11t-2 14.5t0 15t0.5 12.5q0 11 -2 20.5t-2 21.5q6 0 8 -6t3 -15.5t1 -20.5v-21t1.5 -17.5t5.5 -9.5l2 0.5t3 0.5zM126 194v-22v-22v-10t0.5 -14.5t0.5 -14.5v-10
q1 -2 2 -3.5t3 -1.5q3 0 4 1.5t3 3.5v33v33q0 2 -0.5 5t-0.5 7t-0.5 7t-0.5 5q0 4 -0.5 4.5t-3.5 0.5h-4t-3 -2zM56 95q0 -3 1.5 -5.5t4 -4t5.5 -2.5t6 -1l2.5 0.5t3.5 0.5q2 2 3.5 4t1.5 5q0 4 -1.5 5.5t-3.5 2.5t-5 1h-5h-8q-3 -1 -4 -2.5t-1 -3.5zM59 44q0 -2 0.5 -5
t4.5 -3h16q1 0 2 1t1 2.5t0.5 3l0.5 1.5q0 3 -1 5t-4 4h-7q-4 0 -8.5 -1.5t-4.5 -7.5z" />
</svg>
