<?xml version="1.0" standalone="no"?>
<!DOCTYPE svg PUBLIC "-//W3C//DTD SVG 1.1//EN" "http://www.w3.org/Graphics/SVG/1.1/DTD/svg11.dtd" >
<svg xmlns="http://www.w3.org/2000/svg" xmlns:xlink="http://www.w3.org/1999/xlink" version="1.1" viewBox="-10 0 266 256">
   <path fill="currentColor"
d="M131 204q0 2 1 5.5t2 8.5t2.5 11t3.5 10.5t3.5 7.5t2.5 3q2 0 2 -1.5v-3.5q0 -5 -1.5 -9.5t-3.5 -9.5l-4 -10t-2 -10q0 -2 1.5 -6t4.5 -4h1l0.5 0.5l0.5 0.5q1 2 2 5t2.5 6.5t3 6.5t2.5 4q0 1 1.5 4.5t3 7.5t3 7t3.5 3t2.5 -1.5t0.5 -2.5q0 -2 -2 -7t-5 -10.5t-5.5 -11
t-3.5 -7.5q0 -1 -1 -2t-1.5 -2.5t-1.5 -2.5l-1 -1l1 -1.5t1.5 -3t1.5 -3t1 -2.5q1 -2 1 -5.5t2 -6.5h3t4 -0.5t3 -1t1 -3.5q0 -1 -0.5 -1.5t-2.5 -0.5h-23q-1 0 -1.5 -2.5t-0.5 -3.5q0 -3 4.5 -5t10.5 -3t12 -1.5t8 -0.5q3 0 6.5 0.5t6 2.5t4 4.5t1.5 6.5q0 7 -3.5 11.5
t-7.5 8.5t-7.5 8.5t-3.5 9.5q0 4 1.5 9t3.5 9q0 1 2 5l4 8t4 7.5t2 5.5q1 0 2 0.5l1 0.5h1q2 0 2.5 -1t0.5 -3v-2l-5 -7.5t-6 -9.5t-5 -10t-2 -9v-2.5t0.5 -3t1.5 -2.5t2 -1q4 0 7 6t6 13t6 13t6 6q2 0 2.5 -2t0.5 -3q0 -4 -2.5 -7.5t-4.5 -6.5l-3 -6t-4.5 -8t-3.5 -6.5
l-1 -2.5v-7l9 -10v-20q0 -3 -3 -5t-7 -3.5t-7.5 -2.5t-5.5 -2v-10l1 -2q7 1 11 0.5t6.5 -2.5t3 -6t0.5 -11q0 -1 -0.5 -2.5t-2.5 -1.5h-16q0 -1 -1 -3.5l-1 -2.5q1 -3 2.5 -5t3.5 -4t3 -4.5t1 -5.5q0 -2 -1 -3.5t-3 -1.5l-0.5 0.5l-0.5 0.5q1 7 -4 11t-12 4h-2.5h-3.5
q-2 0 -2 -3v-6.5t-0.5 -6.5t-3.5 -3q-1 0 -2 1t-1 3v17l-0.5 0.5t-1 0.5t-2.5 1l-2 1q-4 0 -5.5 -2.5t-2.5 -4.5l-2 -4t-4 -2q0 7 2 12t10 7v6h-5t-6 0.5t-6.5 1t-5.5 1.5v0.5v1.5q0 2 1.5 2.5t2.5 0.5h2l2 -0.5t3.5 -0.5t3 -0.5t2.5 -0.5h1v0q1 0 3 0.5t2 1.5v2v2
q0 1 0.5 3.5t-1.5 3.5l-14 3q-2 0 -3 1t-2 3t-2 3.5t-1 2.5t-0.5 3t-1 4.5t-1 4t-0.5 2.5q-1 1 -1 3.5t-0.5 4.5t-0.5 4.5v3.5v27v8t-0.5 12.5t-0.5 12.5t-1 8v3q0 2 1 4t3 2t3 -1.5t1 -3.5v-11q0 -12 -0.5 -24.5t-0.5 -25.5v-5q0 -1 0.5 -3t1 -5t1 -5t0.5 -3q1 -3 1.5 -8
t1.5 -9t4.5 -7t8.5 -3h2.5t1.5 1v13q0 1 -1.5 2l-3 2t-3 3t-1.5 5q0 5 2 7t5.5 3t5.5 2t2 3q0 6 -2.5 9.5t-5.5 6.5l-6 6t-3 8zM50 210v4v4l4 3q3 -2 4 -9t1.5 -17t0.5 -21t0.5 -20t2 -15.5t5.5 -7.5q2 -1 3.5 1.5t2 6t1 6.5l0.5 3v48q-1 4 -1 7v8v7q0 1 1 1h2q2 0 3 -1.5
t1 -4t0.5 -4.5l0.5 -2v-74q0 -2 2 -2h2q3 0 4.5 2t2.5 5t1.5 6t0.5 4q1 3 1.5 8.5l1 11t1 10t0.5 5.5v6.5v9.5v10v6q4 0 5 -4t1 -6v-4q0 -4 -1 -13t-1.5 -18.5t-1 -18t-1.5 -11.5q0 -1 -0.5 -4.5t-0.5 -4.5q-2 -3 -4.5 -4t-5.5 -2.5t-5.5 -3t-2.5 -4.5q0 -5 3 -7l6 -4
t6 -4.5t3 -7.5v-3.5t-0.5 -5t-1.5 -4.5t-3 -3l-12 -2v-11q0 -2 2.5 -2.5t5 -2t5 -4t2.5 -7.5q0 -8 -3.5 -11.5t-10.5 -5.5v-3q0 -3 0.5 -5.5t0.5 -4.5q0 -7 -5 -7q-3 0 -4 2.5t-1 5.5t0.5 6l0.5 3q-2 4 -4.5 5l-5 2t-4 3.5t-1.5 8.5q0 5 2.5 7.5t5 4t5 3.5t2.5 6q0 6 -2.5 8
t-5 3t-5 3.5t-2.5 10.5q0 7 2 10t4.5 4.5l5 3t2.5 7.5q0 2 -2 3t-4.5 2t-5 2.5t-4.5 3.5t-3 8t-2.5 14t-1.5 17t-0.5 17t-0.5 14v10zM148 138v-1.5t0.5 -3t1 -2.5t2.5 -1h16q0 8 -3.5 11t-11.5 3q-4 0 -4.5 -1t-0.5 -5zM148 119q0 -2 0.5 -3.5t3.5 -2.5q0 -1 2 -1h4
q3 0 6 0.5t3 4.5q0 2 -0.5 4t-2.5 2h-14q-2 0 -2 -2v-2zM175 116q0 -5 5 -5q7 0 7 7q0 2 -0.5 3t-2.5 1q-4 0 -6.5 -1t-2.5 -5zM150 103q0 -1 0.5 -2.5t2.5 -1.5h14l1 1.5t1 2.5t-1 1.5l-1 0.5q-1 0 -3 0.5t-4 0.5t-4 0.5t-3 0.5h-1q-1 0 -1.5 -1t-0.5 -3zM65 90
q1 -3 3 -4.5t5 -2t6 -0.5h5q4 0 5 1t1 5q0 13 -13 13q-2 0 -5 -1t-5 -2.5t-3 -3.5t1 -5zM114 80l2 2v0q3 0 3.5 -2.5t1 -5.5t2 -5.5t4.5 -2.5h5t5.5 0.5l2.5 0.5v12l2 -0.5t3 -1.5q2 -1 2 -4v-4q0 -4 -0.5 -8.5t-2 -8t-5 -5.5t-8.5 -2q-8 0 -11.5 1t-4.5 3.5t-1 7v11.5v12z
M173 68h17q2 0 2 2v4q0 3 0.5 5t2.5 3l0.5 -1t1.5 -1q0 -1 1.5 -3.5l1.5 -2.5v-22q0 -1 -1.5 -2.5l-1.5 -1.5h-5.5h-5.5h-5.5h-4.5l-1.5 0.5t-3.5 1l-4 1t-2 1.5v24l1.5 1t2.5 1v1q1 0 2 -2t1.5 -3.5t0.5 -3.5v-2zM173 59q0 -4 3 -7h3.5h3.5h2.5t3 0.5t2.5 1t1 2.5t-0.5 4
t-2.5 2h-14q-1 0 -1.5 -1.5zM122 58q0 -3 1.5 -4t3.5 -1.5t4 -0.5h3q3 0 4 1t1 3q0 4 -3.5 4h-5.5h-6q-1 0 -1.5 -0.5l-0.5 -0.5v-1zM68 50q0 -3 1 -5t3 -3q1 0 3.5 -0.5l2.5 -0.5h5t5 2v4q0 3 -1 4.5t-3 2t-4 0.5h-5q-3 0 -5 -0.5t-2 -3.5zM112 35l2 2h30q0 -1 -0.5 -2.5
t-1.5 -2.5h-6h-6h-6t-6 1zM164 34l0.5 0.5l0.5 0.5h33q2 0 2.5 -0.5t0.5 -1.5v-2.5t-1 -1.5h-5.5h-5.5q-6 0 -11 0.5t-13 1.5l-0.5 1t-0.5 2z" />
</svg>
