<?xml version="1.0" standalone="no"?>
<!DOCTYPE svg PUBLIC "-//W3C//DTD SVG 1.1//EN" "http://www.w3.org/Graphics/SVG/1.1/DTD/svg11.dtd" >
<svg xmlns="http://www.w3.org/2000/svg" xmlns:xlink="http://www.w3.org/1999/xlink" version="1.1" viewBox="-10 0 266 256">
   <path fill="currentColor"
d="M119 247v2t1 1h7h6q3 0 11.5 -0.5t17.5 -1t17 -1t11 -0.5t6 -1t4 -4q-1 -2 -3.5 -3t-5.5 -1h-5.5h-3.5q-4 -7 -6 -15t-2 -17v-2v-4v-3v-3q1 -3 3.5 -4.5l5 -3t4.5 -3.5t2 -5v-1l-0.5 -1t-1.5 -1v0h-1t-4 2t-7 4.5t-9 4t-11 1.5q-5 0 -8.5 -1t-7 -2.5t-7 -2.5t-7.5 -1
q0 4 3 7.5t7 5.5l7 3.5t3 2.5v29l-1 2l-2 4l-2 4l-2 4l-0.5 0.5l-1.5 1.5l-2 -0.5t-4 -0.5t-4 0.5l-2 0.5q-3 0 -4 0.5t-1 2.5zM155 199q0 -1 1.5 -2t2.5 -1t2 3t2.5 7t2.5 9.5t2.5 10t2.5 8t2 4.5q-1 1 -3 1.5t-3 0.5t-4 0.5t-6 0.5t-6.5 0.5t-4.5 0.5q6 -10 8 -21t1 -22z
M122 216q0 3 -1 6t-2.5 6t-2.5 5.5t-1 5.5v1q5 0 8 -2t5.5 -5.5t3.5 -7.5t1 -8v-6t-1 -5.5t-3 -4.5t-5 -2q-1 0 -2.5 0.5t-1.5 2.5v1l0.5 2t0.5 4t0.5 3.5t0.5 2.5v1zM184 210q0 4 1.5 8.5t5 8.5t7 6.5t8.5 2.5q0 -4 -1.5 -6.5t-3 -5.5t-3.5 -5.5t-3 -5.5q0 -1 -0.5 -3.5
l-1 -5l-1 -5t-0.5 -3.5l-0.5 -0.5l-0.5 -0.5q-2 0 -3.5 2t-2 4.5l-1 5t-0.5 3.5zM115 133q-3 9 -4 19.5t-5 19.5q-2 3 -3.5 5l-3 4t-2.5 4.5t-1 5.5q7 0 11.5 -5.5t8 -14t5.5 -16.5t4 -14q3 -7 2 -14.5t-0.5 -14t4 -11t14.5 -4.5q3 0 4.5 1.5t2 3.5t0.5 5v4q0 1 -0.5 3.5
l-0.5 2.5q-1 3 -2 3.5t-3 0.5q-3 0 -3.5 -1.5t-1 -3.5t-1.5 -3.5t-3 -1.5h-1l-0.5 0.5l-0.5 0.5q-2 8 -2 14.5v14.5v16q1 4 3 6t5.5 3.5t7 2t6.5 0.5q6 0 11 -1t8 -3.5t5 -7t2 -10.5q0 -7 -1 -15.5t-3 -15.5l-0.5 -1l-0.5 -1q-2 0 -3.5 1.5t-1.5 3.5h-12l-0.5 -0.5
t-0.5 -1.5v-2.5v-3.5h18l1 -1.5t2 -2.5h0.5t0.5 -1q-2 0 -5 0.5t-6.5 0t-6.5 -2t-3 -4.5t3 -3.5l6 -1t5.5 -1t2.5 -2.5q0 -1 -0.5 -2.5t-1.5 -1.5h-13q-1 0 -1.5 -2l-0.5 -2q0 -4 2.5 -6.5t5.5 -2.5q4 0 7.5 1t6.5 2.5t4.5 4t1.5 6.5q0 6 -0.5 11t-0.5 10q0 2 0.5 7.5
t1.5 12.5t3 14.5t4.5 13.5t5.5 10t6 4q2 0 3.5 -0.5t1.5 -2.5t-2 -6.5t-4.5 -10t-4.5 -10.5t-2 -9q-1 -11 -1 -19.5v-16.5t-1 -13.5t-4.5 -10t-10.5 -6.5t-19 -2q-3 -1 -3.5 -3.5t-0.5 -4.5v-4t0.5 -4t1.5 -3.5t3 -1.5q4 0 6.5 2t5.5 2h6t8.5 -0.5t8 -2t3.5 -4.5t-3 -3h-22
q-1 0 -3 -1.5t-2 -3.5t2 -3.5t4.5 -2.5t4.5 -3.5t2 -7.5q-7 0 -13.5 2.5t-12.5 7.5q-1 3 -3 5.5t-3 4.5v3.5t-0.5 5.5t-0.5 6t-1 4q0 1 -0.5 4.5l-0.5 3.5q0 1 -1 1.5l-1 0.5h-15q-1 0 -2.5 -3t-1.5 -4q0 -6 2 -11t4.5 -10.5t5 -10.5t2.5 -11q0 -1 -0.5 -2t-1.5 -1
q-3 0 -6.5 5.5t-7 13t-6 14t-2.5 9.5q0 8 2 12.5t6 6.5t8 2.5l8 1t6.5 2t2.5 4.5t-3.5 4t-5.5 2h-2.5t-5 0.5t-4.5 0.5h-2q-1 0 -2.5 1l-3 2t-3.5 2t-3 2q-1 0 -1.5 1l-0.5 1v34zM48 125q0 6 1 14t3 15t6.5 11.5t13.5 4.5q11 0 18.5 -2.5t11 -8t4.5 -13.5t1 -20v-7
l-0.5 -0.5t-0.5 -1.5h-1h-1l-1.5 1.5l-0.5 0.5q-1 6 -2 11.5t-2.5 10t-4 9t-7.5 9.5l-2 -2v-50q0 -2 2.5 -3t6 -1t6 -0.5t2.5 -3.5q0 -1 -0.5 -2.5t-1.5 -1.5h-13l-1 -2t-1 -3q-1 -9 -1 -19v-19q3 0 5.5 1t4.5 2t4.5 2t4.5 1q4 0 4 -4v-1l-22 -22q0 -1 -0.5 -2t-1 -2.5
t-1 -2.5t-0.5 -2q-4 1 -7 3t-5 5t-3.5 6.5t-4.5 7.5q-2 2 -4.5 3.5t-5.5 4t-4.5 5t-1.5 5.5t3 3q2 0 3 -0.5t2 -1.5t3.5 -3l5 -4t5 -3.5t2.5 -2.5l1 -1h1v1q1 0 1.5 0.5l0.5 0.5v41l-4 4h-19q-1 0 -1.5 2.5l-0.5 2.5v3q6 2 12 2h11l2 1v48l-0.5 1t-1.5 1h-1q-4 0 -6.5 -6.5
t-4.5 -14t-3.5 -14t-3.5 -6.5h-2t-2 1v8zM141 151q0 -2 1 -3t4 -1q2 0 4 1t2 3t-2 5.5t-4 3.5q-1 1 -2 0t-1.5 -3t-1 -3.5t-0.5 -2.5zM159 153q0 -4 1 -5t5 -1h4v3t-1 4.5t-2 4t-3 1.5q-3 0 -3.5 -2t-0.5 -5zM145 131q2 0 2.5 1t0.5 3q0 4 -2 4.5t-5 0.5v-5.5t4 -3.5z
M159 135q0 -3 2 -4.5t5 -1.5t3 1.5v3.5q0 4 -0.5 5t-4.5 1q-2 0 -3.5 -1t-1.5 -4z" />
</svg>
