<?xml version="1.0" standalone="no"?>
<!DOCTYPE svg PUBLIC "-//W3C//DTD SVG 1.1//EN" "http://www.w3.org/Graphics/SVG/1.1/DTD/svg11.dtd" >
<svg xmlns="http://www.w3.org/2000/svg" xmlns:xlink="http://www.w3.org/1999/xlink" version="1.1" viewBox="-10 0 266 256">
   <path fill="currentColor"
d="M160 201q3 0 6 3.5t5.5 9t5 11.5t5.5 11.5t6 9t7 3.5q2 0 4.5 -0.5t2.5 -2.5q0 -3 -2 -7q0 -1 -1.5 -4t-3.5 -6.5t-3.5 -7t-2.5 -4.5l-1 -1l-2 -2q-1 -2 -3.5 -5t-4.5 -5.5t-3.5 -4.5l-1.5 -2v-3l10 -13l0.5 -3t1 -8t1 -9.5t0.5 -7.5l0.5 -1l0.5 -1q0 -6 -6 -9t-14 -4
t-15.5 -1h-11.5t-8.5 1t-9.5 1h-1q-1 0 -6 -0.5t-11 -0.5t-11 -0.5t-6 -0.5h-1v0q-1 0 -3 0.5l-4 1t-3.5 1t-2.5 0.5q-2 1 -2.5 1.5t-0.5 1.5q0 3 1.5 4t4.5 1q6 0 11.5 -0.5t11.5 -0.5h5q1 1 1.5 2t0.5 3v2q0 1 -0.5 3t-0.5 4t-0.5 3.5t-0.5 2.5l-0.5 0.5l-0.5 0.5
q-1 1 -4 1.5t-4 0.5q-2 0 -7 0.5t-10.5 0.5t-10 0.5t-6.5 0.5q-2 1 -2.5 3t-0.5 4v0q0 1 1 2l2 2h3h4q8 0 15.5 -1.5t15.5 -1.5q0 12 -3.5 17t-8.5 6.5t-10.5 1t-10.5 -1t-8.5 1t-3.5 7.5q0 2 1 3t3 1q11 0 20.5 -2.5t19.5 -4.5h3h4h6h2q1 0 4.5 -0.5t8 -1t8.5 -1t6 -0.5
q5 0 10 -2.5t10 -2.5zM109 197v0q0 -2 0.5 -5l1 -6t1 -5l0.5 -2l1 -1h27l1 1t2.5 2t2.5 2t2 1l1 1t2.5 1.5t2.5 1.5l1 1q1 0 1.5 0.5t0.5 1.5l-0.5 1t-1.5 2q-10 2 -20.5 4t-21.5 2h-2.5t-1.5 -3zM115 148l1 -1h3t5 -0.5t6 -0.5h4h7t8.5 0.5t7.5 0.5h5h3t4 0.5t3.5 2
t1.5 3.5v19q-1 1 -2 3.5t-1.5 4.5t-2 4t-3.5 2v0q-2 -3 -5 -6t-6.5 -5.5t-7 -4.5t-6.5 -3h-3h-6h-5h-3q-1 0 -3.5 -0.5t-3.5 -1.5l-0.5 -0.5l-0.5 -0.5v-16zM122 110v18l1 0.5l1 0.5h1v0h1l1.5 -0.5l1.5 -0.5q0 -1 0.5 -3t0.5 -4t0.5 -3.5t0.5 -2.5t0.5 -3.5t2.5 -2.5
q13 -2 28.5 -2h28.5q2 -1 2.5 -2.5t0.5 -3.5t-1.5 -3t-4 -1.5t-4.5 -0.5h-4q-11 0 -21 1.5t-21 1.5q-3 0 -4.5 -1t-2.5 -3.5t-1.5 -5t-0.5 -5.5q0 -1 1 -2.5t2 -2.5q13 -2 27.5 -2h26.5q3 1 3.5 -1t0.5 -3q0 -3 -0.5 -4t-3.5 -1q-9 0 -18 1t-17 1q-1 0 -5 -0.5t-5 -0.5
l-0.5 -1t-0.5 -2t1.5 -4t3 -6.5t3 -6.5l1.5 -3h44q2 0 3 -2t1 -4l-0.5 -1.5t-0.5 -2.5l-2 -1h-38q0 -4 1.5 -6.5t3 -4l3 -3t1.5 -3.5q0 -3 -2.5 -5t-4.5 -2q-3 0 -5 2.5t-3 6t-1.5 7t-0.5 5.5l-19 37h-6q-2 -5 -4 -11.5t-4.5 -12.5t-4.5 -12t-4 -11q-3 -4 -5.5 -6.5
t-7.5 -2.5q0 4 0.5 7t1.5 5.5t2 5.5t1 6v1l-0.5 1l-0.5 1q-9 -1 -18.5 -0.5t-17.5 1.5q-1 1 -3 2t-2 3q1 4 2.5 4.5t4.5 0.5q10 0 19 -2.5t18 -2.5q3 0 5 3t3.5 7t2.5 8t1 6q0 1 -0.5 2t-2.5 1h-48q-2 0 -3 1.5t-1 2.5q0 7 8 7q3 -1 9.5 -1.5t14 -1.5t14 -1.5t9.5 -0.5h2
h3.5t2.5 1v16q0 1 -2.5 2l-2.5 1h-4h-7h-6.5h-4.5l-2.5 0.5t-5 0.5t-5 0.5l-2.5 0.5h-5t-7.5 0.5t-6 2t-1.5 5.5q0 1 2.5 3t4.5 2q12 0 24 -3t24 -3q2 0 4.5 0.5l2.5 0.5z" />
</svg>
