<?xml version="1.0" standalone="no"?>
<!DOCTYPE svg PUBLIC "-//W3C//DTD SVG 1.1//EN" "http://www.w3.org/Graphics/SVG/1.1/DTD/svg11.dtd" >
<svg xmlns="http://www.w3.org/2000/svg" xmlns:xlink="http://www.w3.org/1999/xlink" version="1.1" viewBox="-10 0 266 256">
   <path fill="currentColor"
d="M172 248l1 1l2 2h1v0q2 -1 3.5 -1.5l1.5 -0.5v-9q-10 -13 -16.5 -28t-10.5 -30v-1q0 -4 2.5 -6t6 -4t6 -4.5t2.5 -8.5q-2 0 -4.5 1t-4 2.5t-3.5 2.5t-4 1h-1.5t-1.5 -1q-1 -6 -1 -9.5v-8.5v-4t1 -3h3t4 -0.5t4 -0.5h3h33l3 -3t2 -4t-1 -2.5t-3 -0.5q-11 0 -23 1.5
t-23 1.5h-5q-1 0 -1.5 -2.5t-0.5 -3.5q0 -6 4.5 -7.5t9.5 -2t9.5 -3t4.5 -9.5q0 -3 -0.5 -4t-3.5 -1t-4 2l-2 4t-2.5 4t-5.5 2q-6 0 -7 -2t-1 -4.5v-5.5q0 -2 -3 -3q-2 -1 -3 1.5t-1.5 6t-0.5 8.5t-0.5 9t-1 7t-1.5 4q-5 1 -8.5 1t-7 0.5t-6.5 0.5h-7h-9l-0.5 -1t-0.5 -2
q-1 -1 -1 -3t-0.5 -4t-0.5 -4v-3q0 -4 2.5 -5.5t5.5 -2t5 -2t2 -4.5v-2t-2 -1q-4 0 -9 2.5l-9 4.5q-1 0 -5 0.5t-8.5 1t-7.5 2t-3 4.5v1l2 1q0 1 1 1.5t2 0.5l1.5 -0.5l3 -1t2.5 -1t2 -0.5h4h4q0 1 1 3.5t1 3.5t-0.5 4.5t-0.5 4.5t-0.5 1.5l-0.5 0.5h-3.5t-5.5 0.5t-5.5 0.5
h-2.5q-5 1 -8.5 0.5t-6.5 0t-4.5 2.5t-1.5 7q10 0 19.5 -1.5t18.5 -1.5h1l0.5 1t0.5 2t0.5 4t0.5 4q0 5 -0.5 8t-1.5 6t-4 5t-7.5 4.5l-9 5t-8.5 5.5t-7 5t-3 5q0 2 1.5 2.5t3.5 0.5t5 -1.5t5.5 -3.5t4.5 -4.5t4 -3.5q1 0 3 -1.5t4 -2.5t3.5 -2l1.5 -1h3q0 16 -2.5 31
t-2.5 30q3 0 5 -1t3 -3t1 -4.5v-5.5q0 -2 1 -9t1.5 -15t1 -15.5t0.5 -9.5q0 -7 3 -10t7 -4.5t7 -3.5t3 -7q-1 0 -4 0.5t-4 0.5t-2.5 1.5t-2.5 1.5q0 1 -1.5 1.5l-1.5 0.5q0 -1 -1.5 -2t-1.5 -2v-2v-3v-3t0.5 -3.5t1.5 -2.5t3 -1h35l1 2l0.5 3t1 7.5l1 9t0.5 7.5q1 1 1 3v3
q0 4 -2 7l-4 6t-4.5 5.5t-3.5 6.5q-2 4 -4.5 8.5t-4 9.5l-3 10t-1.5 9q0 2 0.5 3t2.5 1t4 -3t4 -8t4 -11.5t4 -12t4 -10t5 -5.5q2 1 4.5 5.5t4.5 10.5t4 11.5t4 8.5q0 1 1.5 4.5t3 6.5t3 6.5t1.5 4.5zM122 86v3v4.5t-0.5 4.5t-0.5 3q1 1 2 3t3 2q3 0 3.5 -3.5t1.5 -7.5
t2.5 -7.5t6.5 -3.5h35q2 0 3.5 -2t1.5 -3t-1 -1q0 -1 -1 -2t-2 -1q-9 2 -19 2.5t-20 0.5q-3 0 -4 -3t-1 -6v-2.5t0.5 -3.5t1.5 -3t3 -1h35l0.5 -1l0.5 -1l2 -3q0 -2 -2.5 -2h-2.5h-4q-1 0 -4 0.5t-7 0.5t-7 0.5t-4 0.5t-3.5 -0.5t-3.5 -1.5q1 -4 2.5 -6.5t3 -4t4.5 -2.5
t7 -1h1q1 0 5 0.5t8.5 0.5t8 0.5t4.5 0.5h4q2 0 3.5 -1t1.5 -3q0 -1 -1.5 -2.5t-2.5 -1.5h-28q-1 0 -3.5 -1t-2.5 -3q0 -3 2.5 -5t2.5 -4q0 -3 -1.5 -3.5t-3.5 -0.5q-3 0 -5 2t-3 5l-2 6l-2 6l-1.5 1t-1.5 2q-1 1 -2.5 4.5t-2.5 4.5h-2q-5 0 -8.5 -5.5t-7 -12t-6.5 -12
t-6 -5.5t-3.5 1.5t-0.5 3.5t1 3.5t2 2.5t1.5 2.5t0.5 2.5q0 2 -0.5 3.5t-2.5 1.5l-33 5q-2 0 -3 2t-1 3q0 2 0.5 3t3.5 1q5 0 10 -1.5t10.5 -3t10.5 -3t10 -1.5h1l11 10v7q-11 1 -23 1q-11 0 -23 2q-1 0 -1.5 1t-0.5 2t0.5 2.5t1.5 1.5h8q9 0 17.5 -1.5t17.5 -1.5h3.5t2.5 2
v2v3v2v3.5t-1 3t-2 1.5l-49 3q-3 0 -4 2.5t-1 5.5q14 0 28 -1.5t28 -1.5z" />
</svg>
