<?xml version="1.0" standalone="no"?>
<!DOCTYPE svg PUBLIC "-//W3C//DTD SVG 1.1//EN" "http://www.w3.org/Graphics/SVG/1.1/DTD/svg11.dtd" >
<svg xmlns="http://www.w3.org/2000/svg" xmlns:xlink="http://www.w3.org/1999/xlink" version="1.1" viewBox="-10 0 266 256">
   <path fill="currentColor"
d="M195 127q0 8 -0.5 18.5t-4.5 18.5q-3 7 -9.5 12.5l-13 11t-11 12t-4.5 14.5v35q0 1 1 2h1q1 0 2 -1.5t1.5 -3t1 -3.5t0.5 -3v-4v-7v-7v-5q3 -11 8 -17t11 -11t11.5 -10t9.5 -14q3 -7 3 -14v-15v-4q0 -3 -0.5 -6t-0.5 -5v-2q0 -1 -0.5 -4.5t-0.5 -4.5q-2 -6 -8 -9.5
t-12 -6.5t-11 -5t-5 -6v-5q8 -2 13 -3t8 -3.5t4.5 -7.5t2.5 -13q0 -1 0.5 -4.5t1 -7.5t1 -7.5t0.5 -4.5v-2q0 -2 -2 -5t-4 -3q-1 0 -2 0.5t-1 1.5q1 6 0.5 9.5t-3 4t-6 0.5h-9.5v-19q0 -2 -1.5 -2.5t-3.5 -0.5q-1 0 -2.5 0.5t-1.5 2.5v0q0 3 1 7t1.5 7.5t1 6.5l0.5 3l3 3h17
q1 0 1.5 1.5t0.5 2.5t-2 2t-4 1.5t-4 0.5h-2h-3q-1 0 -3.5 0.5t-5.5 0.5h-4t-5.5 -0.5t-4.5 -0.5l-1 -1v-12.5t-2 -12.5q0 -1 -1 -1h-2q-3 0 -3.5 1t-0.5 4v9.5t1 13t1.5 12t2.5 7.5q1 4 3.5 5t5.5 1.5t4.5 1.5t1.5 5q0 2 -2.5 4.5t-6.5 5.5l-8 6t-6 5q-8 9 -11.5 22
t-3.5 25v2.5t2 1.5q2 -1 3.5 -5t3 -10t3.5 -13t5.5 -13.5t8.5 -11.5t12 -7q8 3 14.5 4.5t12 4.5t8.5 8t3 16zM83 223q0 1 1 3t3 2t3.5 -4t2 -8.5t0.5 -9v-6.5v-17t0.5 -25.5t0.5 -25v-16.5l0.5 -0.5t1.5 -0.5q2 -1 4.5 -1.5t5.5 -1l6 -1t4 -0.5t1 -1v-1q0 -2 -1 -3t-3 -1
h-1.5h-3t-3 0.5l-1.5 0.5h-2h-2q-2 0 -4.5 -0.5t-2.5 -4.5v-20q0 -4 4 -4h9t9 -1t4 -5q0 -2 -1.5 -3t-3.5 -1q-5 0 -9.5 0.5t-9.5 0.5q0 -11 2 -16t5 -7.5t6 -2.5q4 0 7 0.5t4.5 -0.5t1.5 -4q0 -1 -0.5 -1.5l-0.5 -0.5h-15q0 -3 0.5 -6t1.5 -5.5t1.5 -5t0.5 -5.5v-3t-3 -2
q-2 0 -3.5 3t-3 8t-3 11t-3 11t-3.5 8.5t-3 3.5q-2 0 -3.5 -3.5t-2.5 -8.5t-1.5 -11t-2 -11t-3.5 -8t-5 -3t-3 3q0 5 2 10t2 10q0 4 -2.5 4.5t-5.5 0t-5.5 0t-2.5 4.5q0 1 1.5 2.5t2.5 1.5q4 0 7 -1t6 -1q2 0 4 2.5t3 6t1.5 7t0.5 4.5v4.5t-3 2.5h-18q-2 0 -2.5 2.5
t-0.5 3.5q0 2 1 3.5t3 1.5q6 0 11.5 -1t11.5 -1v27l-1.5 0.5t-2.5 0.5t-4 0.5t-6.5 0.5t-6 0.5t-3.5 0.5q-3 -1 -3 0.5v3.5q0 3 0.5 3.5t3.5 0.5q4 0 8.5 -0.5t8.5 -0.5h6q2 1 2.5 3t0.5 4q0 25 -1.5 50t-1.5 50zM144 120q-1 0 -1.5 0.5t-0.5 2.5v34q0 4 4 6t9.5 3t11 1h7.5
q0 -6 -4 -7t-9 -0.5t-9.5 -0.5t-4.5 -7v-30q0 -2 -1 -2h-2zM164 139q2 0 3.5 1.5t3 3.5t3 3.5t3.5 1.5q1 0 2 -0.5t1 -1.5v-1l-0.5 -1t-0.5 -2q-1 0 -2 -1.5t-2.5 -2.5t-2.5 -2.5t-2 -1.5v-25q0 -2 -1 -3.5t-3 -1.5l-0.5 0.5t-1.5 0.5v3.5v5.5t-0.5 6t-0.5 4q0 4 -2 7t-4 5
l-3.5 3.5t-1.5 2.5t1 1.5t2 0.5h1.5h0.5q1 -1 3.5 -3t2.5 -3h1zM148 63q0 -4 3.5 -5.5t8 -2t8.5 -0.5h7h7q1 0 1 1.5v1.5q0 5 -2 7.5t-5.5 3t-7.5 0.5h-7h-4t-4 -0.5t-3.5 -1.5t-1.5 -4z" />
</svg>
