<?xml version="1.0" standalone="no"?>
<!DOCTYPE svg PUBLIC "-//W3C//DTD SVG 1.1//EN" "http://www.w3.org/Graphics/SVG/1.1/DTD/svg11.dtd" >
<svg xmlns="http://www.w3.org/2000/svg" xmlns:xlink="http://www.w3.org/1999/xlink" version="1.1" viewBox="-10 0 266 256">
   <path fill="currentColor"
d="M128 200q3 1 5 5.5t5 10t5.5 12t6 11.5t7 8.5t7.5 3.5h2.5h2.5q1 -2 1.5 -3.5t0.5 -2.5q0 -2 -0.5 -3t-1.5 -1.5t-2 -1.5t-3 -2l-2.5 -2.5l-3.5 -3.5l-3.5 -3.5t-1.5 -2.5q-2 -2 -5.5 -8t-7 -12.5t-5.5 -12.5t-2 -9v-3l52 -3q2 0 2 -1.5v-1.5q0 -3 -1.5 -4t-3.5 -1
q-12 0 -23 1.5t-23 1.5h-3q-2 0 -3 -1v-5v-4q0 -1 0.5 -1.5l0.5 -0.5h23q2 0 2.5 -1.5t0.5 -2.5q0 -2 -1 -3.5t-3 -1.5q-3 0 -5.5 1t-5.5 1t-5 -0.5l-6 -1.5v-1q0 -4 3 -7.5t7 -3.5h2q2 0 6.5 1t9 1.5l9 1t6.5 1.5q2 0 2.5 -1t0.5 -2q0 -3 -3 -4t-7 -2t-9 -1t-9.5 -0.5
t-7 -1.5t-2.5 -2q0 -3 1 -6t1 -5t-0.5 -3.5t-2.5 -1.5v0h-1l-1 1l-2 2q0 4 -1 7t-2 5.5l-2 5t-2 6.5h-1.5h-0.5q-1 0 -2.5 -4t-3 -9.5t-3 -10.5t-1.5 -7t1 -4.5t2.5 -4.5t3.5 -3.5t4 -1.5q6 0 10.5 5t8.5 11.5t8.5 12t9.5 5.5q0 -5 -3.5 -11.5t-9 -12.5t-11.5 -11t-9 -9v-9
h55q2 0 2 -1.5v-1.5q0 -2 -1.5 -3t-3.5 -1.5t-4 0t-3 0.5q-10 0 -20 0.5t-20 0.5h-2.5t-2.5 -1v-12l48 -3l1 -2q0 -2 -2.5 -3t-5.5 -1.5t-6 0t-4 0.5q-5 0 -8 0.5t-8 0.5h-5q-1 0 -1 -1v-2t1 -3.5t2 -4.5t2.5 -3.5t3.5 -1.5h39q1 0 1 -1.5v-1.5v-2t-1 -1h-32q-2 0 -2.5 -1
t-0.5 -2q0 -3 2 -4.5t2 -4.5q0 -2 -0.5 -3.5t-2.5 -1.5q-1 0 -3.5 3t-4.5 7t-5 9.5t-5.5 10t-4.5 7.5t-3 3q-3 0 -6 -3t-5.5 -7.5t-4.5 -9.5t-4.5 -9t-5 -7t-4.5 -3t-2.5 0.5t-0.5 2.5t0.5 3.5t1.5 2.5t1.5 2.5t0.5 3.5v2t-1 2h-28l-1.5 1.5l-2.5 2.5q0 1 0.5 2t1.5 1t4 1
t5 1h2q6 0 12 -1t13 -1q3 0 6.5 3.5t3.5 7.5q0 1 -0.5 2t-2.5 1h-39q-1 0 -1.5 1t-0.5 2q0 2 1 2.5t2.5 1t3.5 0.5h3q9 0 18.5 -0.5t19.5 -0.5q3 0 4 1.5t1 4.5v4t-1 3q-13 0 -26.5 0.5t-26.5 1.5q-1 0 -2 1t-1 2v0.5v0.5q0 2 2 2.5t4 0.5q8 0 16.5 -1.5t16.5 -1.5
q1 0 3.5 0.5t5 0.5t5 0.5t3.5 0.5l1.5 1.5l1.5 1.5q0 1 -1.5 3.5t-4.5 6.5t-6 8.5l-6 9t-5.5 7.5t-3.5 4q-2 2 -4 3t-3.5 2.5t-2.5 3t-1 4.5q4 0 6.5 -2t5 -4.5t5 -5.5t4.5 -5h1q1 0 2 1.5t2 4t1 5v2.5q0 4 -5.5 5.5t-12 2t-12 2t-5.5 4.5t4 3q7 0 14.5 -2.5t14.5 -2.5
q4 0 7 2t3 6v2q0 2 -2 2l-25 3q-1 0 -2 1.5l-1 1.5q-1 3 0 3h2q7 0 13 -0.5t12 -0.5q4 0 4 1v5q0 1 0.5 3t-1.5 3q-13 2 -26.5 2.5t-26.5 1.5q-4 2 -4 7q13 0 25 -2t24 -2h4h4q1 1 1 3v3q0 4 -2.5 10t-6 12.5t-8 12t-7.5 9.5l-2.5 2.5t-3 3.5t-2.5 3.5t-1 3.5t0.5 3t2.5 2
q7 -5 11.5 -11.5t8 -12.5t7.5 -12.5t9 -12.5zM63 222q0 3 1.5 3h3.5h2.5t3.5 -1q2 -2 7 -5.5t10 -7.5t9.5 -7.5t6.5 -5.5t2 -3v-4q-4 0 -10.5 4t-13.5 9t-13 10t-9 8zM147 193q0 4 2.5 6.5t6 4l7 3t6.5 3.5q1 1 4 3t6 4.5t5.5 4.5t3.5 3q3 -1 5 -2.5t2 -4.5q0 -2 -1.5 -3.5
t-3.5 -3t-4 -2.5t-3 -2q-4 -1 -8.5 -3.5l-9 -5t-8 -4l-3.5 -1.5h-7zM98 86q-2 0 -7 3.5t-10 8.5t-9 9.5t-4 6.5q5 0 10 -2.5t9.5 -6.5t7.5 -9t3 -10zM154 86v3t1 4l20 19h1h1q2 0 4 -1t2 -3q0 -3 -4 -6.5t-8.5 -7t-9.5 -6t-7 -2.5z" />
</svg>
