<?xml version="1.0" standalone="no"?>
<!DOCTYPE svg PUBLIC "-//W3C//DTD SVG 1.1//EN" "http://www.w3.org/Graphics/SVG/1.1/DTD/svg11.dtd" >
<svg xmlns="http://www.w3.org/2000/svg" xmlns:xlink="http://www.w3.org/1999/xlink" version="1.1" viewBox="-10 0 266 256">
   <path fill="currentColor"
d="M81 246q0 3 1.5 4t3.5 1q4 0 8.5 -4.5t8.5 -11.5t8 -15t7 -15t6 -11.5t5 -4.5q3 0 5.5 4t6 10.5t7 14t7.5 14t8.5 10.5t9.5 4q3 0 5 -2t2 -4t-5 -7t-11 -11.5t-11.5 -13.5t-5.5 -14q0 -4 1.5 -5.5t5.5 -4.5l2.5 -2.5l3 -3l3 -3l2.5 -2.5h1h2q4 0 6 3t2 6t-2 6t-4 5.5
l-4 5t-2 5.5q6 0 10 -2t6.5 -5.5t3.5 -8.5t1 -9q0 -8 -3 -10.5t-7 -4.5t-7 -5t-3 -10v-3t2 -1q5 0 8 2t6.5 4.5t7.5 4.5t9 2q0 -2 -2 -5t-5.5 -6t-8 -5.5t-8.5 -5t-7 -3.5t-4 0q-1 -1 -4 -2.5t-6.5 -3.5t-6.5 -3.5t-4 -2.5q-1 0 -3 -0.5l-2 -0.5v-19q0 -1 -2 -1h-3h-2
q-2 0 -3 1v7t-0.5 5.5t-1.5 4.5t-4 3q-11 7 -21.5 13.5t-21.5 10.5q-1 1 -3.5 1.5t-5.5 1.5l-6 2t-4 1q0 1 -0.5 2.5t-0.5 2.5v1q0 2 2 2h4q5 0 9.5 -2.5t8.5 -6t8 -6t8 -2.5q3 0 3 2.5v4.5q0 4 -3.5 8t-8 8t-8 7.5t-3.5 7.5q0 2 0.5 6.5t2 8t4 6.5t6.5 3q2 0 3 -0.5t1 -3.5
t-1 -5.5l-2 -5l-2 -5t-1 -5.5q0 -1 0.5 -3t1.5 -3.5t2.5 -3t3.5 -1.5h1l8 16l1 0.5t2 0.5h1q2 0 3 -1t1 -3q0 -3 -1 -5.5t-2.5 -4.5t-2.5 -4.5t-1 -5.5t0.5 -8.5t2 -10.5t4.5 -9t8 -4q2 0 3 2.5t1 4.5v31q-3 4 -3.5 9t-2.5 9q-5 11 -12 21t-11 21q-1 1 -1.5 2l-0.5 1
q-1 1 -2.5 3t-3.5 4l-4 4t-3 2l-0.5 1.5zM140 131q2 1 5.5 2t6.5 2t5 3t2 5t-1 6t-1 6q0 2 1 4t1 4t-2 6t-4.5 7.5t-6 6t-5.5 2.5h-1q-2 -2 -3.5 -5.5t-1.5 -6.5v-36q0 -1 2 -3zM160 111q0 1 0.5 4t1.5 6t2.5 5t3.5 2q3 0 4.5 -1.5t1.5 -4.5q0 -4 -1.5 -6.5t-4.5 -6.5
q1 -4 2.5 -7t3.5 -5t5.5 -3.5t7.5 -4.5q1 -1 2 -2.5t1.5 -3t1.5 -3t2 -2.5q1 -3 2.5 -8t2 -10t1.5 -10.5t0 -8.5q0 -3 -0.5 -6.5t-2 -7t-3 -6t-4.5 -3.5h-4t-6 -0.5t-5 -0.5h-4h-5t-6 0.5t-5 0.5h-3h-3t-6 0.5t-5.5 1.5t-2.5 3q0 3 2.5 3.5t4.5 0.5q8 0 15.5 -1t15.5 -1h9
q6 2 7.5 6t1.5 10q0 10 -2 20t-7 19q-3 4 -6.5 7t-7 6.5t-6 7.5t-2.5 10zM86 120q0 1 0.5 3.5t3.5 2.5q1 0 2.5 -0.5t2.5 -2.5v-3.5t0.5 -5.5t0.5 -5.5t1 -3.5q0 -7 4 -11.5t8 -8.5t8 -8.5t6 -10.5v-3v-3.5v-3.5v-3v-8v-6t-0.5 -6.5t-1.5 -8.5q0 -5 -2 -7.5t-5 -3t-6 -0.5
h-8h-7.5t-6.5 0.5t-7 1t-9 1.5q-2 0 -2.5 1t-0.5 2v2t1 1h11q7 0 14 -0.5t14 -0.5q4 0 7 3q1 7 1 12v12v2v4v3v2q-2 4 -3 7t-2.5 6.5t-3.5 6.5t-5 6l-1.5 0.5l-1.5 0.5q-5 4 -7 7.5t-3.5 7t-1.5 8v11.5zM127 87q0 4 4 4h1q1 -1 3.5 -1.5l2.5 -0.5q3 -1 8 -2.5t11 -3.5
t11.5 -4t7.5 -2q1 -1 1 -2v-2q0 -3 -3 -3h-1q-1 0 -2 1t-2.5 1t-2.5 0.5l-1 0.5q-2 1 -5 2t-6.5 2t-6.5 1.5t-4 1.5h-4.5t-5 1t-4.5 2t-2 4zM58 84q0 2 1.5 3t3.5 1q1 0 5 -1.5t8.5 -3.5t10 -4.5t10 -5t7.5 -5t3 -4.5v-1.5t-1 -1.5t-2 0.5t-1 1.5q-5 3 -10.5 4.5t-11.5 3.5
t-11.5 3.5t-10.5 5.5l-0.5 1t-0.5 2v1zM131 65v1l0.5 0.5l0.5 0.5h4h3q2 0 8.5 -0.5t13.5 -2t12.5 -4t5.5 -5.5q0 -2 -2 -2h-3q-5 0 -10 1t-10 2.5t-10.5 3t-9.5 1.5l-2 2l-1 1v1zM104 44h-1q-1 0 -1.5 0.5l-1.5 1.5t-2 1.5t-1 1.5q-3 1 -8.5 2.5t-11.5 3.5t-11 3.5t-5 2.5
q-1 1 -1.5 3l-0.5 2q2 0 6.5 -1t10 -2.5t11.5 -3.5t11 -4t8 -4t3 -4q-1 -2 -2 -2.5t-3 -0.5zM132 48q0 2 2 2h3q4 0 11 -1t14.5 -3t13 -5t5.5 -5h-10t-11 2q-2 0 -6.5 1t-9 2.5t-8.5 3t-4 3.5zM62 45q0 2 2 2h4q3 0 7.5 -1l9 -2t9 -2.5l7.5 -2.5q2 -1 4.5 -3.5t2.5 -5.5
q-2 0 -9.5 1.5t-15.5 3.5t-14.5 5t-6.5 5z" />
</svg>
