<?xml version="1.0" standalone="no"?>
<!DOCTYPE svg PUBLIC "-//W3C//DTD SVG 1.1//EN" "http://www.w3.org/Graphics/SVG/1.1/DTD/svg11.dtd" >
<svg xmlns="http://www.w3.org/2000/svg" xmlns:xlink="http://www.w3.org/1999/xlink" version="1.1" viewBox="-10 0 266 256">
   <path fill="currentColor"
d="M151 226q0 2 0.5 6t2 8.5t3.5 7.5t5 3q2 0 3.5 -1t1.5 -3q0 -4 -1.5 -7l-3 -6l-3 -6t-1.5 -7q0 -5 2.5 -8t5.5 -6t7 -6t6 -6q2 -2 3.5 -5.5t3 -7.5t2 -7.5t0.5 -6.5v-7v-11v-11v-7l0.5 -2.5l0.5 -2.5v-0.5v-1.5v-3.5t-1 -5t-2.5 -4.5t-3.5 -3h-11h-12q-2 0 -5 0.5t-6 0.5
t-5 0.5l-2 0.5l-3 3l1 2h36l1.5 1t2.5 1l0.5 0.5t1.5 0.5v19v12.5t-0.5 13t-2 12.5t-4.5 12q-5 7 -9 10t-7 6t-5 7.5t-2 14.5zM98 245l2.5 2.5t3.5 1.5t3 -2.5t1 -4.5q0 -7 -2.5 -12.5t-2.5 -12.5q0 -1 0.5 -4.5t0.5 -4.5q1 -1 3.5 -5t5.5 -8.5t5.5 -9t3.5 -4.5l4 -15v-54
l-2 -3h-3.5h-8.5t-10 -0.5t-8 -0.5h-1h-2h-4t-8.5 1t-8 2t-3.5 3q0 3 2.5 3.5t4.5 0.5q7 0 14 -1.5t15 -1.5h15q2 4 2 7v7q0 6 -0.5 10.5t-0.5 9t-0.5 9.5t-0.5 11q-1 4 -2.5 8.5t-3.5 7.5q-2 4 -5.5 7.5t-6.5 8t-5 9t-2 9.5q0 7 2.5 13t2.5 13zM67 194l2 2t3 2t4.5 -2
t8 -5.5t9.5 -7t9 -7t6.5 -6t2.5 -3.5t-1 -1.5t-2 -0.5t-4.5 2t-8 5t-10 6.5t-10 6.5t-7 5.5t-2.5 3.5zM126 192q0 1 0.5 2t2.5 1t4.5 -1t4.5 -2q4 -2 10 -6t11.5 -7.5t10 -6.5l4.5 -3v-4q-4 0 -8.5 2t-9.5 5t-9.5 6t-7.5 4q-1 1 -2.5 2t-3.5 2.5t-4 2.5t-3 2v1zM72 162
l-0.5 0.5t-0.5 1.5l-0.5 2.5t-0.5 3.5q7 0 13 -4l12 -8q1 0 3.5 -1.5t4.5 -3.5t4.5 -3t3.5 -2t1 -2v-2q0 -2 -0.5 -2.5t-1.5 -0.5h-0.5h-0.5l-8 6l-6 3t-8.5 4.5t-8.5 4.5zM131 165q0 1 0.5 2t2.5 1q1 0 4 -1.5t7.5 -3t9 -4t8.5 -5t6.5 -5t2.5 -3.5q0 -2 -1 -2h-2t-4 1
t-7.5 3t-9 4.5t-8.5 5t-6.5 4.5t-2.5 3zM66 143q0 4 4 4t10 -2.5t11.5 -6l11 -7t8.5 -6.5v-2q0 -1 -0.5 -2.5t-1.5 -1.5h-1q0 1 -2 1.5t-4 1.5t-3.5 2l-1.5 1q-3 1 -8 3t-10 4.5t-9 5.5t-4 5zM170 122q-2 0 -6 1.5t-8 3.5t-7.5 4t-6.5 3q-1 0 -4 2l-3 2v4q5 0 10 -1.5
t9.5 -4l9 -5t8.5 -4.5q1 -1 1.5 -1t0.5 -1v0q0 -2 -1.5 -2.5t-2.5 -0.5zM141 101l0.5 0.5l0.5 0.5h0.5h0.5h0.5h0.5q2 -1 3 -4t1.5 -6t0.5 -6v-5l3 -2h20l4 3v14h1q2 0 4 -1l0.5 -0.5l0.5 -0.5q1 -1 2 -2.5t1 -2.5v0v-1l-0.5 -2l-0.5 -2v-10q-1 0 -1.5 -0.5t-0.5 -1.5
l-1.5 -1l-1.5 -1h-30q-1 0 -1 -2v-2q0 -2 0.5 -4t3.5 -2h34q1 0 2 -1.5l1 -1.5v-1q0 -2 -1 -2.5t-3 -1t-4 -0.5h-2q-6 0 -12.5 1t-13.5 1q-2 0 -3.5 -0.5t-1.5 -3.5v-2v-1q9 -3 15 -3t10 -1.5t6 -6t2 -15.5q0 -1 -1 -3t-3 -2t-3 2.5t-1 5.5t-0.5 6t-1.5 4q-3 2 -8 2.5
t-7 1.5h-0.5h-0.5q-1 0 -3.5 -1t-2.5 -2v-18q0 -2 -1.5 -3.5t-2.5 -1.5t-1.5 0.5l-1.5 1.5q1 18 0 36t-1 36v15zM111 64q0 4 -2.5 4.5t-6 0.5t-8 1t-8 4t-6 9.5t-2.5 17.5q5 0 6.5 -2t1.5 -5t0.5 -6.5t2.5 -6.5q1 0 3 -0.5l4 -1t3.5 -1t2.5 -0.5h3q3 0 3.5 3t0.5 7v7t2 3
t3.5 -1t1.5 -2q0 -4 0.5 -13t1 -19.5t1 -20t0.5 -12.5q0 -1 0.5 -2.5t0.5 -3t0.5 -3l0.5 -1.5v-3q0 -2 -1.5 -3.5t-4.5 -1.5q-1 0 -2 0.5t-1 1.5v21h-20l-1 -1q-2 -4 -2 -8v-8q0 -1 -1.5 -2t-2.5 -1q-2 0 -3 1.5t-1 3.5v1.5v0.5q0 1 0.5 3.5l1 5t0.5 4.5t1 3q3 4 6.5 5.5
t8.5 1.5q1 0 2 -0.5l1 -0.5h2h3t3.5 1t1.5 2v0v0q0 3 -1.5 3.5t-4 1t-4.5 0.5h-3t-4.5 0.5t-7.5 0.5q-5 0 -8.5 -0.5t-4.5 -0.5q-2 1 -2 1.5v1.5q0 2 1 4t4 2h31q2 0 2.5 1t0.5 2z" />
</svg>
