<?xml version="1.0" standalone="no"?>
<!DOCTYPE svg PUBLIC "-//W3C//DTD SVG 1.1//EN" "http://www.w3.org/Graphics/SVG/1.1/DTD/svg11.dtd" >
<svg xmlns="http://www.w3.org/2000/svg" xmlns:xlink="http://www.w3.org/1999/xlink" version="1.1" viewBox="-10 0 266 256">
   <path fill="currentColor"
d="M163 239q3 1 6 3.5t6.5 4l7 3t6.5 1.5q4 0 6.5 -1.5t2.5 -5.5q0 -3 -4.5 -4.5t-10 -3t-11 -3.5t-7.5 -6q-2 -2 -2 -4.5v-5t-0.5 -5t-2.5 -4.5t-4.5 -3.5l-5 -3t-4.5 -3.5t-2 -5v-3q1 0 4.5 -1t4.5 -2h2.5t3 -0.5t3 -1.5t1.5 -2v-16q1 0 3 -0.5t5 -0.5t5.5 -0.5t3.5 -0.5
q2 0 3 -1t1 -3q0 -3 -2 -4t-4 -1q-8 0 -16 2t-17 3h-2h-3h-4h-2q0 -1 -0.5 -4.5t0.5 -4.5q0 -1 3 -2t7.5 -1.5t10 -1t10 -2t7.5 -4t3 -7.5v-19q0 -2 -1.5 -2.5t-2.5 -0.5q-3 0 -4 3.5t-1.5 8l-1 9t-2.5 6.5q-3 2 -5.5 2.5t-6 1t-6.5 0.5h-6q-3 -2 -3.5 -4t-0.5 -5t1.5 -4.5
t3.5 -3t4.5 -2.5t3.5 -4q1 -2 1.5 -5t1 -5.5t0.5 -5.5v-3h42q2 0 2.5 -1t0.5 -3t-0.5 -3t-2.5 -2h-7q-12 0 -23.5 1t-23.5 2h-11t-19.5 0.5t-19.5 0.5h-11q-1 0 -3.5 0.5t-5 0.5t-5 0.5t-3.5 0.5q-1 1 -2 3t-1 4q11 0 21 -1.5t20 -1.5q3 0 4 3t1.5 7t1 7.5t2.5 6.5
q4 0 7.5 0.5t6 2t4 4t1.5 7.5q0 1 -1 2t-2.5 1h-2.5h-3h-4h-6.5t-6.5 -1t-4 -3v-2.5t-0.5 -3.5t-0.5 -3.5v-2.5q-1 -2 -1.5 -4t-3.5 -2q-2 0 -2.5 3t-0.5 4q0 10 2.5 14.5t7 6t11 1.5t15.5 -1q1 1 2 2.5t2 3.5t1.5 4t0.5 3v0q-1 0 -3 0.5t-4 0.5t-4 0.5l-2 0.5
q-1 0 -2.5 0.5t-2.5 0.5l-7.5 1.5t-4.5 1.5t-2.5 3.5t-0.5 7.5q0 3 1 6t2 5.5t2 4.5t1 4t-3 7t-7 11.5t-7.5 13.5t-3.5 12q0 2 1.5 3.5t4.5 1.5q2 0 3.5 -2.5t2.5 -7l2 -9t2.5 -9t3.5 -7t5 -2.5h1l10 10q1 1 2 1.5l1 0.5q3 0 4 -2.5t1 -4.5v-1q0 -1 -1 -1l-10 -12v-1v0
l1 -0.5t2 -1.5q1 0 3 -0.5t4 -1.5t4 -1.5t3 -0.5v0q1 0 4.5 3l7 6t7 6.5t3.5 4t0.5 2t1 3.5t1 3.5t0.5 2.5q1 3 3.5 6t3.5 7zM102 178q0 -2 2.5 -4t5.5 -3t6.5 -2t5.5 -1t3.5 2t2.5 4t1 4v3q0 3 -1.5 5t-3.5 3.5t-5 2t-5 0.5q-6 0 -9 -4.5t-3 -9.5zM135 175q0 -6 4.5 -7
t9.5 -1h4l0.5 0.5l0.5 0.5v12q0 1 -1.5 2.5t-4 2l-5 1t-3.5 0.5q-2 0 -3 -1t-1.5 -3t-0.5 -3v-4zM110 113v-4t0.5 -3.5t1.5 -3t2 -1.5h3h7t7.5 0.5t6.5 0.5h3l2 2v11q0 1 -3 3t-4 2h-22q-3 0 -3.5 -2.5t-0.5 -4.5zM60 85q0 2 2.5 3t4.5 1l3 -1.5t8 -3t11 -4t11 -4.5t8.5 -4
t4.5 -2q2 -2 3.5 -5t2 -6.5t0.5 -6.5v-6v-8t-0.5 -9.5t-2.5 -7.5t-6 -4h-13h-14t-15 1l-1.5 1.5t-0.5 1.5t0.5 2t1.5 1h22q1 0 1.5 0.5t0.5 1.5q0 2 -2 3.5t-4 1.5q-1 1 -3.5 1.5l-5 1t-5 1.5l-2.5 1q-1 0 -1.5 0.5l-0.5 0.5q0 1 -0.5 4l-0.5 3q4 0 9.5 -2t11 -5t10 -7
t6.5 -7q2 1 4 3.5t2 4.5t-4 4t-9 4t-11 4.5t-11.5 5t-9 4.5t-3.5 3v0q0 1 0.5 1.5l0.5 0.5q1 0 2 0.5t2 0.5q4 0 9.5 -3.5t11.5 -7t11.5 -6.5t9.5 -3q0 4 -1.5 5.5t-3.5 2.5t-5 1.5t-6 2.5l-2 2l-2 2q-1 1 -5.5 3.5t-9 4.5t-8.5 4t-4 3q1 2 3.5 2.5t5.5 0.5t8 -3.5
t10.5 -7.5t11 -7.5t8.5 -3.5q0 6 -1.5 9t-4.5 5t-7 3.5t-9 4.5q-3 2 -6.5 3t-6.5 2t-6.5 2.5t-7.5 3.5v1zM103 84q0 2 1.5 2.5t3.5 0.5v0q2 0 7.5 -0.5t11.5 -1t11 -0.5t7 -1q1 0 1.5 -1l0.5 -1v-1.5v-0.5h-6h-7t-10.5 0.5l-11 1t-7.5 0.5q-1 0 -1.5 1zM171 55q-2 4 -5 6
t-7 3t-6.5 2.5t-2.5 5.5q4 0 10 -1t11.5 -2.5t9 -5.5t3.5 -10v-36l-0.5 -0.5l-1 -1t-3 -2.5l-2.5 -2h-11q-8 0 -15.5 1t-15.5 2v0.5v0.5q0 2 1.5 3.5t3.5 1.5h1q1 0 2.5 -0.5t4 -0.5t4.5 -0.5l2 -0.5h1h1q0 3 -3 5t-7 4.5l-8 5t-6 4.5q0 1 0.5 1.5t1.5 0.5v0h1q9 -4 17.5 -8
t16.5 -8h1q1 0 2 1t1.5 2.5l1 3t0.5 2.5v1q0 1 -1 2t-2 1l-31 7l-1.5 1l-3 2t-2 2t-0.5 2t0.5 1.5t1.5 0.5q5 0 9.5 -1t8.5 -2.5l8 -3t8 -1.5q0 1 1.5 2t0.5 2l-2.5 0.5t-3.5 0.5l-1 0.5t-2.5 1t-2.5 1l-1 0.5q-1 0 -4 1t-6.5 2t-6.5 2t-4 1l-4 4q0 2 0.5 2h1.5q4 0 8.5 -1
t8.5 -2.5l8 -3t8 -2.5h1h1z" />
</svg>
