<?xml version="1.0" standalone="no"?>
<!DOCTYPE svg PUBLIC "-//W3C//DTD SVG 1.1//EN" "http://www.w3.org/Graphics/SVG/1.1/DTD/svg11.dtd" >
<svg xmlns="http://www.w3.org/2000/svg" xmlns:xlink="http://www.w3.org/1999/xlink" version="1.1" viewBox="-10 0 266 256">
   <path fill="currentColor"
d="M86 244q0 3 1 5t4 2q2 0 3.5 -1.5l3.5 -3.5q0 -1 -0.5 -4t-0.5 -6q0 -4 0.5 -6.5t0.5 -4.5v-5t0.5 -6.5t2 -6.5t3.5 -5q3 -3 8 -7t8 -8q3 -5 5 -11.5t3 -13t1 -12.5v-14v-2v-4.5v-3.5v-3q0 -4 -1.5 -5.5t-4.5 -2.5h-3.5h-4.5h-5h-3h-16.5t-16.5 2q-2 0 -4.5 2t-2.5 4
q0 3 1.5 3h4.5q5 0 10 -1t11 -1h1.5t3 0.5t2.5 1t1 1.5q0 3 -3.5 5.5t-8.5 4.5t-11 4t-11 4.5t-8.5 5t-3.5 5.5q0 2 0.5 2.5t3.5 0.5q4 0 9 -2t9.5 -4.5t9 -5.5t8.5 -5q2 -1 5 -4.5t6.5 -6.5t6 -5.5l2.5 -2.5q3 1 4 4.5t1 7.5v7v5v10.5t-1.5 11.5t-3.5 11t-6 7q0 1 -2 2
t-4 2.5t-4 2.5t-2.5 1.5l-1 1l-0.5 0.5q-5 11 -7.5 23.5t-2.5 23.5zM150 248q1 2 2 2.5t3 0.5q3 0 4 -1.5t2 -3.5v-4v-5v-5v-3q0 -1 -0.5 -2l-1 -2t-0.5 -1.5v-1.5q0 -8 3 -12t7.5 -7t9.5 -6t8 -8q4 -4 5.5 -10t2 -12.5t0 -13t-0.5 -12.5v-6q0 -4 -0.5 -9t-2 -9t-4.5 -4h-37
q-1 0 -3 0.5t-3.5 1t-2.5 1.5t-1 3t1.5 2h3.5q3 0 7 -0.5t7 -0.5h2.5t2.5 1q-1 2 -4.5 6t-8 7.5t-8.5 6.5t-6 4v4q7 0 13.5 -4.5t11.5 -10t9.5 -10t8.5 -4.5h1l3 6v27q0 3 -0.5 4.5t-2 2t-3 0.5t-3.5 1q-2 0 -6.5 2.5t-10 6t-11.5 8t-11.5 8.5t-8.5 7t-3 4l1.5 1.5l1.5 1.5
q1 0 3 -1l4 -2t3.5 -2t2.5 -1l1.5 -1.5t3 -3.5t3 -3t2.5 -2q3 -3 7 -5l8 -4t7.5 -4.5t6.5 -6.5q4 1 4 3v4q0 8 -3.5 12t-8 7.5t-9.5 7t-8 8.5q-4 7 -4 15.5v15.5v11zM53 203q0 3 1.5 3.5t3.5 0.5q3 0 5.5 -1.5t5.5 -3.5q1 -1 4 -3.5t6.5 -5.5t6.5 -5.5t3.5 -3t3.5 -2.5l6 -4
l6 -4t4 -2q2 -2 2 -3v-5q-3 0 -8 2.5t-11.5 6.5t-13 8.5t-12.5 8.5t-9.5 8t-3.5 5zM110 143q-3 1 -5.5 2t-4.5 2t-4 2.5t-5 3.5q-2 1 -7.5 3.5t-11.5 5.5t-10.5 5.5t-5.5 4.5v2v3q3 0 8 -2t11.5 -5t13 -6.5t12 -6.5t9 -6t3.5 -4v-2.5t-3 -1.5zM135 166q0 2 1.5 2.5t2.5 0.5
q2 0 7 -3t10.5 -6t10.5 -6.5t6 -3.5q3 -2 3.5 -5t0.5 -5q-2 0 -8.5 3.5t-14 8t-13.5 9t-6 5.5zM175 97q3 0 5.5 2l5 4t4.5 4.5t4 4.5h9q0 -5 -1 -8t-3 -5t-5.5 -3t-7.5 -3l-1.5 -3t-0.5 -2q0 -2 1 -4t1 -5q0 -4 -2 -6.5t-5 -4t-6.5 -2t-6.5 -0.5h-4h-3t-4.5 0.5t-5 0.5h-3.5
v1.5v0.5q0 3 3.5 4t8 1.5t8.5 0.5h7v4v2.5t-2 1.5h-1q-1 0 -2.5 -0.5t-3.5 -1l-4 -1t-3 -0.5v0h-1h-4t-6 0.5t-6 1.5t-5 3l2 2h24l1 3q-1 3 -4 4t-6.5 1.5t-6.5 1.5t-5 4l2 1l2.5 0.5t3.5 0.5q3 0 6.5 -1l7 -2t6.5 -2t7 -1zM63 79q0 3 0.5 6.5t2 6.5t4 5t5.5 2h52q2 0 2 -1
v-2q0 -4 -2 -4.5t-4 -1.5t-3.5 -4t-1.5 -11v-4v-4q2 -2 4 -2.5t3.5 -1t2.5 -2t1 -5.5t-3.5 -7.5t-8 -5.5t-8.5 -3.5t-4 -2.5q0 -2 1.5 -3.5t3.5 -2.5h3.5t6 -0.5t6 -0.5h3.5q3 -2 3 -5t-2.5 -3h-4.5h-5.5h-10.5t-13 0.5t-13 1.5t-10.5 2t-4.5 2q-1 1 -2 3.5t-2 2.5
q1 12 0 22.5t-1 22.5zM104 67q2 0 3 2.5t1.5 5.5t0.5 7v4q0 2 -1.5 4.5t-4.5 2.5h-1l-2 -1t-2 -2v-19q0 -2 2.5 -3t3.5 -1zM74 73q0 -4 3 -4h5h2.5h2.5q0 1 0.5 3.5t1 4.5t0.5 4.5t1 3.5v1v0q-1 2 -3 3.5l-2 1.5q-4 1 -6.5 -0.5t-3.5 -4.5t-1 -7v-6zM83 58q0 -2 2 -3.5
t4 -2.5t4.5 -1.5t3.5 -0.5q0 4 -2 8t-7 4q-2 0 -3.5 -0.5t-1.5 -3.5zM176 41h-17l-1.5 0.5l-1.5 0.5l-1.5 1.5l-0.5 0.5v12q0 1 1.5 1.5l1.5 0.5q2 1 5 2l3 1h24l5 -5q-2 -2 -4.5 -3t-5.5 -1t-6 0.5t-6 0.5h-6t-5 -1v-2q0 -3 2 -4t5.5 -0.5t7.5 0.5t8 -0.5t6 -3t2 -7.5
q0 -8 -3.5 -11t-9 -3.5t-12 -0.5t-11.5 -1q-1 -1 -3.5 -3l-2.5 -2h-0.5h-0.5q-3 0 -4 3t-1 6.5v7.5t-1 5q0 1 -0.5 3t-1.5 4t-1.5 4.5t-1.5 2.5l2 2t2 1l1 -0.5t2 -0.5l1 -2l7 -17l3 -3l3 -0.5t4 -0.5h5t6 0.5t4.5 1.5t1.5 5v1.5t-1 1.5zM104 52q0 -3 1 -3.5t5 -1.5h1
q2 0 3 1.5t2 3.5t1.5 3.5t0.5 3.5h-5q-3 0 -5 -0.5t-3 -2t-1 -4.5zM92 31q2 0 3 2t1 4q0 1 -3 4t-7.5 5.5t-8.5 4.5t-5 2q0 -9 5 -15.5t15 -6.5z" />
</svg>
