<?xml version="1.0" standalone="no"?>
<!DOCTYPE svg PUBLIC "-//W3C//DTD SVG 1.1//EN" "http://www.w3.org/Graphics/SVG/1.1/DTD/svg11.dtd" >
<svg xmlns="http://www.w3.org/2000/svg" xmlns:xlink="http://www.w3.org/1999/xlink" version="1.1" viewBox="-10 0 266 256">
   <path fill="currentColor"
d="M100 249q8 1 13.5 1.5t12.5 0.5t12.5 -1.5t10 -4.5t7 -8t2.5 -12v-41q0 -2 -2 -3.5t-3 -1.5q-2 0 -3 1.5l-2 3t-1.5 3.5t-2.5 2q-6 2 -14 2h-14h-19q-1 -1 -3 -2.5t-3 -1.5l-1.5 1.5t-1.5 2.5v43q0 2 1.5 4t3 4.5t3.5 4t4 2.5zM174 111q0 1 0.5 5t0.5 8t0.5 7.5t0.5 5.5
q0 3 1 12.5t2 22t2.5 26.5t3 25.5t2.5 19t2 8.5q1 0 4.5 1l3.5 1q0 -14 -1 -28l-2 -28t-2 -28.5t-1 -28.5q-2 -4 -2.5 -12t-1.5 -15.5t-4 -13t-9 -6.5l-31 -3q-1 0 -2 -1l-1 -1q-2 -1 -2 -2v-11q13 0 23 -3t16.5 -9t10 -15.5t3.5 -23.5q0 -1 -0.5 -2t-1.5 -2h-4h-4t-2 3
q0 2 0.5 3t1.5 4q1 6 -2.5 13t-8.5 12.5t-12 8.5t-14 1q-4 -1 -6 -5.5t-2 -8.5q0 -2 0.5 -3t3.5 -2q4 0 9 -0.5t8.5 -2t6 -4.5t2.5 -9v-2v-3t-1 -2.5t-2 -1.5q-3 0 -3.5 2t-1.5 4.5t-4 4.5t-11 2h-3q-2 -3 -3 -8t-1 -8q-7 -5 -14 -5.5t-16 -0.5h-2h-4h-3h-3t-1 1v2
q0 3 2.5 4t6.5 1h8q5 0 9 1.5t6.5 4.5t2.5 9v1q-5 3 -10.5 4t-10.5 1q-4 0 -5.5 -2l-3 -4t-3.5 -4t-7 -1v1v1q0 7 4 10.5t10 5t12 1.5h10q3 2 3.5 4.5t0.5 4.5q0 5 -1.5 8t-5.5 4h-8t-12.5 -0.5t-11.5 -2t-6 -5.5l-5 -18q0 -1 -1.5 -1.5t-2.5 -0.5q-2 0 -4 1t-2 3q0 4 0.5 9
t2.5 10t5.5 8.5t8.5 3.5h42q0 3 0.5 5.5t0.5 5.5q0 1 -0.5 2t-1.5 1q-5 3 -11 2.5t-12 -0.5q-2 0 -8 0.5t-12.5 0.5t-12.5 0.5t-9 0.5q-1 0 -1 1v2t0.5 2t2.5 1h14q19 0 38 -1.5t38 -1.5q9 0 13 3t8 10zM94 205l4 -3l2.5 -0.5t5.5 -1t6.5 -1t5.5 -0.5l1.5 -0.5t3.5 -0.5h5h3
h3h4t3.5 0.5t2.5 0.5q2 0 2.5 4.5t1.5 10t1 10v4.5q0 3 -3.5 6.5t-5.5 4.5q-2 0 -5.5 0.5t-7.5 0.5t-7.5 0.5t-5.5 0.5v0q-2 0 -5 -0.5t-5.5 -2t-4.5 -3t-2 -4.5zM100 219q0 2 2 3t4 1h2q2 0 6 -0.5l8 -1t8.5 -1t5.5 -0.5l2 -2t2 -1q0 -2 -1.5 -3t-3.5 -1.5t-4 -0.5h-3h-2
h-3t-4.5 0.5t-4.5 0.5h-3t-2.5 0.5t-3.5 1t-3.5 1.5t-1.5 3zM110 129q5 0 7 3t3.5 7.5t2.5 9.5t5 7l10 7q3 -1 3 -2.5v-3.5q0 -4 -1 -7t-2.5 -6t-2.5 -6t-1 -6q0 -4 3.5 -4.5t7.5 -0.5t7.5 -1t3.5 -5q0 -2 -1.5 -3.5t-3.5 -1.5q-3 0 -6.5 1.5t-6.5 1.5h-3h-5h-5h-2h-4.5
t-6.5 0.5t-6.5 0.5t-4.5 1q-11 3 -11 15v5.5t0.5 7t2.5 6t6 2.5q2 0 3 -2.5t1 -4.5q0 -4 -2.5 -7.5t-2.5 -7.5q0 -2 1 -3.5t3 -2t4 -0.5h4z" />
</svg>
