<?xml version="1.0" standalone="no"?>
<!DOCTYPE svg PUBLIC "-//W3C//DTD SVG 1.1//EN" "http://www.w3.org/Graphics/SVG/1.1/DTD/svg11.dtd" >
<svg xmlns="http://www.w3.org/2000/svg" xmlns:xlink="http://www.w3.org/1999/xlink" version="1.1" viewBox="-10 0 266 256">
   <path fill="currentColor"
d="M94 164v84q0 2 2 2h2q2 0 4 -0.5t2 -2.5v-170q0 -4 -2.5 -9t-5.5 -8q-9 -1 -18 -1.5t-18 0.5q-3 0 -3 -1.5v-2.5q0 -3 0.5 -8t1.5 -9.5t4 -8t7 -3.5l47 -5q3 -1 3.5 -4t0.5 -5h-5h-8h-9h-5q-10 1 -18.5 1.5t-15 3.5t-10 9.5t-3.5 18.5v94q0 6 1 9.5t3 6t5 4.5t7 5h31z
M115 244q0 4 4 4q6 0 10.5 -5t8.5 -12.5t6.5 -15t5.5 -11.5q0 -1 1 -3t2 -4.5t2 -4.5t1 -3t1 -4t2 -6.5t2 -6t2 -3.5q0 -3 0.5 -3.5t2.5 -0.5q1 0 2 0.5l1 0.5q0 3 2 10.5t5 16t6.5 18t7 17t6 12.5t3.5 5q8 0 8 -7v-1l-9.5 -19t-7.5 -19q0 -1 -0.5 -3.5t-1.5 -3.5
q-1 -3 -2.5 -5t-2.5 -4t-2 -4.5t-2 -6.5q-2 -9 -3.5 -19.5t-5.5 -19.5v-117q0 -3 -1.5 -3.5t-2.5 -0.5q-4 0 -7 4v3.5t-0.5 5.5t-0.5 5.5v3.5v1q0 18 0.5 35.5t0.5 35.5v30v4.5t-0.5 5.5t-0.5 5.5v2.5l-15 43q0 1 -2.5 4.5t-5.5 8.5t-6.5 11t-6.5 11t-5 8.5zM115 154
q0 1 1.5 3t2.5 2q3 0 6 -5.5t5.5 -13t4 -15t1.5 -10.5q1 -1 1 -3.5t0.5 -5t0.5 -5v-3.5v-6.5t0.5 -12l1 -13t0.5 -9.5v-6v-6q-2 -3 -5 -3q-2 0 -3.5 1.5t-1.5 3.5v38q1 0 1.5 1.5l0.5 1.5q0 1 -1.5 4l-2.5 5q0 1 -0.5 4.5t-1 7.5t-1 7.5t-0.5 4.5v3v2q-1 4 -2.5 7.5l-3 7
l-3 7t-1.5 6.5zM55 130v-3t0.5 -4l1 -4t0.5 -3l0.5 -1t0.5 -2q8 1 15.5 -0.5t15.5 -1.5q2 0 3.5 2t1.5 5v30l-0.5 1t-1 1.5t-1 1.5l-0.5 1h-26q-3 0 -4.5 -3t-3 -7t-2 -8t-0.5 -5zM195 57v3q0 1 0.5 5t0.5 8.5t0.5 8.5t0.5 5v8t0.5 13.5t1.5 15.5t2 14t3 10.5t4 4.5t3 -1
t1.5 -3t0.5 -3.5v-3.5q0 -4 -0.5 -6.5t-2.5 -7.5q-1 -11 -3 -24.5t-2 -25.5v-6q0 -1 0.5 -4.5t0.5 -8t0.5 -8t0.5 -4.5v-3q0 -2 -1 -5t-2 -5t-3 -2h-1l-2 2l-1 1q0 1 -0.5 4t-0.5 5.5t-0.5 5.5t-0.5 4v3zM55 98v-11v-9.5t2 -5.5t5.5 -2.5l10.5 -1.5h9h9q1 1 2 3.5t1 3.5
q0 3 0.5 6.5t0.5 7.5t0.5 6.5l0.5 2.5l-4 3l-3 0.5t-7.5 0.5t-9.5 0.5t-9 0.5h-2q-2 0 -3 -0.5t-3 -4.5z" />
</svg>
