<?xml version="1.0" standalone="no"?>
<!DOCTYPE svg PUBLIC "-//W3C//DTD SVG 1.1//EN" "http://www.w3.org/Graphics/SVG/1.1/DTD/svg11.dtd" >
<svg xmlns="http://www.w3.org/2000/svg" xmlns:xlink="http://www.w3.org/1999/xlink" version="1.1" viewBox="-10 0 266 256">
   <path fill="currentColor"
d="M196 243q0 2 2 5t4 3q3 0 4 -1.5t1 -3.5t0.5 -7t1 -10.5t0.5 -10.5v-7v-2q0 -14 -1.5 -28.5t-1.5 -28.5v-81q-1 -7 -4 -10.5t-11 -3.5h-41l-0.5 -2.5t-0.5 -4.5t-0.5 -4.5l-0.5 -2.5q2 -7 6.5 -10t10 -4t11.5 -1.5t10 -0.5h26q3 -1 3.5 -2t0.5 -3v-2.5t-2 -1.5h-5.5h-6.5
h-2h-4h-3h-2q-2 0 -7 0.5t-10.5 1t-10 1t-6.5 0.5q-4 1 -7.5 2.5t-6 3.5t-4 4.5t-2.5 7.5v9v12v12.5v8.5q0 1 -0.5 5.5t-0.5 10t-0.5 10t-0.5 5.5q0 2 0.5 6.5t0.5 9.5t0.5 9.5t0.5 6.5q3 8 9 11.5t14 3.5q2 0 6.5 0.5t10 0.5t10 0.5t6.5 0.5l3 3l0.5 2.5t0.5 5.5t0.5 6.5
t0.5 5.5v25v25q-1 1 -1.5 3.5l-0.5 2.5v1.5v1.5zM104 237v1q0 2 0.5 3t0.5 2t1 1h8l0.5 -1t1 -3l1 -4t0.5 -4v-1.5t-0.5 -3t-0.5 -3v-2.5v-11q0 -2 -0.5 -8.5t-0.5 -15.5v-18.5t-0.5 -18.5t-0.5 -15.5v-8.5v-60q0 -4 -1.5 -6.5t-4.5 -4t-6 -2t-6 -0.5h-5t-9 0.5t-9 0.5h-5
h-5q-4 0 -5 -0.5t-1 -5.5q0 -8 5 -13t12 -7t16 -2h16q8 0 13 -0.5t5 -3.5q0 -4 -3.5 -6t-6.5 -2h-2q-13 2 -25.5 3.5t-26.5 3.5q-7 3 -11 8t-4 14v76q2 6 1.5 10.5t0.5 8t3.5 6t9.5 5.5q2 1 5.5 2t4.5 1h31q1 0 2 3.5t1.5 7.5t1 7.5t0.5 4.5v3q0 1 -0.5 6t-0.5 11t-0.5 11
t-0.5 7l0.5 1.5t0.5 3.5t0.5 4l0.5 2l-0.5 1.5t-0.5 3.5t-0.5 3.5l-0.5 1.5v3zM147 127v-4.5v-5.5q0 -1 1.5 -3t3.5 -2h39l4 2l0.5 4t0.5 6v12v12q0 2 -1.5 3t-3.5 1q-1 0 -3 0.5t-4 0.5h-4h-3q-7 0 -13 -1t-9.5 -3.5t-5.5 -7.5t-2 -14zM57 118v-6.5t3 -5.5q2 0 7 -0.5
t11 -0.5t11 -0.5t7 -0.5h1h2q2 0 3 0.5t2 1.5v2.5v3.5v5v2v11q0 5 -1 8t-4.5 4.5t-10.5 1.5q-14 0 -22.5 -6t-8.5 -20zM170 66q7 0 13 0.5t12 4.5q1 7 1 12.5v11.5v4.5v3.5l-1 1h-40q-1 0 -2.5 -0.5t-3.5 -1.5t-3 -2t-1 -3v-24q0 -2 3.5 -3.5t8 -2.5t8.5 -1h5zM57 68l1 -2
l2.5 -0.5t6.5 -1l8 -1t6 -0.5h3h2h3t4 0.5t4 0.5h2q3 2 4 5t1 6.5v6.5v4t-0.5 2.5t-1.5 3.5t-2 3t-2 1h-33q-1 0 -3.5 -0.5t-3.5 -1.5l-0.5 -0.5l-0.5 -0.5v-25z" />
</svg>
