<?xml version="1.0" standalone="no"?>
<!DOCTYPE svg PUBLIC "-//W3C//DTD SVG 1.1//EN" "http://www.w3.org/Graphics/SVG/1.1/DTD/svg11.dtd" >
<svg xmlns="http://www.w3.org/2000/svg" xmlns:xlink="http://www.w3.org/1999/xlink" version="1.1" viewBox="-10 0 266 256">
   <path fill="currentColor"
d="M96 206v38q0 3 2.5 5t4.5 2q4 0 4.5 -3t0.5 -6q0 -17 -3 -34t-4 -34q-2 -27 -2 -55v-56q-1 -2 -4.5 -3.5t-5.5 -1.5h-34v-4v-4t0.5 -4t2.5 -3q1 -1 2.5 -2l3 -2t3 -1.5l1.5 -0.5l31 -5q1 0 3 -1.5t2 -3.5t-2 -3t-3 -1h-3q-2 1 -5.5 1t-7 0.5l-7 1l-3.5 0.5q-8 2 -13.5 4
t-8.5 5t-4.5 7.5t-1.5 12.5q0 1 -1 5t-1 5v7v9.5v10.5v7v9v10.5v9.5v5q0 4 0.5 9.5t2 10.5t5 8.5t9.5 4.5h4.5t8 0.5t8.5 1t5 0.5t3.5 1t2.5 2q1 3 1 7.5v9.5t0.5 9.5t2.5 8.5zM120 199q0 3 0.5 10.5t2 15.5t4.5 14.5t7 6.5q2 0 3.5 -1t1.5 -3v-1q-2 -9 -3 -16.5l-2 -15
t-1.5 -15t-0.5 -16.5q0 -3 1 -8t1.5 -10t1 -9t1.5 -5l2 -3l3 -30l4 -1.5t6 -1.5q0 -1 2 -0.5l2 0.5q0 8 -1.5 15t-3.5 14l-4 14t-2 14q0 3 0.5 6.5t1.5 6.5t3.5 4.5t6.5 1.5q9 0 13.5 -3t6.5 -8.5t2 -12.5t1 -14q0 -2 1.5 -4.5t2.5 -4t2 -4t1 -4.5q0 -1 -0.5 -2t-2.5 -1
q-5 0 -7.5 3.5t-4 8.5t-2.5 11t-2 11.5t-2.5 8.5t-4.5 3q-2 0 -4 -1.5t-4 -3.5v-5q0 -4 2 -12.5t5 -17.5t6 -17t6 -11q0 -1 1.5 -1t3.5 -0.5t3.5 0l1.5 0.5h6t5 1.5t3.5 3.5t1.5 6q0 15 -2.5 30.5t-2.5 30.5v16t0.5 17.5t3 17t6.5 15.5h2.5h1.5q3 0 5.5 -0.5t2.5 -5.5
q-1 -6 -3.5 -12.5t-4.5 -13.5t-4 -13.5t-2 -13.5q0 -9 1 -18t2.5 -18.5t2.5 -18.5t1 -18t-5 -12t-13 -3q-4 0 -8 1t-8 1h-1q0 -1 -0.5 -2l-0.5 -1v-22l1 -1q5 -1 11 -2t11.5 -3t9 -6t3.5 -10q0 -8 -3.5 -12t-9 -6.5t-12 -2.5h-11.5q-3 -1 -3.5 -4t-1 -6.5t-1.5 -5.5t-4 -2
t-5 1.5t-2 5.5q0 2 1 4t1 4t-2.5 3.5t-7 2.5t-9 3t-8.5 4.5t-7 7t-3 10.5q0 2 1.5 4.5t3.5 4.5t4.5 4t4.5 2h4h6h5.5h3.5q4 0 6 2.5t2.5 6t0.5 7.5v6t-0.5 4t-3.5 2h-14q-3 0 -4.5 -2.5t-2.5 -6t-3 -6.5t-5 -3h-4.5t-2.5 2q0 5 3 9t4 7q0 1 -0.5 3t-1.5 2t-3.5 0.5t-5 1.5
t-4.5 2.5t-2 4.5t3 3h1.5h0.5q1 0 3 -0.5l4 -1l4 -1l2 -0.5h2q2 0 2 2.5v3.5q0 7 -2.5 13.5t-4.5 13.5q-2 13 -4.5 25.5t-2.5 25.5zM56 149q0 -1 -0.5 -4t-1.5 -6.5t-2 -6.5t-1 -4v-2q0 -6 4 -8.5t9.5 -3t11.5 0t11 0.5h3t1 3q-1 9 -0.5 19t1.5 19l-1 2h-21q-2 0 -3.5 -1
t-4 -2.5t-4 -3zM51 100l2 -27l0.5 -0.5t1.5 -0.5q4 -2 6.5 -3t5 -1h4.5h8h2h4h3h1l2 2v2.5t0.5 5.5t0.5 5v3v8.5t-1 8.5q-1 2 -3 2.5t-4 0.5h-28q-2 0 -3.5 -2t-1.5 -4zM132 50q0 -5 5.5 -7.5t13 -3.5t14.5 -1h9h3h4h4h3q4 2 6 5t2 7t-2.5 6.5t-6 4t-7.5 2t-7 0.5
q-4 0 -5 -2t-1.5 -4.5l-1 -5t-3.5 -3.5q-1 0 -3.5 0.5t-3.5 0.5v13q0 1 -1 1h-2q-4 0 -7.5 -0.5t-6.5 -2t-4.5 -4t-1.5 -6.5z" />
</svg>
