<?xml version="1.0" standalone="no"?>
<!DOCTYPE svg PUBLIC "-//W3C//DTD SVG 1.1//EN" "http://www.w3.org/Graphics/SVG/1.1/DTD/svg11.dtd" >
<svg xmlns="http://www.w3.org/2000/svg" xmlns:xlink="http://www.w3.org/1999/xlink" version="1.1" viewBox="-10 0 266 256">
   <path fill="currentColor"
d="M87 247q0 3 1.5 3.5t3.5 0.5t3.5 -1t2 -3t1 -3.5t0.5 -3.5v-3v-5.5v-4.5v-4v-4v-5.5v-4.5v-2v-3.5t-0.5 -6t-0.5 -6v-3.5v-1t0.5 -2.5t0.5 -2.5v-1v-3v-2q0 -1 -0.5 -4.5t-0.5 -5.5v-11t0.5 -17.5t0.5 -17.5v-11v-9v-8.5t-1.5 -8t-4.5 -6t-8 -3.5h-4h-7h-6h-5
q-3 -1 -3 -4.5v-5.5v-2.5v-1.5q3 -8 7.5 -12t10 -6t11.5 -2h11q4 0 7.5 -1t3.5 -4q0 -4 -4 -4h-7h-11q-8 0 -15 1t-13.5 4t-8.5 9q-2 24 -2.5 48.5t-0.5 49.5v22q1 1 2 3.5t2.5 5t3.5 4t5 1.5h26q1 0 1.5 1t0.5 2v6q0 15 -1.5 30t-1.5 29zM113 245q0 1 1.5 2.5t3.5 1.5
l1.5 -0.5l1.5 -0.5q1 -10 1 -17.5t0.5 -15.5t0.5 -15v-17v-17l-2 -3v-3.5t0.5 -8.5t0.5 -10t1 -9v-4.5t0.5 -7.5t1 -7.5t1.5 -5.5q1 -1 5 -2t8.5 -2t8 -2t3.5 -3v-14l4 -4h13q2 0 3 3.5t3 7.5t6 7t12 3q3 0 5 -0.5t2 -3.5v-1v-1h-5.5t-7 -1t-6 -3t-2.5 -5q0 -4 2.5 -5.5
t6 -2t7 0t5.5 0.5q2 -2 2.5 -4.5t0.5 -5.5q-8 0 -16 1t-17 1h-4q-1 0 -1.5 -1t-0.5 -2q0 -4 2 -6.5t5 -4t6.5 -2.5t6.5 -2t5 -3.5t2 -6.5q0 -7 -5 -10t-11.5 -3.5t-14 -1t-12.5 -2.5q-2 -1 -4 -3t-4 -4.5t-4 -4t-5 -1.5q-2 0 -2.5 1.5t-0.5 4.5v1v1l13 13v0.5v1.5q0 4 -4 7
t-7 5q-1 0 -4 1.5l-6 3t-5.5 3t-3.5 1.5v2q0 2 1.5 2.5t3.5 0.5q8 0 14 -4t11.5 -8.5t10 -8.5t8.5 -4h5t6.5 0.5t6 2t2.5 4.5q0 1 -2.5 2.5t-6 3.5t-6 3l-2.5 1q-4 2 -5 5t-2.5 5.5l-3 5t-5.5 3.5q-1 0 -4.5 0.5t-6.5 1.5t-6.5 1.5t-4.5 0.5q0 1 -0.5 1.5l-0.5 0.5
q-1 1 -3 4.5t-2 4.5q-2 34 -3.5 66.5t-1.5 65.5v25zM140 203q0 8 0.5 13t3 8.5t7.5 4.5t14 1h1.5t3.5 -0.5t4 -0.5h3q8 -2 13 -3t7 -3.5t3 -7t1 -13.5v-3q0 -3 -0.5 -5.5t-1.5 -4.5t-3 -2q-2 -1 -3.5 0.5t-3 3.5t-4 3.5t-7.5 1.5h-3t-2 -3v-11q0 -1 4 -2t9.5 -2.5t10 -5
t4.5 -10.5q0 -1 -1 -5t-1 -5l-1.5 -0.5l-1.5 -0.5q-2 0 -3.5 2.5t-2 5.5l-1 6t-1.5 5q-1 0 -2.5 0.5l-3 1l-3 1t-2.5 0.5h-1q-2 0 -3 -1.5t-1.5 -3t-0.5 -3.5v-3q0 -5 2.5 -7t5.5 -3.5t6 -3.5t5 -7q2 -6 5 -8t5.5 -2.5t4.5 -0.5t2 -2t-0.5 -3.5t-3.5 -1.5h-4t-5 1l-61 5
l-2 0.5t-2.5 1l-1 1l-0.5 0.5q0 1 0.5 2t1.5 1h2.5h3.5h4h2q2 1 3.5 2t2 3t1 3.5t1.5 2.5t3 2.5t4.5 2.5t4.5 2.5l2 1.5v15q0 1 -1 2t-3 1.5t-3.5 0.5h-1.5q-5 0 -6.5 -2.5t-2.5 -6t-3 -6t-8 -2.5q0 7 1.5 12t5 7.5t8.5 3t13 1.5l1 1v14q0 1 -3.5 1.5t-5.5 0.5t-3.5 -1.5
l-3 -3l-2.5 -2.5t-3 -1h-1l-0.5 0.5l-0.5 0.5v3v3v4v2zM149 214q0 -4 2 -6.5t5 -3t7 -0.5h8h8q2 0 5.5 -0.5t5.5 1.5v4q0 3 -0.5 5t-2.5 4q-2 0 -5 0.5t-7 1t-7.5 1t-4.5 0.5h-3q-5 0 -8 -1t-3 -6zM58 147v-4q0 -4 1 -5q1 -3 4 -4.5t7 -2.5t8 -1h6h1q1 1 3 1.5l2 0.5v38
l-1.5 0.5t-3.5 0.5h-4h-2q-7 0 -10.5 -1.5t-6 -5t-3.5 -8t-1 -9.5zM152 140q0 -2 0.5 -3t2.5 -2q1 0 3.5 -0.5l5 -1t4.5 -1t3 -0.5h2.5t3.5 0.5t4 0.5t2 1h1v1q0 3 -3 6t-5 3h-19q-2 0 -3.5 -1.5t-1.5 -2.5zM59 118l1 -28q0 -1 2 -3.5t3 -2.5h20q2 0 3 1.5t2 2.5v5t0.5 6.5
t0.5 6.5v4v2q0 5 -2 7t-5.5 3t-6.5 1h-8h-7l-2.5 -2.5t-0.5 -2.5zM143 114q0 2 1.5 3t2.5 1h12h7.5t11.5 -0.5t10.5 -2t4.5 -4.5q0 -2 -2 -2h-3q-11 0 -22 0.5t-22 2.5l-0.5 0.5l-0.5 0.5v1zM142 82q4 0 4 4t-2 6t-5 3.5t-6.5 2t-5.5 0.5q0 -7 4 -11.5t11 -4.5z" />
</svg>
