<?xml version="1.0" standalone="no"?>
<!DOCTYPE svg PUBLIC "-//W3C//DTD SVG 1.1//EN" "http://www.w3.org/Graphics/SVG/1.1/DTD/svg11.dtd" >
<svg xmlns="http://www.w3.org/2000/svg" xmlns:xlink="http://www.w3.org/1999/xlink" version="1.1" viewBox="-10 0 266 256">
   <path fill="currentColor"
d="M120 166q0 3 1.5 5.5t3 5.5t4 5t4.5 3l1.5 0.5t4 0.5t4.5 0.5t3 2.5q2 2 3.5 4.5t2 5.5t1 5.5t1.5 5.5q8 14 17.5 24t22.5 19h1.5h0.5q3 0 3.5 -2t0.5 -4t-2.5 -5t-7 -6t-9.5 -7t-9 -8t-6.5 -8t-2.5 -8q1 -1 2.5 -4t4.5 -6l5 -5t4 -3q4 -3 8.5 -5.5t7.5 -5.5t5 -7t2 -9
q0 -8 -4 -13t-8.5 -9t-8.5 -8.5t-4 -12.5q0 -3 2.5 -4t5.5 -1q1 0 3.5 -0.5t5.5 -0.5t5.5 0.5t3.5 0.5q1 -2 1.5 -2.5t0.5 -2.5q0 -1 -0.5 -2l-1.5 -3h-6q-10 0 -19.5 1t-19.5 1h-1q-1 0 -5 -0.5l-8 -1t-7.5 -1t-5.5 -0.5q-2 -1 -2.5 -3t-1.5 -4t-2 -3.5t-3 -1.5q-3 0 -3 2
v4q0 4 1 8t5 7h5t6 0.5t5 2.5t2 5q0 8 -1 11t-3 4.5t-5 3t-8 4.5q-1 1 -2 5l-2 8t-1.5 7.5t-0.5 4.5zM53 236q-1 3 0 4t3 1q5 0 5.5 -4t0.5 -9q5 -3 10.5 -3.5t10.5 -0.5q2 0 6.5 -0.5t10 -0.5t10 -0.5t6.5 -0.5l0.5 -1.5l0.5 -1.5l1 -1q0 -1 -2 -2t-3 -1h-19q-1 0 -2 -1.5
t-1 -3.5v-4v-2v-6.5t2 -6.5h3t5.5 -0.5t5 -2t3.5 -3.5l-0.5 -1t-1.5 -2q-2 -1 -4 -1h-4h-4h-3q0 -6 1 -12t5 -11q1 -2 2.5 -3.5l3.5 -3.5t3.5 -4t1.5 -5t-4.5 -6.5t-9.5 -6.5t-10.5 -5.5t-8.5 -4.5q-2 -1 -3 -3t-2.5 -4.5t-3.5 -4t-5 -1.5q-2 0 -3 2t-1 4q0 3 1.5 4.5t4 3
t4 3t1.5 4.5t-1.5 6t-4 5t-4.5 5t-3 6q-2 10 -4 23t-2 24v3q0 2 0.5 7.5t0.5 11t0.5 11t0.5 7.5zM62 207q0 -16 1 -32t7 -31q1 -1 1.5 -2.5t1.5 -3.5t2 -3.5t3 -1.5q3 0 6 1t5.5 3t4.5 4.5t2 5.5v2q-1 0 -1.5 1.5t-1.5 3l-2 3l-1 1.5q-1 1 -2 3t-2 3.5t-2 3.5l-1 2v2v2v2v2
q0 4 -2.5 5t-5.5 1h-5t-2 3t2.5 3.5t5.5 0.5t5 1t2 5v3v4.5t-0.5 5t-0.5 3.5t-0.5 2t-1.5 1l-15 2l-3 -2v-3v-6zM154 151l-1 -1t-2 -1h-1v0q-1 0 -2.5 1l-1.5 1v24q0 3 -0.5 4t-2.5 1q-1 0 -1.5 -0.5t-1.5 -0.5l-7.5 -6t-2.5 -8q0 -10 1.5 -13.5t3.5 -5t5 -3.5t6 -7
q1 0 1.5 -2l0.5 -2q0 -1 0.5 -3.5l1 -5l1 -5t0.5 -3.5q2 -3 7 -4t8 -1v0q1 0 2.5 0.5t1.5 1.5v17q0 2 3.5 5.5t8 7.5t8 9t3.5 12q0 6 -5 10.5t-11 4.5v-25q0 -2 -2.5 -4t-5.5 -2h-1.5t-1.5 2v35q0 3 -1.5 6t-5.5 3h-1h-1q-2 -10 -2.5 -20.5t-0.5 -21.5zM94 101q3 1 3 4.5
v6.5q0 4 0.5 7t2.5 3t3.5 -1t2.5 -3t1.5 -4.5t0.5 -4.5v-4t-2 -4q1 -8 0.5 -15t-1 -13l-1 -12t-1.5 -14q-2 -2 -4.5 -3t-5.5 -1q-2 0 -5.5 -0.5t-7 -0.5t-7 -0.5t-5.5 -0.5t-3.5 -1t-1.5 -3q0 -3 2 -4.5t4.5 -2.5t5.5 -2t4 -1h5t8 -0.5t7.5 -0.5h5.5q2 -1 3.5 -2t1.5 -3
t-2 -3.5t-4 -1.5q-19 0 -29.5 1.5t-15.5 7t-6.5 16t-1.5 28.5q0 11 3 18t8 10t13 4t19 0zM63 80q0 -3 3.5 -4.5t8 -2t8.5 -0.5h5h2q1 1 3.5 2t2.5 2v15l-3 2h-3.5h-3.5q-4 0 -8 -0.5t-7.5 -2t-5.5 -4t-2 -7.5zM123 68q0 2 1.5 5.5t3.5 7t4 6t4 2.5h43q3 -1 6.5 -2t6.5 -3
t5 -5t2 -8q0 -8 -2.5 -13.5t-7 -8t-10.5 -3.5t-14 0l-3 -3t-2 -4v-1q1 0 2 -0.5l1 -0.5l34 -3q2 -1 2.5 -2.5t0.5 -2.5q0 -2 -0.5 -2.5t-2.5 -0.5h-32q-2 0 -2.5 -2.5t-0.5 -5.5t-0.5 -5.5t-2.5 -2.5q-4 0 -5.5 3t-2 6l-1 6t-2.5 3h-22l-1.5 2t-2.5 4v0v1q0 1 0.5 1.5
l0.5 0.5h27q2 0 3 3t1 4q0 3 -2 3.5t-5.5 1.5t-7.5 1.5t-7.5 2.5t-6 5.5t-2.5 9.5zM134 66q0 -2 1 -3.5t3 -1.5q4 0 6 2.5t3.5 5.5t2.5 6.5t1 5.5q0 1 -1.5 2l-1.5 1h-1q-3 0 -5.5 -1.5t-4 -4.5t-2.5 -6t-1 -6zM150 59q0 -3 2 -3.5t4 -0.5q3 0 6 3t5 6.5t3 8t1 7.5t-2 3.5
t-5 0.5h-2t-2 -1l-10 -23v-1zM174 61q0 -3 0.5 -4t2.5 -1q6 0 9 5t3 10q0 6 -5 6q-2 0 -4 -2t-3.5 -4.5t-2 -5t-0.5 -4.5zM62 57q0 -2 0.5 -4t4.5 -2h26q1 0 1.5 1t1 2.5t0.5 2.5v2v1v2t-0.5 1.5t-1.5 0.5h-31l-0.5 -1t-0.5 -2.5v-2.5v-1z" />
</svg>
