<?xml version="1.0" standalone="no"?>
<!DOCTYPE svg PUBLIC "-//W3C//DTD SVG 1.1//EN" "http://www.w3.org/Graphics/SVG/1.1/DTD/svg11.dtd" >
<svg xmlns="http://www.w3.org/2000/svg" xmlns:xlink="http://www.w3.org/1999/xlink" version="1.1" viewBox="-10 0 266 256">
   <path fill="currentColor"
d="M156 246q0 2 1 3.5t2 1.5h1q2 -1 3.5 -3t2.5 -4l2 -4t2 -2q4 -30 5 -58.5t3 -57.5q0 -1 0.5 -3l0.5 -2h1q3 0 7 2t5 6v16v16q0 2 -0.5 9.5t-0.5 15.5t-0.5 15.5t-0.5 10.5l-0.5 1.5l-0.5 1.5q0 2 1 3.5t3 1.5q3 0 4 -2.5t3 -4.5q-1 -14 -0.5 -29t1.5 -29.5l2 -29t1 -28.5
v-3.5t-0.5 -3.5t-1.5 -3t-2 -1t-2.5 0.5t-1.5 1.5v24h-4t-2 0.5t-1.5 -0.5t-3.5 -3l-1.5 -1.5l-2.5 -2.5l-2 -2l-1 -1v-29q0 -4 -2.5 -6t-6.5 -3t-8.5 -1t-8.5 -1t-6.5 -3.5t-2.5 -7.5q0 -3 1 -8t4 -6q0 -1 2 -1t4 -0.5t3.5 -0.5h2.5h9h12h13h9q0 -1 2 -3l2 -2v-1v0v-1
l-1 -1.5t-2 -1.5h-3h-2q-5 0 -8 0.5t-7 2.5h-35q-3 0 -5.5 1.5t-4.5 4.5t-3 6t-1 6q0 11 2.5 15.5t6 6.5t9.5 2.5t14 3.5q0 1 0.5 1.5l0.5 0.5v7v7.5t-3 7.5q-1 0 -3.5 2.5l-4.5 4.5l-4.5 4.5l-3.5 3.5h-1v0q-1 -1 -2 -1.5l-1 -0.5v-13q0 -2 -2 -2h-2h-3v8.5t-0.5 13.5
t-0.5 13.5v9.5v28q-1 14 -2.5 27.5t-1.5 27.5q4 0 6.5 -2.5t3.5 -6.5q2 -22 2 -45t1 -46l2 -2l2 -1.5t2.5 -1.5t1.5 -1.5t2.5 -3l2.5 -2.5l1 -1q1 -1 4 0.5t4 1.5q0 34 -1.5 66t-9.5 64q0 1 -0.5 3l-0.5 2v2zM85 190q0 7 1 14t2.5 14.5t3.5 14t4 13.5h1h2q5 0 5 -6v-1.5
v-0.5q0 -1 -1 -4.5t-2 -7.5t-2 -7.5t-1 -4.5q-1 -3 -1.5 -5.5t-0.5 -5v-5.5v-7v-15q2 -3 3.5 -6.5t3.5 -8t4 -8.5t3 -8t2 -8.5t1.5 -9.5t1.5 -10t3 -8v-4v-5.5v-5.5v-4v-13t-1 -16.5t-2.5 -17.5t-5 -16t-8.5 -11.5t-12 -4.5q-9 0 -16 4t-12.5 11t-8.5 15.5t-3 17.5v72
q0 1 0.5 3.5t1.5 6l2 7t1 5.5l2 6t4 3q2 0 3.5 -2t1.5 -4q0 -6 -1.5 -12.5t-5.5 -12.5v-29q1 0 3.5 -1t3.5 -1q3 2 6 8l6.5 13t6.5 12t4 5q3 0 4 -2.5t1 -4.5q0 -6 -4 -13t-9.5 -14t-11.5 -13t-10 -11v-9v-4t0.5 -6.5t2 -6t4.5 -2.5q2 0 4.5 2t5 4.5t4 4.5t1.5 3q2 1 4.5 6
t4.5 10.5t4 10l2 4.5q3 0 3.5 -2t0.5 -4q0 -10 -5 -19t-11 -16t-11.5 -12t-5.5 -8t2.5 -6t6.5 -5t8 -3t6 -1q4 0 7 3.5t5 9.5t3.5 13.5t2.5 14.5t1.5 13t0.5 9v16q0 6 -0.5 11.5t-1 10t-2 9.5t-3.5 11t-5 11.5t-5.5 11.5t-4.5 12.5t-2 12.5z" />
</svg>
