<?xml version="1.0" standalone="no"?>
<!DOCTYPE svg PUBLIC "-//W3C//DTD SVG 1.1//EN" "http://www.w3.org/Graphics/SVG/1.1/DTD/svg11.dtd" >
<svg xmlns="http://www.w3.org/2000/svg" xmlns:xlink="http://www.w3.org/1999/xlink" version="1.1" viewBox="-10 0 266 256">
   <path fill="currentColor"
d="M68 216q1 3 2 9t1.5 12t3 10t6.5 4q3 0 5.5 -2.5t2.5 -5.5q0 -6 -1.5 -13.5t-3.5 -13.5l-0.5 -2t-0.5 -5v-4v-3v-6.5v-5.5t0.5 -5.5t1.5 -5.5q2 -6 6.5 -11.5t9.5 -10t9 -10t6 -11.5q0 -2 0.5 -7t0.5 -10.5t0.5 -10t0.5 -7.5v-2v-4.5v-5.5v-4v-11q0 -7 -1 -14t-2.5 -14.5
t-4.5 -13t-7.5 -8.5t-12.5 -3q-9 0 -16 5.5t-12 15t-7.5 21t-4 22.5t-2 21t-0.5 17v8v7t0.5 6.5t0.5 8.5q1 1 1 3.5t1 5t3 4t4 1.5q5 0 6 -3t1 -7v-6l-0.5 -1.5l-1 -3l-1 -3l-0.5 -1.5q-1 -6 -1.5 -15t-0.5 -16v-6l2 -2v0q3 0 4.5 3t3 7.5t2.5 10t2 10t3 7.5t4 3q3 0 4.5 -2
t1.5 -5q0 -6 -3 -13.5t-7 -15.5t-8 -15.5t-7 -12.5v-2l0.5 -3t1.5 -6t2.5 -5.5t3.5 -2.5q3 0 5.5 3.5t4.5 8.5t4 11t4 11t3.5 8.5t3.5 3.5q3 0 4.5 -3.5t1.5 -5.5t-1.5 -6t-3.5 -8.5t-3.5 -9t-2.5 -5.5q-1 -3 -4 -6t-5.5 -6t-4.5 -6t-2 -6t2 -5t5 -3.5t6 -2.5t6 -1t5.5 2.5
t4 6t2 7t0.5 4.5l4 45q-3 4 -2.5 6.5t0.5 6.5q0 1 -0.5 4.5t-1 7.5t-1 7.5t-0.5 5.5q-9 12 -15.5 20t-11 16.5t-7 18.5t-2.5 25zM159 176v4v4v4v2q1 3 2.5 8.5t3.5 12t5 13.5t6 12.5t6.5 9t5.5 3.5q4 0 6.5 -1t2.5 -5v-3q-5 -7 -8 -13.5t-5.5 -12.5t-4.5 -12.5t-5 -14.5v-31
q0 -1 0.5 -3.5t2 -5.5t2.5 -5.5t2 -4.5q6 -9 11 -17t8.5 -15.5t5.5 -16t2 -19.5q-1 -4 -3 -7.5t-5 -6t-6.5 -4t-7.5 -1.5q-5 0 -9.5 1t-9.5 1q-4 0 -6 -3t-2.5 -7.5t-0.5 -9.5q0 -6 -1 -10t-3.5 -7.5t-7.5 -3.5t-5 5t1 10t2.5 10t2.5 10l2 10q1 1 1.5 2t0.5 2q0 4 -4 6
t-8.5 3t-8 3t-3.5 7q0 3 1 3.5t4 0.5h3l2 -1l4 -2l4 -2l2 -1h1v0h1q1 3 1.5 5t0.5 5q0 4 -2 8.5t-4.5 8.5l-5 8t-3.5 8q-4 13 -6 27t-3 28.5t-1.5 28.5t-0.5 28q0 4 2 7t6 3q2 0 4 -2t3 -5q0 -3 -0.5 -10t-0.5 -15t0.5 -15t0.5 -10v-8t0.5 -15t1 -14.5t0.5 -8.5v-3
q5 -13 10.5 -25t8.5 -25q1 -6 1.5 -10.5t2 -7t5.5 -4t13 -1.5q8 0 12 6v7q0 10 -4 18.5t-9 16.5t-10.5 16.5t-8.5 17.5q-3 8 -3.5 15.5t-0.5 15.5z" />
</svg>
