<?xml version="1.0" standalone="no"?>
<!DOCTYPE svg PUBLIC "-//W3C//DTD SVG 1.1//EN" "http://www.w3.org/Graphics/SVG/1.1/DTD/svg11.dtd" >
<svg xmlns="http://www.w3.org/2000/svg" xmlns:xlink="http://www.w3.org/1999/xlink" version="1.1" viewBox="-10 0 266 256">
   <path fill="currentColor"
d="M116 223q0 3 1 8.5t3 10.5t5.5 8.5t8.5 3.5q3 0 4.5 -2t1.5 -5q0 -4 -2 -7t-4.5 -6t-4 -6t-1.5 -8q0 -6 3.5 -11t9 -9t12 -8.5t12 -9t9.5 -10.5t4 -14t-1.5 -17t-5.5 -17.5t-10 -15.5t-14 -10h-10q-13 0 -23.5 4.5t-18 12.5t-11 19t-3.5 25q0 1 0.5 8.5t1.5 15.5t2 14.5
t2 6.5h7l0.5 -1t0.5 -2v-5q0 -5 -0.5 -10t-2 -10t-2 -10t-0.5 -11v-3.5t3 -1.5q4 0 8.5 5t8.5 11.5t7.5 12t6.5 5.5q2 0 3.5 -2t1.5 -4q0 -5 -5.5 -11.5t-12 -12.5t-12 -11.5t-5.5 -7.5q0 -1 0.5 -3.5t2 -5.5t3 -5t3.5 -2q5 0 9 3.5t9 9.5t9.5 12t8 12t6 9.5t3.5 3.5
q3 0 3 -3v-4q0 -7 -2 -12t-5.5 -9.5t-8 -8t-8.5 -7t-7 -6.5t-4 -7v-1q0 -3 3 -4.5t7 -2t7.5 -0.5h4.5q7 0 12.5 6t9 14t5 16.5t1.5 13.5q0 9 -3.5 15t-9.5 10.5l-12 9l-12 9t-9.5 10.5t-3.5 15zM100 87h4q2 0 7 0.5t10.5 0.5h10.5h8h2t5 -0.5t5 -0.5h2h31q3 -2 3 -5
q0 -2 -2.5 -4t-4.5 -2h-2q-1 1 -3.5 1t-6 0.5t-6 1t-3.5 0.5h-30q-4 0 -10 0.5t-12 0t-12 -0.5t-11 -1q-3 -2 -3.5 -4t-0.5 -6v-2t1 -3q2 -1 6.5 -3.5t10 -5.5t10 -6t6.5 -4l1 -1t2.5 -2t2.5 -2l1 -1h1h2q5 0 11.5 2.5t13.5 6t13.5 7t11.5 5.5v0q2 0 5 -2.5t2 -4.5
q-1 -3 -5 -5t-9.5 -4t-11.5 -4t-11.5 -4t-9 -3.5t-3.5 -3.5v-16q0 -3 -2 -3h-4h-2t-2 1v20l-0.5 0.5t-1 0.5t-2.5 1t-4.5 2.5t-5 2.5l-2.5 1q-3 2 -5.5 4t-5.5 4l-6 4t-6 2q-1 0 -2 -0.5t-2 -1.5v-3.5t-0.5 -5.5t-0.5 -5.5v-3.5q0 -2 -0.5 -5.5t-5.5 -3.5q-2 0 -3 2t-1 4v1
v5t0.5 6t0.5 5v2q0 3 0.5 9t1.5 12.5t2.5 12t4.5 5.5h22z" />
</svg>
