<?xml version="1.0" standalone="no"?>
<!DOCTYPE svg PUBLIC "-//W3C//DTD SVG 1.1//EN" "http://www.w3.org/Graphics/SVG/1.1/DTD/svg11.dtd" >
<svg xmlns="http://www.w3.org/2000/svg" xmlns:xlink="http://www.w3.org/1999/xlink" version="1.1" viewBox="-10 0 266 256">
   <path fill="currentColor"
d="M72 211v18t1 17q1 2 2 3.5t3 1.5q3 0 4.5 -2.5t1.5 -4.5q0 -10 -1.5 -19t-1.5 -19q0 -13 2 -21.5t5 -15.5t7.5 -14t9.5 -18t6 -23.5t1 -23.5v-11t-1 -15t-2.5 -15.5t-4.5 -14t-8 -10.5t-12 -4q-10 0 -16 5.5t-9.5 14t-5.5 19.5t-2.5 21t-0.5 19v13q0 3 -0.5 10t0.5 14.5
t2.5 13.5t5.5 6q2 0 3 -2t1 -4q0 -6 -1.5 -12t-1.5 -12v-4.5v-7t0.5 -6.5t0.5 -4q6 0 9 4t5.5 8.5t4.5 8.5t5 4q1 0 1.5 -1t0.5 -2q0 -8 -4 -14t-9.5 -11t-9.5 -9.5t-4 -10.5v-5t0.5 -8t2 -7t3.5 -3v0q1 0 2.5 2t3.5 3.5t3.5 3l2.5 2.5q1 2 3 5.5t3.5 7t3.5 6t3 2.5
q2 0 2.5 -2t0.5 -3t-0.5 -3.5t-1.5 -4.5t-1.5 -3.5t-1.5 -3.5l-21 -20l-0.5 -2t-1.5 -3v0q0 -4 2 -6.5t5 -4.5t6.5 -2.5t6.5 -0.5q4 0 6.5 1t4.5 5q1 2 2 5l2 6t1.5 5.5l0.5 2.5v57q0 8 -2.5 14.5t-6 12.5t-7 11.5t-6.5 12.5q-3 6 -4.5 11.5t-2.5 11t-1 11.5v13zM156 234
q0 3 1 3.5t4 0.5q4 0 5 -4t3 -7q-1 -7 -0.5 -13.5t1 -12.5t0.5 -12v-12q0 -13 -1 -25.5t-1 -24.5v-3v-4t0.5 -3.5l0.5 -1.5l1 -3h37q1 0 1.5 -2l0.5 -2q0 -1 -0.5 -2.5t-1.5 -1.5h-2h-4h-3h-2q-6 0 -10.5 1t-9.5 1h-1q-1 -1 -2 -2.5l-1 -1.5v-20q0 -3 2 -4.5t4.5 -2.5t5 -3
t4.5 -5q4 -8 4.5 -17.5t0.5 -18.5v-14l-1.5 -2.5t-2.5 -2.5q-3 0 -4.5 3t-1.5 5v5.5v8.5v7.5v5.5t-0.5 6t-2 7.5t-4 6t-6.5 2.5h-19q-2 0 -3 -3.5t-2 -9.5t-1 -12.5t-0.5 -12t-1.5 -9.5t-3 -4q-3 0 -5 4v5q0 2 0.5 6t1 9.5t1 11.5t1.5 11t2.5 8t3.5 3h14l1 2t1 4v7v3
t-0.5 6.5t-1.5 6t-2 2.5h-31q-3 0 -4 2t-1 4h36l2 4v4v10v10v9v42t-3 41v1z" />
</svg>
