<?xml version="1.0" standalone="no"?>
<!DOCTYPE svg PUBLIC "-//W3C//DTD SVG 1.1//EN" "http://www.w3.org/Graphics/SVG/1.1/DTD/svg11.dtd" >
<svg xmlns="http://www.w3.org/2000/svg" xmlns:xlink="http://www.w3.org/1999/xlink" version="1.1" viewBox="-10 0 266 256">
   <path fill="currentColor"
d="M81 205v10t1.5 16t3.5 14t7 6q4 0 5.5 -2.5t1.5 -5.5q0 -8 -3.5 -15.5t-5.5 -14.5q1 -10 2 -18t4 -15t6.5 -14t8.5 -16q1 -1 2.5 -3.5l1.5 -2.5q4 -11 4.5 -21.5t0.5 -21.5v-3v-3.5v-4.5v-2q-2 -3 -2 -6v-6v-8q1 0 2 0.5t1.5 1t2.5 2t4 2.5t4 2.5t3 1.5h3t6 -0.5t5.5 -1
t3.5 -0.5h1q2 0 4.5 1t2.5 4q0 7 -3.5 13t-6.5 12q-1 3 -4 8t-5.5 11t-4.5 10.5t-2 5.5q-6 13 -6.5 27.5t-0.5 28.5v5v8v8v5q0 1 0.5 3.5t1 5.5t1 5.5t0.5 3.5q2 5 6 5q8 0 8 -7q0 -4 -1 -8t-2.5 -8t-2.5 -8t-1 -8q0 -12 0.5 -25t3 -26t7.5 -24.5t12 -22.5q1 -1 2.5 -3.5
t3.5 -4.5t4.5 -3.5t4.5 -1.5q3 0 6 0.5t5.5 2t4.5 4t2 5.5q0 4 -1 8t-3 7l-4 6t-4 7q-3 9 -6.5 19t-3.5 20q0 13 2 24.5t7 23.5q1 2 2.5 6.5t3.5 8.5t5.5 7t7.5 3q3 0 5 -1t2 -4q0 -4 -1.5 -7t-3.5 -6.5t-4.5 -6t-3.5 -5.5q-2 -3 -3.5 -7.5l-3 -9t-2.5 -8.5t-1 -7
q0 -9 0.5 -19.5t4.5 -19.5q2 -5 5 -9.5t5.5 -8.5t4 -8.5t1.5 -10.5v-9q-4 -8 -12 -12t-17 -3q-3 -1 -3.5 -3.5t-0.5 -5.5q0 -5 4.5 -8t10 -6t9.5 -7.5t4 -13.5q0 -8 -3 -12.5t-8 -7t-11 -4t-12 -3.5q-4 0 -7 -1.5t-6 -1.5t-5 1.5t-2 4.5v1v1q5 2 12 3.5t14 3.5t12 6t5 11
q0 3 -2 5.5t-4 4.5t-5 3t-5 1h-4l-4 -4l-6.5 -6.5l-6.5 -6.5l-4 -4q-3 -3 -8.5 -5.5t-9.5 -2.5q-2 0 -4.5 1t-2.5 3q0 3 5 5.5t11.5 6t11.5 8.5t5 13v0q0 1 -0.5 1.5t-1.5 0.5h-4h-4t-6.5 -1t-10.5 -3t-9.5 -3.5t-4.5 -2.5q-1 -4 -2 -11t-3 -13.5t-6 -11t-11 -5.5h-7.5
t-6.5 1t-5.5 2.5t-4.5 4.5q-8 14 -13 28.5t-7 30t-2.5 31t-0.5 31.5v3v6v6v4q2 4 7 4q1 0 2 -1.5t1.5 -3t0.5 -3.5v-3q0 -6 -0.5 -12.5t-0.5 -13.5v-5v-5t0.5 -8.5t0.5 -8.5v-6q1 -1 2 -1h2q3 0 5.5 3t4 7.5t2 9t1.5 6.5q0 1 0.5 3t0.5 4.5v4.5v3h2h2q4 0 5.5 -2.5t1.5 -6.5
q0 -6 -2 -12t-4 -11.5t-5 -11t-6 -9.5l-1 -1l-2 -2t-2.5 -2t-1.5 -2v-2q0 -4 2.5 -8t4.5 -7h1q3 0 6 3t5 8.5l4 11t3.5 10.5t3 8t3.5 3q3 -1 3.5 -3t0.5 -4q0 -5 -1.5 -10.5t-4 -11.5t-5.5 -11t-6 -9q-1 -2 -3 -3.5t-3.5 -3t-2.5 -3.5t-1 -4q0 -4 2 -6.5t5 -4t6.5 -2
t6.5 -0.5h3h2l3 4q0 1 0.5 3.5l1 5t1 5.5t0.5 4l1 2t2 5t1.5 5l0.5 2q1 4 1.5 9.5t0.5 10.5v11v9q0 13 -1 21t-4 14.5t-7.5 13.5t-10.5 17q-3 5 -4 9.5t-3 9.5v14z" />
</svg>
