<?xml version="1.0" standalone="no"?>
<!DOCTYPE svg PUBLIC "-//W3C//DTD SVG 1.1//EN" "http://www.w3.org/Graphics/SVG/1.1/DTD/svg11.dtd" >
<svg xmlns="http://www.w3.org/2000/svg" xmlns:xlink="http://www.w3.org/1999/xlink" version="1.1" viewBox="-10 0 266 256">
   <path fill="currentColor"
d="M127 249q1 2 2.5 2h2.5q3 0 5.5 -2t2.5 -5q0 -6 -2 -12.5t-2 -13.5t0.5 -12.5t1.5 -13.5q2 -3 4.5 -5.5t5.5 -4.5t6 -4.5t5 -4.5q5 -5 8.5 -10t6.5 -11q0 -1 1.5 -2.5t1.5 -2.5l3 -28q-2 -8 -4 -14.5t-5 -11.5t-8.5 -9.5t-14.5 -6.5h-3q-9 0 -19 2.5t-18 6.5
q-11 11 -16.5 22.5t-5.5 27.5q0 4 1.5 12.5t4.5 17.5t8 15.5t11 6.5q2 0 4 -1t2 -3v0v-1q-5 -5 -9 -11t-6.5 -12t-4.5 -12.5t-2 -13.5v-4v-4q1 -1 2 -1h2q5 0 10 4.5t8.5 10.5t6.5 11t5 5t3.5 -1.5t1.5 -3.5v-1q0 -1 -1 -1q0 -1 -1 -3t-1.5 -2.5t-1 -3.5l-0.5 -3
q-2 -3 -7 -6.5t-10 -7.5t-8.5 -7.5t-3.5 -5.5t0.5 -4.5t2 -4.5t3 -3.5t3.5 -1.5q5 0 11 4.5t11.5 10.5t9.5 12.5t6 10.5q0 1 1.5 1h2.5q3 0 3.5 -1t0.5 -3q0 -10 -6 -17t-12.5 -11.5t-12.5 -7t-6 -5.5l0.5 -1t1.5 -1t3.5 -0.5t6 -1t6 -1.5t4.5 -1v0q10 0 15.5 4t8.5 10
t4.5 13.5t1.5 14.5q0 10 -3.5 18.5t-9.5 16t-13 14t-14 12.5q-3 6 -4.5 13t-1.5 13q0 10 2 18.5t1 17.5zM144 27q0 2 0.5 5.5t1.5 9t3 11t4 10t4 8t4 3.5q6 0 6 -6q0 -4 -2.5 -8.5t-5 -8.5t-4.5 -8t-2 -9v-3.5v-3.5q2 -3 5 -4t6 -1q5 0 8 3.5t5 8.5t4 10.5t5 10.5t6.5 8
t8.5 3q1 0 3 -1t2 -3v0v0q-2 -4 -6 -8.5t-8 -10t-7 -10t-3 -8.5v-3t1 -2h17l1 -1.5t2 -2.5v0v-0.5v-0.5l-0.5 -1.5t-1.5 -1.5h-3h-3h-4t-10 1t-12.5 2t-12 2.5t-9 4t-3.5 5.5zM97 70v1l0.5 0.5t1.5 0.5v0v0q6 0 10 -5.5t7 -13t4.5 -15t2.5 -11.5v-2q0 -5 -1.5 -8t-6.5 -4
h-17h-18q-1 0 -5 0.5t-7.5 1.5t-6.5 2t-3 2v1l0.5 1l0.5 1q1 0 3.5 0.5l2.5 0.5q5 0 8.5 -0.5t8.5 -1.5l0.5 0.5l0.5 0.5q0 4 -1.5 8t-4.5 8t-6 7l-6 6q0 1 -2 3t-4 4.5t-4.5 4.5t-2.5 3q0 2 1 3.5t3 1.5t2.5 -0.5t2.5 -1.5q1 -1 4 -2.5l3 -1.5l26 -41q2 -3 4.5 -3.5
t5.5 -0.5q4 0 7 1.5t3 5.5q0 5 -2 10.5t-4.5 11t-5.5 11t-5 9.5v1z" />
</svg>
