<?xml version="1.0" standalone="no"?>
<!DOCTYPE svg PUBLIC "-//W3C//DTD SVG 1.1//EN" "http://www.w3.org/Graphics/SVG/1.1/DTD/svg11.dtd" >
<svg xmlns="http://www.w3.org/2000/svg" xmlns:xlink="http://www.w3.org/1999/xlink" version="1.1" viewBox="-10 0 266 256">
   <path fill="currentColor"
d="M82 210q1 1 2 4.5t1.5 8t1.5 9.5t2 9.5t2.5 7t4.5 2.5t4 -1t2 -3q0 -3 -1 -6.5t-1.5 -7.5t-2 -7.5t-2.5 -6.5q-1 -8 -1.5 -15.5t-0.5 -14.5q0 -5 1.5 -9t3.5 -8t4.5 -8t4.5 -9q5 -11 6.5 -25t1.5 -27l-0.5 -1.5t-0.5 -3t-0.5 -3l-0.5 -1.5q0 -7 0.5 -17.5t-1 -21
t-6.5 -17.5t-17 -7q-15 0 -22.5 5t-10.5 13.5t-3 19.5q0 10 -1 22v8t-0.5 13.5t-0.5 13.5v8v4t0.5 6.5t0.5 6v3.5v14l2.5 2.5t2.5 0.5q3 0 4.5 -2t1.5 -5q0 -6 -0.5 -12.5t-0.5 -12.5v-14q-1 -3 0.5 -3.5t3.5 -0.5q5 0 7.5 3.5t5 7.5t5 7.5t8.5 3.5q0 -9 -5 -15.5
t-10.5 -11.5t-10 -9t-4.5 -8v-2v-3.5t0.5 -5t0.5 -5v-3.5l1.5 -0.5l1.5 -0.5q1 0 1 -0.5v-0.5q4 0 7.5 3.5t6.5 7.5t6 7.5t5 3.5t4 -1t2 -3q0 -5 -4 -9.5t-9 -9t-10 -8.5t-9 -7v-3q0 -7 6 -12t13 -5t11 4.5t6 10.5v40q0 1 0.5 2t0.5 2.5t0.5 3l0.5 1.5v3v2l-1 3l-1 3v28
q-9 14 -17 31q1 2 0 5t-3 4v25zM171 207q0 4 2 11.5t5.5 14.5t8 12.5t9.5 5.5q2 0 3.5 -1t1.5 -3q0 -5 -3.5 -9t-7 -9t-7 -11t-3.5 -14q0 -4 2 -7.5t4.5 -6.5t5 -6.5t4.5 -6.5q5 -9 8.5 -21t3.5 -23q0 -15 -1 -30t-3 -30q-1 -5 -3.5 -10.5t-5.5 -8.5q-3 -2 -6.5 -3t-6.5 -3
q-4 -2 -8.5 -2t-7.5 -3v-4q0 -4 1 -7.5t1 -7.5q0 -2 -0.5 -4t-1.5 -4t-2.5 -3.5t-4.5 -1.5q-2 0 -3 0.5t-2 2.5v3v2q0 5 1 9.5t1 9.5q0 6 -6 9t-13 6t-13 6.5t-6 10.5v0.5v0.5l0.5 0.5t0.5 1.5q1 0 2 0.5t2 0.5q5 -1 9.5 -4.5t9 -8t9.5 -7.5t11 -3q13 0 20 7.5t10.5 19
t4 23.5t0.5 20v16t-1 17q0 1 -1.5 3.5l-1.5 2.5q0 1 -1.5 4.5l-1.5 3.5q-3 5 -6.5 9.5t-6 9t-4.5 9.5t-2 11zM118 231q0 2 1 4t4 2q4 0 6 -4.5t3 -11l2 -13t2 -9.5q4 -7 7 -13.5t7 -13.5t8.5 -12.5t10.5 -10.5q3 -1 5.5 -2t5.5 -2.5t5 -3.5t2 -5l-1.5 -1.5t-1.5 -2.5h-1h-1
q0 1 -1.5 1.5l-1.5 0.5q-1 0 -2.5 1.5t-3 2.5t-2.5 1.5t-2 0.5q-19 15 -31 35t-17 44q0 3 -1.5 6t-1.5 6zM182 100q0 -1 -0.5 -2t-1.5 -1h-7q-1 0 -3.5 1.5t-5.5 3.5t-6.5 4t-5.5 3q0 1 -2.5 3t-4.5 4.5t-4 4.5t-3 2q-2 3 -5.5 5.5t-6.5 5t-5 5.5t-2 7q4 0 7 -1t5.5 -3t5 -5
t4.5 -6q2 -1 5.5 -4t8 -6t9.5 -6.5t9 -6.5t6.5 -5t2.5 -3zM124 98v1q1 0 2.5 0.5t2.5 0.5h1h1l1 -0.5t2 -0.5q9 -7 18.5 -12t20.5 -11q3 -2 4 -4t1 -6q-7 0 -14.5 3t-15 7.5t-13.5 10t-11 10.5v1v0z" />
</svg>
