<?xml version="1.0" standalone="no"?>
<!DOCTYPE svg PUBLIC "-//W3C//DTD SVG 1.1//EN" "http://www.w3.org/Graphics/SVG/1.1/DTD/svg11.dtd" >
<svg xmlns="http://www.w3.org/2000/svg" xmlns:xlink="http://www.w3.org/1999/xlink" version="1.1" viewBox="-10 0 266 256">
   <path fill="currentColor"
d="M77 213v5v6v5v3v4t1 6t2 5t4 2q4 0 5 -2.5t1 -5.5q0 -10 -2 -19.5t-2 -19.5q0 -8 2.5 -14t6 -11.5t7.5 -10.5t8 -11q6 -11 7 -25t1 -26v-12.5t-0.5 -10.5t-1 -11t-1.5 -13q-2 -1 -2 -2v-1.5t0.5 -1.5t-0.5 -3q-2 -9 -7 -14t-15 -5q-9 0 -14.5 4.5t-9.5 11.5t-6.5 15
t-3.5 15q-2 6 -3.5 11.5t-1.5 11.5v59q0 3 1 5.5t4 2.5q2 0 3.5 -1t2.5 -2v-7q0 -4 -1 -8.5t-1 -8.5v-3q0 -2 0.5 -5.5t0.5 -7t0.5 -7t0.5 -5.5l0.5 -0.5l0.5 -0.5h1h1q3 3 6.5 6t4.5 7q0 1 1 3.5t2 6t2 6t1 3.5q1 1 2 1.5l1 0.5q3 0 4 -2t1 -5q0 -4 -1.5 -8.5t-4 -9
t-5 -8.5t-5.5 -7q-2 -3 -4 -4.5t-3.5 -2.5t-2.5 -2.5t-1 -4.5q0 -2 0.5 -5l1 -6t1.5 -5.5t3 -2.5h1h1l2 2l2.5 2.5t3 2.5l1.5 1q2 2 4.5 5.5t4.5 7t4 6t4 2.5t2.5 -1.5t0.5 -3.5q0 -5 -3 -10.5t-7 -11t-9 -9.5t-8 -7l-0.5 -0.5t-0.5 -1.5q0 -3 2 -6t5 -5t6 -3.5t6 -1.5
q4 0 7 4t5 11t3 14.5t2 14.5t1 13v8v10.5t-1 11l-2 11t-3 10.5q-4 8 -7.5 13t-6.5 9.5t-5.5 8t-4 8.5t-2.5 11.5t-1 15.5zM133 155v19q1 2 1 6.5t1.5 8.5t4 6.5t6.5 2.5h27q7 0 11 -5.5t6 -12.5t2 -14.5v-11.5v-2q0 -1 -0.5 -3.5t-0.5 -5t-0.5 -4.5t-0.5 -3q-2 -2 -5 -2
t-6 3v6v8v8v5v5t-0.5 6t-0.5 5v2l-3 3l-22 4q-2 0 -4 -1t-3 -3q0 -1 -1 -4t-1.5 -6.5l-1 -7t-1.5 -4.5v-1q0 -3 1 -7t1 -8v-3q0 -3 -0.5 -5t-2 -3.5t-3.5 -1.5h-2t-2 2v19zM123 128q6 0 10 -3.5t8 -6.5q3 -2 7 -5t7 -5t4 -3h5l2 1.5t4.5 3t5.5 3.5t5 4q2 1 4 3l4 4t4.5 3.5
t4.5 1.5t3.5 -1.5t1.5 -3.5q0 -6 -6 -10t-13 -7.5t-13 -7.5t-6 -9v-6t0.5 -8t2 -7.5t3.5 -3.5h1l2 1.5l2 1.5q1 1 3.5 3t5 4.5l4.5 4.5l3 3q1 0 2.5 0.5t2.5 0.5l2 -0.5l2 -0.5q0 -1 0.5 -2.5l0.5 -1.5q0 -5 -5.5 -9.5t-12 -8.5t-12 -7.5t-5.5 -6.5q0 -5 1.5 -9.5t1.5 -10.5
q0 -2 -0.5 -4.5t-1.5 -5.5t-2.5 -5t-4.5 -2q-1 0 -2.5 2t-1.5 3v34l-2 2.5t-5 5.5t-6.5 6t-5.5 5q-1 2 -3.5 3t-4.5 3l-3.5 3.5t-1.5 4.5q0 2 1.5 2h3.5h2.5t2.5 -1l3.5 -3.5l5 -5t4.5 -5t3 -2.5q0 -1 1 -1h1q2 0 3 0.5t1 3.5v27q0 1 -3 3t-7 4.5t-7.5 4.5t-4.5 2l-3 3
t-4.5 3.5t-3.5 2.5l-1 1v7z" />
</svg>
