<?xml version="1.0" standalone="no"?>
<!DOCTYPE svg PUBLIC "-//W3C//DTD SVG 1.1//EN" "http://www.w3.org/Graphics/SVG/1.1/DTD/svg11.dtd" >
<svg xmlns="http://www.w3.org/2000/svg" xmlns:xlink="http://www.w3.org/1999/xlink" version="1.1" viewBox="-10 0 266 256">
   <path fill="currentColor"
d="M82 197q0 4 0.5 12.5t2.5 17t4.5 15.5t5.5 9h2v0q1 -1 2 -1.5l1 -0.5v-6q0 -6 -1 -12l-2 -12l-2 -12t-1 -12v-7.5v-5.5l16 -31l0.5 -2t0.5 -4q0 -3 1 -8.5t1.5 -12t1 -11.5t0.5 -7l0.5 -3t0.5 -4q0 -11 -0.5 -20t-1.5 -21q-1 -4 -2 -7.5t-2.5 -6.5t-4 -6t-6.5 -4
q-1 -1 -5 -1h-5h-2h-4t-4 0.5t-3 1.5l-13 13l-0.5 2t-1 2.5t-1.5 3l-1 2.5q-2 8 -3 15t-4 15v12q0 3 0.5 9.5t1 14t1.5 16t2.5 15t3.5 11t6 4.5q3 0 3.5 -1.5t0.5 -4.5q0 -6 -1 -11.5l-2 -11l-2 -11t-1 -10.5v-6l0.5 -0.5t0.5 -1.5h1q5 0 8 4.5t4.5 9.5t3.5 9t6 4q2 0 3 -1
t1 -3q0 -8 -4.5 -14t-10 -11t-9.5 -8.5t-4 -5.5v-4.5t0.5 -7t2 -6.5t3.5 -3q4 0 8 4t7 8t5.5 8t5.5 4q1 0 2 -0.5t1 -2.5t-1.5 -5.5t-4 -7.5t-5 -7t-3.5 -4t-3.5 -2t-5 -2.5t-4.5 -3.5t-2 -4q0 -4 2 -7t5 -6t6.5 -4.5t6.5 -1.5t4.5 1t3.5 4q3 8 5 17t2 18v1v2t-0.5 4.5
t-0.5 4.5v3q-1 12 -0.5 22t-2.5 21q-3 8 -6 15t-6.5 13.5t-5.5 14t-2 15.5zM166 124q0 27 5.5 52.5t14.5 50.5q1 2 1.5 4.5t1.5 5.5t2.5 5.5t4.5 2.5q2 0 4 -0.5t2 -4.5v-3t-1 -2.5t-1.5 -3t-2.5 -4.5q-4 -10 -8 -21t-7 -22q-1 -4 -1.5 -8.5t-0.5 -9t-1 -9t-3 -7.5v-2v-4v-4
v-2q0 -3 -0.5 -7.5t0 -9.5t2.5 -9t7 -4q2 0 4 3.5t2 5.5t0.5 5.5t0.5 7t0.5 7.5t0.5 5v28q0 1 1 3t3 2q1 0 2 -1t2 -2.5t1.5 -2.5t0.5 -2q1 -1 1 -3v-4v-4v-3q0 -12 -1 -23.5t-4 -23.5l-1 -2t-2 -2h-22q-1 0 -2.5 3t-2.5 7t-2 7.5t-1 4.5zM150 124q0 27 -7 53.5t-17 51.5
q-1 4 -3 6.5t-2 7.5q6 0 11 -5.5t9 -15t7 -20.5t5 -21t3 -17.5t1 -10.5v-2v-6v-6v-5v-3v-6v-5v-4q0 -5 -2 -9.5t-8 -4.5q-8 0 -11.5 2t-5 6t-2.5 9t-3 11q-1 0 -1.5 2l-0.5 2q0 7 -0.5 13.5t-0.5 12.5q0 3 1 6t4 3q1 0 2.5 -0.5t1.5 -1.5t0.5 -4t0.5 -6.5t0.5 -6.5t0.5 -5
v-8q0 -5 0.5 -11t2.5 -10.5t6 -4.5q2 0 3.5 1.5t2.5 3.5t1.5 4.5t0.5 3.5zM140 68l-3.5 3.5t-4.5 5.5l-4 6t-2 7q9 0 14 -6.5t8.5 -15t4.5 -17.5t1 -15v-5t-0.5 -5.5t-2 -4t-5.5 -1.5q-3 0 -3.5 1.5t-0.5 4.5q0 5 1 10.5t1 11.5q0 5 -1.5 9.5t-2.5 10.5zM171 60q1 2 2 5.5
t2.5 6.5t4 5.5t5.5 2.5q2 0 2 -2v-2q0 -6 -1.5 -11.5t-3.5 -10.5v-39q0 -1 -2.5 -1.5t-3.5 -0.5q-2 0 -3 1.5t-1.5 3t-0.5 4.5v4v17v17z" />
</svg>
