<?xml version="1.0" standalone="no"?>
<!DOCTYPE svg PUBLIC "-//W3C//DTD SVG 1.1//EN" "http://www.w3.org/Graphics/SVG/1.1/DTD/svg11.dtd" >
<svg xmlns="http://www.w3.org/2000/svg" xmlns:xlink="http://www.w3.org/1999/xlink" version="1.1" viewBox="-10 0 266 256">
   <path fill="currentColor"
d="M147 247q0 3 3 3t6.5 -4.5t6 -12t5 -16t4 -16.5t2.5 -15t1 -10q0 -7 -2.5 -13.5t-5.5 -13t-5.5 -12.5t-2.5 -13q0 -3 0.5 -6.5t1.5 -7.5t3.5 -6.5t5.5 -2.5q4 0 7.5 1.5l7 3l7 3t6.5 1.5q2 0 4.5 -1t2.5 -3q0 -3 -1.5 -4t-3.5 -1.5t-4 -0.5t-4 -1q-11 -2 -17.5 -7.5
t-10 -13.5t-4.5 -17t-1 -20v-3v-4v-4v-3q2 -2 2 -3.5v-4.5v-1.5t-0.5 -3t-1 -2.5t-1.5 -1q-2 0 -3 1.5t-2 3.5t-1 4v3v3q0 2 -0.5 4.5t-0.5 4.5v3q0 9 1 20.5t3 20.5q0 3 1.5 4.5t2 3t1.5 3t1 4.5q0 4 -1.5 7l-3 6t-3 6.5t-1.5 7.5q-1 3 0 8t2 10.5t3.5 10t5.5 6.5v3.5
t0.5 5l1 5t1.5 3.5q0 1 0.5 2.5t0.5 2.5q0 7 -1.5 16t-2.5 17l-3.5 7l-5.5 11t-5 11t-2 7zM78 217q0 3 1 8t2.5 10.5t4 9t5.5 3.5l1 -0.5l1 -0.5q1 -1 1 -3v-4q0 -8 -2.5 -16t-2.5 -17q0 -7 2.5 -12.5t6 -11t7.5 -10.5t7 -11q4 -8 6.5 -16t3.5 -17t1.5 -18t0.5 -17t-0.5 -19
t-3.5 -20.5t-9.5 -16t-18.5 -6.5q-9 0 -15.5 4t-10.5 11t-6.5 16t-3.5 17.5t-1.5 17t-1.5 14.5v4v5v8.5t0.5 11.5t2 11t3 8.5t4.5 3.5h1q2 -3 2 -7v-7q0 -8 -1 -15t-1 -14v-9.5t2 -9.5h0.5h1.5q4 0 7 3.5t5.5 8.5t4 10t1.5 8q0 2 0.5 5t0.5 6.5t0.5 6.5t0.5 4l0.5 1l0.5 1h1
q3 0 4 -3t1 -6v-1v-1v-4t-0.5 -6.5t-0.5 -6t-1 -3.5q-2 -5 -3 -10t-4 -9q-2 -3 -5.5 -5.5l-7 -5t-6 -5.5t-2.5 -7q0 -1 0.5 -3.5t1 -4.5t1.5 -4t3 -2q7 0 13 6t11 12.5t8 12.5t4 6q2 0 3 -2t1 -3t-1.5 -4.5t-3.5 -7t-3.5 -7t-2.5 -5.5q-2 -2 -6 -5t-9 -6t-8.5 -5.5
t-3.5 -4.5q0 -4 2.5 -7t6 -4.5t7.5 -2.5t7 -1q4 0 7 2.5t5.5 6.5t4 8.5t1.5 7.5v4.5t0.5 7.5t0.5 8v7v2v1q0 1 -0.5 2.5t-0.5 2.5q0 4 1 8l2 8v0q0 14 -5.5 26.5t-11.5 23.5q-3 4 -6 7.5l-6 7t-5.5 7.5t-2.5 9q-1 2 -1 4.5t-0.5 5.5t-0.5 5.5v3.5zM115 244q0 3 4 3t7 -3.5
t5 -8.5l4 -10t2 -8q1 -3 2.5 -9l3 -12t3 -11t1.5 -6v-1v-4v-4v-3v-3v-3.5v-3.5v-3q-1 -2 -2.5 -6.5t-3 -10t-2 -10t-0.5 -6.5q1 -5 2 -9l2 -8t1.5 -8t0.5 -9q0 -8 -1.5 -15.5t-3.5 -15t-3.5 -15t-2.5 -15.5q0 -2 -1.5 -2h-2.5q-2 0 -3 1t-1 3v4v3q0 7 2 13t4.5 12.5
t4.5 12.5t2 13q0 5 -1 10.5t-2 11.5t-2 11.5t-1 10.5q0 6 1 11t2.5 10l3 10t1.5 12q0 5 -2.5 10.5t-4.5 10.5q-2 7 -3 14.5t-5 14.5l-2.5 5t-3.5 6t-3.5 5.5t-1.5 4.5zM178 241q0 2 0.5 3.5t2.5 1.5q3 0 4.5 -1.5t3 -4t2.5 -5t1 -4.5q1 -3 2.5 -9t2.5 -11.5t2 -9.5l1 -4v-3
v-5v-6v-4v-4v-5.5v-5v-3.5q-1 -5 -3 -9t-3.5 -7.5t-3 -7.5t-1.5 -8q1 0 4 0.5t5 0.5q3 0 5 -1t2 -4t-2.5 -3.5t-5.5 -0.5h-6.5t-6 1t-4.5 3.5t-2 6.5t1.5 7.5t3.5 7l4 7t3 7.5v3q0 2 0.5 4.5t0.5 4.5v3q0 11 -1 23t-4 23q-1 1 -2 4t-2.5 6t-2.5 5.5t-1 3.5zM175 46
q0 4 1 10.5t3.5 13t6 11t8.5 4.5h4t2 -3v-0.5v-1.5q-6 -6 -11.5 -14.5t-5.5 -17.5q0 -6 1.5 -11.5t1.5 -11.5q-4 0 -6 2t-3.5 5.5t-1.5 7v6.5z" />
</svg>
