<?xml version="1.0" standalone="no"?>
<!DOCTYPE svg PUBLIC "-//W3C//DTD SVG 1.1//EN" "http://www.w3.org/Graphics/SVG/1.1/DTD/svg11.dtd" >
<svg xmlns="http://www.w3.org/2000/svg" xmlns:xlink="http://www.w3.org/1999/xlink" version="1.1" viewBox="-10 0 266 256">
   <path fill="currentColor"
d="M179 149q5 23 8.5 46t7.5 46q1 2 2 5t4 3h1l2 -0.5l2 -0.5q0 -1 0.5 -2.5t0.5 -3.5v-3v-2v-8t-2 -8l-15 -74l-2 -6t-1 -6t1 -5t3 -4.5t3 -4.5t1 -5v-26l-0.5 -1t-1.5 -2t-2.5 -2l-1.5 -1q-4 -3 -8.5 -4t-9.5 -2t-10 -1h-9h-2q-1 0 -4 0.5t-5.5 0.5t-5 0.5l-2.5 0.5
q-1 0 -4 1t-3 3v1q1 0 1.5 0.5t0.5 1.5h7.5h11t11 0.5t7.5 0.5q1 0 3 0.5t4 0.5t4 0.5t3 0.5q3 2 5.5 6t2.5 7v4q0 3 -0.5 5.5t-2 4t-3.5 1.5t-3.5 -0.5t-2.5 -2t-2.5 -3l-2.5 -2.5q-6 -4 -14.5 -5.5t-15.5 -1.5h-5h-6.5t-6 1t-2.5 3v1q0 1 1.5 2t1.5 2q3 -1 11 -1
q7 0 15 1.5t14.5 4t6.5 8.5q0 1 -1.5 2.5t-3 2.5t-3 1.5t-2.5 0.5h-38q-1 0 -1.5 2t-0.5 3q0 2 2 3.5t4 1.5h32q1 -1 3 -1.5l4 -1t3.5 -1t2.5 0.5q1 0 2.5 1.5t2.5 3t2 3.5t1 3zM74 206q0 2 1 8.5t2.5 12.5t3.5 11t5 5t5 -2t2 -5v-2l-1 -2.5t-1.5 -5t-1.5 -4.5t-1 -3
q-2 -8 -3.5 -18.5t-1.5 -19.5q0 -7 2 -12.5l4 -11t5 -10.5t5 -11q5 -13 7 -25t2 -25v-7t-0.5 -13.5t-1.5 -16t-2.5 -16t-4 -12t-6.5 -4.5h-21l-1.5 1.5l-3 3l-3.5 3.5t-3 4q-3 3 -5.5 9t-4 12.5t-2 13t-1.5 11.5q0 2 0.5 6t0.5 8t-0.5 8t-1.5 7v6t0.5 8.5t0.5 8.5v5v4
q0 1 0.5 2.5t1.5 2.5t3 1l1.5 -0.5l1.5 -0.5l1.5 -1.5l0.5 -0.5v-40q0 -1 1 -2t2 -1q4 0 7 4t5.5 9.5t4 10.5t4.5 6q2 -2 3.5 -4t1.5 -5q0 -5 -3.5 -10t-7.5 -10t-9 -9t-8 -8v-4q0 -6 1 -10t2 -11q1 -1 2.5 -1h2.5h2l7.5 7.5t6.5 8.5q0 1 0.5 2t1.5 2t1 2t1 1q0 1 2.5 1.5
l2.5 0.5q0 -12 -4 -18t-8.5 -9.5t-8.5 -6t-4 -7.5q0 -3 2 -5.5t5.5 -4t6.5 -2.5t6 -1l1.5 0.5t2.5 1t2 1.5t1 2l4 37q1 2 1.5 4t0.5 4.5v5v3.5q0 2 -0.5 5.5t-0.5 4.5q0 2 -0.5 7t-2 11t-2.5 11t-1 7q-1 4 -4 7t-4 5q-4 6 -6 11t-3.5 11t-2 12t-0.5 13v4q0 2 0.5 4.5
t0.5 5.5v3zM109 174q0 2 1 3t5 1q1 0 4 -0.5l6 -1t6 -0.5h3h37q3 0 3.5 -1.5t0.5 -2.5q0 -2 -1.5 -4t-3.5 -2h-40q-4 2 -9 2t-9 -1q-2 2 -2.5 3.5t-0.5 3.5zM182 25q1 2 2 6.5t2 9.5t1.5 9.5t1.5 6.5q0 2 0.5 5t1.5 5.5t2.5 4.5t4.5 2q2 0 5.5 -1t3.5 -4q0 -5 -2.5 -10
t-5.5 -9.5t-5 -9.5t-2 -11q0 -1 0.5 -3.5t2.5 -2.5h13l1 -1.5t0 -2.5q0 -2 -2 -3.5t-4 -2l-4 -1t-3 -0.5h-1l-2 0.5t-3 0.5l-2 0.5l-4 1t-4.5 0.5h-3.5q-6 1 -15 0.5t-18 1.5t-15 6t-6 14v8t1 12t3.5 10.5t5.5 4.5h1l5 -5v-1q0 -3 -1 -7t-2 -8.5t-1.5 -8.5t-0.5 -7
q3 -4 7 -6t8 -2t6 3t2.5 7.5t0.5 10t0.5 10.5t2.5 8t6 3q2 0 3.5 -0.5t1.5 -2.5q0 -4 -1 -8l-2 -8l-2 -8t-1 -8v-4.5t1 -4.5q2 0 5.5 -0.5t4.5 -0.5l0.5 -0.5t1.5 -0.5t2 0.5t2 1.5z" />
</svg>
