<?xml version="1.0" standalone="no"?>
<!DOCTYPE svg PUBLIC "-//W3C//DTD SVG 1.1//EN" "http://www.w3.org/Graphics/SVG/1.1/DTD/svg11.dtd" >
<svg xmlns="http://www.w3.org/2000/svg" xmlns:xlink="http://www.w3.org/1999/xlink" version="1.1" viewBox="-10 0 266 256">
   <path fill="currentColor"
d="M132 225v1q0 1 0.5 3.5t0.5 5.5t0.5 5l0.5 2q0 3 0.5 6t4.5 3h1q2 -1 4 -2.5t2 -4.5l-1 -1v-3v-6.5t-0.5 -6t-0.5 -3.5v-2q0 -12 4.5 -18.5t10.5 -11.5t11.5 -9t7.5 -12v-11q0 -7 -1 -14.5t-4.5 -14t-9 -10.5t-13.5 -4q-15 0 -26.5 7.5t-19.5 20.5q-2 4 -2 8.5t-2 9.5v24
q0 3 1 5t3 2q3 0 5 -2v-7q0 -5 -1 -10t-1 -10q0 -3 1 -4.5t3 -1.5l1 0.5l1 0.5q1 0 2.5 1.5t3 2.5t3 2.5t1.5 2.5q1 0 3.5 3t4.5 5.5l4 5t4 2.5h1q0 -1 0.5 -3.5l0.5 -2.5v-1v-1l-0.5 -2l-0.5 -2q-1 -1 -3 -3.5t-4.5 -5l-4.5 -4.5l-3 -3t-2.5 -2t-3 -2.5l-3 -3t-1.5 -2.5
q0 -2 0.5 -4t2 -3.5l2.5 -2.5t3 -1q4 0 9 5.5t9.5 12t8.5 11.5t6 5l1 -1l2 -2v-1q0 -5 -3.5 -10t-8 -10t-8.5 -9t-5 -7l0.5 -1t0.5 -2q4 -2 7 -3t6 -1q6 0 10.5 3.5t7 9t3.5 11.5t1 11q0 3 -0.5 7t-1.5 8q-6 4 -12.5 10t-11.5 12.5t-8.5 14t-3.5 15.5zM53 236l1 0.5t2 0.5
q3 0 4.5 -2.5t2.5 -6t1.5 -7t0.5 -4.5v-12v-3t0.5 -4.5t0.5 -5v-3.5l1 -3.5l1 -3.5v-3v-5v-5v-4q0 -4 0.5 -11.5t1 -16.5t1 -18.5t0.5 -17t0.5 -13.5t0.5 -8q0 -1 0.5 -5.5t1 -10t1.5 -11t2 -8.5q0 -2 1.5 -6.5t3.5 -5.5q11 -3 24.5 -5.5t27.5 -3.5t27.5 -1.5t25.5 -0.5
q1 -1 3.5 -1.5t2.5 -2.5v-1q-1 0 -2 -1t-1 -2h-13q-4 0 -12.5 0.5t-19.5 1t-23 2t-22.5 3.5t-18.5 4t-10 5q-3 4 -4.5 8t-2.5 9t-1.5 10t-0.5 9q0 1 -0.5 5.5t-1 9.5l-1 10t-0.5 6v4v7v8v4q-1 13 -1.5 26.5t-1.5 26.5v4.5t-1 4.5q0 13 -1 24.5t-1 24.5v5zM193 138v33
q0 1 0.5 1.5l0.5 0.5h1q5 0 8 -4v-3.5v-3.5q0 -7 -1.5 -13t-1.5 -13q0 -2 -0.5 -7t-0.5 -11.5t-0.5 -13t-1.5 -12t-2.5 -9t-3.5 -3.5h-43l-0.5 -1.5t-0.5 -2.5v-5v-5q1 -2 4 -3t6 -1.5t5 -0.5h4h6.5t9.5 -0.5t10 -0.5h6q3 -2 3 -5q0 -2 -1.5 -3t-3.5 -1h-4t-4 1q-3 1 -10 2
t-15.5 1.5t-15.5 1.5t-10 1q-7 1 -14 1h-14t-14 1t-14 3q-1 0 -1.5 1.5t-1.5 2.5h12q11 0 21.5 -1.5t21.5 -1.5q1 0 2 1t1.5 2.5t0.5 2.5v3q0 5 -1 9t-1 9q0 1 1 1.5t1 1.5v1q-1 1 -2 2.5l-1 1.5l-2 2h-7q-8 0 -12.5 -2t-6.5 -5t-2.5 -6.5t-1 -6.5t-2 -4.5t-5.5 -1.5v8
q0 4 0.5 8.5t2 9t5.5 6.5h20q12 0 24 -1t23 -1q1 0 2 -1l2 -2v0v-1l-1.5 -1.5l-0.5 -0.5h-24l-0.5 -2t-0.5 -4.5t0.5 -4.5t3.5 -2h30q1 0 2 1t2 2.5t1 3t1 2.5q0 2 0.5 7.5l1 11t1.5 11t1 7.5l0.5 2.5t1.5 3.5zM103 45q0 3 3 3h5q7 0 13.5 -1t13.5 -2q3 0 9 -0.5t13 -1
t13.5 -1t8.5 -0.5q2 1 2.5 -0.5l1 -3t0.5 -3v-1.5q-20 0 -40.5 2.5t-41.5 5.5q-1 1 -1 1.5v1.5z" />
</svg>
