<?xml version="1.0" standalone="no"?>
<!DOCTYPE svg PUBLIC "-//W3C//DTD SVG 1.1//EN" "http://www.w3.org/Graphics/SVG/1.1/DTD/svg11.dtd" >
<svg xmlns="http://www.w3.org/2000/svg" xmlns:xlink="http://www.w3.org/1999/xlink" version="1.1" viewBox="-10 0 266 256">
   <path fill="currentColor"
d="M149 245q0 2 1 4t4 2q2 0 4.5 -0.5t3.5 -3.5q0 -10 1 -16t3.5 -10.5t7 -9.5t13.5 -12q2 -2 4 -5t5 -5v-42q0 -1 -1 -3t-2 -4.5t-2.5 -4.5t-2.5 -3l-2.5 -2.5l-3 -3l-2.5 -2.5l-1 -1h-25q-3 0 -6.5 2.5t-4.5 3.5t-3 2.5t-4 4t-4 4.5l-3 3q-4 10 -5 20.5t-1 21.5v11t1 11h3
q3 0 5 -2.5t2 -4.5q0 -5 -1 -10t-1 -10v-10q3 2 6.5 6.5l7 9t6 7.5t4.5 3q3 0 3.5 -1t0.5 -3q0 -5 -2.5 -9.5t-6.5 -9t-8 -8t-6 -6.5l-0.5 -1.5l-0.5 -1.5q0 -1 0.5 -3l1 -4t1.5 -3.5t2 -1.5q5 0 10 6t9 13t7 12.5t5 5.5t3.5 -1.5t1.5 -3.5q0 -5 -4.5 -12t-9.5 -12.5
t-9.5 -10l-4.5 -4.5q0 -3 2 -4l4 -2t5 -1h4q7 0 11.5 3t7 7t3.5 9.5t1 10.5q0 6 -0.5 10.5t-1.5 9t-3 8.5t-6 8l-11 11t-8.5 10.5t-5.5 12t-2 15.5zM100 239q0 1 1.5 2.5l2.5 2.5q3 1 4.5 -1.5t1.5 -4.5v-34q-1 -2 -1 -3.5v-3.5v-50t1 -50q1 -17 3 -34.5t2 -33.5v-14
q1 -2 -1 -2.5t-3 -0.5q-3 0 -4.5 2t-2.5 5v5.5v9.5v9v6q0 1 -0.5 4.5t-0.5 7.5v7v4q-1 5 -0.5 9t-1.5 8q1 26 -0.5 52.5t-1.5 52.5v9q0 7 0.5 14t0.5 13v9zM50 235l1 1l2 2h1v0v0q3 -2 5.5 -5.5t2.5 -6.5v-1v-5t-0.5 -9.5t-0.5 -11.5v-11v-9.5v-5.5v-3q0 -30 2 -60.5
t4 -60.5q0 -2 0.5 -4l1 -4t2 -3t4.5 -1h3t1 1q1 4 1 6t0.5 4.5t0.5 4.5v5q0 11 -2 21.5t-3 21.5q-1 20 -1.5 40t-0.5 39v7.5v12.5q0 6 0.5 11.5t0.5 7.5q2 2 1.5 5t-0.5 6t1 5.5t5 2.5q2 0 3 -1.5t1.5 -3t0.5 -3.5v-3q0 -16 -1 -32t-1 -33t0.5 -34.5t1.5 -35.5
q1 -14 3 -27.5t2 -27.5q0 -5 -5 -8t-12 -4t-15 -1h-11q-2 0 -2 5q0 2 1.5 3.5t3.5 2.5t4 3.5t2 6.5q0 14 -1.5 28t-3 28.5t-2.5 28.5t-1 28v1q0 1 0.5 3l0.5 2v9.5t-0.5 14t-0.5 14.5v10v11v12zM181 104q4 0 7.5 5t6 11.5t4.5 11.5t4 5q4 0 4.5 -3.5t0.5 -6.5q0 -5 -2.5 -10
t-6 -9t-6 -7.5t-2.5 -5.5l0.5 -1.5l1 -3l1 -3l0.5 -1.5l0.5 -3t0.5 -5q0 -1 -0.5 -3.5t-0.5 -3.5q-1 -4 -4.5 -6t-7 -3t-7 -1t-7 -1t-5.5 -2.5t-2 -5.5q0 -1 0.5 -3t1 -3.5t1.5 -2.5t2 -1h30q1 0 1.5 -2.5l0.5 -2.5q0 -1 -0.5 -2.5t-1.5 -2.5h-20h-3t-3.5 -0.5t-2.5 -0.5h-1
v-14q0 -2 -2.5 -2.5t-3.5 -0.5q-2 0 -3 1t-2 3t-2 3.5t-1 2.5v27l-0.5 1t-0.5 2q-1 1 -2 3l-1 2h-22q-1 0 -1.5 1.5t-0.5 2.5q0 2 3 3t7.5 1.5t8.5 0t6 -0.5q3 0 7.5 0.5t8 1t6.5 0.5h3l9 5v12l-0.5 0.5l-0.5 0.5l-0.5 0.5l-0.5 0.5l-0.5 -0.5l-0.5 -0.5q-3 -1 -7 -3.5
t-8 -2.5h-39q-2 0 -2.5 2t-0.5 4v2t1 1h7h11h11h7l1.5 0.5t3 0.5t3.5 0.5t3 0.5q2 0 5 0.5t3 1.5v3l-2.5 0.5t-5.5 1.5t-6.5 1.5t-6.5 0.5q-1 0 -5.5 0.5t-9.5 1.5t-9.5 1h-6.5q-1 1 -2 2.5t-1 2.5t1.5 3t2.5 2q13 0 25.5 -3.5t25.5 -6.5h1h1z" />
</svg>
