<?xml version="1.0" standalone="no"?>
<!DOCTYPE svg PUBLIC "-//W3C//DTD SVG 1.1//EN" "http://www.w3.org/Graphics/SVG/1.1/DTD/svg11.dtd" >
<svg xmlns="http://www.w3.org/2000/svg" xmlns:xlink="http://www.w3.org/1999/xlink" version="1.1" viewBox="-10 0 266 256">
   <path fill="currentColor"
d="M134 242q0 3 3.5 5t5.5 2q3 0 5.5 -2.5t2.5 -4.5q0 -3 -1 -5.5t-1 -5.5v-2l1 -1.5t1.5 -3.5t1.5 -3.5t1 -2.5q5 -2 9.5 -5.5t9.5 -5.5t8.5 -3.5t5.5 -4t4 -6t3 -8.5v-2.5v-3.5q0 -3 0.5 -4.5t0.5 -2.5q0 -6 -0.5 -10t-2 -8t-3 -7.5t-4.5 -9.5q-2 -2 -4 -3t-4 -1.5
t-4.5 -1t-4.5 -0.5q-5 -2 -8.5 -3.5t-9.5 -1.5q-7 0 -15.5 3t-15.5 8t-13 11t-8 13q-3 6 -4.5 13t-4.5 12q-1 4 -3.5 7t-2.5 7q0 2 2 3t3 1q6 0 8 -4t3 -9t2 -8.5t5 -3.5q7 0 10 4t4 9.5t2 10t4 4.5q5 0 7 -3.5t2 -7.5q0 -5 -2 -10t-5.5 -9t-7.5 -7.5t-8 -6.5v-3
q0 -4 1.5 -8t4.5 -4q2 0 7 1.5t10 4t9 5.5t5 5l3 24q1 2 3.5 3.5t3.5 1.5q2 0 3 -1.5t1.5 -3t0.5 -3.5v-3q0 -6 -1.5 -14t-5.5 -14q-1 0 -3.5 -1t-5.5 -2.5t-5.5 -3t-3.5 -2.5q-2 -2 -3.5 -3t-1.5 -3t1.5 -3.5t4 -1.5h4.5h3q11 0 18 3.5t11 9.5t5.5 14.5t1.5 18.5v0
q0 1 -1 2l-2.5 2.5t-2 3.5t-1.5 2l-0.5 1l-1 2l-1 2l-0.5 1l-0.5 0.5l-0.5 0.5q-7 4 -12 6.5t-11 6.5q0 1 -2.5 1.5l-2.5 0.5q-2 2 -3.5 6t-2.5 7.5t-2 7.5t-1 8l-0.5 0.5zM52 226q0 4 2.5 7t5.5 3q10 0 10 -10q0 -14 -1.5 -28t-1.5 -28q0 -5 1 -8.5t1 -7.5t-1 -7.5t-1 -7.5
q0 -11 1 -22t2 -21v-12q0 -6 0.5 -11l1 -10t3.5 -10q3 -1 7.5 -3t6.5 -4q10 -1 21.5 -3t22.5 -2q4 0 7.5 0.5t8.5 1.5h53q3 0 3.5 -2t0.5 -3t-0.5 -3.5t-1.5 -2.5h-60q-2 0 -2 -2v-3q0 -3 1 -6t1 -6q0 -2 -1 -2.5l-2 -1t-2 -0.5h-3h-4t-4 2q0 3 0.5 6.5t0 6.5t-2.5 5t-6 2
q-7 1 -16 1.5t-17.5 2t-16 4.5t-11.5 10q0 21 -0.5 42t-2 42t-2 41.5t-0.5 41.5q0 1 -1 3.5t-1 3.5v1zM83 134q0 3 3 3q2 0 3 -1l2.5 -2.5t2 -3t0.5 -2.5l4 -61q0 -3 2 -3h4q4 0 5.5 3t2 7.5t0 9t0.5 7.5v1v2q0 3 -0.5 7l-1 8l-1 8t-0.5 7v1q0 2 1.5 3t2.5 1q3 0 5 -3t2 -5
q1 -7 1 -13t0.5 -10.5t0.5 -10.5v-11v-15q-1 -2 -4 -3t-6.5 -1.5t-6.5 -0.5h-4h-1h-1h-4t-6.5 0.5t-6.5 0.5h-4v1v0v0.5v0.5q2 2 3 2.5t2 1.5t2 1.5t3 2.5v1.5v3.5v3v2v3v4v2.5v1.5l-0.5 1.5l-1 3t-1.5 3l-1 1.5v5v7v8v4v2.5t-0.5 3.5t-0.5 3.5v1.5v2zM193 118q-1 4 -0.5 9
t1.5 8l1 1h2q2 0 3.5 -2t2.5 -4t1 -4.5v-4.5q0 -4 -1.5 -8l-3 -8t-2.5 -8t-1 -8q0 -2 1 -4.5t2 -4.5t2 -4.5t1 -5.5q0 -7 -3 -10.5t-8 -5t-11 -1.5h-12h-3q-2 0 -5 -0.5t-6 -0.5h-5h-4t-4 0.5t-4 0.5h-1l-1 4h19q2 0 8 0.5t12.5 1.5t11.5 2.5t5 3.5t-1.5 3t-3.5 2h-3h-4h-4
h-3h-4.5h-4.5h-4h-2l-1.5 -0.5t-2.5 -0.5t-2.5 -0.5l-1.5 -0.5q-1 0 -2.5 0.5t-4 0.5t-4 0.5t-2.5 0.5t-1.5 1.5t-0.5 2.5v2v1h38q0 2 0.5 3.5t0.5 3.5t-0.5 3.5t-2.5 1.5t-5.5 0.5t-8 0.5t-8.5 0.5t-6 0.5l-2.5 0.5t-2.5 2.5h35l9 -3l1 1t1 2q1 1 2 4.5t2.5 7.5t3 7.5
t2.5 4.5zM147 107q-4 0 -7.5 0.5t-3.5 5.5h44v-2.5t-2 -2.5q-9 0 -16 -0.5t-15 -0.5z" />
</svg>
