<?xml version="1.0" standalone="no"?>
<!DOCTYPE svg PUBLIC "-//W3C//DTD SVG 1.1//EN" "http://www.w3.org/Graphics/SVG/1.1/DTD/svg11.dtd" >
<svg xmlns="http://www.w3.org/2000/svg" xmlns:xlink="http://www.w3.org/1999/xlink" version="1.1" viewBox="-10 0 266 256">
   <path fill="currentColor"
d="M139 248q1 2 2 3t3 1t4 -3.5t3 -9t1.5 -12t0.5 -13t0.5 -10.5t0.5 -6v-4q0 -2 0.5 -5t0.5 -6v-3v-5t-0.5 -6t-0.5 -5v-2v-3.5t-0.5 -5.5t-0.5 -5.5v-3.5v-4.5t1 -5t3 -4t5 -1.5q1 0 3 0.5t4.5 2t4 3t1.5 2.5v71l2 4v8q0 6 -1 12t-1 12q0 2 0.5 4.5t2.5 2.5q4 1 6 -0.5
t4 -4t3 -5.5t1 -6v-4q0 -1 -0.5 -4t-1 -6.5t-1 -6.5t-0.5 -4q0 -2 -0.5 -7t-0.5 -11t0.5 -11t0.5 -7q-2 -3 -2 -9v-8v-4v-3l2 -2q0 -1 2.5 0.5l5 3t5 3.5l2.5 2q7 0 7 -8q0 -6 -5.5 -10t-12.5 -7l-14 -6t-11 -8v-3.5t-0.5 -5t-0.5 -5v-3.5q-1 -2 -2 -4.5t-4 -2.5
q-2 0 -3.5 1.5t-1.5 3.5v23q0 1 -4 3t-9 4t-10.5 3.5t-7.5 3.5q-1 0 -3 1t-4 2.5l-4 3t-3 1.5q0 1 -0.5 3t-0.5 3t2 1h3q3 0 6 -1.5t6 -3.5t5.5 -3.5t5.5 -1.5t4 3t1 6.5v7v4.5q0 20 -2 39.5t-2 38.5v8zM63 195v43q0 4 1.5 6t5.5 2q3 0 5 -1.5t2 -5.5v-43q0 -9 5 -17
t10.5 -16.5t11.5 -16.5t7 -17q1 -3 1.5 -10t1 -15t1 -15t0.5 -10q0 -1 -0.5 -5t-0.5 -8.5t-0.5 -8t-0.5 -4.5q0 -3 -0.5 -7.5t-1 -8.5t-1.5 -7.5t-4 -6.5q-2 -3 -5 -4.5t-5 -4.5h-8q-12 0 -19.5 5t-12 13t-7 17.5t-3.5 20t-1 20.5v18v2v1q0 1 0.5 3t0.5 3v4v7v7v4v5q0 4 1 8
t2.5 7t4.5 3t5.5 -2t2.5 -6q0 -13 -2 -26t-2 -27q0 -1 1 -3t3 -2q4 0 6 3t3 7.5t2 9.5t2 9.5t2 7.5t3 3t5 -2.5t3 -4.5q0 -3 -1 -8t-2 -9.5t-3 -9t-3 -6.5q-2 -3 -5.5 -6.5t-6.5 -7t-5 -7.5t-2 -8v-4t0.5 -4.5t1.5 -4t3 -1.5q7 0 11.5 5.5t7.5 12.5t5 12.5t4 5.5q3 0 4 -1
t1 -4q0 -4 -1.5 -9t-4 -9.5t-5 -8.5t-5.5 -8q-1 -2 -3.5 -3t-4.5 -2.5l-4 -3t-2 -4.5q0 -4 2.5 -6t5.5 -3.5t7 -1.5h6q6 0 9 4.5t4.5 10.5t2 12.5t0.5 10.5v3q0 3 -0.5 10l-1 14t-0.5 14v9q-1 3 -1.5 7.5t-2 9.5t-3.5 9t-4 7q0 1 -2 3t-4.5 5t-4.5 5t-2 3q-6 7 -9 15.5
t-7 17.5zM197 113q1 2 2 2h2q3 0 5 -4t2.5 -9.5t0.5 -11v-7.5q0 -3 -0.5 -8t-1 -9.5t-1.5 -9t-2 -7.5q-3 -4 -6.5 -5.5t-7.5 -2.5t-8.5 -1t-9.5 -1v-14l1.5 -0.5t3.5 -0.5t4.5 -0.5t4.5 -0.5h1h3h4h2h2.5t5 -0.5t4.5 -0.5h3l2 -2l2 -2v-1v-1q-1 -3 -2.5 -4t-5.5 -1h-1
q-3 0 -9 0.5t-13.5 0.5h-16t-16 0.5t-14 0.5h-8.5q-3 0 -7 1.5t-4 5.5q0 1 0.5 2t1.5 1h36l1 0.5t1 1.5t1.5 5t1.5 5q-4 6 -8.5 8t-8.5 2.5t-8 1.5t-6.5 4t-4 9t-1.5 19v5.5v9t0.5 9t0.5 5.5h2q3 0 4.5 -2.5t2.5 -6t1 -7v-5.5q0 -1 0.5 -5.5t0.5 -8.5q0 -5 -0.5 -9.5
t-0.5 -5.5q3 -4 7.5 -4.5t8.5 -0.5h7q1 0 1.5 1.5t0.5 2.5q0 3 -1.5 4.5t-3.5 3t-4 2.5t-3 3q-2 4 -3 6.5t-1 5v5.5v7v3v4v4v3t0.5 2t1.5 1v0.5t1 0.5q3 0 4 -3t1 -7.5v-9t1 -9t4 -7.5t10 -3q6 0 8.5 4t3.5 10t0.5 12t-1.5 11q1 0 1.5 0.5l0.5 0.5h1q3 0 4.5 -1.5t2 -4.5
t0 -6t-0.5 -4q0 -4 0.5 -7t0 -6.5t-1 -6.5t-2.5 -5q-1 -2 -3.5 -3t-5 -2.5t-4 -3t-1.5 -3.5v-3t2 -2h20q1 0 2 1.5t2 3.5v1.5t0.5 3.5t0.5 3v2q0 3 0.5 9.5t0.5 13.5t-0.5 13.5t-0.5 8.5z" />
</svg>
