<?xml version="1.0" standalone="no"?>
<!DOCTYPE svg PUBLIC "-//W3C//DTD SVG 1.1//EN" "http://www.w3.org/Graphics/SVG/1.1/DTD/svg11.dtd" >
<svg xmlns="http://www.w3.org/2000/svg" xmlns:xlink="http://www.w3.org/1999/xlink" version="1.1" viewBox="-10 0 266 256">
   <path fill="currentColor"
d="M141 248q0 2 1 2.5t2 0.5q6 0 12.5 -4.5t13 -11.5t12.5 -15.5t10.5 -17t7 -16.5t2.5 -14q0 -10 -2 -18.5t-6.5 -16.5t-9.5 -15.5t-11 -15.5v-4h39q1 0 1.5 -1.5t0.5 -2.5t-0.5 -2t-1.5 -1h-6h-6h-11t-16 0.5t-14.5 1t-7.5 0.5h-5h-6t-5 0.5l-2 0.5l-1 2q3 1 7 1.5l8 1
t7.5 0.5h6.5v2q0 3 -1 5t-3 5l-24 24q-1 1 -4 3t-6 4.5t-5 5t-2 3.5q0 4 3 4t7.5 -3.5t10 -8.5t10.5 -10.5t9.5 -10.5t7.5 -8.5t4 -3.5t2.5 1.5t2 3t0.5 3.5v3q0 5 -2 8.5t-5.5 6.5l-7 6t-5.5 6q-1 1 -1.5 2t-2 3t-2.5 3.5l-1 1.5q0 1 -1 2t-2 2.5t-2 2.5l-1 1q-2 2 -6 5.5
l-8 7t-7 6.5l-3 3q0 3 2 3h3h4q8 -7 15 -14.5t13 -15t12.5 -15t14.5 -14.5q4 1 6.5 5.5t2.5 8.5q0 2 -2.5 6t-6.5 9t-7 9t-4 5q-1 0 -3.5 2.5l-5 5l-5 5t-2.5 3.5q-1 0 -1.5 1.5t-2 3l-2.5 2.5l-1 1q-1 1 -3.5 4t-5.5 6l-6 6l-4 4v5q6 0 10 -2.5t7.5 -6.5t6.5 -9t6 -8
l3.5 -3.5l5 -5l5 -5t2.5 -3.5l3.5 -3.5t5 -6t5 -6.5t2.5 -4q1 0 1.5 -0.5l0.5 -0.5l1.5 0.5t1.5 1t0.5 3.5t0.5 4q0 11 -6 21t-14.5 19.5t-17.5 18t-16 16.5v0zM78 213v3.5t0.5 6l1 7t1.5 4.5q0 4 0.5 6t1.5 3.5t2.5 2t4.5 0.5h2h1l2 -5q-2 -7 -3 -12.5t-1.5 -11t-0.5 -11
v-12.5v-3v-6v-6v-4q3 -5 7 -8.5t7 -7.5q6 -7 9.5 -13.5t5.5 -13t2.5 -14t0.5 -16.5q0 -6 0.5 -14.5t0 -18t-2 -18.5t-5 -16.5t-9 -12t-14.5 -4.5q-11 0 -18.5 4t-12.5 11.5t-8.5 17t-5.5 19.5t-2.5 20t-0.5 18v8q0 6 0.5 12.5t1.5 13.5t2.5 13t4 10t6.5 4q3 0 4.5 -2t1.5 -5
q0 -5 -3 -10t-4 -10q-2 -10 -3 -21.5t-2 -22.5q1 -1 2 -4.5t3 -3.5t5 2.5t6.5 6t6 7t3.5 4.5q2 2 2.5 7t0.5 7q1 2 2 2h3q3 0 4 -3t1 -6q0 -4 -2 -7t-5 -7q-1 -1 -3 -3.5t-5 -5.5l-5.5 -5.5l-3.5 -3.5q-2 -2 -4 -2t-3.5 -1t-2.5 -2t-1 -5q0 -2 0.5 -6.5t1.5 -9t3.5 -7.5
t5.5 -3h3t3 2q5 5 10.5 12.5t8.5 14.5q1 1 1.5 3l1 4t2 3.5t2.5 1.5q2 0 3.5 -2t1.5 -4l-0.5 -1l-0.5 -1q-6 -10 -10.5 -18.5t-12.5 -16.5q-1 0 -2.5 -1t-3 -2.5l-3 -3t-1.5 -3.5t2.5 -4.5t5 -4.5t6 -3t5.5 -1q7 0 11.5 4.5t7.5 11.5t4 15.5t1.5 17t0 15.5t-0.5 11v12
q0 7 -0.5 13t-2.5 11.5t-7 10.5q0 1 -2.5 3.5l-5.5 5.5l-5.5 5.5l-3.5 3.5q-4 4 -6 10.5t-3 13t-1 13.5t1 12zM143 44v3v4v3v1q0 1 0.5 4l1 6l1 6t0.5 4q1 4 3.5 6t6 2.5t7.5 0t6 -0.5h9.5t8.5 -2t7 -5t3 -9q1 -2 1 -6t0.5 -8t1 -7.5t0.5 -4.5t0.5 -3.5t0.5 -3.5
q0 -8 -2 -13t-10 -8h-2q-2 0 -4.5 -0.5t-4.5 -0.5h-2q-10 0 -16.5 1t-10 4.5t-5 9.5t-1.5 17zM151 63v-3.5v-5t1.5 -4.5t3.5 -1q9 -1 14 -1.5t13 -0.5h6q1 1 1.5 2t0.5 2q0 2 -0.5 6t-2 8t-3.5 7t-5 3h-21q-2 0 -3.5 -1t-2.5 -3t-1.5 -4t-0.5 -4zM151 34q0 -4 2 -7t5.5 -5
t7 -2.5t7.5 -0.5h4h6t5.5 1t2.5 2v17h-38q-2 0 -2 -2v-3z" />
</svg>
