<?xml version="1.0" standalone="no"?>
<!DOCTYPE svg PUBLIC "-//W3C//DTD SVG 1.1//EN" "http://www.w3.org/Graphics/SVG/1.1/DTD/svg11.dtd" >
<svg xmlns="http://www.w3.org/2000/svg" xmlns:xlink="http://www.w3.org/1999/xlink" version="1.1" viewBox="-10 0 266 256">
   <path fill="currentColor"
d="M64 182v45l0.5 1.5t1 4t1 4.5t0.5 4q1 2 2 6t4 4t4.5 -2.5t1.5 -4.5q0 -5 -1.5 -9.5t-2.5 -9.5v-3v-6v-6v-6v-4v-6.5v-6.5v-4q3 -7 6.5 -13.5t7.5 -12.5t7.5 -12t6.5 -13q2 -7 3.5 -15t1.5 -15.5v-15.5v-15v-5.5v-7.5v-8v-6q0 -4 -2 -7.5t-5 -6t-7 -4t-8 -1.5
q-11 0 -16.5 4.5t-8.5 11.5t-5 15.5t-5 15.5v29q-2 4 -3 8t-1 8.5t0.5 9.5t0.5 9q0 2 -0.5 4t0 4t2 3.5t4.5 1.5l1.5 -0.5l1.5 -0.5l2 -5q0 -3 -0.5 -7.5t-0.5 -9t1 -9.5t3 -8q4 2 5.5 6l3 8t3 7t5.5 3q2 0 4.5 -1t1.5 -4t-3.5 -8.5t-5.5 -12t-6.5 -11.5t-5.5 -6v-20l3 -3
l3.5 3.5t2.5 3.5q1 1 3 4t3.5 7t3 7l1.5 3q1 0 1 -1q1 0 3 -2.5t2 -4.5q0 -6 -3 -10.5t-7 -9.5t-7 -9.5t-3 -10.5q0 -3 2 -4.5t4.5 -3t6 -2.5t5.5 -1q4 0 6.5 4.5t3.5 10t1.5 11.5t0.5 8v3v4.5v5.5v4q0 3 -0.5 11t-1.5 15.5t-3 14.5t-3 10q-4 5 -7 8.5t-5.5 6.5t-5 7t-4.5 9
q0 1 -1 2.5t-2 3.5l-2 4t-1 3zM150 244v0l2 2l1 1q3 1 5.5 -1.5t2.5 -4.5q2 -12 2.5 -23.5t-0.5 -23.5l2 -2h37q1 0 2.5 -0.5t2.5 -1.5t2 -2.5t1 -2.5q0 -3 -2.5 -4t-5.5 -1q-7 0 -14.5 1t-14.5 1q-4 0 -5.5 -0.5l-4.5 -1.5v-2.5v-1.5q0 -3 1.5 -5t4 -4l5 -4t4.5 -4
q0 -1 0.5 -3t1 -3.5t1.5 -2.5t3 -1q3 0 5 1.5t4.5 3.5t4.5 3.5t4 1.5q3 0 5 -1t2 -3q0 -6 -3.5 -8.5t-8 -3.5t-9.5 -1.5t-7 -1.5q-1 -1 -2 -3l-1 -2l-3.5 -3.5l-3.5 -3.5q-2 -2 -5 -2.5t-6 -2.5v-4q0 -3 2.5 -4.5t6 -3t7 -4t6.5 -9.5h2q3 0 5 1.5t4 4t4.5 4t6.5 1.5
q5 0 5 -5q0 -4 -2.5 -6t-6 -3.5t-7 -2.5t-6.5 -2q-3 -2 -4 -5.5t-2 -6.5q-1 -2 -3.5 -3.5l-5 -3t-4.5 -2.5t-2 -2v-19q0 -2 1.5 -2h1.5q5 0 9 2.5t7.5 5l7 5t7.5 2.5q3 0 5 -1.5t2 -4.5q0 -5 -5 -8t-11.5 -5.5t-13 -4t-9.5 -2.5q-1 0 -1.5 -0.5t-0.5 -1.5t0.5 -5t0 -8
t-2 -6.5t-5.5 -2.5h-1q-1 0 -2.5 1.5l-1.5 1.5v21l-4 3q-4 0 -10.5 1t-12.5 2.5t-10.5 5.5t-4.5 9q4 0 10 -1.5t12.5 -4t11 -4.5t6.5 -2q1 1 2.5 3t2 5t1 5t0.5 3q0 4 -2 6t-5 4.5t-5.5 4.5t-3.5 5q0 1 -1.5 4.5t-1.5 5.5h-6t-8 0.5t-7.5 2.5t-3.5 5q0 2 2 2.5t4 0.5
q4 0 7.5 -1.5t7.5 -1.5q2 0 3.5 1t2.5 2.5t1.5 3t0.5 2.5q1 1 2.5 2t3 1.5t2.5 1t1 2.5q0 7 -3.5 11.5t-9 7.5t-11.5 4.5t-11.5 3t-9 3.5t-3.5 5t1.5 3h3.5q6 0 10.5 -2t10.5 -2q3 0 4.5 2.5t3.5 6.5t5.5 7.5t9.5 4.5v4q0 5 -1.5 6.5t-8.5 2.5h-4.5h-8.5t-9.5 0.5t-6.5 0.5
h-2h-3h-3.5h-2.5q-1 1 -2 2.5t-1 3.5t2 3t5.5 1h6.5h5q7 0 15 -1.5t16 -1.5q2 0 2.5 0.5t0.5 3.5q0 12 -1.5 24.5t-1.5 25.5zM143 148q0 -8 4 -10t10 -2h8q2 2 4 5t2 6q0 5 -3.5 9.5t-8.5 4.5q-3 0 -5.5 -1t-5 -3t-4 -4.5t-1.5 -4.5zM147 91q0 -6 4.5 -9.5t10.5 -3.5
q5 0 7 4.5t2 8.5q0 5 -1 9t-7 4q-7 1 -11.5 -2.5t-4.5 -10.5z" />
</svg>
