<?xml version="1.0" standalone="no"?>
<!DOCTYPE svg PUBLIC "-//W3C//DTD SVG 1.1//EN" "http://www.w3.org/Graphics/SVG/1.1/DTD/svg11.dtd" >
<svg xmlns="http://www.w3.org/2000/svg" xmlns:xlink="http://www.w3.org/1999/xlink" version="1.1" viewBox="-10 0 266 256">
   <path fill="currentColor"
d="M99 148v23q0 2 2.5 3t5.5 1h6t4 2t1.5 8.5t0.5 15t0.5 17.5t2 16.5t4.5 12.5t9 5q3 0 5 -1.5t2 -5.5l-0.5 -1.5t-1.5 -2.5q-3 -7 -5 -13t-3.5 -12.5t-2.5 -13t-2 -14.5v-2q0 -4 1.5 -5.5t4 -3t5.5 -2t5 -1.5q4 -5 4.5 -9t0.5 -10v-3v-4l-1.5 -0.5l-1.5 -0.5q-2 0 -2 3
q0 2 -0.5 5t-3.5 6t-11 3q0 -1 -0.5 -2.5t-0.5 -3v-3.5v-2q1 -7 3 -10.5t4.5 -5t5.5 -1.5t5 -1t3.5 -4t1.5 -10v-4v-4l-1.5 -0.5t-2.5 -0.5v0q-3 0 -3.5 2.5t-1 5.5t-2.5 5.5t-7 2.5q-2 0 -2.5 -1.5t-0.5 -3.5q0 -5 1.5 -9.5t1.5 -9.5t-3.5 -7.5t-8 -3t-9 0t-8.5 0.5
q0 3 1.5 4.5t3.5 2t5 1t6 0.5v24q0 1 -0.5 2.5t-1.5 2.5h-1q-5 0 -6.5 -3.5t-2.5 -7l-2 -7t-4 -3.5v22q0 3 2.5 3.5t6 1t6.5 2t3 5.5v1q0 1 -0.5 4t-0.5 6t-0.5 5.5t-0.5 3.5l-1.5 1.5t-1.5 0.5h-2q-1 -1 -3.5 -2l-2.5 -1v-15l-4 -3zM68 247l2 2t3 1q3 -2 5.5 -5t2.5 -8
q0 -4 -1 -9.5t-2.5 -11t-3 -10.5t-1.5 -10q-1 -6 1 -13l4 -14t5 -13.5t5 -11.5q4 -13 4.5 -26t0.5 -26v-22q-1 -4 -2 -9.5t-3.5 -10.5t-6 -8.5t-9.5 -3.5q-5 0 -9 2t-6.5 5.5t-4.5 7.5l-4 8q-3 17 -4.5 34t-1.5 34q0 2 -0.5 5.5t0.5 7t2.5 6t4.5 2.5t4.5 -2t1.5 -5
q0 -6 -0.5 -12t-0.5 -12q4 0 5.5 3t2.5 6.5t2.5 7.5t5.5 6q3 -1 3 -3v-4q0 -6 -3 -12t-7 -11t-7 -11t-3 -12q0 -3 0.5 -6t3.5 -3q4 0 6 3t4 6.5t3.5 6.5t4.5 3q2 0 3.5 -0.5t1.5 -2.5q0 -6 -3 -10t-6.5 -8t-6.5 -8t-3 -8q0 -2 0.5 -4.5t2 -4.5t3 -3.5t4.5 -1.5t6 3.5t4.5 9
t2.5 12t1.5 12.5t0.5 11v7q0 14 -3 26.5t-9 25.5q-4 10 -8.5 20t-4.5 22q0 13 2 25.5t5 24.5zM196 244q1 2 2 2.5t3 0.5q4 0 6 -2t2 -5q0 -5 -4 -9.5t-6 -8.5t-3.5 -9t-2.5 -10.5t-1.5 -10.5t-0.5 -9q0 -3 2.5 -4t6 -2.5t6.5 -3t3 -5.5v-20q0 -1 -2.5 -2l-2.5 -1h-0.5h-0.5
h-0.5h-0.5l-1 1l-1 1v3t-0.5 4t-0.5 4v3q-1 2 -2 3.5t-3 1.5t-3 -0.5t-2 -2.5v-4v-4q0 -7 1.5 -10.5t4 -5t5 -2t5 -2t4 -4.5t1.5 -10v-6q0 -1 -1.5 -1.5t-2.5 -0.5q-3 0 -3.5 2.5t-1.5 5.5t-2.5 5t-7.5 2v-23q0 -3 -1.5 -4t-3 -1.5t-3.5 -0.5h-5h-7q-1 0 -1.5 1t-0.5 2v1v1
q1 0 3.5 0.5t5.5 1.5t3 3v19l-0.5 1t-1.5 2l-0.5 0.5l-0.5 0.5q-4 0 -6 -2.5t-2.5 -5.5t-0.5 -6.5v-4.5q-5 0 -6.5 3t-1.5 8q0 7 2.5 9.5t5.5 3l6 1t4 2.5q0 7 1 13.5t1 13.5q0 4 -4 4q-3 0 -5.5 -1.5t-3.5 -3.5q0 -1 -0.5 -3.5t-0.5 -5t-0.5 -4.5t-0.5 -3l-0.5 -1.5
t-1.5 -1.5v0h-0.5h-0.5q-1 0 -2.5 1.5l-1.5 1.5v22q0 1 2 2.5t3 2.5q1 0 3 0.5t4 0.5t4 0.5t3 0.5q2 1 3.5 5t2 8t0.5 9v6q2 9 5 18.5t7 18.5zM101 50q0 5 3 9t7.5 7t9 5.5t8.5 3.5q0 1 3.5 2t7.5 2.5t7.5 3t3.5 2.5v16q4 0 6.5 -2t3.5 -5t1.5 -7t0.5 -7l1 -2q4 0 11 -2.5
t14.5 -5.5t12.5 -7.5t5 -8.5t-0.5 -5t-4.5 -2q-2 3 -6 6.5t-9 7t-10 6t-9 2.5q-3 0 -4 -3t-1 -5q0 -6 3.5 -9.5t8.5 -5.5t10.5 -4t10.5 -5v-4q0 -2 -1 -5.5t-4 -3.5t-4 0.5t-3 2.5q0 1 -2 3t-4.5 4t-4 3.5l-2.5 2.5h-1h-2q-3 0 -4 -1.5t-1 -4v-5.5t-2 -5l-1 -1l-2.5 -2.5
l-2.5 -2.5l-2 -2t-4.5 -1.5t-7.5 -1t-8 -0.5h-5h-11q-2 1 -2 2.5v2.5v2.5t2 2.5h28q2 0 3.5 3t2 6.5t0.5 7v3.5v0q0 1 -2 3t-3 2v0q-4 0 -8.5 -2.5t-9.5 -6t-8.5 -6t-6.5 -2.5q-2 0 -3 0.5t-1 3.5q0 4 3 6.5t7.5 4t10.5 3t10.5 3.5t8 5t3.5 8q0 3 -1 6t-5 3q-6 0 -13 -4.5
t-13 -9.5t-10.5 -9t-5.5 -4l-1.5 1t-1.5 2v0z" />
</svg>
