<?xml version="1.0" standalone="no"?>
<!DOCTYPE svg PUBLIC "-//W3C//DTD SVG 1.1//EN" "http://www.w3.org/Graphics/SVG/1.1/DTD/svg11.dtd" >
<svg xmlns="http://www.w3.org/2000/svg" xmlns:xlink="http://www.w3.org/1999/xlink" version="1.1" viewBox="-10 0 266 256">
   <path fill="currentColor"
d="M147 249q1 1 2.5 1.5t2.5 0.5q2 0 3 -0.5l3 -1.5q0 -4 -0.5 -6.5t-0.5 -5.5q0 -11 4.5 -18.5t10 -15t10 -15t4.5 -17.5q0 -11 -1.5 -21t-5.5 -17.5t-12 -12t-22 -4.5q-8 0 -15.5 5t-13.5 10q-5 9 -7 20.5t-2 21.5q0 6 2 12.5t4 12.5q0 1 1 3.5t2 5.5t2 5.5l1 2.5h8
q1 0 1.5 -1.5t0.5 -2.5q0 -5 -3 -9.5t-4 -8.5q-4 -9 -5 -18.5t-1 -19.5q0 -1 1.5 -1h2.5t5 4t8 9t7.5 10.5t5.5 7.5v3v3.5t1 2.5t3 1t2.5 -1.5t0.5 -3.5q0 -5 -4 -12t-9 -14t-11 -12.5t-10 -8.5v-4l10 -10h1l3.5 2.5t4.5 4.5q1 0 2.5 2t2.5 2l2 1.5t4 3.5l3.5 3.5l1.5 1.5
l1 1t1.5 2.5t1.5 3.5t2 3t1 2.5t0.5 3.5t1.5 3t2 1t2 -1t1 -2.5v-2.5v-3q0 -5 -4.5 -11t-10.5 -11t-10.5 -8.5t-4.5 -4.5q1 -3 3 -3h4h6.5t6.5 1q6 5 9.5 9.5t6 9t3 10t0.5 12.5v2v4v3v3q-4 9 -9.5 16t-10 14t-7.5 15t-3 18v5v4zM76 239q0 1 1 3t3 2q3 0 4.5 -2t3.5 -4v-10
q0 -12 -1 -22.5t-1 -22.5q0 -1 -0.5 -3t-0.5 -3q-1 0 -1 -1t1 -1v-1.5t0.5 -3t0.5 -3v-2.5l-0.5 -1l-0.5 -1q-2 -18 -2 -36v-36v-42q2 -9 2.5 -19.5t0.5 -19.5v-3t-3 -1q-1 0 -2.5 1.5l-1.5 1.5q-1 6 -2 11.5t-1 10.5q0 4 1 8.5t1 9.5q0 3 -3 3h-5h-2.5t-2.5 -1
q-1 -4 -1 -7.5t-1 -7t-2.5 -5.5t-5.5 -2q0 6 0.5 13t0.5 14q0 8 -0.5 15.5t-0.5 14.5q0 3 2 3q4 0 4.5 -4.5t1 -10t1.5 -10t5 -4.5q1 0 3.5 0.5t2.5 2.5v72h-8t-3 -1.5t-1 -4v-8.5v-2t-0.5 -4.5t-0.5 -4.5v-3q-1 -2 -2 -2.5t-2 -0.5t-2 0.5t-1 1.5v79q0 1 0.5 1.5l0.5 0.5
q2 0 3.5 -1.5t2 -3.5t1 -4.5t0.5 -3.5t0.5 -2.5t1 -3.5t0.5 -3.5v-1.5v-19l2.5 -0.5l2.5 -0.5h2q2 0 3 1.5t1 2.5q0 18 1 36t1 36q0 5 -1 10t-1 10zM114 45v0q1 0 2 0.5l1 0.5v63q3 0 6 -2t3 -6v-60q0 -2 -2.5 -2h-2.5q-7 0 -13.5 0.5t-13.5 1.5l-0.5 1l-0.5 1v2v0h7v4v7.5
v6.5q0 1 -0.5 4t-1 7t-1 7t-0.5 4v1v3.5v3.5v3v4v3l3 3l4 -5v-2v-4v-5v-3q1 0 1.5 -1.5t1.5 -2.5v-35q0 -1 0.5 -1.5t1 -0.5t2 -0.5t2.5 -0.5v0h1zM159 49q0 2 -2.5 4t-6 4t-6 5t-3.5 7q0 6 -1 10.5t-1.5 9t-0.5 9.5v10q5 0 6 -5q1 0 4.5 -0.5t6.5 -0.5t6 -0.5t5 -0.5h1h1
q2 0 5.5 0.5t7 0.5t7 0.5t5.5 0.5q2 -1 3.5 -1.5t1.5 -2.5q0 -3 -4 -3h-9t-9.5 -0.5t-4.5 -5.5v-1q0 -1 2 -2l2 0.5t5 0.5q2 0 4 -0.5t3 -0.5q2 0 2.5 -0.5t0.5 -2.5v-2t-2 -2h-16q0 -1 -1.5 -3.5t-0.5 -3.5q2 -2 5.5 -2.5t7 -0.5h6t2.5 -3q0 -1 -0.5 -2.5t-2.5 -1.5h-15
q-2 0 -3 -1t-1.5 -2.5t-1 -2.5t0.5 -2l2 -2q4 3 8.5 4.5t8.5 1.5h2.5t1.5 -2q0 -3 -2.5 -3.5t-5.5 -1t-5.5 -1.5t-2.5 -4q0 -2 2.5 -2.5t5 -1.5l5 -2t2.5 -4q0 -4 -3 -5.5t-7 -2t-7.5 -1.5t-4.5 -3q0 -1 0.5 -3.5t0.5 -3.5h29q2 0 2.5 -1t0.5 -3v-2t-1 -1h-8q-24 0 -48 2
t-48 5q-2 0 -3 1.5t-1 2.5q16 0 32 -1.5t32 -1.5h2.5h2.5q2 1 2 2v2q0 3 -3 5.5t-6.5 4.5t-7 3.5t-5.5 4.5q2 2 4.5 2.5t5.5 0.5t5.5 1t2.5 4zM144 92v-2v-1q4 -1 6.5 -1.5t5.5 -0.5q6 0 6 5q0 1 -0.5 2.5t-1.5 1.5h-14q-2 0 -2 -2v-2zM146 77q0 -3 2 -5t5 -2q2 0 3.5 0.5
t3.5 1t3 2t1 3.5v0q0 1 -0.5 3l-0.5 2h-16q-1 0 -1 -2v-3zM161 55q2 0 2 2v3v3q-1 1 -2.5 1.5t-3.5 0.5h-3h-2q0 -3 3 -6.5t6 -3.5zM156 39q1 -4 4 -4t3 2.5v4.5q-2 0 -4 -1t-3 -2zM168 35v-2v-1l1.5 0.5l3 1t2.5 1.5t1 2t-1 2.5t-2 1.5q-3 0 -4 -2t-1 -4z" />
</svg>
