<?xml version="1.0" standalone="no"?>
<!DOCTYPE svg PUBLIC "-//W3C//DTD SVG 1.1//EN" "http://www.w3.org/Graphics/SVG/1.1/DTD/svg11.dtd" >
<svg xmlns="http://www.w3.org/2000/svg" xmlns:xlink="http://www.w3.org/1999/xlink" version="1.1" viewBox="-10 0 266 256">
   <path fill="currentColor"
d="M153 245q0 2 0.5 4t3.5 2q2 0 4 -3.5t3.5 -8.5t2 -11t1 -11.5t1 -10t1.5 -6.5q1 -4 5 -6.5t7 -4.5v-0.5v-0.5q1 0 1 0.5v0.5q1 0 2 1l2 2q1 3 3 10.5t3.5 15.5t4 14t4.5 6q4 0 4.5 -1.5t0.5 -5.5q0 -12 -4 -25t-8 -24q-1 -2 -4 -2.5t-5 -0.5t-3.5 0.5t-3 1.5l-3 2t-3.5 1
q-3 0 -4.5 -4t-2.5 -8.5t-1.5 -9t-1.5 -6.5q0 -1 -0.5 -2t-1.5 -2l-2 -2l-1 -1v-1q0 -1 2 -3t4 -3.5t4 -2.5t4 -1l2.5 -0.5t4.5 -0.5q3 0 5 0.5t3 0.5q1 -1 1 -2.5v-2.5v-2t-1 -2h-8q-11 0 -21 1.5t-22 0.5q0 1 -1.5 2.5t-1.5 2.5t2 2q1 0 4 0.5t6 0.5t5 0.5t2 2.5q0 1 -3 4
t-7.5 5.5t-9 6t-9 6.5t-7.5 6t-3 6q0 2 1.5 2.5t3.5 0.5t6.5 -3t9 -7t8.5 -7.5t6 -5.5h2h2t1 1t0.5 3t0.5 3q0 8 -6 12.5t-13 8.5t-13 7.5t-6 9.5q6 0 11.5 -2.5t11 -6.5t10 -8.5t7.5 -8.5q2 1 2.5 2.5t1 3.5t0.5 4v3v5q0 1 -1 1.5l-1 0.5q-4 2 -7 4.5t-6.5 4.5t-7 4.5
t-7.5 4.5l-7 3.5t-5.5 3.5t-4.5 5t-2 8q6 0 13 -5t13 -10.5t11.5 -10t7.5 -4.5t2 3v2q0 10 -2.5 19t-2.5 18zM68 180q0 2 1 7t2 12.5t3 15.5t4 14.5t4 10.5t4 4q4 0 5 -2t1 -6q0 -6 -2.5 -11.5t-4.5 -11.5q-1 -2 -2 -6.5t-2.5 -9.5t-2.5 -10t-1 -7q1 -5 2.5 -9.5t3 -8.5
t3.5 -7.5t6 -8.5q0 -1 1 -2.5t2.5 -3.5t3 -3.5t1.5 -2.5q3 -5 5 -12t3.5 -14t2.5 -14t1 -13q0 -1 -0.5 -6t-1.5 -11t-3 -12.5t-4 -12.5t-4.5 -10t-5.5 -4q-4 -1 -8 -1.5t-8 -0.5t-8 0.5t-6 4.5l-11 23v2v3l-1 1.5l-1 1.5q0 1 -0.5 3.5t-0.5 5t-0.5 5t-0.5 3.5v22v18.5
t2 17.5h1h1q5 0 6.5 -2.5t1.5 -5.5q0 -5 -1 -10t-1 -10v-6l4 -3l4 4l6.5 6.5l6.5 6.5t5 3t3 -0.5t1 -2.5q0 -8 -3.5 -11.5t-8 -5.5t-9.5 -4t-7 -6v-8v-8.5t2 -8.5h1.5h1.5q4 0 7.5 2.5t6.5 5.5t6 5t7 2q3 0 3 -3q0 -6 -4 -9t-9 -5.5t-10 -4.5t-7 -6q2 -3 3 -6t3 -5t5 -3
t7 -1q7 0 11 5.5t6 13.5t2.5 16t0.5 13q0 12 -1.5 24t-8.5 22q-3 6 -7.5 12t-8.5 12.5t-6.5 13t-2.5 14.5zM115 148v2.5t3 1.5t4.5 -4t2 -10.5t0.5 -14t1.5 -14t4.5 -10.5t10 -4h6v5t1 7.5t3 6t5 2.5h29q1 0 1.5 -1t0.5 -2t-0.5 -2t-1.5 -1l-27 -3l-3 -2l-0.5 -1.5
t-0.5 -2.5v-2q0 -1 0.5 -2t1.5 -2t2 -1h27l3 -4l-3 -3t-3 -2h-27q-2 0 -2 -2v-4q0 -3 1 -6.5t6 -3.5h4t4.5 0.5t4.5 0.5h2l1 2h17l5 7q0 18 0.5 36t1.5 36l0.5 0.5l0.5 0.5h1v0q2 0 3 -1t2 -2.5t1 -3.5v-3v-7.5t-0.5 -12t-0.5 -12.5v-9v-7.5v-9t-1 -8.5t-3 -7t-6 -4.5
t-9.5 -1.5h-11.5t-10.5 -0.5t-7.5 -2.5t-3 -6v-7q0 -5 0.5 -9t3 -7.5t6.5 -3.5t5.5 2.5t2 5t1 5.5t2.5 4q3 2 6.5 3t7.5 1h7.5h6.5v-1.5t-0.5 -3t-1.5 -3t-2 -1.5h-17q-2 0 -1.5 -2t0.5 -3v-1v-2v-2t1 -1h18q3 0 4.5 -1.5t1.5 -3.5q0 -1 -1 -3t-3 -2h-47q-2 0 -4 5
t-3.5 11.5t-2 13t0.5 8.5q-1 1 -2.5 2t-2.5 1t-3 -0.5t-4.5 -1.5t-4 -2t-1.5 -3v-36q0 -1 -2.5 -2.5t-3.5 -1.5l-1 1q-1 1 -1.5 3l-0.5 2v6.5t0.5 9l1 9t0.5 6.5t0.5 5.5t0.5 4.5q2 4 5.5 5t7.5 1.5t7 1t4 2.5v6q0 7 -2 8.5t-4.5 1.5h-5.5t-6 4q-5 5 -7.5 12.5t-4.5 15.5
t-2 16v15z" />
</svg>
