<?xml version="1.0" standalone="no"?>
<!DOCTYPE svg PUBLIC "-//W3C//DTD SVG 1.1//EN" "http://www.w3.org/Graphics/SVG/1.1/DTD/svg11.dtd" >
<svg xmlns="http://www.w3.org/2000/svg" xmlns:xlink="http://www.w3.org/1999/xlink" version="1.1" viewBox="-10 0 266 256">
   <path fill="currentColor"
d="M144 216q2 6 6 12t8.5 11t10.5 8.5t12 3.5q3 0 5.5 -0.5t2.5 -4.5t-5 -6.5t-11.5 -5t-11.5 -6t-5 -9.5q0 -3 3 -4.5t8 -2t10.5 -1t10 -2.5t7.5 -6t3 -12v-3t-0.5 -4.5t-1.5 -5t-2 -2.5l-16 -5q-1 0 -3 -2.5t-2 -3.5q0 -2 2.5 -4t5 -4.5t4.5 -5t2 -6.5v-25l-3 -6h-8
t-8 -0.5t-6.5 -2.5t-2.5 -7v-2v-3q4 0 9.5 -0.5t11.5 -0.5t11 -0.5t7 -2.5q1 -5 1.5 -8.5t0.5 -7.5q0 -3 -1.5 -6t-4.5 -3q-1 0 -2 0.5t-2 0.5v3.5t-0.5 6t-1.5 6t-2 3.5q-6 1 -9.5 1.5t-8.5 0.5t-7 -3t-2 -8q0 -4 3 -5.5t7 -2.5t7.5 -2.5t6 -4t2.5 -7t1 -6.5q1 -8 5 -10
t8.5 -2t8 0.5t3.5 -3.5t-3 -4h-6q-13 0 -25 2t-24 2h-5h-8h-7h-5t-4 0.5t-6.5 1t-7 0.5h-4.5v1v2t0.5 2t2.5 1h22l0.5 2t1.5 3q0 1 0.5 3t1 4.5t1 4.5l0.5 2q0 3 2.5 4l5 2t4.5 1.5t2 1.5v16l-2 1q0 1 -2 1h-3q-8 0 -12 -1t-5.5 -2t-1.5 -3v-4.5t-1 -5t-4 -5.5h-1
q-2 0 -2.5 2.5t-1 5.5t-0.5 6v4q0 4 3 6t6 3h4.5t7 0.5t6.5 0.5h4q2 1 3.5 2t1.5 3q0 5 -2 6.5t-5 2.5t-6.5 1.5t-6.5 3.5t-5 8.5t-2 16.5q0 7 4 11.5t9 8.5v2v1q0 4 -2 5.5t-5.5 2.5t-7 2.5t-6.5 4t-5 6t-2 10.5q0 4 1.5 9.5t5.5 8.5q14 2 29 1zM64 190q0 2 0.5 6.5
t1.5 10.5t2.5 12.5t3.5 11.5t4 8.5t5 3.5q2 0 4.5 -2.5t2.5 -5.5v-1q-1 -1 -1.5 -2.5t-1.5 -3t-1.5 -2.5t-0.5 -2q-8 -17 -8 -37q0 -6 1.5 -11t4.5 -10t6 -9.5t5 -10.5q5 -10 6 -21.5t1 -22.5q0 -12 -1.5 -23t-2.5 -22q-1 -7 -1 -13q0 -7 -1.5 -12t-6 -8t-13.5 -3
q-11 0 -17.5 7t-8.5 18q-1 7 -1 12t-0.5 9.5t-0.5 9.5v10q0 5 1 9t1 9q0 7 -1 14t-1 14v6q0 4 0.5 8.5t1.5 8t4 3.5t5 -3.5t2 -5.5v-4q0 -1 -0.5 -5.5t-1 -10t-1 -10t-0.5 -5.5v-1q0 -2 0.5 -4t2.5 -2q3 0 5.5 3.5t4.5 8t3.5 8t4.5 3.5t4 -2.5t1 -4.5q0 -4 -2.5 -9t-6 -9
t-8 -7t-8.5 -4v-31q6 0 9.5 2t7.5 7q1 1 4 3.5l6 5t5.5 4.5l2.5 2v11q0 4 -0.5 10l-1 12t-1.5 11t-4 9q-4 7 -7.5 12.5t-6.5 11t-4.5 11.5t-1.5 14zM143 184q-2 0 -2.5 2.5t-0.5 3.5q0 3 1 6t1 6q0 1 -1 2.5t-2 2.5h-3h-3q-8 0 -11 -2.5t-3 -9.5q0 -6 2 -8.5t5.5 -4
t7.5 -2.5l8 -2q4 -2 4 -4q0 -3 0.5 -4.5t3.5 -3t12 -1.5q3 0 4 1.5l2 3t2 4t3 4.5q3 2 6 3t5 2t3.5 3t1.5 6q0 6 -5 8.5t-10 2.5q-4 0 -4 -5q0 -3 1 -4.5t1 -3.5v-2t-0.5 -2.5t-1.5 -2.5t-2 -1l-1 0.5t-2 1.5q1 2 0.5 6.5t-1.5 8.5t-3.5 7t-7.5 3q-2 0 -3 -4t-1.5 -8.5
t-1.5 -8.5t-4 -4zM131 142q11 0 22 -1t22 -1v11q0 2 -2.5 3.5t-5.5 2t-6 0.5h-4q-4 0 -8.5 -0.5t-8.5 -2t-6.5 -4.5t-2.5 -8zM134 128q0 -3 3 -5t6 -3t6.5 -1.5t5.5 -0.5h2.5t5 0.5t5 0.5t4.5 1q2 0 4 2t2 4q0 1 -0.5 3.5t-1.5 2.5h-40q-2 0 -2 -1.5v-2.5zM58 48q0 -2 1 -5
t3 -6t4.5 -4.5t4.5 -1.5q7 0 10 3t4.5 8t2 10.5t0.5 10.5v11q-3 -2 -8 -6l-10 -8t-8.5 -7t-3.5 -5zM144 53v-2l0.5 -2t0.5 -3q1 0 4.5 -0.5t7.5 -1t7 -1t4 -0.5h1h1q3 0 4 2t1 4t-0.5 4.5l-1 5t-2 4.5t-3.5 2h-8q-8 0 -12 -1.5t-4 -10.5zM119 21v2t1 1t3.5 0.5t3.5 0.5h8.5
h12.5h14t13 -1t10 -2.5t4 -4.5t-4 -3q-16 0 -31.5 1.5t-31.5 1.5q-2 1 -2.5 2t-0.5 2z" />
</svg>
