<?xml version="1.0" standalone="no"?>
<!DOCTYPE svg PUBLIC "-//W3C//DTD SVG 1.1//EN" "http://www.w3.org/Graphics/SVG/1.1/DTD/svg11.dtd" >
<svg xmlns="http://www.w3.org/2000/svg" xmlns:xlink="http://www.w3.org/1999/xlink" version="1.1" viewBox="-10 0 266 256">
   <path fill="currentColor"
d="M166 157q0 3 0.5 8.5t1.5 13t2 16t2 16t1.5 13.5t1.5 9q0 2 0.5 5t1.5 6t2.5 5t3.5 2q4 0 5 -4t1 -8v-6l-4.5 -18t-4.5 -20t-3.5 -20.5t-1.5 -19.5v-2q4 -1 7.5 -1.5t7 -1.5t6 -3t5.5 -6v-7t0.5 -10t0.5 -10v-7v-2q0 -3 -0.5 -5t-0.5 -5t0.5 -6t0.5 -6v-4t-1 -4t-2 -3.5
t-4 -1.5q-4 0 -4 4q0 1 0.5 1h0.5v2t0.5 2.5t0.5 2.5v1v2q0 6 -1.5 10t-8.5 4h-2.5t-5.5 -1t-5 -2t-2 -3v-74q0 -1 -2 -1h-3q-3 0 -4 2.5t-1 5.5q0 17 1.5 34t1.5 34v7h-3.5t-5.5 0.5t-5.5 2t-2.5 3.5q0 3 1.5 4t4.5 1t5 -1.5t5 -1.5h2.5t1.5 1v29q0 4 -3.5 5t-7 1.5t-7 1.5
t-3.5 5q0 3 0.5 4t3.5 1q4 0 7.5 -2t6.5 -2q2 0 3 0.5t2 3.5zM53 193v12l1.5 0.5l1.5 0.5h3h5q7 0 14 -1.5t15 -1.5h10t16 -0.5t14.5 -2.5t6.5 -7q0 -2 -1 -4t-4 -2q-8 0 -16 1.5t-16 1.5v-17q5 -1 10 -1t9.5 -1.5t8 -4.5t4.5 -9q0 -2 0.5 -6l1 -8l1 -8t0.5 -5v-8.5v-12.5
v-13v-8l1 -2t1 -3v0q0 -2 -0.5 -5.5t-1.5 -6.5t-2.5 -5.5t-3.5 -2.5h-1.5t-1.5 1v80q0 5 -2.5 8t-6.5 4.5t-8.5 1.5h-8.5v-17q0 -1 2.5 -2t5.5 -2t5.5 -3t2.5 -6q0 -7 -2 -14.5t-4.5 -14t-5.5 -13.5t-5 -14v-1v-1q0 -2 0.5 -4t2 -4.5l3 -5t1.5 -3.5q3 -4 5.5 -8t5 -8.5t4 -9
t1.5 -9.5q-3 0 -6 3t-5.5 7t-5 8.5t-3.5 7.5q-1 1 -2.5 4.5t-2.5 4.5h-1q-4 0 -6.5 -6t-5.5 -14t-6 -14t-8 -6q-2 0 -2 2v4v4l4 8t6 12.5t6 12.5l4 8q0 1 1.5 4t1.5 4v1q0 3 -1 5l-2 4t-2.5 3.5t-1.5 4.5q-4 9 -7 17.5t-3 18.5v4v4q4 5 8 5.5t9 1.5v16l-1 1q-1 1 -4 1h-4
q-6 0 -10.5 -1t-6.5 -3.5t-3 -7t-1 -11.5v-73q0 -3 -1.5 -3.5t-3.5 -0.5q-6 0 -6 7v4.5t1 4.5v64q0 2 0.5 5.5t1.5 7.5t1.5 7.5t1.5 5.5q2 5 8 6.5t12 1.5h10.5t4.5 1v13l-1 2q-4 2 -10 2q-4 0 -9 1h-3.5h-6.5h-5.5h-4.5zM172 115v-3q4 -2 6.5 -2.5t7.5 -0.5t6 3t1 9
q0 9 -3.5 14.5t-13.5 5.5q-2 0 -2.5 -3.5t-1 -7.5t-0.5 -9v-6zM85 123q0 -1 1 -6.5t3 -11.5t4 -10.5t5 -4.5q2 0 3.5 4.5l3.5 10.5t3 11.5t1 7.5v2q0 2 -1 2h-18q-2 0 -3.5 -1.5t-1.5 -3.5z" />
</svg>
