<?xml version="1.0" standalone="no"?>
<!DOCTYPE svg PUBLIC "-//W3C//DTD SVG 1.1//EN" "http://www.w3.org/Graphics/SVG/1.1/DTD/svg11.dtd" >
<svg xmlns="http://www.w3.org/2000/svg" xmlns:xlink="http://www.w3.org/1999/xlink" version="1.1" viewBox="-10 0 266 256">
   <path fill="currentColor"
d="M164 126q-1 15 0 30.5t3 30.5t4.5 30t4.5 29q1 2 3.5 3.5t4.5 1.5t3 -2t3 -4h0.5t0.5 -1l-1.5 -3t-3 -6.5t-3 -6.5t-1.5 -4q-4 -16 -5.5 -33.5t-2.5 -33.5q-1 -1 -1.5 -4.5t-1 -7.5l-1 -8t-0.5 -6l0.5 -3t0.5 -4q2 -1 4 -1h4t4 -0.5t3 -2.5q3 -4 4 -6t2 -7q0 -1 0.5 -3
t0.5 -4.5v-4.5v-3t0.5 -2.5t0.5 -3.5v-5v-4v-2v-5q0 -2 -0.5 -4t-0.5 -3t-1.5 -2t-3.5 -1v1q-1 0 -1.5 1l-0.5 1l-2 38q-1 5 -3 9.5t-6 4.5h-2q-2 0 -2 -2q-1 -2 -1 -8t-0.5 -12.5t-1 -12.5t-0.5 -8v-2q0 -10 1.5 -19t1.5 -19v-3.5t-0.5 -4.5t-1.5 -3.5t-3 -1.5h-1v0
q-1 1 -1.5 2t-1.5 1v3t-0.5 4.5t-0.5 5v3.5v2v3l1 2v66q0 3 -2.5 3.5t-3.5 0.5q-5 0 -7 -3.5t-3 -7.5t-1 -8.5v-6.5v-5v-7v-6.5v-4.5t-1.5 -3t-2.5 -1q-1 0 -2 1t-1 2v27q2 2 2.5 4.5t0.5 5.5v6.5t1 5.5q2 5 5.5 6.5t6.5 2t6 0.5t4 3zM67 239q0 2 1.5 2.5t2.5 0.5q3 0 6 -6
t5 -14.5t4 -16t4 -10.5l5 -64q1 -4 4 -6.5t7 -4t7.5 -3.5t4.5 -7q0 -2 1 -7t1.5 -11t1 -11.5t0.5 -7.5v-4q0 -2 -1 -5.5t-4 -3.5q-2 0 -2.5 0.5t-0.5 2.5v19q0 3 -0.5 8t-1.5 10t-3.5 9t-8.5 4v0q-1 0 -2 -0.5t-1 -1.5v-4q0 -8 1.5 -16.5t1.5 -17.5q0 -3 -0.5 -4.5
t-1.5 -3.5v-40q0 -2 -2 -2.5t-3 -0.5q-3 0 -3 2.5v4.5q0 13 0.5 26t0.5 26v15t-1 15q-1 3 -3.5 3.5t-4.5 0.5q-4 0 -6.5 -3.5t-4 -8.5t-2 -11.5t-0.5 -12.5t0.5 -11t0.5 -7q-1 -2 -1.5 -2h-1.5q-2 0 -3 1.5t-1.5 3.5t0 4t0.5 3q0 9 -0.5 18t2 16.5t7.5 12.5t16 5v6
q0 26 -4 50.5t-11 48.5q-2 1 -4 5t-2 6z" />
</svg>
