<?xml version="1.0" standalone="no"?>
<!DOCTYPE svg PUBLIC "-//W3C//DTD SVG 1.1//EN" "http://www.w3.org/Graphics/SVG/1.1/DTD/svg11.dtd" >
<svg xmlns="http://www.w3.org/2000/svg" xmlns:xlink="http://www.w3.org/1999/xlink" version="1.1" viewBox="-10 0 266 256">
   <path fill="currentColor"
d="M119 245q0 3 1.5 4.5t4.5 1.5t5 -2.5t2 -5.5v-8.5v-12.5t0.5 -15t0.5 -15.5v-13t1 -8.5v-20v-21q0 -3 -2 -3h-3h-3.5t-3.5 1q1 30 -1 59.5t-2 58.5zM197 146q1 1 3.5 1.5t3.5 0.5h1q2 0 4.5 -2t2.5 -4q0 -3 -6 -6.5t-14.5 -7.5t-18.5 -8.5t-19 -8t-14.5 -5.5l-5.5 -2v-20
l-2.5 -1.5l-2.5 -1.5h-1q-1 0 -4 2t-3 3v18l-5.5 2.5t-13.5 6t-18 7.5t-18 8t-13.5 8t-5.5 6t2.5 2.5t4.5 0.5q7 0 14 -3.5l13 -6.5h1q5 -3 10.5 -6.5t11 -6.5t11.5 -5t11 -2q6 0 11 1.5t9.5 3.5t9.5 5t9 6q2 0 6.5 2.5t9.5 5t9.5 5t6.5 2.5zM86 75q0 1 -0.5 5t0 7.5t2 6.5
t5.5 3q1 0 2.5 -1.5t1.5 -2.5v-18q0 -2 2.5 -3.5t6 -2.5t6.5 -1.5t4 -2.5q2 -3 3.5 -6.5t2 -7.5t0.5 -8v-7t-0.5 -4.5t-3.5 -1.5t-4.5 2.5t-1.5 6v7.5q0 5 -1 8t-3.5 5.5t-7.5 2.5q-3 0 -3 -1.5v-4.5v-5q0 -1 0.5 -5.5t0.5 -10t0.5 -10t0.5 -6.5v0v-1q-1 -1 -1.5 -2l-0.5 -1
l-1.5 -0.5t-2.5 -0.5h-3q-2 0 -2 2v38q0 8 -7 8q-3 0 -5.5 -3t-2.5 -6v-4v-7v-6v-4q-1 -2 -2 -2.5t-3 -0.5q-4 0 -4.5 1.5t-0.5 4.5q0 7 1 14t1 15q1 3 4 4t6.5 1.5t6 1.5t4.5 4zM160 90q0 4 4 4t6 -2t2.5 -5.5t0 -7t-0.5 -6.5l3 -3q9 0 14 -1.5t7.5 -5t3 -8.5t0.5 -13v-2
v-4v-3v-3t-1 -1h-2q-3 0 -5 2.5t-2.5 6t-0.5 7.5t-1 7.5t-3.5 6t-8.5 2.5h-2t-2 -2v-3v-3q0 -8 1.5 -16t1.5 -16v-3.5v-2.5q0 -1 -1.5 -1.5l-1.5 -0.5h-1h-1q-1 0 -4 2t-3 4v38q0 3 -2.5 3.5t-3.5 0.5q-5 0 -7 -3.5t-2.5 -8.5t0 -9.5t0.5 -7.5q-1 0 -2 -0.5t-1 -1.5h-1h-1
q0 1 -0.5 1.5l-0.5 0.5q0 1 -0.5 5t-0.5 5q0 9 0.5 14t2 7.5t6 4t12.5 2.5v2.5v2.5q0 4 -1 7.5t-1 7.5z" />
</svg>
