<?xml version="1.0" standalone="no"?>
<!DOCTYPE svg PUBLIC "-//W3C//DTD SVG 1.1//EN" "http://www.w3.org/Graphics/SVG/1.1/DTD/svg11.dtd" >
<svg xmlns="http://www.w3.org/2000/svg" xmlns:xlink="http://www.w3.org/1999/xlink" version="1.1" viewBox="-10 0 266 256">
   <path fill="currentColor"
d="M74 246q0 2 0.5 3t2.5 1q3 0 6.5 -4t7 -11t6.5 -14.5t5 -15t4 -14t3 -8.5v-3.5t0.5 -5.5t0.5 -5.5v-2.5q0 -1 1 -2l1 -1q0 -1 3 -1.5t4 -0.5t4.5 -0.5t7.5 -1t7.5 -1t4.5 -0.5q6 -1 12 -4t12 -3q3 0 5 3t3.5 7t2.5 8t1 5q1 2 2 5.5l2 7l2 7t1 4.5q1 2 2 7t2.5 11
t2.5 11.5t2 7.5q0 1 1.5 1.5t2.5 0.5q3 0 4.5 -2t1.5 -5q0 -5 -2 -13.5t-5 -18t-6.5 -18.5t-5.5 -14t-4.5 -9.5t-2.5 -9.5v-1q1 0 2 -1.5l2 -3t2 -2.5t1 -2q3 -5 4 -11.5t1 -12.5q0 -4 -0.5 -7.5t-3 -6.5t-5.5 -5t-8 -2h-102v7h35l0.5 0.5l1.5 1.5v1.5t0.5 3t0.5 3.5v3v2v0
q0 1 -1.5 2l-1.5 1h-12q-2 1 -7.5 1t-11.5 1t-11.5 1t-7.5 1l-2 1q0 1 -1 2.5l-1 1.5q1 3 3 3h4q11 0 22 -0.5t22 -0.5v4t0.5 6.5t0.5 6.5v4t-0.5 3t-1.5 2q-4 1 -9.5 1.5l-11 1t-11 0.5t-9.5 1q-1 0 -3 1t-2 3v1l1.5 1t1.5 2h8q8 0 16 -1t17 -1q0 18 -5 34.5t-14 32.5
q-1 4 -4.5 7.5t-3.5 7.5zM113 142v-8q0 -4 4 -7h13q3 0 9 0.5t11.5 1.5t10.5 3.5t5 7.5q0 2 -3 3.5t-7.5 2.5t-9.5 2t-10 1.5t-9 1t-5 0.5h-7l-1 -2q-1 0 -1 -3v-4zM117 117v-1v-2q0 -2 0.5 -4t0.5 -4t0.5 -3.5l0.5 -1.5l3 -4h3h5q9 0 18 0.5t19 1.5q8 1 11 6.5t3 12.5
q0 5 -1.5 9.5t-5.5 8.5l-0.5 -1l-0.5 -1q-3 -3 -4.5 -5.5t-3.5 -4t-5 -2.5t-7 -1q-2 -1 -7 -1t-10.5 -1t-11 -1t-7.5 -1zM85 66v19q4 0 5.5 -2t2 -4.5t1 -5.5t1.5 -6q0 -1 3.5 -2t7.5 -2t8 -3.5t5 -7.5q0 -1 0.5 -3.5t1 -5.5t1 -6.5t0.5 -4.5v-2q0 -2 -1.5 -3.5t-3.5 -1.5
q-1 0 -2 0.5t-1 1.5q-1 3 -1 8t-1.5 9.5t-4.5 8t-8 3.5q-1 0 -2.5 -0.5t-1.5 -1.5v-39q0 -1 -1.5 -1.5t-2.5 -0.5q-2 0 -4 2.5t-2 4.5v35h-3t-4.5 -0.5t-4.5 -1.5t-2 -3v-26q0 -2 -1.5 -2h-2.5q-4 0 -4.5 3.5t-0.5 6.5q0 5 0.5 11.5t2.5 12t7 8.5t13 2zM157 80l1 2
q2 -1 3 -2.5t1 -3.5t0.5 -4t1.5 -3q1 -3 4.5 -4.5t7 -2t7 -2t7 -4.5t5.5 -9.5t2 -17.5q0 -2 -0.5 -4.5t-3.5 -2.5q-4 0 -5.5 2t-2 6t-0.5 8t-1 7.5t-4 6t-10 2.5q-2 0 -3.5 -1.5t-1.5 -3.5q0 -7 2 -13.5t2 -13.5v-7q-1 -2 -2 -2h-3h-2h-2q-1 11 -1.5 21t-0.5 20q0 2 -2 2h-2
q-1 0 -3 -0.5l-4 -1t-3.5 -1.5t-1.5 -3v-25l-2 -1q-3 1 -3.5 4t-0.5 5q0 5 0.5 10t1.5 9t4 6.5t6.5 4t6 2.5t2.5 2v13z" />
</svg>
