<?xml version="1.0" standalone="no"?>
<!DOCTYPE svg PUBLIC "-//W3C//DTD SVG 1.1//EN" "http://www.w3.org/Graphics/SVG/1.1/DTD/svg11.dtd" >
<svg xmlns="http://www.w3.org/2000/svg" xmlns:xlink="http://www.w3.org/1999/xlink" version="1.1" viewBox="-10 0 266 256">
   <path fill="currentColor"
d="M75 245v2.5t2 3.5q0 -1 1.5 -1.5t2.5 -1.5l2 -2l2 -2l0.5 -0.5t1.5 -0.5q0 -11 1.5 -22.5t3 -22.5t2.5 -22.5t1 -22.5v-2q0 -2 -0.5 -3.5l-1 -3t-2.5 -1.5q-1 0 -3 2l-3 3q1 14 0.5 28.5t-2.5 28.5q0 5 -1.5 10l-3 10t-2.5 10t-1 10zM126 239l1 9h1h2q3 0 5 -1.5t2 -4.5
v-1l-1 -2t-1 -3v-1.5t-0.5 -3.5t-0.5 -4v-3v-1v-1v-2.5t0.5 -4.5t0.5 -4.5v-2.5v-3q0 -13 -1.5 -26t-1.5 -27q0 -8 2.5 -11.5t6 -5t8.5 -2t11 -1.5q7 -2 12.5 -6.5t10.5 -9.5v-2q0 -6 -4 -9.5t-10 -5.5t-12.5 -3t-12.5 -2t-10 -3.5t-4 -7.5q0 -3 1 -5.5t1 -5.5t-1.5 -5
t-4.5 -2v0q-2 2 -3 5t-1 6.5v7v5.5q-2 3 -5.5 4.5t-7.5 2.5t-7.5 2.5t-5.5 4.5l-26 13l-1.5 1t-1.5 2v1v0q0 1 1.5 2t1.5 2h0.5h0.5l5.5 -2.5t12 -6t12 -6.5t7.5 -4q1 -1 2 -1.5t2.5 -1.5t2.5 -1.5l1 -0.5q1 0 3 -0.5l4 -1l4 -1l2 -0.5q1 0 3.5 0.5t6 1t6.5 1.5t5 1.5t5 1.5
t6.5 2.5t6 3.5t2.5 4q0 5 -3.5 7t-8.5 3.5t-10.5 2.5t-10.5 2.5t-9 4.5t-4 8v14v12t2 12v60zM178 239q0 2 1 3.5t4 1.5t5.5 -2t2.5 -4q0 -5 -2 -11.5t-5 -13.5t-6 -13.5t-5 -10.5q0 -1 -1 -2.5t-1 -2.5v-2v-3v-4v-2q0 -2 -0.5 -5t-1 -6.5t-1 -6.5t-0.5 -4q-1 -4 -3 -6.5
t-7 -2.5q0 13 2 25.5t4.5 24.5t6.5 24t7 23zM69 61q1 0 3.5 0.5t5.5 1t5 1.5t2 3v18q1 0 2.5 -0.5t2.5 -0.5l1 -0.5l1 -0.5v-18q7 -2 11.5 -4t8 -5t5 -7.5t1.5 -11.5v-4v-4t-1 -1.5l-1 -0.5q-1 0 -4 -0.5l-3 -0.5v21q0 1 -2 2t-3 2l-2.5 1.5t-3.5 1.5v0h-1q-2 0 -3.5 -1.5
t-2.5 -3.5v-9q0 -6 1 -10t1 -8v-4q-1 -2 -2 -2h-3h-1q-1 0 -1.5 2.5t-0.5 3.5q0 2 -0.5 6t-0.5 8.5t-0.5 8.5t-0.5 6q0 1 -1.5 1h-2.5h-2q-8 -4 -9.5 -10t-0.5 -13q-1 -1 -2.5 -1.5t-2.5 -0.5h-1q-3 0 -3.5 2.5t-0.5 4.5q0 9 3 14t9 13zM163 67v14q0 2 2 2h2q3 0 3.5 -0.5
t0.5 -4.5q0 -1 0.5 -2.5t0.5 -3.5q0 -3 -0.5 -4.5t-0.5 -2.5q1 -2 3 -2t5 -0.5t6.5 -2t6.5 -4t5 -8t2 -14.5q0 -3 -0.5 -4.5t-3.5 -1.5h-4q-1 0 -2 2v8.5t-1.5 8t-4 5.5t-7.5 2q-2 0 -3.5 -0.5t-1.5 -3.5q0 -8 2 -16t2 -16q0 -3 -1 -3.5t-4 -0.5h-3t-2 2q0 1 -0.5 5l-1 8
t-0.5 7.5v4.5t0.5 2t0.5 2.5t0.5 3.5l0.5 2v2q0 4 -3 4h-1h-1q-7 -3 -9.5 -8t-3.5 -9.5t-2 -8t-3 -3.5t-2.5 1.5t-0.5 3.5v6t0.5 7.5t1.5 6.5t3 4z" />
</svg>
