<?xml version="1.0" standalone="no"?>
<!DOCTYPE svg PUBLIC "-//W3C//DTD SVG 1.1//EN" "http://www.w3.org/Graphics/SVG/1.1/DTD/svg11.dtd" >
<svg xmlns="http://www.w3.org/2000/svg" xmlns:xlink="http://www.w3.org/1999/xlink" version="1.1" viewBox="-10 0 266 256">
   <path fill="currentColor"
d="M71 181v4v4v3.5v1.5q0 1 0.5 4l0.5 3q1 6 0.5 14t0.5 15t4.5 12.5t12.5 6.5q5 1 9.5 1.5t9 0.5h9.5h10h12t10 -0.5t10.5 -1t12.5 -2.5q5 -2 9 -5.5t5 -9.5v-3.5v-4.5v-5v-3q0 -4 0.5 -9.5t0 -11t-2.5 -10t-7 -6.5h-19q-15 0 -30 2t-30 2q-5 0 -8 -0.5t-5.5 -1.5
t-3.5 -3.5t-1 -7.5v-9t2 -8q1 -3 8 -5.5t16.5 -4t20.5 -2.5t21 -1.5t18 -0.5t11 -1t4.5 -4.5t2 -7t0.5 -7v-5.5v-10q-1 -4 -5 -5h-33h-20h-17t-18 0.5t-20 1.5l-3 3v1v1l0.5 1.5t1.5 1.5h2.5h2.5q17 0 34 -1.5t35 -1.5h6h8.5h7.5h6q2 2 2 5v5v4.5t-1 5t-2.5 4t-3.5 1.5
q-3 1 -8 1t-12 0.5t-14.5 1t-14 1.5t-12 1t-7.5 1q-12 1 -18 3.5t-8.5 8t-2.5 13.5v19zM91 240q-3 -2 -5 -7t-3 -11.5t-0.5 -12.5t0.5 -9v-7l1 -2q1 0 6 -0.5t12.5 -1l15 -1t13.5 -0.5l3.5 -0.5t7.5 -0.5h8h6h5h5.5t4.5 0.5l2 0.5l3 5v37q0 4 -4 6.5t-10.5 4t-14 2t-14.5 1
t-12 0.5h-7h-6q-2 0 -4.5 -0.5t-5.5 -1t-7 -2.5zM86 72q2 2 2 5v6t0.5 5t2.5 4l4 -3q-1 -8 0 -11.5t3 -5t5 -2t5.5 -1.5t5 -3t3.5 -8t2 -11t1 -11q0 -5 -2 -5.5t-7 -0.5v26l-2.5 1.5t-3.5 2.5q-3 1 -3.5 1.5t-2.5 0.5q-3 0 -3 -0.5t-1 -3.5q-3 -9 -3 -17.5t1 -18.5
q0 -2 -1 -2.5t-2 -0.5q-2 0 -4 0.5t-2 2.5v41h-15l-1.5 -3t-1.5 -5q0 -1 -0.5 -4.5t-1 -7.5t-1.5 -7.5t-3 -3.5q-4 0 -5 2.5t-1 5.5q0 10 1.5 16t5 9.5t10 4.5t15.5 2zM137 41q0 7 1 15t6 14q1 2 4.5 2h7t6 0.5t2.5 2.5v14l1 0.5l1 0.5q1 1 2.5 1h1.5v-17l24 -6l3 -3
l0.5 -2.5t1.5 -6t1.5 -7.5t1.5 -6v-1v-1l-0.5 -2.5t-1 -5.5t-1.5 -5t-3 -2h-1l-1.5 1.5l-1.5 1.5v26q0 6 -4.5 7.5t-9.5 1.5q-1 0 -3 -0.5l-2 -0.5l-2 -1v-38q0 -2 -1.5 -2h-2.5h-2.5t-1.5 2v8q0 5 1 10.5t1 11.5t-1.5 8.5t-7.5 2.5q-5 0 -7.5 -4t-3.5 -9t-1 -10.5v-8.5
q0 -1 -1 -1h-1q-4 0 -4.5 3t-0.5 6z" />
</svg>
