<?xml version="1.0" standalone="no"?>
<!DOCTYPE svg PUBLIC "-//W3C//DTD SVG 1.1//EN" "http://www.w3.org/Graphics/SVG/1.1/DTD/svg11.dtd" >
<svg xmlns="http://www.w3.org/2000/svg" xmlns:xlink="http://www.w3.org/1999/xlink" version="1.1" viewBox="-10 0 266 256">
   <path fill="currentColor"
d="M44 247l1 1.5l1 1.5h65q1 0 4 -1t4 -1q2 0 6 -0.5t8 -0.5h8h6t6.5 -0.5t10.5 -0.5h13h13t10.5 0.5t6.5 0.5q2 -1 3.5 -2t1.5 -3v-1l-1.5 -1.5l-1.5 -1.5q-2 0 -6.5 -0.5t-9.5 -0.5t-9.5 -0.5t-5.5 -0.5t-3 0.5t-4 0l-4 -1t-2 -3.5v-1q0 -2 0.5 -7t0.5 -11.5v-14t0.5 -14
t0.5 -11.5v-6v-2v-2l-0.5 -3t-0.5 -6.5t-0.5 -7t-0.5 -4.5v0q0 -2 1 -4t1 -5q0 -5 -0.5 -10t-1.5 -12q-1 -1 -2.5 -3t-4 -4t-4.5 -3.5t-4 -1.5h-31q-5 0 -10.5 2t-9.5 5.5t-6.5 8t-3.5 10.5q1 17 0 32t-1 32v12v11.5t0.5 12t0.5 14.5h-42l-0.5 1l-0.5 1q0 1 -1 3t-1 3z
M47 241q2 0 2 2t-2 2q-1 0 -1 -2t1 -2zM97 234v-33l2 -1q12 -1 23 -2.5t23 -1.5h2h4h3.5h1.5l2 4v34q0 1 -1.5 1.5t-2.5 0.5q-9 2 -19 2h-19h-4.5h-5.5h-5h-2zM97 179v-4q0 -1 0.5 -4l1 -6t1 -5l0.5 -2l3 -3q7 -1 13.5 -2t13.5 -3h26l0.5 1.5t1 4.5t0.5 4v2q0 7 -1 12.5
t-1 11.5l-3 2h-53q-1 0 -1.5 -1.5t-1 -2.5t-0.5 -2.5v-2.5zM147 108q4 0 7.5 2t3.5 7v2q-1 2 -1 7.5t-0.5 9l-0.5 3.5l-2 2h-27q-5 2 -7 2.5t-6 0.5h-4t-4.5 -0.5t-4 -1.5t-1.5 -3v-19q0 -3 3 -5t8 -3.5t11 -2t11.5 -1t9.5 -0.5h4zM91 78v16q0 2 1 2h2q2 0 3 -1.5t1.5 -4
t0 -5t0.5 -3.5q0 -2 4 -3t8.5 -4.5t8.5 -10t4 -18.5v-3t-1 -2l-3 -4q-3 1 -4 4t-1.5 6t0 6.5t0 6.5t-2 5t-5.5 2t-5.5 -3.5t-1.5 -7.5v-31q0 -2 -1 -2h-3q-5 0 -5 6v3q0 1 0.5 5.5t1 9.5t1 9t0.5 5v0.5v0.5v1v0q-2 3 -3 4t-3 1q-3 0 -4.5 -1.5l-3.5 -3.5l-0.5 -1t-1.5 -1
l-3 -20q0 -1 -0.5 -1.5l-1 -1t-1.5 -1l-1 -0.5q-3 0 -4 2.5t-1 4.5q0 3 0.5 7t1.5 8.5t1.5 8t1.5 5.5q0 3 3 4t6 1h6h5zM157 89q0 3 1.5 4t3.5 3q3 -2 3 -4.5v-5.5v-5t2 -2q9 -1 14 -3t7.5 -6t3 -10.5t0.5 -16.5v-4v-4q-1 0 -2 -0.5l-1 -0.5h-1q-4 0 -4.5 5.5t-0.5 12
t-1.5 12t-7.5 5.5q-2 0 -4.5 -1t-2.5 -5q0 -7 1 -14.5t1 -15.5v-3.5t-0.5 -4l-1 -3t-2.5 -1.5h-1.5h-1.5q-2 5 -2.5 7.5t-0.5 7.5q0 6 1 11t1 11v7q-2 2 -4.5 3.5t-5.5 1.5t-4 -3l-2 -6q0 -1 -0.5 -4t-1 -7t-1 -7t-0.5 -4q-1 -1 -1 -2h-1q-2 0 -3 1.5t-1 3.5v2v2t0.5 2.5
t0.5 2.5v2l0.5 2.5t0.5 5t0.5 5l0.5 2.5q2 5 5 6.5t6.5 2.5t6 1.5t2.5 3.5q0 2 -1 3.5t-1 3.5z" />
</svg>
