<?xml version="1.0" standalone="no"?>
<!DOCTYPE svg PUBLIC "-//W3C//DTD SVG 1.1//EN" "http://www.w3.org/Graphics/SVG/1.1/DTD/svg11.dtd" >
<svg xmlns="http://www.w3.org/2000/svg" xmlns:xlink="http://www.w3.org/1999/xlink" version="1.1" viewBox="-10 0 266 256">
   <path fill="currentColor"
d="M115 211q0 4 5 8.5t13 9t18 8t18.5 6.5t16 4.5t10.5 1.5q2 0 3.5 -0.5t2.5 -2.5q1 -3 -2.5 -5.5t-9 -4.5t-12.5 -4t-13 -3t-11 -2t-6 -2q-1 0 -2.5 -1l-3 -2l-3 -2t-2.5 -1q-2 -1 -4 -2.5l-4 -3t-3.5 -3.5t-1.5 -4q0 -3 2 -5.5t4 -4.5q6 -2 15.5 -3t17.5 -2.5t13.5 -5.5
t5.5 -14q0 -8 -6 -12.5t-14.5 -6.5t-17.5 -2.5t-16 -0.5q-3 -1 -3.5 -3t-0.5 -4v-4t2 -4q3 0 10.5 -0.5t16.5 -1t16.5 -1t10.5 -0.5q10 -1 13.5 -5t3.5 -13q0 -3 -0.5 -4.5t-4.5 -1.5q-2 0 -3 1t-1.5 2.5t-1 3.5t-2.5 3q-5 2 -11 3.5t-13 2.5t-13.5 1.5t-12.5 0.5h-3.5h-2.5
l-2 -2v-16l42 -3q2 0 4 -2t3.5 -4t2 -4.5t0.5 -4.5t-1.5 -3t-3.5 -1q-3 0 -4 2t-2.5 4.5t-3 4.5t-4.5 2h-30v-2.5t-0.5 -3.5t-0.5 -3.5v-2.5q1 -2 3.5 -3.5t5.5 -2.5t5 -2.5t2 -3.5q0 -3 -2.5 -4t-4.5 -1t-5 2l-6 4t-5 4t-2 3q-2 1 -2 3v4v4t-2 3h-9q-7 0 -11 -1.5
t-6.5 -3.5t-4 -3.5t-3.5 -1.5q-4 0 -4 4q0 7 3.5 10.5t9.5 5t13 1.5h12l2 2v2v3v4t-0.5 3.5t-1.5 3t-4 1.5q-9 0 -19 0.5t-19 -3.5q-2 -1 -3 -4l-2 -6t-2.5 -5t-4.5 -2t-5.5 1.5t-1.5 4.5l0.5 1.5t1.5 3l2 3t1 2.5q1 0 1 2t1 4t2 3.5t3 1.5h47q1 0 1.5 2.5t0.5 3.5v2
q0 2 -6 6.5t-14 9.5l-16 10t-11 9t-5.5 13t-4 19.5t-2.5 19.5t-1 14q0 3 1.5 3.5t4.5 0.5t5 -4t3 -10t1.5 -13.5l1 -15t2 -13t3.5 -8.5q7 -8 14 -12t17 -9q3 -1 6.5 -3.5t6.5 -2.5h14.5t16 2t13 6t5.5 11q0 4 -4 6t-10 3t-13.5 2t-13.5 4t-10 8t-4 14zM79 61v4q0 2 0.5 4
t1.5 3.5t4 1.5h1l4 -15q0 -2 5 -3t11 -3t10.5 -7t4.5 -15q0 -5 -2.5 -6.5t-7.5 -1.5v17q0 1 -1 2t-2.5 2t-3 1.5t-2.5 1.5h-1.5h-2.5h-3.5h-2.5q-1 0 -1.5 -1l-0.5 -1v-30q0 -3 -3 -4t-5 -1v39q-8 0 -12.5 -1t-6 -3.5t-1.5 -7.5t1 -13q-1 0 -2 -1.5t-2 -1.5h-1h-1l-1.5 1
l-1.5 1v27q0 1 1 2t3 2t3.5 2t3.5 2l2 0.5t4.5 1t4.5 1t3 0.5zM137 32q0 4 0.5 8t2.5 7.5t5 6t8 2.5h2h3h3h1q3 1 3.5 2.5t0.5 4v4.5t2 3q4 0 4.5 -1.5t0.5 -4v-5t4 -3.5q10 0 16 -1t8.5 -5t3.5 -9.5t1 -14.5q0 -2 -2 -3.5t-5 -1.5h-1q-1 2 -1.5 6t-1 8.5t-1.5 8t-5 3.5h-12
v-32q0 -1 -1.5 -2t-2.5 -1q0 -1 -1 -1q-2 0 -4 2.5t-2 4.5v29h-16l-4 -4v-17q0 -3 -1 -3h-3h-3.5t-1.5 1v8z" />
</svg>
