<?xml version="1.0" standalone="no"?>
<!DOCTYPE svg PUBLIC "-//W3C//DTD SVG 1.1//EN" "http://www.w3.org/Graphics/SVG/1.1/DTD/svg11.dtd" >
<svg xmlns="http://www.w3.org/2000/svg" xmlns:xlink="http://www.w3.org/1999/xlink" version="1.1" viewBox="-10 0 266 256">
   <path fill="currentColor"
d="M147 126h6t8 0.5t7 2t3 5.5v63q0 2 1.5 7t4 11t5.5 12.5t6 12t6 9t5 3.5t4.5 -1t2.5 -4t-2 -6.5t-5 -7t-5.5 -7t-3.5 -6.5q-4 -9 -7.5 -20t-3.5 -21q0 -11 2.5 -22.5t2.5 -22.5v-7q-2 -4 -8.5 -6.5t-14.5 -3t-15 -0.5h-11l-2 -1q0 -1 -0.5 -3.5l-1 -5t-1 -5.5t-0.5 -5v0
q0 -1 0.5 -1.5l0.5 -0.5h61q1 0 1 -2v-3v-3t-3 -1h-5.5h-7.5h-7h-5h-7h-8h-7h-4q-2 0 -8 0.5t-13 1t-13 1t-8 0.5q-5 1 -9 2.5t-7.5 3.5t-5.5 6t-2 9q0 6 2 11t5 10t5 10.5t2 11.5q0 8 -2 16.5t-5 17t-6.5 16.5t-6.5 14q-2 2 -4.5 6t-5.5 8t-5.5 8t-2.5 6q0 3 1.5 3.5
t3.5 0.5q5 0 10 -6.5t9.5 -16.5t9 -21.5t7.5 -23t5 -21t2 -13.5q0 -6 -2.5 -11t-5 -9.5t-5 -8.5t-2.5 -6q0 -6 2.5 -9t6.5 -5t9 -2.5t9 -0.5q5 0 8 2t3 8v37q0 3 -1 6t-3 5.5t-4 5.5t-3 5q-3 7 -4.5 14t-1.5 14q0 3 0.5 6t2 6t4 5t6.5 2h23q3 0 4.5 -2l3 -4t2 -5t0.5 -5
q0 -5 -1.5 -10.5t-1.5 -11.5q0 -3 1 -5.5t2.5 -5t2.5 -5t2 -5.5q0 -3 -1.5 -3.5t-2.5 -0.5q-4 0 -6 2.5t-3.5 6t-2 7t-0.5 5.5q0 6 1 11t1 11q0 7 -3 9.5t-10 2.5t-11.5 -4t-4.5 -11q0 -9 3.5 -16t7.5 -14.5t7.5 -14.5t3.5 -16h3t4 -0.5t4 -0.5h3zM63 30q0 7 1.5 13.5
t5.5 12.5q1 2 4 2.5t6 0.5t6 0.5t3 1.5v17l1 0.5t2 1.5h1q2 0 3 -2.5t1.5 -6.5t2 -7.5t6.5 -5.5q10 -4 13 -11t3 -16v-8q-1 -2 -2 -2.5t-4 -0.5h-2t-1 2v6.5t-1 9t-3 7.5t-6 3h-3q-2 0 -2 -1v-33q0 -1 -1.5 -3t-3.5 -2l-1 0.5t-2 1.5l-0.5 0.5t-0.5 1.5v37q-1 0 -5 1t-5 1
q-5 -2 -5.5 -6.5t-0.5 -10t-0.5 -9.5t-4.5 -4q-3 0 -5 1v3.5v3.5zM139 31q0 4 0.5 8t1.5 8t5 6t8 3t7.5 2l3.5 1v19q3 0 5 -2t3 -4.5t1 -6v-6.5l2 -1l2 -0.5t4.5 -1t4.5 -1t3 -0.5t3 -1t3.5 -2t3 -2.5t1.5 -2.5v-25q0 -2 -1.5 -2.5t-3.5 -0.5q-3 0 -4 3q0 1 -0.5 4t-1 5.5
t-0.5 5.5v4q-1 2 -3 3t-5 1h-5.5h-3.5q0 -6 0.5 -12t0.5 -12q0 -2 -0.5 -5.5t-5.5 -3.5v0.5v0.5q-1 0 -2.5 1l-1.5 1v32h-14v-25l-2 -0.5t-2 -1.5h-1q-2 0 -3.5 1t-2.5 2v8z" />
</svg>
