<?xml version="1.0" standalone="no"?>
<!DOCTYPE svg PUBLIC "-//W3C//DTD SVG 1.1//EN" "http://www.w3.org/Graphics/SVG/1.1/DTD/svg11.dtd" >
<svg xmlns="http://www.w3.org/2000/svg" xmlns:xlink="http://www.w3.org/1999/xlink" version="1.1" viewBox="-10 0 266 256">
   <path fill="currentColor"
d="M51 141v2q0 1 0.5 4t0.5 6.5t0.5 6.5t0.5 4v16t0.5 18t2 17.5t5.5 15.5t10 12t17 6h3h6h5h4h5h6h5h2l2 -0.5t4.5 -1t4.5 -1t3 -0.5q5 -5 9 -13.5t9 -17.5t10 -15.5t12 -6.5q4 0 7 0.5t5.5 2.5t4.5 4.5t5 5.5h12q0 -4 -3 -8.5t-8 -7.5t-10.5 -4.5t-9.5 -1.5q-10 0 -16 4.5
t-10 11t-7.5 14t-8.5 14t-12.5 11t-20.5 4.5q-21 0 -32 -12t-11 -33q0 -4 -0.5 -13t-0.5 -19t0.5 -19t0.5 -12q-1 -2 -2.5 -2h-2.5q-7 0 -7 8zM86 193q2 3 4.5 7t5.5 6q1 0 5 0.5t5 0.5h5q4 0 8 -1t7 -2.5t3 -5.5v-19l2 -1l7.5 -2.5t9.5 -3t8.5 -4.5t4.5 -8q1 -1 1.5 -6
t1.5 -10.5t1.5 -10.5t0.5 -7v-1v-3.5v-2.5v-3v-5v-5q-1 -3 -2.5 -3.5t-3.5 -0.5t-3 0.5t-3 3.5v6.5v10t-0.5 10.5t-0.5 7q-1 4 -2 8.5t-3 8.5t-5 6t-8 2h-2.5t-1.5 -1v-69h-5h-5l-1 1l-1 1q0 3 0.5 11.5t0.5 17.5q0 10 -0.5 18t-0.5 11q0 5 -0.5 11.5t-1 12.5t-1 10.5
l-0.5 4.5l-3 4h-14l-0.5 -0.5t-0.5 -1.5q-1 -1 -2 -3.5t-2 -4.5t-1.5 -3.5l-0.5 -1.5v-74l-1 -0.5t-2 -1.5v0h-1l-2 2l-2 2v5v8.5v8.5v5q0 15 0.5 27.5t1.5 27.5zM76 87q0 2 1 3.5t3 1.5q4 0 5.5 -1.5t2 -4t0 -6t-0.5 -6t1 -5t3 -3.5q8 -2 13 -4.5t7 -5.5t2.5 -8.5
t0.5 -14.5v-6q-1 -2 -2 -3t-3 -1q-3 0 -4 2.5t-1.5 6t-0.5 8t-1 8t-3 6t-6 2.5q-3 0 -4 -0.5t-1 -3.5v-5v-4.5t0.5 -7.5t0.5 -8v-5q0 -2 -1.5 -6t-4.5 -4h-2.5t-1.5 2v37q0 3 -2.5 5t-4.5 2q-6 0 -8.5 -4t-3.5 -9.5t-2 -10t-5 -4.5q-5 0 -5 5q0 10 2 16t5.5 9.5t7.5 4.5
t7 1.5t5.5 1t2.5 2.5q0 5 -1 9t-1 8zM139 30v5v4q1 12 2.5 18.5t3.5 9t4.5 2.5h4.5t4 1t3 5l0.5 2t0.5 4t0.5 4l0.5 2l0.5 0.5l0.5 0.5q1 0 3 -0.5l2 -0.5q1 0 2 -1l1 -1v-13q0 -2 4 -2.5t8.5 -1.5t8.5 -3t5 -6l0.5 -2.5t1 -6.5t1 -7.5t0.5 -5.5v-1v-1q-1 0 -2 -1.5l-1 -1.5
q-3 -1 -4.5 3t-2.5 9.5t-3.5 9.5t-7.5 4h-3h-3l-0.5 -0.5t-0.5 -1.5v-34q0 -2 -1.5 -3.5t-3.5 -1.5h-2q-1 0 -2.5 0.5t-1.5 1.5v40q0 3 -1.5 3.5t-2.5 0.5q-4 0 -7 -3.5t-3 -6.5q-1 -2 -1.5 -5t-1 -6.5t-1 -6.5t-0.5 -5h-5z" />
</svg>
