<?xml version="1.0" standalone="no"?>
<!DOCTYPE svg PUBLIC "-//W3C//DTD SVG 1.1//EN" "http://www.w3.org/Graphics/SVG/1.1/DTD/svg11.dtd" >
<svg xmlns="http://www.w3.org/2000/svg" xmlns:xlink="http://www.w3.org/1999/xlink" version="1.1" viewBox="-10 0 266 256">
   <path fill="currentColor"
d="M137 145q0 15 1.5 29.5t3.5 29.5q0 2 2 9.5t4.5 15.5t5 14t5.5 6q2 0 3 -0.5t1 -3.5t-1 -6.5t-3 -7t-3.5 -6.5t-2.5 -6q-5 -16 -6.5 -32t-1.5 -33v-4v-6.5v-6.5v-5q0 -3 1.5 -4.5t4 -2.5t5 -1h4.5q1 0 3.5 -0.5t2.5 2.5q1 4 2 14t3.5 22t5.5 24.5t6 23t6.5 17.5t7.5 7
q2 0 3 -2.5t1 -4.5q0 -5 -3 -10t-5 -10q-4 -9 -7 -18.5t-5.5 -20t-3.5 -20.5t-1 -19q0 -5 2.5 -6.5t6 -2t7.5 -0.5t7 1l2 -2t1 -2v0q0 -3 -1.5 -4.5t-4.5 -1.5h-3h-4.5t-5 0.5t-4 1t-5.5 1t-8.5 1.5t-8.5 1.5t-5 0.5q-5 1 -8 4t-4.5 7t-2 8.5t-0.5 8.5zM53 131v5
q1 3 1.5 10.5t1 14.5t1 13t0.5 7q1 10 3 14.5t5.5 6.5t9 2.5t13.5 2.5q6 1 12 2.5t13 1.5h3t3 -1q2 0 2 -3.5v-3.5h-25l-3 -4v-22q11 -1 16.5 -4.5t7.5 -9t1.5 -14t0.5 -18.5v-7v-7l-1.5 -0.5l-1.5 -0.5h-1v0h-1v0l-0.5 0.5t-1.5 0.5v6.5t-0.5 9t-0.5 9v5.5q-1 3 -1 7t-1 7
t-3.5 5.5t-6.5 2.5h-1v0l-2.5 -1.5l-2.5 -1.5v-52q0 -1 -1.5 -1.5t-2.5 -0.5q-2 0 -2.5 1t-0.5 4v24v11t-0.5 17t-1 17t-0.5 11q0 2 -1 2h-3q-5 0 -7.5 -3t-4 -7.5t-2.5 -9.5t-1 -8q0 -2 -0.5 -5l-1 -6t-0.5 -6v-3v-6.5v-9.5v-9.5v-6.5q0 -1 -1.5 -1.5t-2.5 -0.5
q-3 0 -4 1.5t-1.5 4t-0.5 4.5v4zM60 43q0 6 -0.5 10t1.5 10q1 2 5 3.5t7.5 2t6.5 2t3 3.5v27l1.5 1t1.5 0q3 0 4 -4t1 -6v-19q0 -2 3.5 -2.5t7 -1.5t6.5 -3t4 -7q0 -1 0.5 -4t1 -6.5l1 -7t1.5 -5.5v-2q0 -2 -1.5 -2.5t-3.5 -0.5q-3 0 -4.5 2t-1.5 5.5v8t-1 7.5t-3.5 5.5
t-7.5 2.5v-44q0 -3 -2 -3.5t-3 -0.5q-2 0 -3.5 0.5t-1.5 3.5v43q-1 0 -4 1t-5 1q0 -1 -1.5 -1.5t-2.5 -2t-2 -2.5l-1 -1v-25l-1.5 -1t-2.5 -1l-1.5 1l-1.5 1v12zM158 101l0.5 0.5t1.5 0.5l1 1v-0.5v-0.5q1 0 2 -1l2 -2v-7.5v-8.5t1.5 -7.5t6.5 -4.5l1.5 -0.5t3 -0.5t3 -0.5
t2.5 -0.5q4 -2 6 -5.5t3 -8t1 -8.5v-9v-4v-5q-1 -1 -2 -3t-3 -2v0l-2 2v10t-1 11.5t-4 9.5t-9 4h-3t-3 -2v-2.5v-3.5v-4v-3q0 -6 1 -12.5t1 -12.5q0 -3 -1 -6t-5 -3l-1 0.5l-1 0.5q-2 4 -1.5 12.5t0.5 16.5t-1.5 14.5t-6.5 6.5h-2q-2 0 -3.5 -0.5t-1.5 -1.5v-30
q0 -1 -1.5 -1.5t-2.5 -0.5q-3 0 -4 3t-1 6l0.5 1t0.5 2t0.5 2l0.5 1v4t0.5 6t0.5 6v4q3 4 5.5 5t4.5 1h4t5 3q1 6 1 13.5v14.5z" />
</svg>
