<?xml version="1.0" standalone="no"?>
<!DOCTYPE svg PUBLIC "-//W3C//DTD SVG 1.1//EN" "http://www.w3.org/Graphics/SVG/1.1/DTD/svg11.dtd" >
<svg xmlns="http://www.w3.org/2000/svg" xmlns:xlink="http://www.w3.org/1999/xlink" version="1.1" viewBox="-10 0 266 256">
   <path fill="currentColor"
d="M133 245q0 1 0.5 3t1.5 3q2 0 4.5 -2t3.5 -3q0 -1 -0.5 -3t-0.5 -5q0 -2 0.5 -4t0.5 -3q0 -3 0.5 -8t1.5 -11.5t1.5 -12t0.5 -7.5q2 -3 2.5 -7.5t2.5 -7.5q3 1 5.5 7t5 14t4.5 17t4.5 16.5t5 12.5t5.5 5q2 0 3 -1t1 -3q0 -3 -1.5 -7t-3.5 -8l-4 -8t-3 -7l-15 -46v-3
q0 -4 5 -7t11 -5.5t10.5 -4.5t4.5 -6q0 -1 -1 -1.5t-2 -0.5q-4 0 -7.5 1.5t-7 4t-6.5 4t-6 1.5h-1q-3 -5 -4.5 -11t-1.5 -12q0 -1 0.5 -2.5t2.5 -0.5h16.5t16.5 -2q1 0 3 -1t2 -3t-2 -2h-3q-8 0 -15.5 1t-15.5 1h-2q0 -1 -1.5 -1.5l-1.5 -0.5v-17l22 -4q3 -1 4.5 -4.5
t2 -7.5t0.5 -8v-6q-5 0 -6 2.5t-1.5 5.5t-0.5 6.5t-4 4.5q0 1 -2 1t-4.5 1t-4.5 1t-3 1v0h-1l-1.5 -1.5l-0.5 -0.5v-23q0 -1 -1 -1.5t-2 -0.5h-2h-2v53h-22l-1 1l-2 2v0v0q0 2 2 3t3 1h20l1 2l1 3t1.5 7t1.5 8t1 7v2v3q0 3 -1 6t-2.5 6t-3.5 6t-2 6q-4 15 -7 30.5t-3 31.5z
M101 242q0 2 0.5 3t3.5 1h2t2 -1v-11.5v-16.5v-20v-20v-17v-11q0 -8 1 -15t2 -14.5t2 -14.5t1 -15q0 -2 -1.5 -4t-3 -3.5t-4 -2.5t-3.5 -1h-37q-1 0 -1.5 1l-0.5 1l-2 3q2 3 5 3h5.5t5 0.5t2.5 3.5q0 14 -3.5 28.5t-4.5 27.5q-3 22 -5.5 44.5t-2.5 44.5v5.5t4 3.5
q2 0 3 -0.5t2 -2.5q1 -17 2.5 -34t3.5 -33.5t3.5 -33.5t3.5 -34q1 -3 2.5 -8.5t1.5 -8.5q3 -2 5 -2.5t5 -0.5q4 0 5.5 4t1.5 8q0 5 -0.5 12l-1 14t-1.5 14t-1 13q0 3 -0.5 10t-0.5 15v17.5t-0.5 18t-0.5 15v9.5v2v3zM89 51v18q3 0 4 -2t1.5 -4t0.5 -5v-5q1 -2 3.5 -3t5 -1.5
t5.5 -1t4 -1.5q2 -1 3 -5t1.5 -9t0.5 -9.5v-5.5v-4l-3 -1h-1h-1l-1 1l-2 2v18q0 4 -0.5 5.5t-2 2t-4 0t-5.5 -0.5v-30l-1.5 -1.5l-1.5 -1.5l-3 2q-1 0 -2 0.5l-1 0.5v30l-0.5 0.5t-1.5 0.5h-1.5h-2.5q-6 0 -7.5 -4t-1.5 -9t-0.5 -9t-4.5 -4q-3 0 -3 1v3v5.5t0.5 9t2 9
t3.5 4.5zM136 20q0 11 2 16.5t4.5 8t5 3t5 1.5t4.5 3t2 7h4q0 -4 2 -6.5t5 -3.5l6 -2t6 -3t5 -7t2 -14v-7l-3 -3h-1h-1q0 1 -1 2t-2 1q1 3 1 7t-1 8.5t-3 7t-6 2.5h-4.5t-1.5 -3q0 -4 0.5 -7t0.5 -7v-1v-3t-0.5 -4t-0.5 -3.5v-2.5l-0.5 -0.5t-1.5 -0.5l-2 0.5t-3 0.5v3
t-0.5 4t-0.5 4v3v3.5v5.5v5.5v3.5q-2 0 -4 0.5t-4 0t-3 -1.5t-1 -5q0 -1 -0.5 -3.5t-0.5 -5.5t-0.5 -5.5t-0.5 -3.5h-3h-3t-2 2z" />
</svg>
