<?xml version="1.0" standalone="no"?>
<!DOCTYPE svg PUBLIC "-//W3C//DTD SVG 1.1//EN" "http://www.w3.org/Graphics/SVG/1.1/DTD/svg11.dtd" >
<svg xmlns="http://www.w3.org/2000/svg" xmlns:xlink="http://www.w3.org/1999/xlink" version="1.1" viewBox="-10 0 266 256">
   <path fill="currentColor"
d="M176 204v45q0 1 2 2h1q2 0 3 -2t1.5 -4.5t0.5 -5v-3.5q0 -19 -2.5 -36.5t-2.5 -36.5v-5q0 -3 1 -4l0.5 -2l0.5 -2q0 -4 -2.5 -8t-5.5 -6q-9 -2 -14.5 -2h-14.5q-11 0 -22 1t-23 1h-3h-5h-4h-3q-3 0 -4 -2.5t-1 -4.5v-1q1 -1 1 -3t0.5 -4l1 -4t0.5 -3q1 0 4 -0.5t5.5 -1
t5.5 -1t4 -0.5l2.5 -0.5t5.5 -0.5t5 -0.5t3 -0.5t2 -0.5l1 -0.5h2.5h3.5h4h3q14 0 28 1t29 1q0 -3 -0.5 -4.5t-2 -2.5t-4 -1t-5.5 -1h-29q-14 0 -26.5 1.5t-26.5 2.5q-6 0 -10 0.5t-6.5 1.5t-4.5 4t-2 9q-1 1 -1 4t-0.5 5.5t-0.5 5v2.5v21v21q4 7 7 11.5t6.5 7.5t8.5 4t15 1
q16 0 31.5 -2t31.5 -2q1 0 2.5 0.5l1.5 0.5zM79 179q0 -3 2 -4.5t5 -1.5t9.5 -0.5t14.5 -0.5t17 -0.5t17 -0.5t14.5 -0.5t9.5 -0.5h2h3q1 4 1.5 8.5t0.5 8.5q0 3 -0.5 4t-3.5 2q-8 1 -15.5 1.5t-14.5 1t-14 0.5h-15q-4 0 -9.5 -0.5t-10.5 -2.5t-9 -5.5t-4 -8.5zM79 157v-6
t3 -6h2t2.5 -0.5l3 -1t2.5 -0.5q3 0 9.5 -0.5t13.5 -1t12.5 -1t7.5 -0.5h12q5 0 10 0.5t8.5 2t5.5 5t2 9.5q0 3 -1 4.5t-6 2.5q-20 1 -40.5 1t-41.5 2l-5 -5v-2v-3zM88 83v2.5t0.5 3t0.5 3v2.5q1 2 1 3.5t2 1.5q3 0 3 -2t0.5 -5t1.5 -6t5 -5q1 0 3.5 -1.5t3.5 -1.5
q3 -2 5 -7t3.5 -10.5t1.5 -11v-8.5h-3t-4 1v3.5v5.5v4v3q0 2 -1 4.5t-2.5 5t-3.5 4.5t-4 2h-2t-2 -2q0 -2 0.5 -6t0.5 -9t-0.5 -9.5t-0.5 -6.5v-6.5t-0.5 -7.5t-0.5 -6.5v-2.5l-2 -2l-4 3v56q-4 0 -8.5 -1t-7.5 -5v-8v-10t-1.5 -8.5t-6.5 -3.5q-3 0 -4 1t-1 3v1q0 1 0.5 2.5
t1.5 2.5l1 1.5l1 1.5v5.5t0.5 9.5t2 8.5t3.5 4.5q3 0 5 0.5t4 0.5t3.5 0.5zM138 42v7.5t1 9.5t2 9.5t2 6.5t4 2.5t5.5 1.5t4.5 2t3 2v2.5t0.5 3t0.5 3.5v2q1 1 1.5 2l0.5 1h1q2 0 2.5 -1.5t0.5 -2.5q0 -2 -0.5 -3.5t-0.5 -2.5q3 -4 6 -5.5t6 -2.5l6 -2t5 -4t3.5 -8.5
t1.5 -15.5v-5v-5q0 -1 -1 -1h-2h-2t-1 1v19q-2 3 -2.5 5.5t-2 4t-3.5 3t-5 1.5h-3.5t-2.5 -2v-52q0 -2 -1 -2h-2q-5 0 -5 4q0 8 1 16t1 16q0 6 -0.5 11.5t-0.5 11.5q-7 0 -10.5 -3t-4.5 -7t-1 -9v-9q0 -4 -1 -6.5t-4 -2.5q-2 0 -2.5 1t-0.5 3z" />
</svg>
