<?xml version="1.0" standalone="no"?>
<!DOCTYPE svg PUBLIC "-//W3C//DTD SVG 1.1//EN" "http://www.w3.org/Graphics/SVG/1.1/DTD/svg11.dtd" >
<svg xmlns="http://www.w3.org/2000/svg" xmlns:xlink="http://www.w3.org/1999/xlink" version="1.1" viewBox="-10 0 266 256">
   <path fill="currentColor"
d="M183 107q0 20 1 38t2 37q2 16 1.5 31.5t2.5 30.5q0 2 1.5 3.5t3.5 1.5t3 -1.5t1 -3.5q0 -5 -1.5 -10t-1.5 -10q-2 -30 -3 -59.5t0 -59.5q-1 -6 -4.5 -10t-8.5 -6t-11 -3t-12.5 -1h-12.5h-10q-1 -2 -1 -4t0.5 -3.5t0.5 -3.5q0 -5 -3.5 -5.5t-6.5 -0.5v19q-9 0 -19 0.5
t-18 3t-14 8.5t-7 17q0 4 -0.5 12t-1.5 17t-1.5 16.5t-1.5 10.5v18t-0.5 18l-1 18t-2.5 18v1q0 2 1.5 2h2.5h3q2 0 2 -1q3 -14 4 -29t1.5 -30.5t1 -30.5t1.5 -29q0 -1 0.5 -4.5l1 -7t1.5 -7t2 -4.5q2 -3 7 -5t11 -3t11.5 -1.5t9.5 -0.5h5q2 2 2 6v5v8q-4 1 -10.5 2t-13 2.5
t-10.5 5t-4 9.5q0 7 2 12t4 9t4.5 7t2.5 6q0 4 -1.5 7t-2.5 6t-2.5 6t-1.5 7q-1 5 -1.5 9t-0.5 7.5v7.5v9v14q0 3 1 3.5t2 0.5q2 0 3.5 -1t1.5 -3v-1l-0.5 -2t-0.5 -3.5t-0.5 -3t-0.5 -2.5v-2v-3q1 -2 1 -6.5t0.5 -9t0.5 -8v-3.5q0 -2 0.5 -5.5t1.5 -7t2.5 -6.5t3.5 -3
t3.5 2t3.5 4t4.5 4t6.5 2q0 -3 -1.5 -5t-3.5 -4t-3.5 -4t-1.5 -5q0 -2 1.5 -3.5l3.5 -3.5t4.5 -3t3.5 -1q2 0 6.5 4t9 9.5t7.5 10t3 5.5q0 3 -2.5 6t-5.5 7t-5.5 9.5t-2.5 11.5q0 3 3 7t6.5 8t7.5 7t7 3t4 -0.5t1 -3.5t-3 -5t-6.5 -4.5t-6.5 -7t-3 -12.5q0 -4 2 -7.5t5 -6.5
t5 -6.5t2 -7.5q0 -5 -3.5 -8t-7.5 -6t-7.5 -6t-3.5 -8q0 -3 3 -4t7 -2t7 -3.5t3 -8.5q0 -5 -0.5 -9t-0.5 -8q0 -2 2 -3t4 -1.5t4.5 -1t3.5 -3.5l-1 -1h-3h-3q-6 0 -11.5 1t-11.5 1h-4t-4 -1q-3 -1 -3 -5v-7v-2.5t2 -2.5h7t11 -0.5t11 -0.5h7h2q6 0 9 4.5t3 9.5zM101 156
q-4 -5 -5.5 -9t-1.5 -10v-3.5t1 -3.5q2 -2 4.5 -4t6 -3t7 -1.5t6.5 -0.5q4 0 6 3q1 6 1 9.5v9.5v3.5v3.5t-3 2.5t-6.5 2.5t-6 2t-3.5 1h-3.5t-2.5 -2zM131 127q0 -6 3.5 -7.5t9.5 -1.5h4q3 2 3.5 6t0.5 7q0 7 -3 11t-10 4q-3 0 -4.5 -2.5t-2.5 -5.5t-1 -6v-5zM65 33
q0 10 2 15.5t4.5 8.5t6 3.5t6.5 0.5t5 0.5t2 2.5v12l1 0.5l1 0.5l0.5 0.5l0.5 0.5l0.5 -0.5l0.5 -0.5l1.5 -1l1.5 -1v-13q0 -1 3.5 -2.5t8 -4.5t8.5 -8.5t4 -13.5q0 -3 -1.5 -6.5t-5.5 -3.5q-1 0 -1.5 0.5l-1.5 1.5v7q0 4 -0.5 8.5t-3 7.5t-6.5 3h-2.5t-1.5 -1v-34
q0 -1 -1.5 -1.5t-2.5 -0.5t-2 0.5t-2 3.5v16.5t-1 16.5q-3 3 -6 3q-4 0 -6 -3.5t-3 -8.5t-1 -10t-1 -7h-0.5h-1.5q-3 0 -4 2.5t-1 5.5zM143 27q0 2 0.5 5t0.5 6t0.5 5.5t0.5 4.5q1 5 4.5 7t6.5 3t5.5 1.5t2.5 2.5v13l0.5 0.5t1.5 0.5h1q3 0 5 -2.5t2 -5.5l-1 -2.5t-1 -3.5
q1 -3 3 -4t5 -1t6.5 -0.5t6 -3t4.5 -8t2 -15.5v-4v-4l-0.5 -0.5l-0.5 -0.5h-1q-4 0 -5.5 2t-1.5 5.5v7.5t-0.5 7.5t-2 5.5t-5.5 2q-2 0 -5 -0.5t-3 -2.5v-34l-0.5 -0.5t-1.5 -0.5q0 -1 -1.5 -1.5l-1.5 -0.5q-1 0 -3 1.5t-2 3.5v32q0 2 -1.5 3.5t-3.5 1.5q-1 0 -2.5 -0.5
l-3 -1t-2.5 -2t-1 -2.5v-20h-7z" />
</svg>
