<?xml version="1.0" standalone="no"?>
<!DOCTYPE svg PUBLIC "-//W3C//DTD SVG 1.1//EN" "http://www.w3.org/Graphics/SVG/1.1/DTD/svg11.dtd" >
<svg xmlns="http://www.w3.org/2000/svg" xmlns:xlink="http://www.w3.org/1999/xlink" version="1.1" viewBox="-10 0 266 256">
   <path fill="currentColor"
d="M111 242q0 3 1 5t4 2q2 0 3.5 -0.5t2.5 -2.5v-10.5v-11t0.5 -11t0.5 -9.5q1 0 4 -0.5t4 -0.5q2 0 6 -0.5t8 -0.5t8 -0.5t5 -0.5t3 -1t2 -2v0v-1q0 -1 -1.5 -2l-1.5 -1h-2t-2 0.5t-2 0.5h-2t-3 0.5t-4.5 0.5t-4.5 0.5l-2 0.5h-4h-5h-5h-4v-15l2 -1l3 -0.5t7.5 -0.5t9 -0.5
t7.5 -0.5h5l-0.5 -3t-1.5 -3h-29l-0.5 -0.5l-0.5 -0.5v-2v-3v-4.5t3 -2.5q8 -1 13.5 -2t8.5 -3.5t4 -7.5t1 -13q-5 0 -6 3t-2 6.5t-4 6t-12 2.5h-5l-0.5 -0.5l-0.5 -0.5v-26l-2 -1t-3 -2h-0.5h-1.5v30q0 1 -1 1t-2 0.5t-2 0.5h-1q-7 0 -9 -4t-2.5 -8.5t-1.5 -8t-4 -3.5
t-3.5 1.5t-0.5 3.5q0 8 2 13t5 8t6.5 4t6.5 1.5t5 1t2 1.5t-1 4.5t-2 4.5q0 1 -0.5 1.5l-0.5 0.5h-24l-1.5 1.5t-1.5 2.5v1v1l0.5 1l0.5 1h27v14l-3 3h-33q-2 0 -3.5 1.5t-1.5 3.5v1l0.5 0.5l0.5 0.5h28l3.5 -1t4.5 -2v0h1q3 0 4 2t1 5v6v4q0 6 -1.5 11t-1.5 10zM184 165v75
q0 2 1.5 2h2.5q2 0 4 -1.5t2 -3.5l-1 -36v-6l-4 -53l-5 -15q-1 -4 -5.5 -5.5t-10 -2.5t-12 -1t-11.5 -1.5t-8.5 -4.5t-3.5 -8v-1l45 -7q6 -2 8.5 -7t2.5 -10v-5.5t-0.5 -6.5t-1.5 -5.5t-4 -2.5q-4 0 -4 2t-0.5 4t-3 4t-10.5 2v-17q0 -2 3.5 -3.5t7.5 -3l8 -3t6 -4.5v-6v-3
v-4t-1 -3.5t-4 -1.5t-3 3.5v7.5t-2 7t-8 3q-2 0 -4 -0.5t-2 -2.5v-25l-4 -3l-4 3v28q0 1 -2 1.5l-2 0.5q-6 0 -7.5 -3.5t-2.5 -8t-1.5 -8t-3.5 -3.5q-2 0 -3 0.5t-1 1.5v1q0 1 0.5 2.5t0.5 2.5q2 6 3 9.5t2.5 5.5t5 3.5t10.5 3.5v23h-22q0 -3 -2 -3.5t-3 -0.5q-2 0 -3 1
t-1 2t-0.5 2t-2.5 2q-12 2 -26.5 3t-27.5 1q-1 1 -3 2.5t-2 3.5h10h10.5t10.5 -0.5t9 -0.5l8 -2t9 -1q1 0 2.5 0.5t1.5 2.5q0 6 -1 8.5t-3 3t-4.5 0.5t-5.5 2l-42 5l-1 1l-2 2v0v1q0 2 2 2h4q6 0 12.5 -1t12.5 -2.5t12.5 -3t11.5 -1.5l0.5 0.5l0.5 0.5q2 1 2.5 2.5t1.5 3.5
t3 4t7 4q0 1 2.5 1.5t5 1.5t4.5 2t3 1q4 1 8 1.5l8 1t7 2.5t5 7q3 7 3 14t2 14zM133 96v-11l3 -3h4t6.5 -0.5t6 -0.5h4.5q0 -1 3 -2l3 -1q1 0 3 -0.5t3 -0.5t3.5 0.5t3.5 0.5t1.5 0.5t0.5 1.5q0 3 -0.5 6.5t-3.5 4.5q-9 1 -19.5 2.5t-19.5 3.5zM88 53q0 5 -0.5 9.5
t-0.5 10.5q2 0 4.5 -1t3.5 -4q0 -1 -0.5 -3t-0.5 -4.5t0.5 -4.5t2.5 -4l2 -0.5t4.5 -1t4.5 -2t3 -2.5l3.5 -7t1.5 -7t-2 -6.5t-6 -2.5v5t-1 6t-2 5.5t-4 2.5h-1.5h-1.5v-3t-0.5 -4t-0.5 -4v-2q0 -1 -0.5 -3l-1 -4t-1.5 -4t-3 -2h-1l-0.5 1t-1.5 1v5q0 3 1 5.5t1 4.5
q0 4 -1.5 7t-5.5 3h-1q-1 -1 -3.5 -3t-2.5 -3q-1 0 -1.5 -2l-1 -4l-1 -4t-0.5 -3t-1 -2t-2 -1q-2 -1 -4 0.5t-2 3.5t1 6t2.5 7.5t3.5 6t4 3.5h2.5t3.5 0.5t4 0.5h3q1 1 1 2v2z" />
</svg>
