<?xml version="1.0" standalone="no"?>
<!DOCTYPE svg PUBLIC "-//W3C//DTD SVG 1.1//EN" "http://www.w3.org/Graphics/SVG/1.1/DTD/svg11.dtd" >
<svg xmlns="http://www.w3.org/2000/svg" xmlns:xlink="http://www.w3.org/1999/xlink" version="1.1" viewBox="-10 0 266 256">
   <path fill="currentColor"
d="M178 247q0 2 2 2.5t4 0.5h4t1 -3v-15q0 -19 -1.5 -38t-3.5 -38q0 -1 -0.5 -4l-1 -6t-1 -5.5t-0.5 -3.5q-10 -8 -20.5 -12t-23.5 -5v-16q1 0 5.5 -0.5t9 -0.5t9 -0.5t5.5 -0.5q10 -1 16 -7.5t11 -13.5q0 -1 0.5 -2.5t0.5 -2.5l-2 -1t-3 -2v0h-1q-3 0 -5 2t-3.5 4.5t-2.5 5
t-2 3.5q-4 3 -9 4.5t-10 1.5h-10.5h-8.5v-26l-2.5 -1l-2.5 -1h-1h-1l-5 6v22h-5.5h-7.5h-7.5h-5.5q-1 0 -4 -0.5t-4 -0.5q-3 -2 -4.5 -5.5t-3 -7.5t-3 -7t-4.5 -3q-2 0 -3 1t-1 2.5t-0.5 3t-0.5 2.5q0 2 1 5.5t3 7.5t4 6.5t5 2.5h40l0.5 1.5t0.5 3.5v3v2q0 4 -4.5 6t-11 3.5
t-13 3.5t-10.5 5q-7 5 -11 13.5t-6 19t-3 21.5t-1 22v20.5v17.5v0q0 2 1.5 3t3.5 1q1 0 2.5 -0.5t3 -1.5t2.5 -2t1 -2v-76l0.5 -2.5t1.5 -5.5t2 -5.5t1 -4.5q5 -11 15 -16t22 -5h1h2q0 7 0.5 15.5t0.5 16.5v5t-4 2h-4q-2 0 -4.5 -0.5t-4.5 -0.5h-3v-14l-0.5 -0.5l-0.5 -0.5
q-1 -1 -2.5 -1.5t-2.5 -0.5l-1 0.5t-2 1.5q-1 0 -1.5 0.5l-0.5 0.5q0 1 0.5 5t1 9t1.5 11.5t2 12t2.5 9.5t3.5 5q6 1 10 1h10t9 0.5t8 -0.5t8 -2.5t7 -5.5q1 -10 1 -23v-24q-2 0 -4 0.5t-4 1.5q0 1 -1 5.5t-1 5.5l-0.5 0.5l-0.5 0.5h-12v-7q0 -2 0.5 -5.5t0.5 -7.5t0.5 -8
t0.5 -5h5q10 0 16.5 3.5t10 9.5t5 13.5t2 15t0.5 15v13.5l0.5 1.5t0.5 3t0.5 3.5l0.5 2v7.5v11.5v11.5v7.5zM110 194q-2 -4 -3.5 -8.5t-1.5 -8.5v-2q0 -2 3 -2q7 -1 16.5 -1h17.5q1 0 3.5 -0.5t2.5 1.5v6q0 10 -5 13t-16 3h-8t-9 -1zM91 59v16q0 1 1 1h2h2t2 -1q0 -8 1 -12
t2.5 -5.5t4 -1.5t5 -1t5.5 -2.5t6 -6.5l1 -1.5l1 -1.5v-21q0 -1 -1.5 -1.5t-2.5 -0.5q-5 0 -6 4t-1 8.5t-1 9t-4 5.5q-1 1 -3.5 0.5t-3.5 -0.5v-33q0 -2 -1.5 -2.5t-3.5 -0.5t-3.5 0.5t-1.5 2.5v31q0 2 -2 3t-4 1q-4 0 -5.5 -3.5t-1.5 -6.5v-3.5t-0.5 -5.5t-0.5 -5v-4h-3
t-3.5 0.5l-3 1t-1.5 2.5q0 8 0.5 13.5t3 10t7.5 7t14 3.5zM160 72q0 1 1 2.5t3 1.5h1q1 -1 2.5 -3.5t1.5 -5t0.5 -5t0.5 -3.5q3 -1 6.5 -1t6.5 -1t6 -2.5t5 -5.5q0 -1 0.5 -3t0.5 -4.5t0.5 -4.5t0.5 -3v-3q0 -2 -1 -5t-4 -3q-2 0 -3 0.5t-2 2.5v6.5t-0.5 7.5t-3 6.5
t-6.5 2.5q-2 0 -3 -0.5t-2 -2.5v-7q0 -6 1 -11t1 -10t-7 -5h-2q-2 0 -3 1v6v9v8v6q0 1 -0.5 3.5l-0.5 2.5h-1h-2h-3.5t-3.5 -2v-2.5t-0.5 -5.5t-1 -5t-0.5 -3t-0.5 -5l-0.5 -4l-1 -0.5l-1 -0.5q-1 0 -3.5 0.5t-3.5 0.5v2v2q0 7 1 12.5t3 13.5q1 2 3.5 3.5t5 2t5.5 1t5 0.5
q0 1 0.5 2l0.5 1q0 3 -1 5t-1 5z" />
</svg>
