<?xml version="1.0" standalone="no"?>
<!DOCTYPE svg PUBLIC "-//W3C//DTD SVG 1.1//EN" "http://www.w3.org/Graphics/SVG/1.1/DTD/svg11.dtd" >
<svg xmlns="http://www.w3.org/2000/svg" xmlns:xlink="http://www.w3.org/1999/xlink" version="1.1" viewBox="-10 0 266 256">
   <path fill="currentColor"
d="M79 249l2 0.5t2 1.5h1h1q0 -1 1 -2t2 -1v-1v-1l-1 -2t-2 -4.5t-1.5 -4t-0.5 -2.5q-1 -6 -1 -12v-12q0 -9 0.5 -15.5t3.5 -12t7.5 -10.5t11.5 -11q1 -1 1.5 -4t0.5 -4q0 -8 -3.5 -12t-9.5 -8q-2 -1 -3 -2l-2 -2t-2.5 -1.5t-3.5 -0.5v-4q0 -4 0.5 -7.5t1.5 -9.5
q5 0 11.5 -1.5t12.5 -1.5h1l3 30q0 1 1 1h2h1.5t1.5 -1v-43q0 -4 2 -7t2 -7v0v0q0 -1 -1 -2t-2 -1h-1v0v0q-1 0 -3 1t-2 2l-3 20q0 1 -2.5 2t-5.5 1h-6h-4h-7q-1 -7 -2 -13.5t-4 -12.5h-1h-2h-2.5t-1.5 2q0 5 3 9v16q0 2 -4 2t-8 -0.5t-8 0.5t-4 6q0 2 1.5 2.5t3.5 0.5
q4 0 8.5 -1.5t8.5 -1.5q3 0 3.5 1t0.5 3q0 14 -6.5 23.5t-16.5 17.5v2q0 3 3 3q6 0 9.5 -4t6.5 -8t4.5 -8t3.5 -4t5.5 2t6.5 4t5 5t2 5q0 3 -4.5 8t-9.5 11.5t-9.5 13.5t-4.5 14v36q2 4 3.5 8.5t2.5 8.5zM196 245q0 2 1.5 3t3.5 1q4 0 4.5 -2t0.5 -5q0 -8 -3 -16t-5 -16
q-2 -10 -2.5 -20.5t-2.5 -20.5q-1 -4 -3 -8t-2 -8v-1l1 -1.5t2 -2.5t2 -2.5l1 -1.5q3 -6 4 -13.5t1 -13.5q0 -8 -4 -13t-9.5 -8t-12.5 -4t-14 -1q-1 0 -5.5 -0.5t-9 0t-8 2.5t-3.5 6h18l2 2v2.5v3.5v3t-0.5 6t-0.5 5.5t-1 3.5l-3 1h-17q-1 0 -2 1l-2 2v1v0q1 1 1.5 2l0.5 1
h22v5.5v8v7.5v6l-0.5 1.5t-1 3.5t-1.5 3t-3 1h-22q-2 0 -3 3t-1 4t1.5 1.5t2.5 0.5q12 0 22.5 -2.5t21.5 -6.5q4 -2 6 -4t6 -2q1 0 3 3.5t3.5 9.5t2.5 13l2 14t1.5 12.5t1.5 7.5q0 1 0.5 4t1 6.5t0.5 7t1 4.5zM159 136h3q2 0 4.5 1.5t5.5 4t4.5 5t1.5 5.5q0 2 -2.5 4
t-5.5 3.5t-6.5 2.5t-4.5 1v-27zM160 126v-10v-3.5v-5t0.5 -5t2.5 -3.5h5q6 0 10.5 2.5t7.5 6.5t4 9t1 10q0 1 -0.5 2.5t-1 3.5l-1 4l-0.5 2q0 1 -2 2.5t-2 2.5h-1q-2 0 -2.5 -1t-1 -2.5t-1.5 -2.5l-2 -2q-4 -2 -8 -5t-8 -5zM167 76l3 3q3 -2 3.5 -6t0.5 -8t0.5 -7.5
t4.5 -3.5q2 0 6 -0.5t5 -0.5q3 -1 5 -4t3 -6.5t1.5 -7.5t0.5 -6v-4.5t-3 -1.5q-2 0 -3.5 4t-3 8.5t-3.5 8t-6 3.5h-3t-2 -2v-34q-3 0 -4.5 1t-2.5 4v4.5v7.5v6.5v5.5q0 1 -0.5 2.5l-1 3t-1.5 3t-2 1.5q-7 0 -9.5 -4t-3 -8.5t-0.5 -8.5t-4 -4v0q-1 0 -2 0.5l-1 0.5v3v2
q0 1 1 5t2.5 8t3 7.5t3.5 3.5h13v21zM88 52v3.5v5t0.5 5t0.5 3.5t1 2.5t3 1.5h0.5h0.5l0.5 -1t0.5 -2t0.5 -3t0.5 -5t0.5 -5t0.5 -3q2 -2 4.5 -2t5.5 -1q4 -1 6.5 -4t4 -6.5t2 -7.5t0.5 -8q0 -3 -3 -3t-4 3.5t-2.5 8t-3.5 8t-7 3.5v0q-1 0 -1.5 -0.5l-0.5 -0.5q0 -1 -1 -2
l-1 -1v-24l-2 -3l-6 3v28q0 1 -1.5 1.5t-2.5 0.5q-7 0 -9 -3.5t-3 -8l-2 -9t-6 -6.5q-1 0 -2 0.5t-1 1.5v2v3t0.5 5t2 8.5t2.5 8t2 3.5h20z" />
</svg>
