<?xml version="1.0" standalone="no"?>
<!DOCTYPE svg PUBLIC "-//W3C//DTD SVG 1.1//EN" "http://www.w3.org/Graphics/SVG/1.1/DTD/svg11.dtd" >
<svg xmlns="http://www.w3.org/2000/svg" xmlns:xlink="http://www.w3.org/1999/xlink" version="1.1" viewBox="-10 0 266 256">
   <path fill="currentColor"
d="M123 246q1 2 2 3t3 1q3 0 5.5 -2.5t2.5 -4.5q0 -6 -1 -12t-2 -11.5t-1.5 -11.5t-0.5 -12v-11.5t0.5 -13t2 -13t5.5 -10.5q3 -4 6.5 -7.5t6.5 -7t5 -7.5t2 -10t-4.5 -8t-10.5 -2.5t-11 -1.5t-7 -4q3 -3 8.5 -4.5t12 -2t12.5 -0.5h11h4h4q2 6 2.5 14t0.5 13q1 1 2.5 1.5
t2.5 0.5q4 0 5 -1.5t1 -5.5q0 -10 -2 -21t-3 -22q0 -1 -2 -1h-2q-5 0 -5.5 3t-0.5 9q-3 2 -9 3t-13 1h-13.5h-10.5q0 -5 1 -9t1 -8q0 -2 -1.5 -4t-4.5 -2q-2 0 -4.5 0.5t-2.5 3.5v19l-2 3q-14 -1 -26.5 -0.5t-25.5 1.5q-1 0 -3.5 1.5t-3 2l-1 1t-0.5 1.5q1 3 2.5 3.5
t4.5 0.5q12 0 24 -1t24 -1q0 5 -4 10t-10 8.5t-13.5 6.5t-13.5 5.5t-10 5t-4 3.5v1l1 1l2 2v0h1q1 -1 3.5 -1.5t4.5 -1l4 -1t2.5 -1t2 -1.5t2.5 -2q6 -2 11 -4t10 -5t9.5 -6.5t8.5 -8.5h2h1h7t8 1.5t6 3.5t2 6v4t-1 4q-1 0 -3 2l-4 4t-4.5 4t-2.5 3q-1 1 -2.5 4t-3 5.5
t-2.5 5.5t-1 5v25v16v13.5t0.5 13.5t0.5 16zM78 236q0 2 0.5 5.5t3.5 3.5q2 0 3.5 -1t2.5 -3t1.5 -3.5t0.5 -3.5v-41q0 -1 0.5 -1.5l0.5 -0.5q6 -2 10 -4.5t7 -8.5q1 -7 1.5 -12t0.5 -11q0 -2 -0.5 -5.5t-4.5 -3.5q-2 0 -2 0.5t-1 2.5q-3 6 -3.5 13t-0.5 13q-1 2 -2 3.5
t-3 1.5q-3 0 -3 -2v-4q0 -7 1 -14t1 -14q0 -2 -1 -4t-3 -2h-1v0q-1 1 -2 1.5l-1 0.5l-5 38h-1h-1q-4 0 -6 -2.5t-3 -5.5t-1 -7v-7.5t-1 -5.5t-4 -1l-1 1t-2 1v7v6l1.5 12t2 6.5t5.5 4t11 2.5v4q0 10 -0.5 20t-0.5 21zM170 190v53q0 1 1.5 1t2.5 1h0.5h0.5q7 0 7 -6
q0 -11 -1 -22t-1 -23q0 -3 1.5 -4t3.5 -2t4.5 -2.5t4.5 -3.5t3 -6t1.5 -8l1 -8t0.5 -7q0 -2 -0.5 -4.5t-3.5 -2.5q-4 0 -5.5 2.5t-1.5 5.5v7v7.5t-2 6t-6 2.5l-1.5 -0.5t-1.5 -1.5v-35q0 -3 -0.5 -3.5t-3.5 -0.5q-1 0 -3.5 0.5t-2.5 2.5v37q0 3 -1.5 3.5t-2.5 0.5
q-2 0 -3.5 -0.5t-2.5 -3.5l-3 -24q0 -1 -1.5 -1.5l-1.5 -0.5q-3 0 -3.5 1.5t-0.5 3.5q0 6 1 12t2 13q0 2 2.5 4t5.5 3t6 1.5t5 1.5zM61 31v1q0 1 0.5 4l1 6t1 5.5t0.5 3.5q1 4 4.5 6.5t7 3.5t7 1.5t3.5 1.5v21q5 0 6 -3t1.5 -7t2 -8.5t8.5 -7.5l1.5 -0.5l3 -1t2.5 -0.5t2 -1
q2 -1 3 -4t1.5 -6.5l1 -7t0.5 -6.5v-6l-1.5 -1.5t-1.5 -0.5q-3 0 -5 2q0 2 -0.5 6.5t-2 8.5t-4 7.5t-5.5 3.5t-3 -3v-33q0 -2 -1.5 -2h-2.5t-3 0.5t-2 2.5v32l-1 3h-2.5h-1.5q-1 0 -2.5 0.5t-3 0t-1.5 -1.5q-1 -2 -0.5 -6t-0.5 -8.5t-2.5 -7.5t-4.5 -3q-2 0 -4 1t-2 4z
M162 78l3 1q3 -1 3.5 -3t1 -4.5t0.5 -5t2 -4.5q14 0 18.5 -7t4.5 -19v-5v-5t-1.5 -1.5t-2.5 -0.5q-2 0 -4.5 1t-2.5 4v16q0 3 -1 4t-3 1.5t-4 0.5h-4v-35q0 -1 -1 -2t-2 -1l-1.5 0.5t-2.5 1l-2 1t-1 1.5v30q0 3 -2.5 4.5t-4.5 1.5t-4.5 -1.5t-2.5 -4.5v-15q0 -3 -1 -3h-3h-2
t-2 1v8v8q1 6 4.5 9t7.5 4.5t7 2l3 0.5v16z" />
</svg>
