<?xml version="1.0" standalone="no"?>
<!DOCTYPE svg PUBLIC "-//W3C//DTD SVG 1.1//EN" "http://www.w3.org/Graphics/SVG/1.1/DTD/svg11.dtd" >
<svg xmlns="http://www.w3.org/2000/svg" xmlns:xlink="http://www.w3.org/1999/xlink" version="1.1" viewBox="-10 0 266 256">
   <path fill="currentColor"
d="M57 245q0 4 0.5 5t4.5 1q1 0 3 -0.5t1 -2.5q1 -15 3 -29.5t2 -28.5v-5.5v-3.5l-2 -2l0.5 -2t0.5 -3.5t0.5 -3.5l0.5 -2v-8.5t0.5 -12.5t1 -14.5t0.5 -14.5t0.5 -12.5t0.5 -7.5q4 -6 11.5 -9t15.5 -4.5t16 -1.5h14q8 0 15.5 -0.5t14 1t10 6t4.5 14.5q0 3 -0.5 10.5
t-0.5 15.5q0 9 0.5 16.5t0.5 10.5q0 2 0.5 7.5t1 12.5t1 13t0.5 7v11.5v17t1.5 15.5t4.5 7t5 -3q1 -1 1 -3v-3q0 -6 -1.5 -11.5t-1.5 -12.5q-1 -11 -1.5 -24t-1.5 -26.5t-1.5 -27t-0.5 -26.5v-1q0 -1 0.5 -3.5t0.5 -5.5t0.5 -5.5t0.5 -3.5q-3 -6 -7.5 -9t-10.5 -4
t-12.5 -0.5t-11.5 -0.5h-3.5t-4.5 -0.5t-3.5 -0.5h-1.5v-15l-1 -0.5l-1 -0.5q0 -1 -2 -1.5l-2 -0.5h-1h-1l-0.5 1.5l-0.5 1.5q0 1 -0.5 3t-0.5 4.5t-0.5 4.5t-0.5 3l-3 1h-16v-20q0 -3 3 -4t7 -3t7.5 -6t3.5 -14v-8q-1 0 -2.5 -1.5l-2.5 -2.5v0h-1v0q-1 0 -1.5 0.5t-0.5 1.5
v6.5t-1 8.5t-3 7t-7 3h-0.5h-0.5l-0.5 -0.5t-0.5 -1.5q0 -7 -0.5 -15.5t-0.5 -15.5q-1 -2 -3.5 -2h-3.5v35l-1 0.5l-1 0.5q-6 0 -7.5 -4t-2 -8.5t-1 -8.5t-5.5 -4q-1 0 -3.5 1t-1.5 3l7 24q1 2 3.5 2.5t5.5 0.5t5 1t2 4v20q0 1 -0.5 1.5l-0.5 0.5q-4 1 -8.5 2t-8 2.5t-6 4.5
t-4.5 9v13t-0.5 21t-1 24.5t-0.5 24t-0.5 21t-0.5 13.5v2q0 7 -1.5 14t-1.5 14zM150 98q-8 0 -16.5 0.5t-16.5 2.5q-7 1 -11 2t-6 3t-3.5 6t-2.5 11v3v4v5v3q-1 26 -2 51.5t-1 51.5q1 0 3.5 -0.5t3.5 -0.5l0.5 -0.5l0.5 -0.5l3 -25l1 -2h6t9 -0.5t9.5 -0.5h5.5q5 -1 8.5 -3
t5 -5.5t2.5 -8t1 -9.5q0 -1 2 -2t4 -1.5t4 -0.5h3l0.5 -1t0.5 -2v-1q0 -2 -1.5 -2h-3.5q-10 0 -20.5 1.5t-20.5 1.5h-16q-1 -2 -1.5 -3.5t-0.5 -3.5t1 -5t4 -4q9 -1 19.5 -1.5t19.5 -3.5l0.5 -0.5l0.5 -0.5q1 -1 2 -3l1 -2l3 -19q0 -2 2.5 -2.5t5 -0.5t4.5 -1t2 -4
q-7 0 -13.5 1.5t-14.5 1.5h-6h-10.5h-10h-6.5q0 -1 -0.5 -2.5l-1 -3t-0.5 -2.5v-1.5t1 -2t2 -2.5t2.5 -2l1.5 -1q11 -4 24 -5.5t24 -2.5l0.5 -1t0.5 -2l-0.5 -0.5l-0.5 -0.5h-7zM100 195v-7q2 -3 6 -3h6h4t6.5 -0.5t6.5 -0.5h4h3q6 0 6 6t-3 9t-8 4.5t-10.5 1.5h-9.5h-4.5
h-4.5q-2 -2 -2 -5v-5zM100 148q0 -5 0.5 -7.5t4.5 -5.5q1 0 5.5 -0.5t9 -0.5t9 -0.5t6.5 -0.5h1h1q3 0 4 2t1 5q0 4 -2.5 7t-6.5 5t-8.5 3t-8.5 1h-2q-2 -1 -3.5 -1t-3.5 -0.5t-3.5 -0.5h-1.5l-2 -1v-2.5v-2.5zM155 58l0.5 2t0.5 4t0.5 4t0.5 3t0.5 2l0.5 1h1q4 0 3.5 -2.5
t-0.5 -5.5t1.5 -6t9.5 -4q5 -1 7.5 -4t4 -7t2 -9t0.5 -8q0 -2 -0.5 -4t-2.5 -2q-4 0 -5 3v6.5t-1 8.5t-3.5 7t-6.5 3h-2t-2 -1v-5t-0.5 -6.5t-0.5 -6.5v-5v-10q0 -3 -0.5 -4t-2.5 -1q-1 0 -2.5 0.5t-1.5 1.5v36q0 1 -1.5 1h-2.5h-1q-1 0 -3 -2l-2 -2l-2 -20q-1 -1 -2 -1h-2
q-2 0 -2.5 1.5t-0.5 3.5v1q1 1 1 3.5t1 6t1 6t1 3.5q1 3 3 3.5t4.5 1t4.5 1t2 2.5z" />
</svg>
