<?xml version="1.0" standalone="no"?>
<!DOCTYPE svg PUBLIC "-//W3C//DTD SVG 1.1//EN" "http://www.w3.org/Graphics/SVG/1.1/DTD/svg11.dtd" >
<svg xmlns="http://www.w3.org/2000/svg" xmlns:xlink="http://www.w3.org/1999/xlink" version="1.1" viewBox="-10 0 266 256">
   <path fill="currentColor"
d="M146 186l2 0.5t2 1.5v61q0 2 2 2h2h2.5t1.5 -2v-43q0 -1 0.5 -4t0.5 -6t0.5 -6t0.5 -4h2.5h2.5q6 0 9.5 4t5.5 9.5t2.5 11.5t0.5 11q0 2 -1 4.5t-1 5.5q0 1 1.5 2.5t2.5 1.5q2 0 4 -2t2 -4v-7.5t-0.5 -9.5t-1 -9t-1.5 -7q0 -2 -0.5 -5.5l-0.5 -3.5q-2 -2 -4 -3.5
t-4.5 -2.5t-5 -1.5t-4.5 -1.5q-3 -1 -3.5 -2t-1 -1t-1 -0.5t-3.5 -1.5l-0.5 -2.5t-0.5 -5t-0.5 -5t-0.5 -3.5v-1v0q6 -2 12.5 -3.5t12 -5t9.5 -8t4 -12.5q0 -2 -0.5 -3.5t-2.5 -1.5q-3 0 -5 4t-5 8.5t-7 8.5t-10 4q-1 0 -2.5 -0.5t-1.5 -1.5v-27l1 -0.5t2 -0.5q4 -2 8.5 -4
t8 -5t5.5 -7t2 -9q0 -3 -0.5 -5t-3.5 -2t-4 3.5t-2.5 8t-4 8t-7.5 3.5h-1.5t-2.5 -0.5t-1 -1.5v-21q0 -2 -2 -2.5t-3 -0.5q-4 0 -4 4.5v9.5t-0.5 9t-5.5 4q-4 0 -6 -2t-3.5 -5.5t-2 -7t-0.5 -6.5q-1 0 -2 -0.5l-1 -0.5h-0.5h-0.5q-1 0 -1.5 1t-0.5 2v3v1q0 8 2.5 13t10.5 8
q2 1 4.5 2t4 2t2.5 1v24l-2 2t-3 2q-4 1 -7 -2t-6 -7t-5.5 -8t-4.5 -4h-1l-0.5 1.5l-0.5 1.5v1q0 8 5 13t11 9q1 0 3.5 0.5t4.5 0.5t4 1t2 2v15q0 1 -3 2t-6 3t-6.5 3t-4.5 2q-6 5 -9 12t-4.5 15t-1.5 16v14q6 0 8.5 -5t3 -12.5t1.5 -15t4 -12.5q2 -3 4.5 -6t6.5 -3zM61 145
q0 5 3 7t6.5 3.5t7.5 1.5h7h5h6q3 -2 5.5 -3.5t4.5 -4.5q0 -2 1 -9t1.5 -14l1 -14t1.5 -9v-2v-1q0 -2 -1 -5t-4 -3q-2 0 -3 2t-1 4v14l-3 3h-26q-1 0 -1 -3v-3q0 -3 0.5 -5.5t2.5 -6.5q-2 -2 -3.5 -2.5t-3.5 -0.5t-3 1t-2 3q0 3 -0.5 9.5t-0.5 13.5t-0.5 13.5t-0.5 8.5v2z
M97 124l3 3l0.5 2t0.5 3q0 3 -0.5 6.5t-1.5 6.5q-6 1 -10.5 1h-9.5h-4t-3 -3v-16l0.5 -0.5t0.5 -1.5q1 0 2 -0.5l1 -0.5h21zM85 80l3 3l4 -3v-13q0 -1 3 -2.5l6 -3l6 -3t4 -2.5q1 -2 2.5 -5.5t2 -7l1 -7t0.5 -6.5q0 -2 -1.5 -3.5t-3.5 -1.5t-3 2t-1 5.5v7.5q0 3 -1 6.5
t-2.5 5.5t-5.5 2h-3t-2 -2v-33q0 -1 -1.5 -1h-1.5h-3t-2 1v35l-1 0.5l-1 0.5h-2h-3q-3 0 -5 -0.5t-4 -3.5v-3.5t-0.5 -5t-0.5 -5v-3.5q-1 -3 -1.5 -5.5t-4.5 -2.5q-2 0 -2.5 3.5t-0.5 4.5v14.5t2.5 9t7 5t12.5 1.5l3 3v13zM136 25q-1 0 -2.5 0.5t-1.5 2.5v24q0 3 2 4.5
t4.5 2.5t5 1.5t4.5 0.5q3 1 4 3l2 4t1.5 3.5t2.5 1.5h1h1q0 -1 0.5 -5t1.5 -5q0 -1 0.5 -1.5l0.5 -0.5q5 1 9.5 -0.5t8 -4t5.5 -6.5t2 -9v-7.5t-1 -8.5l-1.5 -1.5t-1.5 -0.5l-0.5 0.5l-0.5 0.5q-1 0 -2.5 0.5l-1.5 0.5v20q0 3 -3.5 4.5t-6.5 1.5h-2.5h-1.5q-1 0 -1.5 -0.5
t-0.5 -1.5v-34q0 -1 -0.5 -1.5l-0.5 -0.5h-3.5h-3.5v33q0 3 -2.5 5.5t-5.5 2.5q-5 0 -6 -4.5t-0.5 -10t0 -10t-4.5 -4.5z" />
</svg>
