<?xml version="1.0" standalone="no"?>
<!DOCTYPE svg PUBLIC "-//W3C//DTD SVG 1.1//EN" "http://www.w3.org/Graphics/SVG/1.1/DTD/svg11.dtd" >
<svg xmlns="http://www.w3.org/2000/svg" xmlns:xlink="http://www.w3.org/1999/xlink" version="1.1" viewBox="-10 0 266 256">
   <path fill="currentColor"
d="M69 222v4v4.5v4.5v2v2q0 3 0.5 5.5t1.5 4.5t3 2h1q1 -1 2 -1.5l1 -0.5v-39q0 -1 0.5 -2.5t0.5 -3.5t0.5 -4l0.5 -2q1 -5 4 -7t7 -3t8.5 -1t8.5 -0.5t6 -2t2 -4.5h-22q0 -5 2.5 -9t6 -7t6.5 -5.5t3 -5.5t-4 -3q-2 0 -5.5 3.5l-7.5 7.5t-7.5 8.5t-4.5 5.5h-1h-1l-1 -1
l-2 -2v-6q0 -6 2 -10t5 -7t5 -6t2 -7q-5 0 -9.5 3t-7.5 7.5t-4.5 10t-1.5 9.5q0 2 1.5 5t3.5 5.5t3 4.5t1 3q0 4 -3 6q-1 1 -1.5 4t-1.5 6l-2 6t-1 4v2v3v4v3zM183 245q1 1 2 1h4h2q2 0 2 -1v-9v-8v-3.5t-1 -6t-1.5 -7t-0.5 -4.5t-1 -3.5t-1.5 -5t-1.5 -5.5t-1 -5l0.5 -1
l0.5 -1l5 -5t3 -4.5t1.5 -5t0.5 -6.5q0 -6 -3 -11t-8 -8.5t-11 -5t-12 -1.5q0 2 4 4.5t8.5 5.5t8.5 7.5t4 11.5q0 2 -1 5t-5 3q-2 0 -5 -3.5t-7 -7.5t-10 -7.5t-13 -3.5q0 4 3.5 6.5t8 5t8 6t3.5 8.5q0 2 -1.5 2.5t-2.5 0.5q-6 0 -10.5 -1.5t-10.5 -1.5q0 2 1.5 4t3.5 3
t4.5 1.5t4.5 0.5h3.5t5 0.5t5 0.5h3.5l1 3t2 7t2 7.5l1 3.5q0 1 0.5 2.5t0.5 3.5t0.5 4t0.5 3v21zM124 242q1 3 4 3q2 0 3 -1t2 -3t1 -4v-3v-104q10 -1 17.5 -1h17.5q8 0 16 0.5t16 0.5q2 0 3.5 -0.5t1.5 -2.5t-1.5 -3.5t-3.5 -2.5h-17h-11h-10.5t-10 0.5t-12.5 0.5
q-3 0 -4.5 -1t-1.5 -4v-2v-1q2 0 5.5 -0.5t7.5 -1t7.5 -1t5.5 -1.5q6 -1 10 -2.5t6 -5t3 -8t1 -10.5q0 -2 -1.5 -3.5t-3.5 -1.5q-5 0 -5.5 3t-0.5 6q0 4 -1 8t-7 5q-3 1 -5.5 2t-4.5 1.5t-4 0.5h-5h-3.5h-2.5q-2 -2 -2 -4v-4v-3.5t2 -2.5l15 -3q2 0 3.5 -3t2 -6.5l1 -7
t0.5 -4.5q4 -3 9 -3h9q6 0 12.5 1.5t12.5 1.5q2 0 4.5 -1t2.5 -4t-2.5 -4.5t-4.5 -1.5h-4h-6h-4.5h-3.5q-4 0 -5 -4q1 -2 1.5 -6t1.5 -7.5t1.5 -7.5t0.5 -7t-2 -3.5t-5 -0.5h-1l-1.5 0.5t-1.5 1.5v7t-0.5 8.5t-0.5 8.5t-1 6q0 5 -4 5.5t-8 0.5q-2 0 -3.5 -0.5t-2.5 -2.5
q1 -12 0.5 -23.5t-1.5 -23.5h-5l-0.5 3.5t-0.5 5.5t-0.5 7.5t-0.5 11.5t0.5 11.5t0.5 7.5l-2 3h-22v-7v-10.5v-10.5v-7v-1t0.5 -2.5t0.5 -2.5v-1q0 -3 -1.5 -4.5t-4.5 -1.5h-2.5t-1.5 1v47h-17l-3 -3v-23q0 -2 -3 -2.5t-4 -0.5v27l-1 1l-1 1q-1 0 -3 0.5t-3 0.5h-1h-1h-3
t-4.5 -0.5t-5 -0.5h-2.5h-1q-3 0 -5 1t-2 4v2t2 2h7q7 0 14.5 -1t14.5 -1q5 0 7.5 1.5t4.5 4.5t3 6t2 7q1 3 4.5 4t6.5 1.5t5.5 0.5t2.5 3v11h-2.5t-5 0.5t-5.5 0.5h-3l-2 -0.5l-4 -1l-4 -1t-3 -1.5q-5 -1 -6.5 -5t-2 -8.5t-1.5 -8t-6 -3.5v23q0 2 2.5 5t5.5 4l37 6
q1 0 1.5 2t0.5 4l-1 1t-2 1q-1 1 -3 1t-5 0.5t-5 0.5h-3h-11.5h-15.5h-16h-10q-2 1 -2 1.5v1.5q0 3 1.5 4.5t3.5 1.5v0h1h2t4.5 -0.5t4.5 -0.5h2h2h2h1t2.5 0.5t2.5 0.5h1q1 0 2 -0.5l1 -0.5q10 0 19.5 -1.5t18.5 -1.5q0 24 -0.5 48t-0.5 48v17zM111 73l0.5 -2t0.5 -3
q2 -1 5 -2t6.5 -1h7h5.5h4.5h4.5l2.5 2.5t1.5 2.5q1 1 0.5 3.5t-1.5 4.5t-2.5 4t-3.5 2h-26q-2 0 -2.5 -1.5t-1 -3.5t-1 -3.5t-0.5 -2.5z" />
</svg>
