<?xml version="1.0" standalone="no"?>
<!DOCTYPE svg PUBLIC "-//W3C//DTD SVG 1.1//EN" "http://www.w3.org/Graphics/SVG/1.1/DTD/svg11.dtd" >
<svg xmlns="http://www.w3.org/2000/svg" xmlns:xlink="http://www.w3.org/1999/xlink" version="1.1" viewBox="-10 0 266 256">
   <path fill="currentColor"
d="M103 243v5l3 3l4 -3q0 -1 0.5 -4.5t1 -8.5l1 -10t0.5 -8q0 -2 0.5 -9.5t0.5 -16.5v-18.5v-13.5v-6l1 -70q0 -1 -1 -2t-2.5 -1.5l-3 -1t-2.5 -0.5l-0.5 0.5t-0.5 1.5v18q0 4 -1 6t-5 2q-9 0 -13 -3.5t-6 -7.5t-3.5 -7.5t-6.5 -3.5q0 10 1 15.5t4.5 8.5t10 4t17.5 2
q3 1 3.5 3.5t0.5 5.5q0 5 -1 7l-3 6q-3 1 -8 1.5t-11 0.5h-9.5h-6.5q-1 0 -1.5 0.5l-1.5 1.5t-1.5 2t-0.5 2l1.5 1.5l1.5 1.5q8 -2 17 -2.5t17 -0.5h3h2l1 1q1 1 1 4v4v3v6t-1 6t-3 3q-14 3 -22 4.5t-11.5 5.5t-4.5 11.5t-2 21.5q0 1 -1 2.5t-1 2.5v26l0.5 0.5t1.5 0.5v0
h1.5h0.5l1.5 -1t2.5 -2q1 0 1.5 -0.5l0.5 -0.5v-23v-2.5t0.5 -3t1 -3.5l0.5 -2q0 -7 0.5 -12.5t2.5 -9.5t7 -5.5t14 -1.5q4 0 5.5 0.5t2.5 4.5v18q0 10 -1 20t-1 21zM142 173v9t-0.5 14.5t-0.5 14.5v9v11q0 1 -0.5 3t-0.5 4t-0.5 4t-0.5 3h3q4 0 6 -3.5t2.5 -8.5t0 -9.5
t0.5 -6.5v-2v-4q0 -4 -1 -8.5t-1 -9.5v-1v-1l0.5 -2t0.5 -4t0.5 -3.5t0.5 -2.5q5 -1 9 -1.5t9 -0.5q7 0 10.5 2.5t5.5 7t2 9.5t1 10v5q0 6 -1 12t-1 12q0 1 0.5 4t3.5 3h1q1 -1 2 -1.5t2 -0.5q0 -1 -0.5 -3.5t-0.5 -4.5q0 -3 0.5 -5.5t0.5 -3.5l0.5 -2.5t0.5 -3.5v0v-1v-1
v-1q0 -2 -1 -6.5t-1.5 -9.5t-1.5 -9t-1 -5q0 -2 -1.5 -5t-3.5 -5q-8 -2 -17.5 -2.5t-17.5 -0.5l-2 -3v-21q0 -1 5 -2t12 -2t13.5 -1.5t9.5 -2.5l0.5 -1l0.5 -1q0 -2 -1 -3t-3 -1q-7 0 -13.5 2t-14.5 2q-2 0 -5 -0.5t-4 -0.5l-2 -3v-17q0 -1 3 -2t7 -2t9 -3t9 -5t7 -8t3 -12
q0 -3 -0.5 -4.5t-3.5 -1.5h-3t-1 2q-1 5 -1.5 9.5t-3 8t-6 5t-10.5 1.5h-3h-2q-1 0 -2 -0.5l-1 -0.5v-26l-1 -1t-1.5 -1t-1.5 -0.5t-2 -0.5v0q-2 0 -2.5 1.5t-0.5 3.5q0 11 2 21.5t2 21.5q0 1 -0.5 3l-0.5 2v6t-0.5 10.5t-0.5 10v5.5v3t0.5 4t0.5 4v3zM86 57v15h7v-14
q8 -1 12 -2t6 -3.5t3 -6.5t2 -12q-1 -3 -2 -4t-4 -1h-2q-1 0 -2 1v4.5t-0.5 7t-2 6t-4.5 2.5q-4 0 -4.5 -1.5t-0.5 -5.5v-2t0.5 -4t0.5 -4v-2v-1v0v0v-3t-0.5 -4.5t-0.5 -4.5v-2l-2 -2h-1h-1l-2 0.5t-2 1.5v32l-2.5 0.5t-5.5 1t-5 -0.5t-2 -4v-12q0 -2 -2 -2h-2q-2 0 -3 1
t-1.5 3t0 4t0.5 3q0 10 6 12.5t17 2.5zM134 35q0 7 1.5 10.5t3.5 5t4 2t4.5 1t4.5 1.5t4 3q0 2 0.5 3.5t0.5 2.5t0.5 2t2.5 1t2.5 -2l1 -4t1.5 -3.5t3 -2.5q1 0 3.5 -0.5t5 -1.5t5 -1.5t3.5 -0.5q2 -4 2.5 -8t0.5 -8v-7q0 -1 -1.5 -2l-1.5 -1l-0.5 -0.5l-0.5 -0.5
q-2 0 -2.5 4t-1 8.5t-2.5 8t-7 3.5h-3q-3 0 -3 -2v-5v-8v-9v-5t-0.5 -4t-1.5 -4v0q-3 0 -5.5 1t-2.5 4q0 6 1 11.5t1 10.5v5v5q-2 1 -3.5 1h-3.5q-3 0 -4.5 -2.5t-2 -5.5l-1 -6t-0.5 -4l-1 -0.5t-2 -0.5l-0.5 -0.5l-0.5 -0.5q-1 0 -2.5 2t-1.5 4z" />
</svg>
