<?xml version="1.0" standalone="no"?>
<!DOCTYPE svg PUBLIC "-//W3C//DTD SVG 1.1//EN" "http://www.w3.org/Graphics/SVG/1.1/DTD/svg11.dtd" >
<svg xmlns="http://www.w3.org/2000/svg" xmlns:xlink="http://www.w3.org/1999/xlink" version="1.1" viewBox="-10 0 266 256">
   <path fill="currentColor"
d="M144 180q2 0 4 5t3.5 11.5t2 12.5t1.5 8q1 1 2 3.5l1 2.5q1 1 1.5 4t1.5 6.5t2 6.5t1 4q1 2 3 4.5t5 2.5h1q1 -1 2.5 -1.5l1.5 -0.5v-3q0 -5 -2 -9t-4.5 -8.5t-5.5 -8.5t-4 -8q-1 -6 -2.5 -13t-1.5 -13v-2.5t3 -2.5h9.5t11.5 -0.5l12 -1t11 -1.5q1 0 1 -1.5v-2.5
t-0.5 -2.5t-2.5 -0.5h-8q-23 0 -45 1.5t-44 4.5h-3q-3 0 -5.5 -1t-6.5 -1q-9 0 -19 1t-19 2q0 1 -0.5 2.5l-0.5 1.5q0 2 1.5 3t3 1.5t3 0.5h2.5q9 0 18 -1.5t18 -1.5h5l1 1q0 1 0.5 4.5t0.5 4.5q0 14 -3.5 26.5t-8.5 24.5v1q0 3 3 3t5.5 -3t4 -8.5t3 -12t2.5 -12t1.5 -9.5
t0.5 -5.5t0.5 -3.5t0.5 -4.5v-5v-3.5h5.5h7.5t7.5 -0.5t4.5 -0.5l2.5 -0.5t3.5 -0.5zM80 104q3 5 3.5 10.5t0 12t-0.5 12.5t2 10.5t7.5 7.5t16.5 4h2h6h5h5h12t16 -1.5t14 -5.5t6 -12v-35l5 -5q3 1 6.5 1.5t6.5 -0.5t5 -2.5t2 -5.5h-26v-16l-3 0.5t-3 1.5v16h-70l-6 -2
l-0.5 -2l-1 -4l-1 -4t-0.5 -3q-1 -2 -1.5 -2.5t-1.5 -0.5h-2l-5 16q-1 3 -4.5 2.5t-7.5 -0.5t-7 0.5t-3 3.5v2t1 3h5q4 0 7 -1t6 -1h4zM128 136h2q2 0 6 1.5t8 3.5t7 4.5t3 4.5v1l-1 1t-2 1h-48q0 -1 1 -2l2 -2q5 -3 11 -6.5t11 -6.5zM90 116v-5q8 2 15.5 7t13.5 11
q-1 2 -4 5t-6.5 5.5t-7.5 4.5t-6 2h-2q-1 -8 -2 -15.5t-1 -14.5zM139 129l0.5 -0.5t0.5 -1.5q2 -2 5 -5.5t7 -7t8 -6t8 -2.5q0 2 -0.5 6t-0.5 8v9v5v5t-0.5 3.5t-1.5 2.5t-3 1q-1 0 -4.5 -2t-7.5 -5t-7.5 -6t-3.5 -4zM93 104h9.5t13.5 -0.5t13 -1t9 -0.5h13q0 4 -2 7t-5 5.5
t-6 4.5l-6 4q-1 1 -2 1.5t-3 0.5q-1 0 -6 -2.5t-10.5 -6t-10.5 -7t-7 -5.5zM158 58q1 0 1.5 1t0.5 2l0.5 2.5t0.5 5v5v2.5h5v-15q0 -1 3.5 -2t8 -2t7.5 -3t4 -5l3 -23q0 -1 -0.5 -2.5t-1.5 -2.5v0v0q-3 0 -4 2t-1.5 5.5t-0.5 7.5t-1.5 7t-4.5 5t-8 2h-1q-2 -3 -2 -5.5v-6.5
q0 -7 1.5 -14t1.5 -15q-2 0 -3 1l-3 3q-1 0 -2 1l-1 1v34q0 2 -1.5 2.5t-2.5 0.5q-5 0 -8 -4t-4 -9t-1 -10v-8l-0.5 -0.5t-1.5 -0.5q-2 0 -3 1.5t-1 3.5q0 5 0.5 11t2.5 11t6.5 8.5t10.5 2.5zM92 60v13l1.5 -0.5t2.5 -0.5q2 0 2.5 -2t0.5 -4t0.5 -4t2.5 -3t5.5 -1.5
t7.5 -1.5t7 -3t3 -6v-21q0 -1 -1 -1.5t-2 -0.5h-1q-1 0 -1 4.5t-1.5 10t-4.5 10t-9 4.5q-2 0 -3.5 -1t-1.5 -3v-35q0 -1 -1 -1.5l-1 -0.5q-1 0 -1.5 0.5l-0.5 0.5q-1 7 -1.5 17.5t-1.5 18.5q-1 4 -0.5 5t-2.5 1q-5 0 -7.5 -2.5t-4 -6t-1.5 -8t-0.5 -8t-2 -6t-4.5 -2.5v20
l1 3t2 6.5t2 6t2 2.5h15z" />
</svg>
