<?xml version="1.0" standalone="no"?>
<!DOCTYPE svg PUBLIC "-//W3C//DTD SVG 1.1//EN" "http://www.w3.org/Graphics/SVG/1.1/DTD/svg11.dtd" >
<svg xmlns="http://www.w3.org/2000/svg" xmlns:xlink="http://www.w3.org/1999/xlink" version="1.1" viewBox="-10 0 266 256">
   <path fill="currentColor"
d="M181 244q0 2 0.5 3.5t2.5 3.5q5 -2 6.5 -5.5t1.5 -8.5q0 -16 -3 -31.5t-5 -30.5q0 -1 -0.5 -3.5t-1 -5.5t-0.5 -6t-0.5 -4.5t-1 -3.5l-0.5 -2q-4 -6 -11.5 -9.5t-15 -6.5t-13 -7t-5.5 -9v-2v-2q4 -2 9.5 -2t10.5 -1t9 -3t5 -8l0.5 -2.5t0.5 -5.5t0.5 -5.5t0.5 -3.5
q3 -3 8.5 -4t9.5 -1l1 1t2 1h4q2 0 4 -0.5t2 -3.5v-1q-1 0 -2 -1t-1 -2h-3.5h-3.5q-4 0 -7.5 1.5t-7.5 1.5h-42l-0.5 -0.5l-0.5 -0.5v-1v-1v-1.5t0.5 -3t0.5 -2.5v-1v-2q0 -3 -3 -3.5t-5 -0.5q0 1 -0.5 4t-0.5 6t-1 6t-2 3h-4h-6h-6h-4t-2.5 0.5t-2.5 0.5h-2.5h-3.5
t-3.5 0.5t-2.5 0.5q-6 0 -12.5 -1t-12.5 -1q-2 0 -4.5 2.5t-2.5 4.5q8 0 17 0.5t17 1.5v2.5t0.5 4t0.5 4v2.5q1 1 1.5 3.5t1.5 4.5t2.5 3.5t3.5 1.5h28q1 0 1.5 1l0.5 1q1 5 1 9t0.5 6t3 3.5t8.5 3.5q11 4 17.5 6.5t10 6.5t5 11t3.5 20q0 3 1 10.5t2 16t1.5 16t1.5 10.5
q-1 3 -1.5 5.5t-0.5 5.5zM82 206q2 4 6.5 6t8.5 2h3q2 0 6.5 -0.5t9 -0.5t8 -0.5t4.5 -0.5q6 0 9 -3.5t4.5 -8t2 -9.5t0.5 -9v-9t-0.5 -9.5t-3 -8.5t-6.5 -5q-2 0 -6 -0.5t-8 -0.5t-7.5 -0.5t-5.5 -0.5h-4q-4 0 -8.5 1t-7.5 2.5t-5.5 5t-2.5 7.5q0 2 -0.5 6t-0.5 7.5t-0.5 6
t-0.5 3.5t1 4t1.5 6t1 5.5t1.5 3.5zM86 187l2 -1l4 -2t4.5 -1.5t3.5 -0.5h2h4h4h3h2.5t5 -0.5t4.5 -0.5h3q3 0 6 1.5t3 5.5q0 8 -3 12t-7.5 5.5t-10.5 1t-13 -0.5q-1 0 -2 1l-1 1q-4 -1 -6.5 -3t-4 -5t-2.5 -6.5t-1 -6.5zM86 175q0 -8 3 -12.5t11 -6.5q1 0 4.5 -0.5
t7.5 -0.5t7.5 -0.5t5.5 -0.5h1q3 0 4.5 2t2.5 4.5t1 5v3.5v3v3l-2 1h-11t-9.5 0.5l-9 1t-9.5 0.5h-5q-1 0 -1.5 -1.5zM93 89v-3q6 -2 12.5 -2.5t12.5 -0.5h4t3 1v20l-3 3h-4q-5 0 -9.5 -1t-8 -3t-5.5 -5.5t-2 -8.5zM132 96q0 -6 1.5 -9t4 -4t6.5 -1q5 0 11 -1h2q2 0 3.5 0.5
l4.5 1.5l-5 19q-6 -1 -11 1t-11 2q-4 0 -5 -3t-1 -6zM70 38q0 10 1 13.5t3.5 4t6 1t8.5 4.5q1 0 1.5 1.5t1 2t1 1.5t1.5 1q2 0 2.5 -0.5t0.5 -1v-2t1 -2.5q2 -2 4 -3t4.5 -1.5t4.5 -1.5t3 -3q1 -6 2 -11.5t1 -10.5q0 -4 -3 -4h-2.5t-1.5 2v5.5t-0.5 7.5t-2 6.5t-5.5 2.5h-3
t-2 -3v-24l-2 -1l-2 -0.5l-2 -0.5v29q0 2 -2.5 2.5t-4.5 0.5q-5 0 -6 -4t-0.5 -8.5t0 -8.5t-4.5 -4v0q-1 0 -2 1t-1 2v4v3zM144 30v5q0 2 0.5 5t0.5 5.5t0.5 4.5l0.5 2l13 2q2 1 2.5 2t1 2.5t1.5 2.5t2 1q3 0 3.5 -1.5l1.5 -4.5q5 0 9.5 -0.5t8.5 -5.5q1 -6 2 -10t1 -10
q0 -1 -0.5 -4t-3.5 -3t-3.5 3.5t-0.5 8t-1 8.5t-3 5t-5 0t-4 -1v-28q0 -2 -3 -3t-5 -1v31l-3 2q0 1 -3.5 0.5t-4.5 -1.5q-1 0 -2 -0.5l-1 -0.5v-20l-1 -0.5l-1 -0.5h-1q-2 0 -2 2v3z" />
</svg>
