<?xml version="1.0" standalone="no"?>
<!DOCTYPE svg PUBLIC "-//W3C//DTD SVG 1.1//EN" "http://www.w3.org/Graphics/SVG/1.1/DTD/svg11.dtd" >
<svg xmlns="http://www.w3.org/2000/svg" xmlns:xlink="http://www.w3.org/1999/xlink" version="1.1" viewBox="-10 0 266 256">
   <path fill="currentColor"
d="M188 248q1 2 2 2h3h3t2 -2l0.5 -2.5l0.5 -2.5q0 -17 -2.5 -34.5t-3.5 -34.5q-2 -20 -2 -40t-1 -41v-3q-2 -2 -4.5 -4t-4.5 -3q-10 -1 -20.5 -1.5t-20.5 -1.5h-3q-2 0 -3 -0.5t-2 -1.5t-1 -2v-17q0 -1 -2.5 -1h-2.5h-1.5h-1.5q-1 3 -1 6q0 4 0.5 7t0 6t-2.5 4
q-6 -1 -14 -0.5t-15.5 3t-13 7t-7.5 12.5q-1 5 -1 10v9v9.5v9.5q-1 26 -4.5 52t-7.5 53h2.5h1.5q5 0 7 -3.5t2.5 -8.5t0 -10.5t-0.5 -8.5q3 -29 6 -57t5 -56q3 -7 9.5 -10.5t14.5 -4.5t16.5 -0.5t14.5 0.5h11h9.5t10 0.5t11.5 0.5q3 2 3.5 6.5t0.5 7.5q1 18 2.5 36.5t2.5 37
t1.5 36.5t-0.5 36zM84 217v1l0.5 0.5l0.5 0.5h5h8.5h7.5h6h30q16 0 31 -1q1 0 2 -0.5t2.5 -1t2.5 -1t1 -1.5q0 -2 -1 -2.5t-3 -0.5q-22 0 -44.5 1.5t-44.5 1.5l-2 1l-2 1v1zM92 186q1 1 1.5 3t1.5 4t2.5 3t3.5 1h68v-1.5v-2.5l-0.5 -0.5l-0.5 -0.5h-56q-6 0 -9 -3t-4.5 -7
t-1.5 -8.5v-8.5v-2v-4.5t0.5 -7t0.5 -6.5v-4q3 -4 7 -6.5t8 -3.5t9 -1.5t9 -0.5h11.5t10 1t7.5 4.5t3 10.5v12t-3 12l-2 1t-3.5 2t-3.5 1.5t-3 0.5h-2h-3h-5h-3h-3.5t-4.5 -0.5t-3.5 -0.5h-1.5l-3 -4v-15q0 -2 1.5 -3t3.5 -1h5h2h6l1.5 0.5l1.5 0.5v13l1 1t1 2h1h0.5h0.5
l0.5 -1t0.5 -2l0.5 -2t0.5 -4t0.5 -4.5t0.5 -3.5v-1q0 -2 -1 -3t-3 -1.5t-3.5 -0.5h-2.5q-6 0 -10.5 0.5t-11.5 2.5q-2 1 -3 3.5t-1.5 5.5t-0.5 6v4v0q0 3 1 5t2.5 4.5t3.5 3.5t5 1h15q12 0 18.5 -0.5t10 -3.5t4 -9.5t0.5 -17.5q0 -10 -1 -15t-4.5 -7.5t-9.5 -3t-16 -0.5h-9
t-8 0.5t-8.5 1t-10.5 0.5q-4 1 -6 3.5t-3.5 5.5t-2 6.5t-0.5 6.5v4v7t0.5 10.5t0.5 10.5v7zM95 107v0q0 1 1 1.5l1 0.5h18h19l2 -0.5t4 -0.5t4 -0.5t3 -0.5t4.5 0.5t7.5 0.5t7 -1t4 -2v-1q0 -2 -1.5 -3t-2.5 -1h-25q-4 2 -10 3t-12 1h-12t-10 1l-1 0.5l-1 0.5v0.5v0.5z
M91 54v23q3 0 4.5 -2.5t2 -6t0.5 -6.5v-5q2 -3 4.5 -4t5 -1t4.5 -0.5t3.5 -2.5t2.5 -6.5t1 -12.5v-5q-1 -1 -2 -1.5t-2 -0.5h-2.5t-0.5 2v10t-1 6.5t-4.5 3.5t-8.5 1v-28q-2 0 -5 0.5t-3 3.5v22l-1.5 1l-1.5 1h-1q-4 0 -4.5 -3t-1 -7.5t-1.5 -8t-6 -3.5q-1 0 -3 0.5t-1 2.5
q0 1 0.5 3l1 4t0.5 4t1 3l0.5 1.5l1 3t2 3.5t2.5 2zM141 33v8t1.5 7.5t3.5 5.5t7 3h2.5t3 0.5t2.5 0.5h1v13q0 1 1 1.5l1 0.5q1 0 2.5 -0.5t1.5 -1.5v-13q14 -1 18.5 -8t4.5 -20v-3v-4l-1 -0.5t-2 -0.5q-4 1 -4.5 5.5t-0.5 9t-1.5 8.5t-6.5 4v0l-2.5 -1t-2.5 -2v-27
q0 -2 -1 -2.5t-2 -0.5h-1.5h-1.5q-1 8 -1 16.5t-1 16.5q-1 1 -2 1.5l-1 0.5h-1q-5 0 -7 -3t-3 -7t-1.5 -8.5t-1.5 -6.5v0h-1q-1 0 -2 0.5l-1 0.5v3.5v2.5z" />
</svg>
