<?xml version="1.0" standalone="no"?>
<!DOCTYPE svg PUBLIC "-//W3C//DTD SVG 1.1//EN" "http://www.w3.org/Graphics/SVG/1.1/DTD/svg11.dtd" >
<svg xmlns="http://www.w3.org/2000/svg" xmlns:xlink="http://www.w3.org/1999/xlink" version="1.1" viewBox="-10 0 266 256">
   <path fill="currentColor"
d="M191 243q0 4 2.5 6t6.5 2h1l1 -2l3 -3t2 -3v-6v-9v-9v-6v-7v-10v-8v-4v-9.5t-1 -13.5t-2.5 -12.5t-4.5 -8.5q-4 -4 -10 -4.5t-11.5 -1.5t-9.5 -3.5t-4 -9.5v-3v-2q6 -1 12 -1.5t11.5 -2.5t8.5 -6.5t3 -11.5v-28q0 -2 -2 -2h-3q-3 0 -4 1.5t-0.5 3t0.5 4t-1 4.5t-4.5 3
t-11.5 1h-7q-1 0 -1.5 -0.5t-0.5 -1.5l-0.5 -1.5t-0.5 -3v-3.5v-2h-4q-3 0 -4.5 2t-1.5 4.5v4.5t-2 2h-21q0 2 0.5 4t3.5 2h17q2 0 2.5 1.5t1 4t0.5 5v3.5q0 3 -1 4.5t-3 2.5h-3.5t-5.5 0.5l-6 1t-4 0.5l-1 0.5t-2 0.5v1q0 2 1 2.5t2.5 1t3.5 0.5h2h3h2q1 0 2 -0.5t2.5 -0.5
h2.5h1q3 0 4 2.5t1.5 6t1 6.5t1.5 5q4 3 9.5 3.5l11 1t9.5 2t5 7.5q1 1 1.5 3.5t1 5.5t1 5t0.5 3v4.5t0.5 8t0.5 9.5v7v3v2q0 9 -0.5 18t-4.5 18l-1.5 2.5t-1.5 3.5zM84 162q0 9 1.5 18t3 18.5t3 18.5t2.5 18v2.5t0.5 3.5t0.5 3.5v1.5q1 2 3 2h3h4l1.5 -3t0.5 -2v-2
q-8 -20 -10.5 -40.5t-2.5 -41.5v-11v-10t1 -10t2 -11q1 -4 3.5 -5t5.5 -1t6 -0.5t5.5 -3.5t4 -9t1.5 -18q0 -3 -2 -6.5t-6 -3.5t-4 4l0.5 0.5l0.5 0.5q0 2 1.5 6t1.5 6q0 7 -2.5 11.5t-11.5 4.5h-1q0 -1 -1.5 -2l-1.5 -1q0 -1 0.5 -2.5t0.5 -3t0.5 -3t0.5 -2.5v-1
q0 -3 -0.5 -7t-1.5 -7.5t-3.5 -6t-6.5 -2.5q-2 0 -3 0.5t-1 3.5l0.5 1.5l0.5 1.5q1 2 2 5l2 6t2 5t1 3v1v3.5v3.5v2v3v2.5v3.5v2q-2 2 -3 9t-2 15.5t-1.5 16t-0.5 9.5zM57 213q3 6 4 12.5t1 12.5h2.5h1.5q3 0 5 -1t2 -5v-2l-0.5 -1.5t-1 -4t-1 -4.5l-0.5 -2q-2 -9 -2.5 -18
t-0.5 -18q0 -11 1 -21.5t1 -21.5q-5 0 -7 2.5t-2.5 6t-1 7.5t-1.5 7v51zM113 224q0 3 2 4t5 1q2 0 3 -1.5t1 -3.5q0 -6 -2.5 -12.5t-3.5 -11.5q-3 -16 -4.5 -30.5t-1.5 -29.5h-8q0 12 1 22t2.5 20t3 20.5t2.5 21.5zM135 185q1 4 2.5 7t5.5 3h14q10 0 15.5 -1t8 -4t3 -9
t0.5 -15v-3t-0.5 -4t-0.5 -4v-2q1 -2 0 -2.5t-3 -0.5t-2.5 1t-1 2.5t-1 2.5t-1.5 1h-31v-2t-0.5 -3.5t-2 -2.5t-2.5 -1q-3 0 -3.5 1t-0.5 3v4v6t0.5 8.5t0.5 9v5.5zM143 174v-3v-3l1 -1.5l1 -1.5h30q1 0 1.5 2.5t0.5 4.5v1q0 4 -2.5 8t-5.5 6h-3.5t-5 0.5t-4.5 1t-3 0.5
h-0.5h-1.5q-3 0 -4.5 -1.5t-2.5 -3.5t-1 -5v-5zM48 132q0 1 0.5 2t0.5 2h1q6 0 11 -4t8 -9.5t4.5 -12t1.5 -11.5v-7t-0.5 -8t-2.5 -6.5t-6 -2.5h-4t-2 2t1 4.5t2.5 4.5t2.5 4.5t1 4.5q0 7 -3 13.5t-6.5 11t-6.5 8t-3 4.5zM164 88h24q1 0 1.5 2.5t0.5 3.5q0 4 -3 7t-7 4
t-8.5 1.5t-7.5 0.5v-19zM62 27q0 7 2 10.5t5.5 5t8.5 3t9 2.5q2 1 3 2.5t1.5 3.5l1 4t1.5 3q2 -1 2.5 -2.5t1 -3.5t0.5 -3.5t2 -3.5q5 -2 9.5 -2t8.5 -1t6 -4t2 -10v-4t-0.5 -4t-2 -3t-4.5 -1h-1.5t-1.5 2v1.5v3.5v3.5v1.5q0 1 -0.5 2t-1 2.5t-1 2.5t-1.5 1h-13v-21
q0 -3 -2 -3.5t-3 -0.5q-2 0 -3.5 1.5t-1.5 3.5v20q-9 0 -12 -3t-4.5 -6.5t-2 -6t-4.5 -2.5t-4 1.5v4.5zM167 56q1 0 2 1l1 1h1h1q1 -1 1.5 -3t1 -4.5t0.5 -4v-1.5h21q3 0 4.5 -2.5t2.5 -5t1 -5.5v-5q0 -3 -0.5 -6.5t-5.5 -3.5q-3 0 -3.5 3.5t-1 7.5t-3 7t-9.5 3h-2.5h-1.5
l-2 -3v-21l-0.5 -0.5l-0.5 -0.5q-1 -1 -4 -1h-4v26q0 1 -2 1h-3q-7 0 -8.5 -2.5t-1.5 -6t-0.5 -6t-4.5 -2.5q-3 0 -3.5 2t-0.5 4q0 6 1.5 9t4.5 5t7 2.5t9 0.5l1 1l1 1q0 1 0.5 4.5t0.5 4.5z" />
</svg>
