<?xml version="1.0" standalone="no"?>
<!DOCTYPE svg PUBLIC "-//W3C//DTD SVG 1.1//EN" "http://www.w3.org/Graphics/SVG/1.1/DTD/svg11.dtd" >
<svg xmlns="http://www.w3.org/2000/svg" xmlns:xlink="http://www.w3.org/1999/xlink" version="1.1" viewBox="-10 0 266 256">
   <path fill="currentColor"
d="M163 205v4v4v3.5v2.5t1 6.5t2.5 11.5t3.5 10t5 4t4.5 -2t1.5 -5q0 -4 -2.5 -8t-3.5 -9q-2 -8 -3.5 -16t-1.5 -16v-3v-3v-3v-2q0 -1 1 -3.5t3 -2.5h1q1 0 2 1l1 1l3 3t4 5t4 5l3 3l1 2t2 3h1q2 0 4 -2.5t2 -3.5t-0.5 -2l-0.5 -1q-2 -1 -4.5 -4t-5.5 -6t-6 -5.5t-4 -4.5
q-3 -3 -4 -5t-1 -5v-3q1 -1 2.5 -3.5t3.5 -5t3 -5t2 -3.5q3 -3 6 -6.5t3 -8.5q0 -2 -1 -2.5t-2 -0.5q-5 0 -7 3.5t-4 8t-5 8t-8 3.5q-2 0 -5 -5t-5 -11.5t-3.5 -12t-1.5 -6.5q0 -3 2 -4t5 -2h7t10.5 -0.5t10 -0.5h6.5q1 0 1 -1v-2v-2t-1 -1h-43q-1 0 -1 -2v-2q0 -3 0.5 -4.5
t3.5 -2.5h4t6 -0.5t6 -0.5h4h3t3.5 -0.5t3 -2t1.5 -3.5v-18h-5l-5 15q0 1 -2 2t-4.5 1h-5h-3.5h-7q-3 -2 -3.5 -5t-0.5 -5.5t-1.5 -4.5t-5.5 -2q0 8 1 15.5t1 14.5v5l-2 1l-3.5 0.5t-8.5 0.5t-10 0.5t-8 0.5h-13h-12q-2 -1 -2 -3t-0.5 -4.5t-1.5 -4.5t-3 -2t-3.5 1.5
t-1.5 3.5l-6 88q0 1 -0.5 3l-1 4l-1 4t-0.5 3l-0.5 3l-1 6t-1 5.5t-0.5 3.5q-1 1 -2 4t-2.5 6.5t-2.5 6.5t-1 5t1.5 3.5t3.5 1.5q4 0 7 -5t5 -12.5t3.5 -16.5t3 -17.5t2 -16t0.5 -10.5t0.5 -9t1 -13t1 -13t0.5 -9q1 -4 5 -7q12 -2 25 -2.5t26 -0.5h5q3 4 4 11t2 11
q1 5 3.5 9.5l5 9t4 9t1.5 8.5q0 10 -1.5 19.5t-1.5 19.5zM100 157v44q0 2 1 4.5t4 2.5h26q4 0 6.5 -3.5t2.5 -6.5v-39q0 -1 -1.5 -3t-2.5 -2q-3 0 -3.5 2t-0.5 4.5t-0.5 5t-2.5 2.5h-21l-0.5 -1.5t-1.5 -2.5q0 -1 -1 -4t-5 -3zM105 184q0 -4 2.5 -6t5.5 -3t6.5 -1h6.5t4.5 1
t2 3t0.5 4v3q0 9 -3.5 12.5t-11.5 3.5q-5 0 -7.5 -1t-4 -3t-1.5 -5.5v-7.5zM90 136q1 4 5 4.5t7 0.5h3q2 0 6.5 -0.5t10 -0.5t10 -0.5t6.5 -0.5t4.5 -1.5t2.5 -3.5v-1q-1 0 -1.5 -0.5l-0.5 -0.5h-7h-10h-10t-10 0.5t-12 0.5q-3 1 -4 3zM90 75l1 1.5t2 1.5h1q3 0 5 -3v-3v-4
v-5v-3q0 -2 1.5 -3t3.5 -1.5t4 -1.5t3 -1q2 -1 3 -4.5l2 -7l2 -7t1 -5.5q0 -4 -1 -4.5t-3 -0.5q-3 0 -4 3.5t-1 7t-1 7t-5 3.5h-3t-2 -2v-29q0 -2 -1 -2h-2q-2 0 -3.5 1.5t-1.5 3.5v28q0 1 -1 3t-2 2t-2.5 -0.5t-3 -1.5t-2.5 -1.5t-1 -1.5v-20q0 -1 -2.5 -1h-3.5
q-2 0 -2.5 1.5t-0.5 4v4.5v3q0 8 1.5 12t4 5t5.5 1t5 1.5t3 5.5t1 13zM140 26q0 9 2 16t10 11q4 1 5.5 4t2.5 5.5t1 4.5t1 2q3 0 4 -2t1.5 -4t0 -5t-0.5 -4q1 0 3.5 -0.5l5 -1l5 -1t3.5 -0.5t3.5 -1.5t2.5 -3.5v-24h-4q-1 3 -1 6.5t-1 7.5t-3 6.5t-5 2.5h-6l-0.5 -0.5
t-0.5 -1.5v-28q0 -1 -2 -1.5t-3 -0.5q-2 0 -2.5 1.5t-0.5 3.5v3.5v2.5v4t-0.5 6t-0.5 5.5v3.5q-1 2 -2 2.5t-3 0.5q-3 0 -5 -2t-2.5 -5t-0.5 -6.5v-5.5t-1 -2.5t-3 -0.5q-1 0 -2 0.5t-1 1.5z" />
</svg>
