<?xml version="1.0" standalone="no"?>
<!DOCTYPE svg PUBLIC "-//W3C//DTD SVG 1.1//EN" "http://www.w3.org/Graphics/SVG/1.1/DTD/svg11.dtd" >
<svg xmlns="http://www.w3.org/2000/svg" xmlns:xlink="http://www.w3.org/1999/xlink" version="1.1" viewBox="-10 0 266 256">
   <path fill="currentColor"
d="M70 246q0 2 0.5 3.5t2.5 1.5q4 0 5 -4t1 -7q0 -5 0.5 -16.5t1 -25.5t0.5 -30t0.5 -30t0.5 -25.5v-16.5q3 -4 5 -5.5t4.5 -2.5t5 -1.5t5.5 -1.5q8 -1 14.5 -1.5t12.5 -1t12 -0.5h14h21q2 2 3.5 4.5t2.5 4.5q2 19 3 38t1 38.5v39v38.5q0 1 1 2t2.5 1.5t2.5 0.5h2v-32.5
t-3 -32.5v-78q0 -12 -1.5 -18.5t-5 -9t-10.5 -2.5h-19q-17 0 -33.5 1.5t-32.5 3.5q-1 0 -2 -0.5t-2 -0.5h-3t-1 1q-1 0 -2 2l-1 2l-2 2l-1 1q-2 39 -3.5 78.5t-1.5 79.5zM98 246q0 2 1 2h2t2 -0.5t1 -2.5t-0.5 -7t-0.5 -10t0.5 -10t0.5 -6v-4v-4.5t0.5 -4.5t0.5 -3q1 0 2 -3
t3 -6.5t3.5 -7t2.5 -5.5l1 -1t1.5 -2t1.5 -2l1 -1q1 -3 1 -9t0.5 -11t2 -9t6.5 -4q3 0 6 0.5t3 4.5t-0.5 8.5t-0.5 9.5t3 8.5t7 6.5t7 5.5t3 6.5q0 5 -5 7t-11 4t-11 6.5t-5 13.5q0 3 1.5 8t3 10.5t4 9.5t4.5 4t3.5 -1.5t1.5 -3.5t-2 -5t-4 -7t-4 -8.5t-2 -9.5q0 -3 3.5 -7
t7.5 -4q1 0 2 1t1.5 2.5t1 3.5t1.5 3l0.5 2.5t1.5 5t1.5 4.5t0.5 2.5t1.5 2.5t3 5t3 5.5t1.5 3.5q1 2 2 2h2q2 0 3 -0.5t1 -2.5q0 -4 -3 -9t-6.5 -10t-6 -10.5t-2.5 -10.5v-1.5v-0.5q7 -3 10 -6.5t3 -10.5q0 -5 -3 -7.5t-7 -4t-7.5 -4t-3.5 -7.5q0 -3 4 -3.5t9 -1.5t9 -4
t4 -11v-3t-0.5 -4t-1.5 -3.5t-3 -1.5h-30q-2 0 -2 -2v-3q0 -4 3 -5.5t6.5 -2t8.5 -1t9 -1.5t6.5 -3t2.5 -7q0 -4 -2.5 -6.5t-6.5 -2.5h-4h-5h-5h-3h-11q-4 0 -8.5 0.5t-9 0.5t-10.5 1v1q0 3 2 3.5t2 3.5v1.5t-1 0.5l-15 15q0 1 1 1.5t2 0.5q2 0 6 -3t8.5 -7t9 -7.5t5.5 -5.5
h34q1 0 1.5 1t0.5 2q0 2 -1 3t-3 2q-6 0 -11.5 1t-9.5 3t-6.5 5.5t-1.5 11.5q-6 0 -12 0.5t-10.5 2t-8 5t-3.5 10.5v7q4 5 8.5 5h10.5l1.5 1t1.5 2v0v1v0l-2 4t-2.5 4t-3 3.5t-1.5 2.5q-3 4 -4 9.5t-4 9.5q0 6 -0.5 10.5t-0.5 8v8.5v9v3v4.5v4.5v2zM99 145q0 -5 4.5 -7
t8.5 -2q2 0 3.5 0.5t2.5 2.5v3v2v4v2q0 1 -1 2l-1 1h-12q-1 0 -2.5 -2.5t-2.5 -3.5v-1v-1zM146 148v-5q0 -4 1 -7t6 -3t8 1.5t3 6.5t-3.5 7t-9.5 2h-2t-3 -2zM92 57v11q0 1 1 1.5l1 0.5h1q2 0 3 -1.5t1.5 -3.5t0.5 -4t1 -3q1 -2 4.5 -2.5l7 -1t6.5 -2t3 -5.5v-18l-0.5 -0.5
l-0.5 -0.5q-1 0 -3 -0.5t-3 -0.5v19q0 1 -1 1.5t-2.5 1.5t-3 1.5t-2.5 0.5q-2 0 -3.5 -1t-1.5 -4v-24q0 -2 -1.5 -3.5t-3.5 -1.5q-1 0 -2 0.5t-1 1.5v28l-1 4h-2h-1q-9 0 -11.5 -4.5t-3 -9.5t-0.5 -9.5t-3 -4.5q-2 0 -3 1.5t-1.5 3t-0.5 3.5v3v8.5t3 8.5q5 2 11 3.5t12 2.5z
M142 29l-1 0.5t-1 1.5v20l1 1l1 1q1 1 2 2.5l1 1.5h12q2 0 2 2v4t0.5 3.5t2.5 1.5t2.5 -1l1 -2t0.5 -3v-3q1 -2 4.5 -2.5t7.5 -1t7.5 -1.5t5.5 -3v-3.5t0.5 -5t0.5 -5v-3.5l0.5 -1.5l0.5 -1.5q0 -3 -1 -4t-3 -1h-2.5t-1.5 2v10t-2 9q0 1 -0.5 2.5l-0.5 1.5h-11l-2 -2
q0 -2 0.5 -5.5t0.5 -8.5q0 -4 -0.5 -8t-0.5 -5t-0.5 -4t-0.5 -4h-2h-3t-2 2v35h-13l-0.5 -3t-1.5 -5q0 -1 0.5 -3.5t0 -4.5t-1.5 -4t-3 -2z" />
</svg>
