<?xml version="1.0" standalone="no"?>
<!DOCTYPE svg PUBLIC "-//W3C//DTD SVG 1.1//EN" "http://www.w3.org/Graphics/SVG/1.1/DTD/svg11.dtd" >
<svg xmlns="http://www.w3.org/2000/svg" xmlns:xlink="http://www.w3.org/1999/xlink" version="1.1" viewBox="-10 0 266 256">
   <path fill="currentColor"
d="M78 180v7v8.5v7.5v4q0 4 0.5 10t2 12t4 11.5t5.5 8.5q1 0 2 -1l2 -2q0 -2 -1 -4.5l-2 -5t-2 -4.5t-1 -5q-1 -5 -1.5 -10t-1 -9l-1 -8t-0.5 -9v-7q0 -2 0.5 -7t1 -11t1 -12.5t1 -12.5t1 -11t0.5 -7q0 -3 3.5 -3.5t8 -2t8.5 -4.5t4 -10q0 -6 -0.5 -11.5t-1.5 -11.5
q-1 -1 -2.5 -2t-2.5 -1q-2 0 -2.5 1t-0.5 2q0 5 1.5 9.5t1.5 8.5q0 5 -2 8.5t-8 3.5q-2 0 -3 -2.5t-1 -6.5v-8t-1 -8t-4 -6.5t-8 -2.5q0 4 1 8t2.5 8.5t2.5 8.5t1 8q0 12 -3 22.5t-5 21.5v5v8.5v7.5v6zM152 192h2q2 0 2 2v55h8q1 0 1.5 -1t0.5 -2v-2.5v-1.5v-4t-2 -4v-42
h1.5t3 -0.5t3.5 -0.5h3h4q4 0 6 3.5t3.5 9t2 12t2 12t4 9.5t7.5 4q0 -4 -1 -8.5t-3 -9t-3.5 -8.5t-2.5 -8t-1.5 -7t0 -5.5t0.5 -5.5v-8q-1 -6 -2.5 -12.5t-1.5 -13.5t2.5 -14.5t2.5 -14.5q0 -3 -2 -5.5t-4 -2.5q-1 0 -2 0.5l-1 0.5v13q0 2 -2.5 3t-5 1.5t-4.5 0.5h-3h-3.5
h-2.5l-1 -2v-7t-0.5 -5.5l-1 -5t-0.5 -6.5q0 -5 3.5 -7t8 -3t8.5 -3t4 -7q0 -3 -1.5 -5.5t-3.5 -5.5t-4.5 -4.5t-5.5 -1.5q0 5 2 8.5t2 7.5q0 5 -4.5 6.5t-7.5 1.5q-5 0 -8 -3.5t-4.5 -8.5t-2 -10t-0.5 -9l-2 -1l-1 1v19q2 2 5 6t3 8q0 1 -1 2.5t-3 2t-3.5 0.5h-2.5h-5
l-2 -2t-4 -3.5t-3.5 -3l-2.5 -2.5l-1.5 -0.5l-1.5 -0.5h-1h-1l-0.5 0.5l-0.5 0.5v1q0 5 3.5 9t9 6t11 2.5t9.5 0.5l1 2l0.5 4t1 9.5t1 11.5t0.5 10v5v4q0 1 -0.5 1.5l-0.5 0.5h-23v-29l-1 -0.5l-1 -0.5q-1 -1 -2 -1.5l-1 -0.5h-2v0q-1 1 -1.5 2.5t-0.5 2.5q0 10 2 21t2 22
v15q0 1 -1 3.5t-1.5 6.5t-1.5 8t-1 6q-1 5 -4 8.5t-3 8.5q0 1 0.5 2.5t2.5 1.5q3 0 5.5 -5.5t4.5 -13t3.5 -14.5t1.5 -10q1 0 3 -0.5t4.5 -0.5t5 -0.5l2.5 -0.5h4zM56 229q1 2 2 3.5t3 1.5t2.5 -1t0.5 -3q0 -12 -2.5 -24t-2.5 -24q0 -8 1.5 -15.5t3.5 -15.5q1 -2 1.5 -3.5
t1 -2t1 -1.5t0.5 -4h-6l-0.5 1.5l-1 3t-1.5 3.5t-1 3q-3 8 -4 16t-1 16v9q0 2 0.5 7.5l1 11l1 11t0.5 7.5zM97 147v5.5t0.5 9.5t0.5 9.5v6.5q1 4 1.5 9.5t2 11t4.5 9.5t7 4v-3.5v-3.5q-1 0 -1.5 -1.5t-1.5 -3t-1.5 -3l-0.5 -1.5q-2 -6 -3 -13.5t-1 -14.5v-13.5t1 -12.5
q-1 -3 -3 -4.5t-4 -2.5q0 1 -1.5 3l-1.5 2v1v0.5v0.5l1 2t1 3zM147 167q6 0 8 3.5t2 8.5q0 1 -0.5 3l-0.5 2q-5 2 -11 2h-12v-14q0 -1 2 -2t4.5 -1.5t4.5 -1t3 -0.5zM164 167h18l0.5 1.5t0.5 3v3.5v2v2v2t-0.5 2l-0.5 1h-18v-17zM163 154q0 -4 1.5 -6.5t4 -3.5t6 -1h7.5v16
h-16q-3 0 -3 -2v-3zM53 122v1q1 0 2 1.5l1 1.5q5 1 7.5 -1.5t3.5 -6.5t1.5 -8t0.5 -6v-7q0 -3 -1 -6t-3 -5t-6 -2q0 4 1.5 8.5t1.5 9.5q0 3 -1.5 6t-3 5.5t-3 4.5t-1.5 4zM157 51v13l1 0.5t1 1.5h1h1l1.5 -1.5l0.5 -0.5v-13q0 -1 5 -1t10 -2t10 -7.5t5 -16.5q0 -3 -2 -4.5
t-4 -1.5h-2t-2 2v7t-1.5 7t-4 4.5t-6.5 1.5q-3 0 -4.5 -3.5t-2 -8t-0.5 -8.5v-7l-0.5 -0.5l-0.5 -0.5q-2 0 -3.5 1.5t-1.5 2.5v26h-14q-2 0 -3.5 -2.5t-2 -5t-1 -5.5l-0.5 -3h-4v16q0 1 3 3.5t5 2.5l2 0.5t4.5 0.5t4.5 0.5t3 0.5zM56 25q0 9 0.5 13.5t3 7t7 3.5t11.5 2
q2 1 2.5 2.5t1 3.5l1 4t2.5 2t2.5 -1.5l1 -3t0.5 -3.5v-2t3 -1.5t6.5 -1.5t7 -2.5t5.5 -2.5q0 -1 1 -3t1.5 -4.5t1.5 -5t1 -4.5q0 -3 -2 -5.5t-5 -2.5h-1q-1 3 -1 7t-0.5 7.5t-2.5 6.5t-7 3q-3 0 -5.5 -1t-2.5 -5q0 -3 1 -6t1 -7q0 -3 -1 -6.5t-5 -3.5q-2 0 -3 0.5t-1 4.5
v25q-9 0 -12 -4t-3.5 -8l-1 -8t-5.5 -4q-3 0 -3 4z" />
</svg>
