<?xml version="1.0" standalone="no"?>
<!DOCTYPE svg PUBLIC "-//W3C//DTD SVG 1.1//EN" "http://www.w3.org/Graphics/SVG/1.1/DTD/svg11.dtd" >
<svg xmlns="http://www.w3.org/2000/svg" xmlns:xlink="http://www.w3.org/1999/xlink" version="1.1" viewBox="-10 0 266 256">
   <path fill="currentColor"
d="M62 246q0 3 1 5.5t4 2.5q1 0 2.5 -0.5t1.5 -1.5q2 -13 3 -25t1.5 -24.5t0.5 -25t1 -24.5q2 -7 7.5 -10t11 -5t10 -5t4.5 -10h-4l-2.5 2.5t-4 3.5t-5 3t-3.5 1q-2 0 -2.5 -1t-0.5 -3q0 -4 3 -8t7 -7.5t7.5 -6t3.5 -3.5q0 -3 -3 -3q-5 0 -9 4t-7 9t-7 9t-9 4l-0.5 -1.5
t-0.5 -3v-3v-1.5q0 -3 3.5 -6t7.5 -5.5t7 -4.5t3 -5q0 -1 -1.5 -1.5t-2.5 -0.5h-1.5h-0.5l-18 13q-2 2 -3.5 6t-1.5 7q0 2 1.5 5t3 5.5l3 5t1.5 4.5q0 3 -2 6t-2 6q0 1 -0.5 5t-0.5 8t-0.5 8t-0.5 5l-0.5 2.5l-0.5 2.5v40q-2 1 -3 4t-1.5 6t-0.5 6.5v5.5zM177 149
q0 2 0.5 7.5t1 11.5t1 11.5t0.5 7.5v7.5v12v14.5q0 7 0.5 13.5t0.5 11.5v8q2 0 4 -0.5t2 -3.5v-61q-2 -11 -2.5 -21.5t-0.5 -21.5v-4v-5.5t0.5 -4t0.5 -2.5l7 -7q-1 -2 0.5 -4.5t1.5 -5.5q0 -4 -2.5 -6t-4.5 -6q-4 -3 -8.5 -5t-10.5 -2q0 3 3 5t6 4.5t6 5.5t3 8q0 3 -1.5 4
t-4.5 2q-4 -3 -7.5 -6.5t-7.5 -6.5t-8.5 -5.5t-10.5 -2.5h-2q-2 0 -2 2q0 3 5 5t10.5 4t10 5.5t4.5 9.5q0 3 -3.5 4t-5.5 1q-4 0 -6 -0.5t-4 -2t-4 -2.5t-4 -1q-1 0 -2 0.5t-1 1.5q0 2 1.5 3.5t3.5 3t4.5 1.5t4.5 1h3t5 0.5t5 0.5h3q3 1 3.5 4.5t1.5 5.5zM91 243q0 1 1 1.5
t3 0.5h2q1 -1 3 -2.5t4 -3.5l4 -4l3 -3q2 -2 3 -4.5t2.5 -4.5t3.5 -3.5t6 -1.5q3 0 4.5 1t2.5 2.5t1.5 3.5t1.5 3q1 0 3 2l4 4l4 4t3 2l0.5 0.5l0.5 0.5q3 0 3 -3q0 -4 -4 -8t-8.5 -7.5t-8.5 -7.5t-4 -8v-22q13 -5 21 -14t8 -23q-4 0 -5.5 2.5t-2.5 6t-2 6t-4 2.5
q-2 0 -4.5 -3.5t-4.5 -8l-4 -9t-2 -6.5v-36q0 -4 3 -6.5t7.5 -3.5t9.5 -2t9.5 -2t7.5 -4t3 -8q0 -6 -2.5 -11t-9.5 -5q-12 0 -23 2t-23 2h-3h-3.5t-3 -0.5l-1.5 -0.5v-11q0 -1 1 -1t2 -1q1 0 2 -0.5t3 -1t3.5 -1l1.5 -0.5l3 -4.5t2 -3.5t1.5 -4t0.5 -5v-7q-1 -1 -2 -1h-2
h-2.5t-1.5 1v7q0 3 -0.5 6t-3 5t-6.5 2h-3q-2 0 -2 -1v-22q0 -1 -1.5 -1h-1.5h-2t-1 1v23q-6 0 -9 -1.5t-3.5 -3.5t0 -4l1 -4t-0.5 -3t-4 -1q-2 0 -3 1t-1 3v2q0 1 0.5 2.5t0.5 3.5t0.5 4l0.5 2q2 3 5.5 4t6.5 1.5t5.5 2t2.5 5.5v3t-2 3q-4 -1 -7 -1t-7 2q0 1 -0.5 1t-0.5 1
q0 2 2 3t4.5 1.5t5 0.5h4.5q4 0 7.5 -0.5t8.5 -0.5h8q3 0 5 2.5t3.5 5.5t2 6t0.5 5q0 3 -1 5.5t-4 6.5v42q0 2 -2.5 5.5t-6 7.5t-6.5 7t-4 3q-2 0 -3 -3t-1 -4q-1 -1 -1.5 -5t-0.5 -5l-1.5 -0.5l-1.5 -0.5l-1 -1q-2 0 -2 1.5v3.5v1v1q1 9 2.5 13.5t4.5 7t8 4t14 5.5l0.5 0.5
l0.5 0.5q2 4 2 7v8q0 1 -0.5 4t-0.5 4q-1 3 -5 7.5t-9 9.5t-10 9.5t-7 7.5v1zM105 190q-4 0 -7 3t-4.5 8t-2.5 9.5t-1 7.5q3 0 6 -3.5t5 -8.5t3 -9.5t1 -6.5zM146 191v2q1 0 1.5 1.5t0.5 2.5q1 3 1.5 6.5t1.5 6.5t3 4.5t7 1.5q0 -3 -1 -7t-2.5 -8t-3 -7t-1.5 -5l-1 -1h-2
q-4 0 -4 3zM108 172q0 -1 2 -4.5t5 -7t6 -6t4 -2.5t3.5 2.5t5 6t4 7t1.5 4.5q0 2 -1.5 3t-4 2t-5 1.5t-3.5 0.5l-3 -0.5t-6 -1.5t-5.5 -2t-2.5 -3zM129 72v-2q4 -1 6.5 -1.5t5 -1.5t6 -1.5t7.5 0.5q5 0 6.5 3t1.5 7q0 3 -3.5 5t-7.5 3t-8.5 1.5t-6.5 1.5q-3 -2 -5 -7t-2 -8z
M137 27q0 8 3 11t6.5 4t7 3t5.5 8q1 -1 1.5 -2t0.5 -2t0.5 -2t1.5 -1q5 -1 9 -2t7.5 -2.5t5 -5t1.5 -9.5v-2v-3q-1 -2 -2 -2h-2q-4 0 -3.5 2.5t0.5 6t-3 6t-13 2.5v-25q-5 0 -6 4t-1 9t-0.5 9.5t-4.5 4.5q-3 0 -4.5 -2.5t-2 -5t-1.5 -4.5t-3 -2q-3 0 -3 2z" />
</svg>
