<?xml version="1.0" standalone="no"?>
<!DOCTYPE svg PUBLIC "-//W3C//DTD SVG 1.1//EN" "http://www.w3.org/Graphics/SVG/1.1/DTD/svg11.dtd" >
<svg xmlns="http://www.w3.org/2000/svg" xmlns:xlink="http://www.w3.org/1999/xlink" version="1.1" viewBox="-10 0 266 256">
   <path fill="currentColor"
d="M94 177v70q0 1 1.5 2.5t2.5 1.5t1 -0.5t1 -1.5l0.5 -2.5l0.5 -2.5v-67q1 0 3.5 -0.5t3.5 -0.5q2 1 3.5 4t2 6.5l1 7t0.5 4.5v3.5t0.5 4.5t0.5 4.5v3.5v12q0 1 1 1h2h1.5t1.5 -1v-5v-5v-9.5t-1 -12t-2 -12t-4 -8.5q-2 -2 -4.5 -3t-4.5 -2.5t-3.5 -3.5t-1.5 -4
q0 -3 0.5 -4.5t3.5 -2.5l46 -5l3 1v15q-7 4 -11.5 11t-7 15t-3.5 16t-1 15q0 3 1 4.5t4 1.5l1 -0.5l1 -0.5q0 -2 0.5 -6.5t1 -9.5t1 -9.5t0.5 -5.5t0.5 -3.5l1 -5t1 -4.5l0.5 -2q0 -1 0.5 -2t1.5 -2l2 -2t2 -1l2.5 0.5l2.5 0.5v72q0 1 1 1h2t2.5 -1.5t1.5 -2.5v-70
q0 -2 2 -2h2q4 0 6.5 2.5t4 6.5t2.5 8t1 7v6v10v9v7q2 0 4 -0.5t3 -1.5v-3v-3.5v-3.5v-3q0 -4 0.5 -9.5t0 -10t-1.5 -9.5t-3 -9q-3 -4 -6.5 -6t-7.5 -3.5t-6 -4.5t-2 -8q0 -4 2.5 -5t5.5 -2q2 0 3.5 -2t3.5 -4l3.5 -3.5t3.5 -1.5t4 1t3.5 2l3 2t3.5 1t3.5 -0.5t1.5 -3.5v0
q0 -1 -1 -2l-1 -1q-1 -1 -3.5 -2t-5.5 -2.5l-5 -2.5t-3 -1q-3 -7 -4 -11t-2 -6t-5 -2.5t-13 -1.5v-4v-3q0 -1 2 -3q10 1 14 -4.5t4 -13.5q0 -1 -0.5 -3.5t-0.5 -3.5t-2 -1h-2.5t-1.5 1v14q0 1 -1 2t-2.5 1.5t-2.5 1t-2 0.5q-3 0 -4 -2t-1 -4.5t-0.5 -5.5t-2.5 -6t-6 -4.5
t-11 -1.5q-4 0 -4 3q0 1 0.5 1.5t1.5 0.5l13 3q1 1 2 2.5t1.5 4t0.5 4.5v2q0 2 -2 3t-3 1q-4 0 -6 -2t-3 -4.5t-2 -4.5t-4 -2q0 9 2 12t5 4t6.5 1t6.5 3v3q0 2 -0.5 4t-2.5 2q-10 1 -19.5 2t-18.5 1h-9q-2 0 -2 -1v-2t2 -3t5 -3.5l6 -3t4 -2.5v-19q0 -1 -1 -1.5t-2 -0.5
t-2.5 1.5t-1.5 2.5t0.5 3.5l0.5 2.5l0.5 1l0.5 1q0 3 -2 6t-5 3t-4.5 -2t-2.5 -5t-0.5 -6t0.5 -5q-1 -2 -3 -3t-4.5 -1h-5.5h-4h-4t-2 3l0.5 1.5t1.5 1.5h14l0.5 1.5t0.5 2.5v2.5v3.5v2.5v3.5t-2 1h-1q-3 0 -4.5 -1.5t-2.5 -3.5l-2 -4t-3 -2t-3.5 1.5t-1.5 2.5q0 5 2 7.5
t5 4t6.5 2t6.5 0.5q1 2 1 3v3v2t-1 2h-21l-0.5 1t-1 1.5t-1 1.5l-0.5 1q0 2 2.5 2.5t3.5 0.5q3 0 7 -1.5t8 -1.5h1.5t1.5 2v9l-1 0.5t-2 1.5h-1t-2.5 0.5t-3 0.5h-1.5q-2 0 -5.5 0.5t-7.5 1t-7.5 1t-4.5 0.5q-3 -1 -3.5 2t-0.5 4q9 0 18 -1.5t18 -1.5h2h2q1 2 1 4q0 6 -3 7
t-7.5 1h-8t-3.5 4q0 2 1 3h5q4 0 7 -1t6 -1v0h1q1 1 1.5 2.5t0.5 2.5q0 5 -2.5 7.5t-6.5 5t-7 5t-5 6.5l-8 38v3q0 2 0.5 3.5t2.5 1.5q3 0 4.5 -1.5t2.5 -4.5v-3.5t0.5 -5.5t0.5 -5.5v-3.5q1 -2 1.5 -7t1.5 -9t3 -7.5t6 -5.5l2 0.5t3 0.5zM101 142v-4t1 -3t5.5 -1.5t10 -1.5
t11.5 -1.5t11 -1t9 -1t5 -0.5v14l-3 1l-5 0.5t-11.5 1.5t-13.5 1.5t-12 1.5h-3q-3 0 -4 -2t-1 -4zM172 129q0 7 -2.5 9t-9.5 2q0 -8 2.5 -9.5t9.5 -1.5zM101 122v-2t1 -3q11 -2 22 -3.5t23 -1.5h5q2 0 2 2v3q0 2 -0.5 5t-2.5 4q-1 0 -4 -0.5t-5 -1.5v0h-1q-2 1 -7.5 1.5
t-11.5 1t-11 1t-7 0.5q-3 0 -3 -2v-4zM159 119q0 -3 2 -4.5t5 -1.5q6 0 7 3t1 8h-13q-2 0 -2 -2v-3zM89 51q0 1 -0.5 2.5t-0.5 3.5q0 1 0.5 3t0.5 3q0 2 2 2h0.5h1.5q0 -1 0.5 -4.5t0.5 -5.5q0 -1 0.5 -1.5t1.5 -1t2 -0.5t3 -1q9 -3 11.5 -9t2.5 -15q0 -2 -0.5 -3.5
t-2.5 -1.5q-3 0 -4 3q0 2 0.5 5t-0.5 5.5t-2.5 4.5t-4.5 2q-2 0 -4 -1t-2 -3v-18q0 -2 -1.5 -2h-1.5q-2 0 -2.5 0.5t-0.5 3.5q0 2 -0.5 4.5t-0.5 5.5t0.5 6t0.5 4q-1 1 -1.5 1h-1.5q-6 0 -8 -3t-2.5 -6.5t-1 -6.5t-3.5 -3q-2 0 -2.5 1t-0.5 2q0 6 1 10.5t3 7.5t6 5t11 1z
M133 26q0 9 2.5 14.5t11.5 6.5q4 1 5.5 3t1.5 4.5v4.5t2 2q1 0 2 -1.5t1 -3t0.5 -3.5t1.5 -3q1 -2 3.5 -2.5l5 -1t4.5 -1.5t3 -3q2 -5 3.5 -8t1.5 -8q0 -1 -0.5 -2.5t-3.5 -1.5l-1.5 4t-3.5 8t-5 7t-7 2q-1 0 -1.5 -1t-0.5 -2v-20v-2t-0.5 -2t-1.5 -1.5t-2 -0.5l-1.5 1
t-1.5 2v22q0 2 -1 2.5t-2 0.5t-2.5 -0.5t-3 -1.5l-3 -2t-1.5 -2v-12q0 -1 -1.5 -1.5l-1.5 -0.5q-3 0 -3 1v3zM176 21q-1 0 -1 1q0 2 1 2t1 -2q0 -1 -1 -1z" />
</svg>
