<?xml version="1.0" standalone="no"?>
<!DOCTYPE svg PUBLIC "-//W3C//DTD SVG 1.1//EN" "http://www.w3.org/Graphics/SVG/1.1/DTD/svg11.dtd" >
<svg xmlns="http://www.w3.org/2000/svg" xmlns:xlink="http://www.w3.org/1999/xlink" version="1.1" viewBox="-10 0 266 256">
   <path fill="currentColor"
d="M57 248q0 1 2 1h2q4 0 6 -5.5t3 -13.5t1.5 -18t0.5 -19t0.5 -16.5t1.5 -10.5q0 -1 0.5 -2.5t1.5 -2.5l-0.5 -3t-0.5 -6v-6t1 -4q0 -2 0.5 -7t1.5 -10.5t2 -10t1 -6.5q1 -2 4.5 -3t8 -2t8.5 -1h6l2 -0.5t4.5 -0.5t4.5 -0.5l2 -0.5h24h24q5 1 7 6t2 9q0 2 0.5 7t1 11l1 12
t0.5 9q1 0 1 2v2q0 2 -1 3.5t-1 3.5v1l0.5 3.5l0.5 3.5q0 1 0.5 4t0.5 6t-0.5 6t-0.5 4q2 1 2.5 6t1.5 11.5t1.5 13t1.5 12.5t2 9.5t3 3.5q3 0 4 -2t1 -5v-2v-1q0 -1 -0.5 -3l-1 -4l-1 -4t-0.5 -3t-0.5 -5t-1 -8.5t-1 -8t-0.5 -5.5l-0.5 -1.5t-0.5 -2.5q-1 -2 -1.5 -8
t-1 -13t-0.5 -13.5v-8.5q-1 -6 -0.5 -13t0 -13.5t-1.5 -13.5t-5 -12q-1 -2 -3.5 -3t-5.5 -1.5t-6 -0.5h-5h-7t-8.5 -0.5t-7.5 -0.5h-3l-1 -3v-18l-2.5 -1.5t-4.5 -1.5v0v0h-1l-0.5 0.5t-1.5 0.5q0 2 -0.5 5.5l-1 7t-1 6t-0.5 4.5l-3 1q-1 0 -4.5 0.5t-8 0.5t-8 0.5t-5.5 0.5
q-7 1 -11.5 3.5t-6.5 6t-3 8t-2 10.5q-1 14 -2.5 27t-2 25.5t-1.5 25t-2 26.5q0 2 -0.5 4.5t-1.5 5.5t-1.5 5.5t-0.5 4.5zM104 187q0 2 0.5 8.5t1 14t2 13t4.5 5.5h31q5 0 7.5 -2.5t3.5 -7t1 -8.5v-7v-11t-1 -11q-2 -3 -5 -3q-2 0 -3 2.5t-1 5.5t-0.5 5.5t-3.5 2.5h-26
q-3 0 -3 -2v-5t-1 -5.5t-3 -2.5h-2.5t-1.5 2v6zM112 209v-4v-4q6 -1 11.5 -1h10.5h5.5h3.5l3 3v2v3q0 5 -1.5 8t-4.5 4.5t-7 1.5h-9q-7 0 -9.5 -3t-2.5 -10zM124 143q-2 0 -5 1.5t-6 3.5l-6 4t-4 3l-3 3l-4.5 4.5l-5 5l-2.5 2.5q-1 1 -3.5 2t-3.5 1q0 1 -1 4t-1 4
q2 0 6 -2.5t9 -6t10.5 -8t10 -8.5t7 -7.5t2.5 -5.5zM136 144q0 6 4 8.5t7 5.5q1 1 3.5 2.5t5 3.5t4.5 4t3 2h1v0q2 0 4.5 -0.5t3.5 -0.5l0.5 -0.5t0.5 -1.5q0 -2 -5 -5.5t-11 -7.5t-12.5 -7t-8.5 -3zM114 115l-2.5 2.5l-3 3l-3 3t-2.5 1.5q0 1 -1.5 1.5l-1.5 0.5
q-2 1 -4 3.5t-4.5 4.5t-4 3.5l-1.5 1.5v5h5q1 -2 6 -5.5t10 -8t9 -8t4 -6.5q0 -1 -1 -1.5t-3 -0.5h-1h-1zM141 118q1 1 4 3t6 4.5t5.5 4.5t3.5 3l0.5 0.5l0.5 0.5q2 0 5.5 0.5t4.5 0.5q0 -3 -3.5 -6.5t-8 -7t-10 -6t-8.5 -3.5v6zM91 79v2.5t2 1.5q3 0 4.5 -2.5t2 -5.5
t0.5 -6v-5q1 -3 4.5 -3.5t7 -1.5t6 -5t2.5 -15v-3v-3q-1 -2 -2.5 -2.5t-3.5 -0.5h-2v3.5t-0.5 5.5t-0.5 5.5v3.5q-1 2 -3.5 5t-4.5 3q-1 0 -3 -0.5t-2 -1.5v-24q1 0 1.5 -2l0.5 -2v-1v-0.5v-0.5l-2 -3t-4 -3v0l-2 2l-1 1v33q0 1 -2 1.5l-2 0.5q-5 0 -7 -2.5t-2.5 -6.5
t-0.5 -7v-7q0 -1 -2 -1.5t-3 -0.5q-4 0 -4.5 3.5t-0.5 6.5q0 6 2 10t5 6.5t6 3.5l6 2t4.5 2.5t1.5 3.5q0 3 -0.5 5t-0.5 5zM165 69q0 4 -1 7.5t-1 7.5q3 0 5 -2t3 -5t1 -7v-6q1 -1 3 -1.5t5 -1t5.5 -0.5t3.5 -3q2 -5 3.5 -11.5t1.5 -12.5q0 -3 -1 -5t-4 -2q-2 0 -2.5 1.5
t-1 3.5t-0.5 4v3q-1 1 -1 3t-0.5 4t-0.5 4v3q-1 2 -4 2.5t-5 0.5q-1 0 -2 -1t-1.5 -2.5t-0.5 -3.5v-3q0 -5 1 -10t1 -11v-3t-0.5 -4t-1.5 -3t-2 -1q-2 0 -3.5 1t-1.5 3v38l-2 0.5t-3 0.5h-2h-4.5t-2.5 -3v-21l-3 -3l-3 3t-2 3v21q0 1 2.5 3.5t3.5 2.5t3 0.5t4.5 0.5h4.5h2
q3 2 3.5 3t0.5 2z" />
</svg>
