<?xml version="1.0" standalone="no"?>
<!DOCTYPE svg PUBLIC "-//W3C//DTD SVG 1.1//EN" "http://www.w3.org/Graphics/SVG/1.1/DTD/svg11.dtd" >
<svg xmlns="http://www.w3.org/2000/svg" xmlns:xlink="http://www.w3.org/1999/xlink" version="1.1" viewBox="-10 0 266 256">
   <path fill="currentColor"
d="M82 249q1 1 2 1.5t3 0.5t3 -1t1 -3q0 -8 -2 -14.5t-4 -13.5q-1 -6 -1.5 -14t-2.5 -14v-3.5t-0.5 -5t-0.5 -4.5v-4v-4q0 -2 0.5 -5t0.5 -5v-2q0 -1 1 -5.5t2 -9.5t2 -9t1 -5q0 -3 -0.5 -5t1.5 -4l2 -23q0 -2 -1 -5t-3 -6t-4 -5.5t-4 -3t-2.5 1t-0.5 2.5q0 3 1 6t2 6.5
t2 6.5t1 6q0 8 -1 15.5t-2.5 15t-3 15.5t-1.5 16q0 21 2.5 40.5t6.5 40.5zM175 226l2 2l2.5 2.5t3 2.5t1.5 2q1 1 2 3l2 4t2.5 3.5t3.5 1.5t4 -1t2 -4v-0.5v-1.5q-1 -1 -3 -3.5t-4.5 -6t-5 -6.5t-3.5 -4q-2 -2 -5 -3.5t-4 -4.5v-3t-0.5 -4.5t-0.5 -4.5v-3q-1 -2 -3 -3t-4 -1
h-4h-2h-15h-14h-2t-3 0.5t-3 1t-1 1.5v1l1 0.5t2 0.5h36q3 0 4.5 3t1.5 5v1q0 1 -0.5 1h-0.5h-50v6h23.5t23.5 3v0.5v1.5q0 2 -2.5 4.5t-5.5 2.5l-32 3l-0.5 1t-0.5 2v1q0 1 1 2t3 1h3h2q9 0 17 -0.5t16 -3.5q3 -1 5 -3.5t5 -2.5v0v0zM53 207q1 2 2 8t2.5 12t3.5 10.5t5 4.5
t3 -4t-1.5 -8t-2.5 -8q-5 -20 -5 -39q0 -9 1.5 -17.5t1.5 -17.5q0 -2 -0.5 -4t-3.5 -2q-2 0 -4 2t-2 4v59zM92 178v9l1 4.5t1.5 10t1 10.5t1.5 8v5t0.5 6.5t2 6t3.5 2.5q1 1 2 0l2 -2t1.5 -2.5t0.5 -2.5q0 -9 -5 -16l0.5 -0.5l0.5 -0.5q0 -1 -0.5 -2.5l-0.5 -1.5
q0 -2 -1 -7.5t-2 -11.5t-1.5 -11t-1.5 -7q1 -4 2 -9t1 -10v-5.5t-3 -4.5q-3 3 -4.5 7t-1.5 8v8.5v8.5zM148 161q0 1 -0.5 4t-0.5 7q0 3 0.5 6t0.5 4t0.5 3.5l0.5 2.5q3 -2 4.5 -5.5t1.5 -7v-7.5v-7q1 -2 2 -2.5t3 -0.5q4 0 5.5 2.5t2 6t0.5 7.5v6q2 3 4 3q3 0 5 -3v-3.5
v-2.5q0 -10 -3.5 -15t-7.5 -6.5t-7.5 -2.5t-3.5 -3q0 -6 4 -7t9 -1q6 0 9 3.5t5 9t2.5 11t0.5 8.5l3 1h1q3 0 3.5 -2t0.5 -4v-4q-2 -11 -4 -17t-6.5 -8.5t-11.5 -3t-17 -0.5t-18 1.5t-14 5.5t-9 11.5t-3 18.5q0 2 0.5 3t2.5 1t3 -2.5t2 -6.5t3 -8.5t5 -8.5t7.5 -6.5
t12.5 -2.5v0q1 0 2 1t1 2v0v0q0 5 -1 7t-3 3t-4.5 2t-4.5 3t-3 6t-1 11v6q0 1 1 1h2h1t1 -1v-15l6 -7h1h0.5h0.5l1 1zM100 102q0 9 -2 16t-2 15q3 0 5 -2.5t3 -6t1.5 -7t1.5 -4.5v-25q0 -2 -2.5 -4.5t-4.5 -2.5q-3 0 -3 3v1q0 1 0.5 3t1 5t1 5t0.5 3v1zM60 126q0 1 0.5 2.5
t2.5 1.5t4.5 -3t3.5 -6v-4v-4v-8t-1 -9.5t-3 -8t-7 -3.5q-2 0 -3 0.5t-1 2.5q0 3 1 5.5l2 5t2 5.5t1 6q0 5 -1 9t-1 8zM124 117q1 2 3 2.5t3 0.5h3h5h4h3h5h4h5h2q1 0 3 -0.5l4 -1t4.5 -1t2.5 -1.5q2 -2 2.5 -4t1.5 -3t2 -1.5t4 -0.5t6.5 0.5t6.5 0.5q2 0 3.5 -1t1.5 -3
t-3.5 -2.5t-7.5 -1l-8 -1t-4 -1.5q-3 -3 -3 -6t-1 -4.5t-4 -2.5t-11 -1q-9 0 -17.5 0.5t-17.5 0.5l-2 2v0q0 2 1.5 2.5l3 1t2.5 0.5h2h6.5h9.5h9.5h6.5t3 1.5t1 3.5v1l-0.5 0.5l-0.5 0.5q-1 0 -3 0.5t-4.5 0.5t-4.5 0.5t-3 0.5h-6.5t-10 0.5t-10.5 0.5h-7q-1 0 -1.5 1.5
l-0.5 1.5l0.5 0.5l1.5 1.5q1 0 3.5 0.5t3.5 0.5l3 -0.5t5.5 -0.5h5.5h3q1 0 2.5 -0.5t4.5 -0.5h5h3h6t4 1l1 1q1 0 -0.5 2l-1.5 2q-2 1 -4.5 2.5t-3.5 1.5h-30zM127 33q0 5 2 10.5t4 9.5q1 2 5 4t7 3l3 1v15q5 0 6 -2t1 -4.5t0.5 -5t3.5 -3.5q7 -3 11 -4t6 -3t3 -6.5
t1 -13.5q0 -6 -6 -6q-3 0 -3.5 4l-1 8t-2 8t-5.5 4t-4 -1.5v-4.5q0 -6 0.5 -12.5t0.5 -13.5q0 -6 -6 -6h-1.5t-1.5 1v34q0 2 -1.5 2.5t-3.5 0.5q-3 0 -5 -3t-2.5 -6.5t-0.5 -7v-5.5q-1 -1 -2.5 -1h-2.5q-2 0 -3.5 1t-1.5 3zM85 57v15l0.5 0.5l1.5 1.5v0h1q2 -1 3 -3.5t1 -5
v-5.5v-3q11 0 15 -6.5t4 -16.5v-5q-1 -4 -4 -4q-4 0 -4.5 3.5t-0.5 8t-1.5 7.5t-7.5 3h-2q1 -9 1 -14v-12v-7q-1 -1 -3.5 -1.5t-4.5 -0.5v34q0 2 -1.5 2.5t-2.5 0.5q-7 0 -8.5 -4t-1.5 -9t-1.5 -9t-6.5 -4q-2 0 -2.5 1t-0.5 3v1.5v1.5q0 1 0.5 4l1 6t1 5.5t0.5 3.5
q1 3 4 4.5t6.5 2.5t7 1h5.5z" />
</svg>
