<?xml version="1.0" standalone="no"?>
<!DOCTYPE svg PUBLIC "-//W3C//DTD SVG 1.1//EN" "http://www.w3.org/Graphics/SVG/1.1/DTD/svg11.dtd" >
<svg xmlns="http://www.w3.org/2000/svg" xmlns:xlink="http://www.w3.org/1999/xlink" version="1.1" viewBox="-10 0 266 256">
   <path fill="currentColor"
d="M134 237v3v4t1 3.5t3 1.5v0q1 0 1.5 -0.5l0.5 -0.5q0 -14 1 -27l2 -26v-7.5t0.5 -9t1 -7.5l0.5 -3h9v-6h-9q-1 0 -1.5 -2.5t-0.5 -4.5v-2q0 -4 1 -5.5t3 -2.5l3 -1.5t1 -2.5t-1 -2.5l-2 -1l-2 -1t-1 -2.5q0 -4 1.5 -8t4 -7.5t4.5 -7.5t2 -8v-4v-3q-1 0 -2.5 -1.5
l-3.5 -3.5l-4 -4t-2 -3q-2 -1 -2.5 -3.5t-1 -4t-2 -3t-4.5 -1.5l-0.5 0.5t-0.5 1.5v1v0q0 1 1 3t2 4.5t2 4.5l1 2q0 4 -2.5 6.5t-5 4.5t-4.5 5t-2 6v1l0.5 2l0.5 2h1h1q1 -1 2.5 -5t3.5 -7.5t4.5 -6t5.5 -2.5q1 0 2.5 1t2.5 2.5t2 3.5t1 3v1q-3 4 -5.5 8t-4 8t-3 8.5
t-2.5 9.5h-12v3q8 1 9.5 4.5t1.5 11.5v3h-4t-5 0.5t-5.5 1t-4.5 1.5l3 3h16v39q-3 7 -3 14.5v15.5zM173 240l4 5q2 -1 3 -3t1.5 -4t0.5 -4v-3t0.5 -4t0.5 -6.5t0.5 -6l0.5 -2.5v-40q1 -5 4 -6.5t7 -2t7.5 -0.5t3.5 -3q0 -1 -1 -2t-3 -1h-15q-3 -1 -3.5 -3t-0.5 -4
q0 -3 0.5 -5t1.5 -5q1 0 5 -0.5t5 -0.5t2.5 -0.5t1.5 -1.5q1 0 1 -1v-1h-13v-3v-5q0 -4 2 -7.5t4.5 -6.5t4 -6.5t1.5 -7.5q0 -5 -1 -7.5t-3.5 -3.5t-5.5 -2t-5 -3l-4 -4t-3.5 -4t-3.5 -3t-5 -1q0 3 1 5t3 3.5t3 3.5t1 4q0 4 -1.5 6.5t-4 5.5t-4 6t-1.5 7l2.5 1.5l2.5 1.5
l2 -6t3 -6.5t4.5 -5.5t5.5 -2q6 0 6 6q0 4 -1 6t-3 8q-2 4 -3.5 8t-4 6.5t-6 4.5t-8.5 2v0.5v0.5q0 2 1.5 3t3.5 1t3.5 0.5t2.5 0.5v17l-9 3q-1 0 -1 0.5v0.5q0 1 1 2t3 1.5t3.5 1t2.5 0.5v44q-2 6 -2 13.5t-1 14.5zM84 236q4 5 10 5q0 -4 -1.5 -9.5t-3 -12t-3.5 -12.5
t-4 -9v-29q2 -3 3 -6.5t1.5 -7l1 -7t0.5 -6.5q2 -5 3.5 -9t3 -7.5t2.5 -7.5t1 -9v-6.5t-1.5 -9t-3 -8.5t-4.5 -4q-2 0 -2 2v4q0 6 2.5 11.5t2.5 12.5q0 5 -1 9.5t-3 9l-4 9t-3 9.5q-3 9 -4 18t-1 18v2v5v4v3l1 1t1 2v2t0.5 4.5t0.5 4.5v3t1 4t1.5 6t1 6.5t1.5 4.5zM54 200
q2 2 2.5 7t0.5 10t0.5 9t4.5 4q2 0 3.5 -2t1.5 -4q0 -11 -2.5 -22t-2.5 -23q0 -7 1 -14t1 -14q0 -1 -0.5 -3t-0.5 -3l-0.5 -1l-0.5 -1h-1h-1q-2 3 -3 9.5t-2 14t-1 14.5v10v4v5zM104 144q-3 0 -5.5 2.5t-2.5 6.5v39q0 2 1 5.5l2 7t2 6.5t1 5q1 1 3.5 2t3.5 1v-3v-2v-3v-3
l-1 -2.5l-2 -5t-1.5 -4.5l-0.5 -2q-2 -7 -2 -12v-12q0 -7 1 -13t1 -13zM63 126v1q1 0 1.5 0.5l0.5 0.5h1q2 0 3.5 -1.5t3 -4t2.5 -5t1 -3.5v-5t-1 -8.5t-3 -8t-5 -3.5q-4 0 -4 2q0 5 2 9t2 9v4v5q-2 2 -3 4t-1 4zM113 109q0 4 -1.5 7.5t-1.5 8.5q3 0 6.5 -3.5t3.5 -6.5v-8.5
t-1 -10.5t-4 -9t-9 -4q0 4 1.5 7t2.5 6l2 6t1 7zM85 55v3t0.5 4.5t1.5 4t3 2.5l2 -1v-13l1.5 -0.5t2.5 -0.5l8 -2t7 -2.5t5 -4.5t2 -8q0 -3 -0.5 -6t-4.5 -3l-1 0.5t-2 1.5l-3 13q0 2 -2 2.5t-3 0.5q0 1 -2 1.5l-2 0.5l-1.5 -2t-1.5 -3v-1q0 -3 1 -5v-19q0 -2 -1.5 -2h-2.5
q-2 0 -3.5 1t-1.5 4q0 2 1 4.5t1 5.5v4.5t-0.5 5.5t-2 5t-4.5 2q-5 0 -6.5 -3t-2 -7.5t-1 -7.5t-3.5 -3h-1l-0.5 0.5t-0.5 1.5v17q0 2 2.5 3.5t5.5 2.5l6 2t4 1zM136 28q0 12 2.5 16.5t5 5.5t5.5 1t5 3q0 1 0.5 2.5l1 3t1.5 2.5t2 1h1v0l1 -1t1 -2q2 -5 5 -6.5t6.5 -2l7 -1
t4.5 -4.5q0 -1 1 -2.5t2 -3.5t1.5 -3.5t0.5 -2.5v-1.5v-2.5q0 -4 -0.5 -5.5t-4.5 -1.5l-1 0.5t-2 0.5q0 3 -0.5 7.5t-1.5 7.5t-3.5 5.5t-7.5 2.5q-4 0 -5 -1t-1 -4q0 -4 1 -7.5t1 -7.5v-4t-0.5 -4t-1.5 -3.5t-3 -1.5q-3 0 -3.5 2.5t-0.5 5.5q0 2 0.5 4t0.5 5v4q0 3 -0.5 5.5
t-1.5 4.5t-3 2q-3 0 -6 -2t-3 -5v-1q0 -1 1 -3.5l1 -2.5q0 -3 -3.5 -4t-5.5 -1z" />
</svg>
