<?xml version="1.0" standalone="no"?>
<!DOCTYPE svg PUBLIC "-//W3C//DTD SVG 1.1//EN" "http://www.w3.org/Graphics/SVG/1.1/DTD/svg11.dtd" >
<svg xmlns="http://www.w3.org/2000/svg" xmlns:xlink="http://www.w3.org/1999/xlink" version="1.1" viewBox="-10 0 266 256">
   <path fill="currentColor"
d="M112 248q0 1 1.5 2l1.5 1h1h1q1 0 3.5 -1t2.5 -2v-30h73q4 0 4.5 -0.5t0.5 -2.5q0 -3 -1 -5t-5 -2q-9 0 -18.5 1.5t-19.5 1.5v-6v-5.5t2 -4.5t6 -2h4.5h6.5h7.5h4.5q1 -1 1.5 -2t0.5 -3q0 -1 -1 -2t-3 -2h-7q-4 0 -9 1t-9 1q-1 0 -1 -1q-1 0 -1.5 -0.5l-0.5 -0.5v-15h31
q1 0 1.5 -1.5l0.5 -1.5v-1v-1l-0.5 -1t-1.5 -1h-27q-1 0 -2 -1.5t-2 -1.5v-1q0 -4 0.5 -8t3.5 -8l1 -2q4 0 8 3t8 6.5t7.5 6.5t6.5 3q2 0 5 -1t3 -3t-3 -4t-7.5 -4.5t-10 -4.5t-10 -4.5t-7.5 -5t-3 -4.5q0 -5 4 -7t9.5 -3.5t10 -4t4.5 -6.5q0 -2 -3 -4.5t-7 -4.5t-7.5 -4
t-5.5 -3q-1 0 -2.5 -1.5t-3.5 -2.5t-3.5 -2t-2.5 -2v0q-2 0 -6.5 3.5t-10.5 7.5t-10 8t-4 6t2 4.5t5.5 4.5l7 4t5.5 5v1q0 2 -3 5.5t-7.5 7.5t-8 9.5t-4.5 10.5q-6 19 -6.5 39t-0.5 39v10zM122 207v-1q0 -1 0.5 -4.5t1.5 -4.5l0.5 -1.5l0.5 -1.5h23v16l-2.5 0.5t-3.5 0.5h-9
h-9q-1 0 -1.5 -1.5l-0.5 -1.5v-1zM125 180l0.5 -2t1 -3.5t1.5 -2.5t2 -1h20v13l-4 3h-2.5h-3.5h-6q-2 0 -4 -0.5t-3.5 -2t-1.5 -4.5zM152 131v28l-4 3h-3t-7 0.5t-6 0.5h-3q0 -9 4 -14t10 -10q1 -1 1.5 -2.5t1.5 -3t2 -2t4 -0.5zM58 138q2 4 5 7t8 5h10q6 0 12 -0.5t9 -6.5
q1 -9 2.5 -17t1.5 -17v-2q0 -2 -0.5 -4t-0.5 -4v-2l-1 -2t-2 -3h-3.5h-2.5v12q0 1 -1.5 2t-2.5 1q0 1 -1.5 1.5l-1.5 0.5h-20v-15q0 -1 -1.5 -1.5t-2.5 -0.5q-2 0 -3.5 0.5t-2.5 2.5q-1 9 -1 15v15v13zM66 122l0.5 -1t1.5 -2l0.5 -0.5l0.5 -0.5l20 -3q3 0 4.5 1t2 3.5
t0.5 4.5v4q0 8 -3.5 11t-12.5 3q-4 0 -7 -1.5t-4.5 -4.5t-2 -6.5t-0.5 -7.5zM132 108v-1v-1q1 -1 3 -2.5t4.5 -3t4.5 -3t2 -2.5q2 -1 3 -1h3q1 0 5 1.5l8 3t7 4t3 3.5q0 2 -1.5 3t-3.5 2l-4 2t-4 1l-1 -1t-2 -2.5t-1.5 -2l-1.5 -1.5v0q-3 0 -4 2t-1.5 4t-0.5 4.5t-2 3.5h-1
l-2.5 -1.5t-5.5 -3.5t-5 -4.5t-2 -3.5zM65 25h-1l-2.5 1t-2.5 2v21q0 3 3.5 5t7.5 4t7.5 3l3.5 1v18q0 1 0.5 2l0.5 1l0.5 0.5l0.5 0.5l1 -1l1.5 -0.5l1.5 -0.5q1 0 2 -0.5t1 -1.5v-16q0 -1 1.5 -1.5t2.5 -1.5l2 -0.5t4.5 -1t4.5 -1l2 -0.5q4 -1 5.5 -5t2 -8.5t0.5 -8.5v-7
v-3.5t-2 -2.5q-3 0 -4 2.5t-2 5.5t-1 7t-1 7.5t-3.5 6t-7.5 2.5q-2 0 -3.5 -1.5t-1.5 -4v-4.5v-2q0 -1 0.5 -4t1.5 -6.5t2 -6t1 -3.5v-2q0 -2 -1.5 -3t-3.5 -1q-1 0 -3 0.5t-2 2.5l-3 33l-1.5 0.5l-1.5 0.5h-2.5t-3 -1t-3 -1.5t-1.5 -1.5v-23l-1 -0.5l-1 -0.5h-1zM163 79
l3 3l4 -3v-15q0 -1 2.5 -2.5t3.5 -2.5q1 0 2.5 -0.5t4 -1t4.5 -1l2 -0.5q4 -4 5 -9.5t1 -11.5v-7l-1.5 -1.5l-0.5 -0.5h-0.5h-0.5q-3 0 -3.5 4t-1.5 9t-3 9t-8 4h-2.5t-1.5 -1q-1 -1 -1.5 -3.5t-0.5 -5v-5v-3.5v-6t0.5 -4t1 -3.5l1.5 -4.5v-1q0 -4 -4 -4q-2 0 -4 0.5t-2 2.5
v35q0 3 -3 4t-6 1q-1 0 -2.5 -1l-3 -2t-2.5 -2.5t-1 -2.5v-18q0 -2 -1.5 -2h-1.5q-3 0 -4 2t-1.5 4.5t0 5t0.5 4.5q0 7 4 10.5t9 4.5t9 1t4 1v20z" />
</svg>
