<?xml version="1.0" standalone="no"?>
<!DOCTYPE svg PUBLIC "-//W3C//DTD SVG 1.1//EN" "http://www.w3.org/Graphics/SVG/1.1/DTD/svg11.dtd" >
<svg xmlns="http://www.w3.org/2000/svg" xmlns:xlink="http://www.w3.org/1999/xlink" version="1.1" viewBox="-10 0 266 256">
   <path fill="currentColor"
d="M142 248q-1 2 0.5 2.5t3.5 0.5t3.5 -1t1.5 -4v-37q0 -2 1.5 -4t3.5 -2l3 1.5t6 4t6 4.5l3 2q1 1 2.5 2t3.5 2.5t3.5 3t1.5 2.5h1h1q3 0 5.5 -2t2.5 -5q0 -2 -5 -6t-11 -8l-12 -8t-8 -7l1 -3l3 -3l4.5 -4.5l5 -5t3.5 -2.5v-1v-1l-2 -3h-7l-16 12h-1q-1 0 -2.5 -3.5t-3 -8
t-3 -8.5t-1.5 -5t0.5 -2.5t1.5 -1.5t2.5 -0.5t4 -0.5h4.5h3q2 0 7.5 -0.5t12.5 -0.5q6 0 12 0.5t8 0.5q1 -2 1 -3v-2v-2t-1 -1h-57q-2 0 -2 -1.5v-2.5q0 -2 1.5 -4t3.5 -2h21q2 0 3.5 -1.5t2 -4t1 -4.5t0.5 -3q0 -2 -1 -6t-5 -4q-1 0 -2 2t-2 4.5t-2 4.5t-2 3h-4h-4h-6
q-4 0 -6 -1q-1 -1 -1.5 -5t-0.5 -5v0q0 -4 3.5 -5t9 -1.5t11.5 -1t11.5 -3t9 -7t3.5 -13.5q0 -2 -1 -4.5t-2.5 -5t-4 -4t-4.5 -1.5h-78q-2 0 -4 2l-4.5 4.5t-3.5 5.5t-1 5q0 8 3.5 12t8.5 6.5t11 3t11 0.5h8.5t3.5 1v36h-3.5t-5 0.5t-5 0.5h-3.5h-9h-13h-13.5h-9.5
q-1 0 -3 0.5t-3 1.5v0.5v1.5q0 3 2.5 4.5t5.5 1.5q15 0 30 -2t30 -2h3t2 1l1 1q0 1 1 3.5t1.5 5.5t1 5.5t1.5 4.5q0 1 0.5 3.5t2 5t2.5 4.5t2 3t3 2t2 1.5t-0.5 2.5t-1.5 2q-2 10 -3 20t-1 20v3v5v5v3zM65 230q0 3 0.5 4t3.5 1t6 -2.5t4.5 -5.5t2.5 -7t3 -6l7 -34q1 -2 4 -3
t4 -1t2.5 0.5t2.5 1.5v10q0 5 -1 10t-2 9.5l-2 9t-1 9.5v3v3q0 2 1 2h2q3 0 5 -3t3 -5q0 -2 1 -6.5t2 -10t1.5 -10.5t1.5 -7v-3.5v-5.5v-4.5v-4.5q-2 -2 -5 -4t-5 -2h-1h-8t-12 0.5t-12 0.5h-8q-1 1 -1.5 2t-0.5 3v2t2 2h17q1 0 1 1.5v1.5q0 7 -2.5 13.5t-6 12.5t-6.5 11.5
t-3 11.5zM92 79q0 -5 3.5 -6t8.5 -1h3h3q2 4 3 10.5t1 10.5v1l-1 0.5t-2 0.5q-10 0 -14.5 -3t-4.5 -13zM120 73q0 -1 1.5 -2t3.5 -1h4h3h7q2 2 3 4.5t1.5 5.5t0.5 5.5v5.5l-0.5 2t-1.5 2h-12q-2 0 -3.5 -3t-3 -6.5t-2.5 -7t-1 -5.5zM148 76q0 -1 1 -2t3 -1.5t3 -0.5h4
q4 0 8 1t4 6q0 6 -3 11t-9 5q-3 0 -5 -2t-3.5 -5t-2 -6t-0.5 -6zM116 43q0 1 1 4.5t2 4.5q0 1 1 3t3 1q3 0 3.5 -1.5t0.5 -3.5t-1.5 -8.5t-3.5 -13t-4.5 -11.5t-4.5 -5q-3 0 -4 1t-1 4q0 4 1.5 6.5t1.5 6.5q0 2 -3.5 3.5t-8.5 2.5t-11 2t-11 2t-8.5 2t-3.5 3v1l0.5 1l0.5 1
h4.5h4.5q4 0 8.5 -1t9 -2.5t9 -2.5t8.5 -1q1 0 3 0.5t3 0.5zM134 52q0 3 1.5 3h2.5q4 0 6 -2.5t3.5 -5.5t3.5 -5t7 -2h1q1 0 5 0.5t9 1t9.5 1t5.5 0.5h2h3q2 0 4 -0.5t2 -2.5t-0.5 -2.5t-1.5 -2.5l-1 -2h-33l-1.5 -1t-2.5 -2l-2 -1v-1v-1q1 -1 2.5 -4.5t2.5 -4.5
q-1 -3 -2.5 -4t-3.5 -1q-1 0 -4.5 5.5t-7.5 12t-7 13t-3 8.5z" />
</svg>
