<?xml version="1.0" standalone="no"?>
<!DOCTYPE svg PUBLIC "-//W3C//DTD SVG 1.1//EN" "http://www.w3.org/Graphics/SVG/1.1/DTD/svg11.dtd" >
<svg xmlns="http://www.w3.org/2000/svg" xmlns:xlink="http://www.w3.org/1999/xlink" version="1.1" viewBox="-10 0 266 256">
   <path fill="currentColor"
d="M192 246q0 2 1.5 3.5t3.5 1.5q3 0 3.5 -3.5t0.5 -5.5q0 -36 -2.5 -73t-4.5 -74q-1 -4 -2.5 -6.5t-4 -4t-5.5 -2.5l-6 -2h-41v-13q0 -1 -2 -1h-2h-1.5h-1.5v2t-0.5 3.5t-0.5 3v2.5l-0.5 1t-1.5 2q-9 0 -19.5 1.5t-19.5 4.5t-15.5 9t-7.5 17l-7 133v5q4 0 5.5 -0.5
t3.5 -4.5q-1 -17 0 -36t1 -36q2 -3 1.5 -5t0.5 -5v-7.5t0.5 -9.5t0.5 -9v-5q1 -15 2.5 -23t6 -11.5t12.5 -5.5t22 -5q3 0 9.5 -0.5t14 -0.5h14.5h9h8q8 0 12 3t6 8t2 11.5t1 12.5v7t0.5 12t1 15t1 15.5t1 12.5t0.5 7v3q0 1 0.5 6t0.5 11t0.5 11t0.5 6v1v1q0 1 -0.5 3.5
t-0.5 5t-0.5 5l-0.5 2.5v1zM88 191v2q1 2 1.5 6.5t1 8.5t0.5 7v3q1 3 2.5 6.5t4.5 6t6 4.5t7 2h40q8 0 12.5 -5t6.5 -12t2.5 -14.5t0.5 -13.5v-5t-4 -3q-3 0 -3 1.5t-1 4.5v4t-0.5 6t-0.5 6v4q0 2 -1 2.5t-3 0.5t-6 -2.5t-8 -5.5t-7.5 -5.5t-4.5 -3.5v-14q0 -2 -1.5 -3.5
t-2.5 -1.5q-3 0 -4 2t-1 5v5.5v3.5q0 4 -2.5 7t-6 6t-7 5.5t-6.5 5.5h-0.5h-0.5q-2 0 -3.5 -2t-1.5 -4v-19q0 -1 -1 -2l-1.5 -1.5l-1 -1l-0.5 -0.5h-1q-2 0 -3 1.5t-1 2.5zM105 225q0 -2 3 -5.5t7.5 -7.5t9 -6.5t6.5 -2.5h2q1 1 4 3t6 4.5t6 4.5t4 3q2 1 3.5 1.5t1.5 2.5
t-2.5 4.5t-4.5 2.5q-1 0 -3.5 0.5t-5.5 0.5h-5h-3h-5h-5q-3 0 -5 -0.5t-3 -0.5h-2t-4 -0.5t-3.5 -1.5t-1.5 -2zM107 172q0 2 1 3t3 2q2 -2 5 -7.5t5 -11.5t4.5 -11t5.5 -5q2 0 4.5 2t4.5 4.5t3 5t2 4.5v3.5t0.5 5.5t0.5 5.5v3.5v0h1h1q0 -1 1 -1.5t2 -1.5v-7q0 -5 -0.5 -8
t-1.5 -7l-2 -4t-2.5 -3.5t-3 -3.5t-1.5 -4t2 -2.5t4.5 -1.5t4.5 -3t2 -6q-3 0 -6 2t-5.5 3.5t-5 3.5t-4.5 2h-1t-1 -1q-3 -2 -5.5 -5t-2.5 -6q0 -1 0.5 -2.5t1.5 -1.5q4 0 9 -0.5t9 -1.5t6.5 -3.5t2.5 -7.5q0 -2 -0.5 -4t-3.5 -2q-1 0 -1.5 2t-2 4.5t-4.5 4t-9 1.5h-3h-3
l-0.5 -1t-0.5 -2t-0.5 -2.5t-0.5 -3.5t0.5 -4t0.5 -3l-1 -0.5l-1 -0.5q-4 0 -5 2.5t-1 5.5v2v4.5t0.5 7.5t0.5 7.5v4.5q1 2 2 3t2.5 2t2.5 2.5t1 3.5q0 3 -2.5 6.5t-6 7.5t-6 8.5t-2.5 10.5zM85 165q0 1 0.5 2.5t2.5 1.5v0q4 -6 6 -13t3 -15t1.5 -15t0.5 -14v-5q-1 -2 -3 -2
q-1 0 -3 0.5t-2 1.5v31q-2 6 -4 13t-2 14zM164 119v11v10.5t0.5 11t0.5 11.5q1 1 1 3.5t1 2.5h1q2 0 3.5 -1t1.5 -3q0 -15 -2 -29.5t-1 -30.5q-1 -1 -1.5 -1h-1.5h-2t-1 1v14zM91 76q1 1 1.5 1h1.5q2 0 3 -1.5t1 -3.5v-3q0 -2 1 -3q1 -4 4.5 -4t7 -1t6.5 -4.5t3 -14.5
q0 -1 -0.5 -2.5t-0.5 -3.5t-0.5 -3.5t-0.5 -2.5t-3 -1t-3 4v9.5t-1.5 9.5t-6.5 4h-2t-2 -1q-1 -9 -1.5 -18t-0.5 -17h-1.5t-2.5 1l-1 0.5l-1 0.5v30q0 2 -2 2.5t-3 0.5q-5 0 -6.5 -4.5t-2 -9.5t-1 -9t-2.5 -4q-1 0 -2.5 1l-1.5 1q0 1 -0.5 3.5t-0.5 3.5q0 6 0.5 10.5t3 7.5
t6 4.5t10.5 2.5l0.5 1l0.5 1v12zM138 37q0 1 0.5 1.5l0.5 0.5q0 1 0.5 3.5t0.5 3.5q3 9 6.5 11.5t7 3t6 2t3.5 7.5v0q1 0 1.5 -1t1 -2.5l1 -3t1.5 -1.5q9 -1 14.5 -3.5t8 -6.5t3.5 -10t1 -15h-4t-3 2q-1 2 -1 6.5t-1.5 8.5t-3.5 7.5t-6 3.5q-3 0 -4.5 -1.5t-1.5 -4.5v-28
q0 -1 -2 -2h-1v0l-3 3q-1 1 -1.5 2l-0.5 1v28q0 1 -1.5 1.5t-3.5 0.5h-1q-4 0 -6 -2t-3 -5t-1 -6v-7q0 -1 -1 -2t-2 -1v0h-1t-2.5 2t-1.5 3z" />
</svg>
