<?xml version="1.0" standalone="no"?>
<!DOCTYPE svg PUBLIC "-//W3C//DTD SVG 1.1//EN" "http://www.w3.org/Graphics/SVG/1.1/DTD/svg11.dtd" >
<svg xmlns="http://www.w3.org/2000/svg" xmlns:xlink="http://www.w3.org/1999/xlink" version="1.1" viewBox="-10 0 266 256">
   <path fill="currentColor"
d="M125 211q2 5 7.5 12t12.5 13.5t14.5 10.5t15.5 4h2t2.5 -0.5t2.5 -1t1 -1.5t-3.5 -3t-8.5 -4.5l-11 -5.5t-11 -7t-8.5 -8.5t-3.5 -10.5q0 -4 2.5 -6t6.5 -3t8.5 -2t8 -2.5t6.5 -4.5t3 -8q0 -3 -3 -5t-7 -3t-8.5 -1.5t-8.5 -2t-7 -4t-3 -6.5q0 -3 2.5 -3.5t6.5 -1.5
q1 0 5.5 -0.5t9.5 -0.5t9.5 -0.5t6.5 -0.5q1 0 3 -1t2 -2v-1l-1 -1l-1 -1h-84q-1 0 -2 0.5t-3 0.5t-4 0.5t-3 0.5q-3 1 -4 1t-1 2v1.5t2 1.5h3.5h3.5q7 0 14 -1t14 -1q3 0 6 1t3 5q0 3 -3.5 7t-9 7.5t-10.5 7t-8 6.5q-5 7 -7.5 14.5t-4 15.5t-1.5 16v16q1 0 4 -0.5t4 -0.5
t1.5 -0.5l0.5 -0.5l3 -40q1 -4 4.5 -10t8.5 -11.5t11 -9t11 -3.5q2 0 7 1t10.5 2.5t9.5 3.5t4 4q0 6 -5 7.5t-11.5 3t-11.5 4t-5 9.5v2zM62 130q0 3 2 5t4.5 3t6 1h6.5q11 0 21 -2t21 -2v-2q0 -4 -3.5 -4h-7.5t-7.5 -1t-3.5 -7t3 -7.5t7 -1.5h7q4 0 4 -3q0 -1 -0.5 -2.5
t-1.5 -1.5h-17q-2 0 -2 -1.5t-0.5 -3l-1 -3t-2.5 -1.5q-1 0 -2 0.5l-1 0.5q0 1 -0.5 3.5t-1.5 3.5q0 1 -0.5 2.5l-0.5 1.5h-19l-2 2l3 4h18l0.5 1t0.5 2l0.5 3t0.5 5q0 1 -0.5 3l-0.5 2l-1 2h-3h-3q-6 0 -11.5 -1t-11.5 -1zM159 126q-2 0 -6 -0.5t-7.5 0.5t-6 2.5t-2.5 4.5
h5h9.5t14 -0.5t14 -0.5h8.5q1 -1 2 -1t2 -1q1 0 3 -1.5l2 -1.5l-0.5 -1t-1.5 -2v0q-5 0 -10 1t-9 1h-7q-1 -2 -1 -3v-3v-1.5t0.5 -2.5t1.5 -2t2 -1h18l0.5 -1.5t1.5 -2.5v-1v-1q-2 -1 -5 -1h-6h-5.5h-3.5q-3 -1 -3 -2.5t-0.5 -3t-1.5 -2.5t-3 -1q-1 0 -2 1t-1.5 2.5l-1 3
t-2.5 2.5h-2t-4.5 0.5t-4.5 0.5h-2q-1 0 -2 1l-1 1h-1q0 1 0.5 1h0.5q0 1 0.5 2l0.5 1h15q1 0 1.5 1t0.5 2.5v3.5v1v5zM58 88v1l1.5 1.5l1.5 1.5h16q29 0 57.5 -1t57.5 -1q1 0 3 -1t2 -2v0v-1l-1 -1l-1 -1h-54q-3 0 -4 -3t-1 -4q0 -4 1.5 -4t6.5 -1h5.5t9.5 -0.5t9.5 -0.5
h6.5q2 -1 2 -3t-1 -2.5t-2 -1.5t-2 -1.5t-1 -2.5q0 -5 2 -7.5t5 -4t6.5 -2t7 -2.5t5.5 -6t2 -13q0 -1 -1 -3t-3 -2t-3 2.5t-2 6t-2.5 6.5t-5.5 5q-1 0 -1.5 0.5l-0.5 0.5q-3 0 -4 -3t-1 -5q0 -4 0.5 -8t0.5 -8q0 -2 -1 -3t-3 -1q-4 0 -6 3q1 6 0.5 13.5t-2.5 13.5h-1h-3
t-3 -1q-1 -1 -4 -3l-3 -2v-15l-1 -0.5t-2 -1.5h-1q-2 0 -3 1t-1 3q0 7 1 11.5t3.5 7.5t6.5 4.5t11 2.5v15h-23q-3 0 -4 -2.5t-1 -5t-0.5 -4.5t-2.5 -2q-3 0 -4 2t-1.5 4.5t-0.5 4.5v3h-6t-8.5 0.5t-9 0.5h-5.5t-3 1t-3 1t-4 0.5t-4 0.5v3h41l1 1l1 1v1.5v2.5v2.5v2.5
q-1 0 -3 0.5t-4 0.5t-4 0.5t-3 0.5h-10.5t-16 0.5t-16 0.5h-10.5q-1 0 -1.5 0.5l-0.5 0.5v1zM93 51v9l2.5 -0.5t3.5 -1.5q1 0 1.5 -2l0.5 -2l1.5 -1.5l1.5 -1.5q7 -4 10 -4q4 0 6 -0.5t3 -3.5t2 -13v-1v-1q-1 -1 -2 -3t-2 -2h-1q-1 1 -3 1.5l-2 0.5v15q0 1 -1.5 1.5
t-2.5 0.5t-4.5 -0.5t-4.5 -0.5q0 -1 0.5 -1.5t0.5 -1.5l-0.5 -0.5l-1.5 -1.5v-18q0 -1 -0.5 -1.5t-1.5 -0.5l-2.5 -0.5t-3.5 -0.5v27q-5 0 -8 -1t-4 -3t-1.5 -4.5t-1 -4.5t-2.5 -3.5t-6 -1.5q0 12 4.5 19t18.5 8z" />
</svg>
