<?xml version="1.0" standalone="no"?>
<!DOCTYPE svg PUBLIC "-//W3C//DTD SVG 1.1//EN" "http://www.w3.org/Graphics/SVG/1.1/DTD/svg11.dtd" >
<svg xmlns="http://www.w3.org/2000/svg" xmlns:xlink="http://www.w3.org/1999/xlink" version="1.1" viewBox="-10 0 266 256">
   <path fill="currentColor"
d="M145 202q0 1 1.5 5.5t3.5 10t4 11.5t4.5 10.5t4 8t3.5 3.5t2.5 -3.5t0.5 -5.5q0 -4 -2.5 -9t-5.5 -9.5t-5 -8.5t-2 -7q0 -5 2.5 -6.5t6.5 -2.5t7.5 -2.5t4.5 -6.5q2 -7 2 -15t-1 -16q1 -2 1.5 -3.5t0.5 -3.5q0 -3 -0.5 -6.5t-1.5 -6.5t-3.5 -5.5t-6.5 -2.5h-62
q-3 0 -6.5 0.5t-6.5 2.5t-5.5 4.5t-2.5 6.5v3v5v5v3v15t2 16q2 2 5 3.5t6.5 3t6 3l2.5 1.5q0 4 -2 6.5t-3 6.5v2v3v3v1q-1 5 -4 9t-3 8q0 2 0.5 4t3.5 2t4.5 -3t2.5 -8t2 -10.5t2.5 -10.5t3.5 -8.5t7 -4.5h4.5t7.5 -0.5t7.5 -0.5h5.5h1v0zM93 182v-3h7t10.5 -0.5t10.5 -0.5
h8h2h5h7h4h4h6h5.5h3.5q2 1 2.5 2.5t0.5 3.5v2.5t-1 2.5l-12 5h-54q-5 0 -7 -4t-2 -8zM89 163q0 -3 1 -4.5t5 -1.5q17 0 34 -1.5t34 -1.5q5 0 5.5 2.5t0.5 7.5v5l-30 2t-31 1h-6q-3 0 -6 -0.5t-5 -2.5t-2 -6zM90 145q0 -2 0.5 -3.5t2.5 -1.5l14 -3h55q2 0 4.5 2.5t2.5 4.5
q0 1 -2 2l-2 1q-11 3 -22.5 3h-22.5h-27q-2 -1 -2.5 -2.5t-0.5 -2.5zM83 116v12h2t3 -1l2 -2t0.5 -2.5t-0.5 -2.5v-3q1 -3 4 -3.5t6.5 -1.5t6 -4t2.5 -11q0 -1 -1 -3t-3 -2h-0.5h-0.5q0 1 -1 2l-1 1v10l-2.5 1t-3.5 1h-1v0q-1 0 -2 -0.5l-1 -0.5l-3 -16q0 -1 -1 -1h-2
q-2 0 -2.5 1t-0.5 3t1 4t1 5t-1 5t-4 2q-4 0 -5.5 -2.5t-2 -6t-1 -6t-4.5 -2.5q-3 0 -3 3q0 10 4 15.5t15 5.5zM166 115v11h1h2l0.5 -0.5t0.5 -1.5q3 -8 5.5 -10t4.5 -2h4.5t5.5 -5q2 -9 2 -20q-3 0 -5 1.5t-2.5 3.5t-0.5 4.5t1 5.5q-2 2 -3.5 3t-4.5 1q-1 0 -2.5 -0.5
t-1.5 -2.5v-17q-4 0 -5.5 2t-2 5t0 6t0.5 6q-1 2 -1.5 2h-2.5q-4 0 -6 -1t-3 -3t-2 -5t-1 -6h-1v0q-2 0 -2 1v2q0 5 0.5 8.5t2.5 6t5 3.5t9 0zM126 112l4 3l4 -5q-1 -6 -1 -9.5v-9.5v-3t1 -3l24 -3q4 -3 8.5 -4.5t8 -3.5t5.5 -6t2 -10q0 -1 -1 -2.5t-3 -1.5v0v0q-3 5 -4 7.5
t-2.5 4.5t-4 3.5t-8.5 4.5l-0.5 0.5l-0.5 0.5q-1 1 -2 1h-1h-22v-21q0 -2 -1 -2.5t-3 -0.5l-1.5 0.5t-1.5 1.5v22q0 1 -3.5 1.5t-5.5 0.5h-9q-6 0 -9.5 -0.5t-9.5 -2.5q-1 -1 -1.5 -4t-1.5 -6t-2.5 -5.5t-3.5 -2.5t-2 2v3q0 7 2.5 13t11.5 7l34 3v27zM90 50v3t0.5 4t2 4
t2.5 2q3 0 3.5 -2t0.5 -3.5v-3.5v-3t3 -2t7 -3t7 -6t3 -11q0 -3 -1 -4.5t-4 -1.5h-1t-1 1l-3 14q-1 3 -3.5 3.5t-3.5 0.5q-3 0 -4 -1t-1 -4q0 -5 1 -9.5t1 -9.5q0 -2 -2.5 -3t-4.5 -1v14.5t-2 14.5h-2h-3q-1 0 -3 -1t-3.5 -1.5t-2.5 -1t-1 -1.5v-14q0 -1 -2 -1h-2
q-3 0 -3.5 1.5t-0.5 4.5q0 4 0.5 7t1.5 8q2 2 4.5 3t6 1.5t6.5 1t4 0.5zM141 26v1q0 2 0.5 4t0.5 4v4v2q1 6 4.5 7t8.5 2q3 1 4.5 2.5t2 3t0.5 3t1 1.5q3 0 3.5 -1.5t0 -3.5t0 -4t2.5 -3h3.5t5 -0.5l5 -1t3.5 -2.5q0 -1 1 -3.5l2 -5t1.5 -5t1.5 -3.5v-1q0 -2 -1.5 -4
t-3.5 -2t-3 3t-1.5 7t-1.5 7t-3 3h-10q-2 0 -2 -2v-2q0 -4 1.5 -8t1.5 -8q0 -2 -0.5 -4.5t-3.5 -2.5q-1 0 -2.5 0.5t-1.5 1.5v26q0 3 -2.5 3h-3.5q-4 0 -6 -2t-2.5 -5t-0.5 -6.5t1 -6.5q-1 -1 -1.5 -1h-1.5q-3 0 -3 3z" />
</svg>
