<?xml version="1.0" standalone="no"?>
<!DOCTYPE svg PUBLIC "-//W3C//DTD SVG 1.1//EN" "http://www.w3.org/Graphics/SVG/1.1/DTD/svg11.dtd" >
<svg xmlns="http://www.w3.org/2000/svg" xmlns:xlink="http://www.w3.org/1999/xlink" version="1.1" viewBox="-10 0 266 256">
   <path fill="currentColor"
d="M73 248q2 3 5 3t5 -4t5 -9.5t6.5 -12.5t8.5 -12.5t12 -9.5t17 -4v18h-19v2.5t2 2.5h17l1 11l-1 2h-31q0 4 2 5.5t6 1.5h3q3 0 11.5 -0.5t18 -0.5t17.5 -0.5t11 -0.5q2 0 2 -1v-2v-1.5t-2 -1.5h-27q-2 0 -2.5 -1t-0.5 -2v-3v-1v-3v-2h3t4.5 -0.5t4.5 -0.5h3q4 -1 4 -5h-19
q0 -1 -0.5 -4t0 -5.5t1.5 -4.5t3 -2q9 0 16.5 7t13 15.5t10 15.5t7.5 7t4 -2t1 -5q0 -2 -2 -5t-5 -6t-5.5 -6t-4.5 -5q0 -1 -2 -2.5t-4 -3.5l-3.5 -3.5l-2.5 -2.5q-5 -4 -12 -6t-12 -6q-2 -1 -2 -3v-3q0 -3 6 -4t13.5 -3.5t13.5 -6.5t6 -13q0 -7 -3.5 -12t-9 -8t-12.5 -4
t-14 0q-1 -1 -1 -2.5v-3.5q0 -4 3 -5t8.5 -1.5t11 -0.5t11 -2t9 -6t3.5 -13q0 -2 -1 -2.5t-3 -0.5q-4 0 -5 2.5t-2.5 6t-3 6.5t-5.5 3h-23q-2 0 -2 -2.5v-3.5q0 -2 2 -3.5t4.5 -2l5 -1t3.5 -1.5q3 -1 4.5 -3t2 -4t1.5 -4t3 -3t5.5 -1t7 -0.5t7 -0.5h5.5h1.5t2.5 -0.5t2.5 -1
t1.5 -2.5q0 -4 -4 -4q-23 0 -46 1.5t-46 2.5h-8t-12.5 0.5t-12.5 0.5h-8q-1 0 -2 1t-1 2v1v1l0.5 0.5l0.5 0.5h45l1.5 2.5t2.5 3.5q2 2 3.5 4.5t4.5 2.5q1 0 3 0.5l4 1t4 0.5h3q3 1 3 2.5v3.5v2v2.5t-2 1.5h-25q-5 0 -7 -2t-3.5 -5l-3 -6t-3.5 -5q-2 1 -3.5 3t-1.5 4
q0 8 4.5 11.5t11.5 5t14 1t11 -0.5q7 2 7 9q0 1 -0.5 2.5t-1.5 1.5l-14 2t-14 3q-2 1 -3.5 3.5t-2.5 5.5t-1 6.5v5.5q0 7 3 11t8.5 6.5t11.5 3.5t12 1q1 1 1.5 2t0.5 2q0 5 -3.5 6.5t-8 2.5t-9 1.5t-7.5 2.5q-9 6 -14 14t-11 17q0 2 -1.5 4t-3 4.5t-2.5 4.5t-1 4zM141 164
l2 -2h3t7.5 -0.5t7.5 -0.5h1h1q2 1 3 1t1 2q0 3 -2 5.5t-5.5 4t-7.5 3t-6 1.5q-1 0 -3 -0.5t-2 -1.5v-12zM107 169q0 -3 1.5 -5t3.5 -2h20q1 0 1.5 2t0.5 4v1q0 2 -0.5 4t-3.5 3h-6q-1 0 -4 -0.5l-6 -1t-5 -2t-2 -3.5zM106 152q0 -3 2 -5t5.5 -3t7 -1.5t5.5 -0.5
q1 0 3.5 0.5l2.5 0.5l1 1v11l-3.5 0.5t-5.5 1.5h-8h-8q-2 -1 -2 -2.5v-2.5zM153 143q5 0 9.5 1t4.5 7v1l-0.5 1.5l-0.5 1.5h-25q0 -8 2 -10t10 -2zM115 91v-1l0.5 -0.5t1.5 -0.5q4 -1 7 -1t6.5 -0.5t6.5 -0.5h7h2.5h3.5q1 0 2.5 0.5t2.5 0.5l0.5 0.5l0.5 0.5h0.5t0.5 1
q0 3 -2 4.5t-5 3t-6 1.5h-5h-5t-8 -1t-7.5 -2.5t-3.5 -4.5zM83 63v1l1 1h27h27h9t13 -0.5t13.5 -0.5h9.5q1 -1 1 -2v-1q0 -3 -2 -3.5t-4 -0.5q-4 0 -7 0.5t-7 2.5h-80l-0.5 0.5t-0.5 1.5v1zM102 47v6q2 -2 6 -4l8 -4t7 -4t3 -5v-17q-1 0 -3.5 0.5t-2.5 2.5v4.5t-1 5
t-2.5 4.5t-4.5 2h-3q-1 0 -1 -2v-22q0 -3 -2.5 -3.5t-4.5 -0.5v19l2 2q-2 0 -2 1.5v3.5v2.5t-2 1.5q-5 0 -7 -1.5t-3 -4t-1 -5.5t-0.5 -5.5t-1.5 -4t-3 -1.5t-3.5 1t-1.5 3q0 1 0.5 4.5t1.5 7t2.5 7t3.5 3.5zM147 27v4.5t0.5 5.5t2 5.5t3.5 3.5h2h2.5t2.5 0.5l1 0.5
q1 0 2.5 2t2.5 3h0.5h0.5q3 0 5 -2.5t4 -2.5q6 -1 10 -2t6.5 -3t3.5 -5.5t1 -9.5q0 -3 -1 -6t-4 -4q-1 0 -2 0.5t-1 1.5q-1 2 -1 6t-1 7.5t-3.5 6t-6.5 2.5h-1l-1.5 -1.5l-1.5 -1.5v-26q0 -1 -1.5 -1h-2.5h-1h-1v7t-0.5 10.5t-2 9t-5.5 3.5q-3 0 -4 -3.5t-1 -8t-1 -8
t-3 -3.5q-1 0 -1 0.5v0.5q-1 0 -1.5 0.5l-0.5 0.5v3.5v3.5zM98 41q1 0 1 2q0 1 -1 1t-1 -1q0 -2 1 -2z" />
</svg>
