<?xml version="1.0" standalone="no"?>
<!DOCTYPE svg PUBLIC "-//W3C//DTD SVG 1.1//EN" "http://www.w3.org/Graphics/SVG/1.1/DTD/svg11.dtd" >
<svg xmlns="http://www.w3.org/2000/svg" xmlns:xlink="http://www.w3.org/1999/xlink" version="1.1" viewBox="-10 0 266 256">
   <path fill="currentColor"
d="M123 193q0 15 -1 29.5t-1 29.5q2 0 4.5 -0.5t2.5 -3.5v-58q0 -3 3 -4.5t5 -1.5l30 -3l1 -0.5l1 -0.5q0 -1 0.5 -1h0.5l-0.5 -0.5l-0.5 -0.5l-0.5 -1l-0.5 -1h-5q-8 0 -15 1t-15 1h-2t-2 -2v-41q0 -3 4 -4t10 -2t13 -1t13 -0.5t10 -1t4 -2.5t-2 -2.5t-3 -0.5
q-12 0 -23.5 1.5t-23.5 1.5v-2.5v-3.5v-3.5t1 -1.5h24q2 -1 4.5 -2.5t6 -2.5t6.5 -2t5 -1q5 0 8.5 3t6.5 7t6 7t8 3q0 -7 -4.5 -11.5t-10 -7.5t-10 -5t-4.5 -5t1.5 -5.5t1.5 -6.5t-3 -6.5t-8.5 -3.5t-11.5 -1.5t-11.5 -1t-9.5 -1t-5 -2.5q0 -1 -0.5 -4.5t-0.5 -4.5h-1h-1
q-2 0 -3.5 1.5t-1.5 4t-0.5 5t-0.5 3.5l-3 0.5t-4 0.5q-2 0 -6 0.5t-8 0.5h-8.5h-5.5q-2 0 -2.5 1t-0.5 2q0 3 1.5 3.5t3.5 0.5q8 0 16.5 -1.5t16.5 -1.5v10l-4 1q-16 1 -33.5 2.5t-33.5 5.5l-0.5 1t-0.5 2l0.5 0.5l0.5 0.5h6q15 0 30 -3t29 -4q5 1 6 2t1 5q0 3 -0.5 5.5
t-4.5 2.5h-34l-5 4l3 2h38q2 0 2.5 1.5t0.5 2.5t-1 3.5t-2 2.5l-48 3q-1 0 -2.5 1t-1.5 2q1 2 1.5 2.5t2.5 0.5q9 0 18.5 -1.5t19.5 -1.5h5t6 1v8.5t0.5 12t0.5 12v7.5v3v2l-3 0.5t-4 1.5q-2 0 -6.5 -0.5t-10 -0.5h-10h-6.5v-31l-1 -3q-1 1 -2.5 1.5t-2.5 1.5q1 17 -0.5 34
t-5.5 33q0 2 -1.5 5.5t-3 7.5t-3 7.5t-1.5 5.5t1 3t3 1t3.5 -0.5t1.5 -2.5l6 -25q1 -2 3.5 -2.5t5.5 -1t5.5 -1t3.5 -0.5v0q3 2 4 3t1 3q0 6 -2 12t-2 12q3 0 5 -3t3 -7.5t1.5 -9t0.5 -6.5v-3v-2l-3 -3h-21l-2 -2v-1.5v-2.5q0 -4 0.5 -7t1.5 -4.5t3.5 -2.5t6.5 -1q4 -1 7 -1
t5.5 -0.5t5.5 -0.5h7h3h2l1 2l0.5 2.5t0.5 3.5zM183 243q1 2 3 2.5t3 0.5q2 0 2 -2v-2v-2v-1q0 -1 -1 -3.5t-1.5 -5.5t-1.5 -5.5t-1 -3.5q-1 -7 -2.5 -15.5t-2.5 -17t-1.5 -16.5t-0.5 -15q0 -3 0.5 -6t0.5 -7q0 -2 -1 -3.5t-3 -1.5q-1 0 -1.5 0.5l-1.5 1.5v2.5v3.5v4v2
q0 23 2.5 46t7.5 44zM148 219v5t1 8.5t2 7.5t3 3q3 0 3.5 -3t0.5 -4q0 -5 -2 -9.5t-2 -9.5q0 -4 2 -6t4.5 -2.5t5 -1.5t4.5 -4l-1.5 -1t-1.5 -2h-1q-8 0 -13 5.5t-5 13.5zM103 137q0 1 -0.5 3t-0.5 4.5v4v2.5q-1 4 -4.5 7.5t-4.5 5.5q0 1 -0.5 1.5t-0.5 1.5q4 0 7 -2t4.5 -5
t3 -6.5t1.5 -6.5t-1 -6.5t-4 -3.5zM146 142q0 1 0.5 4l1 6t2 5.5t2.5 2.5h12v-3q-1 0 -4.5 -2t-4.5 -2q-2 -2 -2.5 -4.5t-1 -5.5t-1 -5t-2.5 -2t-2 2.5v3.5zM130 101v-3q0 -1 1 -2h4h5h6t5.5 0.5t5.5 0.5t7 1q1 0 2 1t1 2v0q0 1 -3.5 2.5t-8 2.5t-9 1.5t-5.5 0.5q-5 0 -8 -1
t-3 -6zM130 86q0 -2 0.5 -5l0.5 -3h37q2 0 3 1.5t1.5 3t0.5 3v2.5v3.5t-1 3.5q-4 -1 -10.5 -2t-13.5 -1.5t-12.5 -2t-5.5 -3.5zM88 56q1 1 1 3v4t0.5 3.5t2.5 1.5t3 -1.5t1 -3.5v-4v-3q8 -1 13 -3t7 -6t2 -9.5v-13.5q-1 0 -2.5 0.5t-2.5 1.5v7.5t-1.5 7t-4 6t-6.5 2.5
q-1 0 -2.5 -0.5t-1.5 -1.5v-28q0 -1 -1 -2.5t-2 -1.5l-3 3v29l-1 1t-2 1h-1.5h-2.5q-5 0 -6 -4t-1.5 -9t-1 -8.5t-3.5 -2.5q-2 0 -2.5 1.5t-0.5 2.5q0 8 0.5 12.5t2.5 7t5.5 4.5t10.5 3zM167 53v1.5t0.5 3.5t1 3t2.5 1q1 0 1.5 -1.5l1 -3t0.5 -3v-1.5q6 0 11 -1t9 -6v-3
t0.5 -4.5t0.5 -4.5v-3v-2q0 -2 -0.5 -3t-2.5 -1h-1q0 4 -0.5 7.5t-1.5 6.5t-3 5t-7 2q-2 0 -3.5 -0.5t-1.5 -2.5v-2l0.5 -3t0.5 -6t0.5 -5.5t0.5 -3.5v0v-1q-1 -1 -1.5 -2.5t-2.5 -1.5v0q-1 0 -2 0.5l-1 0.5v25l-2 3l-1.5 0.5l-1.5 0.5q-4 0 -6.5 -2.5t-4 -6t-2 -7.5
t-0.5 -7h-4q0 7 0.5 12t2.5 8.5t6 5.5t11 2z" />
</svg>
