<?xml version="1.0" standalone="no"?>
<!DOCTYPE svg PUBLIC "-//W3C//DTD SVG 1.1//EN" "http://www.w3.org/Graphics/SVG/1.1/DTD/svg11.dtd" >
<svg xmlns="http://www.w3.org/2000/svg" xmlns:xlink="http://www.w3.org/1999/xlink" version="1.1" viewBox="-10 0 266 256">
   <path fill="currentColor"
d="M183 249q1 1 2 1h2q3 0 4 -0.5t3 -3.5v-2.5v-3.5v-3v-2v-14.5t-1 -14t-3.5 -13.5t-6.5 -12q-2 -3 -5.5 -4.5t-6.5 -2t-5.5 -2t-2.5 -6.5t4 -7.5t9 -3.5t10 -1h8q4 -2 5.5 -7t1.5 -9q0 -2 -0.5 -4.5t-1 -5.5t-2 -5t-3.5 -2h-33q-3 0 -5.5 1t-2.5 4q0 2 2 2t5 1t5.5 4.5
t2.5 12.5q0 3 -2 4.5t-4.5 3t-4 4.5t-1.5 8q0 8 2.5 11t5.5 4t7 1.5t6 3.5t3.5 6.5t2 7t0.5 7v6.5v7v11v11v7zM104 183v5q0 3 0.5 9t0.5 12t0.5 10.5t0.5 5.5v5q0 4 0.5 7.5t2 6t4.5 2.5t3 -3.5v-5.5q0 -7 -1 -14.5t-3 -13.5v-36l0.5 -1t1.5 -2l2 -2t2 -1h1h2h2.5t1.5 2
q1 1 2.5 7.5t3.5 14.5t4 17t4.5 17t4.5 13t4 5t4.5 -2t2.5 -4q0 -4 -3.5 -7t-4.5 -7q-5 -12 -9 -26.5t-4 -27.5q0 -4 1.5 -6t3.5 -5v-18l0.5 -1t1.5 -2q0 -1 2 -3.5t2 -3.5v-51l-1 -0.5t-2 -0.5l-1 -0.5t-2.5 -1t-2.5 -1l-1 -0.5q-1 0 -1.5 -0.5l-0.5 -0.5q-1 -2 -1 -4
t-0.5 -4t-2 -3t-4.5 -1q-1 0 -1.5 0.5t-1.5 2.5v12q-4 1 -8 3.5t-4 7.5v38q0 5 4 7t8 3t7.5 3t3.5 8t-3 8.5t-7.5 3.5t-9.5 2.5t-7 5.5q-1 3 -1.5 5t-0.5 3.5v3.5v4zM57 240q0 2 1.5 3t3.5 1h3q1 0 1 -1q0 -2 0.5 -6.5t0.5 -9.5t0.5 -9.5t0.5 -5.5t0.5 -4.5t0.5 -4.5
q2 -7 6 -10.5t8.5 -6.5t8 -7.5t3.5 -13.5q0 -3 -1.5 -5t-3 -3.5l-3 -3t-1.5 -2.5v-25q0 -1 2 -2t4 -1.5t4 -2t2 -5.5h-30q-5 0 -7.5 2t-4 5.5t-2 7t-0.5 6.5q0 7 2.5 11t6 6t7.5 2.5t7.5 2t6 3.5t2.5 8q0 3 -2.5 6t-6 6l-7 6t-5.5 5q-4 5 -5.5 11t-2 12.5t-0.5 12.5v12z
M162 160q1 0 1 1q0 2 -1 2t-1 -2q0 -1 1 -1zM62 136q0 -10 10 -10l2.5 -0.5t2.5 1.5v4v4v3v4t-1 4t-3 2q-5 0 -8 -4t-3 -8zM176 146v-6q0 -5 0.5 -8.5t5.5 -3.5t7.5 2t2.5 7q0 6 -4 8.5t-9 2.5h-2.5t-0.5 -2zM116 121q0 -1 0.5 -3t0.5 -4t0.5 -3.5l0.5 -1.5l3 -1l17 1l1 2
l0.5 2l0.5 2v3t-0.5 4.5t-1.5 4.5t-2 2h-15q-1 0 -2 -1t-1.5 -2.5t-1 -2.5t-0.5 -2zM159 92v3.5t0.5 5.5t2 5t3.5 2h24l6 -6v-18q0 -2 -1.5 -3.5t-3.5 -2t-4 -0.5h-4q-4 0 -8 0.5t-7.5 2t-5.5 4t-2 7.5zM63 96q4 4 9.5 5t10.5 1q9 0 12 -3.5t3 -11.5v-4.5t-1.5 -4.5t-3 -3
t-4.5 -1h-18q-3 0 -4.5 1.5t-2.5 4t-1 5v3.5v4v4zM166 94q0 -2 1 -4.5t4 -2.5h14q1 0 1.5 1l1 2t0.5 2.5v1.5q0 3 -1.5 4.5t-3 2.5t-4.5 1h-5q-5 0 -6.5 -2t-1.5 -6zM118 94q0 -6 3.5 -8t10.5 -2q1 0 4 0.5t3 2.5v13h-20l-0.5 -0.5l-0.5 -0.5v-5zM71 90q0 -6 3.5 -7.5
t8.5 -1.5q4 0 5 2t1 5v3v2l-0.5 0.5t-1.5 0.5h-13q-2 0 -2.5 -1.5t-0.5 -2.5zM75 45q1 3 3 4t4 1.5t4 0.5h4q2 1 2.5 3t0.5 4t0.5 3.5t2.5 1.5q1 0 1.5 -1t1 -3t1 -3.5l0.5 -1.5q1 -2 4 -2.5l6 -1t6 -2t3 -4.5q1 -5 1.5 -9.5t0.5 -8.5t-0.5 -5t-4.5 -1h-1h-2v10q0 3 -1 6
t-3.5 4.5t-7.5 1.5v-27h-8v28q-3 0 -6.5 0.5t-5.5 -2.5v-3.5v-5t-0.5 -5l-0.5 -2.5q0 -2 -1 -4t-4 -2q-1 0 -2 2t-1 3v2q0 1 0.5 4l1 6t1 5.5t0.5 3.5zM140 22v3.5v5.5t0.5 5t0.5 3q0 6 3 8.5t6.5 3.5t6.5 3t4 8h1q2 0 2.5 -1t1 -2.5l1 -3t0.5 -2.5l15 -5q3 -1 4.5 -5
t1.5 -7q0 -4 -0.5 -8t-1.5 -9l-1 -0.5t-2 -0.5q-5 0 -5 4t0.5 8.5t-0.5 8t-7 3.5h-3q-1 0 -1 -1v-28q0 -2 -2 -2h-2h-3t-2 2v29h-10v-1t-0.5 -3t-0.5 -4v-3q-1 -3 -1 -5v-2t-1.5 -1.5t-4.5 -0.5z" />
</svg>
