<?xml version="1.0" standalone="no"?>
<!DOCTYPE svg PUBLIC "-//W3C//DTD SVG 1.1//EN" "http://www.w3.org/Graphics/SVG/1.1/DTD/svg11.dtd" >
<svg xmlns="http://www.w3.org/2000/svg" xmlns:xlink="http://www.w3.org/1999/xlink" version="1.1" viewBox="-10 0 266 256">
   <path fill="currentColor"
d="M162 247v1l1 1l2 2v0q3 0 4.5 -2t1.5 -4t-0.5 -6.5t-0.5 -10.5q0 -5 0.5 -9.5t0.5 -5.5v-4t0.5 -4t0.5 -3.5v-1.5l4 -1h19q3 -1 5 -2t2 -3t-1 -3.5t-3 -1.5q-4 0 -7.5 1t-7.5 1h-7q-1 0 -2.5 -0.5l-1.5 -0.5v-11q0 -2 3.5 -3t7.5 -3t7.5 -6.5t3.5 -12.5v-3v-3l-1.5 -0.5
l-1.5 -0.5q-5 1 -5 4.5t-0.5 7t-2.5 6.5t-11 3v-21q0 -1 -2 -3.5t-3 -2.5h-1l-0.5 1t-0.5 2v24q0 2 -1.5 2h-2.5q-4 0 -6 -1.5t-3 -4.5t-1.5 -6t-1.5 -7l-3 -1v6q0 10 3.5 13.5t7 5t6.5 2.5t3 5v3v3t-1 3.5t-2 1.5h-27q-1 0 -1.5 0.5l-0.5 0.5v1v1l0.5 1t1.5 1h27l0.5 1.5
t1.5 2.5v6v6q0 1 -0.5 6t-1 10.5t-1 10t-0.5 5.5v1zM62 243v3.5t3 1.5q2 0 4 -1t2 -4v-79q0 -2 3 -4t6.5 -4l7 -4t4.5 -4h1.5h0.5h0.5h0.5q1 1 2 1.5t2 1.5t1.5 2t1.5 1q1 2 3.5 2.5t5 1.5t4 2t2.5 4l0.5 2t0.5 4.5t0.5 5t0.5 3.5v3q0 13 -1 26.5t-1 26.5v10l1.5 1t1.5 2h1
v0q1 0 3 -2.5t2 -3.5v-83q-1 -11 -1 -18t-1.5 -11.5t-7 -6.5t-19.5 -4v-1v-3q0 -5 3 -7.5t6.5 -4t6 -3t2.5 -4.5q0 -5 -2 -7.5t-5.5 -4t-7 -2t-6.5 -1.5q-5 0 -8.5 -2.5t-5.5 -5t-4 -4.5t-3 -2t-2.5 0.5t-1.5 2.5q0 3 2 5.5l4 5t3.5 4t1.5 3.5q0 3 -4 6t-9 6t-9 6.5t-4 8.5
q0 2 1 2.5t2 0.5t5 -3t8 -6.5l8 -7t5 -5.5q1 0 2 -1t2 -2.5t2 -2.5t2 -1h1h1q4 0 8 1t4 6v0l-13 13q0 7 -2 9.5t-4.5 3.5t-6 1t-6.5 1.5t-5 6t-3 15.5q0 1 -0.5 4.5t-1 7.5t-0.5 7.5v4.5v30v7.5t-0.5 12t-0.5 12v7.5v4zM92 186q3 0 5 2l4 4t4.5 3.5t5.5 1.5l0.5 -0.5
t1.5 -0.5v-1q0 -2 -1.5 -3.5t-3.5 -2.5t-3.5 -2t-2.5 -2q-2 -2 -3 -5.5t-1 -7t-0.5 -6.5t-0.5 -5q0 -1 -1.5 -2l-1.5 -1h-1h-1l-1 1v3.5v6t-0.5 6t-1.5 4.5t-3.5 3.5t-4.5 3t-3 3.5t-1 5q2 0 4 -1t4 -2.5t3.5 -3t3.5 -1.5zM99 134v-5q1 -2 2.5 -2h3.5q5 0 7 1.5t3 4t1.5 6
t0.5 7.5v1.5v3t-0.5 3t-2.5 1.5h-1v-1q-8 -3 -11 -7t-3 -13zM72 151v-2v-3q0 -4 0.5 -7t2.5 -6t4.5 -4.5t6.5 -1.5h3t2 2v2.5v2.5q0 4 -1 7t-3 5.5t-5 4.5t-6 2h-2.5t-1.5 -2zM186 115q0 3 -1 5.5t-2 5.5t-2.5 6t-1.5 6q3 0 6 -3t5 -7.5t3.5 -8.5t1.5 -6q0 -3 -2.5 -7
t-6.5 -4h-32q-2 0 -2.5 -2.5t-0.5 -3.5q0 -2 0.5 -3.5t2.5 -2.5q1 0 5 -0.5t8 -1.5t7.5 -1.5t5.5 -0.5q2 -1 4 -1.5t4 -2t3.5 -3t1.5 -3.5l-1 -1l-1 -1.5t-2 -1.5q-3 3 -7.5 5.5t-9.5 3.5q-4 1 -8.5 1.5t-9 1.5t-7 3.5t-2.5 8.5q0 5 2.5 7t5.5 3t6 1.5t3 3.5q0 4 -3.5 7.5
t-8 6t-8.5 4.5t-5 4l1.5 1.5l1.5 1.5q6 1 11 -3t10 -10t9 -11t8 -5t6 2.5t2 5.5zM162 61q1 2 1 4v4.5v4t2 1.5h1q1 0 1.5 -1t0.5 -2q1 -4 2 -6t2 -3t3 -1.5t6.5 -2t7.5 -3t4.5 -3.5t3 -5.5t2.5 -7.5v-3q0 -3 -1 -4t-3 -1h-2.5t-1.5 2q0 1 -0.5 2.5t-1 4t-1 4.5l-0.5 2
l-1 2.5t-2 2.5h-13q-1 0 -1 -2v-3v-3v-4t0.5 -6.5t0.5 -6.5v-4t-0.5 -2l-0.5 -1h-1v0q-2 0 -3.5 1.5t-1.5 3.5v27q0 2 -2 2h-3q-5 0 -7 -3.5t-3.5 -7t-2 -6.5t-3.5 -3q-4 0 -4 3q0 11 6 17t16 7zM68 36q0 6 2.5 10t6.5 8q1 0 3.5 1t5 1.5t4.5 1l2 0.5v15l1 -0.5t2 -0.5
q3 -1 2.5 -3t0 -5t4.5 -6.5t15 -5.5q3 -3 3 -7.5v-8.5v-4l-1 -0.5t-2 -0.5h-1q-2 0 -2.5 2.5t-1 6t-2.5 6.5t-7 3q-3 0 -3.5 -3t-0.5 -5q0 -5 0.5 -8.5t0.5 -7.5v-3.5v-2.5q0 -1 -1.5 -2.5t-3.5 -1.5l-1 0.5t-2 1.5l-0.5 0.5t-0.5 1.5v30q-1 0 -4 1t-4 1q-3 -1 -4 -4.5
t-1.5 -7t-2 -6t-3.5 -2.5q-3 0 -3.5 1t-0.5 4z" />
</svg>
