<?xml version="1.0" standalone="no"?>
<!DOCTYPE svg PUBLIC "-//W3C//DTD SVG 1.1//EN" "http://www.w3.org/Graphics/SVG/1.1/DTD/svg11.dtd" >
<svg xmlns="http://www.w3.org/2000/svg" xmlns:xlink="http://www.w3.org/1999/xlink" version="1.1" viewBox="-10 0 266 256">
   <path fill="currentColor"
d="M176 243q0 2 1 4t3 2h1q1 0 2.5 -0.5t2.5 -0.5v-13v-12t-3 -11l-4 -64q0 -1 -2 -2.5t-4 -2.5q-1 -1 -3 -2t-4 -1.5t-3 -1.5t-2 -1h-27q-2 0 -2 -1.5v-1.5v-2v-7.5t0.5 -12t0.5 -12t1 -7.5q0 -2 1.5 -2h2.5q5 0 8 2t6 6v3.5t0.5 5t0.5 5v3.5q1 2 2.5 3.5t4 3t4.5 2t4 1.5
l4.5 1.5l3 1t2.5 0.5h4h4t2 -3t-2 -4t-5.5 -1.5l-7 -1t-6.5 -2t-5.5 -4.5t-2.5 -8q0 -2 0.5 -3.5t3.5 -2.5q1 1 5 2.5t8 3.5l8 4t5 2l1.5 1l3 2t2.5 1.5t2 0.5h1q3 0 5.5 -2t2.5 -5q0 -1 -2.5 -2.5t-6.5 -3t-8.5 -3l-9 -3t-8 -2t-4.5 -1.5q-8 -3 -14 -6.5t-14 -7.5
l-2.5 -0.5t-2.5 -1.5q-1 0 -1 -2t-0.5 -4.5t-1.5 -4t-3 -1.5q-3 0 -4 1.5t-1 3.5t-0.5 4t-1.5 3q-2 2 -7.5 4.5t-12 5l-13 5t-8.5 3.5q-8 3 -15.5 7.5t-14.5 7.5q-1 1 -1 1.5v2.5q0 3 3 3q6 0 11 -3t9.5 -6.5t9.5 -6.5t9 -3h2.5t1.5 2v6q0 5 -2 7.5t-5 4t-6 1.5t-6 1t-5 2.5
t-2 5.5q3 0 7 -0.5t9 -2t9 -3t6 -2.5q2 -2 2.5 -7.5t1.5 -11.5t4 -11t11 -5q1 0 2.5 0.5t1.5 1.5v48l-32 4q-4 0 -7 2.5t-5 6t-3.5 7.5t-2.5 7q0 3 -0.5 9.5t-1 14t-1 14.5t-0.5 9v18v18q0 1 1 1.5t2 0.5q2 0 3 -0.5t2 -2.5q0 -22 1 -43.5t4 -42.5h2q3 0 6.5 2.5t3.5 5.5v1
q-1 2 -2.5 3.5t-3 3.5t-2.5 4t-1 4v1q1 0 1.5 0.5l0.5 0.5h0.5h0.5q2 0 3.5 -2t3 -4.5t3.5 -4.5t5 -2q2 0 3 1t2.5 2t2.5 2t4 1q0 -3 -1.5 -4.5l-3 -3t-2.5 -3t-1 -3.5t1 -3.5l2 -3l2 -3t1 -3.5v0v0q0 -1 -0.5 -1.5l-0.5 -0.5h-1h-1l-10 10h-0.5h-0.5q-2 0 -3.5 -1t-3 -2.5
t-2.5 -3t-1 -3.5q0 -1 1 -1q5 -2 8.5 -2h8.5h2h4h3h2q1 0 1.5 0.5t0.5 1.5t1 4l1 3v87q0 1 1.5 1h2.5t3.5 -0.5t2.5 -2.5v-14q5 -1 9 -5.5t7 -7.5h1h1l0.5 1l0.5 1l2.5 2.5t3 3.5t2.5 4t2 3h1h1q5 0 5 -5q0 -1 -1 -2l-1.5 -1.5l-2 -2t-3 -3.5t-3.5 -3.5t-3 -1.5v-2
q0 -2 2 -4l4 -4t3.5 -4t1.5 -4q-3 0 -5 1t-4 3l-3.5 3.5t-4.5 1.5q-2 0 -3 -1.5t-2 -2.5l-2.5 -2.5t-4.5 -1.5q0 5 2 7.5t5 5.5q0 1 1 2.5t0 1.5l-9 9h-2h-1.5t-1.5 -1v-69q0 -2 1 -3.5t2.5 -2t2.5 -0.5h3q2 0 6 0.5l8 1t7 2t3 3.5t-1.5 3.5t-3.5 3t-4.5 2.5t-3.5 1h-1.5
h-0.5l-8 -8q-1 -1 -2 -1t-1.5 1t-0.5 1.5v1.5v1v0l9 10l-9 9v4q2 0 3.5 -1l3 -2l3 -2t3.5 -1t3 1t2 2.5t2.5 2.5t3.5 1h2.5t1.5 -1t-0.5 -2t-0.5 -2q-1 0 -1.5 -1.5t-1.5 -2.5t-2.5 -2t-1.5 -2q1 -2 4 -5.5t5 -3.5h1q1 1 3 2.5t2 2.5l5 73q-1 1 -1.5 3.5t-0.5 3.5v1zM86 221
q0 2 3 2q2 0 3.5 -1.5t2.5 -3.5t2 -3.5t4 -1.5h0.5h0.5l8 8h1h1q2 0 2.5 -1t0.5 -3t-1 -3.5l-2 -3l-2 -3t-1 -3.5t0.5 -3.5t1.5 -2.5t2 -2.5t1 -3.5v-1.5t-1 -2.5t-3 0l-9 10h-1q-3 0 -5 -2t-5 -2q0 2 0.5 3.5t1.5 2.5t1.5 2.5t0.5 3.5q0 4 -2 7t-6 6v2zM83 65v15
q4 0 5.5 -1t2 -3t1 -4.5t0.5 -5.5q7 -4 12 -6t8 -5t4 -8t1 -15q0 -2 -1 -4.5t-3 -2.5h-1l-0.5 0.5l-1.5 1.5q0 3 -0.5 8t-2 9t-4 7.5t-8.5 3.5h-1.5t-1.5 -2v-32q0 -1 -0.5 -1.5l-0.5 -0.5q-1 0 -2 -1t-2 -1l-0.5 1l-0.5 1q-1 1 -1.5 2.5l-0.5 1.5v29q0 2 -1 2.5t-3 0.5
q-4 0 -6 -2t-3 -5t-1 -7t-0.5 -7t-1.5 -5t-3 -2q-3 0 -3.5 1t-0.5 3q0 6 0.5 12t3 10.5t7 7.5t11.5 4zM142 40v9q0 7 3.5 10t7 4t7 1.5t3.5 1.5v14q2 0 3.5 -0.5t2 -1.5t0.5 -2.5t1 -3.5q1 -4 4 -6t6 -3t6.5 -2t6.5 -4q3 -4 4 -10.5t1 -12.5v-1.5v-3.5t-1 -3t-2 -1
q-5 0 -5.5 4.5t-1 10t-2 10t-8.5 4.5q-2 0 -3.5 -0.5t-3.5 -1.5v-6v-7t0.5 -6t0.5 -7t1 -9l-1.5 -2l-1.5 -2h-1h-1q-1 0 -2 1t-1 2q0 2 -0.5 6t-0.5 9t-0.5 9.5t-0.5 6.5q0 3 -1.5 6.5t-4.5 3.5t-6 -1t-3 -4v-17q0 -1 -1 -4t-3 -3h-1q0 1 -0.5 2t-0.5 2v8z" />
</svg>
