<?xml version="1.0" standalone="no"?>
<!DOCTYPE svg PUBLIC "-//W3C//DTD SVG 1.1//EN" "http://www.w3.org/Graphics/SVG/1.1/DTD/svg11.dtd" >
<svg xmlns="http://www.w3.org/2000/svg" xmlns:xlink="http://www.w3.org/1999/xlink" version="1.1" viewBox="-10 0 266 256">
   <path fill="currentColor"
d="M171 212q0 3 1.5 9.5t4.5 12.5t7 11t8 5q2 0 4 -1t2 -4q0 -2 -1.5 -4t-3.5 -3t-4.5 -2.5t-3.5 -3.5q-4 -5 -5 -11t-1 -12t3 -9.5t6.5 -7t6.5 -9t3 -14.5q0 -3 -2 -6.5t-5 -7t-5.5 -8t-2.5 -8.5q0 -6 1.5 -8.5l3 -5t3 -4t1.5 -4.5q0 -1 -0.5 -3l-1 -4t-1.5 -3.5t-3 -1.5
t-2.5 2t-0.5 5v5v2q-1 2 -7.5 5t-13.5 6t-12.5 6l-5.5 3q0 3 1 3h3q3 0 5.5 -1.5t5.5 -1.5q2 0 3 2.5t1 3.5t-1.5 2.5t-1.5 2.5l-0.5 2t-1 5t-1 5l-0.5 2q0 1 -0.5 2t-1.5 1q-2 5 -5.5 9t-3.5 9q4 0 7.5 -3t6 -7.5t4.5 -10.5t3 -11.5t2 -10t1 -7.5q2 -3 5 -3h1v3t0.5 4
t0.5 3.5v2.5q1 2 1.5 5.5l0.5 3.5q1 3 2.5 5.5t3.5 4.5t3 4.5t1 6.5q0 5 -3.5 10.5t-8.5 6.5q-4 5 -5 9.5t-1 10.5zM124 231q0 2 0.5 3.5t3.5 1.5h1q1 0 2.5 -1.5t1.5 -2.5v-75q0 -4 -4 -7t-6 -5h-3t-5 -0.5t-5 -0.5h-3h-2h-1h-4.5t-7 0.5t-7 0.5h-4.5q-4 2 -6.5 4t-4 5
t-2.5 6.5t-2 6.5q0 3 -1 11t-1.5 16.5t-1 16t-1.5 11.5v5v5q1 2 3 2h2q3 0 4 -6.5t1 -15.5t0.5 -19.5t2 -20t5 -15.5t10.5 -6h31q2 0 3.5 2.5t2.5 6t1 6v3.5v2t0.5 4t0.5 5v3q0 12 -2 24t-2 24zM89 197q5 0 8 0.5t7 0.5t6 -1.5t3 -4.5t1 -6v-6q0 -5 -2 -9t-8 -4q-4 0 -7 0.5
t-8 1.5q-3 3 -3.5 5.5t-0.5 6.5v9t4 7zM91 184q0 -6 2 -8.5t8 -2.5q5 0 6.5 3.5t1.5 7.5q0 8 -10 8q-3 0 -5.5 -2.5t-2.5 -5.5zM79 119q0 4 2.5 8.5t7.5 4.5h25q3 0 5.5 -2t4.5 -4.5t3 -5.5t1 -5q0 -4 -2 -6.5t-4.5 -4.5t-6 -2.5t-6.5 -0.5q-7 0 -12 0.5t-12 2.5
q-4 2 -5 6.5t-1 8.5zM86 118q0 -4 2 -6t4.5 -3t6.5 -1h6h4t4 1q2 0 4.5 2.5t2.5 4.5q0 1 -0.5 2.5t-1 3.5t-1.5 3t-3 1h-20q-3 0 -5.5 -3t-2.5 -5zM148 115q0 1 1.5 1h2.5q3 0 10 -2.5t13.5 -6.5t12 -9t6.5 -9v-0.5v-0.5q0 -2 -1 -2.5t-4 -0.5l-1.5 2t-4 4.5l-5 5l-3.5 3.5
q-2 0 -6 2t-9 4t-8.5 4t-3.5 5zM56 96v3t2 1h1.5h0.5l1 -0.5t2.5 -1t2.5 -1l1 -0.5q9 -3 19.5 -6t18.5 -3q6 0 11 1.5l10 3t10.5 3t10.5 1.5q0 -4 -5.5 -7t-12.5 -5t-13.5 -3.5t-8.5 -2.5q1 -5 -0.5 -8t-6.5 -3v11q0 2 -3.5 3.5t-8.5 2.5t-10.5 1.5t-10.5 1.5t-8 3t-3 5z
M183 62q1 5 -1.5 8.5t-6 5.5t-7.5 3.5t-7.5 3t-6 3.5t-2.5 5q6 0 13 -2t13 -6t10.5 -9.5t4.5 -11.5h-10zM148 26q0 5 1.5 9t4.5 9q1 1 4 2.5t5.5 2.5t4.5 1.5l2 0.5v11q3 0 4 -1t1.5 -3t0.5 -4v-4q7 0 12.5 -3t9.5 -9q0 -1 0.5 -3t0.5 -4v-4.5v-3.5v-1q0 -2 -0.5 -3t-2.5 -1
t-4 1.5t-3 2.5q0 3 0.5 6t0 5.5t-2.5 4.5t-5 2q-2 0 -4 -1t-2 -4v-1q0 -1 0.5 -3l1 -4l1 -4t0.5 -3l-1 -3.5t-2 -4.5q0 -1 -0.5 -1.5l-0.5 -0.5h-1h-1l-0.5 0.5t-0.5 1.5l-3 29q-1 2 -3 2h-2q-2 0 -5 -1t-3 -4v-15l-2 -1.5t-3 -2.5l-1.5 0.5l-1.5 0.5v6zM78 20q0 7 1 11.5
t3 7.5t6 5t10 4q2 1 2 3v4v3.5t2 1.5q1 0 2 -1.5t1 -3t0.5 -3t1.5 -2.5q5 -3 9 -4t7 -2.5t4.5 -5.5t1.5 -12q0 -2 -0.5 -5t-3.5 -3v0q-1 0 -2 1l-1 1v6.5t-0.5 6.5t-2.5 5.5t-6 2.5h-2.5t-1.5 -1v-27q0 -1 -1 -2t-2.5 -1.5t-2.5 -0.5h-3v28q0 2 -1 2.5t-3 0.5q-6 0 -7.5 -4
t-2 -9t-1 -9t-4.5 -4q-3 0 -3 2v4z" />
</svg>
