<?xml version="1.0" standalone="no"?>
<!DOCTYPE svg PUBLIC "-//W3C//DTD SVG 1.1//EN" "http://www.w3.org/Graphics/SVG/1.1/DTD/svg11.dtd" >
<svg xmlns="http://www.w3.org/2000/svg" xmlns:xlink="http://www.w3.org/1999/xlink" version="1.1" viewBox="-10 0 266 256">
   <path fill="currentColor"
d="M105 231v5t1 6t2.5 5.5t3.5 2.5q6 0 6 -6q0 -3 -2.5 -5.5t-2.5 -6.5t1.5 -6.5t4 -5t4 -4.5t0.5 -4q0 -4 -2 -6t-4 -2.5t-4 -2t-3 -4.5q-1 -2 1 -3.5t5.5 -2t6 -1.5t2.5 -4v-12q0 -1 1.5 -1.5l3 -1t2.5 -1t1 -2.5t-1.5 -2t-3.5 -1h-4t-6.5 0.5t-6.5 0.5h-5q0 -8 2.5 -10
t6.5 -2.5t7.5 -1t7.5 -5.5v-2t0.5 -4t0.5 -4.5v-2.5v-1q0 -3 -0.5 -5t-3.5 -2h-1h-1q0 1 -3 3l-3 2q-1 0 -5.5 -1t-5.5 -1v-9q5 0 10.5 -1.5t9.5 -6.5l1 -2l2 -4l2 -4l1 -2h14q2 0 2 -2v-3v-2h-2.5h-3.5t-4 -0.5t-3 -0.5q-3 -1 -4 -3t-0.5 -3.5t0.5 -4t-1.5 -4t-6 -2.5
t-14.5 -1q-2 -2 -2.5 -4.5t-3.5 -2.5q-1 0 -1.5 1t-1.5 2.5t-2.5 3t-2.5 1.5l-2 0.5t-4.5 1t-4.5 1t-3 0.5q-1 1 -2.5 3.5t-2 5t-1.5 5l-1 2.5h-17q-2 0 -2 1.5v2.5v1.5t2 1.5h17l0.5 0.5l0.5 0.5l0.5 1.5t1 2.5l1 2t0.5 2q2 4 5.5 5.5t7 2t6.5 1.5t3 3t-0.5 5.5t-2.5 3.5
h-12l-3.5 -3.5t-3.5 -1.5h-1l-1.5 4.5t-0.5 3.5v4.5t0.5 5.5t1.5 5.5t3 2.5l15 3q3 0 3.5 2t0.5 4q0 3 -2 4t-4.5 1.5t-5.5 1t-5.5 1.5t-4.5 4t-2 8q0 4 1.5 7.5t1.5 7.5q0 2 -2 5.5t-5 7.5t-5 9t-2 10v3t3 2v0q1 0 2 -1.5t2 -1.5q0 -1 1 -3.5t2 -5.5t1.5 -5.5t1.5 -3.5
q0 -2 1 -4t3 -2h1.5h0.5l4 8h1h1q2 0 2.5 -1t0.5 -3q0 -3 -1.5 -5.5t-1.5 -5.5t2.5 -3.5t4.5 -0.5q3 0 5 1.5t4 4t3.5 4.5t3.5 4v2q0 3 -1.5 5.5l-3 5t-3 4.5t-1.5 5zM171 192q2 0 4 4t3.5 10t3.5 13t4 12.5t5 9.5t6 4t5 -0.5t2 -2.5v-2v-1l-17 -30q-1 -5 -3.5 -10t-2.5 -10
q0 -3 1.5 -4t4 -2t4.5 -2t4 -4q4 -8 5 -16.5t1 -17.5v-9q-2 -3 -5 -4.5t-6.5 -2t-7.5 -1t-6 -0.5l-2 -1v-5v-8q0 -1 0.5 -3t0.5 -4.5t0.5 -4l0.5 -1.5l2 -2h23q2 0 2.5 -1.5t0.5 -2.5q0 -2 -0.5 -3t-2.5 -1h-2h-2.5t-3 0.5t-2.5 0.5h-1.5h-2.5h-4q-3 0 -4.5 -0.5t-2.5 -1.5
t-2 -4v-15q0 -1 -1 -1.5t-3 -0.5q-1 0 -2 0.5t-1 1.5v28t-2 28q-1 1 -3.5 1.5t-5 0.5t-4 1t-1.5 3t1 2.5t4 0.5h31q2 0 3.5 1.5t2 3.5t0.5 4v3v7.5t-1.5 10.5t-3.5 9.5t-6 4.5q-3 0 -4.5 -3t-2 -7t-1 -7t-0.5 -5l-1 -1h-5h-6t-8 1t-7.5 2.5t-3.5 4.5q5 0 10 -1t10 -1h5
q4 4 3.5 9.5t-0.5 11.5q0 2 -3 4t-7 3.5t-7.5 2.5t-5.5 2q-1 0 -3.5 1t-5 1.5l-5 1t-3.5 0.5v5q7 0 13 -1t12 -4q3 -1 7 -3.5t8 -2.5zM84 181l0.5 -2.5l0.5 -2.5q3 -2 5 -2.5t5 -0.5h4v2.5t0.5 3.5t0.5 3.5v2.5v1q0 3 -1.5 3.5t-3.5 1t-4 0.5h-3q-3 -2 -3.5 -4.5t-0.5 -5.5z
M106 171q6 0 9.5 1t3.5 7q0 7 -8 7q-1 0 -3 0.5t-2 -1.5v-14zM85 143q-1 -2 1.5 -3l5 -2t5 -1h2.5q2 0 1.5 2t-0.5 3l0.5 1t0 2t-0.5 1.5t-1 0.5h-11l-1.5 -1.5t-1.5 -2.5zM125 137q0 1 -0.5 2.5t-1 3.5t-2 3t-2.5 1h-13v-3v-4t1 -2l1 -1h17zM119 100q1 0 3.5 0.5t2.5 2.5
q0 3 -1.5 5t-3.5 3t-5 1.5t-5 0.5v-11q0 -1 1 -1t3 -0.5t3 -0.5h2zM85 104q1 -2 2 -2.5t3 -0.5h3h4t3.5 0.5t2 1.5t0 3t-0.5 5h-13l-0.5 -0.5l-0.5 -0.5q0 -1 -1.5 -3.5zM85 92q0 -6 4.5 -8t9.5 -2q3 0 4 1t1 4q0 1 -1 4.5t-3 3.5h-13q-2 0 -2 -1.5v-1.5zM110 93l-0.5 -2
l-0.5 -2q0 -1 0.5 -3l0.5 -2l0.5 -0.5l0.5 -0.5h11q2 0 2.5 3t0.5 4q0 4 -1 4.5t-4 0.5t-5 -0.5t-5 -1.5zM74 24q1 9 3.5 13.5t5.5 7t6.5 3t6.5 1.5t4.5 4t1.5 9v0h1q3 0 3.5 -2t0.5 -4t0.5 -4t2.5 -2l15 -5q2 -1 3 -3t1.5 -4.5t0.5 -5.5v-4v-3.5v-3.5l-1 -0.5t-1 -1.5h-1
q-3 0 -4 1.5t-1 4v5t-1 5t-4 4t-9 1.5v-25l-0.5 -0.5l-1.5 -1.5v0v0h-1v0q-1 1 -2.5 1.5l-1.5 0.5v25q-1 0 -5 0.5t-5 0.5q-4 -1 -5 -4t-1.5 -7t-1 -6.5t-3.5 -2.5q-2 0 -3.5 0.5t-2.5 2.5zM168 48v2v3.5t1 2.5t2 1q2 0 3 -1t1 -2.5t0.5 -3.5t2.5 -2q5 -2 10 -2.5t8.5 -2
t5.5 -5.5t2 -12v-2q0 -1 -0.5 -3t-1.5 -2h-8v15q0 2 -1.5 2.5t-3.5 1.5t-3.5 1h-2.5h-3q-2 0 -2 -2v-25q0 -1 -2 -1.5t-3 -0.5t-2 0.5t-1 1.5v24q0 1 -1.5 3t-3.5 2l-2 -0.5t-3.5 -1t-3 -1.5t-1.5 -2v-14q0 -1 -1.5 -1h-2.5q-2 0 -2.5 2t-0.5 4q0 7 1 10.5t3 5.5t6 3t10 2z
" />
</svg>
