<?xml version="1.0" standalone="no"?>
<!DOCTYPE svg PUBLIC "-//W3C//DTD SVG 1.1//EN" "http://www.w3.org/Graphics/SVG/1.1/DTD/svg11.dtd" >
<svg xmlns="http://www.w3.org/2000/svg" xmlns:xlink="http://www.w3.org/1999/xlink" version="1.1" viewBox="-10 0 266 256">
   <path fill="currentColor"
d="M89 221q3 2 8.5 3l11 2t9.5 2t5 1q2 3 3 5.5t1.5 5t2.5 5t6 5.5h0.5h1.5q2 0 3.5 -1t1.5 -3q0 -1 -0.5 -1.5l-0.5 -0.5l-1 -1l-2 -2t-1.5 -2t-1.5 -1v0v-1l1.5 -2t3.5 -4.5t3 -2.5q4 -1 9 -2t9.5 -3t7 -5.5t2.5 -9.5q0 -7 -2.5 -10t-5.5 -4t-6.5 -2t-4.5 -5
q-1 -1 -2 -4.5t-1 -4.5q2 -3 6.5 -4t8.5 -1.5t7 -3.5t3 -10t-3.5 -10t-8 -4.5t-10.5 -1.5h-10h-12h-12t-12 1.5t-11 4.5q-3 3 -3.5 6.5t-0.5 7.5t1.5 6.5t4.5 4t6.5 2.5t6.5 2v2v2q0 5 -4 6.5t-8.5 3t-8.5 4t-4 9.5v2q0 1 0.5 3l1 4t0.5 4t1 3zM188 243q0 3 0.5 4.5t3.5 1.5
t4 -2t3 -4v-4v-6v-5v-4q0 -8 -1 -16t-1 -16q0 -3 0.5 -5l1.5 -6v-39q-2 -4 -1.5 -7t0 -6.5t-1 -11l-1 -15t-0.5 -14v-8.5q-1 -6 -4 -9.5t-8 -5.5h-4t-6 -0.5t-6 -0.5h-4h-3h-6h-6h-3q-6 0 -8.5 -1.5t-3.5 -3.5t-0.5 -3.5t0.5 -3.5t-0.5 -3t-2.5 -1h-1q-1 0 -2.5 0.5
l-1.5 0.5v15h-2t-5.5 0.5t-7 0.5h-5.5q-10 1 -17.5 2t-12.5 4.5t-8 10t-4 17.5v8t-0.5 13.5t-0.5 15v11.5l-2 38t-1 38v20l1 1l2 2h1q2 0 4 -2t2 -4q0 -19 -0.5 -38.5t0 -39t1.5 -38.5t4 -38q2 -6 7.5 -9t12 -4.5t13.5 -2t12 -0.5t6 2.5t2 7.5q-2 3 -7 4.5t-10.5 2.5t-11 1
t-8.5 1q-1 0 -1.5 2t-0.5 3q9 0 17.5 -2t17.5 -2q3 0 4 2t1 4q0 1 -0.5 2.5t-1.5 2.5q-2 0 -6.5 0.5t-9.5 1.5t-9 1.5t-6 0.5t-4 0.5l-2 0.5v4q9 0 17.5 -1.5t17.5 -1.5v12l-38 8q-3 1 -3.5 2t-0.5 3h3.5h5t5 -0.5t3.5 -0.5q3 0 6 -1t6.5 -2.5t6.5 -2.5t6 -1q2 0 3.5 3
t1.5 4q1 0 1.5 -1.5l1 -3t1.5 -2.5l2 -2q7 -1 14 -1.5t14 -2.5q2 0 5.5 -1t3.5 -2v-4q-8 0 -16 2t-16 2h-5q-2 0 -2 -2v-3q0 -4 2.5 -5.5t6 -1.5h7.5t7.5 -0.5t6 -2t2.5 -6.5q-7 0 -13.5 2.5t-13.5 2.5q-2 0 -3.5 -2t-1.5 -4t1 -3.5t2 -2.5h3h4.5t4.5 -0.5t3 -0.5
q2 0 4.5 -0.5t5.5 -1t5 -2t2 -3.5q0 -1 -1.5 -1.5t-2.5 -0.5q-7 0 -13.5 2.5t-12.5 2.5q-3 0 -4 -1t-1 -4t1.5 -4.5t3.5 -2t4.5 -0.5h5.5h12t11 1t9.5 4t6.5 10q2 14 2.5 29t0.5 30v30v29v2t0.5 3t0.5 3.5v1.5q0 8 -1.5 15.5t-1.5 14.5zM123 202q-1 -2 -1.5 -2h-1.5h-2t-1 2
v14l-1 1t-2 1h-5q-2 0 -5 -0.5t-6 -1.5t-4.5 -3t-1.5 -5q0 -6 3.5 -8.5t8 -3.5t8.5 -2t5 -4l0.5 -2t0.5 -3.5v-3v-1.5l1.5 -1.5l0.5 -0.5h4t7 -0.5t7 -0.5h4h1h1l1 0.5t2 0.5q-1 8 1.5 11.5t6 6l7 5t3.5 6.5q0 6 -4.5 9t-9.5 3h-2.5t-1.5 -1v-19q-4 0 -5 4.5t-1.5 10t-2 10
t-6.5 4.5q-3 0 -4.5 -3.5t-1.5 -5.5q-1 -1 -1 -3.5t-0.5 -5l-1 -5t-0.5 -3.5zM99 168l-0.5 -2l-0.5 -2v-2q0 -5 3.5 -8.5t8.5 -3.5h4q2 4 3.5 8t1.5 9q0 3 -1 3.5t-4 0.5q-4 0 -7 -0.5t-8 -2.5zM123 155q0 -5 3 -5.5t7 -0.5q3 0 5 1.5t3.5 4.5t2 6t0.5 5q0 1 -0.5 3t-1.5 2
h-12q-2 0 -3.5 -2t-2 -5t-1 -5.5t-0.5 -3.5zM145 154q0 -2 2.5 -3t4.5 -1t4.5 0.5l5 1t3.5 2t1 4.5q0 6 -2 8t-8 2q-2 0 -4 -1.5t-3.5 -3.5t-2.5 -4.5t-1 -4.5zM168 45q1 1 1.5 2.5t0.5 3.5v3.5t2 2.5q3 -4 2.5 -5.5t-0.5 -2.5t1.5 -2t7.5 -2q4 -1 7 -4t4.5 -6.5t2 -7.5
t0.5 -9q0 -2 -0.5 -3t-2.5 -1q-3 0 -3.5 0.5t-0.5 2.5q0 1 -0.5 3.5t-0.5 5t-0.5 4.5t-0.5 3q-1 1 -4 2.5t-5 1.5v1h-1v-1l-1 -1.5t-1 -2.5v-17q0 -2 -1 -2h-2h-3t-2 2v20q0 1 -2.5 1.5l-2.5 0.5q-6 0 -7.5 -3t-2 -7t-1 -6.5t-2.5 -2.5t-2.5 1t-0.5 3q0 5 1 9t3.5 7.5t6.5 5
t10 0.5zM71 20q0 10 3.5 14t12.5 7q4 1 5.5 3t2 4.5t1 4.5t2.5 2q3 -1 2.5 -2.5t-0.5 -3.5t2 -4t9 -4q3 -1 5.5 -4.5t4 -7t2.5 -7.5t1 -7q-5 0 -6.5 3t-3 7t-3 7t-7.5 3h-1q0 -1 -1 -1.5l-1 -0.5v-21q-4 0 -5.5 3.5t-1.5 7.5t0.5 7t-1.5 3h-10q-3 0 -3.5 -3t-1 -6.5
t-1.5 -6.5t-3 -3q-3 0 -3 2v4z" />
</svg>
