<?xml version="1.0" standalone="no"?>
<!DOCTYPE svg PUBLIC "-//W3C//DTD SVG 1.1//EN" "http://www.w3.org/Graphics/SVG/1.1/DTD/svg11.dtd" >
<svg xmlns="http://www.w3.org/2000/svg" xmlns:xlink="http://www.w3.org/1999/xlink" version="1.1" viewBox="-10 0 266 256">
   <path fill="currentColor"
d="M144 173v0l2.5 1t2.5 2v72h7v-65l1 -9h1.5h2.5q3 0 6 1t4 4q0 2 0.5 4.5t1 5.5l1 6t0.5 4v3.5t0.5 5.5t1 5.5l0.5 2.5q0 1 0.5 2l0.5 1h8q1 0 1 -1v-2l-1 -2.5t-2 -3.5q0 -1 -0.5 -4t-1.5 -6.5t-1.5 -7t-0.5 -5.5q-2 -7 -2.5 -10.5t-3 -5.5t-6.5 -3.5t-11 -2.5v-19
q0 -2 1 -3.5t3 -1.5q7 0 13.5 2t11.5 8q0 1 0.5 3.5t1.5 5.5t1.5 6t1.5 4v2t1 4.5t2 4.5t3 2t3 -2.5t1 -5.5t-1.5 -9t-4.5 -12t-7 -10.5t-8 -5.5h-5t-6.5 -0.5t-7 -1.5t-4.5 -3q-2 -1 -2 -3v-3.5t-1 -3t-3 -1.5h-1l-0.5 0.5l-0.5 0.5v12q-8 -1 -13.5 2.5t-9 8.5t-5.5 11.5
t-3 12.5l-4 8t-2 9q3 0 6 -1.5t4 -4.5q0 -5 1 -12t3.5 -12.5t7 -9.5t11.5 -4l2.5 -0.5t2.5 1.5q0 1 0.5 4l0.5 3q0 5 -0.5 8t-1.5 8q-8 -2 -12 3t-5.5 12.5t-1.5 15.5v13v10q0 1 0.5 1.5t1.5 0.5v0h1q1 0 2 -1.5t1 -2.5q0 -7 0.5 -15.5t1.5 -16.5q0 -1 0.5 -3t1.5 -4.5
t2 -4.5t3 -2zM61 224q1 1 4 1.5l6 1l6 1t4 0.5h3h3q1 0 3.5 -0.5t5.5 -0.5t6 -0.5t4 -0.5l1.5 -1.5l1.5 -1.5v-1v-1l-0.5 -1t-1.5 -1h-20q-1 0 -3.5 -1.5t-2.5 -2.5v-11q0 -1 2 -2l2 -0.5l2 -0.5q2 -1 5 -3.5t5 -3.5q0 -1 0.5 -4.5l1 -7t1 -6.5t0.5 -4v-1q0 -2 -1.5 -3.5
t-3.5 -1.5q-1 0 -1 0.5t-1 0.5v3t-0.5 4t-0.5 4v3t-0.5 2.5t-1.5 3t-1.5 3t-2.5 1.5v0l-2 -2t-1 -2q0 -6 -1 -11.5t-1 -11.5q0 -3 1 -4t3 -2t3.5 -2t3.5 -2q3 -4 3 -7t2 -8q0 -2 2 -3t4 -1.5l4 -1t2 -2.5v-1l-1.5 -1l-1.5 -1h-1q-4 0 -7 1t-6.5 2t-6.5 1.5t-7 0.5h-7.5
t-8.5 -2v-2v-2v-5t3 -4h4h6t5.5 -0.5t3.5 -0.5t3.5 -1.5t2.5 -3.5l3 -14q1 -3 3.5 -3.5t5.5 -1l6 -1t3 -3.5q0 -2 -2.5 -2h-3.5q-8 0 -14.5 2t-14.5 2q-2 0 -4.5 -0.5t-2.5 -3.5q0 -5 4.5 -8.5t11 -5.5t13 -3t9.5 -1l0.5 -1l0.5 -1q0 -2 -2.5 -2.5t-4.5 -0.5q-9 0 -18 3
t-18 7q0 2 -1.5 6t-3 8.5l-3 9t-1.5 6.5v66h6v-8h12q0 2 0.5 6.5t0.5 10.5v10v7q0 1 -0.5 4t-0.5 6.5t-0.5 7t-0.5 4.5l-0.5 0.5t-1.5 0.5l-1 -0.5l-1 -0.5q-2 -1 -4.5 -3l-2.5 -2v-32q0 -1 -2 -1.5l-2 -0.5q-2 0 -2.5 1.5t-1 3.5t0 4l0.5 2q0 4 -0.5 8.5t0 9.5t1.5 9.5
t5 6.5zM62 145q0 -2 1.5 -4t3.5 -2h23q0 9 -4.5 12t-11.5 3q-6 0 -9 -1.5t-3 -7.5zM185 102q1 2 2.5 4.5t4 5t4.5 4t4 1.5h3.5t1.5 -3t-3.5 -6t-8.5 -6t-9 -5.5t-5 -5.5q-1 -1 -1 -3v-3q0 -2 -0.5 -3.5t-1.5 -3.5q-5 -3 -8.5 -4t-7.5 -4h-4t-6 -0.5t-6 -0.5h-4h-1h-1h-0.5
h-0.5q-1 0 -3.5 1.5l-2.5 1.5v1v1l0.5 1l0.5 1h30l1.5 1.5t3.5 3t3 3.5t1 3q0 4 -4 4q-8 0 -15 -0.5t-15 -0.5q-2 0 -6 1.5t-4 3.5v1q1 2 2 2h33l6 1v0.5v1.5q0 3 -3 5t-7 2.5t-10 0.5h-8.5t-7.5 0.5t-3 1.5v1l0.5 1t1.5 1q5 1 8 1.5t7 0.5q10 0 14.5 -2.5t7.5 -4.5
t5.5 -4.5t8.5 -2.5h3zM64 107v-2.5t1 -3t1.5 -2.5t2.5 -1h17q0 7 -2 13h-7h-3h-4.5t-4 -1t-1.5 -3zM62 28q0 8 3.5 13t8 8t7.5 5.5t3 6.5h1q2 0 2.5 -1.5t1.5 -3l2 -3t2 -2.5q1 0 3.5 -0.5t5 -1.5t4.5 -1.5t3 -1.5q3 -1 3 -4v-6v-5q0 -1 -1.5 -2.5l-1.5 -1.5q-1 0 -2.5 -0.5
l-1.5 -0.5v14q0 1 -1.5 1.5l-3 1t-3.5 0.5h-2h-2.5t-1.5 -1v-26h-8v26q0 1 -1 1t-2 0.5t-1.5 0l-0.5 -0.5q-4 0 -5.5 -3t-2 -6.5t-1.5 -6.5t-4 -3q-2 0 -2.5 1t-0.5 3zM131 29v1v1l0.5 1t0.5 2q1 5 1.5 8t1.5 4t3.5 1.5t7.5 2.5q1 0 3.5 0.5l2.5 0.5v2.5v2.5q0 2 0.5 3.5
t2.5 1.5q1 0 2 -1.5t1 -3v-3.5v-2q5 0 10 -0.5t9 -2t6.5 -5t2.5 -10.5v-1q0 -1 -2 -4.5t-2 -5.5h-2q-1 0 -1.5 0.5l-1.5 1.5v6q0 4 -1 7t-3 4.5t-6 1.5h-4l-1 -0.5l-1 -0.5v-23q0 -1 -2 -3t-3 -2t-2.5 0.5t-1.5 1.5v27q-2 0 -5 0.5t-5 -1.5q-1 -5 -2.5 -10t-5.5 -8h-0.5
h-0.5q-2 0 -2 2v3z" />
</svg>
