<?xml version="1.0" standalone="no"?>
<!DOCTYPE svg PUBLIC "-//W3C//DTD SVG 1.1//EN" "http://www.w3.org/Graphics/SVG/1.1/DTD/svg11.dtd" >
<svg xmlns="http://www.w3.org/2000/svg" xmlns:xlink="http://www.w3.org/1999/xlink" version="1.1" viewBox="-10 0 266 256">
   <path fill="currentColor"
d="M141 246v3t2 2h1q4 -2 7 -8.5t5.5 -13.5t5 -13t4.5 -6q4 0 7 6t6 13.5t6 13.5t7 6q3 0 3.5 -1t0.5 -3q0 -1 -1 -3.5t-2 -4.5t-2 -4.5t-2 -3.5l-1.5 -2t-3 -4.5t-3 -4.5l-1.5 -2q-5 -10 -8 -21t-3 -23q0 -1 0.5 -2t3.5 -1h28q2 0 2 -2v-2v-2.5t-2 -1.5h-32v-12h5.5t8 -0.5
t8 -0.5t4.5 -1h4t1 -2v-2.5t-2 -1.5h-25q-2 0 -2 -2v-3q0 -2 0.5 -3t2.5 -2q1 0 4.5 -0.5t6.5 -0.5t6 -0.5t4 -0.5q3 0 4 -0.5t1 -2.5q0 -1 -0.5 -2.5t-2.5 -1.5h-24q0 -2 -0.5 -4t-0.5 -3q0 -2 1 -3t4 -1q2 0 4.5 1l5 2l5 2t5.5 1h4q2 -1 2 -2v-3t-4 -4t-9 -3t-9.5 -1h-6.5
q3 -2 6.5 -3.5t7 -3.5t6 -4t2.5 -4q0 -1 -0.5 -1.5t-0.5 -1t-0.5 -1l-1.5 -1.5q-5 -7 -9 -11.5t-13 -4.5q-4 0 -8 2t-7.5 4.5t-6 6.5t-2.5 8t3 7.5t6 5.5v2q-3 2 -6.5 5.5l-7.5 7.5t-6.5 8.5t-2.5 8.5l-4 74q-2 8 -3 12.5t-1 11.5v2v3l1.5 1.5t2.5 0.5q1 0 2 -0.5t2 -1.5
q0 -1 0.5 -4t0.5 -6v-6v-4v-2v-4v-4v-2q1 -4 1.5 -9.5t1 -10.5t0.5 -9v-4l4 -2h21v19.5t-3 18.5q-1 3 -4 8.5t-6.5 11.5t-5.5 11t-2 7zM139 202q0 2 1 2.5t2 0.5q3 0 5 -2.5t3.5 -6t2 -7t0.5 -5.5q0 -1 -0.5 -2t-1.5 -1h-1l-1 0.5l-1 0.5l-7 19q-1 0 -1.5 0.5zM183 177
q0 4 1.5 8t3.5 7t4.5 6.5t4.5 6.5l1 0.5l1 0.5q2 0 3 -1t1 -4t-2 -7t-5 -8t-6.5 -6.5t-6.5 -2.5zM56 180q0 1 0.5 3.5t1.5 4.5t3 3.5t4 1.5h47q3 0 5 -6.5t3 -14.5t1.5 -15.5t0.5 -9.5v-43q0 -4 -2.5 -4.5t-6 -0.5t-6.5 -1t-3 -5v-2.5t0.5 -2.5t1 -2.5t1.5 -1.5h22l0.5 -0.5
t0.5 -1.5v-1q0 -1 -4 -2t-10.5 -2t-14 -1h-14.5h-12.5h-6.5h-9q-3 1 -4 1.5t-1 2.5v2.5t2 1.5h24q2 0 2.5 3t0.5 4q0 4 -2 5.5t-5.5 2t-6.5 0.5h-6q-2 1 -3 3t-1.5 4.5l-1 5t-0.5 4.5v12t-0.5 19t-0.5 18.5v12.5v2zM74 182q0 -1 1 -2l2 -2l2 -2l1 -1q0 -1 1.5 -2t3.5 -2
t3.5 -2t2 -1.5t1.5 -0.5h1q2 0 4.5 1.5t4.5 3.5l4 4l3 3v1.5v0.5v2t-2 1h-32l-0.5 -0.5t-0.5 -1.5zM62 162q0 -3 2 -5.5t5 -4.5l6 -4t5 -5q2 -4 3.5 -10.5t2.5 -12.5t2 -10.5t4 -4.5q2 0 3.5 5.5t3 12.5t3.5 14t7 10q4 3 4 9q0 2 0.5 4t0 4.5t-1.5 4t-2 1.5q-2 0 -3.5 -2
t-3.5 -4t-5 -4t-6 -2q-4 0 -7 2.5t-6 6t-5.5 6t-6.5 2.5q-2 0 -3.5 -1.5t-1.5 -3.5v-4v-4zM139 156q0 -7 3.5 -8t9.5 -1h7q3 1 3 3.5v4.5v2v2.5t-0.5 2.5t-2.5 1h-17q-2 0 -2.5 -3t-0.5 -4zM62 141v-9.5t1.5 -12t4.5 -10t10 -4.5v0q1 0 1.5 0.5t0.5 1.5v2.5v2.5q0 3 -1 8.5
t-3 10.5t-4.5 9.5t-5.5 4.5q-2 0 -3.5 -0.5t-0.5 -3.5zM104 105q4 0 7.5 3t3.5 8v22q0 1 -1.5 2l-1.5 1q0 1 -1 1q-2 0 -3.5 -2.5t-2 -5l-1 -5t-0.5 -3.5v-4v-6.5v-6.5v-4zM159 129q2 0 3.5 1t1.5 4q0 1 -1.5 4t-3.5 3h-16q0 -7 4.5 -9.5t11.5 -2.5zM160 109q3 0 4 2.5
t1 4.5v1l-1 2.5t-2 2.5h-15q1 -1 2.5 -3.5t3 -4.5t3.5 -3.5t4 -1.5zM90 87q1 0 1.5 -0.5t1.5 -0.5q5 0 5 6q0 3 -2 4.5t-6 1.5v-11zM154 87q0 -3 2 -5t4.5 -3t5.5 -1.5t6 -0.5q2 0 4 1l4 2t3.5 2.5t1.5 3.5q0 3 -2.5 5.5t-5.5 2.5q-1 1 -3 1h-2v-8h-6q0 1 -1.5 3.5t-2.5 3.5
q0 1 -0.5 1.5l-0.5 0.5h-1q-3 0 -4.5 -3.5t-1.5 -5.5zM68 24v9.5t1 9.5q1 3 4.5 5t7.5 3t7 1t3 1v13h1t2 -1q5 -3 5 -5.5t0.5 -4.5t3.5 -3.5t13 -2.5q5 -4 5.5 -9.5t0.5 -11.5v-7l-1 -1l-2 -2v0q-3 0 -4 3t-2 7t-1 7v5q-3 2 -4.5 2.5t-4.5 0.5h-2t-1 -2v-2t0.5 -3.5t0.5 -3
v-2.5v-1v-2v-2.5t-0.5 -4.5t-0.5 -4.5v-3.5h-2h-1q-3 0 -4 0.5t-1 4.5v24q0 1 -0.5 1.5t-1.5 0.5h-4l-1.5 -0.5t-3.5 -0.5t-3.5 -0.5t-1.5 -1.5v-19l-1.5 -1t-2.5 -2v0h-1q-1 1 -2 1.5l-1 0.5v4zM148 49q3 2 4 2.5t2 0.5h2.5t4.5 1q2 1 2.5 3t0.5 3.5t0.5 3t2.5 1.5t2.5 -1
t0.5 -3t0.5 -3.5t2.5 -1.5l21 -5q2 0 3.5 -3.5t3 -7.5t2 -8t0.5 -5q-1 -3 -3 -4.5t-5 -1.5t-3.5 3t-1 7.5t-1 8.5t-4.5 5h-2.5t-3 -0.5t-3 -0.5h-2.5v-32q0 -1 -1 -1.5t-2 -0.5t-3 1t-2 2v32q0 2 -2.5 2h-2.5q-5 0 -7 -2.5t-2.5 -6t-0.5 -7.5v-7q0 -1 -1 -2t-2 -1t-2 0.5
t-1.5 1.5t-0.5 2.5v1.5q0 6 1.5 12t2.5 11z" />
</svg>
