<?xml version="1.0" standalone="no"?>
<!DOCTYPE svg PUBLIC "-//W3C//DTD SVG 1.1//EN" "http://www.w3.org/Graphics/SVG/1.1/DTD/svg11.dtd" >
<svg xmlns="http://www.w3.org/2000/svg" xmlns:xlink="http://www.w3.org/1999/xlink" version="1.1" viewBox="-10 0 266 256">
   <path fill="currentColor"
d="M124 245q0 2 1.5 3t3.5 1q3 0 6 -4t5 -9.5t2.5 -10.5t0.5 -8v-7q-2 -3 -5.5 -4.5t-6 -2.5t-4.5 -3t-2 -7v-2.5v-1.5l3 -4q4 1 9.5 1t11 -0.5t11 -1.5t8.5 -4q0 -1 1 -2.5t2 -2.5t2 -2.5l1 -1.5v-22l-2 -2.5t-3 -3.5q-3 -3 -7 -3.5t-7.5 -0.5t-6.5 -1t-3 -4v-1v-1
q1 0 5 -0.5t5 -0.5h4t4.5 -0.5t4.5 -1.5t2 -2l-1 -2h-3h-4q-19 0 -38.5 1t-38.5 2q-1 0 -1 1v1l0.5 1t1.5 1h27v6q-5 2 -10 3t-9 3.5t-6 6t-2 9.5q0 5 1 10t4 10l3.5 3.5l2.5 2.5h21l1 3v2.5v4.5v4v3l0.5 1l1 2l1 2l0.5 1v1v0q0 5 -3 9.5t-7 8.5t-7.5 8t-3.5 10q6 0 10 -4.5
t7.5 -10.5t6 -12t7.5 -9q4 2 5 4.5t1 6.5q0 6 -4 12.5t-10 10.5v1zM107 105q-4 1 -10.5 1.5t-13 2t-11 5t-6.5 8.5q-2 14 -3.5 27.5t-2 27.5t-1 27.5t-0.5 26.5v3v4v4v3q3 0 5 -2t2 -5q0 -2 0.5 -7.5t0.5 -12t0.5 -12t0.5 -7.5v-2q0 -2 0.5 -8t1 -12.5t1 -14.5t0.5 -15
t0.5 -12.5t0.5 -7.5q3 -7 4.5 -8.5t3 -2t4.5 -0.5t8 -2q3 0 9.5 -0.5t15 -1t17.5 -0.5t17 -0.5t14.5 -0.5t9.5 -1h1q3 0 4.5 3t2 6.5l1 7t0.5 4.5q0 2 0.5 8t1 13t1 13t0.5 7v2q0 1 0.5 7t1 13t1 13t0.5 8v2.5t-0.5 5t-0.5 4.5v2v6v7q0 1 1 1h3t3.5 -1.5t1.5 -4.5v-2
q0 -1 -0.5 -5.5t-1 -11t-1 -13.5t-1 -13t-1 -10.5t-0.5 -6.5q-1 -14 -1.5 -29t-1.5 -29q0 -1 -0.5 -3l-0.5 -2q-3 -3 -7.5 -5t-9 -2.5t-9.5 -0.5t-8 -1q0 -1 0.5 -5.5t0.5 -8.5q0 -5 -0.5 -9.5t-0.5 -5.5v-4t-0.5 -5.5t-1.5 -5t-3 -3.5q-4 -1 -10 -1h-9h-2h-3h-3.5h-1.5
q-5 1 -7.5 3.5t-3.5 5.5t-1 7v7q0 2 -0.5 5.5t-0.5 8t-0.5 8t-0.5 5.5zM78 233q0 4 4 4t6.5 -3.5t4 -8t2 -9t2.5 -7.5q2 -4 4 -6t2 -7q0 -3 -3 -3t-4.5 2.5t-3 6.5t-2 7.5t-1.5 5.5t-3 4.5t-3.5 4.5t-3 4.5t-1.5 4.5zM151 194v0q1 3 4 9.5t5.5 13.5t5 12.5t3.5 5.5h1
q3 0 3.5 -1t0.5 -3t-2.5 -8.5t-5.5 -13.5t-6.5 -12.5t-5.5 -5.5q-1 0 -2 0.5t-1 2.5zM134 168v0l8 7v5l-3.5 0.5t-5.5 0.5h-3.5h-5.5t-5.5 0.5t-3.5 0.5q0 -3 2 -5.5t5 -4.5t6 -3t6 -1zM93 172v-1q0 -1 1 -2q6 -1 10.5 -5t8 -8.5t7.5 -8t11 -3.5h3h3q3 2 4 4l2 4t2.5 4.5
t4.5 3.5q0 1 1 1.5t2.5 1.5t3 1.5t2.5 0.5l1.5 1t2.5 2l2 2t1 2q0 2 -1.5 2.5t-3.5 1t-3.5 1t-2.5 0.5q-3 0 -5.5 -2.5t-5 -4.5t-5.5 -4.5t-6 -2.5h-0.5h-0.5q-2 0 -5.5 1t-4.5 1q0 1 -3 3.5t-6.5 5t-7 4.5t-4.5 2q-3 0 -5.5 -2.5t-2.5 -5.5zM92 156q0 -3 2 -5t5 -3
t6.5 -1.5t5.5 -0.5q0 6 -4.5 10.5t-11.5 4.5q-2 0 -2.5 -1.5t-0.5 -3.5zM145 147q0 -1 1.5 -2.5t3.5 -1.5q7 0 12.5 3.5t5.5 11.5q0 2 -1.5 2.5t-3.5 0.5q-3 0 -6 -1t-6 -3t-4.5 -4.5t-1.5 -5.5zM122 135v-1q0 -1 0.5 -1.5t1.5 -0.5h14v3t-1 2l-0.5 0.5l-0.5 0.5h-11l-1 -1
t-2 -1v-1zM130 98v4t-2 3h-15v-4t0.5 -5.5l1 -5t1.5 -2.5h11q1 0 1.5 1.5l1 3t0.5 3.5v2zM137 103q0 -3 -0.5 -7t-0.5 -8h10q1 0 1.5 1.5t0.5 3.5v3v2q0 3 -1 5t-4 2h-3t-3 -2zM69 56v6v8.5t0.5 8.5t0.5 5v3v4t0.5 3.5l0.5 1.5l3 3h1.5t3.5 0.5t4 0.5h3h5h4.5t4.5 -3l-2 -2
h-18q-2 0 -2.5 -2t-0.5 -3t0.5 -2.5t1.5 -1.5h18v-5l-3 -0.5t-5 -0.5q-1 0 -3 -0.5t-4 -0.5t-4 -0.5t-3 -0.5v-1v-2q1 0 1.5 -1.5t0.5 -2.5h4q3 0 5 1t4 1t4.5 -1t2.5 -4l-1.5 -0.5l-1.5 -0.5q-1 -1 -3.5 -1t-5.5 -0.5t-6 -0.5h-4l-3 -9h-3zM166 96l-2 3h6h5q1 0 3 -0.5
t4 -0.5t3.5 -0.5l1.5 -0.5l3 -2q0 -1 0.5 -2.5t1 -4l1 -5t0.5 -3.5t0.5 -4t0.5 -4q0 -7 -0.5 -11.5t-1.5 -9.5l-1 -1h-1q-2 0 -3 1.5t-1.5 4t-0.5 4.5t-1 4q-1 0 -4.5 0.5t-4.5 0.5l-1 -0.5t-2.5 -0.5h-2.5h-1q-2 0 -4 2t-2 4h21l1.5 1.5t1.5 2.5l-0.5 2t-1.5 2
q0 1 -0.5 1.5l-0.5 0.5h-17q-1 0 -1.5 1t-0.5 2q0 2 1 2t4 1h15q1 0 1.5 1t0.5 2t-0.5 1.5t-2.5 1.5q-1 0 -3.5 0.5t-5 1.5t-5 1.5t-3.5 0.5zM116 80v-1.5v-0.5q0 -1 1 -2.5l1 -1.5h32q0 4 -2 6t-5 2.5t-6.5 0.5h-6.5h-3h-3h-3.5h-2.5q-2 -1 -2 -1.5v-1.5zM119 64
q0 -1 1.5 -2t4 -2t4.5 -1h4h3h5.5t4.5 1t2 2q0 2 -1.5 4t-3.5 2h-22q-1 0 -1.5 -1.5t-0.5 -2.5zM90 45v14l1.5 -0.5t2.5 -0.5q0 -1 0.5 -2l0.5 -1q1 -7 2.5 -10.5t3 -4.5t3 -0.5t3.5 0.5t3.5 -0.5t2.5 -3.5q0 -1 1 -2.5t1.5 -3.5t1.5 -4t1 -3v-1v0q0 -2 -1.5 -4t-3.5 -2
q-3 0 -3.5 3t-1 7t-1.5 7t-5 3h-1q-2 -2 -3.5 -4.5t-2 -5.5t-0.5 -5.5v-5.5q-2 -3 -5 -3v21q0 2 -2 3t-4 1q-4 0 -5.5 -2.5t-2 -5.5t-1.5 -6t-4 -5q-1 0 -2 0.5t-1 1.5v4q0 1 0.5 4.5t1.5 6.5t2 5.5t3 2.5h13zM139 21v2.5t0.5 3.5t0.5 3.5t1 2.5q0 1 2 4t3 3h14q2 0 2.5 2
t1.5 4.5t1.5 5t2.5 3.5l2 -2v-12l3 -1t6.5 -2.5t6.5 -3t4 -1.5q1 -1 1 -2.5t0.5 -3.5t0.5 -4v-3v-3t-0.5 -3.5t-1 -2.5t-2.5 -1l-0.5 0.5l-0.5 0.5l-3 16l-1.5 2t-2.5 2h-2q-2 0 -4.5 -1t-3.5 -3l-2 -15l-0.5 -0.5t-1.5 -0.5h-1h-1l-0.5 0.5l-0.5 0.5v18q0 1 -1 2.5t-2.5 2
t-3.5 1t-3 0.5q-3 0 -5 -2t-3 -4.5t-1.5 -5.5t-0.5 -6v0h-1q-3 0 -3 3z" />
</svg>
