<?xml version="1.0" standalone="no"?>
<!DOCTYPE svg PUBLIC "-//W3C//DTD SVG 1.1//EN" "http://www.w3.org/Graphics/SVG/1.1/DTD/svg11.dtd" >
<svg xmlns="http://www.w3.org/2000/svg" xmlns:xlink="http://www.w3.org/1999/xlink" version="1.1" viewBox="-10 0 266 256">
   <path fill="currentColor"
d="M50 247q0 2 2 3t4 1t3.5 -0.5t2.5 -2.5v-13v-20v-24v-23v-21v-13v-16t2.5 -13.5t7.5 -9t16 -3.5q4 0 4.5 3t1.5 6.5t4.5 7t12.5 4.5q1 0 3 0.5t5 0.5t6 0.5t4 0.5h1h1q2 0 8.5 -0.5t14 -1t13.5 -1t9 -0.5q3 -2 3 -6h-66q-5 0 -8.5 -2t-3.5 -7v-3.5t1 -2.5q2 -1 6 -1.5
t5 -0.5h11.5t17.5 -0.5t17.5 -0.5h11.5q1 0 3.5 -0.5t2.5 -1.5v-0.5v-1.5q0 -2 -1 -3t-3 -1q-18 0 -36 1t-36 1v-15l1 -2h4.5t8 -0.5t7.5 -0.5h1q14 0 30.5 1t31.5 3q3 3 5 9.5t3 14t1 15v11.5q0 6 -1 11t-1 10q0 27 2 53t1 53q0 2 1.5 2.5t2.5 0.5q3 0 5 -2.5t2 -6.5v0
q0 -1 -0.5 -3l-1 -4t-1.5 -4t-1 -3v-5v-9v-10v-7v-6l-1 -94q0 -1 -0.5 -4t-0.5 -4l-0.5 -2t-0.5 -4.5t-0.5 -4.5l-0.5 -2q-1 -8 -8 -11.5t-16 -4t-17.5 0t-13.5 0.5t-11.5 -0.5t-13 -0.5t-11.5 -0.5l-5 -0.5l-1 -3v-7q0 -4 0.5 -9t2 -9t5 -7t9.5 -3l3 0.5t4 0.5q1 1 2.5 2
l1.5 1v16q0 1 1 2t2.5 1.5t2.5 1t2 0.5h61l1.5 -1t1.5 -2v-1q0 -1 -1.5 -2.5t-3 -2t-3.5 -0.5h-2l-48 3q-3 0 -4.5 -1t-2 -2.5t-1 -4t-0.5 -3.5v-3.5t2 -3.5q14 -3 28.5 -3.5t29.5 0.5q3 1 5 0t2 -4t-3 -3h-6h-2h-22t-22.5 0.5t-23 1.5t-22.5 2q-2 1 -4 3t-2 5q0 1 -0.5 4
t-0.5 6.5t-0.5 7t-0.5 4.5q0 4 0.5 7t-1.5 6q-1 0 -3 0.5t-3 0.5q-9 0 -12.5 -5t-4.5 -12t-0.5 -14.5t-0.5 -13.5q0 -1 -1.5 -2t-2.5 -1q-2 0 -3.5 1.5t-1.5 2.5v4v4.5v5.5v3q0 13 0.5 19.5t4 10t10.5 4.5t19 1v15l-2 3l-26 6q-3 1 -5 3t-3.5 4.5t-2 5.5t-1.5 5q0 2 -0.5 7
t-0.5 10.5v10.5v7v6v12v14v15v12v6q0 2 -0.5 7.5t-0.5 11.5t-0.5 11.5t-0.5 7.5v2zM89 248l1 0.5t2 0.5q2 0 3.5 -1.5t2.5 -3t1.5 -4t0.5 -3.5v-54q0 -1 3.5 -2.5t8 -3.5t9 -4.5t5.5 -7.5q2 -5 2 -12v-11v-15l-2 -2l-1 -1l-0.5 -0.5l-0.5 -0.5l-0.5 0.5l-0.5 0.5l-1 0.5
t-2 0.5q0 1 -0.5 4.5t-0.5 4.5l-0.5 1l-0.5 1l-44 3q-2 0 -2.5 0.5t-0.5 2.5v2.5t2 1.5h16l3 3v24q0 1 -3.5 1.5t-8 0.5t-8 1t-3.5 4q0 1 0.5 2.5t2.5 1.5q5 0 9.5 -1t8.5 -1q0 14 -0.5 27t-0.5 26v3v3v4v3zM162 134q-10 0 -17 5t-7 16v91q2 0 5 -0.5t4 -3.5v-3v-5v-4v-3
q0 -11 -0.5 -21t-0.5 -20q0 -6 -0.5 -13.5t0.5 -14.5t5 -12t12 -5q6 0 8.5 4.5t2.5 9.5q0 1 0.5 4.5t0.5 7.5t0.5 8t0.5 6v3v8v9v6v6v8v8v5q-1 2 -1.5 3.5t-0.5 3.5q0 4 5 4q2 0 3.5 -2t2.5 -4v-2.5v-3.5v-4v-2v-3v-4v-3.5v-1.5q0 -1 -0.5 -6t-0.5 -11t-0.5 -11t-0.5 -6v-16
t-1.5 -15t-6 -11.5t-13.5 -4.5zM99 159q0 -9 3.5 -12.5t12.5 -3.5q4 0 4 3v5q0 4 -0.5 7.5t-2.5 6.5t-5 5t-8 2q-2 0 -2.5 -1.5t-1 -4t-0.5 -4.5v-3z" />
</svg>
