<?xml version="1.0" standalone="no"?>
<!DOCTYPE svg PUBLIC "-//W3C//DTD SVG 1.1//EN" "http://www.w3.org/Graphics/SVG/1.1/DTD/svg11.dtd" >
<svg xmlns="http://www.w3.org/2000/svg" xmlns:xlink="http://www.w3.org/1999/xlink" version="1.1" viewBox="-10 0 266 256">
   <path fill="currentColor"
d="M164 176q1 2 2 8t2 14t3 17.5t4 17.5t4.5 13t4.5 5q3 0 4 -2t1 -4v-2v-1l-6 -18t-5 -18.5t-3 -18.5t0 -18l-1 -4v-28q0 -2 -2.5 -3.5t-4.5 -2.5l-3 6v39zM120 206q3 0 4.5 2t2.5 4l4 8t3.5 7.5t4 7t5.5 8.5q2 2 3 2.5t3 0.5h2.5t1.5 -3q-1 -5 -4 -8.5t-6 -7.5
q0 -1 -1.5 -4t-3.5 -6t-3.5 -6t-1.5 -4v-2q0 -4 2 -4.5t5 -2t5.5 -5.5t2.5 -14q0 -5 -0.5 -9t-5.5 -6q-1 1 -1.5 5t-0.5 9q0 4 -0.5 8t-2.5 4h-12q-1 -5 -3 -8.5t-2 -7.5t3.5 -6.5t7.5 -5t7.5 -5t3.5 -6.5v-17q0 -1 -1.5 -1h-1.5q-3 0 -4 3.5t-2.5 8t-4.5 8.5t-9 4
q-3 0 -3.5 -4t-1.5 -9t-3 -9.5t-7 -4.5q0 17 4 32.5t9 29.5v1q0 3 -4.5 6.5t-10 8.5t-10 12.5t-4.5 17.5v3t2 2h1l0.5 -0.5l0.5 -0.5q2 -3 5 -9t6.5 -12t7.5 -10.5t8 -4.5zM69 235v3t2 1t4 -1.5t3 -3.5l2 -4t1 -3t1 -3.5t1.5 -5.5t1.5 -5.5t1 -3.5t0.5 -4t1 -6.5t1 -6.5
t0.5 -4t0.5 -2.5t1 -4t1 -4.5l0.5 -2q0 -2 0.5 -5.5t0.5 -7.5v-7.5v-5.5v-2.5v-3.5t-0.5 -3.5t-0.5 -2.5q-1 -1 -1.5 -1h-1.5h-3t-2 1v23q-3 6 -3 13t-1 14q-1 6 -3 12l-4 12t-3 12t-1 12zM190 164q0 2 1 2.5t3 0.5t4 -2t2 -4q0 -17 -0.5 -34.5t-2.5 -33.5q-1 -5 -1.5 -11
t-3.5 -10q-3 -6 -10 -8t-14 -2t-14.5 0.5t-12.5 0.5l-2 -0.5l-4 -1l-4 -1l-2 -0.5q0 -1 -1 -1h-1q-4 0 -7 1t-7 1t-6.5 -0.5t-6.5 -2.5v-3v-3v-6.5t0.5 -5t1 -5.5t1.5 -7q4 -3 9.5 -4t10.5 -1q4 0 6 2t3 5t0.5 6.5t-0.5 6.5q1 3 5 4.5t8.5 2t9 0t7.5 -0.5t7.5 0.5t9.5 0
t8 -2t3 -6.5q0 -3 -1.5 -3.5t-4.5 -0.5q-8 0 -15 1t-14 1h-6h-5l-1 -2v-13h51q2 0 2.5 -1t0.5 -3t-1 -3.5t-4 -3.5h-7h-10h-10h-7h-13.5h-12t-11 0.5t-12.5 1.5q-1 0 -3.5 0.5l-2.5 0.5q-5 3 -7 9.5t-2.5 13t-1.5 11.5t-5 5q-1 0 -3 -0.5t-3.5 -1t-3 -1.5l-1.5 -1v-36
q0 -2 -1.5 -2.5t-3.5 -0.5h-2.5t-1.5 3v5.5t-0.5 9.5t-0.5 9.5v6.5v3q0 5 3.5 8.5t8 6t8 5t3.5 5.5v2q0 1 -0.5 4.5t-0.5 4.5q-1 0 -2 0.5t-2 1.5h-2t-4.5 0.5t-4.5 1t-3 0.5q-3 2 -5 5.5t-3 7.5t-1 7v7l-1 2l-0.5 3t-0.5 7t-0.5 8t-0.5 7v5v3t0.5 4.5t1.5 4t3 1.5
q2 1 3.5 -1.5t2.5 -5t1 -5v-3.5q1 -2 1.5 -9l1 -14t1.5 -14t1 -9q1 -3 3.5 -3h4.5h2h3q1 2 1.5 5.5t1.5 6t3 5t6 2.5q12 2 22.5 3t21.5 2h3.5t4.5 0.5t4.5 0.5h2.5q3 -1 3.5 -1.5t0.5 -2.5q0 -3 -2 -4t-7.5 -1.5t-11.5 -1t-11.5 -1t-7.5 -0.5q-1 0 -3.5 -0.5t-3.5 -0.5h-2
h-4h-4h-2q-4 -1 -5 -3.5t-1 -5.5v-2.5v-2.5l0.5 -0.5t1.5 -0.5h74q0 -2 -1 -5t-4 -3h-63q-3 0 -5.5 -2.5t-2.5 -5.5q0 -2 0.5 -3.5t2.5 -2.5q2 0 6 -0.5t9 -1t9 -0.5h6v0h1h8t12.5 0.5t12.5 1t9 0.5q6 0 9 4.5t4 10.5q2 19 3 38t0 39z" />
</svg>
