<?xml version="1.0" standalone="no"?>
<!DOCTYPE svg PUBLIC "-//W3C//DTD SVG 1.1//EN" "http://www.w3.org/Graphics/SVG/1.1/DTD/svg11.dtd" >
<svg xmlns="http://www.w3.org/2000/svg" xmlns:xlink="http://www.w3.org/1999/xlink" version="1.1" viewBox="-10 0 266 256">
   <path fill="currentColor"
d="M173 173q0 2 1 6.5t2 9.5t2 9.5t1 6.5l1.5 4l3 8t3 8.5l2.5 7.5q0 2 1 5t2.5 5.5t3.5 4.5t5 2q2 0 2.5 -1.5t0.5 -3.5q0 -4 -1.5 -6.5t-2.5 -5.5q-3 -9 -6.5 -18.5t-6.5 -19.5q-5 -17 -8 -36t-3 -37v-4v-4l0.5 -1.5t1.5 -1.5l22 -3q1 0 1 -1.5v-2.5v-2.5t-1 -1.5h-6
q-4 0 -7 1t-7 1q-3 0 -4 -2t-1 -4q0 -1 0.5 -7t1 -12.5t2 -11.5t2.5 -6h4t4 -0.5t3.5 -1.5t2.5 -4q1 -1 -0.5 -2.5t-3.5 -2l-4 -1t-3 -0.5h-3q-2 0 -5.5 1t-8 2t-8 2t-5.5 1q-2 2 -6 4.5t-6 5.5q0 1 -0.5 5l-1 8l-1 8t-1.5 5v14v14q0 1 0.5 2.5t1 3.5t0.5 3.5v1.5
q1 10 1.5 16.5t3.5 11.5t8.5 8t16.5 5l2 2t1 2zM63 193q0 5 4 9t7 8h8q8 0 12 -3t6 -8t3 -11t3 -13q1 -4 3 -6.5t2 -6.5q0 -1 -0.5 -2t-2.5 -1v0q-1 1 -2 1.5t-2 0.5q-1 4 -2 10.5t-3 13t-5 11t-10 4.5q-5 0 -8 -2.5t-3 -8.5q0 -7 4 -13.5t8.5 -12t8.5 -12t4 -13.5v-6.5
t-1.5 -5t-3.5 -4t-6 -1.5q-3 0 -5.5 2t-4.5 4t-4.5 4t-5.5 2q-2 0 -3.5 -1.5t-2.5 -3t-1.5 -4t-0.5 -3.5q0 -5 3.5 -11.5t8.5 -12.5t10.5 -10t10.5 -4t10.5 4t10.5 9.5t8.5 12t3.5 11.5v0q0 1 -0.5 3t-0.5 4t-0.5 3.5t-0.5 2.5t-1.5 1.5t-2.5 0.5q-6 0 -8.5 -6t-4 -12.5
t-2.5 -12t-4 -5.5q-1 0 -1.5 0.5l-0.5 0.5v1v1q0 2 1 6t2 8.5l2 9t1 5.5q2 5 6 9t9 4q4 0 6.5 -2t3.5 -5.5t1.5 -7t0.5 -6.5q0 -9 -2 -15.5t-5.5 -11.5t-9.5 -9t-13 -9l-1 -1l-2 -2q-3 -4 -4 -10t-4 -10q-1 -2 -3 -4.5t-4 -5.5t-3.5 -6t-1.5 -6v-4.5t-0.5 -7.5t-2 -7
t-4.5 -3t-3.5 0.5t-0.5 4.5q0 8 1 16t5 15q1 3 3.5 5.5t4.5 5.5t3.5 5.5t1.5 6.5q0 5 -3 7.5t-7 5t-7.5 4.5t-6.5 5q-5 8 -8 16.5t-3 17.5q0 7 4 11t11 4q3 0 5.5 -0.5t4.5 -2l4 -3l6 -4.5h1h1q2 0 3 1.5t1 3.5q0 7 -4.5 14t-10 13.5t-10 14t-4.5 15.5zM146 119q0 -2 1.5 -4
t4 -3t5 -1h5.5t4.5 5t2.5 11.5t1 12.5v9v3.5v3t-1 3t-3 1.5q-8 0 -12 -4.5t-5.5 -10.5t-2 -13t-0.5 -13zM146 103v-6q0 -4 0.5 -10.5t2 -12t5 -9.5t10.5 -4q4 0 5 2.5t1 5.5q0 8 -1 17t-2 17q-3 2 -6 2h-5h-5t-5 -2z" />
</svg>
