<?xml version="1.0" standalone="no"?>
<!DOCTYPE svg PUBLIC "-//W3C//DTD SVG 1.1//EN" "http://www.w3.org/Graphics/SVG/1.1/DTD/svg11.dtd" >
<svg xmlns="http://www.w3.org/2000/svg" xmlns:xlink="http://www.w3.org/1999/xlink" version="1.1" viewBox="-10 0 266 256">
   <path fill="currentColor"
d="M172 165q2 0 4 6.5t5 16t5.5 20.5t5.5 20.5t5.5 15.5t4.5 6q4 0 4.5 -3t0.5 -6q0 -5 -2 -12.5t-4.5 -16t-5.5 -16l-5 -12.5q-2 -4 -4.5 -8.5t-2.5 -9.5q0 -4 3 -5.5t6.5 -3.5t6.5 -4.5t3 -6.5v-21l-0.5 -1.5l-0.5 -1.5q-4 -4 -8 -5.5t-8 -2t-8 -0.5t-6.5 -1.5t-4.5 -5
t-2 -10.5v-4v-3l2 -2h10.5t10.5 -1t9 -4t6 -9v-4.5v-6.5v-7v-4t0.5 -3t0.5 -4t0.5 -3.5t0.5 -2.5v-1q0 -1 -0.5 -3t-1.5 -4t-2 -3.5t-3 -1.5h-1q-1 0 -2.5 0.5t-1.5 1.5v22h-25v-37q0 -1 -2 -1.5l-2 -0.5q-2 0 -4 0.5t-1 3.5v3.5v5.5v5v4t-0.5 4.5l-1 7t-1.5 6.5t-2 3h-25
q-2 0 -2.5 1.5t-0.5 3.5v2.5t3 1.5q6 -1 11.5 -1.5t11.5 -0.5q3 0 5 1.5t2 5.5q0 8 -2 11.5t-5.5 5t-7.5 1.5t-7.5 0.5t-5.5 1.5t-2 6q6 0 11.5 -1.5t11.5 -1.5h3t2 2q0 1 0.5 4l0.5 3q0 4 -0.5 7.5t-4.5 4.5q-1 1 -3.5 1.5t-5.5 1t-5.5 1t-3.5 0.5v1q0 3 1.5 3.5t2.5 0.5h2
q2 0 2 -1h3t4.5 -0.5t4.5 -0.5h2h1h1h5t8 0.5t7.5 0.5h4.5q5 2 7.5 6.5t2.5 9.5q0 2 -0.5 5t-2 5.5t-3.5 4.5t-5 2l-1 -0.5l-1 -0.5q-4 -4 -8 -7t-8.5 -4t-9.5 -1.5t-11 -0.5h-4.5t-5 0.5t-4 1.5t-1.5 3v2.5t1 1.5h30q4 0 7 2.5t3 6.5q0 1 -1.5 2.5t-3 2t-3.5 1t-3 1.5
l-41 8v1v2t1 1h9q6 0 12.5 -1.5t13 -4t12 -4t7.5 -1.5zM66 174q0 7 3.5 10.5t9.5 3.5t10 -3t6.5 -8t4 -10.5t3.5 -10.5q0 -3 1.5 -5t3 -3.5t2.5 -4t1 -4.5q-5 0 -8.5 3t-5.5 7.5t-3 10t-2.5 10t-4.5 7.5t-7 3q-6 0 -6 -6q0 -5 3.5 -12t7.5 -13t7.5 -11.5t3.5 -8.5
q0 -4 -0.5 -8t-2.5 -7t-5 -4.5t-8 -1.5q-6 0 -8 4t-3 9.5t-2 9.5t-5 4q-3 0 -4.5 -2t-2 -4.5t-0.5 -4.5v-4q0 -7 1.5 -12.5t4.5 -9t8 -6.5t11 -5l4.5 -1.5t2.5 -1t2 -0.5h3h3l1.5 1.5l1.5 1.5q3 1 6.5 2.5t6 3.5t4.5 5t2 7q0 3 -1 5.5t-4 2.5q-4 0 -5.5 -3t-2.5 -6.5t-3 -6
t-6 -2.5q0 3 1 7.5t3 8t5 6t7 2.5q7 0 10.5 -3.5t3.5 -10.5t-3.5 -11.5t-8.5 -7t-9.5 -4.5t-5.5 -5l-0.5 -1.5l-1 -3l-1 -3l-0.5 -1.5q-5 -7 -9 -12.5t-7 -11t-5 -11.5t-1 -15q-1 0 -3 -2t-2 -3h-1q-2 0 -3 1.5t-1.5 4t-0.5 4.5v3q0 9 3.5 15.5t8 12t8 10.5t3.5 10
q0 3 -2.5 4.5t-6 2.5t-7 1.5t-4.5 1.5q-10 6 -13 14.5t-3 19.5v8t1 8t3.5 6.5t6.5 2.5q8 0 11 -4.5t4.5 -10t2.5 -10t4 -4.5q2 0 3.5 1.5t2 4l1 5t0.5 4.5q0 3 -3.5 8.5t-8 11.5t-8 13t-3.5 12zM69 127q2 0 2 2q0 1 -2 1q-1 0 -1 -1q0 -2 1 -2zM166 70q0 -1 -0.5 -3t0 -4
t1.5 -3.5t3 -1.5h21q2 0 2 1.5v2.5q0 11 -5 14.5t-15 3.5h-6q-2 -1 -1.5 -4.5t0.5 -5.5z" />
</svg>
