<?xml version="1.0" standalone="no"?>
<!DOCTYPE svg PUBLIC "-//W3C//DTD SVG 1.1//EN" "http://www.w3.org/Graphics/SVG/1.1/DTD/svg11.dtd" >
<svg xmlns="http://www.w3.org/2000/svg" xmlns:xlink="http://www.w3.org/1999/xlink" version="1.1" viewBox="-10 0 266 256">
   <path fill="currentColor"
d="M165 197q0 5 2 14t5.5 18t8.5 15.5t10 6.5q4 0 4 -5q0 -3 -3 -6t-5 -6q-5 -9 -9 -18.5t-4 -19.5q0 -8 2.5 -14t6 -11t6.5 -10.5t3 -11.5t-2 -9.5t-4.5 -5.5t-5.5 -3.5l-6 -3t-4.5 -4.5t-1.5 -8v-6q3 -4 8 -4.5l10 -1t9.5 -3t5.5 -10.5q1 -10 2 -17.5t1 -16.5
q0 -6 -2.5 -9.5t-6.5 -5t-8.5 -2t-9.5 -0.5h-8l-0.5 1t-0.5 2q0 2 3.5 3t8.5 1.5t9 1.5t4 3q1 1 0.5 4t-0.5 4h-21q-2 0 -2.5 1.5t-0.5 2.5v1.5t2 1.5h22v12l-3 3h-20q0 4 3 5t7 1.5t7 1t3 4.5q0 3 -3.5 4.5t-8 2.5t-9 1.5t-6.5 0.5t-6 -1l-8 -2t-7 -3.5t-3 -6.5v-0.5v-0.5
q1 0 1.5 -1l0.5 -1h19q1 0 1.5 -1l0.5 -1q0 -2 -1.5 -3.5t-3.5 -1.5h-18q-2 0 -2.5 -2.5t-0.5 -3.5v-3t2 -3l19 -3l0.5 -0.5t1.5 -0.5v-1v-1l-2 -1q-1 0 -4 0.5t-6 0.5t-5.5 -1.5t-2.5 -4.5q0 -4 3 -5t6.5 -2t6 -2t2.5 -4t-3 -3t-7.5 0.5t-8.5 2.5t-6.5 5.5t-2.5 7.5v35l1 2
t2 2q3 5 8 6.5t9.5 3t8 3.5t3.5 7t-3 9t-6.5 8.5t-7 8t-5.5 7.5q-3 5 -4 10t-1.5 10.5t-1.5 10.5t-3 9v55l1 0.5t2 0.5v0q2 0 3.5 -1t2.5 -3q-1 -10 -1 -19v-17.5t1 -16.5t3 -18q0 -4 2 -10t5 -12t7 -10t10 -4q3 0 6 1.5t5 3.5t4 5t2 6q0 7 -3 12.5t-6 11.5t-5.5 12t-2.5 13
zM58 169q0 5 4 9.5t9 4.5q8 0 13 -2t9 -6.5t6 -10t4 -13.5l12 -12q0 -1 -1.5 -1h-2.5q-5 0 -8 3t-5.5 7t-4.5 9.5t-4 9.5t-5.5 7t-7.5 3h-1h-1l-7 -7v-0.5v-0.5q0 -8 4 -13.5t9.5 -10.5t9.5 -11t4 -15v-7t-0.5 -7t-2.5 -4.5t-7 -1.5q-4 0 -6 2.5t-3.5 5t-3.5 5t-6 2.5
q-5 0 -5.5 -4t-0.5 -7q0 -5 3 -10.5t7 -10t9.5 -7.5t11.5 -3q4 0 9.5 2.5t10 7t7.5 9.5t3 10q0 1 -0.5 3.5l-1 5t-2 4.5t-3.5 2q-5 0 -6.5 -4.5t-2.5 -9.5t-2 -9.5t-3 -5.5l-2 1v2.5v2.5q0 4 0.5 9t2.5 10t5.5 8t8.5 3q3 0 5.5 -2t4 -5t2 -6.5t0.5 -6.5q0 -9 -2.5 -15
t-6 -10t-8 -6t-8.5 -3.5t-6.5 -3.5t-3.5 -5v-2.5t-0.5 -3t-0.5 -3v-2.5q-1 -4 -4 -7l-6 -6t-5 -6.5t-2 -8.5v0q0 -1 0.5 -2l1 -2t1 -2.5l0.5 -1.5v-1q0 -1 -1 -2t-2.5 -1.5t-3 -0.5h-2.5v25q0 3 2.5 6t6 6t6 7t2.5 9q0 3 -2.5 5t-6 4.5t-8 5.5t-7.5 7t-5.5 9t-2.5 13
q0 7 3 12.5t11 5.5q4 0 6 -2.5t4 -6t4 -6t5 -2.5q2 0 3 0.5t2 2.5v6q0 7 -3 12.5t-6.5 10t-8.5 8.5l-10 8q0 3 -2 7t-2 8z" />
</svg>
