<?xml version="1.0" standalone="no"?>
<!DOCTYPE svg PUBLIC "-//W3C//DTD SVG 1.1//EN" "http://www.w3.org/Graphics/SVG/1.1/DTD/svg11.dtd" >
<svg xmlns="http://www.w3.org/2000/svg" xmlns:xlink="http://www.w3.org/1999/xlink" version="1.1" viewBox="-10 0 266 256">
   <path fill="currentColor"
d="M156 9q-4 9 -4 22q0 6 0.5 11.5t0.5 10.5v13q-1 1 -2.5 1.5t-3.5 1t-4.5 1t-4.5 0.5q0 3 0.5 4t2 1.5l3 1t3.5 0.5q3 1 5 1h5h11q11 -1 19 6q2 3 3 7.5t1 8.5t-2 8t-5 7q-2 -5 -3.5 -10t-5.5 -9q-8 -2 -16.5 -3t-17.5 2q-3 7 10 7q12 0 18 3l5 13q0 1 -2 2.5t-6 1.5h-1
h-7h-8q-9 0 -14 4q0 7 12 7q6 0 11 -0.5t7 -1.5l9 -2l3 26l6 62q1 7 1.5 13t1.5 13q8 1 8 -10q0 -12 -1 -17l-6 -64l-2 -26l8 -7q5 -15 6 -26q1 -14 -15 -21l-22 -6v-16q2 -1 16 1q6 1 11 0t9 -3q3 -7 -9 -7q-7 -1 -11.5 -0.5t-7.5 0.5l-8 -1q-2 -5 0 -18q2 -12 -7 -13z
M94 11q-5 5 -4 13t-1 11l-11 2q-5 4 -9 6.5t-8 6.5q-2 3 -3 5.5t2 5.5q4 0 8 -3.5t6 -7.5l16 -5v18l-13 3l-17 16l-2 8q5 3 11 -2q3 -3 4.5 -5t3.5 -5q12 -6 21.5 -3.5t18.5 12.5l-5 2q-2 7 -2 15q0 9 2 16q8 3 9 -8v-10q0 -4 -1 -7l-1 -7h1.5h1.5h1.5t2.5 -1
q-2 -10 -10 -15q-5 -4 -9 -6t-8 -3v-18q9 0 15 5t11 11q2 2 3.5 1.5t3.5 -2.5q0 -9 -8 -15q-5 -3 -9 -5t-8 -3l-8 -1q-2 -3 0 -13q1 -10 -5 -12zM91 81q-3 5 -4 16q-1 5 -1.5 9t-0.5 8q-1 3 -3 6t-4.5 6.5t-5.5 6t-5 4.5q-2 3 -2 4q0 2 3 4q7 0 14 -9q3 -4 6 -7.5t5 -7.5
q3 6 6.5 11t6.5 10q5 3 8 -1q0 -3 -6 -14q-3 -4 -4.5 -7.5t-3.5 -6.5q0 -4 -0.5 -8t-1.5 -10q-1 -13 -7 -14zM74 90q-2 6 -5 17q-4 11 -2 16q3 1 4.5 -0.5t4.5 -3.5q1 -3 2 -7t2 -10q2 -10 -6 -12zM97 144l-7 3q-4 7 2 7h6h5l10 3q-9 3 -16.5 6.5t-14.5 10.5q-5 7 -8 16
q-2 9 5 16q8 4 16.5 2.5t15.5 -7.5q4 -4 10 -3q1 6 -7 13q-4 3 -7 6l-5 5q-2 4 -2.5 7.5t0 6t2 5.5l3.5 7q17 6 27 -8q4 -6 8.5 -12t9.5 -11l17 -9q0 -3 -2 -5q-17 1 -25 12q-8 12 -19 22q-3 2 -6 3t-6 -2q-3 -9 5 -15q4 -4 7.5 -7t6.5 -6q4 -7 3 -16q-2 -9 -14 -8
q-8 3 -16 10q-10 7 -18 1q1 -8 5 -13t10 -10q7 -5 16 -6.5t17.5 0t16.5 5t15 9.5v6q-4 1 -7.5 0t-7 -2.5t-6.5 -4t-6 -4.5q-1 -1 -1.5 -1h-0.5q-2 0 -4 1q1 4 3 7.5t6 7.5q8 5 16.5 6t15.5 -5q4 -13 -6 -23q-11 -9 -24 -11l-13 -2l-9 -8z" />
</svg>
