<?xml version="1.0" standalone="no"?>
<!DOCTYPE svg PUBLIC "-//W3C//DTD SVG 1.1//EN" "http://www.w3.org/Graphics/SVG/1.1/DTD/svg11.dtd" >
<svg xmlns="http://www.w3.org/2000/svg" xmlns:xlink="http://www.w3.org/1999/xlink" version="1.1" viewBox="-10 0 266 256">
   <path fill="currentColor"
d="M151 141v0q1 1 2.5 2l1.5 1v105q0 2 2 2h2q6 0 6 -7q0 -23 -1.5 -47t-1.5 -47q0 -2 1 -6t4 -4q2 -1 4 2.5t2.5 8t1 8.5t0.5 5q0 12 -1 23.5t-1 23.5q0 2 1.5 2.5t2.5 0.5q5 0 7 -3v-14v-13q0 -2 -0.5 -7t-0.5 -11t-0.5 -11.5t-0.5 -7.5q-2 -5 -5 -8t-6 -5.5t-5 -5
t-2 -7.5v-2v-2.5t0.5 -2.5t2.5 0l17 1q1 0 2 2t1.5 4t1 4.5t1.5 3.5q-1 10 -0.5 20.5t1.5 21.5l1.5 0.5l1.5 0.5q3 0 4.5 -2t1.5 -4q0 -1 0.5 -3t0.5 -5v-4v-3q0 -4 -0.5 -11t-1.5 -14.5t-4.5 -13.5t-9.5 -6h-2h-4h-4h-2q-2 -1 -5 -2t-4 -3v-3v-2q0 -4 0.5 -5.5t1.5 -2.5
t2.5 -2t3 -3.5t2 -6l1 -7t0.5 -7t-1 -6.5q1 -1 2 -1h2q3 0 4.5 2.5t2 6.5t1 8.5t1.5 8.5t4 6.5t9 2.5h3t2 -2v-0.5v-0.5q-6 -7 -9 -12.5t-3 -14.5q0 -3 2 -4.5t5.5 -2t6.5 0t6 -0.5v-1v-1q0 -3 -2 -4.5t-5 -1.5h-5.5h-4.5t-2.5 -2.5t-0.5 -4.5q0 -3 -0.5 -5t-2.5 -3
q-3 -1 -3.5 1.5t-1 6t-1.5 6.5t-5 3t-4.5 -3t0 -7t0 -7t-5.5 -3h-1h-1q0 1 -0.5 3.5t-0.5 5.5t-0.5 5.5t-0.5 3.5q0 3 -0.5 3.5t-2.5 0.5q-3 0 -4.5 -0.5l-4.5 -1.5v-3v-4v-4v-3t-1 -3.5t-3 -2.5q-3 0 -4.5 3t-1.5 7t-0.5 7.5t-1.5 5.5q-3 -1 -3.5 -4t-1 -7t-1 -6.5
t-4.5 -2.5q-1 0 -1.5 0.5t-0.5 2.5q0 1 -0.5 3t-0.5 4t0.5 4t0.5 3q-1 0 -2 0.5t-2 0.5q-1 1 -3.5 1.5t-6 1t-6.5 1t-4 0.5v1v2q0 2 1 3t4 1t5.5 -1.5t6.5 -1.5q2 0 3 0.5t2 2.5v3.5v3.5v4v3q0 1 -1 3t-2.5 4t-2.5 3.5t-2 2.5v1q0 1 0.5 2t2.5 1v0q4 -2 6.5 -8t4.5 -11.5
t3.5 -10t2.5 -4.5t2 0.5t1 1.5t0.5 3.5t0.5 5t0.5 5t0.5 3.5v2v2q1 4 3.5 5t4.5 2t3 3t1 7v3.5v2.5q-2 3 -5 4l-2.5 0.5l-5 1t-4.5 1t-3 0.5q-5 1 -8 7.5t-4.5 15t-2 16t-0.5 12.5v4l3 4q2 -2 3.5 -5.5t2 -7.5t0.5 -8v-6q0 -1 1 -4t1.5 -6l1 -6t1.5 -4q2 -4 6.5 -5t9.5 -1
h2.5h1.5l1 3l-1 14q-1 1 -2.5 1.5t-3.5 1t-4 0.5t-3 2q-3 4 -4 8.5t-1.5 9.5t-0.5 10v10v5t-0.5 9t-0.5 9v5v4v3.5t2 1.5h0.5h0.5l1 -1l2 -2q0 -13 1 -27.5t2 -28.5v-3t1 -4t2 -3.5t4 -1.5zM52 180q0 9 4.5 13.5t13.5 4.5q8 0 12.5 -4.5t7 -11t4 -13.5t4.5 -12l2 -4
t2.5 -3.5t2.5 -3.5t1 -4q-6 0 -10 4t-6 9.5t-3.5 11.5t-3.5 10q-3 4 -5 6l-6 6h-1q-5 0 -7 -3t-2 -8q0 -8 4.5 -14t9.5 -11.5t9.5 -13t4.5 -17.5v-1q-3 -3 -6 -7t-8 -4q-4 0 -6 3t-4 6.5t-4 6.5t-6 3q-1 0 -1.5 -1t-1 -2.5t-0.5 -3.5v-2q0 -5 3 -11.5t8 -12.5t10.5 -9.5
t11.5 -3.5l2 0.5l2 0.5q4 3 8 5t7 5t5 6.5t2 8.5q0 3 -1.5 6t-5.5 3q-3 0 -5.5 -2.5t-4.5 -6.5t-2.5 -8t-0.5 -6l-2 -1l-1 1l-0.5 2t-0.5 3q0 7 2 12t6 10q3 3 5.5 4t5.5 1q2 0 4.5 -1.5t4.5 -4t3.5 -5t1.5 -3.5q0 -11 -4.5 -17.5t-10.5 -10.5t-10.5 -6t-5.5 -4
q-1 -4 -1.5 -7l-1 -6t-1.5 -5.5t-3 -6.5q-1 0 -2 -2t-1 -3q-2 -3 -2 -8t-0.5 -10t-1.5 -9.5t-4 -6.5l-5 5v26q0 4 2 7.5t4.5 6.5t4.5 6.5t2 7.5q0 5 -3.5 8.5t-8.5 7t-9.5 7t-8.5 6.5q-3 8 -4.5 13t-1.5 12q0 8 3.5 11t11.5 3q4 0 6 -3t3.5 -6.5t3 -6.5t5.5 -3q3 0 3.5 3.5
t0.5 5.5q0 5 -2 8.5t-5 6.5l-6 6l-6 6q-1 2 -2.5 5.5t-3.5 7t-3 7t-1 5.5zM150 66q0 -1 0.5 -2.5l1 -3l1 -3t2.5 -1.5h11v6v8t-2 6.5t-6 2.5q-5 0 -6.5 -4t-1.5 -9z" />
</svg>
