<?xml version="1.0" standalone="no"?>
<!DOCTYPE svg PUBLIC "-//W3C//DTD SVG 1.1//EN" "http://www.w3.org/Graphics/SVG/1.1/DTD/svg11.dtd" >
<svg xmlns="http://www.w3.org/2000/svg" xmlns:xlink="http://www.w3.org/1999/xlink" version="1.1" viewBox="-10 0 266 256">
   <path fill="currentColor"
d="M185 210q0 11 -1.5 22t-1.5 22q3 0 6 -1.5t5 -5.5v-13q0 -17 -1 -35t-6 -35q0 -3 -2.5 -5t-5 -4.5t-4 -5t-1.5 -6.5v-5.5t3 -4.5q1 -1 3.5 -2.5t5.5 -3t5.5 -3t3.5 -2.5l1.5 -3t0.5 -3q0 -5 -2 -8t-4.5 -6t-4.5 -5.5t-2 -6.5t2.5 -5.5t5 -2.5t4.5 -2.5t2 -3.5q0 -3 -2 -5
t-4 -3l-2 2l-2.5 2.5l-3 3l-1.5 1.5q-2 1 -7.5 3.5t-11.5 4.5t-11 4t-5 3q1 0 3.5 0.5t4.5 1t4 2t2 3.5q0 6 -2 10t-4 7t-4 5.5t-2 3.5t0.5 1.5l0.5 0.5h1q4 0 7.5 -2.5t5.5 -6t3 -7.5t1 -7t-0.5 -5.5t-0.5 -4.5q0 -3 0.5 -4t3.5 -1t4 1t1 2t0.5 3t0.5 5q1 2 2.5 4t3 3.5
t3 3.5t1.5 5t-3.5 5.5l-7 5t-6.5 6t-3 9.5q0 5 1.5 8.5t4 6.5t4.5 6t3 7q3 10 4 20t1 20zM93 232q0 8 5 12.5t13 4.5t11.5 -1.5t6 -4.5t4.5 -7t7 -9q1 -1 2.5 -1.5t2.5 -1.5t1.5 -3t0.5 -4q0 -1 -0.5 -2t-1.5 -1q-5 0 -8 4t-6 9t-7 9t-11 4q-5 0 -8.5 -2t-3.5 -8t3 -10.5
t6.5 -8.5t6.5 -8.5t3 -10.5q0 -2 -1 -3.5t-3 -3t-4 -2t-4 -1.5q-6 4 -13 7.5t-15 3.5q-2 0 -4 -2.5t-2 -5.5t3 -6t8 -5.5t11 -5t12 -4t11 -2.5t8 -1q6 0 12.5 1t12.5 3.5t9.5 7t3.5 12.5q0 3 -2 6.5t-6 3.5q-5 0 -8.5 -3t-6.5 -7t-5.5 -7t-5.5 -3q0 5 2 9.5t5.5 8t8 6
t9.5 2.5q2 0 5 -0.5t5 -2t4 -4t2 -5.5q0 -11 -4 -17.5t-9.5 -9.5t-14 -4t-16.5 -3q-3 0 -4.5 -1.5l-3 -3l-3 -3t-3.5 -2.5l-1 -0.5t-2.5 -1t-2.5 -1l-1 -0.5q-2 -1 -3 -3l-2 -4t-2 -3t-4 -1v11q0 2 2.5 3.5t6 3t6 3t2.5 3.5t-3.5 3t-9 2.5t-11.5 3.5t-11 5.5t-8.5 8
t-3.5 11.5q0 6 3 9.5t9 3.5q4 0 7.5 -2l7 -4l7 -4t7.5 -2q2 0 3 2.5t1 4.5q0 4 -3 7.5l-6 7t-6 8.5t-3 12zM59 140q0 2 1 2h2q4 0 5.5 -2t1.5 -5v-6v-5t0.5 -5t0.5 -6t0.5 -5.5t0.5 -3.5q0 -2 1 -6.5t2 -9.5t2.5 -10t1.5 -7q1 -2 5 -3.5t8.5 -2.5t8 -2.5t2.5 -3.5
q0 -2 -1.5 -2.5t-3.5 -0.5q-9 0 -15 4t-10.5 11t-7 15.5t-4 17t-1.5 16.5v14v6zM129 136q0 2 0.5 3t2.5 1t3 -0.5t2 -2.5v-3.5t0.5 -5.5t0.5 -6v-4v-2v-3v-12.5v-13t-1.5 -12t-4 -10t-7.5 -7t-13 -2.5q-2 0 -3 0.5t-1 2.5v1v1h5t5.5 1l5 2t2.5 4q0 1 0.5 4t1 6.5t1 6.5
t0.5 4t1 3.5l1 2.5v13q0 7 -1 14t-1 14zM86 88v25q0 4 2 5.5t5 2.5t6 1h5h4t3.5 -0.5t2.5 -2t2 -3.5q0 -5 0.5 -8.5t0.5 -7v-6.5v-8v-9q0 -2 -1 -3t-3 -1h-2t-1 1v17h-14l-0.5 -2t-0.5 -3q-1 -1 -1.5 -4.5t-0.5 -4.5l-3 -1h-1q-1 0 -1.5 1.5t-0.5 3.5t-0.5 4t-0.5 3zM95 115
q-1 -1 -2 -4.5t-1 -4.5v-2.5t0.5 -3t1 -2.5t1.5 -1h12l1 1l0.5 2t0.5 4v3.5t-0.5 4.5t-1.5 3.5t-3 1.5t-3 -0.5t-1.5 -1t-1.5 -1t-3 0.5zM150 71l0.5 1t1.5 1h1q2 0 9 -3t14.5 -6.5t13.5 -7.5t6 -6t-2 -4.5t-5 -2.5h-1.5t-1.5 1q-2 5 -8 9.5t-12 7.5l-11 5.5t-5 4.5zM150 48
q0 1 2 2t3 2q3 -1 9 -4t12 -6.5t10.5 -7.5t4.5 -7t-1 -5.5t-4 -2.5q-2 0 -2.5 1l-1 2t-0.5 2.5v1.5q-2 4 -6 7t-8.5 6t-9.5 5t-8 3v1zM61 45q0 2 2 2h3q8 0 16 -3.5t13 -9.5v-4v-3q0 -2 -1 -5.5t-2.5 -6.5t-4 -5t-5.5 -2q-2 0 -4 0.5t-2 3.5q0 2 1.5 3t3 2.5t2.5 3.5t1 7
t-3.5 7t-7.5 3.5t-8 2.5t-4 4zM116 31q0 3 2 6t5 5.5t6.5 3.5t6.5 1h5l2 -1v-1q0 -2 -3 -3.5l-7 -3.5t-7 -5t-3 -8q0 -2 1 -3.5t3 -3.5t3 -3.5t1 -3.5q0 -3 -3 -3t-5 2.5t-3.5 6.5t-2.5 8t-1 6z" />
</svg>
