<?xml version="1.0" standalone="no"?>
<!DOCTYPE svg PUBLIC "-//W3C//DTD SVG 1.1//EN" "http://www.w3.org/Graphics/SVG/1.1/DTD/svg11.dtd" >
<svg xmlns="http://www.w3.org/2000/svg" xmlns:xlink="http://www.w3.org/1999/xlink" version="1.1" viewBox="-10 0 266 256">
   <path fill="currentColor"
d="M174 187q2 0 5 4.5t6 11.5t6 15.5t6 15t6 11.5t5 5q3 0 4.5 -2t1.5 -5q0 -2 -1.5 -4.5l-3 -5t-3.5 -4.5l-4 -4q-1 -3 -5 -11t-8 -16.5t-7 -16t-3 -11.5q0 -3 3 -4t7.5 -2t8 -4.5t3.5 -11.5v-8t-0.5 -12.5t-0.5 -12.5v-8h11l0.5 -1.5t0.5 -2.5v-7v-10.5t-1 -9t-1.5 -10
t-2.5 -11.5q-1 -2 -3.5 -3.5t-4.5 -3.5h-3.5t-5 -0.5t-5 -0.5h-3.5h-3.5h-3.5v-25q0 -1 -1.5 -1.5t-3.5 -0.5q-1 0 -2.5 1.5t-1.5 3.5v20l-3 3q-2 0 -4.5 0.5t-6 1t-6.5 1t-4 1.5q-5 0 -7 3t-2.5 7.5t-0.5 8.5v7q0 6 0.5 11.5t1.5 11.5q0 1 1.5 1.5l1.5 0.5l1 -0.5t1 -1.5
l3 -34q1 -5 5 -8t9.5 -4t11.5 -0.5t10 0.5q2 0 5.5 -0.5t7.5 0.5t6.5 2.5t3.5 4.5l3 32q1 3 -1 4t-4 0.5t-3.5 -0.5t-1.5 2v12l-2.5 1t-3.5 1h-0.5h-0.5h-1.5h-0.5q-1 0 -4 -0.5t-4 -1.5v-10v-5t0.5 -8.5t1.5 -8t3 -3.5h14q0 -2 -0.5 -3t-2 -1.5t-3 -0.5h-2.5h-8t-13 0.5
t-13 1.5t-7 4l1 1h18l3 4v2.5t0.5 6.5t0.5 8.5v7.5v7h-2.5h-5h-4.5h-3t-2 -0.5l-1 -0.5v-13l-1 -0.5l-1 -0.5h-0.5h-0.5q-3 0 -3.5 2.5t-0.5 4.5v5q0 3 0.5 8t0.5 11t0.5 11.5t0.5 7.5q1 8 4.5 11t7 4t6 2t2.5 5q0 7 -3 14.5t-7 14.5l-8 14t-5 14l-13 13v1v1q0 2 0.5 3
t3.5 1t7 -4.5t8 -11t7.5 -14.5t6 -15t5.5 -11.5t5 -4.5zM54 162q0 3 2 5.5t5 4t6.5 2.5t5.5 1q7 0 11.5 -4t9 -9t8.5 -10.5t8 -9.5v-0.5v-0.5v-0.5v-0.5l-1.5 -0.5l-1.5 -0.5h-1q-5 0 -9 4.5t-8 10t-7.5 10t-6.5 3.5q-1 0 -3 -1t-4 -1.5t-3 -2t-1 -3.5q0 -5 4.5 -9
t10.5 -8.5t10.5 -11t4.5 -14.5t-2.5 -10.5t-10.5 -2.5h-4t-4 2l-2.5 2t-4.5 4.5t-4 4.5l-3 3h-3q-5 0 -6 -3.5t-1 -7.5q0 -7 4 -12.5t10 -9t12.5 -6.5t12.5 -5v0q6 0 11.5 2t9.5 6t6.5 9t2.5 11v8q-1 2 -2.5 2.5t-2.5 0.5q-6 0 -7.5 -3.5t-2 -7.5t-1.5 -7.5t-4 -3.5
q-1 0 -1.5 1.5t-0.5 3.5q0 4 1 8.5t3.5 8.5t6.5 6.5t9 2.5t8 -4q0 -1 0.5 -3.5t0.5 -5.5t0.5 -5.5t0.5 -3.5v-0.5v-0.5q0 -7 -3 -11.5t-7.5 -8.5t-10.5 -6.5t-11 -4.5q-3 -8 -7.5 -13t-11.5 -11l-2 -2t-2.5 -2t-2.5 -2t-1 -2q-1 -2 -0.5 -6.5t0 -8.5t-2 -7t-5.5 -3
q-3 0 -4 3t-1 5q0 12 4 18t8.5 10t8 7.5t3.5 10.5v2.5v1.5q-5 3 -11.5 6t-12 7t-9.5 9.5t-4 11.5q0 4 0.5 8.5t2.5 8.5t5 6.5t9 2.5q4 0 7 -3t5 -7t4.5 -7t6.5 -3q3 0 4.5 2.5t1.5 4.5q0 7 -5 12.5t-11.5 10t-11.5 9.5t-5 13zM155 149v-2q0 -2 1 -2h13l0.5 3t0.5 5l0.5 1
t0.5 2q0 3 -4 3q-5 0 -8.5 -2.5t-3.5 -7.5zM177 143h4q3 0 5 0.5t3.5 2t1.5 3.5q0 4 -2.5 6.5t-5.5 2.5q-2 0 -4 -0.5t-2 -3.5v-11zM152 130q0 -4 1.5 -6t3.5 -2.5t5.5 -0.5h7.5q0 1 -0.5 3t-0.5 4v3.5v2.5t-0.5 2t-1.5 1l-12 2q-1 0 -2 -1t-1 -3v-4v-1zM177 120h14
q1 0 1.5 1t0.5 2v3v4v2.5v1.5l-3 3h-13v-17z" />
</svg>
