<?xml version="1.0" standalone="no"?>
<!DOCTYPE svg PUBLIC "-//W3C//DTD SVG 1.1//EN" "http://www.w3.org/Graphics/SVG/1.1/DTD/svg11.dtd" >
<svg xmlns="http://www.w3.org/2000/svg" xmlns:xlink="http://www.w3.org/1999/xlink" version="1.1" viewBox="-10 0 266 256">
   <path fill="currentColor"
d="M197 243q0 2 1.5 3.5t3.5 1.5q3 0 5 -3t2 -6q0 -25 -1 -50.5t-3 -50.5q0 -7 -1.5 -11.5t-4 -7t-4.5 -4t-4.5 -3t-3.5 -4t-1 -6.5v-5t3 -3h20h3t3.5 -0.5t2.5 -1.5t1 -3q0 -3 -2.5 -4t-5.5 -1q-5 0 -9.5 1.5t-10.5 1.5h-3h-2q-1 0 -2.5 -0.5l-1.5 -0.5v-11q0 -1 3.5 -1.5
t8 -1t8.5 -2.5t5 -5q2 -6 2.5 -10.5t0.5 -10.5v-3v-4q-1 -2 -2 -3t-2 -1q-2 0 -3.5 1.5t-1.5 3.5v4v3t-0.5 3.5l-1 5t-0.5 5v2.5h-13q0 -6 0.5 -11.5t0.5 -11.5v-1l-1.5 -1.5l-1.5 -1.5l-0.5 -0.5l-0.5 -0.5q-3 0 -4.5 3t-2 6.5l-1 7t-0.5 4.5v26l-3 7h-3.5h-4.5h-5.5h-3.5
q-2 0 -2.5 1t-0.5 3v2t1 2h19l0.5 1.5t1.5 3t1.5 3.5t1.5 3q1 3 1 4.5t0.5 3t1 2.5t2.5 3t4 3t4 2.5t3.5 3t1.5 5.5q1 5 1 12v15q0 7 0.5 13.5t2.5 11.5v51q-1 0 -1.5 2.5t-0.5 4.5zM113 185v4v6t0.5 5l0.5 2v5.5t0.5 8t0.5 8.5v6v2.5t0.5 5.5t1.5 5t3 3l1.5 -0.5t2.5 -1.5
l0.5 -0.5l0.5 -0.5v-3.5v-3.5q0 -8 -1.5 -15t-1.5 -15v-33q0 -29 0.5 -57t6.5 -57q1 -2 2 -2.5t3 -0.5q3 0 4.5 1.5t1.5 5.5q0 10 -2.5 20t-2.5 20v5v10v12v9v8v10v8v4q0 2 0.5 8.5t1.5 14.5l2 16t1 12q1 2 1 5.5t1 7t2 7.5t3 6l3 -3q1 -1 1 -3v-4q0 -14 -3 -28.5t-4 -29.5
q-2 -15 -2 -29.5v-28.5v-4v-6v-6v-4q1 -3 2.5 -8.5l3 -11t2.5 -11t1 -9.5q0 -6 -2.5 -9t-6 -4t-8 -1.5t-9.5 -1.5l-1.5 -0.5l-3 -1t-3.5 -1l-2 -0.5q0 -1 -1 -1h-1q-2 0 -4.5 1t-2.5 4q0 2 2 3t4.5 2t4.5 1.5t3 2.5v4v4v5v3q0 1 -0.5 3.5t-1 6t-1 6t-0.5 3.5q-2 24 -3 48
t-1 48zM157 242v2.5t2 1.5q3 0 4.5 -1.5t2 -4t0 -5t-0.5 -3.5q0 -2 0.5 -6.5t0.5 -10t0.5 -10t0.5 -6.5t1.5 -2h2.5h1h2q2 11 1.5 22t1.5 21q0 2 1 2.5t2 0.5q2 0 2.5 -0.5t1.5 -2.5v-3v-3q0 -7 -1 -13t-1 -14v-12q5 -6 7 -13.5t2 -16.5v-12t-1.5 -11t-5.5 -8t-11 -3h-1h-3
t-4 0.5l-4 1t-3 0.5q-3 3 -4.5 6.5t-2 8t0 9t0.5 8.5v7v5.5t0.5 5.5t0.5 7q7 4 7 12q0 10 -1.5 20t-1.5 20zM160 176h22q0 6 -3.5 9.5t-8.5 3.5q-6 0 -8 -4t-2 -9zM47 172q0 9 3.5 11t10.5 2q5 0 9 -2t6.5 -5.5t5 -8t5.5 -8.5q4 -7 9 -12l11 -11v-1q0 -1 -1 -2t-2 -1
q-6 0 -9.5 3t-6.5 7.5t-5.5 9.5t-5.5 9t-6.5 7t-8.5 3t-5 -6q0 -7 4 -12.5t9 -11.5t9.5 -12t4.5 -15q0 -6 -3 -11.5t-9 -6.5q-4 -1 -6.5 2.5t-4 7.5t-2.5 8.5t-1 5.5q-2 3 -3.5 3.5t-3.5 0.5q-4 0 -4 -2.5v-5.5v-7t0.5 -6t2 -5.5t4.5 -5.5q1 0 3.5 -2.5l5 -5t5.5 -5t4 -3.5
h4.5h4.5q11 0 17.5 4.5t6.5 16.5q0 2 -0.5 5t-3.5 3t-4 -3l-2 -6t-2 -5.5t-4 -2.5v15q0 2 1.5 3.5t4 2.5l5 2t3.5 1q7 0 9 -8v-9v-7.5t-2 -7.5q-8 -8 -16 -10.5t-19 -1.5l-3 -2v-50q0 -2 -2 -4t-3 -2q-3 0 -4 1.5l-3 4.5v7q0 9 1 17.5t1 17.5v3v3v4v2t-1 2l-1 1l-2.5 2.5
l-3.5 3.5t-3.5 4l-1.5 2q-7 8 -9 14.5t-2 16.5v9q2 3 5 6t7 3q6 0 9 -3t5 -7t3.5 -8.5t5.5 -7.5q3 1 3.5 2t0.5 3q0 7 -2.5 12t-5.5 9t-7 8t-7.5 8.5t-5.5 9t-2 10.5zM158 157h24l1 0.5t1 1.5v0v1t-0.5 2.5t-1.5 3t-2.5 2.5t-2.5 1h-19v-12zM160 146q0 -5 4 -5.5t7 -0.5h6
q3 2 3 7v0.5v0.5q-4 2 -7 2h-7q-3 0 -4.5 -0.5t-1.5 -3.5z" />
</svg>
