<?xml version="1.0" standalone="no"?>
<!DOCTYPE svg PUBLIC "-//W3C//DTD SVG 1.1//EN" "http://www.w3.org/Graphics/SVG/1.1/DTD/svg11.dtd" >
<svg xmlns="http://www.w3.org/2000/svg" xmlns:xlink="http://www.w3.org/1999/xlink" version="1.1" viewBox="-10 0 266 256">
   <path fill="currentColor"
d="M166 244q0 2 0.5 4.5t3.5 2.5q5 0 7 -3t3 -7t1 -8.5t1 -7.5l0.5 -2.5t1 -5.5t1 -5.5t0.5 -3.5t0.5 -6l1 -10t1 -9.5t0.5 -6.5q3 -3 5.5 -5t7.5 -2q3 0 5 1t4 1t3 -1t1 -3v-1q-8 -5 -17 -5q-4 0 -8 0.5t-8 0.5q0 -1 -0.5 -3t-0.5 -4.5t0.5 -4.5t2.5 -2l15 -5q2 -1 2 -2.5
v-2.5q0 -11 -3.5 -15.5t-10 -6.5t-14.5 -1.5t-16 -0.5q0 -1 -1 -3t-2 -2q-1 -3 -3 -6.5l-2 -3.5l3 -5q6 -1 12.5 -3.5t12.5 -2.5q8 0 13 3.5t7.5 9t4 12t3.5 13.5l0.5 1.5l1 3t1 3.5l0.5 2q0 2 -0.5 4.5t-0.5 5.5q0 2 1 4.5t3 3.5q2 -2 4 -4.5t3 -5.5q-1 -8 -2.5 -17
t-3.5 -17t-6.5 -15t-10.5 -13q2 -5 4 -9.5t3.5 -8.5t2.5 -8.5t1 -10.5q0 -3 0.5 -8.5t-0.5 -11t-3 -9.5t-7 -4q-2 0 -3.5 0.5t-1.5 2.5q0 8 2.5 15t2.5 15q0 10 -2 16.5t-6 10.5t-9 6.5t-11.5 4.5t-13 4.5t-13.5 6.5q-6 3 -10 10.5t-6 16.5t-2.5 18t-0.5 14q5 0 7 -3.5
t2.5 -9t1 -10.5t1.5 -8q0 -1 1 -2.5t2 -4t2 -4t2 -2.5q0 -1 1 -1h1q3 0 4.5 2t1.5 5v1v1q-2 3 -4 5t-3.5 4t-2 4t-0.5 6q0 7 2.5 12t11.5 5q3 0 4.5 -2t3 -4.5t2 -5.5t0.5 -5q0 -3 -1.5 -4.5t-1.5 -3.5t1.5 -4t3.5 -2q3 0 5 3t3 7.5t1 9v6.5v5t-1.5 5.5t-3.5 4t-5 1.5h-42
q-3 0 -5.5 -1t-4 -3.5t-3.5 -4.5l-4 -4q-3 2 -5 7.5t-4 13t-3.5 14.5t-4 13t-5.5 10t-9 4q-2 0 -4.5 -0.5t-4.5 -1.5t-3.5 -3t-1.5 -5q0 -6 2.5 -9.5t6.5 -8.5q3 -6 6 -11.5t6 -11.5t4.5 -12t1.5 -13q0 -3 -1.5 -8t-4 -9.5t-6 -8t-7.5 -3.5q-1 0 -2 1.5t-1 3.5q0 4 1.5 7
t3.5 6.5t3.5 7t1.5 7.5q0 9 -4 17t-9 15t-9.5 15t-4.5 17q0 5 2.5 8.5t6 6t8 3.5t8.5 1q6 0 10.5 -2t8.5 -7q2 -2 3.5 -7t3 -10.5t3 -11.5t2.5 -10.5t2 -7.5t3 -2l6 5l24 2q3 -2 5.5 -2h5.5h3h3q1 1 2 3t1 4v4.5v4.5q0 12 -4.5 25.5t-10.5 24.5v1v2q0 2 0.5 3t2.5 1
q5 0 7.5 -3.5t2.5 -6.5l2.5 -10l3 -12t2.5 -11t1 -6t0.5 -4.5t0.5 -6.5t0.5 -6.5t0.5 -4.5l0.5 -1l0.5 -1q1 0 4 0.5t4 0.5q0 1 0.5 5.5t1 8.5t0.5 8v6q0 1 -0.5 4t-1.5 7.5t-2.5 9t-1.5 6.5q0 1 -1 3t-2 4.5t-1.5 5l-0.5 2.5q0 1 -0.5 1.5zM197 230q1 4 2.5 6.5t5.5 2.5
q3 0 4 -0.5t1 -3.5q0 -2 -0.5 -3l-1 -2t-1 -2.5t-0.5 -3.5v-5v-8v-8v-5t-0.5 -3t-0.5 -4.5t-0.5 -4.5t-0.5 -3t-1.5 -1.5t-2.5 -0.5q-3 0 -4.5 2t-1.5 5v2q0 2 0.5 8t0.5 12.5t0.5 12t0.5 7.5zM118 220v4q8 0 12.5 -4.5t7.5 -10.5t4.5 -13t2.5 -13q-1 -1 -3 -2.5t-2 -2.5h-1
q-2 0 -3.5 1t-2.5 2q1 12 -3 21.5t-12 17.5zM39 123q0 5 1 10.5t4 10t7.5 7.5t9.5 3q4 0 4.5 -1t0.5 -4q0 -4 -2.5 -5.5t-6 -3t-6 -5t-2.5 -12.5q0 -3 1 -8t3.5 -9.5t6 -7.5t8.5 -3h25q2 0 4.5 2t4 5t2 6t0.5 5v6.5t-1 7.5t-2 7t-3 5t-4 3t-2 4q7 0 11 -3t6 -7.5t3 -10.5
t1 -11q0 -9 -1.5 -14.5t-4 -7.5t-5.5 -2.5l-6 -1t-5.5 -1.5t-4.5 -5q-1 -8 -2.5 -14t-4 -11t-6.5 -10.5t-9 -10.5v-3q0 -4 2 -7.5t2 -7.5t-1.5 -5t-5.5 -1q-3 0 -5 2t-3.5 5t-2 6t-0.5 6q0 7 4 13t8.5 11.5t8 11t3.5 12.5q0 3 -2.5 4.5t-6.5 3t-8.5 4t-8.5 6.5t-6.5 10.5
t-2.5 15.5zM145 140q0 -3 1 -6.5t4 -4.5q3 2 4 3t1 4q0 2 -2 5t-5 3t-3 -4zM180 129q0 -3 0.5 -4t3.5 -1q4 0 5 3t1 6v5q-1 1 -2.5 1h-3.5t-3 -1t-1 -2.5v-3.5v-3zM118 58q0 3 1 8t3 9.5t5 8t7 3.5q2 0 3 -0.5t1 -2.5q0 -4 -1.5 -6.5t-3 -4.5t-3 -4.5t-2.5 -5.5
q-1 -2 0.5 -4.5t3.5 -4t4 -2.5t5 -1t4.5 3t3 6.5t3.5 6.5t5 3q5 0 5 -4q0 -3 -1.5 -5.5t-2.5 -4.5l-2 -4t-1 -5q0 -4 3 -4q4 0 6 3.5t3.5 7.5t4 7.5t5.5 3.5q2 0 4.5 -0.5t2.5 -2.5q0 -4 -2 -6.5t-4.5 -5.5t-4 -5.5t-1.5 -6.5q0 -2 1.5 -2.5t3.5 -1.5t4 -3t2 -7q-3 0 -8 1.5
t-11.5 4t-14 5.5t-13.5 6t-10.5 5t-5.5 4q-2 1 -2 4v4z" />
</svg>
