<?xml version="1.0" standalone="no"?>
<!DOCTYPE svg PUBLIC "-//W3C//DTD SVG 1.1//EN" "http://www.w3.org/Graphics/SVG/1.1/DTD/svg11.dtd" >
<svg xmlns="http://www.w3.org/2000/svg" xmlns:xlink="http://www.w3.org/1999/xlink" version="1.1" viewBox="-10 0 266 256">
   <path fill="currentColor"
d="M169 208q0 8 2.5 13.5t6 10.5t8.5 9.5t11 9.5h1q3 0 3.5 -1.5t0.5 -3.5q0 -3 -4 -6.5t-8.5 -8t-8.5 -10t-4 -12.5q0 -5 2.5 -8.5l5 -7t5 -6.5t2.5 -8q0 -8 -3.5 -11t-8 -4.5t-8 -2.5t-3.5 -6v-1v-2t0.5 -2t1.5 -1h35l1.5 -1.5t1.5 -2.5v-1v-1q-1 -1 -3 -1.5t-4 -0.5h-1
h-3.5t-7 0.5t-6.5 0.5h-4h-47q-3 1 -4.5 2.5t-1.5 4.5h31q2 0 2 2v2q0 4 -2 6.5t-5.5 4t-7 4t-5.5 4.5q-3 5 -5.5 12.5t-4 16.5t-2 17t-0.5 13q0 3 1.5 5.5t4.5 2.5q1 0 2 -0.5t1 -1.5q0 -2 0.5 -8t1 -12.5t1 -12.5t0.5 -8q2 -13 8 -20.5t20 -7.5q6 0 10 2t4 8q0 4 -2 7.5
t-4.5 7t-4.5 7.5t-2 8zM58 178q0 2 1 4.5t3 4.5t4.5 3.5t5.5 1.5t7 -1t7 -5q0 -2 1.5 -5t3.5 -6.5l4 -7t2 -4.5q1 -2 4 -4t6 -4.5t5 -4.5t2 -3t-1 -1.5t-3 -0.5q-8 0 -12.5 5.5t-8 12t-7 12t-8.5 5.5q-4 0 -5 -3t-1 -5q0 -8 4 -14.5t8.5 -13t8.5 -13.5t4 -15v-4t-0.5 -4
t-1.5 -4t-3 -3h-2.5h-3.5h-4q-3 0 -5 2q-1 1 -2 5t-2.5 8t-4 7t-5.5 3q-1 0 -2 -1.5t-1.5 -3.5t-0.5 -3.5v-2.5q0 -4 3.5 -10.5t8.5 -12t10.5 -10t10.5 -4.5q6 0 11 3.5t9 8t6 10.5t2 11v3q0 1 -0.5 3t-1 3t-2.5 1h-0.5h-0.5q-2 -1 -3.5 -5t-2 -8.5t-1.5 -7.5t-3 -3v0l-2 1
v6q0 3 1 7.5t2.5 9t4.5 8t7 3.5t5.5 -2t2.5 -5t1 -5.5v-5.5v-5t-1 -6q-2 -9 -4.5 -13.5t-5.5 -7t-7.5 -4t-11.5 -4.5q-1 0 -2.5 -3l-3.5 -7t-4.5 -8.5t-4.5 -8.5l-3.5 -7l-1.5 -3q0 -6 2.5 -11t2.5 -12v0q-1 0 -1.5 -0.5t-0.5 -1.5l-1.5 -0.5l-1.5 -0.5q-2 1 -3.5 3t-2.5 5
t-1 5.5v4.5v5v6t0.5 5t0.5 3q1 4 3 6t4.5 4t3.5 4.5t1 5.5q0 5 -5 10t-11 10.5t-11 13t-5 16.5q0 3 1 6t3 6t4.5 4.5t6.5 1.5t6 -2t3 -5t1 -6.5t1 -6.5t2.5 -5t4.5 -2t4.5 1.5t1.5 4.5q0 10 -4.5 17.5t-9.5 14.5t-9.5 14.5t-4.5 16.5zM142 110q0 4 -2 5.5t-4 1.5t-3.5 1
t-1.5 4h29q2 0 2 -1v-1q0 -3 -2.5 -3.5l-5 -1t-4.5 -2t-2 -6.5q0 -3 2.5 -4t5 -1t5 -0.5t2.5 -3.5v-1.5t-1 -1.5h-12v-21l33 -1q1 0 2 2t1 4.5v5.5v4v3.5t-1 2.5h-2.5h-3.5h-2.5h-2.5t-2 0.5t-1 1.5q-1 1 -1 2.5v1.5h12l0.5 1.5l0.5 1.5q1 3 1.5 4t0.5 3q0 1 -0.5 2t-2.5 2
l-14 3v0v0q0 2 1.5 3t3.5 1h31q2 0 4.5 -1.5t2.5 -3.5l-0.5 -0.5l-0.5 -0.5l-0.5 -1l-0.5 -1h-14q-1 0 -1.5 -1l-1 -2t-0.5 -2v-2v-4q0 -1 1 -1.5l1 -0.5h12v-6q-7 0 -10 -1t-3.5 -4t0 -7t0.5 -10h11q2 0 3 -2t1 -3t-0.5 -2t-1.5 -1h-32l-3 -3v-10q0 -1 1.5 -1.5t2.5 -0.5
h20q2 0 3.5 -1.5t1.5 -3.5l-0.5 -1t-1.5 -1h-23q-2 0 -2.5 -2t-0.5 -4q0 -3 1 -5.5t1 -5.5q0 -2 -1 -4t-4 -2l-1 0.5t-2 0.5q0 1 -0.5 1.5l-0.5 0.5v21l-0.5 0.5t-1.5 0.5v0h-1h-4h-7t-7 -0.5t-4 -0.5v0q-3 0 -4.5 0.5t-1.5 2.5t0.5 3.5t2.5 1.5h25l0.5 0.5l0.5 0.5v1.5v2.5
q0 5 -1.5 7t-4.5 3t-7 1h-7h-1.5h-1.5l-1.5 -0.5t-3 -0.5h-3h-1.5q-2 0 -3.5 1t-1.5 3q0 1 0.5 2.5t1.5 1.5h15v20q0 1 -1.5 1.5t-3.5 0.5t-4 0.5t-3 2.5q1 2 3 2h3q2 0 3.5 1.5t1.5 6.5z" />
</svg>
