<?xml version="1.0" standalone="no"?>
<!DOCTYPE svg PUBLIC "-//W3C//DTD SVG 1.1//EN" "http://www.w3.org/Graphics/SVG/1.1/DTD/svg11.dtd" >
<svg xmlns="http://www.w3.org/2000/svg" xmlns:xlink="http://www.w3.org/1999/xlink" version="1.1" viewBox="-10 0 266 256">
   <path fill="currentColor"
d="M175 249q0 2 2 2h3q4 0 5.5 -2.5t2.5 -6t1 -7v-6.5q0 -21 -2.5 -41t-2.5 -41l0.5 -2.5t1.5 -2.5h27l2 -2l0.5 -1.5l0.5 -1.5q0 -1 -1 -2t-2 -1h-29v-15q0 -2 4.5 -2.5t9.5 -1t9.5 -2t4.5 -5.5q0 -1 -1.5 -3t-3.5 -2l-21 4l-0.5 -0.5l-1.5 -1.5q0 -1 -0.5 -3.5l-0.5 -2.5
q0 -4 2.5 -5.5t6.5 -2.5t7.5 -2.5t5.5 -4.5q4 -7 4.5 -16t0.5 -17v-3v-4.5v-4.5v-3q-3 -3 -6 -3h-2.5t-1.5 1v36q0 6 -4.5 9.5t-9.5 3.5q-2 0 -3.5 -1t-1.5 -3q0 -12 2 -23.5t2 -23.5q0 -1 -0.5 -4.5t-0.5 -4.5q-1 -2 -2.5 -3.5t-3.5 -1.5q-1 0 -2.5 1t-1.5 3v61q0 1 -1.5 1
h-2.5q-2 0 -4 -1t-4.5 -2.5t-4 -3.5t-1.5 -4v-6.5t-0.5 -9t-0.5 -9v-6.5v-2q0 -2 -0.5 -3t-1.5 -2t-2 -1h-1l-2 2l-1 1q0 1 -0.5 4.5t-0.5 4.5v9q0 6 0.5 12t1.5 11t3 8q3 3 7 3.5t8 1.5t6.5 2.5t2.5 6.5q0 4 -0.5 6t-4.5 4h-4.5t-7.5 0.5t-8 0.5h-5q-4 1 -5 1q-2 0 -2 3
t1.5 3.5t4.5 0.5q6 0 12 -0.5t12 -0.5q5 0 6.5 1t1.5 7q0 2 -0.5 6t-3.5 5h-4.5t-7 0.5t-6.5 0.5h-4q-1 1 -4 0.5t-6 0t-5.5 1.5t-2.5 4q0 2 2 3t3 1h4.5h4.5q7 0 14 -1.5t14 -1.5h1l0.5 0.5t0.5 1.5q0 2 0.5 7.5t0.5 11.5v12v8q0 16 -1 31.5t-1 31.5zM64 167q0 2 0.5 5
t2 5.5t3 4t4.5 1.5q8 0 13 -1.5t8 -4.5t4.5 -7t2.5 -8t3 -9t5 -10l1 -1t1.5 -2t1.5 -2l1 -1v-1v-1q-1 0 -1.5 -1.5l-0.5 -1.5h-1q-3 0 -5.5 3t-4.5 7.5t-4 9.5t-4 9.5t-5.5 7.5t-8.5 3q-3 0 -4 -2t-1 -4q0 -7 3 -12t6.5 -10t6.5 -10t3 -12q0 -8 -1.5 -12t-10.5 -4q-4 0 -7 2
t-5.5 4t-5.5 4t-7 2t-5.5 -3.5t-1.5 -7.5t5.5 -9.5t13 -10t14 -7t9.5 -2.5q5 0 9.5 2t8 5t6 7.5t2.5 9.5q0 3 -3 5.5t-6 2.5q-5 0 -7 -3t-2 -7.5t-0.5 -7.5t-3.5 -3t-3 2v5q0 4 1 8.5t4 8t6.5 6t8.5 2.5q4 0 7 -2t4.5 -5.5t2.5 -7.5t1 -7q0 -8 -2.5 -12.5t-7 -8t-10.5 -5
t-12 -3.5q-1 -1 -2.5 -1.5l-1.5 -0.5v-19l-2.5 -2.5l-4.5 -4.5q-3 -2 -6.5 -4t-4.5 -5q-1 -1 -1 -2.5v-4t-0.5 -4t-0.5 -2.5q0 -2 -2.5 -4.5t-5.5 -1.5l-0.5 1t-0.5 2l-0.5 2.5t-0.5 4.5q0 7 4 12.5t8 10.5t7.5 9.5t3.5 9.5q0 4 -3 6.5t-8 4.5t-10.5 4t-10.5 6t-8 10t-3 16
q0 7 4 12.5t11 5.5q3 0 6.5 -2t6.5 -4.5t5.5 -5l4.5 -4.5q0 -1 1 -1h1q4 0 4.5 2t0.5 5t-0.5 5.5t-1.5 5.5q-1 1 -3.5 4t-5 6.5t-4.5 6.5t-3 4q-1 2 -3 6.5t-2 7.5z" />
</svg>
