<?xml version="1.0" standalone="no"?>
<!DOCTYPE svg PUBLIC "-//W3C//DTD SVG 1.1//EN" "http://www.w3.org/Graphics/SVG/1.1/DTD/svg11.dtd" >
<svg xmlns="http://www.w3.org/2000/svg" xmlns:xlink="http://www.w3.org/1999/xlink" version="1.1" viewBox="-10 0 266 256">
   <path fill="currentColor"
d="M139 238q0 2 1 5.5t3 4.5q1 0 3 0.5t3 0.5q9 0 14 -4t9 -9t8.5 -9.5t11.5 -7.5v-3q-9 0 -14 3.5t-9.5 8l-8.5 8.5t-9 4q-3 0 -4 -0.5t-1 -4.5t3.5 -7.5t8 -7.5t8 -8.5t3.5 -10.5q0 -7 -5 -10t-11 -3q-5 0 -8 4t-4 8h-2q0 -1 -1 -4t0 -5q0 -4 3 -7t6.5 -5.5t7.5 -3.5t8 -1
q3 0 8 0.5t9.5 2.5t7.5 5.5t3 8.5q0 2 -1.5 3.5t-3.5 1.5q-3 0 -4.5 -2t-2.5 -5t-2.5 -5t-3.5 -2q0 11 3 17t14 6q6 0 8.5 -4t2.5 -9q0 -8 -3.5 -12.5t-9.5 -7.5t-13 -4.5t-12 -2.5q-1 -1 -2 -2.5t-1.5 -2.5l-1 -2t-1.5 -1.5t-2.5 -0.5h-1.5v13l-2 1.5t-3 1.5
q-9 5 -13.5 11.5t-4.5 17.5q0 3 1.5 6.5t5.5 3.5q3 0 5 -2.5l4 -5t4 -4.5t5 -2q4 0 5 2t1 6t-3.5 7.5l-7.5 7.5t-7.5 8.5t-3.5 9.5zM71 238q0 3 1 4.5t3 2.5t4.5 1.5t4.5 0.5t4.5 -1t3.5 -2l18 -18v0q0 -2 -2 -3t-4 -1h-1h-1q-3 2 -5 4.5t-3.5 4.5t-4 3t-6.5 1q-2 0 -3 -0.5
t-1 -2.5t2 -4.5t4 -5.5t4.5 -5.5t3.5 -4.5v-16l-3 -3h-12q-2 0 -3 2t-2.5 4.5t-2.5 4.5t-3 2q-3 0 -4 -2t-1 -4q0 -5 3 -9t7 -7t9 -5t8 -2q4 0 8.5 1t9 3t7.5 5.5t3 7.5q0 3 -2 5.5t-5 2.5q-2 0 -3 -2.5l-2 -5t-2.5 -4.5t-3.5 -2v7q0 4 1 7t3 5t7 2t9.5 -2.5t4.5 -8.5
q0 -5 -3 -10.5t-7.5 -10t-10.5 -7.5t-11 -2l-3 -3l-4.5 -4.5l-4.5 -4.5l-3 -3t-1.5 -2.5t-1 -3.5t-1 -3t-2.5 -1l-1 0.5l-1 0.5q0 1 -1 3.5l-1 2.5q-1 0 -1 1q0 4 2.5 6.5t5.5 4.5t5 4t2 5q0 1 -3.5 3.5t-7.5 5t-8.5 6t-6.5 7.5v8v6.5t1 5.5t3 3.5t6 1.5q6 0 8.5 -3
t3.5 -6.5l2 -7t4 -3.5q1 0 2.5 0.5t1.5 1.5t0.5 3l0.5 2q0 6 -3 9.5l-6 7t-5.5 7.5t-2.5 9zM86 139l1.5 3t2.5 4t3 2l4 2t3.5 1.5l1.5 0.5h40q8 0 12 -5t5.5 -11.5t1.5 -13.5v-12q0 -2 -1.5 -3t-3.5 -1t-3 0.5t-2 2.5h-10q-1 0 -3 0.5t-4.5 0l-5 -1t-2.5 -1.5v-3v-4v-4v-3
q-1 -2 -2 -3t-3 -1q-1 0 -2 0.5t-1 2.5v17q0 3 3 4.5t5 1.5q1 0 4 0.5t6.5 0.5t6 0.5t3.5 0.5t3 1t2 2v0v0q0 3 -3.5 4.5t-5.5 1.5h-10h-16t-14.5 -1.5t-7.5 -4.5v-3t-0.5 -4t-0.5 -4v-2q-1 -1 -2.5 -1.5l-1.5 -0.5q-1 0 -2.5 1t-2.5 2q1 3 1.5 7.5t0.5 8.5v8v7zM93 137v-1
q0 -1 1.5 -2l1.5 -1h52q2 0 2.5 1t0.5 3q0 3 -3 5t-6 2h-39q-2 0 -6 -2.5t-4 -4.5zM99 103q0 3 1 7t6 4q1 0 1.5 -1t0.5 -2q0 -3 -1 -5t-1 -5q0 -6 2 -11.5t2 -11.5q0 -4 -2 -6t-4.5 -3t-4 -2t-1.5 -4q0 -4 3 -5t6.5 -0.5t6.5 -0.5t3 -5v-1.5t-2 -1.5h-16q0 -1 -1 -4t0 -4
q0 -1 1.5 -3.5t2.5 -2.5h17v-2.5t-1 -3.5l-0.5 -1l-0.5 -1h-15l-0.5 -1.5t-1.5 -2.5v-2.5v-3.5t-0.5 -3.5t-0.5 -2.5h-1h-1q-4 0 -4.5 3t0 6.5t-0.5 7t-5 4.5q-3 1 -5 0t-4 -3l-3.5 -3.5t-4.5 -1.5q-1 0 -3 0.5t-2 2.5v24l2 2.5t4 3.5q3 2 8 1.5t8 -0.5v7l-15 12q-1 1 -3 5
t-4 9t-3.5 9.5t-1.5 5.5q0 3 1.5 4.5t5.5 1.5q3 0 4.5 -2.5t3 -7t2.5 -9.5t2.5 -9t4.5 -7t8 -3q6 0 7.5 4t1.5 9q0 4 -1 7.5t-1 8.5zM169 100q0 6 3 10t8 4q2 0 5 -0.5t3 -3.5v-1l-9 -8l-3 -27q0 -2 -2 -3l-4 -2t-3.5 -2t-0.5 -3q0 -1 2 -3l2 -2h20l1 -1.5t1 -2.5h1
q0 -2 -2 -3t-3 -1h-21v-12q0 -1 3.5 -1t7.5 -0.5t7 -1.5t3 -4v-2.5t-1 -1.5h-18l-0.5 -2.5t-1.5 -3.5v-4t-0.5 -3.5t-1.5 -2.5t-3 -1t-2.5 0.5t-1.5 2.5v3t-0.5 4t-0.5 4v2q-1 3 -3 3.5t-4 0.5l-1.5 -0.5t-2.5 -0.5q0 -1 -1.5 -3.5t-3.5 -2.5q-3 0 -3 3v24l2.5 3t4.5 4
q1 1 3.5 1.5t4.5 1t3.5 1t1.5 1.5v1l-12 12q-1 5 -4 11t-3 11q0 2 1.5 3t3.5 1q1 0 2 -4t3 -9t5 -9.5t10 -4.5q4 0 5 4t1 8v1v1.5t-0.5 3.5t-0.5 4v2v1zM145 47q0 -4 2 -7t6 -3t4.5 2.5t0.5 5.5t-1 5t-5 2q-2 0 -4.5 -1t-2.5 -4zM75 43v-2t2 -2h12q1 0 1 2v2q0 5 -2.5 6.5
t-6.5 1.5q-3 0 -4.5 -2t-1.5 -6z" />
</svg>
