<?xml version="1.0" standalone="no"?>
<!DOCTYPE svg PUBLIC "-//W3C//DTD SVG 1.1//EN" "http://www.w3.org/Graphics/SVG/1.1/DTD/svg11.dtd" >
<svg xmlns="http://www.w3.org/2000/svg" xmlns:xlink="http://www.w3.org/1999/xlink" version="1.1" viewBox="-10 0 266 256">
   <path fill="currentColor"
d="M51 232q0 2 0.5 3t1.5 2h18q33 0 65 -1.5t64 -0.5q3 1 3.5 -1.5t0.5 -3.5q0 -2 -0.5 -4.5t-3.5 -2.5h-46q0 -9 0.5 -17.5t0.5 -16.5v-2q0 -1 -0.5 -3.5l-0.5 -2.5v-65q0 -1 2.5 -2.5t6.5 -3t7 -3t4 -1.5q5 -4 8 -12t4 -17t1 -18v-15v-18q-1 -4 -2.5 -6.5t-5.5 -2.5
q-3 0 -4 2.5t-2 6t-1 6.5v5q0 4 1 7t1 6v12.5t-1.5 17t-5 14.5t-10.5 6h-54q-2 0 -3.5 -1.5t-3 -3.5t-2.5 -4t-1 -4v-4t-0.5 -6.5t-0.5 -6.5v-4q0 -2 -0.5 -9t-0.5 -15v-14v-10h-2t-2.5 0.5t-3 0.5h-1.5q-1 0 -1.5 0.5t-0.5 1.5v64q1 3 1.5 5.5l1 5t1.5 5.5t3 5q1 1 4.5 3
t7.5 3.5t6.5 3.5t2.5 5v2v2.5t-0.5 5t-1 4.5t-0.5 3v44q0 1 -0.5 3.5t-0.5 3.5v29q0 1 -1.5 2.5t-3 2.5t-3 1.5t-2.5 0.5h-38q-3 0 -4.5 2.5t-1.5 4.5zM117 216q0 -25 1 -49t0 -49l2.5 -2.5t2.5 -1.5h20v36l-0.5 2t-0.5 3v1v1q0 1 0.5 3.5l0.5 2.5v60h-25l-1 -2v-5zM75 209
q0 2 0.5 4t3.5 2t5.5 -3.5t3.5 -7.5t1.5 -8.5t0.5 -6.5v-17v-9v-9.5t-0.5 -9t-1.5 -10.5l-1 -1l-2 -2l-2 -2l-1 -1h-2h-2t-1 1v20q0 9 0.5 18t0.5 18q0 6 -1.5 12t-1.5 12zM174 203q0 1 1 3t3 2q3 0 4.5 -2.5t2 -6t0.5 -7.5v-5q0 -11 -0.5 -21t-0.5 -20q0 -3 0.5 -5t0.5 -5
t-1.5 -6.5t-5.5 -3.5q-1 0 -2.5 1.5t-2 3t-1 3.5t-0.5 3v1v10t0.5 15.5t1 15.5t0.5 10q0 1 0.5 2.5t0.5 2.5v1.5t-0.5 3t-0.5 2.5v2zM98 58q4 2 7 2h7q13 0 24.5 -0.5t25.5 -1.5q1 -1 2 -2.5t1 -3.5q0 -1 -1.5 -2t-3.5 -1.5t-3.5 -0.5h-1.5q-1 0 -5.5 -0.5t-8.5 -0.5
q-5 0 -9 0.5t-5 0.5l-4 -2l-1.5 0.5t-4 1l-5 1t-4.5 1.5q-1 0 -2.5 0.5t-3.5 1t-3 2t-1 2.5v2z" />
</svg>
