<?xml version="1.0" standalone="no"?>
<!DOCTYPE svg PUBLIC "-//W3C//DTD SVG 1.1//EN" "http://www.w3.org/Graphics/SVG/1.1/DTD/svg11.dtd" >
<svg xmlns="http://www.w3.org/2000/svg" xmlns:xlink="http://www.w3.org/1999/xlink" version="1.1" viewBox="-10 0 266 256">
   <path fill="currentColor"
d="M186 243q0 2 1 4.5t4 2.5t4.5 -3t1.5 -5q1 -1 1.5 -4l1 -6t0.5 -5v-2q0 -1 0.5 -3.5t0.5 -6.5v-7v-6v-4.5v-6.5q0 -4 -0.5 -7t-0.5 -5q-2 -3 -4 -9t-3.5 -13t-2.5 -13.5t-1 -10.5v-4t0.5 -6t2 -5t4.5 -2h0.5h0.5q7 10 9 21.5t1 22.5q0 1 0.5 1.5t1.5 0.5v0h1
q1 -1 2.5 -1.5l1.5 -0.5v-28l-1 -1.5t-1.5 -3.5t-1.5 -4.5t-1 -3.5q-4 -8 -8.5 -12.5t-8.5 -9.5t-6 -10.5t-2 -14.5l-1 -0.5t-2 -0.5v-0.5t-1 -0.5l-0.5 0.5l-0.5 0.5l-1 1l-2 2v2.5v3.5q0 5 1.5 8t3.5 6.5t4 6.5t4 7q-5 8 -6.5 15t-1.5 16q0 5 1 11.5t2 11.5q2 4 4.5 7.5
t2.5 8.5v47q0 2 -1 4.5t-2 4.5t-1.5 4t-0.5 5zM63 203v3l1 3l1 3q0 2 0.5 7l1 10l1 10t0.5 6q1 1 2 1h2q4 0 5 -2.5t1 -6.5q0 -12 -2 -23.5t-2 -23.5v-4v-7v-6.5v-4.5q1 -1 2.5 -4.5t3 -7.5l3 -8t1.5 -5q1 -3 1.5 -5t0.5 -4v-4v-5v-3v-3v-3.5v-2.5q-1 -1 -2 -3t-2 -3v-1
q0 -4 2 -6.5t2 -6.5v-5v-6t-1.5 -5.5t-3.5 -2.5q-2 1 -2.5 2t-0.5 3q0 3 0.5 5t0.5 4q0 6 -2 9t-5 5t-6 3.5l-5 2.5q-2 3 -3.5 6.5l-3 7t-2.5 7t-3 6.5v30l0.5 0.5t0.5 1.5h1h1q0 -1 1.5 -2t1.5 -2q-1 -10 0.5 -18t4.5 -18q0 -1 1.5 -3.5t3 -4.5t3.5 -3t4 -1q4 0 5.5 2.5
t1.5 5.5q0 7 -1.5 12.5t-3.5 11t-4.5 11.5t-3.5 12q0 1 -0.5 4.5t-1 8.5t-1 9.5t-0.5 7.5v3zM157 53v183q0 1 1.5 1h2.5q4 0 5 -2t1 -6l-1 -53v-5q0 -2 -0.5 -7.5t-1 -12t-0.5 -12v-7.5q0 -4 -0.5 -12t-0.5 -18v-20v-21q0 -10 0.5 -18t0.5 -12q-1 -7 -6.5 -12t-13.5 -5
q-4 0 -11 0.5t-14.5 2t-13 4.5t-5.5 9l-1 29v174q0 2 0.5 2.5t2.5 0.5q3 0 3.5 -3.5t1.5 -6.5v-4v-8v-7v-5v-7.5v-9.5t-0.5 -9.5t-1.5 -8.5v-111q1 -3 1.5 -5t0 -4.5t-0.5 -5.5t1 -7t4.5 -6.5t8.5 -3.5t10 -1h8h2h3h3.5h2.5l2.5 1t2.5 2zM120 143l4 5h3h5h8.5t8.5 -2v-30
v-9.5v-11.5t-0.5 -12t-1.5 -11q0 -2 -1.5 -2h-2.5q-3 0 -3.5 2t-0.5 4q0 4 1.5 7.5t1.5 7.5l0.5 3t-1.5 3q-1 0 -3 0.5t-3 0.5t-3 -0.5t-3 -0.5l-1.5 -0.5l-1.5 -0.5l-3 -24l-0.5 -0.5t-1.5 -0.5q-2 0 -3 1.5t-1.5 3t-0.5 3.5v4q0 4 2 8t2 9v9v13v12v9zM124 137v-2
q0 -2 0.5 -6t1 -9t0.5 -9.5v-6.5h15q0 6 0.5 13.5t0.5 14.5v5t-3 3h-13q-1 0 -1.5 -1t-0.5 -2zM44 80q0 3 3 3q4 0 7 -2l6 -4q6 -4 10 -7.5t7.5 -7.5t5 -9t1.5 -13q0 -3 -1.5 -8t-4.5 -10.5t-6.5 -9t-7.5 -3.5q-2 0 -4 1.5t-2 3.5t3 5.5t6.5 7.5t6 9t2.5 10t-2.5 8.5t-6 6
t-7.5 4t-7.5 4t-6 5t-2.5 6.5zM178 47q0 3 3.5 7.5t8 9t9.5 8t8 3.5q2 0 4.5 -0.5t2.5 -2.5q0 -4 -4.5 -6.5t-9.5 -6t-9.5 -8.5t-4.5 -11v-1q2 -2 5.5 -4t6.5 -5l5.5 -5.5t2.5 -5.5t-2 -4t-5 -1q-4 0 -7.5 4t-6.5 9t-5 11t-2 9zM116 46q0 1 1 1.5t3 0.5h1h7.5t8.5 -0.5
t7 -0.5h3l3 -3q0 -3 -2 -3h-4h-6q-4 0 -9 0.5t-9 1.5t-4 3z" />
</svg>
