<?xml version="1.0" standalone="no"?>
<!DOCTYPE svg PUBLIC "-//W3C//DTD SVG 1.1//EN" "http://www.w3.org/Graphics/SVG/1.1/DTD/svg11.dtd" >
<svg xmlns="http://www.w3.org/2000/svg" xmlns:xlink="http://www.w3.org/1999/xlink" version="1.1" viewBox="-10 0 266 256">
   <path fill="currentColor"
d="M55 245v3.5t3 2.5q6 -4 10.5 -11t7.5 -15.5t5 -16.5t4 -14q0 -3 1 -10.5t1.5 -15.5t1 -15.5t1.5 -10.5v-16v-16q-2 -5 -7 -8t-11 -3t-11.5 4t-9.5 9.5t-6 12t-2 11.5q0 3 1 3.5t3 0.5t4.5 -3.5t5 -9t6 -10.5t7.5 -8l1 -0.5t2 -0.5q4 0 5 1.5t2 5.5v21q0 23 -3.5 42.5
t-11.5 40.5l-3.5 7l-3 6t-2.5 6t-1 7zM167 137q0 6 2 12t3 12l2 18t2.5 18t4 18t6.5 17l1 1t1.5 2t1.5 2l1 1q1 1 1.5 3.5t1 4.5t2 3.5t3.5 1.5t5 -1.5t4 -3.5q0 -2 -2 -6.5t-4.5 -9.5l-5 -10l-3.5 -7q-1 -4 -2 -7.5t-2 -6.5l-2 -6t-2 -7q-2 -8 -3.5 -15t-2.5 -13.5
t-1.5 -13.5t-0.5 -14v-3t0.5 -4t0.5 -3.5v-1.5l8 -8l3 1t4 2q2 2 3.5 5t2.5 6.5t3 6t5 2.5t3.5 -3t0.5 -5q0 -5 -2.5 -9.5t-6 -8t-8.5 -5.5t-10 -2q-6 0 -9.5 4.5t-5.5 10.5t-2.5 12.5t-0.5 9.5zM118 165q-1 0 -3.5 0.5t-4.5 0.5h-4.5t-2.5 1q-1 0 -2.5 1t-3 1.5t-2.5 1.5
l-1 1v5q16 0 29.5 -1.5t30.5 -0.5q2 -1 3.5 -2t1.5 -3q0 -1 -0.5 -3t-2.5 -2h-22l-1 -1q-1 0 -1 -2.5t-1 -5.5t-1 -6t-1 -5v-1.5v-1.5t0.5 -3.5t3.5 -2.5h16q1 0 1.5 -1.5t0.5 -2.5t-0.5 -2.5t-1.5 -1.5h-18v-33h21q3 0 4.5 -2.5t1.5 -4.5h-24l-0.5 -0.5t-0.5 -1.5
q-1 0 -1.5 -2l-0.5 -2v-28h20q1 0 1.5 -2t0.5 -3q0 -2 -0.5 -3t-3.5 -1h-18v-30q0 -1 -2.5 -2l-2.5 -1h-1h-1l-0.5 0.5t-0.5 1.5q-2 5 -2 8.5v7.5v8v10h-22q0 3 2.5 4.5t6 2.5t7 1h4.5l2 2v27l-0.5 0.5t-1.5 0.5q-4 3 -9.5 3t-9.5 1l-6 4q2 3 4.5 3h5.5t6 -0.5t6 -0.5h3t2 1
v27q0 1 -1 2.5t-2 2.5q-1 0 -3.5 0.5t-4.5 0.5t-4.5 0.5l-2.5 0.5q-3 0 -4 0.5t-1 2.5t1.5 3t3.5 1q0 1 2.5 1h4.5h4.5t3.5 -1q3 2 4 6t1 7t-0.5 8t-4.5 6zM50 84q0 2 0.5 4t3.5 2q2 0 8 -3.5t12 -7.5t11 -9t5 -7v-18l-1 -1t-1 -2q-4 -4 -6 -7t-4.5 -4.5t-6 -2.5t-8.5 -1
q0 5 2.5 8t5.5 6.5l6 7t3 8.5v1q-2 4 -6.5 7.5t-10 7t-9.5 6.5t-4 5zM174 51q0 4 2.5 10t7 11.5t10 9.5t10.5 4q2 0 5 -3t3 -5q0 -3 -4.5 -5t-9.5 -4.5t-10 -6t-6 -9.5q-1 -4 2 -7t6.5 -6t6.5 -6t3 -7v-5t-3 -2t-7 4t-7.5 9.5t-6 10.5t-2.5 7z" />
</svg>
