<?xml version="1.0" standalone="no"?>
<!DOCTYPE svg PUBLIC "-//W3C//DTD SVG 1.1//EN" "http://www.w3.org/Graphics/SVG/1.1/DTD/svg11.dtd" >
<svg xmlns="http://www.w3.org/2000/svg" xmlns:xlink="http://www.w3.org/1999/xlink" version="1.1" viewBox="-10 0 266 256">
   <path fill="currentColor"
d="M122 208q1 2 4.5 6t7 8.5t7 8l5.5 5.5q6 7 12 11t14 4h5l1.5 -1.5l0.5 -0.5v-1q0 -3 -4 -6.5t-9.5 -7.5t-10.5 -7.5t-8 -6.5l-6 -8t-5.5 -7t-6 -6.5l-7.5 -7.5v-5q9 -4 13 -13t6.5 -19.5t3 -20.5t1.5 -17q0 -4 0.5 -5t3.5 -1q2 0 5 4.5t6.5 10t6 11t3.5 7.5q1 1 2.5 5.5
t4 10t4 10t2.5 5.5q1 3 1.5 3.5t3.5 0.5t4 -2t1 -5q0 -2 -3 -8t-7 -14.5t-9 -17.5t-10 -16.5t-9 -12.5t-7 -5q-2 0 -4 1.5t-3.5 4t-2.5 4.5l-2 4l-6 42q-1 1 -2 5l-2 8t-3 7t-4 3t-3.5 -2.5t-2.5 -6.5t-1.5 -7.5t-0.5 -4.5v-53q0 -1 -1 -2t-2.5 -2t-3 -1.5t-2.5 -0.5
q-5 0 -10.5 4t-10 11t-9 15t-7.5 16.5t-4.5 16t-1.5 11.5t0.5 5t4.5 1q1 0 3.5 -5t5 -13t5.5 -16.5t6.5 -16.5t7.5 -13t7 -5h1q0 1 1 1.5l1 0.5q-1 9 -1 19t1 20t2.5 19.5t5.5 18.5q2 6 5 11.5t6 10.5zM126 47q6 0 14.5 4.5t17 10t15.5 12t12 11.5q2 1 4 2.5l4 3t3.5 2.5
l1.5 1h7q0 -8 -5.5 -15t-14 -12.5t-18 -10.5t-17.5 -9.5t-14 -8t-6 -7.5v-2.5t0.5 -3.5t0.5 -3.5v-2.5h0.5h0.5q0 -1 -0.5 -1h-0.5l-3.5 -3.5t-4.5 -1.5q-1 0 -2.5 0.5t-1.5 2.5v20q0 2 -2 3.5t-5 2.5t-5.5 1.5t-3.5 1.5q-13 9 -25.5 19t-25.5 19q-1 1 -1.5 2.5t-0.5 3.5
t1 3t4 1h3q15 -9 28.5 -20t27.5 -21l2 -1t3.5 -2t3 -1.5t2.5 -0.5h1z" />
</svg>
