<?xml version="1.0" standalone="no"?>
<!DOCTYPE svg PUBLIC "-//W3C//DTD SVG 1.1//EN" "http://www.w3.org/Graphics/SVG/1.1/DTD/svg11.dtd" >
<svg xmlns="http://www.w3.org/2000/svg" xmlns:xlink="http://www.w3.org/1999/xlink" version="1.1" viewBox="-10 0 266 256">
   <path fill="currentColor"
d="M153 249v2h4.5h4.5q2 -1 5 -7.5t6.5 -17t7.5 -23t6.5 -23.5t4.5 -20t2 -13q-1 -7 -4.5 -13l-7 -12t-6.5 -11.5t-3 -12.5q0 -5 2 -10t4 -9.5t3.5 -8.5t1.5 -9q-5 0 -8.5 3.5t-6 9.5t-3.5 12t-1 10t0.5 7.5t1.5 6t3 5.5t5 7v4q-1 1 -3.5 4.5t-5 8t-5 8t-3.5 5.5q0 1 -1.5 4
l-3 6t-3.5 6t-2 4q-1 2 -4.5 6.5l-7 9t-6 8.5t-2.5 5t1 1.5t3 0.5t4.5 -1.5t4.5 -3.5l4 -4t3 -4l24 -44q1 -3 2.5 -4.5t3.5 -1.5q4 0 6 4v6q0 10 -3.5 23.5t-8 27.5t-10 27t-9.5 21zM74 140q0 10 1 19t2.5 17t4 16.5t6.5 17.5q1 4 5 10.5t8.5 12.5t9.5 10.5t10 4.5
q2 0 4 -1.5t2 -3.5q0 -1 -0.5 -1.5l-0.5 -0.5q-1 -3 -4 -5.5t-6.5 -5t-6.5 -5t-4 -4.5q-2 -1 -4.5 -6.5t-5.5 -12t-5 -12t-2 -6.5v-0.5v-0.5l1 -1.5t2 -3.5t2 -3t1 -2q1 0 1.5 -1t0.5 -2q1 -9 2 -19t1.5 -20t2 -19.5t4.5 -18.5q0 -1 1 -2t1 -2h1h1q0 1 0.5 2.5t1.5 3.5
t2 3.5t1 2.5t-0.5 4l-1 6t-0.5 6v4v8l-0.5 1t-1.5 1v13v15q0 1 0.5 4t0.5 5.5t0.5 4.5l0.5 2l3 3l2 -1q0 -1 0.5 -2.5t0.5 -4.5t0.5 -5.5t0.5 -4.5q0 -15 1 -30.5t1 -30.5v-6t-1 -5.5t-3 -4.5t-6 -2q-7 0 -10.5 4.5t-3.5 10.5q-1 8 -2 17.5t-1.5 20t-2 20t-4.5 18.5h-2
q-1 0 -2 -0.5t-1 -1.5t-0.5 -3.5t-1 -5.5t-0.5 -5.5v-3.5v-3q0 -15 2.5 -30.5t6.5 -30.5v-1q0 -3 -3.5 -6t-6.5 -3q-12 0 -18 7t-9 17t-4.5 20.5l-2.5 17.5q-1 2 -1.5 6l-0.5 4v7.5v11.5v11v7q2 0 4.5 -0.5t3.5 -1.5q1 -17 2 -32.5t4 -31.5q0 -5 1.5 -10.5t4 -10.5t6 -8.5
t9.5 -3.5q0 7 -0.5 13.5t-1.5 12.5t-1.5 12.5t-1.5 13.5zM128 129l1.5 1.5t2.5 1.5q2 1 3.5 -1.5t3.5 -5.5t3 -6.5t1 -4.5l1 -2t1.5 -3.5t1.5 -3.5t1 -3q1 -6 2 -15l2 -18t1 -17.5v-16.5v-16l-1.5 -1.5t-1.5 -2.5h-1h-1q-2 1 -3.5 2.5t-1.5 3.5v1q0 1 0.5 4.5t0.5 7.5t0.5 8
t0.5 5v4v4q0 2 -0.5 7.5t-1 12t-1 12t-0.5 8.5q-3 3 -4 6.5l-2 7l-2 7t-2 6.5q-1 2 -2.5 4.5zM197 88q1 5 3 9t4 9q0 4 0.5 8t1.5 7t3.5 5t7.5 2q0 -6 -1 -11.5t-3 -11t-4 -11.5t-4 -11q-2 -8 -3.5 -17.5t-2 -19t0 -18.5t0.5 -17q0 -1 -1.5 -1.5l-1.5 -0.5q-1 0 -3 1t-2 2
t-0.5 3t-1 4.5t-0.5 4.5v3v2q0 4 0.5 9.5t1.5 9.5q0 3 0.5 8.5t1.5 11.5l2 12t1 8zM91 11q-2 0 -4.5 1t-2.5 3v20q0 2 -6 5l-14 7t-14.5 9t-6.5 12q7 0 12.5 -2.5t11 -6.5t10.5 -8t11 -7q0 -1 1 -1h2q5 0 9 3l8 6q1 0 3.5 2t5.5 3.5t5.5 3.5t3.5 2h1.5h0.5q4 0 4 -3t-2 -5
q-7 -5 -13.5 -8t-13.5 -7q-1 0 -2 -0.5t-2.5 -1t-3 -1.5t-1.5 -2v-23q0 -1 -1 -1h-2z" />
</svg>
