<?xml version="1.0" standalone="no"?>
<!DOCTYPE svg PUBLIC "-//W3C//DTD SVG 1.1//EN" "http://www.w3.org/Graphics/SVG/1.1/DTD/svg11.dtd" >
<svg xmlns="http://www.w3.org/2000/svg" xmlns:xlink="http://www.w3.org/1999/xlink" version="1.1" viewBox="-10 0 266 256">
   <path fill="currentColor"
d="M152 160q1 4 2.5 12.5t3 18.5t4 20.5t5.5 19t7 14t9 5.5q2 0 3 -1.5t1 -3.5q0 -3 -0.5 -6t-2 -5t-3 -4.5t-3.5 -5.5l-4.5 -9t-4.5 -10.5t-3 -11t-1 -10.5q0 -1 2 -4.5t5 -7.5t5 -7t3 -4q7 -2 13 -6.5t9 -12.5t4 -16t1 -16q0 -2 -0.5 -5.5l-0.5 -3.5q0 -1 -0.5 -3.5
t-1.5 -6t-2 -6.5t-1 -5q-2 -5 -6 -9t-8.5 -6t-10 -4t-9.5 -5q-1 0 -1.5 -0.5l-0.5 -0.5v-2t-0.5 -3.5t-0.5 -3v-2.5q-3 -6 -5.5 -9t-4.5 -6t-4 -6.5t-3 -11.5l-1 -0.5l-1 -0.5q-3 0 -3.5 2t-0.5 5q0 6 2.5 10.5l5 9t4.5 9t2 10.5v5q-5 2 -10.5 5.5t-9.5 8.5t-7 10.5t-3 11.5
v5q0 3 0.5 8t0.5 9.5t0.5 8t0.5 4.5q0 2 0.5 5.5t2 7.5t3.5 6.5t5 3.5q2 1 3.5 1t3.5 1l4 2t3 2zM75 134q0 4 1 13.5t2.5 21t4 23.5t6 22t8 16.5t9.5 6.5h4t2 -3v-1v0q-1 -1 -3 -4t-4 -6.5t-4 -6.5t-2 -4q-2 -2 -3 -6t-2 -7.5t-1.5 -7t-1.5 -6.5q-2 -5 -4 -11t-2 -12
q0 -3 1 -4.5t2.5 -2l3 -1t2.5 -3.5q1 -1 1.5 -2.5t1.5 -3.5t1.5 -3.5l0.5 -1.5v-49q0 -2 1 -3.5t3 -1.5t3.5 7t2 16l1 18t1.5 13q0 4 0.5 10t1.5 12t1.5 10l0.5 4h7q1 0 1.5 -1.5t0.5 -2.5v-0.5v-0.5q-1 -5 -2 -9.5t-2 -8.5t-2 -8.5t-2 -10.5q-1 -14 -2 -26.5t-2 -25.5
q-1 -2 -3.5 -3.5t-4.5 -1.5q-7 0 -9 4.5t-2 10.5v45q0 3 -2.5 6t-5.5 3h-0.5h-0.5l-2 -11l3 -41l2 -5v-1q0 -5 -3.5 -9.5t-9.5 -4.5h-1q-8 4 -12.5 13.5t-6.5 20.5t-1.5 22.5t0.5 19.5q0 2 -0.5 7t0 10t1.5 9t3 4q4 0 5 -2t1 -6q0 -8 -1 -16.5t-1 -17.5v-4t0.5 -6t0.5 -5v-4
q1 -3 1.5 -9t1.5 -12t3 -10.5t8 -4.5q2 0 3 1t1 3q0 12 -2.5 23.5t-2.5 23.5zM158 110v-13q1 -2 1 -5q0 -4 -4 -4q-1 0 -3 0.5t-2 2.5v59q-7 0 -11 -4.5t-5.5 -11t-1.5 -13.5v-12v-3v-5q0 -2 0.5 -4t0.5 -3q0 -8 5 -14t11 -10q5 -1 8.5 -3.5t9.5 -2.5l1.5 0.5t3.5 1.5l3 1.5
t2 1.5q6 3 10 8t6 10.5t2.5 12t0.5 13.5v9t-1.5 12.5t-4 11t-7.5 4.5h-2t-1 -1v-15q0 -8 1 -16t1 -17v-2q0 -2 -0.5 -4t-0.5 -3v-3q-1 -2 -2 -2.5t-2 -0.5t-2 0.5t-1 1.5v30.5t-1 31.5q-1 2 -1.5 5t-1.5 5.5t-2.5 4t-4.5 1.5h-1h-1q-1 -2 -1.5 -8t-1 -13t-0.5 -13v-9v-13z
M48 66v7h5q1 -1 4 -3.5t6 -5.5t6 -5.5t4 -3.5q4 -3 8 -5t9 -2h3.5t3.5 2q1 0 3.5 2.5t5.5 4.5t5.5 4t3.5 3l1 0.5t2 1.5h1q1 0 2 -1t1 -2q0 -5 -4.5 -8.5t-10.5 -6.5l-11 -5.5t-5 -6.5v-24l-4 -4l-5 4v27l-0.5 0.5t-0.5 1.5q-8 6 -16.5 12t-16.5 13z" />
</svg>
