<?xml version="1.0" standalone="no"?>
<!DOCTYPE svg PUBLIC "-//W3C//DTD SVG 1.1//EN" "http://www.w3.org/Graphics/SVG/1.1/DTD/svg11.dtd" >
<svg xmlns="http://www.w3.org/2000/svg" xmlns:xlink="http://www.w3.org/1999/xlink" version="1.1" viewBox="-10 0 266 256">
   <path fill="currentColor"
d="M153 242q2 1 4 2.5t4.5 2.5t4.5 2t4 1q6 0 6 -6v-1l-1 -1q-12 -6 -22 -16l-20 -20q0 -1 -1.5 -3.5t-1.5 -3.5v-1q0 -1 1.5 -2.5t4 -3.5t5 -4.5t3.5 -4.5q0 -1 0.5 -4.5t1.5 -7.5t1.5 -7.5t1.5 -5.5q1 -4 1.5 -5t4.5 -1q5 0 8 3.5t5.5 9t4.5 12t3.5 11.5t4 9t5.5 4t4 -2.5
t1 -5.5v-1.5v-2.5q-2 -5 -5 -13t-8 -15t-11 -12t-14 -5q-6 0 -9 5q-2 6 -3 12t-2.5 11.5t-4 10.5t-7.5 10q-3 -2 -5 -6.5t-3 -10t-2 -12t-2.5 -12t-3.5 -9t-6 -3.5q-1 0 -3.5 1.5t-5 4t-4.5 5t-3 3.5q-8 11 -11 25.5t-3 27.5q0 3 1.5 4.5t3.5 1.5q3 0 4 -1.5t2 -3.5v-3.5
v-5.5v-6v-4q0 -2 1.5 -8t3.5 -12.5t5 -11.5t6 -5h0.5h0.5l2 2l1 1l11 39q2 7 6 13.5t9 13t10.5 12t10.5 9.5zM87 129q0 2 0.5 3.5t3.5 1.5h1q1 0 2 -1q3 -5 7.5 -10.5t10.5 -7.5h2.5t3.5 0.5t4 0.5h2v19q5 0 7 -2t3 -5t0.5 -7t0.5 -8q1 -1 4 -1.5t5.5 -0.5t4.5 -1t2 -3
q0 -3 -3 -4t-5.5 -1t-5.5 -0.5t-3 -3.5t2.5 -5t5.5 -2q9 0 14.5 3t9 7.5t6 9.5t4 9.5t3.5 7.5t5 3t3.5 -2t0.5 -4v-1v-2q-3 -11 -10.5 -19.5t-15.5 -15.5q-6 -2 -13.5 -2.5t-12.5 -0.5l-1.5 -1.5t-0.5 -1.5q0 -5 4 -7t8.5 -4t8 -4.5t3.5 -9.5q0 -2 -0.5 -3.5t-2.5 -2.5h-18
h-18h-3.5t-4.5 0.5t-3.5 0.5h-1.5l-3 3q1 3 3 3h4q6 0 13 -0.5t14 -0.5h2h3h3h2q1 0 2 0.5t1.5 0.5t0.5 1v0q0 1 -1 1l-2 1.5l-2 1.5q-1 0 -3 1l-4 2l-4 2l-2 1q-2 1 -2.5 3.5t-1.5 5.5t-2 5t-3 2h-24q-5 0 -6 -3l-2 -6l-2 -6t-5 -3q-2 0 -3 1.5t-1 3.5q0 3 1 6.5t3 7t5 6
t6 2.5h1h3.5t6 -0.5t6.5 -1t4 -0.5h3q4 0 4.5 2.5t0.5 5.5q0 4 -0.5 5.5t-2.5 2t-4.5 0.5h-5.5t-7.5 2.5t-8.5 5.5t-6.5 6.5t-2.5 7.5zM54 56q0 2 2.5 3t4.5 2q7 -3 16.5 -8t19.5 -9.5t19 -8t16 -3.5q9 0 16.5 3t14.5 6.5t14 6.5t16 3h4.5h4.5q2 0 2 -1v-2t-4.5 -2.5
t-11.5 -3.5t-15.5 -4.5t-15.5 -5t-12 -5t-6 -4.5q0 -2 -0.5 -4t-0.5 -3.5t-1 -2.5t-3 -1t-3 2t-2 4.5t-3 4.5t-5 3q-1 0 -3 0.5l-4 1l-4 1t-2 1.5q-11 4 -20 9t-20 9q-1 0 -3.5 1t-4.5 2l-4 2t-2 3z" />
</svg>
