<?xml version="1.0" standalone="no"?>
<!DOCTYPE svg PUBLIC "-//W3C//DTD SVG 1.1//EN" "http://www.w3.org/Graphics/SVG/1.1/DTD/svg11.dtd" >
<svg xmlns="http://www.w3.org/2000/svg" xmlns:xlink="http://www.w3.org/1999/xlink" version="1.1" viewBox="-10 0 266 256">
   <path fill="currentColor"
d="M95 220q0 3 1.5 8t3.5 10t5 9t8 4q3 0 5 -2t3 -5q-5 -4 -10 -11t-9.5 -15.5t-7.5 -17t-3 -15.5q0 -3 3 -6l6 -6t5.5 -6t2.5 -7v-59q0 -2 1.5 -3.5t3.5 -1.5t3 0.5t2 1.5q2 5 3 9.5t1.5 9.5l1 10t0.5 11v2v2l4 18t3 18l1 1t2 0q4 -1 4.5 -3t0.5 -5q0 -16 -3.5 -31.5
t-6.5 -30.5q-1 -4 -1 -10q0 -5 -2 -9q-2 -3 -4.5 -3.5t-5.5 -0.5q-9 0 -12.5 5.5t-3.5 13.5q0 7 0.5 15t0.5 15t-0.5 15t-3.5 15h-2h-1q-2 0 -2.5 -0.5t-1.5 -3.5q-1 -5 -1.5 -11t-0.5 -12v-12.5v-11.5v-4t-0.5 -7t-0.5 -7v-5q-3 -3 -5.5 -4.5t-6.5 -1.5q-7 0 -10.5 4
t-5 9.5l-3 11t-4.5 9.5v68q3 0 6 -1t4 -4v-19q0 -3 0.5 -11.5t1 -17.5t1 -17.5t1.5 -11.5q1 -4 3 -7t5 -3q4 0 5.5 2.5t1.5 6.5t-0.5 8t-0.5 6q0 4 -0.5 8t-0.5 8v3q0 1 0.5 6.5t1 11.5t1 11t0.5 7q0 3 0.5 10t2.5 14.5t4 14t6 8.5zM157 192q1 2 3 4l4 4t4.5 3.5t5.5 1.5v0
h1t4.5 -1l7 -2l7 -2t5.5 -1q0 -1 1 -1.5t2.5 -2t2 -2.5t0.5 -2v-77q0 -1 -1.5 -1.5l-1.5 -0.5h-1.5h-0.5q-1 1 -2.5 3l-1.5 2v25l-2 1l-2.5 0.5t-6 0.5t-7 0.5t-5.5 0.5h-5h-2h-2t-2 -1t-1 -2v-23l-1 -1.5t-2 -1.5l-0.5 -1l-0.5 -1h-1q-2 0 -3.5 2t-2 4t-0.5 4.5v3.5
q0 5 0.5 9t2.5 8q0 6 0.5 12t1 11.5t1 11.5t1.5 12zM166 187q-1 -4 -2 -7t-1.5 -6l-1 -6t-0.5 -7l0.5 -3l0.5 -3q2 -2 5 -3t6 -1h6.5h5.5h9q1 2 2 3.5t1 3.5v2q0 6 -0.5 11.5t-1.5 10t-4.5 7.5t-11.5 3q-4 0 -7 -0.5t-6 -4.5zM138 94v1q1 0 1.5 0.5t1.5 0.5q4 -1 7.5 -5.5
t6 -10.5t4 -12.5t3.5 -12t4.5 -9t6.5 -3.5q2 0 4.5 0.5t3.5 2.5q6 12 11 22.5t13 21.5q1 1 1.5 3t2.5 2q3 0 4.5 -2t1.5 -4q0 -1 -2.5 -5.5t-6 -11.5t-7.5 -14.5t-8 -14.5t-7 -12.5t-5 -7.5q-2 -3 -6 -3q-1 0 -5 6.5t-8 15t-7.5 16.5t-4.5 11l-0.5 2l-1 4l-1 4t-0.5 3
t-1 2.5t-2 3.5t-2.5 3.5t-1.5 2.5zM184 78h-6.5t-8 0.5t-6.5 2t-3 5.5h24l2 -1.5t3 -2.5v-1q0 -2 -1.5 -2.5t-3.5 -0.5zM44 75q0 1 1.5 2t2.5 1v0q5 0 10 -4.5t10.5 -10.5t11.5 -11t13 -5q2 0 4.5 0.5t3.5 1.5l28 25h0.5h1.5q2 0 3.5 -2t1.5 -5q0 -4 -3.5 -7.5t-8.5 -6.5
t-10 -5t-8 -4l-1.5 -1l-3 -2l-3 -2l-1.5 -1q-3 -2 -3 -6v-9t-1 -7.5t-6 -3.5q-2 0 -3.5 1t-1.5 3v3q0 1 0.5 3t1 5t1 5.5t0.5 3.5q-1 4 -4.5 7t-8.5 6l-10 6t-9 6t-6.5 6.5t-2.5 7.5z" />
</svg>
