<?xml version="1.0" standalone="no"?>
<!DOCTYPE svg PUBLIC "-//W3C//DTD SVG 1.1//EN" "http://www.w3.org/Graphics/SVG/1.1/DTD/svg11.dtd" >
<svg xmlns="http://www.w3.org/2000/svg" xmlns:xlink="http://www.w3.org/1999/xlink" version="1.1" viewBox="-10 0 266 256">
   <path fill="currentColor"
d="M115 193q0 12 3 20.5t8.5 15t13 12t16.5 10.5q2 -1 3.5 -2t1.5 -4q0 -2 -5 -6t-11 -8t-11 -8.5t-5 -9.5l2.5 -2t6.5 -4.5t7 -5.5t3 -5q2 -3 2 -8t1 -9t3.5 -7t8.5 -3h2q6 4 10 9.5t9 11.5q1 1 2 4.5t2.5 7t3.5 6t3 2.5h1q1 -1 2.5 -3t1.5 -4l-1 -3t-3 -7t-3.5 -7.5
t-2.5 -4.5l-3.5 -3.5l-5 -5l-5 -5l-3.5 -3.5q-8 -3 -16 -3q-6 0 -8.5 4t-4 10l-3 12t-3.5 9l-2.5 2.5l-3 3t-3.5 2.5l-2 1h-1v0l-2 -1v-6.5t-0.5 -9t-0.5 -9v-6.5q0 -1 -0.5 -2.5t-0.5 -3.5t-0.5 -3.5t-0.5 -2.5q-2 -3 -5 -3h-6h-8t-7 3t-10 10.5t-10.5 16t-8 16.5t-3.5 13
q0 2 1 4t3 2t5.5 -6t6.5 -13.5l6 -15t6 -10.5q1 -2 2.5 -4t4 -4.5t5 -4t5.5 -1.5t5 2.5t2.5 6l1 7t0.5 5.5h-0.5h-0.5v2v2t-0.5 2.5zM51 157q0 3 1.5 3.5t3.5 0.5q5 0 9.5 -3t8.5 -5q7 -2 14.5 -6t15 -7t15.5 -5.5t15 -2.5t14 2t14 4.5t13.5 5.5t12.5 5q3 1 5.5 3.5t6.5 2.5
q2 0 3.5 -0.5t1.5 -4.5q-1 -2 -5 -5t-11 -6t-15 -5.5t-15.5 -4.5t-14 -3t-9.5 -1l-2 -2q1 -3 1 -7t-0.5 -7.5t-3 -6t-7.5 -2.5v23q0 2 -5 4.5t-13 5.5t-17.5 6.5t-17.5 6.5t-13.5 6t-5.5 5zM60 118q0 2 1.5 3.5t3.5 1.5h0.5h0.5q2 -1 4 -3.5l2 -2.5l7 -20l1 -0.5t2 -0.5
l2 -0.5t4 -0.5t4.5 -0.5t4.5 -0.5h1v0l2.5 1t2.5 2v18q0 1 1 2t2 1h1q1 0 2 -1t1.5 -2.5l1 -3t0.5 -2.5q0 -11 0.5 -21.5l1 -21l1 -21t0.5 -20.5v-4.5t-1 -4.5t-2 -3t-4 -1q-2 0 -3 0.5t-1 2.5v26l-3 4h-19q-2 0 -2 -3.5v-7.5t-1.5 -8t-6.5 -4l-1 0.5t-2 0.5q-2 6 -1.5 12.5
t0.5 12.5t-3 12.5t-5 10.5q1 3 2.5 3h3.5q3 0 4.5 -2.5t2.5 -6l2 -7t4 -3.5q4 -2 8 -2h8h3h2l3 3v26q0 2 -1.5 3t-4 1t-4.5 0.5l-2 0.5h-3q-3 0 -3 -1q-2 0 -2.5 -2t-0.5 -5t-0.5 -4.5t-2.5 -1.5h-2t-1 1q-2 6 -3.5 11.5t-3 10.5t-4 10l-5.5 11v0.5v0.5zM136 89q0 3 2.5 3.5
t4.5 0.5h5q2 0 6.5 -0.5t9.5 -1t10 -0.5h6q2 -1 3.5 -1.5t1.5 -2.5v-1l-0.5 -1.5l-0.5 -1.5h-17q-1 0 -2 -1.5t-1.5 -3t-1 -3.5l-0.5 -2q0 -1 0.5 -4t1 -6.5t1 -6l0.5 -2.5h31l0.5 -1l0.5 -1v-1q0 -3 -3 -4.5t-4 -1.5h-26v-30q0 -3 -1.5 -4t-3.5 -1q-1 0 -2.5 0.5t-1.5 1.5
q-1 8 -1.5 17.5t-0.5 17.5q-3 2 -7 1.5t-8 -0.5t-8 0.5t-6 4.5q1 3 3 3h4q5 0 9.5 -1t9.5 -1v1q1 0 2 1l1 1v25q0 2 -2.5 2.5t-5.5 0.5t-6 0.5t-3 3.5z" />
</svg>
