<?xml version="1.0" standalone="no"?>
<!DOCTYPE svg PUBLIC "-//W3C//DTD SVG 1.1//EN" "http://www.w3.org/Graphics/SVG/1.1/DTD/svg11.dtd" >
<svg xmlns="http://www.w3.org/2000/svg" xmlns:xlink="http://www.w3.org/1999/xlink" version="1.1" viewBox="-10 0 266 256">
   <path fill="currentColor"
d="M102 165q2 0 3.5 3t2.5 8t1.5 11.5t1 12t1 10.5t1.5 8q2 3 5 9t6 9t7.5 5.5t9.5 4.5q2 2 4 3.5t6 1.5q2 0 4 -1.5t2 -3.5q0 -3 -4.5 -5.5t-10.5 -5.5t-10.5 -6t-4.5 -8q0 -2 2.5 -4t5.5 -4l6 -4t4 -5q2 -4 2 -10t0.5 -12t2 -10t7.5 -4q5 0 7.5 3t4.5 8q1 1 3 4.5t4 7.5
l4 8t3 5v4t1 4.5t2 4t3 1.5q3 0 3.5 -1.5t0.5 -4.5t-1.5 -8t-4 -11t-6 -11.5t-7.5 -10.5t-8 -7.5t-8 -2.5q-8 0 -11.5 2.5t-4.5 7.5t-1.5 10.5t-1.5 11t-3.5 10t-8.5 7.5h-2q-1 0 -2.5 -1t-2.5 -3t-2 -3.5t-1 -2.5v-29l-5 -10q0 -1 -1 -1.5t-1.5 -0.5t-2.5 -0.5t-3 -0.5v0
q-9 0 -16.5 6.5t-13 15.5t-9.5 18.5t-6 16.5v0v1l2 2l1 1h1q4 0 5.5 -3t2.5 -6q5 -13 11 -24.5t18 -20.5h2zM134 137v4q0 2 0.5 5t1.5 5t3 2h2t1 -1q2 -6 2 -13.5v-12.5q0 -1 1 -2l1 -1q1 0 5.5 2t9 4.5l9 5t5.5 3.5t2.5 2l3 2l3 2t2.5 2h1h1q4 0 4 -4t-3.5 -7.5t-9 -5.5
t-11.5 -4t-11.5 -4t-9 -4.5t-3.5 -5.5q0 -1 1.5 -3t2.5 -2h32q3 0 3.5 -1t0.5 -3v-2t-1 -1h-37q0 -1 -0.5 -4.5t-0.5 -4.5q0 -2 3.5 -2.5t8 -1t8.5 -1.5t5 -6q1 0 1 -3v-3q0 -5 -0.5 -7.5t-4.5 -5.5l-3 3l-3 13q-1 3 -3.5 3.5t-4.5 0.5t-5 -1t-3 -4v-20q0 -1 -2 -1h-2h-3.5
t-0.5 3v6.5v11.5v12v12v11v7q0 1 -0.5 3.5t-0.5 6t-0.5 6.5t-0.5 4zM112 126v21q0 2 1 2.5t2 0.5q3 0 5 -3v-11v-10q0 -5 -2 -10v-56q0 -2 -1.5 -3.5t-3.5 -1.5q-1 0 -1.5 0.5t-0.5 1.5q-1 4 -1 10q0 7 -2 11q-1 0 -1.5 0.5l-0.5 0.5h-11q-1 0 -1 -2v-5t-1 -5.5t-4 -2.5
l-1 0.5t-1 1.5v17q0 2 1.5 3t3.5 1.5t4 0.5h3h1l2.5 -0.5t3.5 -0.5q2 0 4 1t2 3q0 6 -3 8t-7.5 2.5t-10 0t-10 -0.5t-7.5 2t-3 7q9 0 17 -1t17 -1q6 0 6 6q0 2 -3.5 3.5t-8.5 3.5t-10.5 4t-10.5 4.5t-8 5t-3 5.5q0 2 0.5 3t3.5 1q5 0 9 -2.5t8.5 -6t9 -6.5t8.5 -4
q0 -1 2.5 0t3.5 1zM61 63l0.5 0.5l0.5 0.5q1 0 2.5 0.5t2.5 0.5q6 0 9.5 -3t8.5 -5q10 -4 22 -8t22 -7h1q4 0 11 1.5t14.5 4t14 5t10.5 4.5q3 1 5.5 4.5t6.5 3.5q3 0 3.5 -1.5t0.5 -3.5q0 -4 -4 -6.5t-9.5 -4.5t-11 -3.5t-8.5 -2.5q-3 0 -7.5 -1.5t-9.5 -3t-8 -3t-4 -1.5
l-1 -1q0 -2 0.5 -5t0 -6t-2 -5t-4.5 -2h-3q-1 0 -1 1v18q0 2 -5 4t-11.5 4t-14.5 4.5t-15 5t-11.5 5.5t-4.5 6z" />
</svg>
