<?xml version="1.0" standalone="no"?>
<!DOCTYPE svg PUBLIC "-//W3C//DTD SVG 1.1//EN" "http://www.w3.org/Graphics/SVG/1.1/DTD/svg11.dtd" >
<svg xmlns="http://www.w3.org/2000/svg" xmlns:xlink="http://www.w3.org/1999/xlink" version="1.1" viewBox="-10 0 266 256">
   <path fill="currentColor"
d="M131 247q1 0 2 1l2 2h1v0l2.5 -1t2.5 -2v-81l2 -8h0.5h0.5q4 0 5.5 3t1.5 7t0.5 8.5t1.5 6.5v51l0.5 0.5l0.5 0.5h0.5h0.5h0.5h0.5l0.5 -0.5l0.5 -0.5v-76q0 -4 -2.5 -6t-5.5 -3.5t-5.5 -4t-2.5 -6.5q0 -1 0.5 -5t0.5 -8t0.5 -8t0.5 -5q1 -1 2.5 -3t2.5 -2h1h1l1 1l2 2v4
v6t0.5 6t0.5 4q1 4 5 4v-50q0 -1 -1.5 -1.5l-1.5 -0.5q-2 0 -2.5 1t-0.5 4q0 1 -0.5 2.5t-0.5 3.5t0.5 3.5t0.5 2.5q-2 1 -3.5 1h-3.5h-3q0 -1 -0.5 -5.5t-0.5 -9t-0.5 -9t-0.5 -5.5v-3q0 -3 1.5 -3.5t3.5 -1t5 -0.5t5 -2t3.5 -6.5t1.5 -12.5q0 -4 -0.5 -7t-5.5 -3v21
l-1 0.5l-1 0.5q-1 1 -3 1.5l-2 0.5q-2 0 -3 -2t-1.5 -4t-0.5 -4v-3q0 -6 1 -12t1 -12q0 -2 -1 -4t-3 -2q-3 0 -4.5 1.5t-1.5 3.5v38q0 1 -1.5 1h-2.5h-1q0 -1 -1 -4t-2 -6.5t-2.5 -6t-3.5 -2.5t-2 1v3q0 10 2.5 16t13.5 8v10v12t-2 12h-1h-1q-3 0 -4 -2t-2 -4.5t-1.5 -5.5
t-3.5 -4l-1.5 1.5l-1.5 1.5v1v1l0.5 2t0.5 4t0.5 4t0.5 3q0 8 -2 16t-2 16q1 0 3 -0.5t2 -2.5l0.5 -2.5t1 -4.5t1 -4.5t1.5 -2.5q0 -3 1.5 -6.5t5.5 -3.5h2.5t1.5 2v32q0 3 -2 5.5t-5 4.5t-5.5 4.5t-3.5 5.5q-1 4 -2 13t-2 19t-2 19.5t-1 12.5v2v1q0 2 0.5 3t2.5 1q3 0 4 -2
t1 -3q1 -6 1 -12.5t0.5 -13l1 -13t1.5 -12.5v-5.5t1 -7t2.5 -6.5t4.5 -3h1q2 9 2 15.5v14.5v17q0 2 -0.5 8t-0.5 12.5t-0.5 12t-0.5 8.5l-1 2t-1 3zM63 124q0 14 1 27t3 26t6 25.5t10 24.5q1 3 3 6.5t3.5 7t4.5 5.5t6 2q2 0 4.5 -1t2.5 -4l-0.5 -1t-0.5 -2q-1 0 -2.5 -2
t-3 -3.5t-3 -3.5t-1.5 -3q-1 0 -2 -3t-3 -7t-3.5 -8t-3.5 -6q-1 -4 -3 -8.5t-3.5 -9.5l-3 -10t-1.5 -9q0 -1 1.5 -3t3 -5l3 -6t2 -5t1.5 -5.5l2 -7t1.5 -6l0.5 -2.5q0 -2 0.5 -7l1 -10t1 -9.5t0.5 -6.5q1 -1 2 -3.5t1 -3.5l0.5 -2t1.5 -3h0.5h0.5q1 0 1.5 1.5t1 3.5t1 3.5
l0.5 1.5v1.5v3.5v3v3v3v4v3.5v1.5q0 1 -0.5 5.5t-0.5 9.5t-0.5 9.5t-0.5 5.5q0 7 2 13.5t2 14.5h5v-7v-9t-0.5 -9.5t-1.5 -7.5v-64q0 -2 -2.5 -2h-3.5q-5 0 -8.5 1.5t-5.5 6.5q0 2 -1 7t-1.5 10.5t-1 10.5t-1 6.5t-0.5 6.5t-0.5 9.5t-2.5 8.5t-5 4h-1q-2 -4 -2 -6v-6
q0 -10 1 -20.5t2 -18.5q2 -3 2 -5v-4v-4.5t-1 -5t-2.5 -4t-4.5 -1.5q-5 0 -7.5 2.5t-4.5 6t-3 7.5t-1 8q-1 1 -1 5t-0.5 8t-0.5 8v5q-2 3 -3 9.5t-1.5 14.5t-0.5 15.5v11.5v4v5.5t1 4t4 1.5t4.5 -7.5t2 -19t0.5 -24.5t0.5 -24.5t1.5 -19t5 -7.5v0h1l0.5 0.5l0.5 0.5v4v4
q0 3 0.5 6t-1.5 6q0 1 -0.5 4t-0.5 6v5v4zM185 245q0 2 1 3t2.5 1t3 0.5t2.5 0.5q0 -15 -1.5 -30t-1.5 -29v-5q0 -2 0.5 -5.5t1 -7.5t0.5 -8v-5t0.5 -1.5t1.5 -0.5l1.5 0.5t1.5 1.5q4 8 5.5 17t2 18.5t0 18.5t-0.5 18q-1 3 0 4t2 1q3 0 4 -2.5t1 -5.5v-4v-12t-0.5 -16
t-0.5 -14v-7q0 -3 -0.5 -6.5t-1.5 -7.5t-2.5 -7.5t-3.5 -4.5q-1 -1 -2 -1.5l-3 -1.5t-3.5 -1.5t-1.5 -1t-1 -1l-1 -0.5v-3v-3v-7t0.5 -6.5l1 -7t0.5 -7.5q1 -2 2.5 -2h2.5q4 0 5 3.5t1.5 8.5t1 8.5t5.5 3.5l0.5 -0.5l0.5 -0.5v-6q0 -7 -0.5 -15t-0.5 -15v-2q0 -1 0.5 -4
t0.5 -4v-1q0 -3 -1 -5.5t-3 -2.5t-3.5 1t-1.5 3v18q0 2 -2 2.5t-4 0.5t-4 -1t-2 -4v-28l1.5 -0.5t2.5 -0.5q9 -3 13 -7.5t4 -14.5v-3v-2t-0.5 -4t-0.5 -4v-3l-0.5 -1t-1.5 -1h-1v0q-1 0 -2 1.5t-1 2.5q-1 2 -1 7t-1 9.5t-3 7.5t-7 3l-1 -0.5l-1 -0.5v-43q0 -1 -1.5 -1.5
t-2.5 -0.5q-3 0 -3.5 1.5t-0.5 5.5v38l-1 1q-3 -2 -5 -4.5t-2.5 -5.5t-0.5 -6.5v-7.5l-2 -2h-1h-1q0 1 -1.5 2t-1.5 2v0v1q0 1 0.5 4.5l1 7l1 7t0.5 4.5q1 4 3.5 5l5 2t4.5 2.5t2 5.5l-2 25q0 1 -1 1h-3q-3 0 -3.5 -2.5t0 -5.5t0 -5.5t-3.5 -2.5h-1.5t-1.5 1v35
q-1 1 -1.5 3.5t-0.5 3.5l0.5 1.5t1.5 1.5v0v0q4 0 4.5 -3.5t0.5 -4.5v-3t0.5 -4t0.5 -4v-2q1 -2 1.5 -2h1.5q2 0 4.5 2t2.5 5v33l-0.5 0.5t-1.5 0.5q-9 6 -12.5 16t-4.5 21.5t-0.5 23.5t-1.5 21v1q0 2 1.5 3t3.5 1h2t1 -1q1 -6 1.5 -11t0.5 -10v-11v-11v-7t1 -10.5t2.5 -10
t4.5 -4.5q1 0 2 0.5t1 1.5q0 15 1 30.5t1 30.5v2t-1 1v4v6t-0.5 6t-0.5 4zM75 27q0 6 -2.5 9t-6 5.5t-7 4.5t-7.5 5l-2.5 2.5l-3 3l-3 3l-1.5 1.5v5q6 0 10.5 -3t8.5 -7t8.5 -7t10.5 -3q4 0 7.5 2t6.5 5t6 5.5t7 2.5q2 0 2 -3v-2q0 -5 -3 -7.5t-6.5 -4.5t-7.5 -3t-6 -3
t-2 -6t0.5 -8t-0.5 -7t-5 -3q-2 0 -4 1t-2 4q0 2 1 4t1 4z" />
</svg>
