<?xml version="1.0" standalone="no"?>
<!DOCTYPE svg PUBLIC "-//W3C//DTD SVG 1.1//EN" "http://www.w3.org/Graphics/SVG/1.1/DTD/svg11.dtd" >
<svg xmlns="http://www.w3.org/2000/svg" xmlns:xlink="http://www.w3.org/1999/xlink" version="1.1" viewBox="-10 0 266 256">
   <path fill="currentColor"
d="M184 173q3 0 4.5 6t3 14.5t2 18.5t1.5 18.5t2.5 14.5t3.5 6q3 0 5 -4v-2v-4v-4v-2q0 -12 -2 -24.5t-4 -24.5q0 -1 -1 -1.5l-1 -0.5q-1 -6 -2 -10t-1 -9q0 -3 1 -5.5t1 -6.5q0 -7 -4 -11t-9 -5.5t-11.5 -1.5h-12.5h-11q-1 1 -1 1.5v1.5v2q10 0 18 1t18 3q0 1 1.5 1.5
l1.5 0.5v4v5t-3 3q-4 0 -7.5 -2.5t-6.5 -2.5q-8 -2 -16.5 -3.5t-16.5 -1.5q-3 0 -6.5 0.5t-3.5 4.5v1v0l46 6q2 1 3.5 2t1.5 3t-1 3.5t-3 1.5h-41q-1 0 -1 1.5v1.5v2t1 1q8 2 13.5 2h13.5h9t9 -2l2.5 -1.5t3.5 -1.5zM91 245q1 1 2.5 2t3.5 1.5t3 0.5h3q0 -3 -1 -8.5
t-2.5 -11t-3.5 -10t-4 -6.5q0 -5 -1.5 -10.5t-2.5 -11.5t-2.5 -11.5t-1.5 -10.5q0 -4 2.5 -7t5 -5t5 -4.5t2.5 -6.5q0 -1 0.5 -4t0.5 -6t0.5 -5.5t0.5 -3.5l-0.5 -2.5t-0.5 -5t-0.5 -5t-0.5 -3.5v-4q0 -2 0.5 -4.5t3.5 -2.5h1q0 1 1 3.5t2 3.5v0v0q0 2 -1 3.5t-1 3.5
q0 16 1.5 33.5t1.5 33.5l1.5 1.5t2.5 0.5t3 -1.5t1.5 -4t0 -5t-0.5 -3.5v-7.5t-0.5 -15t-1 -18.5t-1 -18.5t-1.5 -13.5t-2 -5h-13q-1 0 -2.5 3.5t-2 8l-1 9l-0.5 4.5q0 5 1 9t1 8v3v2v3t-1 2q0 2 -2 4t-4 2h-1l-2 -1v-7q0 -12 1 -23.5t1 -23.5q0 -5 -4.5 -6.5t-8.5 -1.5
q-5 0 -9 2.5t-6 6.5t-2.5 9.5t-0.5 10.5v76q0 2 1.5 2.5t2.5 0.5t2 -0.5l3 -1.5q-1 -10 -1 -20q0 -11 0.5 -22t1 -21.5t1.5 -20.5v-3.5t1 -5t2.5 -4t3.5 -1.5h2t2 1v13q0 7 -1 13.5t-1 13.5q0 16 1.5 29.5t4 26t5.5 26t6 28.5zM127 209q0 2 1.5 3.5t3.5 1.5h47q2 0 3.5 -1.5
t1.5 -2.5t-1.5 -2t-3 -1.5l-3 -1t-2.5 -0.5h-45l-1 1t-1 2v0.5v0.5zM168 100v10t2 8t5 5.5t9 2.5q4 0 10 -1.5t9 -5.5q1 -5 1 -8.5v-8.5v-4.5t-3 -2.5q-5 0 -9 1t-8 1h-4h-4q0 -1 -2 -2.5t-3 -1.5q0 -1 -1.5 -0.5t-1.5 1.5v6zM137 112q0 4 -2.5 5.5t-5 2l-5 1t-2.5 3.5h37
l1 -1l2 -2v-1q0 -2 -2.5 -2.5t-5.5 0t-5.5 0.5t-2.5 -2v-8q1 0 2.5 -0.5t2.5 -1.5t2.5 -1.5t2 -1l1 -1l0.5 -0.5l-3 -3l-2.5 -0.5t-3.5 -0.5h-6.5h-7.5t-7.5 1t-5.5 3q-1 1 -1 2.5v1.5h15q1 0 1.5 1t0.5 2v2v1zM174 112q0 -2 1 -4.5t4 -2.5h14q1 0 2 1.5l1 1.5q1 2 0 4
t-3 3.5t-4.5 2.5t-3.5 1q-4 0 -7.5 -1.5t-3.5 -5.5zM126 82l0.5 0.5l0.5 0.5h3.5h5.5h6h3q10 0 18 -0.5t17 -4.5q2 0 4.5 -2.5t5 -4.5t4 -4t2.5 -2v0.5v0.5q3 3 4.5 7.5t2.5 9.5h1h1q4 0 4 -4q0 -7 -1.5 -11t-4.5 -9q-1 0 -2 -1t-2.5 -2l-3 -2l-1.5 -1v-16l-2.5 -2.5
t-4.5 -3.5q-4 -4 -8 -4.5t-9 -0.5h-2h-4t-6.5 0.5t-6.5 0.5h-3q-4 1 -7.5 0.5t-6.5 0.5t-5 3t-2 6q10 0 19.5 -1t19.5 -1h5q4 0 7.5 1t6 2.5t2.5 4.5t-1.5 5t-3.5 3q-10 -1 -16.5 -1h-14.5h-7t-10 0.5t-9 2t-4 4.5q0 2 1.5 2h2.5q9 0 17 -1.5t16 -1.5h1h1h5t7 0.5t7.5 0.5
h4.5v2v2q0 4 -3.5 7t-8.5 5t-12 3t-13 1t-11.5 0.5t-8.5 0.5l-0.5 1.5t-0.5 2.5zM48 77q0 3 4 5q2 0 6.5 -4.5t9.5 -10.5t10.5 -11t10.5 -5t8 3.5t5.5 7t5.5 7t8 3.5q0 -7 -1.5 -10.5t-4 -6t-5.5 -4t-5.5 -4t-4.5 -6t-3 -9.5v-3.5v-5t-0.5 -5t-0.5 -3.5q-1 -3 -2 -3.5
t-3 -0.5q-3 0 -4.5 1.5t-1.5 4.5q0 4 1 8t1 9v2v2.5v3.5v1q-4 5 -9.5 8t-11 6.5t-9.5 7.5t-4 12z" />
</svg>
