<?xml version="1.0" standalone="no"?>
<!DOCTYPE svg PUBLIC "-//W3C//DTD SVG 1.1//EN" "http://www.w3.org/Graphics/SVG/1.1/DTD/svg11.dtd" >
<svg xmlns="http://www.w3.org/2000/svg" xmlns:xlink="http://www.w3.org/1999/xlink" version="1.1" viewBox="-10 0 266 256">
   <path fill="currentColor"
d="M56 243q0 3 1 4.5t4 1.5q2 0 4 -0.5t2 -3.5q0 -13 -0.5 -28t0.5 -29.5t5.5 -28t13.5 -23.5q2 -2 2.5 -2h2.5t4 1.5t4 3.5t3.5 4t1.5 4t-1.5 6t-3.5 9t-4 9.5t-2 6.5v30q0 2 2 6t2 6q1 2 1.5 7t1.5 10t3.5 8.5t6.5 3.5q3 0 4.5 -1t1.5 -4t-1 -5.5t-2.5 -5.5t-3 -5.5
t-2.5 -4.5q-7 -16 -7 -33q0 -7 2 -13.5t4.5 -12t4.5 -11t2 -9.5q0 -6 -3 -9t-6.5 -6t-6.5 -6.5t-3 -9.5q0 -2 2.5 -4t6 -4.5t7 -5.5t5.5 -6q3 -6 3.5 -14.5t0.5 -15.5v-10.5t-0.5 -9.5t-1 -10.5t0.5 -11.5q-1 -4 -4 -5.5t-7.5 -2.5t-8 -1h-5.5h-2q-11 3 -17 7t-9 9.5
t-3.5 14t-0.5 20.5q0 8 1 18t4 17q1 4 4.5 5t7.5 1.5t7 2t3 5.5q0 7 -3.5 12.5t-8 10.5t-8.5 10.5t-5 12.5q-1 3 -2 9t-2 12.5t-2 11t-1 5.5v2v4v4v3v4v5.5v4.5v2l0.5 1.5t0.5 3t0.5 2.5l0.5 1q0 1 -1 3l-1 2v5zM140 205q0 3 -0.5 10t0.5 14t2.5 12.5t5.5 5.5h1q5 -3 5 -9
v-1q-1 -1 -1 -2.5t-1 -2.5l-0.5 -1.5t-0.5 -2.5q-2 -9 -2 -16v-16q0 -4 0.5 -9.5t1.5 -12t2.5 -13.5t4 -12t6.5 -8.5t9 -3.5q2 0 4.5 1.5t4.5 3.5t3.5 4.5t1.5 4.5q0 3 -1.5 6t-3.5 6t-3.5 6l-2.5 5q-2 4 -2.5 10t-0.5 10q0 2 0.5 6.5t1.5 10.5t2.5 12t4 11t5.5 8t8 3
q3 0 3.5 -1t0.5 -6v-5q-7 -6 -11 -16t-4 -20q0 -7 1.5 -13.5t4 -13t4.5 -13t2 -13.5q0 -5 -3.5 -8t-7.5 -5t-7.5 -5t-3.5 -8q0 -6 2 -9t5 -4.5t6 -2.5t6 -4t4.5 -7.5t1.5 -13.5v-1q0 -2 -0.5 -8.5t-1 -14t-1 -14t-0.5 -8.5q-3 -2 -3 -4q0 -3 -1 -5.5t-5.5 -4.5t-16.5 -2
q-8 0 -15 2t-12 9v3.5v5.5v5.5v3.5t-1 4l-1 3v2v1q0 2 0.5 7t1 10.5t1 10t0.5 6.5q3 6 6 9t6 4.5l6 3t4 3.5q0 1 0.5 4.5t0.5 4.5q0 4 -2.5 9t-6.5 10.5l-8 11t-6 11.5q-1 5 -2 11t-1.5 12t-0.5 12v11zM151 84q0 -3 3.5 -4t8.5 -1.5t10 -0.5h7h7l0.5 1.5t0.5 2.5
q0 8 -3 11.5t-10 3.5q-3 0 -7 -0.5t-8 -1.5t-6.5 -4t-2.5 -7zM72 83v-2.5t1 -2.5q5 -1 8 -1t6 -0.5t6 -0.5h7h7q1 1 1 2v2q0 2 -0.5 4t-1.5 4.5t-2 4.5t-2 2h-21q-1 0 -2.5 -1.5l-3 -3t-2.5 -3.5t-1 -4zM178 51h3.5h3.5q2 1 2.5 3t1 3.5t1 3.5t1.5 3q-1 3 -4.5 4t-7.5 1.5
t-7.5 0t-5.5 -0.5h-4h-4t-4 -0.5t-3.5 -0.5h-1.5v-12q0 -2 4 -2.5t9 -1.5t9.5 -1h6.5zM70 55q0 -1 0.5 -3l0.5 -2l1 -3l35 -3l3 3v16l-3 3q-9 0 -15 1t-14 1q-6 0 -7 -3.5t-1 -9.5zM149 36q0 -4 3 -6.5t6.5 -3.5t7.5 -1.5t7 -0.5q5 0 10 2.5t5 9.5q0 4 -3 5.5t-7.5 1.5h-9
h-6.5h-11q-2 -2 -2 -3.5v-3.5zM72 35q0 -4 3 -6.5t7 -3.5t8 -1h7h3h3q3 2 4 3t1 4t-3.5 5t-8 2.5t-8.5 1t-6 0.5q-1 0 -2.5 -0.5t-3.5 -1t-3 -1t-1 -2.5z" />
</svg>
