<?xml version="1.0" standalone="no"?>
<!DOCTYPE svg PUBLIC "-//W3C//DTD SVG 1.1//EN" "http://www.w3.org/Graphics/SVG/1.1/DTD/svg11.dtd" >
<svg xmlns="http://www.w3.org/2000/svg" xmlns:xlink="http://www.w3.org/1999/xlink" version="1.1" viewBox="-10 0 266 256">
   <path fill="currentColor"
d="M165 121q0 5 -1.5 8t-4 5t-5 4.5t-4.5 6.5q0 1 -1 3.5l-2 5l-2 5t-1 3.5q-1 1 -1.5 2.5t-0.5 2.5v81q0 2 1.5 2h1.5q3 0 5 -3v-3t0.5 -4.5t0.5 -4.5v-2q0 -9 -1.5 -17.5t-1.5 -17.5q0 -5 0.5 -11t1 -12.5t2 -12.5t4.5 -11t7.5 -8t11.5 -3q1 0 4 0.5t5.5 2t4.5 3t2 3.5
q0 5 -2 10t-4.5 10t-4.5 10.5t-2 10.5q0 6 1 16t4.5 20t9 17t14.5 7q0 -5 -2.5 -9.5t-5 -8.5t-5.5 -8t-5 -9q-1 -4 -1.5 -9t-0.5 -9q0 -6 1 -11t2.5 -9.5t4 -9.5t4.5 -10v-3.5v-2.5q0 -5 -1.5 -8t-4.5 -4.5t-6 -2.5t-6 -2.5t-5 -4.5t-2 -8v-3q0 -2 1 -3l2.5 -0.5t3.5 -1.5
h2.5t3.5 -0.5t3.5 -0.5t2.5 -1q5 -2 8 -7t4 -11.5t1 -13v-11.5v-10.5t-0.5 -11t-2 -10t-6.5 -8.5q-7 -1 -11 -1.5t-11 -0.5q-12 0 -18.5 2t-10 6.5t-4 12.5t-0.5 19v14t1.5 12.5t5 10.5t9.5 8q2 1 4 1.5t3 2.5v3v3zM51 232q1 0 3 0.5t4 0.5t3.5 0.5t2.5 0.5q15 0 30.5 -1.5
t29.5 -2.5q2 -1 2.5 -2t0.5 -3v-2.5t-1 -1.5h-15v-4.5t-0.5 -10.5t-0.5 -13v-11v-5q0 -4 2.5 -6t6 -5t6 -7t2.5 -11q0 -6 -3 -11.5t-8 -6.5h-5h-5h-14t-14.5 1.5t-10.5 6t-4 13.5q0 6 2.5 9.5t5.5 6t5.5 5t2.5 6.5v0v0q-1 3 -1 10.5t-0.5 15t-1 13.5t-2.5 6h-23l-0.5 1.5
t-0.5 2.5v1v0q0 1 0.5 2t0.5 2zM85 210q0 -5 0.5 -9t0.5 -8v-8.5t1 -9.5q1 -3 3.5 -3.5t4.5 -0.5q4 0 6 1.5t2 7.5v34q0 3 -1 4.5t-2.5 2.5t-3.5 1h-5t-3.5 -1.5t-2 -3t-0.5 -3.5v-4zM72 151q0 -5 4 -8t9.5 -4t11 -1h9.5h3h4q3 2 4 5t1 6q0 5 -3.5 8t-8 4.5t-9.5 1.5h-8
q-7 0 -12 -2t-5 -10zM51 108q0 4 2.5 5t5.5 1q16 0 32 -1t32 -5l0.5 -0.5l0.5 -0.5q0 -2 -0.5 -4l-0.5 -2h-28q-3 0 -3 -2.5v-3.5q0 -6 4.5 -9.5t10.5 -6.5t11 -7t5 -10q0 -4 -3 -4q-4 0 -8 3.5t-8 8t-8.5 8.5t-8.5 4q-5 0 -7.5 -4.5t-2.5 -8.5q0 -5 5.5 -10t12.5 -10
t12.5 -10.5t5.5 -12.5l-0.5 -0.5t-1.5 -0.5v0q-2 0 -6 3t-9 7.5t-9.5 8.5t-6.5 6l-1.5 1.5l-3 3l-3 3t-1.5 2.5h-1q-1 0 -2.5 -2l-3 -4t-2.5 -4.5t-1 -3.5q0 -5 4 -9t8.5 -7t8.5 -6t4 -6t-1 -4t-4 -1q-4 0 -9 3.5t-10 8.5t-8 10.5t-3 9.5q0 5 4 12t9.5 14t11 13.5t8.5 10.5
v1v0q0 2 -1.5 4.5t-3.5 2.5h-26q-2 0 -2 2.5v2.5zM157 103l-2.5 -2.5t-2.5 -3.5t-1.5 -4t-0.5 -3t1.5 -1.5l1.5 -0.5q3 -1 5.5 -1.5t5 -0.5h5.5h6h2h4h4h3q0 1 1.5 1t3 1t2.5 1.5t1 1.5q0 4 -1.5 6.5t-4.5 4t-6 2.5t-5 1q-4 0 -6.5 -0.5t-4.5 -1t-5 -0.5h-6zM152 76
q-2 -1 -2 -3v-5v-5q1 0 1.5 -0.5l0.5 -0.5h45q1 0 1.5 3.5t0.5 6.5l-1.5 3l-1.5 3h-2h-1h-8.5t-12 -0.5t-12.5 -0.5t-8 -1zM152 47q0 -3 3 -7t7 -4h29q1 0 2 2l2 4t1.5 4t0.5 3v1l-0.5 0.5t-0.5 1.5h-7t-10.5 0.5t-10.5 0.5h-6h-4q-6 0 -6 -6z" />
</svg>
