<?xml version="1.0" standalone="no"?>
<!DOCTYPE svg PUBLIC "-//W3C//DTD SVG 1.1//EN" "http://www.w3.org/Graphics/SVG/1.1/DTD/svg11.dtd" >
<svg xmlns="http://www.w3.org/2000/svg" xmlns:xlink="http://www.w3.org/1999/xlink" version="1.1" viewBox="-10 0 266 256">
   <path fill="currentColor"
d="M49 237q3 5 5.5 8.5t8.5 3.5h41q4 0 6.5 -4.5t4 -10.5t2.5 -13.5t1 -14.5v-13v-7v-3.5t-3 -1.5t-3.5 2.5t-0.5 5t-0.5 4.5t-3.5 2h-18q-2 0 -2.5 -2t-1 -4.5t0 -5t0.5 -3.5v-3v-3.5t0.5 -5t0.5 -5v-3.5q9 -1 15 -3t9.5 -5.5t5.5 -10t2 -16.5v-3t-0.5 -3.5t-0.5 -3.5v-3
t-1.5 -4.5t-3.5 -5.5l-5 4v34q0 3 -3.5 4.5t-4.5 1.5h-2.5t-3.5 -0.5t-4 -0.5h-3v-51l2.5 -1.5t3.5 -2.5q6 -4 8 -7.5t2.5 -7t0 -7t0.5 -7t4 -6.5t10 -6q0 -1 0.5 -2l0.5 -1q0 -4 -2.5 -4.5t-5.5 -0.5h-2h-2l-2.5 1l-2.5 1q-13 1 -26 0.5t-25 1.5q-2 0 -4.5 0.5t-4.5 1l-4 1
t-2 1.5v7q3 0 7 -0.5t7 0t5.5 2.5t2.5 7v7v5v4.5t2 4.5q1 3 3.5 3.5t5 0.5t4.5 1t3 3q1 6 1.5 11t0.5 9.5v8.5v10v3v3v4v3q-1 1 -3 2.5t-3 1.5q-2 0 -5.5 -1t-6.5 -3t-5 -4.5t-2 -5.5v-24l-4 -4q-2 2 -3.5 4.5t-1.5 5.5t-0.5 7.5t0 9.5t1.5 9.5t4 7.5q5 4 13 7t14 3
q1 1 2 4.5t1.5 8.5t0.5 9.5v6.5q0 1 -0.5 3.5t-1.5 2.5q-5 1 -8 1.5t-8 0.5t-6 -3t-1 -11q-1 0 -2.5 -0.5t-1.5 -1.5h-1q-3 0 -4 1.5t-1 4.5q0 11 1.5 24t2.5 24zM55 216v-3.5t2 -3.5l2 -0.5t4.5 -1t4.5 -0.5h3h7.5h11.5t11.5 -0.5t7.5 -0.5q0 7 -0.5 13.5t-1.5 13.5
q-6 5 -12.5 5.5t-14.5 0.5h-2.5h-3.5h-4h-3q-4 -1 -6 -3.5t-3.5 -5.5t-2 -7t-0.5 -7zM131 191q4 1 6.5 1.5t4.5 0.5h4h5h4h3h12.5t18 -0.5t18 -1t11.5 -0.5q2 0 2 -1.5v-3.5t-1.5 -4t-3.5 -2h-37l-1 -2t-1 -3v-2v-4q0 -25 1.5 -50t0.5 -50l4 -4h31q1 0 1.5 -1t0.5 -2v-2v-2
q0 -7 -8 -7q-3 0 -4 1t-4 1t-7 -1t-7 -1h-3h-1.5t-3 0.5l-3 1l-1.5 0.5h-7h-11h-11.5h-7.5q-2 1 -3.5 2t-1.5 3v3.5t2 2.5h32q1 0 1.5 1t0.5 2q2 2 2 2.5v2.5q0 26 -1 52.5t-3 52.5q0 2 -1.5 2.5l-3 1t-2.5 0.5h-2q-1 1 -4.5 1.5t-7.5 1l-8 1t-5 0.5l-0.5 1t-1.5 1v1v1
l1.5 1.5zM65 66v-4t1 -4q4 -2 8 -2.5t9 -0.5h4h4t2 2.5t1.5 5.5t1.5 6t1 5q0 3 -2.5 4.5t-6 2.5t-6.5 1.5t-5 0.5q-4 0 -6 -2t-3.5 -4t-2 -5t-0.5 -6zM45 16v1l2.5 2.5l1.5 1.5h53q6 0 8 -2.5t2 -7.5h-63l-1.5 1.5l-2.5 2.5v1z" />
</svg>
