<?xml version="1.0" standalone="no"?>
<!DOCTYPE svg PUBLIC "-//W3C//DTD SVG 1.1//EN" "http://www.w3.org/Graphics/SVG/1.1/DTD/svg11.dtd" >
<svg xmlns="http://www.w3.org/2000/svg" xmlns:xlink="http://www.w3.org/1999/xlink" version="1.1" viewBox="-10 0 266 256">
   <path fill="currentColor"
d="M201 249q1 1 2 1.5t2 0.5q3 0 6 -2.5t3 -6.5q0 -3 -0.5 -5l-1 -4t-1 -4.5t-1.5 -6.5v-1v0q0 -1 0.5 -2.5t0.5 -3.5t0.5 -3.5l0.5 -1.5v-2q0 -12 -1 -23.5t-1 -22.5q0 -17 1 -33.5t1 -32.5v-12t-2 -12t-8 -7.5t-12.5 -2t-11 -1t-4.5 -4.5v0v-1q0 -1 0.5 -6t1 -11t1 -11
t0.5 -6v-4v-5t-3 -2q-2 0 -5 1.5t-3 4.5v43q-14 3 -21 6.5t-10 9.5t-3.5 15.5t-1.5 23.5v52q0 15 -1.5 30.5t-1.5 30.5v14q0 1 1.5 1.5t2.5 0.5q2 0 3 -2t1 -6q2 -17 2.5 -34.5t1.5 -34.5q5 -2 8.5 -5.5t6.5 -7.5t7 -7.5t9 -3.5l1.5 0.5t2.5 0.5q14 9 26 23v12v8.5v12
t0.5 14.5t0.5 14.5v12v8.5zM56 230l15 10h30q3 0 6.5 -2.5t5.5 -4.5q3 -9 3.5 -16t0.5 -16v-4q0 -2 -0.5 -4.5t-0.5 -4.5v-3q-1 -2 -2 -2h-3t-3 2t-1 4t-0.5 4t-2.5 2h-12v-28q0 -4 3 -6t7 -4t8 -3.5t6 -4.5q2 -9 2.5 -19t0.5 -19q-5 0 -6 2.5t-1.5 7t-0.5 9t-1.5 9t-5 7
t-10.5 2.5v-42q0 -5 3 -7t6.5 -3.5t7 -3.5t4.5 -7v-3.5t0.5 -5t0.5 -5v-2.5q3 -3 7 -4t7 -2v-8q-11 0 -22 2t-23 3h-8t-12.5 0.5t-12.5 1t-8 0.5t-2 1v2v2.5t2 1.5h15l4 5v18q0 2 3.5 3.5t7.5 2.5t7.5 2.5t3.5 3.5v45q0 2 -2 2h-3q-7 0 -10.5 -4.5t-5.5 -11t-2 -13.5t1 -12
q-1 -1 -2 -1.5t-2 -0.5h-1q-1 0 -2 1t-1.5 2.5t-1.5 3t-1 2.5q0 9 1.5 17t4.5 14t9.5 10t15.5 3q2 2 2.5 3t0.5 3v2t-1 1v5.5t-0.5 7.5t-0.5 7.5t-1 4.5q-1 2 -4 2h-5h-3h-3q-1 -2 -1.5 -4t-1 -4.5t-1.5 -4.5t-3 -3q-2 0 -3.5 2t-1.5 3v44zM66 214q0 -2 0.5 -4.5t3.5 -3.5
q7 -1 11.5 -1.5t11.5 -0.5h10q1 1 2 2.5t1 3.5v4v4v6q-3 5 -8.5 6.5t-11.5 1.5q-10 0 -15 -3.5t-5 -14.5zM139 149v-23v-15t1.5 -18t6 -16t13.5 -7q2 0 3 3t1.5 6.5t0.5 7.5v5v2v4v6v4q0 7 -0.5 13.5t-2.5 12t-6.5 10t-11.5 7.5h-2q-1 0 -1.5 -0.5zM174 120v-3v-5v-5v-4
q0 -3 -0.5 -9t0 -11t2.5 -9t8 -4q7 0 11 3t6 10v21v21t-1 21h-9q-1 0 -2.5 -2t-3.5 -4l-4.5 -4.5t-3.5 -4.5l-0.5 -1.5t-1 -3.5t-1 -3.5t-0.5 -2.5zM71 82v-1q0 -1 0.5 -2.5t0.5 -3.5t0.5 -4l0.5 -2q8 -2 12.5 -2h11.5h7q2 2 2 4v4q0 10 -6 12.5t-14 2.5h-4.5h-4.5
q-4 0 -5 -2.5t-1 -5.5zM59 34q0 1 1.5 2t3.5 1.5t3.5 0.5h2.5v0h1q7 0 12 -0.5t10.5 -1l11 -1t11.5 -0.5q3 -1 3.5 -2.5t0.5 -2.5q0 -4 -1.5 -4h-4.5h-4q-3 0 -9.5 0.5t-13.5 1t-13.5 1t-8.5 1.5q-2 0 -4 1t-2 3z" />
</svg>
