<?xml version="1.0" standalone="no"?>
<!DOCTYPE svg PUBLIC "-//W3C//DTD SVG 1.1//EN" "http://www.w3.org/Graphics/SVG/1.1/DTD/svg11.dtd" >
<svg xmlns="http://www.w3.org/2000/svg" xmlns:xlink="http://www.w3.org/1999/xlink" version="1.1" viewBox="-10 0 266 256">
   <path fill="currentColor"
d="M163 176q0 8 0.5 17.5t4.5 16.5q1 2 4 6t5.5 8.5t5 8l2.5 3.5q1 2 3 4l4 4t4.5 4t4.5 3h1h1l3.5 -3.5t1.5 -3.5q0 -3 -1 -4.5t-3 -3.5q-5 -6 -11 -12t-10.5 -13t-7.5 -14.5t-3 -16.5q0 -14 5 -23.5t12 -20.5v-4q0 -6 -3 -9.5t-7 -7t-7.5 -6.5t-3.5 -9v-27q0 -3 2.5 -4
t5.5 -1q4 0 6.5 2.5t3.5 6.5t2 8.5t2 8.5t3.5 6.5t7.5 2.5q0 -13 -2.5 -26.5t-2.5 -26.5q0 -5 0.5 -8.5t0.5 -7.5q0 -3 -1 -6t-5 -3q-2 0 -4 1t-2 4v23q0 3 -3.5 4.5t-4.5 1.5q-2 0 -4.5 -1t-2.5 -3v-37q0 -4 -1.5 -6t-4.5 -2l-2.5 0.5t-2.5 1.5v47h-16l-2 -2v-3t-0.5 -4
l-1 -4t-0.5 -3v-3.5t-1 -4.5l-2 -4t-2 -2q-3 0 -4 1.5t-1 3.5t0.5 3.5t1.5 3.5v20q0 10 -1 20t-1 21q0 1 1 4t3 3q3 0 3.5 -3.5t0.5 -5.5q1 -1 1.5 -5.5l1 -9t1 -8.5t0.5 -5l4 -4h11q3 0 3.5 2t0.5 4q0 8 -1 15t-1 15l-0.5 0.5l-1.5 1.5q-3 5 -7.5 11.5t-8 13.5t-5.5 14
t-2 14v72v5t1 6t2.5 5t4.5 2t4 -2.5t1 -5.5q0 -14 -2.5 -28t-2.5 -29q0 -11 1.5 -23t3.5 -23q1 -6 5.5 -11t6.5 -11h2.5h2.5q6 0 10 6t4 12t-2 11t-5 9.5t-5 10t-2 11.5zM57 179v2l1 3t1 4q1 8 1.5 17t2 15.5t6.5 11t15 4.5h7.5t11 -1t10 -3t4.5 -5v-52l-1.5 -1.5l-1.5 -1.5
q-1 -1 -2.5 -1h-1.5v17q0 1 -3 1.5t-4 0.5q-3 0 -6.5 -1t-3.5 -5v-25l-0.5 -2.5l-0.5 -2.5l-0.5 -1l-0.5 -1q0 -3 4 -4t9 -2t9 -3.5t4 -8.5v-28q0 -1 -1.5 -2.5l-1.5 -1.5h-1h-0.5h-0.5q-1 0 -2.5 1l-1.5 1v28l-1 1.5t-2 2.5l-2 2h-11v-34q0 -4 2.5 -5.5t6 -3t6.5 -3t3 -4.5
v-27q8 -3 12 -9q-1 -2 -3.5 -3t-5.5 -1.5t-5.5 0t-3.5 0.5q-14 0 -26.5 2.5t-25.5 2.5q-1 1 -1.5 2t-0.5 2q0 3 3 3.5t6.5 0.5t6.5 0.5t3 2.5q1 4 0.5 7t-0.5 5.5v5.5t2 8q0 1 2 2t4.5 2.5t4 3t1.5 2.5v36q0 1 -2.5 2.5l-2.5 1.5h-1q-6 0 -9 -4t-4 -9.5t-1 -11.5t-1 -9
q0 -2 -1.5 -2h-2.5q-2 0 -3.5 0.5t-2.5 4.5q0 9 1.5 16.5t5 13t9 8.5t15.5 1l1 4v31q0 3 -2 4t-4 1q-4 0 -5.5 -2.5t-2.5 -5.5t-2 -5.5t-5 -2.5q-3 0 -4.5 2t-1.5 5zM71 205q0 -4 1 -6t6 -2h27q2 0 2.5 2t1 4.5t0.5 5.5v3v6q-4 5 -7 5.5t-9 0.5q-5 0 -9 -1t-7 -3t-4.5 -5.5
t-1.5 -9.5zM76 71v-3q0 -2 0.5 -4t1.5 -3.5t3 -1.5h21v25q0 2 -1.5 2.5t-4 1t-4.5 0.5h-2q-8 0 -11 -4.5t-3 -12.5zM64 26v0q0 1 1.5 2.5t2.5 1.5h8h8h8t8 -0.5t10 -0.5q1 -1 1.5 -2.5l0.5 -1.5l-2 -2l-1.5 -1l-1.5 -1h-36q-1 0 -4 1.5t-3 3.5z" />
</svg>
