<?xml version="1.0" standalone="no"?>
<!DOCTYPE svg PUBLIC "-//W3C//DTD SVG 1.1//EN" "http://www.w3.org/Graphics/SVG/1.1/DTD/svg11.dtd" >
<svg xmlns="http://www.w3.org/2000/svg" xmlns:xlink="http://www.w3.org/1999/xlink" version="1.1" viewBox="-10 0 266 256">
   <path fill="currentColor"
d="M192 244q0 2 1.5 4t4.5 2t6 -4v-12v-13t-0.5 -14t-2.5 -13.5t-6 -11.5q-3 -4 -8.5 -6t-12 -3.5t-12.5 -2t-11.5 -3t-8.5 -6t-3 -10.5q0 -6 4 -9t10 -3.5t13.5 -1t13.5 -2t10 -5t4 -11.5q0 -10 -1.5 -16t-4.5 -9t-6 -3.5l-6 -1t-5.5 -1.5t-3.5 -3v-22q0 -12 1 -23.5
t1 -23.5q0 -3 -2 -3.5t-4 -0.5h-2.5t-1.5 2q0 3 -0.5 11.5t-0.5 18t-0.5 17.5t-0.5 12q0 1 0.5 5.5t0.5 9.5t0.5 9.5t0.5 5.5v2v2l-1 2l-1 2q0 1 0.5 3t0.5 4.5t0.5 4.5l0.5 2q0 4 -4.5 5t-9.5 2.5t-9.5 6t-4.5 15.5q0 3 -0.5 5.5t1.5 4.5q1 0 2.5 1.5t3 3.5t3 3.5l1.5 1.5
q1 0 1.5 1.5l0.5 1.5q5 4 12 4h14.5t12.5 2.5t9 10.5q0 2 0.5 5.5t0.5 7.5t0.5 7.5t0.5 5.5v1v0q0 1 -0.5 4t-0.5 6.5t-0.5 6.5t-0.5 4v2zM53 168q0 4 0.5 8.5t0.5 9t0.5 8.5t0.5 7t1.5 6.5t3.5 6.5t5 5t6 2h25q2 0 4.5 -1t4.5 -2.5t3 -3.5t1 -4v-46l-1 -1.5t-2 -2.5h-1
q-3 0 -3 2.5v5.5t-1.5 5.5t-6.5 2.5h-3.5t-2.5 -2v-4v-4q0 -7 1.5 -10.5t4 -5.5t5 -2.5l5 -1t4 -2t1.5 -4.5q0 -1 0.5 -5t1 -8.5t0.5 -8v-5.5v-3q0 -2 -1.5 -5.5t-4.5 -3.5h-1q0 1 -0.5 1.5l-0.5 0.5v31q0 3 -4 4.5t-6 1.5t-3 -1t-1.5 -3t-0.5 -4v-4v-1.5v-4.5v-5v-4v-3v-4
v-5v-3q1 -2 2.5 -2.5l3 -1l3 -1t2.5 -2.5q3 -4 4 -8t1 -8v-9q0 -4 2 -9q1 -2 3 -2.5t4 -0.5t4.5 -1t3.5 -4q1 -2 -0.5 -3t-3.5 -1.5t-3.5 -0.5h-2.5h-3h-2q-1 0 -3 0.5t-5 1t-5.5 1t-3.5 0.5q-2 1 -7.5 1h-12.5h-13t-8 -1q-1 0 -3.5 1.5t-3.5 2.5v1v2v3t2 2h3.5h4.5h5.5h3.5
l1.5 1l1.5 1v25q0 3 2.5 4.5t5.5 3t5.5 3.5t2.5 6v36q0 1 -0.5 1t-1.5 0.5t-2 0l-1 -0.5q-6 0 -9 -3.5t-4 -9t-1 -10.5v-10q-1 -1 -2 -1.5t-2 -0.5q-2 0 -3.5 1.5t-1.5 3.5q0 6 1.5 11.5t2.5 10.5q0 6 1 9.5t3.5 5.5t7 2.5t11.5 1.5l1 1v24l-3 3h-13v-13q0 -2 -2.5 -3
l-2.5 -1h-1q-2 0 -3 2t-1 4zM65 192q0 -3 3 -4t7 -1h8h6h10q2 1 3 3t1 3q0 5 -1.5 9t-5 6t-7.5 2.5t-10 0.5h-6q-4 -3 -6 -8.5t-2 -10.5zM171 96q4 0 6.5 2t4 4.5t2 6t0.5 6.5v4v4q-1 2 -3 3t-4.5 1h-5h-4.5v-29q0 -2 1.5 -2h2.5zM119 106v0.5v0.5q1 0 2 0.5l1 0.5
q5 -1 8.5 -5.5t5.5 -11t3.5 -14.5t2 -15.5t0.5 -13.5v-9q0 -5 -5 -5h-2.5t-2.5 2v32q-2 4 -2 8t-1 9q0 2 -2 5t-3.5 5.5t-3 5.5t-1.5 5zM190 63q2 3 3.5 10t3.5 14t5.5 12t9.5 5q3 0 4 -1t1 -5q0 -1 -1.5 -3.5t-3.5 -4.5l-4 -4l-3 -3q-3 -5 -4.5 -11.5t-2 -14t-0.5 -14.5
t1 -12q0 -1 -1 -1.5l-1 -0.5v0h-1q-3 0 -4.5 2.5t-1.5 6.5v7v5v13zM69 65q0 -2 0.5 -3l1.5 -3q7 -1 11 -1.5t9 -0.5h5l1.5 3t0.5 2v6.5t-0.5 7t-2 6.5t-4.5 4h-5q-6 0 -9.5 -1t-5 -3.5t-2 -6.5t-0.5 -10zM58 23q0 2 0.5 3.5t2.5 2.5h8q10 0 18.5 -1t18.5 -1q2 0 3.5 -1.5
t1.5 -3.5t-1.5 -3.5t-3.5 -1.5h-43q-3 0 -4 2t-1 4z" />
</svg>
