<?xml version="1.0" standalone="no"?>
<!DOCTYPE svg PUBLIC "-//W3C//DTD SVG 1.1//EN" "http://www.w3.org/Graphics/SVG/1.1/DTD/svg11.dtd" >
<svg xmlns="http://www.w3.org/2000/svg" xmlns:xlink="http://www.w3.org/1999/xlink" version="1.1" viewBox="-10 0 266 256">
   <path fill="currentColor"
d="M138 183q1 12 6.5 17.5t12.5 7.5t15 3t15 5q7 3 10 9t5 12t4 10t6 4q3 0 4 -2.5t1 -4.5q0 -16 -5 -24t-13 -12t-17.5 -5.5t-17.5 -4t-13 -7.5t-5 -16q0 -4 3 -4h5q3 0 11 -0.5t16.5 -0.5t16.5 -0.5t11 -0.5q1 0 1 -1v-2q0 -3 -1 -4.5t-2.5 -2t-4 -0.5h-3.5h-7
q-1 0 -7.5 0.5t-13.5 1t-13.5 1t-8.5 0.5h-1q-1 0 -2 -1t-1.5 -2.5t-0.5 -3v-2.5q0 -4 0.5 -6.5t1.5 -4t3 -3t5 -3.5t6 -4.5t6 -5.5l5.5 -5.5l4.5 -4.5h1q1 0 5 2.5t8.5 6.5t8.5 7.5t5 5.5h11q2 0 2 -2v-3q0 -3 -1.5 -5.5t-4 -4.5t-5 -3.5t-4.5 -2.5q-1 0 -3 -1.5t-5 -3
l-5 -2.5t-3 -1q-1 -1 -2 -3t-2 -2q0 -1 1 -4t1 -4q1 -5 1.5 -12t0.5 -14.5v-14.5v-13v-23q-1 -3 -2 -4.5t-4 -1.5q-2 0 -4 0.5t-2 3.5v78q0 3 -3 8.5t-7.5 11.5t-9 10.5t-7.5 4.5q-2 0 -2.5 -3t-0.5 -4q0 -17 1 -32t1 -33q3 -7 3 -15v-16v-5q-2 -1 -5 -1.5t-6 -0.5
q0 14 -1 27.5t-1 27.5v6v12t0.5 18t0.5 21t0.5 21t0.5 18v12zM57 185q0 14 0.5 23t4 15t11 8t22.5 2h8t9 -1.5t7.5 -4t3.5 -7.5v-40q0 -2 -1.5 -4t-3.5 -2q-4 0 -4.5 2.5l-1 5t-1.5 4.5t-5 2q-5 0 -7.5 -1.5t-4 -4t-1.5 -6.5v-9q0 -8 3 -10.5t7 -3l8 -1t7 -5.5q3 -6 4 -15.5
t1 -15.5q0 -3 -0.5 -5.5t-4.5 -3.5q-1 0 -3 0.5t-2 1.5v4v6v6v5l-0.5 2.5t-1.5 4.5l-2 4t-3 2h-11l-0.5 -1t-0.5 -3t-0.5 -4.5t-0.5 -3.5v-6v-6t0.5 -6.5t0.5 -7t1 -7.5q3 -4 5.5 -5.5t5 -3.5t4 -5t1.5 -8q0 -4 -0.5 -7.5t-0.5 -7.5t2.5 -5t6 -2t6 -2t1.5 -4q0 -3 -1.5 -3.5
t-3.5 -0.5q-10 0 -19.5 1t-19 2.5t-18.5 2t-19 0.5q-2 0 -3.5 2t-1.5 4v1l1.5 1.5t2.5 1.5v0v0h1v0q1 0 2.5 -0.5t4 -0.5t4.5 -0.5l2 -0.5h1h1q1 0 2 0.5t1 1.5q-1 9 -0.5 14.5t2.5 9t6.5 6.5t11.5 6q1 4 1.5 5.5t0.5 5.5v3q0 2 -0.5 6.5t-0.5 9.5t-0.5 9.5t-0.5 5.5
q-1 3 -3 3.5t-4 0.5q-1 0 -3 -0.5t-3.5 -2t-2.5 -3t-1 -3.5v-26l-2.5 -0.5t-3.5 -0.5q-2 0 -3 1t-1.5 3t-0.5 3v4v2q1 11 1.5 17t3 9t7.5 4.5t14 2.5l2 2q0 1 0.5 3t1 5.5t0.5 5.5v1v1q-1 2 -1.5 6t-1.5 6.5l-1 2.5h-11q-2 0 -2.5 -2t-0.5 -4.5t-1 -5t-5 -2.5q-2 0 -4 4v7z
M70 203q0 -3 1 -4t3 -1.5t5 -0.5h4h3h4.5h4.5h4h6h5l1 2v17q0 2 -2.5 3t-6 1.5t-6.5 1t-4 0.5q-5 0 -9 -1t-7 -3t-4.5 -5.5t-1.5 -9.5zM73 69v-9q5 -4 12 -4.5t13 -0.5q2 0 3 1.5t1 4t-0.5 4t-0.5 2.5q0 5 -0.5 8.5t-2 5.5t-4.5 3t-9 1q-4 0 -6 -1.5t-3.5 -3.5t-2 -5
t-0.5 -6zM61 23q0 2 1.5 3t3.5 1.5t4 0t3 -0.5h9.5t8.5 -0.5t9 -1t11 -1.5l2 -2t1 -2h0.5t0.5 -1h-0.5h-0.5q-2 -6 -8 -6q-3 0 -10 1t-15 2.5t-14 3t-6 3.5z" />
</svg>
