<?xml version="1.0" standalone="no"?>
<!DOCTYPE svg PUBLIC "-//W3C//DTD SVG 1.1//EN" "http://www.w3.org/Graphics/SVG/1.1/DTD/svg11.dtd" >
<svg xmlns="http://www.w3.org/2000/svg" xmlns:xlink="http://www.w3.org/1999/xlink" version="1.1" viewBox="-10 0 266 256">
   <path fill="currentColor"
d="M58 193v17t1.5 19t6.5 15.5t15 6.5h1q2 0 6.5 -0.5l9 -1t9 -0.5h6.5q4 -4 6.5 -8.5t2.5 -9.5v-44q0 -3 -1 -3.5t-3 -0.5q-4 0 -4.5 2.5t-1.5 5.5t-2.5 5.5t-5.5 2.5q-2 0 -4 -0.5t-3 -3.5q-2 -8 -2 -13v-11t3 -8.5t7 -4.5t8.5 -5t6.5 -8q0 -1 0.5 -4t1 -6.5t0.5 -6.5v-5
v-1q0 -3 -2 -5t-4 -2q-3 0 -3.5 2.5t-1 6t-1 8t-2 8t-4.5 6t-9 2.5v-43q0 -2 2 -4t4 -3t4 -1.5t3 -1.5t2 -4t1.5 -6.5t1 -6.5t0.5 -4q1 -8 2 -11.5t3 -5t3.5 -1.5t3 -0.5t2.5 -1.5t1 -5q-22 0 -43.5 1.5t-43.5 1.5v3.5t1 3.5q0 1 0.5 1.5t1.5 0.5h18l1 1.5t1 2.5v3t0.5 5
t1 5.5l0.5 2.5q0 5 3 8.5t6.5 6.5t6 5l2.5 2v42q0 3 -2 4.5t-4 1.5q-7 0 -9.5 -3.5t-4 -8.5t-1.5 -10.5t-1 -9.5h-1.5h-1.5q-2 0 -4 0.5t-2 3.5v26q0 4 5 6t10.5 3.5t10.5 2.5t5 2v36q0 2 -3 2h-3h-3.5t-3.5 -2v-5t-0.5 -4.5t-2 -3.5t-3.5 -1h-3.5t-3.5 2v6zM163 243
q1 0 4.5 0.5t7.5 1l8 1t5 1.5h1q5 0 10 -1.5t9 -4.5t6.5 -7.5t2.5 -10.5v-56q0 -2 -2 -2h-2q-4 0 -5 2t-1.5 4.5t0 6t0 6.5t-2 5t-5.5 2h-41v-22q-6 0 -8 4.5t-2 10.5v1v2t0.5 4t1 3.5t0.5 2.5q0 2 0.5 7t0.5 11v11v7q3 3 6 5.5t6 4.5zM71 220v-2v-3.5t1 -2.5t3 -1l33 -4
q2 -1 3 1t1.5 4.5t0.5 4.5v4q0 11 -5.5 15.5t-14.5 4.5q-10 0 -16 -4.5t-6 -16.5zM197 199q2 0 5 0.5t4 3.5v1.5v3.5v3v2q0 14 -6 18t-18 4h-5.5t-7 -0.5t-6 -1.5t-2.5 -4v-26q0 -1 4 -2t10.5 -1.5t12.5 -0.5h9zM139 75v50q0 6 4 9.5t9 5.5t11 2.5t9 0.5h8h6.5t6 -0.5
t8.5 -1.5q1 0 3.5 -0.5t4.5 -1t4 -2t2 -4.5v-40q0 -2 -3.5 -3t-8 -2t-9 -1h-6.5q-7 0 -14 1t-13 3v2v2.5t2 1.5h34q3 0 5 1.5t2.5 3.5t0.5 5v5q0 9 -1.5 13.5t-5 6.5t-9 1.5t-13.5 -0.5h-15q-6 -1 -8.5 -5.5t-3 -9.5t0 -11t0.5 -11v-7.5t0.5 -9t2.5 -7.5t6 -5h5.5t9 -0.5
t8.5 -1t6 -0.5q9 0 14.5 -0.5t8.5 -3.5t4 -8.5t1 -15.5v-2v-5q0 -2 -0.5 -4t-0.5 -3q-2 -3 -5.5 -5t-7.5 -2.5t-8 -0.5h-8q-10 0 -18.5 0.5t-19.5 2.5q-2 0 -2 1v2v3t2 1h47q3 0 5.5 2t3.5 5q1 0 1 3v5q0 6 -3 10t-7 5.5t-9.5 1.5h-10.5h-10.5t-9.5 2q-3 2 -5 4l-4 4t-3.5 4
t-3.5 4zM74 72v-5q0 -4 3 -6q5 -1 8.5 -1.5t8.5 -0.5t6.5 3.5t1.5 8.5q0 10 -3 15t-12 5q-4 0 -6.5 -1.5t-4 -4t-2 -6t-0.5 -7.5zM66 20q0 2 0.5 3t2.5 2h10q4 0 11 0.5t13.5 -0.5t11 -4t4.5 -8h-12h-13t-14 0.5t-13 1.5q-1 1 -1 2v3z" />
</svg>
