<?xml version="1.0" standalone="no"?>
<!DOCTYPE svg PUBLIC "-//W3C//DTD SVG 1.1//EN" "http://www.w3.org/Graphics/SVG/1.1/DTD/svg11.dtd" >
<svg xmlns="http://www.w3.org/2000/svg" xmlns:xlink="http://www.w3.org/1999/xlink" version="1.1" viewBox="-10 0 266 256">
   <path fill="currentColor"
d="M130 201v13t1 13.5t3.5 13t6.5 12.5h1q4 0 4 -5v-1v-2l-0.5 -2l-1 -4t-1.5 -4l-1 -2q-2 -9 -3.5 -20t-1.5 -20t2 -18t4.5 -18t4.5 -18t2 -18v-2.5t-0.5 -3l-1 -3t-2.5 -1.5q-1 0 -2 0.5t-2 1.5q-1 11 -3 22l-4 22t-3.5 22t-1.5 22zM157 187q0 3 0.5 8.5t2 13t3 14.5
t4 13.5t5 10.5t5.5 4q5 0 5 -5q0 -6 -3.5 -12t-5.5 -12q-4 -8 -5.5 -17t-1.5 -18q0 -8 2 -16l4 -16l4 -16t2 -16q0 -3 -0.5 -6.5t-4.5 -3.5q-1 0 -2 0.5t-2 1.5q0 9 -2 18t-4.5 18t-4 18t-1.5 18zM189 181q0 2 0.5 8t1.5 13.5t3 15.5t4.5 14.5t6 10.5t7.5 4t5 -0.5t1 -4.5
t-2 -8.5t-5 -9t-5.5 -8.5t-3.5 -6q-3 -7 -3.5 -12t-0.5 -12q0 -15 3 -28.5t6 -28.5v-1v-3t-0.5 -4.5t-1.5 -4t-2 -1.5h-1q-2 1 -3 6t-2.5 12t-3 15.5t-2.5 15.5t-1.5 11.5t-0.5 5.5zM56 229q2 3 6 6t7 3h36l1.5 -1t2.5 -2.5t1.5 -3t1.5 -2.5q0 -5 0.5 -10t1 -9t0.5 -8v-10
v-14l-1.5 -1.5l-0.5 -0.5q-1 0 -4 -0.5l-3 -0.5v15h-15q-1 0 -2.5 -3t-1.5 -4v-6.5v-9t2 -8.5t6 -5q7 -2 12 -3t7.5 -3.5t3 -7t0.5 -13.5v-12l-0.5 -0.5l-1.5 -1.5l-1.5 -1l-1.5 -1q-1 0 -2.5 1.5t-1.5 2.5v4t-0.5 6.5t-1 6.5t-0.5 4q0 4 -2.5 5.5t-5.5 1.5t-6 -0.5t-5 -0.5
v-38q0 -3 3 -4t6.5 -2t6.5 -2.5t3 -5.5v-27q0 -2 2 -2.5l4 -1t4 -1.5t2 -4t-2.5 -4.5t-6 -1.5t-7 0.5t-4.5 0.5q-14 0 -28 1t-29 1q-2 0 -2 2v3v1t0.5 2t0.5 1.5t1 0.5h19l1 2v6v8t0.5 8t1.5 7t4 3.5t5.5 1.5t4.5 2t2 5v2v9.5t-0.5 11t-0.5 9.5v4l-2 3l-2 0.5t-3 0.5h-3
t-4 -0.5t-3 -1.5t-1 -4v-23q0 -3 -2.5 -4t-4.5 -1t-3 2t-1 3v2q0 2 -0.5 3.5t-0.5 2.5v3q0 10 2 15t4.5 7.5t6 3.5t6.5 1q4 0 7 0.5t5 2.5v2q0 2 0.5 3.5t0.5 3.5v2v7.5t-0.5 7.5t-2.5 5.5t-7 2.5h-5v-4t-1.5 -4t-3 -3.5t-3.5 -1.5q-3 0 -4 2t-1 4v3q1 3 1.5 9t1 13t1 13
t0.5 8zM63 206q0 -2 5 -3t11.5 -2t12.5 -1.5t8 -0.5q4 0 5.5 2.5t1.5 5.5l-0.5 1.5l-0.5 1.5l-0.5 2t-1 4.5t-1 4.5t-0.5 3q-1 0 -3.5 0.5l-5 1t-4.5 1t-3 0.5t-2 0.5l-1 0.5q-12 0 -16.5 -5.5t-4.5 -16.5zM139 83q1 2 4.5 3.5t4.5 1.5q1 1 3.5 1.5l5 1t4.5 1t3 0.5h47
q2 0 3 -2t1 -4q0 -1 -1 -2t-3 -1h-18q-2 0 -7.5 -0.5t-11.5 -0.5t-11.5 -0.5t-7.5 -0.5q-2 -1 -4.5 -1.5t-4.5 -2.5v-2v-3q0 -3 3.5 -7t9 -8t10.5 -7t8 -3q1 0 3 1t4.5 2.5t4 2.5t2.5 1q1 1 3.5 2.5t5 3.5t4.5 4l3 3h1h1q2 0 4 -1.5t2 -3.5q0 -6 -4 -9t-9 -5t-10.5 -4.5
t-7.5 -5.5q-2 -2 -3 -5.5t-1 -7.5v-7v-6h-10v24q0 2 -3 5t-7.5 6t-8.5 5t-5 2h-2t-2 -1q0 -1 0.5 -4.5t0.5 -6.5q0 -4 -0.5 -7t-0.5 -4t-1 -4t-3 -3t-3 1.5t-1.5 3.5t-0.5 4v3q0 12 2 23.5t4 23.5zM70 69q0 -3 1.5 -5t4 -3t5.5 -1.5t6 -0.5q4 0 7 1.5t3 5.5v8q0 3 -1 6.5
t-3 5.5t-6 2q-9 0 -13 -4.5t-4 -14.5zM56 28q0 2 0.5 3t3.5 2h8h10t10 -0.5t11 -0.5t13 -1q1 0 1.5 -1.5t0.5 -3.5q0 -1 -0.5 -2t-1.5 -2q-1 0 -3 -0.5t-4.5 -0.5t-4.5 -0.5t-3 -0.5h-2q-8 0 -18.5 2t-18.5 2q-2 0 -2 1v3z" />
</svg>
