<?xml version="1.0" standalone="no"?>
<!DOCTYPE svg PUBLIC "-//W3C//DTD SVG 1.1//EN" "http://www.w3.org/Graphics/SVG/1.1/DTD/svg11.dtd" >
<svg xmlns="http://www.w3.org/2000/svg" xmlns:xlink="http://www.w3.org/1999/xlink" version="1.1" viewBox="-10 0 266 256">
   <path fill="currentColor"
d="M120 249q1 2 2 2h2q5 0 7 -3t3 -7.5t1 -8.5v-7q0 -1 1 -3.5l2 -5t2 -4.5t2 -3q5 -7 11.5 -13.5t13.5 -10.5q7 -5 15.5 -8.5t15.5 -8t12 -11t5 -16.5q0 -7 -2 -13t-5 -10.5t-8.5 -7t-12.5 -2.5q-3 0 -8.5 2.5t-12 6t-12.5 8.5t-11 10t-8.5 9.5t-3.5 7.5q4 0 7.5 -2t6.5 -5
t6 -5t7 -2q3 0 5 4t3 9.5t2 10.5t1 7t-2 4t-4 3t-4.5 2t-3.5 2q-5 3 -11 11t-11.5 17.5t-9 18.5t-3.5 16v3v3zM51 178v18t3 14t9 9.5t18 3.5q3 0 8 -1t10 -3t9 -4.5t4 -7.5v-39q0 -2 -1.5 -2.5t-2.5 -0.5q-3 0 -3 2.5t-0.5 5.5t-2.5 5.5t-8 2.5h-4q-1 0 -1.5 -2.5l-0.5 -2.5
q0 -1 0.5 -5.5t1.5 -8.5t1.5 -8t1.5 -4l1 -0.5t2.5 -0.5t2.5 -0.5l1 -0.5l1.5 -0.5l1.5 -0.5q5 -4 7 -7.5t3.5 -7t1.5 -8v-9.5v-3v-4v-4v-3q-1 -1 -2 -1h-2h-3t-2 1v30q0 1 -1.5 3t-3.5 3l-4 2t-3 1h-1q0 -1 -1 -2t-1 -2v-47q0 -1 3 -2t7 -2t7 -3t3 -5v-26q2 -1 5.5 -3
t3.5 -5q0 -4 -4 -6h-6q-8 0 -17 0.5t-17.5 1.5l-17 2t-16.5 2l-0.5 1t-0.5 2q0 4 2 5.5t5 2t6 0t5 -0.5l3 26q1 4 4 5t6.5 2t6 1.5t2.5 3.5v49h-15q-2 0 -3.5 -5t-2 -11t-1 -11t-0.5 -6t-1.5 -1.5t-2.5 -1t-2.5 -1l-1.5 -0.5q-3 1 -3.5 2.5t-0.5 2.5v2l0.5 1t1 2.5t0.5 2.5
v1q1 8 2 14.5t3.5 11t7.5 6t16 1.5q1 1 2 2.5t1 3.5v1q0 3 -0.5 8.5t-0.5 9.5v5l-4 3h-14l-0.5 -2.5t-0.5 -4.5v-1t0.5 -2.5t0.5 -2.5v-1l-1.5 -1.5t-2.5 -1.5q-1 -1 -2 0l-2 2l-2 2l-1 1v3v4zM62 201q0 -4 2.5 -6.5t6.5 -2.5h32q1 0 1.5 2t0.5 3q0 5 -3 7.5t-7 4t-8 2
t-7 0.5h-3h-2.5h-3.5h-2q-3 -1 -5 -4t-2 -6zM170 133v-7q3 -4 8.5 -5t8.5 -1q8 0 13 4t5 13q0 4 -2 8.5t-5.5 8.5t-7.5 6t-9 2q-4 0 -6 -3.5t-3 -8t-1.5 -9.5t-0.5 -8zM127 124q0 1 1.5 1.5l1.5 0.5q2 -1 3.5 -3.5t2.5 -5l2 -5t2 -4.5q1 -1 2.5 -3t3 -4.5t3 -4.5t1.5 -3
q2 -3 7 -5.5t11.5 -6t13.5 -6.5t12.5 -6.5t9.5 -7t4 -6.5v-26q0 -4 -2.5 -6.5t-6 -3.5t-7.5 -2t-6 -1q-3 0 -9 2.5t-12.5 5.5t-13.5 7.5t-13 9t-9.5 8.5t-3.5 7t0.5 4.5t3.5 1.5h1l3 -3t4 -3.5t4 -3.5t3 -2q1 -2 3 -4t4 -2t4.5 3t5 6.5t4 7.5t1.5 7t-6.5 8.5t-13.5 12
t-13.5 14.5t-6.5 17l0.5 1.5t0.5 2.5zM71 53l2 -2h3.5t8.5 -0.5t8 -0.5h3h3t2 3v19q0 2 -2 3.5t-5 2l-6 1t-4 0.5h-4t-4 -0.5t-3.5 -1.5t-1.5 -3v-21zM164 36q0 -2 2.5 -4t5.5 -3t6.5 -1.5t4.5 -0.5q3 0 5.5 0.5t5 1.5t4 3.5t1.5 5.5q0 5 -1.5 9.5t-5 7.5t-7.5 5.5t-8 4.5
q-1 0 -3.5 -4t-4.5 -9t-3.5 -9.5t-1.5 -6.5zM62 18q0 1 0.5 2t2.5 2h10h8.5t11.5 -0.5t10.5 -2t4.5 -5.5q0 -2 -0.5 -3.5t-3.5 -0.5q-2 0 -7 0.5t-10.5 1t-10.5 1t-7 0.5q-3 0 -6 1t-3 4z" />
</svg>
