<?xml version="1.0" standalone="no"?>
<!DOCTYPE svg PUBLIC "-//W3C//DTD SVG 1.1//EN" "http://www.w3.org/Graphics/SVG/1.1/DTD/svg11.dtd" >
<svg xmlns="http://www.w3.org/2000/svg" xmlns:xlink="http://www.w3.org/1999/xlink" version="1.1" viewBox="-10 0 266 256">
   <path fill="currentColor"
d="M169 173q0 5 2 9.5t3.5 9l3 9t1.5 9.5v41q4 0 8 -1t7 -4v-4v-4.5v-5.5v-4v-8v-7t-1 -6l-3 -9t-5 -12t-3 -14q0 -5 3 -8.5t7 -7t7 -7.5t3 -11v-1q-1 -1 -3 -3.5t-4 -4.5t-4.5 -4t-3.5 -3q-3 -3 -6 -4.5t-4.5 -2.5t-2.5 -3.5t-1 -8.5v-7l3 -3h1q5 0 9 3t7.5 7t6 7.5
t4.5 3.5q3 0 4.5 -1.5t1.5 -4.5q0 -7 -5.5 -10.5t-12 -7t-12 -6.5t-5.5 -7t2 -5.5t5 -2t6.5 -0.5t6.5 -3t5 -8.5t2 -16.5q0 -4 -1 -7.5t-7 -3.5h-2q-1 0 -2 1q1 7 0.5 14t-1.5 14q-2 1 -3.5 1.5t-3.5 0.5h-1h-2t-2 -0.5t-1 -1.5v-33q0 -2 -2 -3t-4.5 -1.5t-5 -0.5h-3.5h-6
t-6 0.5t-6 1.5t-7 2v1q0 1 0.5 2t1.5 2q6 2 14 1.5t13 -0.5q1 4 1.5 7.5t0.5 8.5v4q0 3 -0.5 5t-2 3.5t-4.5 1.5q-4 0 -6 -2t-3 -5t-0.5 -6.5t0.5 -6.5q-1 0 -2 -1t-2 -1h-1q-2 0 -2.5 2t-0.5 3q0 14 5 20t19 6l0.5 1.5l0.5 1.5q0 2 -2.5 4.5t-7 6.5t-9.5 8.5t-9.5 8.5
t-7 7.5t-2.5 5.5q0 1 1 1.5t2 0.5q6 0 9.5 -3.5t6.5 -8t6.5 -7.5t9.5 -3v4v4v3t-0.5 4t-0.5 4v3q-1 0 -3.5 2t-3.5 3l-1.5 0.5t-2.5 1t-2.5 0.5t-1.5 1q-7 5 -10 11.5t-4 14t-0.5 15.5t0.5 16v4v9v8v5q-1 4 -2.5 8.5t-3.5 9t-3.5 9t-1.5 9.5q0 2 0.5 4t2.5 2q4 0 5 -2t3 -4
q6 -8 7.5 -20t1.5 -25v-25.5t1.5 -23t7 -16.5t17.5 -6q3 0 6 0.5t6 2.5t5 4.5t2 6.5q0 5 -3 9t-6.5 7.5l-7 7t-3.5 8.5zM64 155q-2 0 -4 1t-2 3v41q0 3 4.5 5t10 3.5t10.5 2.5t7 1q3 0 7 -0.5t8 -2t6.5 -4t2.5 -7.5q0 -10 2 -21t2 -21q0 -2 -1 -4t-4 -2q-4 0 -4.5 3.5
t-0.5 7.5q0 3 -1 6.5t-6 3.5q-1 0 -3.5 -2.5t-2.5 -4.5v-24q0 -2 2 -2.5t5 -0.5h5.5t6.5 -3t5 -8t2 -15v-3t-0.5 -4t-1.5 -3.5t-4 -1.5t-4 3q0 4 0.5 9t-0.5 9.5t-3.5 7t-8.5 2.5q-1 0 -2.5 -0.5t-1.5 -2.5l2 -38l2 -0.5t4 -1.5t3 -2q0 -1 0.5 -3t1 -4.5t1 -4.5t0.5 -3v-3
v-3q1 -9 4 -11.5t6.5 -3.5t6.5 -1t3 -3q0 -2 -2.5 -3t-4.5 -1q-7 0 -14 1.5t-13 1.5h-43q-1 0 -1.5 1.5t-0.5 2.5v3v1q8 0 12 1t5.5 3t1.5 5t-0.5 6.5t0 8t3.5 9.5q2 2 4 2.5t3.5 1t3 1.5t2.5 5q0 1 0.5 4.5t0.5 7.5t0.5 7.5t0.5 4.5v1.5t0.5 3t1 2.5l0.5 1l-2 2t-2 1h-14
l-3 -28l-2 -1.5t-3 -2.5h-1h-1l-1 0.5t-2 0.5v3v2.5v3.5v2v5v5t0.5 6t1.5 4q1 4 5.5 6t9 2.5t7.5 1t3 2.5v19q0 5 -3 6.5t-6 1.5t-4 -1.5t-1.5 -3.5t-1 -4.5t-0.5 -3.5l-2 -0.5l-2 -0.5h-1zM69 183q0 -1 0.5 -3t2.5 -2h31q2 0 2.5 1.5t0.5 2.5q0 9 -3 14.5t-12 5.5
q-10 0 -16 -4.5t-6 -14.5zM79 77q0 -1 -0.5 -4t-0.5 -6v-6v-4v-1q0 -2 2 -3.5t5 -2t6 -0.5h5t5.5 0.5t3.5 3.5q0 4 -0.5 8.5t-2 8.5t-4.5 6.5t-7 2.5q-3 0 -7 -0.5t-5 -2.5zM63 21q0 2 1.5 3t3.5 2h10h9q2 0 6 -0.5t9 -1t9 -1t6 -0.5q2 -1 2 -1.5v-1.5q0 -2 -0.5 -3t-3.5 -2
h-16h-9h-6t-6.5 0.5t-8.5 0.5l-4 2t-2 3z" />
</svg>
