<?xml version="1.0" standalone="no"?>
<!DOCTYPE svg PUBLIC "-//W3C//DTD SVG 1.1//EN" "http://www.w3.org/Graphics/SVG/1.1/DTD/svg11.dtd" >
<svg xmlns="http://www.w3.org/2000/svg" xmlns:xlink="http://www.w3.org/1999/xlink" version="1.1" viewBox="-10 0 266 256">
   <path fill="currentColor"
d="M125 249l1 1l1 1q2 0 4 -1.5t3 -3.5t1.5 -4.5t0.5 -3.5v-24q2 -3 5.5 -4.5t7.5 -2.5t7.5 -1.5t6.5 -0.5h9h14h14h9q2 0 5.5 -1.5t3.5 -4.5q0 -2 -1.5 -3.5t-3 -2t-3.5 -1t-3 -0.5q-6 0 -11 1t-10 1h-3.5h-2.5q-1 -7 -1.5 -13.5t-0.5 -13.5q0 -5 4 -7t9 -2.5t10 0t8 0.5
q1 -1 1.5 -2t0.5 -2q0 -2 -1 -3.5t-3 -1.5h-24l-1.5 -0.5t-2 -1t-1 -1.5l-0.5 -1v-28h31l1 -1.5t1 -3.5q-1 -1 -2.5 -2l-3 -2t-3.5 -1h-2h-20q-2 -1 -3 -3t-1 -4v-4.5v-4.5v-4t1 -6t2 -5t3 -2q4 0 7 1t6.5 2.5t6.5 2.5t7 1q3 0 4 -0.5t1 -3.5v-2v-1q-1 0 -4 -1t-6.5 -2.5
t-6.5 -2.5t-5 -1q-2 -1 -5.5 -1.5t-3.5 -4.5q0 -3 5 -5t11 -4t10.5 -5t4.5 -7q0 -2 -2.5 -5t-7 -6t-10 -5.5t-10.5 -5t-9.5 -3.5t-6.5 -1h-5q0 1 -2.5 3t-5 5t-5 5.5t-3.5 2.5q-2 2 -5.5 4t-6.5 4.5t-5.5 5t-2.5 6.5q0 2 5 4t11 4t11.5 4t7.5 5q-15 10 -22 22.5t-9.5 27
t-3 30.5t-0.5 33q0 15 -1 30.5t-1 31.5v7zM54 176h-3t-2 2v40q0 6 3 9.5t6.5 5.5t8.5 2.5t10 0.5q12 0 18.5 -2t9.5 -7t3.5 -13t0.5 -18v-13q0 -3 -2 -4.5t-5 -1.5q-2 0 -2.5 1.5t-0.5 3.5t-1.5 3.5t-6.5 1.5h-3h-2q-1 0 -1.5 -0.5t-0.5 -1.5v-31q3 0 7 -0.5t7.5 -2t6 -3.5
t3.5 -7v-4v-9t0.5 -9.5t0.5 -8.5v-2q0 -2 -1 -4.5t-4 -2.5v0q-2 1 -3.5 2.5l-1.5 1.5v31q0 1 -1 2.5t-3 2.5t-3.5 1.5t-2.5 0.5q-2 0 -2.5 -0.5t-0.5 -2.5v-48q0 -2 2 -3t4.5 -2l5 -2t2.5 -4l4 -29q0 -2 2 -2.5t4.5 -1t4 -1.5t1.5 -4q0 -5 -2.5 -5h-5.5h-6h-7h-11t-13 0.5
t-13 0.5h-11h-7q-2 1 -2 2.5v2.5v2.5t2 1.5h17v26q0 4 2.5 6.5t6 3.5t6.5 2.5t5 3.5v4v6.5v6.5v3v6v6v6v2q0 2 -0.5 4t-1.5 4.5t-2.5 3.5t-3.5 1q-4 0 -6.5 -4.5t-3 -10.5t-0.5 -12q0 -7 -1 -9q-2 -4 -5 -4q-1 0 -2 0.5t-2 1.5v2.5v3.5v4v2v6v6t0.5 6t1.5 6.5t4.5 6t8 4t8 2
l3.5 0.5v29q0 4 -3 5t-5 1h-3h-2q-1 -2 -1.5 -4.5t-1 -4t-1.5 -3t-4 -1.5zM60 204v-6q8 -1 14 -1.5t14 -0.5h7l2 2v22q0 2 -2.5 3t-5 1.5t-5 0.5h-3.5q-12 0 -16.5 -4.5t-4.5 -16.5zM138 196v-4.5v-4.5q0 -6 0.5 -12.5t3.5 -12.5q1 -1 3.5 -1t5.5 -0.5t5.5 -0.5h3.5h4h3
q2 0 2 2v29q0 3 -2.5 4.5t-6 2t-7 0.5h-5.5h-5t-5 -2zM162 118h3h2q1 0 1.5 0.5t0.5 1.5v29l-2 1q0 1 -2 1t-5 0.5t-6 0.5h-5q-1 0 -3 -0.5t-2 -1.5q-1 0 -1.5 -0.5l-0.5 -0.5v-28q0 -1 2.5 -2t5.5 -1h7h5zM145 103q0 -4 2.5 -9t5.5 -9.5t7.5 -7.5t8.5 -3v29q0 1 -0.5 2
t-1.5 2l-1 0.5l-1 0.5h-18q-1 0 -1.5 -0.5t-0.5 -1.5v-2v-1zM67 50h26v22l-1 1.5t-1 2.5l-1 1l-1 1h-16q-3 0 -4 -4t-1.5 -8.5t-0.5 -9v-6.5zM173 23q1 0 5 1.5t8 3.5t7 4.5t3 4.5q0 3 -1.5 5.5t-4 4.5t-5.5 3t-5 0q-2 0 -2 -1.5t-0.5 -3.5t-1 -3t-2.5 -1q-4 0 -4.5 2.5
t-0.5 5.5t-0.5 6t-3.5 3q-2 0 -3.5 -0.5t-3.5 -1.5q-1 -1 -3 -2t-3.5 -1.5t-3 -1.5l-1.5 -1v-3l1 -1.5t2.5 -3t3 -3.5t2.5 -3t3 -3.5t4 -4.5t4.5 -3.5t5.5 -1.5zM55 17v1l1.5 1.5l1.5 1.5h4h5h7.5h7t7.5 -0.5t9 -1.5l0.5 -1l0.5 -1q0 -2 -0.5 -3.5t-1.5 -1.5h-13h-14t-13 2
q-1 0 -1.5 0.5t-0.5 1.5v1z" />
</svg>
