<?xml version="1.0" standalone="no"?>
<!DOCTYPE svg PUBLIC "-//W3C//DTD SVG 1.1//EN" "http://www.w3.org/Graphics/SVG/1.1/DTD/svg11.dtd" >
<svg xmlns="http://www.w3.org/2000/svg" xmlns:xlink="http://www.w3.org/1999/xlink" version="1.1" viewBox="-10 0 266 256">
   <path fill="currentColor"
d="M167 246q-1 3 1 3.5t3 0.5q3 0 4.5 -1.5t1.5 -4.5q0 -18 -1 -35.5t-1 -34.5v-3v-6v-5v-4l1.5 -1l1.5 -1h1q5 0 8.5 4.5t5.5 8.5l2 18t2 17.5t2 17.5t0 19q1 1 2.5 2t2.5 1q2 0 2.5 -1.5t1 -4t0.5 -4.5v-2q0 -9 -0.5 -19.5l-1 -21t-3 -20.5t-7.5 -19l-3.5 -1t-8 -2.5
t-7.5 -3.5t-3 -3q0 -4 2 -6t5.5 -3t8 -1.5t8 -1.5t6 -3t2.5 -7v-21q0 -2 -2 -2h-2h-3q0 12 -4 19.5t-15 7.5h-3h-2l-1 -2v-32l25 -8q3 -1 5 -5t3 -9t1 -10v-7q0 -5 -0.5 -10.5t-2.5 -10.5t-5.5 -8.5t-9.5 -3.5h-34q-5 0 -10 2t-8.5 6t-5.5 9t-2 10q0 13 1.5 20.5t6 12t11 7
t15.5 5.5l1 0.5l1 0.5v31q0 1 -1.5 1.5t-2.5 0.5h-3h-1q-4 0 -7 -2t-4.5 -5.5t-2 -7.5t-0.5 -9q-1 -4 -7 -4v6t0.5 8.5t1.5 9t2 5.5q3 4 7.5 5t8.5 2.5t7 3.5t3 8q0 2 -2 4t-5 3.5t-5.5 2t-3.5 0.5q-4 2 -6.5 7.5t-4 11.5t-2.5 12.5t-2 10.5v37q0 3 2 3.5t3 0.5q2 0 3 -1.5
t2 -4.5v-8v-12v-12.5v-8.5q0 -4 1 -9t3 -10t5 -8t7 -3h2h2v4t0.5 6.5t0.5 6.5v4v8v12v14v13v12v8zM57 173v23t2.5 19.5t9 13.5t19.5 5q10 0 17.5 -4t11.5 -13v-3v-4v-5v-2v-10v-8t-0.5 -8.5t-0.5 -9.5q-1 -2 -2 -2h-2q-3 0 -3 2.5v5.5t-1.5 5.5t-6.5 2.5q-4 0 -6 -1.5
t-2 -6.5v-1v-4t0.5 -6t0.5 -5.5v-4.5q1 -2 4.5 -3.5t4.5 -1.5q8 -3 11.5 -5.5t4.5 -6.5t1 -9.5v-14.5l0.5 -2t0.5 -3l-0.5 -2l-0.5 -2q-1 -2 -2.5 -2h-3.5h-2h-1q-1 4 -0.5 10.5t0 12.5t-3.5 10.5t-8 4.5h-3t-2 -2v-41q0 -4 2.5 -5.5t5 -2.5t5 -2.5t2.5 -6.5q0 -1 0.5 -5
t0.5 -8.5t0.5 -8.5t0.5 -6q1 0 2.5 -0.5t3.5 -1.5t3.5 -2t1.5 -3q0 -3 -2.5 -4.5t-4.5 -1.5h-3l-2 1t-3 1q-1 1 -4.5 1.5t-7.5 1t-7.5 1t-4.5 0.5q-2 0 -6.5 0.5t-9.5 0.5t-9.5 0.5t-6.5 0.5t-2 2v3q0 3 0.5 4.5t3.5 1.5t5 -1.5t4 -1.5q4 0 5.5 2.5t1.5 6v7.5v6q0 5 2.5 7
t5 3.5l5 3t3.5 4.5q1 8 1.5 14t0.5 14v13l-2 4t-3 2q-6 0 -9 -4.5t-4.5 -10.5t-1.5 -13v-10q0 -1 -1 -2l-2 -2h-1q-2 0 -3 1.5t-1.5 4t-1 4.5t-0.5 4q0 8 1.5 14.5t5 12t8.5 8.5t13 3q2 6 2 11.5v10.5v5.5v3.5l-2 4h-15l-3 -4v-12q0 -1 -1 -2.5t-2 -1.5h-1q-3 0 -4.5 2.5
t-1.5 5.5zM70 203v-8q2 0 5.5 -0.5t7.5 -1t7.5 -1t5.5 -0.5h3q3 0 6.5 2t3.5 7v2v2t-0.5 4t-1 3.5t-0.5 2.5q-4 3 -8.5 4.5t-9.5 1.5q-9 0 -14 -4t-5 -14zM77 64v-4.5v-4.5q1 -3 4 -4t7 -1.5t7.5 0t5.5 0.5v27q0 1 -1 1.5t-2.5 1t-2.5 1t-2 0.5q-5 0 -8 -1t-5 -3t-2.5 -5
t-0.5 -8zM141 65v-2v-2q4 -2 8 -3t9 -1q2 0 3.5 2t2.5 4t1.5 5t0.5 6t-1.5 4t-4.5 1t-6 -1t-6 -2.5t-5 -4t-2 -6.5zM172 62q0 -3 1.5 -4.5t4.5 -2t6 -0.5h5q4 0 6.5 1.5t2.5 6.5q0 4 -2 7t-5 5t-6.5 3t-7.5 1q-2 0 -3.5 -2t-1.5 -4.5v-5v-5.5zM138 43q0 -5 1.5 -8t4 -5.5
t6 -3.5t7.5 -1q2 0 4 1.5t2.5 4t0.5 5v5.5v3v2l-2 2l-1.5 0.5t-4 0.5t-5 0.5t-3.5 0.5h-4q-6 0 -6 -7zM172 39v-3.5v-4.5t1 -4t2 -2h7q5 0 10.5 2.5t5.5 10.5v5.5t-2 4.5h-8h-6t-5 -0.5t-3.5 -2.5t-1.5 -6zM64 20q0 2 0.5 3.5t2.5 1.5h1h1q2 0 8 -0.5t13.5 -1t13.5 -1
t8 -1.5q3 1 3.5 -1t0.5 -3q0 -3 -2 -5t-5 -2q-10 0 -21 2.5t-21 3.5q-2 -1 -2.5 0.5t-0.5 3.5z" />
</svg>
