<?xml version="1.0" standalone="no"?>
<!DOCTYPE svg PUBLIC "-//W3C//DTD SVG 1.1//EN" "http://www.w3.org/Graphics/SVG/1.1/DTD/svg11.dtd" >
<svg xmlns="http://www.w3.org/2000/svg" xmlns:xlink="http://www.w3.org/1999/xlink" version="1.1" viewBox="-10 0 266 256">
   <path fill="currentColor"
d="M172 211q3 12 10 22.5t17 17.5h2h1q1 0 2.5 -0.5t2.5 -1.5t2 -2.5t0 -2.5q-1 -2 -5.5 -6.5l-10 -10t-9.5 -11t-4 -11.5q0 -4 3.5 -5.5t7.5 -2.5t7 -2.5t3 -5.5q0 -2 -1.5 -2.5t-3.5 -0.5q-5 0 -9.5 2.5t-9.5 2.5q-2 0 -3.5 -2.5t-2.5 -5.5l-2 -6t-1 -5q0 -5 2 -6t7 -2
h4.5t8 -0.5t8 -0.5h5.5q1 -1 1.5 -2t0.5 -2t-1.5 -2t-3 -1.5l-3 -1t-2.5 -0.5q-6 0 -11.5 1t-10.5 1h-8l-1.5 -1.5l-1.5 -1.5q-1 -3 0.5 -4t4.5 -1.5t6.5 -1t6.5 -3t5 -7t2 -11.5h-7q0 5 -3 10t-9 5q-4 0 -5 -3t-1.5 -6.5t-1 -6.5t-3.5 -3q-1 0 -2 0.5t-1 1.5v7
q0 7 0.5 13.5t0.5 13.5v2.5v1.5l-26 3l-0.5 0.5l-1.5 1.5l-0.5 1.5t-0.5 2.5t2 1h2q6 0 12 -1t12 -1h3.5t2.5 2q2 4 2.5 7t1.5 6t1 5.5v6.5t-4.5 9.5t-10 11t-10.5 12t-5 13.5q0 2 1.5 2h3.5q3 0 4.5 -1.5t2.5 -4t1.5 -5t2.5 -4.5l1.5 -2.5t3.5 -5t3.5 -4.5t2.5 -3l3 -3
t3 -2t2 0.5t2 1.5zM63 213q2 4 4 7t4.5 4t6 1.5t8.5 0.5q3 0 9 0.5t12 -0.5t10.5 -3.5t4.5 -8.5v-44q0 -2 -2 -4.5t-3 -2.5h-1q-1 0 -2 1.5l-1 1.5v15q0 1 -1 2t-2.5 1t-3 0.5t-2.5 0.5q-2 0 -3.5 -0.5t-2.5 -3.5q0 -1 -0.5 -4.5t-0.5 -7t-0.5 -7t-0.5 -4.5q0 -6 2.5 -9
t5.5 -5t7 -2t7 -0.5t5.5 -1.5t2.5 -4v-23q0 -2 -1.5 -3.5t-3.5 -1.5h-2t-1 2q0 4 -0.5 9t-1.5 8.5t-4 6t-9 2.5q-4 0 -5.5 -1.5t-1.5 -6.5v-3q0 -2 0.5 -5.5t0.5 -7.5t0.5 -7.5t0.5 -4.5q1 -3 3 -4.5t5 -3.5t5 -3.5t2 -3.5v-22l1 -0.5t2 -0.5q2 -1 4.5 -2t3.5 -3q1 -3 -2 -4
t-5 -1h-3q-2 0 -7 0.5t-11.5 1t-13.5 1.5t-13 1.5t-11.5 1t-7.5 0.5q-2 1 -2 4q0 2 1.5 3.5t3.5 1.5q3 0 6 -1t6 -1q2 0 2.5 0.5t0.5 2.5q1 1 1 4t1 6t1 6t1 4q0 1 3 3t6 3.5l5 2.5l2 1v38q0 1 -1 1.5t-2 0.5h-2h-1q-5 0 -7.5 -2.5t-4 -6t-1.5 -7.5t-0.5 -7.5t-1.5 -6
t-4 -2.5t-4 2.5t-1 5.5q0 7 1.5 13t4.5 10t8.5 6t14.5 1l1 2l0.5 3.5t0.5 8.5t0.5 10.5t0.5 9.5v2q0 1 -1 3.5t-2 2.5h-15v-18q0 -2 -1.5 -2.5t-3.5 -1t-3.5 -0.5h-2.5q0 12 0.5 24t1.5 25zM73 201v-4q0 -2 2 -3h2.5t3 -0.5t3.5 -0.5h3t4.5 -0.5t8.5 -0.5h8h5q0 2 0.5 4.5
t0.5 5.5t-0.5 6t-2.5 5l-1.5 1.5l-1.5 1.5h-30q-1 0 -2.5 -2t-2 -5t-0.5 -5v-3zM178 98q5 10 10.5 20.5t14.5 17.5h2q3 0 4 -1t2 -4q-3 -4 -7 -8t-7.5 -8.5t-6 -9.5t-2.5 -10v-2v-2q2 0 4 -0.5t4.5 -1.5t3.5 -2.5t1 -4.5v-2.5t-3 -1.5q-4 2 -7 4t-7 2q-2 0 -3.5 -2t-2 -4
t-0.5 -4.5v-3.5t1 -3t3 -2h4h7h7h5q4 0 5 -0.5t1 -3.5v-2t-2 -2h-29q-4 0 -4.5 -3t-0.5 -6v-4.5t3 -3.5h3t4 -0.5l4 -1l2 -0.5q1 0 2.5 -0.5t2.5 -1t2 -1.5t1 -2v-14q0 -2 -1 -2.5t-2 -0.5q-2 0 -3.5 3t-2.5 6t-3 6t-7 3q-3 0 -5 -1t-2 -4v-2q0 -1 0.5 -2t0.5 -2.5t0.5 -2.5
l0.5 -1v-2q0 -3 -2.5 -4t-5.5 -1q-2 0 -2.5 1t-1 2.5t-0.5 3.5v3q0 8 2 14.5t2 13.5v2t-0.5 2t-0.5 2t-1 1l-31 3l-1.5 1.5l-1.5 1.5v1q0 2 1.5 3t2.5 1q7 0 13.5 -1.5t13.5 -1.5q4 0 6.5 2t3.5 6t1 8v7t-6 7.5t-13 9.5t-13 11t-6 11q6 0 11.5 -4.5t10.5 -10t10 -10t10 -4.5
h1zM77 68q0 -3 2.5 -4.5t6 -2t7 0t5.5 0.5h3q1 0 2 1v4v5q0 8 -2.5 11.5t-11.5 3.5q-4 0 -6.5 -1.5t-4 -4.5t-1.5 -6v-7zM70 31q0 3 1 3.5t5 0.5h2h2q2 0 6.5 -0.5t10 -1t10.5 -1t7 -0.5l2 -2l2 -2v-1v0q0 -1 -1 -1.5l-1 -0.5h-15h-15q-6 0 -14 2q-2 0 -2 1.5v2.5z" />
</svg>
