<?xml version="1.0" standalone="no"?>
<!DOCTYPE svg PUBLIC "-//W3C//DTD SVG 1.1//EN" "http://www.w3.org/Graphics/SVG/1.1/DTD/svg11.dtd" >
<svg xmlns="http://www.w3.org/2000/svg" xmlns:xlink="http://www.w3.org/1999/xlink" version="1.1" viewBox="-10 0 266 256">
   <path fill="currentColor"
d="M167 245q0 3 1.5 4.5t4.5 1.5q1 0 3 -0.5t1 -3.5v-14v-16t0.5 -16t1.5 -15q0 -2 1.5 -2h3.5q7 0 11 6t6 14.5t2.5 16.5t0.5 12l5 5l3 -3l0.5 -2.5t0.5 -3.5q0 -6 -0.5 -12.5t-2 -12.5t-4.5 -11.5t-8 -9.5q-1 -1 -4 -2.5t-6.5 -2.5t-6 -2t-2.5 -2v-12q0 -1 2 -1.5t3 -0.5
q6 -1 10.5 -2t7 -4t3 -7.5t0.5 -11.5q0 -3 -1.5 -5t-4.5 -2h-1q0 4 -1 8.5t-2 7.5t-4 5t-9 2q-1 0 -3 -0.5t-2 -2.5v-26h21q3 0 5 -5t3 -11t1 -12v-8l0.5 -0.5t1.5 -0.5t2.5 -0.5t3.5 -0.5t3.5 -0.5t2.5 -0.5t1.5 -1.5t0.5 -2.5q-1 -2 -3.5 -3t-5 -1t-5 -0.5t-2.5 -1.5v-15
q0 -1 -2.5 -2l-2.5 -1h-1h-1q-1 0 -2 1.5l-1 1.5v15q-1 0 -1.5 1.5l-0.5 1.5h-18l-0.5 -2t-1.5 -3v-5v-7v-4v-3l4 -4l32 -3q2 -1 2.5 -1.5t0.5 -2.5q0 -3 -2 -4t-5 -1q-7 0 -13.5 2t-13.5 2q-1 0 -3 -1t-2 -3v-20l-2 -2l-3 -3h-2l-1.5 0.5t-1.5 1.5v28l-41 4v0.5v0.5
q0 2 1.5 3t4.5 1h31l4 3v2t0.5 5t0.5 6t1 5v3v2q0 2 -2 2h-21q-2 0 -2 -2.5t-0.5 -5.5t-1.5 -5.5t-4 -2.5h-1q-1 0 -2 1l-1 1v14q0 3 -3 3.5t-7 0.5h-7.5t-4.5 3l4 3q8 -1 12 0.5t6 5.5t3 9t4 9.5t9.5 7.5t18.5 3l1 2q0 1 0.5 4t0.5 5v3.5v5.5t-0.5 5.5t-1.5 4.5h-3.5h-2.5
q-5 0 -7.5 -1.5t-4 -4t-2 -5.5t-1.5 -5.5t-3 -4t-6 -1.5q0 1 0.5 3t0.5 4.5v4.5v3t1 3t2 5t2.5 5t3.5 2h23v15q-12 4 -18.5 10t-9.5 13t-4.5 16t-4.5 20v1v1q1 0 2 1.5t2 1.5v0q2 0 3.5 -2.5t3 -7t2 -9.5t1.5 -10t2 -9t2 -6l1.5 -2l3 -4t4 -4t4.5 -2h1q0 1 1.5 2t1.5 2v10
q0 12 -0.5 23.5t-0.5 23.5zM52 192q0 9 1 17.5t4 15.5t9 11t17 4q13 0 19.5 -5.5t9 -14t2.5 -19.5v-22q0 -2 -1 -3t-3 -1t-3.5 1.5t-1.5 4.5v2.5v4.5v4v3q-1 1 -2.5 2t-3.5 1h-1q-1 0 -4.5 -0.5t-4.5 -2.5q-1 -5 -1 -8t-0.5 -6t-0.5 -6v-7v-8q2 -3 5 -4t5.5 -2t5 -1.5t5 -3
t3.5 -8t1 -15.5v-3v-3v-3v-2q-1 -2 -1.5 -2.5t-1.5 -0.5q-2 0 -3 0.5t-1 2.5v8t-1 11.5t-3.5 9.5t-8.5 4h-2.5t-2.5 -2q0 -6 -0.5 -10t-0.5 -7.5t-0.5 -7t-0.5 -7.5q0 -2 0.5 -5.5t0.5 -4.5q0 -2 1 -3l2 -2t2.5 -1.5t2.5 -2.5q4 -3 6 -6.5t2.5 -7t0 -8t-1.5 -9.5
q1 0 2.5 -0.5t3.5 -0.5t3 -0.5t2 -0.5t3.5 -1.5t1.5 -3.5q-1 -3 -3 -3.5t-4 -0.5q-18 0 -37.5 1t-37.5 4v1v1q0 1 0.5 3l0.5 2h18l2 2q0 1 0.5 3.5t1 5.5t1 5.5t0.5 3.5t1 2.5t1 2.5q2 3 4.5 4.5t5 2.5t4.5 3t2 6v3q0 1 -0.5 2t-0.5 2.5t-0.5 3l-0.5 1.5l0.5 1.5t0.5 3
t0.5 2.5t0.5 2t0.5 3.5t0.5 5.5t0.5 6t0.5 4q-1 3 -2.5 3.5t-4.5 0.5q-6 0 -9.5 -4t-4.5 -9.5t-1 -11.5v-10q0 -2 -1.5 -2.5t-2.5 -0.5t-2.5 0.5t-1.5 2.5v13q0 8 1 14t4 9t9 4.5t16 1.5v39h-18v-17q0 -1 -2.5 -2l-2.5 -1h-1h-1l-1 0.5l-1 0.5v3v4.5v4.5v3zM63 211
q0 -4 3.5 -5.5t8.5 -2t9.5 -0.5h7.5h9q3 1 3.5 3.5t0.5 4.5q0 11 -5 16.5t-16 5.5q-5 0 -8.5 -1.5t-6.5 -4.5t-4.5 -7t-1.5 -9zM142 96v-2v-3t0.5 -3.5t1.5 -1.5h21l1 2t1 3v4.5v4.5v8q0 3 -2 7h-2.5h-1.5q-8 0 -13.5 -5.5t-5.5 -13.5zM177 95v-9q3 -2 7 -2.5t7 -0.5h2l3 3
l2 2v20q0 3 -3.5 5t-6.5 2q-5 0 -7 -2t-3 -4.5t-1 -6v-7.5zM66 74q0 -4 1 -6t3 -3t5 -1h7h9q3 1 3 5v7q0 7 -2.5 10.5t-10.5 3.5q-7 0 -11 -4.5t-4 -11.5zM49 29q0 2 2 3t4.5 1.5t4.5 0.5h4q10 0 20.5 -1.5t20.5 -1.5q0 -1 1 -1.5l1 -0.5v-1v-1l-1 -1l-1 -1h-3t-5 -0.5
t-5 -1t-3 -0.5h-1h-1q-2 0 -7 0.5t-11 1t-11.5 0.5h-7.5l-0.5 1.5t-0.5 2.5z" />
</svg>
