<?xml version="1.0" standalone="no"?>
<!DOCTYPE svg PUBLIC "-//W3C//DTD SVG 1.1//EN" "http://www.w3.org/Graphics/SVG/1.1/DTD/svg11.dtd" >
<svg xmlns="http://www.w3.org/2000/svg" xmlns:xlink="http://www.w3.org/1999/xlink" version="1.1" viewBox="-10 0 266 256">
   <path fill="currentColor"
d="M173 137v35q0 1 0.5 4t0.5 7t0.5 7t0.5 4q0 3 0.5 8.5t1 12t2 13t3.5 11.5t4 8.5t6 3.5q1 0 3 -0.5t1 -3.5q-3 -5 -4.5 -10.5l-3 -11t-2 -11.5t-1.5 -12q0 -1 -0.5 -2.5t-1.5 -2.5q0 -1 -0.5 -2l-0.5 -1q-2 -10 -2 -18v-18v-17v-15.5t0.5 -15.5t1.5 -18q0 -5 1.5 -9
t1.5 -9q0 -2 -0.5 -4t-4.5 -1q-1 0 -3 3t-2 4q-2 15 -2 31v30zM144 240q0 2 0.5 3.5t2.5 1.5q4 0 5 -4q4 -28 7 -58t3 -58v-6t-0.5 -6.5t-1.5 -5.5t-4 -3q-1 0 -3.5 -1t-5 -1.5l-5 -1t-3.5 -0.5q-3 -2 -3 -7t1.5 -8t5 -4t7.5 -1.5t9 -0.5q1 0 1.5 -1t0.5 -2t-0.5 -2t-1.5 -1
t-3 -0.5t-3 -0.5q-2 0 -5.5 0.5t-7.5 2t-7 3.5t-3 5v19q0 1 1.5 2.5l2.5 2.5q4 2 7.5 2.5t6.5 1t4.5 2.5t1.5 8q0 8 -0.5 14.5t-1.5 13.5q0 3 -1.5 4t-4 1h-4.5h-4h-7q-1 0 -1.5 -1t-0.5 -2.5v-2.5v-1q0 -5 3 -7t6.5 -2.5t6.5 -1t3 -3.5q0 -1 -0.5 -2t-1.5 -1h-12
q-2 0 -2 -2t-0.5 -4l-1 -4t-3.5 -2q-2 0 -3 2t-1 3q1 21 -2 42t-6 41q-1 6 -2.5 10t-1.5 9q6 0 8 -3.5t3 -8.5t1 -10.5t2 -8.5q0 -2 2.5 -2h5.5t6 -1t5 -4q-1 -2 -3.5 -2.5t-5 -0.5h-5t-2.5 -2v-8v-8q0 -1 0.5 -2.5t1.5 -1.5h19q3 0 3.5 3t0.5 4t-0.5 2.5t-0.5 2.5
q0 3 -1 11.5t-2 18t-2 17.5t-1 12q-1 0 -1.5 3l-0.5 3v1zM193 139v15q0 2 0.5 6t1 9t1 9.5t0.5 6.5q1 3 2 9t2.5 12t4.5 11t6 5q1 0 3 -0.5t2 -2.5t-1 -4.5t-2.5 -5l-3 -5t-1.5 -4.5q-3 -14 -5 -28.5t-2 -29.5q0 -8 2 -16.5t2 -17.5q0 -2 -1 -5t-5 -3q-2 0 -3 1.5t-1 3v3
v2.5t-0.5 2.5t-0.5 3.5t-0.5 3.5l-0.5 1.5v18zM56 160v42q0 4 2 7.5t5.5 5.5t7.5 2.5t8 0.5h10t9 -3q1 -1 3 -2.5t3.5 -3.5t2.5 -3l1 -1v-47q0 -1 -1.5 -1.5l-1.5 -0.5q-3 0 -4 2.5t-1.5 6t0 6t0.5 3.5q-1 3 -3 3h-4h-4t-4 -2l-2 -16v0v-1q0 -1 0.5 -3.5t1 -4.5t0.5 -4v-3
q1 -2 3.5 -2.5t5.5 -1l6 -1t5 -3.5q1 -3 2 -7.5t2 -8.5t1 -8.5v-6.5v-3t-1 -4t-2 -3.5t-2 -1.5t-2 0.5t-1 1.5l-4 32q0 4 -3 5.5t-5 1.5h-5q-1 -2 -1.5 -3.5t-0.5 -3.5q0 -10 1.5 -18.5t0.5 -18.5q6 -3 9 -6.5t4.5 -7.5t2 -9t1.5 -11q0 -2 2 -2.5t4 -0.5t3.5 -1t1.5 -4
q0 -2 -1.5 -2h-2.5q-17 0 -32.5 1t-31.5 0l-2 2l-2 2v1v0q1 1 2 2.5t2 1.5h2t3.5 0.5t3.5 0.5h3v22q0 1 2.5 2.5t6 3t6.5 3t4 2.5q0 5 0.5 8.5t0.5 7v7v7.5q0 3 0.5 7t-1.5 7h-2.5h-2.5q-4 0 -6.5 -2.5t-3.5 -6.5t-1.5 -8t-0.5 -7q0 -1 1 -3l1 -2v-2q0 -2 -1 -4.5t-4 -2.5
q-2 1 -3 2.5t-1.5 4t-0.5 4.5v3q0 6 0.5 12.5t3 12t7.5 8.5t14 1l0.5 1.5l0.5 1.5v1v1v1t-0.5 2.5t-0.5 3v1.5q0 1 -0.5 3.5t-0.5 5.5t0.5 5.5t0.5 3.5q-2 2 -3 3.5t-3 1.5q-3 0 -3.5 -3t-1 -6.5t-2.5 -6.5t-7 -3zM64 193q0 -4 2.5 -6.5t6.5 -3t8.5 0t7.5 0.5h4.5h4.5
q3 1 3.5 2t0.5 3v1q-2 6 -3 9.5t-3.5 5.5t-6 2.5t-10.5 0.5q-8 0 -11.5 -3.5t-3.5 -11.5zM106 77q0 1 2 1.5t3 0.5h2q0 -1 1.5 -3t3.5 -4.5t3 -4.5t2 -3q2 -2 6.5 -8.5t10 -13.5t11 -12t7.5 -5h2t1 0.5t0.5 1l2.5 2.5l1.5 1t3 2.5t3 2.5t1.5 2q1 1 3.5 3t5 4.5l4.5 4.5l2 2
q1 1 2.5 3t3.5 4.5t3.5 4.5t1.5 3q1 0 3 0.5t2 1.5h1h1q2 -2 3.5 -4t1.5 -4v-1q-5 -6 -11.5 -11.5t-13 -10.5t-12.5 -10.5t-12 -11.5q-1 -2 -2 -3.5t-4 -1.5l-4 4.5t-9.5 11.5t-11.5 15.5t-11.5 15.5t-9.5 12.5t-4 7.5zM64 64q0 -3 2 -5.5t5 -3.5t6.5 -1.5t6.5 -0.5h1
q1 0 4.5 0.5t3.5 2.5q1 1 1 3v4q0 9 -4 12t-13 3q-6 0 -9.5 -4t-3.5 -10zM142 56q2 3 5 4.5t5 0.5l28 -3q2 0 2 -1.5v-1.5q0 -2 -2 -3.5t-4 -1.5h-7t-10.5 1t-10 2t-6.5 3zM56 27v1.5t2 1.5h48q4 0 5 -0.5t1 -3.5q0 -1 -0.5 -2.5t-3.5 -1.5h-4.5h-4.5h-4.5h-4.5
q-2 0 -6.5 0.5t-9.5 0.5t-10 0.5t-6 0.5q-2 0 -2 1v2z" />
</svg>
