<?xml version="1.0" standalone="no"?>
<!DOCTYPE svg PUBLIC "-//W3C//DTD SVG 1.1//EN" "http://www.w3.org/Graphics/SVG/1.1/DTD/svg11.dtd" >
<svg xmlns="http://www.w3.org/2000/svg" xmlns:xlink="http://www.w3.org/1999/xlink" version="1.1" viewBox="-10 0 266 256">
   <path fill="currentColor"
d="M147 200q2 2 2 5q0 2 2 6q1 4 4 10.5t7.5 13t9.5 11.5t10 5q2 0 3.5 -1.5t1.5 -3.5v-2q-1 0 -4.5 -3.5l-7 -7l-7 -7t-3.5 -4.5t1 -2t1.5 -2.5l1 -3t1.5 -2.5l0.5 -3.5t2.5 -4.5q5 0 10.5 -1t10 -3t7.5 -5.5t4 -9.5t1.5 -13.5t0.5 -14.5t-4.5 -10t-9 -4.5t-8.5 -4.5
t-4 -10v-2v-3q11 -3 15.5 -7.5t6.5 -11t1.5 -14t0.5 -17.5v-1v-1v-2v-1q0 -1 -0.5 -4.5t-0.5 -7.5t-0.5 -7.5t-0.5 -4.5l-1 -1l-2 -2q-2 -2 -7.5 -3.5t-11.5 -2.5t-10.5 -1.5t-4.5 -1.5q0 -2 1 -4.5t1 -5.5t-1.5 -5.5t-4.5 -2.5q-2 0 -2.5 0.5t-1.5 2.5v3.5v4.5v4.5v3.5
q-1 4 -5.5 4.5t-9.5 1t-9.5 2.5t-5.5 8q-1 9 -1.5 16t-0.5 15q0 14 5.5 23.5t15.5 17.5q2 3 2 5.5v4.5v6q-2 4 -5 5t-6.5 1.5t-6.5 1t-5.5 3t-4 8t-1.5 14.5t1 14.5t4 8.5t8.5 4.5t13.5 2.5zM56 212q1 3 3.5 5t6 3t7 1.5t6.5 0.5q7 0 12 -0.5t13 -2.5q2 -2 4 -6.5t3 -6.5
v-12q0 -8 -0.5 -14t-1.5 -14h-1h-2q-3 0 -3.5 2t0 4.5t-1 4.5t-6.5 2h-5q-1 0 -1.5 -0.5t-0.5 -1.5v-22q9 -3 13.5 -6t7 -7t3 -9.5t0.5 -14.5v-10l-1.5 -0.5l-1.5 -0.5h-1q-2 0 -2.5 2.5t-0.5 6.5v9q0 4 -1 8.5t-5 7t-10 2.5q0 -5 -0.5 -11t-0.5 -13v-14t2 -13l3 -1t6 -2.5
t5 -3t2 -2.5v-24l6 -3t5 -2l2 -2v0v-1l-2 -2h-18h-12h-11t-11 0.5t-14 1.5l-0.5 0.5l-0.5 0.5q-1 2 -1 4v2h15l4 4v21l1.5 1.5l2.5 2.5t2 1.5t2.5 1.5t2.5 2t1 2v46q0 3 -1.5 3.5t-2.5 0.5q-7 0 -10 -4t-4 -9t-0.5 -11t0.5 -10l-4 -5q-2 1 -2.5 2.5t-0.5 2.5v2q0 2 -0.5 4
t-0.5 4v2q0 6 0.5 11t1.5 10q1 4 5 5l8 2t7.5 2t3.5 6v4v6.5t-0.5 6.5t-0.5 4h-17v-16q0 -2 -1.5 -2h-2.5h-2q0 2 -1 5.5t-1.5 7t-0.5 7v6.5q0 1 0.5 4.5t1 8t1 8t0.5 4.5zM62 193v-2.5v-2.5l2 -1l2.5 -0.5t6.5 -0.5t7.5 -0.5t6.5 -0.5h3h5h4h2l1 2v20q0 3 -2.5 4t-6 1.5
t-7 0t-4.5 -0.5q-11 0 -15.5 -4t-4.5 -15zM152 166q0 -1 -0.5 -1.5l-0.5 -0.5h-1h-1q-1 0 -2 1l-1 1v27q-6 0 -10 -1.5t-6 -4.5t-3 -8t-1 -11v-10q2 -6 4.5 -7.5t6 -2l7 -1t6.5 -2.5t4.5 -6.5t2.5 -14.5l1 -1h17q0 8 1.5 12t4 6.5t5 4t5 2.5t4 2.5t2.5 5.5v3t0.5 4.5
t0.5 5.5v5h1v1q0 4 -1.5 8t-4.5 7.5t-7 5.5t-9 2q0 -7 1 -14.5t1 -15.5q0 -2 -0.5 -4t-2.5 -2t-3 4t-2 9t-1.5 11.5t-1.5 12t-2.5 9t-4.5 3.5q-1 0 -2 -1.5l-2 -3t-1.5 -2.5l-0.5 -1q-2 -9 -3 -18.5t0 -18.5zM149 113l-1.5 -1.5t-0.5 -1.5v-2q1 0 3 -2t4 -4.5t3.5 -4.5
t2.5 -3t2.5 -2t3.5 -1v0q1 0 3 0.5l2 0.5l18 18q-4 3 -7.5 4t-8.5 1q-7 0 -12 -0.5t-12 -1.5zM138 100q-1 -1 -1.5 -5t-1.5 -8.5t-1.5 -8t-0.5 -5.5v-1v-2v-3t0.5 -4.5t0.5 -4.5v-3q1 -1 4 -1q2 0 6 3.5t8 8t7 9.5t3 7q0 1 -2.5 4.5t-6 7.5t-7 7t-4.5 3q-2 0 -3.5 -0.5
t-0.5 -3.5zM171 79q0 -1 3.5 -5.5t8 -9.5t8 -9t4.5 -4v0q1 0 1.5 0.5l0.5 0.5v40q0 3 -1 5.5t-4 2.5h-0.5h-1.5q0 -1 -1.5 -2.5t-3.5 -3t-3.5 -3l-2.5 -2.5t-2.5 -2t-2.5 -2t-2 -2.5t-1 -3.5zM74 59v0q0 -1 1 -1.5t2 -0.5h21l0.5 0.5l1 1t1 3t0.5 3.5v1l-0.5 3l-1 6
t-1.5 5.5t-2 2.5h-14l-7 -7v-3t-0.5 -6.5t-0.5 -6.5v-1zM162 70q-3 -2 -6 -4.5t-5.5 -5.5t-4.5 -6.5t-2 -7.5q4 -3 8.5 -4t9.5 -1h9.5h9.5q2 0 4 0.5t2 3.5q0 1 -3 6t-7 10.5t-7.5 9.5t-4.5 4l-1.5 -1.5l-1.5 -1.5v-1v-1zM64 26v1q1 0 2 1.5l1 1.5h11h8h8t8 -0.5t10 -1.5
q1 0 1.5 -1t0.5 -2q0 -3 -2.5 -4t-6 -1h-6.5h-4h-7t-10.5 0.5t-9.5 1.5t-4 4z" />
</svg>
