<?xml version="1.0" standalone="no"?>
<!DOCTYPE svg PUBLIC "-//W3C//DTD SVG 1.1//EN" "http://www.w3.org/Graphics/SVG/1.1/DTD/svg11.dtd" >
<svg xmlns="http://www.w3.org/2000/svg" xmlns:xlink="http://www.w3.org/1999/xlink" version="1.1" viewBox="-10 0 266 256">
   <path fill="currentColor"
d="M141 232v5t0.5 6t2 5.5t4.5 2.5h18q3 0 5 -2t3.5 -4.5t2.5 -5.5t1 -5q1 -1 3.5 -4t5.5 -5.5t5.5 -5.5t2.5 -4q1 0 2 -0.5t2 -1.5l2 -2t1 -3t-1.5 -3t-3.5 -1q-4 0 -8.5 4.5t-9 11t-8.5 12.5t-8 9q0 1 -2 1h-3q-4 0 -8 -2t-4 -8q0 -8 4 -13.5t9.5 -10.5t9.5 -11t4 -14
t-4.5 -10.5t-10.5 -2.5q-5 0 -9 2t-9 2q-2 0 -3.5 -1.5t-2.5 -3t-1.5 -3.5t-0.5 -4q1 -5 4.5 -7.5t8.5 -4t10.5 -2t10.5 -2t8 -4.5t3 -9q0 -5 -1 -8.5t-3 -5t-5.5 -2t-8.5 -1.5q-2 -1 -3.5 -3.5t-2 -5t-2 -4.5t-3.5 -2t-2 3v3q0 8 3.5 11t7.5 5t7.5 3.5t3.5 5.5
q0 2 -0.5 3.5t-2.5 2.5q-8 1 -14.5 2.5t-12 4.5t-8.5 8.5t-3 14.5q0 8 3.5 10.5t10.5 2.5q5 0 9.5 -1t9.5 -1q3 0 4 2t1 5q0 7 -4 11l-8.5 8.5t-8 10.5t-3.5 16zM52 205v17.5t2 13.5t7.5 8.5t15.5 2.5h9t10 -1t9 -4t5 -8v-14.5t0.5 -12t1 -11.5t0.5 -14v-1q-1 0 -2 -1.5
l-1 -1.5q-1 0 -2.5 0.5t-2 1l-1 1l-0.5 0.5q-1 7 -1 10t-1 4t-4 1h-9v-37q0 -1 3 -1.5t6.5 -1.5t7 -3t4.5 -5q0 -2 0.5 -5l1 -6t1 -5.5l0.5 -2.5l-0.5 -2t-0.5 -4t-0.5 -3.5l-0.5 -1.5v-3.5v-4.5v-4v-3q0 -2 -1 -2.5t-3 -0.5q-1 0 -2.5 1t-1.5 3v34q0 3 -3.5 5.5t-5.5 2.5
h-3t-2 -2v-54q3 -2 5.5 -3t4 -2.5t2.5 -4t1 -5.5q1 -1 1 -4t0.5 -6t0.5 -5.5v-3.5q3 -2 5 -5.5t2 -7.5v0q0 -1 -0.5 -1.5l-0.5 -0.5q-9 2 -17.5 3t-16.5 1.5t-16.5 1t-16.5 1.5q-3 0 -3.5 1t-0.5 3q0 4 2.5 5t5.5 1t6 -1t6 -1q4 0 5 3.5t1 8t-0.5 9.5t2.5 7q1 1 2.5 2t3.5 1
t4 0.5t3 2.5v18v19t-1 19l-2 2h-1q-5 0 -7 -3.5t-3 -9t-1.5 -11.5t-0.5 -11t-1 -8.5t-3 -3.5q-4 0 -5.5 3.5t-1.5 5.5v5t0.5 8.5t1 8t0.5 4.5q0 7 2 10.5t4.5 5.5t7 3.5l10.5 3.5l1 3v32l-3 4h-12q-1 0 -1.5 -3t-0.5 -4v-5.5v-3.5q0 -2 -1 -3t-3 -1q-4 0 -5.5 3.5t-1.5 8
t0.5 9t0.5 6.5zM62 219q0 -3 0.5 -6.5t3.5 -5.5q8 -1 17.5 -1.5t18.5 -0.5v4v6.5t-0.5 6.5t-0.5 4q0 5 -2 7t-5 2.5t-6.5 0.5h-6.5h-2h-4h-3.5h-2.5q-2 -1 -3 -3t-2 -4.5t-1.5 -5t-0.5 -4.5zM180 168q0 6 1.5 10t5 6.5t7.5 4.5l8 4h-2q5 -3 8 -5.5t5.5 -5.5t3.5 -7t1 -10
t-3.5 -10.5t-8 -8t-10 -5t-9.5 -1.5h-3t-2 3t4 4.5t9.5 4t9.5 6t4 9.5t-3 10.5t-8 4.5t-7 -3t-3 -6.5l-2 -7t-4 -4.5l-2 1v3v3zM200 132q1 2 2 2h2q2 0 3 -0.5t2 -2.5v-3v-3v-3v-3q0 -5 -0.5 -10t-2 -8t-5 -5t-9.5 -3h-5t-8.5 -0.5t-8.5 -1t-5 -0.5q-3 -1 -5 -3t-2 -6
q0 -5 3 -7t7 -2q2 0 6.5 -0.5l9 -1t9 -0.5h6.5q4 -1 6.5 -3.5t3.5 -6.5t1.5 -8t0.5 -8v-5v-5q-1 -5 -6 -8.5t-10.5 -4.5t-11.5 -1.5t-10 -0.5h-12.5t-12.5 2q-1 1 -4 2t-6.5 3t-7.5 5t-6 9q0 1 -0.5 5t-1 8.5t-0.5 8.5v6v7v11.5v12.5q0 7 -0.5 13.5t-0.5 11.5v7
q4 0 6.5 -1.5t3.5 -4t1 -6v-7.5v-1v-3.5t-0.5 -6t-0.5 -6v-3.5v-2v-1q0 -16 0.5 -27.5t3.5 -19.5t11 -12t24 -4q8 0 13.5 0.5t9 2.5t5.5 6t2 12q1 1 1.5 3t0.5 3l-0.5 1.5t-1.5 3.5t-2 3.5t-3 1.5h-34l-1 1.5t-3 3t-3 2.5q-2 2 -2.5 4.5t-0.5 5.5q0 8 2.5 11.5t6 5.5t8.5 2
h9.5t9 1t8 4.5t5 9.5t0.5 17zM72 64v-3v-3q1 -2 3 -3t4.5 -1.5t4.5 -0.5h3t3.5 0.5l2.5 0.5l2 2v2v3v4t-0.5 6t-1 5t-2.5 2h-13q-2 0 -3.5 -1.5t-2 -4t-0.5 -5v-3.5zM141 47v0.5v0.5q0 1 1.5 1.5l1.5 0.5h46l7 -2l0.5 -0.5l0.5 -0.5q0 -3 -3.5 -4t-8 -1.5t-8.5 -0.5h-6h-8
t-10.5 0.5t-9 1.5t-3.5 4zM55 21q0 3 1.5 4t4.5 1h1q2 0 4.5 -0.5l5 -1t5 -0.5h2.5q1 0 5 -0.5t7.5 -1.5t7 -2.5t3.5 -4.5q0 -2 -2 -2h-3q-11 0 -21 2t-21 3v2v1z" />
</svg>
