<?xml version="1.0" standalone="no"?>
<!DOCTYPE svg PUBLIC "-//W3C//DTD SVG 1.1//EN" "http://www.w3.org/Graphics/SVG/1.1/DTD/svg11.dtd" >
<svg xmlns="http://www.w3.org/2000/svg" xmlns:xlink="http://www.w3.org/1999/xlink" version="1.1" viewBox="-10 0 266 256">
   <path fill="currentColor"
d="M117 246q0 5 4 5q1 0 2.5 -0.5t1.5 -3.5q1 -13 2.5 -26t2.5 -25.5t2.5 -25t2.5 -26.5q0 -2 0.5 -6.5l1 -9l1 -9t0.5 -5.5q1 -6 4 -9.5t7 -5t9 -2t9 -1.5h6.5t9 -0.5t9 -0.5h6.5q1 -1 3 -2t2 -3t-1.5 -2h-2.5h-4q-2 0 -7.5 0.5t-11.5 0.5t-11.5 0.5t-7.5 0.5q-1 0 -4 1
t-6.5 2t-6.5 2.5t-4 2.5q-2 2 -3.5 9t-2.5 15.5t-2 18t-1.5 18.5t-1 16t-0.5 10l-0.5 3t-0.5 6.5t-0.5 6.5t-0.5 4q0 4 -1 9.5t-2.5 10.5t-2 10.5t-0.5 10.5zM57 234l2 3q1 2 4 3.5t6 2t7 0.5h5q3 0 7.5 -0.5t8.5 -1.5t6.5 -3.5t3.5 -7.5q1 -2 1 -7t0.5 -10.5t1 -10.5
t0.5 -7v-3q0 -4 -4 -4h-1q-1 1 -2 3.5t-1.5 4.5l-0.5 2h-15v-28q0 -3 2.5 -4.5t5.5 -2t5.5 -1t4.5 -1.5q3 -3 4.5 -8t2.5 -10t1 -10v-9q0 -2 -1 -4t-3 -2l-0.5 0.5l-0.5 0.5l-1.5 1t-1.5 2q1 7 1 13t-2 10.5t-6 7t-10 2.5q0 -1 -0.5 -5t-0.5 -9v-8v-6q0 -1 0.5 -4.5
t0.5 -7.5t0.5 -7t0.5 -4q3 -5 5.5 -6.5t4 -3t2 -4t1.5 -9.5q1 -9 3.5 -12.5t6 -4.5t6 -1.5t2.5 -3.5q0 -1 -0.5 -2t-1.5 -1h-4.5h-5.5q-7 0 -15.5 0.5t-16.5 2t-16 2.5t-15 2v1v1q0 3 1 4.5t4 1.5t6 -1t6 -1h1l3 24q0 2 2 3t4.5 2t5 2.5t3.5 3.5v14v8.5v11.5t-1 11t-2 7h-3
h-3q-5 0 -7.5 -4t-3 -9.5t-0.5 -11.5v-9q0 -2 -1.5 -2h-2.5h-1h-1q0 1 -0.5 3t-0.5 4t-0.5 4t-0.5 3v2q0 10 2 16t4.5 8.5t5.5 3t6 0.5t5 0.5t3 3.5v9v11.5t-1 11.5q-1 0 -3 1t-3 1t-4 -0.5l-3 -0.5v-13l-1 -0.5t-1 -1.5h-1h-1q0 1 -1.5 2.5l-1.5 1.5v44zM63 217v-5
q1 -1 2 -1.5t2.5 -1t2.5 -1l1 -0.5q9 -1 16.5 -1.5t15.5 -0.5q0 5 -0.5 10.5t-2 9.5t-5 7t-9.5 3q-5 0 -9.5 -1t-7 -3t-4.5 -5.5t-2 -9.5zM143 217q0 3 3 3h1h1l34 -24q2 -2 5.5 -4.5t7 -5.5t6 -6.5t2.5 -7.5q0 -2 -0.5 -3t-2.5 -1h-1h-1q-1 1 -4.5 5t-7.5 8l-7.5 7.5
l-4.5 4.5q-2 2 -7.5 4.5t-10.5 5.5t-9 6.5t-4 7.5zM191 139q-1 0 -4.5 2t-9 6t-11.5 8.5t-10.5 8.5t-8 7.5t-3.5 4.5h5q1 0 3 -1t4.5 -2t5 -2.5t3.5 -2.5t5 -3.5t8 -6t8.5 -6.5t6.5 -5q1 0 2 -1.5l1 -1.5v-1q0 -2 -1.5 -3t-3.5 -1zM147 138l0.5 0.5l0.5 0.5l0.5 1l0.5 1h1
q3 0 10.5 -4t15 -9t13.5 -10.5t6 -7.5q0 -3 -1 -4t-3 -1h-1.5h-1.5q0 1 -1.5 2.5l-3 3l-3 3t-2.5 1.5q-1 2 -6 5t-10.5 6.5t-10 7t-4.5 4.5zM68 70v-1q5 -1 11 -2t11 -1h1q1 0 2 0.5t1 1.5v7v3v5t-0.5 5t-2.5 2h-16l-1 -3t-2.5 -6.5t-2.5 -6.5t-1 -4zM190 76q1 3 3.5 5
t6.5 2q2 0 4 -0.5t2 -3.5q0 -4 -5 -7t-11 -5t-11 -4t-5 -6v-1l16 -12h1h1q2 0 4 1t3.5 1.5t3.5 1.5t4 1q3 0 4.5 -0.5t1.5 -3.5t-4.5 -6t-10 -5t-11 -3t-7.5 -2q-6 -2 -7.5 -5.5t-1.5 -6.5v-5t-4 -2q-2 0 -3.5 1t-2.5 3t-1.5 4.5t-0.5 3.5q-1 6 -6 10t-10.5 7t-10 5.5
t-4.5 5.5v1q1 0 1.5 0.5t0.5 1.5q1 0 2.5 -0.5t3.5 -0.5t4 0.5t3 0.5l2 0.5t4.5 1.5t4.5 2t2 2v1.5v0.5q-1 1 -3.5 2t-5 3t-4.5 3t-3 2q-3 2 -4 3t-1 4v1.5t1 1.5t3 -0.5l2 -0.5l22 -17zM149 48q0 -2 2 -4t4 -3.5l4 -3t3 -2.5h18l3 4q-1 2 -3.5 4.5l-5 5t-5 4t-5.5 1.5
q-1 0 -3.5 -0.5t-5 -1.5t-4.5 -2t-2 -2zM67 35q3 2 5 2h6q8 0 15.5 -0.5t15.5 -1.5l0.5 -0.5l0.5 -0.5l0.5 -0.5l0.5 -0.5q0 -2 -2 -3t-4 -1h-4h-3h-7.5h-7t-7 0.5t-8.5 1.5q-1 0 -1 1v2v1z" />
</svg>
