<?xml version="1.0" standalone="no"?>
<!DOCTYPE svg PUBLIC "-//W3C//DTD SVG 1.1//EN" "http://www.w3.org/Graphics/SVG/1.1/DTD/svg11.dtd" >
<svg xmlns="http://www.w3.org/2000/svg" xmlns:xlink="http://www.w3.org/1999/xlink" version="1.1" viewBox="-10 0 266 256">
   <path fill="currentColor"
d="M159 243q0 2 1 5.5t4 3.5t4.5 -7t2 -16t0 -18t-0.5 -13q0 -2 0.5 -7.5t0.5 -11.5t0.5 -11.5t0.5 -7.5q0 -1 1 -1.5t2.5 -0.5h2.5h1q5 0 8 3.5t5 8t2.5 10t0.5 9.5q0 2 0.5 8t0.5 13t0.5 13t0.5 9h1q2 0 3 -2t2 -3v-3v-4v-5v-2v-4v-4v-4.5v-2.5q0 -2 -0.5 -7t-1.5 -10.5
t-1.5 -10t-1.5 -6.5q-1 -5 -4 -7t-5.5 -3.5t-5.5 -2t-5.5 -1t-4 -2.5t-1.5 -6v-1v-2t0.5 -2t1.5 -1q8 -1 13 -2.5t7.5 -5t3 -9t0.5 -13.5v-3.5v-3.5t-1 -1.5t-2 -0.5t-2 0.5t-1 1.5q-1 5 -1 10t-1.5 9t-5 6.5t-9.5 2.5h-1.5t-1.5 -1v-10v-13t2 -12q2 -3 5 -4t6.5 -2l7 -2
t5.5 -4q1 -15 3 -29.5t2 -29.5q0 -3 -1.5 -6.5t-5.5 -3.5h-1q-1 0 -1.5 0.5l-0.5 0.5v15l-5 3q-5 0 -9 0.5t-7.5 0.5t-7.5 0.5t-9 0.5h-1q-1 0 -3.5 -0.5t-3.5 -1.5v-3q0 -3 -0.5 -5.5t-1.5 -4.5t-3 -2q-4 0 -4.5 1.5t-0.5 5.5v5q1 3 1 9.5t1 14t1.5 14t0.5 9.5l1 1.5t1.5 3
t1.5 3t1 2.5q1 2 4 2.5t5 0.5q3 0 5.5 0.5t3.5 2.5v3.5t0.5 5.5t1 5.5t0.5 3.5v3v2q0 1 -0.5 3l-1 4t-0.5 4v3q-1 0 -2 0.5l-1 0.5h-1h-1h-2.5t-3.5 -0.5t-3.5 -0.5h-2.5q-2 -3 -2.5 -6t-1 -7t0 -7.5t0.5 -5.5q-2 -3 -5 -3q-1 0 -2 0.5t-1 2.5v5v5q0 8 2 13t5.5 7.5t7.5 3.5
t7 2t5.5 2.5t2.5 4.5q0 4 -3 6t-6.5 3.5t-7.5 3t-7 4.5q-3 5 -5 13.5t-3 18t-1 18.5v15v4q0 3 2 3h1l2 -2t1 -2q0 -2 0.5 -7.5t1 -12t1 -12t0.5 -7.5q1 -5 1.5 -10.5t2 -10t4.5 -7t9 -2.5q3 0 4 2t1 5v6v5q0 10 -0.5 20.5t-1.5 20.5q0 6 -1.5 12.5t-1.5 12.5zM60 166v13
q0 3 0.5 8.5l1 11t0.5 10.5v6q1 7 4 10.5t9 7.5h11q13 0 19 -3.5t8 -10t1.5 -15.5t0.5 -21v-8v-8q-1 -2 -3.5 -2h-3.5v11t-2 11h-3q-2 0 -5 -1t-3 -4v-33q0 -1 0.5 -1.5t1.5 -0.5q4 -1 7 -1.5t5 -2t3.5 -3.5t3.5 -6q0 -1 0.5 -4t0.5 -6.5t0.5 -6.5t0.5 -5v-2q0 -2 -1 -5
t-3 -3h-1l-0.5 1t-1.5 1q0 3 -0.5 8.5t-1.5 11.5t-3 10.5t-5 4.5t-4 -1t-2 -4v-3.5v-4.5v-5v-3v-15.5t2 -15.5q6 -3 8.5 -7t3.5 -8.5t1.5 -10t2.5 -12.5q1 -3 3 -3h4t3.5 -1t1.5 -6q-17 0 -34.5 2t-34.5 2q-3 1 -4 3t-1 5h22v26l1 1.5t1 2.5q1 1 3 2l4 2t3.5 2t1.5 4v45
l-2 3h-1.5h-2.5q-6 0 -9 -4t-3.5 -10t-0.5 -12t-1 -11h-1.5h-1.5q-4 0 -4.5 2.5t-0.5 5.5v7.5t0.5 7t1.5 7t1 5.5q1 5 5 7t8.5 2.5t8 1t3.5 2.5v37h-17v-18q0 -1 -1 -1.5t-2 -0.5l-3 -0.5t-4 -0.5zM69 203v-2v-3.5t1 -3t2 -1.5h35v14q0 5 -1.5 9t-6 5.5t-12.5 1.5
q-9 0 -13.5 -5.5t-4.5 -14.5zM146 51v-0.5v-1.5t0.5 -4.5t0.5 -5.5q5 -1 8.5 -1t6.5 -0.5t6 -0.5h8h2q2 0 3.5 0.5t3.5 0.5h2q3 1 4.5 3.5t1.5 6.5v1q0 3 -0.5 6.5l-1 7t-1 6.5t-0.5 4t-1 2.5t-2 1.5q-7 3 -10.5 3.5t-9.5 0.5q-8 0 -12 -2t-6.5 -6t-2.5 -9.5v-12.5zM79 54
q1 -2 3 -3t4 -1.5t5 -0.5h4h5l3 4v2v3v8t-1.5 7t-4.5 4.5t-7 1.5q-5 0 -7.5 -2.5t-3 -6.5t-0.5 -8v-8zM154 59q6 1 10 1.5t9 0.5h3h4t3 -1t1 -3q0 -3 -1 -3.5t-5 -0.5h-3t-6 0.5t-6 0.5h-4q-3 1 -4 1t-1 3v0.5v0.5zM69 19q0 3 2 4t5 1h3q2 0 7 -0.5t10.5 -1l11 -1t7.5 -0.5
l2.5 -1t2.5 -2t-1.5 -3t-2.5 -2h-7h-8.5t-13.5 0.5t-12.5 1.5t-5.5 4z" />
</svg>
