<?xml version="1.0" standalone="no"?>
<!DOCTYPE svg PUBLIC "-//W3C//DTD SVG 1.1//EN" "http://www.w3.org/Graphics/SVG/1.1/DTD/svg11.dtd" >
<svg xmlns="http://www.w3.org/2000/svg" xmlns:xlink="http://www.w3.org/1999/xlink" version="1.1" viewBox="-10 0 266 256">
   <path fill="currentColor"
d="M153 217q0 3 0.5 9t2 11.5t4 10t6.5 4.5t4 -2.5v-5.5q0 -4 -1 -7t-2.5 -6.5t-3 -7.5t-1.5 -7q0 -6 2.5 -10.5t6 -9t7.5 -8.5t7 -8.5t5.5 -10.5t2.5 -13q0 -5 -1 -10t-1 -11v-3v-4v-5v-2q0 -1 1.5 -1.5t2.5 -0.5h2t4.5 -0.5t4.5 -0.5h3q1 -1 1.5 -2.5t0.5 -2.5q0 -4 -4 -4
h-1q-1 0 -5.5 0.5t-9.5 1.5t-9 1.5t-5 0.5h-1q-4 0 -6.5 -1t-2.5 -5t4 -7t9 -5.5t10 -5.5t6 -7q1 -3 1 -8.5t0.5 -11.5t1 -11.5t0.5 -7.5v-3.5v-5.5v-4.5v-3.5q2 -1 4.5 -1.5l5 -1t4 -2t1.5 -3.5q0 -3 -3 -4t-5 -1q-4 0 -7 0.5t-8 2.5l-58 4h-1.5t-3 0.5t-2.5 1t-1 2.5
q0 3 3 3.5t5 0.5q13 0 27 -0.5t27 -0.5q0 7 1 16t0.5 17.5t-3 16t-10.5 11.5q-3 2 -5 2.5t-3.5 2l-3.5 3.5t-4 5q0 1 -0.5 3.5t-1 4.5t-1.5 3.5t-3 1.5h-26l-6 4h-1q0 2 2 3t3 1t5 0.5t5 0.5q9 0 18 -1t18 -1h9l2 1v2v3v4v2v11t-0.5 12.5t-2 12t-4.5 9.5l-9 9t-7 8.5
t-4.5 9.5t-1.5 12zM53 177q0 6 -0.5 12.5t0.5 13t4.5 10.5t11.5 4h3h6t8 -0.5t8 -0.5h6q5 -2 7.5 -7t3.5 -11t0.5 -12t-0.5 -10v-19q-1 -1 -2.5 -1.5t-2.5 -0.5t-2 1.5l-1 1.5v15q0 1 -1.5 1.5l-1.5 0.5h-3h-3q-2 0 -4.5 -0.5t-2.5 -4.5v-2v-5t0.5 -8t0.5 -7.5v-5.5
q2 -2 4.5 -3t5.5 -1.5t5.5 -1.5t4.5 -4t3 -7.5t1.5 -9.5t0.5 -10t1 -9l1 -1t1 -2q-1 -3 -2 -4t-4 -1h-2t-2 2l-3 29q-2 2 -2 4t-1 3.5t-2 2t-4 0.5h-4q-2 -2 -2 -4v-4q0 -10 1 -19t1 -19q2 -3 5.5 -5t5.5 -4q2 -3 2.5 -6.5l1 -7t0.5 -6.5t1 -7q1 -2 3 -2.5t4 -0.5t3.5 -1.5
t1.5 -5.5q-15 0 -31.5 1.5t-31.5 2.5h-3t-4 0.5t-3.5 1.5t-1.5 3l0.5 1.5t1.5 1.5h21v28q0 2 2 2.5t4.5 1t5 0.5t2.5 2v17v16v3.5t-0.5 5t-1.5 4.5t-4 2q-7 0 -10 -3t-4.5 -7.5t-1.5 -9.5v-10q0 -4 -1 -7t-3 -3q-4 0 -5 1t-1 5v8t0.5 12.5t2 12t5.5 6.5q1 0 4 0.5t6.5 1
t6.5 1t4 0.5q1 1 1.5 2.5t0.5 2.5v3q0 1 -0.5 3t-0.5 4.5t-0.5 4.5t-0.5 3v0v1q0 1 1 3l1 2q-1 5 -2 6t-5 1h-4t-4 -2q0 -2 0.5 -5t0 -5.5t-2 -4t-4.5 -1.5h-3q-1 0 -2 1v19zM62 195q0 -6 5 -9t11 -3.5t13 -0.5h10q0 7 -0.5 13.5t-5.5 10.5h-5t-6.5 0.5t-7 0.5h-4.5h-1
q-1 0 -3 -1t-3 -3l-2 -4t-1 -4zM127 170q2 5 6.5 6t9.5 1q10 0 15 -1.5t7.5 -4.5t3 -9t0.5 -15v-5.5v-5.5q-1 -2 -1.5 -2h-1.5q-3 0 -3.5 2t-2 4.5t-5 4.5t-11.5 2h-3h-3q-2 -1 -2.5 -3l-1 -4l-1 -4t-3.5 -2q-1 -1 -2.5 0.5t-2 3t-0.5 3v2.5v1q0 1 0.5 5t0.5 8t0.5 8t0.5 5z
M135 161q0 -3 1.5 -4.5t4 -2.5t5 -1h4.5q4 0 6.5 1.5t2.5 6.5q0 3 -1.5 4.5t-3.5 2t-4.5 0.5h-3.5h-8q-2 -1 -2.5 -3t-0.5 -4zM138 52q0 6 0.5 10.5t2 7.5t5.5 4t10 1q5 0 9 -0.5t7 -5.5q1 -4 1.5 -7t1 -5.5t0.5 -5v-5.5t-0.5 -6.5t-4.5 -3.5q-2 0 -3 1.5t-2 3.5t-2.5 3.5
t-5.5 1.5q-3 0 -5.5 -1t-4 -2.5t-3 -2.5t-3.5 -1q-3 0 -3 4v9zM74 65v-1v0v-3t0.5 -4.5t0.5 -4.5v-3q1 0 2 -0.5t2 -1.5h2t4.5 -0.5t4.5 -0.5h3q3 1 4 4.5t1 6.5q0 8 -4 12.5t-11 4.5q-3 0 -6 -3.5t-3 -5.5zM146 61q0 -4 1.5 -5.5t3.5 -2t4.5 -1t4.5 -0.5q3 0 3.5 2.5
t0.5 4.5q0 6 -3 7t-7 1q-8 0 -8 -6zM55 17q0 3 1.5 4.5t4.5 1.5h1q3 0 8.5 -0.5t12 -1t12 -1t8.5 -0.5q2 0 2.5 -1.5t0.5 -3.5q0 -3 -3 -3.5t-6 -0.5q-9 0 -19 1.5t-20 0.5l-2 2l-1 1v1z" />
</svg>
