<?xml version="1.0" standalone="no"?>
<!DOCTYPE svg PUBLIC "-//W3C//DTD SVG 1.1//EN" "http://www.w3.org/Graphics/SVG/1.1/DTD/svg11.dtd" >
<svg xmlns="http://www.w3.org/2000/svg" xmlns:xlink="http://www.w3.org/1999/xlink" version="1.1" viewBox="-10 0 266 256">
   <path fill="currentColor"
d="M45 203v22t3.5 14.5t11 8t21.5 2.5q10 0 15 -3.5t7.5 -9.5t2.5 -14v-16v-21q-1 -1 -2 -1.5t-3 -0.5h-1q0 7 -2 11.5t-8 4.5h-2q-2 0 -3.5 -0.5t-2 -1.5t-0.5 -2v-28q0 -1 2 -2t3 -2l2 -0.5t3.5 -1t3 -1.5t2.5 -1q3 -2 5.5 -8.5t4 -14t2 -14.5t0.5 -10v-1v0l-3 -4.5
t-4 -1.5q-1 0 -2 0.5t-1 1.5t-0.5 5t-1 8.5t-0.5 8.5v6q0 3 -1 5.5t-2 5.5t-3 4.5t-5 1.5q-2 0 -3 -0.5t0 -3.5q-1 -1 -1 -3.5v-5.5v-6v-4v-12t1 -9.5t3.5 -9t6.5 -8.5l3 -3l3 -3v-1.5t0.5 -4t0.5 -5v-4.5v-1v-2v-2v-2q1 -2 3 -3.5t4 -2.5l4 -2t2 -3t-1.5 -3.5t-3.5 -2
t-4 -0.5h-4q-15 0 -31.5 2t-32.5 2q-1 1 -1.5 2t-0.5 3q0 1 0.5 2.5t1.5 1.5h16l4 4q-1 14 1.5 19.5t6 7.5t6.5 3t3 6v35q-1 2 -1 6v6t-1 5t-3 2q-6 0 -8 -3.5t-5 -7.5v-34q0 -1 -2 -1.5t-3 -0.5q-5 0 -5 8v35q0 7 3.5 9.5t8 3.5t9 2.5t6.5 7.5v5v5v7q0 3 -0.5 5.5t-2.5 4
t-6 1.5h-3h-2q-2 -2 -2 -5t-0.5 -5t-1.5 -4t-4 -2t-4.5 2.5t-2 5.5t0 6t0.5 5zM57 216q0 -4 3 -6t7.5 -2.5t8.5 -0.5h7h11q2 2 2 5.5v5.5v5t-1 6t-2.5 5.5t-3.5 2.5h-25q-2 0 -3.5 -3t-2 -6.5l-1 -7t-0.5 -4.5zM122 205q3 9 5 13.5t5 6.5t8.5 2.5t13.5 1.5q1 0 6 0.5
t11.5 0.5t12.5 0.5t10 1.5h4q2 0 4.5 -0.5t5 -1.5t4 -2.5t1.5 -3.5q0 -4 -3 -5t-6 -1q-5 0 -10 1t-10 1q-10 0 -19 -0.5t-20 -1.5q-1 0 -4 -1.5t-4 -2.5q-1 0 -1.5 -0.5l-0.5 -0.5l-5 -34v-75q0 -1 0.5 -3.5t0.5 -3.5q1 -2 1 -8t0.5 -13t0.5 -12.5v-8.5q1 -1 2 -3.5t1 -5
v-4.5t1 -3q0 -3 5.5 -5.5t12.5 -3.5t13.5 -1.5t8.5 -0.5t6.5 -0.5t9.5 -1t10 -0.5h6t1.5 -1l0.5 -1v-0.5v-0.5v-0.5v-0.5l-1.5 -1.5l-1.5 -1.5q-1 -1 -3 -1h-5h-4h-2h-25.5t-22 2.5t-16 10.5t-8.5 24q0 9 -0.5 19t-0.5 20.5v20.5v19v7v8v8v3v9t0.5 13.5t0.5 14v8.5zM188 192
q2 4 6 6t8 2q2 0 4.5 -0.5t5 -1.5t4.5 -2.5t2 -3.5q1 -8 2 -13.5t1.5 -10.5t0.5 -10v-13v-16l-2 -4t-4 -2h-1.5t-1.5 2l-4 29h-15v-27q0 -1 -1 -1.5l-1 -0.5h-2t-2 2t-2 3v4v6v6v4v11t0.5 10t0.5 10t1 11zM144 141v7v10t0.5 12t1 11.5t1.5 9.5t2 5q3 1 6.5 1.5t7.5 0.5h2.5
h2.5q1 -1 2.5 -2t2.5 -2.5l2 -3t1 -2.5v-58q0 -1 -1.5 -1.5t-2.5 -0.5q-2 0 -3 1t-1 3v21q0 1 -0.5 2t-2 1.5t-2.5 0.5h-2q-5 0 -7.5 -2.5t-3 -5.5t-0.5 -6.5t0.5 -7t0 -5.5t-2.5 -2l-0.5 0.5l-0.5 0.5l-1.5 1.5l-1.5 1.5v9zM159 164q6 0 7 3.5t1 8.5t-1 9t-7 4
q-1 0 -3.5 -1t-2.5 -4v-16q0 -3 2.5 -3.5t3.5 -0.5zM193 175q0 -5 2.5 -9t8.5 -4h3t2 2q0 1 0.5 4t0.5 4v5t-1 5.5t-2.5 4.5t-5.5 2q-2 0 -4 -1.5t-2.5 -3.5t-1 -4.5t-0.5 -4.5zM156 95q3 4 5.5 6.5t5.5 3.5t6.5 1h8.5h2h2.5h2.5h3q3 -1 6 -4t4 -5q1 -7 1.5 -11.5t0.5 -8.5
v-8.5v-10.5v-2v-4v-3v-3l-1.5 -1.5t-2.5 -1.5v-1q-3 0 -4.5 2.5t-1.5 6t-0.5 7t-1.5 5.5q-1 0 -2.5 0.5l-3 1t-3 0.5h-2.5h-7.5h-7.5h-3v-15l-2 -0.5t-3 -1.5h-1v0q-3 0 -3 2v4v5q0 3 0.5 8t1 10.5t0.5 10.5v7zM163 82q0 -3 0.5 -4.5t3.5 -3.5h3t4.5 -0.5t5 -0.5h3.5l1 -0.5
t2 -0.5t2.5 0.5t3.5 1.5v8q0 10 -4 12.5t-14 2.5q-7 0 -9 -4.5t-2 -10.5zM66 68q0 -6 5 -10q1 0 4.5 -0.5t4.5 -0.5h2.5h3.5t3.5 0.5t2.5 1.5v8q0 7 -2.5 12t-10.5 5q-7 0 -10 -4.5t-3 -11.5zM51 19q0 2 2.5 3t3.5 2h4h6h6h4h6h6h6h3h3t3.5 -1l3 -2t1.5 -3t-1 -3t-3 -1h-20
h-19q-1 0 -2.5 0.5t-4 1t-5 1.5t-3.5 2v0z" />
</svg>
