<?xml version="1.0" standalone="no"?>
<!DOCTYPE svg PUBLIC "-//W3C//DTD SVG 1.1//EN" "http://www.w3.org/Graphics/SVG/1.1/DTD/svg11.dtd" >
<svg xmlns="http://www.w3.org/2000/svg" xmlns:xlink="http://www.w3.org/1999/xlink" version="1.1" viewBox="-10 0 266 256">
   <path fill="currentColor"
d="M126 244q0 1 1.5 4t3.5 3t3 -1.5t1.5 -3.5l1 -4t0.5 -3q0 -12 -1 -23t-1 -22q0 -1 -0.5 -3t0 -4.5t0.5 -4.5t1 -3l2.5 -2t5.5 -4.5t6.5 -5.5t6.5 -5.5t5 -4.5t3 -2v0q1 0 2 1t2 1q2 1 6 3.5t8 5.5t7.5 5t4.5 3l1 1l2 2v24l0.5 2l0.5 2q0 1 -0.5 3t-0.5 3v38q0 1 2 1.5
t3 0.5q2 0 3 -0.5t2 -3.5v-4v-7.5v-7.5v-4q0 -16 -1.5 -32t-1.5 -32q0 -3 1 -5.5t1 -5.5q0 -9 -3.5 -13t-8 -5.5t-10 -2t-10.5 -1.5t-8 -4.5t-3 -11.5v-8q1 -1 6 -2t10 -1.5t9 -2t4 -3.5v-1l-1 -1l-1 -1h-27v-7t3 -6h3.5h3.5q11 0 17 3.5t10 9t5.5 12t2 12t1 9t2.5 3.5h0.5
h0.5q1 0 2 -1t2 -1v-4v-4q0 -8 -1.5 -16t-5.5 -16t-9 -11t-10.5 -4t-12 -1t-13.5 -3v-0.5v-0.5q0 -5 4.5 -7.5t10.5 -4.5t12 -4.5t9 -7.5v-1q0 -5 -3 -9.5t-7.5 -7t-10 -3.5t-10.5 -1t-10.5 1t-10.5 1h-1q-2 -1 -3.5 -3t-2.5 -4t-2.5 -3.5t-3.5 -1.5q-4 0 -5 2t-1 5
q0 6 4.5 8.5t10.5 3.5h31q2 0 4.5 0.5t4.5 2t3 3t1 4.5q0 2 -2 4t-5.5 3t-6.5 1.5t-5 1.5t-5 3.5t-5.5 5.5t-4 5.5t-2.5 2.5q-9 0 -13 -5t-5.5 -10.5t-3 -10.5t-6.5 -5v0q-1 0 -1.5 1l-0.5 1v3v3q0 8 1 13t4 8t7.5 5t11.5 5q2 1 5 2l3 1v22q-10 5 -19 10.5t-20 9.5
q0 -2 -0.5 -4l-1 -4t-2 -3.5t-4.5 -1.5h-2.5t-1.5 2v1q0 1 1 2l1 1q0 3 -0.5 7.5t-1.5 8.5t-3 7t-6 3t-5 -3.5t-1.5 -8t0 -8.5t0.5 -6v-2v-5v-4.5v-2.5q2 -3 4 -4.5t4.5 -3t3.5 -4t1 -6.5v-3v-1t-0.5 -2.5t-0.5 -3v-1.5q0 -3 1.5 -3.5t4 -1t4.5 -1.5t2 -4t-2.5 -4t-5.5 -1
q-15 0 -30 2t-30 1q-3 0 -3.5 1.5t-0.5 2.5v3t2 2h14l1 3v3v5v4v3q1 4 3.5 5.5t6 2.5t6.5 2t5 4v4t0.5 6.5t0.5 6.5t1 4v3v2q-1 1 -1 3t-0.5 4t-0.5 4v3q-1 0 -2 0.5t-2 0.5q-5 0 -7 -2.5t-3 -6t-1 -8.5q0 -4 -0.5 -7.5t-2 -6t-5.5 -2.5t-4.5 3t-0.5 7v3q0 1 0.5 4t0.5 5.5
t0.5 5.5t0.5 4q1 0 2 1t2.5 2t2.5 2t2 1q1 1 4.5 1.5t6.5 1t5.5 1.5t2.5 3v32l-1.5 0.5t-2.5 1.5h-5h-5q-1 -1 -2 -1.5l-1 -0.5v-15q0 -1 -3 -1.5t-4 -0.5h-2t-2 2v34q3 5 4 10t3.5 8t6.5 5t13 2q4 0 9 -0.5t10 -1.5t8.5 -4t3.5 -8l0.5 -3.5t0.5 -8t0.5 -9.5t0.5 -7v-2
q0 -1 -0.5 -4t-1.5 -5.5l-2 -5t-3 -2.5q-4 0 -5 2.5t-1 5.5t-1 5.5t-5 2.5q-1 0 -2.5 -0.5t-1.5 -3.5v-27l3 -1.5t5 -1.5l1 -0.5t2.5 -1t3 -1.5l1.5 -1q3 -2 4.5 -5t2.5 -6.5t2 -6l1 -2.5l2.5 1l2.5 1h0.5h0.5q4 0 7.5 -2.5l7 -5l7 -5t8.5 -2.5h2t1 1t0.5 3t0.5 4t0.5 4
t0.5 3v1q0 2 -2.5 3t-5 1.5l-5 1l-2.5 0.5q-7 1 -10 7t-4.5 13.5t-1.5 14.5v12v33v32zM148 186v4q0 1 0.5 2.5l1 3t0.5 3v2.5q1 4 1 7.5t1.5 6t5 3.5t8.5 1h6t6.5 -0.5t6.5 -1.5t4 -3v-4v-4v-6v-6t-0.5 -6t-1.5 -8l-1 -0.5t-2 -0.5h-1q-1 0 -2 1.5t-2.5 3.5t-4 3.5t-7.5 1.5
q-4 0 -6.5 -1.5t-4 -3t-2.5 -3t-3 -1.5t-2.5 2t-0.5 4zM67 198v-2.5v-1.5l2 -2h1.5t3.5 -0.5l4 -1t4 -0.5h4.5h5.5h4h3l2 2v3v4v3q0 2 -0.5 5.5t-1.5 5.5t-3 2h-19q-3 0 -5 -1.5t-3 -4.5t-1.5 -5.5t-0.5 -5.5zM157 201q0 -3 1 -4t3 -1.5t4 -0.5h4h8q3 1 3.5 3t0.5 4t-1 5.5
t-4 3.5h-14q-1 0 -2 -1.5l-2 -3t-1 -3v-2.5zM136 147q4 -5 7 -7t10 -2h4q1 2 1.5 4t0.5 5v3q-1 0 -3.5 2.5t-3.5 4.5q-2 1 -4.5 3.5t-5 4.5t-4.5 3.5l-2 1.5h-1v-5.5t0.5 -7t0.5 -6.5v-4zM167 141v-2.5t2 -1.5h18q2 0 3.5 1.5t2.5 3.5t1.5 4t0.5 3v2v5v4v3q-3 0 -7.5 -2.5
t-9 -6t-8 -7t-3.5 -6.5zM85 65h7q1 2 1.5 3.5t0.5 4.5t-2 7.5t-6 4.5h-4q-2 0 -5 -0.5t-5 -1.5t-2 -3v-12q0 -2 2 -2.5t5 -1t5 0t3 0.5zM55 30q0 1 0.5 2t2.5 1h41q3 0 6 -1t3 -4q0 -4 -3.5 -4.5t-6.5 -0.5v0h-4.5t-7 0.5t-7 0.5h-4.5h-3h-4h-5h-3q-2 1 -3.5 2t-1.5 4z" />
</svg>
