<?xml version="1.0" standalone="no"?>
<!DOCTYPE svg PUBLIC "-//W3C//DTD SVG 1.1//EN" "http://www.w3.org/Graphics/SVG/1.1/DTD/svg11.dtd" >
<svg xmlns="http://www.w3.org/2000/svg" xmlns:xlink="http://www.w3.org/1999/xlink" version="1.1" viewBox="-10 0 266 256">
   <path fill="currentColor"
d="M201 247l0.5 1t1.5 1t2 1l1 1l3 -3t2 -3l0.5 -3.5l0.5 -3.5q0 -4 -0.5 -7.5t-0.5 -6.5t-1 -7l-2 -8t-4 -6.5t-6.5 -4.5t-6 -4t-2.5 -4q1 -4 3 -5.5t5 -3t6 -2.5t5 -4t4 -8t2 -13v-4t-0.5 -5.5t-1.5 -5t-3 -2.5q-1 0 -3 0.5t-2 3.5v24q0 1 -2 3.5t-2 4.5q-1 1 -1.5 1h-1.5
t-1.5 -0.5t-2.5 -0.5v-41l1 -3q10 -1 14 -3.5t6 -7t2.5 -11t1.5 -15.5l0.5 -1.5t0.5 -2.5q0 -2 -1 -4t-4 -2q-4 0 -5 3.5t-1 6.5q0 2 -0.5 4.5t-0.5 6t-0.5 6.5t-0.5 4q-3 6 -9 6q-4 0 -4 -5v-1v-4.5t0.5 -8t0.5 -8.5v-5v-4q0 -6 -3.5 -9t-7.5 -5t-7.5 -4.5t-3.5 -8.5
q0 -7 5 -10.5t12 -3.5q5 0 8.5 2.5t3.5 7.5q0 4 -1 7.5t-1 6.5q7 0 10 -5t3 -11q0 -5 -2.5 -8t-5.5 -5t-7.5 -3t-8.5 -1q-12 0 -17.5 5.5t-5.5 17.5v4.5v3.5q2 4 5 6l6 4l6 4t4 6v2v4v4v2v12t-2 12v0h-1q-4 0 -5.5 -2.5t-2.5 -6.5t-1 -8.5t-1 -8.5t-2.5 -6.5t-5.5 -2.5v25
q0 3 2 6t5 5.5t6.5 4.5t5.5 3v55q0 3 -2 4.5t-4 1.5t-4 -3t-3.5 -6.5t-2.5 -7t-1 -5.5q0 -4 1 -8.5t1 -8.5q0 -2 -1 -4.5t-3 -2.5t-3 1.5t-1.5 3.5t-0.5 4v3q0 9 1 16t3.5 12.5t8 9.5t13.5 8l3 0.5t4 1.5q4 3 5.5 8.5t2.5 12t0.5 12.5t-0.5 10zM112 239q0 3 0.5 5t3.5 2
t5 -4q1 -12 2 -22t1.5 -20t1 -20.5t0.5 -22.5v-6.5t1 -7t3 -5.5t6 -2h4t2 3q0 12 0.5 25.5t1 26.5t1 26.5t1.5 26.5h2h1q4 0 5 -3t1 -7v-2q0 -1 -1 -3t-1 -3q-2 -20 -3.5 -41.5t-1.5 -42.5q0 -4 2.5 -5.5t5.5 -2t5.5 -1t2.5 -2.5v0q-1 -1 -1.5 -2l-0.5 -1h-22l-1 -1t-1 -2v0
v-2q0 -1 0.5 -4.5t0.5 -7t0.5 -7t0.5 -5.5l0.5 -0.5t1.5 -0.5v0q3 0 5 1t3 3t2.5 3t3.5 1q4 0 4 -4q0 -3 -3 -5.5t-7 -5t-7 -6t-3 -9.5q0 -5 3.5 -8t8.5 -5q3 -10 4 -21t1 -21q0 -3 -1 -6t-4 -3q-1 0 -3.5 0.5t-2.5 1.5v16l-1 1h-6.5t-9.5 0.5t-9 2t-4 3.5v3t2 2h1
q2 0 4.5 -0.5t5.5 -0.5t5 -0.5l2 -0.5q1 0 3 -1t3 -1v0h1l2 2t1 2l1 1q0 8 -3.5 11.5t-8.5 5.5t-11.5 2.5t-12.5 0.5l-4 3q2 3 3 3.5t3 0.5h3l2 -0.5l4 -1t3.5 -0.5h2.5h1h1l0.5 0.5t0.5 1.5v6q0 6 -3.5 9.5t-8.5 6.5t-8.5 5.5t-3.5 8.5v0v0q0 1 1 1.5l1 0.5h1q2 0 5 -1.5
t5.5 -4t4.5 -5t3 -3.5h3v33l-3 4h-17l-2 3q1 3 3 3.5t3.5 1t2.5 1.5t1 5v1q0 4 -0.5 14t-1 21t-1 21t-0.5 14q-3 5 -3.5 11t-0.5 12zM51 230q6 4 10.5 4.5t10.5 0.5h8.5t8.5 -1.5t7 -4.5t4 -8q0 -13 1 -24.5t1 -24.5q0 -2 -0.5 -3.5t-2.5 -1.5t-2.5 0.5l-1.5 1.5q-3 4 -3 10
v11q0 2 -3 2h-3q-2 0 -5 -0.5t-3 -4.5q0 -7 1.5 -16t2.5 -16q1 -2 3 -3t4.5 -2t4.5 -2.5t3 -4.5q1 -10 1.5 -16.5t0.5 -14.5v-2q0 -2 -0.5 -4.5t-1 -4.5t-2.5 -2l-1.5 0.5t-1.5 1.5v31q0 4 -2.5 7.5t-6.5 3.5q-2 0 -3 -1.5t-1.5 -3.5t-0.5 -4.5v-4.5v-2l0.5 -1.5t0.5 -3
t0.5 -2.5t0.5 -2v-26q1 -2 2 -2.5t2.5 -1t2.5 -1t3 -2.5q3 -2 5 -5.5t2.5 -8t0 -8.5t-0.5 -7q1 -2 2 -2.5t2.5 -1l3 -1t2.5 -2.5q0 -2 -2 -3t-4.5 -1h-5h-3.5q-6 0 -12.5 0.5t-12.5 1.5t-12 1.5t-13 0.5q-2 1 -2.5 2t-0.5 3v2t2 1h12l3 4v3.5t0.5 5.5t1 5t0.5 3q0 3 2 5.5
t4 4t4 2.5t2 2v52h-3.5t-5 -0.5t-4.5 -1t-2 -3.5v-32q-7 0 -9 2.5t-2 11.5q0 7 1 13.5t3.5 11t7.5 6.5t14 1v37q0 3 -3.5 3.5t-4.5 0.5t-2.5 -0.5l-1.5 -0.5q-3 -2 -2.5 -6l1 -8t0 -7t-4.5 -3q-2 0 -4 0.5t0 4.5v3q0 3 -0.5 5.5t-0.5 4.5v3v9v12t1 11.5t3 7.5zM58 212
q0 -6 3.5 -8.5t8.5 -4t10 -1.5h10q2 0 2.5 1.5t0.5 4.5q0 6 -0.5 10t-2 7t-5 4t-8.5 1q-8 0 -13.5 -3t-5.5 -11zM65 64q0 -3 1.5 -5t4 -2.5t5.5 -0.5h5h6q2 2 2 5v5q0 3 -0.5 6t-1.5 5.5t-3.5 4.5t-5.5 2q-4 0 -6.5 -2t-4 -4.5t-2 -6.5t-0.5 -7zM54 25q0 2 1.5 3.5t3.5 1.5
h2q2 0 6.5 -0.5t9.5 -1.5t10 -1.5t6 -0.5q2 0 4 -1.5t2 -2.5q0 -3 -1 -4t-4 -1q-9 0 -19 2t-19 2l-0.5 1.5t-1.5 1.5v1z" />
</svg>
