<?xml version="1.0" standalone="no"?>
<!DOCTYPE svg PUBLIC "-//W3C//DTD SVG 1.1//EN" "http://www.w3.org/Graphics/SVG/1.1/DTD/svg11.dtd" >
<svg xmlns="http://www.w3.org/2000/svg" xmlns:xlink="http://www.w3.org/1999/xlink" version="1.1" viewBox="-10 0 266 256">
   <path fill="currentColor"
d="M159 212q3 0 5.5 3t5 7t4.5 8.5l4 9t4.5 7.5t4.5 4q2 0 3 -0.5t1.5 -1.5l1 -2t0.5 -2q0 -6 -4 -11t-8 -9.5t-7.5 -9t-3.5 -8.5q0 -3 1 -6t2.5 -6.5l3 -7t1.5 -7.5q1 -4 -2 -7t-7 -5t-8 -3t-7 -1h-3.5t-5 -0.5t-5 -0.5h-3.5q-1 -1 -2.5 -4t-1.5 -5l1 -1t2 -1h26
q1 0 1 -1.5v-1.5q0 -2 -0.5 -2.5l-2.5 -2.5q-2 0 -6.5 0.5t-8.5 0t-7.5 -2.5t-3.5 -6q0 -2 2 -3.5t5 -3t5.5 -3t3.5 -4.5q1 -4 1.5 -9t0.5 -9v-4v-2l-3 -2q-2 4 -4 5t-5 1t-5.5 -1t-2.5 -4q0 -5 3 -5.5t7 -1t7.5 -3.5t3.5 -12v-3.5t-3 -2.5t-3.5 2t-1.5 4.5t-2 4.5t-4 2
q-5 0 -5.5 -3.5t-0.5 -8.5q0 -2 2 -2t4.5 -1.5t5 -5.5t2.5 -13q1 -1 2.5 -2l3 -2t2.5 -2t1 -2t-1.5 -2t-2.5 -2h-4h-5.5h-5.5h-3h-15.5t-15.5 2v1v2q0 3 1 3t5 1t5 5l2 8l2 2t2.5 2t2.5 2t1 2t0.5 3.5t0.5 3.5t-0.5 4t-0.5 4t-1 1h-2h-2h-2.5t-3 -0.5l-1.5 -0.5v-12
q0 -1 -1.5 -1h-2.5q-2 0 -3.5 1.5t-1.5 3.5q0 7 2.5 10t5.5 4t7 2t6 3q0 1 0.5 2.5l0.5 1.5q0 4 -1 5t-5 1q-2 0 -3.5 -1t-2 -1.5l-1.5 -1.5t-2 -1q-2 0 -3 1.5t-1 3.5v3v3q0 10 3 14.5t6.5 6t6 2t2.5 3.5v25l-1 3h-6.5h-9.5t-10 0.5t-6 0.5h-3.5t-3.5 0.5t-3 1.5t-1 3
t1 2.5l2 1t3 0.5h3q10 0 20 -1t20 -1h10.5t12.5 1t10.5 4t4.5 9v3t-0.5 4t-2 3.5t-3.5 1.5q-1 0 -3 -1.5t-3.5 -3t-3.5 -2.5l-4 -2q-7 -2 -14.5 -2.5t-14.5 -0.5h-10t-14.5 0.5t-13 2t-5.5 4.5t1 4t4 1q10 0 20.5 -1.5t21.5 -1.5q2 0 6.5 -0.5t9.5 0.5t8.5 3t3.5 6
q0 2 -2.5 4t-4.5 2h-63q-1 0 -1 2v3v1v1q2 0 6 0.5t9 0.5t9 0.5t6 0.5h1h2q3 0 8.5 -0.5t10.5 -0.5t9 -0.5t5 -0.5q3 0 7 -1.5t7 -1.5zM70 109h1l0.5 0.5l0.5 0.5v26q0 2 1 4t4 2l0.5 -0.5l0.5 -0.5l1 -0.5l1 -0.5v-27l3 -3l6 6q1 1 1.5 2l0.5 1v18q0 2 1.5 2h2.5
q3 0 3.5 -1.5t0.5 -4.5q0 -4 -1 -10t-2 -10q-1 -3 -3.5 -5.5t-5 -4.5t-5 -3.5t-2.5 -2.5q0 -2 2.5 -3t5 -2.5t5 -4t2.5 -8.5q0 -3 -1 -5.5t-2.5 -4.5t-4 -3.5t-5.5 -3.5v-1q0 -3 2 -4.5t4.5 -3t4.5 -2.5t2 -3v-14q0 -1 -2 -2.5l-2 -1.5q-1 -1 -4 -2.5t-4 -2.5v-13
q0 -1 -2 -1.5t-3 -0.5q-2 0 -3.5 2t-1.5 4.5v5v3.5q-1 3 -3 3.5t-4 1.5t-3.5 3t-1.5 9q0 5 3.5 8t8.5 5q0 1 0.5 2l0.5 1q0 4 -2.5 5.5l-5 3l-5 3t-2.5 4.5q0 6 2 9.5t4.5 5.5t4.5 3.5t2 4.5q0 2 -0.5 2.5t-2 1l-3 1t-3.5 1.5q-3 3 -5 7t-3.5 9t-2 9.5t-0.5 8.5q0 1 1 2.5
t2 1.5q4 0 5 -4.5t2 -10t2 -10.5t5 -7h1zM176 113v20q0 2 1 4t3 2t2 -1t1 -4v-3.5t0.5 -6t0.5 -6v-3.5l2 -2q2 2 3 6t2.5 8.5t2.5 8t4 3.5q1 0 1.5 -1t1 -3t0.5 -3v-3v-2v-2l-0.5 -1l-0.5 -1l-0.5 -3t-1.5 -4q0 -3 -2.5 -6t-5 -5t-4.5 -3.5t-2 -2.5t2 -2.5t4.5 -3.5
t4.5 -4.5t2 -6.5q0 -8 -2 -11t-5 -3.5t-5 -1t-2 -3.5t2 -4.5t4.5 -3l5 -3t2.5 -5.5q0 -9 -1.5 -12t-4 -4t-4.5 -1t-4 -4v-2.5v-4.5q0 -3 -0.5 -5t-3.5 -2t-4 2t-1 4.5v5v4.5q-1 2 -3 3t-4 2.5t-3 3t-1 4.5q0 6 3 9l8 8v8q-8 2 -11.5 5t-2.5 12q0 4 2.5 6t5 3.5t5 2.5t2.5 4
l-0.5 1t-0.5 2q-4 1 -7 4.5t-4.5 7.5t-2 8.5t-0.5 8.5v1l1 1t2 1h1v0q1 0 1.5 -0.5l0.5 -0.5q0 -1 0.5 -3t0.5 -4.5t0.5 -5t0.5 -3.5q1 -1 2.5 -4t3.5 -3zM114 116q0 -2 1.5 -3.5t3.5 -2.5h3.5t5.5 -0.5t5 -0.5h3q2 0 5.5 1t3.5 4t-2 5t-4.5 3.5t-5.5 2t-6 0.5q-1 0 -3.5 -1
t-4.5 -2t-3.5 -2.5t-1.5 -3.5zM168 81q0 -2 1.5 -3.5t3.5 -2.5t4 -1.5t4 -0.5q3 0 4.5 1.5t1.5 4.5q0 4 -1.5 7t-5.5 3t-8 -1.5t-4 -6.5zM69 77q0 -3 3.5 -4t5.5 -1q4 0 6.5 1t2.5 6q0 3 -4 4.5t-7 1.5t-5 -2.5t-2 -5.5zM120 49q0 -2 1.5 -3t3.5 -1h4.5h2.5h3.5h3.5t1 2v2
q0 5 -1 7t-6 2q-4 0 -8 -1.5t-5 -7.5zM170 46q0 -4 2.5 -6t5.5 -2q8 0 8 6q0 3 -1.5 5t-4.5 2t-6.5 -1t-3.5 -4zM69 41q0 -5 3 -5.5t7 -0.5h4q1 1 2 4.5t1 4.5l-0.5 1t-0.5 2h-5q-4 0 -7.5 -1t-3.5 -5zM109 21v2t1 1h37q1 0 3 -1t2 -3t-3 -3.5t-5 -1.5h-2q-2 0 -6 0.5
t-8 0.5h-8h-6q-1 1 -3 2t-2 3z" />
</svg>
