<?xml version="1.0" standalone="no"?>
<!DOCTYPE svg PUBLIC "-//W3C//DTD SVG 1.1//EN" "http://www.w3.org/Graphics/SVG/1.1/DTD/svg11.dtd" >
<svg xmlns="http://www.w3.org/2000/svg" xmlns:xlink="http://www.w3.org/1999/xlink" version="1.1" viewBox="-10 0 266 256">
   <path fill="currentColor"
d="M62 231q0 5 4 5.5t8 0.5q11 0 21 -0.5t20.5 -1t21 -1.5t22.5 -1h5h27l1 -1.5t2 -2.5v0q0 -2 -2 -3t-4 -1.5t-4.5 -1t-4.5 -0.5q-6 0 -11 1t-11 1h-4h-3l-4 -1v-22q0 -5 3.5 -7t8 -3.5t8 -4.5t3.5 -10t-3.5 -11.5t-9 -6.5t-12 -3t-12.5 -1q-3 0 -7.5 0.5l-9 1l-9 1
t-7.5 0.5q-2 1 -5 3.5t-5 2.5v3t-0.5 4t-0.5 4v3v2q0 6 3 9t6.5 5t6.5 3.5t3 3.5v23l-6 3h-37q-2 0 -2 2v2zM118 215v-9t2 -8l2 -0.5t4 -0.5t4 -0.5l2 -0.5h1h1q1 0 2.5 0.5t1.5 2.5v21q0 3 -1.5 4t-3 1h-4h-3.5h-3h-2l-3 -3v-3v-4zM97 175q0 -5 4 -7.5t10 -3t12 -0.5h10
h7.5t8 0.5t5.5 2.5t2 7t-3 8t-8 4.5t-10.5 2t-9.5 0.5h-9t-9 -1.5t-7 -4t-3 -8.5zM69 141q0 3 2 4t5 1q7 0 13 -1.5t13 -1.5q20 -1 40.5 -1.5t40.5 0.5q2 -1 2.5 -2.5t0.5 -3.5q0 -3 -3 -4t-6 -1q-4 0 -7 0.5t-6 2.5q-23 -1 -46 0.5t-46 1.5q-2 1 -2.5 2t-0.5 3zM64 48
q0 5 2 15t4.5 21t6 20.5t6.5 12.5q2 2 5 3t6.5 1.5t7 0.5h5.5h18t20.5 -1t20 -3.5t16.5 -7.5q4 -3 6 -10.5t3.5 -16t2 -16.5t0.5 -13v-3.5v-4.5l-3 -3t-4 -2l-0.5 0.5l-0.5 0.5l-3 6q0 7 0.5 17.5t-1.5 20t-7.5 16t-17.5 6.5v-15q0 -1 2.5 -1.5t5 -0.5t5 -0.5t4.5 -2.5v0
q0 -4 -3 -4.5t-5.5 -1t-5.5 -1.5t-3 -4q0 -5 2 -6.5t5 -1.5t5.5 -0.5t4.5 -4.5q-2 -2 -4.5 -2.5l-5 -1t-5 -1.5t-2.5 -4q0 -4 3.5 -5t7.5 -1t7 -0.5t3 -3.5v0v0q0 -1 -0.5 -2.5l-0.5 -1.5h-18v-6q0 -3 -1 -6.5t-2.5 -6t-5.5 -2.5v10t-2 10q0 1 -0.5 1.5t-1.5 0.5h-11
q-1 0 -1 1v2q0 3 2.5 3.5t6 0.5t6.5 1t3 5t-3 5t-6 1.5t-5.5 1t-2.5 3.5q0 2 2.5 2.5t5 0t4.5 -0.5t3 2v3v3q0 3 -1 5t-2.5 3.5t-4 2t-5.5 1.5v5h6t5 2l1 0.5l1 0.5v14l-7 3h-31v-2.5v-3.5v-4v-2q0 -3 3 -4.5t6.5 -2t6.5 -1t3 -2.5v-0.5v-0.5q-1 0 -2.5 -0.5t-2.5 -1.5h-3
t-4.5 -0.5t-4.5 -1l-2 -0.5v-13l3 -4h16l-0.5 -1t-1.5 -2l-2 -0.5t-3 -1.5h-1.5t-3.5 -0.5t-3.5 -0.5h-2.5v-12q5 0 9.5 -2t4.5 -7h-2q-3 0 -5.5 -0.5t-5 -0.5t-2.5 -1v-17q0 -1 -2.5 -1h-3.5h-2.5t-1.5 1v21h-19l-0.5 1t-1 2.5t-0.5 2.5v1h24v6.5t-1 3.5t-3 2t-5 1
q-2 1 -3.5 1t-3.5 1t-3.5 2t-2.5 2q1 2 4 3t5.5 1h5.5t4 -1l2 2v12q0 1 -2.5 1.5t-5.5 0.5t-5.5 1t-2.5 4q0 2 2 3t5 1t5.5 -0.5t3.5 -0.5v18q-3 -1 -7.5 -1.5t-7.5 -2.5q-1 0 -3 -7.5t-4.5 -16.5t-4 -17.5t-2 -11.5t-0.5 -4.5v-2.5t-0.5 -2.5t-1.5 -3.5q0 -2 -1 -2h-2
q-6 0 -6 5z" />
</svg>
