<?xml version="1.0" standalone="no"?>
<!DOCTYPE svg PUBLIC "-//W3C//DTD SVG 1.1//EN" "http://www.w3.org/Graphics/SVG/1.1/DTD/svg11.dtd" >
<svg xmlns="http://www.w3.org/2000/svg" xmlns:xlink="http://www.w3.org/1999/xlink" version="1.1" viewBox="-10 0 266 256">
   <path fill="currentColor"
d="M202 247q1 1 2.5 1.5l1.5 0.5q5 0 6.5 -4.5t1.5 -8.5q0 -23 -4 -45l-8 -44v-2q0 -3 2 -5t3.5 -4t3.5 -4t3 -4q2 -6 3 -12.5t1 -13.5q0 -1 -0.5 -4t-0.5 -4q-2 -4 -5.5 -7t-8 -4.5t-9 -2t-8.5 -0.5h-3q-3 0 -5 0.5t-3.5 1.5t-1.5 3v0l2 2l2 2q7 -1 13 -1t10 1.5t6 6
t2 12.5v5t-0.5 6t-2 5.5t-3.5 2.5q-1 0 -3 -2.5t-4 -4.5t-3.5 -4.5t-1.5 -3.5h-9h-3t-4.5 0.5t-4.5 1t-2 2.5v2.5t2 1.5h16l1.5 2.5t3 5.5t2.5 6t1 4q-1 4 -7 6.5t-12.5 4.5t-12 3.5t-5.5 5.5q0 3 2 3h5q3 0 6.5 -1.5t6.5 -3t6.5 -3t7.5 -1.5q2 0 3 1.5t2 3.5q4 23 4.5 45
t2.5 45zM55 235q0 2 1.5 4.5t3.5 2.5q4 0 8 -6t7 -15.5t5.5 -21t5 -22.5t3.5 -19.5t2 -12.5v-7q0 -4 0.5 -10l1 -12t1.5 -11t3.5 -8t6.5 -3q5 0 5 3.5v7.5q0 10 -1.5 20l-3 20l-3 20t-1.5 20v2q0 2 0.5 3.5t0.5 3.5v2l1 0.5t2 1.5h1q2 0 3.5 -3.5t1.5 -5.5q0 -3 0.5 -10
t1.5 -15t1.5 -15.5t0.5 -10.5v-15q0 -8 1.5 -16.5t1.5 -16.5q0 -3 -3 -4.5t-6 -1.5h-1l-1.5 0.5t-2.5 1t-2.5 1l-1.5 0.5h-1q-1 0 -2.5 -2t-1.5 -3v-43l3 -3q1 0 1.5 -1t2 -1.5t2.5 -1.5l1 -1v-1t0.5 -2.5t0.5 -2.5v-1q1 -3 4 -3t5.5 -0.5l5 -1t2.5 -4.5q0 -3 -3 -4t-5 -1
t-7.5 0.5t-12 0.5t-14.5 1t-14 1.5t-10 1.5t-4 2q0 2 0.5 4t2.5 2h36l1.5 1t1.5 2v1q0 2 -3.5 4t-8.5 4t-11 4t-11.5 3.5t-9 3t-3.5 3.5q0 3 1.5 3.5t5.5 0.5q3 0 6 -1.5t6.5 -3t6.5 -3t6 -1.5q2 0 3.5 1.5t2 3.5t1 4.5t0.5 3.5q0 2 -3 5l-7 7t-9.5 7.5t-9.5 7t-7 6.5t-3 4
t0.5 2.5t2.5 1.5q4 0 8.5 -3.5t9 -7.5t8.5 -7t7 -3h0.5h0.5q1 1 1 3.5t0.5 5t0.5 5v3.5q0 6 -3.5 13.5t-8.5 14.5t-10.5 14t-8.5 13q-1 1 -2.5 4.5t-3.5 7l-4 7t-3 4.5v5v2q0 1 0.5 2.5l1 3t2.5 1.5q1 0 3.5 -4t5.5 -9.5t6.5 -12.5t7 -13t6.5 -11t5 -6q2 2 2.5 3t0.5 4
q0 10 -2 22.5t-5.5 25t-8 25t-8.5 20.5q-1 1 -2 3t-2 2zM126 234q0 4 1.5 6.5t5.5 2.5t5.5 -3.5t2 -8.5t0.5 -10v-8v-10q0 -12 -0.5 -23.5t-0.5 -23.5v-16q1 -3 4.5 -3.5t7 -0.5t6.5 -1t3 -4q0 -2 -0.5 -3t-3.5 -1h-17v-28q0 -5 3.5 -6.5t7.5 -2l8 -1t4 -4.5q0 -2 -2 -2.5
t-4 -0.5h-1q-1 0 -2.5 0.5t-3 0.5t-3 0.5l-1.5 0.5h-1q-2 0 -2 -1.5v-3.5q0 -5 2 -8t5.5 -5.5t7.5 -4t7.5 -4.5t6 -7t2.5 -12q0 -7 -3 -11t-7 -6t-9 -3t-11 -1q-1 0 -2.5 0.5t-3.5 1t-3 1.5t0 3l1 1.5t2 1.5h21q2 0 3 2t1.5 4t0.5 5v3q0 7 -3 9.5t-6.5 4.5t-8 4t-6.5 7
q-3 5 -5 11t-2.5 12l-1 12t-0.5 11v9v15v18v18v15v8q0 11 -2.5 20.5t-2.5 19.5zM180 58q0 1 0.5 2t1.5 2h3h3q14 0 20 -5.5t6 -20.5v-10q-3 -5 -6.5 -5h-8.5q-2 0 -5 -0.5t-5.5 0.5t-4 2.5t-1.5 5.5h18l1 2q1 0 1 2v3q0 7 -1.5 10.5t-4 5t-5 1.5h-5t-4.5 1t-3 4z" />
</svg>
