<?xml version="1.0" standalone="no"?>
<!DOCTYPE svg PUBLIC "-//W3C//DTD SVG 1.1//EN" "http://www.w3.org/Graphics/SVG/1.1/DTD/svg11.dtd" >
<svg xmlns="http://www.w3.org/2000/svg" xmlns:xlink="http://www.w3.org/1999/xlink" version="1.1" viewBox="-10 0 266 256">
   <path fill="currentColor"
d="M63 244q0 2 2.5 2.5t3.5 0.5q5 0 8.5 -5.5t6 -13t4 -15.5t4.5 -12q0 -2 1 -7t2.5 -10.5t2.5 -10.5t1 -8q0 -5 -0.5 -9t2.5 -8v-44q-1 -2 -1.5 -5l-1 -6t-1 -5.5t-0.5 -4.5q0 -6 3.5 -9t8 -5.5t8.5 -5t6 -7.5v-2v-3v-3v-3q0 -6 -1 -11.5t-3 -9.5t-6.5 -6.5t-11.5 -2.5v0
q-2 1 -6 2t-7.5 1.5t-6.5 1.5t-4 1q-4 1 -9.5 2t-10.5 3.5t-9 6t-4 8.5q0 2 1 4t3 2q3 0 4.5 -1t3.5 -2.5t4 -2.5t5 -1q2 0 4.5 4t4.5 9t3.5 10t2.5 7q-3 4 -7 5.5t-6 3.5q-7 5 -14 10.5t-12 12.5l-0.5 1.5l-0.5 1.5q0 3 1 4.5t4 1.5q5 0 9.5 -4.5l9 -9t9.5 -9t12 -4.5
q1 0 2 1.5t2 4t1 4.5v3v1q0 2 -0.5 5t-0.5 5v2h-6q-3 4 -6.5 7.5l-6.5 6.5t-6.5 6t-7.5 7q-1 1 -4 3t-5 4.5l-4 5t-2 4.5q0 3 1 4t4 1t6 -2.5l6 -5t5.5 -5.5t4.5 -5l3 -3t5 -4t5.5 -4t3.5 -3t2 -1.5t2 -0.5l0.5 0.5t0.5 1.5q1 0 1 2.5t0.5 5t0.5 5v3.5q0 4 -3 7.5t-6.5 7
t-7 6.5t-5.5 5q-1 0 -2.5 2t-3.5 4l-4 4l-2 2q-3 3 -6 4.5t-5.5 3t-4 4t-1.5 6.5q0 3 1.5 3.5t3.5 0.5t3.5 -0.5t3 -1.5t3 -2.5t4.5 -3.5l4.5 -4.5l7.5 -7.5t7 -7.5t4 -4.5h3q0 14 -4.5 30t-11.5 29q-2 4 -4.5 6.5t-2.5 7.5zM153 222q8 0 14.5 0.5t12.5 1t11.5 0.5h12.5h7
q3 -1 3.5 -3t0.5 -4q0 -1 -0.5 -3t-3.5 -2h-102q-2 0 -2 1.5v2.5q0 3 2 4.5t5 1.5q6 0 12.5 -1t12.5 -1h7q5 0 7 2zM121 159q0 9 0.5 15t3 10t8 6t14.5 4q10 1 19.5 1h19.5h17q2 0 2 -1.5v-2.5q0 -2 -1.5 -3.5t-3 -2t-3.5 -0.5h-4q-5 0 -9 0.5t-8 0.5h-4q-2 0 -6.5 -0.5
t-10 -1t-10.5 -1t-7 -0.5q-3 0 -4.5 -4t-2.5 -6v-19q0 -17 1.5 -34t3.5 -34q1 -5 4 -8t6.5 -4t7.5 -1.5t9 -0.5h10.5t13 0.5t12 3t6.5 7.5q-2 9 -3.5 20.5t-2.5 21.5v17t-1.5 11.5t-7 6.5t-17.5 2h-6.5t-6.5 -4v-19v-19q0 -2 0.5 -5.5t0.5 -6.5t0.5 -5.5l0.5 -2.5l4 -3h13
l0.5 1t0.5 3t0.5 4.5t0.5 3.5t-0.5 6t-1 10.5t-1.5 10.5t-1 7v1v2.5v2.5v2q4 0 7 -2t4 -6q0 -7 0.5 -11.5t0.5 -8.5v-9v-9v-12q-1 -5 -3.5 -5h-6.5q-12 0 -18 1.5t-8.5 6t-2.5 12.5v19v10v8t0.5 8.5t1.5 10.5q1 3 5 4.5t8 2.5t8.5 1.5t7.5 0.5q9 0 14.5 -2.5t8.5 -7t4 -10
t1.5 -11.5t1.5 -12.5t4 -11.5v-41q0 -2 -1.5 -4.5t-4 -4.5t-5 -3.5t-5.5 -1.5h-4h-7h-8h-4h-4t-6 -0.5t-5.5 -1t-3.5 -0.5h-3q-12 0 -18.5 7t-9 16.5t-3 20.5t-0.5 19q0 3 1 5.5t1 4.5q0 7 -2 13t-2 12zM73 30q1 -1 2 -1h2q5 0 8 3.5t5 8t3 10t1 9.5q0 2 -1 5t-4 3v0
q-3 -10 -7 -19t-9 -19zM95 24h6l1.5 1t3 3l3 4t2.5 3l0.5 2l1 4t1 3.5t0.5 2.5t-0.5 3t-2 4t-2.5 3.5t-1 2.5h-2q-1 0 -3 -5t-3.5 -11l-3 -12t-1.5 -8zM138 35q8 1 16 1.5t15.5 0.5t15.5 0.5t16 0.5h6q3 0 6.5 -1t3.5 -6q0 -3 -2.5 -4t-5.5 -1h-5.5t-5.5 2h-58q-2 0 -2 2v2
v2v1z" />
</svg>
