<?xml version="1.0" standalone="no"?>
<!DOCTYPE svg PUBLIC "-//W3C//DTD SVG 1.1//EN" "http://www.w3.org/Graphics/SVG/1.1/DTD/svg11.dtd" >
<svg xmlns="http://www.w3.org/2000/svg" xmlns:xlink="http://www.w3.org/1999/xlink" version="1.1" viewBox="-10 0 266 256">
   <path fill="currentColor"
d="M193 246q0 2 1.5 3.5t3.5 1.5t4.5 -2t2.5 -3q0 -4 0.5 -12t1 -17.5t0.5 -17.5v-12v-3v-8v-8v-6q0 -5 0.5 -11t0 -12.5t-1.5 -12t-4 -10.5q-7 -3 -11 -6t-7 -6t-5 -7.5t-4 -11.5q1 -3 4.5 -4.5t7 -2t7.5 -0.5t7.5 -1t6 -4.5t3.5 -9.5q0 -2 0.5 -6.5t0.5 -9.5v-9.5v-5.5
v-2.5v-3.5t-0.5 -3.5t-0.5 -2.5q-1 -1 -2 -1.5t-2 -0.5q-3 0 -4.5 1.5t-2 4t-1 4.5t-3.5 4q-6 -1 -12.5 -0.5l-13 1t-13 1.5t-12.5 1l-2 2t-1 2l-0.5 0.5l-0.5 0.5h0.5t0.5 1l2.5 1.5t4.5 1.5l2 -1t3 -1h2h3h3h2q1 1 1.5 2t0.5 2v6t-0.5 8.5t-1 8t-1.5 4.5h-9q-6 0 -11.5 1
t-11 2.5t-7.5 5.5l3 3l3 0.5t4 0.5q8 0 14 -2t13 -2q4 0 4.5 3t1 7t1 8.5t4.5 7.5q5 4 8 6t6 4.5t5.5 6t4.5 9.5v3q0 3 0.5 6t0.5 5v4q0 21 -2 41.5t-2 41.5v11zM77 230v3t1 2q0 1 0.5 1.5l0.5 0.5q4 0 8 -6t7 -16t5 -22t3.5 -23t2.5 -20t1 -12v-1q0 -3 -0.5 -9t-0.5 -11
t-0.5 -9l-0.5 -4q-1 -7 -3 -13.5t-2 -13.5v-4v-5q4 -2 8.5 -4t8.5 -4t7 -5.5t3 -9.5q0 -7 -1.5 -13.5t-5 -11t-9 -7t-13.5 -2.5q-3 0 -11 1t-16 2.5t-14.5 5t-6.5 8.5q0 2 0.5 2.5l0.5 0.5h2q2 0 4 1q3 2 6 7t4.5 10.5t2.5 11t1 7.5q0 5 -4 6t-8.5 1.5t-8.5 1.5t-4 6
q0 2 1 3t3 1q4 0 8.5 -1t9 -3t8.5 -4l8 -4h0.5h0.5q2 0 3.5 2t2 5t0.5 6v5q0 3 -3.5 6t-8.5 6t-10.5 5.5t-11 5.5t-8.5 7t-3 8q7 0 12.5 -2t11 -5t10 -7.5t9.5 -8.5h1q2 0 3 2t1.5 5t0.5 5.5v2.5q0 6 -4 11t-10 9.5t-12.5 8.5t-12 7.5t-9.5 7t-4 7.5q0 3 3 3h4q5 0 11.5 -5
t12.5 -11l11.5 -11.5t10.5 -5.5q0 13 -2 25.5t-5 24.5q-1 4 -3 8.5t-3.5 9.5t-3 9.5t-1.5 8.5zM124 153q0 9 0.5 15t3.5 9.5t9 5t15 1.5q3 0 7 -0.5t7 -1.5t5.5 -3.5t3.5 -6.5q1 -6 1.5 -10t0.5 -8v-8v-9v-2v-4v-3v-3q0 -3 -1.5 -3.5t-2.5 -0.5t-2 0.5l-1 0.5l-1 2l-2 4
t-2.5 4t-3.5 2h-27v-14q0 -1 -1.5 -2t-1.5 -2h-1h-1l-2 2q0 1 -0.5 2t-1 3t-1 3.5t-0.5 2.5v0v1v2.5t0.5 3t0.5 3v2.5v2v3l-0.5 3t-0.5 4zM134 153v-4v-3l4 -4h25q3 0 3 2.5v3.5q0 6 -1.5 12t-1.5 12q-4 2 -6.5 2.5t-6.5 0.5q-6 0 -9 -1.5t-4.5 -4.5t-2 -7t-0.5 -9zM175 65
q0 -5 0.5 -9.5t2 -8.5t5 -6t9.5 -2h6q0 1 0.5 2.5t1 4t0.5 4.5v3v2q0 10 -4.5 13.5t-13.5 3.5h-5q-2 -2 -2 -3.5v-3.5zM70 25l3 -1.5t5 -1.5l0.5 -0.5l0.5 -0.5q3 0 6 5t5.5 11.5t4.5 12.5t2 9l-1.5 1t-3 2.5t-3.5 2.5t-3 1t-4 -0.5l-3 -0.5zM95 21q0 -2 3 -2.5t4 -0.5
q4 0 6 3t3.5 7.5t1.5 8.5v6v5v5q-2 3 -7 3h-1.5h-0.5q0 -4 -1.5 -8.5l-3 -9l-3 -9t-1.5 -8.5z" />
</svg>
