<?xml version="1.0" standalone="no"?>
<!DOCTYPE svg PUBLIC "-//W3C//DTD SVG 1.1//EN" "http://www.w3.org/Graphics/SVG/1.1/DTD/svg11.dtd" >
<svg xmlns="http://www.w3.org/2000/svg" xmlns:xlink="http://www.w3.org/1999/xlink" version="1.1" viewBox="-10 0 266 256">
   <path fill="currentColor"
d="M69 247q0 2 1.5 3t3.5 1q3 0 5.5 -2.5l4.5 -4.5q14 -54 14 -109v-19q-4 -9 -5 -19t-1 -19q0 -6 4 -10t8 -7.5t8 -8t4 -13.5q0 -5 -1.5 -9.5t-3.5 -8t-6 -6t-9 -2.5h-4q-1 0 -4 0.5t-5.5 0.5t-4.5 0.5l-2 0.5q-3 0 -9 4t-12.5 9t-12 10t-5.5 7q0 4 4 4t6.5 -3t4.5 -6h1
q5 0 6.5 3.5t2.5 7.5t3.5 7.5t7.5 3.5q0 -3 -1 -6.5t-2 -6.5l-2 -6t-1 -7q0 -1 0.5 -3t1.5 -3.5t2 -2.5t3 0q2 0 4.5 4t4.5 8.5t4 7.5l2 3q1 0 2 -0.5t1 -1v-1.5v-3q0 -4 -2.5 -8t-2.5 -8q0 -2 0.5 -3.5t1.5 -2.5q1 0 2.5 -0.5l1.5 -0.5q4 0 6.5 2t4 4.5t2.5 5.5t1 7t-4 9.5
t-9 10.5t-11 9.5t-9 6.5q-2 0 -6 2.5t-9 5l-9 4.5l-6 3l-1 1.5l-1 1.5v1v1l1.5 0.5t2.5 0.5v0h1q1 0 2.5 -0.5t3.5 -1t3 -1l1 -0.5q1 0 5 -2.5t8 -4.5t7.5 -4l3.5 -2q2 0 3.5 3t1.5 5q0 6 -3.5 11t-9 9.5t-11.5 8.5t-11.5 8t-9 8t-3.5 8q9 0 15.5 -5t12 -10.5l10.5 -10.5
t11 -5v0q1 5 1.5 8.5t0.5 8.5q0 6 -3.5 12t-9.5 11t-12 9.5t-12 8.5t-9.5 8t-3.5 8q0 2 1 3t3 1q5 0 8.5 -4t5.5 -7q1 0 3 -2l4 -4t4 -3.5t3 -2.5l2 -1.5t4 -3.5t3.5 -4l1.5 -2h1h1l1.5 0.5l1.5 0.5v8q0 13 -2 27.5t-6 27.5q-1 3 -2.5 6.5t-3.5 7t-3 7t-1 7.5zM197 204
q4 1 7 1h7h3.5h2.5q2 -1 2 -2.5v-3.5t-0.5 -3t-2.5 -1h-34v-59q5 -4 10 -9.5t5 -12.5v-5.5t-1 -6.5h-1q-1 0 -2.5 3l-3 6t-2.5 5.5l-1 2.5q-2 3 -5.5 4t-7 1.5t-6.5 0.5h-6q-4 0 -6.5 -0.5t-5.5 -3.5l-2.5 -10t-5.5 -9h-1q-3 0 -3 3v4q0 9 4 14.5t10 10.5v10t0.5 15t0.5 15
v9v3q0 5 -2.5 7t-7.5 2h-30l-0.5 1l-0.5 1v1v0q0 1 0.5 2.5l0.5 1.5l10 2h75zM159 182v-2.5t0.5 -3.5l1 -4l0.5 -2v-6.5v-10.5v-10v-7q0 -3 2.5 -3.5t4.5 -0.5q1 0 2.5 0.5l1.5 0.5q1 2 1 8t0.5 13t0.5 13v8v5.5t-1 6.5t-3 5.5t-5 2.5t-4 -1t-1.5 -3t-0.5 -5v-4zM131 178
q0 1 1 3t3 2q1 0 2.5 -1.5t1.5 -3.5v-35q0 -1 -1.5 -1.5t-2.5 -0.5t-2 5t-1.5 11.5t-0.5 12.5v8zM192 182q1 1 2 1.5t2 0.5t3 -0.5t2 -1.5v-39q0 -1 -1.5 -2t-2.5 -2l-1.5 1l-1.5 1q-1 2 -1.5 5.5t-0.5 7.5v7v5v16zM174 94q1 0 4 0.5t6 0.5t6 0.5t4 0.5h1h1q1 0 3 -0.5
t5 -0.5t5 -0.5t3 -0.5v-1v-1v-3.5t-3 -1.5h-32q-1 0 -3 1.5t-2 3.5v1zM149 86h-5t-8.5 0.5t-8 1.5t-3.5 3v2h35q1 0 1.5 -1.5t0.5 -2.5q0 -2 -1.5 -2.5t-3.5 -1t-4 0t-3 0.5zM175 60q-2 0 -7.5 0.5t-12.5 1t-15 2t-14.5 3.5t-11 5t-4.5 7q7 0 14 -1.5t14 -4t14 -4.5t15 -2
q6 0 12 1.5t12.5 3t12.5 3t12 1.5q2 0 3.5 -0.5t1.5 -3.5q0 -4 -6 -6t-14 -3.5t-15.5 -2t-10.5 -0.5zM167 42q10 2 20.5 3.5t20.5 1.5q6 0 6 -6v-2.5t-2 -1.5q-10 -1 -17.5 -1.5t-16.5 -0.5h-3t-3.5 0.5t-3 1.5t-1.5 3v1.5v0.5zM126 41q0 2 2.5 3t5.5 1h7h4h7q1 0 3 -2t2 -3
q1 0 0 -1.5l-1 -1.5h-29l-0.5 1.5l-0.5 1.5v1z" />
</svg>
