<?xml version="1.0" standalone="no"?>
<!DOCTYPE svg PUBLIC "-//W3C//DTD SVG 1.1//EN" "http://www.w3.org/Graphics/SVG/1.1/DTD/svg11.dtd" >
<svg xmlns="http://www.w3.org/2000/svg" xmlns:xlink="http://www.w3.org/1999/xlink" version="1.1" viewBox="-10 0 266 256">
   <path fill="currentColor"
d="M91 244q0 2 1 4t3 2q3 0 5 -2.5t2 -4.5q0 -9 -1 -17t-1 -17q0 -19 1 -39t2.5 -40t2.5 -40t1 -39v-4t-0.5 -5.5t-0.5 -5.5v-3t-1 -2.5t-2.5 -3.5t-2.5 -3l-1 -1q-1 0 -4 0.5l-3 0.5h-1q-7 0 -14 -0.5t-14 -0.5h-7q-3 1 -3.5 2t-0.5 3q0 3 1.5 4.5t3.5 1.5h2h1t2.5 -0.5
t2.5 -0.5h2h1v0q1 0 2 1l2 2v6q0 13 -1.5 26t-2.5 26v16.5t-3 16.5l-3 60q-1 1 -2 8t-1.5 14.5l-1 15t-0.5 9.5t0.5 4t2.5 2h1.5h0.5l3.5 -3.5l2.5 -2.5l6 -58t4 -58q1 -15 1 -30t2 -30q0 -1 0.5 -3.5t0.5 -6t0.5 -6t0.5 -3.5q1 -3 2 -3h3q7 0 9 8v2v5v4v2q0 18 -1 35t-1 34
l-0.5 2t-0.5 3q-2 28 -2.5 57t-0.5 56zM145 198q0 14 -2.5 26.5t-2.5 25.5q5 0 7 -2.5t4 -7.5v-3.5v-5.5v-5.5v-3.5l0.5 -2.5t0.5 -4.5t0.5 -4.5l0.5 -2.5v-8q0 -4 1 -6t3.5 -3t8.5 -1h1q0 1 2 2t3 1q0 11 1 25t0 25q-1 3 1 3.5t3 0.5q3 0 5 -1.5t2 -5.5q0 -12 -1.5 -23.5
t-1.5 -23.5q0 -2 1.5 -3l3 -2l3 -2t2.5 -2q3 -7 4.5 -16.5t1.5 -16.5q0 -13 -1 -25.5t-4 -25.5q0 -3 -3 -5.5t-6 -2.5h-40q-7 0 -10 4t-4 11v4.5v6.5v7v5q0 5 -0.5 11.5t-0.5 13t1 13t3 11.5q1 3 3 5t4.5 4t4 4.5t1.5 5.5zM136 162q0 -1 1 -1l0.5 -0.5l0.5 -0.5
q9 -1 17 -2.5t17 -1.5h7q3 1 3.5 3t0.5 4q0 10 -5.5 14.5t-15.5 4.5h-2t-4.5 -0.5t-4.5 -0.5h-3l-4.5 -1.5t-2 -2t-0.5 -3.5t-1 -5l-1.5 -3l-1.5 -3q-1 0 -1 -1v0zM137 147v-13l3 -2h2.5t6 -0.5t6.5 -0.5h6l4 -0.5t6 -0.5q1 0 5 0.5t5 0.5q2 0 3.5 1t1.5 3v1.5v0.5
q0 1 -0.5 2t-0.5 2.5t-0.5 3t-0.5 2.5h-2.5t-4.5 0.5t-4 0.5h-3q-3 1 -8.5 1t-10 0.5t-8 0.5h-3.5zM138 115q0 -6 2.5 -9t6.5 -4t8.5 -1h8.5h15q4 2 4.5 5.5t0.5 7.5q0 3 -1 5t-5 2h-38q-1 0 -1.5 -1t-0.5 -2v-2v-1zM127 33v10v7.5t0.5 7.5t1.5 10q0 3 0.5 5t3.5 3
q11 1 21 1.5t22 0.5h4q4 0 8 -0.5t7 -0.5h5q2 1 3 0t1 -3t-1.5 -4t-3.5 -2.5t-4.5 -1t-4.5 -0.5q-8 0 -16.5 2t-17.5 2q-1 0 -5 -0.5t-5 -0.5q-4 -1 -7 -4t-3 -8q0 -4 3 -6.5t7 -3t8.5 -0.5h7.5q2 0 5.5 -1t8 -1.5t8 -1t5.5 -1.5t2.5 -3.5t0.5 -4.5q0 -4 -0.5 -8t-0.5 -10
q-1 -1 -2.5 -1.5t-2.5 -0.5q-3 0 -4 2t-1 4t0.5 5t0 5.5t-1.5 4.5t-4 2q-7 1 -12.5 1.5t-12.5 0.5h-10q-1 0 -2.5 -1.5t-1.5 -3v-3.5v-2v-2t0.5 -3.5t0.5 -3.5v-2q0 -7 -5 -7q-2 0 -3.5 0.5t-2.5 3.5v4v5v6v3z" />
</svg>
