<?xml version="1.0" standalone="no"?>
<!DOCTYPE svg PUBLIC "-//W3C//DTD SVG 1.1//EN" "http://www.w3.org/Graphics/SVG/1.1/DTD/svg11.dtd" >
<svg xmlns="http://www.w3.org/2000/svg" xmlns:xlink="http://www.w3.org/1999/xlink" version="1.1" viewBox="-10 0 266 256">
   <path fill="currentColor"
d="M51 246q1 2 2 3.5t3 1.5q4 0 5.5 -2.5t3.5 -5.5q0 -4 0.5 -11t1.5 -15.5t1.5 -16t0.5 -10.5q1 -7 0.5 -15t0 -16.5t1 -16.5t3.5 -15q1 -2 3 -1.5t4 0.5h2h3q1 4 1.5 9t0.5 10t-0.5 10t-0.5 8q0 2 0.5 9t1.5 15t1.5 15.5t0.5 8.5v33q1 1 2 1.5t3 0.5t3.5 -2t2 -4.5t0.5 -5
v-3.5q0 -7 -1.5 -12.5t-1.5 -12.5q-1 -10 -1 -20t-3 -19v-41l1 -1l1 -1q4 -3 6.5 -6.5t3.5 -8.5q1 -6 1.5 -11t0.5 -10v-10v-12t0.5 -15t-1 -18t-6.5 -15t-15 -6t-18 1.5t-13 6t-7.5 11.5t-2.5 18q0 3 0.5 8.5t0.5 12.5t0.5 14t1.5 14t1.5 12t2.5 8q1 2 4 3t4 3v4v4
q0 8 -1.5 16t-1.5 15q-1 10 -0.5 20.5t0 21t-1.5 21t-5 20.5zM116 242q0 3 1.5 3.5t4.5 0.5h2q2 0 2 -2q4 -34 5 -68l2 -68q1 -17 2.5 -34t0.5 -34q2 -5 5.5 -7.5t8 -4t9 -2t9.5 -1.5q1 0 6 -0.5t10.5 -1t10.5 -1t7 -0.5l1.5 -1.5l1.5 -1.5q1 -2 -0.5 -3t-3.5 -2t-4 -1.5
t-3 -0.5q-7 0 -13.5 2t-12.5 3q-13 3 -20.5 4.5t-12 5.5t-6.5 12t-3 22v7t-0.5 11.5t-0.5 14t-0.5 14t-1 11.5t-0.5 7q-1 26 -2.5 52t-0.5 53q-1 3 -2.5 5.5t-1.5 5.5zM190 238q1 2 3 4t5 2q2 0 3 -1t2 -2.5t1 -3.5v-3q0 -4 -2 -11t-4 -14.5t-4.5 -13.5t-3.5 -8
q0 -3 -1 -9.5t-2 -14t-2 -14t-1 -9.5v-1.5v-1.5q0 -4 2.5 -8t5.5 -8t5.5 -9t2.5 -10v-36l-0.5 -0.5l-0.5 -0.5q-10 -8 -19.5 -11.5t-21.5 -3.5h-4h-4q-2 0 -2 1.5v2.5q0 2 0.5 3.5t2.5 2.5q8 0 15.5 1t13 4.5t9 9t3.5 14.5q0 2 -1 7.5t-2.5 11.5t-4 10.5t-4.5 4.5
q-1 0 -1 -0.5v-0.5l-5 -24q0 -3 -3.5 -4t-5.5 -1q-5 0 -8.5 0.5t-8.5 0.5q-2 1 -3 2t-1 3q0 4 4 4t7 -1t7 -1h1l1 0.5t2 0.5q2 6 4.5 12.5t2.5 12.5q0 4 -5 5t-11 1.5t-11 2t-5 5.5q0 5 4 5q1 0 1 -0.5v-0.5q5 0 11.5 -2.5t11.5 -2.5q2 0 3 0.5t2 3.5q1 12 3 23.5t4.5 23
t5 23.5t3.5 24zM61 95v-1l0.5 -0.5t1.5 -0.5q7 -1 14 -2.5t14 -1.5h6q2 2 2 4v4q0 19 -17 19q-12 0 -16.5 -4.5t-4.5 -16.5zM59 79v-16q0 -1 5 -2.5t10.5 -2.5t11 -1.5t7.5 -0.5h3t3 2v18l-2 3l-2.5 0.5t-5.5 1t-6 0.5h-6h-1q-2 0 -3.5 0.5t-2.5 0.5h-2q-2 0 -4.5 -0.5
l-2.5 -0.5zM59 41q0 -6 2.5 -10t6.5 -6t8.5 -2.5t9.5 -0.5t8.5 4t4.5 9v2t-0.5 3t-1 3t-0.5 2q-4 1 -6.5 1.5l-5 1t-5.5 0.5h-6h-5t-5 -0.5t-3.5 -2t-1.5 -4.5z" />
</svg>
