<?xml version="1.0" standalone="no"?>
<!DOCTYPE svg PUBLIC "-//W3C//DTD SVG 1.1//EN" "http://www.w3.org/Graphics/SVG/1.1/DTD/svg11.dtd" >
<svg xmlns="http://www.w3.org/2000/svg" xmlns:xlink="http://www.w3.org/1999/xlink" version="1.1" viewBox="-10 0 266 256">
   <path fill="currentColor"
d="M136 181q2 0 3.5 2t3 5t2 6t1.5 4q0 1 1 5.5t2 9.5t2 9t1 5l1 1.5t2 3.5t1.5 3.5l0.5 1.5q1 0 0.5 1l-0.5 1q1 1 2 4t2 4h1q6 0 10 -3.5t4 -8.5v-1l-2 -4q-2 -3 -6 -8.5t-7.5 -11.5t-6 -12.5t-2.5 -11.5v-2v-3q3 1 6 -0.5t5.5 -4t4 -5t1.5 -5.5v-48l-5 -22q0 -1 -4 -2
t-8.5 -1.5l-9 -1t-6.5 -0.5q-4 0 -8.5 0.5t-9.5 1t-9.5 1t-7.5 1.5q-5 1 -7.5 4t-3.5 7t-1 8.5v7.5v3v2v2t0.5 4.5t0.5 4.5v3q1 7 1 13.5t0.5 12t3 10.5t7.5 11v3q0 14 -4.5 25t-11.5 21v3q0 2 1 4t3 2h1.5h0.5l10 -10q0 -1 1.5 -4t3 -7.5l3 -9l2.5 -7.5q2 -7 2.5 -12
t2.5 -8t5.5 -5t13.5 -2zM104 171v-3.5v-3.5v-5t2 -5q2 0 8.5 -1t13.5 -1.5t13.5 -1.5t9.5 -1h1v0q1 0 1.5 0.5t0.5 1.5v15q0 3 -4 4.5t-9.5 2t-9.5 0.5h-6h-11t-10 -2zM102 137q0 -4 6 -6t14 -3t15 -1h10q4 0 6.5 1t2.5 5q0 5 -4 8q-6 0 -11 0.5t-9.5 0.5h-8.5h-10h-9
q-2 0 -2 -2v-3zM100 114q0 -5 5 -7.5t11.5 -3.5t13 -1.5t9.5 -0.5q2 0 5 0.5t5 2t3.5 3.5t1.5 5q0 4 -3.5 5t-6.5 1h-40q-2 0 -3 -1.5t-1 -2.5zM83 54q3 0 4 2.5t1.5 5.5t1 5.5t0.5 3.5q1 2 3.5 3.5l5 3t5.5 2t5 1.5h13q4 0 10 0.5t12.5 -0.5t11.5 -2.5t8 -5.5q1 -5 1.5 -9
t2 -7t4 -4.5t7.5 -1.5h25q5 -2 5.5 -4.5t0.5 -7.5h-39q-2 0 -3 -3.5t-2 -8t-3 -8.5t-6 -6q-1 0 -4 -0.5t-6 -0.5h-6h-6h-8h-7.5t-7.5 0.5t-10 0.5q-5 2 -8 5t-4 7t-1.5 9t0.5 10l-2 1h-42v12l3.5 1t5.5 1h1q3 0 7 -1t7.5 -2l7 -2t6.5 0zM97 64q-1 -3 1 -5t5 -3.5t6.5 -2.5
t4.5 -1q4 0 5.5 3t2.5 6l-0.5 1t-1.5 2t-1.5 2t-1.5 2l-0.5 0.5l-0.5 0.5h-14q-1 0 -2.5 -2t-2.5 -3zM132 59q0 -1 0.5 -4t3.5 -3h18q1 0 1.5 2.5l0.5 2.5q0 4 -1.5 6t-4 3.5t-5 2t-4.5 0.5q-6 0 -7.5 -2t-1.5 -8zM99 42v-14q0 -1 2 -2t5 -2t5.5 -1.5t3.5 -0.5q3 0 4.5 2
t1.5 5q0 8 -4 11.5t-12 3.5h-2h-2zM132 40v-6q0 -6 1.5 -9t8.5 -3q3 0 6 0.5t6 2.5q0 1 0.5 2.5t0.5 3.5t0.5 3.5t0.5 2.5q0 2 -1.5 3.5t-4 1.5h-4.5h-3h-6q-3 0 -5 -2z" />
</svg>
