<?xml version="1.0" standalone="no"?>
<!DOCTYPE svg PUBLIC "-//W3C//DTD SVG 1.1//EN" "http://www.w3.org/Graphics/SVG/1.1/DTD/svg11.dtd" >
<svg xmlns="http://www.w3.org/2000/svg" xmlns:xlink="http://www.w3.org/1999/xlink" version="1.1" viewBox="-10 0 266 256">
   <path fill="currentColor"
d="M112 251l1 0.5t2 0.5q2 0 4.5 -2.5t2.5 -4.5l2 -36h6t3.5 -0.5l3 -1t4.5 -0.5t4.5 3t2 8t0.5 10q0 6 0.5 10.5t1.5 7.5t3 3q4 0 5.5 -2.5t1.5 -6.5q0 -3 -1 -6.5t-2 -6.5t-2 -6.5t-1 -6.5q0 -4 1.5 -6t3.5 -3.5t4.5 -2.5t4.5 -5q2 -2 3 -5t1.5 -6.5t0.5 -7v-5.5v-8
t-0.5 -7.5t-1 -7.5t-1.5 -9l-0.5 -1t-1.5 -2l-4 -4l-4 -4h-12h-11q-10 0 -17.5 0.5t-12.5 3t-7.5 8.5t-2.5 17t1.5 22t3.5 22q1 3 3 3.5t4 0.5h3.5t2.5 2v3v3q0 8 -1.5 16t-1.5 16v4zM107 183q11 0 22 -0.5t22 -0.5h4.5h4.5q2 1 2 3q0 6 -3.5 9.5t-8.5 5t-10.5 2t-9.5 0.5
q-7 0 -11.5 -0.5t-7 -2t-3.5 -5.5t-1 -11zM105 174v-3v-2q0 -6 2.5 -8t6 -2.5t8 -0.5h8.5h4.5t7 -0.5t6.5 -0.5h4l2.5 -1l2.5 -1h1q2 0 3 1t1.5 2.5t0.5 3.5v3v6q-5 2 -10.5 2.5t-10.5 1.5h-4t-9 0.5t-10 0.5h-8h-1q-1 0 -2.5 -0.5t-2.5 -1.5zM105 147q0 -2 1.5 -4t2.5 -3
q5 -1 9 -1.5l8 -1t7.5 -0.5h8.5h3h3.5h3.5h3q2 1 3 2t1 4q0 5 -5 6.5t-11.5 2t-13 0t-9.5 -0.5h-12q-2 -1 -2.5 -2t-0.5 -2zM89 110l4 5h2.5t5.5 0.5t6.5 0.5h5.5h6q15 0 30.5 -1t31.5 -4q1 0 1 -1v-2q0 -3 -1 -3h-3q-9 0 -17 1t-16 3h-43q-2 0 -3.5 -2.5t-1.5 -4.5
t0.5 -4.5t3.5 -2.5q16 1 33 -1t33 -4q3 0 5 -2.5t3 -6.5t1.5 -7.5t0.5 -5.5q2 -2 6.5 -2h7.5q5 0 7.5 -0.5t2.5 -3.5q0 -5 -4 -5t-8 0.5t-7 0.5h-5q0 -1 -0.5 -3l-1 -4t-1.5 -4t-3 -2t-2.5 2t-0.5 4t-0.5 4t-1.5 3q-3 1 -7.5 1.5t-8.5 1t-6.5 2t-2.5 5.5h22q1 0 1.5 1l1 2
t0.5 2.5v1.5q0 4 -2.5 6t-6 3t-7.5 1h-6h-3.5h-3.5q-1 -1 -1.5 -5t-0.5 -5t0.5 -6t0.5 -10t0.5 -9.5t0.5 -6.5t3 -2.5t4 -0.5t3 -0.5t4.5 -0.5h4.5h3t5 -0.5t9 -0.5q4 0 8 0.5t5 0.5q2 -1 3 -2t1 -3v-1.5t-1 -0.5t-2.5 -0.5t-3.5 -0.5h-4h-3q-9 0 -17.5 1t-17.5 1v0l-1 -0.5
t-2 -0.5q0 -1 -1 -1.5l-1 -0.5v-15q0 -1 -2 -2.5t-3 -2.5h-1q-3 0 -4 3v5.5v7t-1.5 6t-4.5 2.5l-48 3v4v2q0 3 1 3h11q2 0 2.5 1.5t1 4t0.5 4.5v2v3q0 1 -1 1l-1 3h-29l-0.5 0.5t-0.5 1.5l-1.5 1.5t-0.5 2.5q0 1 0.5 2t1.5 2h4q5 0 10.5 -1.5t10.5 -1.5h2.5h2.5zM95 77
q0 -3 2.5 -5t5.5 -2.5t6 -0.5h6l1 -1t2 -1v-1v-1q-1 0 -2 -1.5l-1 -1.5h-17h-0.5t-0.5 -1q-2 -3 -2.5 -6.5t-0.5 -6.5v-1q0 -1 1.5 -2l1.5 -1q1 0 4 -0.5t6.5 -1t7 -0.5t4.5 -1h3q3 0 4 3t1.5 7t0 8t-0.5 6v10.5t-3 10.5q-5 2 -8.5 2h-9.5h-8q-1 -1 -1.5 -2t-1 -2.5
t-0.5 -3.5v-3z" />
</svg>
