<?xml version="1.0" standalone="no"?>
<!DOCTYPE svg PUBLIC "-//W3C//DTD SVG 1.1//EN" "http://www.w3.org/Graphics/SVG/1.1/DTD/svg11.dtd" >
<svg xmlns="http://www.w3.org/2000/svg" xmlns:xlink="http://www.w3.org/1999/xlink" version="1.1" viewBox="-10 0 266 256">
   <path fill="currentColor"
d="M119 244v4t3 3t4.5 -3t1.5 -5q2 -7 3 -13t1.5 -12.5l1 -13t0.5 -14.5q1 -4 2.5 -6t5.5 -2q3 0 4.5 2t2.5 5t1 6v5q0 1 -0.5 3.5t-0.5 5.5t-0.5 5t-0.5 3q0 2 0.5 6.5t0.5 8.5t0.5 6.5t0.5 3.5l3 3l4 -5v-55q0 -3 1.5 -6t3.5 -6t3.5 -6t1.5 -6v-5v-8v-9v-5l0.5 -2.5
t0.5 -3.5v0v-1v-4t-0.5 -6t-0.5 -6v-4q-5 -6 -10.5 -7.5t-13.5 -1.5q-12 0 -17.5 3.5t-8.5 10t-3 14.5v18q0 8 0.5 14t1.5 15q1 2 2.5 4t3 3.5t2.5 3.5t1 5q0 6 -1 13l-2 14l-2 14t-1 14zM187 242v4.5t3 2.5q4 0 5.5 -3.5t2 -8.5t0.5 -10q0 -4 1 -7q0 -3 0.5 -10.5
t0.5 -16.5t0.5 -17t0.5 -11q0 -8 -0.5 -17t-1 -18.5t-1.5 -18.5l-2 -18q-1 -5 -4.5 -7t-8 -3t-9.5 -1t-9 -1.5t-6.5 -4.5t-2.5 -10v-2v-3q2 -2 6 -3.5t9.5 -1.5h11.5t11 -0.5t8 -2t3 -3.5q0 -4 -4 -4v0q-2 0 -7 0.5t-10.5 1t-10.5 1t-6 0.5h-2h-2q-4 0 -5 -1t-1 -4t3 -4
t7.5 -1.5t9.5 -0.5t9 -2t7 -6.5t3 -12.5q0 -3 -2.5 -4t-4.5 -1q-3 0 -3.5 3t-2 6.5t-5 6.5t-13.5 3h-4q-1 -1 -2 -1.5l-1 -0.5v-18q0 -1 -1.5 -2l-1.5 -1h-1h-1l-2.5 1t-2.5 2v36l-3 3l-35 4q-1 0 -1.5 1l-0.5 1q1 2 3 3.5t4.5 1.5h4.5h3q4 0 7.5 -1t8.5 -1h4.5h3.5l2 2v18
q0 4 2.5 5.5t6.5 2.5t8.5 1.5t8.5 1.5t8 3.5t5 7.5q1 6 1 10.5t0.5 9t0.5 8.5v10q0 26 -1.5 51.5t-1.5 51.5zM85 243l0.5 2.5t1.5 2.5h8q1 0 1.5 -2.5t1 -5.5t0.5 -6v-3q0 -15 -1 -30t-1 -30v-29q2 -9 1.5 -19t0.5 -19q0 -17 2 -33.5t2 -33.5q0 -3 -2 -6.5t-5 -3.5h-39
q-2 0 -2.5 1.5t-0.5 2.5q0 3 2 4t4.5 1t5 1t2.5 5q0 18 -3 36.5t-3 36.5v7.5v9.5t-0.5 10.5t-1.5 8.5q0 11 -1 20.5t-1.5 18.5t-0.5 18v18v5.5v5.5q1 0 2.5 1t2.5 1t3 -1t3 -3q0 -24 1.5 -48t1.5 -49q2 -7 1.5 -12t-0.5 -11q1 -7 1 -15t0.5 -16t1.5 -16.5t2 -15.5q1 -5 1 -7
q0 -3 2 -7q2 -2 3 -2h3h1.5h2t2 0.5t0.5 1.5v21q0 15 -1.5 30t-1.5 29v1q1 1 1.5 2.5t0.5 2.5v1q0 1 -0.5 4l-1 6t-1 5.5t-0.5 3.5v72l-0.5 4t-0.5 8t-0.5 7.5t-0.5 4.5v3zM123 166q0 -4 3 -6.5t7 -3t9 -0.5h7h6q1 0 1 2v2q0 4 -1.5 8t-4.5 6h-6h-6.5t-6.5 -0.5t-5.5 -2
t-2.5 -5.5zM121 138q0 -3 2.5 -4.5t4.5 -1.5h27l2 1q1 0 1 2v2q0 3 -0.5 6t-2.5 5q-2 0 -4.5 0.5t-6 1t-6.5 0.5h-4q-7 0 -10.5 -2t-2.5 -10zM124 119q-2 -3 0.5 -5.5t6.5 -4.5t8 -3t6 -1h6t5 2l0.5 0.5t0.5 1.5v15h-29l-2 -2t-2 -3z" />
</svg>
