<?xml version="1.0" standalone="no"?>
<!DOCTYPE svg PUBLIC "-//W3C//DTD SVG 1.1//EN" "http://www.w3.org/Graphics/SVG/1.1/DTD/svg11.dtd" >
<svg xmlns="http://www.w3.org/2000/svg" xmlns:xlink="http://www.w3.org/1999/xlink" version="1.1" viewBox="-10 0 266 256">
   <path fill="currentColor"
d="M99 246q0 2 1 3.5t3 1.5h1q1 -1 2.5 -2l3 -2t2.5 -2.5t1 -2.5v-33q0 -3 2.5 -5t6 -2.5l7 -1t4.5 -0.5q3 0 5 2t3 4q-1 9 -0.5 20.5t1.5 21.5h1h1q3 0 4 -1t2 -4v-8q0 -7 -1 -14t-1 -14q0 -3 1 -4.5t2.5 -2.5l3 -2t3.5 -2q8 -6 10 -15t2 -18v-15.5t-1 -15.5q-1 -6 -5 -9.5
t-9.5 -5t-12 -1.5h-10.5h-11h-4.5t-7 0.5l-7 1t-4.5 1.5q-5 2 -7 4t-4 7v3v4.5v4.5v2v12q0 7 0.5 13.5t1.5 13t3 10.5q1 3 3.5 4t4.5 2.5t3.5 3t1.5 4.5q0 8 -1 15l-2 14q0 2 -1.5 5t-1.5 5zM98 183q0 -3 0.5 -5t2 -2.5t3.5 -0.5h6l2 -0.5t5 -0.5h5h2q1 0 2.5 -0.5t4.5 -0.5
h4h4h3h5q2 0 4 0.5t3 0.5q2 0 2 2.5v3.5q0 6 -5 9t-11.5 4t-13 0.5t-11.5 -0.5h-4q-2 0 -4.5 -0.5t-4.5 -1.5t-3 -3t-1 -5zM96 165v-3v-3q0 -5 1.5 -7.5t7.5 -3.5h9.5t14 -0.5t14.5 -0.5h10h2q3 0 3.5 1.5t0.5 4.5q0 7 -3.5 9.5t-9 3.5t-11.5 0.5t-11 -0.5l-3.5 0.5
t-7.5 0.5t-7.5 0.5t-4.5 0.5h-1h-1q0 -1 -1 -2t-2 -1zM96 134q0 -5 4.5 -7t9.5 -2q5 -1 13.5 -1.5t14.5 -0.5h7.5t6.5 1.5t5 3.5t2 6t-3 5.5t-6 1.5h-51q-1 0 -2 -2.5t-1 -4.5zM170 92q0 3 -1 5t-2 4.5l-2 5t-1 5.5q4 0 7.5 -2t6 -5.5t4 -7t1.5 -7.5t-2.5 -7t-7.5 -3h-4
h-3.5t-5.5 0.5t-5.5 1t-3.5 0.5h-1q-2 0 -3.5 -1.5t-1.5 -3.5v-3q0 -1 0.5 -2.5t0.5 -3.5t0.5 -3.5t0.5 -2.5q0 -2 3 -2.5t6.5 0t7.5 0t7.5 -2t5.5 -5.5t2 -12q0 -2 -0.5 -4.5t-2 -5t-3.5 -4.5t-4 -2h-22v-12l-1 -0.5t-2 -1.5h-1q-2 0 -2.5 1.5l-1 3t-0.5 4t-1.5 4t-5 3
t-10.5 1.5h-7l-2 -2v-12q0 -1 -2 -1h-2q-3 0 -3.5 1.5t-0.5 4.5v6q0 2 -1 4q-3 1 -8 0.5t-10 0t-8.5 1.5t-3.5 3q0 3 1 4.5t3 2.5q6 -2 13 -3.5t13 -1.5q2 0 2.5 2t0.5 4q0 7 -2.5 10t-6.5 4.5t-8 1.5t-7.5 2t-6 5t-2.5 10q0 4 0.5 7t1.5 6t3.5 5t7.5 2v-0.5v-0.5h3h4
t4 -0.5t3 -0.5h1h1h2.5t1.5 1v12q0 2 1.5 2h1.5h2.5t1.5 -2v-15h21l1 2v12q0 1 1.5 2.5t2.5 1.5h1l1 -1l2 -2v-2t0.5 -4t0.5 -3.5v-2.5q1 -1 2 -2.5t3 -1.5h19q1 0 1 1v2zM86 77q0 -7 4 -11t12 -4q4 0 4.5 2t0.5 5q0 5 -0.5 8t-1.5 4.5t-3.5 2.5t-7.5 1t-6.5 -1.5t-1.5 -6.5
zM114 77v-4t0.5 -5.5t1.5 -4.5t4 -2h18v10.5t-3 10.5q-1 0 -5 0.5t-6 0.5v0q-5 0 -7.5 -0.5t-2.5 -5.5zM114 46q0 -9 5.5 -11.5t13.5 -2.5q1 0 2.5 0.5t2.5 1.5l1 15l-4 4h-20l-0.5 -1t-0.5 -2v-1v-3zM146 44v-1.5v-3.5t0.5 -4t1.5 -2t2.5 -0.5t2.5 -0.5q3 0 6 0.5t7 1.5
q1 1 2 3.5t1 4.5q0 3 -1.5 5.5t-4 3.5t-5.5 1h-6h-2h-2l-1 -2l-0.5 -2t-0.5 -4z" />
</svg>
