<?xml version="1.0" standalone="no"?>
<!DOCTYPE svg PUBLIC "-//W3C//DTD SVG 1.1//EN" "http://www.w3.org/Graphics/SVG/1.1/DTD/svg11.dtd" >
<svg xmlns="http://www.w3.org/2000/svg" xmlns:xlink="http://www.w3.org/1999/xlink" version="1.1" viewBox="-10 0 266 256">
   <path fill="currentColor"
d="M149 252q0 2 1.5 2h2.5q2 0 3 -1.5l2 -3t1.5 -4t0.5 -3.5q0 -9 -1.5 -17.5t-1.5 -16.5v-2q0 -1 1 -3q1 0 2.5 -2.5l3 -5l3 -5t1.5 -3.5q3 -5 3 -13v-14v-9q0 -5 -1 -9.5t-3 -8.5t-7 -5h-22q-9 0 -17.5 -0.5t-14.5 1.5t-9.5 7.5t-3.5 17.5q0 11 3 21.5t4 21.5q2 3 4.5 4
t5.5 2v9q0 9 -2 17t-2 16q-1 2 0.5 4t3.5 2q4 0 6.5 -6t3.5 -13t1.5 -14.5t0.5 -10.5q5 -1 9 -1h9q2 0 4 0.5t2 3.5t0.5 9t1 12.5t0.5 12.5t1 8zM107 185q0 -1 1.5 -2t2.5 -2h7.5t11.5 -0.5t11.5 -0.5h7.5h3q2 0 3 0.5t1 3.5q0 4 -4 6.5t-9.5 4t-11 1.5h-8.5t-5.5 -0.5
t-5 -1.5t-4 -3t-1.5 -6zM103 163v-2q2 0 7 -0.5t10.5 -1t10.5 -1t7 -0.5h3.5h5.5h4.5h4.5q1 1 2.5 3t1.5 4t-1.5 3t-2.5 2q-10 1 -16.5 1h-15.5q-2 0 -6 0.5t-7 0t-5.5 -2.5t-2.5 -6zM109 139h5t8.5 -0.5t8.5 -0.5h5h4.5h4.5h4.5h4.5q2 1 2.5 2t0.5 3t-1.5 3.5t-4 2
t-4.5 0.5h-4t-7.5 0.5t-12 0.5h-12h-7.5v-7t5 -4zM168 120q1 1 1.5 2t1.5 1h1q1 0 2 -1t1.5 -3t1 -3.5t0.5 -3.5t-0.5 -6t-1.5 -7t-3 -5.5t-6 -2.5t-9 1.5t-10 1.5l-1 2v0q0 3 1.5 5t1.5 5q0 2 -1 4t-1 5q0 2 1.5 4t3.5 2q4 0 5 -3.5t1 -7.5t1 -7t4 -3q1 0 1.5 0.5t0.5 2.5
q1 1 1.5 3.5t0.5 5.5t0.5 5t0.5 3zM186 116q0 6 5 6q3 0 4.5 -2t2.5 -5t1 -6v-5v-6t-0.5 -12l-1 -14t-1.5 -13t-3 -10.5t-4 -4.5h-25q-2 0 -2.5 -2.5t-0.5 -4.5v-3.5v-5.5t1 -5t2 -3q2 2 3 4t1.5 4.5t2 4t3.5 2.5h1.5t3.5 0.5t4 0.5h2l2 0.5t2 1.5h2q2 0 3.5 -2.5t1.5 -4.5
v0q0 -1 -1 -2.5t-2 -1.5h-11l-2 -1.5t-2 -2.5v-0.5v-0.5q0 -3 2.5 -3.5t5.5 -1l6 -1t3 -4.5q0 -1 -0.5 -2.5t-2.5 -2.5h-3h-3q-2 0 -6.5 0.5l-9 1t-9 1.5t-5.5 3q-2 2 -2.5 7.5t-0.5 11t-1 9.5t-4 4h-3.5t-2.5 -1v-29q0 -1 -0.5 -1.5l-0.5 -0.5q-1 0 -2 -0.5l-1 -0.5
q-2 0 -3.5 0.5l-1.5 0.5v32q0 2 2 3t4 1q1 1 2.5 1t3.5 0.5t4 0.5h3q1 1 1 2.5v2.5q0 3 -2.5 4t-6 2t-6.5 2t-5 4v5.5v7.5t-0.5 8t-0.5 5v11v10l1 1l2 2h1v0l2.5 -2.5l2.5 -2.5l2 -40q0 -3 2 -3.5t4 -0.5h3q-1 6 1.5 10t6.5 7q3 -1 6 0t6 1h3q2 0 3.5 -0.5t2.5 -1.5t1 -3v-1
l-1 -1q-1 -1 -2.5 -2l-1.5 -1h-15l-0.5 -1t-0.5 -2.5t0.5 -2.5t1.5 -2h1.5h3.5t3.5 -0.5t2.5 -0.5t4 -1t3 -4v0q-1 -1 -1 -1.5t-1 -0.5q-3 -3 -7.5 -3h-8.5q-1 0 -1.5 -0.5l-0.5 -0.5q0 -1 0.5 -2t1.5 -1t3.5 -0.5t6 -0.5t6 -0.5t3.5 -0.5h1q2 0 2.5 2.5t1 6t0.5 7t1 5.5v11
q0 8 -1 16t-1 16zM60 111v5.5t3 2.5q5 0 6.5 -3t1.5 -7t-0.5 -8t1.5 -5q1 0 3 1t3 2l0.5 0.5l0.5 0.5v18q0 1 1 1h2q4 0 5 -3.5t1 -7.5t1 -7.5t5 -3.5q2 0 2 2v3q0 4 -1 7.5t-1 7.5q4 0 6 -2t3.5 -5t2 -6.5t0.5 -6.5q0 -2 -1 -4.5t-4 -2.5h-20q-1 0 -2.5 0.5t-3 1.5t-3 1.5
l-1.5 0.5v-5v-6v-5.5t0.5 -5.5t0.5 -7q1 -1 2.5 -1.5l1.5 -0.5h2.5t2.5 1q0 6 0.5 9.5t2.5 5t5.5 2t9.5 0.5h5q1 0 2 -1t1 -2v0q0 -3 -2.5 -3.5l-5 -1t-5 -1.5t-2.5 -4v-2.5t1 -1.5l14 -5q1 0 1.5 -0.5l0.5 -0.5l-0.5 -1t-1.5 -1.5t-1 -1.5v-1h-15q0 -1 -0.5 -1.5l-0.5 -0.5
q0 -1 0.5 -1.5l1.5 -1.5h6h8t7 4q0 3 0.5 7t1 7.5t1 7.5t1.5 7v31q0 2 1 2.5t2 0.5q5 0 5 -6v-55q0 -3 -2 -6.5t-5 -3.5l-28 -5l-0.5 -1t-0.5 -2v-2v-3v-3.5v-2.5q0 -1 1 -2h1q1 0 2 2t3 4t4.5 4t8.5 2h5q1 -1 1 -2v-2q0 -3 -2 -4t-4.5 -1t-5 -0.5t-2.5 -3.5t2.5 -3.5
t5 -0.5t4.5 -1t2 -4t-0.5 -3.5t-3.5 -0.5q-9 0 -15 0.5t-10 3.5t-5 8.5t0 14.5l-2 3l-1 0.5t-2 0.5l-1.5 -0.5t-2.5 -0.5l-1 -0.5l-1 -0.5v-26q0 -3 -2.5 -4t-4.5 -1q-3 0 -4 2.5t-1 4.5v4q0 1 0.5 3t0.5 4.5t0.5 5l0.5 2.5q1 8 4 11t7 3.5t7 1t3 2.5q0 3 -2 4t-5 1.5
t-5.5 1t-4.5 1.5q-2 2 -2.5 5t-0.5 6.5v6.5v4v4.5t-0.5 8t-0.5 8v4.5v5z" />
</svg>
