<?xml version="1.0" standalone="no"?>
<!DOCTYPE svg PUBLIC "-//W3C//DTD SVG 1.1//EN" "http://www.w3.org/Graphics/SVG/1.1/DTD/svg11.dtd" >
<svg xmlns="http://www.w3.org/2000/svg" xmlns:xlink="http://www.w3.org/1999/xlink" version="1.1" viewBox="-10 0 266 256">
   <path fill="currentColor"
d="M94 96q1 11 1 24t-1 26.5t-3.5 25.5t-7.5 22q-1 4 -6.5 12.5t-10.5 17.5t-9.5 17t-4.5 10q6 0 11 -3.5t9 -9.5t7 -13.5l6 -15t5.5 -14t5.5 -11.5q2 3 3.5 7t2.5 7.5t2 7.5t1 5q4 11 8 19.5t11 16.5q3 0 6 -3t2 -6l-0.5 -1t-1.5 -2t-1.5 -2t-1.5 -1q0 -1 -1 -2.5t-2 -4
t-2 -4t-1 -2.5l-2 -4t-2 -5t-2 -5t-3 -3q-1 -7 -3.5 -13t-4.5 -12.5t-3.5 -13t-1.5 -13.5v-2t2 -3q0 -12 1 -26.5t1 -27.5q-4 0 -6 1t-3 4zM182 178q2 0 4 5.5t3.5 13.5t3.5 17.5t4 17.5t4.5 13.5t5.5 5.5t4 -2t1 -4q0 -7 -2.5 -13t-4.5 -13q0 -2 -2 -8.5t-3.5 -14t-3 -14
t-2.5 -9.5v0v0q0 -2 1 -4t2.5 -3.5l3.5 -3.5l3 -3q4 -7 5 -12.5t1 -14.5t-2 -14t-6.5 -8t-10.5 -4t-14 -2v-3v-3v-7.5t0.5 -9t0.5 -7.5v-3l2 -4h31q0 -2 -0.5 -5.5t-3.5 -4.5h-6h-5q-1 0 -3.5 0.5t-3.5 0.5t-4.5 -0.5t-4.5 -0.5l-1.5 -1.5l-0.5 -0.5v-42q0 -1 -0.5 -1.5
l-0.5 -0.5q-1 0 -2 -1t-2 0l-1 0.5t-2 2t-2 2.5t-1 2t0.5 3.5t1.5 3.5v23q0 15 -1.5 29.5t-0.5 29.5h-3.5t-5 0.5t-5 0.5h-3.5q-3 1 -5 1.5t-2 3.5q0 1 0.5 2t1.5 1h43q4 0 6.5 2t4 5t1.5 6.5v6.5q0 6 -0.5 10t-2.5 11q0 1 -2 2l-2 1h-1h-1v0q-1 -2 -2.5 -5.5t-4 -7.5
t-5 -6.5t-6.5 -2.5h-28q-3 0 -4 2t-1 4q0 1 1 2t1 2h6q4 0 8.5 -1t8.5 -1q3 0 6 1.5t5 4t3 6t1 6.5q0 2 -1.5 4t-3.5 3q-8 2 -15.5 3.5t-16.5 1.5q-3 2 -3 5q0 2 2 3.5t4 1.5q4 0 8.5 -1t9 -2.5t9 -2.5t9.5 -1zM71 148q0 10 -2 19.5t-2 19.5q4 0 7 -2t3 -7l3 -38l1.5 -3
t0.5 -4v-2q0 -1 -0.5 -4t-0.5 -6.5t-0.5 -6t-0.5 -4.5q-1 -2 -2 -2.5t-4 -0.5t-4 3t-1.5 7t0 8.5t0.5 6.5q0 4 1 8t1 8zM118 130q0 2 0.5 10.5l1 17t2 15.5t4.5 7t4 -2t1 -4q0 -16 -2 -31.5t-2 -32.5l-0.5 -0.5l-0.5 -0.5q-1 -1 -2 -1.5l-1 -0.5q-1 0 -2 1.5l-1 1.5
q-1 4 -1 6.5t-0.5 4.5t-0.5 4v5zM45 109q1 1 2 1h2q3 0 6.5 -1.5t6.5 -3.5t5.5 -4.5l4.5 -4.5q1 -1 4 -3t6.5 -4.5t6.5 -5t4 -3.5h2h3q7 0 12 3t9.5 7t9.5 6.5t10 2.5q3 0 4 -1t1 -3q0 -5 -6.5 -8t-14 -5.5t-13.5 -5t-6 -7.5v-19q0 -1 1 -1h2q5 0 8.5 2.5t7 6t7 6t8.5 2.5
q3 0 3.5 -1t0.5 -4q0 -4 -3 -7t-7 -5t-9 -3t-9 -2.5t-7 -3.5t-3 -5v-22q0 -1 -1.5 -2l-1.5 -1l-0.5 -0.5l-0.5 -0.5q-3 0 -4.5 4t-1.5 9v10t-1 8q-2 3 -8.5 6l-13 6t-12 8t-5.5 13q7 0 11.5 -3.5t9 -8l8 -8t7.5 -3.5q3 0 3.5 2t1 4.5t0 5.5t-0.5 5v3.5t-3 3.5q-1 1 -4.5 3
l-7 4l-7 4t-5.5 3q-2 2 -5.5 4t-7 4.5t-6 5.5t-3.5 7z" />
</svg>
