<?xml version="1.0" standalone="no"?>
<!DOCTYPE svg PUBLIC "-//W3C//DTD SVG 1.1//EN" "http://www.w3.org/Graphics/SVG/1.1/DTD/svg11.dtd" >
<svg xmlns="http://www.w3.org/2000/svg" xmlns:xlink="http://www.w3.org/1999/xlink" version="1.1" viewBox="-10 0 266 256">
   <path fill="currentColor"
d="M153 245q0 2 1 4t4 2q5 0 7 -7t3 -16.5t1 -18.5v-12v-5v-7v-7v-5q1 -1 3 -1h4q7 0 10 2.5t4 6.5t1 9v10q1 12 1.5 24.5t2.5 25.5q0 1 1 1h3q4 0 6 -2t2 -6q0 -8 -1 -16t-2.5 -16t-2.5 -16.5t-1 -16.5v-6q0 -2 2 -2.5t3.5 -1t3.5 -1t3 -2.5q0 -1 1 -2.5l2 -3t1.5 -3
l0.5 -1.5v-35q-1 -1 -1 -4.5t-0.5 -9t-0.5 -11t-1.5 -10t-3 -7.5t-3.5 -3h-23q-1 0 -1.5 -1.5t-1 -3.5t-0.5 -3.5v-1.5q0 -7 3.5 -9t8.5 -2.5t10.5 0t10.5 -1.5v-3q0 -3 -1 -4t-4 -1q-5 0 -9.5 1t-9.5 1h-1h-2t-2 -0.5t-1 -1.5v-17q0 -2 -3 -2.5t-4 -0.5q-3 0 -5 2t-2 5
q0 6 1.5 12.5t1.5 13.5v4v5q0 2 -0.5 4.5t-0.5 3.5l-0.5 0.5l-1.5 1.5q-4 1 -7.5 2t-6.5 3t-5.5 4.5t-5.5 6.5v5v7v6v5q0 4 -0.5 10t0 12t1 11.5t2.5 10.5q2 3 4 4.5t3.5 3l3 3t1.5 3.5q0 1 -0.5 4l-0.5 3v1.5t0.5 1.5t0.5 2v2v4q0 7 -1 13.5t-2.5 13.5t-2.5 13.5t-1 13.5z
M40 244q0 4 5 4q3 0 7 -4.5t8 -12t8.5 -16t8.5 -16t7.5 -13.5t5.5 -8q3 2 5.5 7t5 12t5 14.5t5.5 14t6 10.5t6 4t5 -1t2 -4q0 -2 -1 -4t-2.5 -4t-3 -3.5t-2.5 -3.5q-2 -4 -5.5 -10.5t-7.5 -13.5t-7 -13.5t-4 -10.5v-3v-5v-5v-4q-1 -14 -2.5 -27t-0.5 -27q-1 -3 -2.5 -4.5
t-3.5 -1.5t-3.5 0.5t-1.5 3.5v70l-0.5 1t-0.5 2q-1 0 -2.5 2t-1.5 3t-2.5 5t-5 9t-5 9t-2.5 5q-2 2 -5.5 7.5t-7.5 11.5t-7 12t-3 8zM52 175q1 3 3.5 3.5t4.5 0.5q3 0 3.5 -1t1.5 -5q1 -12 1 -25v-25q0 -3 -1 -5.5t-5 -2.5q-3 0 -5.5 2t-2.5 5q0 7 1.5 14t1.5 14v19
q-1 0 -2 2.5t-1 3.5zM114 172q1 0 2 1.5t2 1.5v0q3 0 4 -1t1.5 -3t0.5 -4v-4v-3q0 -2 -0.5 -7.5t-1 -12t-1 -12t-0.5 -8.5t-1.5 -4.5t-4.5 -1.5q-2 0 -3.5 0.5t-0.5 4.5q1 13 1.5 26t1.5 27zM155 147q0 -2 0.5 -3.5t3.5 -1.5l39 -2l7 2l0.5 4t1.5 6v2q0 4 -4 5.5t-9 2
t-10 0.5h-7q-5 0 -9 -0.5t-7 -2t-4.5 -4.5t-1.5 -8zM152 127v-3t0.5 -4t0.5 -3.5t1 -2.5q0 -2 2.5 -3t3.5 -1h45l2 2v2v4q0 8 -2.5 11.5t-7 4.5t-11 0.5t-13.5 -0.5h-18q-1 -1 -2 -3.5t-1 -3.5zM39 105v1l0.5 0.5t1.5 0.5v0q6 0 11 -3.5t10.5 -7.5t11 -7t11.5 -3t11.5 2
t10.5 5t9.5 5.5t9.5 2.5q2 0 4.5 -0.5t2.5 -3.5t-3 -5.5t-7.5 -4.5t-10 -3.5t-10 -3.5t-7.5 -4t-3 -4v-3v-3.5t0.5 -5.5t1 -5.5t0.5 -3.5t1 -1.5l2 -1t2 0t2 0.5q3 0 6.5 1.5t7 3.5t6.5 3.5t7 1.5q5 0 5 -5q0 -4 -4.5 -6.5t-11 -3.5l-13 -2t-9.5 -3t-2.5 -6.5t0.5 -9
t-1.5 -8t-9.5 -3.5v29l-2 0.5t-4.5 1.5t-5 1.5t-4.5 1.5q-3 1 -7 2t-7.5 3t-6.5 4.5t-3 6.5v0q0 1 1 2.5l1 1.5h1h1q1 -1 3 -2l5 -2.5t5.5 -2.5t3.5 -2l0.5 -0.5t1.5 -0.5q2 -2 6 -3.5t7 -1.5v0q1 0 2 2t2 3v4v4v8t-4 7t-10.5 5t-13 5t-11 6.5t-4.5 9.5zM152 96q0 -3 2 -5
t5 -3t5.5 -1.5t4.5 -0.5l2.5 -0.5t6 -0.5t6.5 -0.5t5 -0.5h1q3 0 5.5 0.5t5 2t4.5 4t2 5.5v1l-3 3t-3 2h-42q-7 0 -7 -6z" />
</svg>
