<?xml version="1.0" standalone="no"?>
<!DOCTYPE svg PUBLIC "-//W3C//DTD SVG 1.1//EN" "http://www.w3.org/Graphics/SVG/1.1/DTD/svg11.dtd" >
<svg xmlns="http://www.w3.org/2000/svg" xmlns:xlink="http://www.w3.org/1999/xlink" version="1.1" viewBox="-10 0 266 256">
   <path fill="currentColor"
d="M164 214q0 2 1 8t2.5 12.5t4.5 11.5t7 5q3 0 5 -2t2 -5q0 -2 -2 -5.5t-4.5 -7.5t-4.5 -9t-2 -10q0 -7 3 -12t7.5 -10l9 -10t6.5 -10q2 -4 2.5 -9.5t0.5 -9.5q0 -1 0.5 -4t0.5 -5.5t0.5 -5t0.5 -3.5v-23v-23q-2 -2 -2.5 -4.5t-1 -4.5t-1 -5t-1.5 -5q-3 -5 -6.5 -7t-7 -2.5
t-6.5 -0.5t-5 -1.5t-3.5 -5t-1.5 -11.5q0 -5 1 -10t1 -10q0 -4 -1 -6t-5 -2q-3 0 -4.5 0.5t-1.5 2.5q0 8 1 15.5t1 15.5v10q-2 3 -7 6.5t-10.5 7t-9.5 7.5t-4 7q6 0 11 -3t9.5 -7t9 -7t10.5 -3q9 0 14 5t8 12.5t4 15.5t1 13q0 19 -2.5 37.5t-13.5 34.5q-3 4 -6 7.5t-5 7
t-3.5 7.5t-1.5 10zM74 212q11 1 22 2.5t22 1.5q2 0 5 -1t3 -3t-3 -3.5t-4 -2.5h-4t-6 -0.5t-5.5 -0.5h-3.5t-2 -1.5t-1 -2.5v-18l3 -3h3t5 -0.5t5.5 -1t3.5 -2.5q2 -8 2 -15.5v-15.5v-4v-5v-5v-4q-1 0 -2 -0.5l-1 -0.5h-1h-1l-1 0.5t-2 0.5v11.5t-0.5 15t-3 13.5t-7.5 6
q-1 0 -3 -0.5t-2 -2.5v-57q-1 0 -3 0.5t-3 0.5l-0.5 0.5l-0.5 0.5v87l-2.5 0.5t-3.5 1.5h-1q-5 0 -7 -2t-3 -7l-2 -56q0 -1 -2 -2l-1 -0.5t-2 -0.5q-2 0 -3 1.5t-1 3.5v1v6.5t0.5 8.5t0.5 6.5v3.5q1 4 1 9.5t0.5 10.5l1 10t2.5 9q1 3 3.5 4.5t4.5 1.5zM130 177v6h6t5 -1
q0 -1 3.5 -3.5l7 -5l7 -5t4.5 -3.5t4 -2t6 -3t5 -4t2 -5q0 -2 -0.5 -2.5t-3.5 -0.5q-2 0 -6.5 2.5t-9 6t-8.5 6.5t-7 5q-1 1 -3 2t-4.5 2.5t-4.5 3t-3 1.5zM139 142q0 3 3 3q1 0 5 -2l9 -4.5t10 -5.5t9.5 -6t7.5 -5.5t3 -3.5q0 -2 -1.5 -3t-3.5 -1q-3 0 -7.5 3t-10 6.5
t-10.5 7.5t-8 5l-2 0.5l-2 0.5q-1 1 -1.5 2.5t-0.5 2.5zM86 73v16q0 1 -2 3.5t-4.5 4.5l-5 4t-3.5 3q-2 2 -5 4.5t-5.5 5.5t-4.5 5l-2 2v4q7 0 12.5 -4.5t10 -10t9 -10t8.5 -4.5h1l1.5 0.5t1.5 1.5l22 20l1 0.5t2 0.5q2 0 3.5 -1t1.5 -3q0 -4 -2.5 -6t-6.5 -4.5t-8.5 -5
t-8 -5.5t-6.5 -7.5t-3 -10.5q0 -4 3 -5.5t6.5 -2t8 -1t8 -2.5t6 -6t2.5 -12v-7q-1 -3 -4 -3q-4 0 -4 3.5t-1 8t-4.5 8.5t-13.5 4h-3t-2 -2v-10v-9t3 -9q1 0 3 -1t4.5 -2t4.5 -2.5t3 -1.5q2 -1 3 -2.5t1 -3.5q0 -3 -1.5 -3h-3.5l-3.5 1.5t-7.5 3.5l-7 3.5l-3 1.5q-2 2 -3.5 6
t-1.5 7v2q0 1 0.5 3.5t0.5 6t0.5 6t0.5 3.5v1q0 4 -3 5t-7 1h-8.5t-8.5 0.5t-7 3t-3 8.5q10 0 18 -2.5t17 -2.5zM139 108q2 1 3.5 1h3.5q1 0 7.5 -2t13.5 -5.5l13 -6.5t6 -5q1 -2 -1.5 -3t-4.5 -1q-1 0 -4.5 1.5t-7.5 3.5l-9 4.5t-9 5t-7 4.5t-4 3z" />
</svg>
