<?xml version="1.0" standalone="no"?>
<!DOCTYPE svg PUBLIC "-//W3C//DTD SVG 1.1//EN" "http://www.w3.org/Graphics/SVG/1.1/DTD/svg11.dtd" >
<svg xmlns="http://www.w3.org/2000/svg" xmlns:xlink="http://www.w3.org/1999/xlink" version="1.1" viewBox="-10 0 266 256">
   <path fill="currentColor"
d="M166 161q4 0 6.5 6.5t3.5 17t2 22.5t2.5 22t3.5 17t6 7h2.5t1.5 -2v-6q0 -11 -2 -22t-4.5 -22t-4.5 -22t-2 -22q0 -1 0.5 -3.5t0.5 -3.5q3 -4 5 -6l4 -4t3.5 -4.5t4.5 -6.5v-20l-3 -5q-3 -4 -8.5 -6t-11.5 -3t-10.5 -2t-4.5 -3v-36q7 0 12.5 2t11 5t11 5t12.5 2
q0 -7 -5 -11t-12 -6t-14.5 -3t-12.5 -2q-1 0 -2 -2.5t-1 -3.5v-30q-2 0 -5.5 0.5t-3.5 4.5v28q0 2 -3 4t-8 4.5t-10 5.5t-10 5.5t-7.5 5t-2.5 4.5q1 0 2 1l2 2v0v0q3 0 7 -3.5t9 -7l10 -7t8 -3.5q1 0 2 2.5t1 5.5v5.5v3.5v8v4t-0.5 4.5t-0.5 4v1.5l-4 4h-3h-4t-4 0.5t-3 0.5
q-3 0 -4 0.5t-1 3.5t2 3.5t4 0.5q7 0 13 -1.5t13 -1.5h6q4 0 8 0.5t7.5 1.5t6.5 3q2 4 2.5 7t0.5 7v4t-2 3q-1 2 -2.5 3.5l-3.5 3.5l-3 3t-2 1h-3l-8 -15q0 -2 -2 -2h-3q-3 0 -8.5 1t-11 2.5t-9.5 3.5t-4 5q0 1 0.5 1.5t2.5 0.5q5 0 10.5 -2.5t11.5 -2.5t9 3.5t3 9.5
q0 4 -6 7.5t-13.5 6.5t-13.5 6t-6 5t2 2.5t4 0.5q4 0 8.5 -2t8.5 -4.5t8 -4t8 -1.5zM47 119v6q0 3 0.5 7t0.5 7v3v6t0.5 11.5l1 13t1.5 10.5q1 10 5 14.5t10.5 6t14.5 1.5h17h3q3 0 6.5 -0.5t6.5 -0.5h4q1 -1 1 -2.5v-3.5v-3t-1 -2h-28v-29q0 -1 0.5 -1.5l0.5 -0.5
q6 -3 10.5 -4t9.5 -5q2 -10 2 -20v-20v-23q0 -2 -1 -4t-4 -2t-4.5 3t-1.5 6v2q0 1 0.5 3l1 4l1 4t0.5 3v0v1v7t-0.5 10.5t-0.5 10.5v7q-2 4 -5.5 6t-7.5 2q-1 0 -1.5 -0.5l-1.5 -1.5v-7.5v-12t-0.5 -14t-0.5 -14v-11.5v-8v-5q0 -4 3 -6t7 -4.5t7 -7.5t3 -16t-6 -17.5
t-18 -6.5q-5 0 -11 2t-10 5t-7 8t-3 11t1.5 10t3.5 10q3 1 6.5 2t7 2.5t6 4t2.5 6.5v108q0 1 -1 1.5t-2 0.5h-2h-1q-5 0 -8 -3t-4 -8q-1 -22 -1 -44t-1 -44q-1 -1 -2.5 -1.5t-2.5 -0.5q-3 0 -4 1.5t-2 4.5v4t-0.5 6.5t-0.5 7.5v4zM65 45q0 -9 5.5 -11.5t12.5 -2.5h4h3l8 7
v18l-0.5 1t-1.5 2l-3.5 3.5l-2.5 2.5h-8q-10 0 -13.5 -5t-3.5 -15z" />
</svg>
