<?xml version="1.0" standalone="no"?>
<!DOCTYPE svg PUBLIC "-//W3C//DTD SVG 1.1//EN" "http://www.w3.org/Graphics/SVG/1.1/DTD/svg11.dtd" >
<svg xmlns="http://www.w3.org/2000/svg" xmlns:xlink="http://www.w3.org/1999/xlink" version="1.1" viewBox="-10 0 266 256">
   <path fill="currentColor"
d="M150 201q1 0 3 3.5t4.5 9t6 12t7 12.5t7 9.5t6.5 3.5t4.5 -1.5t1.5 -4.5q0 -7 -4 -13t-10 -12t-10 -12.5t-4 -14.5q0 -6 5.5 -9.5t12 -6.5t12 -6t5.5 -8q0 -3 -1 -4t-4 -1q-4 0 -8 2.5t-7.5 5.5t-7 5.5t-7.5 2.5q-2 0 -2.5 -2.5t-0.5 -4.5q0 -6 3.5 -12t7 -11.5
t6.5 -11.5t3 -12q0 -5 -2 -8.5t-5.5 -5.5t-7 -3l-7 -2t-5.5 -3t-2 -4q0 -10 0.5 -15t3 -8t7.5 -3.5t13 -0.5h8q2 1 3 6.5t3 12.5t5.5 12.5t9.5 5.5q2 0 3.5 -1.5t1.5 -4.5q0 -2 -1.5 -5t-4 -6.5t-4.5 -7t-3 -5.5q-1 -5 -1 -11v-11q0 -8 2.5 -16t2.5 -16q0 -3 -1 -5.5
t-4 -2.5t-5 3.5t-3 7.5t-1.5 8t-0.5 5v4.5t-0.5 6t-1 6.5t-0.5 4h-28l-4 -38q0 -2 -2 -4.5t-4 -2.5q-3 0 -4 3t-1 5q0 9 2.5 17t2.5 17v2v1l-26 4q-2 0 -2 1v2v2t2 1h24l2 2v3v3q0 14 -5.5 27.5t-12.5 24.5q-2 4 -5 6t-5.5 4.5t-4.5 5.5t-2 7q10 0 15.5 -6t9.5 -14t8 -14
t10 -6q4 0 6.5 1.5t6.5 5.5v3.5v3.5q0 5 -2 11t-5 12.5t-5 13.5t-3 14v2.5v3.5v4v2l-1 1.5t-2.5 3t-3 3.5t-2.5 3q-1 0 -3 1.5l-2 1.5l-6.5 6.5t-7 7.5l-7 8t-5.5 7v1v2q0 3 1 3.5t4 0.5h1h2l8.5 -8.5t6.5 -7.5t6 -8.5t8 -9.5q1 -2 1.5 -2h1.5zM48 124v10q0 7 0.5 13t0.5 11
v5q0 14 3.5 22.5t10 13t16 6t22.5 1.5h6l3 -3t2 -4t-4 -3t-9 -1.5t-10 -1.5t-7 -4v-4v-5q0 -6 1.5 -10t4 -6t5 -3t5 -2.5t4 -3.5t1.5 -7v-62q0 -2 -1.5 -3.5t-2.5 -1.5h-2t-2 2q1 33 -1 67q-1 0 -3.5 1.5l-2.5 1.5q-1 0 -2.5 -0.5t-2.5 -0.5v-12.5t-0.5 -19.5t-0.5 -19v-13
q0 -1 0.5 -3.5t0.5 -5t0.5 -5t0.5 -3.5q2 -3 5 -4.5t6.5 -3.5t5.5 -4.5t2 -6.5v-24q0 -3 -2 -5t-4.5 -3.5t-5.5 -1.5h-5q-5 0 -10.5 1t-9.5 3.5t-7 7t-3 10.5q0 7 1.5 10.5t3.5 6t4.5 4t4.5 4.5t3.5 7.5t1.5 12.5v9t-2 9v79q0 1 -2 2.5t-3 2.5h-0.5h-0.5q-1 0 -2.5 -1.5
t-2.5 -3t-1.5 -4t-0.5 -3.5l-3 -92q0 -1 -1.5 -1.5l-1.5 -0.5q-4 0 -5 4v7q0 6 -0.5 12t-0.5 12v8zM68 41q0 -9 3.5 -11t12.5 -2q1 0 2.5 0.5l3 1t3 1.5t1.5 2v17q0 2 -1.5 3t-3 1.5t-3 0.5h-2.5q-7 0 -11.5 -3t-4.5 -11z" />
</svg>
