<?xml version="1.0" standalone="no"?>
<!DOCTYPE svg PUBLIC "-//W3C//DTD SVG 1.1//EN" "http://www.w3.org/Graphics/SVG/1.1/DTD/svg11.dtd" >
<svg xmlns="http://www.w3.org/2000/svg" xmlns:xlink="http://www.w3.org/1999/xlink" version="1.1" viewBox="-10 0 266 256">
   <path fill="currentColor"
d="M196 244q0 2 1 4.5t4 2.5q2 0 3.5 -1t3.5 -4v-45v-22v-20t-0.5 -20.5t-1.5 -21.5q0 -1 -0.5 -3.5t-1.5 -3.5q-2 -3 -5.5 -5t-7.5 -3t-8.5 -2.5t-7.5 -3.5t-5.5 -6t-2.5 -11q0 -5 4.5 -6.5t10 -2.5t11 -1.5t8.5 -2.5q3 -3 4 -8.5t1.5 -11t0 -11t-0.5 -10.5t-1.5 -9
t-7.5 -4q-3 0 -3.5 3t-0.5 6.5t-1 6.5t-5 3l-58 3q-2 1 -2.5 2t-0.5 2t0.5 2t2.5 1h26v23l-1 2h-4t-6.5 0.5t-6 0.5h-3.5t-3 0.5t-4 0.5t-3.5 0.5l-1.5 0.5q-2 0 -3 0.5t-1 3.5t3 3h5q7 0 12.5 -1t12.5 -1h1h2t2 0.5t1 1.5t1 3.5t1.5 5.5t1.5 6t1 4t1 2.5l2 3l2 3t2 1.5
q2 2 6.5 2.5t8.5 1.5t7.5 3.5t4.5 6.5q3 13 3 27.5v28.5q0 17 -0.5 34t-2.5 34v1zM48 80v108q0 10 5 15.5t12.5 7t16 1.5h16.5h3h4.5h4.5h3q2 -1 2 -2.5v-2.5q0 -2 -2 -3t-4 -1h-5.5h-3.5h-4t-4 -0.5t-3.5 -0.5t-1.5 -1l-2 -5v-27q0 -1 3.5 -2.5t8 -3.5t8.5 -5.5t5 -9.5
t1 -10.5t0.5 -8t0.5 -8.5v-9q0 -8 -0.5 -14.5t-1.5 -14.5q-1 -2 -3 -2.5t-3 -0.5q0 15 -0.5 30t-2.5 30q0 2 -0.5 4.5t-2 5t-4 4t-4.5 1.5q-4 0 -5 -2t-1 -5q0 -10 0.5 -18.5t1 -17.5l1 -18t0.5 -20l1 -3q5 -2 9.5 -3.5t8 -4.5t5 -7t1.5 -11q-1 -3 -1.5 -7t-2.5 -8.5
t-5 -7.5t-7 -3h-20q-1 1 -4.5 2t-7 2.5t-6 3.5t-2.5 4v24q0 3 3 5.5t6.5 4.5t6 3l2.5 1v119l-1 10h-1h-2q-5 0 -8 -4.5t-4 -9.5q-1 -8 -1 -15t-0.5 -13t-0.5 -12.5v-13.5t1 -13.5t1 -13.5v-7q0 -4 -1 -7.5t-3 -6t-6 -2.5zM135 198q1 5 3 7.5t4.5 4t6 2t8.5 0.5h5h5
q4 -1 8 -6t4 -9v-1q0 -6 -0.5 -16.5t-0.5 -20.5t-0.5 -17t-0.5 -8v-2.5t-0.5 -4t-0.5 -4.5v-2l-2 -2l-2 -2h-1h-1l-0.5 1l-0.5 1v32q0 1 -2.5 1.5t-4.5 0.5h-1.5h-3.5q-1 0 -3 0.5t-3 0.5t-4 -0.5l-3 -0.5l-2 -2v-27q0 -1 -1.5 -2l-1.5 -1h-2q-1 0 -2 2t-1 3v3t-0.5 5
t-0.5 5v3v4t0.5 5.5t0.5 4.5v2v8.5t0.5 11.5t0.5 12v8zM142 173v-5.5v-4.5l2 -1l2 -0.5t5.5 -0.5t6.5 -0.5t6 -0.5h2h3v36q0 5 -3 6t-7 1q-7 0 -10.5 -2.5t-5 -7t-1.5 -10v-10.5zM165 56q0 -1 0.5 -4t1.5 -5.5t2.5 -4.5t4.5 -2h19l1 1q0 1 0.5 3t0.5 3q0 5 -2.5 8t-5.5 5
t-7.5 3t-8.5 1q-3 0 -4.5 -2.5t-1.5 -5.5zM66 41v-3.5v-3.5q3 -4 8.5 -5.5t10.5 -1.5h4h4q5 4 6.5 7.5t1.5 9.5q0 10 -3.5 13.5t-12.5 3.5q-1 0 -4.5 -0.5t-4.5 -0.5q-6 -3 -8 -8t-2 -11z" />
</svg>
