<?xml version="1.0" standalone="no"?>
<!DOCTYPE svg PUBLIC "-//W3C//DTD SVG 1.1//EN" "http://www.w3.org/Graphics/SVG/1.1/DTD/svg11.dtd" >
<svg xmlns="http://www.w3.org/2000/svg" xmlns:xlink="http://www.w3.org/1999/xlink" version="1.1" viewBox="-10 0 266 256">
   <path fill="currentColor"
d="M167 249q0 2 1.5 2h2.5h2.5t2.5 -2q0 -1 -0.5 -5t-0.5 -9q0 -4 0.5 -8t0.5 -5t0.5 -4t0.5 -4v-3q0 -5 -1 -10t-1 -10v-5t1 -3l1 -2h2t4.5 -0.5t5 -0.5h4.5q1 -1 4.5 -0.5t4.5 0.5q0 15 2.5 30t2.5 31q1 2 2.5 2.5t3.5 0.5h2.5t2.5 -1v-8q0 -12 -2 -23t-4.5 -22.5
t-4.5 -23.5t-2 -24q0 -16 2 -32.5t2 -33.5v-9q-2 -3 -7 -3q-1 0 -3 0.5t-2 1.5v33l-1.5 1t-2.5 1h-4.5h-4.5h-4.5h-2.5l-1 -2v-40q0 -5 -4 -8.5t-9 -7t-8.5 -7.5t-3.5 -11v-3t2 -1q6 -1 10.5 -1.5t8.5 -0.5h8h9h4h4q2 1 2.5 2.5t0.5 3.5q0 4 -2.5 8t-2.5 8l-13 7v1
q0 2 2 2.5t4 0.5q6 0 10 -2.5t6.5 -6.5t3.5 -9t1 -11v-8q-1 -2 -5 -3.5t-6 -1.5h-72q-1 0 -1.5 2t-0.5 3q0 3 2 4t4.5 1t5 0.5t4.5 1.5q1 1 1 3t1 4.5t1 5t1 3.5q0 1 0.5 2.5t1 3.5t1 3l0.5 1q2 3 4.5 4t4.5 2.5t4.5 3t2.5 4.5q2 10 2 18v17v9v10t-1 9.5t-3 8.5l-0.5 1
l-0.5 1h-14l-4 -4v-54q0 -1 -1 -2.5l-2 -3t-2.5 -2.5t-2.5 -1h-0.5h-0.5l-0.5 1l-0.5 1v6q0 18 0.5 36t0.5 36v8v12v11.5v7.5q-1 9 -1 18q0 8 -2 17q-1 5 -3.5 10t-2.5 10q0 1 1.5 3t3.5 2q5 0 6.5 -3t2 -7t0.5 -8v-7l1 -1.5t1.5 -3t1 -2.5t0.5 -2v-1v-1q0 -2 -1 -3.5
t-1 -3.5v-1q1 -1 1 -4t1 -6.5t1 -6.5t1 -4q5 -1 8.5 -1.5t7.5 -0.5h3t2 2v10v15v15.5v10.5v3t0.5 4.5t0.5 5t1 2.5zM44 220l2.5 2.5t3 3.5t4 3t4.5 1h19h9h7.5t7 -0.5t8.5 -1.5q2 0 2.5 -0.5t0.5 -2.5v-2t-2 -1h-24q-1 0 -1.5 -3.5t-1 -8t-1 -8t-0.5 -4.5v-8q3 -3 7 -5l8 -4
t7 -5t3 -9q0 -3 0.5 -10.5t1 -16.5t1 -16.5t0.5 -10.5v-2t0.5 -4t0.5 -4v-4v-3t-0.5 -4t-0.5 -4v-3t-2 -2t-4 -1h-1l-2.5 1t-2.5 2v82l-1.5 1.5l-2.5 2.5l-2 1.5t-4 3.5t-4.5 3.5l-2.5 1.5v-25v-24t3 -22v-1v-1v0q0 -1 -0.5 -2t-1.5 -2v-13q0 -8 0.5 -12t1.5 -6t2.5 -2.5
t3.5 -1.5t5 -3t7 -7q0 -5 0.5 -8.5t0.5 -6.5t0.5 -6.5t0.5 -7.5q0 -2 -0.5 -5.5t-1.5 -6.5t-3 -5.5t-6 -2.5h-30q-2 0 -3.5 2t-3 4.5t-2 5t-0.5 4.5v15v16q3 6 5 8.5t4 3t3.5 0.5t2.5 2.5t2 8t1 16.5q0 31 -0.5 63t-1.5 61q0 2 -3 2h-3q-3 0 -5 -1t-3 -5q-1 -7 -1.5 -15.5
t-1 -16.5t-0.5 -16t-1 -15v-7q0 -11 1.5 -22t1.5 -22v-3v-3t-0.5 -3.5t-0.5 -2.5q-1 -3 -2.5 -4t-4.5 -1q-7 0 -7 7q0 16 1 32t1.5 32l1 32t0.5 32zM142 144h21v30h-21v-30zM174 146l3 -3l2.5 -0.5t6 -1t5.5 -0.5h1h1q1 0 2 1.5t2 1.5q1 7 1 10.5v9.5v5q-2 1 -5.5 1.5
t-7 0.5h-7.5h-4v-25zM195 111l3 4l-3 16q-1 1 -4 2t-6.5 1h-7.5h-4v-3.5v-4.5q0 -3 0.5 -5.5t0.5 -4.5q0 -1 0.5 -3t1.5 -2h19zM81 19h5h3q1 0 2 2l2 4t1.5 4.5t0.5 3.5v2t-1 1q0 1 -0.5 4l-1 6t-1 5.5t-0.5 3.5q-3 5 -6.5 6.5t-8.5 1.5q-1 0 -2.5 -0.5l-1.5 -0.5
q-1 0 -2.5 -1.5t-3 -2.5t-2.5 -2.5l-1 -1.5v-27q0 -3 2 -4.5t5 -2.5t6.5 -1h4.5z" />
</svg>
