<?xml version="1.0" standalone="no"?>
<!DOCTYPE svg PUBLIC "-//W3C//DTD SVG 1.1//EN" "http://www.w3.org/Graphics/SVG/1.1/DTD/svg11.dtd" >
<svg xmlns="http://www.w3.org/2000/svg" xmlns:xlink="http://www.w3.org/1999/xlink" version="1.1" viewBox="-10 0 266 256">
   <path fill="currentColor"
d="M195 248q2 3 4 3t3.5 -1.5t1.5 -3.5v-5v-5q0 -12 -2.5 -23.5t-2.5 -22.5q0 -2 1 -4.5t2.5 -5t2.5 -5.5t1 -6q0 -10 -7 -16.5t-16 -6.5h-4t-2 2q0 3 3 4.5t6.5 3t7 4.5t3.5 9v2t-1 2q-1 2 -4 2h-2q-1 -2 -3.5 -4.5t-5.5 -5t-6 -4.5t-6 -2q-2 0 -3.5 0.5t-1.5 3.5q0 2 1 3
t2.5 1.5l3 1t3.5 1.5q0 1 1.5 2.5t3.5 3t3.5 3t1.5 2.5v1q0 2 -2 3t-4.5 1.5t-4.5 0.5h-3l-1 3v1v0q0 1 1.5 1.5l1.5 0.5h17l3 3l0.5 3.5t1 8t1 9.5t0.5 8v4.5v6.5v7v5zM120 241q0 3 2.5 5t5.5 2q1 0 3 -0.5t2 -2.5v-46l1 -2.5t2 -3.5q0 -1 0.5 -1.5l0.5 -0.5h21q3 0 3.5 -1
t0.5 -2q0 -3 -2.5 -4.5t-5.5 -2t-6 -0.5h-5v-5q1 0 2.5 -2t3.5 -4.5t3.5 -4.5t1.5 -4q0 -3 -3 -3h-1h-1q-3 3 -5 6t-4.5 5t-5 3.5t-6.5 1.5l-0.5 -1.5t-0.5 -3t-0.5 -3t-0.5 -2.5q1 -4 4.5 -5.5t6.5 -3.5t5.5 -4t2.5 -6q-11 0 -18.5 7t-7.5 18q0 2 1 5.5t2.5 6t2.5 4.5l1 2
l-3 11v4.5t-0.5 11.5t-1 13.5t-1.5 11.5v1zM58 190q0 3 5 4.5t10.5 2.5t11.5 1.5t9 0.5h4.5t6.5 -0.5t5.5 -1.5t2.5 -4q0 -1 -1 -1.5t-2.5 -1t-3.5 -0.5h-2q-3 0 -5.5 1t-4.5 1q-1 0 -2.5 -0.5t-1.5 -1.5v-15q0 -2 2.5 -3t5.5 -3t6 -4.5t3 -6.5v-21v-20t-2 -20q0 -1 -1 -1.5
t-2 -0.5t-2 0.5t-1 1.5v55q0 3 -2 6t-5 3h-2t-1 -2q-2 -16 -3 -32.5t-1 -32.5q0 -4 0.5 -5.5t1.5 -2.5t2.5 -1.5t3.5 -2.5l3.5 -3.5l2.5 -2.5l2 -37q0 -2 -2.5 -3.5t-5.5 -2t-6 -0.5h-5q-6 0 -10.5 0.5t-8 3t-5.5 6.5t-2 11q0 10 4 18.5t15 10.5q0 4 0.5 13t1 19.5t1 19.5
t0.5 12v8v11t-0.5 11.5t-0.5 8.5h-5t-3 -1t-2 -3t-1 -6q-1 -3 -1.5 -8t-1.5 -10t-1.5 -9t-0.5 -5q0 -2 -0.5 -8.5t-0.5 -13.5v-13v-9t-1.5 -3h-3.5h-3q-1 0 -2 2v11q0 21 2 40.5t6 39.5zM120 114q2 8 6.5 13t10.5 7.5t13.5 3t14.5 0.5q11 0 18 -1.5t10.5 -6t5 -12t1.5 -19.5
q0 -3 -0.5 -7t-1 -7.5t-2 -6.5t-4.5 -5q-1 0 -4.5 -0.5t-7.5 -1.5t-7 -3t-3 -5l0.5 -2.5t1.5 -2.5h24q1 0 1.5 -1l0.5 -1v-1v0v0q0 -1 -0.5 -2t-1.5 -1h-71l-0.5 0.5t-1.5 0.5v1v1q1 0 2 1.5l1 1.5h19q2 0 2.5 3t0.5 4q0 3 -2 4.5t-5 2.5t-6.5 2.5t-7 4.5t-5.5 8.5t-2 14.5
v12zM145 126v-1l10 -11h1q2 0 5.5 1t6 3t4.5 4.5t2 5.5l-0.5 1.5t-1.5 1.5h-23q-2 0 -3 -1.5t-1 -3.5zM130 115q0 -2 2.5 -4t5.5 -5t6 -5.5t4 -4.5q1 -3 1.5 -6.5t1.5 -6t3 -4.5t6 -2t5.5 2.5t2.5 5.5t2 6.5t4 5.5q0 1 3 3t6 4.5t5 5t2 3.5q0 2 -1 6t-4 4h-1l-5 -5t-6.5 -6
t-7 -5t-7.5 -2t-7 2.5t-5.5 5.5t-5.5 6t-7 4h1q-1 -1 -2.5 -3.5t-1.5 -4.5zM126 100q0 -9 5 -15t14 -6q0 3 -1 7t-2.5 8t-4.5 6.5t-7 2.5t-4 -3zM174 83q0 -2 0.5 -3t2.5 -1q8 0 10.5 5.5t2.5 11.5q0 2 -1 2.5t-2 0.5q-2 0 -4.5 -2t-4.5 -4.5t-3 -5t-1 -4.5zM65 55
q0 -1 0.5 -3.5t0.5 -3.5q2 -5 6.5 -6t9.5 -1q4 0 6 1.5t2.5 4.5l1 6t0.5 6v5q0 3 -1 4q-1 2 -3.5 5.5t-5.5 3.5q-4 0 -7.5 -2t-5.5 -5.5t-3 -7.5t-1 -7zM155 61h3q3 0 3.5 2t0.5 5h-7v-7zM145 7q-2 0 -3.5 0.5t-1.5 2.5v20q0 4 -3 6t-7 3t-7 2.5t-3 5.5q1 0 6 -0.5t9.5 -1.5
t8.5 -2.5t4 -4.5v-29q0 -1 -1.5 -1.5zM169 33q4 7 11.5 9.5t15.5 2.5q2 0 4.5 -1t2.5 -3q0 -3 -4 -5h-2t-4.5 -0.5t-4 -0.5h-2.5t-2.5 -1t-2.5 -1q-3 -2 -3.5 -7t-1 -9.5t-1.5 -8t-4 -3.5t-4 1.5t-1 4.5v1v1q0 2 0.5 4.5t1 5.5l1 6t0.5 4z" />
</svg>
