<?xml version="1.0" standalone="no"?>
<!DOCTYPE svg PUBLIC "-//W3C//DTD SVG 1.1//EN" "http://www.w3.org/Graphics/SVG/1.1/DTD/svg11.dtd" >
<svg xmlns="http://www.w3.org/2000/svg" xmlns:xlink="http://www.w3.org/1999/xlink" version="1.1" viewBox="-10 0 266 256">
   <path fill="currentColor"
d="M167 189q4 0 5.5 4.5t2.5 11.5t1 15t0.5 15t2 11.5t5.5 4.5q3 0 4.5 -3t1.5 -5q0 -7 -1 -13.5l-2 -13l-2 -13t-1 -12.5v-4q4 -2 6.5 -3.5t4 -3.5t2.5 -4.5t1 -7.5v-4v-6v-6v-4v-20t-2.5 -14.5t-9 -8.5t-19.5 -3q-5 0 -10.5 0.5t-11.5 2.5t-10.5 5t-6.5 9q-1 1 -1 2.5
t0.5 3.5t0 3.5t-1.5 3.5v3v4.5v4.5v3q0 9 1 18.5t7 17.5q2 2 4.5 2.5t4 1.5t3 2.5t1.5 5.5v2q0 2 -0.5 7.5t-0.5 12.5t-0.5 13t-0.5 7v1v4t0.5 4t2 3t3.5 1t3.5 -0.5t1.5 -2.5v-55l1 -0.5l1 -0.5q1 0 4 -1t4 -1h1zM67 205l14 2t14 1h4.5t5 -0.5t4 -2t1.5 -4.5v-2t-1 -2h-23
q-1 0 -2 -1t-1 -2v-2v-2q0 -5 3 -8.5t7 -6.5t7.5 -6.5t3.5 -8.5v-81q0 -1 -1.5 -3t-2.5 -2q-2 0 -3.5 2.5t-1.5 3.5v76q0 3 -2.5 6t-5.5 3h-1l-1 -1.5l-1 -1.5v-10.5t-0.5 -16t-0.5 -16v-10.5v-3v-6.5v-6.5v-6v-4v-6.5v-6.5v-4t0.5 -2l0.5 -1q6 -4 9.5 -5.5t5 -3.5t2 -6
t0.5 -13v-2q0 -2 -0.5 -4t-0.5 -4v-2q0 -2 -1.5 -4t-3.5 -4h-2t-4 -0.5t-3 -0.5h-3q-5 0 -10 0.5t-10 2t-8 5t-3 10.5q0 9 2 14.5t4.5 8.5t5.5 4.5l5 2.5t4 2.5t2 4.5v5q0 1 -0.5 3t-0.5 4.5t-0.5 4.5l-0.5 2v10t0.5 14.5t0.5 14.5v9v7l1 48l-3 3q-6 -3 -8.5 -13.5t-3 -24
t0 -28t0.5 -27.5t-1.5 -21t-5.5 -8q-1 0 -2 0.5t-1 1.5v6q0 5 -0.5 9.5t-0.5 8.5v7v7t0.5 10t0.5 8v4q0 4 0.5 11.5t1 16t1 15.5t0.5 10q1 6 4 11.5t9 6.5zM139 167v-2v-2q6 0 10.5 -0.5t8 -0.5h7.5h9h10q2 1 2.5 2t0.5 3q0 4 -3 6.5t-7 4t-8.5 2t-7.5 0.5h-11
q-7 -2 -9 -4.5t-2 -8.5zM134 147q0 -3 0.5 -5.5t2.5 -3.5q7 -1 11.5 -1t8.5 -0.5t8 -0.5h9h11q3 2 3.5 4.5t0.5 4.5q0 3 -0.5 4t-1.5 2t-3 1h-5q-1 0 -5.5 0.5t-10 1l-11 1t-8.5 1.5h-2q-5 0 -6.5 -2.5t-1.5 -6.5zM136 125q0 -5 3.5 -8t8 -4.5t10 -2t8.5 -0.5t6.5 0.5t6.5 2
t4.5 4t1.5 6.5v2.5t-1 1.5q-2 0 -7.5 0.5t-12 1t-12 1t-7.5 0.5h-3q-3 0 -4.5 -1.5t-1.5 -3.5zM121 98q1 0 1.5 0.5t0.5 1.5h1v0l2 -2l2 -2q0 -1 -0.5 -5t-0.5 -9t0.5 -9t0.5 -5q0 -4 1.5 -10t4.5 -10t8 -4h8t7 -3.5t3 -14.5v-3.5v-2.5l-3 -4h-4.5h-5.5h-6.5h-9t-8 1.5
t-5.5 3.5l5 5h25q2 0 2 2v2q0 3 -3.5 4.5t-8 3.5l-9 4t-6.5 6q-2 9 -2.5 15t-0.5 13q0 6 0.5 10.5t0.5 11.5zM187 67q0 2 0.5 7t1.5 10t3.5 9t5.5 5q4 1 4.5 -0.5t0.5 -3.5q0 -4 -1 -7t-2 -6.5t-2 -6.5t-1 -7q0 -1 1 -2t2.5 -2l3 -2t1.5 -3t-2 -3.5t-4 -1.5t-3.5 1t-3 2.5
t-3 2.5t-2.5 2v3v3zM139 79q0 1 -0.5 3.5t0 5t1.5 4t4 1.5h1.5t1.5 -2v-25q0 -2 1 -3t2.5 -2t2.5 -2t1 -3q0 -1 -0.5 -2t-2.5 -1q-5 0 -7 3t-3.5 7t-1.5 8.5v7.5zM168 67q0 4 -0.5 8.5t0 8t3 6t7.5 2.5q0 -7 -2 -14.5t-2 -14.5q0 -8 2.5 -11.5t6.5 -5t8.5 -2.5t8 -2.5t6 -5
t2.5 -11.5q0 -4 -1 -6.5t-6 -3.5h-2q-1 0 -3 -0.5t-3 -0.5h-3h-3.5h-5.5t-5 1t-2 4q0 4 3.5 4.5t8 0t8 0.5t3.5 5v2v1q-5 2 -9.5 3.5t-8.5 4t-7 5.5t-4 8v3v4v4v3zM63 38q0 -5 2 -8t5 -4t7.5 -1.5t9.5 -0.5q2 0 3 1.5t1.5 4t1 4.5t0.5 4q0 8 -5 11.5t-13 3.5q-4 0 -6 -1
t-3.5 -3.5t-2 -5t-0.5 -5.5z" />
</svg>
