<?xml version="1.0" standalone="no"?>
<!DOCTYPE svg PUBLIC "-//W3C//DTD SVG 1.1//EN" "http://www.w3.org/Graphics/SVG/1.1/DTD/svg11.dtd" >
<svg xmlns="http://www.w3.org/2000/svg" xmlns:xlink="http://www.w3.org/1999/xlink" version="1.1" viewBox="-10 0 266 256">
   <path fill="currentColor"
d="M136 246q0 2 1 3.5t3 1.5q3 0 7.5 -3.5t9 -9t9 -12.5t8 -13.5t6 -12t2.5 -8.5q0 -6 -3 -9.5t-6.5 -6.5t-6 -7t-2.5 -10v-2.5v-2.5l2 -1l2 -0.5t5 -0.5t6.5 -0.5t5.5 -0.5h17l1.5 -1t1.5 -2v-1v0q0 -1 -1.5 -2t-1.5 -2h-4h-4q-3 0 -10 0.5t-15 1t-17 1t-16 1.5t-11.5 2
t-4.5 2q0 3 3 5h6q4 0 8 -1t9 -1h3.5h3.5q1 1 2 3.5t1 3.5l0.5 2l1 4l1 4l0.5 2q2 3 4 5.5t3.5 4.5t3 4.5t1.5 5.5q0 7 -3.5 14.5t-8.5 14.5t-11.5 13t-11.5 9v2zM60 194q6 0 10 0.5t8.5 0.5h8.5h9h13l0.5 -0.5t1.5 -0.5v-1v-1l-3 -3l-2 -2h-19q-2 0 -3 -2t-1 -4l0.5 -0.5
l0.5 -0.5q0 -1 0.5 -3.5t0.5 -3.5v0v-1q0 -1 -0.5 -2.5t-0.5 -2.5v-1q0 -4 3.5 -6.5t8 -4.5t8 -4t3.5 -6v-55q0 -1 -1 -1.5t-2 -0.5t-2 2.5l-1 2.5q-1 12 -1.5 25t-0.5 25q0 1 -1 1.5t-2.5 1.5t-2.5 1.5l-1 0.5h-1h-1q-3 0 -4.5 -1t-1.5 -4v-1q0 -1 0.5 -3.5l0.5 -2.5
q0 -1 -0.5 -3.5t-0.5 -3.5l-0.5 -3t-0.5 -5q0 -12 1.5 -24.5t2.5 -25.5q3 -5 7 -6.5t7.5 -3t5.5 -5t2 -12.5q0 -2 -1.5 -5t-3.5 -5.5t-4.5 -4t-4.5 -1.5h-2l-2.5 0.5t-4.5 0.5t-4.5 0.5l-2.5 0.5q-7 0 -11.5 1t-7 3t-3 6.5t-0.5 12.5q0 6 2.5 9.5t6.5 4.5t7 1.5t3 2.5v101
q0 4 -2 8.5t-6 4.5q-5 0 -7 -2.5t-2.5 -6.5t-0.5 -7.5v-6.5v-6t-0.5 -10.5t-0.5 -10.5v-6v-8q0 -5 1 -9.5t1 -9.5q0 -2 -0.5 -4l-1 -4t-2 -3.5t-4.5 -1.5l-0.5 0.5l-0.5 0.5l-0.5 0.5l-0.5 0.5v18v19v10.5t0.5 16t0.5 16v10.5q1 5 3 8.5t7 4.5zM132 122l0.5 0.5l0.5 0.5
l1 1.5t2 1.5v0h1h13h16t15.5 -1.5t11.5 -3.5v-0.5v-0.5q0 -2 -0.5 -3t-1.5 -2h-2h-2h-2h-2q-3 0 -9 0.5t-12 0.5t-11 0.5t-6 0.5h-2t-4.5 0.5t-4.5 1.5t-2 3zM118 107q0 1 1 2l1 1h1q4 0 9.5 -4t11.5 -9t11.5 -9.5t10.5 -4.5q2 0 2.5 0.5t2.5 1.5l2 1.5t4 2.5t4 2.5t3 1.5
l1.5 0.5l3 1l3 1l1.5 0.5l2 1.5t4 3.5t4 3.5t4 1.5t2 -2v-4q0 -4 -3 -6.5t-8 -4.5t-10 -3.5t-9.5 -5t-7.5 -9t-3 -13.5v-10q0 -1 1 -1h2q5 0 9 2.5t7.5 5.5t7 5.5t6.5 2.5q1 0 4 -2.5t2 -4.5q0 -3 -6.5 -5.5t-14 -5t-13 -5t-5.5 -6.5v-25q0 -1 -2.5 -1.5l-2.5 -0.5
q-2 0 -3.5 0.5t-1.5 3.5v4v7v6.5v4.5q0 3 -1.5 5t-3.5 4t-4.5 3.5t-4.5 2.5l-3.5 3.5t-6 5t-6 5t-3.5 2.5q0 1 -0.5 1.5l-0.5 0.5l-1 1q0 2 1.5 2h2.5q5 0 8.5 -3t7 -6.5t7 -6.5t6.5 -3h1h1l1.5 7.5t0.5 6.5q0 6 -3 11t-7.5 9t-9.5 7t-9.5 6t-7.5 5.5t-3 4.5zM66 58v-3v-2
q0 -6 1.5 -9t4.5 -4.5t7 -2t9 -0.5h7q3 3 4 5.5t1 6.5q0 3 -2 5.5t-5 4.5t-6.5 3t-5.5 1q-4 0 -8.5 -0.5t-6.5 -4.5z" />
</svg>
