<?xml version="1.0" standalone="no"?>
<!DOCTYPE svg PUBLIC "-//W3C//DTD SVG 1.1//EN" "http://www.w3.org/Graphics/SVG/1.1/DTD/svg11.dtd" >
<svg xmlns="http://www.w3.org/2000/svg" xmlns:xlink="http://www.w3.org/1999/xlink" version="1.1" viewBox="-10 0 266 256">
   <path fill="currentColor"
d="M118 248l2 2l1 1h1q1 0 2.5 -1t2 -2.5t1.5 -3t1 -2.5t0.5 -3t0.5 -4t0.5 -4t0.5 -3v-50l1 -6l2.5 -0.5t6.5 -0.5t7.5 -0.5t6.5 -0.5h3h6h5h4h5.5h7t7 -0.5t5.5 -0.5l2 -2t2 -3v0v-1q0 -2 -2 -3.5t-4 -1.5q-13 0 -26.5 1.5t-26.5 1.5h-4.5h-5.5q-2 -2 -2.5 -5t-0.5 -6
l0.5 -2.5t0.5 -3.5q1 -3 5 -4t9.5 -1t12 -0.5t11.5 -4t8.5 -9.5t3.5 -18q0 -13 -2 -20.5t-6 -11t-8 -4t-9 0t-9.5 0.5t-8 -1t-6 -5t-2.5 -13v-4t1 -3l1 -2h1.5t4 -0.5t4.5 -0.5h4h3h6h6h3h4t6.5 -0.5t6.5 -0.5h4q2 -1 3.5 -2t1.5 -3v-2t-1 -1h-59q0 -4 0.5 -6t0.5 -4
q0 -1 -0.5 -3l-1.5 -6l-1.5 -0.5l-1.5 -0.5h-1h-1q-1 0 -3.5 0.5l-2.5 0.5v20l-1 2q-3 -1 -8 -1q-6 0 -9 2h-32l-5 2v1.5v1.5q0 4 1.5 6t5.5 2q10 0 21 -2.5t22 -2.5h2.5t2.5 2l0.5 2.5t0.5 5t0.5 5l0.5 2.5v4.5v4.5h-34q-4 0 -7 3.5t-5 8.5t-2.5 10t-0.5 7q0 14 2.5 22
t8 12t14 5.5t21.5 1.5q2 2 2.5 5.5t0.5 5.5q0 3 -0.5 5.5t-2.5 4.5q-3 0 -8.5 0.5t-12 1t-12.5 0.5t-8 1h-2h-1q-1 -1 -3.5 -1.5l-2.5 -0.5h-1q-1 0 -3 0.5t-4.5 1t-4 1.5t-1.5 3q0 3 3 5.5t7 2.5q5 0 10 -0.5t9.5 -2t9 -2.5t10.5 -1h3.5h5t5 0.5t3.5 0.5q0 14 -0.5 28
t-0.5 28v19zM84 114l0.5 -0.5l0.5 -0.5q1 -2 4.5 -2.5t7.5 -1t8 0t5 0.5h5h3l2 1v3v4v3v4.5t-1 4.5t-2 3h-4.5h-4.5q-4 0 -8.5 -1t-8 -3t-5.5 -6t-2 -9zM132 130v-3t-0.5 -4.5t-0.5 -5v-2.5v-3v-2t1 -2q4 0 7.5 -0.5t6.5 -0.5h6h7q4 0 7.5 0.5t3.5 5.5q0 6 -3 10t-8.5 6
t-11 3t-10.5 1q-2 0 -3 -1zM84 94q0 -4 3.5 -6.5t7.5 -4t9 -2.5t8 -1h2h3q1 1 2 3t1.5 4t0.5 4.5v3.5v3t-3 3h-3.5t-5.5 0.5t-5.5 0.5h-3.5h-1h-4.5t-5 -1t-4 -2.5t-1.5 -4.5zM131 99v-19l3.5 -0.5t5.5 -0.5h2h8.5t8.5 2t7 5t3 8q0 2 -1.5 3.5t-3.5 1.5h-33z" />
</svg>
