<?xml version="1.0" standalone="no"?>
<!DOCTYPE svg PUBLIC "-//W3C//DTD SVG 1.1//EN" "http://www.w3.org/Graphics/SVG/1.1/DTD/svg11.dtd" >
<svg xmlns="http://www.w3.org/2000/svg" xmlns:xlink="http://www.w3.org/1999/xlink" version="1.1" viewBox="-10 0 266 256">
   <path fill="currentColor"
d="M178 169v8v9.5t0.5 8t0.5 4.5l18 45q1 4 3 5.5t6 1.5q2 0 3 -1t1 -4t-1.5 -6t-3.5 -6l-4 -6t-3 -6t-3 -7.5t-3 -7.5q-2 -8 -3 -17.5t-1 -17.5q0 -10 2.5 -18.5l5 -17t5 -17.5t2.5 -18q0 -17 -17 -17q-3 0 -6 1l-6 2l-6 2t-5 1h-1l-0.5 -0.5l-0.5 -0.5q0 -1 -0.5 -4
t-0.5 -6.5t-0.5 -6.5t-0.5 -4v-3q0 -9 5 -15.5t11 -12.5v-2v-1q0 -3 -0.5 -5t-3.5 -2q-4 0 -8 5t-7 12t-5.5 13.5t-2.5 9.5v1q0 1 0.5 4.5l1 7l1 7l0.5 3.5q0 1 0.5 1.5t0.5 1.5q0 3 -2 5t-4.5 4t-4 3.5t-0.5 3.5q0 1 1 2t2 1v0h1q1 0 2.5 -0.5t2.5 -0.5h1v0q1 0 1.5 0.5
l0.5 0.5v35q-4 7 -4.5 15t-1.5 17q-3 15 -11.5 30t-18.5 26v3q0 2 0.5 3.5t3.5 1.5t8 -6.5t9.5 -15t8 -16.5t4.5 -12q4 -10 6.5 -21.5t3.5 -24t2 -24.5t1 -22q1 -2 4.5 -3.5t7 -2t6.5 -0.5h6q3 0 4 2.5t1 5.5q0 2 -1.5 6.5t-2.5 9l-2 9t-1 6.5l-4 10t-3 9q0 1 -0.5 3.5
t-0.5 5v4.5v3zM89 242q0 2 0.5 4t3.5 2l3 -0.5t3 -1.5v-57q0 -3 2.5 -3.5t4.5 -0.5q1 -1 4 -1t6.5 -0.5t6 -0.5h3.5t3.5 -1.5t1.5 -2.5q0 -1 -2 -3t-3 -2v0h-1h-3.5t-5.5 0.5t-6 0.5h-4h-2q-3 0 -4 -1.5t-1 -3v-4.5v-4q0 -4 4 -6t9 -4t10 -5t6 -8l0.5 -3t1 -5.5t1 -5.5
l0.5 -3q0 -1 1 -3.5l1 -2.5q0 -11 -2.5 -18t-10.5 -14q-1 -1 -4.5 -2t-7.5 -2.5t-6.5 -2.5l-2.5 -1v-23q0 -2 2 -2h5h8t7.5 -0.5t6 -2t2.5 -4.5v-1l-2 -2t-2 -1h-24l-3 -3v-22q0 -2 -3 -2h-3q-3 0 -5 2.5t-2 5.5q0 4 1 7.5t1 6.5v4.5t-2 3.5h-14t-14 2l-1.5 0.5t-2.5 1.5
l-2 2t0 2q2 5 6 5q5 0 10 -2t10 -2q1 0 5 0.5t5 0.5v3t0.5 5t0.5 5.5v3.5v3q0 3 -3.5 5t-8 4t-9.5 5t-8 8q-1 1 -2 2.5t-1 2.5q-2 7 -3 12t-1 10q0 9 3 14.5t8 9t11.5 6t13.5 3.5q1 0 1.5 0.5l0.5 0.5v0.5v0.5v0.5v0.5q0 2 -0.5 6.5t-1 7.5l-0.5 3l-1 2l-34 3q-3 0 -4 2
t-1 4q0 3 2 3.5t4 0.5q8 0 16 -2.5t16 -2.5h3t1 3v3.5v5.5v6v4q0 9 -1 17.5t-1 17.5zM115 121q3 0 4 2t1 5q0 4 -2 7t-4.5 5.5t-6.5 4t-7 1.5v-21q0 -2 2 -2.5t4.5 -1t4.5 -0.5h4zM67 131q0 -3 1.5 -4.5t4 -2.5t5 -1h4.5q6 0 6.5 3.5t0.5 8.5q0 4 -1 6.5t-5 2.5
q-3 0 -5.5 -1t-5 -3t-4 -4.5t-1.5 -4.5zM66 109q0 -4 1.5 -7.5t4.5 -6.5t6.5 -4.5t7.5 -1.5q2 0 2.5 1.5t0.5 4v4.5v1v7q0 3 -1 5q-5 2 -8 2h-7h-6l-0.5 -2t-0.5 -3zM99 96v-6q1 -1 2 -1h2q4 0 7.5 1.5t6 4.5t4 6.5t1.5 6.5v1q0 1 -0.5 2t-1.5 1h-20v-1t-0.5 -3t-0.5 -4v-3
v-5z" />
</svg>
