<?xml version="1.0" standalone="no"?>
<!DOCTYPE svg PUBLIC "-//W3C//DTD SVG 1.1//EN" "http://www.w3.org/Graphics/SVG/1.1/DTD/svg11.dtd" >
<svg xmlns="http://www.w3.org/2000/svg" xmlns:xlink="http://www.w3.org/1999/xlink" version="1.1" viewBox="-10 0 266 256">
   <path fill="currentColor"
d="M80 244q0 2 1.5 3.5t3.5 1.5q3 0 4.5 -1.5t2 -4l1 -5t0.5 -4.5v-75h29q3 0 3.5 -2t0.5 -4l-0.5 -1l-0.5 -1q-3 -1 -7 -1.5t-8.5 -0.5h-8h-7.5l-1 -1v-12q0 -1 2.5 -3t6.5 -4t7.5 -4.5t4.5 -4.5q3 -5 3.5 -10t0.5 -11q0 -9 -2 -14.5t-5 -9t-6 -5.5l-6 -4t-4.5 -6t-1.5 -11
q0 -4 2 -6t4.5 -3t6.5 -1h7q1 -1 1 -2v-2v-3t-1 -2h-17q-2 0 -2 -3v-6t-1 -5.5t-4 -2.5q-2 1 -3 4t-2 6.5t-1.5 6t-1.5 2.5h-31q-1 0 -1 2v2q0 5 3.5 6t6.5 1q5 0 9 -1t9 -1q4 0 6 1.5t2 5.5q0 5 -0.5 10t-3.5 9q-3 0 -8.5 1.5t-10 4t-7.5 6.5t-3 10v24q0 5 3.5 8.5t8.5 6
t9.5 4l7.5 2.5q1 0 1.5 1t0.5 2.5v2.5v1q0 7 -3.5 8.5t-9.5 1.5h-4.5h-7.5h-7.5h-4.5t-2.5 1.5l-1.5 1.5v1v1q1 2 2.5 3.5t3.5 1.5q9 0 18 -0.5t18 -0.5q0 6 -0.5 12.5t-2.5 12.5q1 9 0.5 16l-1 14t-0.5 14v15zM178 236q0 4 0.5 6t3.5 2t4.5 -1t2.5 -4v-23v-22v-9.5
t-0.5 -14.5t-1 -17t-0.5 -17.5t-0.5 -14.5t-0.5 -10q-2 -4 -4 -6.5t-4 -4.5t-3.5 -5t-1.5 -8q0 -4 0.5 -8.5t4.5 -6.5q11 0 16.5 5.5t7.5 14.5t1.5 19.5t-1.5 18.5q1 3 2 4.5t4 1.5t4 -2t1.5 -4.5t0.5 -5.5v-5q0 -11 -1.5 -21.5t-5.5 -19t-12 -13.5t-21 -5q0 -1 -0.5 -2
t-0.5 -2v0q0 -8 4 -11.5t10.5 -5t13 -1t11.5 0.5l1.5 -1.5t0.5 -1.5q0 -3 -2.5 -4.5t-4.5 -1.5q-8 0 -15.5 1t-16.5 1t-19 -1t-20 -1h-1q0 1 -1.5 1t-3.5 0.5t-3.5 1t-1.5 2.5v1q1 0 2.5 2l1.5 2h32l4 3v17q0 2 -2.5 3t-5.5 1.5l-6 1t-4 1.5q-8 5 -12 13.5t-5 18t-0.5 19.5
t0.5 18q6 0 7 -7l5 -44q0 -3 2 -5.5t4.5 -4t5 -2.5t5.5 -1q2 0 3.5 1t2 3t0.5 4v5q0 9 -2 12t-5 4t-5.5 3t-4.5 7q-2 7 -1.5 16t0.5 15q-1 2 -1 7.5t-0.5 12t-1 11.5t-0.5 7v5l-1 55q1 0 1.5 0.5t1.5 0.5q2 0 3 -0.5l3 -1.5q2 -16 1.5 -32t-0.5 -32t1 -32t4 -32q2 -2 4 -2.5
t5 -0.5q4 0 6 1t5 4q1 19 1 36v36v8v12.5v11.5v8q-1 3 -1 5.5v5.5zM62 108q0 -1 0.5 -3l0.5 -2q1 -1 3 -1.5t4.5 -1t4.5 -1t3 -0.5h2h1q0 1 0.5 3.5l1 5t0.5 4.5v3t-0.5 4t-1.5 4h-2q-3 0 -6 -1t-5.5 -3t-4 -4.5t-1.5 -6.5zM91 117v-3t0.5 -4t0.5 -3.5t1 -1.5q0 -1 1 -2.5
t2 -1.5h12v14q0 2 -1.5 3t-3.5 2t-4 1.5t-3 0.5q-3 0 -4 -0.5t-1 -4.5zM77 75q5 0 6.5 4.5t1.5 8.5q0 1 -0.5 3t-1.5 2h-21q0 -4 1 -7t3.5 -5.5t5 -4t5.5 -1.5zM93 86v-4v-3.5t1 -2.5t4 -1q4 0 7 4t3 8q0 5 -2.5 5.5t-6.5 0.5q-5 0 -5.5 -1t-0.5 -6z" />
</svg>
