<?xml version="1.0" standalone="no"?>
<!DOCTYPE svg PUBLIC "-//W3C//DTD SVG 1.1//EN" "http://www.w3.org/Graphics/SVG/1.1/DTD/svg11.dtd" >
<svg xmlns="http://www.w3.org/2000/svg" xmlns:xlink="http://www.w3.org/1999/xlink" version="1.1" viewBox="-10 0 266 256">
   <path fill="currentColor"
d="M77 223v24l1 1.5t2 2.5h1q3 0 5 -4t3 -9t1 -10v-7q0 -10 -1.5 -19t-1.5 -18v-5v-5q1 -3 5 -3h8.5t8 -0.5t3.5 -4.5v-1q0 -1 -1.5 -2.5l-1.5 -1.5h-22v-15q0 -1 0.5 -2t1.5 -1q9 -3 14.5 -6.5t8 -9t3.5 -13t1 -19.5v-3v-4t-0.5 -4t-0.5 -3l-0.5 -1l-0.5 -1q-1 -1 -3.5 -3
t-3.5 -3q-1 0 -3.5 -1t-5.5 -2t-5.5 -1.5t-2.5 -1.5v-21h21l1 -1.5t2 -2.5v-0.5v-0.5v-0.5v-0.5q-1 0 -2 -2l-1 -2q-1 0 -3.5 -0.5t-5 -0.5t-4.5 -0.5t-3 -0.5q-3 0 -3.5 -2.5t-1.5 -5.5t-2 -5t-5 -2q-2 0 -3.5 2.5t-2 6t-1 6t-1.5 2.5h-25q-2 0 -2 2v3q0 4 2 5.5t6 1.5
q5 0 10.5 -0.5t11.5 -0.5v20l-1 2q-6 1 -11.5 1t-10 2t-6.5 6t-2 12v3v8t0.5 12.5t0.5 12v8.5q2 3 6 5t8 3t8 1h7q1 3 1 5v4q0 3 -0.5 5t-2.5 4q-1 0 -4 0.5t-6.5 0.5t-7 0.5t-4.5 0.5q-4 0 -7 2t-3 7q0 2 1 2t2 0.5t1.5 0.5h1.5q6 0 11.5 -1.5t11.5 -1.5h2q3 0 3 2v45l1 3z
M131 233q2 3 5.5 5.5t7.5 4.5t8 3t6 1q8 0 16.5 -1.5t16 -5.5t12.5 -10.5t5 -17.5q0 -4 0.5 -11.5t0.5 -16t0.5 -16.5t0.5 -11q1 -7 -1 -11.5t-6 -6.5t-8 -2.5l-8 -1t-6.5 -2t-2.5 -4.5q0 -6 2 -9.5t5 -5.5t7 -2.5t7 -1.5t5.5 -2t3.5 -3q-4 -7 -11 -7q-4 0 -8 1t-8.5 2l-9 2
t-8.5 2h-7h-10h-10h-7l-3 3l3 4h17q2 0 3.5 3t2.5 6.5t1.5 7t0.5 5.5q-5 0 -10 1.5t-9.5 4.5t-7.5 7.5t-3 12.5q0 18 1.5 37t5.5 36zM142 226q0 -3 2 -4t3 -3l16 -15h5q0 1 1.5 2t3 3t3 3t2.5 2q1 0 2.5 2t3.5 3.5t3 3.5t1 3q0 4 -3 6t-7.5 2.5t-8.5 0.5h-5h-2h-4h-3h-2
q-3 -1 -7 -3.5t-4 -5.5zM167 192q-5 0 -8.5 3.5t-6 7.5t-6 7.5t-8.5 3.5q-2 0 -2.5 -2l-1 -4t-0.5 -4v-4q0 -3 2 -6t5 -6.5t6 -6.5t4 -5q2 -3 3.5 -7t2.5 -8l2 -8t2 -7q0 -2 1 -2.5t2 -0.5h2h1q2 0 4.5 0.5t3.5 3.5q1 9 2 15t3.5 11t6.5 8.5t11 8.5q0 1 1 5t1 5l-0.5 3l-1 6
t-1.5 5.5t-2 2.5h-2l-22 -25h-1h-3zM134 179q0 -2 0.5 -8.5t2 -13t4.5 -11t8 -3.5q2 1 2 3.5v3.5q0 3 -1 8.5t-3 11t-4.5 9.5t-6.5 4q-2 0 -2 -1.5v-2.5zM183 150q0 -3 1.5 -4t4.5 -1q4 0 6 2.5t3 5.5t1.5 7t0.5 7v3q0 1 -0.5 2.5t-1 2.5t-1.5 1q-3 0 -5.5 -2.5t-4.5 -7
t-3 -9t-1 -7.5zM56 116q0 -3 2 -5t4.5 -3t5 -1.5t4.5 -0.5q1 0 3 1t2 3v26q-8 0 -14.5 -4.5t-6.5 -15.5zM91 108h4q3 0 5 1t3 2.5t1 4.5q0 7 -2.5 12.5t-8.5 5.5h-1h-2t-2 -0.5t-1 -1.5v-22q0 -2 1.5 -2h2.5zM161 128q0 -5 1.5 -9t6.5 -4v20q-3 0 -5.5 -1.5t-2.5 -5.5z
M56 91q0 -3 2 -5t4.5 -3t5.5 -1.5t5 -0.5q1 0 2 1t1.5 3t1 3.5t0.5 3.5v3q-4 1 -7.5 1.5t-7.5 0.5t-5.5 -0.5t-1.5 -5.5zM87 88q0 -5 1.5 -7t5.5 -2t6 1.5t3 4t1 6v6.5h-15q-1 0 -1.5 -1l-0.5 -1v-3v-4zM121 85q0 1 0.5 1.5t1.5 0.5h2h1h3t2 -1l2 -2l3 -3q5 -5 8 -10.5
t4.5 -11.5t2 -12.5t0.5 -14.5v-9q-1 -3 -2.5 -4t-3.5 -1l-1 0.5l-1 0.5v9t-0.5 10l-1 10t-2.5 9q-1 4 -4 8l-6 8t-5.5 7.5t-2.5 4.5zM173 22q0 9 1 19t4.5 19t10 15t15.5 6q2 0 4 -1t2 -4q0 -1 -2 -3.5t-5.5 -5t-7 -7t-6 -11t-4 -15t-0.5 -20.5l-1.5 -1.5t-1.5 -0.5
q-4 0 -6.5 3t-2.5 7z" />
</svg>
