<?xml version="1.0" standalone="no"?>
<!DOCTYPE svg PUBLIC "-//W3C//DTD SVG 1.1//EN" "http://www.w3.org/Graphics/SVG/1.1/DTD/svg11.dtd" >
<svg xmlns="http://www.w3.org/2000/svg" xmlns:xlink="http://www.w3.org/1999/xlink" version="1.1" viewBox="-10 0 266 256">
   <path fill="currentColor"
d="M74 245v3t1 3q1 0 2.5 0.5l1.5 0.5q5 0 6.5 -2.5t1.5 -8.5v-1q0 -2 -0.5 -7t-0.5 -11v-13.5t-0.5 -14t-0.5 -11.5v-6v-2v-2q0 -4 3 -5t6.5 -1t6.5 -0.5t3 -3.5t-2 -4.5t-5 -2t-6 0t-4 0.5l-2 -2v-11q0 -1 1 -1.5t2 -0.5q6 -2 9.5 -6t5.5 -8.5t2.5 -10.5t0.5 -12v-14
q-2 -8 -6 -11.5t-8.5 -5t-8 -3.5t-3.5 -8q0 -4 1.5 -6t4.5 -3t6 -1h7q3 -1 3.5 -2.5t0.5 -3.5q0 -1 -0.5 -2.5t-1.5 -1.5h-21v-25q0 -3 -2.5 -3.5t-3.5 -0.5h-3t-2 2v25l-2 3h-2h-4h-4h-2q-1 0 -3 0.5t-3.5 1t-2.5 1.5t-1 3v1q0 1 1.5 2l1.5 1h21l0.5 1.5l0.5 1.5q1 1 1 3
t0.5 3.5t0.5 2.5v1q0 3 -3.5 5t-7.5 4t-8.5 6t-5.5 10v3t-0.5 4t-0.5 4v3q0 9 0.5 15.5t3 11t8 7t14.5 4.5q2 1 2.5 4t0.5 5v2.5t-1 1.5l-31 3v9l2 0.5t3 0.5h1h1l3 -0.5t5.5 -1t5.5 -1l3 -0.5h2q2 0 3.5 1t2.5 2v17q0 14 -0.5 28.5t-0.5 29.5zM126 246q0 4 1.5 4.5t4.5 0.5
q4 0 7.5 -8t6 -21.5t5 -28.5t4 -29.5t2 -25t0.5 -13.5v-3v-4v-4v-3q-1 -4 -4 -6.5t-7 -4.5t-7.5 -3.5t-5.5 -2.5q0 -2 -1.5 -4.5l-3 -5t-2.5 -5t-1 -3.5q0 -3 2 -5l4 -4h1h1q2 2 2.5 4.5t3.5 2.5h47q2 0 3.5 -2t2.5 -3h1h1l9 8q1 0 1.5 0.5l0.5 0.5q2 0 4 -1.5t2 -3.5
q0 -3 -3 -7t-7 -9t-8 -9t-6 -5q-1 -1 -4.5 -4t-8 -6t-8 -6t-4.5 -4h-2h-2h-2q-1 0 -2 1q-9 14 -20 27t-22 25v1v1q0 2 0.5 2.5l0.5 0.5q1 0 2.5 0.5t2.5 1.5q2 1 2.5 3t1 5t1 5.5t2.5 4.5q4 3 8.5 4.5t8.5 3.5t6.5 5t2.5 10v6q0 5 -0.5 9.5t-2 8.5t-4.5 4h-4t-6 -0.5
t-5.5 -1.5t-2.5 -2q0 -4 2.5 -5.5t5.5 -2.5t6 -2.5t3 -4.5t-1 -3.5t-3 -0.5t-3.5 0.5t-2.5 -0.5q-1 0 -1.5 -2.5t-1 -4.5t-2 -4t-3.5 -1q-1 1 -3 2.5t-2 2.5v32l-0.5 1.5l-1 3l-1 3t-0.5 2.5q-1 1 -1.5 4.5t-1 8t-1.5 8.5t-1 5t-1 3t-2.5 4l-3 4t-1.5 3l-1.5 2.5t-1.5 3.5v1
q0 2 2.5 2.5t3.5 0.5t2 -0.5t2 -0.5q2 -4 4 -8.5t3 -9.5q3 -6 6 -7.5t6 -1.5h5t1 -4q0 -3 -2 -4.5l-4 -3t-3.5 -3t-1.5 -3.5q0 -6 3 -7t8 -1q4 0 7 1t3 6q0 20 -5.5 39t-14.5 37v2v1zM169 165q0 17 3 31t9 29q1 2 1.5 6t2 8t3.5 6.5t6 2.5q3 0 4.5 -3t1.5 -5
q-6 -11 -10.5 -21t-7 -19.5t-3.5 -20t-1 -22.5q0 -16 4 -31t7 -30v-1.5v-2.5q0 -3 -0.5 -5.5t-3.5 -2.5t-5.5 5t-4 13.5t-3 18.5t-2 19t-1 16t-0.5 9zM190 172q1 3 3 10.5t4 15.5t5 14t7 6q3 0 4.5 -2t1.5 -5t-1.5 -6t-3 -6.5t-3 -6t-2.5 -5.5q-1 -2 -1.5 -5t-1.5 -7
t-1.5 -7t-0.5 -4v-2v-3v-4v-4v-3v-5v-4v-2l0.5 -2.5t1.5 -4.5q1 -4 3.5 -9.5t2.5 -10.5q0 -3 -1 -4.5t-4 -1.5q-2 0 -3 1t-2 3t-1.5 4t-1.5 4q0 2 -1 6.5t-1.5 8.5t-1.5 7t-1 4v2v4.5v4.5v4v3v4.5v4.5v3zM56 117v-3t2 -2h14v22q-7 0 -11.5 -5t-4.5 -12zM90 109q3 0 4.5 0.5
t1.5 4.5q0 1 -0.5 4t-1.5 6.5t-3 6t-4 1.5q-2 0 -3.5 -2t-1.5 -3v-16q0 -1 1 -1.5t2 -0.5h2h3zM58 96q0 -2 0.5 -4.5t2 -4.5t3.5 -3.5t4 -1.5q1 0 2 1.5t1.5 3t0.5 3.5v3q0 5 -2 6.5t-6 1.5h-2.5h-2.5q-1 -2 -1 -3v-2zM81 91q0 -4 0.5 -6.5t5.5 -2.5q3 0 7 3.5t4 7.5t-4 6
t-7 2q-4 0 -5 -3.5t-1 -6.5zM138 63l-1 -1v-1q0 -3 2.5 -6t6 -6t7.5 -5.5t7 -2.5t7.5 2t9 5.5t7.5 7t3 6.5v1l-1 0.5t-2 0.5h-3h-4.5h-5.5h-3h-15t-15 -1z" />
</svg>
