<?xml version="1.0" standalone="no"?>
<!DOCTYPE svg PUBLIC "-//W3C//DTD SVG 1.1//EN" "http://www.w3.org/Graphics/SVG/1.1/DTD/svg11.dtd" >
<svg xmlns="http://www.w3.org/2000/svg" xmlns:xlink="http://www.w3.org/1999/xlink" version="1.1" viewBox="-10 0 266 256">
   <path fill="currentColor"
d="M80 244q1 2 2 3.5t4 1.5q2 0 3.5 -2t2 -4.5t0.5 -5.5v-4v-62q0 -2 4.5 -3t10 -1.5t9.5 -1.5t4 -3q0 -4 -3 -4.5t-6 -0.5t-6 1t-7 1q-2 0 -3.5 -0.5t-2.5 -3.5v-3v-3q0 -7 4 -10t8.5 -5t9 -5t5.5 -9q1 -7 1 -12.5v-12.5q0 -8 -1.5 -13t-5 -8.5t-8.5 -5.5t-13 -3v-23
q0 -2 2.5 -3t5.5 -1h7t7 -0.5t5.5 -2.5t2.5 -7h-29v-3t-0.5 -6.5t-1.5 -6t-4 -2.5l-0.5 0.5l-1.5 1.5q-1 2 -1.5 5t-1.5 6t-2.5 5.5t-4.5 2.5h-22l-1.5 1.5t-1.5 2.5t0.5 2t2 2t3 1h2.5q5 0 9.5 -1t9.5 -1q2 0 3.5 0.5t1.5 3.5v23l-2 1.5t-3 1.5q-5 2 -8 3t-5.5 1.5t-4.5 2
t-6 5.5q0 5 -0.5 9t-0.5 7.5t-0.5 7t-0.5 7.5q0 2 0.5 5t1.5 6.5t2 6t3 3.5l21 7l3 4v2v3q0 7 -2.5 10t-6.5 3.5t-9 -0.5t-9 -0.5t-6.5 2.5t-2.5 9q9 0 17.5 -1t18.5 -1q0 14 -1 28t-1 28v3v6v5v4zM134 158v17t2 13.5t7.5 8.5t15.5 3h10t14 -1t13 -3t8 -5q5 -11 6 -23.5
t1 -23.5q-2 -6 -5 -9.5t-7.5 -6t-9.5 -3t-11 -0.5h-6q0 2 -2 2h-4h-2q-1 0 -4 0.5l-6 1l-6 1t-4 0.5q-3 2 -5.5 4t-4.5 5v4v5v6v4zM144 172v-3t1 -3q5 -2 8 -2h7h2h2q1 1 1.5 3t0.5 3.5v3v2.5v9q-1 3 -3.5 3.5t-4.5 0.5q-3 0 -5.5 -1.5t-4.5 -4t-3 -5.5t-1 -6zM176 176
q0 -4 0.5 -7t2 -4.5t5 -2t8.5 -0.5q4 0 5.5 0.5t1.5 5.5q0 1 -0.5 4.5t-1.5 7t-2.5 6.5t-3.5 3h-12q-2 0 -2.5 -2t-0.5 -4v-4v-3zM144 155v-3v-2q0 -7 3.5 -10t9.5 -3h3.5h3.5q1 2 2 5t1 4q0 6 -3.5 8.5t-8.5 2.5h-5.5t-5.5 -2zM176 148q0 -4 0.5 -8t4.5 -6q7 -1 12.5 1.5
t5.5 10.5q0 7 -3 8t-9 1h-8q-3 -1 -3 -3v-4zM62 112q0 -3 1.5 -4.5t3.5 -2.5t4.5 -1h5.5t5 1t2 5v5t-0.5 6t-2 5t-4.5 2t-5.5 -1t-4.5 -3.5t-3.5 -5.5t-1.5 -6zM92 127v-5v-4q0 -6 0.5 -9.5t2.5 -4.5t6 -1h10q0 4 -0.5 8.5t-2.5 8t-5 6t-9 2.5h-1l-0.5 -0.5zM139 86
q0 2 1.5 5.5t4 6l5 5t4.5 2.5q1 0 3 0.5t4.5 0.5h4.5h3h9.5t8.5 -1t8 -2.5t9 -4.5q3 -1 4 -5t1 -7q0 -7 -2.5 -12t-7 -7.5t-10 -4t-11.5 -1.5q-5 0 -12 0.5t-13.5 3t-10.5 7.5t-3 14zM150 84q0 -6 3 -8.5t7.5 -4t9 -1.5h7.5q4 0 7.5 0.5t6.5 2.5t5 4.5t2 6.5t-3 7t-7 4.5
t-8.5 2t-7.5 0.5h-8t-7 -1.5t-5 -4.5t-2 -8zM62 91q0 -3 1.5 -5.5t4 -4.5t5.5 -3t6 -1h0.5h0.5q2 3 2 5.5v5.5q0 2 -0.5 4t-2.5 3l-14 2q-2 0 -2.5 -2t-0.5 -4zM90 85q0 -2 1 -4.5t2 -3.5h3.5h3.5q5 0 8.5 3t3.5 9v4t-2 2h-18l-0.5 -1.5l-1 -3t-0.5 -3v-2.5zM137 35v1
q0 1 1 1.5l1 0.5h12h11q3 0 9 -0.5t12.5 -0.5t12.5 -0.5t8 -0.5t3 -0.5t1.5 -1.5t0.5 -2.5v-2.5h-13q-3 0 -11.5 0.5t-17.5 1t-17 0.5h-11l-2 4v0z" />
</svg>
