<?xml version="1.0" standalone="no"?>
<!DOCTYPE svg PUBLIC "-//W3C//DTD SVG 1.1//EN" "http://www.w3.org/Graphics/SVG/1.1/DTD/svg11.dtd" >
<svg xmlns="http://www.w3.org/2000/svg" xmlns:xlink="http://www.w3.org/1999/xlink" version="1.1" viewBox="-10 0 266 256">
   <path fill="currentColor"
d="M191 245q0 1 1.5 3t2.5 2h1l1 -1.5t2 -1.5v-2.5v-3.5v-3.5v-2.5q0 -12 -1.5 -23.5t-1.5 -23.5q0 -3 1.5 -6t3 -5.5t3 -6t1.5 -7.5q0 -5 -0.5 -8t-2.5 -5t-5 -4t-8 -4q-2 -1 -2.5 -2t-1 -1h-1.5h-3q-1 0 -3 -0.5t-2 1.5t2 2t4 2q6 4 10 8.5t4 12.5v1l-0.5 1.5l-1 3t-1 2.5
t-1.5 1q-2 0 -3.5 -2t-3 -4.5t-4 -4.5t-6.5 -2h-2q-2 0 -2 2l3.5 3.5t5.5 4.5t4.5 5t1.5 6h-19q-1 0 -2 -2.5t-1 -3.5q0 -2 0.5 -3.5t1.5 -3.5v-40q0 -2 3 -2.5t7.5 -0.5h9.5h9t7 -1t3 -3q0 -3 -2.5 -3.5t-4.5 -0.5q-8 0 -16.5 1.5t-16.5 1.5q-2 0 -2 -1.5v-3.5q0 -5 2 -7
t6 -3.5t8 -2.5t7.5 -2.5t6 -5.5t2.5 -11q0 -1 -0.5 -3.5l-0.5 -2.5q0 -2 -1 -2h-2q-3 0 -3.5 3.5t-2.5 8.5t-6 8.5t-12 3.5q-3 0 -3.5 -3t-0.5 -5q0 -3 1.5 -4.5l3 -3t4 -3t4.5 -2.5l2 -18l2 -1q1 0 4 -0.5t6.5 -0.5t6 -0.5t3.5 -0.5q2 0 5 -0.5t3 -4.5l-0.5 -1.5l-0.5 -1.5
h-21l-0.5 -1.5l-0.5 -1.5v-1q0 -2 1 -3.5t2 -3.5l2 -4t1 -4t-1 -3t-3 -1t-4 4t-3.5 8.5t-3 8.5t-2.5 4q-4 0 -4.5 -3t-0.5 -5q0 -6 1 -11.5t1 -11.5q0 -3 -0.5 -6.5t-3.5 -3.5q-2 0 -3.5 0.5t-1.5 3.5v35q0 3 -2.5 3.5t-4.5 0.5q-3 0 -4.5 -1.5t-1.5 -5.5v-31l-1.5 -1
t-1.5 -2h-1h-1l-1 0.5t-2 1.5v5q0 8 1 16t1 16q0 2 -1.5 2.5t-2.5 0.5h-1q-1 0 -2 -1.5l-1 -1.5q0 -1 -0.5 -3t-0.5 -4.5t-0.5 -4.5t-0.5 -3q0 -2 -1.5 -5t-4.5 -3q-2 0 -2.5 2t-0.5 4q0 4 1.5 7t1.5 8v3t-2 3h-12l-0.5 1t-1.5 1v1v1q1 0 1.5 0.5l0.5 0.5h19q3 1 4.5 3
t2.5 5t1.5 6t2.5 6q2 2 4 3l4 2t3 3t1 6q0 2 -0.5 4.5t-3.5 2.5q-7 0 -11 -4t-6.5 -8.5t-4 -8t-4.5 -3.5l-0.5 0.5l-0.5 0.5v6q0 6 2.5 10.5t6.5 7.5t9 4t12 1q2 1 2.5 2.5t0.5 4.5q0 5 -2.5 5.5t-7.5 0.5h-4t-6.5 0.5t-6.5 1t-5 0.5q-3 -1 -3 3q0 2 1.5 2.5t3.5 0.5h1h1
q1 0 3.5 -0.5t6 -0.5h6.5h4l1 -0.5l1 -0.5q3 0 6 4q-1 28 0.5 56t0.5 57q1 1 2 1h2q2 0 3.5 -3t2 -7t0.5 -8v-5q0 -7 -2 -13t-2 -12q0 -2 1 -3.5t2 -3.5h3t4.5 -0.5t4.5 -0.5h3h2h1t1 1q1 6 2 13l2 14t1 14.5v13.5zM123 184q0 15 -2 30.5t-2 31.5q3 0 5 -1t3 -5
q0 -11 0.5 -23t1.5 -23q0 -2 0.5 -3t2.5 -2h1.5h3.5h3.5h2.5t3.5 -1t2.5 -3v-1q-1 -1 -1.5 -2l-0.5 -1h-12l-0.5 -0.5l-1.5 -1.5v-1v-1l14 -16v-3q-3 0 -5 1.5t-4.5 4t-5 4.5t-5.5 2q-2 0 -2.5 -2t-0.5 -4q0 -3 1.5 -6.5t4 -6l5.5 -5.5t5 -4v-1v-1v-1.5t-2 -1.5
q-3 0 -6.5 2.5t-6.5 6t-5 7.5t-2 7q0 7 2.5 12.5t2.5 11.5zM76 235v3t1 2q2 1 5 -1.5t3 -4.5v-65l2 -3h5t6.5 -0.5t6.5 -1.5t5 -3l-1 -3h-18q-2 0 -3 -1.5t-2 -3.5t-1 -4v-3v-6q1 -3 5 -4.5t8.5 -3t8 -5t3.5 -9.5v-36q0 -3 -2.5 -6t-6 -5.5t-7.5 -4t-6 -1.5v-24h23
q0 -1 -1.5 -3.5t-2.5 -2.5h-19v-17q0 -2 -2 -2h-3h-2t-2 2v18h-24l-3 3q1 1 2.5 2t2.5 1h19l3 3v20l-0.5 0.5t-1.5 0.5q-8 4 -13 7t-7 6.5t-2.5 9t-0.5 15.5v3v3v3.5v1.5l0.5 1.5t1.5 3.5t1.5 4t1.5 4q1 4 3.5 6t4.5 2.5t3.5 0.5t3.5 1.5t2.5 5t0.5 10.5v2.5t-1 1.5l-25 3
q-2 1 -2 2v2q0 2 1 2.5t4 0.5q5 0 9.5 -1t9.5 -1h2.5t1.5 2v20q0 12 -0.5 23.5t-0.5 23.5zM63 110v0q0 -1 1 -2l1 -1h11q1 0 1.5 1l1 2t0.5 2.5v2.5v4.5v5t-1 4.5t-2 2q-4 0 -6 -2.5t-3.5 -5.5t-2.5 -6.5t-1 -6.5zM86 118v-5q0 -3 1 -4.5t2.5 -2.5t3.5 -1q5 0 7 1.5t2 6.5
q0 6 -3 11t-9 5q-2 0 -3 -1.5t-1 -3.5v-3.5v-2.5zM63 95q0 -3 1 -6.5t2.5 -6.5t3.5 -5.5t6 -2.5l1.5 0.5t1.5 1.5v21l-2.5 0.5t-3.5 1.5h-2q-2 0 -5 -1t-3 -3zM90 73q2 -1 4 1t4 5t3 6t1 5v1.5v0.5q0 1 -0.5 3l-0.5 2h-14v-21q0 -1 1 -2t2 -1zM144 68q0 -4 1.5 -5.5t4 -2.5
t5.5 -0.5t6 0.5h8q2 0 2 3v3q0 13 -13 13q-5 0 -9.5 -2.5t-4.5 -8.5z" />
</svg>
