<?xml version="1.0" standalone="no"?>
<!DOCTYPE svg PUBLIC "-//W3C//DTD SVG 1.1//EN" "http://www.w3.org/Graphics/SVG/1.1/DTD/svg11.dtd" >
<svg xmlns="http://www.w3.org/2000/svg" xmlns:xlink="http://www.w3.org/1999/xlink" version="1.1" viewBox="-10 0 266 256">
   <path fill="currentColor"
d="M76 241q1 1 2.5 3t2.5 2q2 1 4 -1t3 -4v-3.5t0.5 -5.5t0.5 -5.5v-3.5q0 -3 0.5 -10t0.5 -15t0.5 -15t0.5 -10q1 -2 5 -3t8 -1t6.5 -1t2.5 -3v-1v-1q-1 0 -2.5 -0.5t-4 -0.5t-4 -0.5t-2.5 -0.5t-5.5 0.5t-5.5 0.5v-14q3 0 6 -1l6 -2t6 -3t4 -4t1.5 -5t1 -7t0.5 -7.5v-4.5
v-3.5v-5.5t-0.5 -5.5t-0.5 -4.5q-1 -4 -4.5 -6t-8 -3t-8 -1t-3.5 -2v-17l2.5 -1.5t3.5 -1.5t3 -0.5t4.5 -0.5t4.5 -0.5t3 -0.5t2 -2t1 -3t-0.5 -2t-1.5 -1h-21q0 -7 0.5 -13t0.5 -12q0 -3 -2 -6t-5 -3l-1 0.5t-2 0.5q0 1 -0.5 1.5l-0.5 0.5v32h-25q-1 0 -1.5 0.5t-0.5 1.5v1
v1q2 3 5 4.5t7 1.5t7.5 -0.5t5.5 -0.5l2 2v20q-7 0 -11 0.5t-6 2.5t-4 5l-6 9v3t-0.5 4t-0.5 4v3q0 9 1 15t4 9.5t8.5 5.5t14.5 4l0.5 1t0.5 2v1l-0.5 2t-1 3.5t-1.5 3t-2 1.5h-23q-1 0 -1.5 1t-0.5 2v3v4q6 0 12 -1t12 -1h4t2 3v2q0 3 -0.5 11t-1 17.5t-1 17.5t-0.5 12
l-1 2.5t-1 3.5zM121 208q0 9 1.5 15.5t5 11t9.5 6.5t15 2h8.5t12 -1t12.5 -3t9 -6q0 -1 1 -4t2 -6.5t1.5 -6t1.5 -4.5v-2v-3l-0.5 -3t-0.5 -6t-0.5 -6l-0.5 -3q0 -10 -1 -16t-4 -9t-9 -4.5t-16 -1.5q-15 0 -24 1.5t-14.5 7t-7 15.5t-1.5 26zM130 201v-4q0 -1 0.5 -4
t0.5 -6.5t0.5 -7t0.5 -4.5q2 -3 7 -5.5t8 -2.5h32q5 0 6.5 3l3.5 7v3v5.5v5.5v3q0 11 -0.5 19t-3.5 12.5t-10 7t-19 2.5q-8 0 -13 -2.5t-8 -7t-4 -10.5t-1 -14zM160 182h-4t-6 0.5t-6 2t-3 4.5v20q0 3 2 4.5t4 2t5 0.5h3h5t6 -0.5t6 -2t3 -4.5v-20q0 -3 -2 -4.5t-4.5 -2
t-4.5 -0.5h-4zM146 200q0 -4 1.5 -6t3.5 -3.5t5 -1.5h5q4 0 5.5 3t1.5 6t-1 5.5t-3 3.5h-6h-4t-4 -1t-3 -2.5t-1 -3.5zM114 152v0.5v0.5l1 0.5t1 1.5h1q5 0 10 -2.5t10 -4.5t10.5 -4.5t11.5 -2.5q8 0 15 2.5t15 6.5q3 1 5 3t6 2q2 0 5 -0.5t3 -3.5t-3.5 -5.5t-9 -3.5
t-11.5 -2.5t-11.5 -2.5t-9 -3t-3.5 -5v-5t0.5 -5.5t2 -4.5t3.5 -2h2h2q0 1 2.5 2.5t4.5 3l4 3t3 1.5l3 3t1 1.5t0.5 1t2.5 0.5t4.5 -1t2.5 -4q0 -5 -6 -8t-13 -5.5t-13 -5t-6 -5.5t2.5 -5.5t5.5 -4t6.5 -2t5.5 -0.5q3 0 4.5 1.5l3.5 3.5t4 3.5t4 1.5t3 -1t1 -4t-1.5 -5.5
t-4.5 -3.5l-6 -2t-5 -3h-1.5h-0.5q-3 0 -4.5 1t-3.5 2.5t-4 2.5t-4 1t-2.5 -1t-0.5 -2.5v-3.5v-2q0 -6 0.5 -11.5t1.5 -11.5q0 -1 1 -1.5l1 -0.5h1h1q1 0 3 0.5t2 1.5q1 0 4.5 2t7.5 4.5t7 4.5t5 2h1q5 0 5 -4v-1v-1q-1 -1 -3 -2.5t-4.5 -3l-5 -3t-3.5 -1.5q-1 -1 -3.5 -2.5
l-2.5 -1.5q-2 -1 -4.5 -1t-5 -0.5t-4.5 -1.5t-3 -4v-4t-0.5 -6t-1.5 -5t-4 -2h-1q-1 0 -2.5 1l-1.5 1v15q0 3 -5 5.5t-11.5 6.5t-12 8t-5.5 9h5l27 -18q0 -1 1.5 0.5t1.5 2.5v4q0 7 -0.5 13t-1.5 13q0 2 -1 2h-2q-2 0 -3 -1.5t-2 -3.5t-2 -3.5t-3 -1.5h-1q-1 0 -2.5 2
t-3.5 4t-4 3.5t-3 2.5t-2.5 3t-1.5 4t1 2.5t2 0.5h0.5h0.5l10 -10l1 -0.5t2 -0.5q5 0 9 4t4 9q0 3 -4 5t-8.5 4t-9 5t-5.5 8h1.5h1.5q3 0 6 -1.5t5.5 -3.5l5 -4t5.5 -2q1 0 2 0.5t1 1.5v9q0 7 -2.5 11t-7 6.5t-9.5 3.5t-9 2.5t-7 3t-3 4.5zM64 127q0 -6 3 -7t8 -1h3.5t2.5 2
v7q0 2 0.5 6t-1.5 5q-1 1 -2.5 1h-1.5q-5 0 -8.5 -4t-3.5 -9zM101 117q2 0 4 2t1 5q0 3 -1 5.5t-3 5t-4 4t-5 1.5q-1 0 -2.5 -0.5t-1.5 -1.5v-17q0 -1 1.5 -1.5t4 -1t4 -1t2.5 -0.5zM65 105q0 -6 5 -8t10 -2v17h-11q-3 0 -3.5 -2.5t-0.5 -4.5zM89 110v-13q0 -3 2.5 -3.5
t3.5 -0.5q5 0 7.5 3.5t2.5 7.5v1.5v3t-2 1.5h-14z" />
</svg>
