<?xml version="1.0" standalone="no"?>
<!DOCTYPE svg PUBLIC "-//W3C//DTD SVG 1.1//EN" "http://www.w3.org/Graphics/SVG/1.1/DTD/svg11.dtd" >
<svg xmlns="http://www.w3.org/2000/svg" xmlns:xlink="http://www.w3.org/1999/xlink" version="1.1" viewBox="-10 0 266 256">
   <path fill="currentColor"
d="M156 173q0 20 0.5 39.5t0.5 38.5q1 0 3.5 -0.5t2.5 -1.5l2 -10v-65q0 -2 5.5 -2.5t12 -1t12.5 -1.5t6 -4q0 -1 -1 -1.5l-2 -1t-3 -0.5h-1q-7 0 -12.5 1t-12.5 2l-6 -1v-15l3 -1q8 -4 12.5 -7t7 -7t3 -9.5t0.5 -15.5v-3q0 -4 -1 -5q1 -2 0 -2.5t-2 -0.5q-2 0 -2.5 3
t-1 7.5t-1 10t-2 10t-4 7.5t-7.5 3q-3 0 -4.5 -3.5t-2 -8t0 -9t0.5 -7.5t1 -5t2.5 -4t4 -4t4 -4t2 -7.5l1 -11t1 -9.5t3.5 -5l14 -3v-0.5v-0.5q0 -2 -0.5 -3t-2.5 -1q-8 0 -17 1.5t-18 2.5t-18 2.5t-18 1.5v3h3.5t5 0.5t5 0.5h3.5h1q0 7 0.5 12t1.5 10t4 9t8 8v3.5t0.5 5
t0.5 5v3.5v4v6v5.5v3.5q-1 0 -2.5 1l-1.5 1q-5 -3 -7.5 -7t-4.5 -9.5t-2.5 -10.5t-0.5 -9q-1 -2 -4 -2v8.5v9t1 9t3 8.5q0 1 3.5 2.5t7.5 3.5l7 3.5t3 3.5v12l-2 1q-1 1 -4.5 1t-7.5 1t-7 1t-5 1l-3.5 0.5t-3.5 2.5l1 1h32zM81 234l3 2h1q1 0 2 -2t1 -3q4 -17 8 -35t10 -35
q2 -3 4.5 -6.5t2.5 -7.5q-3 0 -6 1t-6 2.5l-5 2.5t-3 1h-25q-3 -2 -6 -2h-6q0 3 1.5 5.5l3 5l3 5t2.5 5.5l10 30t5 31zM72 165v-2.5t1 -1.5h27q-1 3 -2.5 9t-3.5 12.5t-4 12t-4 6.5l-4 -3l-1 -2t-2 -5l-2 -6t-2 -4q0 -1 -0.5 -3l-1 -4l-1 -4t-0.5 -3v-2zM57 97
q0 15 6.5 24.5t22.5 9.5h3h5.5t4.5 -0.5t3 -0.5l13 -14q1 -1 1.5 -5t0.5 -5q0 -4 -0.5 -6t-2.5 -5q-7 -2 -15.5 -4t-15.5 -2h-2t-2 2l3 3q2 0 5.5 0.5t7.5 1.5t7 2.5t4 4.5l0.5 2.5l0.5 2.5q0 8 -5.5 12.5t-13.5 4.5q-6 0 -10.5 -2.5t-7 -7t-3.5 -9.5t-1 -11q0 -9 3.5 -14
t9 -8t11.5 -4.5t11.5 -3.5t9 -6t3.5 -11q0 -6 -2.5 -9t-6.5 -5t-9 -2.5l-10 -1t-9.5 -1t-7.5 -3.5q-2 -1 -3.5 -3l-3 -4t-3 -3.5t-4.5 -1.5q0 9 4.5 14t11.5 7.5t14.5 3t14.5 1.5q3 1 3 3v4q0 6 -2 8.5t-6 4.5t-8.5 2.5t-9.5 2.5t-9 5.5t-7 9.5q0 1 -0.5 2t-1.5 2.5t-1.5 3
l-0.5 1.5v3.5v4.5zM148 92q-1 -7 -1 -11v-10v-6q6 0 12 -1.5t12 -1.5q0 5 -1 12.5t-1 11.5t-1 6t-3 2.5t-4.5 0.5h-6.5t-6 -3zM138 35q0 1 1.5 1.5t2.5 0.5h2q1 0 5 -0.5t8.5 -0.5h8h4.5h3q1 0 2.5 -0.5l3 -1t1.5 -1.5t-0.5 -2t-1.5 -1h-2q-2 0 -3.5 -0.5t-3.5 -0.5h-2h-8
q-3 0 -6 0.5t-6.5 1t-7.5 2.5l-0.5 0.5l-0.5 0.5v1z" />
</svg>
