<?xml version="1.0" standalone="no"?>
<!DOCTYPE svg PUBLIC "-//W3C//DTD SVG 1.1//EN" "http://www.w3.org/Graphics/SVG/1.1/DTD/svg11.dtd" >
<svg xmlns="http://www.w3.org/2000/svg" xmlns:xlink="http://www.w3.org/1999/xlink" version="1.1" viewBox="-10 0 266 256">
   <path fill="currentColor"
d="M159 248q-1 2 1 2.5t3 0.5h1h1l4 -9v-48l26 -3q1 0 2 -1.5l1 -1.5v-1q0 -2 -1.5 -3t-3.5 -1q-4 0 -9 1t-9 1q-2 0 -5 -0.5t-3 -2.5v-19q0 -2 2.5 -3t5 -1t5 -0.5t4.5 -1.5q4 -4 6 -10t3 -13t1 -13.5v-11.5q0 -4 -3.5 -5.5t-6.5 -1.5v30q-2 3 -2 6.5t-1 6.5t-3 5t-5 2
q-1 0 -2.5 -0.5l-1.5 -0.5q-1 -12 -1.5 -21t-0.5 -21v-5.5v-3.5l13 -13q1 0 1.5 -2.5t0.5 -3.5v-4v-7v-6v-5l2 -2h14l0.5 -1.5t0.5 -2.5l0.5 -0.5l0.5 -0.5q0 -3 -3 -3h-1h-1q-4 0 -12.5 1t-17 1.5t-15.5 1t-9 0.5h-2t-4.5 0.5t-4.5 1.5t-2 3t1.5 2.5t2.5 0.5h2h1
q1 0 2 -0.5t2 -0.5t2.5 -0.5l1.5 -0.5l1.5 1.5l1.5 1.5q-1 7 -1 12t1.5 9.5t4 8t8.5 7.5l1 1v21q0 6 0.5 14.5t-1.5 15.5q-1 1 -2 1t-1 1h-1q-3 0 -4.5 -2.5t-2.5 -4.5l-2 -39q0 -1 -2 -1h-3h-2.5t-1.5 2v1q0 2 0.5 7t1 10.5t1 10.5t0.5 7q0 1 1 4t2 3q1 2 3.5 4t5.5 4
t5.5 3.5l2.5 1.5v20l-0.5 0.5l-0.5 0.5q-6 1 -13.5 1.5t-12.5 -0.5q-2 0 -3 1t-1 2q0 2 1.5 3.5t3.5 1.5h25l0.5 1.5t0.5 2.5v1.5t-0.5 3t-0.5 3v1.5v3q0 2 -0.5 5.5t-0.5 6.5v5v5q0 2 0.5 5.5t0.5 6.5v4zM58 233q0 2 1.5 3.5t3.5 1.5v0q1 0 1 -1q1 0 2.5 -1l1.5 -1v-22
l1 -0.5t2.5 -1t3.5 -1t4 -0.5t6.5 -0.5t9.5 -2t8.5 -3.5t4.5 -6v-2v-5v-5v-2q0 -1 0.5 -2l0.5 -1q1 -1 3 -1t4 -0.5t3.5 -2t1.5 -3.5t-1 -3t-4 -1q-4 0 -9 1l-10 2t-10.5 2t-10.5 1t-6.5 -2t-1.5 -6q0 -7 3 -9.5t7.5 -3.5t10.5 -1q5 0 10 -1t8.5 -3.5t4.5 -8.5
q0 -1 0.5 -2.5t0.5 -4t0.5 -4t0.5 -2.5q1 -2 2.5 -2.5t2.5 -1t1.5 -1.5t0.5 -4q-10 0 -20 1.5t-20 1.5h-4h-3q-2 -1 -2.5 -2.5t-0.5 -2.5q0 -3 0.5 -6.5t4.5 -4.5q7 -2 14.5 -3t15.5 -1h4.5h5t4.5 -1t2 -3v-1l-1 -1.5t-2 -1.5h-20q-1 0 -1.5 -2.5t-0.5 -3.5q0 -5 2 -8
t4.5 -4.5t6.5 -2.5t8 -4q2 -6 2 -13.5t1 -13.5q0 -4 1.5 -7t1.5 -7q0 -3 -1 -3.5t-4 -0.5h-2t-2 1q0 4 -0.5 11t-1.5 14.5t-4 13.5t-8 6q-2 0 -3 -1.5t-1 -3.5q0 -11 2 -22t2 -22q0 -1 -0.5 -4.5l-0.5 -3.5q0 -1 -1 -1.5l-1 -0.5h-1h-1q-1 0 -2.5 0.5t-1.5 1.5
q-1 0 -1.5 0.5l-0.5 0.5v50q0 4 -0.5 5t-3.5 1q-7 0 -10 -5t-3.5 -12t0 -14t0.5 -10q-1 -3 -2 -3.5t-3 -0.5q-3 0 -4.5 2t-1.5 5q0 8 1.5 17t3.5 18q1 4 4.5 6t8 2.5t7.5 1t3 2.5v1.5v0.5v3t-0.5 4.5t-0.5 4.5v3q-5 2 -11 3t-11 1q-2 1 -3 2.5t-1 3.5q-2 24 -2 48v48
q-2 8 -1.5 15t-1.5 15v1zM68 201v-13q0 -1 2 -2t5 -2t5 -1.5t3 -0.5h3.5h5.5t5.5 -0.5t3.5 -0.5q0 8 -1.5 12t-4.5 6.5t-8 3t-13 0.5h-2t-2 -1zM97 128h4h2l2 1v2.5v2.5q0 6 -3.5 9.5t-8.5 5t-11 1.5h-11v-19q0 -1 4 -1.5t8.5 -1t8.5 -0.5h5zM151 66q0 -3 1.5 -4.5t3.5 -2
t4.5 -0.5h4.5h5q1 0 2 1.5l1 1.5v1q0 2 0.5 6t0 8.5t-2 8t-5.5 4.5h-1q-4 0 -7 -2.5t-4.5 -6t-2 -8t-0.5 -7.5zM140 31v2t1 1h6h5h8h10t9.5 -1t7 -2.5t2.5 -3.5t-1.5 -2.5t-3.5 -0.5h-4l-1 0.5t-2.5 1l-3 1l-1.5 0.5h-3.5t-5.5 0.5l-6 1t-4 0.5t-4 -0.5t-6 0t-3 2.5z" />
</svg>
