<?xml version="1.0" standalone="no"?>
<!DOCTYPE svg PUBLIC "-//W3C//DTD SVG 1.1//EN" "http://www.w3.org/Graphics/SVG/1.1/DTD/svg11.dtd" >
<svg xmlns="http://www.w3.org/2000/svg" xmlns:xlink="http://www.w3.org/1999/xlink" version="1.1" viewBox="-10 0 266 256">
   <path fill="currentColor"
d="M174 244q2 5 6 5t4.5 -2.5t0.5 -5.5q0 -8 -1 -16.5t-3.5 -17t-5 -16.5t-5.5 -16v-1q5 -4 8.5 -8t3.5 -10q0 -2 -2 -5.5t-5 -7t-6 -5.5t-6 -2q-1 0 -2.5 0.5t-1.5 2.5q0 3 2 5t4.5 4t4.5 4.5t2 5.5t-3.5 5.5t-6.5 2.5l-0.5 -0.5t-0.5 -1.5q-3 -5 -7 -10t-9.5 -8.5
t-11.5 -5.5t-12 -2q-3 0 -4 0.5t-1 3.5q0 2 6 5t13.5 6t13.5 6.5t6 8.5q0 2 -2 3.5t-5.5 2.5t-6.5 1h-5q-6 0 -12 -3.5t-10.5 -7.5t-8.5 -7.5t-7 -3.5q-2 0 -3.5 2t-1.5 4q0 3 3 4.5t5 4.5q5 4 9 7t8 4.5t8.5 2.5t11.5 1q5 0 9.5 -1t9.5 -1q4 0 6.5 3t4 7.5t2.5 9t1 7.5
q1 2 1.5 7t1 11t0.5 11v7zM80 23q-1 2 -2.5 3t-3.5 2t-3 2t-2 3q-2 13 -1.5 24.5t0.5 25.5q-1 18 -1.5 35.5t-1.5 34.5q-1 12 -2.5 23.5t-2.5 23t-2.5 22.5t-1.5 23q3 0 5.5 -2.5t4 -5.5t2.5 -6t1 -6l9 -136v-25l0.5 -1t0.5 -2.5t0.5 -2.5t0.5 -2q1 -9 1.5 -14t3 -7.5t8 -3
t15.5 -1.5q1 0 4 -0.5t7 -0.5t7.5 -0.5t5.5 -0.5h10h15h15h10q8 1 8 -6q0 -2 -0.5 -3t-2.5 -2h-6h-8.5h-8.5h-5h-20t-20 0.5t-20 1.5t-19 4zM88 208q0 2 0.5 3t3.5 0h12h23.5t24.5 -1q3 -1 5 -2t2 -5q0 -2 -1 -2.5t-3 -0.5h-3q-4 1 -12 1t-17.5 0.5t-17.5 1t-11 0.5
q-2 1 -4 1.5t-2 3.5zM147 98h7t10 1t9 3.5t4 6.5v31q2 0 5.5 -0.5t4.5 -3.5v-3v-3q0 -8 -1.5 -15.5t-1.5 -16.5q-4 -4 -9.5 -6t-11.5 -2t-12 0.5t-10 0.5v-16l0.5 -0.5l1.5 -1.5q1 0 3 -1l2 -1h48q2 0 2.5 -2.5t0.5 -3.5q0 -3 -2.5 -4.5t-5.5 -1.5q-11 0 -22 0.5t-21 4.5
h-13.5h-15t-15.5 0.5t-15 1.5q-2 0 -3.5 1.5t-1.5 3.5q0 1 1 1l6 1h30q1 0 4 1t4 1q1 6 1 9v8v7v6t-0.5 6.5t-0.5 7.5q-1 0 -2 0.5l-1 0.5q0 1 -1 1v0q-8 0 -12 -2.5t-6 -7t-2 -10.5t1 -13q-1 -3 -3.5 -3.5t-4.5 -0.5v35q0 3 6 5t13 3t14 1h9h6h3.5t5 -0.5t4.5 -0.5h2l3 -4
l-3 -3h-3.5t-5.5 -0.5t-5.5 -0.5h-3.5l-3 -2v-3v-8t3 -8h4zM95 46v1l2 2l1 1h76q2 0 5 -1.5t3 -3.5v-1q0 -1 -1 -2t-2 -1h-6q-3 0 -10 -0.5t-15.5 -0.5h-18t-17 0.5t-12.5 2t-5 3.5z" />
</svg>
