<?xml version="1.0" standalone="no"?>
<!DOCTYPE svg PUBLIC "-//W3C//DTD SVG 1.1//EN" "http://www.w3.org/Graphics/SVG/1.1/DTD/svg11.dtd" >
<svg xmlns="http://www.w3.org/2000/svg" xmlns:xlink="http://www.w3.org/1999/xlink" version="1.1" viewBox="-10 0 266 256">
   <path fill="currentColor"
d="M164 168q4 0 5.5 2t2 4.5t0.5 5.5t1 5l3 9t5 13t6 15t6.5 14.5t7 10.5t5.5 4q4 0 5 -1t1 -5q0 -1 -3 -7t-7.5 -13.5t-8.5 -14.5t-5 -10q-5 -12 -8.5 -27t-6.5 -27q-3 -10 -2 -20.5t1 -20.5q4 0 9.5 3.5t10.5 7t9.5 7t7.5 3.5t4.5 -1.5t1.5 -4.5q0 -4 -6.5 -8t-14 -7
t-14.5 -6.5t-9 -8.5v-38q0 -1 0.5 -4.5t0 -7.5t-2 -6.5t-4.5 -2.5h-4t-3 2v4q0 10 1.5 20t1.5 20q0 4 0.5 8.5t-2.5 7.5q-1 2 -4.5 4.5t-8 6t-10 6.5t-9.5 6t-7 6t-3 5v1l1 0.5l1 0.5q0 1 1.5 1.5l1.5 0.5q1 0 4.5 -1.5t4.5 -1.5q1 -1 3 -3.5t5 -5t5 -5t3 -3.5q1 0 2.5 -0.5
l1.5 -0.5q1 -1 4 -3.5t4 -3.5l2 2v36q-2 4 -2.5 9.5t-2.5 9.5q-2 6 -5 12t-5 11q-2 7 -3.5 15t-5.5 15q-1 2 -4 7t-6 11t-5 11t-2 8q3 0 6 -0.5t5 -2.5q3 -1 6 -7.5t6 -15.5t6 -19t6 -18t5 -13.5t4 -5.5zM53 229q0 1 1 1.5l1 0.5q1 1 3.5 3l2.5 2h16h9h8t8.5 -0.5t9.5 -1.5
v-3v-3t-1 -2h-23q-1 0 -1.5 -1l-1 -2t-0.5 -2.5v-2.5q0 -5 2 -8t4.5 -4.5t5.5 -2l6 -1t5 -2.5t3 -5q0 -5 0.5 -11.5t0.5 -11.5v-2.5t-0.5 -3.5t-1 -3t-2.5 -1h-1l-1.5 0.5t-1.5 1.5q-1 1 -1 4t-1 6.5t-1 6.5t-1 4q0 4 -1 7t-6 3q-2 0 -4 -0.5t-4 -4.5v-8v-6t0.5 -6t0.5 -6.5
t1 -8.5q1 -2 3.5 -3t5.5 -2.5t5.5 -4t2.5 -7.5q0 -3 -1 -6t-5 -3q-3 0 -4 1.5t-1 3.5v4t-1 4l-2 2t-2.5 2t-3.5 2l-2 1l-39 3v1.5v0.5q0 4 2.5 5t5.5 1h6t6 -1t6 -1.5t4 -0.5h1h1q1 0 1.5 1l0.5 1v64l-2 3l-1.5 0.5t-2.5 0.5q-3 0 -5 -1.5t-3.5 -4t-2 -5t-0.5 -5.5
q-1 -2 -1 -7.5t-1 -11.5t-1 -11t-1 -7q0 -2 -1 -2h-2q-3 0 -4 3t-1 5v2q0 2 1 9t1.5 14.5t1.5 14.5t1 9zM41 123q0 4 2.5 4.5t4.5 0.5q9 0 17 -1.5t17 -2.5q2 -1 5 -2t6.5 -2t6 -2t4.5 -3v-4v-4q0 -5 -1.5 -8.5t-5.5 -6.5q-4 2 -4 6t-0.5 7.5t-3 7t-11.5 3.5l-33 3
q-1 0 -2 1.5t-2 2.5v0zM46 96v0q0 1 1 1.5l1 0.5h3h4q2 0 5.5 -1t6.5 -2t6 -1.5t4 -0.5q5 -1 11 -2.5t11.5 -4t9 -7t3.5 -11.5q0 -5 -3 -8.5t-7 -6t-9 -5t-8 -6.5v-6q0 -5 1 -9t1 -8q0 -2 -0.5 -4t-3.5 -2l-3 0.5l-3 0.5q-1 6 -2.5 11.5t-1.5 11.5q0 7 4 11t9 7t9 6t4 10
q0 4 -4 6.5t-10 4.5t-12.5 3.5t-12.5 3t-10 3t-4 4.5z" />
</svg>
