<?xml version="1.0" standalone="no"?>
<!DOCTYPE svg PUBLIC "-//W3C//DTD SVG 1.1//EN" "http://www.w3.org/Graphics/SVG/1.1/DTD/svg11.dtd" >
<svg xmlns="http://www.w3.org/2000/svg" xmlns:xlink="http://www.w3.org/1999/xlink" version="1.1" viewBox="-10 0 266 256">
   <path fill="currentColor"
d="M52 248q7 1 12.5 1.5t10.5 1t9.5 0.5h10.5h10t9 -2q1 0 1.5 -1.5t0.5 -2.5l-0.5 -0.5l-1 -1t-2 -1l-1.5 -0.5h-28q-2 0 -3 -2.5t-1 -4.5v-5v-2v-4v-4q1 -2 4.5 -3t7.5 -2.5t7.5 -4t3.5 -6.5q1 -3 1.5 -7.5t1 -9.5l1 -10t0.5 -8q0 -4 -0.5 -6.5t-5.5 -4.5q-1 0 -2.5 0.5
t-1.5 1.5v38q0 5 -4.5 8.5t-8.5 3.5h-1h-2t-2 -1t0 -1l1 -52q0 -3 3.5 -5t7 -3t6.5 -2.5t3 -5.5v-20q0 -1 -1 -2t-2.5 -2t-3 -1.5l-1.5 -0.5h-1v0q-1 1 -1.5 2.5t-0.5 2.5v3.5t-0.5 5.5l-1 6t-0.5 4q-2 4 -7.5 6t-11.5 3t-13 1.5t-12 1.5t-8.5 2.5t-3.5 4.5v1q0 1 0.5 2.5
l0.5 1.5h1q5 0 9 -1t8 -2.5l8 -3t9 -1.5h1h2q0 1 1 3t0 3q0 19 1 36.5t1 35.5q0 4 -2 6t-5 2t-5 -1.5t-4 -4t-3.5 -5.5t-1.5 -5v-42q0 -2 -2 -2h-3q-4 0 -5 3.5t-1 7.5q0 5 0.5 13.5t1.5 16.5t3.5 15.5t6.5 11.5zM113 225v1q1 2 3 4t5 2q4 0 7.5 -1t7.5 -2t7.5 -2t8.5 -1
q16 -3 34 -3.5t34 -0.5q4 -2 5.5 -4t1.5 -7q-10 0 -19.5 1.5t-19.5 1.5h-12q-1 -1 -3 -2.5t-2 -3.5v-76q0 -1 1.5 -2t2.5 -2t2.5 -1.5t2.5 -0.5h4t6.5 -0.5t6.5 -1t4 -0.5q2 0 2 -1.5v-2.5q0 -3 -0.5 -4.5t-2.5 -1.5q-6 0 -12 1t-12 1q-7 0 -7 -8v-29q0 -1 3.5 -1.5t8 -1
t9.5 -1t9.5 -1t7.5 -2t3 -3.5v-3t-2 -1h-6h-6h-2.5t-3 0.5l-3 1t-2.5 0.5q-2 0 -7.5 0.5t-12 1t-14 1t-14 1.5t-12 1.5t-7.5 0.5t-2 1v3v2t2 2h7h5.5t5.5 -2h22q1 1 1 6t0.5 10.5t0.5 10.5v6v3q0 3 -2.5 4t-6.5 1.5t-8.5 0t-8.5 0t-6.5 2t-2.5 5.5q0 3 1.5 3.5t4.5 0.5
q5 0 11.5 -2t12.5 -2h3.5t1.5 2q1 4 1.5 7t0.5 5.5v5v5.5v5v11.5t-0.5 17.5t-1 17.5t-0.5 11.5q-3 0 -8 0.5t-10.5 1l-11 1t-8.5 1.5q-1 0 -2.5 0.5l-3 1t-2.5 1.5t-1 2zM85 72v22q0 3 -3.5 5t-9.5 4t-13 3.5t-12.5 3.5t-9.5 4.5t-4 5.5v1v1q3 0 9 -1t13 -3t15 -5t14 -6
t10.5 -7t4.5 -8q0 -10 -2.5 -15t-11.5 -5zM33 73l0.5 1.5t1.5 2.5h4q8 0 17.5 -2.5t17.5 -7.5t13.5 -12.5t5.5 -17.5q0 -3 0.5 -7.5t0 -8.5t-2.5 -7t-7 -3q-1 0 -1 2v4q0 5 1 9t1 9q0 8 -3.5 13t-8.5 8t-11.5 4.5t-12 2.5t-10 3t-6.5 7z" />
</svg>
