<?xml version="1.0" standalone="no"?>
<!DOCTYPE svg PUBLIC "-//W3C//DTD SVG 1.1//EN" "http://www.w3.org/Graphics/SVG/1.1/DTD/svg11.dtd" >
<svg xmlns="http://www.w3.org/2000/svg" xmlns:xlink="http://www.w3.org/1999/xlink" version="1.1" viewBox="-10 0 266 256">
   <path fill="currentColor"
d="M172 130q3 1 4.5 8t2.5 15.5t1.5 16.5t0.5 12q0 1 0.5 6t1 11t0.5 11v7q1 8 2.5 16.5t2.5 16.5h1h2q3 0 4 -1.5t1.5 -3.5t1 -4.5t0.5 -4.5q0 -6 -1 -12.5l-2 -13t-2.5 -13t-1.5 -12.5l-0.5 -1.5t-1.5 -1.5q-1 -13 -1.5 -26.5t-1.5 -25.5q0 -1 -0.5 -2.5t-0.5 -2.5v-2v-2
v-11.5t0.5 -14.5t0.5 -12v-5l3 -3q6 3 10.5 6.5t11.5 3.5q3 0 4.5 -1.5t1.5 -4.5q0 -2 -3 -4.5t-8 -5.5t-11 -6t-11.5 -6t-9.5 -6t-6 -5v-16v-5t-0.5 -5t-2 -4t-4.5 -2h-2t-2 2q0 1 -0.5 3t-0.5 4t-0.5 4t-0.5 3q0 2 2 5.5t2 6.5q0 4 -1.5 6.5t-3.5 3.5t-5 2t-5 2
q0 1 -1.5 2t-3 2.5t-3 2.5t-2.5 2q-2 2 -6 3.5t-7.5 3.5l-7 4t-4.5 5q1 4 4 4t6.5 -2t6.5 -4.5l6 -5t5 -2.5q1 0 2 1.5t1.5 2.5t0.5 2.5v2.5q0 13 1.5 28t1.5 29v1.5v1.5v8t-0.5 14t-0.5 17v17t-0.5 14t-0.5 8v2v3v2v2q0 2 -1 4t-1.5 4t-1 3.5t-0.5 4.5v4t3 2q2 0 3.5 -2.5
l3 -5t2 -5.5t1.5 -4v-7.5t0.5 -11t0.5 -11v-7.5v-9v-14v-15v-9q0 -5 0.5 -8.5t1.5 -6t3.5 -3t7.5 -0.5h3.5h3.5zM51 171q0 5 2 11.5t2 12.5q1 7 1.5 13.5t3 11t7 8t12.5 4.5q9 1 18.5 2t18.5 1h2h3.5t3 -1t1.5 -2q0 -2 -1.5 -3.5t-3.5 -1.5l-30 -4v-25h14q1 0 2 -2t2 -3
l0.5 -1.5l0.5 -1.5v-35q0 -3 -1 -3.5t-3 -0.5l-2 0.5t-2 1.5v30q0 3 -2 4.5t-4.5 2t-4.5 0.5h-4q0 -4 0.5 -9.5t0.5 -11.5t-0.5 -11.5t-3.5 -7.5q-3 1 -5 3q0 3 0.5 10.5t0.5 15.5t-0.5 15.5t-0.5 10.5v3v4.5t-0.5 4.5t-0.5 3q-1 2 -1.5 2h-2.5q-1 0 -3 -1t-3 -3l-2 -4
t-1 -4v-7.5t-0.5 -11l-1 -11t-0.5 -7.5q0 -1 -0.5 -3t-1 -3.5t-1.5 -2.5t-3 -1q-3 0 -4.5 2.5t-1.5 5.5zM39 146q0 1 1 2t2.5 1.5t3.5 0.5h3t6 -1t11 -2t12 -3t11.5 -4.5t9 -5t3.5 -5.5q0 -1 -0.5 -3.5t-1.5 -5.5t-2 -5t-3 -2h-0.5h-0.5l-2 2l-1 1q1 4 0.5 7.5t-2.5 6.5
t-5 5.5t-6 2.5l-33 4l-6 3v1zM147 67q0 -2 2 -3.5t4.5 -3.5t5.5 -3t5 -1q1 0 3.5 1.5l5 3t4 3t1.5 3.5v3t-2 3l-3 48q0 2 -1.5 2h-2.5h-1h-1q-2 0 -4 -0.5t-4 -0.5t-3.5 -0.5l-1.5 -0.5l-2 -1v-2t-0.5 -4.5t-0.5 -5v-3.5v-16l-0.5 -3t-1.5 -7t-1.5 -7t-0.5 -4v-1zM44 111v0
q0 1 0.5 1.5l0.5 0.5q1 0 4 0.5t4 0.5q4 0 12 -1.5t15.5 -4t13 -7t5.5 -11.5q0 -5 -3 -8.5t-7 -6.5l-0.5 0.5l-0.5 0.5q0 1 0.5 3l0.5 2v3.5v3.5q0 4 -1.5 7.5t-6.5 4.5l-36 6l-0.5 1.5t-0.5 2.5v1zM44 75q0 2 2 2.5t4 0.5q3 0 10.5 -1.5t15.5 -3t15 -4t9 -4.5q3 -4 4 -8
t1 -9q0 -4 -2.5 -6.5t-5.5 -5l-6 -5t-3 -6.5q0 -1 -0.5 -3t-0.5 -4t-0.5 -4t-0.5 -3t-2 -2t-3 -1q-3 0 -4 2t-1 4q0 3 0.5 6.5t2 7t2.5 7t3 5.5q3 3 6.5 5.5t3.5 8.5q0 4 -3 6.5t-7 3.5t-8 1.5t-6 0.5t-5 0.5t-6 0.5t-6 0.5t-4 0.5q-3 1 -4 2.5t-1 4.5z" />
</svg>
