<?xml version="1.0" standalone="no"?>
<!DOCTYPE svg PUBLIC "-//W3C//DTD SVG 1.1//EN" "http://www.w3.org/Graphics/SVG/1.1/DTD/svg11.dtd" >
<svg xmlns="http://www.w3.org/2000/svg" xmlns:xlink="http://www.w3.org/1999/xlink" version="1.1" viewBox="-10 0 266 256">
   <path fill="currentColor"
d="M183 167q1 0 4 0.5t3 2.5v77q0 2 2 3.5t4 1.5t3.5 -0.5t2.5 -3.5v-11q0 -29 -0.5 -57t-1.5 -57v-5t-0.5 -8.5t-0.5 -8.5v-6q-2 -3 -4.5 -5.5t-5.5 -2.5h-35l-3 -3v-20q0 -1 2 -2l2 -1q2 -1 7 -1.5t10.5 -1t10.5 -1t7 -0.5h1h1q2 0 3 1t3 1t5.5 -1t3.5 -4t-3 -5h-9
q-9 0 -18.5 1.5t-18.5 1.5h-1q-1 0 -2 -1.5l-1 -1.5v-27l-2 -2l-3 -3h-1q-2 0 -3.5 2.5t-2.5 4.5v6.5t-0.5 10t-0.5 10v6.5v2q0 16 1 32.5t3 31.5q1 2 2.5 3t3 2.5t3.5 2.5t3 1h32l0.5 1t0.5 2v5v4.5v5t-1 4.5t-4 3q-8 1 -15 1.5t-12 3t-8.5 7.5t-4.5 14q0 13 -1.5 25.5
t-2.5 24.5q0 1 -0.5 1.5t-1 2t-0.5 2.5v1q1 3 3 4t4 1t4 -1t2 -3q0 -4 -0.5 -8t-0.5 -8v-3q0 -1 0.5 -3.5t0.5 -3.5t0.5 -6t1 -10.5t1 -10.5t0.5 -6q1 -5 4 -8t6.5 -4.5t8.5 -2t9 -0.5zM66 225q7 1 12 1t9.5 0.5t9.5 0.5h11h16q4 -2 4 -5q0 -4 -4 -5t-6 -1h-3t-3 1h-1.5
t-3 0.5t-3 0.5h-1.5h-2t-2 -0.5t-2.5 -0.5h-2.5q-1 -1 -2 -1.5l-1 -0.5v-23q0 -1 0.5 -1.5t1.5 -0.5l1 1t2 1h1h1q5 0 10.5 -2t9.5 -7q1 -4 1.5 -8t1 -7.5t0.5 -7.5v-8v-3v-4v-4v-2q-1 -2 -2 -2h-3t-3 0.5t-2 2.5v23q0 3 -0.5 6.5t-1.5 6t-3 4.5t-5 2t-5 -2t-2.5 -5.5l-1 -7
t-0.5 -5.5q0 -5 0.5 -9.5l1 -9t1 -9.5t1.5 -11q2 -1 5.5 -3t6.5 -4t5.5 -5.5t2.5 -6.5q0 -2 -1 -3.5t-3 -1.5t-3.5 1.5t-3.5 4t-3.5 4.5t-2.5 3q-5 3 -11.5 5.5t-11.5 4.5q-2 0 -6.5 0.5t-8.5 0.5t-7 1.5t-3 5.5q0 2 2 3t5 1q6 0 11 -2t11 -2q3 0 3.5 1t0.5 4v32.5t-2 32.5
v3.5t-0.5 5.5t-1.5 5.5t-4 2.5q-5 0 -8.5 -4t-5 -10.5t-2 -14t-0.5 -15.5v-13.5t-1 -9.5q0 -1 -1 -1.5t-2 -0.5t-1.5 0.5l-1.5 1.5q0 2 -0.5 5.5t-0.5 8t-0.5 8t-0.5 5.5v4v9.5t1 12t3 11.5t6 8q1 0 3 1t2 2zM152 101q0 -4 2 -5.5t5.5 -2t7 0t6.5 0.5h9q3 1 4.5 3t2.5 5
t1 6.5v6.5t-1.5 5t-4.5 3t-6 1h-6q-12 0 -16 -5.5t-4 -17.5zM58 99q0 2 1.5 2.5t3.5 0.5q3 0 7 -0.5t10 -2t11.5 -3.5t10 -4.5t7.5 -5.5t3 -7q0 -2 -0.5 -5.5t-3.5 -3.5v0v0q-1 2 -3.5 6t-3.5 6q-3 3 -10 4.5t-14.5 3t-13 3.5t-5.5 6zM61 66q0 3 2 3h5q5 0 13 -1t15 -4
t12.5 -8.5t5.5 -13.5q0 -6 -2.5 -11.5t-7 -10t-10 -7t-12.5 -2.5l-0.5 0.5l-0.5 0.5v1v1q3 5 5.5 6.5l5 3t5 4.5t6.5 9q0 1 0.5 3l0.5 2q-1 6 -6 10t-11 6t-12.5 3t-11.5 1q-2 1 -2 1.5v2.5z" />
</svg>
