<?xml version="1.0" standalone="no"?>
<!DOCTYPE svg PUBLIC "-//W3C//DTD SVG 1.1//EN" "http://www.w3.org/Graphics/SVG/1.1/DTD/svg11.dtd" >
<svg xmlns="http://www.w3.org/2000/svg" xmlns:xlink="http://www.w3.org/1999/xlink" version="1.1" viewBox="-10 0 266 256">
   <path fill="currentColor"
d="M118 248q0 2 1 2.5t3 0.5q3 0 5 -2t3 -5t1 -6v-5q0 -3 0.5 -11t0.5 -17.5t0.5 -18t0.5 -12.5v-84q2 -9 1.5 -16.5t1 -13t6.5 -9t18 -3.5h35q4 1 4.5 -1t0.5 -3q0 -5 -3 -5h-7q-11 0 -21.5 1t-22.5 2q-11 1 -14 6.5t-3 15.5q-1 3 -1.5 8.5l-1 11t-1 10t-0.5 5.5v37
q0 19 -0.5 37.5t-2 36.5t-4.5 36v2zM172 142q2 15 4.5 29.5t3.5 29.5q1 3 1 7t0.5 8t1 8.5t1.5 7.5l1 1l2 2v0q4 0 5 -3.5t1 -6.5q0 -11 -2 -22t-4.5 -22t-4.5 -22.5t-2 -22.5q0 -3 1 -4.5t2.5 -3t2.5 -3.5l2 -4q1 -4 1 -10v-10v-5v-6q-1 -4 -5 -7t-9.5 -4.5t-11.5 -2
t-10 -0.5h-4.5t-2.5 3v2v1q6 0 12.5 1t12 3t9.5 6t4 11v5t-0.5 5.5t-2 4.5t-4.5 2t-5 -2.5t-5 -5t-7 -5t-10 -2.5h-7q-1 1 -1 1.5v1.5v2l16 2q0 1 1.5 2t2.5 3t2 3t3 4.5t3 4.5v0v0q0 3 -4.5 4.5t-10 2.5t-10 2t-4.5 4q0 4 4 4q3 0 6 -1t5.5 -2l5 -2t5.5 -1q1 0 2 0.5z
M60 151h-2t-1 1v44q0 4 2.5 6t6.5 3t7.5 1.5t5.5 0.5h14h15l4 -2t2 -3q0 -3 -1 -3.5t-3 -0.5q-3 0 -5.5 1t-5.5 1t-6 -1t-3 -4q0 -6 0.5 -9t2.5 -4.5t5 -2.5t8 -3q4 -7 5 -16t1 -17q0 -2 -0.5 -4t-3.5 -3q-2 1 -2.5 3t-0.5 3v22q0 4 -1.5 5.5t-3.5 1.5h-4h-4
q0 -9 -0.5 -18.5t1.5 -17.5q0 -3 3 -3.5t5.5 -1.5t5 -4.5t2.5 -10.5v-3q0 -1 -0.5 -3t-1 -3t-1.5 -1l-1 0.5t-2 1.5l-1 0.5l-1 0.5v13l-1.5 1.5t-2.5 1.5q-7 4 -14 6t-14 3q-1 0 -3 0.5t-4.5 0.5t-4.5 0.5t-3 0.5t-1.5 1t-0.5 2q0 2 2 2.5t4 0.5h4t4 -0.5t3.5 -1t2.5 -1.5
h12l1 2v7q0 3 0.5 7.5t0.5 10.5t-0.5 12t-1 11t-2 8t-3.5 3l-2.5 -0.5l-5 -1t-4.5 -1.5t-2 -3v-39q0 -2 -2 -2.5t-3 -0.5zM57 107q-1 0 -1.5 1.5t-0.5 3.5q6 0 12.5 -1t13.5 -2.5t13 -4t11 -6.5q1 -1 1.5 -3t1 -4.5t0.5 -4.5v-3v-6q-2 -2 -4.5 -2.5t-4.5 -0.5v18l-2.5 2
t-3.5 2q-9 5 -18.5 7t-17.5 4zM55 74h0.5h0.5q0 1 1 2l1 1h1q2 0 6.5 -0.5t10.5 -2t12.5 -3.5t11.5 -4.5t8.5 -6t3.5 -6.5q0 -10 -2 -14t-5.5 -5.5t-6.5 -3t-4 -7.5v-3.5v-5.5t-1 -5t-4 -2t-3.5 3t-0.5 5q0 4 0.5 8.5t2.5 7.5q1 0 3 2.5t4.5 4.5t4.5 4l3 3v4q0 5 -3.5 8
t-8.5 5t-11.5 3t-12 1.5t-9 2t-3.5 4.5z" />
</svg>
