<?xml version="1.0" standalone="no"?>
<!DOCTYPE svg PUBLIC "-//W3C//DTD SVG 1.1//EN" "http://www.w3.org/Graphics/SVG/1.1/DTD/svg11.dtd" >
<svg xmlns="http://www.w3.org/2000/svg" xmlns:xlink="http://www.w3.org/1999/xlink" version="1.1" viewBox="-10 0 266 256">
   <path fill="currentColor"
d="M46 189v1l1 2.5l1 2.5q1 13 1.5 23t3.5 16.5t10.5 10t22.5 3.5q9 0 17.5 -0.5t17.5 -1.5q2 0 2 -1v-2q0 -2 -1 -4t-3 -2h-27q-2 0 -2.5 -1t-1 -2.5t-0.5 -3.5v-2q0 -4 2.5 -7.5t6 -5.5t8 -4t7.5 -3l3 -6l-1 -29l-1 -1l-2 -2t-2.5 -1.5t-2.5 -0.5l-1.5 1.5l-1.5 1.5v4.5
v6.5v7v4q-1 5 -2.5 9t-6.5 4h-1.5h-0.5q-1 -5 -1.5 -9t-0.5 -7.5v-7.5v-9v-14q9 -2 15 -6.5t7 -14.5v-2t-0.5 -3.5t-0.5 -3t-1 -2.5l-1.5 -0.5t-2.5 -0.5t-2.5 1.5t-2.5 4t-1.5 5t-0.5 3.5t-2 2.5t-4 4t-4.5 4t-4.5 1.5h-41q-1 0 -2 1l-2 2q-1 0 -1.5 0.5t-0.5 1.5v1v1l1 1
l1 1h38l2 3l0.5 2t0.5 3q0 2 -0.5 4.5t-0.5 3.5l-1 1.5l-1 1.5q0 1 0.5 2.5t0.5 3.5t0.5 3.5l0.5 1.5v11v8v10.5t-1.5 9.5t-5.5 4q-5 0 -7.5 -4.5t-3.5 -11t-1 -14.5q0 -7 -0.5 -14t-2.5 -11t-6 -4h-1q-1 1 -1.5 3l-1 4t-1 3.5t-0.5 2.5v1zM141 212q2 3 7 5t11.5 3.5t12.5 2
t9 0.5h3h4.5h4.5h3q4 -4 7.5 -5.5t6.5 -3.5t5 -5.5t3 -9.5v-11.5v-17t0.5 -19.5t0.5 -19.5v-17t1 -10.5v-5q0 -2 -2 -6t-4.5 -7.5t-5.5 -6t-5 -3.5l-16 -3v-33q0 -3 -2.5 -3h-3.5q-2 0 -4.5 0.5t-2.5 3.5l-4 34h-18l-1 1.5t-2.5 3.5l-3 4t-2.5 3q-3 5 -4.5 10.5t-2.5 11.5
t-0.5 12.5t0.5 11.5q0 20 0.5 39.5t4.5 39.5zM148 163v-4v-4.5v-4.5v-3l2 -1h55l2 1v2.5v3.5v5v3q0 10 0.5 19.5t-1.5 16.5t-8 11t-18 4q-13 0 -20 -3.5t-9.5 -9.5t-2.5 -15v-21zM146 126q0 -8 2 -15.5t2 -16.5q6 -8 13 -10t17 -2q4 0 8 1t8 3t7 5t4 7v3v4v4v3
q0 11 -0.5 16.5t-3.5 7t-9 1.5h-17q-4 0 -9 0.5t-10 0t-8.5 -3t-3.5 -8.5zM43 124l7.5 1.5t6.5 0.5q11 0 20 -1.5t16 -5t12 -10t7 -16.5q-1 -3 -3.5 -3.5t-4.5 -0.5h-3q-1 10 -5 16t-15 7q-2 1 -7.5 1.5t-11.5 1t-11.5 1t-7.5 0.5l-1.5 1.5l-0.5 0.5v1v1l0.5 1.5t1.5 2.5z
M42 83q0 4 2 5.5t4 2t5 0.5h5q4 0 8 -0.5t7.5 -1.5t7.5 -2t9 -2q2 -2 6.5 -3t8.5 -3t7 -4t3 -6v-19l-0.5 -1t-2 -2t-2.5 -1.5t-2 -0.5l-1.5 -0.5t-3.5 -0.5t-3.5 -0.5t-2.5 -0.5q-5 -1 -7 -4t-3 -6.5t-1 -7.5t-1 -7t-2.5 -4.5t-4.5 -1.5q-5 0 -5.5 3t-0.5 7q0 10 2.5 15.5
t5.5 8.5t7 4.5t7.5 3t6 3.5t2.5 6v6q-1 0 -4 1.5l-7 3.5l-7 3.5t-4 1.5h-36q-2 0 -2.5 2z" />
</svg>
