<?xml version="1.0" standalone="no"?>
<!DOCTYPE svg PUBLIC "-//W3C//DTD SVG 1.1//EN" "http://www.w3.org/Graphics/SVG/1.1/DTD/svg11.dtd" >
<svg xmlns="http://www.w3.org/2000/svg" xmlns:xlink="http://www.w3.org/1999/xlink" version="1.1" viewBox="-10 0 266 256">
   <path fill="currentColor"
d="M171 247q0 3 2.5 3h3.5h3q3 0 3 -2q0 -1 0.5 -5.5t0.5 -9t0.5 -8.5t0.5 -6v-5q0 -19 -1 -37.5t-1 -37.5v-36q3 -4 6.5 -5.5t6.5 -3t6 -3.5t5 -7q0 -1 0.5 -6t1.5 -10.5t1.5 -10t0.5 -6.5v-2v-1q0 -6 -4 -10t-10 -6.5t-13.5 -4t-14.5 -2t-13 -0.5h-9h-3h-6h-4.5h-3.5
l-1.5 1.5t-0.5 2.5v1l57 5q4 1 8 5.5t6 8.5v10q0 2 -0.5 6.5l-1 9t-3 8t-6.5 3.5h-1v0q-5 -6 -10.5 -10.5t-14.5 -4.5h-6.5t-11 0.5t-10 1.5t-4.5 3l3 3h31q2 0 3.5 1.5l3 3t2 3t0.5 2.5q0 4 -3.5 6t-8 2.5t-9 0.5h-5.5q-2 0 -4.5 0.5l-5 1t-4 1l-1.5 0.5v4h37l4 3l0.5 4.5
t0.5 10.5t0.5 12t0.5 10v36v35q-2 7 -3 15.5t-1 15.5zM59 223q12 7 25.5 8.5t27.5 1.5h3h5.5h4.5h3q4 1 5 -0.5t1 -3.5q0 -1 -0.5 -3t-1.5 -2h-33q-4 0 -5.5 -4t-1.5 -7v-5q0 -2 2 -4l2.5 -0.5t5 -1.5t5 -1.5t2.5 -1.5q2 -1 5.5 -3t3.5 -5v-39q0 -2 -2 -3t-3 -1t-2.5 0.5
t-1.5 1.5v34q0 10 -10 10q-2 0 -4.5 -2.5t-2.5 -4.5v-44q0 -3 3 -4.5t6.5 -3.5t8 -3.5t6.5 -3.5v-3v-5v-5t-1 -5t-2.5 -4t-4.5 -2t-4.5 0.5t-1.5 3.5t1 5t1 6v2.5v1.5q-1 2 -3.5 4.5t-3.5 2.5l-55 7q-3 0 -3.5 2t-0.5 5q10 0 19.5 -2t19.5 -2q2 0 3 3.5t2 9t1 12t0.5 13
t0.5 11.5v8v14q-1 2 -1.5 5t-4.5 3q-5 0 -7.5 -4t-4 -11t-2.5 -15t-2 -15t-2 -11.5t-4 -4.5q-1 0 -3 0.5t-2 1.5v4v5q0 13 2.5 27t5.5 27zM207 221q1 2 3 2h3h5q1 -2 1 -4v-4q0 -7 -1 -13.5t-2.5 -13l-3 -13t-1.5 -13.5q0 -9 1.5 -17t1.5 -17v-2v-3q-1 -1 -2.5 -1.5
t-2.5 -0.5q-2 0 -3 1t-2 3q0 6 -0.5 10.5t-1 8.5t-0.5 8.5v9.5q0 14 2.5 29.5t2.5 29.5zM138 217q0 1 0.5 2.5t2.5 1.5h1q1 0 3.5 -1.5t3.5 -1.5v-4t0.5 -6.5t1 -6.5t0.5 -4l0.5 -2t0.5 -3q1 -13 1.5 -26.5t0.5 -26.5v-4.5v-4.5l-1.5 -1.5t-1.5 -0.5q-2 0 -3 0.5t-1 3.5
q-1 21 -3 41t-6 41v2v1zM46 96q0 3 1 4t3 1h2.5h1.5q3 0 10 -1l14 -2t13 -2t8 -2q2 0 5.5 -1t6.5 -2.5t5 -4t2 -5.5q0 -2 -0.5 -5t-1.5 -5t-3 -3.5t-5 -1.5h-3t-2 1v16l-4 3l-2.5 0.5t-5.5 1t-6.5 1t-6.5 0.5l-3.5 0.5t-6.5 0.5t-6.5 0.5l-3.5 0.5h-4t-4 0.5t-3 1.5t-1 3z
M44 61q0 4 2.5 5.5t5.5 1.5q2 0 4 -0.5t3 -1.5q2 -1 6.5 -1.5t9.5 -1.5t9.5 -1.5t5.5 -0.5q4 -1 7.5 -2.5t6.5 -3t5 -4.5t2 -7q0 -7 -5 -13t-12 -10.5t-15 -6.5t-14 -2q-2 0 -2.5 1.5t-0.5 3.5t3 3.5t6.5 3t8 3t8.5 3t6.5 4.5t2.5 6q0 7 -5 10t-10 4q-2 0 -7 0.5t-10.5 1
t-10.5 1t-7 0.5q0 1 -1.5 2t-1.5 2v0v0zM133 50v0.5v0.5l7 3h40l0.5 -0.5l1.5 -1.5v-0.5v-0.5v0v0l-2.5 -2.5l-1.5 -1.5q-4 -1 -7.5 -1t-6.5 -0.5t-7 -0.5h-7h-3h-4h-4h-2l-2 2l-2 2v0.5v0.5z" />
</svg>
