<?xml version="1.0" standalone="no"?>
<!DOCTYPE svg PUBLIC "-//W3C//DTD SVG 1.1//EN" "http://www.w3.org/Graphics/SVG/1.1/DTD/svg11.dtd" >
<svg xmlns="http://www.w3.org/2000/svg" xmlns:xlink="http://www.w3.org/1999/xlink" version="1.1" viewBox="-10 0 266 256">
   <path fill="currentColor"
d="M159 121v25v16.5t0.5 19.5t0.5 20.5t0.5 18.5t0.5 13v5l2 12h0.5h1.5q4 0 5.5 -3t1.5 -7v-7t-2 -8v-75q-1 -4 -1 -8v-9q0 -8 2 -12t5 -5t7 -0.5t8.5 1t8.5 -0.5t7 -6l-5 -4h-30q-1 0 -2 -1.5t-1.5 -3t-1 -2.5t-0.5 -2q-1 -11 -1 -23.5v-23.5v-2v-4t0.5 -6.5t0.5 -6.5v-4
v-2q0 -3 -1.5 -3h-3.5h-3.5t-2.5 2v14q0 15 1.5 31t1.5 31q0 5 -2.5 7t-6 2.5t-7.5 0.5t-7.5 0.5t-6 2t-2.5 4.5v1v1q1 0 5 0.5t5 0.5h1h2h3t5 -0.5t5 -0.5h3h1h1l0.5 0.5zM57 233q2 4 6.5 5.5l7.5 2.5q1 0 5 0.5t9 1l10 1t8 0.5h3h2q2 0 4 -0.5l4 -1t3.5 -1l1.5 -0.5v-8
q0 -2 -2.5 -2h-3.5q-3 0 -6.5 1t-6.5 1h-7q-3 -3 -4 -6t-1 -8v-6q1 -2 3.5 -2.5t3.5 -0.5q7 -3 11.5 -5.5t6.5 -7t2.5 -10t0.5 -13.5v-3v-5v-5.5v-3.5q-3 -4 -7 -8l-4 4v40l-1.5 1.5l-2.5 2.5t-3.5 3t-5.5 2v0l-4 -10v-39v-7l2 -0.5t4.5 -1t4.5 -1l2 -0.5q1 0 2.5 -0.5
t3 -1.5t3 -1.5t1.5 -1.5v-20q0 -1 -2 -4t-4 -3h-1q0 1 -1.5 2.5l-1.5 1.5v14q0 4 -4 6t-10.5 3.5t-14 3t-14 3.5t-10.5 4.5t-4 5.5t2 3h4q4 0 7.5 -1t7 -2.5t7 -2t7.5 -0.5v74q0 1 -1 1.5t-2.5 1t-2.5 0.5h-2q-3 0 -5 -1.5t-3 -4.5q-1 -11 -1.5 -23.5t-0.5 -24.5
q0 -1 -1.5 -1h-2.5q-5 0 -5 5t1 9t1 9q0 2 -1 3.5t-1 3.5v1v2t0.5 4.5t1 8t1 8t0.5 5.5zM186 234q2 2 3.5 3t4.5 1t3.5 -3t0.5 -6q0 -12 -2 -24t-3 -23v-5v-9v-9v-5q0 -3 -0.5 -7.5t-1 -8.5t-2 -7.5t-4.5 -5.5q-4 2 -4.5 7t-0.5 8v4t2 4q2 21 2.5 43t1.5 43zM135 232
q0 1 1 2.5t3 1.5h1q1 0 2 -1.5l1 -1.5q0 -2 0.5 -6t1 -9t1 -9t0.5 -6l0.5 -1.5t0.5 -2.5t-0.5 -2.5l-0.5 -1.5q0 -3 -0.5 -10t-1 -15t-1 -14t-0.5 -8v-2v-4t-0.5 -3.5t-2.5 -2.5h-1q-2 0 -4 3t-1 5q0 1 1 3t2 2v67q0 1 -0.5 3t-0.5 4t-0.5 4l-0.5 2v1v2zM50 113q0 3 3 4t5 1
q3 0 8.5 -1t11.5 -3.5t13 -5t12.5 -5.5t9 -6.5t3.5 -7.5v-3t-0.5 -7t-2 -7t-3.5 -3q-1 0 -2.5 0.5l-1.5 0.5v20l-3 2t-4 3q-2 2 -6.5 3t-10 2.5l-11 3t-10.5 3t-8 3t-3 3.5zM138 46h-1l-2 2l-1 1v43q0 1 1 3t3 2v0q1 -1 2.5 -2l1.5 -1v-41q0 -1 -1 -4t-3 -3zM186 40
q-2 0 -4 2.5t-2 5.5v42q0 3 1 3.5t3 0.5t4 -1t2 -4v-46q0 -2 -1 -2.5t-3 -0.5zM52 70q0 3 2 5t4 2h1.5h0.5l1 -0.5t2.5 -1t2 -1t1.5 -0.5q5 -2 13.5 -3.5t16.5 -4.5t13.5 -8t5.5 -14q0 -6 -2 -9t-5.5 -5t-7.5 -3t-9 -2q-2 -1 -4 -3t-3.5 -4t-3.5 -3.5t-4 -1.5t-4 1.5t-2 3.5
q0 4 1.5 8t5.5 5q2 1 6.5 1.5t9 2t8 3.5t3.5 5v3.5t-2 2.5q0 1 -2 2t-4 2.5t-4 2.5t-3 2q-2 1 -8.5 2t-13 2.5t-11.5 3t-5 4.5z" />
</svg>
