<?xml version="1.0" standalone="no"?>
<!DOCTYPE svg PUBLIC "-//W3C//DTD SVG 1.1//EN" "http://www.w3.org/Graphics/SVG/1.1/DTD/svg11.dtd" >
<svg xmlns="http://www.w3.org/2000/svg" xmlns:xlink="http://www.w3.org/1999/xlink" version="1.1" viewBox="-10 0 266 256">
   <path fill="currentColor"
d="M123 247v0l2 2l1 1h1q2 0 3.5 -1t1.5 -2q0 -12 1 -25t4 -25q3 -7 9 -11.5t13 -7.5t14.5 -5.5t13.5 -6t9.5 -9t3.5 -14.5q0 -4 -1.5 -8t-4.5 -6.5t-7 -3.5t-8 -1q-6 0 -14.5 2t-16.5 6t-15 9t-11 10v1v2t1 1l6 -4t5.5 -4.5t5.5 -3.5t7 -1q2 0 4 3.5t3 8t1.5 9t0.5 6.5
q0 3 -3.5 5t-8 5t-8.5 7t-5 9l-8 51v1zM57 171q0 5 -0.5 12t0.5 14t4.5 11.5t11.5 4.5h34q3 0 3 -1v-2q0 -2 -0.5 -3.5t-2.5 -1.5q-5 0 -9.5 1t-9.5 1v-22q4 -1 9.5 -3t8.5 -6q0 -2 0.5 -7t1.5 -10.5t1.5 -10t0.5 -6.5v-3v-3.5t-2 -1.5h-1l-2 2l-1 1l-3 31q0 2 -1.5 4
t-3.5 3l-4 2t-3 1h-1q0 -1 -0.5 -1.5l-0.5 -0.5v-34q-1 -2 -1.5 -5.5t-0.5 -5.5h-2q-2 0 -2 5v65q0 3 -2 4t-5 1q-4 0 -6 -3t-2.5 -7t-0.5 -9v-7q0 -2 -0.5 -7t-0.5 -10q0 -6 0.5 -11t0.5 -7t-1 -2.5t-3 -0.5h-1.5t-1.5 1q0 5 -0.5 8t-0.5 6v6v8zM157 138q0 -3 3 -4.5t6 -2
t6.5 -0.5h5.5q7 0 10.5 5.5t3.5 11.5q0 3 -2.5 6t-6 5t-7.5 3.5t-7 1.5q-4 0 -6 -3t-3.5 -7.5t-2 -9t-0.5 -6.5zM52 130q0 2 1.5 2.5t3.5 0.5q3 0 11 -1.5t16 -4t14 -6t6 -7.5q0 -6 -2 -10t-8 -4q0 3 0.5 5.5t0.5 5.5q0 4 -3 6.5t-8 3.5t-10.5 2t-10 2t-8 2t-3.5 3zM157 98
q0 3 -2.5 5.5t-6 3.5l-7 2t-6.5 3q-1 0 -3 1.5t-4 2.5t-3.5 2l-1.5 1v6l3 -1q1 -1 3.5 -1t2.5 -1q10 -5 18.5 -10.5t18.5 -10.5q5 -2 11 -4t10.5 -5t8 -7.5t3.5 -11.5q0 -4 -1 -8t-3 -8t-5 -6.5t-8 -2.5q-15 0 -28 5.5t-25 13.5q-1 1 -2.5 1.5t-2.5 1t-2 1.5l-2 2q1 2 2 2h3
q3 0 5 -1.5t4.5 -3.5t4.5 -4t5 -2t4.5 4.5t3 10t2 10.5t0.5 7v2zM90 87q-1 0 -3.5 0.5l-5 1t-5 1.5t-3.5 1q-2 1 -5.5 1.5t-6.5 1.5t-5 3t-2 5q1 0 5 -1t9 -2t10.5 -2.5t10.5 -3.5t8.5 -3t3.5 -2q1 -2 1.5 -4.5t0.5 -4.5v-3t-0.5 -3.5t-1.5 -2.5t-3 -1h-1q1 5 -1 10.5
t-6 7.5zM164 93q-2 -8 -4.5 -15t-2.5 -14v-3v-3q6 0 11.5 -2t11.5 -2q4 0 6.5 2t4 5t2 6t0.5 6q0 4 -3 8t-7 7t-8.5 5.5t-7.5 2.5h-1q0 -1 -1 -2zM61 63q-1 1 -1.5 3t-0.5 3q6 0 14.5 -1t16 -4t13.5 -7.5t6 -11.5q0 -4 -3 -7.5t-6.5 -6t-6.5 -4.5t-3 -3v-13h-7q0 4 1 10t3 9
q1 3 3.5 4.5l5 3t4.5 3.5t2 5q0 4 -5.5 7t-12 5t-13 3.5t-10.5 1.5z" />
</svg>
