<?xml version="1.0" standalone="no"?>
<!DOCTYPE svg PUBLIC "-//W3C//DTD SVG 1.1//EN" "http://www.w3.org/Graphics/SVG/1.1/DTD/svg11.dtd" >
<svg xmlns="http://www.w3.org/2000/svg" xmlns:xlink="http://www.w3.org/1999/xlink" version="1.1" viewBox="-10 0 266 256">
   <path fill="currentColor"
d="M165 190v57q0 1 1.5 2t2.5 2h1q2 0 3 -2t1 -3v-2.5v-3.5v-4v-2q0 -11 -0.5 -21t-0.5 -21v-5v-3l1 -2h2t4.5 -0.5t5.5 -0.5t4 -1h3h2q1 3 1 8t0.5 11t1.5 13t2 12.5t3 9t5 3.5h3.5t3.5 -1v-3v-2q0 -5 -2.5 -8.5t-2.5 -8.5q-4 -21 -4.5 -42t-0.5 -43v-26q1 -4 1.5 -7
t0.5 -7q0 -3 -0.5 -4.5t-3.5 -1.5q-1 0 -3 0.5t-2 2.5v14q0 2 -2.5 3t-5 1.5t-5 0.5h-3.5q-4 0 -5.5 -1t-2 -3t-1 -4.5t-0.5 -5.5q-1 -4 -5 -7l-8 -6t-7 -6t-3 -7v-25l1.5 -0.5t3.5 -1t4.5 -0.5h3.5h14h13q2 1 3 3.5t1 4.5q0 3 -2 5.5t-4.5 3.5t-6 2t-5.5 1q-1 0 -4 0.5
t-6 0.5t-6 0.5t-4 0.5v5q7 0 14.5 0.5t14 -0.5t11 -5t4.5 -14q0 -5 -0.5 -9t-5.5 -6h-25h-24q-1 0 -4.5 0.5l-7 1t-6.5 2t-3 4.5h17v6t0.5 8.5l1 9t1.5 5.5q0 3 1 4.5t2.5 2.5l3 2t2.5 3q5 5 8 10t3.5 10.5t0.5 11.5v13v3v2.5v3.5v1l-2 2h-19q-1 0 -1 -1.5t-0.5 -3.5l-1 -4
t-0.5 -3q-2 -7 -2.5 -16.5t0.5 -17.5q-2 -3 -5 -3t-5 3q3 13 3 25v24q0 22 -1.5 44.5t-4.5 44.5q-2 3 -2.5 4.5t-0.5 4.5v3t2 2t4 -2.5t3.5 -5t2.5 -5.5t1 -4l3 -44h24zM48 162v50q0 4 1.5 7t4 4.5t5.5 2t7 0.5h8h12.5h12.5h8q0 -1 -1 -4t-3 -3h-14q-2 0 -3.5 -1.5
t-2.5 -3.5l-2 -4t-1 -4q0 -5 2.5 -7t5.5 -3t6.5 -2.5t5.5 -4.5q1 -1 1.5 -2.5t1.5 -3.5l1.5 -3l0.5 -1v-37q0 -1 -0.5 -1.5t-1.5 -0.5l-2.5 -0.5l-2.5 -0.5v38q0 2 -1 4t-2.5 4t-3.5 3t-4 1q-1 0 -3 -0.5t-2 -3.5v-46q0 -2 -1 -2h-2q-2 0 -2.5 0.5t-0.5 2.5q-1 5 -1.5 9
t-0.5 8v8.5v9.5v8t-0.5 11t-0.5 11v7q-1 3 -3 3.5t-4 0.5q-4 0 -5.5 -2t-2.5 -4.5t-1 -5.5v-7q0 -2 -0.5 -8t-0.5 -13q0 -6 0.5 -12t0.5 -9q-1 -1 -2.5 -1.5t-2.5 -0.5h-1.5h-0.5zM141 174v-29h24v29h-24zM174 172v-3.5t-0.5 -5.5t-0.5 -6v-4v-1v-1v-4.5t3 -2.5h16l3 3v23
l-1 0.5t-2.5 1l-3 1t-2.5 1.5h-5h-1h-3q-1 0 -2 -0.5t-1 -1.5zM98 115q-4 4 -13.5 6t-18.5 4.5t-16.5 6t-7.5 9.5q6 0 9 -1t5 -2t4 -2.5t6 -2.5q12 -2 21.5 -5.5t20.5 -7.5v-8q0 -1 0.5 -3t0 -4t-1 -3.5t-2.5 -1.5t-2.5 0.5t-0.5 2.5q-1 1 -1 2.5t-1 3.5t-1 4t-1 2zM173 121
v-4t1 -3q4 -2 7.5 -2.5t7.5 -0.5q3 0 4.5 2t2 4.5t0.5 4.5v5t-0.5 4l-0.5 2l-1 2h-17q-1 0 -2 -1.5t-1.5 -4t-0.5 -5v-3.5zM100 83q-2 1 -6.5 2.5t-9.5 3t-9.5 3t-6.5 1.5q-3 1 -6.5 1.5t-6 1t-4 2.5t-1.5 6q8 0 17 -2.5t17 -4.5q3 -1 6.5 -2.5t7.5 -3t7 -2.5l3 -1l2 -2v-2
v-4v-6.5t-2 -7.5h-1q-2 0 -3 2.5t-1 5.5t-0.5 6t-2.5 3zM58 64q0 3 2 3.5t4 0.5q3 0 10.5 -1.5t16 -3.5t14.5 -5.5t6 -7.5q0 -2 -2 -8.5t-4.5 -13t-5.5 -11t-4 -4.5q-2 0 -2.5 2t-0.5 4q0 4 1.5 7.5t3.5 7t3.5 6.5t1.5 7q0 3 -3 4.5t-6.5 3t-7.5 2.5t-6 1q-1 0 -3.5 0.5
t-5.5 0.5t-5.5 0.5t-3.5 0.5l-1.5 1.5l-1.5 1.5v1z" />
</svg>
