<?xml version="1.0" standalone="no"?>
<!DOCTYPE svg PUBLIC "-//W3C//DTD SVG 1.1//EN" "http://www.w3.org/Graphics/SVG/1.1/DTD/svg11.dtd" >
<svg xmlns="http://www.w3.org/2000/svg" xmlns:xlink="http://www.w3.org/1999/xlink" version="1.1" viewBox="-10 0 266 256">
   <path fill="currentColor"
d="M151 244v4t3 3q2 -2 3 -3.5t2 -4.5q0 -1 0.5 -4.5t1.5 -7.5t1.5 -7.5t0.5 -5.5q2 -5 6.5 -8t9.5 -5.5t10 -4.5t8 -7q3 -4 5 -7.5t3 -7.5l2 -8t3 -9v-79q0 -5 -0.5 -10t-2.5 -9.5t-5 -8t-8 -5.5q-5 -1 -11 -1.5t-11 -4.5v-5q0 -4 1 -6.5t1 -5.5t-2 -4t-4 -1q-4 0 -5 4
t-1 9t-0.5 9t-2.5 5l-25 3q-4 0 -7.5 4.5t-3.5 7.5l-5 51v7q0 1 -0.5 6t-0.5 10.5v10.5v7v11.5t1 9.5t4 8t9 8t13 5.5t13 1.5q0 -4 -4 -6t-10 -4.5t-11 -5.5t-7 -8q-1 -1 -1 -3t0.5 -4t0.5 -4v-3l-0.5 -2t-0.5 -4t-0.5 -4l-0.5 -2v-3q0 -12 1.5 -24t3.5 -25q1 -6 0.5 -12.5
t0.5 -12.5t4.5 -10.5t11.5 -6.5q4 0 10.5 -1.5t10.5 -1.5q7 0 12 1t13 2q2 1 3.5 3.5t2.5 5t2 4.5t1 3q1 8 1 13.5t0.5 11t0.5 11.5v13v4v6v6v3q-2 9 -2.5 15.5t-1 11.5t-1 9t-3 7.5t-7 7.5t-13.5 10q-13 7 -18 18t-5 26zM54 156q0 2 -0.5 5.5t0 9t0.5 12t1 11.5t2 8.5
t3 4.5q6 4 13 4.5t14 0.5h7h5.5t5.5 -0.5t7 -1.5v-2v-2t-1 -2h-23q-1 0 -3 -3.5t-2 -4.5v0q0 -6 3.5 -8.5t7.5 -4t7 -4t3 -7.5v-31q0 -3 -2 -3.5t-4 -0.5v33q0 4 -4 6t-7 2t-3 -4q0 -11 1.5 -22t0.5 -22q3 -5 5.5 -5.5l5 -1t4 -3t1.5 -10.5q0 -1 -0.5 -4t-0.5 -4
q0 -2 -2.5 -2h-3.5v13q0 3 -3 5.5t-8 4.5t-11 4t-11 3.5t-9 3t-4 2.5v1q0 2 2 2h3q6 0 11.5 -2t12.5 -2v8.5v11.5v12v8v4t-0.5 6t-0.5 6v4q-1 3 -2.5 5.5t-4.5 2.5q-2 0 -4.5 -1t-2.5 -4v-7v-11v-11v-7v-3t-0.5 -4t-1.5 -3.5t-3 -1.5h-2t-2 2v4zM161 165v21q3 0 5 -2.5
t2.5 -6.5t0.5 -7v-5l2 -2h22l1 -1t2 -1v-1q0 -2 -2 -3t-4 -1h-4h-3h-2t-4.5 -0.5t-4.5 -0.5h-3q-1 -1 -1 -2v-3q0 -4 2.5 -5.5t6 -2.5t7.5 -1.5t5 -4.5q4 -7 4 -14.5v-14.5q0 -5 -2 -8t-5 -4t-7 -1.5t-8 -0.5v-14l1 -2q4 0 10.5 -0.5t11.5 -2.5l-5 -5h-17q-1 0 -1.5 -1
t-0.5 -3t-0.5 -3.5t-1.5 -1.5q-2 0 -3 1.5l-2 3t-1.5 3t-1.5 1.5q0 1 -0.5 2l-0.5 1h-19v5h19q3 0 3.5 2.5t0.5 4.5q0 6 -2 8t-4.5 3t-6 1.5t-6 3t-4.5 8t-2 16.5v5v5q3 5 7 6.5t7.5 2.5t6.5 2.5t3 6.5v2.5t-2 2.5h-29l-2 2l3 4h27zM143 122l0.5 -0.5t1.5 -0.5h17v17
q-8 0 -13.5 -3t-5.5 -13zM168 128q0 -1 0.5 -4t2.5 -3h15q0 1 -0.5 3t-1 4.5t-1.5 4t-3 1.5h-11l-0.5 -0.5t-0.5 -2v-1.5v-2zM162 100v14h-16q0 -8 3.5 -11t12.5 -3zM168 109v-2.5v-3.5t1 -3t2 -1h11q1 0 1.5 1t1 2.5t0.5 3.5v1v4q-2 2 -4 2h-5q-3 0 -5.5 -0.5t-2.5 -3.5z
M58 98q0 3 2 3h4q5 0 11 -1t11 -3t10 -5t8 -7v-6v-3v-4t-1 -3t-3 -1h-2t-1 1v13q0 1 -1.5 2t-3.5 2t-3.5 1.5t-2.5 0.5l-1.5 1t-3 1.5t-3 1.5l-1.5 1q-1 0 -3.5 0.5l-5 1l-5 1t-3.5 0.5t-1.5 0.5l-0.5 0.5v0.5v0.5zM60 61q0 2 1 3t2.5 1.5l3 1t2.5 0.5q4 0 11 -1t14 -3.5
t12 -6.5t5 -10q0 -4 -1.5 -6.5t-4 -4t-6 -2.5t-7.5 -2q-3 -1 -4.5 -4t-2.5 -6t-2 -5.5t-4 -2.5q-1 0 -3.5 0.5t-2.5 2.5q0 10 5 14t10.5 6t10 3t4.5 6q0 3 -3 5t-7.5 3.5t-8.5 2.5t-6 3h-17l-0.5 0.5l-0.5 0.5v1z" />
</svg>
