<?xml version="1.0" standalone="no"?>
<!DOCTYPE svg PUBLIC "-//W3C//DTD SVG 1.1//EN" "http://www.w3.org/Graphics/SVG/1.1/DTD/svg11.dtd" >
<svg xmlns="http://www.w3.org/2000/svg" xmlns:xlink="http://www.w3.org/1999/xlink" version="1.1" viewBox="-10 0 266 256">
   <path fill="currentColor"
d="M162 130v118q0 2 2 2h3h2t3 -2v-26q0 -13 -1 -25.5t-1 -25.5q0 -18 1 -35t1 -34q0 -3 -0.5 -5.5t-3.5 -4.5l-3 3q-1 7 -1.5 17t-1.5 18zM52 229q11 0 22 1.5t23 1.5h15l1.5 -0.5t1.5 -1.5v-1q0 -6 -5 -6q-6 0 -11.5 1t-10.5 1h-4t-4 -2v-3v-4v-6t0.5 -5.5t1 -5.5t1.5 -6
q1 0 4 -1t6.5 -2t6 -2.5t2.5 -4.5v-34q0 -1 -1 -3t-3 -2l-2 2v28q0 2 -1.5 3.5t-3 2l-3 1t-2.5 0.5q-3 0 -4.5 -2t-1.5 -4v-5v-5v-7.5v-7t0.5 -7t1.5 -8.5q1 -3 4.5 -4l7 -2t6 -2.5t2.5 -4.5v-18l-1.5 -1.5t-2.5 -1.5v-1q-3 0 -4 3.5t-2 7.5t-3 7.5t-6 3.5l-44 6q-2 0 -2 2
v0v1q0 1 1.5 2.5l1.5 1.5h32v84q0 2 -2 2h-2q-7 0 -13 -5q-2 -9 -3.5 -18.5t-1.5 -19.5q0 -6 1 -12t1 -12q0 -4 -1 -5.5t-4 -1.5q-1 0 -2 0.5l-1 0.5q-1 4 -1.5 8t-0.5 7v7v8v2v3.5v3.5v2q2 3 1.5 6t0.5 6q0 3 0.5 6.5l1 7t1 6l0.5 2.5zM150 161q-4 0 -8.5 4t-9.5 9.5
t-9 11.5t-7 10q-1 2 -1 5v5q4 0 10 -5.5t11.5 -12.5t9.5 -15t4 -12zM178 169q1 2 5 6t9 8t10 7t8 3q2 0 5 -0.5t3 -4.5v-1q-1 -2 -7 -6t-12.5 -8t-12 -7t-6.5 -3v0.5v0.5q-1 0 -1.5 2.5zM143 108q0 1 -1.5 3l-3 4l-3 4t-2.5 3q0 1 -0.5 1.5l-0.5 0.5q-2 2 -5.5 6t-5.5 7
t-3 3v4q2 0 5 -0.5t5 -1.5t5.5 -5.5t7 -9.5t6.5 -9.5t3 -7.5q0 -2 -1.5 -2h-2.5h-3zM185 114v1q0 1 3 5.5t6 8.5t6 7.5l3 3.5h12v-5q-6 -4 -12 -10.5t-10 -11.5l-2 -0.5t-3 -1.5h-1h-1q0 1 -0.5 1.5l-0.5 0.5v1zM43 91q0 3 1.5 3.5t4.5 0.5t8.5 0.5t11.5 0l12 -1t10.5 -3
t7.5 -6.5t3 -11v-3t-0.5 -4t-1.5 -3t-3 -1q-4 0 -5 2.5t-1 6.5t-0.5 7.5t-3.5 4.5q-2 0 -6.5 0.5t-10 1t-10.5 0.5h-7q-1 0 -4.5 1t-4.5 1l-0.5 1t-0.5 2zM118 65q0 5 2 11t7 8q2 0 6 0.5t9 0.5h9.5h6.5h8.5h10.5t8.5 -0.5t4.5 -0.5h3.5h4.5t4 -0.5t3 -0.5l3.5 -3.5
t2.5 -4.5v-30q0 -2 -2 -4t-5 -4t-5.5 -3.5t-3.5 -1.5h-45q-3 2 -6.5 3t-7.5 2t-7.5 2.5t-5.5 5.5q-1 3 -2 5.5t-1.5 4.5t-1 4.5t-0.5 5.5zM128 64q0 -3 1 -6t2.5 -6t4 -5t5.5 -2q2 0 4 4t4 9.5t3.5 11t1.5 8.5h-9q-4 0 -8 -1t-6.5 -4t-2.5 -9zM150 45q0 -2 0.5 -4t2.5 -2h14
l15 33v5h-17q-1 0 -4 -5t-5.5 -11t-4 -11zM176 41h19q2 0 3.5 2t2.5 5t1.5 5.5t0.5 3.5q0 3 0.5 6t-0.5 5l-2 4t-4 2q-4 0 -8 -4t-7 -9t-4.5 -10.5t-1.5 -9.5zM42 57q0 1 2 2.5t4 1.5h1l1.5 -0.5t3.5 -1t4 -1.5l2 -1q9 -1 16 -1.5t11.5 -2.5t7 -7t2.5 -15v-3v-3v-3v-2
q-3 -8 -9 -8q-4 0 -5 0.5t-1 4.5q0 2 0.5 4t1.5 4t2 4.5t1 4.5q0 6 -3.5 8.5t-8.5 4t-10.5 2.5t-10.5 1.5t-8.5 2t-3.5 4.5z" />
</svg>
