<?xml version="1.0" standalone="no"?>
<!DOCTYPE svg PUBLIC "-//W3C//DTD SVG 1.1//EN" "http://www.w3.org/Graphics/SVG/1.1/DTD/svg11.dtd" >
<svg xmlns="http://www.w3.org/2000/svg" xmlns:xlink="http://www.w3.org/1999/xlink" version="1.1" viewBox="-10 0 266 256">
   <path fill="currentColor"
d="M145 226q6 2 11 3.5t9.5 3t9.5 3t10 4.5q1 1 4 2.5t6.5 3.5t6.5 3.5t4 1.5l0.5 0.5t1.5 0.5t2 -1t1 -3q-1 -4 -5 -7.5t-9.5 -7t-11 -6t-8.5 -3.5q-12 -5 -22 -7.5t-20.5 -4t-22 -1.5h-23.5q-5 0 -5.5 -2t-0.5 -5q0 -6 3 -8.5t7.5 -6t7.5 -8.5t3 -14v-6t-0.5 -8.5
t-1.5 -7.5t-3 -3h-2.5t-1.5 2v31q0 1 -0.5 3t-2 3.5l-3 3t-2.5 1.5h-1h-1q-1 -7 -1 -13t-0.5 -12t-0.5 -11.5v-11.5v-3v-4q2 -1 4.5 -2t4.5 -2.5t3.5 -3t1.5 -4.5v-1q0 -1 -0.5 -2.5t-1 -3.5l-1 -4l-0.5 -2q-1 -1 -1.5 -2.5l-0.5 -1.5h-1q-2 0 -2.5 1.5t-1 3.5t-1 4.5
t-1.5 3.5q-4 4 -7 7.5t-6 6t-6.5 5t-7.5 4.5q-2 1 -4 1.5t-4 1.5t-3.5 2.5t-1.5 3.5q0 4 4 4h1h1l18 -9h5l1.5 7.5t0.5 5.5v5.5v5.5q0 10 -0.5 19.5t-1.5 20.5q0 1 -1 2l-2 2h-1q-2 0 -4 -2t-3.5 -4.5t-2.5 -5.5t-1 -5v-4v-6v-6v-4l-0.5 -1.5t-1.5 -2.5t-2 -2.5t-2 -1.5
t-1.5 1.5t-1 3.5t-1 3.5l-0.5 1.5v35l0.5 0.5t1.5 0.5q0 1 0.5 2t1.5 2l2 2l1 1q2 4 6 5t8.5 1.5t9 0t7.5 -0.5t11.5 0.5t17.5 0.5t17.5 0.5t11.5 0.5zM161 206l3 4q4 -3 5 -9t1.5 -12.5t1 -11.5t1.5 -5h21l5 -6q-2 -2 -5.5 -3t-7 -1.5t-7.5 0t-6 0.5q-2 -2 -2 -3.5v-3.5
q0 -5 2.5 -6.5t6.5 -1.5q3 0 5.5 1t6.5 1q2 0 4.5 -0.5t2.5 -3.5v-1q-1 -2 -4.5 -2.5l-7 -1t-6.5 -1t-3 -3.5q0 -5 3.5 -9t8 -6.5t8 -4t3.5 -2.5q0 -3 -2 -4.5t-5.5 -2t-6.5 -0.5h-4h-3q-2 0 -6.5 0.5t-10 1.5t-10 1.5t-6.5 0.5q-1 0 -3 1.5t-2 3.5l2.5 2t5.5 5.5t5 7t2 7.5
v0l-2 0.5t-4.5 1t-4 2t-1.5 3.5q0 3 2.5 3.5t5.5 0.5t6 0.5t4 3.5l-0.5 2t-0.5 4t-0.5 3.5t-0.5 2.5h-21l-0.5 1t-1.5 2v0v1q0 3 3 3.5t7 0.5h7t4 2q2 7 2.5 15.5t-0.5 15.5zM121 164q-2 3 -3 7t-1.5 9t-0.5 9.5v7.5q3 0 5.5 -5t4.5 -12.5t3 -18l2 -21t1.5 -20.5t1 -18
t1 -13t2.5 -5l40 -8q2 0 4.5 -2t4.5 -5t3 -5.5t1 -5.5v-3.5v-8t-1 -9.5t-2 -9t-2.5 -7t-4.5 -3l-1 0.5t-1 1.5v11v5.5t-0.5 9t-0.5 8.5v6l-1 1l-1 1q-4 3 -10.5 4.5t-12.5 3l-12 3l-10 2.5q-3 1 -5 4t-3.5 6.5t-2.5 7t-1 6.5q0 12 2 24.5t2 24.5v3t-0.5 5t-0.5 5v3zM159 120
l1 -1l1 -1q1 0 4 -0.5t5 -0.5v-0.5v-0.5q1 0 1 0.5v0.5q1 0 2.5 1t1.5 2q-1 1 -1.5 3t-1.5 4.5t-2 4.5t-2 3q-2 -1 -3 -3l-2 -4t-2 -4.5t-2 -3.5zM54 103q0 2 2 2.5t3 0.5q5 0 11.5 -3t12 -7.5t9.5 -10t4 -10.5q0 -1 -0.5 -4t-0.5 -4l-0.5 -0.5t-0.5 -1.5h-1q-1 0 -2.5 1.5
t-2.5 3.5t-1.5 4t-1.5 2q-7 8 -15 14.5t-16 11.5v0.5v0.5zM180 88q-1 0 -3.5 0.5t-5.5 0.5h-5h-3q-2 0 -5.5 0.5t-6 1l-2.5 0.5v3q0 1 2.5 1.5t5.5 1t5 0.5h3h5q3 0 5 -1t3.5 -2.5t1.5 -5.5zM52 67v4h7q4 -4 10.5 -8t12.5 -9.5t10 -11t4 -12.5v-5q0 -3 -1 -5.5t-2.5 -4.5
t-3.5 -3q-1 0 -1.5 1l-0.5 1q0 1 -0.5 2.5t-0.5 3t-0.5 3.5l-0.5 2q-1 1 -1.5 3.5t-2 5t-2.5 4.5l-1 2zM116 46v1l2 2h16h17q1 0 4.5 -0.5t8 -2t8 -3t3.5 -4.5q0 -2 -1.5 -2.5t-3.5 -0.5h-2q-3 1 -10 2t-15 2t-15 2t-10 1q0 1 -1 1.5l-1 0.5v1z" />
</svg>
