<?xml version="1.0" standalone="no"?>
<!DOCTYPE svg PUBLIC "-//W3C//DTD SVG 1.1//EN" "http://www.w3.org/Graphics/SVG/1.1/DTD/svg11.dtd" >
<svg xmlns="http://www.w3.org/2000/svg" xmlns:xlink="http://www.w3.org/1999/xlink" version="1.1" viewBox="-10 0 266 256">
   <path fill="currentColor"
d="M157 246q2 3 3 4t3 1q3 0 4 -2v-15q0 -23 -2.5 -46t-2.5 -46v-7q0 -1 1 -1.5t2 -0.5q4 0 6 3.5t3 7.5q0 2 0.5 4t1 5t1 5.5t0.5 3.5v7v11v12v6q0 2 0.5 4.5t1 5.5t1 5.5t0.5 3.5q1 0 1.5 0.5l0.5 0.5q3 0 4.5 -3t1.5 -5v-2q0 -3 -0.5 -9.5t-1 -13.5l-1 -14t-0.5 -9
q-2 -4 -2 -8t-0.5 -8l-1 -8t-2.5 -8q-2 -3 -5.5 -4t-6.5 -2.5t-5 -3.5t-2 -7q0 -2 0.5 -4t3.5 -3h6q12 0 17.5 5t7 12.5t1.5 17.5q0 9 2 19q0 5 1.5 8.5t1.5 8.5q0 6 -1 12t-1 13h8l1 -4v-3v-5q0 -3 -0.5 -11.5t-1.5 -18.5t-2.5 -21.5t-3.5 -20.5t-4 -15t-5 -6h-24
q-4 0 -4.5 -3t-0.5 -5t1.5 -4t3 -3.5l3 -3t1.5 -3.5v-26h11l2 2q0 3 1 9t3 12t5.5 10.5t6.5 4.5h3.5t1.5 -3v-0.5v-0.5q-6 -7 -8.5 -15t-2.5 -17q0 -3 0.5 -5t2.5 -2q3 0 5 1t5 1q6 0 6 -6q0 -2 -0.5 -2.5t-4.5 -1.5h-2.5t-4 -0.5t-4.5 -0.5h-3v-17q0 -3 -1 -5t-3 -2t-4 2
t-2 5q0 1 -0.5 3.5t-0.5 5.5t-0.5 5.5t-0.5 3.5q-1 3 -2.5 3.5t-3.5 0.5h-3q-1 0 -2 -2l-3 -24q-1 -1 -2 -1q-4 0 -5 2.5t-1 5.5t1 5.5t1 6.5v7q-2 1 -3.5 1.5t-3.5 0.5t-5 -1.5t-3 -4.5v-20q0 -1 -1.5 -1.5t-2.5 -0.5t-2.5 0.5t-1.5 3.5v25h-13v-18q0 -2 -2.5 -4t-4.5 -2
q-1 0 -3 1.5t-2 3.5v17l-2 3l-2 0.5t-4.5 0.5t-4.5 0.5t-3 0.5q-2 0 -4 1t-2 4v1.5t2 1.5q4 3 8.5 2.5t9.5 -0.5l2 1v1v2.5v2.5v2q0 8 -2 14.5t-2 13.5q6 0 9.5 -4t4.5 -9.5t1 -11.5v-11q0 -2 1 -3t2.5 -1.5t3.5 -0.5h3h1.5h2.5q-1 8 0 15.5t6 13.5q1 2 2.5 2.5t2.5 1.5l2 2
t1 3q0 3 -1.5 4.5t-3.5 2l-4 1t-4 0.5q0 1 -2.5 1t-4.5 0.5l-4 1t-3 0.5q-3 1 -6 4.5t-4 5.5q-1 3 -2 8.5t-1.5 11.5l-1 12t-0.5 9v2t0.5 3t0.5 3.5v1.5v1q0 8 -0.5 15.5t-0.5 15.5v4q0 1 1 1.5t2 0.5h1q3 0 5 -3q1 -8 1.5 -15t0.5 -13q0 -7 -0.5 -14t0.5 -15
q0 -8 0.5 -13.5t3 -10t7 -6.5t12.5 -2h6q1 3 1.5 5.5t0.5 5.5t-2.5 4.5t-6 4t-6 7.5t-2.5 14v4q0 4 -0.5 8.5t-0.5 9.5v8v6q0 5 0.5 9.5t0.5 8.5v6t1 2l2 2v0h1v0v0l2 -2t1 -2v-65q0 -2 1 -6t5 -4q2 0 3 1.5t2 4.5v4v7v6.5v4.5l1 3l1 3q0 19 1 39t0 39zM52 198q2 5 5.5 7
t8.5 3t10 0.5t9 -0.5h3h4h5h3q2 -1 2.5 -2t0.5 -3v-1q0 -1 -0.5 -2.5l-0.5 -1.5h-21q-1 0 -1 -2v-3q0 -7 2.5 -10t5.5 -5t6 -3t3 -4v-38q0 -4 -2 -5.5t-6 -1.5v37q0 1 -1.5 3t-2.5 2h-1q-2 0 -3.5 -5.5t-2 -13.5t-1 -15.5t-0.5 -10.5t2 -4t4.5 -2t4.5 -2t3 -4v-1.5t0.5 -3.5
t0.5 -4v-4v0q0 -3 -1.5 -4.5t-3.5 -1.5h-2v0l-4 14q0 1 -1.5 2t-4 2t-5 2.5t-4.5 1.5q-1 1 -4 1.5t-6.5 1.5t-6 2.5t-3.5 4.5q-1 1 -0.5 2t1.5 1h2h1q6 0 11 -2.5t10 -2.5v7v10v10v6q0 8 1.5 16t1.5 16v2q-1 1 -2 4.5t-1 4.5h-1q-3 0 -6 -1t-4 -3q0 -13 -1 -26.5t-2 -24.5
q-1 -2 -1.5 -2h-1.5q-2 0 -3.5 0.5t-1.5 2.5q0 13 1 27t2 27zM54 89q-4 2 -4 7q4 0 11 -0.5t13 -2.5t10.5 -5.5t4.5 -9.5q0 -3 0.5 -5.5t-0.5 -5t-2.5 -4t-4.5 -1.5q-2 0 -3 1.5t-1 3.5q0 3 1 4t1 4q0 4 -4 6t-7 3q-1 1 -3 1.5t-4.5 1t-4.5 1.5t-3 1zM146 63v-2t0.5 -4.5
t1 -4t2.5 -1.5h12v19q0 2 -1.5 3t-3 1.5t-2.5 0.5h-3q-2 0 -3 -1.5t-1.5 -3.5l-1 -4t-0.5 -3zM49 58q0 3 1 5q1 1 4 1h3q4 0 10 -2t11.5 -5.5t9 -8t1.5 -10.5l-6 -22l-0.5 -1t-1.5 -1v0h-1q-1 0 -2 0.5t-2.5 0.5t-2.5 1t-1 2v1q2 5 4 9t2 9q0 7 -4.5 10t-10 4.5t-10 2.5
t-4.5 4z" />
</svg>
