<?xml version="1.0" standalone="no"?>
<!DOCTYPE svg PUBLIC "-//W3C//DTD SVG 1.1//EN" "http://www.w3.org/Graphics/SVG/1.1/DTD/svg11.dtd" >
<svg xmlns="http://www.w3.org/2000/svg" xmlns:xlink="http://www.w3.org/1999/xlink" version="1.1" viewBox="-10 0 266 256">
   <path fill="currentColor"
d="M195 197q0 14 -2.5 26.5t-2.5 26.5q3 0 5 -1.5t4 -4.5q2 -6 2.5 -11t0.5 -9.5v-8.5v-11v-11v-12.5t-0.5 -12.5t-0.5 -10q-1 -7 -5.5 -10.5t-10 -5t-11.5 -1.5h-11q-4 -1 -4.5 -3.5t-0.5 -5.5q0 -5 3.5 -7.5t9.5 -3t12.5 -1t12 -3t9.5 -7t4 -14.5q0 -6 -1.5 -10.5
t-6.5 -7.5h-8q-10 0 -20 2t-21 1q-1 0 -1.5 1l-0.5 1q0 1 -0.5 2.5l-0.5 1.5h14q2 0 2.5 2t1 5t0.5 5v3q0 7 -2.5 10t-5.5 5t-5 3.5t-2 5.5v20l1 2q1 0 2.5 1l1.5 1h29q1 0 2.5 3.5t2.5 8l2 9t1 5.5v4t0.5 6.5t0.5 6.5v4zM124 233v4t3 2q1 0 2.5 -1.5t3 -3.5t2 -4l0.5 -2
v-123q-2 -7 -1.5 -15.5t0.5 -17t-0.5 -16t-4.5 -13.5q-1 0 -4.5 -0.5t-7 -0.5t-7 -0.5t-4.5 -0.5t-3.5 -0.5l-2.5 -0.5q-1 -1 -1 -3v-3q0 -4 1 -8t6 -5l31 -3l1.5 -0.5t1.5 -1.5v-1v0q0 -1 -0.5 -2t-1.5 -2h-7h-7q-3 0 -9 0.5t-13.5 0.5t-15.5 0.5t-15.5 1t-13 0.5t-8.5 1
q-1 0 -1.5 0.5l-0.5 0.5q0 1 0.5 3t1.5 2q0 1 0.5 1.5l0.5 0.5h40v17q0 1 -4.5 2t-10.5 2.5t-11.5 4.5t-8.5 9v21q0 8 -0.5 18t-1 21l-1 22t-1 19.5t-1 14l-0.5 5.5l-1 4v53q0 1 1 1.5t2 0.5t2 -0.5t1 -1.5q1 -2 2 -6t1 -7.5v-6.5v-5q1 -1 1 -5v-9t-0.5 -9t-0.5 -5
q1 -2 1 -8t0.5 -12t0.5 -12v-8q3 -2 8.5 -7t10.5 -10.5t10 -10t7 -4.5q3 0 5 2t4 5t4 5.5t3 4.5q2 1 4.5 1.5t5 1.5t4 3t1.5 4q0 24 -1.5 47.5t-1.5 47.5zM65 58q2 -3 5 -4.5t6.5 -2l7 -1t6.5 -0.5v53q-3 3 -6 7t-7 8l-7.5 7.5t-8.5 3.5q0 -18 1 -36t3 -35zM100 96
q0 -2 -0.5 -7t-1 -10.5t-0.5 -10.5v-7v-4v-4l2 -1t3 -1h3.5t5.5 -0.5t5.5 -0.5h3.5l2 1t2 2v60q0 2 -1.5 3.5t-3.5 1.5h-3q-5 -4 -10 -9.5t-7 -12.5zM189 86q7 0 8.5 2.5t1.5 8.5q0 1 -0.5 3t-1 4.5t-2 4.5t-2.5 2h-17v-22l0.5 -0.5t1.5 -0.5t2.5 -0.5t3.5 -0.5t3.5 -0.5z
M155 55q0 2 2.5 5t5.5 3h28q5 0 7 -2.5t3 -6t1 -8v-6.5t0.5 -5t0 -6t-1.5 -5t-4 -3h-2t-5 -0.5t-6 -0.5h-5h-1h-2q-1 0 -3 0.5t-4.5 1t-4.5 1l-2 0.5q-3 1 -4.5 4t-2 6t-0.5 6.5v5.5v4.5v5.5zM185 28q5 0 8 3t3 8q0 6 -2.5 9.5t-6 5t-8 2t-9.5 0.5q-2 0 -4.5 -1t-2.5 -4v-18
q0 -2 3.5 -3t7.5 -1.5t7.5 -0.5h3.5z" />
</svg>
