<?xml version="1.0" standalone="no"?>
<!DOCTYPE svg PUBLIC "-//W3C//DTD SVG 1.1//EN" "http://www.w3.org/Graphics/SVG/1.1/DTD/svg11.dtd" >
<svg xmlns="http://www.w3.org/2000/svg" xmlns:xlink="http://www.w3.org/1999/xlink" version="1.1" viewBox="-10 0 266 256">
   <path fill="currentColor"
d="M191 243q0 2 1 4t3 2q4 0 6 -2t3 -5t1.5 -6.5t0.5 -6.5v-8q0 -3 -2 -7v-37q0 -3 -0.5 -6.5t-2 -7t-4 -6.5t-6.5 -3h-26q-4 0 -5.5 -3t-1.5 -5q0 -6 4 -8.5t9.5 -3.5t12 -1.5t12 -1t9 -1.5t3.5 -5v-27q0 -3 -2.5 -5t-4.5 -2q-1 0 -2.5 0.5t-3.5 1t-3.5 0.5h-1.5h-36
q-1 1 -1.5 2l-0.5 1v1v1q0 1 0.5 1.5t1.5 0.5h15l2 3v2t0.5 4.5t0.5 5v4.5v1q0 4 -3 6t-6.5 4t-6.5 5.5t-3 10.5q0 1 0.5 4t1.5 6t2 5t3 2h30q1 0 2 4.5t1.5 10.5t1 11.5t0.5 6.5q0 12 -2 24t-2 23zM125 143q-3 5 -3 9t-1 9q-3 12 -7 24t-6 24q-1 5 -3 9l-4 8t-3.5 8.5
t-1.5 9.5q6 0 10.5 -6t7.5 -14.5t5 -17t3 -11.5q3 -10 5.5 -20.5t4.5 -20.5q0 -1 0.5 -3.5t1 -5.5t1 -5.5l0.5 -2.5q2 -9 4.5 -19.5t1.5 -19.5q0 -5 -3.5 -7.5t-7.5 -4t-7.5 -4t-3.5 -7.5q0 -7 1.5 -11t4.5 -5.5t8 -2t11 -0.5q2 -1 2.5 -2t0.5 -3v-1.5t-1 -1.5h-2.5h-3.5h-4
h-2q-15 0 -29.5 1.5t-29.5 3.5q-1 0 -4.5 0.5t-7 0.5h-7h-5.5q-3 2 -3 5q0 4 2 4.5t5 0.5q2 0 4 0.5t2 3.5v3.5t-2 3.5q0 2 -0.5 7t-1 10.5t-1 10t-0.5 6.5v11q0 6 0.5 10.5t2.5 7t6.5 3.5t11.5 1l2.5 -0.5t3.5 -0.5l0.5 -0.5l0.5 -0.5v-1q0 -3 -3 -3.5t-7 -2t-7 -5
t-3 -11.5t1.5 -16t1.5 -16q0 -1 0.5 -4t0.5 -6t0.5 -5.5t0.5 -3.5q1 -3 4 -4t5 -1h2.5t0.5 2v5q0 13 -4 25t-7 24v0.5v0.5q0 4 4 4q5 0 6 -5t2 -11.5t2.5 -12t5.5 -5.5q2 0 3 2t1.5 5t1 5.5t0.5 3.5q0 9 -2 17t-4 15.5t-5 15t-5 15.5t-4 16.5t-6 16.5q-1 3 -4 8t-5.5 10
t-4 10t-1.5 9q0 2 1.5 2.5t3.5 0.5q3 0 6 -4t5.5 -10t4 -12t2.5 -8q1 -1 2 -3.5t2 -6t2.5 -6.5t1.5 -4q2 -3 3 -10t2.5 -14t2.5 -13.5t3 -10.5q1 -1 2.5 -1.5l3 -1l3 -1t2.5 -2.5q0 -1 1 -3.5t1.5 -5.5t1.5 -5.5t1 -3.5q0 -2 0.5 -6t1.5 -7.5t3 -6.5t5 -3t5 1.5t4 5.5v3v4v4
v3q-1 2 -1.5 6.5t-1.5 9.5t-2 9t-2 6zM113 193q1 0 1 2q0 1 -1 1t-1 -1q0 -2 1 -2zM89 78v-2v-3q0 -9 3.5 -11.5t11.5 -2.5h4h3q2 0 2 2.5v2.5q0 2 -0.5 7t-1 11.5t-1.5 13.5t-2.5 13t-3 10t-2.5 5v-34q0 -2 -1.5 -3.5t-4 -3t-4.5 -2.5t-3 -3zM180 117v-3v-5.5t1 -5t3 -2.5
h14l4 5v13q0 2 -2 3t-4.5 1.5t-5.5 0.5h-2h-4h-2l-2 -2v-5zM162 56q0 4 2 7t5 5t6.5 3t7.5 1q2 0 6 -0.5t8 -2t7 -4t3 -6.5v-24l-6 -6h-24l-2 0.5t-3 0.5l-6 6t-3 5t-1 6.5v8.5zM171 51q0 -8 5.5 -11t12.5 -3q4 0 7.5 3t4.5 8q0 4 -1.5 7t-5 5t-7 3t-6.5 1q-5 0 -7.5 -4
t-2.5 -9zM67 30q0 3 2.5 4t4.5 1q12 0 23 -2t22 -3h2h4h4h3q2 0 4 -2.5t2 -4.5t-0.5 -3t-2.5 -1h-6.5t-12.5 1t-16 1.5t-16 2t-12 3t-5 3.5z" />
</svg>
