<?xml version="1.0" standalone="no"?>
<!DOCTYPE svg PUBLIC "-//W3C//DTD SVG 1.1//EN" "http://www.w3.org/Graphics/SVG/1.1/DTD/svg11.dtd" >
<svg xmlns="http://www.w3.org/2000/svg" xmlns:xlink="http://www.w3.org/1999/xlink" version="1.1" viewBox="-10 0 266 256">
   <path fill="currentColor"
d="M193 249l3 2h1q4 0 5 -2.5t1 -5.5v-6v-7.5v-7.5v-6v-22.5t-2 -23.5q-1 -9 -3.5 -14.5t-7 -8t-11 -3.5t-15.5 -2h-3.5t-5 -0.5t-5.5 -1t-4 -0.5q-2 0 -2.5 -2t-0.5 -5q0 -6 4.5 -8.5t10.5 -3.5t13.5 -0.5t14.5 0t11.5 -2.5t5.5 -7q0 -1 0.5 -2.5t0.5 -4t0.5 -4.5t0.5 -4v0
q0 -1 -0.5 -3.5t-1 -4.5t-2 -3.5t-3.5 -1.5h-59q-2 0 -4.5 1t-2.5 3l0.5 1t1.5 2l0.5 1l0.5 1l26 -4v21q0 3 -4 4.5t-9.5 3t-9.5 5.5t-4 11q0 5 1 9.5t7 5.5q4 0 10 0.5l12 1t11.5 2t9.5 5.5q5 10 7 21.5t2 24v24.5t-1 22zM57 148q4 7 11 9.5t15 2.5q13 0 20.5 -3t12 -8
t5.5 -13.5t1 -20.5v-6v-11v-13v-13v-10v-7l0.5 -2t0.5 -4.5t0.5 -4.5t0.5 -3v-2t-0.5 -4.5t-1.5 -4t-3 -1.5q-3 0 -4.5 1.5t-1.5 4.5v27q0 3 -0.5 3.5t-2.5 0.5q-3 0 -5 -1t-3.5 -3l-3 -4t-2.5 -4v-39q0 -1 -1 -1.5t-2.5 -1l-3 -1l-1.5 -0.5q-2 0 -3 0.5t-1 2.5q0 4 1 7v30
q0 2 -1 3t-2.5 2l-3 2t-2.5 2l-1 1t-2 2.5t-1.5 2l-0.5 0.5q-1 1 -3 0t-3 -1q0 -6 0.5 -10.5t0.5 -10.5v-12q-1 -2 -3.5 -3.5t-4.5 -1.5t-2.5 0.5t-0.5 2.5v62l-2 3v28q1 0 1.5 2t0.5 3t0.5 4t0.5 6.5t0.5 6t0.5 3.5zM65 133v-2.5t3 -0.5q1 -1 5 -1.5t8.5 -1t8 -0.5t5.5 -1
l3 -0.5t4 -0.5h1q4 0 6 1.5t2 4.5q0 2 -0.5 5t-1.5 6t-3.5 4.5t-5.5 1.5h-23q-2 0 -4 -1.5t-4 -4t-3 -5t-1 -4.5zM69 98h4.5h6.5h6h4t3 -0.5t5 -0.5t5.5 -0.5l2.5 -0.5q3 0 5.5 1.5t2.5 4.5q0 2 0.5 4.5t0 5t-1 4.5t-2.5 2h-4t-6 0.5t-6 0.5h-3h-5t-6 -0.5t-6 -0.5h-3
t-4 -0.5l-3 -0.5v-16q0 -1 2 -2zM171 102v-2.5t0.5 -4t1.5 -4t3 -1.5h14q1 0 2 1t1.5 2.5t1 3.5t0.5 3q0 7 -4 9.5t-11 2.5q-5 0 -7 -1.5t-2 -8.5zM65 88q0 -2 3 -6t7 -8t8.5 -7.5t6.5 -3.5t5 2.5l6 5l6 5t4 3.5q3 2 2.5 5t-0.5 6h-47l-0.5 -0.5t-0.5 -1.5v0zM150 66
q1 0 3.5 0.5t6 0.5t6 0.5t3.5 0.5h3h2q1 0 3.5 -0.5t5.5 -0.5t5.5 -0.5t3.5 -0.5q3 -2 5 -5t3 -7t1 -8v-8q0 -5 -3 -7.5t-7 -3.5t-9 -1.5t-8 -0.5q-6 0 -11.5 0.5t-10 3t-7 6t-2.5 10.5q0 2 0.5 5t1 6.5t2 6.5t3.5 3zM153 55v-2.5v-4.5v-3t0.5 -3.5t1.5 -3t3 -1.5
q7 -2 11.5 -2h10.5h4h3q3 1 3 5v7v2.5v3.5q-2 2 -4.5 3.5t-5.5 2t-6 0.5h-6h-4t-4 -0.5l-4 -1t-3 -2.5z" />
</svg>
