<?xml version="1.0" standalone="no"?>
<!DOCTYPE svg PUBLIC "-//W3C//DTD SVG 1.1//EN" "http://www.w3.org/Graphics/SVG/1.1/DTD/svg11.dtd" >
<svg xmlns="http://www.w3.org/2000/svg" xmlns:xlink="http://www.w3.org/1999/xlink" version="1.1" viewBox="-10 0 266 256">
   <path fill="currentColor"
d="M193 248q0 2 1 2.5t2 0.5q3 0 5 -2.5t3 -5.5v-3v-5.5v-5.5v-4q0 -5 -0.5 -13.5t-1.5 -18t-2.5 -17.5t-4.5 -13q-2 -3 -5.5 -4t-7.5 -1h-7q-4 0 -7.5 -0.5t-5.5 -3t-2 -7.5q0 -6 3.5 -8.5t8 -3t10.5 -0.5t10.5 -2t8 -6.5t3.5 -14.5v-6t-0.5 -5t-2.5 -4t-5 -4h-4h-4
q-8 0 -15 1t-16 1q-2 1 -3 2t-1 4h15l0.5 2t0.5 4v10v10q-1 2 -3.5 3.5t-5.5 2.5t-5 3t-2 5v19q0 1 2.5 3t3.5 3q3 2 7 1.5t8 -0.5t7.5 0.5t5.5 2.5l5 8v4t0.5 6.5t0.5 6.5v4v49zM67 234q0 4 4 4q3 0 5.5 -4t4 -8.5t2.5 -9.5t2 -7q0 -2 1 -7.5t2 -11.5t1.5 -12t1.5 -9v-6v-4
t0.5 -6.5t0.5 -6.5v-4q1 -2 3.5 -2.5t5.5 -0.5q2 0 4 0.5t4 4.5q0 1 -0.5 4t-0.5 6t0.5 6t0.5 4v5.5v9t0.5 9t0.5 5.5v10.5v10.5q0 6 0.5 11.5t2.5 10.5q0 1 2 1h3q3 0 3.5 -1.5t0.5 -4.5q0 -18 -2.5 -36.5t-2.5 -36.5v-17q1 -1 5 -1.5l8 -1t6.5 -1.5t1.5 -4t-2.5 -3.5
t-4.5 -0.5q-4 0 -7.5 0.5t-7.5 0.5h-7q-3 -1 -3.5 -4.5t-0.5 -6.5v-3.5t0.5 -5t1.5 -4t3 -1.5q4 0 8 2.5t7.5 5t6.5 5t6 2.5q2 0 3.5 -1.5t1.5 -2.5q-1 -6 -5.5 -8.5t-9.5 -4.5t-10.5 -3.5t-7.5 -4.5q-1 -2 -2 -5t-2 -6.5t-2 -6t-2 -2.5h-1l-0.5 1l-0.5 1q0 1 -0.5 3t-0.5 4
t-0.5 3.5t-0.5 2.5t-0.5 2l-0.5 1q-5 4 -10.5 6t-11.5 4t-11 4.5t-9 8.5v0v1q0 2 1.5 2.5t2.5 0.5q3 0 7.5 -2.5t10 -6t10.5 -6.5t8 -3h2t1 2v26l-3 2h-33q-1 0 -2 2.5t-1 3.5q0 2 1.5 3t3.5 1h3h2.5t4 -0.5t4 -0.5h2.5t1.5 0.5l0.5 0.5q0 1 0.5 4t0.5 4q0 3 -1 10.5
t-2 15.5t-1.5 15.5t-1.5 10.5q0 3 -2 7.5t-3.5 8.5l-3 8t-1.5 8zM177 113v-2.5t0.5 -3.5t1.5 -3.5t2 -1.5h11q1 0 1.5 1t1 2.5t0.5 3v1.5q0 3 -0.5 5.5t-1.5 5t-3 4t-5 1.5q-2 0 -3.5 -1.5t-2.5 -3.5t-1.5 -4t-0.5 -4zM52 89v2.5t2 1.5q1 0 5 -2t9 -5.5t10.5 -7.5t10 -8
t8 -7.5t3.5 -5.5v-34q0 -1 -2 -2t-3 -1t-2 0.5t-1 2.5v32l-1 0.5t-2 0.5h-1v0l-2 -1q0 -1 -1.5 -3l-1.5 -2v-36q0 -2 -1.5 -4.5t-3.5 -2.5h-1h-1q-1 1 -1.5 3t-0.5 3t0.5 5t0.5 8.5t0.5 8t0.5 5.5v1q0 4 -1.5 6t-4.5 2q-5 0 -6.5 -4.5t-1.5 -9.5v-10.5t-3 -4.5t-3.5 3
t-0.5 5q0 6 1 14t2 14l1 0.5t2 0.5t3 0.5t4 0.5q3 0 5 -0.5t3 -0.5q2 1 1.5 3.5l-0.5 2.5q0 5 -3 7l-6 4q-1 1 -3 2.5t-5 4t-5 4t-3 2.5v2zM110 62q0 3 5 7.5t12 8.5t13.5 6.5t9.5 2.5q2 0 3.5 -1t1.5 -3q0 -3 -3 -5t-7 -3t-7.5 -2t-5.5 -1v-10l2.5 -1.5t5.5 -3l6 -3t4 -2.5
q0 -2 0.5 -6l1 -8l1 -8t0.5 -5v-2q0 -2 -0.5 -2.5t-4.5 -3.5v0h-1q0 1 -0.5 1.5l-0.5 0.5v15q0 1 -0.5 3.5t-0.5 5t-0.5 4l-0.5 1.5l-10 4v-38l-0.5 -0.5t-1.5 -0.5q0 -1 -1 -1.5t-2 -0.5t-2 2.5l-1 2.5v6.5v9.5v10v6v4.5t-0.5 5.5t-2 5t-3.5 2q-1 0 -1.5 -0.5t-1.5 -2.5
q-2 -10 -2 -21q0 -12 1 -21q-1 -1 -1.5 -1h-1.5q-2 0 -3.5 0.5t-1.5 2.5q0 1 0.5 1.5t0.5 1.5v7v11t0.5 11.5t0.5 7.5zM162 52v7.5t1.5 8.5t4 6.5t7.5 2.5q9 0 14 -1t7.5 -3.5t3.5 -7.5t1 -13v-4.5t-0.5 -6.5t-2 -5.5t-3.5 -3.5h-5h-4q-5 0 -9.5 1t-7.5 3t-5 6t-2 10z
M169 53v-4v-3q1 -2 3 -2.5l4 -1t4.5 0t3.5 0.5h8q1 1 1 3v4q0 7 -2 12.5t-11 5.5q-7 0 -9 -3.5t-2 -11.5z" />
</svg>
