<?xml version="1.0" standalone="no"?>
<!DOCTYPE svg PUBLIC "-//W3C//DTD SVG 1.1//EN" "http://www.w3.org/Graphics/SVG/1.1/DTD/svg11.dtd" >
<svg xmlns="http://www.w3.org/2000/svg" xmlns:xlink="http://www.w3.org/1999/xlink" version="1.1" viewBox="-10 0 266 256">
   <path fill="currentColor"
d="M186 248q0 3 3 3h0.5h0.5q1 -1 3.5 -3t2.5 -3q0 -2 0.5 -7t0.5 -11t0.5 -11t0.5 -7v-1v0q0 -3 -0.5 -7t-0.5 -7.5t-0.5 -6.5l-0.5 -3q0 -3 -0.5 -8t-1.5 -10.5t-2 -9.5t-3 -5q-1 0 -3 -1t-3.5 -1.5l-3 -1l-1.5 -0.5q-1 0 -4 -0.5t-6 -0.5t-6 -0.5t-4 -0.5
q-2 -1 -3.5 -2.5t-1.5 -3.5q0 -8 4.5 -11t10.5 -4.5t12.5 -2t11.5 -0.5q5 -1 6 -6t1 -10q0 -10 -4 -14.5t-15 -4.5q-10 0 -21 -0.5t-21 3.5v1v2t2 1h24v19q0 4 -3 5.5t-6.5 2.5t-6 2.5t-2.5 4.5v20q0 2 1 3.5t3 2.5t4 1.5t4 1.5h4.5t7 0.5t7 0.5h5.5t3 4t2 8.5t1.5 9
t0.5 5.5v18v19q-3 5 -3 13v14zM66 234q0 1 1 1.5l1 0.5h1q3 0 3.5 -3t0.5 -4q0 -6 -1 -11.5t-2.5 -11t-2.5 -11t-1 -11.5q0 -3 2.5 -6t5.5 -3h2h1q1 3 3 11t4.5 17t5 16t4.5 7q1 0 2.5 -0.5t1.5 -1.5q0 -6 -2 -12.5t-4.5 -12.5t-4 -12t-1.5 -13q0 -3 2 -5.5t6 -2.5h1h2
q1 8 3.5 15.5t3.5 15.5q1 4 1 8.5t0.5 9t1.5 9t3 8.5q1 1 1.5 1h1.5q3 0 4 -2t1 -4v-1.5v-1.5l-12 -51q-2 -3 -3 -7t-2 -8.5t-2.5 -8.5t-3.5 -7q-3 0 -6.5 -1t-6.5 -3t-5.5 -5t-2.5 -6v-2.5t2 -1.5h4h4h9.5t9.5 3q2 2 4 7.5t4.5 13t4.5 16t4 15.5t4 11.5t4 4.5q3 0 4 -1
q0 -1 0.5 -3.5l0.5 -2.5q0 -7 -3.5 -13.5t-6.5 -13.5q0 -2 -2 -7t-4 -10.5t-3.5 -10.5t-1.5 -7q-2 -6 -8 -7.5t-13 -2t-12.5 -1.5t-5.5 -4v-12h5h9h8h6q4 0 7.5 1.5t5.5 4.5t3.5 6.5t3.5 6.5q0 1 0.5 2l0.5 1q1 1 2 4.5t2 6.5t2 5.5l1 2.5q1 0 4 0.5l3 0.5q0 -6 -2 -13.5
t-5.5 -15t-9 -13t-10.5 -6.5q-2 -1 -6.5 -1.5t-10 -1t-10 -1t-6.5 -1.5l-3 -3v-2.5v-4.5q0 -12 0.5 -23.5t0.5 -23.5v-4.5t-3 -2.5h-2.5t-1.5 2t-0.5 7t-0.5 10.5v10.5v8v2t-0.5 5t-0.5 6v4v5t0.5 5.5t0.5 5.5v2v7v11t0.5 11t0.5 7q0 5 3.5 7t8 4.5t7.5 5t3 6.5t-2.5 5.5
t-6 2.5t-8 2t-8 4.5t-6 9.5t-1.5 17l1 1q3 9 4 18.5t4 18.5zM171 109v-2q0 -2 0.5 -4t0.5 -3.5t0.5 -3l0.5 -1.5l1 -2h13q1 0 2 1t1 2.5v3v1.5q0 13 -12 13q-3 0 -5 -1t-2 -4zM89 68q0 6 4.5 8.5t10.5 3.5t12 1h9v-4t-2 -3q-1 0 -3 -0.5t-5 -1t-5.5 -1t-3.5 -0.5
q-2 -1 -4.5 -1.5t-4.5 -1.5v-2v-2q0 -4 2 -5.5t5.5 -2t7.5 -0.5t7.5 -1t6 -4t2.5 -9q0 -5 -3.5 -7.5t-8.5 -4t-10 -1.5h-8q-2 -1 -3 -4t-1.5 -6t-1.5 -5.5t-3 -2.5q-1 0 -1 1q-1 0 -2 0.5l-1 0.5v4q0 1 0.5 4.5t1.5 7t2 6t2 2.5h23q2 0 4 3t3 4q-3 4 -6.5 5.5t-7 2t-7.5 0.5
q-3 0 -5.5 1t-4 4.5t-1.5 10.5zM144 58q0 6 1.5 9.5t7.5 6.5h5h5h6t10 -1t9 -2.5t4 -4.5v-23q0 -3 -2.5 -4.5t-5.5 -2.5t-6 -1h-4h-1q-2 1 -5 1.5t-6.5 1.5t-6 2t-3.5 1q-4 1 -5.5 2.5t-2 4t-0.5 4.5v6zM152 56q0 -3 1 -6.5t6 -3.5h23l0.5 1t0.5 2v3v3v4v3q-1 1 -2.5 2
t-2.5 1l-1 0.5t-2 0.5h-19q-1 0 -2 -1t-1.5 -3t-0.5 -3.5v-2.5z" />
</svg>
