<?xml version="1.0" standalone="no"?>
<!DOCTYPE svg PUBLIC "-//W3C//DTD SVG 1.1//EN" "http://www.w3.org/Graphics/SVG/1.1/DTD/svg11.dtd" >
<svg xmlns="http://www.w3.org/2000/svg" xmlns:xlink="http://www.w3.org/1999/xlink" version="1.1" viewBox="-10 0 266 256">
   <path fill="currentColor"
d="M117 184q-1 1 -3 1t-4.5 0.5t-5 0.5h-2.5h-5.5t-7.5 0.5t-7 2.5t-3 5v18q0 3 5 4.5t13.5 2t17.5 0.5q10 0 20 0.5t18 2t12 5.5q1 1 3.5 5l5 8t5.5 7.5t5 3.5q3 0 4.5 -3t1.5 -5q0 -5 -4.5 -10.5t-11 -11t-13 -9t-10.5 -4.5q-2 0 -8 0.5t-13 0.5t-13 -0.5t-8 -0.5h-3.5h-5
t-5 -0.5l-2.5 -0.5q-2 0 -2 -2v-3q0 -4 3.5 -6t8 -2.5l9 -1t6.5 -0.5q3 0 9 -0.5t13.5 -1t14 -1t8.5 -0.5q5 -1 7 -5t2 -9q0 -4 -1.5 -8.5t-5.5 -6.5h-13h-10q-6 0 -10 2h-54q-3 0 -6.5 1.5t-3.5 4.5t3 4.5t5 1.5q9 0 17.5 -2.5t17.5 -2.5q4 0 6.5 2t2.5 7q0 2 -0.5 3.5
t-2.5 2.5zM129 179q0 -5 2 -8t7 -3h1q1 0 3.5 0.5t5.5 0.5t5.5 0.5t3.5 0.5q2 1 2 4q0 4 -3 6t-7 2.5t-8 0.5h-6h-5l-0.5 -1t-0.5 -2v-1zM95 142v3t0.5 3.5t1.5 3t3 1.5h3h5.5h5.5h3h13t12.5 -1t9.5 -5t4 -13q0 -4 -2 -7t-5.5 -4.5t-7.5 -2t-8 -0.5h-14t-14 1q-4 1 -6 3
t-2.5 5t-1 6.5t-0.5 6.5zM103 139q0 -5 2 -7t5.5 -3t7 -0.5t7.5 0.5h13q3 0 5 1.5t2 5.5q0 3 -2 5t-6 3t-7.5 1.5t-6.5 0.5h-5.5t-6.5 -0.5t-5.5 -2t-2.5 -4.5zM171 103q4 0 8 4.5t7 10.5t5.5 11.5t3.5 8.5h1h2q3 0 5.5 -2t2.5 -5q0 -5 -3.5 -9.5t-7 -8.5t-6.5 -8t-3 -8
q0 -1 0.5 -2.5t2 -3t2.5 -3t1 -3.5v-2.5v-4.5v-5v-3l1 -1q1 -1 0 -3t-3 -3.5l-4 -3t-3 -1.5l-27 -3v-12q0 -2 2 -3t4.5 -1.5t5.5 -0.5h4q4 0 7 0.5t8 1.5q3 -2 5 -3t2 -4q0 -4 -1.5 -4.5t-5.5 -0.5q-6 0 -12 1.5t-13 1.5h-2t-1 -2v-1v-2t0.5 -4t0.5 -4v-2v-2q0 -3 -3 -4
t-6 -1h-3t-1 2v2v2.5t0.5 3.5t0.5 4v2v1.5t-0.5 2.5t-0.5 2v2t-0.5 3.5t-0.5 5.5t0.5 6t0.5 4q0 3 -2 3.5t-4.5 1t-4.5 1.5t-2 3q0 3 4 5l2 -0.5t4.5 -0.5t4.5 -0.5l2 -0.5h1h1q4 1 9 1t9.5 1t7.5 3.5t3 7.5q0 1 -0.5 3l-1 4t-1.5 3.5t-2 2.5l-1.5 -0.5t-1.5 -1.5
q-6 -4 -13 -7t-15 -3h-3.5t-4.5 0.5t-3.5 2t-1.5 3.5v1.5t2 1.5h4.5t7.5 0.5t7 0.5h5q3 1 4.5 2t1.5 4v2t-2 1q-6 1 -14 2.5t-14 3.5l-2 2v1v0l2 3h5q4 0 8 -0.5t7.5 -2t7.5 -2.5t8 -1zM52 118q0 2 1 2h2t3.5 -1t2.5 -2v-39q0 -3 2 -6.5t5 -3.5t3 1.5v5.5q0 8 -1.5 16
t-1.5 17q0 1 0.5 2.5t2.5 1.5t3.5 -2.5t1.5 -6.5v-7.5v-4.5t0.5 -4.5t0.5 -7.5t0.5 -7.5t0.5 -4.5l1 -1.5t2 -1.5q2 0 3 2.5t1 3.5v3v3v4v2q0 6 -1 11.5t-1 11.5q0 4 2 4.5t6 0.5q0 -10 0.5 -22t1.5 -22q1 -2 1.5 -2.5l0.5 -0.5h1.5h2.5v45q0 4 2 4t3.5 -1t1.5 -3
q0 -11 -0.5 -21.5t-0.5 -21.5q5 0 7.5 1t2.5 7l3 38h2q1 0 2 -1.5l2 -3t1 -3.5t1 -3q-1 -1 -1 -5t-0.5 -8.5l-1 -9t-0.5 -5.5q-1 -4 -3 -7t-2 -7q0 -2 1 -2t2 -0.5l2 -1t1 -2.5q0 -3 -2.5 -6t-3.5 -6q0 -1 -1 -3.5t-1.5 -5t-1 -4.5l-0.5 -2v-2v-3v-3v-2l-2.5 -2.5l-2.5 -2.5
q-2 -1 -3.5 1.5t-1.5 3.5t1 1q0 2 0.5 5l1 6t1 5.5t0.5 3.5q0 2 0.5 3.5t1.5 3l2 3t2 3.5v2q0 1 -0.5 2.5t-1.5 1.5h-18l-0.5 -1t-0.5 -3v-3.5v-2.5q0 -7 1.5 -14.5t1.5 -14.5q0 -3 -1.5 -4.5t-4.5 -1.5h-2t-2 2v42l-1 0.5t-2 0.5q-12 3 -18.5 5t-9.5 6.5t-3 12v21.5v4v5v6
v3zM50 54q0 3 4 3q5 0 9 -3.5t6 -8.5t3 -10.5t1 -10.5t-4 -8t-10 -3q0 4 1 8t1 8t-1.5 7.5t-3.5 6.5t-4 5.5t-2 5.5z" />
</svg>
