<?xml version="1.0" standalone="no"?>
<!DOCTYPE svg PUBLIC "-//W3C//DTD SVG 1.1//EN" "http://www.w3.org/Graphics/SVG/1.1/DTD/svg11.dtd" >
<svg xmlns="http://www.w3.org/2000/svg" xmlns:xlink="http://www.w3.org/1999/xlink" version="1.1" viewBox="-10 0 266 256">
   <path fill="currentColor"
d="M186 214q0 9 -1.5 18.5t-1.5 18.5q5 0 9 -2.5t5 -7.5v-28v-29q0 -4 -0.5 -9.5t-1.5 -10t-3.5 -9t-7.5 -6.5h-8.5h-9.5t-9.5 -0.5t-8.5 -2.5q-1 0 -1.5 -1l-0.5 -1v-12q0 -1 1.5 -2t2.5 -2q3 -2 7.5 -2.5t8.5 -0.5h9.5h6.5h4.5h4.5t4 -0.5l2 -0.5l5 -10v-21q0 -1 -1 -2
t-2.5 -1.5l-3 -1l-1.5 -0.5h-9.5t-14 -0.5t-14 -0.5h-8.5h-2q-3 0 -6.5 0.5t-3.5 3.5q0 1 0.5 2t1.5 1h3.5h6t6.5 1t4 2v7q0 8 -3.5 11t-8 4.5t-8 3t-3.5 5.5v24l0.5 1t0.5 2q1 0 2 2t2 3q6 -2 12 -2h13h3h4h4h3q3 0 4 2t1 4v3v5v5v3v3.5t0.5 6t0.5 6.5v4l0.5 2t0.5 4v4v4z
M57 198q4 9 11.5 12t17.5 3q12 0 19 -3.5t10.5 -10t4 -15.5t0.5 -18v-16q-1 -4 -4.5 -5t-7.5 -1.5t-7.5 -1.5t-6.5 -4v-3.5v-2.5v-4v-3q1 -5 1.5 -13.5t1 -16t0.5 -13.5v-6h26q2 0 4 -2t2 -3q-1 -2 -3 -3t-4.5 -1.5t-5.5 -0.5h-2v-1q0 -3 1 -6l2 -6l2 -6t1 -6q0 -2 -1 -4
t-4 -2q-2 0 -3 2q-1 3 -2 6.5t-1.5 8t-1 8.5t-0.5 8l-1.5 0.5l-1.5 0.5q-1 0 -2.5 -0.5t-2.5 -0.5q0 -1 -1 -1.5l-1 -0.5v-32q0 -2 3.5 -4t7.5 -4t7.5 -4.5t3.5 -5.5q0 -1 -1 -2.5t-3 -1.5q-10 0 -16 6.5t-8.5 15.5t-3 18.5t0.5 15.5l-2 1l-29 4q-4 0 -4.5 2.5t-0.5 5.5
q10 0 16.5 -1t14.5 -1q5 0 5 2.5v5.5v11v15.5t-1 16t-2 9.5q-2 2 -3.5 1.5t-3.5 0.5q-9 2 -13.5 5.5t-6 8t-1.5 10.5v16v3v6v5v3zM93 177h4h4.5t4.5 1t3.5 2t1.5 4t-2 6.5t-4.5 6t-6.5 4t-7 1.5v-4q0 -1 0.5 -4t0.5 -6.5t0.5 -6.5t0.5 -4zM66 185l0.5 -2.5l0.5 -2.5
q1 -3 3.5 -3h5.5h5t2 3v2q0 1 -0.5 3.5t-0.5 5.5t-0.5 5.5t-0.5 3.5h-2h-2q-7 0 -9 -4.5t-2 -10.5zM93 168v-16q0 -1 1 -2t2.5 -1h3.5h2q3 0 5 1t3 3q1 1 1 3v3v3q0 1 -0.5 3t-1.5 3t-3 1zM66 162q0 -4 2 -6.5t4.5 -4t6 -2.5t7.5 -1q0 3 -0.5 6t-1.5 6t-2.5 5.5t-4.5 2.5
q-4 0 -7.5 -1t-3.5 -5zM73 83q-3 0 -4.5 5t-3 11t-2.5 12t-1 8q-1 3 -2 5t-2.5 4.5t-2 5t-0.5 4.5q6 0 9.5 -4t5.5 -9.5t2.5 -12t2.5 -10.5l0.5 -1.5t1 -2.5l1 -2t0.5 -2l-0.5 -1.5t-1 -3.5t-1.5 -4t-2 -2zM104 92v2q0 1 0.5 4.5l1 7l1 7t0.5 5.5q1 1 1.5 4l1 6t2 5.5
t2.5 2.5q4 0 4.5 -1t0.5 -4q0 -5 -1 -10t-2 -10.5t-2.5 -10.5t-1.5 -11v-1v-1q0 -1 -1 -2l-2 -2h-1q-3 0 -3.5 3.5t-0.5 5.5zM166 113v-3v-2v-3t0.5 -4t1.5 -3.5t3 -1.5h20v3.5v5.5t-1 5.5t-3 3.5q-1 1 -3 1t-5 0.5t-5 0.5h-3h-1h-1l-1.5 -1.5zM145 54q0 12 5 16t17 4
q13 0 20.5 -5.5t7.5 -18.5q0 -8 -2 -12t-9 -6h-12h-14t-7.5 2t-3.5 6.5t-2 13.5v0zM65 58q1 6 6 6l1 -0.5l1 -0.5l1.5 -6t0.5 -5v-5t-1 -5t-2.5 -4t-3.5 -2t-3.5 0.5t-1.5 3.5v1q0 1 0.5 3.5t1 5.5t0.5 5v3zM153 52q0 -4 2 -6t5.5 -3t7.5 -1.5t7 -0.5h7l2 2v14l-7 6h-18
l-0.5 -0.5l-0.5 -0.5q-1 -2 -3 -5l-2 -3v-2z" />
</svg>
