<?xml version="1.0" standalone="no"?>
<!DOCTYPE svg PUBLIC "-//W3C//DTD SVG 1.1//EN" "http://www.w3.org/Graphics/SVG/1.1/DTD/svg11.dtd" >
<svg xmlns="http://www.w3.org/2000/svg" xmlns:xlink="http://www.w3.org/1999/xlink" version="1.1" viewBox="-10 0 266 256">
   <path fill="currentColor"
d="M96 247q0 2 1 3t3 1t3.5 -2t2.5 -5t1.5 -5.5t0.5 -4.5l-1 -2.5t-1 -3.5v-6v-4l3 -3h42q2 0 2 -2v-2q0 -3 -0.5 -4.5t-2.5 -1.5h-10q-8 0 -15.5 0.5t-15.5 0.5h-2t-2 -1v-2.5v-2.5l-0.5 -2.5t1.5 -3.5q9 -1 16.5 -2t12 -4.5t7 -10t2.5 -16.5t-3 -15t-8 -7.5t-12 -3.5
t-15 -2v-3q0 -3 1.5 -5t4 -2h5h5.5q4 0 8 1t8 1h6q2 -2 2.5 -3t0.5 -3l-0.5 -1.5t-1.5 -1.5h-31q-3 0 -4.5 -1t-2.5 -2.5t-1 -3.5v-4q0 -3 1 -4l1.5 -1.5t1.5 -1t2 -2.5q1 0 2.5 -3t3 -6.5t3 -6t2.5 -3.5l1 -2h1q3 0 4 4t2.5 9t3 9t5.5 4q2 0 3 -0.5t1 -2.5q0 -4 -2 -8
l-4 -8t-4 -7.5t-2 -7.5q3 0 4.5 1.5t2.5 3.5t2.5 3.5t3.5 1.5t2.5 -2t0.5 -4q0 -4 -2.5 -6t-6 -3.5t-6 -3.5t-2.5 -6q0 -2 2 -4t4 -2.5t4.5 -0.5t4.5 1q2 -1 2 -2v-2v-2.5t-2 -2.5h-13v-2v-3.5v-2.5v-3v-3t-0.5 -4.5t-0.5 -5v-3.5q-1 -1 -1.5 -1h-1.5q-4 0 -4.5 3t-0.5 6v3
v5v4.5v3.5q-2 2 -4.5 3t-5 1t-4.5 1t-2 3q0 3 2.5 3h5.5t5.5 1.5t2.5 5.5q0 3 -0.5 5t-3.5 4q-2 0 -5 1.5l-6 3t-5.5 3t-4.5 1.5t-5 -2t-5.5 -4.5t-4.5 -5.5t-2 -6q0 -4 3 -5t6 -1t5.5 -0.5t2.5 -3.5v-3t-1 -2h-11l-3 -3q0 -2 0.5 -5.5t0 -7t-2 -6t-4.5 -2.5h-2t-2 2v20
q0 1 -1.5 1.5l-1.5 0.5h-3.5t-5.5 0.5t-5.5 0.5h-3.5v2v1v3t1 2h18q2 0 2.5 2.5t0.5 3.5q0 5 -4 7.5t-8.5 4t-8.5 4t-4 7.5v0q0 1 1 2t2 1q2 1 4 0t4 -3t4.5 -3.5t3.5 -2.5l1.5 3t0.5 2v1q-4 9 -7 15t-8 12q-1 3 0.5 3h3.5q4 0 6 -3t3.5 -7t3 -7.5t4.5 -3.5q2 0 4 2.5
t3.5 5.5l3 6t2.5 4q2 2 3.5 2.5t3.5 1t3 1.5t1 4q0 2 -0.5 3.5t-2.5 1.5h-35q-2 0 -3 1.5t-1 3.5v2t1 2h34q4 0 4.5 0.5t0.5 3.5q0 2 -0.5 3.5t-2.5 2.5q-5 1 -11 2.5t-11 4.5t-8 8t-3 12l0.5 2.5l1 5t1 5.5t0.5 5q1 2 2.5 6t3.5 5q2 2 7 2t9 0.5t7.5 1.5t3.5 6
q0 2 -0.5 3.5t-4.5 1.5h-35q-4 0 -5 2t-1 5v2t1 2h7q7 0 14 -1t14 -1h3h2l4 3v5q0 6 -1 12t-1 12zM166 129h3.5t5.5 0.5t5.5 0.5h3.5q1 1 3.5 2t3.5 3q0 1 1 4t1.5 6t1 5.5t0.5 3.5v92q0 1 0.5 1.5t1.5 0.5t2 -1l2 -2l2 -2l1 -1v-64q-1 -6 -0.5 -14.5t0 -17.5t-2 -16.5
t-7.5 -10.5h-18q-4 -1 -7 -2t-3 -6q0 -2 0.5 -4t2.5 -3h12.5t12 -1.5t9 -5t3.5 -11.5v-6t-1 -5t-3 -4t-5 -2q-4 0 -8.5 1t-8.5 1h-1l-1.5 -0.5t-3.5 -0.5t-3.5 -0.5l-1.5 -0.5h-1q-1 0 -3 0.5t-4 0.5t-4 1t-2 3t2.5 3.5t5.5 2t5.5 0.5h3.5q0 1 0.5 4.5t0.5 4.5v1
q0 2 -1.5 3.5t-3.5 2.5l-4 2t-3 1q-1 1 -1.5 3.5l-1 5t-0.5 4.5v4q0 5 1.5 7.5t6.5 5.5zM74 173l1 -1t2 -1l2.5 -0.5t5 -0.5t4.5 -0.5l2 -0.5h1h1q1 0 2.5 0.5t2.5 1.5l0.5 0.5l0.5 0.5v10q0 2 -2 2.5l-4 1t-3 0.5h-2q-2 0 -4.5 -1t-4.5 -2.5t-3.5 -4t-1.5 -5.5zM106 184v-5
v-2t0.5 -3.5l1 -3t1.5 -1.5h22q0 9 -5 12.5t-14 3.5l-2.5 -0.5t-3.5 -0.5zM77 159v-4q0 -3 1.5 -5.5t4.5 -3.5t6.5 -1.5t5.5 -0.5h1q1 0 2 0.5l1 0.5v12l-3 3h-2.5h-3.5h-7t-6 -1zM108 159q-2 -2 -2 -4v-5v-5q2 -1 2.5 -1h2.5h6.5t8 1.5t6.5 3.5t3 6q0 5 -3 5h-6h-9t-9 -1z
M87 74q2 0 3 1t2.5 2t2.5 2t3 1q1 0 3.5 -1.5t5.5 -4t6 -4t6 -1.5q0 4 -2 8t-4.5 7.5l-5 7t-4.5 7.5h-1h-1q-4 0 -6.5 -2.5t-4.5 -7t-2.5 -8.5t-0.5 -7zM187 78q5 0 7 2.5t2 7.5v4q-3 1 -4 2t-4 1h-1.5t-2.5 -0.5l-2 -1t-1 -1.5v-10q0 -3 2.5 -3.5t3.5 -0.5zM158 41
q0 8 3.5 12.5t12.5 4.5q6 0 11.5 -1t10 -3.5t7 -7t2.5 -11.5q0 -9 -5.5 -12.5t-12.5 -3.5q-6 0 -11.5 0.5t-9 3t-6 7t-2.5 11.5zM167 41q0 -7 4.5 -10t11.5 -3q6 0 8 2t2 9q0 4 -1.5 6t-4 3t-6 1h-6.5h-3h-2l-3 -3v-2.5v-2.5z" />
</svg>
