<?xml version="1.0" standalone="no"?>
<!DOCTYPE svg PUBLIC "-//W3C//DTD SVG 1.1//EN" "http://www.w3.org/Graphics/SVG/1.1/DTD/svg11.dtd" >
<svg xmlns="http://www.w3.org/2000/svg" xmlns:xlink="http://www.w3.org/1999/xlink" version="1.1" viewBox="-10 0 266 256">
   <path fill="currentColor"
d="M184 248v4.5t3 1.5q2 0 4 -2t3 -4.5t1.5 -5t0.5 -4.5q0 -21 -1 -42t-4 -41q-3 -8 -6 -10.5t-7 -3.5t-9.5 -1t-12.5 -4q-2 -2 -2 -3v-3v-2q1 -2 2.5 -5.5l1.5 -3.5l29 -3q3 0 6.5 -3.5t3.5 -6.5v-19q0 -1 -1 -2t-2 -1.5t-2 -1.5l-2 -2h-40l-6 2v0.5v0.5q0 2 2 3t4.5 1.5
t4.5 0t3 -0.5q2 2 2 3v3t0.5 4.5t0 5.5t-1 5t-2.5 4l-6 4.5t-3 3t-1 4.5v9v3.5v4.5l0.5 0.5l0.5 0.5q1 0 3.5 2l2.5 2q1 0 3.5 0.5t5 0.5t5 0.5t3.5 0.5q3 0 6 0.5t5 3.5v3.5v5t1 5t1 3.5q1 7 1.5 12.5t0.5 11v11.5v12v4v6v7v4q-1 3 -1.5 5.5t-0.5 5.5zM63 212v6
q0 5 0.5 9.5t2 8.5t3.5 4t5 -1t3 -4q0 -2 -1 -3.5t-2 -3.5v-24q3 0 4.5 3.5t2.5 7.5t2 7t4 3q2 0 3 -1t1 -3q0 -3 -1 -5.5t-2.5 -5.5t-2.5 -5.5t-1 -6.5t1 -6t2 -3l2.5 -2.5t2.5 -4.5q2 -4 2 -11v-10q0 -1 1 -2t2 -1l1 0.5t2 0.5l0.5 0.5t0.5 1.5v2t0.5 4.5t0.5 4.5v3
q1 7 3 10t4.5 4t4 1.5t1.5 2.5q0 1 -2.5 3t-5.5 5t-5.5 8t-2.5 12v4q0 3 1 5t2 3.5t4 1.5q2 0 3 -1.5t1 -3.5q0 -3 -2 -6t-2 -7q0 -1 0.5 -3t0.5 -3t1.5 -2t2.5 -1l0.5 0.5t0.5 1.5q1 0 2 2t2 4.5t2 4.5t2 3q-1 2 1 5.5t4 3.5q3 0 4 -2.5t1 -3.5t-2 -4t-4 -7l-4 -8t-2 -6
q0 -1 1 -2.5t2.5 -3t2.5 -3t1 -3.5v-1q-1 -2 -4 -3t-6 -1.5t-5.5 -1.5t-2.5 -2t0.5 -2l0.5 -1q5 -1 9 -1.5t6.5 -1.5t4.5 -3.5t2 -7.5q0 -6 -3 -8.5t-7.5 -3t-10 0t-9.5 0.5q1 -3 5 -4.5l8 -3t7 -2.5t3 -3t-2 -4t-4 -3t-3.5 -2t-1.5 -3l2 -15h1h2q2 0 4.5 2t5 5t4.5 5.5
t3 3.5h2q2 0 3 -0.5t1 -2.5t-2 -4l-4 -4l-4 -4t-2 -5q0 -2 1.5 -3.5t1.5 -3.5q0 -3 -2 -4.5t-5 -2.5t-6 -2.5t-4 -3.5q1 -3 4.5 -3.5l7 -1t6.5 -1t3 -4.5q0 -1 0.5 -3.5t0.5 -5.5t0.5 -5t0.5 -3q-1 -5 -5 -7t-8 -2h-42q-11 0 -15 5.5t-4 14.5v7l2 2q1 1 2.5 2l1.5 1h16
l0.5 1t1.5 1q1 2 1 2.5v2.5v1.5t-1 1.5q-6 2 -11 2.5t-8 2t-5 5t-2 10.5v7.5t1 10.5t3 9t4 4h2q7 -5 13 -7t14 -2q1 0 3 0.5t3 0.5l1 1q-2 2 -4 3l-3 1.5t-2.5 2l-3.5 3.5l-3 3q-6 0 -10.5 0.5t-7.5 1.5t-4.5 4.5t-1.5 9.5q0 5 3 6.5t7 2t7 0t3 1.5v3l-1 1l-2.5 2.5t-2.5 3
t-2 1.5q-4 4 -7.5 6.5t-6.5 6.5v10zM107 165q0 -4 2.5 -5t5.5 -1h2h3q1 2 1 2.5v1.5q0 5 -3 6.5t-6 1.5t-4 -2t-1 -4zM73 165q0 -4 3 -5t6 -1h2.5h2.5q0 1 0.5 2.5l0.5 1.5q0 4 -3 5.5t-5 1.5t-4.5 -1t-2.5 -4zM71 129q0 -4 -1.5 -7.5t-1.5 -7.5t3.5 -6t7.5 -2q2 0 3.5 1.5
t3 4t2.5 4.5t1 3h1h1q2 0 2.5 -1t0.5 -3q0 -1 -1 -3t-2 -3.5t-2 -3.5t-1 -4t0.5 -2.5t1.5 -1l2 -1t2 -1.5q1 -4 1 -8.5v-9.5v-8v-7l4.5 -3t3.5 -1q1 0 2.5 0.5t1.5 1.5v25q0 4 2 6.5t4.5 4t4.5 3t2 3.5t-1.5 3t-3.5 1.5t-4 1.5t-3 2q-3 4 -3 10v9l-3 3l-13 -2q-2 0 -3 -1.5
t-2 -4t-1.5 -4t-3.5 -1.5q-1 0 -1.5 1t-0.5 3q0 3 2 4.5t2 4.5q0 1 -1.5 2.5t-3.5 2.5t-4 1.5t-3 0.5q0 -2 1 -4.5t1 -5.5zM178 87q5 0 8 2t3 7q0 8 -3 10.5t-10 2.5h-2.5h-2.5l-1.5 -0.5l-1.5 -0.5v-16q0 -4 4 -4.5t6 -0.5zM72 73q0 -5 1 -7.5t3 -3.5t5 -1h7v15q0 1 -2.5 2
t-3.5 1q-5 0 -7.5 -1t-2.5 -5zM114 63l3 -3h11v13q0 1 -2 3l-3 3q-1 0 -4 -0.5t-4 -1.5l-0.5 -0.5l-0.5 -0.5v-13zM175 28h-6q-5 0 -9.5 1t-8 3t-3.5 5v25q0 2 2 3t4.5 1.5t4.5 0.5h4q7 0 12.5 -0.5t9 -2.5t5 -7t1.5 -13v-8q0 -2 -2 -4l-3 -3h-2q-2 0 -3.5 -0.5t-3.5 -0.5
h-2zM154 52q0 -9 4.5 -12.5t13.5 -3.5q3 0 6 0.5t5 3.5v2.5v2.5v4.5t-1 4.5t-3 3.5t-5 1.5h-18l-2 -2v-2v-3zM58 41q0 1 1 2t2 1h5q8 0 13 -2t8 -5t4 -6.5t2.5 -6.5t3 -5t5.5 -2v0q1 0 3 0.5t4.5 0.5t4.5 0.5t3 0.5q2 0 2.5 3t0.5 4v0q0 5 -3.5 6.5t-7.5 2.5t-7 2.5t-3 5.5
q6 0 11 -0.5t9 -2.5t6.5 -6t2.5 -11q0 -2 -0.5 -3.5t-1 -3.5t-2 -3.5t-3.5 -1.5h-54q-1 0 -2 1l-2 2v1q0 3 3 3.5t4 0.5q3 0 6 -1t6 -1q2 0 3.5 2t1.5 4q0 4 -2.5 8t-6.5 5l-19 2q0 1 -0.5 2z" />
</svg>
