<?xml version="1.0" standalone="no"?>
<!DOCTYPE svg PUBLIC "-//W3C//DTD SVG 1.1//EN" "http://www.w3.org/Graphics/SVG/1.1/DTD/svg11.dtd" >
<svg xmlns="http://www.w3.org/2000/svg" xmlns:xlink="http://www.w3.org/1999/xlink" version="1.1" viewBox="-10 0 266 256">
   <path fill="currentColor"
d="M203 247q0 2 1.5 3t3.5 1q3 0 3.5 -2t0.5 -5q0 -13 -0.5 -27t-1.5 -27q0 -3 -0.5 -8.5t-2 -11t-2.5 -10t-2 -6.5q-3 -5 -6.5 -7.5t-7.5 -4t-7.5 -3t-6.5 -4t-4.5 -7t-1.5 -11.5q0 -12 2.5 -17.5t7 -8t9.5 -3t10 -1.5t9 -4t5 -10v-2v-3.5v-3.5v-2q0 -10 -0.5 -15t-3 -7.5
t-7 -4.5t-10.5 -7q-2 0 -6.5 -1t-10 -1.5t-10 -1t-6.5 -0.5h-3q-1 0 -2.5 0.5t-1.5 2.5q0 4 3.5 5.5t9 2t12.5 1.5t12.5 3.5t9 8t3.5 14.5q0 4 -1.5 7t-4 4.5t-6 2.5t-6.5 3l-5 2.5t-6.5 3t-5.5 2.5l-2 1l-6 12v36q0 3 1.5 5t4 3.5t4.5 2.5t5 2q1 0 3.5 1.5t5.5 3t5.5 3
t3.5 1.5q3 5 4 10.5t1.5 11.5t0.5 12t1 11q0 1 0.5 4l1 6t1 5.5t0.5 3.5t0.5 4.5t1 7.5t0.5 7.5v5.5zM47 143v4v11.5t0.5 15t0.5 13.5t1 7q0 10 4.5 16.5t11 10.5t15 5.5t16.5 1.5h14q1 -1 4.5 -2.5t4.5 -1.5l2.5 -0.5t2.5 -1.5q8 -6 11 -16t4.5 -21t1 -22t-0.5 -19v-18.5
t-0.5 -17.5l-1 -18t-0.5 -19q0 -4 -3 -7t-7 -5t-8.5 -3t-8.5 -2q-1 -2 -1 -4.5v-5.5q0 -7 1.5 -11t5 -6.5t8.5 -3t11 -1.5q2 0 2.5 -1.5t0.5 -2.5q0 -2 -0.5 -3.5t-2.5 -1.5h-6q-7 0 -13.5 1.5t-14.5 2.5h-10.5h-16.5h-15.5h-10.5q-2 1 -3 3t-1 4v2t2 2h7q5 0 9.5 -1t9.5 -1
q2 0 3.5 2t2 4.5t0.5 5.5v4q0 8 -2 11.5t-5 5.5t-7 2.5t-7.5 2.5t-6 7.5t-2.5 16.5q-1 1 -1 7.5t-0.5 14.5t-0.5 16.5v12.5v4zM70 205v-2q2 -2 4.5 -5t5 -5.5t6 -4.5t7.5 -2h2q3 1 7 3t7.5 5t6.5 6.5t3 7.5q0 3 -1.5 4t-4.5 2q-1 1 -3 1h-5h-5h-3h-6.5t-9 -0.5t-8 -2.5
t-3.5 -7zM56 172v-12q0 -1 1.5 -2t1.5 -2q7 -5 13.5 -10t8.5 -14q0 -3 1 -9.5t1.5 -14t1.5 -15.5t2.5 -14.5t3 -11t3.5 -4.5l1.5 0.5l1.5 0.5l4 62q0 4 2 7t5.5 5.5l7 5t6.5 5.5t5.5 7.5t2.5 10.5v7t-0.5 8.5t-2.5 8t-5 3.5h-1q-3 -3 -6 -6.5t-6.5 -6t-7.5 -4.5t-9 -2
t-8.5 2.5t-7.5 6.5t-7.5 8t-7.5 6q-2 -2 -3.5 -5.5t-2 -7t0 -7t0.5 -6.5zM57 127v-8.5t0.5 -12t1.5 -13.5t2.5 -12.5t4 -9.5t6.5 -4q1 0 2 0.5t2 1.5v16q0 7 -0.5 15.5t-2 17t-4.5 16t-10 11.5l-2 -6v-1v-4v-4v-3zM108 72v-3v-3q0 -2 1.5 -2h2.5q9 0 14 7q2 11 2 20v20v4v6
q0 4 -0.5 6.5t-0.5 4.5q1 4 0 4.5t-3 0.5q-5 0 -8 -4t-4.5 -10t-2.5 -14t-1 -15v-13v-9zM92 28q3 0 4.5 2t2 4.5t0.5 6v5.5q0 6 -2.5 6.5t-8.5 0.5v-3v-6.5v-6v-3.5q0 -4 1 -5t3 -1z" />
</svg>
