<?xml version="1.0" standalone="no"?>
<!DOCTYPE svg PUBLIC "-//W3C//DTD SVG 1.1//EN" "http://www.w3.org/Graphics/SVG/1.1/DTD/svg11.dtd" >
<svg xmlns="http://www.w3.org/2000/svg" xmlns:xlink="http://www.w3.org/1999/xlink" version="1.1" viewBox="-10 0 266 256">
   <path fill="currentColor"
d="M199 248q0 2 1 2h2q3 0 4.5 -1.5t2.5 -3.5t1.5 -4.5t0.5 -4.5v-1q0 -2 -0.5 -11.5t-1.5 -21.5t-1.5 -26t-1.5 -26t-1.5 -21t-0.5 -12v-5.5t-0.5 -7l-1 -7t-0.5 -5.5q0 -5 1.5 -9.5l3 -9t3 -8.5t1.5 -9q0 -10 -5.5 -15.5t-14 -8.5t-17 -4.5t-15.5 -1.5h-7q-3 2 -3 6
q0 2 0.5 3t2.5 2q7 0 15 0.5t15 2.5t12 7t5 14v4t-0.5 4.5t-1.5 3.5t-3 1h-2l-1.5 -0.5l-3 -1t-2.5 -1.5l-1 -1q-2 0 -4 -1l-2 -1h-27q-1 0 -1.5 1l-0.5 1q0 4 3 5t7.5 1.5t10 0.5t10 1t7.5 3.5t3 8.5v1q-4 6 -11 9.5t-14.5 5.5t-12.5 3.5t-5 3.5q0 1 0.5 2.5t1.5 1.5h7
q7 0 13 -1.5t13 -4.5q2 -1 4.5 -3t4.5 -2t3 3.5t1.5 8.5t0.5 10v7v3.5v2.5l-2 3h-40q-1 0 -3.5 1.5t-3.5 2.5v1v1q0 3 1.5 5.5t4.5 2.5h1q3 -1 8 -2t10.5 -2t10.5 -1.5t10 -0.5h3t1 3q2 24 2 47v46zM50 143v21t2 20.5t7 17.5t15 13h3h3h4h3h9t8 -0.5t8 -1.5t9 -3q3 -3 7 -6
t5 -8q1 -2 1.5 -8.5t1.5 -14t1.5 -14t0.5 -9.5l0.5 -1t0.5 -2l-0.5 -1t-0.5 -2v-2.5t-0.5 -5.5t-0.5 -5v-3t0.5 -4l0.5 -3v-6.5t-0.5 -9.5t-0.5 -9.5v-6.5q-1 -11 -3 -17.5t-5 -9.5t-6.5 -4t-6.5 -2t-5 -3t-2 -7q0 -4 1 -9.5t4 -8.5q1 0 4 -0.5t6.5 -1.5t6.5 -1.5t4 -0.5
q3 0 3.5 -1t0.5 -4q0 -2 -1 -3.5t-5 -2.5q-6 3 -15.5 4.5t-20 2t-21.5 0.5h-19q0 1 -3 0.5t-4 -0.5q-2 1 -2.5 3t-0.5 4v1.5v1.5l1.5 0.5t3.5 0.5t3.5 0.5l1.5 0.5q1 0 3 -0.5t5 -1t5 -0.5h3h3h2t2 2v27q-4 1 -8.5 2t-9 3t-7.5 5.5t-3 8.5q-1 9 -1 17t-0.5 15.5t-0.5 15.5
v17zM68 196q1 -2 4.5 -5l7 -6t7 -5t6.5 -2q2 0 6 2t8 4.5t7.5 5.5t5.5 5q-5 6 -12 7.5t-14 1.5h-6.5t-7.5 -0.5t-7 -2t-5 -5.5zM60 162v-2q0 -2 0.5 -4t0.5 -3v-3l1 -2q8 -5 15 -12t10 -17q0 -3 0.5 -11.5t1 -18t1.5 -16t4 -6.5h1q1 0 2.5 0.5l1.5 0.5l3 53q1 6 5 10.5
t8.5 8.5t8.5 7.5t4 7.5v5t-1 9t-2 8.5t-4 4.5q-2 0 -5.5 -2t-7.5 -4.5t-7.5 -5t-6.5 -3.5q-4 -1 -7.5 1.5t-7 5.5t-7.5 5.5t-8 2.5h-2q-2 -5 -2 -10v-10zM59 123v-2q0 -3 1 -8.5t1.5 -12t1.5 -12.5t1 -8q2 -4 4.5 -7t7.5 -3q2 0 3 0.5t1 3.5v32q0 1 -1.5 6t-4 10t-5.5 9.5
t-5 4.5t-3 -1.5t-1.5 -3.5t-0.5 -4v-4zM107 78q0 -1 0.5 -1.5l0.5 -0.5q0 -2 0.5 -5l0.5 -3h12q2 0 3 2.5l2 5t1.5 5l0.5 2.5v52q-5 0 -8.5 -3.5t-5.5 -9t-3.5 -12t-2 -13t-1 -12t-0.5 -7.5zM88 41q0 -1 0.5 -3.5t1.5 -4.5t2 -3.5t2 -1.5q2 0 4 1.5t2 4.5v20q0 1 -1.5 3.5
t-3.5 1.5q-2 0 -3 -2.5t-2 -5.5t-1.5 -6t-0.5 -4z" />
</svg>
