<?xml version="1.0" standalone="no"?>
<!DOCTYPE svg PUBLIC "-//W3C//DTD SVG 1.1//EN" "http://www.w3.org/Graphics/SVG/1.1/DTD/svg11.dtd" >
<svg xmlns="http://www.w3.org/2000/svg" xmlns:xlink="http://www.w3.org/1999/xlink" version="1.1" viewBox="-10 0 266 256">
   <path fill="currentColor"
d="M42 125q0 19 1 38.5t1 38.5q1 15 3 24.5t6.5 14.5t12.5 7t21 2q8 0 15 -0.5t12.5 -2.5t9.5 -7t7 -15q0 -28 1 -54.5t1 -54.5v-6v-10.5v-10.5v-6q0 -5 -1.5 -9t-3.5 -8q-2 -2 -5.5 -3t-7 -1t-6.5 -0.5t-3 -1.5v-23l1 -1l1 -1q3 -2 7.5 -1.5t8.5 0.5q5 0 8 -1.5t3 -6.5v-2
l-1 -0.5t-1 -1.5h-14h-15q0 1 -3 1t-6 0.5t-6 0.5h-4q-6 1 -11.5 0.5t-10.5 -0.5t-10 0.5t-11 2.5q-1 0 -1 1.5v2.5v2.5t1 1.5h24q2 0 3 2.5t1.5 6t0.5 6.5v4v3v3l-4 4l-16 4q-1 0 -2.5 2t-2 4.5t-1.5 4.5t-1 4v4t-0.5 6l-1 6t-0.5 4v3v6.5v7.5v5zM145 231q2 6 5 9t6.5 5
t8 2.5t9.5 0.5t12 -1t12.5 -3t9 -7t3.5 -14v-89q0 -2 -1.5 -4t-3.5 -2t-4 2t-2 4v41h-15l-1 -0.5t-1 -1.5t-1 -3t-1 -3v-70l1 -2.5t1 -3.5q0 -2 1 -4l1 -2h30l0.5 -1.5t1.5 -3.5v-1q0 -4 -3 -5.5t-6 -1.5q-5 0 -9 1.5t-9 1.5q-1 0 -3 -0.5l-2 -0.5l-2 -4v-2v-4v-4v-3v-20.5
t2 -20.5q-1 0 -4 -1.5t-4 -2.5v0h-1l-2.5 2.5l-1.5 1.5v54l-0.5 1.5t-1.5 2.5q0 1 -0.5 2l-0.5 1h-27l-1 2t-1 4l1 1.5l1 1.5h27l1 3l0.5 5.5t0.5 15t0.5 20t0.5 20.5v17v3q0 5 -3.5 7.5t-6.5 2.5h-2.5t-3 -0.5t-2.5 -1.5t-1 -3v-37l-4 -4q-2 1 -3 3.5t-1.5 5.5t-0.5 6v4v8
t0.5 15t0.5 15v9t0.5 6.5t0.5 9.5t-0.5 9t-0.5 6zM62 226q0 -2 3 -5.5t7 -7t8 -6t5 -3.5q3 0 7.5 3t9 7t8.5 8.5t4 7.5q0 2 -1.5 3.5t-3 2t-3.5 1t-3 0.5h-1h-1q-3 0 -8 -0.5t-10 -0.5t-8.5 -0.5l-3.5 -0.5q-3 0 -6 -2.5t-3 -6.5zM152 202q0 -2 0.5 -5t1.5 -5q1 0 4.5 -0.5
t6.5 -0.5t6 -0.5t5 -0.5l1.5 -1l1.5 -1h21v33q0 5 -3 7.5t-7.5 4t-8.5 1.5h-7q-1 0 -5 -0.5t-6 -0.5q-4 -1 -6 -4.5t-3 -8t-1.5 -9.5t-0.5 -9zM87 192q-5 0 -8 2.5t-6 6.5t-6.5 7t-7.5 3v-1q-1 0 -1.5 -0.5t-0.5 -1.5q-1 -6 -1.5 -12t-0.5 -12q0 -4 3 -8.5t7 -9.5t7 -10
t4 -9q3 -17 3 -35.5t1 -35.5q1 -4 3.5 -5.5t5.5 -1.5q2 0 4 1.5t1 5.5q-1 18 -0.5 35.5t2.5 35.5q1 3 5.5 8.5l9 11t8 10t3.5 5.5v31l-1 6q-5 -3 -8.5 -7.5t-7.5 -9t-8.5 -7.5t-9.5 -3zM53 159v-22v-13v-12t0.5 -12t1.5 -14q1 -3 4 -6.5t7 -3.5h2t1 2v4v6v6v4v8.5t-0.5 12.5
t-1.5 14.5t-2.5 13.5t-3.5 10t-5 4h-1l-0.5 -1t-1.5 -1zM104 142v-9t-0.5 -15t-0.5 -15v-10v-4t0.5 -6t0.5 -5.5v-3.5q1 -2 2.5 -2h2.5h3t4 0.5t3.5 2t1.5 3.5q1 15 2 31.5t1 30.5v2v3.5t-0.5 5l-1 5t-0.5 3.5q0 2 -1 2h-2q-3 0 -5.5 -2t-4 -4.5t-3 -6t-2.5 -6.5zM88 35
q3 0 4.5 1t2.5 3.5t1 5.5v6v3.5v3.5l-2 2h-13v-6v-8.5t1.5 -7.5t5.5 -3z" />
</svg>
