<?xml version="1.0" standalone="no"?>
<!DOCTYPE svg PUBLIC "-//W3C//DTD SVG 1.1//EN" "http://www.w3.org/Graphics/SVG/1.1/DTD/svg11.dtd" >
<svg xmlns="http://www.w3.org/2000/svg" xmlns:xlink="http://www.w3.org/1999/xlink" version="1.1" viewBox="-10 0 266 256">
   <path fill="currentColor"
d="M176 214q8 2 13 7.5t8.5 11t7.5 10t9 4.5h2.5t3.5 -1v-3v-3q0 -3 -3.5 -8t-8.5 -10t-10.5 -9.5t-8.5 -5.5q-5 -3 -12.5 -3t-15 -1t-14 -3t-9.5 -8q0 -3 -0.5 -10.5t-1 -16.5t-1 -16.5t-0.5 -10.5v-1v-1q0 -2 0.5 -6.5t0.5 -10v-12.5t0.5 -13t0.5 -10.5v-6.5v-12v-11.5
t1.5 -10.5t5.5 -10q14 -1 28.5 -2.5t29.5 -3.5q2 0 3.5 -1.5t1.5 -3.5q0 -4 -3 -4.5t-5 -0.5q-3 0 -10 0.5t-15.5 1t-17 2t-15.5 4t-11.5 6.5t-4.5 9v55q1 4 1.5 13.5t1 21.5t0.5 25.5t1 25t3 19.5t5 10q0 1 4 1.5t6 0.5q1 0 5.5 0.5t9 0.5t8.5 0.5t6 0.5zM46 214
q2 3 6.5 5.5t9.5 3.5t10 1h8h13q9 -2 14 -7t7.5 -11t3 -14t0.5 -17q0 -14 -0.5 -27t-0.5 -26t-0.5 -26.5t-0.5 -28.5q-2 -5 -6 -7t-8 -3t-7.5 -3t-3.5 -7v-4.5t0.5 -5t1.5 -4t4 -2.5l14 -4q2 0 2 -3v-3h-47q-2 0 -6.5 0.5t-9.5 1t-8.5 2t-3.5 4.5v0q0 2 1 2h20l1.5 0.5t2 1
l1 1t0.5 1.5l2 18l-2.5 1t-4.5 2h-1.5t-3.5 0.5t-3.5 1l-1.5 0.5l-1.5 1.5l-2.5 2.5l-2.5 2.5t-1.5 2.5q-1 7 -1 14t-0.5 13.5t-0.5 13.5v14q0 23 1.5 46t5.5 46zM61 205v-2q1 -1 3 -4t4.5 -5.5t5.5 -4.5t5 -2t5.5 1.5t7 4t6 5.5t2.5 6q0 4 -3 5.5t-7 2t-8 0.5h-6h-4.5
t-5 -0.5t-4 -2t-1.5 -4.5zM78 176h-2.5h-2.5l-15 13q-1 1 -2 -1.5t-2 -5.5t-1.5 -6.5l-0.5 -3.5q0 -6 3.5 -10t7 -7.5l7 -7t3.5 -8.5v-71q0 -1 1 -2.5t2.5 -2t3.5 -0.5h3v7.5v12v12v7.5q1 10 1 19t2.5 16.5t7.5 14t14 10.5v8v5.5v7t-1.5 6t-3.5 2.5q-1 0 -3.5 -2.5t-6 -5
t-7.5 -5t-8 -2.5zM181 130q0 4 -0.5 13t0.5 18t4 16t9 7q8 0 12.5 -2.5t6 -7t1.5 -11v-14.5q0 -10 -1.5 -19t-1.5 -19h-7q-1 0 -1.5 1.5l-0.5 1.5q0 2 -0.5 4.5t-0.5 5.5t-0.5 6t-0.5 4h-10l-0.5 -3t-0.5 -4v-13q0 -1 -1.5 -1.5t-2.5 -0.5q-2 0 -3.5 1t-0.5 3v14zM143 112
v10v14v15t1 10v6t1.5 7t3.5 5.5t5 2.5t6.5 -0.5t6.5 -2t5 -4t2 -6.5v-55l-0.5 -0.5t-0.5 -1.5h-4.5h-4.5q0 5 1 9.5t1 9.5q0 3 -2 4t-5 1q-4 0 -5.5 -2t-2.5 -5t-1 -7v-8q0 -1 -1.5 -1.5t-2.5 -0.5h-2h-1zM200 141v0l0.5 2.5t1.5 2.5v1v1v0q0 1 -0.5 4t-0.5 6.5t-0.5 6.5
t-0.5 4q-1 2 -2 2h-2q-2 0 -4 -1.5t-2 -3.5v-23l3.5 -1t5.5 -1h1zM153 155v-9q1 -2 3 -2.5t5 -0.5q2 0 3 1.5t1 3v4v3.5v5q0 2 -0.5 4t-1.5 4t-4 2t-4 -2t-1.5 -4t-0.5 -4v-5zM99 63q3 0 5 6t2.5 13.5l1 15t0.5 9.5v5t0.5 8t1 7.5t0.5 4.5v1v1q0 1 -0.5 3l-1 4t-0.5 4v3
l-1.5 1.5t-2.5 0.5t-4.5 -3t-4.5 -6.5t-3 -7.5t-1 -6v-57q0 -3 3 -5t5 -2zM51 141v-5v-8.5v-8.5v-5q0 -5 -1 -13t0 -16t4 -13.5t11 -5.5v9q0 7 -0.5 14t-0.5 13.5v8.5q0 3 -0.5 8.5t-1.5 11t-3 10.5t-5 7q-2 -1 -2.5 -3.5t-0.5 -3.5zM156 93q2 3 4 4t4.5 1.5t5 0.5h4.5h5
q4 0 5 -1q5 -1 7 -5.5t3 -9.5t0.5 -10.5t-0.5 -9.5v-3v-4v-4v-3q0 -2 -1.5 -5.5t-4.5 -3.5t-4.5 3t-1.5 6.5t0.5 7t0.5 4.5l-2 2h-17v-18q0 -1 -2 -1h-2q-2 0 -4.5 1t-2.5 4v2q0 2 0.5 8t1 13t1 13t0.5 8zM165 81q0 -7 2.5 -8t8.5 -1q2 0 5 0.5t3 4.5q0 5 -3 9t-7 4
q-5 0 -7 -2t-2 -7zM73 51v-7q0 -2 0.5 -4.5t1 -4t2 -3t3.5 -1.5q1 0 2 0.5t1 1.5v18q0 1 -2 2l-2 1h-1h-1q-1 0 -2 -1.5t-2 -1.5z" />
</svg>
