<?xml version="1.0" standalone="no"?>
<!DOCTYPE svg PUBLIC "-//W3C//DTD SVG 1.1//EN" "http://www.w3.org/Graphics/SVG/1.1/DTD/svg11.dtd" >
<svg xmlns="http://www.w3.org/2000/svg" xmlns:xlink="http://www.w3.org/1999/xlink" version="1.1" viewBox="-10 0 266 256">
   <path fill="currentColor"
d="M36 185v6.5t0.5 10.5t1 13t1.5 12.5t2 10t3 5.5q1 1 3 2t3.5 2t3 1.5l1.5 0.5h34l2 -1t4.5 -2.5t4.5 -3.5l3 -3q2 -3 3.5 -7t2.5 -8.5t1 -8.5v-8v-98v-3t-0.5 -6t-0.5 -6t-1 -5q0 -6 -3.5 -9t-7 -5.5t-6 -5.5t-2.5 -8q0 -8 3 -11.5t6.5 -5t6.5 -2.5t3 -5l-0.5 -1.5
t-1.5 -1.5t-4.5 -0.5t-7.5 -0.5h-7h-4q-12 0 -22 0.5t-22 2.5l-1.5 1.5t-1.5 2.5v1v1l0.5 1.5t0.5 2.5q1 0 1.5 1.5l0.5 1.5h21q1 0 1.5 1.5t0.5 2.5q1 2 1.5 5t0.5 4q0 6 -3 8.5t-7.5 4.5t-8 4.5t-4.5 7.5q-2 11 -3 23t-1.5 25.5t-0.5 26v23.5zM117 243q0 3 1 4.5t4 1.5
q12 0 23.5 -1t23 -2.5t23 -2t23.5 -0.5q1 -1 1.5 -2.5t0.5 -3.5t-0.5 -4t-3.5 -2h-23q-3 0 -4 -3t-1 -6q0 -7 1.5 -10.5t4 -5.5t5.5 -4t6 -7q1 -1 1 -4v-4q0 -10 -6 -14t-14 -4h-8h-11t-11.5 1t-10.5 3.5t-8 6.5t-3 10q0 3 1 7t3 7t5 5t6 2v3v3v5t-1 6t-2.5 5t-3.5 2
t-4.5 0.5t-5.5 1t-6 0.5h-4l-1.5 3t-0.5 3zM54 229v-2l2.5 -3t6 -7.5t5.5 -6.5q3 -5 8 -5h1.5h0.5l16 18v1.5v1.5q0 3 -2 6t-5 3h-27zM153 225q-1 -4 1 -7t5 -4.5t6.5 -2t6.5 -0.5v20q0 1 -1.5 1.5l-1.5 0.5q-1 0 -3 0.5t-3 0.5t-3.5 -0.5t-3.5 -0.5t-2 -3.5t-1 -4.5zM77 83
h1q2 9 2.5 17.5t0.5 17t0.5 17t2.5 16.5q1 6 3.5 11t5 9.5t5 10t2.5 11.5q0 4 -0.5 8t-1.5 9h-1h-1q-2 0 -4 -2.5t-4.5 -6t-6 -6t-7.5 -2.5t-7.5 2.5t-6 5.5t-5.5 6t-7 3v-25q0 -1 3 -5t6.5 -10t6.5 -12.5t4 -11.5v-7.5t0.5 -12.5t1.5 -14.5t2 -14t2.5 -10.5t2.5 -4z
M144 192q0 -5 4.5 -7.5t10 -4t11.5 -1.5h8h10q1 1 1.5 3t0.5 3q0 7 -4.5 10t-10.5 4.5t-12.5 2t-10.5 0.5q-8 0 -8 -10zM89 104v-19l1.5 -1l1.5 -1q3 1 4.5 4.5t2.5 8.5t1.5 11t1 11t0 9.5t-0.5 6.5v6v6t-0.5 6t-1.5 7q0 1 -0.5 1.5l-0.5 0.5h-1q-2 0 -3 -2t-2 -5t-1 -5.5
v-2.5q-1 -7 -1.5 -12t-0.5 -9.5v-8.5v-12zM123 157v1l0.5 1.5l0.5 1.5h1h1q2 0 10 -1t17.5 -2t17.5 -2t10 -1h18h3q3 0 5 -0.5t3 -1.5t1 -4v-3t-1 -3h-4h-4q-18 0 -37.5 2.5t-36.5 3.5q-3 1 -4 3t-1 5zM57 85h2q1 0 2 0.5t1 1.5v5v5v7.5t-0.5 12.5t-1 14.5t-2.5 14
t-4.5 10.5t-6.5 4v-19.5t0.5 -19t2.5 -18.5t7 -18zM121 73v3v6t0.5 8t1 7t0.5 4q0 3 0.5 7t1 8.5t1.5 8.5t2 5l1.5 0.5t3.5 1t3.5 1t2.5 0.5l1.5 1t2.5 1.5t2.5 1l1.5 0.5h3t4 0.5t4 0.5h3q6 0 14 -0.5t14.5 -3.5t11.5 -8.5t5 -16.5q0 -3 0.5 -11t1 -17.5t1 -17.5t1.5 -12
v-11v-13q-1 -2 -3 -2h-3q-4 0 -5.5 2.5t-2.5 5.5t-1 6t-1 3h-11v-4.5v-3.5q0 -1 0.5 -3t0.5 -4.5t0.5 -4.5l0.5 -2q0 -4 -1.5 -6t-5.5 -2q-2 0 -5 2t-3 5q0 5 2 9.5t2 8.5q0 3 -2 4t-4.5 1.5t-5.5 0.5h-5v-30h-4t-4 1l-1 0.5t-1 1.5v28h-16v-16l-2.5 0.5t-4.5 1.5l-1 1.5
t0 2.5q0 2 -0.5 7t-1 10.5t-0.5 10.5v7v4zM167 109q3 0 3.5 3t0.5 5q0 4 -4 7.5t-8 3.5h-1q0 -1 -1 -1.5l-1 -0.5v-15l3.5 -0.5t5.5 -1.5h2zM133 118v-1q1 0 2.5 -1l3 -2t3 -1.5t2.5 -1.5h1q2 0 2.5 2.5t0.5 3.5q0 3 -0.5 6t-4.5 3q-2 0 -6 -2t-4 -6zM179 116l0.5 -3.5
t1.5 -3.5h14q0 6 -3.5 10t-8.5 4q-3 0 -3.5 -2t-0.5 -5zM131 85h15q1 0 1 2v3q0 7 -2 9.5t-8 2.5h-1t-2 -0.5l-2 -1t-1 -1.5v-14zM156 99v-2.5v-2.5q0 -6 2 -8.5t7 -2.5t6.5 1t1.5 7t-2.5 8.5t-7.5 2.5q-2 0 -3.5 -0.5t-3.5 -2.5zM192 81q3 0 4 1t1 4q0 5 -1 7.5t-3.5 3.5
t-5.5 1h-7q0 -9 2 -13t10 -4zM128 67q0 -4 3.5 -8t7.5 -4t6 2t2 7q0 6 -1.5 9t-6.5 3q-2 0 -3.5 -0.5t-3.5 -1.5t-3 -2.5t-1 -4.5zM172 53v14q0 1 -1 2l-2 2t-2 1.5t-2 1.5h-2.5h-3h-3.5h-2q0 -10 4 -15.5t14 -5.5zM181 67q0 -8 3 -11t10 -3h1q1 1 2.5 4.5t1.5 4.5
q0 5 -3.5 7.5t-7.5 2.5q-3 0 -5 -0.5t-2 -4.5zM71 59v-2t1 -4.5t2 -4t2 -1.5q2 0 3 1.5t1 3.5v4v3v8q0 1 -1.5 2t-2.5 0q-1 0 -2 -1t-1.5 -2.5t-1 -3.5t-0.5 -3z" />
</svg>
