<?xml version="1.0" standalone="no"?>
<!DOCTYPE svg PUBLIC "-//W3C//DTD SVG 1.1//EN" "http://www.w3.org/Graphics/SVG/1.1/DTD/svg11.dtd" >
<svg xmlns="http://www.w3.org/2000/svg" xmlns:xlink="http://www.w3.org/1999/xlink" version="1.1" viewBox="-10 0 266 256">
   <path fill="currentColor"
d="M119 244q0 4 0.5 5t4.5 1q3 0 4 -1t2 -4q0 -1 0.5 -4t0.5 -6t0.5 -6t0.5 -4v-3q0 -11 -1 -22t-1 -22q0 -14 1 -27t1 -27q0 -1 0.5 -3.5t2.5 -2.5q15 -1 30 -1.5t30 -0.5q3 1 3 -1v-4v-2t-1 -2q-17 0 -32.5 -0.5t-31.5 -1.5q-1 0 -1 -1.5v-2.5v-11.5t0.5 -13.5t1 -13
t1.5 -11q0 -3 1.5 -5.5t4.5 -4.5l6 -4t5 -3t5.5 -3t7.5 -4t7.5 -3.5t4.5 -2.5q2 0 2 -1.5v-2.5q0 -6 -5 -6q-1 0 -1.5 0.5t-1.5 0.5t-3 1t-4.5 2.5t-5 2.5t-3.5 1q-2 1 -7 4.5t-10.5 8t-10 8.5t-4.5 7v56q0 1 -2 2.5t-3 1.5l-55 3q-2 0 -2.5 2.5t-0.5 3.5t0.5 2t1.5 2h9
q10 0 21 -1.5t22 -1.5h2h3q2 1 2.5 3t0.5 4v1v5.5t-0.5 10t-0.5 10.5v6q0 2 -0.5 8t-0.5 14v15v16q0 7 0.5 13t0.5 9q-2 3 -2 5v6zM72 231q0 3 1 5t4 2t5 -4.5t4 -11t3.5 -15t2.5 -16t2 -13.5t1 -9q0 -1 0.5 -5t1 -9t1 -9.5t0.5 -6.5v-2q0 -2 -2 -4.5t-4 -2.5q-1 0 -2 2.5
t-1.5 5l-1 5l-0.5 2.5q-1 10 -2 21.5t-2.5 22.5t-4 21.5t-6.5 20.5zM174 234q1 3 3 3.5t4 0.5q3 0 4 -1t1 -5q0 -5 -2 -10.5t-2 -9.5q0 -3 -1.5 -10.5t-2.5 -16t-2 -16t-2 -10.5v-3v-5v-5v-3v-3.5t-0.5 -5t-2 -4t-4.5 -1.5v0v0q-1 0 -2 0.5t-2 0.5v12q0 16 2 33.5t5 33.5
l0.5 1.5l0.5 1.5q1 1 1 4t0.5 7t1 7t0.5 4zM83 228q1 0 1 1q0 2 -1 2q-2 0 -2 -2q0 -1 2 -1zM92 44v10t-0.5 15t-1 15t-0.5 10v9q6 0 9 -4.5t3 -9.5v-46q0 -1 -1.5 -1.5t-2.5 -0.5l-2.5 1.5t-3.5 1.5zM163 95q1 1 2 2.5t2 1.5q3 0 4.5 -2.5t1.5 -4.5v-3q0 -1 -0.5 -7t-1 -13
t-1 -12.5t-0.5 -7.5q-1 -2 -1.5 -4t-1.5 -3t-3 -0.5t-4 2.5v13v10t0.5 8.5l1 9t1.5 10.5zM160 32q-2 1 -1.5 1.5t1.5 0.5t1.5 -0.5t-1.5 -1.5z" />
</svg>
