<?xml version="1.0" standalone="no"?>
<!DOCTYPE svg PUBLIC "-//W3C//DTD SVG 1.1//EN" "http://www.w3.org/Graphics/SVG/1.1/DTD/svg11.dtd" >
<svg xmlns="http://www.w3.org/2000/svg" xmlns:xlink="http://www.w3.org/1999/xlink" version="1.1" viewBox="-10 0 266 256">
   <path fill="currentColor"
d="M202 246l1.5 1.5t2.5 1.5v0q3 0 4.5 -1.5t1.5 -4.5q0 -7 -2 -12.5t-3 -12.5v-3t-0.5 -4.5t-0.5 -4v-2.5q-3 -13 -7.5 -27t-7.5 -28q-1 -6 -3.5 -11t-2.5 -12q0 -1 2.5 -4.5t6 -7t6.5 -7t4 -6.5q3 -7 4 -15.5t1 -16.5v-1v-1q0 -1 -0.5 -3.5t-0.5 -5.5t-0.5 -5.5t-0.5 -4.5
q-4 -5 -8.5 -8t-10 -4.5t-11 -2t-10.5 -0.5h-5h-4t-6.5 0.5t-6.5 0.5h-5q-1 1 -1.5 2t-0.5 2t0.5 2t1.5 2q11 -1 21.5 -1t18.5 2.5t13 10t5 21.5q0 9 -2.5 19.5t-8.5 17.5h-1q-1 0 -3 -2t-4 -4.5t-3.5 -5l-1.5 -2.5h-12h-5.5h-7.5t-7.5 1.5t-3.5 5.5q0 3 2 3.5t4 0.5
q5 0 9.5 -1t8.5 -1h7q3 2 4.5 6t1.5 8q0 1 -1 2.5t-2.5 2.5t-3 1.5t-2.5 1.5q-1 0 -4 1.5t-5.5 2.5l-5 2t-3 1t-3 0.5t-4.5 1l-4 1t-3 0.5q-2 1 -2.5 2t-0.5 3q0 4 3 4q5 0 10 -2t9.5 -4.5t9.5 -4t10 -1.5q3 0 4.5 1t2 3t1 4.5t1.5 4.5q2 11 5 23.5l6 25t5.5 24.5t3.5 24z
M53 228q0 3 2 3.5t5 0.5l5.5 -0.5t13 -1.5t16 -2t16 -1.5t12 -1.5t5.5 -2l0.5 -2t0.5 -3h-33q-1 -10 -2 -18t-1 -15.5t-0.5 -15t-0.5 -16.5v-4v-4v-4v-2l2 -5l1.5 -0.5t3 -0.5t3 -0.5t2.5 -0.5q2 0 5 0.5t5.5 0t4.5 -1.5t4 -4v-1v0v0q0 -1 -0.5 -1.5t-1.5 -0.5h-25
q-3 0 -3.5 -3t-0.5 -5q0 -5 2.5 -7.5t6 -3.5t8 -1t7.5 -1v-2q0 -3 -3 -4t-6 -1q-5 0 -8.5 0.5t-8.5 1.5q-4 2 -4.5 5.5t-0.5 7.5v4q0 1 0.5 3.5t0.5 3.5l-0.5 1.5t-0.5 2.5q-3 0 -8 -0.5t-10.5 0t-9 3t-3.5 7.5h31v10.5t0.5 16t0.5 16v10.5v14v13q-1 3 -4.5 4t-6.5 2h-4
t-6 0.5t-6 0.5h-4q-2 1 -2 2.5v2.5zM62 211q1 1 2 1.5t2 0.5v0h1v0v0q1 -1 2.5 -3t2.5 -2q1 -11 1.5 -19.5t0.5 -19.5v-3q0 -3 -0.5 -6t-0.5 -5v-4q-1 -2 -1.5 -2.5t-2.5 -0.5t-3.5 6t-2 14.5t-1 17.5t-0.5 15v6v4zM112 204q0 2 1 2h2h2t1 -2v-10v-10v-7.5t-0.5 -11.5
t-1 -11.5t-0.5 -7.5t-1.5 -2h-2.5h-2t-1 2q0 1 -0.5 4.5t-0.5 4.5q0 13 1.5 25.5t2.5 23.5zM92 14q-1 0 -5 5.5t-9 13l-11 16.5t-10.5 17t-7.5 13.5t-3 7.5h1.5t3.5 -0.5t3.5 -0.5h1.5q1 0 3.5 -4t6.5 -10t8 -13t7.5 -13t7 -10t5.5 -4q1 0 3 3t5.5 7.5t7 9.5l7 10t6.5 9.5
t5 5.5l0.5 0.5l0.5 0.5q3 0 3.5 -2.5t0.5 -4.5q0 -1 -3 -5.5t-7.5 -11.5t-9.5 -14t-9.5 -13l-7.5 -10t-4 -3zM75 73q0 1 0.5 2t3.5 1h4h4q7 0 11.5 -0.5t11.5 -1.5q1 0 1.5 -0.5l0.5 -0.5v-2v-0.5v-0.5q-1 0 -1.5 -0.5l-0.5 -0.5h-33q-1 0 -1.5 1.5t-0.5 2.5zM142 66
q0 2 3 4h9q2 0 7.5 0.5t10.5 0t9 -1.5t4 -3q0 -1 -0.5 -2.5t-1.5 -1.5h-39q-2 0 -2 1.5v2.5z" />
</svg>
