<?xml version="1.0" standalone="no"?>
<!DOCTYPE svg PUBLIC "-//W3C//DTD SVG 1.1//EN" "http://www.w3.org/Graphics/SVG/1.1/DTD/svg11.dtd" >
<svg xmlns="http://www.w3.org/2000/svg" xmlns:xlink="http://www.w3.org/1999/xlink" version="1.1" viewBox="-10 0 266 256">
   <path fill="currentColor"
d="M146 236q0 2 1 4t4 2q1 0 2 -1.5l2 -3t1.5 -3t0.5 -2.5q0 -14 -2.5 -27.5t-2.5 -27.5q0 -25 1.5 -49t3.5 -48v-13v-12q-2 -2 -7 -5t-10.5 -5.5t-11 -4.5t-7.5 -2q0 3 1 4.5t2.5 2.5l3 2t2.5 3q0 2 0.5 5.5t0.5 5.5v8q0 5 -2 9q0 22 -1 42t-1 41v15.5t0.5 14.5t1 15
t0.5 17q1 0 3 -0.5t3 -2.5q-1 -34 0 -68.5t2 -68.5v-3.5v-5.5t0.5 -5.5t0.5 -3.5q0 -2 1.5 -5t3.5 -3h2.5t1.5 1v21q0 26 -0.5 52t-0.5 52v11v15.5v16.5v10zM50 230q1 0 2 1.5t2 1.5h9q7 0 14.5 -0.5t14.5 -0.5q2 -1 6 -1.5l8 -1t6.5 -1l2.5 -0.5v-7q-6 0 -11 1t-11 1h-2
t-2 -1v-87q0 -3 2.5 -4.5t5.5 -1.5h15l0.5 -1l0.5 -1q1 -1 1.5 -2l0.5 -1q-1 -3 -4 -4t-5 -1q-4 0 -7 0.5t-6 0.5h-4l-0.5 -1t-1.5 -2v0q0 -8 3.5 -11t7 -4.5t7 -2t3.5 -3.5t-2 -3h-5q-1 0 -4 0.5t-7 1t-6.5 2t-2.5 2.5v21l-3 3h-23q-2 0 -2.5 2.5t-0.5 3.5v2.5t2 1.5
q1 0 4 -0.5t6.5 -1t6.5 -1t4 -0.5h2h1.5t1.5 2q0 3 -0.5 11t-0.5 17t0.5 16.5t0.5 10.5v4t0.5 7t0.5 7v3v1v1q0 2 -0.5 6t-0.5 6q-2 2 -5.5 2.5t-7.5 1t-7.5 0t-5.5 -0.5q-1 0 -1.5 0.5l-0.5 0.5q-1 1 -1.5 2.5zM159 174q0 12 3 18t8 10t12 7.5t16 8.5h1h2q7 0 7 -6
q0 -4 -3 -5t-6 -1t-6.5 -0.5t-3.5 -3.5v-16q0 -7 0.5 -14.5t0.5 -14.5q0 -3 0.5 -6t0.5 -6.5t0.5 -5.5l0.5 -2l2 -2q-1 -12 0 -26t2 -26q1 -7 3 -14.5t2 -15.5q0 -2 -0.5 -3.5t-3.5 -1.5q-2 0 -3 1.5l-2 3t-1 3.5t-1 4q0 2 -0.5 8t-1 13t-1 13.5t-0.5 7.5v2.5t-0.5 3t-0.5 3
v1.5q0 2 -0.5 7t-1 11t-1 11.5t-0.5 8.5q-1 9 -0.5 18.5t-1.5 18.5q0 1 -1 2.5l-2 3t-2 2.5t-2 1q-2 0 -3.5 -3.5t-1.5 -5.5v-26q0 -28 2.5 -55.5t6.5 -55.5v-1v-2q0 -2 -1 -3.5t-3 -1.5t-3.5 1.5t-1.5 3.5q-1 16 -2.5 32t-3 31.5t-3 31.5t-1.5 32zM58 214l1.5 0.5l1.5 0.5
q2 0 3.5 -1.5t2.5 -4t1.5 -4.5t0.5 -3v-7.5v-11.5v-12.5v-7.5v-1.5t0.5 -2.5t0.5 -2.5v-1.5q0 -2 -0.5 -3.5l-0.5 -1.5h-9q0 13 -1 26t-1 26v12zM103 210l1 2h1h1q0 -1 2 -3l2 -2q1 -1 1 -4v-3q0 -13 -1 -26t-1 -26q-1 -2 -2 -3.5t-3 -1.5q-4 0 -3 5v24v19t2 19zM87 19
q-1 0 -4.5 4t-7.5 10.5t-9 13.5t-9 13.5t-6.5 11t-2.5 6.5q5 0 9.5 -3.5t8 -8.5t6.5 -10.5t5.5 -10.5t5 -8t4.5 -3t4 2.5t5 6t6 8.5t6 8.5t6.5 6t5.5 2.5t2.5 -1.5t0.5 -2.5v-1v-1l-4 -4l-6 -6t-5.5 -6t-3.5 -4q-2 -2 -4 -6t-4 -7.5t-4.5 -6.5t-4.5 -3zM72 65l3 3h2h3h5
t8 -0.5t7 -1.5t3 -3q0 -3 -2 -3h-3h-5q-2 0 -5 0.5t-6.5 1t-6 1l-2.5 0.5z" />
</svg>
