<?xml version="1.0" standalone="no"?>
<!DOCTYPE svg PUBLIC "-//W3C//DTD SVG 1.1//EN" "http://www.w3.org/Graphics/SVG/1.1/DTD/svg11.dtd" >
<svg xmlns="http://www.w3.org/2000/svg" xmlns:xlink="http://www.w3.org/1999/xlink" version="1.1" viewBox="-10 0 266 256">
   <path fill="currentColor"
d="M122 154v99q3 0 6 -2t3 -6q-1 -65 2 -130v-2.5v-3.5t0.5 -3.5t0.5 -2.5q2 -8 6 -14t9 -11.5t8.5 -13t3.5 -17.5v-3.5t-0.5 -4.5t-2 -4t-3.5 -2l-2 -0.5t-5 -0.5t-5.5 -0.5t-4.5 -0.5h-2q-3 0 -4.5 1.5t-1.5 4.5t2.5 3h6.5h7.5t5.5 3v3v2q0 7 -2 13t-5 11t-7 10t-7 10
q0 1 -2 3.5l-2 2.5q-3 7 -3 14t0.5 14t0 14t-2.5 14zM170 173q3 0 5.5 5.5t5 13.5t4.5 17.5t4 17.5t4 13.5t5 5.5v0v0q2 0 4 -2t2 -4q0 -4 -1 -7t-2.5 -6l-3 -6t-2.5 -6q0 -1 -1 -6t-2.5 -10t-2.5 -9.5t-1 -6.5q-1 -5 -3.5 -10t-2.5 -10v-3v-2q10 -9 13 -18.5t3 -23.5
q0 -4 -1 -7.5t-6 -5.5h-11h-8t-12 0.5t-11 1.5t-6 4q0 2 2.5 3t4.5 1q6 0 13 -1.5t14 -1.5q8 0 9.5 4.5t1.5 11.5q0 2 -0.5 6t-1.5 7.5t-3 6.5t-6 3l-1 -2.5l-2 -5t-3.5 -5t-6.5 -2.5t-9 1.5t-9 3.5v1v1q0 2 0.5 3t3.5 1t5.5 -1t5.5 -1q6 0 8 4t3 10q0 3 -2 5.5t-5 4t-6.5 3
l-7 3t-5.5 3.5t-2 5q0 4 4 4t6.5 -2l5 -4l5 -4t5.5 -2zM58 210q-2 2 -2.5 4.5t-0.5 5.5h3q3 0 6 -0.5t5.5 -0.5h3.5t6 -0.5t11 -1t11 -1t6 -0.5t3 0.5t3.5 0l3 -1t1.5 -2.5v-1l-2 -2l-1 -1h-17l-0.5 -3.5t-0.5 -5.5q-2 -14 -2 -27v-27v-12q1 -2 4.5 -2.5l7 -1t6 -1.5t2.5 -4
q0 -1 -0.5 -2.5t-2.5 -1.5h-15v-17q0 -1 2.5 -1t6 -0.5t6.5 -2.5t3 -8h-8q-4 0 -9 1t-8 3t-4 7v16q-1 3 -4.5 4t-7 1.5t-7 0t-5.5 -0.5l-1 1l-2 2v1q0 2 2.5 3.5t4.5 1.5q4 0 8 -1t8 -1q2 0 2.5 0.5t1.5 2.5q0 9 0.5 17.5t0.5 16.5t0.5 16t0.5 16q0 6 -3 8.5t-7.5 3t-10 0
t-9.5 -1.5zM71 147q-2 0 -3.5 1t-1.5 4v38v2t1 4t2 2q3 0 4 -1.5t1 -4.5v-41q0 -3 -1 -3.5t-2 -0.5zM109 144q-1 0 -2 0.5t-1 1.5v51h6l0.5 -5.5t1 -12t1 -13.5t0.5 -10q0 -2 -0.5 -4t-1 -3.5t-1.5 -3t-3 -1.5zM159 80q0 2 1.5 3t3.5 1q19 0 27.5 -8t8.5 -28
q0 -8 -3.5 -11.5t-11.5 -3.5q-2 0 -4.5 -0.5t-5 0t-5 1.5t-2.5 3v1l1.5 3l0.5 1h16q1 0 1.5 1.5l1 3t0.5 3v2.5q0 7 -2 11t-5.5 7t-7.5 4t-7 2t-5.5 1.5t-2.5 2.5zM52 77q0 2 1.5 2.5t3.5 0.5h1q11 -9 19 -22t15 -25q0 -1 0.5 -1.5t1.5 -0.5q1 1 4 5t7 9t7 9.5l3 4.5
q0 1 -0.5 1.5t-1.5 0.5q-4 2 -8 1.5t-10 0.5h-3.5h-5.5t-5.5 0.5t-3.5 0.5t-1 1.5v2.5v2t1 2h7q9 0 16.5 -1t15.5 -4h1h1q1 1 3.5 4t3.5 3q1 1 2 1.5l1 0.5q2 -1 2.5 -2t0.5 -3q0 -4 -2.5 -9t-6 -9.5t-7.5 -9t-6 -7.5q-1 -1 -2.5 -4t-3 -6.5t-3 -6.5t-2.5 -4l-1 -0.5
t-2 -0.5q-2 0 -4 2t-3 4.5t-2.5 5t-2.5 4.5q-1 1 -3.5 5.5t-6 9.5t-7.5 10.5t-7 10t-5 8z" />
</svg>
