<?xml version="1.0" standalone="no"?>
<!DOCTYPE svg PUBLIC "-//W3C//DTD SVG 1.1//EN" "http://www.w3.org/Graphics/SVG/1.1/DTD/svg11.dtd" >
<svg xmlns="http://www.w3.org/2000/svg" xmlns:xlink="http://www.w3.org/1999/xlink" version="1.1" viewBox="-10 0 266 256">
   <path fill="currentColor"
d="M51 244q0 3 3 5t6 2q11 0 23 -2.5t24 -2.5q1 0 3.5 -0.5t5 -0.5t5 -0.5t3.5 -0.5l3 -3v-1q0 -3 -2 -4.5t-4 -1.5q-4 0 -8 1t-9 1h-3h-2l-2 -2v-4t-0.5 -9.5t-1 -11.5t-0.5 -10q0 -10 -0.5 -20t-0.5 -21v-8v-3.5t0.5 -4.5t0.5 -3.5v-1.5l23 -4v-1v-1q0 -3 -0.5 -4.5
t-3.5 -1.5q-4 0 -7 1t-7 1h-2q-3 0 -3 -2v-15q0 -2 3 -2.5t7 -1.5t6.5 -2t2.5 -4q0 -1 -0.5 -2l-0.5 -1h-4h-5t-5.5 0.5t-4.5 1t-3 1.5l-3 3v4v5v5v3q-1 3 -2.5 5.5t-4.5 2.5l-25 4l-0.5 0.5t-1.5 0.5q0 1 -0.5 2.5l-0.5 1.5q0 1 1 3t3 2q6 0 11.5 -2.5t12.5 -2.5q2 0 3 0.5
t2 2.5q0 3 0.5 12t1 18.5t1 18t0.5 12.5v15v14q0 2 -0.5 4.5l-0.5 2.5l-35 4q-1 0 -1.5 1t-0.5 2zM140 126v5v6v5.5v2.5q0 1 0.5 3.5t0.5 6v6v3.5q1 12 0 24t1 22t8 16t21 6q7 0 13.5 -0.5t11.5 -2.5t8.5 -6.5t6.5 -11.5v-4v-5v-5v-4q0 -40 -1.5 -80t-3.5 -80l-2.5 -2.5
t-2.5 -1.5t-1 1q-1 0 -2 1.5l-1 1.5v43q0 1 -0.5 3t-1.5 3l-0.5 0.5l-0.5 0.5h-46q0 -9 1 -17.5t1 -16.5v-14l-2 -2l-2 -2h-1v0q-1 1 -2.5 2t-1.5 2v62q-1 7 -1 14v15zM151 209q-2 -8 -2.5 -14.5l-1 -13t-0.5 -13.5v-15v-5v-8t0.5 -8t0.5 -5t0.5 -4.5t1.5 -4.5v-25h7.5
t11.5 -0.5t12 -0.5h8q0 -1 1 -1h3q2 0 3 1.5l2 3t1 4t1 5.5q-1 21 0.5 40.5t1.5 40.5v5q0 2 -0.5 5.5t-0.5 6.5v4q-1 8 -6.5 12.5t-12.5 4.5q-4 0 -9 -0.5t-9.5 -2t-8 -4.5t-4.5 -8zM66 213v2.5t0.5 3t1 2.5t2.5 1t3 -2.5t1.5 -6t0.5 -7.5v-4v-10.5t-0.5 -9t-0.5 -9.5
t-1 -11q-2 -3 -5 -3q-2 0 -2 1.5v2.5q0 7 0.5 13.5t0.5 13.5q0 6 -0.5 11.5t-0.5 11.5zM111 212q1 2 2 3.5t3 1.5h2t1 -2v-5v-6q0 -3 -0.5 -10t-1 -14.5t-1 -14.5t-0.5 -10l-1.5 -1.5l-1.5 -1.5h-0.5h-0.5q-3 0 -3.5 2.5t-0.5 4.5q0 5 1.5 10.5t1.5 10.5q0 2 0.5 6.5
t0.5 9.5t-0.5 10t-0.5 6zM155 157q0 1 0.5 2t1.5 1h11q1 0 5.5 0.5t9 0t8 -1.5t3.5 -5q0 -2 -1.5 -3.5t-3.5 -1.5h-7.5t-11.5 1t-10.5 2.5t-4.5 4.5zM48 93q0 2 2 2h3q3 0 6 -4.5t5.5 -11t5 -14.5t5.5 -15.5t6 -13.5t7 -8q1 1 4.5 5.5t7.5 11t8.5 13.5t8.5 13t6.5 10t3.5 4
q2 0 3 -1t1 -4l-3 -5t-6.5 -12.5t-8.5 -16.5t-9.5 -16.5t-8 -12t-5.5 -4.5h-3.5t-3.5 1q-2 9 -5.5 14.5t-7.5 12.5q-4 9 -6.5 18t-7.5 17l-5 7.5t-3 9.5zM77 71q0 2 1.5 3.5t2.5 1.5t3.5 -0.5t3.5 -0.5h6.5t6 -0.5t4.5 -2.5t2 -6q-16 0 -30 4v1z" />
</svg>
