<?xml version="1.0" standalone="no"?>
<!DOCTYPE svg PUBLIC "-//W3C//DTD SVG 1.1//EN" "http://www.w3.org/Graphics/SVG/1.1/DTD/svg11.dtd" >
<svg xmlns="http://www.w3.org/2000/svg" xmlns:xlink="http://www.w3.org/1999/xlink" version="1.1" viewBox="-10 0 266 256">
   <path fill="currentColor"
d="M66 243q5 1 8.5 1.5t8.5 0.5q23 0 47.5 -0.5t48.5 -2.5q1 0 3 -2l3 -3l-3 -3h-48v-32q0 -2 1 -4t3 -4q9 0 20 -1t21 -3l3 -1l-2 -4h-26v-18q0 -2 -0.5 -2.5t-1.5 -0.5h-2.5t-1.5 1v17q0 2 -1 2.5t-2.5 1t-2.5 0.5h-2q-2 0 -4 -0.5t-2 -3.5q-1 -1 -1 -3v-4q0 -3 2 -8
t5 -10t6.5 -8t6.5 -3h2h1l36 16q3 2 6.5 2h6.5q0 -3 -4.5 -6.5t-10 -6l-11 -5t-8.5 -3.5l-2 -1.5t-4 -2.5l-4 -2t-2 -2q-4 -2 -7.5 -3t-6.5 -2t-6 -3t-5 -5q2 -2 4 -2.5t3.5 -1t3.5 -1t5 -2.5q12 -4 18 -14t6 -22v-12t-1 -12q-3 -3 -9.5 -7t-14 -8t-13 -7l-5.5 -3l-4 -16
q0 -2 -1.5 -3t-2.5 -1t-1.5 1l-1.5 3v2.5t-0.5 5.5t-0.5 5.5v2.5q-1 3 -3.5 4.5t-5.5 2l-6 1l-3 0.5q-4 1 -6.5 4t-6.5 5q-8 5 -12 14t-4 19q0 8 3 14t7.5 11t10 8t9.5 5.5t7.5 4t3.5 2.5v1l-2 2l-2.5 2.5l-3 3l-1.5 1.5l-6.5 6.5l-10 10l-12 12t-11.5 12t-8.5 9t-3.5 4.5h6
q1 -1 4 -3.5l6 -5t6 -4.5t4 -3q3 -2 6 -5.5l6 -7l6 -7t6 -4.5q1 1 3 2.5t4.5 3.5t4.5 3.5t3 2.5l1.5 1t2.5 1.5l2 1l1 0.5l1.5 1.5l0.5 0.5v1v1q0 2 -0.5 5t-0.5 6t-0.5 5l-0.5 2l-2 2h-6.5h-9t-9 0.5t-5.5 0.5h-3t-4.5 0.5t-4 0.5h-2.5q-2 1 -4 1.5t-2 3.5h51l0.5 2.5
t0.5 3.5l0.5 2t0.5 4v5v3v3v5q0 2 -0.5 4t-0.5 3q0 4 -4 4q-1 0 -4.5 0.5t-7.5 1t-7.5 0.5h-4.5h-3h-6h-6h-3t-3 0.5l-4 1t-3.5 1.5t-1.5 2v1zM99 216v3.5v5t1 4.5t3 2v0h1q2 -3 2.5 -5.5t0.5 -6.5v-3q0 -3 -0.5 -4.5t-1.5 -3t-4 -1.5v0l-2 1v8zM147 221q0 2 0.5 3t2.5 1
t3 -1.5t1.5 -3.5t0.5 -4v-3v-3t-0.5 -4t-1.5 -3.5t-3 -1.5l-1 0.5l-1 0.5v3t-0.5 4.5t-0.5 4.5v3v4zM110 143v-2l2 -2l4 -4l3.5 -3.5l2.5 -2.5l1 -0.5l1 -0.5q2 0 5.5 1t6 3t5 4.5t2.5 4.5q0 1 -2 4l-4 6t-4.5 5t-4.5 2h-1h-1q-1 -1 -3 -2.5t-4.5 -3.5t-4.5 -3.5t-3 -2.5
t-1 -1.5v-1.5zM81 76q0 -6 3 -12t8 -10.5t10.5 -7.5t11.5 -3h22q4 0 7 2t5 4q9 4 13 10t4 16t-3 17.5t-8.5 12t-13 7t-16.5 2.5t-16.5 -2.5t-13.5 -7t-9.5 -11.5t-3.5 -17zM98 79q0 6 2 9.5t6 5.5t9 2.5t9 0.5h5h5t3.5 -1.5t3 -3.5t2.5 -4t2 -3l0.5 -2.5l0.5 -2.5
q0 -12 -5 -17t-17 -5q-4 0 -9 1t-8.5 3.5t-6 6.5t-2.5 10zM106 79q0 -2 1 -4t2 -4.5t2.5 -4t3.5 -1.5h17q2 0 3.5 2t2 5t0.5 5.5v4.5q0 3 -1.5 5t-3.5 3t-5 1h-5q-7 0 -12 -2t-5 -10zM115 79q0 3 2.5 4t4.5 1t3.5 -1.5t1.5 -3.5q0 -3 -2 -4t-4 -1t-4 1.5t-2 3.5z" />
</svg>
