<?xml version="1.0" standalone="no"?>
<!DOCTYPE svg PUBLIC "-//W3C//DTD SVG 1.1//EN" "http://www.w3.org/Graphics/SVG/1.1/DTD/svg11.dtd" >
<svg xmlns="http://www.w3.org/2000/svg" xmlns:xlink="http://www.w3.org/1999/xlink" version="1.1" viewBox="-10 0 266 256">
   <path fill="currentColor"
d="M173 226v4.5t1 8t3 7.5t5 5q1 0 2 -1t1.5 -2t0.5 -2.5v-2.5q0 -7 -2 -13t-2 -13q0 -2 -0.5 -4.5t1.5 -4.5l1.5 -1.5l3 -3l3 -3l1.5 -1.5q3 -4 8 -11t7 -14q3 -6 3 -14v-15q0 -9 -2 -18t-6.5 -15.5t-11.5 -10.5t-17 -4h-6h-5q-8 4 -13.5 10t-9 13.5t-5 15.5t-1.5 17
q0 5 1 13.5t3 17.5t5 16t6 7q2 0 2.5 -1.5t0.5 -2.5v-1.5v-1.5q-1 0 -2 -3l-2 -6t-1.5 -5.5t-0.5 -3.5q-1 -1 -0.5 -3t1 -4.5t0.5 -5v-3.5q6 0 11 3t9 6.5t7.5 6t5.5 2.5q1 0 2.5 -1t1.5 -3q0 -1 -0.5 -3t-2.5 -3q-1 0 -4 -2l-6 -4l-6 -4t-5 -3q-1 -1 -4 -2t-6 -2.5t-5 -3.5
t-2 -5q0 -4 1 -7.5t2 -7.5h4q6 0 11 2t9.5 4.5t9 6t9.5 6.5h1q2 0 2.5 -1t0.5 -3q0 -4 -3 -7t-8 -5.5t-11 -4t-11 -3t-8.5 -3.5t-3.5 -4q0 -4 2.5 -7t5.5 -5.5t6.5 -4t6.5 -1.5q12 0 18.5 5t10 12.5t4 17.5t0.5 20q0 11 -4.5 18.5t-9.5 15t-9.5 15.5t-4.5 19zM49 224v0
q0 1 1 1l0.5 1t0.5 2h3h4h4h2q15 0 30 -1l30 -2q2 0 2.5 -1t0.5 -2q0 -2 -1.5 -3.5t-3.5 -1.5q-4 0 -8 1t-8 1t-6.5 -0.5t-6.5 -1.5q0 -11 -2 -23v-67h24q1 0 1 -2v-2v-2t-1 -1q-4 0 -6.5 0.5t-5 0t-4.5 -0.5t-5 -2l-3 -1v-14q0 -2 2 -2.5t5 -1t5 -1t3 -2.5q0 -1 -0.5 -2
t-1.5 -2h-3h-4q-6 0 -11 2t-5 9v2t0.5 2.5t0.5 3v1.5v5v3l-3 1h-25q-2 0 -2.5 1t-0.5 3q0 3 2 3.5t4 0.5q4 0 8.5 -1t9.5 -1h6q1 1 1.5 6.5t1 12.5t1 15.5t0.5 16v14.5v9v8t-1 8q-2 2 -6.5 2.5t-5.5 0.5h-20q0 1 -1 2l-1 1q-1 0 -1 1zM60 206q0 4 3 4h2h1q3 -16 4.5 -33.5
t1.5 -32.5q0 -2 -1 -2.5t-3 -0.5q-3 0 -4 2t-1.5 4.5t0 5t0.5 3.5q0 2 -0.5 9t-1 15t-1 15t-0.5 9v2zM104 165q0 2 0.5 8.5t1 13.5t1.5 12.5t3 5.5v0q1 0 2 -1.5l1 -1.5v-58q0 -2 -1 -2.5t-2 -0.5q-3 0 -4 3t-1.5 7t-0.5 8v6zM133 87v3t3 2q4 -1 6 -8t3.5 -16t2 -17t0.5 -11
q0 -1 -1.5 -3t-2.5 -2q-3 0 -4.5 4t-2 9.5t0 10.5t-0.5 8q-1 5 -2.5 10t-1.5 10zM164 88l1 1h1h1l1 -1q1 -1 1 -3t0.5 -4.5t1 -4.5t0.5 -3v-3q0 -6 -0.5 -12t-0.5 -13q0 -6 0.5 -12.5t0.5 -12.5q0 -3 -0.5 -4t-2.5 -4l-3 3t-3 4v27v20.5t2 21.5zM187 36q0 6 1 11.5t2 11.5
l2 12t2 11q0 3 1 5t4 2t3.5 -1t0.5 -4v-2q0 -2 -1 -2l-0.5 -2.5t-1.5 -5t-1.5 -4.5t-0.5 -3v-4t-0.5 -6.5t-0.5 -6.5v-4t-0.5 -3.5l-1 -5t-1.5 -4.5t-3 -2q-1 0 -2 0.5t-1.5 1t-0.5 2.5v3zM47 84v3t2 1t6 -4.5t7.5 -10.5l7 -12t5.5 -8q1 -1 2 -2.5t3 -3t3 -3t2 -2.5h1.5h0.5
q2 0 5 2.5t5.5 5.5t4 6.5t1.5 5.5t-2.5 3.5t-6 2t-8.5 0.5h-8.5t-6 1t-2.5 3v1l1 0.5t2 0.5t4.5 0.5t4.5 0.5q5 0 10.5 -0.5t10.5 -1.5l0.5 -0.5l1.5 -1.5t2 -1h2q1 -1 2.5 0.5t3 3.5t4 3.5t5.5 1.5q0 -5 -2 -8.5t-5 -7l-6 -7t-6 -6.5l-3 -6l-4 -8t-4.5 -6.5t-6.5 -2.5
q-5 0 -7 4l-4 8q-6 11 -14 21.5t-14 21.5v2z" />
</svg>
