<?xml version="1.0" standalone="no"?>
<!DOCTYPE svg PUBLIC "-//W3C//DTD SVG 1.1//EN" "http://www.w3.org/Graphics/SVG/1.1/DTD/svg11.dtd" >
<svg xmlns="http://www.w3.org/2000/svg" xmlns:xlink="http://www.w3.org/1999/xlink" version="1.1" viewBox="-10 0 266 256">
   <path fill="currentColor"
d="M137 245q0 2 1.5 4t3.5 2q3 0 4.5 -3.5t1.5 -6.5v-67h14l3 3v11.5t2 10.5v50q0 1 1 1.5t2 0.5q3 0 4.5 -4t1.5 -6q0 -8 -0.5 -14t-1 -12.5t-0.5 -12.5v-13v-3v-4t0.5 -3t0.5 -2l2 -3h16q1 7 1.5 15t1 16.5t0.5 17.5v16q2 7 8 7q3 0 4 -1t1 -4q0 -5 -1 -11t-2 -11
q-1 -3 -1 -8.5t-0.5 -12.5t-1.5 -15.5t-1 -15.5t-0.5 -12.5t-0.5 -8.5v-12q0 -14 0.5 -28t0.5 -28v-7q-1 -1 -2 -1.5t-3 -0.5h-2t-2 2q0 1 -0.5 2.5t-0.5 4t-0.5 4.5l-0.5 2q0 1 0.5 3t0.5 5v4v3h-17q-1 -1 -1 -5.5t-0.5 -9t-0.5 -8v-5.5l-2 -8t-3 -7q-2 -2 -4 -4.5
t-4.5 -5.5t-4 -6t-1.5 -6t2.5 -4t5.5 -2t6 -1h5q2 0 6 0.5t7.5 1t6 2t2.5 4.5q0 1 -0.5 3t-0.5 4t-1 3.5t-2 1.5l-12 7v1v1v3.5t3 1.5q10 0 16 -7.5t6 -17.5v-9q-6 -6 -13 -7t-15 -1q-12 0 -22.5 1.5t-22.5 0.5q-3 1 -4 2.5t-1 3.5q0 4 3 4t5.5 -1t5.5 -1t4.5 2.5t2 5.5l1 6
t1.5 4q2 3 4 5.5t4 4.5t4 4.5t3 5.5q1 4 1 9.5v11.5v11v8v24q-1 0 -5.5 0.5t-5.5 0.5h-4h-4v-55q0 -2 -1.5 -2.5t-2.5 -0.5t-2 1t-1.5 2.5t-1 3.5l-0.5 2v1q0 1 0.5 3l1 4l1 4t0.5 3q0 4 -1 7.5t-1 6.5q0 17 1 33.5t1 33.5v5v9v7.5v5.5q-2 4 -2.5 8.5t-0.5 9.5t0.5 10
t-0.5 10v1zM54 232q0 2 1.5 2.5l3 1t3.5 0.5h3q14 0 27 -2.5t26 -2.5q4 -2 4.5 -3.5t0.5 -4.5h-25l-0.5 -1t-1 -1.5t-0.5 -1.5t-0.5 -2.5t-0.5 -2.5v-1v-82l3 -4h19q1 0 2 -2.5t1 -3.5q0 -3 -2 -4t-4 -1q-3 0 -6 1t-6 1t-4.5 -1t-2.5 -5q0 -8 1.5 -12.5t3.5 -6.5t4.5 -2.5
t4.5 -0.5t3 -0.5t1 -3.5q0 -1 -0.5 -1.5l-0.5 -0.5h-4h-3q-7 0 -11 3.5t-6 8.5t-2.5 11t0.5 12q-3 1 -6.5 1.5t-7 0.5h-6.5h-5q-1 0 -2 0.5t-2 0.5v1v1q1 1 2 2.5t2 1.5h20l1 1l2 2l1 0.5l1 0.5v92l-30 3q-1 1 -1.5 2.5t-0.5 2.5zM62 213q1 3 5 3q2 0 3.5 -2t2 -4.5t0.5 -5
v-3.5v-27v-27q-1 -2 -2 -3.5t-3 -1.5q-1 0 -1.5 1l-1.5 3q-2 5 -2.5 10t-0.5 11v4v5.5v7.5v6v4v7v7v5zM114 142q-2 0 -4.5 1t-2.5 3v56q0 1 0.5 2.5t1.5 3.5t2 3.5t2 1.5q2 0 3 -3t1 -4v-60q0 -4 -3 -4zM148 144l1 -3l1.5 -0.5t3 -0.5t3 -0.5t2.5 -0.5h3q1 0 2.5 2.5
t1.5 5.5t0.5 6t0.5 4v0q-1 2 -1.5 4.5l-0.5 2.5l-0.5 1l-0.5 1h-16v-22zM186 139h3q2 0 2 2v26q-1 0 -5 -0.5t-5 -0.5q-2 -1 -3.5 -2t-1.5 -2v-21q0 -1 1.5 -1t3 -0.5t3.5 -0.5h2zM176 129v-5.5t-0.5 -4.5t-1 -3.5t-0.5 -4.5q0 -2 0.5 -2.5t2.5 -1.5h3h4h3h3v24l-1 0.5
t-2 0.5h-2h-2.5t-3 -0.5t-2.5 -0.5l-0.5 -1zM50 77q0 3 0.5 4.5t3.5 1.5q1 0 4 -4t6.5 -9t7.5 -12t7.5 -13t7 -10.5t5.5 -7.5q0 1 1 2l2.5 2.5l2.5 2.5l2 2t2.5 3.5t3.5 5t3.5 5t1.5 3.5q0 3 -2 4.5t-5 1.5h-25q-2 0 -3.5 2.5t-1.5 4.5q1 1 2 1.5t3 0.5q1 0 2 -0.5t2 -0.5
h12.5t13.5 -1q1 -1 2 -1.5t3 -0.5t3.5 1.5l3 3l3 3t4.5 1.5q2 0 2.5 -2t0.5 -4q0 -3 -4 -9t-9 -13t-10 -13.5t-7 -10.5l-0.5 -1.5l-1 -3t-1 -2.5l-0.5 -1q0 -1 -1 -1h-3q-3 0 -4.5 1t-2.5 2.5t-2 3.5t-3 5q0 1 -1.5 3l-3 4l-3 4l-1.5 2q0 1 -2 4.5t-4.5 7.5t-4.5 7.5t-3 4.5
q-1 2 -3 4l-3.5 3.5t-2 4t-0.5 4.5z" />
</svg>
