<?xml version="1.0" standalone="no"?>
<!DOCTYPE svg PUBLIC "-//W3C//DTD SVG 1.1//EN" "http://www.w3.org/Graphics/SVG/1.1/DTD/svg11.dtd" >
<svg xmlns="http://www.w3.org/2000/svg" xmlns:xlink="http://www.w3.org/1999/xlink" version="1.1" viewBox="-10 0 266 256">
   <path fill="currentColor"
d="M202 244q-1 3 0.5 3.5t3.5 0.5q4 0 6.5 -3t2.5 -8t-2 -9t-3 -8t-1 -8.5t-1 -9.5t-2.5 -8.5t-5.5 -6.5q-1 -1 -3.5 -2t-5.5 -2.5t-5.5 -3t-3.5 -1.5q-2 0 -5.5 -1t-7.5 -2.5t-7.5 -2.5t-4.5 -1t-2.5 -1t-2.5 -2q-1 -10 -1 -20.5v-19.5q0 -3 -2 -4.5t-4.5 -2.5t-5 -1.5
t-4.5 -0.5q-3 0 -6 2t-5.5 5t-3.5 6.5t-1 7.5v6v8.5v8.5v5q0 19 1 37.5t1 36.5q0 1 1 2.5t2 1.5h1q4 0 5.5 -4t1.5 -7q0 -2 -0.5 -9.5t-1 -15.5t-1.5 -15t-2 -8v-19v-20q0 -2 0.5 -5.5t2 -6.5t3.5 -5t5 -2h3t3 2v37q0 5 6.5 8.5t15.5 6.5t17 6.5t11 7.5q3 5 4.5 11t2 12.5
t1 12.5t0.5 11zM39 226q0 2 2 2h3h2h6t8 -0.5t7.5 -0.5h3.5q3 -1 9.5 -1t14 -1t13 -2t5.5 -3q0 -1 -0.5 -2t-1.5 -2q-3 -1 -6.5 -1.5t-7.5 -0.5t-7.5 0.5t-6.5 0.5q0 -17 -0.5 -32.5t-0.5 -32.5v-2v-5v-4t1 -3q3 -2 7.5 -2.5t9.5 -1t9 -1.5t4 -3q0 -1 -0.5 -2t-1.5 -2
q-1 0 -3.5 -0.5t-5 -0.5t-5.5 -0.5t-4 -0.5l-2.5 1t-3.5 1q-2 0 -3 -1.5t-1.5 -4t-0.5 -5v-3.5q0 -4 2 -6.5t5 -3t6 -0.5h7q1 -1 1 -2v-3v-2.5t-1 -1.5t-4 -0.5t-5 -0.5q-7 0 -11.5 2.5t-6.5 7t-2.5 10.5t0.5 12q-1 2 -2.5 2.5t-2.5 1.5h-19q-1 0 -2.5 0.5t-3 1.5l-3 2
t-1.5 2v1q1 0 2 1.5t2 1.5h30l1 2l0.5 2.5t0.5 6.5v7v5v8v11q0 5 -0.5 9t-0.5 5v6.5t-0.5 8.5t-0.5 6.5v2.5l-2 2h-24q-1 0 -2 1l-2.5 2.5l-2.5 2.5t-1 2zM50 176v6t0.5 6.5t0.5 5.5v3v3.5t0.5 4.5t2 3.5t3.5 1.5t3.5 -2t1.5 -4v-54q0 -3 -2 -4t-4 -1q-4 0 -4.5 3t-0.5 7v3
q0 3 -0.5 6t-0.5 7v5zM95 199q0 4 1.5 6.5t5.5 2.5q1 0 2 -0.5t1 -3.5v-2v-4v-4v-2q0 -11 -1 -21t-1 -21q-1 -2 -2 -3.5t-3 -1.5q-1 0 -2 1t-1.5 2.5t-1 3.5t-0.5 3q1 2 1 7t1 10t1.5 10t0.5 7v1v0q0 1 -1 4l-1 3v2zM152 93q0 3 0.5 10t1.5 14t2.5 13t4.5 8t7 3.5t7 3.5
q6 4 12.5 7t13.5 3h6l0.5 -1.5l0.5 -1.5q0 -4 -4.5 -6t-9.5 -2.5t-9.5 -2t-4.5 -5.5v-12l2.5 -2t6.5 -4t7 -4t4 -4q2 -12 3 -25t1 -25q0 -2 -1 -3.5t-1.5 -3.5t-2 -3t-2.5 -1q-3 0 -5 4q1 13 0.5 26.5t-1.5 25.5q0 3 -2 3.5t-3 0.5l-1.5 -0.5l-1.5 -0.5q-1 -10 -1.5 -17
t-0.5 -16q0 -8 1 -15t1 -16q2 -2 5.5 -4l7 -4t6 -4t2.5 -6q0 -5 -5 -5l-4 2.5t-9 6.5t-11 8.5t-11 8.5t-8.5 6.5l-3.5 2.5v3.5v2.5q4 0 7 -1t5 -2.5t3.5 -3t3.5 -1.5h1q0 1 0.5 1.5l0.5 0.5q0 1 0.5 4t0.5 6v6v3v14v14.5t-1 14.5t-3 13h-2q-2 0 -3 -2.5t-1.5 -5.5t-1 -5.5
t-0.5 -3.5v-6.5t-0.5 -9.5t-0.5 -9.5v-6.5q-1 0 -2 -1.5t-2 -1.5v0h-1q-2 0 -2.5 2l-1 4t-0.5 4.5v3.5zM119 102q0 2 0.5 3.5t2.5 1.5q5 0 8.5 -5.5t6.5 -13t5 -14.5t4 -11v-4.5v-4.5q0 -4 -1.5 -11t-4.5 -14t-7 -11.5t-8 -4.5t-4 4t2.5 7.5t6 8.5t6 11t2.5 14q0 7 -3 13.5
t-6.5 12.5t-6.5 10.5t-3 7.5zM39 73q0 4 5 4q2 0 4.5 -1.5t4.5 -4t3 -5.5t3 -5q0 -1 2.5 -5t5.5 -8.5t5.5 -8.5t3.5 -5q2 -1 3 -2l2 -2t1.5 -2.5t2.5 -1.5t4 3.5t5 9t6.5 11.5t7 11.5t6.5 9t6 3.5q2 0 3 -2t1 -4v0v-1q-1 -2 -3 -5t-4.5 -6t-4.5 -6t-2 -4q-2 -2 -5 -7.5
t-7 -11.5t-8 -10.5t-7 -4.5t-4 0.5t-3 3.5q-1 2 -5 8t-9 13t-9.5 13t-5.5 8q-2 3 -5 6.5t-3 8.5zM61 70q0 1 0.5 2t1.5 2h4.5h4.5h6.5t5.5 -0.5t6 -0.5t7 -1q0 -1 2 -3t3 -2v-1q0 -2 -1.5 -2.5t-2.5 -0.5h-3q-2 0 -6.5 0.5t-9.5 1.5t-9.5 1t-6.5 1q-1 0 -1.5 1t-0.5 2z" />
</svg>
