<?xml version="1.0" standalone="no"?>
<!DOCTYPE svg PUBLIC "-//W3C//DTD SVG 1.1//EN" "http://www.w3.org/Graphics/SVG/1.1/DTD/svg11.dtd" >
<svg xmlns="http://www.w3.org/2000/svg" xmlns:xlink="http://www.w3.org/1999/xlink" version="1.1" viewBox="-10 0 266 256">
   <path fill="currentColor"
d="M163 229q0 2 1 6t2 7.5t3 5.5t5 2t4 -1t1 -4t-1.5 -6l-3 -6t-2.5 -6t-1 -7q0 -2 3 -5.5t7.5 -8.5l9 -10t6.5 -9q5 -9 5.5 -20.5t0.5 -22.5q0 -8 -0.5 -18.5t-3.5 -20.5t-9 -16.5t-17 -6.5t-19 4t-13.5 11.5t-8 17.5t-2.5 20q0 11 1 19.5t2.5 17t3.5 16.5t4 18q0 1 1 1.5
t2 0.5t2.5 -1.5t1.5 -3.5l-0.5 -2t-1.5 -3q0 -1 -0.5 -3t-0.5 -3q-1 -8 -2.5 -17t-1.5 -17v-5q0 -1 0.5 -1.5l0.5 -0.5h1q4 0 7 3t5.5 7t4 8.5t2.5 8.5t2 7t3 3t3 -1t1 -4q0 -12 -5 -19t-11.5 -12t-12 -9t-5.5 -10q0 -2 0.5 -4.5t1.5 -5.5t2.5 -4.5t3.5 -1.5q10 0 17 4.5
t11.5 10.5t7.5 11t4 5q2 0 2.5 -1.5t0.5 -3.5t-1 -3.5t-3 -3.5q0 -1 -1.5 -3.5t-3.5 -5.5t-3.5 -5.5t-1.5 -3.5q-3 -2 -8 -3.5t-9.5 -3t-8 -3t-3.5 -3.5v-1v-1q4 -8 11 -11t15 -3q10 0 15 7.5t7 18t2 21.5v17v10t-1 10.5t-3 10t-5 8.5q-4 5 -8 8.5t-7.5 7.5t-5.5 9t-2 12z
M51 215q0 3 1 3.5t3 0.5q15 0 30.5 -2t30.5 -3q2 0 2 -1v-2q0 -2 -1 -2.5t-4 -0.5h-16l-4 -3v-91l32 -7l-4 -4h-23q-1 0 -2 -1t-1 -2.5v-2.5v-2q0 -8 3 -11t6.5 -3.5t6 -0.5t2.5 -4q0 -2 -1 -3.5t-3 -1.5q-1 0 -5 0.5t-8 1.5t-7 3t-3 5v18q0 1 -0.5 2t-1.5 2l-0.5 1l-0.5 1
h-31q-2 0 -3 2.5t-1 3.5q8 0 18.5 0.5t17.5 2.5q1 0 1.5 1.5t1 3.5t0.5 3.5v2.5l-0.5 1.5l-0.5 1.5q0 20 -0.5 40t-1.5 40q-3 1 -7.5 1.5l-9 1t-8.5 0.5h-7q-1 1 -1 2v2zM62 126q-2 0 -2.5 0.5t-0.5 2.5v72q3 0 5 -2t2.5 -5t1 -6.5t0.5 -6.5v-3v-6.5v-7.5v-6v-5v-7v-7v-5
l-1.5 -6t-4.5 -2zM107 147v10.5v11.5q0 5 0.5 10.5t1.5 9.5q0 1 0.5 3.5t3.5 2.5q2 0 2.5 -2.5t0.5 -4.5q0 -8 -1 -15t-2 -17v-1q0 -4 1 -8.5t1 -9.5v-6q-1 -2 -2 -2h-2q-2 0 -3.5 0.5t-0.5 2.5v15zM49 61v1q1 0 2 0.5l1 0.5q0 1 1 1v0q4 0 6 -3t4 -6.5t4 -6.5t5 -3
q2 0 3.5 0.5t2.5 2.5h15q6 0 11.5 -1t11.5 -1q3 0 5 1.5t3.5 3.5t3 3.5t3.5 1.5t3 -1t1 -3q0 -4 -2.5 -7t-5.5 -5.5t-6.5 -4.5t-5.5 -5q-1 0 -3 -2.5t-5 -5t-5 -5t-3 -2.5q-1 -2 -3 -2h-4q-5 0 -9 2.5t-5 6.5l-27 35l-0.5 1.5t-1.5 1.5v1zM154 62q1 0 4 0.5t6 0.5h6h4h3.5
h5.5t6 -0.5t5 -0.5q4 -1 8 -4.5t4 -7.5q0 -10 -2 -15.5t-5.5 -8t-9.5 -3.5t-14 -1q-7 0 -13 0.5t-10 2.5t-6.5 7t-2.5 13q0 7 2.5 10.5t8.5 6.5zM150 45q0 -5 2 -8.5t6 -4.5t8 -1.5t9 -0.5t9 0.5t7 2.5t4.5 5.5t1.5 9.5q0 4 -3.5 5.5t-7.5 2t-8 0.5h-6h-13q-4 -1 -6.5 -3.5
t-2.5 -7.5zM77 38l1 -2.5t2 -3.5q0 -1 1.5 -2.5t3.5 -3t3.5 -3t1.5 -2.5h1h1q3 0 5.5 2.5l5.5 5.5q1 2 3.5 4.5t4 4.5l1.5 2v2h-3h-3h-4h-3q-2 0 -5.5 -0.5t-7 -0.5t-6 -0.5l-2.5 -0.5z" />
</svg>
