<?xml version="1.0" standalone="no"?>
<!DOCTYPE svg PUBLIC "-//W3C//DTD SVG 1.1//EN" "http://www.w3.org/Graphics/SVG/1.1/DTD/svg11.dtd" >
<svg xmlns="http://www.w3.org/2000/svg" xmlns:xlink="http://www.w3.org/1999/xlink" version="1.1" viewBox="-10 0 266 256">
   <path fill="currentColor"
d="M139 172h-1l-1.5 0.5l-1.5 0.5v64l1 1.5t2 3.5l2 4t2 3l0.5 0.5t0.5 1.5h3h4.5h4.5h3h12q8 0 14 -1.5t10.5 -5.5t4.5 -12v-62q0 -1 -1 -1.5t-2 -0.5t-3 1t-2 3v18q0 1 -1 3t-2 2q-2 0 -7 0.5t-10.5 0.5t-10.5 0.5t-7 0.5h-3q-2 0 -4.5 -0.5t-2.5 -2.5v-19l-1 -1.5
t-2 -1.5h-1zM41 245q0 3 2.5 3.5t4.5 0.5q9 0 17.5 -1.5t17 -2t16 0t15.5 -1.5v-1v-2t-0.5 -2.5t-3.5 -1.5h-23l-1 -2v-2v-4v-6v-4v-21.5v-20.5t0.5 -21t0.5 -23q1 0 1.5 -0.5t0.5 -1.5q1 0 3 -1l2 -1h29q1 0 1.5 -1l0.5 -1v-1q0 -2 -2 -3.5t-3 -1.5h-31q-1 0 -1.5 -1
t-0.5 -2v-3v-1q0 -4 1.5 -6.5t3.5 -6.5q1 0 3.5 -0.5l5 -1l5 -1t3.5 -0.5l1.5 -0.5t1.5 -1.5v-1v0v0q0 -1 -0.5 -1.5t-1.5 -0.5h-4.5h-5.5h-4t-8 0.5t-7.5 2t-3.5 4.5v18l-4 5h-24q-1 0 -3 1.5t-2 3.5q0 1 0.5 2t1.5 1q1 1 4 1h4q5 0 9.5 -1t9.5 -1h3t1 1v4t0.5 6t0.5 6v3
v42t-2 42l-0.5 1t-1.5 2l-1 3h-30l-1 1.5t-1 2.5v1zM143 218v-2v-3.5v-3.5v-2q1 -1 6.5 -2t12.5 -2t13.5 -1h8.5t4.5 1t2.5 4v23q0 5 -3.5 7t-8.5 3.5t-10 1.5h-7q-7 0 -10.5 -1.5t-5.5 -4.5t-2.5 -7.5t-0.5 -10.5zM49 227q1 1 2 1.5t2 0.5q2 0 4 -1.5t2 -3.5q0 -3 0.5 -11
t0.5 -16.5t0.5 -16t0.5 -10.5v-2v-4v-3.5v-5t-1.5 -4t-3.5 -1.5q-3 0 -5 3.5t-2 5.5v1l0.5 2l1 4t0.5 3.5v2.5v6t-0.5 10.5t-1 10.5t-0.5 6v11v11zM105 150q-1 0 -3 0.5t-2 1.5v70q0 1 1.5 1.5t2.5 0.5q3 0 4.5 -3t2 -6.5t0.5 -7v-5.5q0 -7 -0.5 -12.5t-1 -11.5t-0.5 -12
v-13l-1.5 -1.5t-2.5 -1.5zM115 152q1 3 3 3h4q11 0 23 -0.5t24 -1.5t23.5 -1.5t21.5 -1.5q2 0 2 -1v-2v-2t-2 -2h-2.5t-4 -0.5t-4 -0.5t-2.5 -1q-1 0 -4 -3.5t-6 -7.5t-6 -9.5t-6 -10t-4.5 -8t-1.5 -4.5v-2v-1q1 -2 3.5 -6.5l5 -9l5 -9t2.5 -6.5q3 -5 4.5 -8t3 -5t4.5 -2.5
t10 -1.5v-5h-3q-1 0 -3 0.5t-4 0.5h-2h-1.5t-3.5 0.5t-4 0.5h-2h-15.5h-14.5t-14.5 0.5t-14.5 1.5q-1 0 -2 1.5t-2 1.5v1v0.5v0.5l1 0.5t1 1.5l1.5 0.5t3.5 1t3 1t2 0.5l2.5 3.5t5 8t5 10t5 10t4 8t1.5 4.5q0 3 -3 7t-4 6q0 2 -2.5 6t-5 8.5t-4.5 8.5t-3 5q-4 6 -8.5 7.5
t-12.5 1.5zM145 145q0 -2 1 -4.5t3 -5t3.5 -5t2.5 -3.5q0 -1 1 -3l2 -4l2 -4t2 -3l1 -0.5t2 -1.5h1v0q3 3 6.5 6t6.5 7.5t5 8.5t2 8v3t-3 1q-2 0 -6 0.5t-9 0.5t-9 0.5t-6 0.5h-3h-3t-2 -2zM148 57v-2.5t2 -1.5q1 0 4.5 -0.5t7 -0.5t7 -0.5t4.5 -0.5h2h3h3.5t1.5 3v2l-11 25
q-2 3 -3.5 4t-3.5 1h-2t-1 -2l-14 -25v-1v-1zM87 12q-1 2 -5 6.5t-9.5 11.5t-11 14.5t-10 14.5t-7.5 12.5t-3 7.5v2v2q6 -1 10.5 -5.5t8.5 -10t8 -12t7.5 -12t6 -9t5.5 -3.5h2h2q11 15 18 32l3 1l3 14q3 0 4.5 2.5t3.5 2.5v0q1 0 2 -0.5t2 -1.5v-2v-2q0 -5 -3 -11.5
t-7.5 -13l-9 -13t-7.5 -12.5l-0.5 -1.5l-1 -3t-0.5 -3t-1 -1.5q-2 -4 -3 -5t-4 -1h-1.5h-1.5zM64 68v1l2 2h10q2 0 7.5 0.5t10.5 0t8.5 -2t3.5 -5.5h-38q-1 0 -2 1.5t-2 2.5v0z" />
</svg>
