<?xml version="1.0" standalone="no"?>
<!DOCTYPE svg PUBLIC "-//W3C//DTD SVG 1.1//EN" "http://www.w3.org/Graphics/SVG/1.1/DTD/svg11.dtd" >
<svg xmlns="http://www.w3.org/2000/svg" xmlns:xlink="http://www.w3.org/1999/xlink" version="1.1" viewBox="-10 0 266 256">
   <path fill="currentColor"
d="M55 239q0 4 3.5 4.5t5.5 0.5q6 0 12 -1t12 -3q5 0 11 -1t12 -1t11.5 -0.5t10.5 -0.5q1 0 1 -1v-2v-2.5t-1 -1.5h-33l-1 -3q0 -12 -0.5 -23.5t-1.5 -23t-2 -22.5t-1 -22q0 -7 2 -10t5.5 -4t8.5 -1q4 0 9 -1q3 -2 3 -5q0 -1 -0.5 -2t-1.5 -1h-23l-1 -1.5t-1 -2.5v-2v-3
q0 -5 1 -7.5t3 -3.5t4 -1h4t4 -1.5t3 -4.5q-1 -2 -2 -2.5t-2 -0.5q-7 0 -12 0.5t-10 4.5q-1 0 -1.5 1l-0.5 1v23l-5 4h-24l-0.5 1t-1 1.5t-1 2l-0.5 1.5q0 1 0.5 2t0.5 2h4q5 0 10 -1t10 -1h4h3q2 13 2.5 24t1.5 21.5t1 21v22.5v4v5.5v4.5v3l-2 2l-32 3q-1 0 -1.5 1.5
t-0.5 2.5zM142 214q2 4 5.5 5.5t7 2.5t7.5 1h7q5 0 9 -1t7.5 -3t5.5 -5.5t2 -9.5v-4q0 -1 -0.5 -4.5t-0.5 -7t-0.5 -7t-0.5 -4.5v-19.5t-1.5 -14.5t-6.5 -9t-16 -3q-5 0 -10 0.5t-9 2.5t-6.5 6t-2.5 11q0 14 0.5 31t2.5 32zM68 158q0 6 -0.5 13.5t0 15l1 15t0.5 14.5
q1 3 1.5 3h2.5q1 0 3.5 -0.5t2.5 -2.5v-50q-2 -5 -2 -10.5v-10.5q-1 -2 -3 -2.5t-4 -0.5t-3 2t-1 4t0.5 4.5t1.5 5.5zM109 154v8q0 6 0.5 13.5l1 15t1.5 14t2 10t3 2.5q1 0 2 -1t1 -2v-2.5v-3.5v-4v-2q0 -7 -0.5 -14t-0.5 -14q0 -3 0.5 -6t0.5 -6v-4.5t-0.5 -8t-2 -8
t-3.5 -3.5t-3 1.5t-2 3.5v11zM146 187q0 -3 0.5 -5.5t3.5 -4.5q8 -1 14.5 -1.5t14.5 -0.5h5q1 3 1 7v7q0 11 -4 18t-14 7q-12 0 -16.5 -7t-4.5 -20zM146 160q0 -7 1.5 -11.5t4.5 -7t7.5 -3t10.5 -0.5q5 0 7 1.5t3.5 4.5t1.5 7v9v4q0 1 -0.5 1.5t-1.5 0.5h-32l-1 -2
q-1 0 -1 -2v-2zM179 90q1 3 2.5 8t3.5 11.5t4.5 13t5 12t5 9t4.5 3.5t3.5 -0.5t2.5 -3.5q-1 0 -1.5 -1.5t-1 -3.5t-1 -3.5t-1.5 -1.5q0 -1 -0.5 -1.5l-0.5 -0.5q-3 -6 -6.5 -14l-7 -16t-5 -16.5t-1.5 -16.5v-3.5t1 -2.5h19l0.5 -0.5l0.5 -0.5v-1v-1q0 -1 -1.5 -2.5
l-1.5 -1.5h-8q-5 0 -8 -1t-5 -4t-2 -9q0 -4 2 -5.5t5 -2.5t6.5 -1h4.5q2 0 2 -1v-2q0 -3 -1.5 -3.5t-2.5 -0.5q-13 0 -27.5 1.5t-27.5 5.5q-2 2 -3 5v14t-0.5 21t-0.5 20.5v13.5v4q0 4 1 4.5t4 0.5q2 0 6.5 -4t10 -8.5t10.5 -8.5t9 -4h0.5h1.5zM143 80q0 -6 2 -9.5t5 -5.5
t7.5 -2.5t9.5 -0.5q6 0 7.5 4.5t1.5 10.5q0 5 -3.5 8t-8 5.5t-9 4t-7.5 1.5h-2h-1l-1.5 -9t-0.5 -7zM46 76q0 2 0.5 3t1.5 1q5 0 9 -3.5t7.5 -9t6.5 -11.5t6 -11.5t6 -9t6 -3.5h2h1l13 14l0.5 2.5t0.5 3.5v1v0q0 1 -1 2t-2 1h-30v1t0.5 2l1 2t1.5 1h40q1 3 3.5 4t5.5 1
q2 0 2.5 -1t0.5 -3t-2.5 -6.5t-6.5 -10t-8.5 -11t-9 -10.5t-8 -8t-4.5 -3q-4 0 -5.5 3t-3.5 6q-1 2 -3.5 5.5t-4.5 7.5t-4.5 7.5t-2.5 4.5q-2 2 -4.5 5.5t-5.5 7.5t-5.5 8t-3.5 5v2zM145 48q0 -4 1 -7t3 -4t5 -1.5t6 -0.5q1 0 4 0.5t4 0.5q4 1 4.5 5.5t0.5 8.5q0 3 -3 4.5
t-7.5 2t-8 0.5h-5.5q-4 0 -4 -2.5v-6.5z" />
</svg>
