<?xml version="1.0" standalone="no"?>
<!DOCTYPE svg PUBLIC "-//W3C//DTD SVG 1.1//EN" "http://www.w3.org/Graphics/SVG/1.1/DTD/svg11.dtd" >
<svg xmlns="http://www.w3.org/2000/svg" xmlns:xlink="http://www.w3.org/1999/xlink" version="1.1" viewBox="-10 0 266 256">
   <path fill="currentColor"
d="M185 190q0 2 0.5 7.5t1 12t2 14t3 13.5t4 10t5.5 4q2 0 3.5 -1.5t1.5 -4.5v-1l-1 -2.5l-2 -5l-2 -5t-1 -3.5l-0.5 -1t-0.5 -2q-3 -11 -5.5 -21.5t-2.5 -22.5v-4.5t0.5 -5t1.5 -5t3 -3.5q1 1 2 3t2 3.5t2.5 3t2.5 1.5q3 0 4 -2t1 -4q0 -1 -0.5 -2l-0.5 -1l-9 -15v-2
q0 -4 2 -6.5t4.5 -5t4 -5t1.5 -6.5q0 -2 -0.5 -3.5t-3.5 -1.5q-2 0 -3.5 2t-3 4.5t-2.5 4.5t-3 2t-4.5 -7t-4.5 -15.5t-3.5 -16.5t-1.5 -11q0 -4 2 -6t5 -2.5t7 -0.5h7q1 -1 1.5 -2.5t0.5 -2.5q0 -3 -2 -4t-5 -1q-4 0 -7 0.5t-8 0.5q0 -6 2.5 -8t5.5 -3.5t5.5 -4.5t2.5 -13
v-5.5v-6.5t-1 -5.5t-4 -2.5q-2 0 -3 1t-2 3v3.5t-0.5 6t-0.5 6.5v4q-1 4 -1 5.5t-3 1.5q-1 0 -2.5 -0.5t-1.5 -3.5v-29l-2 -0.5l-2 -0.5h-1q-3 0 -4 2t-1.5 4.5t-0.5 5v4.5q0 3 0.5 5.5t1.5 5.5v29h-33v-23q0 -1 -1.5 -1h-1.5q-2 0 -3 1.5t-2 3.5v10v16v19v19v16v11
q0 15 -2 28.5t-3 28.5v21t-2 20v1v1q0 1 1.5 3t2.5 2q2 1 3 -0.5t2 -4t1 -5v-3.5t0.5 -6.5t0.5 -11.5t0.5 -11.5t0.5 -6.5v-4v-7v-6v-4q1 -21 1.5 -39.5t1.5 -40.5q0 -1 -0.5 -4t-0.5 -5.5t1.5 -5t3.5 -3.5q4 1 7.5 0.5t6.5 -1t6 -0.5h6h3q1 0 2 1l3 18l-2 5q-2 -2 -5 -2h-5
h-6t-8.5 1t-7.5 2.5t-3 4.5t1.5 3h3.5t7 -0.5l10 -1t9 -2t4 -2.5q3 2 5.5 7.5t5 12.5t3.5 13.5t1 9.5q0 4 -1 7.5t-2 6.5q0 5 -0.5 8.5t-0.5 6.5v7v7zM52 227q0 2 2.5 3.5t4.5 1.5q7 0 14 -1t13.5 -2t13.5 -2t13 -2q2 0 3.5 -1.5t1.5 -4.5v0q0 -1 -0.5 -1.5t-1.5 -0.5h-22
l-2 -1v-2t-0.5 -4t-0.5 -4.5v-4.5q-1 -12 -1.5 -24.5t-0.5 -24.5v-27q2 -1 6 -1.5l8 -1t7 -2t3 -3.5v-2t-1 -1h-21q-1 0 -1.5 -1t-0.5 -2v-2v-1q0 -7 3 -9.5t6.5 -3t6.5 -1t3 -4.5q0 -2 -1 -3t-4 -1q-8 0 -12.5 2t-6.5 5.5t-2.5 7t-0.5 7.5q0 3 -0.5 5t-3.5 2h-18
q-1 0 -2.5 2t-2.5 3v0.5v0.5q0 1 0.5 2.5t1.5 1.5h22q1 0 1.5 4t1 9.5t0.5 11v7.5v1v2.5t-0.5 3.5t-0.5 4v3v2v4t1 4v38q0 2 -4.5 2h-10t-10 1t-4.5 5zM57 209q0 3 2 4t4 1h2l1.5 -2.5t1.5 -4.5v-39q0 -1 -1 -3.5t-1 -3.5v0q0 -3 1 -5t1 -5v-5q0 -1 -1.5 -2.5l-1.5 -1.5
l-2 0.5t-3 1.5l-0.5 0.5t-0.5 1.5zM101 146q0 14 0.5 28.5t1.5 28.5q0 2 1.5 3.5t2.5 1.5q2 0 3 -1.5t2 -3.5v-20v-21t-2 -21q0 -2 -2 -2h-2q-4 0 -4.5 2t-0.5 5zM145 203q1 1 2.5 2t2.5 1h17q1 0 2.5 -1t3 -2.5t2.5 -3t1 -2.5v-63q0 -1 -1.5 -3t-2.5 -2h-1q-1 1 -2 1.5
l-1 0.5v22q0 2 -2.5 2.5t-5.5 1t-6 0t-4 -0.5v-22q0 -1 -1.5 -3t-2.5 -2h-1q0 1 -1 4.5t-2 4.5v1q0 14 0.5 31t2.5 33zM152 195q0 -1 -0.5 -4t-0.5 -6t-0.5 -5.5t-0.5 -3.5v-3q0 -3 2 -5t5 -3t6 -1h5v29q0 1 -1 2t-3 1.5t-3.5 1l-1.5 0.5h-0.5h-0.5q-2 0 -4 -0.5t-2 -2.5z
M45 74q0 3 1 4t4 1q4 0 8 -6t8.5 -14t8.5 -15t8 -9q2 0 3.5 2t3 4.5t3 4.5t4.5 0q2 3 3.5 5t1.5 4q0 1 -0.5 1.5t-0.5 1.5q-7 2 -16 2t-16 1q-2 -1 -2.5 0.5t-0.5 3.5q0 3 1.5 3.5t4.5 0.5q7 0 14.5 -1.5t14.5 -1.5q1 -1 2.5 -3t2.5 -2l1 0.5t1.5 1t2 1.5t2.5 2.5t2 2.5l1 1
h1v0q3 0 3.5 -1.5t0.5 -3.5t-1 -4.5t-3 -4.5l-3.5 -3.5t-3.5 -2.5q-1 -2 -5 -6.5t-8.5 -9.5t-8 -9l-3.5 -4q-2 0 -4 1t-3.5 2.5l-3 3l-2.5 2.5q0 1 -2.5 4.5t-5.5 8.5t-6 10.5t-6 10l-5 7.5z" />
</svg>
