<?xml version="1.0" standalone="no"?>
<!DOCTYPE svg PUBLIC "-//W3C//DTD SVG 1.1//EN" "http://www.w3.org/Graphics/SVG/1.1/DTD/svg11.dtd" >
<svg xmlns="http://www.w3.org/2000/svg" xmlns:xlink="http://www.w3.org/1999/xlink" version="1.1" viewBox="-10 0 266 256">
   <path fill="currentColor"
d="M131 247q0 2 3 2q1 0 2.5 -0.5t1.5 -2.5v-74q2 -7 2.5 -14t-0.5 -14q1 -1 3 -2t3 -1h2h5h4h3t5 -0.5l8 -1t7.5 -1t5.5 -0.5q6 -4 7.5 -9t1.5 -12v-8t-1 -7.5t-3.5 -6.5t-6.5 -4h-11h-12t-11.5 2t-9 6t-5.5 11q-2 29 -3 57.5t-1 57.5v22zM46 211v1l0.5 1.5l0.5 1.5h38
q1 -1 4 -2t4 -1q1 -1 5 -1.5l8 -1t7.5 -1t5.5 -0.5v-2v-1.5t-2 -1.5q-5 1 -12.5 0.5t-13.5 -1.5l-0.5 -1l-0.5 -1v-67l3 -4h28q0 -2 -0.5 -4.5t-3.5 -2.5h-23q-1 0 -2 -1.5t-1.5 -3.5t-0.5 -4v-3q0 -6 2.5 -8.5t5.5 -3t5.5 -1.5t2.5 -3q0 -1 -1 -3t-3 -2l-14 2q-1 0 -2 1
t-2 2.5t-1.5 3t-0.5 2.5v5t-0.5 6.5t-1 6.5t-0.5 4q-6 1 -14 1.5t-15 -0.5l-1 1.5t-1 2.5h-0.5t-0.5 1h0.5h0.5q0 1 1 1.5l1 0.5h28q1 0 1.5 0.5t0.5 1.5v2v1q0 1 -0.5 2.5t-0.5 2.5v3v6.5t-0.5 6.5l-0.5 3v0.5v0.5v0.5v0.5q2 9 2.5 19.5t0.5 20.5v1l-0.5 1.5t-1.5 1.5
l-33 3l-0.5 0.5t-0.5 1.5v1zM152 183q0 10 6.5 16.5t15.5 6.5q5 0 10 -0.5t10 -2.5t8.5 -6t3.5 -10t-1 -11t-4 -9t-7 -6t-10 -2t-11.5 1t-10 3.5t-7.5 7.5t-3 12zM164 181v-4.5v-2.5l4 -5l1.5 -0.5t4 -1t4.5 -0.5h4q6 0 9.5 4.5t3.5 10.5q0 2 -0.5 4.5t-1.5 4.5t-2.5 4
t-3.5 2h-17q-2 0 -3.5 -2t-2 -5t-0.5 -5v-4zM102 193q0 2 1 2h2q2 0 3 -1t2 -3t1 -4v-3v-2v-3.5t-0.5 -5.5t-0.5 -5.5v-3.5v-5.5v-7t-1.5 -6t-5.5 -2.5h-2t-2 1q1 6 1.5 12.5t0.5 13t0.5 13t0.5 10.5zM56 192q1 2 2 2h3l1 -0.5t2 -0.5q0 -1 0.5 -3.5t0.5 -5v-5.5v-4v-2
t-0.5 -4.5t-0.5 -5v-2.5v-15q-1 -2 -2 -2.5t-3 -0.5q-1 0 -2.5 0.5t-1.5 2.5v26q1 2 1.5 5t0.5 5.5t-0.5 5.5t-0.5 4zM143 133q-1 -1 -1 -2v-2q0 -4 4.5 -6t11 -3t12.5 -1.5t9 -0.5h5q2 1 2 3v2q0 3 -0.5 4.5t-2.5 2.5q-2 0 -5.5 1t-7.5 1.5t-8 1.5t-6 1h-1l-2 -0.5t-4 -0.5
t-3.5 -0.5t-2.5 -0.5zM143 110q0 -4 3.5 -6.5t8.5 -3.5t9.5 -1h6.5h10q3 1 4 2.5t1 3.5q0 3 -2 5q-8 2 -17 3t-17 1h-5q-1 -1 -1.5 -2t-0.5 -2zM49 83l0.5 0.5l0.5 0.5q1 1 2 1.5l1 0.5q4 0 6.5 -3t4 -7t3 -7t4.5 -3q4 0 9.5 2t10.5 2q4 0 8 -0.5t7 -3.5q1 1 2.5 3.5t3.5 5
t4 4.5t3 2q3 0 4 -2t1 -4q0 -1 -1 -4t-2.5 -6t-3.5 -5.5t-3 -3.5l-20 -41l-0.5 -0.5l-0.5 -0.5q-1 0 -2 -1l-1 -1l-0.5 1t-1.5 1q-1 1 -3 4.5t-3 3.5q0 1 -0.5 2t-1.5 1q0 1 -1 3l-2 4t-2.5 4l-1.5 2q0 1 -1 2.5t-1.5 3l-1 3l-0.5 1.5q-1 2 -4.5 7t-7 10.5t-6 10.5t-2.5 7z
M167 32q4 0 7.5 3.5t7 9t6.5 11.5t6 11t5.5 8.5t4.5 3.5q6 0 6 -5q0 -4 -3.5 -10t-8 -12.5t-9 -12.5t-6.5 -9q-1 0 -2.5 -2t-3.5 -4l-4 -4l-3 -3h-2q-1 0 -2.5 0.5t-2.5 1.5q-9 13 -17.5 26.5t-17.5 27.5l1 1.5t2 1.5h1q4 0 8.5 -7t9.5 -15t9 -15t8 -7zM154 66q-4 2 -4 7h6
h9h9h6l1.5 -0.5l3 -1l3 -1t1.5 -1.5q0 -2 -1 -2.5t-2.5 -1t-3 -0.5h-2.5h-2h-4.5t-7.5 0.5t-7.5 0.5h-4.5zM76 60v-2.5v-2.5t1.5 -5t3 -7.5t4 -6.5t4.5 -3t5 4t5.5 8.5t4.5 9t2 7.5q-8 0 -15.5 -0.5t-14.5 -1.5z" />
</svg>
