<?xml version="1.0" standalone="no"?>
<!DOCTYPE svg PUBLIC "-//W3C//DTD SVG 1.1//EN" "http://www.w3.org/Graphics/SVG/1.1/DTD/svg11.dtd" >
<svg xmlns="http://www.w3.org/2000/svg" xmlns:xlink="http://www.w3.org/1999/xlink" version="1.1" viewBox="-10 0 266 256">
   <path fill="currentColor"
d="M41 245q0 3 1.5 4t3.5 1q14 0 28.5 -2.5t27.5 -3.5h2q3 -1 4.5 -2.5t1.5 -4.5v-1l-0.5 -1t-1.5 -1h-3h-4h-4.5h-2.5q-1 0 -2.5 -0.5l-3 -1t-3 -1.5t-0.5 -3v-22q-1 -3 -1 -10.5t-0.5 -15.5t-0.5 -15.5v-10.5q0 -7 1.5 -10t4 -4t5.5 -1t5.5 -0.5t4 -2.5t1.5 -7h-18l-2 -3
q0 -1 -0.5 -4t-1 -7.5t-0.5 -6.5v-1q0 -5 2.5 -6t5.5 -1.5t5.5 -2t2.5 -4.5v-2l-1.5 -1.5l-1.5 -1.5q-7 0 -12 1t-8 7q-2 8 -2.5 16t0.5 16l-2 2q-2 0 -6 -0.5t-9 0t-8.5 2t-3.5 5.5v0.5v0.5l0.5 1.5t1.5 2.5h5q6 0 10.5 -1t11.5 -1v3v4v4v3v3t0.5 6t1 5.5t0.5 3.5
q0 3 -0.5 12t-1 19t-0.5 18.5v12.5q-2 4 -7 4h-11t-10.5 1t-4.5 6zM177 226q0 3 0.5 6.5t1.5 7t3 6.5t5 4h10q12 0 19 -5.5t7 -20.5q0 -8 -1.5 -13t-3.5 -7t-5 -2h-6q-2 0 -4 -0.5t-3 -3.5q-1 -6 -1.5 -12.5t-0.5 -12.5q0 -4 2.5 -6t5 -3.5t6 -3t4.5 -4.5q1 -1 1 -5v-4
q0 -11 -5 -16t-14 -9v-32q4 0 6.5 1.5t4.5 3.5l3.5 3.5t4.5 1.5h0.5h0.5q2 -1 3.5 -4t1.5 -6v0q0 -1 -1.5 -2t-2.5 -2t-2.5 -2t-2 -1.5t-2.5 -2t-4.5 -2.5t-4 -2t-1.5 -2v-58q0 -2 -2 -4t-4 -2t-3.5 2t-1.5 4v3v4.5v5.5v3v9v8t0.5 8t1.5 9q-2 5 -6 8t-8.5 6.5t-8 7.5
t-3.5 10q0 1 0.5 2.5t1.5 1.5q4 0 6.5 -2.5t4.5 -5.5t4 -5t5 -2v35q0 4 -2 5.5t-5 3t-5 5t-2 10.5q0 6 1 9.5t2.5 5t3.5 3t3.5 4.5t2.5 7t1 12v3v3v4v3q-7 4 -10 10.5t-2 15.5zM121 234q0 5 2.5 7.5t6 4t8 2t7.5 0.5q6 0 9.5 -1.5t5 -5t2 -8.5t0.5 -11q0 -8 -2.5 -12
t-5.5 -6t-5.5 -2.5t-2.5 -1.5v-28q0 -1 2 -3t5 -4.5t5.5 -6.5t2.5 -9q0 -9 -1.5 -12t-3.5 -4t-4.5 -1t-5.5 -4q-1 -1 -1.5 -4.5t-0.5 -7v-6.5v-4v-5v-3l4 -4q0 1 3 3t4 3v0h1q5 0 5 -5q0 -4 -2.5 -6.5t-5.5 -4.5t-5 -4.5t-2 -5.5v-58q0 -2 -2 -2h-2h-3t-2 2v54l-26 28
q-1 1 -1 3v4q3 0 6.5 -2t6.5 -5t5.5 -6.5t4.5 -5.5h1h1q1 0 1.5 0.5t0.5 1.5v32q0 5 -2.5 8t-5.5 5.5t-5.5 5.5t-2.5 8q0 9 2.5 13.5t5.5 8t5.5 8t2.5 14.5q0 7 -2.5 10.5t-5.5 7t-5.5 9t-2.5 16.5zM131 234v-7q0 -8 3 -11.5t11 -3.5h3h3q2 1 3 3.5t1 4.5q0 4 -0.5 7.5
t-2 6.5t-4 4.5t-6.5 1.5q-6 0 -11 -6zM187 223q0 -7 3 -11t10 -4t10 5.5t3 12.5q0 4 -1.5 7t-4 4.5t-5.5 2t-6 0.5h-3h-4q-1 -5 -1.5 -8.5t-0.5 -8.5zM50 170l4 54q0 2 1.5 2h2.5q2 0 3 -2t1.5 -5t0.5 -6.5v-5.5v-9t-0.5 -8.5t-0.5 -9t-1 -10.5l-2 -4t-3 -2t-4 2t-2 4z
M100 160h-1q-1 0 -2 2l-1 2v48l0.5 1l0.5 1h1q1 0 2.5 -1.5t2 -3.5l1 -4t0.5 -3v-34q0 -2 -1 -5t-3 -3zM129 151q0 -7 5 -10t10 -3q4 0 5.5 4t1.5 7q0 5 -3.5 9.5t-7.5 4.5q-5 0 -8 -3t-3 -9zM182 146q0 -3 1.5 -5t3.5 -3t4.5 -1.5t4.5 -0.5q5 0 7.5 2t2.5 6q0 14 -12 14
q-5 0 -8.5 -3.5t-3.5 -8.5zM36 90q0 3 0.5 4.5t2.5 1.5q5 0 9 -4.5t8 -11.5t7.5 -15.5t7 -15t7 -11.5t7.5 -5q1 0 1.5 0.5t1.5 2.5q1 1 2 3.5t2.5 5t2 4.5t1.5 3l-0.5 2l-1 4t-0.5 4v3h-20q-1 0 -1.5 1t-1 2.5t-0.5 3v1.5h11q5 0 10 -3q0 -1 2.5 -2.5l2.5 -1.5q1 0 2 0.5
t2 1.5l1 2t1.5 4t1.5 3.5t1 2.5h2h2q2 0 3.5 -1t1.5 -4v-1q-7 -14 -13 -28l-12 -28q-1 -2 -3 -3t-4 -1h-2q-1 0 -4 3t-3 5q-1 0 -2 3t-2.5 6.5t-3 6.5t-1.5 4q-7 12 -14.5 24t-14.5 24v0z" />
</svg>
