<?xml version="1.0" standalone="no"?>
<!DOCTYPE svg PUBLIC "-//W3C//DTD SVG 1.1//EN" "http://www.w3.org/Graphics/SVG/1.1/DTD/svg11.dtd" >
<svg xmlns="http://www.w3.org/2000/svg" xmlns:xlink="http://www.w3.org/1999/xlink" version="1.1" viewBox="-10 0 266 256">
   <path fill="currentColor"
d="M184 190q0 6 -0.5 12.5t0 14t1 14.5t1.5 13q0 2 1 3.5t3 1.5t3.5 -3t1.5 -5q0 -3 -0.5 -4.5t-1.5 -3.5v-3v-4v-4v-3v-8q0 -4 0.5 -8t0.5 -7.5t1 -8.5q1 -1 3.5 -1.5l5 -1t4 -1.5t1.5 -3t-1.5 -2.5t-3.5 -0.5h-3.5h-1.5q-8 0 -15.5 1t-15.5 1q-9 0 -13.5 -1.5t-7.5 -4.5
t-4 -8t-2 -13t-2 -16.5t-1 -17.5v-7.5v-11.5v-11.5v-7.5q0 -1 -1 -2t-2 -1q-2 -1 -3.5 1.5t-2 6t-0.5 6.5v4v18.5t0.5 23.5t2 23t3.5 17q1 2 3.5 3.5t5.5 2.5t6 1.5t4 0.5q2 2 2.5 7t0.5 6v2.5t-0.5 3.5t-0.5 4v2v3q0 2 -0.5 4.5t-0.5 5.5v5v4q0 2 0.5 5t0.5 6v3l1 1l1 1h2
v0q4 -4 4.5 -8.5t0.5 -9.5v-41l2 -2l1.5 -0.5t3.5 -0.5t4 -0.5t3 -0.5q2 0 3.5 2t1.5 3zM57 222q0 4 1.5 5t4.5 1h2.5h2.5l2 -0.5t4.5 -1t4.5 -1t3 -0.5l4.5 -0.5t10 -1t11.5 -1t10 -0.5q3 -1 4.5 -4t1.5 -6h-25l-1 -2q-1 0 -1 -2.5t-0.5 -6t-0.5 -7v-5.5q-1 -10 -1.5 -19.5
t-0.5 -18.5v-20q1 -3 3.5 -5t6 -2.5t7 -0.5h5.5l1.5 -3t0.5 -2q0 -3 -1.5 -3.5t-3.5 -0.5q-4 0 -8 1t-9 1l-2 -1v-3.5v-3.5q0 -8 3.5 -13t11.5 -7v-2q0 -4 -1.5 -4.5t-4.5 -0.5q-1 0 -4.5 0.5t-6.5 1.5t-5.5 2.5t-2.5 4.5v29h-27q-1 0 -2 1.5t-1 2.5q-1 0 -1 1q0 2 3 3t5 1
h2l2 -0.5t3.5 -0.5t3 -0.5t2.5 -0.5v0h1q1 0 4 0.5t4 1.5q0 4 0.5 14.5t1 23t1 23t0.5 14.5v5v4q0 1 -1 3h-3.5t-6 0.5t-6 0.5h-3.5q-4 1 -6.5 1.5t-2.5 4.5zM70 139q-2 0 -3 0.5t-1 2.5v60q0 2 1 2.5t3 0.5t3 -4.5t1.5 -10t0.5 -10v-5.5v-3v-2.5t-0.5 -5t-0.5 -4.5v-3v-2
t0.5 -3.5t0.5 -3.5v-2q0 -7 -5 -7zM111 202q1 0 1.5 0.5l0.5 0.5h1h1l1 -1v-13v-14v-7t-0.5 -10t-0.5 -10v-7t-1 -4.5t-4 -2.5q-1 0 -3.5 2t-2.5 4v1q0 7 0.5 14.5t1 15.5t2 16t3.5 15zM149 125q2 3 2.5 7.5l1 9t0.5 8.5t2.5 7t6.5 5t12 2q6 0 13 -1.5t11 -7.5v-3t0.5 -5
t0.5 -5.5v-3.5v-3v-4v-9.5t-0.5 -13.5t-0.5 -13.5v-9.5q-4 -5 -9 -6t-11 -1q-3 0 -8 0.5t-10 2t-8 5t-3 9.5v30zM162 145v-2.5v-1.5l3 -2h4t8.5 -0.5t8.5 -0.5h1q3 0 3 2v4q0 7 -4.5 9.5t-10.5 2.5t-9.5 -2.5t-3.5 -8.5zM157 122v-0.5v-0.5q0 -1 1.5 -3.5l1.5 -2.5
q2 -1 5.5 -1t7.5 -1t7.5 -1.5t5.5 -0.5v0q2 0 3 2t1 3v3t0.5 4.5t0.5 4.5v3h-29q-4 0 -4.5 -3.5t-0.5 -5.5zM160 103q-1 -2 -1.5 -3.5t-0.5 -3.5t2 -6t5 -4h21l0.5 1.5t0.5 2.5t1.5 4t1.5 4v0.5v1.5q0 2 -2 3.5t-4 1.5h-2q-1 0 -4 -0.5t-6.5 -0.5t-6.5 -0.5t-5 -0.5zM48 74
q0 4 5 4q1 0 4 -3t6 -7.5t6.5 -10.5t7 -11t6 -9.5t3.5 -5.5q1 0 1.5 -0.5l0.5 -0.5q2 0 4 2t4 5t3.5 6t1.5 5q0 4 -4.5 5t-9.5 0.5t-9 0t-4 4.5v2t1 2h7q7 0 13 -2t13 -2q2 0 3 2t2 3.5l2 3t4 1.5q4 0 4 -3q0 -2 -2 -7t-5.5 -10.5t-7.5 -11.5t-7.5 -11t-6.5 -8t-4 -3
q-2 0 -5.5 4t-8 10t-9.5 13t-9 14t-7 12t-3 7zM135 30v8.5t1 11t4 9t9 3.5h15h9h8t8 -0.5t9 -1.5q3 -2 3 -5q0 -2 -2 -2.5t-4 -0.5q-8 0 -15 1t-15 1h-14q-2 -1 -3.5 -2.5t-1.5 -3.5q0 -4 1 -6t3 -2.5t4.5 -0.5h5.5q2 0 5.5 -0.5t7.5 -0.5t7.5 -0.5t5.5 -0.5q5 -2 6 -7.5
t1 -10.5q0 -3 -0.5 -5t-3.5 -2q-2 0 -3.5 2t-2.5 5t-2 5.5t-2 4.5q-1 0 -5 0.5t-7.5 0.5t-7.5 0.5t-5 0.5h-4q-3 0 -4.5 -2.5t-2 -5.5t-1.5 -5.5t-4 -2.5q-2 0 -2.5 2.5t-0.5 4.5v4.5v3.5z" />
</svg>
