<?xml version="1.0" standalone="no"?>
<!DOCTYPE svg PUBLIC "-//W3C//DTD SVG 1.1//EN" "http://www.w3.org/Graphics/SVG/1.1/DTD/svg11.dtd" >
<svg xmlns="http://www.w3.org/2000/svg" xmlns:xlink="http://www.w3.org/1999/xlink" version="1.1" viewBox="-10 0 266 256">
   <path fill="currentColor"
d="M179 203q3 0 5 6.5t3.5 14.5t2 15.5t1.5 11.5h1.5h1.5q3 0 4.5 -1.5t1.5 -5.5q1 0 0 -2t-1 -3t-1 -3.5l-1 -2.5v-3t-0.5 -4.5t-0.5 -4.5v-3q-1 -3 -2 -5l-2 -4l-2 -4t-1 -5q0 -4 2 -7.5t3.5 -7t3 -7.5t1.5 -9q0 -11 -5.5 -16.5t-13.5 -7.5t-17 -2h-16h-4h-5h-5h-4
q-1 1 -1.5 2l-0.5 1q0 3 3 4t5 1q3 0 6 -0.5t6 -0.5h11t12 1t11 3t9 7v4v4q0 2 -0.5 5.5t-1 6.5t-2 5.5t-4.5 2.5h-2q-3 -5 -8 -8t-10.5 -4.5t-11.5 -2t-12 -0.5h-2h-4h-3.5h-2.5q-3 0 -3.5 2.5t-0.5 3.5h8t10 0.5l10 1t8 0.5q2 0 5 1t5.5 2.5t4 3.5t1.5 5t-4.5 5.5t-10 4.5
t-11 3t-6.5 1q-1 1 -3.5 1.5t-5.5 1t-5.5 1t-3.5 0.5t-2 1.5t-1 3.5l0.5 0.5t1.5 0.5q8 0 15 -1.5t13 -3t12.5 -4t13.5 -5.5q0 -1 1 -1h1zM44 218q-1 2 0 3t3 1.5t3.5 0.5h1.5q13 0 26.5 -1t25.5 -2q1 -1 3 -2t2 -2v-1q0 -1 -0.5 -1.5t-1.5 -0.5h-21l-4 -1v-3v-4.5v-4.5v-5
v-6v-8.5v-7.5v-4q1 -4 1 -10t0.5 -12t1 -10.5t1.5 -4.5l1 -2h15q2 0 3.5 -1.5t1.5 -3.5v-1.5t-1 -1.5h-20v-6v-3v-3.5t1 -5.5t4 -5.5t6.5 -2t6 -1.5t2.5 -3t-0.5 -3t-2.5 -1h-1h-1h-3.5t-5.5 0.5t-6 0.5h-4q-3 3 -3.5 8.5t-1 11.5t-1.5 10.5t-4 4.5h-19l-1.5 0.5l-1.5 0.5
l-1.5 1.5l-0.5 0.5q0 3 3 4t5 1h4h6h6h4t1.5 1t0.5 2t-1 3l-1 2v3t-0.5 4.5t-1 4.5l-0.5 2v5v8v7v5v9.5t-0.5 11t-0.5 9.5v4l-3 2h-23q-1 0 -2 1t-1 2zM50 198q0 3 0.5 4.5t2.5 1.5t4 -2.5t2 -4.5t0.5 -7.5t1 -12t1 -12t0.5 -7.5v-3q0 -3 -0.5 -6t-3.5 -3q-2 0 -3 0.5
t-1 3.5v4.5t-0.5 7.5t-0.5 7.5v4.5v2v3v3v2q-1 3 -2 7t-1 7zM98 142q-1 0 -2 1t-1 2v47v1.5t0.5 2.5t1 2.5t1.5 1.5l3 -3v-7.5v-11.5v-11v-7q0 -1 0.5 -2.5t0.5 -3.5v-3.5v-2.5v-1.5t-0.5 -2.5t-1.5 -2t-2 0zM169 125l39 2q4 0 5 -3.5t1 -5.5h-17v-16h3.5t5 -0.5t4 -1.5
t1.5 -3v-2.5t-1 -1.5h-2.5h-3.5q-3 0 -5 -0.5t-3 -1.5v-2.5v-2.5q0 -4 1.5 -6.5t4 -4.5t5 -4.5t4.5 -5.5q4 -5 4 -12.5v-12.5v-4t-0.5 -4t-2 -3t-3.5 -1h-1l-1 0.5t-2 0.5q0 3 0.5 9.5t0 12.5t-2 11t-5.5 5v0h-1l-0.5 -1.5t-0.5 -2.5v0q0 -9 0.5 -18.5t0.5 -18.5v-8
q0 -2 -1 -2h-2q-2 0 -3.5 0.5t-0.5 3.5v32v4q0 3 -0.5 5t-1.5 3t-4 1h-2t-2 -2v-7t-0.5 -10t-1 -9.5t-1.5 -5.5q-3 1 -4 5v9q0 7 0.5 13t3.5 12q2 3 4 4t3.5 2t2.5 2.5t1 6.5v2v3t-1 3.5t-2 1.5h-11q-1 0 -1 1v2v1.5t1 1.5h11l1 1q1 1 1.5 3l0.5 2q0 1 -0.5 4t-1.5 5
q0 1 -0.5 2.5l-0.5 1.5h-14q-1 0 -1.5 1.5t-0.5 2.5v0.5v0.5zM142 105v4q0 2 -0.5 4.5t-1 4.5t-2.5 2h-15q-1 0 -1.5 0.5t-0.5 2v2.5v1q10 0 19.5 -0.5t19.5 -1.5q0 -1 1 -1.5l1 -0.5v-1q0 -2 -2 -2.5t-4.5 -1t-4.5 -0.5t-2 -1v-14q0 -1 2 -1.5t4.5 -0.5t4.5 -1t2 -6
q-2 0 -4.5 0.5t-4.5 0t-3.5 -2.5t-1.5 -5q0 -4 1 -6t2.5 -3.5t3.5 -2.5t3 -4q5 -7 6 -15t1 -15v-4t-0.5 -4t-1.5 -3.5t-3 -1.5q-1 0 -1.5 0.5l-1.5 1.5q1 11 0.5 18.5t-3.5 17.5l-0.5 1t-1.5 1v0h-1v0l-1 -1l-1 -1v-50q0 -1 -0.5 -1.5l-0.5 -0.5h-1h-1l-1.5 1t-1.5 2
q-1 12 -1.5 24t0.5 23q-1 2 -2 2h-2q-4 0 -4.5 -5.5t0 -11.5t-0.5 -11.5t-5 -5.5h-1l-1 1v8v7.5v8.5t1.5 8t4.5 6t5.5 3.5t3 2.5t1 3.5t0.5 6.5v3v2l-4 4h-12l-0.5 0.5t-1.5 0.5v1v1q1 0 1.5 1l0.5 1h14q1 0 1.5 2t0.5 3zM85 29q3 0 6 3.5t6 8.5t5.5 11t5 11t4.5 8.5t3 3.5
q2 -1 2.5 -2t0.5 -3q0 -6 -3.5 -13t-8 -14l-9 -14t-5.5 -13q-1 0 -2.5 -0.5t-2.5 -0.5t-2.5 0.5t-2.5 0.5l-1 1.5l-2 3t-2.5 3l-2.5 2.5q-2 3 -7 9t-10 12.5t-8.5 12.5t-3.5 10q0 1 0.5 2t1.5 1h1q2 -1 5 -5t6.5 -8.5t7.5 -10t7.5 -10t6.5 -7.5t4 -3zM65 61q0 2 1.5 3t3.5 1
h4h4h3.5t7.5 -0.5t7.5 -2t3.5 -3.5v0q-1 -2 -2 -2h-2h-3.5h-3.5h-2q-2 0 -5 -0.5t-6 0l-6 1t-5 2.5v0.5v0.5z" />
</svg>
