<?xml version="1.0" standalone="no"?>
<!DOCTYPE svg PUBLIC "-//W3C//DTD SVG 1.1//EN" "http://www.w3.org/Graphics/SVG/1.1/DTD/svg11.dtd" >
<svg xmlns="http://www.w3.org/2000/svg" xmlns:xlink="http://www.w3.org/1999/xlink" version="1.1" viewBox="-10 0 266 256">
   <path fill="currentColor"
d="M161 232v4.5t0.5 5.5t1.5 4.5t4 1.5t4 -3.5t1.5 -8.5t0 -9.5t-0.5 -6.5q1 -4 3.5 -8.5t4.5 -7.5q4 -4 8 -7.5l8 -7t6.5 -8.5t2.5 -13q0 -11 -1.5 -19t-5 -13.5t-9.5 -9.5t-15 -7h-2q-3 0 -4 0.5t-1 3.5t4.5 4.5t10 5t10 10.5t4.5 19q0 9 -2.5 15t-6.5 10.5t-8.5 8.5
t-8.5 9t-6.5 11.5t-2.5 15.5zM182 165q-2 0 -6.5 3t-9.5 7.5t-10 8t-8 5.5q0 1 -3 3.5t-6 6t-5.5 6l-3.5 3.5l-1.5 1l-3 2t-2.5 2l-1 1q-1 2 -1.5 5t-0.5 4q6 0 9 -1.5t5.5 -4t5 -6.5t6.5 -8q3 -4 9.5 -8.5l13 -9t11.5 -9t7 -8.5q-2 -2 -3 -2.5t-2 -0.5zM53 208q0 3 2 4t4 1
h2.5h2.5q3 0 10.5 -0.5t16 -1t16 -1t10.5 -0.5q2 -1 2 -2v-2t-0.5 -2.5t-1.5 -1.5h-19l-3 -4q1 -17 0 -34t-1 -34v-22q2 -1 6 -1t8 0.5t7 -0.5t3 -4q0 -2 -1 -3.5t-3 -1.5h-20v-11q0 -3 2.5 -4t6 -1t6 -0.5t2.5 -3.5v-1.5t-2 -1.5h-22l-0.5 0.5l-0.5 0.5q-1 1 -1.5 2.5
l-0.5 1.5v18h-26q-2 0 -3.5 1.5t-1.5 2.5v2l0.5 1.5l0.5 1.5h29l1 1l0.5 3t0.5 7t0.5 8t0.5 6v6v12v13v10v7v8.5v7.5v4l-3 3q-7 -1 -14.5 -0.5t-14.5 1.5q-1 1 -1 2v2zM106 161v6.5t0.5 10t1 10.5t0.5 6t1 1h1q4 0 5 -3.5t1 -6.5q0 -10 -1 -19t-1 -18q0 -6 1 -10.5t1 -9.5
q0 -2 -1 -3t-4 -1q-1 -1 -2 0l-1 1q0 2 -0.5 7t-1 11t-0.5 11v7zM62 152v10v10.5t0.5 10.5t1.5 10h1.5h1.5q2 0 4 -1t0 -4v-3t0.5 -4t0.5 -4v-3v-3q0 -3 -0.5 -5t-0.5 -3v-2v-2t-0.5 -2.5t-0.5 -2.5v-2q0 -4 1.5 -9.5t1.5 -10.5v-1q0 -3 -2.5 -4.5t-4.5 -1.5h-2l-2 9v3v5v6
v4zM126 184q0 1 0.5 2.5t2.5 1.5h1q1 -1 3 -2.5l4 -3l4 -3t3 -1.5q2 -2 7.5 -6t11.5 -8.5t11 -9t5 -5.5q0 -4 -4 -4q-1 0 -5 3t-9.5 7t-11.5 9t-11 9t-8.5 7.5zM125 161q0 2 1 2.5t2 0.5q3 0 9.5 -4t13.5 -9.5t12.5 -11t5.5 -8.5q-1 0 -5 2t-9 5.5t-10 7.5t-9.5 7t-7.5 5.5z
M137 140q0 1 0.5 2t1.5 2q5 -1 6 -4.5t2 -7.5q1 -3 4 -5.5t5.5 -4.5t5.5 -4.5t4 -5.5q1 -2 1 -4.5t0.5 -5.5t0.5 -5.5v-3.5q-5 0 -7 1.5t-2.5 4.5t-0.5 7t-3 8q-2 3 -5 5.5t-6 5.5t-5 6.5t-2 8.5zM183 107q0 3 1 6.5t4 5.5l3 -4v-6q0 -3 0.5 -6.5t1.5 -7t3 -5.5l2 -2l4 -4
l3.5 -3.5t1.5 -2.5q2 -3 3 -7t1 -8.5t0.5 -9t0.5 -8.5v-5.5t-0.5 -9.5t-1.5 -8.5t-5 -3.5h-31q0 4 4 5t8.5 1h9t4.5 2q1 1 1.5 3l1 4l1 4t0.5 3l0.5 2t0.5 3v0q0 11 -2 21t-10 17q-3 2 -5.5 3.5t-2.5 5.5q0 1 -0.5 3t-0.5 4.5t-0.5 4.5t-0.5 3zM135 114l1 1.5t2 1.5l2 -0.5
t2 -1.5q1 -1 1.5 -3.5t1.5 -5.5t2 -5.5t1 -3.5q2 -3 4.5 -5.5l5.5 -5.5t4.5 -6t1.5 -7v-40q0 -8 -3 -11.5t-9 -3.5h-13.5t-13.5 1l-1.5 1.5t-0.5 2.5v1q3 1 7 1.5t8 0.5h8h6q1 0 3 1.5t2 3.5v42l-1 1.5l-1 1.5q-3 6 -6 10t-5.5 8.5t-4.5 9t-4 10.5zM148 68q-2 0 -6 2
t-7.5 4.5t-6.5 6t-3 4.5q4 0 8 -0.5t7.5 -2.5t6.5 -5t5 -7q-1 -2 -2 -2h-2zM43 78q0 4 3 4q4 0 7.5 -4t7.5 -10t8 -13t7.5 -13.5t7 -10.5t6.5 -4q2 0 4.5 2.5t4 5t3 6t1.5 4.5q0 4 -4.5 4.5t-9.5 0.5t-9 0.5t-4 3.5v0.5v0.5q1 0 1.5 0.5l0.5 0.5h23q1 0 3.5 -1.5t3.5 -1.5h1
v0q1 0 1.5 0.5t0.5 1.5t1.5 3.5l3 5t3 4.5t1.5 4q1 0 2 0.5l1 0.5h0.5h0.5q2 0 2.5 -1.5t0.5 -2.5t-2.5 -6t-6 -11.5t-8 -13.5t-8.5 -13t-7.5 -10t-5.5 -4q-1 0 -5 4.5t-9 12t-10.5 16t-10.5 16t-8 12.5t-3 6zM169 78q0 1 1.5 1.5l1.5 0.5q3 0 6.5 -1t6.5 -2.5l6 -3t5 -1.5
q0 -1 1 -2t1 -2q0 -2 -3 -2h-3q-2 0 -5.5 1t-7.5 3t-7 4t-3 4zM134 61q0 2 2 2h3q2 0 4 -1t4.5 -3t4.5 -4t2 -4q-6 0 -10 2.5t-9 6.5h-0.5t-0.5 1zM172 58q1 0 2 0.5t1 1.5h1q3 0 7 -1t7 -3t5.5 -4.5t2.5 -6.5q-2 0 -6 1t-8 3t-7.5 4t-4.5 5zM151 32h-3.5t-3.5 1
q-3 1 -6 1.5t-5.5 2t-4.5 3.5t-2 5q3 0 7 -0.5t8 -2t7 -4t3 -6.5zM195 27q-2 0 -6.5 1t-9 2.5t-7.5 4t-3 5.5h7.5t8.5 -1.5t7 -4t3 -7.5z" />
</svg>
