<?xml version="1.0" standalone="no"?>
<!DOCTYPE svg PUBLIC "-//W3C//DTD SVG 1.1//EN" "http://www.w3.org/Graphics/SVG/1.1/DTD/svg11.dtd" >
<svg xmlns="http://www.w3.org/2000/svg" xmlns:xlink="http://www.w3.org/1999/xlink" version="1.1" viewBox="-10 0 266 256">
   <path fill="currentColor"
d="M124 231q0 1 0.5 3t0.5 4t0.5 4l0.5 2v5t4 2q2 0 3 -1.5t1.5 -3.5t0.5 -5v-4v-7t-2 -7v-71q0 -4 0.5 -10t1.5 -12t1.5 -12t1.5 -11q0 -5 4 -7.5t9 -4t9.5 -2.5t7.5 -1q2 0 6 0.5t8.5 1.5t8 3.5t4.5 6.5q0 2 0.5 8t1 12.5t0.5 12.5t1 9l0.5 2.5t0.5 3.5q0 2 0.5 8.5
t0.5 14t0.5 14t0.5 8.5q0 1 -0.5 3t-0.5 4t-0.5 3l-0.5 1h-27v-19l0.5 -0.5t0.5 -1.5q4 -1 10 -2t8 -1t2 -1t0.5 -2.5t0.5 -2.5v-1h-22q-1 0 -1.5 -1t-0.5 -2.5v-2.5v-2v-3v-2t0.5 -4l1 -4l0.5 -2q2 -1 4.5 -1.5t5 -1.5t4 -3t1.5 -6v-38q-4 0 -5 1.5t-1.5 3t-0.5 4t-1.5 4.5
t-4.5 3t-10 1q-5 0 -6 -2.5t-1.5 -5.5t-1 -5.5t-4.5 -2.5q-1 0 -2 1t-1.5 2.5t-0.5 3v1.5q0 2 0.5 5.5t1 8t1 8.5t0.5 6q1 4 3 6t4.5 3.5t4.5 3t2 5.5t-0.5 8t-0.5 9q-2 3 -5 3.5t-5.5 0t-5.5 0t-4 3.5q1 2 3.5 3t5.5 1q2 0 4.5 -0.5t4.5 -0.5l2 1v20l-0.5 0.5t-1.5 0.5
q-4 3 -7.5 3.5t-7.5 0.5l-3 3l3 3h2.5h4.5q11 0 22.5 -1.5t23.5 -1.5v32q0 2 1.5 2h2.5q4 0 4.5 -3.5t0.5 -7.5v-7v-12t-0.5 -18.5t-1 -22t-0.5 -22t-0.5 -18.5t-0.5 -12q-1 -3 -1 -5.5v-4.5v-4.5v-6.5q-1 -7 -5 -10.5t-9 -5.5t-11 -3t-11 -2q0 -2 0.5 -6t0.5 -9t-0.5 -9.5
t-0.5 -6.5v-2v-4t-0.5 -4t-0.5 -3v0v-2q0 -4 1 -8t1 -8q0 -1 -0.5 -4t-0.5 -4l-1 -0.5l-1 -0.5q-3 0 -5 2.5t-2 5.5v63l-0.5 0.5t-0.5 1.5q-3 1 -5 1.5t-4.5 1t-4.5 2t-4 3.5q-6 5 -9 13.5t-4 18.5t-1 19v17v12.5v20.5v19.5v13.5q-1 0 -1.5 1.5zM52 233q0 2 1.5 3t3.5 1.5
t4 0.5h4v0h1q3 0 9.5 -0.5t14 -1t14.5 -1t9 -0.5q2 -1 2 -1.5v-2.5v-1q-2 -1 -5.5 -1.5t-6.5 -1l-6 -1t-5 -0.5l-1 -3v-87q0 -2 1 -5t3 -3h22l0.5 -0.5t0.5 -1.5v-1v0q0 -1 -0.5 -1.5l-0.5 -0.5q-1 0 -3 -0.5t-5 -0.5t-5 -0.5t-3 -0.5q-2 0 -5.5 -0.5l-3.5 -0.5v-12
q0 -2 2 -3t5 -2t5.5 -2t3.5 -3q-1 -2 -3 -2.5t-4 -0.5q-1 0 -3.5 1t-5.5 1.5t-5.5 1.5l-2.5 1v20q0 2 -5 2.5t-10 0.5q-6 0 -10.5 0.5t-4.5 2.5q0 1 0.5 2.5t1.5 1.5h26l0.5 1.5t0.5 2.5v1v2v6.5t-0.5 11t-0.5 13.5v13.5v11v6.5l-0.5 1.5t-0.5 2.5q0 2 1 4t1 5v4t-0.5 5.5
t-1.5 5t-3 2.5h-24q-1 0 -1.5 1.5t-0.5 2.5zM62 214l1 0.5t2 0.5t2 -2.5l1 -2.5q0 -11 0.5 -25t0.5 -27q0 -1 0.5 -2.5t0 -3t-1.5 -2.5t-2 -1h-2.5t-1.5 1q-1 2 -1 5.5t-0.5 7.5t-0.5 8v5v7.5t0.5 11.5t0.5 11.5t1 7.5zM101 207q0 3 1.5 3.5t3.5 0.5h1t1 -1l1 -9v-52
q0 -3 -1 -3.5t-3 -0.5h-1t-1 1q-1 7 -1 12.5t-0.5 10.5t-0.5 11v12v15zM156 132v-1l0.5 -0.5l1.5 -1.5q1 0 3.5 -0.5l5 -1l5 -1t3.5 -0.5h1q1 0 3 1.5t2 3.5q0 7 -3.5 11.5t-10.5 4.5t-9 -4.5t-2 -10.5zM49 92q0 3 3 3t5.5 -4t5.5 -10t6.5 -12.5t6.5 -12.5t6 -10t6 -4t6 3
t6 8.5t5.5 11.5t5 11.5t4.5 9t4 3.5t2 -2v-4v-5t-1 -5t-3.5 -6t-5.5 -9.5t-6.5 -11.5t-6.5 -11t-5.5 -8.5t-3.5 -3.5l-1 -1v0.5v0.5q-2 1 -5 3t-3 2.5v3.5v3q0 1 -0.5 2t-1.5 1q-9 14 -16 26t-13 26v2zM130 74q1 2 1.5 2h1.5q2 0 3.5 -1t2.5 -3t1.5 -4t0.5 -3t0.5 -3.5
t0.5 -4.5t0.5 -4t0.5 -3v-4v-6.5v-6.5v-4h-8v11v12t-1 11.5t-4 10.5zM190 71q1 3 5 3q2 0 3 -1.5t1 -3.5v-2v-1l-0.5 -1.5t-1 -2.5t-1 -2.5l-0.5 -1.5q-1 -5 -2 -9t-1.5 -8t0 -8t0.5 -9l-2 -1q0 -1 -1 -1.5t-2 -0.5q-3 2 -3.5 3.5t-0.5 4.5q0 11 1.5 22t4.5 20z" />
</svg>
