<?xml version="1.0" standalone="no"?>
<!DOCTYPE svg PUBLIC "-//W3C//DTD SVG 1.1//EN" "http://www.w3.org/Graphics/SVG/1.1/DTD/svg11.dtd" >
<svg xmlns="http://www.w3.org/2000/svg" xmlns:xlink="http://www.w3.org/1999/xlink" version="1.1" viewBox="-10 0 266 256">
   <path fill="currentColor"
d="M203 248q0 1 1.5 1h2.5t2 -1t1.5 -2.5t1 -3.5t0.5 -3v-3l-0.5 -3t-1.5 -3q0 -2 -0.5 -7.5l-1 -11t-0.5 -11v-7.5q-2 -19 -2.5 -38.5t-0.5 -38.5q0 -4 0.5 -7t0.5 -6q0 -17 -1 -35.5t-4 -35.5q-6 -6 -13 -7t-15 -1q-14 0 -24 0.5t-17.5 4.5t-11 13t-3.5 25v5v6t0.5 10
t0.5 9.5v6.5q0 5 0.5 16t0.5 25v29v29t-0.5 25t-0.5 16q1 2 1.5 2h2.5t4.5 -3.5t2.5 -5.5v-2q0 -1 -0.5 -5t-1.5 -5q1 -36 -0.5 -71t-0.5 -71q-2 -4 -2 -7v-8q0 -14 3 -21.5t8.5 -10.5t14 -3.5t20.5 -0.5q6 0 10 0.5t7 2t5 5t3 9.5q0 3 0.5 8t0.5 11.5t0.5 12t0.5 7.5v1
q0 3 -1 6.5t-1 6.5q0 14 1.5 27t1.5 26v8v15v15v8q0 5 1 11l2 12t1.5 12.5t0.5 11.5zM178 211q3 0 5.5 4.5t4 10.5t3 10.5t3.5 4.5q3 0 3 -2v-3q0 -4 -1.5 -8.5t-4 -8.5t-4 -8t-1.5 -8t1 -8t1 -8q0 -2 -1 -5t-2.5 -6t-3.5 -5t-4 -2h-34q-1 0 -3 1.5t-2 2.5q0 2 1.5 3.5
t3.5 1.5q3 0 7 -1.5t7 -1.5q4 0 7.5 0.5t7 1.5t6 3.5t2.5 6.5q0 1 -1 3.5t-2 2.5q-7 0 -13.5 -1.5t-12.5 -1.5h-7t-7 2v0v1l1 2q8 1 16.5 1t16.5 2l0.5 1.5l0.5 1.5v0.5v0.5v0.5v0.5l-1 0.5t-2 1.5q-1 0 -4 0.5t-6 1.5t-5 1.5t-3 0.5q-1 1 -3 1t-4 0.5t-4.5 0.5h-2.5
q-1 0 -1.5 0.5t-0.5 1.5v0v1l2 2l1 1h3.5h2.5q4 0 8.5 -1t8.5 -2t8.5 -2t8.5 -1zM44 227q0 2 1 3t2.5 1.5t3.5 0.5h3q13 0 26 -1t26 -3l1.5 -1t1.5 -2v0v-1q0 -1 -1.5 -2l-1.5 -1h-21q-2 0 -3 -3l-1 -3q1 -18 0 -36.5t-1 -36.5v-3v-3.5t1 -3t2 -1.5h18q3 0 3.5 -1t0.5 -3
t-0.5 -3t-3.5 -1h-20v-21q0 -4 3 -5.5t6 -2t6 -2.5t3 -6h-8.5t-8.5 1t-6.5 4t-3.5 8v4.5v6.5v7v4q-1 3 -5.5 3.5t-9.5 0.5t-9.5 1t-4.5 4v1l2 1h7q5 0 9 -0.5t8 -0.5h2t1 1q0 5 0.5 15.5t0.5 22t0.5 22t0.5 14.5v5q0 2 -0.5 3.5l-1.5 4.5q-1 0 -5.5 0.5t-9.5 1.5t-9 2.5
t-4 3.5zM49 209q1 2 1.5 2h1.5q3 0 4.5 -2.5t2 -5t1 -5.5t0.5 -5v-2v-7v-7v-6v-5v-6.5v-6.5v-5l-0.5 -0.5t-1.5 -0.5v0h-1q-1 0 -2 1.5l-1 1.5q-2 12 -3.5 26t-1.5 27v6zM97 200q-1 2 0.5 2.5t2.5 0.5h2.5t2.5 -2v-8v-10t-0.5 -17t-2 -16t-4.5 -7l-1 1q-1 0 -2 2v9
q0 12 1 23t1 22zM138 110v2l0.5 1t1 2.5t0.5 2.5v2v9.5t0.5 9.5t2.5 8.5t8 5.5h9q9 0 13.5 -2.5t7 -7.5t2.5 -11.5v-15.5q0 -5 -0.5 -10.5t-2.5 -10t-5.5 -7t-9.5 -2.5q-7 0 -12 1t-8.5 3.5t-5 7t-1.5 12.5zM151 139q0 -3 2.5 -4t6.5 -1.5t8 0t5 0.5q0 7 -2.5 10t-9.5 3
q-5 0 -7.5 -1t-2.5 -7zM170 114q2 0 3.5 2t1.5 4v0q0 2 -1.5 5t-2.5 3h-24q0 -6 1.5 -9t4.5 -4t8 -1h9zM147 106q0 -8 3.5 -11t10.5 -3q5 0 9 2t4 8q0 2 -0.5 3t-2.5 2h-11.5t-10.5 1l-0.5 -0.5t-1.5 -0.5v-1zM43 70q0 2 0.5 3.5t2.5 1.5t5 -3.5t6 -8.5t6 -10.5t6 -10.5
t6 -8.5t6 -3.5v0l2 2t2 1q0 1 1.5 4t3.5 6t3.5 6t1.5 4v0v1q0 1 -0.5 2l-0.5 1h-7.5t-9.5 0.5t-8 2.5t-3 6q6 0 12 -0.5t13 -1.5q2 -1 3 -3t2 -2q3 0 4 2l2 4t2 3.5t4 1.5q1 0 2 -2.5l1 -2.5v0q0 -3 -2.5 -7l-5 -8t-5.5 -8t-4 -7q-1 -1 -2 -3t-2 -5t-2 -5t-2 -3q-3 -3 -6 -3
h-2l-10 11l-3 4.5t-6.5 10t-7.5 12t-6 10.5q-2 2 -2 3v3zM134 68q0 1 0.5 2t0.5 2h1h1q2 0 8.5 -0.5t14 -0.5t14 -0.5t9.5 -0.5v-1v-1v-2.5t-2 -1.5h-2.5h-3.5q-10 0 -19 1t-21 2l-0.5 0.5zM183 47v-0.5v-0.5q-1 -1 -2 -1h-34h-3t-4 1t-3.5 2t-1.5 3h43q1 0 3 -1.5t2 -2.5z
" />
</svg>
