<?xml version="1.0" standalone="no"?>
<!DOCTYPE svg PUBLIC "-//W3C//DTD SVG 1.1//EN" "http://www.w3.org/Graphics/SVG/1.1/DTD/svg11.dtd" >
<svg xmlns="http://www.w3.org/2000/svg" xmlns:xlink="http://www.w3.org/1999/xlink" version="1.1" viewBox="-10 0 266 256">
   <path fill="currentColor"
d="M137 247q0 4 3 4t6.5 -4t6.5 -9.5t5.5 -13t4 -14t2 -12.5t0.5 -9l2 -1q0 -1 0.5 -3t1 -5.5t0.5 -5.5q1 -3 1.5 -7t2 -7t4.5 -5t8 -2q2 0 2.5 1.5l1.5 4.5v21q0 10 -1 20t-1 19q0 2 1 2.5t3 0.5q4 0 5.5 -3t1.5 -7v-2.5v-5.5v-5v-3v-4v-6v-4v-2q0 -2 -0.5 -7t-1 -11
t-1.5 -11t-1 -7q-2 -3 -5 -3q-2 0 -4 1.5t-4 3.5t-4 3.5t-4 1.5h-2t-2 -1v-3.5v-5t-0.5 -5t-0.5 -3.5l-1 -3t-2 -5l-1 -3t-1 -4t1.5 -3.5t2.5 -2.5h13l1 -1.5l1 -1.5v-1v-1l-0.5 -0.5t-1.5 -0.5h-38q-3 0 -3 2q0 1 0.5 2t1.5 1h15l1 2l-1 1t-2 3t-2 2l-4 4l-2 2t-2 2.5
t-2 2.5t-1 2q-2 2 -5 3.5l-6 3t-5.5 3t-4.5 4.5q1 1 2 1h2q2 0 5.5 -1.5t7.5 -4t7 -4.5t5 -4q1 0 2.5 -2.5l1.5 -2.5q1 -1 2 0t2 1q0 1 1 3.5t0 3.5q-2 4 -8 8.5t-12.5 9t-11.5 9t-5 9.5q5 0 10.5 -4t10.5 -9t9 -9.5t6 -4.5q4 0 5 3t1 7v3v3q-4 1 -6.5 3t-5.5 4.5t-5.5 5
l-4.5 4.5q-3 3 -7 5t-7 5l-3 3l-4 4l-3.5 3.5l-1.5 1.5v5q8 0 13.5 -5t10 -11t9.5 -11t12 -5q0 12 -3.5 24.5t-7.5 23.5q-1 2 -3 5t-4 7t-3.5 8t-1.5 6zM56 194q0 2 1 3.5t3 1.5q6 0 12 -2t11 -2h16q1 0 5 -0.5t5 -1.5q1 0 2 -1l1 -1v-1q0 -1 -1.5 -2.5t-2.5 -1.5h-19v-11
v-17v-17.5v-11.5v-6t0.5 -7.5t0.5 -6v-2.5h21q1 0 2 -2t1 -3t-0.5 -2t-1.5 -1h-16q-3 0 -4 -1.5t-1 -3.5q0 -4 1.5 -6t4 -2.5t5.5 -1t6 -0.5q2 -2 2 -4t-1.5 -3t-3.5 -1h-4h-2q-8 0 -11 4.5t-4 9.5t-1.5 8.5t-1.5 3.5h-18q-2 0 -2.5 1.5t-0.5 2.5q0 3 1 3.5t3 0.5q4 0 7 -1
t7 -1q1 0 2.5 0.5t1.5 1.5v3.5v5.5v5v3q0 11 -0.5 21t-0.5 21q0 3 0.5 5t0.5 5t-1 5t-3 4q-2 0 -5.5 -0.5t-7.5 -0.5t-6.5 2t-2.5 5zM61 157q0 4 1.5 10t3.5 10v0h1l1.5 -1.5l1.5 -1.5q1 -9 1 -16.5v-16.5v-18q0 -1 -1 -1h-2t-1.5 4.5t-1 10l-1 11t-1.5 7.5l-1 0.5t-1 1.5z
M98 175q0 1 1 1.5t2 0.5h2q1 -3 1.5 -5.5t0.5 -5.5v-4.5t2 -4.5v-32q0 -1 -1.5 -1.5l-1.5 -0.5h-1q-1 2 -1.5 5t-0.5 4v2q0 2 -0.5 8t-1 12.5t-0.5 12.5v7l-0.5 0.5zM124 130q1 1 1 1.5t1 0.5v0h1q1 -1 2 -1.5t1 -1.5q0 -2 0.5 -7l1 -10t0.5 -10t1 -7q0 -2 0.5 -5t1.5 -5.5
t3 -4.5t5 -2q2 0 3 2.5t1.5 5t0.5 5t2 3.5q5 1 9 1h9h5h5q1 -1 1 -1.5v-1.5v-1.5t-1 -1.5q-6 1 -10.5 0.5t-10.5 -1.5l-1.5 -0.5l-1.5 -0.5v-9h29q0 -3 -1.5 -4.5t-3.5 -2.5t-5 -1h-5h-5q-1 0 -2.5 1t-2.5 1l-1 -0.5t-1 -1.5q-1 0 -1.5 -0.5l-0.5 -0.5v-11h9h10t9 1.5t7 5.5
q0 5 0.5 9.5t0.5 9v8.5v9q0 7 -0.5 13t-0.5 13v2.5t2 1.5q3 0 4 -1.5t2 -3.5q2 -6 2.5 -9.5t0.5 -9.5q0 -2 -0.5 -4.5t-1.5 -4.5q1 -10 1 -18t-2 -17l-0.5 -2t-1.5 -3.5t-1.5 -2.5t-2.5 -1l-33 -3l-2.5 -1.5t-2.5 -2.5l1 -22q1 -1 3.5 -1h3.5h2.5t2.5 1v12l3 3l1.5 0.5
t3.5 0.5t3.5 0.5t2.5 0.5h3.5h5h4.5h3v-3v-3q-1 0 -1 -0.5t-1 -0.5h-18q-2 0 -3 -2.5t-1 -4.5q0 -4 3.5 -5t7.5 -0.5t7.5 0t3.5 -3.5t-3 -5h-7q-5 0 -9.5 0.5t-9.5 1.5q-1 0 -4 0.5t-5.5 1t-4.5 0.5h-2l-1 2q0 16 -2 31q0 1 -1 1.5t-2 0.5q-2 0 -5 -3.5t-3 -6.5v-26
q0 -2 -1 -3t-3 -1h-2t-2 1v29q0 4 3.5 7t7 5t7 3.5t3.5 2.5v1q-1 1 -1.5 4.5t-0.5 5.5q-2 1 -2.5 1h-2.5q-9 1 -12 5t-3 13q-1 8 -1.5 16.5t-0.5 17.5v5zM56 65q0 2 0.5 3t2.5 1q4 0 8 -6t8.5 -13.5t9.5 -14t9 -6.5h2q2 2 5 7t6 11t5.5 10.5t5.5 4.5q2 0 2 -1v-4q0 -3 -1 -6
t-3 -5t-3.5 -4.5t-3.5 -5.5l-1 -2.5l-2 -5t-2 -4.5t-1 -3q-2 -2 -3 -4t-4 -2q-1 0 -5.5 5t-9 10.5l-9 11t-5.5 6.5t-2.5 3l-3 4l-3 4t-2.5 3v3zM82 54q-3 1 -3.5 4t-0.5 5q2 0 6.5 -0.5l9 -1t7.5 -2t3 -4.5q0 -2 -3 -2h-1h-3.5h-5.5t-5.5 0.5t-3.5 0.5z" />
</svg>
