<?xml version="1.0" standalone="no"?>
<!DOCTYPE svg PUBLIC "-//W3C//DTD SVG 1.1//EN" "http://www.w3.org/Graphics/SVG/1.1/DTD/svg11.dtd" >
<svg xmlns="http://www.w3.org/2000/svg" xmlns:xlink="http://www.w3.org/1999/xlink" version="1.1" viewBox="-10 0 266 256">
   <path fill="currentColor"
d="M199 245q-1 3 0.5 3.5t3.5 0.5t3.5 -0.5t0.5 -3.5v-3v-4.5v-4.5v-3q0 -34 -2 -68t-1 -68q-2 -6 -5.5 -8.5t-7.5 -3.5t-9 -1h-10q-2 0 -2 -2v-3q0 -3 0.5 -3t4.5 -1h4t6.5 -0.5t6.5 -1t4 -0.5q2 -1 3.5 -3t3 -4.5t2 -5t0.5 -4.5q0 -1 -1 -3t-3 -2q-1 0 -2 2.5t-3 5.5
t-5.5 5.5t-11.5 2.5h-2.5h-3.5q-1 -2 -1 -4.5v-5.5v-4.5t3 -2.5l2 -0.5t4 -0.5t3.5 -0.5t2.5 -0.5t3 -0.5t3 -2.5q1 -1 2 -3t2 -4.5t1.5 -5t0.5 -4.5t-1.5 -3.5t-2.5 -1.5q-4 0 -5 3.5l-2 7t-3 7t-6 3.5q-3 0 -5 -1t-2 -5q0 -3 0.5 -6t0.5 -7v-2v-3q-1 -1 -2 -1.5t-2 -1.5
q-2 0 -5.5 -0.5t-7 -0.5t-7 -0.5t-5.5 -0.5l-2 0.5t-4.5 0.5t-4.5 0.5l-2 0.5q-1 0 -1.5 1t-0.5 2t1.5 2l1.5 1h27l1 0.5t1 1.5q2 3 2 5v6v8q-2 1 -3 1h-3q-3 0 -4.5 -2t-3 -4.5t-3 -4.5t-4.5 -2q-1 0 -1.5 0.5t-0.5 3.5q0 5 1.5 8t4 4.5t6.5 2t9 1.5q2 0 2.5 1.5t0.5 4v4.5
v4q0 1 -1 2t-2.5 1h-3.5h-2q-7 0 -10.5 -2.5t-6 -5.5t-4 -5.5t-3.5 -2.5q-4 0 -4 3q0 7 3 11t7.5 5.5t10 2t10.5 0.5q2 1 2.5 2t0.5 3q0 3 -1 4t-4 2q-1 0 -4 0.5t-6.5 0.5t-6.5 0.5t-4 0.5t-2.5 -0.5t-4 -0.5t-4.5 0.5t-3 1.5v1v1q1 0 1.5 0.5l0.5 0.5h10q11 0 22 -1t22 -1
h3t4 0.5t3 0.5h3l0.5 0.5l0.5 0.5q2 2 3.5 5.5l1.5 3.5v33l1 7v6t0.5 12.5t0.5 16.5t0.5 18t0.5 17v13v4.5v7.5v7v5zM132 210q0 3 0.5 7t1.5 8t3.5 7t6.5 3h29q4 0 6 -3.5t3 -8t1.5 -9t0.5 -6.5q0 -3 -1 -5t-4 -2h-3q0 1 -0.5 4l-0.5 3q0 1 -1 1.5l-1 0.5h-30
q-2 0 -2.5 -1.5t-0.5 -3t-1 -2.5t-3 -1h-2.5t-1.5 2v3v3zM141 222q0 -2 0.5 -3t2.5 -1h29q2 0 2 1.5v2.5q0 2 -1 4.5t-4 2.5h-23q-2 0 -4 -2.5t-2 -4.5zM50 224q0 1 1 2t3 1h2q2 0 8.5 -0.5t14.5 -1t15 -1t9 -0.5h2.5t3 -0.5t2.5 -1t1 -2.5v-1l-1.5 -1l-1.5 -1h-20
l-0.5 -1.5t-0.5 -2.5t-0.5 -3t-0.5 -4.5t-0.5 -4t-0.5 -2.5q0 -2 0.5 -10t0.5 -17.5t0.5 -17.5t0.5 -10q0 -6 -0.5 -12t1.5 -11q1 -3 5 -3.5t8 -0.5t7 -0.5t3 -3.5q0 -2 -0.5 -2.5t-2.5 -0.5h-19v-3t-0.5 -4.5t-0.5 -4.5v-2q1 -3 2 -4t3 -1.5t4 -0.5t3 -1q1 0 2 -1l2 -2
l-2 -1h-17l-1 0.5t-2 0.5l-1 1l-1 1v23h-27q-1 0 -1.5 1.5l-0.5 1.5q0 1 0.5 2t1.5 1h25l0.5 2t0.5 4v4v2q0 3 -0.5 6.5t-0.5 6.5v1v4t0.5 8t0.5 8v5v6.5t-0.5 12t-0.5 12v6.5v1q0 2 0.5 3.5t0.5 3.5v3t-1 2h-25l-1 1l-2 2l-0.5 0.5l-0.5 0.5v2zM54 202l1.5 1.5t1.5 0.5
q3 0 4 -3t1.5 -6.5t0.5 -7.5v-5q0 -2 0.5 -7t1 -10.5t0.5 -10.5v-7v-3q0 -3 -0.5 -4t-3.5 -1q-2 0 -3 0.5t-2 3.5q0 13 -1 26t-1 26v7zM100 161v22v4.5t0.5 5t0.5 4.5v2l2 2l3 -4v-56q0 -1 -1.5 -3t-2.5 -2t-1 1l-0.5 1l-0.5 1v22zM121 163q0 6 1 10.5t3 8.5t5.5 6.5
t9.5 2.5h47v-6h-49q-3 0 -4.5 -2t-2.5 -5t-1.5 -6t-0.5 -4v-3t0.5 -4t0.5 -3.5t1 -2.5q1 -2 2.5 -3t3.5 -2h19t16 -2t11 -8t4 -19v-6t-0.5 -8t-2.5 -7t-6 -3h-45q-2 0 -4 1.5t-2 4.5h49l3 7v3v5v9q0 4 -1 7.5t-3.5 5.5t-7.5 3q-9 0 -20.5 0.5t-20.5 3.5q-1 1 -1.5 3.5l-1 5
t-1 4.5t-1.5 3v0zM141 166q0 3 1 4.5t2.5 2t3.5 1t4 1.5h30q1 0 1.5 -0.5l0.5 -0.5v-1q0 -3 -5.5 -3.5t-11.5 0t-11.5 0t-5.5 -3.5q0 -2 1.5 -3t3.5 -2q7 1 15 0.5t15 -1.5q1 0 1 -1q0 -3 -2.5 -3.5t-4.5 -0.5h-4q-2 0 -5 0.5t-6.5 0.5t-7 0.5t-4.5 0.5t-3 1t-3.5 2t-3 2.5
t-1.5 3.5zM127 132v1l2 1h11h5h5h4t5 -1q1 0 2.5 -0.5l3 -1t3 -1.5t1.5 -2v-12l-4 -3h-34q-2 0 -3.5 1.5t-1.5 2.5h32q3 0 3 1.5v3.5t-1 4.5t-4 2.5h-27l-0.5 1t-1.5 1v1zM52 70v0h1l0.5 1l0.5 1h1q3 0 7.5 -6t8.5 -13.5t8.5 -13.5t8.5 -6h1q4 3 7 7t5.5 8t6 7.5t7.5 5.5
q1 0 1.5 -1.5t0.5 -2.5t-2 -4t-5 -7t-6.5 -9t-7 -9t-5.5 -6.5t-3 -2.5q-2 0 -5 3t-7 8t-8 11.5t-7.5 12t-6 10t-2.5 6.5zM77 54q0 2 1.5 2.5t3.5 1t5 0.5h2h2h3t3.5 -0.5t1.5 -1.5v-1l-1.5 -1.5l-0.5 -0.5h-2.5t-3.5 -0.5t-3.5 -0.5h-2.5h-1h-1q-1 0 -3 0.5t-3 0.5v1z" />
</svg>
