<?xml version="1.0" standalone="no"?>
<!DOCTYPE svg PUBLIC "-//W3C//DTD SVG 1.1//EN" "http://www.w3.org/Graphics/SVG/1.1/DTD/svg11.dtd" >
<svg xmlns="http://www.w3.org/2000/svg" xmlns:xlink="http://www.w3.org/1999/xlink" version="1.1" viewBox="-10 0 266 256">
   <path fill="currentColor"
d="M183 209q4 0 6 3t4 7t3 9t2 9.5t2.5 7t4.5 2.5t3.5 -1t0.5 -4q0 -6 -3 -13t-6.5 -13t-6.5 -11t-3 -9v-1q0 -1 1.5 -3.5t2.5 -3.5v0v-1q-1 -1 -1 -3t-0.5 -4t-0.5 -4.5v-2.5q-7 -5 -15.5 -6.5t-16.5 -1.5h-1h-3.5t-5 0.5t-5 0.5h-3.5l-0.5 1t-1.5 1v1q0 1 2 2.5t3 1.5h31
q3 0 5.5 3t2.5 5q0 6 -6 6t-12.5 -1t-12.5 -1h-2h-3.5h-3.5h-2q-1 1 -2.5 1.5t-2.5 1.5q2 2 4 3.5t4 1.5q3 0 5.5 -0.5t5.5 -0.5h5t8 0.5t7 1.5t3 4q0 2 -1.5 3t-2.5 2q-4 0 -8.5 1t-9 1.5t-9.5 0.5h-9q-2 0 -2 1v2v0.5v1.5q5 2 7.5 2.5t7.5 0.5q8 0 15.5 -2.5t15.5 -2.5z
M117 241l1.5 1.5t1.5 0.5q2 0 4.5 -2.5t2.5 -4.5v-81l1 -1l2 -2q0 -1 1 -2t2 -1l68 -3v-1.5v-1.5q0 -4 -4 -4q-6 0 -11.5 1t-11.5 1h-7q-1 -2 -1.5 -2.5t-0.5 -2.5t0.5 -3l1.5 -3q7 -2 14 -2h14q1 0 1.5 -1t0.5 -2q0 -2 -0.5 -2.5t-2.5 -0.5h-26q-1 0 -1 -2v-3v-2q0 -3 1 -3
l24 -3l1.5 -1.5t3.5 -4t4 -4t2 -2.5t-4.5 -2.5t-10 -3t-9.5 -3.5t-4 -5t2.5 -4.5t6.5 -2t7 -1.5t4 -4q0 -2 -3.5 -3.5t-8 -3.5t-8 -4t-3.5 -6q0 -1 0.5 -2.5t2 -2.5t2 -2t1.5 -1h26q2 0 4.5 -1.5t2.5 -3.5t-1 -2.5t-4 -0.5h-23q0 -3 1 -6t2 -5.5l2 -5t1 -6.5q0 -2 -0.5 -3
t-3.5 -1q-4 0 -6 3q0 1 -1.5 5.5l-3 9t-3 8.5t-1.5 6q-1 3 -3 6t-6 3q-5 0 -8 -5t-5 -11.5t-3 -13t-1 -9.5q-3 -2 -5 -2q-3 0 -4 1.5t-1 3.5q0 4 1.5 7t1.5 7v3.5t-3 2.5h-3t-4 0.5l-4 1t-3 0.5q-2 0 -2.5 0.5t-0.5 2.5v2t2 1h21q2 0 3.5 2t3 4.5t2.5 5l1 2.5q0 1 -1 2t-1 2
l-0.5 0.5l-0.5 0.5q-1 1 -3 2t-5 3t-5 3.5t-3 1.5l-0.5 0.5l-0.5 0.5v1v1q4 0 9.5 3t8.5 5v0.5v0.5q0 2 -2.5 3.5t-6 3.5t-6.5 3t-3 3q-5 9 -7 19t-2.5 20t0 20.5t-0.5 20.5q0 2 -0.5 9.5t-1 16t-1 16.5t-0.5 9v6v6zM71 115q0 12 0.5 22t0.5 20t-0.5 20t-1.5 21l-0.5 1.5
l-1 3t-1.5 3l-1 1.5h-18l-0.5 0.5t-0.5 1.5t-0.5 3.5t-0.5 3.5h8.5t12 -0.5t13.5 -1t13 -1t9.5 -1.5t3.5 -2t-2 -2.5t-3 -1.5h-21v-59v-34h29q0 -2 -0.5 -4.5t-3.5 -2.5h-19q-2 0 -2 -2v-3q0 -5 3.5 -8.5t7 -5t7 -2.5l3.5 -1q0 -4 -3.5 -4.5t-5.5 -0.5q-8 0 -12.5 2
t-7.5 5.5t-3.5 9t-0.5 12.5q-1 0 -3.5 -0.5t-5.5 -0.5t-5 0.5t-3 0.5q-3 0 -5 1t-2 3q0 3 2.5 3.5t4.5 0.5q4 0 8 -0.5t8 -0.5zM50 192l1 2t2 2q3 0 4 -2t1 -4v-7.5t0.5 -11.5t0.5 -11.5v-7.5v-9v-9l-1 -1l-2 -2v0h-1l-1 1l-1 1l-2 24t-1 24v5v6zM93 133v52q0 1 1 3l1 2h0.5
h0.5h1l2.5 -2.5t1.5 -2.5v-51l-4 -4zM134 136q0 -2 0.5 -4t2.5 -2h19v2.5t-0.5 3.5t-1 3.5t-1.5 1.5h-17q-2 0 -2 -2v-3zM134 116q6 -2 12 -3t13 -1l-0.5 2.5t-1 5.5t-3.5 3h-22v-2.5t1 -3.5l0.5 -0.5zM157 88h1t1 1v2.5t-0.5 4.5l-1 4t-0.5 3v1.5v1.5h-23q0 -1 3.5 -4
t7.5 -6t7.5 -5.5t4.5 -2.5zM165 100v-3t0.5 -3.5t2 -2.5t4.5 -1q1 1 3.5 2t5 2.5t4.5 3t4 3.5l-2 2l-2 0.5t-4.5 1t-5.5 1t-5 0.5h-2q-2 0 -2.5 -1.5t-0.5 -4.5zM148 72q0 -1 2 -3.5t4 -4t5 -3t4 -1.5q2 0 4 0.5t4.5 2t3.5 3.5t1 3q0 3 -2.5 4t-4.5 1t-2.5 -0.5l-1.5 -1.5
t-1.5 -2t-2.5 -1q-1 0 -2 1.5t-1 2.5t-0.5 2.5l-0.5 1.5v0h-1l-1.5 -0.5l-3 -1t-2.5 -1.5t-1 -2zM48 69q0 1 1 1.5l1 0.5q1 1 2 1.5l1 0.5q3 0 5 -2.5t4.5 -5.5t4 -5.5t2.5 -2.5h34l0.5 0.5t1.5 0.5q0 1 1 3l2 4t2 3.5t1 2.5l0.5 0.5l0.5 0.5q2 0 3.5 -1.5t1.5 -3.5
q0 -4 -3.5 -11.5t-8 -14.5t-9.5 -13t-9 -9v0h-1q-2 0 -5 3.5t-7 9t-8.5 12t-8.5 12t-6.5 9.5zM78 49v-2q0 -2 0.5 -4.5t2 -4.5t3.5 -3.5t3 -1.5q2 0 3.5 1.5t3 4t2.5 5t1 3.5q0 2 -1 2.5l-2 1t-3 0.5h-2q-3 0 -5.5 -0.5t-5.5 -1.5z" />
</svg>
