<?xml version="1.0" standalone="no"?>
<!DOCTYPE svg PUBLIC "-//W3C//DTD SVG 1.1//EN" "http://www.w3.org/Graphics/SVG/1.1/DTD/svg11.dtd" >
<svg xmlns="http://www.w3.org/2000/svg" xmlns:xlink="http://www.w3.org/1999/xlink" version="1.1" viewBox="-10 0 266 256">
   <path fill="currentColor"
d="M131 196q1 6 4 8.5t7.5 3.5t8.5 2t6 3q4 6 8 12.5t9 11.5t11 8t15 3h5q1 0 1.5 -1t0.5 -2q0 -3 -2 -4.5t-5 -2.5t-6 -1.5t-4 -1.5q-1 0 -3 -1t-4 -2.5t-4 -2.5t-3 -2l-0.5 -1.5l-0.5 -1.5v-1v0v0q1 -4 3.5 -9t5.5 -6q2 -1 6 -2.5l8 -3t6.5 -4.5t2.5 -8q-1 -9 -5 -13
t-8.5 -6t-8 -3t-3.5 -5q0 -3 1.5 -4.5t4 -2.5t5.5 -1.5t5.5 -2.5t4 -6.5t1.5 -12.5q0 -9 -2 -14t-6.5 -7.5t-10.5 -3t-14 -0.5q-2 0 -7.5 0.5t-11.5 1.5t-10.5 3.5t-4.5 6.5v24q0 4 2.5 6t5.5 3.5t5.5 3.5t2.5 6q0 6 -4 8t-8 4.5t-7.5 7t-2.5 13.5zM91 156v50q0 1 -0.5 3
t-1.5 3.5t-2 2.5t-3 1h-25q-1 0 -1.5 0.5l-0.5 0.5v4v3h3h4h5h3q4 0 10.5 -0.5t13.5 -0.5h13h7q1 -1 4.5 -1.5t4.5 -0.5v-2q0 -1 -0.5 -3t-2.5 -2h-20l-2 -3q-1 0 -1 -7t-0.5 -16t-0.5 -19v-17v-9t0.5 -11.5t0.5 -9.5t1 -4h21q1 0 1 -2v-2q0 -3 -2 -4t-4 -1h-2.5t-3.5 0.5
t-4 0.5h-2h-1h-1l-1 -0.5l-1 -0.5v-17q0 -3 2 -3.5t4.5 -0.5t4.5 -1t2 -3q0 -4 -2.5 -4.5t-4.5 -0.5h-4t-4.5 0.5t-4.5 1.5t-2 3v23l-4 3q-1 0 -4.5 0.5t-7.5 0.5t-7 0.5t-5 0.5t-4 1t-2 4q0 1 1 2t2.5 1h2.5h2q5 0 10.5 -1t10.5 -1q4 0 4.5 3t0.5 6q0 4 -1 7.5t-1 7.5v6.5
t2 7.5zM163 190q-1 -2 -2 -2.5t-3 -0.5t-3 2.5t-1 5.5t-0.5 5.5t-2.5 2.5q-4 0 -7.5 -3.5t-3.5 -6.5q0 -4 1.5 -7t4 -4.5t5.5 -3t6 -3.5q2 -1 3 -4t2 -5.5t2.5 -4.5t4.5 -2q1 0 3 1.5t3 4t1.5 5t0.5 4.5t-1 5t-1 5q0 3 1 4.5t1 3.5q0 3 -0.5 6t-2 5.5t-3.5 4.5t-5 2v0
q-1 -1 -1.5 -3t-0.5 -3v-2t-0.5 -4.5t-0.5 -4.5v-3zM68 198q-1 3 0.5 3.5t3.5 0.5t3.5 -2t1.5 -5v-54l-1.5 -1t-1.5 -2h-0.5h-0.5h-0.5h-0.5l-1 1.5t-2 1.5q0 7 -0.5 11.5t-0.5 9v9.5v11v16zM111 200q1 1 1.5 1h1.5q2 0 3 -1t2 -3t1 -4t1 -3q-1 -2 -1 -7.5t-0.5 -11.5
t-1 -11t-0.5 -8v-5t-0.5 -5t-2 -4t-4.5 -3q-3 5 -3 12q0 13 1.5 26.5t1.5 26.5zM180 176q3 0 5.5 0.5t5.5 1.5t4.5 3t1.5 5q0 1 -0.5 3t-2 4t-3 3.5t-3.5 1.5t-3 -3t-2 -6.5l-2 -7t-1 -5.5zM155 149q0 -1 1 -3t3.5 -4t5 -3t3.5 -1q2 0 4 0.5t4 2t3.5 3.5t1.5 4t-2.5 3t-6 2
t-6.5 1h-5q-4 0 -6 -5zM179 136q0 -4 1.5 -6t4 -3.5t5 -2t4.5 -0.5v16l-1 1l-2 2v0q-2 0 -6 -2.5t-6 -4.5v0zM148 125q3 0 6.5 1.5t3.5 4.5q0 5 -3.5 7.5t-7.5 2.5h-1l-0.5 -0.5l-0.5 -0.5v-13q0 -2 1 -2h2zM160 122q0 -1 -0.5 -1.5t-0.5 -1.5q0 -2 1.5 -2.5l3 -1t3.5 -0.5
h3h6q2 1 2 2v3q0 3 -2 6t-6 3l-0.5 -0.5l-0.5 -0.5q-2 0 -5 -2.5t-4 -3.5zM48 97q0 4 3 4t6.5 -4.5t7 -11.5t7 -15.5t7 -16.5t7 -14t6.5 -8q5 2 7.5 3.5t3.5 3.5t1 5v8h-4.5h-7t-6.5 1t-3 4v1l0.5 0.5l0.5 0.5q1 0 4.5 0.5t4.5 0.5q2 0 5.5 -0.5l3.5 -0.5q1 0 2 -0.5t3 -1
t3 -1l1 -0.5q1 0 2.5 0.5t2.5 1.5l1.5 2l3 4l3 4t1.5 3q2 3 5.5 3.5t6.5 2.5v5q0 4 -1 7t-1 7q0 2 0.5 4t2.5 2q3 0 4 -1.5t1 -3.5q0 -1 1 -3t1.5 -4.5t1 -4.5t1.5 -3l2.5 -1.5t3.5 -1.5v0h1t1.5 2t1 4.5t2 5t3.5 2.5q8 2 18 3t19 1h1q0 -1 1 -2l2 -2v-5v-6v-8q0 -6 -1 -11
t-3.5 -9.5t-6.5 -5.5q-3 0 -7.5 0.5t-9 0.5t-7.5 -2t-3 -7q0 -4 0.5 -8.5t3.5 -6.5l2 2l3.5 7t3.5 4.5t5 2.5t9 1q3 0 4 -1.5t1 -5.5h-9q-3 0 -4.5 -1t-2.5 -3.5t-1 -7.5h20v-8l-1.5 -0.5t-3.5 -0.5h-4h-3h-8q-4 0 -8.5 0.5t-8.5 3t-6 6.5v3.5t-0.5 5t-0.5 5.5v4
q0 2 -0.5 3.5t-2.5 1.5q-6 0 -6.5 -4.5t-0.5 -9.5t-0.5 -9t-5.5 -4q-2 0 -3 1t-1 3v3.5v3.5q0 8 1.5 12.5t4 6.5t5 3t5 1.5t4 2t1.5 4.5q0 5 -1 7t-3.5 3t-5.5 1.5t-6 1.5h-1h-1q-1 0 -2 -0.5t-1 -2.5q-5 -6 -9.5 -13t-9.5 -14.5t-10 -14t-10 -12.5q-1 -1 -3 -1.5t-3 -0.5
q-3 0 -3.5 0.5t-2.5 3.5q-1 1 -4.5 7t-7.5 14.5t-8.5 17.5t-8.5 17.5t-6.5 15t-2.5 7.5zM167 79l0.5 -1.5t1.5 -1.5q6 1 10.5 0.5t8.5 -3.5q-2 -4 -6 -4h-8t-7 -1.5t-3 -6.5v-1l1 -2.5t2 -2.5h18q1 0 2.5 1l3 2t2.5 2.5t1 2.5v21q0 2 -2 2.5t-4.5 1t-4.5 0.5h-3
q-2 0 -4 -0.5l-4 -1t-3.5 -2t-1.5 -5.5z" />
</svg>
