<?xml version="1.0" standalone="no"?>
<!DOCTYPE svg PUBLIC "-//W3C//DTD SVG 1.1//EN" "http://www.w3.org/Graphics/SVG/1.1/DTD/svg11.dtd" >
<svg xmlns="http://www.w3.org/2000/svg" xmlns:xlink="http://www.w3.org/1999/xlink" version="1.1" viewBox="-10 0 266 256">
   <path fill="currentColor"
d="M190 198h2.5t2.5 2v45q0 1 1 1.5t2 0.5v0h1q1 0 2.5 -2t2.5 -3v-4v-5.5v-6.5v-3q0 -4 0.5 -10.5t0.5 -12.5q0 -8 -0.5 -15t-2.5 -13t-5 -9.5t-9 -3.5h-22q0 -2 -0.5 -5.5t-0.5 -4.5t0.5 -1.5t1.5 -0.5q7 -1 14 -1.5t14 0.5q0 -1 0.5 -1.5l0.5 -0.5v-0.5v-0.5v-0.5v-0.5
q0 -1 -1.5 -2l-1.5 -1h-26q-2 0 -2.5 -1.5t-0.5 -3.5v-2q0 -1 0.5 -3l0.5 -2h22q2 0 2.5 -1.5t0.5 -3.5t-1 -2.5t-4 -0.5h-4h-6h-6h-4t-1 -1v-3v-2.5t0.5 -3t1.5 -2.5t2 -1h20q1 0 1.5 -2t1.5 -4.5t1.5 -4.5t0.5 -3q0 -4 -4 -5.5t-8.5 -2.5t-8.5 -2.5t-4 -4.5t3 -4.5t7 -2.5
t7 -2t3 -4q0 -2 -3.5 -3.5t-8 -2.5t-8 -2.5t-3.5 -4.5q0 -2 4 -3t9 -1.5t10 -1.5t7 -4v-3t0.5 -4.5t0.5 -5v-2.5v-1q0 -3 -1.5 -4.5t-3.5 -1.5q-4 0 -4.5 3.5t-1 8t-3.5 8t-12 3.5q-1 0 -2 -0.5l-1 -0.5v-22l-1 -1l-2.5 -2.5t-2.5 -2t-2 -0.5t-2 1.5t-1 3.5v4v3q0 3 0.5 6
t0.5 6q0 7 -7 7q-5 0 -6.5 -3t-2.5 -7t-2 -7.5t-5 -5.5q-3 3 -3 7q0 5 1.5 9t1.5 9q1 1 4 1t5.5 1t4.5 2t2 3q0 4 -2.5 6t-6 3.5t-6.5 3t-4 4.5q1 2 3 3t4.5 2t4.5 2t2 4v1q-3 3 -7 8t-7 9q-1 6 -1.5 12.5t-1.5 13.5t-1.5 14t-0.5 12q0 2 1 2.5t2 0.5q2 0 3 -1t3 -2.5
t5 -2.5t7 -1h4h3q2 1 2 2v2q0 5 -3.5 7.5t-8 3.5t-9 3t-6.5 7v5.5t-1 9t-1 9t-1 5.5q0 1 -0.5 3.5t-0.5 3.5v34q0 1 1 2t2 1l1 -0.5t2 -0.5l0.5 -0.5l1.5 -1.5v-4t0.5 -7t0.5 -7v-5v-4t0.5 -6.5t2 -6t4.5 -2.5h1l0.5 0.5l0.5 0.5q1 7 2 12t3.5 8.5t6.5 4.5t11 1q6 0 9.5 -2
t5.5 -5.5t2.5 -7l1 -7t1.5 -5.5t4 -2zM47 227q0 2 1 3t3 1q14 0 26 -1.5t26 -0.5q3 1 5.5 -1.5t2.5 -5.5h-27v-88l1 -0.5t1 -1.5l1.5 -0.5l1.5 -0.5h20q2 0 3.5 -1.5t1.5 -3.5v-0.5v-1.5q-6 -2 -12.5 -2h-12.5q-1 -1 -1.5 -2.5t-0.5 -3.5q0 -5 1 -7.5t3 -3.5t5.5 -1.5
t8.5 -0.5q0 -1 0.5 -2t0.5 -2v0q0 -2 -2 -2.5t-3 -0.5q-6 0 -11.5 0.5t-9.5 2.5l-1.5 1.5l-0.5 0.5v18l-5 3q0 1 -1.5 1.5l-1.5 0.5h-21q-2 0 -2 2.5v3.5v2.5t2 1.5h8q4 0 7.5 -1t7.5 -1q2 0 3 2t1.5 4t0.5 4v4v0v1q0 1 -0.5 3.5t-0.5 5.5t-0.5 5.5t-0.5 3.5v10.5v16.5v15.5
v10.5l-3 3q-5 0 -12.5 1t-12.5 2v3zM153 214q-1 -2 2 -3.5t6 -1.5h3h2.5t3.5 0.5t3.5 1t1.5 2.5q0 3 -3.5 5.5t-6.5 2.5t-7 -1.5t-5 -5.5zM53 159v50q0 2 2 2h2q2 0 3.5 -0.5t2.5 -4.5v-8t0.5 -12.5t0.5 -12.5v-8v-5q0 -3 -2 -5.5t-6 -2.5h-0.5h-0.5zM97 160v2v9t0.5 14
t0.5 13.5t1 9.5h0.5h1.5q3 0 4 -2.5t1 -5.5v-1.5v-2.5v-7.5t-0.5 -12t-0.5 -12v-7.5q-1 -2 -2 -3.5t-3 -1.5h-1q-1 1 -1.5 3.5t-0.5 3.5v1zM149 193l0.5 -1.5l0.5 -1.5l11 -15v0q2 0 4.5 2.5l5.5 5.5t5 6.5t2 5.5q0 1 -0.5 4.5t-2.5 3.5h-21q-2 0 -2.5 -1t-1 -2.5t-1 -3.5
t-0.5 -3zM134 188q0 -6 1 -10t3 -6t5 -3t8 -1q1 0 2.5 0.5t2.5 0.5q-1 3 -3 6.5t-4.5 6.5l-5 6t-4.5 5h-2q-4 0 -3 -5zM168 169v-2.5t2 -1.5h17q3 0 4.5 3t2 6.5l1 7t0.5 4.5q0 2 -1 3t-3 1q-3 0 -7 -2.5t-7.5 -5.5t-6 -6.5t-2.5 -6.5zM135 136q0 -3 1.5 -5t4 -3t5 -1.5
t4.5 -0.5h3t3 1v3v2q0 2 -0.5 5.5t-4.5 3.5h-12q-2 0 -3 -2t-1 -3zM147 108h6t3 4v2q0 1 -0.5 2t-0.5 2t-1 1h-19q0 -5 3.5 -8t8.5 -3zM142 98q0 -2 1 -4.5t2.5 -4.5t4 -4t4.5 -2v0v0q1 0 1.5 0.5t0.5 1.5v16h-13q-1 0 -1 -1v-2zM164 93l-0.5 -1.5t0 -3t0.5 -2.5t2 -1
q1 0 4 0.5t5.5 2t4.5 3.5t2 5v1.5t-1 1.5h-16l-0.5 -0.5l-0.5 -0.5v-5zM47 80q0 2 0.5 3t3 1.5t4 -1.5t3 -5t3 -5.5t4.5 -2.5h1l1 1.5t2 1.5t2.5 0.5t4 1t4.5 0.5h3h1v0q1 0 3.5 -1t3.5 -1h5h5t1.5 -1.5l0.5 -1.5v-1q0 -2 -1.5 -3t-4 -1h-5h-3.5q-5 0 -9 1t-9 1
q-1 0 -2.5 -0.5t-1.5 -2.5v-1q1 -1 2.5 -3.5l3 -5t3 -5.5t2.5 -3q1 -2 3 -5.5t5 -3.5q2 0 4.5 2.5t4.5 6.5t4.5 8.5t5 8.5t6 6.5t7.5 2.5q1 0 1.5 -1.5t0.5 -2.5q0 -2 -3.5 -7t-8 -11t-8.5 -10.5t-5 -5.5l-0.5 -1.5t-1.5 -3.5l-1.5 -3t-0.5 -2q-2 -3 -3 -3h-4h-2.5t-1.5 1.5
t-4 6.5t-6.5 11t-7.5 12.5t-7.5 12t-5.5 10t-2 5.5zM146 68q0 -1 2 -3l4 -4t4 -3t4 -1t5 2.5t3 5.5t-3 3q-1 0 -1.5 -0.5t-1 -1.5t-0.5 -2.5t-1 -1.5q-2 1 -3 3t-1.5 3.5t-1.5 3t-4 1.5q-1 0 -3 -1.5t-2 -3.5z" />
</svg>
