<?xml version="1.0" standalone="no"?>
<!DOCTYPE svg PUBLIC "-//W3C//DTD SVG 1.1//EN" "http://www.w3.org/Graphics/SVG/1.1/DTD/svg11.dtd" >
<svg xmlns="http://www.w3.org/2000/svg" xmlns:xlink="http://www.w3.org/1999/xlink" version="1.1" viewBox="-10 0 266 256">
   <path fill="currentColor"
d="M52 184l-0.5 5t0 12t0.5 15.5t1 15.5t2.5 12t3.5 5q4 0 4.5 -2.5t0.5 -4.5q0 -13 -0.5 -25t-0.5 -24q0 -15 1 -30t3 -30q1 -3 2.5 -9.5t4 -12.5t5.5 -11t7 -5t5.5 2t2 5t0.5 6.5t1 5.5q3 6 5.5 9.5t4.5 7t3 8t1 13.5v8v7t-0.5 8t-0.5 9h-4q-2 0 -4.5 -1t-4.5 -4v-4v-4
q0 -8 1 -14.5t1 -14.5q0 -2 -0.5 -5t-2.5 -4l-5 4v20.5t-1 20.5h-1.5h-0.5q-3 0 -3.5 -3t-1.5 -5v-3t-0.5 -4t-0.5 -3.5v-2.5v-17q-1 0 -2 -1t-1 -2h-1h-1q-1 1 -2 3t-1 4l0.5 2.5t0.5 3.5v11q0 1 0.5 3.5t0.5 6t0.5 6.5t0.5 4q3 3 6.5 5t8 3t8.5 1.5t8 1.5l3 2v3v4
q0 10 -1.5 19.5t-1.5 19.5q0 2 1.5 2.5t2.5 0.5q3 0 3.5 -1.5t1.5 -5.5q0 -1 0.5 -3t0.5 -4.5t0.5 -4.5t0.5 -3v-20q0 -10 -1 -19t-1 -18v-2l0.5 -2t0.5 -4.5t0.5 -4.5t0.5 -3t-0.5 -3.5t-1 -6l-1 -7t-0.5 -5.5l-0.5 -1t-1.5 -2q-2 -2 -4 -4.5l-4 -5t-3 -5t-1 -6.5v-2v-3
q1 -2 5 -1.5t8 0.5t7 -1t3 -4v-2t-1 -1h-22v-20q0 -4 3 -7t7 -5.5t7.5 -5.5t4.5 -5q0 -1 -0.5 -2t-1.5 -1q0 -1 -0.5 -1.5l-0.5 -0.5h-1q-3 0 -5.5 1.5t-5.5 3.5t-5 4.5t-3 4.5h-2q-2 0 -5.5 -2t-7 -5t-5.5 -6t-2 -6t5 -4.5t11.5 -3t12.5 -3.5t8 -6l-0.5 -1.5t-1.5 -1.5h-2
h-2q-4 0 -11 2t-15 4.5t-14.5 6t-8.5 6.5t-2.5 7t-0.5 7q0 5 1 8.5l2 7t2.5 7t2.5 7.5q1 2 1.5 5l0.5 3l-2 2h-3h-5h-4h-3q-2 0 -3.5 1.5t-1.5 3.5q0 4 3 4q5 0 9 -0.5t9 -0.5q2 0 4 0.5t2 2.5q0 1 -0.5 1h-0.5q0 1 -1 2.5t-2 4t-1.5 4t-1.5 2.5q0 1 -1 2.5t-1.5 3l-1 3
t-1.5 1.5q-2 7 -3.5 14.5t-2.5 15.5t-1 16v15zM125 236q0 2 0.5 3t3.5 1q2 0 4 -1t2 -4v-53q1 -1 3 -3.5l4 -5t3.5 -4.5t2.5 -2h2l12 11l2 4v2v4.5v4.5v4q0 8 -1 16t-1 16q0 3 1 5t4 2q1 0 2 -1t2 -3t1.5 -4t0.5 -3v-32q-1 -1 -1.5 -3.5l-0.5 -2.5q0 -3 1.5 -7t3.5 -7
t5 -5.5t6 -2.5q4 0 6.5 3t4 7.5t2 9.5t1 9.5t0.5 7.5t1 3q-2 1 -1.5 3.5l0.5 2.5v5v2t0.5 2.5t0.5 3v1.5v2t-0.5 3t-0.5 3v2v1v0q0 1 1 2t2 1h1q2 0 3.5 -1t2 -3t0.5 -4.5v-3.5q0 -10 -1 -19.5t-2 -19.5q0 -20 -1 -40t-1 -40q-1 -6 -0.5 -10t-1.5 -10q-2 -5 -7 -6.5t-11 -2
t-10.5 -1t-4.5 -3.5v-32q0 -3 1 -3h3q4 0 5.5 4t3.5 9t5.5 9t12.5 4q4 0 6 -0.5t2 -4.5t-3.5 -5t-7.5 -1t-7.5 -1.5t-3.5 -7.5v-2v-1l3 -1h17q1 0 1.5 -1.5t0.5 -2.5v0v-1q0 -3 -5 -4t-11.5 -1.5t-12.5 -0.5t-8 -4l-0.5 -2t-1 -4.5t-1 -4.5l-0.5 -2q-1 -2 -2 -3.5t-3 -1.5
q-1 0 -3 1.5t-2 3.5v17h-8t-10 1t-9 2.5t-7 5.5l3 3h11q2 0 2 1.5v2.5q0 3 -2 5.5t-4.5 4.5t-5.5 3.5l-5 2.5v5q7 0 11 -2t6.5 -5t3.5 -7t2 -7t3.5 -5t6.5 -2q3 0 3.5 0.5t0.5 4.5v32q0 1 -1.5 2t-3.5 1h-3.5h-2.5q-6 2 -10 5.5t-5.5 8t-2.5 10t-2 12.5q0 1 -0.5 3t-0.5 5
t-0.5 5.5t-0.5 3.5v6v12v11v6q0 17 -2 34t-2 34zM156 158q0 -3 0.5 -4t2.5 -1t3.5 1.5t1.5 3.5q0 1 -0.5 2.5t-1.5 1.5q2 1 2 2.5v2.5q-4 0 -6 -3t-2 -6zM135 155q2 0 4.5 0.5t2.5 3.5q0 2 -1 3.5t-4 2.5q-2 -2 -2 -5v-5zM171 162v-2v-3q0 -2 0.5 -4t2.5 -3q2 1 3.5 2.5
t1.5 4.5q0 2 -1 4.5t-4 2.5l-1 -1t-2 -1zM191 157q0 -2 1.5 -4t3.5 -2q3 0 3 1.5v3.5q0 3 -0.5 4t-3.5 1q-4 0 -4 -4zM138 139v-0.5v-1.5l8 -7l0.5 -0.5t1.5 -0.5q2 0 4 1t4.5 2.5t4 3.5t1.5 4q0 1 -2 3t-4.5 4t-5 3t-3.5 1t-2.5 -1t-3 -3.5t-2.5 -4t-1 -3.5zM173 138
q0 -4 4 -6.5t7 -2.5q2 0 4 1t4 3t3 4t1 4t-1 3t-3 2t-4 1.5t-3 0.5q-3 0 -7.5 -3t-4.5 -7zM153 120q0 -2 2 -5t4 -3q4 0 5 3t1 6t-0.5 4.5t-3.5 1.5t-5.5 -2t-2.5 -5zM172 116h1q2 1 3.5 2t1.5 4q0 1 -1 2t-2.5 1h-3.5h-2v-1.5v-3.5t0.5 -3t2.5 -1zM191 119q0 -1 1 -1.5
l1 -0.5h1q2 0 3 1.5t1 3.5q0 1 -0.5 2t-2.5 1q-1 0 -1.5 -0.5t-0.5 -1.5l-1 -2zM136 112q4 0 6.5 2.5t2.5 6.5q0 1 -1 1.5t-2 0.5q-2 0 -3.5 -1t-2 -2.5t-0.5 -3.5v-4zM173 99q0 -5 2 -8t6 -3q3 0 5.5 0.5t4.5 1.5t3.5 2.5t1.5 4.5q0 6 -3 10t-8 4q-6 0 -9 -3.5t-3 -8.5z
M143 98q0 -3 2.5 -5t5.5 -3t6.5 -1.5t6.5 -0.5q1 0 1 1v2q0 3 -1 6.5t-3.5 6.5t-5.5 4.5t-7 0.5q-1 0 -2 -1t-2 -3t-1 -3.5v-3.5zM67 52v-3v-3l0.5 -0.5t1.5 -0.5l1 -1v0.5v0.5q1 0 2 0.5l1 0.5q4 3 7 5.5t5.5 5t4.5 5.5t4 7v1v1q0 1 -0.5 3t-0.5 4.5t-0.5 4.5t-0.5 3
t-2 1.5l-2 0.5h-2q-4 0 -7 -0.5t-4 -4.5q-1 -2 -2 -6t-2.5 -8t-2.5 -7t-1 -4v-2v-4z" />
</svg>
