<?xml version="1.0" standalone="no"?>
<!DOCTYPE svg PUBLIC "-//W3C//DTD SVG 1.1//EN" "http://www.w3.org/Graphics/SVG/1.1/DTD/svg11.dtd" >
<svg xmlns="http://www.w3.org/2000/svg" xmlns:xlink="http://www.w3.org/1999/xlink" version="1.1" viewBox="-10 0 266 256">
   <path fill="currentColor"
d="M49 249q1 2 3 2q3 0 5.5 -2t2.5 -5v-3q0 -1 -0.5 -3.5l-0.5 -2.5q0 -1 0.5 -3.5t0.5 -3.5v-4q0 -6 -0.5 -11t-0.5 -10q0 -10 0.5 -19.5t0.5 -18.5v-13q-1 -2 -1 -3.5v-4.5q0 -1 -0.5 -4t-0.5 -8t0.5 -10.5t0.5 -10t1 -8t2 -4.5q4 -2 9.5 -3.5l11 -3t11 -2.5t9.5 -2
q2 -1 4.5 -3t3.5 -5q1 -7 2 -14.5t1 -16v-16.5v-15q0 -2 -0.5 -4.5t-3.5 -2.5t-4.5 1t-2 3t-1 4.5t-1.5 4.5q0 3 -4 4.5t-9.5 2.5t-11.5 2t-11 2.5t-9 4.5t-4 8v8v12v12v8q0 1 -0.5 4.5t-0.5 4.5q0 3 -0.5 9t-0.5 13v15t-0.5 15.5t-0.5 13v8.5v39v39zM198 248q0 1 1.5 1h2.5
q2 0 4 -1t2 -4l-1 -38v-6l-1 -50q-1 -2 -1 -12t-0.5 -23.5t-0.5 -28t-1 -27t-3 -20.5t-5 -8h-43l0.5 -3t0.5 -6.5t-1 -6t-4 -2.5h-1h-1q-1 1 -2.5 4.5t-2.5 5.5v0.5v0.5v1v1l0.5 2t1 3.5l1 3t0.5 2.5v6v9v9v5q0 3 0.5 8t2 9t4.5 7t9 3h30q4 0 4.5 3t1.5 5v10t-0.5 15
t-0.5 15.5v10.5v1v2v11t0.5 16t1 19t0.5 19.5t0.5 16.5t0.5 11zM149 244q0 3 1 3.5t2 0.5q3 0 3.5 -2.5t1.5 -4.5v-5v-8v-8v-5v-7v-8.5v-7.5v-3q0 -3 -0.5 -9t-1.5 -12.5t-1.5 -12.5t-1.5 -8q0 -2 -2 -4t-4 -2h-35q-5 0 -7.5 3t-4 6.5t-2 8t-0.5 7.5v11v16v16.5v10.5
q-1 2 -1.5 5.5t-0.5 4.5v3t0.5 4t1 4.5l0.5 2.5l1 0.5l1 0.5q5 0 5 -7v-75q0 -3 1.5 -6.5t3.5 -6.5q4 0 6.5 -0.5t5 -0.5h5.5h6h4.5h4.5q4 2 5 6q1 23 2.5 45t0.5 44zM71 123q0 3 1.5 3.5t3.5 0.5q1 0 2 -0.5l1 -0.5q1 0 4 -1l6 -2l6 -2l3 -1q9 -2 18.5 -3.5t18.5 -1.5
q12 0 23.5 2t24.5 2q0 -5 -3 -7t-7 -3t-8.5 -1t-7.5 -1h-4.5t-7 -0.5t-6.5 -0.5h-4q-3 -1 -3.5 -3.5l-1 -5t-1.5 -4.5t-4 -2h-2.5t-1.5 2v13l-2 1q-1 0 -3.5 0.5l-5 1t-4.5 1t-3 0.5q-1 1 -6.5 2t-11 2.5t-10 4t-4.5 4.5zM101 61q1 0 1.5 1.5t0.5 3.5q0 8 -4 13t-10 7
t-13.5 2.5t-14.5 0.5v-10q0 -3 1 -5.5t4 -3.5t8 -3q1 0 4 -0.5t6.5 -1.5t6.5 -1.5t4 -0.5t2.5 -1t2.5 -1h1zM152 80v-11q0 -1 1.5 -2t3 -1.5l3 -1t2.5 -0.5h14h14q2 1 2.5 3.5t0.5 4.5q0 6 -1.5 8t-4 2.5t-5 0.5t-5.5 2zM63 55q0 -5 4 -8.5t9 -5.5t11 -3t9 -1q4 0 5.5 3
t1.5 6q0 5 -4 7.5t-9.5 4t-11 1.5h-8.5h-2h-3q-1 -1 -1.5 -2t-0.5 -2zM151 52q0 -1 0.5 -4t0.5 -5l0.5 -0.5t1.5 -0.5t5 -0.5t8.5 -0.5t8 -0.5t4.5 -0.5h5q3 0 5.5 2t2.5 5q0 4 -2 6.5t-5 2.5h-32l-0.5 -0.5t-1.5 -0.5q0 -1 -0.5 -2z" />
</svg>
