<?xml version="1.0" standalone="no"?>
<!DOCTYPE svg PUBLIC "-//W3C//DTD SVG 1.1//EN" "http://www.w3.org/Graphics/SVG/1.1/DTD/svg11.dtd" >
<svg xmlns="http://www.w3.org/2000/svg" xmlns:xlink="http://www.w3.org/1999/xlink" version="1.1" viewBox="-10 0 266 256">
   <path fill="currentColor"
d="M140 242q0 3 0.5 6t4.5 3q2 0 3.5 -1t2.5 -2v-9.5v-13.5v-13.5v-8.5v-3.5t0.5 -5t0.5 -5t1 -2.5q0 -1 1 -2l2 -2v0q3 0 5 2.5t3.5 5t4 5t5.5 2.5t3.5 -1t0.5 -4v-1v-2q-1 -1 -2.5 -3t-3.5 -4.5t-4 -4.5l-3 -3t-3.5 -3t-2.5 -5v-1q1 -3 3 -5.5t4.5 -5t4.5 -5t2 -5.5t-1 -3
h-3q-3 0 -5 2t-4 4.5t-3.5 4.5t-3.5 2h-1.5h-0.5q-1 -2 -3 -5t-3.5 -5.5t-2.5 -5.5t-1 -6v-1.5v-2.5h9t11.5 -0.5t10.5 -1.5t5 -5q0 -1 -1 -2t-3 -1h-9h-10l-2 0.5t-4 0.5t-4 0.5t-3 0.5q-2 0 -3.5 -2t-1.5 -4q0 -5 3.5 -5t7.5 -0.5t7.5 -4.5t4.5 -16h9h8q4 0 6.5 1t4.5 3.5
t2 6.5q0 1 0.5 5.5t0.5 9t0.5 9.5t0.5 7v17v9.5t0.5 15.5t0.5 15.5v9.5q0 3 0.5 9.5t0.5 14.5t-0.5 14.5t-0.5 9.5l3 3t4 2t3 -1.5t2 -3.5v-17q0 -17 -1 -35t-1.5 -35.5t-1 -35.5t-0.5 -36l-0.5 -2.5t-0.5 -3.5t-0.5 -6t-0.5 -11t-0.5 -10.5t-0.5 -6.5q0 -6 -4 -10t-9.5 -6
t-11.5 -3t-11.5 -1t-9 -0.5t-3.5 -1.5v-13q0 -1 -2 -1h-2q-8 0 -8 8q0 1 0.5 4t1.5 3v45q0 4 2 5.5l4 3t3.5 3t1.5 4.5q0 4 -0.5 7t-2.5 6h-4q-4 0 -6 -1.5t-3.5 -3.5l-3 -4t-4.5 -2q-2 0 -2.5 1.5t-0.5 4.5v1.5v2.5l0.5 1.5l1 3l1 3l0.5 1.5v3v3.5t-0.5 4t-0.5 2.5h-4h-9.5
h-12t-12 1t-9 2t-3.5 3v1l0.5 1t1.5 2h7q11 0 21.5 -1t21.5 -1h2.5h3.5q0 1 1.5 4.5t3 7.5t3 7.5t1.5 4.5q1 0 1.5 2t2 4.5t2 4t1.5 2.5v4q0 7 -3 14.5t-4 15.5v4.5t-0.5 10.5t-0.5 12v9v6zM108 12q-2 0 -2.5 2t-1 4.5l-1 5t-2.5 2.5q-6 2 -14 3t-16 3.5t-13.5 7.5t-5.5 14
v194l0.5 0.5l0.5 0.5h2.5h2.5h2h1l2 -5v-145q0 -1 0.5 -2l0.5 -1l2 -2q5 -2 11 -3.5t11.5 -3t11 -4.5t9.5 -7q2 -2 3.5 -5t2 -6.5l1 -7t0.5 -5.5v-1q0 -2 -0.5 -7t-1 -11t-0.5 -10.5v-7.5q-2 -3 -6 -3zM75 204q0 3 1.5 4t4.5 1h1h2q2 0 9 -0.5t14.5 -0.5t14.5 -0.5t10 -0.5
q1 -1 1 -4v-2t-1 -1h-55q-1 0 -1.5 2zM80 164q0 11 4.5 17t16.5 6q6 0 11.5 -1t9.5 -3.5t7 -7t3 -11.5q0 -4 -2.5 -8t-6.5 -6.5t-8.5 -4.5t-8.5 -2q-6 0 -10.5 1t-8 3.5t-5.5 6.5t-2 10zM90 169q0 -8 3.5 -13t11.5 -5q6 0 11 3.5t5 9.5q0 9 -6.5 12t-14.5 3h-3h-2l-5 -5v-2
v-3zM63 75q0 -4 4.5 -7.5t11 -6t13 -3.5t8.5 -1q3 0 3 2v4q0 4 -4 8t-10 7t-12.5 4.5t-10.5 1.5h-2q0 -1 -0.5 -4t-0.5 -4v-1zM153 76q-3 -2 -4.5 -4.5t-1.5 -5.5q0 -4 1.5 -6.5t6.5 -2.5q3 0 9 0.5t11.5 2t9.5 4.5t4 8t-1.5 6t-5.5 1q-7 0 -15 -1t-14 -2zM64 53v-1
q3 -4 7 -7t8.5 -5t10 -3t9.5 -1q3 0 3.5 2t0.5 4t-1 4t-4 3q-2 1 -6 1.5t-8.5 1.5t-8.5 2t-6 1h-2q-1 0 -2 -0.5t-1 -1.5zM153 49q-3 -1 -4.5 -2.5t-1.5 -3.5q0 -7 6 -7l5.5 0.5t11.5 1.5t11 3t5 5q0 2 -1.5 4t-3.5 2h-2q-1 0 -5 -0.5l-8 -1l-8 -1t-5 -0.5z" />
</svg>
