<?xml version="1.0" standalone="no"?>
<!DOCTYPE svg PUBLIC "-//W3C//DTD SVG 1.1//EN" "http://www.w3.org/Graphics/SVG/1.1/DTD/svg11.dtd" >
<svg xmlns="http://www.w3.org/2000/svg" xmlns:xlink="http://www.w3.org/1999/xlink" version="1.1" viewBox="-10 0 266 256">
   <path fill="currentColor"
d="M46 243q0 3 1 5.5t4 2.5q2 0 4 -1.5t3 -3.5l2 -4t1 -3t0.5 -3.5t0.5 -5.5t0.5 -5.5t0.5 -4.5v-38v-7t0.5 -10.5t1 -10.5t0.5 -6v-44v-2.5t0.5 -3.5t0.5 -3.5v-2.5q10 -4 17.5 -5.5t13 -2t10 -2t7 -5.5t4 -11.5t2.5 -20.5q0 -6 1 -12t1 -11q0 -4 -1.5 -7t-5.5 -3
q-1 0 -1.5 0.5l-0.5 0.5l-1 1l-2 2l-2 2l-1 1q-7 3 -14 3.5t-13 1t-11.5 3t-10.5 9.5q-3 15 -4 30.5t-1.5 30.5t-0.5 31q0 15 -1 30q0 7 0.5 16.5t0.5 19t-0.5 19t-1.5 17.5q0 1 -0.5 2t-1 2.5t-1.5 3l-1 1.5v1.5v2.5zM200 236v1.5t0.5 3.5l1 4t2.5 2h1h1l2 -2t2 -3v-14
q0 -46 -0.5 -92.5t-2.5 -92.5q0 -6 -2.5 -9.5t-6 -6t-8.5 -3.5t-10 -1h-18q-2 -1 -3.5 -2t-2.5 -3t-2.5 -3t-3.5 -1h-3t-2 2v15v7.5v10.5t0.5 12t2 11.5t4 9t6.5 3.5l39 4q-1 4 -0.5 10t2.5 10q-1 32 0.5 63.5t0.5 63.5zM78 237q1 0 4.5 0.5t6.5 0.5t6.5 0.5t4.5 0.5h4
q10 0 19.5 -0.5l19 -1t19 -0.5h20.5q1 -1 1.5 -2t0.5 -3t-2 -3.5t-3 -1.5h-27q0 -1 -0.5 -3.5t-0.5 -5.5t-0.5 -5.5t-0.5 -4.5q0 -4 1.5 -7t3.5 -6.5t3.5 -7t1.5 -7.5t-1.5 -7t-4.5 -5.5t-6.5 -3.5t-6.5 -1h-12.5t-12 2t-9.5 6t-4 11q0 6 2 9t4 5t4 3t2 3v22l-3 5h-32
q-2 0 -2 2v3v1.5v1.5zM134 203q3 0 4.5 2t2 4t0.5 5v5t-0.5 4l-0.5 2l-2 2h-13v-19q0 -3 3 -4t6 -1zM115 182q0 -8 4 -9.5t11 -1.5q3 0 7 0.5t6.5 1.5t4.5 3t2 6v3.5t-1 3.5t-2.5 3t-3.5 1h-23q-1 0 -2 -1t-2 -3t-1 -4v-3zM77 146q0 2 1 3t3 1.5t4 0.5h3q12 0 23.5 -1.5
t23.5 -1.5h3h4h4h2q3 2 5.5 1.5t5.5 -0.5h10.5t10.5 -1l2 -2l2 -2v0v0q0 -4 -4 -5t-6 -1q-6 0 -10.5 0.5t-10.5 0.5h-2h-3h-4h-2q-1 0 -1.5 -1t-0.5 -2v-1v-1q2 -1 5.5 -3t7 -5t6.5 -5.5t3 -4.5q0 -3 -1.5 -3.5t-3.5 -0.5h-2h-2q-2 2 -5 5.5t-6 6.5t-6.5 5t-6.5 2
q-4 0 -5.5 -0.5t-1.5 -5.5v-2.5t0.5 -1t1.5 -1l3 -1.5q1 -1 4 -3.5t6.5 -5t6.5 -5t4 -3.5q1 0 1.5 -1.5l0.5 -1.5v-1q0 -2 -0.5 -3t-2.5 -1q-5 0 -9 3t-7.5 7t-7 7t-8.5 3q-3 0 -3.5 -2t-0.5 -5q0 -5 3.5 -8t7 -5t6.5 -5t3 -8q-4 0 -9.5 2.5t-10.5 7t-8 9t-3 8.5q0 5 2.5 9
t5.5 7.5l6 7t3 6.5q0 1 -0.5 1h-0.5q-8 1 -17.5 1.5t-18.5 0.5q-1 1 -2 2.5t-1 2.5zM157 62q0 -6 5 -6h3q6 1 12 0.5t10 0.5t7 4t3 10v3v3.5t-1 3t-3 1.5q-5 0 -11.5 -0.5t-12 -2t-9 -5.5t-3.5 -12zM66 70q0 -6 6 -10q4 -1 8 -2.5t8 -2.5t8.5 -2t8.5 -1q2 0 3.5 1.5t1.5 2.5
q0 7 -3 11.5t-8 7t-10.5 3.5t-10.5 1h-8q-2 -2 -3 -4.5t-1 -4.5zM160 46q-3 -1 -4 -2t-1 -4q0 -9 8 -9h8t10.5 1t10 3t4.5 7q0 3 -1.5 5.5t-5.5 2.5h-2q-2 0 -5.5 -0.5t-8 -1.5t-8 -1t-5.5 -1zM70 43q0 -5 3.5 -7.5t9 -4t10.5 -2t8 -0.5q4 0 5.5 2t1.5 6t-3.5 6.5t-9 3.5
t-10.5 1h-9q-2 0 -4 -1t-2 -4z" />
</svg>
