<?xml version="1.0" standalone="no"?>
<!DOCTYPE svg PUBLIC "-//W3C//DTD SVG 1.1//EN" "http://www.w3.org/Graphics/SVG/1.1/DTD/svg11.dtd" >
<svg xmlns="http://www.w3.org/2000/svg" xmlns:xlink="http://www.w3.org/1999/xlink" version="1.1" viewBox="-10 0 266 256">
   <path fill="currentColor"
d="M196 246l1.5 1.5t2.5 1.5q2 1 3.5 -2t2 -7.5t0.5 -8.5v-5q0 -17 -1 -34l-2 -34q-1 -30 -1.5 -60t-1.5 -60q-1 -3 -1 -6t-3 -4q-1 -1 -2.5 -2l-3 -2t-3 -1.5l-1.5 -0.5h-33l-0.5 -1l-0.5 -1q-1 -3 -1.5 -4l-1 -2t-1 -1h-2.5t-3 0.5t-1 3.5v3q0 1 0.5 5t1 8.5l1 9t0.5 5.5
q1 12 0.5 18.5t1 9.5t6.5 4t17 3l2 0.5t3 1.5h13l3 3l0.5 2t1 4.5t0.5 5v4.5q1 32 1.5 63t1.5 62v3.5v4.5v5.5v3.5zM51 241q1 2 2 2.5t3 0.5q7 0 7 -7v-141q0 -4 5.5 -6.5t12.5 -4.5t13.5 -3.5t9.5 -2.5l3 -2.5t3 -3.5q4 -5 5 -11t1.5 -12.5t0 -13t0.5 -12.5v-4
q0 -4 -1 -6.5t-6 -2.5q-2 0 -3.5 1t-2 2.5t-1.5 3.5t-2 3q-10 1 -20 3.5l-18 4.5q-4 2 -5.5 6t-2.5 8q-3 45 -2.5 90.5t-1.5 90.5v8v9zM81 238q0 2 1 3t3 1.5t3.5 0.5h3.5h9q2 0 8 -0.5t13.5 -1t15.5 -1t15.5 -0.5t13 -0.5t8.5 -0.5q1 0 3 -1.5t2 -3.5q0 -1 -0.5 -2t-1.5 -1
h-40l-0.5 -1.5t-0.5 -2.5v-2v-2v-4t1 -5q15 1 29 -1q0 -1 0.5 -2t0.5 -2v-1q0 -4 -3 -4q-6 0 -12 1.5t-11 1.5q-3 0 -5 -1t-2 -4q0 -4 1.5 -6t4 -3.5t5 -2.5t4.5 -3q2 -5 2 -11v-12v-5.5v-4.5l-4 -3q-3 3 -4.5 6t-5.5 5q-1 0 -4 0.5l-3 0.5q-10 0 -13 -2t-4 -4t-0.5 -4
t-3.5 -2q-1 0 -2 0.5t-1 2.5v25q0 4 3 6t6.5 3.5t6 3t2.5 2.5v13h-29q-1 0 -2.5 3l-1.5 3v0v1l1.5 1.5l0.5 0.5h31q1 0 1.5 4t0.5 6v0.5v1.5t-2 2t-4.5 1.5t-4.5 0.5h-2q-2 1 -6 1t-9 0.5t-9 0.5h-6q-3 0 -3 1.5v2.5zM83 153q-2 10 -2 20v20q5 0 7 -3t2.5 -8t0.5 -11
t1 -11.5t3.5 -10t8.5 -6.5q5 -1 9 -1.5t7.5 -0.5h7h8.5h7t10 0.5t9 2.5t5 5l6 37l1 1.5l1 1.5h1v0q1 0 2 -1.5t2 -1.5v-4v-4q0 -12 -1.5 -20t-5.5 -13t-11 -8t-19 -5q0 1 -1 1.5t-2 0.5h-1h-1l-1.5 -1.5l-1.5 -1.5v-35q0 -2 -1.5 -3.5t-2.5 -1.5q-4 0 -6.5 2.5t-2.5 5.5
q0 1 0.5 3t1 4.5l1 5l0.5 2.5q1 5 -0.5 10.5t-3.5 9.5q-6 1 -11.5 2t-11 2.5t-9.5 5t-6 9.5zM117 176q0 -3 1.5 -5t4.5 -2h2q1 0 3.5 0.5t5 0.5t5 0.5t3.5 0.5v1.5v1.5q0 6 -4 9t-9 3t-8.5 -2.5t-3.5 -7.5zM76 129q0 1 2 2t3 1q6 0 11 -2.5t8.5 -7t5.5 -10t2 -11.5
q0 -2 -1 -4.5t-5 -2.5q-1 0 -1.5 1l-1.5 3l-0.5 2.5t-0.5 5.5v5v3q-1 1 -5 3l-8 4t-7 4.5t-2 3.5zM150 103q0 5 1.5 9.5t3.5 8t6 6t10 2.5h1q1 0 3.5 -1t2.5 -3v-0.5v-0.5l-0.5 -0.5l-1 -1t-2.5 -1.5t-4.5 -2.5t-5 -2.5t-2.5 -2q-3 -1 -3.5 -4t-1 -6.5t-1 -5.5t-2.5 -2
q-3 0 -3.5 2.5t-0.5 4.5zM64 75q0 -7 4.5 -11t11 -6t13.5 -2.5t12 -0.5v9l-9 10q-1 1 -3 1.5t-5.5 1t-6.5 1.5t-5 1h-2h-3h-5t-2 -4zM153 63q0 -2 0.5 -4t3.5 -3h7h6h5.5t5.5 0.5t7 1.5q3 2 3 5v6v2.5v2.5q-1 2 -3 2h-4h-10.5t-10 -0.5t-7.5 -3.5t-3 -9zM102 31q3 0 3.5 2.5
t0.5 4.5q0 6 -4.5 8.5t-11 3.5t-12.5 1h-10q0 -7 3 -11t8 -6t11 -2.5t12 -0.5zM152 42q0 -4 1 -7.5t6 -3.5h5.5t10.5 0.5t10.5 2.5t4.5 6l-0.5 1.5l-1 3t-1.5 2.5t-2 1h-32l-0.5 -1t-0.5 -2v-2v-1z" />
</svg>
