<?xml version="1.0" standalone="no"?>
<!DOCTYPE svg PUBLIC "-//W3C//DTD SVG 1.1//EN" "http://www.w3.org/Graphics/SVG/1.1/DTD/svg11.dtd" >
<svg xmlns="http://www.w3.org/2000/svg" xmlns:xlink="http://www.w3.org/1999/xlink" version="1.1" viewBox="-10 0 266 256">
   <path fill="currentColor"
d="M202 249q1 0 2.5 0.5t1.5 1.5h1q2 0 3.5 -3.5t1.5 -4.5v-17q0 -16 -1 -32t-2 -33q-1 -28 -1.5 -56.5t0.5 -57.5q-1 -6 -1.5 -10.5t-2.5 -8t-6 -5t-10 -2.5h-7t-10.5 -0.5t-10 -0.5h-6.5q-3 -2 -4 -4.5t-4 -2.5q-6 0 -6 6q0 12 1 24t1 24q0 1 1.5 4.5t3 6.5t4 5.5t4.5 2.5
h38q2 0 3 2t2 3q2 40 4 79.5t0 78.5zM47 244q1 2 2 3.5t3 1.5q3 0 4 -1t1.5 -3l1 -4t0.5 -3v-121l1 -24q1 -4 7 -5.5t14 -3t16.5 -4t13.5 -8.5q2 -3 3.5 -10t2.5 -15t1 -15.5v-12.5q0 -3 -1.5 -4.5t-4.5 -1.5t-5.5 2.5t-3.5 4.5h-4.5t-7.5 0.5t-7.5 0.5h-4.5q-5 1 -9.5 2
t-8.5 3.5t-7 6t-3 8.5v5v9v10v5t-0.5 3.5t-0.5 5.5t-0.5 5.5t-0.5 3.5v133q-2 3 -2 7v7v4.5v4.5zM123 215v29q0 2 0.5 2.5t2.5 0.5q3 0 4.5 -3.5t1.5 -5.5q0 -1 0.5 -3.5t0.5 -6.5q0 -2 -0.5 -4.5t-0.5 -3.5q0 -3 3.5 -4.5t9 -1.5h11.5t11.5 -0.5t9 -1.5t3.5 -5
q0 -2 -1 -3.5t-4 -0.5q-2 0 -7.5 0.5t-11.5 1t-11.5 0.5h-7.5h-2q-2 0 -3 -1.5t-1 -3.5q0 -3 2.5 -4.5t6.5 -2t9 -1.5t9.5 -2t7 -4t2.5 -8v-27q0 -3 -4 -5.5t-9 -3.5t-9.5 -1.5t-5.5 -0.5h-3h-6.5t-9.5 0.5t-10 0.5t-7 1q-11 3 -16 8.5t-5 17.5q0 9 3 13.5t7.5 7t9.5 3.5
t9.5 1.5t7.5 1.5t3 5v3q0 2 -2 2h-42q-2 0 -4 1.5t-2 3.5t1 3.5t3 1.5h46zM96 178q0 -3 3 -4.5t7 -2t8 -0.5h5v0q1 0 2.5 0.5l1.5 0.5v12l-2 2h-2h-3q-2 0 -5 -0.5t-6.5 -1t-6 -2t-2.5 -4.5zM132 184v-4q0 -3 1.5 -5t4 -2.5t5.5 -0.5h5h7l1.5 3t0.5 3t-1.5 3.5t-3.5 2.5
t-5 1.5t-5 0.5t-4.5 -0.5t-5.5 -1.5zM98 163q-1 -1 -1.5 -2t-0.5 -2q0 -3 2 -5t5 -3t6 -1h5q3 0 5 1t3 3t1 5v6q-7 0 -13 -0.5t-12 -1.5zM134 158q0 -5 2 -7.5t7 -2.5q3 0 6.5 1.5t6 3.5t4 5t1.5 6h-25q-1 0 -1.5 -0.5l-0.5 -0.5v-2v-3zM137 120q4 5 9.5 8.5t12.5 3.5
q4 0 7 -2t5 -5.5t3 -7t1 -7.5v-3l-0.5 -2t-0.5 -4t-0.5 -4l-0.5 -2q0 -1 -1 -1h-1q-3 0 -3.5 1.5t-1.5 3t-3 3t-7 1.5q-3 0 -5.5 -1.5t-4.5 -3t-3.5 -3t-2.5 -1.5q-2 0 -3 1.5t-1 3.5v2v4t0.5 6t0.5 5.5v3.5zM80 117q4 7 9.5 9.5t13.5 2.5h4h4q4 -3 6 -5.5t3 -5.5t1.5 -7
t1.5 -9q0 -2 -1 -5t-4 -3t-4.5 1.5l-3 3t-3.5 3t-6 1.5q-5 0 -7.5 -1.5t-3.5 -3.5t-2 -3.5t-3 -1.5t-3.5 2t-1.5 4.5v5v3.5v4.5v4.5zM145 117q0 -3 1.5 -4.5t3.5 -1.5h1h1h2t2.5 0.5t3 0.5h2.5v4q0 6 -8 6q-2 0 -5.5 -1t-3.5 -4zM93 116v-2.5t2 -1.5h15q0 6 -3 7.5t-8 1.5
q-2 0 -4 -1.5t-2 -3.5zM150 61v-3q0 -2 2 -3h12h8t7.5 0.5t7.5 0.5t9 1q1 3 1.5 5t0.5 5v4t-0.5 3.5t-1.5 2.5t-3 1h-5q-5 0 -12 -0.5t-12.5 -1.5t-9.5 -4.5t-4 -10.5zM62 72v-5t2 -5q8 -3 15.5 -5t15.5 -2h6q2 1 2 1.5v1.5q0 7 -3.5 11t-9 5.5t-11.5 2t-11 0.5q-4 0 -5 -1
t-1 -4zM94 29h5q3 0 4 1l1.5 3t1.5 4v2q0 3 -2 4.5t-4 2.5q-8 1 -17.5 1h-17.5q0 -5 2.5 -8.5t7 -5.5t9.5 -3t10 -1zM149 38q0 -2 1.5 -5t4.5 -3q1 0 5 -0.5t5 -0.5h9t10 1t8.5 3t3.5 8t-6 6h-8.5t-13.5 -0.5t-13 -2t-6 -6.5z" />
</svg>
