<?xml version="1.0" standalone="no"?>
<!DOCTYPE svg PUBLIC "-//W3C//DTD SVG 1.1//EN" "http://www.w3.org/Graphics/SVG/1.1/DTD/svg11.dtd" >
<svg xmlns="http://www.w3.org/2000/svg" xmlns:xlink="http://www.w3.org/1999/xlink" version="1.1" viewBox="-10 0 266 256">
   <path fill="currentColor"
d="M117 98v153q12 0 12 -12v-4q0 -2 -1 -7.5t-1.5 -11.5t-1 -11.5t-0.5 -7.5v-111q2 -12 3 -23l2 -22q11 -6 23 -9.5t24 -4.5q6 -1 11.5 -0.5t11.5 -1.5l1.5 -1.5l1.5 -1.5v-1v-1q0 -1 -0.5 -2t-0.5 -2h-3h-4h-4h-3h-3h-4h-4h-2q-2 0 -6.5 1t-9.5 2.5t-9.5 2.5t-6.5 1
q-2 2 -6 3.5t-7.5 3.5t-6 5t-3.5 7zM170 167q2 9 4.5 17.5t5.5 17t5.5 16.5t4.5 17v1.5t0.5 3t1 2.5t0.5 2q2 4 3.5 4.5t4.5 0.5q4 0 5.5 -2t1.5 -7t-3.5 -10t-5.5 -9q-3 -6 -6.5 -14t-6.5 -16.5t-5 -17t-2 -15.5q0 -3 2 -6t4 -6.5t4.5 -7t3.5 -7.5q2 -9 3.5 -20t1.5 -21
v-8.5t-1 -8.5t-2.5 -8t-5.5 -7h-4h-5.5h-5.5h-4q-3 0 -8 -0.5t-10 0t-9.5 1t-7.5 3.5q-1 0 -1.5 0.5l-0.5 0.5q0 3 2.5 5t4.5 2q8 0 15.5 -2t15.5 -2q2 0 4.5 0.5t5.5 1t5 2t2 4.5v36q-1 1 -2 5.5t-2.5 9t-3 8t-3.5 3.5t-3.5 -2t-2.5 -5.5t-1.5 -7.5t-2.5 -7t-5 -5.5
t-8 -2.5q-6 0 -11.5 1t-9.5 7l3 3q17 -1 23.5 5.5t6.5 25.5v4t-1 3l-29 14l-1.5 1.5t-0.5 2.5q0 1 0.5 2t2.5 1q5 0 8.5 -1t7 -3l7 -4t6.5 -4h1h1l1.5 1.5zM49 243q0 2 0.5 3t2.5 1t4.5 -1t2.5 -4v-31q0 -1 3 -2t7 -2t9 -2t9 -2.5t7 -3.5t3 -4v-19q0 -2 1.5 -3.5t3 -2.5
t3 -1.5t2.5 -1.5v-2q0 -2 -1 -2.5t-3 -0.5q-5 0 -9.5 1t-9.5 2.5t-9.5 2.5t-9.5 1h-1q-1 0 -2 -0.5t-1 -1.5v-17q0 -2 4 -2.5t10 -1t11.5 -2t7.5 -4.5v-4t0.5 -6t0.5 -5.5v-3.5q0 -4 2 -7t4 -4.5t3 -3t1 -3.5q0 -4 -3 -4q-4 0 -8.5 1l-9 2t-8.5 2t-9 1h-3h-3q-2 -2 -2 -3.5
v-3.5q0 -6 3 -8t7.5 -2t9.5 -0.5t9.5 -3.5t7 -10.5t1.5 -20.5q1 -2 3 -2.5l4 -1t3.5 -1t1.5 -3.5v-1q-1 -2 -3.5 -2.5t-4.5 -0.5h-1q-1 0 -5 0.5t-9 1t-9 1t-5 0.5h-2h-2q-4 0 -5 -1t-1 -5q0 -6 4.5 -9.5t10 -5.5t12 -2.5t10.5 -0.5q3 -2 3 -5v-2t-2 -2h-3h-3h-4h-3l-3 1
t-7 1.5t-7.5 1.5t-5.5 1q-5 2 -7.5 6t-4 9.5t-1.5 11.5v10v85q0 1 0.5 4.5t0.5 4.5v0q0 24 -1.5 47.5t-1.5 48.5zM60 191q0 -5 2.5 -7.5t5.5 -4.5t7 -2.5t7 -0.5q4 0 4.5 1.5t0.5 5.5q0 5 -1.5 8t-4.5 4t-6.5 1.5t-7.5 0.5q-5 0 -6 -1t-1 -5zM79 114h7l1 1v1q0 12 -4.5 17
t-16.5 5q-1 0 -3 -0.5t-2 -3.5v-15q0 -2 2.5 -3.5t5.5 -1.5h5h5zM59 66v-4v-4q2 -2 5.5 -3l7 -2t7 -1.5t6.5 -0.5t3.5 1.5t0.5 4.5v5t-0.5 6t-1.5 5.5t-3 3.5q-1 0 -3.5 0.5t-5 0.5t-5 0.5t-3.5 0.5h-3q-2 0 -3.5 -1.5t-1.5 -3.5v-4v-4z" />
</svg>
