<?xml version="1.0" standalone="no"?>
<!DOCTYPE svg PUBLIC "-//W3C//DTD SVG 1.1//EN" "http://www.w3.org/Graphics/SVG/1.1/DTD/svg11.dtd" >
<svg xmlns="http://www.w3.org/2000/svg" xmlns:xlink="http://www.w3.org/1999/xlink" version="1.1" viewBox="-10 0 266 256">
   <path fill="currentColor"
d="M59 248q1 2 1.5 2h1.5q3 0 4.5 -1.5t2 -4t0.5 -5.5v-5q0 -8 -1.5 -16.5t-1.5 -17.5v-3t1 -2q4 0 9 -0.5t10 -2t9.5 -3.5t6.5 -6q1 -7 1.5 -13.5t0.5 -13.5q1 -2 2.5 -3t3.5 -1t3.5 -1.5t1.5 -4.5q-6 0 -11 1t-10.5 2.5t-10.5 2t-11 0.5h-6q-1 -2 -1.5 -3.5t-0.5 -3.5
q0 -5 5.5 -7t12.5 -3t12.5 -2t5.5 -4v-27h3t4 -0.5t3.5 -2t1.5 -3.5q0 -4 -4 -4q-5 0 -9.5 1t-9.5 2.5t-9.5 2.5t-9.5 1h-3h-3q-2 -2 -2.5 -5t-0.5 -5q0 -3 4.5 -4.5t10.5 -3l12 -3t9 -4.5q0 -6 -0.5 -9.5t0.5 -6.5t3.5 -5t6.5 -6l1 -0.5t1 -1.5q0 -3 -1.5 -3h-3.5
q-5 0 -10 1t-10 1.5t-10 1.5t-10 1q-4 0 -4 -4q0 -5 3.5 -8t9 -5t11.5 -3t11 -2t8.5 -2t3.5 -4t-1.5 -4.5t-4.5 -1.5q-4 0 -9 2.5t-10 3.5q-6 1 -12 3t-10 5t-6.5 8t-2.5 12q0 42 2.5 83t3.5 83q0 2 0.5 7t1 10.5t0.5 10.5v7zM141 186q7 1 14.5 2.5t14.5 3t14.5 2.5t14.5 1
q2 0 4.5 -0.5t2.5 -3.5q0 -4 -3 -6t-6.5 -2.5t-8.5 -0.5h-9t-7 -1t-4 -4q-1 -2 -1.5 -5t-1 -6.5t-0.5 -6.5v-5q0 -5 2 -7t5.5 -3l7 -2t7 -3t5.5 -6t2 -12q0 -10 -1 -18t0 -18q-1 -1 -1.5 -2t-0.5 -2v-1v-1v-7t0.5 -13t1 -13t0.5 -8v-2v-3q0 -7 -7 -7h-2.5t-2.5 2v2.5v3.5v4
v2q0 13 1 25.5t1 25.5q0 4 0.5 10.5t0 13.5t-3 12.5t-7.5 5.5h-5q-2 0 -3 -2q-2 -27 -3 -56t-1 -56q0 -3 -2 -5t-5 -2t-3.5 1.5t-0.5 4.5q0 13 2 25t3 24q1 27 0.5 53.5t2.5 53.5q0 3 -3 4t-5 1q-4 0 -6 -4t-4 -9t-2.5 -10t-0.5 -7q0 -1 -0.5 -4t-1 -7t-0.5 -7v-4t-0.5 -3.5
l-1 -5t-1 -5.5t-0.5 -4v-69l-2 -2l-3 -3h-1h-1l-0.5 0.5l-1.5 1.5v9q0 19 0.5 37.5t1.5 38.5q2 8 2 17t1.5 17.5t4 16t8.5 13.5zM66 168v-3t1 -2q2 0 5 -1t7 -1.5t7 -1.5t4 -1h1q3 0 3 2v4q0 4 -0.5 8.5t-3.5 8.5l-2.5 0.5t-4.5 1l-4 1t-3 0.5h-3q-3 0 -4.5 -1.5t-2 -4
t-0.5 -5.5v-5zM62 112q0 -1 3 -2.5t7 -2t7.5 -1t5.5 -0.5h2.5h2.5q2 3 2 5v5q0 5 -2.5 7.5t-6 4t-8 1.5h-8.5q-2 0 -3 -2.5t-1.5 -5.5t-0.5 -5v-4zM61 61v-2t1 -1q8 -2 13 -3t12 -1h3q2 2 2 3v3q0 5 -2.5 7.5t-6.5 4t-8 2t-8 0.5h-5v-2.5t-0.5 -3t-0.5 -3v-2.5v-2z" />
</svg>
