<?xml version="1.0" standalone="no"?>
<!DOCTYPE svg PUBLIC "-//W3C//DTD SVG 1.1//EN" "http://www.w3.org/Graphics/SVG/1.1/DTD/svg11.dtd" >
<svg xmlns="http://www.w3.org/2000/svg" xmlns:xlink="http://www.w3.org/1999/xlink" version="1.1" viewBox="-10 0 266 256">
   <path fill="currentColor"
d="M131 62q0 14 0.5 29t1.5 27q0 2 0.5 6t2 7t3.5 5.5t5 2.5h24q2 0 4 8.5t4.5 21t5.5 27t6 27t6 20.5t7 8q3 0 4.5 -4t1.5 -7v-1v-2q-6 -8 -9 -18.5t-4 -20.5q-2 -1 -4 -8.5t-4 -18t-4 -23.5t-4 -24t-2.5 -19.5t-0.5 -10.5v-7q1 -3 6.5 -4t11.5 -1q5 0 9.5 -0.5t4.5 -4.5
q0 -2 -1.5 -3.5t-3.5 -1.5h-26l-1 -2q-1 0 -1.5 -1.5l-0.5 -1.5v-30q0 -2 4.5 -3t10 -1t10 -1t4.5 -4t-2.5 -4.5t-5.5 -1.5q-6 0 -14 0.5t-16.5 2t-16 4t-13.5 5.5q-2 2 -2.5 5.5t-0.5 7.5v8v7zM49 237q0 2 1.5 2h2.5q3 0 5 -2.5t2 -6.5v-32q0 -1 0.5 -1.5t1.5 -0.5
q1 -1 5 -2t8.5 -1.5t8.5 -1.5t7 -2q2 -1 3 -3.5t1.5 -6t1 -6t0.5 -4.5q1 -3 2.5 -4.5t3 -2.5l3 -2t1.5 -3q0 -1 -0.5 -1.5t-1.5 -0.5q0 -1 -2.5 -1.5t-3.5 -0.5h-1h-1l-2 1t-3 1h-3h-6.5t-7.5 0.5t-7 1.5h-1h-1q-1 -1 -2.5 -1.5l-1.5 -0.5v-16l29 -3q4 -1 5.5 -4t2.5 -7.5
t2.5 -9.5t5.5 -8q0 -1 2 -3l3 -3q-1 -2 -3 -2h-3h-4q-2 1 -7 1.5l-10 1l-10 1t-7 0.5q-4 -1 -6 -3t-2 -7l1 -3.5t2 -3.5l34 -7q3 -1 4.5 -4t2 -6.5t0.5 -7v-5.5q1 -1 2.5 -2t3 -1.5t2.5 -1.5t1 -3q0 -3 -1.5 -3.5t-3.5 -0.5q-8 0 -16 1t-16 1h-4h-4q-2 0 -2 -2v-3
q0 -5 3.5 -8t9 -4t12 -1.5t12 -1.5t9 -2t3.5 -4t-2 -5t-4 -2q-6 0 -11.5 2t-10.5 4q-8 2 -14.5 3.5t-10.5 4.5t-6.5 8.5t-3.5 15.5q0 2 -0.5 6t-0.5 8.5t-0.5 9t-0.5 5.5q0 38 -0.5 76t-0.5 76v5zM62 165h24q2 0 2 3v3q0 6 -3 8.5t-6.5 4t-8.5 1.5h-8v-20zM118 172q0 3 3 3
h34q1 0 3.5 -0.5l5 -1t4 -2l2.5 -2.5q0 -1 -0.5 -2.5t-1.5 -1.5h-10h-8t-14 0.5t-12.5 2t-5.5 4.5zM61 126q0 -1 0.5 -1.5l0.5 -0.5q0 -2 0.5 -5.5t0.5 -5.5q4 -3 9 -3h11h6q1 0 1.5 1t0.5 2.5v2.5v1q0 4 -2 8t-6 4h-18q-3 0 -3.5 -1t-0.5 -2zM139 95q0 -4 2 -6.5t5.5 -3.5
t7 -1h4.5q5 0 7 4t3 9.5t0.5 11t-0.5 8.5v4v5q-2 3 -5.5 3h-6.5h-4h-3q-2 -2 -3.5 -4t-2 -4.5t-0.5 -5.5v-5q-1 -1 -1.5 -3t-1 -5t-1 -5zM139 60q0 -9 4 -16t13 -7q2 0 4.5 0.5t3.5 3.5v5.5t0.5 7.5t0.5 7.5v5.5v1v2q0 2 -1.5 3.5t-4 2t-5.5 0.5h-3h-4q-2 0 -3 -1
q-2 0 -3 -2.5t-1.5 -5t-0.5 -4.5v-3zM62 64q0 -5 4 -6q1 0 3.5 -0.5t6.5 -1t7.5 -1t5.5 -0.5h1q3 0 3.5 2.5t0.5 4.5q0 4 -3 6t-7 3.5t-8 2t-7 0.5q-4 0 -5.5 -2t-1.5 -8z" />
</svg>
