<?xml version="1.0" standalone="no"?>
<!DOCTYPE svg PUBLIC "-//W3C//DTD SVG 1.1//EN" "http://www.w3.org/Graphics/SVG/1.1/DTD/svg11.dtd" >
<svg xmlns="http://www.w3.org/2000/svg" xmlns:xlink="http://www.w3.org/1999/xlink" version="1.1" viewBox="-10 0 266 256">
   <path fill="currentColor"
d="M187 176q2 3 3 9.5t2 14.5t2 17t1.5 16.5t2 12.5t4.5 5q5 0 6 -3.5t1 -8.5v-2q0 -1 -1 -5t-2.5 -9t-2.5 -8.5t-1 -4.5q-3 -18 -4.5 -36t-0.5 -35q-1 -2 -1.5 -5.5t-1.5 -6.5t-2.5 -5.5t-4.5 -2.5h-19l-3 -3v-21q0 -1 1 -2.5t2 -2.5q8 0 16.5 -1.5t15.5 -3.5q1 0 1.5 -0.5
t0.5 -1.5v-1v0q0 -1 -0.5 -2t-1.5 -2h-3h-3h-4.5h-2.5q-1 0 -4 1l-3 1q-3 0 -9.5 1t-13.5 1.5t-13.5 1.5t-9.5 1q-3 -1 -4 0t-1 3q0 1 0.5 2.5t1.5 1.5h22l0.5 0.5l1.5 1.5l1.5 3t0 2.5t-0.5 3.5v4t0.5 7.5t0.5 12t0.5 12t0.5 6.5v2v0q0 2 -0.5 4.5t-0.5 5t-0.5 4t-0.5 2.5
t-1.5 3t-2.5 2q-3 0 -5.5 -1.5t-3.5 -3.5q0 -1 -0.5 -3l-1 -4t-0.5 -4v-3q0 -2 -0.5 -7.5t-0.5 -11t-0.5 -10.5t-0.5 -8h-5l-0.5 3.5t-1.5 5.5v17v13t1.5 13t5.5 10t12 4q7 0 14.5 -1t14.5 -1h7zM174 18q-16 0 -26.5 0.5t-17.5 4.5t-11 13.5t-5 27.5q0 1 -0.5 6t-0.5 10.5
t-0.5 10.5t-0.5 6q-3 38 -5 75.5t-2 75.5q7 0 9 -5t2 -11v-49l0.5 -3t0.5 -4v-4v-7v-7v-4q0 -3 0.5 -8.5t0.5 -12.5t0.5 -15t1 -15t0.5 -13t1 -8q2 -5 2.5 -12t1 -14.5t2.5 -14t7 -10.5q5 0 12 -1t14 -1.5l14 -1t13 0.5q2 -1 2.5 -2t0.5 -3q0 -3 -3 -5h-3h-4h-3h-3zM89 12
q-5 0 -11.5 1.5t-12 5t-10 8t-4.5 9.5v16q0 1 -0.5 5t-0.5 9.5t-0.5 11.5t-1 11.5t-0.5 9.5v5v35q-1 12 -1 25.5t-0.5 27t-0.5 27.5v27q5 0 7.5 -4t3.5 -9t1 -10v-8q1 -4 5.5 -4.5l9 -1t8 -1.5t6.5 -6l1.5 -6t0 -4t-0.5 -4v-6q1 -2 2.5 -3.5t3 -2.5t2.5 -2t1 -3t-1 -2.5
t-2.5 -0.5h-3.5h-2q-7 0 -13 1t-13 1h-2t-2 -2v-16q0 -1 2 -2t5 -1.5t5.5 -1l2.5 -0.5h3t4 -0.5l4 -1t3 -0.5l0.5 -0.5l0.5 -0.5q1 -1 2 -2.5l1 -1.5v-22q0 -3 1.5 -3.5t4 -1t4 -1.5t1.5 -3q0 -3 -2 -3q-1 0 -4 -0.5t-4 -0.5q-8 0 -15.5 1t-15.5 1q-2 0 -2.5 -0.5t-0.5 -3.5
q0 -6 2.5 -9t7 -5t9.5 -3t10 -3q3 -1 4 -4.5t2 -7.5l2 -8t5 -7l2 -2l2 -2l-4 -3l-2 -0.5t-3 -0.5q-2 0 -5 0.5l-3 0.5h-3.5t-5 0.5t-4.5 1t-3 0.5l-2 -0.5t-3.5 -1t-3 -1.5t-1.5 -3q0 -6 2.5 -9.5t6.5 -5.5t9 -3.5t9 -2.5t6.5 -2.5t2.5 -5.5q0 -3 -2.5 -3.5t-5.5 -0.5z
M76 178q3 0 3.5 2t0.5 5q0 9 -3.5 13t-13.5 4v0q-1 0 -3 -0.5l-2 -0.5v-18q0 -1 2 -2t5 -1.5l6 -1t5 -0.5zM165 138q0 -2 1 -4t3.5 -3t5 -1h4.5q3 0 5 1t3 4v2.5v3.5v3.5v2.5v9t-2 8q0 1 -0.5 1.5t-1.5 0.5h-15l-2 -2v-2.5t-0.5 -6.5t-0.5 -8v-7v-2zM58 128v-7q0 -1 2.5 -2
t6 -1.5l7 -1t4.5 -0.5h3t2 2v15q0 2 -2 3t-5 2t-5.5 1h-3.5h-4h-4q-2 -2 -1.5 -5.5t0.5 -5.5zM58 67q0 -3 2.5 -4.5t6 -2.5t7 -1h4.5q4 0 5.5 0.5t1.5 3.5q0 7 -4.5 12t-10.5 5q-4 0 -6.5 -0.5t-3.5 -2t-1.5 -3.5t-0.5 -7zM139 61q1 0 3 0.5t4.5 0.5h5h3.5h1.5h4t4.5 -0.5
t3 -0.5q2 0 6 -0.5l8 -1t7 -2t3 -3.5t-2 -3.5t-4 -1.5q-11 0 -22.5 2t-22.5 3q-1 0 -2 1.5t-2 1.5v1v1q1 0 1.5 1z" />
</svg>
