<?xml version="1.0" standalone="no"?>
<!DOCTYPE svg PUBLIC "-//W3C//DTD SVG 1.1//EN" "http://www.w3.org/Graphics/SVG/1.1/DTD/svg11.dtd" >
<svg xmlns="http://www.w3.org/2000/svg" xmlns:xlink="http://www.w3.org/1999/xlink" version="1.1" viewBox="-10 0 266 256">
   <path fill="currentColor"
d="M42 249q0 1 1.5 2t1.5 2h1q2 0 3 -2t1.5 -4l1 -4t0.5 -3v-6v-10v-10.5v-6.5q2 -1 8.5 -1.5t13 -1.5t11.5 -3t6 -6q0 -2 -0.5 -5t-0.5 -6t0.5 -6t1.5 -5t2 -2.5l2 -1l2 -1t1 -2.5q0 -3 -1 -3.5t-3 -0.5q-7 0 -14 2t-14 2h-5h-5q-3 -2 -4 -6.5t-1 -6.5q0 -3 6 -4.5t13 -3
t13 -3t6 -4.5v-19l1.5 -1.5t3.5 -2.5t3.5 -2.5l2.5 -2.5q-1 -3 -3.5 -3.5t-4.5 -0.5q-7 0 -13.5 2t-13.5 2h-5h-4q-2 -1 -2.5 -3.5t-0.5 -5.5t0.5 -4.5t4.5 -3.5q1 0 3.5 -0.5l5 -1t4.5 -1t3 -1.5q2 0 4.5 -0.5t5 -1.5l5 -2t2.5 -3l1.5 -6t0.5 -3.5t-0.5 -4t0.5 -6.5
q0 -2 1.5 -3.5t3 -2t2.5 -1.5t1 -3t-1.5 -3t-2.5 -1q-5 0 -9 1t-8.5 2.5t-8.5 2.5t-8 1q-5 0 -7 -1.5t-2 -6.5t3.5 -8.5t9 -5.5t11.5 -4t11 -4t8.5 -4t3.5 -6v-2.5t-3 -1.5q-11 2 -20 6.5l-19 9.5q-5 2 -8 5t-4.5 6.5t-1.5 8.5t-1 11q0 4 0.5 12.5t0.5 19.5v22v22
q0 11 -0.5 19.5t-0.5 12.5v7.5t-0.5 12.5t-1 15.5t-1 15.5t-0.5 12.5v7.5v6v6zM95 247q0 2 1.5 3t3.5 1q1 0 2.5 -0.5t2.5 -1.5t3.5 -4t5.5 -7t5 -7t3 -5q2 -3 4.5 -6.5t4.5 -7.5t4 -7.5t6 -5.5q0 -2 1 -5t2.5 -6.5t2.5 -7t2 -4.5q0 -1 1.5 -3.5t1.5 -3.5q4 3 8 10t8 16
t8.5 19t9 18t9 13.5t9.5 5.5q2 0 3 -1t1 -3q0 -3 -1.5 -6.5t-4 -6.5t-4.5 -6t-4 -5q-6 -9 -12 -19t-11 -20.5t-8.5 -21.5t-3.5 -22v-2l14 -17q2 -1 4.5 -4t5.5 -3q4 0 6.5 4t4 9t3 9t4.5 4t5 -1t2 -4q0 -2 -3 -8.5t-7 -12.5t-7.5 -11t-5.5 -5h-0.5h-0.5l-22 23h-2
q0 -3 -0.5 -11t-0.5 -16.5v-15.5v-11v-3q0 -3 0.5 -5.5t1.5 -4t3 -1.5q6 0 11 1.5t10 4t9 6t8 7.5q1 1 2 1.5t2 0.5q2 0 4 -1.5t2 -3.5q0 -4 -3.5 -7t-9.5 -6t-12.5 -5.5t-12.5 -5t-9.5 -5t-3.5 -4.5q0 -3 1 -6t1 -6q0 -2 -1.5 -5t-4.5 -3q-1 0 -1.5 0.5l-1.5 1.5
q-2 3 -2.5 6t-0.5 6.5v6.5v6q-1 0 -4.5 2t-8 4.5t-8.5 4.5l-4 2q-1 1 -3 2t-4 2.5t-3.5 2t-1.5 1.5q-1 0 -2.5 1l-3 2t-2.5 2l-1 1v6q6 0 11 -2.5t9.5 -6t9.5 -7t9 -5.5q1 -1 3.5 0t3.5 1v61q0 1 -1.5 2t-2.5 2v0q-3 0 -4.5 -3.5t-3 -7.5t-4.5 -7t-8 -3q-2 0 -6.5 4.5
t-8.5 11t-7.5 12.5t-3.5 8t0.5 3t1.5 1q3 0 6.5 -3.5t6 -8.5t4.5 -9.5t4 -6.5h2q4 0 6.5 3t5 6.5l5 7t6.5 4.5v26q-5 9 -9 20t-9 20q-9 12 -18 23.5t-18 23.5v0.5v0.5zM52 181v-3t2 -2q1 0 3.5 -0.5t5.5 -0.5t5.5 -0.5t3.5 -0.5h4h3q2 0 3 2v3v2q0 9 -5 12.5t-13 3.5h-3.5
h-3.5q-2 -1 -3 -3t-1.5 -4t-0.5 -4v-5zM54 131q0 -4 2 -7t5.5 -4t7.5 -1.5t8 -1.5q4 2 4.5 3.5t0.5 5.5t-1 7t-4 5q-1 0 -3.5 0.5t-5.5 0.5t-5.5 0.5t-3.5 0.5h-2q-3 0 -3 -3.5v-5.5zM54 71v-6q3 -1 6 -1.5t5.5 -1t5.5 -0.5h6h3h4q2 0 2 2v3q0 6 -2.5 9t-6 5t-8 2.5
t-10.5 0.5q-2 0 -3 -1.5t-1.5 -3.5t-0.5 -4v-4z" />
</svg>
