<?xml version="1.0" standalone="no"?>
<!DOCTYPE svg PUBLIC "-//W3C//DTD SVG 1.1//EN" "http://www.w3.org/Graphics/SVG/1.1/DTD/svg11.dtd" >
<svg xmlns="http://www.w3.org/2000/svg" xmlns:xlink="http://www.w3.org/1999/xlink" version="1.1" viewBox="-10 0 266 256">
   <path fill="currentColor"
d="M160 248q1 0 2.5 1.5t2.5 1.5q3 0 4 -2.5t1 -4.5q0 -8 -2.5 -16t-2.5 -16q0 -11 3.5 -15t8.5 -6.5t10.5 -5.5t10.5 -10q2 -4 2.5 -9t3.5 -8q1 -13 1 -25v-24v-29q0 -6 -0.5 -12.5t-2.5 -13t-6 -11.5t-11 -6q-1 -1 -4.5 -1.5t-7.5 -1t-7.5 -1.5t-5.5 -1l-1 -1v-21
l-1.5 -1.5l-1.5 -1.5q-1 0 -3.5 1t-2.5 2t-0.5 4l-1 6t-0.5 5.5v3.5q-1 4 -4 5.5t-7.5 3t-9 4t-7.5 7.5q-4 8 -6.5 18.5t-3.5 21.5t-1 22v19v10t0.5 8t1 8.5t1.5 10.5q1 4 2.5 6t3 3.5t4 3t4.5 2.5q3 2 5 3.5l4 3t4.5 1.5h6.5q2 0 3 -0.5t1 -2.5t-3.5 -4t-7.5 -4.5t-8 -4
t-5 -2.5q0 -1 -1 -2.5t-2.5 -3t-2.5 -3t-1 -2.5q-1 -5 -1.5 -8.5t-0.5 -6.5v-6v-8v-10t0.5 -16t2 -18.5t3.5 -17.5t5 -14.5t7 -8.5q1 0 4 -1t6.5 -2.5t6 -2.5t4.5 -1v0q3 0 8.5 0.5t11 1.5t10 3.5t5.5 6.5q0 1 1 3t1.5 5t1.5 6t1 5t1 6t1 5v65q-1 2 -1.5 4.5t-1.5 5.5
t-1.5 5.5t-2.5 4.5q-6 8 -12 11.5t-11 7.5t-8.5 10.5t-3.5 19.5q0 8 1 16t3 16zM52 227q0 2 0.5 4.5t3.5 2.5q2 0 3.5 -0.5t1.5 -3.5v-34q0 -2 2 -2.5t5.5 0t7.5 0t7.5 -3t5.5 -8t2 -15.5l4 -5v0q0 -3 -1 -3.5t-3 -0.5q-7 0 -13.5 0.5t-13.5 0.5h-2t-1 -1v-16l0.5 -0.5
l0.5 -0.5q8 -4 12 -3.5t6.5 0.5t4.5 -3.5t4 -14.5q0 -2 1 -3.5l2 -3l2 -3t1 -3.5q0 -3 -1.5 -3.5t-4.5 -0.5q-6 0 -12 2t-12 2t-6 -7q0 -4 0.5 -7t1.5 -7q3 0 8 -0.5t9.5 -1.5t8 -3.5t4.5 -6.5q0 -4 -0.5 -6.5t1.5 -5.5q0 -1 1 -2l2 -2t2 -1.5t1 -1.5v0q0 -2 -2 -3t-3 -1
q-6 0 -12 0.5t-12 0.5h-3.5h-3.5t-1 -2v-2q0 -7 2.5 -10t6.5 -4.5t8.5 -2t8.5 -0.5t7 -1.5t3 -4.5t-3 -3.5t-5 -0.5t-8.5 0.5t-12.5 2t-11 4.5t-5 9v43q-1 1 -1.5 3.5l-0.5 2.5v1q0 25 1.5 50.5t1.5 51.5q0 9 -0.5 18.5t-0.5 19.5zM61 180v-4.5t1 -4.5t2.5 -3t4.5 -1h1.5
t3.5 0.5t3.5 0.5t2.5 1q2 0 1.5 2.5t-0.5 3.5q0 7 -4 9t-11 2q-3 0 -4 -2t-1 -4zM131 134v8t1 10t3.5 8.5t7.5 3.5h23q1 0 3.5 -1.5t3.5 -1.5l2.5 -2.5l3 -3l3 -3l2.5 -2.5q-1 -6 0 -11.5t1 -11.5v0q0 -1 -0.5 -2.5l-1 -3t-1.5 -3t-2 -1.5h-1q-1 1 -2 1.5l-1 0.5v26
q0 2 -1.5 4t-3.5 4t-4 3.5t-4 1.5l-1 -0.5t-2 -1.5q1 -12 0 -22.5t-1 -22.5q0 -2 1.5 -3.5t4.5 -1.5h23q3 0 3 -1v-2v-3t-1 -2h-30l-0.5 -1l-0.5 -1q-1 -1 -1.5 -3l-0.5 -2v-23q5 0 8.5 2.5t6.5 5t5 4.5t5 2t3 -1.5v-3.5v-3.5t-1 -2.5q-10 -6 -17 -11t-13 -14h-1q-1 0 -2 1
t-1 2.5t-0.5 3t-1.5 2.5q-1 2 -4.5 5.5t-7.5 8t-7 8t-3 6.5v0v0q1 1 2 1.5l1 0.5q4 -1 6 -4t4.5 -6.5t4.5 -6.5t6 -3v35l-1.5 0.5t-3.5 0.5t-4.5 0.5t-3.5 0.5h-2h-3.5t-2.5 1t-1 3q0 1 1.5 2t3 1t3 0.5l1.5 0.5l1.5 -0.5t2.5 -0.5t2.5 -0.5l1.5 -0.5h1h1h3.5t0.5 3v10.5
t0.5 9l1 9t0.5 9.5q0 3 -1.5 5t-4.5 2q-1 0 -2.5 -0.5l-3 -1t-2.5 -1.5t-1 -2v-26l-1 -1.5t-2 -1.5l-0.5 -1l-0.5 -1h-1h-1q0 1 -0.5 2l-0.5 1v11zM59 128q0 -9 3.5 -11.5t10.5 -2.5h4h4q1 1 1.5 2l0.5 1q0 10 -4.5 12t-12.5 2q-2 0 -4.5 -0.5t-2.5 -2.5zM61 73v-6.5t3 -4.5
q1 0 3 -0.5t4.5 -0.5t5 -0.5t3.5 -0.5h1q2 0 2 1.5v2.5q0 5 -1 7.5t-3.5 3.5t-5.5 1.5t-7 0.5q-3 0 -4 -1t-1 -3z" />
</svg>
