<?xml version="1.0" standalone="no"?>
<!DOCTYPE svg PUBLIC "-//W3C//DTD SVG 1.1//EN" "http://www.w3.org/Graphics/SVG/1.1/DTD/svg11.dtd" >
<svg xmlns="http://www.w3.org/2000/svg" xmlns:xlink="http://www.w3.org/1999/xlink" version="1.1" viewBox="-10 0 266 256">
   <path fill="currentColor"
d="M173 195q1 2 2.5 6.5t3 10.5t3 12.5t3.5 12t3.5 9t3.5 3.5h1q0 -1 1.5 -1.5l1.5 -0.5v-4v-3q0 -4 -1 -8t-2.5 -8t-3.5 -7.5t-3 -7.5q-6 -21 -9 -41.5t-3 -42.5q0 -9 2.5 -19t2.5 -19q0 -2 -0.5 -4t-2.5 -2q-3 0 -3.5 2.5t-1.5 5.5q0 2 -0.5 8.5l-1 13l-1 13t-0.5 8.5v14
v12q0 2 0.5 7.5t1.5 11t1.5 11t1.5 7.5zM145 175q0 14 -2 27t-5 26l-2 4l-2 4t-1.5 4.5t-0.5 5.5q3 0 7 -1t6 -5q2 -8 3 -16t1.5 -16t1 -16.5t0.5 -15.5q1 -14 3 -26.5t2 -26.5q0 -8 -4 -12.5t-8.5 -6.5t-8.5 -4t-4 -6q0 -5 3 -6.5t7.5 -2t8.5 -1.5t6 -4q0 -1 -0.5 -1.5
l-0.5 -0.5q-1 0 -2.5 -0.5t-3.5 -0.5t-3 -0.5l-1 -0.5q-1 0 -2 0.5t-3 1t-4 1.5t-3 1t-2.5 1t-2.5 2l-2 2t-1 2v15q0 4 3.5 5t8 2.5t8 4.5t3.5 11t-0.5 15t-1.5 15q0 1 -1.5 1.5t-2.5 0.5h-2q-1 0 -3.5 -0.5t-4.5 -1t-4.5 -0.5h-2.5q-2 -1 -2 -3.5v-2.5q0 -5 2.5 -6t6 -1.5
t6.5 -1t3 -4.5q-1 -2 -3.5 -2.5t-5 0t-4.5 0.5h-3v-16q0 -1 -2.5 -2.5t-4.5 -1.5q0 26 -4.5 52t-15.5 50l0.5 1t1.5 2h1q4 0 6.5 -3t3.5 -6.5t1.5 -8t0.5 -6.5t1.5 -2h2.5q3 0 5.5 1t5.5 1t3 -4t-2 -5.5t-4.5 -2.5t-4.5 -2.5t-2 -5.5v-3t0.5 -4t1.5 -3.5t3 -1.5h20l2 2v10z
M47 229q1 3 2 3.5t3 0.5q3 0 4 -0.5t2 -3.5v-3v-3v-3v-3v-2t-0.5 -4t-0.5 -3.5v-2.5t0.5 -3l0.5 -2l25 -4l8 -6v-20l1 -0.5l1 -0.5q2 -2 5.5 -3.5t3.5 -4.5q0 -2 -1.5 -3.5t-3.5 -1.5q-1 0 -1.5 0.5l-0.5 0.5q-1 0 -2.5 0.5l-3 1l-3 1l-1.5 0.5h-3t-6.5 0.5t-7.5 0.5t-6 1
h-1h-1l-3 -3l-2 -2v-15l2 -1q1 0 4.5 -0.5l7 -1l7 -1t4.5 -1.5q1 0 3 -0.5t4 -1.5t3.5 -2.5t1.5 -2.5v-19l1 -0.5t2 -1.5l1.5 -0.5l3 -1t2.5 -1.5t1 -2v-2l-0.5 -0.5t-1.5 -0.5h-44l-4 -4v-12q2 0 6 -0.5t9 -1.5t9 -2t6 -1q1 -1 3.5 -1.5t3.5 -0.5l0.5 -0.5l1.5 -1.5l5 -26
q0 -1 1 -2t2.5 -1.5t3 -1.5t1.5 -2v-1q0 -1 -1 -1.5l-1 -0.5h-2h-4h-3h-2h-3h-4h-4h-1l-1.5 0.5t-3 0.5t-2.5 0.5l-1 0.5q-1 0 -3 -1l-2 -1q-1 0 -4 0.5t-4 0.5q0 -4 -0.5 -8t1.5 -7t6 -4t9.5 -1.5t10.5 -0.5h10.5t7.5 -1.5t3 -4.5q0 -1 -0.5 -2t-1.5 -2h-6q-9 0 -18.5 1
t-17.5 4.5t-13 10t-5 17.5v126l0.5 2t0.5 4.5t0.5 4.5t0.5 3v8.5v14.5v14.5v8.5zM191 130v27v2t0.5 4.5l1 5t0.5 3.5q0 3 0.5 9t2 11.5t3.5 10t6 4.5q3 0 3.5 -1.5t0.5 -4.5t-1 -7.5t-3 -9t-3.5 -9.5t-2.5 -8q0 -6 -0.5 -10.5l-1 -9t-0.5 -8.5v-10q0 -7 1 -13t1 -12
q0 -2 -0.5 -3.5t-2.5 -1.5t-3.5 1.5t-1.5 3.5v26zM57 181v-7q1 -3 4 -4t6 -1.5t6 0t5 0.5h3t2 1v3v3q0 10 -5 12.5t-13 2.5h-7q-2 -2 -1.5 -5t0.5 -5zM53 115l2 -2l2 -0.5t4 -1.5t4.5 -1t4.5 -1h3h4.5h5h3.5v6.5t-1 6.5t-2.5 5.5t-5.5 2.5q-1 1 -3.5 1t-5 0.5t-5 0.5h-3.5
t-4 -2t-3 -3v-12zM111 74q0 1 1 2t3 1l0.5 -0.5l0.5 -0.5q3 -2 6.5 -7t7 -10.5t7.5 -11.5t7 -11t6 -8.5t5 -3.5q4 0 9 3.5t10 9t9.5 11.5t8 11.5t7 9t5.5 3.5t4.5 -1t2.5 -4v-1q0 -1 -1 -2.5t-1 -2.5q-12 -13 -24 -24.5t-24 -24.5q-3 -2 -7 -2q-1 0 -4 4.5t-8 11t-10.5 14.5
t-10 15t-7.5 12.5t-3 6.5zM53 61q0 -5 3 -8t7 -3h26q0 2 -0.5 5.5t-1.5 7.5t-3 7t-4 3h-23q-2 0 -2.5 -1.5t-1 -3.5t-0.5 -4v-3zM141 58q0 2 1.5 3.5t3.5 1.5h2q1 0 4 -0.5t6.5 -0.5t6.5 -0.5t4 -0.5h3.5h2.5t2.5 -1t1.5 -3l-3 -3h-1.5h-2.5q-2 0 -4 -0.5t-3 -0.5t-3.5 0.5
t-5.5 0.5h-4h-2h-2.5t-3 0.5t-2.5 1.5t-1 2z" />
</svg>
