<?xml version="1.0" standalone="no"?>
<!DOCTYPE svg PUBLIC "-//W3C//DTD SVG 1.1//EN" "http://www.w3.org/Graphics/SVG/1.1/DTD/svg11.dtd" >
<svg xmlns="http://www.w3.org/2000/svg" xmlns:xlink="http://www.w3.org/1999/xlink" version="1.1" viewBox="-10 0 266 256">
   <path fill="currentColor"
d="M162 154q-1 25 0.5 49t1.5 49q2 0 4.5 -1t2.5 -5v-92q0 -2 5.5 -4t12.5 -5t12.5 -7.5t5.5 -12.5t-1 -15t-4 -12.5t-7.5 -9t-11.5 -5.5q-3 -1 -7 -1t-7 -3v-22q0 -10 1 -18.5t1 -17.5q0 -8 -6 -8h-3q-1 0 -2 2q1 17 0.5 32.5t-2.5 31.5q-1 4 -3.5 5t-5.5 2l-6 2t-6 4
t-4.5 8.5t-1.5 14.5q0 12 4.5 18t10 9.5t10.5 5.5t6 6zM189 171q0 2 0.5 8.5t1.5 14.5t2.5 16.5t3.5 16t4 12t4 4.5t3.5 -1.5t1.5 -3.5v-2q-1 -1 -1.5 -4t-1.5 -6.5l-2 -7t-1 -4.5q-4 -13 -6 -27t-3 -28q0 -1 -0.5 -2t-0.5 -2h-1h-1v0l-2 2t-1 2v2v4v4v2zM47 236q0 2 1.5 4
t3.5 2t4 -2.5t3 -4.5v-4t0.5 -5.5t0.5 -5.5v-4q3 -2 10 -3t14 -3t12.5 -4.5t5.5 -6.5v-18q0 -2 1.5 -3t3 -1t2.5 -1t1 -3q0 -3 -0.5 -3.5t-3.5 -0.5q-9 0 -18 1.5t-17 1.5q-4 0 -6 -1.5t-2.5 -4t-0.5 -5.5v-6q0 -4 3 -5.5t7.5 -1.5t9.5 -0.5t9.5 -3.5t7.5 -9t3 -18
q2 -4 3.5 -4h2.5t2 -1.5t1 -7.5h-3t-4 0.5t-4 0.5h-3l-1.5 0.5t-1.5 1.5l-27 3l-4 -3v-21l31 -5q2 0 3.5 -3.5t1.5 -4.5v-3t0.5 -4.5t0.5 -5v-3.5q1 -2 3 -2.5l4 -1t3.5 -1.5t1.5 -5q0 -2 -2 -2.5t-4 -0.5q-8 0 -15.5 1.5t-14.5 1.5h-11q-2 0 -2 -2v-3q0 -7 3.5 -10t9 -4
t11.5 -1t11.5 -1t9 -3.5t3.5 -8.5q-5 0 -14.5 0.5t-19.5 3t-17.5 7t-7.5 11.5q0 21 1 42t1 43v8v10.5v9.5v5v11t-0.5 17t-1 16.5t-0.5 11.5q0 3 -0.5 6t-1.5 7t-2 7t-1 6zM121 239q0 2 1.5 2.5t2.5 0.5q4 0 6.5 -5.5t4.5 -13t3.5 -17t2.5 -18t1.5 -15t0.5 -8.5v-8
q-1 0 -2 -1l-1 -1h-0.5h-0.5q-2 0 -3 2t-1 3q0 9 -0.5 16.5t-1.5 14.5t-2.5 14t-3.5 16q-1 5 -4 9t-3 9zM62 199v-15q0 -1 2 -2t5 -1.5t5.5 -1t3.5 -0.5h5t5.5 1t4 3t1.5 6q0 2 -1 4t-3 4.5t-4 4t-3 1.5h-18zM142 125q0 -1 0.5 -2t1.5 -2q1 0 5.5 -0.5l9 -1t8.5 -1t6 -0.5h3
h3q2 0 5.5 0.5t6 1t3.5 0.5l1 1v2.5v3t-0.5 3.5t-0.5 3q-1 3 -4 4.5t-7 2.5t-7 1.5t-5 0.5q-3 0 -8 -0.5t-10 -2.5t-8 -5.5t-3 -8.5zM62 124q0 -3 3 -4t5 -2q1 0 3 -0.5t4.5 -1l5 -1t3.5 -0.5h2q2 0 2.5 1t1 2.5t0.5 3.5v3q0 5 -1.5 7.5t-4 4t-6 2t-7.5 0.5h-3.5h-2.5
q-3 -2 -4 -7t-1 -8zM141 108q0 -5 1 -8t3.5 -4.5t5.5 -3t6 -3.5h26q2 0 4.5 2t4 5t2.5 6t1 5q0 1 -1.5 2.5t-3.5 1.5h-48q-1 0 -1 -1v-2zM124 79q0 2 1 3t3 1q5 0 8 -6.5t4.5 -14.5t2.5 -16t1 -11q0 -1 -1 -4.5t-3 -3.5q-3 0 -4.5 2t-1.5 5v3v5v6v3q0 2 -1.5 6.5t-3.5 8.5
t-3.5 8t-1.5 5zM189 38v12.5t2 14t5.5 11t9.5 4.5q0 -5 -1.5 -10t-3 -9.5t-3 -9.5t-1.5 -11q0 -3 1 -5.5t1 -5.5t-1 -5t-4 -2t-4 2t-1 4.5v5.5v4zM62 69v-6.5t3 -5.5q6 -1 9.5 -1h8.5h6q2 0 2 3v4t-0.5 3l-1 4t-1.5 3.5t-4 1.5h-21q-1 0 -1 -1t-0.5 -2t0 -2z" />
</svg>
