<?xml version="1.0" standalone="no"?>
<!DOCTYPE svg PUBLIC "-//W3C//DTD SVG 1.1//EN" "http://www.w3.org/Graphics/SVG/1.1/DTD/svg11.dtd" >
<svg xmlns="http://www.w3.org/2000/svg" xmlns:xlink="http://www.w3.org/1999/xlink" version="1.1" viewBox="-10 0 266 256">
   <path fill="currentColor"
d="M119 247l2 2l2 2v0h1q1 -1 2.5 -2t1.5 -2v-28l23 -21q2 -3 3.5 -6t2.5 -7t1.5 -8t0.5 -7q0 -10 -3 -18t-9 -16q-3 -4 -5.5 -5.5t-4 -2.5t-2.5 -3.5t-1 -7.5v-7q8 -1 12.5 -2.5t6.5 -4.5t2.5 -8.5t0.5 -14.5q-4 0 -5.5 3.5t-2.5 7.5t-3 7t-7 3q-2 0 -3 -1t-1 -3v-4v-3
q0 -8 0.5 -12.5t1.5 -6.5t3 -2h3.5t3.5 -1.5t5 -5.5q2 -5 2.5 -7t0.5 -3t1 -3t5 -7l0.5 -0.5l0.5 -0.5q0 -1 -1.5 -1.5t-2.5 -1t-2.5 -0.5h-2.5q-11 0 -22 1.5t-22 2.5l-2 1q6 3 7.5 7t2.5 8t3 8.5t7 8.5v25q0 1 -1 1t-1.5 0.5t-1.5 0l-1 -0.5q-4 0 -6 -2t-3 -5.5t-1.5 -7
t-1.5 -6.5v0v0q-2 0 -3.5 1.5t-1.5 3.5q0 9 2 14t4 6.5t5 2t5.5 1t4 3.5t1.5 9v8t-1 3t-3 1.5t-6 2.5q-10 7 -13.5 17.5t-3.5 21.5v5t1 6.5t2 5.5t3 2q3 0 3.5 -2.5t0.5 -3.5t-0.5 -3.5t-0.5 -3.5v-2.5v-3.5v-4v-3q6 0 9 2.5t5 6t4.5 6t6.5 2.5q0 -7 -3.5 -11t-7.5 -7.5
t-7.5 -6t-3.5 -6.5t1 -5t4 -3q5 2 8 4.5t6 6t5.5 6.5t6.5 7q2 -1 2 -2.5v-2.5q0 -4 -3 -7.5t-7 -6.5t-7 -6t-3 -5t3 -3t4 -1q5 0 9.5 4t7.5 9.5t4.5 11.5t1.5 10q0 8 -3 13t-6.5 9t-8 7.5t-8.5 8.5t-6.5 12t-2.5 18v4v4zM167 144v2v9t0.5 10.5t0.5 9.5v4q1 4 2.5 7.5t3.5 6
l4 5t5 5.5q1 0 2 2l1 2q1 4 1.5 11t1.5 14.5t3 13t6 5.5q3 0 4 -2t1 -5q0 -18 -7.5 -34t-18.5 -29v-9q6 0 12 2t13 2q0 -6 -4.5 -8.5t-10 -3.5t-10 -2.5t-4.5 -7.5q0 -2 0.5 -4.5t3.5 -3.5q5 1 11.5 2.5t11.5 1.5q2 0 3.5 -0.5t1.5 -2.5q0 -3 -5 -4t-11 -2t-11 -2.5t-5 -6.5
q0 -1 1 -3t3 -3h5q3 0 5.5 0.5l5 1t4.5 1.5t6 2q3 1 3 -0.5v-3.5t-1 -3.5t-4 -2.5q-1 0 -3.5 -1t-6 -1.5t-6 -1t-3.5 -1.5q-1 0 -2.5 -1t-1.5 -2v-1q0 -4 3 -6.5t6.5 -5t7.5 -4.5t6 -5v-3.5v-4.5v-4.5v-3.5q-1 -6 -2.5 -8.5t-4.5 -3t-6.5 -0.5t-7.5 -1q-2 -2 -2 -4v-4v-3
t2 -3q4 0 7.5 0.5t7 -0.5t5.5 -3t2 -7h-22v-21q0 -2 -2 -2h-3q-2 0 -3.5 0.5t-1.5 3.5v43q0 5 3.5 6.5t8 2.5t8 3t3.5 8q0 4 -2.5 7t-6 6t-7 5.5t-5.5 6t-3.5 8.5t-1.5 10.5v10.5v8zM47 234l1.5 1.5l0.5 0.5h1h1l1 -1.5t2 -2.5l1 -1.5l1 -1.5v-41q0 -1 5 -2t10.5 -2t10 -2.5
t5.5 -3.5l3 -24q1 0 2.5 -2t2.5 -2v-1q0 -2 -1 -2.5t-2.5 -0.5h-3h-1.5q-6 0 -11 1t-10 1h-3h-3l-3 -4v-11l0.5 -0.5l1.5 -1.5l2 -0.5t3 -0.5t3.5 -1t6 -2t6 -1.5t3.5 -0.5l6 -5v-19l8 -6l-2 -2h-36v-13q0 -2 4 -3t9.5 -2t10 -2.5t5.5 -4.5q1 -2 1.5 -5l1 -6l1 -6t0.5 -4
t2 -3t3 -2v-1q0 -2 -1.5 -2.5t-2.5 -0.5q-9 0 -16.5 1t-15.5 1q0 -2 -0.5 -3t-0.5 -2t0.5 -2l1.5 -3q10 -3 18.5 -6t19.5 -4v-2v-3t-2 -2h-6q-7 0 -14.5 1.5t-13.5 4.5t-10.5 8t-4.5 13q0 48 -1 93.5t-1 92.5v8zM57 166q0 -3 1 -5t3 -2.5t5 -1t6 -1.5l2 -1t3 -1q0 1 1.5 2
t1.5 2t0.5 3t0.5 3q0 6 -4 9t-10 3t-8 -2t-2 -8zM57 111q0 -3 2 -5t4.5 -3t5.5 -1.5t5 -0.5q3 0 5.5 0.5t2.5 4.5q0 5 -1.5 8t-4.5 4.5t-6.5 2t-7.5 0.5q-2 0 -3 -1t-1.5 -2.5t-0.5 -3.5v-3zM59 57q0 -4 2.5 -6t6 -3t7.5 -0.5t7 0.5v15q0 2 -2 2.5t-5 1t-5 0.5h-2h-4h-4
q-1 -3 -1 -5v-5zM122 53l0.5 -2t0.5 -3q4 -1 7.5 -1h7.5h2h2.5t2.5 0.5t1 1.5q0 6 -4.5 10.5t-9.5 4.5q-6 0 -8 -2.5t-2 -8.5zM116 24q0 2 1 2.5t3 0.5h3q1 0 5.5 -0.5t9 -0.5t9 -0.5t5.5 -0.5l2 -1v-1v-1l-2 -2l-1 -1h-30q-2 0 -3.5 1.5t-1.5 3.5z" />
</svg>
