<?xml version="1.0" standalone="no"?>
<!DOCTYPE svg PUBLIC "-//W3C//DTD SVG 1.1//EN" "http://www.w3.org/Graphics/SVG/1.1/DTD/svg11.dtd" >
<svg xmlns="http://www.w3.org/2000/svg" xmlns:xlink="http://www.w3.org/1999/xlink" version="1.1" viewBox="-10 0 266 256">
   <path fill="currentColor"
d="M102 246q0 2 0.5 3.5t3.5 1.5q4 0 6.5 -4.5t2.5 -8.5v-109q0 -7 -1 -12.5t-2.5 -11.5t-3 -11.5t-1.5 -11.5q0 -3 1 -5.5t2.5 -5.5t2.5 -6t1 -7q0 -5 -1.5 -12.5t-5 -14t-8.5 -11t-11 -4.5q-2 0 -3.5 1.5t-1.5 3.5t3.5 5.5t8 9t8 11.5t3.5 13q0 3 -0.5 5.5t-3.5 2.5
q-5 0 -9 -5.5t-9 -12t-11 -12t-15 -5.5q-3 0 -3.5 0.5t-0.5 2.5q0 3 1 4.5t3 3t4.5 2.5t3.5 2q2 2 6.5 6t9 9t9 9.5l5.5 5.5l0.5 0.5l0.5 0.5l-1 1l-1.5 1l-1.5 1h-17q-1 0 -2 -1t-2 -1l-3 -3t-5 -4.5t-5.5 -4.5t-3.5 -3h-1.5h-1.5h-3.5t-1.5 3q0 6 4.5 10.5t10.5 7.5
t12 4.5t9 1.5t6 -1t6 -1q4 0 5.5 4.5t1.5 7.5q0 1 0.5 4.5t0.5 8t0.5 8t0.5 4.5t0.5 5l1 8t1 7.5t0.5 4.5v18q0 19 -2.5 38t-2.5 38zM131 187v6t0.5 11.5t1 13.5t1 13t1.5 10t3 4h2t2 -2v-60q16 0 31.5 2.5t31.5 2.5q2 0 3.5 -0.5t1.5 -3.5q0 -4 -4 -6t-7 -2q-1 0 -3.5 -0.5
t-6 -0.5t-6 -0.5t-3.5 -0.5l-5 -5v-18q0 -1 2.5 -1.5t4.5 -0.5h3h5h5.5h3.5q2 -1 2.5 -2t0.5 -3v-2t-2 -1h-20q-2 0 -2.5 -2t-0.5 -4.5v-4.5v-3v-7l1 -0.5t2 -0.5h1.5t3 0.5t3 0.5h1.5h6h5t4 -5l-1 -1t-1 -2t-0.5 -2t-1.5 -1h-25v-18q6 0 11.5 1.5t11.5 1.5h6q1 -1 1 -2v-2
q0 -3 -4.5 -5t-10 -3.5t-10.5 -3t-5 -4.5v-1q1 0 2 -1.5l1 -1.5l19 -8q2 -1 2 -3.5v-3.5q0 -5 -4 -8.5t-9 -6l-10 -5t-7 -5.5v-5v-6t-1 -5.5t-4 -2.5t-4.5 2.5t-1.5 6t0.5 7t0.5 4.5t-0.5 1.5l-0.5 0.5q-1 0 -1.5 0.5t-1.5 1l-2 1t-2 0.5q0 1 -2.5 3.5t-5 5.5t-5 5.5
l-2.5 2.5q-2 2 -4.5 3.5t-4.5 3.5t-3 4.5t-1 5.5q4 0 7.5 -1t7.5 -1q2 0 4.5 0.5t4.5 2t3.5 3t1.5 4.5l-0.5 1l-0.5 1q-3 4 -5.5 7.5t-4.5 7t-3.5 8t-1.5 9.5q-1 5 -1 12t-2 13v42q-2 3 -2 4v4zM46 171q0 3 0.5 6t2 6t3.5 5t5 3h11q8 0 12 -1t6.5 -4t3.5 -8t3 -14l0.5 -1.5
t1 -3.5t1 -3.5l0.5 -1.5v-4v-4q0 -2 -2 -2q-3 0 -4.5 6t-3.5 13.5t-5 13.5t-9 6q-2 0 -4.5 -0.5t-5 -1.5t-4 -3t-1.5 -5q0 -9 4 -14.5t9 -10.5t9.5 -11t4.5 -16q0 -2 -0.5 -6t-2 -7.5t-3.5 -6t-5 -2.5v6v8q0 5 -0.5 9t-0.5 5t-0.5 3.5t-0.5 3.5q-2 4 -6.5 7.5t-8.5 7.5t-7 9
t-3 13zM144 171q0 -1 -0.5 -2.5t-1 -3.5t-0.5 -3.5v-2.5v-3q0 -5 2 -7t7 -2h4q2 0 4.5 0.5t4.5 1.5t2 3t-0.5 5.5l-1 7t-2.5 6t-5 2.5h-2q-2 -1 -6 -1.5t-5 -0.5zM142 134v-8.5t3 -8.5h8h8q1 0 3 0.5t2 1.5v20h-22q-2 0 -2 -2v-3zM150 99q0 -2 1 -4.5t2.5 -5t4 -4t5.5 -1.5
h1.5t1.5 1v17l-2 2l-3 3h-1q-5 0 -7.5 -1t-2.5 -7zM145 59q0 -2 2.5 -5t5.5 -6t6.5 -5t4.5 -2t4.5 1t6.5 3t5.5 4t2.5 4q0 4 -4 4q-3 0 -4.5 -2t-4.5 -2t-3.5 2.5t-0.5 5.5t-1 5t-5 2q-1 0 -3.5 -0.5t-5 -1.5t-4.5 -3t-2 -4z" />
</svg>
