<?xml version="1.0" standalone="no"?>
<!DOCTYPE svg PUBLIC "-//W3C//DTD SVG 1.1//EN" "http://www.w3.org/Graphics/SVG/1.1/DTD/svg11.dtd" >
<svg xmlns="http://www.w3.org/2000/svg" xmlns:xlink="http://www.w3.org/1999/xlink" version="1.1" viewBox="-10 0 266 256">
   <path fill="currentColor"
d="M122 241q0 1 0.5 4t1.5 3l0.5 0.5l0.5 0.5q5 0 6.5 -4.5t2 -10t0.5 -11t1 -7.5q0 -1 1 -1h2q6 0 9.5 4.5t6 10t5 10t4.5 4.5q3 0 4.5 -2.5t1.5 -4.5q0 -4 -2 -7.5t-4.5 -6.5t-6 -5.5t-6.5 -5.5l-4 -2t-4.5 -2t-5 -2.5t-3.5 -3.5q3 -4 7.5 -5t8.5 -1.5t7 -3.5t3 -11v-2v-3
q0 -1 -1 -1.5t-2 -0.5q-3 0 -3.5 3t-1.5 6t-3.5 6t-9.5 3q-5 0 -6 -3t-1 -7v-7.5t-4 -3.5q-3 0 -4 2.5t-1.5 5.5t0 6t0.5 4q-2 3 -6 3t-6 -3t-3.5 -6.5t-3.5 -6.5t-5 -3q-2 0 -2 1.5v2.5q0 9 4 13.5t9 7t9 4t4 4.5v0q-4 3 -9.5 6t-10 7t-7.5 9t-3 11q0 2 1 3.5t4 1.5
q4 0 6.5 -4.5t5 -10t5 -10t6.5 -4.5h1l0.5 0.5l0.5 0.5q0 1 0.5 3.5t0.5 4.5t0.5 4t0.5 3v2v1l-0.5 1t-0.5 2.5t-0.5 2.5zM65 178v3t3 2t4.5 -1.5t2 -3.5t0 -4.5t-0.5 -4.5q6 -2 11.5 -3t11.5 -1h12t12 -1q1 0 1 -1v-2v-1t-1 -1h-13q-1 0 -1 -1.5v-2.5q0 -2 1.5 -2.5
t4.5 -0.5q2 0 4.5 -0.5t3.5 -1.5q0 -1 0.5 -2.5l0.5 -1.5h-14l-0.5 -1l-0.5 -1v-1q0 -2 2.5 -2.5t5.5 -0.5t5.5 -0.5t2.5 -2.5l-0.5 -0.5t-0.5 -1.5q-2 -1 -6 -1h-5.5t-4.5 -1t-2 -4q1 0 3.5 -0.5t3.5 -0.5t2 0.5t3 1t3 1t2 0.5q1 -1 1 -1.5v-1.5q0 -3 -3 -4t-6.5 -1.5
t-6.5 -1t-3 -3.5v0v0q1 -1 3 -1t2 -1q1 0 3 -0.5t4.5 -2t4 -2t2.5 -1.5q1 0 1.5 -1l0.5 -1q0 -3 -3.5 -5t-7 -3.5t-7 -2.5t-3.5 -3q0 -1 1.5 -2t2.5 -1.5t2.5 -1l1.5 -0.5h41l1 -1l2 -2v-1v-1q-1 0 -2 -1l-1 -1h-17q-1 0 -2 -1.5t-1 -2.5h-1l0.5 -0.5l0.5 -0.5l1 -1l2 -2
l3 0.5t5.5 0.5t5 -1t2.5 -3q0 -3 -2.5 -4t-6 -0.5t-6 1t-3.5 0.5v-7h15q1 0 1.5 -1t0.5 -2v0q0 -1 -1 -2t-2.5 -2t-3 -1h-1.5v-0.5v-0.5l-1 1q-1 0 -2 0.5l-1 0.5q-5 0 -5.5 -2t-0.5 -5q6 0 13 2t13 5q1 -1 1 -1.5v-1.5q0 -2 -1 -3.5t-3 -2.5l-17 -4v-2l15 -7v0v-2v-2t-1 -2
l-22 -10q-1 -1 -1.5 -2t-1 -1.5t-1 -1.5t-2.5 -1h-0.5t-1.5 1q-3 3 -8.5 6.5t-11 7.5t-9.5 8t-4 10q4 0 7.5 -2.5t7.5 -2.5q2 0 4 1t2 3v1.5v0.5q-6 4 -10 9t-6.5 11.5t-3 13.5t-0.5 13v1l0.5 2l0.5 2v1q0 3 -3.5 5t-7.5 4t-7.5 4t-3.5 6q0 2 2.5 3t5.5 1t5.5 0.5t2.5 2.5
t-1 4t-2.5 4t-3.5 4t-2 3q-11 19 -11 40zM136 170q0 2 1 3.5t3 1.5l0.5 -0.5l0.5 -0.5l2 -1.5t2 -2.5q1 0 4 -0.5t6.5 -0.5h6h3.5t3.5 0.5t3.5 0.5h9h9q1 0 2 -1l2 -2v-1v-1q-1 0 -1.5 -1l-0.5 -1h-19l-1 -1l-2 -2v-1v0q0 -1 1 -2l1 -1h12q1 0 1.5 -0.5t0.5 -1.5q0 -2 -2 -3
t-5 -1.5t-5.5 0t-3.5 0.5l-1 -2l1 -1h14q1 0 2 -1.5l1 -1.5l0.5 -0.5l0.5 -0.5h-1q0 -1 -1 -2t-2 -1h-14q-1 0 -1.5 -1.5l-1 -3t-0.5 -3.5v-2q1 0 2 -0.5l1 -0.5q1 1 4 1.5t6.5 1t6.5 1t3 1.5h3q0 -4 -3 -6t-6.5 -3t-7.5 -1t-7 -1v-2l0.5 -1t2 -2t3 -2.5t2.5 -1.5
q1 -2 3.5 -3t2.5 -3t-0.5 -3t-2.5 -1q-1 -1 -4 -2l-6 -2t-5.5 -1.5t-3.5 -0.5q0 -1 -1 -1h-1h-2l-1 1l-1.5 1t-3 2.5l-3 3l-1.5 1.5q0 1 -2 3l-4.5 4.5l-4.5 4.5t-2 3q0 2 2.5 3t5.5 1t5.5 0.5t2.5 2.5q0 4 -3 8t-5 8q-1 2 -2 5.5t-2 7.5t-1.5 7.5t-0.5 5.5zM144 161
q0 -2 2.5 -3t6 -1.5l7 -1t4.5 -0.5q0 5 -3.5 6.5t-6.5 1.5h-3h-3t-3 -0.5t-1 -1.5zM90 154h4t2 3q0 1 -0.5 2t-1.5 1h-19q0 -3 1.5 -4t3.5 -1.5t5 -0.5h5zM147 148q1 -2 2.5 -2.5t3.5 -0.5h2q1 0 3 0.5t3 0.5t1 1v1q0 1 -1 2t-2.5 1h-3h-2.5h-3.5t-2.5 -3zM91 141
q2 0 3.5 1.5t1.5 3.5t-1 2h-4q-1 0 -2.5 0.5t-3.5 0.5h-3.5h-1.5q0 -5 3.5 -6.5t7.5 -1.5zM153 137q2 -2 3.5 -5t4.5 -3v11q-2 0 -4.5 -1t-3.5 -2zM91 126h2q2 0 3 2.5t1 4.5q0 1 -1 2t-2.5 1h-2.5h-2q0 -5 2 -10zM148 115v-0.5v-0.5l11 -10q0 -1 1.5 -1h1.5q3 0 6.5 1.5
t3.5 4.5t-3 5h-2.5h-1.5v-6h-4q0 2 -0.5 4.5t-1.5 4t-2 2t-4 0.5q-2 0 -3.5 -0.5t-1.5 -3.5zM88 112q0 -2 2 -3t4 -1l1.5 2t1.5 4v1.5t-2 0.5t-4.5 -0.5t-2.5 -3.5zM97 104q1 -2 1.5 -2h1.5h3t4.5 1t4 2t1.5 2v0.5v0.5q-1 0 -3.5 1.5t-2.5 2.5q-1 0 -1.5 1l-0.5 1v0v0
q0 -4 -2 -6.5t-6 -3.5zM99 82q0 -3 1.5 -4t4 -1h5h3.5h6q4 0 6 1q-2 3 -4.5 4t-5.5 1.5t-6 0.5h-6q-4 0 -4 -2zM102 67l0.5 -1t1.5 -2t1.5 -2t1.5 -1h17q0 3 -1.5 5t-3.5 3t-5 1h-5h-4.5t-2.5 -3zM120 45q1 0 1.5 1.5t0.5 3.5t-1 2.5t-3 1t-4 0.5h-4q0 -1 1 -2.5t2.5 -3
t3.5 -2.5t3 -1zM111 32q2 -2 5 -6t6 -4l3 1t7 2t7 2.5l3 1.5v2l-2 1t-4 1.5t-4.5 1l-2.5 0.5v-5l-1 -0.5l-1 -0.5l-1.5 1.5l-1.5 1.5l-2 2l-1 1h-2q-2 0 -4 -1z" />
</svg>
