<?xml version="1.0" standalone="no"?>
<!DOCTYPE svg PUBLIC "-//W3C//DTD SVG 1.1//EN" "http://www.w3.org/Graphics/SVG/1.1/DTD/svg11.dtd" >
<svg xmlns="http://www.w3.org/2000/svg" xmlns:xlink="http://www.w3.org/1999/xlink" version="1.1" viewBox="-10 0 266 256">
   <path fill="currentColor"
d="M59 238q1 2 3 3.5t5 1.5q2 0 2.5 -0.5t0.5 -3.5l-1 -57v-9v-95q0 -9 4.5 -13.5t11.5 -6.5t15 -2h15h2.5h3.5l1 0.5l1 0.5v2l2 50t1 50q0 3 -1 7t-1 8q0 9 1.5 18.5t1.5 18.5q0 5 -0.5 10t-0.5 10q0 2 1 4.5t5 2.5q3 0 5.5 -1t2.5 -5q0 -5 -0.5 -9.5t-0.5 -8.5
q0 -5 0.5 -9.5t0.5 -9.5v-2v-2.5t-0.5 -3.5t-0.5 -3.5v-1.5q-1 -3 -1 -8.5v-12.5v-12t1 -8q-2 -2 -2 -6v-7v-7v-5t-0.5 -7.5t-0.5 -12t-0.5 -11.5t-0.5 -7v-10v-11q3 -1 7 -1.5t8.5 -1t8.5 -0.5h8h6.5t6.5 1t5.5 2.5t4.5 4.5q-1 26 0.5 52t2.5 51q0 9 -0.5 18.5t-0.5 19.5
t1 20t3 18q0 2 1.5 2h2.5q3 0 4 -2t2 -5v-2v-4v-4v-3q0 -17 -1.5 -33.5t-1.5 -33.5v-7q0 -19 -1.5 -37.5t-2.5 -37.5v-6v-6v-6t-1 -5q-2 -4 -5.5 -4.5t-6.5 -0.5h-9.5t-15.5 -0.5t-15.5 -0.5h-10.5q-1 -4 -1 -7v-7l-0.5 -1t0 -2t0.5 -2t1 -1t3 -0.5t4.5 -0.5h4.5h3
q3 0 10 -0.5t14 -0.5q8 0 15 0.5t10 0.5q3 -1 4 -3t1 -4t-0.5 -3t-2.5 -2h-6h-5q-1 0 -5 0.5t-8 0.5t-8 0.5t-5 0.5h-27h-28t-27.5 1t-27.5 4q-1 0 -3 1t-2 3v1q2 2 4 3.5t5 1.5q1 0 1 -1q29 -3 59 -3q2 0 4 1t2 5v1v1q0 2 -0.5 5t-0.5 4.5v2.5l-3 1h-16.5t-18.5 1.5
t-17 5.5t-11 13q1 20 0 41t-1 42q0 22 1 44.5t2 44.5zM78 125v3t2 2h4h4h6.5t9 -0.5t8 -1.5t3.5 -5q0 -2 -2 -3t-4 -1q-1 0 -6 -0.5t-10.5 0t-10 1.5t-4.5 5zM146 124q0 1 0.5 2.5t1.5 1.5h29q2 0 5 -3t3 -5q0 -1 -0.5 -2t-2.5 -1h-2.5h-3.5h-3h-3q-2 0 -6 -0.5t-8 0t-7 2
t-3 5.5zM75 91q0 3 2.5 4t4.5 1h1q3 0 8 -0.5t9.5 -1t8 -1l3.5 -0.5l3 -4l-3 -2q-1 -1 -4 -1h-5q-7 0 -13.5 0.5t-12.5 1.5q-2 1 -2 1.5v1.5zM146 89q1 1 4.5 1.5l3.5 0.5h5.5t8 -0.5t8 -0.5t4.5 -1q1 0 1.5 -1l0.5 -1q0 -1 -1.5 -2.5t-2.5 -1.5h-25q-2 0 -4.5 1.5t-2.5 3.5
v1z" />
</svg>
