<?xml version="1.0" standalone="no"?>
<!DOCTYPE svg PUBLIC "-//W3C//DTD SVG 1.1//EN" "http://www.w3.org/Graphics/SVG/1.1/DTD/svg11.dtd" >
<svg xmlns="http://www.w3.org/2000/svg" xmlns:xlink="http://www.w3.org/1999/xlink" version="1.1" viewBox="-10 0 266 256">
   <path fill="currentColor"
d="M75 177q2 0 4 1t2 4v71q7 0 8.5 -5t1.5 -11v-59h32q1 0 1 -2v-2q0 -2 -0.5 -3.5t-2.5 -1.5h-28l-0.5 -2t-1 -5t-0.5 -5v-2q0 -1 0.5 -2t1.5 -1q11 -1 16.5 -3.5t8.5 -7t3 -11.5v-17v-1v-3.5t-0.5 -5.5t-0.5 -5.5t-0.5 -3.5t-1.5 -1.5t-2.5 -1t-2.5 -0.5h-1v18l-1.5 0.5
t-2.5 0.5h-4h-5h-4h-2l-2 -3v-22q0 -2 2 -3.5t4 -2.5t4.5 -2t2.5 -3q3 -7 3.5 -12.5t0.5 -14.5l1 -3h19l0.5 -1t0.5 -3l-0.5 -1l-0.5 -1h-20v-26l-1 -0.5l-1 -0.5q-1 -1 -3 -1h-3v27q0 1 -1 1t-2.5 0.5t-2.5 0.5h-2h-2q-1 0 -3.5 -0.5t-4.5 -1t-4.5 -0.5h-3.5l-0.5 -1.5
l-0.5 -1.5q0 -1 0.5 -4l0.5 -3v-2v-3q0 -1 -0.5 -5t-0.5 -5h-3h-2.5t-2.5 2v26h-20l-4 4q2 3 3.5 4t3.5 1q3 0 6 -1t6 -1q4 0 5.5 3.5t2 8.5l1 10t2.5 8q1 0 3.5 1.5t3.5 1.5q1 1 2.5 3t2.5 2v7v7q0 1 -0.5 3.5t-0.5 4.5t-0.5 3.5l-0.5 1.5h-18q-4 0 -4.5 -3.5t-0.5 -8
t-0.5 -8t-4.5 -3.5q-3 0 -4 3t-1 5v2v4v4v4v3v3v3.5v1.5q0 1 1 4l2 6l2 6t2 4q3 5 8 6.5t9.5 2t7.5 3.5t3 10v5l-3 1q-1 0 -4 0.5t-5 0.5q-5 0 -10.5 -1t-10.5 -1q-3 0 -4 1.5t-1 3.5q0 3 1.5 4t3.5 1q6 0 12.5 -1t12.5 -1zM142 207q0 2 0.5 6.5t2 9t4.5 8t7 3.5h36
q3 0 5.5 -1.5t4.5 -3.5t3.5 -4t1.5 -5v-55q0 -2 -1.5 -3.5t-3.5 -1.5t-2.5 0.5t-0.5 3.5v23l-2 2h-2h-3.5h-4.5h-4h-5h-6.5h-6.5h-2q-1 0 -2.5 -0.5t-4 -1t-4 -1.5t-1.5 -2v-20q0 -3 -1 -3.5t-3 -0.5q-1 0 -2 0.5t-1 3.5v7.5t-0.5 12t-1 12t-0.5 8.5v3zM151 206v-8l5 -1
t11.5 -1t12 -0.5t7.5 -0.5h5.5t6.5 2v5v6q0 7 -0.5 11t-3 5.5t-7 2t-12.5 0.5q-7 0 -11.5 -0.5t-7.5 -2.5t-4.5 -6.5t-1.5 -11.5zM204 99q0 14 -6.5 27t-13.5 24q-2 3 -4.5 5.5t-4.5 5t-3.5 5.5t-1.5 6q3 0 6.5 -2t6.5 -5t5 -6.5t1 -4.5q5 -5 9 -11.5t7.5 -14t5 -15.5
t1.5 -14q0 -10 -4 -15t-10.5 -7.5t-14 -4.5t-14 -3.5t-11 -4.5t-4.5 -9q0 -5 2.5 -8t6 -4.5t8 -2.5t8.5 -1q1 -1 5 -1t8 -0.5t8 -0.5h5q2 -1 2 -1.5v-1.5v-2.5t-2 -1.5h-28q-6 0 -11.5 2.5t-10 6t-7 9t-2.5 10.5q0 4 1.5 7t4.5 5.5t6.5 3t7.5 0.5q1 1 1 3v4q0 5 -3.5 15
t-8.5 20t-10 18.5t-9 10.5v3q4 0 8 -3.5t8 -9t8 -12t7 -13.5t5 -12.5t4 -8.5q0 -2 0.5 -4t2.5 -3h2.5h3.5q6 0 10.5 2.5t8.5 7.5v7zM60 125v-5h2.5t5.5 -0.5t5 -0.5h3h2h3t2 3v20q0 1 -2.5 1.5t-3.5 0.5q-8 0 -12.5 -5.5t-4.5 -13.5zM91 119h17q1 0 2 1t1.5 3l1 4l0.5 2
q0 7 -5 11t-12 4h-3t-2 -2v-23zM74 53v-6q4 -2 9 -2h8h4h3l1 2l0.5 3t0.5 4v9t-2 9h-8q-5 0 -8.5 -1t-5 -3t-2 -6t-0.5 -9z" />
</svg>
