<?xml version="1.0" standalone="no"?>
<!DOCTYPE svg PUBLIC "-//W3C//DTD SVG 1.1//EN" "http://www.w3.org/Graphics/SVG/1.1/DTD/svg11.dtd" >
<svg xmlns="http://www.w3.org/2000/svg" xmlns:xlink="http://www.w3.org/1999/xlink" version="1.1" viewBox="-10 0 266 256">
   <path fill="currentColor"
d="M164 184q-1 4 -1 8q0 5 0.5 9.5t0.5 9t1 7.5t3 8.5t5 11t6.5 9.5t5.5 4q5 0 5 -4q0 -6 -3.5 -10t-6.5 -9q-5 -7 -6.5 -16t-1.5 -17v-9q4 -3 10.5 -5.5t13 -6t11 -8.5t4.5 -13q-6 0 -10.5 4t-8.5 8.5t-8.5 8.5t-10.5 4h-1q1 -8 6 -15t10 -13q2 -2 4.5 -4t4.5 -3.5t3.5 -4
t1.5 -6.5q-6 0 -10 3t-7.5 7.5t-6 9.5t-5 9.5t-5 7.5t-4.5 3q-4 0 -5 -3.5t-1 -5.5q0 -4 3.5 -8.5l7 -9t6.5 -8t3 -5.5t-1.5 -2.5t-3.5 -0.5t-6 4.5t-7 10.5t-5.5 11.5t-2.5 7.5q0 5 1 8t2.5 5t4 3.5t4.5 4.5zM124 242q0 2 1 4.5t5 2.5t5 -2.5t1 -5.5q0 -4 -0.5 -6.5
t-1.5 -6.5v-50q0 -6 1.5 -11.5t4 -11t6 -10.5t6.5 -9q2 -3 4.5 -5.5t5 -5.5t4.5 -6t2 -6l4 -39q0 -1 3.5 -1.5t7.5 -1t7.5 -1.5t3.5 -3v-1l-1 -0.5t-3 -0.5t-4 -0.5t-3 -0.5h-3h-5h-6h-5h-3h-6h-6h-4q-1 1 -3 1.5t-3 1.5q2 3 5 3.5t7 0t7 0t4 3.5q2 6 2 12v12v13
q-6 10 -13.5 18t-13.5 18q-3 6 -5 12.5t-6 11.5v8t-0.5 11.5t-0.5 14v14t-0.5 11.5t-0.5 8v4zM77 174q1 0 3 0.5t2 1.5v72q7 0 8.5 -3.5t1.5 -10.5v-1v-2t-0.5 -2t-1.5 -1q0 -1 0.5 -2.5t0.5 -3t0.5 -3.5l0.5 -2v-7.5v-11.5v-11v-7q1 -3 5.5 -3.5t8.5 -0.5t7 -0.5t3 -3.5
t-3.5 -3.5t-7.5 -0.5h-8.5t-4.5 -3v-7q0 -6 1.5 -9t4.5 -5t6 -3.5t6 -5t4.5 -9t1.5 -15.5v-11.5t-1 -10.5q-1 -1 -2 -1.5t-2 -0.5t-1.5 2t-2 4.5t-3.5 4.5t-6 2h-3.5t-2.5 -3v-20q0 -2 2 -3t5 -3t5.5 -5t3.5 -10v-3q0 -2 0.5 -5t1 -5l0.5 -2h13v-1.5v-2.5l-1.5 -1.5
l-0.5 -0.5q-1 0 -2.5 -0.5t-3 -0.5h-3.5h-2v-18q0 -2 -2 -3.5t-4 -1.5q-1 0 -2.5 1.5t-1.5 3.5v18h-23l-3 -2q0 -4 0.5 -7.5t0 -6t-3 -4t-6.5 -1.5v19q0 1 -1.5 1.5t-2.5 0.5q-3 0 -5.5 -1t-5.5 -1q-2 0 -3.5 1.5t-1.5 4.5v0q0 1 1.5 2.5l1.5 1.5h16q1 0 1.5 1t0.5 2
q1 8 0.5 12t0.5 6.5t3.5 4.5t9.5 6q1 0 1.5 1l0.5 1v3t0.5 4.5l1 5t0.5 3.5v2q0 4 -4 6h-6q-5 0 -7.5 -1t-3.5 -3t-1 -4v-4t-1 -3t-4 -1h-1q-1 0 -2 0.5t-2 0.5v5q0 10 1.5 20t0.5 21q2 5 5 8t6.5 4t8 1.5t10.5 0.5v24h-38v7h25l3 -1.5t3 -0.5zM62 116v-0.5v-0.5
q1 -1 2 -3.5t2 -3.5h1.5t3.5 -0.5t3.5 -1t2.5 -0.5h2q1 0 1.5 0.5l1.5 1.5v5.5t0.5 7.5t1 7.5t0.5 5.5v5q-11 0 -16.5 -6t-5.5 -17zM99 106q5 0 7 3t2 7q0 3 -0.5 6.5t-2 7t-3.5 6t-5 2.5q-2 0 -3.5 -2t-1.5 -4v-21q0 -3 2.5 -4t4.5 -1zM176 110q0 2 2 2.5t3 0.5q8 0 13 -3
t7.5 -8t3.5 -11.5t1 -12.5v-13.5v-11.5v-1v-1q0 -7 -4 -10.5t-9 -5.5t-11 -3t-10 -2l-3 -1v-16q0 -1 -1 -1.5t-2 -0.5h-2h-1q-5 0 -5 5q0 3 1 5.5t1 5.5q0 2 -0.5 3t-2.5 2q-11 2 -17 5t-8.5 7.5t-3.5 12t-1 18.5v3v4q0 2 0.5 4t0.5 3q1 2 1.5 4l1 4t1.5 4t4 4q4 3 6.5 4
t5.5 1q2 0 4 -0.5t2 -2.5v0v-1q-12 -5 -16 -13t-4 -21v-3l1 -0.5t1 -1.5q1 -6 1 -10t1.5 -7.5t5 -5.5t10.5 -4h2h4h3h3q9 0 15.5 0.5t10 3.5t5 8t1.5 15q0 3 -0.5 7.5t-0.5 8.5t-1 8.5t-2 6.5q-1 4 -4 5.5t-6 2.5t-5.5 2t-2.5 2zM73 51q0 -1 0.5 -3.5l0.5 -2.5
q0 -2 2.5 -2.5t3.5 -0.5t4 -0.5t6 -0.5h6h4v18q0 2 -1 3.5t-2 1.5h-6q-7 0 -12.5 -2.5t-5.5 -10.5z" />
</svg>
