<?xml version="1.0" standalone="no"?>
<!DOCTYPE svg PUBLIC "-//W3C//DTD SVG 1.1//EN" "http://www.w3.org/Graphics/SVG/1.1/DTD/svg11.dtd" >
<svg xmlns="http://www.w3.org/2000/svg" xmlns:xlink="http://www.w3.org/1999/xlink" version="1.1" viewBox="-10 0 266 256">
   <path fill="currentColor"
d="M161 246q0 3 1 4t4 1q2 0 4 -2t2 -4v-41l3 -10q11 -3 18 -9.5t11.5 -15t6 -18t1.5 -20.5l-3 -67q0 -8 -4.5 -12.5t-10 -6.5t-12.5 -2.5t-13 -0.5l-1 -4v-22q0 -1 -2 -1h-3q-3 0 -4.5 3t-1.5 5v1.5t0.5 3t0.5 3v1.5l0.5 1t0.5 2q0 3 -3 5.5t-7 4t-8.5 3t-6.5 3.5
q-5 5 -8 12.5t-4 16t-0.5 17t0.5 14.5q0 7 -0.5 15.5t0 17t3 16.5t7.5 14l6 6t5.5 5t6 3.5t7.5 1.5q1 0 3.5 -0.5t2.5 -2.5t-1 -3t-3 -1.5t-3.5 -1t-3.5 -1.5q-10 -7 -15.5 -15t-7.5 -18t-2.5 -20.5t-0.5 -22.5v-1q0 -1 1 -3.5l1 -2.5q2 -11 3 -20t5 -15.5t11 -10t20 -3.5h1
h1q2 0 5.5 0.5l7 1t6 1t3.5 0.5q4 1 6.5 5.5t3.5 10t1 11.5t1 9q0 1 0.5 3t0.5 4.5t0.5 4.5l0.5 2v24v24q-3 4 -4.5 9t-2.5 9q-3 5 -6 7.5t-6 4.5t-6.5 4t-7.5 5q-5 4 -7 11.5t-3 16.5t-1 17v13zM78 174v72q0 1 1 1.5t2 0.5t2 -1.5t2 -3.5q2 -17 2 -34v-34l1 -2h23l1.5 -1.5
t3.5 -2.5q2 -2 2 -3h-28q-3 0 -4 -3.5t-1 -5.5q0 -3 1.5 -4t4 -1.5t4.5 -1t4 -1.5l2.5 -2.5l3.5 -3.5t3.5 -4t1.5 -5v-5.5t0.5 -9t0.5 -9v-5.5v-3q0 -3 -0.5 -4t-4.5 -3q-2 1 -2.5 3.5t-0.5 4.5q0 3 0.5 5.5t0.5 3.5h-19v-17q0 -1 2 -2.5t5 -4t5.5 -6t2.5 -9.5
q0 -1 0.5 -3.5t0.5 -5t0.5 -5t0.5 -3.5l3 -3h5.5t6.5 -0.5t5 -2.5t2 -5h-19l-3 -2v-2.5v-3.5q0 -5 0.5 -9.5t0.5 -9.5q0 -2 -1 -4t-4 -2v0q-1 0 -2.5 1.5l-1.5 1.5v27l-1 3h-4t-7.5 0.5t-7.5 0.5h-2q-3 0 -3.5 -1t-0.5 -3q0 -5 1 -10.5t1 -10.5q0 -1 -0.5 -2t-1 -2.5
t-1.5 -2.5t-2 -1q0 1 -2 3l-2 2v17l-0.5 2l-1 4t-1 3.5t-2.5 1.5h-11q-2 0 -2.5 2t-0.5 3v2t2 1h13l2 2v4t0.5 6t0.5 6t1 4q0 4 1.5 6t3 3.5t4 3t4.5 3.5l1 0.5t1 1.5t0.5 2.5t1 4t1 4.5t0.5 3v1v1q0 3 -1.5 4.5t-4.5 1.5q-1 0 -3 -0.5t-4 -0.5t-3.5 -1t-1.5 -2v-11
q0 -1 -2 -1h-3h-2.5t-2.5 1v11q0 8 0.5 15t4.5 14q1 1 2.5 4.5t2.5 3.5l15 3l0.5 1t1.5 2l-0.5 2t-0.5 3.5v3v2.5h-27l-1.5 0.5t-2 1t-2 1.5t-2.5 2l3 3h33zM163 172l1.5 1.5t1.5 0.5q3 0 3.5 -2.5t1.5 -4.5v-12q0 -9 -1 -17.5t-1 -16.5q0 -2 0.5 -3.5t2.5 -1.5t4 0.5t5 0.5
h4t6 -0.5t5.5 -1.5t3.5 -3l-3 -3h-25l-3 -4v-46q0 -3 -0.5 -4t-2.5 -1q-1 0 -2.5 0.5t-1.5 2.5v53h-25q-1 0 -1.5 2l-0.5 2q0 1 0.5 2t2.5 1h9h7.5t6.5 -1q2 13 2.5 28t-0.5 28zM180 120v16.5t2 16.5q0 2 0.5 5t1 5.5t2 4t4.5 1.5q0 -11 -1.5 -22t-3.5 -22q-1 -2 -2 -3.5
t-3 -1.5zM145 131q-1 8 -1.5 16t-0.5 16h2q1 0 2.5 -5t2.5 -11.5t2 -12.5t1 -7q0 -2 -0.5 -3.5t-1.5 -1.5q-2 1 -3.5 4zM57 127l2 -2l2.5 -1t6 -1.5t5.5 -0.5h1v0q1 0 2.5 1.5l1.5 1.5v21q-2 0 -4.5 -1t-5 -2.5t-4.5 -3t-3 -3.5q-1 -1 -1.5 -2.5l-1 -3t-1 -2.5zM85 132v-4
q0 -3 2 -5l1.5 -0.5t3.5 -1t3.5 -1t2.5 -0.5h0.5h0.5q3 0 3.5 2.5t0.5 4.5q0 6 -2.5 11.5t-10.5 5.5q-2 0 -3 -1.5t-1.5 -3.5t-0.5 -4v-3zM143 66v28q0 1 1.5 2.5t2.5 1.5q3 0 3.5 -3t0.5 -5q0 -5 -1 -10.5t-2 -11.5q-1 -1 -2.5 -1.5t-2.5 -0.5zM186 64q-2 7 -5 17t-3 18
q2 0 4 -1t3 -3l7 -28q1 -3 -1 -3.5t-3 -0.5l-1 0.5zM68 60v-4q0 -1 0.5 -1.5t1.5 -0.5h23q1 0 1 2.5v2.5v3v3.5t-0.5 5.5t-0.5 5v3q-2 3 -5.5 4t-6.5 1q-5 0 -7.5 -2t-4 -5.5t-1.5 -8v-8.5z" />
</svg>
