<?xml version="1.0" standalone="no"?>
<!DOCTYPE svg PUBLIC "-//W3C//DTD SVG 1.1//EN" "http://www.w3.org/Graphics/SVG/1.1/DTD/svg11.dtd" >
<svg xmlns="http://www.w3.org/2000/svg" xmlns:xlink="http://www.w3.org/1999/xlink" version="1.1" viewBox="-10 0 266 256">
   <path fill="currentColor"
d="M208 247q1 3 2 3.5t4 0.5q2 0 3 -0.5l3 -1.5v-4q0 -6 -1.5 -12.5t-3 -12.5t-4 -12t-3.5 -11q-3 -7 -7 -11.5t-9 -7t-10 -3t-9 -0.5t-7 -0.5t-3 -2.5l-22 -3q-2 0 -3 -2.5t-1.5 -5.5t-0.5 -5.5v-4.5q0 -5 1 -10.5t1 -11.5v-10q-2 -3 -6 -4t-7 -1q-5 0 -8.5 0.5t-8.5 2.5
q-4 13 -5 26.5t-2 25.5q-1 13 -3.5 25t-3.5 25q0 5 -1.5 10t-1.5 10q0 2 0.5 3t2.5 1q3 0 5 -3t3 -7t1.5 -8t0.5 -6l10 -93q1 -3 3.5 -3.5t4.5 -0.5h1h2t2 0.5t1 1.5v44q0 5 4 8t10.5 5t14 2.5t15 1.5t13 2t8.5 4q5 5 8 12t4 14.5t1.5 15.5t1.5 14zM61 247q1 2 2.5 2h2.5
q2 0 3 -0.5t2 -2.5v-3.5v-5.5v-4.5v-3.5q0 -3 0.5 -11t1 -17t1 -17.5t1.5 -11.5q1 -2 4 -3t6 -1.5t5.5 -1.5t2.5 -4l-0.5 -2t-1.5 -2h-15l-0.5 -1t-0.5 -2q-1 0 -1 -1v-3q0 -4 2.5 -6t5 -3t6 -2t5.5 -4q1 -5 1.5 -8t1 -5.5t0.5 -5v-6.5v-10t-2 -10q0 -1 -0.5 -1.5l-0.5 -0.5
q-3 0 -4 2t-1.5 4.5t-2 4.5t-5.5 2h-2t-2 -1v-3v-3q0 -9 2.5 -11.5t5 -4t5.5 -4t4 -9.5v-3.5t0.5 -5t0.5 -5v-3.5q1 -1 3 -2t3.5 -1.5t3 -1.5t1.5 -3q0 -4 -3 -4.5t-6 -0.5v-4t-1 -6t-2 -5t-3 -2h-2.5t-1.5 2v16q0 1 -1.5 1.5t-3 0.5h-3.5h-2q-8 0 -10.5 -2.5t-2.5 -6
t-0.5 -7t-4.5 -4.5l-1.5 0.5t-1.5 1.5q-2 1 -2.5 3.5t-0.5 5.5t0.5 5l0.5 2q-2 3 -4 3.5t-5 0.5t-4.5 1t-1.5 5v0q1 2 3.5 2.5t4.5 0.5t4 -0.5t3 -0.5q0 1 0.5 2.5t0.5 3.5t0.5 3.5t0.5 2.5v2v3v3v2q1 3 3 4.5t4.5 2.5t4 3t1.5 5v2v1q0 1 -0.5 3l-1 4l-1 4l-0.5 2h-5
q-3 0 -4 -1.5t-1.5 -4t-1.5 -4t-4 -1.5q-2 0 -3 1.5t-1 3.5q1 10 1.5 20.5t1.5 20.5q1 4 4 4.5t6 0.5t5.5 1.5t2.5 8.5v2v2.5t-0.5 2.5l-0.5 1h-22q-2 0 -3 1.5t-1 3t-0.5 3l-0.5 1.5q6 0 12 -1t11 -1q1 0 2 0.5t2 1.5v5v5q0 15 -2 30.5t-2 30.5v7zM168 162l3 4l3 -3t2 -4
v-25q0 -3 3 -4t6 -1q4 0 4.5 4t0 8.5t0 8.5t4.5 4q1 0 2 -1.5t1.5 -3t0.5 -3.5v-3q0 -5 -0.5 -10.5t-1 -11.5t-2 -11.5t-3.5 -10.5q-1 -2 -3.5 -3.5t-5.5 -3.5t-5 -3.5t-2 -3.5q0 -3 2 -4.5t5 -2.5t6 -1.5t5 -0.5q3 0 5 3.5t3.5 9t2 12l1 13t1.5 11.5t2 7v29q0 2 2 1.5
t3 -0.5t2.5 0.5t2.5 -1.5v-12q0 -15 -1.5 -30t-5.5 -30q-1 -6 -4 -11t-3 -11q0 -5 2 -10t2 -11q0 -5 -3.5 -7.5t-8 -3.5t-9.5 -1h-8q-1 -1 -2 -2.5t-1 -2.5q0 -4 1 -6.5t1 -6.5q0 -3 -0.5 -4t-3.5 -1t-5 1t-3 4l0.5 2t1 3.5t1 3.5l0.5 2l0.5 1l0.5 1q0 2 -1 3t-3 2h-16
q-3 0 -4.5 2t-1.5 4h7t8 0.5t6.5 2.5t2.5 7v1l-1 1.5l-1 1.5q-2 0 -6 0.5t-8 0.5t-7.5 0.5t-6.5 1.5v1.5v0.5v2.5t2 1.5h26q1 0 1.5 1t0.5 2v2v1q0 2 -0.5 5t-2.5 3h-27v6q7 0 13 -1t13 -1q2 0 3 2t1 3v2v1q-5 4 -10.5 10t-7.5 13q-1 3 -2 8t-2 11.5t-2 11.5t-1 8v2v2v3v1
l3 2q2 -2 3 -5.5t1.5 -7t0.5 -7v-5.5q2 -4 5 -5t6 -1h2.5t1.5 1l2 3v28zM61 112q5 0 5 2.5v6.5t-0.5 7.5t-6.5 3.5l-1 -0.5t-2 -0.5q0 -1 -0.5 -1.5l-0.5 -0.5v-13q0 -3 2.5 -3.5t3.5 -0.5zM87 109q0 4 0.5 8t0 7.5t-3 5.5t-6.5 2h-2t-1 -1v-17q0 -2 3 -3t5.5 -1.5t3.5 -0.5
zM165 102q2 0 3 2.5t1 5v6.5v3q0 2 -1.5 3t-3.5 1h-4h-3v-5t1 -6.5t2.5 -6.5t4.5 -3zM176 119v-7v-2v-4t0.5 -3.5t2.5 -1.5t3.5 1.5t2.5 4t1 5v3.5q0 4 -0.5 5t-4.5 1h-2.5t-2.5 -2zM103 85v1l0.5 0.5l0.5 0.5q4 -1 7.5 -2.5t7 -4t5.5 -5.5t2 -8v-26q0 -3 -1.5 -5.5
t-3.5 -5.5t-4.5 -4.5t-5.5 -1.5q-2 0 -3.5 0.5t-1.5 2.5q0 4 2.5 7t4.5 6t4.5 6t2.5 7q0 6 -1.5 10t-4 7t-5.5 6t-6 8v1zM65 54v-2.5t1 -2.5q1 0 3 -0.5t4 -0.5t4 -0.5t3 -0.5h0.5h0.5q1 0 2.5 0.5t1.5 1.5v18q0 2 -1.5 2.5l-3 1t-3 0.5h-1.5q-5 0 -7 -1.5t-3 -3.5t-1 -5v-7
zM179 66q3 0 3.5 1.5t0.5 3.5h-7q0 -2 0.5 -3.5t2.5 -1.5zM176 56q-1 -3 -1 -5q0 -5 3.5 -7t7.5 -2t9 2t5 7q0 4 -1 7t-5 3q-2 0 -4.5 -1t-5 -1.5t-5 -1.5t-3.5 -1z" />
</svg>
