<?xml version="1.0" standalone="no"?>
<!DOCTYPE svg PUBLIC "-//W3C//DTD SVG 1.1//EN" "http://www.w3.org/Graphics/SVG/1.1/DTD/svg11.dtd" >
<svg xmlns="http://www.w3.org/2000/svg" xmlns:xlink="http://www.w3.org/1999/xlink" version="1.1" viewBox="-10 0 266 256">
   <path fill="currentColor"
d="M188 245q0 2 1 4t4 2q2 0 3 -1.5t2 -3.5v-23v-23q0 -1 -1 -7t-1.5 -14t-1.5 -16t-1 -12q-1 -7 -3.5 -13t-2.5 -12q0 -2 1.5 -4t3.5 -4l4 -4t2 -5q0 -2 -2 -5t-4 -5.5t-4.5 -5l-3.5 -3.5t-4 -2t-5.5 -2t-4.5 -2t-3 -1h-5q0 5 4 7.5t8.5 4t8.5 4t4 8.5v2.5t-0.5 3t-1.5 2.5
t-2 1q-5 -4 -9 -9t-8.5 -9t-9.5 -7t-12 -3q0 6 4 9t9.5 5.5t10 6t4.5 9.5q0 3 -1.5 3.5t-3.5 0.5q-4 0 -7 -2t-6 -4.5t-5.5 -5.5t-4.5 -5h-3v6q1 0 2.5 2t3 3.5l3 3l2 2t1 1.5l0.5 1q0 6 -3 9.5t-9 3.5q-5 0 -6 -2.5t-1 -4.5q0 -3 -0.5 -5t-2.5 -2t-3 1t-1 3t0.5 3.5
t0.5 2.5q-1 3 -4.5 3.5t-8.5 0.5q-4 0 -8 0.5t-4 3.5q0 2 2.5 3t3.5 1t3 -0.5t2 -1.5h4q3 0 4 0.5t1.5 1.5t0 2.5t-0.5 4.5h-2t-4.5 -0.5t-4.5 -0.5h-3t-3.5 1t-2.5 3v0l1.5 1.5l0.5 0.5h18l3 3q-1 2 -4.5 3.5t-8 3l-7.5 2.5t-3 3v21q-3 1 -4 4.5t-1.5 7.5t-0.5 8v6t0.5 3.5
t2.5 1.5q6 0 12 -1t11 -1h2q2 0 4 0.5t2 1.5v24q0 1 1.5 1h1.5q2 0 4 -1t2 -3v-24q7 -1 14 -1.5t15 -1.5l1 -1.5t2 -1.5v-1q0 -2 -3.5 -2.5t-4.5 -0.5q-6 0 -12 0.5t-12 0.5v-7l21 -3q2 -1 2 -3.5v-2.5h-22q0 -5 2.5 -6.5t6.5 -2t6.5 -1t2.5 -4.5v-13q0 -3 -3.5 -4
t-7.5 -1.5t-7.5 -1t-3.5 -2.5q0 -3 1 -5h6t6 -1t5.5 -2.5t2.5 -4.5v-17q4 0 7.5 -0.5t8.5 -0.5q3 0 5 2.5t3.5 6t2 7t0.5 6.5q0 1 0.5 5t0.5 9t0.5 9t0.5 5t0.5 4.5t1 7.5t1 7.5t0.5 4.5v2q0 2 -1 3.5t-1 3.5q0 4 1 8t1 8t-1 8.5t-1 8.5zM66 248q0 1 1 1h2h3t2 -1
q3 -13 3 -26v-26v-26t2 -27q0 -1 1 -3t1.5 -4.5t2 -4.5t3.5 -2q4 -1 10.5 -3t12.5 -4.5t11.5 -6t7.5 -9.5q-2 -1 -5 -1h-0.5h-0.5q-2 2 -5.5 4t-7.5 4.5t-7.5 4.5t-6.5 2t-3 -2q0 -5 4 -8.5t9.5 -5.5t9.5 -4.5t4 -4.5t-1.5 -3t-3.5 -1q-3 0 -8 4t-10.5 8.5t-9.5 8.5t-5 4
q-3 -1 -3 -3.5v-3.5q0 -7 4.5 -10t9.5 -6t9.5 -6t4.5 -10q-3 0 -8 3t-10.5 6.5t-10 7t-5.5 5.5v6q0 5 1 9.5t1 8.5q0 2 -1 5.5t-2.5 7.5t-2.5 7.5t-2 4.5v10t-0.5 15t-0.5 14.5v9.5v2v1v3.5v5t0.5 5l0.5 2.5v0.5v0.5q0 6 -0.5 12t-0.5 11v8zM103 212q0 -3 2.5 -4t5.5 -1.5
t6 -0.5h5h3h4q3 1 3 5q0 1 -0.5 2t-2.5 1h-4t-6 0.5t-6 0.5h-4h-0.5h-0.5q-2 0 -3.5 -0.5t-1.5 -2.5zM103 197l0.5 -1.5t1.5 -1.5q5 -1 8 -1h8q1 0 3 -0.5t4 0t3.5 1.5t1.5 2t-0.5 1.5t-0.5 1.5h-4.5t-7 0.5t-6.5 0.5h-5h-0.5h-0.5h-3t-2 -3zM113 184q-2 -1 -2 -3v-3v-2v-1
l9 -5h27q3 0 3.5 2.5t0.5 3.5q0 2 -0.5 4t-3.5 2q0 1 -2.5 1t-5 0.5t-4.5 1t-3 0.5h-0.5h-1.5h-1h-1h-3.5t-4.5 -0.5t-4.5 -0.5h-2.5zM137 146v-1l0.5 -1.5l0.5 -1.5h2.5h2.5h4t2 3t-2.5 3h-4.5h-3t-2 -2zM103 57q0 1 -3.5 3.5t-8 5l-9 5t-6.5 3.5q-3 1 -7 2.5t-7.5 3.5
t-6 4.5t-2.5 6.5q6 0 13 -3t14 -7t13.5 -8.5t11.5 -7.5q1 -1 2 -2.5t2 -3.5t2.5 -3.5t2.5 -1.5h11v34q3 0 6 -2t3 -5v-27q0 -1 2 -1h2q1 0 3 2t4 4.5t4.5 5l3.5 3.5q4 2 9 3.5t10.5 2.5t10 2t8.5 4q2 0 4 1.5t3 1.5t2.5 -2t1.5 -3v-1v0q0 -1 -0.5 -2l-0.5 -1q-1 0 -4 -1
t-5.5 -2l-5 -2t-3.5 -1q-4 -1 -9 -2t-10.5 -2.5t-9.5 -4t-5 -6.5q1 0 5 -0.5t8 -0.5h7.5h5.5h18q3 -1 5.5 -1.5t2.5 -4.5q0 -2 -2 -2.5t-4 -0.5q-11 0 -22 1t-22 1v-4l2.5 -2t4.5 -2q4 -3 8 -4t7 -3t5 -4.5t2 -7.5q-6 0 -12 3t-11.5 7.5t-10 9.5t-8.5 9h-1q-4 0 -4.5 -3
t-0.5 -6q0 -7 4 -10.5t8.5 -5t8 -2.5t3.5 -5v-1l-1 -1l-2 -2q-1 1 -3.5 2t-5.5 2l-6 2t-4 2q-1 0 -3 1t-4.5 2.5t-2.5 2.5v20q0 2 -2 3t-3 1q-5 0 -10 -4.5t-10 -9.5t-10.5 -9t-12.5 -4q-3 0 -3 1v2q0 5 4 7t9.5 4.5t9.5 4.5t4 5q0 2 -2.5 2t-7 0.5t-9.5 0t-9 0t-7 1.5t-3 3
t1.5 2.5t3.5 0.5q8 0 15.5 -1t15.5 -1h4q0 1 1 2t0 1z" />
</svg>
