<?xml version="1.0" standalone="no"?>
<!DOCTYPE svg PUBLIC "-//W3C//DTD SVG 1.1//EN" "http://www.w3.org/Graphics/SVG/1.1/DTD/svg11.dtd" >
<svg xmlns="http://www.w3.org/2000/svg" xmlns:xlink="http://www.w3.org/1999/xlink" version="1.1" viewBox="-10 0 266 256">
   <path fill="currentColor"
d="M126 189q0 8 3.5 11t8 4.5t8.5 2t6 4.5q1 1 2 3.5t2.5 5.5t3 5.5t1.5 3.5q1 2 3.5 5.5l5 7t5.5 6.5t6 3q7 0 7 -7q0 -5 -4 -7.5t-8 -5.5t-8 -7t-4 -10v-1q5 -6 8 -7.5t6.5 -2.5l7 -2t8.5 -5q3 -2 5 -3.5t3 -3.5t1.5 -4.5t0.5 -5.5q0 -7 -3.5 -10.5t-8 -5.5t-8.5 -4t-4 -6
t2 -6t4 -3.5t4 -4t2 -6.5q0 -5 -2 -8.5t-6 -5t-8.5 -2t-8.5 -0.5q-5 0 -10 1t-9.5 3t-7 5.5t-2.5 9.5q0 4 2 6t4.5 4t4.5 3.5t2 5.5q0 5 -4 8t-8.5 6t-8.5 7.5t-4 12.5zM86 237q1 1 2 1.5l1 0.5q2 0 3 -1.5t2 -2.5v-12v-9.5v-13.5t0.5 -13.5t0.5 -9.5q1 -1 3 -1.5t3 -1.5
h2.5t3.5 -0.5t3.5 -0.5h2.5q1 -1 2 -2.5l1 -1.5q0 -1 -0.5 -1.5t-1.5 -0.5q-4 -3 -8 -2.5t-9 0.5l-3 -2v-14q0 -3 3 -3.5t7 -0.5t7 -0.5t3 -3.5v-1l-0.5 -0.5l-0.5 -0.5h-19v-13q0 -3 3.5 -3.5t7.5 -2t7.5 -5.5t3.5 -13q0 -11 -5.5 -15t-16.5 -4v-16l1 -1q3 -2 8.5 -3
t7.5 -2q1 0 1.5 -0.5l0.5 -0.5q0 -1 1.5 -3l1.5 -2v-33q0 -2 -1.5 -3.5t-3.5 -1.5q-4 0 -4 2.5v5.5t-1.5 5.5t-6.5 2.5h-3t-2 -1v-2.5t0.5 -3.5t0.5 -3.5v-2.5q0 -6 -5 -6h-2.5t-1.5 2v20l-26 3q-1 0 -1.5 1t-0.5 2t0.5 1.5l1.5 1.5h4h4h4.5h3.5q1 0 3 -0.5t3 -0.5
q4 0 4.5 3t0.5 5q0 5 -4.5 7t-10 3t-11.5 1h-9v1.5v1.5q0 4 1 5t5 1q1 0 3.5 -1t5 -1.5l5 -1l2.5 -0.5h6h5l1 4v0q0 6 -2 9.5t-5 5t-6.5 2.5t-6.5 2.5t-5 4t-1 8.5l1 3.5t2 4.5q0 2 1.5 5l1.5 3q1 2 4.5 3t7 1.5t6 0.5t2.5 1v12q0 1 -1.5 1.5t-3.5 1t-4 0.5h-3q-6 0 -8 -1
t-2 -2v-4t-4 -4q-3 2 -4 3t-1 3q0 1 0.5 7.5t2 13.5t3.5 13t5 6h20q2 0 2 2v2q0 11 -1 21t-1 21v15zM150 175q-2 0 -2.5 1l-1.5 3v3.5t-0.5 5t-0.5 5v3.5h-3q-4 0 -6.5 -2t-2.5 -6q0 -7 3.5 -10t7.5 -5t7.5 -4t5.5 -6v-2v-3v-3v-1q0 -1 0.5 -2l0.5 -1h14q1 7 4.5 10.5t8 6.5
t7.5 6t3 8q0 2 -1.5 3.5t-3.5 3t-4 2.5t-3 1q-3 0 -4 -2.5t-1 -5t-0.5 -5.5t-1.5 -3q-1 -1 -3 0l-2 1v18l-2 2.5t-3 3.5l-2.5 2.5t-2.5 0.5q-3 0 -4.5 -4.5t-2 -10t-1.5 -10t-3 -4.5zM66 157q0 -3 1 -5t3.5 -3t5 -1h5.5h3t2 1v15q0 3 -2.5 3h-3.5q-5 0 -9.5 -2t-4.5 -8z
M145 134q0 -2 2 -4t5 -3.5t6.5 -2.5t5.5 -1q1 0 4.5 1l7 2t6.5 2.5t3 3.5q0 4 -3 6t-7 2.5t-8 0.5h-7h-4.5t-5 -0.5t-4 -2t-1.5 -4.5zM70 106q0 -5 3 -8t7 -4.5t8.5 -1.5h8.5q5 0 8.5 2t3.5 7q0 6 -3 8.5t-7 4t-8.5 2t-8.5 0.5q-5 0 -8.5 -2t-3.5 -8zM133 92q0 12 7 16.5
t18 4.5q1 0 2 -0.5l1 -0.5q2 0 5.5 -0.5t7.5 -1t7.5 -1.5t4.5 -1q3 -1 5.5 -3.5t4.5 -5.5t2.5 -6.5t0.5 -6.5q0 -7 -2 -10.5t-6 -5t-9 -1.5t-10 -1l-2 -1v-10q0 -1 1 -1.5t2 -0.5t3.5 -0.5t5.5 -1t5.5 -1t3.5 -0.5q6 -4 6.5 -9t0.5 -11v-4.5v-4.5t-1 -2t-2 -1q-4 -1 -5 1
t-1 5t0.5 6.5t0 6.5t-3.5 5.5t-10 2.5q-1 0 -2.5 -0.5l-1.5 -0.5l-3 -1v-35q0 -1 -2 -2t-3 -1q-1 -1 -2.5 0.5t-1.5 2.5v19.5t-2 20.5h-5q-5 0 -7.5 -2t-3.5 -5.5t-1.5 -7.5t0.5 -8q-2 -3 -6 -3v22q0 6 3 8t7.5 2.5t8.5 0t7 -0.5v11q0 1 -2 1.5t-5 0.5t-6.5 1t-7 3.5t-5.5 7
t-2 11.5zM141 98v-2q3 -1 6.5 -2t7.5 -1q2 0 3.5 1.5t1.5 4.5t-3 5h-5h-4t-3.5 -1t-2.5 -2t-1 -3zM181 92h5q1 0 1.5 0.5t0.5 1.5v0q0 3 -2 5t-5 2.5l-6 1t-5 0.5v-9q0 -1 1.5 -1.5t3.5 -0.5h4h2zM155 77q3 0 4 1t1 4t-0.5 3.5t-4.5 0.5h-2.5t-5 0.5t-4.5 0.5h-3
q0 -3 2 -4.5l4 -3t5 -2t4 -0.5zM170 77h4h3h3.5h3.5t3 1t1 3t-1 2.5t-4 1.5h-2h-4h-4h-3v-8zM94 50q0 -5 3 -6.5t6 -1.5t3.5 1t0.5 4q0 5 -1.5 6.5t-5.5 1.5h-5l-0.5 -2.5z" />
</svg>
