<?xml version="1.0" standalone="no"?>
<!DOCTYPE svg PUBLIC "-//W3C//DTD SVG 1.1//EN" "http://www.w3.org/Graphics/SVG/1.1/DTD/svg11.dtd" >
<svg xmlns="http://www.w3.org/2000/svg" xmlns:xlink="http://www.w3.org/1999/xlink" version="1.1" viewBox="-10 0 266 256">
   <path fill="currentColor"
d="M83 248q0 1 1.5 1.5t2.5 0.5q2 0 3 -1.5t2 -3.5v-21q0 -4 0.5 -9t0.5 -10.5v-9v-3.5l2 -2l18 -3q2 0 2 -1.5v-2.5q0 -2 -0.5 -3.5t-2.5 -1.5q-4 0 -7 1t-7 1h-2.5h-2.5l-1 -2v-2v-3v-4v-3q0 -1 0.5 -2l0.5 -1l16 -3l1 -1l2 -2v-1v-1q-1 0 -2 -1.5l-1 -1.5h-16l-0.5 -1
t-0.5 -2.5v-3.5v-2v-2.5t1 -1.5l17 -7q1 0 2 -1.5t1 -2.5v-4v-5q0 -11 -4.5 -16t-16.5 -4l-2 -1v-17q7 -2 11 -4t6.5 -5.5t3.5 -8t2 -11.5q1 -5 2 -11t1 -11q0 -2 -1 -5.5t-4 -3.5h-1q0 1 -1 2l-2 2q1 4 1 7.5t-1 6t-3.5 4t-6.5 1.5h-4t-3 -3q0 -1 0.5 -3.5t0.5 -5.5
t-0.5 -5.5t-0.5 -3.5v-2.5t-0.5 -3t-1 -2.5l-0.5 -1h-5v30q0 3 -4.5 3.5t-10 0.5t-10 1t-4.5 5q0 1 1 1.5l2 1t2 0.5h3q4 0 8 -1t8 -1h2q1 3 1.5 6t0.5 7v7h-8t-10 1t-8.5 3t-3.5 7q6 0 12 -1t12 -1q4 0 5 3t1 6q0 4 -2 5.5t-5.5 2.5t-7 1.5t-6.5 2.5t-5 5.5t-2 10.5t2.5 10
t7 5t9.5 2.5t10 0.5q2 0 1.5 2.5l-0.5 2.5v6.5t-2 4.5h-3.5h-3.5q-5 0 -7 -1.5t-3 -3.5t-2 -3.5t-4 -1.5h-2t-1 1v35q0 4 3.5 5.5t8.5 2t9 0.5h6l1 1v9q0 10 -0.5 20t-0.5 20v9zM169 199q0 12 0.5 25t5.5 24h1h1q4 0 4 -1.5v-4.5q0 -11 -2 -21.5t-2 -20.5v-11.5t1 -11.5
l0.5 -0.5t1.5 -0.5q3 0 4.5 2t3.5 4.5t4 4.5t4 2t4 -2t2 -4v-2l-18 -17l1 -3t2.5 -7t3 -7.5t1.5 -4.5h-5l-7 7h-1q-3 0 -5 -2t-3.5 -5.5t-2 -7t-0.5 -5.5h4h6q4 0 6.5 0.5t4.5 0.5l2.5 -0.5t4.5 -0.5t3.5 -0.5t2.5 -0.5l0.5 -1t0.5 -2q0 -4 -2 -4.5t-5 -0.5q-5 0 -9.5 1
t-9.5 1h-6q-1 0 -1.5 -0.5t-0.5 -1.5v-1q0 -2 2.5 -2.5t6 -0.5t6 -1t2.5 -4t-3 -3q-4 0 -7 1.5t-7 1.5q-2 0 -3.5 -1.5t-1.5 -3.5q0 -3 2 -4.5t5.5 -2l7 -1t6.5 -2.5t5 -5t2 -10t-2.5 -10.5t-7 -5t-9.5 -1t-11 0.5q0 -4 0.5 -6.5t1.5 -4.5t3 -4t5 -4q3 -1 8 -0.5t10 0
t8.5 -2.5t3.5 -6h-22q-1 0 -2 -1.5l-1 -1.5v-1q0 -2 0.5 -4t2 -3.5t2.5 -3t1 -3.5t-1.5 -4.5t-4.5 -2.5q-2 0 -4.5 5.5t-4.5 13t-5 14t-6 8.5q-3 -2 -5 -8l-4 -12t-4 -11t-5 -5t-3 3q0 4 2.5 7.5t2.5 7.5q0 3 -2 4.5t-4.5 2.5t-5.5 1h-5l-3 3q0 1 1.5 2t2.5 1h19q1 0 2 1
t1.5 2.5t1.5 3.5t1 3q0 4 -3 6t-7.5 3t-8.5 2t-7 5v4v3v4t0.5 6t1.5 5.5t4 2.5h24q1 0 2 3t1.5 6.5t1 6.5t0.5 4q0 3 -2.5 4t-5.5 1q-1 0 -4.5 0.5l-7 1t-6.5 1t-4 0.5q-3 1 -4 1.5t-1 2.5q0 4 2 4h3q1 0 4.5 -1t8 -1.5t8.5 -1t5 -0.5h1q2 0 5 4t5.5 9.5t4 10t1.5 6.5
q0 9 -1.5 18t-1.5 19zM139 238q0 2 1 2.5t3 0.5q4 0 5.5 -3.5t2 -8l1 -9t0.5 -7.5q1 -3 1.5 -10.5t1.5 -15.5t1.5 -15.5t0.5 -9.5v-1q0 -3 -2 -6.5t-6 -3.5h-8t-10 1t-8.5 3t-3.5 4v1v2q5 0 7.5 1t2.5 5q0 7 -1.5 15.5t-3.5 16.5t-4.5 16.5t-4.5 15.5l1 1.5t2 1.5
q4 0 6.5 -5.5t4.5 -14t3 -18.5t2.5 -18t3 -13.5t5.5 -5.5h2.5t0.5 3v11q0 17 -1.5 32t-5.5 31v1zM65 177v-11q0 -1 2 -1t4.5 -0.5t4.5 -0.5h3h2h2l1 2v14h-16zM63 127q0 -7 2.5 -11t7 -5.5t9.5 -2t10 -0.5h8q1 0 2.5 0.5t1.5 1.5v13l-1.5 1.5l-2.5 2.5q-2 0 -5 1.5l-3 1.5
h-23q-1 0 -3 -1t-3 -2zM148 77q0 -4 2 -4.5t5 -0.5t5 1.5t3 3.5t1.5 5t0.5 6q0 2 -0.5 4.5t-3.5 2.5q-8 0 -10.5 -6t-2.5 -12zM130 84q0 -3 1.5 -6t5.5 -3q1 0 3 2t2 4v2.5v3.5v4v3q-5 0 -8.5 -2t-3.5 -8zM168 73h12q1 0 1.5 1.5t1.5 3.5t1 4v2q0 4 -1.5 5t-4.5 1
q-2 0 -4 -1.5t-3.5 -4t-2 -5.5t-0.5 -6zM90 70v-6q0 -2 0.5 -4.5t1.5 -4.5t3.5 -2.5t5.5 -0.5q1 0 3 2.5t2 4.5t-1.5 4t-3.5 4t-4 3.5t-4 1.5h-1l-0.5 -1t-1.5 -1z" />
</svg>
