<?xml version="1.0" standalone="no"?>
<!DOCTYPE svg PUBLIC "-//W3C//DTD SVG 1.1//EN" "http://www.w3.org/Graphics/SVG/1.1/DTD/svg11.dtd" >
<svg xmlns="http://www.w3.org/2000/svg" xmlns:xlink="http://www.w3.org/1999/xlink" version="1.1" viewBox="-10 0 266 256">
   <path fill="currentColor"
d="M109 251q5 1 9.5 1t8.5 0.5t7 0.5h9q11 0 17 -1t9.5 -3.5t4.5 -8.5t1 -17v-2q-1 -4 -1.5 -8.5l-1 -9t-0.5 -7.5v-3h-7v9h-3t-7 0.5t-7 -0.5h-4t-3.5 -1t-2.5 -2t-1 -4q0 -1 0.5 -2.5l1 -3t2 -3t2.5 -1.5h25q2 0 4 -3t3.5 -7.5t2.5 -8.5t1 -5t-0.5 -3t-0.5 -3l-6 -1v15
q0 2 -3 3.5t-7 3t-7.5 2.5t-5.5 1q-1 0 -4 -0.5l-3 -0.5q-1 0 -1.5 -1l-1 -2t0 -2l0.5 -1q0 -4 1 -5.5t3 -2.5l4 -2t4 -3q0 -1 1 -4l2 -6t2.5 -6t2.5 -3h23q1 0 1.5 -1.5t0.5 -2.5q0 -3 -5 -3v0h-4t-7 0.5t-7 0.5h-4q-5 1 -16 1t-24 0.5t-24.5 0.5h-16.5q0 1 -1.5 2l-1.5 1
v1v1l0.5 1t1.5 1h28q2 0 2.5 2.5t1 5.5t1.5 5.5t5 3.5q0 1 2.5 1.5t4.5 1t4.5 0.5t3.5 1q2 0 2.5 2t0.5 4q0 6 -3.5 8t-8.5 2q-9 0 -14.5 -2t-8.5 -5t-4 -6.5t-1.5 -6t-1.5 -4.5t-4 -2h-1l-1.5 0.5l-1.5 0.5v7q0 3 0.5 7t2 7.5t4 5.5t6.5 3l34 3v5q0 5 -2 7.5t-7 2.5
q-3 0 -5.5 -1t-4.5 -2.5t-4.5 -2.5t-5.5 -1h-2q-3 0 -3 1v45l1.5 1t2.5 2l1.5 1l3 2l3 2t2.5 1zM107 237v-2t2 -2q10 -1 18 -1h19h3h5.5h4.5h4t1.5 1.5l0.5 1.5v1t-1.5 2.5t-4 3t-4.5 2.5t-3 1h-32q-1 0 -3.5 -1t-4.5 -2t-3.5 -2.5t-1.5 -2.5zM103 217q0 -3 3 -4.5t6.5 -2.5
t7.5 -1h7h3h5h6h5h4h4h4h2l5 2v1.5v2.5q0 5 -3.5 7.5t-8 3t-10 0t-9.5 -0.5q-2 0 -7 0.5t-10.5 0.5t-9.5 -2t-4 -7zM49 173q1 2 2.5 2h2.5h3t2 -2v-7v-11v-11.5v-7.5q0 -1 0.5 -3t1 -4.5t1 -4.5t0.5 -3q3 -5 8 -6t10 -2.5t8.5 -3.5t3.5 -10q0 -5 -2 -7t-4.5 -2.5t-5.5 -1
t-4 -4.5v-2t0.5 -3.5t0.5 -3v-2.5l2 -1t4.5 -2.5l5 -3t3.5 -3.5q-1 -2 -2 -2.5t-3 -0.5h-2h-1q-8 1 -14.5 2t-11.5 3t-8 6.5t-3 12.5v3v4q1 0 3 2.5t4 2.5h25q7 0 7 5q0 3 -4 4.5t-9.5 3t-10.5 3t-8 5.5q-3 3 -4 9t-1.5 12.5t0 13t0.5 11.5v10zM196 149q0 7 -1 13t-1 12h3
t3.5 -1t2.5 -2t1 -2v-44q0 -9 -6 -13t-13.5 -6t-13.5 -3t-6 -3v-1q0 -1 0.5 -2.5t1.5 -3t2 -2.5t3 -1h29q2 0 3.5 -2t2.5 -5t1.5 -5.5t0.5 -4.5q0 -3 -1.5 -6.5t-4.5 -3.5h-40q-2 0 -2.5 1t-0.5 2q0 2 1.5 3t3.5 1.5t4 0.5h4v12q-3 1 -6 2.5t-5.5 3t-4 4t-1.5 6.5q0 6 3 8
t7 3t8.5 1.5l9 1t7.5 2.5t4 6q1 8 1 14.5v13.5zM114 147v-1l0.5 -1.5l0.5 -1.5q2 0 6 -0.5t9 -0.5t9 -0.5t6 -0.5h0.5h1.5q2 0 2.5 1t0.5 3q0 4 -2 6t-4 3.5t-5.5 2t-5.5 0.5q-3 0 -6.5 -0.5t-6 -1.5t-4.5 -3t-2 -5zM93 123q0 2 1.5 2.5t3.5 0.5h1q3 0 12.5 -0.5t20 -1
t20 -1t13.5 -0.5l0.5 -0.5t0.5 -1.5v0v-1l-1 -1t-2 -1h-2.5t-4 -0.5t-4 -0.5h-2.5q-2 -1 -4.5 -5.5t-5 -10t-4 -10t-1.5 -6.5v-2.5v-3.5q1 -1 1.5 -2t1.5 -1t2.5 -0.5t2.5 -0.5q3 -2 5 -6.5t3.5 -10.5t1.5 -11v-8q0 -5 -1.5 -7t-4.5 -3t-6 -1.5t-5.5 -2t-4.5 -4.5t-2 -10
h-1.5h-0.5q-2 0 -3 1.5t-1 4v4.5t-1 3l-3 3t-2.5 1.5t-3.5 1t-4 2.5t-3 4t-1 5v5v4q0 7 0.5 12t3 8t7 4t13.5 2v3q0 5 -2 6.5t-5 2.5t-6.5 1.5t-6.5 1.5t-5 3t-2 6t1.5 7.5t1.5 7.5q0 2 -1.5 3l-3 2t-3.5 1h-3l-1 1v1zM110 101q0 -4 4 -5.5t8 -1.5q2 0 5 2t5.5 5t4 6t1.5 5
q0 3 -1 4t-2.5 1.5t-3.5 0.5h-4q-9 0 -13 -3.5t-4 -13.5zM56 80q0 -4 3 -6.5t7 -2.5q2 0 3 0.5t1 3.5v3.5t-0.5 5t-2 4t-4.5 1.5t-5 -3t-2 -6zM181 76v-2v-3q3 -1 5 -1.5t4 -0.5q5 0 7 1.5t2 6.5q0 2 -1 3.5t-2.5 2t-3.5 0.5h-3h-3h-3q-2 -1 -2 -4v-3zM113 58l0.5 -2l0.5 -2
q4 -2 9.5 -2h9.5h12q1 1 1.5 2t0.5 3q0 3 -2 5t-5 3.5t-6 2t-5 0.5q-7 0 -11.5 -2t-4.5 -8zM52 37q0 5 2 7t5 3.5t7 2t7 0.5q1 0 4.5 0.5t6 0t5 -2t2.5 -4.5v-17q0 -1 -2 -2.5t-5 -2.5t-5.5 -2t-4.5 -1q-8 0 -15 5t-7 13zM166 39v5l3.5 3.5t3.5 2.5h26q3 0 4.5 -1.5t2 -3.5
t0.5 -4v-4v-6q-4 -5 -9 -6t-10 -1q-4 0 -8 1t-6.5 2.5t-4.5 4.5t-2 7zM114 44q0 -1 -0.5 -1.5t-0.5 -1.5q0 -2 2 -4t4 -3t4.5 -1.5t5.5 -0.5q7 0 12.5 3t5.5 11h-4.5h-7.5t-8 -0.5t-5 -0.5t-4.5 -0.5zM173 39q0 -6 3.5 -7t8.5 -1t9 1.5t4 6.5q0 2 -1.5 3.5t-3.5 2t-4.5 1
t-3.5 0.5q-2 0 -4.5 -0.5t-4 -1t-2.5 -1.5t-1 -4zM62 35q0 -4 4.5 -5t8.5 -1t6.5 1.5t2.5 5.5q0 5 -3 6.5t-8 1.5t-8 -1.5t-3 -7.5z" />
</svg>
