<?xml version="1.0" standalone="no"?>
<!DOCTYPE svg PUBLIC "-//W3C//DTD SVG 1.1//EN" "http://www.w3.org/Graphics/SVG/1.1/DTD/svg11.dtd" >
<svg xmlns="http://www.w3.org/2000/svg" xmlns:xlink="http://www.w3.org/1999/xlink" version="1.1" viewBox="-10 0 266 256">
   <path fill="currentColor"
d="M194 248q1 1 2.5 2t2.5 1q2 0 3.5 -1.5t2 -3.5t0.5 -4v-4q0 -5 -1 -10t-2.5 -9.5t-3.5 -9t-4 -9.5q0 -1 -0.5 -2t-1.5 -2q-3 -3 -8.5 -4t-10.5 -2.5t-8.5 -3.5t-3.5 -6t3 -6t7.5 -2.5t9.5 -0.5t9 -1t7 -2.5t3 -5.5v-18q0 -3 -4 -4.5t-8.5 -2.5t-8.5 -2.5t-4 -3.5
q0 -4 3 -6t6.5 -3t7.5 -2.5t5 -5.5q3 -7 3 -15v-16v-22t-1 -23l-2 -4t-3 -4q-4 4 -4.5 7.5t-1.5 8.5h-1.5h-0.5q-2 0 -4.5 -1.5t-4 -3.5t-2.5 -4.5t-1 -4.5v-4t3 -3h23l3 -2v-9h-5q-3 0 -7 0.5t-7.5 0.5h-5.5q-3 0 -8.5 0.5t-11.5 2t-11.5 3.5t-6.5 5q0 9 -0.5 18l-1 18
t-1.5 18t-1 18q0 8 3 14t10 10v2q0 6 -4.5 10.5t-9.5 8.5t-9.5 7t-4.5 5q0 3 0.5 3.5t3.5 0.5q6 0 10.5 -2.5t8 -6.5t6.5 -9t5.5 -9t4.5 -7t4 -3h2.5t1.5 1v15l3 1.5t4 2.5q3 1 5.5 1.5t4.5 1.5t3 3t1 6q0 3 -2.5 4t-6.5 1.5t-8.5 1t-8.5 3t-7 7t-3 13.5q0 1 0.5 3.5
l0.5 2.5l3 5q11 2 17 4.5t9.5 5.5t4 6.5t1 8.5t1.5 12t4 16zM62 234v6q7 0 11.5 -6t8 -14.5t6 -17t5.5 -13.5q2 -8 3 -15t2 -13.5t1.5 -13.5t1.5 -16q0 -5 2 -7.5t5 -3.5t6.5 -1.5t6.5 -1.5t4.5 -3t1.5 -6q0 -6 -2.5 -11.5t-6 -11t-6 -11t-2.5 -10.5q0 -6 2 -10.5t5 -9t5 -9
t2 -9.5q0 -3 -1.5 -5t-4.5 -3h-11h-11q-2 0 -7.5 0.5t-11 0.5t-11 0.5t-7.5 0.5q-4 0 -5 1t-1 5q0 5 3 9l6 8q-1 2 0 3.5t3 0.5l8 13q0 1 -1.5 4t-3.5 8t-5 10.5t-5.5 11t-4.5 10t-2 7.5q0 4 2 6.5t6 2.5h28q3 0 4 1t1 3v3q-1 0 -1.5 2.5t-0.5 3.5q-2 14 -4 27t-5 25
t-7.5 24t-11.5 25zM149 104v-3t2 -2q4 -1 7 -1t6 -0.5t6 -0.5h7q5 0 8 1.5t3 7.5v1.5v2.5q-6 2 -12.5 3t-12.5 1t-10 -2t-4 -8zM63 110v-5q0 -2 2.5 -7t5 -10.5t5.5 -9.5t5 -4h1l11 9l1 0.5l1 0.5q2 0 3 -1l2 -2l2 -2t3 -1h1h1q6 6 7 13t1 15q0 2 -1.5 3t-3.5 1.5t-3.5 0.5
h-2.5h-15h-13t-13 -1zM146 86q0 -4 1 -6.5t3.5 -3t5.5 -0.5t7 -1h2t4 -0.5t4 -0.5h2h6h5q2 2 2.5 4t0.5 5q0 2 -1.5 4t-4.5 2h-34q-3 0 -3 -1v-2zM87 61q0 -3 1.5 -5t4.5 -2q4 0 5 4t1 6q0 7 -6 7q-3 0 -4.5 -3.5t-1.5 -6.5zM170 46h1h1q4 5 8.5 8.5t10.5 5.5v1v0v1
l-0.5 0.5t-1.5 0.5q-1 1 -4 2l-3 1h-34q0 -3 2.5 -6.5t6 -6.5t7 -5t6.5 -2zM67 37v-2v-1q0 -2 4.5 -3.5t11 -2.5t12.5 -1h8h4h3l2 2v11q-2 1 -2.5 2.5t-1.5 2.5l-2 2t-3 1q-1 0 -1.5 -0.5l-0.5 -0.5l-9 -7h-1q-3 0 -4.5 1t-3 2.5t-2.5 3t-3 1.5t-2 -0.5t-2 -1.5q0 -1 -1 -2
l-2.5 -2.5t-2.5 -3zM147 42q0 -8 4 -11.5t12 -3.5v13q0 1 -2 2t-4 2.5t-4 2l-2 0.5q-4 -1 -4 -5z" />
</svg>
