<?xml version="1.0" standalone="no"?>
<!DOCTYPE svg PUBLIC "-//W3C//DTD SVG 1.1//EN" "http://www.w3.org/Graphics/SVG/1.1/DTD/svg11.dtd" >
<svg xmlns="http://www.w3.org/2000/svg" xmlns:xlink="http://www.w3.org/1999/xlink" version="1.1" viewBox="-10 0 266 256">
   <path fill="currentColor"
d="M200 183v1q-2 5 -6 7.5t-8.5 4.5t-8.5 4t-4 5v19q0 2 3.5 5.5t8 7t9 6.5t7.5 3t6 -1t3 -4q0 -4 -4.5 -6.5t-9.5 -5.5t-9 -6.5t-4 -10.5q0 -2 2 -4l3 -3t3.5 -2t5 -2.5l5 -3t3.5 -1.5l1 -1.5t1.5 -2.5t1 -2.5t1.5 -2.5v-1q0 -10 -4 -14t-8.5 -6.5t-8.5 -5t-4 -9.5v-2
q1 0 3 -2.5t4.5 -5l4.5 -4.5l3 -3q2 -3 3.5 -8t1.5 -10v-9.5v-8.5v-8.5t0.5 -14t0.5 -14v-8.5v-9v-4v-5t-1.5 -3t-4.5 -1t-4 3.5t-1 7.5v7.5t-3 3.5h-1q-1 0 -2.5 -0.5t-2.5 -0.5l-13 -14v-2v-2v-2t0.5 -4t1 -3.5t1.5 -1.5h24q1 0 3 -2t2 -4t-2 -3.5t-4 -1.5h-1
q-2 0 -5.5 0.5t-7 0.5h-6h-3.5q-2 1 -7 1.5t-11 1.5t-11 2t-7 1q-3 1 -4.5 2.5t-2.5 4t-1 5v5.5q0 1 -0.5 5t-0.5 9.5v12t-0.5 12t-0.5 9.5v5v5v4q0 1 0.5 5t0.5 8.5t0.5 8.5t0.5 6l1 3t2 3l3.5 3.5t5 5.5t5 5.5t3.5 2.5v1.5v0.5q0 15 -4.5 30t-14.5 27q-2 4 -6.5 7t-8.5 7
v2q0 1 0.5 2.5t1.5 2.5q3 0 6.5 -1.5t6 -4.5t5 -6.5t4.5 -4.5q0 -1 1.5 -3t3 -4.5t3 -4.5t2.5 -2q1 -3 2.5 -11.5t3 -17.5t3.5 -16t4 -7q5 -1 7.5 1t3.5 5.5t1.5 7t2.5 6.5q1 3 4 4.5t6.5 3t6.5 3.5t3 6zM102 19q-6 0 -15.5 -0.5t-18 0.5t-15 6t-6.5 15v137q0 9 6.5 13
t15.5 5t18.5 1h14.5h3.5h4.5h4.5h3.5q1 0 2 -1.5t2 -1.5v-1q0 -3 -3.5 -3h-7.5t-7.5 -1.5t-3.5 -5.5q0 -10 1 -18t3 -15.5t5.5 -14t8.5 -14.5q0 -2 1 -6t1 -7q0 -9 -3 -15t-6 -10.5t-6 -9.5t-3 -14v-4.5t0.5 -8t0.5 -8v-5.5q1 -2 4.5 -3t7 -1.5t6 -1t2.5 -2.5t-1.5 -3.5
t-3.5 -1.5h-3h-5h-5h-3zM77 151l2 -3v-6t0.5 -14t0.5 -16.5v-13.5q0 -4 0.5 -12.5t0.5 -18.5t-0.5 -18.5t-0.5 -12.5q0 -5 2.5 -6t6.5 -1q1 0 4 0.5t3 2.5v42q0 4 2.5 8t5.5 7.5t5.5 7.5t2.5 9t-2 10.5t-4.5 11t-5.5 10.5t-5 10q-1 3 -1 9t-1 12.5t-3 11.5t-7 5h-1.5
t-3 -0.5t-1.5 -1.5v-33zM59 177q-3 -15 -3.5 -28t-0.5 -28v-4v-6t0.5 -5t0.5 -3l1 -2l-1 -2v-53q0 -5 2 -9.5t8 -4.5h2.5h1.5l2 4v10v14v9t-0.5 16t-1 19t-1 19t-0.5 16v9v7v9q0 4 -0.5 8.5t-1.5 7.5q0 2 -1 2h-2q-3 0 -4 -1.5t-1 -3.5zM141 123v-2v-2.5t0.5 -2.5t1.5 -1
q5 -1 9.5 -1t8 -0.5t7.5 -0.5h9h14q2 2 3 3.5t1 2.5q0 7 -2.5 11t-6.5 6t-9.5 2.5t-10.5 0.5q-4 0 -8.5 -0.5t-8 -2.5t-6 -5t-2.5 -8zM145 84q11 1 21.5 -0.5t21.5 -1.5q2 0 4 0.5t3 3.5v6v5.5t-2 5.5q-11 2 -23 3t-23 1q-1 0 -4 -1t-3 -3v-15q0 -2 2.5 -3zM140 72
q0 -3 4 -6.5t9 -6.5t10 -5.5t8 -2.5q1 0 5 2t8.5 5t7.5 6t3 5v2.5t-2 2.5q-10 0 -20.5 1t-21.5 1h-2t-4 -0.5t-3.5 -1t-1.5 -2.5zM140 52v-5v-4q0 -10 3 -13.5t13 -3.5h6q1 3 1 5v5q0 8 -5.5 12.5t-13.5 4.5h-2t-2 -1z" />
</svg>
