<?xml version="1.0" standalone="no"?>
<!DOCTYPE svg PUBLIC "-//W3C//DTD SVG 1.1//EN" "http://www.w3.org/Graphics/SVG/1.1/DTD/svg11.dtd" >
<svg xmlns="http://www.w3.org/2000/svg" xmlns:xlink="http://www.w3.org/1999/xlink" version="1.1" viewBox="-10 0 266 256">
   <path fill="currentColor"
d="M189 214q3 2 5 8.5t4 12.5t4.5 11t5.5 5q2 0 3 -1t2 -3v-4v-4q0 -10 -5 -19t-13 -16q-3 -3 -10 -3h-13q-7 0 -12 -1.5t-5 -6.5q0 -2 1.5 -4t3.5 -3q5 -2 13 -3t15.5 -2.5t13 -4.5t5.5 -10q0 -5 -2.5 -8.5t-5.5 -6t-7 -4t-8 -3.5l-0.5 -1.5l-0.5 -1.5l-0.5 -0.5l-0.5 -0.5
l0.5 -0.5l0.5 -0.5l0.5 -3t0.5 -4q10 0 15 -5t6 -16v-10t0.5 -15t1 -15t0.5 -10v-3q0 -1 -0.5 -4l-1 -6t-1.5 -5t-4 -2t-3.5 1.5t-1 4t-1 4.5t-3.5 2q-6 0 -9 -5t-3 -10v-2v-1l4 -2q1 0 4 -0.5t6.5 -0.5t7 -0.5t4.5 -0.5q3 0 4 -0.5t1 -3.5t-1.5 -4t-4 -1.5t-5 -0.5h-4.5
q-11 0 -21 1.5t-21 1.5q-1 1 -3.5 2t-4.5 3t-3 3.5t-1 3.5v77q0 7 2 10.5t4 5.5t4 3.5t2 3.5q0 5 -3.5 9t-8 7t-8.5 6t-4 5t1.5 2.5t2.5 0.5q8 0 13.5 -5.5t9.5 -11.5t7.5 -11.5t7.5 -5.5q2 0 3 2t1.5 4.5t0.5 5v2.5q1 4 4.5 6.5t6.5 4t5.5 3t2.5 3.5q0 4 -3 5.5t-7.5 2
t-10.5 1.5t-11.5 3t-10 5.5t-7.5 10.5v1v2q0 2 0.5 5t1.5 6t2.5 5t3.5 2q9 0 18 0.5t18 1.5zM47 212v0q0 1 0.5 2t1.5 2h23h23h8t10.5 -1t10 -2.5t4.5 -5.5l-0.5 -1.5t-1.5 -1.5h-32q-1 0 -4 -1t-3 -3v-1l0.5 -1.5t0.5 -2.5t0.5 -2.5l0.5 -1.5v-7v-12v-12v-8v-3.5t0.5 -5
t0.5 -4t1 -1.5l3 -4h3.5h5.5h6h4q2 0 5 -1.5t3 -3.5q1 -2 -2 -3t-4 -2h-20l-1 -1l-0.5 -2t-0.5 -4t-0.5 -4t-0.5 -4v-5q0 -5 1.5 -7.5t5 -4t7 -2t7.5 -1.5l1 -1.5l1 -1.5v-1q0 -1 -1 -1.5t-2.5 -0.5h-3h-1.5q-11 0 -16 2.5t-7.5 7t-2.5 12v18.5l-1 0.5l-1 0.5q-2 2 -5.5 2.5
t-7.5 0.5t-6.5 0.5t-4.5 0.5q-2 1 -2.5 2t-0.5 2q0 3 2.5 4.5t4.5 1.5q5 0 10.5 -1t11.5 -1v9.5t-0.5 11.5t-1 11t-1.5 8v29h-26q-2 0 -3.5 2.5t-1.5 4.5zM55 189q0 2 1 3.5t3 1.5q3 0 5 -3.5t2 -6.5v-26q0 -1 -1 -3.5t-2 -3.5q0 -1 -0.5 -1.5t-1.5 -0.5v0h-1l-2 2l-1 1v6v9
v8v6l-1 3l-1 3v1v1zM107 149h-1q-1 1 -2.5 1.5l-1.5 0.5v38l1 1t2 1h0.5h0.5v0q1 0 2 -1.5t2 -2.5q1 -8 1.5 -13t0.5 -13v-10q-1 0 -2 -0.5t-2 -1.5h-1zM148 118q0 -3 1 -4.5t2.5 -2.5t3.5 -1.5t3 -0.5q7 0 14.5 -1t14.5 -1q3 0 5.5 1t2.5 5q1 3 -1.5 5t-5.5 3.5t-6.5 2.5
t-5.5 1h-6t-8.5 -1t-8 -2.5t-5.5 -3.5zM148 93v-3t2 -2q9 -2 15 -2h15h3h4h4h3q2 1 2.5 3t0.5 5q0 1 -2.5 3t-4.5 2h-38q-3 0 -3.5 -2.5t-0.5 -3.5zM45 73q0 1 0.5 3t3.5 2q1 -1 3.5 -2t2.5 -2q6 -10 14.5 -21t14.5 -20l1.5 -1.5t1.5 -0.5q2 0 2.5 0.5t2.5 3.5q1 1 3.5 4
l5 6t4 5t1.5 3q2 2 3.5 6t3.5 7.5t4.5 6.5t5.5 3q2 0 2.5 -2t0.5 -5v-3q-2 -3 -5 -8t-6.5 -10.5t-7 -12t-7 -11.5t-7 -8t-5.5 -3h-4l-1.5 1.5t-4.5 6l-7 10.5t-8.5 13t-8.5 12.5t-6.5 10t-2.5 6.5zM169 54h2q2 0 6 2.5t8.5 5t8 6t3.5 5.5v1.5t-2 1.5h-48q0 -4 2.5 -7.5
t6 -6.5t7 -4.5t6.5 -3.5zM71 61q0 3 2.5 4t4.5 1h6.5h7.5t6.5 -2t2.5 -6h-28q-2 0 -2 1.5v1.5zM148 49q0 -8 4.5 -11.5t11.5 -3.5l1.5 0.5t2.5 0.5q1 1 1.5 2.5t0.5 3.5q0 3 -2 5t-5 3.5t-6 2.5t-5 1t-3 -1t-1 -3z" />
</svg>
