<?xml version="1.0" standalone="no"?>
<!DOCTYPE svg PUBLIC "-//W3C//DTD SVG 1.1//EN" "http://www.w3.org/Graphics/SVG/1.1/DTD/svg11.dtd" >
<svg xmlns="http://www.w3.org/2000/svg" xmlns:xlink="http://www.w3.org/1999/xlink" version="1.1" viewBox="-10 0 266 256">
   <path fill="currentColor"
d="M189 249q0 1 0.5 1.5t1.5 0.5h2.5h3.5v-54q0 -3 -4.5 -5t-10 -3t-11 -2.5t-7.5 -2.5v-2.5v-1.5q0 -5 2 -7t5 -3t6 -1t7 -1q1 -1 3 -2t4.5 -2t4 -1.5l1.5 -0.5v-17q0 -1 -3 -2t-7 -1.5t-9 -1.5t-9 -1.5t-7 -2.5t-3 -4t0.5 -3.5t3.5 -2.5q2 0 6.5 -0.5t8.5 -1.5t8 -2.5
t6 -4.5q5 -11 5.5 -23.5t-0.5 -24.5q1 -2 1 -4v-4v-4v-6t-1 -5t-2 -2h-1q-2 1 -2.5 3.5t-0.5 5t-0.5 4.5t-3.5 2q-2 0 -4.5 -1.5t-5.5 -3.5t-5 -4.5t-2 -4.5t0.5 -4t2.5 -4q1 0 3 -0.5t4.5 -0.5t4.5 -0.5t3 -0.5q2 0 4 -0.5t4 -1.5t3.5 -2t1.5 -4q0 -2 -1 -3t-3 -1
q-4 0 -12 1l-16 2t-15.5 3t-11.5 3q-1 8 -1 14.5t-0.5 12.5t-0.5 13v13v23q1 5 2.5 7.5t4 4.5t4 3.5t1.5 4.5q0 5 -2.5 9.5t-6.5 8.5l-8 8t-6 8v1q0 2 0.5 2.5t2.5 0.5h1h1l2.5 -2.5l3.5 -3.5t4 -3.5t2 -2.5q1 -1 1.5 -2.5t2 -4t2.5 -4t3 -1.5h1h1q1 1 4.5 1.5t7.5 1.5
t6.5 1.5t3.5 0.5q4 1 6 2.5t2 4.5q0 5 -4.5 6.5t-9.5 2.5t-9.5 2t-5.5 4q0 1 -0.5 4l-0.5 3q0 1 -0.5 2.5t-1 2.5t-1 2.5l-0.5 1.5v0.5v0.5v0.5v0.5l0.5 1.5l0.5 1.5q7 3 15 5.5t15 4.5q2 1 3 3t1 4v4v3v35zM100 234q0 1 1.5 3t3.5 2q4 -2 4 -4v-5q0 -13 -1.5 -25t-1.5 -24
v-9q2 -1 4.5 -1.5t5 -0.5t4 -1t1.5 -3q0 -3 -3 -4h-7q-7 0 -14 1.5t-14 1.5h-1q-1 -1 -4 -1t-5 -0.5l-2 -0.5l-3 -3v-16q-3 -4 -4 -9t-1 -9v-7v-11v-12v-7v-2.5t-1 -3t-2 -2.5t-2 -1t-2.5 2t-1.5 3q0 15 2 29.5t3 29.5v3v5v5v3q0 5 2 7.5t4.5 3t4.5 0.5q3 0 5 1t3.5 4.5
t1.5 10.5v10q-4 6 -5.5 12.5t-5.5 13.5q-2 2 -5 4t-5 5q0 1 2 1h2q6 0 10.5 -4t6.5 -10q0 -2 1.5 -6l3 -8t2.5 -7t1 -4q1 -1 1 -3.5v-5.5v-6t-1 -4q1 -2 2 -2.5t3 -0.5q3 0 4 1.5t2 4.5q1 7 1.5 14.5t0.5 14.5t-0.5 14t-0.5 13zM75 139v8l2 1l3.5 0.5t6.5 0.5q4 0 10 -0.5
t11.5 -2.5t10 -5.5t4.5 -10.5v-43q0 -3 -2 -5t-4.5 -3t-5 -1.5t-5.5 -0.5q-6 0 -9.5 0.5t-9.5 2.5q-2 4 -4 4.5l-4 1t-3 2.5t-1 8q0 3 1 5.5t1 5.5q0 8 -1 16t-1 16zM81 137q0 -4 3 -6t7 -2.5t9 -0.5h6q3 0 6 0.5t3 3.5q0 4 -2.5 6t-6 3t-7.5 1.5t-6 0.5q-1 0 -4.5 -0.5
t-4.5 -0.5l-2 -2t-1 -3zM82 110l2 -2l2.5 -0.5t6 -1t7.5 -0.5t6 -1h2h2q2 0 3.5 1.5t2 3.5t1 4.5t0.5 4.5v1q-1 0 -3.5 0.5l-2.5 0.5q-2 1 -4.5 1t-5.5 0.5t-5 0.5h-3h-3t-3.5 -0.5t-3 -0.5t-1.5 -1v-11zM146 106v-1q1 0 1.5 -1.5l0.5 -1.5h38q1 0 1.5 1t0.5 2v2v1
q0 4 -4 6.5t-9 3t-9.5 1t-6.5 0.5q-5 0 -9 -4t-4 -9zM81 95q5 -8 10.5 -9.5t13.5 -1.5q5 0 8.5 2t3.5 8q0 3 -1.5 4t-3 1h-3h-3.5q-1 0 -3.5 0.5t-6 0.5t-6 0.5t-3.5 0.5h-1q-2 0 -3.5 -2.5t-1.5 -3.5zM146 88q0 -2 0.5 -3l1.5 -3q6 0 10.5 -1t9.5 -1h10t10 2q3 2 3 5
t-3 6.5t-6 2.5l-31 -1q-3 0 -4 -2.5t-1 -4.5zM146 69q0 -2 2.5 -4t5.5 -4t6.5 -3.5t5.5 -1.5q1 0 5 1.5t8.5 4t8 4.5t3.5 3q0 2 -1.5 3.5t-3.5 1.5h-37q-2 0 -2.5 -2t-0.5 -3zM62 18v1v7t0.5 8t0.5 7v3q1 6 2.5 8.5t4.5 3.5t6.5 1.5t8.5 0.5h7t6 -0.5t6 -0.5t7 -1v-1v0
q0 -1 -0.5 -2.5t-1.5 -1.5h-32q-3 0 -3.5 -2.5t-0.5 -4.5v-3q7 0 12.5 -0.5t10.5 -1.5t10 -3.5t9 -7.5v-2q0 -2 -0.5 -3t-3.5 -1h-0.5h-1.5q0 1 -1.5 2l-3 2t-2.5 2l-2 2l-3 1l-2.5 0.5t-6 1l-7 1t-4.5 0.5h-1h-1q-1 0 -2.5 -1t-1.5 -2v-3v-4v-5v-3q-1 -2 -1.5 -2.5
t-2.5 -0.5t-3.5 1.5t-1.5 3.5zM159 37q2 0 3.5 0.5t1.5 3.5v0v0q0 1 -1 2.5t-2.5 3.5t-2.5 4l-1 2q-1 2 -3 3.5t-4 1.5h-1q0 -1 -0.5 -1.5l-0.5 -0.5v-13q0 -2 1.5 -3l3 -2t3.5 -1h3z" />
</svg>
