<?xml version="1.0" standalone="no"?>
<!DOCTYPE svg PUBLIC "-//W3C//DTD SVG 1.1//EN" "http://www.w3.org/Graphics/SVG/1.1/DTD/svg11.dtd" >
<svg xmlns="http://www.w3.org/2000/svg" xmlns:xlink="http://www.w3.org/1999/xlink" version="1.1" viewBox="-10 0 266 256">
   <path fill="currentColor"
d="M160 192q0 6 3 8.5t7.5 3.5t9 1.5t7.5 2.5q3 1 5 5t3.5 8.5t2.5 10t2 9.5t2 7t3 3q4 0 6 -2t2 -6l-0.5 -1.5t-0.5 -2.5q0 -2 -1 -6t-2.5 -9t-2.5 -9t-1 -5q-3 -7 -8 -10.5t-11 -5t-10.5 -2.5t-4.5 -3q0 -5 2.5 -7.5t6.5 -4.5t8.5 -3t8.5 -2t6.5 -2t2.5 -4v-21
q0 -3 -3 -3.5t-6.5 -1.5t-6.5 -3t-3 -6q0 -5 3.5 -7.5t7 -4.5t7 -6t3.5 -13v-1q0 -3 -0.5 -10.5t-0.5 -15.5t-0.5 -15.5t-0.5 -10.5q1 -3 -0.5 -5.5t-4.5 -2.5h-1v0q-2 2 -2.5 4t-1 5t-1 4.5t-2.5 1.5q-5 0 -9 -4t-7 -8v0q0 -7 2.5 -9.5t6 -3.5t7.5 -0.5t7 0.5t5.5 -1
t2.5 -4q0 -2 -0.5 -3t-2.5 -2h-11h-12q-1 0 -5.5 0.5l-9 1l-9 1t-6.5 1.5q-7 3 -8 8.5t-1 13.5v6l0.5 3l0.5 3v13v15q0 7 0.5 14t2.5 13q1 2 3 4t4.5 3.5t4 3.5t1.5 4q0 3 -2 6.5t-3 6.5l-17 23v6q3 0 6.5 -2.5t7 -6t6 -7t4.5 -5.5q1 -2 2 -6.5l2 -9t2.5 -7.5t4.5 -3
q1 0 2.5 0.5t1.5 2.5v13q0 2 3.5 3.5t7 3.5t6.5 4t3 7q0 4 -3 6.5t-7 4t-8.5 3t-9 4t-7 6.5t-2.5 12zM55 246q0 1 1.5 1.5t2.5 0.5q2 0 4.5 -1t2.5 -3v-25l2 -2q3 -2 6 -2t6 -1q3 0 9 -0.5t13.5 -1.5t14 -1.5t8.5 -0.5l3 -3t1 -2t-0.5 -2.5t-2.5 -1.5h-22q-2 0 -2.5 -2
t-0.5 -4q0 -4 2 -5.5t5.5 -2.5t7 -1h6.5q1 0 2.5 -2t1.5 -3q1 -1 0 -2t-2 -1.5t-2.5 -1t-2.5 -0.5q-3 0 -6 1t-6 1q-4 0 -5 -2t-1 -6v-3v-2q0 -1 0.5 -2.5t1.5 -1.5h16l1 -1.5t2 -2.5v-1v-1q-1 -1 -2 -2.5l-1 -1.5h-16q-1 0 -1.5 -2.5l-0.5 -2.5q0 -3 1 -4t4 -1q4 0 7.5 3
t7.5 3t4 -5v0q-3 -5 -8.5 -8t-10.5 -5v-3q0 -3 2.5 -5t6 -4t6.5 -3.5t4 -1.5q0 -1 0.5 -2t0.5 -2h0.5h0.5q0 -2 -3.5 -5.5t-8.5 -6.5t-9.5 -5t-5.5 -2q-3 0 -8.5 2.5t-10.5 5.5t-8.5 7t-3.5 6q0 5 2.5 7t6 3t6.5 3t3 6l-0.5 0.5t-1.5 0.5q-2 2 -5 4.5t-6.5 5t-6.5 5.5t-4 6
q-4 8 -5.5 18t-2 20.5t-0.5 20.5v18v18zM66 200q0 -4 2.5 -6.5t6.5 -3.5t8 -1.5t7 -0.5t3 3v5v4.5t-2 3.5q-4 1 -8.5 1.5t-8.5 0.5t-6 -1.5t-2 -4.5zM85 163q5 0 6.5 2t1.5 7q0 2 -1 5t-3 3h-22q0 -10 4.5 -13.5t13.5 -3.5zM74 151l0.5 -1t1.5 -2l1.5 -2t3.5 -4.5t3.5 -4
l2.5 -2.5h0.5h1.5h1t1 2v16h-15q-1 0 -1.5 -0.5t-0.5 -1.5zM44 124q0 1 1.5 3t2.5 2q3 -2 5.5 -6t4 -9.5t2.5 -11.5t1.5 -11t1 -8.5t2.5 -3.5l39 -5q5 -1 8 -3t5 -5.5t3 -7t2 -7.5q0 -2 2 -3t3.5 -2l3 -2t1.5 -2q0 -2 -3 -3.5t-4 -1.5q-13 0 -25.5 2t-25.5 2q0 -1 -1 -3.5
t-1 -3.5q2 -4 6.5 -5.5t10.5 -2t12.5 0t11.5 0t8.5 -1.5t3.5 -5v-2t-2 -2h-7h-13.5t-15 1t-14 4t-10.5 8q-2 3 -3 7t-1.5 8.5t-0.5 8.5v8q-1 12 -4.5 23.5t-5.5 23.5q0 1 0.5 1.5t-0.5 0.5q-1 4 -2.5 7t-1.5 7zM80 110v-0.5v-1.5q2 -1 4 -3t4.5 -4t5 -3t5.5 -1q2 0 3.5 1
t3 2.5t2.5 3.5t1 4t-2.5 3t-3.5 1q-2 0 -3.5 -1t-3.5 -1q-1 0 -2 1t-1.5 2.5t-1.5 2.5t-2 1q-3 0 -6 -2t-3 -5zM155 110q0 -2 0.5 -3.5t1.5 -2.5t4.5 -1.5t4.5 -0.5h6h9t9 -0.5t6 -0.5v5t-0.5 3.5t-2 3t-4.5 1.5h-29q-3 0 -4 -1t-1 -3zM193 82q2 0 3.5 1t1.5 4q0 2 -1 4.5
t-3 2.5h-40q0 -6 5 -8.5t11.5 -3t12.5 -0.5h10zM152 72q0 -3 3 -6.5t6.5 -6t7.5 -4t6 -1.5t5.5 1.5t7 4t6.5 5t3 4.5v3q0 1 -2 2h-5h-8h-7.5h-5.5h-1t-2.5 0.5t-2.5 1l-1 0.5h-2q-2 0 -5 -1t-3 -3zM68 63q0 -7 4 -10t9.5 -4.5t12 -1t10.5 -0.5h0.5h0.5q4 0 5 3t1 6q0 5 -4 7
t-9 3t-10 1.5t-8 0.5h-2q-1 0 -3 -0.5t-4 -0.5h-2q-2 0 -1.5 -1.5t0.5 -2.5zM151 50v-7.5t1.5 -6t3.5 -4t6 -1.5q3 0 5.5 1.5t2.5 4.5q0 7 -5 12t-11 5q-2 0 -2.5 -1t-0.5 -3z" />
</svg>
