<?xml version="1.0" standalone="no"?>
<!DOCTYPE svg PUBLIC "-//W3C//DTD SVG 1.1//EN" "http://www.w3.org/Graphics/SVG/1.1/DTD/svg11.dtd" >
<svg xmlns="http://www.w3.org/2000/svg" xmlns:xlink="http://www.w3.org/1999/xlink" version="1.1" viewBox="-10 0 266 256">
   <path fill="currentColor"
d="M68 230v5.5t0.5 7t2 6t4.5 2.5t3.5 -2t0.5 -4q0 -5 -1.5 -9.5t-1.5 -11.5q0 -8 1.5 -15.5t1.5 -15.5q0 -4 -1.5 -6t-3.5 -4t-4 -4.5t-2 -5.5v-3q0 -2 0.5 -4t0.5 -4t0.5 -3.5l0.5 -1.5l3 -3l2.5 2.5t1.5 3.5t0.5 3.5t0.5 2.5h3v-4t0.5 -7t0.5 -7.5v-4.5v-2q0 -1 -0.5 -3
t-2.5 -3h-2.5h-1.5v11l-2 0.5t-3 -0.5q-3 0 -4 -2t-2.5 -4t-3.5 -3.5t-6 -1.5q0 3 1.5 5.5t1.5 5.5q0 2 -2 3t-4 1.5l-4 1t-2 2.5q0 3 4 3q2 0 4 -1t4 -1q1 0 2 0.5t1 1.5t0.5 3t0.5 3q0 5 -2 9t-4.5 8l-5 8t-3.5 8q-1 8 -1 16v15v4v5v5v4t1.5 1h2.5h2.5t0.5 -3v-33
q0 -2 1 -6l2 -8t3 -6.5t4 -2.5q5 0 7 3t2 8q0 8 -1.5 16t-1.5 16zM107 222q0 3 0.5 7.5t1.5 8.5t3 7t7 3q1 0 3 -0.5t2 -2.5t-1.5 -5t-3.5 -6.5l-4 -7t-2 -7.5q0 -7 2.5 -13t2.5 -13q0 -6 -3 -9t-8 -5l-3 -1v-24q0 -1 1 -1t2 -0.5t2 -0.5h1h3q0 2 0.5 4t0.5 3.5t1 3t3 1.5
t2.5 -1t0.5 -4v-2t0.5 -4t0.5 -4v-3q0 -2 -0.5 -5.5l-0.5 -3.5l-5 -5q-2 1 -2.5 3t-0.5 4t-0.5 4t-4.5 2h-4q-2 -3 -2 -5.5v-4.5t-1 -3.5t-6 -1.5v16q-5 1 -5 5q0 1 1 2t2.5 3t3 4.5t1.5 7.5q0 8 -3.5 16.5t-5.5 16.5q0 1 -0.5 3t-0.5 5v4v3v14q0 6 2 13h1h1q3 0 3.5 -1.5
t0.5 -3.5q0 -5 -1 -10.5t-1 -11.5v-7t1 -10.5t3.5 -9t7.5 -2.5q2 0 3 3.5t1 5.5q0 7 -1.5 13t-1.5 13zM146 227q4 6 8 9.5t11 3.5t10.5 -3t6 -8t4 -10.5t4.5 -10.5q1 -1 4.5 -3.5t7 -5.5t6 -5t2.5 -3v-1l-1.5 -1l-1.5 -1q-7 0 -12 3t-8 7.5t-5 10t-4.5 10t-6 7.5t-9.5 3
q-4 0 -6 -2.5t-2 -7.5q0 -3 2 -8t5.5 -9.5t7.5 -8t7 -5.5v-4v-3q0 -8 -2.5 -13t-11.5 -5q-3 0 -5 1.5t-4 3.5t-4.5 3.5t-5.5 1.5t-4.5 -2t-1.5 -5q0 -8 3 -13t7.5 -8.5t10.5 -5.5t11 -4h3q4 0 9.5 2t10.5 5t8.5 7t3.5 9q0 4 -1.5 5.5t-5.5 1.5t-7 -2.5t-5.5 -5.5t-4 -5.5
t-3.5 -2.5h-1v0q0 1 -0.5 2t-1.5 1v0.5v0.5v0.5v0.5l0.5 1.5t1.5 1.5q2 4 4 7t4.5 5.5t6 3.5t7.5 1q5 0 8 -1.5t4 -5t1.5 -7t0.5 -7.5q0 -6 -5 -10.5t-11.5 -7.5t-13 -4.5t-9.5 -2.5t-3.5 -3l-1 -4t-0.5 -4t-2 -3q-2 -4 -5 -5.5t-6 -2.5t-6 -2.5t-6 -5.5q-2 0 -2 2v3
q0 5 3.5 7t7 3.5t7 4t3.5 8.5q0 3 -2.5 5.5t-6 4t-8 3.5t-8 5.5t-6 8.5t-2.5 13q0 5 3 10t8 5q4 0 6.5 -1.5t5 -3.5t5 -3.5t5.5 -1.5t5.5 2.5t2.5 6.5q0 6 -4 10.5l-8 9t-8 9.5t-4 13v5zM201 46v6.5t-2 6.5q-3 4 -11.5 4.5l-17 1t-15.5 1t-7 4.5v20l0.5 0.5t0.5 1.5
q1 0 3 0.5l2 0.5h36q3 0 5.5 2.5t2.5 5.5v22q0 2 1 2.5t2 0.5q3 0 4 -1.5t1.5 -3.5t0.5 -4v-4q0 -6 -0.5 -10.5t-0.5 -10.5q-2 -2 -5.5 -4.5t-5.5 -2.5h-41v-12l2 -2h2.5t6 -0.5t7 -0.5h5.5h24q3 -1 5 -3.5t2.5 -6t0.5 -7v-6.5q0 -7 -2.5 -11.5t-6.5 -6.5t-9.5 -2.5
t-12.5 -0.5q-22 0 -33.5 4t-16.5 13t-5.5 23t-1.5 33v5v6.5v6.5v5q4 0 6 -4t2 -8v-22q0 -2 0.5 -7t1 -10.5t1 -10.5t0.5 -7q1 -4 2 -6.5t2.5 -4.5t3.5 -3t6 -2q6 -1 10 -2t7.5 -1h7.5h9h4h4.5h4.5h3q4 3 4.5 5.5t0.5 6.5zM52 120q0 1 1.5 3t3.5 2t3.5 -3.5t2 -8t1.5 -10
l2 -11t3.5 -9.5t6.5 -5q3 -1 5 0t3.5 3t2 4t0.5 4q0 5 -1.5 9.5t-1.5 9.5q0 2 0.5 4t1.5 4t2.5 3.5t3.5 1.5t2.5 -1.5t0.5 -2.5v-2q-1 -1 -1.5 -3.5l-0.5 -2.5v-31q0 -3 -1.5 -4t-3.5 -1.5t-4 -1.5t-2 -4q0 -8 2.5 -12t10.5 -4h2.5h1.5l2 2l3 20l1 1.5t2 1.5h1h1l3 -1v-4v-4
v-4.5t-2 -5.5v-34l-1 -0.5t-2 -1.5h-2.5h-2.5v19q0 1 -1.5 2t-2.5 1q-1 1 -4 1.5t-4 0.5t-3.5 -0.5t-2.5 -1.5q-1 -2 -2 -7t-3 -10t-4.5 -8.5t-7.5 -3.5q-2 0 -2 2v4t1 3.5t2.5 3.5t2.5 4l2 4q0 2 -0.5 5.5t-0.5 5.5h-23v2.5v2.5l1.5 1.5l0.5 0.5h23q2 0 2 2v2q0 6 -3.5 11
t-7.5 9t-7 8.5t-4 9.5zM148 49v1l0.5 0.5l0.5 0.5h39l1 -0.5l1 -0.5v-1v-1q0 -1 -1 -1.5l-1 -0.5h-37q-1 0 -2 0.5t-1 1.5v1z" />
</svg>
