<?xml version="1.0" standalone="no"?>
<!DOCTYPE svg PUBLIC "-//W3C//DTD SVG 1.1//EN" "http://www.w3.org/Graphics/SVG/1.1/DTD/svg11.dtd" >
<svg xmlns="http://www.w3.org/2000/svg" xmlns:xlink="http://www.w3.org/1999/xlink" version="1.1" viewBox="-10 0 266 256">
   <path fill="currentColor"
d="M117 240q0 5 1 6t4 1q2 0 4 -0.5t2 -2.5v-128q0 -1 1 -1.5t2.5 -1l3 -1l1.5 -0.5q8 0 13 4t5 13v1q0 1 -0.5 4t-0.5 5.5t-0.5 4t-0.5 2.5l-0.5 2t-0.5 3v1q0 3 0.5 6t0.5 6q0 5 -0.5 9t-0.5 9q0 9 4.5 14t11.5 7.5t14 3t13 0.5h4h4l1.5 -1.5t0.5 -2.5t-2 -3t-3 -2
q-6 -1 -12.5 -1.5t-12 -2t-9 -5.5t-3.5 -12v-3v-4q1 -3 2.5 -3.5t3.5 -0.5q8 0 16.5 1.5t16.5 1.5v-2.5t-0.5 -3t-1.5 -2.5t-2 -1h-34q-2 0 -3.5 -3.5t-1.5 -5.5q0 -3 1.5 -5t3.5 -3.5t4.5 -2t4.5 -0.5q5 0 10 1t10 1h5.5t2.5 -4q0 -2 -0.5 -4t-2.5 -2h-35q0 -6 -1.5 -12.5
t-6.5 -10.5q-2 -2 -6.5 -3.5t-8.5 -3.5t-7.5 -3l-3.5 -1v-49q0 -10 4.5 -17t14.5 -7q3 0 5.5 1.5t3.5 5.5l3 58l0.5 0.5t1.5 0.5q3 2 8 3t7 1h2h4h4h3h3h3.5h3.5h3t1.5 -1.5t0.5 -2.5v-3v-1h-31q-3 0 -4.5 -1.5t-2 -3t-1 -4t-0.5 -3.5v-5t3 -3q7 0 14.5 -0.5t14.5 -1.5
q1 0 1.5 -1t0.5 -2t-0.5 -2.5t-1.5 -1.5h-30q-1 0 -1.5 -1t-0.5 -2v-2v-2q0 -4 4 -5.5t9.5 -2t11 -0.5h7.5v-2v-1q0 -2 -0.5 -4t-3.5 -2q-4 0 -8.5 1t-9.5 1t-7 -1t-2.5 -3t-0.5 -5q0 -2 -0.5 -4.5t-3 -5t-7.5 -4.5h-1h-2h-4.5t-7 0.5t-6.5 0.5h-5q-3 3 -6 7.5t-3 9.5v5t2 5
q-1 2 -1.5 7.5t-1 11.5t-0.5 11.5t-1 7.5v2q0 4 1 7.5t1 7.5v4q-1 0 -3 0.5t-4.5 1t-4.5 1.5t-3 1q-3 1 -6 5.5t-4.5 9t-2.5 8l-1 3.5l-36 3q-3 1 -3.5 3t-0.5 3q0 3 1.5 5t4.5 2v0h1l4 -1t7.5 -2t7.5 -1.5l4 -0.5q1 -1 2 -1h2q4 0 5 2t1 7q0 3 -1.5 5.5t-4.5 4t-6.5 2
t-6.5 1.5h-3.5t-6 0.5t-6 0.5h-3.5q-2 0 -2 1.5v3.5q0 3 2 3.5t5 0.5q7 0 13.5 -3t13.5 -3q2 0 3.5 0.5t1.5 2.5v1q-1 1 -2 4t-2 3q0 1 -2 3l-4 4l-4 4t-2 3q-3 2 -6.5 3.5l-7 3t-6 4t-2.5 5.5q0 4 2 4.5t5 0.5q4 0 9.5 -3t10.5 -8t9.5 -10t5.5 -9q2 -5 2.5 -12t1 -15l1 -16
t2.5 -14t6 -10t12 -4q1 0 2 0.5t1 4.5q0 1 -0.5 3l-1 4t-0.5 4v3v4v4.5t2 5.5v24q0 19 -2 37t-2 35z" />
</svg>
