<?xml version="1.0" standalone="no"?>
<!DOCTYPE svg PUBLIC "-//W3C//DTD SVG 1.1//EN" "http://www.w3.org/Graphics/SVG/1.1/DTD/svg11.dtd" >
<svg xmlns="http://www.w3.org/2000/svg" xmlns:xlink="http://www.w3.org/1999/xlink" version="1.1" viewBox="-10 0 266 256">
   <path fill="currentColor"
d="M188 248q0 3 3 3q2 0 4 -1t3 -3l2 -4t1 -4q0 -7 -0.5 -17t-2.5 -20t-5 -18.5t-8 -12.5q-2 -1 -4.5 -2t-5.5 -2t-6 -1.5t-5 -0.5q-2 -1 -5 -1.5t-5.5 -1.5t-5 -2.5t-4.5 -4.5v-2.5t-0.5 -3.5t-0.5 -4t-1 -3v-2q0 -2 0.5 -4.5t2.5 -2.5h53q2 0 2.5 -1.5t0.5 -2.5
q0 -3 -1.5 -4.5t-3.5 -2t-5 -0.5h-5q-9 0 -20 2t-21 2l-1.5 -2l-1.5 -2v-1q0 -1 0.5 -4.5t0.5 -7t1 -6.5t1 -4q1 0 5.5 -3.5t9 -7.5t8.5 -7t5 -3t1.5 0.5l0.5 0.5q2 1 5.5 5t8 7.5t8 6.5t4.5 3q3 0 4.5 -1.5t1.5 -3.5q0 -5 -4.5 -8.5t-10 -7t-10 -7.5t-4.5 -11q0 -6 1 -11.5
t1 -11.5q0 -1 0.5 -5t0 -8t-2 -7.5t-4.5 -3.5h-2t-1 1q0 2 -0.5 6t-0.5 8.5t-0.5 9t-0.5 5.5v6v7v6t-1 5t-3.5 4.5t-6 5t-6.5 4.5t-5 4h-1q-1 0 -1.5 -1.5t-0.5 -3.5v-3.5v-1.5q0 -9 1 -17.5t1 -18.5v-4v-6t-0.5 -6t-0.5 -4l-2.5 -0.5t-3.5 -0.5t-2 1t-1 2q1 8 -0.5 15
t-1.5 16q0 5 1 9.5t1 9.5v4.5t-2 4.5v64q0 10 4 16t10 9.5t14 5t17 2.5l3 3l0.5 2.5t1.5 6.5t1.5 7.5t1.5 6.5v2t0.5 3.5t0.5 3v2.5v5.5v10.5v9.5v6.5zM79 246q1 1 2 1.5t2 0.5q3 0 5.5 -1.5t2.5 -4.5t-2 -5t-3 -4q-6 -13 -10.5 -27.5t-4.5 -29.5v-4t1 -4q1 -2 3 -3.5
t5 -1.5t6.5 6t7 15t7.5 19t8 19t7.5 15t7.5 6h5t3 -3v-1.5v-0.5q-12 -15 -20 -32t-15 -33q-1 -1 -1.5 -2.5l-1 -3l-1 -3l-0.5 -1.5q0 -2 0.5 -3.5t2 -3t2.5 -3t3 -1.5v-13q10 -6 13.5 -14.5t3.5 -21.5q0 -9 -2 -13.5t-4.5 -7t-5.5 -2.5h-5t-4 -1t-2 -3q0 -5 0.5 -8t1.5 -5
t3 -3.5t6 -3.5v-5h-27v-6q1 0 2 -1.5t2.5 -3t2.5 -3l1 -1.5q2 -2 3 -5.5t4 -3.5t6 5.5t7 12.5t7.5 13t6.5 8q1 -2 2.5 -4t1.5 -4q0 -1 -2 -5t-5 -9.5t-7 -11t-7.5 -10t-6.5 -8t-4 -3.5q-2 0 -2.5 0.5l-1.5 1.5q-9 15 -18.5 29t-17.5 28q-2 4 -2.5 7t-0.5 7q4 0 7.5 -3
t6.5 -7.5t5.5 -8.5t3.5 -7h3q1 0 3 -0.5t4 0t3.5 1t2.5 2.5v6q0 7 -1.5 9t-4 2.5t-5.5 1t-6 3.5q-2 2 -3.5 5t-2.5 6.5t-1.5 6.5t-0.5 5l-0.5 2.5t-0.5 3.5q0 7 4 14.5t11 11.5q1 0 3.5 0.5t5 0.5t4 1.5t1.5 4.5t-5 5t-11 4.5t-11 6.5t-5 13q0 18 6 36.5t13 35.5zM71 115
q0 -2 2 -3.5t4.5 -2t4.5 -0.5h4h1h2t2.5 0.5t2.5 0.5h1h1q2 0 4 -0.5t4 -0.5q3 0 3.5 2.5t0.5 4.5q0 4 -2 6t-4.5 3.5t-5.5 2t-6 0.5q-2 0 -5.5 -1t-6 -2.5t-5 -4t-2.5 -5.5zM73 96q0 -3 2.5 -5t5.5 -2.5t7 -0.5h6q7 0 11.5 2t4.5 11h-34q-2 0 -2.5 -1.5t-0.5 -3.5z" />
</svg>
