<?xml version="1.0" standalone="no"?>
<!DOCTYPE svg PUBLIC "-//W3C//DTD SVG 1.1//EN" "http://www.w3.org/Graphics/SVG/1.1/DTD/svg11.dtd" >
<svg xmlns="http://www.w3.org/2000/svg" xmlns:xlink="http://www.w3.org/1999/xlink" version="1.1" viewBox="-10 0 266 256">
   <path fill="currentColor"
d="M154 195q0 6 0.5 13.5t1.5 15t3 14.5t6 13h3q3 0 6 -1.5t6 -2.5v0v-1q-3 -3 -4.5 -6t-3 -5t-2.5 -4.5t-3 -6.5q0 -1 -0.5 -5t-1 -8.5t-1 -8.5t-0.5 -6v-0.5v-1.5v-3.5t1 -3.5l34 -18q1 -1 2 -5t2.5 -8.5t2.5 -9t1 -5.5v-4.5t0.5 -7.5t0.5 -8v-7v-1q0 -2 0.5 -4t0.5 -3v-4
v-9t-0.5 -10t-1.5 -10t-3 -8q-3 -4 -8.5 -6.5t-11 -4.5t-10 -4t-4.5 -4v-28q0 -2 -2 -3.5t-4 -1.5q-1 0 -3 0.5t-2 3.5v35q0 2 -2.5 2.5t-6 1.5t-6.5 1.5t-4 0.5q-6 6 -9 13.5t-4 16.5t-0.5 17.5t0.5 15.5v8v11t0.5 11.5t1.5 9.5q3 2 4.5 4.5t3 4.5t4.5 3.5t7 1.5
q2 0 2.5 -1t0.5 -2q0 -3 -2 -6t-4.5 -5t-5 -4.5l-4.5 -4.5v-5.5t-0.5 -8t-1 -8t-0.5 -5.5v-5q0 -7 1.5 -14.5t2.5 -14.5q1 -8 2.5 -13.5t4.5 -9t9 -5t15 -1.5q5 0 9.5 0.5t8.5 2t7.5 4t3.5 7.5q1 1 1 4.5t0.5 7l1 7t0.5 4.5q-2 5 -1.5 9t0.5 10q-1 6 -1 12t-0.5 11t-2 10.5
t-4.5 10.5q-2 4 -8 6.5t-12.5 6t-11.5 8t-5 12.5zM56 177v1q0 1 0.5 4t1.5 6t1.5 6t0.5 4q1 3 2.5 10.5t3.5 15.5t4.5 14.5t5.5 6.5t5 -1.5t2 -4.5v-1q-1 0 -1.5 -3t-2 -6.5t-2.5 -6.5t-1 -4q-1 -4 -2.5 -9.5t-3 -10.5t-2.5 -10.5t-1 -9.5q0 -6 3 -9.5t8 -4.5q4 1 8 8.5
t6.5 16.5l5 18t4.5 13q0 1 1 3.5t2.5 5.5l2.5 5t2 3q1 2 2 2.5t3 0.5q4 0 4.5 -1.5t0.5 -4.5l-0.5 -1.5l-0.5 -1.5q-1 -2 -3 -7t-4.5 -10.5t-5 -10.5l-3.5 -7q-1 -3 -3 -8t-3.5 -9.5t-2 -9.5t-0.5 -9q0 -2 2 -6t4.5 -7.5l5 -7t4.5 -5.5t3 -5.5t1.5 -7.5t0 -7.5t-0.5 -6.5
v-13q-3 -3 -6.5 -4.5t-7 -3.5t-6 -4.5t-2.5 -7.5q0 -3 2 -4.5t4.5 -2t4.5 -2t2 -4.5v-1l-1 -0.5t-1 -1.5h-5q-2 0 -6.5 0.5t-9.5 1t-8.5 2t-3.5 3.5t2 2.5t4.5 0t4.5 -0.5q3 0 3 2v3v3q0 5 -2.5 7.5t-6 4.5l-7 4t-5.5 6q0 1 -0.5 2.5l-1 3l-1 3l-0.5 1.5l3 26q1 4 5 5t9 1
q4 0 8 0.5t4 3.5q0 4 -2.5 6.5t-6 4.5t-8 3.5t-8.5 4t-6 6t-2 9.5zM151 146q0 4 3 8.5t8 4.5q8 0 12 -1.5t6 -5t3 -8.5t1 -11q1 -4 3 -7t2 -7q0 -2 -1 -3.5t-3 -1.5h-1q-3 4 -4.5 10l-3 12t-4 10t-7.5 4q-8 0 -8 -6q0 -3 1 -6t2.5 -6t2.5 -5.5t1 -5.5t-1 -5t-2.5 -4.5
t-2.5 -4.5t-1 -5q0 -2 1 -5t3 -5.5t4 -4t5 -1.5q5 0 6.5 2t1.5 8q0 2 -1 4l-2 4l-2 4t-1 4v1l0.5 0.5t1.5 0.5v1q4 0 6 -2.5t3 -6t1.5 -7t0.5 -6.5q0 -6 -3.5 -11t-11.5 -5h-1.5h-1.5q-6 2 -9 4t-4 4.5t-1 6v8.5q0 6 0.5 11t0.5 10q0 7 -1.5 13t-1.5 12zM76 130
q-4 -2 -4.5 -3.5t-0.5 -4.5q0 -5 4.5 -6t8.5 -2h4.5h6.5h7.5h4.5q0 8 -2.5 12.5t-12.5 4.5h-1h-3t-4.5 -0.5t-4.5 -0.5h-3zM73 103q0 -2 1 -5.5t4 -3.5h24q3 0 3.5 2.5t0.5 4.5v4q-6 1 -10.5 1.5t-9.5 0.5h-4h-4t-3.5 -1t-1.5 -3zM47 72q0 2 1 3t3 1q1 0 4 -3l7 -7t8 -9.5
t8.5 -10.5t7.5 -8.5t5 -5.5v0v0h0.5h0.5q1 0 2 0.5t1 1.5q1 1 2.5 3.5t3.5 5t3.5 5t1.5 3.5l1 1t1.5 2.5t1 2.5l0.5 1q1 3 2.5 6.5l1.5 3.5h8q0 -6 -2.5 -11t-5.5 -9.5l-6 -9t-5 -9.5l-0.5 -2l-1 -4t-1 -3.5t-0.5 -2.5q-1 -3 -2.5 -4t-4.5 -1q-4 0 -6 2t-3.5 5t-2.5 6.5
t-3 5.5l-3.5 3.5t-5.5 6t-5.5 6.5t-3.5 4l-1 1.5t-2.5 3.5t-2.5 3.5t-2 2.5q-1 2 -3 4.5t-2 5.5z" />
</svg>
