<?xml version="1.0" standalone="no"?>
<!DOCTYPE svg PUBLIC "-//W3C//DTD SVG 1.1//EN" "http://www.w3.org/Graphics/SVG/1.1/DTD/svg11.dtd" >
<svg xmlns="http://www.w3.org/2000/svg" xmlns:xlink="http://www.w3.org/1999/xlink" version="1.1" viewBox="-10 0 266 256">
   <path fill="currentColor"
d="M56 250q0 1 1 1.5t2 0.5q3 0 4.5 -2.5t2.5 -4.5q-1 -15 -3.5 -29.5t-2.5 -29.5v-7q0 -5 1 -10t2.5 -8.5t5.5 -3.5q2 0 2 1.5t1 3.5l12 76q0 2 1 2h2q3 0 4 -1t1 -4q0 -4 -1.5 -7.5t-1.5 -7.5q-3 -15 -6 -30.5t-3 -30.5q0 -5 1 -8.5t2.5 -6.5t2.5 -7t1 -9q5 -2 7.5 -6
t4 -8t1.5 -9v-11q0 -9 -3 -12.5t-6 -5l-6 -3t-3 -5.5q0 -5 4.5 -7t9.5 -2q3 0 4 2.5t1.5 5l1 5t3.5 2.5h1l0.5 -0.5t1.5 -0.5v-3.5v-3.5q0 -2 -1.5 -7t-4 -11t-6 -12.5t-6.5 -12t-5.5 -9t-4.5 -3.5t-3.5 3.5t-1.5 4.5q-5 5 -11 12t-11.5 14.5t-9.5 15.5t-4 15q4 0 6.5 -2
t4 -5t4 -5.5t5.5 -2.5h5h5t4 1.5t2 3.5q0 4 -2 6t-4 3t-5 2t-5.5 3.5t-4 6.5t-1.5 12v1v4t0.5 6.5t1 6.5t0.5 5q1 2 4 3.5t6.5 2t7 0.5h5.5v3v2q0 6 -3.5 8.5t-8 5t-8.5 5t-5 7.5v33v29t2 29zM102 248q0 4 3 4t6 -5.5t5 -14t3.5 -18.5t2.5 -19.5t2 -17.5t1 -11q0 -2 0.5 -7
t1 -11t1 -11.5t0.5 -6.5v-2v-1v-3t-0.5 -4t-0.5 -4v-3q-2 -1 -4.5 -3t-4.5 -2q-6 0 -9 3.5t-4 8.5l-2 10t-1 9q0 1 -0.5 4.5t-1 7.5t-1 7.5t-0.5 5.5q-4 5 -4 10v11q3 0 4 -0.5t1 -3.5q4 -14 6.5 -28t5.5 -28q0 -4 0.5 -5.5t2.5 -1.5t4 0.5t1 3.5v13q0 20 -2.5 38.5
t-5.5 38.5l-2.5 7.5t-3.5 9.5t-3 10t-1 9zM153 168v1q1 11 1 21q0 11 2 22l1.5 3.5t2.5 7.5t2 7.5t1 4.5v4q0 2 0.5 5t2 4.5t3.5 1.5q3 0 3.5 -1t0.5 -3q0 -5 -1.5 -10t-3.5 -10l-4 -10t-3 -10q0 -7 -0.5 -12t-0.5 -10v-9.5v-10.5q0 -14 1 -27.5t3 -26.5q3 -12 6 -23t3 -23
q0 -1 -0.5 -5t-0.5 -8t-0.5 -7.5t-0.5 -4.5q-1 -2 -2 -5.5t-2.5 -6.5t-3.5 -5.5t-5 -2.5q-2 0 -2.5 0.5t-0.5 2.5v1v0q0 1 1 3t2 4.5t2 4t1 2.5q2 4 2.5 6.5l1 5t0.5 5.5v6q0 9 -1 16.5t-3 15t-3.5 15t-2.5 16.5l-0.5 5t-0.5 12.5t-0.5 15t-0.5 12.5v0zM193 213q1 2 3 7.5
t4 12t5 11.5t6 5t5 -2t2 -4q0 -4 -3.5 -7t-5.5 -6q-7 -15 -11.5 -32t-4.5 -34v-8t1 -12.5t3.5 -11.5t6.5 -5q2 0 3.5 2t1.5 5v3v6t-0.5 11t-1 11t-0.5 6t0.5 3t0.5 5t0.5 5.5l0.5 2.5q1 2 1.5 2.5t1.5 0.5q2 0 3.5 -0.5t1.5 -2.5v-60q0 -1 -0.5 -2.5t-2 -3l-2.5 -2.5l-1 -1
h-13q-2 0 -4.5 3.5t-4 8t-2.5 9t-1 6.5v3v4v5v4v3v4.5v3.5v2q0 2 1 7.5t2 12t2 12t2 7.5zM169 153v7v8v7.5v3.5q0 1 1 5.5t2 9.5t2 10.5t2 8.5q0 1 1 5t2.5 8t3 7.5t2.5 3.5q2 0 3 -2t1 -3t-0.5 -3l-0.5 -2q-1 -1 -1.5 -3t-1 -4.5t-1 -4.5l-0.5 -2q-2 -8 -4 -14t-3 -11
t-2 -11t-1 -14q0 -9 2 -17t2 -16q0 -2 -0.5 -5.5t-3.5 -3.5q-1 0 -1 0.5v0.5l-4 11v3.5v6v6.5v4zM141 233l1.5 1.5l0.5 0.5h1h1l1.5 -1.5l1.5 -1.5v-1v-1q0 -2 -1 -10t-1.5 -17.5t-1.5 -18t-1 -10.5v-6q0 -10 1.5 -20.5t1.5 -20.5v-7l-0.5 -1l-0.5 -1h-1h-1l-0.5 1t-1.5 1
q-1 5 -1.5 10.5t-1.5 11.5t-1 12v11v1q0 4 0.5 13.5t1.5 20t1.5 20t0.5 13.5zM62 110q0 -2 0.5 -3.5t3.5 -1.5l26 -4q1 0 1 1t0.5 2.5t0.5 2.5v1q0 3 -1 5t-3 4h-3t-4 0.5t-4.5 0.5h-2.5h-1.5h-0.5q-5 0 -8.5 -1.5t-3.5 -6.5zM177 101q0 1 0.5 2t1.5 2q5 -4 7.5 -9t3.5 -11
t1 -12v-11v-7.5t-1 -9t-3 -7.5t-6 -3h-1.5h-1.5q1 6 3.5 12.5t2.5 11.5q0 6 -1 11t-2.5 10t-2.5 10.5t-1 10.5zM198 63v2.5t0.5 5.5t0.5 6v4q0 2 1 5.5t3 6.5t4 5t5 2v0l2 -2l2 -2v0v-1q0 -2 -2 -4.5t-3.5 -6t-3 -8t-1.5 -9.5q0 -6 1 -11t2.5 -10.5t2.5 -11t1 -10.5
q-5 0 -8 4.5t-4.5 11t-2 13t-0.5 10.5zM148 60q0 5 -1 10t-2 9.5t-1.5 9.5t-0.5 9q2 0 4 -2t3.5 -5t2 -6t0.5 -6v-16v-18q-1 -5 -3.5 -8.5t-8.5 -3.5q0 3 1 6.5t2.5 6.5t2.5 6.5t1 7.5zM64 91q0 -2 3 -5t5 -3h18q1 0 2.5 2.5l1.5 2.5v1v0l-1.5 3t-2.5 3h-24q-2 0 -2 -1.5
v-2.5zM110 91q0 1 0.5 2.5t2.5 1.5q4 0 8 -4.5t6.5 -11t4 -12.5t1.5 -10q0 -3 -1.5 -8.5t-4 -11t-6 -10t-7.5 -4.5q-1 0 -2.5 0.5t-1.5 3.5q3 4 5.5 7.5t5 7.5t3.5 8t1 10v4.5v4.5q-5 13 -15 20v1.5v0.5zM66 50q0 -1 1.5 -4.5t4.5 -7.5t5.5 -7t4.5 -3t4.5 2t4 5t2.5 6t1 5v1
v2t-0.5 2t-1.5 1h-25l-0.5 -0.5l-0.5 -0.5v-1z" />
</svg>
