<?xml version="1.0" standalone="no"?>
<!DOCTYPE svg PUBLIC "-//W3C//DTD SVG 1.1//EN" "http://www.w3.org/Graphics/SVG/1.1/DTD/svg11.dtd" >
<svg xmlns="http://www.w3.org/2000/svg" xmlns:xlink="http://www.w3.org/1999/xlink" version="1.1" viewBox="-10 0 266 256">
   <path fill="currentColor"
d="M149 245q0 3 0.5 4.5t3.5 1.5t4 -2t1 -4v-23q0 -1 0.5 -6t0.5 -10.5t0.5 -10t0.5 -5.5t-0.5 -3.5t-0.5 -6t-0.5 -6t-0.5 -3.5v-7q0 -6 3 -8t6.5 -2t6.5 -0.5t3 -4.5v0q0 -1 -1 -1.5t-2 -2t-2 -2t-1 -1.5v0v-1q1 -5 3.5 -10.5t2.5 -10.5v0l-1 -2.5t-2 -2.5q-3 0 -4.5 2
t-2.5 5.5t-2 7.5t-1.5 7.5t-1 6t-1.5 2.5l-0.5 -0.5l-0.5 -0.5l-0.5 -1t-1.5 -2v0q0 -5 1 -9t1 -9v-10q0 -1 -0.5 -2t-1.5 -2v-1q0 -1 2 -2t3 -1q5 1 11.5 2t11.5 4v4v4v5.5t-0.5 5t-1 5.5t-1.5 6v49q0 1 1 3t1.5 4.5l1 5t1 3t1 3.5t1 7t0.5 7t1 4q0 1 1 3.5t2 5.5t3 5.5
t4 2.5q3 0 3.5 -3t0.5 -5q0 -6 -1.5 -12t-3 -12.5t-3.5 -12.5t-3 -12l-2 -1v-3.5v-4.5v-5v-3l-0.5 -1t-0.5 -2h-0.5h-0.5q0 -13 3 -24.5t5 -22.5v-2v-3q0 -6 -4 -10t-9 -5q-2 0 -6 -0.5t-9 -1.5t-9 -1.5t-6 -0.5q0 -1 -2 -0.5l-2 0.5q-2 -1 -5.5 -1.5l-3.5 -0.5
q-2 0 -2.5 -2t-0.5 -4v-4.5t-2 -1.5q-1 0 -2.5 1t-1.5 2q-1 1 -1 3v3q0 7 3 9.5t7 3t7 0.5t3 3q0 9 -0.5 18t-0.5 19q-1 0 -3.5 1.5t-2.5 0.5q-2 -1 -2 -6t-0.5 -10t-2 -9t-6.5 -4q-2 0 -2.5 1t-0.5 5q0 1 0.5 2.5t1.5 2.5v9v9h-4.5t-5 1t-4.5 2.5t-2 4.5l0.5 0.5t1.5 0.5h2
h3q5 0 9.5 -1t9.5 -1h4q2 0 2 1l2 1v2v3q0 21 -1 42t-1 42zM63 178q0 3 1 9t2 13.5t2.5 15.5t3.5 14t5 10.5t6 4.5t4 -1.5t1 -4.5t-1.5 -7t-3.5 -7q-2 -9 -5.5 -19.5t-3.5 -19.5v-7t1 -7.5t3 -6t6 -2.5q2 0 3.5 0.5t2.5 3.5q0 2 1 8t2.5 13t3 14.5t4 14.5t4.5 12t5 7
q2 -1 2.5 -3.5t0.5 -4.5q0 -6 -2.5 -12t-4.5 -13q-2 -8 -4 -16.5t-5 -16.5v-0.5v-0.5q0 -3 0.5 -4.5t1.5 -3t2 -2.5t1 -3v-3t0.5 -4.5t0.5 -5v-2.5q1 -3 3 -5t3 -3.5l2 -3t1 -5.5v-35q0 -4 -3 -5.5t-6.5 -2.5t-6.5 -1t-4 -2v-6q0 -6 1.5 -8.5t8.5 -2.5q3 0 5 2.5t3.5 5
t3.5 4.5t5 2q2 0 2.5 -1t0.5 -3t-2 -6.5t-5.5 -10.5l-7 -12t-7 -11.5t-6.5 -8.5t-4 -3h-2.5t-2.5 1q-1 2 -4 6.5t-6.5 10.5t-7 12.5t-6.5 12.5t-5 10.5t-2 6.5q0 4 4 4q3 0 5 -3t4.5 -7t5.5 -7t8 -3h1q1 0 1 1v16q-6 4 -11 9t-5 13v2v5.5t0.5 7.5t0.5 8v5q1 5 4.5 7t7 3
t8 0.5t7.5 -0.5v3v4.5t-1 4.5t-2 2h-16l-3 2.5t-5 4.5q-3 2 -4 7.5t-1 9.5zM128 242q0 1 1 1h2q2 0 3.5 -2t2.5 -4q0 -7 1 -15t2 -16.5t1.5 -17t0.5 -15.5v-3q0 -1 -0.5 -2.5t-1.5 -2.5t-2 -1t-2.5 5t-2.5 12.5t-2 16.5t-1.5 17t-1 13.5t-0.5 7.5v6zM174 236q1 3 4 3t4 -2
t1 -4q0 -5 -0.5 -11t-2 -12.5t-3 -12.5l-2.5 -10q0 -1 -0.5 -4t-1.5 -6.5t-1.5 -6t-0.5 -3.5q-1 -2 -1.5 -2h-2.5q-1 0 -1.5 1t-1 2.5t0 2.5t0.5 2q0 16 2.5 32t6.5 31zM99 114q3 1 3.5 2t0.5 4q0 8 -3 10t-10 2q-2 0 -4 -0.5l-4 -1t-3.5 -1.5t-1.5 -2v-11l1.5 -0.5
l1.5 -0.5q1 0 4 -0.5t5.5 -0.5h5.5h4zM76 102q0 -4 1.5 -6.5t4 -4t6 -2t6.5 -0.5q5 0 8 2t3 9q0 1 -1.5 2.5l-1.5 1.5h-25l-0.5 -0.5t-0.5 -1.5v0zM133 57q0 8 5 12t12 6.5t14.5 3.5t12.5 2q3 1 6 3t7 2q3 0 3.5 -1t0.5 -4t-3 -5.5t-7.5 -4t-10.5 -2.5t-11.5 -2t-10 -1.5
t-6.5 -1.5q-2 0 -2.5 -2.5t-1 -5.5t-1 -5t-3.5 -2t-3.5 3t-0.5 5zM138 22q0 9 2 14t6 7.5t10 4t13 3.5q3 0 6 2t6 3.5t6.5 2.5t6.5 1q2 0 3 -0.5t1 -3.5q0 -4 -3.5 -6.5t-9.5 -4t-12.5 -2.5t-12 -3t-9.5 -4.5t-4 -6.5q0 -3 1 -6t1 -6t-2 -4t-4 -1q-1 0 -2.5 0.5t-1.5 1.5
q-1 1 -1 4v4zM92 38v0v1q1 0 1.5 0.5l0.5 0.5q0 1 1.5 2t2 2.5t1.5 3l1 1.5v1q0 2 -3 3t-6.5 1.5l-7 1t-5.5 0.5q0 -3 1.5 -6t3 -5.5t4 -4.5t5.5 -2z" />
</svg>
