<?xml version="1.0" standalone="no"?>
<!DOCTYPE svg PUBLIC "-//W3C//DTD SVG 1.1//EN" "http://www.w3.org/Graphics/SVG/1.1/DTD/svg11.dtd" >
<svg xmlns="http://www.w3.org/2000/svg" xmlns:xlink="http://www.w3.org/1999/xlink" version="1.1" viewBox="-10 0 266 256">
   <path fill="currentColor"
d="M127 246v5q10 0 16 -5.5t9.5 -14t5 -19t3 -19.5t3 -15.5t5.5 -7.5l1.5 -0.5l3 -1l3 -1l1.5 -0.5q3 -1 3.5 -2t1 -1.5t1 -0.5h1.5q2 0 3.5 0.5t0.5 3.5v4v5q0 8 -1 16.5t-3 16.5q-2 5 -4 9l-4 8l-4 8t-2 9q7 0 12 -5t8 -13t5 -17.5t3 -18.5t1 -16.5v-11.5t-2.5 -7.5
t-6.5 -3.5q-3 0 -5.5 1.5t-5 3.5t-5.5 3.5t-6 1.5q-2 0 -2.5 -1t-0.5 -3v-4v-3q0 -4 1 -8t1 -9q0 -3 -2 -7t-2 -8q0 -3 5 -4t10 -1h10.5t4.5 -4v-1.5t-2 -1.5h-4h-4h-28.5t-28.5 5v0v1q0 2 3 3t5 1h3q1 0 3.5 -0.5t4.5 -1t4.5 -0.5h3.5t2 2t1 3q0 2 -3.5 5.5t-8.5 6.5
t-10.5 5.5t-10.5 5t-8.5 4t-3.5 2.5q0 2 1.5 2h2.5q3 0 6.5 -1t7.5 -2.5t7 -3t6 -2.5l2.5 -2.5l3 -3t3 -2.5t3.5 -1t2.5 2t0.5 4q0 4 -3.5 8t-8.5 7t-11.5 6.5t-11.5 6.5t-9 6t-4 5t1 2.5t3 0.5h2q2 -1 6.5 -3.5t9 -5.5t8.5 -6t6 -4l1.5 -1t2.5 -2l2 -2t2 -1l3 1v12
l-1.5 1.5l-3 3t-3.5 3t-3 3.5q-3 2 -10 6.5l-14 9t-12.5 9t-5.5 8.5q0 1 1.5 1.5t3.5 0.5h1q3 0 8.5 -4.5t11 -9.5t11 -9.5t8.5 -4.5t3 4q0 8 -1.5 16t-4.5 15.5t-7.5 14t-11.5 11.5zM92 237q1 2 2 2h3h2t2 -2v-4q0 -5 -1 -9l-2 -8q0 -5 -1.5 -12t-2.5 -14t-1.5 -12.5
t-0.5 -6.5v-1.5v-3.5v-4v-3v-3v-4v-3.5v-2.5q1 -1 2.5 -4.5t3 -9t3.5 -12t3 -12t2 -10t1 -6.5q0 -11 -2.5 -15t-5.5 -5t-6 -1t-3 -2v-13l0.5 -0.5t1.5 -0.5q1 -1 4.5 -2t4.5 -2q1 1 2.5 3.5t3.5 5.5t4 5t3 2q3 0 3.5 -1t0.5 -3t-2 -6.5t-5 -10.5t-7 -12t-7.5 -11t-6.5 -8
t-4 -3q-3 0 -3 1t-2 3q-6 11 -13.5 20.5t-12.5 19.5q-1 1 -2 3.5t-2 4.5t-2.5 4.5t-1.5 3.5v2q0 1 0.5 2t1.5 1l0.5 -0.5l0.5 -0.5q3 0 6 -4t5 -7.5t4 -6.5t4 -3h12l0.5 1t1.5 1q0 2 0.5 5t0.5 4q0 2 -3 3.5t-6.5 3t-7.5 3t-5 6.5q0 1 -0.5 3.5l-1 5l-1 5t-0.5 3.5
q0 10 2 15t5.5 7t7.5 1.5t7 0t5.5 2t2.5 7.5q0 5 -2.5 7t-6 2.5l-7 1t-6.5 3.5q-4 4 -6 10.5t-2.5 13.5t-0.5 13.5v11.5v3q0 2 0.5 7t1 10.5t1 10.5t0.5 7q1 2 2 2.5t2 0.5q4 0 5.5 -2t1.5 -5q0 -12 -2.5 -22.5t-2.5 -22.5v-8.5t1 -11t3.5 -9.5t8.5 -4h1q3 11 3 21.5t2 22.5
q1 11 3 21.5t3 20.5zM178 78h4t6.5 0.5t6 2t2.5 4.5v43q3 0 5.5 -1.5t3.5 -4.5q0 -1 0.5 -4.5t0.5 -7t0.5 -7t0.5 -4.5q0 -13 -4 -19.5t-15 -9.5v-2v-2q0 -4 2.5 -5.5t6 -3.5t6 -6t2.5 -13v-6l-1 -0.5t-2 -0.5q-4 1 -5 4t-1.5 6t-1.5 5.5t-6 2.5q0 -7 1 -13t1 -13v-8
l-1.5 -1.5t-1.5 -0.5q-2 0 -3.5 1.5t-1.5 3.5v30q0 3 -0.5 4t-2.5 1q-3 0 -5.5 -2.5t-2.5 -5.5v-3l0.5 -1.5t0.5 -3t0.5 -2.5l0.5 -1q0 -3 -2 -3.5t-4 -0.5v21q0 3 2 4.5t4.5 2.5t5 2.5t2.5 4.5t-3 4.5t-6.5 2t-7.5 0.5h-5h-6h-5q-2 0 -2 -3v-3q0 -5 1.5 -7.5t3 -3.5t3 -1.5
t3.5 -2.5t3 -5.5t1 -9.5q0 -1 -0.5 -4t-0.5 -5q0 -1 -1 -1h-2h-2t-2 1v15l-3 3q-1 0 -1.5 -1.5l-0.5 -1.5v-1q0 -4 1 -8t1 -9q0 -2 -1 -5.5t-5 -3.5h-1l-1.5 0.5l-1.5 0.5v26l-0.5 2l-0.5 2l-0.5 0.5l-0.5 0.5q-5 0 -6 -3t-1.5 -6.5t-1.5 -6t-6 -2.5q0 4 0.5 9t1.5 8
q0 4 2.5 5t5 1.5t4.5 0.5t2 2v17q0 1 -3 1t-6.5 1t-6.5 2.5t-4 5.5q0 1 -0.5 3t-1 4.5t-1.5 4.5t-1 3v5.5t-0.5 7.5t-0.5 8v7q5 0 6.5 -3t2 -7.5t0.5 -9.5q0 -6 1 -11t3.5 -9t8.5 -5t11 -1t10 -0.5t9 -0.5h11zM69 104q0 -3 0.5 -3.5t2.5 -1.5q6 -2 9.5 -2h8.5h7q1 1 1 1.5
v1.5q0 9 -3.5 12t-11.5 3q-5 0 -9.5 -2.5t-4.5 -8.5zM137 94l1 2h3h4h10.5t13 -0.5t12 -1t8.5 -1.5v-1.5v-0.5q0 -3 -1.5 -3.5t-3.5 -0.5h-6q-1 0 -5.5 0.5t-9.5 1t-9.5 0.5h-6.5q-1 1 -4.5 2t-4.5 2l-0.5 0.5zM83 78h1q1 0 3 0.5t4 0.5t4.5 0.5l2.5 0.5v4v1v2.5t-0.5 2.5
l-0.5 1h-28q0 -6 4 -9.5t10 -3.5zM78 44q0 -2 1 -4t2.5 -3.5t3.5 -3t3 -1.5q3 0 5.5 3.5t3.5 6.5v1v1q-1 0 -1.5 0.5l-0.5 0.5q-1 0 -2 0.5l-1 0.5l-14 -1v-0.5v-0.5z" />
</svg>
