<?xml version="1.0" standalone="no"?>
<!DOCTYPE svg PUBLIC "-//W3C//DTD SVG 1.1//EN" "http://www.w3.org/Graphics/SVG/1.1/DTD/svg11.dtd" >
<svg xmlns="http://www.w3.org/2000/svg" xmlns:xlink="http://www.w3.org/1999/xlink" version="1.1" viewBox="-10 0 266 256">
   <path fill="currentColor"
d="M112 246q1 5 6 5q2 0 3 -2.5t1 -4.5t-1 -5.5t-2.5 -7l-3 -7t-2.5 -5.5q-1 -6 -2 -13l-2 -14t-2.5 -13.5t-4.5 -12.5v-16q0 -13 1 -25.5t4 -24.5q1 -6 3 -9.5t3.5 -7.5t2.5 -8.5t1 -10.5q0 -3 -1.5 -5t-4 -3t-5 -1h-5.5t-5.5 1.5l-5 3l-5 3t-5.5 1.5q-2 0 -3.5 -1t-1.5 -2
q0 -2 0.5 -5.5t1 -7.5t1.5 -7.5t2 -5.5q1 -3 2 -4.5t2.5 -3t2.5 -3.5t1 -6q0 -2 -1.5 -3t-3.5 -1t-4 1t-3 3q-3 10 -6 21.5t-3 22.5q0 3 0.5 5.5t0.5 5.5q0 4 -3.5 6.5t-8 5t-8 6.5t-3.5 9q4 0 7 -1t5 -3l4.5 -4.5t5.5 -4.5q3 2 4.5 6.5t2 9t0 9t-0.5 7.5q0 21 -2 41.5
t-8 40.5q-3 11 -7.5 21.5t-6.5 20.5v2q0 3 4 3q2 0 4.5 -4.5t5 -11t5 -15t4.5 -16t3.5 -14t2.5 -8.5q0 -3 0.5 -6.5t1 -8t1 -8l0.5 -3.5v-2v-4.5v-5.5v-4q0 -14 -0.5 -27t-0.5 -26v-7q1 -2 4 -4.5t6 -4.5t6.5 -3.5t5.5 -1.5q4 0 4.5 3t0.5 6q0 6 -1.5 12t-4.5 11
q-2 12 -4 23t-2 23q0 27 4.5 53.5t12.5 51.5zM148 229h4t7 0.5t7 0.5h4h1q15 0 22 -4.5t10 -13t3 -19v-22.5v-22v-22q-1 -2 -2 -3.5t-3 -1.5q-3 0 -4 2.5t-1 4.5q0 3 1 5t1 4t-0.5 4.5t-2.5 2.5q-4 0 -7 -1.5t-6 -4.5t-5 -6t-2 -6v-2l0.5 -2.5t0.5 -4.5t0.5 -4t0.5 -3
l1 -0.5t2 -1.5v0h2l2 0.5t4.5 0.5t4.5 0.5t3 0.5h3q2 0 3.5 -1t1.5 -3v-1l-0.5 -1.5l-0.5 -1.5h-3h-4h-4h-3h-3h-4h-4h-1q-1 0 -2 0.5t-2.5 0.5t-2.5 0.5t-2 0.5h-10q-6 0 -10.5 1t-8.5 3.5t-6 7.5q0 3 -0.5 8.5t-0.5 11.5t-0.5 11.5t-0.5 7.5v1v1q1 3 1 8.5t0.5 10.5t0.5 9
v4q0 1 0.5 3t1 4.5t1 4.5l0.5 2q1 4 1 8q0 3 0.5 6.5t3 6.5t7.5 4zM144 209q0 -1 0.5 -2t1.5 -1q2 0 7 -0.5t10.5 -1t10.5 -1t8 -0.5h3q4 0 7 1t3 6q0 3 -3 5.5t-6.5 4t-7.5 2t-7 0.5h-8t-9 -1.5t-7 -4t-3 -7.5zM141 186q0 -5 5 -7t11.5 -3t12.5 -0.5t10 -0.5l2 -0.5t3 -0.5
h5h1h2h2t1 1v5v4v7q0 3 -3 5q-3 0 -8.5 0.5t-11.5 0.5t-11.5 0.5t-7.5 0.5h-2q-7 0 -9 -2.5t-2 -9.5zM139 168q0 -2 4.5 -6.5l9.5 -9.5t9.5 -8.5t5.5 -3.5q4 0 8.5 2.5t9 6t7.5 7.5t3 7v2.5t-2 2.5q-6 -1 -11.5 -0.5l-11 1t-11 1.5t-11.5 1h-4h-4l-1.5 -1.5t-0.5 -1.5z
M139 148v-5.5v-5.5v-5q0 -4 0.5 -7.5t1.5 -6.5t3 -4q6 -1 9.5 -1h8.5t6 3.5t1 8.5q0 3 -3 7t-7.5 8t-9 7t-6.5 3q-1 0 -2 -0.5t-2 -1.5zM136 93q1 1 2 1.5l1 0.5h1v0h0.5h0.5q1 0 2 -0.5t1 -1.5v-4.5v-7.5v-7.5v-4.5t0.5 -3t1.5 -4.5t2.5 -4.5t2.5 -2v-25q0 -2 -2 -4.5
t-5 -4.5t-6 -3t-5 -1h-2t-1 1l-2 4l8 8t7 8v5v4q0 5 -1 9.5t-2.5 9t-2.5 9.5t-1 10v8zM196 78q0 2 0.5 5t1.5 5.5t2.5 4.5t3.5 2q3 0 3 -2v-4q0 -4 -1.5 -7t-1.5 -7q0 -5 1.5 -9l3 -8t2.5 -8t1 -8q0 -2 -1 -7t-3 -10t-4.5 -8.5t-5.5 -3.5t-4 1.5t-1 4.5q0 4 1 6.5t2.5 5
t3 5.5t1.5 7q0 9 -2.5 17.5t-2.5 17.5zM165 85v3v2l3 3l6 -5q0 -5 1 -11t2.5 -12t3 -11.5t1.5 -11.5q0 -3 -1.5 -7.5t-3.5 -8.5t-5 -7t-6 -3h-3.5t-1.5 3t1.5 5.5t3.5 6l4 7t2 8.5t-1 10t-2.5 9.5t-2.5 9.5t-1 10z" />
</svg>
