<?xml version="1.0" standalone="no"?>
<!DOCTYPE svg PUBLIC "-//W3C//DTD SVG 1.1//EN" "http://www.w3.org/Graphics/SVG/1.1/DTD/svg11.dtd" >
<svg xmlns="http://www.w3.org/2000/svg" xmlns:xlink="http://www.w3.org/1999/xlink" version="1.1" viewBox="-10 0 266 256">
   <path fill="currentColor"
d="M178 169q0 9 0.5 17.5t1.5 16.5t2.5 16t3.5 18q0 1 0.5 3.5t1.5 4.5t2.5 3.5t3.5 1.5q4 0 4.5 -1.5t0.5 -4.5q0 -8 -1.5 -17t-4 -17.5t-4 -18t-1.5 -18.5v-3q0 -2 0.5 -5.5t0.5 -6.5v-3l2 -2l2 1t3 3q1 0 2 1.5t2.5 3l3 3l2.5 2.5h2h1q3 0 5 -1t2 -4q0 -4 -3.5 -6.5
t-7.5 -5t-7.5 -6t-3.5 -8.5q0 -8 2 -13.5t4.5 -10t5 -8.5t2.5 -8q0 -2 -2.5 -2h-4.5q-4 0 -6 3.5t-3.5 8t-3 8.5t-4.5 4q-1 0 -3.5 -4.5t-4.5 -10.5t-3.5 -11.5t-1.5 -7.5v-2q0 -2 0.5 -3l1 -2t1.5 -1h28q3 0 3.5 -1.5t0.5 -3.5q0 -4 -1.5 -4.5t-4.5 -0.5q-7 0 -13 1t-12 1
h-2.5t-1.5 -1v-15h20q2 0 4 -2.5t4 -5.5t2.5 -6.5t0.5 -4.5v-3t-1 -4t-2 -3.5t-2 -1.5q-5 0 -6 3t-2 7.5t-3 8t-8 3.5q-3 0 -5 -1.5t-2 -4.5q0 -4 1 -8.5t1 -8.5q0 -3 -1.5 -5.5t-4.5 -2.5q-4 0 -5.5 3t-2 7t-0.5 8v6q0 7 2 12.5t2 12.5q0 5 -3.5 8t-8 3.5t-10 0.5h-10.5
t-8 1t-3 5q0 2 1.5 2.5t3.5 0.5q8 0 16 -1t15 -1h3.5t3.5 2q1 8 2.5 14.5t4 12.5t5.5 12.5t8 12.5v3q0 8 -2.5 15.5t-2.5 16.5zM47 221q2 3 6.5 5.5t6.5 3.5h2h5h3h3q6 0 12.5 -1t12 -4t9 -8t3.5 -13v-44q-1 -3 -1 -7.5v-9.5t-1.5 -8.5t-4.5 -3.5q-2 0 -3 1.5t-1.5 3.5
t-1.5 4t-4 2q-5 0 -6.5 -4.5t-1.5 -9.5v-2v-5t1 -3.5t2 -1.5h20q1 0 1.5 -1.5t0.5 -2.5t-0.5 -1.5l-1.5 -1.5h-11h-16.5t-18 1.5t-13.5 7t-4 16.5v8v10.5v10.5v7v10v11v10v5v3t0.5 4.5t0.5 5t1 2.5zM57 210l0.5 -2l0.5 -2l4 -2h3t7.5 -0.5t9.5 -0.5h8h3q3 0 3.5 1t0.5 4
q0 5 -2 8t-5 4t-7 1.5t-8 0.5q-3 0 -6 -0.5t-5.5 -2t-4.5 -3.5t-2 -6zM53 187q0 -5 2.5 -7t6.5 -2.5t8 -0.5h8h2h3h3h3h4h4l1 2v13q0 1 -4 1.5t-9.5 1l-11 1t-8.5 0.5q-6 0 -9 -1t-3 -8zM120 167q-1 0 -1.5 1t-1 2.5t0 2.5l0.5 1h4.5h7.5h7.5h5.5q2 -1 7 -1t10 -0.5t8.5 -2
t3.5 -5.5h-26.5t-25.5 2zM53 164q0 -1 4 -4t8.5 -6t8.5 -5t5 -2q3 0 6.5 1.5t6.5 4t4.5 6t1.5 6.5v2v2h-6.5t-10 0.5t-10 0.5h-6.5h-2h-1q-2 0 -5.5 -1.5t-3.5 -4.5zM55 143q0 -2 1 -7t2.5 -9.5t4.5 -7.5t7 -1q4 1 4.5 3t0.5 5t-1 7.5t-3 7.5t-5.5 5.5t-7.5 1.5
q-2 0 -2.5 -1.5t-0.5 -3.5zM123 117v9q0 3 0.5 6.5t2.5 6.5t5 6h6h5q8 0 12.5 -1t7 -3.5t2.5 -7v-12.5v-12q-1 -6 -5.5 -7.5t-10.5 -1.5q-3 0 -7.5 1t-8.5 3t-6.5 5t-2.5 8zM133 125q0 -7 2.5 -11.5t9.5 -4.5h3.5h2.5q3 2 3.5 5.5t0.5 7.5q0 7 -2 11.5t-10 4.5q-5 0 -7.5 -4
t-2.5 -9zM50 82v4.5t1 5t2.5 4t3.5 1.5q3 0 4.5 -0.5t1.5 -4.5v-1.5v-1.5q0 -1 -0.5 -3.5t-1 -6t-1 -6t-0.5 -3.5q0 -4 1 -7.5t2.5 -7t2.5 -7t1 -7.5q0 -2 -1 -6t-3 -7.5t-5 -5.5t-7 -1l-1 1l-2 2v1q0 2 1.5 5t3 5.5l3 5t1.5 5.5q0 5 -1 9t-2.5 8.5t-2.5 9t-1 9.5zM77 80
q0 3 1 8.5t2 8.5q3 0 6.5 -1.5t3.5 -6.5q0 -4 -2 -8t-2 -8q0 -6 1.5 -10.5t4.5 -9.5v-26q0 -2 -1.5 -3.5t-4 -2.5t-4.5 -1.5t-4 -0.5t-3.5 0.5t-1.5 2.5t1.5 4t3 4.5t3 5.5t1.5 8q0 4 -1 8.5l-2 9t-1.5 9t-0.5 9.5zM100 68v10t1 9t4 7t9 3q0 -4 -1 -7t-2 -6.5t-2 -6.5t-1 -7
t1.5 -8.5t3 -8.5t2.5 -8.5t1 -8.5q0 -5 -2 -9.5t-8 -4.5q-3 0 -4 1.5t-1 3.5q0 4 2 6.5t2 7.5q0 7 -2.5 13.5t-2.5 13.5z" />
</svg>
