<?xml version="1.0" standalone="no"?>
<!DOCTYPE svg PUBLIC "-//W3C//DTD SVG 1.1//EN" "http://www.w3.org/Graphics/SVG/1.1/DTD/svg11.dtd" >
<svg xmlns="http://www.w3.org/2000/svg" xmlns:xlink="http://www.w3.org/1999/xlink" version="1.1" viewBox="-10 0 266 256">
   <path fill="currentColor"
d="M90 247q0 1 1 2l2 2h1v0q1 -1 2.5 -2t1.5 -2l14 -26l1 -5.5t2 -12.5l2 -14t1 -12q0 -1 0.5 -3.5t0.5 -4.5q0 -3 -0.5 -5.5t-0.5 -3.5q1 -3 3 -3.5t4 -0.5t4.5 2t4.5 5t3 6.5t1 5.5v44l1 1l1 1h1h1l1.5 -1.5t1.5 -2.5q0 -11 1 -22.5t1 -22.5v-2l-1 -2.5t-1.5 -5t-1.5 -4.5
t-1 -4q-1 -2 -3 -5t-4 -3h-22q-1 -4 -4 -10t-6.5 -11t-6.5 -9.5t-3 -6.5t0.5 -5t2 -6.5t3.5 -5.5t5 -2q2 0 5 1t6 3t5 3.5t3 2.5h4v-3q-1 0 -2 -2t-3.5 -4.5l-3.5 -3.5q-1 -2 -3 -3t-3.5 -2.5t-2.5 -3t-1 -3.5q0 -4 0.5 -6.5t1.5 -6.5q2 0 4 1.5t4.5 3t4.5 2.5t4 1t3 -0.5
t2 -2.5l-2.5 -2.5l-3 -3l-3 -3t-1.5 -2.5l-1.5 -0.5t-3 -2t-3 -2.5l-1.5 -1v-16q0 -1 -0.5 -1.5l-0.5 -0.5h-1q-2 0 -3 1.5l-2 3t-2.5 3t-3.5 1.5t-3.5 -1l-3 -2t-3.5 -2t-4 -1q0 4 2.5 7t5.5 5.5t5.5 5t2.5 6.5q0 3 -1 5t-3 5h-1h-1q-1 -1 -2.5 -2t-3.5 -2t-4.5 -2l-2.5 -1
l-4 1q2 5 6.5 9.5t7.5 6.5v3q0 2 -1.5 5.5t-3.5 6.5t-4.5 5.5t-4.5 2.5q-1 0 -2.5 -1.5l-3 -3t-2.5 -3.5t-2 -3v-15q0 -7 0.5 -10.5l1 -7t2 -7t3.5 -8.5q2 -6 3.5 -10t4 -6.5t5.5 -4t9 -1.5q7 0 12 2.5t10.5 5t10.5 5t12 2.5q0 -4 -5 -8.5t-11.5 -9t-13.5 -7t-11 -2.5
q-10 0 -17 5t-12 12.5t-9 16.5t-7 17v2v1q0 2 0.5 6l1 8t0.5 7.5v5.5q4 12 14 19v1.5v1.5q0 5 -4 9.5t-9 7.5t-9 6t-4 6q0 1 0.5 2t2.5 1q5 0 10 -3.5t9.5 -8t8.5 -8t8 -3.5q3 0 5 2.5t2 6.5q0 3 -1.5 5t-3.5 4t-5 3.5t-5 3.5q-4 3 -6.5 7t-5.5 8.5t-5.5 8.5t-6.5 7v1v1
q0 1 1 2l1 1h1q4 0 9 -5.5t11 -13t11 -14.5t8 -10h1h1l0.5 0.5l1.5 1.5l1 2t2 4.5t2 4.5l1 2q-1 1 -3 4.5t-5.5 9t-6.5 11.5t-6 11.5t-5 9l-2 3.5v0q0 1 0.5 1.5l0.5 0.5h1q5 0 8.5 -5t6 -11t5 -11t4.5 -5t3 2.5t1 4.5q0 5 -1 11.5t-2.5 14t-3 14t-3.5 11.5q-1 2 -2.5 4
t-2.5 4l-2 4t-1 4zM169 128q4 0 5.5 3.5t2 8t0.5 9v5.5q1 5 3 9t2 9q3 17 6.5 33.5t9.5 32.5q0 2 0.5 3.5t1.5 3.5l1.5 3l0.5 1h5q0 -7 -1.5 -14t-3.5 -13t-4 -12.5t-4 -12.5q-1 -7 -1 -14.5t-2 -14.5q-1 0 -1.5 -1t-1 -2.5l-1 -3l-0.5 -1.5q-1 -8 -2 -17t-1 -17q0 -4 1 -6
t3 -3.5l4 -3t4 -4.5q6 -9 8 -19t2 -21q0 -5 -0.5 -10.5t-2.5 -10t-5 -8t-9 -4.5q-1 0 -4.5 -0.5l-7 -1t-7 -0.5h-5.5h-3h-4t-3 2v1l1.5 1.5l0.5 0.5l27 5q4 1 7 4t4.5 7t2 8.5t0.5 8.5q0 2 -1 7.5t-2.5 11t-4 9.5t-6.5 4q-2 0 -3 -2t-2 -5.5t-2 -7.5t-3 -7.5t-7 -5.5t-13 -2
v0q-2 0 -5 0.5t-5 1l-2 0.5v2l6 3q9 4 13 5.5t6 4.5t2.5 8t2.5 15q-1 3 -4 5t-6 3t-6 2.5t-6 3.5q2 2 3.5 2h3.5q3 0 6 -1t6 -1z" />
</svg>
