<?xml version="1.0" standalone="no"?>
<!DOCTYPE svg PUBLIC "-//W3C//DTD SVG 1.1//EN" "http://www.w3.org/Graphics/SVG/1.1/DTD/svg11.dtd" >
<svg xmlns="http://www.w3.org/2000/svg" xmlns:xlink="http://www.w3.org/1999/xlink" version="1.1" viewBox="-10 0 266 256">
   <path fill="currentColor"
d="M90 249q1 2 2.5 2h2.5h3t2 -2v-58q0 -1 -0.5 -4t-0.5 -4q0 -2 -0.5 -5.5t-0.5 -7.5t0.5 -7.5t0.5 -4.5q-2 -3 -2 -4.5v-4.5q0 -1 1.5 -3.5t3.5 -4.5t4 -3.5t4 -1.5t3.5 1.5t2 4t0.5 4.5v2q0 3 0.5 7.5l1 9t1 8l0.5 3.5v4v5v5v3l0.5 2.5t0.5 5.5t0.5 5.5t0.5 3.5l0.5 0.5
l0.5 0.5q0 1 1 1q2 0 3 -2t1 -4v-2v-4v-4v-2q0 -17 -1 -34.5t-7 -33.5l-3 -3t-4 -2h-1l-11 11h-3q-1 -5 -4 -10t-6.5 -9t-6 -7.5t-2.5 -5.5t1 -5.5t2.5 -6.5t3.5 -6.5t3 -5.5q0 -1 0.5 -2l0.5 -1h19l3 -4q-1 -1 -3.5 -2t-5 -1h-5h-3.5q-2 -1 -2 -4v-5v-3v-2l3 -4h20
q0 -4 -2.5 -5.5t-5.5 -2t-6 0t-6 0.5l-0.5 -2t-0.5 -3v-3t0.5 -4.5t0.5 -3.5v-1h21q1 0 1.5 -1.5l0.5 -1.5q0 -4 -5 -7h-7q-15 0 -25.5 2.5t-17.5 8.5t-10 16.5t-3 26.5q0 11 3.5 18t9.5 15v1q0 4 -3 7.5t-7 6.5t-7 6t-3 7t3 4h1v-1q1 0 3 -2t4.5 -4t4.5 -3.5t3 -2.5t2 -3
l2 -4t2.5 -3t3.5 -1q3 0 5 3.5t2 5.5q0 3 -0.5 3.5l-3.5 3.5q-7 5 -13 12t-13 13q-2 2 -2 5v5q5 0 10.5 -5t10.5 -11t9 -12t7 -9l4 3v1.5v3.5t0.5 4.5t0.5 3.5v1v1q0 4 -1 6t-3 4l-4 4t-5 4q-2 3 -6.5 10t-9.5 15t-9 15t-4 10v1q1 0 1.5 2l0.5 2q1 2 2 2q2 0 5 -4t6.5 -10.5
t7 -14t7 -13.5t6.5 -10.5t5 -4.5h1q0 1 0.5 4t0.5 4t0.5 5.5t0.5 10.5t0.5 12.5t0.5 10.5v1q0 8 -1 16t-1 16v10zM122 244q0 2 1 3.5t3 1.5q5 0 9.5 -7t7.5 -17t6 -22t5.5 -22.5t5 -17.5t4.5 -7h1v0q1 1 2 4.5t2 5.5l0.5 2.5t1.5 5.5t1.5 5.5t1.5 3.5q3 10 7.5 19t7.5 19
q1 2 2 5t2.5 6.5t2.5 6.5t3 5q1 2 3 2h3q7 0 7 -6v-2q-7 -12 -13.5 -25.5t-12.5 -26.5q-3 -8 -5.5 -16.5t-5.5 -16.5l-1 -1.5t-1.5 -3t-1.5 -3l-1 -1.5q-1 -5 -1 -8v-5q0 -3 -0.5 -5.5t-1.5 -5.5v-52q8 0 14 4t11 8.5t8.5 8t4.5 3.5q3 0 6 -2t3 -5v-1h-1q-2 -3 -4 -5
t-3.5 -4t-3.5 -3t-5 -3q-1 0 -4 -1t-6 -2.5t-5.5 -2.5t-3.5 -1q0 -1 -2 -1.5l-4 -1t-3.5 -1.5l-1.5 -1v-39q0 -2 -2 -4.5t-3 -2.5q-2 0 -4 2.5t-2 4.5v41q0 1 -3 3t-7.5 4.5t-10 5t-10 5.5t-8 6t-3.5 6t1 4t4 1q2 0 3 -0.5t1.5 -1t1 -1.5t2.5 -3q6 -5 12 -9t14 -8v0h1h2t1 2
v4t0.5 6.5t0.5 6.5v5v13t-0.5 12t-0.5 12t-1 13q-1 1 -1.5 2.5t-0.5 2.5t-0.5 5t-1.5 8.5t-1.5 8.5l-0.5 4q-4 14 -9.5 28.5t-11.5 27.5q-1 2 -4 5.5t-3 6.5zM62 76h18q0 4 -3 9t-6 8l-0.5 0.5l-0.5 0.5q-3 0 -4.5 -2.5t-2.5 -5t-1 -6v-4.5zM62 54l3 -3h18v14l-4 3h-17v-14z
M66 41q0 -3 1.5 -6t3.5 -5t5 -3.5t6 -1.5q1 0 2 1.5t1.5 3t0.5 3.5v2q0 6 -2.5 7.5t-8.5 1.5h-3h-3t-2 -1t-1 -2z" />
</svg>
