<?xml version="1.0" standalone="no"?>
<!DOCTYPE svg PUBLIC "-//W3C//DTD SVG 1.1//EN" "http://www.w3.org/Graphics/SVG/1.1/DTD/svg11.dtd" >
<svg xmlns="http://www.w3.org/2000/svg" xmlns:xlink="http://www.w3.org/1999/xlink" version="1.1" viewBox="-10 0 266 256">
   <path fill="currentColor"
d="M68 246q0 2 0.5 3t3.5 1q4 0 6 -2.5t4 -6.5t3 -9t1.5 -9.5t1 -8t0.5 -5.5q0 -1 0.5 -3.5l1 -5t1 -4t0.5 -2.5q0 -3 1 -10t1.5 -14.5t0.5 -14.5v-10q2 -2 4 -2h4h1h2l0.5 3t0.5 4v64q4 0 6 -2t3 -5t1 -6v-5v-3v-7v-7v-6v-6v-8v-6.5v-2.5v-6.5t-1 -6t-3 -4.5t-5 -2
q-4 0 -6 2t-5 2h-2v-3.5v-5.5t-0.5 -5.5t-0.5 -3.5t-1 -3.5t-1 -3.5q-2 -5 -6 -10t-4 -11q0 -1 1.5 -5.5t3.5 -9.5t4 -8.5t4 -3.5h21q1 0 1 -2v-3q0 -3 -2.5 -3h-6.5q-3 0 -6 -1t-3 -5q0 -2 0.5 -4t2.5 -3q1 0 3 0.5t5 0.5q2 0 4.5 -0.5t4.5 -2.5v-1v0v0q0 -1 -1.5 -2
t-1.5 -2q-1 0 -3 0.5t-4 0.5q-3 0 -5 -0.5t-3 -1.5v-1v-3t1 -4t2 -3.5t3 -1.5h2t2 0.5t2 0.5h1h5q2 0 4.5 -0.5t2.5 -3.5v-0.5v-0.5l-2 -2t-2 -1h-40q-3 1 -7 1.5t-7.5 1.5t-6.5 3t-5 6q-1 2 -3 5.5l-2 3.5v28q3 6 5.5 12t5.5 12l-2 3q-3 2 -6.5 4t-6.5 4t-4.5 5t-1.5 8
q5 0 8 -2.5t6.5 -5.5t7 -5.5t8.5 -2.5q3 0 5 2.5t2 5.5l-0.5 1.5l-0.5 1.5q-8 11 -17.5 21t-19.5 19v1.5v1.5v3t2 2l1.5 -0.5t2 -1l2 -2t3.5 -3t3.5 -3t2.5 -1.5q2 -2 5.5 -6.5l7 -9t7 -8t5.5 -3.5h1h1q1 5 1.5 9t0.5 9v10q-6 6 -13.5 12.5t-15 13.5t-12.5 15t-5 17
q5 0 8 -2.5t5 -6t4 -8t5 -6.5q0 -1 1.5 -2l3 -2t2.5 -2t2 -1q1 -1 2 -3.5t2.5 -4.5t3 -3.5t3.5 -1.5h3q0 8 -1 16.5t0 16.5l-12 44q-2 3 -2.5 5t-0.5 6zM130 159q0 9 2 18t4.5 18l5 18t3.5 17q0 2 0.5 6l0.5 4q1 2 2 2h3q7 0 7 -8q0 -2 -1 -5t-2.5 -5t-2.5 -4.5t-2 -5.5
q-5 -15 -8.5 -30t-3.5 -30q0 -12 3 -23.5t6.5 -23t6.5 -23t3 -23.5q0 -9 -2 -18l-4 -18q-2 -3 -3.5 -4.5t-4.5 -1.5t-3 4v0.5v1.5l0.5 2t1.5 3.5t2 3.5l1 2q1 4 2 6.5t1 5v4.5v7q0 13 -3 25t-6.5 24.5t-6 25t-2.5 25.5zM158 158q0 11 2 20t4.5 18.5t6 18.5t7.5 19
q1 2 1.5 2.5t2.5 0.5q4 0 4.5 -2.5t0.5 -5.5q0 -5 -2 -11t-5 -12.5t-5.5 -12.5t-4.5 -10l-2 -8t-1 -8.5t-0.5 -8.5t-0.5 -7q0 -12 3 -24t6.5 -24t6.5 -24t3 -24q0 -5 -0.5 -11.5t-2.5 -12.5t-5.5 -9.5t-10.5 -3.5q0 5 2.5 8t4.5 7q1 2 2 5t1.5 6t1 6.5t0.5 5.5q0 5 -1 9
t-2 9q-3 10 -6 20.5t-5.5 21t-4 21t-1.5 21.5zM206 234q1 0 2 0.5t2 0.5v1h1q2 0 3.5 -1.5t2.5 -3.5t1 -4v-3q0 -4 -1 -7t-3.5 -6t-4.5 -6t-3 -6q-4 -12 -6.5 -25.5t-2.5 -25.5v-2q0 -1 1 -5.5t2 -9.5t2 -9.5t1 -6.5l0.5 -2t0.5 -4t0.5 -3.5l0.5 -1.5q3 -14 7.5 -27.5
t4.5 -27.5q0 -5 -1.5 -10.5t-4.5 -10.5t-7.5 -7.5t-9.5 -2.5q0 4 2 8t4 9t4.5 10t2.5 12t-1.5 13t-3.5 12t-4 11.5t-3 11.5q-3 13 -5 24.5t-2 24.5q0 10 2 20t5 20l6 20t5 20zM63 67q0 -4 1.5 -4.5t4.5 -0.5q1 0 3 0.5t3.5 0.5t3 1.5t1.5 2.5q0 4 -3 7.5t-7 3.5l-1 -0.5
l-1 -0.5q-3 -3 -4 -5t-1 -5zM59 53v-5q0 -2 1.5 -4.5t4.5 -2.5h1h5.5t5.5 0.5l6 1t5 1.5q0 1 1 1.5l1 0.5q0 2 -1.5 4.5t-3.5 3.5h-11q-2 0 -6.5 0.5t-8.5 -1.5zM66 34v-1v-1q0 -2 2 -4t5 -3.5t6 -2.5t5 -1q4 0 5.5 2.5t1.5 7.5q0 2 -0.5 3.5t-2.5 1.5h-3q-1 0 -4 -0.5
t-5.5 -0.5t-5.5 -0.5t-4 -0.5z" />
</svg>
