<?xml version="1.0" standalone="no"?>
<!DOCTYPE svg PUBLIC "-//W3C//DTD SVG 1.1//EN" "http://www.w3.org/Graphics/SVG/1.1/DTD/svg11.dtd" >
<svg xmlns="http://www.w3.org/2000/svg" xmlns:xlink="http://www.w3.org/1999/xlink" version="1.1" viewBox="-10 0 266 256">
   <path fill="currentColor"
d="M90 243q0 3 1 4.5t3 1.5q3 0 4.5 -2.5t2.5 -3.5q1 -13 2 -23t1.5 -20.5l1 -21t0.5 -22.5q0 -1 0.5 -3t2.5 -3l6 6l0.5 2t0.5 5t0.5 6t0.5 5v1q0 1 0.5 3t0.5 4.5t0.5 4.5t0.5 3v6.5v9.5v10.5v6.5q0 1 1 3t3 2v0q1 0 3 -1.5t3 -1.5v-13q0 -16 -1.5 -31.5t-5.5 -30.5
l-18 -18l-0.5 -1.5t-0.5 -2.5q-1 -1 -1 -2t-0.5 -2.5t-0.5 -2.5v-1q-3 -8 -7 -14.5t-11 -11.5v0v-1q0 -2 1.5 -5t3.5 -6t4.5 -5.5l3.5 -3.5q2 -1 5 -1t5.5 -0.5t4 -1.5t1.5 -5q0 -2 -2.5 -2.5t-5.5 -0.5t-5.5 -1t-2.5 -4q0 -4 2.5 -5.5t5 -2.5t5 -2.5t2.5 -4.5v-2h-5
q-3 0 -4.5 -0.5t-3 -1.5t-1.5 -4t2 -4.5t5 -2.5t5.5 -2.5t2.5 -3.5q1 -3 -1.5 -4.5t-6.5 -2t-8 -0.5h-5q-15 0 -25 7t-10 24l0.5 1t0.5 2v8q0 1 0.5 4t0.5 6t0.5 5l0.5 2q1 6 3 10t2 10q0 4 -2.5 6.5l-5 5t-5.5 5t-3 6.5q-1 3 0 3.5t3 0.5h1v0l5.5 -5.5t6 -4.5t7.5 -3.5
t7 -1.5t3.5 2t0.5 5v1.5v1.5l-23 22l-0.5 1t-1 2.5t-1 3.5t-0.5 3v1q0 2 2 3t3 1q2 0 5.5 -4.5t7.5 -10t8 -10t8 -3.5l2.5 2.5t2 3.5l1 4t0.5 3q0 2 -1 4t-2.5 4t-3.5 3.5t-2 3.5q-1 0 -3 3.5t-3.5 7t-3.5 7t-2 4.5q-3 4 -5.5 9.5t-5 10.5t-4 10.5t-1.5 10.5q0 3 1 5t4 2
t5 -4q0 -2 2 -6.5t4 -10t4 -10t3 -6.5q0 -1 1 -2.5t2 -4t2 -4t1 -2t1 -2.5t1.5 -4.5t2 -4.5t2.5 -2l1 1q1 6 2 15t1 16t-1.5 13.5l-3 13l-3 13t-1.5 12.5zM138 238l1.5 1.5l1.5 1.5q4 0 5.5 -2t1.5 -4v-5t1 -5l1 -1.5l1 -1.5l-2.5 -12.5t-4.5 -12.5v-8.5v-14t-0.5 -14
t-0.5 -8.5q0 -1 -0.5 -2.5t-0.5 -3t-0.5 -3l-0.5 -1.5v-70q0 -4 3.5 -6.5t7.5 -4.5t7 -4t3 -6v-24q0 -3 -3 -4t-7 -1.5t-8 -0.5h-4q-1 0 -4 -0.5t-5.5 0l-5 1t-2.5 2.5q0 5 2 6.5t6 1.5q5 0 9 -0.5t8 -0.5q5 0 5.5 3t0.5 6q0 1 -3 5t-7.5 8.5l-8.5 8.5l-5 5v37q1 2 1.5 5.5
t0.5 6.5v6v6q0 13 1.5 27t2.5 27.5t2 27.5t0 28zM195 236q1 1 2 1.5t2 0.5q3 0 4.5 -1.5t2.5 -4t1 -5v-4.5q0 -8 -2 -17t-5 -17t-5 -17t-2 -17q0 -3 1 -5.5t3 -5l4 -5t3 -5.5v-12q0 -13 -2.5 -19.5t-7.5 -10t-13 -4t-19 -0.5h-11l-1 0.5l-1 0.5v0.5v0.5q0 4 3 5.5t7 2t9 0
t10 -0.5t8.5 1t4.5 4q1 8 1.5 13t0.5 12q0 3 -0.5 6t-3.5 3q-2 0 -3 -2.5t-3 -5t-6.5 -5t-13.5 -2.5h-4.5t-4.5 0.5t-3.5 2t-1.5 4.5l0.5 1.5t1.5 1.5h23q1 0 2 2t2 4.5t1.5 5.5l0.5 3q0 4 -4.5 5t-10 2t-10 2.5t-4.5 5.5q0 1 0.5 2t1.5 1q7 0 12.5 -2.5t11.5 -2.5h3
q3 0 3 2q0 1 0.5 3.5t1 5.5t1 5.5t0.5 3.5l0.5 2l1 4l1 4t1.5 2q1 11 1.5 22.5t3.5 22.5zM72 73q0 -1 0.5 -2t2.5 -1q4 0 5.5 0.5t1.5 3.5q0 6 -7 6q-2 0 -2.5 -2.5t-0.5 -4.5zM67 53l0.5 -0.5l1.5 -1.5q1 0 3.5 -1.5l2.5 -1.5h1.5t3.5 0.5t4 0.5t3 1q1 0 1 2v3q0 3 -1 5.5
t-4 2.5t-6 -0.5t-5 -1.5t-3.5 -3t-1.5 -5zM172 56q0 1 0.5 2t1.5 1h1q1 0 4.5 -0.5t7.5 -0.5t7.5 -0.5t4.5 -0.5q6 -1 8 -5t2 -9q0 -7 -1 -11.5t-4 -7.5t-7.5 -4t-11.5 -1h-4.5t-6.5 1t-5.5 2t-1.5 4l2.5 2.5t4.5 2.5h19l1 0.5t2 0.5l1 1l1 1v11q0 3 -4.5 4t-8.5 1
q-5 0 -9 0.5t-4 5.5zM70 37q0 -4 4.5 -6t7.5 -2q4 0 6 1.5t2 4.5q0 2 -1.5 3.5t-3.5 2t-4.5 1t-3.5 0.5q-3 0 -5 -1.5t-2 -3.5z" />
</svg>
