<?xml version="1.0" standalone="no"?>
<!DOCTYPE svg PUBLIC "-//W3C//DTD SVG 1.1//EN" "http://www.w3.org/Graphics/SVG/1.1/DTD/svg11.dtd" >
<svg xmlns="http://www.w3.org/2000/svg" xmlns:xlink="http://www.w3.org/1999/xlink" version="1.1" viewBox="-10 0 266 256">
   <path fill="currentColor"
d="M81 241v5t3 2t6 -3t4 -6v-38v-2.5t0.5 -5t0.5 -4.5v-3v-11q0 -7 0.5 -15t1 -15t2.5 -10q1 -3 2 -3.5t3 -0.5q1 0 2.5 0.5t1.5 1.5v81q0 2 1.5 3t3.5 1q1 0 3 -1t2 -3v-91q0 -2 -2.5 -5t-5.5 -3q-1 0 -2.5 1t-3 2.5t-3 2.5t-2.5 1h-1.5h-0.5q-1 -4 -1.5 -9t-2 -9
t-3.5 -7.5t-6 -6.5q0 -1 2 -4t4 -7t4 -7t3 -3h17q2 0 2 -2v-3q0 -2 -2 -3.5t-5.5 -2.5t-6 -1h-3.5q-1 -1 -1.5 -2.5t-0.5 -2.5v0v-1q0 -2 1 -5l1 -3h15q1 0 1.5 -1t0.5 -2v0q0 -3 -2 -4t-5 -1.5t-6 -0.5t-4 -2l-0.5 -1.5t-0.5 -2.5q0 -4 2 -6t5.5 -2h7h6.5v-1.5t-0.5 -3
t-1.5 -2.5t-3 -1h-12q-14 0 -22.5 1t-14 5t-7 12.5t-1.5 23.5v4v6v6v4q0 3 1.5 5.5t4 4t4 3t1.5 4.5q0 4 -3 7.5t-7 6.5l-8 6t-6 6q-2 2 -3.5 5t-3.5 5q1 0 3 0.5l2 0.5v0h1q4 0 9 -3.5t9.5 -9t8.5 -10.5t8 -8v0q3 0 4 2t1 4q0 3 -2.5 7t-6.5 8.5t-8.5 9.5t-8.5 9t-6.5 7
t-1.5 4q0 3 1.5 3.5t3.5 0.5q5 0 9 -5t7.5 -11t7 -11t8.5 -5q3 0 3.5 2.5t0.5 5.5q0 6 -4 10.5t-7 9.5q-2 4 -7 12t-10.5 17.5t-9.5 18.5t-4 14q0 2 0.5 4.5t3.5 3.5l1.5 -0.5t1.5 -1.5q4 -3 7.5 -9.5t6.5 -14t5.5 -14.5t4.5 -12l1 -1.5l2 -3l2 -3t2 -1.5v0h1q1 0 1.5 0.5
l0.5 0.5v28q-3 9 -3.5 16.5t-1.5 16.5q-1 6 -2 11t-1 11zM200 116q0 25 1.5 48.5t3.5 48.5v16.5t1 16.5q1 2 3 2h3h3q2 0 2 -2q0 -1 0.5 -2.5t0.5 -3.5v-3v-2v-3v-3q0 -2 -0.5 -3t-0.5 -2l-0.5 -3l-1 -6t-1 -5.5t-0.5 -3.5q-1 -7 -1.5 -15t-0.5 -15.5t-0.5 -15.5t-2.5 -15
v-5v-8v-7v-5q0 -25 2.5 -50.5t2.5 -50.5v-5.5t-4 -1.5q-2 0 -3.5 0.5t-1.5 3.5q0 5 -0.5 13l-1 16t-1.5 16t-2 13v42zM129 237q0 2 0.5 4.5t3.5 2.5h1l3.5 -3.5t2.5 -5.5v-1v-7t-0.5 -13t-0.5 -13.5v-7.5v-2.5t0.5 -3.5t0.5 -3.5v-2.5v-6q0 -5 -1 -10t-1 -10q0 -1 0.5 -1.5
l0.5 -0.5q0 -1 0.5 -3.5l0.5 -2.5q0 -16 0.5 -31.5l1 -31l1 -31t0.5 -30.5q0 -4 -0.5 -5t-4.5 -1q-2 0 -4 1t-2 3v1q0 1 1 3.5t1 3.5v22q0 14 -1.5 28.5t-1.5 28.5v0q0 1 0.5 2t0.5 2v5v5q0 29 -1.5 58t-1.5 57zM150 193v11v9.5t0.5 9t1.5 10.5q0 2 1 5t4 3q2 0 3.5 -0.5
t2.5 -2.5v-7q0 -14 -2 -27t-2 -26v-3q1 -3 1.5 -8.5l1 -11t1 -10.5t0.5 -7v-2.5t0.5 -4.5t1.5 -4t2 -2h2.5t1.5 2q2 4 3 9t2 10.5t1.5 10.5t1.5 9v5t0.5 6.5t0.5 7v5.5v33l2.5 5t3.5 3t3 -1t1.5 -3t1 -3.5t0.5 -3.5q0 -7 -0.5 -17t-1.5 -20.5t-2 -20t-3 -17.5q-1 -4 -2.5 -9
t-3 -10.5t-2.5 -10.5t-1 -8q0 -4 1.5 -7.5t4 -7t4 -7t1.5 -7.5q-3 0 -5.5 1t-4.5 3.5t-3.5 5t-4.5 4.5q-1 -1 -2.5 -5.5t-2 -9.5t-1 -9.5l-0.5 -4.5q0 -4 2.5 -5.5t6.5 -2t7 -0.5h5q2 -1 3 -4q0 -8 1 -16.5t1 -16.5q0 -3 -1 -5t-4 -2q-2 0 -3.5 1.5t-1.5 3.5q0 4 0.5 9.5
t-0.5 11t-3.5 9t-8.5 3.5h-3t-3 -2q0 -1 1 -4t1 -4t0.5 -2.5t1 -3.5t1 -3.5t0.5 -2.5t-0.5 -3t-1.5 -3.5t-2.5 -2.5t-2.5 -1q-2 0 -3.5 0.5t-2.5 3.5v8.5t0.5 13.5t0.5 13.5t1 8.5v3t0.5 4.5l1 5t1.5 4.5q1 5 4 10t3 9t-1.5 8l-3 8t-3.5 8t-2 7q-2 8 -2.5 17t-2.5 17v27z
M68 72q0 -6 2.5 -7t8.5 -1q4 0 4.5 0.5t0.5 2.5q0 5 -2.5 10t-7.5 5q-2 0 -3.5 -1t-2 -2.5t-0.5 -3.5v-3zM68 54v-4v-2v-2.5t0.5 -2.5t1.5 -1h19q1 0 1 1t0.5 2.5t0.5 2.5v2v3t-2 2q-1 0 -3 0.5t-3 0.5q-4 0 -7 -0.5t-8 -1.5zM73 29q0 -3 1.5 -4t3.5 -2t4 -1h4q3 0 4 1.5
t1 4.5q0 1 -0.5 2.5l-0.5 1.5q0 1 -1 1.5t-2 0.5v0h-4.5t-4.5 -0.5t-3.5 -1.5t-1.5 -3z" />
</svg>
