<?xml version="1.0" standalone="no"?>
<!DOCTYPE svg PUBLIC "-//W3C//DTD SVG 1.1//EN" "http://www.w3.org/Graphics/SVG/1.1/DTD/svg11.dtd" >
<svg xmlns="http://www.w3.org/2000/svg" xmlns:xlink="http://www.w3.org/1999/xlink" version="1.1" viewBox="-10 0 266 256">
   <path fill="currentColor"
d="M97 240v4t3 2t5 -3t3 -5v-3.5v-6.5q0 -3 0.5 -5.5t0.5 -3.5q0 -16 -2 -32t-2 -32q0 -1 1 -2.5t3 -3.5t3.5 -4t2.5 -2t2 1t1 3q-1 16 1 32t2 33v3q0 1 -0.5 4l-0.5 3q0 2 2 2.5t3 0.5q3 0 4.5 -0.5t3.5 -2.5v-3v-3q0 -9 -1.5 -18l-3 -18t-2.5 -18t0 -18q0 -5 -3 -6t-7 -1
q-3 0 -5.5 1t-5.5 1q-1 0 -3.5 -5.5t-6 -12t-6 -13t-2.5 -7.5t1.5 -5.5t3.5 -9t4 -8t3 -3.5h13q1 0 1 -2v-3q0 -3 -3 -3.5t-7 -1t-7 -1.5t-3 -6q0 -4 3 -5.5t7 -2t7 -1.5t3 -6h-19v-14q0 -1 2.5 -2t6 -2t6.5 -2.5t3 -3.5q0 -1 -1 -2t-2 -1q-6 0 -12 1.5t-11 2.5
q-14 1 -20.5 3.5t-9.5 7t-3.5 12t-1.5 20.5v2v3q0 5 0.5 9.5t2.5 8.5q1 2 4 4t5.5 4t5 3.5t2.5 3.5v1v0q-3 3 -8 6.5t-10.5 7.5t-10 8t-4.5 7q0 2 1 3.5t3 1.5q3 0 8 -3.5t10.5 -8.5t10 -9.5t6.5 -5.5h1q1 0 2.5 2.5t2.5 5t2 5.5l1 3v1q-8 8 -16 14.5t-16 14.5v0.5v1.5
q0 3 5 3q3 0 6 -1.5t5 -4l4 -5t3 -4.5q1 -1 3 -2.5t4 -3.5l4 -4l2 -2l1 -1q2 0 3.5 2.5t2 5t0.5 5.5v5v3v4q-13 15 -24 31t-19 34l3 3t4 2l1.5 -0.5t1.5 -1.5q7 -11 13.5 -22t12.5 -22q1 -1 1.5 -3t1 -3.5t1.5 -2.5t3 -1h2v4.5t0.5 7.5t0.5 7v5v4q0 10 -1.5 20t-1.5 21z
M133 93v11t1 15.5t2 17.5t3 17t5 14.5t7 10.5q2 2 4.5 2.5t5.5 0.5h5.5h4.5q9 0 17 -1.5t13.5 -6t8.5 -11t3 -16.5v-3.5v-2.5q0 -2 -0.5 -7.5t-0.5 -11.5t-0.5 -11.5t-0.5 -6.5v-23.5t-2.5 -16t-10 -9t-22.5 -2.5q-6 0 -11.5 0.5t-11.5 2t-11 4.5t-8 7q-1 8 -1 13v13z
M153 166q-2 -1 -2 -2.5v-3.5q0 -4 2 -7.5t4.5 -7t4.5 -6.5t2 -8v-45q-2 -2 -2 -6v-6v-8q0 -1 1 -2l1 -1h13l0.5 1t1.5 2v0q0 12 -1 24t-1 24v19q1 4 3 8.5t3 8.5l14 13v6q-2 1 -4.5 2t-5.5 2l-6 2t-5 1t-5.5 -1.5l-7 -3t-6.5 -3t-4 -2.5zM185 70l5 -6l2 0.5t3 1.5q2 1 3 6.5
t2.5 12t2 13t0.5 8.5v5.5t-0.5 10t-0.5 10.5t-1 7v2v3t-1 3.5t-2 2.5v0h-1t-2 -1t-2 -2.5l-2 -3t-1 -2.5q-1 -2 -1.5 -4.5t-1.5 -4.5t-1.5 -4l-0.5 -2v-56zM143 89v-14q1 0 1.5 -1.5t0.5 -2.5t0.5 -2t2.5 -1q3 0 4.5 6t2.5 14t1.5 16t0.5 11q0 1 -0.5 6t-1.5 11t-3 10.5
t-5 4.5h-0.5h-0.5q-2 -15 -2.5 -29.5t-0.5 -28.5zM64 80v-2t2 -1h16q2 0 2 1.5v2.5t-0.5 3t-2 4t-3 3.5t-2.5 1.5q-2 0 -4 -1.5t-4 -3.5t-3 -4t-1 -4zM61 64q-1 -5 1 -7.5t5 -3.5t7 -1.5t7 -0.5h1q1 1 2.5 2t1.5 2v12h-22q-1 0 -2 -1t-1 -2zM86 29v14h-22q0 -3 2 -6t5 -4.5
t7 -2.5t8 -1z" />
</svg>
