<?xml version="1.0" standalone="no"?>
<!DOCTYPE svg PUBLIC "-//W3C//DTD SVG 1.1//EN" "http://www.w3.org/Graphics/SVG/1.1/DTD/svg11.dtd" >
<svg xmlns="http://www.w3.org/2000/svg" xmlns:xlink="http://www.w3.org/1999/xlink" version="1.1" viewBox="-10 0 266 256">
   <path fill="currentColor"
d="M84 243q0 2 1 4.5t4 2.5t6 -3t3 -6q1 -8 1.5 -17.5t0.5 -19.5q0 -9 -0.5 -18.5t0.5 -17.5v-3.5t0.5 -5t0.5 -5v-3.5q1 -1 3.5 -2.5t3.5 -1.5q1 1 1.5 2t0.5 2t0.5 3t0.5 4.5t0.5 4.5t0.5 3v16v17l-0.5 2t-0.5 4.5t-0.5 4.5l-0.5 2q0 3 0.5 4.5t2.5 1.5q3 0 5 -2t2.5 -4.5
l1 -5t0.5 -4.5v-2v-6.5v-7.5v-6v-20t-2 -19q-1 -6 -6 -6q-3 0 -5.5 1t-5.5 1h-2t-1 -1q0 -2 -0.5 -5t-1 -6.5t-1 -6.5t-1.5 -4q0 -3 -2 -4.5t-4.5 -3t-4 -3t-1.5 -4.5q0 -2 1 -6l2 -8t3 -7.5t4 -3.5h3.5h4.5h5h3l1 -0.5t1 -1.5v0v-1q0 -1 -1 -2t-1 -2h-2.5t-3.5 -0.5
t-3.5 -0.5h-2.5q-2 -1 -2 -3v-3q0 -5 2 -7t4.5 -2.5t5.5 -0.5t7 -2v0v-1q0 -3 -2.5 -3.5t-5.5 0t-5 0t-2 -3.5v-12q0 -2 2 -2h7t7.5 -1t3.5 -4q1 -1 0 -2t-2.5 -2t-3 -1h-1.5q-11 0 -22.5 2t-21.5 5q-3 1 -5 3t-3.5 4.5t-2.5 5t-2 4.5q0 2 -0.5 8t-1 12.5t-1 12.5t-0.5 8
v0.5v0.5q0 3 1.5 6t3.5 5.5t4.5 4.5t4.5 3v2v2q0 5 -3.5 8.5t-8 6.5l-9 6t-7.5 6q1 2 2 3.5t3 1.5h2q8 -5 15.5 -11.5t14.5 -13.5v-1h1q3 0 4 2t1 5q0 4 -2.5 7.5t-6 7t-8.5 7t-8.5 6.5t-6 6t-2.5 7q0 2 0.5 3t2.5 1q6 0 10.5 -5t9 -11t8 -12t7.5 -8q4 3 5.5 6t1.5 8
q0 3 -2 6.5t-4.5 6.5t-5.5 5.5t-5 5.5q-5 5 -8 12t-8 13q-2 2 -5 4.5t-5.5 5.5l-5 6t-2.5 6t2.5 4.5t4.5 1.5q3 0 6.5 -4t7 -10t7 -13t7 -12.5t7 -9.5t6.5 -4v9.5t0.5 14t0.5 14.5v9q0 5 -1 9t-2.5 7.5t-2.5 7t-1 7.5zM136 241q0 1 1.5 2.5t2.5 1.5v0v0h0.5h0.5q3 -2 4.5 -5
t2 -6.5t0.5 -6.5v-6v-6v-12v-11v-7q0 -7 0.5 -14t2 -13.5t3.5 -13t6 -12.5h1h2q4 0 7.5 4t5.5 9.5t3 11t2 8.5q0 1 0.5 5.5t1 10t1 12t1 12.5t1 10t0.5 6v4.5v6.5v7v4q0 2 1 2h2q3 0 4.5 -1t2.5 -3t1.5 -4t0.5 -4v-34l-3 -7q-1 -12 -3 -24l-4 -24q-1 -3 -2.5 -5t-3.5 -4
t-3.5 -4t-1.5 -5v-3q3 -1 6.5 -3.5t7 -5.5t5.5 -6t2 -7q0 -5 -2 -9t-5.5 -6.5t-8 -4t-8.5 -2.5v-24q0 -3 3 -4t6 -1q4 0 7.5 2.5t7 6t6.5 6t7 2.5h4.5t3.5 -1v-2.5v-2.5q0 -4 -3.5 -7.5t-9 -6t-10.5 -4.5t-8 -3q-8 -3 -10.5 -7.5t-3 -9t-0.5 -8t-4 -3.5q-3 0 -3.5 3.5
t-1.5 5.5v3.5v5.5v5v3l-0.5 1l-0.5 1q-3 1 -11 3.5t-15.5 6t-13.5 7.5t-6 9q5 0 10 -2.5t10 -5.5t9.5 -5.5t9.5 -2.5h2t2 0.5t2 0.5t1 1v24q0 1 -4.5 4t-9 6.5t-9 7.5t-4.5 7q0 5 2.5 8l5 6l5 6t2.5 7q0 3 -1.5 6l-3 6t-3.5 5.5t-3 5.5q-1 18 -3 36t-2 37v3v5v6v3zM151 99
q0 -4 2 -6t4.5 -3.5t5.5 -1.5h6q5 0 10.5 3.5t5.5 8.5q0 3 -0.5 4.5t-1.5 3.5q-1 1 -3 2.5t-4.5 3.5t-4.5 3.5t-2 2.5q-1 1 -2 1.5t-2 0.5q-3 0 -6 -2.5t-4.5 -6.5t-2.5 -8t-1 -6zM67 82q0 -6 6 -6q3 0 5.5 0.5t2.5 3.5q0 1 -0.5 3l-1 4t-2 3t-3.5 1q-3 0 -5 -3t-2 -6z
M65 62q0 -4 1.5 -6t4 -3.5t5.5 -2t6 -0.5q4 0 5 1t1 5v3t-0.5 3.5l-1 3t-2.5 1.5h-15q-3 0 -3.5 -2t-0.5 -3zM69 41q0 -5 4.5 -9t9.5 -4q4 0 5 0.5t1 4.5q0 7 -2.5 8.5t-9.5 1.5h-7l-0.5 -0.5l-0.5 -0.5v-1z" />
</svg>
