<?xml version="1.0" standalone="no"?>
<!DOCTYPE svg PUBLIC "-//W3C//DTD SVG 1.1//EN" "http://www.w3.org/Graphics/SVG/1.1/DTD/svg11.dtd" >
<svg xmlns="http://www.w3.org/2000/svg" xmlns:xlink="http://www.w3.org/1999/xlink" version="1.1" viewBox="-10 0 266 256">
   <path fill="currentColor"
d="M93 249q1 1 2.5 1.5t2.5 0.5q4 0 6 -2.5t3 -7.5v-7t0.5 -10t0.5 -10v-7v-69q3 -6 9 -6q2 0 4 4t3 10t1.5 13.5t1 13.5t0.5 10.5v4.5q0 5 -1 10t-1 10v3v4q1 1 2 1h2q4 0 5.5 -3.5t2.5 -8.5t1 -10v-8v-1l-1 -2l-1 -2v-1v-1l1 -1.5l1 -1.5v-1q0 -13 -2.5 -25t-5.5 -24
q-10 -3 -20 -2q-1 0 -1.5 -1t-0.5 -2v-3t-0.5 -4.5t-0.5 -5v-2.5q-2 -2 -4.5 -3.5t-5 -3.5t-4.5 -3.5t-2 -4.5l1.5 -3t3.5 -6.5t4 -6t4 -2.5h1h1.5t3 0.5t3 0.5h1.5h2q2 0 2.5 -1t0.5 -3q0 -4 -2.5 -4.5t-5.5 -0.5t-5.5 -0.5t-2.5 -3.5q0 -1 0.5 -3.5t1.5 -2.5h16l0.5 -1.5
t0.5 -2.5v-1q0 -3 -2.5 -3.5t-6 -1t-6 -1t-2.5 -4.5q0 -3 3 -4t7 -1.5t7.5 -2t3.5 -5.5q0 -2 -3 -2.5t-5 -0.5q-8 0 -16.5 1t-16.5 2q-1 1 -2 1.5l-1 0.5q-1 0 -2 0.5l-2 1t-2.5 1l-1.5 0.5q-4 2 -6 6.5t-3 10t-1 10.5v8q0 5 0.5 9.5t3.5 8.5q2 3 4 4.5t2 5.5l-1.5 2l-1.5 2
q-1 1 -4 3t-6 4.5t-5.5 4.5t-3.5 3q-1 0 -2.5 2t-2.5 2v1q0 4 4 4h1.5h1.5q4 -4 7.5 -6t7 -4.5t6.5 -5t7 -6.5h1h1q4 0 4 1.5v4.5q0 7 -4.5 12t-10.5 9.5t-10.5 9t-4.5 12.5q4 0 8 -3t8 -6.5t7 -8t6 -8t5.5 -6t4.5 -1.5q1 0 1.5 1t0.5 2t0.5 3t0.5 3q0 6 -2 10t-5 7.5
t-6.5 7t-6.5 8.5t-7 11t-7 11.5t-5.5 12t-3.5 13.5q0 2 2 2h2h2t2 -1q4 -6 9 -14.5t8 -14.5q0 -1 2 -5l4 -8t4.5 -7.5t4.5 -3.5t2.5 2.5t1 5.5t0.5 6v4q0 18 -3 34.5t-5 33.5q0 1 -0.5 2.5l-0.5 1.5q0 1 0.5 2.5zM155 207q1 3 2 10t2.5 14t4 12.5t7.5 5.5q4 0 5 -2t1 -5
q0 -6 -1.5 -10.5t-3.5 -9t-3.5 -9t-2.5 -9.5v-2v-3.5t0.5 -3t0.5 -2.5q3 0 6.5 1.5t7 2.5t7 2.5t7.5 1.5h4.5t2.5 -3t-2.5 -5.5t-6.5 -4.5t-7.5 -3t-5.5 -1q-1 -1 -3 -1t-4.5 -0.5l-5 -1t-3.5 -0.5q-3 -3 -4 -8t-1 -8t0.5 -4.5t4.5 -1.5t7.5 1.5t6 4t5.5 4.5t7 2q3 0 5 -1
t2 -5q0 -3 -2.5 -5.5t-6 -4t-8.5 -3t-8.5 -3t-6 -4t-2.5 -6.5t1 -6.5t5 -3.5q3 1 6 3.5t7 5t7.5 4t5.5 1.5q4 0 7 -1t3 -6q0 -4 -4.5 -6t-10 -3t-10.5 -3t-5 -7q0 -3 3 -5.5t6 -4t6 -4t3 -7.5t-4.5 -7.5t-10 -4t-10 -3t-4.5 -3.5t0.5 -5l1 -6t1.5 -5.5t2 -2.5l17 -3
q4 -1 5 3.5t2 10t2.5 10t6.5 4.5q6 0 6 -7t-2.5 -13t-2.5 -13q0 -5 1 -10.5t1 -10.5q0 -4 -1 -6.5t-5 -2.5q-2 0 -4 2t-2 4q0 1 -0.5 3t-1 4.5t-0.5 4.5v3t-1 4.5l-1 3.5h-20q-2 0 -2 -6v-12q0 -7 -1 -13t-4 -6t-4.5 1t-2.5 4q3 7 4 14.5t1 14.5q0 3 -4 4t-9 1h-10t-7 1v1v1
q0 3 2 3.5t4 0.5q6 0 11 -1t11 -1q0 13 -4.5 23.5t-13.5 18.5q-1 1 -3.5 2.5l-5 3t-4.5 3.5t-2 3t1 2t3 1q4 0 9 -2.5t8.5 -6.5t6.5 -8t5 -9h2.5h2.5q2 0 5 0.5t5.5 1t4 2.5t1.5 5q0 4 -2 7.5t-5 6.5l-6 6t-5 6t-3.5 7t-3 8.5t-2 9t-0.5 7.5zM75 74h11v2.5t-1 3.5t-2 3t-2 1
q-2 0 -3 -1t-1.5 -2.5t-1 -3.5t-0.5 -3zM74 63v-0.5v-0.5q0 -1 0.5 -4t1.5 -4h3h3h5.5t5.5 2v3q0 3 -1 5.5t-5 2.5h-1h-2q-1 0 -3 -0.5l-4 -1t-3 -2.5v0zM92 35q3 0 3.5 1.5t0.5 4.5v3q0 2 -2 2h-13q0 -4 3.5 -7.5t7.5 -3.5z" />
</svg>
