<?xml version="1.0" standalone="no"?>
<!DOCTYPE svg PUBLIC "-//W3C//DTD SVG 1.1//EN" "http://www.w3.org/Graphics/SVG/1.1/DTD/svg11.dtd" >
<svg xmlns="http://www.w3.org/2000/svg" xmlns:xlink="http://www.w3.org/1999/xlink" version="1.1" viewBox="-10 0 266 256">
   <path fill="currentColor"
d="M74 246q0 2 0.5 3.5t3.5 1.5t5 -1.5t3.5 -3.5t2.5 -5t1 -5q1 -2 2 -7t2 -10.5t2 -10t1 -6.5v-2v-5.5t0.5 -9.5t0.5 -9v-6l0.5 -1.5t0.5 -2.5q0 -5 -1 -9t-1 -9v0q1 -2 3.5 -4.5t5.5 -2.5q1 0 2 1t2 3t1.5 3.5t0.5 2.5v60q0 1 1 2l2 2q2 0 3.5 -2t1.5 -3q0 -7 0.5 -12
t0.5 -9.5t0.5 -9t0.5 -10.5t-0.5 -10.5t-0.5 -8.5t-0.5 -9t-0.5 -12q-3 -1 -5 -1q-4 0 -8 2.5t-9 2.5q-2 0 -3.5 -2.5t-2.5 -6t-1.5 -6.5t-1.5 -5q-1 -1 -2 -3t-2.5 -4t-2.5 -3.5t-1 -2.5q-1 0 -1 -1v-1q0 -1 2 -5t4.5 -8.5t4.5 -8.5l2 -4h3.5h4.5h4.5h3.5l1 -0.5t2 -1.5
q-1 -4 -4 -5t-6.5 -1t-6.5 -1.5t-3 -7.5q0 -3 3 -4t6 -1.5l6 -1t3 -3.5v-1q-1 -1 -3.5 -1.5t-4.5 -0.5t-4 0.5t-3 0.5q-2 -1 -2.5 -4t-0.5 -5v-1q0 -2 0.5 -5.5l0.5 -3.5h23q0 -5 -2 -7.5t-7 -2.5h-3t-2 1q-1 0 -3.5 0.5l-5 1l-5 1l-2.5 0.5q-13 2 -20.5 5t-11.5 8.5t-5 14
t-1 20.5v5v6t0.5 6t0.5 4q1 2 3 3.5l4 3t3.5 3.5t1.5 4q0 5 -3.5 7.5t-7.5 4.5t-7.5 4t-3.5 5q0 2 1.5 2.5t3.5 0.5q8 0 13.5 -4.5t11.5 -10.5h3q4 0 5.5 2t1.5 5q0 5 -5 9.5t-11.5 9t-11.5 8.5t-5 9t4 5q5 0 9 -5t8 -10.5t8.5 -10t9.5 -4.5h1l0.5 1t0.5 2t0.5 3t0.5 4
t0.5 4l0.5 2q0 3 -3 7t-7 9t-8.5 11t-9 11t-8 9t-4.5 6l-0.5 1t-1 2.5t-1 2.5t-0.5 2l-1.5 2t-1.5 3v1q0 1 1 1.5t3 0.5q4 0 7.5 -3.5t7.5 -8.5t7.5 -11t6.5 -11t6 -8.5t5 -3.5l0.5 0.5l1 1t1 2.5t0.5 3v0q0 10 -1 20.5t-3 20.5q-2 3 -3.5 7t-3.5 8t-3.5 8.5t-1.5 7.5z
M169 195q0 4 3 12.5t7.5 16.5t9.5 14t9 6q3 0 4.5 -2t1.5 -5q0 -6 -3.5 -11t-8 -10.5t-8.5 -12t-4 -15.5q0 -6 3 -10.5t7 -8.5t8.5 -7t8.5 -8v-3q0 -4 -3 -7q-2 -1 -4 -2.5t-4.5 -4t-5 -4t-3.5 -2.5q-3 -4 -3 -9v-9v-3.5v-3.5q1 0 2.5 -1.5l3.5 -3.5l3.5 -3.5t1.5 -2.5
l0.5 -2t0.5 -4t0.5 -4.5t0.5 -4.5v-2v-1q0 -1 -0.5 -3.5t-0.5 -5t-0.5 -5t-0.5 -3.5t-1.5 -1h-2.5q-3 0 -4 1.5t-1 3.5v5q0 3 -2 5q-7 -1 -11.5 0.5t-10.5 1.5t-8.5 -2.5t-3.5 -5t-2 -4.5t-3 -2v0h-1l-1 0.5t-2 1.5v2v4v4v2v6t0.5 7.5t1.5 7t3 4.5q0 1 1.5 1t3 1t2.5 1.5
l1 0.5v2q0 6 -1.5 12t-4 11.5t-4.5 11t-3 10.5q0 3 -1.5 9t-2.5 12.5t-1.5 11.5t-0.5 7q-1 1 -1.5 5t-1 9t-1 9.5t-0.5 5.5t-0.5 2t-1 2.5t-1 2.5l-0.5 1v2v2q0 5 1.5 7.5t5.5 2.5q2 0 4.5 -1.5t2.5 -4.5v-34l6 -48q1 0 3 -4t3.5 -9.5t3 -11.5t3 -11.5t3.5 -9t4 -3.5
t3.5 0.5t2.5 3.5v6t0.5 8t1.5 7.5t3 6.5q1 2 3.5 3.5l5 3t4.5 3.5t2 5v1q-6 5 -11 9t-8 8.5t-4.5 10t-1.5 13.5zM151 87v-2t2 -2h3.5h5.5t6 -0.5t4 -0.5t3.5 -1t3.5 -1h1h1l3 2v1.5v2.5q0 4 -1.5 6.5t-4 3.5t-6 1.5t-6.5 0.5q-6 0 -10.5 -2t-4.5 -9zM60 77q0 -3 3.5 -4
t6.5 -1t5 1.5t2 4.5v3.5t-1 4t-2.5 3t-2.5 1.5q-2 0 -4 -1.5t-3.5 -3.5t-2.5 -4t-1 -4zM59 58q0 -4 1.5 -5.5t3.5 -2.5t5 -1h7h6l1.5 1.5t0.5 1.5v2q-1 1 -1.5 5t-0.5 5q-2 2 -5 2h-5q-5 0 -9 -1t-4 -7zM118 52q0 1 0.5 2t1.5 1l1.5 0.5t2.5 0.5q12 0 18.5 -7t10.5 -16
q1 -3 1.5 -4t1 -1.5t0.5 -1.5v-2q0 -3 -1 -4.5t-4 -1.5t-4 1.5t-1.5 4t-0.5 5t-1 4.5q-1 5 -5 7.5t-9 4t-8.5 3.5t-3.5 4zM176 27q0 8 1.5 12.5t5.5 7t10 3.5t14 2h2q3 0 4.5 -0.5t1.5 -3.5t-2.5 -4t-6.5 -1.5t-8 -0.5t-6 -1q-4 -2 -4.5 -6t-1 -7.5t-1.5 -6.5t-5 -3h-2.5
t-1.5 2v7zM62 38q0 -2 2.5 -4t5 -3.5t5.5 -3t4 -1.5h1h1l0.5 0.5t0.5 1.5v5v6q0 1 -0.5 2.5l-0.5 1.5h-15q-1 0 -2 -1.5t-2 -2.5v-0.5v-0.5z" />
</svg>
