<?xml version="1.0" standalone="no"?>
<!DOCTYPE svg PUBLIC "-//W3C//DTD SVG 1.1//EN" "http://www.w3.org/Graphics/SVG/1.1/DTD/svg11.dtd" >
<svg xmlns="http://www.w3.org/2000/svg" xmlns:xlink="http://www.w3.org/1999/xlink" version="1.1" viewBox="-10 0 266 256">
   <path fill="currentColor"
d="M172 171l1 0.5t2.5 1.5t2 1.5t0.5 1.5l5 73q0 1 1 1.5t2 0.5h2h2h1.5h1.5q1 -1 1.5 -3.5t0.5 -3.5q-1 -7 -2.5 -15.5t-3 -16.5t-2.5 -16.5t-1 -15.5v-2q0 -2 0.5 -3.5t1.5 -1.5h18q2 0 2 -1.5v-2.5q0 -3 -3.5 -4t-5.5 -1q-4 0 -9 1t-10 1q-1 0 -2.5 -1t-2.5 -2v-6v-4.5
v-4.5t1.5 -4t4.5 -2t6 1.5t6 3.5t6 3.5t7 1.5q2 0 3.5 -1t1.5 -3q0 -3 -2.5 -5t-7 -3.5t-9.5 -2.5t-9 -3t-7 -4.5t-3 -6.5q0 -5 2.5 -7t6 -3.5t7.5 -2t7.5 -2.5t6 -5.5t2.5 -9.5q0 -5 -2 -6.5t-4.5 -2l-5 -1t-3.5 -3.5h-36q-2 0 -2 1.5v2.5q0 2 3 2.5t7.5 0.5h10h10t7.5 1.5
t3 5.5t-2.5 6t-6.5 3.5t-8.5 2t-7.5 0.5q-13 0 -18.5 -5t-5.5 -17v-7q5 -6 11.5 -8t13.5 -2.5t13 -0.5t11.5 -2t8.5 -6t3 -13q0 -6 -6 -9t-14 -4t-16 -0.5t-12 0.5q-1 0 -3.5 -2t-3.5 -3l-0.5 -0.5l-0.5 -0.5l-0.5 -2l-1 -4t-2 -4t-3.5 -1q-1 0 -2 1t-1 2t-0.5 3l-0.5 2
q0 9 6.5 13t15 5t18 0.5t15.5 0.5v1.5v1.5q0 7 -4 9.5t-10 3.5t-13.5 1.5t-13.5 1.5t-11 3.5t-6 7.5v3t-0.5 5t-0.5 5.5v3.5v3q0 7 2 10.5t5.5 5.5t7.5 2.5t8 2t6 4t2 7.5v6q-1 3 -6 4.5t-10.5 3t-10 4t-6.5 7.5q1 1 2.5 1.5t2.5 1.5q1 -1 4 -2.5t6.5 -3.5t7 -3.5t5.5 -1.5
q3 0 4.5 2t2.5 4q0 4 -0.5 9t-2.5 8q-1 1 -2.5 3l-1.5 2h-27q0 4 2 4.5t4.5 1t5 2.5t2.5 10q0 14 -2.5 27.5t-2.5 26.5v5t3 2t4.5 -5t2 -11.5t1 -15.5t1 -16.5t0.5 -13.5t1 -8q0 -1 2.5 -2.5t5.5 -2.5t5.5 -1.5t3.5 -0.5zM63 232q0 2 0.5 3t3.5 1h1q1 0 3.5 -2.5t2.5 -3.5
q8 -21 13.5 -41t8.5 -42q0 -1 0.5 -3.5l0.5 -2.5q2 -3 6 -5.5t7 -2.5h1l1.5 1.5l1.5 1.5v36q-2 4 -3 8.5t-1.5 9t-0.5 9v8.5q5 0 8 -3.5t4 -8.5v-9t0.5 -13.5t0.5 -13.5v-9v-13v-14q0 -3 -3.5 -4t-5.5 -1h-1.5h-0.5l-9 8h-5q-1 -11 -5.5 -18.5t-11.5 -14.5q-1 0 -1 -1v-1v-1
l1 -1l0.5 -2t1.5 -4t1.5 -3.5t0.5 -2.5q3 -2 7 -3t8.5 -1h9h7.5v-2t-1 -2q0 -1 -0.5 -1.5l-0.5 -0.5h-18q-3 0 -4 -1.5t-1 -3.5v-2.5t0.5 -3l1 -3t1.5 -1.5h25q0 -4 -2.5 -5.5t-6 -2t-7 0t-6.5 0.5q-1 -1 -1 -3v-4q0 -3 1 -5t5 -4q1 0 4 0.5t6 0.5t6 -1t3 -4v-1v-1
q-1 -1 -4.5 -1.5t-4.5 -0.5h-1h-2q-1 0 -4.5 0.5l-7 1l-7 1t-4.5 0.5q-10 1 -16.5 3.5t-10.5 7t-6 11.5t-2 16q0 5 2 12.5t5 12.5q2 2 3 2.5t1.5 1t0.5 1v1.5q0 5 -3.5 7.5t-7.5 4.5t-7.5 5t-3.5 8q0 1 1.5 1.5t2.5 0.5q5 0 8.5 -3t6.5 -6.5l6 -7t6 -3.5q4 0 6 3t2 6v2v1
l-34 32l2 3q0 1 0.5 1.5t1.5 0.5q5 0 10.5 -5t9.5 -11t7.5 -11t5.5 -5q3 0 4 2t1.5 4.5t0.5 5.5v4q0 8 -6 16t-13.5 15t-13.5 13.5t-6 12.5q0 3 0.5 4t3.5 1t7 -5.5t8 -12t8 -12.5t6 -7q2 1 1.5 3t-0.5 3q0 6 -1.5 13t-3.5 14t-4.5 14t-4.5 12q-3 3 -5 6.5t-2 8.5zM63 76
q2 0 5.5 0.5t4.5 0.5l0.5 0.5t0.5 1.5t-1.5 4.5t-3.5 3.5t-3 -1.5t-1.5 -3t-1 -3.5t-0.5 -3zM59 62q0 -6 4 -7t10 -1h4t4 1q2 0 2 2v3q0 5 -3.5 7t-8.5 2t-8.5 -1t-3.5 -6zM88 31v8t-2 6q0 1 -1 1.5l-1 0.5h-19q0 -5 2.5 -8t6 -4.5t7 -2.5t7.5 -1z" />
</svg>
