<?xml version="1.0" standalone="no"?>
<!DOCTYPE svg PUBLIC "-//W3C//DTD SVG 1.1//EN" "http://www.w3.org/Graphics/SVG/1.1/DTD/svg11.dtd" >
<svg xmlns="http://www.w3.org/2000/svg" xmlns:xlink="http://www.w3.org/1999/xlink" version="1.1" viewBox="-10 0 266 256">
   <path fill="currentColor"
d="M121 248q0 2 2 2.5t4 0.5q3 0 4.5 -1.5t2 -4l1 -5t0.5 -4.5v-6.5v-10.5v-10v-7q2 -1 4.5 -2t5.5 -1h1q1 1 1.5 4.5t0.5 4.5v35q0 1 1 1.5t2 0.5q3 0 4 -2.5t1.5 -5.5t0.5 -6v-4v-9q0 -1 -0.5 -5t-1 -8.5t-1 -8.5t-0.5 -5q-1 -2 -3 -2h-2q-3 0 -4.5 1t-2.5 2t-2.5 2
t-3.5 1q-1 0 -3 -2.5t-4 -6.5l-3.5 -7l-1.5 -3q0 -7 3 -9t6.5 -3t7 -1.5t3.5 -2.5l-0.5 -0.5t-0.5 -1.5h-1.5t-3.5 -0.5l-4 -1t-2 -1.5v0q0 -3 2 -3.5t5 -0.5t5 -0.5t2 -2.5t-1.5 -2.5t-3.5 0t-4 0.5t-2 -3l3.5 -1.5t7.5 -2.5t7.5 -2t4.5 -1t2 0.5l3 1.5l2 22t2 22.5t2 22.5
t4 22q1 5 1.5 11.5t1.5 10.5q0 2 1.5 2h2.5q3 0 6 -1.5t3 -5.5v-1l-0.5 -1t-1.5 -2q0 -1 -0.5 -2.5t-1.5 -3.5t-1.5 -3.5l-0.5 -1.5q-2 -9 -4 -19.5t-3.5 -22t-2 -22t-0.5 -18.5q0 -6 1.5 -8t3.5 -3t5 -2t5 -3t4 -7t2 -14q0 -1 -1 -3t-3 -2q-5 0 -6 3.5t-1.5 7.5t-1.5 7
t-5 3h-2t-2 -1v-12q0 -2 -1.5 -2h-2.5q-3 0 -4 3t-1 6t-0.5 6t-3.5 3t-4 -2t-1.5 -4.5t-1.5 -5t-4 -2.5v6.5t-1 6.5t-3 5t-6 2h-1q-1 -1 -4 -1.5t-4 -0.5l-1 -1t-1 -2v0q0 -5 1 -10t4 -9q9 0 17.5 -1t17.5 -5q3 -2 4 -3.5t1 -4.5q0 -4 -3 -5l-6 -2t-5.5 -2t-2.5 -4
q0 -7 1.5 -10t4 -4.5t5.5 -2.5t5.5 -2t4 -4t1.5 -9v-4t-3 -2q-2 0 -2.5 2t-1.5 4.5t-2 4.5t-3 3q-1 0 -4 -0.5t-4 -0.5v-7v-4v-4t1 -6q1 -2 2.5 -2h2.5q3 0 7 0.5l8 1t6.5 3t2.5 6.5v32l1.5 1.5l1.5 1.5h1q4 0 6 -3.5t2 -6.5q0 -8 -0.5 -14.5t-2.5 -13.5q-1 -6 -4 -9.5
t-7 -4.5t-9.5 -1.5t-10.5 -1.5h-28l-1 -1v-15q0 -1 -1.5 -2t-2.5 -1q-4 0 -6.5 2t-4 4.5t-2 5.5t0.5 6q-1 2 -5.5 3t-10 1h-10.5t-8 1h-4t-6 0.5t-6 0.5h-4l-2 3l-3 35q0 4 -2 6t-2 5t2 3.5t4 0.5t3.5 -1.5t2.5 -3.5t1.5 -4t0.5 -3q1 -1 1.5 -4.5l1 -7t0.5 -7v-4.5
q1 -4 3.5 -6t5.5 -3.5t6.5 -2t6.5 -0.5v3t0.5 4.5t0.5 4.5v3q-1 2 -1.5 2.5t-2.5 0.5q-4 0 -5 -3t-3 -5l-2 2v10q0 1 2 2.5t4 2.5t4.5 2t3.5 2v19q0 2 -3.5 2t-7.5 0.5t-7.5 2.5t-3.5 7q6 0 12 -1.5l12 -3t12 -3.5t12 -2q3 0 8 0.5t9.5 2l9 3t5.5 3.5q-2 4 -6.5 5t-9.5 1.5
t-10 2t-8 6.5v3.5v5.5t-0.5 5.5t-0.5 3.5q0 2 -3 4t-5.5 3t-5 2.5t-2.5 3.5v16q0 2 1 3.5t2.5 3.5t2.5 3.5t1 3.5q0 4 -2.5 6t-6 3.5t-6.5 3.5t-3 5q0 1 0.5 1.5t1.5 0.5h1h1q2 -1 4.5 -2.5t5 -3.5t5 -3t4.5 -1t2.5 0.5t0.5 1.5q0 4 -4 7.5t-8 7.5t-7.5 8t-3.5 9q5 0 8.5 -3
t6 -7t5 -8.5t5.5 -7.5h2l1.5 0.5t1.5 1.5v10q0 1 -5 4.5t-10.5 8.5t-10.5 10.5t-5 9.5q6 0 9.5 -2.5t6.5 -6t5.5 -7.5t6.5 -7h0.5h0.5q3 0 3 3.5v5.5q0 3 -1 6t-2 6.5t-2 6t-1 5.5zM68 245q0 2 2.5 2.5t4.5 0.5q4 0 6 -4t2 -8q0 -2 0.5 -5t1.5 -6.5t1 -6.5v-4q0 -2 0.5 -6.5
t1 -11t1 -14t1 -14.5t0.5 -12.5t1 -8.5v-11q3 -2 6.5 -4t6 -4t4.5 -5.5t2 -8.5q0 -2 -0.5 -3t-2.5 -1q-4 0 -4.5 2.5t-1 5.5t-2 5.5t-4.5 2.5h-2.5t-1.5 -1v-17q0 -1 -1.5 -1h-1.5h-2l-1 1q-3 4 -3 9v9h-3q-5 0 -6.5 -3.5t-1.5 -8.5q-1 -1 -2 -1h-2q-3 0 -3.5 2.5t-0.5 4.5
q0 6 2 9t5 4.5t6 2.5t4 3v15v19t-0.5 19.5t-1.5 19.5t-4 18q0 1 -1 3t-2 4.5t-2 4.5t-1 3zM114 167q0 -3 2 -3h4q0 1 -0.5 3.5t-2.5 2.5q-3 0 -3 -3zM110 155q0 -2 2 -2.5t4 -0.5q3 0 4.5 0.5t3.5 1.5v0q0 2 -1 3t-2.5 1h-2.5h-3h-3.5t-1.5 -3zM120 142q1 0 2.5 1t1.5 2
q-2 1 -4 1.5t-5 0.5q0 -2 1.5 -3.5t3.5 -1.5zM104 75v-2v-3q3 -2 6 -3t5.5 -2t4.5 -3.5t2 -6.5q0 -3 -1 -5t-4 -2q-2 0 -3 1.5t-1.5 3.5t-1 3.5t-3.5 1.5q-2 0 -3.5 -1.5t-2 -3.5t-0.5 -4.5v-4.5v-2.5v-2.5l3 -3h4t6 -0.5t5.5 -0.5h3.5t2.5 -0.5t2.5 -1.5h1h3q4 0 7.5 0.5
t6.5 2t3 3.5l-0.5 1.5l-0.5 1.5v3.5t-0.5 5t-0.5 4.5v3l-0.5 0.5t-1.5 0.5t-2 -2l-2 -4t-2 -4.5t-3 -3.5q-1 1 -1 3v4q0 7 2.5 11t9.5 6l1 14q1 3 -0.5 3h-3.5q-6 0 -9 -1t-4.5 -3.5t-1.5 -4.5v-5t-1 -3.5t-5 -1.5h-1.5t-1.5 2q1 7 -1 12t-11 5q-2 0 -3 -1t-1.5 -3t-0.5 -4
v-3z" />
</svg>
