<?xml version="1.0" standalone="no"?>
<!DOCTYPE svg PUBLIC "-//W3C//DTD SVG 1.1//EN" "http://www.w3.org/Graphics/SVG/1.1/DTD/svg11.dtd" >
<svg xmlns="http://www.w3.org/2000/svg" xmlns:xlink="http://www.w3.org/1999/xlink" version="1.1" viewBox="-10 0 266 256">
   <path fill="currentColor"
d="M161 201q2 11 5 17.5t7.5 11.5t10.5 9.5t13 11.5h3q2 0 5.5 -1.5t3.5 -4.5q0 -1 -5 -6l-11.5 -11.5t-12 -13t-5.5 -10.5v-2l1.5 -1.5l3 -3l3 -3l1.5 -1.5l3 -2h2.5h3.5t3.5 -0.5l1.5 -0.5q5 -3 8 -7.5t4 -10t1 -11v-9.5v-3v-4v-4v-3q-2 -4 -6 -7t-7.5 -5.5t-6 -4.5
t-2.5 -4t2 -3.5t4.5 -2.5l5 -2t4.5 -3q0 -1 1 -3l2 -4t2 -3.5t1 -2.5l1 -34q1 -9 -4.5 -14.5t-13.5 -6.5h-4.5t-5 -0.5t-4.5 -0.5h-2l-2 -2v-19l-1 -1t-3 -1t-3 -0.5t-2 -0.5h-2t-2 2v22q0 1 -5 1.5t-10.5 2t-10.5 5t-6 11.5v4t-0.5 6t-0.5 6v4q-1 5 -1.5 10t-0.5 10
q0 4 2 7t5.5 4.5t7.5 2t7 1.5q1 0 1.5 1t0.5 2q0 5 -2 8.5t-4.5 5.5t-5 3t-5 3.5t-4 5.5t-1.5 9v1v1v7t0.5 10t0.5 9.5v6.5q1 6 6 7.5t10.5 1.5h10.5t5 3v1zM75 234l0.5 2t1.5 2h1.5h1.5q5 0 6 -1.5t3 -6.5q1 -14 2.5 -27t2.5 -27q0 -2 1 -5t2.5 -6t4 -4.5t4.5 -1.5l1 0.5
l1 0.5q3 5 3 12v13q0 10 -1.5 20.5t-1.5 21.5q0 2 1.5 3.5t3.5 1.5q4 0 5.5 -2.5t2 -5.5t0 -6.5t-0.5 -5.5q0 -3 0.5 -7t-1.5 -7v-38l-0.5 -1.5t-2 -3.5t-2.5 -3t-2 -1h-1q-2 0 -6 1.5t-6 1.5q-1 0 -1.5 -1t-0.5 -3v-2q0 -1 0.5 -3.5t0.5 -5t0.5 -5l0.5 -2.5q0 -5 -2 -9
t-4 -7t-4 -5.5t-2 -4.5q0 -4 1 -6.5t2.5 -5.5t2.5 -6t1 -6h2.5t4.5 -0.5l4 -1t3 -0.5q2 0 3.5 -1t1.5 -3t-1 -4t-3 -2h-13l-0.5 -2t-0.5 -3t1 -3.5t1 -3t0.5 -1.5t1.5 -1h12q1 0 1.5 -1.5t0.5 -2.5t-0.5 -2t-1.5 -2q-1 0 -5.5 -1t-5.5 -1q-2 0 -2 -2v-3q0 -3 0.5 -5t1.5 -4
h4t6 -0.5t5 -2t2 -4.5q0 -1 -1.5 -2.5t-3 -2.5t-3.5 -1.5t-3 -0.5l-2.5 1t-3.5 1q-12 1 -19 3t-11 5.5t-6.5 10t-4.5 18.5l-0.5 2l-1 4l-1 4l-0.5 2v3v3.5v4.5v4v2v4.5v4.5v3q2 2 4 3t4.5 2.5t4 3t1.5 4.5q0 4 -4 7.5t-9 7t-9.5 7t-4.5 7.5q5 0 10 -2t9 -5t7 -7l6 -8h3
q4 0 6 1.5t2 5.5v2.5t-1 1.5l-2 2t-3 2q-1 1 -4.5 4l-7 6t-6.5 6t-4 3l-4 4l-4 4l-3.5 3.5l-1.5 1.5v8q5 -1 10.5 -6t10.5 -10.5t10 -10.5t8 -5q2 0 3.5 3.5t1.5 5.5q0 9 -4 14.5t-9.5 10.5t-12 9t-11.5 9l-2.5 2.5t-2.5 3t-2 2.5l-1 1v5q7 0 12 -3.5t9.5 -8.5t8.5 -9t10 -4
v12t-1 11q-1 7 -4 14t-4 15zM160 141h-2t-2 2q-1 7 -1 12.5v12.5q0 5 0.5 8.5t0.5 7.5v1l-0.5 0.5t-0.5 1.5h-1q-5 0 -8 -2t-4.5 -4.5t-2 -6t-0.5 -8.5q0 -12 1 -18t2.5 -8t4 -2h4.5t4 -1.5t4 -6.5q2 -4 2 -7t0.5 -5t2.5 -3.5t7 -1.5q1 0 2.5 0.5l3 1t2.5 1l1 0.5v13l1 0.5
t2 0.5q3 2 5.5 2.5t4 1t3.5 2.5t4 5v3v7t-1 12.5t-3 12t-7 5.5q-2 0 -2.5 -2t-0.5 -4v-4v-3q0 -5 1 -9.5t1 -9.5q0 -6 -4.5 -8.5t-10.5 -2.5q-1 0 -2.5 1t-1.5 3t1 2.5t2.5 1.5t2.5 2t2 3q0 6 0.5 12.5t0.5 11.5v4.5t-1 4.5t-2 3t-4 1q-1 0 -2 -1l-2 -2t-2 -2.5t-1 -2.5v-36
q0 -2 -1 -2.5t-3 -0.5zM162 100q0 -4 4 -6.5t8 -2.5t7 3t3 7l-1 1.5t-2 1.5h-8h-3h-3.5t-3 -1t-1.5 -3zM139 93v-1v-1l19 -18h1q3 0 6.5 2.5t3.5 5.5v1.5v1.5q-2 1 -4.5 4t-5.5 6t-6 5t-6 2t-5.5 -2t-2.5 -6zM69 87v-3v-2q1 -2 3 -2h4h1h2q2 0 3 0.5t1 1.5v11q0 1 -3 2t-5 1
t-3 -1t-2 -2.5t-1 -3v-2.5zM187 82v-3q1 -1 2 -2.5t2.5 -2.5t2.5 -2l1 -1h6v11t-3 13l-1 1h-1q-2 0 -4 -1.5t-3 -3.5t-1.5 -4.5t-0.5 -4.5zM137 75v-7q0 -3 0.5 -6.5t2 -6t4.5 -4.5q1 1 3 2.5l4 3t4 4t3 4.5q-2 1 -4.5 3t-5 4.5t-5 4.5t-3.5 2q-2 0 -2.5 -1.5t-0.5 -2.5z
M167 62q0 -1 3.5 -4t7.5 -5.5t7.5 -4.5t5.5 -2q3 0 5 2.5t2 6.5q0 2 -2.5 5.5t-6 6t-7 4.5t-6.5 2q-1 0 -2.5 -1.5t-3 -3.5t-2.5 -3.5t-1 -2.5zM69 69v-2v-2q0 -6 4 -8t10 -2h3q2 0 2 2v12l-2 2h-3h-3t-2.5 0.5t-3 0l-3 -1t-2.5 -1.5zM155 48q0 -2 3 -3t5 -1t4 0.5t2 2.5
q0 5 -2.5 6t-6.5 1q-2 0 -3.5 -1.5t-1.5 -4.5zM73 45q0 -4 4 -7.5t6 -5.5h1h1q2 0 3 1.5t1.5 4t1 4.5t0.5 3q0 2 -1.5 2.5t-3.5 0.5h-3.5h-1.5h-6l-1.5 -1.5t-0.5 -1.5z" />
</svg>
