<?xml version="1.0" standalone="no"?>
<!DOCTYPE svg PUBLIC "-//W3C//DTD SVG 1.1//EN" "http://www.w3.org/Graphics/SVG/1.1/DTD/svg11.dtd" >
<svg xmlns="http://www.w3.org/2000/svg" xmlns:xlink="http://www.w3.org/1999/xlink" version="1.1" viewBox="-10 0 266 256">
   <path fill="currentColor"
d="M80 247q1 2 2 3t3 1q4 0 6 -4q-1 -11 -0.5 -24t5.5 -23q2 -6 5 -11t5.5 -10t4.5 -10t2 -11q0 -7 -1 -13t-2.5 -11.5t-4 -11t-6.5 -12.5q-2 -3 -4.5 -4t-6.5 -1q-9 0 -14.5 7t-9 16.5t-5.5 20t-4 16.5v43l1.5 2.5t3.5 2.5h1q3 0 5 -1.5t2 -4.5q0 -7 -1.5 -13.5t-1.5 -13.5
v-5v-5l0.5 -1.5t1.5 -1.5v-1q1 0 1 0.5v0.5l12 12h0.5h1.5q4 0 4 -4t-3 -7.5t-6 -6t-6 -6t-3 -7.5q0 -2 1 -3.5t3 -1.5q5 0 7.5 3t4.5 6.5t4 6.5t5 3q1 0 2 -1.5t1 -3.5q0 -5 -3 -8.5l-6 -7t-5.5 -7t-2.5 -8.5t2 -8t7 -3t8 5.5t4 12t1 12.5v9q0 10 -1.5 16.5t-4 12t-5.5 11
t-6 14.5q-3 8 -3.5 16t-0.5 16v7zM204 177q0 17 -2 34.5t-2 34.5q5 0 7.5 -1.5t3.5 -4t1.5 -6t0.5 -7.5v-4v-7v-8v-7v-8v-8.5v-8.5v-4q0 -2 -0.5 -8.5t-0.5 -13.5t-0.5 -13.5t-0.5 -8.5q-1 -7 -4 -10.5t-7.5 -6t-9 -3.5t-8.5 -3.5t-6.5 -5.5t-2.5 -10q0 -2 0.5 -3.5
t3.5 -2.5q5 0 9 -0.5t8 -2t7 -3.5t7 -6q0 -5 0.5 -10t0.5 -9v-9v-10v-17q-1 -2 -2 -2.5t-3 -0.5q-1 0 -4 0.5t-3 2.5v19q0 1 -4 2t-10 2t-13 2.5t-14 2.5t-12 2t-7 1v0.5v1.5q0 2 1.5 3.5t3.5 1.5h21q1 0 2 1t1 2.5t0.5 3l0.5 1.5q0 7 -2 10.5t-5.5 5.5t-7 2t-6.5 1t-5.5 2
t-2.5 5h25q1 0 1.5 2.5t1.5 5.5t2 6.5t2 4.5q4 5 9 6.5t10 3.5t8.5 5t4.5 9q2 5 2 11t0.5 12t0 12t-0.5 11zM141 127q-1 0 -2.5 2t-1.5 4v48l1 1l2 2l2 2t2 1q3 2 8 2h7q9 0 14.5 -3t8.5 -11v-18v-19v-3.5t-1 -5t-2.5 -4t-3.5 -1.5q-3 0 -4 2.5t-1.5 5t0 5.5t0.5 4l-2 2
l-1.5 0.5t-4 0.5h-4.5h-4q-3 0 -4.5 -1t-2.5 -3.5t-1 -5v-5.5q-1 0 -2 -0.5t-2 -0.5v-0.5t-1 -0.5zM165 153h5q0 1 1 3l1 2v1v1v1v1q0 1 -0.5 2.5t-1 4t-0.5 4v2.5q-1 3 -4.5 3.5t-5.5 0.5h-2q-3 0 -7 -1l-4 -1v-20q0 -2 2.5 -2.5t5.5 -1t6 -0.5h4zM42 118q0 3 1.5 3.5
t3.5 0.5h2.5t1.5 -3q2 -4 2.5 -7t1 -6.5t0.5 -7.5v-8q7 -7 17 -8t20 -1q1 0 4.5 0.5t7 0.5t6.5 0.5t5 0.5q3 3 4.5 7.5t2 9l1 9t0.5 8.5h1h2q2 0 3.5 -1.5t2 -4t0.5 -5v-3.5q0 -10 -2.5 -16.5t-7 -9.5t-12 -4t-16.5 -2l-2 -2v-5v-9t1.5 -7.5t4.5 -5.5t8 -2q6 0 8 2.5t3 6
t2 6t4 2.5v0v0q3 -3 3.5 -5.5t0.5 -5.5q0 -4 -0.5 -6t-1.5 -7q-3 -7 -4.5 -11.5t-5 -7t-8 -3t-12.5 -0.5q-11 0 -18.5 2t-12.5 6t-7 11.5t-2 18.5q0 3 0.5 5.5t4.5 2.5t5.5 -3.5t2 -9t1.5 -10.5t4 -8q6 -4 12.5 -4.5t13.5 -1.5h2q3 0 6.5 1.5t3.5 5.5v1q0 1 -1.5 2t-1.5 2
q-2 0 -6 0.5t-7.5 1.5t-6.5 3t-4 5q0 1 -0.5 4.5t-0.5 7.5t-0.5 7.5t-0.5 4.5t-0.5 4t-1.5 3l-27 5q-2 0 -4.5 2.5t-2.5 4.5q0 1 -0.5 5.5t-1 9.5t-1.5 9.5t-1 6.5v2zM175 64q0 -9 4 -13t12 -4q5 0 5.5 2.5t0.5 5.5q0 10 -3 14t-12 4h-5q-2 -2 -2 -4.5v-4.5z" />
</svg>
