<?xml version="1.0" standalone="no"?>
<!DOCTYPE svg PUBLIC "-//W3C//DTD SVG 1.1//EN" "http://www.w3.org/Graphics/SVG/1.1/DTD/svg11.dtd" >
<svg xmlns="http://www.w3.org/2000/svg" xmlns:xlink="http://www.w3.org/1999/xlink" version="1.1" viewBox="-10 0 266 256">
   <path fill="currentColor"
d="M166 220q0 4 0.5 8.5t3.5 7.5q2 2 3.5 4.5t4 4.5t5.5 4t5 2q6 0 6 -5q0 -3 -3.5 -5.5t-7.5 -5t-7 -6t-3 -8.5q0 -4 2.5 -7t5.5 -6t5.5 -6t2.5 -7q0 -5 -3 -8t-7 -4.5t-8 -4t-7 -5.5l3 -3l19 -5q1 0 2.5 -1.5l2.5 -2.5v-1v0q0 -1 -0.5 -2.5t-0.5 -3t-0.5 -3t-0.5 -2.5v-1
q0 -4 2 -5t4.5 -1.5t4.5 -1.5t2 -4q0 -4 -3 -4h-1q-1 0 -4 0.5t-7 1t-7 1t-4 0.5h-3h-5.5t-5 -0.5t-3.5 -0.5q0 -3 1 -4.5t2.5 -2t3.5 -1l6 -1.5l2 -1t3.5 -1.5t3.5 -1l2 -0.5q3 -4 3 -9.5v-9.5v-4v-6t-1.5 -5.5t-4.5 -2.5q-3 1 -3.5 3t-1 4.5t-1.5 4t-5 1.5t-6 -1t-2 -4
q0 -5 2 -8t4.5 -4.5t5.5 -3l6 -3t5 -4.5t2 -9q1 0 4 -0.5l6 -1t5.5 -1.5t2.5 -4v-2t-2 -1h-2h-4h-3h-2q-1 0 -3 -1.5t-2 -2.5t1.5 -3t3 -3.5t3 -2.5t1.5 -2v-1v-1q0 -3 -2.5 -3h-5.5q-4 0 -8.5 0.5t-9.5 0.5h-2h-3q-1 -1 -1 -3v-4t0.5 -4t0.5 -5q0 -2 -1.5 -3t-3.5 -1
t-3.5 0.5t-1.5 3.5v16q0 1 -4 2t-9 2.5t-9 2.5t-4 3v13q0 2 -2 2.5l-4 1t-4 0.5t-2 3q0 2 2 2h4.5t5 2t2.5 8q0 3 -1.5 4t-3 1t-3.5 1t-3 3l0.5 0.5t1.5 0.5t4.5 -0.5t4.5 -0.5q0 9 0.5 17t0.5 17q1 5 4.5 7t7 3t6.5 2t3 6v1t-1 1l-19 5q-1 0 -2.5 1.5t-2.5 3.5t-1.5 4
t-0.5 4q0 5 1 9t2.5 8t2.5 7t1 6q0 1 -1 3.5t-2 5.5t-2.5 5.5t-1.5 3.5q-2 6 -2.5 13t-0.5 14q0 3 0.5 4.5t3.5 1.5q2 0 3 -3t1 -7v-9t0.5 -9t1.5 -7t4 -3h4l2 1l2 1q0 -1 1 -2t2 -1v-1q0 -2 -1 -3l-2 -2t-2 -2.5t-1 -3.5t1.5 -3.5t3.5 -3t4 -2t4 -0.5h3l3 3t4.5 3.5t4.5 3
t3 2.5q3 3 4.5 4t1.5 4t-2 5.5t-4.5 5.5t-4 6t-1.5 8zM81 242q1 1 2 1.5t2 0.5q3 0 4 -2.5t1 -5.5q0 -2 -0.5 -4.5t-0.5 -5.5v-3l1 -2.5t2 -3.5q2 -7 5 -13.5t5.5 -13t4.5 -13.5t2 -15q0 -5 -1 -14t-4 -17.5t-7.5 -15t-10.5 -6.5t-9 2t-4.5 5.5t-2.5 7.5l-2 8q-2 10 -2.5 19
t-1.5 19l-0.5 4t-0.5 6l0.5 1.5t0.5 3.5v2.5v2.5t1.5 2.5t2.5 1.5q3 0 4 -2t1 -4q0 -3 -1 -5t-1 -5q0 -2 0.5 -4t2.5 -2l1 0.5l1 0.5l10 10h0.5h0.5q1 0 2 -0.5t1 -2.5q-1 -5 -4 -8l-6 -6t-5.5 -6.5t-2.5 -7.5v-5q1 -2 2 -2h2h2q4 4 7.5 8.5t7.5 7.5q1 -1 1 -2.5v-3.5
q0 -4 -2.5 -7.5t-6.5 -6t-6.5 -6t-2.5 -7.5t2 -6.5t6 -2.5q6 0 9.5 6t5.5 14t2.5 16t0.5 12q0 7 -2.5 14t-6 13t-6.5 12.5t-4 13.5q0 2 -0.5 5t-0.5 6.5t-0.5 6.5t-0.5 4zM134 156q0 -7 2 -9t9 -2h6q0 1 0.5 2.5t1 3.5t1 3.5t0.5 2.5l1.5 2.5l1.5 2.5v1v1l-16 10v0
q-4 0 -5 -2t-1.5 -5t-0.5 -6v-5zM160 146q0 -4 3.5 -4.5t6.5 -0.5q4 0 8 2t4 6q0 7 -4 9.5t-10 2.5h-5q-2 -3 -2.5 -7.5t-0.5 -7.5zM51 124v4.5t3 2.5t4 -4.5t1.5 -10.5t1.5 -12t3 -9q6 -2 13 -4t14 -2q8 0 12.5 3t6.5 8.5t2.5 12t0.5 13.5l1.5 1.5l0.5 0.5v0q4 0 5 -4t1 -6
q0 -7 -2 -12.5t-4 -14.5q-1 -4 -5.5 -6t-9 -2.5t-8 -1t-3.5 -1.5v-20q0 -1 1 -2t3 -1h4h2q3 0 4 2.5t1 5.5t0.5 5.5t3.5 2.5h1l0.5 -0.5t0.5 -1.5q1 -1 1 -4v-4q0 -2 -0.5 -7.5t-1.5 -11t-3 -9.5t-4 -4h-28q-3 0 -8 2t-6 5q-2 10 -2 19v19l2 -0.5l4 -1t3 -1.5t1 -3v-25
q0 -3 2.5 -4.5t5.5 -2t7 -0.5h5h4.5t4.5 1t3.5 2.5t1.5 4.5q0 2 -2.5 3.5t-6 2t-6.5 0.5t-4 1q-2 2 -3 5.5t-1 7.5t0.5 8t0.5 6q-1 2 -3.5 2.5t-5.5 1l-6 1t-4 1.5q-4 2 -5.5 7t-3 11t-1.5 12v8zM137 110v-2q0 -2 1 -2h13q1 0 2 2v4q0 4 -1.5 6.5t-6.5 2.5q-4 0 -6 -3.5
t-2 -7.5zM160 112q0 -5 2.5 -7t7.5 -2q3 0 5 1t2 4q0 6 -3 8t-8 2q-3 0 -4.5 -1.5t-1.5 -4.5zM136 83h17l0.5 3.5t0.5 4.5v2v2.5t-1 1.5t-4.5 1.5t-4.5 0.5h-0.5h-0.5q-3 0 -4.5 -1.5t-2 -4t-0.5 -5.5v-5zM135 74v-10q0 -1 2 -1.5l4 -1t3.5 -0.5h1.5h7q1 2 1 4v4
q0 3 -0.5 4.5t-2.5 2t-4 0.5h-5h-3h-2zM161 67q0 -6 3 -7.5t9 -1.5q3 0 3 5q0 3 -3.5 6.5t-6.5 3.5t-4 -2t-1 -4zM135 51q0 -3 1.5 -5t4 -3.5t5 -1.5h6.5h3.5t1.5 3q0 6 -4.5 8t-9.5 2h-2h-2.5t-2.5 -0.5t-1 -2.5zM163 47q0 -3 1 -6t5 -3q5 0 8 0.5t3 5.5q0 1 -0.5 4t-2.5 3
h-11q-1 0 -2 -1q0 -1 -0.5 -2z" />
</svg>
