<?xml version="1.0" standalone="no"?>
<!DOCTYPE svg PUBLIC "-//W3C//DTD SVG 1.1//EN" "http://www.w3.org/Graphics/SVG/1.1/DTD/svg11.dtd" >
<svg xmlns="http://www.w3.org/2000/svg" xmlns:xlink="http://www.w3.org/1999/xlink" version="1.1" viewBox="-10 0 266 256">
   <path fill="currentColor"
d="M78 246q1 5 5 5q2 0 4.5 -2t2.5 -4v-35l0.5 -1l0.5 -1l0.5 -1.5l1 -3l1 -3l0.5 -1.5l2.5 -2.5l3 -3l3 -3t1.5 -2t0.5 -2t1.5 -1.5q0 -1 0.5 -2.5t1 -4t1 -4.5t0.5 -3v-1v-2q0 -3 -0.5 -7.5t-0.5 -9t-0.5 -8t-0.5 -4.5q0 -4 -1 -10t-3 -12t-6 -10.5t-9 -4.5
q-8 0 -13.5 4.5t-9 11.5t-5.5 14.5t-2 13.5l-0.5 3t-1 7l-1 8t-1.5 6v1q0 5 1 12t3 13h1h2h2q2 0 3 -2v-4v-3q0 -5 -1 -9t-1 -9v-2.5t3 -1.5q3 1 5 3t3.5 4.5t3.5 4.5t4 2t3 -1.5t1 -3.5q0 -4 -3.5 -7.5t-7 -6.5t-6.5 -6t-3 -7v-3t0.5 -4t1.5 -3t2 -1q5 0 7.5 2.5t4.5 5.5
t4.5 5.5t6.5 2.5q0 -6 -3.5 -10.5t-7 -8t-7 -6t-3.5 -4.5q0 -5 4 -7.5t9 -2.5t7.5 7t4 16.5t1.5 18.5v13v13q-10 11 -15.5 23t-5.5 28v14zM117 210v1q0 1 1 2t2 1h4.5h4.5q13 0 25.5 -2t25.5 -2l2.5 -0.5t3.5 1.5l30 -3q2 0 3 -1.5t1 -3.5q0 -1 -1.5 -2.5t-2.5 -1.5
q-6 0 -11.5 1.5t-11.5 1.5q-3 0 -4 -2.5t-1.5 -5.5t-0.5 -6.5v-5.5v-9q2 -4 4.5 -5.5t5.5 -3t5 -4.5t2 -9q0 -1 -1 -4t-2 -5.5t-2.5 -4.5t-3.5 -2h-30q-4 1 -9.5 1.5t-8.5 1.5l-1 2l-2 4t-2 3.5t-1 2.5v1q0 2 0.5 5.5t1.5 7t3 6.5t4 4v23l-0.5 1.5t-0.5 2.5l-3 3l-2 2h-24
l-1.5 1.5t-1.5 2.5v0zM158 202v-28l1.5 -0.5t2.5 -0.5q4 -2 7.5 -2h8.5v28l-3 3h-17zM149 155q0 -5 3 -7.5t7.5 -4t9.5 -1.5h8h2h4h3.5h2.5q3 2 4.5 5.5t1.5 7.5v2t-1 2q-8 3 -17 4.5t-17 1.5q-4 0 -7.5 -3t-3.5 -7zM73 72q0 2 -2 2.5l-4 1t-4.5 0.5t-3.5 1q-8 3 -11.5 9.5
t-4.5 14t-0.5 15.5t0.5 14q4 0 6 -1.5t3.5 -4t1.5 -5v-5.5q0 -2 0.5 -5t0.5 -6q0 -4 -0.5 -7t-0.5 -4q2 -5 6 -7t9 -3t11 -1h9h12l1 1t2.5 2t2.5 2l1 1v36q5 0 8 -2.5t3 -7.5q0 -3 -0.5 -8t-2 -10t-3 -9.5t-3.5 -7.5q-2 -2 -5 -3t-6 -1h-6t-6 -1t-4.5 -3.5t-1.5 -8.5
l0.5 -2.5t0.5 -3.5q2 -3 6.5 -3.5t7.5 -0.5t4 1.5t1.5 3.5t0.5 5v3q1 0 3 -0.5t2 -2.5l0.5 -2t0.5 -4t0.5 -4.5l0.5 -2.5v-3q0 -5 -1 -10.5t-7 -8.5h-7h-8.5t-6.5 0.5t-7 0.5t-10 1q-4 2 -6 5t-3.5 7t-1.5 8.5v8.5v4.5v4.5t1.5 1.5t2.5 0.5t2.5 -0.5t1.5 -1.5t0.5 -4
t0.5 -6.5t0.5 -6.5t0.5 -4q0 -5 3.5 -7.5t7.5 -3.5t8.5 -1.5t8.5 -0.5h7q2 2 2.5 3.5t0.5 3.5q0 4 -2 4.5t-5 0.5h-6.5t-6.5 2.5t-4.5 8.5t-1.5 17zM128 125v1l1 0.5l1 0.5h3.5h3.5q2 0 5.5 0.5t4.5 -1.5q3 0 9.5 -0.5t14 -0.5t14 -0.5t9.5 -0.5q1 0 3 -0.5t5 -0.5t5 -0.5
t3 -0.5q2 0 3.5 -1t1.5 -3t-1 -3.5t-3 -1.5q-8 0 -16 2t-16 3h-6q-5 0 -11 0.5l-12 1t-11 1t-8 1.5t-3 3zM123 34v4q0 1 0.5 4t1.5 6.5t1 6.5v3q1 12 1 21.5t2.5 16t9 10t22.5 3.5q9 0 15.5 -1t17.5 -2q6 -2 9 -11.5t4 -20.5t1 -21v-14v-11q0 -1 -2 -2.5t-2 -2.5h-2v0
q-1 1 -2.5 1.5l-1.5 0.5v13h-12l-0.5 -0.5t-1.5 -0.5l-0.5 -1.5l-0.5 -1.5v-20q0 -2 -2 -2.5t-3 -0.5q-2 0 -3.5 0.5t-1.5 2.5v24q0 1 -2 1.5t-3 0.5h-1h-2.5t-2.5 -2q-1 0 -2 -0.5l-1 -0.5v-18l-1.5 -1.5t-2.5 -1.5v0h-1q-1 0 -1.5 0.5l-0.5 0.5q-2 5 -2 11v10
q-3 3 -4.5 3.5t-4.5 0.5q-2 0 -3.5 -0.5t-3.5 -1.5v-3t-0.5 -4t-1.5 -3.5t-3 -1.5h-3t-3 2v4zM168 86h4t3 3v11l-3.5 1t-4.5 1q-1 1 -3.5 0.5t-3.5 -1.5q-2 0 -2 -1v-11q0 -1 1.5 -1.5l3 -1t3.5 -0.5h2zM137 92q0 -3 1.5 -4t4.5 -1q5 0 6.5 3t1.5 7q0 3 -2.5 3.5t-5.5 0.5
q-4 0 -5 -3t-1 -6zM183 88q0 -2 2.5 -3.5t5.5 -1.5q2 0 3 1t1 2.5t0.5 2.5t0.5 2q0 4 -2.5 6.5t-6.5 2.5h-1h-2q-1 -4 -1 -6v-6zM134 73v-3t2 -3h2.5t3.5 -0.5t3.5 -0.5h1.5q4 0 4.5 3t0.5 5q0 3 -2 4.5t-5 1.5q-5 0 -8 -1t-3 -6zM165 64q4 0 6.5 1t4.5 4q0 5 -3 8t-8 3
q-1 0 -4 -1.5l-3 -1.5v-11l1 -0.5l1 -0.5q1 0 2.5 -0.5t2.5 -0.5zM199 68q0 1 -0.5 4t-1.5 3h-15q0 -1 0.5 -4.5t0.5 -4.5l0.5 -0.5l0.5 -0.5h13q1 0 1.5 1.5zM133 52q0 -3 3.5 -4t5.5 -1q4 0 6.5 1.5t2.5 5.5v4t-2 3q-1 1 -2 1h-2q-4 0 -8 -2.5t-4 -7.5zM158 54
q0 -4 2.5 -6t6.5 -2q5 0 6.5 2t1.5 7q0 1 -0.5 2t-1.5 1h-13q-2 0 -2 -2v-2zM183 46l1 -1q1 0 2.5 -0.5t2.5 -0.5q5 0 9 1.5t4 7.5q0 1 -2 2.5t-3 1.5h-3h-4.5t-4.5 0.5l-2 0.5v-12z" />
</svg>
