<?xml version="1.0" standalone="no"?>
<!DOCTYPE svg PUBLIC "-//W3C//DTD SVG 1.1//EN" "http://www.w3.org/Graphics/SVG/1.1/DTD/svg11.dtd" >
<svg xmlns="http://www.w3.org/2000/svg" xmlns:xlink="http://www.w3.org/1999/xlink" version="1.1" viewBox="-10 0 266 256">
   <path fill="currentColor"
d="M112 245v3.5t2 1.5q3 0 6 -3t3 -7v-4q0 -2 -0.5 -8t-1 -14t-1 -17.5t-1 -17.5t-1 -14.5t-0.5 -7.5v-7v-9v-8t-2 -7l-1.5 -2.5t-3 -5.5t-3 -5.5l-1.5 -2.5q-3 -5 -3.5 -10t-0.5 -10v-3v-2l22 -4v-0.5v-1.5l-0.5 -2t-1.5 -2h-18q-1 0 -1.5 -1.5t-0.5 -2.5q0 -5 2.5 -10
t6 -9.5t7.5 -8.5l7 -7q1 -3 -1.5 -3h-3.5q-4 0 -7 2.5t-5.5 6t-5 6.5t-4.5 3q-1 0 -3.5 -2t-5 -5t-5.5 -5.5t-6 -2.5q-2 0 -3 0.5t-2 1.5l16 16q2 4 3.5 8t1.5 8v4t-3 2h-16q-1 0 -1.5 -0.5l-0.5 -0.5q0 -1 -0.5 -2.5t-0.5 -3t-0.5 -3l-0.5 -1.5q-1 -4 -2.5 -6.5l-3 -5
t-2 -5.5t-0.5 -9q0 -5 3 -8t7 -5t9 -2.5t9 -0.5q2 0 6 -0.5t9 -0.5t9.5 -0.5t6.5 -0.5q1 0 1.5 -1t0.5 -2q0 -2 -1 -3t-3 -2h-3h-4h-4h-2h-11t-9.5 0.5t-9 1.5t-11.5 3t-10 8t-3 13q0 6 2 11t4 9.5t4 8.5t2 7t-3 3.5t-6.5 0t-6 0.5t-2.5 5q0 3 2 3.5t4.5 0.5t4.5 0.5t2 3.5
v3q-1 1 -1.5 6.5t-2 12t-2 12t-1.5 7.5q-2 14 -2 26.5v27.5v13.5v15t0.5 15t1.5 14.5q1 0 2 1.5l1 1.5h1v0q3 0 4.5 -2t1.5 -4q0 -5 -1.5 -9t-1.5 -8v-7t-0.5 -10t-0.5 -10v-7q0 -12 0.5 -25.5t2 -26.5t4 -26t7.5 -25q0 -1 0.5 -1.5t1.5 -0.5h16l0.5 0.5t0.5 1.5l4.5 13.5
t5 16t4.5 16t3 12.5q0 3 -0.5 8t-0.5 11t-0.5 11.5t-0.5 7.5q-3 0 -5 -3.5t-3 -10t-1.5 -13.5l-1 -14t-0.5 -13v-9q-1 -1 -1.5 -1h-2.5h-1.5t-1.5 1v12v10q0 5 0.5 9.5t0.5 9t1 11.5q0 3 -1.5 3h-2.5q-5 0 -6.5 -2.5t-1.5 -6.5q0 -6 1 -11t1 -10q0 -7 -0.5 -12.5t-1.5 -13.5
l-1 -0.5l-1 -0.5q-2 0 -3 0.5t-1 3.5v50q0 4 3 6.5t7.5 4t9.5 3t9 3t7 4.5t3 8v1v7t-0.5 12t-0.5 12v7v4zM170 200v18.5t3 14.5t9.5 10t18.5 4h6q2 -2 2.5 -3t0.5 -2q0 -3 -2 -4t-5.5 -1.5t-7 -0.5t-7 -2t-6 -5t-2.5 -9v-3.5t0.5 -5l1 -5t0.5 -3.5q1 -2 3 -3t5.5 -1
t6.5 -0.5t6 -2.5t5 -7t2 -13v-5v-5q-1 -2 -2 -3.5t-4 -1.5q-2 0 -3.5 0.5t-0.5 3.5q0 5 0.5 11.5t-2.5 11.5q0 1 -0.5 1.5l-0.5 0.5h-14l-3 -4v-28q0 -7 4 -9t9 -3.5t9.5 -4t4.5 -10.5v-1q-1 -2 -1 -5.5t-0.5 -6.5t-0.5 -5.5v-2.5q0 -1 -0.5 -2t-1.5 -2h-1v0q-1 1 -2.5 2
t-1.5 2v7.5t-0.5 9.5t-2.5 8t-7 3h-2h-3q-2 -6 -2.5 -11.5t0 -10.5t0.5 -9t-2 -6.5t-7 -4.5t-15 -2h-2q-1 0 -2.5 0.5t-3.5 0.5h-2q-3 2 -3 4t0.5 3.5t2.5 2.5h4h5h5.5h3.5q3 0 5 1t2 4l2 21q0 3 -1.5 5t-3.5 2.5t-4.5 1t-4.5 0.5q-3 0 -4.5 -2.5t-2 -6l-1 -7t-0.5 -4.5
t-1 -1.5l-2 -1t-3 -0.5h-1q0 12 2 17.5t5 8.5t6.5 3.5t6.5 1t5 2t2 5.5v3v6t-0.5 9t-1 9t-0.5 6t-2.5 2h-3.5q-4 0 -6.5 -3t-3.5 -6.5t-1 -8t-1 -7.5q0 -2 -1 -2h-2q-3 0 -4 1.5t-1 3.5q0 3 0.5 7.5t1.5 9.5t3.5 8.5t6.5 4.5h4.5h2.5h2.5t4.5 2zM112 185q1 0 1 1q0 2 -1 2
q-2 0 -2 -2q0 -1 2 -1zM139 79v1q1 0 2 0.5t2 0.5v0h1q3 0 11.5 -1t17.5 -2t17 -2t12 -1q6 -1 7 -3t1 -8q-14 0 -28.5 2.5t-29.5 4.5q-1 0 -3 0.5t-4 1.5t-4 2.5t-2 3.5zM139 56q0 2 3 2h4q7 0 14 -2t14 -3q1 0 5 -0.5l8 -1t7.5 -1t5.5 -0.5q2 -1 3.5 -2.5t1.5 -3.5
q0 -3 -1 -4t-4 -1q-14 0 -29.5 4t-29.5 8q0 1 -0.5 2t-1.5 1v2zM202 18q-6 0 -12 1t-12 2.5t-12.5 3t-11.5 3.5q-1 0 -2.5 0.5l-3 1l-3 1l-1.5 0.5v7l54 -8q2 -1 4 -1.5t3.5 -1.5t3 -2.5t1.5 -3.5q0 -1 -0.5 -2t-1.5 -1h-6z" />
</svg>
