<?xml version="1.0" standalone="no"?>
<!DOCTYPE svg PUBLIC "-//W3C//DTD SVG 1.1//EN" "http://www.w3.org/Graphics/SVG/1.1/DTD/svg11.dtd" >
<svg xmlns="http://www.w3.org/2000/svg" xmlns:xlink="http://www.w3.org/1999/xlink" version="1.1" viewBox="-10 0 266 256">
   <path fill="currentColor"
d="M171 207q0 10 3 18t9 14q1 2 3 4t4.5 3.5t4 3l1.5 1.5h18q1 0 1.5 -1.5l0.5 -1.5q0 -3 -5.5 -5t-12.5 -5.5t-12.5 -9.5t-5.5 -18q0 -8 2.5 -14.5t6 -13t6 -13t2.5 -13.5q0 -6 -4 -8t-9 -3t-9.5 -2t-4.5 -5q0 -3 2.5 -6.5t5.5 -3.5h31q2 0 3 -2t1 -4q0 -1 -0.5 -1.5
l-1.5 -1.5h-3h-2q-4 0 -6.5 0.5t-5.5 1.5q-3 0 -10 0.5t-15 1.5t-15 2t-10 1h-6.5t-7.5 1t-6.5 3t-2.5 6q10 0 19.5 -2t18.5 -2h1.5h2.5q0 1 0.5 3l0.5 2l0.5 1l0.5 1q0 4 -2.5 7t-5.5 5.5t-6 5.5t-5 6q-8 14 -9.5 29t-1.5 30v4v5v5v3q0 2 1 5.5t4 3.5q2 0 3 -2.5t1 -5.5
v-0.5v-0.5v-6t-0.5 -10.5t-0.5 -10.5v-7v-1q0 -8 1.5 -17t6 -17t11 -13.5t16.5 -5.5q5 0 7.5 1.5t2.5 7.5t-2.5 11.5t-6 11.5t-6 11.5t-2.5 12.5zM48 240q0 4 1 6.5t5 2.5q2 0 3 -1t1.5 -3t0.5 -5v-4q0 -15 -1 -29.5t-1 -29.5q0 -16 1 -30t4 -29q1 -8 2 -14.5t3.5 -11
t7.5 -6.5t14 -2q4 0 5.5 2t3 5.5t2 7t1.5 6.5q1 18 2 35.5t2 34.5t1.5 34t0.5 37l0.5 0.5l1.5 1.5v0q2 0 3.5 -1t2.5 -3q1 -7 1 -13v-13q0 -29 -2 -58t-7 -57l-0.5 -1.5l-1 -3l-1 -3t-0.5 -2.5q-1 -3 -3 -4.5t-2 -4.5q0 -1 0.5 -1.5t1.5 -0.5t3.5 -0.5l5 -1l5 -1t3.5 -0.5
q1 -1 2.5 -1.5t2.5 -2.5q-1 0 -2.5 -1t-2.5 -2h-3.5t-5.5 -0.5t-6 -0.5h-4v-2v-1q0 -5 2 -9t5 -7.5t5 -6.5t2 -7q0 -2 -1 -2.5t-3 -0.5q-3 0 -5 2.5t-3 5.5t-2.5 5.5t-3.5 2.5h-3q-5 -5 -8.5 -9t-10.5 -4v2q3 2 6 5.5t5.5 7t4 7.5t1.5 8t-4.5 6t-7.5 2q-2 0 -5.5 -5t-6 -11
t-4.5 -11.5t-2 -6.5v-2q0 -2 1 -2q3 -6 9 -9t12.5 -4.5t13.5 -2t13 -0.5q1 0 2.5 -1t1.5 -3q0 -4 -2.5 -5t-5.5 -1h-1.5h-1.5q-2 1 -6.5 1.5t-10 1.5t-10.5 2t-7 2q-8 4 -12.5 9t-4.5 15q0 4 1.5 8t3.5 7.5l4 7t4 6.5v3q0 1 -0.5 2t-1.5 2h-3h-5h-4h-3q-2 0 -2.5 0.5
t-0.5 2.5q0 3 1 5t4 2t5.5 -1t5.5 -1h1l0.5 0.5l0.5 0.5v0.5v0.5v1v0q-3 6 -5 9.5t-4 10t-3 15t-1.5 17t-0.5 17.5v15v4l0.5 2.5t0.5 5.5t0.5 5t0.5 3t-0.5 4t-0.5 6.5t-0.5 6.5t-0.5 4v4q0 3 1 5.5t1 5.5t-1 5.5t-1 4.5zM68 156q0 11 1 18.5t4.5 12t10.5 6t18 1.5
q0 -2 -1 -3.5t-2.5 -3.5t-2.5 -3.5t-1 -4.5l-0.5 -2t-0.5 -5t-0.5 -6t-0.5 -4v-2v0q0 -1 0.5 -3t1.5 -2v-44q0 -2 -1 -2.5t-2 -0.5q-3 0 -4 3t-1 5v60q0 3 -1.5 5t-3.5 2q-3 0 -4.5 -3t-1.5 -6v-60h-3.5t-2.5 2t-0.5 7.5t-0.5 12t-0.5 12t-0.5 7.5v1zM135 107v0.5v0.5
q0 1 1 2t2 1t4.5 -0.5t4.5 -0.5q3 -1 9 -1.5t12.5 -1.5t12.5 -1.5t8 -0.5q1 0 2.5 -0.5t2 -1t1.5 -1t1 -1.5l-1 -1t-1 -2h-4.5h-4.5h-4.5h-3.5q-2 0 -7.5 1t-12 2t-12 2t-7.5 2q-1 0 -2 0.5l-1 0.5v0.5v0.5zM202 69h-2l-62 19q-2 1 -3 3.5t-1 3.5q5 0 8.5 -0.5t6.5 -1.5
l6 -2t8 -3q1 0 5.5 -1t10 -2.5t10 -2.5t5.5 -2q2 0 4 -0.5t3.5 -1t2.5 -2t1 -3.5q0 -4 -3 -4zM133 64q0 4 4 4q7 0 13.5 -3.5t12.5 -5.5q9 -3 18 -4.5t18 -4.5q1 -1 1.5 -2t0.5 -2.5v-2.5v-1h-5q-2 0 -5.5 1t-7.5 2.5t-7.5 2.5t-4.5 2q-1 0 -3.5 0.5l-5 1t-4.5 1t-3 0.5
t-5 1t-7.5 2.5t-6.5 3.5t-3 4zM127 37q0 3 2.5 3h3.5q5 0 10.5 -2t10.5 -5l37 -9l9 -5v-7q-5 0 -11.5 0.5t-10.5 4.5q-2 1 -6.5 2.5t-9.5 3t-10 2.5t-6 2q-2 0 -5 1t-6 2.5t-5.5 3t-2.5 3.5z" />
</svg>
