<?xml version="1.0" standalone="no"?>
<!DOCTYPE svg PUBLIC "-//W3C//DTD SVG 1.1//EN" "http://www.w3.org/Graphics/SVG/1.1/DTD/svg11.dtd" >
<svg xmlns="http://www.w3.org/2000/svg" xmlns:xlink="http://www.w3.org/1999/xlink" version="1.1" viewBox="-10 0 266 256">
   <path fill="currentColor"
d="M48 245q0 1 1.5 2t1.5 2h1q7 0 7 -7v-3.5t-2 -3.5v-62q0 -9 2.5 -19t6 -19.5t6.5 -19.5t5 -19q3 -3 7.5 -3.5t7.5 -0.5t4.5 4.5t2 10t1.5 10.5t4 7q2 8 3.5 14.5t2 13l1 13t0.5 14.5q-4 0 -7.5 -1.5t-6.5 -4.5v-4v-4q0 -10 1 -18.5t1 -18.5h-5q0 2 -0.5 7t-1 10.5
t-1 10.5t-0.5 7v3t-0.5 4t-1.5 3.5t-3 1.5q-1 0 -3 -1t-2 -3v-38q0 -1 -1 -1h-2h-1.5t-1.5 1v38q0 6 4.5 8.5t11 3.5t12.5 1.5t9 2.5v3t0.5 4t0.5 4v3v43q1 1 1.5 1h1.5q3 0 5 -3.5t2 -6.5l-5 -92l-1 -2t-1 -3v-1t-0.5 -2.5t-0.5 -3v-1.5q-4 -9 -8 -16.5t-4 -17.5
q0 -1 0.5 -2t0.5 -2l3 -2h17q2 0 2 -1.5v-2.5v-2t-2 -2h-17q-3 0 -3.5 -1t-0.5 -3q0 -6 3.5 -12.5t8 -12.5t8 -11t3.5 -7t-1.5 -2h-2.5q-4 0 -6.5 2.5t-4.5 5.5l-4 6t-5 3q-2 0 -4 -2.5t-4.5 -5.5t-6.5 -5.5t-8 -2.5q-1 0 -2 0.5t-2 1.5q2 1 6 4t7.5 6t6 6.5t2.5 5.5v26h-20
q-1 -6 -3 -12l-4 -12t-3.5 -12t-1.5 -12q0 -2 1.5 -4.5t3 -4.5t4 -3.5t4.5 -1.5q11 -2 21.5 -2.5t21.5 0.5q3 0 3 -1.5v-2.5q0 -2 -0.5 -3.5t-2.5 -2.5h-23h-23h-2.5t-3 0.5l-3 1t-2.5 1.5q-4 7 -6 13t-2 14q0 5 2 11t4.5 12t4.5 11.5t2 10.5v1l-1 1l-1 1h-21q0 4 1.5 6
t4.5 2t5.5 -1t5.5 -1t3.5 0.5t0.5 3.5q0 8 -2.5 16t-5.5 16t-6 15.5t-4 15.5v6t-0.5 7.5t-0.5 6v2.5l-0.5 2t-1.5 2v17v11t0.5 9.5t0.5 9.5t1 11zM191 179q4 0 6 1.5t2 5.5v59q0 3 1 3.5t3 0.5q1 0 2.5 -0.5t2.5 -1.5q0 -1 0.5 -4t0.5 -6v-6v-4v-5v-6t-0.5 -5.5t-0.5 -3.5
t-0.5 -7t-1 -13t-1 -13t-0.5 -8q0 -8 0.5 -17t-1 -16t-6.5 -11.5t-16 -4.5q-7 0 -13.5 1.5t-13.5 1.5h-4t-3 -1v-12q0 -3 4.5 -4.5t11 -2t14 -1t14.5 -1.5t11 -3t4 -6q-7 0 -17.5 -0.5t-21 1t-18.5 6.5t-10 14q0 1 -0.5 4t-1 7.5t-1 8.5t-0.5 7v1v10.5t1 13.5t3.5 12.5
t6.5 6.5h14q7 0 14.5 -1t14.5 -1zM151 173q-4 -1 -4.5 -4t-0.5 -6q0 -2 0.5 -4.5t3.5 -3.5q2 -1 7 -1t11 -1t11 -1t7 -1h4q1 0 3.5 0.5t2.5 3.5v15q0 2 -3.5 3t-8 1t-8.5 0.5t-5 0.5h-1q-1 0 -1 -1h-3.5t-5.5 -0.5t-5.5 -0.5h-3.5zM145 135v-2.5t2 -2.5q5 -1 10 -2.5t9 -2.5
t8 -1.5t10 -0.5h2q1 0 3 0.5t3.5 1t1.5 2.5v15l-1 0.5t-2 0.5q-8 2 -13.5 2h-13.5h-3h-4h-4h-3q-2 0 -3 -1t-1.5 -2.5t-0.5 -3.5v-3zM140 81q1 2 3 2h3t2.5 -0.5l1.5 -0.5l1 -0.5t2.5 -1.5t2.5 -2t2 -1q10 -3 21 -5t21 -4q2 -1 5 -2t3.5 -3.5t-2 -3.5t-3.5 -1h-3l-1.5 0.5
l-3 1l-3 1l-1.5 0.5q-1 0 -6 1.5t-10.5 2.5t-10 2.5t-5.5 1.5q-5 1 -10.5 4t-8.5 8zM140 56q0 3 3 3h2q2 -1 8.5 -3t13.5 -4.5t13.5 -4.5t8.5 -3h3t4 -0.5t3.5 -1.5t1.5 -3q0 -1 -0.5 -1h-0.5q0 -1 -0.5 -1.5l-0.5 -0.5h-13l-4.5 1.5l-10.5 3.5t-12 3.5t-9 3.5q-1 0 -3 1
t-3.5 2t-2.5 2t-1 3zM138 29q0 2 1.5 3.5t3.5 1.5l2.5 -0.5t4.5 -0.5l10 -2.5t11.5 -3l11 -3t10.5 -2.5q0 -1 1.5 -2l3 -2t2.5 -2.5t1 -2.5q0 -2 -2.5 -2.5t-3.5 -0.5h-2q-1 0 -2.5 0.5t-3 1.5l-3 2l-1.5 1q-5 1 -10.5 2.5l-11 3l-11 3t-10.5 2.5l-0.5 1t-1.5 1v1z" />
</svg>
