<?xml version="1.0" standalone="no"?>
<!DOCTYPE svg PUBLIC "-//W3C//DTD SVG 1.1//EN" "http://www.w3.org/Graphics/SVG/1.1/DTD/svg11.dtd" >
<svg xmlns="http://www.w3.org/2000/svg" xmlns:xlink="http://www.w3.org/1999/xlink" version="1.1" viewBox="-10 0 266 256">
   <path fill="currentColor"
d="M48 236v3.5t0.5 5t1.5 4t4 1.5q4 0 6.5 -3t2.5 -7q0 -13 -1.5 -26t-1.5 -27v-13.5t0.5 -17t1.5 -16.5t3 -14q0 -1 1.5 -4t3 -7t3 -7.5t1.5 -4.5q2 -3 2.5 -6t1 -5t2.5 -2.5t7 -0.5h5t4 3q3 9 5.5 19l5 20t4 20t1.5 20v4q0 3 -0.5 4.5t-1.5 2.5t-4 1q-6 0 -9 -4t-3 -10
q0 -2 0.5 -7.5t0.5 -12t0.5 -12t0.5 -6.5v-10q-5 0 -7 4v4t-0.5 7t-0.5 7v5v5.5v9.5v9.5v6.5q-2 0 -3.5 0.5t-2.5 0.5t-1.5 -0.5t-1.5 -2.5q-1 -5 -1.5 -11t-0.5 -12v-11v-9q-5 0 -6 3t-1 8v10t0.5 12t1.5 12t2 11q5 1 9.5 1.5t9.5 0.5h9.5t8.5 -1q0 1 0.5 1.5l0.5 0.5
q1 1 1.5 5t0.5 5v7v11v10.5v7.5l2 2l3 3h1h1q1 -1 3 -4t3 -3v-1q0 -8 -1.5 -16t-3 -15.5t-2.5 -15.5t-1 -16q0 -3 1 -6t1 -7q0 -2 -1.5 -4.5t-2.5 -4.5q-1 -7 -1.5 -12t-0.5 -9.5t-1 -9.5t-3 -10q-1 -3 -2.5 -5t-2.5 -4t-1.5 -4.5t-0.5 -5.5t3 -3.5t7 -1t7.5 -1t5.5 -3.5
l-3 -3l-18 -3q-2 -1 -3 -4t-1 -4q0 -5 3 -9.5t6.5 -9t6.5 -8.5t3 -7t-1 -4t-5 -3q-2 2 -4.5 6t-5 8.5t-4.5 8t-4 3.5q-4 0 -7.5 -3t-6.5 -7t-5 -8t-4 -6v-1q0 -2 3 -3.5t6.5 -2t6.5 -1t4 -1.5h3.5t5.5 -0.5t5.5 -0.5h3.5l3 -4l-3 -3h-3.5h-4.5q-8 0 -16 0.5t-15 3t-12.5 7
t-8.5 12.5v9q0 6 1.5 10t4 7.5t4 7t1.5 7.5q0 2 -2 3t-4.5 1.5t-4.5 1t-2 1.5v1l0.5 1.5t1.5 1.5t4 -0.5t5.5 0t4.5 1.5t2 4t-1.5 6.5t-3.5 8l-4 9t-2 7.5q-1 2 -1.5 7t-1 10.5t-1.5 10l-1 4.5q0 21 -2 40.5t-2 40.5zM164 244q0 3 2 4.5t5 1.5q6 -1 11 -6t9 -12t7 -13.5
t6 -11.5l1 -0.5l1 -0.5q1 -7 3 -14.5t2 -14.5q0 -6 -2 -11.5t-5.5 -10.5l-7 -10t-7.5 -9v-1v-1q0 -4 2.5 -5t5.5 -3t6 -6.5t3 -13.5q0 -8 -1 -12.5t-3.5 -7.5t-7.5 -4.5t-13 -1.5q-2 0 -7 1t-11 2.5t-10.5 3.5t-4.5 3v31q0 3 2.5 4.5t5 2t5 1.5t2.5 5q0 3 -4.5 6t-9.5 6
t-9.5 7t-4.5 8q6 0 10.5 -2t8.5 -5.5t8.5 -7t8.5 -5.5q2 -1 2 -2.5v-3.5q0 -1 1 -2t4 -1h2t1 1q1 0 1.5 2.5t0.5 3.5q-1 4 -3.5 8t-6 7t-7.5 6t-7 5q0 1 -2 3l-4.5 4.5l-4.5 4.5l-3 3v1q0 1 2 2.5t3 1.5q3 0 6 -2t5.5 -4.5t4.5 -5.5t3 -4t3 -3.5t4.5 -4.5t4.5 -4l3 -3h2h2
h3.5t2.5 3t-2.5 7.5t-6 9t-7 8.5t-5.5 8q-3 3 -7 6t-8.5 6.5t-8 7t-3.5 9.5q0 3 3 3q4 0 9 -4t10 -9t8.5 -10.5t6.5 -8.5q0 -1 1.5 -3l3 -4t3.5 -4.5t3 -3.5l0.5 -1t1.5 -1h1v0q1 1 2 1.5t2 0.5v4q0 6 -2 11t-4.5 9.5t-5 9.5t-3.5 10l-22 23v2zM156 120q-1 -2 -1 -3v-2
q0 -2 1.5 -3.5t3.5 -2t4.5 -1t3.5 -0.5h6h10h10.5h6.5q0 5 -2 7.5t-5 4t-6.5 1.5h-7.5h-12t-12 -1zM155 99q0 -2 4 -4t9.5 -3.5t10.5 -2t8 -0.5q4 0 7 0.5t3 5.5q0 3 -2 4t-4 1t-6.5 0.5t-9.5 0.5t-9.5 0.5t-6.5 0.5v0q-4 0 -4 -3zM62 45q0 -1 0.5 -5t0.5 -5l0.5 -1t1.5 -1
l1.5 1l1.5 1l1 1.5t2 3.5t2 3t1 2q2 1 4.5 4.5t6 7t6 6.5t3.5 5q1 0 1.5 2t0.5 3l-0.5 1t-1.5 2h-2t-3.5 0.5t-3.5 0.5h-2h-3q-4 0 -7.5 -3.5t-5.5 -9t-3.5 -11t-1.5 -8.5zM141 64q0 3 2.5 3.5t4.5 0.5h5q1 0 2.5 -0.5t3.5 -1.5t3.5 -1.5l1.5 -0.5q3 0 10.5 -0.5t15 -1.5
t13 -3.5t4.5 -7.5q0 -2 -1.5 -2.5t-3.5 -0.5q-1 0 -6.5 1t-12 2.5t-14 3t-13.5 3.5l-10.5 3.5t-4.5 2.5zM146 45q0 1 1 2t2 1q6 0 12.5 -1t13.5 -2.5t13.5 -2.5t12.5 -2q3 -2 3 -5q0 -2 -1 -3.5t-3 -1.5q-4 0 -8 2t-8 3q-7 2 -15 3t-16 3q0 1 -3 1.5t-4 0.5v2zM143 27
q0 2 1 2.5t4 0.5q6 0 12.5 -1.5l13 -3l13 -3t12.5 -2.5l5 -5q-4 -4 -9 -4q-1 0 -5 0.5t-9.5 1.5t-12 3t-12 3.5t-9.5 3.5t-4 4z" />
</svg>
