<?xml version="1.0" standalone="no"?>
<!DOCTYPE svg PUBLIC "-//W3C//DTD SVG 1.1//EN" "http://www.w3.org/Graphics/SVG/1.1/DTD/svg11.dtd" >
<svg xmlns="http://www.w3.org/2000/svg" xmlns:xlink="http://www.w3.org/1999/xlink" version="1.1" viewBox="-10 0 266 256">
   <path fill="currentColor"
d="M186 247q0 4 4 4t6 -4.5t3.5 -11.5t2.5 -15.5t2 -16.5t1.5 -14t1.5 -8v-12v-11t-1 -8.5t-4 -6t-9 -2.5q-2 0 -5.5 -0.5t-8 -0.5t-8.5 -0.5t-5 -0.5t-3 -1t-3 -2v-2.5v-3.5v-3.5v-1.5q-1 -3 -1.5 -3.5t-1.5 -0.5h-2t-2 2v3.5v3.5q0 6 3.5 10t9.5 6h5t7 0.5t7 0.5h4
q7 1 8.5 5.5t1.5 10.5q0 13 -1 26t-4 26q0 2 -1.5 6.5l-3 9t-2.5 9t-1 7.5zM46 205v7t0.5 10.5t1.5 9.5t4 4h2.5t1.5 -1v-6.5v-10.5v-9.5v-6.5q0 -4 1 -13t2 -19.5t2 -20t1 -13.5q2 -6 4 -11.5t4 -10.5t4.5 -10.5t4.5 -11.5q1 -2 4.5 -2.5t5.5 -0.5q4 0 5.5 1.5t2 4t1 6
t2.5 6.5q1 2 2.5 3t2.5 2t2.5 2t2.5 2q4 7 6.5 14.5t3.5 15.5v7t-0.5 10.5t-0.5 10.5v7q-5 0 -10 -2t-7 -6q0 -11 -0.5 -23t-1.5 -22h-1h-1h-2.5t-1.5 2v38q0 3 -1.5 3.5t-2.5 0.5q-3 0 -4.5 -1t-3.5 -5v-5t-0.5 -8t-0.5 -8t-1 -6q0 -2 -0.5 -5t-3.5 -3q-1 0 -1.5 0.5
t-0.5 1.5v38q0 2 4 4t9 3.5t9.5 2.5t5.5 2q1 0 3.5 0.5t5 1.5t5.5 1.5t4 0.5v4.5t0.5 5.5t0.5 6v4v2q0 6 -1.5 11.5t-1.5 10.5q0 2 1.5 3.5t2.5 1.5t2.5 -1t2 -3t1.5 -3.5l1 -1.5v-17q0 -30 -3 -60q-1 -6 -1 -12.5t-2 -12.5t-6 -10l-7.5 -7.5t-6 -7t-2.5 -8.5q0 -3 0.5 -3.5
t4.5 -1.5h4t4.5 -0.5t5 -0.5h3.5l1.5 -1.5t0.5 -1.5q0 -3 -1.5 -3.5t-3.5 -0.5v0q-1 0 -2.5 0.5t-3.5 0.5t-3.5 0.5t-2.5 0.5h-2q-2 0 -2.5 -1t-0.5 -3q0 -6 2.5 -11.5t5.5 -10t6.5 -9.5t5.5 -11q-1 0 -2 -1t-1 -2q-4 0 -7 3.5t-5.5 9t-4.5 9.5t-4 4t-3.5 -3t-4 -7t-6 -7.5
t-9.5 -3.5q0 4 3.5 8.5l7 9t7 9.5t3.5 10q0 3 -1.5 5t-4 2.5l-5 1t-5.5 0.5q-2 0 -4.5 -6t-4.5 -13t-3.5 -14t-1.5 -10t0.5 -5.5t1.5 -4t3 -3t5 -3.5q1 0 4.5 -0.5l7 -1l7 -1t4.5 -0.5h4.5h6.5t6 -1t3 -4t-2 -3h-5h-17t-19 2.5t-15.5 8t-6.5 16.5q0 6 2 10.5t4 9.5t4.5 9.5
t2.5 9.5v3t-2 2q-4 0 -8.5 0.5t-7.5 2.5l-1.5 1.5l-0.5 0.5q0 2 1.5 3.5t3.5 1.5h2l1.5 -0.5t3.5 -1.5t3.5 -1.5t2.5 -0.5h1q2 0 2 2v3q0 3 -1 6t-3 5.5l-4 5t-3 4.5t-2.5 5.5t-2.5 7l-2 7t-1 5.5q-3 16 -3.5 32t-0.5 32zM142 226v3t3 2q2 0 3.5 -2.5t2 -6t0.5 -8t0.5 -8.5
t1.5 -6.5t3 -2.5h1l21 8v1h1q4 0 4 -4q0 -1 -3.5 -3t-8.5 -3.5t-9 -2.5t-5 -2v-3v-2t1 -2h31l1 -0.5l1 -0.5v-1v-1l-1 -1l-1 -1h-27q-2 0 -2.5 -1t-1 -2.5t-0.5 -2.5v-2v-5t3 -3h2q1 0 3 0.5t4.5 0.5t4.5 0.5t3 0.5q2 0 5 -1t5 -4l-4 -3h-22q-3 0 -3.5 -1t-1 -2.5t-1.5 -2.5
t-3 -1l-1.5 2.5l-1.5 2.5v5t-0.5 6.5l-1 7t-0.5 4.5v2v2v3v1q-1 9 -3.5 19.5t-2.5 20.5zM141 81q-1 0 -1.5 0.5t-0.5 1.5v22q0 4 3.5 6.5t8.5 3l10 1t7 0.5h41h3.5t1.5 -2t-1 -4t-3 -2h-31q-2 0 -2.5 -3t-0.5 -4q0 -2 0.5 -4t2.5 -2h18q1 0 1.5 -1.5t0.5 -3.5v-5v-2.5v-3
t-1 -2.5t-2 -1q-3 0 -4 2t-2 4.5t-2.5 4.5t-4.5 2q-4 0 -5 -2t-1.5 -5t-1.5 -5.5t-4 -2.5q-1 0 -2 0.5t-1 1.5v4.5t-0.5 7.5t-0.5 7.5t-1 4.5q0 3 -0.5 6t-3.5 3h-4.5t-4.5 -0.5l-4 -1t-2 -2.5q0 -1 -0.5 -3t-0.5 -4t-0.5 -4.5t-0.5 -3.5v-2v-3.5t-1 -2.5t-3 -1zM138 68
q0 2 2.5 2.5t4.5 0.5q6 0 12.5 -1l13 -2t13.5 -2t13 -1h12q2 -1 2.5 -1.5t0.5 -2.5q0 -4 -1.5 -4.5t-5.5 -0.5l-2 0.5l-2 0.5l-60 8q-2 0 -2.5 1t-0.5 2zM141 48q0 4 2 4q13 0 26.5 -2t26.5 -3q3 -2 3 -5q0 -1 -0.5 -2.5t-2.5 -0.5l-48 5q-1 0 -4 1t-3 3zM138 29q0 1 0.5 2
t2.5 1q0 1 3 1h4q2 0 7 -0.5t11.5 -0.5t13 -1t12 -2t9 -3t3.5 -5v-2t-2 -1h-5q-7 0 -14 1t-14 2.5t-14 2.5t-13 2q-2 0 -3 1t-1 2z" />
</svg>
