<?xml version="1.0" standalone="no"?>
<!DOCTYPE svg PUBLIC "-//W3C//DTD SVG 1.1//EN" "http://www.w3.org/Graphics/SVG/1.1/DTD/svg11.dtd" >
<svg xmlns="http://www.w3.org/2000/svg" xmlns:xlink="http://www.w3.org/1999/xlink" version="1.1" viewBox="-10 0 266 256">
   <path fill="currentColor"
d="M192 203v46l1 1l2 2h1q3 0 4.5 -2t2 -4t0.5 -5v-4v-9q0 -1 -0.5 -5t-1 -8.5t-1 -8t-0.5 -4.5q-1 -4 -1 -11v-16.5v-19.5t-1 -18.5t-2 -15t-2 -7.5q-4 -2 -11 -3t-13.5 -1.5t-11 -1.5t-4.5 -5t2.5 -5.5t6.5 -2t8.5 -0.5t9 -0.5t8.5 -2.5t6 -5q6 -10 8 -21.5t2 -22.5v-3
v-5.5v-4.5v-4q-1 -1 -2 -4t-2.5 -6t-3.5 -5t-3 -2h-51l-1.5 0.5t-1.5 1.5q-1 0 -1.5 0.5l-0.5 0.5q0 1 0.5 3.5t1.5 2.5h18q0 1 -0.5 4.5t-2 7.5t-3 7t-3.5 3q-3 0 -4 -2.5t-1.5 -5.5t-1.5 -5.5t-3 -2.5t-2.5 1.5l-1 3t-0.5 3v2.5q0 5 1.5 7t4 3.5t4 3t1.5 5.5v5t-3 3
q-2 0 -2.5 -1.5t-0.5 -3.5t-1 -3.5t-3 -2.5q-2 1 -2.5 3t-0.5 4q0 4 1.5 6.5t3 4l3 3t1.5 3.5q0 3 -1 5t-2.5 4.5t-2.5 4.5t-1 5v2t1 2q5 0 6.5 -3t2.5 -6.5t1.5 -7.5t4.5 -5q4 -2 8.5 -2.5t8 -2t6 -4t2.5 -8.5q0 -1 -0.5 -2t-0.5 -2h-1q-3 0 -5 1.5t-3.5 3.5t-3.5 3.5
t-5 1.5q-2 0 -2.5 -1t-0.5 -3q0 -6 2 -8.5t5 -3.5t6.5 -1.5t6.5 -2t5.5 -5.5t2.5 -11h-6l-1 1.5l-2 3t-2 2.5t-1 2q-1 1 -2 1.5t-1.5 0.5t-1.5 -0.5t-3 -0.5v-20h3.5t5.5 -0.5t6 -0.5h4q5 0 8 2t4.5 5t1.5 7.5v9.5v4.5t-0.5 8.5t-1.5 10.5t-2.5 10t-4 8t-5.5 3.5h-21
q-6 0 -9.5 4.5t-3.5 9.5v4t1 5.5l2 5t4 2.5l30 3q2 0 3 6t1.5 15t0.5 19v19.5t0.5 16t2.5 7.5zM60 246q2 1 3 1h2q3 0 4.5 -1.5t1.5 -3.5v-1q0 -1 -0.5 -3t-1 -5t-1 -5t-0.5 -3q-2 -17 -2.5 -34t-0.5 -34v-18q1 -8 4 -12t7.5 -6.5t9.5 -4t9 -3t7 -4.5t3 -8q0 -6 -3.5 -10
t-9 -6t-11.5 -3t-11 -1q-4 -3 -5.5 -7t-2.5 -9t-0.5 -9.5t0.5 -9.5q0 -8 0.5 -12.5t3 -7.5t7.5 -4.5t13 -1.5q1 0 5 -0.5t8.5 -0.5t9 -0.5t5.5 -0.5q6 0 8 -4q-2 -4 -5.5 -4.5t-7.5 -0.5q-9 0 -18 1l-18 2q-8 1 -12.5 4.5t-7 8.5t-2.5 12v15q0 10 1 17.5t4.5 12t10 6
t17.5 1.5q1 1 3 2t4.5 2t4 2.5t1.5 3.5q0 5 -4.5 7t-11 3.5t-12.5 3.5t-9 7q-5 9 -5.5 18.5t-0.5 19.5q0 22 1.5 44t4.5 44zM130 224q0 4 5 8t11.5 7.5t13 5.5t9.5 2q2 0 3.5 -0.5t2.5 -2.5l-0.5 -1.5t-1 -2t-2.5 -2t-3 -2.5q-1 0 -4 -1t-6 -2.5t-6.5 -2.5t-4.5 -2
q-2 0 -4.5 -2.5t-2.5 -5.5q0 -5 4 -7.5t8.5 -5t8.5 -4.5t4 -7t-2.5 -8t-6.5 -4.5t-8.5 -2t-8.5 -0.5t-6.5 -1t-2.5 -2q0 -4 2.5 -4.5t7 -0.5t9 -0.5t8.5 -4t7 -10t3 -18.5v-4q0 -4 -1 -5q0 -3 -3 -5.5t-4 -3.5t-4 -1t-6 -0.5t-5.5 -1t-3.5 -0.5h-2q-2 0 -3 0.5t-2 2.5
l0.5 1.5t1.5 1.5t5 0.5t8 1.5t6.5 2.5t2.5 3.5v1q0 1 -1.5 2l-1.5 1q-1 0 -3 -0.5l-4 -1l-4 -1t-3 -0.5h-2q-2 0 -3.5 1t-1.5 3t3.5 2.5t7.5 1.5l8 2t4 4q0 2 -1 2.5t-3 0.5q-4 0 -7 -0.5t-7 -0.5h-2t-1 2v1q1 1 3.5 1.5t5.5 1.5t5 2t2 4q0 1 -1 1.5t-2.5 1l-3 1l-1.5 0.5
h-17h-12t-12 -2q-1 0 -1.5 -0.5t-0.5 -1.5q2 -3 5.5 -4.5t7 -2.5t7 -2.5t5.5 -4.5q0 -1 -2 -1h-3q-3 0 -5.5 0.5t-4.5 2t-4.5 2.5t-5.5 1l-2 -0.5t-3 -1.5v0v0v-1v0l1.5 -0.5t1.5 -1.5q1 0 4 -1l6 -2t5.5 -2t4.5 -1l2 -2t2 -3q1 -2 -1 -2.5t-3 -0.5q-3 0 -5.5 1t-4.5 2.5
t-4.5 2.5t-5.5 1t-3 -4q0 -3 3.5 -5t7.5 -3.5t8.5 -2.5t6.5 -1v-7q-7 0 -12.5 1t-9.5 4t-6.5 7t-2.5 10q0 8 0.5 13.5t1.5 13.5q2 3 5.5 4t7.5 1.5t7.5 0.5h6.5l1.5 3t0.5 2q0 3 -2.5 5.5t-6 4.5t-6.5 4.5t-4 4.5q-1 1 -2.5 3.5t-3 4.5t-2 4l-0.5 2v34q1 0 4.5 -1.5
t3.5 -4.5v-28q2 -3 4 -6.5t4.5 -6.5t5 -5.5t6.5 -3.5h4.5t7 -0.5t6.5 -1t4 -0.5h2q3 0 5.5 2.5t2.5 5.5t-4 5.5t-8.5 5t-8 6.5t-3.5 12zM80 56q0 1 0.5 2.5t0.5 3.5v2.5v2.5t1 2.5l2 3t2 2.5l1 1h18l1 3q0 1 1 3t2 4.5t1.5 4.5t0.5 3q1 1 2 2.5t3 1.5t2.5 -1.5t0.5 -2.5v-2
q0 -1 -1 -3t-2.5 -4.5t-2 -4.5t-0.5 -3v-1q7 -4 9.5 -11t2.5 -14q-5 0 -7 1.5t-2 4v4t-3 1.5t-5 -3.5t-2 -5.5t1 -3.5t3 -2t3.5 -1.5t2.5 -2v-3t0.5 -4t1 -3.5t0.5 -2.5v-2q0 -2 -1.5 -2.5t-3.5 -0.5h-0.5h-1.5v6q0 2 -0.5 3.5t-2 2.5t-4.5 1q-2 0 -3 -1.5t-1.5 -3.5
t-0.5 -4t-1 -4h-0.5h-0.5h-2t-1 2v12l-2 2q-2 -2 -3.5 -4l-3 -4t-3.5 -3t-5 -1q0 8 4 11.5t8.5 6.5t8.5 6.5t4 10.5q0 3 -1.5 3.5t-3.5 0.5q-3 0 -4.5 -1.5t-3 -3.5t-2 -4t-1.5 -4h-6z" />
</svg>
