<?xml version="1.0" standalone="no"?>
<!DOCTYPE svg PUBLIC "-//W3C//DTD SVG 1.1//EN" "http://www.w3.org/Graphics/SVG/1.1/DTD/svg11.dtd" >
<svg xmlns="http://www.w3.org/2000/svg" xmlns:xlink="http://www.w3.org/1999/xlink" version="1.1" viewBox="-10 0 266 256">
   <path fill="currentColor"
d="M73 200q0 3 1 11t3 16.5t5 15.5t7 7q3 0 4.5 -2t1.5 -4q0 -4 -3 -7t-4 -6q0 -1 -0.5 -3.5t-1 -6t-1 -6.5l-0.5 -3q0 -1 -0.5 -3l-0.5 -2v-2q0 -8 0.5 -14t2 -12t4 -11.5t5.5 -11.5q3 -5 6.5 -9t4.5 -9q0 -6 -0.5 -9.5t-1.5 -6.5t-3 -6t-6 -8v-2q0 -1 0.5 -1.5l1.5 -1.5
h7.5t6.5 -0.5t6 -2t5 -5.5q1 -1 2 -2.5l2 -3t1.5 -2.5l0.5 -1v-32q0 -4 -4 -6.5t-8.5 -4.5t-8.5 -3t-4 -2v-19q0 -2 -2 -2h-3q-3 0 -4.5 3t-2 6.5t0 7.5t0.5 6q0 1 -2.5 1.5t-5.5 1t-6.5 1t-6.5 2t-5 5t-2 8.5v3v5.5t0.5 8t0.5 8v5.5q1 5 3.5 7t6.5 3t7 1.5t4 2.5
q-1 5 -6 12t-11 14t-12.5 12.5t-10.5 6.5q1 3 3 3h4q5 0 10.5 -5t10.5 -11t9 -11t5 -5q2 0 3.5 2t3.5 4.5t3 5t1 3.5q0 5 -2 8t-4.5 6t-5 6.5t-4.5 6.5q-3 4 -5 8.5t-3.5 10t-2 10.5t-0.5 10zM204 245q0 1 0.5 1.5l0.5 0.5h1q2 0 2.5 -1.5l1 -3t0.5 -3.5v-2q0 -13 -2.5 -25
t-5.5 -24q0 -2 -1 -4.5t-2.5 -6t-2 -6.5t-0.5 -6t1.5 -5t3.5 -4t3.5 -4.5t2.5 -5.5q0 -1 0.5 -3.5t0.5 -5.5t0.5 -5t0.5 -3q0 -9 -5.5 -14t-13 -7t-16 -2.5t-14.5 -0.5h-4t-3.5 0.5t-3 1.5t-1.5 3t2 3.5t3 1.5h32q3 0 6.5 2.5t5.5 4.5q0 1 0.5 4t0.5 4q0 6 -0.5 12t-3.5 11
q-3 -3 -4.5 -6t-3.5 -5q-5 -7 -13 -8.5t-16 -1.5h-3h-4.5t-4 1t-1.5 3v1q0 1 1.5 2.5l1.5 1.5h27q1 0 3 1t3.5 3l3 4t1.5 4t-3 3.5t-7.5 2t-10 1t-10 1t-7.5 2.5t-3 6q10 0 19 -2.5t17 -2.5q4 0 6 3q1 6 2 10t3 8t3 8t2 9v2v3v3v2q0 3 1 8t2.5 9.5t2.5 8.5t2 7zM102 182
q0 5 2 7.5t7 6.5h4h3q3 0 6.5 -0.5t7 -2t5.5 -4.5t2 -7q0 -8 -4 -14.5t-10 -11.5v-2q0 -5 1.5 -9.5t1.5 -8.5v-5.5t-1 -7t-2.5 -6t-3.5 -2.5t-2.5 1.5t-0.5 2.5q0 5 1 10t1 10q0 7 -3 11.5t-6 9.5t-6 10.5t-3 11.5zM112 179q0 -5 2 -10t6 -8q4 2 7 8.5t3 11.5q0 2 -1.5 3
t-3 1.5t-3 0.5h-3.5h-3h-2q-2 -1 -2 -3v-4zM74 83v-3v-2q1 0 3 -0.5t4 -0.5t3.5 -0.5t2.5 -0.5h2h1.5t1.5 2v6q0 4 -1 8t-6 4t-8 -4.5t-3 -8.5zM99 95v-14q0 -2 2 -3l4 -2t4.5 -1.5t3.5 -0.5h2q3 0 3 1q2 1 2 2v3t-0.5 4.5t-1.5 4.5t-2.5 4t-3.5 2h-13zM172 92q0 3 1 3.5
t3 0.5q1 0 2.5 -0.5t1.5 -1.5l3 -42q0 -2 1 -2.5t2 -0.5q4 0 6.5 3t4 7t2 8t0.5 6v3.5v5.5v4.5v3.5q0 2 1 2h2q2 0 3 -1.5t1.5 -3.5t0.5 -4v-3q0 -8 -1.5 -14.5t-4.5 -13.5q-1 -2 -4 -4l-6 -4t-5.5 -3l-2.5 -1v-26q0 -2 -2 -2.5t-3 -0.5h-2.5t-1.5 1v5v6v6v4q-1 4 -3.5 6
t-6 4t-7.5 5t-5 8q-1 0 -1 2.5t-0.5 5.5t-1.5 5.5t-1 3.5l-0.5 1l-1 2l-1 2l-0.5 1v2v3v3.5t2 2.5q4 0 6 -3t3 -8t1.5 -11t1.5 -10.5t3 -8t7 -3.5q2 0 3 1.5t2 3.5v3v5v5v3v5v5.5v4.5v2q0 1 -0.5 2t-0.5 2.5t-0.5 2.5zM74 62q0 -7 5 -11t12 -4h2q1 5 1.5 8.5t0.5 7.5v3t-2 2
h-7q-4 0 -8 -0.5t-4 -5.5zM102 61q0 -3 0.5 -5.5t1.5 -5t3.5 -3.5t6.5 0q0 1 1.5 2t3 3t2.5 3.5t1 3.5l-0.5 3.5t-1.5 4.5l-0.5 0.5t-1.5 0.5h-12q-3 0 -3.5 -3t-0.5 -4z" />
</svg>
