<?xml version="1.0" standalone="no"?>
<!DOCTYPE svg PUBLIC "-//W3C//DTD SVG 1.1//EN" "http://www.w3.org/Graphics/SVG/1.1/DTD/svg11.dtd" >
<svg xmlns="http://www.w3.org/2000/svg" xmlns:xlink="http://www.w3.org/1999/xlink" version="1.1" viewBox="-10 0 266 256">
   <path fill="currentColor"
d="M70 128q0 8 2 16t7 14q3 5 10.5 8t15 4t13.5 1.5t6 1.5v23l-1 2t-2 3q-7 9 -14 17t-16 16q-2 2 -5 3.5t-5 3t-3.5 4t-1.5 6.5h7q1 -1 2.5 -2t3.5 -2.5t3.5 -3t2.5 -1.5t3 -1.5t2 -2.5q2 -2 6 -7l8 -10t8.5 -9t8.5 -4q6 0 12 6t12 12.5t12 12.5t13 6h3h2q2 -2 2 -5
q0 -1 -5.5 -5.5t-12 -9.5t-12 -9.5t-7.5 -5.5q-2 -3 -5.5 -6.5t-5.5 -6t-3 -3.5v-18q0 -2 2 -3t3 -1q4 -2 7.5 -2.5l7 -1t7.5 -0.5t8 -1q9 -1 14 -7.5t8 -15t3.5 -18t0.5 -15.5q0 -13 -5 -19t-13.5 -8.5t-19 -2.5t-20.5 -1q1 -6 5 -9.5t10 -4.5t12.5 -1.5t10.5 -0.5
q3 -3 5 -4.5t3 -3.5t1.5 -4t0.5 -5q0 -6 -2 -10t-8 -7q-4 0 -7.5 -1t-6 -1.5t-5.5 -0.5h-6q-7 0 -14 1t-14 1h-2.5h-1.5q-1 0 -3.5 -0.5l-5 -1l-5 -1t-3.5 -0.5q-3 -1 -5 -2.5t-4 -3.5t-3.5 -4.5t-4.5 -3.5l-1.5 -0.5l-1.5 -0.5q-3 0 -3.5 1.5t-0.5 3.5q0 7 5 10.5t11 6
t11 5t5 5.5q0 4 -5 7.5t-11.5 6.5t-13 5.5t-9.5 4.5q-5 3 -8.5 8.5t-6.5 10.5q-1 2 -1.5 2.5l-1.5 1.5t-1.5 2t0.5 4q0 2 1.5 2.5t2.5 0.5q2 0 5.5 -4t7 -9t8 -9.5t7.5 -6.5q1 -1 3.5 -2t6 -2.5t6.5 -3l3 -1.5q1 -1 3 -2l4 -2t3.5 -2.5l2.5 -2.5q1 -2 1 -4t0.5 -4t1 -3
t3.5 -2q8 -1 14 -1h15h2h5h5h3q3 1 6.5 3t3.5 7v0q-2 6 -6 7.5t-9 2t-10 0.5t-10 2t-8.5 7.5t-4.5 16.5q-11 0 -21 2t-20 5q-8 2 -11.5 5.5t-5 8t-1.5 10.5v13zM52 219q0 1 1.5 3t3.5 2q1 0 4.5 -3t8 -7t9.5 -9l9.5 -9.5t7.5 -8l3 -3.5q0 -2 -2 -2.5t-3 -0.5q-2 0 -5.5 2
t-8 6t-9.5 8.5t-9 9t-7 7.5t-3 5zM155 184q0 1 3 3.5t7.5 6t10 7t10 7t8 5.5t4.5 2l1.5 -0.5t2.5 -0.5q1 -1 1 -2.5v-2.5q0 -3 -2.5 -5t-5.5 -4.5t-6.5 -4t-5.5 -2.5q-1 -1 -4 -2.5t-6.5 -3t-6.5 -3t-4 -2.5h-3h-2t-2 2zM98 161q-1 -1 -1 -1.5v-1.5q0 -3 4.5 -6t10.5 -5
t12 -3t9 -1q9 0 19 3t16 11q-2 3 -6.5 4.5t-10 2t-10.5 0.5h-9q-9 0 -17 -1t-17 -2zM81 132v-5l2 -1l4 -2t9.5 -4t11.5 -5t10 -4q4 -2 5.5 -2h6.5q6 0 11.5 1t10.5 2.5t10 4t11 4.5l1.5 0.5t3.5 1t3.5 1.5l1.5 1q2 0 2 2v3q0 7 -1 11.5t-7 8.5q-1 0 -3 -1t-5 -2t-5 -2.5
t-3 -1.5q-3 -1 -6.5 -2.5t-8 -3t-8 -3t-3.5 -3.5q-1 -1 -1 -3v-4t-1 -3t-3 -1h-1q-1 0 -2.5 0.5l-1.5 0.5v14l-1.5 0.5t-2.5 1.5q-3 1 -8 3.5t-9.5 4.5t-8.5 4t-6 1q-3 0 -4.5 -2t-2 -5l-1 -6t-0.5 -5zM80 111q0 -3 1 -6t4 -5q8 -3 17 -5t18 -2q1 0 4 0.5t3 2.5v1
q0 1 -2 3.5l-2 2.5q-5 1 -9.5 3t-9.5 4l-10 4t-10 2q-3 0 -3.5 -1t-0.5 -4zM136 96q0 -3 1.5 -4.5t3.5 -2t4.5 0t5.5 0.5h10t11.5 1.5t9.5 4.5t4 10v3t-1 4.5t-2 2.5t-2.5 -0.5l-3 -1t-3 -1.5l-1.5 -1q-1 0 -3.5 -1l-5 -2l-5 -2t-3.5 -1q-2 0 -5.5 -0.5t-6.5 -1.5t-5.5 -3
t-2.5 -5z" />
</svg>
