<?xml version="1.0" standalone="no"?>
<!DOCTYPE svg PUBLIC "-//W3C//DTD SVG 1.1//EN" "http://www.w3.org/Graphics/SVG/1.1/DTD/svg11.dtd" >
<svg xmlns="http://www.w3.org/2000/svg" xmlns:xlink="http://www.w3.org/1999/xlink" version="1.1" viewBox="-10 0 266 256">
   <path fill="currentColor"
d="M44 246q0 2 1 2.5t3 0.5q4 0 9.5 -5t11 -12t9.5 -14.5t6 -10.5h6q0 1 1 3t2 5t2.5 5.5t1.5 3.5q1 2 3 5.5t4 6.5t4.5 5.5t6.5 2.5q1 0 3 -0.5t2 -3.5v-2t-1 -2t-3 -3.5t-4.5 -5.5t-4.5 -5.5l-2 -2.5q-8 -10 -11.5 -20t-3.5 -23v-8q2 -3 5.5 -4t6.5 -2t6.5 -2t5.5 -4
q4 -6 5 -11.5t1 -12.5v-9t-0.5 -8t-1 -8.5t-1.5 -10.5q0 -1 -0.5 -2.5t-0.5 -2.5q-3 -4 -7 -5t-8.5 -2t-7.5 -3t-3 -7t2 -8t5 -5t7 -3t7 -3t5.5 -6t2.5 -11q0 -6 -4 -8.5t-9 -3.5t-10.5 -1h-8.5q-7 -1 -11 -3t-6.5 -4.5t-4 -4.5t-4.5 -2q-2 0 -3.5 1t-1.5 4q0 4 2.5 6.5
t6 4.5t6 4t2.5 6q0 5 -2 7.5t-5 4t-6.5 3t-6.5 4.5t-5 8.5t-2 14.5v4.5t3 1.5q2 0 3.5 -2t2 -4.5t1 -5.5l0.5 -3q1 -5 5 -8t7.5 -4.5t6.5 -3t4 -4.5l3 -15h26v13q0 1 -3 2.5l-6 3t-6.5 2.5t-4.5 1q-4 3 -5 5.5t-1 5v5t-1 4.5t-3 4.5t-8 3.5q-7 2 -11.5 6t-6.5 9t-3 11t-1 12
v8q0 4 0.5 7t1 6.5t2.5 8.5q2 4 7 5.5t9.5 3t8.5 4.5t4 8v2q0 1 -0.5 4.5t-0.5 7t-0.5 6.5t-0.5 5q-1 4 -7 11.5t-12 14.5t-11 12.5t-5 8.5zM140 237l3 3h1q2 0 2.5 -2.5t0.5 -4.5q0 -13 -2.5 -25.5t-3.5 -25.5v-3v-6v-6v-4q0 -2 -0.5 -9t-1.5 -14.5t-2 -14t-1 -9.5v-6
l-1 -45q0 -2 1.5 -4t3.5 -4q2 1 3 6t2 12t1.5 15t1 15.5t1.5 13.5t2 9q0 4 1 13t2.5 19t2.5 18.5t1.5 12.5t1 6.5t4.5 2.5h2t1 -3t-0.5 -7.5t-0.5 -7.5q0 -2 -1 -6t-1.5 -8l-1 -8t-1.5 -6q-1 0 -1.5 -2t0 -3.5l0.5 -1.5q-1 -3 -1 -8.5t-0.5 -10.5t-1 -9.5t-0.5 -5.5
q-2 -15 -5 -29.5t-3 -30.5q0 -3 2 -4.5t5 -3t5 -4.5t2 -8q-5 0 -11 3t-12 8t-10 10.5t-4 10.5v14q0 18 2 34.5t4 34.5q3 23 4 44.5t4 44.5zM184 233q1 1 1.5 2.5t2.5 1.5q3 0 5 -1t2 -4q0 -5 -1 -10.5t-2.5 -12t-2.5 -12.5t-2 -11q-2 -13 -4.5 -26.5t-5 -27.5t-4 -27.5
t-1.5 -27.5v-3t1 -3.5t2 -2.5t3 -1q1 0 2.5 1t2.5 2q0 4 2 15t3.5 23t3.5 23t3 16q2 11 3.5 23t5.5 23q1 1 2 1h3t3 -1t1 -3q0 -6 -1 -11.5t-2.5 -11.5l-3 -12t-2.5 -12q0 -1 -1 -5t-1.5 -8.5t-1 -8.5t-1.5 -5q-2 -14 -5 -27t-3 -27q0 -6 1.5 -9t3 -5t3 -3.5t1.5 -3.5
q0 -1 -1 -3t-3 -2q-1 0 -4 1t-5.5 3t-4.5 4l-3 3l-3 3l-4 4l-3.5 3.5l-1.5 1.5q-1 2 -1.5 5.5l-1 7t-0.5 6.5v6q0 3 0.5 9t1.5 13.5t2 15.5t2 15t2.5 12.5t2.5 7.5q0 13 2.5 25.5t3.5 25.5q0 2 0.5 5t1 7t1 7.5t0.5 5.5zM53 212q0 1 0.5 2.5t1.5 1.5q5 0 7 -3.5t3 -8
t0.5 -9.5t-0.5 -7v-12q-1 -1 -2 -1.5t-2 -0.5q-2 0 -3 5.5t-2.5 12t-2 12.5t-0.5 8zM103 180q0 1 0.5 6t1.5 10.5t3 10t5 4.5h1v0l0.5 -0.5t1.5 -0.5v-6q0 -2 -0.5 -7.5t-1.5 -11.5t-2.5 -10t-4.5 -4q-1 0 -2 1t-1.5 2.5t-0.5 3v2.5zM73 153q0 -6 5 -8.5t11 -2.5q4 0 8 3
t6 6q-3 5 -7.5 6t-8.5 1h-4.5t-4.5 -0.5t-3.5 -1.5t-1.5 -3zM57 131l0.5 -2l0.5 -2q1 -1 4 -3t7 -4l7 -3.5l5 -2.5l2.5 -0.5t3.5 -0.5h1q4 0 8.5 1.5t7.5 4t5 6t2 7.5q0 3 -0.5 6.5t-4.5 3.5t-7 -2t-5 -5t-3.5 -6.5t-2.5 -6.5h-2q-3 0 -3.5 1.5t-0.5 3.5v3t-1 4
q-3 4 -7.5 7.5t-8.5 3.5h-2h-1q-3 -4 -4 -6.5t-1 -7.5zM58 109q0 -5 3.5 -9t8 -6t10 -3t9.5 -1q12 0 16.5 4.5t4.5 17.5q-5 0 -8.5 -1.5t-5.5 -3.5t-4 -5l-4 -6q0 -1 -1 -1.5t-2 -0.5q-2 1 -2.5 3l-1 4t-2 4.5t-5.5 4.5l-1.5 0.5t-3 1.5t-2.5 1.5t-2 0.5q0 1 -2 1.5l-2 0.5
q-2 0 -2.5 -3t-0.5 -4z" />
</svg>
