<?xml version="1.0" standalone="no"?>
<!DOCTYPE svg PUBLIC "-//W3C//DTD SVG 1.1//EN" "http://www.w3.org/Graphics/SVG/1.1/DTD/svg11.dtd" >
<svg xmlns="http://www.w3.org/2000/svg" xmlns:xlink="http://www.w3.org/1999/xlink" version="1.1" viewBox="-10 0 266 256">
   <path fill="currentColor"
d="M151 247q0 3 1.5 3.5t3.5 0.5h1h2q7 -7 14 -15.5t12 -18t8.5 -19.5t3.5 -20q0 -6 -2 -10t-5.5 -7t-7.5 -5.5t-7.5 -5.5t-5.5 -7.5t-2 -11.5q0 -5 1 -10.5t2 -10.5l2 -10t1 -10q0 -3 -5 -3q-2 0 -3.5 4t-2 9l-1 10t-0.5 6v2v4v4v4v3v4v4v3l1 2.5t2.5 4.5t2.5 4.5t1 3.5
q0 3 -2 6t-4 5l-25 47l1 1l2 2h1q2 0 5.5 -4t6.5 -10l6.5 -13t6.5 -13.5t5.5 -10.5t3.5 -4q6 0 10 5t4 10q0 7 -3 15.5t-8 16.5t-10.5 15t-10.5 13l-1 1l-2 2l-2 2l-1 1v1zM52 239q0 2 1.5 3t3.5 1q5 0 8 -3q0 -1 2.5 -4t5.5 -6.5t5.5 -7t3.5 -4.5q0 -1 0.5 -3.5t2 -4.5
t2.5 -3.5t3 -1.5q4 0 6 5.5t4 12t5 12t7 5.5q1 0 4.5 -2t3.5 -4q0 -1 -1.5 -2t-2.5 -2t-3 -4t-4.5 -6.5t-4 -6.5t-2.5 -4q-4 -7 -5 -15.5t-1 -16.5v-2v-4v-4v-3q1 -1 2.5 -2t3.5 -1.5t3.5 -0.5t2.5 -1q7 -2 10.5 -9t4.5 -14.5t0.5 -16t-0.5 -13.5q0 -15 -7 -21.5t-22 -8.5
v-2.5v-1.5q0 -6 4 -8.5t9.5 -4.5t9.5 -5t4 -9q0 -4 -3 -6.5t-6.5 -4.5t-7.5 -3t-7 -2t-5.5 -4t-5 -5.5l-5 -5t-3.5 -2.5q-3 0 -4 1t-1 4t2 5.5t4.5 5t4 4.5t1.5 3q-1 4 -3.5 6t-6 3.5t-7.5 3.5t-7.5 6t-5.5 10t-2 17q3 0 4.5 -0.5t2 -1.5t1.5 -2.5t2 -3.5q3 -8 6 -12t7 -7
t8 -6.5t10 -8.5q0 -1 1 -1h1q2 0 4 0.5t4.5 1.5t4 2t1.5 3q0 4 -3 6t-7 4t-7.5 3.5t-4.5 4.5q0 2 -0.5 4l-1 4t-1 3.5t-2.5 2.5q-2 2 -4 2t-4 0.5t-4 1.5t-3 3q-4 3 -5 7.5t-3 9.5v40q0 6 2 9.5t5 5.5t7 3.5t7 3t5 3t2 5.5q0 6 -0.5 13t-2.5 12q-1 3 -3.5 7t-6.5 8.5l-8 9
t-7.5 8.5t-5.5 6.5t-2 3.5zM58 206q1 3 5 3q3 0 5.5 -3t3.5 -7t1.5 -8.5t0.5 -6.5v-2.5t-0.5 -3.5t-1.5 -3.5t-3 -1.5l-1.5 0.5t-1.5 1.5q0 5 -0.5 9t-1.5 7.5t-2.5 7t-3.5 7.5zM108 186q0 2 0.5 5l1 6t2 5t4.5 2t3.5 -1t0.5 -3t-0.5 -6t-1 -8.5t-2 -8.5t-3.5 -4t-3 1.5
t-1.5 3.5t-0.5 5v3zM77 151q0 -2 1.5 -3.5t4 -3t5 -2t4.5 -0.5q5 0 8.5 2t7.5 5h1q0 3 -2.5 4t-6 1.5t-6.5 0.5h-4h-5h-5q0 -1 -1.5 -2l-1.5 -1v-1zM131 142v0q0 1 2 2t2 2q4 -5 6 -8.5t3.5 -7.5t2 -8t3.5 -9q0 -3 0.5 -8.5t0.5 -12.5t1 -15t1 -14.5t0.5 -12.5t0.5 -8v-3
q0 -3 -1 -5.5t-4 -2.5h-2.5t-1.5 2q0 12 0.5 26.5t-0.5 28.5t-4 27.5t-10 25.5v1zM89 122q-1 0 -2 3t-2.5 6.5t-4 6.5t-7.5 3q-2 0 -3 -1.5t-1 -3.5v-4.5v-3.5v-3.5v-3.5q1 -2 4 -4t6.5 -4t6.5 -3.5t5 -1.5q3 0 6.5 1.5t7 4t6 4.5t4.5 4v3v3v4.5t-0.5 4.5t-2 3.5t-4.5 1.5
h-1q-1 -1 -3.5 -4t-5.5 -6.5t-5.5 -6.5t-3.5 -3zM197 139q0 1 1 2t2 1h1q4 0 4 -3q0 -8 -1.5 -15.5t-3.5 -15t-3.5 -15t-1.5 -14.5q0 -12 1 -23t1 -23v-5q-1 -2 -2.5 -2h-2.5q-2 0 -3 1t-2 3t-1 3.5v3.5v4.5v8.5v7v5q0 20 2 39t9 38zM90 94q-2 0 -2.5 1t-1 2.5t-1 2.5
t-2.5 2q-1 0 -2.5 1t-3.5 2l-4 2t-3 1t-1 -1v-2q0 -12 6 -16t18 -4q4 0 8 0.5t7 2t5 5t2 8.5q0 3 -1 6t-4 3t-5.5 -2.5t-5 -5.5t-4.5 -5.5t-5 -2.5z" />
</svg>
