<?xml version="1.0" standalone="no"?>
<!DOCTYPE svg PUBLIC "-//W3C//DTD SVG 1.1//EN" "http://www.w3.org/Graphics/SVG/1.1/DTD/svg11.dtd" >
<svg xmlns="http://www.w3.org/2000/svg" xmlns:xlink="http://www.w3.org/1999/xlink" version="1.1" viewBox="-10 0 266 256">
   <path fill="currentColor"
d="M167 218q3 0 5.5 2t4.5 5l4 6t3 4q2 2 3.5 5t3.5 5l4 4t4 2q7 0 7 -6v-3t-2 -2l-23 -23q-2 -2 -2 -4v-4v-2t1 -2l5 -5t6.5 -7t6 -8t2.5 -8h-5l-3 3l-5 5q-1 2 -2.5 4.5t-3.5 5t-4.5 4t-5.5 1.5v-2.5t-0.5 -3.5t-0.5 -4v-2t0.5 -2.5l1 -3l1 -3t0.5 -2.5q2 -4 5 -8
t5.5 -7.5t4.5 -7.5t2 -8q0 -6 -2 -9.5t-5.5 -5t-7.5 -2.5t-7.5 -2t-6 -2t-2.5 -4q0 -6 2 -13.5t3 -13.5q1 -2 3 -3t4.5 -1.5t5 -0.5h5.5q4 0 5 5.5t2 12.5t2.5 12.5t6.5 5.5h1.5t1.5 -2v-2.5v-2.5q0 -9 -2 -17.5t-2 -17.5v-4.5t0.5 -8t0.5 -8.5v-5v-10q-5 0 -7 3.5t-2.5 9
t-0.5 10.5t-1 9q-3 2 -7.5 2.5t-8.5 0.5h-3h-2l-2 -2v-8v-10t-0.5 -10t-0.5 -9q0 -1 -0.5 -4t-1.5 -5t-2.5 -4t-4.5 -2t-3.5 1t-0.5 4q0 12 2.5 23t2.5 23v1l-0.5 1.5t-1.5 1.5q0 1 -0.5 2l-0.5 1h-24q0 5 2 6.5t6 1.5t7.5 -1.5t7.5 -1.5q2 0 3 2.5t1 4.5q0 14 -4.5 25.5
t-9.5 24.5l-17 20v0.5v1.5t0.5 2.5t1.5 1.5q5 0 9.5 -6t9 -13.5t8 -14t5.5 -6.5q3 0 6.5 0.5t7.5 1.5t6.5 3t2.5 6q0 2 -2.5 7t-5.5 10.5t-6 10.5t-4 8.5t-1.5 6.5t-0.5 6t0.5 6.5t-0.5 7.5q0 5 -4 8t-7 6l-3 3t-3.5 4t-2.5 3.5l-1 1.5v5q4 0 7.5 -3.5t6.5 -7t6.5 -7
t6.5 -3.5zM86 185q0 8 -2.5 13.5t-6.5 10.5t-8 9.5t-7.5 8.5t-6 8.5t-2.5 9.5q7 0 12.5 -5.5t10 -12t8 -12.5t7.5 -6h2q1 1 2 3t2 4.5l2 5t2 3.5l2.5 5t3.5 5.5t4 4.5t5 2q2 0 4.5 -1.5t2.5 -3.5q0 -3 -2 -6t-5 -5.5t-5.5 -5t-4.5 -5.5q-6 -6 -9.5 -15t-3.5 -18v-2.5v-2.5
q4 -2 7 -2.5t6.5 -1.5t6.5 -2t7 -3q4 -12 5.5 -23.5t1.5 -23.5v-15q-1 -5 -6 -7.5t-10.5 -4t-9.5 -2.5t-5 -3q2 -8 6.5 -12t9 -7t8.5 -6.5t4 -10.5q0 -4 -0.5 -6.5t-3.5 -4.5q-1 0 -3.5 -1t-5.5 -2t-5.5 -2t-3.5 -1l-1.5 -0.5t-3 -0.5t-2.5 -0.5t-2 -0.5q-4 -2 -7 -6t-5 -7
t-3.5 -6t-4.5 -3t-4 1.5t-1 4.5q0 5 2.5 8t5 5.5t5 5.5t2.5 7t-4.5 8t-9.5 9t-9 11t-4 14q0 2 0.5 3t2.5 1q3 0 5 -2q3 -8 7 -13t8 -9.5l8 -9t6 -11.5h5h5t5.5 1t4.5 3t2 5q0 2 -4 5t-8.5 6.5t-8.5 8t-5 9.5v3.5v2.5q0 1 -2 2t-3 2q-1 0 -2 0.5l-1 0.5q-10 3 -15 5.5t-7 6.5
t-2.5 10t-0.5 16q0 11 0.5 18t3 11.5t8.5 8t16 5.5l1.5 6t0.5 4zM107 189q0 2 0.5 6t1.5 8t2.5 7t3.5 2q3 0 4 -3.5t1 -5.5t-1 -4.5t-2 -4.5t-1.5 -4.5t-0.5 -4.5q-2 -2 -2.5 -2h-2.5q-3 0 -3 2v4zM58 204v3.5t2 2.5q3 0 5 -2t3.5 -4.5t1.5 -5.5v-5v-3q0 -3 -0.5 -4.5
t-1.5 -2.5t-3 -1h-1q-1 0 -2 1t-1 2q-2 6 -2.5 10t-0.5 9zM73 161q0 -2 2.5 -4t6.5 -3t7.5 -1.5t5.5 -0.5t4 1t4.5 2t4 3t1.5 4q0 3 -2.5 4t-5.5 1.5t-6.5 0.5h-5.5h-5t-5.5 -1t-4 -2.5t-1.5 -3.5zM92 132q-2 1 -3 4t-2.5 6.5t-4.5 6t-10 2.5q-5 0 -5.5 -3t-0.5 -8
q0 -2 3 -5t7.5 -5.5t9 -4.5t7.5 -2q1 0 4.5 1.5t8 3.5t7.5 4t3 4v13q0 1 -0.5 1.5l-0.5 0.5q-1 0 -2 0.5l-1 0.5q-6 0 -9 -3t-4.5 -6.5t-3 -6.5t-3.5 -4zM83 101q1 0 2.5 0.5t1.5 2.5v2v3v4q0 3 -1 4q-4 3 -9 6t-10 3v-15l1 -1t2 -2.5t2.5 -2.5t2.5 -1q1 -2 3.5 -2.5
t4.5 -0.5zM96 107v-2.5v-2.5q1 -2 1.5 -2h1.5q10 0 13.5 3.5t3.5 12.5v3v4q0 2 -1 2h-2q-3 0 -6 -2t-5.5 -4.5t-4 -5.5t-1.5 -6z" />
</svg>
