<?xml version="1.0" standalone="no"?>
<!DOCTYPE svg PUBLIC "-//W3C//DTD SVG 1.1//EN" "http://www.w3.org/Graphics/SVG/1.1/DTD/svg11.dtd" >
<svg xmlns="http://www.w3.org/2000/svg" xmlns:xlink="http://www.w3.org/1999/xlink" version="1.1" viewBox="-10 0 266 256">
   <path fill="currentColor"
d="M53 247q0 2 1 3t3 1q6 0 10 -6t8 -13t7.5 -13.5t6.5 -7.5q3 6 5.5 10.5t5.5 8.5t6 8.5t8 9.5h1h1q5 0 5 -5v-1l-8 -10t-7.5 -10t-6.5 -10t-5 -12q0 -2 -0.5 -6.5t-1 -10t-1 -10.5t-0.5 -7v-3q0 -3 3 -4.5l7 -3.5t8.5 -3.5t6.5 -4.5q3 -3 4 -7t2 -8.5t1 -8.5v-7t-0.5 -7.5
t-0.5 -9t-1 -8.5t-3 -7t-6 -4t-8.5 -1.5t-8 -2t-3.5 -4.5q0 -7 4 -10t9 -5t9 -4.5t4 -8.5q0 -7 -4 -9.5t-9.5 -4t-11 -2t-10.5 -2.5q-3 -1 -4.5 -3.5t-3 -5.5t-3.5 -4.5t-7 -1.5q0 6 2 10t5 6.5t5 4.5t2 6q0 5 -4.5 8.5t-10 7t-10 8.5t-4.5 13q0 2 0.5 3.5t2.5 1.5h2.5
t1.5 -2l1.5 -2.5t3 -5.5t3.5 -5t2 -3q2 -3 4 -5t4 -3t4.5 -2.5t5.5 -4.5q1 -1 1.5 -2.5t0.5 -3t0.5 -3t1.5 -1.5h14q3 0 4 2.5t1 4.5t-1.5 4t-4 3.5t-5 2.5t-3.5 2q-3 2 -4.5 5.5t-2.5 7t-2 6t-3 3.5q-4 2 -7.5 2.5t-7.5 2.5q-9 4 -11.5 12.5t-2.5 16.5q0 4 0.5 9t1 9.5
t1.5 8.5t3 8q3 3 7 5t8 3t6.5 2t2.5 2v40v4t-0.5 2t-1.5 2t-2 4l-1.5 2.5t-3 5.5t-3 5t-1.5 3q-1 1 -4 3.5t-5.5 5t-5 5.5t-2.5 6zM185 243q0 2 1 3t2.5 1h3.5h2q0 -10 -1.5 -19.5t-3 -19.5l-3 -20t-1.5 -20v-8q2 -2 4 -3.5t3.5 -2.5t3 -2.5t1.5 -4.5q1 -1 1.5 -3l1 -4
t0.5 -3.5v-1.5q1 -1 1 -3v-5v-8t-1 -10t-3 -9t-7 -5h-10h-7t-10.5 0.5t-9.5 1.5t-4 3q0 1 1 1l0.5 0.5l0.5 0.5h37q2 0 3 3.5t1.5 7.5t0.5 8v4v5.5t-0.5 7.5t-2 7t-4.5 3h-1.5h-0.5q-1 0 -2.5 -0.5l-1.5 -0.5v-15l-1 -0.5t-1 -1.5l-6 -2t-6 0h-3t-4 0.5l-4 1l-2 0.5
q-2 1 -2 1.5v1.5q0 4 3 4t6.5 -1t6.5 -1t4.5 1.5t2.5 4t1 5.5v4v3.5t-1 3.5q-1 0 -4 0.5t-5.5 0.5t-5.5 0.5t-4 0.5t-4 0.5l-3 0.5v5h3h5.5t5 -0.5t3.5 -0.5l1.5 -0.5t2.5 -0.5h1q3 0 4 1t1.5 3t0.5 4v4q2 17 5 34t4 34zM133 239q0 5 4 5q3 0 4 -2t1 -3v-4v-6.5v-6.5v-4
q0 -11 -1.5 -21.5t-1.5 -20.5q0 -4 1 -7t1 -6q0 -8 -1 -15t-1 -15q0 -12 1 -24.5t4 -25.5q0 -1 0.5 -2l0.5 -1q4 -3 8 -5t7 -5t5 -6t2 -9t-3 -9.5t-9 -5.5q-2 -1 -6 -3.5t-7.5 -5t-6 -4.5t-3.5 -2q-3 0 -4 1.5t-1 3.5v1.5v0.5q2 4 7.5 6.5t11.5 4.5t10 5t4 6q0 5 -2 8
t-5.5 5t-7 4.5t-6.5 5.5q-4 5 -5.5 10.5t-2 12t0 12.5t0.5 11q0 26 1.5 52t1.5 52q0 3 -1 6t-1 6zM67 162l-0.5 0.5l-0.5 0.5q-2 3 -2.5 5.5t-1.5 4.5q0 1 -0.5 4t-1 6.5t-0.5 6.5t-1 4q0 1 -0.5 3.5t-2 5.5t-2 5.5t-1.5 3.5v4v3q4 0 7 -3t5 -8t3 -11t2 -11.5t1 -10.5v-8
q0 -2 -0.5 -3.5t-3.5 -1.5zM107 174q0 3 0.5 10t2 14t3 12t3.5 5h2t1 -1q1 -1 1 -3v-3q0 -3 -1 -10.5t-2.5 -15t-3 -13.5t-2.5 -6h-2t-1 1v3q0 1 -0.5 2.5t-0.5 2.5v2zM73 145q0 -1 2 -3t4.5 -3.5t5.5 -2.5t4 -1q3 0 5.5 0.5t5.5 2t4.5 3t1.5 4.5t-2.5 4t-5.5 1h-6.5h-5.5
t-4 -0.5t-4 -0.5t-3.5 -1t-1.5 -3zM64 130v-4q0 -2 0.5 -3l1 -2t2.5 -3q1 0 3 -1.5t4.5 -3.5t5 -3.5t2.5 -2.5q1 0 3 -0.5l2 -0.5q2 0 6.5 1.5t9 4t8 5t3.5 5.5v4.5v4.5t-1 4t-4 2q-7 0 -10 -4t-5 -8.5t-3 -8.5t-3 -4h-1q0 1 -0.5 1.5l-0.5 0.5q0 3 -2 7.5t-4.5 9t-6 7.5
t-7.5 3q-2 0 -2.5 -1.5t-1 -3.5t0 -3.5t0.5 -2.5zM62 107q0 -7 4.5 -13.5t12.5 -6.5q3 0 5.5 1t2.5 5q0 3 -3 6t-7 6t-7.5 5.5t-4.5 2.5q-3 0 -3 -2v-4zM92 92q0 -5 3.5 -5h6.5h7q3 2 4.5 6.5t1.5 7.5q0 5 -0.5 6.5t-4.5 1.5q-1 0 -2.5 -0.5l-1.5 -0.5q-2 -2 -4.5 -3.5
t-4.5 -3.5t-3.5 -4t-1.5 -5zM198 57q0 7 -4 10t-9 5t-9 3.5t-4 4.5q2 0 7.5 -0.5t11.5 -2.5t10.5 -4t4.5 -5v-16q0 -3 -4 -6.5t-9.5 -6.5t-11 -5t-7.5 -2q0 6 4 8.5t8 4.5t8 4.5t4 7.5z" />
</svg>
