<?xml version="1.0" standalone="no"?>
<!DOCTYPE svg PUBLIC "-//W3C//DTD SVG 1.1//EN" "http://www.w3.org/Graphics/SVG/1.1/DTD/svg11.dtd" >
<svg xmlns="http://www.w3.org/2000/svg" xmlns:xlink="http://www.w3.org/1999/xlink" version="1.1" viewBox="-10 0 266 256">
   <path fill="currentColor"
d="M53 248q0 2 1.5 2.5t3.5 0.5q6 0 10 -4.5t7 -10l6 -11t7 -8.5q4 4 6 8l4 8t4.5 8t6.5 7h1.5h0.5q6 0 6 -5v-2v-1q-5 -6 -9.5 -12t-8.5 -12t-6 -13.5t-2 -15.5q0 -7 2.5 -9.5t6 -3.5t6.5 -2t5 -4q4 -10 5.5 -20.5t1.5 -21.5q0 -9 -1 -14.5t-4 -8.5t-8.5 -4.5t-13.5 -2.5
q-1 0 -1.5 -0.5t-0.5 -1.5v-3v-1q0 -5 2.5 -9t5.5 -6.5t7 -5.5t7 -5.5t5 -6.5t2 -9q0 -10 -3.5 -13t-9 -3t-11.5 0.5t-12 -2.5q-3 -1 -4.5 -4t-3 -5.5t-3.5 -5t-5 -2.5q-5 0 -5 6q0 4 2.5 7l5 6l5 6t2.5 7v1.5v1.5l-29 29v0.5v0.5q0 4 3 4q7 0 13 -6.5t11.5 -14.5t9.5 -14
t7 -6h6.5t6.5 1t5 3t2 6q0 3 -4 6.5t-9.5 6.5t-10 7t-5.5 9l-0.5 2.5l-1 5t-1 4.5t-0.5 3q-1 3 -3.5 4t-5.5 1.5l-6 1t-5 2.5l-3.5 3.5l-2.5 2.5v44q0 6 2.5 9.5t6 5.5t7 3.5t7 2.5t5.5 3t2 5q0 11 -1.5 19.5t-5 15.5t-9.5 14t-14 14v1v1zM126 242q-1 1 0 2l2 2t2.5 1.5
t2.5 0.5q3 0 4.5 -7.5t2.5 -18.5t1 -24t0.5 -25t1 -21t2.5 -12q7 -3 14 -3h15h2h4h3.5h1.5l4 3v31l0.5 2.5t0.5 5.5t0.5 5t0.5 3q1 15 1 30t3 29q1 2 2 2h2q3 0 4.5 -2.5t1.5 -5.5l-0.5 -1.5l-0.5 -1.5q0 -5 -1 -12t-1.5 -14.5t-1.5 -14.5t-2 -12v-47q0 -4 -2.5 -6
t-6.5 -2.5t-8 -0.5h-7h-7t-6.5 0.5t-7 0.5t-8.5 1q-5 2 -7.5 5t-3.5 7t-1 9v9q0 4 1 7.5t1 6.5q0 5 -0.5 9.5t-1.5 9.5t-1.5 10t-1.5 8v4.5t-0.5 7.5t-0.5 7v4l-0.5 1.5t-1 2.5t-1 2.5zM58 219q1 2 2 2.5t2 0.5q3 0 5 -3t2.5 -6.5t0.5 -7.5v-5v-8q-1 -3 -2.5 -4t-3.5 -1
t-3 0.5t-2 2.5q1 15 -1 29zM106 187q0 2 -0.5 7.5t0 11t2 9.5t4.5 4q2 0 2.5 -1t0.5 -3v-3.5v-2.5v-7l-0.5 -2l-0.5 -2q-1 -4 -0.5 -6t0 -3.5t-2 -1.5h-5.5zM150 174v6q0 3 0.5 7.5t1.5 8t2 3.5h20q3 0 4.5 -2t2.5 -5t1 -6v-5v-9t-1.5 -9t-4.5 -6.5t-9 -2.5q-7 0 -10.5 2
t-6.5 8v5.5v4.5zM156 182v-7.5t1 -6.5t3.5 -5t6.5 -2q3 0 5 2.5t2.5 5.5t0 6t-0.5 5v4t-0.5 4.5t-2 3.5t-4.5 1q-4 0 -7.5 -3t-3.5 -8zM70 164q0 -3 2 -4.5t5 -3t6 -2t4 -0.5q4 0 8.5 2t4.5 6q0 3 -1 4t-4 2h-4h-4h-3t-6 -0.5t-5.5 -1.5t-2.5 -2zM62 144q0 -3 2.5 -6t6 -5.5
t7.5 -4t7 -1.5q2 0 5.5 0.5t7.5 1.5t7 3t3 4v13q0 2 -3 2h-3q-6 0 -9.5 -4.5t-3.5 -10.5h-1h-1q-4 0 -5 2.5t-2 5.5t-4 5.5t-10 2.5q-4 0 -4 -2.5v-5.5zM63 121q0 -8 5.5 -13t13.5 -5q0 4 -0.5 9.5t-4.5 8.5q-1 0 -3 1t-4 2.5t-3.5 2l-1.5 0.5l-1 -2l-0.5 -1.5t-0.5 -2.5z
M89 111q0 -3 1 -5t5 -2q7 0 11 5.5t3 12.5q0 1 -1 2.5t-2 2.5h-1q-2 0 -4.5 -2l-5 -4t-4.5 -4.5t-2 -5.5zM144 91q0 3 0.5 6t1.5 6t3 5t5 2h23q1 0 3 -0.5t3.5 -2t3 -2.5t1.5 -3v-18q0 -1 -1.5 -2.5l-3 -3t-3.5 -2.5t-3 -1h-23q-2 0 -4 2t-3.5 4.5t-2 5.5t-0.5 4zM151 91
q0 -3 2 -4.5t5 -2.5t5.5 -1h4.5q7 0 9 2.5t2 9.5q0 1 -1 4t-2 3h-20q-2 0 -2.5 -1.5t-1 -3.5t-1 -3.5t-0.5 -2.5zM117 75q0 2 1 2.5t3 0.5q6 0 11 -3.5t9.5 -7.5t9.5 -8t12 -4t13 3t11 6.5t9 6.5t7 3t4.5 -1.5t1.5 -4.5q0 -1 -2 -3t-5 -4t-5.5 -3.5t-4.5 -1.5l-6 -2t-6.5 -2
t-6.5 -2.5t-5 -4.5v-4.5t-0.5 -7t-0.5 -6.5v-5q-1 -3 -1.5 -3.5t-3.5 -0.5h-3.5t-2.5 3q0 4 1 9t1 10q0 1 -0.5 3.5t-0.5 3.5q-2 3 -9 6t-14 6.5t-12 7t-5 8.5z" />
</svg>
