<?xml version="1.0" standalone="no"?>
<!DOCTYPE svg PUBLIC "-//W3C//DTD SVG 1.1//EN" "http://www.w3.org/Graphics/SVG/1.1/DTD/svg11.dtd" >
<svg xmlns="http://www.w3.org/2000/svg" xmlns:xlink="http://www.w3.org/1999/xlink" version="1.1" viewBox="-10 0 266 256">
   <path fill="currentColor"
d="M55 246q0 3 1.5 3.5t3.5 0.5q6 0 9.5 -5t7 -10.5t6 -10.5t6.5 -5t6.5 4t4 8.5t3.5 8.5t7 4q3 0 4 -0.5t1 -3.5v-1.5v-1.5q-11 -11 -16.5 -23.5t-5.5 -27.5v-11q2 -3 6 -4.5t8 -4t7 -7t3 -13.5v-48q0 -10 -2.5 -12.5t-6.5 -3t-8 -0.5q-5 0 -8 -4q-1 -1 -1 -2v-2
q0 -4 3.5 -8.5t8.5 -8.5t10 -7t7 -3q8 0 12.5 2t7 5t3.5 6t1.5 6t2.5 5t6 2h32q1 0 2 1.5t1.5 3.5t0.5 4.5v3.5q0 2 -0.5 2.5t-2.5 0.5h-17q-8 1 -15.5 1.5t-13.5 3t-10 8t-4 14.5v3.5t2 3.5v70q0 1 0.5 2.5t0.5 2.5v1.5t-0.5 3.5t-0.5 3.5v1.5v3q0 7 7 7v-99q0 -10 5 -14.5
t12 -6.5t15 -2h14h5l5 5v26q0 1 -2 1h-2h-2h-3t-4 -0.5t-3.5 -0.5h-2.5q0 -1 -1 -3l-1 -2q0 -1 0.5 -2.5t0.5 -3.5t0.5 -3.5t0.5 -2.5v-3q0 -2 -0.5 -3.5t-2.5 -1.5t-2.5 1t-0.5 3q-2 5 -2.5 9t-1.5 10q0 2 -2 2.5t-3 0.5h-1q-1 0 -2 -1t-1 -2t0.5 -4t0 -6t-1.5 -5t-4 -3
q-1 2 -1 3.5v3.5v9t1 10q1 3 2.5 3.5t3.5 0.5h4q1 0 3 1v4.5t0.5 6.5t0.5 6v4t0.5 2t1.5 2.5t1.5 2.5l0.5 1v3q0 4 -1.5 7.5t-3.5 6.5t-3.5 6t-2.5 7q-1 0 -1.5 2t-0.5 3q-3 6 -6.5 12t-6.5 12q1 0 2 0.5t2 0.5v0h1l0.5 -0.5t1.5 -0.5q0 -1 1.5 -3.5l3 -5t3 -4t1.5 -2.5
q1 -1 3 -4.5t4 -8t3.5 -8t2.5 -5.5l3 -3q5 4 5 10q0 1 -1.5 5t-3 9t-3 9t-2.5 6q0 1 -1.5 3.5t-3.5 5.5t-3.5 5.5t-2.5 3.5v0.5v0.5q0 3 2 4t4 1q3 1 5.5 -3t5 -9.5t4.5 -13t3.5 -14.5t2 -12.5t0.5 -7.5v-3v-3q-3 -3 -5.5 -6.5t-4.5 -7.5t-3 -8.5t-1 -7.5q0 -5 1 -7.5
t3.5 -3.5t5.5 -1.5t7 -0.5q1 0 2.5 0.5t2.5 0.5q2 24 3 49t0 50q1 1 2.5 2t2.5 1q2 0 3.5 -2.5t1.5 -4.5l-0.5 -2.5t-1 -4.5t-0.5 -4.5v-2.5q-2 -32 -3 -63l-2 -62v-5.5t-0.5 -7.5t-0.5 -7.5v-4.5q-1 -2 -3 -3t-3.5 -1t-3.5 -0.5t-3 -0.5h-5.5h-8.5h-8h-5q-1 1 -3 -0.5
t-3 -2.5v-1v-3q0 -2 1 -5t5 -3h44q1 0 3 -2t2 -4l-0.5 -0.5l-0.5 -0.5q-1 -1 -3 -1.5l-2 -0.5h-1q-13 0 -26 1.5t-26 1.5h-11.5t-11.5 -1q-2 -1 -2.5 -4t-1.5 -6t-3.5 -5.5t-8.5 -2.5h-22q-4 -2 -6.5 -4l-5 -4t-5.5 -3.5t-8 -1.5q0 7 2.5 9.5t5.5 3.5t6.5 2t5.5 6q-3 4 -8 8
t-9.5 8.5t-7.5 10t-3 12.5v2.5v2.5l0.5 1t1.5 0l4 -3q1 -1 3.5 -4t5 -6.5t4.5 -6.5t3 -4q2 -2 4.5 -5.5t6 -7t6.5 -6t7 -2.5h4.5t4.5 1t3.5 2.5t1.5 5.5q0 2 -1.5 3.5t-3.5 3t-4 2t-4 1.5q0 1 -2 3l-4 4l-4 4l-2 2q-1 1 -1.5 3l-0.5 2v1.5t-0.5 3t-1 2.5l-0.5 1q-2 5 -4.5 6
t-6 0.5t-6.5 -1t-5.5 1.5t-4.5 8t-2 18v2v5q0 2 -0.5 5t-0.5 5q0 6 0.5 12t2 11.5t4.5 10t8 9.5q1 1 3 1.5t4.5 1t4.5 1t3 1.5q0 4 0.5 7t0.5 5t0.5 4.5t0.5 6.5q0 7 -4.5 15t-10.5 15t-10.5 12.5t-4.5 6.5zM58 219q0 3 1 3.5t3 0.5q4 0 6 -5t3 -11t1 -11.5v-8.5v-5
q0 -2 -1 -2h-2h-1.5h-1.5q0 11 -2.5 19.5t-5.5 18.5v0.5v0.5zM110 215q1 1 2 1h1q3 0 4.5 -2t0.5 -4l-5 -25q0 -5 -4 -5q-3 0 -3.5 1.5t-0.5 4.5q0 7 1.5 14t3.5 15zM71 156v-2l3 -3l4 -4t5 -4t5 -2l3 2.5t6.5 5t6 5.5t2.5 5v0q-5 4 -10 4.5t-10 0.5q-2 0 -4.5 -0.5l-5 -1
t-4 -2.5t-1.5 -4zM63 137q0 -3 3 -7t7 -8t8.5 -6t7.5 -2t5.5 1t4.5 2.5t4.5 2.5t5.5 2v2.5v2.5v6v5.5t-1.5 4.5t-4.5 2t-5 -3t-3.5 -6.5t-3.5 -6t-4 -2.5t-3.5 2.5t-3.5 6t-4.5 6t-7.5 2.5q-3 0 -4 -2t-1 -5zM63 114v-6q0 -7 1.5 -11t5 -6t8 -2.5t10.5 -0.5h2h4h3h2
q5 3 7.5 7.5t2.5 10.5q0 2 -0.5 5t-3.5 3t-5.5 -2t-4.5 -4.5t-3.5 -6t-1.5 -5.5h-1h-2t-3 3t-4 7t-5.5 7.5t-7.5 3.5h-0.5h-0.5l-1.5 -1.5zM134 27v0v1l0.5 0.5l0.5 0.5h4q2 0 4.5 0.5t5.5 0.5h3h10q3 0 6.5 -0.5t7 -0.5t9.5 -1q1 -1 2.5 -1t3.5 -0.5t3.5 -1t2.5 -2.5l-3 -3
l-2.5 -0.5t-3.5 -0.5q-3 0 -12 0.5t-18.5 1.5t-16.5 2.5t-7 3.5z" />
</svg>
