<?xml version="1.0" standalone="no"?>
<!DOCTYPE svg PUBLIC "-//W3C//DTD SVG 1.1//EN" "http://www.w3.org/Graphics/SVG/1.1/DTD/svg11.dtd" >
<svg xmlns="http://www.w3.org/2000/svg" xmlns:xlink="http://www.w3.org/1999/xlink" version="1.1" viewBox="-10 0 266 256">
   <path fill="currentColor"
d="M127 207v41l1 1l2 2h1q3 0 4.5 -3.5t2 -9t0.5 -12.5v-13v-11t2 -7q3 -3 9 -6l10 -5h1h1h1h1q3 2 4.5 3.5t3.5 3t4 2.5t7 2q2 1 3 6.5t1.5 11.5t0.5 12v8l-0.5 1t-0.5 2t-0.5 2l-0.5 1v2.5v2.5q0 2 0.5 4.5t3.5 2.5t4.5 -2t2 -4.5t0.5 -5.5v-5q0 -9 -1.5 -19t-1.5 -20
q0 -2 2 -4t4 -3.5l4 -3t2 -5.5q0 -8 -4 -14t-11 -8q-1 0 -1.5 1t-0.5 2v1q0 1 1 2.5t1.5 3.5t1.5 3.5t1 2.5t-0.5 4t-0.5 4h-2q-1 -2 -2.5 -5.5t-3.5 -6.5t-5 -5.5t-6 -2.5h-1l-2 2v1q0 1 2 3t3.5 4.5l3 5t1.5 5.5v3.5t-2 1.5h-1l-0.5 -0.5l-0.5 -0.5q-1 -1 -2 -2.5l-2 -3
l-2 -3l-1 -1.5h-0.5h-1.5q-3 0 -6 1t-5.5 2l-5 2t-5.5 1q0 -6 3.5 -9.5l7.5 -7.5v-1v0v-0.5v-0.5q-1 -1 -2 -1.5l-1 -0.5q-3 0 -5.5 2.5t-4.5 5.5t-4.5 6t-5.5 4q-1 -1 -1 -2.5v-3.5q0 -3 0.5 -4.5t2 -3t2 -3.5t0.5 -4q-7 0 -10 5t-3 13q0 2 1 4l2 4t2 4.5t1 4.5
q0 4 -0.5 6.5t-2.5 7.5zM54 243q0 2 0.5 3.5t3.5 1.5q4 -1 9 -6.5t9 -12t7.5 -11.5t6.5 -5q4 0 5.5 5.5t3 11.5t4.5 11.5t10 5.5q0 -6 -2 -12t-5.5 -11.5t-6.5 -11.5t-4 -12q-2 -5 -2 -12v-12v-2v-3v-2v-1l2 -3l14 -7q2 0 3 -3t2 -5.5t2 -5.5t1 -4v-3q0 -3 0.5 -6t0.5 -6v-4
v-15q0 -8 -2 -16q-1 -5 -4 -7t-6.5 -3t-6.5 -2.5t-3 -5.5q0 -6 3.5 -9t8 -5.5t8 -6.5t3.5 -11q0 -6 -3.5 -9t-8 -4t-10 -1t-9.5 -1q-1 -1 -4 -2.5t-5.5 -4t-5 -4t-2.5 -2.5h-3q-2 0 -3.5 0.5t-2.5 2.5q0 2 2.5 4.5t5.5 4.5t6 4.5t3 5.5v1v1q-3 4 -7.5 8.5t-8.5 9.5
t-6.5 10.5t-3.5 10.5q0 1 0.5 2t1.5 1q0 1 0.5 1.5l0.5 0.5h1h1l2 -1.5l2 -1.5q1 -2 3 -5.5l4 -7t3.5 -7t2.5 -4.5l2.5 -2.5l3 -3l3 -3l1.5 -1.5q1 -2 2 -3.5l2 -3t2 -2.5t4 -1h1q1 0 3 1t3.5 1.5t2.5 1.5l1 1v8l-2.5 2.5l-3.5 3.5l-4 4l-3 3q-2 3 -2.5 4.5t-0.5 2.5v2.5
t-2 5.5q0 2 -3.5 3t-7.5 2t-8 4t-7 8q-1 11 -1 19v19v3v6v5.5v3.5q2 6 5.5 9.5t7.5 5.5t6.5 3l2.5 1v3v4v5v2q0 18 -7 33.5t-21 27.5q-1 0 -1 1v1zM67 174q0 2 -1 6.5t-2 9.5t-2 9t-1 6q0 1 -0.5 4.5t-0.5 4.5q5 0 8 -4t4 -9.5t1.5 -11t0.5 -8.5v-2v-2.5t-1 -2.5t-2 -1h-2.5
t-1.5 1zM106 170v40q0 2 2 2.5t3 0.5h2t1 -1v-10q0 -3 0.5 -8.5t0 -10.5t-2 -9t-6.5 -4zM74 149q0 -2 1.5 -4.5t4 -4.5t5.5 -3.5t5 -1.5t4 1t3.5 3t2.5 4t1 4q0 6 -4 8t-10 2q-2 0 -4 -0.5t-4 -1.5t-3.5 -2.5t-1.5 -3.5zM133 116q0 12 4.5 22t15.5 17v0q9 0 17 -1.5
t14.5 -4.5t10 -9t3.5 -16q0 -2 -0.5 -5t-1 -7t-1 -7.5t-0.5 -5.5q-1 -2 -4.5 -3t-6.5 -1.5t-5.5 -1.5t-2.5 -5t0.5 -6t2 -3t4.5 -1.5t7 -0.5v-3q0 -4 -1.5 -4.5t-4.5 -0.5h-11t-10.5 0.5l-11 1t-11.5 -0.5q0 1 -1 2t-1 2v0q0 3 2.5 3.5t6 0.5t6 1t2.5 5q0 7 -3.5 9t-7.5 4
t-7.5 5.5t-3.5 13.5zM151 143q2 -3 3.5 -4.5t5.5 -1.5q3 0 7 1t4 5t-4 5t-8 1q-2 0 -4.5 -1.5t-3.5 -4.5zM160 129q-3 0 -4.5 1t-3 2.5l-3 3t-4.5 1.5v0q-1 -1 -1.5 -3.5l-0.5 -2.5v-2q0 -1 2 -4t5 -6l6 -6t3 -5q2 -4 2 -7t5 -3h1h2q0 6 1 10t3 7.5t4.5 6.5t7.5 7v4
q0 3 -0.5 4.5t-4.5 1.5q-3 0 -5.5 -1.5t-4.5 -3.5t-4.5 -3.5t-5.5 -1.5zM88 121q-2 0 -4 2t-3.5 5t-4 5.5t-6.5 2.5v-3v-4.5t0.5 -4.5t0.5 -3t0.5 -2t0.5 -2l18 -14l18 18v2v3v5.5t-2 5.5q-1 0 -2 -1t-2.5 -2l-3 -2t-2.5 -1q-1 -1 -2 -3t-1.5 -3.5t-1.5 -2.5t-3 -1zM143 112
q0 -3 1.5 -7t5.5 -4q3 0 3 4q0 3 -2.5 6.5t-5.5 5.5q-2 0 -2 -2v-3zM179 105v-2.5t2 -1.5t3.5 2.5t2.5 4.5v1v0q0 1 -1 4.5t-3 3.5q-2 -1 -3 -5t-1 -7zM93 89q0 -2 1 -3t3 -1q3 0 5 1.5t3 4l2 5t1 5.5q0 1 -0.5 4t-2.5 3q-1 0 -3.5 -2.5t-4.5 -5.5t-3 -6.5t-1 -4.5zM82 85
q3 0 3 2v4q0 3 -1.5 6t-4 5t-5.5 3.5t-5 1.5q0 -2 1 -6t2.5 -7.5t4 -6t5.5 -2.5zM163 85v-3.5t1 -3.5q3 1 3.5 3.5t0.5 4.5q0 1 -0.5 3t-2.5 2t-2 -2.5v-3.5zM178 40q0 3 2 7.5t5 8.5t6.5 7t7.5 3q2 0 4 -1.5t2 -3.5q0 -4 -3 -6.5t-6 -4.5t-5.5 -4t-2.5 -6t2 -6.5l4 -5l4 -5
t2 -5.5t-1.5 -4t-3.5 -1q-3 0 -5.5 4t-5 8.5t-4.5 9t-2 5.5zM129 61q0 2 1 2.5t3 0.5h2q2 -2 5.5 -4.5t7 -5.5t6 -6.5t2.5 -6.5q0 -4 -1 -8.5t-2.5 -8.5t-4.5 -6.5t-7 -2.5q-2 0 -3 0.5t-1 2.5q0 3 1 5t2.5 4t3 5t1.5 8v2.5v3.5q-1 0 -2.5 1.5t-3.5 3t-3.5 3l-2.5 2.5
q-1 0 -2.5 2t-1.5 3v0z" />
</svg>
