<?xml version="1.0" standalone="no"?>
<!DOCTYPE svg PUBLIC "-//W3C//DTD SVG 1.1//EN" "http://www.w3.org/Graphics/SVG/1.1/DTD/svg11.dtd" >
<svg xmlns="http://www.w3.org/2000/svg" xmlns:xlink="http://www.w3.org/1999/xlink" version="1.1" viewBox="-10 0 266 256">
   <path fill="currentColor"
d="M141 185q5 0 8 5t4.5 12.5t2.5 15.5t2 15.5t2.5 12.5t4.5 5t5 -2t2 -5q-5 -19 -8.5 -37t-10.5 -36q-2 -6 -7 -10.5t-10 -8t-9 -6t-4 -4.5v0q2 -2 5 -2h6q8 0 13.5 0.5t9 2.5t6 6t4.5 12q2 5 5.5 10t5.5 11q1 1 2 4t2 6.5t2 6.5t1 4t1.5 5t3.5 8t4 7.5t3 3.5q3 0 5 -3
t2 -5q0 -4 -1.5 -7t-3 -6.5t-3.5 -6.5t-3 -6q-6 -18 -10.5 -30t-11.5 -19.5t-18.5 -11t-31.5 -5.5q-1 -2 -1 -3.5v-3.5q0 -3 2 -5t5.5 -3t7 -1h6.5q2 0 6 0.5l8 1t8 2t6 3.5t4.5 6l5 8t5 7t4.5 3q3 0 4 -2.5t1 -4.5v-1q0 -1 -1 -2t-1.5 -2.5t-1.5 -3t-1 -2.5l-0.5 -0.5
t-1.5 -0.5q-6 -10 -13 -14t-14.5 -5.5t-16.5 -1t-19 -0.5q-2 -2 -2 -3v-3v-24t3 -23q2 -1 5.5 -1.5t4.5 -0.5h6.5h10.5h9.5h6.5q3 0 3.5 -1t0.5 -2t-0.5 -2t-1.5 -1h-45v-29q0 -2 -2 -2.5t-3 -0.5q-2 0 -3.5 0.5t-2.5 2.5q1 24 -0.5 48t-0.5 48q-1 2 -1.5 5t-0.5 6v6v5v15
q1 1 2.5 3.5t2.5 2.5q0 1 0.5 1.5l0.5 0.5q2 1 6.5 3t9 5t8.5 5.5t4 4.5q0 4 -3.5 5t-8.5 1.5t-11.5 1t-11.5 3t-8.5 7t-3.5 12.5q0 11 1.5 22.5t3.5 22.5q1 1 2 1.5t2 0.5q8 0 8 -8q0 -9 -2 -17.5t-2 -17.5v-9q2 -2 4.5 -4t5.5 -2t4.5 4t2.5 10.5t1.5 14t1 14t2 11t3.5 5.5
q2 0 4 -1.5t2 -3.5v-25q-5 -6 -6 -13.5t-1 -14.5v-2.5v-2.5q2 -1 3.5 -1h3.5zM58 111q0 2 1.5 3.5t3.5 3t4 2.5t4 1q5 0 10.5 -0.5t10 -2.5t7.5 -6t3 -10v-63h-11v28h-25q-2 0 -2 -4.5t-0.5 -9.5t-1.5 -9t-4 -5q-1 0 -3.5 1t-3.5 3v5q0 16 3 32t4 31zM71 105q-2 -6 -3 -10.5
t-1 -10.5v-3v-2l4 -1h20v26q0 1 -1.5 2t-3.5 1.5t-3.5 0.5h-2.5h-5.5t-3.5 -3zM142 92l46 5q2 0 3.5 -2t1.5 -4t-2.5 -3.5t-4.5 -1.5h-8.5h-10.5t-10.5 -0.5t-9.5 -1.5q-2 -1 -2.5 -2.5t-0.5 -2.5q0 -3 2 -6.5t6 -2.5q1 0 5 -0.5t8.5 -0.5t8.5 -0.5t6 -0.5q6 -1 9 -3
t4.5 -5.5t2 -8t0.5 -9.5q0 -7 -0.5 -10.5t-2.5 -6t-5.5 -3.5t-9 -2l-11 -2t-11.5 -1h-1q-1 0 -3.5 0.5t-4.5 0.5h-4h-2q-1 0 -3 0.5t-4 1.5t-3.5 2t-1.5 2q0 2 2 2.5t3 1.5h4h6h5.5h3.5q3 0 7.5 0.5t9 0.5t7.5 0.5l3 0.5l5 4v3v5v2v3v3.5v1.5q0 1 -0.5 3t-1.5 2l-33 3
q-4 1 -7 3t-4.5 5.5t-2.5 7.5t-1 7v3.5v2.5z" />
</svg>
