<?xml version="1.0" standalone="no"?>
<!DOCTYPE svg PUBLIC "-//W3C//DTD SVG 1.1//EN" "http://www.w3.org/Graphics/SVG/1.1/DTD/svg11.dtd" >
<svg xmlns="http://www.w3.org/2000/svg" xmlns:xlink="http://www.w3.org/1999/xlink" version="1.1" viewBox="-10 0 266 256">
   <path fill="currentColor"
d="M83 229q0 1 0.5 5t1.5 7.5t2.5 6.5t4.5 3t4.5 -2t1.5 -4t-1 -4t-1 -5q0 -7 4 -11t11 -4q4 0 5.5 4t2 8.5t1.5 8.5t4 4q1 0 3.5 -2t2.5 -3q0 -5 -2.5 -9.5t-2.5 -9.5q0 -2 0.5 -3.5t3.5 -2.5q1 0 2.5 -0.5t4 -1t4.5 -1t3 -0.5h1q2 0 3.5 2.5t2.5 6.5t1.5 7.5t0.5 4.5
t0.5 3t1.5 4.5t1.5 4.5t0.5 3q1 1 2 1.5t2 0.5t2.5 -1.5t2 -3t1 -3.5t0.5 -3q0 -2 -1 -5t-2.5 -6t-3.5 -5.5t-3 -4.5q0 -1 -1 -4t-2.5 -6.5t-3 -6t-2.5 -3.5q-2 -1 -5 -2t-6 -1.5t-6 -0.5h-4t-3 -0.5t-4.5 -1t-4 -1t-2.5 -0.5t-2 0.5t-2 0.5q-4 0 -5.5 -2.5t-1.5 -6.5
q0 -2 2 -3t4 -1h31l14 4l15 24q0 1 0.5 3l1 4l1 4t1 3t1 2.5t1.5 3t2.5 2.5t2.5 1q3 0 5 -2.5t2 -5.5l-1.5 -3t-3.5 -6.5t-3.5 -7.5t-2.5 -5q-2 -2 -4 -5.5t-4.5 -7t-4 -6l-1.5 -2.5l-6 -5q-1 0 -3.5 -0.5t-5.5 -1t-6.5 -1t-5.5 -0.5t-7.5 0.5t-11 0t-9.5 -2t-4 -6.5v-2v-2
q4 -1 7.5 -1t7 -0.5t6.5 -0.5h8h2q1 0 3 0.5t4 0.5h2q3 1 6.5 1.5t6.5 0.5t6.5 0.5t6.5 1.5q4 1 7.5 8.5t7 15.5t6.5 14.5t5 6.5h1q1 -1 3.5 -3t2.5 -5v-0.5v-0.5l-1 -1.5t-1.5 -3t-1 -2.5t-1.5 -2q-4 -9 -7.5 -16t-9 -12t-12.5 -7.5t-19 -3.5h-5h-9h-8h-5q-2 0 -5 -0.5
t-6 -0.5t-5 -0.5l-2 -0.5l-1 -2v-39l4.5 -0.5t11.5 -1t15 -1t15 -1t11.5 -1.5t4.5 -3t-1.5 -2h-3.5h-5t-6 1h-45v-13q0 -2 -2 -2.5t-4 -0.5h-1v0q-5 16 -5 33v33v6v10v8.5v6.5q0 4 1 8.5t4 7.5q10 2 21.5 4.5t23.5 3.5l1 1v1q0 2 -4 3t-10.5 1.5t-14 1.5t-14 3t-11 5.5
t-4.5 8.5zM127 142h9t13 0.5t13 0.5h8h3h3q3 0 4.5 -0.5t1.5 -2.5q0 -4 -3 -5t-6 -1t-5.5 1t-5.5 1h-8.5t-13 -0.5t-11.5 -2t-5 -5.5q0 -2 1.5 -4t4.5 -3q8 -1 17.5 -0.5t17.5 -1t13 -6t5 -14.5v-4.5t-0.5 -5.5t-2 -5.5t-3.5 -2.5h-11h-11q-2 0 -8.5 0.5t-13.5 0.5t-13 0.5
t-8 0.5v6h60l2 1v3v4q0 6 -1 9.5t-4 4.5t-7 1.5t-10 0.5q-1 0 -5 0.5t-8 0.5t-7 0.5t-5 0.5q-5 2 -7 6t-2 10q0 4 2 7t7 4zM57 34q0 2 0.5 8t1 13.5t3 13t6.5 5.5q6 0 12 -0.5t12 -1.5t11.5 -1.5t12.5 0.5q3 0 4 -3t1 -4h-23q-1 0 -1.5 -1t-0.5 -2v-2v-2v-2q0 -2 2 -2
q7 -1 11.5 -3t6.5 -5.5t3 -8.5t1 -12q0 -3 -1 -6t-5 -3h-1l-3 3v6q0 5 -0.5 9.5t-2.5 8t-5 3.5t-5 -4.5t-2.5 -9.5t0 -10.5t0.5 -7.5l-2.5 -2.5t-2.5 -0.5q-1 0 -2 0.5l-3 1.5v9q0 7 1 14t1 15v5.5t-1 4.5t-2.5 3.5t-5.5 1.5q-5 0 -7 -3t-3 -7.5t-1 -9.5v-9.5t-1 -7.5t-5 -3
h-2t-2 2v7zM144 69q1 1 2 1.5t2 0.5h3q0 -1 1 -4.5t2 -4.5v-1q0 -4 -1 -7t-1 -7q0 -6 4 -8.5t10 -2.5q3 0 5 4t3.5 9.5t4 9.5t6.5 4q3 0 3.5 -1.5t0.5 -3.5q0 -3 -1 -5.5t-2 -4.5t-2 -4.5t-1 -5.5v-4q1 0 3.5 -0.5t5 -1.5t4 -2t1.5 -3v-2t-2 -1h-3h-4h-4h-3l-1.5 0.5t-3.5 1
t-3.5 1t-2.5 0.5l-10 2t-9 3t-6.5 5.5t-2.5 9.5t0.5 10.5t1.5 11.5z" />
</svg>
