<?xml version="1.0" standalone="no"?>
<!DOCTYPE svg PUBLIC "-//W3C//DTD SVG 1.1//EN" "http://www.w3.org/Graphics/SVG/1.1/DTD/svg11.dtd" >
<svg xmlns="http://www.w3.org/2000/svg" xmlns:xlink="http://www.w3.org/1999/xlink" version="1.1" viewBox="-10 0 266 256">
   <path fill="currentColor"
d="M163 194q0 2 0.5 6t1 9t1 9.5t1.5 6.5q0 2 0.5 6.5t1 8.5t2 7.5t3.5 3.5q4 0 4.5 -4t0.5 -7q0 -2 -0.5 -8.5t-2 -15t-4 -17.5t-4.5 -17t-4.5 -14t-5.5 -7h-4.5t-7 -0.5t-6 -2.5t-2.5 -5v-2v-2.5t0.5 -2.5t1.5 -1h25q5 0 9 7t7.5 17.5t6 23t5 22.5t4.5 17t4 7q3 0 5 -2
t2 -5v-1v-1q-2 -5 -4 -10.5t-4 -11.5t-4 -11.5t-2 -10.5q-1 -2 -1 -4.5t-1 -5.5t-1.5 -5t-0.5 -3q-3 -12 -7 -18.5t-10 -9.5t-14 -3.5t-19 0.5q-1 0 -1.5 -2t-0.5 -3v-0.5v-1.5v-0.5v-0.5q0 -1 0.5 -3.5t1.5 -3.5q5 -1 10 -1h11h7t7.5 0.5t7 2t6 3.5t5.5 10.5t6 17.5t6 16
t6 7t3.5 -1.5t0.5 -4.5q0 -9 -4 -16.5t-7 -15.5q-3 -6 -5 -10.5t-4.5 -8t-7 -5t-12.5 -2.5h-7t-10.5 -0.5t-10.5 -0.5h-7q-1 -1 -1.5 -2t-0.5 -2t0.5 -2l0.5 -1q0 -1 0.5 -5.5t1 -10t1 -10t0.5 -5.5v-3v-7.5t0.5 -7t2.5 -3.5h38q4 0 5.5 -2t1.5 -5h-42q-2 0 -2.5 -1
t-0.5 -2.5v-2.5v-3q0 -6 0.5 -12t0.5 -12q0 -4 -3 -4t-4 1t-1.5 3t-0.5 5v4q-2 30 -4 59l-4 58v4t0.5 6t0.5 6t1 4q0 2 1 3t2.5 1.5t3.5 1t4 0.5q1 0 3 1l4 2t4 2.5t2 2.5q0 2 -1 2.5l-3 1.5l-32 8q-4 1 -5.5 5t-2 9t-0.5 10v8v7t1 10t2 9t4 4t4.5 -3t1.5 -6
q0 -7 -0.5 -13.5t-0.5 -13.5v-17q1 -2 3 -3t5 -1h3t3 1q0 3 0.5 11.5t1.5 17t2 15.5t4 7t4 -2.5t1 -5.5v-1v-1q-2 -10 -3.5 -20t-1.5 -20q0 -4 2 -6.5t6 -2.5t6 3t3 7zM60 98h-1.5t-1.5 1v67q0 5 2.5 7.5t6 4.5t8 2.5t7.5 0.5q11 0 19 -6t8 -18q0 -4 -0.5 -6l-1.5 -6
q0 -2 0.5 -7.5t0.5 -11.5t0.5 -11t0.5 -7v-5q0 -3 -1 -4t-3 -1q-3 0 -3.5 2t-0.5 5v7q0 4 -1 7.5t-4 5.5t-9 2h-3.5t-5 -0.5t-4.5 -0.5h-3q-1 -1 -2 -2.5t-1 -2.5t-0.5 -4t-0.5 -6t-0.5 -6t-0.5 -4q-1 -2 -2 -2.5t-3 -0.5zM66 143q0 -1 0.5 -3.5l0.5 -2.5l1 -2l2.5 -0.5
t6 -0.5h7h5.5q1 0 3.5 0.5t4.5 0.5l0.5 1l0.5 1v26q0 2 -1.5 4t-3.5 3t-4.5 1h-4.5q-6 0 -9.5 -2t-5.5 -6t-2.5 -9t-0.5 -11zM162 75v16q0 3 1 4t3 2t4 1h3h2h5h6h4h4h5h5h4q1 -1 1 -2v-2q0 -3 -1 -3.5t-3 -0.5h-4h-2.5t-5.5 0.5t-5.5 0.5h-3.5h-1h-1h-2t-4 -0.5t-4 -0.5h-2
q-2 -1 -2 -2v-3q0 -6 3 -7.5t8 -2.5h4.5t7 -0.5t6.5 -0.5h4q6 -5 8 -12t2 -14q0 -10 -2.5 -14.5t-7.5 -6.5t-11.5 -1.5t-15.5 0.5h-17l-0.5 1t-1.5 1v1q0 1 1 3t3 2h1h2t2.5 -0.5t3 -0.5h2.5v0h1h2.5t3 0.5t2.5 0.5h2t3.5 0.5t5.5 1t6 0.5h4l3 4l0.5 2.5t0.5 3.5t-1 5
t-2 7.5t-2.5 6.5t-3.5 3h-27zM41 85q2 3 3 4t3 1q1 0 3.5 -4t6.5 -10t8.5 -13t8.5 -13.5t7.5 -11.5t5.5 -7h1q2 0 5 4t6.5 10t7 12.5t7 12.5t6.5 9.5t4 3.5q3 0 4 -1.5t1 -3.5q0 -4 -3 -6t-4 -5t-3.5 -8t-6 -11.5l-7 -13t-7 -12t-6 -9t-3.5 -3.5t-3.5 3t-6 7.5t-7.5 10.5
t-7.5 11.5t-6.5 10t-4 6.5q-1 1 -2.5 5t-3.5 8l-4 8t-3 5zM70 80q0 2 1.5 3t3.5 1.5t4 0.5h3t3.5 -1t3.5 -1h3.5h5.5h4.5h3.5q2 0 2 -1.5v-2.5v-2t-2 -2h-35q-1 0 -1 2v3z" />
</svg>
