<?xml version="1.0" standalone="no"?>
<!DOCTYPE svg PUBLIC "-//W3C//DTD SVG 1.1//EN" "http://www.w3.org/Graphics/SVG/1.1/DTD/svg11.dtd" >
<svg xmlns="http://www.w3.org/2000/svg" xmlns:xlink="http://www.w3.org/1999/xlink" version="1.1" viewBox="-10 0 266 256">
   <path fill="currentColor"
d="M83 246q0 2 1.5 3.5t3.5 1.5v0q2 -1 4.5 -3.5l2.5 -2.5l10 -59q-1 -10 0 -21t3 -22.5t3.5 -23t1.5 -20.5v-9.5t-1 -9t-3 -8t-6 -6.5l-0.5 -0.5l-1.5 -1.5q-1 0 -3.5 -0.5t-5 -1.5t-5 -1.5t-3.5 -1.5q-3 0 -6 -1t-6 -2.5t-5.5 -4t-2.5 -5.5q0 -4 3.5 -8t6.5 -7
q10 -2 22 -2t22 1q2 0 2.5 -1.5t0.5 -3.5q0 -1 -0.5 -2.5t-2.5 -1.5h-47q-4 0 -7 2.5t-4.5 5.5t-2.5 6.5t-1 6.5q0 11 3.5 16t9 7.5t12 3t11.5 2t8 5t3 11.5l-2 32q0 2 -4 3t-9 2t-9.5 1h-5.5h-1h-2.5t-2.5 -0.5t-1 -1.5v-17q0 -2 2.5 -3t5.5 -1.5t7 -0.5t7.5 -1t6 -2.5
t2.5 -4.5h-26l-5 -2q0 -2 -0.5 -5t-1.5 -5.5t-3 -4.5t-5 -2q-1 0 -2 1t-1 2.5v2.5v3q0 7 2 14.5t2 15.5q0 15 -1.5 30t-4.5 30q-1 6 -2.5 11.5t-3.5 11.5t-3.5 12t-1.5 11q0 3 0.5 5t3.5 2t5.5 -5.5t4.5 -12.5t3.5 -13.5t1.5 -8.5q1 -2 1.5 -5.5t1.5 -6l1 -2.5l3 -4h22
q1 0 1.5 -0.5l0.5 -0.5q1 -1 1.5 -2t0.5 -2q-1 0 -3 -2t-4 -2h-19l-2 -2v-2v-3q0 -9 1.5 -13.5t5.5 -5.5t10 -1t14 -1h2q3 0 3 2v4v4l-0.5 1.5t-0.5 3.5t-0.5 3t-0.5 2q0 4 -1.5 14t-2.5 21.5t-2 21.5t-2 15q-2 5 -4.5 10.5t-2.5 12.5zM158 187q3 0 5.5 4.5t4 11t3 14.5
t3.5 14.5t3.5 11t4.5 4.5q1 0 2 -0.5l3 -1.5v-3.5v-3.5q0 -2 -1.5 -8l-3.5 -14t-5 -16.5t-6 -16t-6 -13t-6 -7.5q-2 -1 -6 -2t-7.5 -1.5t-6 -2.5t-2.5 -6q0 -3 0.5 -4t4.5 -3h1.5h3.5h3h2h3h4.5t4.5 0.5t3 1.5q3 2 6 7.5t6.5 12.5t6.5 15.5t6 16t4.5 13.5t1.5 10q1 1 2 1.5
t3 0.5q1 0 2 -0.5t1 -1.5v-4v-4q0 -8 -3 -17t-7 -17.5t-9 -16.5t-8 -14q-4 -6 -9 -8t-10.5 -3t-11 -0.5t-11.5 0.5v-18h37q3 0 6 4t6.5 9.5t7 12.5t7 13t6 10t4.5 4t4.5 -1.5t2.5 -3.5q0 -4 -3.5 -10t-8.5 -13t-9.5 -13t-6.5 -9q-1 -1 -2 -2.5t-2.5 -3t-3 -2.5t-2 -1.5
t-3.5 -1t-5 -0.5t-6 -0.5t-9 -0.5t-9 0.5t-6 0.5l-2 -3v-45q0 -1 1 -3.5t2 -2.5t4 -0.5l6 -1t6 -0.5h4h1h1q4 0 8.5 1t9.5 1q2 0 4.5 -0.5t2.5 -3.5q0 -2 -2 -3q-10 -2 -21 -2h-21l-3 -1v-1.5t-0.5 -3t-0.5 -3.5v-3v-4v-6v-5.5v-4.5t-1.5 -2.5t-2.5 -0.5q-6 0 -6 6v3t2 3
l-2 32t-2 32.5t-2 32.5t-1 32q0 3 0.5 4.5t4.5 3.5q1 0 4 1t6.5 2t6.5 2t4 1q5 2 5 7q0 2 -0.5 2.5t-2.5 1.5t-4.5 1.5t-5.5 1.5t-6 1.5t-4 0.5q-6 2 -9 4.5t-4 6t-1.5 8t-1.5 10.5v1.5t-0.5 3t-0.5 3v2.5t-0.5 4t-0.5 7v7v5q3 0 5.5 -1t4.5 -3q0 -10 1 -22t4 -22
q1 -4 1.5 -5t3.5 -1h2.5t2.5 2q3 10 3.5 21t-0.5 22l0.5 2t0.5 3h0.5h0.5q2 0 4 -1.5t2 -3.5v-4.5v-4.5q0 -8 -1 -16.5t-1 -16.5q0 -4 1.5 -6t5.5 -2zM151 91q3 4 9.5 6.5t14.5 3.5t15.5 2t10.5 1h2q3 0 4 -1.5t1 -3.5q0 -5 -3.5 -5t-7.5 -1h-6t-9 -0.5t-9 -1t-6 -0.5
q-4 -1 -6 -2.5t-2 -4.5t2.5 -6t5.5 -3h30l3 -2q0 -1 1 -2.5t2 -3.5l2 -4t1 -4v-3v-4q0 -4 -0.5 -8t-2 -8t-4.5 -7t-8 -3q-2 0 -3.5 1t-3.5 1q-6 0 -11.5 -1t-11.5 -1q-3 0 -5.5 1t-2.5 4v2t2 1q1 0 6 0.5t10 0.5t9.5 0.5t6.5 0.5l3 0.5l3 0.5q1 0 1.5 0.5t0.5 1.5v25l-4 4
q-5 0 -12 -0.5t-13.5 1t-10.5 5.5t-4 11v6z" />
</svg>
