<?xml version="1.0" standalone="no"?>
<!DOCTYPE svg PUBLIC "-//W3C//DTD SVG 1.1//EN" "http://www.w3.org/Graphics/SVG/1.1/DTD/svg11.dtd" >
<svg xmlns="http://www.w3.org/2000/svg" xmlns:xlink="http://www.w3.org/1999/xlink" version="1.1" viewBox="-10 0 266 256">
   <path fill="currentColor"
d="M134 178q0 4 3 5t7 1t8.5 -0.5t6.5 1.5q1 2 2.5 7.5t3 12.5t3.5 15t4.5 14.5t6 10.5t7.5 4t5.5 -1t1.5 -5t-1.5 -6t-2.5 -5q-3 -5 -5.5 -10.5t-5 -12t-4 -12.5t-1.5 -12v-2t1 -2q4 -1 9 -1.5t9.5 -2.5t7 -5.5t2.5 -8.5q0 -1 0.5 -6.5t0 -11t-2 -10t-4.5 -4.5q-4 0 -5.5 3
t-1.5 7h-18q-1 0 -2 -2.5l-1 -2.5l-0.5 -1.5t-0.5 -2.5t-0.5 -2.5l-0.5 -1.5l-1 -1.5t-2.5 -3t-2.5 -3t-1 -2.5l-0.5 -2.5t-0.5 -3.5v-4q0 -3 1 -5t2 -3t4 -1q4 0 5.5 1.5t2 4t0.5 5.5q0 4 1.5 6.5t6 5t12.5 3.5h8h8q2 -1 2 -2.5v-2.5q0 -3 -3.5 -4.5t-8 -2.5t-9.5 -1.5
t-8 -2.5v-2.5v-1.5q0 -4 1.5 -5.5t3.5 -2t4.5 -1.5t4.5 -3t3.5 -6.5t1.5 -12.5q0 -3 -1 -5.5t-4 -2.5h-16h-15h-3.5t-5.5 0.5t-5 2t-2 3.5v2t2 1h28q1 0 3 0.5t4 1.5t3 2.5t1 3.5q0 3 -2.5 4.5t-5.5 2t-6.5 0.5h-5.5h-7q-2 0 -5 -0.5t-6.5 -0.5t-7.5 -1q-2 -3 -2.5 -8
t-0.5 -10v-4.5t2 -5.5q2 -1 7 -1.5t10.5 -1t10 -1t6.5 -0.5q7 0 11 -0.5t6.5 -2t3.5 -5.5t1 -11v-4t-1 -4.5t-2.5 -4t-3.5 -1.5h-49q-2 0 -2.5 -2.5t-1.5 -5l-2 -5t-3 -2.5q-3 0 -4 2t-1 5q0 1 0.5 4.5t1.5 6.5t3 5.5t4 2.5h50q0 3 0.5 6t-1.5 5q-8 2 -15 2h-13.5t-11.5 1
t-9 4t-6 9t-2 16l0.5 1t0.5 2.5t0.5 2t0.5 1.5v1v2q1 3 3.5 5t5 3t4.5 1.5t2 1.5v14q0 1 -3 2.5t-6.5 3.5l-7 4t-4.5 3q-1 0 -1.5 -1l-0.5 -1q-1 -1 -2.5 -4t-3 -6.5t-3 -6.5t-2.5 -4q-2 -4 -6.5 -5.5t-10 -2t-10.5 0t-9 0.5q-1 0 -3 -0.5t-4 -0.5t-4 -0.5t-3 -0.5l-3 -3
t-2 -4v-1l0.5 -1.5t0.5 -3t0.5 -3t0.5 -2.5v-4.5t0.5 -7.5t0.5 -8v-5h35q2 0 3.5 -1.5t1.5 -3.5q0 -1 -0.5 -2t-1.5 -1t-4.5 -0.5t-7 -0.5t-6.5 -0.5t-4 -0.5h-3q-3 0 -5 1t-5 1q0 -2 0.5 -5.5t0 -7.5t-2 -6.5t-4.5 -2.5q-2 0 -3.5 1.5t-2 3.5t-0.5 4v3q-2 22 -3.5 43.5
t-1.5 43.5v17q1 4 4.5 6.5t7.5 4t8 2t8 1.5t6.5 2.5t2.5 4.5q0 2 -2.5 3.5t-6.5 2.5t-8.5 1.5t-8.5 2t-6.5 4t-2.5 7.5v58q0 2 1.5 3t2.5 1q3 0 5 -4q-1 -13 0 -27t3 -27q0 -2 1 -2.5t2 -0.5q2 0 3 2t1.5 5.5t1 6.5t1.5 5v1v1l-1 2.5t-1 3.5v1q0 3 0.5 8.5t1.5 11t3 10.5
t4 5t4 -2.5t2 -5.5q0 -12 -3 -25t-3 -26q0 -2 0.5 -3.5l1 -3t1 -2.5t2.5 -1h2t2 1q4 15 4.5 31t-0.5 31q0 1 0.5 3.5t0.5 3.5h2h1q5 0 7 -2.5t2 -7.5q0 -10 -2 -21t-4.5 -21.5t-4.5 -21.5t-2 -22q-2 -4 -7 -5.5t-10.5 -2.5t-9.5 -2.5t-4 -6.5q0 -2 2 -3t4.5 -1.5t5.5 -0.5h4
l2.5 0.5t5 1.5t4.5 1.5t3 1.5t2 3.5t2.5 5.5l3 6t2.5 4l1 2t2 2q5 15 8 30.5t9 30.5l1 1t2 1q4 0 5 -3.5t1 -6.5q0 -8 -2 -15t-6 -15q-1 -1 -1.5 -2.5t-1.5 -2.5q0 -1 -0.5 -3t-1.5 -5t-1.5 -5.5l-0.5 -2.5q-1 -3 -4 -9t-7 -12.5t-8.5 -11.5t-7.5 -5l-27 -3l-0.5 -1l-0.5 -1
q-1 -1 -1.5 -2l-0.5 -1q0 -1 1 -3.5t2 -3.5h12h6q3 0 7 0.5t7.5 0.5t5.5 1q3 1 6 6t5.5 11t4.5 12.5t4 12t3.5 9.5t3.5 4q4 0 9 -3t12 -3t9.5 2t2.5 9q0 2 -0.5 4t-3.5 3h-4.5t-7 0.5t-6.5 2t-3 4.5zM170 153h19l1.5 3l1.5 3v0v1q-1 1 -2 3.5l-1 2.5q-1 0 -3 0.5t-4 0.5
t-3.5 0.5t-2.5 0.5h-1h-1l-2 -1t-2 -2v-12zM126 130v0q5 -1 10.5 -3t10.5 -2q2 0 3 1t1.5 2.5t0.5 3.5v3v6q0 1 -3 2t-6 2.5t-6.5 2t-4.5 1.5q-1 -1 -1.5 -3.5t-2 -5.5t-2 -6t-0.5 -4zM67 76q0 6 5.5 8.5t12.5 3t13.5 0t10.5 -0.5t6 -2t2 -7h-38q-2 0 -2 -2v-3q0 -4 3 -4.5
t7.5 -0.5t10.5 -0.5t10.5 -3t7.5 -7.5t3 -16q0 -3 -1 -5.5t-3 -4.5t-4.5 -3.5t-5.5 -1.5h-34q-2 0 -2 1.5v1.5q0 3 3 4.5t7.5 1.5h9.5t9.5 0.5t7.5 3t3 7.5q0 4 -2.5 7.5t-5.5 4.5q-2 0 -5.5 0.5t-7.5 0.5t-7.5 0.5t-4.5 0.5t-1.5 -0.5t-0.5 0.5q-2 1 -3 3t-2 4.5t-1.5 5
t-0.5 3.5z" />
</svg>
