<?xml version="1.0" standalone="no"?>
<!DOCTYPE svg PUBLIC "-//W3C//DTD SVG 1.1//EN" "http://www.w3.org/Graphics/SVG/1.1/DTD/svg11.dtd" >
<svg xmlns="http://www.w3.org/2000/svg" xmlns:xlink="http://www.w3.org/1999/xlink" version="1.1" viewBox="-10 0 266 256">
   <path fill="currentColor"
d="M133 248l1 1l2 2h1q3 0 4 -2.5t1 -5.5v-5v-5.5t-0.5 -10t-0.5 -10.5v-6v-1v-1l1 -1t2 -1h57q1 0 2 -1t2 -1l3 -3v-1v-1l-2 -1h-8q-5 0 -9.5 0.5t-9.5 0.5q-2 0 -4.5 -1.5t-2.5 -2.5v-19l1 -2q6 0 12 -0.5t12 -2.5l0.5 -1t0.5 -2t-1 -2.5t-2 -1.5q-4 0 -8.5 0.5t-8 -0.5
t-6 -3.5t-2.5 -7.5v-2t0.5 -4.5t1.5 -2.5h23l0.5 -1l1.5 -3v0v-1v0q-6 -2 -12 -2h-12l-1 -1v-21q1 0 3 -0.5t3 -0.5q2 1 4 2.5t4 3.5t4 3t5 1q2 0 3 -1.5t1 -3.5v-1l-1 -1q-5 -6 -11.5 -9.5t-14.5 -5.5v-9q7 -1 13.5 -3.5t12.5 -6.5q1 0 2 -2.5t1 -3.5h1q0 -3 -5 -6
t-10.5 -6t-10 -6t-4.5 -5v-26q0 -2 -2.5 -4t-3.5 -2t-2 0.5l-1 0.5q-1 1 -2 1.5l-1 0.5v24l-1 1.5t-2.5 3.5t-2.5 3.5t-2 2.5q-6 7 -12.5 12t-11.5 13v1q0 4 3 4.5t6.5 1t6.5 2t3 5.5v1v0q0 1 -1 1.5t-2 1.5l-2 2t-1 2q-1 0 -2 1.5t-2 3.5t-1.5 3.5t-1.5 1.5q-1 20 -1 42v42
v10v15v15v11zM98 241q0 5 0.5 6.5t4.5 1.5q6 0 6 -7v-2l-9 -45q-3 -2 -4 -6.5t-1.5 -10t-1.5 -10.5t-4 -8q-2 -3 -6 -4l-8 -2t-6.5 -2.5t-2.5 -5.5q0 -5 2.5 -5.5t5.5 -0.5q8 0 14 4t10.5 9.5t8 12.5t6.5 14l0.5 0.5l0.5 0.5h1q1 0 2 -1t1.5 -2.5t1 -2.5l0.5 -1v-0.5v-0.5
q0 -3 -3.5 -9t-8.5 -12t-10 -11.5t-8 -5.5l-2 -0.5t-5 -1t-5 -1t-3 -0.5l-1.5 -0.5t-3 -1.5t-2.5 -1.5t-1 -1.5v-1q0 -1 0.5 -3t1 -4.5t1.5 -4.5t3 -2h6t6 0.5t6 1.5t4 2q2 2 5 6.5t6.5 10t6.5 9.5t5 4q4 0 4 -4t-2.5 -9t-6.5 -10t-8 -8.5t-8 -5.5t-8 -2.5t-8 -2t-6.5 -3.5
t-2.5 -8v-10t0.5 -10t0.5 -10.5v-12.5q1 -3 6.5 -3h11.5t11 -1t5 -5h-34l-3 -28l-1 -0.5l-2 -1t-4 -0.5h-4v9v10t0.5 10t2.5 8v50l-0.5 1t-0.5 2v3v4v4v3t-0.5 5t-1.5 8.5t-1.5 9t-1.5 6.5q0 1 -0.5 2.5t-0.5 2.5v1q0 6 4.5 8t10 3t10 2.5t4.5 6.5q0 4 -4 6t-10.5 4t-12 3.5
t-7.5 5.5v2v3v3v2v11.5t1 15t2.5 13.5t5.5 6q2 0 4.5 -3t2.5 -5q0 -10 -2.5 -19t-2.5 -18v-3v-3q1 -2 2.5 -3t3.5 -1t3 3t2 8t1.5 11l1 12t1 10.5t1.5 6.5q0 1 0.5 1.5l0.5 0.5h0.5h0.5h0.5h0.5l2 -2t2 -3v-6q0 -9 -2 -18.5t-4 -18.5v-1v-3.5t1 -4.5t2 -3.5t3 -1.5
q1 0 2 0.5t2 1.5l1 1zM144 194l-2 -2v-1.5t-0.5 -4t-0.5 -4.5v-4l-0.5 -1l-0.5 -1q0 -2 0.5 -3l1.5 -3h3t4.5 -0.5t4 -0.5h2.5h1q3 0 5 1t2 4v3v3.5t-0.5 5.5t-0.5 5.5v3.5zM141 160q-1 -1 -1 -4v-3v-4q0 -3 1 -3q0 -1 0.5 -3l0.5 -2h21v19l-2 0.5l-4 1t-4.5 1t-4.5 0.5
q-1 0 -3.5 -1.5t-3.5 -1.5zM142 127q0 -5 1 -8.5t2.5 -6.5t4 -6t5.5 -7l1 -1h2q4 0 5 3t1 6q0 6 -0.5 11.5t-0.5 11.5q-1 3 -2.5 3h-3.5h-4q-2 0 -4.5 -0.5t-4.5 -1.5t-2 -4zM81 84q1 2 4 3.5t7 3t7.5 2.5t5.5 2q1 1 3.5 2t4.5 2.5t4.5 2.5t3.5 1q2 0 3 -2t1 -3
q0 -5 -5.5 -7.5t-12.5 -3.5t-12.5 -3t-5.5 -7t3.5 -8t8.5 -4t10 -1h9q4 -2 6 -5t3 -7t1 -8v-8v-2.5v-3.5q-5 -6 -10 -7t-12 -1q-9 0 -15 0.5t-15 1.5v1v1v2.5t2 1.5h36v1t1 3t1 4t1 3v1v2q0 3 -1.5 7t-3.5 7q-6 1 -13.5 1.5t-12.5 1.5q-5 3 -6 7.5t-1 9.5v2.5v3.5zM140 78
q0 -1 3.5 -4.5t8 -7t8.5 -6t5 -2.5t4.5 2t7 5t6.5 6t3 4q-1 2 -4 3t-6 1q-2 0 -2.5 -1t-0.5 -2.5t-0.5 -2.5t-2.5 -1q-4 0 -4.5 2t-1 5t-1.5 5t-5 2q-2 0 -5 -0.5t-6 -1.5t-5 -2.5t-2 -3.5z" />
</svg>
