<?xml version="1.0" standalone="no"?>
<!DOCTYPE svg PUBLIC "-//W3C//DTD SVG 1.1//EN" "http://www.w3.org/Graphics/SVG/1.1/DTD/svg11.dtd" >
<svg xmlns="http://www.w3.org/2000/svg" xmlns:xlink="http://www.w3.org/1999/xlink" version="1.1" viewBox="-10 0 266 256">
   <path fill="currentColor"
d="M125 247q1 2 2 3t3 1q3 0 4 -3.5t1 -5.5q0 -14 -2 -27.5t-2 -27.5v-8q1 -3 2 -4.5t4 -1.5h2.5t1.5 2q2 8 3.5 17.5t3 18.5t3.5 18t5 17l5 -2v-2v-3q0 -8 -1.5 -16t-3.5 -16.5t-4.5 -16t-3.5 -13.5q0 -1 -0.5 -1.5t-0.5 -1.5q0 -3 4 -6t7 -3q4 0 7.5 7.5t6.5 17.5t5.5 19
t2.5 13q1 1 1.5 3.5t1 5.5t1 5.5t0.5 3.5t1.5 2.5l1.5 1.5h1q3 0 3.5 -2.5t0.5 -4.5q0 -8 -1.5 -15.5t-4 -14.5t-5.5 -14.5t-5 -13.5q-2 -7 -4 -15.5t-6 -13.5t-8 -7l-8 -4t-6.5 -5t-2.5 -9h23l1.5 0.5t2.5 1.5l2.5 2.5t2.5 1.5q0 1 0.5 3l0.5 2q0 1 0.5 2t1.5 2
q7 12 13.5 24t12.5 25q0 1 1.5 1h2.5q3 0 3.5 -1.5t0.5 -3.5t-1.5 -6t-4 -8.5t-5 -8t-4.5 -5.5q-5 -8 -8 -14t-6 -10.5t-5.5 -7.5t-7 -5t-11 -3t-16.5 -1q-1 -2 -1 -4v-4q0 -4 1.5 -5.5t4 -2.5t5.5 -1h6q9 0 15 3.5t10.5 8.5t7 11t5 11t4.5 8.5t5 3.5t3 -5q0 -1 -1 -3.5
l-2 -5t-2.5 -5t-1.5 -3.5q-4 -11 -9.5 -17.5t-13.5 -9.5t-16.5 -3.5t-19.5 0.5l-0.5 -1l-0.5 -1q-1 -1 -1.5 -4.5l-0.5 -3.5v-66q0 -1 -1 -3t-2 -2l-4 3v4v10t-0.5 12t-0.5 10v1v2q0 3 0.5 9.5t1 14.5t1 17t1 17t0.5 14.5t1 9.5q0 4 3.5 5.5t8 3t8 4t3.5 6.5q0 3 -2.5 4
t-6 2t-8 2t-8 3t-6.5 5.5t-4 10.5v4.5v7.5v7v4v21.5t2 20.5zM52 150q2 7 5.5 10t9.5 5h13h8h8t8 -0.5t9 -1.5q2 0 2 -1v-2q0 -2 -2 -2.5l-4 -1t-4.5 0l-2.5 0.5q-1 -1 -1.5 -2t-0.5 -2v-1q0 -2 1.5 -4l3 -4l3 -4t1.5 -5q0 -4 -2 -6t-4.5 -3.5t-4 -2.5t-1.5 -3v-1
q3 -2 7.5 -4t7.5 -6q-1 -1 -1 -3.5v-5.5t1 -5.5t3 -3.5l-2 -2h-18q-2 0 -2 -2v-3q0 -3 2 -4t4.5 -1.5t5.5 -1t5.5 -3t4.5 -7t2 -13.5q0 -1 -0.5 -5t-0.5 -5q-1 -4 -4 -7h-14h-6.5t-8.5 0.5t-7.5 2.5t-3.5 6v3q0 1 0.5 4.5t0.5 7t0.5 7t0.5 4.5q1 2 3 3t4 2.5t4 2.5t2 3
q0 1 -0.5 4t-1.5 4q-4 1 -7 2t-5 2.5t-3 4t-1 7.5q0 4 1 8t1 9q0 3 -3 5.5t-6 1.5q-1 0 -2 -2t-1.5 -4.5t-0.5 -5v-3.5v-81q0 -3 3.5 -5.5t9 -3.5t10 -1.5t6.5 -0.5h3h4h5h3t4 -0.5t5.5 -1t4.5 -0.5h2l3 -3q0 -1 -1 -2.5t-2 -1.5v0h-2q-3 0 -11 1t-17.5 2t-18 1.5t-11.5 0.5
q-3 2 -5 3.5t-4 3.5q0 7 -0.5 12.5t-0.5 10.5v9v12q0 20 1 39.5t3 39.5zM62 146q0 -4 3.5 -7t6.5 -3q2 0 3.5 1.5t2.5 3t2.5 2.5t4.5 1q0 -4 -1.5 -7.5t-1.5 -7.5q0 -2 0.5 -4t2.5 -2q3 0 5.5 1t5 3t4.5 4.5t2 4.5q0 1 -2 4t-4 6.5t-3.5 6.5t-2.5 4h-4h-5q-3 0 -6 -0.5
t-6 -1.5t-5 -3t-2 -6zM75 107q0 -4 1.5 -6t4.5 -2h2q2 0 2 2v14q0 1 -1.5 1h-2.5q-4 0 -5 -3t-1 -6zM92 102q0 -3 3 -4.5t5 -1.5q3 0 3.5 2t0.5 5q0 5 -2.5 7t-7.5 5q0 -4 -1 -7t-1 -6zM182 83q3 2 7.5 4t7.5 2t3 -3q0 -2 -2 -4t-5 -3.5t-6 -2t-5 -0.5h-5h-9h-8h-6
q0 -1 -0.5 -3l-0.5 -2v-1v-1q0 -1 0.5 -2t1.5 -2.5t2 -2t2 -0.5h21q2 -3 5.5 -3.5t6.5 -1t5.5 -2t2.5 -4.5v-26q0 -2 -2.5 -3.5t-6 -2t-6.5 -0.5h-5h-4h-6t-7.5 0.5t-6 0.5h-2.5l-3 4l3 3q3 0 7.5 -0.5t9.5 0t10.5 1t8.5 1.5q1 0 1.5 0.5l0.5 0.5v8q0 8 -3 11t-8 4t-11 1
t-11 1t-8 5t-3 13v2.5t1 3.5t2 3t2 1h29zM79 65v-1v-2q5 -2 11.5 -3.5t12.5 -1.5q4 0 5 1t1 6q0 6 -4.5 7.5t-10.5 1.5q-2 0 -4.5 -0.5l-5 -1t-4 -2t-1.5 -4.5zM79 49q3 -5 8.5 -6t10.5 -1h6t3 4q0 3 -2.5 4.5t-5 2t-6 0.5h-5.5q-1 0 -3.5 -0.5l-2.5 -0.5zM179 35
q-2 0 -6 0.5t-8 0.5t-8 0.5t-6 0.5t-4 1.5t-2 3.5h35q2 0 2.5 -1t0.5 -2q0 -2 -1 -3t-3 -1z" />
</svg>
