<?xml version="1.0" standalone="no"?>
<!DOCTYPE svg PUBLIC "-//W3C//DTD SVG 1.1//EN" "http://www.w3.org/Graphics/SVG/1.1/DTD/svg11.dtd" >
<svg xmlns="http://www.w3.org/2000/svg" xmlns:xlink="http://www.w3.org/1999/xlink" version="1.1" viewBox="-10 0 266 256">
   <path fill="currentColor"
d="M127 244q0 3 1 5t5 2q3 0 5 -2.5t2 -6.5q0 -11 -2 -22t-2 -22q0 -3 1 -6.5t6 -3.5q1 0 2.5 5t2 11.5t1.5 13t1 9.5q1 1 1 3t0.5 4.5t0.5 5v3.5q1 1 1.5 1h1.5q3 0 4 -2.5t1 -4.5q0 -6 -1 -11.5t-2 -11.5t-2 -11.5t-1 -11.5q0 -3 2 -5t6 -2q3 0 5 4.5t2.5 12t1.5 15.5
t2.5 15.5t4 12t6.5 4.5q0 -18 -4 -38t-9 -38q-2 -8 -7 -11t-10.5 -4t-9 -2.5t-3.5 -5.5q0 -3 2 -4.5t5.5 -2t6.5 -0.5h5h5t4 2q6 8 10 17t7.5 18.5t6.5 19t8 18.5h1h1q3 0 3.5 -1t0.5 -4t-2 -8.5t-4.5 -11l-5 -11t-3.5 -9.5q-1 0 -1.5 -2t-1.5 -4.5t-1.5 -4.5t-0.5 -3
q-1 -1 -2 -3.5t-2.5 -5.5l-3 -6t-2.5 -4l-0.5 -1l-0.5 -1q-4 -1 -7.5 -2t-7 -1.5t-7 -0.5t-8.5 1l-3 -3v-11l1.5 -1t2.5 -1t2.5 -0.5t3.5 -0.5t3.5 -0.5l1.5 -0.5h11h11q4 1 7 5.5t5.5 10.5t4.5 12.5t3.5 12t3.5 9t4 3.5t4 -0.5t2 -3.5t-2.5 -11t-6.5 -16.5t-8 -16t-7 -9.5
q-4 -1 -10 -1.5t-12 -0.5h-11.5h-9.5l-3 -1v-53q6 -1 10.5 -2t8.5 -2t8.5 -1h10.5q2 -1 2 -2.5v-2.5q-9 0 -17.5 1t-16.5 1h-4q-1 -1 -1.5 -3l-1 -4t-0.5 -3.5v-2.5l0.5 -2t0.5 -3v-3q0 -2 -1 -6t-5 -4v0q-1 1 -1.5 2t-0.5 2q1 29 0 58t-1 58v10.5t1 10.5q1 4 5.5 5t9.5 1
t8.5 1.5t3.5 6.5v2v2q-9 4 -16 4.5t-11 1.5t-6.5 5.5t-2.5 16.5v3q0 3 -0.5 6t-0.5 6v5v4q0 3 0.5 6t0.5 6v4zM46 235q1 2 2.5 4t3.5 2t3.5 -1t2 -3l1 -4t0.5 -3v-6.5v-8.5v-9.5v-5.5l1 -4l3.5 -0.5t7.5 -1t8.5 -1t7.5 -0.5h5.5h7.5h7.5h5.5q3 -2 3 -4q0 -1 -0.5 -2.5
t-1.5 -1.5h-19l-1.5 -0.5l-1.5 -0.5l-1.5 -1.5l-0.5 -0.5v-13q0 -2 3.5 -2.5t8 -0.5t8 -1t3.5 -4q0 -1 -0.5 -1.5l-1.5 -1.5q-5 1 -10 1t-9 -2l-1.5 -1.5l-0.5 -0.5v-14l4 -4h2.5t4.5 -0.5t4 -0.5h3q3 -1 4 -1t1 -2q0 -1 -0.5 -2.5t-1.5 -1.5h-21v-14q4 0 7.5 1.5t6 3
t4.5 3.5l2 2q3 0 3.5 -1.5t0.5 -3.5q0 -5 -3.5 -7.5t-7.5 -4t-7.5 -3t-3.5 -5.5v-0.5v-0.5q1 0 3 -0.5l4 -1l4 -1t3 -0.5l1.5 -0.5t3 -1.5t2.5 -2t1 -2q0 -5 -4 -8t-9.5 -5.5t-9.5 -6t-4 -9.5v0v0q0 -2 0.5 -3.5t0.5 -3.5t0.5 -3t0.5 -2l0.5 -0.5l0.5 -0.5q1 0 3 -0.5
t4 -0.5t3.5 -0.5t2.5 -0.5h1q3 0 4.5 3.5t2 8t0.5 8.5v6q0 1 1 1h2q2 0 3 -1.5t1.5 -3.5t0.5 -4v-3v-3.5v-1.5q0 -1 -0.5 -3t-1 -5t-1 -5.5l-0.5 -2.5v-4v-6v-6v-3q-1 -4 -2.5 -6t-5.5 -1q0 5 0.5 9t0 8t-3 6.5t-7.5 2.5h-4.5t-4.5 -2q0 -1 -0.5 -4t-0.5 -6.5t-0.5 -6
t-0.5 -4.5q0 -3 -1 -5.5t-5 -2.5q-2 0 -2.5 1.5t-0.5 5.5v4.5v7.5v7v5l-2 1h-14q-2 0 -3 -3t-2 -6.5t-3 -6.5t-6 -3q-3 0 -3 4q0 8 1.5 15t1.5 15q0 5 -1 10t-1 10v4t3 3q3 -3 5.5 -6.5t3.5 -7.5t1.5 -8t0.5 -8q1 -2 2.5 -2.5t3.5 -1t4 -0.5h3q3 0 4 1.5l2 3t1 3.5v5
q0 1 -0.5 3l-0.5 2l-25 24v0v0v2q1 0 1.5 1.5l0.5 1.5l14 3q1 0 1 2v3l-2 2l-5 5l-6 6l-4 4q-2 4 -3.5 11t-2 17t-1 20.5l-1 21t-0.5 18.5v12v14zM57 176q0 -4 3 -7q6 -1 9.5 -1h7.5q3 0 5 1t2 4v1q0 1 -0.5 3t-0.5 3.5t-0.5 3l-0.5 1.5q0 1 -0.5 1.5l-0.5 0.5h-19
q-1 0 -2 -1.5t-1.5 -3t-1 -3.5t-0.5 -3zM59 153q0 -9 5 -11.5t14 -2.5q3 0 4.5 2t1.5 6v3.5t-0.5 5t-2 4.5t-3.5 1l-15 -1q-3 -1 -3.5 -3t-0.5 -4zM63 131v-6q0 -6 4 -11.5t11 -5.5q2 0 3 2t1.5 5t0.5 5.5v4.5q0 1 -0.5 2.5l-0.5 1.5q-3 3 -7.5 3h-7.5h-2t-2 -1zM162 96h5
t8.5 0.5t8.5 0.5h6h1q4 0 8 -0.5t4 -4.5q0 -2 -1.5 -4t-3.5 -2q-1 0 -3.5 1.5l-2.5 1.5h-26l-0.5 -0.5l-0.5 -0.5l-0.5 -2t-0.5 -3q0 -3 1 -5t4 -3l26 -5q2 0 3.5 -4t2.5 -8t1 -8v-5v0q0 -2 -0.5 -4.5t-1.5 -5.5t-2.5 -4.5t-2.5 -1.5h-35h-2t-2.5 0.5t-2.5 1t-1 2.5t1.5 3
t3.5 1h1q1 0 3.5 -0.5t5.5 -1t5.5 -0.5h3.5h1q7 0 11.5 2t4.5 10t-1.5 12t-5.5 5.5t-9 2t-12 0.5q-2 1 -5 3t-3 5v18l2.5 1.5zM70 89v-3l1 -1l2.5 -2.5l2.5 -2.5l2 -2t2.5 -2l1.5 -1q2 0 5 1.5t6 3.5t5 4t2 5q0 2 -2 3t-4 1q-4 0 -5 -2t-2 -7q-3 -1 -4 1t-1 4t-1 4.5t-3 2.5
q-3 0 -5.5 -2.5t-2.5 -4.5z" />
</svg>
