<?xml version="1.0" standalone="no"?>
<!DOCTYPE svg PUBLIC "-//W3C//DTD SVG 1.1//EN" "http://www.w3.org/Graphics/SVG/1.1/DTD/svg11.dtd" >
<svg xmlns="http://www.w3.org/2000/svg" xmlns:xlink="http://www.w3.org/1999/xlink" version="1.1" viewBox="-10 0 266 256">
   <path fill="currentColor"
d="M188 251l2 2l1 1q3 1 5 -0.5t3 -4t1 -5v-4.5v-19.5t-4 -18.5q1 -15 0 -29t-2.5 -28t-2.5 -28.5t-1 -28.5v-7q7 -4 8 -10t1 -13v-5v-5q-2 -2 -3 -4.5t-5 -2.5q-1 0 -3.5 -0.5t-6 -0.5t-6 -0.5t-3.5 -0.5h-4t-2 -3q0 -1 1 -2.5t3 -2.5t4 -1.5t3 -0.5h1h2t4.5 0.5t4.5 0.5h2
h2h1q3 0 4 -1.5t1 -3.5q0 -1 -0.5 -3t-2.5 -2h-26q-1 0 -1 -2.5t-0.5 -5.5t-2.5 -5t-6 -2l-1.5 0.5l-1.5 0.5l-2 2v30l-2.5 1t-6 2.5t-6.5 2t-4 1.5v1q0 3 2.5 3.5t4.5 0.5q6 0 12 -1t12 -1h5.5t7.5 0.5t7 2t3 4.5t-1 5.5t-5 2.5h-1q-2 0 -5.5 -2t-4.5 -2h-12h-13h-3t-4 1
t-3.5 2t-1.5 3v1.5t1 1.5h32q3 0 5 2t2 5q0 1 -0.5 1.5t-1 0.5t-3 0.5l-2.5 0.5q-2 0 -6.5 0.5t-9.5 1t-9.5 1t-6.5 0.5v6h38q1 0 2 5t2 12t2 15.5t1.5 16.5t1 14t0.5 8v4v7v6v4q0 11 2 20t2 19q0 2 0.5 6.5t0.5 10.5q0 5 -0.5 9.5t-0.5 6.5zM88 226q0 1 0.5 5.5t1.5 9.5
t2.5 8.5t4.5 3.5t4.5 -2t1.5 -5q0 -5 -1.5 -10t-3.5 -10q1 -1 3 -3.5t3 -2.5h1q3 0 5 2t3 6t1.5 8t1.5 7.5t3 5.5t5 2q2 0 4 -1t2 -3q0 -3 -1 -6t-2.5 -6t-2 -6t-0.5 -6q0 -6 3 -7t8 -1h5l8.5 17t5.5 18h1h2q2 0 4 -1.5t2 -3.5v-1q0 -1 -0.5 -3t-1.5 -4t-1.5 -4t-1.5 -3
q0 -1 -2.5 -6t-6 -10.5t-6.5 -10.5t-4 -6q-4 -2 -10 -3t-12 -1.5t-11 -1t-6 -1.5q1 -3 4 -4t6 -1.5t6.5 0t5.5 0.5h2h4h4h2l4 2t4 3q1 1 3.5 4.5t6 7t6 7t3.5 5.5q1 1 2.5 3t3.5 4t4 3.5t3 1.5q2 0 3.5 -1.5t1.5 -3.5v-1q0 -1 -2 -3.5l-4 -5l-4 -5t-3 -3.5l-1.5 -1t-3 -2.5
t-3 -2.5l-1.5 -1q-2 -2 -4 -5t-4.5 -6t-5.5 -5t-6 -2h-4h-6h-7h-4t-4 -0.5t-6.5 -0.5t-6.5 -0.5t-4 -0.5v-1q0 -2 1.5 -3t3.5 -2h5.5t9.5 -0.5t9 -0.5h6h1v0h4.5t4.5 0.5t4 0.5h2q3 1 4.5 3t3.5 5q1 1 3.5 4t5.5 6.5t5.5 7t3.5 4.5h1v0q3 0 4 -2t1 -4t-1 -3t-2 -3
q-4 -4 -7.5 -9t-7.5 -9t-8.5 -6.5t-11.5 -2.5h-8.5h-12.5h-13.5h-8.5q-3 -1 -3 -4v-5q0 -10 2 -20.5t2 -21.5v0l-3 -3q-1 0 -3 1.5t-4 3.5t-3.5 4t-1.5 3v71q0 1 2 3t4.5 3.5t5 2.5t3.5 1q2 0 5.5 0.5t8 0.5t8.5 0.5t5 0.5q4 0 7 1.5t5 4.5q-5 0 -13.5 -0.5t-16.5 1
t-13.5 5.5t-5.5 12zM107 153h39q1 0 3 0.5t4.5 0.5t5 0.5l2.5 0.5h2q2 0 3.5 -1.5t1.5 -3.5q0 -1 -0.5 -1.5l-0.5 -0.5q0 -1 -2 -1t-4 -0.5t-3.5 -0.5h-2.5h-8.5h-13.5h-13.5h-9.5l-0.5 -1.5l-0.5 -1.5l0.5 -0.5t0.5 -1.5q4 -1 8.5 -1h9t8.5 0.5t7 0.5v0q5 -1 10.5 -3
t9.5 -6v-2.5t0.5 -5t0.5 -4.5v-3v-3q0 -4 -3.5 -8t-8.5 -4h-25q0 -5 1 -9t1 -9q0 -2 -0.5 -6l-0.5 -4q0 -9 -0.5 -13.5t-2.5 -7t-6 -4t-12 -2.5l-6 -2v-2.5t-0.5 -3.5t-0.5 -3.5v-2.5v-2q0 -3 0.5 -5.5t0.5 -5.5v-4v-4t-1 -3t-3 -1q-5 0 -5.5 2.5t-0.5 5.5q0 4 0.5 6.5
t0.5 5.5v1v3.5t-0.5 5.5t-0.5 5.5v3.5q-4 2 -7 1.5t-7 -0.5q-4 1 -7 3.5t-5.5 6t-3.5 7.5t-2 7q0 1 -0.5 4.5t-1 7.5l-1 8t-0.5 6v2q0 1 1.5 2.5t3.5 1.5t4 -2t3 -4q0 -4 0.5 -11.5t2 -14t5.5 -11.5t12 -5l1 0.5t2 0.5l0.5 0.5t0.5 1.5v39q0 1 1.5 1h2.5h3t1 -3v-39
l1.5 -0.5t2.5 -0.5q6 0 9 1t4.5 4t2 7.5t1.5 9.5v5q0 7 -1.5 11t-4 6t-4.5 2.5t-4.5 1t-4 1t-1.5 3.5v0l2 2h7.5t12.5 0.5t12.5 0.5h7.5t5.5 1t5.5 3v5q0 6 -2 8t-9 3q-2 0 -6.5 0.5t-10 0.5h-10.5h-7q-5 2 -6.5 5.5t-1.5 7.5t1 6t5 2zM103 121v1l3 3q1 0 3.5 -0.5t6 -0.5
t6 -0.5t3.5 -0.5h11h3t3.5 -0.5t2.5 -0.5h1v-5q-10 0 -20.5 0.5t-21.5 1.5l-1 1v1zM110 62q-2 0 -3 2t-1 4v28q0 1 0.5 1.5l0.5 0.5h1q2 0 3 -1t1.5 -2.5t0.5 -3.5v-3v-1.5v-2.5v-4t-0.5 -6.5t-0.5 -6v-4.5l-0.5 -0.5t-1.5 -0.5zM79 65q-1 1 -1 5t-0.5 8t-1 7.5t-0.5 4.5
t-0.5 3.5t-0.5 3.5q5 0 7.5 -3.5t3 -8.5t0.5 -10v-7t-1 -3.5t-3 -1.5q-1 0 -2 0.5t-1 1.5zM63 44q0 3 1.5 3.5t4.5 0.5h1q2 -1 4 -4.5t3.5 -8t2 -8.5t0.5 -5q0 -2 -1.5 -4t-3.5 -2h-1v1l-1.5 0.5l-1.5 0.5q0 3 -1.5 6.5t-2.5 6.5t-2.5 6.5t-1.5 6.5zM109 16q0 3 1 4.5t2 3.5
q0 3 0.5 6.5t1.5 6.5t3 5t7 2q1 0 2.5 -1.5t1.5 -3.5l-0.5 -1t-0.5 -2q-1 -1 -2.5 -5t-3.5 -8t-3.5 -7.5l-1.5 -3.5l-2 -0.5l-2 -0.5q-3 0 -3 2v3z" />
</svg>
