<?xml version="1.0" standalone="no"?>
<!DOCTYPE svg PUBLIC "-//W3C//DTD SVG 1.1//EN" "http://www.w3.org/Graphics/SVG/1.1/DTD/svg11.dtd" >
<svg xmlns="http://www.w3.org/2000/svg" xmlns:xlink="http://www.w3.org/1999/xlink" version="1.1" viewBox="-10 0 266 256">
   <path fill="currentColor"
d="M134 246q0 3 0.5 4t2.5 1q1 0 2.5 -0.5t3 -1.5t2.5 -2t1 -2v-49h33q2 0 4.5 -2t2.5 -3v-1v0q-1 -1 -2 -2.5l-1 -1.5h-24q0 -5 2.5 -8.5t7.5 -7.5v-1v-1q0 -3 -1 -3.5t-4 -0.5q-4 0 -6 4t-3.5 8.5t-2.5 8t-4 3.5v0q-1 0 -1.5 -0.5t-0.5 -1.5v-25q0 -2 -2.5 -4t-5.5 -2
q-2 0 -3 2.5t-1 4.5q0 4 0.5 8t0.5 9v7q0 1 -0.5 1.5l-0.5 0.5q-1 0 -4.5 -0.5t-4.5 -0.5q0 -1 -0.5 -4.5t-1 -8t-2.5 -8t-6 -3.5l-1 1t-1 2l-0.5 2t-0.5 3q0 4 2 7.5t2 7.5v3t-2 2q-6 1 -12 1.5t-12 1.5v1q0 2 1 3.5t3 1.5h19q1 0 1 1.5v2.5q0 4 -1.5 9t-4 10t-5 9.5
t-4.5 7.5v3q0 1 0.5 2t2.5 1q6 0 10 -5.5t6 -13.5t3 -15.5t1 -11.5q1 -2 3 -2.5t5 -0.5h3.5t1.5 3v16v17v2t-0.5 4.5t-0.5 4.5v2zM59 238q0 3 2 6t5 3t4.5 -2t2.5 -5t1 -5.5v-4.5v-90q3 -10 3 -18t1 -14t6 -10.5t18 -7.5h2q1 0 1.5 0.5t0.5 1.5q0 5 -2 7t-5 3.5t-5.5 3.5
t-2.5 8q0 5 2 8t5 4.5t7.5 1.5h8.5q3 1 3.5 2.5t0.5 3.5q0 3 -2.5 4t-5.5 1.5t-6.5 1.5t-6.5 3t-5 6.5t-2 12.5v4.5v4.5q0 2 1 3t3 1t4 -1.5t2 -2.5v-20q0 -1 1 -2t2 -1.5t2.5 -0.5h2.5q4 0 6.5 2t4.5 5t4.5 5.5t6.5 2.5q0 -9 -5 -15l3.5 -3.5t2.5 -3t1.5 -3.5t1.5 -5
t3.5 -4t5 -1t4.5 -0.5t2 -2.5v-1q0 -1 -1.5 -2l-1.5 -1h-41l-5 -3v-10q0 -1 1 -1.5l1 -0.5h4q5 0 9.5 1.5t9.5 1.5q9 0 15 -1.5t14 -4.5h2q2 0 5.5 0.5t6.5 1.5t5 3t2 5q0 5 -4 8t-9 6t-9 7t-4 11v3q0 3 0.5 5t1.5 4t4 2q1 0 1.5 -1.5t1.5 -3t1.5 -2.5l0.5 -1v-3v-4v-4v-3
q1 -2 2 -2.5t3 -0.5q3 0 6 4t5.5 9t6 9t8.5 4q2 0 4.5 -0.5t2.5 -4.5q0 -2 -1.5 -4t-4 -4t-5 -3.5t-3.5 -3.5l-1.5 -1.5t-3 -3.5t-3 -3.5l-1.5 -1.5v-2q0 -1 1.5 -2.5t4 -3.5t4 -4.5t1.5 -6.5q0 -5 -4 -8t-10 -4.5t-12 -2t-9 -0.5q-2 -1 -2 -2v-3q0 -3 1.5 -3.5t4.5 -0.5
q1 0 4.5 -0.5t6.5 -0.5t6 -0.5t4 -0.5q4 -2 5.5 -6.5t1.5 -8.5q0 -1 -0.5 -3.5t-1 -4.5t-2 -3.5t-3.5 -1.5h-22q-1 0 -1.5 -1t-0.5 -2v-3v-1v-4q1 0 2 -0.5l1 -0.5q1 0 3.5 -0.5t5 -0.5t5 -0.5t3.5 -0.5q6 -3 7.5 -8t1.5 -12q0 -5 -6 -5q-3 0 -4.5 2t-2 5t-1.5 5.5t-3 4.5
q-6 3 -13.5 3.5t-15.5 0.5v-24q0 -2 -3 -2.5t-5 -0.5h-2t-2 1q0 3 0.5 6.5t0.5 7.5t-1 7.5t-3 6.5h-4q-4 0 -7.5 -0.5t-9.5 -1.5q-2 -2 -3 -5t-1.5 -6t-2 -5.5t-4.5 -2.5h-1q-1 0 -2.5 0.5t-2.5 0.5v6q0 9 3 12.5t7 5t7 2t3 5.5q0 2 -1 4t-4 2h-29q-2 0 -2.5 1.5t-0.5 3.5
q0 6 8 6q7 0 13 -1.5t13 -1.5q2 0 2.5 0.5t1.5 2.5q1 0 1 3v2q0 6 -3.5 8t-8 2.5t-9.5 0.5t-9 3q-3 3 -5.5 8t-3 10.5l-1 11t-0.5 9.5v5t-0.5 9t-0.5 10.5t-0.5 10.5t-0.5 9v5v5v8v8v5q0 9 -1.5 18t-1.5 18zM152 206q0 3 2 9.5t5 12.5t6 11t6 5q4 0 6.5 -1.5t2.5 -5.5
q0 -2 -3.5 -7.5t-8 -11t-8.5 -10t-6 -4.5q-1 0 -1.5 0.5t-0.5 1.5v0zM115 94q0 -1 0.5 -3.5t3.5 -2.5h23q0 5 -0.5 7.5t-2.5 4t-4.5 1.5h-7.5t-8.5 -1t-3.5 -6zM112 76q0 -5 2 -7.5t5.5 -3.5t7 -1h7.5h4h4q1 1 1.5 3t0.5 3v2t-0.5 4t-1.5 3.5t-2 1.5h-26q-2 0 -2 -3v-2z
M151 76q0 -5 2.5 -8.5t7.5 -3.5q3 0 5.5 1t2.5 4q0 6 -3.5 8t-8.5 2h-5l-0.5 -1t-0.5 -2zM112 55q0 -2 1 -4t2 -3q4 -1 6.5 -1t4.5 -0.5t4 -0.5h5h3.5h3.5q1 1 1 3v3v2t-1 3h-4t-5.5 0.5t-5.5 0.5h-4h-3h-5t-3 -3z" />
</svg>
