<?xml version="1.0" standalone="no"?>
<!DOCTYPE svg PUBLIC "-//W3C//DTD SVG 1.1//EN" "http://www.w3.org/Graphics/SVG/1.1/DTD/svg11.dtd" >
<svg xmlns="http://www.w3.org/2000/svg" xmlns:xlink="http://www.w3.org/1999/xlink" version="1.1" viewBox="-10 0 266 256">
   <path fill="currentColor"
d="M131 246q0 2 1.5 3t2.5 1q2 0 3.5 -0.5t3.5 -1.5v-11v-12t-2 -12q0 -3 -2 -4.5t-4 -3.5t-4.5 -3.5t-3.5 -2.5q6 -3 9.5 -5.5t5.5 -6t2.5 -8t0.5 -10.5q0 -2 -1.5 -3.5t-4.5 -1.5h-1q-1 1 -2.5 3.5t-2.5 3.5q-2 2 -6 2.5t-8.5 0.5h-8.5h-7h-3.5t-5.5 0.5t-6 0.5h-4
q-1 1 -1 2v2q0 2 1.5 2.5t3.5 0.5q4 0 8 -1t9 -1q4 0 5.5 2t1.5 7q0 1 -0.5 2.5l-0.5 1.5l-28 2l-0.5 1t-1.5 1v1q0 2 3 3t4 1q6 0 11 -2t10 -2q3 0 5 1.5t2 6.5v0q0 1 -1.5 3.5t-1.5 3.5l-0.5 0.5t-1.5 0.5h-16q0 -1 -2.5 -3.5t-3.5 -2.5v0h-1q-1 0 -2 2.5t-2 3.5v1v1
q0 1 0.5 3.5l1 5t0.5 5v3.5q2 2 5.5 5t6.5 3q8 0 13 -2t7.5 -5.5t3.5 -9t2 -11.5q0 -1 0.5 -1.5t1.5 -0.5v0v0q4 0 5.5 2t2 5.5t0.5 6.5v5q0 4 -1 8t-1 8zM157 237q0 1 0.5 2.5t1.5 3.5t2 3t2 1t2 -1t1.5 -2l1 -2l0.5 -1q0 -14 0.5 -28.5t1.5 -27.5q1 -3 2.5 -4t4.5 -1
q4 0 6.5 4.5t2.5 7.5q0 11 -2 20.5t-2 19.5q0 1 0.5 4.5t0.5 4.5q1 3 4 3t4.5 -3l2.5 -5q-1 -7 -0.5 -13.5t1 -12.5t0.5 -12.5v-12.5v-6q-1 -3 -6 -5t-11.5 -4t-12 -3t-8.5 -1h-4t-2 2t2 3l4 2t3.5 3.5t1.5 6.5q0 14 -2.5 27t-2.5 27zM55 238q0 3 2 3.5t5 0.5h3.5t2.5 -3
q1 -20 1.5 -39t0.5 -39q2 -6 1.5 -13.5t-0.5 -14.5q0 -1 0.5 -5.5t1 -9.5t1 -9.5t0.5 -6.5q4 -10 10.5 -12.5t16.5 -2.5h4.5t1.5 4q0 3 -3.5 4.5t-7.5 3t-7.5 4.5t-3.5 9v2v1q1 1 2 2.5t2 2.5t2.5 2l1.5 1h24l1 6l-2.5 2.5l-3.5 3.5l-1.5 0.5t-2.5 0.5t-2.5 0.5l-1.5 0.5
q-1 0 -4 1t-4 1.5t-2 2t-2.5 3t-3 2.5t-1.5 2v2q0 1 0.5 3.5t1.5 4.5l2 4t3 2q3 0 3.5 -1.5t0.5 -2.5q0 -3 -1 -5t-1 -5q0 -4 3.5 -6t6.5 -2q4 0 5 2.5t2 6t3 6t6 2.5q2 0 3 -0.5t1 -2.5q0 -4 -1.5 -7t-1.5 -6q0 -8 2.5 -12t6 -7t6 -4t2.5 -2v-1q0 -1 -0.5 -1.5t-1.5 -0.5
h-42q-1 0 -1.5 -2t-0.5 -3q0 -6 5 -8t10 -2t9.5 2t8.5 2q8 0 14 -2.5t13 -2.5q3 0 7 0.5t8.5 1.5t8 3t3.5 6v1l-0.5 2t-1.5 2q-5 2 -10.5 3.5t-10 3.5t-6.5 6t-2 10v6.5t1 6.5t3 5.5t6 2.5t4 -4q0 -3 -1 -5t-2.5 -4t-2.5 -4t-1 -5q0 -4 2 -7.5t6 -3.5h2t1 2q1 0 2 2.5t2.5 5
t2.5 5l1 2.5q1 1 2.5 3t4 4t4 3.5l2.5 2.5l2 0.5t3 0.5q2 0 3.5 -1.5t1.5 -3.5q0 -4 -3 -7t-7 -5.5t-7 -5.5t-3 -7q0 -2 2 -4t4.5 -3t4.5 -2.5t2 -3.5v-13l-5 -3l-28 -6q-2 0 -2.5 -1t-0.5 -3q0 -4 5.5 -5t12.5 -1t12.5 -1.5t5.5 -7.5q0 -5 -1.5 -10t-6.5 -7h-4t-6.5 -0.5
t-7 -0.5h-4.5l-4 -2t-2 -3q0 -3 3 -4t7 -1.5t9 -1t9 -2t7 -5.5t3 -12v-6q-1 -2 -3 -2h-2q-3 0 -4 2.5t-2 5.5t-3 6.5t-7 5.5q-8 1 -13.5 2t-13.5 1q-3 0 -6 -0.5t-3 -4.5t0.5 -7.5t0.5 -7.5t-1 -6t-6 -2h-2.5t-2.5 2v23q0 2 -1.5 3t-3.5 1.5t-4 0.5h-3q-9 0 -14.5 -2
t-8.5 -4t-4 -5t-2 -5.5t-2 -4t-4 -1.5t-4 1t-1 4q0 4 1.5 8t3.5 7t6.5 4.5t9 2.5t8 1.5t3.5 1.5v11h-30q-4 0 -4.5 0.5t-0.5 2.5v2.5t1 1.5h32q3 0 3 2.5v3.5v3t-1 2q-12 1 -19 2t-11.5 3.5t-7 8.5t-5.5 17q0 3 -0.5 9t-1 13.5t-1 16t-1 16.5t-1 14t-0.5 9v4v7v7v4
q0 6 -1.5 13.5t-1.5 14.5zM94 226q0 -3 2.5 -4t5.5 -1h5.5h3.5q0 5 -1.5 8t-7.5 3q-3 0 -5.5 -1.5t-2.5 -4.5zM120 185q0 -4 2 -5t7 -1q2 0 3 0.5t1 2.5q0 9 -9 9q-3 0 -3.5 -1t-0.5 -5zM118 91q0 -4 2 -4.5l6 -1.5h4h6.5h6.5h4q0 7 -4.5 10t-11.5 3h-3.5t-4.5 -1t-3.5 -2.5
t-1.5 -3.5zM113 72q0 -2 1.5 -3.5t3.5 -1.5h28q2 0 3 1.5t1 2.5q0 2 -1 3.5t-3 2.5q-5 1 -12.5 1.5t-13.5 0.5q-4 0 -5.5 -1.5t-1.5 -5.5zM156 70q0 -3 3.5 -5t5.5 -2t4.5 0.5l5 1t4 2t1.5 3.5t-0.5 4t-3.5 2h-17l-1.5 -2t-1.5 -3v-1zM117 53q0 -2 2.5 -3.5t5.5 -2t6 0
t5 0.5h4.5h4.5q3 2 3 6q0 2 -1.5 3.5t-3.5 1.5h-23q-1 0 -2 -2.5l-1 -2.5v-1z" />
</svg>
