<?xml version="1.0" standalone="no"?>
<!DOCTYPE svg PUBLIC "-//W3C//DTD SVG 1.1//EN" "http://www.w3.org/Graphics/SVG/1.1/DTD/svg11.dtd" >
<svg xmlns="http://www.w3.org/2000/svg" xmlns:xlink="http://www.w3.org/1999/xlink" version="1.1" viewBox="-10 0 266 256">
   <path fill="currentColor"
d="M62 247q1 2 2 2h2q3 0 5 -3t2 -6q0 -23 1.5 -44t2.5 -43q0 -1 0.5 -2.5t0.5 -2.5v0v-1v-2t-0.5 -3.5t-0.5 -3v-2.5v-9q0 -6 0.5 -12t1.5 -12t3.5 -10.5t7 -7.5t10.5 -3q2 0 5.5 1.5t3.5 4.5l-0.5 0.5l-1.5 1.5q-5 2 -9 6t-5 10q-1 5 2.5 7t7.5 3t7.5 2t3.5 4q0 4 -4 5
t-8.5 2t-8 3.5t-3.5 9.5v3.5t0.5 5t2 4t3.5 1.5q3 0 3 -1.5v-3.5q0 -3 -0.5 -5.5t-0.5 -5.5t2 -5t6 -2t5 2t1.5 4l1 4t1.5 2t3 -1t2 -2q-1 -4 0 -8.5t3 -8.5t5 -7t8 -4v-1v-0.5v-0.5q-1 0 -2 -0.5l-1 -0.5h-2.5t-4 0.5t-4 0.5h-2.5h-3.5t-4.5 -0.5t-4.5 -0.5h-3.5
q-2 -1 -2 -2v-3q0 -4 3 -7t7 -3t7.5 0.5t6.5 0.5q4 0 6.5 -0.5t5 -1.5t4.5 -2t5 -1q2 0 6 1t8 3t6.5 4.5t2.5 5.5q-1 4 -5 5t-8 2.5t-8 4t-4 8.5q0 5 2 10t2 10q-4 0 -5.5 -1t-2.5 -1.5l-2 -1t-3 -0.5t-2.5 1l-1 2t-1 2.5t-1.5 2.5q-2 0 -5.5 1.5t-7 3.5t-7 3.5t-5.5 1.5
q-2 1 -5 2t-6.5 2.5t-6 3.5t-2.5 4t1 2.5t2 0.5q5 0 11 -3t13.5 -7t15 -7.5t15.5 -3.5q6 0 12.5 3t12.5 6l12 6t12 3q2 0 2.5 -1t0.5 -2q0 -5 -5.5 -7t-12 -4l-13 -4t-7.5 -6v-1v-3v-2v-1q-1 -4 -2.5 -6.5t-1.5 -6.5q0 -3 0.5 -5t4.5 -3q2 -1 5.5 3t7.5 9.5t9 10t10 4.5
q0 -5 -2.5 -8.5t-5.5 -6.5t-5.5 -7t-2.5 -8q0 -3 2 -6t2 -7v-4.5t-2 -5.5q-1 -1 -5 -2t-8.5 -2t-7.5 -3t-3 -4q0 -3 2.5 -4.5t6.5 -2l8 -1t8 -2t6.5 -4t2.5 -6.5q0 -1 -0.5 -3t-1.5 -4t-2 -3.5t-3 -1.5h-24l-0.5 -0.5t-0.5 -1.5q-1 -1 -1.5 -2l-0.5 -1q0 -3 2.5 -4.5t5.5 -2
t7 -1t7.5 -2t6 -4.5t2.5 -9q0 -1 -0.5 -3l-1 -4t-1.5 -3.5t-3 -1.5q-3 0 -3.5 2t-1 4.5t-1 5.5t-3 5.5t-7.5 4t-14 1.5h-4h-4t-4 -0.5l-3 -0.5v-20q0 -1 -3 -1.5t-4 -0.5l-1.5 0.5t-1.5 1.5v22h-24q-5 0 -7 -2.5t-3.5 -6t-3.5 -6.5t-5 -3q-1 0 -2.5 2t-1.5 4v0q1 1 2 4t1 4
q3 4 5.5 6t5.5 3t6.5 1.5t6.5 2.5q0 1 0.5 2.5l0.5 1.5v3t-2 3h-4t-6 0.5t-5.5 0.5h-3.5q-3 0 -5.5 0.5l-5 1t-3.5 2t-1 4.5q9 0 17 -1t16 -1q4 0 5 3t1 6q0 4 -4 5t-10 2t-11.5 3.5t-8.5 7.5q-2 3 -2.5 7t-0.5 7v8v7q-2 16 -2 32.5t-1 33.5l-0.5 2t-1.5 2q0 2 -0.5 7
t-0.5 10.5t-0.5 10.5t-0.5 7v13v12zM130 216h2t2 1v29q0 2 1.5 2.5t3.5 0.5q3 0 4 -2.5t1 -5.5t-1 -6t-1 -7v-3q0 -3 0.5 -5t2 -3t3.5 -1q7 0 10.5 3.5t6 7.5t4.5 7.5t7 3.5q3 0 4 -0.5t1 -2.5t-2.5 -6t-6 -8.5t-6.5 -7.5t-4 -3t-3.5 -0.5t-5.5 -1t-5.5 -1t-3.5 -0.5
q-2 -1 -2 -2v-3q0 -2 0.5 -3.5t3.5 -2.5q1 0 5.5 -0.5l9 -1t8 -2.5t3.5 -6q0 -5 -2.5 -8.5t-6.5 -5.5t-8.5 -2.5t-9.5 -0.5q-4 0 -10.5 0.5t-13 2t-11 5t-5.5 9.5q0 4 3.5 6.5t8.5 3.5t9.5 1.5t6.5 0.5q1 1 2 4t1 5l-0.5 0.5t-1.5 0.5q-3 2 -7 3t-7 2.5t-6 3.5t-5 6l-2 4
t-2.5 4.5t-2.5 4.5l-1 2v2v2v3.5t2 2.5q4 0 6 -3t3.5 -6.5t2.5 -7.5t3 -6l2 -2l2.5 -2.5t2.5 -3l1 -1.5h2h2zM117 183q0 -3 3.5 -5t7.5 -2.5t8 -0.5h6h5.5t6 1t4.5 2.5t2 4.5q0 4 -3 6t-7 2h-8h-7h-3t-4.5 -0.5t-4.5 -0.5h-3q-2 -1 -2.5 -3t-0.5 -4zM115 86q-1 -1 0.5 -2
t3 -1.5t3 -1.5l1.5 -1h4h6h6h4v1.5t-0.5 3.5t-1 3.5t-2.5 1.5h-19q-1 0 -2.5 -1.5zM112 66q0 -4 3 -6t7 -2h1h4t6.5 0.5t6.5 0.5h4q1 2 1.5 3.5t0.5 3.5q0 4 -2 5.5t-5 2t-6 0t-7 -0.5l-1.5 0.5t-3 0.5t-3 0.5l-1.5 0.5h-1q-2 0 -2.5 -1t-1 -2.5t-0.5 -3v-2.5zM152 64
q0 -4 2 -5t5 -1h4h4.5t4 1.5t1.5 3.5t-2 3.5t-4.5 2l-5 1t-4.5 0.5q-3 0 -4 -2t-1 -4zM113 48q0 -3 2 -4.5t4.5 -2t5.5 -0.5h5h11q3 1 3 2.5v3.5v3t-2 2h-27q-2 0 -2 -2v-2z" />
</svg>
