<?xml version="1.0" standalone="no"?>
<!DOCTYPE svg PUBLIC "-//W3C//DTD SVG 1.1//EN" "http://www.w3.org/Graphics/SVG/1.1/DTD/svg11.dtd" >
<svg xmlns="http://www.w3.org/2000/svg" xmlns:xlink="http://www.w3.org/1999/xlink" version="1.1" viewBox="-10 0 266 256">
   <path fill="currentColor"
d="M171 230q5 0 7 3.5t2.5 7.5t1.5 7.5t5 3.5q2 0 6 -2t4 -5q0 -2 -2.5 -5.5t-5.5 -6.5l-6 -6t-4 -5v0q0 -5 2 -9t2 -8q0 -6 -3.5 -9t-8.5 -4t-10.5 -0.5t-9.5 0.5q-1 0 -3.5 -0.5t-4.5 0l-4 1t-2 2.5q0 1 1.5 2t2.5 1t2 0.5t2 0.5h2h4h3h3h2.5t4.5 0.5t4.5 0.5h3.5q1 1 1 2
v2q0 2 -0.5 4t-2.5 3q-5 -3 -10.5 -4t-10.5 -1h-1h-3t-4.5 0.5t-4 2t-1.5 3.5q0 1 0.5 1.5l0.5 0.5h25q2 0 3.5 1t1.5 3q-1 4 -6 5t-11 1.5t-11 1t-5 2.5t1.5 3t3.5 1.5t4 0.5h3q7 0 13 -1.5t13 -1.5zM58 246q1 1 2 2.5t2 1.5q2 0 4 -2.5t3 -4.5q0 -4 -0.5 -11.5t-0.5 -17.5
v-20v-21q0 -9 0.5 -17t0.5 -12v-6.5t1 -11.5t1.5 -11.5t0.5 -6.5v-2v-2v-3v-2q0 -1 0.5 -3t1 -4.5t1.5 -4.5t1 -3q4 -2 9.5 -4t10.5 -2h1l3 2v4q0 3 -2 4.5l-4 3t-3.5 3.5t-1.5 8v3v2l5 4q1 0 3.5 1t5 1.5l5 1t3.5 1.5q1 0 2 0.5l1 0.5q1 4 -2.5 5.5t-8.5 3.5t-9.5 4.5
t-4.5 8.5q0 5 1.5 9.5t1.5 9.5l-1 1t-2 1.5l-2 1t-1 2.5q0 3 2 3q4 0 7.5 -0.5t6.5 -1t6 -0.5h7h9q2 1 2 3v2q0 2 -1 3.5t-3 2.5l-22 3q-3 0 -4.5 4t-2.5 10.5t-2 13.5t-1.5 14t-0.5 12.5v7.5q15 0 12 -17q1 -2 5.5 -3t8.5 -1t7.5 -1t3.5 -4v-1.5v-0.5q-1 -1 -4.5 -2
t-4.5 -1l-2 0.5l-2 0.5h-3h-3h-3.5h-2.5q0 -1 -1 -3.5t0 -3.5q0 -1 2 -2.5t3 -1.5h21q1 0 1 -1.5v-2.5v-1.5t-1 -1.5h-25q-1 0 -1.5 -1l-0.5 -1q0 -2 0.5 -3.5t2.5 -1.5l27 -4q2 -1 3 -2.5t2 -3.5t1 -4v-3q0 -4 -2 -7.5t-7 -3.5h-27v-2v-3.5t0.5 -3.5l0.5 -2q-1 -1 -2 -3.5
l-1 -2.5v-2q0 -3 2.5 -4.5t5.5 -1.5h2l3 3t5 4.5t5 4.5l3 3t2 1.5t2 0.5q3 0 4 -1l2 -2v-1v-1l-1 -3q-1 0 -3.5 -1t-5 -2.5t-4.5 -3.5t-2 -4q0 -1 2 -3l3 -3v-2v-2.5t0.5 -2.5l0.5 -1q1 -2 4 -2h6t5.5 -0.5t3.5 -3.5l-0.5 -1t-0.5 -2l-0.5 -0.5t-1.5 -0.5h-29
q-2 0 -4.5 -0.5t-5.5 -1t-5 -2.5t-2 -4t1.5 -3t3 -1.5t3 -0.5h2.5q6 0 12 1.5t12 1.5q4 0 7 -0.5t7 -2.5h11q1 0 4.5 -0.5t7 0t6.5 2t3 4.5t-4 5.5t-9 5.5t-9.5 7t-4.5 11q0 2 0.5 5.5t2 5.5t3.5 4t5 2q1 0 2.5 -0.5l1.5 -0.5l2 -3q-3 -3 -6 -7t-3 -9q0 -3 1 -5.5t5 -2.5
q2 0 4 4.5t4.5 9.5t6 9t8.5 4q2 0 3.5 -0.5t1.5 -2.5t-3 -5.5t-7 -7t-7 -7t-3 -6.5q0 -2 3 -4t6 -3.5t5.5 -4.5t2.5 -8v-0.5v-0.5l-3 -3l-3 -3h-3t-4.5 -0.5t-4.5 -0.5h-3q-2 -1 -6 -1q-3 0 -6.5 -0.5t-6 -1.5t-2.5 -4v-3q0 -2 2 -2h4.5t7.5 -0.5t7 -0.5h4t2.5 -1t3 -1.5
t2.5 -1.5t1 -2v-15l-2.5 -1t-4.5 -2q-1 0 -2.5 -0.5l-1.5 -0.5q-1 0 -3.5 -0.5t-5.5 -0.5q-2 0 -4.5 0.5l-2.5 0.5q-2 -1 -3.5 -2t-1.5 -3v-1.5t1 -1.5q8 0 14 -1t10 -4t6.5 -8.5t2.5 -12.5q0 -4 -2.5 -4.5t-4.5 -0.5h-2.5h-2.5q0 1 -0.5 2.5t-1 3.5t-1 3.5t-0.5 2.5t-0.5 3
t-2.5 3q-1 1 -4 1.5t-6.5 1.5t-6.5 2t-5 1h-1h-2q-2 -1 -5.5 -1.5l-3.5 -0.5v-22q0 -3 -3.5 -4.5t-5.5 -1.5q-3 0 -3.5 1.5t-0.5 3.5v3q0 1 0.5 3t0.5 4t0.5 4.5t0.5 3.5l0.5 0.5l0.5 0.5v1q0 2 -2 3t-5 1.5t-5.5 0.5h-3.5h-1q-2 0 -4.5 -0.5t-5.5 -1l-6 -1t-4 -0.5
q-1 -2 -1.5 -5t-1 -5.5t-2 -5t-5.5 -2.5h-1.5t-1.5 2v6v6t2 5q0 1 1.5 2.5t2.5 3t2 2l1 0.5h19q2 0 3.5 3t1.5 4t-0.5 1.5t-1.5 0.5h-31q-2 0 -3 1.5t-1 3.5v0q0 1 1.5 2l1.5 1h32v12q0 1 -1 1.5t-2 0.5h-3.5t-5.5 0.5t-5.5 0.5h-2.5q-7 1 -10 6.5t-5 12t-2.5 13t-0.5 11.5
v85q-1 8 -1.5 14.5t-0.5 14.5v15zM143 180q0 1 0.5 1.5l1.5 1.5h2.5h3.5h4h2h9.5t8.5 -1.5t6 -4.5t2 -8q0 -7 -3.5 -10t-11.5 -3q-6 0 -14 1t-13 4l1 3l21 1l2 -0.5l2 -0.5q3 0 4.5 2.5t1.5 4.5t-1.5 3t-3.5 1.5t-4.5 1t-3.5 0.5h-3h-5h-4h-3t-1.5 1t-0.5 2zM108 82
q0 -1 0.5 -2t1.5 -2h4t6.5 -0.5t7 -0.5h4.5h1q2 0 2 1.5v2.5q0 2 -0.5 5t-2.5 4q-1 0 -2.5 0.5t-3.5 0.5t-3.5 0.5t-2.5 0.5h-2q-1 0 -3 -1t-3 -2.5t-2 -3.5t-2 -3zM105 62q0 -1 0.5 -2t2.5 -2q2 0 5.5 -0.5t7.5 -0.5t7.5 -0.5t4.5 -0.5h5v15h-28q-4 0 -4.5 -3t-0.5 -6z
M145 67q0 -3 1 -5.5t4 -3.5h2.5h3.5h3q3 0 4.5 0.5t2.5 1.5t1 3q0 3 -2 4t-4.5 2t-5.5 1h-5t-3.5 -0.5t-1.5 -2.5zM108 47q0 -1 0.5 -2.5t1.5 -1.5h26q2 0 2.5 2t0.5 3v2.5t-1 1.5h-8q-2 0 -5.5 0.5t-7 0t-6.5 -1.5t-3 -4z" />
</svg>
