<?xml version="1.0" standalone="no"?>
<!DOCTYPE svg PUBLIC "-//W3C//DTD SVG 1.1//EN" "http://www.w3.org/Graphics/SVG/1.1/DTD/svg11.dtd" >
<svg xmlns="http://www.w3.org/2000/svg" xmlns:xlink="http://www.w3.org/1999/xlink" version="1.1" viewBox="-10 0 266 256">
   <path fill="currentColor"
d="M94 249q1 0 3 0.5t2 1.5h1q3 0 4.5 -2t1.5 -4t-0.5 -3.5t-2.5 -2.5q-1 -5 -3.5 -11.5t-4.5 -13.5t-4 -13.5t-2 -12.5q0 -4 3.5 -5.5t7.5 -3.5t7.5 -5.5t3.5 -10.5v-6.5t-1 -9.5t-3 -9t-4 -4q-3 0 -4 2.5l-2 5t-4 5t-9 2.5q-4 0 -5.5 -2.5t-2 -6t-1.5 -6.5t-4 -3
q-2 0 -2.5 1t-0.5 4q0 4 1 7.5t1 6.5q0 4 -5.5 5.5l-11 3t-10 3t-3.5 6.5q0 1 2 1h3q4 0 7 -1t5.5 -2.5t5.5 -2.5t6 -1h2t2 1l0.5 2.5t1.5 5l2 5t1 3.5t0.5 2t0.5 2q-3 0 -9 1t-12 2.5t-11 4t-6 5.5l0.5 1.5t1.5 1.5h5q4 0 7.5 -1t7 -2.5t7 -2.5t6.5 -1q2 0 4 3.5t4 9
t3.5 12.5t3 13t2.5 11.5t1 7.5zM114 233v1l2 2t2 1q24 -1 47.5 -1.5t46.5 -1.5q1 0 1.5 -0.5t0.5 -1.5v0v-1q0 -1 -1.5 -3l-1.5 -2h-28v-23q0 -4 2.5 -5t5.5 -2t5.5 -5t2.5 -13v-10q0 -2 -1 -3.5t-2 -1.5q-7 -1 -12 -1.5t-11 -0.5h-7t-12.5 0.5t-11.5 3t-5 6.5v18q0 2 1.5 3
l3 2t3.5 1.5t2 1.5q1 2 1 6v4v5v6.5t-1.5 6t-3.5 2.5h-24q-2 0 -3.5 2t-1.5 4zM157 218v-2q0 -1 0.5 -3t1 -4.5t0.5 -4.5v-3q2 -3 4.5 -3.5t4.5 -0.5t4 1.5t2 4.5v5t-0.5 6.5t-1 6.5t-1.5 5h-3h-2q-4 0 -6.5 -1.5t-2.5 -6.5zM146 180q0 -6 4 -8t9.5 -2.5t11 -0.5h8.5h9l3 2
l0.5 1.5t0.5 2.5t-0.5 3t-0.5 3t-1 2l-2 2t-2 1.5t-2 0.5h-37l-0.5 -1t-0.5 -2v-3v-1zM83 163q0 -2 1.5 -4t3.5 -3q1 -1 2.5 -1.5l3 -1l3 -1t1.5 0.5l3 3v12q0 1 -2 2.5t-4.5 2.5l-5 2t-3.5 1q0 -2 -1.5 -6t-1.5 -7zM129 143q-2 -1 -3 1t-1 4h77q1 0 2.5 -0.5l3 -1t2.5 -1.5
t1 -2q0 -2 -2.5 -2h-4.5h-3h-14t-21.5 0.5t-22 1t-14.5 0.5zM40 136q0 3 1 3h3h1h1q4 -2 8.5 -6.5t9 -8.5t9.5 -7t10 -3q6 0 9.5 2.5l7 5t7.5 5t10 2.5q0 -6 -5 -10t-11 -7.5t-10.5 -6t-4.5 -4.5l2 -12q0 -1 2 -2t4.5 -2t4.5 -1.5t3 -0.5q2 0 3.5 1t3 2.5l3 3t3.5 1.5h0.5
h0.5l1.5 -1.5l1.5 -1.5q1 0 1 -1q0 -3 -2.5 -5.5t-5 -4.5t-6 -3t-5.5 -1t-4.5 2.5l-3.5 3.5h-1h-1q-2 -2 -2 -6v-6v-8q1 -1 1 -2t1 -2.5t1.5 -2.5l0.5 -1h5l10 10h7q0 -5 -2 -8t-5.5 -6t-7 -5.5t-6.5 -5.5q0 -1 0.5 -5t0 -8t-1 -7.5t-2.5 -4.5h-0.5h-0.5v0h-1q-2 2 -3 5.5
t-1.5 7t-0.5 7.5v5q-2 5 -8 7t-12.5 4t-11 5.5t-4.5 9.5q6 0 10 -2t7.5 -4t6 -3.5t6.5 -1.5q3 0 4 1.5t1 4.5v5.5t-0.5 7.5t-1.5 7t-3 3t-3.5 -1l-3 -2l-3 -2t-3.5 -1q-3 0 -7.5 1.5t-8.5 4.5t-6.5 7t-2.5 8q4 0 7 -1.5t5.5 -3l5 -3t5.5 -1.5q4 0 9 1.5t7 3.5q1 0 1 2.5v2.5
q0 5 -6.5 10.5t-14 11t-13.5 10t-6 8.5zM124 109q0 9 4.5 13t11 6t14 1.5t13.5 -0.5q5 0 13 0.5t15 -1t12.5 -6t5.5 -13.5q0 -2 -2 -3.5t-4 -1.5h-1v0q-1 1 -2.5 3t-2.5 4t-2 3.5t-2 1.5h-1l-1 -0.5t-1 -1.5t0.5 -4t1 -6.5t1 -6.5t1.5 -4q0 -1 0.5 -1.5l0.5 -0.5h3h5h4h3
q2 0 3 -1t1 -2q0 -2 -1 -3.5t-3 -1.5h-1.5t-2.5 0.5t-2.5 0.5h-1.5h-1h-2h-2.5t-1.5 -2v-0.5v-0.5q1 -2 4 -3t6 -1.5t5 -1t2 -2.5q0 -3 -2.5 -3.5t-5 -0.5t-5 -0.5t-2.5 -4.5q0 -3 2.5 -4.5t5.5 -4t6 -7t3 -14.5q0 -2 -0.5 -3.5t-3.5 -1.5t-4 2.5t-1.5 6t-1.5 6.5t-3 4
l-2 -2v-23q0 -1 -0.5 -1.5l-0.5 -0.5h-0.5h-0.5q-4 0 -5 4t-1 10v10t-3 6q-3 -1 -3.5 -3.5t-0.5 -5.5t-0.5 -5.5t-2.5 -3.5q-1 -1 -2.5 -3.5t-3 -4.5l-3 -4t-2.5 -2v1q-1 0 -1.5 2l-0.5 2q-1 18 -2.5 36t-2.5 36v0.5v1t-1 1.5t-2 2.5t-2 2.5l-2 2q0 1 -2 2.5t-3 2.5t-2 4
t-4 3q-1 0 -1.5 -1.5t-0.5 -3.5v-3.5v-1.5q0 -6 1.5 -8t3.5 -3.5t3.5 -2t1.5 -2.5t-1.5 -2.5t-3 -0.5t-3 -0.5t-1.5 -2.5q0 -3 2 -4t3 -1h3.5t1.5 -2q0 -3 -3.5 -4t-6.5 -2v-5q0 -3 1.5 -4t2.5 -1.5t3 -0.5t3 -3q4 -4 4 -10v-11v-1.5v-3t-0.5 -3t-2.5 -1.5l-1 1l-0.5 0.5
l-0.5 0.5q-3 4 -3 11v11h-1.5h-0.5q-2 0 -3 -1.5t-1 -3.5v-28l-1 -2q-2 0 -3 2t-1.5 4t-0.5 4v3v4v6v6v4l-1 2h-1h-1v0h-1q0 -1 -1.5 -3l-1.5 -2v-18q0 -1 -1 -1.5t-2 -1.5h-1h-1q-1 2 -2 3.5t-1 3.5v0v4t0.5 5.5t0.5 5.5t1 4q1 3 3.5 4.5t4.5 3t3.5 3.5t1.5 5q0 4 -2.5 5
t-5.5 1.5t-5.5 1t-2.5 4.5h11q0 1 0.5 2t1.5 2t1.5 2.5l0.5 1.5q-1 0 -2 0.5t-2.5 0.5t-3 0.5l-1.5 0.5l-1.5 1.5l-1.5 1.5q-1 1 -1 2v1h10q2 0 2.5 2.5t0.5 3.5q0 3 -0.5 6.5t-4.5 3.5q-2 0 -2.5 -1t-1 -2.5t-1.5 -2.5t-3 -1t-2.5 1t-0.5 2zM156 120v-1l1.5 -1.5t2.5 -3.5
t2.5 -3t2 -1.5t1.5 -2t2 -1.5v0q2 0 4 1.5t3.5 4t2.5 5t1 3.5v1l-1.5 0.5l-1.5 0.5h-19l-0.5 -0.5l-0.5 -0.5v-1zM173 97q0 -8 1 -17t2 -17v-4t0.5 -4t1 -3.5l0.5 -1.5l1 -2q2 1 4 3l4.5 4.5t4 4.5t1.5 4q0 3 -2 4.5t-4 2.5t-4.5 2t-3.5 3q1 2 2.5 2t3.5 0.5t3 1t1 2.5
t-1 2.5t-3 0.5t-3.5 0.5t-2.5 2.5l1 0.5l1 0.5q1 0 4 1t4 1v4v4v8t-3 7h-1l-1.5 -2.5t-4 -5t-4.5 -5.5l-2 -3v-1z" />
</svg>
