<?xml version="1.0" standalone="no"?>
<!DOCTYPE svg PUBLIC "-//W3C//DTD SVG 1.1//EN" "http://www.w3.org/Graphics/SVG/1.1/DTD/svg11.dtd" >
<svg xmlns="http://www.w3.org/2000/svg" xmlns:xlink="http://www.w3.org/1999/xlink" version="1.1" viewBox="-10 0 266 256">
   <path fill="currentColor"
d="M84 118v25t-1.5 23t-4.5 22t-9 23q-2 4 -6.5 9t-9 10.5t-8 10.5t-3.5 10q4 0 8 -0.5t7 -3.5q4 -5 8 -11.5t8 -13.5t7 -13.5t6 -11.5l1.5 -1l1.5 -1q1 0 1.5 1l0.5 1q6 12 10.5 24.5t9.5 24.5q1 0 3 0.5l2 0.5h1h1q1 0 2 -0.5l1 -0.5q0 -1 0.5 -3l0.5 -2q0 -6 -2.5 -11.5
t-6 -11l-7 -11t-5.5 -10.5q-5 -13 -7 -27t-2 -28q0 -2 0.5 -6l0.5 -4l0.5 -2.5l0.5 -2.5q0 -4 -2 -7t-6 -3l-1 0.5zM142 201v45q0 2 2 2.5t3 0.5h2.5t2.5 -2v-10q0 -7 -1 -13.5t-1 -12.5q0 -12 1 -23t3.5 -22t7.5 -21t12 -20l1.5 -0.5l1.5 -0.5l0.5 -0.5l0.5 -0.5
q8 0 11.5 5t3.5 12l-0.5 1l-0.5 1q0 1 -2 3t-3 2q-5 9 -9 19.5t-4 21.5q0 18 7.5 33.5t20.5 27.5h4q4 0 4.5 -1t0.5 -4q0 -4 -2 -6.5t-4 -5.5q-9 -11 -15 -23t-6 -26q0 -7 3.5 -14t7.5 -13.5t7.5 -12t3.5 -9.5q0 -5 -2.5 -8.5t-6.5 -6t-8 -4t-8 -3.5v-1v-1v-8.5t0.5 -10.5
t0.5 -8.5v-4.5q1 -5 2.5 -6.5t6.5 -1.5t7 5.5t4 12.5t3.5 12.5t6.5 5.5q3 0 3.5 -1t0.5 -4v-2q0 -1 -1 -5t-2 -8.5t-2 -8.5t-2 -5q-1 -6 -1.5 -12.5l-1 -13t-0.5 -12.5v-11l-1.5 -0.5t-2.5 -0.5h-1q-2 0 -3.5 2t-1.5 4q0 4 0.5 9.5t0 10.5t-2.5 9t-8 4q-1 0 -2.5 -0.5
l-1.5 -0.5l-1 -5v-42q0 -1 -1.5 -1.5t-2.5 -0.5q-3 0 -5 2t-2 5v42q0 2 -1.5 2.5t-3.5 1t-4 0.5h-4t-2.5 -1t-0.5 -3v-2v-1t0.5 -2t0.5 -2v-1l-0.5 -1.5t-0.5 -2.5l-0.5 -2t-0.5 -4t0.5 -4t0.5 -3q-1 -1 -2.5 -1.5t-2.5 -0.5t-2.5 0.5t-1.5 3.5v33v3.5t-0.5 5.5t-0.5 5t-1 3
q-1 5 -3 9t-2 10q0 2 1.5 2.5t3.5 0.5q3 0 5 -2.5t2 -6.5q1 -1 1.5 -5.5l1 -9t1 -8.5t0.5 -5h15l1 1l0.5 2t1 5t0.5 6v4v0.5v0.5v0.5v0.5v3.5t-0.5 5.5t-1 5.5t-0.5 3.5q-11 15 -18 33t-9 36v6t0.5 5.5t0 5t-1.5 5.5zM47 203q0 3 1 3.5t3 0.5q4 0 6.5 -3.5t5 -8.5t3.5 -9.5
t1 -6.5t0.5 -6.5t0.5 -10t0.5 -10.5t0.5 -7q-2 -1 -3.5 -1h-3.5q-3 0 -3.5 2t-1.5 5q1 8 1 17t-2 18q-1 2 -2.5 4l-3 4t-2.5 4.5t-1 4.5zM106 148q0 5 0.5 14t2.5 17t6 14t10 6q0 -7 -1.5 -13.5l-3 -13t-2.5 -13t0 -14.5q0 -1 -2 -1h-3q-3 0 -5 0.5t-2 3.5zM40 139
q0 2 1 3.5t3 1.5q5 0 10.5 -5.5t11 -12t10.5 -12t10 -5.5q4 0 8.5 4t9.5 9t10.5 9.5t11.5 4.5q3 0 4.5 -1t1.5 -4q0 -4 -6 -7t-13.5 -8t-14 -11.5t-6.5 -17.5q0 -2 1 -3.5t5 -3.5q12 0 19 -2.5t11.5 -8t5.5 -13.5t1 -19q0 -9 -6 -13t-14.5 -5t-17 -1h-15.5h-16
q-10 3 -15.5 8.5t-5.5 15.5q0 13 3 20.5t7.5 11.5t9.5 5t9 1t7 0.5t3 3.5l-0.5 2.5t-1.5 5.5t-2 5.5l-1 2.5q-2 4 -8 10t-13 11.5t-12.5 10.5t-5.5 7zM41 110q0 2 1.5 3.5t3.5 1.5q3 0 7 -2t7.5 -5.5t6 -7t2.5 -6.5t-0.5 -5t-3.5 -2l-4 3.5t-8.5 7.5t-8 8zM104 91q0 8 6 13
t14 5h4t2 -3q0 -1 -2.5 -3.5l-5 -5l-5.5 -5.5t-4 -5l-1 -1l-1 -1q-7 0 -7 6zM72 68v-1q2 -7 3.5 -12t1.5 -13q0 -3 -1.5 -6t-1.5 -6q0 -2 1.5 -3t2.5 -1h1l2.5 1.5t2.5 2.5v37q0 3 -2 4t-5 1q-2 0 -3.5 -0.5t-1.5 -3.5zM100 28h1l3 27q1 3 3.5 6t3.5 6v1v0q0 1 -1.5 2.5
l-1.5 1.5h-12v-42q0 -1 1.5 -1.5t2.5 -0.5zM110 30h3q7 0 9.5 4.5t2.5 10.5t-1 9t-3 10v0h-1l-1.5 -1.5l-0.5 -0.5l-1 -2t-1.5 -3.5t-1.5 -3.5t-1 -3q-1 -2 -1 -4.5v-5.5t-0.5 -5.5t-1.5 -4.5zM57 47v-3.5v-5t1.5 -4.5t3.5 -2h1h1q3 5 3.5 8.5t0.5 8.5q0 2 -0.5 4l-1 4
t-2 3.5t-3.5 1.5v0q-4 -4 -4 -7.5v-7.5z" />
</svg>
