<?xml version="1.0" standalone="no"?>
<!DOCTYPE svg PUBLIC "-//W3C//DTD SVG 1.1//EN" "http://www.w3.org/Graphics/SVG/1.1/DTD/svg11.dtd" >
<svg xmlns="http://www.w3.org/2000/svg" xmlns:xlink="http://www.w3.org/1999/xlink" version="1.1" viewBox="-10 0 266 256">
   <path fill="currentColor"
d="M94 162q0 9 -3.5 16.5t-8 15t-9.5 15t-8 14.5q-1 0 -2 3.5t-2 4.5q-2 3 -3.5 5l-3 4t-2.5 4.5t-1 6.5q6 0 11 -4.5t9 -11.5t7.5 -15t6.5 -15t5.5 -12t5.5 -6q2 -1 5 3.5t5.5 11.5t5.5 15t6 15t6.5 12t7.5 5q3 0 4.5 -1.5t1.5 -4.5v-1l-0.5 -1.5l-0.5 -1.5q-1 -1 -2.5 -3
t-3.5 -5t-4 -5.5l-2 -2.5q-6 -10 -10.5 -21t-9.5 -21q0 -1 -1 -3.5t-2 -3.5q-1 -12 -1.5 -24.5t-1.5 -25.5l-1.5 -1.5l-1.5 -1.5h-1h-1l-1 0.5l-1 0.5v34q1 1 1.5 3l0.5 2v1zM56 194q0 2 1.5 2.5t3.5 0.5q4 0 6.5 -3.5t4 -8.5t2.5 -11.5t1.5 -12t0.5 -9.5v-4v-2t-0.5 -4
t-1.5 -3t-3 0q-1 0 -2.5 2t-2.5 2q1 10 0.5 20t-3.5 19q-1 2 -2 3.5t-2 2.5t-2 2.5t-1 3.5zM117 148q0 3 0.5 11t2 16t4 14t6.5 6q3 0 4 -1.5t1 -3.5q0 -5 -2.5 -9t-3.5 -8q-4 -9 -4.5 -19t-0.5 -18h-3h-2t-2 1v2v3.5v3.5v2zM158 30h-1t-1 1l-0.5 2.5t-0.5 3.5v116
q0 7 0.5 13t3 11t7 7.5t12.5 2.5q6 0 11.5 -0.5t9.5 -2.5t6.5 -6t3.5 -10v-7t0.5 -10t0.5 -9.5v-5.5v-11.5v-16.5t-0.5 -16.5t-0.5 -10.5v-7v-40q0 -3 -1.5 -5t-4.5 -2t-4.5 3.5t-1.5 6.5v3q0 2 0.5 6.5t1 10t1 10t0.5 6.5l-1 4h-33q-1 0 -1 -1q-2 -4 -2 -8v-8q0 -7 1 -13
t1 -12q0 -3 -2 -4t-5 -1zM165 169q-2 -10 -3 -21.5t-1 -22.5v-1q0 -2 0.5 -7t0.5 -10.5t0.5 -10.5t0.5 -7q1 -2 3 -3t3 -1h30q1 0 1 2v1v1v15.5t-0.5 24.5t-0.5 24.5v15.5q-4 5 -9 6t-10 1h-5t-4 -1t-3.5 -2t-2.5 -4zM46 137q0 2 1.5 2.5t3.5 0.5q4 0 6 -1.5l6 -4.5
q0 -1 4 -4t9 -7t10 -8.5t8 -6.5q2 -1 1.5 -1.5t1.5 -0.5q4 0 9 4.5t9.5 9.5t7.5 9t4 5q3 1 7 1.5t8 0.5q0 -5 -4.5 -10t-11 -10t-13 -9.5t-9.5 -8.5q-1 -1 -1.5 -3.5t-0.5 -5v-4.5v-3v-2v-4v-2.5v-2.5t5 -2t10.5 -2.5t10.5 -2.5l5 -1q5 -6 7 -12.5t2 -13.5q0 -9 -5 -13.5
t-12.5 -6.5t-16 -1.5t-14.5 0.5h-3h-5.5h-4.5h-3q-12 3 -18.5 8t-6.5 17q0 9 3.5 14.5t9 8.5t12.5 4.5t14 2.5l2 2v27q0 1 -3.5 3.5t-9 6t-11.5 7.5t-11 7.5t-9 7t-4 5.5zM171 127v1l0.5 0.5t1.5 0.5h14q1 0 1.5 -0.5l0.5 -0.5v-1v-1q0 -1 -0.5 -2.5t-1.5 -1.5h-13l-1 1.5
t-2 2.5v1zM50 101q0 2 0.5 3t2.5 1h2q1 -1 4 -3t6.5 -4t6.5 -3.5t4 -2.5q3 -2 5.5 -4t2.5 -6q-2 0 -8 2t-12 4.5t-10 6t-4 6.5zM114 83q0 2 3.5 5.5t8.5 6.5t9 5.5t5 2.5t2 -0.5t1 -1.5q0 -3 -3 -6.5t-8 -6.5t-9.5 -5t-7.5 -2l-0.5 0.5l-0.5 0.5v0.5v0.5zM81 56
q0 -4 1.5 -7.5t1.5 -7.5q0 -3 -0.5 -6.5t-0.5 -6.5t2 -4.5t5 -1.5q1 0 2 0.5t2 1.5q0 1 0.5 3t0.5 4.5t0.5 4.5l0.5 2q0 2 -0.5 5t-1 7t-1 7t-1.5 4l-2 0.5l-2 0.5q-4 0 -5.5 -1t-1.5 -5zM102 56v-1.5v-3.5v-4v-2v-5.5t0.5 -7t1.5 -6t5 -2.5h2t1 2q1 8 2 15t1 15v3
q-1 2 -2 2h-2q-3 0 -5 -1.5t-4 -3.5zM65 53q0 -1 -0.5 -3l-1 -4t-0.5 -4.5v-3.5v0q0 -7 6 -9h0.5h0.5q2 0 3.5 1t2.5 2v6v5t-0.5 5.5t-2 4.5t-4.5 2h-2.5t-1.5 -2zM125 29q2 0 4.5 2.5t2.5 3.5l-2 18l-1 2q-1 0 -1.5 -1l-0.5 -1q-1 -1 -3 -3.5l-2 -2.5v-16q0 -2 1 -2h2z" />
</svg>
