<?xml version="1.0" standalone="no"?>
<!DOCTYPE svg PUBLIC "-//W3C//DTD SVG 1.1//EN" "http://www.w3.org/Graphics/SVG/1.1/DTD/svg11.dtd" >
<svg xmlns="http://www.w3.org/2000/svg" xmlns:xlink="http://www.w3.org/1999/xlink" version="1.1" viewBox="-10 0 266 256">
   <path fill="currentColor"
d="M141 248q0 2 1 2.5t2 0.5q4 0 8 -6.5t8.5 -16.5t9 -22t8.5 -23.5t6.5 -20t3.5 -12.5q0 -1 0.5 -3.5l1 -5l1 -5t0.5 -3.5v-4.5t0.5 -7.5t1 -7t2.5 -3h8l0.5 2t0.5 3v8v7q0 3 -1 7.5t-2.5 11l-3 13t-2.5 13t-2.5 11t-1.5 7.5q-1 6 -3.5 12.5t-4.5 12.5q-1 0 -2 2l-2 4
t-2 3.5t-1 3.5q0 1 0.5 2t1.5 2v0q4 0 8.5 -7.5t8 -19.5t7 -26t6 -27.5t4 -24.5t1.5 -15v-8q-2 -2 -4 -3t-4.5 -1.5t-4.5 -1t-4 -1.5q-1 0 -2 -3l-2.5 -7.5t-2.5 -10t-2.5 -10.5t-2 -9t-0.5 -5q0 -10 4.5 -19t14.5 -13v-1v-1q0 -3 -1.5 -4t-3.5 -1q-7 0 -11 5t-6 12.5
t-3 14.5t-1 12v3q0 1 0.5 3.5t0.5 4.5v2l4 10t2 10q0 4 -2 5.5t-4.5 3t-5 2.5t-3.5 5q-3 9 -4.5 18.5t-3.5 18.5q-5 17 -11 31.5t-16 30.5v1v0q0 1 0.5 1.5t1.5 0.5h1q2 0 5 -4t6.5 -10t6.5 -13.5t5.5 -14.5t4.5 -12.5t3 -7.5q0 -1 0.5 -3.5t1.5 -5l2 -5t1 -3.5v-3t0.5 -5
t0.5 -5.5v-3.5q1 -2 3 -4.5t4 -2.5t2.5 1.5l1 3t0.5 2.5v3q0 6 -1.5 12.5t-2.5 11.5q-6 29 -16 54.5t-24 49.5v1zM42 243v1l1 1l1 1v0h1q3 0 6.5 -4t6.5 -9l6 -10t5 -7q0 -1 0.5 -2t0.5 -2q1 -1 2.5 -5t3 -8.5t3 -8.5t2 -5l1.5 -3t3 -2h1q0 1 1 3t2 2q0 1 1.5 5.5l3 9t3.5 9
t2 5.5q1 1 3 6t4.5 10t5 9t4.5 4q3 0 4.5 -2t1.5 -5v-2q-5 -5 -11 -14t-11 -19.5t-8 -20.5t-3 -17v-52q-3 0 -4.5 2t-2.5 4t-1.5 5t-0.5 4v8v11v11v7q-2 3 -2.5 7.5t-0.5 6.5l-22 42q-1 0 -3 3.5t-4.5 7.5t-4 8t-1.5 5zM57 137q1 10 0.5 20t-3.5 20q-2 4 -3 5.5t-1.5 2.5
t-1 3t-0.5 5q6 0 9.5 -5.5t5.5 -12.5t2.5 -14.5t0.5 -12.5v-1q0 -2 -0.5 -3.5t-0.5 -3.5v-2q1 -2 -0.5 -2.5t-3.5 -0.5h-2t-2 2zM104 141q0 12 1 23.5t6 22.5h1h1q1 0 3 -0.5t1 -2.5q-4 -11 -5 -23.5t0 -23.5q0 -3 -1.5 -4.5t-3.5 -1.5q-1 0 -2 0.5t-1 1.5v8zM45 126
q1 2 3 2h3h5.5t3.5 -3l5 -5l6.5 -6.5l6.5 -6.5l4 -4h5l2.5 1.5l5 3t5.5 4t5 3.5q1 0 2.5 1t3 2.5t3 2t3.5 0.5v0q1 0 1.5 -1t0.5 -2v-1q0 -3 -2.5 -5t-6 -3.5t-7.5 -4t-7.5 -6t-6 -9t-2.5 -14.5v-4v-3l2 -2q7 -1 13.5 -2.5t11 -4.5t7 -8t2.5 -14l-0.5 -3.5t-0.5 -4.5
q-6 -9 -13 -12t-18 -3h-10.5h-10.5t-10 1t-10 4q-1 5 -3 9t-2 9q0 13 2.5 19t6.5 8t8.5 2t8.5 1.5t6.5 6.5t2.5 17q0 4 -4 8.5t-10 9.5t-12 9.5t-9 7.5zM131 99q0 3 1.5 6t4.5 5t6 3.5t6 1.5q5 0 9 -2t6.5 -5.5t4.5 -8t2 -8.5t-2.5 -5.5t-6 -3t-6 -4.5t-2.5 -10v0v0
q2 -5 4.5 -8t5 -5.5t4 -5.5t1.5 -9q0 -4 -2.5 -5t-5.5 -3q-2 0 -4 -1.5l-2 -1.5v-15l-1 -0.5t-1 -1.5q-1 0 -2.5 -0.5l-1.5 -0.5q-1 0 -2 1t-1 2v15q0 2 -2 3.5t-5 3t-5 4.5t-2 7q0 5 2.5 7.5l5 5t4.5 5t2 6.5q0 6 -2.5 7.5t-5.5 3.5t-5 5t-2 12zM139 96v-0.5v-0.5
q1 -1 1.5 -2.5t1 -2.5t1.5 -2t1 -2h3.5h2.5q5 0 9.5 3t4.5 8q0 2 -2 4t-5 3t-5.5 1.5t-4.5 0.5q-1 0 -2.5 -1t-3 -2.5t-2 -3t-0.5 -3.5zM45 102q0 2 1 2.5t3 0.5q3 0 6.5 -3t6 -6.5t4 -7.5t1.5 -7q0 -2 -1 -4.5t-4 -2.5q-1 0 -4 4t-5.5 9t-5 9.5t-2.5 5.5zM99 78q0 3 1 6.5
t2.5 6.5t4.5 5t6 2q2 0 3.5 -0.5t1.5 -2.5q0 -3 -2 -3.5t-4 -2.5q-1 0 -2 -2.5t-2.5 -5.5t-3 -5t-2.5 -2q-3 0 -3 4zM65 54q0 -2 0.5 -7.5t2 -11t2.5 -9.5t3 -4q1 0 3.5 0.5t2.5 3.5v33q0 2 -2 2h-3q-3 0 -6 -1.5t-3 -5.5zM85 38q0 -2 0.5 -4t1 -4.5t1.5 -4t3 -1.5
q3 0 4.5 3.5t2 7.5t0 8.5t-0.5 6.5q0 3 -2 4.5t-5 1.5q-2 0 -3 -2t-1.5 -5t-0.5 -6v-5zM141 47v-0.5v-0.5q0 -1 0.5 -2.5t0.5 -2.5q1 -1 1.5 -2.5l0.5 -1.5h12l1 1.5t2 3.5t1.5 3.5t0.5 2.5q0 5 -4 6.5t-8 1.5h-2.5h-2.5q-1 -2 -2 -4.5t-1 -4.5zM102 34v-7l1.5 -1.5
l1.5 -1.5q2 0 4 1.5t3.5 4t2.5 5t1 3.5q0 2 -0.5 4.5t-1.5 5.5t-3 4.5t-4 1.5t-3 -2.5t-1.5 -5.5t-0.5 -6.5v-5.5zM52 39q0 -3 0.5 -5.5t4.5 -2.5q3 0 4 2.5t1 4.5q0 4 -1 8t-4 5q-3 -3 -4 -5.5t-1 -6.5z" />
</svg>
