<?xml version="1.0" standalone="no"?>
<!DOCTYPE svg PUBLIC "-//W3C//DTD SVG 1.1//EN" "http://www.w3.org/Graphics/SVG/1.1/DTD/svg11.dtd" >
<svg xmlns="http://www.w3.org/2000/svg" xmlns:xlink="http://www.w3.org/1999/xlink" version="1.1" viewBox="-10 0 266 256">
   <path fill="currentColor"
d="M182 202l5 48l1 0.5t2 0.5h1q3 0 4.5 -2.5t1.5 -4.5q0 -5 -2.5 -10t-2.5 -10q-1 -3 -0.5 -7.5t0.5 -9.5q0 -4 -0.5 -8t-2.5 -8q0 -11 -1 -22t-2 -22.5t-2.5 -22.5t-1.5 -23q0 -1 1.5 -2.5t3 -4.5t2.5 -6t1 -7t-3 -6t-7.5 -3.5t-10 -2l-11 -1t-10.5 -0.5h-6q-1 0 -3.5 0.5
t-2.5 3.5v0.5v0.5q4 1 11 1q8 0 15.5 0.5t13 2t5.5 6.5q0 2 -1 5t-3 3h-1l-1 -0.5t-2 -1.5t-2 -1.5l-1 -0.5q-1 -1 -2 -1.5l-1 -0.5h-33q0 4 5.5 4.5t12 0.5t11.5 1t5 4v1q-8 1 -16 1.5t-16 -0.5l-0.5 1l-0.5 1v1q0 2 2 2.5t4.5 1t5 0t3.5 -0.5q5 0 9.5 -0.5t9.5 -0.5h3t2 3
q1 2 1.5 8.5t0.5 13.5t0.5 13t0.5 9v4l5 42v7zM68 246q0 2 2.5 3t3.5 1q5 0 11 -4t11.5 -9t10.5 -10.5t9 -8.5h0.5h0.5q3 0 5 2t3.5 4.5t3 4t4.5 1.5q2 2 4.5 5t5.5 5.5t6.5 4.5t6.5 2q4 0 4 -3q0 -1 -3 -4t-7.5 -6.5t-9.5 -7t-9.5 -7.5t-7.5 -7.5t-3 -5.5v-29l-1 -0.5
t-2 -0.5v0h-1t-2 1.5t-1 3v2.5v2q-1 1 -1 5v8v7.5t1 5.5q-2 1 -6 4.5t-9 7t-10 7.5t-9.5 7.5t-7.5 5.5l-3 2v1zM69 218q0 1 1 2t2 1h1q1 0 4.5 -2t4.5 -2q10 -5 13 -12t3 -17h-6q2 7 -1.5 12t-8 8t-9 5.5t-4.5 4.5zM129 190q1 3 4 8t8 10t10.5 8.5t10.5 3.5q2 0 2.5 -1
t0.5 -3t-1 -3t-3 -2t-4 -1t-3 -1q-4 -1 -7 -3.5t-5.5 -5.5t-4.5 -6l-4 -6q0 -1 -1.5 -1.5l-1.5 -0.5l-0.5 0.5t-0.5 1.5l-0.5 0.5l-0.5 0.5h0.5t0.5 1zM63 190q0 1 1 2t3 2q4 0 7 -2t5 -5t5 -4.5t6 -1.5l26 -17l1 1q1 1 4 2.5t6.5 3.5t6.5 4t4 2q1 1 3.5 3t6 4t6.5 4t5 2
t4 -0.5t2 -2.5t-3.5 -4t-8.5 -4.5l-11 -5.5t-11 -6.5t-8.5 -7t-3.5 -6.5q0 -5 3.5 -7t8.5 -2.5t11 -0.5q5 0 9 -2q3 -2 6 -5.5t3 -7.5q0 -7 -7 -10.5t-16 -5t-18 -1.5h-14h-2t-2 0.5t-1.5 0.5h-1.5h-19q-3 2 -5.5 4t-3.5 5v3t0.5 4t0.5 4v3t0.5 2.5t1.5 3t2 2.5t3 1h32
q1 0 1.5 1.5l1 3t0.5 3.5v1q0 4 -4 7.5t-9.5 7t-11.5 6.5t-11.5 5.5t-9.5 5t-4 5.5zM99 151q-3 0 -7.5 1.5t-9 4.5t-8 6t-3.5 6q3 0 8 -1.5t9.5 -3.5t7.5 -5.5t3 -7.5zM135 154q0 1 3 3.5t7 5t8 4.5t6 2q3 0 3 -4q0 -1 -3.5 -3.5t-8 -4.5t-8.5 -3.5t-6 -1.5l-0.5 0.5
l-0.5 0.5v1zM95 135v-0.5v-1.5v-2t0.5 -3.5t1 -3.5t0.5 -3q1 -2 4.5 -3t6.5 -1q1 0 3 0.5t2 2.5v18h-16q-2 0 -2 -1v-2zM125 118h3t2 2q0 1 0.5 3t1 4.5t1 4.5t0.5 3v1v1q-2 0 -6 0.5t-7 0.5v-18q0 -2 2 -2h3zM79 129q0 -3 2 -6t6 -3h2t1 1v6q0 3 -0.5 6.5t-5.5 3.5
q-3 0 -4 -3t-1 -5zM136 123q0 -2 0.5 -2.5t3.5 -0.5h3t3.5 1t3 2.5t1.5 3.5t-2 5t-5 3q-2 0 -3.5 -1.5t-2.5 -3.5t-1.5 -4t-0.5 -3zM60 70q0 6 0.5 11.5t3 9.5t7 6.5t11.5 2.5h40l2 -3q-2 -1 -4 -1h-4t-4 -0.5t-2 -2.5q-2 -5 -2 -9.5v-9.5v-4v-3l3 -3h2.5t3.5 -0.5t4 -0.5h3
q2 -1 2.5 -1.5t0.5 -2.5t-1 -2.5t-3 -0.5q-4 0 -8.5 1t-9.5 1h-4t-3 -3v-12q0 -1 1.5 -1.5l1.5 -0.5q4 0 6.5 1.5l5 3t5.5 3t6 1.5q0 -6 -4 -9t-9 -4.5t-9 -3t-4 -6.5v-1v-1q2 0 5 -0.5t7 -0.5t7.5 -0.5t4.5 -0.5t3.5 -0.5t3.5 -0.5v-1.5v-0.5q0 -3 -4 -3h-3h-6h-5h-4
q-6 0 -13 -0.5t-13.5 0.5t-11 4t-7.5 10q-1 1 -1.5 3t-0.5 3l0.5 3.5t0.5 7.5t0.5 7t0.5 4v2q0 2 -1 4.5t-1 4.5zM87 86l0.5 -3.5l1 -7l1 -7l0.5 -3.5h11v28l-0.5 0.5l-0.5 0.5h-5q-5 0 -6.5 -1.5t-1.5 -6.5zM70 74v-6q1 -2 3 -3t5 -1t4 2.5t1 4.5q0 5 -0.5 8.5t-1.5 8.5
q-2 3 -5 3t-4.5 -2t-2 -4.5t0 -5.5t0.5 -5zM149 53q0 4 3.5 6t8.5 2.5t9.5 0t6.5 -0.5h12q2 1 3 -2t1 -4h-33l-1 -1l-2 -2l-1.5 -1.5t-0.5 -1.5q1 -3 4 -4t7.5 -1.5l9 -1t8.5 -1t7 -2.5t3 -6q0 -2 -0.5 -4t-1.5 -4t-2 -3.5t-3 -1.5h-33l-8 -7l-0.5 -0.5l-0.5 -0.5l-0.5 0.5
l-0.5 0.5l-0.5 0.5l-0.5 0.5q-1 10 -3 18t-8 15q0 2 1.5 2h2.5t2.5 -0.5t2.5 -2.5l6 -17l5 -1t11 -1.5t11 -0.5h5q3 0 4 2t1 4q0 3 -2.5 4t-6.5 1.5t-8.5 0.5t-8.5 1.5t-6.5 4.5t-2.5 9zM74 56v-3l1 -1t2.5 -2t2.5 -2.5t2 -1.5q1 -1 3.5 -2t3.5 -1l1.5 1t1.5 2v13
q-4 0 -8.5 -1.5t-9.5 -1.5zM85 25h5q2 0 2 2v3v3t-2 2q-1 1 -4 2.5t-5.5 2.5t-4.5 2l-2 1h-3v-8.5t1.5 -5.5t4.5 -3t8 -1z" />
</svg>
