<?xml version="1.0" standalone="no"?>
<!DOCTYPE svg PUBLIC "-//W3C//DTD SVG 1.1//EN" "http://www.w3.org/Graphics/SVG/1.1/DTD/svg11.dtd" >
<svg xmlns="http://www.w3.org/2000/svg" xmlns:xlink="http://www.w3.org/1999/xlink" version="1.1" viewBox="-10 0 266 256">
   <path fill="currentColor"
d="M112 167q2 3 3 6t1 7q0 3 -0.5 6.5t-0.5 6.5q1 12 2 21.5t4.5 15.5t10.5 10t21 6q1 0 6 0.5t11 1.5t11.5 1.5t8.5 1.5h2q2 0 3 -2t1 -4q0 -3 -5 -4.5t-12 -2t-14 -0.5h-11l-2 -0.5t-4 -0.5t-4 -0.5t-3 -0.5l-3 -3q3 -6 6 -12.5t4 -13.5v-39q1 -2 5.5 -3t9 -2.5t8 -3
t3.5 -4.5v-15q0 -1 -2 -2t-3 -2q-1 0 -2 -0.5l-1 -0.5h-15h-15h-2t-4.5 0.5t-4.5 0.5h-3q-6 1 -11.5 1t-9.5 1t-7 4t-3 10q0 11 5 14t16 1zM153 227v1q0 1 1.5 2.5l1.5 1.5l21 -5q1 -1 3 -3.5t2 -3.5l2 -35q0 -1 -1 -2t-1 -2l-1 -0.5l-1 -0.5h-24l-1.5 1t-1.5 2v1v1l1 0.5
t2 0.5h3.5h4.5h5h3q3 1 3.5 4t0.5 5t-0.5 3.5t-3.5 2.5h-3.5t-5 0.5t-5.5 0.5h-4l-1 1t-2 1v1v1l0.5 1t1.5 2h16q2 0 3.5 1.5t1.5 3.5v1l-3.5 3.5l-3.5 3.5q-1 0 -2.5 1t-4 1.5t-4.5 1.5t-3 1v0zM122 206v-14t0.5 -16l1 -16t1.5 -16q0 -1 1 -1.5t2 -0.5q2 0 3 0.5l1 0.5h4
q1 0 1.5 1t0.5 2v2q0 1 0.5 5.5t0.5 9.5t0.5 9.5t0.5 5.5v2v4v4v3v9t-1 12.5t-3 11.5t-6 6q-3 -2 -4.5 -5t-2 -6.5t-1 -6.5t-0.5 -6zM108 180q-2 0 -6.5 0.5t-9.5 1.5t-9.5 2.5t-4.5 3.5v35q0 2 2 3t4.5 1.5t4.5 0.5h3h3.5h5t5 -1t2.5 -3v-1l-4 -3q-2 0 -5 0.5t-6 0t-5 -2
t-2 -5.5q0 -2 1 -2t4 -1q1 0 3 -0.5t4.5 -1t4.5 -1t3 -0.5t1.5 -1t0.5 -2q0 -2 -1 -2.5t-3 -0.5q-4 0 -7 0.5t-6 0.5q-4 0 -4.5 -1t-0.5 -5v-5q3 0 6.5 -0.5t7 -2t6 -3.5t2.5 -5zM99 151q0 -5 3.5 -6.5t8.5 -1.5l2 -0.5t2 1.5v15h-12q-1 0 -2 -1t-1 -2.5t-0.5 -3zM146 152
l0.5 -1.5t0.5 -3t0.5 -3l0.5 -1.5q0 -1 0.5 -1.5l0.5 -0.5h12q1 0 2 1t1 2v3v1q0 5 -3.5 8t-7.5 3q-2 0 -4.5 -2.5t-2.5 -4.5zM182 109q0 1 1.5 3t2.5 4.5l2 5t2 3.5l0.5 2t1.5 4.5t2 4.5t2 2q3 0 4 -2t1 -4q0 -7 -3.5 -13.5t-6.5 -11.5v-1q5 -5 9.5 -10.5t4.5 -12.5
t-2.5 -10.5t-6.5 -5t-9 -1.5h-9.5h-8t-5.5 -2v-2.5v-1.5q0 -6 4.5 -8.5t10.5 -3t12.5 -0.5h9.5v-2v-1q0 -3 -2.5 -3.5t-5.5 -0.5q-6 0 -11.5 1t-11.5 1q-2 0 -3 -0.5t-1 -2.5q0 -6 1 -11.5t1 -11.5h-11v44q0 4 -2.5 5t-5.5 2t-5 2t-2 5q5 0 10 -1.5t10 -1.5v0h5.5t7 0.5
t7 0.5h5.5q3 2 5.5 4.5t2.5 6.5q0 2 -0.5 4t-1.5 3t-2 2.5t-2.5 2.5t-2.5 2l-1 1h-1q-1 0 -2 -1.5t-2.5 -2.5t-2.5 -2l-1.5 -1.5t-1.5 -1t-2 -0.5h-23l-4 4l3 2h3.5h5.5h5h4t4.5 1.5t3.5 3.5t-4.5 4t-10.5 3t-11.5 2.5t-7.5 3.5q1 2 2 2.5t2 0.5q5 0 9.5 -1t8.5 -3t8.5 -3
t8.5 -1h3zM54 135q1 1 1.5 1h1.5q2 0 3 -0.5t2 -2.5q0 -10 1 -22.5t4 -22.5q3 -4 8 -6t10 -2q4 2 5 5t1 7q0 10 -0.5 20t-0.5 20v2t3 2l1.5 -1.5l1.5 -1.5v-2q0 -2 0.5 -9.5t1 -16t1 -15.5t0.5 -10q1 -1 2 -1.5t2 -0.5q9 0 14.5 3t5.5 13q0 2 0.5 7t0.5 10v10v6q4 0 5.5 -1
t2.5 -4v-13v-7v-4.5t-0.5 -5t-1.5 -6.5q-2 -7 -7.5 -10t-11 -4t-10 -1.5t-3.5 -3.5v-11q0 -8 1.5 -15t1.5 -15q0 -4 -0.5 -6.5t-2.5 -7.5h-1h-2q-2 0 -3 0.5t-2 2.5v10.5t0.5 16t0.5 15.5v10v1v0q0 1 -1 2.5t-2 1.5q-9 2 -16 4t-13 9q-3 10 -4 21t-1 22v7zM78 94h-2h-3
q0 1 -0.5 1.5l-0.5 0.5v24l0.5 0.5t0.5 1.5h1q2 0 3 -2t1 -3v-23zM106 93v29q3 0 4.5 -2t2 -5.5t0 -6.5t-0.5 -6q0 -1 0.5 -3t0 -3.5t-1.5 -2.5t-3 -1l-1 0.5zM52 63q0 2 1 3t3 1t5.5 -2t7.5 -4.5t6.5 -5.5t2.5 -6v-22q0 -1 -2.5 -3t-3.5 -2q-3 0 -3.5 1t-0.5 2q0 4 1 8t1 8
v2.5t-1 2.5l-3.5 3.5l-5 5l-4.5 4.5t-4 3v1zM114 20q-3 0 -3 3v26q0 5 4 9.5t9 4.5q2 0 5 -1t3 -4t-2.5 -3.5l-5 -1t-5 -3t-2.5 -9.5l0.5 -2t0.5 -3.5t0.5 -3.5l0.5 -2v-4q0 -2 -1 -4t-4 -2z" />
</svg>
