<?xml version="1.0" standalone="no"?>
<!DOCTYPE svg PUBLIC "-//W3C//DTD SVG 1.1//EN" "http://www.w3.org/Graphics/SVG/1.1/DTD/svg11.dtd" >
<svg xmlns="http://www.w3.org/2000/svg" xmlns:xlink="http://www.w3.org/1999/xlink" version="1.1" viewBox="-10 0 266 256">
   <path fill="currentColor"
d="M109 219v8t0.5 10.5t1.5 9.5t4 4q4 0 5.5 -2t1.5 -6q0 -2 -0.5 -3t-1.5 -2v-11.5v-17.5v-17.5v-11.5v-5.5t-0.5 -8t-0.5 -8v-5.5q2 -4 6.5 -4.5t8.5 -0.5h3.5h2.5l3 4v91q0 1 1 3.5t3 2.5h0.5h0.5q0 -1 1.5 -2l1.5 -1v-42q0 -2 1 -4t2 -3h10q5 0 10 0.5t10 3.5
q1 6 1 10.5v11.5q0 4 -1.5 8t-1.5 7q0 1 0.5 4t1.5 4h1h1q4 0 6 -3.5t3 -6.5v-2v-3v-4v-2v-8t-1 -12t-3.5 -11t-5.5 -5h-31l-3 -3v-15l3 -4h6t8.5 -0.5t8 -0.5h5.5q1 0 3.5 -1l2.5 -1q3 -1 4.5 -5.5t3 -11t2.5 -14t1 -15t0.5 -13.5t0.5 -9v-5v-5q0 -5 -2 -6t-5 -1
q-1 0 -3 0.5t-2 3.5q1 9 1 17t-0.5 15.5t-1.5 15.5t-2 17q0 5 -3.5 7t-8 2.5t-9 0.5h-7.5t-4.5 -0.5t-1.5 -3.5q0 -2 1.5 -3.5l3 -3t3.5 -2.5t3 -3q4 -5 5.5 -12.5t1.5 -13.5q0 -10 -0.5 -18t-4 -13t-10.5 -7.5t-19 -1.5v-2q0 -2 -0.5 -4.5t0 -4.5l1 -4t2.5 -2q8 -1 16.5 -2
t15.5 -3q1 0 1.5 -1t0.5 -2v-1q0 -2 -1 -2h-3q-6 0 -12 0.5t-13 0.5t-7 -6q0 -1 1.5 -2t3 -1.5l3 -1t2.5 -0.5h51l1.5 -2l1.5 -2v-0.5v-0.5v-0.5v-0.5q-1 0 -2 -2t-1 -3h-8q-12 0 -23.5 2t-22.5 2q-2 0 -3.5 -0.5t-1.5 -3.5l-3 -14q0 -1 -2 -1.5t-3 -0.5t-2 0.5t-1 1.5
q-1 10 -3 14.5t-6.5 5t-11.5 0t-17 -0.5q-1 0 -5 0.5t-8.5 0.5t-8.5 0.5t-5 0.5t-2 1l-2 2q0 1 1 2l2 2t2 1.5t2 0.5q10 0 20 -1.5t21 -1.5h4h5h6.5h3.5q2 1 2 3v4v2.5v1.5q-1 0 -3 0.5t-2 1.5q-2 0 -8 1t-12.5 2t-12 2t-8.5 1q-1 0 -1 1.5v2.5q0 2 0.5 3.5t3.5 1.5
q4 0 8 -1t8.5 -2l9 -2t9.5 -1h1h2t2 0.5t1 1.5l-2 12q0 1 -3.5 1.5t-7.5 1.5t-8 3.5t-5 7.5q0 3 -0.5 7l-1 8t-1 7t-0.5 4t0.5 5t1.5 8t1.5 8t1.5 5q1 2 2.5 3t3.5 2t3 2.5t1 4.5q0 2 -1 4t-3 3h-4h-4q-9 0 -14 -1t-7.5 -4.5t-3.5 -9t-3 -13.5q-1 -7 -1.5 -13.5t-1.5 -13.5
q0 -2 0.5 -5.5t0.5 -7t-1.5 -6t-5.5 -2.5q-5 0 -6 3.5t-1 7.5q0 11 2 23t3 22q5 6 6 11.5t2.5 9.5t6 6.5t15.5 2.5q5 0 9 -1t9 -1h3q0 1 0.5 4t0.5 4v1v0q0 2 -0.5 5l-0.5 3l-1 0.5t-1 1.5h-12t-11.5 1.5t-9.5 4.5t-6 10q-2 12 -3 23t-1 23q1 0 4.5 -0.5t4.5 -0.5t2.5 -1
t1.5 -2v-36q0 -1 1 -3t2.5 -4t3.5 -4t3 -2h18q2 0 3 2.5t1 4.5q0 4 -1 7.5t-1 7.5zM106 132v-1l0.5 -0.5l0.5 -0.5q2 -1 7 -1.5t10.5 -1t10 -0.5t6.5 -1h5q3 0 5.5 0.5t5.5 1.5q1 1 1 2.5v2.5q0 4 -3 6t-8 3t-10 0.5t-8 -0.5h-7t-7.5 -1t-6 -3t-2.5 -6zM106 118
q-2 -1 -3 -2.5t-1 -4.5v-2t2 -1q2 -1 6.5 -1t9.5 -0.5t9.5 -0.5h6.5h4h5h5h4q3 1 4 3t1 4t-0.5 3.5t-2.5 1.5t-5 0.5t-6.5 1t-7 0.5h-4.5h-2h-3h-4t-7 -0.5t-7 -1t-4 -0.5zM157 94v1q0 1 -1 2t-2 1h-50q0 -5 4 -8t9 -3h33q2 0 4.5 2t2.5 5z" />
</svg>
