<?xml version="1.0" standalone="no"?>
<!DOCTYPE svg PUBLIC "-//W3C//DTD SVG 1.1//EN" "http://www.w3.org/Graphics/SVG/1.1/DTD/svg11.dtd" >
<svg xmlns="http://www.w3.org/2000/svg" xmlns:xlink="http://www.w3.org/1999/xlink" version="1.1" viewBox="-10 0 266 256">
   <path fill="currentColor"
d="M173 188q2 0 3.5 4.5t3 11.5t2.5 15t2.5 14.5t3.5 11t5 4.5t4 -2t1 -4v-2v-1q0 -1 -1 -3t-1.5 -4.5t-1.5 -4.5l-1 -2q-1 -4 -2.5 -9.5t-2.5 -10.5l-2 -10t-1 -10v-2v-2q4 -4 6.5 -7t4.5 -6t3.5 -5.5t3.5 -7.5q1 -1 1 -3v-4t0.5 -4t1.5 -3v-4.5v-5.5q0 -10 -1 -17
t-4 -11.5t-9.5 -7.5t-17.5 -5l-2 -1v-25q0 -2 1.5 -2.5t3.5 -1.5t3.5 -1h1.5q1 0 4.5 -0.5t7 -0.5t6.5 -0.5t4 -0.5q3 -1 3.5 -2t0.5 -2q0 -3 -2 -5q0 -1 -3 -1h-3q-6 0 -11.5 2t-11.5 2q-3 0 -4 -1.5t-1 -4.5q0 -4 1 -8.5t1 -8.5v-4v-3.5t-1 -3t-4 -1.5q-2 0 -4 1t-2 4v22
q0 6 -0.5 14t-0.5 15.5t-0.5 13l-0.5 5.5h-10v2.5t1 3.5q1 2 6.5 2.5t12 1t13 2t9.5 5.5q2 3 2.5 6t1 5.5t0.5 5.5v6v4t-1 4q-1 2 -2 6l-2 8t-3 7t-6 3h-1h-2q0 -6 -1 -11t-3.5 -8.5t-7 -5.5t-11.5 -2q-4 0 -6.5 0.5t-6.5 1.5v2v2q0 2 1 2h16q4 0 6 3.5t3.5 7.5t2 8.5
t0.5 6.5v4t-1 3q-2 3 -7.5 4t-11.5 2.5t-10.5 3.5t-4.5 5q5 0 9 -0.5t7.5 -1t7.5 -1.5t9 -2h2zM49 212v2.5t2 1.5h2h3.5h3.5h2q18 0 37 -0.5t37 -2.5q2 0 2.5 -1t0.5 -3t-1 -3.5t-4 -1.5h-19v-43q0 -4 3 -6t6 -4.5t6 -6t3 -12.5l-0.5 -3t-0.5 -4q-6 -13 -19 -13h-1h-7.5
t-9 0.5t-8.5 1l-4 0.5q-4 0 -8 0.5t-7 1.5t-5.5 3.5t-2.5 7.5q0 6 0.5 10t2.5 6.5t5 4.5t8 5q1 0 1.5 0.5t0.5 1.5q-1 5 -1.5 11t-0.5 12.5v12.5v11q0 1 -1 2.5t-2 2.5h-3.5h-5.5h-4.5h-3.5q-3 0 -5 1t-2 4zM105 154v45q0 3 -1.5 4t-4 1.5t-4.5 0.5h-4h-3t-2 -1v-43
q0 -3 2.5 -4.5t6 -2t6.5 -0.5h4zM71 132q0 -5 4 -7.5t9.5 -3.5t10.5 -1h10h5h5q5 2 5.5 5.5t0.5 8.5v4v4q-3 2 -6.5 3t-7.5 1.5t-8 0.5h-8h-2h-3h-4h-2q-3 0 -4.5 -2t-2.5 -4t-1.5 -4.5t-0.5 -4.5zM49 94q0 2 0.5 3t2.5 2q19 -3 38.5 -4t38.5 0q1 -1 3 -1.5l4 -1t3.5 -1.5
t1.5 -2v-1q-1 0 -1.5 -0.5l-0.5 -0.5h-37l-1 -1.5t-1 -2.5v-5v-5q2 -4 5.5 -4.5t8 -1t8.5 -2.5t5 -7q1 -1 2 -4t1.5 -6t1 -5.5t0.5 -3.5l0.5 -2.5t0.5 -3.5q0 -4 -0.5 -7t-3.5 -6v0h-1.5h-0.5q0 1 -1 2l-2 2v10t-1.5 12t-5.5 10t-10 4h-2h-2t-2 -0.5t-1 -1.5v-6q0 -8 1 -15
t1 -14v-3t-0.5 -4t-1.5 -3.5t-3 -1.5q-1 0 -3.5 1.5t-2.5 2.5v41q0 2 -2 3.5t-4 1.5h-1q-1 0 -3 -0.5t-4 -1.5t-3.5 -2.5t-1.5 -3.5v-27l-1 -1l-1 -1q-1 -2 -2 -2v0v0q-5 0 -6.5 3.5t-1.5 7.5q0 12 2.5 18.5t6 10t8 4.5t8 2t6 3.5t2.5 7.5q0 3 -1.5 5.5t-3.5 3.5
q-2 0 -6 0.5t-8.5 0.5t-9 0.5t-5.5 0.5q-2 0 -4 -0.5t-3.5 0t-2 1t-0.5 3.5z" />
</svg>
