<?xml version="1.0" standalone="no"?>
<!DOCTYPE svg PUBLIC "-//W3C//DTD SVG 1.1//EN" "http://www.w3.org/Graphics/SVG/1.1/DTD/svg11.dtd" >
<svg xmlns="http://www.w3.org/2000/svg" xmlns:xlink="http://www.w3.org/1999/xlink" version="1.1" viewBox="-10 0 266 256">
   <path fill="currentColor"
d="M170 198q3 2 5 6t3.5 10.5t2 13t2 12t3 9.5t5.5 4t4 -2.5v-5.5q0 -7 -2 -13.5t-5 -13t-5 -13t-2 -13.5q0 -2 1.5 -4t2.5 -4q4 -6 5 -11.5t1 -12.5v-2v-2.5v-2.5v-2q-2 -3 -4.5 -4.5t-6 -2.5l-7 -2t-5.5 -1l-1 -2v-2v-4q0 -2 -0.5 -5.5t0 -6.5t2 -5t4.5 -2q4 0 6.5 1.5
t4.5 3t4.5 3t6.5 1.5q2 0 2.5 -1.5t0.5 -3.5q0 -3 -2.5 -5.5t-6 -4t-7 -2t-5.5 -1.5q-6 -3 -8 -5.5t-2.5 -5t-1.5 -4t-5 -1.5q0 9 -4 13t-8.5 6t-8.5 4.5t-4 7.5q3 0 5.5 -1.5t4.5 -3t4.5 -2.5t5.5 -1h1l1 0.5t1 1.5v24h-16q-1 0 -2 1l-2 2v0v1q1 0 2 1l2 2q1 0 4.5 0.5
t7.5 1t7.5 1t5.5 0.5q6 1 11 3.5t5 9.5q0 3 -1.5 7.5t-1.5 7.5l-2 2t-1 2h-1q-1 0 -2 -1.5l-2 -3t-1.5 -3l-0.5 -1.5q-2 -2 -5 -3t-6.5 -1.5t-7.5 -0.5h-6h-2.5h-3.5t-3 1t-1 3l0.5 1l0.5 1q6 0 11 0.5t9 1.5t7.5 4t6.5 8v0.5v1.5q0 4 -5 5.5t-11 2.5t-11 3t-5 6q1 1 2 1.5
t2 0.5q7 0 14.5 -2.5t13.5 -6.5zM59 211q0 3 3 4h11h12h4.5t7.5 -0.5t7.5 -0.5h4.5h5h7.5t7 -1t3.5 -3q0 -1 -0.5 -2.5t-1.5 -1.5h-17l-0.5 -1l-0.5 -1q0 -1 -0.5 -4t-1.5 -5v-1q0 -7 1.5 -11t3 -5.5t3.5 -2t4 -2t3 -4.5t1 -10t-3 -10t-8 -4t-10.5 -1t-11.5 -1v0
q-4 0 -7.5 1.5t-7 3.5t-5.5 5t-2 7q0 6 3 12t11 6v22l0.5 1.5t0.5 2.5v0v1v0q0 1 -0.5 1.5l-0.5 0.5h-23q-2 0 -2.5 1.5t-0.5 2.5zM98 181h3q2 0 2 1v22q0 2 -1.5 2.5t-3.5 0.5l-2.5 -0.5t-2.5 -1.5v-23q0 -1 3 -1h2zM78 159q0 -4 3 -5.5t7.5 -2.5t9 -0.5t6.5 0.5
q7 0 10.5 2t3.5 9q0 3 -1 6t-5 3h-26q-4 0 -6 -4t-2 -8zM58 132q0 3 2.5 4t4.5 1q6 0 11.5 -1t11 -1.5l11 -1t11.5 -0.5q2 -1 4.5 -1h5.5q2 0 5 -0.5t5 -0.5v-1.5v-0.5q0 -2 -0.5 -3t-2.5 -1q-3 0 -6 0.5t-7 0.5h-6t-5 -1v-5v-3t1 -3q1 0 4 -0.5t6 -1.5t5.5 -2t2.5 -4v-18
h-6v5t-1 5.5t-2.5 4.5t-4.5 2h-2t-2 -2v-17q0 -1 -1.5 -3.5t-2.5 -2.5t-1 0.5t-0.5 1.5l-0.5 1v22q0 1 -2 1h-3q-4 0 -6.5 -3t-3.5 -6.5l-2 -7t-4 -3.5h-1q0 1 -1 2t-2 1v1v0q1 2 1 4.5t1 4.5t1 4v2q2 3 5 4.5t6.5 2.5t6 2t2.5 2v10q-9 2 -18.5 2h-18.5q-1 1 -1 2v2zM68 37
q0 12 5 22q1 2 4 3l6 2t5 2t2 2v16q3 0 4 -2.5l2 -5t1 -5.5t1 -3q1 -4 4.5 -5t6.5 -1.5t6 -3t3 -11.5q0 -1 -1.5 -2.5t-3.5 -1.5l-0.5 0.5l-1 1t-1.5 3.5t-1 4t-0.5 2t-1.5 1h-7q-1 0 -1 -2v-2q0 -4 1 -6.5t1 -6.5q0 -2 -1.5 -5.5t-4.5 -3.5h-2.5t-1.5 1v25l-2 1l-1.5 0.5
l-1.5 0.5l-1.5 -1t-2.5 -1l-0.5 -0.5t-0.5 -1.5q-1 0 -1.5 -2.5t-1 -4.5l-1 -4t-1.5 -3q0 -2 -1.5 -4t-3.5 -2t-2.5 1t-0.5 3zM166 65v14l1 1t1 2h0.5h0.5q3 0 4 -2t1.5 -4t1 -4.5t1.5 -3.5q0 -1 3 -1.5t5.5 -1.5l5 -2t2.5 -4v-17q0 -2 -2 -2h-2q-3 0 -3.5 3t-0.5 6.5
t-1 6.5t-4 3v0l-3 -3v-2.5v-3.5v-4v-3l-0.5 -2.5t-1 -4.5t-1.5 -4t-3 -2l-2 2l-1 1v24q-3 0 -5.5 0.5t-4 -0.5t-2.5 -3.5t-2 -7.5v0h-1q-2 0 -2.5 1.5t-0.5 3.5v3t0.5 5t1.5 4.5t2 1.5h12zM114 23q0 6 2.5 9.5t5.5 6t5.5 3.5t2.5 3v27l0.5 0.5t1.5 0.5v0.5v0.5l0.5 -0.5
l0.5 -0.5q1 0 3 -1t2 -2v-28q4 -1 7 -2.5t5.5 -3.5t3 -4.5t0.5 -7.5v-3t-3 -2q-3 1 -3.5 3.5t-0.5 4.5t-1 4t-4 2v-23q0 -1 -2.5 -2l-2.5 -1h-1v0q-1 1 -2 1.5l-1 0.5v25q0 1 -0.5 1.5l-0.5 0.5h-1q-4 0 -6 -2.5t-3 -6t-2 -6t-4 -2.5q-2 0 -2 2v2z" />
</svg>
