<?xml version="1.0" standalone="no"?>
<!DOCTYPE svg PUBLIC "-//W3C//DTD SVG 1.1//EN" "http://www.w3.org/Graphics/SVG/1.1/DTD/svg11.dtd" >
<svg xmlns="http://www.w3.org/2000/svg" xmlns:xlink="http://www.w3.org/1999/xlink" version="1.1" viewBox="-10 0 266 256">
   <path fill="currentColor"
d="M71 216q0 1 0.5 6.5t2 11.5t4 10.5t6.5 4.5q3 0 4 -1.5t1 -3.5q0 -4 -2.5 -6t-2.5 -5q-2 -5 -2 -8.5v-8.5q0 -9 5 -13.5t11.5 -8t11.5 -7t5 -9.5v-82q0 -1 -2 -1.5t-3 -0.5q-3 0 -3.5 2.5t-0.5 4.5q0 13 1.5 24.5t1.5 23.5v21q-4 7 -8 11t-9 8t-10 7.5t-10 8.5
q-1 3 -1 5.5v5.5zM161 219q0 4 1 9.5t3 10.5t5 8t8 3q0 -4 -1 -8.5t-2 -8.5l-2 -8t-1 -9q0 -8 1 -12.5t3 -8t5 -5.5t6.5 -4.5t7 -6t6.5 -7.5q4 -5 5.5 -11t2.5 -12.5t1 -12.5v-11v-33v-33q-1 -7 -3.5 -11.5t-6.5 -7t-8.5 -3.5t-8 -1.5t-6 -1t-2.5 -1.5v-22q-1 0 -2.5 0.5
t-3 0.5t-2.5 1t-1 2v21q0 1 -1.5 1.5t-2.5 0.5q-4 2 -8.5 3t-8 2.5t-6.5 4.5t-5 8q1 11 0.5 22t-1.5 22l-2 22t-1 22q0 6 1 12.5t3.5 12.5t7.5 10t12 4h1.5h1.5q1 0 1.5 -1.5t0.5 -2t-1.5 -1.5l-1.5 -1q-5 -4 -7.5 -5.5t-3.5 -2.5t-1.5 -2t-0.5 -2t-1 -3.5t-4 -7.5v-4.5
v-7.5v-7v-5q0 -15 2 -28t3 -27q0 -10 0.5 -16t3.5 -9t8.5 -4.5t16.5 -1.5h5.5h7.5t7.5 1.5t4.5 3.5q0 1 0.5 3t1 4.5l1 5t1.5 3.5q0 2 0.5 4.5t0.5 6.5v6v4v5v6t-0.5 5.5t-0.5 3.5v6v10.5t-0.5 10t-0.5 6.5q0 3 -0.5 6.5t-1 7.5t-2 8t-2.5 6q-8 8 -14 12.5t-10 9.5
t-6.5 11.5t-2.5 18.5zM76 165q2 0 4 1t4.5 2t5.5 2t8 1q0 -4 -2.5 -6t-5 -3.5t-4.5 -4t-2 -5.5v-3.5t1 -2.5q2 0 4 0.5t3.5 0.5t3 -1t1.5 -3q0 -3 -2 -3.5t-4.5 -1t-4.5 -1t-2 -2.5v-13h14l-0.5 -1t-0.5 -2q0 -2 -2 -2.5t-3.5 -1t-3.5 -1t-3 -2.5q1 -1 1 -3v-5v-5t-1 -3
q0 -2 -0.5 -3.5t-2.5 -1.5t-3 4q-1 5 -1.5 9t-0.5 7q0 4 0.5 8.5t-0.5 10.5v5t-0.5 8.5t-0.5 8.5v5q-1 2 -2 2t-4 1t-4 1q-3 0 -5 -1.5t-3.5 -3.5t-2.5 -4t-1 -4q0 -3 2 -5q1 0 2.5 -0.5t3 -0.5t3.5 -0.5l2 -0.5q1 0 1.5 -0.5t0.5 -1.5q0 -3 -2 -4t-5 -1.5t-5.5 -1.5
t-2.5 -4q0 -1 0.5 -1h0.5q0 -1 0.5 -3.5l0.5 -2.5h11q1 0 1.5 -1.5t0.5 -2.5v-1v-1q-1 0 -5 -1t-5 -2l-0.5 -0.5l-0.5 -0.5v-3.5v-5.5v-4.5v-2.5q-1 -1 -2 -3.5t-3 -2.5q-4 2 -5.5 6t-1.5 7v59q0 2 2.5 3.5t5.5 2t6 0.5h5q3 0 5.5 -1t5.5 -1zM166 165q0 1 1 2l2 2q3 0 4 -3
t1.5 -7t1 -7.5t3.5 -3.5h13l0.5 -0.5l1.5 -1.5v-1v-1q-1 0 -1.5 -1l-0.5 -1h-15q-1 0 -1.5 -2.5t-0.5 -3.5l0.5 -1t0.5 -2q8 -4 12 -7t6 -6.5t2 -9.5t1 -15q-1 -1 -2 -3.5t-1 -3.5q-2 -3 -5.5 -4.5t-6.5 -3t-5.5 -3t-2.5 -3.5q0 -4 2 -6t5 -3t7 -1h7v-2v-2t-1 -3
q-2 0 -5.5 1t-4.5 1h-1h-1q-4 0 -7.5 -3t-5.5 -5l-2 2l-1 2.5t-2 3.5t-2.5 1.5t-3.5 1t-3.5 0.5t-1.5 2q0 3 2.5 2.5t5 -0.5t4.5 1t2 6q0 4 -3 6.5t-7 4t-7.5 4.5t-3.5 8v24q0 4 3.5 5.5t7.5 2.5t7 2.5t3 5.5t-2 5.5t-5.5 2t-6.5 0.5h-5l-2 2l2 2h18q1 0 1 2.5v3.5v1.5v1.5
v2t-0.5 2.5t-0.5 2.5v1zM151 115q1 -8 9 -8q3 0 5 2t2 5q0 4 -1 6.5t-5 2.5q-1 0 -3 -0.5t-3.5 -1.5t-2.5 -2.5t-1 -3.5zM174 115q0 -4 3 -6t6 -2q2 0 4 0.5t2 3.5q0 5 -3.5 8t-7.5 3t-4 -2.5v-4.5zM153 98q0 -6 4.5 -9t10.5 -3v4t-1 5.5t-2 4.5t-4 2h-5.5t-2.5 -4zM174 95
v-2.5t0.5 -3.5t2 -3t2.5 -1q3 0 4.5 1.5t3 3.5t2.5 4t1 4q-2 2 -4.5 2.5t-5.5 0.5q-4 0 -5 -0.5t-1 -5.5zM45 36v15.5t1.5 14t6 12t11.5 8.5h4q2 0 5 0.5t5 0.5h3h11q6 0 11.5 -1t10.5 -3.5t8 -7.5q2 -11 3 -24t1 -24q0 -2 -1 -4.5t-2 -3.5q-6 -4 -10 -4.5t-9 -0.5h-4h-3
l-1 1t-1 2t2.5 2l2.5 1q1 1 3.5 1.5t5.5 1.5t5 1.5l2 0.5v9h-2t-4 0.5t-4 0.5h-2q-1 0 -2 -0.5t-2.5 -0.5t-3 -0.5l-1.5 -0.5q-3 0 -3 3q0 4 4 4.5t8 0.5q5 0 9 1t4 6q0 4 -1.5 6t-5.5 2l-1.5 -0.5t-3.5 -0.5t-3.5 -0.5l-1.5 -0.5h-2q-2 0 -4 0.5t-2 1.5q0 4 3.5 5t7.5 1.5
t7.5 1t3.5 3.5q0 5 -3.5 7.5t-8 3.5t-9.5 0.5t-9 -0.5h-9t-9 -1.5t-7 -4.5t-3 -9q0 -4 3 -4.5t7 0t7 0t3 -4.5q0 -2 -1 -2.5t-3 -0.5q-4 0 -6.5 0.5t-6.5 1.5q-2 -1 -2.5 -2t-0.5 -3t1.5 -3t3.5 -2q1 0 3.5 -1t5 -1.5t5 -1.5l2.5 -1q1 0 1.5 -0.5t0.5 -1.5l-0.5 -1.5
t-1.5 -1.5h-21q0 -7 3.5 -9t8 -2.5t8 -1t3.5 -5.5q0 -2 -2 -3h-4h-4q-11 0 -17.5 6.5t-6.5 17.5v0z" />
</svg>
