<?xml version="1.0" standalone="no"?>
<!DOCTYPE svg PUBLIC "-//W3C//DTD SVG 1.1//EN" "http://www.w3.org/Graphics/SVG/1.1/DTD/svg11.dtd" >
<svg xmlns="http://www.w3.org/2000/svg" xmlns:xlink="http://www.w3.org/1999/xlink" version="1.1" viewBox="-10 0 266 256">
   <path fill="currentColor"
d="M61 242v6t5 3q3 0 4.5 -2t2.5 -5.5t1 -6.5v-6v-26v-4t0.5 -6.5l1 -7t0.5 -4.5q2 -3 6 -4t7 -1q2 0 3.5 0.5t0.5 4.5q0 3 -0.5 11t-0.5 17t-0.5 17t-0.5 11v5q0 2 0.5 3.5t3.5 1.5t4.5 -2.5t1.5 -5.5v-3q0 -1 -0.5 -2.5t-0.5 -2.5v-2t0.5 -4.5t0.5 -4v-2.5v-39l3 -4h13
l1 -1l1 -1v-1v-1l-2 -2h-16q-14 0 -28 1.5t-28 0.5q-4 2 -4 5t2 3h4q4 0 7.5 -1t6.5 -1q2 0 3.5 0.5t1.5 3.5q0 14 -2.5 29t-2.5 30zM157 248q0 2 1.5 2.5t3.5 0.5q3 0 5 -4.5t3.5 -11.5t1.5 -15.5v-16.5v-14.5v-9.5q0 -12 -1.5 -24.5t-1.5 -25.5l0.5 -2.5t0.5 -3.5v-3.5
t-0.5 -5.5t-0.5 -5.5v-3.5v-2v-2t1 -2q6 -1 9.5 -2t6.5 -2.5t5 -3t5 -1.5q2 0 4 1t3.5 2.5t3.5 2.5t4 1q4 0 4 -4t-2 -5.5t-4.5 -3l-5 -3t-2.5 -3.5v-12q-1 -8 -3.5 -12t-6 -6t-7 -2.5t-7 -0.5t-5.5 -1t-2 -3v-20q0 -2 -2 -3.5t-4 -1.5t-3.5 2.5t-1.5 4.5v3v1.5t0.5 2.5
t1 2.5l0.5 1.5q0 4 -2.5 6t-6 2.5t-7 0t-5.5 -0.5l-4 3l2 3h19q1 0 2 1.5t1.5 3t0.5 3.5v2v3v2q0 1 -1 1.5l-1 0.5h-31q-1 0 -1 2v3v1l30 3q3 1 4 4t1 5t-0.5 4.5t-2.5 2.5l-27 4l-0.5 0.5l-0.5 0.5q0 2 2 2.5t3 1.5h20q1 0 2.5 1t2.5 2v7v11t0.5 12.5t0.5 12.5v11v7v22v20
v4t-0.5 6.5t-0.5 7v5.5q0 1 -1 3.5t-1.5 6t-1 6.5t-0.5 4zM120 204q0 1 0.5 2t2.5 1q4 0 9 -5.5t9.5 -12.5t8 -14t3.5 -10t-4 -3q-1 0 -5 5.5t-8.5 12.5t-9 13.5t-6.5 8.5v1v1zM176 170q0 2 3 5t6 6.5t6 6.5t5 6l0.5 1l1 2t1 2.5l0.5 1.5h1.5h2.5q2 0 4.5 -0.5t2.5 -3.5v-1
q0 -1 -1 -3t-2 -2q-1 -1 -4 -4.5t-6.5 -6.5t-6.5 -6l-4 -4q0 -1 -2.5 -2t-3.5 -1q-3 -1 -3.5 0.5t-0.5 2.5zM53 129v10t1.5 9t4.5 7t9 5h2.5h4.5h5h3h9t12 -1t10.5 -4.5t4.5 -8.5v-26q0 -5 -4 -7t-9.5 -3t-11 -1.5t-8.5 -0.5h-1q0 1 -2 1.5t-3 0.5h-9t-7 0.5t-5.5 2.5
t-5.5 7v4.5v4.5zM64 145q0 -5 4 -6t8 -1t5.5 2t1.5 7q0 4 -2 4.5t-5 0.5q-4 0 -8 -1.5t-4 -5.5zM91 138h17l0.5 0.5l0.5 0.5v2v3v2v3q-4 1 -6 2t-6 1h-3t-3 -2v-12zM130 148v2.5t2 1.5q5 -1 8 -5t5.5 -9.5t4 -11.5t3.5 -9q-1 -2 -2 -3t-4 -1l-2.5 5.5t-6 12t-6 12zM181 118
q0 1 3 5.5t6.5 9.5t6.5 9.5t4 4.5q3 1 4.5 -1t1.5 -5t-2.5 -7.5t-6 -8.5t-8 -7.5t-7.5 -6.5q-2 1 -2 3.5v3.5zM64 124q0 -5 3.5 -6.5t8.5 -1.5h1t2 0.5t2 0.5t1 1v11l-2 2h-4q-5 0 -8.5 -0.5t-3.5 -6.5zM111 125v1v0q-1 1 -1.5 2l-0.5 1h-18v-4.5v-4.5t1 -1.5l1 -0.5h15
l0.5 0.5t0.5 1t0.5 2.5t1.5 3v0zM55 90l6 9h8q10 0 17.5 -0.5t17.5 -1.5q8 -3 10.5 -8t3 -11t0 -12.5t-0.5 -13.5q0 -1 0.5 -3t0.5 -4.5t0.5 -4.5t0.5 -3v-2q0 -1 -0.5 -3t-1 -3.5t-1.5 -3t-3 -1.5v0h-1l-0.5 1l-0.5 1q0 1 0.5 4t0 5.5t-1.5 4.5t-4 2q-2 0 -5 -1t-5.5 -3
t-4 -4t-1.5 -5v-4.5v-5.5t-1 -5.5t-5 -2.5l-2.5 0.5t-2.5 1.5v18q0 1 -2 2.5t-4.5 2.5l-5 2t-3.5 1q-3 0 -3.5 -2.5l-1 -5t-1.5 -5t-5 -2.5q-1 0 -2 0.5t-1 2.5v0v0q0 2 0.5 5t0.5 4zM64 84q0 -2 5.5 -4t12 -3t12.5 -1h8q6 0 6 7q0 3 -2.5 5t-6 3t-7 1h-6.5q-2 0 -6 0.5
t-7.5 -0.5t-6 -2.5t-2.5 -5.5zM170 85q0 -5 2 -6t7 -1q2 0 4 1.5t3 3.5v0v0q0 2 -1 3.5t-3 2.5t-4 1h-4q-3 0 -3.5 -1t-0.5 -4zM61 65q0 -3 5 -5t11.5 -2.5t13.5 -1t10 -0.5q1 0 3.5 0.5t3.5 0.5t1 2v3q0 4 -4.5 6t-10.5 3t-12 0.5t-9 -0.5h-11q-1 -1 -1 -2.5v-3.5zM170 68
v-7v-5.5t2 -5.5q3 1 7 1.5t7 2t5 4.5t2 8q0 1 -1 2.5t-3 2.5h-5h-4h-4t-3.5 -1t-2.5 -2zM66 48l0.5 -0.5t1.5 -0.5q0 -1 2.5 -2t5 -2.5t4.5 -2.5t3 -1t1.5 -0.5l0.5 -0.5q3 0 6.5 3t3.5 6q0 2 -2.5 3t-6.5 1.5t-7.5 0.5h-5.5h-4z" />
</svg>
