<?xml version="1.0" standalone="no"?>
<!DOCTYPE svg PUBLIC "-//W3C//DTD SVG 1.1//EN" "http://www.w3.org/Graphics/SVG/1.1/DTD/svg11.dtd" >
<svg xmlns="http://www.w3.org/2000/svg" xmlns:xlink="http://www.w3.org/1999/xlink" version="1.1" viewBox="-10 0 266 256">
   <path fill="currentColor"
d="M164 187v17q0 7 0.5 14.5t0.5 15.5t1 17h1.5h1.5q2 0 4 -0.5t3 -2.5v-10q0 -20 -2 -41t-2 -42q0 -9 0.5 -19.5t1.5 -20.5q0 -9 4.5 -14.5t9.5 -9.5t9 -6t4 -4v-18q0 -5 -4 -6.5t-9.5 -2t-11 -1.5t-7.5 -5t-5 -8t-5 -8q-1 -3 -1.5 -5t-1.5 -3t-3 -1h-6q0 6 2 9.5t5 7
t5 7.5t2 8v2v1l-3 3t-4 4.5t-4.5 4.5t-2.5 3q-1 1 -4 2t-5.5 2.5t-5 3.5t-2.5 4q0 1 1.5 1.5t2.5 0.5q5 0 10.5 -2t10.5 -6.5t8.5 -9t5.5 -10.5h1q3 0 6.5 0.5t7 2t6 3.5t2.5 6t-4.5 9t-9.5 10t-9.5 11t-4.5 12q0 4 1 8t1 8q0 14 -1 28.5t-1 29.5zM49 212q0 6 3.5 11.5t8 10
t10.5 7t13 2.5q9 0 18 -1.5t17 -3.5q1 -1 3 -1.5l2 -0.5l7 -13l0.5 -5t1 -11.5t1 -13.5t0.5 -11v-4v-9.5v-10.5v-8v-6v-10v-9v-7q-1 -2 -2 -2.5t-3 -0.5q-3 0 -4 2t-1 4q0 4 1 6t1 5v2t-0.5 2.5t-1 2.5t-1.5 1q-3 0 -4.5 -3.5t-3 -8t-3.5 -8t-6 -3.5h-0.5h-0.5q-2 3 -3 6
t-2 5.5t-3 5t-5 4.5q0 -1 -1.5 -3t-2.5 -4t-2.5 -3.5t-1.5 -2.5t-0.5 -2.5t-0.5 -3t-1 -2t-3 -0.5q-3 0 -5.5 4t-4.5 9t-4.5 10t-4.5 8h-1h-0.5h-0.5q0 -1 -0.5 -2.5t-0.5 -2.5v-1v-1v-1.5t0.5 -3.5t0.5 -4v-2v-2q0 -3 -0.5 -7t-4.5 -4q-3 0 -4.5 2t-1.5 4q0 23 1 44.5
t1 44.5zM200 241q0 1 1.5 1.5t2.5 0.5q2 0 3.5 -2t1.5 -4q0 -5 -2.5 -9t-3.5 -9q-3 -16 -4.5 -33.5t-1.5 -35.5q0 -9 0.5 -18.5t0.5 -19.5v-3.5t-3 -1.5q-2 0 -3 1.5t-2 3.5q-1 6 -1 11.5t-0.5 10.5t-0.5 10v11q0 19 1.5 36.5t7.5 34.5q0 1 0.5 3t1 4.5t1 4.5t0.5 3zM60 216
v-1q1 -1 3 -4t4.5 -5.5l5 -5t5.5 -2.5t4.5 3t2.5 6.5t2.5 6t3.5 2.5q3 0 5 -3t3.5 -6.5t3.5 -7t5 -3.5l1 0.5l1 0.5q1 1 3.5 4.5l5 7t4 7t1.5 5.5q-1 5 -6.5 7.5t-12 4t-12.5 2t-9 0.5q-2 0 -6.5 -1.5t-8 -4t-6.5 -6t-3 -7.5zM147 158v22.5t-2 21.5q-1 8 -4 15.5t-3 15.5
q6 0 7.5 -4.5t2.5 -9.5q1 -3 2 -9l2 -12t2 -11t1 -7v-3v-7v-7v-6v-24.5t-3 -23.5q-1 -2 -1.5 -2h-2.5t-2.5 1t-0.5 3q0 12 1 23.5t1 23.5zM55 200v-2q0 -1 0.5 -3.5t0.5 -5.5t0.5 -5.5t0.5 -3.5q3 -4 11.5 -5.5t18.5 -2t19 -0.5h13h7q2 1 1.5 3.5t-0.5 3.5q0 5 -1 10.5
t-2 10.5h-1v0q-3 0 -5 -2t-3 -5t-3 -5.5t-5 -2.5q-2 0 -3.5 2.5t-3 6t-3 6t-3.5 2.5q-3 0 -5 -2.5t-3.5 -5t-3 -5.5t-3.5 -4q-5 6 -9.5 10.5t-11.5 7.5h-1v0l-1 -1t-1 -2v0zM79 133q2 0 3.5 2.5t3 5.5t2.5 6t1 4h2q3 0 5 -2.5t3.5 -5.5t3.5 -6t6 -3h2q1 0 2 1q0 3 2 6
t4.5 5.5t4.5 5.5t2 7q0 2 -0.5 3t-2.5 2q-2 0 -5 0.5t-6 0.5t-6 0.5t-4 0.5h-9.5h-14h-13.5h-9l0.5 -3t0.5 -4l2 -2.5t5 -5t5.5 -5.5t3.5 -5l1 -2t2.5 -4t2.5 -2zM54 38v4q0 2 0.5 6.5t1 9.5t0.5 10t1 6q1 10 4.5 14.5t9 6.5t12.5 2h16h19q1 0 2.5 -1t2.5 -2l-4 -4h-22
q-1 0 -2 -1.5t-1.5 -3.5l-1 -4t-0.5 -3v-1l0.5 -0.5t1.5 -0.5q3 -1 6 -1t6 -1t5.5 -2.5t4.5 -3.5q1 -5 2 -8t1 -6t0.5 -6t0.5 -6v-5t-1 -5.5t-2.5 -4.5t-4.5 -2t-3.5 1t-0.5 4q0 4 1 7t1 7v7t-1 7.5t-3.5 5.5t-6.5 2t-4.5 -1t-0.5 -6v-47q0 -2 -2.5 -2h-2.5h-3t-2 2v74
q0 1 -2.5 2l-2.5 1v0q-5 0 -7.5 -3t-4 -8t-2 -10.5t-1 -11.5t0 -10.5t0.5 -7.5q-2 -2 -4.5 -3t-3.5 -2h-1q-2 0 -2 2v3z" />
</svg>
