<?xml version="1.0" standalone="no"?>
<!DOCTYPE svg PUBLIC "-//W3C//DTD SVG 1.1//EN" "http://www.w3.org/Graphics/SVG/1.1/DTD/svg11.dtd" >
<svg xmlns="http://www.w3.org/2000/svg" xmlns:xlink="http://www.w3.org/1999/xlink" version="1.1" viewBox="-10 0 266 256">
   <path fill="currentColor"
d="M72 212q2 4 2.5 8t2.5 8q3 9 7 14t9 6.5t11.5 2t16.5 0.5h1h23t22.5 -2.5t19.5 -8t13 -17.5v-3q0 -3 0.5 -6t0.5 -5v-4v-4q0 -3 -0.5 -6t-0.5 -5v-3v-4t-0.5 -6.5t-0.5 -6.5v-4v-4t-0.5 -6.5t-1.5 -5.5t-5 -2t-5.5 2t-1.5 5q0 6 2 11t2 11v3v2l-2 2l-3.5 0.5t-9 0.5
t-13 0.5t-14.5 0.5t-14 0.5t-12 0.5h-3h-6.5h-7.5h-5h-4h-4h-4h-2l-4 -2l-3 -30l-1 -2q-3 0 -6.5 2t-3.5 6q0 12 2 25.5t3 25.5zM80 208v-1.5v-0.5q0 -1 0.5 -4t0.5 -5v-2l90 -3q4 -1 7.5 -1.5t7.5 -0.5h2q2 0 2 2v5q0 4 0.5 10t-0.5 12t-3.5 10.5t-7.5 6.5q-2 1 -3.5 1
t-2.5 0.5t-2.5 1t-3.5 2.5q-2 0 -6.5 0.5t-9.5 1l-10 1t-7 0.5h-4h-5q-10 0 -16.5 -1t-11 -4t-7.5 -8.5t-7 -13.5l-0.5 -1.5t-1 -2.5l-1 -2t-0.5 -2v-0.5v-0.5zM118 214q3 0 5 3t3 6.5t3 6.5t5 3q5 0 7.5 -3.5t4.5 -7t4.5 -7t6.5 -3.5t5.5 2.5t3 6t4 6t8.5 2.5q0 -2 -2.5 -7
t-5.5 -9.5t-7 -8t-6 -3.5h-3q0 1 -1.5 2t-2.5 2l-2.5 2.5l-1.5 1.5q-1 1 -2 3t-2 3.5t-2.5 3t-2.5 1.5h-1l-2 -2t-3 -2.5t-3.5 -3l-1.5 -1.5q-1 -1 -2 -3t-1.5 -3.5t-2 -2.5t-3.5 -1t-5.5 4t-7.5 9.5t-6.5 10.5t-2.5 7q5 0 8 -2.5t5.5 -6t4.5 -6.5t5 -3zM118 151
q-2 0 -3.5 1.5t-3 3.5t-3 3.5l-2.5 2.5t-2 3.5t-2.5 5t-2.5 4.5t-1 3v3q4 0 6.5 -3t4 -6t3.5 -6t6 -3q3 0 4.5 2.5t3 5.5t3.5 6t5 3q5 0 7.5 -3t4.5 -6.5t4.5 -6t6.5 -2.5q3 0 4.5 2t2.5 4t2.5 4t4.5 2l2 -0.5t3 -0.5l0.5 -0.5t0.5 -1.5l-0.5 -1t-0.5 -2q-2 -1 -4 -4
t-4.5 -6t-5.5 -5t-6 -2q-4 0 -6.5 2.5t-4 6t-3.5 6.5t-5 3t-5 -2.5t-4.5 -5.5t-4.5 -6t-3 -4h-1.5h-0.5zM83 118q0 6 3.5 13t8.5 11h14h11q8 0 16.5 -0.5t17.5 -0.5t16.5 -1t12 -3t4.5 -5t-5 -3q-9 0 -18 2.5t-19 2.5h-6q-2 -2 -2.5 -4.5t-0.5 -4.5v-1v-3t0.5 -2l0.5 -1h19
l1.5 -1t2.5 -2l2.5 -2.5t1.5 -2.5t0.5 -2.5t1 -3.5t0.5 -3.5v-1.5q-5 0 -7 1.5t-3 4t-2.5 4t-7.5 1.5q-4 0 -6 -2.5t-3 -6.5t-1 -8v-7q-1 0 -2.5 -0.5t-2.5 -0.5h-1v0q-1 0 -1.5 0.5l-0.5 0.5l-2 24t0 24l-2 1h-4q-11 0 -16.5 -3.5t-8 -7.5t-4 -7.5t-4.5 -3.5q-1 0 -2.5 1.5
t-1.5 3.5zM92 83h1q0 1 1 2l1 1v22q0 2 1.5 2h2.5q2 0 4 -0.5t2 -2.5v-29l2.5 -1l2.5 -1q1 -1 4 -2t6.5 -2t6.5 -2t4 -1t1.5 -1t0.5 -2q0 -3 -3 -3q-5 0 -8.5 2t-7.5 3q-1 0 -4.5 -0.5t-4.5 -0.5q0 -6 2 -9.5t4.5 -4.5t6 -1h5.5q3 0 5 -1t2 -3v-1q-1 -1 -2.5 -2l-1.5 -1h-20
l-0.5 -0.5t-0.5 -1.5h-0.5h-0.5q0 -5 4 -6.5t8 -2t7.5 -2t3.5 -6.5h-21v-4t-1 -4t-2.5 -3.5t-4.5 -1.5h-0.5h-0.5q-3 5 -4 10.5t0 10.5q-2 1 -7.5 2t-11 2.5t-10 3t-4.5 4.5q0 4 5 4q4 0 7.5 -1.5t6.5 -3t6.5 -2.5t7.5 -1q3 0 3.5 1.5t0.5 3.5q0 5 -5 7t-10.5 3t-10 3
t-4.5 5q0 4 3 4h2l21 -10q2 -1 3 1.5t1 3.5q0 5 -3 8.5t-7.5 6t-9.5 3.5t-9 2t-7 2.5t-3 3.5q0 3 2 3.5t5 0.5t6.5 -1.5t7 -3.5t7 -3.5t6.5 -1.5zM176 94q0 3 1.5 3.5t3.5 0.5q3 0 5.5 -2.5t3.5 -6l2 -7t2 -5.5q0 -1 0.5 -3.5t1.5 -6t1.5 -6.5t1.5 -4v-1v-1q0 -1 -1.5 -2.5
l-2 -2l-1 -1l-0.5 -0.5h-32q-1 0 -2.5 -3t-2.5 -4v-8q0 -5 1 -9t1 -8q0 -2 -1.5 -3.5t-4.5 -1.5q-1 0 -2 0.5t-2 1.5v11q0 4 -0.5 8.5t0.5 9t3 8t7 6.5v1q0 4 -1 7.5l-2 7t-2 7.5t-1 7q0 2 1 2.5t2 0.5q2 0 4 -2.5t2.5 -6t1 -6.5t0.5 -5l1 -2t1.5 -4.5t1.5 -4.5l1 -2
q2 -2 4 -2h4h5q2 0 4 2v4q0 8 -3.5 16t-6.5 16v1z" />
</svg>
