<?xml version="1.0" standalone="no"?>
<!DOCTYPE svg PUBLIC "-//W3C//DTD SVG 1.1//EN" "http://www.w3.org/Graphics/SVG/1.1/DTD/svg11.dtd" >
<svg xmlns="http://www.w3.org/2000/svg" xmlns:xlink="http://www.w3.org/1999/xlink" version="1.1" viewBox="-10 0 266 256">
   <path fill="currentColor"
d="M185 244q0 2 1.5 3t3.5 1h2.5t1.5 -2q0 -1 0.5 -4t0.5 -7v-7v-4q0 -20 -2 -40.5t-2 -40.5v-9q2 -4 5 -4q4 0 6.5 6t3.5 13.5t1 14.5v10q0 2 0.5 8.5t0.5 14t0.5 14t0.5 9.5q0 2 1 2h2q8 0 8 -8q0 -21 -3 -41t-5 -41q-1 -5 -5 -7.5t-7.5 -4t-6.5 -4t-3 -9.5q0 -5 2 -7
t4.5 -3.5t5.5 -3t5 -6.5q4 -8 4.5 -19t0.5 -20v-10q-1 -2 -2 -3t-3 -1t-2.5 1.5t-0.5 4.5v2t-0.5 4l-1 4t-0.5 3v5t-0.5 8t-0.5 8v5q-1 3 -3 5t-5 2t-4 -0.5t-1 -4.5v-51q0 -2 -2 -3t-5 -1.5t-5 -0.5h-3h-5t-6.5 1t-6 2t-2.5 2q0 4 4.5 4.5t10 0t10 0.5t4.5 6v2q0 2 -0.5 7
t-0.5 11t-0.5 11t-0.5 7q0 1 -1.5 3.5t-3.5 3.5q-5 -4 -6 -10q0 -2 -0.5 -6t-1 -9t-1 -9t-0.5 -6l-0.5 -1t-1.5 -1q-3 0 -4 3t-1 5v3q1 1 1.5 5.5t1 9.5t1 9.5t0.5 6.5q1 2 4.5 3.5t6.5 3t5.5 3.5t2.5 5v21q0 1 -2.5 2t-4.5 2q-6 2 -9.5 4.5t-5 6.5t-2 9.5t-0.5 13.5v29v29
q0 1 0.5 1.5l0.5 0.5q3 0 4.5 -3.5t2.5 -4.5q-1 -18 -0.5 -35t1.5 -35q1 -3 4 -6.5t6 -3.5h2.5t2.5 2q2 23 3.5 44t1.5 44q0 5 -1 10.5t-1 11.5zM56 227q0 2 1 4t4 2q2 0 3.5 -1.5t2.5 -4t1.5 -5t0.5 -4.5v-3.5v-6.5v-5.5v-4.5q1 -3 2 -4t2.5 -1.5t3.5 0t4 0.5v30q0 2 2 2h3
t2.5 -0.5t1.5 -2.5v-28l3 -4h8l0.5 4t0.5 6q1 6 0.5 9.5t-0.5 7t0.5 7t1.5 8.5v0q4 0 5 -2.5t1 -5.5q0 -8 -1 -15t-1 -14q0 -4 1.5 -6t5.5 -2h2t1 2q0 1 0.5 3t0.5 5t0.5 5t0.5 3v3.5t1 5t2 4.5t3 2q3 0 3.5 -3t0.5 -5q0 -6 -2 -11t-2 -10q0 -4 3 -5t7 -1h2.5t1.5 2
q0 3 0.5 9.5l1 13t2 12t3.5 5.5q4 0 4.5 -2t0.5 -5v-3t-1 -2q0 -1 -1 -7t-2 -12.5t-2 -12.5t-1 -8q0 -3 -0.5 -10.5t-0.5 -16.5v-16.5v-10.5q0 -2 -1 -3t-2 -1q-4 0 -5 3.5t-1 7.5t-1 7.5t-5 3.5h-3t-2 -2v-20h-2t-3 0.5t-2 1.5v18q0 1 -1 1.5t-2 0.5h-2h-1q-2 0 -2.5 -0.5
t-1.5 -4.5q0 -1 -0.5 -3.5t-0.5 -5.5t-0.5 -5.5t-0.5 -3.5t-0.5 -1.5l-0.5 -0.5q-1 0 -2 0.5t-1 1.5v23h-11q-1 0 -1.5 -1.5l-0.5 -1.5q0 -1 -0.5 -3.5t-0.5 -4.5t-0.5 -4.5l-0.5 -2.5q0 -1 -0.5 -1.5t-1.5 -0.5v0h-1l-1.5 1.5l-1.5 1.5q0 3 0.5 6t0 6.5t-2 5.5t-5.5 2
q-2 0 -4 -1t-2 -4v-18l-1 -1.5t-2 -1.5h-0.5h-0.5h-0.5h-0.5l-1 1l-2 2v3v4v4v3q0 13 1 25.5t1 25.5q0 6 -0.5 10.5l-1 9t-1.5 9.5l-2 10v4zM69 163q0 -4 1.5 -7t5.5 -3q2 0 3.5 1.5t1.5 4.5v23h-9l-0.5 -3t-1 -6.5t-1 -6.5zM88 156q0 -4 2 -5.5t6 -1.5h1h2q2 5 2 9v10v11
q-1 2 -2.5 2.5t-3.5 0.5q-3 0 -4.5 -3.5t-2 -8t-0.5 -8.5v-6zM112 149q3 0 4.5 2.5t2 6t0 7.5t-0.5 6v8q-1 1 -2 1h-3t-4 -1t-2 -4v-25q0 -1 2 -1h3zM126 175v-5t-0.5 -8l-1 -8t-0.5 -5v-1v-1q1 0 2.5 -0.5t2.5 -0.5h1q3 0 5 3t2.5 7t1 8.5t0.5 6.5q0 3 -1 4.5t-4 1.5
q-2 0 -4 -0.5t-4 -1.5zM59 71q0 3 0.5 9t1 12.5t3.5 11t8 4.5h3t4 -0.5t3 -1.5t1 -4v-28l-0.5 -0.5t-1.5 -0.5v0v0q-2 0 -2.5 1l-1.5 3t-2 3.5t-3 1.5t-3.5 -2t-3 -4.5t-2.5 -5t-1 -4.5v-2q9 -10 18.5 -19t18.5 -19h6l2.5 1.5t5 3.5t5 3.5t3.5 3.5q8 6 13.5 14.5t10.5 16.5
l0.5 1t1.5 1l1.5 -0.5t2.5 -1.5t2.5 -2t1.5 -2t-3.5 -5.5t-9 -10.5t-12 -13t-12.5 -12.5t-10.5 -9.5t-6.5 -4q-1 0 -2 1l-2 2q0 1 -1.5 3t-3.5 4.5t-3.5 4.5t-2.5 3q0 1 -3 4l-6.5 6.5l-6.5 6.5t-4 5q-3 2 -7.5 6.5l-9.5 9.5t-8 10t-3 8l2 2l1 1q3 1 5 -1t4 -5t4.5 -6
t4.5 -4zM91 85v6q0 4 1 7t3 5.5t6 2.5t6.5 -2t3.5 -4.5t1.5 -6t0.5 -6.5q0 -2 0.5 -4.5t0 -5t-1 -4t-2.5 -2.5q-1 1 -2 3t-1.5 3.5t-1.5 3t-3 1.5t-3 -1.5t-1.5 -3.5t-1.5 -3t-3 -1v0v0q-1 0 -1.5 0.5l-0.5 0.5v11zM123 101q3 3 5.5 4t6.5 1q5 0 7.5 -2t3.5 -5t1 -7v-8v-4
v-4t-1 -1.5l-1 -0.5q-2 0 -2.5 1t-1 2.5t-1.5 2.5t-3 1q-3 0 -4.5 -1t-2 -2.5t-1.5 -3t-3 -3.5q-2 1 -2.5 3.5t-1 5.5t0 6t0.5 4v11zM129 87h8q1 0 1.5 2t0.5 4t-1.5 4t-3.5 2t-3 -1t-1.5 -3t-0.5 -4v-4zM99 87q3 0 5 1t2 4q0 2 -0.5 4t-2.5 2h-1q-1 -1 -2 -1.5l-1 -0.5v-9z
M70 88q2 0 4.5 1t2.5 4q0 2 -1 2.5t-3 0.5t-2.5 -2.5t-0.5 -5.5zM78 56q0 2 1.5 2.5t3.5 0.5h3q5 0 11.5 -0.5l13 -1t11 -1l4.5 -0.5l3 -1l-5 -5l-33 1q-3 1 -6.5 2t-6.5 2v1z" />
</svg>
