<?xml version="1.0" standalone="no"?>
<!DOCTYPE svg PUBLIC "-//W3C//DTD SVG 1.1//EN" "http://www.w3.org/Graphics/SVG/1.1/DTD/svg11.dtd" >
<svg xmlns="http://www.w3.org/2000/svg" xmlns:xlink="http://www.w3.org/1999/xlink" version="1.1" viewBox="-10 0 266 256">
   <path fill="currentColor"
d="M194 249q1 2 4 2q2 0 5 -3t3 -5v-35q-2 -5 -2 -8.5v-9.5q0 -4 -0.5 -13.5t-1 -21.5t-1 -24.5t-1 -24.5t-1 -21.5t-0.5 -13.5v-12t-1 -11.5t-3.5 -10t-8.5 -7.5q-1 -1 -4 -1t-6 -0.5t-6.5 -0.5h-4.5q-4 0 -9 0.5t-10.5 0.5t-10.5 -1t-8 -3v-3v-4.5t-1 -4.5t-3 -3h-4h-3v13
l-1 0.5t-1 1.5q-1 0 -2 1l-1 1h-29q-5 3 -9.5 3.5t-8 1.5t-5.5 4.5t-3 12.5q-2 20 -2.5 40.5t-1 41.5t0 41.5t-0.5 39.5v21v2t-0.5 2t-0.5 2.5v1.5v3q0 2 1 3t3 1q3 0 6 -3t3 -6v-73q-2 -4 -2 -8.5v-9.5q0 -9 0.5 -18.5t1.5 -18.5t1.5 -18.5t-0.5 -18.5l4 -3q1 -1 4 -1.5
t6.5 -1.5t6.5 -2t4 -2q5 -1 7.5 -3.5t4 -6t2 -7.5t0.5 -10q1 -1 3 -2t5 -1h5.5h4.5q4 0 7 1t7 1v0q1 0 3 -1l2 -1h1h1l1.5 0.5t1.5 1.5q0 2 0.5 6.5t2.5 9t4.5 8t7.5 3.5h27l2 3q-1 17 0.5 31.5t2.5 30.5q2 31 2 61t-1 60zM109 186l1 2t2 4.5t2 4.5t1 3l42 39q0 1 1 1h3
q3 0 5.5 -1.5t2.5 -5.5q0 -3 -2 -5t-5 -3.5t-5.5 -3.5t-4.5 -4q-1 -1 -4 -2.5t-6.5 -3.5t-6 -4t-2.5 -5q0 -1 1 -3.5t2 -4.5t2.5 -4t2.5 -3v-70q0 -2 5 -3t10.5 -2.5t10.5 -3.5t5 -7v-17q0 -3 -2.5 -4.5t-5.5 -2.5t-6 -1h-4t-4.5 -0.5t-7.5 -0.5t-7.5 -0.5t-4.5 -0.5l-2 -1
v-15q0 -1 -2 -1.5t-3 -0.5v0q-1 0 -1 1v4q0 2 -0.5 4.5t-1.5 5t-3 3.5q-7 0 -13.5 0.5t-12 3t-8.5 7t-3 12.5q0 7 2.5 10t7 4t9.5 1h10v3.5v5.5v5v4v1.5t-0.5 3l-1 3l-0.5 1.5q0 1 0.5 2t1 2.5t0.5 2.5v1v7.5v11.5v12v8zM119 190q0 -1 -0.5 -3.5t-0.5 -5.5t-0.5 -6t-0.5 -4
v-41v-42q2 -4 5 -5t7 -1h2h2l2 3v75q-1 2 -1.5 8t-1.5 12t-2.5 10.5t-4.5 4.5q-2 0 -3.5 -1t-2.5 -4zM146 189q0 3 1 4t4 1q12 0 17 -5t6.5 -13t1.5 -17t1 -17v-2q0 -2 -0.5 -5t-1.5 -6.5t-2 -6t-4 -2.5h-1q-1 1 -1.5 3t-0.5 4t-0.5 4l-0.5 2q-1 3 -4 3.5t-6 0.5t-5.5 0.5
t-2.5 4.5q0 1 0.5 2.5t2.5 1.5h1l2 -0.5t4 -1.5t4 -1.5t3 -0.5h1q1 0 1.5 1t0.5 2v2.5v1.5v2v2.5t-1 3t-2 1.5h-15q-2 0 -2.5 2t-0.5 3q0 2 1 2.5t4 0.5h2h3h4h2q2 2 2 3.5v3.5q0 6 -3 8t-6 3t-6 1.5t-3 3.5zM83 119l-2.5 1t-2.5 2v54q0 4 2.5 9t6.5 7h2.5h3.5h6t5 -3
q-3 -4 -6 -4.5t-5.5 -1t-4.5 -3t-2 -9.5v-3t1 -3h3t4 -0.5t4 -1.5t2 -3q0 -3 -2.5 -3h-5.5t-5.5 -2t-2.5 -9q0 -3 3 -3.5t6 -0.5t5.5 -1t2.5 -4v-1q-1 -2 -3 -2.5t-4 -0.5h-4h-2q-2 -1 -2.5 -2.5t-0.5 -3.5t-0.5 -4.5t-1.5 -3.5zM141 90q0 -4 1.5 -6t5.5 -2q3 0 6 0.5
t5.5 1.5t4 3.5t1.5 5.5q0 4 -2 6.5t-5 4t-6.5 2t-6.5 0.5h-2q-1 -5 -1.5 -8.5t-0.5 -7.5zM86 96q0 -3 2 -5.5t4.5 -4.5t5.5 -3t6 -1t5 3t2 6q0 6 -1.5 9.5t-7.5 3.5h-5t-5 -1t-4 -2.5t-2 -4.5zM92 36q2 0 4 1t2 4q0 6 -3.5 9.5t-8.5 5t-10.5 2t-10.5 0.5v-14q0 -2 3.5 -4
t8.5 -2.5t9 -1t6 -0.5zM154 42v-3t2 -2h27l3 4v12q0 1 -1 1.5t-2.5 0.5h-3.5h-1h-8.5t-8 -1.5t-5.5 -4t-2 -7.5z" />
</svg>
